<svg xmlns="http://www.w3.org/2000/svg" fill="none" viewBox="0 0 24 24" id="Go-Pro--Streamline-Ultimate">
  <desc>
    Go Pro Streamline Icon: https://streamlinehq.com
  </desc>
  <path stroke="#000000" stroke-linecap="round" stroke-linejoin="round" d="M2.75 0.75h18.5s2 0 2 2V14.5s0 2 -2 2H2.75s-2 0 -2 -2V2.75s0 -2 2 -2Z" stroke-width="1"></path>
  <path stroke="#000000" stroke-linecap="round" stroke-linejoin="round" d="M4.25 3.75h4.5s0.5 0 0.5 0.5V7s0 0.5 -0.5 0.5h-4.5s-0.5 0 -0.5 -0.5V4.25s0 -0.5 0.5 -0.5Z" stroke-width="1"></path>
  <path stroke="#000000" stroke-linecap="round" stroke-linejoin="round" d="M12.25 0.75h9c0.5304 0 1.0391 0.210714 1.4142 0.58579 0.3751 0.37507 0.5858 0.88378 0.5858 1.41421v10h-9c-0.5304 0 -1.0391 -0.2107 -1.4142 -0.5858s-0.5858 -0.8838 -0.5858 -1.4142v-10Z" stroke-width="1"></path>
  <path stroke="#000000" stroke-linecap="round" stroke-linejoin="round" d="M14.75 6.75c0 0.79565 0.3161 1.55871 0.8787 2.12132 0.5626 0.56261 1.3257 0.87868 2.1213 0.87868 0.7956 0 1.5587 -0.31607 2.1213 -0.87868 0.5626 -0.56261 0.8787 -1.32567 0.8787 -2.12132s-0.3161 -1.55871 -0.8787 -2.12132C19.3087 4.06607 18.5456 3.75 17.75 3.75c-0.7956 0 -1.5587 0.31607 -2.1213 0.87868 -0.5626 0.56261 -0.8787 1.32567 -0.8787 2.12132Z" stroke-width="1"></path>
  <path stroke="#000000" stroke-linecap="round" stroke-linejoin="round" d="M13.97 23.25H10l0.03 -6.75h3.94v6.75Z" stroke-width="1"></path>
  <path stroke="#000000" stroke-linecap="round" stroke-linejoin="round" d="M8 23.25h8" stroke-width="1"></path>
  <path stroke="#000000" stroke-linecap="round" stroke-linejoin="round" d="M5.75 12c0 0.1989 0.07902 0.3897 0.21967 0.5303 0.14065 0.1407 0.33142 0.2197 0.53033 0.2197 0.19891 0 0.38968 -0.079 0.53033 -0.2197 0.14065 -0.1406 0.21967 -0.3314 0.21967 -0.5303 0 -0.1989 -0.07902 -0.3897 -0.21967 -0.5303 -0.14065 -0.1407 -0.33142 -0.2197 -0.53033 -0.2197 -0.19891 0 -0.38968 0.079 -0.53033 0.2197 -0.14065 0.1406 -0.21967 0.3314 -0.21967 0.5303Z" stroke-width="1"></path>
  <path stroke="#000000" stroke-linecap="round" stroke-linejoin="round" d="M10.01 20.25H5.25" stroke-width="1"></path>
  <path stroke="#000000" stroke-linecap="round" stroke-linejoin="round" d="M5.25 22h-3c-0.39782 0 -0.77936 -0.158 -1.06066 -0.4393C0.908035 21.2794 0.75 20.8978 0.75 20.5c0 -0.3978 0.158035 -0.7794 0.43934 -1.0607C1.47064 19.158 1.85218 19 2.25 19h3v3Z" stroke-width="1"></path>
</svg>