<svg xmlns="http://www.w3.org/2000/svg" fill="none" viewBox="0 0 14 14" id="Command--Streamline-Core">
  <desc>
    Command Streamline Icon: https://streamlinehq.com
  </desc>
  <g id="command--mac-command-apple-keyboard">
    <path id="Vector" fill="#ff7972" d="M7 14c3.866 0 7 -3.134 7 -7 0 -3.86599 -3.134 -7 -7 -7 -3.86599 0 -7 3.13401 -7 7 0 3.866 3.13401 7 7 7Z" stroke-width="1"></path>
    <path id="Union" fill="#0c098c" fill-rule="evenodd" d="M2.99439 1.70039c-0.18097 -0.07496 -0.3801 -0.09457 -0.57222 -0.05636 -0.19211 0.03822 -0.36858 0.13254 -0.50709 0.27105 -0.13851 0.13851 -0.23283 0.31498 -0.27105 0.50709 -0.03821 0.19212 -0.0186 0.39125 0.05636 0.57222 0.07496 0.18097 0.2019 0.33565 0.36477 0.44447 0.16286 0.10882 0.35435 0.16691 0.55023 0.16691h0.99038v-0.99038c0 -0.19588 -0.05809 -0.38737 -0.16691 -0.55023 -0.10882 -0.16287 -0.2635 -0.28981 -0.44447 -0.36477Zm1.86138 1.90538v-0.99038c0 -0.44311 -0.1314 -0.87627 -0.37757 -1.2447 -0.24618 -0.36842 -0.59608 -0.655581 -1.00546 -0.82515C3.06337 0.375971 2.6129 0.331604 2.17831 0.418049c-0.43459 0.086446 -0.83379 0.299822 -1.14712 0.613141 -0.313319 0.31333 -0.526695 0.71253 -0.613141 1.14712 -0.086445 0.43459 -0.042078 0.88506 0.127491 1.29443 0.169569 0.40938 0.45673 0.75928 0.82515 1.00546 0.36843 0.24617 0.80159 0.37757 1.2447 0.37757h0.99038v4.28846h-0.99038c-0.44311 0 -0.87627 0.1314 -1.2447 0.37757 -0.36842 0.24618 -0.655581 0.5961 -0.82515 1.0055 -0.169569 0.4093 -0.213936 0.8598 -0.127491 1.2944 0.086446 0.4346 0.299821 0.8338 0.613141 1.1471 0.31333 0.3133 0.71253 0.5267 1.14712 0.6132 0.43459 0.0864 0.88506 0.042 1.29443 -0.1275 0.40938 -0.1696 0.75928 -0.4568 1.00546 -0.8252 0.24617 -0.3684 0.37757 -0.8016 0.37757 -1.2447v-0.9904h4.28846v0.9904c0 0.4431 0.1314 0.8763 0.37757 1.2447 0.24618 0.3684 0.5961 0.6556 1.0055 0.8252 0.4093 0.1695 0.8598 0.2139 1.2944 0.1275 0.4346 -0.0865 0.8338 -0.2999 1.1471 -0.6132 0.3133 -0.3133 0.5267 -0.7125 0.6132 -1.1471 0.0864 -0.4346 0.042 -0.8851 -0.1275 -1.2944 -0.1696 -0.4094 -0.4568 -0.75932 -0.8252 -1.0055 -0.3684 -0.24617 -0.8016 -0.37757 -1.2447 -0.37757h-0.9904V4.85577h0.9904c0.4431 0 0.8763 -0.1314 1.2447 -0.37757 0.3684 -0.24618 0.6556 -0.59608 0.8252 -1.00546 0.1695 -0.40937 0.2139 -0.85984 0.1275 -1.29443 -0.0865 -0.43459 -0.2999 -0.83379 -0.6132 -1.14712 -0.3133 -0.31332 -0.7125 -0.526695 -1.1471 -0.613141 -0.4346 -0.086445 -0.8851 -0.042078 -1.2944 0.127491 -0.4094 0.169569 -0.75932 0.45673 -1.0055 0.82515 -0.24617 0.36843 -0.37757 0.80159 -0.37757 1.2447v0.99038H4.85577Zm0 1.25v4.28846h4.28846V4.85577H4.85577Zm5.53843 -1.25h0.9904c0.1959 0 0.3874 -0.05809 0.5502 -0.16691 0.1629 -0.10882 0.2899 -0.2635 0.3648 -0.44447 0.075 -0.18097 0.0946 -0.3801 0.0564 -0.57222 -0.0382 -0.19212 -0.1326 -0.36858 -0.2711 -0.50709 -0.1385 -0.13851 -0.315 -0.23283 -0.5071 -0.27105 -0.1921 -0.03821 -0.3912 -0.0186 -0.5722 0.05636 -0.181 0.07496 -0.3356 0.2019 -0.4445 0.36477 -0.1088 0.16287 -0.1669 0.35435 -0.1669 0.55023v0.99038Zm0 6.78843v0.9904c0 0.1959 0.0581 0.3874 0.1669 0.5502 0.1089 0.1629 0.2635 0.2899 0.4445 0.3648 0.181 0.075 0.3801 0.0946 0.5722 0.0564 0.1921 -0.0382 0.3686 -0.1326 0.5071 -0.2711s0.2329 -0.315 0.2711 -0.5071c0.0382 -0.1921 0.0186 -0.3912 -0.0564 -0.5722 -0.0749 -0.181 -0.2019 -0.3356 -0.3648 -0.4445 -0.1628 -0.1088 -0.3543 -0.1669 -0.5502 -0.1669h-0.9904Zm-6.78843 0h-0.99038c-0.19588 0 -0.38736 0.0581 -0.55023 0.1669 -0.16287 0.1089 -0.28981 0.2635 -0.36477 0.4445 -0.07496 0.181 -0.09457 0.3801 -0.05636 0.5722 0.03822 0.1921 0.13254 0.3686 0.27105 0.5071 0.13851 0.1385 0.31497 0.2329 0.50709 0.2711 0.19212 0.0382 0.39125 0.0186 0.57222 -0.0564 0.18097 -0.0749 0.33565 -0.2019 0.44447 -0.3648 0.10882 -0.1628 0.16691 -0.3543 0.16691 -0.5502v-0.9904Z" clip-rule="evenodd" stroke-width="1"></path>
  </g>
</svg>