<svg xmlns="http://www.w3.org/2000/svg" fill="none" viewBox="0 0 14 14" id="Database-Setting--Streamline-Core">
  <desc>
    Database Setting Streamline Icon: https://streamlinehq.com
  </desc>
  <g id="database-setting--raid-storage-code-disk-gear-database-array-hard-disc-setting">
    <path id="Subtract" fill="#7af1ff" fill-rule="evenodd" d="M0.625 2.745v6.75999c0 1.12321 2.26633 2.04251 5.13259 2.11531 -0.00937 -0.1139 -0.01011 -0.2288 -0.00196 -0.3438 0.02659 -0.3757 0.14681 -0.7374 0.34808 -1.0528 -0.20126 -0.31533 -0.32149 -0.67702 -0.34808 -1.05268 -0.03183 -0.44959 0.07194 -0.89827 0.29772 -1.2881l0.19764 -0.34587 0.00308 -0.00537 0.00172 -0.00298c0.22375 -0.3866 0.55737 -0.69795 0.95848 -0.89449 0.33798 -0.16561 0.71102 -0.24341 1.08486 -0.22785 0.16944 -0.32403 0.41587 -0.60315 0.7192 -0.81189 0.37382 -0.25726 0.81668 -0.39561 1.27047 -0.39695l0.0015 -0.00001 0.4158 -0.00001 0.0052 0.00001c0.3164 0.00094 0.6276 0.06852 0.9137 0.19659V2.745c0 1.17084 -2.46243 2.12 -5.5 2.12s-5.5 -0.94916 -5.5 -2.12Z" clip-rule="evenodd" stroke-width="1"></path>
    <path id="Union" fill="#0c098c" fill-rule="evenodd" d="M2.01112 0.662757C3.09476 0.245066 4.54943 0 6.125 0s3.03024 0.245066 4.1139 0.662757c0.5397 0.208049 1.0194 0.471113 1.3749 0.795093 0.3557 0.32421 0.6362 0.7583 0.6362 1.28715V5c0 0.34517 -0.2798 0.625 -0.625 0.625S11 5.34517 11 5v-0.52945c-0.233 0.13333 -0.4895 0.25198 -0.7611 0.35669C9.15524 5.24493 7.70057 5.49 6.125 5.49s-3.03024 -0.24507 -4.11388 -0.66276c-0.27165 -0.10471 -0.52808 -0.22336 -0.76112 -0.35669V6.125c0 0.05218 0.0222 0.15737 0.17782 0.31493 0.15814 0.16011 0.41921 0.33565 0.79537 0.50273 0.74985 0.33305 1.83939 0.58065 3.11091 0.65458 0.34459 0.02003 0.6077 0.31562 0.58767 0.66022 -0.02004 0.34459 -0.31563 0.6077 -0.66023 0.58767 -1.37361 -0.07986 -2.62048 -0.34912 -3.54575 -0.76009 -0.1623 -0.07208 -0.31837 -0.15015 -0.46579 -0.23449v1.65444c0 0.05154 0.02151 0.15405 0.17076 0.30773 0.15199 0.15651 0.40369 0.32908 0.76812 0.49458 0.72668 0.3299 1.78546 0.5792 3.02746 0.6626 0.3444 0.0231 0.60485 0.321 0.58172 0.6654 -0.02312 0.3444 -0.32106 0.6049 -0.66547 0.5817 -1.34258 -0.0901 -2.55854 -0.3621 -3.46044 -0.7715 -0.44987 -0.2043 -0.850926 -0.4559 -1.148114 -0.7619C0.224103 10.3747 0 9.97641 0 9.50499V2.74398c0.000359243 -0.52839 0.280705 -0.96213 0.636234 -1.28613C0.99174 1.13387 1.47137 0.870806 2.01112 0.662757ZM10.2939 14l-0.0015 0c-0.202 -0.0006 -0.39905 -0.0622 -0.56544 -0.1767 -0.16631 -0.1144 -0.2942 -0.2764 -0.36693 -0.4647l-0.00011 -0.0003 -0.15152 -0.3912 -0.43814 -0.2486 -0.42176 0.0643 0.00001 0.0001 -0.00816 0.0011c-0.19701 0.0267 -0.39752 -0.0057 -0.57606 -0.0932 -0.17854 -0.0875 -0.32703 -0.2261 -0.42662 -0.3981l-0.00138 -0.0024 -0.19981 -0.3497c-0.10151 -0.1741 -0.14821 -0.3748 -0.13398 -0.5758 0.01433 -0.2023 0.08964 -0.3955 0.21602 -0.5541l0.00183 -0.0023 0.26622 -0.3301v-0.2458l0.00007 -0.0087 -0.00007 -0.0088 0 -0.24579 -0.26622 -0.33012 -0.00183 -0.00227c-0.12638 -0.1586 -0.20169 -0.35178 -0.21602 -0.55407 -0.01423 -0.20108 0.03247 -0.40175 0.13398 -0.57585l0.19981 -0.34967 0.00138 -0.00238c0.09959 -0.17208 0.24808 -0.31067 0.42662 -0.39815s0.37905 -0.11991 0.57606 -0.09317l0.00816 0.00111 -0.00001 0.00006 0.42176 0.06434 0.43814 -0.24867 0.15152 -0.39114 0.00011 -0.00027c0.07273 -0.18832 0.20062 -0.35031 0.36693 -0.46476 0.16639 -0.1145 0.36344 -0.17609 0.56544 -0.17669l0.0015 0 0.2051 0 0.001 0 0.2061 0 0.0015 0c0.202 0.0006 0.3991 0.06218 0.5654 0.17669 0.1664 0.11445 0.2942 0.27644 0.367 0.46476l0.0001 0.00027 0.1515 0.39114 0.4381 0.24867 0.4218 -0.06434 0 -0.00006 0.0081 -0.00111c0.1971 -0.02674 0.3976 0.00569 0.5761 0.09317 0.1785 0.08748 0.327 0.22607 0.4266 0.39815l0.0014 0.00238 0.1998 0.34967c0.1015 0.1741 0.1482 0.37477 0.134 0.57585 -0.0143 0.20229 -0.0896 0.39547 -0.216 0.55407l-0.0018 0.00227 -0.2663 0.33012v0.24579l0 0.0088 0 0.0087v0.2458l0.2663 0.3301 0.0018 0.0023c0.1264 0.1586 0.2017 0.3518 0.216 0.5541 0.0142 0.201 -0.0325 0.4017 -0.134 0.5758l-0.1998 0.3497 -0.0014 0.0024c-0.0996 0.172 -0.2481 0.3106 -0.4266 0.3981 -0.1785 0.0875 -0.379 0.1199 -0.5761 0.0932l-0.0081 -0.0011 0 -0.0001 -0.4218 -0.0643 -0.4381 0.2486 -0.1515 0.3912 -0.0001 0.0003c-0.0728 0.1883 -0.2006 0.3503 -0.367 0.4647 -0.1663 0.1145 -0.3634 0.1761 -0.5654 0.1767l-0.0015 0 -0.2061 0 -0.2061 0Zm0.2061 -2.5349c-0.69036 0 -1.25 -0.5597 -1.25 -1.25 0 -0.69036 0.55964 -1.25001 1.25 -1.25001 0.6904 0 1.25 0.55965 1.25 1.25001 0 0.6903 -0.5596 1.25 -1.25 1.25Z" clip-rule="evenodd" stroke-width="1"></path>
  </g>
</svg>