<svg xmlns="http://www.w3.org/2000/svg" fill="none" viewBox="0 0 14 14" id="Desktop-Code--Streamline-Core">
  <desc>
    Desktop Code Streamline Icon: https://streamlinehq.com
  </desc>
  <g id="desktop-code--desktop-device-display-computer-code-terminal-html-css-programming-system">
    <path id="Subtract" fill="#79ee8d" fill-rule="evenodd" d="M4.53631 2.375c-0.17345 0.62926 -0.01291 1.3313 0.48161 1.82583l2.25 2.25C7.61956 6.80246 8.09647 7 8.59375 7H11.125c0.4973 0 0.9742 -0.19754 1.3258 -0.54917l0.9242 -0.92418V10.375c0 0.2761 -0.2239 0.5 -0.5 0.5H1.125c-0.276142 0 -0.5 -0.2239 -0.5 -0.5v-7.5c0 -0.27614 0.223858 -0.5 0.5 -0.5h3.41131Z" clip-rule="evenodd" stroke-width="1"></path>
    <path id="Union" fill="#0c098c" fill-rule="evenodd" d="M9.03569 0.183058c0.24408 0.244078 0.24408 0.639806 0 0.883882L7.22763 2.875l1.80806 1.80806c0.24408 0.24408 0.24408 0.6398 0 0.88388 -0.24408 0.24408 -0.6398 0.24408 -0.88388 0l-2.25 -2.25c-0.24408 -0.24408 -0.24408 -0.6398 0 -0.88388l2.25 -2.250002c0.24408 -0.2440774 0.6398 -0.2440774 0.88388 0Zm1.64741 0c0.244 -0.2440774 0.6398 -0.2440774 0.8838 0l2.25 2.250002c0.2441 0.24408 0.2441 0.6398 0 0.88388l-2.25 2.25c-0.244 0.24408 -0.6398 0.24408 -0.8838 0 -0.2441 -0.24408 -0.2441 -0.6398 0 -0.88388l1.808 -1.80806 -1.808 -1.80806c-0.2441 -0.244076 -0.2441 -0.639804 0 -0.883882ZM12.875 11.5H8.78852l0.5 1.25H10c0.3452 0 0.625 0.2798 0.625 0.625S10.3452 14 10 14H4c-0.34518 0 -0.625 -0.2798 -0.625 -0.625s0.27982 -0.625 0.625 -0.625h0.71148l0.5 -1.25H1.125C0.50368 11.5 0 10.9963 0 10.375v-7.5C0 2.25368 0.50368 1.75 1.125 1.75H4c0.34518 0 0.625 0.27982 0.625 0.625S4.34518 3 4 3H1.25v7.25h11.5V6.125c0 -0.34518 0.2798 -0.625 0.625 -0.625s0.625 0.27982 0.625 0.625v4.25c0 0.6213 -0.5037 1.125 -1.125 1.125Z" clip-rule="evenodd" stroke-width="1"></path>
  </g>
</svg>