<svg xmlns="http://www.w3.org/2000/svg" fill="none" viewBox="0 0 14 14" id="Facebook-Logo-1--Streamline-Core">
  <desc>
    Facebook Logo 1 Streamline Icon: https://streamlinehq.com
  </desc>
  <g id="facebook-logo-1--media-facebook-social">
    <path id="Vector" fill="#fddc5c" d="M1 2v10c0 0.2652 0.10536 0.5196 0.29289 0.7071C1.48043 12.8946 1.73478 13 2 13h10c0.2652 0 0.5196 -0.1054 0.7071 -0.2929S13 12.2652 13 12V2c0 -0.26522 -0.1054 -0.51957 -0.2929 -0.70711C12.5196 1.10536 12.2652 1 12 1H2c-0.26522 0 -0.51957 0.10536 -0.70711 0.29289C1.10536 1.48043 1 1.73478 1 2Z" stroke-width="1"></path>
    <path id="Union" fill="#0c098c" fill-rule="evenodd" d="M1.73483 1.73483C1.80516 1.66451 1.90054 1.625 2 1.625h10c0.0995 0 0.1948 0.03951 0.2652 0.10983 0.0703 0.07033 0.1098 0.16571 0.1098 0.26517v10c0 0.0995 -0.0395 0.1948 -0.1098 0.2652 -0.0704 0.0703 -0.1657 0.1098 -0.2652 0.1098H9V9.00999h0.96c0.1618 0 0.3169 -0.06427 0.4313 -0.17867 0.1144 -0.11439 0.1787 -0.26955 0.1787 -0.43133v-0.77c0 -0.08011 -0.0158 -0.15943 -0.0464 -0.23344 -0.0307 -0.07401 -0.0756 -0.14125 -0.1323 -0.1979 -0.0566 -0.05664 -0.1239 -0.10157 -0.1979 -0.13223 -0.074 -0.03065 -0.1533 -0.04643 -0.2334 -0.04643h-0.92v-0.69c0 -0.84 0.38 -0.84 0.76 -0.84h0.74c0.0805 0.00331 0.1607 -0.01109 0.235 -0.04219 0.0743 -0.03111 0.1409 -0.07815 0.195 -0.13781 0.0581 -0.05533 0.1041 -0.12211 0.1351 -0.19612 0.031 -0.07402 0.0463 -0.15365 0.0449 -0.23388v-0.74c0.0027 -0.08143 -0.0107 -0.16259 -0.0395 -0.23883 -0.0287 -0.07625 -0.0721 -0.14609 -0.1279 -0.20553 -0.0557 -0.05943 -0.1226 -0.10731 -0.1968 -0.14088s-0.1544 -0.05218 -0.2358 -0.05476c-0.1088 0 -0.2205 -0.00118 -0.3341 -0.00237 -0.99954 -0.01053 -2.15021 -0.02265 -2.86107 0.75067 -0.62974 0.68508 -0.61481 1.52074 -0.59955 2.37506 0.00236 0.13193 0.00472 0.26431 0.00472 0.39664h-0.89c-0.08094 -0.00133 -0.16134 0.01347 -0.23651 0.04353 -0.07517 0.03006 -0.1436 0.07478 -0.2013 0.13156 -0.05771 0.05678 -0.10354 0.12447 -0.13482 0.19914 -0.03128 0.07467 -0.04738 0.15481 -0.04737 0.23577v0.77c-0.00001 0.08095 0.01609 0.1611 0.04737 0.23577 0.03128 0.07467 0.07711 0.14236 0.13482 0.19914 0.0577 0.05677 0.12613 0.1015 0.2013 0.13156 0.07517 0.03006 0.15557 0.04486 0.23651 0.04353h0.89V12.375H2c-0.09946 0 -0.19484 -0.0395 -0.26517 -0.1098 -0.07032 -0.0704 -0.10983 -0.1657 -0.10983 -0.2652V2c0 -0.09946 0.03951 -0.19484 0.10983 -0.26517ZM2 0.375c-0.43098 0 -0.8443 0.171205 -1.149049 0.475951C0.546205 1.1557 0.375 1.56902 0.375 2v10c0 0.431 0.171205 0.8443 0.475951 1.149 0.304749 0.3048 0.718069 0.476 1.149049 0.476h10c0.431 0 0.8443 -0.1712 1.149 -0.476 0.3048 -0.3047 0.476 -0.718 0.476 -1.149V2c0 -0.43098 -0.1712 -0.8443 -0.476 -1.149049C12.8443 0.546205 12.431 0.375 12 0.375H2Z" clip-rule="evenodd" stroke-width="1"></path>
  </g>
</svg>