<svg xmlns="http://www.w3.org/2000/svg" fill="none" viewBox="0 0 14 14" id="Hand-Held-Tablet-Writing--Streamline-Core">
  <desc>
    Hand Held Tablet Writing Streamline Icon: https://streamlinehq.com
  </desc>
  <g id="hand-held-tablet-writing--tablet-kindle-device-electronics-ipad-writing-digital-paper-notepad">
    <path id="Subtract" fill="#79ee8d" fill-rule="evenodd" d="M8.75001 0.625v0.3136L5.72118 3.97388c-0.26785 0.26841 -0.44126 0.61656 -0.49415 0.99205l-0.3 2.13c-0.07645 0.54284 0.10588 1.09013 0.49262 1.47865 0.38673 0.38853 0.93318 0.57338 1.47637 0.49942l2.12999 -0.29c0.37909 -0.05161 0.73083 -0.22603 1.00139 -0.49656L11.3148 7h0.3102v5.375c0 0.5523 -0.4477 1 -1 1h-9c-0.55228 0 -1 -0.4477 -1 -1V1.625c0 -0.55228 0.44772 -1 1 -1h7.12501Z" clip-rule="evenodd" stroke-width="1"></path>
    <path id="Union" fill="#0c098c" fill-rule="evenodd" d="M11.6597 0c0.1327 -0.0000703931 0.2599 0.0526134 0.3538 0.146447l1.84 1.840003c0.1952 0.19526 0.1952 0.51184 0 0.7071l-4.71003 4.71c-0.07729 0.0773 -0.17779 0.12713 -0.2861 0.14188l-2.13 0.29c-0.15519 0.02113 -0.31132 -0.03169 -0.42182 -0.14269 -0.1105 -0.11101 -0.16259 -0.26738 -0.14075 -0.42247l0.3 -2.13c0.01511 -0.10729 0.06466 -0.20676 0.14119 -0.28345L11.306 0.146823c0.0937 -0.0939334 0.221 -0.1467523685 0.3537 -0.146823ZM1.625 1.25c-0.20711 0 -0.375 0.16789 -0.375 0.375v8.8828H11V7.5c0 -0.34518 0.2798 -0.625 0.625 -0.625s0.625 0.27982 0.625 0.625v4.875c0 0.8975 -0.7275 1.625 -1.625 1.625h-9C0.727537 14 0 13.2725 0 12.375V1.625C0 0.727537 0.727537 0 1.625 0H8.25c0.34518 0 0.625 0.279822 0.625 0.625s-0.27982 0.625 -0.625 0.625H1.625ZM3.5 2.375c-0.34518 0 -0.625 0.27982 -0.625 0.625s0.27982 0.625 0.625 0.625h2c0.34518 0 0.625 -0.27982 0.625 -0.625s-0.27982 -0.625 -0.625 -0.625h-2ZM2.875 5.5c0 -0.34518 0.27982 -0.625 0.625 -0.625h1c0.34518 0 0.625 0.27982 0.625 0.625s-0.27982 0.625 -0.625 0.625h-1c-0.34518 0 -0.625 -0.27982 -0.625 -0.625Z" clip-rule="evenodd" stroke-width="1"></path>
  </g>
</svg>