<svg xmlns="http://www.w3.org/2000/svg" fill="none" viewBox="0 0 14 14" id="Watch-1--Streamline-Core">
  <desc>
    Watch 1 Streamline Icon: https://streamlinehq.com
  </desc>
  <g id="watch-1--device-timepiece-cirle-electronics-face-blank-watch-smart">
    <path id="Vector" fill="#79ee8d" d="M7 11.5c2.48528 0 4.5 -2.01472 4.5 -4.5S9.48528 2.5 7 2.5 2.5 4.51472 2.5 7s2.01472 4.5 4.5 4.5Z" stroke-width="1"></path>
    <path id="Union" fill="#0c098c" fill-rule="evenodd" d="M4.43934 0.43934C4.72064 0.158035 5.10218 0 5.5 0h3c0.39782 0 0.77936 0.158035 1.06066 0.43934C9.84196 0.720644 10 1.10217 10 1.5v1.34435c1.2874 0.93098 2.125 2.4455 2.125 4.15565 0 1.71015 -0.8376 3.2247 -2.125 4.1557V12.5c0 0.3978 -0.15804 0.7794 -0.43934 1.0607S8.89782 14 8.5 14h-3c-0.39782 0 -0.77936 -0.158 -1.06066 -0.4393C4.15804 13.2794 4 12.8978 4 12.5v-1.3443C2.71263 10.2247 1.875 8.71015 1.875 7c0 -1.71015 0.83763 -3.22467 2.125 -4.15565V1.5c0 -0.39783 0.15804 -0.779356 0.43934 -1.06066ZM3.125 7c0 -2.1401 1.7349 -3.875 3.875 -3.875S10.875 4.8599 10.875 7 9.1401 10.875 7 10.875 3.125 9.1401 3.125 7Z" clip-rule="evenodd" stroke-width="1"></path>
  </g>
</svg>