<svg xmlns="http://www.w3.org/2000/svg" fill="none" viewBox="0 0 14 14" id="Wifi-Disabled--Streamline-Core">
  <desc>
    Wifi Disabled Streamline Icon: https://streamlinehq.com
  </desc>
  <g id="wifi-disabled--wireless-wifi-internet-server-network-disabled-off-offline-connection">
    <path id="Union" fill="#fddc5c" fill-rule="evenodd" d="M3.21481 2.87665C4.42425 2.37538 5.71244 2.125 7.00008 2.125h0.00001c2.44961 -0.00001 4.90131 0.90655 6.80591 2.71984 0.2429 0.23117 0.26 0.61275 0.039 0.86479l-3.7743 4.30317c-0.11402 0.13 -0.27672 0.2069 -0.44948 0.2126 -0.17276 0.0056 -0.34015 -0.0605 -0.46238 -0.1828L3.01217 3.89597c-0.14758 -0.14759 -0.21176 -0.3591 -0.17106 -0.56381 0.04069 -0.20471 0.18089 -0.37559 0.3737 -0.45551Z" clip-rule="evenodd" stroke-width="1"></path>
    <path id="Union_2" fill="#0c098c" fill-rule="evenodd" d="M1.06694 0.183058c-0.244076 -0.2440774 -0.639804 -0.2440774 -0.883882 0 -0.2440774 0.244078 -0.2440774 0.639806 0 0.883882L12.9331 13.8169c0.244 0.2441 0.6398 0.2441 0.8838 0 0.2441 -0.244 0.2441 -0.6398 0 -0.8838L6.88805 6.00416c0.03835 -0.00072 0.07739 -0.00111 0.11707 -0.00111 0.78098 0 1.55426 0.1544 2.27536 0.45432 0.72112 0.29992 1.37582 0.73944 1.92642 1.29328 0.2434 0.24478 0.6391 0.24593 0.8839 0.00257 0.2448 -0.24337 0.2459 -0.6391 0.0025 -0.88388 -0.6668 -0.67069 -1.4596 -1.20293 -2.33279 -1.56612 -0.87323 -0.3632 -1.80964 -0.55017 -2.75539 -0.55017 -0.47082 0 -0.86816 0.04492 -1.15045 0.09044 -0.03836 0.00619 -0.07465 0.0124 -0.10878 0.01852L4.60664 3.72275c0.7761 -0.22585 1.58181 -0.34116 2.39326 -0.34116 1.12514 0 2.23927 0.22169 3.2787 0.6524 0.9892 0.40987 1.8922 1.00138 2.6627 1.74345 0.2487 0.23944 0.6443 0.232 0.8838 -0.01662 0.2394 -0.24862 0.232 -0.64428 -0.0166 -0.88373 -0.883 -0.85036 -1.9179 -1.5282 -3.0514 -1.99789 -1.19113 -0.49357 -2.46785 -0.74761 -3.7572 -0.74761 -1.1553 0 -2.30045 0.20396 -3.38298 0.60144L1.06694 0.183058Zm2.7614 6.744872c0.29091 -0.18578 0.37614 -0.57222 0.19035 -0.86314 -0.18578 -0.29091 -0.57222 -0.37614 -0.86314 -0.19036 -0.23819 0.15212 -0.74775 0.50087 -1.23891 0.9949 -0.24337 0.24478 -0.24222 0.64051 0.00257 0.88388 0.24479 0.24336 0.64051 0.24221 0.88388 -0.00257 0.40199 -0.40434 0.82826 -0.69691 1.02525 -0.82271Zm2.28561 1.08199c0.14655 0.31252 0.012 0.68468 -0.30053 0.83122 -0.31189 0.14625 -0.59514 0.3477 -0.83593 0.5949 -0.24085 0.24726 -0.63654 0.25246 -0.8838 0.0116 -0.24727 -0.24085 -0.25246 -0.63654 -0.01161 -0.8838 0.34585 -0.35506 0.75268 -0.64439 1.20065 -0.85445 0.31252 -0.14654 0.68467 -0.01199 0.83122 0.30053ZM6.99994 10.13c-0.99963 0 -1.81 0.8104 -1.81 1.81s0.81037 1.81 1.81 1.81c0.99964 0 1.81 -0.8104 1.81 -1.81s-0.81036 -1.81 -1.81 -1.81ZM2.04919 4.17604c0.20869 0.27495 0.15497 0.66701 -0.11998 0.8757 -0.3318 0.25183 -0.60955 0.47709 -0.87271 0.72824 -0.24971 0.23831 -0.64533 0.22907 -0.883641 -0.02064 -0.2383119 -0.24971 -0.2290708 -0.64533 0.02064 -0.88364 0.311574 -0.29735 0.630916 -0.55471 0.979991 -0.81965 0.27495 -0.20868 0.66701 -0.15497 0.8757 0.11999Z" clip-rule="evenodd" stroke-width="1"></path>
  </g>
</svg>