<svg xmlns="http://www.w3.org/2000/svg" fill="none" viewBox="0 0 24 24" id="Card-Add-1--Streamline-Ultimate">
  <desc>
    Card Add 1 Streamline Icon: https://streamlinehq.com
  </desc>
  <path fill="#000000" fill-rule="evenodd" d="M18.0024 20.4083c1.3374 -0.3433 2.1432 -1.7058 1.7999 -3.0431l-0.904 -3.5213c-0.0688 0.0057 -0.1385 0.0086 -0.2088 0.0086 -1.3808 0 -2.5 -1.1192 -2.5 -2.5V9.94775h-1.4043c-1.3808 0 -2.5 -1.11928 -2.5 -2.5 0 -1.38071 1.1192 -2.5 2.5 -2.5h1.4043V3.54346c0 -0.07269 0.0031 -0.14466 0.0091 -0.21577l-0.1749 -0.68163C15.6803 1.30871 14.3179 0.502893 12.9805 0.846211L2.28522 3.59186C0.947876 3.93518 0.142053 5.29762 0.485371 6.63497L4.26399 21.3541c0.34332 1.3373 1.70577 2.1432 3.04312 1.7998l10.69529 -2.7456Zm0.6871 -8.0558c-0.5523 0 -1 -0.4477 -1 -1V8.44727h-2.9043c-0.5523 0 -1 -0.44772 -1 -1 0 -0.55229 0.4477 -1 1 -1h2.9043V3.54346c0 -0.55229 0.4477 -1 1 -1 0.5522 0 1 0.44771 1 1v2.90381h2.9047c0.5523 0 1 0.44771 1 1 0 0.55228 -0.4477 1 -1 1h-2.9047v2.90523c0 0.5523 -0.4478 1 -1 1Z" clip-rule="evenodd" stroke-width="1"></path>
</svg>