<svg xmlns="http://www.w3.org/2000/svg" viewBox="0 0 24 24" id="Casino-Chip-5--Streamline-Ultimate">
  <desc>
    Casino Chip 5 Streamline Icon: https://streamlinehq.com
  </desc>
  <g id="Casino-Chip-5--Streamline-Ultimate.svg">
    <path d="M13.75 13.25a2 2 0 0 1 -2 2h-0.88a0.75 0.75 0 1 1 0 -1.5h0.88a0.5 0.5 0 0 0 0 -1H11a0.76 0.76 0 0 1 -0.75 -0.75V9.5a0.76 0.76 0 0 1 0.75 -0.75h2a0.75 0.75 0 0 1 0 1.5h-1a0.25 0.25 0 0 0 -0.25 0.25v0.5a0.25 0.25 0 0 0 0.22 0.25 2 2 0 0 1 1.78 2Z" fill="#000000" stroke-width="1"></path>
    <path d="M12 0a12 12 0 1 0 12 12A12 12 0 0 0 12 0Zm4.83 3.57a0.23 0.23 0 0 1 0.17 -0.14 0.3 0.3 0 0 1 0.21 0 10.18 10.18 0 0 1 3.36 3.36 0.3 0.3 0 0 1 0 0.21 0.23 0.23 0 0 1 -0.14 0.15l-2.81 1.21a0.27 0.27 0 0 1 -0.3 -0.09 6.32 6.32 0 0 0 -1.59 -1.59 0.27 0.27 0 0 1 -0.09 -0.3ZM12 2.5a1 1 0 1 1 -1 1 1 1 0 0 1 1 -1Zm-5.19 1a0.3 0.3 0 0 1 0.21 0 0.23 0.23 0 0 1 0.15 0.14l1.19 2.74a0.27 0.27 0 0 1 -0.09 0.3 6.32 6.32 0 0 0 -1.59 1.59 0.27 0.27 0 0 1 -0.3 0.09L3.57 7.17A0.23 0.23 0 0 1 3.43 7a0.3 0.3 0 0 1 0 -0.21 10.18 10.18 0 0 1 3.38 -3.34ZM2.5 12a1 1 0 1 1 1 1 1 1 0 0 1 -1 -1Zm4.67 8.43a0.23 0.23 0 0 1 -0.15 0.14 0.3 0.3 0 0 1 -0.21 0 10.18 10.18 0 0 1 -3.36 -3.36 0.3 0.3 0 0 1 0 -0.21 0.23 0.23 0 0 1 0.14 -0.15l2.81 -1.19a0.27 0.27 0 0 1 0.3 0.09 6.32 6.32 0 0 0 1.59 1.59 0.27 0.27 0 0 1 0.09 0.3ZM12 21.5a1 1 0 1 1 1 -1 1 1 0 0 1 -1 1Zm0 -5a4.5 4.5 0 1 1 4.5 -4.5 4.51 4.51 0 0 1 -4.5 4.5Zm5.19 4.05a0.3 0.3 0 0 1 -0.21 0 0.23 0.23 0 0 1 -0.15 -0.14l-1.19 -2.81a0.27 0.27 0 0 1 0.09 -0.3 6.32 6.32 0 0 0 1.59 -1.59 0.27 0.27 0 0 1 0.3 -0.09l2.81 1.19a0.23 0.23 0 0 1 0.14 0.15 0.3 0.3 0 0 1 0 0.21 10.18 10.18 0 0 1 -3.38 3.38ZM20.5 13a1 1 0 1 1 1 -1 1 1 0 0 1 -1 1Z" fill="#000000" stroke-width="1"></path>
  </g>
</svg>