<svg xmlns="http://www.w3.org/2000/svg" viewBox="0 0 24 24" id="Party-Decoration--Streamline-Ultimate">
  <desc>
    Party Decoration Streamline Icon: https://streamlinehq.com
  </desc>
  <g id="Party-Decoration--Streamline-Ultimate.svg">
    <path d="M0.2496 2.0008c0 0.0974 0.8762 5.919 0.8762 5.919 0.1059 0.7419 0.9752 1.0909 1.5648 0.6282 0.0466 -0.0366 0.0899 -0.0775 0.1291 -0.122l3.271 -3.6896c0.1293 -0.1377 0.3235 -0.1937 0.5062 -0.146l1.2656 0.3796c0.1846 0.0507 0.3197 0.2089 0.3408 0.3992l0.6717 4.8676c0.0995 0.7428 0.9657 1.0993 1.5593 0.6418 0.0487 -0.0376 0.0938 -0.0797 0.1346 -0.1258l3.31 -3.7189c0.1262 -0.136 0.3167 -0.192 0.4965 -0.146l0.9735 0.2823c0.1831 0.053 0.3171 0.21 0.3407 0.3991l0.6718 4.78c0.0519 0.3763 0.318 0.6879 0.6814 0.7983 0.3518 0.0956 0.7275 -0.0134 0.9735 -0.2823l3.2711 -3.641c0.1126 -0.1381 0.2928 -0.2019 0.4673 -0.1655 0.2832 0.1145 0.5817 0.1866 0.8859 0.2142 0.7494 0.1049 1.3313 -0.6408 1.0475 -1.3422 -0.1317 -0.3256 -0.4271 -0.5561 -0.775 -0.6048L1.4957 1.0662C0.9674 0.8898 0.3991 1.1917 0.2496 1.7282c-0.0128 0.0904 -0.0128 0.1822 0 0.2726Z" fill="#000000" stroke-width="1"></path>
    <path d="M22.5335 13.6928 1.116 16.1266c-0.7494 0.0824 -1.1285 0.9452 -0.6824 1.553 0.207 0.2821 0.5488 0.4323 0.8966 0.394h0.3018c0.1912 -0.0234 0.3783 0.0683 0.477 0.2337l2.4436 4.1861c0.3718 0.6507 1.3086 0.6548 1.6861 0.0074 0.0303 -0.0519 0.0557 -0.1065 0.0759 -0.1631l1.6647 -4.7119c0.0649 -0.1756 0.223 -0.2998 0.4089 -0.3212l0.9735 -0.1071c0.1929 -0.019 0.3792 0.0761 0.4771 0.2434l2.4532 4.2056c0.3748 0.649 1.3115 0.649 1.6862 -0.0001 0.0304 -0.0526 0.0558 -0.108 0.0759 -0.1654l1.6745 -4.7313c0.0648 -0.1756 0.2229 -0.2999 0.4089 -0.3213l0.8469 -0.0974c0.19 -0.0174 0.3727 0.0777 0.4673 0.2434l2.3657 4.0693c0.3826 0.6444 1.3193 0.6329 1.686 -0.0207 0.026 -0.0464 0.0482 -0.0948 0.0663 -0.1448l2.0444 -5.6561c0.1095 -0.6435 -0.4329 -1.2104 -1.0806 -1.1293Z" fill="#000000" stroke-width="1"></path>
  </g>
</svg>