<svg xmlns="http://www.w3.org/2000/svg" viewBox="0 0 24 24" id="Show-Theater-Mask-Happy--Streamline-Ultimate">
  <desc>
    Show Theater Mask Happy Streamline Icon: https://streamlinehq.com
  </desc>
  <path d="M22.35 0.27A1.45 1.45 0 0 0 21 0.09c-3.95 1.47 -14 1.47 -18 0a1.45 1.45 0 0 0 -1.35 0.18A1.49 1.49 0 0 0 1 1.51V12c0 6.75 8.77 12 11 12s11 -5.25 11 -12V1.51a1.49 1.49 0 0 0 -0.65 -1.24ZM6.42 8.88a0.77 0.77 0 0 1 -0.65 0.37 0.75 0.75 0 0 1 -0.65 -1.13 2.75 2.75 0 0 1 4.76 0 0.75 0.75 0 0 1 -0.27 1 0.76 0.76 0 0 1 -1 -0.28 1.29 1.29 0 0 0 -2.19 0.04ZM12 18.25c-2.62 0 -4.75 -1.68 -4.75 -3.75a0.76 0.76 0 0 1 0.75 -0.75h8a0.76 0.76 0 0 1 0.75 0.75c0 2.07 -2.13 3.75 -4.75 3.75Zm6.61 -9.1a0.75 0.75 0 0 1 -0.38 0.1 0.77 0.77 0 0 1 -0.65 -0.37 1.3 1.3 0 0 0 -2.16 0 0.76 0.76 0 0 1 -1 0.28 0.75 0.75 0 0 1 -0.27 -1 2.75 2.75 0 0 1 4.76 0 0.75 0.75 0 0 1 -0.3 0.99Z" fill="#000000" stroke-width="1"></path>
</svg>