<svg xmlns="http://www.w3.org/2000/svg" fill="none" viewBox="0 0 24 24" id="Shazam-Logo--Streamline-Logos">
  <desc>
    Shazam Logo Streamline Icon: https://streamlinehq.com
  </desc>
  <path fill="#000000" fill-rule="evenodd" d="M11.164 4.414a2 2 0 0 0 -2.828 -2.828l-4.25 4.25a7.303 7.303 0 1 0 10.328 10.328l1.25 -1.25a2 2 0 0 0 -2.828 -2.828l-1.25 1.25a3.303 3.303 0 1 1 -4.672 -4.672l4.25 -4.25Zm8.75 3.422a7.303 7.303 0 0 0 -10.328 0l-1.25 1.25a2 2 0 0 0 2.828 2.828l1.25 -1.25a3.303 3.303 0 1 1 4.672 4.672l-4.25 4.25a2 2 0 1 0 2.828 2.828l4.25 -4.25a7.303 7.303 0 0 0 0 -10.328Z" clip-rule="evenodd" stroke-width="1"></path>
</svg>