<svg xmlns="http://www.w3.org/2000/svg" fill="none" viewBox="0 0 24 24" id="Messages-Bubble-Square-Subtract--Streamline-Ultimate">
  <desc>
    Messages Bubble Square Subtract Streamline Icon: https://streamlinehq.com
  </desc>
  <path fill="#66e1ff" d="M1 13.4347c0 0.2537 0.10077 0.497 0.28014 0.6763 0.17938 0.1794 0.42266 0.2802 0.67633 0.2802h2.86942v3.8259l3.82588 -3.8259H20.1294c0.2537 0 0.497 -0.1008 0.6764 -0.2802 0.1793 -0.1793 0.2801 -0.4226 0.2801 -0.6763V1.95705c0 -0.25367 -0.1008 -0.49695 -0.2801 -0.67633 -0.1794 -0.17937 -0.4227 -0.28014 -0.6764 -0.28014H1.95647c-0.25367 0 -0.49695 0.10077 -0.67633 0.28014C1.10077 1.4601 1 1.70338 1 1.95705V13.4347Z" stroke-width="1"></path>
  <path fill="#c2f3ff" d="M1.95647 14.3912h2.86942L18.2165 1.00058H1.95647c-0.25367 0 -0.49695 0.10077 -0.67633 0.28014C1.10077 1.4601 1 1.70338 1 1.95705V13.4347c0 0.2537 0.10077 0.497 0.28014 0.6763 0.17938 0.1794 0.42266 0.2802 0.67633 0.2802Z" stroke-width="1"></path>
  <path fill="#ff808c" d="M17.2613 22.9994c3.1695 0 5.7388 -2.5694 5.7388 -5.7388 0 -3.1695 -2.5693 -5.7389 -5.7388 -5.7389s-5.7388 2.5694 -5.7388 5.7389c0 3.1694 2.5693 5.7388 5.7388 5.7388Z" stroke-width="1"></path>
  <path fill="#ffccd1" d="M13.2015 21.3189c-1.0763 -1.0764 -1.681 -2.5362 -1.681 -4.0584 0 -1.5221 0.6047 -2.9819 1.681 -4.0583 1.0763 -1.0763 2.5362 -1.681 4.0583 -1.681s2.982 0.6047 4.0583 1.681l-8.1166 8.1167Z" stroke-width="1"></path>
  <path stroke="#191919" stroke-linecap="round" stroke-linejoin="round" d="M17.2613 22.9994c3.1695 0 5.7388 -2.5694 5.7388 -5.7388 0 -3.1695 -2.5693 -5.7389 -5.7388 -5.7389s-5.7388 2.5694 -5.7388 5.7389c0 3.1694 2.5693 5.7388 5.7388 5.7388Z" stroke-width="1"></path>
  <path stroke="#191919" stroke-linecap="round" stroke-linejoin="round" d="M20.1304 17.2606h-5.7388" stroke-width="1"></path>
  <path stroke="#191919" stroke-linecap="round" stroke-linejoin="round" d="M9.60825 14.3912h-0.95648l-3.82588 3.8259v-3.8259H1.95647c-0.25367 0 -0.49695 -0.1008 -0.67633 -0.2802C1.10077 13.9317 1 13.6884 1 13.4347V1.95705c0 -0.25367 0.10077 -0.49695 0.28014 -0.67633 0.17938 -0.17937 0.42266 -0.28014 0.67633 -0.28014H20.1294c0.2537 0 0.497 0.10077 0.6764 0.28014 0.1793 0.17938 0.2801 0.42266 0.2801 0.67633v7.65178" stroke-width="1"></path>
</svg>