<svg xmlns="http://www.w3.org/2000/svg" fill="none" viewBox="0 0 14 14" id="Earth-1--Streamline-Flex-Gradient">
  <desc>
    Earth 1 Streamline Icon: https://streamlinehq.com
  </desc>
  <g id="earth-1--planet-earth-globe-world">
    <path id="Subtract" fill="url(#paint0_linear_9371_10609)" fill-rule="evenodd" d="M7.26074.00298656C7.17449.00099554 7.08757 0 7 0 4.82797 0 3.06046.612432 1.83645 1.83645.612432 3.06046 0 4.82797 0 7c0 .50496.0331009.98806.0992919 1.44754l.9989081.46388.00848.00394c.88417.42678 1.8617.21611 2.46494-.38713.20812-.20812.32505-.49039.32505-.78472V6.25656c0-.62585.24861-1.22607.69116-1.66861.44254-.44255 1.04276-.69117 1.66861-.69117.29433 0 .5766-.11692.78473-.32504.27231-.27231.41937-.67678.46008-1.21337.04066-.53604-.03046-1.13061-.12608-1.705446L7.26074.00298656ZM.483187 10.004c.305904.8381.757023 1.5633 1.353263 2.1596C3.06046 13.3876 4.82797 14 7 14c1.25809 0 2.38046-.2055 3.3401-.6162v-2.1707c0-.1629-.0647-.3191-.1799-.4343-.1151-.1152-.27134-.1799-.43422-.1799-.62585 0-1.22606-.2486-1.66861-.69113-.44254-.44254-.69116-1.04276-.69116-1.66861s.24862-1.22607.69116-1.66861c.35848-.35848.84099-.56595 1.32218-.6843.48778-.11998 1.02475-.16092 1.54745-.14923 1.0198.0228 2.0999.24981 2.7851.59932l.2748.12142c-.0948-1.92483-.7028-3.5008-1.8233-4.62131C11.2453.918147 10.021.344079 8.54962.114601l.05712.324444.00101.005726c.09918.595629.19255 1.314239.13992 2.008149-.05267.69427-.25717 1.43725-.82262 2.0027-.44255.44255-1.04276.69116-1.66861.69116-.29433 0-.57661.11693-.78473.32505-.20812.20812-.32504.4904-.32504.78473v1.48695c0 .62585-.24862 1.22606-.69117 1.66861-.97183.97178-2.518 1.29008-3.887798.63118l-.084515-.0393ZM12.1636 12.1636c-.1796.1795-.3709.346-.5735.4992v-1.4497c0-.4944-.1964-.9686-.546-1.31818-.3496-.34959-.8237-.54599-1.31812-.54599-.29433 0-.5766-.11692-.78472-.32504-.20813-.20812-.32505-.4904-.32505-.78473 0-.29433.11692-.57661.32505-.78473.13724-.13725.37727-.26592.73685-.35436.35299-.08682.77499-.12333 1.22099-.11336.9084.02031 1.7941.22919 2.2559.46869.0115.00597.0232.01159.0351.01683l.7796.34458c-.1372 1.8004-.7394 3.27999-1.8061 4.34679Z" clip-rule="evenodd"></path>
  </g>
  <defs>
    <linearGradient id="paint0_linear_9371_10609" x1=".537" x2="16.486" y1="1.131" y2="10.112" gradientUnits="userSpaceOnUse">
      <stop stop-color="#00d078"></stop>
      <stop offset="1" stop-color="#007df0"></stop>
    </linearGradient>
  </defs>
</svg>