<svg xmlns="http://www.w3.org/2000/svg" fill="none" viewBox="0 0 14 14" id="Elevator--Streamline-Flex-Gradient">
  <desc>
    Elevator Streamline Icon: https://streamlinehq.com
  </desc>
  <g id="elevator">
    <path id="Subtract" fill="url(#paint0_linear_9371_10645)" fill-rule="evenodd" d="M3.65727.474686C4.73112.35499 5.85168.25 7 .25s2.26888.10499 3.3427.224686c1.672.186363 3.0154 1.528614 3.1946 3.203594.1143 1.0683.2127 2.18136.2127 3.32172 0 1.14035-.0984 2.25341-.2127 3.3217-.1792 1.675-1.5226 3.0173-3.1946 3.2036C9.26888 13.645 8.14832 13.75 7 13.75c-1.14832 0-2.26888-.105-3.34273-.2247C1.98532 13.339.641908 11.9967.462704 10.3217.348408 9.25341.25 8.14035.25 7c0-1.14036.098408-2.25342.212704-3.32172C.641907 2.0033 1.98532.661049 3.65727.474686ZM9.9491 2.96973c.1925-.07142.409-.01793.5461.13488.1371.1528.1669.37388.0751.55749-.273.546-.80074 1.07369-1.34671 1.34669-.14077.07038-.30645.07039-.44722.00001-.54602-.273-1.07371-.8007-1.34671-1.3467-.09181-.18361-.06205-.40469.07503-.55749.13709-.15281.35365-.2063.54612-.13488.66457.24659 1.23372.24659 1.89829 0Zm-4 2.06066c.19247.07141.40903.01793.54612-.13488.13708-.15281.16684-.37388.07503-.5575-.273-.546-.80069-1.07369-1.34666-1.34669-.14077-.07038-.30645-.07038-.44722 0-.54602.273-1.07371.80069-1.34671 1.34669-.09181.18362-.06205.40469.07503.5575.13709.15281.35365.20629.54612.13488.66457-.24659 1.23372-.24659 1.89829 0Zm5.013 6.75191c.027-1.0667-.0155-2.1397-.1276-3.18817-.1103-1.03029-.93516-1.85402-1.96272-1.96856-.40176-.04478-.81897-.08629-1.24678-.10855v5.72238c.85135-.0283 1.69902-.1098 2.5516-.2048.2813-.0314.5471-.1195.7855-.2523Zm-4.5871.4571V6.51704c-.42772.02226-.84484.06376-1.24652.10853-1.02757.11454-1.85246.93827-1.96269 1.96856-.11218 1.04852-.15468 2.12157-.12762 3.18837.23829.1327.50402.2208.78527.2521.85254.095 1.70021.1765 2.55156.2048Z" clip-rule="evenodd"></path>
  </g>
  <defs>
    <linearGradient id="paint0_linear_9371_10645" x1="14.92" x2="-3.29" y1="16.609" y2="3.674" gradientUnits="userSpaceOnUse">
      <stop stop-color="#ffd600"></stop>
      <stop offset="1" stop-color="#ff007a"></stop>
    </linearGradient>
  </defs>
</svg>