<svg xmlns="http://www.w3.org/2000/svg" fill="none" viewBox="0 0 14 14" id="Iron--Streamline-Flex-Gradient">
  <desc>
    Iron Streamline Icon: https://streamlinehq.com
  </desc>
  <g id="iron--laundry-iron-heat-hotel">
    <path id="Union" fill="url(#paint0_linear_9371_10831)" fill-rule="evenodd" d="M4.84192 1.23856c1.63676-.19304 3.76859-.429296 6.02318.00863 1.1165.21686 1.7988 1.07121 2.2102 1.95524.345.74129.5489 1.60113.6732 2.39954.0083.02623.0144.05337.0183.0812.2267 1.63527.2882 3.23516.1841 4.85263-.0842 1.308-1.1646 2.2812-2.4397 2.3448-3.41483.1703-6.81306.1603-10.22979-.0299-.412146-.023-.769213-.1608-1.008007-.454-.2293338-.2816-.28005107-.6228-.272739609-.907C.014115 10.9669.235907 10.3869.364426 10.0508l.018882-.0495C1.67271 6.61549 5.35606 4.70391 8.87958 4.70398c1.29192.00003 2.41702.14002 3.22102.28037-.0998-.41494-.2261-.80715-.3852-1.14902-.3191-.6856-.7002-1.03096-1.1363-1.11566-1.99998-.38847-3.91984-.18505-5.5615.00856-.41136.04852-.78416-.24563-.83268-.65699-.04851-.41137.24564-.78417.657-.83268Z" clip-rule="evenodd"></path>
  </g>
  <defs>
    <linearGradient id="paint0_linear_9371_10831" x1="2.288" x2="12.713" y1="3.307" y2="10.044" gradientUnits="userSpaceOnUse">
      <stop stop-color="#ffd600"></stop>
      <stop offset="1" stop-color="#00d078"></stop>
    </linearGradient>
  </defs>
</svg>