<svg xmlns="http://www.w3.org/2000/svg" fill="none" viewBox="0 0 14 14" id="Walker--Streamline-Flex-Gradient">
  <desc>
    Walker Streamline Icon: https://streamlinehq.com
  </desc>
  <g id="walker--disability-walker">
    <path id="Union" fill="url(#paint0_linear_9371_11323)" fill-rule="evenodd" d="M5.68457 0C5.07855 0 4.5698.171216 4.21279.528223 3.85579.885231 3.68457 1.39398 3.68457 2c0 .60602.17122 1.11477.52822 1.47178C4.5698 3.82878 5.07855 4 5.68457 4c.60602 0 1.11477-.17122 1.47178-.52822.357-.35701.52822-.86576.52822-1.47178 0-.60602-.17122-1.114769-.52822-1.471777C6.79934.171216 6.29059 0 5.68457 0ZM4.06804 4.41397c-.1785-.12722-.40371-.16998-.61642-.11705-.2127.05294-.3916.19627-.48965.39231l-.75994 1.51939c-.64942 1.29845-.058 2.78527 1.03255 3.50455.6055.39933 1.11547.84083 1.41116 1.27423.43066.6314.44789 1.2512.44789 2.2625 0 .4142.33579.75.75.75.41422 0 .75-.3358.75-.75l.00002-.0655c.00038-.9463.00081-2.002-.70874-3.0422C5.4304 9.47586 4.7362 8.90669 4.06045 8.461c-.56972-.37577-.76927-1.07672-.51686-1.58139l.38497-.7697c.90938.52369 1.89693.81807 3.24884.67203.41182-.04448.7096-.41438.66512-.8262-.04449-.41182-.41439-.7096-.82621-.66512-1.23644.13356-2.00423-.20382-2.94827-.87665Zm-.59701 6.99013c.12865-.3937-.08623-.8172-.47996-.9458-.39373-.1287-.8172.0862-.94585.4799-.21564.66-.53033 1.3576-.90312 1.8712-.243308.3352-.168788.8042.16644 1.0475.33523.2433.80422.1688 1.04752-.1664.496-.6834.87077-1.539 1.11497-2.2864Zm6.00916-2.63012c.64691-.11053 1.24271-.12564 1.87071-.02778l.0032.00372c.009.01133.0211.03566.0211.07173v.5645c-.6879-.07389-1.3664-.07882-2.05303-.01479.04448-.18901.09186-.37793.14216-.56691.0048-.01803.01245-.02724.01586-.03047Zm-.45646 2.14242c-.11691.7729-.18701 1.5548-.21157 2.3566-.01269.414-.3586.7393-.77262.7267-.41402-.0127-.73937-.3586-.72668-.7727.05058-1.651.28153-3.229.70195-4.8084.14974-.56252.60386-1.01883 1.20717-1.12229.79072-.1356 1.55492-.15854 2.36742-.03104.7944.12466 1.2858.83289 1.2858 1.55638V10.234c.0004.0139.0004.0279 0 .0419v.6361c0 .4143-.3357.75-.75.75-.4142 0-.75-.3357-.75-.75v-.0158c-.7899-.0989-1.55871-.0921-2.35147.0202Zm2.45837 1.5401c.1579-.1579.3813-.2319.643-.2319.2617 0 .4852.074.6431.2319.1579.1579.2319.3814.2319.6431s-.074.4851-.2319.643c-.1579.1579-.3814.232-.6431.232s-.4851-.0741-.643-.232c-.1579-.1579-.232-.3813-.232-.643 0-.2617.0741-.4852.232-.6431Z" clip-rule="evenodd"></path>
  </g>
  <defs>
    <linearGradient id="paint0_linear_9371_11323" x1="14.04" x2="-3.728" y1="16.965" y2="6.146" gradientUnits="userSpaceOnUse">
      <stop stop-color="#ffd600"></stop>
      <stop offset="1" stop-color="#ff007a"></stop>
    </linearGradient>
  </defs>
</svg>