<svg xmlns="http://www.w3.org/2000/svg" fill="none" viewBox="0 0 14 14" id="Dictionary-Language-Book--Streamline-Core">
  <desc>
    Dictionary Language Book Streamline Icon: https://streamlinehq.com
  </desc>
  <g id="dictionary-language-book">
    <path id="Subtract" fill="#2859c5" fill-rule="evenodd" d="M11.75 10.75v1.75H3.625c-0.48325 0 -0.875 -0.3918 -0.875 -0.875s0.39175 -0.875 0.875 -0.875h8.125Z" clip-rule="evenodd" stroke-width="1"></path>
    <path id="Union" fill="#8fbffa" fill-rule="evenodd" d="M1.25 2.25v9.375C1.25 12.9367 2.31332 14 3.625 14H12c0.4142 0 0.75 -0.3358 0.75 -0.75s-0.3358 -0.75 -0.75 -0.75H3.625c-0.48325 0 -0.875 -0.3918 -0.875 -0.875s0.39175 -0.875 0.875 -0.875H12c0.4142 0 0.75 -0.3358 0.75 -0.75V2.25C12.75 1.00736 11.7426 0 10.5 0h-7C2.25736 0 1.25 1.00736 1.25 2.25Z" clip-rule="evenodd" stroke-width="1"></path>
    <path id="Union_2" fill="#2859c5" fill-rule="evenodd" d="M5.81376 2.62936c-0.12271 -0.36812 -0.46721 -0.61642 -0.85524 -0.61642s-0.73253 0.2483 -0.85523 0.61642L3.4268 4.65881c-0.00261 0.00726 -0.00505 0.0146 -0.00733 0.02201l-0.3822 1.1466c-0.08733 0.26197 0.05425 0.54513 0.31623 0.63245 0.26197 0.08732 0.54513 -0.05426 0.63245 -0.31623l0.27188 -0.81564h1.40138l0.27188 0.81564c0.08733 0.26197 0.37049 0.40355 0.63246 0.31623 0.26197 -0.08732 0.40355 -0.37048 0.31623 -0.63245l-0.3822 -1.14659c-0.00228 -0.00742 -0.00473 -0.01476 -0.00734 -0.02202l-0.67648 -2.02945ZM4.59117 4.328l0.36735 -1.10207 0.36736 1.10207h-0.73471Zm5.77523 0.17395c0.187 0 0.3583 0.10428 0.4442 0.27033 0.0858 0.16605 0.0719 0.36614 -0.0362 0.51868L8.87357 7.97454h1.63753c0.2762 0 0.5 0.22386 0.5 0.5 0 0.27615 -0.2238 0.5 -0.5 0.5H7.90668c-0.18694 0 -0.35826 -0.10428 -0.44413 -0.27033 -0.08587 -0.16605 -0.07194 -0.36613 0.03612 -0.51868l1.90087 -2.68358H8.05137c-0.27614 0 -0.5 -0.22385 -0.5 -0.5 0 -0.27614 0.22386 -0.5 0.5 -0.5h2.31503Z" clip-rule="evenodd" stroke-width="1"></path>
  </g>
</svg>