<svg xmlns="http://www.w3.org/2000/svg" fill="none" viewBox="0 0 14 14"><g id="graduation-cap--graduation-cap-education"><path id="Union" fill="#37d7ff" d="m2.95 7 .006 2.517a.5.5 0 0 0 .1.3l.4-.301-.4.301.001.001.001.001.002.003.005.006.016.02.05.06c.043.048.105.114.185.191.162.154.4.354.723.553.648.399 1.624.784 2.96.784 1.337 0 2.314-.386 2.964-.784.323-.198.562-.398.724-.552a3.168 3.168 0 0 0 .237-.252l.015-.019.005-.006.002-.003s.002-.002-.396-.304l.398.302a.5.5 0 0 0 .101-.302V7L7.695 8.453a1.75 1.75 0 0 1-1.391 0L2.95 7Z"></path><path id="Ellipse 347 (Stroke)" fill="#3e3e3e" fill-rule="evenodd" d="M1.695 4.069c.276 0 .5.28.5.625v6.89c0 .346-.224.626-.5.626s-.5-.28-.5-.626v-6.89c0-.345.224-.625.5-.625Z" clip-rule="evenodd"></path><path id="Union_2" fill="#37d7ff" fill-rule="evenodd" d="M1.696 10.998a1.24 1.24 0 1 0 0 2.478 1.24 1.24 0 0 0 0-2.478Z" clip-rule="evenodd"></path><path id="Union_3" fill="#37d7ff" fill-rule="evenodd" d="M7.199.892a.5.5 0 0 0-.398 0l-6.5 2.816a.5.5 0 0 0 0 .918l6.5 2.816a.5.5 0 0 0 .398 0l6.5-2.816a.5.5 0 0 0 0-.918L7.199.892Z" clip-rule="evenodd"></path><path id="Subtract" fill="#3e3e3e" fill-rule="evenodd" d="m2.95 5.774 3.851 1.668a.5.5 0 0 0 .398 0l3.85-1.668V9.22 7L7.695 8.453a1.75 1.75 0 0 1-1.391 0L2.95 7V5.774ZM2.95 7l.005 2.22h-.004V7Z" clip-rule="evenodd"></path></g></svg>