<svg xmlns="http://www.w3.org/2000/svg" fill="none" viewBox="0 0 14 14"><g id="office-building-1--office-building-work"><path id="Subtract" fill="#37d7ff" fill-rule="evenodd" d="M2.655.003C1.818.003 1.14.682 1.14 1.52V12.5H.766a.75.75 0 0 0 0 1.5h5.418a1.586 1.586 0 0 1-.035-.33c0-1.611.838-3.027 2.1-3.835a3.228 3.228 0 0 1 .711-4.828l.001-3.488c0-.837-.678-1.516-1.515-1.516h-4.79Z" clip-rule="evenodd"></path><path id="Intersect" fill="#3e3e3e" fill-rule="evenodd" d="M1.14 5.622h4.347a.625.625 0 1 0 0-1.25H1.14v1.25Zm0-2.6h2.726a.625.625 0 0 0 0-1.25H1.14v1.25Z" clip-rule="evenodd"></path><path id="Union" fill="#3e3e3e" fill-rule="evenodd" d="M10.7 9.71a1.98 1.98 0 1 0 0-3.96 1.98 1.98 0 0 0 0 3.96Zm-3.3 3.96a3.3 3.3 0 1 1 6.6 0 .33.33 0 0 1-.33.33H7.73a.33.33 0 0 1-.33-.33Z" clip-rule="evenodd"></path></g></svg>