<svg xmlns="http://www.w3.org/2000/svg" viewBox="0 0 14 14">
  <g>
    <path d="M2.44,8.38a.24.24,0,0,0,0-.28A4.94,4.94,0,0,1,2,6,.75.75,0,0,0,.5,6a6.43,6.43,0,0,0,.78,3.08.26.26,0,0,0,.18.13.29.29,0,0,0,.22-.07Z" style="fill: #000001"/>
    <path d="M9.44,1.37a.25.25,0,0,0,.08-.18A.23.23,0,0,0,9.44,1,3.44,3.44,0,0,0,7,0,3.5,3.5,0,0,0,3.5,3.5V6a3.1,3.1,0,0,0,.08.69.27.27,0,0,0,.17.19A.25.25,0,0,0,4,6.81Z" style="fill: #000001"/>
    <path d="M7,9.5A3.5,3.5,0,0,0,10.5,6V4.66a.26.26,0,0,1,.07-.17l3.21-3.21A.75.75,0,0,0,12.72.22L10.36,2.58h0L4.5,8.44h0L3.44,9.5h0l-1,1.05h0L.22,12.72a.75.75,0,0,0,0,1.06.75.75,0,0,0,1.06,0l2.16-2.16a.26.26,0,0,1,.3,0,6.31,6.31,0,0,0,2.3.85.25.25,0,0,1,.21.25v.57a.75.75,0,0,0,1.5,0v-.57A.25.25,0,0,1,8,12.43,6.51,6.51,0,0,0,13.5,6,.75.75,0,0,0,12,6a5,5,0,0,1-5,5,4.81,4.81,0,0,1-2-.45.25.25,0,0,1-.15-.18.28.28,0,0,1,.07-.22l.77-.77a.25.25,0,0,1,.26-.06A3.37,3.37,0,0,0,7,9.5Z" style="fill: #000001"/>
  </g>
</svg>
