<svg xmlns="http://www.w3.org/2000/svg" fill="none" viewBox="0 0 14 14"><g id="battery-alert-1--phone-mobile-charge-device-electricity-power-battery-alert-warning"><path id="Vector" stroke="#3e3e3e" stroke-linecap="round" stroke-linejoin="round" d="M13.5 5.5A.5.5 0 0 0 13 5h-.5V3.5a1 1 0 0 0-1-1h-10a1 1 0 0 0-1 1v7a1 1 0 0 0 1 1h10a1 1 0 0 0 1-1V9h.5a.5.5 0 0 0 .5-.5v-3Z"></path><path id="Vector_2" stroke="#3e3e3e" stroke-linecap="round" stroke-linejoin="round" d="M6.5 4.5V7"></path><g id="Group 4500"><path id="Vector_3" stroke="#3e3e3e" stroke-linecap="round" stroke-linejoin="round" d="M6.5 9.125a.25.25 0 0 1 0-.5"></path><path id="Vector_4" stroke="#3e3e3e" stroke-linecap="round" stroke-linejoin="round" d="M6.5 9.125a.25.25 0 0 0 0-.5"></path></g></g></svg>