<svg xmlns="http://www.w3.org/2000/svg" fill="none" viewBox="0 0 14 14"><g id="controller-1--remote-quadcopter-drones-flying-drone-control-controller-technology-fly"><path id="Vector 693" stroke="#3e3e3e" stroke-linecap="round" stroke-linejoin="round" d="M4.4 5.02v2.31"></path><path id="Vector 694" stroke="#3e3e3e" stroke-linecap="round" stroke-linejoin="round" d="M5.556 6.175H3.245"></path><path id="Vector 2430" stroke="#3e3e3e" stroke-linejoin="round" d="m1.256 5.212-.412 3.71a2.283 2.283 0 0 0 4.311 1.273l.36-.72h2.97l.36.72a2.283 2.283 0 0 0 4.31-1.273l-.411-3.71a3 3 0 0 0-2.982-2.669H4.238a3 3 0 0 0-2.982 2.669Z"></path><g id="Group 628"><path id="Vector" stroke="#3e3e3e" stroke-linecap="round" stroke-linejoin="round" d="M10.466 5.514a.248.248 0 0 1 0-.495"></path><path id="Vector_2" stroke="#3e3e3e" stroke-linecap="round" stroke-linejoin="round" d="M10.466 5.514a.248.248 0 1 0 0-.495"></path></g><g id="Group 630"><path id="Vector_3" stroke="#3e3e3e" stroke-linecap="round" stroke-linejoin="round" d="M8.733 6.752a.248.248 0 0 1 .495 0"></path><path id="Vector_4" stroke="#3e3e3e" stroke-linecap="round" stroke-linejoin="round" d="M8.733 6.752a.248.248 0 1 0 .495 0"></path></g></g></svg>