<svg xmlns="http://www.w3.org/2000/svg" fill="none" viewBox="0 0 14 14"><g id="desktop-help--device-help-information-display-desktop-question-info"><path id="Vector" stroke="#3e3e3e" stroke-linecap="round" stroke-linejoin="round" d="M13.5 6.576V10.5a.5.5 0 0 1-.5.5H1a.5.5 0 0 1-.5-.5v-8A.5.5 0 0 1 1 2h6.166"></path><path id="Vector_2" stroke="#3e3e3e" stroke-linecap="round" stroke-linejoin="round" d="m6 11-1 2.5"></path><path id="Vector_3" stroke="#3e3e3e" stroke-linecap="round" stroke-linejoin="round" d="m8 11 1 2.5"></path><path id="Vector_4" stroke="#3e3e3e" stroke-linecap="round" stroke-linejoin="round" d="M4 13.5h6"></path><path id="Vector_5" stroke="#3e3e3e" stroke-linecap="round" stroke-linejoin="round" d="M9.5 2A1.5 1.5 0 1 1 11 3.5v1"></path><g id="Group 623"><path id="Vector_6" stroke="#3e3e3e" stroke-linecap="round" stroke-linejoin="round" d="M11 7a.25.25 0 1 1 0-.5"></path><path id="Vector_7" stroke="#3e3e3e" stroke-linecap="round" stroke-linejoin="round" d="M11 7a.25.25 0 1 0 0-.5"></path></g></g></svg>