<svg xmlns="http://www.w3.org/2000/svg" fill="none" viewBox="0 0 24 24" id="Controls-Sliders-Vertical--Streamline-Freehand">
  <desc>
    Controls Sliders Vertical Streamline Icon: https://streamlinehq.com
  </desc>
  <path fill="#000000" d="M3.62999 7.08941V5.66349c0 -0.44253 0 -0.9834 -0.059 -1.42593 -0.08851 -1.15058 -0.23602 -2.24215 -0.36386 -3.343551 -0.00127 -0.045205 -0.01144 -0.089717 -0.02992 -0.13099 -0.01849 -0.041273 -0.04492 -0.078499 -0.0778 -0.109551 -0.03288 -0.031051 -0.07155 -0.055319 -0.11382 -0.071416 -0.04226 -0.016097 -0.08728 -0.023708 -0.13248 -0.022398 -0.04521 0.001273 -0.08972 0.011442 -0.13099 0.029926s-0.0785 0.04492 -0.10955 0.077798c-0.03105 0.032878 -0.05532 0.071553 -0.07142 0.113814 -0.01609 0.042261 -0.02371 0.087281 -0.0224 0.132485 -0.059 1.111243 -0.1475 2.242143 -0.18684 3.323883v1.41609c0 0.4327 0.06884 0.9834 0.06884 1.41609 0 2.17331 0.98339 2.20281 1.16041 1.62261 0.07142 -0.53113 0.09446 -1.06764 0.06883 -1.60294Z" stroke-width="1"></path>
  <path fill="#000000" d="M11.4185 7.35494c-0.0787 0.41303 -0.0688 3.93356 -0.1475 5.98886 -0.0689 1.5636 -0.0984 3.1272 -0.1082 4.6908 -0.0098 1.5636 0 3.3829 0.1377 5.0744 0.0026 0.1026 0.0451 0.2001 0.1186 0.2718 0.0735 0.0716 0.1721 0.1117 0.2747 0.1117 0.1035 -0.0051 0.2011 -0.0498 0.2725 -0.1248 0.0714 -0.0751 0.1112 -0.1748 0.1111 -0.2784 0 -1.9668 0.2065 -4.0123 0.3245 -6.0184 0.0885 -1.3374 0.1573 -2.6945 0.1573 -4.0418 -0.0295 -1.9264 -0.1609 -3.85003 -0.3933 -5.76267 -0.0689 -0.33435 -0.6884 -0.26551 -0.7474 0.08851Z" stroke-width="1"></path>
  <path fill="#000000" d="M3.36449 18.0149c0.00004 -0.0896 -0.03487 -0.1757 -0.09731 -0.24 -0.06243 -0.0642 -0.14747 -0.1016 -0.23704 -0.1042 -0.09129 0 -0.17883 0.0363 -0.24338 0.1008 -0.06455 0.0646 -0.10081 0.1521 -0.10081 0.2434 -0.09834 0.649 -0.22618 1.2686 -0.29502 1.9176v1.6521c0.059 0.6392 0.15734 1.2686 0.22618 1.9668 0.01475 0.0924 0.06196 0.1766 0.13316 0.2373 0.07119 0.0607 0.1617 0.0941 0.25528 0.0941s0.1841 -0.0334 0.25529 -0.0941c0.07119 -0.0607 0.11841 -0.1449 0.13316 -0.2373 0.06883 -0.649 0.17701 -1.2784 0.22618 -1.9668v-0.826c0.01962 -0.275 0.01962 -0.5511 0 -0.8261 -0.02951 -0.649 -0.15735 -1.2686 -0.25569 -1.9176Z" stroke-width="1"></path>
  <path fill="#000000" d="M20.692 6.60755V5.19146c0 -0.4327 0 -0.9834 -0.0591 -1.42593 -0.0983 -1.11124 -0.2458 -2.20281 -0.3736 -3.304215 0 -0.091284 -0.0363 -0.17883 -0.1009 -0.243378 -0.0645 -0.064548 -0.152 -0.100811 -0.2433 -0.100811 -0.0913 0 -0.1789 0.036263 -0.2434 0.100811 -0.0646 0.064548 -0.1008 0.152094 -0.1008 0.243378 -0.059 1.111235 -0.1574 2.202815 -0.1869 3.314045v1.42593c0 0.44253 0.0689 0.9834 0.0689 1.41609 0 2.17331 0.9834 2.20281 1.1505 1.62261 0.0862 -0.5396 0.1158 -1.0867 0.0886 -1.63244Z" stroke-width="1"></path>
  <path fill="#000000" d="M3.49233 9.70525c-0.28591 -0.03243 -0.57525 -0.0158 -0.85556 0.04917C0.542137 10.1576 -0.234747 11.7212 0.0602724 13.098 0.84699 16.7759 8.06513 16.5595 6.78671 12.1834c-0.22919 -0.7007 -0.66806 -1.3142 -1.25726 -1.7574 -0.58919 -0.44325 -1.30029 -0.69483 -2.03712 -0.72075ZM1.18135 12.921c-0.12785 -0.9834 0.48186 -1.8783 1.96679 -1.9668 0.55131 -0.0751 1.11174 0.0398 1.589 0.3258s0.84289 0.726 1.03667 1.2476c1.12107 3.137 -4.24828 3.2846 -4.59246 0.3934Z" stroke-width="1"></path>
  <path fill="#000000" d="M11.3005 0.6187C8.89117 0.884217 8.04545 2.58549 8.3503 4.07042c0.15283 0.67383 0.52586 1.27751 1.06015 1.71562 0.53428 0.43811 1.19935 0.68567 1.89005 0.70354 2.0258 0.15734 4.6318 -0.23601 3.7271 -3.33372 -0.2471 -0.77936 -0.7489 -1.45312 -1.4247 -1.91321C12.927 0.782565 12.1162 0.562831 11.3005 0.6187Zm0.6982 5.22184c-0.5905 0.0567 -1.1803 -0.11587 -1.6471 -0.482 -0.46679 -0.36612 -0.77492 -0.89775 -0.86056 -1.4848 -0.12784 -0.98339 0.48187 -1.87828 1.96676 -1.96679 0.5521 -0.07078 1.1119 0.04711 1.5885 0.33452 0.4766 0.2874 0.8422 0.72746 1.0372 1.24875 0.9146 2.61584 -2.0848 2.34048 -2.0848 2.35032Z" stroke-width="1"></path>
  <path fill="#000000" d="M20.5542 9.26271c-0.2865 -0.02418 -0.575 -0.00428 -0.8555 0.059 -2.0947 0.4032 -2.8716 1.96679 -2.5765 3.34359 0.7867 3.6779 8.0048 3.4615 6.7264 -0.9146 -0.2288 -0.7018 -0.6673 -1.3167 -1.2563 -1.76154 -0.5891 -0.44488 -1.3004 -0.69843 -2.0381 -0.72645Zm-2.3503 3.21569c-0.1278 -0.9834 0.4819 -1.8783 1.9668 -1.9668 0.5552 -0.0755 1.1195 0.0401 1.6002 0.3279 0.4808 0.2877 0.8493 0.7304 1.0451 1.2554 1.1408 3.137 -4.2286 3.2845 -4.6121 0.3835Z" stroke-width="1"></path>
  <path fill="#000000" d="M20.4264 17.5822c0.0001 -0.0896 -0.0348 -0.1757 -0.0973 -0.2399 -0.0624 -0.0643 -0.1474 -0.1017 -0.237 -0.1043 -0.0452 0 -0.09 0.0089 -0.1317 0.0262 -0.0418 0.0173 -0.0797 0.0427 -0.1117 0.0746 -0.0319 0.032 -0.0573 0.07 -0.0746 0.1117 -0.0173 0.0418 -0.0262 0.0865 -0.0262 0.1317 -0.0983 0.6392 -0.2262 1.2686 -0.295 1.9177v1.6422c0.059 0.6491 0.1573 1.2784 0.2262 1.9668 0.0147 0.0924 0.0619 0.1766 0.1331 0.2373 0.0712 0.0607 0.1617 0.0941 0.2553 0.0941 0.0936 0 0.1841 -0.0334 0.2553 -0.0941 0.0712 -0.0607 0.1184 -0.1449 0.1331 -0.2373 0.0689 -0.649 0.1771 -1.2784 0.2262 -1.9668v-0.8162c0.0197 -0.275 0.0197 -0.551 0 -0.826 -0.0295 -0.6098 -0.1573 -1.2686 -0.2557 -1.9177Z" stroke-width="1"></path>
</svg>