<svg xmlns="http://www.w3.org/2000/svg" fill="none" viewBox="0 0 24 24" id="Delete-Bin-2--Streamline-Freehand">
  <desc>
    Delete Bin 2 Streamline Icon: https://streamlinehq.com
  </desc>
  <path fill="#000000" fill-rule="evenodd" d="M22.0489 7.07747c-0.3323 0.04262 -0.6687 0.04262 -1.001 0 -0.8508 -0.09009 -1.8218 -0.3103 -2.5725 -0.38037 -1.5515 -0.15015 -3.1531 -0.27026 -4.7646 -0.30029 -1.6116 -0.03003 -3.2032 0 -4.76468 0.1101l-4.6145 0.31031c0.03947 -0.03053 0.071 -0.07012 0.09191 -0.11543 0.02091 -0.04531 0.03059 -0.09499 0.02821 -0.14483 0.12012 0 0.12012 -0.50048 0.14014 -0.56054 0.07534 -0.21235 0.18342 -0.41161 0.32031 -0.59058 0.11707 -0.15586 0.2771 -0.27414 0.46045 -0.34033 0.78957 -0.25211 1.5956 -0.44944 2.41235 -0.59057 1.23472 -0.20472 2.48241 -0.32179 3.73361 -0.35035 1.4363 -0.10009 2.8779 -0.10009 4.3142 0 0.9477 0.0557 1.887 0.21002 2.8028 0.46045 0.0823 0.03165 0.1565 0.08134 0.2171 0.14543 0.0607 0.06409 0.1062 0.14095 0.1332 0.22493 0.0831 0.26063 0.1401 0.52887 0.1702 0.80078 0.017 0.08841 0.0665 0.16724 0.1388 0.22096 0.0722 0.05373 0.162 0.07846 0.2515 0.06933 0.0449 -0.00611 0.0882 -0.02112 0.1272 -0.04416 0.039 -0.02304 0.073 -0.05363 0.1001 -0.08999 0.027 -0.03636 0.0465 -0.07776 0.0573 -0.12176 0.0109 -0.044 0.0128 -0.08972 0.0057 -0.13447 -0.0164 -0.39335 -0.094 -0.78173 -0.2302 -1.15113 -0.0675 -0.1582 -0.1674 -0.3005 -0.2932 -0.41774 -0.1259 -0.11723 -0.2749 -0.2068 -0.4375 -0.26292 -0.9726 -0.34184 -1.9795 -0.57679 -3.0029 -0.70068 0 0 -0.5806 -1.51147 -0.5906 -1.52148 -0.2684 -0.46858 -0.6335 -0.874639 -1.0711 -1.191163 -0.4914 -0.3116772 -1.072 -0.4524219 -1.6516 -0.4003897 -0.5226 0.0412758 -1.0358 0.1628177 -1.5214 0.3603507 -0.5068 0.221373 -0.9506 0.565364 -1.2913 1.000972 -0.2991 0.58271 -0.52118 1.20183 -0.66065 1.8418 -0.28027 0 -0.58056 0.08007 -0.86084 0.14013 -1.0808 0.219 -2.13466 0.55462 -3.14306 1.00098 -0.24699 0.11442 -0.46572 0.28189 -0.64062 0.49048 -0.22395 0.2991 -0.38717 0.63915 -0.48047 1.00097 -0.06026 0.23065 -0.10705 0.4646 -0.14014 0.70068 -0.00436 0.05036 0.00137 0.10109 0.01683 0.14921 0.01547 0.04812 0.04038 0.09268 0.07326 0.13107l0.07007 0.02002c-3.54345 0.25024 -2.27221 0.8308 -2.00195 0.8208 0.22501 -0.01261 0.449 -0.03936 0.67065 -0.08008h6.33618c1.30124 0 2.62254 -0.06006 3.95384 -0.07007h2.6426c1.001 0 1.8918 0 2.8227 0.06006 0.7407 0 1.7217 0.19018 2.5725 0.24023 0.399 0.04746 0.8022 0.04746 1.2012 0 0.0889 -0.01473 0.1683 -0.06409 0.2208 -0.13727 0.0526 -0.07317 0.0739 -0.16419 0.0595 -0.25311 0.0007 -0.05153 -0.0099 -0.10259 -0.0311 -0.14954 -0.0212 -0.04696 -0.0526 -0.08865 -0.0918 -0.12211 -0.0392 -0.03346 -0.0852 -0.05786 -0.135 -0.07146 -0.0497 -0.0136 -0.1018 -0.01607 -0.1525 -0.00723ZM10.4576 2.01254c0.2261 -0.20244 0.4873 -0.36188 0.7707 -0.47046 0.46 -0.18726 0.9463 -0.30207 1.4414 -0.34033 0.3412 -0.05733 0.6917 -0.00475 1.001 0.15014 0.343 0.19821 0.648 0.45579 0.9009 0.76074 0.05 0.07007 0.2703 0.59058 0.4404 0.94092 -1.1793 -0.08382 -2.3625 -0.09719 -3.5434 -0.04004 -0.4805 0 -0.971 0 -1.48147 0.07007 0.23027 -0.37036 0.38037 -1.01098 0.47047 -1.07104Z" clip-rule="evenodd" stroke-width="1"></path>
  <path fill="#000000" fill-rule="evenodd" d="M20.6475 8.65902c-0.0578 -0.05566 -0.135 -0.08675 -0.2152 -0.08675 -0.0803 0 -0.1574 0.03109 -0.2152 0.08675 -0.0407 0.05508 -0.0626 0.12174 -0.0626 0.19019s0.0219 0.1351 0.0626 0.19018v0.37036c-0.0914 1.59855 -0.2819 3.18975 -0.5706 4.76465 -0.3403 2.062 -0.7507 4.164 -1.061 5.2351 -0.1402 0.4905 -0.2402 1.001 -0.4104 1.4814 -0.0909 0.28 -0.2261 0.5436 -0.4004 0.7808 -0.4093 0.4909 -0.9746 0.8266 -1.6016 0.9509 -1.0306 0.2543 -2.0978 0.3254 -3.153 0.2102 -1.4214 -0.1501 -3.003 0 -4.43435 -0.1902 -0.56082 -0.0757 -1.10336 -0.252 -1.60156 -0.5205 -0.29153 -0.2112 -0.51435 -0.5036 -0.64063 -0.8408 -0.27442 -0.6002 -0.47282 -1.2324 -0.59057 -1.8818 -0.15015 -0.8308 -0.33032 -1.8718 -0.5105 -3.0029 -0.42041 -2.6626 -0.86084 -5.7056 -1.06103 -7.00687 -0.01482 -0.09024 -0.06339 -0.17148 -0.13588 -0.22724 -0.07249 -0.05576 -0.16347 -0.08188 -0.2545 -0.07305 -0.08952 0.01481 -0.16981 0.06378 -0.22395 0.13659 -0.05414 0.07282 -0.07792 0.1638 -0.06634 0.25379 0.16016 1.32128 0.5105 4.36428 0.86084 7.00678 0.14014 1.1311 0.28028 2.1922 0.4104 3.003 0.11492 0.7428 0.31996 1.4689 0.6106 2.1621 0.19484 0.552 0.55043 1.0331 1.02099 1.3813 0.61759 0.353 1.29721 0.5841 2.00195 0.6807 1.46142 0.2502 3.00293 0.0701 4.49433 0.2302 1.2044 0.1281 2.4219 0.0365 3.5935 -0.2703 0.8641 -0.2147 1.632 -0.7113 2.1822 -1.4113 0.2202 -0.3381 0.392 -0.7054 0.5105 -1.0911 0.1601 -0.5005 0.2502 -1.001 0.3803 -1.5515 0.5057 -2.4906 0.8766 -5.0067 1.1111 -7.5373 0.1248 -0.9959 0.175 -1.9996 0.1502 -3.00297 -0.019 -0.15438 -0.0815 -0.30017 -0.1802 -0.42041Z" clip-rule="evenodd" stroke-width="1"></path>
  <path fill="#000000" fill-rule="evenodd" d="M9.25638 16.1563c0.14014 0.8409 0.3103 1.5816 0.42041 2.1121 0.07007 0.3403 0.12012 0.5906 0.14014 0.7107 0.06005 0.3003 0.32027 0.2602 0.51047 0.1702 0.0323 -0.0045 0.0632 -0.0157 0.0908 -0.0329 0.0276 -0.0173 0.0513 -0.0402 0.0694 -0.0672l0 -0.0801v-0.7107c0 -0.5405 0 -1.3013 -0.1101 -2.1521 0 -0.4605 -0.0901 -0.9409 -0.1602 -1.4214 0 -0.2402 -0.06 -0.4805 -0.1101 -0.7107 -0.20019 -1.1211 -0.46044 -2.1421 -0.61059 -2.8127 -0.00525 -0.0395 -0.01823 -0.0775 -0.03818 -0.1119s-0.04648 -0.0646 -0.07808 -0.0887c-0.0316 -0.0242 -0.06766 -0.0419 -0.1061 -0.0521 -0.03845 -0.0103 -0.07853 -0.0128 -0.11797 -0.0076 -0.03943 0.0053 -0.07745 0.0182 -0.11187 0.0382 -0.03442 0.0199 -0.06457 0.0465 -0.08874 0.0781 -0.02417 0.0316 -0.04187 0.0676 -0.0521 0.1061 -0.01024 0.0384 -0.0128 0.0785 -0.00754 0.1179 0 0.6807 0 1.7417 0.11011 2.8728 0 0.2403 0 0.4705 0.07006 0.7107 0.03003 0.3904 0.1001 0.8709 0.18018 1.3313Z" clip-rule="evenodd" stroke-width="1"></path>
  <path fill="#000000" fill-rule="evenodd" d="M14.8418 18.969c0.0903 0 0.1769 -0.0358 0.2407 -0.0997 0.0638 -0.0638 0.0997 -0.1504 0.0997 -0.2406 0.05 -0.6106 0.2202 -1.5415 0.3303 -2.5625 0.0701 -0.5606 0.1301 -1.1511 0.1501 -1.7117 0.0601 -1.3513 0 -2.5224 0 -2.9128 0.0028 -0.0807 -0.026 -0.1592 -0.0802 -0.219 -0.0541 -0.0598 -0.1295 -0.0962 -0.21 -0.1013 -0.0395 -0.0027 -0.0791 0.0024 -0.1166 0.015 -0.0375 0.0126 -0.0721 0.0325 -0.1018 0.0586 -0.0298 0.026 -0.0541 0.0577 -0.0716 0.0931 -0.0175 0.0355 -0.0278 0.0741 -0.0304 0.1135 -0.06 0.3504 -0.2902 1.3213 -0.4604 2.5025 -0.0501 0.3403 -0.0801 0.7107 -0.1101 1.071 -0.03 0.3604 0 0.7307 0 1.0911 0 1.001 0 1.9519 0.0801 2.5625 -0.0013 0.0807 0.0262 0.1593 0.0775 0.2217 0.0514 0.0623 0.1232 0.1044 0.2027 0.1186Z" clip-rule="evenodd" stroke-width="1"></path>
</svg>