<svg xmlns="http://www.w3.org/2000/svg" fill="none" viewBox="0 0 24 24" id="Keyboard-Id-Dial-Finger--Streamline-Freehand">
  <desc>
    Keyboard Id Dial Finger Streamline Icon: https://streamlinehq.com
  </desc>
  <path fill="#000000" fill-rule="evenodd" d="M23.0853 15.8634c-0.2158 -0.4367 -0.5146 -0.8271 -0.8797 -1.1495 -0.4192 -0.3748 -0.9353 -0.6242 -1.4894 -0.7198 -0.5155 -0.0948 -1.044 -0.0948 -1.5594 0 -0.2599 0 -0.4999 0.11 -0.7498 0.18 -0.2499 0.0699 -0.6997 0.2199 -0.9996 0.3498 -0.0501 0.0131 -0.0963 0.0381 -0.1346 0.0729 -0.0383 0.0348 -0.0676 0.0784 -0.0853 0.1271l-0.4998 -0.6998c-0.8052 -1.0373 -1.886 -1.8271 -3.1188 -2.2791 -0.3553 -0.0951 -0.7299 -0.0904 -1.0826 0.0137s-0.6699 0.3034 -0.9167 0.5761c-0.1319 0.1433 -0.2279 0.3159 -0.2801 0.5036 -0.0521 0.1877 -0.0589 0.3851 -0.0198 0.5759 0.1503 0.5033 0.3983 0.9721 0.7298 1.3795 0.5068 0.6683 1.1098 1.2578 1.7893 1.7494 0.2835 0.1983 0.5771 0.3818 0.8796 0.5498h-0.3498c-0.3649 -0.0522 -0.7371 -0.0159 -1.085 0.1059 -0.348 0.1218 -0.6615 0.3254 -0.9143 0.5938 -0.3898 0.5098 -0.3798 1.3095 0.6898 2.1992 0.3874 0.2957 0.8288 0.513 1.2995 0.6397 0.4798 0.14 0.9996 0.21 1.4394 0.2999 0.3999 0.05 0.7866 0.1755 1.1396 0.3699 0.4356 0.2545 0.8442 0.5526 1.2196 0.8896 0.5997 0.5298 1.1495 1.1196 1.6893 1.6794 0.0682 0.0761 0.1636 0.1223 0.2655 0.1288 0.102 0.0065 0.2024 -0.0273 0.2797 -0.0941 0.0773 -0.0668 0.1253 -0.1613 0.1336 -0.2631 0.0084 -0.1019 -0.0236 -0.2029 -0.089 -0.2814 -0.4998 -0.6398 -0.9996 -1.2995 -1.5694 -1.8993 -0.3873 -0.4277 -0.8159 -0.8161 -1.2795 -1.1595 -0.2634 -0.1907 -0.5529 -0.3422 -0.8597 -0.4499 -0.5394 -0.1731 -1.0906 -0.3068 -1.6494 -0.3998 -0.455 -0.058 -0.8917 -0.2149 -1.2795 -0.4598 -0.1715 -0.1108 -0.3263 -0.2455 -0.4598 -0.3999 0 -0.07 -0.12 -0.12 -0.08 -0.1699 0.1331 -0.1466 0.2974 -0.2613 0.4808 -0.3357 0.1834 -0.0744 0.3813 -0.1066 0.5788 -0.0942l1.5294 -0.0999c0.0533 -0.0034 0.1052 -0.0187 0.1519 -0.0446 0.0467 -0.0259 0.087 -0.0619 0.118 -0.1054 0.0604 0.0002 0.1194 -0.0178 0.1693 -0.0517s0.0885 -0.0821 0.1106 -0.1382c0.0181 -0.0413 0.0278 -0.0858 0.0285 -0.1309 0.0008 -0.0451 -0.0075 -0.0898 -0.0242 -0.1317 -0.0168 -0.0419 -0.0417 -0.08 -0.0733 -0.1121 -0.0316 -0.0322 -0.0693 -0.0577 -0.1109 -0.0751 -0.659 -0.3374 -1.2679 -0.7647 -1.8093 -1.2696 -0.5361 -0.5099 -0.9942 -1.0959 -1.3595 -1.7393 -0.09 -0.14 -0.2299 -0.3599 -0.3499 -0.5898 -0.0597 -0.0878 -0.1099 -0.1816 -0.1499 -0.2799 0.1538 -0.1457 0.3501 -0.2388 0.5603 -0.2658 0.2102 -0.0269 0.4236 0.0137 0.6092 0.1159 0.8685 0.367 1.6589 0.8963 2.3291 1.5594l0.8797 0.9996c0.0264 0.0485 0.0628 0.0908 0.1067 0.1242 0.044 0.0334 0.0946 0.057 0.1484 0.0694 0.0538 0.0124 0.1096 0.0132 0.1637 0.0024 0.0541 -0.0108 0.1053 -0.033 0.1503 -0.0651 0.0449 -0.0321 0.0825 -0.0733 0.1102 -0.121 0.0278 -0.0477 0.0452 -0.1008 0.0509 -0.1557 0.0057 -0.0549 -0.0002 -0.1104 -0.0176 -0.1628 -0.0173 -0.0524 -0.0455 -0.1005 -0.0828 -0.1412h0.06l0.8596 -0.13c0.2764 -0.0149 0.5534 -0.0149 0.8297 0 0.3971 0.0133 0.7906 0.0806 1.1696 0.2 0.3446 0.1043 0.6643 0.2777 0.9396 0.5098 0.8837 0.901 1.5236 2.0122 1.8593 3.2288 0.0343 0.0968 0.1036 0.1772 0.1943 0.2253 0.0907 0.0481 0.1962 0.0605 0.2955 0.0346 0.0502 -0.0137 0.0971 -0.0374 0.1377 -0.0698 0.0406 -0.0325 0.0741 -0.0729 0.0985 -0.1188 0.0243 -0.0459 0.039 -0.0964 0.0431 -0.1482 0.0041 -0.0518 -0.0025 -0.1039 -0.0194 -0.1531 -0.1738 -0.9997 -0.4727 -1.9737 -0.8896 -2.8989Z" clip-rule="evenodd" stroke-width="1"></path>
  <path fill="#000000" fill-rule="evenodd" d="M1.50338 0.0793789C1.2292 0.150258 0.973213 0.278575 0.752362 0.455832 0.531511 0.63309 0.350837 0.855244 0.222305 1.10758c-0.1285323 0.25234 -0.2019901 0.52911 -0.2155089 0.81197 -0.01351884 0.28287 0.0332097 0.56538 0.1370909 0.82882C1.1735 5.18746 5.00206 3.4681 4.00244 1.25894 3.79425 0.797221 3.42829 0.424841 2.97026 0.208654c-0.45802 -0.21618716 -0.97811 -0.262022 -1.46688 -0.1292751ZM2.70292 2.86833s-1.11957 0.81969 -1.48944 -0.47982c-0.02611 -0.1164 -0.02828 -0.23689 -0.00636 -0.35416 0.02191 -0.11726 0.06744 -0.22884 0.13383 -0.32796 0.06639 -0.09911 0.15224 -0.18369 0.25234 -0.24858 0.1001 -0.06489 0.21235 -0.10875 0.32993 -0.1289 0.20172 -0.06756 0.42086 -0.06145 0.6185 0.01724 0.19764 0.07869 0.36101 0.22488 0.46109 0.4126 0.06839 0.08797 0.11542 0.19062 0.13739 0.29986 0.02197 0.10924 0.01827 0.2221 -0.01081 0.32966 -0.02907 0.10757 -0.08272 0.20692 -0.15673 0.29023 -0.074 0.0833 -0.16634 0.14829 -0.26974 0.18983Z" clip-rule="evenodd" stroke-width="1"></path>
  <path fill="#000000" fill-rule="evenodd" d="M1.50338 6.50688c-0.27418 0.07088 -0.530167 0.1992 -0.751018 0.37646 -0.220851 0.17725 -0.401525 0.39941 -0.530057 0.65175 -0.1285323 0.25234 -0.2019901 0.5291 -0.2155089 0.81197 -0.01351884 0.28286 0.0332097 0.56537 0.1370909 0.82882C1.1735 11.615 5.00206 9.89561 4.00244 7.68644c-0.20656 -0.46306 -0.5723 -0.83672 -1.03083 -1.05314 -0.45853 -0.21643 -0.97946 -0.26128 -1.46823 -0.12642Zm-0.2899 2.30913c-0.02611 -0.1164 -0.02828 -0.23689 -0.00636 -0.35415 0.02191 -0.11727 0.06744 -0.22885 0.13383 -0.32796 0.06639 -0.09912 0.15224 -0.18369 0.25234 -0.24859 0.1001 -0.06489 0.21235 -0.10875 0.32993 -0.1289 0.20172 -0.06756 0.42086 -0.06145 0.6185 0.01724 0.19764 0.0787 0.36101 0.22488 0.46109 0.4126 0.66975 1.09959 -1.37948 2.06925 -1.78933 0.62976Z" clip-rule="evenodd" stroke-width="1"></path>
  <path fill="#000000" fill-rule="evenodd" d="M1.50335 12.9944c-0.26693 0.0721 -0.51601 0.1987 -0.73151 0.3719 -0.2155 0.1733 -0.392731 0.3893 -0.520494 0.6345 -0.127762 0.2452 -0.2032797 0.5142 -0.2217798 0.79 -0.0185001 0.2759 0.0204192 0.5526 0.1142988 0.8127 0.999625 2.4391 4.808195 0.7197 3.848555 -1.4895 -0.21651 -0.4499 -0.58493 -0.809 -1.04031 -1.0138 -0.45538 -0.2048 -0.96846 -0.2423 -1.44876 -0.1058Zm1.19955 2.779s-1.11958 0.8197 -1.48944 -0.4798c-0.02611 -0.1164 -0.02828 -0.2369 -0.00637 -0.3542 0.02192 -0.1172 0.06745 -0.2288 0.13384 -0.3279 0.06639 -0.0991 0.15224 -0.1837 0.25234 -0.2486 0.1001 -0.0649 0.21235 -0.1088 0.32993 -0.1289 0.19607 -0.0718 0.41101 -0.0732 0.60798 -0.0039 0.19697 0.0693 0.3637 0.205 0.47161 0.3837 0.06839 0.088 0.11542 0.1907 0.13739 0.2999 0.02196 0.1092 0.01826 0.2221 -0.01081 0.3297 -0.02907 0.1075 -0.08272 0.2069 -0.15673 0.2902 -0.07401 0.0833 -0.16634 0.1483 -0.26974 0.1898v0.05Z" clip-rule="evenodd" stroke-width="1"></path>
  <path fill="#000000" fill-rule="evenodd" d="M11.2497 1.25894c-0.206 -0.458819 -0.5685 -0.829397 -1.0227 -1.045491 -0.45415 -0.2160946 -0.97037 -0.2636164 -1.45635 -0.1340703 -0.27418 0.0708783 -0.53016 0.1991953 -0.75102 0.3764533 -0.22085 0.177258 -0.40152 0.399412 -0.53005 0.651748 -0.12853 0.25234 -0.20199 0.52911 -0.21551 0.81197 -0.01352 0.28287 0.03321 0.56538 0.13709 0.82882 1.01962 2.43909 4.80824 0.71973 3.83854 -1.48943Zm-2.05921 0.06997c0.20315 -0.06817 0.42385 -0.06242 0.62318 0.01621 0.19933 0.07864 0.36453 0.22512 0.46643 0.41363 0.6597 1.09958 -1.39949 2.06922 -1.80934 0.62976 -0.02457 -0.11701 -0.0253 -0.23778 -0.00215 -0.35508 0.02314 -0.1173 0.0697 -0.22874 0.13688 -0.32764 0.06718 -0.09891 0.15361 -0.18326 0.25412 -0.24801 0.10052 -0.06476 0.21305 -0.10859 0.33088 -0.12887Z" clip-rule="evenodd" stroke-width="1"></path>
  <path fill="#000000" fill-rule="evenodd" d="M11.2497 7.68647c-0.2044 -0.46015 -0.5667 -0.832 -1.0213 -1.04833 -0.4547 -0.21634 -0.97176 -0.26288 -1.45775 -0.13123 -0.27418 0.07088 -0.53016 0.1992 -0.75102 0.37645 -0.22085 0.17726 -0.40152 0.39942 -0.53005 0.65175 -0.12853 0.25234 -0.20199 0.52911 -0.21551 0.81197 -0.01352 0.28287 0.03321 0.56538 0.13709 0.82883 1.01962 2.43909 4.80824 0.71973 3.83854 -1.48944Zm-2.05921 0.06997c0.20315 -0.06816 0.42385 -0.06242 0.62318 0.01621 0.19933 0.07864 0.36453 0.22512 0.46643 0.41363 0.6597 1.09958 -1.39949 2.06922 -1.80934 0.62976 -0.02457 -0.11701 -0.0253 -0.23778 -0.00215 -0.35508 0.02314 -0.1173 0.0697 -0.22874 0.13688 -0.32764 0.06718 -0.09891 0.15361 -0.18326 0.25412 -0.24801 0.10052 -0.06476 0.21305 -0.10858 0.33088 -0.12887Z" clip-rule="evenodd" stroke-width="1"></path>
  <path fill="#000000" fill-rule="evenodd" d="M8.77064 12.9945c-0.27295 0.0711 -0.52777 0.1991 -0.74771 0.3757 -0.21994 0.1766 -0.40003 0.3977 -0.52843 0.6488 -0.1284 0.2512 -0.20221 0.5266 -0.21658 0.8083 -0.01436 0.2817 0.03104 0.5633 0.13323 0.8262 0.99962 2.4391 4.80815 0.7197 3.83855 -1.4895 -0.2045 -0.4596 -0.5673 -0.8306 -1.0223 -1.0452 -0.455 -0.2147 -0.97197 -0.2588 -1.45676 -0.1243Zm-0.29989 2.2991c-0.02457 -0.117 -0.02531 -0.2378 -0.00216 -0.3551 0.02315 -0.1173 0.06971 -0.2287 0.13689 -0.3276 0.06718 -0.0989 0.15361 -0.1833 0.25412 -0.248 0.10051 -0.0648 0.21305 -0.1086 0.33088 -0.1289 0.20315 -0.0682 0.42385 -0.0624 0.62318 0.0162 0.19934 0.0787 0.36454 0.2251 0.46644 0.4136 0.6597 1.0596 -1.3995 2.0093 -1.80935 0.5798v0.05Z" clip-rule="evenodd" stroke-width="1"></path>
  <path fill="#000000" fill-rule="evenodd" d="M18.517 1.2589c-0.2087 -0.465977 -0.5779 -0.841449 -1.0403 -1.057969 -0.4624 -0.2165199 -0.9872 -0.2596694 -1.4788 -0.1215831 -0.2741 0.0708791 -0.5301 0.1991961 -0.751 0.3764531 -0.2208 0.177258 -0.4015 0.399412 -0.53 0.651749 -0.1286 0.25234 -0.202 0.52911 -0.2155 0.81197 -0.0136 0.28287 0.0332 0.56538 0.1371 0.82882 1.0596 2.43909 4.8381 0.71973 3.8785 -1.48944Zm-2.0692 0.06998c0.203 -0.07025 0.4245 -0.06553 0.6243 0.01331 0.1998 0.07884 0.3649 0.22659 0.4653 0.41653 0.6597 1.09958 -1.3895 2.06922 -1.7994 0.62976 -0.0261 -0.1164 -0.0282 -0.2369 -0.0063 -0.35416 0.0219 -0.11726 0.0674 -0.22884 0.1338 -0.32796 0.0664 -0.09911 0.1522 -0.18369 0.2523 -0.24858 0.1001 -0.06489 0.2124 -0.10875 0.33 -0.1289Z" clip-rule="evenodd" stroke-width="1"></path>
  <path fill="#000000" fill-rule="evenodd" d="M18.517 7.68648c-0.207 -0.46735 -0.576 -0.84413 -1.0389 -1.06089 -0.4629 -0.21677 -0.9886 -0.25891 -1.4802 -0.11866 -0.2741 0.07088 -0.5301 0.19919 -0.751 0.37645 -0.2208 0.17726 -0.4015 0.39941 -0.53 0.65175 -0.1286 0.25234 -0.202 0.52911 -0.2155 0.81197 -0.0136 0.28287 0.0332 0.56538 0.1371 0.82882 1.0596 2.43908 4.8481 0.71973 3.8785 -1.48944Zm-2.0692 0.06998c0.203 -0.07025 0.4245 -0.06553 0.6243 0.01331 0.1998 0.07884 0.3649 0.22659 0.4653 0.41652 0.6597 1.09959 -1.3895 2.06921 -1.7994 0.62977 -0.0261 -0.1164 -0.0282 -0.2369 -0.0063 -0.35416 0.0219 -0.11726 0.0674 -0.22884 0.1338 -0.32796 0.0664 -0.09911 0.1522 -0.18369 0.2523 -0.24858 0.1001 -0.0649 0.2124 -0.10875 0.33 -0.1289Z" clip-rule="evenodd" stroke-width="1"></path>
</svg>