<svg xmlns="http://www.w3.org/2000/svg" fill="none" viewBox="0 0 24 24" id="Paragraphs-Bullets--Streamline-Freehand">
  <desc>
    Paragraphs Bullets Streamline Icon: https://streamlinehq.com
  </desc>
  <path fill="#000000" fill-rule="evenodd" d="M23.9021 5.48862c-0.0289 -1.09784 -0.1493 -2.19135 -0.3599 -3.26918 -0.0597 -0.38099 -0.2423 -0.73205 -0.5199 -0.99974 -0.8822 -0.354782 -1.8191 -0.554339 -2.7693 -0.589856C16.77 0.314391 13.2721 0.194233 9.77568 0.269935 7.43296 0.271142 5.09364 0.448262 2.77745 0.799801 2.05753 0.870802 1.37353 1.14857 0.807942 1.5996c-0.37527 0.71328 -0.580565 1.50367 -0.599848 2.30942 -0.21805199 2.78045 -0.2647952 5.57169 -0.139965 8.35788 0.058637 3.1462 0.372926 6.2824 0.939761 9.3776 0.07688 0.4339 0.25879 0.8424 0.52987 1.1897 0.55329 0.3385 1.18193 0.5343 1.82954 0.5699 2.21044 0.2488 4.43403 0.3623 6.6583 0.3399 4.1529 0.0549 8.3048 -0.1722 12.4269 -0.6798 0.0392 -0.0048 0.077 -0.0176 0.1111 -0.0375 0.0341 -0.02 0.0638 -0.0467 0.0872 -0.0785 0.0234 -0.0319 0.0401 -0.0681 0.0489 -0.1067 0.0089 -0.0385 0.0098 -0.0784 0.0027 -0.1172 -0.0123 -0.0807 -0.056 -0.1532 -0.1215 -0.2019 -0.0655 -0.0487 -0.1476 -0.0695 -0.2284 -0.0581 -4.1005 0.4322 -8.2256 0.5859 -12.3469 0.4599 -2.18287 -0.0177 -4.3628 -0.1645 -6.52833 -0.4399 -0.45719 -0.0254 -0.90368 -0.1481 -1.30967 -0.3599 -0.24745 -0.5339 -0.38676 -1.1115 -0.4099 -1.6995 -0.33641 -2.7172 -0.52663 -5.4504 -0.56985 -8.188 -0.10472 -2.74709 -0.04463 -5.498 0.17995 -8.23791 0.00317 -0.57015 0.11867 -1.13409 0.33992 -1.65958 0.09081 -0.06651 0.19222 -0.11721 0.29992 -0.14996 0.44727 -0.14306 0.90529 -0.25005 1.36965 -0.31992 2.86134 -0.36146 5.74389 -0.52847 8.62781 -0.49987 3.2692 0 6.5484 0.07998 8.6178 0.29992 0.6185 0.029 1.2303 0.13995 1.8196 0.32992 -0.13 0.10997 0.1799 0.41989 0.2499 0.80979 0.2345 1.55936 0.3681 3.13224 0.3999 4.70882 0.16 4.40889 0.07 10.27739 0 13.99649 0 0.0911 0.0355 0.1786 0.0989 0.2439 0.0635 0.0654 0.15 0.1034 0.241 0.106 0.0911 0 0.1787 -0.0355 0.244 -0.0989 0.0653 -0.0635 0.1033 -0.15 0.1059 -0.241 0.14 -4.3189 0.34 -11.52712 0.12 -16.03598Z" clip-rule="evenodd" stroke-width="1"></path>
  <path fill="#000000" fill-rule="evenodd" d="M4.29703 8.32794c0.71004 0.08206 1.42486 0.11546 2.13946 0.09997 0.39098 0.00338 0.78076 -0.04366 1.15971 -0.13996 0.13049 -0.04254 0.24764 -0.11834 0.33991 -0.21995 0.09988 -0.12418 0.16538 -0.27243 0.18995 -0.42989 0.07071 -0.54354 0.08745 -1.09274 0.04999 -1.63958 -0.00598 -0.56715 -0.06286 -1.13261 -0.16996 -1.68958 -0.0415 -0.14847 -0.11677 -0.28534 -0.21994 -0.3999 -0.30945 -0.15536 -0.65394 -0.22771 -0.99975 -0.20994 -0.96711 -0.00604 -1.93319 0.06416 -2.88927 0.20994 -0.04957 0.01034 -0.09609 0.03195 -0.13596 0.06316 -0.03988 0.0312 -0.07203 0.07117 -0.09398 0.1168 -0.07137 0.01783 -0.13472 0.059 -0.18001 0.11696 -0.04528 0.05797 -0.0699 0.1294 -0.06993 0.20296 -0.08826 1.01723 -0.12496 2.03828 -0.10997 3.05922 0.00855 0.24699 0.10827 0.48205 0.27993 0.65984 0.22216 0.11008 0.46286 0.17788 0.70982 0.19995Zm0.99975 -3.82904c0.5728 0.00714 1.14426 0.05727 1.70956 0.14997 0.04237 0.69918 0.04237 1.40028 0 2.09947v0.46988c-0.83571 0.10126 -1.67825 0.1347 -2.51936 0.09997h-0.31992c-0.0786 -0.93758 -0.10863 -1.8786 -0.08998 -2.81929 0.29993 -0.01999 0.76981 -0.01999 1.24969 0h-0.02999Z" clip-rule="evenodd" stroke-width="1"></path>
  <path fill="#000000" fill-rule="evenodd" d="M3.69724 14.2265c0.23015 0.117 0.48204 0.1851 0.73981 0.1999 0.7102 0.0807 1.42472 0.1175 2.13946 0.11 0.39144 0.0005 0.78129 -0.0499 1.15971 -0.15 0.12903 -0.0455 0.24548 -0.1209 0.33991 -0.2199 0.09658 -0.1262 0.1617 -0.2736 0.18995 -0.4299 0.06805 -0.5538 0.08479 -1.1127 0.04999 -1.6696 -0.02304 -0.5554 -0.09666 -1.1076 -0.21994 -1.6496 -0.02934 -0.1531 -0.10632 -0.2931 -0.21995 -0.3999 -0.30945 -0.15536 -0.65394 -0.2277 -0.99975 -0.20994 -0.95993 -0.01239 -1.91935 0.05113 -2.86927 0.18996 -0.05007 0.00508 -0.09785 0.02348 -0.13831 0.05338 -0.04047 0.0299 -0.07212 0.0702 -0.09163 0.1166 -0.07162 0.0189 -0.13537 0.0601 -0.18208 0.1176 -0.04671 0.0575 -0.07397 0.1283 -0.07786 0.2023 0 0.8598 -0.14996 2.3894 -0.09997 3.0692 -0.00123 0.1248 0.02295 0.2486 0.07108 0.3637 0.04812 0.1152 0.11918 0.2193 0.20885 0.3062Zm1.75955 -3.6291c0.56586 0.0131 1.13025 0.0632 1.68958 0.1499 0.04674 0.6924 0.04674 1.3871 0 2.0795v0.4699c-0.83572 0.1012 -1.67826 0.1347 -2.51937 0.1h-0.31992c-0.09997 -0.6299 -0.11997 -1.9995 -0.13996 -2.8293 0.34991 0.02 0.83978 0.02 1.28967 0.03Z" clip-rule="evenodd" stroke-width="1"></path>
  <path fill="#000000" fill-rule="evenodd" d="M3.90711 20.5248c0.23016 0.1171 0.48205 0.1851 0.73982 0.2 0.71004 0.0821 1.42486 0.1155 2.13946 0.1 0.38769 0.0035 0.77419 -0.0436 1.14971 -0.14 0.13314 -0.043 0.25342 -0.1186 0.34991 -0.2199 0.10263 -0.1378 0.16805 -0.2996 0.18995 -0.4699 0.05157 -0.5587 0.05157 -1.1209 0 -1.6796 -0.02281 -0.5521 -0.09644 -1.101 -0.21994 -1.6396 -0.03274 -0.1548 -0.10905 -0.297 -0.21995 -0.4099 -0.31037 -0.1519 -0.65482 -0.2208 -0.99974 -0.1999 -0.96686 -0.0097 -1.93296 0.0572 -2.88928 0.1999 -0.05016 0.0088 -0.09738 0.0298 -0.13749 0.0612 -0.0401 0.0314 -0.07186 0.0722 -0.09245 0.1188 -0.07161 0.0189 -0.13536 0.0601 -0.18207 0.1176 -0.04672 0.0575 -0.07398 0.1283 -0.07786 0.2023 -0.04999 0.8598 -0.14996 2.3894 -0.09998 3.0592 0.00828 0.1342 0.04353 0.2653 0.10365 0.3856 0.06013 0.1202 0.14388 0.2271 0.24626 0.3142Zm1.75956 -3.629c0.56586 0.0131 1.13025 0.0632 1.68957 0.1499 0.04675 0.6924 0.04675 1.3871 0 2.0795v0.4699c-0.83648 0.0912 -1.67827 0.1246 -2.51936 0.0999 -0.10974 -0.0101 -0.22018 -0.0101 -0.32992 0 -0.08997 -0.6298 -0.10997 -1.9994 -0.12996 -2.8392 0.34991 0.02 0.80979 0.02 1.28967 0.04Z" clip-rule="evenodd" stroke-width="1"></path>
  <path fill="#000000" fill-rule="evenodd" d="M13.8246 5.54861c0.16 0 0.5499 -0.11997 0.6698 -0.12997h2.5694c0.6398 0 1.2797 -0.09997 1.9295 -0.07998l2.1195 0.05999c0.0901 0 0.1766 -0.03581 0.2403 -0.09956 0.0638 -0.06375 0.0996 -0.15021 0.0996 -0.24036 0 -0.09109 -0.0355 -0.17861 -0.0989 -0.24395 -0.0635 -0.06534 -0.15 -0.10336 -0.241 -0.10596l-2.1095 -0.3999c-0.3878 -0.05151 -0.7785 -0.07822 -1.1697 -0.07998 -0.5599 0 -1.1197 0.05999 -1.6796 0.06999 -0.2552 0.02194 -0.5088 0.05866 -0.7598 0.10997l-0.9997 0.25993c-0.13 0 -0.8898 0.33992 -0.8998 0.34991 -0.01 0.01 -0.16 0.62985 0.3299 0.52987Z" clip-rule="evenodd" stroke-width="1"></path>
  <path fill="#000000" fill-rule="evenodd" d="M11.0854 9.59759s-0.23 0.52991 0.1999 0.54991h0.2799c0.4799 0 1.4897 0.0599 2.6894 0.0799h1.1097c0.5498 0 1.1097 0 1.6596 -0.0799 1.9995 -0.16001 3.839 -0.39995 4.1389 -0.40995 0.0911 -0.0026 0.1775 -0.04061 0.241 -0.10595 0.0635 -0.06534 0.099 -0.15286 0.0989 -0.24396 0 -0.09015 -0.0358 -0.17661 -0.0995 -0.24035 -0.0638 -0.06375 -0.1502 -0.09956 -0.2404 -0.09956 -0.2999 -0.04999 -2.1594 -0.04999 -4.1589 -0.04999 -0.5499 0 -1.1198 0 -1.6696 0.07998l-1.0997 0.10997c-1.1897 0.12997 -2.1895 0.26994 -2.6694 0.31992 -0.4798 0.04999 -0.3999 0.03 -0.4798 0.08998Z" clip-rule="evenodd" stroke-width="1"></path>
  <path fill="#000000" fill-rule="evenodd" d="M21.1628 14.5363c0.0902 0 0.1766 -0.0358 0.2404 -0.0995 0.0637 -0.0638 0.0995 -0.1502 0.0995 -0.2404 0.0001 -0.0911 -0.0354 -0.1786 -0.0989 -0.2439 -0.0635 -0.0654 -0.1499 -0.1034 -0.241 -0.106 -0.2999 0 -2.1594 -0.08 -4.1889 0 -0.5499 0 -1.1197 0 -1.6696 0.08l-1.0997 0.07c-1.1897 0.1299 -2.1895 0.2599 -2.6694 0.3199 -0.8997 0.09 -0.4898 0.6198 -0.2499 0.6298h0.2799c0.4799 0 1.4897 0.06 2.6894 0.08h1.1097c0.5498 0 1.1097 0 1.6596 -0.08 1.9795 -0.1499 3.839 -0.3899 4.1389 -0.4099Z" clip-rule="evenodd" stroke-width="1"></path>
  <path fill="#000000" fill-rule="evenodd" d="M14.0546 18.5853h-0.7898l-0.5199 0.08c-2.6393 0.4699 -1.2597 0.8898 -1.2197 0.8998 0.21 0 0.6599 0.09 1.2697 0.1399 0.1765 0.0106 0.3534 0.0106 0.5299 0 0.2596 0.0195 0.5202 0.0195 0.7798 0 0.6198 -0.0599 1.2797 -0.2099 1.9995 -0.3199 0.0446 -0.0025 0.0884 -0.0139 0.1286 -0.0333 0.0403 -0.0195 0.0763 -0.0468 0.1061 -0.0802 0.0297 -0.0334 0.0525 -0.0724 0.0671 -0.1147 0.0147 -0.0423 0.0208 -0.087 0.0181 -0.1317 -0.0052 -0.091 -0.0457 -0.1765 -0.1129 -0.2381 -0.0672 -0.0616 -0.1559 -0.0946 -0.247 -0.0918 -0.7198 -0.02 -1.3897 -0.1 -2.0095 -0.11Z" clip-rule="evenodd" stroke-width="1"></path>
</svg>