<svg xmlns="http://www.w3.org/2000/svg" fill="none" viewBox="0 0 24 24" id="Print-Text--Streamline-Freehand">
  <desc>
    Print Text Streamline Icon: https://streamlinehq.com
  </desc>
  <path fill="#000000" fill-rule="evenodd" d="M11.5189 20.1535c-0.52 0 -1.12 -0.1 -1.75997 -0.15 -0.4 -0.01 -0.77 -0.01 -1.18 -0.01 -0.69101 0.0007 -1.38051 0.0643 -2.06 0.19 -0.03869 0.0023 -0.07646 0.0127 -0.11093 0.0304s-0.06489 0.0424 -0.08933 0.0725c-0.02444 0.0301 -0.04237 0.0649 -0.05265 0.1023 -0.01029 0.0373 -0.0127 0.0764 -0.00709 0.1148 0.00374 0.0381 0.01501 0.0752 0.03316 0.1089 0.01815 0.0338 0.04282 0.0637 0.07258 0.0878 0.02976 0.0242 0.06402 0.0423 0.1008 0.0531 0.03678 0.0109 0.07534 0.0143 0.11346 0.0102 0.23 0 0.87 0.2 1.7 0.31 0.24 0 0.49 0.02 0.75 0.06h0.77c0.60247 -0.035 1.20107 -0.1186 1.78997 -0.25 0.0876 -0.0093 0.1678 -0.053 0.2231 -0.1214 0.0553 -0.0685 0.0812 -0.1561 0.0719 -0.2436 -0.0093 -0.0876 -0.0529 -0.1678 -0.1214 -0.2231 -0.0684 -0.0553 -0.1561 -0.0812 -0.2436 -0.0719v-0.07Z" clip-rule="evenodd" stroke-width="1"></path>
  <path fill="#000000" fill-rule="evenodd" d="m10.5689 17.7039 -0.76001 -0.08h-0.77c-0.73372 -0.0307 -1.46853 0.023 -2.19 0.16 -0.03744 0.0072 -0.0731 0.0217 -0.10493 0.0426 -0.03183 0.021 -0.05921 0.0481 -0.08058 0.0797 -0.02136 0.0315 -0.03628 0.067 -0.04392 0.1044 -0.00763 0.0373 -0.00783 0.0758 -0.00057 0.1133 0.01683 0.0764 0.06284 0.1432 0.12822 0.1861 0.06539 0.043 0.14497 0.0587 0.22178 0.0439 0.23 0 0.93 0.22 1.78 0.34 0.42065 0.0601 0.84506 0.0902 1.27001 0.09 0.8102 0.0728 1.6212 -0.1317 2.3 -0.58 0.0311 -0.0307 0.0559 -0.0673 0.0727 -0.1077 0.0169 -0.0403 0.0256 -0.0836 0.0256 -0.1273 0 -0.0438 -0.0087 -0.0871 -0.0256 -0.1274 -0.0168 -0.0404 -0.0416 -0.0769 -0.0727 -0.1076 -0.33 -0.34 0.07 0.14 -1.75 -0.03Z" clip-rule="evenodd" stroke-width="1"></path>
  <path fill="#000000" fill-rule="evenodd" d="M17.1176 11.475c0.0729 0.0278 0.1539 0.0256 0.2252 -0.0063s0.1269 -0.0908 0.1548 -0.1637c0.0278 -0.073 0.0256 -0.154 -0.0063 -0.2252 -0.0319 -0.0713 -0.0908 -0.127 -0.1637 -0.1548 -0.3603 -0.1756 -0.7622 -0.2481 -1.1611 -0.2092 -0.3989 0.0388 -0.7793 0.1874 -1.0989 0.4292 -0.2377 0.2298 -0.3877 0.5354 -0.4242 0.8639 -0.0365 0.3286 0.0428 0.6597 0.2242 0.9361 0.1805 0.2713 0.431 0.4889 0.7249 0.6297 0.294 0.1408 0.6205 0.1996 0.9451 0.1703 0.3261 -0.0058 0.6388 -0.1313 0.8785 -0.3525 0.2396 -0.2213 0.3897 -0.5229 0.4215 -0.8475 0.0167 -0.0465 0.023 -0.096 0.0186 -0.1452 -0.0044 -0.0492 -0.0195 -0.0968 -0.0441 -0.1395 -0.0247 -0.0428 -0.0584 -0.0796 -0.0987 -0.1081 -0.0404 -0.0284 -0.0865 -0.0477 -0.135 -0.0565 -0.0486 -0.0089 -0.0985 -0.007 -0.1463 0.0054 -0.0477 0.0124 -0.0922 0.0351 -0.1304 0.0664 -0.0381 0.0313 -0.069 0.0706 -0.0904 0.1151 -0.0215 0.0444 -0.0329 0.093 -0.0337 0.1424 -0.031 0.1078 -0.0949 0.2034 -0.1827 0.2733 -0.0878 0.0699 -0.1952 0.1106 -0.3073 0.1167 -0.1628 0.0285 -0.3305 0.0053 -0.4794 -0.0665 -0.1488 -0.0718 -0.2715 -0.1884 -0.3506 -0.3335 -0.18 -0.31 -0.13 -0.54 0.08 -0.69 0.1695 -0.1195 0.3615 -0.2032 0.5643 -0.2462 0.2029 -0.043 0.4123 -0.0443 0.6157 -0.0038Z" clip-rule="evenodd" stroke-width="1"></path>
  <path fill="#000000" fill-rule="evenodd" d="M19.0669 5.68568c0.6399 0.05999 1.2198 0.10998 1.7397 0.17997 2.4796 0.29995 1.8997 0.32995 1.9997 0.99984 0.1147 1.35403 0.1147 2.71533 0 4.06931 -0.0086 1.0869 -0.1979 2.1647 -0.5599 3.1895 -0.3364 0.5241 -0.7287 1.0102 -1.1698 1.4498 -0.2953 0.2864 -0.6057 0.5568 -0.9299 0.8099 0.0663 -0.4601 0.093 -0.9251 0.08 -1.3898v-1.7497c0.0665 -0.8486 0.0665 -1.701 0 -2.5496 -0.0402 -0.4163 -0.2 -0.81217 -0.4599 -1.13983 0.0401 0.00209 0.0803 -0.00391 0.1181 -0.01766 0.0378 -0.01374 0.0724 -0.03494 0.1018 -0.06233 0.3 -0.14998 0.5899 -0.24996 0.8699 -0.40994 0.1195 -0.07084 0.2332 -0.15108 0.3399 -0.23996 0.1066 -0.08991 0.2038 -0.19041 0.29 -0.29995 0.2231 -0.26684 0.4144 -0.55876 0.5699 -0.86986 0.0375 -0.0708 0.0488 -0.15257 0.0319 -0.2309 -0.0169 -0.07832 -0.0609 -0.14815 -0.1243 -0.19718 -0.0633 -0.04903 -0.142 -0.07409 -0.222 -0.07077 -0.0801 0.00332 -0.1564 0.03481 -0.2155 0.08891 -0.22 0.18997 -0.4899 0.30995 -0.7599 0.49992 -0.1742 0.11571 -0.3381 0.24617 -0.4899 0.38994 -0.2509 0.27725 -0.4784 0.57489 -0.6799 0.88986 -0.3437 0.13363 -0.7187 0.16488 -1.0798 0.08999 -2.7769 -0.2806 -5.5682 -0.39412 -8.3587 -0.33995 -1.9197 0 -3.87939 0.12998 -5.56913 0.32995 -1.18864 0.12678 -2.36121 0.3747 -3.49944 0.73988 0.31995 -0.43993 0.82987 -0.99984 1.36978 -1.66973 0.35994 -0.41994 0.72988 -0.84987 1.07983 -1.22981 0.31614 -0.40722 0.71046 -0.74715 1.15982 -0.99984 0.70988 -0.18997 0.86986 -0.48992 0.34994 -0.91986 -0.20284 -0.01942 -0.40707 -0.01942 -0.6099 0 -0.45969 0.13428 -0.88338 0.37004 -1.23981 0.68989 -0.32363 0.27564 -0.62148 0.58018 -0.88986 0.90986 -0.24321 0.28705 -0.4702 0.58747 -0.67989 0.89986 -0.46568 0.73024 -0.873529 1.49578 -1.219806 2.28964 0 0 -0.359943 1.43977 -0.359943 1.47977 -0.0965603 1.001 -0.05281103 2.0106 0.129979 2.9995 0.062702 0.7286 0.062702 1.4611 0 2.1897 -0.025169 0.3989 0.087815 0.7944 0.31995 1.1198 0.196369 0.2001 0.437465 0.3507 0.70343 0.4393 0.26596 0.0887 0.54918 0.1129 0.82633 0.0706h0.99984c0.06892 -0.0127 0.13121 -0.0492 0.17604 -0.1031 0.04483 -0.0539 0.06938 -0.1217 0.06938 -0.1918s-0.02455 -0.138 -0.06938 -0.1919c-0.04483 -0.0539 -0.10712 -0.0903 -0.17604 -0.1031h-0.99984c-0.74988 0 -0.99984 -0.19 -1.119825 -0.5799 -0.129979 -0.6499 0.139975 -1.6297 0 -2.7396 -0.110588 -0.7747 -0.137406 -1.5591 -0.079987 -2.3396 0.020663 -0.275 0.084782 -0.545 0.189972 -0.7999 0 -0.09 0.08998 -0.1799 0.16997 -0.1999 2.34953 -0.5946 4.76533 -0.88695 7.18886 -0.8699 3.21953 -0.10998 6.63893 -0.06999 8.78863 0.06 0.7499 0 1.3398 0.09 1.7097 0.15l0.25 0.05c0.1806 0.2752 0.2682 0.6011 0.2499 0.9298 0.039 0.696 0.039 1.3937 0 2.0897v1.7497c0 0.9998 0 1.5798 -0.3199 1.9197 -0.5586 0.4052 -1.207 0.6694 -1.8897 0.7699 -0.0422 0.0115 -0.0817 0.0313 -0.1161 0.0582 -0.0345 0.027 -0.0633 0.0605 -0.0847 0.0986 -0.0214 0.0382 -0.035 0.0802 -0.04 0.1236 -0.005 0.0435 -0.0013 0.0875 0.0108 0.1295 0.0116 0.0422 0.0314 0.0817 0.0583 0.1161 0.0269 0.0345 0.0604 0.0633 0.0986 0.0847 0.0381 0.0214 0.0801 0.035 0.1236 0.04 0.0434 0.005 0.0874 0.0013 0.1295 -0.0108 1.562 -0.3423 3.0046 -1.0947 4.1793 -2.1797 0.5474 -0.4632 1.0375 -0.9902 1.4598 -1.5697 0.4405 -0.8425 0.7122 -1.7629 0.7998 -2.7096 0.1183 -0.8852 0.1851 -1.7766 0.2 -2.66958 0.0448 -0.97389 -0.0189 -1.94975 -0.19 -2.90954 -0.0184 -0.19986 -0.0809 -0.39317 -0.1829 -0.56604 -0.1019 -0.17287 -0.2409 -0.32101 -0.407 -0.4338 -0.572 -0.18478 -1.1686 -0.28252 -1.7697 -0.28996 -0.6099 -0.02999 -1.3498 -0.02999 -2.1596 -0.02999 -0.8299 0.13998 -0.7499 0.38994 -0.21 0.68989Z" clip-rule="evenodd" stroke-width="1"></path>
  <path fill="#000000" fill-rule="evenodd" d="M18.487 0.996457c-0.0274 -0.104686 -0.0787 -0.201605 -0.1498 -0.283142 -0.0711 -0.081537 -0.1602 -0.145473 -0.2602 -0.186784 -0.9846 -0.221111 -1.9903 -0.335089 -2.9995 -0.339946C12.9878 0.116596 10.2982 0.106598 8.38855 0.166588c-0.73921 0.013926 -1.477 0.070679 -2.20965 0.169973 -0.46993 0.099984 -0.55991 0.439931 -0.54991 0.559912l0.45992 4.099347 0.06999 0.69989 0.06999 0.58991c-0.34994 0 -0.71988 -0.06999 -0.78987 0.27996 -0.06999 0.34994 3.44945 0.52991 5.20918 0.6199 2.5996 0.11998 5.5691 0.09998 6.449 -0.34995 0.2036 -0.13631 0.3606 -0.3317 0.4499 -0.55991 0.0986 -0.22867 0.1854 -0.46227 0.26 -0.69989l0.1799 -0.57991c0.2039 -0.72971 0.3641 -1.4709 0.48 -2.21964 0.1227 -0.58626 0.1295 -1.19086 0.02 -1.779723ZM16.7772 5.35577c-0.09 0.28995 -0.3299 0.55991 -0.2699 0.65989 -1.3998 0.60991 -6.73897 0.44993 -8.93862 0.35995h-0.6599l-0.38993 -5.13919c0.23374 -0.05334 0.47096 -0.09009 0.70988 -0.10998 1.46977 0 4.08937 0 6.35897 0.12998 1.7298 0.07998 3.2495 0.14997 3.8494 0.26995v0.05999c-0.0683 1.27835 -0.2899 2.54387 -0.6599 3.76941Z" clip-rule="evenodd" stroke-width="1"></path>
  <path fill="#000000" fill-rule="evenodd" d="M14.7975 16.5042c-0.0361 1.1739 -0.18 2.342 -0.4299 3.4895 -0.0384 0.4201 -0.1629 0.8279 -0.3659 1.1977 -0.203 0.3699 -0.4801 0.6939 -0.8139 0.9519 -0.4104 0.1893 -0.8499 0.3076 -1.2998 0.35 -0.7399 0.09 -1.4798 0.07 -2.26966 0.17 -0.66274 0.1009 -1.33695 0.1009 -1.99968 0 -0.99985 -0.14 -2.35963 0.0799 -3.47945 -0.15 -0.36202 -0.0642 -0.70425 -0.2113 -0.99985 -0.43 0.09999 -0.1399 0.30996 -0.3299 0.33995 -0.4099 0.32995 -0.7099 0.71989 -1.3798 1.06983 -2.0797 0.14998 -0.3099 0.29995 -0.6199 0.42993 -0.9398 0.30408 -0.676 0.48684 -1.4003 0.53992 -2.1397 -0.28996 -0.4099 -0.54991 -0.5499 -0.71989 0 -0.17997 0.7299 -0.40993 1.6498 -0.49992 1.8397l-1.64974 2.8996c-0.19731 0.2478 -0.36196 0.52 -0.48992 0.8098 -0.02644 0.1117 -0.02378 0.2282 0.00773 0.3385 0.03152 0.1103 0.09082 0.2106 0.17224 0.2915 0.42566 0.4316 0.96753 0.7303 1.55975 0.8598 1.12983 0.27 2.49961 0.07 3.55944 0.23 0.37723 0.0578 0.75819 0.0879 1.13982 0.09 0.38522 -0.0048 0.76955 -0.0383 1.14982 -0.1 0.93988 -0.14 1.80968 -0.12 2.66958 -0.31 0.423 -0.1 0.8302 -0.2582 1.2098 -0.4699 0.724 -0.4891 1.2268 -1.2432 1.3998 -2.0997 0.3461 -1.4501 0.504 -2.9388 0.4699 -4.4293 0 -0.6399 -0.5099 -0.4699 -0.6999 0.04Z" clip-rule="evenodd" stroke-width="1"></path>
  <path fill="#000000" fill-rule="evenodd" d="M16.9873 14.6943c-0.3339 -0.0019 -0.6677 0.0148 -0.9998 0.05 -0.48 0.05 -0.9999 0.1299 -1.4098 0.1799 -0.6475 0.0687 -1.299 0.0921 -1.9497 0.07 -0.7699 0 -1.5498 -0.08 -2.3196 -0.12 -0.76992 -0.04 -1.60979 -0.07 -2.38966 -0.06l-3.02953 0.18h-0.99984c-0.08998 0 -0.56991 -0.1 -0.75988 0.14 -0.02746 0.0452 -0.04291 0.0967 -0.04487 0.1495 -0.00195 0.0529 0.00965 0.1053 0.0337 0.1524 0.02405 0.0471 0.05975 0.0873 0.10371 0.1167 0.04396 0.0294 0.09471 0.0471 0.14742 0.0513 0.17318 0.0097 0.34675 0.0097 0.51992 0l3.99937 0.21c0.6499 0 1.31979 0.07 1.99968 0.1 0.67988 0.03 1.35978 0.07 1.99968 0.07 0.9302 -0.0016 1.8579 -0.0953 2.7696 -0.28l1.3798 -0.2899c0.2909 -0.0533 0.5847 -0.09 0.8798 -0.11 0.0789 -0.0137 0.1505 -0.0548 0.202 -0.1161 0.0516 -0.0613 0.0799 -0.1388 0.0799 -0.2189s-0.0283 -0.1576 -0.0799 -0.2189c-0.0515 -0.0612 -0.1231 -0.1023 -0.202 -0.116l0.07 0.06Z" clip-rule="evenodd" stroke-width="1"></path>
</svg>