<svg xmlns="http://www.w3.org/2000/svg" fill="none" viewBox="0 0 24 24" id="Share-Forward--Streamline-Freehand">
  <desc>
    Share Forward Streamline Icon: https://streamlinehq.com
  </desc>
  <path fill="#000000" d="M19.4071 10.7174c-0.0192 -0.0874 -0.0713 -0.1642 -0.1456 -0.2143 -0.0742 -0.0501 -0.1649 -0.0698 -0.2532 -0.0549 -0.0448 0.0072 -0.0878 0.0234 -0.1263 0.0475 -0.0384 0.0241 -0.0717 0.0556 -0.0977 0.0928 -0.0261 0.0372 -0.0444 0.0793 -0.0538 0.1237 -0.0095 0.0444 -0.01 0.0903 -0.0014 0.1349 0.1363 1.0143 0.1929 2.0378 0.1695 3.0609 0 2.9015 -0.2692 6.461 -0.2792 7.3185 0 0.2891 -0.319 0.3888 -0.658 0.5185 -0.6481 0.2393 -1.4956 0.3489 -1.9942 0.4885 -1.1341 0.2859 -2.2923 0.4662 -3.4598 0.5384 -1.7548 0.1197 -3.52957 0.0599 -5.3542 0 -0.79765 0 -2.2733 0.0599 -3.58943 -0.0498 -0.69176 -0.0113 -1.37257 -0.1747 -1.99412 -0.4786 -0.05593 -0.2032 -0.09922 -0.4096 -0.12962 -0.6182 -0.12518 -1.3255 -0.16846 -2.6574 -0.12962 -3.9882 0 -2.8118 0.17947 -6.0622 0.339 -7.5977 0.01208 -0.83222 0.08875 -1.66227 0.22933 -2.48265 0.10226 -0.44414 0.37423 -0.83063 0.75776 -1.07683 1.19342 -0.503 2.47386 -0.76721 3.7689 -0.77771 2.59237 -0.1695 5.444 0 6.0721 0 0.0712 -0.01295 0.1357 -0.05048 0.182 -0.10606 0.0464 -0.05557 0.0718 -0.12566 0.0718 -0.19805 0 -0.07238 -0.0254 -0.14247 -0.0718 -0.19805 -0.0463 -0.05557 -0.1108 -0.0931 -0.182 -0.10605 -2.3759 -0.17155 -4.76016 -0.19486 -7.13895 -0.0698 -1.08014 0.03507 -2.14328 0.27885 -3.13078 0.71789 -0.29105 0.17701 -0.54405 0.41006 -0.74431 0.68562 -0.20025 0.27557 -0.34378 0.58817 -0.42226 0.91965 -0.187538 0.87659 -0.304239 1.76685 -0.348971 2.66214 -0.219354 1.7947 -0.508502 5.8927 -0.518473 8.9736 -0.0419 1.2027 0.048377 2.4064 0.269207 3.5894 0.058145 0.246 0.194609 0.4664 0.388855 0.6282 0.598392 0.3859 1.284012 0.6156 1.994132 0.668 1.42854 0.1304 2.86429 0.1637 4.29734 0.0997 1.85454 0 3.65921 0 5.43401 -0.1396 1.23 -0.101 2.4482 -0.3146 3.6393 -0.6381 0.8458 -0.1665 1.6739 -0.4136 2.4727 -0.7378 0.2405 -0.101 0.4476 -0.2678 0.5975 -0.4812 0.1499 -0.2134 0.2366 -0.4648 0.25 -0.7253 0 -0.8574 0.1695 -4.417 0.1196 -7.3184 0.0047 -1.0745 -0.072 -2.1477 -0.2293 -3.2106Z" stroke-width="1"></path>
  <path fill="#000000" d="M23.5748 1.62422c-0.0757 -0.44369 -0.2843 -0.853954 -0.5982 -1.176539 -1.0764 -0.472714 -2.2794 -0.574423 -3.4199 -0.289149 -2.3951 0.395677 -4.7369 1.064758 -6.9795 1.994128 -0.1354 0.05656 -0.2475 0.15738 -0.3182 0.28598 -0.0706 0.12859 -0.0955 0.27734 -0.0706 0.42193 0.0217 0.11135 0.0679 0.21648 0.1351 0.30786 0.0672 0.09137 0.1539 0.16671 0.2537 0.22059 0.9705 0.36436 1.9715 0.64131 2.9912 0.82756 0.1624 0.04664 0.3195 0.11013 0.4686 0.18944 -0.8674 0.99707 -2.2035 2.63225 -3.6293 4.43694 -4.73603 5.82284 -4.93544 6.15184 -4.33721 7.04924 0.35895 0.5584 1.21642 0.7478 2.06391 0 4.9853 -3.9883 7.8469 -6.15188 9.3325 -7.31845l0.5185 -0.38885c0.288 0.70652 0.6595 1.376 1.1067 1.9941 0.1429 0.199 0.3539 0.3385 0.593 0.3918 0.2391 0.0533 0.4894 0.0168 0.7032 -0.1026 0.4693 -0.3878 0.7957 -0.92118 0.9273 -1.51557 0.2949 -1.11379 0.4588 -2.25817 0.4886 -3.40995 0.0825 -1.31062 0.0055 -2.62642 -0.2294 -3.91846Zm-0.8973 3.87857c-0.0168 1.05575 -0.1539 2.10614 -0.4088 3.13078 -0.0616 0.26455 -0.1588 0.51948 -0.2892 0.75777 -0.0997 -0.15953 -0.3789 -0.339 -0.5184 -0.58827 -0.3889 -0.678 -0.7279 -1.48562 -0.8974 -1.73489 -0.0477 -0.05839 -0.1078 -0.10545 -0.1759 -0.13776 -0.0681 -0.03232 -0.1425 -0.04908 -0.2179 -0.04908 -0.0754 0 -0.1499 0.01676 -0.218 0.04908 -0.0681 0.03231 -0.1282 0.07937 -0.1759 0.13776 -0.2943 0.2957 -0.6074 0.57213 -0.9372 0.82757 -1.4557 1.11671 -4.3273 3.35015 -9.18297 7.47795 -0.4088 0.339 -0.80763 0.3889 -0.99707 0.1296 -0.38885 -0.5783 0.21936 -1.3859 4.24754 -6.22163 1.7648 -2.10381 3.37 -3.98826 4.1976 -4.81582 0.0672 -0.08332 0.1038 -0.18711 0.1038 -0.29414 0 -0.10702 -0.0366 -0.21082 -0.1038 -0.29413 -0.2838 -0.25138 -0.6269 -0.42638 -0.9971 -0.5085 -0.6481 -0.19942 -1.9941 -0.31906 -2.6522 -0.52845 1.7132 -0.59917 3.4699 -1.06584 5.2546 -1.39589 0.886 -0.17998 1.7879 -0.27017 2.692 -0.2692 0.2911 -0.01308 0.5804 0.05235 0.8376 0.18944 0.0997 0.06979 0.1196 0.26921 0.1794 0.51847 0.233 1.19146 0.3201 2.40685 0.2593 3.61934Z" stroke-width="1"></path>
</svg>