<svg xmlns="http://www.w3.org/2000/svg" fill="none" viewBox="0 0 24 24" id="Text-Formating-Open-Quote--Streamline-Freehand">
  <desc>
    Text Formating Open Quote Streamline Icon: https://streamlinehq.com
  </desc>
  <path fill="#000000" fill-rule="evenodd" d="M5.72118 11.7469c-0.61682 0.0717 -1.22178 0.2229 -1.79979 0.4499 -0.4045 0.1533 -0.7824 0.3693 -1.11987 0.6399 -0.414 0.311 -0.72985 0.7344 -0.90989 1.2199 0 0.3499 0.05999 0.6899 0.63993 0.7999 0.05058 0.0118 0.103 0.0133 0.15419 0.0045 0.05118 -0.0088 0.1001 -0.0277 0.14387 -0.0556 0.04378 -0.028 0.08153 -0.0644 0.11105 -0.1071 0.02951 -0.0427 0.05019 -0.0909 0.06083 -0.1418 0.05999 -0.2399 -0.32996 -0.5399 0.33996 -0.9999 0.34941 -0.2578 0.74226 -0.4508 1.15986 -0.5699 0.43447 -0.1209 0.87999 -0.198 1.32985 -0.23 0.70158 -0.0484 1.39836 0.147 1.97234 0.5534 0.57398 0.4063 0.98989 0.9986 1.17729 1.6764 0.23104 0.6307 0.23016 1.3231 -0.00249 1.9533 -0.23264 0.6301 -0.68188 1.157 -1.26736 1.4863 -0.60268 0.2737 -1.26874 0.3774 -1.92611 0.2998 -0.65736 -0.0775 -1.28101 -0.3333 -1.80346 -0.7398 -0.60804 -0.3381 -1.14125 -0.796 -1.56744 -1.3459 -0.4262 -0.5499 -0.73653 -1.1805 -0.91226 -1.8537 -0.30896 -2.0849 0.0077 -4.2145 0.90989 -6.11927 0.86351 -1.95399 2.18373 -3.67198 3.84955 -5.00941 0.05588 -0.03286 0.10419 -0.07715 0.14176 -0.12998 0.03756 -0.05283 0.06353 -0.11301 0.07621 -0.17658 0.01268 -0.06358 0.01177 -0.12911 -0.00265 -0.19231 -0.01443 -0.0632 -0.04205 -0.12264 -0.08106 -0.17441 -0.03901 -0.05178 -0.08852 -0.09472 -0.14529 -0.12602 -0.05677 -0.0313 -0.11952 -0.05024 -0.18412 -0.05559 -0.06461 -0.00535 -0.12961 0.00302 -0.19076 0.02456 -0.06114 0.02154 -0.11704 0.05576 -0.16403 0.10041C3.85587 4.31549 2.358 6.12529 1.3417 8.20728 0.25522 10.3126 -0.186475 12.6915 0.0718451 15.0465c0.1923489 0.889 0.5683199 1.728 1.1038149 2.4632 0.53549 0.7352 1.2187 1.3505 2.00582 1.8063 0.76871 0.5475 1.67551 0.8687 2.6175 0.927 0.942 0.0583 1.88148 -0.1485 2.71187 -0.5971 0.84697 -0.5157 1.48296 -1.3158 1.79435 -2.2573 0.3114 -0.9415 0.2779 -1.963 -0.0945 -2.8821 -0.31623 -0.9065 -0.93559 -1.6762 -1.75353 -2.179 -0.81794 -0.5028 -1.78434 -0.7079 -2.73599 -0.5806Z" clip-rule="evenodd" stroke-width="1"></path>
  <path fill="#000000" fill-rule="evenodd" d="M22.8092 12.9867c-0.4096 -0.4614 -0.934 -0.8064 -1.5199 -0.9999 -0.8048 -0.2542 -1.6457 -0.3758 -2.4897 -0.3599 -0.5852 -0.0333 -1.1695 0.0801 -1.6998 0.3299 -0.5076 0.2419 -0.955 0.5937 -1.3098 1.0299 -0.0733 0.0748 -0.1143 0.1753 -0.1143 0.28 0 0.1047 0.041 0.2052 0.1143 0.28 0.0363 0.0375 0.0798 0.0673 0.1279 0.0876 0.0481 0.0204 0.0998 0.0309 0.152 0.0309 0.0523 0 0.104 -0.0105 0.1521 -0.0309 0.048 -0.0203 0.0916 -0.0501 0.1279 -0.0876 0.295 -0.3413 0.6554 -0.6201 1.0599 -0.8199 0.4141 -0.1573 0.8592 -0.2155 1.2998 -0.17 0.7306 0.0211 1.4531 0.1595 2.1398 0.4099 0.3934 0.1673 0.7376 0.4323 0.9999 0.7699 0.3461 0.5096 0.581 1.0864 0.6895 1.6928 0.1086 0.6064 0.0882 1.2288 -0.0596 1.8268 -0.0489 0.5555 -0.2758 1.0803 -0.6469 1.4964 -0.3711 0.4161 -0.8666 0.7014 -1.4129 0.8134 -1.3723 0.2904 -2.8038 0.0435 -3.9995 -0.69 -0.5178 -0.4518 -0.9368 -1.0055 -1.231 -1.6266 -0.2942 -0.621 -0.4572 -1.2961 -0.4788 -1.9829 -0.1539 -1.8076 0.1308 -3.6255 0.8299 -5.29942 0.6933 -1.74872 1.629 -3.39127 2.7797 -4.87942 0.0732 -0.09585 0.1059 -0.21664 0.0909 -0.33633 -0.0149 -0.1197 -0.0763 -0.22873 -0.1709 -0.3036 -0.0942 -0.07268 -0.2134 -0.10507 -0.3315 -0.09008 -0.118 0.01499 -0.2254 0.07614 -0.2984 0.17007 -1.5043 1.81603 -2.6878 3.87531 -3.4996 6.08928 -0.5597 1.5212 -0.8013 3.1411 -0.7099 4.7594 0.0101 0.8915 0.2098 1.7707 0.5856 2.5792 0.3758 0.8084 0.9192 1.5278 1.5941 2.1103 0.7394 0.4922 1.5686 0.8339 2.4402 1.0055 0.8715 0.1716 1.7684 0.1697 2.6392 -0.0056 0.6961 -0.1055 1.3478 -0.4069 1.879 -0.8691 0.5312 -0.4621 0.9199 -1.0658 1.1207 -1.7406 0.3272 -0.91 0.4208 -1.8875 0.2723 -2.8431 -0.1484 -0.9555 -0.5343 -1.8585 -1.1222 -2.6263Z" clip-rule="evenodd" stroke-width="1"></path>
</svg>