<svg xmlns="http://www.w3.org/2000/svg" fill="none" viewBox="0 0 24 24" id="Touch-Id-Fingerprint-Square--Streamline-Freehand">
  <desc>
    Touch Id Fingerprint Square Streamline Icon: https://streamlinehq.com
  </desc>
  <path fill="#000000" d="M17.304 5.63589c-0.526 -1.11176 -1.4118 -2.01346 -2.5141 -2.55912 -1.1022 -0.54567 -2.3564 -0.70336 -3.5594 -0.44754 -0.8706 0.12789 -1.70702 0.42768 -2.46065 0.88192 -0.75363 0.45424 -1.40937 1.05386 -1.92905 1.76394 -1.4815 2.04013 -2.28435 4.49427 -2.29509 7.01551 -0.0902 4.5501 2.14476 8.8797 7.01559 8.539 0.0903 -0.0067 0.1744 -0.049 0.2336 -0.1176s0.0887 -0.1579 0.0821 -0.2482c-0.0067 -0.0904 -0.049 -0.1745 -0.1176 -0.2337s-0.1579 -0.0887 -0.2482 -0.082c-4.3096 0.1503 -6.08353 -3.7985 -5.86304 -7.8174 0.08648 -1.8841 0.63364 -3.71825 1.59353 -5.34181 0.42151 -0.78446 1.0159 -1.46279 1.73821 -1.98369 0.7223 -0.52089 1.5536 -0.8707 2.431 -1.02298 0.9418 -0.20782 1.926 -0.09601 2.7971 0.31779 0.8712 0.41379 1.5796 1.10599 2.0136 1.96728 1.4532 2.64586 1.4231 6.71491 1.2427 9.23041 -0.0776 1.2165 -0.3764 2.4086 -0.8819 3.5178 -0.135 0.3482 -0.3411 0.6644 -0.6051 0.9284 -0.264 0.264 -0.5802 0.4701 -0.9283 0.605 -0.0498 0.0117 -0.0968 0.0333 -0.1381 0.0635 -0.0413 0.0302 -0.0761 0.0685 -0.1023 0.1124 -0.0262 0.044 -0.0432 0.0928 -0.0502 0.1435 -0.0069 0.0507 -0.0035 0.1023 0.01 0.1517 0.0282 0.1 0.0941 0.1851 0.1838 0.2375 0.0898 0.0523 0.1963 0.0678 0.2972 0.0431 0.4613 -0.1512 0.8854 -0.3981 1.2446 -0.7245 0.3592 -0.3264 0.6455 -0.725 0.8401 -1.1697 0.5992 -1.2106 0.9663 -2.5228 1.0824 -3.8686 0.2706 -2.6959 0.3708 -7.04558 -1.1125 -9.90191Z" stroke-width="1"></path>
  <path fill="#000000" d="M15.5501 17.3519c0.0643 -0.0656 0.1003 -0.1538 0.1003 -0.2456 0 -0.0918 -0.036 -0.18 -0.1003 -0.2455 -0.0638 -0.0637 -0.1503 -0.0994 -0.2405 -0.0994s-0.1767 0.0357 -0.2405 0.0994c-0.3286 0.3041 -0.696 0.5636 -1.0924 0.7717 -0.3633 0.1871 -0.7641 0.2899 -1.1726 0.3006 -0.4537 -0.0085 -0.9008 -0.1109 -1.313 -0.3006 -0.6682 -0.2825 -1.282 -0.6793 -1.81397 -1.1726 -0.96774 -0.7873 -1.64783 -1.8726 -1.93429 -3.0869 -0.02038 -0.0919 -0.07328 -0.1734 -0.14898 -0.2295 -0.07569 -0.0561 -0.16908 -0.0829 -0.26299 -0.0756 -0.09391 0.0073 -0.18202 0.0483 -0.24812 0.1154 -0.06609 0.0671 -0.10573 0.1559 -0.11162 0.2499 0.10883 1.4919 0.75305 2.8942 1.81402 3.9487 0.61198 0.6564 1.36625 1.1638 2.20485 1.4833 0.5955 0.2191 1.2358 0.2879 1.8642 0.2005 0.4514 -0.0706 0.8842 -0.2308 1.2728 -0.4711 0.5413 -0.3307 1.0225 -0.7509 1.4231 -1.2427Z" stroke-width="1"></path>
  <path fill="#000000" d="M7.71276 11.1581c0.16036 0 0.1804 0.1103 0.73163 -1.38303 0.06013 -0.19042 0.10022 -0.39087 0.17037 -0.59131 0.37083 -1.19264 0.49109 -1.19264 0.24054 -1.46324 -0.48107 -0.39087 -1.29287 0.8118 -1.37305 0.94208 -0.08546 0.15114 -0.15917 0.30862 -0.22049 0.47105 -0.05499 0.16157 -0.0854 0.3305 -0.0902 0.50111 -0.02004 0.43094 0.07016 1.55344 0.5412 1.52334Z" stroke-width="1"></path>
  <path fill="#000000" d="M10.3787 6.57797c0.6989 -0.22307 1.4573 -0.16556 2.1146 0.16036 0.6429 0.27313 1.1732 0.75752 1.5034 1.37304 0.4715 0.87163 0.7773 1.82311 0.902 2.80623 0.1785 1.0255 0.2524 2.0665 0.2205 3.1069 -0.0033 0.1025 0.0319 0.2026 0.0987 0.2805 0.0667 0.0779 0.1602 0.128 0.2621 0.1404 0.1021 0.0084 0.2035 -0.0237 0.2822 -0.0893 0.0787 -0.0656 0.1285 -0.1595 0.1387 -0.2615 0.2107 -1.3262 0.2377 -2.6752 0.0802 -4.0089 -0.1194 -0.93121 -0.4117 -1.83196 -0.8619 -2.65584 -0.5432 -0.80945 -1.3511 -1.40472 -2.2851 -1.68373 -0.4493 -0.14266 -0.9225 -0.19485 -1.3921 -0.15356 -0.4696 0.04128 -0.9264 0.17523 -1.344 0.39409 -0.0806 0.03916 -0.14323 0.10772 -0.17491 0.19159 -0.03169 0.08388 -0.03005 0.1767 0.00457 0.25941 0.04248 0.07713 0.11314 0.13482 0.19724 0.16097 0.0841 0.02616 0.175 0.01876 0.2538 -0.02066Z" stroke-width="1"></path>
  <path fill="#000000" d="M8.98553 11.4588c0.07466 0.6125 0.28339 1.2011 0.61136 1.7238 0.34662 0.6958 0.93341 1.2426 1.65201 1.5392 0.7185 0.2966 1.5201 0.323 2.2567 0.0744 0.0847 -0.0296 0.1544 -0.0915 0.1938 -0.1722 0.0395 -0.0807 0.0454 -0.1737 0.0166 -0.2588 -0.0338 -0.0866 -0.099 -0.1573 -0.1825 -0.1981 -0.0835 -0.0409 -0.1794 -0.0488 -0.2685 -0.0224 -0.5504 0.1059 -1.1206 0.0103 -1.6063 -0.2694 -0.4858 -0.2797 -0.8548 -0.7247 -1.0395 -1.2539 -0.1947 -0.4019 -0.3104 -0.8374 -0.3408 -1.2829 -0.037 -0.2977 -0.0067 -0.6 0.0887 -0.8845s0.2535 -0.54388 0.4625 -0.75913c0.0938 -0.11887 0.2134 -0.21494 0.3496 -0.28098 0.1363 -0.06605 0.2857 -0.10037 0.4372 -0.10037 0.1514 0 0.3009 0.03432 0.4371 0.10037 0.1363 0.06604 0.2558 0.16211 0.3496 0.28098 0.2706 0.31123 0.4598 0.68473 0.5508 1.08693 0.0909 0.4023 0.0807 0.8208 -0.0296 1.2182 -0.0211 0.0465 -0.0323 0.0968 -0.033 0.1478 -0.0007 0.051 0.0092 0.1016 0.0289 0.1486 0.0198 0.0471 0.049 0.0895 0.0859 0.1247 0.0369 0.0352 0.0807 0.0625 0.1286 0.08 0.0473 0.0193 0.098 0.0289 0.1491 0.0282 0.0511 -0.0007 0.1015 -0.0116 0.1482 -0.0322 0.0468 -0.0206 0.0889 -0.0504 0.1239 -0.0875 0.035 -0.0372 0.0622 -0.0811 0.0799 -0.129 0.2405 -0.6299 0.2898 -1.3167 0.1419 -1.9745 -0.148 -0.65786 -0.4867 -1.25742 -0.9737 -1.72369 -0.3971 -0.34851 -0.9158 -0.52612 -1.4432 -0.49422 -0.5274 0.03191 -1.0208 0.27076 -1.37304 0.66459 -0.37211 0.33739 -0.65747 0.75946 -0.83192 1.23048 -0.17446 0.47104 -0.23287 0.97714 -0.17031 1.47554Z" stroke-width="1"></path>
  <path fill="#000000" d="M1.58917 5.07466c0.04477 -0.00256 0.0886 -0.01392 0.12897 -0.03346 0.04037 -0.01953 0.07649 -0.04684 0.10629 -0.08035 0.02979 -0.03352 0.05268 -0.0726 0.06734 -0.11498 0.01467 -0.04238 0.02082 -0.08724 0.01811 -0.13201V2.47891c0.01212 -0.37388 0.08665 -0.74311 0.22049 -1.09242l0.07015 -0.07016 0.31069 -0.06013c0.41919 -0.09585 0.84446 -0.16282 1.27282 -0.20045 0.65145 -0.080175 1.27282 -0.080175 1.5334 -0.080175 0.10366 0 0.20308 -0.041181 0.27638 -0.114482 0.07331 -0.073302 0.11449 -0.17272 0.11449 -0.276384 0 -0.103665 -0.04118 -0.203083 -0.11449 -0.276385 -0.0733 -0.073301 -0.17272 -0.114482 -0.27638 -0.114482C4.2586 0.0127959 3.18193 -0.0410377 2.11032 0.0334867c-0.23415 0.0159931 -0.46078 0.0892433 -0.66 0.2133163 -0.19921 0.124073 -0.36491 0.29517 -0.482531 0.498261C0.798712 1.17152 0.726813 1.6303 0.757323 2.08804c0.084645 0.8992 0.238779 1.7905 0.461017 2.66591 0.00769 0.0913 0.05079 0.17596 0.12008 0.23589 0.0693 0.05994 0.1593 0.09038 0.25075 0.08482Z" stroke-width="1"></path>
  <path fill="#000000" d="M5.31746 23.0245c-0.26058 0 -0.88196 0 -1.5334 -0.0802 -0.42836 -0.0376 -0.85363 -0.1046 -1.27282 -0.2005l-0.31069 -0.0601c-0.06014 0 -0.0902 0 -0.07016 -0.0702 -0.11337 -0.3527 -0.16755 -0.7219 -0.16035 -1.0924v-2.2349c-0.01395 -0.0816 -0.05631 -0.1557 -0.11958 -0.2091 -0.06328 -0.0533 -0.1434 -0.0826 -0.22619 -0.0826s-0.16291 0.0293 -0.22619 0.0826c-0.06328 0.0534 -0.10563 0.1275 -0.11958 0.2091 -0.22224 0.8754 -0.376374 1.7667 -0.461019 2.6659 -0.043794 0.44 0.007474 0.8844 0.150334 1.3029 0.113825 0.1978 0.273245 0.3656 0.465005 0.4893 0.19175 0.1238 0.4103 0.2 0.63744 0.2222 1.07825 0.0762 2.16175 0.0223 3.22715 -0.1603 0.10367 0 0.20308 -0.0412 0.27639 -0.1145 0.0733 -0.0733 0.11448 -0.1727 0.11448 -0.2764 0 -0.1036 -0.04118 -0.2031 -0.11448 -0.2764 -0.07331 -0.0733 -0.17272 -0.1144 -0.27639 -0.1144h0.02005Z" stroke-width="1"></path>
  <path fill="#000000" d="M18.667 0.975564c0.2606 0 0.882 0 1.5334 0.080176 0.4284 0.03763 0.8537 0.1046 1.2728 0.20045l0.3107 0.06013c0.0602 0 0.0902 0 0.0702 0.07016 0.1134 0.35279 0.1675 0.72192 0.1603 1.09242v2.23495c0.014 0.08161 0.0563 0.15565 0.1196 0.20903 0.0633 0.05339 0.1434 0.08267 0.2262 0.08267 0.0828 0 0.1629 -0.02928 0.2262 -0.08267 0.0633 -0.05338 0.1056 -0.12742 0.1196 -0.20903 0.2222 -0.87541 0.3764 -1.76671 0.461 -2.66591 0.0438 -0.44005 -0.0075 -0.88437 -0.1503 -1.302887 -0.1139 -0.19782 -0.2733 -0.365595 -0.465 -0.489365 -0.1918 -0.123769 -0.4103 -0.1999531 -0.6375 -0.2222117 -1.0782 -0.0761329 -2.1617 -0.0222945 -3.2271 0.1603557 -0.0514 0 -0.1022 0.01011 -0.1496 0.029753 -0.0474 0.019643 -0.0905 0.048434 -0.1268 0.084729s-0.0651 0.079384 -0.0847 0.126806c-0.0197 0.047422 -0.0298 0.098249 -0.0298 0.149578 0 0.051329 0.0101 0.102156 0.0298 0.149578 0.0196 0.047422 0.0484 0.090511 0.0847 0.126806 0.0363 0.036296 0.0794 0.065087 0.1268 0.084729 0.0474 0.019643 0.0982 0.029753 0.1496 0.029753h-0.0201Z" stroke-width="1"></path>
  <path fill="#000000" d="M22.3953 18.9253c-0.0448 0.0026 -0.0886 0.014 -0.129 0.0335 -0.0404 0.0195 -0.0765 0.0468 -0.1063 0.0804 -0.0298 0.0335 -0.0527 0.0725 -0.0673 0.1149 -0.0147 0.0424 -0.0208 0.0873 -0.0181 0.132v2.235c-0.0122 0.3739 -0.0867 0.7431 -0.2205 1.0924 0 0 0 0.0501 -0.0702 0.0702l-0.3107 0.0601c-0.4192 0.0958 -0.8444 0.1628 -1.2728 0.2004 -0.6514 0.0602 -1.2728 0.0702 -1.5334 0.0802 -0.1036 0 -0.2031 0.0412 -0.2764 0.1145 -0.0733 0.0733 -0.1144 0.1727 -0.1144 0.2764 0 0.1037 0.0411 0.2031 0.1144 0.2764 0.0733 0.0733 0.1728 0.1145 0.2764 0.1145 1.0654 0.1826 2.1489 0.2364 3.2272 0.1603 0.2271 -0.0222 0.4457 -0.0984 0.6374 -0.2222 0.1918 -0.1238 0.3512 -0.2915 0.465 -0.4894 0.1828 -0.4233 0.2684 -0.8822 0.2506 -1.3429 -0.0847 -0.8992 -0.2388 -1.7905 -0.461 -2.666 -0.0038 -0.047 -0.017 -0.0928 -0.0388 -0.1347 -0.0219 -0.0418 -0.0519 -0.0788 -0.0884 -0.1088 -0.0365 -0.0299 -0.0787 -0.0522 -0.124 -0.0655 -0.0453 -0.0132 -0.0928 -0.0172 -0.1397 -0.0117Z" stroke-width="1"></path>
</svg>