<svg xmlns="http://www.w3.org/2000/svg" fill="none" viewBox="0 0 24 24" id="View-Eye-Off--Streamline-Freehand">
  <desc>
    View Eye Off Streamline Icon: https://streamlinehq.com
  </desc>
  <path fill="#000000" d="M1.41854 15.1239c0.21826 0.3032 0.46211 0.5871 0.72886 0.8486 0.06729 0.0505 0.15054 0.075 0.23444 0.0691 0.08391 -0.006 0.16285 -0.042 0.22233 -0.1015 0.05948 -0.0595 0.09551 -0.1384 0.10148 -0.2224 0.00596 -0.0839 -0.01854 -0.1671 -0.06902 -0.2344 -0.2321 -0.2468 -0.44568 -0.5105 -0.639 -0.7888 -0.27956 -0.4293 -0.52917 -0.8786 -0.77878 -1.3279 -0.08986 -0.1597 -0.18971 -0.3295 -0.269581 -0.4992 -0.054973 -0.1117 -0.082363 -0.235 -0.079875 -0.3594l0.369426 -0.5292 1.17816 -1.5776c1.05545 -1.2279 2.30306 -2.27657 3.69423 -3.10511 1.35145 -0.88795 2.85915 -1.51136 4.44309 -1.83713 0.6589 -0.11602 1.3282 -0.16286 1.9968 -0.13978 0.6911 0.03331 1.3769 0.13702 2.0468 0.30952 0.0782 0.02169 0.1616 0.01188 0.2326 -0.02733 0.0709 -0.03921 0.1237 -0.10468 0.1469 -0.18235 0.0121 -0.03866 0.0163 -0.07939 0.0122 -0.11971 -0.0041 -0.04032 -0.0163 -0.0794 -0.0359 -0.11487 -0.0196 -0.03547 -0.0462 -0.0666 -0.0781 -0.09149 -0.032 -0.02489 -0.0687 -0.04304 -0.1079 -0.05333 -1.4166 -0.45655 -2.9121 -0.61629 -4.3932 -0.46927 -1.72447 0.23859 -3.38041 0.83365 -4.86236 1.74727 -1.50744 0.89466 -2.83752 2.0589 -3.92387 3.43464L0.440065 11.4696c-0.130589 0.1822 -0.24422 0.3761 -0.33947 0.5791 -0.0577096 0.1258 -0.09156453 0.2612 -0.099843929 0.3993 -0.007180361 0.2267 0.037201229 0.452 0.129796929 0.659 0.116792 0.2355 0.250257 0.4624 0.399376 0.679 0.289548 0.4493 0.569116 0.9085 0.888616 1.3379Z" stroke-width="1"></path>
  <path fill="#000000" d="M9.72555 9.51267c0.49455 -0.28816 1.02495 -0.50973 1.57755 -0.65897 0.2691 -0.07849 0.5425 -0.14183 0.8187 -0.1897 0.1658 -0.02008 0.3334 -0.02008 0.4992 0 0.0805 0.01194 0.1624 -0.00724 0.2292 -0.05361 0.0668 -0.04638 0.1134 -0.11647 0.1303 -0.196 0.0148 -0.07933 -0.002 -0.1613 -0.0468 -0.22844 -0.0447 -0.06714 -0.1139 -0.11415 -0.1929 -0.131 -0.2164 -0.0476 -0.4374 -0.07104 -0.6589 -0.06989 -0.3095 0 -0.6091 0 -0.9186 0.0599 -0.6894 0.04331 -1.36555 0.20897 -1.99688 0.48924 -0.61632 0.28691 -1.16178 0.70623 -1.5975 1.22808 -0.4477 0.53132 -0.76265 1.16152 -0.91889 1.83862 -0.15624 0.677 -0.14928 1.3815 0.02029 2.0553 0.00609 0.0448 0.02107 0.0879 0.04405 0.1268 0.02297 0.0389 0.05349 0.0729 0.08976 0.0999 0.03627 0.0269 0.07756 0.0464 0.12145 0.0572 0.04389 0.0108 0.08949 0.0127 0.13413 0.0056 0.09128 -0.0147 0.17301 -0.065 0.22728 -0.1398 0.05427 -0.0749 0.07666 -0.1682 0.06227 -0.2595 -0.0521 -0.5479 0.01755 -1.1005 0.20397 -1.6184 0.18641 -0.5178 0.48499 -0.988 0.87435 -1.377 0.37638 -0.4111 0.81424 -0.76138 1.29797 -1.03833Z" stroke-width="1"></path>
  <path fill="#000000" d="M18.1424 7.7554c0.3694 0.22965 1.308 0.77879 1.4777 0.90859 0.4735 0.37127 0.9237 0.7714 1.3479 1.19812 0.4126 0.41939 0.7962 0.86639 1.1482 1.33789 0.245 0.3175 0.4685 0.6511 0.669 0.9985 0.1103 0.1714 0.1787 0.3663 0.1997 0.5691 -0.0008 0.1575 -0.042 0.3123 -0.1199 0.4493 -0.1046 0.1967 -0.2213 0.3867 -0.3494 0.5691 -0.2577 0.4022 -0.5518 0.7798 -0.8786 1.1282 -0.5261 0.5345 -1.0828 1.0379 -1.6674 1.5077 -0.255 0.229 -0.5289 0.4361 -0.8188 0.619 -0.4592 0.2995 -0.9485 0.5591 -1.4277 0.8187 -0.4793 0.2596 -1.1782 0.659 -1.7872 0.9386 -0.3864 0.1905 -0.787 0.3507 -1.1982 0.4792 -1.1071 0.3195 -2.2524 0.4874 -3.4046 0.4992 -1.1631 0.0215 -2.32403 -0.106 -3.45465 -0.3794 -0.1968 -0.0489 -0.38764 -0.1192 -0.56911 -0.2097 -0.47925 -0.2196 -0.92855 -0.5191 -1.39782 -0.7388 -0.08209 -0.0397 -0.17659 -0.0452 -0.26273 -0.0152 -0.08613 0.0299 -0.15683 0.0929 -0.19655 0.175 -0.03972 0.082 -0.04521 0.1765 -0.01525 0.2627 0.02996 0.0861 0.09291 0.1568 0.175 0.1965 0.45928 0.2397 0.89859 0.5592 1.36786 0.7988 0.22425 0.1136 0.45814 0.2072 0.69891 0.2796 1.1863 0.3394 2.41084 0.5273 3.64434 0.5591 1.2471 0.0352 2.4932 -0.0992 3.7042 -0.3994 0.4664 -0.1282 0.9234 -0.2883 1.3678 -0.4792 0.649 -0.2796 1.2581 -0.6191 1.8771 -0.9486 0.5166 -0.2607 1.0198 -0.5473 1.5077 -0.8586 0.3518 -0.2158 0.6857 -0.4595 0.9984 -0.7289 0.5901 -0.5168 1.147 -1.0704 1.6674 -1.6574 0.3738 -0.4031 0.7081 -0.8411 0.9984 -1.308 0.1703 -0.2803 0.3172 -0.5742 0.4393 -0.8786 0.0957 -0.2547 0.1332 -0.5276 0.1099 -0.7987 -0.044 -0.357 -0.1705 -0.6989 -0.3694 -0.9985 -0.2403 -0.3501 -0.5038 -0.6836 -0.7888 -0.9984 -0.3986 -0.4871 -0.8324 -0.9443 -1.298 -1.36788 -0.4611 -0.42155 -0.9443 -0.81816 -1.4477 -1.18815l-1.4178 -0.81872 -0.5292 0.47925Z" stroke-width="1"></path>
  <path fill="#000000" d="M18.6716 7.27614h0.0599l4.9223 -4.55289c0.064 -0.06532 0.0999 -0.15314 0.0999 -0.24461s-0.0359 -0.1793 -0.0999 -0.24462c-0.0665 -0.06176 -0.1539 -0.09608 -0.2446 -0.09608 -0.0908 0 -0.1781 0.03432 -0.2446 0.09608l-7.1089 6.0206c-0.9086 0.75881 -1.8172 1.49766 -2.7357 2.24648 -1.3679 1.1183 -2.7458 2.2265 -4.11362 3.3548 -0.99844 0.8087 -1.99688 1.6274 -2.91545 2.4461 -1.37785 1.1782 -2.72574 2.4163 -4.12356 3.5844 -0.58908 0.4993 -1.198126 0.9985 -1.807175 1.4478 -0.051254 0.0515 -0.082768 0.1193 -0.089025 0.1917 -0.006257 0.0724 0.013142 0.1446 0.054801 0.2042 0.041658 0.0595 0.102922 0.1024 0.173066 0.1213s0.144699 0.0125 0.210612 -0.018c0.648991 -0.4493 1.287991 -0.8686 1.907021 -1.3878 1.44774 -1.1083 2.85554 -2.2665 4.29329 -3.3748 0.40936 -0.3195 4.79254 -3.7441 5.99064 -4.7126 0.8587 -0.6989 3.0652 -2.60592 3.0652 -2.60592 0.2696 -0.22965 0.5392 -0.45929 0.7988 -0.69891l1.3978 -1.29798 0.5092 -0.47925Z" stroke-width="1"></path>
  <path fill="#000000" d="M15.9059 11.2799c0.0891 0.3487 0.1128 0.7109 0.0699 1.0683 -0.041 0.3768 -0.1213 0.7482 -0.2396 1.1083 -0.1979 0.5967 -0.4986 1.1543 -0.8886 1.6474 -0.3651 0.4872 -0.8408 0.8808 -1.3878 1.1482 -0.8332 0.385 -1.7695 0.4867 -2.6659 0.2895 -0.4321 -0.0794 -0.85403 -0.2066 -1.258 -0.3794 -0.51919 -0.3195 -1.17816 0.1997 -0.64899 0.5292 0.53155 0.3277 1.10619 0.5798 1.70729 0.7488 1.113 0.3263 2.3025 0.2772 3.3848 -0.1397 0.7149 -0.341 1.3329 -0.8559 1.7972 -1.4977 0.4515 -0.622 0.774 -1.3282 0.9485 -2.0768 0.1289 -0.5257 0.186 -1.0664 0.1697 -1.6074 -0.0152 -0.3754 -0.0893 -0.746 -0.2197 -1.0983l-0.2595 -0.4693c-0.4394 -0.62901 -0.8687 0.0599 -0.6091 0.4992l0.0998 0.2297Z" stroke-width="1"></path>
</svg>