<svg xmlns="http://www.w3.org/2000/svg" fill="none" viewBox="0 0 24 24" id="Wireless-Wifi-Signal-Antenna--Streamline-Freehand">
  <desc>
    Wireless Wifi Signal Antenna Streamline Icon: https://streamlinehq.com
  </desc>
  <path fill="#000000" fill-rule="evenodd" d="M22.6056 6.4921c-1.3574 -2.7535 -3.7268 -4.87558 -6.6127 -5.922431 -1.7776 -0.5564221 -3.6571 -0.707755 -5.5008 -0.442891C8.64846 0.391641 6.88751 1.06598 5.3385 2.1003 3.79993 3.14524 2.52663 4.53502 1.62001 6.15895 0.713389 7.78288 0.198503 9.59608 0.116362 11.4541 0.0250573 12.85 0.222583 14.2497 0.6966 15.5658c0.47287 1.3051 1.21217 2.4976 2.17089 3.5015 0.05779 0.0556 0.13488 0.0867 0.21509 0.0867s0.1573 -0.0311 0.21509 -0.0867c0.02873 -0.028 0.05158 -0.0615 0.06718 -0.0984 0.01559 -0.0369 0.02363 -0.0766 0.02363 -0.1167s-0.00804 -0.0798 -0.02363 -0.1168c-0.0156 -0.0369 -0.03845 -0.0704 -0.06718 -0.0983 -0.87865 -0.9544 -1.54069 -2.0874 -1.9408 -3.3214C0.970411 14.0915 0.844326 12.8 0.986719 11.5242 1.10809 9.81834 1.62287 8.16381 2.4907 6.69023c0.86783 -1.47357 2.06513 -2.72615 3.49807 -3.65955 1.41438 -0.93412 3.01815 -1.54329 4.69603 -1.78373 1.6779 -0.24044 3.3882 -0.10617 5.0079 0.39316 2.6293 0.93635 4.7969 2.84954 6.0525 5.34219 1.2915 2.45997 1.6265 5.311 0.9404 8.0033 -0.155 0.5773 -0.3522 1.1424 -0.5902 1.6907 -0.2451 0.5441 -0.5363 1.0662 -0.8704 1.5606 -0.0263 0.0372 -0.0449 0.0793 -0.0546 0.1238 -0.0098 0.0446 -0.0104 0.0906 -0.002 0.1354 0.0084 0.0448 0.0257 0.0874 0.0509 0.1254 0.0252 0.038 0.0577 0.0705 0.0958 0.0956 0.0364 0.0261 0.0777 0.0445 0.1214 0.0541 0.0438 0.0096 0.089 0.0103 0.133 0.0018 0.044 -0.0084 0.0858 -0.0257 0.1229 -0.0508 0.0371 -0.0251 0.0687 -0.0574 0.0928 -0.0951 0.3847 -0.5175 0.7197 -1.0702 1.0005 -1.6507 0.2711 -0.5757 0.4985 -1.1709 0.6802 -1.7807 0.8041 -2.9074 0.4974 -6.00993 -0.8603 -8.7036Z" clip-rule="evenodd" stroke-width="1"></path>
  <path fill="#000000" fill-rule="evenodd" d="M14.9925 3.91105c-1.2741 -0.40801 -2.6238 -0.52366 -3.9488 -0.33834 -1.32491 0.18532 -2.59106 0.66684 -3.70434 1.40878 -1.10113 0.74927 -2.01013 1.74756 -2.65325 2.91387 -0.64312 1.16631 -1.00226 2.46784 -1.04827 3.79884 -0.11822 1.69 0.35967 3.3679 1.35056 4.742 0.04785 0.0631 0.11803 0.1055 0.19616 0.1186 0.07813 0.013 0.15828 -0.0044 0.22401 -0.0486 0.06591 -0.0481 0.11021 -0.1202 0.12332 -0.2007 0.01311 -0.0805 -0.00604 -0.163 -0.05329 -0.2295 -0.85411 -1.255 -1.23683 -2.7717 -1.08044 -4.2817 0.11196 -1.1796 0.4942 -2.31757 1.11704 -3.32557 0.62285 -1.008 1.46955 -1.85895 2.47443 -2.48683 0.97221 -0.65122 2.07677 -1.07872 3.23407 -1.25171 1.1573 -0.17299 2.3385 -0.08716 3.4587 0.2513 1.8225 0.62139 3.3349 1.9223 4.2217 3.63149 0.9218 1.71932 1.168 3.72092 0.6903 5.61232 -0.08 0.2801 -0.1601 0.5602 -0.2701 0.8403 -0.109 0.2765 -0.2326 0.547 -0.3702 0.8104 -0.0429 0.0811 -0.0523 0.1758 -0.0261 0.2637 0.0262 0.0879 0.0859 0.1621 0.1662 0.2065 0.0796 0.0424 0.1728 0.0515 0.2591 0.0252 0.0863 -0.0262 0.1586 -0.0857 0.2011 -0.1653 0.16 -0.2901 0.3001 -0.5802 0.4301 -0.8704 0.123 -0.2975 0.2298 -0.6014 0.3202 -0.9103 0.6075 -2.0794 0.4111 -4.3113 -0.5502 -6.2526 -0.9737 -1.98504 -2.6815 -3.51341 -4.762 -4.26175Z" clip-rule="evenodd" stroke-width="1"></path>
  <path fill="#000000" fill-rule="evenodd" d="M13.992 7.32246c-0.9665 -0.33405 -2.0094 -0.37924 -3.0012 -0.13005 -0.6435 0.15105 -1.25389 0.41893 -1.80072 0.79032 -0.6762 0.47558 -1.22881 1.10603 -1.61169 1.83871 -0.38287 0.73266 -0.5849 1.54636 -0.58922 2.37306 -0.00271 0.0394 0.00239 0.079 0.01501 0.1164 0.01262 0.0375 0.03251 0.0721 0.05854 0.1018 0.02603 0.0298 0.05768 0.0541 0.09312 0.0716 0.03545 0.0174 0.07401 0.0277 0.11345 0.0303 0.03891 0.0041 0.07826 0.0003 0.11567 -0.0111 0.03741 -0.0115 0.07211 -0.0304 0.10201 -0.0557 0.02991 -0.0252 0.0544 -0.0562 0.07201 -0.0912 0.01761 -0.0349 0.02796 -0.0731 0.03044 -0.1121 0.08042 -0.6878 0.31806 -1.3478 0.69451 -1.9289 0.37646 -0.5812 0.88162 -1.06792 1.47638 -1.4225 0.46249 -0.27212 0.96579 -0.46803 1.49059 -0.58023 0.7709 -0.19686 1.5812 -0.17608 2.341 0.06002 0.7864 0.25186 1.4819 0.72829 2.0008 1.37056 0.5431 0.66545 0.8896 1.46925 1.0004 2.32095 0.0038 0.0447 0.0164 0.0883 0.0371 0.1281 0.0206 0.0399 0.049 0.0752 0.0834 0.1041 0.0344 0.0288 0.0742 0.0505 0.117 0.0639 0.0429 0.0134 0.088 0.0182 0.1327 0.014 0.0452 -0.0024 0.0894 -0.0141 0.13 -0.0343 0.0405 -0.0202 0.0764 -0.0486 0.1055 -0.0833s0.0507 -0.0751 0.0636 -0.1185c0.0128 -0.0435 0.0165 -0.0891 0.011 -0.134 -0.0637 -1.0092 -0.4104 -1.98 -1.0004 -2.80117 -0.5658 -0.83125 -1.3571 -1.48373 -2.281 -1.88077Z" clip-rule="evenodd" stroke-width="1"></path>
  <path fill="#000000" fill-rule="evenodd" d="M16.0529 22.5287c-0.1301 -0.3902 -0.2601 -0.7904 -0.3702 -1.1905 -0.11 -0.4002 -0.21 -0.8004 -0.2901 -1.1905 -0.4046 -1.8508 -0.9224 -3.675 -1.5506 -5.4623 -0.2432 -0.6896 -0.5798 -1.3426 -1.0004 -1.9408 0.0726 -0.0093 0.1434 -0.0295 0.2101 -0.06 0.1078 -0.0372 0.2091 -0.0912 0.3001 -0.16 0.3046 -0.1959 0.5229 -0.5007 0.6103 -0.8521 0.0874 -0.3515 0.0373 -0.723 -0.1401 -1.0387 -0.1709 -0.3213 -0.4427 -0.5776 -0.7734 -0.72946 -0.3308 -0.15183 -0.7023 -0.1908 -1.0574 -0.1109 -0.1372 0.02899 -0.2689 0.07964 -0.3901 0.15006 -0.1577 0.0861 -0.3025 0.1938 -0.4302 0.3201l-0.3802 0.4702c-0.1071 0.1752 -0.1736 0.3723 -0.1944 0.5766 -0.0207 0.2043 0.0047 0.4107 0.0744 0.6039 0.1666 0.3551 0.4439 0.6465 0.7903 0.8303 -0.2143 0.3228 -0.4113 0.6568 -0.5902 1.0005 -0.0901 0.22 -0.5102 0.9303 -1.00043 1.8907 -0.84717 1.5374 -1.60864 3.1205 -2.28094 4.742 -0.49805 1.0101 -0.74513 2.1254 -0.7203 3.2513 0.01869 0.0719 0.06335 0.1343 0.12536 0.1751 0.06201 0.0409 0.13696 0.0573 0.21037 0.0461 0.07341 -0.0112 0.14007 -0.0492 0.18708 -0.1067 0.047 -0.0575 0.07103 -0.1304 0.06744 -0.2045 -0.01937 -0.1662 -0.01937 -0.3341 0 -0.5002 0 0 -0.06003 0 0.80033 -0.5503l1.54063 -1.0604c0.50016 -0.3601 1.00036 -0.7203 1.47056 -1.1305 0.2101 -0.17 0.4102 -0.3601 0.6103 -0.5502 0.2838 0.3007 0.588 0.5815 0.9104 0.8404 0.5596 0.4045 1.1407 0.7785 1.7407 1.1204l0.5602 0.4702 0.1 0.1201 0.1801 0.5002c0.0701 0.16 0.2101 0.6702 0.2701 0.8603l0.0601 0.1401c0.02 0.0499 0.0523 0.0939 0.0938 0.128 0.0416 0.0342 0.091 0.0573 0.1439 0.0672 0.0528 0.01 0.1073 0.0065 0.1584 -0.0101 0.0511 -0.0167 0.0972 -0.0459 0.1341 -0.0851 0.0382 -0.0315 0.0689 -0.0713 0.0897 -0.1163 0.0208 -0.0451 0.0311 -0.0942 0.0303 -0.1438 0 0 -0.2701 -1.0304 -0.3001 -1.1104Zm-3.7715 -11.6248c0.1252 -0.0461 0.2619 -0.0505 0.3899 -0.0126 0.128 0.0378 0.2403 0.1159 0.3203 0.2227 0.4802 0.7003 -0.6702 1.1204 -0.6902 1.1204 -0.02 0 -0.4202 0 -0.6703 -0.5202 -0.1301 -0.3001 0.3601 -0.6402 0.6503 -0.8103Zm-0.2902 3.2613s0.0901 -0.2701 0.1801 -0.4902l0.1 0.1701c0.3286 0.6482 0.6159 1.3165 0.8604 2.0008 0.1801 0.4702 0.3501 1.0004 0.5202 1.4606l-0.8103 0.5002 -0.8204 0.5402c-0.2418 -0.2246 -0.4992 -0.4319 -0.7703 -0.6202 -0.2112 -0.147 -0.4356 -0.2743 -0.6702 -0.3802l-0.3002 -0.2c0.2001 -0.3302 0.3902 -0.6603 0.5703 -0.9504 0.5502 -1.0205 0.9904 -1.7908 1.1404 -2.0309Zm-2.84113 6.4227 -1.35055 1.3105c0.15006 -0.3902 0.32013 -0.8103 0.53021 -1.2505 0.45019 -1.0004 1.00041 -2.0008 1.57065 -2.9212l0.32012 0.2701c0.212 0.1362 0.4068 0.2974 0.5802 0.4802 0.1315 0.1363 0.2551 0.2799 0.3702 0.4302l-0.2501 0.1801c-0.6203 0.5002 -1.18049 1.0204 -1.77073 1.5006Zm3.58143 -1.6007 0.5803 -0.5102 0.5502 -0.4502c0.3201 1.0004 0.5702 1.8308 0.6903 2.311l0.12 0.3701 -1.9408 -1.7207Z" clip-rule="evenodd" stroke-width="1"></path>
</svg>