<svg xmlns="http://www.w3.org/2000/svg" fill="none" viewBox="0 0 41 41" id="Wand--Streamline-Stickies">
  <desc>
    Wand Streamline Icon: https://streamlinehq.com
  </desc>
  <path fill="#ffe236" stroke="#231f20" stroke-miterlimit="10" d="M39.44 22.18c-0.5935 -1.6187 -1.3863 -3.1572 -2.36 -4.58 -0.7248 -1.0799 -1.5269 -2.1059 -2.4 -3.07 0.4894 -1.118 0.8939 -2.2712 1.21 -3.45 0.4859 -1.65244 0.7647 -3.35883 0.83 -5.08 -0.0196 -0.50125 -0.2268 -0.97684 -0.5806 -1.33248 -0.3538 -0.35563 -0.8283 -0.56533 -1.3294 -0.58752 -1.7247 0.06974 -3.4343 0.35187 -5.09 0.84 -1.1731 0.33201 -2.3224 0.74295 -3.44 1.23 -0.9177 -0.81353 -1.8936 -1.55885 -2.92 -2.23 -1.4244 -0.97369 -2.9625 -1.76959 -4.58 -2.37 -0.4828 -0.13413 -0.9983 -0.08217 -1.4446 0.14561 -0.4463 0.22777 -0.7908 0.61475 -0.9654 1.08439 -0.4725 1.66064 -0.7345 3.37405 -0.78 5.1 -0.0462 1.23795 -0.0061 2.4776 0.12 3.71 -1.1496 0.6431 -2.2404 1.386 -3.26 2.22 -1.3666 1.0523 -2.59907 2.268 -3.67 3.62 -0.27851 0.4189 -0.38892 0.9274 -0.30923 1.4241 0.0797 0.4967 0.34364 0.9451 0.73923 1.2559 0.8032 0.5725 1.6646 1.0585 2.57 1.45 -1.95951 1.4934 -3.80158 3.1349 -5.51 4.91C3.77 29 0.579996 32.39 0.559996 33.67c-0.33 1 0.700004 3.28 2.090004 4.67 1.39 1.39 3.72 2.43 4.68 2.1 1.27 0 4.71 -3.21 7.2 -5.71 1.7485 -1.6843 3.3696 -3.4959 4.85 -5.42 0.3537 0.8099 0.7965 1.578 1.32 2.29 0.3118 0.3913 0.759 0.6515 1.2533 0.7293 0.4943 0.0777 0.9998 -0.0326 1.4167 -0.3093 1.3585 -1.0632 2.578 -2.2928 3.63 -3.66 0.797 -0.9823 1.5159 -2.0255 2.15 -3.12 1.3271 0.1584 2.6654 0.2019 4 0.13 1.7255 -0.0507 3.4382 -0.3127 5.1 -0.78 0.4623 -0.1821 0.8402 -0.5298 1.0602 -0.9753 0.22 -0.4455 0.2662 -0.9569 0.1298 -1.4347Z" stroke-width="1"></path>
  <path fill="#ffe236" d="M15.39 22.87c0.685 0.2651 1.3865 0.4856 2.1 0.66 0.1965 0.7249 0.4301 1.4391 0.7 2.14" stroke-width="1"></path>
  <path stroke="#231f20" stroke-linecap="round" stroke-miterlimit="10" d="M15.39 22.87c0.685 0.2651 1.3865 0.4856 2.1 0.66 0.1965 0.7249 0.4301 1.4391 0.7 2.14" stroke-width="1"></path>
  <path stroke="#ffffff" stroke-linecap="round" stroke-miterlimit="10" d="M19.63 4.53c0.9604 0.38926 1.8391 0.95578 2.59 1.67" stroke-width="1"></path>
</svg>