<svg xmlns="http://www.w3.org/2000/svg" fill="none" viewBox="0 0 24 24" id="Line-Arrow-Expand--Streamline-Sharp-Gradient-Free">
  <desc>
    Line Arrow Expand Streamline Icon: https://streamlinehq.com
  </desc>
  <g id="Gradient/Interface Essential/line-arrow-expand--expand-small-bigger-retract-smaller-big">
    <g id="Union">
      <path fill="url(#paint0_linear_644_10849)" d="M14 23h9v-9h-3v3.8787l-4.9393-4.9394-2.1214 2.1214L17.8787 20 14 20v3Z"></path>
      <path fill="url(#paint1_linear_644_10849)" d="m6.12132 4 4.93938 4.93934-2.12136 2.12136L4 6.12132 4 10H1l0-9 9 0v3L6.12132 4Z"></path>
      <path fill="url(#paint2_linear_644_10849)" d="m14 1 9 0 0 9h-3V6.12132l-4.9393 4.93938-2.1214-2.12136L17.8787 4 14 4V1Z"></path>
      <path fill="url(#paint3_linear_644_10849)" d="m10 23-9 0 0-9h3v3.8787l4.93934-4.9394 2.12136 2.1214L6.12132 20H10v3Z"></path>
    </g>
  </g>
  <defs>
    <linearGradient id="paint0_linear_644_10849" x1="22.926" x2="-3.127" y1="23.005" y2="8.349" gradientUnits="userSpaceOnUse">
      <stop stop-color="#ff51e3"></stop>
      <stop offset="1" stop-color="#1b4dff"></stop>
    </linearGradient>
    <linearGradient id="paint1_linear_644_10849" x1="22.926" x2="-3.127" y1="23.005" y2="8.349" gradientUnits="userSpaceOnUse">
      <stop stop-color="#ff51e3"></stop>
      <stop offset="1" stop-color="#1b4dff"></stop>
    </linearGradient>
    <linearGradient id="paint2_linear_644_10849" x1="22.926" x2="-3.127" y1="23.005" y2="8.349" gradientUnits="userSpaceOnUse">
      <stop stop-color="#ff51e3"></stop>
      <stop offset="1" stop-color="#1b4dff"></stop>
    </linearGradient>
    <linearGradient id="paint3_linear_644_10849" x1="22.926" x2="-3.127" y1="23.005" y2="8.349" gradientUnits="userSpaceOnUse">
      <stop stop-color="#ff51e3"></stop>
      <stop offset="1" stop-color="#1b4dff"></stop>
    </linearGradient>
  </defs>
</svg>