<svg xmlns="http://www.w3.org/2000/svg" fill="none" viewBox="0 0 24 24" id="Non-Commercial-Dollars--Streamline-Sharp-Gradient-Free">
  <desc>
    Non Commercial Dollars Streamline Icon: https://streamlinehq.com
  </desc>
  <g id="Gradient/Interface Essential/non-commercial-dollars">
    <path id="Union" fill="url(#paint0_linear_644_11622)" fill-rule="evenodd" d="M12.0004 0C8.81793 0 5.76584 1.26422 3.51552 3.51454 1.26519 5.76486.000976562 8.81695.000976562 11.9994c0 3.1824 1.264213438 6.2345 3.514543438 8.4848 2.25032 2.2504 5.30241 3.5146 8.48488 3.5146 3.1824 0 6.2345-1.2642 8.4848-3.5146 2.2503-2.2503 3.5146-5.3024 3.5146-8.4848 0-3.18245-1.2643-6.23454-3.5146-8.48486C18.2349 1.26422 15.1828 0 12.0004 0ZM5.28328 5.28231C7.06476 3.50083 9.48097 2.5 12.0004 2.5c2.5194 0 4.9356 1.00083 6.717 2.78231 1.7815 1.78148 2.7824 4.19768 2.7824 6.71709 0 1.2562-.2489 2.4867-.7192 3.6257l-2.2913-1.3229-1.25 2.1651 2.2914 1.3229c-.2494.3243-.5208.6338-.8133.9263-1.7814 1.7815-4.1976 2.7823-6.717 2.7823-2.51943 0-4.93564-1.0008-6.71712-2.7823-1.78148-1.7815-2.7823-4.1977-2.7823-6.7171 0-1.2562.24882-2.48676.71916-3.62576L5.51243 9.6971l1.25-2.16507-2.29235-1.32349c.24939-.32428.52078-.63381.8132-.92623ZM13 4.99951v1h.5416C14.8993 5.99951 16 7.10015 16 8.45785v1.04166h-2V8.45785c0-.25314-.2052-.45834-.4584-.45834h-3.0833c-.2532 0-.4583.20519-.4583.4582l0 1.13209c0 .18687.1133.35417.2851.4242l4.0054 1.1125.0315.0087.0309.0108C15.3393 11.4909 16 12.4215 16 13.4666l0 2.0747c0 1.3578-1.1007 2.4582-2.4583 2.4582h-.5368v1h-2v-1h-.5466C9.10064 17.9995 8 16.8989 8 15.5412v-1.0417h2v1.0417c0 .2531.2052.4583.4583.4583h3.0834c.2532 0 .4583-.2052.4583-.4582l0-2.0747c0-.1869-.1134-.3542-.2851-.4243l-4.00541-1.1124-.03152-.0088-.03088-.0108C8.66072 11.5655 8.00001 10.6349 8 9.58981l0-1.13209c-.00001-1.35784 1.10076-2.45821 2.4583-2.45821H11v-1h2Z" clip-rule="evenodd"></path>
  </g>
  <defs>
    <linearGradient id="paint0_linear_644_11622" x1="26.08" x2="-6.291" y1="29.082" y2="6.087" gradientUnits="userSpaceOnUse">
      <stop stop-color="#ffd600"></stop>
      <stop offset="1" stop-color="#ff007a"></stop>
    </linearGradient>
  </defs>
</svg>