<svg xmlns="http://www.w3.org/2000/svg" fill="none" viewBox="0 0 24 24" id="User-Work-Laptop-Wifi--Streamline-Sharp-Gradient-Free">
  <desc>
    User Work Laptop Wifi Streamline Icon: https://streamlinehq.com
  </desc>
  <g id="Gradient/Interface Essential/user-work-laptop-wifi--geometric-work-laptop-wifi-person-single-user">
    <path id="Union" fill="url(#paint0_linear_644_12405)" fill-rule="evenodd" d="M4.9998 2c-1.2553 0-2.4094.55453-3.26194 1.48707L.261749 2.13759C1.45659.830629 3.13092 0 4.9998 0c1.86889 0 3.54322.830629 4.73806 2.13759L8.26175 3.48707C7.40921 2.55453 6.25511 2 4.9998 2Zm-.00006 3.09375c-.47426 0-.92125.20824-1.26194.5809L2.26169 4.32517c.68299-.74708 1.65022-1.23142 2.73805-1.23142 1.08784 0 2.05506.48434 2.73806 1.23142L6.26169 5.67465c-.3407-.37266-.78769-.5809-1.26195-.5809Zm5.00096 1.90541C10.0007 4.2382 12.2389 2 14.9998 2c2.761 0 4.9992 2.2382 4.9992 4.99916s-2.2382 4.99914-4.9992 4.99914c-2.7609 0-4.9991-2.23818-4.9991-4.99914ZM11.0639 13H.00439453L2.21578 22H17.9998v-2h-5.216l-1.7199-7Zm12.9359 9h-4v-4h-5.6479l-1.2067-4.9109c.5813-.0581 1.1995-.0908 1.8546-.0908 2.8136 0 4.9472.6037 6.3939 1.2237.7222.3095 1.2711.6221 1.6469.8637.1879.1208.3326.2239.4342.3001.0508.0381.0909.0695.1202.093.0146.0118.0266.0216.0358.0293l.0119.01.0045.0037.0018.0016.0009.0007c.0003.0003.0007.0006-.6501.7599l.6508-.7593.3492.2994V22Z" clip-rule="evenodd"></path>
  </g>
  <defs>
    <linearGradient id="paint0_linear_644_12405" x1="23.919" x2="-3.258" y1="22.005" y2="5.33" gradientUnits="userSpaceOnUse">
      <stop stop-color="#ff51e3"></stop>
      <stop offset="1" stop-color="#1b4dff"></stop>
    </linearGradient>
  </defs>
</svg>