<svg xmlns="http://www.w3.org/2000/svg" viewBox="0 0 24 24" id="Cash-Payment-Sign-2--Streamline-Ultimate">
  <desc>
    Cash Payment Sign 2 Streamline Icon: https://streamlinehq.com
  </desc>
  <g id="Cash-Payment-Sign-2--Streamline-Ultimate.svg">
    <path d="M24 9.33a1.5 1.5 0 0 0 -1.5 -1.5h-6.57a0.31 0.31 0 0 0 -0.18 0.07l-6.34 6.34a2 2 0 0 1 -1 0.55 19.76 19.76 0 0 1 -2.89 0.54 2 2 0 0 1 -2 -2.39l0.5 -2.5a2 2 0 0 1 0.55 -1l1.18 -1.18a0.26 0.26 0 0 0 -0.18 -0.43H1.5A1.5 1.5 0 0 0 0 9.33v11a1.5 1.5 0 0 0 1.5 1.5h21a1.5 1.5 0 0 0 1.5 -1.5Zm-11.5 7.75h8a0.75 0.75 0 0 1 0 1.5h-8a0.75 0.75 0 0 1 0 -1.5Z" fill="#000000" stroke-width="1"></path>
    <path d="M5.65 10.48a0.52 0.52 0 0 0 -0.14 0.25L5 13.23a0.49 0.49 0 0 0 0.14 0.45 0.48 0.48 0 0 0 0.45 0.14l2.5 -0.5a0.48 0.48 0 0 0 0.25 -0.14l7.76 -7.75a1.91 1.91 0 0 0 -2.7 -2.7Z" fill="#000000" stroke-width="1"></path>
  </g>
</svg>