<svg xmlns="http://www.w3.org/2000/svg" viewBox="0 0 24 24" id="Coin-Purse-1--Streamline-Ultimate">
  <desc>
    Coin Purse 1 Streamline Icon: https://streamlinehq.com
  </desc>
  <g id="Coin-Purse-1--Streamline-Ultimate.svg">
    <path d="M19.43 11.2a0.5 0.5 0 0 1 -0.43 -0.49V9.63a1.5 1.5 0 0 0 -1.5 -1.5h-11A1.5 1.5 0 0 0 5 9.63v1.08a0.5 0.5 0 0 1 -0.43 0.49c-2.71 0.44 -4.59 2.89 -4.57 6a6.07 6.07 0 0 0 6.11 6h11.78a6.07 6.07 0 0 0 6.11 -6c0 -3.11 -1.86 -5.56 -4.57 -6Z" fill="#000000" stroke-width="1"></path>
    <path d="M3 8.63a1.25 1.25 0 0 0 1.25 -1.25v-0.5a0.31 0.31 0 0 1 0.34 -0.25h14.82a0.31 0.31 0 0 1 0.34 0.25v0.5a1.25 1.25 0 1 0 2.5 0v-0.5a2.79 2.79 0 0 0 -2.84 -2.75H16a0.25 0.25 0 0 1 -0.22 -0.37 2 2 0 0 0 0.22 -0.88 2 2 0 0 0 -3.79 -1A0.24 0.24 0 0 1 12 2a0.27 0.27 0 0 1 -0.22 -0.12 2 2 0 0 0 -1.78 -1 2 2 0 0 0 -2 2 2 2 0 0 0 0.21 0.88 0.25 0.25 0 0 1 -0.21 0.37H4.59a2.79 2.79 0 0 0 -2.84 2.75v0.5A1.25 1.25 0 0 0 3 8.63Z" fill="#000000" stroke-width="1"></path>
  </g>
</svg>