<svg xmlns="http://www.w3.org/2000/svg" viewBox="0 0 24 24" id="Crypto-Currency-Bitcoin-Chip--Streamline-Ultimate">
  <desc>
    Crypto Currency Bitcoin Chip Streamline Icon: https://streamlinehq.com
  </desc>
  <g id="Crypto-Currency-Bitcoin-Chip--Streamline-Ultimate.svg">
    <path d="M13.2 12.75H10a0.25 0.25 0 0 0 -0.25 0.25v1.6a0.25 0.25 0 0 0 0.25 0.25h3.2a1.05 1.05 0 1 0 0 -2.1Z" fill="#000000" stroke-width="1"></path>
    <path d="M14.25 10.2a1 1 0 0 0 -1.05 -1H10a0.25 0.25 0 0 0 -0.25 0.25V11a0.25 0.25 0 0 0 0.25 0.25h3.2a1 1 0 0 0 1.05 -1.05Z" fill="#000000" stroke-width="1"></path>
    <path d="M23 12.5a1 1 0 0 0 0 -2h-2.25a0.25 0.25 0 0 1 -0.25 -0.25v-1.5a0.25 0.25 0 0 1 0.25 -0.25H23a1 1 0 0 0 0 -2h-2.25a0.25 0.25 0 0 1 -0.25 -0.25V4.63a1.14 1.14 0 0 0 -1.13 -1.13h-1.62a0.25 0.25 0 0 1 -0.25 -0.25V1a1 1 0 0 0 -2 0v2.25a0.25 0.25 0 0 1 -0.25 0.25h-2.5a0.25 0.25 0 0 1 -0.25 -0.25V1a1 1 0 0 0 -2 0v2.25a0.25 0.25 0 0 1 -0.25 0.25h-1.5a0.25 0.25 0 0 1 -0.25 -0.25V1a1 1 0 0 0 -2 0v2.25a0.25 0.25 0 0 1 -0.25 0.25H4.63A1.14 1.14 0 0 0 3.5 4.63v1.62a0.25 0.25 0 0 1 -0.25 0.25H1a1 1 0 0 0 0 2h2.25a0.25 0.25 0 0 1 0.25 0.25v2.5a0.25 0.25 0 0 1 -0.25 0.25H1a1 1 0 0 0 0 2h2.25a0.25 0.25 0 0 1 0.25 0.25v1.5a0.25 0.25 0 0 1 -0.25 0.25H1a1 1 0 0 0 0 2h2.25a0.25 0.25 0 0 1 0.25 0.25v1.62a1.14 1.14 0 0 0 1.13 1.13h1.62a0.25 0.25 0 0 1 0.25 0.25V23a1 1 0 0 0 2 0v-2.25a0.25 0.25 0 0 1 0.25 -0.25h2.5a0.25 0.25 0 0 1 0.25 0.25V23a1 1 0 0 0 2 0v-2.25a0.25 0.25 0 0 1 0.25 -0.25h1.5a0.25 0.25 0 0 1 0.25 0.25V23a1 1 0 0 0 2 0v-2.25a0.25 0.25 0 0 1 0.25 -0.25h1.62a1.14 1.14 0 0 0 1.13 -1.13v-1.62a0.25 0.25 0 0 1 0.25 -0.25H23a1 1 0 0 0 0 -2h-2.25a0.25 0.25 0 0 1 -0.25 -0.25v-2.5a0.25 0.25 0 0 1 0.25 -0.25ZM8.25 8.4A0.76 0.76 0 0 1 9 7.65h0.2a0.25 0.25 0 0 0 0.25 -0.25v-0.8a0.75 0.75 0 1 1 1.5 0v0.8a0.25 0.25 0 0 0 0.25 0.25h1a0.25 0.25 0 0 0 0.25 -0.25v-0.8a0.75 0.75 0 1 1 1.5 0v1a0.25 0.25 0 0 0 0.16 0.23 2.54 2.54 0 0 1 1 4.07 0.15 0.15 0 0 0 0 0.2 2.54 2.54 0 0 1 -1 4.07 0.25 0.25 0 0 0 -0.16 0.23v1a0.75 0.75 0 0 1 -1.5 0v-0.8a0.25 0.25 0 0 0 -0.25 -0.25h-1a0.25 0.25 0 0 0 -0.25 0.25v0.8a0.75 0.75 0 0 1 -1.5 0v-0.8a0.25 0.25 0 0 0 -0.25 -0.25H9a0.76 0.76 0 0 1 -0.75 -0.75Z" fill="#000000" stroke-width="1"></path>
  </g>
</svg>