<svg xmlns="http://www.w3.org/2000/svg" viewBox="0 0 24 24" id="Crypto-Currency-Bitcoin-Code--Streamline-Ultimate">
  <desc>
    Crypto Currency Bitcoin Code Streamline Icon: https://streamlinehq.com
  </desc>
  <g id="Crypto-Currency-Bitcoin-Code--Streamline-Ultimate.svg">
    <path d="M6.25 19.22a0.24 0.24 0 0 0 0.24 0.24H8A1.22 1.22 0 1 0 8 17H6.49a0.24 0.24 0 0 0 -0.24 0.24Z" fill="#000000" stroke-width="1"></path>
    <path d="M7.47 8.94a7.35 7.35 0 1 0 7.34 7.34 7.34 7.34 0 0 0 -7.34 -7.34Zm-2.69 3.43a0.74 0.74 0 0 1 0.73 -0.74H6a0.25 0.25 0 0 0 0.25 -0.24 0.74 0.74 0 1 1 1.47 0 0.24 0.24 0 0 0 0.24 0.24 2.69 2.69 0 0 1 2.69 2.7 2.66 2.66 0 0 1 -0.65 1.79 0.24 0.24 0 0 0 0 0.33 2.64 2.64 0 0 1 0.69 1.79A2.68 2.68 0 0 1 8 20.93a0.25 0.25 0 0 0 -0.24 0.25 0.74 0.74 0 0 1 -1.47 0 0.25 0.25 0 0 0 -0.29 -0.25h-0.49a0.73 0.73 0 0 1 -0.73 -0.73Z" fill="#000000" stroke-width="1"></path>
    <path d="M9.19 14.33A1.23 1.23 0 0 0 8 13.1H6.49a0.25 0.25 0 0 0 -0.24 0.25v2a0.25 0.25 0 0 0 0.24 0.25H8a1.23 1.23 0 0 0 1.19 -1.27Z" fill="#000000" stroke-width="1"></path>
    <path d="M1.6 6.25a0.74 0.74 0 1 0 0 1.47h3.91a0.74 0.74 0 1 0 0 -1.47h-1A0.25 0.25 0 0 1 4.29 6V1.35a1 1 0 0 0 -1 -1 1.34 1.34 0 0 0 -0.94 0.38L1.08 2.06a0.73 0.73 0 0 0 0 1 0.75 0.75 0 0 0 1 0l0.28 -0.29a0.25 0.25 0 0 1 0.27 -0.05 0.23 0.23 0 0 1 0.19 0.28v3a0.25 0.25 0 0 1 -0.24 0.25Z" fill="#000000" stroke-width="1"></path>
    <path d="M9.43 7.72A2.7 2.7 0 0 0 12.12 5V3a2.69 2.69 0 1 0 -5.38 0v2a2.7 2.7 0 0 0 2.69 2.72ZM8.21 3.07a1.22 1.22 0 1 1 2.44 0V5a1.22 1.22 0 0 1 -2.44 0Z" fill="#000000" stroke-width="1"></path>
    <path d="M17.26 6.25h-1A0.25 0.25 0 0 1 16 6V1.35a1 1 0 0 0 -1 -1 1.32 1.32 0 0 0 -0.94 0.38l-1.29 1.3a0.73 0.73 0 0 0 0 1 0.75 0.75 0 0 0 1 0l0.28 -0.29a0.25 0.25 0 0 1 0.27 -0.05 0.23 0.23 0 0 1 0.15 0.22V6a0.25 0.25 0 0 1 -0.24 0.25h-1a0.74 0.74 0 1 0 0 1.47h3.91a0.74 0.74 0 1 0 0 -1.47Z" fill="#000000" stroke-width="1"></path>
    <path d="M21.18 0.38a2.68 2.68 0 0 0 -2.69 2.69V5a2.69 2.69 0 0 0 5.38 0V3A2.69 2.69 0 0 0 21.18 0.38ZM22.4 5A1.23 1.23 0 0 1 20 5V3a1.23 1.23 0 1 1 2.45 0Z" fill="#000000" stroke-width="1"></path>
    <path d="M23.14 14.08h-1a0.25 0.25 0 0 1 -0.25 -0.24V9.19a1 1 0 0 0 -1 -1 1.3 1.3 0 0 0 -0.93 0.38l-1.3 1.3a0.74 0.74 0 0 0 1 1l0.29 -0.29a0.23 0.23 0 0 1 0.26 -0.05 0.25 0.25 0 0 1 0.15 0.22v3a0.24 0.24 0 0 1 -0.24 0.24h-1a0.74 0.74 0 0 0 0 1.47h3.92a0.74 0.74 0 0 0 0 -1.47Z" fill="#000000" stroke-width="1"></path>
    <path d="M15.3 8.21a2.72 2.72 0 0 0 -0.69 0.09 0.73 0.73 0 0 0 -0.52 0.89 0.74 0.74 0 0 0 0.9 0.53 1.24 1.24 0 0 1 1.54 1.18v2a1.23 1.23 0 0 1 -0.17 0.62 0.73 0.73 0 0 0 0.25 1 0.75 0.75 0 0 0 0.38 0.1 0.74 0.74 0 0 0 0.63 -0.36 2.64 2.64 0 0 0 0.38 -1.4v-2a2.69 2.69 0 0 0 -2.7 -2.65Z" fill="#000000" stroke-width="1"></path>
    <path d="M17.26 21.91h-1a0.24 0.24 0 0 1 -0.24 -0.24v-0.5a0.74 0.74 0 0 0 -1.47 0v0.5a0.24 0.24 0 0 1 -0.24 0.24 0.74 0.74 0 1 0 0 1.47h3a0.74 0.74 0 1 0 0 -1.47Z" fill="#000000" stroke-width="1"></path>
    <path d="M21.18 16a2.69 2.69 0 0 0 -2.69 2.69v2a2.69 2.69 0 1 0 5.38 0v-2A2.7 2.7 0 0 0 21.18 16Zm1.22 4.65a1.23 1.23 0 0 1 -2.45 0v-2a1.23 1.23 0 0 1 2.45 0Z" fill="#000000" stroke-width="1"></path>
  </g>
</svg>