<svg xmlns="http://www.w3.org/2000/svg" viewBox="0 0 24 24" id="Saving-Dog-Guard-Decrease--Streamline-Ultimate">
  <desc>
    Saving Dog Guard Decrease Streamline Icon: https://streamlinehq.com
  </desc>
  <g id="Saving-Dog-Guard-Decrease--Streamline-Ultimate.svg">
    <path d="M24 9a0.5 0.5 0 0 0 -0.31 -0.46 0.48 0.48 0 0 0 -0.54 0.11l-1.44 1.43a0.24 0.24 0 0 1 -0.36 0l-4.56 -4.87a3.5 3.5 0 0 0 -3 -1.07l-6 0.75a0.51 0.51 0 0 1 -0.42 -0.14L3.06 0.44A1.5 1.5 0 0 0 0.94 2.56l4.31 4.31a3.49 3.49 0 0 0 2.91 1l6 -0.76a0.49 0.49 0 0 1 0.42 0.15l4.64 5a0.25 0.25 0 0 1 0 0.35l-1.58 1.59a0.47 0.47 0 0 0 -0.11 0.54 0.5 0.5 0 0 0 0.47 0.26h5.5a0.5 0.5 0 0 0 0.5 -0.5Z" fill="#000000" stroke-width="1"></path>
    <path d="M13.42 13.4a0.26 0.26 0 0 1 0 -0.15v-1.81a2.3 2.3 0 0 0 -2.19 -2.19 2.42 2.42 0 0 0 -2 1.55 0.26 0.26 0 0 1 -0.22 0.14H5.49a0.26 0.26 0 0 1 -0.22 -0.14 2.42 2.42 0 0 0 -2 -1.55 2.3 2.3 0 0 0 -2.19 2.19v1.73a0.32 0.32 0 0 1 0 0.14L1 13.4a5.7 5.7 0 0 0 -1 3.27 5.28 5.28 0 0 0 3 4.9 0.18 0.18 0 0 1 0.09 0.1A5.16 5.16 0 0 0 7.25 24a5.17 5.17 0 0 0 4.19 -2.34 0.18 0.18 0 0 1 0.07 -0.08c1.19 -0.84 2.94 -2 2.94 -4.91a5.69 5.69 0 0 0 -1 -3.27Zm-6.17 9.1A3.89 3.89 0 0 1 5 21.63a0.25 0.25 0 0 1 0.15 -0.44h1a1.81 1.81 0 0 0 1 -0.31 0.24 0.24 0 0 1 0.28 0 1.81 1.81 0 0 0 1 0.31h1a0.25 0.25 0 0 1 0.15 0.44 3.89 3.89 0 0 1 -2.33 0.87ZM5 14.19a0.75 0.75 0 1 1 -0.75 -0.75 0.76 0.76 0 0 1 0.75 0.75Zm2.25 3a0.75 0.75 0 0 0 -0.75 0.75v1.37a0.49 0.49 0 0 1 -0.38 0.38H4.83a0.23 0.23 0 0 1 -0.2 -0.11 0.23 0.23 0 0 1 0 -0.23c0.54 -1.53 1.61 -3.79 2.65 -3.79s2.11 2.24 2.66 3.79a0.23 0.23 0 0 1 0 0.23 0.23 0.23 0 0 1 -0.2 0.11H8.38a0.49 0.49 0 0 1 -0.38 -0.38v-1.37a0.75 0.75 0 0 0 -0.75 -0.75Zm3.53 -2.25a0.72 0.72 0 1 1 0.72 -0.72 0.72 0.72 0 0 1 -0.72 0.72Z" fill="#000000" stroke-width="1"></path>
  </g>
</svg>