<svg xmlns="http://www.w3.org/2000/svg" viewBox="0 0 24 24" id="Virtual-Coin-Crypto-Stellar--Streamline-Ultimate">
  <desc>
    Virtual Coin Crypto Stellar Streamline Icon: https://streamlinehq.com
  </desc>
  <path d="M12 0a12 12 0 1 0 12 12A12 12 0 0 0 12 0ZM3.81 13.79a0.75 0.75 0 0 1 0.4 -1l1.54 -0.64A6.26 6.26 0 0 1 12 5.75a6.42 6.42 0 0 1 1.8 0.25 0.75 0.75 0 1 1 -0.44 1.44A4.81 4.81 0 0 0 12 7.25a4.76 4.76 0 0 0 -4.73 4.29l11.44 -4.73a0.75 0.75 0 1 1 0.58 1.38l-14.5 6a0.75 0.75 0 0 1 -0.29 0.06 0.75 0.75 0 0 1 -0.69 -0.46Zm16 -2.6 -1.54 0.64A6.26 6.26 0 0 1 12 18.25a6 6 0 0 1 -1.64 -0.25 0.75 0.75 0 1 1 0.39 -1.45 4.71 4.71 0 0 0 1.25 0.17 4.76 4.76 0 0 0 4.73 -4.29L5.29 17.19a0.75 0.75 0 0 1 -0.29 0.06 0.75 0.75 0 0 1 -0.29 -1.44l14.5 -6a0.75 0.75 0 1 1 0.58 1.38Z" fill="#000000" stroke-width="1"></path>
</svg>