<svg xmlns="http://www.w3.org/2000/svg" fill="none" viewBox="0 0 14 14" id="Ear-Speciality--Streamline-Flex-Neon">
  <desc>
    Ear Speciality Streamline Icon: https://streamlinehq.com
  </desc>
  <g id="ear-speciality--hearing-health-medical-ear-speciality">
    <path id="Union" stroke="#c71dff" stroke-linecap="round" stroke-linejoin="round" d="M2.3457 5.17828C2.3457 2.59454 4.42947 0.5 6.99992 0.5c2.57046 0 4.65418 2.09454 4.65418 4.67828 0 1.30718 -0.5333 2.48914 -1.3932 3.338 -0.44768 0.44192 -0.7048 1.06242 -0.76504 1.68862C9.32473 11.9838 7.81318 13.5 5.93006 13.5c-1.97958 0 -3.58436 -1.6131 -3.58436 -3.60289" stroke-width="1"></path>
    <path id="Ellipse 112" stroke="#000cfe" stroke-linecap="round" stroke-linejoin="round" d="M8.80828 5.1979c0 -0.99867 -0.80958 -1.80825 -1.80825 -1.80825s-1.80826 0.80958 -1.80826 1.80825v2.00897l0.55429 0.0001c0.72586 0 1.34757 0.51973 1.47624 1.23409l0.01969 0.10932" stroke-width="1"></path>
  </g>
</svg>