<svg xmlns="http://www.w3.org/2000/svg" fill="none" viewBox="0 0 14 14" id="Nurse-Assistant-Emergency--Streamline-Flex-Neon">
  <desc>
    Nurse Assistant Emergency Streamline Icon: https://streamlinehq.com
  </desc>
  <g id="nurse-assistant-emergency">
    <path id="Subtract" stroke="#c71dff" stroke-linecap="round" d="M4.88279 11.21H2.23108c-1.528256 0 -2.38715 -1.63397 -1.11519 -2.48114C2.25682 7.96898 3.627 7.52612 5.10062 7.52612c0.23398 0 0.46534 0.01117 0.6936 0.03299" stroke-width="1"></path>
    <path id="Vector" stroke="#c71dff" stroke-linecap="round" stroke-linejoin="round" d="M5.10065 5.70081c1.66425 0 2.6004 -0.93615 2.6004 -2.60041S6.7649 0.5 5.10065 0.5c-1.66426 0 -2.60041 0.93614 -2.60041 2.6004s0.93615 2.60041 2.60041 2.60041Z" stroke-width="1"></path>
    <path id="Union" stroke="#000cfe" stroke-linecap="round" stroke-linejoin="round" d="M9.60477 13.4655c-0.42161 -0.0442 -0.72511 -0.4094 -0.73837 -0.8331 -0.01017 -0.3247 -0.01828 -0.6462 -0.02436 -0.9658 -0.32312 -0.0061 -0.64819 -0.0143 -0.97653 -0.0246 -0.4237 -0.0132 -0.78889 -0.3167 -0.83304 -0.7383 -0.04606 -0.4398 -0.04606 -0.867 0 -1.30679 0.04415 -0.42159 0.40935 -0.72506 0.83304 -0.73832 0.32834 -0.01028 0.6534 -0.01846 0.97652 -0.02456 0.00607 -0.3198 0.0142 -0.64153 0.02437 -0.96646 0.01326 -0.42371 0.31676 -0.78891 0.73837 -0.83304 0.43983 -0.04604 0.86693 -0.04604 1.30673 0 0.4216 0.04413 0.7251 0.40933 0.7383 0.83305 0.0102 0.32504 0.0183 0.64688 0.0244 0.9668 0.3171 0.00606 0.6361 0.01413 0.9582 0.02421 0.4237 0.01326 0.7889 0.31673 0.833 0.73832 0.0461 0.43979 0.0461 0.86699 0 1.30679 -0.0441 0.4216 -0.4093 0.7251 -0.833 0.7383 -0.3221 0.0101 -0.6411 0.0182 -0.9582 0.0242 -0.0061 0.3197 -0.0142 0.6414 -0.0244 0.9662 -0.0132 0.4237 -0.3167 0.7889 -0.7383 0.8331 -0.4398 0.046 -0.8669 0.046 -1.30673 0Z" stroke-width="1"></path>
  </g>
</svg>