<svg xmlns="http://www.w3.org/2000/svg" fill="none" viewBox="0 0 24 24" id="Barrel--Streamline-Cyber">
  <desc>
    Barrel Streamline Icon: https://streamlinehq.com
  </desc>
  <path stroke="#092f63" stroke-linecap="round" stroke-linejoin="round" stroke-miterlimit="10" d="m15.5 7.5 4 -3 -3 -3h-9l-3 3 4 3h7Z" stroke-width="1"></path>
  <path stroke="#092f63" stroke-linecap="round" stroke-linejoin="round" stroke-miterlimit="10" d="m19.5 4.5 1 5.5v7l-1 3 -4 2.5h-7l-4 -2.5 -1 -3v-7l1 -5.5" stroke-width="1"></path>
  <path stroke="#092f63" stroke-linecap="round" stroke-linejoin="round" stroke-miterlimit="10" d="m20.5 16 -5 3.5h-7l-5 -3.5" stroke-width="1"></path>
  <path stroke="#092f63" stroke-linecap="round" stroke-linejoin="round" stroke-miterlimit="10" d="M20.452 13 15.5 16.5H8.49997l-4.952 -3.5" stroke-width="1"></path>
  <path stroke="#092f63" stroke-linecap="round" stroke-linejoin="round" stroke-miterlimit="10" d="m20.5 10 -5 3.5h-7l-5 -3.5" stroke-width="1"></path>
  <path stroke="#092f63" stroke-linecap="round" stroke-linejoin="round" stroke-miterlimit="10" d="m20.071 7.5 -4.571 3H8.50002l-4.571 -3" stroke-width="1"></path>
  <path stroke="#092f63" stroke-linecap="round" stroke-linejoin="round" stroke-miterlimit="10" d="M9.5 3.5 8 4.5l1.5 1 1.5 -1 -1.5 -1Z" stroke-width="1"></path>
</svg>