<svg xmlns="http://www.w3.org/2000/svg" fill="none" viewBox="0 0 24 24" id="Content-Write--Streamline-Freehand">
  <desc>
    Content Write Streamline Icon: https://streamlinehq.com
  </desc>
  <path fill="#000000" d="M23.5313 16.4606c-0.1968 -0.7017 -0.48 -1.3761 -0.8433 -2.0078 -0.5486 -0.9187 -1.2839 -1.7122 -2.1583 -2.329 0.1435 -0.3077 0.2708 -0.6227 0.3814 -0.9436 0.2369 -0.6621 0.3293 -1.36725 0.2711 -2.06802 -0.0342 -0.32644 -0.1424 -0.64077 -0.3163 -0.91911 -0.174 -0.27833 -0.4092 -0.51332 -0.6876 -0.68709 -0.3084 -0.19532 -0.6731 -0.28258 -1.0365 -0.24805 -0.3634 0.03453 -0.7051 0.18888 -0.9712 0.43878 -0.5694 0.50108 -1.0453 1.09931 -1.4055 1.76683 -0.328 0.65256 -0.6196 1.32286 -0.8733 2.00776 -0.5864 0.0745 -1.1545 0.2548 -1.6765 0.532 -0.2791 0.148 -0.5388 0.3301 -0.773 0.5421 -0.2338 0.2253 -0.4394 0.4781 -0.6124 0.7529l-0.2811 0.6224c-0.1706 0.7429 0.0804 1.1344 0.512 1.295 0.391 0.1302 0.8137 0.1302 1.2047 0 0 0 -1.1444 2.3491 -1.1545 2.4495 -0.1455 0.4486 -0.253 0.9087 -0.3212 1.3753 -0.0437 0.3332 -0.0437 0.6707 0 1.0039 0.0312 0.1909 0.0782 0.379 0.1405 0.5622 0.0584 0.1417 0.1604 0.2613 0.2911 0.3413 0.1981 0.1121 0.4315 0.1444 0.6526 0.0903 0.2869 -0.077 0.5585 -0.2026 0.8031 -0.3714l0.5822 -0.5521 0.5521 -0.7027c0.1052 -0.0221 0.2067 -0.0593 0.3012 -0.1105 0.2093 -0.1337 0.4044 -0.2884 0.5823 -0.4618 0.2614 -0.2619 0.4936 -0.5513 0.6926 -0.8633 0.167 -0.2773 0.3146 -0.5657 0.4417 -0.8633 0.0629 0.0337 0.1306 0.0575 0.2008 0.0702 0.2193 0.0596 0.4454 0.09 0.6726 0.0904h0.4016c-0.0451 0.1546 -0.0787 0.3123 -0.1004 0.4718 -0.02 0.16 -0.02 0.3219 0 0.4819 0.0315 0.1582 0.0786 0.3128 0.1405 0.4618 0.1633 0.3558 0.4115 0.6661 0.7228 0.9035 0.0291 0.0306 0.0641 0.0551 0.1029 0.0718 0.0389 0.0167 0.0807 0.0253 0.123 0.0253 0.0422 0 0.0841 -0.0086 0.1229 -0.0253s0.0739 -0.0412 0.1029 -0.0718c0.0595 -0.0602 0.0929 -0.1413 0.0929 -0.2259 0 -0.0846 -0.0334 -0.1658 -0.0929 -0.2259 -0.0731 -0.1334 -0.1304 -0.2749 -0.1706 -0.4216 0 -0.1506 0 -0.3012 -0.0602 -0.4618 -0.0603 -0.1606 0 -0.3012 -0.0703 -0.4618 -0.1406 -0.7228 -0.1506 -0.9035 -0.1908 -1.0039 0.0119 -0.0717 -0.0045 -0.1452 -0.0456 -0.2051 -0.0412 -0.0599 -0.104 -0.1015 -0.1752 -0.1161 -0.0587 -0.0133 -0.1201 -0.0068 -0.1747 0.0187 -0.0545 0.0254 -0.099 0.0683 -0.1265 0.1218 -0.1504 0.01 -0.3013 0.01 -0.4517 0 -0.2088 -0.0294 -0.4118 -0.0904 -0.6023 -0.1807 -0.4097 -0.2336 -0.7414 -0.5828 -0.9537 -1.0038 -0.1406 -0.261 -0.2008 -0.5522 0.1405 -0.7429l0.3413 -0.1606c0.2829 -0.0754 0.5805 -0.0754 0.8634 0 0.3178 0.0882 0.6218 0.2199 0.9035 0.3915 0.0346 0.0241 0.0737 0.0409 0.115 0.0494s0.0839 0.0086 0.1252 0.0001c0.0413 -0.0084 0.0805 -0.0252 0.1151 -0.0492 0.0346 -0.0241 0.064 -0.0549 0.0864 -0.0907 0.0469 -0.0695 0.0648 -0.1546 0.0498 -0.2372 -0.015 -0.0825 -0.0617 -0.1559 -0.1301 -0.2045 -0.1887 -0.1463 -0.3865 -0.2805 -0.5923 -0.4015 0.045 -0.009 0.0878 -0.0269 0.1258 -0.0528 0.0379 -0.0259 0.0702 -0.0591 0.095 -0.0978 0.2008 -0.3547 0.4016 -0.7261 0.6023 -1.1143 0.6148 0.6643 1.1289 1.4152 1.5259 2.2286 0.3011 0.6027 0.566 1.2229 0.7931 1.8572 0.3584 0.9858 0.6601 1.9913 0.9035 3.0116 0.017 0.0846 0.0664 0.1593 0.1377 0.208 0.0712 0.0488 0.1587 0.0678 0.2438 0.053 0.0416 -0.0084 0.0812 -0.0249 0.1164 -0.0486 0.0352 -0.0238 0.0653 -0.0543 0.0886 -0.0898 0.0234 -0.0354 0.0394 -0.0752 0.0473 -0.1169 0.0079 -0.0417 0.0074 -0.0846 -0.0014 -0.1262 -0.068 -1.088 -0.2224 -2.1689 -0.4617 -3.2324Zm-10.0388 -2.0078c-0.0392 -0.014 -0.0739 -0.0382 -0.1004 -0.0703l0.3012 -0.532c0.2036 -0.293 0.4393 -0.5624 0.7027 -0.8031 0.1746 -0.1712 0.3589 -0.3321 0.5521 -0.4819 0.1844 -0.1324 0.3791 -0.2499 0.5823 -0.3513 -0.0193 0.052 -0.0428 0.1024 -0.0703 0.1505l-0.8935 2.0078c-0.3415 0.0638 -0.6869 0.104 -1.034 0.1205l-0.0401 -0.0402Zm0.3413 5.4912c0 -0.0803 -0.2008 -0.8332 -0.2208 -1.1544 -0.0201 -0.3213 0 -0.5321 0 -0.7931 0.2954 0.2987 0.6106 0.577 0.9436 0.8332 0.1444 0.1063 0.2953 0.2036 0.4517 0.2911 0 0 -1.0239 0.8232 -1.1343 0.8634l-0.0402 -0.0402Zm5.2402 -6.4549c-0.0273 0.0473 -0.0417 0.101 -0.0417 0.1556 0 0.0546 0.0144 0.1083 0.0417 0.1556 -0.1023 -0.057 -0.2099 -0.1041 -0.3212 -0.1406 -0.3236 -0.105 -0.6667 -0.1358 -1.0039 -0.0903l-0.6324 0.1907c-0.1698 0.0603 -0.3257 0.1541 -0.4586 0.2758 -0.1329 0.1216 -0.2399 0.2688 -0.3148 0.4326 -0.0749 0.1639 -0.1161 0.3411 -0.1212 0.5212 -0.0051 0.1801 0.026 0.3594 0.0915 0.5272 0.1122 0.3343 0.2974 0.6395 0.5421 0.8935 0.1174 0.1181 0.245 0.2256 0.3814 0.3212 -0.1204 0.1707 -0.2208 0.3514 -0.3513 0.512 -0.2352 0.3022 -0.5124 0.5693 -0.8232 0.793 -0.0803 0.0603 -0.4015 0.2711 -0.3513 0.2711 -0.2937 -0.0583 -0.5799 -0.1492 -0.8533 -0.2711 -0.3313 -0.1706 -0.6425 -0.3614 -1.0039 -0.5421 0.2208 -0.4417 0.4216 -0.8332 0.6023 -1.1745 0.6023 -1.1344 1.0641 -1.8873 1.8773 -3.4533 0.4417 -0.8935 0.8332 -1.9074 1.3351 -2.831 0.2873 -0.57613 0.671 -1.09897 1.1344 -1.54592 0.102 -0.10629 0.2375 -0.17427 0.3838 -0.19255 0.1462 -0.01828 0.2942 0.01426 0.4193 0.09216 0.1589 0.08295 0.2967 0.20117 0.4028 0.34559 0.1061 0.14443 0.1778 0.31123 0.2096 0.48763 0.0761 0.57839 0.0317 1.16629 -0.1305 1.72669 -0.0101 0.2309 -0.8232 2.1282 -1.014 2.5398Z" stroke-width="1"></path>
  <path fill="#000000" d="M16.0624 20.8274c-1.2384 0.705 -2.5347 1.3028 -3.875 1.7869 -0.835 0.3185 -1.7422 0.3984 -2.62007 0.2309 -0.39135 -0.1354 -0.73841 -0.3749 -1.00388 -0.6927 -0.44921 -0.5319 -0.83964 -1.1108 -1.16449 -1.7267 -0.5421 -0.9235 -1.00388 -1.8571 -1.4757 -2.8108 -0.69268 -1.4456 -1.30504 -2.9112 -1.94752 -4.397 -0.34132 -0.7529 -0.62241 -1.5158 -0.89345 -2.2788 -0.44171 -1.15444 -0.81314 -2.33902 -1.21469 -3.52359 -0.08031 -0.23089 -0.5421 -1.00388 -0.76295 -1.45562 0.33853 -0.01938 0.67456 -0.06978 1.00388 -0.15058 1.70798 -0.44031 3.3848 -0.99366 5.01938 -1.6564 1.84588 -0.69252 3.63769 -1.52133 5.36069 -2.47957 0.1633 -0.10339 0.3119 -0.22832 0.4417 -0.37144 0.2665 0.38889 0.5015 0.79843 0.7027 1.22473 0.512 1.14442 1.0943 3.01163 1.6665 4.49737 0.1706 0.41159 0.3413 0.79306 0.5019 1.1143 0.0182 0.03842 0.0439 0.07283 0.0756 0.10124 0.0316 0.02841 0.0686 0.05025 0.1088 0.06426 0.0401 0.014 0.0827 0.0199 0.1251 0.01734 0.0425 -0.00256 0.084 -0.01353 0.1222 -0.03226 0.0757 -0.03882 0.1336 -0.10532 0.1617 -0.18569 0.028 -0.08038 0.024 -0.16846 -0.0111 -0.24597 -0.1744 -0.35234 -0.3286 -0.71432 -0.4618 -1.08419 -0.5522 -1.4757 -1.0842 -3.3931 -1.5862 -4.5576 -0.3208 -0.67193 -0.7556 -1.283276 -1.2849 -1.806979 -0.0733 -0.042292 -0.1564 -0.064557 -0.2409 -0.064557 -0.0846 0 -0.1677 0.022265 -0.241 0.064557 -0.261 0.170659 -0.0803 0.291124 -0.6224 0.612369 -2.06813 1.03966 -4.20859 1.92873 -6.40472 2.66027 -1.27557 0.46553 -2.58 0.84781 -3.90508 1.14442 -1.084183 0.16062 -0.873369 -0.12047 -1.305036 0.09035 -0.103397 0.05462 -0.189314 0.13727 -0.2479048 0.23847 -0.058591 0.10121 -0.08748613 0.21687 -0.083374206 0.33374C0.209991 6.27234 0.4923 7.03524 0.843641 7.76697c0.401549 1.23476 0.772989 2.37923 1.164499 3.54373 0.29112 0.783 0.59229 1.566 0.94364 2.349 0.68264 1.4757 1.32512 2.9414 2.00776 4.3769 0.49189 1.0039 1.00387 1.9074 1.6062 2.841 0.37184 0.6598 0.81631 1.276 1.32511 1.8371 0.37712 0.4131 0.86492 0.7093 1.40543 0.8533 1.01302 0.1849 2.05782 0.077 3.01162 -0.3112 1.3555 -0.5417 2.6677 -1.186 3.9252 -1.9275 0.0651 -0.036 0.1134 -0.0963 0.1341 -0.1679 0.0207 -0.0715 0.0122 -0.1483 -0.0237 -0.2135 -0.0302 -0.0451 -0.0729 -0.0805 -0.1227 -0.1018 -0.0499 -0.0214 -0.1049 -0.0279 -0.1584 -0.0187Z" stroke-width="1"></path>
  <path fill="#000000" d="M7.67 7.78706c0.52437 -0.08708 1.05462 -0.13407 1.58613 -0.14055 0.60112 -0.01136 1.19967 -0.08197 1.78687 -0.21081 0.8269 -0.17292 1.5683 -0.627 2.0981 -1.28496 0.0595 -0.06014 0.0928 -0.1413 0.0928 -0.22587 0 -0.08458 -0.0333 -0.16574 -0.0928 -0.22588 -0.029 -0.03068 -0.0641 -0.05511 -0.1029 -0.07181s-0.0807 -0.02531 -0.1229 -0.02531c-0.0423 0 -0.0841 0.00861 -0.123 0.02531 -0.0388 0.0167 -0.0738 0.04113 -0.1029 0.07181 -0.3598 0.35598 -0.8061 0.61202 -1.295 0.74287 -0.6044 0.12125 -1.2221 0.16176 -1.83711 0.12047 -0.69382 -0.01425 -1.38715 0.04634 -2.06798 0.1807 -0.52899 0.13838 -1.02653 0.37693 -1.46566 0.70271 -0.57102 0.44888 -1.05718 0.99624 -1.43555 1.61624 -0.0234 0.05772 -0.02767 0.12142 -0.01219 0.18175 0.01548 0.06033 0.0499 0.1141 0.09821 0.15342 0.0483 0.03932 0.10794 0.06211 0.17016 0.06502 0.06221 0.00292 0.12372 -0.0142 0.17549 -0.04883 0.36056 -0.41661 0.7799 -0.77846 1.24481 -1.07415 0.42262 -0.2843 0.9023 -0.47274 1.40542 -0.55213Z" stroke-width="1"></path>
  <path fill="#000000" d="M13.8539 10.0057c0.0595 -0.06018 0.0928 -0.14134 0.0928 -0.22591 0 -0.08458 -0.0333 -0.16574 -0.0928 -0.22588 -0.0291 -0.03068 -0.0641 -0.05511 -0.1029 -0.07181 -0.0389 -0.0167 -0.0807 -0.02531 -0.123 -0.02531 -0.0423 0 -0.0841 0.00861 -0.1229 0.02531 -0.0389 0.0167 -0.0739 0.04113 -0.103 0.07181 -0.4067 0.27255 -0.8642 0.46029 -1.3451 0.55209 -0.753 0.1707 -1.546 0.1908 -2.34912 0.3012 -0.45583 0.0867 -0.90037 0.2248 -1.32512 0.4116 -0.28629 0.1294 -0.55873 0.2875 -0.81314 0.4718 -0.63011 0.4201 -1.15831 0.9757 -1.54597 1.6263 -0.0391 0.0632 -0.05257 0.1389 -0.03764 0.2117 0.01493 0.0728 0.05713 0.1371 0.11795 0.1798 0.03125 0.0223 0.06673 0.0379 0.10424 0.0459 0.03752 0.008 0.07628 0.0083 0.1139 0.0007 0.03761 -0.0075 0.07329 -0.0226 0.10484 -0.0445 0.03154 -0.0218 0.05828 -0.0498 0.07857 -0.0824 0.33502 -0.4033 0.73962 -0.7433 1.19462 -1.0039 0.3453 -0.1919 0.70839 -0.3499 1.08418 -0.4718 0.3723 -0.1374 0.75499 -0.2449 1.14442 -0.3212 0.80307 -0.1908 1.61627 -0.2912 2.37917 -0.5522 0.5722 -0.1763 1.0996 -0.4742 1.546 -0.8733Z" stroke-width="1"></path>
  <path fill="#000000" d="M9.93875 14.8644c-0.20469 0.0611 -0.40303 0.1418 -0.59228 0.2409 -0.18546 0.0912 -0.36049 0.2023 -0.52202 0.3313 -0.37021 0.3156 -0.70664 0.6689 -1.00388 1.054 -0.05155 0.0542 -0.08031 0.1261 -0.08031 0.2008 0 0.0748 0.02876 0.1467 0.08031 0.2008 0.02618 0.0267 0.05741 0.0479 0.09189 0.0624 0.03448 0.0145 0.07149 0.022 0.10889 0.022s0.07442 -0.0075 0.10889 -0.022c0.03448 -0.0145 0.06571 -0.0357 0.09189 -0.0624 0.43226 -0.2548 0.87796 -0.486 1.33515 -0.6927 0.21082 -0.1004 0.41159 -0.2208 0.62242 -0.3313 0.2108 -0.1104 0.4116 -0.2409 0.6324 -0.3413 0.2171 -0.0963 0.4422 -0.1736 0.6726 -0.2309 0.0423 -0.0037 0.0834 -0.0159 0.1209 -0.0356 0.0376 -0.0197 0.0708 -0.0467 0.0979 -0.0794s0.0474 -0.0704 0.0598 -0.1109c0.0124 -0.0406 0.0167 -0.0832 0.0125 -0.1254 -0.0023 -0.0428 -0.0135 -0.0846 -0.0328 -0.1228 -0.0193 -0.0383 -0.0463 -0.0721 -0.0793 -0.0995 -0.033 -0.0273 -0.0713 -0.0475 -0.1124 -0.0594 -0.0412 -0.0118 -0.0843 -0.015 -0.1268 -0.0095 -0.5038 -0.017 -1.0066 0.0544 -1.48575 0.2109Z" stroke-width="1"></path>
</svg>