<svg xmlns="http://www.w3.org/2000/svg" fill="none" viewBox="0 0 24 24" id="Content-Paper-Edit--Streamline-Freehand">
  <desc>
    Content Paper Edit Streamline Icon: https://streamlinehq.com
  </desc>
  <path fill="#000000" fill-rule="evenodd" d="M21.1699 6.24824c-0.537 0.11638 -1.0148 0.42075 -1.3472 0.85825 -0.0302 0.02556 -0.055 0.0568 -0.0731 0.09195 -0.018 0.03514 -0.029 0.0735 -0.0323 0.11289 -0.0065 0.07954 0.0188 0.15842 0.0704 0.2193 0.0516 0.06088 0.1253 0.09876 0.2049 0.10531 0.0795 0.00655 0.1584 -0.01877 0.2193 -0.07038 0.5189 -0.35927 0.5888 -0.41915 1.0678 -0.42913 0.479 -0.00998 1.6167 0.74848 1.6367 1.2774 0.0494 0.55833 -0.1147 1.11465 -0.4591 1.55683 -0.6686 -0.51894 -2.3153 -1.68656 -2.7444 -1.99593 -0.0636 -0.06338 -0.1498 -0.09897 -0.2395 -0.09897 -0.0898 0 -0.176 0.03559 -0.2395 0.09897 -0.3893 0.4391 0.3792 0.66864 2.6545 2.61467 -0.2993 0.509 -0.4191 0.5888 -3.7423 4.4609 -0.232 -0.4512 -0.552 -0.8514 -0.9411 -1.1771 -0.389 -0.3256 -0.8393 -0.5701 -1.3243 -0.719 2.8542 -3.99189 3.3631 -4.10167 2.9939 -4.42102 -0.3693 -0.31935 -0.499 0.1497 -0.8483 0.54889 -2.475 2.88413 -3.8422 4.46093 -3.8721 4.98983 -0.1098 2.1856 -0.2096 3.2434 0.1197 3.5528 0.6487 0.6187 2.994 -0.2695 3.5329 -0.6188 2.1197 -2.365 4.0705 -4.876 5.8381 -7.51467 0.2441 -0.38509 0.3674 -0.83439 0.3541 -1.29013 -0.0133 -0.45574 -0.1626 -0.89709 -0.4287 -1.2673 -0.2661 -0.37021 -0.6369 -0.65236 -1.0647 -0.81017 -0.4277 -0.15781 -0.8929 -0.18406 -1.3357 -0.07539Zm-4.0617 9.97966c-0.6235 0.3265 -1.2988 0.5426 -1.996 0.6387 -0.1397 -3.0637 -0.0798 -2.4949 0.3294 -3.0937 0.6613 0.6938 1.3939 1.3159 2.1855 1.8562 -0.2794 0.3394 -0.469 0.5589 -0.5189 0.5988Z" clip-rule="evenodd" stroke-width="1"></path>
  <path fill="#000000" fill-rule="evenodd" d="M17.1381 19.3416c-0.2495 1.0778 -0.5488 1.4371 -1.8662 1.6467 -3.6198 0.3215 -7.26393 0.2479 -10.86784 -0.2196 -0.67862 -0.1197 -1.31732 -0.1497 -1.99594 -0.2495s-0.54889 -0.1297 -1.26742 -0.2894c-0.12974 -0.6087 0.60876 -2.1057 0.76843 -2.8143 0 0 2.17558 -10.34889 2.33525 -11.28698 0.2101 -1.164 0.34014 -2.34104 0.38921 -3.52283 1.2275 0 3.11366 0.23951 4.25135 0.36925 3.56276 0.39918 7.41486 -0.61875 9.83996 0.76843 0.1465 0.51875 0.1938 1.06045 0.1397 1.59675 0 0.07941 0.0316 0.15556 0.0877 0.2117 0.0562 0.05615 0.1323 0.08769 0.2117 0.08769s0.1556 -0.03154 0.2117 -0.08769c0.0562 -0.05614 0.0877 -0.13229 0.0877 -0.2117 0.0798 -0.66864 0.1896 -1.77638 -0.2794 -2.26539 -1.0778 -1.09776 -4.2115 -1.26742 -5.8481 -1.26742 -1.4571 0.05988 -2.9141 0.23951 -4.35117 0.15968 -0.6387 0 -3.99187 -0.13972 -4.63057 -0.0998 -0.46905 0 -0.28941 0.66864 -0.30937 0.75846 -0.33931 2.9939 -0.10978 1.50693 -3.223443 14.49055 -0.219553 0.958 -1.137684 2.4849 -0.708558 3.6525 0.229533 0.5988 0.918131 0.6188 1.247461 0.7186 0.94184 0.1963 1.89513 0.3329 2.85419 0.4091 2.98147 0.3583 5.99306 0.3918 8.98176 0.0998 1.1476 -0.0798 2.7344 -0.0898 3.7224 -0.7684 0.5014 -0.4359 0.8188 -1.0458 0.8882 -1.7065 0.0118 -0.0439 0.0148 -0.0897 0.0089 -0.1348 -0.0059 -0.0451 -0.0206 -0.0886 -0.0433 -0.1279 -0.0227 -0.0394 -0.053 -0.074 -0.089 -0.1017 -0.0361 -0.0277 -0.0772 -0.048 -0.1211 -0.0598 -0.0439 -0.0118 -0.0897 -0.0148 -0.1348 -0.0089 -0.0451 0.0059 -0.0885 0.0206 -0.1279 0.0433 -0.0394 0.0227 -0.0739 0.053 -0.1016 0.089 -0.0277 0.0361 -0.0481 0.0772 -0.0599 0.1211Z" clip-rule="evenodd" stroke-width="1"></path>
  <path fill="#000000" fill-rule="evenodd" d="M15.6013 6.79719c-1.1078 0 -2.6945 -0.14969 -4.2015 -0.20957 -2.67453 -0.10978 -1.92605 0.20957 -4.30122 -0.07984 -0.21955 0 -1.06783 -0.31935 -1.2275 0.15968 -0.15968 0.47902 0.52892 0.29939 1.09776 0.54888 0.56885 0.24949 1.477 0.57882 5.11956 0.50896 1.3074 0 2.6047 -0.13971 3.5528 -0.23951 0.0452 -0.00262 0.0895 -0.01412 0.1302 -0.03385 0.0408 -0.01972 0.0773 -0.04728 0.1074 -0.08111 0.0301 -0.03382 0.0533 -0.07325 0.0682 -0.11602 0.0148 -0.04278 0.0212 -0.08806 0.0185 -0.13328 -0.0026 -0.04521 -0.0141 -0.08947 -0.0338 -0.13024 -0.0197 -0.04077 -0.0473 -0.07725 -0.0811 -0.10737 -0.0338 -0.03012 -0.0733 -0.05328 -0.116 -0.06816 -0.0428 -0.01488 -0.0881 -0.02119 -0.1333 -0.01857Z" clip-rule="evenodd" stroke-width="1"></path>
  <path fill="#000000" fill-rule="evenodd" d="M12.9766 10.9687c-5.6485 -0.3194 -6.56663 -0.4092 -7.44484 -0.8682 -0.06749 -0.0424 -0.14904 -0.0562 -0.22671 -0.0384 -0.07767 0.0178 -0.1451 0.0657 -0.18745 0.1332 -0.04235 0.0675 -0.05615 0.149 -0.03837 0.2267 0.01778 0.0776 0.06569 0.1451 0.13318 0.1874 0.91144 0.6407 1.96755 1.0453 3.07374 1.1776 1.56387 0.1259 3.13685 0.079 4.69045 -0.1397 0.09 0 0.1763 -0.0357 0.2399 -0.0994 0.0637 -0.0636 0.0994 -0.1499 0.0994 -0.2399s-0.0357 -0.1763 -0.0994 -0.2399c-0.0636 -0.0637 -0.1499 -0.0994 -0.2399 -0.0994Z" clip-rule="evenodd" stroke-width="1"></path>
  <path fill="#000000" fill-rule="evenodd" d="M9.813 15.6491c-2.21549 -0.1197 -4.31123 -0.2594 -5.43893 -1.1676 -0.30937 -0.2495 -0.86824 0.2595 -0.20958 0.8184 0.48448 0.3418 1.0069 0.6265 1.55684 0.8482 2.28534 0.8084 4.24136 0.5589 6.76627 0.2795 0.0899 0 0.1762 -0.0358 0.2399 -0.0994 0.0636 -0.0637 0.0994 -0.15 0.0994 -0.24 0 -0.0899 -0.0358 -0.1762 -0.0994 -0.2399 -0.0637 -0.0636 -0.15 -0.0994 -0.2399 -0.0994 -0.8882 0.03 -1.7764 -0.0499 -2.6746 -0.0998Z" clip-rule="evenodd" stroke-width="1"></path>
</svg>