<svg xmlns="http://www.w3.org/2000/svg" fill="none" viewBox="0 0 24 24" id="Notes-Book--Streamline-Freehand">
  <desc>
    Notes Book Streamline Icon: https://streamlinehq.com
  </desc>
  <path fill="#000000" fill-rule="evenodd" d="M7.17445 5.08282c-0.2202 3.00264 -0.27024 3.50308 -0.26023 3.67323 0 0.38033 0.42037 0.62054 0.78068 0.74065 1.4813 0.5405 7.2263 1.0009 8.1472 0.40035 0.4349 -0.4146 0.6931 -0.9811 0.7206 -1.58139 0.1001 -0.77068 0.0901 -3.88341 -0.2002 -4.23371 -0.4504 -0.59052 -1.3712 -0.58051 -5.3747 -0.71063H7.85504c-0.71062 -0.01001 -0.67058 1.61142 -0.68059 1.7115Zm0.72063 -1.00087c2.03806 0.01546 4.07212 0.18273 6.08532 0.50044 0.2803 0 1.151 0 1.4313 0.09007 -0.1001 0.1101 0 0.52046 0.05 0.65058 0.1401 1.00087 0 3.47304 -0.2602 3.63318h-0.2202c-1.7615 -0.18015 -3.2929 0.51045 -6.86603 -0.2302 -0.67059 -0.18016 -0.22019 -3.86339 -0.22019 -4.6741v0.03003Z" clip-rule="evenodd" stroke-width="1"></path>
  <path fill="#000000" fill-rule="evenodd" d="M22.4579 4.08197c-0.3203 -0.11009 -2.262 -0.22019 -2.252 0.15014 -0.2402 0.83073 1.9317 0.13011 2.1519 0.70061 0.2565 0.83922 0.3715 1.71529 0.3403 2.59228 -0.8195 -0.35166 -1.7231 -0.4594 -2.6023 -0.31028 0 -4.08358 0.1201 -4.00351 0 -4.64407 -0.0586 -0.45102 -0.2923 -0.86087 -0.6506 -1.141C15.9922 -0.852354 11.1379 0.648963 7.40464 0.128506c-1.01706 -0.1713414 -2.05562 -0.1713414 -3.07269 0C3.03081 0.468805 3.05082 1.62982 3.60131 1.62982c0.05057 0.00623 0.10189 0.00102 0.15018 -0.01523 0.04829 -0.01626 0.09231 -0.04315 0.12881 -0.0787 0.03651 -0.03554 0.06457 -0.07883 0.08211 -0.12667 0.01754 -0.04784 0.02411 -0.099 0.01923 -0.14972 0 -0.860757 2.53222 -0.500441 3.31291 -0.380335C10.9277 1.42965 15.842 0.0984798 18.9047 2.21033c0.4604 0.32028 0.2302 0.93082 0 12.35087 0.0707 1.9936 -0.0905 3.9887 -0.4804 5.9452 -0.1401 0.5405 -0.2502 1.3612 -0.6906 1.6614 -1.5213 1.0009 -4.6941 0.6706 -6.5157 0.3003 -1.82161 -0.3703 -3.37297 0.1702 -5.0044 -0.0901 -0.82072 -0.1301 -2.78244 -0.1101 -3.00263 -0.7606 -0.07869 -0.2539 -0.12904 -0.5158 -0.15014 -0.7807 0.66927 0.0349 1.34036 -0.002 2.00176 -0.1101 0.06419 -0.0655 0.10014 -0.1535 0.10014 -0.2452s-0.03595 -0.1798 -0.10014 -0.2453c-0.62297 -0.3144 -1.30482 -0.4951 -2.00176 -0.5304 0 -0.7307 0.08007 -1.2011 0.18016 -2.3321 0.61274 0.0395 1.22801 0.0025 1.83161 -0.1101 0.06418 -0.0654 0.10014 -0.1535 0.10014 -0.2452s-0.03596 -0.1797 -0.10014 -0.2452c-0.54911 -0.2871 -1.15296 -0.4543 -1.77156 -0.4904v-2.4922c0.47657 0.0304 0.95504 -0.0067 1.42125 -0.1101 0.06419 -0.0655 0.10014 -0.1535 0.10014 -0.2452s-0.03595 -0.1798 -0.10014 -0.2452c-0.43913 -0.2498 -0.9277 -0.4001 -1.43125 -0.4404V9.66687c0.47656 0.03036 0.95503 -0.0067 1.42124 -0.11009 0.06419 -0.06548 0.10014 -0.15352 0.10014 -0.24522 0 -0.09169 -0.03595 -0.17973 -0.10014 -0.24521 -0.42824 -0.24979 -0.90708 -0.40029 -1.40123 -0.44039V5.75344c0.47657 0.03036 0.95504 -0.00671 1.42125 -0.1101 0.06419 -0.06548 0.10014 -0.15352 0.10014 -0.24521 0 -0.09169 -0.03595 -0.17973 -0.10014 -0.24522 -0.43913 -0.24972 -0.9277 -0.40005 -1.43126 -0.44038 0.18016 -2.58227 0.15014 -2.23196 0.13012 -2.32204 -0.00172 -0.04321 -0.01378 -0.08539 -0.03518 -0.12297 -0.0214 -0.03759 -0.0515 -0.06949 -0.08779 -0.09302 -0.03628 -0.02354 -0.07768 -0.03802 -0.12073 -0.04224 -0.04304 -0.00421 -0.08647 0.00197 -0.12663 0.01802 -0.33029 0.08007 -0.25022 0.36032 -0.41036 2.47217 -0.87076 -0.1101 -2.5622443 -0.29026 -2.422121 0.54047 0 0.10009 0.120105 0.20018 0.320281 0.27024 0.200175 0.07006 1.73152 0.26023 2.10184 0.31027v2.78244c-0.86075 -0.10008 -2.532218 -0.28024 -2.392095 0.55049 0 0.31027 0.600527 0.34029 2.342055 0.56049 0 1.00085 -0.06005 2.00175 -0.07006 3.00265 -0.82072 -0.0901 -2.412118 -0.2502 -2.271995 0.5605 0 0.1001 0.120105 0.2001 0.320281 0.2702 0.200176 0.0701 1.391224 0.2102 1.941704 0.2803 0 0.9108 0 1.5313 -0.08007 2.4321 -0.73064 -0.0501 -2.001757 -0.1301 -1.871643 0.6005 0 0.1001 0.120106 0.2002 0.320281 0.2703 0.050044 0 0.840742 0.1401 1.451272 0.2201 -0.1201 1.111 -0.19017 1.6015 -0.2302 2.3521 -0.67059 0 -1.651449 0 -1.541353 0.6206 0 0.1 0.120106 0.2001 0.320281 0.2802l1.211062 0.1802c0.01143 0.4134 0.07534 0.8237 0.19017 1.221 0.44038 1.3712 2.63231 1.2912 3.77331 1.5013 1.56137 0.2803 3.50307 -0.1501 5.00443 0.1502 2.1919 0.4604 5.5448 0.8107 7.3964 -0.4504 0.6796 -0.6021 1.0964 -1.4464 1.1611 -2.3521 0.3616 -1.6427 0.5262 -3.3227 0.4904 -5.0044 0.4744 0.1548 0.9728 0.2226 1.4713 0.2002 0.2691 -0.0347 0.5416 -0.0347 0.8107 0 -0.1601 1.5113 -0.0701 0.8608 -0.1601 1.9517 -0.2002 0.5105 -0.3503 0.7807 -0.9008 0.8007 -0.0901 0 -1.081 -0.2102 -1.2912 0.1401 -0.0422 0.0649 -0.0603 0.1425 -0.0511 0.2193 0.0091 0.0768 0.0449 0.148 0.1012 0.2011 0.3991 0.1366 0.8194 0.201 1.2411 0.1902 2.4922 0.07 2.0017 -3.9435 2.362 -7.7268 0.0701 -1.7115 0.4304 -7.12625 -1.241 -7.66673Zm0.2302 4.35382c0 1.19105 -0.1502 2.37211 -0.2202 3.25281 0 0.5005 0.3102 -0.1501 -2.3921 0.0801V8.08549c0.8508 0.23497 1.7296 0.35283 2.6123 0.3503Zm-2.6424 6.44561v-2.1318c0.4655 0.1091 0.9465 0.1362 1.4213 0.08 0.3185 0.0103 0.6372 -0.0132 0.9508 -0.07v2.3721c-0.759 -0.2734 -1.5728 -0.3593 -2.3721 -0.2503Z" clip-rule="evenodd" stroke-width="1"></path>
</svg>