<svg xmlns="http://www.w3.org/2000/svg" fill="none" viewBox="0 0 24 24" id="Bill-Dollar-1--Streamline-Sharp">
  <desc>
    Bill Dollar 1 Streamline Icon: https://streamlinehq.com
  </desc>
  <g id="bill-dollar-1--billing-bills-payment-finance-cash-currency-money-accounting-dollar">
    <path id="Union" fill="#2859c5" fill-rule="evenodd" d="M4 19.5h16v-2H4v2ZM7 23h10v-2H7v2Z" clip-rule="evenodd" stroke-width="1"></path>
    <path id="Union_2" fill="#8fbffa" fill-rule="evenodd" d="M23 2H1v14h22V2Z" clip-rule="evenodd" stroke-width="1"></path>
    <path id="Vector 3037 (Stroke)" fill="#2859c5" fill-rule="evenodd" d="M9.25 7c0 -0.966 0.784 -1.75 1.75 -1.75h2c0.966 0 1.75 0.784 1.75 1.75v0.5h-1.5V7a0.25 0.25 0 0 0 -0.25 -0.25h-2a0.25 0.25 0 0 0 -0.25 0.25v0.47a0.25 0.25 0 0 0 0.19 0.242l2.484 0.621a1.75 1.75 0 0 1 1.326 1.698V11A1.75 1.75 0 0 1 13 12.75h-2A1.75 1.75 0 0 1 9.25 11v-0.5h1.5v0.5c0 0.138 0.112 0.25 0.25 0.25h2a0.25 0.25 0 0 0 0.25 -0.25v-0.97a0.25 0.25 0 0 0 -0.19 -0.242l-2.484 -0.621A1.75 1.75 0 0 1 9.25 7.469V7Z" clip-rule="evenodd" stroke-width="1"></path>
  </g>
</svg>