<svg xmlns="http://www.w3.org/2000/svg" fill="none" viewBox="0 0 24 24" id="Laptop-Clock--Streamline-Ultimate">
  <desc>
    Laptop Clock Streamline Icon: https://streamlinehq.com
  </desc>
  <path fill="#66e1ff" d="M20.1305 13.4348V2.59452c0 -0.42289 -0.168 -0.82847 -0.4671 -1.1275C19.3644 1.16799 18.9588 1 18.5359 1H5.46415c-0.42289 0 -0.82847 0.16799 -1.1275 0.46702 -0.29903 0.29903 -0.46702 0.70461 -0.46702 1.1275V13.4348H20.1305Z" stroke-width="1"></path>
  <path fill="#c2f3ff" d="M18.2174 1H5.46415c-0.42289 0 -0.82847 0.16799 -1.1275 0.46702 -0.29903 0.29903 -0.46702 0.70461 -0.46702 1.1275V13.4348h1.91304L18.2174 1Z" stroke-width="1"></path>
  <path fill="#ffffff" d="M23 13.4348c-0.2733 1.0928 -0.904 2.0629 -1.7918 2.7561 -0.8879 0.6933 -1.982 1.0699 -3.1085 1.0699H5.90025c-1.12642 -0.0002 -2.22045 -0.3768 -3.10829 -1.0701C1.90411 15.4975 1.27339 14.5275 1 13.4348h22Z" stroke-width="1"></path>
  <path stroke="#191919" stroke-linecap="round" stroke-linejoin="round" d="M20.1305 9.60868V2.59452c0 -0.42289 -0.168 -0.82847 -0.4671 -1.1275C19.3644 1.16799 18.9588 1 18.5359 1H5.46415c-0.42289 0 -0.82847 0.16799 -1.1275 0.46702 -0.29903 0.29903 -0.46702 0.70461 -0.46702 1.1275V13.4348" stroke-width="1"></path>
  <path stroke="#191919" stroke-linecap="round" stroke-linejoin="round" d="M9.60868 17.2608H5.90025c-1.12642 -0.0002 -2.22045 -0.3768 -3.10829 -1.0701C1.90411 15.4975 1.27339 14.5275 1 13.4348h9.5652" stroke-width="1"></path>
  <path fill="#e3e3e3" d="M17.2606 23c1.5221 0 2.9819 -0.6046 4.0582 -1.6809 1.0763 -1.0763 1.6809 -2.5361 1.6809 -4.0582 0 -1.5221 -0.6046 -2.9819 -1.6809 -4.0582 -1.0763 -1.0763 -2.5361 -1.6809 -4.0582 -1.6809 -1.5221 0 -2.9819 0.6046 -4.0582 1.6809 -1.0763 1.0763 -1.6809 2.5361 -1.6809 4.0582 0 1.5221 0.6046 2.9819 1.6809 4.0582C14.2787 22.3954 15.7385 23 17.2606 23Z" stroke-width="1"></path>
  <path fill="#ffffff" d="M13.2021 21.3194c-0.533 -0.533 -0.9558 -1.1657 -1.2442 -1.8621 -0.2884 -0.6964 -0.4369 -1.4427 -0.4369 -2.1965 0 -0.7537 0.1485 -1.5 0.4369 -2.1964 0.2884 -0.6964 0.7112 -1.3291 1.2442 -1.8621 0.533 -0.5329 1.1657 -0.9557 1.862 -1.2442 0.6964 -0.2884 1.4428 -0.4369 2.1965 -0.4369 0.7537 0 1.5001 0.1485 2.1965 0.4369 0.6963 0.2885 1.329 0.7113 1.862 1.2442l-8.117 8.1171Z" stroke-width="1"></path>
  <path stroke="#191919" stroke-linecap="round" stroke-linejoin="round" d="M17.2606 23c1.5221 0 2.9819 -0.6046 4.0582 -1.6809 1.0763 -1.0763 1.6809 -2.5361 1.6809 -4.0582 0 -1.5221 -0.6046 -2.9819 -1.6809 -4.0582 -1.0763 -1.0763 -2.5361 -1.6809 -4.0582 -1.6809 -1.5221 0 -2.9819 0.6046 -4.0582 1.6809 -1.0763 1.0763 -1.6809 2.5361 -1.6809 4.0582 0 1.5221 0.6046 2.9819 1.6809 4.0582C14.2787 22.3954 15.7385 23 17.2606 23Z" stroke-width="1"></path>
  <path stroke="#191919" stroke-linecap="round" stroke-linejoin="round" d="M18.6958 17.3354h-1.9131v-2.8695" stroke-width="1"></path>
</svg>