<svg xmlns="http://www.w3.org/2000/svg" fill="none" viewBox="0 0 24 24" id="Screen-Curved--Streamline-Ultimate">
  <desc>
    Screen Curved Streamline Icon: https://streamlinehq.com
  </desc>
  <path fill="#808080" d="m10.4776 17.2743 -0.3912 3.8127h3.8261l-0.3912 -3.8127" stroke-width="1"></path>
  <path stroke="#191919" stroke-linecap="round" stroke-linejoin="round" d="m10.4776 17.2743 -0.3912 3.8127h3.8261l-0.3912 -3.8127" stroke-width="1"></path>
  <path stroke="#191919" stroke-linecap="round" stroke-linejoin="round" d="M7.70508 21.087h8.60872" stroke-width="1"></path>
  <path fill="#66e1ff" d="M23 18.2174s-3.3478 -0.9565 -11 -0.9565c-7.65217 0 -11 0.9565 -11 0.9565V2.91302s3.34783 0.95653 11 0.95653c7.6522 0 11 -0.95653 11 -0.95653V18.2174Z" stroke-width="1"></path>
  <path fill="#c2f3ff" d="M19.0161 3.54911c-2.3318 0.22528 -4.6735 0.33223 -7.0161 0.32044 -7.65217 0 -11 -0.95653 -11 -0.95653V18.2174c1.30961 -0.316 2.64199 -0.5286 3.98487 -0.6361L19.0161 3.54911Z" stroke-width="1"></path>
  <path stroke="#191919" stroke-linecap="round" stroke-linejoin="round" d="M23 18.2174s-3.3478 -0.9565 -11 -0.9565c-7.65217 0 -11 0.9565 -11 0.9565V2.91302s3.34783 0.95653 11 0.95653c7.6522 0 11 -0.95653 11 -0.95653V18.2174Z" stroke-width="1"></path>
</svg>