<svg xmlns="http://www.w3.org/2000/svg" fill="none" viewBox="0 0 24 24" id="Smart-Watch-Circle-Wifi--Streamline-Ultimate">
  <desc>
    Smart Watch Circle Wifi Streamline Icon: https://streamlinehq.com
  </desc>
  <path fill="#e3e3e3" d="M7.53076 5.20583 8.65181 1h6.69569l1.121 4.20679" stroke-width="1"></path>
  <path stroke="#191919" stroke-linecap="round" stroke-linejoin="round" d="M7.53076 5.20583 8.65181 1h6.69569l1.121 4.20679" stroke-width="1"></path>
  <path fill="#e3e3e3" d="M7.51367 18.731 8.65193 23h6.69567l1.1536 -4.2279" stroke-width="1"></path>
  <path stroke="#191919" stroke-linecap="round" stroke-linejoin="round" d="M7.51367 18.731 8.65193 23h6.69567l1.1536 -4.2279" stroke-width="1"></path>
  <path fill="#66e1ff" d="M12.0001 20.1305c2.1563 0 4.2243 -0.8566 5.7491 -2.3814 1.5247 -1.5247 2.3813 -3.5928 2.3813 -5.7491 0 -2.15631 -0.8566 -4.22432 -2.3813 -5.74908 -1.5248 -1.52475 -3.5928 -2.38135 -5.7491 -2.38135 -2.15635 0 -4.22436 0.8566 -5.74912 2.38135C4.72623 7.77568 3.86963 9.84369 3.86963 12c0 2.1563 0.8566 4.2244 2.38135 5.7491 1.52476 1.5248 3.59277 2.3814 5.74912 2.3814Z" stroke-width="1"></path>
  <path fill="#c2f3ff" d="M6.25131 17.7487c-1.49543 -1.5307 -2.32711 -3.5892 -2.31465 -5.7291 0.01246 -2.1399 0.86806 -4.1886 2.38122 -5.70175 1.51315 -1.51316 3.56185 -2.36876 5.70172 -2.38122 2.1399 -0.01246 4.1984 0.81922 5.7291 2.31465L6.25131 17.7487Z" stroke-width="1"></path>
  <path stroke="#191919" stroke-linecap="round" stroke-linejoin="round" d="M12.0001 20.1305c2.1563 0 4.2243 -0.8566 5.7491 -2.3814 1.5247 -1.5247 2.3813 -3.5928 2.3813 -5.7491 0 -2.15631 -0.8566 -4.22432 -2.3813 -5.74908 -1.5248 -1.52475 -3.5928 -2.38135 -5.7491 -2.38135 -2.15635 0 -4.22436 0.8566 -5.74912 2.38135C4.72623 7.77568 3.86963 9.84369 3.86963 12c0 2.1563 0.8566 4.2244 2.38135 5.7491 1.52476 1.5248 3.59277 2.3814 5.74912 2.3814Z" stroke-width="1"></path>
  <path stroke="#191919" d="M11.9999 15.3c-0.0634 0 -0.1243 -0.0252 -0.1691 -0.0701 -0.0449 -0.0448 -0.0701 -0.1056 -0.0701 -0.1691 0 -0.0634 0.0252 -0.1242 0.0701 -0.169 0.0448 -0.0449 0.1057 -0.0701 0.1691 -0.0701" stroke-width="1"></path>
  <path stroke="#191919" d="M12 15.3c0.0634 0 0.1242 -0.0252 0.1691 -0.0701 0.0448 -0.0448 0.07 -0.1056 0.07 -0.1691 0 -0.0634 -0.0252 -0.1242 -0.07 -0.169 -0.0449 -0.0449 -0.1057 -0.0701 -0.1691 -0.0701" stroke-width="1"></path>
  <path stroke="#191919" stroke-linecap="round" stroke-linejoin="round" d="M15.826 10.4839c-1.0828 -0.87589 -2.4333 -1.35377 -3.8261 -1.35377 -1.3927 0 -2.74328 0.47788 -3.82607 1.35377" stroke-width="1"></path>
  <path stroke="#191919" stroke-linecap="round" stroke-linejoin="round" d="M9.76807 12.7891c0.63163 -0.5106 1.41933 -0.7892 2.23153 -0.7892 0.8123 0 1.5999 0.2786 2.2316 0.7892" stroke-width="1"></path>
</svg>