<svg xmlns="http://www.w3.org/2000/svg" fill="none" viewBox="0 0 24 24" id="Smart-Watch-Square-Location--Streamline-Ultimate">
  <desc>
    Smart Watch Square Location Streamline Icon: https://streamlinehq.com
  </desc>
  <path fill="#66e1ff" d="M18.2174 3.86957H5.78267c-0.50737 0 -0.99396 0.20155 -1.35272 0.56031 -0.35877 0.35877 -0.56032 0.84536 -0.56032 1.35273V18.2174c0 0.5073 0.20155 0.9939 0.56032 1.3527 0.35876 0.3588 0.84535 0.5603 1.35272 0.5603H18.2174c0.5074 0 0.994 -0.2015 1.3528 -0.5603 0.3587 -0.3588 0.5603 -0.8454 0.5603 -1.3527V5.78261c0 -0.50737 -0.2016 -0.99396 -0.5603 -1.35273 -0.3588 -0.35876 -0.8454 -0.56031 -1.3528 -0.56031Z" stroke-width="1"></path>
  <path fill="#c2f3ff" d="M19.5699 4.43009c-0.1774 -0.17787 -0.3882 -0.31894 -0.6203 -0.41513 -0.2321 -0.09619 -0.4809 -0.1456 -0.7322 -0.14539H5.78267c-0.50737 0 -0.99396 0.20155 -1.35272 0.56032 -0.35877 0.35876 -0.56032 0.84535 -0.56032 1.35272V18.2174c-0.00026 0.2512 0.04913 0.5 0.14532 0.7322 0.09619 0.2321 0.23729 0.4429 0.4152 0.6203L19.5699 4.43009Z" stroke-width="1"></path>
  <path stroke="#191919" stroke-linecap="round" stroke-linejoin="round" d="M18.2174 3.86957H5.78267c-0.50737 0 -0.99396 0.20155 -1.35272 0.56031 -0.35877 0.35877 -0.56032 0.84536 -0.56032 1.35273V18.2174c0 0.5073 0.20155 0.9939 0.56032 1.3527 0.35876 0.3588 0.84535 0.5603 1.35272 0.5603H18.2174c0.5074 0 0.994 -0.2015 1.3528 -0.5603 0.3587 -0.3588 0.5603 -0.8454 0.5603 -1.3527V5.78261c0 -0.50737 -0.2016 -0.99396 -0.5603 -1.35273 -0.3588 -0.35876 -0.8454 -0.56031 -1.3528 -0.56031Z" stroke-width="1"></path>
  <path fill="#e3e3e3" stroke="#191919" stroke-linecap="round" stroke-linejoin="round" d="M16.304 3.86956H7.69531L8.65183 1h6.69567l0.9565 2.86956Z" stroke-width="1"></path>
  <path fill="#e3e3e3" stroke="#191919" stroke-linecap="round" stroke-linejoin="round" d="M7.69531 20.1304H16.304L15.3475 23H8.65183l-0.95652 -2.8696Z" stroke-width="1"></path>
  <path fill="#ff808c" d="M15.826 11.5218c0 2.3913 -3.8261 5.7391 -3.8261 5.7391s-3.82607 -3.3478 -3.82607 -5.7391c0 -0.5025 0.09896 -1 0.29124 -1.4642 0.19228 -0.46422 0.47411 -0.886 0.82939 -1.24129 0.35529 -0.35528 0.77704 -0.63711 1.24124 -0.82939 0.4642 -0.19228 0.9618 -0.29124 1.4642 -0.29124 0.5025 0 1 0.09896 1.4642 0.29124 0.4642 0.19228 0.886 0.47411 1.2413 0.82939 0.3552 0.35529 0.6371 0.77707 0.8293 1.24129 0.1923 0.4642 0.2913 0.9617 0.2913 1.4642Z" stroke-width="1"></path>
  <path fill="#ffbfc5" d="M11.9999 7.69568c-1.0147 0 -1.9879 0.4031 -2.70544 1.12063 -0.71753 0.71753 -1.12063 1.69069 -1.12063 2.70549 0.09083 0.9393 0.44382 1.8342 1.01869 2.5826l5.38998 -5.38811c-0.7014 -0.65366 -1.6238 -1.01819 -2.5826 -1.02061Z" stroke-width="1"></path>
  <path stroke="#191919" stroke-linecap="round" stroke-linejoin="round" d="M15.826 11.5218c0 2.3913 -3.8261 5.7391 -3.8261 5.7391s-3.82607 -3.3478 -3.82607 -5.7391c0 -0.5025 0.09896 -1 0.29124 -1.4642 0.19228 -0.46422 0.47411 -0.886 0.82939 -1.24129 0.35529 -0.35528 0.77704 -0.63711 1.24124 -0.82939 0.4642 -0.19228 0.9618 -0.29124 1.4642 -0.29124 0.5025 0 1 0.09896 1.4642 0.29124 0.4642 0.19228 0.886 0.47411 1.2413 0.82939 0.3552 0.35529 0.6371 0.77707 0.8293 1.24129 0.1923 0.4642 0.2913 0.9617 0.2913 1.4642Z" stroke-width="1"></path>
  <path stroke="#191919" d="M11.9999 11.7197c-0.0634 0 -0.1243 -0.0252 -0.1691 -0.07 -0.0449 -0.0449 -0.0701 -0.1057 -0.0701 -0.1691s0.0252 -0.1243 0.0701 -0.1691c0.0448 -0.0449 0.1057 -0.07 0.1691 -0.07" stroke-width="1"></path>
  <path stroke="#191919" d="M12 11.7197c0.0634 0 0.1242 -0.0252 0.1691 -0.07 0.0448 -0.0449 0.07 -0.1057 0.07 -0.1691s-0.0252 -0.1243 -0.07 -0.1691c-0.0449 -0.0449 -0.1057 -0.07 -0.1691 -0.07" stroke-width="1"></path>
</svg>