<svg xmlns="http://www.w3.org/2000/svg" fill="none" viewBox="0 0 24 24" id="Smart-Watch-Square-Download--Streamline-Ultimate">
  <desc>
    Smart Watch Square Download Streamline Icon: https://streamlinehq.com
  </desc>
  <path fill="#66e1ff" d="M18.2175 3.86957H5.78267c-1.05654 0 -1.91304 0.8565 -1.91304 1.91304V18.2174c0 1.0566 0.8565 1.9131 1.91304 1.9131H18.2175c1.0565 0 1.913 -0.8565 1.913 -1.9131V5.78261c0 -1.05654 -0.8565 -1.91304 -1.913 -1.91304Z" stroke-width="1"></path>
  <path fill="#c2f3ff" d="M19.57 4.43009c-0.1774 -0.17791 -0.3883 -0.31901 -0.6203 -0.41521 -0.2322 -0.09618 -0.4809 -0.14557 -0.7322 -0.14531H5.78268c-0.50737 0 -0.99397 0.20155 -1.35273 0.56032 -0.35877 0.35876 -0.56032 0.84536 -0.56032 1.35272V18.2174c-0.00026 0.2513 0.04913 0.5001 0.14531 0.7322 0.0962 0.2321 0.2373 0.4429 0.41521 0.6203L19.57 4.43009Z" stroke-width="1"></path>
  <path stroke="#191919" stroke-linecap="round" stroke-linejoin="round" d="M18.2175 3.86957H5.78267c-1.05654 0 -1.91304 0.8565 -1.91304 1.91304V18.2174c0 1.0566 0.8565 1.9131 1.91304 1.9131H18.2175c1.0565 0 1.913 -0.8565 1.913 -1.9131V5.78261c0 -1.05654 -0.8565 -1.91304 -1.913 -1.91304Z" stroke-width="1"></path>
  <path fill="#e3e3e3" stroke="#191919" stroke-linecap="round" stroke-linejoin="round" d="M16.304 3.86957H7.69531L8.65184 1h6.69566l0.9565 2.86957Z" stroke-width="1"></path>
  <path fill="#e3e3e3" stroke="#191919" stroke-linecap="round" stroke-linejoin="round" d="M7.69531 20.1304H16.304L15.3475 23H8.65184l-0.95653 -2.8696Z" stroke-width="1"></path>
  <path fill="#78eb7b" d="M11.9999 16.7826c2.6413 0 4.7826 -2.1413 4.7826 -4.7826 0 -2.64137 -2.1413 -4.78262 -4.7826 -4.78262 -2.64136 0 -4.78261 2.14125 -4.78261 4.78262 0 2.6413 2.14125 4.7826 4.78261 4.7826Z" stroke-width="1"></path>
  <path fill="#c9f7ca" d="M8.61778 15.3823C7.72074 14.4852 7.2168 13.2686 7.2168 12c0 -1.2686 0.50394 -2.48522 1.40098 -3.38225 0.89702 -0.89703 2.11362 -1.40098 3.38232 -1.40098 1.2685 0 2.4852 0.50395 3.3822 1.40098L8.61778 15.3823Z" stroke-width="1"></path>
  <path stroke="#191919" stroke-linecap="round" stroke-linejoin="round" d="M11.9999 16.7826c2.6413 0 4.7826 -2.1413 4.7826 -4.7826 0 -2.64137 -2.1413 -4.78262 -4.7826 -4.78262 -2.64136 0 -4.78261 2.14125 -4.78261 4.78262 0 2.6413 2.14125 4.7826 4.78261 4.7826Z" stroke-width="1"></path>
  <path stroke="#191919" stroke-linecap="round" stroke-linejoin="round" d="M12 13.913v-3.8261" stroke-width="1"></path>
  <path stroke="#191919" stroke-linecap="round" stroke-linejoin="round" d="M10.0869 12 12 13.913 13.913 12" stroke-width="1"></path>
</svg>