<svg xmlns="http://www.w3.org/2000/svg" fill="none" viewBox="0 0 24 24" id="Wall-Socket-1--Streamline-Ultimate">
  <desc>
    Wall Socket 1 Streamline Icon: https://streamlinehq.com
  </desc>
  <path fill="#ffffff" d="M20.1304 2.91302H3.86957C2.28461 2.91302 1 6.98207 1 12c0 5.0179 1.28461 9.0869 2.86957 9.0869H20.1304C21.7144 21.0869 23 17.0179 23 12c0 -5.01793 -1.2856 -9.08698 -2.8696 -9.08698Z" stroke-width="1"></path>
  <path fill="#e3e3e3" d="M20.1304 18.2174H3.86957c-1.43479 0 -2.61705 -3.3153 -2.83418 -7.6522C1.01243 11.0329 1 11.5121 1 12c0 5.0179 1.28461 9.0869 2.86957 9.0869H20.1304C21.7144 21.0869 23 17.0179 23 12c0 -0.4879 -0.0124 -0.9671 -0.0354 -1.4348 -0.2181 4.3369 -1.3994 7.6522 -2.8342 7.6522Z" stroke-width="1"></path>
  <path stroke="#191919" stroke-linecap="round" stroke-linejoin="round" d="M20.1304 2.91302H3.86957C2.28461 2.91302 1 6.98207 1 12c0 5.0179 1.28461 9.0869 2.86957 9.0869H20.1304C21.7144 21.0869 23 17.0179 23 12c0 -5.01793 -1.2856 -9.08698 -2.8696 -9.08698Z" stroke-width="1"></path>
  <path fill="#808080" d="M12.0002 13.4347c-0.5696 -0.0572 -1.1389 0.111 -1.586 0.4686 -0.44702 0.3577 -0.73612 0.8762 -0.80531 1.4445v2.8695h4.78261v-2.8695c-0.0692 -0.5683 -0.3583 -1.0868 -0.8053 -1.4445 -0.4471 -0.3576 -1.0164 -0.5258 -1.586 -0.4686Z" stroke-width="1"></path>
  <path fill="#6b6b6b" d="M12.0002 13.4347c-0.5696 -0.0572 -1.1389 0.111 -1.586 0.4686 -0.44702 0.3577 -0.73612 0.8762 -0.80531 1.4445v1.913c0.06919 -0.5683 0.35829 -1.0868 0.80531 -1.4444 0.4471 -0.3577 1.0164 -0.5258 1.586 -0.4686 0.5696 -0.0572 1.1389 0.1109 1.586 0.4686 0.447 0.3576 0.7361 0.8761 0.8053 1.4444v-1.913c-0.0692 -0.5683 -0.3583 -1.0868 -0.8053 -1.4445 -0.4471 -0.3576 -1.0164 -0.5258 -1.586 -0.4686Z" stroke-width="1"></path>
  <path stroke="#191919" stroke-linecap="round" stroke-linejoin="round" d="M12.0002 13.4347c-0.5696 -0.0572 -1.1389 0.111 -1.586 0.4686 -0.44702 0.3577 -0.73612 0.8762 -0.80531 1.4445v2.8695h4.78261v-2.8695c-0.0692 -0.5683 -0.3583 -1.0868 -0.8053 -1.4445 -0.4471 -0.3576 -1.0164 -0.5258 -1.586 -0.4686Z" stroke-width="1"></path>
  <path stroke="#191919" stroke-linecap="round" stroke-linejoin="round" d="M7.69531 6.73907v4.78263" stroke-width="1"></path>
  <path stroke="#191919" stroke-linecap="round" stroke-linejoin="round" d="M16.3042 6.73907v4.78263" stroke-width="1"></path>
</svg>