<svg xmlns="http://www.w3.org/2000/svg" viewBox="0 0 14 14">
  <g>
    <path d="M8.75,1.75h4.5A.76.76,0,0,0,14,1a.76.76,0,0,0-.75-.75H8.75A.76.76,0,0,0,8,1,.76.76,0,0,0,8.75,1.75Z" style="fill: #000001"/>
    <path d="M13.25,4.25H8.75a.75.75,0,0,0,0,1.5h4.5a.75.75,0,0,0,0-1.5Z" style="fill: #000001"/>
    <path d="M4.25,6H1.75A1.76,1.76,0,0,1,0,4.25V1.75A1.76,1.76,0,0,1,1.75,0h2.5A1.76,1.76,0,0,1,6,1.75v2.5A1.76,1.76,0,0,1,4.25,6ZM1.75,1.5a.25.25,0,0,0-.25.25v2.5a.25.25,0,0,0,.25.25h2.5a.25.25,0,0,0,.25-.25V1.75a.25.25,0,0,0-.25-.25Z" style="fill: #000001"/>
    <path d="M13.25,8.25H8.75a.75.75,0,0,0,0,1.5h4.5a.75.75,0,0,0,0-1.5Z" style="fill: #000001"/>
    <path d="M13.25,12.25H8.75a.75.75,0,0,0,0,1.5h4.5a.75.75,0,0,0,0-1.5Z" style="fill: #000001"/>
    <path d="M4.25,14H1.75A1.76,1.76,0,0,1,0,12.25V9.75A1.76,1.76,0,0,1,1.75,8h2.5A1.76,1.76,0,0,1,6,9.75v2.5A1.76,1.76,0,0,1,4.25,14ZM1.75,9.5a.25.25,0,0,0-.25.25v2.5a.25.25,0,0,0,.25.25h2.5a.25.25,0,0,0,.25-.25V9.75a.25.25,0,0,0-.25-.25Z" style="fill: #000001"/>
  </g>
</svg>
