<svg xmlns="http://www.w3.org/2000/svg" fill="none" viewBox="0 0 48 48" id="Crosshair--Streamline-Kameleon">
  <desc>
    Crosshair Streamline Icon: https://streamlinehq.com
  </desc>
  <path fill="#deeeff" d="M23.9989 47.9988c13.2549 0 23.9999 -10.745 23.9999 -23.9999 0 -13.2549 -10.745 -23.999876562 -23.9999 -23.999876562C10.744 -0.000976562 -0.000976562 10.744 -0.000976562 23.9989 -0.000976562 37.2538 10.744 47.9988 23.9989 47.9988Z" stroke-width="1"></path>
  <path fill="#6bafff" d="M23.9994 36.2175c6.7479 0 12.2181 -5.4702 12.2181 -12.2181s-5.4702 -12.2182 -12.2181 -12.2182 -12.2182 5.4703 -12.2182 12.2182 5.4703 12.2181 12.2182 12.2181Z" stroke-width="1"></path>
  <path fill="#2e3ecd" d="M23.9984 25.7448c0.4629 0 0.9069 -0.1839 1.2342 -0.5112 0.3273 -0.3274 0.5112 -0.7713 0.5112 -1.2342 0 -0.463 -0.1839 -0.9069 -0.5112 -1.2343 -0.3273 -0.3273 -0.7713 -0.5112 -1.2342 -0.5112s-0.9069 0.1839 -1.2342 0.5112c-0.3274 0.3274 -0.5113 0.7713 -0.5113 1.2343 0 0.4629 0.1839 0.9068 0.5113 1.2342 0.3273 0.3273 0.7713 0.5112 1.2342 0.5112Z" stroke-width="1"></path>
  <path fill="#2e3ecd" d="M23.9987 10.0356c-7.7118 0 -13.9635 6.2518 -13.9635 13.9636 0 7.7118 6.2517 13.9636 13.9635 13.9636s13.9636 -6.2518 13.9636 -13.9636c0 -7.7118 -6.2518 -13.9636 -13.9636 -13.9636Zm1.3091 26.111v-5.1787c0 -0.3437 -0.1365 -0.6734 -0.3796 -0.9164 -0.243 -0.2431 -0.5727 -0.3796 -0.9164 -0.3796h-0.0262c-0.3437 0 -0.6733 0.1365 -0.9164 0.3796 -0.243 0.243 -0.3796 0.5727 -0.3796 0.9164v5.1787c-5.7019 -0.6074 -10.2309 -5.1364 -10.8383 -10.8383H17.03c0.3437 0 0.6734 -0.1365 0.9164 -0.3796 0.2431 -0.243 0.3796 -0.5727 0.3796 -0.9164v-0.0262c0 -0.3437 -0.1365 -0.6733 -0.3796 -0.9164 -0.243 -0.243 -0.5727 -0.3796 -0.9164 -0.3796h-5.1787c0.6074 -5.7019 5.1364 -10.2309 10.8383 -10.8383v5.1787c0 0.3437 0.1366 0.6734 0.3796 0.9164 0.2431 0.2431 0.5727 0.3796 0.9164 0.3796h0.0262c0.3437 0 0.6734 -0.1365 0.9164 -0.3796 0.2431 -0.243 0.3796 -0.5727 0.3796 -0.9164v-5.1787c5.7019 0.6074 10.2309 5.1364 10.8383 10.8383h-5.1787c-0.3437 0 -0.6733 0.1366 -0.9164 0.3796 -0.243 0.2431 -0.3796 0.5727 -0.3796 0.9164v0.0266c0 0.3438 0.1366 0.6734 0.3796 0.9164 0.2431 0.2431 0.5727 0.3796 0.9164 0.3796h5.1787c-0.6074 5.7015 -5.1364 10.2305 -10.8383 10.8379Z" stroke-width="1"></path>
</svg>