<svg xmlns="http://www.w3.org/2000/svg" fill="none" viewBox="0 0 48 48" id="Filter--Streamline-Kameleon">
  <desc>
    Filter Streamline Icon: https://streamlinehq.com
  </desc>
  <path fill="#deeeff" d="M23.9999 47.9983c13.2548 0 23.9998 -10.7451 23.9998 -23.9999S37.2547 -0.00146484 23.9999 -0.00146484C10.7451 -0.00146484 0 10.7436 0 23.9984c0 13.2548 10.7451 23.9999 23.9999 23.9999Z" stroke-width="1"></path>
  <path fill="#2e3ecd" d="m35.4123 21.0018 2.551 -2.8944H10.0361l11.3454 12.8727v6.9818h5.2364v-4.4047c0.7435 0.3949 1.5346 0.6624 2.3432 0.7968 2.5436 0.4229 5.2442 -0.4333 7.0726 -2.5051 2.8001 -3.1732 2.5143 -8.0199 -0.6214 -10.8471Zm-1.6961 8.8023c-1.6709 1.8934 -4.5543 2.0919 -6.4717 0.4652l6.1243 -6.9487c1.8567 1.6992 2.0199 4.5884 0.3474 6.4835Z" stroke-width="1"></path>
  <path fill="#6bafff" d="M37.9633 14.3984H10.0361v3.7091h27.9272v-3.7091Z" stroke-width="1"></path>
</svg>