<svg xmlns="http://www.w3.org/2000/svg" fill="none" viewBox="0 0 48 48" id="Magic-Wand--Streamline-Kameleon">
  <desc>
    Magic Wand Streamline Icon: https://streamlinehq.com
  </desc>
  <path fill="#deeeff" d="M23.9979 47.9978c13.2548 0 23.9999 -10.7451 23.9999 -23.9999S37.2527 -0.00195312 23.9979 -0.00195312 -0.00195312 10.7431 -0.00195312 23.9979c0 13.2548 10.74505312 23.9999 23.99985312 23.9999Z" stroke-width="1"></path>
  <path fill="#2e3ecd" d="m10.9072 34.2591 3.7026 3.7026 15.4276 -15.4275 -3.7026 -3.7027 -15.4276 15.4276Z" stroke-width="1"></path>
  <path fill="#6bafff" d="m26.335 18.8313 3.7026 3.7026 5.5539 -5.5539 -3.7026 -3.7027 -5.5539 5.554Z" stroke-width="1"></path>
  <path fill="#6bafff" d="M18.3427 14.5489c-0.0101 0.0013 -0.0175 0.01 -0.0175 0.02v0.0402c0 0.007 0.0052 0.0126 0.0118 0.0135 1.3715 0.1868 2.3799 1.1939 2.5688 2.5641 0.0013 0.01 0.0101 0.0174 0.0201 0.0174h0.0402c0.0069 0 0.0126 -0.0052 0.0135 -0.0118 0.1867 -1.3715 1.1939 -2.3799 2.564 -2.5693 0.0101 -0.0013 0.0175 -0.01 0.0175 -0.02v-0.0402c0 -0.007 -0.0052 -0.0126 -0.0118 -0.0135 -1.3715 -0.1868 -2.3799 -1.1939 -2.5693 -2.5641 -0.0013 -0.01 -0.01 -0.0174 -0.0201 -0.0174h-0.0283c-0.0135 0 -0.0249 0.01 -0.0271 0.0235 -0.1902 1.3654 -1.1952 2.369 -2.5618 2.5576Z" stroke-width="1"></path>
  <path fill="#6bafff" d="M32.3065 25.4576c-0.01 0.0013 -0.0174 0.01 -0.0174 0.0201v0.0458c0 0.0035 0.0026 0.0061 0.0061 0.0065 1.3745 0.1846 2.3856 1.1926 2.5749 2.565 0.0013 0.01 0.0101 0.0174 0.0201 0.0174h0.0284c0.0135 0 0.0253 -0.01 0.027 -0.0235 0.1898 -1.3597 1.1874 -2.3603 2.5449 -2.5549 0.0201 -0.0022 0.0349 -0.0197 0.0349 -0.0398v-0.0222c0 -0.007 -0.0052 -0.0127 -0.0118 -0.0135 -1.3715 -0.1868 -2.3799 -1.1939 -2.5693 -2.5641 -0.0013 -0.01 -0.01 -0.0174 -0.0201 -0.0174h-0.0283c-0.0135 0 -0.0253 0.01 -0.0271 0.0235 -0.1907 1.365 -1.1956 2.3686 -2.5623 2.5571Z" stroke-width="1"></path>
  <path fill="#6bafff" d="M34.9177 12.1642c-0.0061 0.0004 -0.0105 0.0057 -0.0105 0.0118v0.0166c0 0.0078 0.0057 0.0148 0.0136 0.0157 0.7998 0.1117 1.3867 0.7025 1.4932 1.505h0.0406c0.1069 -0.8069 0.6999 -1.3999 1.5067 -1.5068v-0.0406c-0.8068 -0.1069 -1.3998 -0.6999 -1.5067 -1.5067h-0.0406c-0.1065 0.8029 -0.6947 1.3942 -1.4963 1.505Z" stroke-width="1"></path>
</svg>