<svg xmlns="http://www.w3.org/2000/svg" fill="none" viewBox="0 0 48 48" id="Tease-Smiley--Streamline-Kameleon">
  <desc>
    Tease Smiley Streamline Icon: https://streamlinehq.com
  </desc>
  <path fill="#deeeff" d="M23.9979 47.9958c13.2548 0 23.9999 -10.7451 23.9999 -23.9998 0 -13.2548 -10.7451 -23.99990625 -23.9999 -23.99990625S-0.00195312 10.7412 -0.00195312 23.996c0 13.2547 10.74505312 23.9998 23.99985312 23.9998Z" stroke-width="1"></path>
  <path fill="#2e3ecd" d="M23.9977 37.9594c7.7119 0 13.9636 -6.2518 13.9636 -13.9636 0 -7.7119 -6.2517 -13.9636 -13.9636 -13.9636 -7.7118 0 -13.9635 6.2517 -13.9635 13.9636 0 7.7118 6.2517 13.9636 13.9635 13.9636Z" stroke-width="1"></path>
  <path fill="#6bafff" d="M23.9973 33.9668c-4.2196 0 -7.1424 -2.8429 -8.2097 -4.6979 -0.1859 -0.3229 -0.1855 -0.72 0.0009 -1.0424 0.1863 -0.3225 0.5301 -0.5219 0.9028 -0.5219h14.6124c0.3722 0 0.7165 0.1985 0.9033 0.5206 0.1868 0.3224 0.1876 0.72 0.0022 1.0429 -1.0678 1.8549 -3.9919 4.6987 -8.2119 4.6987Z" stroke-width="1"></path>
  <path fill="#2e3ecd" d="M27.4886 32.5049c0 1.9086 -1.5473 3.456 -3.456 3.456 -2.0884 0 -3.5258 -1.6316 -3.5258 -3.456v-3.9273h6.9818v3.9273Z" stroke-width="1"></path>
  <path fill="#6bafff" fill-rule="evenodd" d="M19.6348 28.5773c0 -0.482 0.3907 -0.8727 0.8727 -0.8727h6.9818c0.482 0 0.8727 0.3907 0.8727 0.8727v3.9273c0 2.3906 -1.9381 4.3287 -4.3287 4.3287 -2.5906 0 -4.3985 -2.0428 -4.3985 -4.3287v-3.9273Zm4.3985 7.3832c1.9086 0 3.456 -1.5473 3.456 -3.4559v-3.9273h-6.9818v3.9273c0 1.8244 1.4374 3.4559 3.5258 3.4559Z" clip-rule="evenodd" stroke-width="1"></path>
  <path fill="#6bafff" d="M24.4342 28.5776h-0.8727v3.1069c0 0.2121 0.1933 0.384 0.432 0.384h0.0087c0.2387 0 0.432 -0.1719 0.432 -0.384v-3.1069Z" stroke-width="1"></path>
  <path fill="#6bafff" d="M21.5982 22.2502c-0.3613 0 -0.6545 -0.2933 -0.6545 -0.6546 0 -1.5639 -1.2724 -2.8363 -2.8364 -2.8363 -1.5639 0 -2.8363 1.2724 -2.8363 2.8363 0 0.3613 -0.2932 0.6546 -0.6545 0.6546 -0.3614 0 -0.6546 -0.2933 -0.6546 -0.6546 0 -2.2856 1.8598 -4.1454 4.1454 -4.1454 2.2857 0 4.1455 1.8598 4.1455 4.1454 0 0.3613 -0.2933 0.6546 -0.6546 0.6546Z" stroke-width="1"></path>
  <path fill="#6bafff" d="M33.3795 22.2502c-0.3613 0 -0.6546 -0.2933 -0.6546 -0.6546 0 -1.5639 -1.2724 -2.8363 -2.8363 -2.8363s-2.8364 1.2724 -2.8364 2.8363c0 0.3613 -0.2932 0.6546 -0.6545 0.6546 -0.3613 0 -0.6545 -0.2933 -0.6545 -0.6546 0 -2.2856 1.8597 -4.1454 4.1454 -4.1454 2.2857 0 4.1454 1.8598 4.1454 4.1454 0 0.3613 -0.2932 0.6546 -0.6545 0.6546Z" stroke-width="1"></path>
</svg>