<svg xmlns="http://www.w3.org/2000/svg" fill="none" viewBox="0 0 48 48" id="Transfer-Cloud--Streamline-Kameleon">
  <desc>
    Transfer Cloud Streamline Icon: https://streamlinehq.com
  </desc>
  <path fill="#deeeff" d="M23.9989 47.9958c13.2548 0 23.9999 -10.7451 23.9999 -23.9998 0 -13.2548 -10.7451 -23.99990625 -23.9999 -23.99990625S-0.000976562 10.7412 -0.000976562 23.996c0 13.2547 10.745076562 23.9998 23.999876562 23.9998Z" stroke-width="1"></path>
  <path fill="#2e3ecd" d="M37.5258 24.8687c0 -2.568 -1.5862 -4.762 -3.8304 -5.6653 -1.7786 -4.3492 -4.6516 -6.1165 -8.1696 -6.1165 -3.3072 0 -6.1736 1.8847 -7.5791 4.6416 -2.2364 -0.9526 -4.7572 0.6292 -4.8506 3.0785 -2.0357 0.7178 -3.49747 2.6531 -3.49747 4.9344 0 2.8918 2.34457 5.2363 5.23637 5.2363h17.4544s5.2364 -0.9713 5.2364 -6.109Z" stroke-width="1"></path>
  <path fill="#6bafff" d="M19.6071 21.3379c-0.1205 0 -0.2182 0.0977 -0.2182 0.2182v4.2375c0 0.1204 -0.0977 0.2182 -0.2182 0.2182h-1.097c-0.0886 0 -0.1684 0.0536 -0.202 0.1361 -0.0336 0.082 -0.014 0.1763 0.0497 0.2383l3.2116 3.1326c0.0856 0.0833 0.2221 0.0825 0.3068 -0.0018l3.1313 -3.1326c0.0624 -0.0624 0.0812 -0.1562 0.0472 -0.2378 -0.0336 -0.0816 -0.1135 -0.1348 -0.2016 -0.1348h-1.1058c-0.1204 0 -0.2182 -0.0978 -0.2182 -0.2182l-0.0008 -4.2375c0 -0.1205 -0.0978 -0.2182 -0.2182 -0.2182h-3.2666Z" stroke-width="1"></path>
  <path fill="#6bafff" d="M27.2904 15.5492c-0.041 -0.0406 -0.0969 -0.0633 -0.1545 -0.0629 -0.058 0.0005 -0.113 0.0236 -0.154 0.0651l-3.1357 3.1758c-0.062 0.0624 -0.0799 0.1562 -0.0463 0.2374 0.0341 0.0811 0.1135 0.1339 0.2012 0.1339h1.1114c0.1204 0 0.2182 0.0978 0.2182 0.2182v4.1921c0 0.1205 0.0977 0.2182 0.2182 0.2182h3.2666c0.1204 0 0.2181 -0.0977 0.2181 -0.2182v-4.1921c0 -0.1204 0.0978 -0.2182 0.2182 -0.2182h1.1018c0.0886 0 0.1685 -0.0536 0.2021 -0.1352 0.0336 -0.0816 0.0144 -0.1759 -0.0485 -0.2383l-3.2168 -3.1758Z" stroke-width="1"></path>
</svg>