<svg xmlns="http://www.w3.org/2000/svg" fill="none" viewBox="0 0 48 48" id="Upload-Cloud-Computer--Streamline-Kameleon">
  <desc>
    Upload Cloud Computer Streamline Icon: https://streamlinehq.com
  </desc>
  <path fill="#deeeff" d="M23.9979 47.9958c13.2548 0 23.9999 -10.7451 23.9999 -23.9998 0 -13.2548 -10.7451 -23.99990625 -23.9999 -23.99990625S-0.00195312 10.7412 -0.00195312 23.996c0 13.2547 10.74505312 23.9998 23.99985312 23.9998Z" stroke-width="1"></path>
  <path fill="#2e3ecd" d="M29.2341 33.5957c0 0.4822 -0.3906 0.8727 -0.8727 0.8727H10.9069c-0.4822 0 -0.8727 -0.3905 -0.8727 -0.8727V21.3776c0 -0.4822 0.3905 -0.8727 0.8727 -0.8727h17.4545c0.4821 0 0.8727 0.3905 0.8727 0.8727v12.2181Z" stroke-width="1"></path>
  <path fill="#2e3ecd" d="M22.252 34.4688h-5.2364v2.6181h5.2364v-2.6181Z" stroke-width="1"></path>
  <path fill="#2e3ecd" d="M23.9977 37.5233c0 0.2408 -0.1955 0.4363 -0.4363 0.4363h-7.8545c-0.2409 0 -0.4364 -0.1955 -0.4364 -0.4363 0 -0.2409 0.1955 -0.4364 0.4364 -0.4364h7.8545c0.2408 0 0.4363 0.1955 0.4363 0.4364Z" stroke-width="1"></path>
  <path fill="#6bafff" d="M29.2341 33.5952v-2.6181H10.0342v2.6181c0 0.4818 0.391 0.8727 0.8727 0.8727h17.4545c0.4817 0 0.8727 -0.3905 0.8727 -0.8727Z" stroke-width="1"></path>
  <path fill="#6bafff" d="M37.5251 20.4119c0 -2.2398 -1.3837 -4.1537 -3.3416 -4.9422 -1.5513 -3.7938 -4.0573 -5.3354 -7.1267 -5.3354 -2.8848 0 -5.3855 1.6438 -6.6113 4.049 -1.9505 -0.8309 -4.1498 0.5489 -4.2314 2.6853 -1.776 0.6262 -3.051 2.3141 -3.051 4.3043 0 2.5226 2.0452 4.5678 4.5678 4.5678h15.226c0.0004 0.0005 4.5682 -0.8465 4.5682 -5.3288Z" stroke-width="1"></path>
  <path fill="#2e3ecd" d="M21.6893 19.141c0.089 0.2147 0.2989 0.3552 0.5315 0.3552h1.4875v4.0267c0 0.3177 0.2575 0.5751 0.5752 0.5751h3.4511c0.3177 0 0.5752 -0.2574 0.5752 -0.5751v-4.0267h1.4875c0.2326 0 0.4425 -0.1401 0.5315 -0.3552 0.089 -0.2152 0.0397 -0.4621 -0.1248 -0.6271l-3.7771 -3.4581c-0.2248 -0.2248 -0.5887 -0.2248 -0.8134 0l-3.7998 3.4581c-0.1641 0.165 -0.2134 0.4119 -0.1244 0.6271Z" stroke-width="1"></path>
</svg>