<svg xmlns="http://www.w3.org/2000/svg" fill="none" viewBox="0 0 14 14" id="Edit-Image-Photo--Streamline-Core">
  <desc>
    Edit Image Photo Streamline Icon: https://streamlinehq.com
  </desc>
  <g id="edit-image-photo">
    <g id="Group 4560">
      <path id="Subtract" fill="#8fbffa" fill-rule="evenodd" d="M0.67 0.67c0.372 -0.372 0.876 -0.58 1.402 -0.58h9.856a1.982 1.982 0 0 1 1.982 1.98v5.17l-1.456 -1.456a1.25 1.25 0 0 0 -1.769 0l-4.61 4.62a1.25 1.25 0 0 0 -0.352 0.71L5.429 13.2a1.25 1.25 0 0 0 0.108 0.71H2.072A1.982 1.982 0 0 1 0.09 11.929V2.07c0 -0.525 0.209 -1.03 0.58 -1.401Zm5.996 12.706 0 -0.002v0.002l2.09 -0.285 -0.803 0.11 -1.287 0.175Z" clip-rule="evenodd" stroke-width="1"></path>
      <path id="vector" fill="#2859c5" d="M8.94 5.547a1.478 1.478 0 1 0 0 -2.956 1.478 1.478 0 0 0 0 2.956Z" stroke-width="1"></path>
      <path id="Subtract_2" fill="#2859c5" fill-rule="evenodd" d="M7.703 8.791a26.3 26.3 0 0 0 -0.733 -0.555A11.19 11.19 0 0 0 1.841 7c-0.595 0 -1.18 0.046 -1.751 0.136v4.793a1.982 1.982 0 0 0 1.982 1.982H5.52a1.25 1.25 0 0 1 -0.095 -0.68l0.296 -2.1a1.25 1.25 0 0 1 0.353 -0.708l1.628 -1.632Zm-1.04 4.614 0.001 -0.001v0.001Z" clip-rule="evenodd" stroke-width="1"></path>
      <path id="vector_2" fill="#2859c5" d="m13.405 8.477 -4.642 4.641 -2.099 0.286 0.296 -2.1 4.631 -4.64 1.814 1.813Z" stroke-width="1"></path>
    </g>
  </g>
</svg>