<svg xmlns="http://www.w3.org/2000/svg" fill="none" viewBox="0 0 14 14" id="Button-Fast-Forward-1--Streamline-Core-Remix">
  <desc>
    Button Fast Forward 1 Streamline Icon: https://streamlinehq.com
  </desc>
  <g id="Free Remix/Entertainment/button-fast-forward-1--button-controls-fast-forward-movies-television-video-tv">
    <path id="Union" fill="#000000" fill-rule="evenodd" d="M1.25 2.47822c0 -0.14964 0.08523 -0.2665 0.23056 -0.32368 0.14644 -0.05763 0.30513 -0.03349 0.42296 0.08554l4.37155 4.41593c0.06503 0.06569 0.09834 0.14857 0.09993 0.23187v0.01255c-0.00159 0.0833 -0.0349 0.16618 -0.09993 0.23187l-4.37155 4.4159c-0.11783 0.1191 -0.27652 0.1432 -0.42296 0.0856 -0.14533 -0.0572 -0.23056 -0.1741 -0.23056 -0.3237V2.47822Zm5.125 6.3299L2.79186 12.4276C1.79702 13.4326 0 12.7801 0 11.3101V2.47822C0 1.00823 1.79702 0.355727 2.79186 1.36067L6.375 4.98019V2.47822c0 -1.46999 1.79702 -2.122493 2.79186 -1.11755L13.5384 5.7766c0.6155 0.62179 0.6155 1.61332 0 2.23511L9.16686 12.4276c-0.99484 1.005 -2.79186 0.3525 -2.79186 -1.1175V8.80812Zm1.25 -1.90014v4.40212c0 0.1496 0.08523 0.2665 0.23056 0.3237 0.14644 0.0576 0.30513 0.0335 0.42296 -0.0856l4.37158 -4.4159c0.1333 -0.13467 0.1333 -0.34161 0 -0.47629L8.27852 2.24008c-0.11783 -0.11903 -0.27652 -0.14317 -0.42296 -0.08554 -0.14533 0.05718 -0.23056 0.17404 -0.23056 0.32368v4.40211c0.00008 0.00922 0.00008 0.01844 0 0.02765Z" clip-rule="evenodd" stroke-width="1"></path>
  </g>
</svg>