<svg xmlns="http://www.w3.org/2000/svg" fill="none" viewBox="0 0 14 14" id="Chess-Pawn--Streamline-Core-Remix">
  <desc>
    Chess Pawn Streamline Icon: https://streamlinehq.com
  </desc>
  <g id="Free Remix/Entertainment/chess-pawn">
    <path id="Union" fill="#000000" fill-rule="evenodd" d="M6.99991 1.25c-0.91226 0 -1.65179 0.73953 -1.65179 1.65178 0 0.90624 0.72981 1.64202 1.63376 1.65169h0.03605c0.90395 -0.00967 1.63376 -0.74545 1.63376 -1.65169 0 -0.91225 -0.73953 -1.65178 -1.65178 -1.65178ZM4.09812 2.90178c0 0.6137 0.19051 1.1829 0.51562 1.65169h-0.34569c-0.34518 0 -0.625 0.27982 -0.625 0.625 0 0.34517 0.27982 0.625 0.625 0.625h0.63348c-0.11155 0.62162 -0.27531 1.37497 -0.48512 2.0994 -0.14952 0.51624 -0.31898 1.00571 -0.50421 1.41718 -0.18975 0.4215 -0.37622 0.71585 -0.54121 0.88085l-0.00002 -0.0001 -0.00296 0.0031c-0.13083 0.1326 -0.24493 0.2319 -0.3541 0.3169h-0.16327c-0.58411 0 -1.1415 0.3483 -1.34741 0.9219l-0.61784 1.7211c-0.068731 0.1915 -0.039979 0.4044 0.07707 0.5708 0.11705 0.1664 0.30775 0.2654 0.51118 0.2654H12.5261c0.2035 0 0.3942 -0.099 0.5112 -0.2654 0.1171 -0.1664 0.1458 -0.3793 0.0771 -0.5708l-0.6178 -1.7211c-0.206 -0.5736 -0.7633 -0.9219 -1.3475 -0.9219h-0.16c-0.1092 -0.085 -0.2233 -0.1843 -0.3541 -0.3169l-0.003 -0.0031 0 0.0001c-0.165 -0.165 -0.3515 -0.45935 -0.5412 -0.88085 -0.18525 -0.41147 -0.35471 -0.90094 -0.50423 -1.41718 -0.20981 -0.72443 -0.37356 -1.47778 -0.48512 -2.0994h0.63087c0.34518 0 0.62498 -0.27983 0.62498 -0.625 0 -0.34518 -0.2798 -0.625 -0.62498 -0.625h-0.34625c0.32511 -0.46879 0.51562 -1.03799 0.51562 -1.65169C9.90169 1.29917 8.60252 0 6.99991 0S4.09812 1.29917 4.09812 2.90178Zm3.73453 2.90169H7.0238l-0.02389 0.00009 -0.0239 -0.00009h-0.80567c-0.11798 0.69871 -0.30465 1.58873 -0.55327 2.44714 -0.15939 0.55032 -0.34768 1.09973 -0.56505 1.58257 -0.10738 0.23852 -0.22701 0.47262 -0.36071 0.68762h4.62037c-0.13371 -0.215 -0.25333 -0.4491 -0.36071 -0.68762 -0.21737 -0.48284 -0.40567 -1.03225 -0.56505 -1.58257 -0.24862 -0.85841 -0.43529 -1.74843 -0.55327 -2.44714Z" clip-rule="evenodd" stroke-width="1"></path>
  </g>
</svg>