<svg xmlns="http://www.w3.org/2000/svg" fill="none" viewBox="0 0 14 14" id="One-Vesus-One--Streamline-Core-Remix">
  <desc>
    One Vesus One Streamline Icon: https://streamlinehq.com
  </desc>
  <g id="Free Remix/Entertainment/one-vesus-one--entertainment-gaming-one-vesus-one">
    <path id="Union" fill="#000000" fill-rule="evenodd" d="M3.08643 3.07694c0 -1.00899 0.81794 -1.82694 1.82693 -1.82694 1.00899 0 1.82694 0.81795 1.82694 1.82694s-0.81795 1.82694 -1.82694 1.82694 -1.82693 -0.81795 -1.82693 -1.82694ZM4.91336 0C3.21402 0 1.83643 1.37759 1.83643 3.07694s1.37759 3.07694 3.07693 3.07694c1.69935 0 3.07694 -1.37759 3.07694 -3.07694S6.61271 0 4.91336 0Zm0.00013 6.99048C2.19984 6.99048 0 9.19032 0 11.904v0.4904c0 0.2761 0.223858 0.5 0.5 0.5h4.23775c-0.06781 -0.2988 -0.0878 -0.6144 -0.05188 -0.9378l0.17089 -1.5385c0.14769 -1.32952 0.97864 -2.43278 2.11959 -2.97492 -0.62725 -0.29055 -1.32612 -0.4527 -2.06286 -0.4527ZM8.58376 8.2981c-1.29113 0 -2.3756 0.97105 -2.51815 2.2544l-0.17089 1.5384c-0.10571 0.9516 0.63901 1.7841 1.59661 1.7841 0.69154 0 1.30538 -0.4426 1.524 -1.0986l0.08676 -0.2604c0.03319 -0.0996 0.12629 -0.1666 0.23103 -0.1666h0.96868c0.1048 0 0.1979 0.067 0.2311 0.1666l0.0867 0.2604c0.2186 0.656 0.8325 1.0986 1.524 1.0986 0.9576 0 1.7023 -0.8325 1.5966 -1.7841l-0.1709 -1.5384c-0.1425 -1.28335 -1.227 -2.2544 -2.5181 -2.2544H8.58376Z" clip-rule="evenodd" stroke-width="1"></path>
  </g>
</svg>