<svg xmlns="http://www.w3.org/2000/svg" fill="none" viewBox="0 0 14 14" id="Play-Station--Streamline-Core-Remix">
  <desc>
    Play Station Streamline Icon: https://streamlinehq.com
  </desc>
  <g id="Free Remix/Entertainment/play-station--play-station-entertainment-gaming">
    <path id="Union" fill="#000000" fill-rule="evenodd" d="M5.87422 0.118163c0.16283 -0.117487066 0.37219 -0.149588 0.56274 -0.0862845L9.98697 1.21124c1.81133 0.56796 2.65093 2.32312 2.63973 3.7676 -0.0057 0.72823 -0.226 1.47759 -0.7515 1.98922 -0.557 0.54236 -1.3501 0.71474 -2.25105 0.45845 -0.00933 -0.00266 -0.0186 -0.00553 -0.02779 -0.00861l-1.64349 -0.55141c-0.32725 -0.1098 -0.50353 -0.4641 -0.39373 -0.79135 0.1098 -0.32725 0.46409 -0.50353 0.79134 -0.39373l1.62887 0.54651c0.54245 0.15085 0.84445 0.0192 1.02385 -0.15548 0.2125 -0.20683 0.3695 -0.58964 0.3735 -1.1033 0.0081 -1.03774 -0.6023 -2.203 -1.76759 -2.56637l-0.01103 -0.00344 0.00004 -0.0001 -2.7332 -0.90801V13.375c0 0.3452 -0.27982 0.625 -0.625 0.625s-0.625 -0.2798 -0.625 -0.625V0.625005c0 -0.200791 0.09647 -0.389356 0.2593 -0.506842ZM13.926 10.8401c-0.1995 0.6122 -0.7564 1.0463 -1.5086 1.3131 -0.0064 0.0022 -0.0128 0.0044 -0.0192 0.0064l-4.16679 1.3276c-0.32889 0.1048 -0.68045 -0.0768 -0.78524 -0.4057 -0.10479 -0.3289 0.07688 -0.6805 0.40577 -0.7853l4.15676 -1.3244c0.5601 -0.2005 0.6988 -0.427 0.7288 -0.519 0.0263 -0.0808 0.024 -0.2315 -0.1575 -0.4418 -0.3767 -0.43617 -1.276 -0.78666 -2.2134 -0.45637l-2.11046 0.77097c-0.32423 0.1185 -0.68307 -0.0484 -0.80152 -0.37258 -0.11844 -0.32422 0.04837 -0.68307 0.3726 -0.80152l2.11362 -0.77214 0.00599 -0.00219 0.00001 0.00003c1.41146 -0.49935 2.85716 -0.0193 3.57916 0.81679 0.3679 0.42606 0.6033 1.02211 0.4 1.64611ZM0.0884399 10.133C0.295884 9.54535 0.830176 9.11141 1.55734 8.82957l2.66044 -1.20565c0.3144 -0.14248 0.68477 -0.00311 0.82725 0.31129 0.14248 0.3144 0.00311 0.68478 -0.31129 0.82726L2.05682 9.97559c-0.01144 0.00518 -0.02302 0.01002 -0.03475 0.0145 -0.55556 0.21241 -0.71554 0.44741 -0.75491 0.55901 -0.03265 0.0925 -0.02941 0.235 0.1291 0.4258 0.33348 0.4013 1.19603 0.7594 2.20641 0.4411l0.63751 -0.2594c0.31972 -0.1301 0.68437 0.0236 0.81448 0.3433 0.13011 0.3197 -0.0236 0.6844 -0.34332 0.8145l-0.65989 0.2685c-0.0142 0.0058 -0.0286 0.0111 -0.04319 0.0158 -1.44139 0.4663 -2.86982 0.0218 -3.573416 -0.825 -0.3611685 -0.4346 -0.562312 -1.0291 -0.3464041 -1.6407Z" clip-rule="evenodd" stroke-width="1"></path>
  </g>
</svg>