<svg xmlns="http://www.w3.org/2000/svg" fill="none" viewBox="0 0 14 14" id="Speaker-2--Streamline-Core-Remix">
  <desc>
    Speaker 2 Streamline Icon: https://streamlinehq.com
  </desc>
  <g id="Free Remix/Entertainment/speaker-2--speakers-music-audio-entertainment">
    <path id="Subtract" fill="#000000" fill-rule="evenodd" d="M2.58624 1.25c-0.19649 0 -0.35577 0.15928 -0.35577 0.35577V12.3942c0 0.1965 0.15928 0.3558 0.35577 0.3558h8.82696c0.1964 0 0.3557 -0.1593 0.3557 -0.3558V1.60577c0 -0.19649 -0.1593 -0.35577 -0.3557 -0.35577H2.58624Zm-1.605771 0.35577C0.980469 0.718927 1.6994 0 2.58624 0h8.82696c0.8868 0 1.6057 0.718927 1.6057 1.60577V12.3942c0 0.8869 -0.7189 1.6058 -1.6057 1.6058H2.58624c-0.88684 0 -1.605771 -0.7189 -1.605771 -1.6058V1.60577ZM6.9998 5.02881c-1.90113 0 -3.4423 1.54117 -3.4423 3.44231 0 1.90108 1.54117 3.44228 3.4423 3.44228 1.90114 0 3.4423 -1.5412 3.4423 -3.44228 0 -1.90114 -1.54116 -3.44231 -3.4423 -3.44231Zm0.01835 -1.05603 -0.01844 0.00027c-0.4806 0 -0.87019 -0.3896 -0.87019 -0.87019 0 -0.47443 0.37966 -0.86018 0.85174 -0.87l0.01844 -0.00027c0.48059 0 0.87019 0.3896 0.87019 0.87019 0 0.47443 -0.37967 0.86019 -0.85174 0.87Zm0.0003 5.24333c-0.00622 0.00023 -0.01246 0.00035 -0.01874 0.00035 -0.41156 0 -0.74519 -0.33364 -0.74519 -0.74519 0 -0.40532 0.32358 -0.73505 0.72651 -0.74497 0.0062 -0.00022 0.01242 -0.00034 0.01867 -0.00034 0.41156 0 0.74519 0.33364 0.74519 0.74519 0 0.40529 -0.32354 0.73501 -0.72644 0.74496Z" clip-rule="evenodd" stroke-width="1"></path>
  </g>
</svg>