<svg xmlns="http://www.w3.org/2000/svg" fill="none" viewBox="0 0 14 14" id="Volume-Level-High--Streamline-Core-Remix">
  <desc>
    Volume Level High Streamline Icon: https://streamlinehq.com
  </desc>
  <g id="Free Remix/Entertainment/volume-level-high--speaker-high-volume-control-audio-music-entertainment">
    <path id="Union" fill="#000000" fill-rule="evenodd" d="M6.15548 1.26118c1.0565 -0.733219 2.47717 0.0413 2.45305 1.31718v8.86434l-0.00015 0c-0.02813 1.2707 -1.49777 2.0209 -2.5412 1.2968 -0.02832 -0.0197 -0.05496 -0.0417 -0.07965 -0.0657L2.82384 9.59357h-1.2177C0.72478 9.59357 0 8.86386 0 7.98445V6.01621c0 -0.8794 0.72478 -1.60912 1.60614 -1.60912h1.22243L6.08169 1.3212c0.02304 -0.02185 0.04771 -0.04192 0.07379 -0.06002Zm1.20323 1.29576c0.00606 -0.25527 -0.25322 -0.40112 -0.46023 -0.28761l-3.3905 3.21621c-0.11612 0.11015 -0.27008 0.17155 -0.43014 0.17155h-1.4717c-0.18743 0 -0.35614 0.16649 -0.35614 0.35912v1.96824c0 0.19263 0.16871 0.35912 0.35614 0.35912h1.4717c0.16287 0 0.31931 0.06358 0.436 0.17719L6.8127 11.7326c0.09823 0.0524 0.21998 0.0532 0.33783 -0.007 0.12935 -0.0659 0.20332 -0.1795 0.208 -0.3054V2.57178l0.00018 -0.01484Zm4.52069 0.36741c0.3543 -0.21454 0.8154 -0.10121 1.03 0.25311 0.697 1.1511 1.0731 2.46776 1.0895 3.81332v0.01824c-0.0164 1.34556 -0.3925 2.66221 -1.0895 3.81328 -0.2146 0.3544 -0.6757 0.4677 -1.03 0.2531 -0.3544 -0.2145 -0.4677 -0.6757 -0.2531 -1.03 0.5567 -0.91946 0.8579 -1.97082 0.8726 -3.0455 -0.0147 -1.07469 -0.3159 -2.12605 -0.8726 -3.04553 -0.2146 -0.35433 -0.1013 -0.81548 0.2531 -1.03002ZM9.83228 4.9504c0.31922 -0.26401 0.79192 -0.21929 1.05592 0.09989 0.4526 0.54712 0.6883 1.24097 0.6633 1.94973 0.025 0.70877 -0.2107 1.40262 -0.6633 1.94974 -0.264 0.31917 -0.7367 0.3639 -1.05592 0.09989 -0.31918 -0.26401 -0.3639 -0.73677 -0.0999 -1.05595 0.22204 -0.26842 0.33592 -0.61004 0.31932 -0.958 -0.0011 -0.02377 -0.0011 -0.04758 0 -0.07135 0.0166 -0.34796 -0.09728 -0.68958 -0.31932 -0.958 -0.264 -0.31918 -0.21928 -0.79194 0.0999 -1.05595Z" clip-rule="evenodd" stroke-width="1"></path>
  </g>
</svg>