<svg xmlns="http://www.w3.org/2000/svg" fill="none" viewBox="0 0 48 48" id="Beach-2--Streamline-Kameleon">
  <desc>
    Beach 2 Streamline Icon: https://streamlinehq.com
  </desc>
  <path fill="#25b7d3" d="M24 47.9977c13.255 0 24 -10.7445 24 -23.9988C48 10.7445 37.255 0 24 0S0 10.7445 0 23.9989c0 13.2543 10.745 23.9988 24 23.9988Z" stroke-width="1"></path>
  <path fill="#0c7367" d="M14.8179 27.4895c-0.4363 0.8727 0 2.6181 0.4364 3.4908 0.3582 -1.9369 1.0259 -3.3468 2.1818 -3.9271 1.1638 -0.291 2.3271 0 3.4909 0.8727 0.4364 -0.8727 -0.8727 -2.1817 -1.7454 -2.1817 0.5816 -0.8727 1.7454 -1.1638 3.4909 -0.8727 -0.8728 -0.8727 -2.3272 -1.1637 -4.3637 -0.8727 -0.0065 -0.9416 0.9321 -2.1695 2.1818 -3.4907 -1.6909 0.0824 -3.3024 0.9795 -4.8 3.0544 -1.6909 -0.2889 -3.3024 -0.0729 -4.8 0.8726 1.1054 -0.2858 2.6182 0.4364 3.0546 0.8727 -2.9267 0.8884 -3.6162 3.0483 -3.4909 5.6725 0.8727 -1.7454 2.3271 -2.9091 4.3636 -3.4908Z" stroke-width="1"></path>
  <path fill="#0c7367" d="M23.5451 23.1264c0.0406 -2.433 0.813 -4.3512 3.0546 -5.2361 -0.4364 -0.8727 -3.491 -2.1817 -6.5455 -2.1817 2.6182 -1.7454 6.9818 -1.7454 8.7273 -0.4364 0 -1.7453 -0.5817 -3.4907 -1.7455 -5.2361 2.1818 0.4364 4.3637 2.1817 4.8 4.3635 1.1778 -0.9338 3.4909 -1.3091 5.6727 -0.4364 -2.2699 0.7924 -2.8629 1.4906 -3.4909 2.6181 3.0507 0.5738 3.6275 2.4928 3.4909 4.7998 -1.1637 -1.4544 -2.9092 -2.3271 -5.2363 -2.6181 1.9126 2.4631 1.5783 4.4249 0 6.1088 -0.6288 -2.7834 -1.5967 -4.5367 -3.0546 -4.7998 -1.7454 -0.4363 -4.8 1.7454 -5.6727 3.0544Z" stroke-width="1"></path>
  <path fill="#84462d" d="M26.2291 34.5352c0.4285 -8.2848 2.8857 -12.0282 3.8937 -14.0646 -0.2788 -0.2025 -0.5786 -0.34 -0.9046 -0.3989 -0.1557 -0.0353 -0.315 -0.0523 -0.4747 -0.0506 -3.0009 2.4715 -5.5986 10.217 -6.9168 14.3723 1.4689 -0.0339 2.9387 0.0135 4.4024 0.1418Z" stroke-width="1"></path>
  <path fill="#692e19" d="M21.981 34.3892c-1.0647 -4.2975 -2.1364 -6.2733 -3.1898 -7.4091 -0.452 -0.0632 -0.912 -0.0383 -1.3545 0.0733 -0.1799 0.0937 -0.3486 0.2073 -0.5031 0.3386 1.3126 2.8611 1.8759 5.3758 2.1107 7.1849 0.9756 -0.1067 1.9555 -0.1693 2.9367 -0.1877Z" stroke-width="1"></path>
  <path fill="#f8e1c2" d="M10.0361 37.9614h27.9273c-3.0476 -3.1063 -21.0798 -6.2035 -27.9273 0Z" stroke-width="1"></path>
  <path fill="#fcf1e2" d="M10.0361 37.9613h8.3625l6.082 -3.5422c-5.4711 -0.2431 -11.2075 0.6095 -14.4445 3.5422Z" stroke-width="1"></path>
</svg>