<svg xmlns="http://www.w3.org/2000/svg" fill="none" viewBox="0 0 48 48" id="Reindeer--Streamline-Kameleon">
  <desc>
    Reindeer Streamline Icon: https://streamlinehq.com
  </desc>
  <path fill="#e04f5f" d="M24 47.9977c13.255 0 24 -10.7445 24 -23.9988C48 10.7445 37.255 0 24 0S0 10.7445 0 23.9989c0 13.2543 10.745 23.9988 24 23.9988Z" stroke-width="1"></path>
  <path fill="#692e19" d="M37.394 18.3537c-0.0262 0.2008 -0.1876 0.3578 -0.3883 0.3797 -1.008 0.1047 -3.2073 -0.0655 -4.8 -0.4058l-2.592 1.2959c-0.5411 -0.5803 -1.1957 -1.0516 -1.9462 -1.405l2.7927 -1.2 2.4 -3.1416c0.0524 -0.0829 0.1396 -0.1397 0.24 -0.1528 0.055 -0.0061 0.1107 0.0017 0.1619 0.0227 0.0512 0.021 0.0962 0.0546 0.131 0.0977 0.0348 0.043 0.0582 0.0941 0.068 0.1486 0.0098 0.0545 0.0058 0.1105 -0.0118 0.163l-0.8073 2.4261c1.9418 -1.9592 3.3513 -3.818 3.9404 -5.5154 0.0873 -0.1222 0.2356 -0.192 0.3927 -0.1833 0.1527 0.0131 0.288 0.1048 0.3578 0.2444 0.2182 0.4363 -0.0698 2.9104 -3.3818 5.8906l3.1637 0.8727c0.1876 0.0698 0.3054 0.2618 0.2792 0.4625Z" stroke-width="1"></path>
  <path fill="#692e19" d="M10.5227 18.3537c0.0262 0.2008 0.1876 0.3578 0.3883 0.3797 1.008 0.1047 3.2073 -0.0655 4.8 -0.4058l2.592 1.2959c0.5411 -0.5803 1.1957 -1.0516 1.9462 -1.405l-2.7927 -1.2 -2.4 -3.1416c-0.0263 -0.0416 -0.0615 -0.0768 -0.103 -0.1032 -0.0414 -0.0264 -0.0882 -0.0433 -0.137 -0.0496 -0.055 -0.0061 -0.1107 0.0017 -0.1619 0.0227 -0.0512 0.021 -0.0963 0.0546 -0.131 0.0977 -0.0348 0.043 -0.0582 0.0941 -0.068 0.1486 -0.0098 0.0545 -0.0058 0.1105 0.0118 0.163l0.8073 2.4261c-1.9418 -1.9592 -3.3513 -3.818 -3.9404 -5.5154 -0.0873 -0.1222 -0.2356 -0.192 -0.3927 -0.1833 -0.1527 0.0131 -0.288 0.1048 -0.3578 0.2444 -0.2182 0.4363 0.0698 2.9104 3.3818 5.8906l-3.1637 0.8727c-0.1876 0.0698 -0.3054 0.2618 -0.2792 0.4625Z" stroke-width="1"></path>
  <path fill="#d4a263" d="M36.8489 20.6102c-0.0151 -0.0323 -0.0376 -0.0605 -0.0656 -0.0825 -0.0281 -0.022 -0.0609 -0.0371 -0.0959 -0.044 -1.1432 -0.1789 -2.0072 -1.2829 -3.6087 -1.2829 -1.0281 0 -2.1609 0.7021 -2.8438 1.2144 -1.2558 -1.8968 -3.473 -2.9606 -6.2762 -2.9606 -4.3593 0 -7.4182 2.5744 -7.4182 7.0949 0 2.0334 0.6109 3.9009 1.6277 5.3758l-0.672 3.0238c-0.5538 2.4907 1.2004 3.8307 3.5345 4.5598 1.2262 -0.288 2.2735 -2.6748 2.6924 -3.9838 0.0611 0.0306 0.1265 0.0524 0.192 0.0742 0.0654 -0.0218 0.1309 -0.0437 0.192 -0.0698 0.4189 1.3134 1.4705 3.7133 2.6967 3.9838 1.0678 -0.4207 4.3183 -1.296 3.5913 -4.5685l-0.6633 -2.989c1.0255 -1.4792 1.6451 -3.3598 1.6451 -5.4063 0 -0.5192 -0.0445 -1.0123 -0.1239 -1.4818 3.0004 0.398 4.7699 -0.8727 5.5872 -2.2568 0.0194 -0.0295 0.0304 -0.0638 0.0319 -0.0991 0.0016 -0.0353 -0.0065 -0.0704 -0.0232 -0.1016Z" stroke-width="1"></path>
  <path fill="#edbc7c" d="M26.8039 37.5126c-0.9413 0.2932 -1.893 0.4494 -2.8626 0.4494 -0.922 0 -1.8737 -0.1318 -2.9105 -0.4538 1.2261 -0.288 2.2734 -2.6748 2.6923 -3.9838 0.0611 0.0306 0.1266 0.0524 0.192 0.0742 0.0655 -0.0218 0.1309 -0.0436 0.192 -0.0698 0.4189 1.3134 1.4706 3.7133 2.6968 3.9838Z" stroke-width="1"></path>
  <path fill="#3e3e3f" d="M28.4959 23.1284c-0.149 0 -0.2935 -0.0507 -0.4096 -0.144 -0.1161 -0.0932 -0.197 -0.2233 -0.2291 -0.3687 -0.0321 -0.1454 -0.0136 -0.2975 0.0525 -0.4309 0.066 -0.1335 0.1757 -0.2404 0.3108 -0.3031 -0.1226 -0.0394 -0.2504 -0.0605 -0.3792 -0.0624 -0.2589 0 -0.512 0.0768 -0.7273 0.2206 -0.2153 0.1439 -0.383 0.3483 -0.4821 0.5875 -0.0991 0.2392 -0.125 0.5024 -0.0745 0.7563 0.0505 0.254 0.1752 0.4872 0.3583 0.6703 0.183 0.1831 0.4163 0.3077 0.6702 0.3582 0.254 0.0506 0.5172 0.0246 0.7564 -0.0745 0.2392 -0.099 0.4436 -0.2668 0.5875 -0.4821 0.1438 -0.2152 0.2206 -0.4683 0.2206 -0.7272 0 -0.1331 -0.0257 -0.2588 -0.0624 -0.3792 -0.0523 0.113 -0.1358 0.2088 -0.2407 0.276 -0.1049 0.0671 -0.2269 0.103 -0.3514 0.1032Z" stroke-width="1"></path>
  <path fill="#f4d0a1" d="m23.9585 33.5824 -0.0437 0.0162c-0.0654 -0.0218 -0.1309 -0.0436 -0.1919 -0.0742 -0.4189 1.3089 -1.4661 3.6955 -2.6921 3.9834 1.0367 0.322 1.9883 0.4538 2.9102 0.4538l0.0175 -0.0005v-4.3787Z" stroke-width="1"></path>
  <path fill="#edbc7c" d="M17.6925 20.3925c-0.6672 -0.5123 -1.7808 -1.1917 -2.8543 -1.1917 -1.6014 0 -2.4654 1.104 -3.6091 1.2829 -0.035 0.0069 -0.0678 0.022 -0.0959 0.044 -0.028 0.022 -0.0505 0.0502 -0.0656 0.0825 -0.0349 0.0655 -0.0305 0.1397 0.0087 0.2007 0.8204 1.3894 2.5659 2.6613 5.5881 2.2485 -0.0832 0.4924 -0.1249 0.9908 -0.1248 1.4901 0 2.0334 0.6109 3.9009 1.6277 5.3758l-0.672 3.0238c-0.5538 2.4907 1.2004 3.8307 3.5345 4.5598 1.2262 -0.288 2.2735 -2.6748 2.6924 -3.9838 0.0611 0.0306 0.1265 0.0524 0.192 0.0742 0.0148 -0.0048 0.0288 -0.0109 0.0436 -0.0162V17.4546c-2.7587 0 -4.9937 1.0341 -6.2653 2.9379Z" stroke-width="1"></path>
  <path fill="#3e3e3f" d="M20.6414 23.1284c-0.149 0 -0.2935 -0.0507 -0.4096 -0.144 -0.1161 -0.0932 -0.197 -0.2233 -0.2291 -0.3687 -0.0321 -0.1454 -0.0136 -0.2975 0.0525 -0.4309 0.066 -0.1335 0.1757 -0.2404 0.3108 -0.3031 -0.1226 -0.0394 -0.2504 -0.0605 -0.3792 -0.0624 -0.2589 0 -0.512 0.0768 -0.7273 0.2206 -0.2152 0.1439 -0.383 0.3483 -0.4821 0.5875 -0.0991 0.2392 -0.125 0.5024 -0.0745 0.7563 0.0505 0.254 0.1752 0.4872 0.3583 0.6703 0.183 0.1831 0.4163 0.3077 0.6702 0.3582 0.254 0.0506 0.5172 0.0246 0.7564 -0.0745 0.2392 -0.099 0.4437 -0.2668 0.5875 -0.4821 0.1438 -0.2152 0.2206 -0.4683 0.2206 -0.7272 0 -0.1331 -0.0257 -0.2588 -0.0624 -0.3792 -0.0523 0.113 -0.1358 0.2088 -0.2407 0.276 -0.1049 0.0671 -0.2269 0.103 -0.3514 0.1032Z" stroke-width="1"></path>
  <path fill="#3e3e3f" d="M26.7686 31.4533c-0.6152 0.9643 -1.5054 1.6581 -2.6618 2.077 -0.0611 0.0262 -0.1265 0.048 -0.192 0.0698 -0.0654 -0.0218 -0.1309 -0.0436 -0.192 -0.0742 -1.1563 -0.4145 -2.0465 -1.1083 -2.6662 -2.0726 -0.0847 -0.132 -0.1322 -0.2845 -0.1376 -0.4413 -0.0054 -0.1568 0.0316 -0.3122 0.1071 -0.4497 0.0754 -0.1376 0.1866 -0.2523 0.3218 -0.332 0.1351 -0.0797 0.2893 -0.1214 0.4462 -0.1209h4.2415c0.3185 0 0.6109 0.1745 0.7636 0.4538 0.1571 0.2836 0.144 0.6235 -0.0306 0.8901Z" stroke-width="1"></path>
  <path fill="#5b5c5f" d="M21.794 30.1089c-0.1569 -0.0005 -0.311 0.0413 -0.4462 0.1209 -0.1351 0.0797 -0.2463 0.1944 -0.3217 0.3319 -0.0755 0.1376 -0.1125 0.2929 -0.1071 0.4497 0.0054 0.1568 0.0529 0.3092 0.1376 0.4413 0.6196 0.9642 1.5097 1.6579 2.6655 2.0724 0.0611 0.0306 0.1265 0.0519 0.192 0.0738 0.0148 -0.0048 0.0288 -0.011 0.0436 -0.0162v-3.4738H21.794Z" stroke-width="1"></path>
</svg>