<svg xmlns="http://www.w3.org/2000/svg" fill="none" viewBox="0 0 14 14"><g id="disable-bell-notification--disable-silent-notification-off-silence-alarm-bell-alert"><path id="Vector" fill="#37d7ff" d="M11.443 4.942a4.443 4.443 0 0 0-8.886 0v3.913c0 .442-.175.865-.488 1.178-.312.312-.627.488-1.069.488h12c-.442 0-.757-.176-1.07-.488a1.666 1.666 0 0 1-.487-1.178V4.942Z"></path><path id="Vector_2" stroke="#3e3e3e" stroke-linecap="round" stroke-linejoin="round" d="m13.5 13.499-13-13"></path><path id="Vector_3" stroke="#3e3e3e" stroke-linecap="round" stroke-linejoin="round" d="M10.5 10.495H13c-.442 0-.757-.175-1.07-.488a1.666 1.666 0 0 1-.487-1.178V4.942a4.443 4.443 0 0 0-8.42-1.979"></path><path id="Vector_4" stroke="#3e3e3e" stroke-linecap="round" stroke-linejoin="round" d="M6 13.501h2"></path><path id="Vector_5" stroke="#3e3e3e" stroke-linecap="round" stroke-linejoin="round" d="M2.557 5.499v3.33c0 .442-.175.866-.488 1.178-.312.313-.627.488-1.069.488h6.5"></path></g></svg>