<svg xmlns="http://www.w3.org/2000/svg" fill="none" viewBox="0 0 14 14"><g id="empty-clipboard--work-plain-clipboard-task-list-company-office"><path id="Subtract" fill="#37d7ff" fill-rule="evenodd" d="M4.5 1.5H2.75a1 1 0 0 0-1 1v10a1 1 0 0 0 1 1h8.5a1 1 0 0 0 1-1v-10a1 1 0 0 0-1-1H9.5V2a1 1 0 0 1-1 1h-3a1 1 0 0 1-1-1v-.5Z" clip-rule="evenodd"></path><path id="Vector" stroke="#3e3e3e" stroke-linecap="round" stroke-linejoin="round" d="M9.75 1.5h1.5a1 1 0 0 1 1 1v10a1 1 0 0 1-1 1h-8.5a1 1 0 0 1-1-1v-10a1 1 0 0 1 1-1h1.5"></path><path id="Vector_2" fill="#ffffff" d="M8.5.5h-3a1 1 0 0 0-1 1V2a1 1 0 0 0 1 1h3a1 1 0 0 0 1-1v-.5a1 1 0 0 0-1-1Z"></path><path id="Vector_3" stroke="#3e3e3e" stroke-linecap="round" stroke-linejoin="round" d="M8.5.5h-3a1 1 0 0 0-1 1V2a1 1 0 0 0 1 1h3a1 1 0 0 0 1-1v-.5a1 1 0 0 0-1-1Z"></path></g></svg>