<svg xmlns="http://www.w3.org/2000/svg" fill="none" viewBox="0 0 14 14"><g id="glasses--vision-sunglasses-protection-spectacles-correction-sun-eye-glasses"><path id="Vector" fill="#37d7ff" d="M5.5 9h-5v3a1 1 0 0 0 1 1h3a1 1 0 0 0 1-1V9Z"></path><path id="Vector_2" fill="#37d7ff" d="M13.5 9h-5v3a1 1 0 0 0 1 1h3a1 1 0 0 0 1-1V9Z"></path><path id="Vector_3" stroke="#3e3e3e" stroke-linecap="round" stroke-linejoin="round" d="M5.5 9h-5v3a1 1 0 0 0 1 1h3a1 1 0 0 0 1-1V9Z"></path><path id="Vector_4" stroke="#3e3e3e" stroke-linecap="round" stroke-linejoin="round" d="M13.5 9h-5v3a1 1 0 0 0 1 1h3a1 1 0 0 0 1-1V9Z"></path><path id="Vector_5" stroke="#3e3e3e" stroke-linecap="round" stroke-linejoin="round" d="M5.5 9h3"></path><path id="Vector_6" stroke="#3e3e3e" stroke-linecap="round" stroke-linejoin="round" d="M13.5 9V3a2 2 0 0 0-2-2h-1"></path><path id="Vector_7" stroke="#3e3e3e" stroke-linecap="round" stroke-linejoin="round" d="M.5 9V3a2 2 0 0 1 2-2h1"></path></g></svg>