<svg xmlns="http://www.w3.org/2000/svg" fill="none" viewBox="0 0 14 14"><g id="hierarchy-14--node-organization-links-structure-link-nodes-network-hierarchy"><path id="Vector 2255" fill="#37d7ff" d="M3.75 5.5v-4a1 1 0 0 1 1-1h4.5a1 1 0 0 1 1 1v4a1 1 0 0 1-1 1h-4.5a1 1 0 0 1-1-1Z"></path><path id="Vector 2256" stroke="#3e3e3e" stroke-linecap="round" stroke-linejoin="round" d="M7 6.5v4"></path><path id="Vector 2257" stroke="#3e3e3e" stroke-linecap="round" stroke-linejoin="round" d="M2 10.5v-1a1 1 0 0 1 1-1h8a1 1 0 0 1 1 1v1"></path><path id="Vector 2258" fill="#37d7ff" d="M.5 12.5v-1a1 1 0 0 1 1-1h1a1 1 0 0 1 1 1v1a1 1 0 0 1-1 1h-1a1 1 0 0 1-1-1Z"></path><path id="Vector 2259" fill="#37d7ff" d="M5.5 12.5v-1a1 1 0 0 1 1-1h1a1 1 0 0 1 1 1v1a1 1 0 0 1-1 1h-1a1 1 0 0 1-1-1Z"></path><path id="Vector 2260" fill="#37d7ff" d="M10.5 12.5v-1a1 1 0 0 1 1-1h1a1 1 0 0 1 1 1v1a1 1 0 0 1-1 1h-1a1 1 0 0 1-1-1Z"></path><path id="Vector 2261" stroke="#3e3e3e" stroke-linecap="round" stroke-linejoin="round" d="M3.75 5.5v-4a1 1 0 0 1 1-1h4.5a1 1 0 0 1 1 1v4a1 1 0 0 1-1 1h-4.5a1 1 0 0 1-1-1Z"></path><path id="Vector 2262" stroke="#3e3e3e" stroke-linecap="round" stroke-linejoin="round" d="M.5 12.5v-1a1 1 0 0 1 1-1h1a1 1 0 0 1 1 1v1a1 1 0 0 1-1 1h-1a1 1 0 0 1-1-1Z"></path><path id="Vector 2263" stroke="#3e3e3e" stroke-linecap="round" stroke-linejoin="round" d="M5.5 12.5v-1a1 1 0 0 1 1-1h1a1 1 0 0 1 1 1v1a1 1 0 0 1-1 1h-1a1 1 0 0 1-1-1Z"></path><path id="Vector 2264" stroke="#3e3e3e" stroke-linecap="round" stroke-linejoin="round" d="M10.5 12.5v-1a1 1 0 0 1 1-1h1a1 1 0 0 1 1 1v1a1 1 0 0 1-1 1h-1a1 1 0 0 1-1-1Z"></path></g></svg>