<svg xmlns="http://www.w3.org/2000/svg" fill="none" viewBox="0 0 14 14"><g id="keyhole-lock-circle--circle-frame-key-keyhole-lock-locked-secure-security"><path id="Subtract" fill="#37d7ff" fill-rule="evenodd" d="M13.5 7a6.5 6.5 0 1 1-13 0 6.5 6.5 0 0 1 13 0Zm-5-1a1.5 1.5 0 1 1-3 0 1.5 1.5 0 0 1 3 0Z" clip-rule="evenodd"></path><path id="Vector" fill="#ffffff" d="M7 7.5a1.5 1.5 0 1 0 0-3 1.5 1.5 0 0 0 0 3Z"></path><path id="Vector_2" stroke="#3e3e3e" stroke-linecap="round" stroke-linejoin="round" d="M7 13.5a6.5 6.5 0 1 0 0-13 6.5 6.5 0 0 0 0 13Z"></path><path id="Vector_3" stroke="#3e3e3e" stroke-linecap="round" stroke-linejoin="round" d="M7 7.5a1.5 1.5 0 1 0 0-3 1.5 1.5 0 0 0 0 3Z"></path><path id="Vector_4" stroke="#3e3e3e" stroke-linecap="round" stroke-linejoin="round" d="M7 7.5v2"></path></g></svg>