<svg xmlns="http://www.w3.org/2000/svg" fill="none" viewBox="0 0 14 14"><g id="layout-window-11"><path id="Vector 1945" fill="#37d7ff" d="M.5 12.5v-11a1 1 0 0 1 1-1h11a1 1 0 0 1 1 1v11a1 1 0 0 1-1 1h-11a1 1 0 0 1-1-1Z"></path><path id="Vector 1946" stroke="#3e3e3e" stroke-linecap="round" stroke-linejoin="round" d="M.5 12.5v-11a1 1 0 0 1 1-1h11a1 1 0 0 1 1 1v11a1 1 0 0 1-1 1h-11a1 1 0 0 1-1-1Z"></path><path id="Intersect" stroke="#3e3e3e" stroke-linecap="round" stroke-linejoin="round" d="M9.625.5v13"></path><path id="Vector 883" stroke="#3e3e3e" stroke-linecap="round" stroke-linejoin="round" d="M9.625 7H.5"></path></g></svg>