<svg xmlns="http://www.w3.org/2000/svg" fill="none" viewBox="0 0 14 14"><g id="pathfinder-intersect"><path id="Union" fill="#ffffff" fill-rule="evenodd" d="M1.5.5a1 1 0 0 0-1 1v7a1 1 0 0 0 1 1h3v3a1 1 0 0 0 1 1h7a1 1 0 0 0 1-1v-7a1 1 0 0 0-1-1h-3v-3a1 1 0 0 0-1-1h-7Z" clip-rule="evenodd"></path><path id="Vector 2580" stroke="#3e3e3e" stroke-linecap="round" stroke-linejoin="round" d="M13.5 12.5a1 1 0 0 1-1 1"></path><path id="Vector 2582" stroke="#3e3e3e" stroke-linecap="round" stroke-linejoin="round" d="M12.5 4.5a1 1 0 0 1 1 1"></path><path id="Vector 2583" stroke="#3e3e3e" stroke-linecap="round" stroke-linejoin="round" d="M4.5 12.5a1 1 0 0 0 1 1"></path><path id="Vector 2584" stroke="#3e3e3e" stroke-linecap="round" stroke-linejoin="round" d="M13.5 8v2"></path><path id="Vector 2587" stroke="#3e3e3e" stroke-linecap="round" stroke-linejoin="round" d="M8 13.5h2"></path><path id="Vector 2589" stroke="#3e3e3e" stroke-linecap="round" stroke-linejoin="round" d="M.5 1.5a1 1 0 0 1 1-1"></path><path id="Vector 2590" stroke="#3e3e3e" stroke-linecap="round" stroke-linejoin="round" d="M8.5.5a1 1 0 0 1 1 1"></path><path id="Vector 2591" stroke="#3e3e3e" stroke-linecap="round" stroke-linejoin="round" d="M.5 8.5a1 1 0 0 0 1 1"></path><path id="Vector 2593" stroke="#3e3e3e" stroke-linecap="round" stroke-linejoin="round" d="M.5 6V4"></path><path id="Vector 2594" stroke="#3e3e3e" stroke-linecap="round" stroke-linejoin="round" d="M4 .5h2"></path><path id="Vector" fill="#37d7ff" d="M5.5 4.5a1 1 0 0 0-1 1v3a1 1 0 0 0 1 1h3a1 1 0 0 0 1-1v-3a1 1 0 0 0-1-1h-3Z"></path><path id="Vector_2" stroke="#3e3e3e" stroke-linecap="round" stroke-linejoin="round" d="M5.5 4.5a1 1 0 0 0-1 1v3a1 1 0 0 0 1 1h3a1 1 0 0 0 1-1v-3a1 1 0 0 0-1-1h-3Z"></path></g></svg>