<svg xmlns="http://www.w3.org/2000/svg" fill="none" viewBox="0 0 14 14"><g id="round-cap"><path id="Subtract" fill="#37d7ff" fill-rule="evenodd" d="M5.294 2.206H13.5v9.588H5.294a4.794 4.794 0 0 1 0-9.588Zm.896 6.59a1.798 1.798 0 1 0 0-3.595 1.798 1.798 0 0 0 0 3.596Z" clip-rule="evenodd"></path><path id="Ellipse 400" fill="#ffffff" d="M4.392 6.999a1.798 1.798 0 1 0 3.596 0 1.798 1.798 0 1 0-3.596 0"></path><path id="Vector 807" stroke="#3e3e3e" stroke-linecap="round" stroke-linejoin="round" d="M7.988 7H13.5"></path><path id="Vector 809" stroke="#3e3e3e" stroke-linecap="round" stroke-linejoin="round" d="M13.5 2.206H5.294a4.794 4.794 0 0 0 0 9.588H13.5"></path><path id="Ellipse 399" stroke="#3e3e3e" stroke-linecap="round" stroke-linejoin="round" d="M4.392 6.999a1.798 1.798 0 1 0 3.596 0 1.798 1.798 0 1 0-3.596 0"></path></g></svg>