<svg xmlns="http://www.w3.org/2000/svg" fill="none" viewBox="0 0 14 14"><g id="table-lamp-1--lighting-light-incandescent-bulb-lights-table-lamp"><path id="Vector" fill="#37d7ff" d="M6.5 3V1.5a1 1 0 0 0-1-1h-2a1 1 0 0 0-1 1V3a4 4 0 0 0-2 3.5h8a4 4 0 0 0-2-3.5Z"></path><path id="Vector_2" stroke="#3e3e3e" stroke-linecap="round" stroke-linejoin="round" d="M6.5 3V1.5a1 1 0 0 0-1-1h-2a1 1 0 0 0-1 1V3a4 4 0 0 0-2 3.5h8a4 4 0 0 0-2-3.5Z"></path><path id="Vector_3" stroke="#3e3e3e" stroke-linecap="round" stroke-linejoin="round" d="M6.5 1.5H8a4 4 0 0 1 4 4v8"></path><path id="Vector_4" stroke="#3e3e3e" stroke-linecap="round" stroke-linejoin="round" d="M13.5 13.5h-6"></path></g></svg>