<svg xmlns="http://www.w3.org/2000/svg" fill="none" viewBox="0 0 14 14"><g id="visible--eye-eyeball-open-view"><path id="Subtract" fill="#37d7ff" fill-rule="evenodd" d="M13.488 7a1.21 1.21 0 0 0-.258-.754C12.18 4.975 9.79 2.5 7 2.5 4.21 2.5 1.82 4.975.77 6.246A1.208 1.208 0 0 0 .512 7c0 .279.092.547.258.754C1.82 9.025 4.21 11.5 7 11.5c2.79 0 5.18-2.475 6.23-3.746.166-.207.258-.475.258-.754ZM9 7a2 2 0 1 1-4 0 2 2 0 0 1 4 0Z" clip-rule="evenodd"></path><path id="Vector" stroke="#3e3e3e" stroke-linecap="round" stroke-linejoin="round" d="M13.23 6.246c.166.207.258.476.258.754 0 .279-.092.547-.258.754C12.18 9.025 9.79 11.5 7 11.5c-2.79 0-5.18-2.475-6.23-3.746A1.208 1.208 0 0 1 .512 7c0-.278.092-.547.258-.754C1.82 4.975 4.21 2.5 7 2.5c2.79 0 5.18 2.475 6.23 3.746Z"></path><path id="Vector_2" fill="#ffffff" d="M7 9a2 2 0 1 0 0-4 2 2 0 0 0 0 4Z"></path><path id="Vector_3" stroke="#3e3e3e" stroke-linecap="round" stroke-linejoin="round" d="M7 9a2 2 0 1 0 0-4 2 2 0 0 0 0 4Z"></path></g></svg>