<svg xmlns="http://www.w3.org/2000/svg" fill="none" viewBox="0 0 14 14"><g id="wrench--crescent-tool-construction-tools-wrench-setting-edit-adjust"><path id="Union" fill="#37d7ff" d="M13.41 3.596a.76.76 0 0 0-.35-.51l-2 2a1 1 0 0 1-1.44 0l-.76-.68a1 1 0 0 1 0-1.4l2-2a.76.76 0 0 0-.48-.43 3.8 3.8 0 0 0-4.2 5.309L.815 11.252a1 1 0 0 0 .014 1.428l.56.538a1 1 0 0 0 1.397-.01l5.428-5.37a3.81 3.81 0 0 0 5.196-4.242Z"></path><path id="Union_2" stroke="#3e3e3e" stroke-linecap="round" stroke-linejoin="round" d="M13.41 3.596a.761.761 0 0 0-.35-.51l-2 2a1 1 0 0 1-1.44 0l-.76-.68a1 1 0 0 1 0-1.4l2-2a.762.762 0 0 0-.48-.43 3.8 3.8 0 0 0-4.2 5.309L.815 11.25a1 1 0 0 0 .014 1.429l.56.538a1 1 0 0 0 1.397-.01l5.428-5.37a3.81 3.81 0 0 0 5.196-4.242Z"></path></g></svg>