<svg xmlns="http://www.w3.org/2000/svg" fill="none" viewBox="0 0 14 14" id="Dictionary-Language-Book--Streamline-Flex">
  <desc>
    Dictionary Language Book Streamline Icon: https://streamlinehq.com
  </desc>
  <g id="dictionary-language-book">
    <path id="Subtract" stroke="#000000" stroke-linecap="round" stroke-linejoin="round" d="M12.0606 10.2845c-0.6182 0.2408 -1.0917 0.7137 -1.0917 1.4736s0.4735 1.2328 1.0918 1.4736c-0.2186 0.1149 -0.4762 0.1847 -0.7465 0.1948 -2.63933 0.098 -5.24691 0.098 -7.88629 0 -0.95962 -0.0357 -1.4948 -0.7671 -1.4948 -1.6684 0 -0.9012 0.53518 -1.6327 1.4948 -1.6683 2.63938 -0.09804 5.24696 -0.09804 7.88629 0 0.2703 0.01 0.5279 0.0798 0.7464 0.1947Z" stroke-width="1"></path>
    <path id="Subtract_2" stroke="#000000" stroke-linecap="round" stroke-linejoin="round" d="M12.0557 10.2817c-0.2174 -0.1133 -0.4731 -0.1821 -0.7413 -0.1921 -2.63937 -0.09802 -5.24694 -0.09802 -7.88632 0 -0.92787 0.0345 -1.45893 0.7194 -1.49306 1.5795 -0.17972 -3.00524 -0.16652 -5.97052 0.10257 -8.96882 0.0904 -1.00728 0.87367 -1.829426 1.8747 -1.973451 2.10207 -0.302439 4.08187 -0.302439 6.18391 0 1.0011 0.144026 1.7843 0.966171 1.8747 1.973451 0.2283 2.54326 0.2999 5.03581 0.0848 7.58142Zm0 0s0 0 0 0Z" stroke-width="1"></path>
    <path id="Vector 3" stroke="#000000" stroke-linecap="round" stroke-linejoin="round" d="M8.03071 4.63507h2.26889L7.8889 8.03841h2.5525" stroke-width="1"></path>
    <path id="Vector 1" stroke="#000000" stroke-linecap="round" stroke-linejoin="round" d="m3.58142 5.95171 1.04476 -3.13428c0.05356 -0.16068 0.20393 -0.26906 0.3733 -0.26906v0c0.16937 0 0.31974 0.10838 0.3733 0.26906l1.04476 3.13428M3.95957 4.81726h2.07982" stroke-width="1"></path>
  </g>
</svg>