<svg xmlns="http://www.w3.org/2000/svg" fill="none" viewBox="0 0 14 14" id="Graduation-Cap--Streamline-Flex">
  <desc>
    Graduation Cap Streamline Icon: https://streamlinehq.com
  </desc>
  <g id="graduation-cap--graduation-cap-education">
    <path id="Vector" stroke="#000000" stroke-linecap="round" stroke-linejoin="round" d="M1.63356 12.4092c0.55594 0 1.00661 -0.4507 1.00661 -1.0066S2.1895 10.396 1.63356 10.396c-0.55593 0 -1.006607 0.4507 -1.006607 1.0066s0.450677 1.0066 1.006607 1.0066Z" stroke-width="1"></path>
    <path id="Ellipse 347" stroke="#000000" stroke-linecap="round" stroke-linejoin="round" d="M1.63379 10.3961V5.73242" stroke-width="1"></path>
    <path id="Intersect" stroke="#000000" stroke-linecap="round" stroke-linejoin="round" d="M10.3945 6.81616c0.0094 0.19139 0.0148 0.3841 0.0148 0.578 0 0.48365 -0.0337 0.95989 -0.079 1.42674 -0.0954 0.98141 -0.87785 1.7745 -1.8389 1.8726 -0.48776 0.0498 -0.98577 0.0879 -1.49183 0.0879 -0.50605 0 -1.00407 -0.0381 -1.49182 -0.0879 -0.96106 -0.0981 -1.74354 -0.89119 -1.83887 -1.8726 -0.04534 -0.46685 -0.07904 -0.94309 -0.07904 -1.42674 0 -0.1939 0.00542 -0.38661 0.01483 -0.578" stroke-width="1"></path>
    <path id="Intersect_2" stroke="#000000" stroke-linecap="round" stroke-linejoin="round" d="M1.00824 4.22955c-0.508202 0.31891 -0.507903 0.77609 -0.00198 1.09591 0.70039 0.44276 1.4245 0.90253 2.2659 1.32394 0.8414 0.4214 1.75942 0.78406 2.64346 1.13485 0.63856 0.25338 1.5514 0.25353 2.18815 -0.001 0.87726 -0.35067 1.78585 -0.71436 2.62343 -1.13385 0.8376 -0.4195 1.5638 -0.87455 2.2639 -1.31392 0.5082 -0.3189 0.5079 -0.77609 0.002 -1.0959 -0.7004 -0.44276 -1.4245 -0.90254 -2.2659 -1.32394 -0.84139 -0.42141 -1.75941 -0.78407 -2.64344 -1.13485 -0.63857 -0.25338 -1.55141 -0.25353 -2.18816 0.00099 -0.87725 0.35067 -1.78585 0.71436 -2.62344 1.13386 -0.83759 0.41949 -1.56375 0.87455 -2.26392 1.31391Z" stroke-width="1"></path>
  </g>
</svg>