<svg xmlns="http://www.w3.org/2000/svg" fill="none" viewBox="0 0 14 14" id="File-Code-1--Streamline-Flex">
  <desc>
    File Code 1 Streamline Icon: https://streamlinehq.com
  </desc>
  <g id="file-code-1--code-files-angle-programming-file-bracket">
    <path id="Intersect" fill="#d7e0ff" d="M13.3669 10.5995c0.0828 -1.31821 0.1263 -2.68418 0.1263 -4.08388 0 -0.36421 -0.003 -0.72614 -0.0088 -1.08554 -0.0126 -0.77978 -0.2605 -1.54189 -0.7391 -2.15767 -0.7243 -0.93191 -1.3816 -1.59032 -2.375 -2.357019C10.053 0.670498 9.66357 0.537622 9.26285 0.528866 8.86103 0.520085 8.44141 0.515625 7.99317 0.515625c-1.35695 0 -2.45155 0.040872 -3.5843 0.118753 -0.96364 0.066254 -1.72898 0.833392 -1.78948 1.797402 -0.08274 1.31818 -0.12623 2.68415 -0.12623 4.08384 0 1.3997 0.04349 2.76567 0.12623 4.08388 0.0605 0.964 0.82584 1.7311 1.78948 1.7974 1.13275 0.0779 2.22735 0.1187 3.5843 0.1187 1.35694 0 2.45153 -0.0408 3.58433 -0.1187 0.9636 -0.0663 1.7289 -0.8334 1.7894 -1.7974Z" stroke-width="1"></path>
    <path id="Vector" stroke="#4147d5" stroke-linecap="round" stroke-linejoin="round" d="M5.88867 9.62695s1.5 1.26625 1.5 1.81155c0 0.5454 -1.5 1.8116 -1.5 1.8116" stroke-width="1"></path>
    <path id="Vector_2" stroke="#4147d5" stroke-linecap="round" stroke-linejoin="round" d="M2.31152 9.62695S0.811523 10.8932 0.811523 11.4385c0 0.5454 1.499997 1.8116 1.499997 1.8116" stroke-width="1"></path>
    <path id="Intersect_2" stroke="#4147d5" stroke-linecap="round" stroke-linejoin="round" d="M2.49976 7.45805c-0.00438 -0.31223 -0.0066 -0.62635 -0.0066 -0.94218 0 -1.3997 0.04349 -2.76567 0.12623 -4.08384 0.0605 -0.96402 0.82584 -1.731154 1.78948 -1.797408C5.54162 0.556742 6.63622 0.515869 7.99317 0.515869c0.44824 0 0.86786 0.00446 1.26968 0.013241 0.40072 0.008757 0.79015 0.141632 1.10745 0.386525 0.9934 0.766695 1.6507 1.425105 2.375 2.357025 0.4786 0.61577 0.7265 1.37788 0.7391 2.15766 0.0058 0.3594 0.0088 0.72133 0.0088 1.08555 0 1.39969 -0.0435 2.76566 -0.1263 4.08383 -0.0605 0.964 -0.8258 1.7312 -1.7894 1.7974 -0.8344 0.0574 -1.64816 0.0947 -2.56129 0.1103" stroke-width="1"></path>
  </g>
</svg>