<svg xmlns="http://www.w3.org/2000/svg" fill="none" viewBox="0 0 14 14" id="Screen-Broadcast--Streamline-Flex">
  <desc>
    Screen Broadcast Streamline Icon: https://streamlinehq.com
  </desc>
  <g id="screen-broadcast--wireless-feed-rss-transmit-broadcast-monitor-screen">
    <path id="Intersect" fill="#d7e0ff" d="M7 12.125c1.74602 0 3.427 -0.1262 5.0493 -0.316 0.432 -0.0505 0.7792 -0.3794 0.8492 -0.8086 0.2093 -1.28527 0.3515 -2.61908 0.3515 -4.0004 0 -1.38494 -0.1287 -2.73834 -0.3465 -4.01806 -0.0716 -0.42088 -0.4136 -0.74113 -0.8374 -0.79227C10.432 1.99252 8.75327 1.875 7 1.875c-1.7546 0 -3.46394 0.11033 -5.08095 0.31234 -0.41663 0.05205 -0.75282 0.36581 -0.82557 0.77933C0.86808 4.24786 0.75 5.61029 0.75 7c0 0.267 0.00467 0.53216 0.013783 0.79548C3.44371 8.21377 4.44443 9.08701 5.11459 12.0566c0.62067 0.0413 1.24958 0.0684 1.88541 0.0684Z" stroke-width="1"></path>
    <path id="Vector" stroke="#4147d5" stroke-linecap="round" stroke-linejoin="round" d="M0.75 7.80029c1.14698 0 2.24699 0.45564 3.05803 1.26668 0.81104 0.81104 1.26668 1.91103 1.26668 3.05803" stroke-width="1"></path>
    <path id="Vector_2" stroke="#4147d5" stroke-linecap="round" stroke-linejoin="round" d="M0.75 10.625c0.39782 0 0.77936 0.158 1.06066 0.4393 0.2813 0.2813 0.43934 0.6629 0.43934 1.0607" stroke-width="1"></path>
    <path id="Intersect_2" stroke="#4147d5" stroke-linecap="round" stroke-linejoin="round" d="M0.828125 5.04966c0.057605 -0.7116 0.146519 -1.40855 0.265175 -2.08299 0.07275 -0.41351 0.40894 -0.72728 0.82557 -0.77933 1.617 -0.20201 3.32635 -0.31234 5.08095 -0.31234 1.75326 0 3.43198 0.11752 5.06608 0.31467 0.4239 0.05114 0.7658 0.37139 0.8374 0.79227 0.2178 1.27972 0.3465 2.63312 0.3465 4.01806 0 1.38132 -0.1422 2.71513 -0.3515 4.0004 -0.0699 0.4292 -0.4172 0.7581 -0.8492 0.8086 -1.3204 0.1545 -2.6797 0.2668 -4.08128 0.3033" stroke-width="1"></path>
  </g>
</svg>