<svg xmlns="http://www.w3.org/2000/svg" fill="none" viewBox="0 0 14 14" id="Steps-2--Streamline-Flex">
  <desc>
    Steps 2 Streamline Icon: https://streamlinehq.com
  </desc>
  <g id="steps-2--interface-internet-menu-progress-bubble-bar">
    <path id="Vector" fill="#d7e0ff" d="M6.99968 8.84629c1.18167 0 1.84636 -0.66469 1.84636 -1.84636 0 -1.18168 -0.66469 -1.84637 -1.84636 -1.84637s-1.84636 0.66469 -1.84636 1.84637c0 1.18167 0.66469 1.84636 1.84636 1.84636Z" stroke-width="1"></path>
    <path id="Vector_2" fill="#d7e0ff" d="M11.8463 8.15395c0.7384 0 1.1538 -0.41539 1.1538 -1.15388 0 -0.73848 -0.4154 -1.15388 -1.1538 -1.15388 -0.7385 0 -1.1539 0.4154 -1.1539 1.15388 0 0.73849 0.4154 1.15388 1.1539 1.15388Z" stroke-width="1"></path>
    <path id="Vector_3" stroke="#4147d5" stroke-linecap="round" stroke-linejoin="round" d="M6.99968 8.84629c1.18167 0 1.84636 -0.66469 1.84636 -1.84636 0 -1.18168 -0.66469 -1.84637 -1.84636 -1.84637s-1.84636 0.66469 -1.84636 1.84637c0 1.18167 0.66469 1.84636 1.84636 1.84636Z" stroke-width="1"></path>
    <path id="Vector_4" stroke="#4147d5" stroke-linecap="round" stroke-linejoin="round" d="M3.30762 7h1.84615" stroke-width="1"></path>
    <path id="Vector_5" stroke="#4147d5" stroke-linecap="round" stroke-linejoin="round" d="M8.84619 7h1.84611" stroke-width="1"></path>
    <path id="Vector_6" stroke="#4147d5" stroke-linecap="round" stroke-linejoin="round" d="M11.8463 8.15395c0.7384 0 1.1538 -0.41539 1.1538 -1.15388 0 -0.73848 -0.4154 -1.15388 -1.1538 -1.15388 -0.7385 0 -1.1539 0.4154 -1.1539 1.15388 0 0.73849 0.4154 1.15388 1.1539 1.15388Z" stroke-width="1"></path>
    <path id="Vector_7" fill="#d7e0ff" d="M2.15388 8.15395c0.73849 0 1.15388 -0.41539 1.15388 -1.15388 0 -0.73848 -0.41539 -1.15388 -1.15388 -1.15388C1.4154 5.84619 1 6.26159 1 7.00007c0 0.73849 0.4154 1.15388 1.15388 1.15388Z" stroke-width="1"></path>
    <path id="Vector_8" stroke="#4147d5" stroke-linecap="round" stroke-linejoin="round" d="M2.15388 8.15395c0.73849 0 1.15388 -0.41539 1.15388 -1.15388 0 -0.73848 -0.41539 -1.15388 -1.15388 -1.15388C1.4154 5.84619 1 6.26159 1 7.00007c0 0.73849 0.4154 1.15388 1.15388 1.15388Z" stroke-width="1"></path>
  </g>
</svg>