<svg xmlns="http://www.w3.org/2000/svg" fill="none" viewBox="0 0 48 48" id="Ear-Speciality--Streamline-Plump-Neon">
  <desc>
    Ear Speciality Streamline Icon: https://streamlinehq.com
  </desc>
  <g id="ear-speciality--hearing-health-medical-ear-speciality">
    <path id="Vector" stroke="#c71dff" stroke-linecap="round" stroke-linejoin="round" d="M7.30846 19c-0.03677 -0.425 -0.05651 -0.8541 -0.05651 -1.2857C7.25195 9.33333 13.5324 2 23.9998 2s16.7479 7.33333 16.7479 15.7143c0 9.0238 -5.7766 13.551 -8.283 15.0905 -0.6732 0.4136 -1.1292 1.136 -1.1729 1.9249C30.8759 42.2432 26.8061 46 20.8596 46c-5.0931 0 -7.6575 -2.7839 -8.7478 -8" stroke-width="1"></path>
    <path id="Vector_2" stroke="#000cfe" stroke-linecap="round" stroke-linejoin="round" d="M14.7344 19.0082c0 -4.7026 3.6037 -9.2582 9.2666 -9.2582 5.663 0 8.2371 5.1435 8.2371 9.2582 0 4.5148 -3.0119 6.9877 -4.8296 8.0691 -0.7687 0.4572 -1.2871 1.2937 -1.2891 2.188 -0.0123 5.4884 -2.7032 7.2306 -5.2073 7.2306 -2.7211 0 -4.6333 -1.543 -5.1481 -4.6291" stroke-width="1"></path>
  </g>
</svg>