<svg xmlns="http://www.w3.org/2000/svg" fill="none" viewBox="0 0 48 48" id="Medical-Bag--Streamline-Plump-Neon">
  <desc>
    Medical Bag Streamline Icon: https://streamlinehq.com
  </desc>
  <g id="medical-bag--health-sign-medical-symbol-hospital-bag-medicine-medkit">
    <path id="Vector" stroke="#000cfe" stroke-linecap="round" stroke-linejoin="round" d="M20.1192 34.9784c0.0346 0.9484 0.639 1.7543 1.5795 1.8814C22.281 36.9386 23.0422 37 24 37s1.719 -0.0614 2.3013 -0.1402c0.9405 -0.1271 1.5449 -0.933 1.5795 -1.8814 0.033 -0.9055 0.0701 -2.2256 0.094 -4.0036 1.778 -0.0239 3.0981 -0.061 4.0036 -0.094 0.9484 -0.0346 1.7543 -0.639 1.8814 -1.5795C33.9386 28.719 34 27.9578 34 27s-0.0614 -1.719 -0.1402 -2.3013c-0.1271 -0.9405 -0.933 -1.5449 -1.8814 -1.5795 -0.9055 -0.033 -2.2256 -0.0701 -4.0036 -0.094 -0.0239 -1.778 -0.061 -3.0981 -0.094 -4.0036 -0.0346 -0.9483 -0.639 -1.7543 -1.5795 -1.8814C25.719 17.0614 24.9578 17 24 17s-1.719 0.0614 -2.3013 0.1402c-0.9405 0.1271 -1.5449 0.933 -1.5795 1.8814 -0.033 0.9055 -0.0701 2.2256 -0.094 4.0036 -1.778 0.0239 -3.0981 0.061 -4.0036 0.094 -0.9484 0.0346 -1.7543 0.639 -1.8814 1.5795C14.0614 25.281 14 26.0422 14 27s0.0614 1.719 0.1402 2.3013c0.1271 0.9405 0.933 1.5449 1.8814 1.5795 0.9055 0.033 2.2256 0.0701 4.0036 0.094 0.0239 1.778 0.061 3.0981 0.094 4.0036Z" stroke-width="1"></path>
    <path id="Vector_2" stroke="#000cfe" stroke-linecap="round" stroke-linejoin="round" d="M16.7383 9.15417c0.4564 -1.40679 1.2377 -3.05105 1.8238 -4.20261 0.4779 -0.9389 1.3403 -1.61512 2.3844 -1.75594C21.721 3.09116 22.7537 3 23.9991 3c1.2453 0 2.278 0.09116 3.0525 0.19562 1.0441 0.14082 1.9065 0.81704 2.3844 1.75594 0.5861 1.15156 1.3674 2.79582 1.8238 4.20261" stroke-width="1"></path>
    <path id="Vector_3" stroke="#c71dff" stroke-linecap="round" stroke-linejoin="round" d="M3.58565 14.2362c0.20972 -2.133 1.67022 -3.8481 3.78502 -4.1965C10.3535 9.54832 15.5706 9 24 9s13.6465 0.54832 16.6293 1.0397c2.1148 0.3484 3.5753 2.0635 3.785 4.1965C44.6894 17.0334 45 21.4265 45 27s-0.3106 9.9666 -0.5857 12.7638c-0.2097 2.133 -1.6702 3.8481 -3.785 4.1965C37.6465 44.4517 32.4294 45 24 45c-8.4294 0 -13.6465 -0.5483 -16.62933 -1.0397 -2.1148 -0.3484 -3.5753 -2.0635 -3.78502 -4.1965C3.31064 36.9666 3 32.5735 3 27s0.31064 -9.9666 0.58565 -12.7638Z" stroke-width="1"></path>
  </g>
</svg>