<svg xmlns="http://www.w3.org/2000/svg" fill="none" viewBox="-0.75 -0.75 24 24" id="Cloud-Wifi--Streamline-Sharp-Neon">
  <desc>
    Cloud Wifi Streamline Icon: https://streamlinehq.com
  </desc>
  <g id="cloud-wifi--cloud-wifi-internet-server-network">
    <path id="Union" stroke="#c71dff" d="M1.875 16.640625C1.875 19.35890625 4.1644499999999995 21.5625 6.988640625 21.5625h9.374953125C18.71709375 21.5625 20.625 19.726125 20.625 17.4609375s-1.90790625 -4.1015625 -4.261406249999999 -4.1015625C16.36359375 10.64109375 14.07421875 8.4375 11.25 8.4375c-2.2383281250000002 0 -4.14076875 1.3842187499999998 -4.833740625 3.3117187500000003C3.8614875 12.02315625 1.875 14.108625 1.875 16.640625Z" stroke-width="1.5"></path>
    <path id="Ellipse 999" stroke="#000cfe" d="M20.53078125 4.7817187500000005C18.155625 2.4065625 14.874375 0.9375 11.25 0.9375 7.625596874999999 0.9375 4.344346874999999 2.4065625 1.96918125 4.7817187500000005" stroke-width="1.5"></path>
    <path id="Ellipse 1000" stroke="#000cfe" d="M17.8790625 7.433371875000001C16.182468749999998 5.736834375 13.83871875 4.6875 11.24990625 4.6875 8.661074999999999 4.6875 6.317325 5.736834375 4.620778124999999 7.433371875000001" stroke-width="1.5"></path>
  </g>
</svg>