<svg xmlns="http://www.w3.org/2000/svg" fill="none" viewBox="0 0 24 24" id="Module-Puzzle-2--Streamline-Sharp-Neon">
  <desc>
    Module Puzzle 2 Streamline Icon: https://streamlinehq.com
  </desc>
  <g id="module-puzzle-2--code-puzzle-module-programming-plugin-piece">
    <path id="Subtract" stroke="#c71dff" d="M13.4646 6c0.0233 -0.1633 0.0354 -0.33024 0.0354 -0.5C13.5 3.567 11.933 2 10 2S6.5 3.567 6.5 5.5c0 0.16976 0.01209 0.3367 0.03544 0.5H2v4.5354c0.1633 -0.0233 0.33024 -0.0354 0.5 -0.0354C4.433 10.5 6 12.067 6 14s-1.567 3.5 -3.5 3.5c-0.16976 0 -0.3367 -0.0121 -0.5 -0.0354V22h4.53544c-0.02335 -0.1633 -0.03544 -0.3302 -0.03544 -0.5 0 -1.933 1.567 -3.5 3.5 -3.5s3.5 1.567 3.5 3.5c0 0.1698 -0.0121 0.3367 -0.0354 0.5H18v-4.5354c0.1633 0.0233 0.3302 0.0354 0.5 0.0354 1.933 0 3.5 -1.567 3.5 -3.5s-1.567 -3.5 -3.5 -3.5c-0.1698 0 -0.3367 0.0121 -0.5 0.0354V6h-4.5354Z" stroke-width="1"></path>
  </g>
</svg>