<svg xmlns="http://www.w3.org/2000/svg" fill="none" viewBox="-0.75 -0.75 24 24" id="Module-Puzzle-2--Streamline-Sharp-Neon">
  <desc>
    Module Puzzle 2 Streamline Icon: https://streamlinehq.com
  </desc>
  <g id="module-puzzle-2--code-puzzle-module-programming-plugin-piece">
    <path id="Subtract" stroke="#c71dff" d="M12.623062500000001 5.625c0.021843750000000002 -0.15309375 0.0331875 -0.3096 0.0331875 -0.46875C12.65625 3.3440625 11.1871875 1.875 9.375 1.875S6.09375 3.3440625 6.09375 5.15625c0 0.15914999999999999 0.011334375 0.31565624999999997 0.033225 0.46875H1.875v4.2519375c0.15309375 -0.021843750000000002 0.3096 -0.0331875 0.46875 -0.0331875C4.1559375 9.84375 5.625 11.3128125 5.625 13.125s-1.4690625 3.28125 -3.28125 3.28125c-0.15914999999999999 0 -0.31565624999999997 -0.01134375 -0.46875 -0.0331875V20.625h4.251975000000001c-0.021890625 -0.15309375 -0.033225 -0.3095625 -0.033225 -0.46875 0 -1.8121875 1.4690625 -3.28125 3.28125 -3.28125s3.28125 1.4690625 3.28125 3.28125c0 0.1591875 -0.01134375 0.31565624999999997 -0.0331875 0.46875H16.875v-4.2519375c0.15309375 0.021843750000000002 0.3095625 0.0331875 0.46875 0.0331875 1.8121875 0 3.28125 -1.4690625 3.28125 -3.28125s-1.4690625 -3.28125 -3.28125 -3.28125c-0.1591875 0 -0.31565624999999997 0.01134375 -0.46875 0.0331875V5.625h-4.2519375Z" stroke-width="1.5"></path>
  </g>
</svg>