<svg xmlns="http://www.w3.org/2000/svg" fill="none" viewBox="-0.75 -0.75 24 24" id="Steps-Number--Streamline-Sharp-Neon">
  <desc>
    Steps Number Streamline Icon: https://streamlinehq.com
  </desc>
  <g id="steps-number--interface-number-internet-menu-progress">
    <path id="Vector" stroke="#000cfe" d="M3.7529999999999997 9.927000000000001V1.9889999999999999c0 1.09603125 -0.88846875 1.9845 -1.9845 1.9845h-0.6615" stroke-width="1.5"></path>
    <path id="Vector_2" stroke="#000cfe" d="M6.399 9.927000000000001H1.107" stroke-width="1.5"></path>
    <path id="Vector 3" stroke="#000cfe" d="M14.337 9.927000000000001H9.045V8.443687500000001c0 -0.40884375 0.226875 -0.77859375 0.5780625 -0.9424687500000001l3.2538750000000003 -1.5184687499999998c0.3511875 -0.16387500000000002 0.5780625 -0.533625 0.5780625 -0.9424687500000001V3.89971875c0 -0.5683125 -0.43190625 -1.02871875 -0.9645937499999999 -1.02871875H10.0096875c-0.53278125 0 -0.9646874999999999 0.4606875 -0.9646874999999999 1.029v0.7359375" stroke-width="1.5"></path>
    <path id="Vector_3" stroke="#000cfe" d="M17.752875 6.1049999999999995h2.4m0 0h0.2754375c0.53278125 0 0.9646874999999999 0.46040624999999996 0.9646874999999999 1.02871875v1.7642812499999998c0 0.5683125 -0.43190625 1.029 -0.9647812499999999 1.029h-2.4805312500000003c-0.53278125 0 -0.9646874999999999 -0.4606875 -0.9646874999999999 -1.029v-0.735m3.169875 -2.058c0.53278125 0 0.9644999999999999 -0.46059375 0.9644999999999999 -1.02890625V3.9000000000000004c0 -0.5683125 -0.43190625 -1.029 -0.9646874999999999 -1.029h-1.9293749999999998c-0.53278125 0 -0.9646874999999999 0.4606875 -0.9646874999999999 1.029v0.7359375" stroke-width="1.5"></path>
    <path id="Rectangle 33" stroke="#c71dff" d="m17.424 13.455 3.528 3.528 -3.528 3.528" stroke-width="1.5"></path>
    <path id="Rectangle 34" stroke="#c71dff" d="M1.107 16.983h19.845" stroke-width="1.5"></path>
  </g>
</svg>