<svg xmlns="http://www.w3.org/2000/svg" fill="none" viewBox="0 0 24 24" id="Phone-Setting-Bolt-Nut--Streamline-Sharp-Remix">
  <desc>
    Phone Setting Bolt Nut Streamline Icon: https://streamlinehq.com
  </desc>
  <g id="Remix/Phone/phone-setting-bolt-nut">
    <path id="Union" fill="#000000" fill-rule="evenodd" d="M12.1834 0H1.75l0 1.25V24h18.5V13.9975h-2.5V21.5H4.25l0 -19h6.49L12.1834 0ZM13 19.75H9v-2.5h4v2.5ZM16.8277 0.020752h-0.6365l-0.2694 0.576611 -0.461 0.986327 -0.1172 0.06768 -1.0849 -0.09349 -0.6338 -0.05462 -0.318 0.55093 -1.11 1.92258 -0.3182 0.55114 0.3645 0.52165 0.6241 0.89311 0 0.13408 -0.6238 0.89329 -0.3643 0.52159 0.3181 0.55095 1.11 1.92258 0.3183 0.55114 0.634 -0.0549 1.085 -0.0939 0.1164 0.0672 0.4607 0.9861 0.2694 0.5767h3.4927l0.2696 -0.576 0.4614 -0.9858 0.1183 -0.0683 1.0835 0.094 0.6342 0.0551 0.3183 -0.55134 1.11 -1.92258 0.318 -0.55089 -0.3641 -0.52158 -0.6226 -0.89174 -0.0001 -0.13785 0.6228 -0.89078 0.3647 -0.52171 -0.3183 -0.55126 -1.11 -1.92258 -0.318 -0.55086 -0.6337 0.05454 -1.0842 0.09331 -0.119 -0.06874 -0.4611 -0.98549 -0.2696 -0.576198h-2.8562Zm-0.1382 7.169188v-2.5h2.5v2.5h-2.5Z" clip-rule="evenodd" stroke-width="1"></path>
  </g>
</svg>