<svg xmlns="http://www.w3.org/2000/svg" fill="none" viewBox="0 0 24 24" id="Bubble-Chat-Double-Typing-Smiley-Face-1--Streamline-Cyber">
  <desc>
    Bubble Chat Double Typing Smiley Face 1 Streamline Icon: https://streamlinehq.com
  </desc>
  <path stroke="#092f63" stroke-linecap="round" stroke-linejoin="round" stroke-miterlimit="10" d="m6 9 1.5 1.5h4L13 9" stroke-width="1"></path>
  <path stroke="#092f63" stroke-linecap="round" stroke-linejoin="round" stroke-miterlimit="10" d="M7.5 5.5v0.878" stroke-width="1"></path>
  <path stroke="#092f63" stroke-linecap="round" stroke-linejoin="round" stroke-miterlimit="10" d="M11.5 5.5v0.878" stroke-width="1"></path>
  <path stroke="#092f63" stroke-linecap="round" stroke-linejoin="round" stroke-miterlimit="10" d="M18.5 9.5V5.413L9.5 1.5l-9 3.913v7.826l6 2.348V19.5l2 -1.5" stroke-width="1"></path>
  <path stroke="#092f63" stroke-linecap="round" stroke-linejoin="round" stroke-miterlimit="10" d="m10.5 13.9 6 -2.4 6 2.4V19l-5 1.5v3l-7 -4v-5.6Z" stroke-width="1"></path>
  <path stroke="#092f63" stroke-linecap="round" stroke-linejoin="round" d="m13.5 16 -0.5 0.5 0.5 0.5" stroke-width="1"></path>
  <path stroke="#092f63" stroke-linecap="round" stroke-linejoin="round" d="m13.5 16 0.5 0.5 -0.5 0.5" stroke-width="1"></path>
  <path stroke="#092f63" stroke-linecap="round" stroke-linejoin="round" d="m16.5 16 -0.5 0.5 0.5 0.5" stroke-width="1"></path>
  <path stroke="#092f63" stroke-linecap="round" stroke-linejoin="round" d="m19.5 16 -0.5 0.5 0.5 0.5" stroke-width="1"></path>
  <path stroke="#092f63" stroke-linecap="round" stroke-linejoin="round" d="m16.5 16 0.5 0.5 -0.5 0.5" stroke-width="1"></path>
  <path stroke="#092f63" stroke-linecap="round" stroke-linejoin="round" d="m19.5 16 0.5 0.5 -0.5 0.5" stroke-width="1"></path>
</svg>