<svg xmlns="http://www.w3.org/2000/svg" fill="none" viewBox="0 0 24 24" id="Bubble-Chat-Typing-2--Streamline-Cyber">
  <desc>
    Bubble Chat Typing 2 Streamline Icon: https://streamlinehq.com
  </desc>
  <path stroke="#092f63" stroke-linecap="round" stroke-linejoin="round" stroke-miterlimit="10" d="M7.75 16.5 3.5 9l4.25 -7.5h10.5L22.5 9l-4.25 7.5H7.75Z" stroke-width="1"></path>
  <path stroke="#092f63" stroke-linecap="round" stroke-linejoin="round" stroke-miterlimit="10" d="m5 17.501 -1.5 1.5 1.5 1.5L6.5 19 5 17.501Z" stroke-width="1"></path>
  <path stroke="#092f63" stroke-linecap="round" stroke-linejoin="round" stroke-miterlimit="10" d="M8 7.5 6.5 9.002l1.5 1.5L9.5 9 8 7.5Z" stroke-width="1"></path>
  <path stroke="#092f63" stroke-linecap="round" stroke-linejoin="round" stroke-miterlimit="10" d="m13 7.5 -1.5 1.501 1.5 1.5L14.5 9 13 7.5Z" stroke-width="1"></path>
  <path stroke="#092f63" stroke-linecap="round" stroke-linejoin="round" stroke-miterlimit="10" d="m18 7.5 -1.5 1.501 1.5 1.5 1.5 -1.5L18 7.5Z" stroke-width="1"></path>
  <path stroke="#092f63" stroke-linecap="round" stroke-linejoin="round" d="m2 21.5 -0.5 0.5 0.5 0.5" stroke-width="1"></path>
  <path stroke="#092f63" stroke-linecap="round" stroke-linejoin="round" d="m2 21.5 0.5 0.5 -0.5 0.5" stroke-width="1"></path>
</svg>