<svg xmlns="http://www.w3.org/2000/svg" fill="none" viewBox="0 0 24 24" id="Audio-File-Sync--Streamline-Ultimate">
  <desc>
    Audio File Sync Streamline Icon: https://streamlinehq.com
  </desc>
  <path fill="#e4f1f5" d="M18.8901 4.82415c0.1793 0.17929 0.2801 0.42239 0.2801 0.67594V22.0329c0 0.528 -0.428 0.9561 -0.956 0.9561H1.96141c-0.52799 0 -0.95604 -0.4281 -0.95604 -0.9561V1.95604c0 -0.52799 0.42805 -0.95604 0.95604 -0.95604H14.6701c0.2536 0.0001 0.4967 0.10082 0.6759 0.2801l3.5441 3.54405Z" stroke-width="1"></path>
  <path fill="#ffffff" d="M18.8901 4.82415 15.346 1.2801c-0.1791 -0.17928 -0.4223 -0.28 -0.6759 -0.2801H1.96141c-0.52799 0 -0.95604 0.42805 -0.95604 0.95604V22.0329c0.0001 0.2536 0.10082 0.4967 0.2802 0.676L19.0019 4.99241c-0.0308 -0.06012 -0.0683 -0.11653 -0.1118 -0.16826Z" stroke-width="1"></path>
  <path stroke="#191919" stroke-linecap="round" stroke-linejoin="round" d="M8.65378 22.989H1.96141c-0.52799 0 -0.95604 -0.4281 -0.95604 -0.9561V1.95604c0 -0.52799 0.42805 -0.95604 0.95604 -0.95604H14.6701c0.2536 0 0.4967 0.10082 0.6759 0.2801l3.5441 3.54405c0.1793 0.17929 0.2801 0.42239 0.2801 0.67594v3.14822" stroke-width="1"></path>
  <path fill="#808080" d="M9.60978 13.9066c0 0.8919 -1.06983 1.6129 -2.39009 1.6129 -1.32027 0 -2.3901 -0.721 -2.3901 -1.6129s1.06974 -1.6119 2.3901 -1.6119 2.39009 0.7209 2.39009 1.6119Z" stroke-width="1"></path>
  <path stroke="#191919" stroke-linecap="round" stroke-linejoin="round" d="M9.60978 13.9066c0 0.8919 -1.06983 1.6129 -2.39009 1.6129 -1.32027 0 -2.3901 -0.721 -2.3901 -1.6129s1.06974 -1.6119 2.3901 -1.6119 2.39009 0.7209 2.39009 1.6119Z" stroke-width="1"></path>
  <path stroke="#191919" stroke-linecap="round" stroke-linejoin="round" d="M9.60938 13.9066V7.42751c-0.00147 -0.73597 0.79432 -1.19749 1.43242 -0.83083l0.0016 0.00098 1.9121 1.09462" stroke-width="1"></path>
  <path fill="#c2f3ff" d="M17.249 21.555c3.3119 0 5.3818 -3.5852 3.7259 -6.4533 -0.7686 -1.3312 -2.1888 -2.1512 -3.7259 -2.1511 -3.3118 0.0001 -5.3818 3.5854 -3.7257 6.4535 0.7686 1.331 2.1888 2.1509 3.7257 2.1509Z" stroke-width="1"></path>
  <path stroke="#191919" stroke-linecap="round" stroke-linejoin="round" d="M14.8681 18.2088H11.522v3.3462" stroke-width="1"></path>
  <path stroke="#191919" stroke-linecap="round" stroke-linejoin="round" d="M22.4371 19.3867c-1.3199 3.8817 -6.347 4.8789 -9.0488 1.7948 -0.7293 -0.8325 -1.181 -1.8715 -1.2926 -2.9727" stroke-width="1"></path>
  <path stroke="#191919" stroke-linecap="round" stroke-linejoin="round" d="M19.6484 16.2968h3.3463v-3.3462" stroke-width="1"></path>
  <path stroke="#191919" stroke-linecap="round" stroke-linejoin="round" d="M12.0791 15.117c1.3238 -3.8812 6.3527 -4.874 9.0521 -1.7869 0.7269 0.8313 1.1775 1.868 1.2894 2.9666" stroke-width="1"></path>
</svg>