<svg xmlns="http://www.w3.org/2000/svg" fill="none" viewBox="0 0 24 24" id="Common-File-Upload--Streamline-Ultimate">
  <desc>
    Common File Upload Streamline Icon: https://streamlinehq.com
  </desc>
  <path fill="#e3e3e3" d="M18.8816 4.83088c0.1793 0.17924 0.28 0.42229 0.2801 0.67583V22.0367c0 0.2535 -0.1008 0.4966 -0.28 0.6759 -0.1792 0.1792 -0.4224 0.28 -0.6759 0.28H1.95588c-0.25354 0 -0.49668 -0.1008 -0.67592 -0.28C1.10072 22.5334 1 22.2902 1 22.0367V1.96324c0 -0.25345 0.10072 -0.49659 0.27996 -0.67592 0.17924 -0.17924 0.42238 -0.27997 0.67592 -0.27997H14.6624c0.2534 0.0001 0.4966 0.10082 0.6757 0.28015l3.5435 3.54338Z" stroke-width="1"></path>
  <path fill="#ffffff" d="M17.8798 3.82918 15.3381 1.2875c-0.1791 -0.17933 -0.4223 -0.28005 -0.6757 -0.28015H1.95588c-0.25354 0 -0.49668 0.10073 -0.67592 0.28006C1.10072 1.46665 1 1.70979 1 1.96324V20.7081L17.8798 3.82918Z" stroke-width="1"></path>
  <path stroke="#191919" stroke-linecap="round" stroke-linejoin="round" d="M10.5588 22.9926H1.95588c-0.25354 0 -0.49668 -0.1008 -0.67592 -0.28C1.10072 22.5334 1 22.2902 1 22.0367V1.96324c0 -0.25345 0.10072 -0.49659 0.27996 -0.67592 0.17924 -0.17924 0.42238 -0.27997 0.67592 -0.27997H14.6624c0.2534 0.0001 0.4966 0.10082 0.6757 0.28015l3.5435 3.54338c0.1793 0.17924 0.28 0.42229 0.2801 0.67583v3.1477" stroke-width="1"></path>
  <path fill="#66e1ff" d="M17.2645 22.9926c1.1344 0 2.2432 -0.3364 3.1864 -0.9666 0.9431 -0.6302 1.6783 -1.5258 2.1124 -2.5738 0.434 -1.0481 0.5476 -2.2013 0.3263 -3.3138 -0.2213 -1.1125 -0.7675 -2.1344 -1.5697 -2.9365 -0.802 -0.8021 -1.824 -1.3483 -2.9365 -1.5697 -1.1124 -0.2212 -2.2656 -0.1076 -3.3136 0.3264 -1.0481 0.4342 -1.9437 1.1692 -2.5739 2.1124 -0.6302 0.9432 -0.9666 2.052 -0.9666 3.1864 0 1.521 0.6041 2.9797 1.6799 4.0554 1.0755 1.0756 2.5342 1.6798 4.0553 1.6798Z" stroke-width="1"></path>
  <path fill="#c2f3ff" d="M17.2643 11.522c-1.1672 -0.0009 -2.307 0.3547 -3.2668 1.0192 -0.9597 0.6645 -1.6935 1.6063 -2.1033 2.6993 -0.41 1.093 -0.4762 2.285 -0.19 3.4168 0.2861 1.1317 0.911 2.149 1.7911 2.9158l8.0848 -8.0849c-0.5368 -0.6174 -1.1997 -1.1125 -1.9442 -1.4517 -0.7447 -0.3392 -1.5535 -0.5147 -2.3716 -0.5145Z" stroke-width="1"></path>
  <path stroke="#191919" stroke-linecap="round" stroke-linejoin="round" d="M17.2645 22.9926c1.1344 0 2.2432 -0.3364 3.1864 -0.9666 0.9431 -0.6302 1.6783 -1.5258 2.1124 -2.5738 0.434 -1.0481 0.5476 -2.2013 0.3263 -3.3138 -0.2213 -1.1125 -0.7675 -2.1344 -1.5697 -2.9365 -0.802 -0.8021 -1.824 -1.3483 -2.9365 -1.5697 -1.1124 -0.2212 -2.2656 -0.1076 -3.3136 0.3264 -1.0481 0.4342 -1.9437 1.1692 -2.5739 2.1124 -0.6302 0.9432 -0.9666 2.052 -0.9666 3.1864 0 1.521 0.6041 2.9797 1.6799 4.0554 1.0755 1.0756 2.5342 1.6798 4.0553 1.6798Z" stroke-width="1"></path>
  <path stroke="#191919" stroke-linecap="round" stroke-linejoin="round" d="M17.2651 20.1298v-5.7353" stroke-width="1"></path>
  <path stroke="#191919" stroke-linecap="round" stroke-linejoin="round" d="m17.2645 14.3945 -2.1507 2.1507" stroke-width="1"></path>
  <path stroke="#191919" stroke-linecap="round" stroke-linejoin="round" d="m17.2651 14.3945 2.1508 2.1507" stroke-width="1"></path>
</svg>