<svg xmlns="http://www.w3.org/2000/svg" fill="none" viewBox="0 0 24 24" id="Common-File-Stack--Streamline-Ultimate">
  <desc>
    Common File Stack Streamline Icon: https://streamlinehq.com
  </desc>
  <path fill="#e3e3e3" d="M4 5.00003h9.586c0.2652 0.00006 0.5195 0.10545 0.707 0.293l2.414 2.414c0.1876 0.18749 0.2929 0.4418 0.293 0.70699V22c0 0.2652 -0.1054 0.5196 -0.2929 0.7071S16.2652 23 16 23H4c-0.26522 0 -0.51957 -0.1054 -0.70711 -0.2929C3.10536 22.5196 3 22.2652 3 22V6.00003c0 -0.26522 0.10536 -0.51957 0.29289 -0.70711 0.18754 -0.18753 0.44189 -0.29289 0.70711 -0.29289Z" stroke-width="1"></path>
  <path fill="#e3e3e3" d="M6.00049 3h9.58601c0.2652 0.00006 0.5195 0.10545 0.707 0.293l2.414 2.414c0.1876 0.18749 0.2929 0.4418 0.293 0.70699V20c0 0.2652 -0.1054 0.5196 -0.2929 0.7071S18.2657 21 18.0005 21H6.00049c-0.26522 0 -0.51957 -0.1054 -0.70711 -0.2929 -0.18753 -0.1875 -0.29289 -0.4419 -0.29289 -0.7071V4c0 -0.26522 0.10536 -0.51957 0.29289 -0.70711C5.48092 3.10536 5.73527 3 6.00049 3Z" stroke-width="1"></path>
  <path fill="#ffffff" d="M7.99951 1h9.58599c0.2652 0.00006 0.5195 0.10545 0.707 0.293l2.414 2.414c0.1876 0.18749 0.2929 0.4418 0.293 0.70699V18c0 0.2652 -0.1054 0.5196 -0.2929 0.7071S20.2647 19 19.9995 19H7.99951c-0.26522 0 -0.51957 -0.1054 -0.70711 -0.2929 -0.18753 -0.1875 -0.29289 -0.4419 -0.29289 -0.7071V2c0 -0.26522 0.10536 -0.51957 0.29289 -0.70711C7.47994 1.10536 7.73429 1 7.99951 1Z" stroke-width="1"></path>
  <path stroke="#191919" stroke-linecap="round" stroke-linejoin="round" d="M7.99951 1h9.58599c0.2652 0.00006 0.5195 0.10545 0.707 0.293l2.414 2.414c0.1876 0.18749 0.2929 0.4418 0.293 0.70699V18c0 0.2652 -0.1054 0.5196 -0.2929 0.7071S20.2647 19 19.9995 19H7.99951c-0.26522 0 -0.51957 -0.1054 -0.70711 -0.2929 -0.18753 -0.1875 -0.29289 -0.4419 -0.29289 -0.7071V2c0 -0.26522 0.10536 -0.51957 0.29289 -0.70711C7.47994 1.10536 7.73429 1 7.99951 1Z" stroke-width="1"></path>
  <path stroke="#191919" stroke-linecap="round" stroke-linejoin="round" d="M18.0005 21H6.00049c-0.26522 0 -0.51957 -0.1054 -0.70711 -0.2929 -0.18753 -0.1875 -0.29289 -0.4419 -0.29289 -0.7071V4" stroke-width="1"></path>
  <path stroke="#191919" stroke-linecap="round" stroke-linejoin="round" d="M16 23H4c-0.26522 0 -0.51957 -0.1054 -0.70711 -0.2929C3.10536 22.5196 3 22.2652 3 22V6" stroke-width="1"></path>
</svg>