<svg xmlns="http://www.w3.org/2000/svg" fill="none" viewBox="0 0 24 24" id="Design-File-Pen--Streamline-Ultimate">
  <desc>
    Design File Pen Streamline Icon: https://streamlinehq.com
  </desc>
  <path fill="#e3e3e3" d="M20.8068 4.82609c0.1793 0.17934 0.2801 0.42259 0.2802 0.67626V22.0435c0 0.2536 -0.1008 0.497 -0.2801 0.6763 -0.1794 0.1794 -0.4227 0.2802 -0.6764 0.2802H3.86961c-0.25368 0 -0.49698 -0.1008 -0.67636 -0.2802 -0.17938 -0.1793 -0.28016 -0.4227 -0.28016 -0.6763V1.95652c0 -0.25369 0.10078 -0.49698 0.28016 -0.67636C3.37263 1.10078 3.61593 1 3.86961 1H16.5847c0.2536 0.00005 0.4969 0.10087 0.6762 0.28026l3.5459 3.54583Z" stroke-width="1"></path>
  <path fill="#ffffff" d="m20.8068 4.82609 -3.5459 -3.54583c-0.1793 -0.17939 -0.4226 -0.28021 -0.6762 -0.28026H3.86961c-0.25368 0 -0.49698 0.10078 -0.67636 0.28016 -0.17938 0.17938 -0.28016 0.42267 -0.28016 0.67636V22.0435c0.00005 0.2536 0.10087 0.4969 0.28026 0.6762L20.9187 4.99443c-0.0309 -0.06012 -0.0685 -0.11659 -0.1119 -0.16834Z" stroke-width="1"></path>
  <path stroke="#191919" stroke-linecap="round" stroke-linejoin="round" d="M20.8068 4.82609c0.1793 0.17934 0.2801 0.42259 0.2802 0.67626V22.0435c0 0.2536 -0.1008 0.497 -0.2801 0.6763 -0.1794 0.1794 -0.4227 0.2802 -0.6764 0.2802H3.86961c-0.25368 0 -0.49698 -0.1008 -0.67636 -0.2802 -0.17938 -0.1793 -0.28016 -0.4227 -0.28016 -0.6763V1.95652c0 -0.25369 0.10078 -0.49698 0.28016 -0.67636C3.37263 1.10078 3.61593 1 3.86961 1H16.5847c0.2536 0.00005 0.4969 0.10087 0.6762 0.28026l3.5459 3.54583Z" stroke-width="1"></path>
  <path fill="#808080" d="m13.8975 9.63262 0.9727 -1.4587 1.9131 1.91308 -1.4587 0.9727" stroke-width="1"></path>
  <path fill="#e3e3e3" d="M14.7054 10.2514c-0.3553 -0.35536 -0.7771 -0.63719 -1.2413 -0.82948 -0.4642 -0.1923 -0.9617 -0.29127 -1.4642 -0.29127s-1 0.09897 -1.4642 0.29127c-0.4643 0.19229 -0.88605 0.47412 -1.24134 0.82948 -1.11243 1.1124 -2.52522 5.9247 -3.03313 7.9659l0.47826 0.4782c2.04218 -0.5079 6.85351 -1.9216 7.96591 -3.034 0.3553 -0.3553 0.6372 -0.7771 0.8294 -1.2413 0.1924 -0.4642 0.2913 -0.9618 0.2913 -1.4643 0 -0.5024 -0.0989 -1 -0.2913 -1.4642 -0.1922 -0.4642 -0.4741 -0.8851 -0.8294 -1.2403Z" stroke-width="1"></path>
  <path fill="#808080" d="M12.0005 13.913c0.1892 0 0.3741 -0.056 0.5314 -0.1611 0.1573 -0.1052 0.2799 -0.2546 0.3523 -0.4293 0.0724 -0.1748 0.0913 -0.3671 0.0544 -0.5527 -0.0369 -0.1856 -0.1281 -0.356 -0.2618 -0.4897 -0.1338 -0.1339 -0.3042 -0.2249 -0.4897 -0.2618 -0.1856 -0.037 -0.3779 -0.018 -0.5527 0.0544 -0.1748 0.0724 -0.3242 0.195 -0.4293 0.3523 -0.1051 0.1573 -0.1612 0.3422 -0.1612 0.5314 0 0.2537 0.1008 0.497 0.2802 0.6764 0.1794 0.1793 0.4227 0.2801 0.6764 0.2801Z" stroke-width="1"></path>
  <path stroke="#191919" stroke-linecap="round" stroke-linejoin="round" d="M11.3305 13.6261 6.5 18.4527" stroke-width="1"></path>
  <path fill="#ff808c" d="m18.2889 9.95207 -1.0282 0.61313 -2.8696 -2.86957 0.7595 -1.26643" stroke-width="1"></path>
  <path stroke="#191919" stroke-linecap="round" stroke-linejoin="round" d="m13.8975 9.63262 0.9727 -1.4587 1.9131 1.91308 -1.4587 0.9727" stroke-width="1"></path>
  <path stroke="#191919" stroke-linecap="round" stroke-linejoin="round" d="M14.7054 10.2514c-0.3553 -0.35536 -0.7771 -0.63719 -1.2413 -0.82948 -0.4642 -0.1923 -0.9617 -0.29127 -1.4642 -0.29127s-1 0.09897 -1.4642 0.29127c-0.4643 0.19229 -0.88605 0.47412 -1.24134 0.82948 -1.11243 1.1124 -2.52522 5.9247 -3.03313 7.9659l0.47826 0.4782c2.04218 -0.5079 6.85351 -1.9216 7.96591 -3.034 0.3553 -0.3553 0.6372 -0.7771 0.8294 -1.2413 0.1924 -0.4642 0.2913 -0.9618 0.2913 -1.4643 0 -0.5024 -0.0989 -1 -0.2913 -1.4642 -0.1922 -0.4642 -0.4741 -0.8851 -0.8294 -1.2403Z" stroke-width="1"></path>
  <path stroke="#191919" stroke-linecap="round" stroke-linejoin="round" d="M12.0005 13.913c0.1892 0 0.3741 -0.056 0.5314 -0.1611 0.1573 -0.1052 0.2799 -0.2546 0.3523 -0.4293 0.0724 -0.1748 0.0913 -0.3671 0.0544 -0.5527 -0.0369 -0.1856 -0.1281 -0.356 -0.2618 -0.4897 -0.1338 -0.1339 -0.3042 -0.2249 -0.4897 -0.2618 -0.1856 -0.037 -0.3779 -0.018 -0.5527 0.0544 -0.1748 0.0724 -0.3242 0.195 -0.4293 0.3523 -0.1051 0.1573 -0.1612 0.3422 -0.1612 0.5314 0 0.2537 0.1008 0.497 0.2802 0.6764 0.1794 0.1793 0.4227 0.2801 0.6764 0.2801Z" stroke-width="1"></path>
  <path stroke="#191919" stroke-linecap="round" stroke-linejoin="round" d="m18.2889 9.95207 -1.0282 0.61313 -2.8696 -2.86957 0.7595 -1.26643" stroke-width="1"></path>
</svg>