<svg xmlns="http://www.w3.org/2000/svg" fill="none" viewBox="0 0 24 24" id="Image-File-Jpg--Streamline-Ultimate">
  <desc>
    Image File Jpg Streamline Icon: https://streamlinehq.com
  </desc>
  <path fill="#66e1ff" d="M21.087 6.71044V22.0435c0 0.2537 -0.1007 0.497 -0.2801 0.6764S20.3842 23 20.1305 23H3.86961c-0.25369 0 -0.49698 -0.1007 -0.67636 -0.2801 -0.1794 -0.1794 -0.28016 -0.4227 -0.28016 -0.6764V1.95652c0 -0.25368 0.10076 -0.49698 0.28016 -0.67636C3.37263 1.10078 3.61592 1 3.86961 1H15.3766c0.3113 -0.000254 0.6219 0.02857 0.9278 0.08609V4.8261c0 0.25368 0.1008 0.49698 0.2802 0.67636 0.1794 0.17938 0.4226 0.28016 0.6763 0.28016h3.7401c0.0575 0.30592 0.0863 0.61655 0.086 0.92782Z" stroke-width="1"></path>
  <path fill="#c2f3ff" d="M16.6392 5.55305 2.91309 19.2887V1.95652c0 -0.25368 0.10076 -0.49698 0.28016 -0.67636C3.37263 1.10078 3.61592 1 3.86961 1H15.3766c0.3113 -0.000254 0.6219 0.02857 0.9278 0.08609V4.8261c0.0018 0.13785 0.0325 0.27378 0.0903 0.399 0.0576 0.12522 0.1409 0.23695 0.2445 0.32795Z" stroke-width="1"></path>
  <path fill="#ffffff" d="M21.0008 5.78259h-3.74c-0.2538 0 -0.497 -0.10078 -0.6764 -0.28016 -0.1794 -0.17938 -0.2802 -0.42268 -0.2802 -0.67636V1.08606c1.1775 0.18891 2.2654 0.74457 3.1087 1.58786 0.8433 0.84327 1.399 1.93115 1.5879 3.10867Z" stroke-width="1"></path>
  <path stroke="#191919" stroke-linecap="round" stroke-linejoin="round" d="M20.1305 23c0.2537 0 0.497 -0.1008 0.6764 -0.2801 0.1794 -0.1794 0.2801 -0.4227 0.2801 -0.6764V6.71523c0 -1.51578 -0.6021 -2.96947 -1.6739 -4.04128C18.3413 1.60214 16.8876 1 15.3718 1H3.86961c-0.25369 0 -0.49698 0.10078 -0.67636 0.28016 -0.1794 0.17938 -0.28016 0.42268 -0.28016 0.67636V22.0435c0 0.2537 0.10076 0.497 0.28016 0.6764 0.17938 0.1793 0.42267 0.2801 0.67636 0.2801H20.1305Z" stroke-width="1"></path>
  <path stroke="#191919" stroke-linecap="round" stroke-linejoin="round" d="M16.3042 1.07648v3.74956c0 0.2537 0.1008 0.49699 0.2802 0.67638 0.1794 0.17938 0.4226 0.28016 0.6764 0.28016h3.7495" stroke-width="1"></path>
  <path stroke="#191919" stroke-linecap="round" stroke-linejoin="round" d="M8.65278 12.4782v4.3044c0 0.3805 -0.15117 0.7455 -0.42024 1.0146 -0.26908 0.2691 -0.63403 0.4202 -1.01455 0.4202 -0.38053 0 -0.74547 -0.1511 -1.01455 -0.4202 -0.26907 -0.2691 -0.42024 -0.6341 -0.42024 -1.0146" stroke-width="1"></path>
  <path stroke="#191919" stroke-linecap="round" stroke-linejoin="round" d="M13.435 13.913c0 0.3806 -0.1512 0.7455 -0.4202 1.0145 -0.2691 0.2691 -0.634 0.4204 -1.0146 0.4204h-1.4348v-2.8697h1.4348c0.3806 0 0.7455 0.1513 1.0146 0.4203 0.269 0.269 0.4202 0.634 0.4202 1.0145Z" stroke-width="1"></path>
  <path stroke="#191919" stroke-linecap="round" stroke-linejoin="round" d="M10.5654 18.2174v-2.8695" stroke-width="1"></path>
  <path stroke="#191919" stroke-linecap="round" stroke-linejoin="round" d="M18.2177 14.3913v-0.4783c0 -0.3805 -0.1512 -0.7455 -0.4202 -1.0145 -0.2691 -0.269 -0.634 -0.4203 -1.0145 -0.4203 -0.3806 0 -0.7456 0.1513 -1.0146 0.4203 -0.2691 0.269 -0.4203 0.634 -0.4203 1.0145v2.8696c0 0.3805 0.1512 0.7455 0.4203 1.0146 0.269 0.2691 0.634 0.4202 1.0146 0.4202 0.3805 0 0.7454 -0.1511 1.0145 -0.4202 0.269 -0.2691 0.4202 -0.6341 0.4202 -1.0146v-0.4783h-0.9565" stroke-width="1"></path>
</svg>