<svg xmlns="http://www.w3.org/2000/svg" fill="none" viewBox="0 0 24 24" id="Video-File-M4v--Streamline-Ultimate">
  <desc>
    Video File M4v Streamline Icon: https://streamlinehq.com
  </desc>
  <path fill="#66e1ff" d="M21.087 6.71043V22.0435c0 0.2537 -0.1008 0.497 -0.2802 0.6763 -0.1793 0.1794 -0.4226 0.2802 -0.6763 0.2802H3.86961c-0.25369 0 -0.49698 -0.1008 -0.67637 -0.2802 -0.17938 -0.1793 -0.28015 -0.4226 -0.28015 -0.6763V1.95652c0 -0.25368 0.10077 -0.49698 0.28015 -0.67636C3.37263 1.10078 3.61592 1 3.86961 1H15.3766c0.3108 0 0.6217 0.0287 0.9278 0.08609v3.74c0 0.25368 0.1008 0.49698 0.2801 0.67636 0.1794 0.17938 0.4227 0.28016 0.6764 0.28016h3.74c0.0574 0.30609 0.0861 0.61696 0.0861 0.92782Z" stroke-width="1"></path>
  <path fill="#c2f3ff" d="M16.6392 5.55304 2.91309 19.2887V1.95652c0 -0.25368 0.10077 -0.49698 0.28015 -0.67636C3.37263 1.10078 3.61592 1 3.86961 1H15.3766c0.3108 0 0.6217 0.0287 0.9278 0.08609v3.74c0.0018 0.13785 0.0326 0.27378 0.0902 0.399 0.0577 0.12522 0.141 0.23695 0.2446 0.32795Z" stroke-width="1"></path>
  <path fill="#ffffff" d="M21.0012 5.78258h-3.74c-0.2537 0 -0.497 -0.10078 -0.6764 -0.28016 -0.1793 -0.17938 -0.2801 -0.42268 -0.2801 -0.67636v-3.74c1.1775 0.18891 2.2654 0.74457 3.1087 1.58785 0.8432 0.84328 1.3989 1.93115 1.5878 3.10867Z" stroke-width="1"></path>
  <path stroke="#191919" stroke-linecap="round" stroke-linejoin="round" d="M20.1305 23c0.2537 0 0.497 -0.1008 0.6763 -0.2802 0.1794 -0.1793 0.2802 -0.4226 0.2802 -0.6763V6.71522c0 -1.51577 -0.6021 -2.96946 -1.674 -4.04127C18.3412 1.60214 16.8876 1 15.3718 1H3.86961c-0.25369 0 -0.49698 0.10078 -0.67637 0.28016 -0.17938 0.17938 -0.28015 0.42268 -0.28015 0.67636V22.0435c0 0.2537 0.10077 0.497 0.28015 0.6763 0.17939 0.1794 0.42268 0.2802 0.67637 0.2802H20.1305Z" stroke-width="1"></path>
  <path stroke="#191919" stroke-linecap="round" stroke-linejoin="round" d="M16.3047 1.07654V4.8261c0 0.25369 0.1008 0.49698 0.2801 0.67637 0.1794 0.17938 0.4227 0.28015 0.6764 0.28015h3.7496" stroke-width="1"></path>
  <path stroke="#191919" stroke-linecap="round" stroke-linejoin="round" d="M5.78271 18.2174v-5.7391l1.43479 2.8695 1.43478 -2.8695v5.7391" stroke-width="1"></path>
  <path stroke="#191919" stroke-linecap="round" stroke-linejoin="round" d="M13.4229 18.2174v-1.9131" stroke-width="1"></path>
  <path stroke="#191919" stroke-linecap="round" stroke-linejoin="round" d="M13.4226 16.3043v-3.8165c-0.7431 0.3662 -1.3892 0.9028 -1.8857 1.566 -0.4965 0.6632 -0.8294 1.4343 -0.9715 2.2505h2.8572Z" stroke-width="1"></path>
  <path stroke="#191919" stroke-linecap="round" stroke-linejoin="round" d="M18.2182 12.4783v1.4348c0 1.5522 -0.5035 3.0625 -1.4348 4.3043 -0.9313 -1.2418 -1.4348 -2.7521 -1.4348 -4.3043v-1.4348" stroke-width="1"></path>
</svg>