<svg xmlns="http://www.w3.org/2000/svg" fill="none" viewBox="0 0 24 24" id="Video-File-Download--Streamline-Ultimate">
  <desc>
    Video File Download Streamline Icon: https://streamlinehq.com
  </desc>
  <path fill="#e4f1f5" d="M18.8941 4.82609c0.1795 0.17933 0.2802 0.42259 0.2803 0.67626V22.0435c0 0.2536 -0.1008 0.497 -0.2802 0.6763 -0.1793 0.1794 -0.4227 0.2802 -0.6763 0.2802H1.95701c-0.25369 0 -0.49698 -0.1008 -0.67636 -0.2802 -0.17939 -0.1793 -0.28016 -0.4227 -0.28016 -0.6763V1.95652c0 -0.25369 0.10077 -0.49698 0.28016 -0.67636C1.46003 1.10078 1.70332 1 1.95701 1H14.672c0.2537 0.00005 0.497 0.10087 0.6763 0.28026l3.5458 3.54583Z" stroke-width="1"></path>
  <path fill="#ffffff" d="m18.8941 4.82609 -3.5458 -3.54583c-0.1793 -0.17939 -0.4226 -0.28021 -0.6763 -0.28026H1.95701c-0.25369 0 -0.49698 0.10078 -0.67636 0.28016 -0.17939 0.17938 -0.28016 0.42267 -0.28016 0.67636V22.0435c0.00005 0.1941 0.05919 0.3837 0.16956 0.5435 0.11037 0.1597 0.26675 0.282 0.44835 0.3508L19.1677 5.38948c-0.0253 -0.21317 -0.1218 -0.41161 -0.2736 -0.56339Z" stroke-width="1"></path>
  <path fill="#66e1ff" d="M7.82635 8.37861c-0.11128 -0.06203 -0.23684 -0.09389 -0.36423 -0.09243 -0.1274 0.00146 -0.2522 0.03621 -0.36201 0.10079 -0.10983 0.06458 -0.20086 0.15674 -0.26407 0.26737 -0.06322 0.11061 -0.09641 0.23583 -0.09629 0.36323v5.48663c-0.00012 0.1274 0.03307 0.2526 0.09629 0.3632 0.06321 0.1106 0.15424 0.2028 0.26407 0.2674 0.10981 0.0646 0.23461 0.0993 0.36201 0.1007 0.12739 0.0016 0.25295 -0.0304 0.36423 -0.0924l4.75485 -2.926c0.1139 -0.0634 0.2089 -0.1561 0.275 -0.2686 0.0661 -0.1123 0.101 -0.2404 0.101 -0.3708 0 -0.1305 -0.0349 -0.2584 -0.101 -0.3709 -0.0661 -0.1124 -0.1611 -0.2051 -0.275 -0.2685L7.82635 8.37861Z" stroke-width="1"></path>
  <path stroke="#191919" stroke-linecap="round" stroke-linejoin="round" d="M9.60918 23H1.95701c-0.25369 0 -0.49698 -0.1008 -0.67636 -0.2802 -0.17939 -0.1793 -0.28016 -0.4227 -0.28016 -0.6763V1.95652c0 -0.25369 0.10077 -0.49698 0.28016 -0.67636C1.46003 1.10078 1.70332 1 1.95701 1H14.672c0.2537 0.00005 0.497 0.10087 0.6763 0.28026l3.5458 3.54583c0.1795 0.17933 0.2802 0.42259 0.2803 0.67626v3.14982" stroke-width="1"></path>
  <path stroke="#191919" stroke-linecap="round" stroke-linejoin="round" d="M12.5812 10.9383 7.82635 8.37861c-0.11128 -0.06203 -0.23684 -0.09389 -0.36423 -0.09243 -0.1274 0.00146 -0.2522 0.03621 -0.36201 0.10079 -0.10983 0.06458 -0.20086 0.15674 -0.26407 0.26737 -0.06322 0.11061 -0.09641 0.23583 -0.09629 0.36323v5.48663c-0.00012 0.1274 0.03307 0.2526 0.09629 0.3632 0.06321 0.1106 0.15424 0.2028 0.26407 0.2674 0.10981 0.0646 0.23461 0.0993 0.36201 0.1007 0.12739 0.0016 0.25295 -0.0304 0.36423 -0.0924l2.08044 -1.2798" stroke-width="1"></path>
  <path fill="#78eb7b" d="M17.2606 23c1.1351 0 2.2447 -0.3366 3.1885 -0.9672 0.9438 -0.6307 1.6794 -1.5269 2.1138 -2.5757 0.4344 -1.0487 0.548 -2.2026 0.3266 -3.3158 -0.2215 -1.1133 -0.768 -2.1359 -1.5707 -2.9386 -0.8027 -0.8027 -1.8253 -1.3492 -2.9386 -1.5707 -1.1132 -0.2214 -2.2671 -0.1078 -3.3159 0.3266 -1.0487 0.4344 -1.9449 1.17 -2.5756 2.1138 -0.6306 0.9438 -0.9672 2.0534 -0.9672 3.1885 0 1.5221 0.6046 2.9818 1.681 4.0581C14.2788 22.3954 15.7385 23 17.2606 23Z" stroke-width="1"></path>
  <path fill="#c9f7ca" d="M17.261 11.5218c-1.1683 -0.0013 -2.309 0.3544 -3.2695 1.0193 -0.9606 0.665 -1.6951 1.6076 -2.1052 2.7014 -0.41 1.0939 -0.4762 2.287 -0.1895 3.4196 0.2866 1.1325 0.9125 2.1504 1.7936 2.9175l8.0903 -8.0903c-0.5374 -0.6179 -1.201 -1.1133 -1.9462 -1.4527 -0.7453 -0.3394 -1.5546 -0.515 -2.3735 -0.5148Z" stroke-width="1"></path>
  <path stroke="#191919" stroke-linecap="round" stroke-linejoin="round" d="M17.2606 23c1.1351 0 2.2447 -0.3366 3.1885 -0.9672 0.9438 -0.6307 1.6794 -1.5269 2.1138 -2.5757 0.4344 -1.0487 0.548 -2.2026 0.3266 -3.3158 -0.2215 -1.1133 -0.768 -2.1359 -1.5707 -2.9386 -0.8027 -0.8027 -1.8253 -1.3492 -2.9386 -1.5707 -1.1132 -0.2214 -2.2671 -0.1078 -3.3159 0.3266 -1.0487 0.4344 -1.9449 1.17 -2.5756 2.1138 -0.6306 0.9438 -0.9672 2.0534 -0.9672 3.1885 0 1.5221 0.6046 2.9818 1.681 4.0581C14.2788 22.3954 15.7385 23 17.2606 23Z" stroke-width="1"></path>
  <path stroke="#191919" stroke-linecap="round" stroke-linejoin="round" d="M17.2607 14.3913v5.7392" stroke-width="1"></path>
  <path stroke="#191919" stroke-linecap="round" stroke-linejoin="round" d="m17.2606 20.1304 -2.1522 -2.1521" stroke-width="1"></path>
  <path stroke="#191919" stroke-linecap="round" stroke-linejoin="round" d="m17.2607 20.1304 2.1522 -2.1521" stroke-width="1"></path>
</svg>