<svg xmlns="http://www.w3.org/2000/svg" fill="none" viewBox="0 0 14 14" id="Outgoing-Call--Streamline-Core-Neon">
  <desc>
    Outgoing Call Streamline Icon: https://streamlinehq.com
  </desc>
  <g id="outgoing-call--android-phone-mobile-device-smartphone-iphone-ringing-outgoing-call">
    <path id="Vector" stroke="#c71dff" stroke-linecap="round" stroke-linejoin="round" d="M6.52933 13.0702c-0.5184 0.3338 -1.13544 0.4801 -1.74852 0.4146 -0.61309 -0.0655 -1.18529 -0.3389 -1.62148 -0.7746l-0.38 -0.38c-0.16855 -0.1704 -0.26309 -0.4004 -0.26309 -0.64 0 -0.2397 0.09454 -0.4697 0.26309 -0.64l1.6 -1.59005c0.16867 -0.16793 0.39699 -0.26221 0.635 -0.26221s0.46633 0.09428 0.635 0.26221v0c0.17037 0.16855 0.40035 0.26309 0.64 0.26309 0.23965 0 0.46963 -0.09454 0.64 -0.26309l2.55 -2.55c0.16855 -0.17036 0.26308 -0.40034 0.26308 -0.64 0 -0.23965 -0.09453 -0.46963 -0.26308 -0.64v0c-0.16793 -0.16866 -0.26221 -0.39698 -0.26221 -0.635 0 -0.23801 0.09428 -0.46633 0.26221 -0.635l1.53997 -1.6c0.1704 -0.16854 0.4004 -0.26308 0.64 -0.26308 0.2397 0 0.4697 0.09454 0.64 0.26308l0.38 0.38c0.4436 0.43004 0.7263 0.9992 0.8009 1.61251 0.0746 0.6133 -0.0633 1.23364 -0.3909 1.75749 -1.7437 2.58879 -3.97119 4.81625 -6.55997 6.56005v0Z" stroke-width="1"></path>
    <path id="Vector_2" stroke="#000cfe" stroke-linecap="round" stroke-linejoin="round" d="M4 0.5H0.5V4" stroke-width="1"></path>
    <path id="Vector_3" stroke="#000cfe" stroke-linecap="round" stroke-linejoin="round" d="m0.5 0.5 4.99997 4.99997" stroke-width="1"></path>
  </g>
</svg>