<svg xmlns="http://www.w3.org/2000/svg" fill="none" viewBox="0 0 14 14"><g id="airplane-enabled--server-plane-airplane-enabled-on-wireless-mode-internet-network"><path id="Vector 1959" fill="#3e3e3e" d="m4.886 4.85-.204-1.393a3.185 3.185 0 0 1 .651-2.435 2.123 2.123 0 0 1 3.334 0c.542.687.778 1.568.651 2.435L9.114 4.85l4.117 2.088a1.062 1.062 0 0 1-.714 1.982l-3.906-.882-.235 2.181 2.04 1.729a1.064 1.064 0 0 1-1.111 1.788l-2.305-1-2.305 1a1.064 1.064 0 0 1-1.111-1.788l2.04-1.729L5.39 8.04l-3.906.882A1.062 1.062 0 0 1 .77 6.94l4.116-2.09Z"></path></g></svg>