<svg xmlns="http://www.w3.org/2000/svg" fill="none" viewBox="0 0 14 14"><g id="call-hang-up--phone-telephone-mobile-device-smartphone-call-hang-up"><path id="Union" fill="#3e3e3e" fill-rule="evenodd" d="M.22 1.28A.75.75 0 0 1 1.28.22l6.123 6.122.953-.954.003-.002a.542.542 0 0 0 0-.772l-.006-.006a1.552 1.552 0 0 1 0-2.175l1.87-1.87.004-.004a1.561 1.561 0 0 1 2.184 0l.437.447a3.635 3.635 0 0 1 .498 4.555l-.006.01a28.946 28.946 0 0 1-2.995 3.713l3.435 3.436a.75.75 0 1 1-1.06 1.06L.22 1.28Zm5.242 7.002 2.895 2.895-.071.066a28.921 28.921 0 0 1-2.707 2.069l-.009.005a3.635 3.635 0 0 1-4.555-.498l-.44-.43-.007-.007a1.561 1.561 0 0 1 0-2.184L2.45 8.335l.001-.001a1.552 1.552 0 0 1 2.175 0v-.001l-.35.357.35-.356a.561.561 0 0 0 .783 0l.052-.052Z" clip-rule="evenodd"></path></g></svg>