<svg xmlns="http://www.w3.org/2000/svg" fill="none" viewBox="0 0 14 14"><g id="cellular-network-4g"><path id="Union" fill="#3e3e3e" fill-rule="evenodd" d="M1.695 2.236a.625.625 0 0 0 .806.956 7.325 7.325 0 0 1 4.503-1.717 7.313 7.313 0 0 1 4.495 1.717.625.625 0 1 0 .806-.955A8.563 8.563 0 0 0 6.987.226a8.576 8.576 0 0 0-5.291 2.01Zm2.456 1.976a.625.625 0 1 0 .72 1.021c.673-.474 1.406-.733 2.146-.774.74.039 1.477.297 2.15.771a.625.625 0 0 0 .72-1.022c-.863-.607-1.836-.954-2.843-1h-.058c-1.004.049-1.975.397-2.835 1.004ZM9.66 8.584c-.38 0-.68.305-.68.673v2.595c0 .368.3.673.68.673h.87c.38 0 .681-.305.681-.673v-.24h-.68a.625.625 0 0 1 0-1.25h1.305c.345 0 .625.28.625.625v.865a1.927 1.927 0 0 1-1.93 1.923H9.66a1.927 1.927 0 0 1-1.93-1.923V9.257c0-1.066.867-1.923 1.93-1.923h.87c.84 0 1.555.533 1.82 1.28a.625.625 0 1 1-1.177.42.68.68 0 0 0-.642-.45H9.66Zm-4.314-1.25a.925.925 0 0 0-.694.314l-2.879 3.27a.939.939 0 0 0 .705 1.56H5.02v.672a.625.625 0 1 0 1.25 0v-.673h.245a.625.625 0 1 0 0-1.25H6.27V8.26a.925.925 0 0 0-.925-.925ZM5.021 9.12v2.107H3.166L5.02 9.12Z" clip-rule="evenodd"></path></g></svg>