<svg xmlns="http://www.w3.org/2000/svg" fill="none" viewBox="0 0 48 48" id="Inbox-Post--Streamline-Plump">
  <desc>
    Inbox Post Streamline Icon: https://streamlinehq.com
  </desc>
  <g id="inbox-post--mail-flag-new-open-inbox-mailbox-post">
    <path id="Rectangle 1101" fill="#ffffff" d="M33 5.5c0 -1.43458 -1.1182 -2.47091 -2.5527 -2.49298C30.1599 3.00259 29.8445 3 29.5 3L26 3l0 2.5L26 8l3.5 0c0.3445 0 0.6599 -0.00259 0.9473 -0.00702C31.8818 7.97091 33 6.93458 33 5.5Z" stroke-width="1"></path>
    <path id="Vector" fill="#8fbffa" d="M37 39H11c-2.08614 0 -3.706 -0.0947 -4.90517 -0.21 -1.64818 -0.1586 -2.8135 -1.4946 -2.89466 -3.1484C3.10181 33.6373 3 30.4804 3 26c0 -1.7848 0.01616 -3.3595 0.04181 -4.7351C3.12785 16.6524 6.38669 13 11 13h26c4.6133 0 7.8721 3.6524 7.9582 8.2649C44.9838 22.6405 45 24.2152 45 26c0 4.4804 -0.1018 7.6373 -0.2002 9.6416 -0.0811 1.6538 -1.2464 2.9898 -2.8946 3.1483C40.706 38.9053 39.0861 39 37 39Z" stroke-width="1"></path>
    <path id="Subtract" fill="#ffffff" d="M21.1074 39c0.075 1.6016 0.175 3.1045 0.2513 4.151 0.0635 0.8701 0.6927 1.5916 1.5578 1.7037 0.6041 0.0784 1.3384 0.1453 2.0837 0.1453 0.7454 0 1.4798 -0.067 2.0839 -0.1453 0.8651 -0.1121 1.4944 -0.8337 1.5579 -1.7037 0.0763 -1.0466 0.1763 -2.5494 0.2512 -4.151h-7.7858Z" stroke-width="1"></path>
    <path id="Rectangle 1100" fill="#ffffff" d="M11 13c-4.61331 0 -7.87215 3.6524 -7.95819 8.2649C3.01616 22.6405 3 24.2152 3 26c0 4.4804 0.10181 7.6373 0.20017 9.6416 0.08116 1.6538 1.24648 2.9898 2.89466 3.1484C7.294 38.9053 8.91386 39 11 39c2.0861 0 3.706 -0.0947 4.9052 -0.21 1.6482 -0.1586 2.8135 -1.4946 2.8946 -3.1484C18.8982 33.6373 19 30.4804 19 26c0 -1.7848 -0.0162 -3.3595 -0.0418 -4.7351C18.8722 16.6524 15.6133 13 11 13Z" stroke-width="1"></path>
    <path id="Rectangle 1098" stroke="#2859c5" stroke-linejoin="round" d="m11 13 26 0c4.6133 0 7.8721 3.6524 7.9582 8.2649C44.9838 22.6405 45 24.2152 45 26c0 4.4804 -0.1018 7.6373 -0.2002 9.6416 -0.0811 1.6538 -1.2464 2.9898 -2.8946 3.1483C40.706 38.9053 39.0861 39 37 39l-26 0" stroke-width="1"></path>
    <path id="Subtract_2" stroke="#2859c5" stroke-linecap="round" stroke-linejoin="round" d="M21.1074 39c0.075 1.6016 0.175 3.1045 0.2513 4.151 0.0635 0.8701 0.6927 1.5916 1.5578 1.7037 0.6041 0.0784 1.3384 0.1453 2.0837 0.1453 0.7454 0 1.4798 -0.0669 2.0839 -0.1453 0.8651 -0.1121 1.4944 -0.8337 1.5579 -1.7037 0.0763 -1.0466 0.1763 -2.5494 0.2512 -4.151" stroke-width="1"></path>
    <path id="Rectangle 1097" stroke="#2859c5" stroke-linejoin="round" d="M11 13c-4.61331 0 -7.87215 3.6524 -7.95819 8.2649C3.01616 22.6405 3 24.2152 3 26c0 4.4804 0.10181 7.6373 0.20017 9.6416 0.08116 1.6538 1.24648 2.9898 2.89466 3.1484C7.294 38.9053 8.91386 39 11 39c2.0861 0 3.706 -0.0947 4.9052 -0.21 1.6482 -0.1586 2.8135 -1.4946 2.8946 -3.1484C18.8982 33.6373 19 30.4804 19 26c0 -1.7848 -0.0162 -3.3595 -0.0418 -4.7351C18.8721 16.6524 15.6133 13 11 13Z" stroke-width="1"></path>
    <path id="Rectangle 1099" stroke="#2859c5" stroke-linecap="round" stroke-linejoin="round" d="m26 3 3.5 0c0.3445 0 0.6599 0.00259 0.9473 0.00702C31.8818 3.02909 33 4.06542 33 5.5c0 1.43458 -1.1182 2.47091 -2.5527 2.49298C30.1599 7.99741 29.8445 8 29.5 8L26 8" stroke-width="1"></path>
    <path id="Vector 1483" stroke="#2859c5" stroke-linecap="round" stroke-linejoin="round" d="M14 22H8" stroke-width="1"></path>
    <path id="Vector 1484" stroke="#2859c5" stroke-linecap="round" stroke-linejoin="round" d="M26 30V3" stroke-width="1"></path>
  </g>
</svg>