<svg xmlns="http://www.w3.org/2000/svg" fill="none" viewBox="0 0 48 48" id="Smiley-Sparks--Streamline-Plump">
  <desc>
    Smiley Sparks Streamline Icon: https://streamlinehq.com
  </desc>
  <g id="smiley-sparks">
    <path id="Ellipse 23" fill="#8fbffa" d="M45 24c0 11.598 -9.402 21 -21 21S3 35.598 3 24 12.402 3 24 3s21 9.402 21 21Z" stroke-width="3"></path>
    <path id="Ellipse 26" fill="#ffffff" d="M24 40c5.24 0 9.697 -3.36 11.332 -8.042 0.663 -1.897 -1.285 -3.424 -3.263 -3.07 -2.143 0.385 -4.985 0.748 -8.069 0.748 -3.084 0 -5.926 -0.363 -8.07 -0.747 -1.977 -0.355 -3.925 1.172 -3.262 3.069C14.303 36.64 18.759 40 24 40Z" stroke-width="3"></path>
    <path id="Star 14" fill="#ffffff" d="M35.062 4.536c0.322 -0.87 1.554 -0.87 1.876 0l2.244 6.07 5.02 2.498a1 1 0 0 1 0 1.79l-5.02 2.5 -2.244 6.069c-0.322 0.87 -1.554 0.87 -1.876 0l-2.244 -6.07 -5.02 -2.498a1 1 0 0 1 0 -1.79l5.02 -2.5 2.244 -6.069Z" stroke-width="3"></path>
    <path id="Star 15" fill="#ffffff" d="M12.938 4.536c-0.322 -0.87 -1.554 -0.87 -1.876 0l-2.244 6.07 -5.02 2.498a1 1 0 0 0 0 1.79l5.02 2.5 2.244 6.069c0.322 0.87 1.554 0.87 1.876 0l2.244 -6.07 5.02 -2.498a1 1 0 0 0 0 -1.79l-5.02 -2.5 -2.244 -6.069Z" stroke-width="3"></path>
    <path id="Ellipse 18" stroke="#2859c5" stroke-linecap="round" stroke-linejoin="round" d="M17.578 4C19.602 3.35 21.76 3 24 3c2.24 0 4.398 0.35 6.422 1M44.62 20c0.25 1.295 0.38 2.632 0.38 4 0 11.598 -9.402 21 -21 21S3 35.598 3 24c0 -1.368 0.13 -2.705 0.38 -4" stroke-width="3"></path>
    <path id="Ellipse 25" stroke="#2859c5" stroke-linecap="round" stroke-linejoin="round" d="M24 40c5.24 0 9.697 -3.36 11.332 -8.042 0.663 -1.897 -1.285 -3.424 -3.263 -3.07 -2.143 0.385 -4.985 0.748 -8.069 0.748 -3.084 0 -5.926 -0.363 -8.07 -0.747 -1.977 -0.355 -3.925 1.172 -3.262 3.069C14.303 36.64 18.759 40 24 40Z" stroke-width="3"></path>
    <path id="Star 12" stroke="#2859c5" stroke-linejoin="round" d="M35.062 4.537c0.322 -0.871 1.554 -0.87 1.876 0l2.244 6.07 5.02 2.498a1 1 0 0 1 0 1.79l-5.02 2.5 -2.244 6.069c-0.322 0.87 -1.554 0.87 -1.876 0l-2.244 -6.07 -5.02 -2.498a1 1 0 0 1 0 -1.79l5.02 -2.5 2.244 -6.069Z" stroke-width="3"></path>
    <path id="Star 13" stroke="#2859c5" stroke-linejoin="round" d="M12.938 4.537c-0.322 -0.871 -1.554 -0.87 -1.876 0l-2.244 6.07 -5.02 2.498a1 1 0 0 0 0 1.79l5.02 2.5 2.244 6.069c0.322 0.87 1.554 0.87 1.876 0l2.244 -6.07 5.02 -2.498a1 1 0 0 0 0 -1.79l-5.02 -2.5 -2.244 -6.069Z" stroke-width="3"></path>
  </g>
</svg>