<svg xmlns="http://www.w3.org/2000/svg" fill="none" viewBox="0 0 24 24" id="Digital-Ocean-Logo--Streamline-Logos-Block">
  <desc>
    Digital Ocean Logo Streamline Icon: https://streamlinehq.com
  </desc>
  <path fill="#000000" fill-rule="evenodd" d="M5 1a4 4 0 0 0 -4 4v14a4 4 0 0 0 4 4h14a4 4 0 0 0 4 -4V5a4 4 0 0 0 -4 -4H5Zm7 5.91A5.09 5.09 0 0 0 6.91 12H4a8 8 0 1 1 8 8v-2.91a5.09 5.09 0 0 0 0 -10.18Zm-2.91 9.817v-2.909H12v2.91H9.09Zm-2.18 0h2.18v2.182H6.91v-2.182Zm0 0V14.91H5.09v1.818h1.82Z" clip-rule="evenodd" stroke-width="1"></path>
</svg>