<svg xmlns="http://www.w3.org/2000/svg" fill="none" viewBox="0 0 24 24" id="F-Droid-Logo--Streamline-Logos-Block">
  <desc>
    F Droid Logo Streamline Icon: https://streamlinehq.com
  </desc>
  <path fill="#000000" fill-rule="evenodd" d="M5 1a4 4 0 0 0 -4 4v14a4 4 0 0 0 4 4h14a4 4 0 0 0 4 -4V5a4 4 0 0 0 -4 -4H5Zm-0.36 3.723a0.5 0.5 0 0 1 0.707 0l1.335 1.334a0.504 0.504 0 0 1 0.048 0.057 0.974 0.974 0 0 1 0.265 -0.036h10.01c0.091 0 0.18 0.012 0.265 0.036a0.512 0.512 0 0 1 0.048 -0.057l1.335 -1.334a0.5 0.5 0 1 1 0.707 0.707l-1.335 1.334a0.495 0.495 0 0 1 -0.055 0.049c0.023 0.084 0.036 0.174 0.036 0.266v2.336c0 0.552 -0.449 1 -1.002 1H6.995a1 1 0 0 1 -1 -1V7.079c0 -0.092 0.012 -0.182 0.035 -0.267a0.504 0.504 0 0 1 -0.055 -0.048L4.64 5.43a0.5 0.5 0 0 1 0 -0.707Zm2.355 6.36a1 1 0 0 0 -1 1v6.34a1 1 0 0 0 1 1.001h10.01a1 1 0 0 0 1 -1v-6.34a1 1 0 0 0 -1 -1.001H6.995Zm2.502 4.17a2.503 2.503 0 1 1 5.006 0 2.503 2.503 0 0 1 -5.006 0ZM12 11.75a3.503 3.503 0 1 0 0 7.006 3.503 3.503 0 0 0 0 -7.006Zm0 4.346a0.844 0.844 0 1 0 -0.609 -1.427h-1.14a1.844 1.844 0 1 1 0 1.168h1.14c0.154 0.16 0.37 0.26 0.61 0.26ZM9.998 8.247c0 0.645 -0.448 1.168 -1 1.168 -0.554 0 -1.002 -0.523 -1.002 -1.168 0 -0.645 0.448 -1.168 1.001 -1.168 0.553 0 1.001 0.523 1.001 1.168Zm5.005 1.168c0.553 0 1 -0.523 1 -1.168 0 -0.645 -0.447 -1.168 -1 -1.168 -0.553 0 -1.001 0.523 -1.001 1.168 0 0.645 0.448 1.168 1 1.168Z" clip-rule="evenodd" stroke-width="1"></path>
</svg>