<svg xmlns="http://www.w3.org/2000/svg" fill="none" viewBox="0 0 24 24" id="Google-Fit-Logo--Streamline-Logos-Block">
  <desc>
    Google Fit Logo Streamline Icon: https://streamlinehq.com
  </desc>
  <path fill="#000000" fill-rule="evenodd" d="M5 1a4 4 0 0 0 -4 4v14a4 4 0 0 0 4 4h14a4 4 0 0 0 4 -4V5a4 4 0 0 0 -4 -4H5Zm5.697 7.617 1.299 -1.3 0.004 0.005 0.614 -0.614a4.327 4.327 0 0 1 6.119 6.118l-0.485 0.485 -2.078 -2.078 0.485 -0.485a1.388 1.388 0 1 0 -1.963 -1.962l-1.914 1.913 -2.081 -2.082Zm-5.43 -1.91a4.327 4.327 0 0 1 5.945 -0.164L9.124 8.631a1.388 1.388 0 0 0 -1.933 1.934l-2.088 2.088a4.327 4.327 0 0 1 0.164 -5.945ZM17.47 14.09l-2.078 -2.078L12 15.403l-1.186 -1.186 -2.078 2.079L12 19.559l5.47 -5.47ZM9.921 9.4 7.96 11.362l-0.004 -0.004 -2.078 2.078 2.08 2.08 2.463 -2.463 0.002 0.002L12 11.479 9.921 9.4Z" clip-rule="evenodd" stroke-width="1"></path>
</svg>