<svg xmlns="http://www.w3.org/2000/svg" fill="none" viewBox="0 0 24 24" id="Snapdragon-Logo--Streamline-Logos-Block">
  <desc>
    Snapdragon Logo Streamline Icon: https://streamlinehq.com
  </desc>
  <path fill="#000000" fill-rule="evenodd" d="M5 1a4 4 0 0 0 -4 4v14a4 4 0 0 0 4 4h14a4 4 0 0 0 4 -4V5a4 4 0 0 0 -4 -4H5Zm2.164 6.808c0.979 -2.071 2.566 -3.544 4.29 -3.636C16.108 3.922 19.84 7.38 19.84 12a7.976 7.976 0 0 1 -7.976 7.976c-2.204 0 -4.405 -1.21 -5.91 -2.907a7.704 7.704 0 0 1 -1.796 -3.632c0.703 1.218 2.765 1.982 4.103 2.336 1.078 0.288 1.318 1.146 1.445 1.963 1.112 -2.7 -0.24 -3.436 -1.676 -4.218a49.088 49.088 0 0 1 -0.184 -0.1 21.196 21.196 0 0 0 -0.324 -0.176c-1.516 -0.812 -3.701 -1.983 -2.648 -4.825 0.563 -1.083 1.226 -2.019 2.221 -2.726 -0.233 0.682 -0.112 1.42 0.068 2.117ZM11.9 5.524c-0.837 0.632 -1.21 1.203 -1.242 1.73 -0.034 0.552 0.29 1.383 1.675 2.551 1.48 1.244 2.381 2.485 2.781 3.686 0.407 1.22 0.281 2.356 -0.215 3.311 -0.275 0.53 -0.657 0.994 -1.11 1.383A6.476 6.476 0 0 0 11.9 5.524Z" clip-rule="evenodd" stroke-width="1"></path>
</svg>