<svg xmlns="http://www.w3.org/2000/svg" fill="none" viewBox="0 0 14 14"><g id="airport-security"><path id="Vector" fill="#37d7ff" d="M7.36 13.433a1 1 0 0 1-.72 0A9.565 9.565 0 0 1 .505 4.498V1.499a1 1 0 0 1 1-.999h10.993a1 1 0 0 1 1 1v2.998a9.565 9.565 0 0 1-6.137 8.935Z"></path><path id="Vector_2" fill="#ffffff" d="m3.059 4.55.826-.282a.281.281 0 0 1 .364.149l.603.934 3.306-1.653A2.058 2.058 0 0 1 11.1 4.739a.561.561 0 0 1-.372.703L8.79 6.01l-.215.066-.744 2.178a.297.297 0 0 1-.198.207L6.439 8.9a.306.306 0 0 1-.397-.347l.537-1.765-.14.041-2.108.686a.554.554 0 0 1-.702-.339l-.744-2.289a.281.281 0 0 1 .174-.339Z"></path><path id="Vector_3" stroke="#3e3e3e" stroke-linecap="round" stroke-linejoin="round" d="M7.36 13.433a1 1 0 0 1-.72 0A9.565 9.565 0 0 1 .505 4.498V1.499a1 1 0 0 1 1-.999h10.993a1 1 0 0 1 1 1v2.998a9.565 9.565 0 0 1-6.137 8.935Z"></path><path id="Vector_4" stroke="#3e3e3e" stroke-linecap="round" stroke-linejoin="round" d="m3.059 4.55.826-.282a.281.281 0 0 1 .364.149l.603.934 3.306-1.653A2.058 2.058 0 0 1 11.1 4.739a.561.561 0 0 1-.372.703L8.79 6.01l-.215.066-.744 2.178a.297.297 0 0 1-.198.207L6.439 8.9a.306.306 0 0 1-.397-.347l.537-1.765-.14.041-2.107.686a.554.554 0 0 1-.703-.339l-.744-2.289a.281.281 0 0 1 .174-.339Z"></path></g></svg>