<svg xmlns="http://www.w3.org/2000/svg" fill="none" viewBox="0 0 14 14" id="Hotel-Two-Star--Streamline-Core">
  <desc>
    Hotel Two Star Streamline Icon: https://streamlinehq.com
  </desc>
  <g id="hotel-two-star--two-stars-reviews-review-rating-hotel-star">
    <path id="Vector" fill="#d7e0ff" d="M6.03858 1.28224c0.10205 -0.1629 0.24381 -0.297202 0.41198 -0.390301C6.61874 0.798841 6.80781 0.75 7.00003 0.75c0.19223 0 0.3813 0.048841 0.54947 0.141939 0.16818 0.093099 0.30994 0.227401 0.41198 0.390301L9.8267 4.23389l2.4325 0.29805c0.2017 0.02254 0.3935 0.09972 0.5546 0.2232 0.1611 0.12349 0.2855 0.2886 0.3597 0.47755 0.0741 0.18895 0.0954 0.39457 0.0613 0.59469 -0.034 0.20012 -0.122 0.38715 -0.2545 0.54094l-2.0287 2.32671 0.6538 3.22087c0.041 0.2101 0.0211 0.4276 -0.0572 0.6269 -0.0784 0.1992 -0.212 0.372 -0.3851 0.498 -0.1753 0.1237 -0.3818 0.1955 -0.596 0.2074 -0.2142 0.0119 -0.4275 -0.0366 -0.61541 -0.1401l-2.95166 -1.6153 -2.95165 1.6153c-0.18793 0.1035 -0.40116 0.152 -0.61537 0.1401 -0.21421 -0.0119 -0.42075 -0.0837 -0.59606 -0.2074 -0.17313 -0.126 -0.30671 -0.2988 -0.38505 -0.498 -0.07835 -0.1993 -0.09819 -0.4168 -0.05721 -0.6269l0.65378 -3.22087 -2.02866 -2.32671C0.887309 6.21453 0.799293 6.0275 0.765248 5.82738c-0.034045 -0.20012 -0.012826 -0.40574 0.061369 -0.59469 0.074194 -0.18895 0.198553 -0.35406 0.359663 -0.47755 0.16112 -0.12348 0.35288 -0.20066 0.55462 -0.2232l2.43247 -0.29805 1.86521 -2.95165Z" stroke-width="1"></path>
    <path id="Vector_2" stroke="#4147d5" stroke-linecap="round" stroke-linejoin="round" d="M6.03858 1.28224c0.10205 -0.1629 0.24381 -0.297202 0.41198 -0.390301C6.61874 0.798841 6.80781 0.75 7.00003 0.75c0.19223 0 0.3813 0.048841 0.54947 0.141939 0.16818 0.093099 0.30994 0.227401 0.41198 0.390301L9.8267 4.23389l2.4325 0.29805c0.2017 0.02254 0.3935 0.09972 0.5546 0.2232 0.1611 0.12349 0.2855 0.2886 0.3597 0.47755 0.0741 0.18895 0.0954 0.39457 0.0613 0.59469 -0.034 0.20012 -0.122 0.38715 -0.2545 0.54094l-2.0287 2.32671 0.6538 3.22087c0.041 0.2101 0.0211 0.4276 -0.0572 0.6269 -0.0784 0.1992 -0.212 0.372 -0.3851 0.498 -0.1753 0.1237 -0.3818 0.1955 -0.596 0.2074 -0.2142 0.0119 -0.4275 -0.0366 -0.61541 -0.1401l-2.95166 -1.6153 -2.95165 1.6153c-0.18793 0.1035 -0.40116 0.152 -0.61537 0.1401 -0.21421 -0.0119 -0.42075 -0.0837 -0.59606 -0.2074 -0.17313 -0.126 -0.30671 -0.2988 -0.38505 -0.498 -0.07835 -0.1993 -0.09819 -0.4168 -0.05721 -0.6269l0.65378 -3.22087 -2.02866 -2.32671C0.887309 6.21453 0.799293 6.0275 0.765248 5.82738c-0.034045 -0.20012 -0.012826 -0.40574 0.061369 -0.59469 0.074194 -0.18895 0.198553 -0.35406 0.359663 -0.47755 0.16112 -0.12348 0.35288 -0.20066 0.55462 -0.2232l2.43247 -0.29805 1.86521 -2.95165Z" stroke-width="1"></path>
    <path id="Vector 3" stroke="#4147d5" stroke-linecap="round" stroke-linejoin="round" d="M8.44003 9.45098h-2.88v-0.61367c0 -0.42908 0.25401 -0.81746 0.64711 -0.98945l1.60256 -0.70111c0.38291 -0.16753 0.63033 -0.54584 0.63033 -0.96379 0 -0.58099 -0.47099 -1.05198 -1.05198 -1.05198h-0.74802c-0.47024 0 -0.87029 0.30053 -1.01855 0.72" stroke-width="1"></path>
  </g>
</svg>