<svg xmlns="http://www.w3.org/2000/svg" fill="none" viewBox="0 0 14 14" id="Information-Desk-Customer--Streamline-Core">
  <desc>
    Information Desk Customer Streamline Icon: https://streamlinehq.com
  </desc>
  <g id="information-desk-customer">
    <path id="Ellipse 227" fill="#d7e0ff" d="M9.284 3.503a1.621 1.621 0 1 0 3.242 0 1.621 1.621 0 1 0 -3.242 0" stroke-width="1"></path>
    <path id="Ellipse 228" fill="#d7e0ff" d="M10.905 5.124a2.432 2.432 0 0 0 -2.432 2.433v0.81h4.865v-0.81a2.432 2.432 0 0 0 -2.433 -2.433Z" stroke-width="1"></path>
    <path id="Vector 637" stroke="#4147d5" stroke-linecap="round" stroke-linejoin="round" d="m6.6 8.369 6.738 0" stroke-width="1"></path>
    <path id="Vector" fill="#d7e0ff" d="M3.604 5.612a1.712 1.712 0 1 0 0 -3.425 1.712 1.712 0 0 0 0 3.425Z" stroke-width="1"></path>
    <path id="Vector_2" fill="#d7e0ff" d="M6.6 8.608a2.996 2.996 0 1 0 -5.993 0v1.285h1.285l0.428 3.424h2.568l0.428 -3.424H6.6V8.608Z" stroke-width="1"></path>
    <path id="Ellipse 229" stroke="#4147d5" stroke-linecap="round" stroke-linejoin="round" d="M9.284 3.503a1.621 1.621 0 1 0 3.242 0 1.621 1.621 0 1 0 -3.242 0" stroke-width="1"></path>
    <path id="Ellipse 230" stroke="#4147d5" stroke-linecap="round" stroke-linejoin="round" d="M8.473 8.367v-0.81a2.432 2.432 0 0 1 4.865 0v0.81" stroke-width="1"></path>
    <path id="Vector_3" stroke="#4147d5" stroke-linecap="round" stroke-linejoin="round" d="M3.604 5.612a1.712 1.712 0 1 0 0 -3.425 1.712 1.712 0 0 0 0 3.425Z" stroke-width="1"></path>
    <path id="Vector_4" stroke="#4147d5" stroke-linecap="round" stroke-linejoin="round" d="M6.6 8.608a2.996 2.996 0 1 0 -5.993 0v1.285h1.285l0.428 3.424h2.568l0.428 -3.424H6.6V8.608Z" stroke-width="1"></path>
  </g>
</svg>