<svg xmlns="http://www.w3.org/2000/svg" fill="none" viewBox="0 0 14 14" id="Lost-And-Found--Streamline-Core">
  <desc>
    Lost And Found Streamline Icon: https://streamlinehq.com
  </desc>
  <g id="lost-and-found">
    <path id="Vector" fill="#d7e0ff" d="M11.5 4h-9a2 2 0 0 0 -2 2v5.5a2 2 0 0 0 2 2h9a2 2 0 0 0 2 -2V6a2 2 0 0 0 -2 -2Z" stroke-width="1"></path>
    <path id="Vector_2" stroke="#4147d5" stroke-linecap="round" stroke-linejoin="round" d="M11.5 4h-9a2 2 0 0 0 -2 2v5.5a2 2 0 0 0 2 2h9a2 2 0 0 0 2 -2V6a2 2 0 0 0 -2 -2Z" stroke-width="1"></path>
    <path id="Vector_3" stroke="#4147d5" stroke-linecap="round" stroke-linejoin="round" d="M5.5 7.5A1.5 1.5 0 1 1 7 9v0.5" stroke-width="1"></path>
    <g id="Group 2631">
      <path id="Vector_4" stroke="#4147d5" stroke-linecap="round" stroke-linejoin="round" d="M7.002 11.5a0.25 0.25 0 1 1 0 -0.5" stroke-width="1"></path>
      <path id="Vector_5" stroke="#4147d5" stroke-linecap="round" stroke-linejoin="round" d="M7.002 11.5a0.25 0.25 0 1 0 0 -0.5" stroke-width="1"></path>
    </g>
    <path id="Vector_6" stroke="#4147d5" stroke-linecap="round" stroke-linejoin="round" d="M4.5 4v-0.5a2.5 2.5 0 1 1 5 0V4" stroke-width="1"></path>
  </g>
</svg>