<svg xmlns="http://www.w3.org/2000/svg" fill="none" viewBox="0 0 14 14" id="Pet-Paw--Streamline-Core">
  <desc>
    Pet Paw Streamline Icon: https://streamlinehq.com
  </desc>
  <g id="pet-paw--paw-foot-animals-pets-footprint-track-hotel">
    <path id="Vector" fill="#d7e0ff" d="M1.5 9.5c0.55228 0 1 -0.67157 1 -1.5s-0.44772 -1.5 -1 -1.5c-0.552285 0 -1 0.67157 -1 1.5s0.447715 1.5 1 1.5Z" stroke-width="1"></path>
    <path id="Vector_2" fill="#d7e0ff" d="M4.5 5c0.55228 0 1 -0.67157 1 -1.5S5.05228 2 4.5 2s-1 0.67157 -1 1.5 0.44772 1.5 1 1.5Z" stroke-width="1"></path>
    <path id="Vector_3" fill="#d7e0ff" d="M9.5 5c0.5523 0 1 -0.67157 1 -1.5S10.0523 2 9.5 2c-0.55228 0 -1 0.67157 -1 1.5S8.94772 5 9.5 5Z" stroke-width="1"></path>
    <path id="Vector_4" fill="#d7e0ff" d="M12.5 9.5c0.5523 0 1 -0.67157 1 -1.5s-0.4477 -1.5 -1 -1.5 -1 0.67157 -1 1.5 0.4477 1.5 1 1.5Z" stroke-width="1"></path>
    <path id="Vector_5" fill="#d7e0ff" d="M10 10c0 1.38 -1.62 2 -3 2s-3 -0.62 -3 -2 1 -3.5 3 -3.5 3 2.12 3 3.5Z" stroke-width="1"></path>
    <path id="Vector_6" stroke="#4147d5" stroke-linecap="round" stroke-linejoin="round" d="M1.5 9.5c0.55228 0 1 -0.67157 1 -1.5s-0.44772 -1.5 -1 -1.5c-0.552285 0 -1 0.67157 -1 1.5s0.447715 1.5 1 1.5Z" stroke-width="1"></path>
    <path id="Vector_7" stroke="#4147d5" stroke-linecap="round" stroke-linejoin="round" d="M4.5 5c0.55228 0 1 -0.67157 1 -1.5S5.05228 2 4.5 2s-1 0.67157 -1 1.5 0.44772 1.5 1 1.5Z" stroke-width="1"></path>
    <path id="Vector_8" stroke="#4147d5" stroke-linecap="round" stroke-linejoin="round" d="M9.5 5c0.5523 0 1 -0.67157 1 -1.5S10.0523 2 9.5 2c-0.55228 0 -1 0.67157 -1 1.5S8.94772 5 9.5 5Z" stroke-width="1"></path>
    <path id="Vector_9" stroke="#4147d5" stroke-linecap="round" stroke-linejoin="round" d="M12.5 9.5c0.5523 0 1 -0.67157 1 -1.5s-0.4477 -1.5 -1 -1.5 -1 0.67157 -1 1.5 0.4477 1.5 1 1.5Z" stroke-width="1"></path>
    <path id="Vector_10" stroke="#4147d5" stroke-linecap="round" stroke-linejoin="round" d="M10 10c0 1.38 -1.62 2 -3 2s-3 -0.62 -3 -2 1 -3.5 3 -3.5 3 2.12 3 3.5Z" stroke-width="1"></path>
  </g>
</svg>