<svg xmlns="http://www.w3.org/2000/svg" fill="none" viewBox="0 0 14 14"><g id="pets-allowed--travel-wayfinder-pets-allowed"><path id="Vector 743" fill="#37d7ff" d="M.75 11.018v-7.59l1.254 1.004c.633.506 1.42.782 2.23.782H7L8.292 2.63a1.786 1.786 0 0 1 1.597-.987h.682v2.232l2.679.893v.893c0 .986-.8 1.785-1.786 1.785H9.68v3.572a1.34 1.34 0 0 1-2.679 0v-.447c0-.493-.4-.892-.893-.892H4.321c-.493 0-.892.4-.892.893v.446a1.34 1.34 0 0 1-2.679 0Z"></path><path id="Vector 1210" stroke="#3e3e3e" stroke-linecap="round" stroke-linejoin="round" d="M.75 11.018v-7.59l1.254 1.004c.633.506 1.42.782 2.23.782H7L8.292 2.63a1.786 1.786 0 0 1 1.597-.987h.682v2.232l2.679.893v.893c0 .986-.8 1.785-1.786 1.785H9.68v3.572a1.34 1.34 0 0 1-2.679 0v-.447c0-.493-.4-.892-.893-.892H4.321c-.493 0-.892.4-.892.893v.446a1.34 1.34 0 0 1-2.679 0Z"></path><path id="Vector 1209" stroke="#3e3e3e" stroke-linecap="round" stroke-linejoin="round" d="M7.012 5.097c.175.717 1 2.195 2.895 2.375"></path></g></svg>