<svg xmlns="http://www.w3.org/2000/svg" fill="none" viewBox="0 0 24 24" id="Chat-Bubble-Typing-Oval--Streamline-Sharp-Remix">
  <desc>
    Chat Bubble Typing Oval Streamline Icon: https://streamlinehq.com
  </desc>
  <g id="Remix/Mail/chat-bubble-typing-oval--messages-message-bubble-typing-chat">
    <path id="Union" fill="#000000" fill-rule="evenodd" d="M12 0C8.8174 0 5.76516 1.26428 3.51472 3.51472 1.26428 5.76516 0 8.8174 0 12c0 1.8446 0.424708 3.6454 1.21988 5.2715l-0.706534 4.7963 -0.243921 1.6559 1.656975 -0.2362 4.83839 -0.6897C8.38144 23.5816 10.1692 24 12 24c3.1826 0 6.2348 -1.2643 8.4853 -3.5147C22.7357 18.2348 24 15.1826 24 12c0 -3.1826 -1.2643 -6.23484 -3.5147 -8.48528C18.2348 1.26428 15.1826 0 12 0ZM5.28249 5.28249C7.06408 3.50089 9.48044 2.5 12 2.5c2.5196 0 4.9359 1.00089 6.7175 2.78249C20.4991 7.06408 21.5 9.48044 21.5 12c0 2.5196 -1.0009 4.9359 -2.7825 6.7175C16.9359 20.4991 14.5196 21.5 12 21.5c-1.5611 0 -3.08262 -0.3842 -4.43817 -1.1004l-0.35871 -0.1895 -0.40162 0.0572 -3.57093 0.509 0.52078 -3.5353 0.05999 -0.4072 -0.19368 -0.3632C2.89039 15.1069 2.5 13.5736 2.5 12c0 -2.51956 1.00089 -4.93592 2.78249 -6.71751ZM7.1272 10.3772h-1.25v3.2455h3.24551v-3.2455H7.1272Zm4.5 0h-1.25v3.2455h3.2455v-3.2455h-1.9955Zm3.25 0h3.2455v3.2455h-3.2455v-3.2455Z" clip-rule="evenodd" stroke-width="1"></path>
  </g>
</svg>