<svg xmlns="http://www.w3.org/2000/svg" fill="none" viewBox="0 0 24 24" id="Book-Book-Pages--Streamline-Ultimate">
  <desc>
    Book Book Pages Streamline Icon: https://streamlinehq.com
  </desc>
  <path stroke="#000000" stroke-linecap="round" stroke-linejoin="round" d="M16.5 21.5129c0 0.2311 -0.0533 0.4592 -0.1559 0.6663 -0.1027 0.2071 -0.2517 0.3877 -0.4357 0.5276 -0.1839 0.14 -0.3977 0.2356 -0.6247 0.2793 -0.2269 0.0437 -0.4609 0.0344 -0.6837 -0.0272l-10.5 -2.917c-0.31562 -0.0873 -0.594 -0.2756 -0.79262 -0.5359 -0.19862 -0.2604 -0.30658 -0.5786 -0.30738 -0.9061V2.48689c-0.00005 -0.23114 0.05332 -0.45916 0.15594 -0.66627 0.10262 -0.20711 0.25171 -0.3877 0.43564 -0.52769 0.18393 -0.13998 0.39772 -0.23556 0.62469 -0.27928 0.22696 -0.043719 0.46096 -0.034398 0.68373 0.02724l10.5 3.391c0.3161 0.08746 0.5949 0.27613 0.7935 0.53712 0.1987 0.26098 0.3064 0.57988 0.3065 0.90788V21.5129Z" stroke-width="1"></path>
  <path stroke="#000000" stroke-linecap="round" stroke-linejoin="round" d="M4.5 0.987061h15c0.3978 0 0.7794 0.158039 1.0607 0.439339S21 2.08924 21 2.48706V18.2371c0 0.3978 -0.158 0.7793 -0.4393 1.0606s-0.6629 0.4394 -1.0607 0.4394h-3" stroke-width="1"></path>
</svg>