<svg xmlns="http://www.w3.org/2000/svg" fill="none" viewBox="0 0 48 48"><path stroke="#000" stroke-linecap="round" stroke-linejoin="round" d="M22.7508 17.2284C21.4304 17.6895 20.8855 18.6746 20.8645 19.1985"></path><path stroke="#000" stroke-linecap="round" stroke-linejoin="round" d="M29.0172 18.5907C29.646 19.0308 29.8346 19.4081 29.8346 19.8272"></path><path stroke="#000" stroke-linecap="round" stroke-linejoin="round" d="M32.23 14.0742C31.701 15.8169 31.3898 17.9952 31.2653 18.9288C31.1409 19.8624 30.394 21.6051 29.3982 22.3831C28.4023 23.1611 27.3754 24.4992 26.4729 25.4328C25.5705 26.3664 23.6722 25.9929 22.7075 25.1216C21.7428 24.2502 20.5603 22.5076 20.1557 22.103"></path><path stroke="#000" stroke-linecap="round" stroke-linejoin="round" d="M17.3549 10.5577C16.2346 10.6822 16.1724 11.8959 16.328 12.8605C16.4836 13.8252 17.2616 15.848 17.884 16.4081C18.3819 16.8563 18.7346 16.5949 18.8487 16.4081C18.7864 17.3314 18.6433 19.3832 18.5686 20.2047C18.4939 21.0263 18.081 22.186 17.884 22.6632"></path><path stroke="#000" stroke-linecap="round" stroke-linejoin="round" d="M18.1018 12.0203C18.2055 12.5389 18.5375 13.6509 19.0354 13.9497C19.4088 12.6738 20.2179 10.4954 21.7117 10.2464C23.2054 9.99749 28.1223 11.4913 30.7986 11.1801C31.3463 12.0514 31.7736 12.6634 31.9189 12.8605"></path><path stroke="#000" stroke-linecap="round" stroke-linejoin="round" d="M17.386 10.5888C17.0748 7.16567 18.1329 2.43548 22.5208 1.53303C26.3796 -0.614195 32.7591 1.25297 34.2217 6.44992C35.3918 10.6075 33.3607 14.2402 32.1989 15.5368"></path><path stroke="#000" stroke-linecap="round" stroke-linejoin="round" d="M31.6121 18.2078C32.6829 18.2078 33.1418 16.8883 33.4478 16.3338C33.7537 15.7793 34.8246 14.4408 33.7346 13.5229"></path><path stroke="#000" stroke-linecap="round" stroke-linejoin="round" d="M30.687 11.1721C32.0048 10.9525 32.4166 9.74446 32.2519 8.509C32.0889 7.28684 31.1812 5.84577 30.2202 4.39067C29.5484 3.3733 27.31 1.89231 25.9922 1.91977"></path><path stroke="#000" stroke-linecap="round" stroke-linejoin="round" d="M22.2042 13.6144C22.695 13.3837 23.319 13.3344 23.8919 13.5214C24.4672 13.7092 24.7047 13.8286 25.0103 13.9748"></path><path stroke="#000" stroke-linecap="round" stroke-linejoin="round" d="M27.9139 14.8454C28.5584 14.6496 29.0301 14.4733 29.5484 14.5264C29.963 14.569 30.4387 14.7568 30.6247 14.8454"></path><path stroke="#000" stroke-linecap="round" stroke-linejoin="round" d="M23.4622 13.7688V14.1808"></path><path stroke="#000" stroke-linecap="round" stroke-linejoin="round" d="M29.4819 14.6393V15.0513"></path><path stroke="#000" stroke-linecap="round" stroke-linejoin="round" d="M27.1704 15.9868C27.1142 16.9226 27.5634 17.4655 27.526 18.1018C27.4885 18.7382 27.0206 19.1125 26.3094 18.9066"></path><path stroke="#000" stroke-linecap="round" stroke-linejoin="round" d="M24.3253 17.6931C24.1943 18.3294 24.4563 18.6289 24.7558 18.7225"></path><path stroke="#000" stroke-linecap="round" stroke-linejoin="round" d="M22.3788 19.1873C24.1195 20.3478 26.8708 20.8719 28.4992 20.1419C27.9752 21.0591 27.8254 22.8933 26.1035 23.1366C24.2156 23.4034 23.1836 21.9575 22.566 20.5724"></path><path stroke="#000" stroke-linecap="round" stroke-linejoin="round" d="M24.453 21.4536C25.6629 22.024 26.9938 21.9721 27.7371 21.5746"></path><path stroke="#000" stroke-linecap="round" stroke-linejoin="round" d="M26.8454 20.5989L26.6553 21.757"></path><path stroke="#000" stroke-linecap="round" stroke-linejoin="round" d="M25.3186 20.5099L25.1486 21.4537"></path><path stroke="#000" stroke-linecap="round" stroke-linejoin="round" d="M18.4639 20.5687C16.7021 20.422 16.1736 21.1854 15.968 21.9195C15.7625 22.6536 15.0284 23.5638 14.5292 23.6813C15.1459 25.9129 18.1409 28.7317 20.3431 29.9944C22.6217 29.5011 23.994 28.536 24.3953 28.1151"></path><path stroke="#000" stroke-linecap="round" stroke-linejoin="round" d="M29.1521 22.7123C30.0037 23.7106 29.3283 24.8852 29.5339 25.678C29.7394 26.4708 30.5909 27.4691 30.356 28.8492C28.6823 29.2603 27.0967 28.0858 26.2452 27.5866"></path><path stroke="#000" stroke-linecap="round" stroke-linejoin="round" d="M17.2013 22.0663C17.906 23.8281 22.2811 27.0287 25.0119 27.9977"></path><path stroke="#000" stroke-linecap="round" stroke-linejoin="round" d="M28.2419 25.4431C27.3727 26.5471 25.7264 27.6062 25.0119 27.9977C24.6987 28.4479 24.1663 29.6126 24.5421 30.6697"></path><path stroke="#000" stroke-linecap="round" stroke-linejoin="round" d="M21.6413 29.6788C23.8688 31.0113 26.1825 32.3057 27.0609 32.7863C27.699 31.9659 29.0746 30.0914 29.4724 29.1567"></path><path stroke="#000" stroke-linecap="round" stroke-linejoin="round" d="M14.6918 24.03C12.0636 25.8916 7.0262 28.465 5.27406 31.148C3.87234 33.2944 3.52191 35.1451 3.52191 35.8021"></path><path stroke="#000" stroke-linecap="round" stroke-linejoin="round" d="M12.9397 47.3006C12.1183 38.9779 9.43537 31.9146 6.31439 30.2719"></path><path stroke="#000" stroke-linecap="round" stroke-linejoin="round" d="M29.6397 24.5228C31.6839 25.1434 36.2978 26.6692 38.4004 27.8081C41.0286 29.2316 41.9046 34.269 42.5069 37.4995C42.9888 40.0839 44.0218 45.1104 44.4781 47.3005"></path><path stroke="#000" stroke-linecap="round" stroke-linejoin="round" d="M40.5358 30.6005C41.0176 34.1924 39.9335 43.1575 39.3312 47.191"></path><path stroke="#000" stroke-linecap="round" stroke-linejoin="round" d="M9.82776 27.3826C14.0676 31.9024 15.7876 42.942 16.1076 45.902"></path><path stroke="#000" stroke-linecap="round" stroke-linejoin="round" d="M14.3876 26.8626C18.1075 32.4224 20.1474 43.1421 20.5074 47.182"></path><path stroke="#000" stroke-linecap="round" stroke-linejoin="round" d="M22.5474 33.1824C23.6993 36.9263 24.5473 44.102 24.8273 47.2219"></path><path stroke="#000" stroke-linecap="round" stroke-linejoin="round" d="M27.5872 34.7023C28.4192 37.3262 28.7605 44.0354 28.8272 47.062"></path><path stroke="#000" stroke-linecap="round" stroke-linejoin="round" d="M30.9471 30.5024C32.643 34.5663 33.067 43.422 33.067 47.3419"></path><path stroke="#000" stroke-linecap="round" stroke-linejoin="round" d="M34.027 26.1827C37.2669 32.4224 36.5069 43.862 36.7069 47.1019"></path><path stroke="#000" stroke-linecap="round" stroke-linejoin="round" d="M10.0784 31.7144C12.1554 30.6759 15.7036 30.0918 17.2181 29.9295"></path><path stroke="#000" stroke-linecap="round" stroke-linejoin="round" d="M10.6193 35.9874C14.6435 34.8624 21.8878 34.2205 25.0069 34.0402"></path><path stroke="#000" stroke-linecap="round" stroke-linejoin="round" d="M12.296 41.2881C17.5426 40.3686 30.7944 38.5837 40.0436 39.6114"></path><path stroke="#000" stroke-linecap="round" stroke-linejoin="round" d="M14.4596 45.2366C21.2748 44.4793 32.7416 42.7485 39.5568 44.263"></path><path stroke="#000" stroke-linecap="round" stroke-linejoin="round" d="M32.4399 27.908C34.4724 27.9541 38.2142 28.9088 39.831 29.3803"></path><path stroke="#000" stroke-linecap="round" stroke-linejoin="round" d="M30.0436 33.1914C33.8546 33.0297 38.6377 33.9902 40.5528 34.4906"></path></svg>