<svg xmlns="http://www.w3.org/2000/svg" fill="none" viewBox="0 0 48 48"><path stroke="#000" stroke-linecap="round" stroke-linejoin="round" d="M0.874603 38.1483L2.9607 35.7412H10.7274L12.1396 35.1636L14.4503 37.2176L11.6902 38.1483H0.874603Z"></path><path stroke="#000" stroke-linecap="round" stroke-linejoin="round" d="M2.99278 35.709L4.72584 23.4171H12.0112L13.3591 27.3646L12.2358 35.1314"></path><path stroke="#000" stroke-linecap="round" stroke-linejoin="round" d="M12.0754 23.4813L10.6311 35.677L11.7223 38.0519"></path><path stroke="#000" stroke-linecap="round" stroke-linejoin="round" d="M3.69883 30.3815L0.585724 20.1436V16.517L1.86948 15.2012H16.9536L20.8691 32.3393L19.6495 33.4626L12.6851 33.8798"></path><path stroke="#000" stroke-linecap="round" stroke-linejoin="round" d="M0.746231 16.5812L15.5094 16.9662L19.3928 33.3662"></path><path stroke="#000" stroke-linecap="round" stroke-linejoin="round" d="M0.682007 20.1115H13.7442L16.8252 32.275H13.0814"></path><path stroke="#000" stroke-linecap="round" stroke-linejoin="round" d="M16.6969 32.3392L19.457 33.4626"></path><path stroke="#000" stroke-linecap="round" stroke-linejoin="round" d="M13.8405 20.0793L15.6378 16.9662L16.8574 15.4578"></path><path stroke="#000" stroke-linecap="round" stroke-linejoin="round" d="M0.585724 36.2404L2.34437 36.2404"></path><path stroke="#000" stroke-linecap="round" stroke-linejoin="round" d="M21.0163 34.8239H23.1015L25.9586 35.7987V36.7398H16.3368"></path><path stroke="#000" stroke-linecap="round" stroke-linejoin="round" d="M23.1687 34.9246V36.6053"></path><path stroke="#000" stroke-linecap="round" stroke-linejoin="round" d="M43.1012 25.6472C45.5213 29.3043 45.8799 34.1625 45.7566 36.1345"></path><path stroke="#000" stroke-linecap="round" stroke-linejoin="round" d="M43.639 26.6558C43.8407 29.7818 42.7315 34.4203 41.1853 36.6724C39.8407 28.6053 36.4794 22.2525 32.2106 22.2189C27.9417 22.1852 27.1014 30.4876 29.4207 36.6724C34.2341 34.1447 38.6419 29.2776 40.2441 27.16"></path><path stroke="#000" stroke-linecap="round" stroke-linejoin="round" d="M47.202 14.9922C46.4961 11.53 41.8347 7.57167 35.303 8.50488C32.5501 8.8982 29.8577 9.51328 28.2107 12.841C26.5636 16.1687 26.3283 21.4459 29.8577 25.4794C33.3871 29.513 39.9416 27.8324 43.034 25.4794C46.1264 23.1265 47.9079 18.4543 47.202 14.9922Z"></path><path stroke="#000" stroke-linecap="round" stroke-linejoin="round" d="M26.3295 17.3966C28.0324 17.8094 29.7611 18.0928 30.8448 17.0091"></path><path stroke="#000" stroke-linecap="round" stroke-linejoin="round" d="M34.5352 16.6564C34.5352 17.3585 35.335 17.5047 36.4703 17.2707C37.3785 17.0835 39.7041 16.3541 40.7533 16.0128C41.192 17.1537 41.5841 19.5524 39.6439 20.0205C37.2185 20.6055 35.335 20.2838 35.0254 17.6217"></path><path stroke="#000" stroke-linecap="round" stroke-linejoin="round" d="M30.2429 18.0533C30.7331 19.2918 30.1912 21.098 27.4305 20.4013"></path><path stroke="#000" stroke-linecap="round" stroke-linejoin="round" d="M36.9413 18.4362C36.9413 18.5113 36.9413 18.6972 36.9413 18.7808"></path><path stroke="#000" stroke-linecap="round" stroke-linejoin="round" d="M33.2625 16.6406C33.1489 17.4359 33.3534 17.8904 33.4671 18.1404"></path><path stroke="#000" stroke-linecap="round" stroke-linejoin="round" d="M32.0348 17.1686C32.0584 17.436 31.9856 17.8698 31.9463 18.0534"></path><path stroke="#000" stroke-linecap="round" stroke-linejoin="round" d="M31.7803 24.1848C32.5901 23.6679 33.0725 24.0469 33.3482 24.3399"></path><path stroke="#000" stroke-linecap="round" stroke-linejoin="round" d="M32.5642 36.2761L39.9208 36.2761"></path><path stroke="#000" stroke-linecap="round" stroke-linejoin="round" d="M26.0385 36.2761H27.9808"></path><path stroke="#000" stroke-linecap="round" stroke-linejoin="round" d="M0.746231 39.6339L47.3558 39.6339"></path><path stroke="#000" stroke-linecap="round" stroke-linejoin="round" d="M42.7976 36.3644H47.4143"></path><path stroke="#000" stroke-linecap="round" stroke-linejoin="round" d="M28.3567 18.9681C28.3567 19.0433 28.3567 19.0621 28.3567 19.1456"></path></svg>