<svg xmlns="http://www.w3.org/2000/svg" fill="none" viewBox="0 0 48 48"><path stroke="#000" stroke-linecap="round" stroke-linejoin="round" d="M28.1484 21.0703C28.4609 24.2995 27.5767 25.0938 28.5767 32.5938C29.5767 40.0938 29.1693 40.1562 29.1484 42.9062"></path><path stroke="#000" stroke-linecap="round" stroke-linejoin="round" d="M45.3516 27.9844C44.1385 29.4975 42.9362 29.9383 40.9922 31.5781"></path><path stroke="#000" stroke-linecap="round" stroke-linejoin="round" d="M46.4219 33.7266C45.1094 33.2995 42.1547 32.3516 40.8047 32.3516"></path><path stroke="#000" stroke-linecap="round" stroke-linejoin="round" d="M40.8125 37.6562L38.4219 34.9062"></path><path stroke="#000" stroke-linecap="round" stroke-linejoin="round" d="M7.46094 39.5703C7.61354 39.5183 9.59532 37.7947 10.5703 36.8516"></path><path stroke="#000" stroke-linecap="round" stroke-linejoin="round" d="M3.96875 36.3594L8.82813 34.0469"></path><path stroke="#000" stroke-linecap="round" stroke-linejoin="round" d="M0.857971 31.25C3.07229 31.5226 7.844 31.7648 7.96875 31.7891"></path><path stroke="#000" stroke-linecap="round" stroke-linejoin="round" d="M4.3125 26.6172C5.39854 27.9852 8.54165 30.1152 9.35938 30.4688"></path><path stroke="#000" stroke-linecap="round" stroke-linejoin="round" d="M7.80469 23.8984C9.28141 25.6858 12.3836 28.3948 13.108 28.9375"></path><path stroke="#000" stroke-linecap="round" stroke-linejoin="round" d="M11.5234 21.3906L15.5156 25.5234"></path><path stroke="#000" stroke-linecap="round" stroke-linejoin="round" d="M23.3851 8.68732C23.3851 8.68732 23.8614 8.27986 24.0887 8.22407C24.551 8.1106 24.8437 8.20686 25.53 8.32698"></path><path stroke="#000" stroke-linecap="round" stroke-linejoin="round" d="M26.1992 11.5012C26.611 11.7758 27.3489 11.8444 27.9666 11.5012C27.9666 11.4326 27.7543 10.8721 27.7092 10.7462"></path><path stroke="#000" d="M20.6253 8.1811C20.4387 4.96801 22.8922 2.21202 26.1053 2.02543V2.02543C29.3184 1.83884 32.0744 4.2923 32.261 7.50539L32.4786 11.254C32.5831 13.0528 31.8579 14.8465 30.2664 15.6913C29.2874 16.211 28.1137 16.6743 26.9599 16.7413C25.806 16.8083 24.5866 16.484 23.554 16.0811C21.8754 15.4262 20.9475 13.7285 20.843 11.9297L20.6253 8.1811Z"></path><path stroke="#000" stroke-linecap="round" stroke-linejoin="round" d="M25.9492 13.8969C26.817 13.5506 27.3427 13.5471 28.3119 13.7597"></path><path stroke="#000" stroke-linecap="round" stroke-linejoin="round" d="M28.0383 8.20322C28.3586 8.05404 29.1985 7.61505 30.0677 7.96969"></path><path stroke="#000" stroke-linecap="round" stroke-linejoin="round" d="M16.2591 40.2043C15.2267 36.0942 13.9347 31.7951 13.4181 29.3072C13.41 29.2685 13.3977 29.23 13.3779 29.1958C12.5934 27.8418 8.20379 31.0549 7.86453 31.9642C7.84083 32.0277 7.85606 32.0913 7.88359 32.1532C8.19136 32.8456 10.2457 37.3176 12.7725 39.1978C12.8198 39.233 12.8728 39.2581 12.9296 39.274L16.5806 40.2941C16.8586 40.3718 17.0132 40.668 16.9181 40.9405L15.8229 44.0769C15.7593 44.259 15.5966 44.3883 15.4048 44.4091L13.1282 44.6566C12.952 44.6757 12.7788 44.6001 12.673 44.4579L11.0799 42.3154C11.0477 42.2721 11.0079 42.2338 10.9637 42.2029C7.02447 39.455 4.58281 37.2174 1.6352 33.8194C0.387828 32.3814 0.394851 30.2465 1.75939 28.9192C6.36705 24.4373 14.2893 18.8478 20.4836 17.3681C20.5877 17.3432 20.6798 17.2877 20.7484 17.2056C21.1933 16.673 21.7751 15.8823 21.8906 15.3047"></path><path stroke="#000" stroke-linecap="round" stroke-linejoin="round" d="M37.2188 35.8438C37.33 35.7143 36.4351 32.7499 36.5432 30.5193C36.5576 30.2235 36.8424 30.031 37.1284 30.1079C38.2493 30.4093 40.7705 31.1416 41.1166 31.7172C41.1621 31.793 41.1336 31.8827 41.0858 31.957C40.7969 32.4062 39.6037 34.1216 37.2188 35.8438ZM37.2188 35.8438L37.2974 39.7318C37.3072 40.214 37.9267 40.4042 38.2054 40.0105L38.9807 38.9152C39.0141 38.8679 39.0575 38.8255 39.1051 38.7924C42.8877 36.1696 44.0258 36.1507 46.2985 33.8661C47.6411 32.5165 47.6105 30.3499 46.3104 28.9594C42.2372 24.6027 36.0829 19.3621 30.3024 17.1574C30.2237 17.1274 30.1535 17.0792 30.1008 17.0134C29.7535 16.5796 29.9057 16.5209 29.7891 15.9375"></path><path stroke="#000" stroke-linecap="round" stroke-linejoin="round" d="M24.4576 8.17346L24.5712 9.214"></path><path stroke="#000" stroke-linecap="round" stroke-linejoin="round" d="M28.5752 7.97913L28.6888 9.01966"></path><path stroke="#000" stroke-linecap="round" stroke-linejoin="round" d="M22.7955 15.75C22.7955 18.375 23.7221 18.6969 25.733 19.9375C25.108 30.4375 23.358 40.4375 21.9062 44.7812H18.5312"></path><path stroke="#000" stroke-linecap="round" stroke-linejoin="round" d="M30.4375 17.2109L33.9688 44.7812H37.6562L37.3281 41.25"></path><path stroke="#000" stroke-linecap="round" stroke-linejoin="round" d="M15.2656 19.3281C15.724 22.3281 16.0812 28.5688 13.7812 29.7188L13.5312 29.8281"></path><path stroke="#000" stroke-linecap="round" stroke-linejoin="round" d="M23.1705 42.9062L33.7266 42.9062"></path><path stroke="#000" stroke-linecap="round" stroke-linejoin="round" d="M37.1719 20.9531C35.8899 23.9385 35.9326 25.836 36.5781 30.0469"></path><path stroke="#000" stroke-linecap="round" stroke-linejoin="round" d="M25.6094 21.9062C27.0469 21.6562 30.7812 20.4719 30.5312 17.9219"></path><path stroke="#000" stroke-linecap="round" stroke-linejoin="round" d="M32.3594 9.17968C32.6717 7.72224 34.7774 7.80897 34.8884 9.11378C34.9995 10.4186 33.4222 11.7157 32.5547 12.375"></path><path stroke="#000" stroke-linecap="round" stroke-linejoin="round" d="M20.7188 9.90625C20.3457 8.46317 18.3837 8.67765 18.3274 9.98597C18.2711 11.2943 20.0119 12.5885 20.9062 13.2109"></path><path stroke="#000" stroke-linecap="round" stroke-linejoin="round" d="M12.7891 39.2266L10.8438 42.1094"></path><path stroke="#000" stroke-linecap="round" stroke-linejoin="round" d="M15.4205 23.4688C15.2642 23.625 3.38922 29.7189 3.48297 31.0626C3.55797 32.1376 7.71875 37.3984 11.7812 40.7109"></path><path stroke="#000" stroke-linecap="round" stroke-linejoin="round" d="M39.8047 22.9297C38.9375 24.3755 36.9646 27.5423 36.3047 28.2266"></path><path stroke="#000" stroke-linecap="round" stroke-linejoin="round" d="M42.4297 25.1719C42.1103 26.6304 40.2038 29.4148 38.4453 30.4844"></path><path stroke="#000" stroke-linecap="round" stroke-linejoin="round" d="M36.233 24.7188C36.3892 24.75 44.2955 29.9688 44.5142 31.7188C44.6892 33.1187 42.0703 34.4922 39.5703 36.2422"></path><path stroke="#000" stroke-linecap="round" stroke-linejoin="round" d="M23.5859 37.7969C26.1797 37.7969 32.5953 38.2219 33.0703 37.7969"></path><path stroke="#000" stroke-linecap="round" stroke-linejoin="round" d="M25.2891 25.6562C27.1133 25.7812 30.7683 26.0563 31.5859 26.2812"></path><path stroke="#000" stroke-linecap="round" stroke-linejoin="round" d="M24.5455 31.9375C26.0732 32 30.8791 32.1562 32.375 32.375"></path></svg>