<svg xmlns="http://www.w3.org/2000/svg" fill="none" viewBox="0 0 48 48"><path stroke="#000" stroke-linecap="round" stroke-linejoin="round" d="M24.6497 9.85701C25.5064 9.85701 26.3086 9.74018 26.7526 9.20277"></path><path stroke="#000" stroke-linecap="round" stroke-linejoin="round" d="M30.226 9.52984C30.8031 10.1386 31.2445 10.3476 32.2588 10.4411"></path><path stroke="#000" stroke-linecap="round" stroke-linejoin="round" d="M26.3297 11.8305C27.3567 10.9244 27.4171 11.9211 27.8701 12.0419C28.3232 12.1628 28.8669 11.1057 29.5314 12.0419"></path><path stroke="#000" stroke-linecap="round" stroke-linejoin="round" d="M23.6718 8.7497C24.3161 8.20602 25.8344 7.20929 26.7526 7.57174"></path><path stroke="#000" stroke-linecap="round" stroke-linejoin="round" d="M33.3069 9.20277C32.6625 8.65909 31.1443 7.66236 30.2261 8.02481"></path><path stroke="#000" stroke-linecap="round" stroke-linejoin="round" d="M27.2094 21.1266C24.479 21.2474 22.709 18.1365 22.3163 16.1127C21.9237 14.089 22.3647 8.94226 22.6788 7.2025C23.0714 5.0278 26.5789 2.5745 29.5351 3.03433C32.4913 3.49415 34.9835 5.14837 35.4249 8.01801C35.727 9.98129 34.3678 14.4515 33.4617 16.4752C32.5556 18.4989 30.6225 20.9756 27.2094 21.1266Z"></path><path fill="#000" fill-rule="evenodd" d="M22.0709 14.9114C22.3428 18.0224 24.479 21.2475 27.2094 21.1267C30.6225 20.9757 33.2163 17.9318 34.0016 15.3342L31.4342 15.6061C31.2228 13.5673 31.1234 12.8923 27.8097 12.7367C24.593 12.5856 24.3664 12.9481 23.9436 15.3342C23.9436 15.3342 22.6637 15.0344 22.0709 14.9114ZM27.1922 13.4909C27.2844 13.4914 27.3795 13.4919 27.4775 13.4919C29.4711 13.4919 30.5 13.6562 30.5 15.2344C30.1562 15.8594 25.9645 16.2657 24.9375 15.2344C25.0509 13.4802 25.784 13.4839 27.1922 13.4909Z" clip-rule="evenodd"></path><path stroke="#000" stroke-linecap="round" stroke-linejoin="round" d="M25.9875 14.3828C26.6683 14.6448 28.6617 14.6309 29.3199 14.4219"></path><path fill="#000" d="M35.2701 7.36023C30.6975 3.60523 28.1003 3.08793 23.3697 5.91043C23.7623 4.91371 26.579 2.57446 29.5352 3.03429C32.4914 3.49411 34.5754 5.24596 35.2701 7.36023Z"></path><path stroke="#000" stroke-linecap="round" stroke-linejoin="round" d="M22.5781 17.1875C21.6921 19.8656 19.6606 26.7332 19.3223 31.131C18.8995 36.6281 20.3493 41.8232 19.3223 44.8437"></path><path stroke="#000" stroke-linecap="round" stroke-linejoin="round" d="M21.4219 15.2344C19.5492 15.8385 16.3019 22.3718 10.7443 24.4257C6.29829 26.0688 10.1403 29.8624 12.617 31.5539L16.1562 29.5156"></path><path stroke="#000" stroke-linecap="round" stroke-linejoin="round" d="M34.6056 13.3105C35.2097 13.4514 36.0554 14.4582 35.5118 15.4852C34.9681 16.5121 34.4244 16.7538 33.4579 16.5121"></path><path stroke="#000" stroke-linecap="round" stroke-linejoin="round" d="M22.1613 12.4951C21.5638 12.3284 20.58 12.4358 20.5632 13.5977C20.5465 14.7595 21.1978 15.2631 22.1616 15.5156"></path><path stroke="#000" stroke-linecap="round" stroke-linejoin="round" d="M9.35499 31.5539C8.72674 33.9702 8.85159 41.34 8.99254 44.7229"></path><path stroke="#000" stroke-linecap="round" stroke-linejoin="round" d="M8.75 27.0625C6.11217 30.3044 1.57992 38.3518 1 44.296"></path><path stroke="#000" d="M20.1406 26.1094C23.7884 29.1825 26.2445 29.1436 31.0781 27.1298"></path><path stroke="#000" stroke-linecap="round" stroke-linejoin="round" d="M33.0312 17.375C35.625 18.5469 33.8203 20.8012 30.4979 28.4731C27.8399 34.6106 27.6989 41.9844 27.9607 44.9041"></path><path stroke="#000" stroke-linecap="round" stroke-linejoin="round" d="M39.6196 33.4869L41.1298 32.8828C44.0539 20.1932 39.8731 17.7328 37.0553 16.4811"></path><path stroke="#000" stroke-linecap="round" stroke-linejoin="round" d="M32.9729 36.4802C33.0937 36.3594 37.7541 31.297 38.2676 32.3239C38.781 33.3509 36.5157 35.586 36.1231 36.1296C35.7304 36.6733 38.1769 38.5158 37.15 40.5394C36.1231 42.5631 35.4586 42.5329 34.7639 42.4121C34.0692 42.2913 32.2123 41.9743 32.5517 41.1588C32.8912 40.3433 34.1719 40.5394 34.8438 40.4531"></path><path stroke="#000" stroke-linecap="round" stroke-linejoin="round" d="M34.6056 36.6315C34.364 36.6013 29.4709 36.1147 29.8334 37.2021C30.1233 38.072 33.2464 38.6016 34.8171 38.7425"></path><path stroke="#000" stroke-linecap="round" stroke-linejoin="round" d="M34.6661 38.7726C33.1357 38.7539 29.8878 38.4338 29.9844 38.9731C30.1052 39.6472 33.1559 40.7428 35.0587 40.4338"></path><path stroke="#000" stroke-linecap="round" stroke-linejoin="round" d="M31.6719 36.4688C31.5209 35.5727 30.4797 33.9098 29.5615 34.2722C28.6433 34.6347 29.4924 36.1904 29.875 36.875"></path><path stroke="#000" stroke-linecap="round" stroke-linejoin="round" d="M32.8538 43.0918C33.9412 45.0249 38.127 46.396 37.2812 40.2344"></path><path stroke="#000" stroke-linecap="round" d="M37.4062 39.5938C37.5875 39.624 42.5191 43.9074 42.8514 44.6021"></path><path stroke="#000" stroke-linecap="round" d="M42.0057 28.2616C44.6938 29.0771 46.3853 30.8893 46.929 33.5473C47.3639 35.6737 45.7007 41.642 44.6938 45.0249"></path><path stroke="#000" stroke-linecap="round" d="M43.244 35.4804C42.2721 36.7998 40.3281 39.9704 40.3281 42.0979"></path><path stroke="#000" stroke-linecap="round" d="M34.0625 18.1719C35.1499 18.9572 40.6465 20.7407 31.5248 31.3122"></path><path stroke="#000" stroke-linecap="round" d="M22.5781 17.1719C20.5846 18.9841 16.6039 21.4052 15.3354 24.486C14.0668 27.5669 16.2046 27.6992 19.4062 37.0625"></path></svg>