<svg xmlns="http://www.w3.org/2000/svg" fill="none" viewBox="0 0 48 48"><path stroke="#000" stroke-linecap="round" stroke-linejoin="round" d="M32.4149 40.6224L31.9277 38.1865"></path><ellipse cx="25.968" cy="11.463" stroke="#000" rx="2.749" ry="2.301"></ellipse><path stroke="#000" stroke-linecap="round" d="M24.2915 16.0782C24.8219 16.2131 25.3848 16.2856 25.9679 16.2856C27.7642 16.2856 29.3685 15.5973 30.4249 14.5185"></path><path stroke="#000" stroke-linejoin="round" d="M9.33511 18.1982C9.33511 7.19134 15.8213 1 27.3522 1C38.8832 1 45.3694 7.19134 45.3694 18.1982C45.3694 29.205 38.8832 35.3963 27.3522 35.3963C15.8213 35.3963 9.33511 29.205 9.33511 18.1982Z"></path><ellipse cx="39.077" cy="13.899" stroke="#000" rx="2.749" ry="2.301"></ellipse><path stroke="#000" stroke-linecap="round" d="M16.0337 8.75659C16.0337 9.68592 15.2847 10.4393 14.3607 10.4393"></path><path stroke="#000" stroke-linecap="round" d="M15.387 12.6004C16.0441 11.9433 17.1065 11.9402 17.7598 12.5935"></path><path stroke="#000" stroke-linecap="round" d="M17.9625 9.25174C17.9625 10.1811 18.7116 10.9344 19.6355 10.9344"></path><path stroke="#000" stroke-linecap="round" stroke-linejoin="round" d="M13.7471 30.5688C10.6764 32.99 4.15418 38.4345 2.63065 40.8439M29.5312 35.3281C26.4019 39.8128 24.7748 42.3887 22.2949 47"></path><path stroke="#000" stroke-linecap="round" stroke-linejoin="round" d="M13.4371 35.2635L20.4348 42.4825L33.7657 40.401L34.8065 41.2425L36.1352 40.0467"></path><path stroke="#000" stroke-linecap="round" stroke-linejoin="round" d="M33.7973 40.4332L34.4965 38.0979"></path><path stroke="#000" stroke-linecap="round" stroke-linejoin="round" d="M26.9375 39.1406L33.7214 45.0956L40.6747 40.3567"></path><path stroke="#000" stroke-linecap="round" stroke-linejoin="round" d="M40.6748 40.3567L39.5233 38.8951"></path><path stroke="#000" stroke-linecap="round" stroke-linejoin="round" d="M43.5535 39.6481L42.1806 40.7553L40.6747 40.3567L41.9148 38.5408"></path><path stroke="#000" stroke-linecap="round" stroke-linejoin="round" d="M27.8281 9.75309C29.2011 10.6684 32.0827 11.1703 32.3484 9.75309C32.6142 8.33584 29.1596 5.41278 29.1596 5.41278"></path><path stroke="#000" stroke-linecap="round" stroke-linejoin="round" d="M38.0938 11.7344C38.0938 11.7344 34.4745 11.7018 34.6516 10.5946C34.8288 9.48736 36.5442 8.49357 38.2377 7.93726"></path><path stroke="#000" stroke-linecap="round" stroke-linejoin="round" d="M28.6282 27.8672C28.5313 30.9071 31.4962 31.9126 34.0735 31.7469C34.8596 31.6964 35.4506 31.0643 35.6024 30.2914L35.8523 29.0195L36.9301 26.8424C37.4788 25.7339 36.6723 24.4347 35.4355 24.4347V24.4347C35.103 24.4347 34.7781 24.3354 34.5026 24.1494L33.657 23.5788C32.873 23.0497 31.8255 23.1421 31.1463 23.8004L29.3281 25.5625"></path><path stroke="#000" stroke-linecap="round" stroke-linejoin="round" d="M36.3344 13.6948C36.364 14.7873 36.8019 17.5774 37.3531 19.2309C38.0765 21.401 35.7656 22.5075 33.6771 21.401C33.158 20.8963 33.0687 20.3137 32.0384 20.0281C31.0081 19.7424 30.1783 20.9139 30.1783 20.9139"></path><path stroke="#000" stroke-linecap="round" stroke-linejoin="round" d="M28.8906 27.4688C30.7855 28.6122 34.3438 29.706 35.7812 29.2812"></path><path stroke="#000" stroke-linecap="round" stroke-linejoin="round" d="M30.3438 24.5625C32.115 25.8895 35.4027 27.2028 36.8755 26.9238"></path><path stroke="#000" stroke-linecap="round" stroke-linejoin="round" d="M29.0143 23.6411C29.7227 26.4026 29.233 27.553 27.3881 29.1703"></path><path fill="#000" fill-rule="evenodd" d="M39.0734 12.7741C38.4523 12.7741 37.9488 13.2776 37.9488 13.8987C37.9488 14.5199 38.4523 15.0234 39.0734 15.0234C39.6946 15.0234 40.1981 14.5198 40.1981 13.8987C40.1981 13.2776 39.6946 12.7741 39.0734 12.7741Z" clip-rule="evenodd"></path><path fill="#000" fill-rule="evenodd" d="M25.8754 10.3779C25.2543 10.3779 24.7507 10.8814 24.7507 11.5025C24.7507 12.1236 25.2543 12.6272 25.8754 12.6272C26.4965 12.6272 27 12.1236 27 11.5025C27 10.8814 26.4965 10.3779 25.8754 10.3779Z" clip-rule="evenodd"></path></svg>