<svg xmlns="http://www.w3.org/2000/svg" fill="none" viewBox="0 0 48 48"><path stroke="#000" stroke-linecap="round" stroke-linejoin="round" d="M26.1137 37.139C27.4283 36.717 28.0098 36.2573 28.7518 34.9894"></path><path stroke="#000" stroke-linecap="round" stroke-linejoin="round" d="M11.7262 44.3938C11.7262 42.0443 11.7776 38.7023 12.0312 35.375M23.6406 19.3125C25.507 19.7867 27.4612 21.0654 28.4844 23.4688"></path><path stroke="#000" stroke-linecap="round" stroke-linejoin="round" d="M26.5778 32.6689C28.9427 31.3591 32.6286 29.8725 35.4219 30.0547M30.3884 44.003C30.3102 42.3615 29.8297 38.8386 29.5993 37.2824C33.6611 38.7081 39.2798 38.3519 39.2798 34.5253C39.2798 34.4087 39.2843 34.1875 39.2798 34.0763"></path><path stroke="#000" stroke-linecap="round" stroke-linejoin="round" d="M27.6526 36.3818C28.2286 36.7303 28.8902 37.0335 29.5993 37.2824"></path><ellipse cx="37.326" cy="32.083" stroke="#000" stroke-linecap="round" stroke-linejoin="round" rx="3.224" ry="2.638" transform="rotate(-11.758 37.326 32.083)"></ellipse><path stroke="#000" stroke-linecap="round" stroke-linejoin="round" d="M23.0403 15.7844C24.1675 16.5253 24.4808 18.0397 23.7399 19.1669C22.5203 21.0226 21.2253 22.5243 19.4378 23.4318C17.6448 24.3422 15.6917 24.4846 13.5371 24.3639C12.1903 24.2884 11.1597 23.1354 11.2352 21.7886C11.3106 20.4418 12.4578 20.1488 13.8046 20.2243C15.6414 20.3272 16.9012 20.2948 17.5555 19.9626C18.2154 19.6275 19.3844 18.4194 20.434 16.8223C21.1749 15.6951 21.913 15.0436 23.0403 15.7844Z" clip-rule="evenodd"></path><path stroke="#000" stroke-linecap="round" stroke-linejoin="round" d="M13.9375 20.2188L13.7042 16.975C13.6319 15.9694 14.1235 15.0067 14.9804 14.4757V14.4757C15.9925 13.8485 17.2953 13.9549 18.1922 14.738L20.4668 16.7242"></path><path stroke="#000" stroke-linecap="round" stroke-linejoin="round" d="M20.3877 16.6618C19.274 16.3918 17.7823 16.5843 16.3282 17.279C15.2934 17.7734 14.4445 18.4424 13.8645 19.1605L13.9355 20.137C15.9812 20.4343 17.2988 20.2143 18.4998 19.2232C19.0913 18.6476 19.7855 17.8092 20.4341 16.8223C20.4508 16.7968 20.4676 16.7715 20.4844 16.7465L20.3877 16.6618Z"></path><ellipse cx="20.178" cy="30.91" stroke="#000" stroke-linecap="round" stroke-linejoin="round" rx="3.615" ry="4.69"></ellipse><ellipse cx="28.776" cy="27.393" stroke="#000" stroke-linecap="round" stroke-linejoin="round" rx="3.615" ry="3.908"></ellipse><path stroke="#000" stroke-linecap="round" stroke-linejoin="round" d="M12.7437 24.327C12.0482 25.5508 11.0998 26.5699 10.1859 27.5521C8.50955 29.3535 6.94911 31.0304 7.27757 33.617C7.73421 37.2131 11.4245 36.7388 13.0312 34.2767C14.8691 31.4603 15.1758 26.5683 13.6078 24.3857C13.4195 24.379 13.2298 24.3701 13.0387 24.3594C12.9387 24.3538 12.8403 24.3429 12.7437 24.327Z"></path><path stroke="#000" stroke-linecap="round" stroke-linejoin="round" d="M15.7321 40.5832C15.7321 40.5832 15.2436 43.4167 15.7321 44.5892"></path><path stroke="#000" stroke-linecap="round" stroke-linejoin="round" d="M17.9794 40.7786C17.7232 42.571 17.8917 43.3631 18.468 44.5892"></path><path stroke="#000" stroke-linecap="round" stroke-linejoin="round" d="M3.54041 44.2744C2.6936 43.4276 1 39.0546 1 35.459C2.40699 36.866 3.93124 37.0223 4.51748 36.9246C3.54041 35.4915 1.58625 31.7656 1.58625 28.3263C3.14957 29.8896 4.90832 30.2804 5.59227 30.2804C4.2895 28.0006 2.17249 22.4052 4.12665 18.2624C4.12665 18.2624 5.39685 20.9005 7.1556 21.8776C6.76477 20.1188 14.1906 7.70991 9.89142 3.41077C18 3.41077 29.7261 7.02596 31.5826 17.2853C32.6248 16.7967 34.7678 15.2334 35.0023 12.8884C37.191 16.4059 36.8914 21.5844 36.468 23.734C38.2658 22.5615 39.562 20.184 39.9854 19.1417C42.5987 22.1627 43.9382 25.5431 42.7263 30.7095C44.7586 29.537 46.3809 26.7997 46.9997 26.1809C47.0323 29.5681 44.4409 40.9914 41.1579 44.2744"></path><path fill="#000" fill-rule="evenodd" d="M29.3759 26.3413C28.5852 26.3413 27.9441 26.9824 27.9441 27.7731C27.9441 28.5639 28.5852 29.2049 29.3759 29.2049C30.1667 29.2049 30.8077 28.5638 30.8077 27.7731C30.8077 26.9824 30.1667 26.3413 29.3759 26.3413Z" clip-rule="evenodd"></path><path fill="#000" fill-rule="evenodd" d="M20.5979 29.4784C19.8072 29.4784 19.1661 30.1194 19.1661 30.9101C19.1661 31.7009 19.8072 32.3419 20.5979 32.3419C21.3887 32.3419 22.0297 31.7009 22.0297 30.9101C22.0297 30.1194 21.3886 29.4784 20.5979 29.4784Z" clip-rule="evenodd"></path></svg>