<svg xmlns="http://www.w3.org/2000/svg" fill="none" viewBox="0 0 48 48"><circle cx="14.039" cy="35.971" r="2.936" stroke="#000" transform="rotate(45 14.039 35.97)"></circle><path stroke="#000" d="M12.814 33.1757L25.0839 23.3598C25.4818 23.0415 26.0554 23.0733 26.4157 23.4336L26.534 23.5519C26.8943 23.9122 26.9261 24.4858 26.6078 24.8837L16.7919 37.1536C16.7376 37.2215 16.6764 37.2803 16.6103 37.3299C17.2018 36.2196 17.0297 34.8094 16.0939 33.8737C15.1582 32.9379 13.748 32.7658 12.6377 33.3573C12.6873 33.2912 12.7461 33.23 12.814 33.1757Z"></path><path stroke="#000" stroke-linecap="round" stroke-linejoin="round" d="M1 7.87674H47V11.7916L45.0425 11.7916V13.7491L43.0851 13.7491V15.7065L41.1277 15.7065V17.664H29.383V15.7065L27.4255 15.7065L27.4255 13.7491L25.4681 13.7491L25.4681 9.83419H22.5319L22.5319 13.7491L20.5745 13.7491L20.5745 15.7065L18.617 15.7065V17.664H6.87235V15.7065L4.9149 15.7065V13.7491L2.95745 13.7491V11.7916H1V7.87674Z"></path><path fill="#000" fill-rule="evenodd" d="M5.64368 9.8129H4.89368V10.5629V11.0629V11.8129H5.64368H6.14368H6.85107V12.5204V13.0204V13.7704H7.60107H8.10107H8.80847V14.4778V14.9778V15.7278H9.55847H10.0585H10.8085V14.9778V14.4778V13.7704H11.516H12.016H12.766V13.0204V12.5204V11.7704H12.016H11.516H10.8085V11.0629V10.5629V9.8129H10.0585H9.55847H8.80847V10.5629V11.0629V11.7704H8.10107H7.60107H6.89368V11.0629V10.5629V9.8129H6.14368H5.64368ZM9.55847 13.7278H8.85107V13.0204V12.5204V11.8129H9.55847H10.0585H10.766V12.5204V13.0204V13.7278H10.0585H9.55847Z" clip-rule="evenodd"></path><path fill="#000" fill-rule="evenodd" d="M30.1117 9.8129H29.3617V10.5629V11.0629V11.8129H30.1117H30.6117H31.3191V12.5204V13.0204V13.7704H32.0691H32.5691H33.2765V14.4778V14.9778V15.7278H34.0265H34.5265H35.2765V14.9778V14.4778V13.7704H35.984H36.484H37.234V13.0204V12.5204V11.7704H36.484H35.984H35.2765V11.0629V10.5629V9.8129H34.5265H34.0265H33.2765V10.5629V11.0629V11.7704H32.5691H32.0691H31.3617V11.0629V10.5629V9.8129H30.6117H30.1117ZM34.0265 13.7278H33.3191V13.0204V12.5204V11.8129H34.0265H34.5265H35.234V12.5204V13.0204V13.7278H34.5265H34.0265Z" clip-rule="evenodd"></path></svg>