<svg xmlns="http://www.w3.org/2000/svg" fill="none" viewBox="0 0 14 14" id="Calendar-Star--Streamline-Core-Neon">
  <desc>
    Calendar Star Streamline Icon: https://streamlinehq.com
  </desc>
  <g id="calendar-star--calendar-date-day-favorite-like-month-star">
    <path id="Vector" stroke="#000cfe" stroke-linecap="round" stroke-linejoin="round" d="m7.21025 5.37887 0.70742 1.42308c0.01582 0.036 0.04091 0.06714 0.0727 0.09027 0.0318 0.02312 0.06916 0.03739 0.10827 0.04135l1.57115 0.23855c0.04492 0.00584 0.08724 0.02436 0.12202 0.05337 0.03479 0.02902 0.06059 0.06734 0.0744 0.11048 0.0138 0.04314 0.01504 0.08932 0.00356 0.13314 -0.01147 0.04382 -0.03519 0.08347 -0.06837 0.1143L8.64155 8.68568c-0.01729 0.03299 -0.02633 0.06969 -0.02633 0.10694 0 0.03725 0.00904 0.07394 0.02633 0.10694l0.2221 1.56294c0.00948 0.0452 0.00564 0.0921 -0.01104 0.1351 -0.01667 0.0431 -0.04548 0.0804 -0.08292 0.1074 -0.03745 0.0269 -0.08192 0.0425 -0.12802 0.0447 -0.04611 0.0022 -0.09187 -0.009 -0.13173 -0.0322l-1.3984 -0.74035c-0.0362 -0.01636 -0.07545 -0.02481 -0.11517 -0.02481 -0.03971 0 -0.07897 0.00845 -0.11516 0.02481l-1.3984 0.74035c-0.03987 0.0232 -0.08563 0.0344 -0.13173 0.0322 -0.04611 -0.0022 -0.09058 -0.0178 -0.12802 -0.0447 -0.03744 -0.027 -0.06625 -0.0643 -0.08293 -0.1074 -0.01668 -0.043 -0.02051 -0.0899 -0.01103 -0.1351l0.26322 -1.56294c0.01132 -0.03628 0.01349 -0.07479 0.00631 -0.11211 -0.00717 -0.03732 -0.02347 -0.07228 -0.04744 -0.10177L4.19134 7.57519c-0.03076 -0.03117 -0.05235 -0.0702 -0.06241 -0.11282 -0.01005 -0.04262 -0.00818 -0.08719 0.00541 -0.12882 0.01359 -0.04163 0.03838 -0.07871 0.07165 -0.10718 0.03327 -0.02848 0.07374 -0.04725 0.11697 -0.05425l1.57114 -0.23033c0.03912 -0.00395 0.07648 -0.01822 0.10827 -0.04135 0.0318 -0.02312 0.05689 -0.05427 0.0727 -0.09026L6.7825 5.3871c0.01893 -0.04028 0.04875 -0.07447 0.0861 -0.09869 0.03734 -0.02422 0.08071 -0.03751 0.12522 -0.03837 0.0445 -0.00085 0.08835 0.01076 0.1266 0.03353 0.03825 0.02276 0.06936 0.05578 0.08983 0.0953Z" stroke-width="1"></path>
    <path id="Vector_2" stroke="#c71dff" stroke-linecap="round" stroke-linejoin="round" d="M2 2.5c-0.26522 0 -0.51957 0.10536 -0.70711 0.29289C1.10536 2.98043 1 3.23478 1 3.5V12c0 0.2652 0.10536 0.5196 0.29289 0.7071C1.48043 12.8946 1.73478 13 2 13h10c0.2652 0 0.5196 -0.1054 0.7071 -0.2929S13 12.2652 13 12V3.5c0 -0.26522 -0.1054 -0.51957 -0.2929 -0.70711C12.5196 2.60536 12.2652 2.5 12 2.5H2Z" stroke-width="1"></path>
    <path id="Vector_3" stroke="#000cfe" stroke-linecap="round" stroke-linejoin="round" d="M3.5 1v3" stroke-width="1"></path>
    <path id="Vector_4" stroke="#000cfe" stroke-linecap="round" stroke-linejoin="round" d="M10.5 1v3" stroke-width="1"></path>
  </g>
</svg>