<svg xmlns="http://www.w3.org/2000/svg" fill="none" viewBox="0 0 14 14" id="Clipboard-Add--Streamline-Core-Neon">
  <desc>
    Clipboard Add Streamline Icon: https://streamlinehq.com
  </desc>
  <g id="clipboard-add--edit-task-edition-add-clipboard-form">
    <path id="Vector" stroke="#000cfe" stroke-linecap="round" stroke-linejoin="round" d="M7 5.75v5" stroke-width="1"></path>
    <path id="Vector_2" stroke="#000cfe" stroke-linecap="round" stroke-linejoin="round" d="M9.5 8.25h-5" stroke-width="1"></path>
    <path id="Vector_3" stroke="#c71dff" stroke-linecap="round" stroke-linejoin="round" d="M9.725 1.5H11.5c0.5523 0 1 0.44772 1 1v10c0 0.5523 -0.4477 1 -1 1h-9c-0.55228 0 -1 -0.4477 -1 -1v-10c0 -0.55228 0.44771 -1 1 -1h1.775" stroke-width="1"></path>
    <path id="Vector 3873" stroke="#c71dff" stroke-linecap="round" stroke-linejoin="round" d="M8.5 3h-3c-0.69036 0 -1.25 -0.55964 -1.25 -1.25S4.80964 0.5 5.5 0.5h3c0.69036 0 1.25 0.55964 1.25 1.25S9.19036 3 8.5 3Z" stroke-width="1"></path>
  </g>
</svg>