<svg xmlns="http://www.w3.org/2000/svg" fill="none" viewBox="0 0 14 14" id="Convert-Pdf-2--Streamline-Core-Neon">
  <desc>
    Convert PDF 2 Streamline Icon: https://streamlinehq.com
  </desc>
  <g id="convert-PDF-2--essential-files-folder-convert-to-PDF">
    <path id="Vector" stroke="#c71dff" stroke-linecap="round" stroke-linejoin="round" d="M12.5 12.5c0 0.2652 -0.1054 0.5196 -0.2929 0.7071s-0.4419 0.2929 -0.7071 0.2929h-9c-0.26522 0 -0.51957 -0.1054 -0.70711 -0.2929C1.60536 13.0196 1.5 12.7652 1.5 12.5v-11c0 -0.26522 0.10536 -0.51957 0.29289 -0.707107C1.98043 0.605357 2.23478 0.5 2.5 0.5H9L12.5 4v8.5Z" stroke-width="1"></path>
    <path id="Vector 1238" stroke="#000cfe" stroke-linecap="round" stroke-linejoin="round" d="M5.29955 3.51652c-1.29377 0.38332 4.10054 6.88368 4.67583 5.39619 0.57532 -1.48747 -7.0855 0.43004 -5.8238 1.48749 1.2617 1.0574 2.44174 -7.267 1.14797 -6.88368Z" stroke-width="1"></path>
  </g>
</svg>