<svg xmlns="http://www.w3.org/2000/svg" fill="none" viewBox="0 0 14 14" id="Flip-Vertical-Circle-1--Streamline-Core-Neon">
  <desc>
    Flip Vertical Circle 1 Streamline Icon: https://streamlinehq.com
  </desc>
  <g id="flip-vertical-circle-1--flip-bottom-object-work">
    <path id="Vector" stroke="#c71dff" stroke-linecap="round" stroke-linejoin="round" d="M0.5 7h13c0 1.72391 -0.6848 3.3772 -1.9038 4.5962C10.3772 12.8152 8.72391 13.5 7 13.5c-1.72391 0 -3.37721 -0.6848 -4.59619 -1.9038C1.18482 10.3772 0.5 8.72391 0.5 7v0Z" stroke-width="1"></path>
    <path id="Vector_2" stroke="#000cfe" stroke-linecap="round" stroke-linejoin="round" d="M13.0002 4.39c-0.1989 -0.46292 -0.4542 -0.89955 -0.76 -1.3 -0.2896 -0.40111 -0.6252 -0.76693 -1 -1.09" stroke-width="1"></path>
    <path id="Vector_3" stroke="#000cfe" stroke-linecap="round" stroke-linejoin="round" d="M1.0498 4.39c0.19895 -0.46292 0.45421 -0.89955 0.76 -1.3 0.30212 -0.40338 0.65125 -0.76929 1.04 -1.09" stroke-width="1"></path>
    <path id="Vector_4" stroke="#000cfe" stroke-linecap="round" stroke-linejoin="round" d="M8.5 0.670069c-0.98715 -0.226759 -2.01285 -0.226759 -3 0" stroke-width="1"></path>
  </g>
</svg>