<svg xmlns="http://www.w3.org/2000/svg" fill="none" viewBox="0 0 14 14" id="Half-Star-1--Streamline-Core-Neon">
  <desc>
    Half Star 1 Streamline Icon: https://streamlinehq.com
  </desc>
  <g id="half-star-1--reward-rating-rate-social-star-media-favorite-like-stars-half">
    <path id="Vector" stroke="#c71dff" stroke-linecap="round" stroke-linejoin="round" d="M10.052 11.5787c0.0826 -0.0406 0.1734 -0.0617 0.2654 -0.0617V0.6505c-0.1052 0 -0.2082 0.0301 -0.2968 0.0867 -0.0887 0.0567 -0.1593 0.1375 -0.2035 0.233L8.1937 4.2477c-0.0369 0.0831 -0.095 0.1552 -0.1685 0.2089 -0.0734 0.0538 -0.1597 0.0874 -0.2501 0.0974l-3.5838 0.5309c-0.1064 0.0083 -0.208 0.0472 -0.2926 0.112 -0.0847 0.0648 -0.1487 0.1528 -0.1844 0.2533 -0.0356 0.1005 -0.0414 0.2092 -0.0165 0.3129 0.0248 0.1037 0.0792 0.198 0.1565 0.2714l2.6139 2.5219c0.0659 0.0616 0.1154 0.1387 0.1439 0.2243 0.0285 0.0856 0.0352 0.177 0.0194 0.2658l-0.6228 3.6451c-0.018 0.1036 -0.0066 0.2101 0.0329 0.3075 0.0395 0.0974 0.1056 0.1817 0.1907 0.2435 0.0851 0.0617 0.1859 0.0982 0.2907 0.1055 0.1049 0.0073 0.2097 -0.015 0.3025 -0.0643l3.2265 -1.7052Z" stroke-width="1"></path>
  </g>
</svg>