<svg xmlns="http://www.w3.org/2000/svg" fill="none" viewBox="0 0 14 14" id="Invisible-1--Streamline-Core-Neon">
  <desc>
    Invisible 1 Streamline Icon: https://streamlinehq.com
  </desc>
  <g id="invisible-1--disable-eye-eyeball-hide-off-view">
    <path id="Vector" stroke="#c71dff" stroke-linecap="round" stroke-linejoin="round" d="M8.41436 8.41421c0.78105 -0.78105 0.78105 -2.04738 0 -2.82842 -0.78104 -0.78105 -2.04737 -0.78105 -2.82842 0" stroke-width="1"></path>
    <path id="Vector_2" stroke="#c71dff" stroke-linecap="round" stroke-linejoin="round" d="M3.4082 3.4084C4.45006 2.61278 5.68028 2 6.99981 2c2.79531 0 5.18989 2.75 6.24189 4.1625 0.1661 0.22969 0.2581 0.5281 0.2581 0.8375s-0.092 0.60781 -0.2581 0.8375c-0.5554 0.74573 -1.485 1.86427 -2.6503 2.7541" stroke-width="1"></path>
    <path id="Vector_3" stroke="#c71dff" stroke-linecap="round" stroke-linejoin="round" d="M1.70833 5c-0.38255 0.42594 -0.70334 0.83104 -0.9502 1.1625C0.591974 6.39219 0.5 6.6906 0.5 7s0.091974 0.60781 0.25813 0.8375C1.81013 9.25 4.20468 12 7 12c0.50311 0 0.99325 -0.0891 1.46491 -0.2434" stroke-width="1"></path>
    <path id="Vector 1859" stroke="#000cfe" stroke-linecap="round" stroke-linejoin="round" d="m0.5 0.5 13 13" stroke-width="1"></path>
  </g>
</svg>