<svg xmlns="http://www.w3.org/2000/svg" fill="none" viewBox="0 0 14 14" id="Line-Arrow-Synchronize-Disable--Streamline-Core-Neon">
  <desc>
    Line Arrow Synchronize Disable Streamline Icon: https://streamlinehq.com
  </desc>
  <g id="line-arrow-synchronize-disable--arrows-loading-load-sync-synchronize-arrow-reload">
    <path id="Vector" stroke="#c71dff" stroke-linecap="round" stroke-linejoin="round" d="M10.5 1.52173c1.8042 1.15507 3 3.17697 3 5.47818 0 1.79495 -0.7276 3.41999 -1.9039 4.59619" stroke-width="1"></path>
    <path id="Vector_2" stroke="#c71dff" stroke-linecap="round" stroke-linejoin="round" d="M6.99988 13.4999c1.02054 0 1.98615 -0.2352 2.84558 -0.6543" stroke-width="1"></path>
    <path id="Vector_3" stroke="#c71dff" stroke-linecap="round" stroke-linejoin="round" d="M7 0.5c-1.79493 0 -3.41993 0.72754 -4.59619 1.90381" stroke-width="1"></path>
    <path id="Vector_4" stroke="#c71dff" stroke-linecap="round" stroke-linejoin="round" d="M3.5 12.4782c-1.80416 -1.155 -3 -3.17693 -3 -5.47814 0 -1.02057 0.235203 -1.9862 0.65436 -2.84564" stroke-width="1"></path>
    <path id="Vector 4482" stroke="#c71dff" stroke-linecap="round" stroke-linejoin="round" d="m13 1.5 -2.5 0 0 2.5" stroke-width="1"></path>
    <path id="Vector 4483" stroke="#c71dff" stroke-linecap="round" stroke-linejoin="round" d="m1 12.5 2.5 0 0 -2.5" stroke-width="1"></path>
    <path id="Vector 1002" stroke="#000cfe" stroke-linecap="round" stroke-linejoin="round" d="m0.5 0.5 13 13" stroke-width="1"></path>
  </g>
</svg>