<svg xmlns="http://www.w3.org/2000/svg" fill="none" viewBox="0 0 14 14" id="Magic-Wand-2--Streamline-Core-Neon">
  <desc>
    Magic Wand 2 Streamline Icon: https://streamlinehq.com
  </desc>
  <g id="magic-wand-2--design-magic-star-supplies-tool-wand">
    <path id="Vector" stroke="#c71dff" stroke-linecap="round" stroke-linejoin="round" d="M7.08142 6.91846 0.5 13.4999" stroke-width="1"></path>
    <path id="Vector_2" stroke="#000cfe" stroke-linecap="round" stroke-linejoin="round" d="m12.6901 1.84378 -0.84 2.48c-0.029 0.05736 -0.0441 0.12073 -0.0441 0.185s0.0151 0.12764 0.0441 0.185l1.57 2.1c0.0451 0.06011 0.0724 0.13171 0.0787 0.2066 0.0063 0.07489 -0.0087 0.15004 -0.0431 0.21684 -0.0345 0.0668 -0.087 0.12255 -0.1517 0.16085 -0.0646 0.0383 -0.1388 0.05761 -0.2139 0.05571h-2.62c-0.0642 0.00189 -0.1272 0.01814 -0.1843 0.04756 -0.0571 0.02941 -0.1069 0.07125 -0.1457 0.12244l-1.46003 2.1c-0.04282 0.06139 -0.102 0.10953 -0.17082 0.13895 -0.06882 0.02942 -0.14452 0.03894 -0.21848 0.02748 -0.07397 -0.01146 -0.14323 -0.04344 -0.19992 -0.09231 -0.05669 -0.04886 -0.09854 -0.11265 -0.12078 -0.18412l-0.78 -2.5c-0.01779 -0.0618 -0.05098 -0.11807 -0.09646 -0.16354 -0.04547 -0.04547 -0.10174 -0.07866 -0.16354 -0.09646l-2.5 -0.78c-0.07146 -0.02224 -0.13525 -0.06408 -0.18412 -0.12077 -0.04887 -0.0567 -0.08085 -0.12596 -0.09231 -0.19992 -0.01146 -0.07397 -0.00194 -0.14966 0.02749 -0.21848 0.02942 -0.06882 0.07756 -0.12801 0.13894 -0.17083l2.14 -1.51c0.05119 -0.03881 0.09303 -0.0886 0.12245 -0.14571 0.02942 -0.05711 0.04567 -0.12008 0.04755 -0.18429v-2.62c0.0028 -0.068815 0.02331 -0.135744 0.05956 -0.194305 0.03625 -0.058561 0.087 -0.106771 0.14735 -0.139961 0.06034 -0.033191 0.12824 -0.050238 0.19711 -0.04949 0.06886 0.000747 0.13637 0.019263 0.19598 0.053756l2.1 1.57c0.05332 0.03703 0.11466 0.06087 0.17898 0.06956 0.06433 0.00869 0.1298 0.00199 0.19102 -0.01956l2.48003 -0.84c0.0711 -0.025 0.1478 -0.02938 0.2213 -0.01266 0.0736 0.01673 0.1408 0.05388 0.1941 0.10719 0.0534 0.05331 0.0905 0.12059 0.1072 0.1941 0.0168 0.07351 0.0124 0.15025 -0.0126 0.22137v0Z" stroke-width="1"></path>
  </g>
</svg>