<svg xmlns="http://www.w3.org/2000/svg" fill="none" viewBox="0 0 14 14" id="Text-Flow-Rows--Streamline-Core-Neon">
  <desc>
    Text Flow Rows Streamline Icon: https://streamlinehq.com
  </desc>
  <g id="text-flow-rows">
    <path id="Vector 4228" stroke="#c71dff" stroke-linecap="round" stroke-linejoin="round" d="M4.5 2.75h5" stroke-width="1"></path>
    <path id="Vector 4229" stroke="#c71dff" stroke-linecap="round" stroke-linejoin="round" d="M9.79294 4.20715 4.20715 9.79294" stroke-width="1"></path>
    <path id="Vector 4230" stroke="#c71dff" stroke-linecap="round" stroke-linejoin="round" d="M4.5 11.25H13" stroke-width="1"></path>
    <path id="Vector 4231" stroke="#c71dff" stroke-linecap="round" stroke-linejoin="round" d="m11 13.25 2 -2 -2 -2" stroke-width="1"></path>
    <path id="Vector 4226" stroke="#000cfe" stroke-linecap="round" stroke-linejoin="round" d="M12 1h-1.5c-0.55228 0 -1 0.44772 -1 1v1.5c0 0.55228 0.44772 1 1 1H12c0.5523 0 1 -0.44772 1 -1V2c0 -0.55228 -0.4477 -1 -1 -1Z" stroke-width="1"></path>
    <path id="Vector 4227" stroke="#000cfe" stroke-linecap="round" stroke-linejoin="round" d="M1 12v-1.5c0 -0.55228 0.44772 -1 1 -1h1.5c0.55228 0 1 0.44772 1 1V12c0 0.5523 -0.44772 1 -1 1H2c-0.55228 0 -1 -0.4477 -1 -1Z" stroke-width="1"></path>
    <path id="Vector 4225" stroke="#000cfe" stroke-linecap="round" stroke-linejoin="round" d="M1 3.5V2c0 -0.55228 0.44772 -1 1 -1h1.5c0.55228 0 1 0.44772 1 1v1.5c0 0.55228 -0.44772 1 -1 1H2c-0.55228 0 -1 -0.44772 -1 -1Z" stroke-width="1"></path>
  </g>
</svg>