<svg xmlns="http://www.w3.org/2000/svg" fill="none" viewBox="0 0 14 14" id="Trending-Content--Streamline-Core-Neon">
  <desc>
    Trending Content Streamline Icon: https://streamlinehq.com
  </desc>
  <g id="trending-content--lit-flame-torch-trending">
    <path id="Vector" stroke="#c71dff" stroke-linecap="round" stroke-linejoin="round" d="M6.15013 0.555038C6.08983 0.519019 6.0209 0.5 5.95066 0.5S5.8115 0.519019 5.7512 0.555038c-0.04974 0.039408 -0.0833 0.095686 -0.09433 0.158178 -0.01102 0.062491 0.00125 0.126857 0.03449 0.180909 1.2267 2.124275 1.486 5.016485 -0.18949 6.612185 -0.64464 -0.54172 -1.15642 -1.22409 -1.49597 -1.99462 -0.6196 0.34412 -1.13309 0.8514 -1.48473 1.46677 -0.35164 0.61537 -0.52799 1.3153 -0.5099 2.02382 0.0253 0.6246 0.17527 1.23782 0.44109 1.80362 0.26582 0.5658 0.64212 1.0726 1.10676 1.4908 0.46464 0.4182 1.00823 0.7392 1.59878 0.9442 0.59056 0.2049 1.21614 0.2897 1.83994 0.2493 3.21136 0 4.87686 -1.9946 4.98656 -4.48792 0.1297 -2.99194 -1.99462 -6.67202 -5.83427 -8.447242Z" stroke-width="1"></path>
  </g>
</svg>