<svg xmlns="http://www.w3.org/2000/svg" fill="none" viewBox="0 0 14 14" id="User-Multiple-Circle--Streamline-Core-Neon">
  <desc>
    User Multiple Circle Streamline Icon: https://streamlinehq.com
  </desc>
  <g id="user-multiple-circle--close-geometric-human-multiple-person-user-circle">
    <path id="Ellipse 1776" stroke="#000cfe" stroke-linecap="round" stroke-linejoin="round" d="M3 5.5a2 2 0 1 0 4 0 2 2 0 1 0 -4 0" stroke-width="1"></path>
    <path id="Ellipse 1778" stroke="#000cfe" stroke-linecap="round" stroke-linejoin="round" d="M9 6.5a1.5 1.5 0 1 0 3 0 1.5 1.5 0 1 0 -3 0" stroke-width="1"></path>
    <path id="Ellipse 1779" stroke="#000cfe" stroke-linecap="round" stroke-linejoin="round" d="M10.5 9.5c-1.01451 0 -1.9114 0.5036 -2.45435 1.2744 0.28916 0.5092 0.45427 1.0981 0.45427 1.7256 0 0.293 -0.03601 0.5777 -0.10385 0.8497 1.77393 -0.3883 3.27683 -1.501 4.18293 -3.0125C12.0398 9.81874 11.3071 9.5 10.5 9.5Z" stroke-width="1"></path>
    <path id="Vector" stroke="#000cfe" stroke-linecap="round" stroke-linejoin="round" d="M6.99994 13.5c-2.09554 0 -3.95947 -0.9916 -5.14813 -2.5313C2.41981 9.80314 3.61609 9 4.99994 9c1.933 0 3.5 1.567 3.5 3.5 0 0.293 -0.03602 0.5777 -0.10386 0.8497 -0.44972 0.0984 -0.91687 0.1503 -1.39614 0.1503Z" stroke-width="1"></path>
    <path id="Vector_2" stroke="#c71dff" stroke-linecap="round" stroke-linejoin="round" d="M7 13.5C3.41015 13.5 0.5 10.5899 0.5 7 0.5 3.41015 3.41015 0.5 7 0.5c3.5899 0 6.5 2.91015 6.5 6.5 0 3.5899 -2.9101 6.5 -6.5 6.5Z" stroke-width="1"></path>
  </g>
</svg>