<svg xmlns="http://www.w3.org/2000/svg" fill="none" viewBox="0 0 14 14" id="User-Sync-Online-In-Person--Streamline-Core-Neon">
  <desc>
    User Sync Online In Person Streamline Icon: https://streamlinehq.com
  </desc>
  <g id="user-sync-online-in-person">
    <path id="Ellipse 1134" stroke="#000cfe" stroke-linecap="round" stroke-linejoin="round" d="M5.75 5.25a1.25 1.25 0 1 0 2.5 0 1.25 1.25 0 1 0 -2.5 0" stroke-width="1"></path>
    <path id="Ellipse 1136" stroke="#000cfe" stroke-linecap="round" stroke-linejoin="round" d="M4.70801 9.5C5.09379 8.61705 5.97483 8 6.99999 8s1.9062 0.61705 2.29197 1.5" stroke-width="1"></path>
    <path id="Ellipse 1522" stroke="#c71dff" stroke-linecap="round" stroke-linejoin="round" d="M13.4999 7c0 3.5899 -2.9102 6.5 -6.50002 6.5 -2.70395 0 -5.02227 -1.651 -6.001833 -4" stroke-width="1"></path>
    <path id="Ellipse 1523" stroke="#c71dff" stroke-linecap="round" stroke-linejoin="round" d="M0.5 7C0.5 3.41015 3.41015 0.5 7 0.5c2.70395 0 5.0223 1.65105 6.0018 4" stroke-width="1"></path>
    <path id="Vector" stroke="#c71dff" stroke-linecap="round" stroke-linejoin="round" d="M13.5 2.5v2h-2" stroke-width="1"></path>
    <path id="Vector_2" stroke="#c71dff" stroke-linecap="round" stroke-linejoin="round" d="M0.5 11.5v-2h2" stroke-width="1"></path>
  </g>
</svg>