<svg xmlns="http://www.w3.org/2000/svg" fill="none" viewBox="0 0 14 14" id="Vertical-Slider-Square--Streamline-Core-Neon">
  <desc>
    Vertical Slider Square Streamline Icon: https://streamlinehq.com
  </desc>
  <g id="vertical-slider-square--adjustment-adjust-controls-fader-vertical-settings-slider-square">
    <path id="Vector" stroke="#000cfe" stroke-linecap="round" stroke-linejoin="round" d="m4.75 11 0 -5" stroke-width="1"></path>
    <path id="Vector_2" stroke="#000cfe" stroke-linecap="round" stroke-linejoin="round" d="M6.25 4.5c0 -0.82843 -0.67157 -1.5 -1.5 -1.5s-1.5 0.67157 -1.5 1.5S3.92157 6 4.75 6s1.5 -0.67157 1.5 -1.5Z" stroke-width="1"></path>
    <path id="Vector_3" stroke="#000cfe" stroke-linecap="round" stroke-linejoin="round" d="m9.25 3 0 3.5" stroke-width="1"></path>
    <path id="Vector_4" stroke="#000cfe" stroke-linecap="round" stroke-linejoin="round" d="m9.25 9.5 0 1.5" stroke-width="1"></path>
    <path id="Vector_5" stroke="#000cfe" stroke-linecap="round" stroke-linejoin="round" d="M10.75 8c0 -0.82843 -0.6716 -1.5 -1.5 -1.5 -0.82843 0 -1.5 0.67157 -1.5 1.5s0.67157 1.5 1.5 1.5c0.8284 0 1.5 -0.67157 1.5 -1.5Z" stroke-width="1"></path>
    <path id="Vector 3956" stroke="#c71dff" stroke-linecap="round" stroke-linejoin="round" d="m1 2 0 10c0 0.5523 0.44772 1 1 1l10 0c0.5523 0 1 -0.4477 1 -1l0 -10c0 -0.55228 -0.4477 -1.000001 -1 -1L2 1c-0.55229 0 -1.000001 0.44771 -1 1Z" stroke-width="1"></path>
  </g>
</svg>