<svg xmlns="http://www.w3.org/2000/svg" fill="none" viewBox="0 0 48 48" id="Parachute-Drop--Streamline-Plump">
  <desc>
    Parachute Drop Streamline Icon: https://streamlinehq.com
  </desc>
  <g id="parachute-drop--package-box-fulfillment-cart-warehouse-shipping-delivery-drop-parachute">
    <path id="Rectangle 1095" stroke="#000000" stroke-linejoin="round" d="M11.025 41.11c0.16 2.093 1.827 3.602 3.923 3.703 2.01 0.097 4.938 0.187 8.9 0.187 3.962 0 6.889 -0.09 8.899 -0.187 2.096 -0.101 3.763 -1.61 3.924 -3.703 0.1 -1.3 0.177 -2.992 0.177 -5.11 0 -2.118 -0.078 -3.81 -0.177 -5.11 -0.16 -2.093 -1.828 -3.602 -3.924 -3.703 -2.01 -0.097 -4.937 -0.187 -8.9 -0.187 -3.961 0 -6.888 0.09 -8.899 0.187 -2.096 0.101 -3.763 1.61 -3.923 3.703a67.149 67.149 0 0 0 -0.177 5.11c0 2.118 0.077 3.81 0.177 5.11Z" stroke-width="3"></path>
    <path id="Vector 833" stroke="#000000" stroke-linecap="round" d="m30.848 39 -6 0" stroke-width="3"></path>
    <path id="Vector 834" stroke="#000000" stroke-linecap="round" d="m30.848 34 -3 0" stroke-width="3"></path>
    <path id="Vector 835" stroke="#000000" stroke-linecap="round" d="m24 18 0 9" stroke-width="3"></path>
    <path id="Vector 838" stroke="#000000" stroke-linecap="round" d="M3 18c6 5 21 9 21 9" stroke-width="3"></path>
    <path id="Vector 839" stroke="#000000" stroke-linecap="round" d="M45 18c-6 5 -21 9 -21 9" stroke-width="3"></path>
    <path id="Vector" stroke="#000000" stroke-linejoin="round" d="M3 18c0 -6 7 -15 21 -15s21 9 21 15c0 0 -4 -3 -11 -3s-10 3 -10 3 -3 -3 -10 -3 -11 3 -11 3Z" stroke-width="3"></path>
  </g>
</svg>