<svg xmlns="http://www.w3.org/2000/svg" fill="none" viewBox="0 0 48 48" id="Shipping-Box-1--Streamline-Plump">
  <desc>
    Shipping Box 1 Streamline Icon: https://streamlinehq.com
  </desc>
  <g id="shipping-box-1--box-package-label-delivery-shipment-shipping">
    <path id="Rectangle 1095" stroke="#000000" stroke-linecap="round" d="M3.545 39.596a5.248 5.248 0 0 0 4.859 4.859C11.72 44.719 16.914 45 24 45c7.085 0 12.28 -0.281 15.596 -0.545a5.248 5.248 0 0 0 4.859 -4.859C44.719 36.28 45 31.086 45 24c0 -7.085 -0.281 -12.28 -0.545 -15.596a5.248 5.248 0 0 0 -4.859 -4.859C36.28 3.281 31.086 3 24 3c-7.085 0 -12.28 0.281 -15.596 0.545a5.248 5.248 0 0 0 -4.859 4.859C3.281 11.72 3 16.914 3 24c0 7.085 0.281 12.28 0.545 15.596Z" stroke-width="3"></path>
    <path id="Intersect" stroke="#000000" stroke-linecap="round" stroke-linejoin="round" d="M30.676 3.089c-0.045 4.26 -0.354 8.618 -0.533 10.831a0.987 0.987 0 0 1 -1.45 0.79l-4.46 -2.359a0.5 0.5 0 0 0 -0.467 0l-4.458 2.36a0.987 0.987 0 0 1 -1.45 -0.79c-0.18 -2.214 -0.488 -6.572 -0.534 -10.832" stroke-width="3"></path>
    <path id="Vector 830" stroke="#000000" stroke-linecap="round" d="M36 36h-9" stroke-width="3"></path>
    <path id="Vector 831" stroke="#000000" stroke-linecap="round" d="M36 28h-5" stroke-width="3"></path>
  </g>
</svg>