<svg xmlns="http://www.w3.org/2000/svg" viewBox="0 0 24 24" id="Desktop-Monitor-Smiley--Streamline-Ultimate">
  <desc>
    Desktop Monitor Smiley Streamline Icon: https://streamlinehq.com
  </desc>
  <g id="Desktop-Monitor-Smiley--Streamline-Ultimate.svg">
    <path d="M24 1.5A1.5 1.5 0 0 0 22.5 0h-21A1.5 1.5 0 0 0 0 1.5v16A1.5 1.5 0 0 0 1.5 19h21a1.5 1.5 0 0 0 1.5 -1.5v-16Zm-2 13a0.5 0.5 0 0 1 -0.5 0.5h-19a0.5 0.5 0 0 1 -0.5 -0.5v-12a0.5 0.5 0 0 1 0.5 -0.5h19a0.5 0.5 0 0 1 0.5 0.5Z" fill="#000000" stroke-width="1"></path>
    <path d="M14.35 20.68a0.51 0.51 0 0 0 -0.35 -0.18h-4a0.53 0.53 0 0 0 -0.38 0.18l-2.1 2.53a0.49 0.49 0 0 0 0 0.52A0.48 0.48 0 0 0 8 24h8a0.51 0.51 0 0 0 0.41 -0.79Z" fill="#000000" stroke-width="1"></path>
    <path d="M9.5 7.25a1 1 0 0 0 1 -1V5a1 1 0 0 0 -2 0v1.25a1 1 0 0 0 1 1Z" fill="#000000" stroke-width="1"></path>
    <path d="M15 7.25a1 1 0 0 0 1 -1V5a1 1 0 0 0 -2 0v1.25a1 1 0 0 0 1 1Z" fill="#000000" stroke-width="1"></path>
    <path d="M15.44 9.68a4.49 4.49 0 0 1 -6.36 0 1 1 0 0 0 -1.41 1.42 6.51 6.51 0 0 0 9.19 0 1 1 0 0 0 -1.42 -1.42Z" fill="#000000" stroke-width="1"></path>
  </g>
</svg>