<svg xmlns="http://www.w3.org/2000/svg" viewBox="0 0 24 24" id="Electronics-Capacitor--Streamline-Ultimate">
  <desc>
    Electronics Capacitor Streamline Icon: https://streamlinehq.com
  </desc>
  <g id="Electronics-Capacitor--Streamline-Ultimate.svg">
    <path d="M17 12.25a0.5 0.5 0 0 0 0.5 -0.5V1.5A1.5 1.5 0 0 0 16 0H8a1.5 1.5 0 0 0 -1.5 1.5v10.25a0.5 0.5 0 0 0 0.5 0.5Z" fill="#000000" stroke-width="1"></path>
    <path d="M7 13.75a0.5 0.5 0 0 0 -0.5 0.5V16a0.5 0.5 0 0 0 0.5 0.5h1.25a0.25 0.25 0 0 1 0.25 0.25V23a1 1 0 0 0 2 0v-6.25a0.25 0.25 0 0 1 0.25 -0.25h2.5a0.25 0.25 0 0 1 0.25 0.25V23a1 1 0 0 0 2 0v-6.25a0.25 0.25 0 0 1 0.25 -0.25H17a0.5 0.5 0 0 0 0.5 -0.5v-1.75a0.5 0.5 0 0 0 -0.5 -0.5Z" fill="#000000" stroke-width="1"></path>
  </g>
</svg>