<svg xmlns="http://www.w3.org/2000/svg" viewBox="0 0 24 24" id="Laptop--Streamline-Ultimate">
  <desc>
    Laptop Streamline Icon: https://streamlinehq.com
  </desc>
  <path d="m23.3 20.69 -2.11 -6.83a1.34 1.34 0 0 0 -0.34 -0.56 2.62 2.62 0 0 0 0.65 -1.72V2.92A2.68 2.68 0 0 0 18.83 0.25H5.16A2.67 2.67 0 0 0 2.5 2.92v8.66a2.66 2.66 0 0 0 0.64 1.72 1.46 1.46 0 0 0 -0.34 0.56L0.73 20.61a2.17 2.17 0 0 0 1.94 3.14h18.66a2.15 2.15 0 0 0 1.84 -1 2.11 2.11 0 0 0 0.13 -2.06Zm-7.8 0.46a0.49 0.49 0 0 1 -0.4 0.21H8.9a0.51 0.51 0 0 1 -0.41 -0.21 0.52 0.52 0 0 1 -0.07 -0.45L9 18.9a0.5 0.5 0 0 1 0.48 -0.35h5a0.5 0.5 0 0 1 0.47 0.35l0.6 1.8a0.49 0.49 0 0 1 -0.05 0.45ZM4.5 2.92a0.67 0.67 0 0 1 0.66 -0.67h13.67a0.67 0.67 0 0 1 0.67 0.67v8.66a0.67 0.67 0 0 1 -0.67 0.67H5.16a0.67 0.67 0 0 1 -0.66 -0.67Z" fill="#000000" stroke-width="1"></path>
</svg>