<svg xmlns="http://www.w3.org/2000/svg" viewBox="0 0 24 24" id="Laptop-Clock--Streamline-Ultimate">
  <desc>
    Laptop Clock Streamline Icon: https://streamlinehq.com
  </desc>
  <g id="Laptop-Clock--Streamline-Ultimate.svg">
    <path d="M9.59 15.24a2.4 2.4 0 0 1 -1.54 -1.39 0.49 0.49 0 0 0 -0.47 -0.36H0.5a0.48 0.48 0 0 0 -0.41 0.22 0.47 0.47 0 0 0 0 0.47 5.43 5.43 0 0 0 5 3.31h4.16a0.25 0.25 0 0 0 0.25 -0.24 8.11 8.11 0 0 1 0.25 -1.72 0.25 0.25 0 0 0 -0.16 -0.29Z" fill="#000000" stroke-width="1"></path>
    <path d="M3.5 12a1 1 0 0 0 1 -1V3a1 1 0 0 1 1 -1h12a1 1 0 0 1 1 1v6.34a0.25 0.25 0 0 0 0.21 0.25 8 8 0 0 1 1.46 0.37 0.22 0.22 0 0 0 0.22 0 0.24 0.24 0 0 0 0.11 -0.2V3a3 3 0 0 0 -3 -3h-12a3 3 0 0 0 -3 3v8a1 1 0 0 0 1 1Z" fill="#000000" stroke-width="1"></path>
    <path d="M17.5 11a6.5 6.5 0 1 0 6.5 6.5 6.51 6.51 0 0 0 -6.5 -6.5Zm0 11a4.5 4.5 0 1 1 4.5 -4.5 4.51 4.51 0 0 1 -4.5 4.5Z" fill="#000000" stroke-width="1"></path>
    <path d="M19.5 16.75h-1a0.25 0.25 0 0 1 -0.25 -0.25v-2a0.75 0.75 0 0 0 -1.5 0v3a0.76 0.76 0 0 0 0.75 0.75h2a0.75 0.75 0 0 0 0 -1.5Z" fill="#000000" stroke-width="1"></path>
  </g>
</svg>