<svg xmlns="http://www.w3.org/2000/svg" fill="none" viewBox="0 0 24 24" id="Power-Plug-Disconnected--Streamline-Ultimate">
  <desc>
    Power Plug Disconnected Streamline Icon: https://streamlinehq.com
  </desc>
  <path fill="#000000" fill-rule="evenodd" d="M0.704881 0.517808c0.390519 -0.390525 1.023689 -0.390525 1.414209 0L6.80534 5.20406c0.07157 -0.077 0.14483 -0.153 0.21978 -0.22795l2.72855 -2.72855c0.29293 -0.29289 0.76773 -0.29289 1.06063 0l2.0598 2.05976 3.2243 -3.22429c0.5858 -0.585785 1.5355 -0.585785 2.1213 0 0.5858 0.58579 0.5858 1.53554 0 2.12132l-3.2243 3.2243 2.576 2.576 3.2242 -3.22423c0.5858 -0.58579 1.5356 -0.58579 2.1214 0 0.5858 0.58579 0.5858 1.53553 0 2.12132L19.6927 11.126l2.0986 2.0986c0.2929 0.2928 0.2929 0.7677 0 1.0606l-2.7285 2.7286c-0.075 0.0749 -0.151 0.1482 -0.228 0.2197l4.6474 4.6474c0.3905 0.3905 0.3905 1.0237 0 1.4142 -0.3905 0.3905 -1.0237 0.3905 -1.4142 0l-2.8588 -2.8587c-0.0198 -0.0259 -0.0416 -0.0507 -0.0652 -0.0744L2.10913 3.32715c-0.02368 -0.02367 -0.04854 -0.04543 -0.0744 -0.06528L0.704881 1.93202C0.314356 1.5415 0.314356 0.908332 0.704881 0.517808ZM4.96613 8.30548c-0.82908 2.49662 -0.47056 5.30122 1.07556 7.53162L0.664315 21.2144c-0.585786 0.5858 -0.5857861 1.5356 0 2.1213 0.585785 0.5858 1.535535 0.5858 2.121325 0l5.37047 -5.3704c2.23769 1.573 5.06359 1.9422 7.57729 1.1075L4.96613 8.30548Z" clip-rule="evenodd" stroke-width="1"></path>
</svg>