<svg xmlns="http://www.w3.org/2000/svg" fill="none" viewBox="0 0 24 24" id="Remote-Access--Streamline-Ultimate">
  <desc>
    Remote Access Streamline Icon: https://streamlinehq.com
  </desc>
  <path fill="#000000" fill-rule="evenodd" d="M5.35188 2.28526C5.66556 1.81265 6.1821 1.45 6.87279 1.45H17.1272c0.3022 0 0.5987 0.09613 0.8422 0.22781 0.247 0.13361 0.4982 0.33543 0.6787 0.60745 0.0087 0.01304 0.0169 0.02636 0.0248 0.03992l1.8606 3.22483H9.24999c-0.69093 0 -1.2088 0.36111 -1.52404 0.83397 -0.00703 0.01055 -0.0138 0.02128 -0.02029 0.03218L5.23563 10.5623 2.82687 6.65857l2.50028 -4.33339c0.00782 -0.01356 0.01607 -0.02688 0.02473 -0.03992ZM1.97515 8.13473 0.259667 11.1079c-0.3462227 0.5409 -0.3462227 1.2433 0 1.7842l5.067483 8.7827c0.00782 0.0136 0.01607 0.0269 0.02473 0.04 0.31368 0.4726 0.83022 0.8352 1.52091 0.8352h4.70991l2.4476 -4.1H9.24999c-0.69093 0 -1.2088 -0.3611 -1.52404 -0.834 -0.00703 -0.0105 -0.0138 -0.0212 -0.02029 -0.0321l-2.797 -4.695 -2.93351 -4.75417ZM13.3296 22.55h3.7976c0.6907 0 1.2072 -0.3626 1.5209 -0.8352 0.0087 -0.0131 0.0169 -0.0264 0.0248 -0.04l5.0674 -8.7827c0.3463 -0.5409 0.3463 -1.2433 0 -1.7842L21.399 7.05001h-4.7271l2.4142 4.05229c0.3519 0.5435 0.3519 1.2519 0 1.7954l-2.7918 4.6862 -0.0003 0.0005 -2.9644 4.9656ZM6.18826 12.1062l-0.0711 -0.1153c0.02833 -0.0328 0.0542 -0.0685 0.07716 -0.107l2.78841 -4.6806c0.04378 -0.06237 0.08582 -0.09792 0.12016 -0.11796 0.03323 -0.01938 0.07747 -0.03533 0.1471 -0.03533h5.69271c0.0163 0.04574 0.0372 0.09057 0.063 0.13385l2.8 4.70004c0.0065 0.0109 0.0132 0.0216 0.0203 0.0321 0.032 0.0481 0.032 0.1199 0 0.168 -0.0071 0.0105 -0.0138 0.0213 -0.0203 0.0322l-2.7997 4.6994 -0.0003 0.0006 -0.0908 0.152c-0.0531 -0.0119 -0.1083 -0.0182 -0.1649 -0.0182H9.24999c-0.06963 0 -0.11387 -0.0159 -0.1471 -0.0353 -0.03434 -0.0201 -0.07638 -0.0556 -0.12016 -0.118l-2.78841 -4.6805 0.00008 -0.0001 -0.00614 -0.0099ZM10.025 12c0 -1.1184 0.9066 -2.02499 2.025 -2.02499 1.1184 0 2.025 0.90659 2.025 2.02499 0 1.1184 -0.9066 2.025 -2.025 2.025 -1.1184 0 -2.025 -0.9066 -2.025 -2.025Z" clip-rule="evenodd" stroke-width="1"></path>
</svg>