<svg xmlns="http://www.w3.org/2000/svg" viewBox="0 0 24 24" id="Screen--Streamline-Ultimate">
  <desc>
    Screen Streamline Icon: https://streamlinehq.com
  </desc>
  <g id="Screen--Streamline-Ultimate.svg">
    <path d="M22.5 0h-21A1.5 1.5 0 0 0 0 1.5v12.25a0.25 0.25 0 0 0 0.25 0.25h23.5a0.25 0.25 0 0 0 0.25 -0.25V1.5A1.5 1.5 0 0 0 22.5 0Z" fill="#000000" stroke-width="1"></path>
    <path d="M23.75 15.5H0.25a0.25 0.25 0 0 0 -0.25 0.25V17a1.5 1.5 0 0 0 1.5 1.5h8.25a0.25 0.25 0 0 1 0.25 0.25v2.18a0.24 0.24 0 0 1 -0.22 0.25 14.64 14.64 0 0 0 -3.66 0.89A1 1 0 0 0 6.49 24h11a1 1 0 0 0 0.38 -1.93 14.64 14.64 0 0 0 -3.66 -0.89 0.24 0.24 0 0 1 -0.22 -0.24v-2.19a0.25 0.25 0 0 1 0.25 -0.25h8.26A1.5 1.5 0 0 0 24 17v-1.25a0.25 0.25 0 0 0 -0.25 -0.25Z" fill="#000000" stroke-width="1"></path>
  </g>
</svg>