<svg xmlns="http://www.w3.org/2000/svg" viewBox="0 0 24 24" id="Sd-Card-Download--Streamline-Ultimate">
  <desc>
    Sd Card Download Streamline Icon: https://streamlinehq.com
  </desc>
  <g id="Sd-Card-Download--Streamline-Ultimate.svg">
    <path d="M9.5 17.5a8 8 0 0 1 6.3 -7.81 0.26 0.26 0 0 0 0.2 -0.25V4.91a1.52 1.52 0 0 0 -0.44 -1.06L12.15 0.44A1.52 1.52 0 0 0 11.09 0H1.5A1.5 1.5 0 0 0 0 1.5V9a0.5 0.5 0 0 0 0.5 0.5h0.75a0.25 0.25 0 0 1 0.25 0.25v2a0.25 0.25 0 0 1 -0.25 0.25H0.5a0.5 0.5 0 0 0 -0.5 0.5V20a1.5 1.5 0 0 0 1.5 1.5h8.66a0.22 0.22 0 0 0 0.21 -0.12 0.23 0.23 0 0 0 0 -0.24 8 8 0 0 1 -0.87 -3.64Zm-1.25 -14v4a0.75 0.75 0 0 1 -1.5 0v-4a0.75 0.75 0 0 1 1.5 0Zm-3.5 0v4a0.75 0.75 0 0 1 -1.5 0v-4a0.75 0.75 0 0 1 1.5 0Zm7 4a0.75 0.75 0 0 1 -1.5 0v-4a0.75 0.75 0 0 1 1.5 0Z" fill="#000000" stroke-width="1"></path>
    <path d="M17.5 24a6.5 6.5 0 1 0 -6.5 -6.5 6.51 6.51 0 0 0 6.5 6.5Zm-2.45 -6.22a0.5 0.5 0 0 1 0.45 -0.28h1a0.25 0.25 0 0 0 0.25 -0.25V14.5a0.75 0.75 0 0 1 1.5 0v2.75a0.25 0.25 0 0 0 0.25 0.25h1a0.5 0.5 0 0 1 0.45 0.28 0.51 0.51 0 0 1 -0.06 0.53l-2 2.5a0.51 0.51 0 0 1 -0.78 0l-2 -2.5a0.51 0.51 0 0 1 -0.06 -0.53Z" fill="#000000" stroke-width="1"></path>
  </g>
</svg>