<svg xmlns="http://www.w3.org/2000/svg" viewBox="0 0 24 24" id="Smart-Watch-Square-Location--Streamline-Ultimate">
  <desc>
    Smart Watch Square Location Streamline Icon: https://streamlinehq.com
  </desc>
  <g id="Smart-Watch-Square-Location--Streamline-Ultimate.svg">
    <path d="M16.43 2.75a0.25 0.25 0 0 0 0.2 -0.1 0.27 0.27 0 0 0 0 -0.23L16 0.34a0.5 0.5 0 0 0 -0.5 -0.34h-7a0.5 0.5 0 0 0 -0.5 0.34l-0.7 2.08a0.27 0.27 0 0 0 0 0.23 0.25 0.25 0 0 0 0.2 0.1Z" fill="#000000" stroke-width="1"></path>
    <path d="M7.57 21.25a0.25 0.25 0 0 0 -0.2 0.1 0.27 0.27 0 0 0 0 0.23L8 23.66a0.5 0.5 0 0 0 0.5 0.34h7a0.5 0.5 0 0 0 0.47 -0.34l0.7 -2.08a0.27 0.27 0 0 0 0 -0.23 0.25 0.25 0 0 0 -0.2 -0.1Z" fill="#000000" stroke-width="1"></path>
    <path d="M17.5 4h-11A2.5 2.5 0 0 0 4 6.5v11A2.51 2.51 0 0 0 6.5 20h11a2.5 2.5 0 0 0 2.5 -2.5v-11A2.5 2.5 0 0 0 17.5 4Zm-2 7c0 1.32 -1.48 3.49 -2.71 5.07a1 1 0 0 1 -0.79 0.38 1 1 0 0 1 -0.79 -0.38C10 14.48 8.5 12.32 8.5 11a3.5 3.5 0 0 1 7 0Z" fill="#000000" stroke-width="1"></path>
    <path d="M11 11a1 1 0 1 0 2 0 1 1 0 1 0 -2 0" fill="#000000" stroke-width="1"></path>
  </g>
</svg>