<svg xmlns="http://www.w3.org/2000/svg" viewBox="0 0 24 24" id="Tablet--Streamline-Ultimate">
  <desc>
    Tablet Streamline Icon: https://streamlinehq.com
  </desc>
  <g id="Tablet--Streamline-Ultimate.svg">
    <path d="M19 0H5a2.5 2.5 0 0 0 -2.5 2.5v19A2.5 2.5 0 0 0 5 24h14a2.5 2.5 0 0 0 2.5 -2.5v-19A2.5 2.5 0 0 0 19 0ZM5 4.5a1 1 0 0 1 1 -1h12a1 1 0 0 1 1 1v14a1 1 0 0 1 -1 1H6a1 1 0 0 1 -1 -1Z" fill="#000000" stroke-width="1"></path>
    <path d="M7.5 6.25h1s0.75 0 0.75 0.75v1s0 0.75 -0.75 0.75h-1s-0.75 0 -0.75 -0.75V7s0 -0.75 0.75 -0.75" fill="#000000" stroke-width="1"></path>
    <path d="M11.5 6.25h1s0.75 0 0.75 0.75v1s0 0.75 -0.75 0.75h-1s-0.75 0 -0.75 -0.75V7s0 -0.75 0.75 -0.75" fill="#000000" stroke-width="1"></path>
    <path d="M15.5 6.25h1s0.75 0 0.75 0.75v1s0 0.75 -0.75 0.75h-1s-0.75 0 -0.75 -0.75V7s0 -0.75 0.75 -0.75" fill="#000000" stroke-width="1"></path>
    <path d="M7.5 10.25h1s0.75 0 0.75 0.75v1s0 0.75 -0.75 0.75h-1s-0.75 0 -0.75 -0.75v-1s0 -0.75 0.75 -0.75" fill="#000000" stroke-width="1"></path>
    <path d="M11.5 10.25h1s0.75 0 0.75 0.75v1s0 0.75 -0.75 0.75h-1s-0.75 0 -0.75 -0.75v-1s0 -0.75 0.75 -0.75" fill="#000000" stroke-width="1"></path>
    <path d="M7.5 14.25h1s0.75 0 0.75 0.75v1s0 0.75 -0.75 0.75h-1s-0.75 0 -0.75 -0.75v-1s0 -0.75 0.75 -0.75" fill="#000000" stroke-width="1"></path>
    <path d="M11.5 14.25h1s0.75 0 0.75 0.75v1s0 0.75 -0.75 0.75h-1s-0.75 0 -0.75 -0.75v-1s0 -0.75 0.75 -0.75" fill="#000000" stroke-width="1"></path>
    <path d="M15.5 10.25h1s0.75 0 0.75 0.75v1s0 0.75 -0.75 0.75h-1s-0.75 0 -0.75 -0.75v-1s0 -0.75 0.75 -0.75" fill="#000000" stroke-width="1"></path>
  </g>
</svg>