<svg xmlns="http://www.w3.org/2000/svg" fill="none" viewBox="0 0 40 40" id="Book-Library--Streamline-Stickies">
  <desc>
    Book Library Streamline Icon: https://streamlinehq.com
  </desc>
  <path fill="#00034a" stroke="#00034a" stroke-miterlimit="10" d="M6.843 1.59699c-2.157 0 -4.752 0.195 -5.24 1.551C0.627 4.55299 0.5 13.911 0.5 19.356c0 5.445 0.127 14.803 1.103 16.208 0.904 2.604 3.692 2.84 6.098 2.84 2.157 0 4.752 -0.147 5.24 -1.552 0.976 -1.405 1.103 -10.734 1.103 -16.208 0 -5.475 -0.127 -14.80301 -1.103 -16.20801 -0.927 -2.578 -3.688 -2.84 -6.098 -2.84v0.001Z" stroke-width="1"></path>
  <path fill="#00034a" stroke="#00034a" stroke-miterlimit="10" d="M24.07 2.348c-1.032 -0.64 -2.912 -0.751 -4.542 -0.751 -2.156 0 -4.752 0.195 -5.24 1.551 -0.976 1.405 -1.103 10.734 -1.103 16.208 0 5.474 0.127 14.803 1.103 16.208 0.218 0.628 1.034 1.792 1.588 2.128 1.038 0.63 2.897 0.711 4.51 0.711 2.157 0 4.753 -0.146 5.24 -1.551 0.976 -1.405 1.103 -10.734 1.103 -16.208 0 -5.475 -0.127 -14.803 -1.102 -16.208 -0.238 -0.661 -0.945 -1.71 -1.557 -2.088Z" stroke-width="1"></path>
  <path fill="#00034a" stroke="#00034a" stroke-miterlimit="10" d="M36.731 2.333c-1.037 -0.627 -2.9 -0.736 -4.517 -0.736 -2.157 0 -4.752 0.195 -5.24 1.551 -0.976 1.405 -1.103 10.734 -1.103 16.208 0 5.474 0.127 14.803 1.103 16.208 0.215 0.62 1.024 1.78 1.568 2.116 1.035 0.64 2.907 0.723 4.53 0.723 2.157 0 4.752 -0.146 5.24 -1.551 0.976 -1.405 1.103 -10.734 1.103 -16.208 0 -5.475 -0.127 -14.803 -1.103 -16.208 -0.24 -0.67 -0.958 -1.727 -1.581 -2.103Z" stroke-width="1"></path>
  <path fill="#9bff00" stroke="#00034a" stroke-miterlimit="10" d="M12.083 35.564c0.976 -1.405 1.102 -10.733 1.102 -16.208 0 -5.474 -0.126 -14.803 -1.102 -16.208 -0.488 -1.356 -3.084 -1.551 -5.24 -1.551 -2.157 0 -4.752 0.195 -5.24 1.551C0.627 4.553 0.5 13.911 0.5 19.356c0 5.445 0.127 14.803 1.103 16.208 0.488 1.406 3.083 1.552 5.24 1.552 2.156 0 4.752 -0.146 5.24 -1.552Z" stroke-width="1"></path>
  <path fill="#ffffff" stroke="#00034a" stroke-miterlimit="10" d="M3.36899 29.173c0.302 0.293 2.313 0.332 3.474 0.332s3.17101 0 3.47401 -0.332c0.302 -0.146 0.331 -0.927 0.331 -1.571 0 -0.644 0 -1.425 -0.331 -1.571 -0.303 -0.293 -2.30301 -0.332 -3.47401 -0.332 -1.171 0 -3.172 0 -3.474 0.332 -0.303 0.146 -0.332 0.927 -0.332 1.57 0 0.645 0.03 1.425 0.332 1.572Z" stroke-width="1"></path>
  <path stroke="#00034a" stroke-linecap="round" stroke-miterlimit="10" d="M10.648 9.40299c-2.53033 -0.25361 -5.07968 -0.25361 -7.61001 0" stroke-width="1"></path>
  <path stroke="#00034a" stroke-linecap="round" stroke-miterlimit="10" d="M10.648 11.94c-2.52984 -0.2633 -5.08017 -0.2633 -7.61001 0" stroke-width="1"></path>
  <path fill="#9bff00" stroke="#00034a" stroke-miterlimit="10" d="M24.768 35.564c0.976 -1.405 1.103 -10.733 1.103 -16.208 0 -5.474 -0.127 -14.803 -1.103 -16.208 -0.488 -1.356 -3.083 -1.551 -5.24 -1.551 -2.156 0 -4.752 0.195 -5.24 1.551 -0.976 1.405 -1.103 10.734 -1.103 16.208 0 5.474 0.127 14.803 1.103 16.208 0.488 1.406 3.084 1.552 5.24 1.552 2.157 0 4.752 -0.146 5.24 -1.552Z" stroke-width="1"></path>
  <path fill="#ffffff" stroke="#00034a" stroke-miterlimit="10" d="M16.054 29.173c0.303 0.293 2.313 0.332 3.474 0.332 1.162 0 3.172 0 3.474 -0.332 0.303 -0.146 0.332 -0.927 0.332 -1.571 0 -0.644 0 -1.425 -0.332 -1.571 -0.302 -0.293 -2.303 -0.332 -3.474 -0.332 -1.17 0 -3.171 0 -3.474 0.332 -0.302 0.146 -0.331 0.927 -0.331 1.57 0 0.645 0.029 1.425 0.331 1.572Z" stroke-width="1"></path>
  <path stroke="#00034a" stroke-linecap="round" stroke-miterlimit="10" d="M23.334 9.403c-2.5307 -0.25368 -5.0803 -0.25368 -7.611 0" stroke-width="1"></path>
  <path stroke="#00034a" stroke-linecap="round" stroke-miterlimit="10" d="M23.334 11.94c-2.5302 -0.2634 -5.0808 -0.2634 -7.611 0" stroke-width="1"></path>
  <path fill="#9bff00" stroke="#00034a" stroke-miterlimit="10" d="M37.454 35.564c0.976 -1.405 1.102 -10.733 1.102 -16.208 0 -5.474 -0.126 -14.803 -1.102 -16.208 -0.488 -1.356 -3.084 -1.551 -5.24 -1.551 -2.157 0 -4.752 0.195 -5.24 1.551 -0.976 1.405 -1.103 10.734 -1.103 16.208 0 5.474 0.127 14.803 1.103 16.208 0.488 1.406 3.083 1.552 5.24 1.552 2.156 0 4.752 -0.146 5.24 -1.552Z" stroke-width="1"></path>
  <path fill="#ffffff" stroke="#00034a" stroke-miterlimit="10" d="M28.74 29.173c0.302 0.293 2.313 0.332 3.474 0.332 1.16 0 3.171 0 3.474 -0.332 0.302 -0.146 0.331 -0.927 0.331 -1.571 0 -0.644 0 -1.425 -0.331 -1.571 -0.303 -0.293 -2.303 -0.332 -3.474 -0.332 -1.171 0 -3.172 0 -3.474 0.332 -0.303 0.146 -0.332 0.927 -0.332 1.57 0 0.645 0.03 1.425 0.332 1.572Z" stroke-width="1"></path>
  <path stroke="#00034a" stroke-linecap="round" stroke-miterlimit="10" d="M36.02 9.403c-2.531 -0.25374 -5.081 -0.25374 -7.612 0" stroke-width="1"></path>
  <path stroke="#00034a" stroke-linecap="round" stroke-miterlimit="10" d="M36.02 11.94c-2.5305 -0.2634 -5.0815 -0.2634 -7.612 0" stroke-width="1"></path>
</svg>