<svg xmlns="http://www.w3.org/2000/svg" fill="none" viewBox="0 0 14 14"><g id="no-poverty"><path id="Union" fill="#37d7ff" fill-rule="evenodd" d="M3.164 4.462a1.715 1.715 0 1 0 0-3.431 1.715 1.715 0 0 0 0 3.43Zm7.672 0a1.715 1.715 0 1 0 0-3.431 1.715 1.715 0 0 0 0 3.43Zm0 .357a3.06 3.06 0 0 0-1.898.656 2.959 2.959 0 0 1 .95 2.917h3.521a.5.5 0 0 0 .5-.5 3.073 3.073 0 0 0-3.073-3.073Zm-7.672 0a3.06 3.06 0 0 1 1.898.656 2.959 2.959 0 0 0-.95 2.917H.59a.5.5 0 0 1-.5-.5A3.073 3.073 0 0 1 3.164 4.82ZM7 9.435a1.715 1.715 0 1 0 0-3.43 1.715 1.715 0 0 0 0 3.43Zm-3.073 3.43a3.073 3.073 0 0 1 6.146 0 .5.5 0 0 1-.5.5H4.427a.5.5 0 0 1-.5-.5Z" clip-rule="evenodd"></path></g></svg>