<svg xmlns="http://www.w3.org/2000/svg" fill="none" viewBox="0 0 14 14"><g id="zero-hunger"><path id="Union" fill="#37d7ff" fill-rule="evenodd" d="M.996 7.04a.5.5 0 0 0-.5.5c0 2.295 1.406 4.263 3.431 5.26v.663a.5.5 0 0 0 .5.5h5.146v-.5.5a.5.5 0 0 0 .5-.5V12.8c2.024-.998 3.43-2.966 3.43-5.261a.5.5 0 0 0-.5-.5H.997Z" clip-rule="evenodd"></path><path id="Union_2" fill="#3e3e3e" fill-rule="evenodd" d="M3.534 1.287A.75.75 0 1 0 2.303.43a1.862 1.862 0 0 0-.292 1.511c.09.408.29.793.439 1.076l.018.035c.172.33.279.545.32.735.032.143.018.229-.056.335a.75.75 0 1 0 1.23.858c.355-.51.395-1.04.292-1.512-.089-.408-.29-.793-.438-1.076l-.019-.035c-.172-.33-.279-.545-.32-.735-.031-.143-.017-.229.057-.335ZM7.2.243a.75.75 0 0 1 .186 1.044c-.074.106-.087.192-.056.335.041.19.148.405.32.735l.018.035c.148.283.35.668.439 1.076a1.862 1.862 0 0 1-.292 1.512.75.75 0 0 1-1.23-.858c.074-.106.087-.192.056-.335-.041-.19-.148-.405-.32-.735l-.018-.035c-.148-.283-.35-.668-.439-1.076A1.862 1.862 0 0 1 6.156.43.75.75 0 0 1 7.2.243Zm3.866 0a.75.75 0 0 1 .187 1.044c-.074.106-.088.192-.057.335.041.19.148.405.32.735l.019.035c.148.283.35.668.438 1.076a1.862 1.862 0 0 1-.292 1.512.75.75 0 0 1-1.23-.858c.074-.106.088-.192.056-.335-.041-.19-.148-.405-.32-.735l-.018-.035c-.148-.283-.35-.668-.439-1.076A1.862 1.862 0 0 1 10.022.43a.75.75 0 0 1 1.044-.187Z" clip-rule="evenodd"></path></g></svg>