<svg xmlns="http://www.w3.org/2000/svg" fill="none" viewBox="0 0 14 14" id="Contact-Phonebook-2--Streamline-Flex-Neon">
  <desc>
    Contact Phonebook 2 Streamline Icon: https://streamlinehq.com
  </desc>
  <g id="contact-phonebook-2">
    <path id="Subtract" stroke="#000cfe" stroke-linecap="round" stroke-linejoin="round" d="M12.0606 10.2847c-0.6182 0.2408 -1.0916 0.7137 -1.0916 1.4736s0.4735 1.2328 1.0917 1.4736" stroke-width="1"></path>
    <path id="Intersect" stroke="#000cfe" stroke-linejoin="round" d="M6.20967 2.65876c-0.35368 -0.29921 -0.87934 -0.25406 -1.14894 0.12268 -0.06369 0.08901 -0.14143 0.1963 -0.26563 0.35166 -0.48086 0.60151 -0.48086 1.47247 0.00266 2.07185 0.35694 0.44247 0.73119 0.88894 1.14956 1.30731 0.41836 0.41836 0.86483 0.79261 1.3073 1.14955 0.59938 0.48352 1.47035 0.48352 2.07186 0.00266 0.16722 -0.13368 0.27805 -0.21283 0.37039 -0.27861 0.36433 -0.25959 0.41723 -0.76688 0.13093 -1.11064 -0.15774 -0.18942 -0.32784 -0.37255 -0.49743 -0.55176 -0.26867 -0.28391 -0.72376 -0.30467 -1.01674 -0.04592 -0.07878 0.06957 -0.16673 0.14892 -0.28439 0.25923 -0.68805 -0.40884 -1.10504 -0.83093 -1.50644 -1.50643 0.11147 -0.1189 0.19142 -0.20755 0.26161 -0.28706 0.25841 -0.29268 0.23738 -0.74626 -0.04836 -1.01232 -0.17207 -0.16023 -0.34693 -0.32038 -0.52638 -0.4722Z" stroke-width="1"></path>
    <path id="Subtract_2" stroke="#c71dff" stroke-linecap="round" stroke-linejoin="round" d="M12.0606 10.2843c-0.2185 -0.1148 -0.4761 -0.1846 -0.7464 -0.1947 -2.63933 -0.09799 -5.24691 -0.098 -7.88629 0 -0.95962 0.0357 -1.4948 0.7671 -1.4948 1.6684 0 0.9012 0.53518 1.6327 1.4948 1.6683 2.63938 0.098 5.24696 0.098 7.88629 0 0.2703 -0.01 0.5279 -0.0798 0.7465 -0.1947" stroke-width="1"></path>
    <path id="Subtract_3" stroke="#c71dff" stroke-linecap="round" stroke-linejoin="round" d="M1.93502 11.6691c0.03413 -0.8601 0.56519 -1.545 1.49306 -1.5795 2.63938 -0.09802 5.24695 -0.09802 7.88632 0 0.2682 0.01 0.5239 0.0788 0.7413 0.1921 0.2151 -2.54561 0.1435 -5.03816 -0.0848 -7.58142C11.8805 1.693 11.0973 0.870855 10.0962 0.726829c-2.10204 -0.302439 -4.08184 -0.302439 -6.18391 0 -1.00103 0.144025 -1.7843 0.966171 -1.8747 1.973451 -0.26909 2.9983 -0.28229 5.96358 -0.10257 8.96882Z" stroke-width="1"></path>
  </g>
</svg>