<svg xmlns="http://www.w3.org/2000/svg" fill="none" viewBox="0 0 14 14" id="Phone-Notification--Streamline-Flex-Neon">
  <desc>
    Phone Notification Streamline Icon: https://streamlinehq.com
  </desc>
  <g id="phone-notification--android-phone-mobile-device-smartphone-iphone-bell-notification">
    <path id="Intersect" stroke="#c71dff" stroke-linecap="round" stroke-linejoin="round" d="M6.71857 0.535003C5.40766 0.47301 4.13829 0.493363 2.8001 0.596062 1.65082 0.684263 0.760638 1.68456 0.663671 2.90636c-0.218228 2.7497 -0.218228 5.43758 0 8.18724 0.096967 1.2218 0.987149 2.2221 2.136439 2.3103 1.66894 0.1281 3.23084 0.1281 4.89978 0 1.14929 -0.0882 2.03947 -1.0885 2.13644 -2.3103 0.08364 -1.0538 0.13522 -2.09858 0.15475 -3.14123" stroke-width="1"></path>
    <path id="Vector 122" stroke="#000cfe" stroke-linecap="round" stroke-linejoin="round" d="M4.34863 10.9751h1.80333" stroke-width="1"></path>
    <path id="Vector" stroke="#000cfe" stroke-linecap="round" stroke-linejoin="round" d="M9.03054 1.10867C9.42026 0.718946 9.94884 0.5 10.5 0.5c0.5512 0 1.0797 0.218946 1.4695 0.60867 0.3897 0.38973 0.6086 0.91831 0.6086 1.46947 0 0.88024 0.3092 1.73253 0.8735 2.40808l0.0484 0.05792h-6l0.04839 -0.05792c0.56433 -0.67555 0.87348 -1.52784 0.87348 -2.40808 0 -0.55116 0.21894 -1.07974 0.60867 -1.46947Z" stroke-width="1"></path>
    <path id="Vector 169" stroke="#000cfe" stroke-linecap="round" stroke-linejoin="round" d="m10.3999 5.04419 0 0.95013" stroke-width="1"></path>
  </g>
</svg>