<svg xmlns="http://www.w3.org/2000/svg" fill="none" viewBox="0 0 14 14" id="Phone-Qr--Streamline-Flex-Neon">
  <desc>
    Phone Qr Streamline Icon: https://streamlinehq.com
  </desc>
  <g id="phone-qr--android-phone-mobile-device-smartphone-iphone-qr-code-scan">
    <path id="Intersect" stroke="#c71dff" stroke-linecap="round" stroke-linejoin="round" d="M6 0.509183C4.9392 0.48326 3.89259 0.51222 2.8001 0.596062 1.65082 0.684263 0.760638 1.68456 0.663671 2.90636c-0.218228 2.7497 -0.218228 5.43758 0 8.18724 0.096967 1.2218 0.987149 2.2221 2.136439 2.3103 1.66894 0.1281 3.23084 0.1281 4.89978 0 1.14929 -0.0882 2.03947 -1.0885 2.13644 -2.3103 0.06821 -0.8594 0.12247 -2.03932 0.14805 -2.89048" stroke-width="1"></path>
    <path id="Vector 122" stroke="#000cfe" stroke-linecap="round" stroke-linejoin="round" d="M4.34863 10.9751h1.80333" stroke-width="1"></path>
    <path id="Intersect_2" stroke="#000cfe" stroke-linecap="round" stroke-linejoin="round" d="M11.8315 5.89111c0.5045 0 0.9916 -0.08271 1.451 -0.12421 0.0336 -0.36955 0.0909 -0.75708 0.1118 -1.15716" stroke-width="1"></path>
    <path id="Intersect_3" stroke="#000cfe" stroke-linecap="round" stroke-linejoin="round" d="M9.66968 0.605469c-0.50446 0 -0.99157 0.08271 -1.45099 0.124208 -0.03359 0.369563 -0.09089 0.757083 -0.11176 1.157163" stroke-width="1"></path>
    <path id="Intersect_4" stroke="#000cfe" stroke-linecap="round" stroke-linejoin="round" d="M13.3936 2.16724c0 -0.50446 -0.0828 -0.99157 -0.1243 -1.450993 -0.3695 -0.033591 -0.757 -0.090883 -1.1571 -0.111755" stroke-width="1"></path>
    <path id="Intersect_5" stroke="#000cfe" stroke-linecap="round" stroke-linejoin="round" d="M8.10791 4.3291c0 0.50446 0.08271 0.99157 0.12421 1.45099 0.36956 0.03359 0.75708 0.09088 1.15717 0.11176" stroke-width="1"></path>
    <path id="Intersect_6" stroke="#000cfe" stroke-linecap="round" stroke-linejoin="round" d="M11.3193 3.06657c-0.2851 0.23757 -0.5996 0.47108 -0.8973 0.73922" stroke-width="1"></path>
  </g>
</svg>