<svg xmlns="http://www.w3.org/2000/svg" fill="none" viewBox="0 0 24 24" id="Instagram-Logo-2--Streamline-Logos">
  <desc>
    Instagram Logo 2 Streamline Icon: https://streamlinehq.com
  </desc>
  <path stroke="#000000" stroke-linejoin="round" d="M18 6.5a0.5 0.5 0 0 1 0 -1" stroke-width="1"></path>
  <path stroke="#000000" stroke-linejoin="round" d="M18 6.5a0.5 0.5 0 0 0 0 -1" stroke-width="1"></path>
  <path stroke="#000000" stroke-linejoin="round" d="M7 12a5 5 0 1 0 10 0 5 5 0 1 0 -10 0" stroke-width="1"></path>
  <path stroke="#000000" d="M16.5 1.5h-9a6 6 0 0 0 -6 6v9a6 6 0 0 0 6 6h9a6 6 0 0 0 6 -6v-9a6 6 0 0 0 -6 -6Z" stroke-width="1"></path>
</svg>