<svg xmlns="http://www.w3.org/2000/svg" fill="none" viewBox="0 0 14 14" id="Rss-Symbol--Streamline-Core-Neon">
  <desc>
    Rss Symbol Streamline Icon: https://streamlinehq.com
  </desc>
  <g id="rss-symbol--wireless-feed-rss-transmit-broadcast">
    <path id="Vector" stroke="#000cfe" stroke-linecap="round" stroke-linejoin="round" d="M2.41607 13c0.77938 0 1.41119 -0.6316 1.41119 -1.4107 0 -0.779 -0.63181 -1.4106 -1.41119 -1.4106s-1.41119 0.6316 -1.41119 1.4106c0 0.7791 0.63181 1.4107 1.41119 1.4107Z" stroke-width="1"></path>
    <path id="Vector_2" stroke="#c71dff" stroke-linecap="round" stroke-linejoin="round" d="M13 11.8148c0 -1.4202 -0.2798 -2.82655 -0.8235 -4.13866 -0.5437 -1.31211 -1.3407 -2.50432 -2.34532 -3.50857 -1.00465 -1.00424 -2.19734 -1.80085 -3.50997 -2.34434C5.00857 1.27973 3.6017 1 2.18091 1" stroke-width="1"></path>
    <path id="Vector_3" stroke="#c71dff" stroke-linecap="round" stroke-linejoin="round" d="M2.40662 5.47668c0.80305 0 1.59824 0.15811 2.34016 0.46531 0.74193 0.30719 1.41606 0.75745 1.9839 1.32506 0.56785 0.56762 1.01829 1.24148 1.3256 1.9831 0.30732 0.74163 0.46549 1.53645 0.46549 2.33925" stroke-width="1"></path>
  </g>
</svg>