<svg xmlns="http://www.w3.org/2000/svg" fill="none" viewBox="0 0 14 14" id="Steps-Number--Streamline-Core-Neon">
  <desc>
    Steps Number Streamline Icon: https://streamlinehq.com
  </desc>
  <g id="steps-number--interface-number-internet-menu-progress">
    <path id="Vector" stroke="#c71dff" stroke-linecap="round" stroke-linejoin="round" d="M0.5 10.75h13" stroke-width="1"></path>
    <path id="Vector_2" stroke="#c71dff" stroke-linecap="round" stroke-linejoin="round" d="m10.75 13.5 2.75 -2.75L10.75 8" stroke-width="1"></path>
    <path id="Vector 2" stroke="#000cfe" stroke-linecap="round" stroke-linejoin="round" d="m2.20007 4.76698 0 -4.266972c0 0.589142 -0.4776 1.066732 -1.06674 1.066732l-0.355583 0" stroke-width="1"></path>
    <path id="Vector 1" stroke="#000cfe" stroke-linecap="round" stroke-linejoin="round" d="M3.62231 4.76697H0.777662" stroke-width="1"></path>
    <path id="Vector 3" stroke="#000cfe" stroke-linecap="round" stroke-linejoin="round" d="M8.42229 4.76698H5.57764v-0.60614c0 -0.42381 0.25089 -0.80743 0.63917 -0.9773l1.58289 -0.69252c0.3782 -0.16546 0.62259 -0.53913 0.62259 -0.95195C8.42229 0.965208 7.95708 0.5 7.38322 0.5h-0.73884c-0.46447 0 -0.8596 0.296842 -1.00604 0.71116" stroke-width="1"></path>
    <path id="Vector_3" stroke="#000cfe" stroke-linecap="round" stroke-linejoin="round" d="M12.1833 2.4557c0.5891 0 1.0667 0.4776 1.0667 1.06675l0 0.1778c0 0.58914 -0.4776 1.06674 -1.0667 1.06674l-0.7112 0c-0.4645 0 -0.8596 -0.29684 -1.006 -0.71117m0.1539 -2.84466c0.1161 -0.410422 0.4934 -0.711151 0.941 -0.711155L12.0944 0.5c0.5401 -0.000005 0.9779 0.437794 0.9779 0.97785 0 0.54005 -0.4378 0.97785 -0.9779 0.97785l-0.0889 0" stroke-width="1"></path>
  </g>
</svg>