<svg xmlns="http://www.w3.org/2000/svg" fill="none" viewBox="0 0 14 14" id="Threat-Browser-1--Streamline-Core-Neon">
  <desc>
    Threat Browser 1 Streamline Icon: https://streamlinehq.com
  </desc>
  <g id="threat-browser-1--bug-browser-file-threat-danger-internet">
    <path id="Rectangle 741" stroke="#c71dff" stroke-linecap="round" stroke-linejoin="round" d="M4.75527 11.5H1.50963c-0.551807 0 -0.999132 -0.4477 -0.999132 -1v-9c0 -0.552284 0.447325 -1 0.999132 -1h9.99127c0.5518 0 0.9991 0.447715 0.9991 1v5.25" stroke-width="1"></path>
    <path id="Vector" stroke="#000cfe" stroke-linecap="round" stroke-linejoin="round" d="M13.4253 12.61c0.049 0.0906 0.0747 0.192 0.0747 0.295 0 0.103 -0.0257 0.2044 -0.0747 0.295 -0.0461 0.0903 -0.1163 0.1661 -0.2027 0.2191 -0.0865 0.0529 -0.1859 0.0809 -0.2873 0.0809H7.06529c-0.10139 0 -0.20082 -0.028 -0.28729 -0.0809 -0.08647 -0.053 -0.15662 -0.1288 -0.20271 -0.2191 -0.04901 -0.0906 -0.07468 -0.192 -0.07468 -0.295 0 -0.103 0.02567 -0.2044 0.07468 -0.295l2.95 -5.31998c0.04053 -0.09935 0.10973 -0.18437 0.19878 -0.24423 0.08906 -0.05985 0.19392 -0.09181 0.30123 -0.09181 0.1073 0 0.2122 0.03196 0.3012 0.09181 0.0891 0.05986 0.1583 0.14488 0.1988 0.24423l2.9 5.31998Z" stroke-width="1"></path>
    <path id="Vector_2" stroke="#000cfe" stroke-linecap="round" stroke-linejoin="round" d="M10.0052 10.6414V9.64136" stroke-width="1"></path>
    <path id="Ellipse 81" stroke="#000cfe" stroke-linecap="round" stroke-linejoin="round" d="M10.0005 12.1252c-0.06913 0 -0.12513 -0.056 -0.12513 -0.1251s0.056 -0.1251 0.12513 -0.1251" stroke-width="1"></path>
    <path id="Ellipse 82" stroke="#000cfe" stroke-linecap="round" stroke-linejoin="round" d="M10.0002 12.125c0.0691 0 0.1251 -0.056 0.1251 -0.125 0 -0.0691 -0.056 -0.1251 -0.1251 -0.1251" stroke-width="1"></path>
    <path id="Vector_3" stroke="#000cfe" stroke-linecap="round" stroke-linejoin="round" d="M12.5 3.52539H0.5L0.510498 1.5c0 -0.552284 0.447325 -1 0.999132 -1h9.99127c0.5518 0 0.9991 0.447715 0.9991 1l0 2.02539Z" stroke-width="1"></path>
  </g>
</svg>