<svg xmlns="http://www.w3.org/2000/svg" fill="none" viewBox="0 0 24 24" id="Device-Database-Encryption-1--Streamline-Sharp-Gradient-Free">
  <desc>
    Device Database Encryption 1 Streamline Icon: https://streamlinehq.com
  </desc>
  <g id="Gradient/Computer Devices/device-database-encryption-1">
    <path id="Union" fill="url(#paint0_linear_628_18894)" fill-rule="evenodd" d="M1 7V1h2v6H1Zm0 8V9h2v6H1Zm7.5 2v6h2v-6h-2Zm4-10V1h2v6h-2Zm4-6v6h2V1h-2ZM5 1h5.5v6H5V1Zm2 2v2h1.5V3H7ZM6 9H5v6h5.5V9H6Zm1 4v-2h1.5v2H7Zm-6 4h5.5v6H1v-6Zm2 2v2h1.5v-2H3Zm15-6c-.8284 0-1.5.6716-1.5 1.5V16h3v-1.5c0-.8284-.6716-1.5-1.5-1.5Zm-3.5 1.5V16H13v7h10v-7h-1.5v-1.5c0-1.933-1.567-3.5-3.5-3.5s-3.5 1.567-3.5 3.5Z" clip-rule="evenodd"></path>
  </g>
  <defs>
    <linearGradient id="paint0_linear_628_18894" x1="24.907" x2="-4.768" y1="27.66" y2="6.58" gradientUnits="userSpaceOnUse">
      <stop stop-color="#ffd600"></stop>
      <stop offset="1" stop-color="#ff007a"></stop>
    </linearGradient>
  </defs>
</svg>