<svg xmlns="http://www.w3.org/2000/svg" fill="none" viewBox="0 0 14 14" id="Baggage--Streamline-Flex-Neon">
  <desc>
    Baggage Streamline Icon: https://streamlinehq.com
  </desc>
  <g id="baggage--check-baggage-travel-adventure-luggage-bag-checked-airport">
    <path id="Vector" stroke="#000cfe" stroke-linecap="round" stroke-linejoin="round" d="M4.02686 12.9932V4.02954" stroke-width="1"></path>
    <path id="Vector_2" stroke="#000cfe" stroke-linecap="round" stroke-linejoin="round" d="M9.97339 13.0166V4.02954" stroke-width="1"></path>
    <path id="Vector_2_2" stroke="#000cfe" stroke-linecap="round" stroke-linejoin="round" d="M4.62524 3.91002c-0.00788 -0.09736 0.00024 -0.68155 0.00024 -0.78514C4.62548 1.60496 5.48043 0.75 7.00035 0.75c1.51993 0 2.37488 0.85496 2.37488 2.37488 0 0.10359 -0.01606 0.68778 -0.02394 0.78514" stroke-width="1"></path>
    <path id="Intersect" stroke="#c71dff" stroke-linecap="round" stroke-linejoin="round" d="M0.953504 11.2915c0.138756 0.9509 0.930216 1.6902 1.894086 1.7747 2.79796 0.245 5.50686 0.245 8.30481 0 0.9639 -0.0845 1.7553 -0.8238 1.8941 -1.7747 0.2713 -1.85943 0.2713 -3.62182 0 -5.48123 -0.1388 -0.95087 -0.9302 -1.69025 -1.8941 -1.77467 -2.79795 -0.24506 -5.50685 -0.24506 -8.30481 0 -0.96387 0.08442 -1.75533 0.8238 -1.894087 1.77467 -0.271338 1.85941 -0.271337 3.6218 0.000001 5.48123Z" stroke-width="1"></path>
  </g>
</svg>