<svg xmlns="http://www.w3.org/2000/svg" fill="none" viewBox="0 0 14 14" id="Car-Taxi-1--Streamline-Flex-Neon">
  <desc>
    Car Taxi 1 Streamline Icon: https://streamlinehq.com
  </desc>
  <g id="car-taxi-1--transportation-travel-taxi-transport-cab-car">
    <path id="Vector" stroke="#000cfe" stroke-linecap="round" stroke-linejoin="round" d="m6.71875 1.05469 0 1.67981" stroke-width="1"></path>
    <path id="Subtract" stroke="#c71dff" stroke-linecap="round" stroke-linejoin="round" d="M2.32 6.89438s-1.82 0 -1.82 2.3301c0 1.32582 0.449406 2.34992 1.56008 2.34992l0.2293 -0.0005c-0.00005 -0.0064 -0.00007 -0.0129 -0.00007 -0.0193 0 -0.96 0.54 -1.5 1.5 -1.5s1.5 0.54 1.5 1.5c0 0.0062 -0.00003 0.0125 -0.00007 0.0187l3.28017 0.0001c-0.00005 -0.0063 -0.00007 -0.0125 -0.00007 -0.0188 0 -0.96 0.54 -1.5 1.49996 -1.5 0.96 0 1.5 0.54 1.5 1.5l0 0.0191 0.3708 0.0007c0.7836 0 1.5599 -0.6722 1.5599 -1.82992 0 -1.83922 -0.5461 -2.13828 -2.859 -2.8501l-0.4125 -1.64857c-0.3694 -1.47606 -1.6958 -2.51143 -3.21737 -2.51143h-0.56139c-2.4327 0 -3.60454 1.62101 -4.12974 4.16Z" stroke-width="1"></path>
    <path id="Vector_2" stroke="#000cfe" stroke-linecap="round" stroke-linejoin="round" d="M3.78931 13.0547c0.96 0 1.5 -0.54 1.5 -1.5s-0.54 -1.5 -1.5 -1.5 -1.5 0.54 -1.5 1.5 0.54 1.5 1.5 1.5Z" stroke-width="1"></path>
    <path id="Vector_3" stroke="#000cfe" stroke-linecap="round" stroke-linejoin="round" d="M10.0693 13.0547c0.96 0 1.5 -0.54 1.5 -1.5s-0.54 -1.5 -1.5 -1.5c-0.95996 0 -1.49996 0.54 -1.49996 1.5s0.54 1.5 1.49996 1.5Z" stroke-width="1"></path>
  </g>
</svg>