<svg xmlns="http://www.w3.org/2000/svg" fill="none" viewBox="0 0 14 14" id="City-Hall--Streamline-Flex-Neon">
  <desc>
    City Hall Streamline Icon: https://streamlinehq.com
  </desc>
  <g id="city-hall--city-hall-travel-places">
    <path id="Vector 578" stroke="#000cfe" stroke-linecap="round" stroke-linejoin="round" d="M7.00161 4.7793c0.00006 -1.5515 -0.03637 -2.63182 0.23423 -3.980006 0.87124 -0.065725 1.65434 -0.065725 2.52558 0 0.13308 0.583296 0.23878 1.383506 0 2.102636 -0.99928 0.15658 -1.79036 0.14148 -2.75054 0" stroke-width="1"></path>
    <path id="Vector 565" stroke="#000cfe" stroke-linecap="round" stroke-linejoin="round" d="m7 10.8843 0 2.2264" stroke-width="1"></path>
    <g id="Subtract">
      <path stroke="#000cfe" stroke-linecap="round" stroke-linejoin="round" d="M4.04538 13.2048c-0.22008 -1.8663 -0.22764 -3.86637 -0.02221 -5.75534 -0.68209 0.02099 -1.36598 0.04917 -2.05294 0.08454 -0.4704 0.02423 -0.86629 0.34976 -0.96965 0.78597 -0.334107 1.41001 -0.334106 2.60363 0 4.01363 0.10336 0.4362 0.49925 0.7618 0.96965 0.786 0.69442 0.0358 1.3857 0.0642 2.07515 0.0852Z" stroke-width="1"></path>
      <path stroke="#000cfe" stroke-linecap="round" stroke-linejoin="round" d="M9.95483 13.2048c0.68937 -0.021 1.38057 -0.0495 2.07497 -0.0852 0.4704 -0.0242 0.8663 -0.3498 0.9696 -0.786 0.3341 -1.41 0.3341 -2.60362 0 -4.01363 -0.1033 -0.43621 -0.4992 -0.76174 -0.9696 -0.78597 -0.687 -0.03537 -1.3709 -0.06355 -2.05295 -0.08454 0.20585 1.88879 0.19835 3.88904 -0.02202 5.75534Z" stroke-width="1"></path>
    </g>
    <path id="Subtract_2" stroke="#c71dff" stroke-linecap="round" stroke-linejoin="round" d="M9.95483 13.2048c-1.97485 0.0603 -3.9346 0.0603 -5.90945 0 -0.23805 -2.0187 -0.22746 -4.19377 0.03235 -6.21552 0.0206 -0.16035 0.08439 -0.31342 0.19029 -0.43989 0.74223 -0.88638 1.61877 -1.44596 2.78271 -1.79939 1.14132 0.35889 1.98883 0.92161 2.69511 1.8114 0.09723 0.12249 0.15573 0.26825 0.17538 0.42046 0.26128 2.02361 0.27228 4.20174 0.03361 6.22294Z" stroke-width="1"></path>
  </g>
</svg>