<svg xmlns="http://www.w3.org/2000/svg" fill="none" viewBox="0 0 14 14" id="Location-Pin-3--Streamline-Flex-Neon">
  <desc>
    Location Pin 3 Streamline Icon: https://streamlinehq.com
  </desc>
  <g id="location-pin-3--navigation-map-maps-pin-gps-location">
    <path id="Subtract" stroke="#000cfe" stroke-linecap="round" stroke-linejoin="round" d="M2.4165 9.86792c-0.07123 0.05904 -0.13419 0.13037 -0.18585 0.21268 -0.51485 0.8202 -0.91209 1.6755 -1.20766 2.6183 -0.09449 0.3015 0.1077 0.6097 0.40114 0.6279 3.72382 0.2308 7.42689 0.2309 11.15067 0.0003 0.2951 -0.0182 0.4974 -0.3295 0.4 -0.6317 -0.304 -0.9438 -0.709 -1.7996 -1.2309 -2.6193 -0.0512 -0.08045 -0.1132 -0.15025 -0.1832 -0.20818" stroke-width="1"></path>
    <path id="Union" stroke="#c71dff" d="M6.94901 0.5C4.63532 0.5 2.715 2.28805 2.55016 4.59586c-0.07847 1.09862 0.16754 2.23856 0.85934 3.14697 0.82286 1.08049 1.66082 1.82255 2.97107 2.69497 0.37485 0.2496 0.86366 0.2496 1.23851 0 1.31025 -0.87242 2.14822 -1.61448 2.97112 -2.69497 0.6918 -0.90841 0.9378 -2.04835 0.8593 -3.14697C11.2846 2.28805 9.36433 0.5 7.05064 0.5h-0.10163Z" stroke-width="1"></path>
    <path id="Vector" stroke="#000cfe" stroke-linecap="round" stroke-linejoin="round" d="M7.00007 6.39662c0.88363 0 1.38068 -0.49705 1.38068 -1.38068 0 -0.88364 -0.49705 -1.38069 -1.38068 -1.38069 -0.88364 0 -1.38069 0.49705 -1.38069 1.38069 0 0.88363 0.49705 1.38068 1.38069 1.38068Z" stroke-width="1"></path>
  </g>
</svg>