<svg xmlns="http://www.w3.org/2000/svg" fill="none" viewBox="0 0 14 14" id="Theater-Mask--Streamline-Flex-Neon">
  <desc>
    Theater Mask Streamline Icon: https://streamlinehq.com
  </desc>
  <g id="theater-mask--hobby-theater-masks-drama-event-show-entertainment-travel-places">
    <path id="Subtract" stroke="#000cfe" stroke-linecap="round" stroke-linejoin="round" d="M2.55103 8.02689c-0.31503 -0.30058 -0.59159 -0.64541 -0.82248 -1.00709C0.709822 5.42406 0.252435 3.34468 0.633145 1.50144 1.7485 0.877295 3.45341 0.527062 4.73137 0.506556c1.27707 -0.051645 2.99901 0.201795 4.14781 0.762004 0.12478 0.46879 0.19486 0.95638 0.21427 1.4502" stroke-width="1"></path>
    <path id="Vector" stroke="#c71dff" stroke-linecap="round" stroke-linejoin="round" d="M9.69069 5.08575c-1.23971 -0.31095 -2.97718 -0.41391 -4.21607 -0.09971 -0.8448 1.68189 -0.94119 3.80881 -0.37018 5.61386 0.40077 1.2669 1.26634 2.4911 2.60077 2.8314 1.34468 0.2971 2.66889 -0.4062 3.59719 -1.3569 1.3227 -1.3545 2.1944 -3.29693 2.1976 -5.17907 -0.9647 -0.83846 -2.5624 -1.52893 -3.80931 -1.80958Z" stroke-width="1"></path>
    <path id="Vector_2" stroke="#000cfe" stroke-linecap="round" stroke-linejoin="round" d="M9.79422 8.99642c0.18364 -0.28098 0.48938 -0.37949 0.88088 -0.27458s0.607 0.34307 0.6256 0.67823" stroke-width="1"></path>
    <path id="Vector_2_2" stroke="#000cfe" stroke-linecap="round" stroke-linejoin="round" d="M6.70096 8.16756c0.18364 -0.28098 0.48934 -0.37948 0.88087 -0.27457 0.39153 0.1049 0.60702 0.34306 0.62556 0.67822" stroke-width="1"></path>
  </g>
</svg>