<svg xmlns="http://www.w3.org/2000/svg" fill="none" viewBox="0 0 24 24" id="Building-13--Streamline-Cyber">
  <desc>
    Building 13 Streamline Icon: https://streamlinehq.com
  </desc>
  <path fill="#ffffff" d="m22.78 14.4501 -3.92 -0.98v-0.98l-0.98 -0.4204V8.57005l-1.47 -3.43 -4.41 -1.96 -4.41003 1.96 -1.47 3.43v3.49965l-0.98 0.4204v0.98l-3.92 0.98v6.86h3.92l-0.98 1.96H19.84l-0.98 -1.96h3.92v-6.86Z" stroke-width="1"></path>
  <path fill="#bbd8ff" d="m11.9999 5.14001 -4.40998 1.96 -0.6302 1.47H17.04l-0.6301 -1.47 -4.41 -1.96Z" stroke-width="1"></path>
  <path fill="#bbd8ff" d="M9.0601 14.45h-1.96v6.86h1.96v-6.86Z" stroke-width="1"></path>
  <path fill="#bbd8ff" d="M12.98 14.45h-1.96v6.86h1.96v-6.86Z" stroke-width="1"></path>
  <path fill="#bbd8ff" d="M16.8999 14.45h-1.96v6.86h1.96v-6.86Z" stroke-width="1"></path>
  <path stroke="#092f63" stroke-linecap="round" stroke-linejoin="round" d="m18.8601 13.47 3.92 0.98v6.86h-3.92" stroke-width="1"></path>
  <path stroke="#092f63" stroke-linecap="round" stroke-linejoin="round" d="M5.13997 21.31h-3.92v-6.86l3.92 -0.98" stroke-width="1"></path>
  <path stroke="#092f63" stroke-linecap="round" stroke-linejoin="round" d="M19.8399 23.27H4.15991l0.98 -1.96v-8.82l6.85999 -2.93995 6.86 2.93995v8.82l0.98 1.96Z" stroke-width="1"></path>
  <path stroke="#092f63" stroke-linecap="round" stroke-linejoin="round" d="M6.12012 12.0979V8.56995H17.8801v3.52795" stroke-width="1"></path>
  <path stroke="#092f63" stroke-linecap="round" stroke-linejoin="round" d="m6.12012 8.57005 1.47 -3.43 4.40998 -1.96 4.41 1.96 1.47 3.43" stroke-width="1"></path>
  <path stroke="#092f63" stroke-linecap="round" stroke-linejoin="round" d="M12 3.17998v-2.45" stroke-width="1"></path>
  <path stroke="#092f63" stroke-linecap="round" stroke-linejoin="round" d="M7.1001 21.31v-6.86" stroke-width="1"></path>
  <path stroke="#092f63" stroke-linecap="round" stroke-linejoin="round" d="M5.13989 14.45H18.8599" stroke-width="1"></path>
  <path stroke="#092f63" stroke-linecap="round" stroke-linejoin="round" d="M5.13989 21.3101H19.8399" stroke-width="1"></path>
  <path stroke="#092f63" stroke-linecap="round" stroke-linejoin="round" d="M5.13989 19.35h1.96" stroke-width="1"></path>
  <path stroke="#092f63" stroke-linecap="round" stroke-linejoin="round" d="M11.02 21.31v-6.86" stroke-width="1"></path>
  <path stroke="#092f63" stroke-linecap="round" stroke-linejoin="round" d="M9.06006 21.31v-6.86" stroke-width="1"></path>
  <path stroke="#092f63" stroke-linecap="round" stroke-linejoin="round" d="M9.06006 19.35h1.96004" stroke-width="1"></path>
  <path stroke="#092f63" stroke-linecap="round" stroke-linejoin="round" d="M14.9399 21.31v-6.86" stroke-width="1"></path>
  <path stroke="#092f63" stroke-linecap="round" stroke-linejoin="round" d="M12.98 21.31v-6.86" stroke-width="1"></path>
  <path stroke="#092f63" stroke-linecap="round" stroke-linejoin="round" d="M12.98 19.35h1.96" stroke-width="1"></path>
  <path stroke="#092f63" stroke-linecap="round" stroke-linejoin="round" d="M16.8999 21.31v-6.86" stroke-width="1"></path>
  <path stroke="#092f63" stroke-linecap="round" stroke-linejoin="round" d="M16.8999 19.35h1.96" stroke-width="1"></path>
</svg>