<svg xmlns="http://www.w3.org/2000/svg" fill="none" viewBox="0 0 24 24" id="Fire-Alarm--Streamline-Cyber">
  <desc>
    Fire Alarm Streamline Icon: https://streamlinehq.com
  </desc>
  <path fill="#ffffff" d="m19.8399 19.154 -7.84 4.116 -7.83999 -4.116v-9.31L11.9999 5.63l7.84 4.214v9.31Z" stroke-width="1"></path>
  <path fill="#bbd8ff" d="m17.3899 17.88 -5.39 2.94 -5.38999 -2.94 -2.45 1.274 7.83999 4.116 7.84 -4.116 -2.45 -1.274Z" stroke-width="1"></path>
  <path fill="#bbd8ff" d="M9.55005 18.958 12 20.33l3.92 -1.96v-4.41L13.96 12v1.96l-1.96 0.98v-2.45l-1.47 0.98 -0.97995 5.488Z" stroke-width="1"></path>
  <path stroke="#092f63" stroke-linecap="round" stroke-linejoin="round" stroke-miterlimit="10" d="m7.59009 17.8799 4.41001 2.45 3.92 -1.96v-4.41l-1.96 -1.96v1.96l-1.96 0.98v-4.41l-1.96 -1.95995v2.93995l-1.47001 1.47 -0.98 4.9Z" stroke-width="1"></path>
  <path stroke="#092f63" stroke-linecap="round" stroke-linejoin="round" stroke-miterlimit="10" d="m12 17.8801 -1.96 -0.98 0.49 -1.47" stroke-width="1"></path>
  <path stroke="#092f63" stroke-linecap="round" stroke-linejoin="round" stroke-miterlimit="10" d="m19.8399 19.154 -7.84 4.116 -7.83999 -4.116v-9.31L11.9999 5.63l7.84 4.214v9.31Z" stroke-width="1"></path>
  <path stroke="#092f63" stroke-linecap="round" stroke-linejoin="round" stroke-miterlimit="10" d="M8.07997 0.72998h-3.43l-3.43 3.43v3.43" stroke-width="1"></path>
  <path stroke="#092f63" stroke-linecap="round" stroke-linejoin="round" stroke-miterlimit="10" d="M7.09993 2.68994h-1.47l-2.45 2.45v1.47" stroke-width="1"></path>
  <path stroke="#092f63" stroke-linecap="round" stroke-linejoin="round" stroke-miterlimit="10" d="M15.9199 0.72998h3.43l3.43 3.43v3.43" stroke-width="1"></path>
  <path stroke="#092f63" stroke-linecap="round" stroke-linejoin="round" stroke-miterlimit="10" d="M16.8999 2.68994h1.47l2.45 2.45v1.47" stroke-width="1"></path>
</svg>