<svg xmlns="http://www.w3.org/2000/svg" fill="none" viewBox="0 0 24 24" id="Pet-Not-Allow--Streamline-Cyber">
  <desc>
    Pet Not Allow Streamline Icon: https://streamlinehq.com
  </desc>
  <path fill="#ffffff" d="M21.7999 17.684 12 23.27l-9.80005 -5.586V6.41398L12 0.72998l9.7999 5.684V17.684Z" stroke-width="1"></path>
  <path fill="#bbd8ff" d="M19.84 16.41 12 20.82l-7.84005 -4.41 -1.96 1.274L12 23.27l9.7999 -5.586L19.84 16.41Z" stroke-width="1"></path>
  <path fill="#bbd8ff" d="m12 14.45 2.94 2.94v-5.88h2.94l0.98 -1.96 -2.646 -1.274 -6.174 6.174H12Z" stroke-width="1"></path>
  <path stroke="#092f63" stroke-linecap="round" stroke-linejoin="round" stroke-miterlimit="10" d="M21.7999 17.684 12 23.27l-9.80005 -5.586V6.41398L12 0.72998l9.7999 5.684V17.684Z" stroke-width="1"></path>
  <path stroke="#092f63" stroke-linecap="round" stroke-linejoin="round" stroke-miterlimit="10" d="M14.9401 15.92v1.47l-2.94 -2.94h-2.45l-2.45 2.94v-5.88" stroke-width="1"></path>
  <path stroke="#092f63" stroke-linecap="round" stroke-linejoin="round" stroke-miterlimit="10" d="M14.94 11.51h2.94l0.98 -1.96 -2.94 -1.47 -0.98 -1.96L12 9.55h-0.98" stroke-width="1"></path>
  <path stroke="#092f63" stroke-linecap="round" stroke-linejoin="round" stroke-miterlimit="10" d="m7.09991 11.51 -2.94 1.96" stroke-width="1"></path>
  <path stroke="#092f63" stroke-linecap="round" stroke-linejoin="round" stroke-miterlimit="10" d="M2.19995 6.90405 21.7999 17.684" stroke-width="1"></path>
</svg>