<svg xmlns="http://www.w3.org/2000/svg" fill="none" viewBox="0 0 24 24" id="Swimming-Pool-2--Streamline-Cyber">
  <desc>
    Swimming Pool 2 Streamline Icon: https://streamlinehq.com
  </desc>
  <path fill="#bbd8ff" d="m22.78 14.9399 -1.96 1.47 -1.96 -1.47 -1.96 1.47 -1.96 -1.47 -1.96 1.47 -1.96 -1.47 -1.96003 1.47 -1.96 -1.47 -1.96 1.47 -1.96 -1.47 -1.96 1.47v6.86l1.96 -1.47 1.96 1.47 1.96 -1.47 1.96 1.47 1.96003 -1.47 1.96 1.47 1.96 -1.47 1.96 1.47 1.96 -1.47 1.96 1.47 1.96 -1.47v-6.86Z" stroke-width="1"></path>
  <path stroke="#092f63" stroke-linecap="round" stroke-linejoin="round" stroke-miterlimit="10" d="M7.1001 12.49V4.64998l2.45 -3.92h1.47" stroke-width="1"></path>
  <path stroke="#092f63" stroke-linecap="round" stroke-linejoin="round" stroke-miterlimit="10" d="M14.9399 12.49V4.64998l2.45 -3.92h1.47" stroke-width="1"></path>
  <path stroke="#092f63" stroke-linecap="round" stroke-linejoin="round" stroke-miterlimit="10" d="M7.1001 4.65002h7.84" stroke-width="1"></path>
  <path stroke="#092f63" stroke-linecap="round" stroke-linejoin="round" stroke-miterlimit="10" d="M7.1001 7.58997h7.84" stroke-width="1"></path>
  <path stroke="#092f63" stroke-linecap="round" stroke-linejoin="round" stroke-miterlimit="10" d="M7.1001 10.53h7.84" stroke-width="1"></path>
  <path stroke="#092f63" stroke-linecap="round" stroke-linejoin="round" stroke-miterlimit="10" d="m1.21997 23.2701 1.96 -1.4701 1.96 1.4701 1.96 -1.4701 1.96 1.4701L11.02 21.8l1.96 1.4701L14.94 21.8l1.96 1.4701L18.86 21.8l1.96 1.4701L22.78 21.8" stroke-width="1"></path>
  <path stroke="#092f63" stroke-linecap="round" stroke-linejoin="round" stroke-miterlimit="10" d="m1.21997 19.84 1.96 -1.47 1.96 1.47 1.96 -1.47 1.96 1.47L11.02 18.37l1.96 1.47 1.96 -1.47 1.96 1.47 1.96 -1.47 1.96 1.47 1.96 -1.47" stroke-width="1"></path>
  <path stroke="#092f63" stroke-linecap="round" stroke-linejoin="round" stroke-miterlimit="10" d="m1.21997 16.4099 1.96 -1.47 1.96 1.47 1.96 -1.47 1.96 1.47 1.96003 -1.47 1.96 1.47 1.96 -1.47 1.96 1.47 1.96 -1.47 1.96 1.47 1.96 -1.47" stroke-width="1"></path>
</svg>