<svg xmlns="http://www.w3.org/2000/svg" fill="none" viewBox="0 0 48 48" id="Airplane-Disabled--Streamline-Plump-Neon">
  <desc>
    Airplane Disabled Streamline Icon: https://streamlinehq.com
  </desc>
  <g id="airplane-disabled--server-plane-airplane-disabled-off-wireless-mode-internet-network">
    <path id="Vector" stroke="#c71dff" stroke-linecap="round" stroke-linejoin="round" d="M17.3729 17.0629c-0.1384 -1.4067 -0.2739 -2.8392 -0.4034 -4.2791 -0.0809 -0.9001 -0.0759 -1.8128 0.1275 -2.6933 0.9788 -4.23917 3.4681 -6.49398 5.1737 -7.58139C22.803 2.1697 23.4016 2 24.0001 2s1.197 0.1697 1.7293 0.50911c1.7056 1.08741 4.1949 3.34222 5.1738 7.58139 0.2033 0.8805 0.2083 1.7932 0.1274 2.6933 -0.1294 1.4399 -0.265 2.8724 -0.4034 4.2791l14.0284 9.2835C45.4951 26.902 46 27.8416 46 28.8482v3.1366c0 1.0048 -0.9686 1.7254 -1.931 1.4367l-14.7319 -4.4196M13 19.9567l-9.6556 6.3897C2.5049 26.902 2 27.8416 2 28.8482v3.1366c0 1.0048 0.9686 1.7254 1.93102 1.4367L18.663 29.0019c0.5372 4.5956 0.9371 7.633 0.9371 7.633l-5.2387 4.5981c-0.8653 0.7595 -1.3613 1.855 -1.3613 3.0063v0.7609c0 0.694 0.6895 1.177 1.3417 0.9398l9.6583 -3.5121 9.6582 3.5121c0.6522 0.2372 1.3418 -0.2458 1.3418 -0.9398v-0.7609c0 -1.1513 -0.4961 -2.2468 -1.3614 -3.0063l-5.2386 -4.5981s0.0529 -0.402 0.1461 -1.1349" stroke-width="3"></path>
    <path id="Vector_2" stroke="#000cfe" stroke-linecap="round" stroke-linejoin="round" d="m2 2 44 44" stroke-width="3"></path>
  </g>
</svg>