<svg xmlns="http://www.w3.org/2000/svg" fill="none" viewBox="0 0 24 24" id="Theater-Mask--Streamline-Sharp">
  <desc>
    Theater Mask Streamline Icon: https://streamlinehq.com
  </desc>
  <g id="theater-mask--hobby-theater-masks-drama-event-show-entertainment-travel-places">
    <path id="Union" fill="#2859c5" fill-rule="evenodd" d="M2 1H1v6.72c0 4.756 3.153 8.935 7.725 10.242L9 18.04l0.275 -0.078A10.651 10.651 0 0 0 17 7.72V1H2Z" clip-rule="evenodd" stroke-width="1"></path>
    <path id="Union_2" fill="#8fbffa" d="m7.473 4.275 -1.74 6.491a10.651 10.651 0 0 0 4.812 11.892l0.245 0.147 0.286 -0.004a10.651 10.651 0 0 0 10.112 -7.894l1.74 -6.49L7.472 4.274Z" stroke-width="1"></path>
    <path id="Union_3" fill="#2859c5" fill-rule="evenodd" d="M9.725 12.362a0.75 0.75 0 0 1 1.448 0.388l1.45 0.388a2.25 2.25 0 0 0 -4.347 -1.164l1.449 0.388Zm5.724 1.681a0.75 0.75 0 1 1 1.45 0.388l1.448 0.389A2.25 2.25 0 0 0 14 13.655l1.45 0.388Z" clip-rule="evenodd" stroke-width="1"></path>
  </g>
</svg>