<svg xmlns="http://www.w3.org/2000/svg" fill="none" viewBox="0 0 24 24" id="Traffic-Light--Streamline-Sharp">
  <desc>
    Traffic Light Streamline Icon: https://streamlinehq.com
  </desc>
  <g id="traffic-light">
    <path id="Union" fill="#8fbffa" fill-rule="evenodd" d="M6 1h12v2.22l3.243 0.81 -0.485 1.94L18 5.28v3.94l3.243 0.81 -0.485 1.94L18 11.28v3.94l3.243 0.81 -0.485 1.94L18 17.28V23H6v-5.72l-2.757 0.69 -0.485 -1.94L6 15.22v-3.94l-2.757 0.69 -0.485 -1.94L6 9.22V5.28l-2.757 0.69 -0.485 -1.94L6 3.22V1Z" clip-rule="evenodd" stroke-width="1"></path>
    <path id="Union_2" fill="#2859c5" fill-rule="evenodd" d="M14 6a2 2 0 1 1 -4 0 2 2 0 0 1 4 0Zm0 6a2 2 0 1 1 -4 0 2 2 0 0 1 4 0Zm-2 8a2 2 0 1 0 0 -4 2 2 0 0 0 0 4Z" clip-rule="evenodd" stroke-width="1"></path>
  </g>
</svg>