<svg xmlns="http://www.w3.org/2000/svg" viewBox="0 0 14 14">
  <g>
    <path d="M3.54,1.71a1.33,1.33,0,0,1-1.3,1.34A1.36,1.36,0,0,1,.93,1.71,1.34,1.34,0,0,1,2.24.43,1.33,1.33,0,0,1,3.54,1.71ZM1.07,5.43c0-.77.49-.65,1.17-.65s1.16-.12,1.16.65v7.5c0,.78-.49.62-1.16.62s-1.17.16-1.17-.62Z" style="fill: none;stroke: #000001;stroke-linecap: round;stroke-linejoin: round"/>
    <path d="M5.42,5.43c0-.43.16-.59.41-.64s1.11,0,1.41,0,.42.49.41.86a2.51,2.51,0,0,1,2.24-1,3,3,0,0,1,3.18,3.13v5.12c0,.78-.48.62-1.16.62s-1.16.16-1.16-.62v-4A1.44,1.44,0,0,0,9.23,7.34,1.45,1.45,0,0,0,7.75,8.93v4c0,.78-.49.62-1.17.62s-1.16.16-1.16-.62Z" style="fill: none;stroke: #000001;stroke-linecap: round;stroke-linejoin: round"/>
  </g>
</svg>
