<svg xmlns="http://www.w3.org/2000/svg" viewBox="0 0 14 14">
  <g>
    <path d="M12.87,8.63l-.09-.07A6.1,6.1,0,0,0,13,7,6,6,0,0,0,7,1a6.1,6.1,0,0,0-1.55.21l-.07-.09a2.78,2.78,0,0,0-3.89.35,2.78,2.78,0,0,0-.35,3.89l.08.06A5.91,5.91,0,0,0,1,7a6,6,0,0,0,6,6,5.91,5.91,0,0,0,1.58-.22l.06.08a2.78,2.78,0,0,0,3.89-.35A2.78,2.78,0,0,0,12.87,8.63Z" style="fill: none;stroke: #000001;stroke-linecap: round;stroke-linejoin: round"/>
    <path d="M7.15,4.07c.42,0,1.45.15,1.45.74a.51.51,0,0,1-.49.54c-.31,0-.54-.22-1-.22s-.6.17-.6.48C6.52,6.38,9,5.89,9,7.8a1.76,1.76,0,0,1-1.9,1.71c-.57,0-1.79-.13-1.79-.83a.49.49,0,0,1,.49-.52c.35,0,.76.29,1.25.29a.66.66,0,0,0,.75-.64c0-.87-2.47-.35-2.47-2.06A1.71,1.71,0,0,1,7.15,4.07m0-1A2.7,2.7,0,0,0,4.32,5.75,2.09,2.09,0,0,0,5,7.38a1.52,1.52,0,0,0-.7,1.3c0,1.13,1.07,1.83,2.79,1.83A2.75,2.75,0,0,0,10,7.8a2.33,2.33,0,0,0-.83-1.88A1.59,1.59,0,0,0,9.6,4.81c0-1.2-1.27-1.74-2.45-1.74Z" style="fill: #000001"/>
  </g>
</svg>
