<svg xmlns="http://www.w3.org/2000/svg" fill="none" viewBox="0 0 24 24" id="Discount-Percent-Fire--Streamline-Sharp-Gradient-Free">
  <desc>
    Discount Percent Fire Streamline Icon: https://streamlinehq.com
  </desc>
  <g id="discount-percent-fire--shop-shops-stores-discount-coupon-hot-trending">
    <path id="Subtract" fill="url(#paint0_linear_630_38117)" fill-rule="evenodd" d="M11.3554 0h1.6444l.0013 5.65352c0 2.16613 1.7106 3.88324 3.773 3.88324.9348 0 1.7906-.34874 2.4528-.93251l.945-.833.5969 1.10925c2.0825 3.8697 1.5253 8.8326-1.6897 12.1217-3.907 3.9971-10.25115 3.9971-14.15817 0-3.89458-3.9844-3.89457-10.435 0-14.41939L11.3554 0ZM9.20711 18.7071l5.99999-6-1.4142-1.4142-6.00001 6 1.41422 1.4142ZM9 10.8358l.70711.7071.25.25.70709.7071-.70709.7071-.25.25L9 14.1642l-.70711-.7071-.25-.25-.7071-.7071.7071-.7071.25-.25L9 10.8358Zm5.7071 5.7071L14 15.8358l-.7071.7071-.25.25-.7071.7071.7071.7071.25.25.7071.7071.7071-.7071.25-.25.7071-.7071-.7071-.7071-.25-.25Z" clip-rule="evenodd"></path>
  </g>
  <defs>
    <linearGradient id="paint0_linear_630_38117" x1="23.733" x2="-6.324" y1="29.083" y2="11.291" gradientUnits="userSpaceOnUse">
      <stop stop-color="#ffd600"></stop>
      <stop offset="1" stop-color="#ff007a"></stop>
    </linearGradient>
  </defs>
</svg>