<svg xmlns="http://www.w3.org/2000/svg" fill="none" viewBox="0 0 24 24" id="Stock--Streamline-Sharp-Gradient-Free">
  <desc>
    Stock Streamline Icon: https://streamlinehq.com
  </desc>
  <g id="stock--price-stock-wallstreet-dollar-money-currency-fluctuate-candlestick-business">
    <path id="Union" fill="url(#paint0_linear_630_38315)" fill-rule="evenodd" d="M5 5V1H3v4H1v13h2v2h2v-2h2V5H5Zm4 7h2V8h2v4h2v8h-2v3h-2v-3H9v-8ZM20.5 2V1h-2v1H18c-1.1046 0-2 .89543-2 2v.9302c0 .95336.6729 1.77419 1.6078 1.96116L21 7.5698V9h-3V8h-2v1c0 1.1046.8954 2 2 2h.5v1h2v-1h.5c1.1046 0 2-.8954 2-2V7.5698c0-.95336-.6729-1.77419-1.6078-1.96116L18 4.9302V4h3v1h2V4c0-1.10457-.8954-2-2-2h-.5Z" clip-rule="evenodd"></path>
  </g>
  <defs>
    <linearGradient id="paint0_linear_630_38315" x1="1.845" x2="26.919" y1="2.778" y2="16.91" gradientUnits="userSpaceOnUse">
      <stop stop-color="#00d078"></stop>
      <stop offset="1" stop-color="#007df0"></stop>
    </linearGradient>
  </defs>
</svg>