<svg xmlns="http://www.w3.org/2000/svg" fill="none" viewBox="0 0 14 14" id="Cloud-Download--Streamline-Flex">
  <desc>
    Cloud Download Streamline Icon: https://streamlinehq.com
  </desc>
  <g id="cloud-download--cloud-down-internet-network-download-server-arrow">
    <path id="Union" fill="#000000" fill-rule="evenodd" d="M11.3944 4.02612c-0.045 -0.01318 -0.0853 -0.03871 -0.116 -0.07358 -0.0307 -0.03488 -0.0506 -0.07764 -0.0574 -0.12324 -0.0806 -0.86611 -0.4616 -1.67894 -1.0795 -2.30296C9.52357 0.902322 8.70613 0.504846 7.82548 0.400193 6.94483 0.29554 6.0542 0.490038 5.30211 0.95125c-0.2905 0.17815 -0.55355 0.39193 -0.78369 0.63462 -0.1267 0.13361 -0.04931 0.34766 0.12594 0.40414 0.32472 0.10464 0.6262 0.24911 0.89476 0.41707 0.55003 0.34398 1.01049 0.81738 1.24816 1.32469 0.14644 0.31258 0.01175 0.68468 -0.30082 0.83112 -0.31258 0.14644 -0.68468 0.01176 -0.83112 -0.30082 -0.11146 -0.23792 -0.37897 -0.54499 -0.77901 -0.79518 -0.39259 -0.24552 -0.86539 -0.40592 -1.3485 -0.40592 -0.01223 0 -0.02438 -0.00035 -0.03644 -0.00104l-0.00867 -0.00003c-0.41942 0.02761 -0.82919 0.13595 -1.20592 0.31881 -0.37672 0.18287 -0.71301 0.43669 -0.98968 0.74698C0.728368 4.75234 0.446416 5.57094 0.503291 6.4014c0.056875 0.83046 0.447917 1.60476 1.087099 2.15256 0.60108 0.51513 1.4384 0.91129 2.39412 1.18232 0.23256 -0.15325 0.49431 -0.25142 0.7655 -0.29031l0.00001 -1.03189c0 -1.24264 1.00737 -2.24999 2.25001 -2.24998 1.24264 0.00001 2.24999 1.00737 2.24999 2.25001l-0.00001 1.02167c0.34266 0.03332 0.67369 0.16076 0.95399 0.37402 0.9526 -0.25352 1.7888 -0.64315 2.3924 -1.17493 0.4983 -0.439 0.8151 -1.04188 0.8905 -1.69451 0.0753 -0.65263 -0.096 -1.30968 -0.4817 -1.84675 -0.3856 -0.53707 -0.9587 -0.91687 -1.6108 -1.06749ZM7.19429 13.9346c-0.09952 0.0249 -0.20364 0.0249 -0.30317 0 -0.63666 -0.1592 -1.23951 -0.5437 -1.68341 -0.9876 -0.42479 -0.4248 -0.81627 -1.0193 -0.81627 -1.645 0 -0.1925 0.08867 -0.3742 0.24037 -0.4926 0.1517 -0.1185 0.34951 -0.1604 0.53622 -0.1138l0.8323 0.2081 0.00002 -2.48961c0 -0.55229 0.44772 -1 1 -0.99999 0.55229 0 1 0.44772 1 1l-0.00002 2.5108 0.91706 -0.2292c0.18671 -0.0467 0.38452 -0.0048 0.53621 0.1137 0.1517 0.1184 0.24037 0.3001 0.24037 0.4926 0 0.6257 -0.39148 1.2202 -0.81627 1.645 -0.44389 0.4439 -1.04675 0.8284 -1.68341 0.9876Z" clip-rule="evenodd" stroke-width="1"></path>
  </g>
</svg>