<svg xmlns="http://www.w3.org/2000/svg" fill="none" viewBox="0 0 14 14" id="Code-Monitor-1--Streamline-Flex">
  <desc>
    Code Monitor 1 Streamline Icon: https://streamlinehq.com
  </desc>
  <g id="code-monitor-1--code-tags-angle-bracket-monitor">
    <path id="Union" fill="#000000" fill-rule="evenodd" d="M6.99902 1.62207c-1.7565 0 -3.45455 0.06158 -5.03404 0.26166 -0.0858 0.01087 -0.15291 0.0728 -0.17193 0.15156 -0.21611 0.89485 -0.29207 1.5862 -0.29207 3.36073 0 1.42438 0.13703 2.15452 0.28103 2.92179l0.00002 0.00007c0.02224 0.11851 0.04464 0.23789 0.06674 0.36086 0.02706 0.15064 0.13414 0.2286 0.22006 0.23883 1.55346 0.18497 3.21848 0.25239 4.93215 0.25239 1.71363 0 3.37672 -0.06742 4.93022 -0.25238 0.0859 -0.01024 0.193 -0.0882 0.22 -0.23883 0.0221 -0.123 0.0445 -0.24241 0.0668 -0.36094 0.144 -0.76727 0.281 -1.49741 0.281 -2.92179 0 -1.77453 -0.0759 -2.46588 -0.292 -3.36073 -0.0191 -0.07876 -0.0862 -0.14068 -0.172 -0.15155 -1.5798 -0.20009 -3.27943 -0.26167 -5.03598 -0.26167ZM1.77648 0.395622C3.44478 0.18429 5.21317 0.12207 6.99902 0.12207c1.78586 0 3.55578 0.062221 5.22448 0.273559 0.6984 0.088454 1.275 0.597915 1.4415 1.287541 0.2556 1.05832 0.334 1.88239 0.334 3.71285 0 1.56622 -0.1587 2.41103 -0.3068 3.19897 -0.0219 0.11686 -0.0437 0.23248 -0.0646 0.34901 -0.1318 0.73333 -0.7132 1.3671 -1.5191 1.4631 -0.9924 0.1181 -2.0197 0.1898 -3.06589 0.2278l0.40749 1.7429h1.2932c0.4142 0 0.75 0.3358 0.75 0.75s-0.3358 0.75 -0.75 0.75H3.25854c-0.41421 0 -0.75 -0.3358 -0.75 -0.75s0.33579 -0.75 0.75 -0.75h1.29322l0.40749 -1.7429c-1.04695 -0.038 -2.0752 -0.1097 -3.06776 -0.2278C1.0856 10.3111 0.504163 9.67733 0.372407 8.944c-0.020931 -0.11649 -0.042649 -0.23208 -0.064603 -0.34891l-0.000008 -0.00004 -0.000006 -0.00004 -0.000005 -0.00002C0.159723 7.80705 0.000976562 6.96224 0.000976562 5.39602c0 -1.83046 0.078401638 -2.65453 0.333986438 -3.71285C0.501506 0.993542 1.07807 0.484091 1.77648 0.395622ZM7.94764 2.55309c0.32747 0.10915 0.50444 0.4631 0.39529 0.79057l-1.5 4.5c-0.10916 0.32746 -0.46311 0.50443 -0.79057 0.39528 -0.32747 -0.10915 -0.50444 -0.4631 -0.39529 -0.79057l1.5 -4.5c0.10916 -0.32746 0.46311 -0.50444 0.79057 -0.39528ZM4.82793 4.58795c0.24408 -0.24407 0.24408 -0.6398 0 -0.88388 -0.24408 -0.24408 -0.63981 -0.24408 -0.88389 0l-1.5 1.5c-0.24407 0.24408 -0.24407 0.63981 0 0.88388l1.5 1.5c0.24408 0.24408 0.63981 0.24408 0.88389 0 0.24408 -0.24407 0.24408 -0.6398 0 -0.88388L3.76987 5.64601l1.05806 -1.05806Zm5.22777 -0.88388c-0.24407 -0.24408 -0.6398 -0.24408 -0.88387 0 -0.24408 0.24408 -0.24408 0.63981 0 0.88388l1.05807 1.05806 -1.05807 1.05806c-0.24408 0.24408 -0.24408 0.63981 0 0.88388 0.24407 0.24408 0.6398 0.24408 0.88387 0l1.5 -1.5c0.2441 -0.24407 0.2441 -0.6398 0 -0.88388l-1.5 -1.5Z" clip-rule="evenodd" stroke-width="1"></path>
  </g>
</svg>