<svg xmlns="http://www.w3.org/2000/svg" fill="none" viewBox="0 0 14 14" id="File-Code-1--Streamline-Flex">
  <desc>
    File Code 1 Streamline Icon: https://streamlinehq.com
  </desc>
  <g id="file-code-1--code-files-angle-programming-file-bracket">
    <path id="Union" fill="#000000" fill-rule="evenodd" d="M3.70785 0.869931C4.85216 0.791255 5.9582 0.75 7.32644 0.75c0.45158 0 0.87485 0.004493 1.28061 0.01336 0.50357 0.011004 0.99705 0.178066 1.40195 0.49058 1.1961 0.92311 1.9287 1.70296 2.8324 2.93409 0.2927 0.39873 0.4514 0.87693 0.4638 1.36626 0.0141 0.55909 0.0212 1.12464 0.0212 1.69571 0 1.41 -0.0438 2.7864 -0.1272 4.1152 -0.0762 1.2153 -1.0412 2.1815 -2.2542 2.2649 -0.5959 0.0409 -1.18144 0.0718 -1.79905 0.0919 -0.32571 0.0106 -0.50737 -0.3769 -0.32422 -0.6465 0.10605 -0.156 0.22965 -0.3569 0.33269 -0.588 0.09284 -0.2081 0.23431 -0.5827 0.23431 -1.0491 0 -0.4664 -0.14147 -0.841 -0.23431 -1.0491 -0.10304 -0.231 -0.22664 -0.43194 -0.33269 -0.58802 -0.21195 -0.31194 -0.46314 -0.60334 -0.66939 -0.82747 -0.21415 -0.23271 -0.4228 -0.43903 -0.5747 -0.5846 -0.07698 -0.07378 -0.14187 -0.13432 -0.1888 -0.17757 -0.02352 -0.02167 -0.04267 -0.03914 -0.05674 -0.0519l-0.01726 -0.0156 -0.00563 -0.00506 -0.00355 -0.00318c-0.36665 -0.32784 -0.84125 -0.50907 -1.33309 -0.50907H2.59538c-0.18214 0 -0.36191 0.02485 -0.53471 0.0728 -0.32175 0.08928 -0.73423 -0.11572 -0.73423 -0.44963 0 -1.41 0.04381 -2.78642 0.1272 -4.11516C1.52992 1.91952 2.49492 0.953324 3.70785 0.869931ZM2.09545 9.06774c0.30878 -0.27609 0.78291 -0.24959 1.059 0.05919 0.27606 0.30875 0.24942 0.78298 -0.05927 1.05907l-0.00206 0.0019 -0.00981 0.0088 -0.04053 0.0371c-0.03564 0.0329 -0.08737 0.0811 -0.14978 0.1409 -0.12559 0.1204 -0.29075 0.2841 -0.45384 0.4613 -0.16606 0.1804 -0.31526 0.3591 -0.41833 0.5108 -0.02392 0.0352 -0.04314 0.0657 -0.05833 0.0916 0.01519 0.0259 0.03441 0.0565 0.05833 0.0917 0.10307 0.1517 0.25227 0.3303 0.41833 0.5108 0.16309 0.1772 0.32825 0.3409 0.45384 0.4612 0.06241 0.0598 0.11414 0.1081 0.14978 0.1409l0.04053 0.0371 0.00981 0.0089 0.00227 0.002c0.30866 0.2761 0.33511 0.7502 0.05906 1.0589 -0.27609 0.3088 -0.75095 0.3346 -1.05973 0.0586l-0.00125 -0.0012 -0.00401 -0.0036 -0.01387 -0.0125c-0.01176 -0.0107 -0.02845 -0.0259 -0.04937 -0.0452 -0.0418 -0.0385 -0.10071 -0.0934 -0.17106 -0.1609 -0.13994 -0.1341 -0.32882 -0.321 -0.51977 -0.5285 -0.18798 -0.2043 -0.39281 -0.4444 -0.55527 -0.6835 -0.081257 -0.1196 -0.162182 -0.2539 -0.225025 -0.3947 -0.059015 -0.1324 -0.125896 -0.3225 -0.125896 -0.54 0 -0.2175 0.066881 -0.4076 0.125896 -0.5399 0.062843 -0.1409 0.143768 -0.2751 0.225025 -0.3947 0.16246 -0.2391 0.36729 -0.4793 0.55527 -0.68354 0.19095 -0.2075 0.37983 -0.39444 0.51977 -0.52855 0.07035 -0.06742 0.12926 -0.12237 0.17106 -0.1609 0.02092 -0.01928 0.03761 -0.0345 0.04937 -0.04516l0.01387 -0.01254 0.00401 -0.0036 0.00198 -0.00177Zm3.31799 0.05919c0.27609 -0.30878 0.75023 -0.33528 1.05901 -0.05919 0.48147 0.43135 0.95145 0.90051 1.31533 1.43606 0.08125 0.1196 0.16218 0.2538 0.22502 0.3947 0.05901 0.1323 0.1259 0.3224 0.1259 0.5399 0 0.2175 -0.06689 0.4076 -0.1259 0.54 -0.18084 0.4054 -0.48269 0.7548 -0.7803 1.0782 -0.23952 0.2603 -0.49163 0.5099 -0.75407 0.7471l-0.00401 0.0036 -0.00124 0.0012c-0.30879 0.276 -0.78365 0.2502 -1.05974 -0.0586 -0.27605 -0.3087 -0.2496 -0.7828 0.05906 -1.0589l0.00228 -0.002c0.22758 -0.2058 0.44624 -0.4224 0.65396 -0.6481 0.1722 -0.1872 0.34736 -0.382 0.47665 -0.6025 -0.12929 -0.2204 -0.30445 -0.4153 -0.47665 -0.6024 -0.20788 -0.2259 -0.42726 -0.4412 -0.65396 -0.6481 -0.30468 -0.27395 -0.33577 -0.75404 -0.06134 -1.06097Z" clip-rule="evenodd" stroke-width="1"></path>
  </g>
</svg>