<svg xmlns="http://www.w3.org/2000/svg" fill="none" viewBox="0 0 14 14" id="Threat-Monitor--Streamline-Flex">
  <desc>
    Threat Monitor Streamline Icon: https://streamlinehq.com
  </desc>
  <g id="threat-monitor--bug-monitor-file-threat-danger-computer">
    <path id="Union" fill="#000000" fill-rule="evenodd" d="M6.75 0.868a0.75 0.75 0 0 1 -0.739 0.761c-1.406 0.021 -2.765 0.093 -4.045 0.255a0.202 0.202 0 0 0 -0.172 0.151c-0.216 0.895 -0.292 1.587 -0.292 3.361 0 1.425 0.137 2.155 0.281 2.922l0.067 0.36c0.027 0.151 0.134 0.23 0.22 0.24 1.553 0.185 3.218 0.252 4.932 0.252 1.986 0 3.865 -0.09 5.667 -0.35a0.75 0.75 0 1 1 0.214 1.485c-1.253 0.18 -2.531 0.282 -3.84 0.33l0.408 1.743h1.293a0.75 0.75 0 0 1 0 1.5H3.26a0.75 0.75 0 0 1 0 -1.5h1.293l0.407 -1.743a37.604 37.604 0 0 1 -3.068 -0.228c-0.805 -0.096 -1.387 -0.73 -1.519 -1.463a44.48 44.48 0 0 0 -0.064 -0.349 15.084 15.084 0 0 1 -0.307 -3.199c0 -1.83 0.078 -2.654 0.334 -3.713A1.7 1.7 0 0 1 1.777 0.396C3.131 0.224 4.55 0.15 5.99 0.129a0.75 0.75 0 0 1 0.76 0.74ZM9.39 0.651C7.771 2.304 6.972 3.88 6.415 5.948c-0.166 0.615 0.312 1.204 0.949 1.204h5.358c0.65 0 1.13 -0.611 0.946 -1.234 -0.61 -2.065 -1.39 -3.598 -2.945 -5.252A0.923 0.923 0 0 0 9.39 0.65Zm1.174 1.725a0.5 0.5 0 0 0 -1 0v1.2a0.5 0.5 0 0 0 1 0v-1.2Zm-0.5 2.748a0.5 0.5 0 0 1 0.5 0.5v0.222a0.5 0.5 0 0 1 -1 0v-0.222a0.5 0.5 0 0 1 0.5 -0.5Z" clip-rule="evenodd" stroke-width="1"></path>
  </g>
</svg>