<svg xmlns="http://www.w3.org/2000/svg" fill="none" viewBox="0 0 24 24" id="Justice-Scale-2--Streamline-Sharp">
  <desc>
    Justice Scale 2 Streamline Icon: https://streamlinehq.com
  </desc>
  <g id="justice-scale-2--office-work-scale-justice-unequal-company-arbitration-unbalance-court">
    <path id="Union" fill="#7af1ff" d="M0 16.1235v3.6667c1.24801 1.664 3.11882 2.8333 5.25 2.8333s4.00199 -1.1693 5.25 -2.8333v-3.6667H0Z" stroke-width="1"></path>
    <path id="Union_2" fill="#7af1ff" d="M13.5 12.6235v3.6667c1.248 1.664 3.1188 2.8333 5.25 2.8333s4.002 -1.1693 5.25 -2.8333v-3.6667H13.5Z" stroke-width="1"></path>
    <path id="Union_3" fill="#0c098c" fill-rule="evenodd" d="m1.35918 10.3705 1.55347 -0.466 -2.793673 5.9366L0 16.0939v3.6963c1.24801 1.664 3.11882 2.8333 5.25 2.8333s4.00199 -1.1693 5.25 -2.8333v-3.6963l-0.119 -0.2528 -3.37196 -7.16551 9.70496 -2.9115 -3.095 6.57701 -0.119 0.2528v3.6963c1.248 1.664 3.1188 2.8333 5.25 2.8333s4.002 -1.1693 5.25 -2.8333v-3.6963l-0.119 -0.2528 -3.5988 -7.64747 3.077 -0.92309 -0.7184 -2.39456L13.25 4.19322V2.37331h-2.5v2.56991L0.640815 7.97598l0.718365 2.39452Zm19.89182 2.253L18.75 7.30898l-2.501 5.31452h5.002ZM5.25 10.809l2.50097 5.3145H2.74903L5.25 10.809ZM2.5 18.8701c0.81061 0.8154 1.78553 1.2534 2.75 1.2534 0.96447 0 1.93939 -0.438 2.75 -1.2534v-0.2466H2.5v0.2466Zm16.25 -2.2466c-0.9645 0 -1.9394 -0.438 -2.75 -1.2534v-0.2466h5.5v0.2466c-0.8106 0.8154 -1.7855 1.2534 -2.75 1.2534Z" clip-rule="evenodd" stroke-width="1"></path>
  </g>
</svg>