<svg xmlns="http://www.w3.org/2000/svg" fill="none" viewBox="0 0 24 24" id="500px-Logo-1--Streamline-Logos">
  <desc>
    500px Logo 1 Streamline Icon: https://streamlinehq.com
  </desc>
  <path fill="#000000" fill-rule="evenodd" d="M7.5 6.75H2.414l-1.375 5.5h2.39l0.201 -0.342a1.018 1.018 0 0 1 0.24 -0.181c0.244 -0.139 0.737 -0.327 1.626 -0.327 0.56 0 0.927 0.222 1.177 0.56 0.27 0.362 0.433 0.904 0.433 1.54 0 0.616 -0.176 1.163 -0.538 1.55 -0.352 0.376 -0.973 0.7 -2.068 0.7 -1.586 0 -2.25 -1.164 -2.25 -1.75H0.75c0 1.414 1.336 3.25 3.75 3.25 1.405 0 2.462 -0.426 3.163 -1.175 0.376 -0.402 0.622 -0.868 0.768 -1.352 0.108 0.36 0.273 0.733 0.517 1.082 0.583 0.834 1.567 1.445 3.052 1.445 0.916 0 1.721 -0.54 2.377 -1.13 0.467 -0.42 0.928 -0.933 1.373 -1.454 0.445 0.521 0.906 1.033 1.373 1.454 0.656 0.59 1.46 1.13 2.377 1.13 1.485 0 2.469 -0.612 3.052 -1.445 0.553 -0.79 0.698 -1.707 0.698 -2.305 0 -0.598 -0.145 -1.515 -0.698 -2.305 -0.583 -0.833 -1.567 -1.445 -3.052 -1.445 -0.916 0 -1.721 0.54 -2.377 1.13 -0.467 0.42 -0.928 0.933 -1.373 1.454 -0.444 -0.521 -0.906 -1.033 -1.373 -1.454 -0.656 -0.59 -1.46 -1.13 -2.377 -1.13 -1.485 0 -2.469 0.612 -3.052 1.445 -0.237 0.338 -0.399 0.7 -0.507 1.05a3.568 3.568 0 0 0 -0.563 -1.18C7.348 10.352 6.536 9.9 5.496 9.9c-1.107 0 -1.863 0.236 -2.367 0.523 -0.035 0.02 -0.07 0.04 -0.102 0.06l0.559 -2.233H7.5v-1.5Zm10.627 8.255c-0.454 -0.408 -0.915 -0.93 -1.4 -1.505 0.485 -0.575 0.946 -1.097 1.4 -1.505 0.594 -0.535 1.04 -0.745 1.373 -0.745 1.015 0 1.531 0.389 1.823 0.805 0.322 0.46 0.427 1.043 0.427 1.445 0 0.402 -0.105 0.985 -0.427 1.445 -0.292 0.417 -0.808 0.805 -1.823 0.805 -0.334 0 -0.779 -0.21 -1.373 -0.745Zm-4.754 -3.01c0.454 0.408 0.915 0.93 1.4 1.505 -0.486 0.575 -0.946 1.097 -1.4 1.505 -0.594 0.535 -1.04 0.745 -1.373 0.745 -1.015 0 -1.531 -0.388 -1.823 -0.805 -0.322 -0.46 -0.427 -1.043 -0.427 -1.445 0 -0.402 0.105 -0.985 0.427 -1.445 0.292 -0.416 0.808 -0.805 1.823 -0.805 0.334 0 0.779 0.21 1.373 0.745Z" clip-rule="evenodd" stroke-width="1"></path>
</svg>