<svg xmlns="http://www.w3.org/2000/svg" fill="none" viewBox="0 0 24 24" id="Accounting-Invoice--Streamline-Freehand">
  <desc>
    Accounting Invoice Streamline Icon: https://streamlinehq.com
  </desc>
  <path fill="#0c6fff" fill-rule="evenodd" d="M14.6697 12.8194c-0.1507 0.1516 -0.1507 0.3965 0 0.5481 0.6415 0.5534 1.4552 0.8669 2.3021 0.8871 0 0.2392 0 0.4883 0.0698 0.7274 0 0.2992 0.3239 0.4863 0.5831 0.3367 0.1202 -0.0694 0.1943 -0.1978 0.1943 -0.3367v-0.7075c0.2625 -0.0245 0.5226 -0.0712 0.7773 -0.1395 1.1714 -0.2439 1.8904 -1.4299 1.5647 -2.5812 -0.1245 -0.5336 -0.5292 -0.9574 -1.0564 -1.1063 -0.3618 -0.0879 -0.735 -0.1182 -1.1063 -0.0896V9.10214c0.344 0.02582 0.681 0.1101 0.9967 0.24908 0.1681 0.08082 0.3702 0.015 0.4583 -0.14949 0.0882 -0.1651 0.0257 -0.3703 -0.1394 -0.45836 -0.4239 -0.22337 -0.882 -0.375 -1.3554 -0.44847V6.83979c0.0175 -0.18928 -0.1199 -0.35775 -0.3089 -0.37867 -0.1875 -0.01735 -0.353 0.12143 -0.3688 0.30888 -0.0997 0.47837 -0.1694 0.99663 -0.2591 1.4651 -0.256 0.00571 -0.5103 0.04245 -0.7574 0.10959 -0.9301 0.165 -1.5367 1.07021 -1.3354 1.99321 0.0516 0.5389 0.4082 1.0003 0.9168 1.186 0.2824 0.0954 0.5789 0.1426 0.877 0.1395v0.4484c0 0.4186 0.0797 0.8173 0.1295 1.2258 -0.6 0.029 -1.1916 -0.1506 -1.6743 -0.5082 -0.1434 -0.129 -0.3598 -0.1333 -0.5082 -0.01Zm3.9864 -1.1759c0.1495 0 0.2791 0.0598 0.3289 0.2292 0.2392 0.7275 -0.3488 1.1361 -1.0564 1.3255l0.0597 -1.0964v-0.4783c0.2226 -0.0231 0.4471 -0.0165 0.6678 0.02Zm-2.5513 -1.5448c-0.1395 -0.56809 0.2791 -0.83717 0.7873 -0.99656 0 0.15939 -0.0598 0.30888 -0.0797 0.46837 -0.0199 0.15949 0 0.50829 -0.0499 0.75749 -0.1126 0.0099 -0.226 0.0099 -0.3387 0 -0.1396 0 -0.2791 -0.0499 -0.319 -0.2293Z" clip-rule="evenodd" stroke-width="1"></path>
  <path fill="#020202" fill-rule="evenodd" d="M22.7023 6.57073c-0.1196 -1.89357 -0.3189 -3.77714 -0.6279 -5.700611 -0.0137 -0.060715 -0.0449 -0.116123 -0.0897 -0.159388s0 0 0 -0.059796c-0.1314 -0.169898 -0.3738 -0.205204 -0.5482 -0.079796 -0.3387 0.239184 -0.8769 0.747451 -1.4052 1.136121 -0.5282 0.38867 -0.259 0.56806 -1.9931 -1.076325 -0.1521 -0.160714 -0.3152 -0.310612 -0.4884 -0.448469 -0.174 -0.1233678 -0.3976 -0.1531637 -0.5979 -0.079694 -0.3094 0.124285 -0.5859 0.318775 -0.8073 0.568061 -0.3987 0.408567 -0.7773 0.996637 -1.0763 1.285607 -0.3746 -0.50295 -0.7913 -0.973056 -1.2457 -1.405199 -0.3888 -0.406633 -0.9466 -0.6061224 -1.5049 -0.5381632 -0.3463 0.0812245 -0.6613 0.2612242 -0.907 0.5182652 -0.4034 0.467041 -0.7763 0.959797 -1.1162 1.474897 -0.1227 0.20378 -0.2897 0.37745 -0.48826 0.50827 -0.12959 -0.14949 -0.25918 -0.35878 -0.28908 -0.38868L7.4542 0.351955c-0.13367 -0.122551 -0.3401 -0.118163 -0.46837 0.009898 -0.12826 0.128062 0 0.059796 0 0.079796 -0.11816 0.05847 -0.19469 0.177143 -0.19928 0.308878 0 2.302243 0 4.604383 0.06969 6.906533v4.55444c0 0.9468 0 1.8836 -0.12949 2.8404 -0.02459 0.1829 0.09776 0.3533 0.27898 0.3886 0.1849 0.0189 0.35357 -0.1065 0.38868 -0.289 0.39867 -1.906 0.62551 -3.8438 0.67775 -5.79026 0 -1.15602 0 -2.32214 -0.10969 -3.47816 0.02 -1.465 -0.17939 -2.88021 -0.32888 -4.3851L8.8893 2.77369c0.16511 0.20867 0.34143 0.40837 0.52827 0.59796 0.12469 0.11184 0.29245 0.16286 0.45837 0.13949 0.33426 -0.06255 0.64266 -0.22194 0.88706 -0.45847 0.3617 -0.3552 0.695 -0.73847 0.9965 -1.14602 0.2592 -0.28908 0.4884 -0.58806 0.7774 -0.62786 0.0798 0 0.1494 0.0498 0.2192 0.09959 0.1552 0.10786 0.2988 0.23143 0.4286 0.36878 0.5781 0.58806 1.1261 1.38531 1.475 1.66439 0.2989 0.17357 0.6766 0.12887 0.9268 -0.1097l0.3986 -0.45836c0.2891 -0.31898 0.6479 -0.91694 0.9967 -1.34551 0.0411 -0.05766 0.0878 -0.11102 0.1394 -0.15939 0.0298 0.04847 0.0668 0.09214 0.1097 0.12949 0.1694 0.13959 0.7873 0.91694 1.2457 1.29561 0.2052 0.19051 0.4685 0.30633 0.7475 0.32888 0.3865 -0.06541 0.7481 -0.23408 1.0464 -0.48837 0.3788 -0.29898 0.7575 -0.66765 1.0964 -0.99653 0.1593 1.68428 0.269 3.33857 0.2989 4.98296 0 1.87367 0 3.74727 -0.1296 5.66067 -0.0598 1.4451 -0.1196 2.9201 -0.2989 4.3652 -0.1105 0.9364 -0.3074 1.8605 -0.588 2.7606 -0.3356 0.9384 -0.9829 1.7335 -1.8338 2.2523 -0.7707 0.5731 -1.8169 0.6049 -2.6211 0.0797 -0.3844 -0.2878 -0.6896 -0.6684 -0.8869 -1.1062 -0.3143 -0.7212 -0.5095 -1.4886 -0.5781 -2.2723 -0.026 -0.2124 -0.2152 -0.3664 -0.4286 -0.3487 -0.0882 0.0109 -0.1697 0.0533 -0.2292 0.1195 0.1613 -0.1679 0.331 -0.3276 0.5083 -0.4783 0.2633 -0.1422 0.274 -0.516 0.0192 -0.673 -0.1529 -0.0941 -0.3502 -0.0713 -0.4777 0.055 -0.3886 0.2592 -0.9965 0.8572 -1.5446 1.2358l-0.2591 0.1794c-0.1319 -0.1293 -0.2753 -0.246 -0.4286 -0.3488 -0.5152 -0.5769 -1.0643 -1.1227 -1.6444 -1.6344 -0.26438 -0.2168 -0.59499 -0.3364 -0.93682 -0.3388 -0.32378 0.0613 -0.62205 0.2173 -0.85705 0.4484 -0.40928 0.435 -0.77938 0.9054 -1.10622 1.4053 -0.23918 -0.2591 -0.51826 -0.6777 -0.81724 -0.9967 -0.20786 -0.2256 -0.46796 -0.3966 -0.75745 -0.4982 -0.18541 -0.0569 -0.38653 -0.0276 -0.54806 0.0796 -0.15684 0.1244 -0.30347 0.2611 -0.43858 0.4087l-1.12612 1.455 -0.17939 -0.0997 -1.85367 -1.3454c-0.13245 -0.0828 -0.30541 -0.0575 -0.40867 0.0598h-0.0498c-0.04612 0.0531 -0.07408 0.1194 -0.07969 0.1894l0.10959 2.7407c0.09949 1.3443 0.84173 2.558 1.99326 3.2589 1.11776 0.6368 2.40909 0.9021 3.68735 0.7573 0.54816 -0.0498 1.58469 -0.0697 2.80051 -0.1096 1.21585 -0.0398 2.92005 -0.1394 4.28545 -0.2291 1.6005 -0.1314 3.1914 -0.3611 4.7637 -0.6877 1.4593 -0.5499 2.6227 -1.6844 3.2091 -3.1294 0.3349 -0.9699 0.5687 -1.9718 0.6976 -2.9898 0.1773 -1.4884 0.2705 -2.9858 0.279 -4.4847 0.0199 -1.9633 -0.0697 -3.8569 -0.2092 -5.76037ZM14.9587 22.5861H9.26808c-1.06643 0 -1.99327 0 -2.48153 0.0598 -1.02112 0.1577 -2.06592 -0.006 -2.9899 -0.4683 -0.89122 -0.4709 -1.51337 -1.3287 -1.68418 -2.3222l-0.21929 -1.8138 0.0698 0.0598c0.33877 0.299 0.65775 0.608 0.99653 0.9169 0 0 0.28908 0.309 0.39867 0.4087 0.12817 0.1197 0.31082 0.1616 0.47837 0.1095 0.22061 -0.0822 0.41867 -0.2154 0.57806 -0.3886 0.39857 -0.3787 0.89694 -1.0764 1.18592 -1.3055l0.99663 1.1361s0.27898 0.2791 0.38867 0.3787c0.28541 0.2493 0.71113 0.2493 0.99654 0 0.19938 -0.1993 0.66775 -0.887 1.14612 -1.445 0.12694 -0.1578 0.26694 -0.3045 0.41857 -0.4386 0.02837 -0.0216 0.05204 -0.0488 0.06979 -0.0797 0.63325 0.4386 1.22385 0.9357 1.76395 1.4849 0.1789 0.184 0.3686 0.357 0.5681 0.5183 0.1135 0.0879 0.2555 0.1306 0.3987 0.1195 0.3696 -0.0829 0.7124 -0.2577 0.9965 -0.5082 0.299 -0.2492 0.598 -0.5482 0.887 -0.8272 -0.062 0.0751 -0.0908 0.1723 -0.0798 0.2691 0.048 0.8781 0.2364 1.7429 0.5582 2.5612 0.2455 0.5841 0.6326 1.0978 1.1261 1.4949l0.0997 0.0698c-0.4185 -0.01 -0.6976 0.0099 -0.9766 0.0099Z" clip-rule="evenodd" stroke-width="1"></path>
  <path fill="#0c6fff" fill-rule="evenodd" d="M11.8491 5.16553c-0.3456 -0.07439 -0.6948 -0.13092 -1.0464 -0.16939h-0.4583c-0.1559 -0.0152 -0.3127 -0.0152 -0.46852 0 -0.34561 0.10511 -0.67949 0.24541 -0.99653 0.41858 -0.24704 0.1052 -0.28745 0.43847 -0.07275 0.59969 0.0502 0.03786 0.10979 0.06133 0.17234 0.06796 0.34888 0 0.65776 0.10969 0.99664 0.13959h0.41852l0.4286 -0.0499 0.9966 -0.22918c0.2169 0.01143 0.3989 -0.16153 0.3986 -0.37867 0.0006 -0.20909 -0.1603 -0.38296 -0.3688 -0.39868Z" clip-rule="evenodd" stroke-width="1"></path>
  <path fill="#0c6fff" fill-rule="evenodd" d="M10.8527 7.35808c-0.1857 -0.0152 -0.3724 -0.0152 -0.5581 0 -0.44553 0.10827 -0.88472 0.24133 -1.31553 0.39868 -0.26082 0.01908 -0.40306 0.31347 -0.25602 0.52979 0.06816 0.10041 0.18479 0.15674 0.30592 0.14786 0.43847 0.0698 0.83714 0.16939 1.28563 0.21928 0.1759 0.01 0.3522 0.01 0.5281 0 0.1791 0.01562 0.3591 0.01562 0.5382 0 0.4385 -0.05979 0.8471 -0.14948 1.2756 -0.22928 0.2954 0.04775 0.5318 -0.24214 0.4254 -0.52184 -0.0656 -0.17234 -0.2432 -0.2749 -0.4254 -0.24551 -0.4285 -0.08969 -0.847 -0.17939 -1.2856 -0.22918 -0.1714 -0.03225 -0.3444 -0.05551 -0.5182 -0.0698Z" clip-rule="evenodd" stroke-width="1"></path>
</svg>