<svg xmlns="http://www.w3.org/2000/svg" fill="none" viewBox="0 0 24 24" id="Cash-Payment-Coin-1--Streamline-Freehand">
  <desc>
    Cash Payment Coin 1 Streamline Icon: https://streamlinehq.com
  </desc>
  <path fill="#020202" fill-rule="evenodd" d="M9.66116 16.1561c-0.01368 -0.2224 -0.08186 -0.438 -0.19855 -0.6279 -0.11669 -0.1898 -0.27829 -0.348 -0.47056 -0.4607 -0.58261 -0.2576 -1.21064 -0.3968 -1.84754 -0.4094 -0.22505 -0.0094 -0.44733 -0.0532 -0.65913 -0.1298 -0.06578 -0.0158 -0.12705 -0.0465 -0.17901 -0.0898 -0.05197 -0.0433 -0.09324 -0.098 -0.12059 -0.1599 -0.17976 -0.5093 0.15979 -0.7989 0.5992 -0.9388 0.5761 -0.1515 1.18157 -0.1515 1.75767 0 0.03397 0.0144 0.07052 0.0216 0.10739 0.0213 0.03688 -0.0004 0.07329 -0.0083 0.10698 -0.0233 0.0337 -0.0149 0.06396 -0.0367 0.08893 -0.0638 0.02497 -0.0272 0.0441 -0.0591 0.05622 -0.0939 0.02711 -0.0691 0.02668 -0.1459 -0.00119 -0.2147 -0.02787 -0.0687 -0.08107 -0.1242 -0.14861 -0.1549 -0.32082 -0.1237 -0.65664 -0.2043 -0.99867 -0.2396 0.0207 -0.0347 0.03745 -0.0715 0.04993 -0.1099 0.02941 -0.0841 0.0495 -0.1712 0.05992 -0.2596 0.00999 -0.0863 0.00999 -0.1734 0 -0.2597 0 -0.2197 -0.06991 -0.4194 -0.08988 -0.6292 0.00721 -0.0419 0.00609 -0.0849 -0.00331 -0.1264 -0.00939 -0.0416 -0.02688 -0.0808 -0.05145 -0.1156 -0.02458 -0.0348 -0.05576 -0.0644 -0.09177 -0.0871 -0.03602 -0.0227 -0.07615 -0.0382 -0.11812 -0.0454 -0.04197 -0.0072 -0.08494 -0.0061 -0.12648 0.0033 -0.04153 0.0094 -0.0808 0.0269 -0.11558 0.0515 -0.07023 0.0496 -0.11787 0.1251 -0.13244 0.2099 -0.10516 0.1939 -0.19854 0.394 -0.27963 0.5992 -0.02797 0.0886 -0.0513 0.1786 -0.06991 0.2696 -0.00997 0.0896 -0.00997 0.1801 0 0.2697v0.2197c-0.24834 0.025 -0.49297 0.0786 -0.72903 0.1598 -0.35535 0.1248 -0.64753 0.3841 -0.81374 0.7222 -0.1662 0.338 -0.19316 0.7277 -0.07507 1.0854 0.0529 0.2084 0.15351 0.4017 0.29389 0.5646 0.14038 0.1629 0.31669 0.291 0.51503 0.3741 0.57468 0.1922 1.17257 0.3064 1.77764 0.3396 0.35952 0.0499 0.72903 0.0699 0.77896 0.4494 0.04993 0.3795 -0.34953 0.6791 -0.80892 0.8289 -0.25204 0.082 -0.51414 0.129 -0.77897 0.1398l-0.10985 0c-0.2497 0.0133 -0.49979 -0.0171 -0.73902 -0.0899 -0.15691 -0.0504 -0.30033 -0.1358 -0.41944 -0.2497 -0.1418 -0.1251 -0.2691 -0.2658 -0.3795 -0.4194 -0.02382 -0.0355 -0.05472 -0.0656 -0.09076 -0.0886 -0.03604 -0.0229 -0.07643 -0.0381 -0.11864 -0.0447 -0.04221 -0.0066 -0.08533 -0.0043 -0.12663 0.0066 -0.0413 0.0109 -0.0799 0.0302 -0.11337 0.0568 -0.03517 0.0228 -0.06515 0.0528 -0.088 0.088 -0.02285 0.0351 -0.03807 0.0747 -0.04466 0.1161 -0.00659 0.0415 -0.00441 0.0838 0.0064 0.1243 0.01081 0.0406 0.03001 0.0784 0.05635 0.111 0.14516 0.2431 0.32328 0.4649 0.5293 0.6591 0.15435 0.137 0.32968 0.2482 0.51931 0.3296 0.17438 0.0676 0.35502 0.1177 0.53928 0.1498v0.0699c-0.03148 0.0835 -0.05163 0.1708 -0.05992 0.2596 -0.005 0.0832 -0.005 0.1666 0 0.2497 0 0.2297 0.06991 0.4195 0.09987 0.6292 -0.01022 0.0415 -0.01142 0.0848 -0.00352 0.1268 0.0079 0.0421 0.02472 0.082 0.04932 0.117 0.0246 0.035 0.05642 0.0643 0.09331 0.086 0.03688 0.0217 0.07799 0.0352 0.12054 0.0397 0.04144 0.0086 0.08421 0.0086 0.12566 0 0.04144 -0.0085 0.0807 -0.0255 0.11533 -0.0498 0.03463 -0.0244 0.0639 -0.0555 0.086 -0.0916 0.02211 -0.0361 0.03658 -0.0764 0.04252 -0.1183 0.10516 -0.1939 0.19854 -0.394 0.27963 -0.5992 0.03262 -0.0872 0.05605 -0.1775 0.06991 -0.2696 0.00997 -0.0896 0.00997 -0.1801 0 -0.2697 0.00408 -0.0431 0.00408 -0.0866 0 -0.1298 0.38194 -0.0151 0.75924 -0.0892 1.11851 -0.2197 0.35095 -0.1032 0.65656 -0.3224 0.86695 -0.6216 0.21039 -0.2993 0.31315 -0.661 0.29151 -1.0262Z" clip-rule="evenodd" stroke-width="1"></path>
  <path fill="#020202" fill-rule="evenodd" d="M23.7927 7.22798c-0.7091 -0.36951 -1.4381 -0.70906 -2.1472 -1.07857 -0.4693 -0.23968 -0.9387 -0.48935 -1.3781 -0.75899 -0.9987 -0.60919 -1.9974 -1.48802 -2.996 -2.19708 -0.718 -0.54789 -1.5353 -0.95146 -2.4068 -1.18842 -0.7667 -0.15571 -1.5603 -0.11564 -2.3074 0.11651 -0.7471 0.23216 -1.4236 0.64891 -1.967 1.21173 -1.11253 0.93761 -2.11738 1.99605 -2.99598 3.1558 -0.44618 0.50907 -0.76154 1.11923 -0.91878 1.77764 -0.07989 0.32956 0.54927 0.4494 0.66911 0 0.17387 -0.49899 0.45707 -0.9528 0.8289 -1.32824 0.91036 -1.05934 1.93905 -2.01095 3.06595 -2.83623 0.4407 -0.42899 0.9793 -0.74413 1.5692 -0.91814s1.2133 -0.20165 1.8163 -0.08053c0.7462 0.20692 1.4496 0.54509 2.0772 0.99867 1.0586 0.6791 2.0872 1.51799 3.1458 2.07724 0.3596 0.19974 0.7291 0.3795 1.0986 0.54927 0.8488 0.38948 1.7177 0.74901 2.5666 1.13849 0.0434 0.0207 0.0909 0.03163 0.139 0.03202 0.0481 0.0004 0.0958 -0.00976 0.1396 -0.02975 0.0437 -0.01999 0.0826 -0.04933 0.1139 -0.08595 0.0312 -0.03663 0.054 -0.07965 0.0668 -0.12604 0.0178 -0.03983 0.0272 -0.08287 0.0277 -0.12648 0.0005 -0.04361 -0.0079 -0.08686 -0.0247 -0.12708 -0.0169 -0.04023 -0.0418 -0.07659 -0.0732 -0.10683 -0.0314 -0.03025 -0.0687 -0.05374 -0.1095 -0.06904Z" clip-rule="evenodd" stroke-width="1"></path>
  <path fill="#0c6fff" fill-rule="evenodd" d="M8.60273 8.93571c-1.3974 -0.23308 -2.83206 -0.07406 -4.14449 0.45939 -1.10463 0.47199 -2.07755 1.2061 -2.83452 2.1389 -0.756969 0.9327 -1.275162 2.0359 -1.509704 3.214 -0.238162 1.1961 -0.1012186 2.4366 0.39212 3.552 0.493339 1.1154 1.319014 2.0512 2.364214 2.6797 0.38866 0.2477 0.79602 0.4647 1.21838 0.6491 0.42831 0.1961 0.88221 0.3306 1.34821 0.3995 0.53633 0.0799 1.08152 0.0799 1.61785 0 0.77748 -0.1313 1.53785 -0.349 2.26698 -0.6491 0.03476 -0.0125 0.06672 -0.0317 0.09406 -0.0565 0.02734 -0.0248 0.04952 -0.0547 0.06529 -0.0881 0.01576 -0.0334 0.0248 -0.0696 0.02659 -0.1065 0.00179 -0.0368 -0.0037 -0.0737 -0.01616 -0.1085 -0.01246 -0.0347 -0.03164 -0.0667 -0.05645 -0.094 -0.02482 -0.0273 -0.05477 -0.0495 -0.08815 -0.0653 -0.03339 -0.0158 -0.06955 -0.0248 -0.10643 -0.0266 -0.03687 -0.0018 -0.07374 0.0037 -0.10849 0.0162 -0.69296 0.2386 -1.4094 0.4027 -2.13716 0.4893 -0.46924 0.0537 -0.94387 0.0369 -1.40813 -0.0499 -0.39729 -0.0808 -0.78077 -0.2187 -1.13849 -0.4095 -0.37514 -0.1855 -0.73569 -0.3991 -1.07856 -0.6391 -0.85092 -0.5537 -1.51491 -1.3514 -1.90513 -2.2886 -0.39021 -0.9373 -0.488487 -1.9704 -0.28196 -2.9644 0.19494 -1.0145 0.6292 -1.9678 1.26666 -2.7807 0.63746 -0.8129 1.45973 -1.4619 2.39846 -1.8931 1.13899 -0.51096 2.39691 -0.69757 3.63517 -0.5393 0.87409 0.04409 1.71381 0.3542 2.40681 0.8888 0.3595 0.2497 0.8688 -0.1198 0.5992 -0.4094 -0.7972 -0.73556 -1.80829 -1.19739 -2.88617 -1.31829Z" clip-rule="evenodd" stroke-width="1"></path>
  <path fill="#0c6fff" fill-rule="evenodd" d="M12.987 16.985c-0.1067 0.3094 -0.2301 0.6127 -0.3695 0.9088 -0.1922 0.3533 -0.4022 0.6966 -0.6292 1.0286 -0.368 0.5383 -0.8754 0.9664 -1.468 1.2384 -0.0367 0.0203 -0.0691 0.0477 -0.0952 0.0805 -0.0262 0.0328 -0.0456 0.0705 -0.0572 0.1108 -0.0116 0.0404 -0.0151 0.0826 -0.0104 0.1243 0.0047 0.0417 0.0176 0.0821 0.038 0.1188 0.0203 0.0367 0.0476 0.0691 0.0805 0.0952 0.0328 0.0262 0.0705 0.0456 0.1108 0.0572 0.0404 0.0116 0.0826 0.0151 0.1243 0.0104 0.0417 -0.0047 0.0821 -0.0176 0.1188 -0.038 0.7967 -0.3585 1.4854 -0.9198 1.9973 -1.6278 0.2316 -0.309 0.426 -0.6442 0.5793 -0.9987 0.1544 -0.3564 0.2716 -0.7279 0.3495 -1.1085 0.11 -0.5975 0.11 -1.2101 0 -1.8076 -0.0799 -0.2596 -0.5593 -0.2197 -0.5892 0.2397 0.0021 0.5279 -0.0582 1.0542 -0.1798 1.5679Z" clip-rule="evenodd" stroke-width="1"></path>
  <path fill="#020202" fill-rule="evenodd" d="M23.2034 11.0929c-0.0746 -0.0405 -0.1619 -0.0506 -0.2438 -0.0283 -0.0818 0.0224 -0.1519 0.0754 -0.1956 0.1481 -0.2029 0.3505 -0.4747 0.6563 -0.799 0.8988 -0.3157 0.24 -0.6806 0.4071 -1.0686 0.4893 -0.1956 0.0248 -0.3936 0.0248 -0.5892 0 -0.9182 -0.1824 -1.8504 -0.286 -2.7863 -0.3095 -0.9986 0.1298 -2.7463 1.2383 -4.2643 1.508 -0.3815 0.1275 -0.7966 0.1092 -1.1654 -0.0512 -0.3688 -0.1604 -0.6652 -0.4517 -0.832 -0.8177 -0.2896 -0.5493 0.1598 -0.8589 0.6791 -1.1884 0.9987 -0.6591 2.4268 -1.2783 2.9961 -2.22705 0.1618 -0.27136 0.2602 -0.57577 0.2879 -0.8905 0.0276 -0.31474 -0.0162 -0.63165 -0.1282 -0.92708 -0.5992 -1.72771 -1.6178 -1.99735 -2.6364 -1.508 -1.03 0.48565 -1.8545 1.32074 -2.327 2.35687 -0.21966 0.36951 0.1798 0.66911 0.5293 0.2996 0.4346 -0.88587 1.1817 -1.57957 2.0973 -1.94741 0.6391 -0.20972 1.2283 0.09987 1.488 1.09854 0.2596 0.88882 -0.3496 1.38815 -1.0586 1.83755 -0.4095 0.24968 -0.8489 0.48938 -1.2683 0.71908 -0.4712 0.2668 -0.9159 0.5778 -1.3283 0.9287 -0.2709 0.2495 -0.4454 0.5863 -0.4929 0.9515 -0.0475 0.3652 0.0351 0.7355 0.2333 1.0459 0.1718 0.4534 0.4804 0.8421 0.883 1.1123 0.4026 0.2702 0.8793 0.4085 1.364 0.3957 0.9569 -0.0852 1.8907 -0.3424 2.7563 -0.759 0.7342 -0.4152 1.511 -0.75 2.317 -0.9987 0.8834 -0.0013 1.7654 0.0722 2.6364 0.2197 0.2625 0.0043 0.5244 -0.0259 0.779 -0.0899 0.4844 -0.1233 0.9371 -0.348 1.3282 -0.6591 0.3774 -0.3149 0.6924 -0.6976 0.9288 -1.1285 0.0265 -0.0385 0.0445 -0.0822 0.0528 -0.1282 0.0083 -0.0459 0.0067 -0.0932 -0.0046 -0.1385 -0.0113 -0.0453 -0.0322 -0.0877 -0.0611 -0.1244 -0.029 -0.0367 -0.0654 -0.0667 -0.1069 -0.0882Z" clip-rule="evenodd" stroke-width="1"></path>
</svg>