<svg xmlns="http://www.w3.org/2000/svg" fill="none" viewBox="0 0 24 24" id="Credit-Card-1--Streamline-Freehand">
  <desc>
    Credit Card 1 Streamline Icon: https://streamlinehq.com
  </desc>
  <path fill="#020202" fill-rule="evenodd" d="M23.3829 10.8477c-1.4413 -0.5444 -2.9388 -0.92632 -4.4648 -1.13867 -3.3561 -0.50941 -11.72642 -0.11986 -12.75523 -0.14982 -0.0446 -0.00134 -0.08903 0.00614 -0.13075 0.02198 -0.04171 0.01585 -0.07989 0.03977 -0.11236 0.07038 -0.03246 0.03061 -0.05858 0.06732 -0.07685 0.10803 -0.01827 0.04071 -0.02834 0.08462 -0.02964 0.12922 0 0.62928 0.50941 0.19978 7.99073 0.37958 7.4814 0.1798 8.64 1.4683 9.0495 1.5682 -0.0231 0.3337 -0.0063 0.669 0.05 0.9988 -0.0599 1.4683 -0.1898 3.7956 -0.3996 5.2539 -0.829 5.8133 0.4595 3.7357 -7.0618 3.5259 -8.98957 -0.2297 -10.21814 0.1399 -10.23812 -1.678 0 -0.0799 0.4295 -5.9931 0.43949 -5.9931 0.00999 0 1.83787 0.1598 3.07644 0.1399 2.81669 0.2297 1.37839 0.0699 6.54239 0.1798 4.9143 0.0998 6.7622 0.2996 6.932 0.2796 0.0935 -0.0016 0.1833 -0.0368 0.253 -0.0991 0.0697 -0.0624 0.1146 -0.1477 0.1266 -0.2405 0 -0.5294 -0.6093 -0.3895 -7.2816 -0.9988 -1.9977 -0.0599 -9.51898 0.1698 -9.59889 0.1998 0 -0.5894 0.15982 -1.9977 0.27968 -2.5671 0.00054 -0.0702 -0.02357 -0.1383 -0.06812 -0.1925 -0.04456 -0.0543 -0.10674 -0.0911 -0.17569 -0.1042 -0.06895 -0.0131 -0.14031 -0.0015 -0.20163 0.0326 -0.06131 0.0342 -0.1087 0.0887 -0.13389 0.1543 -0.26969 1.2185 -0.72916 6.5524 -0.84902 7.8409 -0.22014 0.8347 -0.22014 1.7123 0 2.547 0.57933 1.3285 2.69688 1.2086 3.8056 1.3385 3.26626 0.3596 6.78216 0.1698 9.98846 0.5593 1.3584 0.1598 3.8156 0.7991 4.4648 -0.4295 0.6492 -1.2286 0.6293 -2.9965 0.7991 -4.265 0.2132 -1.7836 0.3266 -3.5776 0.3396 -5.3738 0.0299 -0.919 0.2797 -1.728 -0.5594 -2.0976Z" clip-rule="evenodd" stroke-width="1"></path>
  <path fill="#0c6fff" fill-rule="evenodd" d="M1.77794 11.2373c-0.47944 -1.9977 -0.52939 -1.4783 0.11986 -1.60815 5.42156 -1.3178 10.7585 -2.96223 15.9815 -4.9243 0.6492 1.67806 1.3085 3.46599 1.3984 3.80559 0.0232 0.073 0.0736 0.13431 0.1406 0.17135 0.0671 0.03704 0.1458 0.04699 0.2199 0.02781 0.0742 -0.01918 0.1382 -0.06604 0.1789 -0.13094 0.0407 -0.06491 0.055 -0.14293 0.0399 -0.21804 -0.6714 -2.43227 -1.4648 -4.82919 -2.3772 -7.18169 -0.0729 -0.14985 -0.192 -0.272379 -0.3396 -0.349592C14.5332 -0.279379 0.789086 5.03447 0.299653 5.55387c-0.042764 0.02712 -0.078704 0.06373 -0.105032 0.10698 -0.026328 0.04326 -0.042335 0.092 -0.046781 0.14244 -0.004445 0.05044 0.002791 0.10123 0.021148 0.14843 0.018357 0.04719 0.04734 0.08952 0.084701 0.1237s0.082096 0.0593 0.130732 0.07339c0.048636 0.0141 0.099867 0.0168 0.149716 0.0079 0.04985 -0.0089 0.096978 -0.02917 0.137728 -0.05923 0.040749 -0.03006 0.074025 -0.06911 0.097244 -0.11411C1.23857 5.53389 14.5931 1.42864 16.5708 1.69833c0.1998 0.4295 0 -0.35958 0.9989 2.31732 -1.9977 0.56934 -6.7922 1.85785 -10.23819 2.99653C4.46483 8.031 2.04763 8.91997 1.74798 8.9799c-0.17642 0.03776 -0.34998 0.08782 -0.5194 0.14983 -0.289667 -1.0388 -0.559355 -1.96772 -0.639262 -2.4172 -0.017973 -0.0693 -0.060161 -0.12987 -0.118926 -0.17075 -0.058766 -0.04089 -0.130226 -0.05938 -0.201447 -0.05214 -0.07122 0.00724 -0.137495 0.03975 -0.1868271 0.09162 -0.0493323 0.05188 -0.07846252 0.1197 -0.0821179 0.1912 0.119861 3.04647 1.61813 9.24924 2.40721 10.09834 0.06277 0.0519 0.14211 0.0795 0.22355 0.0778 0.08144 -0.0017 0.15956 -0.0326 0.22011 -0.0871 0.06054 -0.0545 0.09949 -0.1289 0.10973 -0.2097 0.01023 -0.0808 -0.00892 -0.1626 -0.05397 -0.2305 -0.54936 -0.6593 -0.23972 -1.3784 -1.12869 -5.184Z" clip-rule="evenodd" stroke-width="1"></path>
  <path fill="#0c6fff" fill-rule="evenodd" d="M17.0302 6.68255c-1.1752 0.1905 -2.3339 0.471 -3.466 0.83903 -0.7891 0.29965 -1.2686 0.55935 -1.3884 0.5993 -0.214 0.06323 -0.4213 0.14685 -0.6193 0.24971 -0.3496 0.2597 -0.1199 0.66923 0.1898 0.58932 1.1894 -0.15243 2.3605 -0.42347 3.4959 -0.80906 0.6193 -0.22974 1.2686 -0.52939 1.9977 -0.82904 0.0737 -0.03601 0.1318 -0.09746 0.1637 -0.173 0.0319 -0.07554 0.0354 -0.16008 0.0099 -0.23799 -0.0256 -0.07791 -0.0785 -0.14394 -0.149 -0.1859 -0.0704 -0.04196 -0.1537 -0.05701 -0.2343 -0.04237Z" clip-rule="evenodd" stroke-width="1"></path>
  <path fill="#020202" fill-rule="evenodd" d="M13.0549 16.5012c0.0755 0.0198 0.1558 0.0089 0.2232 -0.0304 0.0675 -0.0394 0.1165 -0.1039 0.1364 -0.1794 0.0198 -0.0755 0.0089 -0.1558 -0.0304 -0.2232 -0.0394 -0.0674 -0.1039 -0.1165 -0.1794 -0.1364 -0.3531 -0.1099 -0.7267 -0.1374 -1.0921 -0.0802 -0.3654 0.0571 -0.7128 0.1974 -1.0154 0.4099 -0.2327 -0.275 -0.5291 -0.4888 -0.8634 -0.6228 -0.33427 -0.1341 -0.69627 -0.1843 -1.05443 -0.1464 -0.46935 0.0811 -0.91262 0.2729 -1.29304 0.5596 -0.38042 0.2866 -0.68704 0.6597 -0.89442 1.0885 -0.13959 0.2778 -0.21408 0.5838 -0.21784 0.8947 -0.00375 0.3109 0.06335 0.6185 0.19619 0.8996 0.13285 0.2811 0.32796 0.5282 0.57054 0.7227 0.24257 0.1945 0.52625 0.3311 0.82951 0.3997 0.53938 0.1598 1.77799 0.2497 1.74799 -0.3197 0.2309 0.3546 0.588 0.6081 0.9988 0.7092 0.5567 0.1835 1.1512 0.221 1.7265 0.1091 0.5754 -0.1119 1.1124 -0.3696 1.5597 -0.7483 0.879 -1.0788 0.919 -2.8168 -0.2597 -3.4161 -0.0761 -0.0266 -0.1592 -0.0252 -0.2344 0.0039 -0.0752 0.0291 -0.1376 0.084 -0.176 0.1548 -0.0385 0.0709 -0.0504 0.1531 -0.0338 0.232 0.0166 0.0789 0.0608 0.1493 0.1246 0.1986 0.6592 0.3696 0.4894 1.5382 -0.1398 2.1775 -0.435 0.2799 -0.9564 0.3934 -1.4683 0.3196 -0.879 0 -1.5582 -0.3096 -1.3884 -1.3085 0.0328 -0.2574 0.1171 -0.5056 0.2478 -0.7299 0.1306 -0.2243 0.305 -0.42 0.5128 -0.5756 0.2077 -0.1556 0.4446 -0.2678 0.6966 -0.3301 0.252 -0.0623 0.5139 -0.0733 0.7702 -0.0324Zm-3.05647 2.9965c-0.07375 -0.0294 -0.15599 -0.0294 -0.22974 0 -0.35157 0.05 -0.71002 -0.0083 -1.02763 -0.1671 -0.31762 -0.1588 -0.57933 -0.4106 -0.75031 -0.7219 -0.5194 -0.9988 1.34844 -3.1164 2.61695 -1.9976 -0.4004 0.3458 -0.67736 0.8126 -0.78908 1.3297 -0.11172 0.5172 -0.05211 1.0566 0.16982 1.5369l0.00999 0.02Z" clip-rule="evenodd" stroke-width="1"></path>
</svg>