<svg xmlns="http://www.w3.org/2000/svg" fill="none" viewBox="0 0 24 24" id="Credit-Card-Smartphone--Streamline-Freehand">
  <desc>
    Credit Card Smartphone Streamline Icon: https://streamlinehq.com
  </desc>
  <path fill="#020202" fill-rule="evenodd" d="M9.43737 11.3814c0.01031 -0.211 -0.02758 -0.4216 -0.1108 -0.6157 -0.08321 -0.1942 -0.20957 -0.3669 -0.36947 -0.5049 -0.54719 -0.32592 -1.15793 -0.53064 -1.79099 -0.60035 -0.22495 -0.03652 -0.44379 -0.10386 -0.65036 -0.20011 -0.06342 -0.02851 -0.1202 -0.06993 -0.16671 -0.12161 -0.04651 -0.05169 -0.08174 -0.1125 -0.10344 -0.17856 -0.13007 -0.53029 0.21011 -0.80044 0.65036 -0.9005 0.58025 -0.09485 1.17539 -0.0291 1.72095 0.19011 0.06154 0.02542 0.13029 0.02723 0.19307 0.00507 0.06279 -0.02216 0.11518 -0.06672 0.14712 -0.12514 0.01792 -0.06167 0.01486 -0.12754 -0.00867 -0.18729 -0.02354 -0.05975 -0.06624 -0.11001 -0.1214 -0.14289 -0.27064 -0.16742 -0.56375 -0.29544 -0.87048 -0.38021 0 0 0 -0.08005 0.07003 -0.13007 0.03124 -0.08525 0.05796 -0.17209 0.08005 -0.26015v-0.9105c0.01831 -0.08084 0.00457 -0.16563 -0.03835 -0.23654s-0.11167 -0.12241 -0.19178 -0.14367c-0.04009 -0.01043 -0.08186 -0.01272 -0.12285 -0.00673 -0.041 0.00598 -0.08037 0.02012 -0.11581 0.04157 -0.03544 0.02145 -0.06622 0.04978 -0.09053 0.08332 -0.02432 0.03354 -0.04166 0.07161 -0.05102 0.11197 -0.12349 0.18895 -0.23381 0.38619 -0.33018 0.59032 -0.06332 0.07295 -0.11711 0.15364 -0.16009 0.24014 -0.03438 0.09628 -0.05132 0.19793 -0.05003 0.30016 -0.00539 0.07328 -0.00539 0.14685 0 0.22012 -0.25055 0.00423 -0.49946 0.04123 -0.74041 0.11006 -0.3568 0.09864 -0.66101 0.33264 -0.84789 0.6522 -0.18687 0.31955 -0.24165 0.69942 -0.15266 1.05875 0.02963 0.20888 0.10743 0.40801 0.22725 0.58166 0.11982 0.17367 0.27837 0.31707 0.46313 0.41887 0.54934 0.2548 1.13219 0.43 1.73096 0.5203 0.35019 0.0901 0.70039 0.1601 0.7204 0.5603 0.02001 0.4002 -0.38021 0.6604 -0.84047 0.7604 -0.51915 0.1167 -1.06085 0.0819 -1.56086 -0.1 -0.14834 -0.0649 -0.28131 -0.1604 -0.39022 -0.2802 -0.12775 -0.1458 -0.24164 -0.3032 -0.34019 -0.4702 -0.04193 -0.0721 -0.11036 -0.1251 -0.19072 -0.1475 -0.08036 -0.0224 -0.16629 -0.0126 -0.23952 0.0274 -0.03586 0.0207 -0.06723 0.0483 -0.09225 0.0812 -0.02503 0.033 -0.0432 0.0706 -0.05346 0.1107 -0.01026 0.0401 -0.01238 0.0819 -0.00626 0.1228 0.00612 0.0409 0.02037 0.0802 0.04191 0.1155 0.12013 0.2568 0.275 0.4959 0.46026 0.7104 0.1376 0.1528 0.29996 0.2814 0.48026 0.3803 0.16447 0.0904 0.33913 0.161 0.52029 0.2101l0 0.08c-0.03255 0.0805 -0.05604 0.1644 -0.07004 0.2502 -0.00991 0.0897 -0.00991 0.1803 0 0.2701v0.6404c-0.01057 0.0394 -0.01327 0.0805 -0.00792 0.121 0.00534 0.0404 0.01862 0.0794 0.03907 0.1148 0.02045 0.0353 0.04767 0.0662 0.08009 0.091 0.03243 0.0248 0.06943 0.0429 0.10889 0.0534 0.04074 0.0119 0.08352 0.0154 0.12567 0.0102 0.04215 -0.0052 0.08277 -0.0191 0.11936 -0.0406 0.03658 -0.0216 0.06834 -0.0505 0.09332 -0.0848 0.02497 -0.0344 0.04263 -0.0735 0.05186 -0.115 0.1031 -0.1871 0.19336 -0.3809 0.27015 -0.5803 0.04046 -0.0862 0.07068 -0.1769 0.09005 -0.2701 0.01034 -0.0898 0.01034 -0.1804 0 -0.2702 0.00555 -0.0432 0.00555 -0.0869 0 -0.1301 0.38203 0.0359 0.76735 0.0088 1.14063 -0.08 0.36313 -0.085 0.68582 -0.2927 0.91365 -0.588 0.22783 -0.2953 0.34687 -0.6601 0.33705 -1.0329Z" clip-rule="evenodd" stroke-width="1"></path>
  <path fill="#0c6fff" fill-rule="evenodd" d="M7.53627 19.4158s-1.11062 -0.2701 -2.5314 -0.4702c-0.48027 -0.0701 -1.00056 -0.1101 -1.53085 -0.1501 -0.75042 -0.05 -1.48082 -0.07 -2.11117 -0.1201 -0.0791 -2.9887 0.07142 -5.9792 0.45025 -8.94492 0.29016 -2.74152 0.65036 -5.44301 1.00055 -7.12394 0.06791 -0.3983 0.1581 -0.79247 0.27015 -1.18066 0.03214 -0.09184 0.06887 -0.182 0.11006 -0.27015 0.09382 -0.05644 0.20072 -0.08748 0.31017 -0.09005 0.33293 -0.02812 0.66763 -0.02812 1.00056 0l0.09005 1.13063c-0.00851 0.16665 -0.00851 0.33363 0 0.50028 0.02683 0.13995 0.0888 0.27079 0.1801 0.38021 0.28251 0.30551 0.65324 0.51536 1.06059 0.60033 0.49354 0.10547 0.9962 0.16243 1.50083 0.17009h1.72095c0.20644 0.01695 0.41391 0.01695 0.62034 0 0.09113 0.02525 0.18637 0.03206 0.28016 0.02002 0.26669 -0.14812 0.48809 -0.36602 0.64039 -0.63035 0.1819 -0.31435 0.3231 -0.65057 0.4202 -1.00056l0.1501 -0.7204h0.4402c0.539 -0.00791 1.061 0.18872 1.4608 0.55031 0.1062 0.17071 0.1585 0.36945 0.1501 0.57031v1.31073l-0.4602 8.62482c-0.0056 0.0833 0.0216 0.1655 0.0758 0.2291 0.0542 0.0635 0.1311 0.1034 0.2143 0.111 0.0416 0.0028 0.0833 -0.0029 0.1226 -0.0167 0.0393 -0.0137 0.0754 -0.0353 0.1062 -0.0633 0.0308 -0.028 0.0557 -0.0619 0.0731 -0.0997 0.0174 -0.0379 0.027 -0.0788 0.0283 -0.1204l0.7004 -8.66482c0.0373 -0.53632 0.0373 -1.07458 0 -1.61089 -0.0227 -0.30674 -0.13 -0.60117 -0.3102 -0.85047 -0.3844 -0.44832 -0.9103 -0.751898 -1.4908 -0.86048C11.1275 0.480436 9.96731 0.41691 8.80697 0.435334L4.48458 0.0451183c-0.44489 -0.0601577 -0.89585 -0.0601577 -1.34074 0 -0.25963 0.0488881 -0.50146 0.1663447 -0.70039 0.3401887 -0.33544 0.495796 -0.54493 1.065903 -0.61034 1.660923 -0.27015 1.33073 -0.52029 3.47192 -0.7304 5.80321C0.706914 11.4774 0.609867 15.1317 0.812544 18.7755c0 0 0 0.05 0.050028 0.08 0.050028 0.0301 0 0 -0.050028 0.0601 -0.01453 0.0836 0.004704 0.1695 0.05348 0.2389 0.048775 0.0694 0.123104 0.1166 0.206666 0.1313 0.65036 0.1701 1.42079 0.3502 2.22123 0.5003l1.00055 0.14c0.34019 0 0.66037 0.0601 1.00056 0.0701 1.29071 0.05 2.27126 0 2.27126 0 0.07373 0.0029 0.14581 -0.0224 0.20157 -0.0707 0.05576 -0.0483 0.09102 -0.1161 0.09859 -0.1895 0.00729 -0.0446 0.00369 -0.0902 -0.01049 -0.1331 -0.01418 -0.0429 -0.03853 -0.0818 -0.07096 -0.1132 -0.03244 -0.0315 -0.07199 -0.0546 -0.1153 -0.0675 -0.04331 -0.0128 -0.08909 -0.015 -0.13343 -0.0064ZM10.5379 1.4559l-0.1901 0.5403c-0.0888 0.24144 -0.2028 0.47284 -0.3402 0.69038 -0.41019 0.65036 -0.65032 0.30017 -0.87044 0.27015l-1.74097 -0.10005c-0.45158 0.00568 -0.90299 -0.02107 -1.35075 -0.08005 -0.42023 -0.08004 -0.58032 0 -0.70039 -0.62034l-0.20011 -1.00056 3.58199 0.30017c0.45025 0.04002 1.10061 0.01001 1.78097 0h0.03Z" clip-rule="evenodd" stroke-width="1"></path>
  <path fill="#020202" fill-rule="evenodd" d="M22.7647 18.0951c-0.1601 -0.8604 -0.2901 -1.881 -0.5003 -2.8415 -0.1393 -0.664 -0.3577 -1.309 -0.6503 -1.9211 -0.07 -0.1072 -0.1669 -0.1941 -0.281 -0.2521 -0.1142 -0.0579 -0.2415 -0.0849 -0.3694 -0.0781 -0.5303 0 -1.881 0.2101 -2.0011 0.2201 -0.7104 0.0501 -1.4108 0.1301 -2.1212 0.2202 -0.7103 0.09 -1.4107 0.1901 -2.1111 0.3001 -0.7004 0.1101 -1.681 0.3202 -2.5114 0.5303 -1.2307 0.3002 -2.45137 0.6504 -3.67205 1.0006 -0.04055 0.0103 -0.07859 0.0288 -0.11182 0.0543 -0.03323 0.0254 -0.06097 0.0573 -0.08153 0.0938 -0.02057 0.0364 -0.03355 0.0767 -0.03815 0.1183 -0.00459 0.0416 -0.00073 0.0837 0.01138 0.1238 0.01046 0.0394 0.02859 0.0764 0.05338 0.1089 0.02478 0.0324 0.05572 0.0596 0.09104 0.0801 0.03532 0.0204 0.07433 0.0337 0.11479 0.039 0.04046 0.0054 0.08158 0.0027 0.121 -0.0079 1.22068 -0.3102 2.45136 -0.6303 3.68206 -0.9005 0.8104 -0.1801 1.6309 -0.3402 2.4613 -0.4502 0.8305 -0.1101 1.3908 -0.1701 2.0812 -0.2402 0.6904 -0.07 1.4008 -0.13 2.0912 -0.1601 0.14 0 1.2907 -0.15 1.861 -0.1601 0.1668 0.4209 0.2941 0.8563 0.3802 1.3008 -1.3808 0.06 -2.7915 0.13 -4.2123 0.3101 -1.0334 0.1167 -2.0591 0.2938 -3.0717 0.5303 -1.6059 0.405 -3.1677 0.9681 -4.66262 1.681l-0.3602 -1.6309c-0.01457 -0.0717 -0.05563 -0.1352 -0.11499 -0.1778 -0.05937 -0.0427 -0.13264 -0.0614 -0.20519 -0.0524 -0.03665 0.0048 -0.07193 0.0171 -0.10365 0.036 -0.03173 0.019 -0.05923 0.0442 -0.0808 0.0742 -0.02157 0.0301 -0.03675 0.0642 -0.04461 0.1003 -0.00786 0.0361 -0.00822 0.0734 -0.00106 0.1097l0.80044 5.2429c0.05003 0.3202 0 1.0006 0.12007 1.4808 0.03786 0.2769 0.14072 0.5409 0.30016 0.7705 0.22458 0.1761 0.50535 0.265 0.79045 0.2501 1.5731 -0.0268 3.1419 -0.174 4.6926 -0.4402 2.2012 -0.3402 4.6025 -0.8105 6.1134 -1.2007 0.6127 -0.1066 1.202 -0.32 1.7409 -0.6304 0.117 -0.1372 0.2056 -0.2963 0.2606 -0.4681 0.0549 -0.1718 0.0752 -0.3527 0.0596 -0.5324 -0.1131 -0.888 -0.2869 -1.7672 -0.5203 -2.6315Zm-9.8054 -0.6904 1.3908 -0.2701 2.0911 -0.4002c1.6609 -0.3102 3.3219 -0.5803 4.9428 -0.7905 0.09 0.5303 0.1701 1.0006 0.2401 1.5309 -0.0049 -0.0396 -0.0177 -0.0778 -0.0375 -0.1123 -0.0198 -0.0346 -0.0464 -0.0649 -0.078 -0.0891 -0.0317 -0.0242 -0.0679 -0.0419 -0.1065 -0.052 -0.0385 -0.0101 -0.0787 -0.0124 -0.1182 -0.0068 -1.3908 0.1001 -2.7715 0.2102 -4.1423 0.3803 -0.5903 0.07 -1.1806 0.16 -1.771 0.2601 -0.5903 0.1001 -1.1706 0.2301 -1.7509 0.3702 -1.3508 0.3302 -2.6715 0.7604 -4.00225 1.2107l-0.19011 -1.0606c1.15516 -0.3993 2.33496 -0.7235 3.53196 -0.9706Zm9.1951 3.602c-0.3031 0.1208 -0.614 0.221 -0.9305 0.3002 -1.1907 0.3402 -3.0817 0.7404 -5.0028 1.1106 -1.8654 0.3913 -3.7535 0.6653 -5.6531 0.8205 -0.1601 0 -0.3202 -0.0801 -0.3802 -0.0501 -0.0692 -0.1589 -0.1131 -0.3277 -0.1301 -0.5002 -0.07005 -0.4603 -0.08005 -1.0006 -0.13008 -1.2707l-0.24014 -1.4108h0.07004c0.77048 -0.1801 1.53088 -0.3302 2.31128 -0.4703l1.8911 -0.3402c0.6203 -0.11 1.2406 -0.2101 1.851 -0.3301 1.851 -0.3602 3.692 -0.7304 5.5731 -1.0006 0.0795 -0.0124 0.1515 -0.0542 0.2016 -0.1173 0.05 -0.063 0.0745 -0.1426 0.0685 -0.2229 0 0.2602 0.0701 0.5303 0.1101 0.7704 0.2438 0.8838 0.3749 1.7949 0.3902 2.7115Z" clip-rule="evenodd" stroke-width="1"></path>
  <path fill="#020202" fill-rule="evenodd" d="M20.4732 19.8061c-0.2467 -0.0924 -0.5012 -0.1627 -0.7604 -0.2101 -0.1129 -0.015 -0.2273 -0.015 -0.3402 0 -0.1197 0.0112 -0.2374 0.0381 -0.3502 0.08 -0.2743 0.1099 -0.5281 0.2655 -0.7504 0.4603 -0.0721 0.0419 -0.125 0.1103 -0.1474 0.1907 -0.0224 0.0804 -0.0126 0.1663 0.0274 0.2395 0.0198 0.0367 0.0468 0.069 0.0793 0.0951 0.0326 0.026 0.0701 0.0452 0.1103 0.0564 0.0401 0.0112 0.0821 0.0142 0.1235 0.0088 0.0413 -0.0054 0.0812 -0.0191 0.1171 -0.0402 0.2161 -0.0249 0.4343 -0.0249 0.6504 0 0.1499 0.0099 0.3003 0.0099 0.4502 0 0.2751 -0.0784 0.5457 -0.1719 0.8105 -0.2802 0.0405 0.0078 0.0822 0.0065 0.1222 -0.0037 0.0399 -0.0103 0.0772 -0.0292 0.109 -0.0555 0.0318 -0.0263 0.0574 -0.0593 0.0749 -0.0966 0.0176 -0.0373 0.0267 -0.0781 0.0267 -0.1193 0 -0.0413 -0.0091 -0.082 -0.0267 -0.1194 -0.0175 -0.0373 -0.0431 -0.0703 -0.0749 -0.0966 -0.0318 -0.0262 -0.0691 -0.0452 -0.109 -0.0554 -0.04 -0.0103 -0.0817 -0.0115 -0.1222 -0.0038l-0.0201 -0.05Z" clip-rule="evenodd" stroke-width="1"></path>
</svg>