<svg xmlns="http://www.w3.org/2000/svg" fill="none" viewBox="0 0 24 24" id="Crypto-Currency-Bitcoin-Code--Streamline-Freehand">
  <desc>
    Crypto Currency Bitcoin Code Streamline Icon: https://streamlinehq.com
  </desc>
  <path fill="#020202" fill-rule="evenodd" d="M12.0623 13.4795c-0.7118 -0.9924 -1.6819 -1.7706 -2.80496 -2.2502 -1.12307 -0.4795 -2.35611 -0.642 -3.56508 -0.4698 -1.5032 0.2436 -2.87696 0.9966 -3.89104 2.1327C0.787145 14.0282 0.194375 15.4783 0.122263 16.9995c-0.0599999 1.89 0.68 4.51 2.379997 5.44 0.0348 0.0274 0.0751 0.0471 0.11816 0.0577 0.04306 0.0106 0.08789 0.0118 0.13147 0.0036 0.04357 -0.0082 0.08487 -0.0257 0.12112 -0.0513 0.03624 -0.0255 0.06658 -0.0585 0.08897 -0.0968 0.02239 -0.0383 0.0363 -0.0809 0.04081 -0.125 0.0045 -0.0442 -0.00051 -0.0887 -0.0147 -0.1307 -0.01419 -0.042 -0.03723 -0.0805 -0.06756 -0.1129 -0.03034 -0.0323 -0.06725 -0.0578 -0.10827 -0.0746 -1.42 -0.85 -1.999997 -3.22 -1.839997 -4.84 0.107257 -1.2846 0.647487 -2.4947 1.532227 -3.4321 0.88475 -0.9374 2.06157 -1.5467 3.33777 -1.7279 0.99971 -0.1355 2.01742 0.0022 2.94523 0.3983 0.92781 0.3962 1.73111 1.036 2.32481 1.8517 2.77 3.84 0.36 9 -4.94004 9.1 -0.45384 0.0045 -0.90674 -0.0425 -1.35 -0.14 -0.04465 -0.0112 -0.09106 -0.0135 -0.13658 -0.0067 -0.04552 0.0068 -0.08926 0.0225 -0.12873 0.0461 -0.03946 0.0237 -0.07388 0.0549 -0.10128 0.0919 -0.0274 0.037 -0.04724 0.079 -0.05841 0.1237 -0.01116 0.0446 -0.01342 0.091 -0.00664 0.1365 0.00677 0.0456 0.02244 0.0893 0.04612 0.1288 0.02368 0.0394 0.0549 0.0738 0.09188 0.1012 0.03698 0.0274 0.07899 0.0473 0.12364 0.0585 0.49656 0.1286 1.00706 0.1958 1.52 0.2 6.11004 0.08 9.05004 -6 5.89004 -10.52Z" clip-rule="evenodd" stroke-width="1"></path>
  <path fill="#020202" fill-rule="evenodd" d="M2.74219 6.11979c0.58123 -0.06894 1.15627 -0.18261 1.72 -0.34 0.03326 -0.03259 0.05968 -0.07149 0.07772 -0.11442 0.01804 -0.04292 0.02733 -0.08902 0.02733 -0.13558 0 -0.04657 -0.00929 -0.09266 -0.02733 -0.13559 -0.01804 -0.04293 -0.04446 -0.08183 -0.07772 -0.11441 -0.15 -0.21 -0.57 -0.28 -0.82 -0.28 0.0056 -0.0331 0.0056 -0.0669 0 -0.1 0.14 -1.4 0.86 -3.08 -0.21 -4.550004 -0.22 -0.349999623 -0.43 -0.349999623 -0.7 -0.349999623 -0.54 0.189999623 -0.73 0.789999623 -0.92 1.340003623 -0.12 0.37 0.44 0.78 0.89 -0.1 0.3 1.04 0.14 2.76 0.3 3.76 -0.15985 -0.00978 -0.32015 -0.00978 -0.48 0 -1.42 0 -1.24 -0.17 -1.52 0.1 -0.079998 0.09 -0.079998 0.28 0.16 0.48 0.46095 0.3337 1.01124 0.52177 1.58 0.54Z" clip-rule="evenodd" stroke-width="1"></path>
  <path fill="#0c6fff" fill-rule="evenodd" d="M7.38222 5.85978c0.45244 0.14067 0.92867 0.1883 1.4 0.14 2.21998 -0.39 2.64998 -4.09 0.93 -5.510004C9.22825 0.286822 8.69763 0.221443 8.17887 0.300846 7.6601 0.380249 7.17333 0.60135 6.77222 0.939776c-0.37133 0.412134 -0.65289 0.897004 -0.82676 1.423794 -0.17388 0.5268 -0.23628 1.084 -0.18324 1.63621 0.03629 0.44229 0.21308 0.86139 0.50455 1.19604 0.29147 0.33464 0.68233 0.5673 1.11545 0.66396Zm0.79 -4.81c2.35998 -0.450004 1.89998 3.62 0.45 3.78 -0.33781 0.01968 -0.67643 -0.02096 -1 -0.12 -1.3 -0.3 -0.95 -3.37 0.55 -3.66Z" clip-rule="evenodd" stroke-width="1"></path>
  <path fill="#020202" fill-rule="evenodd" d="M14.4217 6.11979c0.5777 -0.0699 1.1494 -0.18356 1.71 -0.34 0.0332 -0.03259 0.0596 -0.07149 0.0777 -0.11442 0.018 -0.04292 0.0273 -0.08902 0.0273 -0.13558 0 -0.04657 -0.0093 -0.09266 -0.0273 -0.13559 -0.0181 -0.04293 -0.0445 -0.08183 -0.0777 -0.11441 -0.13 -0.21 -0.57 -0.28 -0.82 -0.28 0.0055 -0.0331 0.0055 -0.0669 0 -0.1 0.13 -1.41 0.85 -3.09 -0.22 -4.560004 -0.21 -0.339999623 -0.44 -0.339999623 -0.69 -0.339999623 -0.54 0.169999623 -0.76 0.769999623 -0.91 1.320003623 -0.13 0.37 0.43 0.78 0.88 -0.1 0.26 1 0.14 2.75 0.27 3.71 -0.1566 -0.00965 -0.3135 -0.00965 -0.47 0 -1.4 0 -1.22 -0.11 -1.47 0.16 -0.08 0.09 -0.08 0.28 0.16 0.48 0.455 0.33193 0.9974 0.52315 1.56 0.55Z" clip-rule="evenodd" stroke-width="1"></path>
  <path fill="#0c6fff" fill-rule="evenodd" d="M19.0518 5.8598c0.4558 0.14094 0.9353 0.18855 1.41 0.14 2.21 -0.37 2.64 -4.07 0.92 -5.490005 -0.484 -0.202953 -1.0146 -0.268332 -1.5334 -0.188929 -0.5187 0.079403 -1.0055 0.300504 -1.4066 0.638929 -0.3722 0.415315 -0.6534 0.903865 -0.8256 1.434285 -0.1723 0.53041 -0.2317 1.09098 -0.1744 1.64572 0.0437 0.43383 0.2227 0.84295 0.5116 1.16954 0.2889 0.32659 0.6731 0.55413 1.0984 0.65046Zm0.79 -4.81c2.36 -0.450005 1.9 3.62 0.45 3.78 -0.3378 0.01968 -0.6765 -0.02096 -1 -0.12 -1.29 -0.3 -0.95 -3.37 0.55 -3.66Z" clip-rule="evenodd" stroke-width="1"></path>
  <path fill="#020202" fill-rule="evenodd" d="M16.7518 22.6392c0.0047 -0.0365 0.0047 -0.0735 0 -0.11 0.11 -1.19 0.58 -2.4 0.23 -3.63 -0.16 -0.55 -0.59 -1.43 -1.15 -1.25 -0.56 0.18 -0.58 0.46 -0.82 0.94 -0.24 0.48 -0.21 0.62 0.05 0.76 0.1 0.06 0.41 0.14 0.73 -0.48 0.25 1 0.15 2.82 0.27 3.71 -0.1561 -0.0192 -0.3139 -0.0192 -0.47 0 -1.4 0.05 -1.22 -0.11 -1.46 0.16 -0.09 0.1 -0.09 0.28 0.15 0.49 0.4605 0.32 1.0002 0.5068 1.56 0.54 0.578 -0.0732 1.1497 -0.1902 1.71 -0.35 0.033 -0.0317 0.0592 -0.0697 0.0771 -0.1118s0.0272 -0.0874 0.0272 -0.1332c0 -0.0457 -0.0093 -0.091 -0.0272 -0.1331s-0.0441 -0.0802 -0.0771 -0.1119c-0.12 -0.23 -0.55 -0.28 -0.8 -0.29Z" clip-rule="evenodd" stroke-width="1"></path>
  <path fill="#020202" fill-rule="evenodd" d="M21.3216 8.08952c-0.46 0.14 -0.58 0.46 -0.82 0.94 -0.24 0.48 -0.21 0.62 0.05 0.76 0.1 0.06 0.42 0.14 0.73 -0.48 0.1556 1.22768 0.2457 2.46278 0.27 3.69998 -0.1566 -0.0099 -0.3135 -0.0099 -0.47 0 -1.39 0.05 -1.22 -0.11 -1.46 0.16 -0.08 0.09 -0.09 0.28 0.15 0.48 0.4581 0.3259 0.9987 0.5165 1.56 0.55 0.5813 -0.0732 1.1563 -0.1902 1.72 -0.35 0.0618 -0.0666 0.0962 -0.1541 0.0962 -0.245 0 -0.0909 -0.0344 -0.1784 -0.0962 -0.245 -0.15 -0.21 -0.57 -0.26 -0.83 -0.27 0.0047 -0.0365 0.0047 -0.0735 0 -0.11 0.11 -1.19 0.59 -2.4 0.23 -3.62998 -0.14 -0.56 -0.57 -1.44 -1.13 -1.26Z" clip-rule="evenodd" stroke-width="1"></path>
  <path fill="#0c6fff" fill-rule="evenodd" d="M22.8314 18.1092c-0.4857 -0.2027 -1.0178 -0.2679 -1.5381 -0.1886 -0.5202 0.0794 -1.0087 0.3003 -1.4119 0.6386 -0.3735 0.4165 -0.6554 0.9067 -0.8277 1.4389 -0.1722 0.5323 -0.2309 1.0947 -0.1723 1.6511 0.0453 0.4359 0.2259 0.8468 0.5164 1.1749 0.2905 0.3282 0.6764 0.5573 1.1036 0.6551 0.4575 0.1327 0.936 0.1768 1.41 0.13 2.2 -0.38 2.63 -4.08 0.92 -5.5Zm-0.13 3.42c-0.0308 0.1524 -0.0917 0.297 -0.1792 0.4256 -0.0874 0.1285 -0.1995 0.2384 -0.3299 0.3231 -0.1303 0.0847 -0.2762 0.1426 -0.4292 0.1703 -0.1529 0.0277 -0.3099 0.0246 -0.4617 -0.009 -0.88 -0.12 -1.33 -0.38 -1.36 -1.37 -0.03 -0.99 0.36 -2.21 1.34 -2.4 1.62 -0.3 1.96 1.51 1.42 2.86Z" clip-rule="evenodd" stroke-width="1"></path>
  <path fill="#0c6fff" fill-rule="evenodd" d="M1.40222 11.9998c0.71 0 -0.4 -1.68 1.3 -3.09002l0.47 -0.49c0.29968 -0.01509 0.59741 0.056 0.85793 0.20487 0.26053 0.14887 0.47293 0.36929 0.61207 0.63513 0.01735 0.04286 0.04326 0.08173 0.07615 0.11423 0.03288 0.0325 0.07205 0.05795 0.1151 0.0748 0.04306 0.01684 0.0891 0.02473 0.13531 0.02318 0.04621 -0.00155 0.09161 -0.01251 0.13344 -0.03221 0.84 -0.36 -1.17 -2.83 -2.61 -1.92 -0.20514 0.14857 -0.39597 0.31596 -0.57 0.50001 -0.34379 0.26702 -0.6211 0.61 -0.8102 1.00209 -0.189103 0.39208 -0.284869 0.82263 -0.279797 1.25792 0.018478 0.4606 0.075342 0.9188 0.169997 1.37 0.1 0.35 0.3 0.35 0.4 0.35Z" clip-rule="evenodd" stroke-width="1"></path>
  <path fill="#020202" fill-rule="evenodd" d="M9.19199 7.49955c-0.67 -0.29 -1.15 0.1 -1.56 0.7 -0.13 0.2 -0.63 0.69 -0.31 0.89 0.32 0.2 0.67 -0.15 0.9 -0.3 0.86 -0.6 0.4 -0.28 0.6 1.21 0 0.09285 0.03687 0.18185 0.10251 0.24745 0.06564 0.0657 0.15466 0.1026 0.24749 0.1026 0.09282 0 0.18185 -0.0369 0.24748 -0.1026 0.06564 -0.0656 0.10252 -0.1546 0.10252 -0.24745 0.12 -0.83 0.4 -2.12 -0.33 -2.5Z" clip-rule="evenodd" stroke-width="1"></path>
  <path fill="#0c6fff" fill-rule="evenodd" d="M17.3917 8.66953c-0.3079 -0.39058 -0.7163 -0.69 -1.1813 -0.86616 -0.4651 -0.17617 -0.9694 -0.22243 -1.4587 -0.13384 -1.38 0.33 -2.59 2 -2.2 4.23997 0.0066 0.0929 0.0498 0.1792 0.1202 0.2402 0.0703 0.0609 0.1619 0.0915 0.2548 0.0848 0.0928 -0.0066 0.1792 -0.0498 0.2401 -0.1202 0.061 -0.0703 0.0915 -0.1619 0.0849 -0.2548 0.0179 -0.6844 0.2112 -1.3527 0.5614 -1.94101 0.3502 -0.5883 0.8455 -1.07688 1.4386 -1.41896 0.2766 -0.06167 0.5634 -0.06167 0.84 0 0.2914 0.2154 0.5189 0.50596 0.6581 0.84061 0.1391 0.33466 0.1847 0.70086 0.1319 1.05936 0 0.37 -0.11 1.2 -0.18 2.17 -0.07 0.97 -0.49 1.35 -1.39 1.43 -0.0823 0 -0.1611 0.0327 -0.2192 0.0908 -0.0582 0.0582 -0.0908 0.137 -0.0908 0.2192s0.0326 0.1611 0.0908 0.2192c0.0581 0.0582 0.1369 0.0908 0.2192 0.0908 0.3003 0.051 0.6079 0.0386 0.9031 -0.0366s0.5713 -0.2114 0.8106 -0.3998c0.2393 -0.1884 0.4365 -0.4249 0.5788 -0.6942 0.1423 -0.2693 0.2266 -0.5655 0.2475 -0.8694 0.1366 -0.7653 0.1869 -1.5435 0.15 -2.32 -0.0543 -0.58799 -0.2649 -1.15078 -0.61 -1.62997Z" clip-rule="evenodd" stroke-width="1"></path>
  <path fill="#020202" fill-rule="evenodd" d="M4.5121 15.1294c-0.03261 0.0264 -0.05863 0.06 -0.07599 0.0982 -0.01736 0.0381 -0.02558 0.0799 -0.02401 0.1218 0 0.07 -0.26 3.34 -0.26 3.41 0 1 0.53 1.33 1.53 1.51 -0.22 0.58 0.23 1.21 0.45 1.21s0.55 -0.81 0.37 -1.11c0.22643 0.0145 0.45357 0.0145 0.68 0 0 0.3 0.08 1.2 0.46 1.19 0.38 -0.01 0.64 -0.89 0.42 -1.35 0.36572 -0.0523 0.70402 -0.2237 0.96253 -0.4876 0.25851 -0.2639 0.42281 -0.6057 0.46747 -0.9724 0.03116 -0.2861 -0.02235 -0.5751 -0.15389 -0.8311 -0.13155 -0.256 -0.33534 -0.4677 -0.58611 -0.6089 0.86 -0.66 0.81 -2.15 -1 -2.43 0.28 -0.75 0 -0.69 0 -1.21 0 -0.069 -0.02739 -0.1351 -0.07615 -0.1839 -0.04876 -0.0487 -0.11489 -0.0761 -0.18385 -0.0761 -0.14 -0.05 -0.22 0.07 -0.32 0.16 -0.12274 0.2218 -0.21044 0.4613 -0.26 0.71 -0.02241 0.1815 -0.00535 0.3657 0.05 0.54 -0.83 0 -0.85 0.08 -0.8 0 0.07663 -0.1763 0.11088 -0.3681 0.1 -0.56 -0.12 -1 -0.22 -0.81 -0.35 -0.88 -0.13 -0.07 -0.56 0.49 -0.63 0.83 -0.01505 0.1061 -0.01505 0.2138 0 0.32 -0.0053 0.0565 -0.0053 0.1134 0 0.17 0 0.05 0 0.17 0.05 0.29 -0.85 0.13 -0.7 0.01 -0.82 0.14Zm3.7 4c-0.99335 0.4312 -2.11006 0.4846 -3.14 0.15 -0.29 -0.25 -0.21 -1.11 -0.17 -1.56 0.6 0.1 2.88 0.05 3.39 0.46 0.07684 0.0568 0.13788 0.1323 0.17729 0.2193 0.03941 0.0871 0.05589 0.1828 0.04787 0.278 -0.00801 0.0952 -0.04027 0.1868 -0.09368 0.266 -0.05342 0.0793 -0.12622 0.1435 -0.21148 0.1867Zm-2.29 -3.63c0.66 -0.05 2.47 -0.06 2.55 0.58 0.08 0.64 -0.78 0.81 -1.46 0.82 -2.28 -0.25 -2 0.23 -2 -0.26v-1c0.16 -0.02 -0.23 0.02 0.91 -0.14Z" clip-rule="evenodd" stroke-width="1"></path>
</svg>