<svg xmlns="http://www.w3.org/2000/svg" fill="none" viewBox="0 0 24 24" id="Currency-Dollar-Euro-Chat-Bubble--Streamline-Freehand">
  <desc>
    Currency Dollar Euro Chat Bubble Streamline Icon: https://streamlinehq.com
  </desc>
  <path fill="#020202" fill-rule="evenodd" d="M15.2646 9.47808c-0.3963 -0.10424 -0.7472 -0.33587 -0.9988 -0.6592 -0.0538 -0.08658 -0.1393 -0.14866 -0.2382 -0.17293 -0.099 -0.02427 -0.2035 -0.00881 -0.2912 0.04308 -0.0859 0.05184 -0.1478 0.13557 -0.1721 0.2329 -0.0243 0.09732 -0.0091 0.20032 0.0423 0.28648 0.3753 0.58958 0.9493 1.02539 1.618 1.22849l-0.0599 0.5993c-0.0085 0.0499 -0.007 0.101 0.0046 0.1503 0.0115 0.0493 0.0328 0.0958 0.0626 0.1368 0.0297 0.041 0.0674 0.0755 0.1108 0.1017 0.0433 0.0262 0.0915 0.0434 0.1416 0.0507 0.1001 0.0119 0.2009 -0.0143 0.2824 -0.0736 0.0815 -0.0593 0.1376 -0.1472 0.1571 -0.246 0 -0.1698 0.0998 -0.3496 0.1498 -0.5294 0.2026 0.0196 0.4066 0.0196 0.6092 0 0.2438 -0.006 0.4837 -0.0617 0.7051 -0.1638 0.2213 -0.102 0.4195 -0.2483 0.5823 -0.4298 0.1627 -0.18147 0.2867 -0.39432 0.3642 -0.62546 0.0775 -0.23114 0.1068 -0.47569 0.0863 -0.71861 0.0029 -0.23217 -0.0533 -0.46125 -0.1634 -0.66569 -0.1101 -0.20444 -0.2704 -0.3775 -0.4658 -0.5029 -0.254 -0.15726 -0.5352 -0.26566 -0.829 -0.31961 0 -0.16979 0.0799 -0.3296 0.1099 -0.4994 0.0299 -0.16979 0 -0.26967 0.0699 -0.4095 0.2137 0.07792 0.4155 0.18551 0.5993 0.31961 0.0302 0.03855 0.0683 0.07012 0.1118 0.09255 0.0436 0.02242 0.0914 0.03516 0.1403 0.03735 0.049 0.0022 0.0978 -0.00622 0.1431 -0.02465 0.0454 -0.01844 0.0862 -0.04647 0.1197 -0.08217 0.0336 -0.0357 0.0589 -0.07822 0.0745 -0.12465 0.0155 -0.04643 0.0208 -0.09568 0.0156 -0.14436 -0.0053 -0.04867 -0.021 -0.09564 -0.0462 -0.13766 -0.0251 -0.04203 -0.059 -0.07813 -0.0994 -0.10582 -0.2717 -0.26557 -0.5899 -0.47887 -0.9389 -0.62924 0.07 -0.4095 0.1299 -0.829 0.2098 -1.2385 0.0265 -0.08609 0.0177 -0.17918 -0.0245 -0.25879 -0.0421 -0.07961 -0.1141 -0.13921 -0.2002 -0.1657 -0.0861 -0.02649 -0.1792 -0.0177 -0.2588 0.02445 -0.0796 0.04214 -0.1392 0.11419 -0.1657 0.20028 -0.1598 0.37954 -0.2997 0.75908 -0.4595 1.13862 -0.191 -0.03538 -0.385 -0.05211 -0.5793 -0.04994 -0.1949 -0.00137 -0.388 0.03633 -0.5681 0.11088 -0.1801 0.07456 -0.3434 0.18445 -0.4802 0.32319 -0.1369 0.13873 -0.2446 0.3035 -0.3167 0.48456 -0.0721 0.18105 -0.1072 0.37473 -0.1032 0.56958 -0.0292 0.22652 0.0005 0.45675 0.0862 0.66845 0.0858 0.21169 0.2246 0.39771 0.4032 0.54009 0.1989 0.14273 0.4224 0.24768 0.6592 0.30962l-0.0599 0.34958c-0.0999 0.34958 -0.1099 0.66919 -0.1398 0.97882Zm1.8577 -0.69916c0.05 0.55933 -0.3496 0.78905 -0.819 0.83899 0.0799 -0.27966 0.1598 -0.55932 0.2297 -0.83899 0 -0.09987 0 -0.19975 0.0799 -0.29963 0.1229 0.02133 0.2433 0.05479 0.3596 0.09988 0.0403 0.01721 0.0754 0.04474 0.1017 0.0798 0.0263 0.03507 0.0429 0.07644 0.0481 0.11995Zm-1.1786 -2.63681c0 0.09988 -0.0799 0.18977 -0.1098 0.28965 -0.03 0.09988 -0.0999 0.36955 -0.1498 0.55932 -0.1499 0 -0.2597 -0.10986 -0.2597 -0.28965 -0.02 -0.37954 0.2297 -0.50938 0.5193 -0.55932Z" clip-rule="evenodd" stroke-width="1"></path>
  <path fill="#0c6fff" fill-rule="evenodd" d="M14.156 16.6394c-0.0496 0.0049 -0.0977 0.0198 -0.1414 0.0438 -0.0437 0.0239 -0.0821 0.0565 -0.1129 0.0957 -0.0308 0.0392 -0.0533 0.0842 -0.0663 0.1323 -0.0129 0.0481 -0.016 0.0984 -0.009 0.1477v0.9189c-0.0126 0.1305 -0.0535 0.2566 -0.1199 0.3696l-1.9976 0.2896c-2.21729 0.7092 -1.6879 0.1698 -2.3771 1.5981 -0.08989 0.2197 -0.18977 0.5094 -0.30963 0.789l-0.25968 -0.2796c-0.21974 -0.1998 -0.4195 -0.3896 -0.63923 -0.5693 -2.19735 -1.8378 -1.31841 -1.2585 -3.32599 -0.7491 -0.41649 0.115 -0.84028 0.2017 -1.26847 0.2596 -0.08532 0.0226 -0.17425 0.028 -0.26167 0.016 -0.08742 -0.012 -0.17161 -0.0412 -0.24771 -0.0859 -0.18442 -0.2511 -0.30755 -0.5418 -0.35957 -0.8489 -0.16979 -0.6193 -0.26967 -1.3284 -0.34958 -1.708l-0.41949 -2.1674c-0.28611 -0.9976 -0.49317 -2.0162 -0.61925 -3.0463 -0.08226 -0.5912 0.0043 -1.1937 0.2497 -1.7379 0.05563 -0.1057 0.14799 -0.18739 0.25968 -0.22971 0.32961 -0.14982 0.71914 -0.19976 0.9988 -0.31962l4.83416 -1.63802c0.04237 -0.0125 0.0818 -0.03338 0.11594 -0.06142 0.03414 -0.02803 0.06229 -0.06265 0.08279 -0.10178 0.0205 -0.03913 0.03292 -0.08198 0.03653 -0.12601 0.00361 -0.04403 -0.00167 -0.08833 -0.01552 -0.13028 -0.0125 -0.04237 -0.03339 -0.0818 -0.06142 -0.11594 -0.02804 -0.03414 -0.06265 -0.06229 -0.10178 -0.08279 -0.03913 -0.0205 -0.08199 -0.03292 -0.12602 -0.03653 -0.04402 -0.00361 -0.08833 0.00167 -0.13028 0.01552L2.52002 8.54919c-0.46838 0.07718 -0.92713 0.20442 -1.36835 0.37954 -0.263994 0.1337 -0.482825 0.34212 -0.629237 0.59928 -0.414884 0.74829 -0.5892527 1.60619 -0.4993969 2.45699 0.1287529 1.0953 0.3492629 2.1778 0.6592039 3.2361l0.51937 2.1574c0.15911 0.6763 0.35584 1.3432 0.58929 1.9976 0.10819 0.3777 0.31103 0.7215 0.58929 0.9988 0.13766 0.1147 0.29712 0.2004 0.46877 0.2519 0.17165 0.0515 0.35194 0.0678 0.53002 0.0478 0.55931 -0.0815 1.10839 -0.2222 1.63803 -0.4195l1.37833 -0.4395 1.44826 1.7778c0.20974 0.2398 0.67918 0.9189 0.76907 0.9988 0.118 0.1066 0.27053 0.1669 0.42948 0.1698 0.0954 0.0116 0.19219 0.0004 0.28245 -0.0325 0.09027 -0.033 0.17145 -0.0869 0.23692 -0.1572 0.18298 -0.193 0.32559 -0.4205 0.41949 -0.6692 0.12989 -0.443 0.23319 -0.8932 0.30959 -1.3484l0.1299 -0.6392 0.6492 -0.0999h1.5082c0.4002 -0.0112 0.797 -0.0784 1.1786 -0.1998 0.212 -0.0418 0.412 -0.1308 0.5849 -0.2605s0.3144 -0.2967 0.4139 -0.4886c0.0865 -0.2191 0.1273 -0.4536 0.1198 -0.6891 -0.0429 -0.4053 -0.1197 -0.8062 -0.2297 -1.1986 -0.0036 -0.0572 -0.02 -0.1129 -0.0482 -0.1628 -0.0281 -0.0499 -0.0672 -0.0929 -0.1143 -0.1255 -0.0471 -0.0327 -0.1009 -0.0543 -0.1576 -0.0632 -0.0566 -0.0088 -0.1145 -0.0048 -0.1693 0.0119Z" clip-rule="evenodd" stroke-width="1"></path>
  <path fill="#020202" fill-rule="evenodd" d="M23.8542 3.99471c-0.069 -0.21681 -0.2099 -0.40356 -0.3995 -0.52936 -0.5705 -0.31174 -1.1827 -0.54044 -1.8178 -0.67918 -0.889 -0.19976 -1.8278 -0.28965 -2.6368 -0.4195 -1.0687 -0.16979 -2.1075 -0.49939 -3.1562 -0.70914 -0.2797 0 -0.5594 -0.10987 -0.839 -0.13983l-3.9453 -0.27966c-0.0432 -0.00722 -0.0875 -0.00584 -0.1303 0.00406 -0.0427 0.0099 -0.0831 0.02813 -0.1188 0.05363 -0.0357 0.02551 -0.066 0.05779 -0.0893 0.09502 -0.0232 0.03723 -0.0389 0.07867 -0.0461 0.12195 -0.0072 0.04329 -0.0058 0.08757 0.0041 0.13032 0.0099 0.04275 0.0281 0.08313 0.0536 0.11884 0.0255 0.03571 0.0578 0.06604 0.095 0.08927 0.0373 0.02323 0.0787 0.0389 0.122 0.04611l3.9053 0.51937 3.9352 1.08869c0.7791 0.15981 1.688 0.28965 2.5469 0.51937 1.9077 0.46944 1.3284 0.55933 1.3684 1.08869 0.0082 0.43757 -0.0185 0.8751 -0.0799 1.30842 -0.0799 0.68917 -0.2198 1.37833 -0.3196 2.0675 -0.1299 0.87894 -0.2098 1.91772 -0.3696 2.90652 -0.3995 2.1973 -0.5194 1.648 -0.9389 1.648 -0.4336 0.0102 -0.8675 -0.0099 -1.2984 -0.0599 -1.3184 -0.1599 -2.3372 -0.4695 -2.5369 -0.2697 -0.5294 0.4195 -0.9988 0.9189 -1.4982 1.3683 -0.1998 0.1798 -0.4095 0.3396 -0.6193 0.4994v0.06l-0.4994 -1.3984c-1.0487 -2.467 -0.2596 -1.2784 -2.2472 -1.8877 -0.6393 -0.1997 -1.2685 -0.4095 -1.9077 -0.6392 -0.1798 -0.0699 -0.41954 -0.1498 -0.62929 -0.2497 -0.13294 -0.0524 -0.24755 -0.1427 -0.3296 -0.2597 -0.06991 -0.0999 0 -0.25968 0 -0.42947 0 -0.44946 0.14982 -0.9988 0.17978 -1.22852 0.06992 -1.05872 0.21974 -2.08748 0.38951 -3.11624 0.1698 -1.02876 0.3596 -2.10745 0.5394 -3.17616 0.0198 -0.08609 0.0047 -0.17655 -0.0421 -0.25148 -0.0469 -0.07492 -0.1215 -0.12817 -0.2076 -0.14804 -0.0861 -0.01987 -0.1766 -0.00472 -0.2515 0.04211 -0.07492 0.04682 -0.12818 0.1215 -0.14804 0.20759 -0.42948 1.19855 -0.829 2.41708 -1.13863 3.68555 -0.20582 0.84976 -0.36586 1.70996 -0.47942 2.57689 -0.08637 0.50563 -0.14306 1.01589 -0.16979 1.52815 -0.01553 0.35282 0.07868 0.70172 0.26967 0.99882 0.18706 0.2351 0.42648 0.4232 0.69916 0.5493 0.32074 0.1368 0.65574 0.2373 0.99875 0.2997l1.6481 0.3895c0.5493 0.1098 1.0886 0.2197 1.648 0.3096l0.1997 1.0887c0.0699 0.2896 0.0899 0.9988 0.2497 1.5681 0.0877 0.3357 0.2676 0.6402 0.5194 0.8789 0.0982 0.0788 0.2154 0.1305 0.3399 0.1497 0.1244 0.0193 0.2518 0.0056 0.3692 -0.0398 0.2944 -0.1571 0.5692 -0.3482 0.819 -0.5693 0.2308 -0.2126 0.4446 -0.4431 0.6393 -0.6892 0.3795 -0.4694 0.7191 -0.9988 1.1086 -1.4282 0.6592 0.1498 1.3184 0.2996 1.9976 0.4194 0.4589 0.083 0.9226 0.1363 1.3883 0.1599 0.2953 0.0347 0.5937 0.0347 0.889 0 0.1043 -0.0204 0.2026 -0.0643 0.2874 -0.1283 0.0848 -0.064 0.1539 -0.1466 0.202 -0.2413 0.2857 -0.6404 0.5001 -1.3103 0.6392 -1.9976 0.2098 -0.9988 0.3396 -1.99758 0.5094 -2.91647 0.1298 -0.68917 0.2996 -1.39831 0.3995 -2.10746 0.0646 -0.51 0.088 -1.02438 0.0699 -1.53814 -0.0062 -0.35708 -0.0531 -0.71228 -0.1398 -1.05872Z" clip-rule="evenodd" stroke-width="1"></path>
  <path fill="#020202" fill-rule="evenodd" d="M3.31912 15.9802c0.04919 0.0751 0.12536 0.1284 0.21275 0.1488 0.08739 0.0205 0.1793 0.0066 0.25669 -0.0389 0.3296 -0.1199 0.66919 -0.1898 0.99879 -0.2797 0.29187 0.526 0.75297 0.9378 1.30842 1.1686 0.40377 0.1354 0.83176 0.1832 1.25544 0.1401 0.42368 -0.0431 0.83331 -0.1759 1.2016 -0.3898 0.08824 -0.0469 0.15508 -0.1259 0.18668 -0.2207 0.0316 -0.0948 0.02556 -0.1982 -0.01689 -0.2887 -0.01658 -0.0511 -0.04356 -0.0982 -0.07923 -0.1383 -0.03567 -0.0402 -0.07926 -0.0726 -0.12804 -0.0951 -0.04877 -0.0225 -0.10168 -0.0347 -0.15539 -0.0358 -0.05371 -0.001 -0.10707 0.009 -0.15671 0.0295 -0.26908 0.1186 -0.55991 0.1799 -0.85397 0.1799s-0.58489 -0.0613 -0.85397 -0.1799c-0.23456 -0.1108 -0.43727 -0.2792 -0.58929 -0.4894l0.22972 -0.0999c0.40951 -0.1897 0.80903 -0.3995 1.21853 -0.5693 0.04909 -0.0094 0.09576 -0.0287 0.13719 -0.0566 0.04142 -0.028 0.07674 -0.0641 0.10382 -0.1061 0.02707 -0.042 0.04535 -0.0891 0.05371 -0.1384s0.00664 -0.0997 -0.00507 -0.1483c-0.01059 -0.0495 -0.03098 -0.0964 -0.05995 -0.1379 -0.02898 -0.0414 -0.06596 -0.0767 -0.10876 -0.1037 -0.04281 -0.027 -0.09059 -0.0452 -0.14051 -0.0534 -0.04993 -0.0083 -0.10101 -0.0064 -0.15022 0.0053 -0.47925 0.0198 -0.95651 0.0732 -1.42828 0.1598l-0.22972 0.0699c-0.01992 -0.2059 -0.01992 -0.4133 0 -0.6192 0.34958 -0.1498 0.64922 -0.3296 0.99879 -0.4694 0.04983 -0.0072 0.09767 -0.0244 0.14059 -0.0507 0.04292 -0.0264 0.08001 -0.0611 0.10901 -0.1023 0.02899 -0.0411 0.04927 -0.0878 0.05959 -0.1371 0.01033 -0.0492 0.01047 -0.1001 0.00044 -0.1494 -0.00845 -0.0492 -0.02654 -0.0963 -0.05321 -0.1385 -0.02668 -0.0422 -0.06143 -0.0788 -0.10226 -0.1075 -0.04082 -0.0288 -0.08693 -0.0492 -0.13566 -0.0601 -0.04874 -0.011 -0.09914 -0.0121 -0.14834 -0.0035h-0.54934c0.22777 -0.5909 0.63687 -1.0944 1.16859 -1.4383 0.08212 -0.0371 0.14614 -0.1053 0.17799 -0.1896 0.03184 -0.0842 0.02889 -0.1777 -0.00819 -0.2599 -0.03709 -0.0821 -0.10528 -0.1461 -0.18956 -0.1779 -0.08429 -0.0319 -0.17778 -0.0289 -0.2599 0.0082 -0.85283 0.3716 -1.55624 1.0188 -1.99759 1.8377 -0.05547 0.1299 -0.10218 0.2634 -0.13983 0.3996l-0.28965 0.1098c-0.34958 0.1698 -0.62924 0.3995 -0.99879 0.5893 -0.08588 0.0255 -0.15821 0.0839 -0.20124 0.1625 -0.04303 0.0785 -0.05327 0.1709 -0.02849 0.257 0.02563 0.0863 0.08354 0.1593 0.16167 0.204 0.07814 0.0446 0.17049 0.0574 0.25783 0.0357h0.69915c-0.01486 0.301 0.00526 0.6026 0.05993 0.8989 -0.30469 0.2065 -0.59501 0.4334 -0.86895 0.6792 -0.04965 0.0503 -0.08291 0.1144 -0.09539 0.1839 -0.01248 0.0696 -0.0036 0.1412 0.02547 0.2056Z" clip-rule="evenodd" stroke-width="1"></path>
</svg>