<svg xmlns="http://www.w3.org/2000/svg" fill="none" viewBox="0 0 24 24" id="Currency-Euro-Bubble--Streamline-Freehand">
  <desc>
    Currency Euro Bubble Streamline Icon: https://streamlinehq.com
  </desc>
  <path fill="#020202" d="M12.3592 6.53022c-1.3351 0.49257 -2.4845 1.38697 -3.29004 2.56 -0.75 1.05998 -0.36 0.92998 -0.77 0.91998 -0.08 0 -3.41 0.06 -2.72 0.48 0.82625 0.2761 1.67668 0.4736 2.54 0.59 -0.11809 0.4472 -0.17858 0.9076 -0.18 1.37 -1.49 0.14 -1.89 -0.08 -1.92 0.34 -0.00414 0.0395 -0.00042 0.0793 0.01093 0.1173 0.01136 0.038 0.03014 0.0734 0.05525 0.104 0.0251 0.0307 0.05604 0.0561 0.09103 0.0748 0.03499 0.0186 0.07332 0.0302 0.11279 0.0339 0.58448 0.1254 1.17536 0.2189 1.77 0.28 1.2 4.6 8.47004 2.71 7.63004 1.62 -0.0569 -0.0698 -0.1386 -0.1151 -0.228 -0.1262 -0.0894 -0.0112 -0.1797 0.0125 -0.252 0.0662 -0.2354 0.1566 -0.4958 0.2716 -0.77 0.34 -1.86 0.54 -4.57004 0.12 -5.21004 -1.9l3.91004 -0.29c0.0814 -0.0139 0.1553 -0.0562 0.2085 -0.1193 0.0533 -0.0631 0.0825 -0.1431 0.0825 -0.2257s-0.0292 -0.1625 -0.0825 -0.2257c-0.0532 -0.0631 -0.1271 -0.1054 -0.2085 -0.1193 -1.3477 -0.2299 -2.7205 -0.2736 -4.08004 -0.13 0.01457 -0.3669 0.07848 -0.7301 0.19 -1.08 0.73849 0.039 1.47904 0.0022 2.21004 -0.11 0.15 0 1.17 0.06 1.42 -0.12 0.0527 0.0248 0.1102 0.0378 0.1684 0.038 0.0583 0.0003 0.1159 -0.0122 0.1688 -0.0365 0.0529 -0.0243 0.0999 -0.0599 0.1377 -0.1043 0.0377 -0.0444 0.0653 -0.0965 0.0808 -0.1526 0.0155 -0.0562 0.0186 -0.115 0.009 -0.1725 -0.0096 -0.0575 -0.0317 -0.1121 -0.0646 -0.1602 -0.0329 -0.048 -0.0759 -0.0883 -0.1261 -0.118 -0.0501 -0.0297 -0.1061 -0.0481 -0.164 -0.0539 -0.4 -0.13 -1.19 0 -3.34004 -0.13 0.64794 -1.20188 1.65954 -2.16798 2.89004 -2.75998 0.63 -0.26 2.59 -0.41 2.95 0.14 0.021 0.03349 0.0484 0.06251 0.0806 0.08541 0.0322 0.0229 0.0687 0.03922 0.1072 0.04804 0.0385 0.00882 0.0784 0.00997 0.1174 0.00337 0.039 -0.0066 0.0763 -0.02081 0.1098 -0.04182 0.0335 -0.02101 0.0625 -0.04841 0.0854 -0.08064 0.0229 -0.03222 0.0392 -0.06865 0.048 -0.10718 0.0088 -0.03854 0.01 -0.07843 0.0034 -0.11741s-0.0208 -0.07628 -0.0418 -0.10977c-0.52 -0.9 -2.8 -0.93 -3.74 -0.62Z" stroke-width="1"></path>
  <path fill="#0c6fff" d="M23.8074 10.1799c-0.3252 -0.97396 -0.8497 -1.86954 -1.5398 -2.62979 -0.3336 -0.23721 -0.701 -0.42262 -1.0899 -0.54995 0 -0.34997 0.1299 -0.99991 0.0999 -1.34988 -0.1323 -1.17643 -0.6368 -2.2799 -1.4398 -3.14972 -1.0599 -1.1099 -3.3997 -1.569862 -4.6296 -0.49996 -0.38 -1.799836 -3.9297 -2.479776 -6.41944 0.47996 -0.2147 0.40201 -0.36965 0.83317 -0.45996 1.27989 -0.44633 -0.24511 -0.94064 -0.39016 -1.44864 -0.42509 -0.508 -0.03493 -1.01751 0.0411 -1.49319 0.22281 -0.47567 0.1817 -0.90611 0.46474 -1.26144 0.82946 -0.35533 0.36472 -0.62705 0.8024 -0.79629 1.28265 -0.17861 0.25304 -0.2745 0.55518 -0.2745 0.86492 0 0.30973 0.09589 0.61187 0.2745 0.86492 -2.1898 0.73993 -3.699665 3.89968 -3.2497057 6.16948C0.276662 14.2888 0.6322 14.9549 1.1201 15.5189c0.48791 0.564 1.09581 1.0117 1.77918 1.3104 -1.55986 2.4698 0.47996 6.6094 6.41943 6.2394 0.81929 -0.0951 1.59359 -0.425 2.22979 -0.9499 0.9999 1.7698 3.8397 1.7099 5.8795 0.8099 2.5698 -1.1099 4.0896 -4.2596 3.5697 -6.2594 1.7198 -0.54 3.6196 -3.7397 2.8097 -6.4894Zm-1.0799 2.8197c-0.3271 0.9836 -0.927 1.854 -1.7298 2.5098 -0.64 0.2 -0.4 0.15 -0.85 0.15 -0.4499 0 -0.5999 0.5599 -0.5999 0.5599 0.0008 0.077 0.0171 0.153 0.048 0.2234 0.031 0.0705 0.0759 0.1339 0.132 0.1866 0.9999 1.0499 -0.6 5.5795 -4.8496 5.7695 -2.2698 0.1 -2.2898 -1.0599 -2.7597 -1.5699 -0.1198 -0.0983 -0.27 -0.152 -0.425 -0.152 -0.155 0 -0.3052 0.0537 -0.425 0.152 -0.5152 0.5938 -1.2233 0.9869 -1.99979 1.1099 -4.99955 0.36 -6.54941 -2.8197 -5.46951 -4.5796 0.43996 -0.12 0.99991 -0.22 0.99991 -0.7999 -0.00573 -0.1352 -0.05481 -0.2649 -0.13999 -0.37 -0.31997 -0.3499 -0.72993 0.05 -1.57985 -0.3499 -0.47928 -0.2527 -0.90314 -0.5987 -1.24659 -1.0177 -0.34346 -0.419 -0.59957 -0.9026 -0.75324 -1.4221 -0.589942 -2.1398 1.09991 -5.39953 3.23972 -5.39953 0.09679 0.01856 0.197 -0.00209 0.27857 -0.05741 0.08157 -0.05531 0.13782 -0.14077 0.15639 -0.23757 0.01856 -0.09679 -0.00209 -0.197 -0.05741 -0.27857 -0.05532 -0.08157 -0.14077 -0.13782 -0.23757 -0.15639 -0.26997 -0.09999 -0.64994 -0.27997 -0.67994 -0.56995 0.09439 -0.68412 0.40233 -1.32099 0.87992 -1.81983 0.33946 -0.40138 0.7918 -0.69135 1.29825 -0.83223 0.50644 -0.14088 1.04355 -0.12614 1.5415 0.0423 1.56986 0.39996 0.70994 0.53995 1.19989 0.67994 0.07682 0.01879 0.15792 0.00752 0.22669 -0.03151 0.06878 -0.03904 0.12004 -0.10289 0.14328 -0.17848 0 -0.14998 -0.31997 -0.99991 0.25998 -1.62985C11.1485 0.820709 13.5983 0.930699 14.3283 1.86062c0.2299 0.29997 0.1399 0.76993 0.4199 1.0699 0.0843 0.06568 0.1881 0.10134 0.295 0.10134s0.2107 -0.03566 0.295 -0.10134c0.3211 -0.37155 0.7564 -0.6261 1.2377 -0.72381 0.4813 -0.0977 0.9814 -0.03304 1.422 0.18386 0.4643 0.1365 0.8887 0.38331 1.2369 0.71935 0.3482 0.33604 0.61 0.75135 0.763 1.21048 0.3647 0.84479 0.4454 1.78516 0.2299 2.67976 0 0.47995 0.18 0.67994 0.48 0.79993 0.9241 0.45903 1.6435 1.24665 2.0171 2.20851 0.3737 0.9618 0.3746 2.0285 0.0027 2.991Z" stroke-width="1"></path>
</svg>