<svg xmlns="http://www.w3.org/2000/svg" fill="none" viewBox="0 0 24 24" id="Donation-Charity-Donate-Bag-2--Streamline-Freehand">
  <desc>
    Donation Charity Donate Bag 2 Streamline Icon: https://streamlinehq.com
  </desc>
  <path fill="#020202" fill-rule="evenodd" d="M11.3031 17.3432c-0.6065 -0.2445 -1.2563 -0.3636 -1.91004 -0.35 -0.23409 -0.0032 -0.4665 -0.0403 -0.69 -0.11 -0.0698 -0.0121 -0.13554 -0.0412 -0.19137 -0.0849 -0.05582 -0.0436 -0.10001 -0.1003 -0.12863 -0.1651 -0.45 -1.13 1.57 -1.29 2.38004 -1.06 0.0348 0.0127 0.0717 0.0183 0.1087 0.0166 0.037 -0.0017 0.0733 -0.0107 0.1067 -0.0265 0.0335 -0.0158 0.0635 -0.0381 0.0883 -0.0656 0.0248 -0.0275 0.044 -0.0596 0.0563 -0.0945 0.0124 -0.0354 0.0176 -0.073 0.0153 -0.1105 -0.0024 -0.0375 -0.0122 -0.0741 -0.029 -0.1077 -0.0168 -0.0336 -0.0402 -0.0634 -0.0688 -0.0878 -0.0285 -0.0244 -0.0617 -0.0427 -0.0975 -0.054 -0.3201 -0.1212 -0.658 -0.1888 -1.00004 -0.2 0.02109 -0.045 0.03783 -0.0919 0.05 -0.14 0.02724 -0.0877 0.04404 -0.1784 0.05004 -0.27 0.005 -0.0866 0.005 -0.1734 0 -0.26 0 -0.23 -0.09004 -0.42 -0.12004 -0.64 0.0056 -0.0421 0.00277 -0.0848 -0.00833 -0.1258 -0.01109 -0.041 -0.03022 -0.0793 -0.05628 -0.1128 -0.02606 -0.0335 -0.05852 -0.0615 -0.0955 -0.0824 -0.03698 -0.0208 -0.07773 -0.0341 -0.11989 -0.039 -0.04151 -0.0056 -0.08373 -0.0027 -0.1241 0.0085 -0.04036 0.0112 -0.07804 0.0305 -0.11075 0.0567 -0.03271 0.0261 -0.05978 0.0587 -0.07957 0.0956 -0.01979 0.0369 -0.03189 0.0775 -0.03558 0.1192 -0.10286 0.2029 -0.18979 0.4136 -0.26 0.63 -0.02947 0.0876 -0.04958 0.1781 -0.06 0.27 -0.00516 0.0933 -0.00516 0.1867 0 0.28 0.01409 0.0781 0.03415 0.155 0.06 0.23 -0.25843 0.0353 -0.51078 0.106 -0.75 0.21 -0.18126 0.0703 -0.34654 0.1763 -0.48601 0.3117 -0.13948 0.1354 -0.25029 0.2975 -0.32586 0.4766 -0.07556 0.1792 -0.11434 0.3716 -0.11402 0.5661 0.00032 0.1944 0.03974 0.3867 0.11589 0.5656 0.06187 0.207 0.1708 0.3968 0.31826 0.5547 0.14746 0.1579 0.32946 0.2795 0.53174 0.3553 0.59957 0.1669 1.21777 0.2576 1.84004 0.27 0.38 0 0.76 0 0.83 0.44 0.07 0.44 -0.33 0.72 -0.8 0.89 -0.54819 0.2102 -1.14511 0.2587 -1.72004 0.14 -0.1739 -0.051 -0.3344 -0.1398 -0.47 -0.26 -0.13502 -0.1216 -0.26196 -0.2519 -0.38 -0.39 -0.05274 -0.0635 -0.12796 -0.1041 -0.20995 -0.1134 -0.08199 -0.0093 -0.16441 0.0134 -0.23005 0.0634 -0.03359 0.0255 -0.06181 0.0574 -0.08303 0.0939 -0.02121 0.0365 -0.03501 0.0768 -0.04058 0.1186 -0.00558 0.0418 -0.00283 0.0843 0.00809 0.1251 0.01092 0.0408 0.02979 0.079 0.05552 0.1124 0.16291 0.236 0.35436 0.451 0.57 0.64 0.16577 0.1318 0.35141 0.2364 0.55 0.31 0.18385 0.0689 0.37517 0.1159 0.57 0.14v0.07c-0.01041 0.0897 -0.01041 0.1803 0 0.27 -0.01 0.0864 -0.01 0.1736 0 0.26 0 0.23 0.08 0.42 0.12 0.64 -0.01125 0.0439 -0.01303 0.0898 -0.00521 0.1345 0.00782 0.0447 0.02505 0.0872 0.05055 0.1247 0.02551 0.0376 0.0587 0.0692 0.09738 0.093 0.03868 0.0237 0.08196 0.0389 0.12697 0.0446 0.04502 0.0057 0.09073 0.0018 0.13411 -0.0115s0.08344 -0.0357 0.11751 -0.0656c0.03408 -0.03 0.06139 -0.0669 0.08013 -0.1082 0.01874 -0.0413 0.02848 -0.0861 0.02857 -0.1315 0.09959 -0.2032 0.18317 -0.4138 0.25 -0.63 0.02947 -0.0876 0.04958 -0.1781 0.05999 -0.27 0.01512 -0.0927 0.01512 -0.1873 0 -0.28 0.00468 -0.0466 0.00468 -0.0935 0 -0.14 0.39164 -0.0307 0.77624 -0.1218 1.14004 -0.27 0.3409 -0.1482 0.623 -0.4053 0.8021 -0.7311 0.1792 -0.3257 0.2452 -0.7016 0.1879 -1.0689 -0.0217 -0.2216 -0.0967 -0.4347 -0.2186 -0.621 -0.1219 -0.1863 -0.2871 -0.3404 -0.4814 -0.449Z" clip-rule="evenodd" stroke-width="1"></path>
  <path fill="#0c6fff" fill-rule="evenodd" d="M12.3032 10.2232c-0.34 0.42 0.62 0.73 0.89 0.38 0.1294 -0.1649 0.2215 -0.356 0.27 -0.56 0 -0.26 -0.43 -0.39 -0.78 -0.17 -0.03 0.05 -0.31 0.27 -0.38 0.35Z" clip-rule="evenodd" stroke-width="1"></path>
  <path fill="#020202" fill-rule="evenodd" d="M20.9128 6.64318c-0.0747 -0.04048 -0.1621 -0.0506 -0.2441 -0.02824 -0.0819 0.02235 -0.1521 0.07544 -0.1959 0.14824 -0.1334 0.24129 -0.3181 0.45047 -0.5409 0.61286 -0.2228 0.16238 -0.4785 0.27404 -0.7491 0.32714 -0.1292 0.01992 -0.2608 0.01992 -0.39 0 -0.6594 -0.13032 -1.3282 -0.20724 -2 -0.23 -0.74 0.08 -2 0.86999 -3.07 1.05999 -0.2405 0.0904 -0.5066 0.08473 -0.7431 -0.01581 -0.2364 -0.10054 -0.4251 -0.28825 -0.5269 -0.52418 -0.16 -0.32 0.14 -0.47 0.44 -0.66 0.8334 -0.3923 1.5733 -0.95829 2.17 -1.66 0.1274 -0.208 0.2045 -0.44282 0.2254 -0.68583 0.0208 -0.24301 -0.0153 -0.48753 -0.1054 -0.71417 -0.42 -1.2 -1.16 -1.53 -1.91 -1.41 -0.4136 0.05959 -0.8084 0.21198 -1.1547 0.44577 -0.3464 0.23379 -0.6354 0.54292 -0.8453 0.90423 -0.13 0.25 0.22 0.54 0.51 0.33 0.294 -0.41205 0.7275 -0.70342 1.22 -0.82 0.56 -0.22 1.11 0 1.35 0.83 0.16 0.57 -0.26 0.88 -0.72 1.16 -0.46 0.28 -1.79 1.1 -1.89 1.2 -0.2142 0.19939 -0.3523 0.46714 -0.3906 0.75727 -0.0384 0.29013 0.0255 0.58455 0.1806 0.83273 0.95 1.80002 2.63 1.09999 3.77 0.55999 0.5202 -0.2892 1.0659 -0.5302 1.63 -0.71999 0.6261 -0.00315 1.2514 0.04367 1.87 0.13999 0.1951 0.00536 0.3901 -0.01481 0.58 -0.05999 0.3651 -0.09366 0.706 -0.26412 1 -0.50001 0.2571 -0.23896 0.4674 -0.52385 0.62 -0.83999 0.0433 -0.07116 0.0581 -0.15607 0.0414 -0.23768 -0.0167 -0.08161 -0.0636 -0.15388 -0.1314 -0.20232Z" clip-rule="evenodd" stroke-width="1"></path>
  <path fill="#0c6fff" fill-rule="evenodd" d="M12.2332 5.63319c-1.61 -1.94 -4.22003 -1 -4.37003 -1 -0.73213 0.29825 -1.337 0.84299 -1.71 1.54 -1 1.62 -1.07 3.67 0.86 4.69001 0.26 0.11 1.1 -0.22 0.6 -0.51 -1.38 -0.65001 -1.45 -2.31001 -0.61 -3.61001 0.43464 -0.65333 1.09225 -1.1261 1.85 -1.33 0.78071 -0.19675 1.60583 -0.11176 2.33003 0.24 0.1907 0.10046 0.3631 0.2323 0.51 0.39 0.31 0.34 0.84 -0.05 0.54 -0.41Z" clip-rule="evenodd" stroke-width="1"></path>
  <path fill="#020202" fill-rule="evenodd" d="m21.3231 3.8632 -2.5 -1.34c-0.72 -0.44 -1.4 -1.09 -2.13 -1.600002 -0.5302 -0.402273 -1.1353 -0.694654 -1.78 -0.8600005 -0.5683 -0.1101392 -1.1552 -0.0763392 -1.7071 0.0983215 -0.5519 0.17466 -1.0514 0.484631 -1.4529 0.901681 -0.5157 0.53695 -0.9904 1.1119 -1.42 1.72 -0.2482 0.35062 -0.46565 0.722 -0.64999 1.11 0.1 0.22 0.28999 0.28 0.55999 0.17 0.1896 -0.29789 0.4002 -0.58194 0.63 -0.85 0.4489 -0.5233 0.9406 -1.00831 1.47 -1.45 0.3047 -0.29256 0.6762 -0.50646 1.0821 -0.6232 0.406 -0.11675 0.8343 -0.13281 1.2479 -0.0468 0.6509 0.19473 1.2609 0.50649 1.8 0.92 0.6168 0.44515 1.2578 0.85578 1.92 1.23l2.66 1.18c0.0373 0.01847 0.0779 0.02924 0.1195 0.03167 0.0415 0.00243 0.0831 -0.00354 0.1223 -0.01754 0.0392 -0.01399 0.0752 -0.03574 0.1058 -0.06394 0.0306 -0.0282 0.0552 -0.06227 0.0724 -0.10019 0.0316 -0.07464 0.0336 -0.15846 0.0058 -0.23456 -0.0279 -0.07609 -0.0835 -0.13879 -0.1558 -0.17544Z" clip-rule="evenodd" stroke-width="1"></path>
  <path fill="#020202" fill-rule="evenodd" d="M10.8032 10.8732c-0.6673 -0.0207 -1.33521 -0.0006 -2.00004 0.06 -0.24 0 -2.44 0.33 -2.91 0.42 -0.48059 0.0637 -0.92507 0.2895 -1.26 0.64 -0.16 0.27 -0.19 0.64 0.34 1.08 0.05046 0.0444 0.11326 0.0723 0.18 0.08 -0.33798 0.4045 -0.64233 0.8359 -0.91 1.29 -0.3211 0.5573 -0.60505 1.1352 -0.85 1.73 -0.17 0.41 -0.33 0.83 -0.47 1.26 -0.14137 0.4357 -0.25493 0.8799 -0.34 1.33 -0.06219 0.3295 -0.089 0.6648 -0.08 1 0.00673 0.3384 0.05715 0.6745 0.15 1 0.07689 0.2331 0.17046 0.4603 0.28 0.68 0.10982 0.2209 0.23339 0.4346 0.37 0.64 0.50139 0.816 1.28961 1.4152 2.21 1.68 1.28304 0.2003 2.58437 0.2573 3.88001 0.17 1.46743 0.1251 2.94453 0.0748 4.40003 -0.15 0.7138 -0.1343 1.3696 -0.4832 1.88 -1 0.2994 -0.3303 0.5214 -0.7231 0.65 -1.15 0.1709 -0.5807 0.2485 -1.1849 0.23 -1.79 0.0212 -1.1268 -0.0963 -2.2519 -0.35 -3.35 -0.1806 -0.7598 -0.4955 -1.4811 -0.93 -2.13 -0.1669 -0.2361 -0.3543 -0.457 -0.56 -0.66 -0.1981 -0.1966 -0.4085 -0.3803 -0.63 -0.55 -0.0998 -0.072 -0.2033 -0.1388 -0.31 -0.2l0.18 -0.16c0.0898 -0.0804 0.1613 -0.1791 0.2097 -0.2895 0.0483 -0.1105 0.0722 -0.23 0.0703 -0.3505 -0.0081 -0.1422 -0.0493 -0.2805 -0.1205 -0.4038 -0.0713 -0.1233 -0.1704 -0.2282 -0.2895 -0.3062 -0.82 -0.64 -1.64 -0.52 -3.02 -0.57Zm2.44 1.24c0.0033 0.0299 0.0033 0.0601 0 0.09 -0.1108 0.0956 -0.2144 0.1992 -0.31 0.31 -0.0884 0.1031 -0.1501 0.2263 -0.1797 0.3588 -0.0296 0.1325 -0.0263 0.2703 0.0097 0.4012 0.0293 0.1046 0.0883 0.1984 0.17 0.27 0.12 0.12 0.45 0.31 0.52 0.37 0.1863 0.1525 0.3633 0.3162 0.53 0.49 0.163 0.1597 0.3073 0.3375 0.43 0.53 0.3573 0.5639 0.6112 1.187 0.75 1.84 0.2163 1.0151 0.3103 2.0525 0.28 3.09 0.0063 0.4203 -0.0374 0.8399 -0.13 1.25 -0.0661 0.3708 -0.232 0.7165 -0.48 1 -0.5277 0.457 -1.1929 0.7245 -1.89 0.76 -1.1916 0.093 -2.3885 0.093 -3.58004 0 -1.21669 0.127 -2.4433 0.127 -3.66 0 -0.70403 -0.2046 -1.30877 -0.6599 -1.7 -1.28 -0.11937 -0.1707 -0.22952 -0.3476 -0.33 -0.53 -0.10018 -0.1739 -0.18068 -0.3583 -0.24 -0.55 -0.08926 -0.2578 -0.13981 -0.5274 -0.15 -0.8 -0.03016 -0.2792 -0.03016 -0.5608 0 -0.84 0.06838 -0.4219 0.16188 -0.8393 0.28 -1.25 0.12 -0.42 0.26 -0.83 0.41 -1.23 0.21577 -0.5714 0.47313 -1.1262 0.77 -1.66 0.28159 -0.5326 0.61665 -1.0352 1 -1.5 0.26 -0.3 -0.16 -0.44 -0.43 -0.66 -0.12 -0.11 -0.19 -0.18 -0.2 -0.26 -0.01 -0.08 0.09 -0.06 0.15 -0.1 0.23402 -0.1106 0.48357 -0.1848 0.74 -0.22 0.78 -0.13 1.58 -0.24 2.38 -0.3 0.78456 -0.0713 1.57313 -0.088 2.36004 -0.05 0.5549 0.005 1.1092 0.0417 1.66 0.11 0.3072 0.0425 0.5973 0.1669 0.84 0.36Z" clip-rule="evenodd" stroke-width="1"></path>
</svg>