<svg xmlns="http://www.w3.org/2000/svg" fill="none" viewBox="0 0 24 24" id="Saving-Bank-International--Streamline-Freehand">
  <desc>
    Saving Bank International Streamline Icon: https://streamlinehq.com
  </desc>
  <path fill="#0c6fff" fill-rule="evenodd" d="M21.0098 4.14654c-0.9593 -1.26987 -2.1963 -2.30364 -3.6163 -3.0223C15.9735 0.405574 14.408 0.0210331 12.8166 0c-1.479 0.0622122 -2.9435 0.317497 -4.35633 0.759367 -1.4493 0.432653 -2.78853 1.172123 -3.92673 2.168193C1.08641 6.10491 -2.19085 13.1391 3.94403 18.5545c0.02529 0.0279 0.05614 0.0502 0.09055 0.0655 0.03442 0.0152 0.07164 0.0231 0.10929 0.0231 0.03764 0 0.07487 -0.0079 0.10928 -0.0231 0.03442 -0.0153 0.06526 -0.0376 0.09055 -0.0655 0.02659 -0.026 0.04771 -0.0571 0.06213 -0.0914 0.01441 -0.0343 0.02184 -0.0712 0.02184 -0.1084s-0.00743 -0.0741 -0.02184 -0.1084c-0.01442 -0.0343 -0.03554 -0.0654 -0.06213 -0.0914 -1.05849 -0.8931 -1.88428 -2.0298 -2.40641 -3.3125 -0.52213 -1.2827 -0.72497 -2.673 -0.59109 -4.0514v-0.1699c0.74807 0.1849 1.50995 0.3086 2.2781 0.3697h1.54871c-0.01998 0.3895 -0.01998 0.7796 0 1.1691 0.00129 0.042 0.01085 0.0833 0.02812 0.1216s0.04193 0.0728 0.07255 0.1016c0.03062 0.0287 0.06661 0.0512 0.10591 0.066 0.03931 0.0149 0.08115 0.0218 0.12314 0.0205 0.04325 0.0015 0.08633 -0.0061 0.12646 -0.0223 0.04014 -0.0162 0.07643 -0.0406 0.10656 -0.0716 0.03012 -0.0311 0.0534 -0.0681 0.06834 -0.1087 0.01493 -0.0406 0.0212 -0.0839 0.01838 -0.1271 0 -0.3997 0 -0.7994 0.07993 -1.199 0.7194 0 1.41882 -0.1299 2.12823 -0.1699 0.04318 0.0028 0.08647 -0.0034 0.12708 -0.0184 0.04061 -0.0149 0.07765 -0.0382 0.10871 -0.0683 0.03106 -0.0301 0.05547 -0.0664 0.07165 -0.1066 0.01618 -0.0401 0.02377 -0.0832 0.02228 -0.1264 0.00134 -0.0455 -0.00646 -0.0907 -0.02293 -0.1331 -0.01647 -0.0424 -0.04129 -0.081 -0.07297 -0.1136 -0.03167 -0.0326 -0.06958 -0.0585 -0.11146 -0.0762s-0.08689 -0.0268 -0.13235 -0.0268c-0.65945 0 -1.31891 -0.10993 -1.99834 -0.14989 0.11982 -0.61702 0.28343 -1.22472 0.48959 -1.81849 0.22095 -0.63161 0.48812 -1.2461 0.79934 -1.83847 0.91923 0 1.83847 0.07994 2.75767 0.07994 1.4388 0 2.8576 -0.05995 4.2964 -0.12989l1.8985 -0.09992 0.2997 0.66944c0.1703 0.3372 0.3204 0.68419 0.4496 1.03914 0.1599 0.5995 0.4197 1.36886 0.5995 2.18814 -0.6894 0.07 -1.3788 0.1599 -2.0682 0.2498 -0.0385 -0.0001 -0.0766 0.0078 -0.1119 0.0231s-0.0671 0.0377 -0.0934 0.0658c-0.0262 0.0281 -0.0464 0.0614 -0.0592 0.0977 -0.0128 0.0362 -0.018 0.0748 -0.0153 0.1132 0.0051 0.0751 0.0393 0.1452 0.0952 0.1956 0.056 0.0503 0.1293 0.0769 0.2045 0.0741 0.7394 0 1.4688 0.1 2.2182 0.1399 0.0413 0.3046 0.058 0.612 0.05 0.9193 -0.0027 0.042 0.0029 0.0841 0.0165 0.1239 0.0136 0.0399 0.0349 0.0766 0.0628 0.1082 0.0278 0.0315 0.0616 0.0573 0.0995 0.0758 0.0378 0.0184 0.0789 0.0292 0.1209 0.0318 0.0433 0.0041 0.0871 -0.0004 0.1286 -0.0133 0.0416 -0.0128 0.0803 -0.0338 0.1137 -0.0617 0.0334 -0.0278 0.061 -0.062 0.0812 -0.1006 0.0201 -0.0386 0.0324 -0.0808 0.0362 -0.1242 0.0202 -0.306 0.0202 -0.6131 0 -0.9192h1.8984c0.7594 0 1.5188 -0.1099 2.2681 -0.1898 0.0271 0.6711 -0.0333 1.3428 -0.1798 1.9983 -0.3036 1.3047 -0.8273 2.5482 -1.5487 3.6769 -0.467 0.7149 -1.0884 1.3158 -1.8185 1.7586 -0.0754 0.0438 -0.1303 0.1157 -0.1528 0.2 -0.0225 0.0843 -0.0106 0.174 0.0329 0.2496 0.0456 0.0734 0.1175 0.1267 0.2011 0.149 0.0835 0.0223 0.1724 0.0119 0.2485 -0.0291 0.8402 -0.5007 1.5572 -1.1836 2.0983 -1.9983 0.7894 -1.1827 1.3738 -2.4899 1.7285 -3.8668 0.329 -1.5483 0.2964 -3.15167 -0.0952 -4.68534 -0.3917 -1.53366 -1.1318 -2.95631 -2.1629 -4.15732Zm-0.7693 0.62948c0.1199 0.14988 0.2298 0.30974 0.3397 0.45962h-3.4771l-0.2099 -0.46961c-0.4077 -1.00431 -0.9708 -1.93828 -1.6686 -2.7677 -0.2812 -0.2964 -0.5852 -0.57034 -0.9092 -0.81931 2.3414 0.45965 4.4441 1.73406 5.935 3.597h-0.0099ZM5.21298 3.69692C6.25984 2.82153 7.47829 2.17487 8.79 1.7985c0.45961 -0.13988 0.93921 -0.25978 1.4088 -0.3597 -0.34969 0.25978 -0.6894 0.50958 -0.99915 0.79933 -0.6015 0.51334 -1.15347 1.08203 -1.64862 1.69859 -0.33652 0.46316 -0.64354 0.94705 -0.91924 1.44879 -0.99916 0 -1.99833 0.04996 -2.9975 0.04996 0.47193 -0.6266 1.00037 -1.20856 1.57869 -1.73855Zm0.40965 4.14654c-0.18128 0.67825 -0.30824 1.36987 -0.37968 2.06828H1.48608c0.2911 -1.40327 0.8583 -2.73466 1.66861 -3.91674 0.99917 0.07994 1.99834 0.14988 3.04746 0.19984 -0.23496 0.53395 -0.4287 1.0851 -0.57952 1.64862Zm8.05327 -2.64779c-1.4188 0 -2.8476 0 -4.27641 0.09992H7.90074c0.15986 -0.25979 0.32972 -0.51957 0.50957 -0.75937 0.51846 -0.74091 1.11469 -1.42423 1.77849 -2.0383 0.4796 -0.45962 0.9992 -0.88926 1.5088 -1.29892 0.3996 -0.04996 0.7893 -0.07993 1.169 -0.09992 0.4829 0.26253 0.9213 0.59975 1.2989 0.99917 0.7528 0.88293 1.3325 1.89985 1.7086 2.9975v0.04996l-2.1982 0.04996Zm6.6545 4.796H18.412c-0.1099 -0.86927 -0.3098 -1.70857 -0.4297 -2.34804 -0.0863 -0.42201 -0.2066 -0.83634 -0.3597 -1.23897 0 -0.10991 -0.0899 -0.20982 -0.1398 -0.31973l3.3572 -0.17985c0.0654 -0.00898 0.1256 -0.04083 0.1698 -0.08993 0.8672 1.28542 1.4184 2.75756 1.6087 4.29645 -0.7594 -0.04 -1.5188 -0.11993 -2.2881 -0.11993Z" clip-rule="evenodd" stroke-width="1"></path>
  <path fill="#020202" fill-rule="evenodd" d="m19.0115 21.1324 -1.4388 -0.0699c0.0599 -0.5896 0.1398 -1.1591 0.1998 -1.7486 0 -0.2798 0.0599 -0.5695 0.0699 -0.8493 0.015 -0.2862 0.015 -0.573 0 -0.8593 0 -0.4896 0 -0.9991 -0.0499 -1.4588h0.3897c0.068 -0.0036 0.1329 -0.0303 0.1837 -0.0757 0.0509 -0.0454 0.0848 -0.1068 0.096 -0.174 0.0458 0.0019 0.0915 -0.007 0.1331 -0.0261 0.0417 -0.0191 0.0783 -0.0479 0.1067 -0.0839 0.0598 -0.0615 0.0933 -0.1439 0.0933 -0.2298 0 -0.0858 -0.0335 -0.1682 -0.0933 -0.2298 -0.8892 -0.8093 -2.6777 -2.7477 -4.2165 -3.9966 -0.4701 -0.385 -0.9791 -0.7198 -1.5187 -0.9992 -0.3049 -0.1698 -0.6505 -0.2527 -0.9992 -0.2398 -0.8662 0.3413 -1.6621 0.8392 -2.34801 1.4688 -1.69859 1.3788 -3.78685 3.3871 -4.35637 3.9267 -0.0543 0.0543 -0.08481 0.128 -0.08481 0.2048 0 0.0768 0.03051 0.1505 0.08481 0.2049 0.003 0.0467 0.01729 0.0921 0.04165 0.1321 0.02436 0.04 0.05807 0.0735 0.09823 0.0977 0.22808 0.1093 0.47017 0.1866 0.7194 0.2298 -0.15951 0.5346 -0.28631 1.0785 -0.37968 1.6286 -0.01495 0.2496 -0.01495 0.4998 0 0.7494 0 0.2498 0 0.5096 0.05995 0.7594 0.07513 0.5855 0.18523 1.1661 0.32972 1.7385 -0.28975 0 -0.57951 0.07 -0.85928 0.1199 -0.07247 0.0076 -0.13913 0.0432 -0.18578 0.0992 -0.04665 0.0559 -0.06961 0.1279 -0.06401 0.2006 -0.02677 -0.0572 -0.07273 -0.1032 -0.12989 -0.1299 -0.03397 -0.0167 -0.07096 -0.0262 -0.10873 -0.0282 -0.03777 -0.0019 -0.07554 0.0038 -0.11103 0.0169 -0.03549 0.0131 -0.06796 0.0332 -0.09545 0.0592 -0.02749 0.026 -0.04942 0.0573 -0.06448 0.092 -0.09374 0.1733 -0.17392 0.3537 -0.2398 0.5395 -0.04935 0.1548 -0.06968 0.3174 -0.05995 0.4796 0.01432 0.1258 0.05793 0.2464 0.12734 0.3523 0.06942 0.1058 0.16269 0.1939 0.27233 0.2572 0.23855 0.1462 0.50324 0.2446 0.77935 0.2898 0.27045 0.0586 0.54399 0.102 0.81932 0.1298 0.61948 0.07 1.25895 0.1 1.86844 0.1499 0.81932 0.06 1.63863 0.1199 2.46793 0.1399h3.6869c0.8293 0 1.7386 0 2.6279 -0.0699 0.6006 -0.0308 1.1983 -0.1043 1.7885 -0.2199 0.2771 -0.0334 0.5389 -0.1452 0.7548 -0.3222 0.2159 -0.1769 0.3769 -0.4118 0.4641 -0.6769 0.0706 -0.2653 0.0679 -0.5448 -0.0078 -0.8087 -0.0756 -0.2639 -0.2214 -0.5024 -0.4218 -0.6901 -0.0495 -0.0634 -0.1205 -0.1066 -0.1997 -0.1213 -0.0791 -0.0148 -0.1609 0 -0.2299 0.0414Zm-2.1383 -0.0999 -2.8576 -0.1399c0 -0.4696 0.05 -0.9392 0.07 -1.4188 0.0199 -0.4796 0 -0.8793 0 -1.3089 0 -0.4297 -0.05 -1.1191 -0.08 -1.6686 1.1491 -0.08 2.1882 -0.1799 2.9975 -0.2598 -0.0999 0.4396 -0.1898 0.8692 -0.2498 1.3189 -0.0414 0.2848 -0.0681 0.5716 -0.0799 0.8593v0.8692c0.04 0.5895 0.0899 1.1691 0.1499 1.7486h0.0499Zm-6.3846 -4.4064h0.0799c0.9292 0 1.8984 0 2.8176 -0.0999 -0.0899 0.4297 -0.1798 0.8693 -0.2298 1.3089 -0.04 0.2814 -0.0601 0.5652 -0.0599 0.8493 -0.0147 0.2829 -0.0147 0.5664 0 0.8493 0 0.4397 0.0999 0.8793 0.1698 1.3089h-2.8476c0 -0.4596 0 -0.9092 0.07 -1.3688 0.0699 -0.4596 0 -0.8793 0 -1.3089 0 -0.4297 -0.02 -1.0292 -0.05 -1.5388h0.05Zm0.9492 -5.1756c0.1931 -0.155 0.4087 -0.2797 0.6394 -0.3697 0.2147 0.0301 0.4197 0.1087 0.5995 0.2298 0.409 0.2348 0.8027 0.4951 1.1791 0.7793 1.3788 0.9992 2.9975 2.5179 3.9966 3.3772h-0.1299c-0.0215 -0.043 -0.0524 -0.0806 -0.0905 -0.11 -0.038 -0.0294 -0.0822 -0.0499 -0.1293 -0.0598 -0.0555 -0.0019 -0.1103 0.0134 -0.1567 0.0438 -0.0465 0.0304 -0.0825 0.0744 -0.1031 0.126h-4.816c-0.7693 0 -1.5387 0 -2.288 0.07 -1.30895 0.0499 -2.50796 0.1298 -3.38722 0.0999 -0.29441 -0.0017 -0.5883 -0.0251 -0.87927 -0.07 0.70941 -0.5795 2.24813 -1.7485 3.64696 -2.7876 0.68943 -0.5196 1.35883 -0.9992 1.86843 -1.3289h0.05Zm-4.80602 4.9259c1.01021 0.1398 2.0278 0.2199 3.04746 0.2398 -0.07994 0.3996 -0.15987 0.8093 -0.20983 1.2289 -0.04008 0.2814 -0.06012 0.5652 -0.05995 0.8493 -0.0147 0.2829 -0.0147 0.5664 0 0.8493 0.03471 0.446 0.09476 0.8897 0.17985 1.3289h-0.29975c-0.84929 0.05 -1.69858 0.1299 -2.53788 0.2298v-2.9076c0.01998 -0.6095 -0.06994 -1.209 -0.1199 -1.8184Zm12.52952 6.0449c-0.0556 0.1329 -0.1483 0.2469 -0.267 0.3284 -0.1188 0.0815 -0.2585 0.1271 -0.4024 0.1312 -0.5568 0.0696 -1.1175 0.1029 -1.6786 0.1 -0.8793 0 -1.7785 0 -2.5978 -0.07H6.51188c-0.33414 -0.0038 -0.66776 -0.0272 -0.99917 -0.0699 -0.16017 -0.0131 -0.31799 -0.0467 -0.46961 -0.0999 -0.08992 0 -0.17985 -0.07 -0.18984 -0.1499 -0.01988 -0.0787 -0.01988 -0.1611 0 -0.2398 0.03778 -0.1659 0.09478 -0.3269 0.16986 -0.4796 0.01987 -0.0617 0.01987 -0.1281 0 -0.1899 0.01784 0.0624 0.05609 0.117 0.10863 0.155 0.05253 0.038 0.11631 0.0574 0.18113 0.0549 0.80932 -0.06 1.59866 -0.07 2.398 -0.07 0.79933 0 1.85845 0.05 2.79762 0.08 0.9393 0.0299 1.8685 0 2.8077 0l5.6953 -0.1h0.0799c0.0548 0.0925 0.0894 0.1955 0.1015 0.3023 0.012 0.1068 0.0013 0.2149 -0.0316 0.3172Z" clip-rule="evenodd" stroke-width="1"></path>
</svg>