<svg xmlns="http://www.w3.org/2000/svg" fill="none" viewBox="0 0 24 24" id="Wealth-Treasure-Chest-Open--Streamline-Freehand">
  <desc>
    Wealth Treasure Chest Open Streamline Icon: https://streamlinehq.com
  </desc>
  <path fill="#0c6fff" fill-rule="evenodd" d="M21.9991 2.66667s-0.0699 -0.09992 -0.1299 -0.11991c-0.2339 -0.10298 -0.4421 -0.25655 -0.6095 -0.44965 -0.1566 -0.19321 -0.2691 -0.41828 -0.3297 -0.65948 -0.2698 -0.999221 -0.1099 -1.089151 -0.4697 -1.318971C20.3581 0.0416502 20.2336 0 20.1056 0s-0.2525 0.0416502 -0.3547 0.118659c-0.1474 0.112566 -0.2642 0.260292 -0.3397 0.429664 -0.1399 0.269789 -0.2199 0.729427 -0.3198 0.909287 -0.1101 0.2767 -0.2931 0.51841 -0.5296 0.69946 -0.2863 0.1889 -0.6046 0.32432 -0.9392 0.39968 -0.084 0.01243 -0.16 0.05675 -0.2121 0.12375 -0.0521 0.06701 -0.0764 0.15153 -0.0677 0.23597 0.0049 0.04213 0.0182 0.08285 0.039 0.11979 0.0208 0.03695 0.0488 0.06939 0.0822 0.09543 0.0335 0.02604 0.0718 0.04515 0.1128 0.05624 0.0409 0.01108 0.0837 0.01391 0.1257 0.00832 0.0114 0.05175 0.0344 0.10022 0.0673 0.14177 0.0329 0.04154 0.0748 0.07507 0.1225 0.09805 0.2459 0.14181 0.4711 0.31663 0.6695 0.51959 0.1739 0.17723 0.3099 0.38802 0.3997 0.61952l0.1899 0.58954 0.0999 0.23981c0.042 0.09855 0.1071 0.18557 0.1898 0.25375 0.0827 0.06817 0.1805 0.11551 0.2853 0.13803 0.1047 0.02251 0.2133 0.01956 0.3167 -0.00862 0.1034 -0.02819 0.1985 -0.08077 0.2773 -0.15334 0.1024 -0.12419 0.1803 -0.26657 0.2299 -0.41967 0.0599 -0.17986 0.0799 -0.39969 0.1399 -0.53958 0.0862 -0.39545 0.2759 -0.76094 0.5495 -1.05917 0.1759 -0.19502 0.4052 -0.33402 0.6595 -0.39969 0.0417 -0.00368 0.0822 -0.01577 0.1191 -0.03555 0.0369 -0.01977 0.0694 -0.04682 0.0956 -0.07951 0.0261 -0.03268 0.0454 -0.07033 0.0566 -0.11066 0.0112 -0.04034 0.0141 -0.08252 0.0085 -0.12401 -0.0116 -0.04536 -0.034 -0.08724 -0.0654 -0.12204 -0.0313 -0.03481 -0.0706 -0.0615 -0.1145 -0.0778Zm-1.5188 0.45964c-0.2664 0.21532 -0.493 0.47574 -0.6695 0.7694 -0.1392 -0.17928 -0.3003 -0.34041 -0.4796 -0.47963 -0.2022 -0.13275 -0.4163 -0.24648 -0.6395 -0.33973 0.1888 -0.05006 0.3727 -0.11694 0.5496 -0.19985 0.334 -0.18587 0.6211 -0.44562 0.8393 -0.7594 0.1512 0.23877 0.3402 0.45137 0.5596 0.62951 0.0869 0.04927 0.1771 0.09267 0.2698 0.12989 -0.1499 0.07124 -0.2936 0.15479 -0.4297 0.24981Z" clip-rule="evenodd" stroke-width="1"></path>
  <path fill="#020202" fill-rule="evenodd" d="M20.4503 14.8771c-0.4177 -0.8233 -0.9308 -1.5947 -1.5288 -2.2982 -0.0334 -0.0335 -0.0731 -0.0601 -0.1168 -0.0783 -0.0438 -0.0181 -0.0906 -0.0275 -0.138 -0.0275 -0.0473 0 -0.0942 0.0094 -0.1379 0.0275 -0.0437 0.0182 -0.0835 0.0448 -0.1169 0.0783 -0.037 0.03 -0.0677 0.0671 -0.0902 0.109 -0.0226 0.042 -0.0366 0.088 -0.0413 0.1354 -0.0046 0.0474 0.0002 0.0952 0.0142 0.1408 0.014 0.0455 0.0369 0.0878 0.0674 0.1244 0.3738 0.4818 0.7079 0.9931 0.9992 1.5288 0.2042 0.3525 0.3652 0.7282 0.4796 1.1192 0 0.0899 0.06 0.1598 0 0.2098 -0.2389 0.3533 -0.5915 0.6142 -0.9992 0.7394 -0.1999 0.07 -1.9985 0.2798 -2.2483 0.2998 -1.3889 0.1199 -2.8178 0.1399 -4.2566 0.1399h-1.5788c-1.62872 0 -3.27744 0 -4.84621 -0.1199 -0.20984 0 -0.49961 0 -0.78938 -0.08 0 0 -1.17908 -0.2598 -1.36893 -0.3397 -0.19654 -0.058 -0.3793 -0.1552 -0.53728 -0.2857 -0.15799 -0.1305 -0.28793 -0.2917 -0.38201 -0.4737 -0.05584 -0.3406 -0.00342 -0.6901 0.14989 -0.9992 0.2498 -0.6495 0.64949 -1.309 0.83934 -1.7187 0.2474 0.0844 0.50142 0.1479 0.75941 0.1899 0.12304 0.0099 0.24667 0.0099 0.36971 0l0.35972 -0.06c1.13911 -0.2198 1.22904 -0.3098 1.23903 -0.5496 0.00999 -0.2398 0.07994 -0.4096 -1.26901 -0.5995 -0.12611 -0.0152 -0.25359 -0.0152 -0.3797 0 -0.1264 -0.0093 -0.25331 -0.0093 -0.3797 0 -0.17188 0.0309 -0.34198 0.0709 -0.50961 0.1199 -0.10991 -0.4596 -0.20983 -0.9193 -0.32974 -1.3889 -0.05995 -0.2198 -0.1199 -0.4397 -0.19984 -0.6495 -0.06677 -0.21601 -0.15029 -0.42649 -0.24981 -0.62951 -0.16155 -0.34264 -0.34167 -0.67621 -0.53958 -0.99922 0.91929 0 1.82858 -0.08993 2.72787 -0.08993 1.22904 0 2.42811 0.04997 3.63716 0.07994 1.20907 0.02998 2.42807 0 3.65717 0 1.229 0 2.588 0 3.9069 -0.08993 0.8194 0 1.6088 -0.08993 2.3882 -0.16986 -0.2247 0.35748 -0.4282 0.72782 -0.6096 1.10913 -0.0699 0.16987 -0.1299 0.33973 -0.1898 0.51959 -0.06 0.17989 -0.08 0.35969 -0.1099 0.54959 -0.07 0.4296 -0.1 0.8493 -0.1499 1.269 -0.2298 -0.05 -0.4597 -0.0999 -0.6995 -0.1299 -0.1395 -0.0147 -0.2801 -0.0147 -0.4196 0h-0.4197c-1.339 0.2398 -1.279 0.4297 -1.279 0.5496 0 0.1199 0 0.4096 1.289 0.6195 0.1428 0.0145 0.2868 0.0145 0.4296 0l0.4197 -0.05c0.3397 -0.0599 0.6395 -0.1599 0.9992 -0.2298 0.0963 -0.0026 0.1878 -0.0427 0.255 -0.1118 0.0672 -0.069 0.1048 -0.1616 0.1048 -0.2579l0 -0.08c0 -0.0299 0.0699 -0.0599 0.0899 -0.1099 0.1898 -0.3997 0.3897 -0.7794 0.5496 -1.179 0.0752 -0.1698 0.1419 -0.3432 0.1998 -0.5196 0.0527 -0.1775 0.0961 -0.35761 0.1299 -0.53962 0.0699 -0.43965 0.0699 -0.85932 0.1199 -1.30897 0.0147 -0.06165 0.0101 -0.12632 -0.0131 -0.18529 -0.0233 -0.05896 -0.064 -0.10938 -0.1168 -0.14446 0.0381 -0.06411 0.062 -0.13568 0.0699 -0.20983 -0.0037 -0.0473 -0.0168 -0.09338 -0.0385 -0.1356 -0.0216 -0.04222 -0.0514 -0.07973 -0.0877 -0.11038 -0.0362 -0.03065 -0.0781 -0.05383 -0.1233 -0.0682 -0.0453 -0.01438 -0.0929 -0.01967 -0.1401 -0.01556h-2.578c-1.289 0 -2.578 -0.11991 -3.8071 -0.17986 0.0057 -0.08651 0.0057 -0.17329 0 -0.2598 -0.0401 -0.19554 -0.1004 -0.38641 -0.1798 -0.56956 -0.143 -0.34022 -0.3774 -0.63422 -0.6772 -0.84939 -0.2998 -0.21517 -0.6534 -0.34312 -1.0215 -0.36965 -0.3434 -0.03425 -0.6899 0.01511 -1.0101 0.14387 -0.32016 0.12876 -0.6044 0.33309 -0.82845 0.59555 -0.19764 0.24406 -0.34993 0.52157 -0.44965 0.81936 -0.03639 0.17156 -0.06308 0.34503 -0.07994 0.51959H7.47047c-1.76042 0.07897 -3.5151 0.25577 -5.25589 0.52959 -0.06237 -0.01525 -0.12749 -0.01525 -0.18985 0 -0.07782 0.03132 -0.14078 0.09113 -0.17605 0.16725 -0.03527 0.07611 -0.04021 0.1628 -0.0138 0.24243 0.09992 0.53958 0.15987 1.05917 0.28977 1.59875 0.05143 0.22088 0.11821 0.43788 0.19984 0.64948 0.07994 0.2198 0.16987 0.4297 0.26979 0.6395 0.22982 0.4796 0.48962 0.9293 0.74942 1.3889v0.05c-0.42539 0.6737 -0.79948 1.3785 -1.11913 2.1083 -0.18247 0.3717 -0.25526 0.7876 -0.20983 1.1991 0 0.6495 -0.10992 1.3889 -0.08993 2.1683 0.01352 0.3149 0.04689 0.6286 0.09992 0.9393 0.17332 1.0659 0.56082 2.0856 1.13911 2.9976 0.04505 0.0848 0.12194 0.1483 0.21376 0.1764 0.04547 0.0139 0.09323 0.0187 0.14056 0.0142 0.04733 -0.0046 0.0933 -0.0184 0.13529 -0.0407 0.042 -0.0223 0.07918 -0.0526 0.10944 -0.0893 0.03025 -0.0367 0.05299 -0.079 0.06691 -0.1245 0.01392 -0.0454 0.01874 -0.0932 0.0142 -0.1405 -0.00454 -0.0473 -0.01836 -0.0933 -0.04066 -0.1353 -0.13731 -0.3559 -0.24102 -0.7239 -0.30976 -1.0991 -0.07994 -0.3698 -0.11991 -0.7594 -0.17986 -1.1591 -0.05995 -0.3997 -0.09992 -0.7794 -0.16987 -1.1691 -0.06994 -0.3897 -0.1299 -0.8194 -0.23981 -1.259 0.15035 0.1202 0.31083 0.2272 0.47963 0.3197 0.80753 0.2783 1.63187 0.5053 2.46807 0.6795 0.99922 0.0899 1.99844 0.1599 2.99766 0.2198v0.6295c0.01782 0.2892 0.08543 0.5732 0.19984 0.8394 0.1849 0.3697 0.47074 0.6794 0.82442 0.8934 0.35364 0.214 0.76074 0.3234 1.17404 0.3156 0.3913 -0.0096 0.7751 -0.1093 1.1217 -0.2912 0.3466 -0.182 0.6466 -0.4413 0.8767 -0.758 0.186 -0.2428 0.3095 -0.5276 0.3597 -0.8293 0.0249 -0.2492 0.0249 -0.5002 0 -0.7494 1.1192 0 2.2283 -0.1099 3.3174 -0.2298 0.8385 -0.0581 1.667 -0.2158 2.4681 -0.4697 0.0999 0 0.1799 -0.1099 0.2698 -0.1499 -0.0699 0.2698 -0.1499 0.5396 -0.1998 0.8194 -0.0697 0.47 -0.1098 0.9439 -0.1199 1.4189v2.1283c-0.0042 0.0473 0.0011 0.0949 0.0155 0.1401 0.0144 0.0452 0.0376 0.0872 0.0682 0.1234 0.0307 0.0362 0.0682 0.066 0.1104 0.0877 0.0422 0.0216 0.0883 0.0347 0.1356 0.0385 0.0965 0.0084 0.1925 -0.0215 0.2673 -0.0831 0.0747 -0.0617 0.1223 -0.1502 0.1324 -0.2466 0.1299 -0.6695 0.2698 -1.339 0.3797 -1.9985 0.0499 -0.2897 0.0799 -0.5695 0.1199 -0.8593 0.04 -0.2898 0.05 -0.5795 0.0699 -0.8693 0 -0.5496 0 -1.0792 0.07 -1.6187l0.0899 -0.1c0.0895 -0.2501 0.1224 -0.5168 0.0965 -0.7812 -0.0259 -0.2643 -0.1101 -0.5196 -0.2464 -0.7476ZM10.0085 6.80343c0.1232 -0.11326 0.2694 -0.19851 0.4287 -0.24988 0.1593 -0.05137 0.3278 -0.06765 0.4939 -0.04771 0.1662 0.01994 0.326 0.07562 0.4686 0.16321 0.1426 0.0876 0.2645 0.20503 0.3574 0.34422 0.0829 0.11542 0.1533 0.23936 0.2099 0.36971H9.49889c0.11931 -0.23236 0.29441 -0.4315 0.50961 -0.57955Zm2.588 11.83077c-0.0646 0.2046 -0.1738 0.3923 -0.3198 0.5496 -0.161 0.1571 -0.3518 0.2804 -0.5611 0.3628 -0.2093 0.0824 -0.433 0.1221 -0.6579 0.1168 -0.2093 0.0185 -0.4199 -0.0178 -0.6109 -0.1054 -0.1909 -0.0876 -0.3558 -0.2235 -0.47828 -0.3942 -0.12621 -0.1803 -0.21458 -0.3842 -0.2598 -0.5996v-0.3197c0.53958 0 1.08918 0.0599 1.63868 0.0699h1.349c-0.0379 0.1103 -0.0846 0.2172 -0.1399 0.3198h0.04Z" clip-rule="evenodd" stroke-width="1"></path>
  <path fill="#0c6fff" fill-rule="evenodd" d="M5.64202 15.8464c0.41968 -0.5396 -0.72943 -0.2398 2.35816 -0.3598l1.36893 -0.1798c0.04996 0.0699 0.19985 0.1299 0.23981 0.1798l0.99918 1.1192c0.3198 0.4496 0.8794 0.3097 1.369 0.0999 0.4196 -0.8593 0.3997 -1.289 0.8193 -1.299 0.7006 0.0681 1.4046 0.0948 2.1084 0.0799l1.3689 -0.1798c0 0.0699 0.1999 0.1299 0.2398 0.1798l0.7994 1.0992c0.2398 0.1798 0.8493 0.05 0.7194 -0.2198l-0.7394 -1.4789c-0.1095 -0.1727 -0.2367 -0.3334 -0.3797 -0.4796 -0.0968 -0.0769 -0.2094 -0.1315 -0.3297 -0.1599 -0.1989 -0.0512 -0.4045 -0.0714 -0.6095 -0.0599 -0.2998 0 -0.5996 0 -0.8894 0.0599 0.029 -0.0501 0.0442 -0.107 0.0442 -0.1649 0 -0.0578 -0.0152 -0.1147 -0.0442 -0.1648 -0.3097 -0.4397 -0.5395 -1.0592 -0.8493 -1.5788 -0.151 -0.2709 -0.347 -0.5142 -0.5795 -0.7194 -0.1377 -0.0904 -0.2956 -0.1453 -0.4597 -0.1599h-0.7594l-1.5987 -0.06H9.73882c-0.33618 0.0073 -0.67085 0.0475 -0.99922 0.1199 -0.17591 0.0495 -0.33489 0.1463 -0.45964 0.2798 -0.23173 0.3371 -0.41034 0.7078 -0.52958 1.0992 -0.14989 0.4596 -0.2598 0.9292 -0.35972 1.3489 -0.37578 -0.0299 -0.75334 -0.0299 -1.12912 0 -0.30021 0.0357 -0.5933 0.1165 -0.86932 0.2398 -0.12168 0.0488 -0.22364 0.1367 -0.28977 0.2498 -0.09476 0.2073 -0.17489 0.421 -0.23982 0.6395l-0.22982 0.7195c0 0.3597 0.56956 0.5595 0.74942 0.2698l0.25979 -0.5196Zm2.83779 -2.588c0.11948 -0.2398 0.26707 -0.4646 0.43965 -0.6695 0 0.06 0.17986 0 0.26979 0h3.15755c0.4796 0 0.4696 -0.4596 0.9992 0.2698 0.3597 0.4497 0.6495 0.9992 0.9992 1.3889 -0.4358 -0.0297 -0.8731 -0.0297 -1.309 0 -0.3002 0.0357 -0.5933 0.1165 -0.8693 0.2398 -0.1216 0.0488 -0.2236 0.1367 -0.2897 0.2498 -0.09 0.1599 -0.2099 0.5496 -0.2499 0.6395l-0.4296 0.6495 -0.8094 -1.189c-0.1095 -0.1575 -0.2369 -0.3017 -0.3797 -0.4297 -0.09791 -0.0751 -0.21011 -0.1295 -0.32973 -0.1599 -0.19889 -0.0512 -0.40448 -0.0714 -0.60952 -0.0599 -0.34973 0 -0.70945 0.0599 -0.99922 0.0699 0.1199 -0.3397 0.25663 -0.6731 0.40968 -0.9992Z" clip-rule="evenodd" stroke-width="1"></path>
  <path fill="#020202" fill-rule="evenodd" d="M18.592 22.661c-0.4926 0.0767 -0.9905 0.1135 -1.4889 0.11 -0.7694 0 -1.5388 0 -2.3182 -0.05h-1.7786l-2.528 0.0699H8.8096c-0.90929 0 -1.85855 0.1299 -2.80781 0.08 -0.59637 -0.027 -1.18554 -0.1415 -1.74863 -0.3398 -0.03871 -0.0164 -0.08028 -0.0251 -0.12233 -0.0254 -0.04205 -0.0004 -0.08377 0.0075 -0.12275 0.0233s-0.07447 0.0391 -0.10443 0.0686c-0.02996 0.0295 -0.0538 0.0647 -0.07017 0.1034 -0.03385 0.0769 -0.03606 0.1641 -0.00614 0.2426 0.02992 0.0786 0.08956 0.1422 0.16602 0.1771 0.60541 0.29 1.25293 0.4822 1.9185 0.5695 0.94023 0.1501 1.88732 0.2534 2.83778 0.3098h2.43806c1.2091 0 2.4181 -0.1499 3.6172 -0.2198 0.7994 -0.05 1.5688 -0.07 2.3482 -0.1499 0.535 -0.0442 1.066 -0.1277 1.5887 -0.2498 0.0466 -0.0099 0.0908 -0.0288 0.1301 -0.0557 0.0392 -0.0269 0.0728 -0.0613 0.0988 -0.1012 0.026 -0.0399 0.0439 -0.0845 0.0526 -0.1313 0.0087 -0.0468 0.0082 -0.0949 -0.0017 -0.1415 -0.0098 -0.0466 -0.0287 -0.0908 -0.0557 -0.13 -0.0269 -0.0393 -0.0613 -0.0729 -0.1012 -0.0989 -0.0399 -0.0259 -0.0845 -0.0438 -0.1313 -0.0525 -0.0468 -0.0088 -0.0949 -0.0082 -0.1414 0.0016v-0.01Z" clip-rule="evenodd" stroke-width="1"></path>
  <path fill="#020202" fill-rule="evenodd" d="M3.08385 7.53286c0.19446 -0.44767 0.42505 -0.87875 0.68947 -1.289 0.15657 -0.24113 0.35645 -0.45118 0.58953 -0.61951 0.7356 -0.45402 1.58368 -0.69286 2.44809 -0.68946 1.43888 -0.09993 3.01764 0.07993 4.19676 0.07993 1.2783 -0.1259 2.5625 -0.1826 3.847 -0.16986 0.7811 0.00146 1.5437 0.23824 2.1882 0.67947 0.1829 0.13818 0.3504 0.29563 0.4997 0.46963 0.2267 0.28755 0.4369 0.58781 0.6295 0.8993 0.0255 0.04416 0.0598 0.08258 0.1009 0.11283 0.041 0.03025 0.0879 0.05169 0.1376 0.06295 0.0498 0.01126 0.1013 0.01211 0.1514 0.00249 0.0501 -0.00961 0.0976 -0.02949 0.1397 -0.05837 0.0808 -0.05148 0.1385 -0.13236 0.1609 -0.22557 0.0223 -0.09321 0.0076 -0.19146 -0.041 -0.27404 -0.1882 -0.34845 -0.4019 -0.68244 -0.6395 -0.99922 -0.1634 -0.23547 -0.3584 -0.4473 -0.5796 -0.62951 -0.7369 -0.61746 -1.6417 -1.00026 -2.598 -1.09914 -1.331 -0.08101 -2.6658 -0.08101 -3.9968 0 -1.43251 -0.04972 -2.86659 -0.02638 -4.29668 0.06995 -1.04311 0.07683 -2.04051 0.45911 -2.86776 1.09914 -0.28935 0.2501 -0.52989 0.55161 -0.70945 0.88931 -0.25076 0.45855 -0.46461 0.93636 -0.6395 1.42888 -0.01803 0.03923 -0.02793 0.0817 -0.0291 0.12486 -0.00118 0.04315 0.0064 0.0861 0.02227 0.12625 0.01588 0.04015 0.03972 0.07667 0.07008 0.10736 0.03037 0.03068 0.06664 0.0549 0.10662 0.07119 0.07842 0.03061 0.16557 0.03006 0.2436 -0.00152 0.07803 -0.03158 0.14102 -0.09181 0.17607 -0.16834Z" clip-rule="evenodd" stroke-width="1"></path>
</svg>