<svg xmlns="http://www.w3.org/2000/svg" viewBox="0 0 32 32" id="Photography-Retouch-Wand--Streamline-Pixel">
  <desc>
    Photography Retouch Wand Streamline Icon: https://streamlinehq.com
  </desc>
  <title>photography-retouch-wand</title>
  <g>
    <path d="M30.48 12.19H32v7.62h-1.52Z" fill="#000000" stroke-width="1"></path>
    <path d="M28.96 19.81h1.52v3.05h-1.52Z" fill="#000000" stroke-width="1"></path>
    <path d="M28.96 9.15h1.52v3.04h-1.52Z" fill="#000000" stroke-width="1"></path>
    <path d="M27.43 22.86h1.53v3.05h-1.53Z" fill="#000000" stroke-width="1"></path>
    <path d="M27.43 6.1h1.53v3.05h-1.53Z" fill="#000000" stroke-width="1"></path>
    <path d="M25.91 25.91h1.52v1.52h-1.52Z" fill="#000000" stroke-width="1"></path>
    <path d="m27.43 15.24 -1.52 0 0 1.53 -1.52 0 0 1.52 1.52 0 0 1.52 1.52 0 0 -1.52 1.53 0 0 -1.52 -1.53 0 0 -1.53z" fill="#000000" stroke-width="1"></path>
    <path d="M25.91 4.58h1.52V6.1h-1.52Z" fill="#000000" stroke-width="1"></path>
    <path d="M24.39 10.67h1.52v1.52h-1.52Z" fill="#000000" stroke-width="1"></path>
    <path d="M22.86 27.43h3.05v1.53h-3.05Z" fill="#000000" stroke-width="1"></path>
    <path d="M22.86 21.34h1.53v1.52h-1.53Z" fill="#000000" stroke-width="1"></path>
    <path d="M22.86 3.05h3.05v1.53h-3.05Z" fill="#000000" stroke-width="1"></path>
    <path d="M21.34 6.1h1.52v1.52h-1.52Z" fill="#000000" stroke-width="1"></path>
    <path d="M19.81 28.96h3.05v1.52h-3.05Z" fill="#000000" stroke-width="1"></path>
    <path d="M19.81 1.53h3.05v1.52h-3.05Z" fill="#000000" stroke-width="1"></path>
    <path d="m19.81 19.81 -1.52 0 0 1.53 -1.52 0 0 1.52 1.52 0 0 1.52 1.52 0 0 -1.52 1.53 0 0 -1.52 -1.53 0 0 -1.53z" fill="#000000" stroke-width="1"></path>
    <path d="M12.2 30.48h7.61V32H12.2Z" fill="#000000" stroke-width="1"></path>
    <path d="M13.72 19.81h1.52v1.53h-1.52Z" fill="#000000" stroke-width="1"></path>
    <path d="m13.72 18.29 1.52 0 0 1.52 1.53 0 0 -1.52 1.52 0 0 -1.52 1.52 0 0 -1.53 1.53 0 0 -1.52 1.52 0 0 -1.53 -1.52 0 0 -1.52 -1.53 0 0 -1.52 -1.52 0 0 1.52 -1.52 0 0 1.52 -1.53 0 0 1.53 -1.52 0 0 1.52 -1.52 0 0 1.53 1.52 0 0 1.52z" fill="#000000" stroke-width="1"></path>
    <path d="m15.24 3.05 -1.52 0 0 1.53 -1.52 0 0 1.52 1.52 0 0 1.52 1.52 0 0 -1.52 1.53 0 0 -1.52 -1.53 0 0 -1.53z" fill="#000000" stroke-width="1"></path>
    <path d="M12.2 0h7.61v1.53H12.2Z" fill="#000000" stroke-width="1"></path>
    <path d="M12.2 21.34h1.52v1.52H12.2Z" fill="#000000" stroke-width="1"></path>
    <path d="M9.15 28.96h3.05v1.52H9.15Z" fill="#000000" stroke-width="1"></path>
    <path d="M10.67 22.86h1.53v1.52h-1.53Z" fill="#000000" stroke-width="1"></path>
    <path d="M10.67 16.77h1.53v1.52h-1.53Z" fill="#000000" stroke-width="1"></path>
    <path d="M10.67 9.15h1.53v1.52h-1.53Z" fill="#000000" stroke-width="1"></path>
    <path d="M9.15 1.53h3.05v1.52H9.15Z" fill="#000000" stroke-width="1"></path>
    <path d="M9.15 24.38h1.52v1.53H9.15Z" fill="#000000" stroke-width="1"></path>
    <path d="M9.15 18.29h1.52v1.52H9.15Z" fill="#000000" stroke-width="1"></path>
    <path d="m7.62 25.91 0 1.52 -1.52 0 0 1.53 3.05 0 0 -3.05 -1.53 0z" fill="#000000" stroke-width="1"></path>
    <path d="M7.62 19.81h1.53v1.53H7.62Z" fill="#000000" stroke-width="1"></path>
    <path d="M6.1 3.05h3.05v1.53H6.1Z" fill="#000000" stroke-width="1"></path>
    <path d="M6.1 21.34h1.52v1.52H6.1Z" fill="#000000" stroke-width="1"></path>
    <path d="m7.62 9.15 -1.52 0 0 1.52 -1.52 0 0 1.52 1.52 0 0 1.53 1.52 0 0 -1.53 1.53 0 0 -1.52 -1.53 0 0 -1.52z" fill="#000000" stroke-width="1"></path>
    <path d="M4.58 25.91H6.1v1.52H4.58Z" fill="#000000" stroke-width="1"></path>
    <path d="m6.1 24.38 0 -1.52 -3.05 0 0 3.05 1.53 0 0 -1.53 1.52 0z" fill="#000000" stroke-width="1"></path>
    <path d="M4.58 4.58H6.1V6.1H4.58Z" fill="#000000" stroke-width="1"></path>
    <path d="M3.05 6.1h1.53v3.05H3.05Z" fill="#000000" stroke-width="1"></path>
    <path d="M1.53 19.81h1.52v3.05H1.53Z" fill="#000000" stroke-width="1"></path>
    <path d="M1.53 9.15h1.52v3.04H1.53Z" fill="#000000" stroke-width="1"></path>
    <path d="M0 12.19h1.53v7.62H0Z" fill="#000000" stroke-width="1"></path>
  </g>
</svg>