<svg xmlns="http://www.w3.org/2000/svg" fill="none" viewBox="0 0 14 14" id="Cake-Slice--Streamline-Flex-Remix">
  <desc>
    Cake Slice Streamline Icon: https://streamlinehq.com
  </desc>
  <g id="cake-slice--cherry-cake-birthday-event-special-sweet-bake">
    <path id="Union" fill="#000000" fill-rule="evenodd" d="M6.23941 1.1305c0.1402 -0.315428 -0.0015 -0.685568 -0.31649 -0.826733 -0.315 -0.141166 -0.684 0.000099 -0.8242 0.315523l-0.35789 0.80523c-0.46345 0.06601 -0.88266 0.24713 -1.20801 0.57266 -0.42225 0.42248 -0.6013 1.00306 -0.6013 1.63321 0 0.42677 0.08213 0.83082 0.26631 1.17841 -0.24966 0.033 -0.49399 0.07164 -0.72725 0.11687 -0.89965 0.17444 -1.523643 0.88618 -1.736682 1.69621C0.534433 7.3803 0.504908 7.7641 0.500739 8.6674l-0.000006 0.00199L0.5 9.18172v0.02859C0.499988 10.4724 0.499984 10.854 0.73387 11.7433c0.213038 0.8101 0.83703 1.5218 1.73668 1.6962 1.60052 0.3104 3.72185 0.3103 4.51433 0.3103h0.03024c0.79248 0 2.91381 0.0001 4.51438 -0.3103 0.8996 -0.1744 1.5236 -0.8861 1.7366 -1.6962 0.2339 -0.8893 0.2339 -1.2709 0.2339 -2.53299v-0.0502c0 -0.18112 0 -0.34459 -0.0007 -0.4927 -0.0042 -0.9033 -0.0337 -1.28711 -0.2331 -2.04553 -0.2131 -0.81003 -0.8371 -1.52177 -1.7367 -1.69621 -1.4761 -0.28622 -3.3952 -0.30844 -4.30631 -0.31016 0.12135 -0.30071 0.17654 -0.63528 0.17654 -0.98512 0 -0.63015 -0.17905 -1.21073 -0.6013 -1.63321 -0.2115 -0.21161 -0.46266 -0.3622 -0.73986 -0.45982l0.18084 -0.40686ZM1.75049 8.83831c1.85692 0.34428 4.30511 0.34428 5.24955 0.34428 0.94448 0 3.39286 0 5.24976 -0.34432 0.0002 0.10018 0.0002 0.2076 0.0002 0.3238v0.02054c0 1.27739 -0.0017 1.51639 -0.1928 2.24279 -0.1122 0.4267 -0.4146 0.7189 -0.7657 0.787 -1.47185 0.2854 -3.4863 0.2874 -4.2915 0.2874 -0.8052 0 -2.81965 -0.002 -4.29151 -0.2874 -0.35112 -0.0681 -0.6535 -0.3603 -0.76573 -0.787 -0.19102 -0.7263 -0.19276 -0.9653 -0.19276 -2.24235l0.00049 -0.34474Zm2.66646 -5.95749c0.12129 -0.12136 0.33639 -0.2292 0.71542 -0.23516 0.01977 0.00091 0.03949 0.00087 0.0591 -0.0001 0.38364 0.00466 0.60075 0.11311 0.72283 0.23526 0.12485 0.12491 0.23543 0.34932 0.23543 0.74957 0 0.40025 -0.11058 0.62466 -0.23543 0.74957 -0.12479 0.12487 -0.3489 0.23542 -0.74868 0.23542 -0.39977 0 -0.62388 -0.11055 -0.74867 -0.23542 -0.12485 -0.12491 -0.23543 -0.34932 -0.23543 -0.74957 0 -0.40025 0.11058 -0.62466 0.23543 -0.74957Z" clip-rule="evenodd" stroke-width="1"></path>
  </g>
</svg>