<svg xmlns="http://www.w3.org/2000/svg" fill="none" viewBox="0 0 14 14" id="Champagne-Party-Alcohol--Streamline-Flex-Remix">
  <desc>
    Champagne Party Alcohol Streamline Icon: https://streamlinehq.com
  </desc>
  <g id="champagne-party-alcohol">
    <path id="Union" fill="#000000" fill-rule="evenodd" d="M9.71775 0.337858c-0.34093 0.060533 -0.56644 0.383863 -0.50369 0.722182 0.06275 0.33831 0.39 0.5635 0.73094 0.50297 0.1319 -0.02342 0.2645 -0.04561 0.398 -0.06661 0.1452 -0.02285 0.2573 0.0454 0.3053 0.13882 0.4752 0.92531 0.899 1.83905 1.1938 2.78313 -0.3783 0.17166 -0.8013 0.3681 -1.2228 0.57276 -0.0599 0.45983 -0.1379 0.92582 -0.242 1.39349l-0.001 0.00485 -0.0019 0.00831c-0.1076 0.48149 -0.2434 0.96755 -0.41677 1.45421 -0.14337 0.40255 -0.47002 0.78749 -0.80187 1.12301 -0.40508 0.40958 -0.20754 1.08932 0.36308 1.01029l0.44546 1.70143c-0.567 0.1835 -1.12784 0.3996 -1.688 0.6497 -0.37711 0.1684 -0.54472 0.6072 -0.37437 0.98 0.17034 0.3728 0.61414 0.5385 0.99124 0.3701 1.44253 -0.6442 2.88073 -1.0378 4.44393 -1.2164 0.4111 -0.047 0.7058 -0.4145 0.6583 -0.8208 -0.0476 -0.4064 -0.4193 -0.6977 -0.8304 -0.6508 -0.5993 0.0685 -1.1829 0.1661 -1.756 0.2941l-0.4427 -1.69068c1.7265 -0.69517 2.7281 -2.50641 2.3875 -4.30516 -0.2891 -1.52642 -0.9152 -2.91297 -1.5874 -4.2219 -0.3088 -0.601281 -0.9701 -0.910911 -1.6262 -0.807709 -0.14154 0.02227 -0.28234 0.045831 -0.42245 0.070707ZM4.06293 0.351653c-0.65001 -0.091645 -1.30534 0.217653 -1.62011 0.808377 -0.6967 1.30745 -1.34821 2.69176 -1.661948 4.21096 -0.176021 0.85234 -0.046139 1.70339 0.323428 2.43436 0.40364 0.79868 1.09327 1.45362 1.98247 1.81066l-0.47099 1.67849c-0.58457 -0.1216 -1.18029 -0.2119 -1.79269 -0.2722 -0.412219 -0.0406 -0.7793052 0.2607 -0.81991102 0.6729 -0.04060588 0.4122 0.26064602 0.7793 0.67286402 0.8199 0.783877 0.0772 1.535407 0.2076 2.270597 0.3953 0.00795 0.0022 0.0159 0.0042 0.02385 0.0061 0.73453 0.1888 1.45291 0.4349 2.17113 0.7422 0.38082 0.163 0.82163 -0.0136 0.98458 -0.3944 0.16296 -0.3809 -0.01365 -0.8217 -0.39446 -0.9846 -0.55158 -0.2361 -1.10414 -0.4394 -1.66292 -0.6114l0.46946 -1.67302c1.84315 0.25032 3.626 -0.82069 4.24141 -2.54858 0.15487 -0.43485 0.27761 -0.87296 0.37578 -1.31215l0.00186 -0.00861c0.23212 -1.04181 0.32719 -2.09274 0.38321 -3.1216 0.03685 -0.67659 -0.38125 -1.2715 -0.99971 -1.50569C7.077 0.944363 5.6199 0.571168 4.06293 0.351653ZM7.93557 5.86187l0.00142 -0.00622c0.20916 -0.93821 0.30054 -1.9119 0.3554 -2.91928 0.00553 -0.1014 -0.05497 -0.21599 -0.19422 -0.26872 -1.37684 -0.52135 -2.74398 -0.87158 -4.20975 -1.07824 -0.15661 -0.02208 -0.28716 0.05469 -0.34245 0.15845 -0.6823 1.28044 -1.26438 2.53679 -1.54093 3.87593 -0.02124 0.10283 -0.03577 0.20576 -0.04383 0.30829 0.93344 -0.08412 2.11275 -0.16948 3.03198 -0.16678 0.88739 0.0026 2.02691 0.08873 2.92528 0.17187l0.0171 -0.0753Z" clip-rule="evenodd" stroke-width="1"></path>
  </g>
</svg>