<svg xmlns="http://www.w3.org/2000/svg" fill="none" viewBox="0 0 14 14" id="Chef-Toque-Hat--Streamline-Flex-Remix">
  <desc>
    Chef Toque Hat Streamline Icon: https://streamlinehq.com
  </desc>
  <g id="chef-toque-hat--cook-gear-chef-cooking-nutrition-tools-clothes-hat-clothing-food-kitchenware">
    <path id="Union" fill="#000000" fill-rule="evenodd" d="M5.13061 2.44717C5.50243 1.89191 6.18915 1.5 6.99764 1.5c0.80901 0 1.49608 0.39241 1.86774 0.94822 0.16034 0.23979 0.46396 0.33869 0.73477 0.23936 0.24467 -0.08975 0.51375 -0.13989 0.79805 -0.13989 1.2137 0 2.1018 0.88881 2.1018 1.87217 0 0.95412 -0.5203 1.66303 -1.4222 1.83211 -0.3122 0.05853 -0.5309 0.34195 -0.5082 0.6588 0.086 1.20593 0.0794 1.93008 -0.0131 3.13993 -0.0008 0.0105 -0.0016 0.021 -0.0024 0.0316 -1.13777 -0.0279 -2.42207 -0.0515 -3.55413 -0.0515 -1.13202 0 -2.41628 0.0236 -3.55399 0.0515 -0.0008 -0.0106 -0.0016 -0.0211 -0.0024 -0.0316 -0.09255 -1.20974 -0.09904 -1.93395 -0.01294 -3.13989 0.02262 -0.31687 -0.19605 -0.6003 -0.50829 -0.65881C2.02039 6.08297 1.5 5.37402 1.5 4.41986c0 -0.98336 0.88811 -1.87217 2.10177 -1.87217 0.28314 0 0.55124 0.04974 0.79512 0.1388 0.2705 0.09879 0.57349 -0.00004 0.73372 -0.23932ZM6.99764 0.25c-1.03881 0 -1.98332 0.43267 -2.61711 1.13244 -0.25053 -0.05551 -0.51137 -0.08475 -0.77876 -0.08475C1.80352 1.29769 0.25 2.64493 0.25 4.41986c0 1.28343 0.664364 2.44726 1.90138 2.911 -0.05454 0.99231 -0.03749 1.72603 0.04585 2.81524 0.01121 0.1465 0.02367 0.3253 0.03689 0.5151 0.02578 0.37 0.05445 0.7815 0.08231 1.0749 0.01297 0.1366 0.0258 0.2717 0.03832 0.4061 0.07175 0.7708 0.67667 1.4101 1.47373 1.4785 2.00756 0.1724 4.33534 0.1724 6.34292 0 0.797 -0.0684 1.402 -0.7077 1.4737 -1.4785 0.0125 -0.1337 0.0252 -0.2682 0.0381 -0.404l0.0002 -0.0021c0.028 -0.2942 0.0568 -0.7067 0.0826 -1.0774 0.0131 -0.1887 0.0257 -0.3667 0.0368 -0.5126 0.0834 -1.08922 0.1005 -1.82291 0.046 -2.8153C13.0857 6.867 13.75 5.70322 13.75 4.41986c0 -1.77493 -1.5535 -3.12217 -3.3518 -3.12217 -0.2688 0 -0.53093 0.02955 -0.78265 0.08563C8.98175 0.683028 8.03688 0.25 6.99764 0.25Z" clip-rule="evenodd" stroke-width="1"></path>
  </g>
</svg>