<svg xmlns="http://www.w3.org/2000/svg" fill="none" viewBox="0 0 14 14" id="Ice-Cream-2--Streamline-Flex-Remix">
  <desc>
    Ice Cream 2 Streamline Icon: https://streamlinehq.com
  </desc>
  <g id="ice-cream-2--cook-frozen-popsicle-freezer-nutrition-cream-stick-cold-ice-cooking">
    <path id="Union" fill="#000000" fill-rule="evenodd" d="M7 0c-0.87738 0 -1.73106 0.119854 -2.50812 0.228952l-0.19646 0.027506c-0.77705 0.108191 -1.39411 0.747782 -1.44283 1.553282 -0.13679 2.262 -0.13679 4.44097 0 6.70297 0.0484 0.8003 0.66693 1.46195 1.47821 1.53199 0.27566 0.0238 0.54741 0.044 0.81642 0.0607 -0.03578 0.3013 -0.07019 0.6038 -0.09901 0.88 -0.04701 0.4508 -0.08337 0.8688 -0.07912 1.0872 0.01116 0.5736 0.22814 1.0679 0.6115 1.4158 0.37885 0.3438 0.88357 0.512 1.41945 0.512 0.53597 0 1.0407 -0.1684 1.41952 -0.5123 0.38331 -0.348 0.60027 -0.8423 0.61143 -1.4158 0.00425 -0.2185 -0.0321 -0.6364 -0.0791 -1.0871 -0.02881 -0.2762 -0.06321 -0.5786 -0.09899 -0.8798 0.26898 -0.0167 0.54069 -0.0369 0.8163 -0.0607 0.8113 -0.07003 1.4298 -0.73169 1.4782 -1.53199 0.1368 -2.262 0.1368 -4.44097 0 -6.70297 -0.0487 -0.8055 -0.6658 -1.445091 -1.44282 -1.553282L9.50812 0.228952C8.73106 0.119854 7.87738 0 7 0ZM4.4678 1.49452l0.18381 -0.0257C5.44375 1.35788 6.214 1.25 7 1.25c0.786 0 1.55625 0.10788 2.34839 0.21882l0.18381 0.0257c0.20282 0.02823 0.35563 0.19459 0.36749 0.39067 0.13371 2.21175 0.13371 4.34032 0 6.55207 -0.01218 0.20127 -0.16376 0.34702 -0.33798 0.36206 -1.76581 0.15241 -3.35761 0.15241 -5.12342 0 -0.17422 -0.01504 -0.3258 -0.1608 -0.33798 -0.36206 -0.13375 -2.21175 -0.13375 -4.34032 0 -6.55207 0.01186 -0.19608 0.16467 -0.36244 0.36749 -0.39067Zm0.66172 5.00475c0 0.34518 0.27982 0.625 0.625 0.625 0.34517 0 0.625 -0.27982 0.625 -0.625V3.66433c0 -0.34518 -0.27983 -0.625 -0.625 -0.625 -0.34518 0 -0.625 0.27982 -0.625 0.625v2.83494Zm3.05517 0.625c-0.34518 0 -0.625 -0.27982 -0.625 -0.625V3.66433c0 -0.34518 0.27982 -0.625 0.625 -0.625s0.625 0.27982 0.625 0.625v2.83494c0 0.34518 -0.27982 0.625 -0.625 0.625Z" clip-rule="evenodd" stroke-width="1"></path>
  </g>
</svg>