<svg xmlns="http://www.w3.org/2000/svg" fill="none" viewBox="0 0 14 14" id="Artist-Song--Streamline-Flex">
  <desc>
    Artist Song Streamline Icon: https://streamlinehq.com
  </desc>
  <g id="artist-song--artist-song-entertainment">
    <path id="Union" fill="#d7e0ff" fill-rule="evenodd" d="M5.395 8.165a7.684 7.684 0 0 0 -3.915 1.05c-0.372 0.22 -0.618 0.51 -0.72 0.84 -0.1 0.328 -0.048 0.66 0.108 0.949 0.308 0.572 1.026 0.985 1.89 0.985h5.274c0.865 0 1.582 -0.413 1.891 -0.985a1.22 1.22 0 0 0 0.107 -0.948c-0.102 -0.33 -0.348 -0.62 -0.719 -0.84a7.684 7.684 0 0 0 -3.916 -1.05Z" clip-rule="evenodd" stroke-width="1"></path>
    <path id="Subtract" stroke="#4147d5" stroke-linecap="round" stroke-linejoin="round" d="M6.12 11.919H2.525c-1.528 0 -2.387 -1.634 -1.115 -2.481a7.164 7.164 0 0 1 3.985 -1.203c0.837 0 1.64 0.143 2.388 0.406" stroke-width="1"></path>
    <path id="Vector" stroke="#4147d5" stroke-linecap="round" stroke-linejoin="round" d="M10.543 11.642V7.24c1.441 0 2.732 1.232 2.747 2.673l0 0.052" stroke-width="1"></path>
    <path id="Vector_2" fill="#ffffff" d="M9.228 12.916c0.815 0 1.274 -0.459 1.274 -1.274s-0.46 -1.274 -1.274 -1.274c-0.815 0 -1.274 0.459 -1.274 1.274s0.459 1.274 1.274 1.274Z" stroke-width="1"></path>
    <path id="Vector_3" stroke="#4147d5" stroke-linecap="round" stroke-linejoin="round" d="M9.228 12.916c0.815 0 1.274 -0.459 1.274 -1.274s-0.46 -1.274 -1.274 -1.274c-0.815 0 -1.274 0.459 -1.274 1.274s0.459 1.274 1.274 1.274Z" stroke-width="1"></path>
    <path id="Vector_4" fill="#d7e0ff" d="M5.354 6.135c1.664 0 2.6 -0.936 2.6 -2.6 0 -1.664 -0.936 -2.6 -2.6 -2.6 -1.664 0 -2.6 0.936 -2.6 2.6 0 1.664 0.936 2.6 2.6 2.6Z" stroke-width="1"></path>
    <path id="Vector_5" stroke="#4147d5" stroke-linecap="round" stroke-linejoin="round" d="M5.354 6.135c1.664 0 2.6 -0.936 2.6 -2.6 0 -1.664 -0.936 -2.6 -2.6 -2.6 -1.664 0 -2.6 0.936 -2.6 2.6 0 1.664 0.936 2.6 2.6 2.6Z" stroke-width="1"></path>
  </g>
</svg>