<svg xmlns="http://www.w3.org/2000/svg" fill="none" viewBox="0 0 14 14" id="Button-Record-1--Streamline-Flex">
  <desc>
    Button Record 1 Streamline Icon: https://streamlinehq.com
  </desc>
  <g id="button-record-1--button-multimedia-multi-media-controls-record-circle">
    <path id="Vector" fill="#ffffff" d="M7 9.5c1.6 0 2.5 -0.9 2.5 -2.5S8.6 4.5 7 4.5 4.5 5.4 4.5 7 5.4 9.5 7 9.5Z" stroke-width="1"></path>
    <path id="Subtract" fill="#d7e0ff" fill-rule="evenodd" d="M13.25 7c0 4 -2.25 6.25 -6.25 6.25S0.75 11 0.75 7 3 0.75 7 0.75 13.25 3 13.25 7ZM9.5 7c0 1.6 -0.9 2.5 -2.5 2.5S4.5 8.6 4.5 7 5.4 4.5 7 4.5s2.5 0.9 2.5 2.5Z" clip-rule="evenodd" stroke-width="1"></path>
    <path id="Vector_2" stroke="#4147d5" stroke-linecap="round" stroke-linejoin="round" d="M7 13.25c4 0 6.25 -2.25 6.25 -6.25S11 0.75 7 0.75 0.75 3 0.75 7 3 13.25 7 13.25Z" stroke-width="1"></path>
    <path id="Vector_3" stroke="#4147d5" stroke-linecap="round" stroke-linejoin="round" d="M7 9.5c1.6 0 2.5 -0.9 2.5 -2.5S8.6 4.5 7 4.5 4.5 5.4 4.5 7 5.4 9.5 7 9.5Z" stroke-width="1"></path>
  </g>
</svg>