<svg xmlns="http://www.w3.org/2000/svg" fill="none" viewBox="0 0 14 14" id="Tape-Cassette-Record--Streamline-Flex">
  <desc>
    Tape Cassette Record Streamline Icon: https://streamlinehq.com
  </desc>
  <g id="tape-cassette-record--music-entertainment-tape-cassette-record">
    <path id="Subtract" fill="#d7e0ff" fill-rule="evenodd" d="M2.58647 12.2606c1.42066 0.1618 2.89668 0.2831 4.41353 0.2831 1.51686 0 2.99287 -0.1213 4.4135 -0.2831 0.8208 -0.0935 1.5004 -0.6948 1.6204 -1.512 0.1479 -1.0068 0.2161 -2.11417 0.2161 -3.34499 0 -1.23081 -0.0682 -2.33812 -0.2161 -3.34485 -0.12 -0.81727 -0.7996 -1.41858 -1.6204 -1.51205C9.99287 2.3849 8.51686 2.26367 7 2.26367c-1.51685 0 -2.99287 0.12123 -4.41353 0.28304 -0.82074 0.09347 -1.50032 0.69478 -1.620385 1.51205C0.818193 5.06549 0.75 6.1728 0.75 7.40361c0 1.23082 0.068194 2.33819 0.216089 3.34499 0.120061 0.8172 0.799641 1.4185 1.620381 1.512Zm1.52212 -6.97269c1.49833 -0.54533 4.29598 -0.5441 5.80829 0.00313C10.5283 5.37262 11 5.89623 11 6.53c0 0.67764 -0.5392 1.22935 -1.212 1.24943 -1.49636 0.48901 -4.07888 0.48924 -5.55908 0.00039C3.54829 7.76857 3 7.21332 3 6.53c0 -0.64255 0.48481 -1.17186 1.10859 -1.24209Z" clip-rule="evenodd" stroke-width="1"></path>
    <path id="Union" fill="#ffffff" d="M9.91688 5.29116c-1.51231 -0.54723 -4.30996 -0.54846 -5.80829 -0.00313C3.48481 5.35826 3 5.88758 3 6.53012c0 0.68332 0.54829 1.23858 1.22892 1.24983 1.4802 0.48885 4.06272 0.48861 5.55908 -0.0004C10.4608 7.75947 11 7.20777 11 6.53012c0 -0.63377 -0.4717 -1.15738 -1.08312 -1.23896Z" stroke-width="1"></path>
    <path id="Intersect" stroke="#4147d5" stroke-linecap="round" stroke-linejoin="round" d="M7 12.5437c-1.51685 0 -2.99287 -0.1213 -4.41353 -0.2831 -0.82074 -0.0935 -1.50032 -0.6948 -1.620381 -1.512C0.818194 9.7418 0.75 8.63443 0.75 7.40361c0 -1.23081 0.068193 -2.33812 0.216085 -3.34485 0.120065 -0.81727 0.799645 -1.41858 1.620385 -1.51205C4.00713 2.3849 5.48315 2.26367 7 2.26367c1.51686 0 2.99287 0.12123 4.4135 0.28304 0.8208 0.09347 1.5004 0.69478 1.6204 1.51205 0.1479 1.00673 0.2161 2.11404 0.2161 3.34485 0 1.23082 -0.0682 2.33819 -0.2161 3.34499 -0.12 0.8172 -0.7996 1.4185 -1.6204 1.512 -1.42063 0.1618 -2.89664 0.2831 -4.4135 0.2831Z" stroke-width="1"></path>
    <path id="Vector 1164" stroke="#4147d5" stroke-linecap="round" stroke-linejoin="round" d="m4.08594 12.414 0.42187 -1.8125c1.91516 -0.3336 3.00741 -0.3297 4.98438 0l0.33593 1.8125" stroke-width="1"></path>
    <path id="Vector 588" stroke="#4147d5" stroke-linecap="round" stroke-linejoin="round" d="M4.28613 7.7981c1.46917 0.46426 3.95865 0.46417 5.44372 0" stroke-width="1"></path>
    <path id="Vector 1165" stroke="#4147d5" stroke-linecap="round" stroke-linejoin="round" d="M4.28516 5.22798c1.46916 -0.46425 3.95864 -0.46406 5.44371 0.00014" stroke-width="1"></path>
    <path id="Vector" stroke="#4147d5" stroke-linecap="round" stroke-linejoin="round" d="M4.24897 7.77017c0.79997 0 1.24996 -0.44999 1.24996 -1.24996 0 -0.79996 -0.44999 -1.24995 -1.24996 -1.24995 -0.79996 0 -1.24995 0.44999 -1.24995 1.24995 0 0.79997 0.44999 1.24996 1.24995 1.24996Z" stroke-width="1"></path>
    <path id="Vector_2" stroke="#4147d5" stroke-linecap="round" stroke-linejoin="round" d="M9.74995 7.77017c0.79995 0 1.24995 -0.44999 1.24995 -1.24996 0 -0.79996 -0.45 -1.24995 -1.24995 -1.24995 -0.79997 0 -1.24995 0.44999 -1.24995 1.24995 0 0.79997 0.44998 1.24996 1.24995 1.24996Z" stroke-width="1"></path>
  </g>
</svg>