<svg xmlns="http://www.w3.org/2000/svg" fill="none" viewBox="0 0 14 14" id="Volume-Mute--Streamline-Flex">
  <desc>
    Volume Mute Streamline Icon: https://streamlinehq.com
  </desc>
  <g id="volume-mute--speaker-remove-volume-control-audio-music-mute-off-cross-entertainment">
    <path id="Vector" stroke="#4147d5" stroke-linecap="round" stroke-linejoin="round" d="m10 5.5 3 2.99998" stroke-width="1"></path>
    <path id="Vector_2" stroke="#4147d5" stroke-linecap="round" stroke-linejoin="round" d="m13 5.5 -3 2.99997" stroke-width="1"></path>
    <path id="Vector 455" fill="#d7e0ff" d="M0.897145 5.4566C0.812619 5.941 0.75 6.47989 0.75 7c0 0.52011 0.062619 1.059 0.147145 1.5434 0.162325 0.93022 0.864205 1.706 1.799055 1.839 0.23122 0.0329 0.50032 0.0611 0.81746 0.0817 0.75596 0.0489 1.43918 0.4715 1.8463 1.1104 0.1595 0.2502 0.32807 0.4945 0.50235 0.7262 0.78319 1.0416 2.00425 0.4401 2.0575 -0.8619C7.96426 10.352 8 8.89042 8 7c0 -1.89042 -0.03574 -3.352 -0.08019 -4.43878 -0.05325 -1.30206 -1.27431 -1.903503 -2.0575 -0.86196 -0.17428 0.23178 -0.34285 0.476 -0.50235 0.72627 -0.40712 0.63884 -1.09034 1.06144 -1.8463 1.11039 -0.31714 0.02053 -0.58624 0.04874 -0.81746 0.08165 -0.93485 0.13305 -1.63673 0.90881 -1.799055 1.83903Z" stroke-width="1"></path>
    <path id="Vector 456" stroke="#4147d5" stroke-linecap="round" stroke-linejoin="round" d="M0.897145 5.4566C0.812619 5.941 0.75 6.47989 0.75 7c0 0.52011 0.062619 1.059 0.147145 1.5434 0.162325 0.93022 0.864205 1.706 1.799055 1.839 0.23122 0.0329 0.50032 0.0611 0.81746 0.0817 0.75596 0.0489 1.43918 0.4715 1.8463 1.1104 0.1595 0.2502 0.32807 0.4945 0.50235 0.7262 0.78319 1.0416 2.00425 0.4401 2.0575 -0.8619C7.96426 10.352 8 8.89042 8 7c0 -1.89042 -0.03574 -3.352 -0.08019 -4.43878 -0.05325 -1.30206 -1.27431 -1.903503 -2.0575 -0.86196 -0.17428 0.23178 -0.34285 0.476 -0.50235 0.72627 -0.40712 0.63884 -1.09034 1.06144 -1.8463 1.11039 -0.31714 0.02053 -0.58624 0.04874 -0.81746 0.08165 -0.93485 0.13305 -1.63673 0.90881 -1.799055 1.83903Z" stroke-width="1"></path>
  </g>
</svg>