<svg xmlns="http://www.w3.org/2000/svg" fill="none" viewBox="0 0 14 14" id="Cloud-Data-Transfer--Streamline-Flex">
  <desc>
    Cloud Data Transfer Streamline Icon: https://streamlinehq.com
  </desc>
  <g id="cloud-data-transfer--cloud-data-transfer-internet-server-network">
    <path id="Subtract" fill="#fddc5c" fill-rule="evenodd" d="M4.67193 0.698876C5.39083 0.224091 6.28879 0 7.30695 0c1.24144 0 2.3044 0.334179 3.07635 1.04343 0.6548 0.6016 1.0438 1.42115 1.1853 2.38861 0.6428 0.09874 1.2049 0.35529 1.6327 0.794 0.5474 0.56142 0.7941 1.33837 0.7941 2.21955 0 0.9943 -0.3237 1.78677 -0.8634 2.39364 -0.5282 0.59384 -1.2308 0.97441 -1.9421 1.22267 -0.0532 0.0186 -0.1066 0.0365 -0.1602 0.0537 -0.3409 -0.31283 -0.7914 -0.49381 -1.26818 -0.49381h-0.17509V8.17013c0 -1.03554 -0.83947 -1.87501 -1.875 -1.875 -0.38304 0 -0.73925 0.11485 -1.03607 0.312 -0.0379 -0.02364 -0.07724 -0.04654 -0.11807 -0.0686 -0.96599 -0.52194 -1.85516 -0.09789 -2.23822 0.18286 -0.52321 0.38344 -1.47033 1.16877 -2.19581 2.33879 -0.07803 0.12586 -0.1399 0.25878 -0.18552 0.39584 -0.35603 -0.21613 -0.68765 -0.4767 -0.973452 -0.79161C0.366051 8.00523 0 7.14144 0 6.05051 0 4.93793 0.316064 3.98067 0.996811 3.3024c0.595979 -0.59382 1.406099 -0.90865 2.347259 -0.97764 0.28099 -0.67551 0.72595 -1.22837 1.32786 -1.625884Z" clip-rule="evenodd" stroke-width="1"></path>
    <path id="Union" fill="#0c098c" fill-rule="evenodd" d="M4.67325 2.45801c0.17931 -0.29586 0.41023 -0.53294 0.68754 -0.71608 0.46515 -0.3072 1.10619 -0.49193 1.94616 -0.49193 1.02324 0 1.75091 0.27313 2.23068 0.71392 0.47677 0.43803 0.78707 1.11353 0.83557 2.07801 0.0165 0.32837 0.2846 0.5878 0.6133 0.59352 0.6435 0.01119 1.0614 0.19819 1.3199 0.46326 0.2591 0.26577 0.439 0.69313 0.439 1.34688 0 0.73326 -0.2403 1.24217 -0.5992 1.61917 -0.3733 0.39212 -0.9101 0.67687 -1.5449 0.87541 -0.3295 0.10302 -0.513 0.45361 -0.41 0.78306 0.1031 0.32947 0.4536 0.51297 0.7831 0.40997 0.7511 -0.2349 1.5056 -0.60622 2.0771 -1.20655 0.586 -0.61546 0.9439 -1.43538 0.9439 -2.48106 0 -0.88118 -0.2467 -1.65813 -0.7941 -2.21955 -0.4278 -0.43871 -0.9899 -0.69526 -1.6327 -0.794 -0.1415 -0.96746 -0.5305 -1.78701 -1.1853 -2.38861C9.61135 0.334179 8.54839 0 7.30695 0 6.28879 0 5.39083 0.224091 4.67193 0.698876c-0.60191 0.397514 -1.04687 0.950374 -1.32786 1.625884 -0.94116 0.06899 -1.75128 0.38382 -2.347259 0.97764C0.316064 3.98067 0 4.93793 0 6.05051c0 1.51113 0.700056 2.55566 1.67965 3.23771 0.28328 0.19724 0.67281 0.12748 0.87005 -0.15579 0.19723 -0.28328 0.12748 -0.67281 -0.1558 -0.87005C1.70959 7.78593 1.25 7.10579 1.25 6.05051c0 -0.88125 0.24675 -1.48167 0.62908 -1.86262 0.36307 -0.36175 0.92523 -0.60214 1.73867 -0.62582 0.03426 0.00582 0.06947 0.00885 0.10539 0.00885 0.44182 0 0.87551 0.14679 1.2364 0.37249 0.36835 0.23036 0.61157 0.51139 0.71138 0.72445 0.14644 0.31258 0.51854 0.44726 0.83112 0.30082 0.31258 -0.14644 0.44726 -0.51854 0.30082 -0.83112 -0.22602 -0.48245 -0.66219 -0.92981 -1.18052 -1.25396 -0.2819 -0.1763 -0.60245 -0.3253 -0.94909 -0.42559ZM3.17069 10.3522c-0.1103 -0.1981 -0.10459 -0.44051 0.01493 -0.63327 0.60771 -0.98009 1.41502 -1.65411 1.87235 -1.98928 0.19429 -0.14239 0.54597 -0.28539 0.90511 -0.09134 0.34708 0.18753 0.42881 0.54563 0.42881 0.77581V13.375c0 0.3451 -0.27982 0.625 -0.625 0.625 -0.34517 0 -0.625 -0.2799 -0.625 -0.625v-2.7017H3.7168c-0.22681 0 -0.43581 -0.1229 -0.54611 -0.3211Zm4.34455 3.5546c-0.34707 -0.1876 -0.42881 -0.5457 -0.42881 -0.7759V8.17011c0 -0.34518 0.27982 -0.625 0.625 -0.625 0.34517 0 0.625 0.27982 0.625 0.625v2.70169h1.42509c0.22681 0 0.43578 0.1228 0.54608 0.321 0.1103 0.1982 0.1046 0.4406 -0.0149 0.6333 -0.60771 0.9801 -1.41502 1.6541 -1.87235 1.9893 -0.19429 0.1424 -0.54597 0.2854 -0.90511 0.0914Z" clip-rule="evenodd" stroke-width="1"></path>
  </g>
</svg>