<svg xmlns="http://www.w3.org/2000/svg" fill="none" viewBox="0 0 14 14" id="Cloud-Download--Streamline-Flex">
  <desc>
    Cloud Download Streamline Icon: https://streamlinehq.com
  </desc>
  <g id="cloud-download--cloud-down-internet-network-download-server-arrow">
    <path id="Subtract" fill="#ff7972" fill-rule="evenodd" d="M4.67193 0.698876C5.39083 0.224091 6.28879 0 7.30695 0c1.24144 0 2.3044 0.334179 3.07635 1.04343 0.6548 0.6016 1.0438 1.42115 1.1853 2.38861 0.6428 0.09874 1.2049 0.35529 1.6327 0.794 0.5474 0.56142 0.7941 1.33837 0.7941 2.21955 0 0.9943 -0.3237 1.78677 -0.8634 2.39364 -0.5282 0.59384 -1.2308 0.97441 -1.9421 1.22267 -0.2484 0.0867 -0.5029 0.159 -0.7585 0.2192 -0.3505 -0.45357 -0.89577 -0.72852 -1.48379 -0.72852h-0.0725l0 -1.37411c0 -1.03554 -0.83947 -1.875 -1.875 -1.875 -1.03554 0 -1.875 0.83946 -1.875 1.875l0 1.37411h-0.07235c-0.53836 0 -1.04091 0.23047 -1.39089 0.61752 -0.1838 -0.05 -0.36663 -0.106 -0.5468 -0.1688 -0.78651 -0.27417 -1.56491 -0.69135 -2.150782 -1.33689C0.366051 8.00523 0 7.14144 0 6.05051 0 4.93793 0.316064 3.98067 0.996811 3.3024c0.595979 -0.59382 1.406099 -0.90865 2.347259 -0.97764 0.28099 -0.67551 0.72595 -1.22837 1.32786 -1.625884Z" clip-rule="evenodd" stroke-width="1"></path>
    <path id="Union" fill="#0c098c" fill-rule="evenodd" d="M4.67325 2.45801c0.17931 -0.29586 0.41023 -0.53294 0.68754 -0.71608 0.46515 -0.3072 1.10619 -0.49193 1.94616 -0.49193 1.02324 0 1.75091 0.27313 2.23068 0.71392 0.47677 0.43803 0.78707 1.11353 0.83557 2.07801 0.0165 0.32837 0.2846 0.5878 0.6133 0.59352 0.6435 0.01119 1.0614 0.19819 1.3199 0.46326 0.2591 0.26577 0.439 0.69313 0.439 1.34688 0 0.75812 -0.2569 1.27819 -0.6398 1.66076 -0.3996 0.39922 -0.9722 0.68249 -1.6405 0.87465 -0.3317 0.09539 -0.52329 0.44164 -0.4279 0.77337 0.0954 0.33173 0.4416 0.52333 0.7734 0.42793 0.7801 -0.22428 1.5738 -0.58763 2.1784 -1.19163 0.6213 -0.62065 1.0064 -1.46039 1.0064 -2.54508 0 -0.88118 -0.2467 -1.65813 -0.7941 -2.21955 -0.4278 -0.43871 -0.9899 -0.69526 -1.6327 -0.794 -0.1415 -0.96746 -0.5305 -1.78701 -1.1853 -2.38861C9.61135 0.334179 8.54839 0 7.30695 0 6.28879 0 5.39083 0.224091 4.67193 0.698876c-0.60191 0.397514 -1.04687 0.950374 -1.32786 1.625884 -0.94116 0.06899 -1.75128 0.38382 -2.347259 0.97764C0.316064 3.98067 0 4.93793 0 6.05051 0 7.2264 0.425182 8.1343 1.10007 8.80662c0.65834 0.65583 1.52333 1.05811 2.37479 1.31038 0.33096 0.0981 0.67875 -0.0907 0.77681 -0.42165 0.09807 -0.33095 -0.09072 -0.67874 -0.42168 -0.77681 -0.74199 -0.21986 -1.39071 -0.54222 -1.84772 -0.99749C1.54181 7.48227 1.25 6.89261 1.25 6.05051c0 -0.88125 0.24675 -1.48167 0.62908 -1.86262 0.36307 -0.36175 0.92523 -0.60214 1.73867 -0.62582 0.03426 0.00582 0.06947 0.00885 0.10539 0.00885 0.44182 0 0.87551 0.14679 1.2364 0.37249 0.36835 0.23036 0.61157 0.51139 0.71138 0.72445 0.14644 0.31258 0.51854 0.44726 0.83112 0.30082 0.31258 -0.14644 0.44726 -0.51854 0.30082 -0.83112 -0.22602 -0.48245 -0.66219 -0.92981 -1.18052 -1.25396 -0.2819 -0.1763 -0.60245 -0.3253 -0.94909 -0.42559Zm2.95184 5.72046c0 -0.34518 -0.27982 -0.625 -0.625 -0.625 -0.34517 0 -0.625 0.27982 -0.625 0.625l0 2.62413H5.05274c-0.24157 0 -0.46151 0.1392 -0.56488 0.3575 -0.10338 0.2184 -0.07167 0.4767 0.08143 0.6636 0.72557 0.8856 1.18219 1.3427 2.03698 2.0366 0.22954 0.1863 0.55825 0.1863 0.7878 0 0.85479 -0.6939 1.3114 -1.151 2.03698 -2.0366 0.1531 -0.1869 0.1848 -0.4452 0.08143 -0.6636 -0.10337 -0.2183 -0.32332 -0.3575 -0.56489 -0.3575h-1.3225l0 -2.62413Z" clip-rule="evenodd" stroke-width="1"></path>
  </g>
</svg>