<svg xmlns="http://www.w3.org/2000/svg" fill="none" viewBox="0 0 14 14" id="Module-Puzzle-2--Streamline-Flex">
  <desc>
    Module Puzzle 2 Streamline Icon: https://streamlinehq.com
  </desc>
  <g id="module-puzzle-2--code-puzzle-module-programming-plugin-piece">
    <path id="Union" fill="#ff7972" d="M4.11906 3.5336c-0.05816 -0.20976 -0.08791 -0.44403 -0.08791 -0.70144 0 -1.25258 0.70458 -1.95716 1.95716 -1.95716 1.25259 0 1.95717 0.70458 1.95717 1.95716 0 0.25741 -0.02976 0.49168 -0.08791 0.70144 0.72503 0.0376 1.4478 0.0859 1.96192 0.12259 0.43401 0.03098 0.79221 0.34835 0.88461 0.77358l0.0305 0.14031c0.1294 0.59438 0.2282 1.19539 0.2962 1.79986 0.0426 -0.00172 0.0859 -0.00258 0.1298 -0.00258 1.2572 0 1.9644 0.70718 1.9644 1.96439 0 1.2572 -0.7072 1.96435 -1.9644 1.96435 -0.0407 0 -0.0809 -0.0007 -0.1205 -0.0022 -0.0639 0.5903 -0.1576 1.1775 -0.2812 1.7584l-0.0312 0.147c-0.0905 0.4259 -0.4472 0.7454 -0.88134 0.7786 -2.56857 0.1962 -5.14724 0.1962 -7.71581 -0.0001 -0.43418 -0.0331 -0.79085 -0.3526 -0.88128 -0.7786l-0.03124 -0.1469c-0.12896 -0.6062 -0.253507 -1.1916 -0.34303 -1.8189 0.1702 0.0347 0.35475 0.0524 0.55304 0.0524 1.25258 0 1.95716 -0.70462 1.95716 -1.95721 0 -1.25258 -0.70458 -1.95716 -1.95716 -1.95716 -0.19472 0 -0.3762 0.01702 -0.543844 0.05049 0.093783 -0.63731 0.223494 -1.23329 0.358154 -1.85196l0.0305 -0.14024c0.09238 -0.42524 0.45054 -0.74261 0.8846 -0.77358 0.51405 -0.03668 1.23668 -0.08496 1.96161 -0.12254Z" stroke-width="1"></path>
    <path id="Union_2" fill="#0c098c" fill-rule="evenodd" d="M5.98832 0.25c-0.74134 0 -1.40876 0.210435 -1.89024 0.691921 -0.48149 0.481489 -0.69192 1.148909 -0.69192 1.890239 0 0.03867 0.00056 0.07711 0.0017 0.11532 -0.48629 0.0291 -0.94031 0.05995 -1.29489 0.08525 -0.71736 0.05118 -1.300915 0.57438 -1.450833 1.26415l-0.000035 0.00016 -0.03045 0.14 -0.000018 0.00008 -0.001954 0.00898C0.496295 5.05894 0.362756 5.67248 0.265862 6.33093c-0.029592 0.20109 0.040454 0.40402 0.187794 0.54404 0.147339 0.14002 0.353567 0.19965 0.552894 0.15986 0.12282 -0.02452 0.26295 -0.0384 0.4215 -0.0384 0.51125 0 0.82241 0.14185 1.00636 0.3258 0.18395 0.18395 0.3258 0.49511 0.3258 1.00636s-0.14185 0.82241 -0.3258 1.00636c-0.18395 0.18395 -0.49511 0.32581 -1.00636 0.32581 -0.16146 0 -0.30381 -0.0144 -0.42822 -0.03976 -0.199131 -0.04059 -0.405564 0.01818 -0.553464 0.15756 -0.147901 0.13937 -0.218801 0.34194 -0.19009 0.54314 0.092527 0.6484 0.220798 1.2513 0.348547 1.8517l0.001879 0.0089 0.00002 0 0.031181 0.1467 0.000004 0 0.000035 0.0002c0.146646 0.6904 0.727398 1.217 1.444998 1.2718 2.60027 0.1987 5.21077 0.1987 7.81103 0.0001 0.71763 -0.0549 1.29843 -0.5815 1.44503 -1.2719l0 -0.0001 0.0312 -0.1467c0.0907 -0.4263 0.1658 -0.8556 0.2254 -1.2869 0.5681 -0.0693 1.0741 -0.2817 1.4606 -0.6682 0.4827 -0.48268 0.6938 -1.15191 0.6938 -1.89555 0 -0.74365 -0.2111 -1.41288 -0.6938 -1.89559 -0.3891 -0.38912 -0.8994 -0.60173 -1.4722 -0.66955 -0.0633 -0.44578 -0.1429 -0.8893 -0.2387 -1.32938l0 -0.00007 -0.0305 -0.14007 -4.03005 -1.87364c0 -0.00002 -0.00001 -0.00005 -0.00001 -0.00007l4.03006 1.87354c-0.1499 -0.68976 -0.7335 -1.21295 -1.45081 -1.26414 -0.35465 -0.02531 -0.8088 -0.05617 -1.29521 -0.08529 0.00114 -0.03822 0.00171 -0.07666 0.00171 -0.11533 0 -0.74133 -0.21044 -1.40875 -0.69193 -1.890239C7.39708 0.460435 6.72966 0.25 5.98832 0.25ZM5.4443 1.56777c0.1496 -0.04271 0.32914 -0.06777 0.54402 -0.06777 0.51125 0 0.82241 0.14185 1.00636 0.3258 0.12865 0.12866 0.23672 0.31954 0.29006 0.59758L5.4443 1.56777Zm0 0c-0.00001 0.00001 -0.00002 0.00001 -0.00003 0.00001L4.09808 0.941921l1.34622 0.625849Zm-0.00003 0.00001c-0.20631 0.05891 -0.35568 0.1514 -0.46231 0.25802 -0.18395 0.18395 -0.3258 0.49511 -0.3258 1.00636 0 0.20982 0.0243 0.38699 0.06519 0.53448 0.05064 0.18268 0.01563 0.37847 -0.09517 0.53229 -0.11081 0.15381 -0.28544 0.24902 -0.47476 0.25883 -0.71936 0.0373 -1.4376 0.08527 -1.94949 0.1218 -0.15069 0.01075 -0.28343 0.12222 -0.31832 0.28284l-0.00003 0.00016 -0.03051 0.14023 -0.00001 0.00008c-0.07829 0.35969 -0.15315 0.70401 -0.21982 1.04909 0.6589 0.03603 1.24842 0.24976 1.68505 0.68639 0.48149 0.48148 0.69192 1.14891 0.69192 1.89024 0 0.74134 -0.21043 1.40876 -0.69192 1.89021 -0.4393 0.4393 -1.03337 0.653 -1.69714 0.6871 0.06325 0.3346 0.13417 0.6683 0.20821 1.0163l0.00002 0.0001 0.03124 0.1469 0.00003 0.0002c0.03427 0.1615 0.16682 0.2737 0.31752 0.2853 2.53687 0.1938 5.08371 0.1938 7.62059 0 0.15071 -0.0115 0.28324 -0.1238 0.31754 -0.2852l0 -0.0002 0.0313 -0.1469 0 -0.0001c0.1191 -0.56 0.2095 -1.1262 0.2711 -1.6957 0.0354 -0.32617 0.3169 -0.56952 0.6448 -0.55726 0.0316 0.00119 0.064 0.00179 0.0971 0.00179 0.5136 0 0.8265 -0.1425 1.0117 -0.32768 0.1852 -0.18518 0.3277 -0.49814 0.3277 -1.0117 0 -0.51357 -0.1425 -0.82653 -0.3277 -1.01171 -0.1852 -0.18518 -0.4981 -0.32768 -1.0117 -0.32768 -0.0357 0 -0.0706 0.0007 -0.1046 0.00208 -0.3275 0.01323 -0.6096 -0.22884 -0.6463 -0.55458 -0.0656 -0.58341 -0.161 -1.16339 -0.2858 -1.73686l0 -0.00007 -0.0305 -0.14032 -0.0001 -0.00016c-0.0349 -0.16062 -0.16761 -0.27209 -0.31829 -0.28285 -0.51196 -0.03653 -1.23033 -0.08453 -1.94979 -0.12184 -0.18932 -0.00981 -0.36395 -0.10502 -0.47476 -0.25884 -0.1108 -0.15381 -0.14581 -0.3496 -0.09517 -0.53228 0.04089 -0.14749 0.0652 -0.32466 0.0652 -0.53448 0 -0.15365 -0.01282 -0.28923 -0.03574 -0.40871l-1.84048 -0.85567Z" clip-rule="evenodd" stroke-width="1"></path>
  </g>
</svg>