<svg xmlns="http://www.w3.org/2000/svg" fill="none" viewBox="0 0 14 14" id="Steps-2--Streamline-Flex">
  <desc>
    Steps 2 Streamline Icon: https://streamlinehq.com
  </desc>
  <g id="steps-2--interface-internet-menu-progress-bubble-bar">
    <path id="Union" fill="#ff7972" fill-rule="evenodd" d="M7.00006 0.000488281c-1.19338 0 -2.35756 0.108657719 -3.47403 0.233985719l-0.00157 0.000179C2.68084 0.332057 1.8951 0.712397 1.29537 1.31365 0.695635 1.91491 0.317291 2.70161 0.22203 3.54548l-0.000008 0 -0.000292 0.00272C0.102641 4.6576 0.000488281 5.81439 0.000488281 7.00006c0 1.18569 0.102156719 2.34145 0.221236719 3.45184l-0.000008 0 0.000313 0.0027c0.095261 0.8439 0.473604 1.6306 1.07334 2.2319 0.59973 0.6012 1.38547 0.9816 2.22909 1.079l0.00162 0.0002c1.11743 0.1253 2.28059 0.2339 3.47398 0.2339s2.35757 -0.1086 3.47404 -0.2339l0.0016 -0.0002c0.8436 -0.0974 1.6293 -0.4778 2.2291 -1.079 0.5997 -0.6013 0.978 -1.388 1.0733 -2.2319l0.0003 -0.0027c0.1191 -1.11041 0.2212 -2.2672 0.2212 -3.45184 0 -1.18463 -0.1021 -2.34143 -0.2212 -3.4528l-0.0003 -0.00282c-0.0953 -0.84387 -0.4736 -1.63057 -1.0733 -2.23183C12.105 0.711357 11.3193 0.331017 10.4757 0.233607l-0.0026 -0.000281C9.35686 0.110223 8.19353 0.000488281 7.00006 0.000488281Z" clip-rule="evenodd" stroke-width="1"></path>
    <path id="Vector" fill="#ff7972" d="M2 8.375c0.88 0 1.375 -0.495 1.375 -1.375S2.88 5.625 2 5.625 0.625 6.12 0.625 7 1.12 8.375 2 8.375Z" stroke-width="1"></path>
    <path id="Vector_2" fill="#ff7972" d="M12 8.375c0.88 0 1.375 -0.495 1.375 -1.375S12.88 5.625 12 5.625 10.625 6.12 10.625 7 11.12 8.375 12 8.375Z" stroke-width="1"></path>
    <path id="Union_2" fill="#0c098c" fill-rule="evenodd" d="M7 4.5c-0.73203 0 -1.37454 0.20743 -1.83355 0.66645 -0.26456 0.26456 -0.44555 0.59007 -0.55141 0.95855l-0.7723 0c-0.08717 -0.21619 -0.21299 -0.41413 -0.3833 -0.58444C3.07692 5.15804 2.55504 5 2 5c-0.55504 0 -1.076923 0.15804 -1.459442 0.54056C0.15804 5.92308 0 6.44496 0 7c0 0.55504 0.15804 1.07692 0.540558 1.45944C0.923077 8.84196 1.44496 9 2 9c0.55504 0 1.07692 -0.15804 1.45944 -0.54056 0.17031 -0.17031 0.29613 -0.36825 0.3833 -0.58444l0.7723 0c0.10586 0.36848 0.28685 0.69399 0.55141 0.95855C5.62546 9.29257 6.26797 9.5 7 9.5s1.37454 -0.20743 1.83355 -0.66645c0.26456 -0.26456 0.44555 -0.59007 0.55141 -0.95855h0.77234c0.0871 0.21619 0.2129 0.41413 0.3833 0.58444C10.9231 8.84196 11.445 9 12 9s1.0769 -0.15804 1.4594 -0.54056C13.842 8.07692 14 7.55504 14 7c0 -0.55504 -0.158 -1.07692 -0.5406 -1.45944C13.0769 5.15804 12.555 5 12 5s-1.0769 0.15804 -1.4594 0.54056c-0.1704 0.17031 -0.2962 0.36825 -0.3833 0.58444h-0.77234c-0.10586 -0.36848 -0.28685 -0.69399 -0.55141 -0.95855C8.37454 4.70743 7.73203 4.5 7 4.5ZM1.42444 6.42444C1.33946 6.50942 1.25 6.67504 1.25 7c0 0.32496 0.08946 0.49058 0.17444 0.57556 0.08498 0.08498 0.2506 0.17444 0.57556 0.17444 0.32496 0 0.49058 -0.08946 0.57556 -0.17444C2.66054 7.49058 2.75 7.32496 2.75 7c0 -0.32496 -0.08946 -0.49058 -0.17444 -0.57556C2.49058 6.33946 2.32496 6.25 2 6.25c-0.32496 0 -0.49058 0.08946 -0.57556 0.17444ZM11.25 7c0 -0.32496 0.0895 -0.49058 0.1744 -0.57556 0.085 -0.08498 0.2506 -0.17444 0.5756 -0.17444s0.4906 0.08946 0.5756 0.17444c0.0849 0.08498 0.1744 0.2506 0.1744 0.57556 0 0.32496 -0.0895 0.49058 -0.1744 0.57556 -0.085 0.08498 -0.2506 0.17444 -0.5756 0.17444s-0.4906 -0.08946 -0.5756 -0.17444C11.3395 7.49058 11.25 7.32496 11.25 7Z" clip-rule="evenodd" stroke-width="1"></path>
  </g>
</svg>