<svg xmlns="http://www.w3.org/2000/svg" fill="none" viewBox="0 0 14 14" id="Button-Pause-Circle--Streamline-Flex">
  <desc>
    Button Pause Circle Streamline Icon: https://streamlinehq.com
  </desc>
  <g id="button-pause-circle--controls-pause-multi-media-multimedia-button-circle">
    <path id="Vector" fill="#79ee8d" d="M2.06854 11.3796c2.26567 2.6605 7.5974 2.6605 9.86306 0 2.0868 -2.45061 1.9284 -7.24719 -0.5833 -9.34519 -2.24973 -1.879212 -6.44672 -1.879212 -8.69648 0 -2.511711 2.098 -2.6700947 6.89458 -0.58328 9.34519Z" stroke-width="1"></path>
    <path id="Union" fill="#0c098c" fill-rule="evenodd" d="M3.05249 2.51408C4.03775 1.6911 5.49497 1.25 7.00007 1.25c1.50511 0 2.96233 0.4411 3.94763 1.26408 1.0841 0.9056 1.706 2.44224 1.7926 4.09343 0.0865 1.6505 -0.3693 3.29207 -1.2845 4.36679 -0.9801 1.1509 -2.67959 1.7757 -4.45572 1.7757 -1.77614 0 -3.47564 -0.6248 -4.45569 -1.7757 -0.91524 -1.07472 -1.37107 -2.71629 -1.28451 -4.36679 0.08659 -1.65119 0.70844 -3.18783 1.79261 -4.09343Zm8.69651 -0.95935C10.4845 0.498503 8.71834 0 7.00008 0 5.28181 0 3.51565 0.498503 2.25115 1.55473 0.823603 2.74715 0.110409 4.65779 0.0115905 6.54204 -0.0872636 8.42697 0.421119 10.409 1.5927 11.7848 2.87831 13.2945 4.97751 14 7.00008 14c2.02256 0 4.12172 -0.7055 5.40742 -2.2152 1.1715 -1.3758 1.6799 -3.35783 1.5811 -5.24276 -0.0989 -1.88425 -0.8121 -3.79489 -2.2396 -4.98731ZM5.37451 9.79688c-0.41421 0 -0.75 -0.33579 -0.75 -0.75l0 -4.09376c0 -0.41421 0.33579 -0.75 0.75 -0.75 0.41422 0 0.75 0.33579 0.75 0.75l0 4.09376c0 0.41421 -0.33578 0.75 -0.75 0.75Zm3.25 0c-0.41421 0 -0.75 -0.33579 -0.75 -0.75l0 -4.09376c0 -0.41421 0.33579 -0.75 0.75 -0.75 0.41422 0 0.75 0.33579 0.75 0.75v4.09376c0 0.41421 -0.33579 0.75 -0.75 0.75Z" clip-rule="evenodd" stroke-width="1"></path>
  </g>
</svg>