<svg xmlns="http://www.w3.org/2000/svg" fill="none" viewBox="0 0 24 24" id="Amusement-Park-Strength-Meter--Streamline-Freehand">
  <desc>
    Amusement Park Strength Meter Streamline Icon: https://streamlinehq.com
  </desc>
  <path fill="#000000" fill-rule="evenodd" d="M20.558 23.0076h-1.5402c0.0238 -0.0344 0.0439 -0.0713 0.06 -0.11 0.05 -0.5901 0.2001 -1.2501 0.2401 -1.8902 0.0302 -0.2993 0.0302 -0.6008 0 -0.9001 -0.0393 -0.1089 -0.1114 -0.203 -0.2063 -0.2692 -0.0949 -0.0663 -0.208 -0.1015 -0.3238 -0.1009h-2.0702c-0.3101 0 -0.6301 0 -0.9502 0.07 -0.5 0.0601 -1.0001 0.0701 -1.5101 0.1301 -0.2301 0 -0.4601 0.06 -0.6901 0.1 -0.2301 0.04 -0.4001 0.05 -0.6101 0.11 -0.1547 0.0357 -0.2987 0.1077 -0.42 0.21 -0.0835 0.0726 -0.1399 0.1713 -0.1601 0.28 -0.0157 0.1897 -0.0157 0.3804 0 0.5701 0 0.3401 0.06 0.6801 0.1 1.0001l0.1201 0.7301h-2.1003l-0.11 -3.5304c-0.22 -2.3303 -0.52007 -4.6606 -0.73009 -7.0008 -0.09002 -1.0002 -0.16002 -2.0003 -0.21003 -3.00041l-0.12001 -3.93047c0.0011 -0.66858 -0.03899 -1.33659 -0.12002 -2.00024 -0.06799 -0.46249 -0.19923 -0.91343 -0.39005 -1.34016C8.49616 1.50091 8.00773 0.966863 7.40458 0.591216 6.80143 0.215569 6.10671 0.0127441 5.39619 0.00485963 4.68117 -0.031571 3.97066 0.13742 3.34861 0.491866 2.72655 0.846312 2.21895 1.3714 1.88577 2.0051c-0.25494 0.52897 -0.40117 1.10371 -0.43005 1.6902 -0.06001 0.8001 0 1.6502 0 2.34029v4.27051c0 1.0001 0.06 1.9102 0.16002 2.8603 0.20002 2.0803 0.46005 4.1705 0.66008 6.2708 0.13001 1.3002 0.22002 2.6003 0.28003 3.8905h-0.61007c-0.03764 -0.0001 -0.07489 0.0075 -0.10953 0.0222 -0.03464 0.0147 -0.06597 0.0362 -0.09211 0.0633 -0.02614 0.0271 -0.04655 0.0591 -0.06002 0.0943 -0.01347 0.0351 -0.01972 0.0726 -0.01838 0.1102 0.0026 0.0752 0.03429 0.1464 0.08841 0.1987 0.05411 0.0522 0.12641 0.0814 0.20163 0.0813 2.4903 0 5.0006 0.1201 7.4609 0.1001 1.49022 0 3.00032 -0.0701 4.47052 -0.1201 2.2303 -0.09 4.4606 -0.21 6.7008 -0.28 0.0849 0 0.1663 -0.0337 0.2263 -0.0937 0.06 -0.0601 0.0938 -0.1415 0.0938 -0.2263 -0.0124 -0.0814 -0.0558 -0.1549 -0.1209 -0.2052 -0.0652 -0.0503 -0.1473 -0.0735 -0.2292 -0.0649ZM5.26618 5.77555c-0.27698 -0.07334 -0.51532 -0.25003 -0.666 -0.49372 -0.15068 -0.2437 -0.20225 -0.53588 -0.1441 -0.81643 0.30003 -1.73021 3.11037 -0.54007 1.93023 0.94011 -0.12337 0.17246 -0.29836 0.30124 -0.4997 0.36776 -0.20134 0.06651 -0.41861 0.06731 -0.62043 0.00228ZM8.42656 23.0076H7.1064c-0.10001 -0.7401 -0.15002 -1.4901 -0.20003 -2.2402 0.32004 -0.06 0.63008 -0.1301 0.94012 -0.2201 0.04209 -0.0037 0.08303 -0.0158 0.12044 -0.0355 0.03741 -0.0196 0.07056 -0.0465 0.09752 -0.079 0.02697 -0.0326 0.04722 -0.0702 0.05959 -0.1106 0.01237 -0.0404 0.01661 -0.0828 0.01248 -0.1249 -0.00376 -0.0421 -0.01582 -0.083 -0.03549 -0.1205 -0.01966 -0.0374 -0.04654 -0.0705 -0.07909 -0.0975 -0.03254 -0.0269 -0.07011 -0.0472 -0.11052 -0.0596 -0.04041 -0.0123 -0.08288 -0.0166 -0.12494 -0.0124l-0.92011 -0.1001c0 -1.0801 0 -2.1602 -0.07001 -3.2403v-0.6101c0.33004 -0.07 0.65008 -0.17 1.00012 -0.25 0.04206 -0.0026 0.0832 -0.0134 0.12106 -0.0319 0.03786 -0.0185 0.0717 -0.0443 0.09958 -0.0759 0.02787 -0.0316 0.04924 -0.0683 0.06286 -0.1082 0.01363 -0.0399 0.01925 -0.082 0.01654 -0.1241 -0.00255 -0.042 -0.01337 -0.0832 -0.03186 -0.121 -0.01848 -0.0379 -0.04426 -0.0718 -0.07585 -0.0996 -0.0316 -0.0279 -0.06838 -0.0493 -0.10825 -0.0629 -0.03987 -0.0136 -0.08204 -0.0192 -0.12408 -0.0165 -0.34005 0 -0.66008 -0.08 -1.00013 -0.1v-0.9301c0 -0.5401 -0.08 -1.0702 -0.14001 -1.6102l-0.15002 -1.1602c0.37004 -0.07 0.72009 -0.17 1.09013 -0.21 0.04205 0.0027 0.08421 -0.0029 0.12408 -0.0165 0.03987 -0.0137 0.07666 -0.035 0.10825 -0.0629 0.0316 -0.0279 0.05737 -0.0617 0.07586 -0.0996 0.01848 -0.0378 0.02931 -0.079 0.03185 -0.121 0.0027 -0.0429 -0.00324 -0.0859 -0.01749 -0.1264 -0.01424 -0.0405 -0.03649 -0.0777 -0.06542 -0.1094 -0.02893 -0.0317 -0.06394 -0.0573 -0.10296 -0.0752 -0.03902 -0.0179 -0.08125 -0.0278 -0.12416 -0.0291 -0.39433 -0.0915 -0.79591 -0.1484 -1.20015 -0.17 -0.06001 -0.50007 -0.12001 -1.00013 -0.15002 -1.49019 -0.05 -0.66008 -0.06 -1.32015 -0.05 -2.00024 0.40495 -0.13675 0.75545 -0.39962 1.00012 -0.75009 0.23449 -0.33582 0.36023 -0.73554 0.36023 -1.14514 0 -0.40959 -0.12574 -0.80931 -0.36023 -1.14513 -0.19003 -0.25003 -2.89035 -1.95024 -3.60044 0.58007 -0.14393 0.51578 -0.08138 1.06733 0.17438 1.53779 0.25577 0.47046 0.68466 0.82285 1.19579 0.98251 0.17276 0.04695 0.35104 0.0705 0.53006 0.07001 -0.09176 0.89367 -0.1285 1.79214 -0.11001 2.69032v0.77009h-0.07001c-0.39005 0.1 -0.74009 0.24 -1.12013 0.36 -0.03774 0.0025 -0.07457 0.0126 -0.1083 0.0297 -0.03373 0.0171 -0.06364 0.0409 -0.08794 0.0698 -0.0243 0.029 -0.04248 0.0626 -0.05344 0.0988 -0.01097 0.0362 -0.01449 0.0742 -0.01036 0.1118 0.00762 0.0752 0.04428 0.1444 0.10218 0.193 0.05791 0.0486 0.13249 0.0726 0.20786 0.067 0.41005 0 0.8101 0.1 1.22015 0.1 0.06001 0.9201 0.11001 1.8403 0.15002 2.7504v0.9201c-0.35005 0.09 -0.67008 0.21 -1.00012 0.31 -0.0752 0.0076 -0.14445 0.0443 -0.19302 0.1022s-0.07261 0.1325 -0.06702 0.2078c0.00115 0.0373 0.01001 0.074 0.02603 0.1077 0.01602 0.0337 0.03884 0.0637 0.06703 0.0881 0.02819 0.0244 0.06113 0.0427 0.09676 0.0538 0.03562 0.0111 0.07315 0.0146 0.11022 0.0105 0.36004 0.05 0.68008 0.12 1.00012 0.14v0.7401c0 0.9101 0.13002 1.8102 0.21003 2.7103v0.3c-0.08302 -0.0104 -0.16702 -0.0104 -0.25003 0 -0.38005 0.0601 -0.72009 0.1701 -1.09013 0.2601 -0.06646 0.0125 -0.12645 0.0478 -0.16962 0.0999 -0.04317 0.052 -0.06679 0.1175 -0.06679 0.1851s0.02362 0.1331 0.06679 0.1852c0.04317 0.052 0.10316 0.0873 0.16962 0.0998 0.38004 0.0701 0.73008 0.1701 1.11013 0.2101h0.34004c0.09001 0.7401 0.19002 1.4702 0.33004 2.1902l-3.36041 0.1901c0 -1.0002 -0.05 -1.9103 -0.11001 -2.8604 -0.14002 -2.4503 -0.38004 -4.9106 -0.55006 -7.3409 -0.07001 -0.9301 -0.08001 -1.8702 -0.07001 -2.8003 0 -1.41018 0.08001 -2.82035 0.13001 -4.24052V3.72531c0.02451 -0.44637 0.13309 -0.88409 0.32004 -1.29016 0.26444 -0.47018 0.6646 -0.84963 1.14816 -1.08873 0.48355 -0.2391 1.02801 -0.32673 1.56217 -0.25143 0.5114 -0.00224 1.01352 0.13661 1.45112 0.40129 0.43759 0.26467 0.79371 0.64491 1.02918 1.09889 0.15166 0.3409 0.25598 0.70095 0.31003 1.07013 0.08145 0.61362 0.12819 1.23134 0.14002 1.85022L8.50657 9.446c0.07 1.0001 0.16002 2.0002 0.28003 3.0004 0.26003 2.3202 0.61007 4.6505 0.88011 7.0008l0.18002 3.4904 -1.42017 0.07Zm4.79054 -0.11v-1.7702s0 -0.15 0.06 -0.24l0.4301 0.05 2.1903 -0.12 2.2602 -0.1801h0.3301c0.0103 0.1899 0.0103 0.3802 0 0.5701 0 0.5501 -0.07 1.1101 -0.07 1.6202 0 0 0 0.08 0.05 0.13 -1.4902 0 -3.0004 -0.06 -4.4506 -0.07l-0.8001 0.01Z" clip-rule="evenodd" stroke-width="1"></path>
  <path fill="#000000" fill-rule="evenodd" d="M22.5383 7.4157c-0.0299 -0.03085 -0.0656 -0.05538 -0.1052 -0.07214 -0.0395 -0.01675 -0.082 -0.02538 -0.1249 -0.02538 -0.0429 0 -0.0854 0.00863 -0.1249 0.02538 -0.0395 0.01676 -0.0753 0.04129 -0.1051 0.07214 -0.7001 0.51006 -1.4102 1.03013 -2.0603 1.59019 -0.29 0.24003 -0.57 0.49006 -0.8501 0.75009 -0.28 0.26002 -0.55 0.52002 -0.8101 0.79012 -0.5 0.54 -1.0001 1.1101 -1.4501 1.6702l-0.4501 -0.4601c-0.42 -0.44 -0.8401 -0.8801 -1.2001 -1.2801 -0.0631 -0.0487 -0.1404 -0.0751 -0.2201 -0.0751 -0.0796 0 -0.157 0.0264 -0.22 0.0751 -0.52 0.39 -1.2801 0.8601 -1.9302 1.3901 -0.4567 0.3529 -0.852 0.7787 -1.1702 1.2602 -0.053 0.1161 -0.0805 0.2423 -0.0805 0.37s0.0275 0.2539 0.0805 0.3701c0.1336 0.3236 0.3012 0.632 0.5001 0.9201 0.3 0.44 0.6001 0.8801 0.9201 1.3001 0.3201 0.4201 0.6501 0.8401 1.0001 1.2502 0.1923 0.2584 0.3994 0.5055 0.6201 0.7401 0.1001 0.1089 0.223 0.1943 0.3601 0.25 0.1784 0.0602 0.3716 0.0602 0.55 0 0.2862 -0.1271 0.5578 -0.2847 0.8101 -0.47 0.3001 -0.2201 0.6001 -0.4401 0.8901 -0.6901 0.2901 -0.2501 0.8101 -0.7301 1.2102 -1.1002 0.232 -0.179 0.4494 -0.3764 0.6501 -0.59 0.0844 -0.1132 0.1331 -0.249 0.14 -0.3901 -0.0453 -0.2568 -0.1673 -0.494 -0.3501 -0.6801 -0.2319 -0.2673 -0.479 -0.5211 -0.7401 -0.76l-1.0001 -1.0002c0.5701 -0.46 1.1502 -0.9101 1.7102 -1.3801 0.2901 -0.2401 0.5601 -0.5001 0.8401 -0.7601 0.2801 -0.2601 0.5301 -0.52009 0.8001 -0.79012 0.6101 -0.63008 1.2002 -1.27015 1.8202 -1.90023 0.058 -0.04676 0.0984 -0.11173 0.1147 -0.18435 0.0164 -0.07262 0.0077 -0.14864 -0.0246 -0.2157Zm-4.8806 6.8408c0.09 0.11 0.46 0.3801 0.65 0.5901 -0.16 0.07 -0.38 0.39 -0.45 0.4501l-1.2202 1.0001c-0.27 0.21 -0.54 0.42 -0.8301 0.61 0 0 -0.18 0.1801 -0.3 0.2801 0 -0.2 -0.4901 -0.4601 -0.6001 -0.5901l-2.0002 -2.3903c-0.6701 -0.8701 -0.3601 -1.1301 0.4 -1.8302 0.5101 -0.4801 1.1002 -0.9201 1.5802 -1.3002l2.7704 3.1804Z" clip-rule="evenodd" stroke-width="1"></path>
  <path fill="#000000" fill-rule="evenodd" d="M12.017 8.00572c0.0203 0.08481 0.0541 0.16583 0.1 0.24 0.0414 0.07268 0.0918 0.13987 0.15 0.2 0.06 0.06 0.68 0.60001 0.9 0.45001 0.22 -0.15 0.25 -0.12001 0 -1.00001 -0.0196 -0.07718 -0.0499 -0.15124 -0.09 -0.22l-0.15 -0.19c-0.6 -0.63 -0.71 -0.61 -0.87 -0.53 -0.16 0.08 -0.26 0.2 -0.04 1.05Z" clip-rule="evenodd" stroke-width="1"></path>
  <path fill="#000000" fill-rule="evenodd" d="M14.6972 8.83562c0.1 0 0.31 0 0.44 -1.06 0.01 -0.10643 0.01 -0.21357 0 -0.32 0.0144 -0.10618 0.0144 -0.21382 0 -0.32 -0.24 -1 -0.38 -1 -0.58 -1 -0.2 0 -0.33 0.1 -0.44 1.1 -0.01 0.10643 -0.01 0.21357 0 0.32 -0.0097 0.10644 -0.0097 0.21356 0 0.32 0.26 1.01 0.48 0.97 0.58 0.96Z" clip-rule="evenodd" stroke-width="1"></path>
  <path fill="#000000" fill-rule="evenodd" d="M17.0175 8.18563c0.0601 -0.05662 0.1169 -0.11673 0.17 -0.18 0.0492 -0.08356 0.0927 -0.17044 0.13 -0.26 0.4 -0.92 0.3 -1 0.15 -1.14 -0.15 -0.14 -0.28 -0.14 -1 0.56 -0.0719 0.07195 -0.1388 0.1488 -0.2 0.23 -0.0601 0.07875 -0.1074 0.1665 -0.14 0.26 0 0.1 -0.36 1 -0.1 1.12 0.09 0 0.24 0.13 0.99 -0.59Z" clip-rule="evenodd" stroke-width="1"></path>
</svg>