<svg xmlns="http://www.w3.org/2000/svg" fill="none" viewBox="0 0 24 24" id="Earpods-True-Wireless--Streamline-Freehand">
  <desc>
    Earpods True Wireless Streamline Icon: https://streamlinehq.com
  </desc>
  <path fill="#000000" fill-rule="evenodd" d="M11.6999 19.2278c-0.4679 0.3642 -0.8791 0.7957 -1.2205 1.2805 -0.61519 1.0018 -1.53824 1.7774 -2.63102 2.2109 -0.48225 0.2238 -1.0163 0.3123 -1.54496 0.2559 -0.52866 -0.0564 -1.03203 -0.2555 -1.45621 -0.5761 -0.31963 -0.2712 -0.60516 -0.5803 -0.85034 -0.9203 0.19481 0.0905 0.39965 0.1577 0.61024 0.2001 0.52588 0.1075 1.07241 0.0431 1.55882 -0.1839s0.88689 -0.6045 1.14224 -1.0766c0.4046 -0.6817 0.62201 -1.4582 0.63024 -2.2509 0.00076 -1.1022 -0.19225 -2.1959 -0.57022 -3.2313 -0.17206 -0.4832 -0.41479 -0.9384 -0.72028 -1.3505 -0.2155 -0.2997 -0.48733 -0.5545 -0.80031 -0.7503 -0.64908 -0.4258 -1.43792 -0.5836 -2.20086 -0.4402 -0.4041 0.0913 -0.78107 0.2764 -1.10043 0.5403 0.02588 -0.1199 0.06271 -0.2371 0.11004 -0.3502 0.20243 -0.3607 0.49116 -0.6656 0.84034 -0.8873 0.34917 -0.2217 0.74789 -0.3534 1.16044 -0.3832 0.42041 -0.109 0.85844 -0.1324 1.28807 -0.0688 0.42963 0.0636 0.8421 0.2129 1.21291 0.439 0.36477 0.2496 0.67638 0.5691 0.91679 0.9401 0.24041 0.3709 0.40484 0.7858 0.48375 1.2207l0.18007 0.8203v1.7907c0 0.2401 0.06003 0.4802 0.09004 0.7203 0.03001 0.2401 0.10004 0.4702 0.16006 0.7003 0.14005 0.5502 0.31012 1.0804 0.46018 1.6306 0.0021 0.0498 0.01481 0.0986 0.03728 0.1431 0.02247 0.0445 0.05418 0.0837 0.09301 0.1149 0.03882 0.0313 0.08388 0.0539 0.13214 0.0663 0.04827 0.0124 0.09863 0.0144 0.14773 0.0059 0.04967 -0.005 0.09784 -0.0199 0.14164 -0.0439 0.0437 -0.024 0.0822 -0.0566 0.113 -0.0958 0.0309 -0.0393 0.0535 -0.0844 0.0664 -0.1326 0.013 -0.0482 0.0161 -0.0985 0.0091 -0.1479v-1.7207c-0.0146 -0.4392 -0.0783 -0.8755 -0.19009 -1.3005 0.16279 0.0201 0.32739 0.0201 0.49019 0 0.2109 -0.0254 0.4166 -0.0827 0.6102 -0.1701 0.3402 -0.17 0.2902 -0.8303 -0.07 -0.8103 -0.2347 0.1134 -0.4899 0.178 -0.7503 0.1901 -0.1559 0.0271 -0.3164 0.0062 -0.46016 -0.06l-0.33012 -1.9008c-0.08523 -0.562 -0.2823 -1.1013 -0.57957 -1.5858 -0.29726 -0.4846 -0.68868 -0.9046 -1.15111 -1.2353 -0.47804 -0.3211 -1.01557 -0.5432 -1.58086 -0.6531 -0.56528 -0.11 -1.14686 -0.1056 -1.71042 0.0129 -0.61026 0.0264 -1.20362 0.2085 -1.72366 0.529 -0.52004 0.3204 -0.94948 0.7685 -1.2475 1.3017 -0.500195 1.0004 -0.550215 2.541 -0.18007 4.8019 0.16979 1.3955 0.50563 2.7657 1.00039 4.0816 0.3973 0.9228 1.01989 1.7311 1.81071 2.3509 0.47176 0.3533 1.01993 0.5907 1.60031 0.6932 0.58039 0.1026 1.17675 0.0673 1.74099 -0.103 0.78866 -0.2305 1.52416 -0.6142 2.16443 -1.1292 0.64024 -0.515 1.17274 -1.1511 1.56704 -1.872 0.1782 -0.3132 0.4082 -0.5939 0.6802 -0.8303 0.1249 -0.1178 0.2326 -0.2525 0.3202 -0.4001 0.15 -0.1701 0.12 -0.8704 -0.5002 -0.3802Zm-8.45332 0.6603c-0.2984 -1.0704 -0.52235 -2.16 -0.67026 -3.2613 -0.10883 -0.5987 -0.18232 -1.2033 -0.22008 -1.8107 0.04067 -0.2215 0.11846 -0.4346 0.23008 -0.6303 0.12927 -0.2083 0.30306 -0.3854 0.50889 -0.5185 0.20583 -0.1332 0.43859 -0.2192 0.68158 -0.2518 0.48798 -0.0454 0.97567 0.0899 1.37053 0.3802 0.22834 0.1839 0.42152 0.4076 0.57023 0.6603 0.16461 0.2852 0.29873 0.587 0.40015 0.9003 0.32554 0.8993 0.50455 1.845 0.53021 2.8011 0.02768 0.5894 -0.08908 1.1767 -0.34013 1.7107 -0.13243 0.3091 -0.36002 0.568 -0.64969 0.7389 -0.28966 0.1709 -0.62629 0.245 -0.96094 0.2114 -0.58424 -0.1144 -1.10294 -0.447 -1.45057 -0.9303Z" clip-rule="evenodd" stroke-width="1"></path>
  <path fill="#000000" fill-rule="evenodd" d="M15.8515 15.5864c-0.0505 -0.1981 -0.1244 -0.3896 -0.2201 -0.5702 -0.0694 -0.1268 -0.1835 -0.2231 -0.3201 -0.2701 -0.8645 -0.3702 -1.7911 -0.5738 -2.7311 -0.6003 -0.2564 -0.0065 -0.5125 0.0238 -0.7603 0.0901 -0.1098 0.0262 -0.211 0.0806 -0.2934 0.1577 -0.0824 0.0772 -0.1434 0.1745 -0.1768 0.2824 -0.0202 0.1963 -0.0202 0.394 0 0.5903 0.1301 0.6502 0.4802 2.0608 0.6003 2.4909 0.12 0.4302 0.2801 1.0004 0.5702 1.7507 0.06 0.1701 0.12 0.3401 0.1901 0.5002 0.0155 0.0409 0.0389 0.0784 0.069 0.1101 0.0301 0.0318 0.0662 0.0573 0.1063 0.075 0.04 0.0176 0.0831 0.0272 0.1269 0.0281 0.0438 0.0008 0.0872 -0.007 0.1279 -0.0231 0.0408 -0.0161 0.0778 -0.0404 0.1087 -0.0714 0.031 -0.0309 0.0553 -0.068 0.0714 -0.1087 0.0517 0.0404 0.1133 0.0663 0.1783 0.0751 0.065 0.0088 0.1313 0.0002 0.1918 -0.0251 0.6297 -0.2259 1.2129 -0.5649 1.7207 -1.0004 0.3926 -0.3274 0.6754 -0.7673 0.8103 -1.2604 -0.0507 -0.7506 -0.1747 -1.4945 -0.3701 -2.2209Zm-1.2805 3.0012c-0.3542 0.3097 -0.7519 0.5659 -1.1805 0.7603 -0.0626 0.0258 -0.1177 0.0671 -0.16 0.12 -0.1801 -0.5802 -0.3802 -1.8807 -0.3902 -1.9308 -0.07 -0.4201 -0.2501 -1.0604 -0.3401 -1.6706 -0.0094 -0.1599 -0.0094 -0.3203 0 -0.4802 2.4209 0 2.3409 0.7003 2.661 2.0008 0 0.14 0 0.3101 0.06 0.3201 -0.1182 0.3602 -0.3455 0.6748 -0.6502 0.9004v-0.02Z" clip-rule="evenodd" stroke-width="1"></path>
  <path fill="#000000" fill-rule="evenodd" d="M22.6841 7.18312c-0.1697 -1.3955 -0.5056 -2.76573 -1.0003 -4.08159 -0.386 -0.91844 -0.9945 -1.72637 -1.7707 -2.350915 -0.4718 -0.353272 -1.02 -0.590744 -1.6004 -0.6932669 -0.5803 -0.1025232 -1.1767 -0.06722917 -1.7409 0.1030359 -0.7887 0.230525 -1.5242 0.614238 -2.1645 1.129196 -0.6402 0.51497 -1.1727 1.15108 -1.567 1.87197 -0.1883 0.3696 -0.4586 0.69125 -0.7903 0.94037 -0.4602 0.32013 -0.2001 1.00039 0.3401 0.57022 0.4406 -0.30717 0.8233 -0.68988 1.1305 -1.13044 0.6119 -1.00925 1.5353 -1.79222 2.631 -2.23087 0.4885 -0.23371 1.0322 -0.327512 1.5708 -0.271 0.5386 0.0565 1.051 0.26111 1.4804 0.59113 0.3248 0.26965 0.6109 0.58271 0.8503 0.93036 -0.1963 -0.08927 -0.4006 -0.15961 -0.6102 -0.21008 -0.5272 -0.10502 -1.0741 -0.03946 -1.5616 0.18717 -0.4874 0.22662 -0.89 0.60255 -1.1495 1.07332 -0.399 0.68407 -0.616 1.45904 -0.6302 2.25088 0.0017 1.1061 0.1981 2.20326 0.5802 3.24126 0.1623 0.48248 0.4022 0.93523 0.7103 1.34053 0.219 0.3029 0.494 0.561 0.8103 0.7603 0.6464 0.4233 1.4311 0.5809 2.1909 0.4402 0.407 -0.0969 0.7867 -0.2851 1.1104 -0.5503 -0.0259 0.1199 -0.0627 0.2371 -0.1101 0.3502 -0.2024 0.3607 -0.4911 0.6656 -0.8403 0.8873 -0.3492 0.2217 -0.7479 0.3534 -1.1604 0.3832 -0.4204 0.109 -0.8585 0.1324 -1.2881 0.0688 -0.4296 -0.0636 -0.8421 -0.2129 -1.2129 -0.439 -0.3648 -0.2496 -0.6764 -0.5691 -0.9168 -0.9401 -0.2404 -0.3709 -0.4048 -0.7858 -0.4838 -1.2207l-0.3401 -1.58062c0 -0.2401 0.05 -0.48019 0.05 -0.72029 -0.0051 -0.2245 -0.0251 -0.44842 -0.06 -0.67026 -0.0313 -0.21977 -0.0781 -0.43706 -0.14 -0.65025 -0.1201 -0.5102 -0.3002 -1.00039 -0.4502 -1.49058 -0.0172 -0.09754 -0.0718 -0.18453 -0.1521 -0.24246 -0.0803 -0.05792 -0.1801 -0.08219 -0.2781 -0.06766 -0.0489 0.00727 -0.0958 0.02426 -0.138 0.04996 -0.0423 0.0257 -0.0789 0.0596 -0.1078 0.0997 -0.0289 0.04009 -0.0495 0.08557 -0.0605 0.13375 -0.0111 0.04817 -0.0124 0.09807 -0.0038 0.14676v1.5606c0.0021 0.21763 0.0188 0.43487 0.05 0.65026v0.23009c-0.2413 0.00883 -0.4818 0.03222 -0.7203 0.07002 -0.5602 0.14006 -0.17 0.7603 0.1301 0.74029 0.263 -0.02008 0.5272 -0.02008 0.7903 0 0.11 0.35014 0.2201 0.70028 0.3101 1.06042v0.05002l0.1401 0.81035c0.0852 0.562 0.2823 1.1013 0.5795 1.5858 0.2973 0.4846 0.6887 0.9046 1.1511 1.2353 0.4781 0.3211 1.0156 0.5432 1.5809 0.6531 0.5653 0.11 1.1469 0.1056 1.7104 -0.0129 0.6083 -0.0244 1.2004 -0.2035 1.7203 -0.5203 0.5198 -0.3168 0.9504 -0.7609 1.2509 -1.2904 0.5002 -1.0004 0.5502 -2.571 0.18 -4.83188Zm-1.2704 2.67104c-0.1334 0.20674 -0.3096 0.38254 -0.5167 0.51544 -0.2071 0.1328 -0.4403 0.2198 -0.6838 0.2549 -0.4901 0.0515 -0.9811 -0.0883 -1.3705 -0.3902 -0.2327 -0.1765 -0.424 -0.40191 -0.5603 -0.66025 -0.1655 -0.28263 -0.3029 -0.58085 -0.4101 -0.89034 -0.321 -0.90017 -0.4966 -1.84571 -0.5202 -2.8011 -0.0377 -0.59012 0.0795 -1.17984 0.3401 -1.71066 0.1195 -0.31965 0.3412 -0.59093 0.6306 -0.7718 0.2894 -0.18087 0.6303 -0.26122 0.97 -0.22859 0.5943 0.10915 1.1222 0.44671 1.4706 0.94036 0.295 1.0638 0.5156 2.14684 0.6603 3.24127 0.1088 0.59873 0.1823 1.20334 0.22 1.8107 -0.0367 0.24154 -0.1145 0.475 -0.23 0.69027Z" clip-rule="evenodd" stroke-width="1"></path>
  <path fill="#000000" fill-rule="evenodd" d="M12.06 6.27275c-0.06 -0.37014 -0.6902 -2.09081 -0.7603 -2.26088 -0.0334 -0.08339 -0.0984 -0.15017 -0.1809 -0.18578 -0.0824 -0.03561 -0.1756 -0.03716 -0.2592 -0.0043 -0.078 0.03568 -0.1389 0.10025 -0.1701 0.18008 -0.0566 -0.03154 -0.1203 -0.0481 -0.1851 -0.0481 -0.0648 0 -0.1285 0.01656 -0.1851 0.0481 -0.62966 0.22588 -1.21279 0.56491 -1.72063 1.00038 -0.38658 0.314 -0.67193 0.73507 -0.82032 1.21048 0.05158 0.75377 0.17554 1.50083 0.37014 2.23087 0.04585 0.19958 0.11996 0.39159 0.22009 0.57022 0.06834 0.12374 0.17817 0.2194 0.31012 0.2701 0.86796 0.37022 1.7978 0.57384 2.7411 0.60024 0.2531 0.00681 0.5059 -0.02352 0.7503 -0.09004 0.1108 -0.02648 0.2131 -0.0808 0.2971 -0.15783 0.084 -0.07702 0.147 -0.17419 0.183 -0.28234 0.1501 -0.73028 -0.3201 -1.83071 -0.5902 -3.0812Zm-3.19122 0.38015c0 -0.14006 0 -0.14006 -0.06003 -0.32013 0.10797 -0.35756 0.32051 -0.67462 0.61024 -0.91035 0.35803 -0.30958 0.75901 -0.56567 1.19051 -0.7603 0.0611 -0.02833 0.1157 -0.06923 0.16 -0.12004 0.1628 0.63653 0.293 1.28095 0.3902 1.93075 0.07 0.42016 0.2501 1.06041 0.3301 1.67065 0.0091 0.15993 0.0091 0.32025 0 0.48019 -2.39094 0.02 -2.3009 -0.71028 -2.62102 -1.97077Z" clip-rule="evenodd" stroke-width="1"></path>
</svg>