<svg xmlns="http://www.w3.org/2000/svg" fill="none" viewBox="0 0 24 24" id="Instrument-Electronic-Keyboard--Streamline-Freehand">
  <desc>
    Instrument Electronic Keyboard Streamline Icon: https://streamlinehq.com
  </desc>
  <path fill="#000000" d="M6.09948 8.56513c0.19412 0.03619 0.39326 0.03619 0.58739 0 0.13641 -0.02371 0.26185 -0.08992 0.3584 -0.18916 0.09633 -0.11654 0.17361 -0.24758 0.22899 -0.38827 0.06554 -0.24449 0.10886 -0.4944 0.12942 -0.74668l0.23894 -1.40377c0 -0.22898 -0.54757 -0.18916 -0.68695 0l-0.40819 1.26439c0 0.12942 -0.16924 0.50774 -0.1792 0.53761 -0.27165 -0.05591 -0.54946 -0.07599 -0.82633 -0.05974 -0.23894 0 -0.12942 -0.10951 -0.05973 -0.34845 0.06969 -0.23894 0.24889 -0.99558 0.34845 -1.32412 0.09956 -0.32854 -0.41814 -0.34845 -0.55752 0l-0.62722 1.08518c-0.09349 0.15199 -0.17344 0.3119 -0.23894 0.47788 -0.02934 0.09739 -0.02934 0.20128 0 0.29867 0.03638 0.14639 0.11077 0.28057 0.21567 0.38896 0.1049 0.10839 0.23656 0.18715 0.38168 0.2283 0.36128 0.08083 0.72694 0.14066 1.09514 0.1792Z" stroke-width="1"></path>
  <path fill="#000000" d="M15.3782 8.16687c0.1264 -0.317 0.1938 -0.65437 0.1992 -0.99557 0.0039 -0.4537 -0.0327 -0.90683 -0.1096 -1.35399 -0.1294 -0.29867 -0.7267 -0.27876 -0.7367 0 0.0191 0.33158 0.0191 0.66399 0 0.99558 -0.0258 0.3073 -0.1067 0.60744 -0.2389 0.88606l-0.1095 0c-0.0991 0.01352 -0.1996 0.01352 -0.2987 0 -0.109 -0.28365 -0.1728 -0.58264 -0.1892 -0.88606 0 -0.38828 -0.0896 -0.65708 -0.0995 -0.99558 -0.01 -0.3385 -0.5874 -0.19912 -0.6471 0.0896 -0.0974 0.41642 -0.1672 0.83879 -0.2091 1.26439 -0.014 0.33548 0.0229 0.67115 0.1095 0.99557 0.106 0.21882 0.2714 0.40337 0.4775 0.53249 0.206 0.12913 0.4442 0.19761 0.6873 0.19761 0.2432 0 0.4814 -0.06848 0.6874 -0.19761 0.206 -0.12912 0.3715 -0.31367 0.4774 -0.53249Z" stroke-width="1"></path>
  <path fill="#000000" d="M23.8904 10.0386c-0.0597 -0.49782 -0.1393 -0.9956 -0.2389 -1.50335 -0.0996 -0.50774 -0.219 -0.99558 -0.3584 -1.48341 -0.2788 -0.99558 -0.5277 -1.88164 -0.8662 -2.78762 -0.2262 -0.62521 -0.5026 -1.23116 -0.8263 -1.81195 -0.1686 -0.22881 -0.4176 -0.38531 -0.6969 -0.43805 -0.4138 -0.09948 -0.839 -0.14301 -1.2644 -0.12943 -0.9956 0 -1.9314 -0.04977 -2.8971 0 -0.6571 0 -1.3042 0 -1.9912 0.0697 -1.5232 0.05973 -3.0564 0.05973 -4.5995 0.05973 -1.54317 0 -3.0664 0 -4.59959 -0.12943 -0.0736 0.01317 -0.14022 0.0518 -0.18821 0.10913 -0.04798 0.05733 -0.07428 0.12972 -0.07428 0.20448 0 0.07477 0.0263 0.14715 0.07428 0.20448 0.04799 0.05733 0.11461 0.09596 0.18821 0.10913 1.54314 0.14934 3.09624 0.22898 4.64939 0.24889 1.5531 0.01991 3.1062 0 4.6493 -0.0896h1.9115c0.9956 0 1.9215 0.05974 2.8772 0.09956 0.2553 -0.01558 0.5113 -0.01558 0.7666 0 0.1494 0 0.3286 0 0.3783 0.10951 0.0498 0.10952 0.5476 0.75664 1.5332 4.42036 0.1195 0.45797 0.229 0.92589 0.3186 1.40377 0.0896 0.47788 0.1593 0.99558 0.2091 1.4336 -0.0116 0.1491 -0.0116 0.2989 0 0.448h-0.2589c-0.3982 0.0697 -2.1703 0.1792 -2.8075 0.2191v-0.7069c0.0098 -0.16578 0.0098 -0.332 0 -0.49778 -0.0154 -0.16495 -0.0453 -0.3282 -0.0896 -0.48783 -0.1095 -0.40819 -0.9956 -0.40819 -0.9956 0.28871 0.0055 0.26298 0.0457 0.52409 0.1195 0.7766 0 0.2289 0.1095 0.4579 0.1692 0.6769h-4.2511c0 -0.2688 0.1095 -0.5376 0.1494 -0.8163 0.0398 -0.27879 0 -0.30866 0 -0.46795 0.0097 -0.15582 0.0097 -0.3121 0 -0.46792 0 -0.13938 -0.9956 -0.16925 -0.9956 0 -0.0102 0.15581 -0.0102 0.31211 0 0.46792v0.46795c0 0.1593 0.0796 0.5575 0.1294 0.8363H11.167c0.0597 -0.6273 0.1393 -1.23456 0.1891 -1.86177 0 -0.45797 0.0697 -0.92589 0.0598 -1.38385 0 -0.677 -0.0797 -1.34403 -0.1394 -1.99116 -0.1394 -0.27876 -0.3385 -0.31858 -0.6272 0 -0.0896 0.56748 -0.1892 1.13496 -0.2489 1.71239 0 0.28872 0 0.57744 -0.0598 0.87611 -0.0597 0.29867 0 0.57744 0 0.86615 0 0.61726 0.0797 1.22453 0.1494 1.84183H5.65146c0.09956 -0.2489 0.20908 -0.4878 0.30863 -0.7367l0.17921 -0.51774c0.05363 -0.17314 0.09685 -0.34934 0.12942 -0.52765 0.00158 -0.11769 -0.03551 -0.23264 -0.10557 -0.32722 -0.07005 -0.09457 -0.16921 -0.16354 -0.28225 -0.19632 -0.11304 -0.03279 -0.23372 -0.02757 -0.3435 0.01485 -0.10979 0.04242 -0.20262 0.1197 -0.26425 0.21997 -0.0949 0.16192 -0.15587 0.34144 -0.17921 0.52766 -0.04928 0.17697 -0.08916 0.35642 -0.11947 0.53761 -0.04978 0.31854 -0.0896 0.63714 -0.10951 0.99554 -0.75664 -0.0597 -3.09625 -0.219 -3.56417 -0.3185 -0.16431 -0.0198 -0.327239 -0.0497 -0.487831 -0.0897 0.004458 -0.1126 0.028023 -0.2237 0.069691 -0.3285 0.099557 -0.28871 0.24889 -0.57743 0.32854 -0.77654L2.73442 6.0264s0.11947 -0.30863 0.83629 -1.64271c0.29867 -0.54756 0.6073 -1.07522 0.92589 -1.60288 0.03727 -0.06231 0.04877 -0.1367 0.03203 -0.20735 -0.01673 -0.07066 -0.06037 -0.13199 -0.12164 -0.17096 -0.03415 -0.02813 -0.07471 -0.04739 -0.11809 -0.05608 -0.04338 -0.00868 -0.08823 -0.00653 -0.13058 0.00627 -0.04234 0.0128 -0.08088 0.03586 -0.11218 0.06713 -0.0313 0.03126 -0.0544 0.06977 -0.06725 0.1121 -0.34845 0.47788 -0.67699 1.05531 -0.99557 1.60288 -0.31859 0.54757 -0.6073 1.09513 -0.88607 1.65266L0.484419 9.17242c-0.157077 0.32415 -0.296658 0.65648 -0.4181425 0.99558 -0.05777955 0.1901 -0.0780672 0.3896 -0.05973465 0.5874 0.01663575 0.0936 0.05503285 0.1821 0.11209815 0.2581 0.057065 0.0761 0.131203 0.1378 0.216442 0.1799 0.672628 0.2738 1.385658 0.4353 2.110628 0.4779 0.58739 0.0697 1.26438 0.1294 1.99115 0.1792 0.02436 0.0505 0.06711 0.0897 0.11947 0.1095 1.84182 0.8662 3.66372 1.8618 5.44577 2.9171 0.3784 0.219 0.7368 0.4579 1.1151 0.6869 -0.8761 0.6073 -1.71241 1.2545 -2.52878 1.9414 -0.57744 0.4381 -1.125 1.0055 -1.62279 1.5631 -0.78651 0.8263 -1.53319 1.6825 -2.30974 2.5287 -0.05669 0.0608 -0.08821 0.1409 -0.08821 0.224 0 0.0832 0.03152 0.1632 0.08821 0.224 0.05964 0.059 0.14013 0.0921 0.224 0.0921 0.08388 0 0.16437 -0.0331 0.22401 -0.0921 0.81637 -0.7865 1.61283 -1.5929 2.43916 -2.3694 0.54757 -0.4978 1.11505 -0.9956 1.70244 -1.4436 0.58739 -0.448 1.2843 -0.9956 1.9912 -1.4337l0.9955 -0.6471 0.4978 0.3186c0.8662 0.5575 1.7224 1.125 2.5387 1.7323l3.8131 2.6682c0.3086 0.219 0.6869 0.6371 1.0951 0.9059 0.2066 0.1475 0.4456 0.2431 0.6969 0.2788 0.0831 0.0084 0.1661 -0.0161 0.2312 -0.0682 0.0652 -0.0521 0.1073 -0.1277 0.1173 -0.2106 0.0071 -0.0415 0.0053 -0.0841 -0.0053 -0.1249 -0.0105 -0.0408 -0.0296 -0.0789 -0.0559 -0.1118 -0.0263 -0.033 -0.0593 -0.0599 -0.0968 -0.0792 -0.0375 -0.0192 -0.0787 -0.0303 -0.1208 -0.0325 -0.2002 -0.0541 -0.3824 -0.1606 -0.5276 -0.3087 -0.3286 -0.2787 -0.6372 -0.6371 -0.8861 -0.8362l-3.6538 -2.8872c-0.8259 -0.6443 -1.6796 -1.2521 -2.5586 -1.8219l-0.1195 -0.0797 0.4182 -0.2887 2.3595 -1.6029c0.667 -0.4579 1.3042 -0.9955 1.9912 -1.4037l0.2688 -0.1693c0.5774 0 1.1349 0 1.6725 -0.0597 0.9774 -0.0232 1.952 -0.113 2.9171 -0.2688 0.3268 -0.0363 0.6405 -0.1489 0.9159 -0.3286 0.1376 -0.1173 0.2293 -0.2795 0.2589 -0.4579 0.0015 -0.2956 -0.0353 -0.5901 -0.1096 -0.8761Zm-23.186954 0.448 0.049779 0.0697c0.049779 0.0697 -0.069691 -0.0399 -0.049779 -0.0697ZM15.4181 12.8959c-0.8463 0.4978 -1.7124 0.9956 -2.5487 1.4834l-0.7766 0.5077c-0.5276 -0.3186 -1.0652 -0.6272 -1.6128 -0.9159 -1.45353 -0.7666 -2.98672 -1.4436 -4.46017 -2.0608 2.0708 0.0995 4.20137 0.1393 5.38607 0.1493 1.1847 0.01 3.3153 0 5.4458 0 -0.4779 0.2688 -0.9259 0.5675 -1.4336 0.8363Z" stroke-width="1"></path>
  <path fill="#000000" d="M10.5796 5.59832c0.0042 0.05301 0.0042 0.10628 0 0.15929h0.6272v-0.19912c2.7279 -0.02986 4.4004 -0.15929 10.0951 -0.18916 0.3983 -0.05973 0.2489 -0.57743 -0.1792 -0.66703 -2.2599 -0.11947 -4.2909 -0.20907 -6.5807 -0.20907 -1.5133 0 -2.9868 0 -4.5199 0.07964 -2.19032 0.05974 -3.91267 0.17921 -6.06311 0.19912 -0.44801 0 -0.55753 0.38827 -0.25885 0.53761 0.71681 0.07964 3.03651 0.2688 6.87946 0.28872Z" stroke-width="1"></path>
  <path fill="#000000" d="M19.9579 8.47554c0.1291 -0.06545 0.2342 -0.16999 0.3004 -0.29871 0.0661 -0.12872 0.0899 -0.27505 0.068 -0.4181 -0.0996 -0.4447 -0.2191 -0.89271 -0.3584 -1.34403 -0.0797 -0.2489 -0.1394 -0.39823 -0.2191 -0.64713 -0.0796 -0.24889 -0.8064 -0.25885 -0.7466 0 0.0597 0.25885 0.1095 0.54757 0.1592 0.8562 0.0498 0.30863 0.1096 0.73672 0.1494 1.10509 -0.1921 0.01822 -0.3854 0.01822 -0.5774 0 -0.1185 -0.28583 -0.2085 -0.58261 -0.2689 -0.88607 -0.0995 -0.39823 -0.1792 -0.79646 -0.2588 -1.15487 -0.1892 -0.19911 -0.7069 -0.12942 -0.667 0.20908 0.0031 0.46895 0.0297 0.93746 0.0796 1.40376 0.033 0.34134 0.1135 0.67642 0.2389 0.99558 0.0663 0.12729 0.1662 0.23402 0.2888 0.30863 0.6011 0.16432 1.2403 0.11867 1.8119 -0.12943Z" stroke-width="1"></path>
</svg>