<svg xmlns="http://www.w3.org/2000/svg" fill="none" viewBox="0 0 24 24" id="Microphone-Karaoke-1--Streamline-Freehand">
  <desc>
    Microphone Karaoke 1 Streamline Icon: https://streamlinehq.com
  </desc>
  <path fill="#000000" fill-rule="evenodd" d="M6.7758 15.0028c0.05837 -0.4849 -0.05098 -0.9752 -0.30988 -1.3894 -0.30795 -0.4799 -0.67021 -0.9227 -1.0796 -1.3195 -0.33436 -0.3562 -0.69166 -0.6901 -1.0696 -0.9997 -0.47982 -0.3998 -0.92965 -0.6997 -1.62939 -1.29948 -0.20992 -0.16993 -0.5298 -0.38985 -0.80969 -0.62976l1.14957 -0.5498c0.42688 -0.23323 0.91928 -0.31764 1.39947 -0.23991 0.43459 0.2135 0.78613 0.56504 0.99963 0.99963 0.02239 0.04965 0.05469 0.0942 0.09492 0.13092 0.04022 0.03672 0.08753 0.06484 0.13901 0.08262 0.05148 0.01779 0.10605 0.02486 0.16037 0.0208 0.05431 -0.00406 0.10723 -0.01917 0.15549 -0.04441 0.0434 -0.02487 0.08146 -0.05806 0.11199 -0.09767 0.03054 -0.03962 0.05295 -0.08487 0.06596 -0.13316 0.013 -0.0483 0.01634 -0.09869 0.00982 -0.14828 -0.00653 -0.04959 -0.02278 -0.0974 -0.04782 -0.1407 -0.27461 -0.63802 -0.76219 -1.16094 -1.37948 -1.47944 -0.66048 -0.19031 -1.36628 -0.14796 -1.99925 0.11995l-1.57941 0.60977 -0.399852 0.19993c-0.133463 0.07909 -0.235329 0.20207 -0.2882 0.34792 -0.052872 0.14585 -0.05347 0.30554 -0.001691 0.45178 0.118971 0.21879 0.266917 0.42054 0.439835 0.59979 0.309888 0.3299 0.729728 0.6397 0.999628 0.8797 0.81969 0.7197 1.27952 0.9996 1.87929 1.5594 0.20992 0.1899 0.44983 0.4098 0.72973 0.6897 0.36825 0.2962 0.70341 0.6314 0.99962 0.9996 0.13694 0.1705 0.21419 0.3812 0.21992 0.5998 0 0.4398 -0.49981 0.6198 -0.89966 0.5898 -0.39985 -0.03 -0.8097 -0.2899 -0.68974 -0.8197 0.03828 -0.1581 0.09184 -0.3121 0.15994 -0.4598 0.06221 -0.1557 0.14275 -0.3033 0.23991 -0.4399 0.02625 -0.0361 0.04514 -0.077 0.05558 -0.1204 0.01044 -0.0434 0.01223 -0.0884 0.00527 -0.1325 -0.00696 -0.0441 -0.02254 -0.0864 -0.04584 -0.1245 -0.02331 -0.038 -0.05388 -0.0711 -0.08998 -0.0974 -0.0361 -0.0262 -0.07702 -0.0451 -0.12042 -0.0556 -0.0434 -0.0104 -0.08843 -0.0122 -0.13252 -0.0052 -0.04409 0.0069 -0.08638 0.0225 -0.12445 0.0458 -0.03807 0.0233 -0.07118 0.0539 -0.09744 0.09 -0.13157 0.1606 -0.24552 0.3349 -0.33987 0.5198 -0.10692 0.1835 -0.19404 0.3779 -0.2599 0.5798 -0.08518 0.2202 -0.11604 0.4576 -0.08998 0.6923 0.02606 0.2347 0.10828 0.4596 0.23969 0.6557 0.13142 0.1962 0.30816 0.3578 0.51527 0.4711 0.2071 0.1134 0.43847 0.1751 0.67452 0.1801 0.45296 0.0719 0.9163 -0.0318 1.29532 -0.2901 0.37902 -0.2582 0.64512 -0.6515 0.74391 -1.0994Z" clip-rule="evenodd" stroke-width="1"></path>
  <path fill="#000000" fill-rule="evenodd" d="M16.3222 21.7802c-0.7743 0.409 -1.6127 0.6828 -2.4791 0.8097 -1.1446 0.2295 -2.3318 0.1112 -3.4087 -0.3398 -0.57607 -0.2281 -1.13128 -0.5057 -1.65935 -0.8297 -0.84494 -0.5378 -1.76924 -0.9392 -2.73898 -1.1896 -0.36023 -0.1165 -0.74251 -0.1482 -1.11703 -0.0927 -0.37452 0.0554 -0.73117 0.1967 -1.04216 0.4126 -0.04178 0.0295 -0.07698 0.0674 -0.10339 0.1112 -0.0264 0.0438 -0.04343 0.0926 -0.05001 0.1433 -0.00657 0.0508 -0.00256 0.1023 0.0118 0.1514 0.01436 0.0491 0.03875 0.0947 0.07163 0.1339 0.03043 0.0406 0.06868 0.0747 0.1125 0.1003 0.04382 0.0255 0.09232 0.0421 0.14263 0.0486 0.05032 0.0065 0.10143 0.0029 0.15032 -0.0107 0.04889 -0.0135 0.09457 -0.0367 0.13435 -0.0682 0.22759 -0.1098 0.47703 -0.1669 0.72972 -0.1669 0.2527 0 0.50214 0.0571 0.72973 0.1669 0.83795 0.2898 1.62423 0.7116 2.32913 1.2495 0.57781 0.4 1.19394 0.7415 1.83931 1.0196 0.6611 0.288 1.3622 0.4734 2.0792 0.5498 0.6906 0.0545 1.3854 0.0005 2.0592 -0.1599 0.9826 -0.2318 1.9143 -0.6417 2.749 -1.2096 0.696 -0.4225 1.2201 -1.0775 1.4795 -1.8493 -0.21 -0.2799 -0.5098 -0.2399 -0.8797 0.06 -0.299 0.4051 -0.6895 0.7339 -1.1396 0.9596Z" clip-rule="evenodd" stroke-width="1"></path>
  <path fill="#000000" fill-rule="evenodd" d="M23.3296 12.2538c-0.1396 -0.1869 -0.3184 -0.341 -0.5239 -0.4516 -0.2055 -0.1105 -0.4327 -0.1747 -0.6657 -0.1881 -0.4486 -0.0187 -0.8965 0.0492 -1.3195 0.1999l-0.0999 0c-0.04 0 0 -0.07 0.0499 -0.1099 0.0723 -0.4181 0.0238 -0.8481 -0.1399 -1.2396 -0.0753 -0.2606 -0.2328 -0.48985 -0.4489 -0.65375 -0.2161 -0.1639 -0.4794 -0.25364 -0.7506 -0.25589 -0.0797 -0.00963 -0.1603 -0.00963 -0.24 0 0.0106 -0.20414 -0.0296 -0.4077 -0.1168 -0.59258 -0.0872 -0.18487 -0.2188 -0.34531 -0.383 -0.46702 -0.2148 -0.13452 -0.4668 -0.19751 -0.7197 -0.17993 -0.2867 0.01503 -0.5697 0.0723 -0.8397 0.16993 -0.09 0 -0.1699 0.09996 -0.2599 0.13995 0.015 -0.27969 0.015 -0.55999 0 -0.83968 0.0099 -0.15979 0.0099 -0.32004 0 -0.47983 -0.0237 -0.15191 -0.0571 -0.30215 -0.1 -0.44983 -0.1199 -0.36986 -0.2798 -0.67974 -0.3998 -0.99962 0.0472 -0.03728 0.0849 -0.08525 0.11 -0.13995 0.1301 -0.40235 0.2139 -0.81821 0.2499 -1.23953 0.0325 -0.43106 0.009 -0.86452 -0.07 -1.28952 -0.0612 -0.27471 -0.1658 -0.53792 -0.3099 -0.77971 -0.2032 -0.32517 -0.4376 -0.62982 -0.6997 -0.90966C14.8931 0.630121 13.8234 0.0952523 12.6736 0.00844182 11.5539 -0.0567039 10.4448 0.256652 9.52477 0.898108 8.63635 1.50518 7.91179 2.32246 7.41556 3.27722c-0.18076 0.35249 -0.28813 0.73799 -0.31562 1.13317 -0.02749 0.39518 0.02547 0.79184 0.15568 1.16596 0.125 0.30178 0.29707 0.58182 0.50981 0.82969 0.29806 0.33383 0.63347 0.63234 0.99962 0.88967 0.28285 0.22576 0.59157 0.41704 0.91966 0.56978 0.23583 0.08898 0.48049 0.15265 0.72969 0.18993 -0.0144 0.05912 -0.0144 0.12082 0 0.17994 0.12 0.36986 0.18 0.71973 0.3199 1.08959 0.06 0.14994 0.13 0.28989 0.1999 0.42984 0.0842 0.13946 0.1777 0.27301 0.2799 0.39981 0.13 0.16 0.2699 0.3099 0.4099 0.4599 -0.5821 0.5147 -1.0871 1.1106 -1.4995 1.7693 -0.18224 0.3177 -0.33291 0.6525 -0.44979 0.9996 -0.12396 0.3247 -0.22092 0.659 -0.28989 0.9997 -0.14198 0.8082 -0.17894 1.6313 -0.10996 2.449 -0.00425 0.0506 0.00224 0.1015 0.01904 0.1494 0.01681 0.0479 0.04356 0.0917 0.07849 0.1285s0.07725 0.0658 0.12418 0.0851c0.04694 0.0193 0.09743 0.0285 0.14815 0.0269 0.10174 0.0027 0.20052 -0.0344 0.27523 -0.1035 0.07471 -0.0691 0.11945 -0.1647 0.12465 -0.2664 0.101 -0.7352 0.2751 -1.4585 0.5198 -2.1592 0.0999 -0.2999 0.2099 -0.5897 0.3199 -0.8796l0.3498 -0.8597c0.2152 -0.4921 0.4623 -0.9696 0.7397 -1.4295 0.0377 0.0171 0.0786 0.026 0.12 0.026 0.0414 0 0.0823 -0.0089 0.12 -0.026 0.4561 -0.233 0.9505 -0.382 1.4594 -0.4398 0.2156 -0.0085 0.4305 0.029 0.6304 0.11 0.1999 0.081 0.3803 0.2037 0.5292 0.3598 0.0899 0.09 0.3099 0.1799 0.4198 0.2699 -0.0999 0.0059 -0.2 0.0059 -0.2999 0 -0.3364 0.0493 -0.6701 0.116 -0.9996 0.1999 -0.176 0.0474 -0.338 0.1367 -0.472 0.2603 -0.1341 0.1236 -0.2362 0.2778 -0.2977 0.4495 -0.061 0.2462 -0.061 0.5035 0 0.7497 0.11 0.5798 0.5098 1.3495 0.5398 1.7493 0.0531 0.3841 -0.0243 0.7749 -0.2199 1.1096 -0.2298 0.3438 -0.5473 0.6199 -0.9197 0.7997 -0.0472 0.0196 -0.0901 0.0484 -0.1259 0.0849 -0.0358 0.0365 -0.0639 0.0799 -0.0826 0.1275 -0.0186 0.0476 -0.0275 0.0985 -0.026 0.1496 0.0014 0.0511 0.0132 0.1014 0.0346 0.1478 0.0195 0.0473 0.0484 0.0901 0.0849 0.1259 0.0365 0.0358 0.0798 0.0639 0.1274 0.0826 0.0476 0.0187 0.0985 0.0275 0.1496 0.0261 0.0512 -0.0015 0.1014 -0.0133 0.1479 -0.0346 0.5411 -0.1985 1.0155 -0.5449 1.3695 -0.9997 0.0784 -0.12 0.1454 -0.2472 0.1999 -0.3798l1.3095 2.529c-0.098 0.0366 -0.1918 0.0835 -0.2799 0.14 -0.1411 0.096 -0.2718 0.2065 -0.3898 0.3298 -0.1633 0.2051 -0.3403 0.3988 -0.5298 0.5798 -0.0919 0.0435 -0.1631 0.1211 -0.1986 0.2163 -0.0355 0.0953 -0.0324 0.2006 0.0086 0.2935 0.0455 0.0926 0.1249 0.1641 0.2218 0.1995 0.0968 0.0353 0.2036 0.0319 0.298 -0.0095 0.3098 -0.0481 0.6121 -0.1354 0.8997 -0.2599 0.1171 -0.0582 0.2277 -0.1285 0.3299 -0.21 0.1051 -0.0769 0.1992 -0.1676 0.2799 -0.2699 0.1941 0.1917 0.4414 0.3206 0.7097 0.3699 0.6098 0.08 1.1396 0.1699 1.5594 -0.5498 0.192 -0.3742 0.2914 -0.789 0.2899 -1.2095 0.007 -0.4296 -0.0332 -0.8587 -0.1199 -1.2796 0.2728 -0.4206 0.5877 -0.8124 0.9396 -1.1695 0.3495 -0.3504 0.7466 -0.6499 1.1796 -0.8897 0.4898 -0.2899 1.1395 -0.4698 1.6394 -0.7997 0.2824 -0.1891 0.5266 -0.4299 0.7197 -0.7097 0.1566 -0.2224 0.2406 -0.4877 0.2406 -0.7597s-0.084 -0.5374 -0.2406 -0.7598Zm-5.9978 -2.84888c0.1579 -0.03799 0.3182 -0.06471 0.4799 -0.07997 0.0684 -0.00307 0.1356 0.01818 0.1899 0.05998 0.1399 0.12995 0 0.30988 0 0.48981 -0.0719 0.16626 -0.1625 0.32396 -0.2699 0.46986 -0.1899 0.1399 -0.3599 0.2899 -0.4998 0.4098 -0.1463 0.1194 -0.2833 0.2497 -0.4099 0.3899 -0.0724 0.0903 -0.136 0.1874 -0.1899 0.2899 -0.049 0.0869 -0.0748 0.185 -0.0748 0.2848 0 0.0999 0.0258 0.198 0.0748 0.2849 0.0366 0.0826 0.0903 0.1564 0.1575 0.2167 0.0672 0.0603 0.1464 0.1057 0.2324 0.1332 0.0772 0.0339 0.1606 0.0514 0.2449 0.0514 0.0843 0 0.1677 -0.0175 0.2449 -0.0514l0.1799 -0.1299 0.2099 -0.16 0.5398 -0.5398c0.0391 -0.0447 0.0758 -0.0914 0.11 -0.1399 0.1881 -0.1473 0.3888 -0.2777 0.5998 -0.3899 0.1499 -0.07 0.3098 -0.1599 0.3898 0 0.0932 0.1783 0.1348 0.3791 0.12 0.5798 -0.0332 0.2204 -0.1189 0.4295 -0.2499 0.6098 -0.1073 0.1659 -0.2276 0.323 -0.3599 0.4698 -0.1173 0.1395 -0.2516 0.2638 -0.3999 0.3699 -0.1471 0.0931 -0.3133 0.1523 -0.4862 0.173 -0.1729 0.0208 -0.3483 0.0026 -0.5134 -0.0531 -0.4031 -0.1127 -0.7557 -0.3595 -0.9996 -0.6997 -0.0587 -0.0819 -0.1432 -0.1418 -0.2399 -0.17 0.0019 -0.0232 0.0019 -0.0466 0 -0.0699 0.0445 -0.1339 0.0622 -0.2752 0.0519 -0.4159 -0.0103 -0.1406 -0.0483 -0.2779 -0.1119 -0.4038 -0.2276 -0.2976 -0.5133 -0.5458 -0.8397 -0.7298l-0.1299 -0.0699c0.21 -0.2534 0.4519 -0.4785 0.7197 -0.66977 0.3826 -0.23648 0.8013 -0.4087 1.2395 -0.50981h-0.01ZM10.6343 7.3157c-0.043 0.008 -0.0839 0.02503 -0.1199 0.04998 -0.1865 -0.03816 -0.3677 -0.09857 -0.5398 -0.17993 -0.26323 -0.15121 -0.5081 -0.33234 -0.72973 -0.5398 -0.22216 -0.19759 -0.42932 -0.41144 -0.61977 -0.63976 -0.17213 -0.21454 -0.30419 -0.45834 -0.38985 -0.71973 -0.06403 -0.25037 -0.07487 -0.51138 -0.03183 -0.7662 0.04305 -0.25482 0.13902 -0.49779 0.28174 -0.71324 0.44082 -0.72999 1.04686 -1.3463 1.76934 -1.79933 0.6841 -0.47994 1.5037 -0.72862 2.3391 -0.70973 0.8352 0.01566 1.6341 0.3438 2.2392 0.91965 0.1925 0.18116 0.3728 0.37484 0.5398 0.57979 0.145 0.17694 0.2537 0.38075 0.3199 0.59977 0.0912 0.32522 0.1349 0.6619 0.1299 0.99963 -0.0123 0.26216 -0.0458 0.52291 -0.1 0.7797 -0.6697 0.35987 -1.3894 0.69974 -2.1192 0.99963l-0.8396 0.38985 -0.5498 0.2599c-0.4952 0.25089 -1.0292 0.41648 -1.5795 0.48982Zm4.0885 2.9289c-0.2535 -0.0885 -0.5213 -0.1292 -0.7897 -0.12 -0.4635 0.0325 -0.9158 0.1583 -1.3295 0.3699 -0.1099 -0.3099 -0.1999 -0.62975 -0.3199 -0.93964 -0.0599 -0.14994 -0.1199 -0.29989 -0.1899 -0.43983 -0.0782 -0.14322 -0.1721 -0.27732 -0.2799 -0.39985 -0.1979 -0.25617 -0.4187 -0.49373 -0.6597 -0.70974 0.6743 0.05429 1.3528 -0.02035 1.9992 -0.21991 0.4736 -0.1643 0.9239 -0.38944 1.3395 -0.66975 0.3763 -0.24725 0.7369 -0.51767 1.0796 -0.8097 -0.0502 0.23695 -0.0803 0.47771 -0.09 0.71973 -0.02 0.16265 -0.02 0.32716 0 0.48982 0.0294 0.15913 0.0695 0.3161 0.12 0.46982 0.1099 0.35986 0.2699 0.68974 0.4098 0.99962 -0.1399 0.08997 -0.2999 0.12996 -0.4298 0.22992 -0.3366 0.2981 -0.6264 0.6452 -0.8597 1.02961Zm2.9989 8.2569c-0.0181 0.1619 -0.0482 0.3223 -0.09 0.4798 0 0.1 -0.05 0.2199 -0.1399 0.2399l-0.4598 -0.5697 -2.3292 -3.1489v-0.3198l-0.3598 -1.9993c0.0899 0.005 0.18 0.005 0.2699 0 0.3728 -0.0393 0.7391 -0.1267 1.0895 -0.2599 0.0642 -0.041 0.1244 -0.0879 0.18 -0.14l0 0.08c0.3225 0.5327 0.8211 0.9358 1.4095 1.1396l0 0.1c0 0.9096 0.3298 2.1092 0.4398 3.1988 0.0448 0.3988 0.0415 0.8015 -0.01 1.1995Zm4.5083 -5.438c-0.0977 0.141 -0.2237 0.2601 -0.3699 0.3499 -0.4698 0.3299 -1.0696 0.5598 -1.5194 0.8697 -0.7344 0.5115 -1.3289 1.1989 -1.7293 1.9992 -0.2224 -0.7152 -0.4027 -1.4428 -0.5398 -2.1791 0.3743 0.0261 0.7484 -0.0535 1.0796 -0.23 0.1814 -0.1178 0.3521 -0.2516 0.5098 -0.3998 0.1346 -0.129 0.2614 -0.2659 0.3798 -0.4099 0.2495 -0.1146 0.5067 -0.2114 0.7697 -0.2898 0.3915 -0.0899 0.7982 -0.0899 1.1896 0 0.1037 0.0247 0.1956 0.0848 0.2599 0.1699 0 0 0.01 0.06 -0.03 0.1199Z" clip-rule="evenodd" stroke-width="1"></path>
</svg>