<svg xmlns="http://www.w3.org/2000/svg" fill="none" viewBox="0 0 24 24" id="Video-Player-Movie--Streamline-Freehand">
  <desc>
    Video Player Movie Streamline Icon: https://streamlinehq.com
  </desc>
  <path fill="#000000" fill-rule="evenodd" d="M14.3701 9.91491c-0.5831 -0.43769 -1.1908 -0.84168 -1.82 -1.21 -0.6419 -0.38068 -1.3103 -0.71487 -2 -1 -0.0458 -0.02123 -0.0954 -0.03288 -0.1458 -0.03424 -0.0504 -0.00136 -0.1006 0.0076 -0.1474 0.02633 -0.0468 0.01873 -0.0893 0.04683 -0.1249 0.08259 -0.0355 0.03575 -0.0634 0.0784 -0.0819 0.12532 -0.0289 -0.0442 -0.06934 -0.07967 -0.11692 -0.10258s-0.10052 -0.03239 -0.15309 -0.02742c-0.08842 0.00517 -0.17133 0.04463 -0.2311 0.11 -0.05976 0.06537 -0.09166 0.15148 -0.0889 0.24v5.66999c0 0.16 -0.12 0.44 -0.12 0.58 0.00159 0.1007 0.02586 0.1998 0.07102 0.2898 0.04515 0.09 0.11001 0.1687 0.18977 0.2302s0.17235 0.1042 0.2709 0.125c0.09855 0.0208 0.20052 0.0191 0.29832 -0.005 0.4729 -0.1117 0.9274 -0.2902 1.35 -0.53 0.88 -0.49 1.73 -1.22 2.49 -1.72 0.26 -0.18 0.7 -0.38 1 -0.62 0.196 -0.1379 0.3682 -0.3068 0.51 -0.5 0.0765 -0.1138 0.1174 -0.2478 0.1174 -0.385 0 -0.1371 -0.0409 -0.2712 -0.1174 -0.385 -0.3511 -0.3567 -0.7363 -0.6782 -1.15 -0.95999Zm-0.19 1.38999c-0.31 0.18 -0.67 0.34 -0.91 0.49 -0.65 0.41 -1.36 1 -2.1 1.46 -0.1996 0.1317 -0.4066 0.2519 -0.62 0.36l-0.08 -1.19 -0.33 -4.06999c0.0399 0.03462 0.0835 0.0648 0.13 0.09 0.6233 0.28946 1.2249 0.62367 1.8 1 0.5708 0.39042 1.1153 0.81799 1.63 1.27999 0.2182 0.1489 0.4285 0.3091 0.63 0.48l-0.15 0.1Z" clip-rule="evenodd" stroke-width="1"></path>
  <path fill="#000000" fill-rule="evenodd" d="m5.88043 13.0652 0.06 -2.41V3.38518c-0.06 -0.47 -0.75 -0.16 -0.77 0.29 -0.17 1.16 -0.17 1.85 -0.29 3.01 -0.50788 0.04312 -1.01232 0.11995 -1.51 0.23 -0.68729 0.1652 -1.35705 0.39627 -2 0.69 -0.37 0.3 -0.3 1.22 0.46 1l1.17 -0.43c0.6 -0.22 1.19 -0.42 1.79 -0.6 0 0.22 0 0.43 -0.06 0.64 0 0.81 -0.07 1.61 -0.08 2.42002v0.35c-0.58064 -0.0793 -1.16936 -0.0793 -1.75 0 -0.25485 0.0513 -0.50553 0.1215 -0.75 0.21 -0.22 0.1075 -0.42785 0.2382 -0.62 0.39 -0.36 0.43 -0.34 1.2 0.23 1 0.24 -0.08 0.48 -0.19 0.71 -0.28 0.23 -0.09 0.37 -0.15 0.65 -0.26 0.28 -0.11 0.46 -0.11 0.74 -0.2 0.26262 -0.0819 0.52973 -0.1487 0.8 -0.2v1.33c0 0.44 0.06 1.16 0.08 1.74 -0.39279 0.0052 -0.78433 0.0454 -1.17 0.12 -0.22758 0.0597 -0.45132 0.1332 -0.67 0.22 -0.21112 0.0872 -0.41508 0.1909 -0.61 0.31 -0.15792 0.0903 -0.30546 0.1976 -0.44 0.32 -0.38 0.35 -0.43 1.21 0.28 1 0.42 -0.14 0.44 -0.12 0.88 -0.29 0.44 -0.17 0.62 -0.27 0.93 -0.4 0.31 -0.13 0.56 -0.26 0.84 -0.38 0 0.91 0 1.31 0.06 2.23 0.07 0.62 0.83 0.48 0.79 -0.17 0.06 -1.69 0.19 -2.88 0.25 -4.61Z" clip-rule="evenodd" stroke-width="1"></path>
  <path fill="#000000" fill-rule="evenodd" d="M24.0004 11.9852c0 -0.9 0 -1.79 -0.05 -2.68001 -0.07 -2.1 -0.24 -4.18 -0.35 -6.23 -0.0034 -0.06362 -0.0264 -0.12464 -0.0658 -0.17474 -0.0393 -0.0501 -0.0932 -0.08685 -0.1542 -0.10526 -0.047 -0.072 -0.1177 -0.12536 -0.1998 -0.15091 -0.0821 -0.02555 -0.1706 -0.02169 -0.2502 0.01091 -1.1026 0.45041 -2.2589 0.75628 -3.44 0.91 -1.1662 0.11376 -2.343 0.0497 -3.49 -0.19 -1.58 -0.27 -3.19 -0.77 -4.78 -1.14 -1.66227 -0.43813 -3.38466 -0.60361 -5.09997 -0.49 -1.17646 0.11554 -2.30526 0.52381 -3.28343 1.18757 -0.97818 0.66376 -1.77458 1.56188 -2.316572 2.61243l0 0.11c-0.076766 0.01418 -0.146018 0.05512 -0.195451 0.11554 -0.049434 0.06042 -0.075848 0.13641 -0.074549 0.21446C0.0735255 7.83982 -0.00991339 9.70217 0.000428102 11.5652c0 0.15 0.169999898 2.86 0.219999898 3.36 0.15 1.66 0.38 3.32 0.55 5 0.007696 0.1017 0.054925 0.1963 0.131566 0.2636 0.07664 0.0673 0.176596 0.1019 0.278436 0.0964 0.04951 -0.0025 0.09802 -0.015 0.14263 -0.0366 0.04462 -0.0216 0.08443 -0.052 0.11708 -0.0893 0.03265 -0.0373 0.05746 -0.0808 0.07297 -0.1279 0.01551 -0.0471 0.0214 -0.0968 0.01732 -0.1462 -0.600002 -9.3 -0.600002 -13.72001 -0.610002 -13.90001 0.066043 -0.02471 0.124592 -0.06604 0.170002 -0.12 0.45275 -0.73673 1.05209 -1.37255 1.76083 -1.86798C3.56 3.50178 4.363 3.15732 5.21043 2.98519c0.42 0 0.9 -0.15 1 -0.16 1.59521 -0.01422 3.18437 0.19789 4.71997 0.63 1.62 0.38 3.28 0.8 4.89 1 1.2766 0.06528 2.5561 0.04524 3.83 -0.06 1.1295 -0.20047 2.2308 -0.53622 3.28 -1v6.14c0 0.74001 0.07 4.53001 0.07 5.00001 0 0.74 -0.31 4.91 -0.35 5.84 -0.9588 0.2966 -1.9487 0.4811 -2.95 0.55 -1.1716 0.0598 -2.3454 -0.0617 -3.48 -0.36 -1.56 -0.37 -3.14 -1 -4.7 -1.44 -1.63154 -0.5427 -3.34053 -0.8163 -5.05997 -0.81 -0.52096 0.0492 -1.03854 0.1294 -1.55 0.24 -1.77704 0.4878 -3.30297 1.6313 -4.270002 3.2 -0.052018 0.072 -0.073817 0.1614 -0.060736 0.2492 0.013081 0.0879 0.060004 0.1671 0.130736 0.2208 0.071967 0.052 0.161429 0.0738 0.249259 0.0607 0.087833 -0.0131 0.167053 -0.06 0.220743 -0.1307 0.59048 -0.8554 1.38344 -1.5514 2.30819 -2.026 0.92475 -0.4746 1.95256 -0.713 2.99181 -0.694 1.59257 0.0824 3.16517 0.3922 4.66997 0.92 1.59 0.48 3.22 1 4.81 1.34 1.2604 0.2519 2.5516 0.3126 3.83 0.18 1 -0.11 4.16 -0.63 3.89 -1.42 -0.0188 -0.0508 -0.0495 -0.0964 -0.0895 -0.1329 -0.04 -0.0365 -0.0882 -0.063 -0.1405 -0.0771 0.21 -1.86 0.39 -3.73 0.47 -5.62 0.08 -0.91 0.08 -1.8 0.08 -2.64Z" clip-rule="evenodd" stroke-width="1"></path>
  <path fill="#000000" fill-rule="evenodd" d="M21.6198 16.5151h-0.73c-0.2412 0.0089 -0.4816 0.0322 -0.72 0.07 -0.39 0.06 -0.77 0.14 -1.16 0.21 0.07 -1 0.12 -2 0.13 -3v-0.45c0.295 0.0449 0.592 0.0749 0.89 0.09h0.71c0.24 0 0.48 0 0.71 -0.07 0.4 -0.06 0.6 -0.14 1 -0.21 0.58 -0.11 0.48 -0.73 0 -0.88 -0.48 -0.15 -0.65 -0.09 -1.06 -0.11h-0.73c-0.2379 0.0085 -0.475 0.0319 -0.71 0.07 -0.29 0 -0.56 0.13 -0.83 0.19V9.89513c0 -0.66 -0.06 -1.32 -0.1 -2l0.98 0.09h1.36c0.44 0 0.52 -0.08 1 -0.07 0.48 0.01 0.53 -0.63 0 -0.86 -0.2922 -0.11415 -0.5932 -0.20445 -0.9 -0.27 -0.2415 -0.04155 -0.4853 -0.06827 -0.73 -0.08 -0.2529 -0.01996 -0.5071 -0.01996 -0.76 0 -0.3394 0.07002 -0.6736 0.16358 -1 0.28 0 -0.77 -0.07 -1.14 -0.08 -1.91 -0.15 -0.58 -0.69 -0.46 -0.73 0 -0.17 1.92 -0.28 3.45 -0.28 5.38997 0 1.3 0 2.6 0.06 3.9 0 2 0.1 3.88 0 5.81 -0.0122 0.0525 -0.0132 0.1069 -0.0028 0.1597 0.0104 0.0528 0.0319 0.1029 0.063 0.1468 0.0312 0.0439 0.0714 0.0806 0.1178 0.1078 0.0465 0.0272 0.0982 0.0442 0.1517 0.05 0.0536 0.0057 0.1077 -0.0001 0.1589 -0.0169 0.0511 -0.0167 0.0981 -0.0442 0.1379 -0.0805 0.0397 -0.0364 0.0713 -0.0807 0.0926 -0.1302 0.0212 -0.0494 0.0318 -0.1028 0.0309 -0.1567 0.13 -0.89 0.22 -1.79 0.3 -2.69 0.5071 0.1049 1.0224 0.1651 1.54 0.18 0.3847 -0.0017 0.7688 -0.0285 1.15 -0.08l0.6 -0.09c0.72 -0.28 0.6 -1 0 -1.07 -0.2199 -0.0139 -0.4406 -0.0106 -0.66 0.01Z" clip-rule="evenodd" stroke-width="1"></path>
</svg>