<svg xmlns="http://www.w3.org/2000/svg" fill="none" viewBox="0 0 14 14" id="Fragile--Streamline-Core-Remix">
  <desc>
    Fragile Streamline Icon: https://streamlinehq.com
  </desc>
  <g id="Free Remix/Shipping/fragile--fragile-shipping-glass-delivery-wine-crack-shipment-sign-sticker">
    <path id="Union" fill="#000000" fill-rule="evenodd" d="M2.5 0C1.60254 0 0.875 0.727537 0.875 1.625v2.88423c0 1.77557 0.68533 3.17877 1.83066 4.12675 0.98536 0.81557 2.27199 1.26311 3.66934 1.36472v2.7443h-2c-0.34518 0 -0.625 0.2798 -0.625 0.625s0.27982 0.625 0.625 0.625h5.25c0.34518 0 0.625 -0.2798 0.625 -0.625s-0.27982 -0.625 -0.625 -0.625h-2v-2.7443c1.39735 -0.10161 2.684 -0.54915 3.6693 -1.36472C12.4397 7.688 13.125 6.2848 13.125 4.50923V1.625C13.125 0.727536 12.3975 0 11.5 0h-9Zm-0.375 1.625c0 -0.20711 0.16789 -0.375 0.375 -0.375h3.04193l-0.93237 0.93236c-0.16148 0.16148 -0.24059 0.38773 -0.21491 0.61465 0.02567 0.22692 0.15334 0.42978 0.34682 0.5511l1.81332 1.137L5.414 5.62591c-0.2929 0.29289 -0.2929 0.76777 0 1.06066 0.29289 0.29289 0.76776 0.29289 1.06066 0l1.80645 -1.80645c0.16148 -0.16148 0.24059 -0.38774 0.21491 -0.61466 -0.02567 -0.22692 -0.15334 -0.42978 -0.34682 -0.55109l-1.81332 -1.137L7.45376 1.4595c0.06268 -0.06269 0.11195 -0.13371 0.14781 -0.2095H11.5c0.2071 0 0.375 0.16789 0.375 0.375v2.88423c0 1.42665 -0.5369 2.46789 -1.3777 3.16381 -0.85537 0.708 -2.07794 1.10008 -3.4973 1.10008 -1.41936 0 -2.64193 -0.39208 -3.49732 -1.10008C2.66189 6.97712 2.125 5.93588 2.125 4.50923V1.625Z" clip-rule="evenodd" stroke-width="1"></path>
  </g>
</svg>