<svg xmlns="http://www.w3.org/2000/svg" fill="none" viewBox="0 0 14 14" id="Parachute-Drop--Streamline-Core-Remix">
  <desc>
    Parachute Drop Streamline Icon: https://streamlinehq.com
  </desc>
  <g id="Free Remix/Shipping/parachute-drop--package-box-fulfillment-cart-warehouse-shipping-delivery-drop-parachute">
    <path id="Union" fill="#000000" fill-rule="evenodd" d="M13.6301 2.90207C11.9773 0.954975 9.43178 -0.000853563 6.95891 5.72e-7 4.4629 0.000865018 2.01411 0.952363 0.368655 2.90269 0.115151 3.20317 0 3.57774 0 3.94191c0 0.94044 0.762375 1.70281 1.70281 1.70281h0.53592l1.14165 2.13409c-0.31053 0.28312 -0.50538 0.69094 -0.50538 1.14427v3.52882c0 0.855 0.6931 1.5481 1.54808 1.5481h5.15384c0.85498 0 1.54808 -0.6931 1.54808 -1.5481V8.92308c0 -0.46313 -0.2034 -0.87877 -0.5257 -1.16246l1.1319 -2.1159h0.5658c0.9405 0 1.703 -0.76245 1.703 -1.70298 0 -0.36367 -0.1147 -0.73901 -0.3699 -1.03967ZM7.60999 5.64472h2.70361L9.38798 7.375H7.60999V5.64472Zm-3.95364 0h2.70364V7.375H4.58198l-0.92563 -1.73028ZM4.42308 8.625c-0.16463 0 -0.29808 0.13345 -0.29808 0.29808v3.52882c0 0.1646 0.13345 0.2981 0.29808 0.2981h5.15384c0.16463 0 0.29808 -0.1335 0.29808 -0.2981V8.92308c0 -0.16463 -0.13345 -0.29808 -0.29808 -0.29808H4.42308Zm2.84462 2.3514c-0.34518 0 -0.625 0.2799 -0.625 0.625 0 0.3452 0.27982 0.625 0.625 0.625h1c0.34518 0 0.625 -0.2798 0.625 -0.625 0 -0.3451 -0.27982 -0.625 -0.625 -0.625h-1Z" clip-rule="evenodd" stroke-width="1"></path>
  </g>
</svg>