<svg xmlns="http://www.w3.org/2000/svg" fill="none" viewBox="0 0 14 14" id="Shipment-Add--Streamline-Core-Remix">
  <desc>
    Shipment Add Streamline Icon: https://streamlinehq.com
  </desc>
  <g id="Free Remix/Shipping/shipment-add--shipping-parcel-shipment-add">
    <path id="Union" fill="#000000" fill-rule="evenodd" d="M6.375 0.5H3.38268c-0.57955 0 -1.10725 0.333862 -1.35547 0.85757L0.54818 4.47816c-0.038832 0.08193 -0.054032 0.17136 -0.046175 0.25887C0.500677 4.75367 0.5 4.77049 0.5 4.78747v7.16443c0 0.4106 0.1631 0.8044 0.453421 1.0947 0.290319 0.2903 0.684079 0.4534 1.094659 0.4534h9.90382c0.4106 0 0.8044 -0.1631 1.0947 -0.4534s0.4534 -0.6841 0.4534 -1.0947V4.78747c0 -0.01698 -0.0007 -0.03379 -0.002 -0.05043 0.0079 -0.08751 -0.0073 -0.17694 -0.0462 -0.25888l-1.479 -3.12059C11.7246 0.833862 11.1969 0.5 10.6173 0.5H7.625l0 4.69231h4.625v6.75959c0 0.0791 -0.0314 0.1549 -0.0873 0.2108 -0.0559 0.0559 -0.1317 0.0873 -0.2108 0.0873H2.04808c-0.07906 0 -0.15488 -0.0314 -0.21078 -0.0873 -0.0559 -0.0559 -0.0873 -0.1317 -0.0873 -0.2108V5.19231h4.625L6.375 0.5ZM7 6.22119c0.34518 0 0.625 0.27982 0.625 0.625v1.375H9c0.34518 0 0.625 0.27982 0.625 0.625s-0.27982 0.625 -0.625 0.625H7.625v1.37501c0 0.3452 -0.27982 0.625 -0.625 0.625s-0.625 -0.2798 -0.625 -0.625V9.47119H5c-0.34518 0 -0.625 -0.27982 -0.625 -0.625s0.27982 -0.625 0.625 -0.625h1.375v-1.375c0 -0.34518 0.27982 -0.625 0.625 -0.625Z" clip-rule="evenodd" stroke-width="1"></path>
  </g>
</svg>