<svg xmlns="http://www.w3.org/2000/svg" fill="none" viewBox="0 0 14 14" id="Shipment-Download--Streamline-Core-Remix">
  <desc>
    Shipment Download Streamline Icon: https://streamlinehq.com
  </desc>
  <g id="Free Remix/Shipping/shipment-download--shipping-parcel-shipment-download">
    <path id="Union" fill="#000000" fill-rule="evenodd" d="M6.375 0.307983H3.38268c-0.57955 0 -1.10725 0.333862 -1.35547 0.857567L0.54818 4.28615c-0.038832 0.08193 -0.054032 0.17136 -0.046175 0.25887C0.500677 4.56165 0.5 4.57847 0.5 4.59545v7.16445c0 0.4106 0.1631 0.8043 0.453421 1.0947 0.290319 0.2903 0.684079 0.4534 1.094659 0.4534h9.90382c0.4106 0 0.8044 -0.1631 1.0947 -0.4534 0.2903 -0.2904 0.4534 -0.6841 0.4534 -1.0947V4.59545c0 -0.01697 -0.0007 -0.03379 -0.002 -0.05042 0.0079 -0.08752 -0.0073 -0.17695 -0.0462 -0.25888l-1.479 -3.1206c-0.2482 -0.523705 -0.7759 -0.857567 -1.3555 -0.857567H7.625l0 4.692307h4.625v6.75961c0 0.0791 -0.0314 0.1549 -0.0873 0.2108 -0.0559 0.0559 -0.1317 0.0873 -0.2108 0.0873H2.04808c-0.07906 0 -0.15488 -0.0314 -0.21078 -0.0873 -0.0559 -0.0559 -0.0873 -0.1317 -0.0873 -0.2108V5.00029h4.625l0 -4.692307Zm0.62482 5.788207c0.34518 0 0.625 0.27982 0.625 0.625v1.74976h1.12541c0.25279 0 0.48069 0.15227 0.57742 0.38582 0.09674 0.23355 0.04327 0.50237 -0.13548 0.68112L7.44196 11.2881c-0.06989 0.0699 -0.15223 0.1198 -0.23987 0.1496 -0.06345 0.0217 -0.13149 0.0335 -0.20227 0.0335 -0.17789 0 -0.33842 -0.0743 -0.45224 -0.1936l-1.7397 -1.73971c-0.17875 -0.17875 -0.23223 -0.44757 -0.13549 -0.68112 0.09674 -0.23355 0.32464 -0.38582 0.57743 -0.38582h1.125V6.72119c0 -0.34518 0.27982 -0.625 0.625 -0.625Z" clip-rule="evenodd" stroke-width="1"></path>
  </g>
</svg>