<svg xmlns="http://www.w3.org/2000/svg" fill="none" viewBox="0 0 48 48" id="Contact-Phonebook--Streamline-Plump">
  <desc>
    Contact Phonebook Streamline Icon: https://streamlinehq.com
  </desc>
  <g id="contact-phonebook--phonebook-phone-number-books-book">
    <path id="Subtract" fill="#7af1ff" d="M44.0256 39.281c-0.1829 2.4926 -2.0589 4.4245 -4.5443 4.6376 -2.8635 0.2454 -7.786 0.4922 -13.9917 0.4922 -6.4557 0 -10.8782 -0.2468 -13.7417 -0.4923 -2.48538 -0.213 -4.36137 -2.1449 -4.54429 -4.6376 -0.03795 -0.5172 -0.07626 -1.0851 -0.11377 -1.7048l0.00001 -27.3312c0.03751 -0.61973 0.07582 -1.18759 0.11378 -1.70486 0.18292 -2.49268 2.05891 -4.42456 4.54427 -4.6376 2.8635 -0.24544 7.286 -0.49229 13.7417 -0.49228 6.2057 0 11.1282 0.24685 13.9917 0.49229 2.4854 0.21304 4.3614 2.14492 4.5443 4.6376 0.2313 3.15125 0.4753 8.18005 0.4753 15.37045 -0.0001 7.1905 -0.2441 12.2192 -0.4753 15.3705Z" stroke-width="1"></path>
    <path id="Union" fill="#0c098c" fill-rule="evenodd" d="M11.577 1.90975c2.9257 -0.25077 7.4055 -0.4996 13.9125 -0.49959 6.2525 0 11.2328 0.24848 14.1625 0.4996 3.483 0.29854 6.1147 3.03014 6.3681 6.48392 0.2351 3.20362 0.4807 8.28132 0.4807 15.51682s-0.2456 12.3132 -0.4807 15.5168c-0.2534 3.4538 -2.8851 6.1854 -6.3681 6.484 -2.9297 0.2511 -7.9101 0.4995 -14.1625 0.4995 -6.507 0 -10.9868 -0.2488 -13.9125 -0.4996 -3.48295 -0.2985 -6.11467 -3.0301 -6.36812 -6.4839l-0.00389 -0.0532c-1.89321 -0.1562 -3.61888 -1.4948 -3.69243 -3.7078 -0.00123 -0.0369 -0.00227 -0.0644 -0.00308 -0.0845 -0.00124 -0.011 -0.0022 -0.0207 -0.00294 -0.0287 -0.00598 -0.0648 -0.00654 -0.117 -0.00654 -0.1429 0 -0.026 0.00056 -0.0782 0.00654 -0.1429 0.00074 -0.0081 0.0017 -0.0178 0.00294 -0.0288 0.00081 -0.0201 0.00185 -0.0476 0.00308 -0.0845 0.0686 -2.0641 1.5745 -3.3676 3.31305 -3.6603 -0.03159 -1.1404 -0.05712 -2.3663 -0.07441 -3.6802 -1.7069 -0.3171 -3.17102 -1.6126 -3.23864 -3.6472 -0.00123 -0.0369 -0.00227 -0.0644 -0.00308 -0.0845 -0.00124 -0.011 -0.0022 -0.0207 -0.00294 -0.0287 -0.00598 -0.0648 -0.00654 -0.117 -0.00654 -0.1429 0 -0.026 0.00056 -0.0782 0.00654 -0.143 0.00074 -0.008 0.0017 -0.0177 0.00294 -0.0287 0.00081 -0.0201 0.00185 -0.0476 0.00308 -0.0845 0.06762 -2.0346 1.53175 -3.3301 3.23865 -3.6472 0.01729 -1.3139 0.04283 -2.5398 0.07443 -3.6801 -1.73856 -0.2928 -3.24448 -1.5962 -3.31308 -3.6604 -0.00123 -0.0369 -0.00227 -0.0644 -0.00308 -0.0845 -0.00124 -0.011 -0.0022 -0.0207 -0.00294 -0.0287 -0.00598 -0.0648 -0.00654 -0.117 -0.00654 -0.1429 0 -0.026 0.00056 -0.0782 0.00654 -0.143 0.00074 -0.008 0.0017 -0.0177 0.00294 -0.0287 0.00081 -0.0201 0.00185 -0.0476 0.00308 -0.0845 0.07355 -2.21304 1.79926 -3.55166 3.69249 -3.70783l0.00385 -0.0525c0.25345 -3.45378 2.88517 -6.18538 6.3681 -6.48392Zm0.3416 40.01615c-1.4273 -0.1224 -2.51629 -1.1693 -2.70176 -2.6064 1.72096 -0.3064 3.20366 -1.6054 3.27166 -3.6532 0.0013 -0.0369 0.0023 -0.0644 0.0031 -0.0845 0.0012 -0.011 0.0022 -0.0207 0.0029 -0.0287 0.006 -0.0648 0.0066 -0.117 0.0066 -0.1429 0 -0.026 -0.0006 -0.0782 -0.0066 -0.143l-0.001 -0.0105 -0.0019 -0.0182 -0.0021 -0.0557 -0.001 -0.0288c-0.0731 -2.2014 -1.7811 -3.5375 -3.66259 -3.7053 -0.03094 -1.1055 -0.05616 -2.2951 -0.0735 -3.5712 1.91029 -0.139 3.66199 -1.4812 3.73609 -3.7112 0.0013 -0.0369 0.0023 -0.0644 0.0031 -0.0845l0.0017 -0.0162 0.0012 -0.0125c0.006 -0.0648 0.0066 -0.117 0.0066 -0.1429 0 -0.026 -0.0006 -0.0782 -0.0066 -0.143 -0.0007 -0.008 -0.0017 -0.0177 -0.0029 -0.0287 -0.0008 -0.0201 -0.0018 -0.0476 -0.0031 -0.0845 -0.0741 -2.23 -1.8258 -3.5721 -3.73608 -3.7112 0.01735 -1.2761 0.04257 -2.4657 0.07352 -3.5712 1.88146 -0.1678 3.58946 -1.5039 3.66256 -3.7053 0.0013 -0.0369 0.0023 -0.0644 0.0031 -0.0845 0.0012 -0.011 0.0022 -0.0207 0.0029 -0.0287 0.006 -0.0648 0.0066 -0.117 0.0066 -0.1429 0 -0.026 -0.0006 -0.0782 -0.0066 -0.143 -0.0007 -0.008 -0.0017 -0.0177 -0.0029 -0.0287 -0.0008 -0.0201 -0.0018 -0.0476 -0.0031 -0.0845 -0.068 -2.0477 -1.5506 -3.34677 -3.27157 -3.65316 0.18573 -1.4368 1.27467 -2.48338 2.70167 -2.6057 2.8013 -0.24011 7.1665 -0.48499 13.5709 -0.48498 6.159 0 11.0236 0.24522 13.8209 0.48499 1.4878 0.12752 2.6081 1.25968 2.7205 2.79127 0.2274 3.09898 0.4699 8.07868 0.4699 15.22408s-0.2425 12.1251 -0.4699 15.2241c-0.1124 1.5316 -1.2327 2.6637 -2.7205 2.7913 -2.7973 0.2397 -7.6619 0.4849 -13.8209 0.4849 -6.4044 0 -10.7696 -0.2448 -13.5709 -0.4849ZM19.9678 18.5c0 -3.5899 2.9102 -6.5 6.5 -6.5 3.5899 0 6.5 2.9101 6.5 6.5 0 1.9835 -0.8887 3.7592 -2.2881 4.9509 2.5832 1.2275 4.5301 3.5425 5.2114 6.3434 0.378 1.5541 -0.5412 3.0329 -2.0714 3.4366 -1.4735 0.3887 -3.8241 0.7691 -7.3825 0.7691 -3.5584 0 -5.909 -0.3804 -7.3824 -0.7691 -1.5303 -0.4037 -2.4495 -1.8825 -2.0715 -3.4366 0.6847 -2.8151 2.648 -5.1394 5.2509 -6.362 -1.3868 -1.1916 -2.2664 -2.9591 -2.2664 -4.9323Z" clip-rule="evenodd" stroke-width="1"></path>
  </g>
</svg>