<svg xmlns="http://www.w3.org/2000/svg" fill="none" viewBox="0 0 48 48" id="Notification-Alarm-Snooze--Streamline-Plump">
  <desc>
    Notification Alarm Snooze Streamline Icon: https://streamlinehq.com
  </desc>
  <g id="notification-alarm-snooze--android-phone-mobile-device-smartphone-iphone-alert-bell-alarm">
    <path id="Union" fill="#7af1ff" fill-rule="evenodd" d="M23.7415 0.5C15.1443 0.5 7.98704 7.09953 7.29103 15.6685l-0.54858 6.7538c-0.18341 2.2581 -0.89341 4.4418 -2.07306 6.376l-1.47151 2.4128c-0.89651 1.47 -1.21787 3.1659 -0.64675 4.6686 0.59395 1.5628 2.01543 2.5571 3.83748 2.8024 3.24189 0.4365 8.57669 0.8179 17.35289 0.8179s14.111 -0.3814 17.3529 -0.8179c1.822 -0.2453 3.2435 -1.2396 3.8375 -2.8024 0.5711 -1.5027 0.2497 -3.1986 -0.6468 -4.6686l-1.4715 -2.4128c-1.1796 -1.9342 -1.8896 -4.1179 -2.073 -6.376l-0.5486 -6.7538C39.496 7.09952 32.3387 0.5 23.7415 0.5Z" clip-rule="evenodd" stroke-width="1"></path>
    <path id="Union_2" fill="#0c098c" fill-rule="evenodd" d="M23.5011 0.5C14.725 0.5 7.41659 7.23239 6.69769 15.979l-0.52676 6.409c-0.17627 2.1446 -0.85724 4.217 -1.9873 6.0481l-1.42324 2.3062c-0.95283 1.5439 -1.33197 3.3871 -0.69731 5.0614 0.6649 1.7541 2.25507 2.833 4.20532 3.0924 1.85624 0.2469 4.3909 0.4749 7.8539 0.6245 0.7283 4.5233 4.6501 7.9783 9.3788 7.9783 4.7288 0 8.6506 -3.455 9.3788 -7.9783 3.4631 -0.1496 5.9977 -0.3776 7.8539 -0.6245 1.9503 -0.2595 3.5405 -1.3384 4.2054 -3.0924 0.6346 -1.6743 0.2555 -3.5175 -0.6973 -5.0614l-1.4233 -2.3062c-0.454 -0.7356 -0.8355 -1.5102 -1.1409 -2.3127 -0.3929 -1.0324 -1.5482 -1.5508 -2.5806 -1.1579 -1.0323 0.3929 -1.5507 1.5482 -1.1578 2.5806 0.3949 1.0378 0.8883 2.0395 1.4754 2.9907l1.4232 2.3062c0.4916 0.7966 0.4407 1.3325 0.361 1.5429 -0.0495 0.1306 -0.2164 0.4419 -0.9925 0.5451 -2.9968 0.3986 -8.1062 0.7689 -16.7053 0.7689 -8.599 0 -13.70842 -0.3702 -16.70527 -0.7689 -0.77604 -0.1032 -0.94295 -0.4145 -0.99245 -0.5451 -0.07975 -0.2104 -0.13062 -0.7463 0.36097 -1.5429l1.42324 -2.3061c1.46135 -2.368 2.34196 -5.048 2.56991 -7.8212l0.5268 -6.4091C11.2326 9.63516 16.8071 4.5 23.5011 4.5c0.7377 0 1.4605 0.0622 2.1637 0.18144 1.089 0.18469 2.1215 -0.54841 2.3062 -1.63743 0.1847 -1.08901 -0.5484 -2.121562 -1.6374 -2.306255C25.4106 0.58122 24.4641 0.5 23.5011 0.5Zm8.7481 5c-1.1046 0 -2 0.89543 -2 2s0.8954 2 2 2h6.7299l-7.2664 8.7196c-0.4968 0.5962 -0.6039 1.4259 -0.2747 2.1287 0.3291 0.7028 1.0351 1.1517 1.8112 1.1517h11c1.1045 0 2 -0.8954 2 -2s-0.8955 -2 -2 -2h-6.7299l7.2663 -8.71963c0.4968 -0.59617 0.6039 -1.42591 0.2747 -2.12868C44.7312 5.94892 44.0252 5.5 43.2492 5.5h-11Zm-11.25 9c-1.1046 0 -2 0.8954 -2 2s0.8954 2 2 2h3.0632l-3.933 4.7196c-0.4968 0.5962 -0.6039 1.4259 -0.2747 2.1287 0.3291 0.7028 1.0351 1.1517 1.8111 1.1517h7.3334c1.1045 0 2 -0.8954 2 -2s-0.8955 -2 -2 -2h-3.0633l3.933 -4.7196c0.4968 -0.5962 0.6039 -1.4259 0.2748 -2.1287 -0.3292 -0.7028 -1.0352 -1.1517 -1.8112 -1.1517h-7.3333Z" clip-rule="evenodd" stroke-width="1"></path>
  </g>
</svg>