<svg xmlns="http://www.w3.org/2000/svg" fill="none" viewBox="0 0 48 48" id="Signal-Full--Streamline-Plump">
  <desc>
    Signal Full Streamline Icon: https://streamlinehq.com
  </desc>
  <g id="signal-full--phone-mobile-device-signal-wireless-smartphone-iphone-bar-bars-full-android">
    <path id="Rectangle 1095" fill="#ff7972" d="M35.6788 42.4501c0.0317 1.2786 0.6884 2.449 1.9056 2.7374 0.7327 0.1736 1.6968 0.3105 2.9156 0.3105 1.2187 0 2.1829 -0.1369 2.9156 -0.3105 1.2172 -0.2884 1.8739 -1.4588 1.9056 -2.7374 0.0705 -2.844 0.1788 -8.785 0.1788 -18.4511s-0.1083 -15.60713 -0.1788 -18.45109c-0.0317 -1.27861 -0.6884 -2.44899 -1.9056 -2.73741C42.6829 2.63686 41.7188 2.5 40.5 2.5c-1.2187 0 -2.1829 0.13686 -2.9156 0.3105 -1.2172 0.28842 -1.8739 1.4588 -1.9056 2.73741C35.6083 8.39187 35.5 14.3329 35.5 23.999s0.1083 15.6071 0.1788 18.4511Z" stroke-width="1"></path>
    <path id="Rectangle 1096" fill="#ff7972" d="M19.1553 42.3857c0.0414 1.4461 0.8715 2.7149 2.2588 2.9294 0.6849 0.1058 1.542 0.1829 2.5859 0.1829s1.901 -0.0771 2.5859 -0.1829c1.3873 -0.2145 2.2174 -1.4833 2.2588 -2.9294 0.0687 -2.4064 0.1553 -6.7544 0.1553 -13.3887 0 -6.6342 -0.0866 -10.9822 -0.1553 -13.3886 -0.0414 -1.4461 -0.8715 -2.715 -2.2588 -2.9294 -0.6849 -0.1058 -1.542 -0.1829 -2.5859 -0.1829s-1.901 0.0771 -2.5859 0.1829c-1.3873 0.2144 -2.2174 1.4833 -2.2588 2.9294C19.0866 18.0148 19 22.3628 19 28.997c0 6.6343 0.0866 10.9823 0.1553 13.3887Z" stroke-width="1"></path>
    <path id="Rectangle 1097" fill="#ff7972" d="M2.59322 42.2207c0.05884 1.713 1.18642 3.1037 2.81388 3.214 0.59048 0.04 1.28586 0.0664 2.0929 0.0664 0.80703 0 1.50241 -0.0264 2.0929 -0.0664 1.6275 -0.1103 2.755 -1.501 2.8139 -3.214 0.0498 -1.4489 0.0932 -3.4852 0.0932 -6.1791s-0.0434 -4.7302 -0.0932 -6.1792c-0.0589 -1.713 -1.1864 -3.1036 -2.8139 -3.2139 -0.59048 -0.0401 -1.28587 -0.0665 -2.0929 -0.0665 -0.80703 0 -1.50242 0.0264 -2.0929 0.0665 -1.62746 0.1103 -2.75504 1.5009 -2.81388 3.2139C2.54345 31.3114 2.5 33.3477 2.5 36.0416c0 2.6939 0.04345 4.7302 0.09322 6.1791Z" stroke-width="1"></path>
    <path id="Union" fill="#0c098c" fill-rule="evenodd" d="M37.1232 0.864391C38.0111 0.653999 39.1301 0.5 40.5 0.5s2.4889 0.153999 3.3768 0.364392c2.4101 0.571098 3.3985 2.809178 3.4438 4.633948 0.0709 2.8621 0.1794 8.81976 0.1794 18.50066s-0.1085 15.6385 -0.1794 18.5006c-0.0453 1.8248 -1.0337 4.0629 -3.4438 4.634 -0.8879 0.2104 -2.0069 0.3644 -3.3768 0.3644s-2.4889 -0.154 -3.3768 -0.3644c-2.4101 -0.5711 -3.3985 -2.8092 -3.4438 -4.634 -0.0709 -2.8621 -0.1794 -8.8197 -0.1794 -18.5006s0.1085 -15.63856 0.1794 -18.50067c0.0453 -1.82476 1.0337 -4.06284 3.4438 -4.633939ZM40.5 4.5c-1.0676 0 -1.8768 0.11972 -2.4545 0.2566 -0.0591 0.01402 -0.1153 0.04025 -0.1859 0.14793 -0.0851 0.12976 -0.1733 0.36586 -0.1814 0.69296C37.6081 8.4233 37.5 14.3477 37.5 23.999c0 9.6513 0.1081 15.5757 0.1782 18.4015 0.0081 0.3271 0.0963 0.5632 0.1814 0.693 0.0706 0.1076 0.1268 0.1339 0.1859 0.1479 0.5777 0.1369 1.3869 0.2566 2.4545 0.2566 1.0676 0 1.8768 -0.1197 2.4545 -0.2566 0.0591 -0.014 0.1153 -0.0403 0.1859 -0.1479 0.0851 -0.1298 0.1733 -0.3659 0.1814 -0.693 0.0701 -2.8258 0.1782 -8.7502 0.1782 -18.4015 0 -9.6513 -0.1081 -15.5757 -0.1782 -18.40151 -0.0081 -0.3271 -0.0963 -0.5632 -0.1814 -0.69296 -0.0706 -0.10768 -0.1268 -0.13391 -0.1859 -0.14792C42.3768 4.61972 41.5676 4.5 40.5 4.5Zm-19.3914 6.2025c0.7894 -0.122 1.7487 -0.2064 2.8914 -0.2064s2.102 0.0844 2.8914 0.2064c2.6286 0.4063 3.8928 2.7616 3.9524 4.8488 0.0694 2.4271 0.1562 6.7942 0.1562 13.4457 0 6.6516 -0.0868 11.0187 -0.1562 13.4458 -0.0596 2.0872 -1.3238 4.4425 -3.9524 4.8488 -0.7894 0.122 -1.7487 0.2064 -2.8914 0.2064s-2.102 -0.0844 -2.8914 -0.2064c-2.6286 -0.4063 -3.8928 -2.7616 -3.9524 -4.8488C17.0868 40.0157 17 35.6486 17 28.997c0 -6.6515 0.0868 -11.0186 0.1562 -13.4457 0.0596 -2.0872 1.3238 -4.4425 3.9524 -4.8488ZM24 14.4961c-0.9452 0 -1.7 0.0697 -2.2804 0.1594 -0.1274 0.0197 -0.2288 0.0759 -0.3287 0.2116 -0.1149 0.1562 -0.2258 0.4284 -0.2364 0.7984C21.0864 18.0512 21 22.3801 21 28.997c0 6.617 0.0864 10.9459 0.1545 13.3316 0.0106 0.37 0.1215 0.6422 0.2364 0.7984 0.0999 0.1357 0.2013 0.1919 0.3287 0.2115 0.5804 0.0897 1.3353 0.1595 2.2804 0.1595 0.9451 0 1.7 -0.0698 2.2804 -0.1595 0.1274 -0.0196 0.2288 -0.0758 0.3287 -0.2115 0.1149 -0.1562 0.2258 -0.4284 0.2364 -0.7984C26.9136 39.9429 27 35.614 27 28.997c0 -6.6169 -0.0864 -10.9458 -0.1545 -13.3315 -0.0106 -0.37 -0.1215 -0.6422 -0.2364 -0.7984 -0.0999 -0.1357 -0.2013 -0.1919 -0.3287 -0.2115l0.3055 -1.9766 -0.3055 1.9765c-0.5804 -0.0897 -1.3352 -0.1594 -2.2804 -0.1594ZM7.5 24.582c-0.85066 0 -1.59118 0.0279 -2.22815 0.071 -2.86121 0.194 -4.591138 2.6281 -4.677451 5.1408C0.543791 31.267 0.5 33.3263 0.5 36.0416c0 2.7153 0.04379 4.7745 0.094398 6.2478 0.086313 2.5126 1.816242 4.9468 4.677452 5.1407 0.63697 0.0432 1.37749 0.071 2.22815 0.071 0.85065 0 1.59117 -0.0278 2.22815 -0.071 2.86125 -0.1939 4.59115 -2.628 4.67745 -5.1407 0.0506 -1.4733 0.0944 -3.5325 0.0944 -6.2478 0 -2.7153 -0.0438 -4.7746 -0.0944 -6.2478 -0.0863 -2.5127 -1.8162 -4.9468 -4.67745 -5.1408 -0.63697 -0.0431 -1.37749 -0.071 -2.22815 -0.071Zm-1.95766 4.0619c0.544 -0.0369 1.19425 -0.0619 1.95766 -0.0619 0.76341 0 1.41366 0.025 1.95766 0.0619 0.24917 0.0169 0.4486 0.1213 0.61104 0.3111 0.1736 0.2028 0.3241 0.534 0.3393 0.9761 0.0489 1.4247 0.092 3.4381 0.092 6.1105s-0.0431 4.6858 -0.092 6.1105c-0.0152 0.4421 -0.1657 0.7732 -0.3393 0.9761 -0.16245 0.1897 -0.36187 0.2942 -0.61105 0.3111 -0.54399 0.0369 -1.19424 0.0618 -1.95765 0.0618 -0.76341 0 -1.41366 -0.0249 -1.95765 -0.0618 -0.24918 -0.0169 -0.44861 -0.1214 -0.61103 -0.3111 -0.17363 -0.2029 -0.32409 -0.534 -0.33928 -0.9761C4.5431 40.7274 4.5 38.714 4.5 36.0416s0.0431 -4.6858 0.09204 -6.1105c0.01519 -0.4421 0.16565 -0.7733 0.33928 -0.9761 0.16242 -0.1898 0.36185 -0.2942 0.61102 -0.3111Z" clip-rule="evenodd" stroke-width="1"></path>
  </g>
</svg>