<svg xmlns="http://www.w3.org/2000/svg" fill="none" viewBox="0 0 48 48" id="Hook--Streamline-Kameleon">
  <desc>
    Hook Streamline Icon: https://streamlinehq.com
  </desc>
  <path fill="#deeeff" d="M23.9999 47.9978c13.2548 0 23.9998 -10.7451 23.9998 -23.9999S37.2547 -0.00195312 23.9999 -0.00195312C10.7451 -0.00195312 0 10.7431 0 23.9979c0 13.2548 10.7451 23.9999 23.9999 23.9999Z" stroke-width="1"></path>
  <path fill="#2e3ecd" d="M13.5273 10.0347v8.7272l5.2364 6.9818h10.4727l5.2363 -6.9818v-8.7272H13.5273Z" stroke-width="1"></path>
  <path fill="#2e3ecd" d="M27.9273 31.4163c-0.7231 0 -1.3091 0.5861 -1.3091 1.3091 0 1.444 -1.1743 2.6182 -2.6182 2.6182s-2.6182 -1.1742 -2.6182 -2.6182c0 -1.4439 1.1743 -2.6181 2.6182 -2.6181 0.7231 0 1.3091 -0.5861 1.3091 -1.3091v-3.0545h-2.6182v1.9108c-2.256 0.583 -3.9272 2.6352 -3.9272 5.0709 0 2.8874 2.3489 5.2364 5.2363 5.2364s5.2363 -2.349 5.2363 -5.2364c0 -0.723 -0.586 -1.3091 -1.309 -1.3091Z" stroke-width="1"></path>
  <path fill="#6bafff" d="m19.094 10.0347 -5.5667 5.5666v3.1606l0.2326 0.3098 9.0371 -9.037h-3.703Z" stroke-width="1"></path>
  <path fill="#6bafff" d="m15.7256 21.6938 1.5866 2.1155 13.7751 -13.7746h-3.703L15.7256 21.6938Z" stroke-width="1"></path>
  <path fill="#6bafff" d="m23.6698 25.7438 10.803 -10.803v-3.703l-14.506 14.506h3.703Z" stroke-width="1"></path>
</svg>