<svg xmlns="http://www.w3.org/2000/svg" fill="none" viewBox="0 0 24 24" id="Aircraft-Hot-Air-Balloon-2--Streamline-Ultimate">
  <desc>
    Aircraft Hot Air Balloon 2 Streamline Icon: https://streamlinehq.com
  </desc>
  <path fill="#ff808c" d="M21.5637 9.13284c0 5.73816 -6.1628 7.65086 -9.5636 7.65086 -3.40084 0 -9.56358 -1.9127 -9.56358 -7.65086 0 -5.73814 3.92965 -8.12903 9.56358 -8.12903 5.6339 0 9.5636 2.39089 9.5636 8.12903Z" stroke-width="1"></path>
  <path fill="#ffbfc5" d="M12.0002 5.24622c4.7981 0 8.3605 1.73481 9.3111 5.79548 0.1711 -0.6231 0.256 -1.26655 0.2525 -1.91267C21.5638 3.39089 17.6341 1 12.0002 1 6.36628 1 2.43663 3.39089 2.43663 9.12903c-0.00361 0.64603 0.08139 1.28957 0.25246 1.91267 0.9506 -4.06067 4.51303 -5.79548 9.31111 -5.79548Z" stroke-width="1"></path>
  <path fill="#ffef5e" d="M17.1796 8.81343c0 4.39927 -2.3201 7.97027 -5.1806 7.97027s-5.18064 -3.5682 -5.18064 -7.97027S9.1385 1.00381 11.999 1.00381c2.8605 0 5.1806 3.40843 5.1806 7.80962Z" stroke-width="1"></path>
  <path fill="#fff9bf" d="M11.9991 5.24622c1.6505 -0.03523 3.2936 0.22914 4.8497 0.78041 -0.7374 -2.97241 -2.6309 -5.02282 -4.8497 -5.02282 -2.21873 0 -4.11232 2.05041 -4.84969 5.02282 1.55613 -0.55127 3.19919 -0.81564 4.84969 -0.78041Z" stroke-width="1"></path>
  <path stroke="#191919" stroke-linecap="round" stroke-linejoin="round" d="M21.5637 9.13284c0 5.73816 -6.1628 7.65086 -9.5636 7.65086 -3.40084 0 -9.56358 -1.9127 -9.56358 -7.65086 0 -5.73814 3.92965 -8.12903 9.56358 -8.12903 5.6339 0 9.5636 2.39089 9.5636 8.12903Z" stroke-width="1"></path>
  <path fill="#c77f67" stroke="#191919" stroke-linecap="round" stroke-linejoin="round" d="M14.3912 20.1309H9.60938V23h4.78182v-2.8691Z" stroke-width="1"></path>
  <path stroke="#191919" stroke-linecap="round" stroke-linejoin="round" d="m17.0426 15.6494 -2.652 4.4815" stroke-width="1"></path>
  <path stroke="#191919" stroke-linecap="round" stroke-linejoin="round" d="m6.95801 15.6494 2.65096 4.4815" stroke-width="1"></path>
  <path stroke="#191919" stroke-linecap="round" stroke-linejoin="round" d="M8.1748 20.1309h7.6509" stroke-width="1"></path>
  <path stroke="#191919" stroke-linecap="round" stroke-linejoin="round" d="M17.1796 8.81343c0 4.39927 -2.3201 7.97027 -5.1806 7.97027s-5.18064 -3.5682 -5.18064 -7.97027S9.1385 1.00381 11.999 1.00381c2.8605 0 5.1806 3.40843 5.1806 7.80962Z" stroke-width="1"></path>
</svg>