<svg xmlns="http://www.w3.org/2000/svg" fill="none" viewBox="0 0 24 24" id="Car-Retro--Streamline-Ultimate">
  <desc>
    Car Retro Streamline Icon: https://streamlinehq.com
  </desc>
  <path fill="#ff808c" d="M17.9355 11.5182c-1.8626 -0.855 -3.8878 -1.2977 -5.9371 -1.2977 -2.04941 0 -4.07462 0.4427 -5.93712 1.2977 -0.10994 0.0482 -0.21989 0.0965 -0.32983 0.1485 0.12012 0.0719 0.23229 0.1563 0.33466 0.2518 1.72924 1.5826 3.52117 7.3152 3.52117 7.3152h4.82222s1.7919 -5.7326 3.5211 -7.3152c0.1024 -0.0955 0.2146 -0.1799 0.3347 -0.2518 -0.1099 -0.052 -0.2199 -0.1003 -0.3298 -0.1485Z" stroke-width="1"></path>
  <path fill="#ffbfc5" d="M7.20607 13.477c3.09533 -1.1274 6.48923 -1.1274 9.58463 0 0.3009 -0.573 0.685 -1.0982 1.1399 -1.5585 0.1024 -0.0955 0.2146 -0.1799 0.3347 -0.2518 -0.1099 -0.0511 -0.2199 -0.0964 -0.3298 -0.1485 -1.8626 -0.855 -3.8878 -1.2977 -5.9371 -1.2977 -2.04941 0 -4.07462 0.4427 -5.93712 1.2977 -0.10994 0.0482 -0.21989 0.0965 -0.32983 0.1485 0.12012 0.0719 0.23229 0.1563 0.33466 0.2518 0.45493 0.4603 0.8391 0.9855 1.13996 1.5585Z" stroke-width="1"></path>
  <path fill="#66e1ff" d="M6.16736 8.11663c0.14427 -1.44653 0.82097 -2.78783 1.8987 -3.76342s2.47954 -1.51584 3.93324 -1.51584 2.8555 0.54025 3.9333 1.51584c1.0778 0.97559 1.7544 2.31689 1.8987 3.76342l0.4369 3.55007c-1.9527 -0.952 -4.0965 -1.4466 -6.2689 -1.4466 -2.17233 0 -4.31616 0.4946 -6.26883 1.4466l0.43689 -3.55007Z" stroke-width="1"></path>
  <path fill="#c2f3ff" d="M15.019 3.67634c-0.8466 -0.50904 -1.8081 -0.79583 -2.7952 -0.83374 -0.9872 -0.0379 -1.9679 0.17432 -2.85105 0.61695 -0.88314 0.44263 -1.64007 1.10131 -2.20047 1.91482 -0.5604 0.81353 -0.90607 1.7555 -1.00492 2.7384l-0.43689 3.55393c0.68308 -0.3166 1.3868 -0.5866 2.10634 -0.8082L15.019 3.67634Z" stroke-width="1"></path>
  <path fill="#ff808c" d="M5.24824 11.5182c1.92889 0 4.33999 7.7156 4.33999 7.7156H3.16698c-0.42555 0.0001 -0.83922 -0.1404 -1.17659 -0.3998 -0.33736 -0.2593 -0.57948 -0.623 -0.68863 -1.0344 -0.592166 -2.2442 -0.770587 -6.2814 3.94648 -6.2814Z" stroke-width="1"></path>
  <path fill="#ffbfc5" d="M5.73039 13.0141c1.00977 0 2.13913 1.9019 3.05052 3.9156 -0.87667 -2.2741 -2.30308 -5.4115 -3.53274 -5.4115 -3.9542 0 -4.467282 2.8345 -4.18277 5.073 0.27004 -1.8845 1.43894 -3.5771 4.66499 -3.5771Z" stroke-width="1"></path>
  <path stroke="#191919" stroke-linecap="round" stroke-linejoin="round" d="M5.24824 11.5182c1.92889 0 4.33999 7.7156 4.33999 7.7156H3.16698c-0.42555 0.0001 -0.83922 -0.1404 -1.17659 -0.3998 -0.33736 -0.2593 -0.57948 -0.623 -0.68863 -1.0344 -0.592166 -2.2442 -0.770587 -6.2814 3.94648 -6.2814Z" stroke-width="1"></path>
  <path fill="#ff808c" d="M18.7501 11.5182c-1.9288 0 -4.3399 7.7156 -4.3399 7.7156h6.4212c0.4255 0.0001 0.8393 -0.1404 1.1766 -0.3998 0.3374 -0.2593 0.5795 -0.623 0.6886 -1.0344 0.5922 -2.2442 0.7706 -6.2814 -3.9465 -6.2814Z" stroke-width="1"></path>
  <path fill="#ffbfc5" d="M18.2732 13.0141c3.2212 0 4.3901 1.6926 4.6602 3.5771 0.2893 -2.2385 -0.2305 -5.073 -4.1828 -5.073 -1.2297 0 -2.6561 3.1374 -3.5279 5.4105 0.9123 -2.0127 2.0407 -3.9146 3.0505 -3.9146Z" stroke-width="1"></path>
  <path stroke="#191919" stroke-linecap="round" stroke-linejoin="round" d="M18.7501 11.5182c-1.9288 0 -4.3399 7.7156 -4.3399 7.7156h6.4212c0.4255 0.0001 0.8393 -0.1404 1.1766 -0.3998 0.3374 -0.2593 0.5795 -0.623 0.6886 -1.0344 0.5922 -2.2442 0.7706 -6.2814 -3.9465 -6.2814Z" stroke-width="1"></path>
  <path stroke="#191919" stroke-linecap="round" stroke-linejoin="round" d="M6.16736 8.11663c0.14427 -1.44653 0.82097 -2.78783 1.8987 -3.76342s2.47954 -1.51584 3.93324 -1.51584 2.8555 0.54025 3.9333 1.51584c1.0778 0.97559 1.7544 2.31689 1.8987 3.76342l0.4369 3.55007c-1.9527 -0.952 -4.0965 -1.4466 -6.2689 -1.4466 -2.17233 0 -4.31616 0.4946 -6.26883 1.4466l0.43689 -3.55007Z" stroke-width="1"></path>
  <path stroke="#191919" stroke-linecap="round" stroke-linejoin="round" d="M9.58789 19.2337h4.82221" stroke-width="1"></path>
  <path fill="#808080" stroke="#191919" stroke-linecap="round" stroke-linejoin="round" d="M6.69467 19.2337v1.4467c0 0.1279 -0.0508 0.2506 -0.14124 0.341 -0.09042 0.0904 -0.21308 0.1412 -0.34098 0.1412H3.31913c-0.12789 0 -0.25055 -0.0508 -0.34097 -0.1412 -0.09044 -0.0904 -0.14125 -0.2131 -0.14125 -0.341v-1.4756l3.85776 0.0289Z" stroke-width="1"></path>
  <path fill="#808080" stroke="#191919" stroke-linecap="round" stroke-linejoin="round" d="M17.3037 19.2337v1.4467c0 0.1279 0.0508 0.2506 0.1412 0.341 0.0905 0.0904 0.2131 0.1412 0.341 0.1412h2.8934c0.1278 0 0.2505 -0.0508 0.341 -0.1412 0.0903 -0.0904 0.1412 -0.2131 0.1412 -0.341v-1.4756l-3.8578 0.0289Z" stroke-width="1"></path>
  <path fill="#ffef5e" stroke="#191919" stroke-linecap="round" stroke-linejoin="round" d="M19.7142 17.0966c0.799 0 1.4467 -0.6478 1.4467 -1.4467 0 -0.799 -0.6477 -1.4467 -1.4467 -1.4467 -0.7989 0 -1.4466 0.6477 -1.4466 1.4467 0 0.7989 0.6477 1.4467 1.4466 1.4467Z" stroke-width="1"></path>
  <path fill="#ffef5e" stroke="#191919" stroke-linecap="round" stroke-linejoin="round" d="M4.28357 17.0966c0.79898 0 1.44666 -0.6478 1.44666 -1.4467 0 -0.799 -0.64768 -1.4467 -1.44666 -1.4467 -0.79897 0 -1.44666 0.6477 -1.44666 1.4467 0 0.7989 0.64769 1.4467 1.44666 1.4467Z" stroke-width="1"></path>
</svg>