<svg xmlns="http://www.w3.org/2000/svg" fill="none" viewBox="0 0 24 24" id="Car-Dashboard-Window-Rear--Streamline-Ultimate">
  <desc>
    Car Dashboard Window Rear Streamline Icon: https://streamlinehq.com
  </desc>
  <path fill="#66e1ff" d="M3.86957 17.8423c5.36735 -3.8261 10.78763 -3.8261 16.26083 0L23 5.40747c-3.3609 -1.88135 -7.1483 -2.86924 -11 -2.86924s-7.63903 0.98789 -11 2.86924L3.86957 17.8423Z" stroke-width="1"></path>
  <path fill="#c2f3ff" d="M12 2.53854C8.15355 2.57891 4.37601 3.56435 1 5.4081l2.86957 12.4348C6.20519 16.0453 9.0535 15.0401 12 14.9733V2.53854Z" stroke-width="1"></path>
  <path stroke="#191919" stroke-linecap="round" stroke-linejoin="round" d="M3.86957 17.8423c5.36735 -3.8261 10.78763 -3.8261 16.26083 0L23 5.40747c-3.3609 -1.88135 -7.1483 -2.86924 -11 -2.86924s-7.63903 0.98789 -11 2.86924L3.86957 17.8423Z" stroke-width="1"></path>
  <path stroke="#191919" stroke-linecap="round" stroke-linejoin="round" d="m4.82617 12.8531 2.86957 -2.8696 2.86956 2.8696" stroke-width="1"></path>
  <path stroke="#191919" stroke-linecap="round" stroke-linejoin="round" d="M7.69531 9.9835v11.4783" stroke-width="1"></path>
  <path stroke="#191919" stroke-linecap="round" stroke-linejoin="round" d="m13.4346 12.8531 2.8695 -2.8696 2.8696 2.8696" stroke-width="1"></path>
  <path stroke="#191919" stroke-linecap="round" stroke-linejoin="round" d="M16.3047 9.9835v11.4783" stroke-width="1"></path>
</svg>