<svg xmlns="http://www.w3.org/2000/svg" fill="none" viewBox="0 0 24 24" id="Scooter-3--Streamline-Ultimate">
  <desc>
    Scooter 3 Streamline Icon: https://streamlinehq.com
  </desc>
  <path fill="#66e1ff" d="M7.69629 6.79537V5.30518c0 -1.14152 0.45347 -2.23631 1.26065 -3.04349 0.80718 -0.80718 1.90196 -1.26065 3.04346 -1.26065 1.1416 0 2.2364 0.45347 3.0435 1.26065 0.8072 0.80718 1.2607 1.90197 1.2607 3.04349v1.48924l-8.60831 0.00095Z" stroke-width="1"></path>
  <path fill="#c2f3ff" d="M14.2415 1.62944c-0.6526 -0.398 -1.3995 -0.61501 -2.1638 -0.62875 -0.7642 -0.013727 -1.5184 0.17632 -2.18484 0.55062 -0.66649 0.37429 -1.22127 0.91932 -1.60731 1.57907 -0.38606 0.65975 -0.58944 1.4104 -0.58926 2.1748v1.49019h1.38019l5.16502 -5.16593Z" stroke-width="1"></path>
  <path fill="#ff808c" d="M10.5657 20.1306h-0.4782c-0.40612 0 -0.79995 -0.1393 -1.11573 -0.3947 -0.31578 -0.2554 -0.53439 -0.6114 -0.61933 -1.0085L6.27975 9.05362c-0.05974 -0.27886 -0.05638 -0.56754 0.00983 -0.84493 0.06621 -0.27738 0.19362 -0.53646 0.37287 -0.75826s0.40583 -0.40072 0.66315 -0.52366c0.25733 -0.12293 0.53888 -0.18679 0.82406 -0.18687h7.70154c0.2852 0.00008 0.5667 0.06394 0.8241 0.18687 0.2573 0.12294 0.4839 0.30186 0.6631 0.52366 0.1793 0.2218 0.3067 0.48088 0.3729 0.75826 0.0663 0.27739 0.0696 0.56607 0.0098 0.84493l-2.0727 9.67378c-0.0849 0.3971 -0.3035 0.7531 -0.6193 1.0085 -0.3158 0.2554 -0.7096 0.3947 -1.1157 0.3947h-3.3477Z" stroke-width="1"></path>
  <path fill="#ffbfc5" d="M12.0004 6.7399H8.14966c-0.28518 0.00008 -0.56673 0.06394 -0.82406 0.18687 -0.25732 0.12294 -0.4839 0.30186 -0.66315 0.52366 -0.17925 0.2218 -0.30666 0.48088 -0.37287 0.75826 -0.06621 0.27739 -0.06957 0.56607 -0.00983 0.84493l2.07269 9.67378c0.08494 0.3971 0.30355 0.7531 0.61933 1.0085 0.31578 0.2554 0.70961 0.3947 1.11573 0.3947h1.9129V6.7399Z" stroke-width="1"></path>
  <path fill="#ffef5e" d="M12.8656 10.9111 12 14.2004c0.1789 -0.0012 0.3539 -0.0526 0.505 -0.1482l4.7948 -3.0321 0.4209 -1.96552c0.0567 -0.26112 0.0578 -0.53127 0.003 -0.79283 -0.0547 -0.26155 -0.1639 -0.50863 -0.3206 -0.7251L13.252 10.3659c-0.1901 0.1294 -0.3273 0.3229 -0.3864 0.5452Z" stroke-width="1"></path>
  <path fill="#ffef5e" d="m11.9995 14.2004 -0.8609 -3.2884c-0.0578 -0.222 -0.1937 -0.4158 -0.3826 -0.5461L6.59728 7.53568c-0.15706 0.21629 -0.26662 0.46333 -0.3215 0.72493 -0.0549 0.26159 -0.05387 0.53183 0.00299 0.793l0.43902 2.05259 4.77281 2.9507c0.153 0.0943 0.3292 0.144 0.5089 0.1435Z" stroke-width="1"></path>
  <path stroke="#191919" stroke-linecap="round" stroke-linejoin="round" d="M10.5657 20.1306h-0.4782c-0.40612 0 -0.79995 -0.1393 -1.11573 -0.3947 -0.31578 -0.2554 -0.53439 -0.6114 -0.61933 -1.0085L6.27975 9.05362c-0.05974 -0.27886 -0.05638 -0.56754 0.00983 -0.84493 0.06621 -0.27738 0.19362 -0.53646 0.37287 -0.75826s0.40583 -0.40072 0.66315 -0.52366c0.25733 -0.12293 0.53888 -0.18679 0.82406 -0.18687h7.70154c0.2852 0.00008 0.5667 0.06394 0.8241 0.18687 0.2573 0.12294 0.4839 0.30186 0.6631 0.52366 0.1793 0.2218 0.3067 0.48088 0.3729 0.75826 0.0663 0.27739 0.0696 0.56607 0.0098 0.84493l-2.0727 9.67378c-0.0849 0.3971 -0.3035 0.7531 -0.6193 1.0085 -0.3158 0.2554 -0.7096 0.3947 -1.1157 0.3947h-0.4782" stroke-width="1"></path>
  <path fill="#808080" d="M13.4349 17.7394c0 -0.3805 -0.1512 -0.7455 -0.4202 -1.0146 -0.2691 -0.269 -0.6341 -0.4201 -1.0146 -0.4201 -0.3804 0 -0.7454 0.1511 -1.0145 0.4201 -0.269 0.2691 -0.4202 0.6341 -0.4202 1.0146v3.8259c0 0.3805 0.1512 0.7455 0.4202 1.0145 0.2691 0.2691 0.6341 0.4202 1.0145 0.4202 0.3805 0 0.7455 -0.1511 1.0146 -0.4202 0.269 -0.269 0.4202 -0.634 0.4202 -1.0145v-3.8259Z" stroke-width="1"></path>
  <path fill="#b2b2b2" d="M12.0001 16.3047c-0.3804 0 -0.7454 0.1511 -1.0145 0.4201 -0.269 0.2691 -0.4202 0.6341 -0.4202 1.0146v1.9129c0 -0.3805 0.1512 -0.7454 0.4202 -1.0145 0.2691 -0.2691 0.6341 -0.4202 1.0145 -0.4202 0.3805 0 0.7455 0.1511 1.0146 0.4202 0.269 0.2691 0.4202 0.634 0.4202 1.0145v-1.9129c0 -0.3805 -0.1512 -0.7455 -0.4202 -1.0146 -0.2691 -0.269 -0.6341 -0.4201 -1.0146 -0.4201Z" stroke-width="1"></path>
  <path stroke="#191919" stroke-linecap="round" stroke-linejoin="round" d="m6.71875 11.1062 4.77285 2.9507c0.1525 0.0942 0.3284 0.1436 0.5078 0.1426 0.1792 -0.0011 0.3545 -0.0525 0.506 -0.1483l4.7556 -3.0072" stroke-width="1"></path>
  <path stroke="#191919" stroke-linecap="round" stroke-linejoin="round" d="m17.403 7.53568 -4.1511 2.82922c-0.1889 0.1303 -0.3248 0.3241 -0.3826 0.5462l-0.8695 3.2893 -0.8608 -3.2884c-0.0579 -0.222 -0.1937 -0.4158 -0.3826 -0.5461L6.59766 7.53568" stroke-width="1"></path>
  <path stroke="#191919" stroke-linecap="round" stroke-linejoin="round" d="M7.69629 6.79537V5.30518c0 -1.14152 0.45347 -2.23631 1.26065 -3.04349 0.80718 -0.80718 1.90196 -1.26065 3.04346 -1.26065 1.1416 0 2.2364 0.45347 3.0435 1.26065 0.8072 0.80718 1.2607 1.90197 1.2607 3.04349v1.48924" stroke-width="1"></path>
  <path stroke="#191919" stroke-linecap="round" stroke-linejoin="round" d="M17.5059 7.69637h3.5504" stroke-width="1"></path>
  <path stroke="#191919" stroke-linecap="round" stroke-linejoin="round" d="M6.4938 7.69637H2.94336" stroke-width="1"></path>
  <path stroke="#191919" stroke-linecap="round" stroke-linejoin="round" d="M13.4349 17.7394c0 -0.3805 -0.1512 -0.7455 -0.4202 -1.0146 -0.2691 -0.269 -0.6341 -0.4201 -1.0146 -0.4201 -0.3804 0 -0.7454 0.1511 -1.0145 0.4201 -0.269 0.2691 -0.4202 0.6341 -0.4202 1.0146v3.8259c0 0.3805 0.1512 0.7455 0.4202 1.0145 0.2691 0.2691 0.6341 0.4202 1.0145 0.4202 0.3805 0 0.7455 -0.1511 1.0146 -0.4202 0.269 -0.269 0.4202 -0.634 0.4202 -1.0145v-3.8259Z" stroke-width="1"></path>
</svg>