<svg xmlns="http://www.w3.org/2000/svg" fill="none" viewBox="0 0 24 24" id="Truck-2--Streamline-Ultimate">
  <desc>
    Truck 2 Streamline Icon: https://streamlinehq.com
  </desc>
  <path fill="#ffef5e" d="M22.0435 18.2174c0.2537 0 0.497 -0.1008 0.6763 -0.2802 0.1794 -0.1794 0.2802 -0.4227 0.2802 -0.6763v-4.7826c0 -0.6294 -0.1463 -1.2493 -0.4276 -1.8117l-1.9637 -3.92748c-0.2874 -0.57484 -0.7292 -1.05828 -1.2759 -1.39617 -0.5467 -0.33789 -1.1767 -0.51686 -1.8194 -0.51687H2.91304c-0.50737 0 -0.99396 0.20155 -1.35272 0.56032C1.20155 5.74516 1 6.23175 1 6.73912V17.2609c0 0.2536 0.10078 0.4969 0.28016 0.6763 0.17938 0.1794 0.42268 0.2802 0.67636 0.2802H22.0435Z" stroke-width="1"></path>
  <path fill="#fff9bf" d="M20.6087 6.73912c-0.2874 -0.57484 -0.7292 -1.05828 -1.2759 -1.39617 -0.5467 -0.33789 -1.1767 -0.51686 -1.8194 -0.51687H2.91304c-0.50737 0 -0.99396 0.20155 -1.35272 0.56032C1.20155 5.74516 1 6.23175 1 6.73912h19.6087Z" stroke-width="1"></path>
  <path fill="#ffbc44" d="M20.6135 13.738 23 15.8261v-3.3478c0 -0.6294 -0.1463 -1.2493 -0.4276 -1.8117l-1.9637 -3.92748H1v5.73918h16.2609c1.2332 -0.0003 2.4246 0.4474 3.3526 1.2597Z" stroke-width="1"></path>
  <path fill="#66e1ff" d="M7.69578 10.5652H22.5219l-1.9131 -3.82608H6.73926v2.86957c0 0.25368 0.10077 0.49701 0.28016 0.67631 0.17938 0.1794 0.42267 0.2802 0.67636 0.2802Z" stroke-width="1"></path>
  <path fill="#c2f3ff" d="M16.7827 6.73912H6.73926v2.86957c0 0.25368 0.10077 0.49701 0.28016 0.67631 0.17938 0.1794 0.42267 0.2802 0.67636 0.2802h5.26082l3.8261 -3.82608Z" stroke-width="1"></path>
  <path stroke="#191919" stroke-linecap="round" stroke-linejoin="round" d="M6.47754 18.2174h9.13286" stroke-width="1"></path>
  <path stroke="#191919" stroke-linecap="round" stroke-linejoin="round" d="M18.9109 18.2174h3.1326c0.2537 0 0.497 -0.1008 0.6763 -0.2802 0.1794 -0.1794 0.2802 -0.4227 0.2802 -0.6763v-4.7826c0 -0.6294 -0.1463 -1.2493 -0.4276 -1.8117l-1.9637 -3.92748c-0.2874 -0.57484 -0.7292 -1.05828 -1.2759 -1.39617 -0.5467 -0.33789 -1.1767 -0.51686 -1.8194 -0.51687H2.91304c-0.50737 0 -0.99396 0.20155 -1.35272 0.56032C1.20155 5.74516 1 6.23175 1 6.73912V17.2609c0 0.2536 0.10078 0.4969 0.28016 0.6763 0.17938 0.1794 0.42268 0.2802 0.67636 0.2802h1.21957" stroke-width="1"></path>
  <path fill="#808080" stroke="#191919" stroke-linecap="round" stroke-linejoin="round" d="M17.2607 19.1739c0.5074 0 0.994 -0.2015 1.3527 -0.5603 0.3588 -0.3588 0.5603 -0.8454 0.5603 -1.3527 0 -0.5074 -0.2015 -0.994 -0.5603 -1.3528 -0.3587 -0.3587 -0.8453 -0.5603 -1.3527 -0.5603s-0.994 0.2016 -1.3527 0.5603c-0.3588 0.3588 -0.5603 0.8454 -0.5603 1.3528 0 0.5073 0.2015 0.9939 0.5603 1.3527 0.3587 0.3588 0.8453 0.5603 1.3527 0.5603Z" stroke-width="1"></path>
  <path fill="#808080" stroke="#191919" stroke-linecap="round" stroke-linejoin="round" d="M4.82613 19.1739c0.50737 0 0.99396 -0.2015 1.35273 -0.5603 0.35876 -0.3588 0.56031 -0.8454 0.56031 -1.3527 0 -0.5074 -0.20155 -0.994 -0.56031 -1.3528 -0.35877 -0.3587 -0.84536 -0.5603 -1.35273 -0.5603s-0.99396 0.2016 -1.35273 0.5603c-0.35876 0.3588 -0.56031 0.8454 -0.56031 1.3528 0 0.5073 0.20155 0.9939 0.56031 1.3527 0.35877 0.3588 0.84536 0.5603 1.35273 0.5603Z" stroke-width="1"></path>
  <path stroke="#191919" stroke-linecap="round" stroke-linejoin="round" d="M20.6087 6.73912H1" stroke-width="1"></path>
  <path stroke="#191919" stroke-linecap="round" stroke-linejoin="round" d="m23 15.8261 -2.3913 -2.0881c-0.9269 -0.811 -2.1163 -1.2585 -3.3478 -1.2597H1" stroke-width="1"></path>
  <path stroke="#191919" stroke-linecap="round" stroke-linejoin="round" d="M4.82613 8.65216H2.91309" stroke-width="1"></path>
  <path stroke="#191919" stroke-linecap="round" stroke-linejoin="round" d="M4.82613 10.5652H2.91309" stroke-width="1"></path>
  <path stroke="#191919" stroke-linecap="round" stroke-linejoin="round" d="M6.73926 6.73912v2.86957c0 0.25368 0.10077 0.49701 0.28016 0.67631 0.17938 0.1794 0.42267 0.2802 0.67636 0.2802H22.5219" stroke-width="1"></path>
  <path stroke="#191919" stroke-linecap="round" stroke-linejoin="round" d="M11.5215 10.5652V6.73912" stroke-width="1"></path>
  <path stroke="#191919" stroke-linecap="round" stroke-linejoin="round" d="M17.2607 10.5652V6.73912" stroke-width="1"></path>
</svg>