<svg xmlns="http://www.w3.org/2000/svg" fill="none" viewBox="0 0 14 14"><g id="milkshake--milkshake-drink-takeaway-cup-cold-beverage"><path id="Union" fill="#3e3e3e" fill-rule="evenodd" d="M9.722.067a.75.75 0 0 1 .487.942l-.51 1.603a4.166 4.166 0 0 1 1.576 3.012H12a.75.75 0 0 1 0 1.5h-.768l-.373 5.22a1.75 1.75 0 0 1-1.746 1.625H5.108a1.75 1.75 0 0 1-1.745-1.626l-.373-5.22h-.77a.75.75 0 1 1 0-1.5h.725A4.173 4.173 0 0 1 8.351 1.9L8.78.554a.75.75 0 0 1 .943-.487ZM4.45 5.624a2.673 2.673 0 0 1 5.32 0H4.45Zm5.156 3.194.12-1.694H4.494l.122 1.694h4.992Z" clip-rule="evenodd"></path></g></svg>