<svg xmlns="http://www.w3.org/2000/svg" fill="none" viewBox="0 0 14 14"><g id="shrimp--sea-food-shrimp"><path id="Subtract" fill="#3e3e3e" fill-rule="evenodd" d="M2.347 1.781a.754.754 0 1 0 0 1.508H3.35v-.002h5.24c.041.059.096.11.162.147a1.114 1.114 0 0 1 .123.162c.088.139.189.337.283.583A5.2 5.2 0 0 1 9.5 6a5.19 5.19 0 0 1-.342 1.82 3.363 3.363 0 0 1-.283.583 1.114 1.114 0 0 1-.123.163.498.498 0 0 0-.21.233H7.35a4 4 0 0 1-4-4v-.01H2.347a2.254 2.254 0 1 1 0-4.508h4.511a.75.75 0 0 1 0 1.5h-4.51Zm7.745 2.04a5.047 5.047 0 0 0-.186-.426 5.022 5.022 0 0 1 3.54 2.872c-.425 2.075-1.887 3.21-2.793 3.633a2.013 2.013 0 0 0-.96-.921c.01-.013.018-.026.026-.039.13-.205.26-.465.373-.76A6.2 6.2 0 0 0 10.5 6a6.2 6.2 0 0 0-.408-2.18Zm.774 7.076c.865-.35 2.196-1.247 3.004-2.83.004.077.006.154.006.232 0 2.426-1.724 4.833-4.013 5.391v-.63c0-.168-.015-.333-.044-.493a2.005 2.005 0 0 0 1.047-1.67Zm-2.02 1.918c.012.08.017.162.017.246v.752H6.19a.835.835 0 0 1-.835-.836c0-.923.748-1.67 1.67-1.67h.084c.885 0 1.616.654 1.737 1.505v.003ZM7.36 5.542a.752.752 0 1 1-1.504 0 .752.752 0 0 1 1.504 0Z" clip-rule="evenodd"></path></g></svg>