<svg xmlns="http://www.w3.org/2000/svg" fill="none" viewBox="0 0 48 48" id="Parachute-Drop--Streamline-Plump-Neon">
  <desc>
    Parachute Drop Streamline Icon: https://streamlinehq.com
  </desc>
  <g id="parachute-drop--package-box-fulfillment-cart-warehouse-shipping-delivery-drop-parachute">
    <path id="Vector" stroke="#000cfe" stroke-linecap="round" stroke-linejoin="round" d="m31 40 -6 0" stroke-width="1"></path>
    <path id="Vector_2" stroke="#000cfe" stroke-linecap="round" stroke-linejoin="round" d="m31 35 -3 0" stroke-width="1"></path>
    <path id="Vector_3" stroke="#000cfe" stroke-linecap="round" stroke-linejoin="round" d="m24 17 0 9" stroke-width="1"></path>
    <path id="Vector_4" stroke="#000cfe" stroke-linecap="round" stroke-linejoin="round" d="M3 17c6 5 21 9 21 9" stroke-width="1"></path>
    <path id="Vector_5" stroke="#000cfe" stroke-linecap="round" stroke-linejoin="round" d="M45 17c-6 5 -21 9 -21 9" stroke-width="1"></path>
    <path id="Vector_6" stroke="#c71dff" stroke-linecap="round" stroke-linejoin="round" d="M11.2016 42.0204c0.1582 2.1111 1.821 3.6611 3.935 3.774C17.1458 45.9017 20.0615 46 24 46c3.9385 0 6.8542 -0.0983 8.8634 -0.2056 2.114 -0.1129 3.7768 -1.6629 3.935 -3.774C36.9099 40.533 37 38.5438 37 36c0 -2.5438 -0.0901 -4.533 -0.2016 -6.0204 -0.1582 -2.1111 -1.821 -3.6611 -3.935 -3.774C30.8542 26.0983 27.9385 26 24 26c-3.9385 0 -6.8542 0.0983 -8.8634 0.2056 -2.114 0.1129 -3.7768 1.6629 -3.935 3.774C11.0901 31.467 11 33.4562 11 36c0 2.5438 0.0901 4.533 0.2016 6.0204Z" stroke-width="1"></path>
    <path id="Vector_7" stroke="#c71dff" stroke-linecap="round" stroke-linejoin="round" d="M3 17C3 11 9.99999 2 24 2c14 0 21 9 21 15 0 0 -4 -3 -11 -3s-10 3 -10 3 -3 -3 -10 -3 -11 3 -11 3Z" stroke-width="1"></path>
  </g>
</svg>