<svg xmlns="http://www.w3.org/2000/svg" fill="none" viewBox="0 0 48 48" id="Shipment-Upload--Streamline-Plump-Neon">
  <desc>
    Shipment Upload Streamline Icon: https://streamlinehq.com
  </desc>
  <g id="shipment-upload--shipping-parcel-shipment-upload">
    <path id="Vector" stroke="#000cfe" stroke-linecap="round" stroke-linejoin="round" d="M24 3v12" stroke-width="3"></path>
    <path id="Vector_2" stroke="#000cfe" stroke-linecap="round" stroke-linejoin="round" d="M16.7441 28.6743c-0.9715 1.2407 -0.2956 2.7257 1.2774 2.8179 0.7033 0.0412 1.5575 0.0779 2.5902 0.1038 0.0732 1.8307 0.168 3.6696 0.2369 4.9282 0.0536 0.9801 0.6854 1.8382 1.6553 1.9891 0.437 0.068 0.945 0.1177 1.497 0.1177 0.5521 0 1.0605 -0.0497 1.498 -0.1177 0.9712 -0.151 1.6039 -1.0101 1.6572 -1.9915 0.0683 -1.2586 0.1623 -3.0962 0.2348 -4.9258 1.032 -0.0259 1.8856 -0.0626 2.5885 -0.1038 1.5733 -0.0922 2.2492 -1.5776 1.2776 -2.8185 -0.5868 -0.7493 -1.3539 -1.6789 -2.347 -2.8035 -1.539 -1.7428 -2.7162 -2.7831 -3.5315 -3.3962 -0.8406 -0.6321 -1.9146 -0.632 -2.7551 0.0001 -0.8153 0.6131 -1.9924 1.6534 -3.5316 3.3961 -0.9935 1.1249 -1.7608 2.0547 -2.3477 2.8041Z" stroke-width="3"></path>
    <path id="Vector_3" stroke="#c71dff" stroke-linecap="round" stroke-linejoin="round" d="M24 3c6.0739 0 9.5858 0.25619 11.5732 0.50923 1.618 0.20601 2.9255 1.17966 3.8111 2.54935 1.1473 1.77446 2.8016 4.49342 4.1446 7.33852 1.1009 2.3322 1.4708 4.9177 1.4709 7.4967L45 30.5c0 3.8654 -0.2025 7.0577 -0.4252 9.4001 -0.2523 2.6538 -2.3977 4.6184 -5.06 4.7535C36.1948 44.8222 31.0276 45 24 45s-12.1948 -0.1778 -15.51484 -0.3464c-2.66229 -0.1351 -4.80768 -2.0997 -5.06 -4.7535C3.20245 37.5577 3 34.3654 3 30.5l0.00023 -9.6062c0.00006 -2.579 0.36995 -5.1645 1.47083 -7.4967 1.34297 -2.8451 2.9973 -5.56402 4.14462 -7.33848 0.88563 -1.36972 2.19312 -2.34338 3.81122 -2.54939C14.4143 3.25619 17.9262 3 24 3Z" stroke-width="3"></path>
    <path id="Vector_4" stroke="#c71dff" stroke-linecap="round" stroke-linejoin="round" d="M3.42533 39.9739c0.24457 2.5857 2.32302 4.4847 4.91598 4.6331C11.6551 44.7967 16.8701 45 24 45c7.1299 0 12.3449 -0.2033 15.6587 -0.393 2.5929 -0.1484 4.6714 -2.0474 4.916 -4.633C44.7974 37.6186 45 34.296 45 30s-0.2026 -7.6186 -0.4253 -9.9739c-0.2446 -2.5857 -2.3231 -4.4847 -4.916 -4.6331C36.3449 15.2033 31.1299 15 24 15c-7.1299 0 -12.3449 0.2033 -15.65868 0.393 -2.59297 0.1484 -4.67142 2.0474 -4.91599 4.6331C3.20255 22.3814 3 25.704 3 30c0 4.2959 0.20255 7.6186 0.42533 9.9739Z" stroke-width="3"></path>
  </g>
</svg>