<svg xmlns="http://www.w3.org/2000/svg" viewBox="0 0 24 24" id="Weather-Sun--Streamline-Ultimate">
  <desc>
    Weather Sun Streamline Icon: https://streamlinehq.com
  </desc>
  <g id="Weather-Sun--Streamline-Ultimate.svg">
    <path d="M12 4.64A7.36 7.36 0 1 0 19.36 12 7.37 7.37 0 0 0 12 4.64Zm0 12.72A5.36 5.36 0 1 1 17.36 12 5.37 5.37 0 0 1 12 17.36Z" fill="#000000" stroke-width="1"></path>
    <path d="M12 3.47a1 1 0 0 0 1 -1V1a1 1 0 0 0 -2 0v1.47a1 1 0 0 0 1 1Z" fill="#000000" stroke-width="1"></path>
    <path d="M4.55 6a1 1 0 0 0 0.71 0.29A1 1 0 0 0 6 6a1 1 0 0 0 0 -1.45l-1 -1a1 1 0 0 0 -1.49 1.38Z" fill="#000000" stroke-width="1"></path>
    <path d="M2.47 11H1a1 1 0 0 0 0 2h1.47a1 1 0 1 0 0 -2Z" fill="#000000" stroke-width="1"></path>
    <path d="m4.55 18 -1 1a1 1 0 0 0 0 1.42 1 1 0 0 0 0.71 0.29 1 1 0 0 0 0.71 -0.29l1 -1A1 1 0 0 0 4.55 18Z" fill="#000000" stroke-width="1"></path>
    <path d="M12 20.53a1 1 0 0 0 -1 1V23a1 1 0 0 0 2 0v-1.47a1 1 0 0 0 -1 -1Z" fill="#000000" stroke-width="1"></path>
    <path d="M19.45 18A1 1 0 0 0 18 19.45l1 1a1 1 0 0 0 0.71 0.29 1 1 0 0 0 0.71 -0.29 1 1 0 0 0 0 -1.42Z" fill="#000000" stroke-width="1"></path>
    <path d="M23 11h-1.47a1 1 0 0 0 0 2H23a1 1 0 0 0 0 -2Z" fill="#000000" stroke-width="1"></path>
    <path d="M18.74 6.26a1 1 0 0 0 0.71 -0.26l1 -1a1 1 0 1 0 -1.42 -1.42l-1 1A1 1 0 0 0 18 6a1 1 0 0 0 0.74 0.26Z" fill="#000000" stroke-width="1"></path>
  </g>
</svg>