<svg xmlns="http://www.w3.org/2000/svg" viewBox="0 0 24 24" id="Weather-Wind-Flow-6--Streamline-Ultimate">
  <desc>
    Weather Wind Flow 6 Streamline Icon: https://streamlinehq.com
  </desc>
  <g id="Weather-Wind-Flow-6--Streamline-Ultimate.svg">
    <path d="M1.59 7.08c3.37 -1.69 6.17 -1.68 10 0a14.78 14.78 0 0 0 6 1.44 12.54 12.54 0 0 0 5.7 -1.46 1 1 0 0 0 -0.08 -1.82l-3 -1.18a1 1 0 1 0 -0.73 1.86l0.64 0.26c-2.45 0.69 -4.79 0.38 -7.73 -0.93 -4.32 -1.91 -7.83 -1.9 -11.7 0.04a1 1 0 0 0 -0.45 1.34 1 1 0 0 0 1.35 0.45Z" fill="#000000" stroke-width="1"></path>
    <path d="m23.23 11.07 -3 -1.17a1 1 0 1 0 -0.73 1.86l0.64 0.25c-2.45 0.69 -4.79 0.38 -7.73 -0.92 -4.34 -1.93 -7.85 -1.93 -11.72 0.02a1 1 0 1 0 0.9 1.78c3.36 -1.69 6.17 -1.68 10 0a14.8 14.8 0 0 0 6 1.45 12.43 12.43 0 0 0 5.7 -1.47 1 1 0 0 0 0.55 -0.94 1 1 0 0 0 -0.61 -0.86Z" fill="#000000" stroke-width="1"></path>
    <path d="m23.23 16.88 -3 -1.17a1 1 0 1 0 -0.73 1.86l0.64 0.25c-2.45 0.69 -4.79 0.39 -7.73 -0.92C8.07 15 4.56 15 0.69 16.92a1 1 0 1 0 0.9 1.79C5 17 7.76 17 11.59 18.73a14.78 14.78 0 0 0 6 1.44 12.54 12.54 0 0 0 5.7 -1.46 1 1 0 0 0 -0.08 -1.83Z" fill="#000000" stroke-width="1"></path>
  </g>
</svg>