<svg xmlns="http://www.w3.org/2000/svg" fill="none" viewBox="0 0 24 24" id="Composition-Window-Man--Streamline-Ultimate">
  <desc>
    Composition Window Man Streamline Icon: https://streamlinehq.com
  </desc>
  <path stroke="#000000" stroke-linecap="round" stroke-linejoin="round" d="M9.375 9.375c0 0.6962 0.27656 1.3639 0.7688 1.8562 0.4923 0.4922 1.16 0.7688 1.8562 0.7688 0.6962 0 1.3639 -0.2766 1.8562 -0.7688 0.4922 -0.4923 0.7688 -1.16 0.7688 -1.8562 0 -0.69619 -0.2766 -1.36387 -0.7688 -1.85616C13.3639 7.02656 12.6962 6.75 12 6.75c-0.6962 0 -1.3639 0.27656 -1.8562 0.76884 -0.49224 0.49229 -0.7688 1.15997 -0.7688 1.85616Z" stroke-width="1"></path>
  <path stroke="#000000" stroke-linecap="round" stroke-linejoin="round" d="M7.5 17.25c0 -1.1935 0.47411 -2.3381 1.31802 -3.182C9.66193 13.2241 10.8065 12.75 12 12.75c1.1935 0 2.3381 0.4741 3.182 1.318 0.8439 0.8439 1.318 1.9885 1.318 3.182h-9Z" stroke-width="1"></path>
  <path stroke="#000000" stroke-linecap="round" stroke-linejoin="round" d="M3.75 3.75h16.5s3 0 3 3v10.5s0 3 -3 3H3.75s-3 0 -3 -3V6.75s0 -3 3 -3Z" stroke-width="1"></path>
</svg>