<svg xmlns="http://www.w3.org/2000/svg" fill="none" viewBox="0 0 24 24" id="Timer-10--Streamline-Ultimate">
  <desc>
    Timer 10 Streamline Icon: https://streamlinehq.com
  </desc>
  <path stroke="#000000" stroke-linecap="round" stroke-linejoin="round" d="M13.5 21.75c1.9284 0 3.8134 -0.5718 5.4168 -1.6432 1.6034 -1.0713 2.8531 -2.5941 3.591 -4.3756 0.738 -1.7816 0.9311 -3.742 0.5549 -5.6333 -0.3762 -1.89134 -1.3048 -3.62862 -2.6684 -4.99219 -1.3636 -1.36356 -3.1009 -2.29216 -4.9922 -2.66836 -1.8913 -0.37621 -3.8517 -0.18313 -5.63326 0.55483 -1.78158 0.73795 -3.30432 1.98764 -4.37567 3.59101C4.32183 8.18657 3.75 10.0716 3.75 12v1.5" stroke-width="1.5"></path>
  <path stroke="#000000" stroke-linecap="round" stroke-linejoin="round" d="m0.75 10.5 3 3 3 -3" stroke-width="1.5"></path>
  <path stroke="#000000" stroke-linecap="round" stroke-linejoin="round" d="M9 8.25h0.75c0.19891 0 0.3897 0.07902 0.5303 0.21967 0.1407 0.14065 0.2197 0.33142 0.2197 0.53033v5.25" stroke-width="1.5"></path>
  <path stroke="#000000" stroke-linecap="round" stroke-linejoin="round" d="M9 14.25h3" stroke-width="1.5"></path>
  <path stroke="#000000" stroke-linecap="round" stroke-linejoin="round" d="M18 12.75c0 0.3978 -0.158 0.7794 -0.4393 1.0607s-0.6629 0.4393 -1.0607 0.4393c-0.3978 0 -0.7794 -0.158 -1.0607 -0.4393S15 13.1478 15 12.75v-3c0 -0.39782 0.158 -0.77936 0.4393 -1.06066 0.2813 -0.2813 0.6629 -0.43934 1.0607 -0.43934 0.3978 0 0.7794 0.15804 1.0607 0.43934S18 9.35218 18 9.75v3Z" stroke-width="1.5"></path>
</svg>