<svg xmlns="http://www.w3.org/2000/svg" fill="none" viewBox="0 0 24 24" id="Video-Call--Streamline-Ultimate">
  <desc>
    Video Call Streamline Icon: https://streamlinehq.com
  </desc>
  <path stroke="#000000" stroke-linecap="round" stroke-linejoin="round" d="M3.59082 19.499c-1.10457 0 -2 -0.8954 -2 -2V6.50195c0 -1.10457 0.89543 -2 2 -2H14.8013c1.1045 0 2 0.89543 2 2V17.499c0 1.1046 -0.8955 2 -2 2H3.59082Z" stroke-width="1"></path>
  <path stroke="#000000" stroke-linecap="round" stroke-linejoin="round" d="M17.3213 14.501c-0.3204 -0.1755 -0.5195 -0.5117 -0.5195 -0.877v-3.2467c0 -0.3653 0.1991 -0.70152 0.5195 -0.87703l3.6075 -1.9761c0.6664 -0.36506 1.4804 0.11718 1.4804 0.87703v7.1989c0 0.7598 -0.814 1.2421 -1.4804 0.877l-3.6075 -1.9761Z" stroke-width="1"></path>
  <path stroke="#000000" stroke-linecap="round" stroke-linejoin="round" stroke-miterlimit="10" d="M6.09134 9.12207c-0.16628 0 -0.33255 0.16629 -0.33255 0.33257 0 0.16627 0.16627 0.33251 0.33255 0.33251" stroke-width="1"></path>
  <path stroke="#000000" stroke-linecap="round" stroke-linejoin="round" stroke-miterlimit="10" d="M6.09143 9.12207c0.16628 0 0.33255 0.16629 0.33255 0.33257 0 0.16627 -0.16627 0.33251 -0.33255 0.33251" stroke-width="1"></path>
  <path stroke="#000000" stroke-linecap="round" stroke-linejoin="round" stroke-miterlimit="10" d="M12.3023 9.12207c-0.1663 0 -0.3326 0.16629 -0.3326 0.33257 0 0.16627 0.1663 0.33251 0.3326 0.33251" stroke-width="1"></path>
  <path stroke="#000000" stroke-linecap="round" stroke-linejoin="round" stroke-miterlimit="10" d="M12.3024 9.12207c0.1663 0 0.3325 0.16629 0.3325 0.33257 0 0.16627 -0.1662 0.33251 -0.3325 0.33251" stroke-width="1"></path>
  <path stroke="#000000" stroke-linecap="round" stroke-linejoin="round" stroke-miterlimit="10" d="M12.4962 12.9912c-0.5505 1.2775 -1.821 2.1718 -3.30037 2.1718 -1.47936 0 -2.74984 -0.8943 -3.30032 -2.1718" stroke-width="1"></path>
</svg>