<svg xmlns="http://www.w3.org/2000/svg" fill="none" viewBox="0 0 14 14" id="Ball--Streamline-Flex-Remix">
  <desc>
    Ball Streamline Icon: https://streamlinehq.com
  </desc>
  <g id="ball--sports-ball-sport-basketball-shopping-catergories">
    <path id="Union" fill="#000000" fill-rule="evenodd" d="M1.25 7c0 -1.3697 0.27313 -2.48152 0.76753 -3.3458 0.77138 0.77111 1.20399 1.87345 1.20399 3.34581 0 1.47236 -0.4326 2.5747 -1.20398 3.34579C1.52313 9.48153 1.25 8.36971 1.25 7Zm3.47152 0.00001c0 -1.8597 -0.58442 -3.40866 -1.74621 -4.50704 0.79335 -0.67533 1.88038 -1.10273 3.27469 -1.21398V12.721c-1.3943 -0.1112 -2.48133 -0.5386 -3.27468 -1.214 1.16178 -1.0983 1.7462 -2.6473 1.7462 -4.50699Zm7.26658 3.33579c-0.7651 -0.77058 -1.194 -1.86977 -1.194 -3.33579 0 -1.46603 0.4289 -2.56521 1.1941 -3.33584 0.4908 0.86286 0.7618 1.97139 0.7618 3.33583s-0.271 2.47298 -0.7619 3.3358ZM11.0329 11.5c-1.15686 -1.0979 -1.7388 -2.64425 -1.7388 -4.49999 0 -1.85574 0.58194 -3.40206 1.7388 -4.50002 -0.794 -0.67939 -1.88377 -1.10937 -3.2829 -1.221V12.721c1.39913 -0.1116 2.4888 -0.5416 3.2829 -1.221ZM7 0C4.84496 0 3.07308 0.60804 1.84056 1.84056S0 4.84496 0 7s0.60804 3.9269 1.84056 5.1594C3.07308 13.392 4.84496 14 7 14s3.9269 -0.608 5.1594 -1.8406C13.392 10.9269 14 9.15504 14 7c0 -2.15504 -0.608 -3.92692 -1.8406 -5.15944C10.9269 0.60804 9.15504 0 7 0Z" clip-rule="evenodd" stroke-width="1"></path>
  </g>
</svg>