<svg xmlns="http://www.w3.org/2000/svg" fill="none" viewBox="0 0 14 14" id="Bow-Tie--Streamline-Flex-Remix">
  <desc>
    Bow Tie Streamline Icon: https://streamlinehq.com
  </desc>
  <g id="bow-tie--bow-tie-dress-gentleman-cloth-clothing-accessories">
    <path id="Union" fill="#000000" fill-rule="evenodd" d="M4.51101 8.56102 1.64864 10.1032c-0.01416 0.0076 -0.028 0.0145 -0.04136 0.0207 -0.08664 -0.23229 -0.17157 -0.59597 -0.23643 -1.07798C1.29104 8.45275 1.25 7.74918 1.25 7.03857c0 -0.71061 0.04104 -1.41419 0.12085 -2.00735 0.06486 -0.48202 0.14978 -0.84569 0.23643 -1.07797 0.01336 0.00619 0.0272 0.0131 0.04136 0.02073l2.8623 1.5421c-0.21417 0.41554 -0.32535 0.92574 -0.32535 1.5224 0 0.59674 0.1112 1.10698 0.32542 1.52254Zm0.90359 -3.97796L2.24152 2.87353c-0.19516 -0.10514 -0.46416 -0.20928 -0.75416 -0.20898 -0.32501 0.00033 -0.6945 0.14046 -0.905453 0.52766 -0.227005 0.41667 -0.364201 1.03547 -0.44989 1.67232C0.0432481 5.52426 0 6.28493 0 7.03857c0 0.75364 0.0432479 1.5143 0.132016 2.17404 0.085689 0.63685 0.222885 1.25569 0.44989 1.67229 0.210952 0.3872 0.580434 0.5274 0.905454 0.5277 0.29 0.0003 0.559 -0.1039 0.75416 -0.209l3.17323 -1.70961c0.42657 0.23613 0.95817 0.35895 1.5853 0.35895 0.62712 0 1.15872 -0.12282 1.58529 -0.35895l3.17326 1.70961c0.1951 0.1051 0.4641 0.2093 0.7541 0.209 0.325 -0.0003 0.6945 -0.1405 0.9055 -0.5277 0.227 -0.4166 0.3642 -1.03544 0.4499 -1.67229 0.0887 -0.65974 0.132 -1.4204 0.132 -2.17404 0 -0.75364 -0.0433 -1.51431 -0.132 -2.17404 -0.0857 -0.63685 -0.2229 -1.25565 -0.4499 -1.67232 -0.211 -0.3872 -0.5805 -0.52733 -0.9055 -0.52766 -0.29 -0.0003 -0.559 0.10384 -0.7541 0.20898L8.58549 4.58306c-0.4266 -0.23618 -0.95825 -0.35903 -1.58544 -0.35903 -0.6272 0 -1.15885 0.12285 -1.58545 0.35903Zm4.07455 0.93302c0.21417 0.41554 0.32535 0.92574 0.32535 1.5224 0 0.59674 -0.1112 1.10698 -0.32541 1.52254l2.86241 1.54218c0.0141 0.0076 0.028 0.0145 0.0413 0.0207 0.0867 -0.23229 0.1716 -0.59597 0.2364 -1.07798 0.0799 -0.59317 0.1209 -1.29674 0.1209 -2.00735 0 -0.71061 -0.041 -1.41419 -0.1209 -2.00735 -0.0648 -0.48202 -0.1497 -0.84569 -0.2364 -1.07797 -0.0133 0.00619 -0.0272 0.0131 -0.0413 0.02073l-2.86235 1.5421Z" clip-rule="evenodd" stroke-width="1"></path>
  </g>
</svg>