<svg xmlns="http://www.w3.org/2000/svg" fill="none" viewBox="0 0 14 14" id="Piggy-Bank--Streamline-Flex-Remix">
  <desc>
    Piggy Bank Streamline Icon: https://streamlinehq.com
  </desc>
  <g id="piggy-bank--institution-saving-bank-payment-finance">
    <path id="Union" fill="#000000" fill-rule="evenodd" d="M11.0474 2.1177c0.1549 -0.93961 -0.5645 -1.990135 -1.6756 -1.856952 -0.69983 0.08389 -1.56876 0.319847 -2.23815 1.007182 -0.24884 -0.02853 -0.50209 -0.04319 -0.75879 -0.04319 -1.66307 0 -3.19183 0.62142 -4.30606 1.64004 -0.25814 -0.25373 -0.47672 -0.55803 -0.60778 -0.91312 -0.11952 -0.32383 -0.47892 -0.48945 -0.802745 -0.36993 -0.323826 0.11951 -0.48945 0.47892 -0.369932 0.80274 0.215743 0.58454 0.569815 1.05361 0.952457 1.41835 -0.624976 0.88649 -0.990904 1.94905 -0.990904 3.10216 0 0.96524 0.259896 1.87344 0.715468 2.66704 -0.008823 0.03247 -0.017006 0.06525 -0.024531 0.09831L0.679234 10.8199c-0.291761 1.282 0.498276 2.57 1.780836 2.8684 1.08171 0.2516 2.15402 -0.2842 2.64052 -1.2262 0.41157 0.0808 0.8379 0.1231 1.27427 0.1231 0.28255 0 0.56092 -0.0177 0.83382 -0.0522 0.50283 0.8979 1.54819 1.4005 2.60233 1.1553 1.09389 -0.2545 1.82949 -1.2288 1.84119 -2.3054l1.2018 -0.6075c0.5515 -0.2788 0.8958 -0.84608 0.8958 -1.46213V6.90498c0 -0.85749 -0.6589 -1.57054 -1.5065 -1.63178 -0.2695 -0.83524 -0.7391 -1.58584 -1.3524 -2.20618l0.1565 -0.94932Zm-1.52683 -0.61584c0.07379 -0.00884 0.14553 0.01664 0.20845 0.0912 0.06716 0.07959 0.10536 0.19819 0.08506 0.32133l-0.21017 1.27496c-0.03467 0.21035 0.04027 0.42387 0.1988 0.56641 0.68139 0.61264 1.15899 1.40012 1.35179 2.27296 0.0632 0.28634 0.3171 0.49021 0.6103 0.49021h0.36c0.2007 0 0.375 0.16635 0.375 0.38605v2.40829c0 0.14986 -0.0837 0.28281 -0.2098 0.34653l-1.5776 0.7976c-0.2495 0.1261 -0.3849 0.4026 -0.3316 0.677 0.1185 0.6095 -0.2638 1.1994 -0.85302 1.3364 -0.5811 0.1352 -1.16948 -0.2153 -1.3329 -0.8025 -0.08821 -0.317 -0.4071 -0.5113 -0.72927 -0.4444 -0.35005 0.0728 -0.71506 0.1113 -1.09075 0.1113 -0.52218 0 -1.02383 -0.0745 -1.49345 -0.2118 -0.16542 -0.0483 -0.34346 -0.0262 -0.49204 0.0611s-0.25451 0.2321 -0.29276 0.4001l-0.00652 0.0287c-0.14117 0.6203 -0.74796 0.9968 -1.34679 0.8575 -0.6012 -0.1398 -0.9869 -0.751 -0.84523 -1.3736l0.2616 -1.14949c0.01628 -0.07155 0.03863 -0.13942 0.06619 -0.20336 0.08282 -0.19215 0.06398 -0.41301 -0.05018 -0.58837 -0.43091 -0.66191 -0.67578 -1.43093 -0.67578 -2.251 0 -2.39819 2.13194 -4.43024 4.87496 -4.43024 0.30927 0 0.61129 0.02613 0.90368 0.07594 0.23004 0.03919 0.46276 -0.05304 0.6035 -0.23918 0.39411 -0.52124 0.99656 -0.73268 1.63853 -0.80964ZM7.1249 4.37388c0 0.48324 -0.39175 0.875 -0.875 0.875h-1.254c-0.48325 0 -0.875 -0.39176 -0.875 -0.875 0 -0.48325 0.39175 -0.875 0.875 -0.875h1.254c0.48325 0 0.875 0.39175 0.875 0.875Zm3.1948 1.69824c0 -0.34518 -0.2798 -0.625 -0.62498 -0.625s-0.625 0.27982 -0.625 0.625v0.92799c0 0.34517 0.27982 0.625 0.625 0.625s0.62498 -0.27983 0.62498 -0.625v-0.92799Z" clip-rule="evenodd" stroke-width="1"></path>
  </g>
</svg>