<svg xmlns="http://www.w3.org/2000/svg" fill="none" viewBox="0 0 14 14" id="Qr-Code--Streamline-Flex-Remix">
  <desc>
    Qr Code Streamline Icon: https://streamlinehq.com
  </desc>
  <g id="qr-code--codes-tags-code-qr">
    <path id="Union" fill="#000000" fill-rule="evenodd" d="M4.58374 0.807827c-0.03699 -0.34319 -0.34519 -0.591412 -0.68838 -0.554419 -0.35315 0.038067 -0.70317 0.078675 -1.04708 0.118576l-0.08922 0.010349C1.51189 0.526949 0.517615 1.51932 0.377328 2.76967c-0.041652 0.37123 -0.084066 0.74937 -0.12349 1.13144 -0.035428 0.34336 0.214196 0.65042 0.557551 0.68585 0.343351 0.03543 0.650421 -0.2142 0.685851 -0.55755 0.03876 -0.37564 0.08055 -0.74832 0.12229 -1.12037 0.07511 -0.66944 0.61172 -1.20713 1.28351 -1.28503l0.08855 -0.01027c0.34481 -0.04 0.68989 -0.08004 1.03773 -0.11753 0.34319 -0.03699 0.59142 -0.34519 0.55442 -0.688383Zm4.83337 0c0.037 -0.34319 0.3452 -0.591412 0.68839 -0.554419 0.3531 0.038065 0.7031 0.078672 1.047 0.11857l0.0893 0.010355c1.2472 0.144616 2.2414 1.136987 2.3817 2.387337 0.0417 0.37123 0.0841 0.74937 0.1235 1.13144 0.0354 0.34336 -0.2142 0.65042 -0.5575 0.68585 -0.3434 0.03543 -0.6505 -0.2142 -0.6859 -0.55755 -0.0387 -0.37564 -0.0805 -0.74832 -0.1223 -1.12037 -0.0751 -0.66944 -0.6117 -1.20713 -1.2835 -1.28503l-0.0885 -0.01027c-0.3448 -0.04 -0.6899 -0.08004 -1.03777 -0.11753 -0.34319 -0.03699 -0.59141 -0.34519 -0.55442 -0.688383ZM4.19447 2.82648c0.2788 -0.02948 0.57675 -0.05421 0.88516 -0.05421 0.30841 0 0.60636 0.02473 0.88516 0.05421 0.71462 0.07556 1.28967 0.64976 1.36217 1.36681 0.02803 0.2772 0.05111 0.57228 0.05111 0.87742 0 0.30514 -0.02308 0.60022 -0.05111 0.87742 -0.0725 0.71705 -0.64755 1.29125 -1.36217 1.36681 -0.2788 0.02948 -0.57675 0.05421 -0.88516 0.05421 -0.30841 0 -0.60636 -0.02473 -0.88516 -0.05421 -0.71462 -0.07556 -1.28967 -0.64977 -1.36217 -1.36681 -0.02803 -0.2772 -0.05111 -0.57228 -0.05111 -0.87742 0 -0.30514 0.02308 -0.60022 0.05111 -0.87742 0.0725 -0.71705 0.64755 -1.29125 1.36217 -1.36681Zm0.16582 6.18016c0 -0.41421 -0.33579 -0.75 -0.75 -0.75s-0.75 0.33579 -0.75 0.75v1.47076c0 0.4142 0.33579 0.75 0.75 0.75h1.44374c0.41421 0 0.75 -0.3358 0.75 -0.75s-0.33579 -0.74997 -0.75 -0.74997h-0.69374v-0.72079Zm6.08201 2.22116c-0.4142 0 -0.74998 -0.3358 -0.74998 -0.75v-0.72075h-0.69373c-0.41422 0 -0.75 -0.33579 -0.75 -0.75 0 -0.41422 0.33578 -0.75 0.75 -0.75h1.44371c0.4142 0 0.75 0.33578 0.75 0.75v1.47075c0 0.4142 -0.3358 0.75 -0.75 0.75Zm0.0264 -3.62301c0.4142 0 0.75 -0.33579 0.75 -0.75s-0.3358 -0.75 -0.75 -0.75H9.02495c-0.41421 0 -0.75 0.33579 -0.75 0.75s0.33579 0.75 0.75 0.75h1.44375ZM6.81928 11.2142c-0.41422 0 -0.75 -0.3358 -0.75 -0.75V9.02043c0 -0.41421 0.33578 -0.75 0.75 -0.75 0.41421 0 0.75 0.33579 0.75 0.75v1.44377c0 0.4142 -0.33579 0.75 -0.75 0.75Zm2.87304 -6.17045c0 0.41422 0.33578 0.75 0.74998 0.75 0.4142 0 0.75 -0.33578 0.75 -0.75V3.57297c0 -0.41422 -0.3358 -0.75 -0.75 -0.75H8.99859c-0.41422 0 -0.75 0.33578 -0.75 0.75 0 0.41421 0.33578 0.75 0.75 0.75h0.69373v0.72078Zm0.41318 8.70295c-0.34319 0.037 -0.65139 -0.2112 -0.68839 -0.5544 -0.03699 -0.3432 0.21123 -0.6514 0.55442 -0.6884 0.34787 -0.0375 0.69297 -0.0775 1.03777 -0.1175l0.0885 -0.0103c0.6718 -0.0779 1.2084 -0.6156 1.2835 -1.285 0.0418 -0.3721 0.0836 -0.7448 0.1223 -1.1204 0.0354 -0.34336 0.3425 -0.59298 0.6859 -0.55755 0.3433 0.03542 0.5929 0.34249 0.5575 0.68585 -0.0394 0.3821 -0.0818 0.7602 -0.1235 1.1314 -0.1403 1.2504 -1.1345 2.2428 -2.3817 2.3874l-0.0892 0.0103c-0.3437 0.0399 -0.6941 0.0806 -1.0471 0.1186Zm-6.21014 0c0.34319 0.037 0.65139 -0.2112 0.68838 -0.5544 0.037 -0.3432 -0.21123 -0.6514 -0.55442 -0.6884 -0.34784 -0.0375 -0.69292 -0.0775 -1.03773 -0.1175l-0.08855 -0.0103c-0.67179 -0.0779 -1.2084 -0.6156 -1.28351 -1.285 -0.04174 -0.3721 -0.08353 -0.7448 -0.12229 -1.1204 -0.03543 -0.34336 -0.3425 -0.59298 -0.685851 -0.55755 -0.343355 0.03542 -0.592979 0.34249 -0.557551 0.68585 0.039424 0.3821 0.081838 0.7602 0.12349 1.1314 0.140287 1.2504 1.134562 2.2428 2.381732 2.3874l0.08922 0.0103c0.34385 0.0399 0.694 0.0805 1.04708 0.1186Z" clip-rule="evenodd" stroke-width="1"></path>
  </g>
</svg>