<svg xmlns="http://www.w3.org/2000/svg" fill="none" viewBox="0 0 14 14" id="Tall-Hat--Streamline-Flex-Remix">
  <desc>
    Tall Hat Streamline Icon: https://streamlinehq.com
  </desc>
  <g id="tall-hat--tall-hat-cloth-clothing-wearable-magician-gentleman-accessories">
    <path id="Union" fill="#000000" fill-rule="evenodd" d="M6.9998 0.25c-1.25934 0.002901 -2.56408 0.256655 -3.54285 0.80614 -0.99531 0.55877 -1.74372 1.49398 -1.55301 2.79492l0.00076 0.00503 0.83694 5.40247c0.00274 0.01764 0.00618 0.035 0.01031 0.05205l0.38568 2.61159c-0.51187 -0.1293 -0.96504 -0.2609 -1.31442 -0.3725 -0.19298 -0.0616 -0.35119 -0.1162 -0.46832 -0.1598 -0.09799 -0.0365 -0.14712 -0.0582 -0.1628 -0.0651 -0.00555 -0.0024 -0.0069 -0.003 -0.00475 -0.0018 -0.299014 -0.1724 -0.681208 -0.0698 -0.853653 0.2292 -0.172444 0.299 -0.069837 0.6812 0.22918 0.8537 0.094184 0.0543 0.230478 0.1087 0.355483 0.1553 0.14058 0.0524 0.31838 0.1134 0.52457 0.1792 0.41289 0.1319 0.95209 0.2872 1.55695 0.4357 1.20014 0.2947 2.70235 0.574 4.00024 0.574 1.29789 0 2.80012 -0.2793 4.00029 -0.5741 0.6048 -0.1486 1.144 -0.3038 1.5569 -0.4357 0.2062 -0.0659 0.384 -0.1269 0.5246 -0.1793 0.125 -0.0466 0.2613 -0.101 0.3554 -0.1553 0.2991 -0.1725 0.4017 -0.5547 0.2292 -0.8537 -0.1724 -0.299 -0.5546 -0.4016 -0.8536 -0.2292 0.0021 -0.0012 0.0008 -0.0006 -0.0048 0.0018 -0.0157 0.007 -0.0648 0.0286 -0.1628 0.0651 -0.1171 0.0437 -0.2753 0.0982 -0.4683 0.1598 -0.3495 0.1117 -0.8029 0.2434 -1.315 0.3728l0.3857 -2.61169c0.0041 -0.01705 0.0075 -0.03441 0.0103 -0.05205l0.8369 -5.40247 0.0008 -0.00503c0.1907 -1.30094 -0.5577 -2.23615 -1.553 -2.79492C9.56389 0.506655 8.25914 0.252901 6.9998 0.25ZM4.15187 2.14612C4.8871 1.73336 5.8763 1.50259 6.99971 1.5c1.12342 0.00259 2.11262 0.23336 2.84785 0.64612 0.71784 0.40297 1.01764 0.90697 0.92844 1.52133l-0.7504 4.84436c-0.98955 -0.04557 -1.99988 -0.07775 -3.02589 -0.07775 -1.026 0 -2.03633 0.03218 -3.02584 0.07775l-0.75048 -4.84436c-0.08913 -0.61436 0.21069 -1.11836 0.92848 -1.52133Z" clip-rule="evenodd" stroke-width="1"></path>
  </g>
</svg>