<svg xmlns="http://www.w3.org/2000/svg" viewBox="0 0 24 24" id="Adventure-Car-Truck-1--Streamline-Ultimate">
  <desc>
    Adventure Car Truck 1 Streamline Icon: https://streamlinehq.com
  </desc>
  <path d="M21.07 8.43a0.23 0.23 0 0 1 -0.07 -0.27 0.24 0.24 0 0 1 0.24 -0.16H22a1 1 0 0 0 1 -1V4.25a1 1 0 0 0 -1 -1h-1.25A0.25 0.25 0 0 1 20.5 3v-0.5A1.5 1.5 0 0 0 19 1H5a1.5 1.5 0 0 0 -1.5 1.5V3a0.25 0.25 0 0 1 -0.25 0.25H2a1 1 0 0 0 -1 1V7a1 1 0 0 0 1 1h0.76a0.24 0.24 0 0 1 0.24 0.16 0.23 0.23 0 0 1 -0.06 0.27l-2.13 2a1.54 1.54 0 0 0 -0.3 0.9V16A1.5 1.5 0 0 0 2 17.5h0.25a0.25 0.25 0 0 1 0.25 0.25v3.75A1.5 1.5 0 0 0 4 23h2a1.5 1.5 0 0 0 1.5 -1.5v-3.75a0.25 0.25 0 0 1 0.25 -0.25h8.52a0.25 0.25 0 0 1 0.25 0.25v3.75A1.5 1.5 0 0 0 18 23h2a1.5 1.5 0 0 0 1.5 -1.5v-3.75a0.25 0.25 0 0 1 0.25 -0.25H22a1.5 1.5 0 0 0 1.5 -1.5v-4.67a1.43 1.43 0 0 0 -0.36 -1ZM8 15.5a0.5 0.5 0 0 1 -0.5 -0.5v-1a1 1 0 0 1 1 -1h7a1 1 0 0 1 0.71 0.29 1 1 0 0 1 0.29 0.71v1a0.5 0.5 0 0 1 -0.5 0.5Zm-2.5 -8v-4A0.5 0.5 0 0 1 6 3h4.75a0.5 0.5 0 0 1 0.5 0.5v4a0.5 0.5 0 0 1 -0.5 0.5H6a0.5 0.5 0 0 1 -0.48 -0.53Zm7.25 0v-4a0.5 0.5 0 0 1 0.5 -0.5H18a0.5 0.5 0 0 1 0.5 0.5v4a0.5 0.5 0 0 1 -0.5 0.5h-4.73a0.5 0.5 0 0 1 -0.5 -0.53ZM4 12.5A1.5 1.5 0 1 1 2.5 14 1.5 1.5 0 0 1 4 12.5Zm16 3a1.5 1.5 0 1 1 1.5 -1.5 1.5 1.5 0 0 1 -1.5 1.5Z" fill="#000000" stroke-width="1"></path>
</svg>