<svg xmlns="http://www.w3.org/2000/svg" fill="none" viewBox="0 0 24 24" id="Engine-Temperature-Warning--Streamline-Ultimate">
  <desc>
    Engine Temperature Warning Streamline Icon: https://streamlinehq.com
  </desc>
  <path fill="#000000" fill-rule="evenodd" d="M12 0c0.5523 0 1 0.447715 1 1v0.60004h3c0.5523 0 1 0.44771 1 1 0 0.55228 -0.4477 1 -1 1h-3v1.5h3c0.5523 0 1 0.44771 1 1 0 0.55228 -0.4477 1 -1 1h-3v1.5h3c0.5523 0 1 0.44771 1 1 0 0.55226 -0.4477 0.99996 -1 0.99996h-3v1.1261c1.7252 0.444 3 2.0101 3 3.8739 0 2.2092 -1.7909 4 -4 4 -2.20914 0 -4 -1.7908 -4 -4 0 -1.8638 1.27477 -3.4299 3 -3.8739V1c0 -0.552285 0.4477 -1 1 -1Zm-2 15.6c0 -1.1045 0.8954 -2 2 -2s2 0.8955 2 2c0 1.1046 -0.8954 2 -2 2s-2 -0.8954 -2 -2Zm-3.89289 5.193c-0.39053 -0.3906 -1.02369 -0.3906 -1.41422 0 -0.62776 0.6277 -1.19645 0.91 -1.74327 1.0514 -0.5819 0.1505 -1.17947 0.1557 -1.94962 0.1557 -0.552285 0 -1 0.4477 -1 1 0 0.5522 0.447715 1 1 1l0.04807 0c0.71908 0.0001 1.5532 0.0002 2.40231 -0.2194 0.65936 -0.1705 1.30705 -0.4658 1.94808 -0.9522C6.8956 23.9786 8.23927 24.0001 8.7 24.0001c0.46057 0 1.8035 -0.0215 3.3 -1.1704 1.4965 1.1489 2.8394 1.1704 3.3 1.1704 0.4607 0 1.8044 -0.0215 3.3015 -1.1716 0.6411 0.4864 1.2888 0.7817 1.9481 0.9522 0.8491 0.2196 1.6833 0.2195 2.4023 0.2194l0.0481 0c0.5523 0 1 -0.4478 1 -1 0 -0.5523 -0.4477 -1 -1 -1 -0.7701 0 -1.3677 -0.0052 -1.9496 -0.1557 -0.5468 -0.1414 -1.1155 -0.4237 -1.7433 -1.0514 -0.3905 -0.3906 -1.0237 -0.3906 -1.4142 0 -1.21 1.2099 -2.2797 1.2077 -2.5751 1.2071l-0.0178 0 -0.0178 0c-0.2954 0.0006 -1.3651 0.0028 -2.5751 -1.2071 -0.3905 -0.3906 -1.0237 -0.3906 -1.4142 0 -1.21 1.2099 -2.27971 1.2077 -2.57511 1.2071l-0.01779 0 -0.01779 0c-0.29539 0.0006 -1.36511 0.0028 -2.5751 -1.2071Zm-0.65181 -5.2914c0.28401 0.0157 0.54788 0.1517 0.72557 0.3738 0.31172 0.3896 0.59876 0.5964 0.86635 0.7302 0.49397 0.247 0.6942 0.8477 0.44721 1.3417 -0.24699 0.494 -0.84766 0.6942 -1.34164 0.4472 -0.2747 -0.1374 -0.54422 -0.3085 -0.80785 -0.5259 -0.62355 0.4626 -1.25355 0.7463 -1.89456 0.9121 -0.84911 0.2196 -1.68323 0.2195 -2.40231 0.2194l-0.04807 0c-0.552285 0 -1 -0.4478 -1 -1 0 -0.5523 0.447715 -1 1 -1 0.77015 0 1.36772 -0.0052 1.94962 -0.1557 0.54682 -0.1414 1.11551 -0.4237 1.74327 -1.0514 0.20114 -0.2012 0.4784 -0.3071 0.76241 -0.2914Zm12.3638 0.3738c0.1777 -0.2221 0.4416 -0.3581 0.7256 -0.3738 0.284 -0.0157 0.5613 0.0902 0.7624 0.2914 0.6278 0.6277 1.1965 0.91 1.7433 1.0514 0.5819 0.1505 1.1794 0.1557 1.9496 0.1557 0.5523 0 1 0.4477 1 1 0 0.5522 -0.4477 1 -1 1l-0.0481 0c-0.7191 0.0001 -1.5532 0.0002 -2.4023 -0.2194 -0.641 -0.1658 -1.271 -0.4495 -1.8945 -0.9121 -0.2637 0.2174 -0.5332 0.3885 -0.8079 0.5259 -0.494 0.247 -1.0946 0.0468 -1.3416 -0.4472 -0.247 -0.494 -0.0468 -1.0947 0.4472 -1.3417 0.2676 -0.1338 0.5546 -0.3406 0.8663 -0.7302Z" clip-rule="evenodd" stroke-width="1"></path>
</svg>