<svg xmlns="http://www.w3.org/2000/svg" viewBox="0 0 24 24" id="Gas-F--Streamline-Ultimate">
  <desc>
    Gas F Streamline Icon: https://streamlinehq.com
  </desc>
  <path d="M23.68 8.64a1 1 0 0 0 -1.41 0c-1.84 2 -2.77 3.37 -2.77 4.18v7.5a1 1 0 1 1 -2 0V6.87a2.51 2.51 0 0 0 -2.5 -2.5h-0.25a0.25 0.25 0 0 1 -0.25 -0.25V2.38A1.75 1.75 0 0 0 12.75 0.63h-11A1.75 1.75 0 0 0 0 2.38v19a1.76 1.76 0 0 0 1.75 1.75h11a1.75 1.75 0 0 0 1.75 -1.75V6.62a0.25 0.25 0 0 1 0.25 -0.25H15a0.51 0.51 0 0 1 0.5 0.5v13.5a3 3 0 1 0 6 0v-2.22a0.25 0.25 0 0 1 0.14 -0.23l1 -0.51a1.5 1.5 0 0 0 0.83 -1.34v-1.2a1.5 1.5 0 0 0 -1.5 -1.5h-0.26a0.25 0.25 0 0 1 -0.25 -0.24V13a13.47 13.47 0 0 1 2.24 -2.91 1 1 0 0 0 -0.02 -1.45Zm-13.93 4h-2.5a0.75 0.75 0 0 0 -0.75 0.75v1.75h1.75a0.75 0.75 0 1 1 0 1.5H6.5v3.25a0.75 0.75 0 0 1 -1.5 0v-6.5a2.25 2.25 0 0 1 2.25 -2.25h2.5a0.75 0.75 0 0 1 0 1.5Zm2 -5.76a0.5 0.5 0 0 1 -0.5 0.5h-8a0.5 0.5 0 0 1 -0.5 -0.5v-3a0.5 0.5 0 0 1 0.5 -0.5h8a0.51 0.51 0 0 1 0.5 0.5Z" fill="#000000" stroke-width="1"></path>
</svg>