<svg xmlns="http://www.w3.org/2000/svg" viewBox="0 0 24 24" id="E-Commerce-Shopping-Bag--Streamline-Ultimate">
  <desc>
    E Commerce Shopping Bag Streamline Icon: https://streamlinehq.com
  </desc>
  <g id="E-Commerce-Shopping-Bag--Streamline-Ultimate.svg">
    <path d="M19.94 16.82 19 8.48A1.68 1.68 0 0 0 17.36 7h-1.61a0.25 0.25 0 0 1 -0.25 -0.25v-1A3.63 3.63 0 0 0 12 2a3.63 3.63 0 0 0 -3.5 3.75v1a0.25 0.25 0 0 1 -0.25 0.25H6.64A1.68 1.68 0 0 0 5 8.48l-0.9 8.34a10.14 10.14 0 0 0 -0.1 1.1 2.62 2.62 0 0 0 2.64 2.58h10.72A2.62 2.62 0 0 0 20 17.92a10.14 10.14 0 0 0 -0.06 -1.1Zm-9.44 0.6a0.75 0.75 0 0 1 0 -1.5h2a0.59 0.59 0 0 0 0.59 -0.59 0.58 0.58 0 0 0 -0.37 -0.55L10.69 14a2.09 2.09 0 0 1 0.36 -4 0.26 0.26 0 0 0 0.2 -0.25v-0.33a0.75 0.75 0 0 1 1.5 0v0.25a0.25 0.25 0 0 0 0.25 0.25h0.5a0.75 0.75 0 0 1 0 1.5h-2a0.59 0.59 0 0 0 -0.22 1.14l2.06 0.82a2.09 2.09 0 0 1 -0.36 4 0.26 0.26 0 0 0 -0.2 0.25v0.3a0.75 0.75 0 0 1 -1.5 0v-0.25a0.25 0.25 0 0 0 -0.25 -0.25Zm0 -11.67A1.64 1.64 0 0 1 12 4a1.64 1.64 0 0 1 1.5 1.75v1a0.25 0.25 0 0 1 -0.25 0.25h-2.5a0.25 0.25 0 0 1 -0.25 -0.25Z" fill="#000000" stroke-width="1"></path>
    <path d="M1 4a1 1 0 0 0 1 -1v-0.75A0.25 0.25 0 0 1 2.25 2H3a1 1 0 0 0 0 -2H2a2 2 0 0 0 -2 2v1a1 1 0 0 0 1 1Z" fill="#000000" stroke-width="1"></path>
    <path d="M3 22h-0.75a0.25 0.25 0 0 1 -0.25 -0.25V21a1 1 0 0 0 -2 0v1a2 2 0 0 0 2 2h1a1 1 0 0 0 0 -2Z" fill="#000000" stroke-width="1"></path>
    <path d="M22 0h-1a1 1 0 0 0 0 2h0.75a0.25 0.25 0 0 1 0.25 0.25V3a1 1 0 0 0 2 0V2a2 2 0 0 0 -2 -2Z" fill="#000000" stroke-width="1"></path>
    <path d="M23 20a1 1 0 0 0 -1 1v0.75a0.25 0.25 0 0 1 -0.25 0.25H21a1 1 0 0 0 0 2h1a2 2 0 0 0 2 -2v-1a1 1 0 0 0 -1 -1Z" fill="#000000" stroke-width="1"></path>
  </g>
</svg>