<svg xmlns="http://www.w3.org/2000/svg" viewBox="0 0 14 14">
  <g>
    <path d="M9.15,4.75c0-.06,0-.13,0-.19A.28.28,0,0,0,9,4.31,2.24,2.24,0,0,1,7.65,2.25,3.74,3.74,0,0,1,8.05.58a.28.28,0,0,0,0-.2A.28.28,0,0,0,7.91.23,3.5,3.5,0,1,0,6.65,7,3.48,3.48,0,0,0,9.26,5.83a.25.25,0,0,0,.05-.26A2.22,2.22,0,0,1,9.15,4.75Z" style="fill: #000001"/>
    <g>
      <path d="M6.28,9.25a.24.24,0,0,0,0-.23A.22.22,0,0,0,6,8.93a6.64,6.64,0,0,0-5.64,4.4.47.47,0,0,0,.06.46A.49.49,0,0,0,.85,14h4.4a.22.22,0,0,0,.21-.12.23.23,0,0,0,0-.24l-.27-.55a.23.23,0,0,1,0-.18Z" style="fill: #000001"/>
      <path d="M12.93,13.33a6.64,6.64,0,0,0-5.64-4.4A.25.25,0,0,0,7.07,9a.24.24,0,0,0,0,.23l1.1,3.66a.28.28,0,0,1,0,.18l-.28.55a.26.26,0,0,0,0,.24.22.22,0,0,0,.21.12h4.4a.51.51,0,0,0,.41-.21A.5.5,0,0,0,12.93,13.33Z" style="fill: #000001"/>
    </g>
    <path d="M12.15,4.75a.57.57,0,0,1,.31-.51,2.25,2.25,0,1,0-3.31-2,.75.75,0,0,0,1.5,0,.75.75,0,0,1,1.5,0,.75.75,0,0,1-.39.66,2.1,2.1,0,0,0-1.11,1.84.75.75,0,0,0,1.5,0Z" style="fill: #000001"/>
    <circle cx="11.4" cy="7.5" r="1" style="fill: #000001"/>
  </g>
</svg>
