<svg xmlns="http://www.w3.org/2000/svg" viewBox="0 0 14 14">
  <g>
    <path d="M10.52,9.14a.26.26,0,0,0-.3,0,6.31,6.31,0,0,1-.93.58.24.24,0,0,0-.13.15,2.25,2.25,0,0,1-4.32,0,.24.24,0,0,0-.13-.15,6.31,6.31,0,0,1-.93-.58.26.26,0,0,0-.3,0A6,6,0,0,0,1.12,12.8a1,1,0,0,0,.21.83A1,1,0,0,0,2.1,14h9.8a1,1,0,0,0,.77-.37,1,1,0,0,0,.21-.83A6,6,0,0,0,10.52,9.14Z" style="fill: #000001"/>
    <path d="M10.64,5.92a.21.21,0,0,1,.21-.17h.4a.75.75,0,0,0,0-1.5h-.38a.26.26,0,0,1-.24-.19A3.77,3.77,0,0,0,7.94,1.37a.26.26,0,0,1-.19-.24V.75a.75.75,0,0,0-1.5,0v.38a.26.26,0,0,1-.19.24A3.77,3.77,0,0,0,3.37,4.06a.26.26,0,0,1-.24.19H2.75a.75.75,0,0,0,0,1.5h.38a.26.26,0,0,1,.24.19A3.77,3.77,0,0,0,6.06,8.63a.26.26,0,0,1,.19.24v.38a.75.75,0,0,0,1.5,0V8.87a.26.26,0,0,1,.19-.24A3.78,3.78,0,0,0,10.64,5.92ZM9,5.75a.08.08,0,0,1,.07,0,.11.11,0,0,1,0,.08A2.31,2.31,0,0,1,7.87,7.08a.11.11,0,0,1-.08,0,.08.08,0,0,1,0-.07.75.75,0,0,0-1.5,0,.08.08,0,0,1,0,.07.11.11,0,0,1-.08,0A2.31,2.31,0,0,1,4.92,5.87a.11.11,0,0,1,0-.08.08.08,0,0,1,.07,0,.75.75,0,0,0,0-1.5.08.08,0,0,1-.07,0,.11.11,0,0,1,0-.08A2.31,2.31,0,0,1,6.13,2.92a.11.11,0,0,1,.08,0,.08.08,0,0,1,0,.07.75.75,0,0,0,1.5,0,.08.08,0,0,1,0-.07.11.11,0,0,1,.08,0A2.31,2.31,0,0,1,9.08,4.13a.11.11,0,0,1,0,.08.08.08,0,0,1-.07,0,.75.75,0,0,0,0,1.5Z" style="fill: #000001"/>
  </g>
</svg>
