<svg xmlns="http://www.w3.org/2000/svg" viewBox="0 0 32 32" id="User-Woman-Increasing-Arrow--Streamline-Pixel">
  <desc>
    User Woman Increasing Arrow Streamline Icon: https://streamlinehq.com
  </desc>
  <title>user-woman-increasing-arrow</title>
  <g>
    <path d="m25.905 1.52 0 1.52 1.53 0 0 1.53 1.52 0 0 1.52 1.52 0 0 -4.57 -4.57 0z" fill="#000000" stroke-width="1"></path>
    <path d="M16.765 10.66h13.71v1.53h-13.71Z" fill="#000000" stroke-width="1"></path>
    <path d="M25.905 4.57h1.53v1.52h-1.53Z" fill="#000000" stroke-width="1"></path>
    <path d="M24.385 6.09h1.52v1.53h-1.52Z" fill="#000000" stroke-width="1"></path>
    <path d="M22.855 4.57h1.53v1.52h-1.53Z" fill="#000000" stroke-width="1"></path>
    <path d="M21.335 3.04h1.52v1.53h-1.52Z" fill="#000000" stroke-width="1"></path>
    <path d="M19.815 4.57h1.52v1.52h-1.52Z" fill="#000000" stroke-width="1"></path>
    <path d="M18.285 6.09h1.53v1.53h-1.53Z" fill="#000000" stroke-width="1"></path>
    <path d="M16.765 7.62h1.52v1.52h-1.52Z" fill="#000000" stroke-width="1"></path>
    <path d="M13.715 15.23h1.53v9.15h-1.53Z" fill="#000000" stroke-width="1"></path>
    <path d="M12.195 13.71h1.52v1.52h-1.52Z" fill="#000000" stroke-width="1"></path>
    <path d="m4.575 9.14 0 -3.05 1.52 0 0 -1.52 1.53 0 0 -1.53 1.52 0 0 1.53 1.52 0 0 1.52 1.53 0 0 3.05 -1.53 0 0 1.52 3.05 0 0 -1.52 1.53 0 0 -4.57 -1.53 0 0 -3.05 -1.52 0 0 -1.52 -7.62 0 0 1.52 -1.53 0 0 3.05 -1.52 0 0 4.57 1.52 0 0 1.52 3.05 0 0 -1.52 -1.52 0z" fill="#000000" stroke-width="1"></path>
    <path d="M12.2 18.28h-1.53v3.05H6.1v-3.05H4.575v6.1h-1.53v1.52h1.53V32H12.2v-6.1h1.52v-1.52H12.2ZM7.625 30.47H6.1v-3.05h1.53Zm3.04 0h-1.52v-3.05h1.52Z" fill="#000000" stroke-width="1"></path>
    <path d="M10.665 12.19h1.53v1.52h-1.53Z" fill="#000000" stroke-width="1"></path>
    <path d="M7.625 16.76h1.52v1.52h-1.52Z" fill="#000000" stroke-width="1"></path>
    <path d="M7.625 13.71h1.52v1.52h-1.52Z" fill="#000000" stroke-width="1"></path>
    <path d="M6.095 10.66h4.57v1.53h-4.57Z" fill="#000000" stroke-width="1"></path>
    <path d="M4.575 12.19h1.52v1.52h-1.52Z" fill="#000000" stroke-width="1"></path>
    <path d="M3.045 13.71h1.53v1.52h-1.53Z" fill="#000000" stroke-width="1"></path>
    <path d="M1.525 15.23h1.52v9.15h-1.52Z" fill="#000000" stroke-width="1"></path>
  </g>
</svg>