<svg xmlns="http://www.w3.org/2000/svg" fill="none" viewBox="0 0 48 48" id="Strawberry--Streamline-Kameleon">
  <desc>
    Strawberry Streamline Icon: https://streamlinehq.com
  </desc>
  <path fill="#deeeff" d="M23.9989 47.9958c13.2548 0 23.9999 -10.7451 23.9999 -23.9998 0 -13.2548 -10.7451 -23.99990625 -23.9999 -23.99990625S-0.000976562 10.7412 -0.000976562 23.996c0 13.2547 10.745076562 23.9998 23.999876562 23.9998Z" stroke-width="1"></path>
  <path fill="#2e3ecd" d="M35.7803 22.6867c0 6.507 -6.9818 15.2726 -11.7817 15.2726 -4.8 0 -11.7818 -8.7656 -11.7818 -15.2726 0 -6.507 5.2747 -7.4181 11.7818 -7.4181 6.507 0 11.7817 0.9111 11.7817 7.4181Z" stroke-width="1"></path>
  <path fill="#6bafff" d="M23.9991 15.2685c2.6072 0 5.0155 0.1475 6.9674 0.7414 0.7235 -1.1969 0.9975 -2.6592 0.8465 -4.2279 -2.16 -0.0663 -4.196 0.6445 -5.4567 2.3751 -0.1942 -1.5456 -1.0446 -2.9611 -2.3572 -4.1171 -1.3492 1.1883 -2.2045 2.6527 -2.366 4.2485 -1.2554 -1.8306 -3.3216 -2.5746 -5.5413 -2.5065 -0.1519 1.5787 0.127 3.0497 0.8614 4.251 1.9649 -0.6144 4.4037 -0.7645 7.0459 -0.7645Z" stroke-width="1"></path>
  <path fill="#6bafff" d="M29.6719 21.5228c0 -0.6829 0.5537 -1.2362 1.2362 -1.2362 0.6829 0 1.2362 0.5538 1.2362 1.2362 0 0.6829 -1.2362 2.4729 -1.2362 2.4729s-1.2362 -1.79 -1.2362 -2.4729Z" stroke-width="1"></path>
  <path fill="#6bafff" d="M27.9258 27.8505c0 -0.6825 0.5537 -1.2362 1.2362 -1.2362 0.6829 0 1.2362 0.5537 1.2362 1.2362 0 0.6829 -1.2362 2.4728 -1.2362 2.4728s-1.2362 -1.7899 -1.2362 -2.4728Z" stroke-width="1"></path>
  <path fill="#6bafff" d="M17.4531 27.8505c0 -0.6825 0.5538 -1.2362 1.2362 -1.2362 0.6829 0 1.2362 0.5537 1.2362 1.2362 0 0.6829 -1.2362 2.4728 -1.2362 2.4728s-1.2362 -1.7899 -1.2362 -2.4728Z" stroke-width="1"></path>
  <path fill="#6bafff" d="M22.7627 25.8866c0 -0.6829 0.5537 -1.2362 1.2362 -1.2362s1.2362 0.5537 1.2362 1.2362c0 0.6829 -1.2362 2.4729 -1.2362 2.4729s-1.2362 -1.79 -1.2362 -2.4729Z" stroke-width="1"></path>
  <path fill="#6bafff" d="M22.7627 19.7767c0 -0.6829 0.5537 -1.2362 1.2362 -1.2362s1.2362 0.5538 1.2362 1.2362c0 0.6829 -1.2362 2.4729 -1.2362 2.4729s-1.2362 -1.79 -1.2362 -2.4729Z" stroke-width="1"></path>
  <path fill="#6bafff" d="M15.8535 21.5228c0 -0.6829 0.5538 -1.2362 1.2362 -1.2362 0.6829 0 1.2362 0.5538 1.2362 1.2362 0.0005 0.6829 -1.2357 2.4729 -1.2357 2.4729s-1.2367 -1.79 -1.2367 -2.4729Z" stroke-width="1"></path>
  <path fill="#6bafff" d="M22.7627 32.6498c0 -0.6825 0.5533 -1.2362 1.2362 -1.2362s1.2362 0.5537 1.2362 1.2362c0 0.6829 -1.2362 2.4728 -1.2362 2.4728s-1.2362 -1.7899 -1.2362 -2.4728Z" stroke-width="1"></path>
</svg>