<svg xmlns="http://www.w3.org/2000/svg" fill="none" viewBox="0 0 40 40" id="Earpod-Connected--Streamline-Stickies">
  <desc>
    Earpod Connected Streamline Icon: https://streamlinehq.com
  </desc>
  <path fill="#ffe236" stroke="#231f20" stroke-miterlimit="10" d="M34.54 0.569991c-2.88 0.4 -3.67 2.119999 -3.24 3.599999 0.3925 1.12645 0.8809 2.21712 1.46 3.26 -0.2815 0.11225 -0.5381 0.27904 -0.755 0.49079 -0.2169 0.21175 -0.3898 0.46429 -0.5087 0.74308 -0.119 0.27879 -0.1817 0.57835 -0.1844 0.88144 -0.0028 0.3031 0.0543 0.6038 0.1681 0.8847 0.0627 0.342 0.2005 0.6658 0.4034 0.9481 0.2029 0.2823 0.466 0.516 0.7701 0.6844 0.3042 0.1683 0.642 0.2671 0.989 0.2891 0.3469 0.0221 0.6945 -0.0331 1.0175 -0.1616 0.3429 -0.0614 0.6678 -0.1983 0.9513 -0.4007 0.2834 -0.2024 0.5184 -0.4653 0.6878 -0.7696 0.1694 -0.3043 0.269 -0.6425 0.2916 -0.9901 0.0227 -0.34759 -0.0322 -0.69586 -0.1607 -1.01961 -0.4599 -1.46419 -1.0524 -2.88339 -1.77 -4.24 2.61 -0.22 4.24 -0.15 4.45 -1.28 0.21 -1.13 -0.96 -3.4199993 -4.57 -2.919999Z" stroke-width="1"></path>
  <path fill="#48eeff" stroke="#231f20" stroke-miterlimit="10" d="M35.4 16.19c-6 -1.81 -9.64 0.42 -11 5l-1.89 6.26c-1 3.4 -2.11 8.13 -2 9 -0.15 1.63 1.4 2.41 2.63 2.78 1.23 0.37 2.94 0.57 3.73 -0.87 1.1706 -2.3484 2.1342 -4.7943 2.88 -7.31 0.35 0.15 0.71 0.28 1.09 0.4C35.88 33 36.62 29.87 38 25.3s2.49 -7.58 -2.6 -9.11Z" stroke-width="1"></path>
  <path stroke="#231f20" stroke-linecap="round" stroke-miterlimit="10" d="M23.06 34.78c0.4036 0.1976 0.8256 0.3551 1.26 0.47 0.4231 0.1401 0.8583 0.2405 1.3 0.3" stroke-width="1"></path>
  <path stroke="#231f20" stroke-linecap="round" stroke-miterlimit="10" d="M36.64 21.21c-0.478 1.0872 -0.879 2.2066 -1.2 3.35 -0.3651 1.1249 -0.6491 2.2745 -0.85 3.44" stroke-width="1"></path>
  <path stroke="#ffffff" stroke-linecap="round" stroke-miterlimit="10" d="M28 18.9c0.54 -0.5312 1.1863 -0.9421 1.8963 -1.2058 0.7101 -0.2637 1.4679 -0.3742 2.2237 -0.3242" stroke-width="1"></path>
  <path fill="#ff52a1" stroke="#231f20" stroke-miterlimit="10" d="M17.17 18.72c2.66 -3 5.31 -6.16 5.69 -7.12 0.1327 -0.2277 0.219 -0.4793 0.2541 -0.7405 0.0351 -0.2611 0.0183 -0.5266 -0.0496 -0.7812 -0.0678 -0.25465 -0.1853 -0.49335 -0.3457 -0.70242 -0.1603 -0.20907 -0.3604 -0.38439 -0.5888 -0.51589 -1.53 -0.86 -10.13 -4.86 -11.57 -4.66 -0.542 0.00583 -1.06228 0.21434 -1.45833 0.58447 -0.39605 0.37014 -0.63922 0.87511 -0.68166 1.41553 -0.04519 2.40229 0.11203 4.80411 0.47001 7.18001 -1.54019 -1.0343 -3.17801 -1.9152 -4.89 -2.63 -0.49914 -0.1634 -1.04091 -0.1375 -1.52219 0.0728 -0.48128 0.2102 -0.86845 0.59 -1.08782 1.0672 -0.34797 0.3931 -0.540065 0.9 -0.540065 1.425s0.192095 1.0319 0.540065 1.425c0.6 0.79 3.75001 3 7.00001 5.15 -2.55 2.91 -5 5.86 -5.39 6.78 -0.23649 0.4682 -0.29279 1.0069 -0.15821 1.5139 0.13457 0.5069 0.45065 0.9468 0.88821 1.2361 0.3358 0.4014 0.80648 0.6665 1.32379 0.7457 0.51731 0.0791 1.04573 -0.0331 1.4862 -0.3157C8.00069 28.6989 9.34692 27.4096 10.56 26c0.2769 2.3902 0.7587 4.7523 1.44 7.06 0.1574 0.4949 0.4935 0.9135 0.9428 1.1742 0.4492 0.2607 0.9794 0.3447 1.4872 0.2358 1.37 0.11 8.88 -6.3 10.12 -7.51 0.1875 -0.1859 0.3363 -0.4071 0.4378 -0.6509 0.1015 -0.2437 0.1538 -0.5051 0.1538 -0.7691s-0.0523 -0.5254 -0.1538 -0.7692c-0.1015 -0.2437 -0.2503 -0.4649 -0.4378 -0.6508 -0.65 -0.82 -4.03 -3.12 -7.38 -5.4Zm-2.75 -6.95 0.92 0.42 -0.74 0.81c-0.06 -0.43 -0.12 -0.84 -0.18 -1.23Zm1.76 13.17 0.93 0.57 -0.79 0.66c-0.04 -0.4 -0.09 -0.81 -0.14 -1.23Z" stroke-width="1"></path>
  <path stroke="#ffffff" stroke-linecap="round" stroke-miterlimit="10" d="M17.52 8.73999c1.2816 0.37653 2.5036 0.93201 3.63 1.65001" stroke-width="1"></path>
  <path fill="#ffe236" stroke="#231f20" stroke-miterlimit="10" d="M22.98 2.57001c0 0.21274 0.0419 0.4234 0.1233 0.61995s0.2008 0.37513 0.3512 0.52557c0.1504 0.15043 0.329 0.26975 0.5256 0.35117 0.1965 0.08141 0.4072 0.12331 0.6199 0.12331 0.2128 0 0.4234 -0.0419 0.62 -0.12331 0.1965 -0.08142 0.3751 -0.20074 0.5255 -0.35117 0.1505 -0.15044 0.2698 -0.32902 0.3512 -0.52557 0.0814 -0.19655 0.1233 -0.40721 0.1233 -0.61995 0 -0.21274 -0.0419 -0.4234 -0.1233 -0.61994 -0.0814 -0.19655 -0.2007 -0.37514 -0.3512 -0.52557 -0.1504 -0.15043 -0.329 -0.26976 -0.5255 -0.35117 -0.1966 -0.081415 -0.4072 -0.123318 -0.62 -0.123318 -0.2127 0 -0.4234 0.041903 -0.6199 0.123318 -0.1966 0.08141 -0.3752 0.20074 -0.5256 0.35117 -0.1504 0.15043 -0.2698 0.32902 -0.3512 0.52557 -0.0814 0.19654 -0.1233 0.4072 -0.1233 0.61994Z" stroke-width="1"></path>
  <path fill="#ffe236" stroke="#231f20" stroke-miterlimit="10" d="M3.10001 36.33c0 0.323 0.06363 0.6429 0.18725 0.9414 0.12363 0.2985 0.30483 0.5696 0.53326 0.7981 0.22844 0.2284 0.49962 0.4096 0.79809 0.5332 0.29846 0.1237 0.61834 0.1873 0.9414 0.1873 0.32305 0 0.64294 -0.0636 0.9414 -0.1873 0.29846 -0.1236 0.56965 -0.3048 0.79808 -0.5332 0.22843 -0.2285 0.40963 -0.4996 0.53326 -0.7981 0.12363 -0.2985 0.18726 -0.6184 0.18726 -0.9414 0 -0.3231 -0.06363 -0.6429 -0.18726 -0.9414s-0.30483 -0.5697 -0.53326 -0.7981c-0.22843 -0.2284 -0.49962 -0.4096 -0.79808 -0.5332 -0.29846 -0.1237 -0.61835 -0.1873 -0.9414 -0.1873 -0.32306 0 -0.64294 0.0636 -0.9414 0.1873 -0.29847 0.1236 -0.56965 0.3048 -0.79809 0.5332 -0.22843 0.2284 -0.40963 0.4996 -0.53326 0.7981 -0.12362 0.2985 -0.18725 0.6183 -0.18725 0.9414Z" stroke-width="1"></path>
</svg>