<svg xmlns="http://www.w3.org/2000/svg" fill="none" viewBox="-0.5 0 41 41" id="Smart-Tv--Streamline-Stickies">
  <desc>
    Smart Tv Streamline Icon: https://streamlinehq.com
  </desc>
  <path fill="#ff52a1" stroke="#231f20" stroke-miterlimit="10" d="M22.16 9.49999c-0.62 -0.94 -3.39 -1.22 -6.15 -1.27 0.5014 -0.60353 0.9498 -1.24926 1.34 -1.93 0.1452 -0.24887 0.1898 -0.54379 0.1247 -0.82446 -0.065 -0.28068 -0.2349 -0.5259 -0.4747 -0.68554 -0.1916 -0.21969 -0.46 -0.35767 -0.7501 -0.38557 -0.2902 -0.0279 -0.58 0.0564 -0.8099 0.23557 -1.0267 0.89217 -1.9767 1.86893 -2.84 2.92l-0.45 0.53 -0.48 -0.49c-0.927 -0.97178 -1.93024 -1.86797 -3 -2.68 -0.24275 -0.15975 -0.53734 -0.22077 -0.82358 -0.17059 -0.28623 0.05018 -0.5425 0.20779 -0.71642 0.44059 -0.23442 0.17246 -0.39401 0.42803 -0.44607 0.71436 -0.05206 0.28632 0.00736 0.58171 0.16607 0.82564 0.44627 0.64902 0.94817 1.25799 1.5 1.82 -2.75 0.27 -5.49 0.78001 -6 1.76001 -0.83 0.76 -0.76 4.58 -0.63 7.75S2 25 2.93 25.73c0.31172 0.3495 0.72388 0.594 1.18 0.7 -0.15737 0.4748 -0.2843 0.9591 -0.38 1.45 -0.07703 0.2276 -0.10716 0.4685 -0.08858 0.7081 0.01857 0.2396 0.08548 0.473 0.19667 0.686 0.1112 0.2131 0.26438 0.4014 0.45032 0.5536 0.18595 0.1523 0.40079 0.2653 0.63159 0.3323 0.21467 0.1105 0.44968 0.176 0.69057 0.1923 0.2409 0.0163 0.48259 -0.0168 0.71021 -0.0974 0.22761 -0.0805 0.43634 -0.2068 0.61334 -0.371 0.177 -0.1643 0.31853 -0.363 0.41588 -0.5839 0.44531 -0.7405 0.84279 -1.5087 1.19 -2.3 1.54 0.05 3.14 0 4.39 0 1.25 0 2.84 -0.15 4.38 -0.32 0.4115 0.7669 0.869 1.5083 1.37 2.22 0.1158 0.2112 0.2736 0.3966 0.4636 0.5448 0.19 0.1481 0.4082 0.2559 0.6413 0.3168 0.2331 0.0608 0.4762 0.0735 0.7144 0.0371 0.2382 -0.0364 0.4664 -0.121 0.6707 -0.2487 0.2246 -0.0856 0.4296 -0.2158 0.6025 -0.3827 0.173 -0.167 0.3103 -0.3672 0.4038 -0.5887 0.0934 -0.2215 0.141 -0.4596 0.14 -0.6999 -0.0011 -0.2404 -0.0509 -0.4781 -0.1463 -0.6987 -0.1315 -0.4818 -0.2986 -0.9531 -0.5 -1.41 0.4487 -0.1413 0.8408 -0.4214 1.12 -0.8 0.83 -0.75 0.76 -4.58 0.63 -7.74s-0.37 -7.05 -1.26 -7.73001Z" stroke-width="1"></path>
  <path fill="#ffffff" stroke="#231f20" stroke-miterlimit="10" d="M19.42 12.06c-0.66 -1 -4.75 -0.76 -7.13 -0.66 -2.38 0.1 -6.48 0.24 -7 1.25 -0.6 0.51 -0.55 3.12 -0.46 5.28 0.09 2.16 0.25 4.77 0.89 5.23 0.66 0.95 4.75 0.77 7.13 0.67 2.38 -0.1 6.48 -0.25 7.05 -1.25 0.6 -0.52 0.55 -3.13 0.47 -5.29 -0.08 -2.16 -0.31 -4.76 -0.95 -5.23Z" stroke-width="1"></path>
  <path stroke="#ffffff" stroke-linecap="round" stroke-miterlimit="10" d="M18.36 9.58c1.78 0.21 2.28 0.4 2.61 0.71" stroke-width="1"></path>
  <path fill="#48eeff" stroke="#231f20" stroke-miterlimit="10" d="M38.36 22.88c0.34 -2 -2.38 -4.12 -4.18 -5.29 -1.8 -1.17 -4.87 -2.78 -6.53 -1.67 -0.92 0.62 -3.81 4.75 -6.12 8.29 -2.31 3.54 -4.9 7.87 -5.09 8.95 -0.34 2 2.38 4.13 4.18 5.3 1.8 1.17 4.88 2.78 6.53 1.67 0.92 -0.62 3.82 -4.75 6.12 -8.29 2.3 -3.54 4.9 -7.84 5.09 -8.96Z" stroke-width="1"></path>
  <path fill="#ffffff" stroke="#231f20" stroke-miterlimit="10" d="M24.43 25.42c0 0.6133 0.1208 1.2205 0.3555 1.7871 0.2347 0.5666 0.5787 1.0814 1.0123 1.5151 0.4337 0.4336 0.9485 0.7776 1.5151 1.0123 0.5666 0.2347 1.1738 0.3555 1.7871 0.3555s1.2205 -0.1208 1.7871 -0.3555c0.5666 -0.2347 1.0814 -0.5787 1.5151 -1.0123 0.4336 -0.4337 0.7776 -0.9485 1.0123 -1.5151 0.2347 -0.5666 0.3555 -1.1738 0.3555 -1.7871 0 -1.2386 -0.492 -2.4264 -1.3678 -3.3022 -0.8758 -0.8758 -2.0636 -1.3678 -3.3022 -1.3678s-2.4264 0.492 -3.3022 1.3678c-0.8758 0.8758 -1.3678 2.0636 -1.3678 3.3022Z" stroke-width="1"></path>
  <path stroke="#231f20" stroke-linecap="round" stroke-miterlimit="10" d="M19.94 35.23s0.62 0.46 1.92 1.31c1.3 0.85 2 1.23 2 1.23" stroke-width="1"></path>
  <path stroke="#231f20" stroke-linecap="round" stroke-miterlimit="10" d="m29.23 18.08 1.3 0.85" stroke-width="1"></path>
  <path fill="#ffffff" stroke="#231f20" stroke-linecap="round" stroke-miterlimit="10" d="M21.19 30.78c0 0.3103 0.1233 0.6079 0.3427 0.8273 0.2194 0.2194 0.517 0.3427 0.8273 0.3427s0.6079 -0.1233 0.8273 -0.3427c0.2194 -0.2194 0.3427 -0.517 0.3427 -0.8273s-0.1233 -0.6079 -0.3427 -0.8273c-0.2194 -0.2194 -0.517 -0.3427 -0.8273 -0.3427s-0.6079 0.1233 -0.8273 0.3427c-0.2194 0.2194 -0.3427 0.517 -0.3427 0.8273Z" stroke-width="1"></path>
  <path fill="#ffffff" stroke="#231f20" stroke-linecap="round" stroke-miterlimit="10" d="M25.76 33.75c0 0.3103 0.1233 0.6079 0.3427 0.8273 0.2194 0.2194 0.517 0.3427 0.8273 0.3427s0.6079 -0.1233 0.8273 -0.3427c0.2194 -0.2194 0.3427 -0.517 0.3427 -0.8273s-0.1233 -0.6079 -0.3427 -0.8273c-0.2194 -0.2194 -0.517 -0.3427 -0.8273 -0.3427s-0.6079 0.1233 -0.8273 0.3427c-0.2194 0.2194 -0.3427 0.517 -0.3427 0.8273Z" stroke-width="1"></path>
  <path fill="#ffe236" stroke="#231f20" stroke-linecap="round" stroke-miterlimit="10" d="M27.54 25.42c0 0.4137 0.1644 0.8105 0.4569 1.1031 0.2926 0.2925 0.6894 0.4569 1.1031 0.4569 0.4137 0 0.8105 -0.1644 1.1031 -0.4569 0.2925 -0.2926 0.4569 -0.6894 0.4569 -1.1031 0 -0.4137 -0.1644 -0.8105 -0.4569 -1.1031 -0.2926 -0.2925 -0.6894 -0.4569 -1.1031 -0.4569 -0.4137 0 -0.8105 0.1644 -1.1031 0.4569 -0.2925 0.2926 -0.4569 0.6894 -0.4569 1.1031Z" stroke-width="1"></path>
  <path stroke="#231f20" stroke-linecap="round" stroke-miterlimit="10" d="m28.77 23.89 -0.32 -1.52" stroke-width="1"></path>
  <path stroke="#231f20" stroke-linecap="round" stroke-miterlimit="10" d="m29.74 28.46 -0.32 -1.52" stroke-width="1"></path>
  <path stroke="#231f20" stroke-linecap="round" stroke-miterlimit="10" d="m30.62 25.09 1.52 -0.32" stroke-width="1"></path>
  <path stroke="#231f20" stroke-linecap="round" stroke-miterlimit="10" d="m26.05 26.06 1.53 -0.32" stroke-width="1"></path>
  <path stroke="#ffffff" stroke-linecap="round" stroke-miterlimit="10" d="M36.15 20.86c0.9 1 0.91 1.42 0.86 1.72" stroke-width="1"></path>
  <path fill="#ffe236" stroke="#231f20" stroke-miterlimit="10" d="M30.16 6.46999c0.5689 -1.11397 1.0407 -2.27494 1.41 -3.47 0.0298 -0.10512 0.0378 -0.21524 0.0234 -0.32356 -0.0144 -0.10831 -0.0509 -0.21253 -0.1071 -0.30623s-0.131 -0.17489 -0.2198 -0.23856c-0.0888 -0.06367 -0.1897 -0.10847 -0.2965 -0.13165 -0.69 -0.16 -4.51 -0.73 -5 -0.49 -0.2048 0.06473 -0.3789 0.20215 -0.4894 0.38635 -0.1105 0.1842 -0.1499 0.40246 -0.1106 0.61365 0.2525 0.94409 0.5871 1.86427 1 2.75001 -0.7244 -0.22527 -1.4673 -0.3859 -2.22 -0.48001 -0.5 0 -0.77 0.37 -0.89 0.75 -0.0886 0.19364 -0.104 0.41282 -0.0433 0.61693 0.0607 0.20411 0.1933 0.3793 0.3733 0.49307 1.0674 0.49568 2.1746 0.90044 3.31 1.21 -0.5347 1.05059 -0.9796 2.14448 -1.33 3.27001 -0.0416 0.2114 -0.0032 0.4307 0.1076 0.6154 0.1109 0.1847 0.2863 0.3218 0.4924 0.3846 0.1694 0.1089 0.371 0.1564 0.5712 0.1345 0.2002 -0.0218 0.3869 -0.1117 0.5288 -0.2545 0.444 -0.6281 0.8258 -1.2979 1.14 -2 0.3814 0.8992 0.8363 1.7655 1.36 2.59 0.1199 0.1731 0.2991 0.2962 0.5037 0.3459 0.2046 0.0498 0.4203 0.0228 0.6063 -0.0759 0.55 -0.11 2.75 -3.47001 3.1 -4.09001 0.0524 -0.09427 0.0855 -0.19807 0.0972 -0.30529 0.0118 -0.10723 0.002 -0.21572 -0.0287 -0.31911 -0.0308 -0.1034 -0.0819 -0.19961 -0.1503 -0.283 -0.0684 -0.08338 -0.1528 -0.15226 -0.2482 -0.2026 -1.1289 -0.49127 -2.2961 -0.88927 -3.49 -1.19Zm-1.87 -2.4 0.41 0.06001c-0.06 0.13 -0.13 0.25999 -0.2 0.38999l-0.21 -0.45Zm2.2 4.93 0.43 0.11 -0.24 0.35001 -0.19 -0.46001Z" stroke-width="1"></path>
  <path fill="#ffe236" stroke="#231f20" stroke-miterlimit="10" d="M35.63 13.04c0 0.3686 0.1464 0.7222 0.4071 0.9829 0.2607 0.2606 0.6142 0.4071 0.9829 0.4071s0.7222 -0.1465 0.9829 -0.4071c0.2607 -0.2607 0.4071 -0.6143 0.4071 -0.9829 0 -0.3687 -0.1464 -0.7222 -0.4071 -0.9829 -0.2607 -0.2607 -0.6142 -0.4071 -0.9829 -0.4071s-0.7222 0.1464 -0.9829 0.4071c-0.2607 0.2607 -0.4071 0.6142 -0.4071 0.9829Z" stroke-width="1"></path>
  <path fill="#ffe236" stroke="#231f20" stroke-miterlimit="10" d="M9.07 33.75c0 0.4562 0.18121 0.8937 0.50378 1.2162 0.32256 0.3226 0.76002 0.5038 1.21622 0.5038 0.4562 0 0.8937 -0.1812 1.2162 -0.5038 0.3226 -0.3225 0.5038 -0.76 0.5038 -1.2162 0 -0.4562 -0.1812 -0.8937 -0.5038 -1.2162 -0.3225 -0.3226 -0.76 -0.5038 -1.2162 -0.5038 -0.4562 0 -0.89366 0.1812 -1.21622 0.5038 -0.32257 0.3225 -0.50378 0.76 -0.50378 1.2162Z" stroke-width="1"></path>
</svg>