<svg xmlns="http://www.w3.org/2000/svg" fill="none" viewBox="0 0 24 24" id="Day-Snow--Streamline-Cyber">
  <desc>
    Day Snow Streamline Icon: https://streamlinehq.com
  </desc>
  <path stroke="#092f63" stroke-linecap="round" stroke-linejoin="round" stroke-miterlimit="10" d="M5.5 1.5v-1" stroke-width="1"></path>
  <path stroke="#092f63" stroke-linecap="round" stroke-linejoin="round" stroke-miterlimit="10" d="M0.5 6.5h1" stroke-width="1"></path>
  <path stroke="#092f63" stroke-linecap="round" stroke-linejoin="round" stroke-miterlimit="10" d="m1.5 10.5 0.818 -0.81799" stroke-width="1"></path>
  <path stroke="#092f63" stroke-linecap="round" stroke-linejoin="round" stroke-miterlimit="10" d="m9.49988 2.5 -0.818 0.818" stroke-width="1"></path>
  <path stroke="#092f63" stroke-linecap="round" stroke-linejoin="round" stroke-miterlimit="10" d="m1.5 2.5 0.818 0.818" stroke-width="1"></path>
  <path stroke="#092f63" stroke-linecap="round" stroke-linejoin="round" stroke-miterlimit="10" d="M4.012 7.641 3.5 7.345v-2.19L5.5 4l2 1.155V6.5" stroke-width="1"></path>
  <path stroke="#092f63" stroke-linejoin="round" stroke-miterlimit="10" d="M21 10.5h-2.5l-2.5 -5h-4l-2.5 3H6L2.5 13 6 16.5h14l2.5 -2.5 -1.5 -3.5Z" stroke-width="1"></path>
  <path stroke="#092f63" stroke-linecap="round" stroke-linejoin="round" stroke-miterlimit="10" d="M15.5 10.5h3" stroke-width="1"></path>
  <path stroke="#092f63" stroke-linecap="round" stroke-linejoin="round" d="m7.00293 18.491 0.505 0.505 -0.505 0.504" stroke-width="1"></path>
  <path stroke="#092f63" stroke-linecap="round" stroke-linejoin="round" d="m7.00305 18.491 -0.505 0.505 0.505 0.504" stroke-width="1"></path>
  <path stroke="#092f63" stroke-linecap="round" stroke-linejoin="round" d="m12.0061 18.491 0.505 0.505 -0.505 0.504" stroke-width="1"></path>
  <path stroke="#092f63" stroke-linecap="round" stroke-linejoin="round" d="m12.006 18.491 -0.505 0.505 0.505 0.504" stroke-width="1"></path>
  <path stroke="#092f63" stroke-linecap="round" stroke-linejoin="round" d="m17.01 18.491 0.504 0.505 -0.505 0.504" stroke-width="1"></path>
  <path stroke="#092f63" stroke-linecap="round" stroke-linejoin="round" d="m17.0099 18.491 -0.506 0.505 0.505 0.504" stroke-width="1"></path>
  <path stroke="#092f63" stroke-linecap="round" stroke-linejoin="round" d="m5.00391 21.5 0.505 0.505 -0.505 0.505" stroke-width="1"></path>
  <path stroke="#092f63" stroke-linecap="round" stroke-linejoin="round" d="m5.00402 21.5 -0.505 0.505 0.505 0.505" stroke-width="1"></path>
  <path stroke="#092f63" stroke-linecap="round" stroke-linejoin="round" d="m10.0071 21.5 0.505 0.505 -0.505 0.505" stroke-width="1"></path>
  <path stroke="#092f63" stroke-linecap="round" stroke-linejoin="round" d="m10.007 21.5 -0.50505 0.505 0.50505 0.505" stroke-width="1"></path>
  <path stroke="#092f63" stroke-linecap="round" stroke-linejoin="round" d="m15.01 21.5 0.505 0.505 -0.505 0.505" stroke-width="1"></path>
  <path stroke="#092f63" stroke-linecap="round" stroke-linejoin="round" d="m15.0099 21.5 -0.505 0.505 0.505 0.505" stroke-width="1"></path>
</svg>