<svg xmlns="http://www.w3.org/2000/svg" fill="none" viewBox="0 0 14 14" id="Beach--Streamline-Core-Remix">
  <desc>
    Beach Streamline Icon: https://streamlinehq.com
  </desc>
  <g id="Free Remix/Map Travel/beach--island-waves-outdoor-recreation-tree-beach-palm-wave-water-travel-places">
    <path id="Union" fill="#000000" fill-rule="evenodd" d="M7.06276 3.6379c-0.03192 0.00772 -0.0637 0.01619 -0.09534 0.02541 -0.47447 0.13833 -0.88588 0.43772 -1.16344 0.84664 -0.2714 0.39984 -0.81555 0.50396 -1.21539 0.23256s-0.50396 -0.81555 -0.23256 -1.21539c0.50614 -0.74567 1.25636 -1.29161 2.12156 -1.54386 0.0686 -0.02 0.13758 -0.03806 0.20687 -0.05417 -0.24487 -0.06318 -0.50293 -0.07167 -0.75542 -0.02196 -0.47414 0.09337 -0.9342 -0.21532 -1.02756 -0.68946 -0.09336 -0.474147 0.21532 -0.934203 0.68947 -1.027566 0.86807 -0.1709314 1.76865 -0.002329 2.5161 0.471057 0.44122 0.279439 0.80923 0.652509 1.08126 1.087749 0.49387 -0.16878 1.02219 -0.2312 1.54969 -0.17788 0.886 0.08958 1.7089 0.49956 2.314 1.15296 0.3283 0.35456 0.3071 0.90817 -0.0475 1.23653 -0.3545 0.32836 -0.9081 0.30712 -1.2365 -0.04744 -0.2399 -0.25907 -0.5455 -0.44472 -0.8813 -0.53928 0.0546 0.073 0.1064 0.1484 0.1554 0.22608 0.4736 0.75186 0.6366 1.65838 0.4543 2.52812 -0.0991 0.47297 -0.5629 0.77605 -1.0359 0.67693 -0.47293 -0.09911 -0.77601 -0.56288 -0.6769 -1.03586 0.08914 -0.42534 0.00946 -0.86868 -0.22219 -1.23638 -0.22544 -0.35785 -0.57767 -0.6168 -0.98551 -0.72557 -0.36718 0.3116 -0.67437 0.76173 -0.91321 1.34015 -0.2752 0.66647 -0.44523 1.47138 -0.51093 2.34427 0.41917 0.09798 0.8281 0.24023 1.21971 0.42519 0.52534 0.24811 1.01113 0.5691 1.44357 0.95222 0.25836 0.2289 0.28226 0.62391 0.05336 0.88227 -0.22889 0.25838 -0.6239 0.28228 -0.88227 0.05336 -0.34405 -0.3048 -0.73053 -0.56018 -1.14848 -0.75757 -0.4346 -0.20526 -0.896 -0.34442 -1.36895 -0.41406 -0.03646 -0.00181 -0.07207 -0.00673 -0.10658 -0.01449 -0.19925 -0.02485 -0.40033 -0.0374 -0.60212 -0.0374 -0.71845 0 -1.42799 0.15912 -2.07764 0.46595 -0.64964 0.30682 -1.22327 0.75372 -1.67966 1.30859 -0.21927 0.2666 -0.61314 0.3049 -0.87972 0.0857 -0.266587 -0.2193 -0.304943 -0.61316 -0.08567 -0.87975 0.57366 -0.69744 1.29467 -1.25916 2.11123 -1.64482 0.81656 -0.38566 1.70841 -0.58567 2.61146 -0.58567 0.05016 0 0.10028 0.00062 0.15035 0.00185 0.07683 -0.9502 0.26801 -1.86608 0.59696 -2.66272 0.15172 -0.36741 0.33568 -0.71597 0.55545 -1.03229ZM4.125 11.375c0 -0.3452 -0.27982 -0.625 -0.625 -0.625s-0.625 0.2798 -0.625 0.625c0 0.6213 -0.50368 1.125 -1.125 1.125 -0.17368 0 -0.33653 -0.0389 -0.48182 -0.1079 -0.19363 -0.092 -0.420895 -0.0784 -0.602104 0.0362 -0.18121 0.1145 -0.291076 0.3139 -0.291076 0.5283v0.4184c0 0.3452 0.279822 0.625 0.625 0.625h12c0.3452 0 0.625 -0.2798 0.625 -0.625v-0.4184c0 -0.2144 -0.1099 -0.4138 -0.2911 -0.5283 -0.1812 -0.1146 -0.4085 -0.1282 -0.6021 -0.0362 -0.1453 0.069 -0.3081 0.1079 -0.4818 0.1079 -0.6213 0 -1.125 -0.5037 -1.125 -1.125 0 -0.3452 -0.2798 -0.625 -0.625 -0.625s-0.625 0.2798 -0.625 0.625c0 0.6213 -0.50368 1.125 -1.125 1.125s-1.125 -0.5037 -1.125 -1.125c0 -0.3452 -0.27982 -0.625 -0.625 -0.625s-0.625 0.2798 -0.625 0.625c0 0.6213 -0.50368 1.125 -1.125 1.125s-1.125 -0.5037 -1.125 -1.125Z" clip-rule="evenodd" stroke-width="1"></path>
  </g>
</svg>