<svg xmlns="http://www.w3.org/2000/svg" fill="none" viewBox="0 0 14 14" id="Braille-Blind--Streamline-Core-Remix">
  <desc>
    Braille Blind Streamline Icon: https://streamlinehq.com
  </desc>
  <g id="Free Remix/Map Travel/braille-blind--disability-braille-blind">
    <path id="Union" fill="#000000" fill-rule="evenodd" d="M2.375 1.25c0 -0.552283 -0.44772 -1 -1 -1 -0.552283 0 -1 0.447717 -1 1 0 0.55228 0.447717 1 1 1 0.55228 0 1 -0.44772 1 -1Zm3.5 1c-0.55228 0 -1 -0.44772 -1 -1 0 -0.552283 0.44772 -1 1 -1s1 0.447717 1 1c0 0.55228 -0.44772 1 -1 1Zm6.75 0c-0.5523 0 -1 -0.44772 -1 -1 0 -0.552283 0.4477 -1 1 -1s1 0.447717 1 1c0 0.55228 -0.4477 1 -1 1Zm0 3c-0.5523 0 -1 -0.44772 -1 -1s0.4477 -1 1 -1 1 0.44772 1 1 -0.4477 1 -1 1Zm-2.75 0c-0.55228 0 -1 -0.44772 -1 -1s0.44772 -1 1 -1c0.5523 0 1 0.44772 1 1s-0.4477 1 -1 1Zm-8.5 0c-0.552283 0 -1 -0.44772 -1 -1s0.447717 -1 1 -1c0.55228 0 1 0.44772 1 1s-0.44772 1 -1 1Zm0.15262 4.5885c-0.636692 0.6367 -0.678041 1.6555 -0.09503 2.3417l1.35897 1.5995c0.22349 0.263 0.61792 0.2951 0.88097 0.0716 0.26306 -0.2235 0.29512 -0.6179 0.07163 -0.881l-1.35897 -1.5995c-0.16145 -0.19 -0.15 -0.4721 0.02631 -0.6484 0.18695 -0.187 0.49005 -0.187 0.677 0l1.21956 1.2195c0.17875 0.1788 0.44757 0.2323 0.68112 0.1355 0.23354 -0.0967 0.38582 -0.3246 0.38582 -0.5774l0 -6.25c0 -0.34518 0.27982 -0.625 0.625 -0.625s0.625 0.27982 0.625 0.625v3.84702c0 0.16777 0.06744 0.32849 0.18716 0.44601 0.11972 0.11752 0.28165 0.18199 0.44939 0.17889l2.34273 -0.0433C10.774 9.657 11.6988 10.664 11.5779 11.8276l-0.1541 1.4828c-0.0357 0.3433 0.2137 0.6506 0.5571 0.6863 0.3433 0.0356 0.6505 -0.2138 0.6862 -0.5571l0.1541 -1.4828c0.1984 -1.9103 -1.3198 -3.56345 -3.24002 -3.52797L7.875 8.46037V5.25c0 -1.03554 -0.83947 -1.875 -1.875 -1.875s-1.875 0.83946 -1.875 1.875l0 4.74112 -0.15262 -0.15262c-0.6751 -0.67511 -1.76966 -0.67511 -2.44476 0ZM0.375 7.25c0 0.55228 0.447717 1 1 1 0.55228 0 1 -0.44772 1 -1s-0.44772 -1 -1 -1c-0.552283 0 -1 0.44772 -1 1Z" clip-rule="evenodd" stroke-width="1"></path>
  </g>
</svg>