<svg xmlns="http://www.w3.org/2000/svg" fill="none" viewBox="0 0 14 14" id="Bus--Streamline-Core-Remix">
  <desc>
    Bus Streamline Icon: https://streamlinehq.com
  </desc>
  <g id="Free Remix/Map Travel/bus--transportation-travel-bus-transit-transport-motorcoach-public">
    <path id="Union" fill="#000000" fill-rule="evenodd" d="M3 0.375c-0.89746 0 -1.625 0.72754 -1.625 1.625v2.875h-0.75C0.279822 4.875 0 5.15482 0 5.5s0.279822 0.625 0.625 0.625h0.75V10.5c0 0.8124 0.59623 1.4856 1.375 1.6059V13c0 0.4142 0.33579 0.75 0.75 0.75s0.75 -0.3358 0.75 -0.75v-0.875h5.5V13c0 0.4142 0.3358 0.75 0.75 0.75s0.75 -0.3358 0.75 -0.75v-0.8941c0.7788 -0.1203 1.375 -0.7935 1.375 -1.6059V6.125h0.75c0.3452 0 0.625 -0.27982 0.625 -0.625s-0.2798 -0.625 -0.625 -0.625h-0.75V2c0 -0.89746 -0.7275 -1.625 -1.625 -1.625H3ZM11.375 5.5V2c0 -0.20711 -0.1679 -0.375 -0.375 -0.375H3c-0.20711 0 -0.375 0.16789 -0.375 0.375v8.5c0 0.2071 0.16789 0.375 0.375 0.375h8c0.2071 0 0.375 -0.1679 0.375 -0.375v-5Zm-7.5 1c0 0.27614 0.22386 0.5 0.5 0.5h5.25c0.27614 0 0.5 -0.22386 0.5 -0.5V3.375c0 -0.27614 -0.22386 -0.5 -0.5 -0.5h-5.25c-0.27614 0 -0.5 0.22386 -0.5 0.5V6.5ZM3.625 9c0 0.55229 0.44772 1 1 1s1 -0.44771 1 -1 -0.44772 -1 -1 -1 -1 0.44771 -1 1Zm4.75 0c0 0.55229 0.44771 1 1 1s1 -0.44771 1 -1 -0.44771 -1 -1 -1 -1 0.44771 -1 1Z" clip-rule="evenodd" stroke-width="1"></path>
  </g>
</svg>