<svg xmlns="http://www.w3.org/2000/svg" fill="none" viewBox="0 0 14 14" id="Camping-Tent--Streamline-Core-Remix">
  <desc>
    Camping Tent Streamline Icon: https://streamlinehq.com
  </desc>
  <g id="Free Remix/Map Travel/camping-tent--outdoor-recreation-camping-tent-teepee-tipi-travel-places">
    <path id="Union" fill="#000000" fill-rule="evenodd" d="M6.03 0.668773C5.84706 0.376063 5.46146 0.28708 5.16875 0.470024c-0.29271 0.182944 -0.38169 0.568536 -0.19875 0.861246l1.29297 2.06875L0.470001 12.6688c-0.120417 0.1926 -0.126793 0.4355 -0.016652 0.6342 0.110141 0.1987 0.319448 0.322 0.546651 0.322h12c0.2272 0 0.4365 -0.1233 0.5467 -0.322 0.1101 -0.1987 0.1037 -0.4416 -0.0167 -0.6342L7.73703 3.40002 9.03 1.33127c0.18294 -0.29271 0.09396 -0.678302 -0.19875 -0.861246S8.15295 0.376063 7.97 0.668773L7 2.22078 6.03 0.668773ZM2.12766 12.375 7 4.57927l4.8723 7.79573H7.875V10c0 -0.48323 -0.39175 -0.87498 -0.875 -0.87498s-0.875 0.39175 -0.875 0.87498v2.375H2.12766Z" clip-rule="evenodd" stroke-width="1"></path>
  </g>
</svg>