<svg xmlns="http://www.w3.org/2000/svg" fill="none" viewBox="0 0 14 14" id="Car-Taxi-1--Streamline-Core-Remix">
  <desc>
    Car Taxi 1 Streamline Icon: https://streamlinehq.com
  </desc>
  <g id="Free Remix/Map Travel/car-taxi-1--transportation-travel-taxi-transport-cab-car">
    <path id="Union" fill="#000000" fill-rule="evenodd" d="M6 0.875c-0.34518 0 -0.625 0.27982 -0.625 0.625v1.375H4.1594c-0.65005 0 -1.23755 0.3874 -1.49361 0.98488L1.5877 6.37542C0.707464 6.39525 0 7.115 0 8v2c0 0.8884 0.712839 1.6102 1.59772 1.6248 0.26276 0.7986 1.01466 1.3751 1.90122 1.3751 0.88648 0 1.63832 -0.5764 1.90115 -1.3749H8.5978c0.26283 0.7985 1.01467 1.3749 1.9011 1.3749 0.8866 0 1.6385 -0.5765 1.9012 -1.3751C13.286 11.6114 14 10.8891 14 10V8c0 -0.89746 -0.7275 -1.625 -1.625 -1.625h-1.9629L9.33421 3.85988C9.07815 3.26239 8.49065 2.875 7.8406 2.875H6.625V1.5c0 -0.34518 -0.27982 -0.625 -0.625 -0.625Zm-1.8406 3.25h3.6812c0.15001 0 0.28559 0.0894 0.34468 0.22728L9.42553 7.2462c0.09849 0.2298 0.32445 0.3788 0.57447 0.3788h2.375c0.2071 0 0.375 0.16789 0.375 0.375v2c0 0.1985 -0.1543 0.361 -0.3494 0.3741 -0.2625 -0.79918 -1.0147 -1.3763 -1.9017 -1.3763 -0.88728 0 -1.6397 0.57753 -1.90185 1.3772H5.40083c-0.26214 -0.79967 -1.01457 -1.3772 -1.90189 -1.3772 -0.88695 0 -1.63912 0.57705 -1.90157 1.3762 -0.1942 -0.0141 -0.34737 -0.1762 -0.34737 -0.374V8c0 -0.20711 0.16789 -0.375 0.375 -0.375H2c0.25002 0 0.47598 -0.149 0.57447 -0.3788l1.24025 -2.89392c0.05909 -0.13788 0.19467 -0.22728 0.34468 -0.22728Zm0.23495 3.5c-0.35896 0 -0.60098 -0.36703 -0.45958 -0.69696l0.58929 -1.375c0.07879 -0.18384 0.25956 -0.30304 0.45957 -0.30304h2.03272c0.20001 0 0.38078 0.1192 0.45957 0.30304l0.58929 1.375c0.1414 0.32993 -0.10062 0.69696 -0.45957 0.69696H4.39435Z" clip-rule="evenodd" stroke-width="1"></path>
  </g>
</svg>