<svg xmlns="http://www.w3.org/2000/svg" fill="none" viewBox="0 0 14 14" id="Car-Battery-Charging--Streamline-Core-Remix">
  <desc>
    Car Battery Charging Streamline Icon: https://streamlinehq.com
  </desc>
  <g id="Free Remix/Map Travel/car-battery-charging">
    <path id="Union" fill="#000000" fill-rule="evenodd" d="M2.25 1.5c-0.27614 0 -0.5 0.22386 -0.5 0.5v1.5h-0.125C0.727537 3.5 0 4.22754 0 5.125v7.25C0 13.2725 0.727537 14 1.625 14h10.75c0.8975 0 1.625 -0.7275 1.625 -1.625v-7.25c0 -0.89746 -0.7275 -1.625 -1.625 -1.625h-0.125V2c0 -0.27614 -0.2239 -0.5 -0.5 -0.5h-2.5c-0.27614 0 -0.5 0.22386 -0.5 0.5v1.5h-3.5V2c0 -0.27614 -0.22386 -0.5 -0.5 -0.5h-2.5Zm-0.625 3.25c-0.20711 0 -0.375 0.16789 -0.375 0.375v7.25c0 0.2071 0.16789 0.375 0.375 0.375h10.75c0.2071 0 0.375 -0.1679 0.375 -0.375v-7.25c0 -0.20711 -0.1679 -0.375 -0.375 -0.375H1.625Zm6.11898 2.04851c0.2339 -0.34185 0.14639 -0.80859 -0.19547 -1.04249 -0.34185 -0.2339 -0.80859 -0.14639 -1.04249 0.19547l-1.625 2.375c-0.15711 0.22961 -0.1742 0.52733 -0.0444 0.77341 0.1298 0.24609 0.38516 0.4001 0.66338 0.4001h1.57809l-0.82207 1.2015c-0.2339 0.3418 -0.14639 0.8086 0.19547 1.0425 0.34185 0.2339 0.80859 0.1464 1.04249 -0.1955l1.625 -2.37499c0.15711 -0.22961 0.17419 -0.52733 0.0444 -0.77341C9.03358 8.15401 8.77822 8 8.5 8H6.92191l0.82207 -1.20149Z" clip-rule="evenodd" stroke-width="1"></path>
  </g>
</svg>