<svg xmlns="http://www.w3.org/2000/svg" fill="none" viewBox="0 0 14 14" id="Hearing-Deaf-1--Streamline-Core-Remix">
  <desc>
    Hearing Deaf 1 Streamline Icon: https://streamlinehq.com
  </desc>
  <g id="Free Remix/Map Travel/hearing-deaf-1--disability-hearing-deaf">
    <path id="Union" fill="#000000" fill-rule="evenodd" d="M3.80805 2.92417C4.49573 2.05552 5.55822 1.5 6.74993 1.5c2.06999 0 3.74997 1.68283 3.74997 3.75498 0 0.75764 -0.301 1.48544 -0.83626 2.02066 -0.20072 0.20071 -0.49323 0.49349 -0.75178 0.75233l-5.10381 -5.1038ZM2.74237 1.85849C3.70466 0.722604 5.14267 0 6.74993 0c2.90058 0 5.24997 2.35657 5.24997 5.25498 0 1.15473 -0.4586 2.26428 -1.2756 3.08132 -0.2006 0.20062 -0.4932 0.49347 -0.75178 0.75233l3.84188 3.84187c0.2441 0.2441 0.2441 0.6398 0 0.8839 -0.2441 0.2441 -0.6398 0.2441 -0.8839 0L0.185499 1.06938c-0.2440768 -0.244075 -0.2440768 -0.639803 0 -0.88388 0.244078 -0.244078 0.639807 -0.244078 0.883881 0l1.67299 1.67299Zm3.88255 0.51651c-0.41421 0 -0.75 0.33579 -0.75 0.75s0.33579 0.75 0.75 0.75c0.82843 0 1.5 0.67157 1.5 1.5 0 0.41421 0.33579 0.75 0.75 0.75s0.75 -0.33579 0.75 -0.75c0 -1.65685 -1.34315 -3 -3 -3Zm-4.125 7.375c0.34518 0 0.625 0.2798 0.625 0.625 0 1.3117 1.06332 2.375 2.375 2.375 0.96447 0 1.79601 -0.575 2.16801 -1.4035 0.14138 -0.3148 0.51127 -0.4555 0.82616 -0.3141 0.3149 0.1414 0.45555 0.5113 0.31416 0.8262C8.24201 13.1197 6.97445 14 5.49992 14c-2.00203 0 -3.625 -1.623 -3.625 -3.625 0 -0.3452 0.27982 -0.625 0.625 -0.625Z" clip-rule="evenodd" stroke-width="1"></path>
  </g>
</svg>