<svg xmlns="http://www.w3.org/2000/svg" fill="none" viewBox="0 0 14 14" id="Hotel-Air-Conditioner--Streamline-Core-Remix">
  <desc>
    Hotel Air Conditioner Streamline Icon: https://streamlinehq.com
  </desc>
  <g id="Free Remix/Map Travel/hotel-air-conditioner--heating-ac-air-hvac-cool-cooling-cold-hot-conditioning-hotel">
    <path id="Union" fill="#000000" fill-rule="evenodd" d="M1.625 2c0 -0.20711 0.16789 -0.375 0.375 -0.375h10c0.2071 0 0.375 0.16789 0.375 0.375v4.5c0 0.20711 -0.1679 0.375 -0.375 0.375h-1V6c0 -0.39783 -0.158 -0.77936 -0.4393 -1.06066C10.2794 4.65804 9.89783 4.5 9.5 4.5h-5c-0.39783 0 -0.77936 0.15804 -1.06066 0.43934C3.15804 5.22064 3 5.60218 3 6v0.875H2c-0.20711 0 -0.375 -0.16789 -0.375 -0.375V2ZM2 0.375C1.10254 0.375 0.375 1.10254 0.375 2v4.5c0 0.89746 0.72754 1.625 1.625 1.625h10c0.8975 0 1.625 -0.72754 1.625 -1.625V2c0 -0.89746 -0.7275 -1.625 -1.625 -1.625H2ZM4.75 9.5c0 -0.41421 -0.33579 -0.75 -0.75 -0.75s-0.75 0.33579 -0.75 0.75v1.1c0 0.359 -0.29101 0.65 -0.65 0.65h-0.1c-0.41421 0 -0.75 0.3358 -0.75 0.75s0.33579 0.75 0.75 0.75h0.1c1.18741 0 2.15 -0.9626 2.15 -2.15V9.5ZM10 8.75c-0.41421 0 -0.75 0.33579 -0.75 0.75v1.1c0 1.1874 0.9626 2.15 2.15 2.15h0.1c0.4142 0 0.75 -0.3358 0.75 -0.75s-0.3358 -0.75 -0.75 -0.75h-0.1c-0.359 0 -0.65 -0.291 -0.65 -0.65V9.5c0 -0.41421 -0.3358 -0.75 -0.75 -0.75Zm-2.25 0.75c0 -0.41421 -0.33579 -0.75 -0.75 -0.75s-0.75 0.33579 -0.75 0.75V13c0 0.4142 0.33579 0.75 0.75 0.75s0.75 -0.3358 0.75 -0.75V9.5Z" clip-rule="evenodd" stroke-width="1"></path>
  </g>
</svg>