<svg xmlns="http://www.w3.org/2000/svg" fill="none" viewBox="0 0 14 14" id="Information-Desk-Customer--Streamline-Core-Remix">
  <desc>
    Information Desk Customer Streamline Icon: https://streamlinehq.com
  </desc>
  <g id="Free Remix/Map Travel/information-desk-customer">
    <path id="Union" fill="#000000" fill-rule="evenodd" d="M2.625 2.625c0 -0.75939 0.61561 -1.375 1.375 -1.375s1.375 0.61561 1.375 1.375S4.75939 4 4 4s-1.375 -0.61561 -1.375 -1.375Zm4 0c0 0.71645 -0.28703 1.36587 -0.75236 1.83952C7.13813 5.13621 8 6.46745 8 8v1.375c0 0.34518 -0.27982 0.625 -0.625 0.625H6.30174l-0.43157 3.4525C5.83108 13.7653 5.5652 14 5.25 14h-2.5c-0.3152 0 -0.58108 -0.2347 -0.62017 -0.5475L1.69826 10H0.625C0.279822 10 0 9.72018 0 9.375V8c0 -1.53255 0.861874 -2.86379 2.12736 -3.53548C1.66203 3.99087 1.375 3.34145 1.375 2.625 1.375 1.17525 2.55025 0 4 0s2.625 1.17525 2.625 2.625ZM10.5 1.25c-0.55229 0 -1 0.44772 -1 1s0.44771 1 1 1c0.5523 0 1 -0.44772 1 -1s-0.4477 -1 -1 -1Zm-2.25 1C8.25 1.00736 9.25736 0 10.5 0c1.2426 0 2.25 1.00736 2.25 2.25 0 0.5537 -0.2 1.06069 -0.5317 1.45266 1.0623 0.60031 1.7795 1.74007 1.7795 3.04734 0 0.34518 -0.2798 0.625 -0.625 0.625H9.49997c-0.34518 0 -0.625 -0.27982 -0.625 -0.625 0 -0.34517 0.27982 -0.625 0.625 -0.625h3.15973c-0.2707 -0.93734 -1.1352 -1.6228 -2.1597 -1.6228 -0.55952 0 -1.06987 0.2036 -1.46344 0.54155 -0.26188 0.22488 -0.65647 0.19488 -0.88134 -0.067 -0.22487 -0.26188 -0.19487 -0.65647 0.06701 -0.88134 0.17262 -0.14823 0.35998 -0.27995 0.55955 -0.39268C8.45003 3.31075 8.25 2.80374 8.25 2.25Z" clip-rule="evenodd" stroke-width="1"></path>
  </g>
</svg>