<svg xmlns="http://www.w3.org/2000/svg" fill="none" viewBox="0 0 14 14" id="Information-Desk--Streamline-Core-Remix">
  <desc>
    Information Desk Streamline Icon: https://streamlinehq.com
  </desc>
  <g id="Free Remix/Map Travel/information-desk">
    <path id="Union" fill="#000000" fill-rule="evenodd" d="M10.625 1.25c0 0.48325 0.3918 0.875 0.875 0.875s0.875 -0.39175 0.875 -0.875c0 -0.483249 -0.3918 -0.875 -0.875 -0.875s-0.875 0.391751 -0.875 0.875Zm-0.75 2.25c0 -0.34518 0.2798 -0.625 0.625 -0.625h1c0.3452 0 0.625 0.27982 0.625 0.625v2.375H13c0.3452 0 0.625 0.27982 0.625 0.625s-0.2798 0.625 -0.625 0.625h-3c-0.34518 0 -0.625 -0.27982 -0.625 -0.625s0.27982 -0.625 0.625 -0.625h0.875v-1.75H10.5c-0.3452 0 -0.625 -0.27982 -0.625 -0.625ZM3.87476 6.37499C3.87476 5.6156 4.49036 5 5.24975 5c0.75938 0 1.37499 0.6156 1.37499 1.37499 0 0.75939 -0.61561 1.37499 -1.37499 1.37499 -0.75939 0 -1.37499 -0.6156 -1.37499 -1.37499ZM5.24975 3.75C3.8 3.75 2.62476 4.92525 2.62476 6.37499S3.8 8.99998 5.24975 8.99998c1.44974 0 2.62499 -1.17525 2.62499 -2.62499S6.69949 3.75 5.24975 3.75Zm-4.19753 8.625C1.70386 10.693 3.33694 9.5 5.24971 9.5c1.91278 0 3.54585 1.193 4.1975 2.875H13.375c0.3452 0 0.625 0.2798 0.625 0.625s-0.2798 0.625 -0.625 0.625H0.625C0.279822 13.625 0 13.3452 0 13s0.279822 -0.625 0.625 -0.625h0.42722Z" clip-rule="evenodd" stroke-width="1"></path>
  </g>
</svg>