<svg xmlns="http://www.w3.org/2000/svg" fill="none" viewBox="0 0 14 14" id="Navigation-Arrow-Off--Streamline-Core-Remix">
  <desc>
    Navigation Arrow Off Streamline Icon: https://streamlinehq.com
  </desc>
  <g id="Free Remix/Map Travel/navigation-arrow-off--compass-arrow-map-bearing-navigation-maps-heading-gps-off-disable">
    <path id="Union" fill="#000000" fill-rule="evenodd" d="M0.185579 0.1855c-0.2440764 0.244077 -0.2440764 0.639805 0 0.88388L3.96253 4.84633c0.00685 0.00719 0.01386 0.0142 0.02102 0.02102l4.91627 4.91628c0.00712 0.00748 0.01445 0.01481 0.02196 0.02196l4.00882 4.00881c0.2441 0.2441 0.6398 0.2441 0.8839 0 0.2441 -0.2441 0.2441 -0.6398 0 -0.8839l-3.7324 -3.73234 2.4726 -6.3996 0.0019 -0.00494c0.3302 -0.86593 -0.5413 -1.62967 -1.3255 -1.36232l-0.009 0.00314 -6.64005 2.26364L1.06946 0.1855c-0.244074 -0.244078 -0.639803 -0.244078 -0.883881 0ZM2.41001 5.01659c-0.11138 -0.32671 -0.46652 -0.50128 -0.79324 -0.3899l-0.944824 0.3221C0.270125 5.08578 0 5.46325 0 5.88778c0 0.39039 0.228952 0.74448 0.584952 0.90468L4.9769 8.76884c0.09376 0.04219 0.16609 0.12104 0.20006 0.21809l1.52413 4.35467c0.13805 0.3944 0.51029 0.6585 0.92817 0.6585 0.40635 0 0.77085 -0.2499 0.9173 -0.629l0.49677 -1.2857c0.1244 -0.322 -0.03577 -0.6838 -0.35775 -0.8082 -0.32198 -0.1245 -0.68385 0.0357 -0.80825 0.3577l-0.23571 0.6101 -1.28484 -3.67101c-0.14719 -0.42055 -0.46061 -0.76221 -0.86693 -0.94506L1.69426 5.92092l0.32585 -0.11109c0.32672 -0.11138 0.50128 -0.46652 0.3899 -0.79324Z" clip-rule="evenodd" stroke-width="1"></path>
  </g>
</svg>