<svg xmlns="http://www.w3.org/2000/svg" fill="none" viewBox="0 0 14 14" id="Parking-Sign--Streamline-Core-Remix">
  <desc>
    Parking Sign Streamline Icon: https://streamlinehq.com
  </desc>
  <g id="Free Remix/Map Travel/parking-sign--discount-coupon-parking-price-prices-hotel">
    <path id="Union" fill="#000000" fill-rule="evenodd" d="M2 0.375C1.10254 0.375 0.375 1.10254 0.375 2v10c0 0.8975 0.72754 1.625 1.625 1.625h10c0.8975 0 1.625 -0.7275 1.625 -1.625V2c0 -0.89746 -0.7275 -1.625 -1.625 -1.625H2ZM1.625 2c0 -0.20711 0.16789 -0.375 0.375 -0.375h10c0.2071 0 0.375 0.16789 0.375 0.375v10c0 0.2071 -0.1679 0.375 -0.375 0.375H2c-0.20711 0 -0.375 -0.1679 -0.375 -0.375V2Zm2.875 0.75c-0.41421 0 -0.75 0.33579 -0.75 0.75v7c0 0.4142 0.33579 0.75 0.75 0.75s0.75 -0.3358 0.75 -0.75V8.25H8c1.24264 0 2.25 -1.00736 2.25 -2.25V5c0 -1.24264 -1.00736 -2.25 -2.25 -2.25H4.5Zm3.5 4H5.25v-2.5H8c0.41421 0 0.75 0.33579 0.75 0.75v1c0 0.41421 -0.33579 0.75 -0.75 0.75Z" clip-rule="evenodd" stroke-width="1"></path>
  </g>
</svg>