<svg xmlns="http://www.w3.org/2000/svg" fill="none" viewBox="0 0 14 14" id="School-Bus-Side--Streamline-Core-Remix">
  <desc>
    School Bus Side Streamline Icon: https://streamlinehq.com
  </desc>
  <g id="Free Remix/Map Travel/school-bus-side">
    <path id="Union" fill="#000000" fill-rule="evenodd" d="M0.25 3c0 -0.89746 0.727537 -1.625 1.625 -1.625h8.5C11.2725 1.375 12 2.10254 12 3v3.375h0.125c0.8975 0 1.625 0.72754 1.625 1.625v2.5c0 0.8975 -0.7275 1.625 -1.625 1.625h-0.3499c-0.2628 0.7985 -1.0147 1.3749 -1.90116 1.3749 -0.88647 0 -1.63831 -0.5764 -1.90114 -1.3749H5.27509c-0.26283 0.7985 -1.01467 1.3749 -1.90115 1.3749 -0.90656 0 -1.67232 -0.6028 -1.91826 -1.4295C0.761449 11.8855 0.25 11.2525 0.25 10.5V3Zm7.72205 7.875H5.27583c-0.26214 -0.7997 -1.01457 -1.3772 -1.90189 -1.3772 -0.81403 0 -1.51454 0.48607 -1.82711 1.1838C1.51699 10.6278 1.5 10.5659 1.5 10.5V3c0 -0.20711 0.16789 -0.375 0.375 -0.375h8.5c0.2071 0 0.375 0.16789 0.375 0.375v4c0 0.34518 0.2798 0.625 0.625 0.625h0.75c0.2071 0 0.375 0.16789 0.375 0.375v2.5c0 0.2071 -0.1679 0.375 -0.375 0.375h-0.3492c-0.2621 -0.7997 -1.0145 -1.3772 -1.90186 -1.3772 -0.88732 0 -1.63974 0.5775 -1.90189 1.3772ZM9.25 7h-2.5V4h2.5c0.27614 0 0.5 0.22386 0.5 0.5v2c0 0.27614 -0.22386 0.5 -0.5 0.5ZM3 4h2.5v3H3c-0.27614 0 -0.5 -0.22386 -0.5 -0.5v-2c0 -0.27614 0.22386 -0.5 0.5 -0.5Z" clip-rule="evenodd" stroke-width="1"></path>
  </g>
</svg>