<svg xmlns="http://www.w3.org/2000/svg" fill="none" viewBox="0 0 14 14" id="Smoking-Area--Streamline-Core-Remix">
  <desc>
    Smoking Area Streamline Icon: https://streamlinehq.com
  </desc>
  <g id="Free Remix/Map Travel/smoking-area">
    <path id="Union" fill="#000000" fill-rule="evenodd" d="M11.954 0.414376c-0.3235 0.258757 -0.3759 0.730724 -0.1172 1.054174 0.4107 0.51338 0.431 0.81121 0.4057 0.98791 -0.0342 0.23993 -0.1747 0.47353 -0.444 0.87754l-0.0292 0.04366c-0.2307 0.34511 -0.5648 0.84491 -0.6518 1.4538 -0.0997 0.6983 0.13 1.40047 0.7193 2.13709 0.2588 0.32345 0.7308 0.37589 1.0542 0.11713 0.3235 -0.25876 0.3759 -0.73073 0.1171 -1.05417 -0.4107 -0.51339 -0.4309 -0.81121 -0.4056 -0.98792 0.0342 -0.23993 0.1747 -0.47352 0.444 -0.87754l0.0292 -0.04366c0.2307 -0.34511 0.5648 -0.84491 0.6518 -1.4538 0.0997 -0.69829 -0.1301 -1.40047 -0.7194 -2.137084 -0.2587 -0.323446 -0.7307 -0.375887 -1.0541 -0.11713Zm1.0458 8.460654c0.3452 0 0.625 0.27982 0.625 0.625V13c0 0.3452 -0.2798 0.625 -0.625 0.625H1.99984c-0.89746 0 -1.624998 -0.7275 -1.624998 -1.625v-1.5c0 -0.89744 0.727538 -1.62497 1.624998 -1.62497H12.9998ZM9.99984 12.375h-8c-0.2071 0 -0.375 -0.1679 -0.375 -0.375v-1.5c0 -0.2071 0.1679 -0.375 0.375 -0.375h8v2.25ZM8.91692 1.46855C8.65816 1.1451 8.7106 0.673133 9.03405 0.414376c0.32345 -0.258757 0.79541 -0.206316 1.05415 0.11713 0.5893 0.736614 0.8191 1.438794 0.7193 2.137084 -0.087 0.60889 -0.421 1.10869 -0.6517 1.4538l-0.0292 0.04366c-0.26933 0.40402 -0.40979 0.63761 -0.44407 0.87754 -0.02524 0.17671 -0.00502 0.47453 0.40567 0.98792 0.2588 0.32344 0.2063 0.79541 -0.11711 1.05417 -0.32345 0.25876 -0.79541 0.20632 -1.05417 -0.11713 -0.58929 -0.73662 -0.81907 -1.43879 -0.71931 -2.13709 0.08698 -0.60889 0.42107 -1.10869 0.65176 -1.4538l0.02916 -0.04366c0.26934 -0.40401 0.4098 -0.63761 0.44408 -0.87754 0.02524 -0.1767 0.00502 -0.47453 -0.40569 -0.98791Z" clip-rule="evenodd" stroke-width="1"></path>
  </g>
</svg>