<svg xmlns="http://www.w3.org/2000/svg" fill="none" viewBox="0 0 14 14" id="Toilet-Man--Streamline-Core-Remix">
  <desc>
    Toilet Man Streamline Icon: https://streamlinehq.com
  </desc>
  <g id="Free Remix/Map Travel/toilet-man--travel-wayfinder-toilet-man">
    <path id="Union" fill="#000000" fill-rule="evenodd" d="M7 1.25c-0.75939 0 -1.375 0.61561 -1.375 1.375S6.24061 4 7 4s1.375 -0.61561 1.375 -1.375S7.75939 1.25 7 1.25Zm2.625 1.375c0 0.71645 -0.28703 1.36587 -0.75236 1.83952C10.1381 5.13621 11 6.46745 11 8v1.375c0 0.34518 -0.2798 0.625 -0.625 0.625H9.30174l-0.43157 3.4525C8.83108 13.7653 8.5652 14 8.25 14h-2.5c-0.3152 0 -0.58108 -0.2347 -0.62017 -0.5475L4.69826 10H3.625C3.27982 10 3 9.72018 3 9.375V8c0 -1.53255 0.86187 -2.86379 2.12736 -3.53548C4.66203 3.99087 4.375 3.34145 4.375 2.625 4.375 1.17525 5.55025 0 7 0s2.625 1.17525 2.625 2.625Z" clip-rule="evenodd" stroke-width="1"></path>
  </g>
</svg>