<svg xmlns="http://www.w3.org/2000/svg" fill="none" viewBox="0 0 14 14" id="Airplane-Enabled--Streamline-Core">
  <desc>
    Airplane Enabled Streamline Icon: https://streamlinehq.com
  </desc>
  <g id="airplane-enabled--server-plane-airplane-enabled-on-wireless-mode-internet-network">
    <path id="Vector 1959" fill="#000000" d="m4.88578 4.85079 -0.20401 -1.39407c-0.12683 -0.86668 0.10885 -1.74734 0.6516 -2.43484 0.85016 -1.0768635 2.4831 -1.0768635 3.33326 0 0.54275 0.6875 0.77844 1.56816 0.6516 2.43484l-0.20401 1.39407 4.11688 2.08782c0.3566 0.18089 0.5814 0.54688 0.5814 0.94681 0 0.68065 -0.6315 1.18545 -1.2954 1.03553L8.61084 8.0389l-0.23492 2.1813 2.04008 1.7284c0.2386 0.2022 0.3762 0.4991 0.3762 0.8118 0 0.7659 -0.7847 1.2809 -1.48734 0.9762L7 12.7372l-2.30486 0.9994c-0.70261 0.3047 -1.48732 -0.2103 -1.48732 -0.9762 0 -0.3127 0.1376 -0.6096 0.37622 -0.8118l2.04004 -1.7284 -0.23492 -2.1813 -3.90622 0.88205C0.819006 9.07087 0.1875 8.56607 0.1875 7.88542c0 -0.39993 0.224756 -0.76592 0.581438 -0.94681L4.88578 4.85079Z" stroke-width="1"></path>
  </g>
</svg>