<svg xmlns="http://www.w3.org/2000/svg" fill="none" viewBox="0 0 14 14" id="Hang-Up-2--Streamline-Core">
  <desc>
    Hang Up 2 Streamline Icon: https://streamlinehq.com
  </desc>
  <g id="hang-up-2--android-phone-mobile-device-smartphone-iphone-telephone-hang-up">
    <path id="Union" fill="#000000" fill-rule="evenodd" d="M13.174 4.068a3.048 3.048 0 0 0 -1.736 -1.073c-2.95 -0.565 -6.017 -0.592 -8.963 0.011A3.048 3.048 0 0 0 0.07 6.002l-0.006 0.51a1.363 1.363 0 0 0 1.347 1.347l2.156 -0.011A1.354 1.354 0 0 0 4.91 6.505a0.363 0.363 0 0 1 0.356 -0.358l3.388 0a0.347 0.347 0 0 1 0.35 0.357 1.355 1.355 0 0 0 1.342 1.343l2.156 0A1.363 1.363 0 0 0 13.849 6.5l-0.006 -0.51a3.048 3.048 0 0 0 -0.67 -1.922Zm-5.549 3.87a0.625 0.625 0 1 0 -1.25 0l0 2.221H5.128a0.625 0.625 0 0 0 -0.442 1.067l1.866 1.866a0.631 0.631 0 0 0 0.526 0.184 0.622 0.622 0 0 0 0.364 -0.178l1.872 -1.872a0.625 0.625 0 0 0 -0.442 -1.067l-1.247 0 0 -2.22Z" clip-rule="evenodd" stroke-width="1"></path>
  </g>
</svg>