<svg xmlns="http://www.w3.org/2000/svg" fill="none" viewBox="0 0 14 14"><g id="hang-up-2--android-phone-mobile-device-smartphone-iphone-telephone-hang-up"><path id="Union" fill="#3e3e3e" fill-rule="evenodd" d="M13.174 4.068a3.048 3.048 0 0 0-1.736-1.073c-2.95-.565-6.017-.592-8.963.011A3.048 3.048 0 0 0 .07 6.002l-.006.51a1.363 1.363 0 0 0 1.347 1.347l2.156-.011A1.354 1.354 0 0 0 4.91 6.505a.363.363 0 0 1 .356-.358h3.388a.347.347 0 0 1 .35.357 1.355 1.355 0 0 0 1.342 1.343h2.156A1.363 1.363 0 0 0 13.849 6.5l-.006-.51a3.048 3.048 0 0 0-.67-1.922Zm-5.549 3.87a.625.625 0 1 0-1.25 0v2.221H5.128a.625.625 0 0 0-.442 1.067l1.866 1.866a.631.631 0 0 0 .526.184.622.622 0 0 0 .364-.178l1.872-1.872a.625.625 0 0 0-.442-1.067H7.625V7.94Z" clip-rule="evenodd"></path></g></svg>