<svg xmlns="http://www.w3.org/2000/svg" fill="none" viewBox="0 0 40 40" id="Backpack--Streamline-Stickies">
  <desc>
    Backpack Streamline Icon: https://streamlinehq.com
  </desc>
  <path fill="#ffe236" stroke="#231f20" stroke-miterlimit="10" d="M37.4 22.92c-0.34 -0.38 -1.52 -0.57 -3 -0.66 0 -8 -0.25 -13.2 -7.39 -15.83 -0.0038 -1.09929 -0.1585 -2.19285 -0.46 -3.25C26 0.8 22.22 0.5 20 0.5c-2.22 0 -6 0.3 -6.59 2.68 -0.2846 1.0595 -0.4225 2.15302 -0.41 3.25 -7.19001 2.63 -7.44001 7.85 -7.44001 15.83 -1.44 0.09 -2.62 0.28 -3 0.66 -1.22 0.69 -1.38 5.25 -1.38 7.91s0.16 7.23 1.38 7.91c0.61 0.69 3.87 0.76 6.57 0.76H30.83c2.7 0 6 -0.07 6.57 -0.76 1.22 -0.68 1.38 -5.25 1.38 -7.91s-0.16 -7.22 -1.38 -7.91Z" stroke-width="1"></path>
  <path stroke="#231f20" stroke-linecap="round" stroke-miterlimit="10" d="M34 27c0.0647 2.8556 -0.0656 5.7122 -0.39 8.55" stroke-width="1"></path>
  <path stroke="#231f20" stroke-linecap="round" stroke-miterlimit="10" d="M5.99999 27c-0.06474 2.8556 0.06556 5.7122 0.39 8.55" stroke-width="1"></path>
  <path fill="#ffffff" stroke="#231f20" stroke-miterlimit="10" d="M27.91 23.29c-0.69 -1 -5.25 -1.12 -7.91 -1.12s-7.22 0.12 -7.91 1.12c-0.69 0.5 -0.76 3.17 -0.76 5.38s0.07 4.87 0.76 5.37c0.69 1 5.25 1.13 7.91 1.13S27.22 35 27.91 34c0.69 -0.5 0.76 -3.17 0.76 -5.37s-0.07 -4.84 -0.76 -5.34Z" stroke-width="1"></path>
  <path fill="#ffffff" d="M14.16 27.41c3.8836 0.3899 7.7964 0.3899 11.68 0Z" stroke-width="1"></path>
  <path stroke="#231f20" stroke-linecap="round" stroke-miterlimit="10" d="M14.16 27.41c3.8836 0.3899 7.7964 0.3899 11.68 0" stroke-width="1"></path>
  <path fill="#ffffff" d="M22.89 5.58003c-1.9215 -0.19997 -3.8585 -0.19997 -5.78 0Z" stroke-width="1"></path>
  <path stroke="#231f20" stroke-linecap="round" stroke-miterlimit="10" d="M22.89 5.58003c-1.9215 -0.19997 -3.8585 -0.19997 -5.78 0" stroke-width="1"></path>
  <path stroke="#ffffff" stroke-linecap="round" stroke-miterlimit="10" d="M26.85 9.71002c1.3693 0.64088 2.5077 1.68848 3.26 2.99998" stroke-width="1"></path>
</svg>