<svg xmlns="http://www.w3.org/2000/svg" fill="none" viewBox="0 0 40 40" id="Book-Library--Streamline-Stickies">
  <desc>
    Book Library Streamline Icon: https://streamlinehq.com
  </desc>
  <path fill="#ff52a1" stroke="#231f20" stroke-miterlimit="10" d="M12.37 36.61c1 -1.44 1.13 -11 1.13 -16.61 0 -5.61 -0.13 -15.17001 -1.13 -16.61001 -0.5 -1.39 -3.16 -1.59 -5.37 -1.59s-4.87 0.2 -5.37 1.59C0.63 4.82999 0.5 14.42 0.5 20c0 5.58 0.13 15.17 1.13 16.61 0.5 1.44 3.16 1.59 5.37 1.59s4.87 -0.15 5.37 -1.59Z" stroke-width="1"></path>
  <path fill="#ffffff" stroke="#231f20" stroke-miterlimit="10" d="M3.44001 30.06c0.31 0.3 2.37 0.34 3.56 0.34s3.24999 0 3.55999 -0.34c0.31 -0.15 0.34 -0.95 0.34 -1.61 0 -0.66 0 -1.46 -0.34 -1.61 -0.31 -0.3 -2.35999 -0.34 -3.55999 -0.34 -1.2 0 -3.25 0 -3.56 0.34 -0.31 0.15 -0.34 0.95 -0.34 1.61 0 0.66 0.03 1.46 0.34 1.61Z" stroke-width="1"></path>
  <path stroke="#231f20" stroke-linecap="round" stroke-miterlimit="10" d="M10.9 9.79997c-2.5935 -0.25999 -5.20649 -0.25999 -7.79999 0" stroke-width="1"></path>
  <path stroke="#231f20" stroke-linecap="round" stroke-miterlimit="10" d="M10.9 12.4c-2.59299 -0.27 -5.207 -0.27 -7.79999 0" stroke-width="1"></path>
  <path stroke="#ffffff" stroke-linecap="round" stroke-miterlimit="10" d="M7.10999 4.12c3.14001 0.15 2.88 0.1 3.14001 1" stroke-width="1"></path>
  <path fill="#ffe236" stroke="#231f20" stroke-miterlimit="10" d="M25.37 36.61c1 -1.44 1.13 -11 1.13 -16.61 0 -5.61 -0.13 -15.17001 -1.13 -16.61001 -0.5 -1.39 -3.16 -1.59 -5.37 -1.59s-4.87 0.2 -5.37 1.59C13.63 4.82999 13.5 14.39 13.5 20c0 5.61 0.13 15.17 1.13 16.61 0.5 1.44 3.16 1.59 5.37 1.59s4.87 -0.15 5.37 -1.59Z" stroke-width="1"></path>
  <path fill="#ffffff" stroke="#231f20" stroke-miterlimit="10" d="M16.44 30.06c0.31 0.3 2.37 0.34 3.56 0.34s3.25 0 3.56 -0.34c0.31 -0.15 0.34 -0.95 0.34 -1.61 0 -0.66 0 -1.46 -0.34 -1.61 -0.31 -0.3 -2.36 -0.34 -3.56 -0.34 -1.2 0 -3.25 0 -3.56 0.34 -0.31 0.15 -0.34 0.95 -0.34 1.61 0 0.66 0.03 1.46 0.34 1.61Z" stroke-width="1"></path>
  <path stroke="#231f20" stroke-linecap="round" stroke-miterlimit="10" d="M23.9 9.79997c-2.5935 -0.25999 -5.2065 -0.25999 -7.8 0" stroke-width="1"></path>
  <path stroke="#231f20" stroke-linecap="round" stroke-miterlimit="10" d="M23.9 12.4c-2.593 -0.27 -5.207 -0.27 -7.8 0" stroke-width="1"></path>
  <path stroke="#ffffff" stroke-linecap="round" stroke-miterlimit="10" d="M20.11 4.12c3.14 0.15 2.88 0.1 3.14 1" stroke-width="1"></path>
  <path fill="#ff52a1" stroke="#231f20" stroke-miterlimit="10" d="M38.37 36.61c1 -1.44 1.13 -11 1.13 -16.61 0 -5.61 -0.13 -15.17001 -1.13 -16.61001 -0.5 -1.39 -3.16 -1.59 -5.37 -1.59s-4.87 0.2 -5.37 1.59C26.63 4.82999 26.5 14.39 26.5 20c0 5.61 0.13 15.17 1.13 16.61 0.5 1.44 3.16 1.59 5.37 1.59s4.87 -0.15 5.37 -1.59Z" stroke-width="1"></path>
  <path fill="#ffffff" stroke="#231f20" stroke-miterlimit="10" d="M29.44 30.06c0.31 0.3 2.37 0.34 3.56 0.34s3.25 0 3.56 -0.34c0.31 -0.15 0.34 -0.95 0.34 -1.61 0 -0.66 0 -1.46 -0.34 -1.61 -0.31 -0.3 -2.36 -0.34 -3.56 -0.34 -1.2 0 -3.25 0 -3.56 0.34 -0.31 0.15 -0.34 0.95 -0.34 1.61 0 0.66 0.03 1.46 0.34 1.61Z" stroke-width="1"></path>
  <path stroke="#231f20" stroke-linecap="round" stroke-miterlimit="10" d="M36.9 9.79997c-2.5935 -0.25999 -5.2065 -0.25999 -7.8 0" stroke-width="1"></path>
  <path stroke="#231f20" stroke-linecap="round" stroke-miterlimit="10" d="M36.9 12.4c-2.593 -0.27 -5.207 -0.27 -7.8 0" stroke-width="1"></path>
  <path stroke="#ffffff" stroke-linecap="round" stroke-miterlimit="10" d="M33.11 4.12c3.14 0.15 2.88 0.1 3.14 1" stroke-width="1"></path>
</svg>