<svg xmlns="http://www.w3.org/2000/svg" fill="none" viewBox="0 0 14 14" id="Chef-Toque-Hat--Streamline-Flex-Gradient">
  <desc>
    Chef Toque Hat Streamline Icon: https://streamlinehq.com
  </desc>
  <g id="chef-toque-hat--cook-gear-chef-cooking-nutrition-tools-clothes-hat-clothing-food-kitchenware">
    <path id="Subtract" fill="url(#paint0_linear_9371_11703)" fill-rule="evenodd" d="M4.37586 1.42067C4.99551.700751 5.94587.25 6.99759.25c1.0522 0 2.00295.451158 2.62258 1.17165.27094-.06702.55513-.10258.84743-.10258 1.7705 0 3.2824 1.32421 3.2824 3.04814 0 1.29249-.6822 2.4486-1.9456 2.87508.0493.83957.0497 1.48812.0042 2.29022-1.5101-.03858-3.26921-.07304-4.80857-.07304-1.53936 0-3.29842.03446-4.80854.07304-.04547-.80209-.045-1.45065.00433-2.29015C.932339 6.81593.25 5.65978.25 4.36721c0-1.72393 1.5119-3.04814 3.28242-3.04814.29089 0 .5737.03521.84344.1016ZM2.2781 10.7807c.0253.3625.05297.7546.07998 1.0391.01323.1393.02634.2773.03912.4146.06731.7231.63433 1.3203 1.37844 1.3842 2.04068.1752 4.40808.1752 6.44876 0 .7441-.0639 1.3111-.6611 1.3784-1.3842.0128-.1373.0259-.2754.0392-.4147.027-.2844.0547-.6765.0799-1.039-1.493-.0379-3.21617-.0712-4.72187-.0712-1.50571 0-3.22885.0333-4.72193.0712Z" clip-rule="evenodd"></path>
  </g>
  <defs>
    <linearGradient id="paint0_linear_9371_11703" x1="2.457" x2="13.36" y1="2.846" y2="8.887" gradientUnits="userSpaceOnUse">
      <stop stop-color="#ffd600"></stop>
      <stop offset="1" stop-color="#00d078"></stop>
    </linearGradient>
  </defs>
</svg>