<svg xmlns="http://www.w3.org/2000/svg" viewBox="0 0 14 14">
  <g>
    <path d="M7.25,1.75A.76.76,0,0,0,8,2.5,4.5,4.5,0,1,1,3.5,7V5.25A.25.25,0,0,1,3.75,5h1a.75.75,0,0,0,.53-1.28l-2-2a.75.75,0,0,0-1.06,0l-2,2a.75.75,0,0,0-.16.82A.74.74,0,0,0,.75,5h1A.25.25,0,0,1,2,5.25V7A6,6,0,1,0,8,1,.76.76,0,0,0,7.25,1.75Z" style="fill: #000001"/>
    <path d="M7.82,3.5a.53.53,0,0,0-.36.25L5.14,7.8a.5.5,0,0,0,.08.6l.88.88a.5.5,0,0,0,.6.08L7,9.19a.26.26,0,0,1,.3,0l.84.85A.63.63,0,0,0,9,9.19l-.51-.5a.28.28,0,0,1-.07-.21.28.28,0,0,1,.12-.19L10.75,7A.5.5,0,0,0,11,6.68a.5.5,0,0,0-.15-.42L8.24,3.65A.5.5,0,0,0,7.82,3.5Z" style="fill: #000001"/>
  </g>
</svg>
