<svg xmlns="http://www.w3.org/2000/svg" fill="none" viewBox="0 0 24 24" id="Beyondcorp-Enterprise-Logo--Streamline-Logos">
  <desc>
    Beyondcorp Enterprise Logo Streamline Icon: https://streamlinehq.com
  </desc>
  <path stroke="#000000" stroke-linejoin="round" d="M12 6.5a8 8 0 1 1 0 16" stroke-width="1"></path>
  <path stroke="#000000" stroke-linejoin="round" d="M12 10.5a4 4 0 0 1 0 8" stroke-width="1"></path>
  <path stroke="#000000" stroke-linecap="round" stroke-linejoin="round" d="M4 14.5a8 8 0 0 0 12.953 6.283 2 2 0 0 0 -2.478 -3.14 4 4 0 1 1 0 -6.286 2 2 0 0 0 2.478 -3.14A7.975 7.975 0 0 0 12 6.5c-1.457 0 -2.823 0.39 -4 1.07" stroke-width="1"></path>
  <path stroke="#000000" stroke-linejoin="round" d="M6 16a2 2 0 0 1 -2 -2V1.5c2.5 0 4 1 4 3V14a2 2 0 0 1 -2 2Z" clip-rule="evenodd" stroke-width="1"></path>
</svg>