<svg xmlns="http://www.w3.org/2000/svg" fill="none" viewBox="0 0 24 24" id="Google-Maps-Logo--Streamline-Logos">
  <desc>
    Google Maps Logo Streamline Icon: https://streamlinehq.com
  </desc>
  <path stroke="#000000" stroke-linejoin="round" d="M14.245 1.863 5.29 12.096" stroke-width="1"></path>
  <path stroke="#000000" stroke-linejoin="round" d="M18.724 5.988 8.886 17.466" stroke-width="1"></path>
  <path stroke="#000000" stroke-linecap="round" stroke-linejoin="round" d="M12 11.565a2.75 2.75 0 1 0 0 -5.5 2.75 2.75 0 0 0 0 5.5Z" stroke-width="1"></path>
  <path stroke="#000000" stroke-linecap="round" stroke-linejoin="round" d="M12 1.5c-3.978 0 -7.304 3.326 -7.304 7.304 0 4.191 2.51 6.392 4.738 9.377C11.37 20.783 10.895 22.5 12 22.5c1.105 0 0.63 -1.716 2.566 -4.319 2.228 -3.004 4.738 -5.186 4.738 -9.377C19.304 4.826 15.98 1.5 12 1.5Z" stroke-width="1"></path>
  <path stroke="#000000" stroke-linecap="round" stroke-linejoin="round" d="M9.9 7.024 6.698 3.823" stroke-width="1"></path>
</svg>