<svg xmlns="http://www.w3.org/2000/svg" fill="none" viewBox="0 0 24 24" id="Qualcomm-Logo--Streamline-Logos">
  <desc>
    Qualcomm Logo Streamline Icon: https://streamlinehq.com
  </desc>
  <path stroke="#000000" stroke-linecap="round" stroke-linejoin="round" d="M21.138 10.638A9.139 9.139 0 1 0 12 19.777a9.255 9.255 0 0 0 2.815 -0.457l1.178 2.897a0.457 0.457 0 0 0 0.43 0.283h1.298a0.447 0.447 0 0 0 0.374 -0.201 0.475 0.475 0 0 0 0 -0.43l-1.407 -3.436a9.14 9.14 0 0 0 4.45 -7.795Zm-5.346 5.483 -1.389 -3.408a0.458 0.458 0 0 0 -0.43 -0.283h-1.297a0.447 0.447 0 0 0 -0.449 0.41 0.475 0.475 0 0 0 0.029 0.22l1.672 4.076a5.93 5.93 0 0 1 -1.928 0.356 6.634 6.634 0 0 1 -6.397 -6.854A6.635 6.635 0 0 1 12 3.785a6.634 6.634 0 0 1 6.397 6.853 7.008 7.008 0 0 1 -2.605 5.52v-0.037Z" stroke-width="1"></path>
</svg>