<svg xmlns="http://www.w3.org/2000/svg" fill="none" viewBox="0 0 24 24" id="Swimming-Pool-2--Streamline-Cyber">
  <desc>
    Swimming Pool 2 Streamline Icon: https://streamlinehq.com
  </desc>
  <path stroke="#092f63" stroke-linecap="round" stroke-linejoin="round" stroke-miterlimit="10" d="M6.5 12.5v-8L9 0.5h1.5" stroke-width="1"></path>
  <path stroke="#092f63" stroke-linecap="round" stroke-linejoin="round" stroke-miterlimit="10" d="M14.5 12.5v-8l2.5 -4h1.5" stroke-width="1"></path>
  <path stroke="#092f63" stroke-linecap="round" stroke-linejoin="round" stroke-miterlimit="10" d="M6.5 4.5h8" stroke-width="1"></path>
  <path stroke="#092f63" stroke-linecap="round" stroke-linejoin="round" stroke-miterlimit="10" d="M6.5 7.5h8" stroke-width="1"></path>
  <path stroke="#092f63" stroke-linecap="round" stroke-linejoin="round" stroke-miterlimit="10" d="M6.5 10.5h8" stroke-width="1"></path>
  <path stroke="#092f63" stroke-linecap="round" stroke-linejoin="round" stroke-miterlimit="10" d="m0.5 23.5 2 -1.5 2 1.5 2 -1.5 2 1.5 2 -1.5 2 1.5 2 -1.5 2 1.5 2 -1.5 2 1.5 2 -1.5" stroke-width="1"></path>
  <path stroke="#092f63" stroke-linecap="round" stroke-linejoin="round" stroke-miterlimit="10" d="m0.5 20 2 -1.5 2 1.5 2 -1.5 2 1.5 2 -1.5 2 1.5 2 -1.5 2 1.5 2 -1.5 2 1.5 2 -1.5" stroke-width="1"></path>
  <path stroke="#092f63" stroke-linecap="round" stroke-linejoin="round" stroke-miterlimit="10" d="m0.5 16.5 2 -1.5 2 1.5 2 -1.5 2 1.5 2 -1.5 2 1.5 2 -1.5 2 1.5 2 -1.5 2 1.5 2 -1.5" stroke-width="1"></path>
</svg>