<svg xmlns="http://www.w3.org/2000/svg" fill="none" viewBox="0 0 24 24" id="Award-Ribbon-Star-1--Streamline-Ultimate">
  <desc>
    Award Ribbon Star 1 Streamline Icon: https://streamlinehq.com
  </desc>
  <path stroke="#000000" stroke-linecap="round" stroke-linejoin="round" d="M4.807 13.042 0.75 18l3.75 0.75 1.5 4.5 3.944 -6.258" stroke-width="1"></path>
  <path stroke="#000000" stroke-linecap="round" stroke-linejoin="round" d="M19.193 13.042 23.25 18l-3.75 0.75 -1.5 4.5 -3.944 -6.258" stroke-width="1"></path>
  <path stroke="#000000" stroke-linecap="round" stroke-linejoin="round" d="M3.75 9c0 2.188 0.86919 4.2865 2.41637 5.8336C7.71354 16.3808 9.81196 17.25 12 17.25c2.188 0 4.2865 -0.8692 5.8336 -2.4164C19.3808 13.2865 20.25 11.188 20.25 9c0 -2.18804 -0.8692 -4.28646 -2.4164 -5.83363C16.2865 1.61919 14.188 0.75 12 0.75c-2.18804 0 -4.28646 0.86919 -5.83363 2.41637C4.61919 4.71354 3.75 6.81196 3.75 9Z" stroke-width="1"></path>
  <path stroke="#000000" stroke-linecap="round" stroke-linejoin="round" d="m12.531 4.29186 1.248 2.45801h2.127c0.1171 -0.00286 0.2323 0.02967 0.3306 0.09335s0.1751 0.15553 0.2204 0.26356c0.0453 0.10803 0.0569 0.2272 0.0333 0.34193 -0.0235 0.11473 -0.0811 0.21969 -0.1653 0.30116l-1.953 1.918 1.082 2.48503c0.0477 0.1138 0.0585 0.2397 0.0307 0.3599 -0.0277 0.1203 -0.0925 0.2288 -0.1852 0.3102 -0.0927 0.0815 -0.2087 0.1317 -0.3315 0.1437 -0.1228 0.012 -0.2463 -0.0149 -0.353 -0.0768L12 11.4189l-2.61499 1.471c-0.10671 0.0619 -0.23019 0.0888 -0.35301 0.0768 -0.12282 -0.012 -0.23876 -0.0622 -0.33147 -0.1437 -0.09272 -0.0814 -0.15751 -0.1899 -0.18523 -0.3102 -0.02772 -0.1202 -0.01698 -0.2461 0.03071 -0.3599l1.082 -2.48503 -1.953 -1.92201c-0.08415 -0.08146 -0.14177 -0.18642 -0.16532 -0.30115 -0.02355 -0.11474 -0.01193 -0.23391 0.03333 -0.34193 0.04526 -0.10803 0.12207 -0.19988 0.22037 -0.26356 0.0983 -0.06368 0.21353 -0.09621 0.33062 -0.09336H10.221l1.249 -2.454c0.051 -0.09649 0.1273 -0.17726 0.2208 -0.23359 0.0935 -0.05633 0.2006 -0.0861 0.3097 -0.0861 0.1092 0 0.2162 0.02977 0.3097 0.0861 0.0935 0.05633 0.1698 0.1371 0.2208 0.23359Z" stroke-width="1"></path>
</svg>