<svg xmlns="http://www.w3.org/2000/svg" fill="none" viewBox="0 0 24 24" id="Certified-Diploma--Streamline-Ultimate">
  <desc>
    Certified Diploma Streamline Icon: https://streamlinehq.com
  </desc>
  <path stroke="#000000" stroke-linecap="round" stroke-linejoin="round" d="m5.56932 13.939 -4.17396 3.0655c-0.17833 0.1253 -0.32697 0.2882 -0.435405 0.4772 -0.108436 0.1891 -0.174022 0.3996 -0.19212 0.6168 -0.018098 0.2172 0.011734 0.4357 0.087386 0.64 0.075652 0.2044 0.195279 0.3897 0.350419 0.5427l3.48495 3.485c0.15034 0.1645 0.3357 0.2931 0.54241 0.3763 0.20671 0.0833 0.42947 0.1191 0.65185 0.1047 0.22238 -0.0144 0.43869 -0.0785 0.63296 -0.1877 0.19426 -0.1092 0.36152 -0.2606 0.48942 -0.4431l3.10547 -4.174" stroke-width="1.5"></path>
  <path stroke="#000000" stroke-linecap="round" stroke-linejoin="round" d="m18.4206 10.0843 4.1839 -3.06559c0.1784 -0.12526 0.327 -0.28816 0.4355 -0.4772 0.1084 -0.18904 0.174 -0.39958 0.1921 -0.61676 0.0181 -0.21718 -0.0118 -0.43568 -0.0874 -0.64005 -0.0757 -0.20438 -0.1953 -0.38964 -0.3504 -0.54269l-3.485 -3.52489c-0.1531 -0.16242 -0.3409 -0.288294 -0.5493 -0.368296 -0.2084 -0.080002 -0.4321 -0.112081 -0.6546 -0.093859 -0.2225 0.018221 -0.438 0.086276 -0.6307 0.19912 -0.1926 0.112845 -0.3573 0.267585 -0.482 0.452755L13.9271 5.5808" stroke-width="1.5"></path>
  <path stroke="#000000" stroke-linecap="round" stroke-linejoin="round" d="m12.3894 15.736 4.853 7.5092 0.9985 -4.9928 4.9928 -0.9986 -7.5091 -4.8529" stroke-width="1.5"></path>
  <path stroke="#000000" stroke-linecap="round" stroke-linejoin="round" d="M8.25537 12.0117c0 0.9931 0.39452 1.9455 1.09676 2.6478 0.70227 0.7022 1.65467 1.0967 2.64777 1.0967 0.9932 0 1.9456 -0.3945 2.6479 -1.0967 0.7022 -0.7023 1.0967 -1.6547 1.0967 -2.6478 0 -0.9932 -0.3945 -1.9456 -1.0967 -2.64785 -0.7023 -0.70224 -1.6547 -1.09676 -2.6479 -1.09676 -0.9931 0 -1.9455 0.39452 -2.64777 1.09676 -0.70224 0.70225 -1.09676 1.65465 -1.09676 2.64785Z" stroke-width="1.5"></path>
</svg>