<svg xmlns="http://www.w3.org/2000/svg" fill="none" viewBox="0 0 24 24" id="Love-It-Break--Streamline-Ultimate">
  <desc>
    Love It Break Streamline Icon: https://streamlinehq.com
  </desc>
  <path stroke="#000000" stroke-linecap="round" stroke-linejoin="round" d="m12 21.8441 -9.58798 -10c-0.84267 -0.842 -1.39884 -1.92795 -1.58964 -3.10381 -0.190801 -1.17586 -0.006544 -2.38195 0.52664 -3.4472 0.40206 -0.80388 0.98937 -1.50072 1.71355 -2.03311 0.72417 -0.53239 1.56449 -0.88509 2.4517 -1.02904 0.88722 -0.14395 1.79594 -0.07502 2.6513 0.2011 0.85535 0.27611 1.63286 0.75152 2.26843 1.38705L12 5.38409l1.566 -1.565c0.6356 -0.63553 1.4131 -1.11094 2.2685 -1.38705 0.8553 -0.27612 1.764 -0.34505 2.6513 -0.2011 0.8872 0.14395 1.7275 0.49665 2.4517 1.02904 0.7242 0.53239 1.3115 1.22923 1.7135 2.03311 0.5325 1.06484 0.7164 2.27021 0.5258 3.4454 -0.1906 1.17519 -0.7461 2.26061 -1.5878 3.10261L12 21.8441Z" stroke-width="1"></path>
  <path stroke="#000000" stroke-linecap="round" stroke-linejoin="round" d="m12 5.38379 2.937 2.9c0.0883 0.08764 0.1535 0.19586 0.1896 0.31492 0.0362 0.11907 0.0422 0.24525 0.0175 0.36721 -0.0247 0.12196 -0.0793 0.23588 -0.1589 0.33151 -0.0796 0.09563 -0.1817 0.16998 -0.2972 0.21636L9.79999 11.4728c-0.13415 0.0539 -0.24989 0.1454 -0.33332 0.2634 -0.08344 0.1181 -0.13102 0.2577 -0.13704 0.4022 -0.00602 0.1444 0.02978 0.2875 0.10311 0.4121 0.07332 0.1246 0.18105 0.2254 0.31025 0.2903l3.92501 1.959c0.1614 0.0807 0.2884 0.217 0.3574 0.3838 0.0691 0.1668 0.0757 0.3529 0.0186 0.5242L12 21.8438" stroke-width="1"></path>
</svg>