<svg xmlns="http://www.w3.org/2000/svg" fill="none" viewBox="0 0 24 24" id="Vip-Crown-Queen-1--Streamline-Ultimate">
  <desc>
    Vip Crown Queen 1 Streamline Icon: https://streamlinehq.com
  </desc>
  <path stroke="#000000" stroke-linecap="round" stroke-linejoin="round" d="m21.92 16.8801 1.32 -9.95004c0.0203 -0.13601 0.0028 -0.27498 -0.0506 -0.40172 -0.0534 -0.12673 -0.1406 -0.23635 -0.2521 -0.31686 -0.1114 -0.08052 -0.2429 -0.12884 -0.38 -0.13967 -0.1371 -0.01083 -0.2745 0.01624 -0.3973 0.07825l-4.28 3.26c-0.0799 0.0655 -0.1724 0.11378 -0.2718 0.14183 -0.0994 0.02805 -0.2036 0.03526 -0.3059 0.02118 -0.1024 -0.01409 -0.2007 -0.04916 -0.2888 -0.10302 -0.0882 -0.05386 -0.1642 -0.12535 -0.2235 -0.20998l-4.23 -6.18001c-0.0685 -0.08193 -0.1541 -0.14783 -0.2509 -0.19305 -0.0968 -0.04521 -0.2023 -0.06865 -0.3091 -0.06865 -0.1068 0 -0.2123 0.02344 -0.309 0.06865 -0.0968 0.04522 -0.1825 0.11112 -0.251 0.19305L7.21003 9.26007c-0.05923 0.08463 -0.1353 0.15612 -0.22344 0.20998 -0.08815 0.05386 -0.18647 0.08893 -0.28881 0.10302 -0.10233 0.01408 -0.20648 0.00687 -0.3059 -0.02118 -0.09941 -0.02805 -0.19197 -0.07633 -0.27185 -0.14183l-4.28 -3.26c-0.12275 -0.06201 -0.26018 -0.08908 -0.39727 -0.07825 -0.13709 0.01083 -0.26856 0.05915 -0.38005 0.13967 -0.11148 0.08051 -0.19868 0.19013 -0.252063 0.31686 -0.053384 0.12674 -0.070895 0.26571 -0.050619 0.40172L2.08003 16.9301" stroke-width="1"></path>
  <path stroke="#000000" stroke-linecap="round" stroke-linejoin="round" d="M21 16.6802H3c-0.59674 0 -1.16903 0.237 -1.59099 0.659 -0.421957 0.4219 -0.65901 0.9942 -0.65901 1.591 0 0.5967 0.237053 1.169 0.65901 1.591 0.42196 0.4219 0.99425 0.659 1.59099 0.659h18c0.5967 0 1.169 -0.2371 1.591 -0.659 0.4219 -0.422 0.659 -0.9943 0.659 -1.591 0 -0.5968 -0.2371 -1.1691 -0.659 -1.591 -0.422 -0.422 -0.9943 -0.659 -1.591 -0.659Z" stroke-width="1"></path>
</svg>