<svg xmlns="http://www.w3.org/2000/svg" fill="none" viewBox="0 0 14 14" id="Checkup-Medical-Report-Clipboard--Streamline-Flex">
  <desc>
    Checkup Medical Report Clipboard Streamline Icon: https://streamlinehq.com
  </desc>
  <g id="checkup-medical-report-clipboard">
    <path id="Union" fill="#8fbffa" fill-rule="evenodd" d="M4.182 1.692H4.15l-0.031 0.004 -0.47 0.06 -0.571 0.072a1.51 1.51 0 0 0 -1.33 1.385 60.594 60.594 0 0 0 0 8.679 1.478 1.478 0 0 0 1.35 1.37c2.676 0.224 5.126 0.224 7.801 0a1.478 1.478 0 0 0 1.35 -1.37 60.605 60.605 0 0 0 0 -8.679 1.51 1.51 0 0 0 -1.329 -1.385l-0.57 -0.072 -0.47 -0.06 -0.032 -0.004H4.182Z" clip-rule="evenodd" stroke-width="1"></path>
    <path id="Union_2" fill="#2859c5" d="M4.5 1.882C4.5 1.157 5.088 0.57 5.813 0.57h2.376a1.313 1.313 0 1 1 0 2.625H5.812A1.312 1.312 0 0 1 4.5 1.882Z" stroke-width="1"></path>
    <path id="Union_3" fill="#2859c5" d="M6.452 10.715c-0.358 -0.038 -0.616 -0.348 -0.628 -0.709 -0.008 -0.276 -0.015 -0.55 -0.02 -0.821a66.938 66.938 0 0 1 -0.83 -0.021c-0.361 -0.011 -0.672 -0.27 -0.71 -0.628a5.27 5.27 0 0 1 0 -1.111c0.038 -0.36 0.349 -0.617 0.71 -0.628 0.278 -0.01 0.555 -0.016 0.83 -0.021 0.005 -0.272 0.012 -0.546 0.02 -0.822 0.012 -0.36 0.27 -0.671 0.628 -0.709a5.299 5.299 0 0 1 1.112 0c0.358 0.038 0.617 0.348 0.628 0.709 0.008 0.276 0.015 0.55 0.02 0.822 0.27 0.005 0.542 0.012 0.815 0.02 0.36 0.012 0.671 0.27 0.709 0.628 0.04 0.375 0.04 0.738 0 1.112 -0.038 0.358 -0.348 0.617 -0.709 0.628 -0.273 0.008 -0.545 0.015 -0.814 0.02l-0.021 0.822c-0.011 0.36 -0.27 0.671 -0.628 0.709a5.299 5.299 0 0 1 -1.112 0Z" stroke-width="1"></path>
  </g>
</svg>