<svg xmlns="http://www.w3.org/2000/svg" fill="none" viewBox="0 0 14 14" id="Nurse-Assistant-Emergency--Streamline-Flex">
  <desc>
    Nurse Assistant Emergency Streamline Icon: https://streamlinehq.com
  </desc>
  <g id="nurse-assistant-emergency">
    <path id="Subtract" fill="#8fbffa" fill-rule="evenodd" d="M7.905 7.05a7.68 7.68 0 0 0 -2.804 -0.528A7.664 7.664 0 0 0 0.839 7.81c-0.404 0.27 -0.672 0.625 -0.783 1.03A1.66 1.66 0 0 0 0.173 10c0.336 0.701 1.116 1.207 2.058 1.207l3.503 0a7.96 7.96 0 0 1 0.01 -1.568c0.116 -1.106 1.024 -1.83 1.99 -1.913 0.022 -0.232 0.08 -0.461 0.171 -0.676Zm1.125 0.55a0.989 0.989 0 0 0 -0.054 0.293c-0.01 0.352 -0.02 0.701 -0.026 1.048 -0.35 0.006 -0.703 0.015 -1.06 0.026 -0.458 0.015 -0.854 0.344 -0.902 0.801a6.719 6.719 0 0 0 0.002 1.438l0.98 0c0.942 0 1.723 -0.506 2.059 -1.207a1.66 1.66 0 0 0 0.116 -1.161c-0.11 -0.404 -0.378 -0.76 -0.782 -1.03A7.693 7.693 0 0 0 9.03 7.6Z" clip-rule="evenodd" stroke-width="1"></path>
    <path id="Union" fill="#2859c5" d="M9.777 13.963c-0.457 -0.048 -0.786 -0.444 -0.8 -0.904 -0.012 -0.352 -0.02 -0.7 -0.027 -1.047 -0.35 -0.007 -0.703 -0.016 -1.06 -0.027 -0.458 -0.014 -0.854 -0.343 -0.902 -0.8 -0.05 -0.477 -0.05 -0.94 0 -1.417 0.048 -0.457 0.443 -0.786 0.903 -0.8 0.356 -0.012 0.708 -0.02 1.059 -0.027 0.006 -0.347 0.015 -0.696 0.026 -1.048 0.015 -0.46 0.344 -0.856 0.8 -0.903 0.478 -0.05 0.94 -0.05 1.418 0 0.457 0.047 0.786 0.443 0.8 0.903 0.011 0.352 0.02 0.701 0.027 1.048 0.343 0.007 0.69 0.015 1.038 0.026 0.46 0.015 0.856 0.344 0.904 0.8 0.05 0.478 0.05 0.94 0 1.418 -0.048 0.457 -0.444 0.786 -0.903 0.8 -0.35 0.011 -0.696 0.02 -1.04 0.027 -0.006 0.346 -0.015 0.695 -0.026 1.047 -0.014 0.46 -0.343 0.856 -0.8 0.904 -0.477 0.05 -0.94 0.05 -1.417 0Z" stroke-width="1"></path>
    <path id="Vector" fill="#8fbffa" d="M5.1 5.35c1.665 0 2.6 -0.936 2.6 -2.6 0 -1.664 -0.935 -2.6 -2.6 -2.6 -1.664 0 -2.6 0.936 -2.6 2.6 0 1.664 0.936 2.6 2.6 2.6Z" stroke-width="1"></path>
  </g>
</svg>