<svg xmlns="http://www.w3.org/2000/svg" fill="none" viewBox="0 0 14 14" id="Sos-Help-Emergency-Sign--Streamline-Flex">
  <desc>
    Sos Help Emergency Sign Streamline Icon: https://streamlinehq.com
  </desc>
  <g id="sos-help-emergency-sign">
    <path id="Union" fill="#8fbffa" fill-rule="evenodd" d="M0.0449219 5.76308c0 -0.89592 0.7262891 -1.62221 1.6222081 -1.62221h0.86472c0.51603 0 0.9803 0.22515 1.29841 0.58056 0.14959 0.16714 0.26774 0.36388 0.34446 0.58093 0.11503 0.32545 -0.05555 0.68253 -0.381 0.79756 -0.32544 0.11503 -0.68252 -0.05555 -0.79755 -0.381 -0.02137 -0.06047 -0.05458 -0.11608 -0.09733 -0.16384 -0.09101 -0.10169 -0.22128 -0.16421 -0.36699 -0.16421h-0.86472c-0.20556 0 -0.37221 0.16664 -0.37221 0.37221 0 0.17492 0.1218 0.32624 0.29267 0.36362l1.31656 0.28799c0.80001 0.175 1.36986 0.88376 1.36986 1.70225 0 0.96187 -0.77969 1.74256 -1.74216 1.74256h-0.74477c-0.75952 0 -1.404001 -0.48568 -1.642864 -1.16149 -0.1150297 -0.32545 0.055548 -0.68252 0.380995 -0.79755 0.325448 -0.11503 0.682529 0.05555 0.797559 0.38099 0.06786 0.192 0.251 0.32805 0.46431 0.32805h0.74477c0.27152 0 0.49216 -0.22045 0.49216 -0.49256 0 -0.23151 -0.16126 -0.43175 -0.38698 -0.48112l-1.31656 -0.288C0.575742 7.18491 0.0449219 6.52542 0.0449219 5.76308Zm9.6821281 0c0 -0.89592 0.72625 -1.62221 1.62225 -1.62221h0.8647c0.516 0 0.9803 0.22515 1.2984 0.58056 0.1496 0.16714 0.2677 0.36388 0.3444 0.58093 0.1151 0.32545 -0.0555 0.68253 -0.3809 0.79756 -0.3255 0.11503 -0.6826 -0.05555 -0.7976 -0.381 -0.0214 -0.06047 -0.0546 -0.11608 -0.0973 -0.16384 -0.091 -0.10169 -0.2213 -0.16421 -0.367 -0.16421h-0.8647c-0.2056 0 -0.3722 0.16664 -0.3722 0.37221 0 0.17492 0.1217 0.32624 0.2926 0.36362l1.3166 0.28799c0.8 0.175 1.3698 0.88376 1.3698 1.70225 0 0.96187 -0.7797 1.74256 -1.7421 1.74256h-0.7448c-0.7595 0 -1.404 -0.48568 -1.64286 -1.16149 -0.11502 -0.32545 0.05555 -0.68252 0.38096 -0.79755 0.3255 -0.11503 0.6826 0.05555 0.7976 0.38099 0.0679 0.192 0.251 0.32805 0.4643 0.32805h0.7448c0.2715 0 0.4921 -0.22045 0.4921 -0.49256 0 -0.23151 -0.1612 -0.43175 -0.3869 -0.48112l-1.3166 -0.288c-0.7447 -0.16291 -1.27555 -0.8224 -1.27555 -1.58474Zm-3.59082 0.14985c0 -0.28833 0.23373 -0.52206 0.52206 -0.52206h0.68497c0.28833 0 0.52206 0.23373 0.52206 0.52206v2.17451c0 0.28833 -0.23373 0.52206 -0.52206 0.52206h-0.68497c-0.28833 0 -0.52206 -0.23373 -0.52206 -0.52205V5.91293Zm0.52206 -1.77206c-0.97868 0 -1.77206 0.79338 -1.77206 1.77206v2.17452c0 0.97868 0.79338 1.77205 1.77206 1.77205h0.68497c0.97868 0 1.77206 -0.79337 1.77206 -1.77206V5.91293c0 -0.97868 -0.79338 -1.77206 -1.77206 -1.77206h-0.68497Z" clip-rule="evenodd" stroke-width="1"></path>
  </g>
</svg>