<svg xmlns="http://www.w3.org/2000/svg" fill="none" viewBox="0 0 24 24" id="Barcode--Streamline-Ultimate">
  <desc>
    Barcode Streamline Icon: https://streamlinehq.com
  </desc>
  <path fill="#78eb7b" d="M21.087 5.30432H2.91304c-0.50737 0 -0.99396 0.20155 -1.35272 0.56032C1.20155 6.2234 1 6.70999 1 7.21736v9.56524c0 0.5074 0.20155 0.9939 0.56032 1.3527 0.35876 0.3588 0.84535 0.5603 1.35272 0.5603H21.087c0.5073 0 0.9939 -0.2015 1.3527 -0.5603 0.3587 -0.3588 0.5603 -0.8453 0.5603 -1.3527V7.21736c0 -0.50737 -0.2016 -0.99396 -0.5603 -1.35272 -0.3588 -0.35877 -0.8454 -0.56032 -1.3527 -0.56032Z" stroke-width="1"></path>
  <path fill="#c9f7ca" d="M2.91304 5.30432c-0.50737 0 -0.99396 0.20155 -1.35272 0.56032C1.20155 6.2234 1 6.70999 1 7.21736v9.56524c0 0.4821 0.18461 0.945 0.51461 1.2961L14.289 5.30432H2.91304Z" stroke-width="1"></path>
  <path stroke="#191919" stroke-linecap="round" stroke-linejoin="round" d="M21.087 5.30432H2.91304c-0.50737 0 -0.99396 0.20155 -1.35272 0.56032C1.20155 6.2234 1 6.70999 1 7.21736v9.56524c0 0.5074 0.20155 0.9939 0.56032 1.3527 0.35876 0.3588 0.84535 0.5603 1.35272 0.5603H21.087c0.5073 0 0.9939 -0.2015 1.3527 -0.5603 0.3587 -0.3588 0.5603 -0.8453 0.5603 -1.3527V7.21736c0 -0.50737 -0.2016 -0.99396 -0.5603 -1.35272 -0.3588 -0.35877 -0.8454 -0.56032 -1.3527 -0.56032Z" stroke-width="1"></path>
  <path stroke="#191919" stroke-linecap="round" stroke-linejoin="round" d="M5.78223 8.89124v6.21736" stroke-width="1"></path>
  <path stroke="#191919" stroke-linecap="round" stroke-linejoin="round" d="M18.2173 8.89124v6.21736" stroke-width="1"></path>
  <path stroke="#191919" stroke-linecap="round" stroke-linejoin="round" d="M7.69531 8.89124v3.82606" stroke-width="1"></path>
  <path stroke="#191919" stroke-linecap="round" stroke-linejoin="round" d="M12.478 8.89124v3.82606" stroke-width="1"></path>
  <path stroke="#191919" stroke-linecap="round" stroke-linejoin="round" d="M14.3906 8.89124v3.82606" stroke-width="1"></path>
  <path stroke="#191919" stroke-linecap="round" stroke-linejoin="round" d="M9.60889 8.89124v3.82606" stroke-width="1"></path>
  <path stroke="#191919" stroke-linecap="round" stroke-linejoin="round" d="M16.3042 8.89124v3.82606" stroke-width="1"></path>
  <path stroke="#191919" stroke-linecap="round" stroke-linejoin="round" d="M7.69531 15.1086v-0.4782" stroke-width="1"></path>
  <path stroke="#191919" stroke-linecap="round" stroke-linejoin="round" d="M9.60889 15.1086v-0.4782" stroke-width="1"></path>
  <path stroke="#191919" stroke-linecap="round" stroke-linejoin="round" d="M12.478 15.1086v-0.4782" stroke-width="1"></path>
  <path stroke="#191919" stroke-linecap="round" stroke-linejoin="round" d="M14.3906 15.1086v-0.4782" stroke-width="1"></path>
  <path stroke="#191919" stroke-linecap="round" stroke-linejoin="round" d="M16.3042 15.1086v-0.4782" stroke-width="1"></path>
</svg>