<svg xmlns="http://www.w3.org/2000/svg" fill="none" viewBox="0 0 24 24" id="E-Commerce-Touch-Buy--Streamline-Ultimate">
  <desc>
    E Commerce Touch Buy Streamline Icon: https://streamlinehq.com
  </desc>
  <path fill="#66e1ff" d="M21.0901 1.95544H2.00543c-0.55474 0 -1.00445 0.44972 -1.00445 1.00446v13.0579c0 0.5548 0.44971 1.0045 1.00445 1.0045H21.0901c0.5548 0 1.0045 -0.4497 1.0045 -1.0045V2.9599c0 -0.55474 -0.4497 -1.00446 -1.0045 -1.00446Z" stroke-width="1"></path>
  <path fill="#c2f3ff" d="M2.00543 1.95544c-0.2664 0 -0.52188 0.10583 -0.71026 0.2942 -0.18836 0.18838 -0.29419 0.44386 -0.29419 0.71026v13.0579c0.00173 0.1514 0.03824 0.3003 0.10669 0.4353 0.06844 0.135 0.167 0.2524 0.28806 0.3432L16.2366 1.95544H2.00543Z" stroke-width="1"></path>
  <path fill="#ff808c" stroke="#191919" stroke-linecap="round" stroke-linejoin="round" d="m13.5559 7.98218 -1.6744 5.02232H6.85922L5.35254 7.98218h8.20336Z" stroke-width="1"></path>
  <path stroke="#191919" stroke-linecap="round" stroke-linejoin="round" d="m6.85938 7.98209 1.50668 -2.51114" stroke-width="1"></path>
  <path stroke="#191919" stroke-linecap="round" stroke-linejoin="round" d="M11.8817 7.98209 10.375 5.47095" stroke-width="1"></path>
  <path fill="#ffdda1" d="m15.966 22.0445 -3.0737 -4.6125c-1.2204 -1.8632 1.797 -2.491 3.1842 0.6148V9.99103c0 -0.2664 0.1058 -0.52189 0.2942 -0.71026 0.1883 -0.18837 0.4438 -0.2942 0.7102 -0.2942 0.2664 0 0.5219 0.10583 0.7103 0.2942 0.1883 0.18837 0.2942 0.44386 0.2942 0.71026v4.77517l3.9846 1.1511c0.3164 0.0921 0.5856 0.3019 0.7525 0.5861 0.1667 0.2843 0.2185 0.6216 0.1445 0.9427l-0.0854 0.3686 -0.7684 4.2298" stroke-width="1"></path>
  <path stroke="#191919" stroke-linecap="round" stroke-linejoin="round" d="m15.966 22.0445 -3.0737 -4.6125c-1.2204 -1.8632 1.797 -2.491 3.1842 0.6148V9.99103c0 -0.2664 0.1058 -0.52189 0.2942 -0.71026 0.1883 -0.18837 0.4438 -0.2942 0.7102 -0.2942 0.2664 0 0.5219 0.10583 0.7103 0.2942 0.1883 0.18837 0.2942 0.44386 0.2942 0.71026v4.77517l3.9846 1.1511c0.3164 0.0921 0.5856 0.3019 0.7525 0.5861 0.1667 0.2843 0.2185 0.6216 0.1445 0.9427l-0.0854 0.3686 -0.7684 4.2298" stroke-width="1"></path>
  <path stroke="#191919" stroke-linecap="round" stroke-linejoin="round" d="M11.0446 17.0223H2.00446c-0.26641 0 -0.52189 -0.1059 -0.71026 -0.2942C1.10583 16.5397 1 16.2842 1 16.0178V2.9599c0 -0.2664 0.10583 -0.52188 0.2942 -0.71026 0.18837 -0.18837 0.44385 -0.2942 0.71026 -0.2942H21.0891c0.2664 0 0.5219 0.10583 0.7103 0.2942 0.1883 0.18838 0.2942 0.44386 0.2942 0.71026v11.049" stroke-width="1"></path>
  <path stroke="#191919" stroke-linecap="round" stroke-linejoin="round" d="M6.52441 20.0356h5.02229" stroke-width="1"></path>
  <path stroke="#191919" stroke-linecap="round" stroke-linejoin="round" d="M10.041 17.0223v3.0134" stroke-width="1"></path>
</svg>