<svg xmlns="http://www.w3.org/2000/svg" fill="none" viewBox="0 0 24 24" id="Receipt-Dollar--Streamline-Ultimate">
  <desc>
    Receipt Dollar Streamline Icon: https://streamlinehq.com
  </desc>
  <path fill="#e3e3e3" d="M4.20752 22.026c0.00002 0.0964 0.02863 0.1906 0.08221 0.2707 0.05357 0.0801 0.12972 0.1425 0.21877 0.1794 0.08906 0.0368 0.18704 0.0463 0.28155 0.0274 0.09449 -0.0189 0.18126 -0.0654 0.24932 -0.1336l1.11628 -1.1163 1.60331 1.6033c0.04524 0.0454 0.09898 0.0813 0.15815 0.1059 0.05917 0.0245 0.1226 0.0372 0.18666 0.0372 0.06407 0 0.1275 -0.0127 0.18666 -0.0372 0.05918 -0.0246 0.11292 -0.0605 0.15816 -0.1059l1.60331 -1.6033 1.6033 1.6033c0.0452 0.0454 0.099 0.0813 0.1582 0.1059 0.0591 0.0245 0.1225 0.0372 0.1866 0.0372 0.0641 0 0.1275 -0.0127 0.1867 -0.0372 0.0592 -0.0246 0.113 -0.0605 0.1581 -0.1059l1.6034 -1.6033 1.6033 1.6033c0.0452 0.0454 0.0989 0.0813 0.1582 0.1059 0.0591 0.0245 0.1225 0.0372 0.1866 0.0372 0.0641 0 0.1275 -0.0127 0.1866 -0.0372 0.0592 -0.0246 0.113 -0.0605 0.1582 -0.1059l1.6033 -1.6033 1.1163 1.1163c0.0681 0.0682 0.1548 0.1147 0.2493 0.1336s0.1925 0.0094 0.2816 -0.0274c0.089 -0.0369 0.1652 -0.0993 0.2187 -0.1794 0.0536 -0.0801 0.0822 -0.1743 0.0822 -0.2707V1.97396c0 -0.09637 -0.0286 -0.19057 -0.0822 -0.27067 -0.0535 -0.0801 -0.1297 -0.14251 -0.2187 -0.17932 -0.0891 -0.03682 -0.1871 -0.04638 -0.2816 -0.02749 -0.0945 0.0189 -0.1812 0.0654 -0.2493 0.13363l-1.1163 1.11628 -1.6033 -1.60331c-0.0452 -0.04535 -0.099 -0.08134 -0.1582 -0.10589C16.0238 1.01264 15.9604 1 15.8963 1c-0.0641 0 -0.1275 0.01264 -0.1866 0.03719 -0.0593 0.02455 -0.113 0.06054 -0.1582 0.10589l-1.6033 1.60331 -1.6034 -1.60331c-0.0451 -0.04535 -0.0989 -0.08134 -0.1581 -0.10589C12.1275 1.01264 12.0641 1 12 1s-0.1275 0.01264 -0.1866 0.03719c-0.0592 0.02455 -0.113 0.06054 -0.1582 0.10589l-1.6033 1.60331 -1.60331 -1.60331c-0.04524 -0.04535 -0.09898 -0.08134 -0.15816 -0.10589C8.23127 1.01264 8.16784 1 8.10377 1c-0.06406 0 -0.12749 0.01264 -0.18666 0.03719 -0.05917 0.02455 -0.11291 0.06054 -0.15815 0.10589L6.15565 2.74639 5.03937 1.63011c-0.06806 -0.06823 -0.15483 -0.11473 -0.24932 -0.13363 -0.09451 -0.01889 -0.19249 -0.00933 -0.28155 0.02749 -0.08905 0.03681 -0.1652 0.09922 -0.21877 0.17932 -0.05358 0.0801 -0.08219 0.1743 -0.08221 0.27067V22.026Z" stroke-width="1"></path>
  <path fill="#ffffff" d="M19.6591 1.66128c-0.0441 -0.05847 -0.1016 -0.10556 -0.1675 -0.13734 -0.0891 -0.03681 -0.1871 -0.04636 -0.2816 -0.02747 -0.0945 0.0189 -0.1812 0.06541 -0.2493 0.13364l-1.1163 1.11628 -1.6033 -1.60331c-0.0452 -0.04535 -0.099 -0.08134 -0.1582 -0.10589C16.0238 1.01264 15.9604 1 15.8963 1c-0.0641 0 -0.1275 0.01264 -0.1866 0.03719 -0.0593 0.02455 -0.113 0.06054 -0.1582 0.10589l-1.6033 1.60331 -1.6034 -1.60331c-0.0451 -0.04535 -0.0989 -0.08134 -0.1581 -0.10589C12.1275 1.01264 12.0641 1 12 1s-0.1275 0.01264 -0.1866 0.03719c-0.0592 0.02455 -0.113 0.06054 -0.1582 0.10589l-1.6033 1.60331 -1.60331 -1.60331c-0.04524 -0.04535 -0.09898 -0.08134 -0.15816 -0.10589C8.23127 1.01264 8.16784 1 8.10377 1c-0.06406 0 -0.12749 0.01264 -0.18666 0.03719 -0.05917 0.02455 -0.11291 0.06054 -0.15815 0.10589L6.15565 2.74639 5.03937 1.63011c-0.06806 -0.06823 -0.15483 -0.11473 -0.24932 -0.13363 -0.09451 -0.01889 -0.19249 -0.00933 -0.28155 0.02749 -0.08905 0.03681 -0.1652 0.09922 -0.21877 0.17932 -0.05358 0.0801 -0.08219 0.1743 -0.08221 0.27067V17.1129L19.6591 1.66128Z" stroke-width="1"></path>
  <path stroke="#191919" stroke-linecap="round" stroke-linejoin="round" d="M4.20752 22.026c0.00002 0.0964 0.02863 0.1906 0.08221 0.2707 0.05357 0.0801 0.12972 0.1425 0.21877 0.1794 0.08906 0.0368 0.18704 0.0463 0.28155 0.0274 0.09449 -0.0189 0.18126 -0.0654 0.24932 -0.1336l1.11628 -1.1163 1.60331 1.6033c0.04524 0.0454 0.09898 0.0813 0.15815 0.1059 0.05917 0.0245 0.1226 0.0372 0.18666 0.0372 0.06407 0 0.1275 -0.0127 0.18666 -0.0372 0.05918 -0.0246 0.11292 -0.0605 0.15816 -0.1059l1.60331 -1.6033 1.6033 1.6033c0.0452 0.0454 0.099 0.0813 0.1582 0.1059 0.0591 0.0245 0.1225 0.0372 0.1866 0.0372 0.0641 0 0.1275 -0.0127 0.1867 -0.0372 0.0592 -0.0246 0.113 -0.0605 0.1581 -0.1059l1.6034 -1.6033 1.6033 1.6033c0.0452 0.0454 0.0989 0.0813 0.1582 0.1059 0.0591 0.0245 0.1225 0.0372 0.1866 0.0372 0.0641 0 0.1275 -0.0127 0.1866 -0.0372 0.0592 -0.0246 0.113 -0.0605 0.1582 -0.1059l1.6033 -1.6033 1.1163 1.1163c0.0681 0.0682 0.1548 0.1147 0.2493 0.1336s0.1925 0.0094 0.2816 -0.0274c0.089 -0.0369 0.1652 -0.0993 0.2187 -0.1794 0.0536 -0.0801 0.0822 -0.1743 0.0822 -0.2707V1.97396c0 -0.09637 -0.0286 -0.19057 -0.0822 -0.27067 -0.0535 -0.0801 -0.1297 -0.14251 -0.2187 -0.17932 -0.0891 -0.03682 -0.1871 -0.04638 -0.2816 -0.02749 -0.0945 0.0189 -0.1812 0.0654 -0.2493 0.13363l-1.1163 1.11628 -1.6033 -1.60331c-0.0452 -0.04535 -0.099 -0.08134 -0.1582 -0.10589C16.0238 1.01264 15.9604 1 15.8963 1c-0.0641 0 -0.1275 0.01264 -0.1866 0.03719 -0.0593 0.02455 -0.113 0.06054 -0.1582 0.10589l-1.6033 1.60331 -1.6034 -1.60331c-0.0451 -0.04535 -0.0989 -0.08134 -0.1581 -0.10589C12.1275 1.01264 12.0641 1 12 1s-0.1275 0.01264 -0.1866 0.03719c-0.0592 0.02455 -0.113 0.06054 -0.1582 0.10589l-1.6033 1.60331 -1.60331 -1.60331c-0.04524 -0.04535 -0.09898 -0.08134 -0.15816 -0.10589C8.23127 1.01264 8.16784 1 8.10377 1c-0.06406 0 -0.12749 0.01264 -0.18666 0.03719 -0.05917 0.02455 -0.11291 0.06054 -0.15815 0.10589L6.15565 2.74639 5.03937 1.63011c-0.06806 -0.06823 -0.15483 -0.11473 -0.24932 -0.13363 -0.09451 -0.01889 -0.19249 -0.00933 -0.28155 0.02749 -0.08905 0.03681 -0.1652 0.09922 -0.21877 0.17932 -0.05358 0.0801 -0.08219 0.1743 -0.08221 0.27067V22.026Z" stroke-width="1"></path>
  <path stroke="#191919" stroke-linecap="round" stroke-linejoin="round" d="M7.12988 6.6427h7.79252" stroke-width="1"></path>
  <path stroke="#191919" stroke-linecap="round" stroke-linejoin="round" d="M7.12988 9.56482h3.89622" stroke-width="1"></path>
  <path stroke="#191919" stroke-linecap="round" stroke-linejoin="round" d="M7.12988 12.4871h3.89622" stroke-width="1"></path>
  <path stroke="#191919" stroke-linecap="round" stroke-linejoin="round" d="M7.12988 15.4092h2.92222" stroke-width="1"></path>
  <path stroke="#191919" stroke-linecap="round" stroke-linejoin="round" d="M14.9224 17.2736v1.0578" stroke-width="1"></path>
  <path stroke="#191919" stroke-linecap="round" stroke-linejoin="round" d="M15.8965 10.5388v1.0598" stroke-width="1"></path>
  <path stroke="#191919" stroke-linecap="round" stroke-linejoin="round" d="M13.9488 15.8961c0 0.289 0.0857 0.5715 0.2462 0.8118 0.1605 0.2402 0.3888 0.4275 0.6558 0.5381 0.2669 0.1107 0.5607 0.1396 0.8441 0.0832 0.2834 -0.0564 0.5438 -0.1956 0.7482 -0.3999 0.2042 -0.2043 0.3434 -0.4647 0.3998 -0.7481 0.0564 -0.2834 0.0275 -0.5772 -0.0832 -0.8442 -0.1105 -0.267 -0.2978 -0.4952 -0.5381 -0.6557 -0.2403 -0.1605 -0.5227 -0.2463 -0.8117 -0.2463 -0.289 0 -0.5715 -0.0857 -0.8118 -0.2462 -0.2402 -0.1605 -0.4275 -0.3887 -0.5381 -0.6557 -0.1106 -0.267 -0.1396 -0.5608 -0.0832 -0.8442 0.0564 -0.2834 0.1956 -0.5438 0.3999 -0.7481 0.2043 -0.2043 0.4647 -0.3435 0.7482 -0.3999 0.2833 -0.0564 0.5771 -0.0275 0.8441 0.0832 0.267 0.1105 0.4952 0.2979 0.6557 0.5381 0.1605 0.2403 0.2463 0.5227 0.2463 0.8117" stroke-width="1"></path>
</svg>