<svg xmlns="http://www.w3.org/2000/svg" fill="none" viewBox="0 0 24 24" id="Receipt--Streamline-Ultimate">
  <desc>
    Receipt Streamline Icon: https://streamlinehq.com
  </desc>
  <path fill="#ffffff" d="M21.1235 2.8878s0.0096 0.54673 0.0096 1.43876c0.0384 4.22996 -0.1151 16.30594 -2.8871 16.30594 -3.3571 0 -0.4796 -3.8367 -2.8775 -3.8367H8.19385c1.06468 -5.3234 0.95917 -13.908 0.95917 -13.908s0.02878 -1.43876 0.98798 -1.43876h11.9609c-0.9592 0 -0.9784 1.43876 -0.9784 1.43876Z" stroke-width="1"></path>
  <path fill="#e3e3e3" d="M22.1016 1.44904h-1.8819c-0.0575 5.78286 -3.5844 13.53876 -8.9424 15.34676h4.0909c2.398 0 -0.4796 3.8367 2.8775 3.8367 2.7721 0 2.9255 -12.07598 2.8872 -16.30594 0 -0.89203 -0.0096 -1.43876 -0.0096 -1.43876s0.0192 -1.43876 0.9783 -1.43876Z" stroke-width="1"></path>
  <path stroke="#191919" stroke-linecap="round" stroke-linejoin="round" d="M21.1235 2.8878s0.0096 0.54673 0.0096 1.43876c0.0384 4.22996 -0.1151 16.30594 -2.8871 16.30594 -3.3571 0 -0.4796 -3.8367 -2.8775 -3.8367H8.19385c1.06468 -5.3234 0.95917 -13.908 0.95917 -13.908s0.02878 -1.43876 0.98798 -1.43876h11.9609c-0.9592 0 -0.9784 1.43876 -0.9784 1.43876Z" stroke-width="1"></path>
  <path stroke="#191919" stroke-linecap="round" stroke-linejoin="round" d="M12.0317 5.28564h1.9184" stroke-width="1"></path>
  <path stroke="#191919" stroke-linecap="round" stroke-linejoin="round" d="M12.2725 11.0408h5.5152" stroke-width="1"></path>
  <path stroke="#191919" stroke-linecap="round" stroke-linejoin="round" d="M12.2725 8.16333h5.5152" stroke-width="1"></path>
  <path stroke="#191919" stroke-linecap="round" stroke-linejoin="round" d="M11.5527 13.9183h5.7551" stroke-width="1"></path>
  <path fill="#b2b2b2" stroke="#191919" stroke-linecap="round" stroke-linejoin="round" d="M22.9939 3.25228c0.0151 0.13457 0.0016 0.27081 -0.0398 0.39976 -0.0413 0.12895 -0.1094 0.24769 -0.2 0.3484 -0.0878 0.10232 -0.1967 0.18442 -0.3192 0.24071 -0.1225 0.0563 -0.2557 0.08543 -0.3906 0.08541h-0.9112c0 -0.89203 -0.0096 -1.43876 -0.0096 -1.43876s0.0192 -1.43876 0.9784 -1.43876c0.5659 0 0.7961 0.98795 0.892 1.80324Z" stroke-width="1"></path>
  <path fill="#ffffff" stroke="#191919" stroke-linecap="round" stroke-linejoin="round" d="M15.3684 16.7959c-1.4675 0 -0.9591 2.1677 -1.1222 3.8367 -0.0959 1.0551 -0.4604 1.9183 -1.7553 1.9183H1c3.35711 0 0.47959 -5.755 2.87752 -5.755H15.3684Z" stroke-width="1"></path>
  <path fill="#b2b2b2" stroke="#191919" stroke-linecap="round" stroke-linejoin="round" d="M18.2459 20.6326h-3.9998c0.1631 -1.669 -0.3453 -3.8367 1.1222 -3.8367 2.398 0 -0.4796 3.8367 2.8776 3.8367Z" stroke-width="1"></path>
</svg>