<svg xmlns="http://www.w3.org/2000/svg" fill="none" viewBox="0 0 24 24" id="Shop-Like--Streamline-Ultimate">
  <desc>
    Shop Like Streamline Icon: https://streamlinehq.com
  </desc>
  <path fill="#ffffff" d="M21.1307 6.99072H4.27734V19.9584H21.1307V6.99072Z" stroke-width="1"></path>
  <path fill="#ffdda1" d="M2.4043 21.0744c0.18351 0.0943 0.36765 0.1879 0.55241 0.2809 3.40531 1.7209 3.23865 1.3857 6.15427 1.3857 1.21722 0 1.83612 -0.7921 2.19562 -1.9522v-0.0074l0.8848 -2.9531v-0.0056c0.042 -0.1384 0.051 -0.2848 0.0262 -0.4273 -0.0248 -0.1425 -0.0827 -0.2771 -0.169 -0.3931 -0.0863 -0.1161 -0.1988 -0.2102 -0.3281 -0.2749 -0.1294 -0.0647 -0.2721 -0.0981 -0.4167 -0.0976H9.03233c-0.14173 -0.0004 -0.28153 -0.0329 -0.40885 -0.0952 -0.12732 -0.0623 -0.23883 -0.1527 -0.32614 -0.2643 -0.08678 -0.1118 -0.14654 -0.2421 -0.17464 -0.3808 -0.0281 -0.1388 -0.02376 -0.2821 0.01266 -0.4188l0.40916 -1.544c0.03181 -0.1199 0.03473 -0.2456 0.00852 -0.3669 -0.0262 -0.1212 -0.08078 -0.2345 -0.15926 -0.3306 -0.07756 -0.095 -0.176 -0.1709 -0.28768 -0.2216 -0.11167 -0.0508 -0.23356 -0.0751 -0.35616 -0.071 -0.12259 0.004 -0.2426 0.0364 -0.35066 0.0945 -0.10806 0.058 -0.20124 0.1402 -0.27231 0.2402l-2.26864 3.1984c-0.08604 0.121 -0.19976 0.2197 -0.3317 0.2877 -0.13193 0.0681 -0.27823 0.1037 -0.4267 0.1037H2.4043" stroke-width="1"></path>
  <path fill="#ffdda1" d="M11.3075 16.63H9.03233c-0.14173 -0.0003 -0.28153 -0.0329 -0.40885 -0.0952 -0.12732 -0.0623 -0.23883 -0.1526 -0.32614 -0.2643 -0.08678 -0.1118 -0.14654 -0.2421 -0.17464 -0.3808 -0.0281 -0.1388 -0.02376 -0.282 0.01266 -0.4188l0.40916 -1.543c0.03182 -0.1202 0.03474 -0.2463 0.00854 -0.3678 -0.0262 -0.1215 -0.08077 -0.2352 -0.15928 -0.3316 -0.07776 -0.0947 -0.17628 -0.1702 -0.28791 -0.2208 -0.11165 -0.0506 -0.23341 -0.0747 -0.35589 -0.0706 -0.12248 0.004 -0.24237 0.0362 -0.3504 0.0941 -0.10804 0.0579 -0.20131 0.1398 -0.27261 0.2394l-2.26864 3.1993c-0.08609 0.1209 -0.19985 0.2194 -0.33179 0.2874 -0.13193 0.0679 -0.27822 0.1032 -0.42661 0.1031H2.4043v1.9147c2.72173 1.0383 5.6139 1.5575 8.5268 1.5308 0.177 0 0.3493 -0.0121 0.5244 -0.0159l0.7378 -2.4615v-0.0056c0.0418 -0.1384 0.0506 -0.2847 0.0257 -0.4271 -0.0248 -0.1424 -0.0828 -0.2769 -0.1691 -0.3929 -0.0862 -0.116 -0.1986 -0.2101 -0.3278 -0.2749 -0.1293 -0.0647 -0.2719 -0.0983 -0.4164 -0.098h0.0018Z" stroke-width="1"></path>
  <path stroke="#191919" stroke-linecap="round" stroke-linejoin="round" d="M2.4043 21.0744c0.18351 0.0943 0.36765 0.1879 0.55241 0.2809 3.40531 1.7209 3.23865 1.3857 6.15427 1.3857 1.21722 0 1.83612 -0.7921 2.19562 -1.9522v-0.0074l0.8848 -2.9531v-0.0056c0.042 -0.1384 0.051 -0.2848 0.0262 -0.4273 -0.0248 -0.1425 -0.0827 -0.2771 -0.169 -0.3931 -0.0863 -0.1161 -0.1988 -0.2102 -0.3281 -0.2749 -0.1294 -0.0647 -0.2721 -0.0981 -0.4167 -0.0976H9.03233c-0.14173 -0.0004 -0.28153 -0.0329 -0.40885 -0.0952 -0.12732 -0.0623 -0.23883 -0.1527 -0.32614 -0.2643 -0.08678 -0.1118 -0.14654 -0.2421 -0.17464 -0.3808 -0.0281 -0.1388 -0.02376 -0.2821 0.01266 -0.4188l0.40916 -1.544c0.03181 -0.1199 0.03473 -0.2456 0.00852 -0.3669 -0.0262 -0.1212 -0.08078 -0.2345 -0.15926 -0.3306 -0.07756 -0.095 -0.176 -0.1709 -0.28768 -0.2216 -0.11167 -0.0508 -0.23356 -0.0751 -0.35616 -0.071 -0.12259 0.004 -0.2426 0.0364 -0.35066 0.0945 -0.10806 0.058 -0.20124 0.1402 -0.27231 0.2402l-2.26864 3.1984c-0.08604 0.121 -0.19976 0.2197 -0.3317 0.2877 -0.13193 0.0681 -0.27823 0.1037 -0.4267 0.1037H2.4043" stroke-width="1"></path>
  <path fill="#66e1ff" d="M2.40444 16.2134H1v6.554h1.40444v-6.554Z" stroke-width="1"></path>
  <path stroke="#191919" stroke-linecap="round" stroke-linejoin="round" d="M1.46826 16.2134h0.9363v6.554h-0.9363" stroke-width="1"></path>
  <path fill="#ff808c" d="M4.96216 1.23267c-0.18968 0.00009 -0.37487 0.05779 -0.53103 0.16547 -0.15616 0.10767 -0.27594 0.26024 -0.34347 0.4375L2.60832 5.71939c-0.1599 0.41646 -0.16588 0.87631 -0.01686 1.29677 0.20497 0.57054 0.60461 1.05051 1.1286 1.35541 0.52397 0.30491 1.13872 0.41524 1.73603 0.31154 0.59731 -0.10368 1.1389 -0.41474 1.52945 -0.87841 0.39056 -0.46367 0.60506 -1.05024 0.60574 -1.65648 0 0.68288 0.27127 1.33779 0.75415 1.82066 0.48287 0.48288 1.13779 0.75415 1.82067 0.75415 0.6828 0 1.3378 -0.27127 1.8206 -0.75415 0.483 -0.48287 0.7542 -1.13778 0.7542 -1.82066 0 0.68288 0.2713 1.33779 0.7542 1.82066 0.4828 0.48288 1.1378 0.75415 1.8206 0.75415 0.6829 0 1.3378 -0.27127 1.8206 -0.75415 0.483 -0.48287 0.7542 -1.13778 0.7542 -1.82066 0.0007 0.60624 0.2152 1.19281 0.6058 1.65648 0.3905 0.46367 0.9321 0.77473 1.5295 0.87841 0.5972 0.1037 1.212 -0.00663 1.7359 -0.31154 0.5241 -0.3049 0.9237 -0.78487 1.1286 -1.35541 0.1508 -0.41994 0.1461 -0.87997 -0.0131 -1.29677l-1.4793 -3.88375c-0.0674 -0.17696 -0.1869 -0.32932 -0.3427 -0.43697 -0.1558 -0.10765 -0.3405 -0.16553 -0.5299 -0.166H4.96216Z" stroke-width="1"></path>
  <path fill="#ffbfc5" d="M3.77938 4.5097H21.7104c0.1818 0.00157 0.3603 0.04942 0.5185 0.13902 0.1582 0.0896 0.2911 0.21801 0.3859 0.37313l-1.2171 -3.1834c-0.067 -0.17734 -0.1861 -0.33019 -0.3418 -0.43836 -0.1556 -0.10817 -0.3404 -0.16655 -0.5299 -0.16742H4.96286c-0.18969 0.00009 -0.37488 0.05779 -0.53103 0.16547 -0.15617 0.10767 -0.27595 0.26024 -0.34347 0.4375L2.87305 5.02185c0.09485 -0.15557 0.22792 -0.2843 0.38656 -0.37394 0.15863 -0.08964 0.33756 -0.13722 0.51977 -0.13821Z" stroke-width="1"></path>
  <path stroke="#191919" stroke-linecap="round" stroke-linejoin="round" d="M4.96216 1.23267c-0.18968 0.00009 -0.37487 0.05779 -0.53103 0.16547 -0.15616 0.10767 -0.27594 0.26024 -0.34347 0.4375L2.60832 5.71939c-0.1599 0.41646 -0.16588 0.87631 -0.01686 1.29677 0.20497 0.57054 0.60461 1.05051 1.1286 1.35541 0.52397 0.30491 1.13872 0.41524 1.73603 0.31154 0.59731 -0.10368 1.1389 -0.41474 1.52945 -0.87841 0.39056 -0.46367 0.60506 -1.05024 0.60574 -1.65648 0 0.68288 0.27127 1.33779 0.75415 1.82066 0.48287 0.48288 1.13779 0.75415 1.82067 0.75415 0.6828 0 1.3378 -0.27127 1.8206 -0.75415 0.483 -0.48287 0.7542 -1.13778 0.7542 -1.82066 0 0.68288 0.2713 1.33779 0.7542 1.82066 0.4828 0.48288 1.1378 0.75415 1.8206 0.75415 0.6829 0 1.3378 -0.27127 1.8206 -0.75415 0.483 -0.48287 0.7542 -1.13778 0.7542 -1.82066 0.0007 0.60624 0.2152 1.19281 0.6058 1.65648 0.3905 0.46367 0.9321 0.77473 1.5295 0.87841 0.5972 0.1037 1.212 -0.00663 1.7359 -0.31154 0.5241 -0.3049 0.9237 -0.78487 1.1286 -1.35541 0.1508 -0.41994 0.1461 -0.87997 -0.0131 -1.29677l-1.4793 -3.88375c-0.0674 -0.17696 -0.1869 -0.32932 -0.3427 -0.43697 -0.1558 -0.10765 -0.3405 -0.16553 -0.5299 -0.166H4.96216Z" stroke-width="1"></path>
  <path stroke="#191919" stroke-linecap="round" stroke-linejoin="round" d="M13.6401 19.9585h7.4904V8.63684" stroke-width="1"></path>
  <path fill="#c77f67" stroke="#191919" stroke-linecap="round" stroke-linejoin="round" d="M14.5762 19.9584V12.468c0 -0.2483 0.0987 -0.4865 0.2742 -0.662 0.1756 -0.1756 0.4138 -0.2743 0.6621 -0.2743h2.8089c0.2483 0 0.4865 0.0987 0.662 0.2743 0.1756 0.1755 0.2742 0.4137 0.2742 0.662v7.4904h-4.6814Z" stroke-width="1"></path>
  <path stroke="#191919" stroke-linecap="round" stroke-linejoin="round" d="M4.27734 12V8.61438" stroke-width="1"></path>
</svg>