<svg xmlns="http://www.w3.org/2000/svg" fill="none" viewBox="0 0 24 24" id="Dentistry-Tooth-Chipped--Streamline-Ultimate">
  <desc>
    Dentistry Tooth Chipped Streamline Icon: https://streamlinehq.com
  </desc>
  <path fill="#ffffff" d="M16.285 13.8269c0.7097 1.726 1.0674 3.5764 1.0522 5.4426 0.0008 1.0148 -0.0985 2.0272 -0.2965 3.0226 -0.0419 0.1999 -0.1513 0.3793 -0.3098 0.5082 -0.1585 0.1289 -0.3565 0.1993 -0.5607 0.1996 -0.2286 0.0007 -0.4495 -0.0828 -0.6207 -0.2345 -0.171 -0.1517 -0.2803 -0.361 -0.3071 -0.5881 -0.3635 -3.3765 -2.3244 -5.9496 -4.6774 -5.9496 -2.35304 0 -4.31391 2.5731 -4.67739 5.9496 -0.02676 0.2271 -0.13609 0.4364 -0.30718 0.5881 -0.1711 0.1517 -0.392 0.2352 -0.62064 0.2345 -0.20426 -0.0003 -0.40222 -0.0707 -0.5607 -0.1996 -0.15847 -0.1289 -0.26783 -0.3083 -0.30974 -0.5082 -0.19802 -0.9954 -0.29734 -2.0078 -0.29652 -3.0226 -0.01525 -1.8662 0.34248 -3.7166 1.05217 -5.4426 -1.35826 -1.3487 -2.41043 -3.4531 -2.41043 -6.75306 0 -3.04174 1.97043 -5.44261 4.4 -5.44261 0.74498 -0.00064 1.47794 0.18768 2.13035 0.54733 0.6524 0.35966 1.20298 0.87892 1.60008 1.50919 0.2291 -0.35981 0.5084 -0.68511 0.8293 -0.96609 0.0775 -0.06793 0.1749 -0.109 0.2777 -0.11711 0.1027 -0.00811 0.2053 0.0172 0.2925 0.07215 0.0872 0.05494 0.1543 0.13658 0.1914 0.23276 0.037 0.09617 0.042 0.20175 0.0141 0.30098 -0.2161 0.78118 -0.2489 1.60174 -0.0957 2.39766 0.1532 0.79592 0.4882 1.54567 0.979 2.19076 0.4907 0.6451 1.1239 1.16807 1.8501 1.52812 0.7261 0.36005 1.5257 0.54745 2.3362 0.54755 0.1626 0 0.3243 -0.00765 0.4783 -0.02296 0.0777 -0.00734 0.1561 0.00445 0.2282 0.03435 0.0721 0.02991 0.1358 0.07702 0.1856 0.13718 0.0496 0.0602 0.0839 0.1317 0.0996 0.2082 0.0158 0.0764 0.0126 0.1556 -0.0093 0.2305 -0.3487 1.2684 -1.0154 2.4266 -1.937 3.3651Z" stroke-width="1"></path>
  <path fill="#e3e3e3" d="M10.5832 16.2278c-2.14952 0.0014 -4.21639 -0.828 -5.7688 -2.3147 -0.68752 1.7015 -1.03459 3.5214 -1.02157 5.3565 -0.00082 1.0148 0.09851 2.0272 0.29653 3.0226 0.0419 0.1999 0.15126 0.3793 0.30974 0.5082 0.15847 0.1288 0.35643 0.1993 0.56069 0.1996 0.22866 0.0007 0.44956 -0.0828 0.62064 -0.2345 0.17109 -0.1517 0.28042 -0.361 0.30719 -0.5881 0.36347 -3.3765 2.32434 -5.9496 4.67738 -5.9496 2.353 0 4.3139 2.5731 4.6774 5.9496 0.0268 0.2271 0.1361 0.4364 0.3072 0.5881 0.1711 0.1517 0.392 0.2352 0.6206 0.2345 0.2042 -0.0003 0.4022 -0.0708 0.5607 -0.1996 0.1585 -0.1289 0.2679 -0.3083 0.3098 -0.5082 0.198 -0.9954 0.2973 -2.0078 0.2965 -3.0226 0.0129 -1.8266 -0.3312 -3.6381 -1.013 -5.3326 -1.549 1.4717 -3.6043 2.2918 -5.741 2.2908Z" stroke-width="1"></path>
  <path stroke="#191919" stroke-linecap="round" stroke-linejoin="round" d="M16.285 13.8269c0.7097 1.726 1.0674 3.5764 1.0522 5.4426 0.0008 1.0148 -0.0985 2.0272 -0.2965 3.0226 -0.0419 0.1999 -0.1513 0.3793 -0.3098 0.5082 -0.1585 0.1289 -0.3565 0.1993 -0.5607 0.1996 -0.2286 0.0007 -0.4495 -0.0828 -0.6207 -0.2345 -0.171 -0.1517 -0.2803 -0.361 -0.3071 -0.5881 -0.3635 -3.3765 -2.3244 -5.9496 -4.6774 -5.9496 -2.35304 0 -4.31391 2.5731 -4.67739 5.9496 -0.02676 0.2271 -0.13609 0.4364 -0.30718 0.5881 -0.1711 0.1517 -0.392 0.2352 -0.62064 0.2345 -0.20426 -0.0003 -0.40222 -0.0707 -0.5607 -0.1996 -0.15847 -0.1289 -0.26783 -0.3083 -0.30974 -0.5082 -0.19802 -0.9954 -0.29734 -2.0078 -0.29652 -3.0226 -0.01525 -1.8662 0.34248 -3.7166 1.05217 -5.4426 -1.35826 -1.3487 -2.41043 -3.4531 -2.41043 -6.75306 0 -3.04174 1.97043 -5.44261 4.4 -5.44261 0.74498 -0.00064 1.47794 0.18768 2.13035 0.54733 0.6524 0.35966 1.20298 0.87892 1.60008 1.50919 0.2291 -0.35981 0.5084 -0.68511 0.8293 -0.96609 0.0775 -0.06793 0.1749 -0.109 0.2777 -0.11711 0.1027 -0.00811 0.2053 0.0172 0.2925 0.07215 0.0872 0.05494 0.1543 0.13658 0.1914 0.23276 0.037 0.09617 0.042 0.20175 0.0141 0.30098 -0.2161 0.78118 -0.2489 1.60174 -0.0957 2.39766 0.1532 0.79592 0.4882 1.54567 0.979 2.19076 0.4907 0.6451 1.1239 1.16807 1.8501 1.52812 0.7261 0.36005 1.5257 0.54745 2.3362 0.54755 0.1626 0 0.3243 -0.00765 0.4783 -0.02296 0.0777 -0.00734 0.1561 0.00445 0.2282 0.03435 0.0721 0.02991 0.1358 0.07702 0.1856 0.13718 0.0496 0.0602 0.0839 0.1317 0.0996 0.2082 0.0158 0.0764 0.0126 0.1556 -0.0093 0.2305 -0.3487 1.2684 -1.0154 2.4266 -1.937 3.3651Z" stroke-width="1"></path>
  <path stroke="#191919" stroke-linecap="round" stroke-linejoin="round" d="M15.8257 2.43478V1" stroke-width="1"></path>
  <path stroke="#191919" stroke-linecap="round" stroke-linejoin="round" d="m18.8696 3.69556 1.0149 -1.01487" stroke-width="1"></path>
  <path stroke="#191919" stroke-linecap="round" stroke-linejoin="round" d="M20.1304 6.73914h1.4348" stroke-width="1"></path>
</svg>