<svg xmlns="http://www.w3.org/2000/svg" fill="none" viewBox="0 0 24 24" id="Hospital-Building--Streamline-Ultimate">
  <desc>
    Hospital Building Streamline Icon: https://streamlinehq.com
  </desc>
  <path fill="#e3e3e3" d="M1.95652 6.26086c-0.25369 0 -0.49698 0.10078 -0.67636 0.28016C1.10078 6.72041 1 6.9637 1 7.21739V22.5217c0 0.1269 0.05039 0.2485 0.14008 0.3383 0.08969 0.0896 0.21134 0.14 0.33818 0.14H14.3913V7.21739c0 -0.25369 -0.1008 -0.49698 -0.2802 -0.67637 -0.1793 -0.17938 -0.4226 -0.28016 -0.6763 -0.28016H1.95652Z" stroke-width="1"></path>
  <path fill="#ffffff" d="M13.4348 6.26086H1.95652c-0.25369 0 -0.49698 0.10078 -0.67636 0.28016C1.10078 6.72041 1 6.9637 1 7.21739v2.3913c0 -0.25369 0.10078 -0.49698 0.28016 -0.67637 0.17938 -0.17937 0.42267 -0.28015 0.67636 -0.28015H13.4348c0.2537 0 0.497 0.10078 0.6763 0.28015 0.1794 0.17939 0.2802 0.42268 0.2802 0.67637v-2.3913c0 -0.25369 -0.1008 -0.49698 -0.2802 -0.67637 -0.1793 -0.17938 -0.4226 -0.28016 -0.6763 -0.28016Z" stroke-width="1"></path>
  <path stroke="#191919" stroke-linecap="round" stroke-linejoin="round" d="M3.86963 13.4348h7.65217" stroke-width="1"></path>
  <path stroke="#191919" stroke-linecap="round" stroke-linejoin="round" d="M3.86963 10.5652h7.65217" stroke-width="1"></path>
  <path stroke="#191919" stroke-linecap="round" stroke-linejoin="round" d="M3.86963 16.3044h3.82609" stroke-width="1"></path>
  <path stroke="#191919" stroke-linecap="round" stroke-linejoin="round" d="M3.86963 19.1739h3.82609" stroke-width="1"></path>
  <path fill="#e3e3e3" d="M9.60889 22.5218c0 0.1268 0.05039 0.2485 0.14008 0.3382 0.08968 0.0896 0.21133 0.14 0.33813 0.14h12.4348c0.1269 0 0.2485 -0.0504 0.3383 -0.14 0.0896 -0.0897 0.14 -0.2114 0.14 -0.3382v-6.2174c0 -0.2537 -0.1008 -0.497 -0.2802 -0.6764 -0.1793 -0.1793 -0.4227 -0.2802 -0.6763 -0.2802H10.5654c-0.2537 0 -0.497 0.1009 -0.67636 0.2802 -0.17937 0.1794 -0.28015 0.4227 -0.28015 0.6764v6.2174Z" stroke-width="1"></path>
  <path fill="#ffffff" d="M22.0437 15.3478H10.5654c-0.2537 0 -0.497 0.1009 -0.67636 0.2802 -0.17937 0.1794 -0.28015 0.4227 -0.28015 0.6764v1.913c0 -0.2537 0.10078 -0.497 0.28015 -0.6764 0.17936 -0.1793 0.42266 -0.2801 0.67636 -0.2801h11.4783c0.2536 0 0.497 0.1008 0.6763 0.2801 0.1794 0.1794 0.2802 0.4227 0.2802 0.6764v-1.913c0 -0.2537 -0.1008 -0.497 -0.2802 -0.6764 -0.1793 -0.1793 -0.4227 -0.2802 -0.6763 -0.2802Z" stroke-width="1"></path>
  <path stroke="#191919" stroke-linecap="round" stroke-linejoin="round" d="M9.60889 22.5218c0 0.1268 0.05039 0.2485 0.14008 0.3382 0.08968 0.0896 0.21133 0.14 0.33813 0.14h12.4348c0.1269 0 0.2485 -0.0504 0.3383 -0.14 0.0896 -0.0897 0.14 -0.2114 0.14 -0.3382v-6.2174c0 -0.2537 -0.1008 -0.497 -0.2802 -0.6764 -0.1793 -0.1793 -0.4227 -0.2802 -0.6763 -0.2802H10.5654c-0.2537 0 -0.497 0.1009 -0.67636 0.2802 -0.17937 0.1794 -0.28015 0.4227 -0.28015 0.6764v6.2174Z" stroke-width="1"></path>
  <path stroke="#191919" stroke-linecap="round" stroke-linejoin="round" d="M1.95652 6.26086c-0.25369 0 -0.49698 0.10078 -0.67636 0.28016C1.10078 6.72041 1 6.9637 1 7.21739V22.5217c0 0.1269 0.05039 0.2485 0.14008 0.3383 0.08969 0.0896 0.21134 0.14 0.33818 0.14h6.21739" stroke-width="1"></path>
  <path stroke="#191919" stroke-linecap="round" stroke-linejoin="round" d="M14.3911 13.4348V7.21739c0 -0.25369 -0.1008 -0.49698 -0.2802 -0.67637 -0.1793 -0.17938 -0.4227 -0.28016 -0.6763 -0.28016" stroke-width="1"></path>
  <path fill="#66e1ff" stroke="#191919" stroke-linecap="round" stroke-linejoin="round" d="M17.2607 21.0869h-1.913V23h1.913v-1.9131Z" stroke-width="1"></path>
  <path stroke="#191919" stroke-linecap="round" stroke-linejoin="round" d="M11.522 19.1739h0.9565" stroke-width="1"></path>
  <path stroke="#191919" stroke-linecap="round" stroke-linejoin="round" d="M12.4785 17.2609h-0.9565" stroke-width="1"></path>
  <path stroke="#191919" stroke-linecap="round" stroke-linejoin="round" d="M14.3911 19.1739h0.9565" stroke-width="1"></path>
  <path stroke="#191919" stroke-linecap="round" stroke-linejoin="round" d="M15.3476 17.2609h-0.9565" stroke-width="1"></path>
  <path stroke="#191919" stroke-linecap="round" stroke-linejoin="round" d="M17.2607 19.1739h0.9566" stroke-width="1"></path>
  <path stroke="#191919" stroke-linecap="round" stroke-linejoin="round" d="M18.2173 17.2609h-0.9566" stroke-width="1"></path>
  <path stroke="#191919" stroke-linecap="round" stroke-linejoin="round" d="M20.1304 19.1739h0.9565" stroke-width="1"></path>
  <path stroke="#191919" stroke-linecap="round" stroke-linejoin="round" d="M21.0869 17.2609h-0.9565" stroke-width="1"></path>
  <path fill="#ff808c" d="M7.69572 8.65217c2.11309 0 3.82608 -1.71299 3.82608 -3.82608S9.80881 1 7.69572 1 3.86963 2.713 3.86963 4.82609s1.713 3.82608 3.82609 3.82608Z" stroke-width="1"></path>
  <path fill="#ffbfc5" d="M7.69538 1.00001c-0.7659 -0.001661 -1.51461 0.22711 -2.14878 0.65656 -0.63419 0.42946 -1.12453 1.03975 -1.40729 1.75156 -0.28276 0.7118 -0.34487 1.49221 -0.17826 2.23978 0.16661 0.74757 0.55424 1.42773 1.11251 1.9521l5.39574 -5.39574c-0.3554 -0.37975 -0.785 -0.68256 -1.26212 -0.88969 -0.47712 -0.20714 -0.99166 -0.3142 -1.5118 -0.31457Z" stroke-width="1"></path>
  <path stroke="#191919" stroke-linecap="round" stroke-linejoin="round" d="M7.69572 8.65217c2.11309 0 3.82608 -1.71299 3.82608 -3.82608S9.80881 1 7.69572 1 3.86963 2.713 3.86963 4.82609s1.713 3.82608 3.82609 3.82608Z" stroke-width="1"></path>
  <path stroke="#191919" stroke-linecap="round" stroke-linejoin="round" d="M7.6958 2.91306v3.82608" stroke-width="1"></path>
  <path stroke="#191919" stroke-linecap="round" stroke-linejoin="round" d="M9.6088 4.82608H5.78271" stroke-width="1"></path>
</svg>