<svg xmlns="http://www.w3.org/2000/svg" fill="none" viewBox="0 0 24 24" id="Hospital-Sign--Streamline-Ultimate">
  <desc>
    Hospital Sign Streamline Icon: https://streamlinehq.com
  </desc>
  <path fill="#ff808c" d="M21.0871 1.95651H6.73924c-0.52827 0 -0.95653 0.42826 -0.95653 0.95652V17.2609c0 0.5282 0.42826 0.9565 0.95653 0.9565H21.0871c0.5283 0 0.9565 -0.4283 0.9565 -0.9565V2.91303c0 -0.52826 -0.4282 -0.95652 -0.9565 -0.95652Z" stroke-width="1"></path>
  <path fill="#ffbfc5" d="M21.0871 1.95651H6.73924c-0.25369 0 -0.49698 0.10078 -0.67637 0.28016 -0.17938 0.17938 -0.28016 0.42268 -0.28016 0.67636V17.2609c0.00179 0.237 0.09262 0.4647 0.25444 0.638L21.7241 2.2119c-0.173 -0.16172 -0.4002 -0.25281 -0.637 -0.25539Z" stroke-width="1"></path>
  <path stroke="#191919" stroke-linecap="round" stroke-linejoin="round" d="M1.95654 23V1" stroke-width="1"></path>
  <path stroke="#191919" stroke-linecap="round" stroke-linejoin="round" d="M1.95654 4.82608h3.82609" stroke-width="1"></path>
  <path stroke="#191919" stroke-linecap="round" stroke-linejoin="round" d="M1.95654 15.3478h3.82609" stroke-width="1"></path>
  <path fill="#e3e3e3" d="M19.1741 8.17391c0 -0.12685 -0.0504 -0.2485 -0.1401 -0.33818 -0.0897 -0.08969 -0.2113 -0.14008 -0.3382 -0.14008h-2.3913V5.30434c0 -0.12684 -0.0504 -0.24849 -0.14 -0.33818 -0.0897 -0.08969 -0.2114 -0.14008 -0.3382 -0.14008h-3.8261c-0.1269 0 -0.2485 0.05039 -0.3383 0.14008 -0.0896 0.08969 -0.14 0.21134 -0.14 0.33818v2.39131H9.1306c-0.12684 0 -0.24849 0.05039 -0.33817 0.14008 -0.0897 0.08968 -0.14009 0.21133 -0.14009 0.33818V12c0 0.1268 0.05039 0.2485 0.14009 0.3382 0.08968 0.0896 0.21133 0.1401 0.33817 0.1401h2.3913v2.3913c0 0.1268 0.0504 0.2485 0.14 0.3382 0.0898 0.0896 0.2114 0.14 0.3383 0.14h3.8261c0.1268 0 0.2485 -0.0504 0.3382 -0.14 0.0896 -0.0897 0.14 -0.2114 0.14 -0.3382v-2.3913h2.3913c0.1269 0 0.2485 -0.0505 0.3382 -0.1401 0.0897 -0.0897 0.1401 -0.2114 0.1401 -0.3382V8.17391Z" stroke-width="1"></path>
  <path stroke="#191919" stroke-linecap="round" stroke-linejoin="round" d="M21.0871 1.95651H6.73924c-0.52827 0 -0.95653 0.42826 -0.95653 0.95652V17.2609c0 0.5282 0.42826 0.9565 0.95653 0.9565H21.0871c0.5283 0 0.9565 -0.4283 0.9565 -0.9565V2.91303c0 -0.52826 -0.4282 -0.95652 -0.9565 -0.95652Z" stroke-width="1"></path>
  <path fill="#ffffff" d="M15.8263 4.82608h-3.8261c-0.1269 0 -0.2485 0.05039 -0.3383 0.14008 -0.0896 0.08969 -0.14 0.21134 -0.14 0.33818v2.39131H9.1306c-0.12684 0 -0.24849 0.05039 -0.33817 0.14008 -0.0897 0.08968 -0.14009 0.21133 -0.14009 0.33818V12c0 0.1268 0.05039 0.2485 0.14009 0.3382 0.08968 0.0896 0.21133 0.1401 0.33817 0.1401h2.3263l4.8476 -4.8477V5.30434c0 -0.12684 -0.0504 -0.24849 -0.14 -0.33818 -0.0897 -0.08969 -0.2114 -0.14008 -0.3382 -0.14008Z" stroke-width="1"></path>
  <path stroke="#191919" stroke-linecap="round" stroke-linejoin="round" d="M19.1741 8.17391c0 -0.12685 -0.0504 -0.2485 -0.1401 -0.33818 -0.0897 -0.08969 -0.2113 -0.14008 -0.3382 -0.14008h-2.3913V5.30434c0 -0.12684 -0.0504 -0.24849 -0.14 -0.33818 -0.0897 -0.08969 -0.2114 -0.14008 -0.3382 -0.14008h-3.8261c-0.1269 0 -0.2485 0.05039 -0.3383 0.14008 -0.0896 0.08969 -0.14 0.21134 -0.14 0.33818v2.39131H9.1306c-0.12684 0 -0.24849 0.05039 -0.33817 0.14008 -0.0897 0.08968 -0.14009 0.21133 -0.14009 0.33818V12c0 0.1268 0.05039 0.2485 0.14009 0.3382 0.08968 0.0896 0.21133 0.1401 0.33817 0.1401h2.3913v2.3913c0 0.1268 0.0504 0.2485 0.14 0.3382 0.0898 0.0896 0.2114 0.14 0.3383 0.14h3.8261c0.1268 0 0.2485 -0.0504 0.3382 -0.14 0.0896 -0.0897 0.14 -0.2114 0.14 -0.3382v-2.3913h2.3913c0.1269 0 0.2485 -0.0505 0.3382 -0.1401 0.0897 -0.0897 0.1401 -0.2114 0.1401 -0.3382V8.17391Z" stroke-width="1"></path>
</svg>