<svg xmlns="http://www.w3.org/2000/svg" fill="none" viewBox="0 0 24 24" id="Insurance-Hand--Streamline-Ultimate">
  <desc>
    Insurance Hand Streamline Icon: https://streamlinehq.com
  </desc>
  <path fill="#ffdda1" d="M14.3913 18.2174h-2.8696c0 -1.0148 -0.4031 -1.9879 -1.1206 -2.7055 -0.71753 -0.7175 -1.69071 -1.1206 -2.70545 -1.1206H1v7.6522h17.2174c0 -1.0148 -0.4031 -1.988 -1.1206 -2.7055 -0.7176 -0.7175 -1.6908 -1.1206 -2.7055 -1.1206Z" stroke-width="1"></path>
  <path stroke="#191919" stroke-linecap="round" stroke-linejoin="round" d="M11.5217 18.2174h2.8696c1.0147 0 1.9879 0.4031 2.7055 1.1206 0.7175 0.7176 1.1206 1.6908 1.1206 2.7055H1" stroke-width="1"></path>
  <path stroke="#191919" stroke-linecap="round" stroke-linejoin="round" d="M1 14.3913h6.69565c1.01474 0 1.98792 0.4031 2.70545 1.1206 0.7175 0.7176 1.1206 1.6907 1.1206 2.7055H7.21739" stroke-width="1"></path>
  <path stroke="#191919" stroke-linecap="round" stroke-linejoin="round" d="M1 13.4348V23" stroke-width="1"></path>
  <path fill="#ff808c" d="M23.0002 5.30435c0 -0.12684 -0.0504 -0.24849 -0.14 -0.33818 -0.0897 -0.08969 -0.2114 -0.14008 -0.3382 -0.14008h-3.3479V1.47826c0 -0.12684 -0.0503 -0.24849 -0.14 -0.33818C18.9444 1.05039 18.8227 1 18.6959 1h-2.8696c-0.1268 0 -0.2485 0.05039 -0.3382 0.14008 -0.0897 0.08969 -0.14 0.21134 -0.14 0.33818v3.34783h-3.3479c-0.1268 0 -0.2485 0.05039 -0.3381 0.14008 -0.0897 0.08969 -0.1401 0.21134 -0.1401 0.33818v2.86956c0 0.12685 0.0504 0.24849 0.1401 0.33819 0.0896 0.08969 0.2113 0.14007 0.3381 0.14007h3.3479V12c0 0.1268 0.0503 0.2485 0.14 0.3382 0.0897 0.0897 0.2114 0.1401 0.3382 0.1401h2.8696c0.1268 0 0.2485 -0.0504 0.3382 -0.1401s0.14 -0.2114 0.14 -0.3382V8.65217h3.3479c0.1268 0 0.2485 -0.05038 0.3382 -0.14007 0.0896 -0.0897 0.14 -0.21134 0.14 -0.33819V5.30435Z" stroke-width="1"></path>
  <path fill="#ffbfc5" d="M19.6725 4.82609h-0.4984V1.47826c0 -0.12684 -0.0503 -0.24849 -0.14 -0.33818C18.9444 1.05039 18.8227 1 18.6959 1h-2.8696c-0.1268 0 -0.2485 0.05039 -0.3382 0.14008 -0.0897 0.08969 -0.14 0.21134 -0.14 0.33818v3.34783h-3.3479c-0.1268 0 -0.2485 0.05038 -0.3381 0.14008 -0.0897 0.08969 -0.1401 0.21134 -0.1401 0.33818v2.86956c0 0.12685 0.0504 0.24849 0.1401 0.33818 0.0896 0.0897 0.2113 0.14008 0.3381 0.14008h3.3479v0.49835l4.3244 -4.32443Z" stroke-width="1"></path>
  <path stroke="#191919" stroke-linecap="round" stroke-linejoin="round" d="M23.0002 5.30435c0 -0.12684 -0.0504 -0.24849 -0.14 -0.33818 -0.0897 -0.08969 -0.2114 -0.14008 -0.3382 -0.14008h-3.3479V1.47826c0 -0.12684 -0.0503 -0.24849 -0.14 -0.33818C18.9444 1.05039 18.8227 1 18.6959 1h-2.8696c-0.1268 0 -0.2485 0.05039 -0.3382 0.14008 -0.0897 0.08969 -0.14 0.21134 -0.14 0.33818v3.34783h-3.3479c-0.1268 0 -0.2485 0.05039 -0.3381 0.14008 -0.0897 0.08969 -0.1401 0.21134 -0.1401 0.33818v2.86956c0 0.12685 0.0504 0.24849 0.1401 0.33819 0.0896 0.08969 0.2113 0.14007 0.3381 0.14007h3.3479V12c0 0.1268 0.0503 0.2485 0.14 0.3382 0.0897 0.0897 0.2114 0.1401 0.3382 0.1401h2.8696c0.1268 0 0.2485 -0.0504 0.3382 -0.1401s0.14 -0.2114 0.14 -0.3382V8.65217h3.3479c0.1268 0 0.2485 -0.05038 0.3382 -0.14007 0.0896 -0.0897 0.14 -0.21134 0.14 -0.33819V5.30435Z" stroke-width="1"></path>
</svg>