<svg xmlns="http://www.w3.org/2000/svg" fill="none" viewBox="0 0 24 24" id="Medical-File--Streamline-Ultimate">
  <desc>
    Medical File Streamline Icon: https://streamlinehq.com
  </desc>
  <path fill="#e3e3e3" d="M20.1305 22.0435c0 0.2536 -0.1008 0.497 -0.2802 0.6763 -0.1793 0.1794 -0.4227 0.2802 -0.6763 0.2802H4.82615c-0.25369 0 -0.49698 -0.1008 -0.67637 -0.2802 -0.17937 -0.1793 -0.28015 -0.4227 -0.28015 -0.6763V1.95652c0 -0.25369 0.10078 -0.49698 0.28015 -0.67636C4.32917 1.10078 4.57246 1 4.82615 1h9.16925c0.2536 0.00005 0.4969 0.10087 0.6762 0.28026l5.1786 5.17861c0.1795 0.17934 0.2802 0.4226 0.2803 0.67626V22.0435Z" stroke-width="1"></path>
  <path fill="#ffffff" d="m17.2667 3.8753 -2.5951 -2.59504c-0.1793 -0.17939 -0.4226 -0.28021 -0.6762 -0.28026H4.82615c-0.25369 0 -0.49698 0.10078 -0.67637 0.28016 -0.17937 0.17938 -0.28015 0.42267 -0.28015 0.67636V17.2723L17.2667 3.8753Z" stroke-width="1"></path>
  <path stroke="#191919" stroke-linecap="round" stroke-linejoin="round" d="M20.1305 22.0435c0 0.2536 -0.1008 0.497 -0.2802 0.6763 -0.1793 0.1794 -0.4227 0.2802 -0.6763 0.2802H4.82615c-0.25369 0 -0.49698 -0.1008 -0.67637 -0.2802 -0.17937 -0.1793 -0.28015 -0.4227 -0.28015 -0.6763V1.95652c0 -0.25369 0.10078 -0.49698 0.28015 -0.67636C4.32917 1.10078 4.57246 1 4.82615 1h9.16925c0.2536 0.00005 0.4969 0.10087 0.6762 0.28026l5.1786 5.17861c0.1795 0.17934 0.2802 0.4226 0.2803 0.67626V22.0435Z" stroke-width="1"></path>
  <path fill="#e3e3e3" stroke="#191919" stroke-linecap="round" stroke-linejoin="round" d="M20.0351 6.73912h-4.687c-0.2536 0 -0.497 -0.10078 -0.6763 -0.28016 -0.1794 -0.17938 -0.2802 -0.42268 -0.2802 -0.67636V1.09564c0.1045 0.03991 0.1991 0.1019 0.2774 0.18174l5.1843 5.18435c0.0799 0.0783 0.1419 0.17292 0.1818 0.27739Z" stroke-width="1"></path>
  <path stroke="#191919" stroke-linecap="round" stroke-linejoin="round" d="M20.0442 6.73914h-0.0095" stroke-width="1"></path>
  <path stroke="#191919" stroke-linecap="round" stroke-linejoin="round" d="M14.3916 1.09566v-0.00957" stroke-width="1"></path>
  <path stroke="#191919" stroke-linecap="round" stroke-linejoin="round" d="M6.73926 18.2174H17.261" stroke-width="1"></path>
  <path stroke="#191919" stroke-linecap="round" stroke-linejoin="round" d="M6.73926 20.1304H17.261" stroke-width="1"></path>
  <path fill="#ff808c" stroke="#191919" stroke-linecap="round" stroke-linejoin="round" d="M15.348 11.0435c0 -0.1269 -0.0504 -0.2485 -0.14 -0.3383 -0.0898 -0.0896 -0.2114 -0.14 -0.3383 -0.14H13.435V9.13042c0 -0.12684 -0.0505 -0.24849 -0.1401 -0.33818 -0.0897 -0.08969 -0.2114 -0.14008 -0.3382 -0.14008h-1.9131c-0.1268 0 -0.2485 0.05039 -0.3382 0.14008 -0.0896 0.08969 -0.14 0.21134 -0.14 0.33818v1.43478H9.1306c-0.12684 0 -0.24849 0.0504 -0.33817 0.14 -0.0897 0.0898 -0.14009 0.2114 -0.14009 0.3383v1.913c0 0.1268 0.05039 0.2485 0.14009 0.3382 0.08968 0.0897 0.21133 0.1401 0.33817 0.1401h1.4348v1.4348c0 0.1268 0.0504 0.2485 0.14 0.3382 0.0897 0.0896 0.2114 0.14 0.3382 0.14h1.9131c0.1268 0 0.2485 -0.0504 0.3382 -0.14 0.0896 -0.0897 0.1401 -0.2114 0.1401 -0.3382v-1.4348h1.4347c0.1269 0 0.2485 -0.0504 0.3383 -0.1401 0.0896 -0.0897 0.14 -0.2114 0.14 -0.3382v-1.913Z" stroke-width="1"></path>
</svg>