<svg xmlns="http://www.w3.org/2000/svg" fill="none" viewBox="0 0 24 24" id="Medical-Specialty-Back--Streamline-Ultimate">
  <desc>
    Medical Specialty Back Streamline Icon: https://streamlinehq.com
  </desc>
  <path fill="#66e1ff" d="m17.321 10.747 -0.3634 -1.0903c-0.1903 -0.57147 -0.5557 -1.06847 -1.0442 -1.42073 -0.4885 -0.35225 -1.0756 -0.5418 -1.6779 -0.54189H9.76329c-0.60231 0.00009 -1.1893 0.18964 -1.67791 0.54189 -0.48851 0.35226 -0.85384 0.84926 -1.04417 1.42073l-0.36338 1.0903c-0.13079 0.3927 -0.1751 0.809 -0.12991 1.2204 0.04529 0.4114 0.17891 0.8082 0.39198 1.163l0.39784 0.6619c0.10912 0.1817 0.26323 0.332 0.44761 0.4367 0.18437 0.1045 0.39256 0.1597 0.60446 0.1601 0.08609 -0.0023 0.17178 -0.0137 0.25543 -0.0344v1.9473h6.69216v-1.9492c0.0883 0.0223 0.1788 0.0344 0.2696 0.0363 0.212 -0.0004 0.4202 -0.0555 0.6046 -0.16 0.1843 -0.1047 0.3384 -0.2551 0.4476 -0.4368l0.3969 -0.6619c0.2134 -0.3546 0.3476 -0.7512 0.3934 -1.1627 0.0457 -0.4113 0.0018 -0.8278 -0.1285 -1.2207Z" stroke-width="1"></path>
  <path fill="#ffdda1" stroke="#191919" stroke-linecap="round" stroke-linejoin="round" d="M20.6079 19.1722c1.3206 0 2.3911 -1.0705 2.3911 -2.3911 0 -1.3206 -1.0705 -2.391 -2.3911 -2.391 -1.3206 0 -2.3911 1.0705 -2.3911 2.391s1.0706 2.3911 2.3911 2.3911Z" stroke-width="1"></path>
  <path fill="#ffdda1" stroke="#191919" stroke-linecap="round" stroke-linejoin="round" d="M11.9995 5.78211c1.3206 0 2.3911 -1.07052 2.3911 -2.3911C14.3906 2.07052 13.3201 1 11.9995 1c-1.3206 0 -2.3911 1.07052 -2.3911 2.39101 0 1.32058 1.0705 2.3911 2.3911 2.3911Z" stroke-width="1"></path>
  <path stroke="#191919" stroke-linecap="round" stroke-linejoin="round" d="M9.13071 21.0852H1.00098" stroke-width="1"></path>
  <path stroke="#191919" stroke-linecap="round" stroke-linejoin="round" d="M22.9988 21.0852h-6.6951" stroke-width="1"></path>
  <path stroke="#191919" stroke-linecap="round" stroke-linejoin="round" d="M2.91357 14.3901v1.9129" stroke-width="1"></path>
  <path stroke="#191919" stroke-linecap="round" stroke-linejoin="round" d="M4.82666 14.3901v1.9129" stroke-width="1"></path>
  <path stroke="#191919" stroke-linecap="round" stroke-linejoin="round" d="M11.5215 14.3901v1.9129" stroke-width="1"></path>
  <path fill="#ffdda1" stroke="#191919" stroke-linecap="round" stroke-linejoin="round" d="M14.8176 16.3021H2.43566c-0.38056 0 -0.7454 0.1511 -1.0145 0.4202 -0.26899 0.269 -0.42018 0.6339 -0.42018 1.0145 0 0.3804 0.15119 0.7453 0.42018 1.0144 0.2691 0.269 0.63394 0.4201 1.0145 0.4201h9.84454l-1.0196 1.626c-0.1005 0.1598 -0.1684 0.3378 -0.2002 0.524 -0.0316 0.1861 -0.0263 0.3766 0.0157 0.5607 0.0847 0.3717 0.3137 0.6946 0.6364 0.8976 0.3228 0.2028 0.7129 0.2692 1.0847 0.1844 0.3718 -0.0847 0.6946 -0.3137 0.8976 -0.6363l2.3911 -3.8258c0.1378 -0.2213 0.213 -0.4759 0.2174 -0.7365 0.0044 -0.2607 -0.0619 -0.5177 -0.1922 -0.7436 -0.1301 -0.2259 -0.3193 -0.4121 -0.5471 -0.539 -0.2278 -0.1266 -0.4859 -0.1891 -0.7464 -0.1807Z" stroke-width="1"></path>
  <path stroke="#191919" stroke-linecap="round" stroke-linejoin="round" d="m8.65188 11.0416 0.79576 1.4834c0.16788 0.2798 0.21786 0.6148 0.1387 0.9314 -0.07906 0.3166 -0.28071 0.5888 -0.56044 0.7568 -0.27983 0.1679 -0.61491 0.2177 -0.93144 0.1386 -0.31663 -0.0791 -0.58875 -0.2807 -0.75672 -0.5605l-0.39784 -0.6618c-0.21307 -0.3548 -0.34669 -0.7517 -0.39198 -1.163 -0.04519 -0.4115 -0.00088 -0.8277 0.12991 -1.2204l0.36338 -1.09038c0.19053 -0.57127 0.55596 -1.06808 1.04447 -1.42014 0.4885 -0.35205 1.0754 -0.5415 1.67761 -0.5415h4.47221c0.6022 0 1.1891 0.18945 1.6776 0.5415 0.4885 0.35206 0.854 0.84887 1.0445 1.42014l0.3634 1.09038c0.1309 0.3926 0.1752 0.8089 0.1299 1.2204 -0.0452 0.4113 -0.1789 0.8082 -0.392 1.163l-0.3968 0.6618c-0.168 0.2798 -0.4402 0.4814 -0.7568 0.5605 -0.3165 0.0792 -0.6516 0.0293 -0.9314 -0.1386 -0.2797 -0.168 -0.4814 -0.4402 -0.5605 -0.7568 -0.079 -0.3165 -0.0292 -0.6516 0.1387 -0.9314l0.7948 -1.4834" stroke-width="1"></path>
</svg>