<svg xmlns="http://www.w3.org/2000/svg" fill="none" viewBox="0 0 14 14" id="Donut--Streamline-Core-Gradient">
  <desc>
    Donut Streamline Icon: https://streamlinehq.com
  </desc>
  <g id="Free Gradient/Food Drink/donut--dessert-donut">
    <path id="Subtract" fill="url(#paint0_linear_14402_10663)" fill-rule="evenodd" d="M14 7c0 3.866-3.134 7-7 7-3.86599 0-7-3.134-7-7 0-3.86599 3.13401-7 7-7 3.866 0 7 3.13401 7 7ZM9 7c0 1.10457-.89543 2-2 2s-2-.89543-2-2 .89543-2 2-2 2 .89543 2 2Zm3.059-.22049c.1544-.30874.0292-.68416-.2795-.83853-.3087-.15437-.6841-.02922-.8385.27951l-.5 1c-.1544.30874-.0292.68416.2795.83853.3087.15437.6841.02923.8385-.27951l.5-1ZM2.55806 8.55806c.24408-.24408.6398-.24408.88388 0l1 1c.24408.24408.24408.63984 0 .88384-.24408.2441-.6398.2441-.88388 0l-1-.99996c-.24408-.24408-.24408-.6398 0-.88388Zm5.88388-6.5c-.24408-.24408-.6398-.24408-.88388 0-.24408.24408-.24408.6398 0 .88388l1 1c.24408.24408.6398.24408.88388 0 .24408-.24408.24408-.6398 0-.88388l-1-1ZM3.5 5.5c.55228 0 1-.44772 1-1s-.44772-1-1-1-1 .44772-1 1 .44772 1 1 1Zm6 5.5c0 .5523-.44772 1-1 1s-1-.4477-1-1 .44772-1 1-1 1 .4477 1 1Z" clip-rule="evenodd"></path>
  </g>
  <defs>
    <linearGradient id="paint0_linear_14402_10663" x1="2.288" x2="13.596" y1="2.692" y2="8.957" gradientUnits="userSpaceOnUse">
      <stop stop-color="#ffd600"></stop>
      <stop offset="1" stop-color="#00d078"></stop>
    </linearGradient>
  </defs>
</svg>