<svg xmlns="http://www.w3.org/2000/svg" fill="none" viewBox="0 0 14 14" id="Fork-Spoon--Streamline-Core-Gradient">
  <desc>
    Fork Spoon Streamline Icon: https://streamlinehq.com
  </desc>
  <g id="Free Gradient/Food Drink/fork-spoon--fork-spoon-food-dine-cook-utensils-eat-restaurant-dining-kitchenware">
    <path id="Union" fill="url(#paint0_linear_14402_10600)" fill-rule="evenodd" d="M2 1.25C2 .835786 1.66421.5 1.25.5.835786.5.5.835786.5 1.25v2.5c0 1.30622.83481 2.41746 2 2.82929V12.5c0 .5523.44772 1 1 1s1-.4477 1-1V6.57929c1.16519-.41183 2-1.52307 2-2.82929v-2.5C6.5.835786 6.16421.5 5.75.5S5 .835786 5 1.25v2.5c0 .55521-.30165 1.03997-.75 1.29933V1.25C4.25.835786 3.91421.5 3.5.5s-.75.335786-.75.75v3.79933C2.30165 4.78997 2 4.30521 2 3.75v-2.5ZM10.5.5c-1.73834 0-3 1.65623-3 3.5 0 1.4667.79838 2.81472 2 3.30475V12.5c0 .5523.44772 1 1 1 .5523 0 1-.4477 1-1V7.30475c1.2016-.49003 2-1.83805 2-3.30475 0-1.84377-1.2617-3.5-3-3.5Z" clip-rule="evenodd"></path>
  </g>
  <defs>
    <linearGradient id="paint0_linear_14402_10600" x1="13.456" x2="-1.939" y1="13.503" y2="4.843" gradientUnits="userSpaceOnUse">
      <stop stop-color="#ff51e3"></stop>
      <stop offset="1" stop-color="#1b4dff"></stop>
    </linearGradient>
  </defs>
</svg>