<svg xmlns="http://www.w3.org/2000/svg" fill="none" viewBox="0 0 14 14" id="Pork-Meat--Streamline-Core-Gradient">
  <desc>
    Pork Meat Streamline Icon: https://streamlinehq.com
  </desc>
  <g id="Free Gradient/Food Drink/pork-meat">
    <path id="Subtract" fill="url(#paint0_linear_14402_10689)" fill-rule="evenodd" d="M1.75865.562108c.14402-.07938.31787-.082866.46496-.009321L4.81369 1.84783C5.49788 1.62239 6.23412 1.5 7 1.5c.76588 0 1.50212.12239 2.18632.34783L11.7764.552787c.1471-.073545.3209-.070059.465.009321.144.079381.2398.224506.2561.38814l.4029 4.028982c.3844.76579.5996 1.62016.5996 2.52077 0 3.3538-2.952 6-6.5 6-3.54801 0-6.5-2.6462-6.5-6 0-.90061.215191-1.75498.59958-2.52077l.4029-4.028982c.01636-.163634.11215-.308759.25617-.38814ZM5 5.125c0-.34518-.27982-.625-.625-.625s-.625.27982-.625.625.27982.625.625.625S5 5.47018 5 5.125Zm5.5 0c0-.34518-.2798-.625-.625-.625-.34518 0-.625.27982-.625.625s.27982.625.625.625c.3452 0 .625-.27982.625-.625ZM7 11.25c1.79493 0 3.25-1.2312 3.25-2.75 0-1.51878-1.45507-2.75-3.25-2.75S3.75 6.98122 3.75 8.5c0 1.5188 1.45507 2.75 3.25 2.75Zm-1-3.5c.27614 0 .5.22386.5.5v.5c0 .27614-.22386.5-.5.5s-.5-.22386-.5-.5v-.5c0-.27614.22386-.5.5-.5Zm2 0c.27614 0 .5.22386.5.5v.5c0 .27614-.22386.5-.5.5s-.5-.22386-.5-.5v-.5c0-.27614.22386-.5.5-.5Z" clip-rule="evenodd"></path>
  </g>
  <defs>
    <linearGradient id="paint0_linear_14402_10689" x1="1" x2="15.816" y1="1.551" y2="9.901" gradientUnits="userSpaceOnUse">
      <stop stop-color="#00d078"></stop>
      <stop offset="1" stop-color="#007df0"></stop>
    </linearGradient>
  </defs>
</svg>