<svg xmlns="http://www.w3.org/2000/svg" fill="none" viewBox="0 0 14 14"><g id="ambulance--car-emergency-health-medical-ambulance"><path id="Union" fill="#37d7ff" fill-rule="evenodd" d="M1.703 2.604a1.5 1.5 0 0 0-1.5 1.5v6.626a1.5 1.5 0 0 0 1.5 1.5h10.594a1.5 1.5 0 0 0 1.5-1.5V7.542a.501.501 0 0 0-.05-.219l-1.393-2.85a1.5 1.5 0 0 0-1.348-.843H9.583a1.5 1.5 0 0 0-1.424-1.026H1.703Z" clip-rule="evenodd"></path><path id="Intersect" fill="#3e3e3e" fill-rule="evenodd" d="M13.797 8.14h-3.623a.595.595 0 0 1-.595-.594V3.62l.004.01h1.423a1.5 1.5 0 0 1 1.348.842l1.392 2.851a.5.5 0 0 1 .051.22v.598Z" clip-rule="evenodd"></path><path id="Union_2" fill="#3e3e3e" fill-rule="evenodd" d="M3.899 10.208a1.896 1.896 0 1 0 0 3.792 1.896 1.896 0 0 0 0-3.792Z" clip-rule="evenodd"></path><path id="Union_3" fill="#3e3e3e" fill-rule="evenodd" d="M10.236 10.208a1.896 1.896 0 1 0 0 3.792 1.896 1.896 0 0 0 0-3.792Z" clip-rule="evenodd"></path><path id="Union_4" fill="#3e3e3e" fill-rule="evenodd" d="M5.567 5.188a.625.625 0 0 0-1.25 0v1h-1a.625.625 0 0 0 0 1.25h1v1a.625.625 0 1 0 1.25 0v-1h1a.625.625 0 1 0 0-1.25h-1v-1Z" clip-rule="evenodd"></path></g></svg>