<svg xmlns="http://www.w3.org/2000/svg" fill="none" viewBox="0 0 14 14"><g id="blood-bag-donation"><path id="vector 2625" fill="#37d7ff" d="M1.368 7.664V2.899A2.885 2.885 0 0 1 4.252.015h5.496a2.885 2.885 0 0 1 2.884 2.884v4.765A2.885 2.885 0 0 1 10.66 10.4l-1.1.367v.575c0 .53-.43.961-.961.961H5.4a.962.962 0 0 1-.961-.962v-.574l-1.1-.367a2.885 2.885 0 0 1-1.972-2.736Z"></path><path id="Union" fill="#3e3e3e" fill-rule="evenodd" d="m3.468 10.443.971.324v.512c0 .565.459 1.024 1.024 1.024h.814v.961a.721.721 0 0 0 1.443 0v-.961h.815c.566 0 1.024-.459 1.024-1.024v-.512l.972-.324a3.072 3.072 0 0 0 2.1-2.915v-.135c-.682.569-2.764 1.432-5.632.341-2.867-1.091-4.942-.455-5.625 0a3.072 3.072 0 0 0 2.094 2.709Z" clip-rule="evenodd"></path><path id="Union_2" fill="#3e3e3e" fill-rule="evenodd" d="M7 2.107a.5.5 0 0 0-.406.209l-.001.001-.002.003-.009.012-.03.042a10.887 10.887 0 0 0-.418.648 6.118 6.118 0 0 0-.328.618c-.085.19-.18.442-.18.68 0 .367.14.724.395.99.256.267.608.42.98.42.37 0 .722-.153.978-.42.256-.266.396-.623.396-.99 0-.238-.096-.49-.18-.68a6.118 6.118 0 0 0-.328-.618 11.155 11.155 0 0 0-.419-.648l-.03-.042-.008-.012-.002-.003-.001-.001A.5.5 0 0 0 7 2.107Z" clip-rule="evenodd"></path></g></svg>