<svg xmlns="http://www.w3.org/2000/svg" fill="none" viewBox="0 0 14 14" id="Eye-Optic--Streamline-Core">
  <desc>
    Eye Optic Streamline Icon: https://streamlinehq.com
  </desc>
  <g id="eye-optic--health-medical-eye-optic">
    <path id="Vector 2096 (Stroke)" fill="#2859c5" fill-rule="evenodd" d="M0.270756 3.79297c0.292894 -0.29289 0.767764 -0.29289 1.060664 0l1.51206 1.51206c0.29289 0.2929 0.29289 0.76777 0 1.06066 -0.2929 0.2929 -0.76777 0.2929 -1.06066 0L0.270756 4.85363c-0.2928929 -0.29289 -0.2928929 -0.76776 0 -1.06066Z" clip-rule="evenodd" stroke-width="1"></path>
    <path id="Vector 2097 (Stroke)" fill="#2859c5" fill-rule="evenodd" d="M4.35268 1.26781c0.39574 -0.12233 0.81572 0.09932 0.93804 0.49506l0.61635 1.99396c0.12232 0.39574 -0.09932 0.81572 -0.49506 0.93804 -0.39574 0.12233 -0.81572 -0.09932 -0.93804 -0.49506l-0.61635 -1.99396c-0.12232 -0.39574 0.09932 -0.81572 0.49506 -0.93804Z" clip-rule="evenodd" stroke-width="1"></path>
    <path id="Vector 2099 (Stroke)" fill="#2859c5" fill-rule="evenodd" d="M13.7292 3.79297c-0.2929 -0.29289 -0.7678 -0.29289 -1.0607 0l-1.512 1.51206c-0.2929 0.2929 -0.2929 0.76777 0 1.06066 0.2929 0.2929 0.7677 0.2929 1.0606 0l1.5121 -1.51206c0.2929 -0.29289 0.2929 -0.76776 0 -1.06066Z" clip-rule="evenodd" stroke-width="1"></path>
    <path id="Vector 2100 (Stroke)" fill="#2859c5" fill-rule="evenodd" d="M9.64732 1.26781c-0.39574 -0.12233 -0.81572 0.09932 -0.93804 0.49506l-0.61635 1.99396c-0.12232 0.39574 0.09932 0.81572 0.49506 0.93804 0.39574 0.12233 0.81572 -0.09932 0.93804 -0.49506l0.61637 -1.99396c0.1223 -0.39574 -0.0993 -0.81572 -0.49508 -0.93804Z" clip-rule="evenodd" stroke-width="1"></path>
    <path id="Union" fill="#8fbffa" fill-rule="evenodd" d="M7.00024 2.96313c-2.27898 0 -3.90036 1.03114 -4.93433 2.05251 -0.51515 0.50886 -0.88982 1.01955 -1.137376 1.41094 -0.123986 0.19603 -0.217995 0.36514 -0.283208 0.49318 -0.032341 0.0635 -0.059417 0.12047 -0.080236 0.16821 -0.010018 0.02297 -0.021404 0.05024 -0.031771 0.0785 -0.004911 0.01339 -0.012747 0.03551 -0.020413 0.06216 -0.003807 0.01324 -0.009688 0.03486 -0.01513 0.06162 -0.00391 0.01923 -0.015354 0.07711 -0.015354 0.15188 0 0.07476 0.011444 0.13265 0.015354 0.15188 0.005442 0.02676 0.011323 0.04838 0.01513 0.06161 0.007666 0.02665 0.015502 0.04878 0.020413 0.06217 0.010367 0.02826 0.021753 0.05552 0.031771 0.0785 0.020819 0.04774 0.047895 0.1047 0.080236 0.16821 0.065213 0.12804 0.159222 0.29715 0.283208 0.49317 0.247556 0.39139 0.622226 0.90208 1.137376 1.41095C3.09988 10.89 4.72126 11.9211 7.00024 11.9211c2.27897 0 3.90036 -1.0311 4.93436 -2.05248 0.5151 -0.50887 0.8898 -1.01956 1.1373 -1.41095 0.124 -0.19602 0.218 -0.36513 0.2832 -0.49317 0.0324 -0.06351 0.0595 -0.12047 0.0803 -0.16821 0.01 -0.02298 0.0214 -0.05024 0.0318 -0.0785 0.0049 -0.01339 0.0127 -0.03552 0.0204 -0.06217 0.0038 -0.01323 0.0097 -0.03485 0.0151 -0.06161 0.0039 -0.01923 0.0153 -0.07712 0.0153 -0.15188 0 -0.07477 -0.0114 -0.13265 -0.0153 -0.15188 -0.0054 -0.02676 -0.0113 -0.04838 -0.0151 -0.06162 -0.0077 -0.02665 -0.0155 -0.04877 -0.0204 -0.06216 -0.0104 -0.02826 -0.0218 -0.05553 -0.0318 -0.0785 -0.0208 -0.04774 -0.0479 -0.10471 -0.0803 -0.16821 -0.0652 -0.12804 -0.1592 -0.29715 -0.2832 -0.49318 -0.2475 -0.39139 -0.6222 -0.90208 -1.1373 -1.41094 -1.034 -1.02137 -2.65539 -2.05251 -4.93436 -2.05251Z" clip-rule="evenodd" stroke-width="1"></path>
    <path id="Ellipse 902" fill="#2859c5" d="M9.06331 7.9145C8.8023 9.05437 7.66666 9.76683 6.52679 9.50581 5.38692 9.2448 4.67446 8.10916 4.93548 6.96929 5.19649 5.82942 6.33213 5.11697 7.472 5.37798c1.13987 0.26101 1.85232 1.39665 1.59131 2.53652Z" stroke-width="1"></path>
  </g>
</svg>