<svg xmlns="http://www.w3.org/2000/svg" fill="none" viewBox="0 0 14 14"><g id="film-roll-1--photos-camera-shutter-picture-photography-pictures-photo-film-roll"><path id="Ellipse 94" stroke="#3e3e3e" stroke-linecap="round" stroke-linejoin="round" d="M.75 6a4.75 4.75 0 1 0 9.5 0 4.75 4.75 0 1 0-9.5 0"></path><path id="Vector 512" stroke="#3e3e3e" stroke-linecap="round" stroke-linejoin="round" d="M10.25 6.25v5a1.5 1.5 0 0 0 3 0"></path><g id="Group 623"><path id="Vector" stroke="#3e3e3e" stroke-linecap="round" stroke-linejoin="round" d="M5.5 3.945a.25.25 0 0 1 0-.5"></path><path id="Vector_2" stroke="#3e3e3e" stroke-linecap="round" stroke-linejoin="round" d="M5.5 3.945a.25.25 0 0 0 0-.5"></path></g><g id="Group 624"><path id="Vector_3" stroke="#3e3e3e" stroke-linecap="round" stroke-linejoin="round" d="M5.5 8.555a.25.25 0 0 1 0-.5"></path><path id="Vector_4" stroke="#3e3e3e" stroke-linecap="round" stroke-linejoin="round" d="M5.5 8.555a.25.25 0 0 0 0-.5"></path></g><g id="Group 625"><path id="Vector_5" stroke="#3e3e3e" stroke-linecap="round" stroke-linejoin="round" d="M3.195 6.25a.25.25 0 0 1 0-.5"></path><path id="Vector_6" stroke="#3e3e3e" stroke-linecap="round" stroke-linejoin="round" d="M3.195 6.25a.25.25 0 0 0 0-.5"></path></g><g id="Group 626"><path id="Vector_7" stroke="#3e3e3e" stroke-linecap="round" stroke-linejoin="round" d="M7.805 6.25a.25.25 0 1 1 0-.5"></path><path id="Vector_8" stroke="#3e3e3e" stroke-linecap="round" stroke-linejoin="round" d="M7.805 6.25a.25.25 0 0 0 0-.5"></path></g></g></svg>