<svg xmlns="http://www.w3.org/2000/svg" fill="none" viewBox="0 0 48 48" id="Cake-Slice--Streamline-Plump">
  <desc>
    Cake Slice Streamline Icon: https://streamlinehq.com
  </desc>
  <g id="cake-slice--cherry-cake-birthday-event-special-sweet-bake">
    <path id="Union" stroke="#000000" stroke-linecap="round" stroke-linejoin="round" d="M33.16 11.907a34.295 34.295 0 0 1 2.804 -0.606 3.72 3.72 0 0 1 3.249 1.031C41.307 14.401 45 19.16 45 27c0 7.423 -0.326 11.912 -0.606 14.397 -0.179 1.59 -1.417 2.757 -3.01 2.912 -3.01 0.294 -8.69 0.69 -17.396 0.69 -8.7 0 -14.368 -0.396 -17.374 -0.69 -1.591 -0.155 -2.829 -1.321 -3.008 -2.91 -0.263 -2.338 -0.568 -6.451 -0.603 -13.116 -0.004 -0.833 0.239 -1.654 0.807 -2.264 3.323 -3.559 10.927 -7.462 18.227 -10.38" stroke-width="1"></path>
    <path id="Ellipse 280" stroke="#000000" stroke-linecap="round" stroke-linejoin="round" d="M34 15a6 6 0 1 1 -12 0 6 6 0 0 1 12 0Z" stroke-width="1"></path>
    <path id="Ellipse 286 (Stroke)" stroke="#000000" stroke-linecap="round" stroke-linejoin="round" d="M28 9c0 -3.314 -2.45 -6 -6 -6" stroke-width="1"></path>
    <path id="Vector 1420" stroke="#000000" stroke-linecap="round" stroke-linejoin="round" d="M44 36 4 36" stroke-width="1"></path>
    <path id="Vector 1421" stroke="#000000" stroke-linecap="round" stroke-linejoin="round" d="M45 27 4 27" stroke-width="1"></path>
  </g>
</svg>