<svg xmlns="http://www.w3.org/2000/svg" fill="none" viewBox="0 0 48 48" id="Coffee-Mug--Streamline-Plump">
  <desc>
    Coffee Mug Streamline Icon: https://streamlinehq.com
  </desc>
  <g id="coffee-mug--coffee-cook-cup-drink-mug-cooking-nutrition-cafe-caffeine-food">
    <path id="Rectangle 56" stroke="#000000" stroke-linecap="round" stroke-linejoin="round" d="M5.078 36.31c0.15 4.652 3.207 8.132 7.849 8.465C14.81 44.91 17.14 45 20 45c2.86 0 5.19 -0.09 7.073 -0.225 4.642 -0.333 7.698 -3.813 7.849 -8.465 0.048 -1.478 0.078 -3.233 0.078 -5.31 0 -5.568 -0.217 -8.922 -0.411 -10.813 -0.137 -1.328 -1.072 -2.34 -2.392 -2.535C30.164 17.35 26.42 17 20 17c-6.42 0 -10.165 0.35 -12.197 0.652 -1.32 0.195 -2.255 1.207 -2.392 2.535C5.217 22.077 5 25.432 5 31c0 2.077 0.03 3.832 0.078 5.31Z" stroke-width="3"></path>
    <path id="Vector 1362" stroke="#000000" stroke-linecap="round" stroke-linejoin="round" d="M35 22h2.632c2.733 0 5.105 1.862 5.288 4.589a36.103 36.103 0 0 1 0 4.822C42.737 34.138 40.365 36 37.632 36H35" stroke-width="3"></path>
    <path id="Vector 1368" stroke="#000000" stroke-linecap="round" stroke-linejoin="round" d="M25 3v7" stroke-width="3"></path>
    <path id="Vector 1369" stroke="#000000" stroke-linecap="round" stroke-linejoin="round" d="M17 5v7" stroke-width="3"></path>
  </g>
</svg>