<svg xmlns="http://www.w3.org/2000/svg" fill="none" viewBox="0 0 48 48" id="Pork-Meat--Streamline-Plump">
  <desc>
    Pork Meat Streamline Icon: https://streamlinehq.com
  </desc>
  <g id="pork-meat">
    <path id="Union" stroke="#000000" stroke-linecap="round" stroke-linejoin="round" d="M5.88131 3.14171c-0.94152 0.13975 -1.79623 0.68276 -2.15878 1.54512 -1.53592 3.6533 -0.35544 10.01697 1.05552 15.62707C3.03955 23.4863 2 27.1131 2 31c0 2.7143 0 15 21.9999 15C45.9999 46 46 33.7143 46 31c0 -3.8869 -1.0396 -7.5137 -2.7781 -10.6861 1.411 -5.61 2.5915 -11.97376 1.0556 -15.62707 -0.3626 -0.86236 -1.2173 -1.40537 -2.1588 -1.54512 -5.3356 -0.79192 -10.1715 1.83523 -13.8661 5.38655C26.8365 8.18191 25.4088 8 23.9999 8c-1.4087 0 -2.8365 0.1819 -4.2526 0.52824 -3.6945 -3.55131 -8.5304 -6.17845 -13.86599 -5.38653Z" stroke-width="1"></path>
    <path id="Vector 1628" stroke="#000000" stroke-linecap="round" stroke-linejoin="round" d="M32 21v1" stroke-width="1"></path>
    <path id="Vector 1629" stroke="#000000" stroke-linecap="round" stroke-linejoin="round" d="M16 21v1" stroke-width="1"></path>
    <path id="Ellipse 21" stroke="#000000" stroke-linecap="round" stroke-linejoin="round" d="M24 40c-4.7812 0 -9 -1.625 -9 -6.1905C15 32.881 15 27 24 27s9 5.881 9 6.8095C33 38.375 28.7812 40 24 40Z" stroke-width="1"></path>
    <path id="Vector 1628_2" stroke="#000000" stroke-linecap="round" stroke-linejoin="round" d="M27 33v1" stroke-width="1"></path>
    <path id="Vector 1629_2" stroke="#000000" stroke-linecap="round" stroke-linejoin="round" d="M21 33v1" stroke-width="1"></path>
  </g>
</svg>