<svg xmlns="http://www.w3.org/2000/svg" fill="none" viewBox="0 0 14 14" id="Cat-2--Streamline-Flex-Gradient">
  <desc>
    Cat 2 Streamline Icon: https://streamlinehq.com
  </desc>
  <g id="cat-2--nature-head-cat-pet-animals-felyne">
    <path id="Subtract" fill="url(#paint0_linear_9380_3749)" fill-rule="evenodd" d="M8.06368 2.64876c.57127-.76071 1.21419-1.54899 2.32962-2.207826.8772-.5181371 1.8907.086304 2.0256 1.011356.195 1.33705.3257 3.07315.06 4.37691l.7949.72907c.3068.28128.4957.68926.476 1.12854-.0818 1.82999-.6616 3.36559-1.8183 4.44039-1.1547 1.0729-2.81565 1.6226-4.93147 1.6226-2.11617 0-3.77729-.5498-4.93207-1.6231C.911302 11.0516.331682 9.51553.25016 7.68501c-.019566-.43931.170338-.84624.47689-1.12738l.79415-.72831c-.26487-1.29942-.13592-3.02814.05792-4.36296C1.71527.52881 2.74945-.0698017 3.63015.454903 4.73127 1.11093 5.36908 1.89351 5.93633 2.64884c.24445-.04225.6021-.08324 1.0637-.08324.44992 0 .79908.03887 1.03946.07905l.02419.00411ZM9 5.70715c-.34518 0-.625.27983-.625.625v.5c0 .34518.27982.625.625.625.34517 0 .625-.27982.625-.625v-.5c0-.34517-.27983-.625-.625-.625Zm-4 0c-.34518 0-.625.27983-.625.625v.5c0 .34518.27982.625.625.625s.625-.27982.625-.625v-.5c0-.34517-.27982-.625-.625-.625Zm.82071 3.25473c.15432.35584.44577.64147.66221.80832-.04074.08371-.13529.18622-.28868.2402-.16477.0579-.37156.0468-.57506-.15668-.19527-.19526-.51185-.19526-.70711 0-.19526.19528-.19526.51188 0 .70708.49085.4909 1.1072.5712 1.61402.3929.16919-.0595.3316-.1505.47391-.2672.1423.1167.30471.2077.47391.2672.50682.1783 1.12317.098 1.61402-.3929.19526-.1952.19526-.5118 0-.70708-.19527-.19526-.51185-.19526-.70711 0-.2035.20348-.4103.21458-.57506.15668-.15343-.05399-.24798-.15653-.28871-.24025.21644-.16686.50784-.45247.66215-.80827.09098-.2098.06609-.44069-.04648-.6209-.10429-.16696-.258-.25512-.38664-.29493-.16465-.05095-.42922-.10574-.74613-.10574-.31691 0-.58148.05479-.74613.10574-.12864.03981-.28235.12797-.38663.29493-.11257.18021-.13747.4111-.04648.6209Z" clip-rule="evenodd"></path>
  </g>
  <defs>
    <linearGradient id="paint0_linear_9380_3749" x1="2.456" x2="13.36" y1="2.846" y2="8.889" gradientUnits="userSpaceOnUse">
      <stop stop-color="#ffd600"></stop>
      <stop offset="1" stop-color="#00d078"></stop>
    </linearGradient>
  </defs>
</svg>