<svg xmlns="http://www.w3.org/2000/svg" fill="none" viewBox="0 0 14 14" id="Dog-1--Streamline-Flex-Gradient">
  <desc>
    Dog 1 Streamline Icon: https://streamlinehq.com
  </desc>
  <g id="dog-1--nature-head-dog-pet-animals-canine">
    <path id="Subtract" fill="url(#paint0_linear_9371_12019)" fill-rule="evenodd" d="M7.00016.250244c-.73442 0-1.63838.116038-2.5094.357862-.86831.241069-1.72494.612944-2.34836 1.138044-.4019.33851-.82682.88274-1.188773 1.5066C.590409 3.87878.280643 4.6021.119496 5.30853-.0405201 6.01-.0607745 6.72531.193575 7.31267c.181912.42008.495558.75477.955375.96839.15717-1.43178.48783-2.97238.73011-3.87395.07166-.26669.34595-.42478.61263-.35311.26668.07166.42477.34595.35311.61263-.25867.96254-.62306 2.69216-.7449 4.16951-.00109.01322-.00269.02626-.00476.03913-.02651.32006-.04165.63751-.04165.94539 0 1.63884.54805 2.65184 1.48817 3.23444.91256.5655 2.1499.6944 3.4585.6944 1.3086 0 2.54594-.1289 3.45854-.6944.9401-.5826 1.4881-1.5956 1.4881-3.23444 0-.3078-.0151-.62518-.0416-.94516-.0021-.01294-.0037-.02607-.0048-.03936-.1218-1.47735-.4862-3.20697-.7449-4.16951-.0717-.26668.0864-.54097.3531-.61263.2667-.07167.541.08642.6126.35311.2423.90157.573 2.44218.7302 3.87396.4598-.21362.7734-.54831.9553-.9684.2544-.58736.2341-1.30267.0741-2.00414-.1611-.70643-.4709-1.42975-.8341-2.05578-.362-.62386-.7869-1.16809-1.1888-1.5066-.6234-.5251-1.48-.896975-2.34834-1.138044C8.63853.366282 7.73458.250244 7.00016.250244ZM9.375 5.92395c0-.34518-.27982-.625-.625-.625s-.625.27982-.625.625v.5c0 .34518.27982.625.625.625s.625-.27982.625-.625v-.5Zm-4.125-.625c.34518 0 .625.27982.625.625v.5c0 .34518-.27982.625-.625.625s-.625-.27982-.625-.625v-.5c0-.34518.27982-.625.625-.625Zm2.81457 4.09956c-.16998.39194-.52526.69919-.72999.83549-.20033.1335-.46882.1335-.66915 0-.20473-.1363-.56001-.44355-.72999-.83549-.07401-.17065-.0538-.35827.03782-.50494.08499-.13607.21079-.2087.31757-.24174.15391-.04763.40602-.10015.70918-.10015.30315 0 .55526.05252.70918.10015.10677.03304.23257.10567.31756.24174.09162.14667.11183.33429.03782.50494Z" clip-rule="evenodd"></path>
  </g>
  <defs>
    <linearGradient id="paint0_linear_9371_12019" x1=".538" x2="16.209" y1="1.341" y2="10.501" gradientUnits="userSpaceOnUse">
      <stop stop-color="#00d078"></stop>
      <stop offset="1" stop-color="#007df0"></stop>
    </linearGradient>
  </defs>
</svg>