<svg xmlns="http://www.w3.org/2000/svg" fill="none" viewBox="0 0 14 14" id="Recycle-1--Streamline-Flex-Gradient">
  <desc>
    Recycle 1 Streamline Icon: https://streamlinehq.com
  </desc>
  <g id="recycle-1--nature-sign-environment-protect-save-arrows">
    <path id="Union" fill="url(#paint0_linear_9371_12133)" fill-rule="evenodd" d="M9.68012.304293C9.26885-.0383634 8.75528-.0739286 8.3339.109328c-.41333.179753-.73589.566157-.82556 1.058062-.14434-.0152-.28712-.02081-.42637-.02109-1.37191-.00272-2.82483.8591-3.09267 2.343-.05554.30771-.08933.61445-.09096.89417-.00093.15981.07458.31043.20319.40529.1286.09487.2948.12254.44721.07447.79623-.25114 1.51849-.28812 2.03958-.24572-.12862.44638-.03539.90581.21879 1.24594.2752.36828.73912.59197 1.26644.49777.82648-.14763 1.64153-.45893 2.28475-.83946.322-.19045.6125-.40504.8425-.63546.2247-.22512.4218-.49561.5038-.80168.0823-.30699.0458-.64034-.0374-.94755-.0852-.31446-.2311-.64513-.4165-.97031-.3703-.64974-.9249-1.324472-1.57058-1.862467ZM3.25098 6.3844c-.31783 0-.63037.12153-.90558.28141-.28171.16365-.56334.39019-.82946.65339C.984187 7.8451.475989 8.55542.123449 9.31838c-.224537.48594-.12596849.99122.160106 1.35082.280606.3527.737325.5643 1.235675.5236.02268.1433.05421.2827.08998.4173.35245 1.3259 1.56095 2.5062 3.06361 2.3809.3116-.026.61663-.0728.88724-.1436.1546-.0405.28055-.1524.3389-.3012.05834-.1487.04206-.3164-.04382-.4512-.44867-.7041-.67131-1.3922-.76522-1.9065.46445.0087.88409-.2003 1.14685-.5338.2845-.3611.3805-.86717.15303-1.35215-.3565-.7601-.86815-1.46681-1.40221-1.98971-.26729-.2617-.54976-.48676-.83185-.64926-.2756-.15875-.5879-.27918-.90476-.27918Zm8.95832.2857c.1534-.04469.319-.01336.4454.08432.2214.17098.4448.38391.6557.61471 1.0173 1.11307.8211 2.79097-.0132 3.87997-.0847.1105-.176.2205-.2756.326.3367.3697.4484.8607.3405 1.2983-.1099.4462-.4497.8329-.9716.952-.8194.187-1.6922.2186-2.43336.119-.37095-.0499-.72236-.1345-1.02402-.2576-.29471-.1202-.58186-.2934-.77603-.545-.19357-.2508-.28902-.5716-.33171-.8868-.04369-.3226-.03807-.6837.00582-1.0552.0877-.7423.33461-1.57913.71858-2.32574.24499-.47636.70423-.70949 1.16395-.70489.42457.00425.84637.20882 1.12317.58184.3498-.38855.7586-.98519 1.0419-1.77054.0542-.15032.177-.26567.3305-.31037Z" clip-rule="evenodd"></path>
  </g>
  <defs>
    <linearGradient id="paint0_linear_9371_12133" x1="15.214" x2="-3.67" y1="16.965" y2="3.551" gradientUnits="userSpaceOnUse">
      <stop stop-color="#ffd600"></stop>
      <stop offset="1" stop-color="#ff007a"></stop>
    </linearGradient>
  </defs>
</svg>