<svg xmlns="http://www.w3.org/2000/svg" fill="none" viewBox="0 0 14 14"><g id="auto-flash"><path id="Union" fill="#37d7ff" fill-rule="evenodd" d="M6.615.59a.5.5 0 0 0-.912-.283L1.176 6.89a.5.5 0 0 0 .413.783h2.38v3.615a.5.5 0 0 0 .912.283l4.526-6.583a.5.5 0 0 0-.412-.783h-2.38V.59Z" clip-rule="evenodd"></path><path id="Union_2" fill="#3e3e3e" fill-rule="evenodd" d="M11.896 7.484a1.444 1.444 0 0 0-2.74 0L7.987 10.99a.77.77 0 0 0-.012.036l-.66 1.982a.75.75 0 1 0 1.423.474l.495-1.487h2.586l.495 1.487a.75.75 0 1 0 1.424-.474l-.662-1.985a.743.743 0 0 0-.01-.03l-1.17-3.51Zm-.577 3.012-.793-2.378-.793 2.378h1.586Z" clip-rule="evenodd"></path></g></svg>