<svg xmlns="http://www.w3.org/2000/svg" fill="none" viewBox="0 0 14 14"><g id="landscape-2--photos-photo-landscape-picture-photography-camera-pictures-image"><path id="Union" fill="#37d7ff" d="M12.5 14a1.5 1.5 0 0 0 1.5-1.5v-11A1.5 1.5 0 0 0 12.5 0h-11A1.5 1.5 0 0 0 0 1.5v11A1.5 1.5 0 0 0 1.5 14h11Z"></path><path id="Union_2" fill="#3e3e3e" fill-rule="evenodd" d="M2 3.75a1.75 1.75 0 1 1 3.5 0 1.75 1.75 0 0 1-3.5 0ZM12.5 14a1.5 1.5 0 0 0 1.5-1.5v-3L9.687 6.481a1 1 0 0 0-1.28.112l-7.343 7.343A1.5 1.5 0 0 0 1.5 14h11Z" clip-rule="evenodd"></path></g></svg>