<svg xmlns="http://www.w3.org/2000/svg" fill="none" viewBox="0 0 24 24" id="Iris-Scan--Streamline-Sharp">
  <desc>
    Iris Scan Streamline Icon: https://streamlinehq.com
  </desc>
  <g id="iris-scan--identification-retina-secure-security-iris-scan-eye-brackets">
    <path id="Union" fill="#8fbffa" fill-rule="evenodd" d="M12 6c-1.773 0 -3.092 0.77 -4.25 1.853 -0.575 0.537 -1.116 1.157 -1.657 1.803 -0.173 0.207 -0.346 0.417 -0.52 0.627 -0.374 0.454 -0.754 0.914 -1.16 1.378l-0.296 0.34 0.296 0.338c0.406 0.464 0.786 0.924 1.16 1.377l0.52 0.628c0.54 0.646 1.082 1.266 1.657 1.803C8.908 17.23 10.227 18 12 18c1.773 0 3.092 -0.77 4.25 -1.853 0.575 -0.537 1.117 -1.157 1.657 -1.803 0.174 -0.207 0.346 -0.417 0.52 -0.627 0.374 -0.454 0.754 -0.914 1.16 -1.378l0.297 -0.339 -0.297 -0.339a61.52 61.52 0 0 1 -1.16 -1.377c-0.174 -0.211 -0.346 -0.42 -0.52 -0.628 -0.54 -0.646 -1.082 -1.266 -1.656 -1.803C15.092 6.77 13.773 6 12 6Z" clip-rule="evenodd" stroke-width="1"></path>
    <path id="Ellipse 20" fill="#2859c5" d="M9.75 12a2.25 2.25 0 1 0 4.5 0 2.25 2.25 0 1 0 -4.5 0" stroke-width="1"></path>
    <path id="Union_2" fill="#8fbffa" fill-rule="evenodd" d="M2 1H1v7h2V3h5V1H2Zm14 2h5v5h2V1h-7v2Zm5 18v-5h2v7h-7v-2h5ZM3 16v5h5v2H1v-7h2Z" clip-rule="evenodd" stroke-width="1"></path>
  </g>
</svg>