<svg xmlns="http://www.w3.org/2000/svg" fill="none" viewBox="0 0 24 24" id="Link-Chain--Streamline-Sharp">
  <desc>
    Link Chain Streamline Icon: https://streamlinehq.com
  </desc>
  <g id="link-chain--create-hyperlink-link-make-unlink-connection-chain">
    <path id="Union" fill="#8fbffa" fill-rule="evenodd" d="m20.586 8 -4.793 4.793 1.414 1.414 5.5 -5.5 0.707 -0.707 -0.707 -0.707 -6 -6L16 0.586l-0.707 0.707 -5.5 5.5 1.414 1.414L16 3.414 20.586 8ZM7.293 15.293l8 -8 1.414 1.414 -8 8 -1.414 -1.414Zm0.914 -4.086L3.414 16 8 20.586l4.793 -4.793 1.414 1.414 -5.5 5.5 -0.707 0.707 -0.707 -0.707 -6 -6L0.586 16l0.707 -0.707 5.5 -5.5 1.414 1.414Z" clip-rule="evenodd" stroke-width="1"></path>
  </g>
</svg>