<svg xmlns="http://www.w3.org/2000/svg" fill="none" viewBox="0 0 24 24" id="User-Sticker-Square--Streamline-Sharp">
  <desc>
    User Sticker Square Streamline Icon: https://streamlinehq.com
  </desc>
  <g id="user-sticker-square">
    <path id="Vector 1298" fill="#8fbffa" d="M1 1h22v15l-7 7H1V1Z" stroke-width="1"></path>
    <path id="Union" fill="#2859c5" fill-rule="evenodd" d="m8.79285 6.70718 -2 -2 1.41421 -1.41421 2.00004 2 -1.41425 1.41421Zm-5.5 1.5 2 2.00002 1.41421 -1.41423 -2 -2 -1.41421 1.41421ZM23 16.0001v-0.5h-7.5v7.5h0.5l7 -7Zm-11.5253 -4.5252c-1.3669 1.3668 -3.58293 1.3668 -4.94977 0l-1.41421 1.4142c2.14788 2.1479 5.63028 2.1479 7.77818 0s2.1479 -5.63032 0 -7.77821l-1.4142 1.41422c1.3668 1.36683 1.3668 3.58289 0 4.94979Z" clip-rule="evenodd" stroke-width="1"></path>
  </g>
</svg>