<svg xmlns="http://www.w3.org/2000/svg" fill="none" viewBox="0 0 14 14" id="Align-Front-1--Streamline-Core">
  <desc>
    Align Front 1 Streamline Icon: https://streamlinehq.com
  </desc>
  <g id="align-front-1--design-front-layer-layers-pile-stack-arrange-square">
    <path id="Rectangle 461" fill="#8fbffa" d="M0 1.5C0 0.671573 0.671573 0 1.5 0h8c0.8284 0 1.5 0.671573 1.5 1.5v8c0 0.8284 -0.6716 1.5 -1.5 1.5h-8C0.671573 11 0 10.3284 0 9.5v-8Z" stroke-width="1"></path>
    <path id="Rectangle 460" fill="#2859c5" d="M3 4.5C3 3.67157 3.67157 3 4.5 3h8c0.8284 0 1.5 0.67157 1.5 1.5v8c0 0.8284 -0.6716 1.5 -1.5 1.5h-8c-0.82843 0 -1.5 -0.6716 -1.5 -1.5v-8Z" stroke-width="1"></path>
  </g>
</svg>