<svg xmlns="http://www.w3.org/2000/svg" fill="none" viewBox="0 0 14 14"><g id="arrow-transfer-diagonal-3--arrows-arrow-server-data-diagonal-internet-transfer-network"><path id="Union" fill="#37d7ff" fill-rule="evenodd" d="M6 0h3.5a.5.5 0 0 1 .5.5V4a.5.5 0 0 1-.854.354L8.104 3.31 2.207 9.207A1 1 0 0 1 .793 7.793l5.896-5.897L5.646.854A.5.5 0 0 1 6 0Zm7.207 6.207a1 1 0 0 0-1.414-1.414l-5.897 5.896-1.042-1.043A.5.5 0 0 0 4 10v3.5a.5.5 0 0 0 .5.5H8a.5.5 0 0 0 .354-.854L7.31 12.104l5.896-5.897Z" clip-rule="evenodd"></path></g></svg>