<svg xmlns="http://www.w3.org/2000/svg" fill="none" viewBox="0 0 14 14"><g id="arrow-transfer-diagonal-2--arrows-arrow-server-data-diagonal-internet-transfer-network"><path id="Union" fill="#37d7ff" fill-rule="evenodd" d="M8 0a1 1 0 0 1 .707 1.707L7.406 3.008l6.3 6.284a1 1 0 0 1-1.412 1.416L3.278 1.716a1 1 0 0 1 .28-1.613A.999.999 0 0 1 4 0h4ZM6.586 11 .293 4.707a1 1 0 0 1 1.414-1.414l7 7 2 2a.996.996 0 0 1 .05 1.36A.996.996 0 0 1 10 14H6a1 1 0 0 1-.707-1.708L6.586 11Z" clip-rule="evenodd"></path></g></svg>