<svg xmlns="http://www.w3.org/2000/svg" fill="none" viewBox="0 0 14 14" id="Arrow-Shrink-Diagonal-2--Streamline-Core">
  <desc>
    Arrow Shrink Diagonal 2 Streamline Icon: https://streamlinehq.com
  </desc>
  <g id="arrow-shrink-diagonal-2--expand-retract-shrink-bigger-big-small-smaller">
    <path id="Union" fill="#8fbffa" fill-rule="evenodd" d="M1.707 0.293A1 1 0 0 0 0.293 1.707l2.146 2.147 -1.293 1.292A0.5 0.5 0 0 0 1.5 6h4a0.5 0.5 0 0 0 0.5 -0.5v-4a0.5 0.5 0 0 0 -0.854 -0.354L3.854 2.44 1.707 0.293Zm11.147 8.56 -1.293 1.293 2.146 2.147a1 1 0 0 1 -1.414 1.414l-2.147 -2.146 -1.292 1.293A0.5 0.5 0 0 1 8 12.5v-4a0.5 0.5 0 0 1 0.5 -0.5h4a0.5 0.5 0 0 1 0.354 0.854Z" clip-rule="evenodd" stroke-width="1"></path>
  </g>
</svg>