<svg xmlns="http://www.w3.org/2000/svg" fill="none" viewBox="0 0 14 14" id="Arrow-Curvy-Up-Down-2--Streamline-Core">
  <desc>
    Arrow Curvy Up Down 2 Streamline Icon: https://streamlinehq.com
  </desc>
  <g id="arrow-curvy-up-down-2">
    <path id="Union" fill="#8fbffa" fill-rule="evenodd" d="M4.808 1.515c-0.797 0 -1.443 0.646 -1.443 1.443V8.57h1.25a0.5 0.5 0 0 1 0.354 0.854l-1.604 1.603v0.015H3.35l-0.381 0.382a0.5 0.5 0 0 1 -0.708 0l-0.38 -0.382h-0.016v-0.015L0.261 9.424a0.5 0.5 0 0 1 0.354 -0.854h1.25V2.958a2.942 2.942 0 0 1 5.885 0l0 8.084a1.442 1.442 0 0 0 2.885 0V5.368h-1.25a0.5 0.5 0 0 1 -0.354 -0.854l2 -2a0.5 0.5 0 0 1 0.707 0l2 2a0.5 0.5 0 0 1 -0.353 0.854h-1.25v5.674a2.942 2.942 0 1 1 -5.885 0l0 -8.084c0 -0.797 -0.646 -1.443 -1.442 -1.443Z" clip-rule="evenodd" stroke-width="1"></path>
  </g>
</svg>