<svg xmlns="http://www.w3.org/2000/svg" fill="none" viewBox="0 0 14 14" id="Arrow-Crossover-Up--Streamline-Core">
  <desc>
    Arrow Crossover Up Streamline Icon: https://streamlinehq.com
  </desc>
  <g id="arrow-crossover-up--cross-move-over-arrow-arrows-right">
    <path id="Union" fill="#2859c5" fill-rule="evenodd" d="M9.038 0.309A0.5 0.5 0 0 1 9.5 0h4a0.5 0.5 0 0 1 0.5 0.5v4a0.5 0.5 0 0 1 -0.854 0.354L11.853 3.56 1.707 13.707a1 1 0 1 1 -1.414 -1.414L10.439 2.146 9.146 0.854a0.5 0.5 0 0 1 -0.108 -0.545Z" clip-rule="evenodd" stroke-width="1"></path>
    <path id="Union_2" fill="#8fbffa" fill-rule="evenodd" d="M0 1V0.5A0.5 0.5 0 0 1 0.5 0h4a0.5 0.5 0 0 1 0.354 0.854L3.56 2.146l10.146 10.147a1 1 0 0 1 -1.414 1.414L2.146 3.561 0.854 4.854A0.5 0.5 0 0 1 0 4.5V1Z" clip-rule="evenodd" stroke-width="1"></path>
  </g>
</svg>