<svg xmlns="http://www.w3.org/2000/svg" fill="none" viewBox="0 0 14 14" id="Attribution--Streamline-Core">
  <desc>
    Attribution Streamline Icon: https://streamlinehq.com
  </desc>
  <g id="attribution">
    <path id="Ellipse 643" fill="#8fbffa" d="M0 7a7 7 0 1 0 14 0A7 7 0 1 0 0 7" stroke-width="1"></path>
    <path id="Union" fill="#2859c5" fill-rule="evenodd" d="M7 5a1.5 1.5 0 1 0 0 -3 1.5 1.5 0 0 0 0 3Zm1.138 6.66 0.307 -2.451h0.722c0.2 0 0.36 -0.162 0.36 -0.361v-0.723a2.528 2.528 0 0 0 -5.055 0v0.723c0 0.2 0.162 0.36 0.361 0.36h0.722l0.307 2.452a0.5 0.5 0 0 0 0.496 0.438h1.284a0.5 0.5 0 0 0 0.496 -0.438Z" clip-rule="evenodd" stroke-width="1"></path>
  </g>
</svg>