<svg xmlns="http://www.w3.org/2000/svg" fill="none" viewBox="0 0 14 14"><g id="bomb--delete-bomb-remove"><path id="Vector (Stroke)" fill="#3e3e3e" fill-rule="evenodd" d="M8.991 2.084A3.75 3.75 0 0 1 12.351 0h.899a.75.75 0 0 1 0 1.5h-.9a2.25 2.25 0 0 0-2.015 1.25l-.413.833a.75.75 0 1 1-1.344-.666l.413-.833Z" clip-rule="evenodd"></path><path id="Ellipse 415" fill="#37d7ff" d="M0 7.5a6.5 6.5 0 1 0 13 0 6.5 6.5 0 1 0-13 0"></path><path id="Vector (Stroke)_2" fill="#3e3e3e" fill-rule="evenodd" d="M6.5 5.125A2.375 2.375 0 0 0 4.125 7.5a.625.625 0 1 1-1.25 0A3.625 3.625 0 0 1 6.5 3.875a.625.625 0 1 1 0 1.25Z" clip-rule="evenodd"></path></g></svg>