<svg xmlns="http://www.w3.org/2000/svg" fill="none" viewBox="0 0 14 14"><g id="brightness-3--bright-adjust-brightness-adjustment-sun-raise-controls-dot-small"><path id="Ellipse 616" fill="#3e3e3e" d="M6 7a1 1 0 1 0 2 0 1 1 0 1 0-2 0"></path><path id="Union" fill="#37d7ff" fill-rule="evenodd" d="M7.75.75a.75.75 0 0 0-1.5 0v1a.75.75 0 0 0 1.5 0v-1Zm0 11.5a.75.75 0 0 0-1.5 0v1a.75.75 0 0 0 1.5 0v-1ZM11.5 7a.75.75 0 0 1 .75-.75h1a.75.75 0 0 1 0 1.5h-1A.75.75 0 0 1 11.5 7ZM.75 6.25a.75.75 0 0 0 0 1.5h1a.75.75 0 0 0 0-1.5h-1Zm1.3-4.2a.75.75 0 0 1 1.06 0l.862.86A.75.75 0 0 1 2.91 3.973l-.86-.861a.75.75 0 0 1 0-1.06Zm9.04 7.978a.75.75 0 1 0-1.062 1.06l.861.862a.75.75 0 0 0 1.06-1.061l-.86-.86Zm.86-7.978a.75.75 0 0 1 0 1.06l-.86.862a.75.75 0 0 1-1.062-1.061l.861-.86a.75.75 0 0 1 1.06 0Zm-7.978 9.04a.75.75 0 1 0-1.061-1.06l-.86.86a.75.75 0 0 0 1.06 1.06l.86-.86Z" clip-rule="evenodd"></path></g></svg>