<svg xmlns="http://www.w3.org/2000/svg" fill="none" viewBox="0 0 14 14"><g id="calendar-star--calendar-date-day-favorite-like-month-star"><path id="Subtract" fill="#3e3e3e" fill-rule="evenodd" d="M3.5 0a1 1 0 0 1 1 1v1h5V1a1 1 0 0 1 2 0v1h1A1.5 1.5 0 0 1 14 3.5v1H0v-1A1.5 1.5 0 0 1 1.5 2h1V1a1 1 0 0 1 1-1Z" clip-rule="evenodd"></path><path id="Rectangle 481" fill="#37d7ff" d="M0 4.5h14v8a1.5 1.5 0 0 1-1.5 1.5h-11A1.5 1.5 0 0 1 0 12.5v-8Z"></path><path id="Union" fill="#3e3e3e" d="M7.254 6.07a.5.5 0 0 0-.707.215l-.743 1.493-.001.002-1.653.243h-.003a.5.5 0 0 0-.277.846l.005.005 1.195 1.144a.253.253 0 0 0-.006.026l-.276 1.638a.5.5 0 0 0 .738.533l1.456-.77a.044.044 0 0 1 .028 0l1.456.77a.5.5 0 0 0 .74-.529l-.233-1.636a.25.25 0 0 0-.018-.063l1.16-1.103a.501.501 0 0 0-.274-.861l-1.649-.25-.003-.001-.744-1.498-.002-.003a.5.5 0 0 0-.189-.2Z"></path></g></svg>