<svg xmlns="http://www.w3.org/2000/svg" fill="none" viewBox="0 0 14 14"><g id="color-palette--color-palette-company-office-supplies-work"><path id="Union" fill="#37d7ff" fill-rule="evenodd" d="M3.974 4.063a3.251 3.251 0 0 1 6.053 0A4.784 4.784 0 0 0 7 4.566a4.729 4.729 0 0 0-3.026-.503Zm-1.691.627a4.75 4.75 0 0 1 9.434 0A4.75 4.75 0 0 1 7 12.934 4.75 4.75 0 0 1 2.283 4.69Zm7.943.959a3.248 3.248 0 0 0-1.893-.018A4.739 4.739 0 0 1 9.336 7.51a3.24 3.24 0 0 0 .89-1.86Zm-.759 3.66a4.76 4.76 0 0 0 2.12-2.818 3.25 3.25 0 0 1-3.253 5.378 4.731 4.731 0 0 0 1.133-2.56Zm-1.491-.958A3.242 3.242 0 0 0 7 6.405a3.242 3.242 0 0 0-.976 1.946 3.249 3.249 0 0 0 1.952 0ZM6.224 9.937a4.784 4.784 0 0 0 1.552 0A3.25 3.25 0 0 1 7 11.095a3.255 3.255 0 0 1-.776-1.158ZM4.533 9.31a4.73 4.73 0 0 0 1.134 2.559A3.25 3.25 0 0 1 2.413 6.49a4.76 4.76 0 0 0 2.12 2.819Zm.13-1.8a3.24 3.24 0 0 1-.889-1.861 3.249 3.249 0 0 1 1.893-.018A4.739 4.739 0 0 0 4.664 7.51Z" clip-rule="evenodd"></path></g></svg>