<svg xmlns="http://www.w3.org/2000/svg" fill="none" viewBox="0 0 14 14" id="Copy-Paste--Streamline-Core">
  <desc>
    Copy Paste Streamline Icon: https://streamlinehq.com
  </desc>
  <g id="copy-paste--clipboard-copy-cut-paste">
    <g id="Vector">
      <path fill="#2859c5" fill-rule="evenodd" d="M1.42417 0.269439C1.56667 0.0986972 1.77759 0 1.99998 0h5.00001c0.22239 0 0.43331 0.0986972 0.57581 0.269439 0.1425 0.170743 0.20187 0.39592 0.16209 0.614725l-0.02382 0.130996C8.4411 1.11905 9 1.74425 9 2.5v0.75H7.25c-1.65685 0 -3 1.34315 -3 3V11H1.5C0.671573 11 0 10.3284 0 9.5v-7c0 -0.75574 0.55889 -1.38094 1.2859 -1.48484L1.26208 0.884164c-0.03978 -0.218805 0.01959 -0.443982 0.16209 -0.614725ZM2.89864 1.5l0.11531 0.63416c0.06484 0.35662 0.37543 0.61584 0.7379 0.61584h1.49627c0.36247 0 0.67306 -0.25922 0.7379 -0.61584L6.10133 1.5H2.89864Z" clip-rule="evenodd" stroke-width="1"></path>
    </g>
    <path id="Vector_2" fill="#8fbffa" fill-rule="evenodd" d="M7.25 4.5c-0.9665 0 -1.75 0.7835 -1.75 1.75v6c0 0.9665 0.7835 1.75 1.75 1.75h5c0.9665 0 1.75 -0.7835 1.75 -1.75v-6c0 -0.9665 -0.7835 -1.75 -1.75 -1.75h-5Z" clip-rule="evenodd" stroke-width="1"></path>
    <path id="Vector_3" fill="#2859c5" d="M8.5 9.875c-0.34518 0 -0.625 0.2798 -0.625 0.625s0.27982 0.625 0.625 0.625H11c0.3452 0 0.625 -0.2798 0.625 -0.625s-0.2798 -0.625 -0.625 -0.625H8.5Z" stroke-width="1"></path>
    <path id="Vector_4" fill="#2859c5" d="M7.875 8c0 -0.34518 0.27982 -0.625 0.625 -0.625H11c0.3452 0 0.625 0.27982 0.625 0.625s-0.2798 0.625 -0.625 0.625H8.5c-0.34518 0 -0.625 -0.27982 -0.625 -0.625Z" stroke-width="1"></path>
  </g>
</svg>