<svg xmlns="http://www.w3.org/2000/svg" fill="none" viewBox="0 0 14 14"><g id="descending-number-order"><path id="Union" fill="#37d7ff" fill-rule="evenodd" d="M10.422 2.844h.656c.37 0 .67-.298.672-.667v-.01a.672.672 0 0 0-.672-.667h-.656a.672.672 0 1 0 0 1.344Zm2.813-.935A2.172 2.172 0 0 0 11.078 0h-.656a2.172 2.172 0 0 0 0 4.344h.656c.235 0 .46-.037.672-.106v.45c0 .31-.252.562-.562.562h-.875a.563.563 0 0 1-.531-.375.75.75 0 1 0-1.414.5 2.063 2.063 0 0 0 1.945 1.375h.875a2.062 2.062 0 0 0 2.062-2.063V2.064a.754.754 0 0 0-.015-.154ZM11.167 7.5a.75.75 0 0 1 .75.75v4.25h.917a.75.75 0 0 1 0 1.5H9.5a.75.75 0 0 1 0-1.5h.917v-2.313c-.16.041-.328.063-.5.063H9.5a.75.75 0 0 1 0-1.5h.417a.5.5 0 0 0 .5-.5.75.75 0 0 1 .75-.75Z" clip-rule="evenodd"></path><path id="Union_2" fill="#3e3e3e" fill-rule="evenodd" d="M4.75 1a1 1 0 0 0-2 0v9h-1.5a.75.75 0 0 0-.53 1.28l2.5 2.5a.75.75 0 0 0 1.06 0l2.5-2.5A.75.75 0 0 0 6.25 10h-1.5V1Z" clip-rule="evenodd"></path></g></svg>