<svg xmlns="http://www.w3.org/2000/svg" fill="none" viewBox="0 0 14 14" id="Disable-Heart--Streamline-Core">
  <desc>
    Disable Heart Streamline Icon: https://streamlinehq.com
  </desc>
  <g id="disable-heart">
    <path id="Union" fill="#8fbffa" d="M4.35654 1.88038c0.87336 0.06106 1.77873 0.47993 2.64344 1.32023 0.86472 -0.8403 1.77008 -1.25917 2.64345 -1.32023 1.00047 -0.06996 1.88377 0.33562 2.51927 0.97355 1.2492 1.25378 1.6265 3.52212 0.0314 5.07917l-0.0095 0.00903 -4.16454 3.85747c-0.28735 0.267 -0.65497 0.4008 -1.02053 0.4011 -0.36555 -0.0003 -0.73228 -0.1341 -1.01963 -0.4011L1.80581 7.9331C0.210782 6.37605 0.588038 4.10771 1.83721 2.85393c0.63559 -0.63793 1.51883 -1.04351 2.51933 -0.97355Z" stroke-width="1"></path>
    <path id="Vector 2130 (Stroke)" fill="#2859c5" fill-rule="evenodd" d="M0.21967 0.21967c0.292893 -0.2928933 0.767767 -0.2928933 1.06066 0L13.7803 12.7197c0.2929 0.2929 0.2929 0.7677 0 1.0606 -0.2929 0.2929 -0.7677 0.2929 -1.0606 0L0.21967 1.28033c-0.2928933 -0.292893 -0.2928933 -0.767767 0 -1.06066Z" clip-rule="evenodd" stroke-width="1"></path>
  </g>
</svg>