<svg xmlns="http://www.w3.org/2000/svg" fill="none" viewBox="0 0 14 14" id="Face-Scan-1--Streamline-Core">
  <desc>
    Face Scan 1 Streamline Icon: https://streamlinehq.com
  </desc>
  <g id="face-scan-1--identification-angle-secure-human-id-person-face-security-brackets">
    <path id="Union" fill="#8fbffa" fill-rule="evenodd" d="M1.573 1.573A0.25 0.25 0 0 1 1.75 1.5h1.5a0.75 0.75 0 0 0 0 -1.5h-1.5A1.75 1.75 0 0 0 0 1.75v1.5a0.75 0.75 0 0 0 1.5 0v-1.5a0.25 0.25 0 0 1 0.073 -0.177ZM14 10.75a0.75 0.75 0 0 0 -1.5 0v1.5a0.25 0.25 0 0 1 -0.25 0.25h-1.5a0.75 0.75 0 0 0 0 1.5h1.5A1.75 1.75 0 0 0 14 12.25v-1.5ZM0.75 10a0.75 0.75 0 0 1 0.75 0.75v1.5a0.25 0.25 0 0 0 0.25 0.25h1.5a0.75 0.75 0 0 1 0 1.5h-1.5A1.75 1.75 0 0 1 0 12.25v-1.5A0.75 0.75 0 0 1 0.75 10Zm10 -10a0.75 0.75 0 0 0 0 1.5h1.5a0.25 0.25 0 0 1 0.25 0.25v1.5a0.75 0.75 0 0 0 1.5 0v-1.5A1.75 1.75 0 0 0 12.25 0h-1.5Z" clip-rule="evenodd" stroke-width="1"></path>
    <path id="Union_2" fill="#2859c5" fill-rule="evenodd" d="M5 4.5a1 1 0 1 1 -2 0 1 1 0 0 1 2 0Zm2.75 0a0.75 0.75 0 0 0 -1.5 0v2.75H5.5a0.75 0.75 0 0 0 0 1.5H7A0.75 0.75 0 0 0 7.75 8V4.5ZM5.017 9.456a0.75 0.75 0 1 0 -1.034 1.088 4.38 4.38 0 0 0 6.034 0 0.75 0.75 0 1 0 -1.034 -1.088 2.88 2.88 0 0 1 -3.966 0ZM10 5.5a1 1 0 1 0 0 -2 1 1 0 0 0 0 2Z" clip-rule="evenodd" stroke-width="1"></path>
  </g>
</svg>