<svg xmlns="http://www.w3.org/2000/svg" fill="none" viewBox="0 0 14 14"><g id="file-remove-alternate--file-common-remove-minus-subtract"><path id="Subtract" fill="#37d7ff" fill-rule="evenodd" d="M2.44.44A1.5 1.5 0 0 1 3.5 0h6a.5.5 0 0 1 .354.146l4 4A.5.5 0 0 1 14 4.5v8a1.5 1.5 0 0 1-1.5 1.5h-9A1.5 1.5 0 0 1 2 12.5v-.25h3.75a2 2 0 1 0 0-4H2V1.5c0-.398.158-.78.44-1.06Z" clip-rule="evenodd"></path><path id="Vector (Stroke)" fill="#3e3e3e" d="M5.75 9.5a.75.75 0 0 1 0 1.5h-5a.75.75 0 0 1 0-1.5h5Z"></path></g></svg>