<svg xmlns="http://www.w3.org/2000/svg" fill="none" viewBox="0 0 14 14"><g id="flip-vertical-circle-1--flip-bottom-object-work"><path id="Union" fill="#37d7ff" fill-rule="evenodd" d="M.75 6.25A.75.75 0 0 0 0 7a7 7 0 1 0 14 0 .75.75 0 0 0-.75-.75H.75Z" clip-rule="evenodd"></path><path id="Union_2" fill="#3e3e3e" fill-rule="evenodd" d="M8.61.183a7.192 7.192 0 0 0-3.22 0 .75.75 0 0 0 .336 1.461 5.692 5.692 0 0 1 2.548 0A.75.75 0 1 0 8.61.183ZM3.588 1.715a.75.75 0 0 1-.101 1.056c-.328.27-.622.579-.877.919l-.004.005a5.142 5.142 0 0 0-.638 1.091.75.75 0 0 1-1.378-.592c.215-.5.49-.973.821-1.406a6.846 6.846 0 0 1 1.121-1.174.75.75 0 0 1 1.056.1Zm6.92-.013a.75.75 0 0 1 1.059-.078c.402.347.762.74 1.074 1.169.328.432.603.902.817 1.401a.75.75 0 0 1-1.378.592 5.143 5.143 0 0 0-.638-1.09l-.012-.017a5.347 5.347 0 0 0-.843-.919.75.75 0 0 1-.078-1.058Z" clip-rule="evenodd"></path></g></svg>