<svg xmlns="http://www.w3.org/2000/svg" fill="none" viewBox="0 0 14 14" id="Heading-3-Paragraph-Styles-Heading--Streamline-Core">
  <desc>
    Heading 3 Paragraph Styles Heading Streamline Icon: https://streamlinehq.com
  </desc>
  <g id="heading-3-paragraph-styles-heading">
    <path id="union" fill="#8fbffa" d="M1.75 1.25a0.75 0.75 0 0 0 -1.5 0v11.5a0.75 0.75 0 0 0 1.5 0V7.27H6v5.48a0.75 0.75 0 0 0 1.5 0V1.25a0.75 0.75 0 0 0 -1.5 0v4.52H1.75V1.25Z" stroke-width="1"></path>
    <path id="union_2" fill="#2859c5" d="m11.562 6.695 -0.663 0c-0.901 0 -1.659 0.605 -1.892 1.43a0.75 0.75 0 1 0 1.444 0.408 0.466 0.466 0 0 1 0.448 -0.338l0.663 0a0.466 0.466 0 0 1 0 0.931h-0.332a0.75 0.75 0 0 0 0 1.5l0.442 0c0.319 0 0.577 0.258 0.577 0.577l0 0.22a0.576 0.576 0 0 1 -0.577 0.577l-0.884 0a0.577 0.577 0 0 1 -0.543 -0.384 0.75 0.75 0 0 0 -1.415 0.5 2.077 2.077 0 0 0 1.958 1.384l0.884 0c1.147 0 2.077 -0.93 2.077 -2.076v-0.221a2.07 2.07 0 0 0 -0.568 -1.427 1.966 1.966 0 0 0 -1.619 -3.081Z" stroke-width="1"></path>
  </g>
</svg>