<svg xmlns="http://www.w3.org/2000/svg" fill="none" viewBox="0 0 14 14" id="Heading-2-Paragraph-Styles-Heading--Streamline-Core">
  <desc>
    Heading 2 Paragraph Styles Heading Streamline Icon: https://streamlinehq.com
  </desc>
  <g id="heading-2-paragraph-styles-heading">
    <path id="union" fill="#8fbffa" d="M1.75 1.25a0.75 0.75 0 0 0 -1.5 0v11.5a0.75 0.75 0 0 0 1.5 0V7.27H6v5.48a0.75 0.75 0 0 0 1.5 0V1.25a0.75 0.75 0 0 0 -1.5 0v4.52H1.75V1.25Z" stroke-width="1"></path>
    <path id="union_2" fill="#2859c5" d="M10.854 6.695c-0.9 0 -1.624 0.611 -1.885 1.398a0.75 0.75 0 0 0 1.424 0.472c0.08 -0.243 0.278 -0.37 0.46 -0.37h0.862c0.21 0 0.461 0.196 0.461 0.542a0.55 0.55 0 0 1 -0.293 0.504l-1.845 0.86c-0.735 0.344 -1.178 1.098 -1.178 1.895v0.754c0 0.414 0.336 0.75 0.75 0.75h3.316a0.75 0.75 0 0 0 0 -1.5H10.36v-0.004c0 -0.256 0.142 -0.456 0.313 -0.535l1.845 -0.861c0.722 -0.337 1.158 -1.079 1.158 -1.863 0 -1.081 -0.833 -2.042 -1.961 -2.042h-0.861Z" stroke-width="1"></path>
  </g>
</svg>