<svg xmlns="http://www.w3.org/2000/svg" fill="none" viewBox="0 0 14 14" id="Hierarchy-7--Streamline-Core">
  <desc>
    Hierarchy 7 Streamline Icon: https://streamlinehq.com
  </desc>
  <g id="hierarchy-7--node-organization-links-structure-link-nodes-network-hierarchy">
    <path id="Union" fill="#2859c5" fill-rule="evenodd" d="M9 0.5a0.5 0.5 0 0 0 -0.854 -0.354l-2 2a0.5 0.5 0 0 0 0 0.708l2 2A0.5 0.5 0 0 0 9 4.5V3.25h0.75c0.69 0 1.25 0.56 1.25 1.25v6a0.75 0.75 0 0 0 1.5 0v-6a2.75 2.75 0 0 0 -2.75 -2.75H9V0.5ZM2.25 2.75A0.75 0.75 0 0 1 3 3.5v7a0.75 0.75 0 0 1 -1.5 0v-7a0.75 0.75 0 0 1 0.75 -0.75Z" clip-rule="evenodd" stroke-width="1"></path>
    <path id="Union_2" fill="#8fbffa" fill-rule="evenodd" d="M1.5 0A1.5 1.5 0 0 0 0 1.5V3a1.5 1.5 0 0 0 1.5 1.5H3A1.5 1.5 0 0 0 4.5 3V1.5A1.5 1.5 0 0 0 3 0H1.5Zm0 9.5A1.5 1.5 0 0 0 0 11v1.5A1.5 1.5 0 0 0 1.5 14H3a1.5 1.5 0 0 0 1.5 -1.5V11A1.5 1.5 0 0 0 3 9.5H1.5Zm8 1.5A1.5 1.5 0 0 1 11 9.5h1.5A1.5 1.5 0 0 1 14 11v1.5a1.5 1.5 0 0 1 -1.5 1.5H11a1.5 1.5 0 0 1 -1.5 -1.5V11Z" clip-rule="evenodd" stroke-width="1"></path>
  </g>
</svg>