<svg xmlns="http://www.w3.org/2000/svg" fill="none" viewBox="0 0 14 14" id="Image-Blur--Streamline-Core">
  <desc>
    Image Blur Streamline Icon: https://streamlinehq.com
  </desc>
  <g id="image-blur">
    <path id="Union" fill="#8fbffa" fill-rule="evenodd" d="M7 0C3.13401 0 0 3.13401 0 7c0 3.866 3.13401 7 7 7 3.866 0 7 -3.134 7 -7 0 -3.86599 -3.134 -7 -7 -7Z" clip-rule="evenodd" stroke-width="1"></path>
    <path id="Union_2" fill="#2859c5" fill-rule="evenodd" d="M5.54168 3.41297c-0.35469 0 -0.64222 -0.28753 -0.64222 -0.64222s0.28753 -0.64213 0.64222 -0.64213 0.64222 0.28744 0.64222 0.64213 -0.28753 0.64222 -0.64222 0.64222Zm3.06249 0.96206c-0.56379 0 -1.02084 0.45704 -1.02084 1.02083 0 0.56379 0.45705 1.02083 1.02084 1.02083S9.625 5.95965 9.625 5.39586c0 -0.56379 -0.45704 -1.02083 -1.02083 -1.02083Zm-2.1875 4.22912c0 0.56379 -0.45705 1.02084 -1.02084 1.02084S4.375 9.16794 4.375 8.60415s0.45704 -1.02083 1.02083 -1.02083c0.56379 0 1.02084 0.45704 1.02084 1.02083Zm1.16666 0c0 0.56379 0.45705 1.02084 1.02084 1.02084S9.625 9.16794 9.625 8.60415s-0.45704 -1.02083 -1.02083 -1.02083c-0.56379 0 -1.02084 0.45704 -1.02084 1.02083ZM6.41667 5.39586c0 -0.56379 -0.45705 -1.02083 -1.02084 -1.02083S4.375 4.83207 4.375 5.39586c0 0.56379 0.45704 1.02083 1.02083 1.02083 0.56379 0 1.02084 -0.45704 1.02084 -1.02083ZM4.89946 11.2291c0 0.3547 0.28753 0.6422 0.64222 0.6422s0.64222 -0.2875 0.64222 -0.6422 -0.28753 -0.6421 -0.64222 -0.6421 -0.64222 0.2874 -0.64222 0.6421Zm-2.1286 -5.04526c-0.35468 0 -0.64222 -0.28753 -0.64222 -0.64222s0.28754 -0.64213 0.64222 -0.64213c0.35469 0 0.64223 0.28744 0.64223 0.64213s-0.28754 0.64222 -0.64223 0.64222Zm7.81614 -0.64222c0 0.35469 0.2875 0.64222 0.6422 0.64222s0.6423 -0.28753 0.6423 -0.64222 -0.2876 -0.64213 -0.6423 -0.64213c-0.3547 0 -0.6422 0.28744 -0.6422 0.64213ZM2.77086 9.10053c-0.35468 0 -0.64222 -0.28753 -0.64222 -0.64222s0.28754 -0.64213 0.64222 -0.64213c0.35469 0 0.64223 0.28744 0.64223 0.64213s-0.28754 0.64222 -0.64223 0.64222Zm5.04525 -6.32978c0 0.35469 0.28753 0.64222 0.64222 0.64222s0.64223 -0.28753 0.64223 -0.64222 -0.28754 -0.64213 -0.64223 -0.64213c-0.35469 0 -0.64222 0.28744 -0.64222 0.64213Zm3.41309 6.32978c-0.3547 0 -0.6422 -0.28753 -0.6422 -0.64222s0.2875 -0.64213 0.6422 -0.64213 0.6423 0.28744 0.6423 0.64213 -0.2876 0.64222 -0.6423 0.64222ZM7.81611 11.2291c0 0.3547 0.28753 0.6422 0.64222 0.6422s0.64223 -0.2875 0.64223 -0.6422 -0.28754 -0.6421 -0.64223 -0.6421c-0.35469 0 -0.64222 0.2874 -0.64222 0.6421Z" clip-rule="evenodd" stroke-width="1"></path>
  </g>
</svg>