<svg xmlns="http://www.w3.org/2000/svg" fill="none" viewBox="0 0 14 14" id="Insert-Side--Streamline-Core">
  <desc>
    Insert Side Streamline Icon: https://streamlinehq.com
  </desc>
  <g id="insert-side--points-bullet-align-paragraph-formatting-bullets-text">
    <path id="Union" fill="#2859c5" fill-rule="evenodd" d="M1 0.5a1 1 0 0 0 -1 1v4a1 1 0 0 0 1 1h4a1 1 0 0 0 1 -1v-4a1 1 0 0 0 -1 -1H1Zm0 7a1 1 0 0 0 -1 1v4a1 1 0 0 0 1 1h4a1 1 0 0 0 1 -1v-4a1 1 0 0 0 -1 -1H1Z" clip-rule="evenodd" stroke-width="1"></path>
    <path id="Union_2" fill="#8fbffa" fill-rule="evenodd" d="M7.5 1a0.75 0.75 0 0 1 0.75 -0.75h5a0.75 0.75 0 0 1 0 1.5h-5A0.75 0.75 0 0 1 7.5 1Zm0 3a0.75 0.75 0 0 1 0.75 -0.75h5a0.75 0.75 0 0 1 0 1.5h-5A0.75 0.75 0 0 1 7.5 4Zm0.75 2.25a0.75 0.75 0 0 0 0 1.5h5a0.75 0.75 0 0 0 0 -1.5h-5ZM7.5 10a0.75 0.75 0 0 1 0.75 -0.75h5a0.75 0.75 0 0 1 0 1.5h-5A0.75 0.75 0 0 1 7.5 10Zm0.75 2.25a0.75 0.75 0 0 0 0 1.5h5a0.75 0.75 0 0 0 0 -1.5h-5Z" clip-rule="evenodd" stroke-width="1"></path>
  </g>
</svg>