<svg xmlns="http://www.w3.org/2000/svg" fill="none" viewBox="0 0 14 14" id="Lasso-Tool--Streamline-Core">
  <desc>
    Lasso Tool Streamline Icon: https://streamlinehq.com
  </desc>
  <g id="lasso-tool">
    <path id="Union" fill="#8fbffa" fill-rule="evenodd" d="M1.475 1.87C2.58 0.786 4.347 0 7 0c2.653 0 4.42 0.785 5.525 1.87C13.616 2.943 14 4.244 14 5.167s-0.383 2.224 -1.475 3.295c-1.106 1.085 -2.872 1.87 -5.525 1.87l-0.063 0c0.626 0.801 1.081 1.654 1.078 2.916a0.75 0.75 0 1 1 -1.5 -0.004c0.001 -0.564 -0.118 -0.988 -0.369 -1.42a2.354 2.354 0 0 1 -0.433 0.768c-0.442 0.52 -1.135 0.868 -2.09 0.868 -0.955 0 -1.648 -0.348 -2.09 -0.868A2.362 2.362 0 0 1 0.976 11.1c0 -0.416 0.14 -1 0.557 -1.491 0.183 -0.215 0.408 -0.4 0.676 -0.543a5.51 5.51 0 0 1 -0.734 -0.605C0.383 7.391 0 6.09 0 5.166S0.383 2.942 1.475 1.87Zm1.05 1.071C1.742 3.711 1.5 4.617 1.5 5.166c0 0.549 0.242 1.455 1.025 2.225 0.77 0.754 2.128 1.44 4.475 1.44 2.347 0 3.706 -0.686 4.475 -1.44 0.784 -0.77 1.025 -1.676 1.025 -2.225 0 -0.55 -0.242 -1.456 -1.025 -2.225C10.705 2.187 9.347 1.5 7 1.5c-2.347 0 -3.706 0.687 -4.475 1.441Zm0.152 7.639a0.866 0.866 0 0 0 -0.201 0.52c0 0.12 0.05 0.341 0.2 0.52 0.128 0.15 0.385 0.339 0.947 0.339 0.563 0 0.819 -0.189 0.946 -0.34a0.866 0.866 0 0 0 0.201 -0.52c0 -0.12 -0.05 -0.34 -0.2 -0.519 -0.128 -0.15 -0.384 -0.339 -0.947 -0.339 -0.562 0 -0.819 0.189 -0.946 0.339Z" clip-rule="evenodd" stroke-width="1"></path>
  </g>
</svg>