<svg xmlns="http://www.w3.org/2000/svg" fill="none" viewBox="0 0 14 14" id="Layout-Window-2--Streamline-Core">
  <desc>
    Layout Window 2 Streamline Icon: https://streamlinehq.com
  </desc>
  <g id="layout-window-2--column-header-layout-layouts-masthead-sidebar">
    <path id="Rectangle 460" fill="#8fbffa" d="M0 1.5A1.5 1.5 0 0 1 1.5 0h11A1.5 1.5 0 0 1 14 1.5v11a1.5 1.5 0 0 1 -1.5 1.5h-11A1.5 1.5 0 0 1 0 12.5v-11Z" stroke-width="1"></path>
    <path id="Union" fill="#2859c5" fill-rule="evenodd" d="M1.5 0h11A1.5 1.5 0 0 1 14 1.5V4H5.157v3.806H14v1.5H5.157V14h-1.5V4H0V1.5A1.5 1.5 0 0 1 1.5 0Z" clip-rule="evenodd" stroke-width="1"></path>
  </g>
</svg>