<svg xmlns="http://www.w3.org/2000/svg" fill="none" viewBox="0 0 14 14"><g id="one-finger-drag-horizontal"><g id="Vector 721"><path fill="#37d7ff" d="m4.907 3.799.947 5.86-.52.188a1.715 1.715 0 0 0-.658 2.8l1 1.044a1 1 0 0 0 .722.31h6.482a1 1 0 0 0 .994-1.113l-.367-3.237a2.573 2.573 0 0 0-2.951-2.13l-2.432.394-.73-4.518a1.26 1.26 0 0 0-2.487.402Z"></path></g><path id="Union" fill="#3e3e3e" fill-rule="evenodd" d="M2.191.038A.5.5 0 0 1 2.5.5v1h1a.5.5 0 0 1 0 1h-1v1a.5.5 0 0 1-.854.354l-1.5-1.5a.5.5 0 0 1 0-.708l1.5-1.5a.5.5 0 0 1 .545-.108Zm8.118 0a.5.5 0 0 1 .545.108l1.5 1.5a.5.5 0 0 1 0 .708l-1.5 1.5A.5.5 0 0 1 10 3.5v-1H9a.5.5 0 1 1 0-1h1v-1a.5.5 0 0 1 .309-.462Z" clip-rule="evenodd"></path></g></svg>