<svg xmlns="http://www.w3.org/2000/svg" fill="none" viewBox="0 0 14 14" id="One-Finger-Hold--Streamline-Core">
  <desc>
    One Finger Hold Streamline Icon: https://streamlinehq.com
  </desc>
  <g id="one-finger-hold">
    <path id="Union" fill="#2859c5" fill-rule="evenodd" d="M1.5 4.196a2.696 2.696 0 0 1 3.95 -2.387 0.75 0.75 0 1 0 0.7 -1.327A4.196 4.196 0 0 0 0.11 5.15a0.75 0.75 0 1 0 1.46 -0.34 2.706 2.706 0 0 1 -0.07 -0.614ZM10.5 7a3.5 3.5 0 1 0 0 -7 3.5 3.5 0 0 0 0 7Z" clip-rule="evenodd" stroke-width="1"></path>
    <g id="Vector 107">
      <path fill="#8fbffa" d="m3.133 4.26 0 5.436 -0.543 0.102a1.715 1.715 0 0 0 -1.096 2.659l0.764 1.11A1 1 0 0 0 3.08 14l6.608 0a1 1 0 0 0 1 -1l0 -2.09a2.573 2.573 0 0 0 -2.573 -2.574l-2.464 0 0 -4.077a1.26 1.26 0 0 0 -2.519 0Z" stroke-width="1"></path>
    </g>
    <path id="Vector 1529 (Stroke)" fill="#8fbffa" fill-rule="evenodd" d="M11.942 2.058a0.625 0.625 0 0 1 0 0.884l-1 1a0.625 0.625 0 1 1 -0.884 -0.884l1 -1a0.625 0.625 0 0 1 0.884 0Z" clip-rule="evenodd" stroke-width="1"></path>
  </g>
</svg>