<svg xmlns="http://www.w3.org/2000/svg" fill="none" viewBox="0 0 14 14"><g id="one-finger-drag-vertical"><g id="Vector 721"><path fill="#37d7ff" d="M5.944 3.76v5.936l-.543.102a1.715 1.715 0 0 0-1.096 2.659l.764 1.11a1 1 0 0 0 .824.433H12.5a1 1 0 0 0 1-1v-2.09a2.573 2.573 0 0 0-2.573-2.574H8.463V3.76a1.26 1.26 0 0 0-2.519 0Z"></path></g><path id="Union" fill="#3e3e3e" fill-rule="evenodd" d="M2 0a.5.5 0 0 1 .354.146l1.5 1.5A.5.5 0 0 1 3.5 2.5h-.75v2h.75a.5.5 0 0 1 .354.854l-1.5 1.5a.5.5 0 0 1-.708 0l-1.5-1.5A.5.5 0 0 1 .5 4.5h.75v-2H.5a.5.5 0 0 1-.354-.854l1.5-1.5A.5.5 0 0 1 2 0Z" clip-rule="evenodd"></path></g></svg>