<svg xmlns="http://www.w3.org/2000/svg" fill="none" viewBox="0 0 14 14"><g id="open-umbrella--storm-rain-umbrella-open-weather"><path id="Subtract" fill="#3e3e3e" fill-rule="evenodd" d="M6.25 7.5h1.5v4.25a.75.75 0 0 0 1.5 0 .75.75 0 0 1 1.5 0 2.25 2.25 0 0 1-4.5 0V7.5Z" clip-rule="evenodd"></path><path id="Union" fill="#37d7ff" fill-rule="evenodd" d="M7.75.75a.75.75 0 0 0-1.5 0v.801A5.5 5.5 0 0 0 1.5 7a.5.5 0 0 0 .5.5h10a.5.5 0 0 0 .5-.5 5.5 5.5 0 0 0-4.75-5.449V.75Z" clip-rule="evenodd"></path></g></svg>