<svg xmlns="http://www.w3.org/2000/svg" fill="none" viewBox="0 0 14 14" id="Pathfinder-Trim--Streamline-Core">
  <desc>
    Pathfinder Trim Streamline Icon: https://streamlinehq.com
  </desc>
  <g id="pathfinder-trim">
    <path id="Vector" fill="#8fbffa" d="M12.5 4h-7A1.5 1.5 0 0 0 4 5.5v7A1.5 1.5 0 0 0 5.5 14h7a1.5 1.5 0 0 0 1.5 -1.5v-7A1.5 1.5 0 0 0 12.5 4Z" stroke-width="1"></path>
    <path id="Subtract" fill="#2859c5" fill-rule="evenodd" d="M1.5 0h7A1.5 1.5 0 0 1 10 1.5v1.25H5.5A2.75 2.75 0 0 0 2.75 5.5V10H1.5A1.5 1.5 0 0 1 0 8.5v-7A1.5 1.5 0 0 1 1.5 0Z" clip-rule="evenodd" stroke-width="1"></path>
  </g>
</svg>