<svg xmlns="http://www.w3.org/2000/svg" fill="none" viewBox="0 0 14 14" id="Peace-Hand--Streamline-Core">
  <desc>
    Peace Hand Streamline Icon: https://streamlinehq.com
  </desc>
  <g id="peace-hand">
    <path id="Vector 107" fill="#8fbffa" d="M8.203 5.903c2.464 0.478 4.691 1.32 4.355 3.37 -0.183 1.116 -0.289 2.932 -1.61 4.432a0.909 0.909 0 0 1 -0.688 0.295H4.184c-0.244 0 -0.48 -0.09 -0.663 -0.251 -0.22 -0.193 -0.543 -0.478 -0.89 -0.78 -1.098 -0.956 -1.284 -2.332 -1.208 -3.512 0.062 -0.953 0.953 -1.62 1.909 -1.62L1.758 1.933A1.31 1.31 0 0 1 2.728 0.31a1.419 1.419 0 0 1 1.684 0.997l1.132 4.11 0.514 -4.323a1.236 1.236 0 0 1 2.461 0.229l-0.316 4.581Z" stroke-width="1"></path>
    <path id="Intersect" fill="#2859c5" fill-rule="evenodd" d="m3.296 7.837 0.036 0 -0.333 -1.25 3.78 0a1.723 1.723 0 0 1 0.402 3.399l-0.112 0.026c0.384 0.39 0.681 0.932 0.707 1.624a0.625 0.625 0 1 1 -1.249 0.048c-0.016 -0.425 -0.238 -0.742 -0.543 -0.961 -0.335 -0.24 -0.662 -0.287 -0.75 -0.272a0.625 0.625 0 0 1 -0.246 -1.225L6.89 8.77a0.473 0.473 0 0 0 -0.11 -0.933l-3.484 0Z" clip-rule="evenodd" stroke-width="1"></path>
  </g>
</svg>