<svg xmlns="http://www.w3.org/2000/svg" fill="none" viewBox="0 0 14 14"><g id="praying-hand"><path id="Union" fill="#37d7ff" fill-rule="evenodd" d="M.5 14h2.32a4 4 0 0 0 3.986-3.667l.11-1.336A.92.92 0 0 0 6 8V5.245a1.344 1.344 0 0 0-2.673-.202L2.629 9.65a1 1 0 0 1-.989.85H.5a.5.5 0 0 0-.5.5v2.5a.5.5 0 0 0 .5.5Zm13 0h-2.32a4 4 0 0 1-3.986-3.667l-.11-1.336A.92.92 0 0 1 8 8V5.245a1.344 1.344 0 0 1 2.673-.202l.698 4.607a1 1 0 0 0 .989.85h1.14a.5.5 0 0 1 .5.5v2.5a.5.5 0 0 1-.5.5Z" clip-rule="evenodd"></path><path id="Union_2" fill="#3e3e3e" fill-rule="evenodd" d="M7.75.75a.75.75 0 0 0-1.5 0v1a.75.75 0 0 0 1.5 0v-1ZM6 6.746v1.25a.953.953 0 0 0-.928.816l-.16 1.105a.625.625 0 1 1-1.237-.18l.16-1.105A2.203 2.203 0 0 1 6 6.746Zm2 1.25c.462.007.86.348.928.816l.16 1.105a.625.625 0 1 0 1.237-.18l-.16-1.105A2.203 2.203 0 0 0 8 6.746v1.25ZM11.53.72a.75.75 0 0 1 0 1.06l-1 1a.75.75 0 1 1-1.06-1.06l1-1a.75.75 0 0 1 1.06 0Zm-8 0a.75.75 0 0 0-1.06 1.06l1 1a.75.75 0 0 0 1.06-1.06l-1-1Z" clip-rule="evenodd"></path></g></svg>