<svg xmlns="http://www.w3.org/2000/svg" fill="none" viewBox="0 0 14 14" id="Spiral-Shape--Streamline-Core">
  <desc>
    Spiral Shape Streamline Icon: https://streamlinehq.com
  </desc>
  <g id="spiral-shape">
    <path id="Vector 898 (Stroke)" fill="#8fbffa" fill-rule="evenodd" d="M5.91917 1.94646C3.47853 1.94646 1.5 3.92499 1.5 6.36563v0.6344c0 2.79101 2.26256 5.05357 5.05358 5.05357H7c3.0376 0 5.5 -2.46243 5.5 -5.49999v-0.44643c0 -0.41421 0.3358 -0.75 0.75 -0.75s0.75 0.33579 0.75 0.75v0.44643c0 3.86599 -3.134 6.99999 -7 6.99999h-0.44642C2.93414 13.5536 0 10.6195 0 7.00003v-0.6344C0 3.09657 2.6501 0.446465 5.91917 0.446465c2.98359 0 5.40223 2.418675 5.40223 5.402255v0.43016c0 2.53839 -2.05774 4.59612 -4.59613 4.59612h-0.1717c-2.1401 0 -3.875 -1.73486 -3.875 -3.87496v-0.44643c0 -1.89355 1.53503 -3.42857 3.42857 -3.42857 1.40044 0 2.53572 1.13527 2.53572 2.53571v0.2551c0 1.25955 -1.02107 2.28061 -2.28061 2.28061h-0.25511c-0.41421 0 -0.75 -0.33578 -0.75 -0.75 0 -0.41421 0.33579 -0.75 0.75 -0.75h0.25511c0.43112 0 0.78061 -0.34949 0.78061 -0.78061v-0.2551c0 -0.57201 -0.46371 -1.03571 -1.03572 -1.03571 -1.06512 0 -1.92857 0.86345 -1.92857 1.92857v0.44643c0 1.31167 1.06333 2.375 2.375 2.375h0.1717c1.70996 0 3.09616 -1.3862 3.09616 -3.09616v-0.43016c0 -2.15516 -1.7471 -3.90226 -3.90226 -3.90226Z" clip-rule="evenodd" stroke-width="1"></path>
  </g>
</svg>