<svg xmlns="http://www.w3.org/2000/svg" fill="none" viewBox="0 0 14 14" id="Star-1--Streamline-Core">
  <desc>
    Star 1 Streamline Icon: https://streamlinehq.com
  </desc>
  <g id="star-1--reward-rating-rate-social-star-media-favorite-like-stars">
    <path id="Union" fill="#8fbffa" fill-rule="evenodd" d="M7 0.277a1.04 1.04 0 0 0 -0.94 0.596L4.472 4.078a0.495 0.495 0 0 0 -0.012 0.023 0.486 0.486 0 0 0 -0.023 0.004L0.94 4.623a1.04 1.04 0 0 0 -0.617 1.788l2.56 2.469 0.006 0.005a0.03 0.03 0 0 1 0.009 0.027l0 0.004 -0.61 3.568 0 0.001a1.05 1.05 0 0 0 1.526 1.107l3.15 -1.665a0.09 0.09 0 0 1 0.072 0l3.15 1.664a1.049 1.049 0 0 0 1.527 -1.106l-0.61 -3.57 0 -0.003c-0.002 -0.004 -0.001 -0.01 0 -0.014a0.03 0.03 0 0 1 0.008 -0.013l0.006 -0.005 2.559 -2.47a1.04 1.04 0 0 0 -0.617 -1.787l-3.496 -0.518a0.486 0.486 0 0 0 -0.023 -0.004 0.495 0.495 0 0 0 -0.012 -0.023L7.94 0.873A1.04 1.04 0 0 0 7 0.277Z" clip-rule="evenodd" stroke-width="1"></path>
  </g>
</svg>