<svg xmlns="http://www.w3.org/2000/svg" fill="none" viewBox="0 0 14 14" id="Upload-Box-1--Streamline-Core">
  <desc>
    Upload Box 1 Streamline Icon: https://streamlinehq.com
  </desc>
  <g id="upload-box-1--arrow-box-download-internet-network-server-up-upload">
    <g id="Vector 1269">
      <path fill="#2859c5" d="M3.383 0h7.234a1.5 1.5 0 0 1 1.312 0.772L14 4.5H0L2.071 0.772A1.5 1.5 0 0 1 3.383 0Z" stroke-width="1"></path>
    </g>
    <path id="Union" fill="#8fbffa" fill-rule="evenodd" d="M7.625 4.5V0h-1.25v4.5H0v8A1.5 1.5 0 0 0 1.5 14h11a1.5 1.5 0 0 0 1.5 -1.5v-8H7.625Z" clip-rule="evenodd" stroke-width="1"></path>
    <g id="Vector 1267">
      <path fill="#2859c5" d="M6.646 6.647 4.354 8.939a0.5 0.5 0 0 0 0.353 0.854H6v2a1 1 0 1 0 2 0v-2h1.293a0.5 0.5 0 0 0 0.353 -0.854L7.354 6.647a0.5 0.5 0 0 0 -0.708 0Z" stroke-width="1"></path>
    </g>
  </g>
</svg>