<svg xmlns="http://www.w3.org/2000/svg" fill="none" viewBox="0 0 24 24" id="Light-Dark-Mode--Streamline-Sharp">
  <desc>
    Light Dark Mode Streamline Icon: https://streamlinehq.com
  </desc>
  <g id="light-dark-mode--light-dark-mode-setting-camera-picture-photo-image-brightness">
    <path id="Union" fill="#8fbffa" fill-rule="evenodd" d="M13 0.75v4.01023c1.2705 0.17385 2.4371 0.67428 3.4122 1.4139l2.1288 -2.1288 0.7071 -0.7071 1.4142 1.41421 -0.7071 0.70711 -2.1289 2.12885c0.7395 0.97499 1.2398 2.14131 1.4136 3.4116h4.01v2h-4.01c-0.1738 1.2704 -0.6742 2.4369 -1.4137 3.412l2.129 2.129 0.7071 0.7071 -1.4142 1.4142 -0.7071 -0.7071 -2.129 -2.129c-0.9751 0.7395 -2.1416 1.2399 -3.412 1.4137v4.01h-2v-4.01c-1.27029 -0.1738 -2.43661 -0.6741 -3.4116 -1.4136l-2.12885 2.1289 -0.70711 0.7071 -1.41421 -1.4142 0.7071 -0.7071 2.1288 -2.1288c-0.73962 -0.9751 -1.24005 -2.1417 -1.4139 -3.4122L1.75 13h-1v-2h1l3.01025 0c0.17385 -1.27038 0.67421 -2.43678 1.41372 -3.41181L4.04533 5.45955l-0.7071 -0.70711 1.41421 -1.41421 0.70711 0.7071 2.12864 2.12864C8.56322 5.43446 9.72961 4.9341 11 4.76025V0.75h2Z" clip-rule="evenodd" stroke-width="1"></path>
    <path id="Intersect" fill="#2859c5" fill-rule="evenodd" d="M18.8923 14.435c-0.7387 0.249 -1.5299 0.3841 -2.3527 0.3841 -4.0645 0 -7.35947 -3.295 -7.35947 -7.35952 0 -0.82218 0.13482 -1.61288 0.38357 -2.35118 -2.83804 1.00332 -4.87132 3.71006 -4.87132 6.8917 0 4.0359 3.27177 7.3077 7.30772 7.3077 3.1822 0 5.8893 -2.034 6.8922 -4.8728Z" clip-rule="evenodd" stroke-width="1"></path>
  </g>
</svg>