<svg xmlns="http://www.w3.org/2000/svg" fill="none" viewBox="0 0 14 14" id="Airplane-Disabled--Streamline-Flex">
  <desc>
    Airplane Disabled Streamline Icon: https://streamlinehq.com
  </desc>
  <g id="airplane-disabled--server-plane-airplane-disabled-off-wireless-mode-internet-network">
    <path id="Union" fill="#8fbffa" fill-rule="evenodd" d="M7 0.29c-0.374 0 -0.695 0.127 -0.957 0.372 -0.255 0.24 -0.441 0.581 -0.579 0.993 -0.26 0.783 -0.366 1.893 -0.375 3.262 -0.85 0.24 -2.014 0.74 -2.995 1.328 -0.529 0.317 -1.015 0.666 -1.373 1.024 -0.348 0.348 -0.618 0.747 -0.618 1.163 0 0.287 0.12 0.517 0.32 0.686 0.191 0.161 0.445 0.261 0.718 0.324 0.544 0.126 1.25 0.123 1.931 0.07a19.05 19.05 0 0 0 1.882 -0.25c0.219 -0.039 0.406 -0.076 0.55 -0.105v0.819a6.826 6.826 0 0 0 -1.17 1.263c-0.377 0.542 -0.686 1.221 -0.48 1.842a0.87 0.87 0 0 0 0.66 0.598c0.282 0.065 0.604 0.022 0.91 -0.062 0.555 -0.152 1.151 -0.465 1.576 -0.733 0.424 0.268 1.02 0.581 1.575 0.733 0.306 0.084 0.628 0.127 0.91 0.062a0.87 0.87 0 0 0 0.66 -0.598c0.207 -0.62 -0.102 -1.3 -0.479 -1.842a6.826 6.826 0 0 0 -1.17 -1.263v-0.819a19.645 19.645 0 0 0 2.431 0.356c0.681 0.052 1.387 0.055 1.932 -0.071 0.272 -0.063 0.526 -0.163 0.717 -0.324 0.2 -0.169 0.32 -0.4 0.32 -0.686 0 -0.416 -0.27 -0.815 -0.618 -1.163 -0.358 -0.358 -0.844 -0.707 -1.372 -1.024 -0.982 -0.589 -2.146 -1.088 -2.995 -1.328 -0.01 -1.37 -0.115 -2.479 -0.376 -3.262 -0.137 -0.412 -0.323 -0.753 -0.579 -0.993A1.353 1.353 0 0 0 7 0.29Z" clip-rule="evenodd" stroke-width="1"></path>
    <path id="Vector (Stroke)" fill="#2859c5" fill-rule="evenodd" d="M0.288 0.159a0.75 0.75 0 0 0 -0.13 1.052C4.595 6.892 6.99 9.257 12.786 13.838a0.75 0.75 0 1 0 0.93 -1.176C8.007 8.15 5.697 5.869 1.341 0.288A0.75 0.75 0 0 0 0.288 0.158Z" clip-rule="evenodd" stroke-width="1"></path>
  </g>
</svg>