<svg xmlns="http://www.w3.org/2000/svg" fill="none" viewBox="0 0 14 14" id="Iphone--Streamline-Flex">
  <desc>
    Iphone Streamline Icon: https://streamlinehq.com
  </desc>
  <g id="iphone--android-phone-mobile-device-smartphone-iphone">
    <path id="Subtract" fill="#8fbffa" d="M2.067 11.593c0.082 0.958 0.824 1.74 1.782 1.818a37.89 37.89 0 0 0 6.302 0c0.958 -0.079 1.7 -0.86 1.782 -1.818 0.127 -1.48 0.263 -3.017 0.263 -4.593s-0.136 -3.113 -0.263 -4.593c-0.083 -0.958 -0.824 -1.74 -1.782 -1.818a37.687 37.687 0 0 0 -6.302 0c-0.958 0.079 -1.7 0.86 -1.782 1.818C1.94 3.887 1.804 5.424 1.804 7s0.136 3.113 0.263 4.593Z" stroke-width="1"></path>
    <path id="Intersect" fill="#2859c5" d="M5.772 3.292c-0.518 -0.042 -0.913 -0.468 -0.954 -0.986 -0.052 -0.67 -0.12 -1.05 -0.186 -1.773 1.6 -0.1 3.136 -0.1 4.736 0 -0.067 0.722 -0.134 1.104 -0.187 1.773 -0.04 0.518 -0.436 0.944 -0.954 0.986 -0.833 0.066 -1.621 0.066 -2.455 0Z" stroke-width="1"></path>
  </g>
</svg>