<svg xmlns="http://www.w3.org/2000/svg" fill="none" viewBox="0 0 14 14" id="Phone-Shield--Streamline-Flex">
  <desc>
    Phone Shield Streamline Icon: https://streamlinehq.com
  </desc>
  <g id="phone-shield--android-phone-mobile-device-smartphone-iphone-protection-shield">
    <path id="Union" fill="#2859c5" fill-rule="evenodd" d="M8.145 0.326a0.5 0.5 0 0 0 -0.357 0.15c-0.342 0.35 -0.823 1.186 -0.823 2.9 0 1.122 0.568 1.892 1.234 2.393 0.651 0.49 1.412 0.738 1.892 0.861a0.5 0.5 0 0 0 0.248 0c0.481 -0.123 1.23 -0.373 1.869 -0.865 0.653 -0.503 1.202 -1.273 1.202 -2.39 0 -1.713 -0.48 -2.549 -0.823 -2.899a0.5 0.5 0 0 0 -0.358 -0.15H8.145Z" clip-rule="evenodd" stroke-width="1"></path>
    <path id="Subtract" fill="#8fbffa" fill-rule="evenodd" d="M5.738 2.704a9.437 9.437 0 0 0 -0.024 0.672c0 1.612 0.84 2.72 1.733 3.392a6.21 6.21 0 0 0 1.587 0.843c0.003 0.162 0.005 0.325 0.005 0.488 0 1.203 -0.096 2.378 -0.193 3.514 -0.082 0.957 -0.825 1.74 -1.784 1.81a31.024 31.024 0 0 1 -4.642 0c-0.958 -0.07 -1.701 -0.853 -1.783 -1.81C0.539 10.477 0.443 9.302 0.443 8.099c0 -1.203 0.096 -2.377 0.194 -3.514 0.082 -0.957 0.825 -1.74 1.783 -1.81a31.013 31.013 0 0 1 3.318 -0.071Z" clip-rule="evenodd" stroke-width="1"></path>
    <path id="Vector 124 (Stroke)" fill="#2859c5" fill-rule="evenodd" d="M3.376 10.94a0.75 0.75 0 0 1 0.75 -0.75h1.233a0.75 0.75 0 1 1 0 1.5H4.126a0.75 0.75 0 0 1 -0.75 -0.75Z" clip-rule="evenodd" stroke-width="1"></path>
  </g>
</svg>