<svg xmlns="http://www.w3.org/2000/svg" fill="none" viewBox="0 0 14 14" id="Signal-Full--Streamline-Flex">
  <desc>
    Signal Full Streamline Icon: https://streamlinehq.com
  </desc>
  <g id="signal-full--phone-mobile-device-signal-wireless-smartphone-iphone-bar-bars-full-android">
    <path id="Union" fill="#8fbffa" fill-rule="evenodd" d="M11.165 13.2h1.449c0.536 0 0.976 -0.42 0.989 -0.955 0.064 -2.717 0.063 -7.864 -0.005 -10.474a0.93 0.93 0 0 0 -0.803 -0.914 7.143 7.143 0 0 0 -1.81 0 0.93 0.93 0 0 0 -0.804 0.914c-0.067 2.61 -0.069 7.757 -0.004 10.473a0.982 0.982 0 0 0 0.989 0.956Zm-3.441 0H6.276a0.989 0.989 0 0 1 -0.993 -0.958c-0.06 -2.12 -0.058 -4.817 0.005 -6.904 0.014 -0.462 0.347 -0.857 0.806 -0.913a7.143 7.143 0 0 1 1.811 0c0.46 0.056 0.792 0.451 0.806 0.913 0.064 2.087 0.065 4.785 0.005 6.904a0.989 0.989 0 0 1 -0.992 0.958Zm-4.864 0h-1.5a0.973 0.973 0 0 1 -0.98 -0.932 51.96 51.96 0 0 1 0.003 -3.63 0.939 0.939 0 0 1 0.868 -0.906 11.69 11.69 0 0 1 1.718 0 0.94 0.94 0 0 1 0.867 0.907c0.044 1.122 0.045 2.492 0.004 3.629a0.973 0.973 0 0 1 -0.98 0.932Z" clip-rule="evenodd" stroke-width="1"></path>
  </g>
</svg>