<svg xmlns="http://www.w3.org/2000/svg" fill="none" viewBox="0 0 48 48" id="Medical-Bag--Streamline-Plump-Remix">
  <desc>
    Medical Bag Streamline Icon: https://streamlinehq.com
  </desc>
  <g id="medical-bag--health-sign-medical-symbol-hospital-bag-medicine-medkit">
    <path id="Union" fill="#000000" fill-rule="evenodd" d="M23.9991 1c-1.3428 0 -2.465 0.09827 -3.3199 0.21357 -1.7704 0.23878 -3.1599 1.3778 -3.8994 2.83073 -0.5589 1.09793 -1.3341 2.71506 -1.8466 4.20189 -3.5083 0.20888 -6.07345 0.5214 -7.88674 0.82011 -3.09636 0.51007 -5.16104 3.0319 -5.45033 5.9742 -0.844319 8.5875 -0.844319 16.3315 0 24.919 0.28929 2.9423 2.35397 5.4641 5.45033 5.9742C10.1594 46.4465 15.4882 47 24.0009 47c8.5127 0 13.8415 -0.5535 16.9544 -1.0663 3.0963 -0.5101 5.161 -3.0319 5.4503 -5.9742 0.8443 -8.5875 0.8443 -16.3315 0 -24.919 -0.2893 -2.9423 -2.354 -5.46413 -5.4503 -5.9742 -1.8139 -0.29882 -4.3803 -0.61145 -7.8905 -0.82033 -0.5125 -1.48677 -1.2876 -3.1038 -1.8464 -4.20167 -0.7396 -1.45293 -2.1291 -2.59195 -3.8994 -2.83073C26.4641 1.09827 25.3418 1 23.9991 1Zm4.6979 7.06066c-0.3378 -0.7793 -0.7142 -1.55505 -1.0434 -2.20184 -0.2163 -0.42487 -0.5515 -0.63828 -0.8693 -0.68114C26.0901 5.08404 25.147 5 23.9991 5c-1.148 0 -2.0911 0.08404 -2.7853 0.17768 -0.3178 0.04286 -0.653 0.25627 -0.8693 0.68114 -0.3292 0.64682 -0.7056 1.42261 -1.0434 2.20194C20.7473 8.0218 22.3114 8 24.0009 8c1.688 0 3.2509 0.02176 4.6961 0.06066ZM24.0009 12c-8.3462 0 -13.4515 0.5432 -16.30427 1.0131 -1.13325 0.1867 -1.98955 1.0951 -2.1197 2.4188 -0.81872 8.3272 -0.81872 15.809 0 24.1362 0.13015 1.3237 0.98645 2.2321 2.1197 2.4188C10.5494 42.4568 15.6547 43 24.0009 43c8.3461 0 13.4514 -0.5432 16.3042 -1.0131 1.1333 -0.1867 1.9896 -1.0951 2.1197 -2.4188 0.8187 -8.3272 0.8187 -15.809 0 -24.1362 -0.1301 -1.3237 -0.9864 -2.2321 -2.1197 -2.4188C37.4523 12.5432 32.347 12 24.0009 12ZM24 16.5c-1.0006 0 -1.8067 0.0642 -2.4353 0.1492 -1.513 0.2046 -2.396 1.4983 -2.4448 2.836 -0.027 0.7394 -0.0565 1.7501 -0.0796 3.0551 -1.305 0.0231 -2.3157 0.0526 -3.0551 0.0796 -1.3377 0.0488 -2.6314 0.9318 -2.836 2.4448C13.0642 25.6933 13 26.4994 13 27.5c0 1.0006 0.0642 1.8067 0.1492 2.4353 0.2046 1.513 1.4983 2.396 2.836 2.4448 0.7394 0.027 1.7501 0.0565 3.0551 0.0796 0.0231 1.305 0.0526 2.3157 0.0796 3.0551 0.0488 1.3377 0.9318 2.6314 2.4448 2.836 0.6286 0.085 1.4347 0.1492 2.4353 0.1492 1.0006 0 1.8067 -0.0642 2.4353 -0.1492 1.513 -0.2046 2.396 -1.4983 2.4448 -2.836 0.027 -0.7394 0.0565 -1.7501 0.0796 -3.0551 1.305 -0.0231 2.3157 -0.0526 3.0551 -0.0796 1.3377 -0.0488 2.6314 -0.9318 2.836 -2.4448 0.085 -0.6286 0.1492 -1.4347 0.1492 -2.4353 0 -1.0006 -0.0642 -1.8067 -0.1492 -2.4353 -0.2046 -1.513 -1.4983 -2.396 -2.836 -2.4448 -0.7394 -0.027 -1.7501 -0.0565 -3.0551 -0.0796 -0.0231 -1.305 -0.0526 -2.3157 -0.0796 -3.0551 -0.0488 -1.3377 -0.9318 -2.6314 -2.4448 -2.836 -0.6286 -0.085 -1.4347 -0.1492 -2.4353 -0.1492Z" clip-rule="evenodd" stroke-width="1"></path>
  </g>
</svg>