<svg xmlns="http://www.w3.org/2000/svg" fill="none" viewBox="0 0 48 48" id="Pencil-2--Streamline-Kameleon">
  <desc>
    Pencil 2 Streamline Icon: https://streamlinehq.com
  </desc>
  <path fill="#32bea6" d="M24 47.9977c13.255 0 24 -10.7445 24 -23.9988C48 10.7445 37.255 0 24 0S0 10.7445 0 23.9989c0 13.2543 10.745 23.9988 24 23.9988Z" stroke-width="1"></path>
  <path fill="#f4d0a1" d="M36.2408 20.3941 22.4373 34.1852s-9.0183 2.8742 -9.0576 2.886c-0.1475 -0.5939 -0.4542 -1.1362 -0.8871 -1.5687 -0.4326 -0.4328 -0.9749 -0.7395 -1.5688 -0.8871 0.0118 -0.0392 2.88 -9.0628 2.88 -9.0628l13.7974 -13.7967 8.6396 8.6382Z" stroke-width="1"></path>
  <path fill="#f8e1c2" d="M27.6007 11.7549 13.8033 25.5516s-2.8682 9.024 -2.88 9.0633c0.5808 0.1452 1.1124 0.4427 1.54 0.8618l19.4304 -19.4291 -4.293 -4.2927Z" stroke-width="1"></path>
  <path fill="#f7b4b4" d="m36.8391 19.7966 -0.617 0.617 -8.6396 -8.6392 0.617 -0.617c0.3242 -0.3242 0.709 -0.5814 1.1326 -0.7568 0.4235 -0.1755 0.8775 -0.2658 1.3359 -0.2658 0.4585 0 0.9125 0.0903 1.336 0.2658 0.4236 0.1754 0.8084 0.4326 1.1326 0.7568l3.7025 3.7024c0.3243 0.3241 0.5816 0.7089 0.7572 1.1324 0.1755 0.4235 0.2659 0.8775 0.2659 1.336 0 0.4585 -0.0904 0.9124 -0.2659 1.336 -0.1756 0.4235 -0.4329 0.8083 -0.7572 1.1324Z" stroke-width="1"></path>
  <path fill="#3e3e3f" d="m13.3797 37.071 -3.065 0.8788c-0.0374 0.0106 -0.077 0.0111 -0.1147 0.0014 -0.0376 -0.0098 -0.072 -0.0295 -0.0995 -0.057 -0.0275 -0.0275 -0.0471 -0.0618 -0.0569 -0.0995 -0.0098 -0.0376 -0.0093 -0.0772 0.0014 -0.1146l0.8788 -3.0649c0.5898 0.1561 1.1276 0.466 1.5583 0.898 0.4319 0.4306 0.7416 0.9682 0.8976 1.5578Z" stroke-width="1"></path>
  <path fill="#facb1b" d="M27.5827 11.7739 25.75 13.6066l8.6391 8.6396 1.8328 -1.8327 -8.6392 -8.6396Z" stroke-width="1"></path>
  <path fill="#059bbf" d="M34.371 22.2646 22.5194 34.1157c-0.0237 0.0241 -0.0521 0.0433 -0.0833 0.0564s-0.0648 0.0198 -0.0987 0.0198c-0.0338 0 -0.0674 -0.0067 -0.0986 -0.0198 -0.0312 -0.0131 -0.0596 -0.0323 -0.0833 -0.0564 -0.0468 -0.0473 -0.0785 -0.1074 -0.0912 -0.1727 -0.0126 -0.0653 -0.0056 -0.1329 0.0201 -0.1943 0.1387 -0.3195 0.1781 -0.6734 0.1132 -1.0156 -0.065 -0.3422 -0.2314 -0.657 -0.4776 -0.9034 -0.2432 -0.243 -0.553 -0.4085 -0.8903 -0.4755 -0.3372 -0.067 -0.6867 -0.0326 -1.0044 0.0989 -0.0699 0.0292 -0.1469 0.0369 -0.2211 0.022 -0.0742 -0.0148 -0.1424 -0.0515 -0.1956 -0.1053l-0.0061 -0.0061c-0.0539 -0.0533 -0.0905 -0.1214 -0.1054 -0.1957 -0.0148 -0.0742 -0.0072 -0.1512 0.022 -0.2211 0.1315 -0.3176 0.166 -0.6671 0.0989 -1.0043 -0.067 -0.3372 -0.2325 -0.647 -0.4755 -0.8903 -0.2432 -0.2429 -0.553 -0.4084 -0.8902 -0.4754 -0.3373 -0.0671 -0.6868 -0.0326 -1.0045 0.0989 -0.0698 0.0292 -0.1468 0.0369 -0.2211 0.0221 -0.0742 -0.0149 -0.1424 -0.0516 -0.1956 -0.1055 -0.1265 -0.1265 -0.1462 -0.2971 -0.0894 -0.4223 0.1315 -0.3177 0.1659 -0.6672 0.0989 -1.0044 -0.067 -0.3372 -0.2325 -0.647 -0.4755 -0.8902 -0.2465 -0.2462 -0.5613 -0.4125 -0.9035 -0.4775 -0.3422 -0.065 -0.6961 -0.0256 -1.0156 0.1131 -0.0614 0.0258 -0.129 0.0329 -0.1943 0.0202 -0.0654 -0.0127 -0.1255 -0.0444 -0.1727 -0.0913 -0.0242 -0.0238 -0.0433 -0.0521 -0.0564 -0.0833 -0.0131 -0.0313 -0.0199 -0.0648 -0.0199 -0.0987 0 -0.0338 0.0068 -0.0674 0.0199 -0.0986 0.0131 -0.0312 0.0322 -0.0596 0.0564 -0.0833L25.7306 13.625l8.6404 8.6396Z" stroke-width="1"></path>
  <path fill="#21b2d1" d="M31.5938 19.4872 19.606 31.4745c-0.0751 -0.014 -0.1441 -0.0507 -0.1977 -0.1052 -0.056 -0.053 -0.0946 -0.1218 -0.1106 -0.1972 -0.016 -0.0755 -0.0086 -0.154 0.0212 -0.2252 0.1315 -0.3176 0.1659 -0.6672 0.0989 -1.0044 -0.067 -0.3372 -0.2325 -0.647 -0.4755 -0.8902 -0.2433 -0.243 -0.5531 -0.4084 -0.8903 -0.4755 -0.3372 -0.067 -0.6867 -0.0326 -1.0044 0.0989 -0.0711 0.03 -0.1497 0.0375 -0.2252 0.0215 -0.0755 -0.016 -0.1443 -0.0547 -0.1972 -0.1109 -0.0543 -0.0537 -0.0909 -0.1227 -0.1052 -0.1977l11.9878 -11.9867 3.086 3.0853Z" stroke-width="1"></path>
  <path fill="#fbc8c8" d="M33.1366 11.1569c-0.3241 -0.3242 -0.7089 -0.5814 -1.1325 -0.7568 -0.4235 -0.1755 -0.8774 -0.2658 -1.3358 -0.2658 -0.4585 0 -0.9124 0.0903 -1.3359 0.2658 -0.4235 0.1754 -0.8083 0.4326 -1.1324 0.7568l-0.6175 0.6174 4.2925 4.2923 3.0856 -3.0854 -1.824 -1.8243Z" stroke-width="1"></path>
</svg>