<svg xmlns="http://www.w3.org/2000/svg" fill="none" viewBox="0 0 48 48" id="Start--Streamline-Kameleon">
  <desc>
    Start Streamline Icon: https://streamlinehq.com
  </desc>
  <path fill="#32bea6" d="M24 47.9977c13.255 0 24 -10.7445 24 -23.9988C48 10.7445 37.255 0 24 0S0 10.7445 0 23.9989c0 13.2543 10.745 23.9988 24 23.9988Z" stroke-width="1"></path>
  <path fill="#84462d" d="M14.4001 10.9088c0 -0.2314 -0.092 -0.4534 -0.2556 -0.6171 -0.1637 -0.1636 -0.3857 -0.2556 -0.6171 -0.2556h-1.7455c-0.2315 0 -0.4534 0.092 -0.6171 0.2556 -0.1637 0.1637 -0.2556 0.3857 -0.2556 0.6171v26.1806c0 0.2315 0.0919 0.4534 0.2556 0.6171 0.1637 0.1636 0.3856 0.2556 0.6171 0.2556h1.7455c0.2314 0 0.4534 -0.092 0.6171 -0.2556 0.1636 -0.1637 0.2556 -0.3856 0.2556 -0.6171V10.9088Z" stroke-width="1"></path>
  <path fill="#9c6144" d="M12.6546 10.0361h-0.8727c-0.2315 0 -0.4534 0.092 -0.6171 0.2556 -0.1637 0.1637 -0.2556 0.3857 -0.2556 0.6171v26.1806c0 0.2315 0.0919 0.4534 0.2556 0.6171 0.1637 0.1636 0.3856 0.2556 0.6171 0.2556h0.8727v-27.926Z" stroke-width="1"></path>
  <path fill="#84462d" d="M37.091 10.9088c0 -0.2314 -0.0919 -0.4534 -0.2556 -0.6171 -0.1637 -0.1636 -0.3857 -0.2556 -0.6171 -0.2556h-1.7455c-0.2314 0 -0.4534 0.092 -0.6171 0.2556 -0.1637 0.1637 -0.2556 0.3857 -0.2556 0.6171v26.1806c0 0.2315 0.0919 0.4534 0.2556 0.6171 0.1637 0.1636 0.3857 0.2556 0.6171 0.2556h1.7455c0.2314 0 0.4534 -0.092 0.6171 -0.2556 0.1637 -0.1637 0.2556 -0.3856 0.2556 -0.6171V10.9088Z" stroke-width="1"></path>
  <path fill="#9c6144" d="M35.3456 10.0361h-0.8728c-0.2314 0 -0.4534 0.092 -0.6171 0.2556 -0.1637 0.1637 -0.2556 0.3857 -0.2556 0.6171v26.1806c0 0.2315 0.0919 0.4534 0.2556 0.6171 0.1637 0.1636 0.3857 0.2556 0.6171 0.2556h0.8728v-27.926Z" stroke-width="1"></path>
  <path fill="#ffffff" d="M37.091 13.5269H10.9092v15.7083H37.091V13.5269Z" stroke-width="1"></path>
  <path fill="#3e3e3f" d="M16.1455 13.5269h-5.2363v5.2361h5.2363v-5.2361Z" stroke-width="1"></path>
  <path fill="#3e3e3f" d="M26.6182 13.5269h-5.2364v5.2361h5.2364v-5.2361Z" stroke-width="1"></path>
  <path fill="#3e3e3f" d="M37.0909 13.5269h-5.2364v5.2361h5.2364v-5.2361Z" stroke-width="1"></path>
  <path fill="#3e3e3f" d="M21.3819 18.7637h-5.2364v5.2361h5.2364v-5.2361Z" stroke-width="1"></path>
  <path fill="#3e3e3f" d="M31.8545 18.7637h-5.2363v5.2361h5.2363v-5.2361Z" stroke-width="1"></path>
  <path fill="#3e3e3f" d="M16.1455 23.999h-5.2363v5.2361h5.2363V23.999Z" stroke-width="1"></path>
  <path fill="#3e3e3f" d="M26.6182 23.999h-5.2364v5.2361h5.2364V23.999Z" stroke-width="1"></path>
  <path fill="#3e3e3f" d="M37.0909 23.999h-5.2364v5.2361h5.2364V23.999Z" stroke-width="1"></path>
</svg>