<svg xmlns="http://www.w3.org/2000/svg" fill="none" viewBox="0 0 14 14"><g id="gift-2--reward-box-social-present-gift-media-rating-bow"><path id="Vector" fill="#37d7ff" d="M12.846 12.855V6.274H1.154v6.581a1 1 0 0 0 1 1h9.692a1 1 0 0 0 1-1Z"></path><path id="Union" fill="#3e3e3e" fill-rule="evenodd" d="M3.45 3.391h2.506a3.964 3.964 0 0 0-.342-.571c-.434-.602-.945-.941-1.442-.941-.545 0-.77.156-.861.257-.098.11-.162.287-.14.543.023.258.131.523.278.712Zm-1.658 0a2.844 2.844 0 0 1-.115-.58c-.048-.552.071-1.182.52-1.68C2.652.628 3.337.38 4.172.38c1.2 0 2.103.792 2.659 1.564.058.081.115.165.169.25.054-.085.11-.169.17-.25C7.724 1.17 8.628.379 9.827.379c.836 0 1.52.248 1.975.753.448.497.568 1.127.52 1.68a2.841 2.841 0 0 1-.115.58h.594a1 1 0 0 1 1 1v.881a1 1 0 0 1-1 1H7.625v7.582h-1.25V6.273H1.198a1 1 0 0 1-1-1v-.882a1 1 0 0 1 1-1h.594Zm8.759 0a1.4 1.4 0 0 0 .277-.712c.023-.256-.04-.434-.139-.543-.091-.101-.316-.257-.861-.257-.497 0-1.008.34-1.442.94-.137.19-.25.386-.342.572h2.507Z" clip-rule="evenodd"></path></g></svg>