<svg xmlns="http://www.w3.org/2000/svg" fill="none" viewBox="0 0 14 14"><g id="justice-hammer--hammer-work-mallet-office-company-gavel-justice-judge-arbitration-court"><path id="Subtract" fill="#37d7ff" fill-rule="evenodd" d="M1.331 10.63a.5.5 0 0 1 .5-.5h5.5a.5.5 0 0 1 .5.5v1.75h-6.5v-1.75Z" clip-rule="evenodd"></path><path id="Subtract_2" fill="#3e3e3e" fill-rule="evenodd" d="m8.85 6.582 1.06-1.06L13.7 9.31a.75.75 0 1 1-1.06 1.06L8.85 6.582Z" clip-rule="evenodd"></path><path id="Vector (Stroke)" fill="#3e3e3e" fill-rule="evenodd" d="M.081 13.13a.75.75 0 0 1 .75-.75h7.5a.75.75 0 0 1 0 1.5h-7.5a.75.75 0 0 1-.75-.75Z" clip-rule="evenodd"></path><path id="Union" fill="#37d7ff" d="M3.877 4.144a1.5 1.5 0 0 0 0 2.122l1.584 1.583a1.5 1.5 0 0 0 2.121 0l3.585-3.585a1.5 1.5 0 0 0 0-2.12L9.584.558a1.5 1.5 0 0 0-2.122 0L3.877 4.144Z"></path></g></svg>