<svg xmlns="http://www.w3.org/2000/svg" fill="none" viewBox="0 0 14 14"><g id="necklace--diamond-money-payment-finance-wealth-accessory-necklace-jewelry"><path id="Vector (Stroke)" fill="#37d7ff" fill-rule="evenodd" d="M3.248 1.58A5.948 5.948 0 1 1 9.38 11.646a.75.75 0 0 1-1.05-.687v-.083a.75.75 0 0 1 .75-.75h.002a4.448 4.448 0 1 0-4.162 0h.002a.75.75 0 0 1 .75.75v.083a.75.75 0 0 1-1.05.687A5.948 5.948 0 0 1 3.248 1.58Z" clip-rule="evenodd"></path><path id="Vector" fill="#3e3e3e" d="M9 10.75a.5.5 0 0 0-.2-.4L7.3 9.225a.5.5 0 0 0-.6 0L5.2 10.35a.5.5 0 0 0-.2.4v1.5a.5.5 0 0 0 .2.4l1.5 1.125a.5.5 0 0 0 .6 0l1.5-1.125a.5.5 0 0 0 .2-.4v-1.5Z"></path></g></svg>