<svg xmlns="http://www.w3.org/2000/svg" fill="none" viewBox="0 0 14 14"><g id="signage-4--street-billboard-shops-shop-stores-board-sign-ads-banner"><path id="Subtract (Stroke)" fill="#3e3e3e" fill-rule="evenodd" d="M3.854 8.669a.75.75 0 0 1 .75.75v3.815a.75.75 0 0 1-1.5 0V9.42a.75.75 0 0 1 .75-.75Z" clip-rule="evenodd"></path><path id="Subtract (Stroke)_2" fill="#3e3e3e" fill-rule="evenodd" d="M10.146 8.71a.75.75 0 0 1 .75.75v3.774a.75.75 0 0 1-1.5 0V9.46a.75.75 0 0 1 .75-.75Z" clip-rule="evenodd"></path><path id="Rectangle 1712" fill="#37d7ff" d="M0 .613a.5.5 0 0 1 .5-.5h13a.5.5 0 0 1 .5.5v8.931a.5.5 0 0 1-.5.5H.5a.5.5 0 0 1-.5-.5V.614Z"></path><path id="Intersect" fill="#3e3e3e" fill-rule="evenodd" d="M3.625.113h-1.25V.99h-.042a.625.625 0 1 0 0 1.25h1.334a.625.625 0 1 0 0-1.25h-.042V.113Zm6.75 0h1.25V.99h.042a.625.625 0 1 1 0 1.25h-1.333a.625.625 0 1 1 0-1.25h.041V.114Zm-4 0h1.25V.99h.042a.625.625 0 1 1 0 1.25H6.333a.625.625 0 1 1 0-1.25h.042V.113Z" clip-rule="evenodd"></path><path id="Vector 1647 (Stroke)" fill="#3e3e3e" fill-rule="evenodd" d="M8.375 6.851c0-.345.28-.625.625-.625h2.667a.625.625 0 1 1 0 1.25H9a.625.625 0 0 1-.625-.625Z" clip-rule="evenodd"></path></g></svg>