<svg xmlns="http://www.w3.org/2000/svg" fill="none" viewBox="0 0 14 14" id="Ai-Generate-Portrait-Image-Spark--Streamline-Flex">
  <desc>
    Ai Generate Portrait Image Spark Streamline Icon: https://streamlinehq.com
  </desc>
  <g id="ai-generate-portrait-image-spark--picture-photography-photo-image-artificial-intelligence-ai">
    <path id="Subtract" fill="#8fbffa" fill-rule="evenodd" d="M6.4 3.303c0.046 0.507 0.291 0.999 0.735 1.348 0.286 0.224 0.59 0.384 0.776 0.482l0.084 0.045c0.185 0.1 0.3 0.174 0.422 0.296s0.196 0.237 0.297 0.422l0.045 0.085c0.098 0.187 0.258 0.49 0.482 0.775a1.93 1.93 0 0 0 1.555 0.744c0.023 0.374 0.038 0.753 0.038 1.138 0 0.878 -0.076 1.732 -0.163 2.544a2.999 2.999 0 0 1 -2.639 2.646c-0.816 0.091 -1.676 0.172 -2.56 0.172 -0.885 0 -1.745 -0.08 -2.561 -0.172a2.999 2.999 0 0 1 -2.639 -2.646C0.185 10.37 0.109 9.516 0.109 8.638c0 -0.878 0.076 -1.732 0.163 -2.544a2.999 2.999 0 0 1 2.639 -2.647c0.816 -0.09 1.676 -0.171 2.56 -0.171 0.313 0 0.623 0.01 0.929 0.027Z" clip-rule="evenodd" stroke-width="1"></path>
    <path id="Union" fill="#2859c5" fill-rule="evenodd" d="M9.3 1.66c0.288 -0.287 0.433 -0.56 0.575 -0.828 0.101 -0.19 0.2 -0.378 0.348 -0.566a0.687 0.687 0 0 1 1.086 0c0.148 0.188 0.247 0.376 0.348 0.566 0.142 0.268 0.287 0.54 0.574 0.828 0.287 0.287 0.56 0.432 0.829 0.574 0.19 0.1 0.377 0.2 0.565 0.348a0.687 0.687 0 0 1 0 1.086c-0.188 0.148 -0.376 0.247 -0.565 0.348 -0.269 0.142 -0.542 0.287 -0.829 0.574 -0.287 0.287 -0.432 0.56 -0.574 0.828 -0.1 0.19 -0.2 0.378 -0.348 0.566a0.687 0.687 0 0 1 -1.086 0c-0.148 -0.188 -0.247 -0.376 -0.348 -0.566 -0.142 -0.268 -0.287 -0.54 -0.574 -0.828 -0.287 -0.287 -0.56 -0.432 -0.828 -0.574 -0.19 -0.1 -0.378 -0.2 -0.566 -0.348a0.687 0.687 0 0 1 0 -1.086c0.188 -0.148 0.376 -0.247 0.566 -0.348 0.268 -0.142 0.54 -0.287 0.828 -0.574ZM5.436 14c-0.872 -0.002 -1.72 -0.082 -2.525 -0.172a2.96 2.96 0 0 1 -1.027 -0.31 0.272 0.272 0 0 1 -0.003 -0.129c0.174 -0.807 0.639 -1.6 1.283 -2.126a3.652 3.652 0 0 1 5.89 2.101 0.282 0.282 0 0 1 0.006 0.065l0 0.005 0 0.021a0.274 0.274 0 0 1 -0.01 0.068 2.952 2.952 0 0 1 -1.017 0.305c-0.816 0.091 -1.676 0.172 -2.56 0.172l-0.037 0ZM7.34 7.578c0 1.15 -0.647 1.797 -1.797 1.797s-1.797 -0.647 -1.797 -1.797 0.647 -1.797 1.797 -1.797 1.797 0.647 1.797 1.797Z" clip-rule="evenodd" stroke-width="1"></path>
  </g>
</svg>