<svg xmlns="http://www.w3.org/2000/svg" fill="none" viewBox="0 0 14 14" id="Deepfake-Technology-1--Streamline-Flex">
  <desc>
    Deepfake Technology 1 Streamline Icon: https://streamlinehq.com
  </desc>
  <g id="deepfake-technology-1--automated-face-head-fake-generated-artificial-intelligence-ai">
    <path id="Union" fill="#8fbffa" fill-rule="evenodd" d="M6.15234 0.890625c0 -0.276142 0.22386 -0.5 0.5 -0.5 2.40767 0 4.00606 0.986745 5.11046 2.460265 0.1348 0.17983 0.262 0.36668 0.3825 0.55948 0.8431 1.3496 1.3529 2.99073 1.7802 4.55634 0.0177 0.06479 0.0311 0.13143 0.04 0.19915 0.0625 0.47409 -0.0949 1.00138 -0.5447 1.3168 -0.221 0.15494 -0.4424 0.26235 -0.7085 0.32069 -0.1002 0.02197 -0.203 0.0361 -0.3096 0.04437v1.76168c0 1.1045 -0.8954 2 -2 2H6.65234c-0.27614 0 -0.5 -0.2239 -0.5 -0.5V0.890625Z" clip-rule="evenodd" stroke-width="1"></path>
    <path id="Subtract" fill="#2859c5" fill-rule="evenodd" d="M6.15259 2.50922H4.09955c-0.18777 -0.48939 -0.62618 -0.7558 -1.27179 -0.7558 -0.88008 0 -1.37512 0.49504 -1.37512 1.37512s0.49504 1.37512 1.37512 1.37512c0.6406 0 1.07721 -0.26229 1.26738 -0.74444h2.05745v-1.25Zm0 2.21875H4.98453c-0.34518 0 -0.625 0.27982 -0.625 0.625 0 0.34517 0.27982 0.625 0.625 0.625h1.16806v-1.25Zm0 1.88232H2.73122c-0.19278 -0.47414 -0.62733 -0.73187 -1.26235 -0.73187 -0.880076 0 -1.37512 0.49504 -1.37512 1.37512s0.495044 1.37512 1.37512 1.37512c0.65113 0 1.09149 -0.27097 1.27655 -0.76837h3.40717v-1.25Zm0 4.10111h-0.81808V9.297c0 -0.34518 -0.27982 -0.625 -0.625 -0.625H3.5933c-0.34518 0 -0.625 0.27982 -0.625 0.625s0.27982 0.625 0.625 0.625h0.49121v0.7894h-0.79266c-0.18968 -0.4837 -0.62666 -0.7468 -1.26829 -0.7468 -0.88008 0 -1.375122 0.495 -1.375122 1.3751s0.495042 1.3751 1.375122 1.3751c0.64459 0 1.08264 -0.2655 1.2709 -0.7534h2.85813v-1.25Z" clip-rule="evenodd" stroke-width="1"></path>
    <path id="Vector 1296 (Stroke)" fill="#2859c5" fill-rule="evenodd" d="M10.1582 5.875c0.3452 0 0.625 0.27982 0.625 0.625v0.16485c0 0.34518 -0.2798 0.625 -0.625 0.625 -0.34517 0 -0.625 -0.27982 -0.625 -0.625V6.5c0 -0.34518 0.27983 -0.625 0.625 -0.625Z" clip-rule="evenodd" stroke-width="1"></path>
  </g>
</svg>