<svg xmlns="http://www.w3.org/2000/svg" fill="none" viewBox="0 0 14 14" id="Film--Streamline-Flex">
  <desc>
    Film Streamline Icon: https://streamlinehq.com
  </desc>
  <g id="film--photos-camera-shutter-picture-photography-pictures-photo-lens-film-cut">
    <path id="Subtract" fill="#000000" fill-rule="evenodd" d="M2.39633 0.25c-0.71654 0 -1.3524 0.511724 -1.455656 1.24773C0.780693 2.63805 0.595215 4.53162 0.595215 7c0 2.46838 0.185478 4.3619 0.345459 5.5023 0.103256 0.736 0.739116 1.2477 1.455656 1.2477h9.20717c0.7165 0 1.3524 -0.5117 1.4556 -1.2477 0.16 -1.1404 0.3455 -3.03392 0.3455 -5.5023s-0.1855 -4.36195 -0.3455 -5.50227C12.9559 0.761725 12.32 0.25 11.6035 0.25H2.39633Zm0.96131 4.92829c0.05183 -1.01873 0.17055 -2.00779 0.28117 -2.66654 0.07133 -0.42476 0.44159 -0.70425 0.87229 -0.70425h4.97747c0.4307 0 0.80093 0.27949 0.87233 0.70425 0.1106 0.65875 0.2293 1.64781 0.2811 2.66654 0.0281 0.55158 -0.4209 0.99959 -0.9732 0.99959H4.33087c-0.55228 0 -1.00129 -0.44801 -0.97323 -0.99959Zm7.00326 6.31001c0.1107 -0.6588 0.2294 -1.64786 0.2812 -2.66659 0.0281 -0.55158 -0.4209 -0.99959 -0.97322 -0.99959l-5.33792 0c-0.55229 0 -1.0013 0.44801 -0.97324 0.99958 0.05184 1.01874 0.17055 2.0078 0.28118 2.6666 0.07133 0.4247 0.44159 0.7042 0.87229 0.7042l4.97746 0c0.4307 0 0.80095 -0.2795 0.87225 -0.7042Z" clip-rule="evenodd" stroke-width="1"></path>
  </g>
</svg>