<svg xmlns="http://www.w3.org/2000/svg" fill="none" viewBox="0 0 14 14" id="Film-Slate--Streamline-Flex">
  <desc>
    Film Slate Streamline Icon: https://streamlinehq.com
  </desc>
  <g id="film-slate--pictures-photo-film-slate">
    <path id="Subtract" fill="#000000" fill-rule="evenodd" d="M5.50081 1.68215c-0.08935 0.02462 -0.15775 0.09665 -0.17771 0.18716l-0.68362 3.09931c-0.04056 0.18387 0.12902 0.34488 0.31055 0.29486l2.33616 -0.64377c0.08935 -0.02462 0.15775 -0.09666 0.17771 -0.18717l0.68362 -3.0993c0.04056 -0.18387 -0.12902 -0.344887 -0.31055 -0.29486l-2.33616 0.64377Zm-1.90804 0.52579c0.18153 -0.05002 0.35111 0.11099 0.31055 0.29486L3.2197 5.60211c-0.01996 0.09051 -0.08836 0.16254 -0.17771 0.18716l-1.0945 0.30161h9.55261c0.8284 0 1.5 0.67157 1.5 1.5v3.63862c0 1.3807 -1.1193 2.5 -2.5 2.5H3.50012c-1.38071 0 -2.5 -1.1193 -2.5 -2.5V6.16064c-0.010856 -0.01839 -0.01952 -0.03847 -0.02554 -0.06L0.556766 4.6063C0.333105 3.80635 0.802094 2.97696 1.60287 2.75629l1.9899 -0.54835Zm5.60146 1.88598 2.44857 -0.67474c0.5338 -0.14711 0.8465 -0.70004 0.6974 -1.23333l-0.2177 -0.77835C11.9001 0.611784 11.076 0.145809 10.2794 0.365311l-0.53439 0.147272c-0.08936 0.024623 -0.15775 0.096659 -0.17772 0.187168L8.88368 3.79905c-0.04056 0.18388 0.12902 0.34489 0.31055 0.29487ZM4 10.1251c-0.34518 0 -0.625 0.2798 -0.625 0.625s0.27982 0.625 0.625 0.625h1.5c0.34518 0 0.625 -0.2798 0.625 -0.625s-0.27982 -0.625 -0.625 -0.625H4Z" clip-rule="evenodd" stroke-width="1"></path>
  </g>
</svg>