<svg xmlns="http://www.w3.org/2000/svg" fill="none" viewBox="0 0 14 14" id="Gallery--Streamline-Flex">
  <desc>
    Gallery Streamline Icon: https://streamlinehq.com
  </desc>
  <g id="gallery--pages-filter-picture-pagination-image">
    <path id="Union" fill="#000000" fill-rule="evenodd" d="m2.40462 1.0451 -0.00001 0.00001 -0.01052 0.00102c-0.16738 0.0163 -0.33292 0.03242 -0.49731 0.04795 -0.71262 0.06733 -1.284739 0.62128 -1.378534 1.32908l-0.030441 0.2284 -0.001892 0.01415C0.372491 3.51428 0.25 4.4307 0.25 5.37497c0 0.94427 0.122491 1.86069 0.235913 2.70926l0.001893 0.01415 0.03044 0.2284c0.093796 0.70779 0.665914 1.26174 1.378534 1.32907l0.04819 0.00457c-0.02476 -0.3375 -0.04018 -0.68419 -0.04018 -1.03545 0 -1.02956 0.1325 -2.01984 0.2442 -2.85462l0.03487 -0.2614 0.00014 -0.00103c0.17041 -1.28232 1.20542 -2.28598 2.49999 -2.40829 0.1605 -0.01517 0.32324 -0.03103 0.48991 -0.04728l0.0241 -0.00234c0.98747 -0.09626 2.10337 -0.20504 3.25439 -0.20504 0.75557 0 1.496 0.04687 2.19491 0.10631 -0.0129 -0.09801 -0.0259 -0.19521 -0.0388 -0.29153l-0.0011 -0.00818 -0.0304 -0.22841c-0.0938 -0.7078 -0.66594 -1.26175 -1.37857 -1.32908 -0.16438 -0.01553 -0.32993 -0.03165 -0.49731 -0.04795l-0.01052 -0.00102C7.69432 0.948076 6.63566 0.844971 5.54761 0.844971S3.40089 0.948076 2.40462 1.0451Zm2.89056 3.25136c1.00179 -0.09765 2.06713 -0.20149 3.15721 -0.20149 1.09009 0 2.15541 0.10384 3.15721 0.20149l0.0001 0c0.1663 0.01622 0.3309 0.03226 0.4935 0.04762 0.7126 0.06733 1.2848 0.62128 1.3786 1.32908l0.0309 0.23231c0.1141 0.85238 0.2373 1.77352 0.2373 2.7195 0 0.94597 -0.1232 1.86713 -0.2373 2.71953l-0.0309 0.2323c-0.0938 0.7078 -0.666 1.2617 -1.3786 1.3291 -0.1626 0.0153 -0.3272 0.0314 -0.4936 0.0476 -1.0018 0.0976 -2.06712 0.2015 -3.15721 0.2015s-2.15543 -0.1039 -3.15723 -0.2015c-0.16634 -0.0162 -0.33093 -0.0323 -0.49359 -0.0476 -0.71263 -0.0674 -1.28474 -0.6213 -1.37854 -1.3291l-0.03098 -0.2323c-0.11403 -0.8524 -0.23726 -1.77356 -0.23726 -2.71953 0 -0.94598 0.12323 -1.86712 0.23726 -2.71951l0.03098 -0.2323c0.0938 -0.7078 0.66591 -1.26175 1.37854 -1.32908 0.16266 -0.01536 0.32725 -0.03141 0.4936 -0.04762l0.00001 0Zm2.23246 4.51625c1.12944 0.8029 2.09824 1.89289 2.81626 3.00259 -0.62557 0.052 -1.25345 0.0897 -1.89142 0.0897 -1.02429 0 -2.02257 -0.0971 -3.02686 -0.1948l-0.00022 0 -0.0008 -0.0001c-0.16824 -0.0164 -0.33664 -0.0328 -0.50537 -0.0487 -0.13048 -0.0123 -0.23937 -0.1162 -0.25695 -0.2488l-0.02962 -0.2225c-0.08362 -0.6265 -0.16545 -1.23956 -0.20433 -1.85578 0.19467 -0.16773 0.40135 -0.32821 0.63175 -0.49175 0.72344 -0.51347 1.71351 -0.5659 2.46756 -0.02986Zm2.80366 -0.45919c0.778 0 1.2156 -0.43761 1.2156 -1.21558s-0.4376 -1.21558 -1.2156 -1.21558c-0.77797 0 -1.21558 0.43761 -1.21558 1.21558s0.43761 1.21558 1.21558 1.21558Z" clip-rule="evenodd" stroke-width="1"></path>
  </g>
</svg>