<svg xmlns="http://www.w3.org/2000/svg" fill="none" viewBox="0 0 14 14" id="Landscape-2--Streamline-Flex">
  <desc>
    Landscape 2 Streamline Icon: https://streamlinehq.com
  </desc>
  <g id="landscape-2--photos-photo-landscape-picture-photography-camera-pictures-image">
    <path id="Subtract" fill="#000000" fill-rule="evenodd" d="M7 0.25c-1.11623 0 -2.20229 0.102042 -3.2333 0.216963C2.03318 0.660188 0.641268 2.05033 0.455349 3.78808 0.345581 4.81406 0.25 5.89225 0.25 7c0 1.10775 0.095581 2.18594 0.20535 3.2119 0.185919 1.7378 1.57783 3.1279 3.31135 3.3211 1.03101 0.115 2.11707 0.217 3.2333 0.217 1.11623 0 2.20229 -0.102 3.2333 -0.217 1.7335 -0.1932 3.1254 -1.5833 3.3114 -3.3211 0.1097 -1.02596 0.2053 -2.10415 0.2053 -3.2119 0 -1.10775 -0.0956 -2.18594 -0.2053 -3.21192 -0.186 -1.73775 -1.5779 -3.127891 -3.3114 -3.321117C9.20229 0.352042 8.11623 0.25 7 0.25Zm2.03594 6.49523c1.14026 0 1.78156 -0.64137 1.78156 -1.78159s-0.6413 -1.7816 -1.78156 -1.7816c-1.14023 0 -1.7816 0.64138 -1.7816 1.7816 0 1.14022 0.64137 1.78159 1.7816 1.78159Zm-3.34484 0.6302c1.7458 1.18841 3.24305 2.90057 4.3291 4.64477 -1.00321 0.1112 -2.00636 0.2027 -3.02016 0.2027 -1.02861 0 -2.04625 -0.0941 -3.06413 -0.2076 -1.02494 -0.1142 -1.85271 -0.9438 -1.96205 -1.9658 -0.0594 -0.55526 -0.11286 -1.11113 -0.149 -1.66914 0.36212 -0.30734 0.75767 -0.58347 1.29858 -0.95989 0.75532 -0.52561 1.7758 -0.58408 2.56766 -0.04504Z" clip-rule="evenodd" stroke-width="1"></path>
  </g>
</svg>