<svg xmlns="http://www.w3.org/2000/svg" fill="none" viewBox="0 0 24 24" id="Train-2--Streamline-Cyber">
  <desc>
    Train 2 Streamline Icon: https://streamlinehq.com
  </desc>
  <path fill="#ffffff" d="M23.2487 7.39832H7.6539L0.751297 15.5791 4.1995 21.7148h19.0492" stroke-width="1"></path>
  <path fill="#bbd8ff" d="M8.9322 10.4661v5.113H0.751297l8.180903 -5.113Z" stroke-width="1"></path>
  <path fill="#bbd8ff" d="M12 19.6696v-7.4773h5.113v7.4773H12Z" stroke-width="1"></path>
  <path fill="#bbd8ff" d="m23.2487 10.4661 -3.0678 5.113h3.0678v-5.113Z" stroke-width="1"></path>
  <path stroke="#092f63" stroke-linecap="round" stroke-linejoin="round" d="M23.2487 7.39832H7.6539L0.751297 15.5791 4.1995 21.7148h19.0492" stroke-width="1"></path>
  <path stroke="#092f63" stroke-linecap="round" stroke-linejoin="round" d="M5.0657 10.4661h3.8665v5.113H0.751297l4.314403 -5.113Z" stroke-width="1"></path>
  <path stroke="#092f63" stroke-linecap="round" stroke-linejoin="round" d="M23.2487 10.4661h-3.0678v5.113h3.0678" stroke-width="1"></path>
  <path stroke="#092f63" stroke-linecap="round" stroke-linejoin="round" d="m14.2497 7.39826 2.8633 -2.0453 -3.5791 -3.0678" stroke-width="1"></path>
  <path stroke="#092f63" stroke-linecap="round" stroke-linejoin="round" d="M12 19.6696v-9.2035h5.113v9.2035H12Z" stroke-width="1"></path>
  <path stroke="#092f63" stroke-linecap="round" stroke-linejoin="round" d="M10.4661 2.28516h6.647" stroke-width="1"></path>
  <path stroke="#092f63" stroke-linecap="round" stroke-linejoin="round" d="M23.2487 19.6696H3.05009" stroke-width="1"></path>
</svg>