<svg xmlns="http://www.w3.org/2000/svg" fill="none" viewBox="0 0 14 14"><g id="blood-donate-drop"><path id="Union" fill="#3e3e3e" fill-rule="evenodd" d="m7 .464.377-.27a.464.464 0 0 0-.755 0L7 .464Zm0 0-.378-.27-.001.002-.005.006L6.6.226a15.07 15.07 0 0 0-.276.4 23.46 23.46 0 0 0-.652 1.027 12.4 12.4 0 0 0-.664 1.25c-.176.395-.33.831-.33 1.198 0 .631.24 1.24.673 1.691.434.452 1.027.71 1.649.71.622 0 1.215-.258 1.649-.71.433-.451.673-1.06.673-1.69 0-.368-.154-.804-.33-1.2a12.408 12.408 0 0 0-.664-1.25A23.088 23.088 0 0 0 7.4.227L7.383.202 7.38.196 7.378.195 7 .465Z" clip-rule="evenodd"></path><path id="vector 2618" fill="#37d7ff" d="M0 9.838V5.112a1.11 1.11 0 0 1 2.222 0v3.342a1.11 1.11 0 0 1 1.801-.335l1.436 1.436c.417.417.65.982.65 1.571V14H2.778v-.556L.586 11.252A2 2 0 0 1 0 9.838Z"></path><path id="Intersect" fill="#3e3e3e" fill-rule="evenodd" d="M2.222 6.922v1.524a1.472 1.472 0 0 0-.052.293c-.025.34.078.612.23.764l1.008 1.009a.5.5 0 1 1-.707.707L1.693 10.21c-.405-.405-.56-.987-.52-1.544.04-.562.282-1.147.739-1.6a.498.498 0 0 1 .31-.144Z" clip-rule="evenodd"></path><path id="vector 2621" fill="#37d7ff" d="M14 9.838V5.112a1.11 1.11 0 0 0-2.222 0v3.342a1.11 1.11 0 0 0-1.801-.335L8.541 9.555a2.22 2.22 0 0 0-.65 1.571V14h3.332v-.556l2.191-2.192A2 2 0 0 0 14 9.838Z"></path><path id="Intersect_2" fill="#3e3e3e" fill-rule="evenodd" d="M11.779 6.922v1.524c.027.097.044.196.051.292.025.34-.077.612-.23.765l-1.008 1.008a.5.5 0 1 0 .707.707l1.009-1.008c.405-.405.56-.988.52-1.544a2.524 2.524 0 0 0-.74-1.6.498.498 0 0 0-.31-.144Z" clip-rule="evenodd"></path></g></svg>