<svg xmlns="http://www.w3.org/2000/svg" fill="none" viewBox="0 0 14 14"><g id="online-medical-call-service"><g id="Group 4561"><path id="vector" fill="#37d7ff" d="M6.971 13.476a2.661 2.661 0 0 0 3.321-.355l.375-.374a.897.897 0 0 0 0-1.261L9.09 9.919a.887.887 0 0 0-1.252 0 .897.897 0 0 1-1.261 0L4.064 7.406a.897.897 0 0 1 0-1.262.887.887 0 0 0 0-1.251L2.546 3.316a.897.897 0 0 0-1.261 0L.91 3.69a2.66 2.66 0 0 0-.404 3.321 23.88 23.88 0 0 0 6.465 6.465Z"></path><path id="union" fill="#3e3e3e" d="M9.371.1a.493.493 0 0 0-.492.493V2.47H7a.493.493 0 0 0-.493.493v1.602c0 .272.22.492.493.492h1.879v1.94c0 .273.22.493.492.493h1.602c.272 0 .493-.22.493-.492v-1.94h1.94a.493.493 0 0 0 .492-.493V2.964a.493.493 0 0 0-.492-.493h-1.94V.593A.493.493 0 0 0 10.973.1H9.37Z"></path></g></g></svg>