<svg xmlns="http://www.w3.org/2000/svg" fill="none" viewBox="0 0 14 14"><g id="petri-dish-lab-equipment"><path id="Union" fill="#37d7ff" d="M7 0a7 7 0 1 0 0 14A7 7 0 0 0 7 0Z"></path><path id="Union_2" fill="#3e3e3e" fill-rule="evenodd" d="M10.5 4.834a1.667 1.667 0 0 1-2.797 1.225 1.25 1.25 0 1 1-.385-1.922 1.667 1.667 0 0 1 3.182.697ZM3.576 8.735a.533.533 0 0 1 .186-.04c.083-.002.132.017.165.042.032.025.063.068.081.148.02.087.014.168.01.19-.036.182-.045.442.018.713.064.277.215.608.537.856.321.248.68.309.965.3.278-.008.526-.083.693-.164a.625.625 0 1 0-.545-1.125.533.533 0 0 1-.186.04c-.082.002-.132-.016-.165-.041-.032-.025-.063-.068-.081-.149a.533.533 0 0 1-.01-.19 1.765 1.765 0 0 0-.018-.712 1.49 1.49 0 0 0-.536-.856 1.49 1.49 0 0 0-.965-.3 1.765 1.765 0 0 0-.694.163.625.625 0 0 0 .545 1.125Zm3.549-.37a.875.875 0 1 1 1.75 0 .875.875 0 0 1-1.75 0ZM3.539 4.208a.875.875 0 1 0 0 1.75.875.875 0 0 0 0-1.75ZM9.375 9.83a.875.875 0 1 1 1.75 0 .875.875 0 0 1-1.75 0Z" clip-rule="evenodd"></path></g></svg>