<svg xmlns="http://www.w3.org/2000/svg" fill="none" viewBox="0 0 14 14"><g id="sos-help-emergency-sign"><path id="Union" fill="#37d7ff" fill-rule="evenodd" d="M0 5.778c0-.957.777-1.734 1.735-1.734h.853a1.85 1.85 0 0 1 1.748 1.235.75.75 0 0 1-1.415.5.352.352 0 0 0-.333-.235h-.853a.235.235 0 0 0-.05.464l1.3.284a1.853 1.853 0 0 1-.397 3.664h-.735A1.853 1.853 0 0 1 .106 8.72a.75.75 0 1 1 1.414-.5c.049.139.18.236.333.236h.735a.353.353 0 0 0 .076-.699l-1.3-.284A1.735 1.735 0 0 1 0 5.778Zm9.559 0c0-.957.776-1.734 1.734-1.734h.854a1.85 1.85 0 0 1 1.747 1.235.75.75 0 1 1-1.414.5.353.353 0 0 0-.333-.235h-.854a.235.235 0 0 0-.05.464l1.3.284a1.853 1.853 0 0 1-.396 3.664h-.736A1.853 1.853 0 0 1 9.665 8.72a.75.75 0 1 1 1.415-.5c.048.139.18.236.332.236h.736a.353.353 0 0 0 .075-.699l-1.3-.284A1.735 1.735 0 0 1 9.56 5.778Zm-3.28.119c0-.195.158-.353.353-.353h.736c.194 0 .352.158.352.353v2.206a.353.353 0 0 1-.352.353h-.736a.353.353 0 0 1-.353-.353V5.897Zm.353-1.853c-1.023 0-1.853.83-1.853 1.853v2.206c0 1.023.83 1.853 1.853 1.853h.736c1.023 0 1.852-.83 1.852-1.853V5.897c0-1.023-.83-1.853-1.852-1.853h-.736Z" clip-rule="evenodd"></path></g></svg>