<svg xmlns="http://www.w3.org/2000/svg" fill="none" viewBox="0 0 48 48" id="Database-Server-3--Streamline-Plump-Gradient">
  <desc>
    Database Server 3 Streamline Icon: https://streamlinehq.com
  </desc>
  <g id="database-server-3--server-network-internet">
    <path id="Union" fill="url(#paint0_linear_7979_4495)" fill-rule="evenodd" d="M22 24.4971c-7.69-.023-12.59327-.1757-15.43325-.3069-2.59548-.12-4.70423-2.1065-4.89633-4.7342C1.57757 18.1858 1.5 16.6363 1.5 15c0-1.6363.07757-3.1858.17042-4.456.1921-2.62771 2.30085-4.6142 4.89633-4.73416C9.6456 5.66755 15.1495 5.5 24 5.5s14.3544.16755 17.4333.30984c2.5954.11996 4.7042 2.10644 4.8963 4.73416.0928 1.2702.1704 2.8197.1704 4.456 0 1.6363-.0776 3.1858-.1704 4.456-.1921 2.6277-2.3009 4.6142-4.8964 4.7342-2.8399.1312-7.7432.2839-15.4332.3069v7.3748c1.4325.5569 2.5739 1.6967 3.1329 3.1281h5.8749c1.1046 0 2 .8954 2 2s-.8954 2-2 2h-5.8749c-.8001 2.0487-2.7931 3.5-5.1251 3.5s-4.325-1.4513-5.125-3.5h-5.875c-1.1046 0-2-.8954-2-2s.8954-2 2-2h5.875c.5569-1.4262 1.6921-2.5629 3.1172-3.122v-7.3809ZM10 13.5c-.82843 0-1.5.6716-1.5 1.5s.67157 1.5 1.5 1.5h1c.8284 0 1.5-.6716 1.5-1.5s-.6716-1.5-1.5-1.5h-1Zm8 0c-.8284 0-1.5.6716-1.5 1.5s.6716 1.5 1.5 1.5h20c.8284 0 1.5-.6716 1.5-1.5s-.6716-1.5-1.5-1.5H18Z" clip-rule="evenodd"></path>
  </g>
  <defs>
    <linearGradient id="paint0_linear_7979_4495" x1="50.4" x2="-1.895" y1="50.337" y2="5.158" gradientUnits="userSpaceOnUse">
      <stop stop-color="#ffd600"></stop>
      <stop offset="1" stop-color="#ff007a"></stop>
    </linearGradient>
  </defs>
</svg>