<svg xmlns="http://www.w3.org/2000/svg" fill="none" viewBox="0 0 48 48" id="Device-Database-Encryption-1--Streamline-Plump-Gradient">
  <desc>
    Device Database Encryption 1 Streamline Icon: https://streamlinehq.com
  </desc>
  <g id="device-database-encryption-1">
    <path id="Union" fill="url(#paint0_linear_7979_4510)" fill-rule="evenodd" d="M.5 4C.5 2.61929 1.61929 1.5 3 1.5h3c1.933 0 3.5 1.567 3.5 3.5v13c0 1.3807-1.11929 2.5-2.5 2.5S4.5 19.3807 4.5 18V6.5H3C1.61929 6.5.5 5.38071.5 4Zm29.4788 11.4809c.3049.0119.6448.0191 1.0212.0191.3764 0 .7163-.0072 1.0212-.0191.139-.0055.2081-.0506.2616-.1091.0662-.0724.1565-.2285.1644-.4888.0297-.9835.0528-2.2682.0528-3.883 0-1.6148-.0231-2.89948-.0528-3.88301-.0079-.26031-.0982-.41638-.1644-.48875-.0535-.05855-.1226-.10367-.2616-.10911C31.7163 6.5072 31.3764 6.5 31 6.5c-.3764 0-.7163.0072-1.0212.01913-.139.00544-.2081.05056-.2616.10911-.0662.07237-.1565.22844-.1644.48875C29.5231 8.10052 29.5 9.3852 29.5 11c0 1.6148.0231 2.8995.0528 3.883.0079.2603.0982.4164.1644.4888.0535.0585.1226.1036.2616.1091ZM31 20.5c-.4402 0-.8453-.0084-1.2167-.023-3.1289-.1224-5.1448-2.6801-5.2282-5.4432C24.5238 13.9975 24.5 12.6625 24.5 11c0-1.66249.0238-2.99751.0551-4.03383.0834-2.76302 2.0993-5.32078 5.2282-5.44321C30.1547 1.50842 30.5598 1.5 31 1.5c.4402 0 .8453.00842 1.2167.02296 3.1289.12243 5.1448 2.68019 5.2282 5.44321C37.4762 8.00249 37.5 9.33751 37.5 11c0 1.6625-.0238 2.9975-.0551 4.0338-.0834 2.7631-2.0993 5.3208-5.2282 5.4432-.3714.0146-.7765.023-1.2167.023Zm.2356 8.5545C31.3507 25.6778 34.1214 23 37.5 23s6.1493 2.6778 6.2644 6.0545l.0928 2.7233c1.6.2878 2.8112 1.5193 2.9815 3.2187C46.929 35.8971 47 37.1814 47 39s-.071 3.1029-.1613 4.0035c-.1808 1.8038-1.5343 3.0805-3.2807 3.2609-1.1992.1239-3.0979.2356-6.058.2356-2.9601 0-4.8588-.1117-6.058-.2356-1.7464-.1804-3.0999-1.4571-3.2807-3.2609C28.071 42.1029 28 40.8186 28 39c0-1.6928.0529-2.9181.1222-3.7987.1387-1.7608 1.3515-3.088 3.0204-3.4194l.093-2.7274Zm8.5311.1362.0796 2.3358C39.15 31.5097 38.3709 31.5 37.5 31.5c-.8697 0-1.6488.0096-2.3463.0264l.0796-2.3356C35.2749 27.9689 36.2775 27 37.5 27c1.2225 0 2.2251.9689 2.2667 2.1907ZM39 38c0-.8284-.6716-1.5-1.5-1.5S36 37.1716 36 38v2c0 .8284.6716 1.5 1.5 1.5S39 40.8284 39 40v-2ZM15 1.5c-1.3807 0-2.5 1.11929-2.5 2.5s1.1193 2.5 2.5 2.5h1.5V18c0 1.3807 1.1193 2.5 2.5 2.5s2.5-1.1193 2.5-2.5V5c0-1.933-1.567-3.5-3.5-3.5h-3ZM19 38c-.3764 0-.7163-.0072-1.0212-.0191-.139-.0055-.2081-.0506-.2616-.1091-.0662-.0724-.1565-.2285-.1644-.4888-.0297-.9835-.0528-2.2682-.0528-3.883 0-1.6148.0231-2.8995.0528-3.883.0079-.2603.0982-.4164.1644-.4888.0535-.0585.1226-.1036.2616-.1091C18.2837 29.0072 18.6236 29 19 29c.3764 0 .7163.0072 1.0212.0191.139.0055.2081.0506.2616.1091.0662.0724.1565.2285.1644.4888.0297.9835.0528 2.2682.0528 3.883 0 1.6148-.0231 2.8995-.0528 3.883-.0079.2603-.0982.4164-.1644.4888-.0535.0585-.1226.1036-.2616.1091C19.7163 37.9928 19.3764 38 19 38Zm-1.2167 4.977c.3714.0146.7765.023 1.2167.023.4402 0 .8453-.0084 1.2167-.023 3.1289-.1224 5.1448-2.6801 5.2282-5.4432.0313-1.0363.0551-2.3713.0551-4.0338s-.0238-2.9975-.0551-4.0338c-.0834-2.7631-2.0993-5.3208-5.2282-5.4432C19.8453 24.0084 19.4402 24 19 24c-.4402 0-.8453.0084-1.2167.023-3.1289.1224-5.1448 2.6801-5.2282 5.4432-.0313 1.0363-.0551 2.3713-.0551 4.0338s.0238 2.9975.0551 4.0338c.0834 2.7631 2.0993 5.3208 5.2282 5.4432ZM3 24C1.61929 24 .5 25.1193.5 26.5S1.61929 29 3 29h1.5v11.5C4.5 41.8807 5.61929 43 7 43s2.5-1.1193 2.5-2.5v-13C9.5 25.567 7.933 24 6 24H3Z" clip-rule="evenodd"></path>
  </g>
  <defs>
    <linearGradient id="paint0_linear_7979_4510" x1="2.287" x2="54.432" y1="5.136" y2="35.507" gradientUnits="userSpaceOnUse">
      <stop stop-color="#00d078"></stop>
      <stop offset="1" stop-color="#007df0"></stop>
    </linearGradient>
  </defs>
</svg>