<svg xmlns="http://www.w3.org/2000/svg" fill="none" viewBox="0 0 48 48" id="Electric-Cord-1--Streamline-Plump-Gradient">
  <desc>
    Electric Cord 1 Streamline Icon: https://streamlinehq.com
  </desc>
  <g id="electric-cord-1--electricity-electronic-appliances-device-cord-cable-plug-connection">
    <path id="Union" fill="url(#paint0_linear_7979_4522)" fill-rule="evenodd" d="M15.9993 1.5c-.2069 0-.4006.00489-.582.01382-.8692.04283-1.5594.44101-2.0316 1.04377-.464.59243-.7049 1.3634-.7417 2.1615-.0691 1.49947-.1363 3.88942-.144 7.57281 1.8539-.1125 4.1557-.206 6.9979-.255-.0102-3.53912-.0759-5.85322-.1434-7.31781-.0368-.7981-.2776-1.56907-.7417-2.1615-.4721-.60276-1.1624-1.00094-2.0316-1.04377-.1813-.00893-.3751-.01382-.5819-.01382Zm19.4992 10.7919c-1.8538-.1125-4.1557-.206-6.9979-.255.0102-3.53912.0759-5.85322.1434-7.31781.0368-.7981.2777-1.56907.7417-2.1615.4722-.60276 1.1624-1.00094 2.0316-1.04377.1814-.00893.3751-.01382.582-.01382.2068 0 .4006.00489.5819.01382.8692.04283 1.5594.44101 2.0316 1.04377.4641.59243.7049 1.3634.7417 2.1615.0691 1.49947.1364 3.88942.144 7.57281ZM18.989 39.2937c-.615-.0467-1.1673-.0955-1.6308-.14-1.5905-.1524-2.8453-1.3778-3.0538-2.9504-.078-.5884-.1749-1.3472-.2865-2.2763-4.02094-1.9301-6.59803-3.9553-7.8437-5.0626-.79436-.7061-1.30954-1.6648-1.45709-2.7199-.31927-2.283-.22937-4.8561-.09094-6.6862.17101-2.2608 1.84154-4.0896 4.1503-4.349C11.3267 14.8228 15.9764 14.5 24 14.5s12.6733.3228 15.2235.6093c2.3088.2594 3.9793 2.0883 4.1503 4.349.1385 1.8301.2283 4.4032-.0909 6.6862-.1475 1.0551-.6627 2.0138-1.4571 2.7199-1.2456 1.1073-3.8227 3.1325-7.8437 5.0626-.1116.9291-.2085 1.6879-.2865 2.2763-.2084 1.5726-1.4633 2.798-3.0538 2.9504-.4636.0445-1.0162.0933-1.6315.14-.1955 2.2384-.3954 4.1389-.4849 4.9679-.0816.7559-.5687 1.6504-1.5997 1.9315-.5888.1605-1.5104.3069-2.926.3069-1.4156 0-2.3373-.1464-2.9261-.3069-1.0309-.2811-1.518-1.1756-1.5997-1.9315-.0895-.829-.2894-2.7295-.4849-4.9679Z" clip-rule="evenodd"></path>
  </g>
  <defs>
    <linearGradient id="paint0_linear_7979_4522" x1="46.88" x2="-10.516" y1="56.031" y2="20.697" gradientUnits="userSpaceOnUse">
      <stop stop-color="#ffd600"></stop>
      <stop offset="1" stop-color="#ff007a"></stop>
    </linearGradient>
  </defs>
</svg>