<svg xmlns="http://www.w3.org/2000/svg" fill="none" viewBox="0 0 48 48" id="Hand-Held--Streamline-Plump-Gradient">
  <desc>
    Hand Held Streamline Icon: https://streamlinehq.com
  </desc>
  <g id="hand-held--tablet-kindle-device-electronics-ipad-computer">
    <path id="Union" fill="url(#paint0_linear_7979_4540)" fill-rule="evenodd" d="M10.0069 46.9647c2.9864.268 7.574.5353 13.9931.5353s11.0067-.2673 13.9931-.5353c3.2961-.2958 5.7659-2.8868 6.0004-6.1529.2444-3.4051.5065-8.9009.5065-16.8118 0-7.9108-.2621-13.4067-.5065-16.81178-.2345-3.2661-2.7043-5.85713-6.0004-6.15292C35.0067.767306 30.4191.500002 24 .5c-6.4191 0-11.0067.267304-13.9931.5353-3.29606.29579-5.76595 2.88682-6.00038 6.15292C3.76212 10.5933 3.5 16.0892 3.5 24c0 7.9108.26212 13.4067.50652 16.8118.23443 3.2661 2.7043 5.8571 6.00038 6.1529ZM39.3424 33.5c.0927-2.5814.1576-5.7335.1576-9.5 0-7.9983-.2926-13.2263-.5228-16.10114-.0796-.99426-.8001-1.73066-1.7587-1.83072C34.7236 5.80769 30.4179 5.5 24 5.5s-10.7236.30769-13.2185.56813c-.95861.10007-1.67907.83647-1.75868 1.83073C8.79264 10.7737 8.5 16.0017 8.5 24c0 3.7665.06489 6.9186.1576 9.5h30.6848Zm-14.2295 8.9969C26.1649 42.4383 27 41.5667 27 40.5c0-1.1046-.8954-2-2-2h-2c-1.1046 0-2 .8954-2 2 0 1.0667.835 1.9383 1.8871 1.9969.3636.002.7346.0031 1.1129.0031.3782 0 .7493-.0011 1.1129-.0031ZM12 11.5c0-1.1046.8954-2 2-2h20c1.1046 0 2 .8954 2 2s-.8954 2-2 2H14c-1.1046 0-2-.8954-2-2Zm2 6c-1.1046 0-2 .8954-2 2s.8954 2 2 2h20c1.1046 0 2-.8954 2-2s-.8954-2-2-2H14Zm-2 10c0-1.1046.8954-2 2-2h10c1.1046 0 2 .8954 2 2s-.8954 2-2 2H14c-1.1046 0-2-.8954-2-2Z" clip-rule="evenodd"></path>
  </g>
  <defs>
    <linearGradient id="paint0_linear_7979_4540" x1="10.202" x2="45.286" y1="9.538" y2="26.496" gradientUnits="userSpaceOnUse">
      <stop stop-color="#ffd600"></stop>
      <stop offset="1" stop-color="#00d078"></stop>
    </linearGradient>
  </defs>
</svg>