<svg xmlns="http://www.w3.org/2000/svg" fill="none" viewBox="0 0 48 48" id="Printer--Streamline-Plump-Gradient">
  <desc>
    Printer Streamline Icon: https://streamlinehq.com
  </desc>
  <g id="printer--scan-device-electronics-printer-print-computer">
    <path id="Union" fill="url(#paint0_linear_7979_4654)" fill-rule="evenodd" d="M15.7349 2.0407C17.672 1.7671 20.4679 1.5 24.001 1.5c3.533 0 6.3289.2671 8.2661.5407 2.5132.35497 4.3884 2.31864 4.6798 4.81681.018.15433.0361.31457.0541.48077.0058.05371.0087.10769.0087.16172v.66275C33.8791 8.07233 29.619 8 24 8c-5.5223 0-9.8037.06986-13.0078.15798V7.5c0-.05402.0029-.10801.0087-.16172.0181-.16621.0361-.32645.0541-.48077.2914-2.49817 2.1666-4.46184 4.6799-4.81681ZM24 10.5c-8.0924 0-13.338.1506-16.43182.2872-2.8345.1251-5.22777 2.173-5.58558 5.0743C1.73268 17.888 1.5 20.6688 1.5 24c0 3.0182.09651 5.5775.20749 7.5228.17991 3.1539 2.69589 5.5698 5.82305 5.6988.48615.0201 1.01827.0403 1.59794.0603-.04812-2.0163-.08829-4.4198-.11065-7.2538-.00105-.1327.00119-.265.00665-.3966.03313-.7983.38333-1.5504.97297-2.0896.58965-.5392 1.36995-.8208 2.16805-.7826 2.8736.1377 6.7292.2404 11.8352.2404 5.1038 0 8.9583-.1026 11.8315-.2402.798-.0382 1.5784.2434 2.168.7826.5896.5392.9398 1.2912.9729 2.0895.0055.1315.0077.2637.0067.3963-.0222 2.8342-.0621 5.2378-.1098 7.254.5803-.0199 1.1129-.0402 1.5995-.0603 3.1271-.129 5.6431-2.5449 5.823-5.6988.111-1.9453.2075-4.5046.2075-7.5228 0-3.0177-.0965-5.5774-.2074-7.5235-.18-3.1557-2.6984-5.5725-5.8271-5.7004C37.2042 10.6426 31.876 10.5 24 10.5Zm9.5 9.5c0-.8284.6716-1.5 1.5-1.5h1c.8284 0 1.5.6716 1.5 1.5s-.6716 1.5-1.5 1.5h-1c-.8284 0-1.5-.6716-1.5-1.5Zm-21.4781 9.7578c2.9294.1404 6.8336.2438 11.9788.2438 5.1429 0 9.0461-.1033 11.975-.2436.0034.0823.0048.1651.0042.2484-.0456 5.8263-.1662 9.8086-.275 12.3299-.0921 2.1349-1.6047 3.8926-3.7238 4.1675-1.9762.2564-4.7052.4974-7.9824.4974-3.2778 0-6.0065-.2411-7.9818-.4975-2.1175-.2749-3.6291-2.0308-3.7219-4.164-.1097-2.5212-.2313-6.5044-.2773-12.3333-.0006-.0834.0008-.1662.0042-.2486ZM18 33.5c-.8284 0-1.5.6716-1.5 1.5s.6716 1.5 1.5 1.5h12c.8284 0 1.5-.6716 1.5-1.5s-.6716-1.5-1.5-1.5H18Zm0 6c-.8284 0-1.5.6716-1.5 1.5s.6716 1.5 1.5 1.5h12c.8284 0 1.5-.6716 1.5-1.5s-.6716-1.5-1.5-1.5H18Z" clip-rule="evenodd"></path>
  </g>
  <defs>
    <linearGradient id="paint0_linear_7979_4654" x1="8.856" x2="45.389" y1="10.25" y2="30.269" gradientUnits="userSpaceOnUse">
      <stop stop-color="#ffd600"></stop>
      <stop offset="1" stop-color="#00d078"></stop>
    </linearGradient>
  </defs>
</svg>