<svg xmlns="http://www.w3.org/2000/svg" fill="none" viewBox="0 0 48 48" id="Wifi-Signal-Full--Streamline-Plump-Gradient">
  <desc>
    Wifi Signal Full Streamline Icon: https://streamlinehq.com
  </desc>
  <g id="wifi-signal-full--wireless-wifi-internet-server-network-connection">
    <path id="Union" fill="url(#paint0_linear_7979_4684)" fill-rule="evenodd" d="M2.39705 9.6286C8.21646 4.76046 15.8108 2.5 23.9996 2.5c8.1889 0 15.7845 2.2606 21.6042 7.12899 1.4721 1.23151 1.5377 3.34611.4214 4.73531l-1.8202 2.2649C38.9574 12.2006 31.8251 9.5 23.9998 9.5c-7.8249 0-14.95689 2.7004-20.20447 7.1286l-1.81981-2.2648c-1.116255-1.3892-1.050567-3.5037.42153-4.7352ZM23.9998 12.5c7.1683 0 13.6318 2.4841 18.3254 6.4685l-4.1859 5.209C34.3631 21.2546 29.4031 19.5 23.9999 19.5c-5.4031 0-10.363 1.7546-14.13919 4.6773L5.67502 18.968C10.3686 14.9839 16.8319 12.5 23.9998 12.5Zm.0001 10c4.7385 0 9.03 1.5326 12.2598 4.0164l-3.3198 4.1311c-.8811 1.0965-2.391 1.1876-3.4267.5014-1.569-1.0394-3.4648-1.6489-5.5135-1.6489-2.0486 0-3.9444.6095-5.5135 1.6489-1.0357.6862-2.5457.595-3.4268-.5016l-3.3192-4.1309C14.9699 24.0326 19.2614 22.5 23.9999 22.5ZM17.5 39c0-3.5899 2.9101-6.5 6.5-6.5s6.5 2.9101 6.5 6.5-2.9101 6.5-6.5 6.5-6.5-2.9101-6.5-6.5Z" clip-rule="evenodd"></path>
  </g>
  <defs>
    <linearGradient id="paint0_linear_7979_4684" x1="2.959" x2="53.408" y1="5.975" y2="36.12" gradientUnits="userSpaceOnUse">
      <stop stop-color="#00d078"></stop>
      <stop offset="1" stop-color="#007df0"></stop>
    </linearGradient>
  </defs>
</svg>