<svg xmlns="http://www.w3.org/2000/svg" fill="none" viewBox="0 0 24 24" id="Bubble-Chat-Smiley-Face-2--Streamline-Cyber">
  <desc>
    Bubble Chat Smiley Face 2 Streamline Icon: https://streamlinehq.com
  </desc>
  <path fill="#ffffff" d="M7.75 16.5 3.5 9l4.25 -7.5h10.5L22.5 9l-4.25 7.5H7.75Z" stroke-width="1"></path>
  <path fill="#ffffff" d="m5.00003 17.5005 -1.49951 1.5L5.00055 20.5 6.50007 19l-1.50004 -1.4995Z" stroke-width="1"></path>
  <path fill="#bbd8ff" d="M17 14.5H9L5.7 9H3.5l4.25 7.5h10.5L22.5 9h-2.383L17 14.5Z" stroke-width="1"></path>
  <path stroke="#092f63" stroke-linecap="round" stroke-linejoin="round" d="m8.5 10 1.5 1.5h6l1.5 -1.5" stroke-width="1"></path>
  <path stroke="#092f63" stroke-linecap="round" stroke-linejoin="round" d="M10.5 6.5v0.878" stroke-width="1"></path>
  <path stroke="#092f63" stroke-linecap="round" stroke-linejoin="round" d="M15.5 6.5v0.878" stroke-width="1"></path>
  <path stroke="#092f63" stroke-linecap="round" stroke-linejoin="round" d="M7.75 16.5 3.5 9l4.25 -7.5h10.5L22.5 9l-4.25 7.5H7.75Z" stroke-width="1"></path>
  <path stroke="#092f63" stroke-linecap="round" stroke-linejoin="round" d="m5.00003 17.5005 -1.49951 1.5L5.00055 20.5 6.50007 19l-1.50004 -1.4995Z" stroke-width="1"></path>
  <path stroke="#092f63" stroke-linecap="round" stroke-linejoin="round" d="m2.00002 21.5005 -0.5 0.5 0.5 0.5" stroke-width="1"></path>
  <path stroke="#092f63" stroke-linecap="round" stroke-linejoin="round" d="m2.00002 21.5005 0.5 0.5 -0.5 0.5" stroke-width="1"></path>
</svg>