<svg xmlns="http://www.w3.org/2000/svg" fill="none" viewBox="0 0 24 24" id="Receipt-Envelope--Streamline-Cyber">
  <desc>
    Receipt Envelope Streamline Icon: https://streamlinehq.com
  </desc>
  <path fill="#ffffff" d="M20.1809 12.3201V0.751343H3.81911V12.3201L0.751312 9.44354V23.2487H23.2487V9.44354l-3.0678 2.87656Z" stroke-width="1"></path>
  <path fill="#bbd8ff" d="M20.5296 21.2035H3.48679L0.759491 23.2487l22.489209 -0.0061 -2.7191 -2.0391Z" stroke-width="1"></path>
  <path fill="#bbd8ff" d="m23.2487 9.44351 -3.0678 2.87559V7.39832l3.0678 2.04519Z" stroke-width="1"></path>
  <path fill="#bbd8ff" d="M0.751312 9.44351 3.81911 12.3191V7.39832L0.751312 9.44351Z" stroke-width="1"></path>
  <path stroke="#092f63" stroke-linecap="round" stroke-linejoin="round" d="M23.2487 9.44348V23.2487H0.751312V9.44348" stroke-width="1"></path>
  <path stroke="#092f63" stroke-linecap="round" stroke-linejoin="round" d="M3.81911 7.39832 0.751312 9.44351" stroke-width="1"></path>
  <path stroke="#092f63" stroke-linecap="round" stroke-linejoin="round" d="m23.2487 9.44351 -3.0678 -2.04519" stroke-width="1"></path>
  <path stroke="#092f63" stroke-linecap="round" stroke-linejoin="round" d="M0.751312 23.2487 8.93221 17.113 0.751312 9.44348" stroke-width="1"></path>
  <path stroke="#092f63" stroke-linecap="round" stroke-linejoin="round" d="m23.2487 23.2487 -8.1809 -6.1357 8.1809 -7.66952" stroke-width="1"></path>
  <path stroke="#092f63" stroke-linecap="round" stroke-linejoin="round" d="M3.81909 12.3201V0.751343H20.1809V12.3201" stroke-width="1"></path>
  <path stroke="#092f63" stroke-linecap="round" stroke-linejoin="round" d="M8.93219 17.113h6.13561" stroke-width="1"></path>
  <path stroke="#092f63" stroke-linecap="round" stroke-linejoin="round" d="M16.0904 3.81909h-2.0452l-0.5113 1.0226 0.5113 1.0227h2.0452l0.5113 1.0226 -0.5113 1.0226h-2.0452" stroke-width="1"></path>
  <path stroke="#092f63" stroke-linecap="round" stroke-linejoin="round" d="M15.0678 3.81911v-1.0226" stroke-width="1"></path>
  <path stroke="#092f63" stroke-linecap="round" stroke-linejoin="round" d="M15.0678 8.93215v-1.0226" stroke-width="1"></path>
  <path stroke="#092f63" stroke-linecap="round" stroke-linejoin="round" d="M6.88699 4.84167h3.0678" stroke-width="1"></path>
  <path stroke="#092f63" stroke-linecap="round" stroke-linejoin="round" d="M6.88699 6.88696h3.0678" stroke-width="1"></path>
  <path stroke="#092f63" stroke-linecap="round" stroke-linejoin="round" d="M6.88699 8.93225h4.09041" stroke-width="1"></path>
  <path stroke="#092f63" stroke-linecap="round" stroke-linejoin="round" d="M6.88699 10.9774h6.13561" stroke-width="1"></path>
</svg>