<svg xmlns="http://www.w3.org/2000/svg" fill="none" viewBox="0 0 24 24" id="Smiley-Yawn--Streamline-Cyber">
  <desc>
    Smiley Yawn Streamline Icon: https://streamlinehq.com
  </desc>
  <path fill="#ffffff" d="M22.5 17.75 12 23.5 1.5 17.75V6.25L12 0.5l10.5 5.75v11.5Z" stroke-width="1"></path>
  <path fill="#bbd8ff" d="M20 16.5 12 21l-8 -4.5 -2.5 1.25L12 23.5l10.5 -5.75L20 16.5Z" stroke-width="1"></path>
  <path fill="#bbd8ff" d="M9.75 18.5 8 15.501 9.75 12.5h4.5L16 15.501 14.25 18.5h-4.5Z" stroke-width="1"></path>
  <path stroke="#092f63" stroke-linejoin="round" d="M22.5 17.75 12 23.5 1.5 17.75V6.25L12 0.5l10.5 5.75v11.5Z" stroke-width="1"></path>
  <path stroke="#092f63" stroke-linejoin="round" d="M9.75 18.5 8 15.501 9.75 12.5h4.5L16 15.501 14.25 18.5h-4.5Z" stroke-width="1"></path>
  <path stroke="#092f63" stroke-linecap="round" stroke-linejoin="round" d="m18 9.5 -4 -2" stroke-width="1"></path>
  <path stroke="#092f63" stroke-linecap="round" stroke-linejoin="round" d="m10 7.5 -4 2" stroke-width="1"></path>
</svg>