<svg xmlns="http://www.w3.org/2000/svg" fill="none" viewBox="0 0 24 24" id="Browser-Error--Streamline-Sharp">
  <desc>
    Browser Error Streamline Icon: https://streamlinehq.com
  </desc>
  <g id="browser-error--wireless-wifi-internet-server-network-browser-issue-connection">
    <path id="Union" fill="#000000" fill-rule="evenodd" d="M1 2h22v8.5h-2V7H3v13h10v2H1V2Zm18.5 12.4597c0.893 0.3408 1.7303 0.871 2.4499 1.5906l1.4142 -1.4143c-1.1148 -1.1148 -2.4493 -1.876 -3.8641 -2.2836v2.1073Zm-5 0.0001v-2.1073c-1.4147 0.4076 -2.7491 1.1688 -3.8638 2.2835l1.4142 1.4143c0.7195 -0.7196 1.5567 -1.2497 2.4496 -1.5905Zm0 1.084v2.3332c-0.1135 0.0911 -0.2232 0.1893 -0.3285 0.2946l-1.4143 -1.4142c0.5199 -0.5199 1.1114 -0.9244 1.7428 -1.2136Zm5 2.3333v-2.3332c0.6313 0.2892 1.2227 0.6937 1.7425 1.2135l-1.4142 1.4142c-0.1052 -0.1053 -0.2149 -0.2034 -0.3283 -0.2945ZM16 19v-7h2v7h-2Zm2 1h-2v2h2v-2Z" clip-rule="evenodd" stroke-width="1"></path>
  </g>
</svg>