<svg xmlns="http://www.w3.org/2000/svg" fill="none" viewBox="0 0 48 48" id="Bank-Check--Streamline-Kameleon">
  <desc>
    Bank Check Streamline Icon: https://streamlinehq.com
  </desc>
  <path fill="#deeeff" d="M23.9969 47.9997c13.255 0 23.9999 -10.7449 23.9999 -23.9998C47.9968 10.745 37.2519 0 23.9969 0 10.742 0 -0.00292969 10.745 -0.00292969 23.9999c0 13.2549 10.74492969 23.9998 23.99982969 23.9998Z" stroke-width="1"></path>
  <path fill="#2e3ecd" d="M37.9603 21.3818H10.0332v16.5818h27.9271V21.3818Z" stroke-width="1"></path>
  <path fill="#6bafff" fill-rule="evenodd" d="M23.518 26.3672c-0.1145 0.158 -0.2207 0.3219 -0.3181 0.4909 -0.1964 0.3417 -0.3915 0.765 -0.4722 1.1769 -0.0566 0.2964 -0.214 0.564 -0.4454 0.7577 -0.2314 0.1936 -0.5227 0.3013 -0.8244 0.3048h-0.0065c-0.5996 0.0031 -1.389 0.2357 -2.092 0.5106 -0.31 0.1218 -0.6154 0.2553 -0.9154 0.4001 -0.0614 0.0861 -0.131 0.166 -0.2078 0.2387 -0.1653 0.1575 -0.3665 0.2932 -0.5659 0.3953 -0.1955 0.1004 -0.4438 0.1964 -0.7087 0.2291 -0.2347 0.0288 -0.6698 0.0262 -1.0189 -0.3041l-0.0087 -0.0066 -0.0044 -0.003c-0.0647 -0.0472 -0.1258 -0.0991 -0.1828 -0.1554 -0.0755 -0.0763 -0.1309 -0.1527 -0.1527 -0.1819l-0.0031 -0.0044 -0.0061 -0.0087c-0.3404 -0.3631 -0.326 -0.8116 -0.2841 -1.0525 0.0459 -0.2662 0.158 -0.5088 0.2684 -0.6951 0.113 -0.1916 0.2575 -0.3801 0.418 -0.5324 0.0572 -0.055 0.1257 -0.1135 0.2043 -0.168l0.0314 -0.0689c0.0968 -0.2134 0.2264 -0.5132 0.356 -0.8575 0.2693 -0.7143 0.4992 -1.5185 0.5062 -2.1264v-0.0052c0.0049 -0.3019 0.114 -0.5928 0.3088 -0.8234 0.1949 -0.2307 0.4635 -0.3868 0.7603 -0.4421 0.4119 -0.0785 0.8365 -0.2714 1.1795 -0.466 0.1697 -0.0964 0.3343 -0.2015 0.4931 -0.3151l1.1917 -1.1851 4.1393 3.2653 -1.6398 1.6324Z" clip-rule="evenodd" stroke-width="1"></path>
  <path fill="#6bafff" d="M37.9603 21.3818H10.0332v3.4909h27.9271v-3.4909Z" stroke-width="1"></path>
  <path fill="#6bafff" d="M30.9785 28.1449c0 0.0579 -0.023 0.1134 -0.0639 0.1543 -0.0409 0.0409 -0.0964 0.0639 -0.1543 0.0639h-4.7999c-0.0579 0 -0.1134 -0.023 -0.1543 -0.0639 -0.0409 -0.0409 -0.0639 -0.0964 -0.0639 -0.1543 0 -0.0578 0.023 -0.1133 0.0639 -0.1542 0.0409 -0.041 0.0964 -0.0639 0.1543 -0.0639h4.7999c0.0579 0 0.1134 0.0229 0.1543 0.0639 0.0409 0.0409 0.0639 0.0964 0.0639 0.1542Z" stroke-width="1"></path>
  <path fill="#6bafff" d="M30.9785 29.8905c0 0.0579 -0.023 0.1134 -0.0639 0.1543 -0.0409 0.0409 -0.0964 0.0639 -0.1543 0.0639h-4.7999c-0.0579 0 -0.1134 -0.023 -0.1543 -0.0639 -0.0409 -0.0409 -0.0639 -0.0964 -0.0639 -0.1543 0 -0.0578 0.023 -0.1133 0.0639 -0.1542 0.0409 -0.041 0.0964 -0.0639 0.1543 -0.0639h4.7999c0.0579 0 0.1134 0.0229 0.1543 0.0639 0.0409 0.0409 0.0639 0.0964 0.0639 0.1542Z" stroke-width="1"></path>
  <path fill="#6bafff" d="M30.9785 31.6361c0 0.0579 -0.023 0.1134 -0.0639 0.1543 -0.0409 0.0409 -0.0964 0.0639 -0.1543 0.0639h-4.7999c-0.0579 0 -0.1134 -0.023 -0.1543 -0.0639 -0.0409 -0.0409 -0.0639 -0.0964 -0.0639 -0.1543 0 -0.0578 0.023 -0.1133 0.0639 -0.1542 0.0409 -0.0409 0.0964 -0.0639 0.1543 -0.0639h4.7999c0.0579 0 0.1134 0.023 0.1543 0.0639 0.0409 0.0409 0.0639 0.0964 0.0639 0.1542Z" stroke-width="1"></path>
  <path fill="#6bafff" d="M33.6777 27.0777c0.1515 0 0.271 0.1195 0.271 0.2714v0.1387c0.348 0.0394 0.6824 0.1579 0.9775 0.3465 0.1008 0.0567 0.1889 0.1514 0.1889 0.3028 0 0.0461 -0.0093 0.0916 -0.0271 0.1341 -0.0178 0.0424 -0.0439 0.0809 -0.0768 0.1131 -0.0329 0.0323 -0.0718 0.0577 -0.1146 0.0747 -0.0427 0.0171 -0.0885 0.0254 -0.1345 0.0246 -0.0672 -0.0011 -0.1327 -0.0207 -0.1894 -0.0567 -0.2208 -0.1322 -0.435 -0.2269 -0.6493 -0.2775v1.2104c0.9583 0.2396 1.3684 0.6245 1.3684 1.2991 0 0.6938 -0.5424 1.1542 -1.3431 1.2296v0.3784c0.0003 0.0356 -0.0065 0.071 -0.02 0.104 -0.0135 0.033 -0.0335 0.063 -0.0587 0.0882s-0.0552 0.0452 -0.0882 0.0587c-0.033 0.0135 -0.0684 0.0203 -0.1041 0.02 -0.0727 0.0009 -0.1428 -0.0272 -0.1948 -0.078 -0.052 -0.0508 -0.0818 -0.1202 -0.0827 -0.1929v-0.391c-0.4659 -0.0502 -0.911 -0.2196 -1.2925 -0.4918 -0.0525 -0.0311 -0.0958 -0.0754 -0.1257 -0.1286 -0.0299 -0.0531 -0.0452 -0.1132 -0.0445 -0.1742 0 -0.1955 0.1514 -0.3469 0.3469 -0.3469 0.0751 -0.0002 0.1482 0.0242 0.2082 0.0693 0.2963 0.2143 0.5864 0.3596 0.9334 0.4224v-1.2423c-0.9203 -0.2395 -1.3493 -0.5864 -1.3493 -1.299 0 -0.6746 0.5359 -1.1411 1.3244 -1.2044v-0.1322c0.0003 -0.0359 0.0078 -0.0715 0.0219 -0.1045 0.0141 -0.0331 0.0345 -0.0631 0.0602 -0.0882 0.0257 -0.0251 0.0562 -0.0449 0.0895 -0.0583 0.0334 -0.0134 0.0691 -0.02 0.105 -0.0195Zm-0.2526 2.1503v-1.1162c-0.4036 0.038 -0.6052 0.2523 -0.6052 0.5298 0 0.2648 0.12 0.4289 0.6052 0.5864Zm0.4983 0.8763v1.1476c0.4036 -0.0441 0.6244 -0.2457 0.6244 -0.5485 0 -0.2775 -0.1392 -0.4477 -0.6244 -0.5991Z" stroke-width="1"></path>
  <path fill="#6bafff" d="M26.6156 35.3449H22.252c-0.3666 0 -0.6533 -0.1048 -0.8536 -0.3107 -0.3735 -0.3844 -0.3556 -1.0071 -0.3403 -1.5565 0.0083 -0.2754 0.0192 -0.6524 -0.0637 -0.7379 -0.0044 -0.0039 -0.0131 -0.0131 -0.0515 -0.0131 -0.2461 0 -0.3509 0.6223 -0.4351 1.1219 -0.1182 0.7012 -0.2522 1.4963 -0.874 1.4963 -0.2562 0 -0.4495 -0.0821 -0.5751 -0.2448 -0.2728 -0.3522 -0.1178 -0.9535 0.0327 -1.5351 0.072 -0.2789 0.192 -0.7458 0.1287 -0.8422 -0.2225 0.0035 -0.3447 0.4023 -0.4726 0.8247 -0.2312 0.7584 -0.548 1.7974 -1.7323 1.7974 -0.2207 0.0037 -0.4389 -0.0461 -0.6362 -0.145 -0.1972 -0.0989 -0.3676 -0.2441 -0.4966 -0.4232 -0.6253 0.3369 -1.3152 0.5682 -1.9213 0.5682 -1.1415 0 -1.6525 -0.7048 -1.6525 -1.4034 0 -0.8923 0.7811 -1.8148 2.0889 -1.8148 0.0578 0 0.1133 0.023 0.1542 0.0639 0.041 0.0409 0.0639 0.0964 0.0639 0.1543 0 0.0579 -0.0229 0.1134 -0.0639 0.1543 -0.0409 0.0409 -0.0964 0.0639 -0.1542 0.0639 -1.0347 0 -1.6525 0.7008 -1.6525 1.3784 0 0.4674 0.3194 0.967 1.2161 0.967 0.5581 0 1.1681 -0.2121 1.7136 -0.5083 -0.0855 -0.2167 -0.1295 -0.4474 -0.1296 -0.6803 0 -0.3897 0.1222 -0.7501 0.3438 -1.0154 0.2571 -0.3077 0.628 -0.4704 1.0726 -0.4704 0.2435 0 0.4276 0.0427 0.5642 0.1313 0.1528 0.0995 0.2374 0.2557 0.2374 0.4399 0 0.5005 -0.6515 1.2091 -1.5037 1.7506 0.0908 0.1127 0.2061 0.203 0.3372 0.2641 0.1311 0.0611 0.2744 0.0914 0.419 0.0885 0.7994 0 1.0486 -0.6166 1.3143 -1.488 0.1694 -0.5555 0.3439 -1.1302 0.8675 -1.1302 0.1981 0 0.3094 0.0904 0.3683 0.1659 0.1973 0.2548 0.0821 0.7012 -0.0523 1.2183 -0.1061 0.4115 -0.2518 0.9753 -0.11 1.1585 0.0144 0.0188 0.0585 0.0755 0.2304 0.0755 0.2531 0 0.3587 -0.6279 0.4438 -1.1323 0.1174 -0.6965 0.25 -1.4859 0.8653 -1.4859 0.1841 0 0.2998 0.079 0.3639 0.1454 0.2116 0.2177 0.2003 0.6052 0.1876 1.0546 -0.0131 0.463 -0.0279 0.9875 0.2169 1.2397 0.117 0.12 0.2937 0.1785 0.5407 0.1785h4.3636c0.0578 0 0.1133 0.023 0.1543 0.0639 0.0409 0.0409 0.0639 0.0964 0.0639 0.1543 0 0.0579 -0.023 0.1134 -0.0639 0.1543 -0.041 0.0409 -0.0965 0.0639 -0.1543 0.0639ZM16.9615 32.67c-0.3155 0 -0.5638 0.1056 -0.7379 0.3137 -0.1562 0.1868 -0.2422 0.4482 -0.2422 0.7357 0 0.1549 0.0245 0.3103 0.0729 0.4552 0.7322 -0.4744 1.2729 -1.0591 1.2729 -1.3698 0 -0.0371 -0.0092 -0.0545 -0.0393 -0.0737 -0.0349 -0.0227 -0.1239 -0.0611 -0.3264 -0.0611Z" stroke-width="1"></path>
  <path fill="#2e3ecd" d="M31.0387 11.7361c0.2231 -0.2508 0.4952 -0.4533 0.7994 -0.595 0.3043 -0.1418 0.6344 -0.2197 0.9699 -0.229 0.3355 -0.0094 0.6694 0.0501 0.9811 0.1747 0.3117 0.1245 0.5946 0.3116 0.8312 0.5496 0.2367 0.238 0.4222 0.5219 0.545 0.8343 0.1228 0.3124 0.1803 0.6466 0.1691 0.9821 -0.0113 0.3355 -0.091 0.6651 -0.2345 0.9686 -0.1434 0.3034 -0.3474 0.5743 -0.5995 0.796l-11.0242 9.9621 -2.4616 -2.4755 10.0241 -10.9679Z" stroke-width="1"></path>
  <path fill="#2e3ecd" d="m20.3965 23.3192 2.4611 2.4759 0.6192 -0.6153 -2.4616 -2.4755 -0.6187 0.6153v-0.0004Z" stroke-width="1"></path>
  <path fill="#2e3ecd" d="M17.9575 24.7163c-0.0166 1.5364 -1.1114 3.6969 -1.1114 3.6969 -0.2828 -0.0009 -0.9129 0.9076 -0.6179 1.2043 0.0502 0.0507 0.0829 0.1144 0.1383 0.1702 0.0554 0.0559 0.1191 0.089 0.1693 0.1392 0.295 0.2967 1.2515 -0.2701 1.2524 -0.5659 0 0 2.1216 -1.1276 3.6584 -1.1359 0.1007 -0.0009 0.1979 -0.0367 0.2751 -0.1012 0.0773 -0.0645 0.1298 -0.1538 0.1486 -0.2527 0.213 -1.0918 0.9871 -2.0766 0.9871 -2.0766l-2.4615 -2.4755s-0.9897 0.7684 -2.0824 0.9753c-0.0989 0.0184 -0.1884 0.0705 -0.2533 0.1474 -0.0649 0.0769 -0.1012 0.1739 -0.1027 0.2745Z" stroke-width="1"></path>
  <path fill="#2e3ecd" d="M34.6274 11.6381c-0.2369 -0.2386 -0.5202 -0.426 -0.8325 -0.5505 -0.3122 -0.1245 -0.6468 -0.1835 -0.9828 -0.1734 -0.3356 0.0105 -0.6655 0.0891 -0.9698 0.231 -0.3043 0.1418 -0.5767 0.3439 -0.8005 0.5942l-0.7034 0.7701c-0.233 -0.1783 -0.5083 -0.2929 -0.799 -0.3325 -0.6065 -0.0763 -1.2227 0.1916 -1.831 0.7968 -0.9661 0.9609 -3.226 3.5284 -3.3216 3.6375 -0.0043 0.0048 -0.0052 0.0114 -0.0096 0.0166 -0.0279 0.0384 -0.0519 0.0786 -0.0707 0.1209 -0.0008 0.0026 -0.003 0.0048 -0.0039 0.0074 -0.0449 0.1036 -0.0625 0.2169 -0.0512 0.3292 0.0112 0.1123 0.051 0.2198 0.1156 0.3124 0.0646 0.0926 0.1518 0.1671 0.2533 0.2164 0.1015 0.0494 0.2139 0.072 0.3266 0.0656 0.1127 -0.0064 0.2219 -0.0415 0.3172 -0.102 0.0953 -0.0605 0.1735 -0.1443 0.2272 -0.2436 0.0538 -0.0992 0.0812 -0.2106 0.0797 -0.3235 -0.0014 -0.1128 -0.0317 -0.2234 -0.088 -0.3213 0.7217 -0.8133 1.8637 -2.125 2.5571 -2.8145 0.4053 -0.4032 0.7762 -0.5886 1.1009 -0.5502 0.1283 0.0152 0.2396 0.0663 0.336 0.1278l-1.3846 1.5155 3.1689 3.1872 3.2452 -2.9315c0.2515 -0.2224 0.4552 -0.4936 0.5987 -0.7971 0.1436 -0.3034 0.224 -0.6329 0.2365 -0.9684 0.0119 -0.3361 -0.0454 -0.6711 -0.1682 -0.9842 -0.1229 -0.3131 -0.3088 -0.5976 -0.5461 -0.8359Z" stroke-width="1"></path>
</svg>