<svg xmlns="http://www.w3.org/2000/svg" fill="none" viewBox="0 0 48 48" id="Drawer-2--Streamline-Kameleon">
  <desc>
    Drawer 2 Streamline Icon: https://streamlinehq.com
  </desc>
  <path fill="#deeeff" d="M23.9989 47.9983c13.2548 0 23.9999 -10.7451 23.9999 -23.9999S37.2537 -0.00146484 23.9989 -0.00146484 -0.000976562 10.7436 -0.000976562 23.9984c0 13.2548 10.745076562 23.9999 23.999876562 23.9999Z" stroke-width="1"></path>
  <path fill="#2e3ecd" d="M36.2175 12.6528H11.7812v20.0727h24.4363V12.6528Z" stroke-width="1"></path>
  <path fill="#6bafff" d="M34.0355 14.3984H13.9629v4.3637h20.0726v-4.3637Z" stroke-width="1"></path>
  <path fill="#6bafff" d="M34.0355 20.5078H13.9629v4.3636h20.0726v-4.3636Z" stroke-width="1"></path>
  <path fill="#2e3ecd" d="M37.9623 32.7256H10.0352v5.2363h1.7454v-1.7454h1.7454c0.964 0 1.7455 -0.7815 1.7455 -1.7455h17.4544c0 0.964 0.7816 1.7455 1.7455 1.7455h1.7454v1.7454h1.7455v-5.2363Z" stroke-width="1"></path>
  <path fill="#6bafff" d="M34.0355 26.6165H13.9629v4.3636h20.0726v-4.3636Z" stroke-width="1"></path>
  <path fill="#2e3ecd" d="M37.9623 10.4712H10.0352v2.1818h27.9271v-2.1818Z" stroke-width="1"></path>
  <path fill="#2e3ecd" d="M29.6711 29.6702c0.4818 0 0.8724 -0.3906 0.8724 -0.8723 0 -0.4818 -0.3906 -0.8724 -0.8724 -0.8724 -0.4817 0 -0.8723 0.3906 -0.8723 0.8724 0 0.4817 0.3906 0.8723 0.8723 0.8723Z" stroke-width="1"></path>
  <path fill="#2e3ecd" d="M18.762 29.6702c0.4817 0 0.8723 -0.3906 0.8723 -0.8723 0 -0.4818 -0.3906 -0.8724 -0.8723 -0.8724 -0.4818 0 -0.8724 0.3906 -0.8724 0.8724 0 0.4817 0.3906 0.8723 0.8724 0.8723Z" stroke-width="1"></path>
  <path fill="#2e3ecd" d="M29.6711 23.561c0.4818 0 0.8724 -0.3905 0.8724 -0.8723 0 -0.4818 -0.3906 -0.8723 -0.8724 -0.8723 -0.4817 0 -0.8723 0.3905 -0.8723 0.8723 0 0.4818 0.3906 0.8723 0.8723 0.8723Z" stroke-width="1"></path>
  <path fill="#2e3ecd" d="M18.762 23.561c0.4817 0 0.8723 -0.3905 0.8723 -0.8723 0 -0.4818 -0.3906 -0.8723 -0.8723 -0.8723 -0.4818 0 -0.8724 0.3905 -0.8724 0.8723 0 0.4818 0.3906 0.8723 0.8724 0.8723Z" stroke-width="1"></path>
  <path fill="#2e3ecd" d="M29.6711 17.4524c0.4818 0 0.8724 -0.3905 0.8724 -0.8723 0 -0.4818 -0.3906 -0.8723 -0.8724 -0.8723 -0.4817 0 -0.8723 0.3905 -0.8723 0.8723 0 0.4818 0.3906 0.8723 0.8723 0.8723Z" stroke-width="1"></path>
  <path fill="#2e3ecd" d="M18.762 17.4524c0.4817 0 0.8723 -0.3905 0.8723 -0.8723 0 -0.4818 -0.3906 -0.8723 -0.8723 -0.8723 -0.4818 0 -0.8724 0.3905 -0.8724 0.8723 0 0.4818 0.3906 0.8723 0.8724 0.8723Z" stroke-width="1"></path>
</svg>