<svg xmlns="http://www.w3.org/2000/svg" fill="none" viewBox="0 0 48 48" id="Bus--Streamline-Plump">
  <desc>
    Bus Streamline Icon: https://streamlinehq.com
  </desc>
  <g id="bus--transportation-travel-bus-transit-transport-motorcoach-public">
    <path id="Union" fill="#79ee8d" d="M37.831 39.8518c1.8976 -0.092 3.3786 -1.5872 3.4629 -3.4872 0.11 -2.48 0.2346 -6.3977 0.2686 -11.8644h0.4989c1.2878 0 2.3323 -0.8661 2.392 -2.1539 0.0277 -0.5991 0.0466 -1.351 0.0466 -2.2883 0 -1.116 -0.0267 -2.0567 -0.0634 -2.8223 -0.0694 -1.4465 -1.2763 -2.5083 -2.7229 -2.5083h-0.2364c-0.081 -2.789 -0.2041 -5.00057 -0.3269 -6.67949 -0.1826 -2.49782 -2.0737 -4.42202 -4.5676 -4.62006C33.8602 3.21165 29.7313 3 24 3c-5.7313 0 -9.8602 0.21165 -12.5828 0.42786 -2.49391 0.19803 -4.38496 2.12223 -4.56761 4.62005 -0.12277 1.67892 -0.24584 3.89049 -0.32693 6.67949H6.2863c-1.44662 0 -2.65355 1.0618 -2.72287 2.5083C3.52674 18.0013 3.5 18.942 3.5 20.058c0 0.9373 0.01886 1.6892 0.04664 2.2883 0.05971 1.2878 1.10415 2.1539 2.39192 2.1539h0.49896c0.03396 5.4667 0.15855 9.3844 0.26855 11.8644 0.08428 1.9 1.56534 3.3952 3.46293 3.4872 2.7655 0.1341 7.323 0.2849 13.831 0.2849 6.508 0 11.0655 -0.1508 13.831 -0.2849Z" stroke-width="1"></path>
    <path id="Union_2" fill="#0c098c" fill-rule="evenodd" d="M24 5c-5.6822 0 -9.7581 0.20985 -12.4245 0.42158 -1.4974 0.11891 -2.61971 1.24704 -2.73124 2.77219 -0.12054 1.6485 -0.24217 3.83083 -0.32245 6.59173 -0.03144 1.0815 -0.91722 1.9419 -1.99915 1.9419H6.2863c-0.46871 0 -0.71111 0.3107 -0.72516 0.6041C5.52597 18.0651 5.5 18.974 5.5 20.058c0 0.9109 0.01834 1.6316 0.04449 2.1957 0.00276 0.0593 0.01501 0.0903 0.0216 0.104 0.00706 0.0147 0.01749 0.0297 0.03625 0.0462 0.03669 0.0322 0.13987 0.0963 0.33622 0.0963h0.49896c1.09972 0 1.99313 0.8879 1.99996 1.9876 0.03381 5.4422 0.15779 9.3345 0.26663 11.7882 0.03881 0.8748 0.70228 1.5365 1.56169 1.5782 2.7319 0.1324 7.2571 0.2825 13.7342 0.2825 6.4771 0 11.0023 -0.1501 13.7342 -0.2825 0.8594 -0.0417 1.5229 -0.7034 1.5617 -1.5782 0.1088 -2.4537 0.2328 -6.346 0.2666 -11.7882 0.0069 -1.0997 0.9003 -1.9876 2 -1.9876h0.4989c0.1964 0 0.2996 -0.0641 0.3363 -0.0963 0.0187 -0.0165 0.0291 -0.0315 0.0362 -0.0462 0.0066 -0.0137 0.0189 -0.0446 0.0216 -0.104 0.0262 -0.5641 0.0445 -1.2848 0.0445 -2.1957 0 -1.084 -0.026 -1.9929 -0.0611 -2.7265 -0.0141 -0.2934 -0.2565 -0.6041 -0.7252 -0.6041h-0.2364c-1.0819 0 -1.9677 -0.8604 -1.9991 -1.9419 -0.0803 -2.7609 -0.2019 -4.94323 -0.3225 -6.59173 -0.1115 -1.52515 -1.2338 -2.65328 -2.7312 -2.77219C33.7581 5.20984 29.6821 5 24 5ZM11.2589 1.43413C14.0377 1.21346 18.2196 1 24 1c5.7804 0 9.9623 0.21346 12.7411 0.43413 3.4904 0.27716 6.1502 2.99743 6.404 6.46792 0.0998 1.36534 0.1994 3.06975 0.2771 5.13605 1.6564 0.6238 2.918 2.1384 3.0121 4.1019 0.0382 0.7974 0.0657 1.7701 0.0657 2.918 0 0.9637 -0.0194 1.7468 -0.0488 2.3809 -0.0892 1.9236 -1.3332 3.2887 -2.9031 3.818 -0.047 4.5912 -0.1571 7.9638 -0.2561 10.1963 -0.126 2.8403 -2.2968 5.1183 -5.1101 5.3784 -0.0043 1.2064 -0.0434 2.1933 -0.087 2.929 -0.0672 1.1341 -0.9449 2.0289 -2.0759 2.1214 -0.7536 0.0617 -1.721 0.1183 -2.7345 0.1183 -1.0136 0 -1.9809 -0.0566 -2.7345 -0.1183 -1.131 -0.0925 -2.0087 -0.9873 -2.0759 -2.1214 -0.0401 -0.6778 -0.0765 -1.5686 -0.0854 -2.6479 -1.3512 0.0152 -2.8134 0.024 -4.3887 0.024 -1.5751 0 -3.037 -0.0088 -4.3881 -0.024 -0.0088 1.0793 -0.0452 1.9701 -0.0854 2.6479 -0.0672 1.1341 -0.9449 2.0289 -2.0759 2.1214 -0.7536 0.0617 -1.7209 0.1183 -2.7345 0.1183 -1.0135 0 -1.9808 -0.0566 -2.7345 -0.1183 -1.131 -0.0925 -2.00868 -0.9873 -2.07586 -2.1214 -0.04358 -0.7357 -0.08273 -1.7226 -0.087 -2.9289 -2.81362 -0.2599 -4.9847 -2.5379 -5.1107 -5.3785 -0.09903 -2.2325 -0.20918 -5.6051 -0.25618 -10.1963 -1.56986 -0.5293 -2.81389 -1.8944 -2.90307 -3.818C1.51939 21.8048 1.5 21.0217 1.5 20.058c0 -1.1479 0.02751 -2.1206 0.06572 -2.918 0.0941 -1.9635 1.35569 -3.4781 3.01207 -4.1018 0.07775 -2.0664 0.17728 -3.77081 0.27712 -5.13615 0.25378 -3.47049 2.91361 -6.19075 6.40399 -6.46792Zm1.967 6.42411c1.7662 -0.1949 5.2465 -0.47152 10.7737 -0.47152s9.0074 0.27662 10.7736 0.47152c1.0668 0.11772 1.8804 0.95102 1.9837 2.0151 0.1809 1.86306 0.4473 5.63516 0.4473 11.69536 0 2.7113 -0.0295 4.989 -0.071 6.8521 -0.006 0.2717 -0.228 0.4888 -0.4998 0.4888H11.3658c-0.2718 0 -0.4938 -0.2171 -0.4999 -0.4888 -0.0415 -1.8631 -0.071 -4.1408 -0.071 -6.8521 0 -6.0602 0.2664 -9.8323 0.4474 -11.69536 0.1033 -1.06407 0.9169 -1.89738 1.9836 -2.0151Zm-0.9984 26.41516c0 -1.1045 0.8955 -2 2 -2h2.9319c1.1046 0 2 0.8955 2 2 0 1.1046 -0.8954 2 -2 2h-2.9319c-1.1045 0 -2 -0.8954 -2 -2Zm21.545 -2c1.1045 0 2 0.8955 2 2 0 1.1046 -0.8955 2 -2 2h-2.9319c-1.1046 0 -2 -0.8954 -2 -2 0 -1.1045 0.8954 -2 2 -2h2.9319Z" clip-rule="evenodd" stroke-width="1"></path>
  </g>
</svg>