<svg xmlns="http://www.w3.org/2000/svg" fill="none" viewBox="0 0 48 48" id="Navigation-Arrow-Off--Streamline-Plump">
  <desc>
    Navigation Arrow Off Streamline Icon: https://streamlinehq.com
  </desc>
  <g id="navigation-arrow-off--compass-arrow-map-bearing-navigation-maps-heading-gps-off-disable">
    <path id="Subtract" fill="#fddc5c" d="M34.528 34.5379c3.6172 -8.2925 7.3775 -19.536 8.4547 -28.01392 0.1498 -1.1792 -0.8326 -2.16046 -2.0131 -2.0108 -8.4876 1.07599 -19.7438 4.83194 -28.0458 8.44512L34.528 34.5379Z" stroke-width="1"></path>
    <path id="Union" fill="#0c098c" fill-rule="evenodd" d="M3.91421 1.08579c-0.78105 -0.781052 -2.04738 -0.781052 -2.82842 0 -0.781052 0.78104 -0.781052 2.04737 0 2.82842L44.0858 46.9142c0.781 0.7811 2.0474 0.7811 2.8284 0 0.7811 -0.781 0.7811 -2.0474 0 -2.8284L36.9047 34.0763c3.4842 -8.2373 7.0068 -18.986 8.063 -27.29828 0.315 -2.47917 -1.7742 -4.56069 -4.2487 -4.247 -8.3158 1.05421 -19.068 4.56894 -27.3125 8.04708L3.91421 1.08579ZM16.4678 13.6393l7.2703 7.2704L37.5507 7.0974c-6.6853 1.30285 -14.5112 3.8677 -21.0829 6.5419Zm10.0988 10.0988 7.278 7.2781c2.686 -6.5826 5.2625 -14.4279 6.5651 -21.12096L26.5666 23.7381ZM8.67107 14.3003c-0.31583 -0.3158 -0.80278 -0.3839 -1.19311 -0.1668l-4.20349 2.3377c-0.0176 0.0098 -0.0349 0.0201 -0.05187 0.0309 -0.88829 0.5668 -1.29792 1.4951 -1.21237 2.4174 0.08368 0.9023 0.63106 1.7334 1.4983 2.2088L18.599 29.4009l8.2733 15.089c0.4755 0.8672 1.3066 1.4145 2.2089 1.4982 0.9223 0.0855 1.8506 -0.324 2.4174 -1.2122 0.0109 -0.017 0.0212 -0.0343 0.031 -0.0519l2.3379 -4.2031c0.2171 -0.3904 0.1491 -0.8774 -0.1668 -1.1933L8.67107 14.3003Z" clip-rule="evenodd" stroke-width="1"></path>
  </g>
</svg>