<svg xmlns="http://www.w3.org/2000/svg" fill="none" viewBox="0 0 16 16" id="Furniture--Streamline-Block-Free">
  <desc>
    Furniture Streamline Icon: https://streamlinehq.com
  </desc>
  <path fill="#000000" d="M4 9c0 -1.10457 -0.89543 -2 -2 -2 -1.104569 0 -2 0.89543 -2 2 0 1.1046 0.895431 2 2 2v5h12v-5c1.1046 0 2 -0.8954 2 -2 0 -1.10457 -0.8954 -2 -2 -2s-2 0.89543 -2 2v2H4V9Z" stroke-width="1"></path>
  <path fill="#000000" d="M5.5 9c0 -1.92615 -1.55592 -3.48889 -3.47947 -3.49994C2.27458 2.42027 4.85465 0 8 0c3.1454 0 5.7254 2.42027 5.9795 5.50006C12.0559 5.51111 10.5 7.07385 10.5 9v0.5h-5V9Z" stroke-width="1"></path>
</svg>