<svg xmlns="http://www.w3.org/2000/svg" fill="none" viewBox="0 0 24 24" id="Businessman--Streamline-Cyber">
  <desc>
    Businessman Streamline Icon: https://streamlinehq.com
  </desc>
  <path fill="#ffffff" d="M6.11997 13.96 12 16.41l5.88 -2.45V12l1.96 -0.98V8.57h-1.96V3.18L12 0.73 6.11997 3.278V8.57h-1.96v2.45l1.96 0.98v1.96Z" stroke-width="1"></path>
  <path fill="#ffffff" d="M21.8 19.35 12 17.39l-9.80003 1.96 -0.98 3.92H22.78l-0.98 -3.92Z" stroke-width="1"></path>
  <path fill="#bbd8ff" d="M6.12 5.238V8.57l2.44999 -1.96 2.94001 0.98h6.37V5.14L12 2.69 6.12 5.238Z" stroke-width="1"></path>
  <path fill="#bbd8ff" d="m12 21.31 -1.47 -1.96L12 17.39l1.47 1.96L12 21.31Z" stroke-width="1"></path>
  <path fill="#bbd8ff" d="M13.47 23.27 12 21.31l-1.47 1.96" stroke-width="1"></path>
  <path stroke="#092f63" stroke-linecap="round" stroke-linejoin="round" stroke-miterlimit="10" d="M17.88 8.57h1.96v2.45l-1.96 0.98" stroke-width="1"></path>
  <path stroke="#092f63" stroke-linecap="round" stroke-linejoin="round" stroke-miterlimit="10" d="m12 21.31 -1.47 -1.96L12 17.39l1.47 1.96L12 21.31Z" stroke-width="1"></path>
  <path stroke="#092f63" stroke-linecap="round" stroke-linejoin="round" stroke-miterlimit="10" d="M13.47 23.27 12 21.31l-1.47 1.96" stroke-width="1"></path>
  <path stroke="#092f63" stroke-linecap="round" stroke-linejoin="round" stroke-miterlimit="10" d="M15.92 22.29h2.94" stroke-width="1"></path>
  <path stroke="#092f63" stroke-linecap="round" stroke-linejoin="round" stroke-miterlimit="10" d="M17.88 7.59v6.37L12 16.41l-5.88 -2.45V8.57" stroke-width="1"></path>
  <path stroke="#092f63" stroke-linecap="round" stroke-linejoin="round" stroke-miterlimit="10" d="M6.11997 8.57h-1.96v2.45l1.96 0.98" stroke-width="1"></path>
  <path stroke="#092f63" stroke-linecap="round" stroke-linejoin="round" stroke-miterlimit="10" d="M10.04 9.55v0.98" stroke-width="1"></path>
  <path stroke="#092f63" stroke-linecap="round" stroke-linejoin="round" stroke-miterlimit="10" d="M13.96 9.55v0.98" stroke-width="1"></path>
  <path stroke="#092f63" stroke-linecap="round" stroke-linejoin="round" stroke-miterlimit="10" d="m10.53 12.98 1.47 0.49 1.47 -0.49" stroke-width="1"></path>
  <path stroke="#092f63" stroke-linecap="round" stroke-linejoin="round" stroke-miterlimit="10" d="m22.78 23.27 -0.98 -3.92 -9.8 -1.96 -9.80003 1.96 -0.98 3.92" stroke-width="1"></path>
  <path stroke="#092f63" stroke-linecap="round" stroke-linejoin="round" stroke-miterlimit="10" d="M8.56999 6.61 6.12 8.57V3.278L12 0.73l5.88 2.45v4.41h-6.37l-2.94001 -0.98Z" stroke-width="1"></path>
</svg>