<svg xmlns="http://www.w3.org/2000/svg" fill="none" viewBox="0 0 24 24" id="Charlie-Chaplin--Streamline-Cyber">
  <desc>
    Charlie Chaplin Streamline Icon: https://streamlinehq.com
  </desc>
  <path fill="#ffffff" d="M19.84 11.51V3.67L12 0.730003 4.15995 3.67v7.84h-1.96v3.92l1.96 0.98v3.43L12 23.27l7.84 -3.43v-3.43l1.9599 -0.98v-3.92H19.84Z" stroke-width="1"></path>
  <path fill="#bbd8ff" d="M4.16003 5.63v2.94H19.84V5.63L12 2.69 4.16003 5.63Z" stroke-width="1"></path>
  <path fill="#bbd8ff" d="M11.02 16.41h1.96l1.47 2.94H9.55005L11.02 16.41Z" stroke-width="1"></path>
  <path stroke="#092f63" stroke-linecap="round" stroke-linejoin="round" stroke-miterlimit="10" d="M11.02 16.41h1.96l1.47 2.94H9.55005L11.02 16.41Z" stroke-width="1"></path>
  <path stroke="#092f63" stroke-linecap="round" stroke-linejoin="round" stroke-miterlimit="10" d="M7.09998 10.53H10.04" stroke-width="1"></path>
  <path stroke="#092f63" stroke-linecap="round" stroke-linejoin="round" stroke-miterlimit="10" d="m13.47 11.02 1.47 -0.98 1.47 0.98" stroke-width="1"></path>
  <path stroke="#092f63" stroke-linecap="round" stroke-linejoin="round" stroke-miterlimit="10" d="M4.15995 11.51h-1.96v3.92l1.96 0.98" stroke-width="1"></path>
  <path stroke="#092f63" stroke-linecap="round" stroke-linejoin="round" stroke-miterlimit="10" d="M19.84 11.51h1.96v3.92l-1.96 0.98" stroke-width="1"></path>
  <path stroke="#092f63" stroke-linecap="round" stroke-linejoin="round" stroke-miterlimit="10" d="M14.9399 12.49v0.98" stroke-width="1"></path>
  <path stroke="#092f63" stroke-linecap="round" stroke-linejoin="round" stroke-miterlimit="10" d="M9.06006 12.49v0.98" stroke-width="1"></path>
  <path stroke="#092f63" stroke-linecap="round" stroke-linejoin="round" stroke-miterlimit="10" d="M1.21997 8.57H22.78" stroke-width="1"></path>
  <path stroke="#092f63" stroke-linecap="round" stroke-linejoin="round" stroke-miterlimit="10" d="M19.84 19.84 12 23.27l-7.83997 -3.43V3.67L12 0.730003 19.84 3.67v16.17Z" stroke-width="1"></path>
</svg>