<svg xmlns="http://www.w3.org/2000/svg" fill="none" viewBox="0 0 24 24" id="Group-Refresh--Streamline-Cyber">
  <desc>
    Group Refresh Streamline Icon: https://streamlinehq.com
  </desc>
  <path fill="#ffffff" d="m10.5 9.75 2 -0.75 4 1.5v2H12v9h-1.5V9.75Z" stroke-width="1"></path>
  <path fill="#ffffff" d="m15.5 6.5 -3 1.5 -3 -1.5v-4l3 -1.5 3 1.5v4Z" stroke-width="1"></path>
  <path fill="#ffffff" d="M6.5 21.5v-6h2v-5L4.5 9l-4 1.5v5h2v6h4Z" stroke-width="1"></path>
  <path fill="#ffffff" d="M7.5 6.5 4.5 8l-3 -1.5v-4l3 -1.5 3 1.5v4Z" stroke-width="1"></path>
  <path fill="#bbd8ff" d="M12 16h-1.5v5.5H12V16Z" stroke-width="1"></path>
  <path fill="#bbd8ff" d="M6.5 16h-4v5.5h4V16Z" stroke-width="1"></path>
  <path fill="#bbd8ff" d="M7.5 3.5h-4l-2 -1 3 -1.5 3 1.5v1Z" stroke-width="1"></path>
  <path fill="#bbd8ff" d="M15.5 3.5h-4l-2 -1 3 -1.5 3 1.5v1Z" stroke-width="1"></path>
  <path stroke="#092f63" stroke-linecap="round" stroke-linejoin="round" d="M7.5 3.5h-4l-2 -1 3 -1.5 3 1.5v1Z" stroke-width="1"></path>
  <path stroke="#092f63" stroke-linecap="round" stroke-linejoin="round" d="M15.5 3.5h-4l-2 -1 3 -1.5 3 1.5v1Z" stroke-width="1"></path>
  <path stroke="#092f63" stroke-linecap="round" stroke-linejoin="round" d="m10.5 9.75 2 -0.75 4 1.5v2" stroke-width="1"></path>
  <path stroke="#092f63" stroke-linecap="round" stroke-linejoin="round" d="M10.5 15.5v6H12" stroke-width="1"></path>
  <path stroke="#092f63" stroke-linecap="round" stroke-linejoin="round" d="M12.5 11.5v2" stroke-width="1"></path>
  <path stroke="#092f63" stroke-linecap="round" stroke-linejoin="round" d="m15.5 6.5 -3 1.5 -3 -1.5v-4l3 -1.5 3 1.5v4Z" stroke-width="1"></path>
  <path stroke="#092f63" stroke-linecap="round" stroke-linejoin="round" d="M15.5 3.5h-4l-2 -1" stroke-width="1"></path>
  <path stroke="#092f63" stroke-linecap="round" stroke-linejoin="round" d="M6.5 21.5v-6h2v-5L4.5 9l-4 1.5v5h2v6h4Z" stroke-width="1"></path>
  <path stroke="#092f63" stroke-linecap="round" stroke-linejoin="round" d="M4.5 11.5v3" stroke-width="1"></path>
  <path stroke="#092f63" stroke-linecap="round" stroke-linejoin="round" d="M7.5 6.5 4.5 8l-3 -1.5v-4l3 -1.5 3 1.5v4Z" stroke-width="1"></path>
  <path stroke="#092f63" stroke-linecap="round" stroke-linejoin="round" d="M7.5 3.5h-4l-2 -1" stroke-width="1"></path>
  <path stroke="#092f63" stroke-linecap="round" stroke-linejoin="round" d="m21.5 20.506 -3 2.994 -5 -5" stroke-width="1"></path>
  <path stroke="#092f63" stroke-linecap="round" stroke-linejoin="round" d="m15.5 16.506 3 -3.006 5 5.006" stroke-width="1"></path>
  <path stroke="#092f63" stroke-linecap="round" stroke-linejoin="round" d="M13.5 21.5v-3h3" stroke-width="1"></path>
  <path stroke="#092f63" stroke-linecap="round" stroke-linejoin="round" d="M23.5 15.5v3h-3" stroke-width="1"></path>
</svg>