<svg xmlns="http://www.w3.org/2000/svg" fill="none" viewBox="0 0 24 24" id="Night-Mode--Streamline-Cyber">
  <desc>
    Night Mode Streamline Icon: https://streamlinehq.com
  </desc>
  <path fill="#ffffff" d="m4.33038 10.9774 2.5249 2.0452h4.63342" stroke-width="1"></path>
  <path fill="#ffffff" d="M14.5565 20.1809v3.0678H1.26257v-3.0678l6.647 -1.5339 6.64693 1.5339Z" stroke-width="1"></path>
  <path fill="#ffffff" d="m11.4887 15.5791 -3.57912 2.0453 -3.5792 -2.0453v-4.6017l3.5792 -2.04519 3.57912 2.04519v4.6017Z" stroke-width="1"></path>
  <path fill="#bbd8ff" d="m7.90958 8.93221 3.57912 2.04519v2.0452H6.85528l-2.5249 -2.0452 3.5792 -2.04519Z" stroke-width="1"></path>
  <path fill="#bbd8ff" d="M18.5232 5.0013 15.7734 0.751297 20.773 1.823l1.9644 3.0351 -1.0717 4.9995 -3.0351 1.9645 -4.9995 -1.0717 4.2499 -2.7498 0.6422 -2.9993Z" stroke-width="1"></path>
  <path stroke="#092f63" stroke-linecap="round" stroke-linejoin="round" d="M18.5232 5.0013 15.7734 0.751297 20.773 1.823l1.9644 3.0351 -1.0717 4.9995 -3.0351 1.9645 -4.9995 -1.0717 4.2499 -2.7498 0.6422 -2.9993Z" stroke-width="1"></path>
  <path stroke="#092f63" stroke-linecap="round" stroke-linejoin="round" d="m4.33038 10.9774 2.5249 2.0452h4.63342" stroke-width="1"></path>
  <path stroke="#092f63" stroke-linecap="round" stroke-linejoin="round" d="M14.5565 20.1809v3.0678H1.26257v-3.0678l6.647 -1.5339 6.64693 1.5339Z" stroke-width="1"></path>
  <path stroke="#092f63" stroke-linecap="round" stroke-linejoin="round" d="m11.4887 15.5791 -3.57912 2.0453 -3.5792 -2.0453v-4.6017l3.5792 -2.04519 3.57912 2.04519v4.6017Z" stroke-width="1"></path>
</svg>