<svg xmlns="http://www.w3.org/2000/svg" fill="none" viewBox="0 0 24 24" id="Police--Streamline-Cyber">
  <desc>
    Police Streamline Icon: https://streamlinehq.com
  </desc>
  <path fill="#ffffff" d="m21.8 20.3299 -9.8 -1.96 -9.80003 1.96 -0.98 2.94H22.7799l-0.9799 -2.94Z" stroke-width="1"></path>
  <path fill="#ffffff" d="M6.12 8.57v0.98H4.16V12l1.96 0.98v1.9599l5.88 2.45 5.88 -2.45V12.98l1.96 -0.98V9.55h-1.96v-0.98l0.49 -1.96 2.94 -1.47 -2.45 -2.45L12 0.729996 5.14 2.69 2.69 5.14l2.94 1.47 0.49 1.96Z" stroke-width="1"></path>
  <path fill="#bbd8ff" d="M18.37 6.61H12v3.43l5.88 -1.47 0.49 -1.96Z" stroke-width="1"></path>
  <path fill="#bbd8ff" d="M13.372 21.2119 12 18.3699l-1.372 2.842L12 23.2699l1.372 -2.058Z" stroke-width="1"></path>
  <path fill="#bbd8ff" d="m18.468 4.64999 -5.488 -1.666v1.176l-0.98 0.98 -0.98 -0.98v-1.176l-5.488 1.666 -1.274 1.274 1.372 0.686h12.74l1.372 -0.686 -1.274 -1.274Z" stroke-width="1"></path>
  <path stroke="#092f63" stroke-linecap="round" stroke-linejoin="round" stroke-miterlimit="10" d="M17.88 8.57001v6.36989l-5.88 2.45 -5.88 -2.45V8.57001" stroke-width="1"></path>
  <path stroke="#092f63" stroke-linecap="round" stroke-linejoin="round" stroke-miterlimit="10" d="M17.88 9.55h1.96V12l-1.96 0.98" stroke-width="1"></path>
  <path stroke="#092f63" stroke-linecap="round" stroke-linejoin="round" stroke-miterlimit="10" d="M6.11997 9.55h-1.96V12l1.96 0.98" stroke-width="1"></path>
  <path stroke="#092f63" stroke-linecap="round" stroke-linejoin="round" stroke-miterlimit="10" d="M10.04 10.53v0.98" stroke-width="1"></path>
  <path stroke="#092f63" stroke-linecap="round" stroke-linejoin="round" stroke-miterlimit="10" d="M13.96 10.53v0.98" stroke-width="1"></path>
  <path stroke="#092f63" stroke-linecap="round" stroke-linejoin="round" stroke-miterlimit="10" d="m10.53 14.4499 1.47 0.49 1.47 -0.49" stroke-width="1"></path>
  <path stroke="#092f63" stroke-linecap="round" stroke-linejoin="round" stroke-miterlimit="10" d="m6.61 19.448 -0.98 1.862 1.96 1.96" stroke-width="1"></path>
  <path stroke="#092f63" stroke-linecap="round" stroke-linejoin="round" stroke-miterlimit="10" d="m17.39 19.448 0.98 1.862 -1.96 1.96" stroke-width="1"></path>
  <path stroke="#092f63" stroke-linecap="round" stroke-linejoin="round" stroke-miterlimit="10" d="M14.94 18.958 12 23.27l-2.94 -4.312" stroke-width="1"></path>
  <path stroke="#092f63" stroke-linecap="round" stroke-linejoin="round" stroke-miterlimit="10" d="m22.78 23.2699 -0.98 -2.94 -9.8 -1.96 -9.80003 1.96 -0.98 2.94" stroke-width="1"></path>
  <path stroke="#092f63" stroke-linecap="round" stroke-linejoin="round" stroke-miterlimit="10" d="m18.37 6.61 -0.49 1.96L12 10.04 6.12 8.57l-0.49 -1.96" stroke-width="1"></path>
  <path stroke="#092f63" stroke-linecap="round" stroke-linejoin="round" stroke-miterlimit="10" d="m12.98 4.16 -0.98 0.98 -0.98 -0.98V2.69h1.96v1.47Z" stroke-width="1"></path>
  <path stroke="#092f63" stroke-linecap="round" stroke-linejoin="round" stroke-miterlimit="10" d="m18.37 6.61 2.94 -1.47 -2.45 -2.45L12 0.729996 5.14 2.69 2.69 5.14l2.94 1.47h12.74Z" stroke-width="1"></path>
  <path stroke="#092f63" stroke-linecap="round" stroke-linejoin="round" stroke-miterlimit="10" d="M13.372 21.2119 12 18.3699l-1.372 2.842L12 23.2699l1.372 -2.058Z" stroke-width="1"></path>
</svg>