<svg xmlns="http://www.w3.org/2000/svg" fill="none" viewBox="0 0 24 24" id="Gymnastics-Ribbon-Person-2--Streamline-Ultimate">
  <desc>
    Gymnastics Ribbon Person 2 Streamline Icon: https://streamlinehq.com
  </desc>
  <path stroke="#000000" stroke-linecap="round" stroke-linejoin="round" d="M15 3.375c0 0.69619 0.2766 1.36387 0.7688 1.85616 0.4923 0.49228 1.16 0.76884 1.8562 0.76884 0.6962 0 1.3639 -0.27656 1.8562 -0.76884 0.4922 -0.49229 0.7688 -1.15997 0.7688 -1.85616 0 -0.69619 -0.2766 -1.36387 -0.7688 -1.85616C18.9889 1.02656 18.3212 0.75 17.625 0.75c-0.6962 0 -1.3639 0.27656 -1.8562 0.76884C15.2766 2.01113 15 2.67881 15 3.375Z" stroke-width="1.5"></path>
  <path stroke="#000000" stroke-linecap="round" stroke-linejoin="round" d="M2.25 4.5c0.39782 0 0.77936 0.15804 1.06066 0.43934 0.2813 0.2813 0.43934 0.66284 0.43934 1.06066v3c0 0.39782 0.15804 0.77936 0.43934 1.0607 0.2813 0.2813 0.66284 0.4393 1.06066 0.4393h1.819l5.636 -3.521c0.169 -0.10559 0.3573 -0.17646 0.5539 -0.20847 0.1967 -0.03202 0.3977 -0.02453 0.5915 0.02201 0.1937 0.04655 0.3762 0.13123 0.5369 0.24909 0.1606 0.11786 0.2962 0.26654 0.3987 0.43737l1.376 2.293c0.1339 0.22177 0.3226 0.4053 0.5481 0.533 0.2254 0.1277 0.4798 0.1952 0.7389 0.196h2.8c0.3978 0 0.7794 0.158 1.0607 0.4393s0.4393 0.6629 0.4393 1.0607c0 0.3978 -0.158 0.7794 -0.4393 1.0607s-0.6629 0.4393 -1.0607 0.4393h-2.8c-0.7767 -0.0023 -1.5398 -0.2044 -2.2158 -0.5869 -0.676 -0.3825 -1.2422 -0.9325 -1.6442 -1.5971L13 10.332l-4 2.5V21c0 0.3978 -0.15804 0.7794 -0.43934 1.0607S7.89782 22.5 7.5 22.5c-0.39782 0 -0.77936 -0.158 -1.06066 -0.4393C6.15804 21.7794 6 21.3978 6 21v-7.5h-0.75c-1.19307 -0.0013 -2.33689 -0.4759 -3.18052 -1.3195C1.22585 11.3369 0.751323 10.1931 0.75 9V6c0 -0.39782 0.158035 -0.77936 0.43934 -1.06066C1.47064 4.65804 1.85218 4.5 2.25 4.5Z" stroke-width="1.5"></path>
  <path stroke="#000000" stroke-linecap="round" stroke-linejoin="round" d="M12.039 14.272c-0.4862 0.852 -0.7561 1.8103 -0.786 2.7908 -0.0299 0.9806 0.1811 1.9535 0.6145 2.8335 0.4334 0.8801 1.076 1.6405 1.8714 2.2146 0.7955 0.5741 1.7196 0.9444 2.6914 1.0785 0.9718 0.134 1.9617 0.0278 2.8828 -0.3095 0.9212 -0.3373 1.7457 -0.8953 2.4012 -1.6252 0.6554 -0.7299 1.122 -1.6093 1.3587 -2.5613 0.2367 -0.952 0.2363 -1.9476 -0.001 -2.8994" stroke-width="1.5"></path>
</svg>