<svg xmlns="http://www.w3.org/2000/svg" fill="none" viewBox="0 0 24 24" id="Paralympics-Football--Streamline-Ultimate">
  <desc>
    Paralympics Football Streamline Icon: https://streamlinehq.com
  </desc>
  <path stroke="#000000" stroke-linecap="round" stroke-linejoin="round" d="M9.43298 3.375c0 0.69619 0.27657 1.36387 0.76882 1.85616 0.4923 0.49228 1.16 0.76884 1.8562 0.76884 0.6962 0 1.3639 -0.27656 1.8561 -0.76884 0.4923 -0.49229 0.7689 -1.15997 0.7689 -1.85616 0 -0.69619 -0.2766 -1.36387 -0.7689 -1.85616C13.4219 1.02656 12.7542 0.75 12.058 0.75c-0.6962 0 -1.3639 0.27656 -1.8562 0.76884 -0.49225 0.49229 -0.76882 1.15997 -0.76882 1.85616Z" stroke-width="1.5"></path>
  <path stroke="#000000" stroke-linecap="round" stroke-linejoin="round" d="M9.80798 21c0 0.5967 0.23702 1.169 0.65902 1.591 0.422 0.4219 0.9942 0.659 1.591 0.659 0.5967 0 1.169 -0.2371 1.591 -0.659 0.4219 -0.422 0.659 -0.9943 0.659 -1.591s-0.2371 -1.169 -0.659 -1.591c-0.422 -0.4219 -0.9943 -0.659 -1.591 -0.659 -0.5968 0 -1.169 0.2371 -1.591 0.659 -0.422 0.422 -0.65902 0.9943 -0.65902 1.591Z" stroke-width="1.5"></path>
  <path stroke="#000000" stroke-linecap="round" stroke-linejoin="round" d="M15.656 17.6178c0.1422 0.3691 0.4243 0.6672 0.7851 0.8293 0.3607 0.1621 0.7709 0.1752 1.1413 0.0363 0.3703 -0.1388 0.6709 -0.4183 0.8362 -0.7776 0.1653 -0.3593 0.182 -0.7694 0.0464 -1.141 -0.2342 -0.6285 -0.6066 -1.1965 -1.0896 -1.6619 -0.4831 -0.4654 -1.0645 -0.8164 -1.7014 -1.0271l-2.245 -0.749 -0.421 -3.37695h2.05c0.6753 0.00152 1.3422 -0.1496 1.9509 -0.44207 0.6087 -0.29248 1.1434 -0.71874 1.5641 -1.24693l2.1 -2.623c0.2487 -0.31084 0.3637 -0.70771 0.3197 -1.10332 -0.044 -0.39561 -0.2433 -0.75754 -0.5542 -1.00618 -0.3108 -0.24864 -0.7077 -0.36362 -1.1033 -0.31965 -0.3956 0.04398 -0.7575 0.24331 -1.0062 0.55415l-2.1 2.623c-0.1401 0.17632 -0.3183 0.31866 -0.5213 0.41633 -0.203 0.09767 -0.4254 0.14815 -0.6507 0.14767H8.30805c-0.74057 -0.00109 -1.46993 0.18093 -2.12314 0.52987 -0.65321 0.34894 -1.21002 0.85397 -1.62086 1.47013l-0.609 0.914c-0.10926 0.16415 -0.18512 0.34825 -0.22325 0.54165 -0.03812 0.1935 -0.03776 0.3926 0.00105 0.5859 0.03882 0.1933 0.11533 0.3771 0.22518 0.5409 0.10984 0.1638 0.25087 0.3043 0.41502 0.4135 0.16415 0.1093 0.34821 0.1852 0.54168 0.2233 0.19347 0.0381 0.39256 0.0378 0.58589 -0.0011 0.19333 -0.0388 0.37712 -0.1153 0.54088 -0.2251 0.16377 -0.1099 0.30429 -0.2509 0.41355 -0.4151l0.609 -0.914c0.13704 -0.2041 0.32218 -0.3715 0.53911 -0.48725 0.21693 -0.11579 0.45899 -0.17647 0.70489 -0.1767h1.676l0.45395 3.63295 -2.33795 1.172c-0.18988 0.0952 -0.39781 0.149 -0.61002 0.1578 -0.21222 0.0088 -0.42388 -0.0276 -0.62098 -0.1068l-2.5 -1c-0.18293 -0.073 -0.37847 -0.1094 -0.57544 -0.1069 -0.19698 0.0025 -0.39153 0.0438 -0.57256 0.1214 -0.18103 0.0777 -0.34498 0.1903 -0.4825 0.3313 -0.13753 0.1411 -0.24592 0.3078 -0.319 0.4907 -0.07308 0.183 -0.10942 0.3785 -0.10693 0.5755 0.00249 0.197 0.04375 0.3915 0.12142 0.5725 0.07768 0.1811 0.19025 0.345 0.33129 0.4825 0.14104 0.1376 0.30779 0.246 0.49072 0.319l2.5 1c0.59041 0.2365 1.22419 0.3453 1.85966 0.3193 0.63547 -0.0261 1.25824 -0.1863 1.82734 -0.4703l2.73895 -1.371 2.553 0.852c0.2126 0.0706 0.4065 0.1882 0.5673 0.344 0.1608 0.1558 0.2845 0.3459 0.3617 0.556l-0.008 -0.004Z" stroke-width="1.5"></path>
  <path stroke="#000000" stroke-linecap="round" stroke-linejoin="round" d="m15.656 17.6182 1.744 4.659c0.107 0.2851 0.2983 0.5309 0.5483 0.7047 0.2501 0.1738 0.5472 0.2674 0.8517 0.2683 0.1802 -0.0004 0.359 -0.0325 0.528 -0.095 0.1845 -0.0693 0.3535 -0.1742 0.4974 -0.3088 0.1439 -0.1345 0.2599 -0.2961 0.3413 -0.4756 0.0815 -0.1794 0.1268 -0.3731 0.1333 -0.57 0.0066 -0.1969 -0.0257 -0.3932 -0.095 -0.5776" stroke-width="1.5"></path>
</svg>