<svg xmlns="http://www.w3.org/2000/svg" fill="none" viewBox="0 0 14 14" id="Android--Streamline-Core-Gradient">
  <desc>
    Android Streamline Icon: https://streamlinehq.com
  </desc>
  <g id="Free Gradient/Computer Devices/android--android-code-apps-bugdroid-programming">
    <path id="Subtract" fill="url(#paint0_linear_14402_12344)" fill-rule="evenodd" d="M11.5301 1.28033c.2929-.292893.2929-.767767 0-1.06066-.2929-.2928933-.7678-.2928933-1.0606 0L9.14501 1.54412C8.49227 1.19021 7.75594 1 7 1c-.756 0-1.49238.19023-2.14515.54419L3.53033.21967c-.29289-.2928933-.76777-.2928933-1.06066 0-.29289.292893-.29289.767767 0 1.06066l1.19681 1.19681c-.46357.51117-.80018 1.11858-.98939 1.77286h8.64581c-.1892-.65433-.5259-1.26178-.9895-1.77297l1.1967-1.1967ZM11.5 5.5h-9v.01138c-.63767.05819-1.23808.33761-1.694544.79408C.289731 6.82118 0 7.52065 0 8.25v1.5c0 .4142.335786.75.75.75.41421 0 .75-.3358.75-.75v-1.5c0-.33152.1317-.64946.36612-.88388.17459-.1746.39552-.29221.63388-.34087V13.25c0 .4142.33579.75.75.75s.75-.3358.75-.75V11.5h6v1.75c0 .4142.3358.75.75.75s.75-.3358.75-.75V7.02525c.2384.04866.4593.16627.6339.34087.2344.23442.3661.55236.3661.88388v1.5c0 .4142.3358.75.75.75s.75-.3358.75-.75v-1.5c0-.72935-.2897-1.42882-.8055-1.94454-.4564-.45647-1.0568-.73589-1.6945-.79408V5.5Z" clip-rule="evenodd"></path>
  </g>
  <defs>
    <linearGradient id="paint0_linear_14402_12344" x1="2.288" x2="13.596" y1="2.692" y2="8.957" gradientUnits="userSpaceOnUse">
      <stop stop-color="#ffd600"></stop>
      <stop offset="1" stop-color="#00d078"></stop>
    </linearGradient>
  </defs>
</svg>