<svg xmlns="http://www.w3.org/2000/svg" fill="none" viewBox="0 0 14 14" id="Battery-Charging--Streamline-Core-Gradient">
  <desc>
    Battery Charging Streamline Icon: https://streamlinehq.com
  </desc>
  <g id="Free Gradient/Computer Devices/battery-charging--phone-mobile-charge-device-electricity-power-battery-charging">
    <path id="Subtract" fill="url(#paint0_linear_14402_12355)" fill-rule="evenodd" d="M.43934 2.43934C.720644 2.15804 1.10218 2 1.5 2h9c.3978 0 .7794.15804 1.0607.43934S12 3.10217 12 3.5v.75h1c.2652 0 .5196.10536.7071.29289.1875.18754.2929.44189.2929.70711v3.5c0 .26521-.1054.51957-.2929.70711-.1875.18753-.4419.29289-.7071.29289h-1v.75c0 .3978-.158.7794-.4393 1.0607S10.8978 12 10.5 12h-9c-.39783 0-.779356-.158-1.06066-.4393C.158035 11.2794 0 10.8978 0 10.5v-7c0-.39782.158035-.77936.43934-1.06066ZM6.94991 5.1643c.22383-.26277.19225-.65724-.07052-.88106-.26278-.22383-.65724-.19225-.88107.07052l-1.90771 2.2397c-.15804.18555-.19381.44604-.09162.66731.10219.22128.32369.36296.56742.36296h1.70793L5.24435 8.83635c-.22346.26309-.19134.65751.07174.88097s.65751.19134.88097-.07174L8.1016 7.40334c.15768-.18564.19315-.44598.09088-.66704-.10228-.22106-.32366-.36257-.56724-.36257H5.91976L6.94991 5.1643Z" clip-rule="evenodd"></path>
  </g>
  <defs>
    <linearGradient id="paint0_linear_14402_12355" x1="2.288" x2="11.515" y1="3.923" y2="11.08" gradientUnits="userSpaceOnUse">
      <stop stop-color="#ffd600"></stop>
      <stop offset="1" stop-color="#00d078"></stop>
    </linearGradient>
  </defs>
</svg>