<svg xmlns="http://www.w3.org/2000/svg" fill="none" viewBox="0 0 14 14" id="Controller--Streamline-Core-Gradient">
  <desc>
    Controller Streamline Icon: https://streamlinehq.com
  </desc>
  <g id="Free Gradient/Computer Devices/controller--remote-quadcopter-drones-flying-drone-control-controller-technology-fly">
    <path id="Subtract" fill="url(#paint0_linear_14402_12478)" fill-rule="evenodd" d="M10.4355.499023c.3452 0 .625.279822.625.624997v.97325c0 .89746-.7275 1.625-1.62497 1.625H8.03054c-.20711 0-.375.1679-.375.375v.42678h1.85682c1.82754 0 3.39514 1.31383 3.61064 3.09507l.3583 2.96298c.1908 1.5778-1.0954 2.9179-2.6917 2.9179-1.02254 0-1.96895-.557-2.42944-1.4562l-.21885-.4273H5.85883l-.21885.4273c-.4605.8992-1.4069 1.4562-2.42949 1.4562-1.59626 0-2.882499-1.3401-2.691673-2.9179L.87716 7.61912c.21543-1.78124 1.78303-3.09507 3.61061-3.09507h1.91777v-.42678c0-.89746.72753-1.625 1.625-1.625h1.40499c.20711 0 .375-.16789.375-.375v-.97325c0-.345175.27987-.624997.62497-.624997ZM4.65039 6.375c.34518 0 .625.27982.625.625v.53052h.53027c.34518 0 .625.27982.625.625s-.27982.625-.625.625h-.53027v.53038c0 .34518-.27982.625-.625.625s-.625-.27982-.625-.625v-.53038h-.53062c-.34518 0-.625-.27982-.625-.625s.27982-.625.625-.625h.53062V7c0-.34518.27982-.625.625-.625Zm5.31582 1.62019c-.41289 0-.7476-.33471-.7476-.74759 0-.41289.33471-.7476.7476-.7476.41289 0 .74759.33471.74759.7476 0 .41288-.3347.74759-.74759.74759Zm-2.23302.738.00028.01703c.00906.40501.34022.73055.74741.73055.41288 0 .74759-.33471.74759-.7476l-.00028-.01702c-.00906-.40502-.34022-.73055-.74741-.73055-.41288 0-.74759.33471-.74759.74759Z" clip-rule="evenodd"></path>
  </g>
  <defs>
    <linearGradient id="paint0_linear_14402_12478" x1="1" x2="15.817" y1="1.55" y2="9.9" gradientUnits="userSpaceOnUse">
      <stop stop-color="#00d078"></stop>
      <stop offset="1" stop-color="#007df0"></stop>
    </linearGradient>
  </defs>
</svg>