<svg xmlns="http://www.w3.org/2000/svg" fill="none" viewBox="0 0 14 14" id="Controller-1--Streamline-Core-Gradient">
  <desc>
    Controller 1 Streamline Icon: https://streamlinehq.com
  </desc>
  <g id="Free Gradient/Computer Devices/controller-1--remote-quadcopter-drones-flying-drone-control-controller-technology-fly">
    <path id="Subtract" fill="url(#paint0_linear_14402_12493)" fill-rule="evenodd" d="M.46617 4.92651c.189582-1.78494 1.7073-3.1333 3.50917-3.1333h6.04946c1.8019 0 3.3196 1.34837 3.5092 3.1333l.4506 4.24222c.173 1.62887-1.1158 3.03797-2.7559 3.03797-1.0929 0-2.08636-.6378-2.53211-1.6324l-.26821-.59839H5.57179l-.2682.59839c-.44575.9945-1.43921 1.6324-2.53207 1.6324-1.64019 0-2.928927-1.4091-2.7559253-3.03797L.46617 4.92651Zm3.93408-.53222c.34518 0 .625.27982.625.625v.53051h.53028c.34517 0 .625.27983.625.625 0 .34518-.27983.625-.625.625h-.53028v.53038c0 .34518-.27982.625-.625.625s-.625-.27982-.625-.625V6.7998h-.53062c-.34518 0-.625-.27982-.625-.625 0-.34517.27982-.625.625-.625h.53062v-.53051c0-.34518.27982-.625.625-.625Zm6.06595 1.62019c-.4129 0-.74759-.33471-.74759-.7476 0-.41288.33469-.74759.74759-.74759s.7476.33471.7476.74759c0 .41289-.3347.7476-.7476.7476Zm-2.23302.738.00029.01702c.00906.40502.34022.73056.74741.73056.41288 0 .74759-.33471.74759-.7476l-.00028-.01702c-.00906-.40502-.34022-.73056-.74741-.73056-.41288 0-.74759.33471-.7476.7476Z" clip-rule="evenodd"></path>
  </g>
  <defs>
    <linearGradient id="paint0_linear_14402_12493" x1="2.288" x2="11.793" y1="3.796" y2="10.876" gradientUnits="userSpaceOnUse">
      <stop stop-color="#ffd600"></stop>
      <stop offset="1" stop-color="#00d078"></stop>
    </linearGradient>
  </defs>
</svg>