<svg xmlns="http://www.w3.org/2000/svg" fill="none" viewBox="0 0 14 14" id="Cyborg-2--Streamline-Core-Gradient">
  <desc>
    Cyborg 2 Streamline Icon: https://streamlinehq.com
  </desc>
  <g id="Free Gradient/Computer Devices/cyborg-2--artificial-robotics-intelligence-machine-technology-android">
    <path id="Subtract" fill="url(#paint0_linear_14402_12519)" fill-rule="evenodd" d="M5.33301 1.66667C5.33301.746192 6.0792 0 6.99967 0c.92048 0 1.66667.746192 1.66667 1.66667 0 .65057-.37275 1.21409-.91634 1.48862v1.42796h2.75c1.3807 0 2.5 1.11929 2.5 2.5V11.5c0 1.3807-1.1193 2.5-2.5 2.5h-7C2.11929 14 1 12.8807 1 11.5V7.08325c0-1.38071 1.11929-2.5 2.5-2.5h2.75V3.15562c-.54394-.27441-.91699-.83812-.91699-1.48895Zm-.29102 5.47908H5.042c.41422 0 .75.33579.75.75 0 .41422-.33578.75-.75.75h-.00001c-.41421 0-.75-.33578-.75-.75 0-.41421.33579-.75.75-.75Zm-.22075 2.75363c.24829-.23409.63771-.22539.87534.01749l.00196.00181c.00561.00516.01886.01691.03986.03325.04203.03269.11471.08337.21934.13647.20656.1048.54774.2241 1.04226.2241.49452 0 .8357-.1193 1.04226-.2241.10463-.0531.17731-.10378.21934-.13647.01483-.01154.02579-.02079.03293-.02704l.00118 0 .00044-.00046-.00109-.00001.0064-.00574.00196-.00181-.00183.00191.00252-.00255-.00069.00064c.23763-.24288.62705-.25158.87534-.01749.25115.23682.26278.63232.02598.88352L8.75 10.3541c.45474.4288.45451.429.45428.4293l-.00048.0005-.00099.001-.00216.0023-.005.0051-.0127.0128c-.00967.0096-.02178.0212-.03636.0346-.02915.0267-.06826.0606-.11756.0989-.0986.0767-.23842.1718-.42129.2646-.36844.1869-.90226.3593-1.60774.3593s-1.2393-.1724-1.60774-.3593c-.18287-.0928-.32269-.1879-.42129-.2646-.0493-.0383-.08841-.0722-.11756-.0989-.01458-.0134-.02669-.025-.03636-.0346l-.0127-.0128-.005-.0051-.00216-.0023-.00099-.001-.00048-.0005c-.00023-.0003-.00046-.0005.45428-.4293l-.45474.4288c-.2368-.2512-.22517-.6467.02598-.88352Zm3.47382.02504-.00053.00047-2.59795-.00802 2.59848.00755Zm.00193-.00088.00413-.00429-.00257.00266-.00156.00163Zm.66102-2.77779h.00001c.41421 0 .75.33579.75.75 0 .41422-.33579.75-.75.75h-.00001c-.41422 0-.75-.33578-.75-.75 0-.41421.33578-.75.75-.75Z" clip-rule="evenodd"></path>
  </g>
  <defs>
    <linearGradient id="paint0_linear_14402_12519" x1="14.04" x2="-3.727" y1="16.965" y2="6.148" gradientUnits="userSpaceOnUse">
      <stop stop-color="#ffd600"></stop>
      <stop offset="1" stop-color="#ff007a"></stop>
    </linearGradient>
  </defs>
</svg>