<svg xmlns="http://www.w3.org/2000/svg" fill="none" viewBox="0 0 14 14" id="Desktop-Dollar--Streamline-Core-Gradient">
  <desc>
    Desktop Dollar Streamline Icon: https://streamlinehq.com
  </desc>
  <g id="Free Gradient/Computer Devices/desktop-dollar--cash-desktop-display-device-notification-computer-money-currency">
    <path id="Union" fill="url(#paint0_linear_14402_12413)" fill-rule="evenodd" d="M12.4299.625c0-.345178-.2798-.625-.625-.625s-.625.279822-.625.625v.55609c-.8764.05465-1.57028.78275-1.57028 1.67292 0 .78772.54848 1.46916 1.31798 1.63749l1.3879.30359c.2535.05546.4345.2803.4345.54024 0 .30552-.2477.55309-.5526.55309h-.3739l-.0186-.00027-.0186.00027h-.374c-.2397 0-.4452-.15289-.5214-.36839-.115-.32544-.4721-.49602-.7975-.38099-.3255.11503-.49607.4721-.38104.79755.22239.62922.78464 1.09913 1.46754 1.18699v.56722c0 .34518.2798.625.625.625s.625-.27982.625-.625v-.56725C13.3159 7.00942 14 6.25187 14 5.33533c0-.84692-.5896-1.58028-1.4174-1.76136l-1.3878-.30359c-.1957-.04281-.3352-.21608-.3352-.41637 0-.23539.1908-.42622.4262-.42622h.9116c.1636 0 .31.07032.4121.18438.0479.05358.0852.11602.1092.18401.1151.32544.4722.49602.7976.38099.3254-.11503.496-.4721.381-.79755-.0794-.22456-.2016-.42814-.3564-.60109-.2806-.31354-.6711-.52907-1.111-.58584V.625ZM1.5 3h6.47227c.41422 0 .75-.33579.75-.75s-.33578-.75-.75-.75H1.25C.559644 1.5 0 2.05964 0 2.75v7.5c0 .6904.559644 1.25 1.25 1.25h4.05572l-.3579 1H4c-.41421 0-.75.3358-.75.75s.33579.75.75.75h6c.4142 0 .75-.3358.75-.75s-.3358-.75-.75-.75h-.94791l-.3579-1H12.75c.6904 0 1.25-.5596 1.25-1.25V9.13354c0-.41422-.3358-.75-.75-.75s-.75.33578-.75.75V10h-11V3Z" clip-rule="evenodd"></path>
  </g>
  <defs>
    <linearGradient id="paint0_linear_14402_12413" x1="15.213" x2="-3.671" y1="16.965" y2="3.551" gradientUnits="userSpaceOnUse">
      <stop stop-color="#ffd600"></stop>
      <stop offset="1" stop-color="#ff007a"></stop>
    </linearGradient>
  </defs>
</svg>