<svg xmlns="http://www.w3.org/2000/svg" fill="none" viewBox="0 0 14 14" id="Device-Database-Encryption-1--Streamline-Core-Gradient">
  <desc>
    Device Database Encryption 1 Streamline Icon: https://streamlinehq.com
  </desc>
  <g id="Free Gradient/Computer Devices/device-database-encryption-1">
    <path id="Union" fill="url(#paint0_linear_14402_12802)" fill-rule="evenodd" d="M.749023 0c.414217 0 .749997.335786.749997.75v2.6492c0 .41421-.33578.75-.749997.75-.414213 0-.749999562-.33579-.749999562-.75V.75C-.000976562.335786.33481 0 .749023 0Zm0 4.92542c.414217 0 .749997.33578.749997.75v2.64919c0 .41421-.33578.75-.749997.75-.414213 0-.749999562-.33579-.749999562-.75V5.67542c0-.41422.335786562-.75.749999562-.75ZM8.44382.75c0-.414214-.33579-.75-.75-.75s-.75.335786-.75.75v2.6492c0 .41421.33579.75.75.75s.75-.33579.75-.75V.75ZM10.0263 0c.4142 0 .75.335786.75.75v2.6492c0 .41421-.3358.75-.75.75-.41421 0-.75-.33579-.75-.75V.75c0-.414214.33579-.75.75-.75ZM1.49902 10.6007c0-.4142-.33578-.74999-.749997-.74999-.414213 0-.749999562.33579-.749999562.74999v2.6492c0 .4142.335786562.75.749999562.75.414217 0 .749997-.3358.749997-.75v-2.6492Zm1.66341-5.67528c.41422 0 .75.33578.75.75v2.64919c0 .41421-.33578.75-.75.75-.41421 0-.75-.33579-.75-.75V5.67542c0-.41422.33579-.75.75-.75ZM4.32493 0C3.26058 0 2.42901.879057 2.42901 1.92441v.28249c0 1.04535.83157 1.92441 1.89592 1.92441 1.06434 0 1.89592-.87906 1.89592-1.92441v-.28249C6.22085.879057 5.38927 0 4.32493 0Zm-.39592 1.92441c0-.25186.19451-.42441.39592-.42441.2014 0 .39592.17255.39592.42441v.28249c0 .25186-.19452.42441-.39592.42441-.20141 0-.39592-.17255-.39592-.42441v-.28249Zm-1.5 9.86869c0-1.0454.83157-1.92445 1.89592-1.92445 1.06434 0 1.89592.87905 1.89592 1.92445v.2824c0 1.0454-.83158 1.9245-1.89592 1.9245-1.06435 0-1.89592-.8791-1.89592-1.9245v-.2824Zm1.89592-.4244c-.20141 0-.39592.1725-.39592.4244v.2824c0 .2519.19451.4245.39592.4245.2014 0 .39592-.1726.39592-.4245v-.2824c0-.2519-.19452-.4244-.39592-.4244Zm2.22279-6.44328c-1.06434 0-1.89592.87905-1.89592 1.9244v.28249c0 1.04535.83158 1.92441 1.89592 1.92441.35188 0 .67832-.09608.95768-.26249V8.75c0-.89636.33642-1.71401.88969-2.33321-.1922-.84415-.9341-1.49137-1.84737-1.49137Zm-.39592 1.9244c0-.25186.19452-.4244.39592-.4244s.39592.17254.39592.4244v.28249c0 .25187-.19452.42441-.39592.42441s-.39592-.17254-.39592-.42441v-.28249ZM11.0002 8c-.4142 0-.75.33579-.75.75v.75h1.5v-.75c0-.41421-.3357-.75-.75-.75Zm-2.24996.75v.7815c-.4313.11102-.75.5025-.75.9685V13c0 .5523.44772 1 1 1h3.99996c.5523 0 1-.4477 1-1v-2.5c0-.466-.3186-.85748-.75-.9685V8.75c0-1.24264-1.0073-2.25-2.25-2.25-1.2426 0-2.24996 1.00736-2.24996 2.25Z" clip-rule="evenodd"></path>
  </g>
  <defs>
    <linearGradient id="paint0_linear_14402_12802" x1=".537" x2="16.494" y1="1.131" y2="10.126" gradientUnits="userSpaceOnUse">
      <stop stop-color="#00d078"></stop>
      <stop offset="1" stop-color="#007df0"></stop>
    </linearGradient>
  </defs>
</svg>