<svg xmlns="http://www.w3.org/2000/svg" fill="none" viewBox="0 0 14 14" id="Spotify--Streamline-Core-Gradient">
  <desc>
    Spotify Streamline Icon: https://streamlinehq.com
  </desc>
  <g id="Free Gradient/Computer Devices/spotify">
    <path id="Subtract" fill="url(#paint0_linear_14402_12889)" fill-rule="evenodd" d="M.5 7C.5 3.41015 3.41015.5 7 .5c3.5899 0 6.5 2.91015 6.5 6.5 0 3.5899-2.9101 6.5-6.5 6.5C3.41015 13.5.5 10.5899.5 7Zm3.67202-1.79918c2.24393-.42846 3.96466-.19683 6.09998.93951.3048.16215.6832.04658.8454-.25813.1622-.30472.0466-.6832-.2581-.84535C8.46981 3.76529 6.45887 3.49158 3.93758 3.973c-.33905.06474-.56143.39208-.49669.73113.06474.33905.39208.56143.73113.49669Zm.88493 4.54422c1.02196-.1258 1.68907.00144 2.66897.44906.31398.1434.68476.0051.82817-.30887.14342-.31398.00515-.68476-.30883-.82818-1.16057-.5301-2.05962-.71039-3.34104-.55264-.34259.04217-.58613.35408-.54395.69668.04217.34259.35408.58612.69668.54395Zm4.12518-1.47322c-1.82676-.88237-2.92725-1.17594-4.52099-.85915-.33856.06729-.66756-.15261-.73486-.49116-.06729-.33856.15261-.66756.49116-.73485 1.97544-.39266 3.36978.02321 5.30837.95958.31079.15014.44109.52381.29099.83463-.15018.31082-.52385.44108-.83467.29095Z" clip-rule="evenodd"></path>
  </g>
  <defs>
    <linearGradient id="paint0_linear_14402_12889" x1="1" x2="15.816" y1="1.551" y2="9.901" gradientUnits="userSpaceOnUse">
      <stop stop-color="#00d078"></stop>
      <stop offset="1" stop-color="#007df0"></stop>
    </linearGradient>
  </defs>
</svg>