<svg xmlns="http://www.w3.org/2000/svg" fill="none" viewBox="0 0 14 14" id="Whatsapp--Streamline-Core-Gradient">
  <desc>
    Whatsapp Streamline Icon: https://streamlinehq.com
  </desc>
  <g id="Free Gradient/Computer Devices/whatsapp">
    <path id="Subtract" fill="url(#paint0_linear_14402_12931)" fill-rule="evenodd" d="M6.9979.0000011128C10.8166-.00217538 14.0019 3.18867 14.0019 6.99999c0 3.81601-3.1849 6.99731-7.00418 6.99481-.99825-.0007-1.99773-.2117-2.91858-.6342l-3.492118.6314c-.177085.032-.357717-.0336-.47297-.1718-.11525226-.1382-.1473443-.3277-.0840299-.4961l1.0020279-2.666C.358914 9.55919.0000818382 8.2873.0000759075 6.99999.0000583838 3.18679 3.18137.00126691 6.99776.0000011724l.00014-5.96e-8ZM4.59488 4.08672c.41328-.47611 1.08075-.36757 1.47694-.00589l.86206.78701c.05043.04604.07983.11069.08138.17895.00155.06826-.02488.13418-.07316.18246-.10924.10924-.25002.32904-.32477.57692-.07525.24955-.06899.47486.03522.63721.13447.20949.27488.40146.47133.57058.19492.1678.45452.32108.83411.4366.13647.04154.3212.04096.50957-.00658.18832-.04753.35186-.13484.45315-.23613.04784-.04784.11303-.07425.18068-.07319.06765.00106.13199.02949.17831.07881l.7814.83181c.4332.46118.4805 1.23455-.07356 1.65892-.6547.5014-1.72217 1.0392-2.76667.3688-1.2676-.81374-2.39279-1.88603-3.21103-3.16046-.27743-.43211-.28097-.96557-.15129-1.45784.1305-.49539.40395-.98506.73633-1.36798Z" clip-rule="evenodd"></path>
  </g>
  <defs>
    <linearGradient id="paint0_linear_14402_12931" x1="15.216" x2="-3.67" y1="16.965" y2="3.546" gradientUnits="userSpaceOnUse">
      <stop stop-color="#ffd600"></stop>
      <stop offset="1" stop-color="#ff007a"></stop>
    </linearGradient>
  </defs>
</svg>