<svg xmlns="http://www.w3.org/2000/svg" fill="none" viewBox="0 0 14 14" id="Wifi-Signal-Full--Streamline-Core-Gradient">
  <desc>
    Wifi Signal Full Streamline Icon: https://streamlinehq.com
  </desc>
  <g id="Free Gradient/Computer Devices/wifi-signal-full--wireless-wifi-internet-server-network-connection">
    <path id="Union" fill="url(#paint0_linear_14402_13316)" fill-rule="evenodd" d="M1.2762 4.85516c3.1719-3.14024 8.27565-3.14021 11.4475.00007.2944.29142.7692.28904 1.0607-.00531.2914-.29436.289-.76922-.0053-1.06065C10.0226.0702693 3.97732.0702414.220872 3.7892c-.2943589.29142-.2967406.76628-.00532 1.06064.29142.29436.766288.29674 1.060648.00532Zm9.7835 1.90237c-2.24225-2.24702-5.87692-2.24702-8.11913 0-.29258.2932-.76746.29371-1.06066.00113-.29321-.29258-.29372-.76745-.00114-1.06066 2.82826-2.83431 7.41443-2.83431 10.24273 0 .2925.29321.292.76808-.0012 1.06066-.2932.29258-.7681.29207-1.0606-.00113ZM4.64027 8.62405c1.30324-1.30603 3.41553-1.30603 4.71877 0 .29258.29321.76746.29372 1.06066.00114.2932-.29258.2937-.76746.0011-1.06066-1.88925-1.89333-4.95304-1.89333-6.84232 0-.29258.2932-.29207.76808.00113 1.06066.29321.29258.76808.29207 1.06066-.00114ZM5 11c0-1.10457.89543-2 2-2s2 .89543 2 2c0 1.1046-.89543 2-2 2s-2-.8954-2-2Z" clip-rule="evenodd"></path>
  </g>
  <defs>
    <linearGradient id="paint0_linear_14402_13316" x1=".537" x2="15.216" y1="1.97" y2="11.624" gradientUnits="userSpaceOnUse">
      <stop stop-color="#00d078"></stop>
      <stop offset="1" stop-color="#007df0"></stop>
    </linearGradient>
  </defs>
</svg>