<svg xmlns="http://www.w3.org/2000/svg" viewBox="0 0 14 14">
  <path d="M9.47,3a.24.24,0,0,1-.21-.22L9.1,1.33A1.5,1.5,0,0,0,7.6,0H6.4A1.5,1.5,0,0,0,4.9,1.33L4.74,2.79A.24.24,0,0,1,4.53,3,1.77,1.77,0,0,0,3,4.75v4.5A1.77,1.77,0,0,0,4.53,11a.24.24,0,0,1,.21.22l.16,1.46A1.5,1.5,0,0,0,6.4,14H7.6a1.5,1.5,0,0,0,1.5-1.33l.16-1.46A.24.24,0,0,1,9.47,11,1.77,1.77,0,0,0,11,9.25V4.75A1.77,1.77,0,0,0,9.47,3Zm0,6.24a.25.25,0,0,1-.25.25H4.75a.25.25,0,0,1-.25-.25V4.75a.25.25,0,0,1,.25-.25h4.5a.25.25,0,0,1,.25.25Z" style="fill: #000001"/>
</svg>
