<svg xmlns="http://www.w3.org/2000/svg" fill="none" viewBox="0 0 24 24" id="Chat-Bubble-Typing-Oval--Streamline-Sharp-Neon">
  <desc>
    Chat Bubble Typing Oval Streamline Icon: https://streamlinehq.com
  </desc>
  <g id="chat-bubble-typing-oval--messages-message-bubble-typing-chat">
    <path id="Union" stroke="#c71dff" d="M2.29411 17.1765C1.45208 15.5976 1 13.8221 1 12c0 -2.91738 1.15893 -5.71527 3.22183 -7.77817S9.08262 1 12 1c2.9174 0 5.7153 1.15893 7.7782 3.22183S23 9.08262 23 12c0 2.9174 -1.1589 5.7153 -3.2218 7.7782S14.9174 23 12 23c-1.8076 0 -3.56942 -0.4449 -5.1389 -1.2742L1.5 22.5l0.79411 -5.3235Z" stroke-width="1"></path>
    <path id="Rectangle 817" stroke="#000cfe" d="M7.1272 11.6274h0.74551v0.7456H7.1272v-0.7456Z" stroke-width="1"></path>
    <path id="Rectangle 818" stroke="#000cfe" d="M11.6272 11.6274h0.7455v0.7455h-0.7455v-0.7455Z" stroke-width="1"></path>
    <path id="Rectangle 819" stroke="#000cfe" d="M16.1272 11.6274h0.7455v0.7456h-0.7455v-0.7456Z" stroke-width="1"></path>
  </g>
</svg>