<svg xmlns="http://www.w3.org/2000/svg" fill="none" viewBox="-0.5 -0.5 24 24" id="Email-Attachment-Image--Streamline-Sharp-Neon">
  <desc>
    Email Attachment Image Streamline Icon: https://streamlinehq.com
  </desc>
  <g id="email-attachment-image--mail-send-email-attachment-file-image-png-jpg">
    <path id="Vector 2537" stroke="#000cfe" d="M8.7952 21.8684v-6.3112c0 -1.9917041666666668 -1.6146 -3.6064 -3.6064 -3.6064s-3.6064 1.6146958333333334 -3.6064 3.6064v3.6064c0 0.9958999999999999 0.8073 1.8032 1.8032 1.8032s1.8032 -0.8073 1.8032 -1.8032v-4.508" stroke-width="1"></path>
    <path id="Vector 2867" stroke="#000cfe" d="m21.4176 11.0492 -4.9588 -4.9588 -5.8604 5.8604" stroke-width="1"></path>
    <path id="Ellipse 679" stroke="#000cfe" d="M8.7952 5.639600000000001c0 0.694025 0.7513333333333334 1.1278625 1.3524 0.78085 0.2789708333333334 -0.16109583333333333 0.4508 -0.4587541666666667 0.4508 -0.78085 0 -0.694025 -0.7513333333333334 -1.1278625 -1.3524 -0.78085 -0.2789708333333334 0.16109583333333333 -0.4508 0.4587541666666667 -0.4508 0.78085" stroke-width="1"></path>
    <path id="Rectangle 842" stroke="#c71dff" d="M11.5 17.360400000000002h9.9176V1.1316000000000002H5.1888V9.246" stroke-width="1"></path>
  </g>
</svg>