<svg xmlns="http://www.w3.org/2000/svg" fill="none" viewBox="-0.75 -0.75 24 24" id="Email-Attachment-Image--Streamline-Sharp-Neon">
  <desc>
    Email Attachment Image Streamline Icon: https://streamlinehq.com
  </desc>
  <g id="email-attachment-image--mail-send-email-attachment-file-image-png-jpg">
    <path id="Vector 2537" stroke="#000cfe" d="M8.604 21.392999999999997v-6.174c0 -1.9484062500000001 -1.5795000000000001 -3.528 -3.528 -3.528s-3.528 1.5795937500000001 -3.528 3.528v3.528c0 0.97425 0.7897500000000001 1.764 1.764 1.764s1.764 -0.7897500000000001 1.764 -1.764v-4.41" stroke-width="1.5"></path>
    <path id="Vector 2867" stroke="#000cfe" d="m20.952 10.809000000000001 -4.851 -4.851 -5.733 5.733" stroke-width="1.5"></path>
    <path id="Ellipse 679" stroke="#000cfe" d="M8.604 5.517c0 0.6789375 0.735 1.10334375 1.323 0.763875 0.27290625 -0.15759375 0.441 -0.44878125 0.441 -0.763875 0 -0.6789375 -0.735 -1.10334375 -1.323 -0.763875 -0.27290625 0.15759375 -0.441 0.44878125 -0.441 0.763875" stroke-width="1.5"></path>
    <path id="Rectangle 842" stroke="#c71dff" d="M11.25 16.983h9.702V1.107H5.076V9.045" stroke-width="1.5"></path>
  </g>
</svg>