<svg xmlns="http://www.w3.org/2000/svg" fill="none" viewBox="0 0 24 24" id="Amazon-Prime-Video-Logo-1--Streamline-Logos">
  <desc>
    Amazon Prime Video Logo 1 Streamline Icon: https://streamlinehq.com
  </desc>
  <path stroke="#000000" stroke-linecap="round" stroke-linejoin="round" d="M19 14.5c1 -0.333 3.1 -0.9 3.5 -0.5 0.4 0.4 -0.5 2.5 -1 3.5" stroke-width="1"></path>
  <path stroke="#000000" stroke-linecap="round" stroke-linejoin="round" d="M1.5 15c1.667 1.167 6 3 10 3s7.333 -1.333 8.5 -2" stroke-width="1"></path>
  <path stroke="#000000" stroke-linejoin="round" d="M19.5 9c0.833 0 3 0.18 3 -1 0 -1 -3 -1 -3 1Zm0 0c0 0.878 0.485 1.924 1.5 2 1.05 0.078 1.5 -0.5 1.5 -0.5" stroke-width="1"></path>
  <path stroke="#000000" stroke-linejoin="round" d="M12.5 8s0.7 -0.5 1.5 -0.5 1 0.5 1 0.5v3.5" stroke-width="1"></path>
  <path stroke="#000000" stroke-linejoin="round" d="M15 8s0.7 -0.5 1.5 -0.5 1 0.5 1 0.5v3.5" stroke-width="1"></path>
  <path stroke="#000000" stroke-linejoin="round" d="M10.5 7v4.5" stroke-width="1"></path>
  <path stroke="#000000" stroke-linejoin="round" d="M12.5 7v4.5" stroke-width="1"></path>
  <path stroke="#000000" stroke-linejoin="round" d="M7 7v4.5" stroke-width="1"></path>
  <path stroke="#000000" stroke-linejoin="round" d="M7 8.5c0 -1 1 -1 2 -1" stroke-width="1"></path>
  <path stroke="#000000" stroke-linejoin="round" d="M2 9.25a1.5 1.75 0 1 0 3 0 1.5 1.75 0 1 0 -3 0" stroke-width="1"></path>
  <path stroke="#000000" stroke-linejoin="round" d="M1.5 7v6" stroke-width="1"></path>
  <path stroke="#000000" stroke-linejoin="round" d="M10.5 5.75a0.25 0.25 0 1 1 0 -0.5" stroke-width="1"></path>
  <path stroke="#000000" stroke-linejoin="round" d="M10.5 5.75a0.25 0.25 0 1 0 0 -0.5" stroke-width="1"></path>
</svg>