<svg xmlns="http://www.w3.org/2000/svg" fill="none" viewBox="0 0 24 24" id="Niconico-Logo-2--Streamline-Logos">
  <desc>
    Niconico Logo 2 Streamline Icon: https://streamlinehq.com
  </desc>
  <path stroke="#000000" stroke-linejoin="round" d="M6.72 22.024 5.5 20.5h4l-1.22 1.524a1 1 0 0 1 -1.56 0Z" stroke-width="1"></path>
  <path stroke="#000000" stroke-linejoin="round" d="M15.72 22.024 14.5 20.5h4l-1.22 1.524a1 1 0 0 1 -1.56 0Z" stroke-width="1"></path>
  <path stroke="#000000" stroke-linecap="round" stroke-linejoin="round" d="m7 1.5 4 4" stroke-width="1"></path>
  <path stroke="#000000" stroke-linecap="round" stroke-linejoin="round" d="m17 1.5 -4 4" stroke-width="1"></path>
  <path stroke="#000000" stroke-linejoin="round" d="M7 13.5a0.5 0.5 0 0 1 0 -1" stroke-width="1"></path>
  <path stroke="#000000" stroke-linejoin="round" d="M7 13.5a0.5 0.5 0 0 0 0 -1" stroke-width="1"></path>
  <path stroke="#000000" stroke-linejoin="round" d="M16.5 12a0.5 0.5 0 0 1 0 -1" stroke-width="1"></path>
  <path stroke="#000000" stroke-linejoin="round" d="M16.5 12a0.5 0.5 0 0 0 0 -1" stroke-width="1"></path>
  <path stroke="#000000" stroke-linejoin="round" d="M4 18V8h16v10H4Z" stroke-width="1"></path>
  <path stroke="#000000" stroke-linejoin="round" d="M14 16h-4l2 -2 2 2Z" stroke-width="1"></path>
  <path stroke="#000000" stroke-linejoin="round" d="M1.5 20.5v-15h21v15h-21Z" stroke-width="1"></path>
</svg>