<svg xmlns="http://www.w3.org/2000/svg" fill="none" viewBox="0 0 24 24" id="Spark-Logo--Streamline-Logos">
  <desc>
    Spark Logo Streamline Icon: https://streamlinehq.com
  </desc>
  <path stroke="#000000" stroke-linejoin="round" d="m13.448 9.183 -2.146 -3.626 -0.696 4.554 -4.468 1.45 3.916 1.509 -0.638 5.424 3.597 -4.177 4.062 1.248 -2.292 -4.004 2.93 -3.423 -4.265 1.045Z" stroke-width="1"></path>
  <path stroke="#000000" stroke-linejoin="round" d="M11 1.5c-1.904 0 -2.372 7.096 -2.372 7.096S2 10.022 2 11.5c0 1.907 5.265 3.398 5.265 3.398s-1.204 7.344 0.34 7.602c1.395 0.233 5.834 -5.729 5.834 -5.729s5.736 2.52 6.536 1.32c1.035 -1.552 -2.597 -6.387 -2.597 -6.387s5.663 -5.152 4.62 -6.387c-0.73 -0.864 -7.303 1.575 -7.303 1.575S12.2 1.5 11 1.5Z" stroke-width="1"></path>
</svg>