<svg xmlns="http://www.w3.org/2000/svg" fill="none" viewBox="0 0 14 14" id="Bill-Cashless--Streamline-Core">
  <desc>
    Bill Cashless Streamline Icon: https://streamlinehq.com
  </desc>
  <g id="bill-cashless--currency-billing-payment-finance-no-cash-bill-money-accounting-cashless">
    <path id="Union" fill="#000000" fill-rule="evenodd" d="M0.218998 1.27966c-0.2928925 -0.292894 -0.2928925 -0.767768 0 -1.060661 0.292893 -0.2928937 0.767767 -0.2928937 1.060662 0L3.28606 2.2254H12.5c0.8039 0 1.5 0.62525 1.5 1.44991v6.64939c0 0.7181 -0.5279 1.285 -1.1951 1.4195l0.9761 0.9762c0.2929 0.2928 0.2929 0.7677 0 1.0606 -0.2929 0.2929 -0.7678 0.2929 -1.0606 0L0.218998 1.27966ZM9.21538 8.15472c0.18042 -0.34557 0.28243 -0.73857 0.28243 -1.15539 0 -1.38071 -1.11929 -2.5 -2.5 -2.5 -0.41682 0 -0.80982 0.10201 -1.15539 0.28243l3.37296 3.37296ZM0.173713 2.99546c-0.1104297 0.20071 -0.1737063243 0.43122 -0.1737063243 0.67985v6.64939c0 0.8246 0.6960963243 1.4499 1.5000033243 1.4499h7.45282L0.173713 2.99546Z" clip-rule="evenodd" stroke-width="1"></path>
  </g>
</svg>