<svg xmlns="http://www.w3.org/2000/svg" fill="none" viewBox="0 0 14 14"><g id="bill-1--billing-bills-payment-finance-cash-currency-money-accounting"><path id="Union" fill="#3e3e3e" fill-rule="evenodd" d="M1.5 0C.699 0 0 .62 0 1.445v5.671c0 .824.699 1.445 1.5 1.445h11c.802 0 1.5-.62 1.5-1.445v-5.67C14 .62 13.302 0 12.5 0h-11ZM7 2.477a1.803 1.803 0 1 0 0 3.607 1.803 1.803 0 0 0 0-3.607ZM3.529 4.502a.752.752 0 1 1-1.504 0 .752.752 0 0 1 1.504 0Zm7.694.752a.752.752 0 1 0 0-1.504.752.752 0 0 0 0 1.504ZM1.086 10.56a.75.75 0 0 1 .75-.75h10.329a.75.75 0 1 1 0 1.5H1.835a.75.75 0 0 1-.75-.75Zm1.689 1.906a.75.75 0 0 0 0 1.5h8.45a.75.75 0 0 0 0-1.5h-8.45Z" clip-rule="evenodd"></path></g></svg>