<svg xmlns="http://www.w3.org/2000/svg" fill="none" viewBox="0 0 14 14"><g id="bill-4--accounting-billing-payment-finance-cash-currency-money-bill-dollar-stack"><path id="Union" fill="#3e3e3e" fill-rule="evenodd" d="M0 2.65c0-.815.709-1.4 1.485-1.4h8.376c.777 0 1.486.585 1.486 1.4v5.396c0 .815-.71 1.4-1.486 1.4H1.485C.71 9.445 0 8.86 0 8.045V2.649Zm4.144 2.698a1.53 1.53 0 1 1 3.059 0 1.53 1.53 0 0 1-3.06 0ZM1.346 5.25a.75.75 0 1 1 1.5 0 .75.75 0 0 1-1.5 0ZM9.25 4.5a.75.75 0 1 0 0 1.5.75.75 0 0 0 0-1.5Zm4.716.848a.75.75 0 0 0-1.5 0v5a.25.25 0 0 1-.25.25h-9a.75.75 0 1 0 0 1.5h9a1.75 1.75 0 0 0 1.75-1.75v-5Z" clip-rule="evenodd"></path></g></svg>