<svg xmlns="http://www.w3.org/2000/svg" fill="none" viewBox="0 0 14 14"><g id="building-2--real-home-tower-building-house-estate"><path id="Subtract" fill="#3e3e3e" fill-rule="evenodd" d="M4.521.138a.5.5 0 0 0-.69 0l-3.676 3.5A.5.5 0 0 0 0 4v9.5a.5.5 0 0 0 .5.5h2.676v-2a1 1 0 1 1 2 0v2h2.677a.5.5 0 0 0 .5-.5V4a.5.5 0 0 0-.156-.362L4.521.138ZM9.77 6.5a.5.5 0 0 1 .5-.5h3.23a.5.5 0 0 1 .5.5v7a.5.5 0 0 1-.5.5h-3.231a.5.5 0 0 1-.5-.5v-7ZM2.173 7.763c0-.345.28-.625.625-.625h2.757a.625.625 0 1 1 0 1.25H2.798a.625.625 0 0 1-.625-.625Zm.625-3.232a.625.625 0 1 0 0 1.25h2.757a.625.625 0 1 0 0-1.25H2.798Z" clip-rule="evenodd"></path></g></svg>