<svg xmlns="http://www.w3.org/2000/svg" fill="none" viewBox="0 0 14 14"><g id="business-user-curriculum"><path id="Subtract" fill="#3e3e3e" fill-rule="evenodd" d="M1.44.44A1.5 1.5 0 0 1 2.5 0h6a.5.5 0 0 1 .354.146l4 4A.5.5 0 0 1 13 4.5v8a1.5 1.5 0 0 1-1.5 1.5h-9A1.5 1.5 0 0 1 1 12.5v-11c0-.398.158-.78.44-1.06Zm3.515 3.51a1.024 1.024 0 1 0 0-2.048 1.024 1.024 0 0 0 0 2.048ZM2.876 8.5c0-.345.279-.625.624-.625h7a.626.626 0 0 1 .002 1.25h-7a.626.626 0 0 1-.626-.625Zm0 3c0-.345.279-.625.624-.625h4a.626.626 0 0 1 .002 1.25h-4a.626.626 0 0 1-.626-.625Zm2.08-6.866c-.7 0-1.339.263-1.822.696-.287.257-.063.67.322.67h2.998c.386 0 .61-.413.323-.67a2.721 2.721 0 0 0-1.822-.696Z" clip-rule="evenodd"></path></g></svg>