<svg xmlns="http://www.w3.org/2000/svg" fill="none" viewBox="0 0 14 14" id="Calculator-1--Streamline-Core">
  <desc>
    Calculator 1 Streamline Icon: https://streamlinehq.com
  </desc>
  <g id="calculator-1--shop-shopping-pay-payment-store-cash-calculate-math">
    <path id="Union" fill="#000000" fill-rule="evenodd" d="M2.56885 1.74841c0 -0.12271 0.09548 -0.20483 0.19202 -0.20483h8.47823c0.0965 0 0.192 0.08212 0.192 0.20483v3.41513H2.56885V1.74841ZM2.76087 0.0435791c-0.94399 0 -1.69202 0.7728569 -1.69202 1.7048309V12.2515c0 0.932 0.74803 1.7048 1.69202 1.7048h8.47823c0.944 0 1.692 -0.7728 1.692 -1.7048V1.74841c0 -0.931974 -0.748 -1.7048309 -1.692 -1.7048309H2.76087ZM3.82904 8.71918c0.41421 0 0.75 -0.33579 0.75 -0.75 0 -0.41422 -0.33579 -0.75 -0.75 -0.75s-0.75 0.33578 -0.75 0.75c0 0.41421 0.33579 0.75 0.75 0.75Zm3.17094 0c0.41421 0 0.75 -0.33579 0.75 -0.75 0 -0.41422 -0.33579 -0.75 -0.75 -0.75 -0.41422 0 -0.75 0.33578 -0.75 0.75 0 0.41421 0.33578 0.75 0.75 0.75Zm3.92092 -0.75c0 0.41421 -0.3358 0.75 -0.75 0.75s-0.74999 -0.33579 -0.74999 -0.75c0 -0.41422 0.33579 -0.75 0.74999 -0.75 0.4142 0 0.75 0.33578 0.75 0.75ZM3.82904 11.9444c0.41421 0 0.75 -0.3358 0.75 -0.75s-0.33579 -0.75 -0.75 -0.75 -0.75 0.3358 -0.75 0.75 0.33579 0.75 0.75 0.75Zm3.92094 -0.75c0 0.4142 -0.33579 0.75 -0.75 0.75 -0.41422 0 -0.75 -0.3358 -0.75 -0.75s0.33578 -0.75 0.75 -0.75c0.41421 0 0.75 0.3358 0.75 0.75Zm2.42092 0.75c0.4142 0 0.75 -0.3358 0.75 -0.75s-0.3358 -0.75 -0.75 -0.75 -0.74999 0.3358 -0.74999 0.75 0.33579 0.75 0.74999 0.75ZM8.46411 2.8017c-0.34518 0 -0.625 0.27982 -0.625 0.625 0 0.34517 0.27982 0.625 0.625 0.625h1.41846c0.34523 0 0.62503 -0.27983 0.62503 -0.625 0 -0.34518 -0.2798 -0.625 -0.62503 -0.625l-1.41846 0Z" clip-rule="evenodd" stroke-width="1"></path>
  </g>
</svg>