<svg xmlns="http://www.w3.org/2000/svg" fill="none" viewBox="0 0 14 14"><g id="coins-stack--accounting-billing-payment-stack-cash-coins-currency-money-finance"><path id="Union" fill="#3e3e3e" fill-rule="evenodd" d="M.123 5.583v1.703c0 .968 1.55 1.782 3.627 1.962V6.714l.003-.12C2.6 6.512 1.55 6.267.727 5.9a5.147 5.147 0 0 1-.604-.317Zm9-3.583v1.47c-1.236.041-2.397.28-3.313.688-.502.223-.986.522-1.362.916-.085.09-.168.188-.244.293-1.187-.044-2.223-.277-2.967-.609-.416-.185-.714-.39-.899-.585a.826.826 0 0 1-.215-.348V2c0-1.105 2.014-2 4.5-2 2.485 0 4.5.895 4.5 2Zm-4.5.931c1.735 0 3.142-.404 3.142-.903 0-.5-1.407-.904-3.143-.904-1.735 0-3.142.405-3.142.904s1.407.903 3.142.903ZM5 12v-1.703c.188.116.391.222.605.317 1.025.458 2.4.725 3.895.725 1.494 0 2.87-.267 3.895-.725.214-.095.417-.2.605-.317V12c0 1.1-2 2-4.5 2S5 13.1 5 12Zm.216-3.113A.826.826 0 0 1 5 8.54V6.714c0-1.104 2.015-2 4.5-2s4.5.896 4.5 2V8.54a.825.825 0 0 1-.216.348c-.185.195-.482.4-.898.586-.83.37-2.025.616-3.386.616-1.361 0-2.555-.246-3.386-.616-.416-.186-.713-.39-.898-.586Zm7.426-2.145c0 .5-1.407.904-3.142.904-1.736 0-3.142-.405-3.142-.904s1.406-.904 3.142-.904c1.735 0 3.142.405 3.142.904Z" clip-rule="evenodd"></path></g></svg>