<svg xmlns="http://www.w3.org/2000/svg" fill="none" viewBox="0 0 14 14" id="Diamond-2--Streamline-Core">
  <desc>
    Diamond 2 Streamline Icon: https://streamlinehq.com
  </desc>
  <g id="diamond-2--diamond-money-payment-finance-wealth-jewelry">
    <path id="Subtract" fill="#000000" fill-rule="evenodd" d="M6.40794 1.03998h1.21284l1.71711 3.69076H4.68377l1.72417 -3.69076ZM3.30409 4.73074l1.72418 -3.69076H3.36001v-0.00019l-0.01372 0.00038c-0.24627 0.00676 -0.48748 0.07138 -0.70415 0.18864 -0.21511 0.11641 -0.40003 0.28147 -0.54003 0.48197L0.284674 4.22724l-0.000019 -0.00002 -0.002785 0.00394c-0.107762 0.15228 -0.1863858 0.32165 -0.2333776 0.49958H3.30409Zm-3.050343 1.25H3.27787l1.92154 6.16036L0.364828 6.12886c-0.040107 -0.04731 -0.077174 -0.09678 -0.111081 -0.14812Zm4.333523 0h4.8466L7.10325 13.4833c-0.0343 0.0024 -0.06873 0.0036 -0.10324 0.0036 -0.02403 0 -0.04802 -0.0006 -0.07197 -0.0018L4.58727 5.98074Zm6.15553 0L8.84707 12.0833l4.78813 -5.95443c0.0401 -0.04731 0.0772 -0.09679 0.1111 -0.14813h-3.0035Zm3.2087 -1.25c-0.047 -0.17793 -0.1256 -0.3473 -0.2333 -0.49958l0 -0.00001 -0.0028 -0.00391 -1.8175 -2.51646c-0.14 -0.20051 -0.3249 -0.36556 -0.54 -0.48197 -0.2167 -0.11726 -0.4579 -0.18188 -0.7042 -0.18864l0 -0.00019H8.99944l1.71706 3.69076h3.235Z" clip-rule="evenodd" stroke-width="1"></path>
  </g>
</svg>