<svg xmlns="http://www.w3.org/2000/svg" fill="none" viewBox="0 0 14 14" id="Discount-Percent-Fire--Streamline-Core">
  <desc>
    Discount Percent Fire Streamline Icon: https://streamlinehq.com
  </desc>
  <g id="discount-percent-fire--shop-shops-stores-discount-coupon-hot-trending">
    <path id="Subtract" fill="#000000" fill-rule="evenodd" d="M5.36546 0.2631c0.12475 -0.141495 0.31852 -0.2007364 0.50106 -0.153192C6.97561 0.398767 8.67995 1.14923 10.116 2.48749c1.4466 1.34821 2.6311 3.30545 2.6311 5.97488 0 1.05636 -0.2371 2.34913 -1.0577 3.42093 -0.834 1.0894 -2.21736 1.8806 -4.36363 2.013l-0.00574 0.0004c-2.85979 0.1435 -4.8684 -1.3423 -5.67543 -3.3897 -0.799604 -2.0286 -0.39813 -4.55272 1.4044 -6.46806 0.09642 -0.10246 0.23155 -0.15955 0.37222 -0.15727 0.14068 0.00229 0.27388 0.06373 0.36693 0.16926l1.2661 1.43596c0.46286 -0.82612 0.68804 -1.54625 0.72198 -2.26674 0.03452 -0.73282 -0.1268 -1.50749 -0.49999 -2.440739C5.20621 0.604258 5.2407 0.404596 5.36546 0.2631Zm-0.05027 7.60445c0 -0.41421 0.33578 -0.75 0.75 -0.75 0.41421 0 0.75 0.33579 0.75 0.75 0 0.41422 -0.33579 0.75 -0.75 0.75 -0.41422 0 -0.75 -0.33578 -0.75 -0.75Zm3.98918 0.12645c0.19526 -0.19527 0.19526 -0.51185 0 -0.70711s-0.51185 -0.19526 -0.70711 0L5.31393 10.5702c-0.19527 0.1953 -0.19527 0.5119 0 0.7071 0.19526 0.1953 0.51184 0.1953 0.7071 0L9.30437 7.994Zm-1.33025 2.7027c0 -0.4143 0.33579 -0.75004 0.75 -0.75004s0.75 0.33574 0.75 0.75004c0 0.4142 -0.33579 0.75 -0.75 0.75s-0.75 -0.3358 -0.75 -0.75Z" clip-rule="evenodd" stroke-width="1"></path>
  </g>
</svg>