<svg xmlns="http://www.w3.org/2000/svg" fill="none" viewBox="0 0 14 14" id="Discount-Percent-Cutout--Streamline-Core">
  <desc>
    Discount Percent Cutout Streamline Icon: https://streamlinehq.com
  </desc>
  <g id="discount-percent-cutout--store-shop-shops-stores-discount-coupon">
    <path id="Union" fill="#000000" fill-rule="evenodd" d="M1.61972 1.61966c0.03793 -0.03793 0.08936 -0.05924 0.143 -0.05924 0.41421 0 0.75 -0.33578 0.75 -0.749995 0 -0.414214 -0.33579 -0.7500002 -0.75 -0.7500002 -0.45146 0 -0.884431 0.1793422 -1.203661 0.4985732C0.239828 0.878228 0.0604858 1.3112 0.0604858 1.76266c0 0.41421 0.3357862 0.75 0.7500002 0.75s0.750004 -0.33579 0.750004 -0.75c0 -0.05364 0.0213 -0.10508 0.05923 -0.143ZM11.4873 0.810425c0 -0.414214 0.3358 -0.7500002 0.75 -0.7500002 0.4514 0 0.8844 0.1793422 1.2036 0.4985732 0.3193 0.31923 0.4986 0.752202 0.4986 1.203662 0 0.41421 -0.3358 0.75 -0.75 0.75s-0.75 -0.33579 -0.75 -0.75c0 -0.05364 -0.0213 -0.10508 -0.0592 -0.143 -0.038 -0.03793 -0.0894 -0.05924 -0.143 -0.05924 -0.4142 0 -0.75 -0.33578 -0.75 -0.749995ZM4.82532 3.64033c-0.65443 0 -1.18494 0.53051 -1.18494 1.18493 0 0.65443 0.53051 1.18494 1.18494 1.18494 0.65442 0 1.18493 -0.53051 1.18493 -1.18494 0 -0.65442 -0.53051 -1.18493 -1.18493 -1.18493Zm5.0856 1.50936L5.14975 9.91086c-0.2929 0.29294 -0.76777 0.29294 -1.06066 0 -0.2929 -0.29289 -0.2929 -0.76776 0 -1.06066l4.76117 -4.76117c0.29289 -0.29289 0.76776 -0.29289 1.06066 0 0.29288 0.2929 0.29288 0.76777 0 1.06066Zm-0.73624 2.84c-0.65442 0 -1.18493 0.53051 -1.18493 1.18493s0.53051 1.18498 1.18493 1.18498 1.18492 -0.53056 1.18492 -1.18498c0 -0.65442 -0.5305 -1.18493 -1.18492 -1.18493ZM0.810486 11.4872c0.414214 0 0.750004 0.3358 0.750004 0.75 0 0.0537 0.0213 0.1051 0.05923 0.143 0.03793 0.038 0.08936 0.0593 0.143 0.0593 0.41421 0 0.75 0.3358 0.75 0.75s-0.33579 0.75 -0.75 0.75c-0.45146 0 -0.884431 -0.1794 -1.203661 -0.4986 -0.319231 -0.3192 -0.4985732 -0.7522 -0.4985732 -1.2037 0 -0.4142 0.3357862 -0.75 0.7500002 -0.75Zm13.129014 0.75c0 -0.4142 -0.3358 -0.75 -0.75 -0.75s-0.75 0.3358 -0.75 0.75c0 0.0537 -0.0213 0.1051 -0.0592 0.143 -0.038 0.038 -0.0894 0.0593 -0.143 0.0593 -0.4142 0 -0.75 0.3358 -0.75 0.75s0.3358 0.75 0.75 0.75c0.4514 0 0.8844 -0.1794 1.2036 -0.4986 0.3193 -0.3192 0.4986 -0.7522 0.4986 -1.2037ZM3.86942 0.810425c0 -0.414214 0.33578 -0.7500002 0.75 -0.7500002h0.95223c0.41421 0 0.75 0.3357862 0.75 0.7500002 0 0.414215 -0.33579 0.749995 -0.75 0.749995h-0.95223c-0.41422 0 -0.75 -0.33578 -0.75 -0.749995ZM8.42834 0.0604248c-0.41421 0 -0.75 0.3357862 -0.75 0.7500002 0 0.414215 0.33579 0.749995 0.75 0.749995h0.95224c0.41421 0 0.75002 -0.33578 0.75002 -0.749995 0 -0.414214 -0.33581 -0.7500002 -0.75002 -0.7500002h-0.95224ZM3.86942 13.1895c0 -0.4142 0.33578 -0.75 0.75 -0.75h0.95223c0.41421 0 0.75 0.3358 0.75 0.75s-0.33579 0.75 -0.75 0.75h-0.95223c-0.41422 0 -0.75 -0.3358 -0.75 -0.75Zm4.55892 -0.75c-0.41421 0 -0.75 0.3358 -0.75 0.75s0.33579 0.75 0.75 0.75h0.95224c0.41421 0 0.75002 -0.3358 0.75002 -0.75s-0.33581 -0.75 -0.75002 -0.75h-0.95224Zm4.76116 -8.57014c0.4142 0 0.75 0.33579 0.75 0.75v0.95224c0 0.41421 -0.3358 0.75 -0.75 0.75s-0.75 -0.33579 -0.75 -0.75v-0.95224c0 -0.41421 0.3358 -0.75 0.75 -0.75Zm0.75 4.55894c0 -0.41421 -0.3358 -0.75 -0.75 -0.75s-0.75 0.33579 -0.75 0.75v0.95223c0 0.41422 0.3358 0.74997 0.75 0.74997s0.75 -0.33575 0.75 -0.74997V8.4283ZM0.810486 3.86936c0.414214 0 0.750004 0.33579 0.750004 0.75v0.95224c0 0.41421 -0.33579 0.75 -0.750004 0.75s-0.7500002 -0.33579 -0.7500002 -0.75v-0.95224c0 -0.41421 0.3357862 -0.75 0.7500002 -0.75ZM1.56049 8.4283c0 -0.41421 -0.33579 -0.75 -0.750004 -0.75s-0.7500002 0.33579 -0.7500002 0.75v0.95223c0 0.41422 0.3357862 0.74997 0.7500002 0.74997s0.750004 -0.33575 0.750004 -0.74997V8.4283Z" clip-rule="evenodd" stroke-width="1"></path>
  </g>
</svg>