<svg xmlns="http://www.w3.org/2000/svg" fill="none" viewBox="0 0 14 14" id="Graph-Arrow-Increase--Streamline-Core">
  <desc>
    Graph Arrow Increase Streamline Icon: https://streamlinehq.com
  </desc>
  <g id="graph-arrow-increase--ascend-growth-up-arrow-stats-graph-right-grow">
    <path id="Union" fill="#000000" fill-rule="evenodd" d="M1.8976 10.7777c-0.39053 0.3905 -1.023692 0.3905 -1.414216 0 -0.3905244 -0.3906 -0.3905244 -1.02373 0 -1.41425L3.81584 6.031l-0.00004 -0.00004 0.00714 -0.007c0.27227 -0.26687 0.63831 -0.41635 1.01955 -0.41635 0.38125 0 0.74729 0.14948 1.01955 0.41635l0.00004 -0.00004 0.00707 0.00708 1.70117 1.70117 2.3467 -2.48245 -1.03985 -1.03985c-0.2145 -0.2145 -0.27866 -0.53709 -0.16258 -0.81734 0.11609 -0.28026 0.38956 -0.46299 0.69291 -0.46299h3.652c0.4142 0 0.75 0.33579 0.75 0.75v3.652c0 0.30335 -0.1827 0.57683 -0.463 0.69291 -0.2802 0.11609 -0.6028 0.05192 -0.8173 -0.16258l-1.1974 -1.19738 -2.70406 2.86047c-0.00872 0.00923 -0.01762 0.0183 -0.02669 0.02719 -0.27226 0.26687 -0.63831 0.41635 -1.01955 0.41635 -0.38125 0 -0.74729 -0.14948 -1.01955 -0.41635l-0.00004 0.00003 -0.00707 -0.00707 -1.71235 -1.71234L1.8976 10.7777Z" clip-rule="evenodd" stroke-width="1"></path>
  </g>
</svg>