<svg xmlns="http://www.w3.org/2000/svg" fill="none" viewBox="0 0 14 14"><g id="justice-scale-1--office-work-scale-justice-company-arbitration-balance-court"><path id="Union" fill="#3e3e3e" fill-rule="evenodd" d="M7.75 2.306a.75.75 0 0 0-1.5 0v1.127H1.836a.75.75 0 0 0 0 1.5h.32L.196 10.08a.75.75 0 0 0-.049.267 3.097 3.097 0 1 0 6.195 0 .75.75 0 0 0-.05-.267l-1.96-5.147h5.335l-1.96 5.147a.75.75 0 0 0-.049.267 3.097 3.097 0 1 0 6.195 0 .749.749 0 0 0-.05-.267l-1.96-5.147h.32a.75.75 0 0 0 0-1.5H7.75V2.306ZM4.657 10 3.244 6.29 1.833 10h2.825Zm6.098-3.71L12.168 10H9.343l1.412-3.71Z" clip-rule="evenodd"></path></g></svg>