<svg xmlns="http://www.w3.org/2000/svg" fill="none" viewBox="0 0 14 14"><g id="mouth-lip--fashion-beauty-mouth-lip"><path id="Subtract" fill="#3e3e3e" fill-rule="evenodd" d="M13.722 6.865a6.738 6.738 0 0 0-.198-.442 5.952 5.952 0 0 0-1.168-1.639c-.564-.546-1.33-1.02-2.324-1.143-.896-.112-1.905.07-3.032.633-1.127-.563-2.137-.745-3.033-.633-.993.123-1.76.597-2.324 1.143a5.954 5.954 0 0 0-1.167 1.64 6.748 6.748 0 0 0-.198.441h13.444ZM.334 8.115A7.928 7.928 0 0 0 1.76 9.837C2.855 10.83 4.566 11.82 7 11.82s4.145-.99 5.239-1.982a7.924 7.924 0 0 0 1.426-1.722H.335Z" clip-rule="evenodd"></path></g></svg>