<svg xmlns="http://www.w3.org/2000/svg" fill="none" viewBox="0 0 14 14"><g id="receipt--shop-shopping-pay-payment-store-cash-bill-receipt"><path id="Subtract" fill="#3e3e3e" fill-rule="evenodd" d="M.732.732A2.5 2.5 0 0 1 2.5 0H12a2 2 0 0 1 2 2v3.5a.5.5 0 0 1-.5.5h-1.245V2.5a.625.625 0 1 0-1.25 0V6H11v7.5a.5.5 0 0 1-.757.429L8 12.583 5.757 13.93a.5.5 0 0 1-.514 0L3 12.583.757 13.93A.5.5 0 0 1 0 13.5v-11A2.5 2.5 0 0 1 .732.732ZM5.5 2a.75.75 0 0 1 .75.75v.528a1.999 1.999 0 0 1 1.553 1.305.75.75 0 0 1-1.415.5.5.5 0 0 0-.471-.333h-.968a.366.366 0 0 0-.078.723l1.473.322a2 2 0 0 1-.094 3.927v.528a.75.75 0 0 1-1.5 0v-.528a2.003 2.003 0 0 1-1.553-1.305.75.75 0 0 1 1.415-.5.5.5 0 0 0 .471.333h.834a.5.5 0 0 0 .107-.99L4.55 6.939a1.866 1.866 0 0 1 .2-3.677V2.75A.75.75 0 0 1 5.5 2Z" clip-rule="evenodd"></path></g></svg>