<svg xmlns="http://www.w3.org/2000/svg" fill="none" viewBox="0 0 14 14" id="Stock--Streamline-Core">
  <desc>
    Stock Streamline Icon: https://streamlinehq.com
  </desc>
  <g id="stock--price-stock-wallstreet-dollar-money-currency-fluctuate-candlestick-business">
    <path id="Union" fill="#000000" fill-rule="evenodd" d="M11.7977 0.125732c0.4142 0 0.75 0.335787 0.75 0.75v0.780618c0.2336 0.06242 0.4555 0.15794 0.6532 0.29233 0.4248 0.28877 0.7177 0.7507 0.7177 1.32907 0 0.41421 -0.3357 0.75 -0.75 0.75 -0.4142 0 -0.75 -0.33579 -0.75 -0.75 0 -0.02549 -0.0049 -0.03415 -0.0066 -0.03727l-0.0001 -0.00021c-0.0029 -0.00515 -0.0152 -0.02452 -0.0543 -0.05107 -0.0855 -0.05816 -0.2681 -0.12664 -0.56 -0.12664 -0.2063 0 -0.3544 0.00061 -0.4793 0.01199 -0.0565 0.00515 -0.0976 0.01172 -0.1271 0.01838 -0.007 0.03474 -0.0146 0.09346 -0.0146 0.18482 0 0.0771 0.0209 0.15642 0.1718 0.2882 0.1772 0.15478 0.4337 0.29375 0.7973 0.48428l0.0349 0.01825c0.3175 0.16622 0.7281 0.38115 1.0529 0.66488 0.3633 0.31722 0.6851 0.77671 0.6851 1.418 0 0.30895 -0.0453 0.61518 -0.1803 0.88933 -0.144 0.29248 -0.3657 0.49853 -0.6266 0.62754 -0.1908 0.0943 -0.3881 0.14039 -0.564 0.16482v0.72028c0 0.41421 -0.3358 0.75 -0.75 0.75s-0.75 -0.33579 -0.75 -0.75v-0.76228c-0.2178 -0.04931 -0.4315 -0.12748 -0.626 -0.24763 -0.48019 -0.29676 -0.74506 -0.78837 -0.74506 -1.39206 0 -0.41421 0.33576 -0.75 0.74996 -0.75 0.4142 0 0.75 0.33579 0.75 0.75 0 0.04036 0.0041 0.06646 0.0075 0.08133 0.0031 0.01365 0.0061 0.0193 0.0064 0.0199l0.0004 0.00041c0.001 0.0011 0.0063 0.00636 0.0194 0.01441 0.0679 0.04195 0.2419 0.09843 0.581 0.09913l0.0064 -0.00002 0.0071 0.00003c0.2026 -0.00002 0.3487 -0.00074 0.4722 -0.01199 0.0565 -0.00515 0.0976 -0.01172 0.1271 -0.01838 0.007 -0.03474 0.0145 -0.09346 0.0145 -0.18482 0 -0.0771 -0.0208 -0.15642 -0.1717 -0.2882 -0.1773 -0.15478 -0.4337 -0.29375 -0.7974 -0.48428l-0.0348 -0.01825c-0.3175 -0.16622 -0.7281 -0.38114 -1.053 -0.66488 -0.3632 -0.31722 -0.68506 -0.77671 -0.68506 -1.418 0 -0.30895 0.04532 -0.61518 0.18032 -0.88933 0.14404 -0.29248 0.36574 -0.49852 0.62664 -0.62754 0.1908 -0.09431 0.3881 -0.1404 0.5641 -0.16483V0.875732c0 -0.414213 0.3358 -0.75 0.75 -0.75ZM4.0813 4.46307c0 -0.74325 -0.54057 -1.36024 -1.25 -1.47926V0.875732c0 -0.414213 -0.33579 -0.75 -0.75 -0.75s-0.75 0.335787 -0.75 0.75V2.98381C0.62187 3.10283 0.0812988 3.71982 0.0812988 4.46307v4.5c0 0.74325 0.5405712 1.36023 1.2500012 1.47923v1.0208c0 0.4142 0.33579 0.75 0.75 0.75s0.75 -0.3358 0.75 -0.75v-1.0208c0.70943 -0.119 1.25 -0.73598 1.25 -1.47923v-4.5Zm2.25 2.52074c-0.70943 0.11902 -1.25 0.73601 -1.25 1.47926v1.5c0 0.74323 0.54057 1.36023 1.25 1.47923v1.6822c0 0.4142 0.33579 0.75 0.75 0.75s0.75 -0.3358 0.75 -0.75v-1.6822c0.70943 -0.119 1.25 -0.736 1.25 -1.47923v-1.5c0 -0.74325 -0.54057 -1.36024 -1.25 -1.47926V3.96307c0 -0.41421 -0.33579 -0.75 -0.75 -0.75s-0.75 0.33579 -0.75 0.75v3.02074Z" clip-rule="evenodd" stroke-width="1"></path>
  </g>
</svg>