<svg xmlns="http://www.w3.org/2000/svg" fill="none" viewBox="0 0 14 14"><g id="stock--price-stock-wallstreet-dollar-money-currency-fluctuate-candlestick-business"><path id="Union" fill="#3e3e3e" fill-rule="evenodd" d="M11.798.126a.75.75 0 0 1 .75.75v.78c.233.063.455.158.653.293.425.288.718.75.718 1.329a.75.75 0 1 1-1.5 0c0-.026-.005-.034-.007-.038a.17.17 0 0 0-.054-.05c-.086-.059-.269-.127-.56-.127-.207 0-.355 0-.48.012a1.002 1.002 0 0 0-.127.018.953.953 0 0 0-.014.185c0 .077.02.156.171.288.178.155.434.294.798.484l.035.018c.317.167.728.382 1.053.665.363.318.685.777.685 1.418 0 .31-.046.616-.18.89a1.359 1.359 0 0 1-.627.627c-.191.095-.388.14-.564.165v.72a.75.75 0 0 1-1.5 0v-.762a2.043 2.043 0 0 1-.626-.248c-.48-.296-.745-.788-.745-1.392a.75.75 0 1 1 1.5 0c0 .04.004.067.007.082a.06.06 0 0 0 .007.02.097.097 0 0 0 .02.014c.067.042.241.099.58.1h.014c.202 0 .348-.001.472-.012.057-.006.098-.012.127-.019a.955.955 0 0 0 .015-.185c0-.077-.021-.156-.172-.288-.177-.155-.434-.294-.797-.484l-.035-.018c-.318-.167-.728-.382-1.053-.665-.364-.317-.685-.777-.685-1.418 0-.31.045-.615.18-.89a1.36 1.36 0 0 1 .627-.627c.19-.094.388-.14.564-.165v-.72a.75.75 0 0 1 .75-.75ZM4.08 4.463a1.5 1.5 0 0 0-1.25-1.48V.877a.75.75 0 0 0-1.5 0v2.108a1.5 1.5 0 0 0-1.25 1.48v4.5a1.5 1.5 0 0 0 1.25 1.478v1.021a.75.75 0 0 0 1.5 0v-1.02a1.5 1.5 0 0 0 1.25-1.48v-4.5Zm2.25 2.52a1.5 1.5 0 0 0-1.25 1.48v1.5a1.5 1.5 0 0 0 1.25 1.48v1.681a.75.75 0 0 0 1.5 0v-1.682a1.5 1.5 0 0 0 1.25-1.479v-1.5a1.5 1.5 0 0 0-1.25-1.48v-3.02a.75.75 0 0 0-1.5 0v3.02Z" clip-rule="evenodd"></path></g></svg>