<svg xmlns="http://www.w3.org/2000/svg" fill="none" viewBox="0 0 14 14" id="Store-Computer--Streamline-Core">
  <desc>
    Store Computer Streamline Icon: https://streamlinehq.com
  </desc>
  <g id="store-computer--store-shop-shops-stores-online-computer-website-desktop-app">
    <path id="Subtract" fill="#000000" fill-rule="evenodd" d="M2.183 0.367a0.441 0.441 0 0 1 0.4 -0.255h8.828c0.171 0 0.327 0.1 0.4 0.255l1.324 2.832a0.44 0.44 0 0 1 0.04 0.224h0.002v0.834c0 0.462 -0.2 0.906 -0.556 1.233 -0.356 0.326 -0.838 0.51 -1.341 0.51h-0.237a1.99 1.99 0 0 1 -1.342 -0.51 1.757 1.757 0 0 1 -0.346 -0.437c-0.105 -0.168 -0.308 -0.172 -0.424 0.009 -0.088 0.156 -0.203 0.3 -0.341 0.428A1.99 1.99 0 0 1 7.248 6h-0.474c-0.503 0 -0.985 -0.184 -1.341 -0.51a1.754 1.754 0 0 1 -0.36 -0.461c-0.105 -0.137 -0.286 -0.138 -0.398 0.011 -0.09 0.165 -0.21 0.317 -0.354 0.45 -0.355 0.326 -0.838 0.51 -1.341 0.51h-0.266c-0.503 0 -0.985 -0.184 -1.341 -0.51a1.674 1.674 0 0 1 -0.556 -1.233v-0.834H0.82a0.441 0.441 0 0 1 0.04 -0.224L2.183 0.367ZM1.662 10.5V7.078a3.3 3.3 0 0 0 1.052 0.172h0.266l0.02 0V10h8V7.25l0.043 0h0.237a3.3 3.3 0 0 0 1.058 -0.174V10.5a1 1 0 0 1 -1 1H8.577l0.6 1.5H10a0.5 0.5 0 0 1 0 1H4a0.5 0.5 0 0 1 0 -1h0.823l0.6 -1.5H2.662a1 1 0 0 1 -1 -1Z" clip-rule="evenodd" stroke-width="1"></path>
  </g>
</svg>