<svg xmlns="http://www.w3.org/2000/svg" fill="none" viewBox="0 0 14 14" id="Store-1--Streamline-Core">
  <desc>
    Store 1 Streamline Icon: https://streamlinehq.com
  </desc>
  <g id="store-1--store-shop-shops-stores">
    <path id="Union" fill="#000000" fill-rule="evenodd" d="M1.99997 0c-0.19413 0 -0.37072 0.112374 -0.45293 0.288238L0.0470579 3.49662c-0.03755694 0.08033 -0.0524739 0.16773 -0.04532204 0.25338H0v0.94541c0 0.52356 0.2264 1.02567 0.629395 1.39588 0.402995 0.37021 0.949575 0.57819 1.519495 0.57819h0.30084c0.56992 0 1.1165 -0.20798 1.51949 -0.57819 0.16362 -0.1503 0.29812 -0.32234 0.40018 -0.50874 0.12665 -0.1698 0.33248 -0.16863 0.45133 -0.01312 0.1029 0.19144 0.23986 0.36804 0.4073 0.52186 0.403 0.37021 0.94957 0.57819 1.51949 0.57819h0.53723c0.56992 0 1.11649 -0.20798 1.51949 -0.57819 0.15655 -0.14382 0.28646 -0.30755 0.38679 -0.48471 0.1311 -0.20409 0.36079 -0.19978 0.47993 -0.00933 0.10104 0.18074 0.23274 0.3477 0.39204 0.49404 0.403 0.37021 0.9496 0.57819 1.5195 0.57819h0.2686c0.5699 0 1.1165 -0.20798 1.5195 -0.57819S14 5.21897 14 4.69541V3.75h-0.0019c0.0071 -0.08565 -0.0078 -0.17305 -0.0454 -0.25338L12.4528 0.288238C12.3705 0.112374 12.194 0 11.9998 0H1.99997ZM1 13V7.72853c1.18817 0.39265 2.60487 0.21772 3.57848 -0.53556 1.29708 1.00355 3.54827 1.00356 4.84535 0.00001 0.97777 0.75648 2.39207 0.92824 3.57617 0.5263V13c0 0.2652 -0.1054 0.5196 -0.2929 0.7071 -0.1875 0.1876 -0.4419 0.2929 -0.7071 0.2929h-1.2555v-3.7898c0 -0.0582 -0.0252 -0.114 -0.0701 -0.1552 -0.0449 -0.0411 -0.1057 -0.06425 -0.1692 -0.06425H8.51271c-0.06346 0 -0.12432 0.02315 -0.16919 0.06425 -0.04487 0.0412 -0.07008 0.097 -0.07008 0.1552V14H2c-0.26522 0 -0.51957 -0.1053 -0.70711 -0.2929C1.10536 13.5196 1 13.2652 1 13Zm1.50192 -2.2391V9.50002c0 -0.27614 0.22386 -0.5 0.5 -0.5h3.01401c0.27614 0 0.5 0.22386 0.5 0.5v1.26088c0 0.2761 -0.22386 0.5 -0.5 0.5H3.00192c-0.27614 0 -0.5 -0.2239 -0.5 -0.5Z" clip-rule="evenodd" stroke-width="1"></path>
  </g>
</svg>