<svg xmlns="http://www.w3.org/2000/svg" fill="none" viewBox="0 0 24 24" id="Horizontal-Toggle-Button--Streamline-Sharp-Gradient-Free">
  <desc>
    Horizontal Toggle Button Streamline Icon: https://streamlinehq.com
  </desc>
  <g id="Gradient/Interface Essential/horizontal-toggle-button--toggle-adjustment-adjust-button-off-on-horizontal-settings-controls">
    <path id="Subtract" fill="url(#paint0_linear_644_11414)" fill-rule="evenodd" d="M6 1C3.23858 1 1 3.23858 1 6s2.23858 5 5 5h12c2.7614 0 5-2.23858 5-5s-2.2386-5-5-5H6Zm0 12c-2.76142 0-5 2.2386-5 5s2.23858 5 5 5h12c2.7614 0 5-2.2386 5-5s-2.2386-5-5-5H6Zm9.998-8.50195h3.004v3.0039h-3.004v-3.0039ZM5.99805 16.498h-1v3.004h3.0039v-3.004h-2.0039Z" clip-rule="evenodd"></path>
  </g>
  <defs>
    <linearGradient id="paint0_linear_644_11414" x1="1.845" x2="26.919" y1="2.778" y2="16.91" gradientUnits="userSpaceOnUse">
      <stop stop-color="#00d078"></stop>
      <stop offset="1" stop-color="#007df0"></stop>
    </linearGradient>
  </defs>
</svg>