<svg xmlns="http://www.w3.org/2000/svg" fill="none" viewBox="0 0 48 48" id="Bank-Check--Streamline-Kameleon">
  <desc>
    Bank Check Streamline Icon: https://streamlinehq.com
  </desc>
  <path fill="#52c1ff" d="M24.0006 48.0012c13.2553 0 24.0006 -10.7453 24.0006 -24.0006C48.0012 10.7453 37.2559 0 24.0006 0 10.7453 0 0 10.7453 0 24.0006c0 13.2553 10.7453 24.0006 24.0006 24.0006Z" stroke-width="1"></path>
  <path fill="#000000" d="M37.9641 21.3828h-27.928v16.5823h27.928V21.3828Z" stroke-width="1"></path>
  <path fill="#ffffff" fill-rule="evenodd" d="M23.5221 26.3686c-0.1145 0.158 -0.2207 0.3218 -0.3181 0.4909 -0.1964 0.3417 -0.3914 0.765 -0.4722 1.1769 -0.0566 0.2964 -0.214 0.5641 -0.4454 0.7577 -0.2314 0.1937 -0.5227 0.3014 -0.8244 0.3049h-0.0065c-0.5996 0.003 -1.389 0.2356 -2.092 0.5105 -0.3101 0.1219 -0.6155 0.2553 -0.9155 0.4002 -0.0614 0.0861 -0.131 0.166 -0.2078 0.2387 -0.1653 0.1575 -0.3665 0.2932 -0.5659 0.3953 -0.1955 0.1004 -0.4438 0.1964 -0.7087 0.2291 -0.2348 0.0288 -0.6698 0.0262 -1.0189 -0.3041l-0.0088 -0.0066 -0.0043 -0.003c-0.0648 -0.0472 -0.1259 -0.0991 -0.1829 -0.1554 -0.0755 -0.0763 -0.1309 -0.1527 -0.1527 -0.1819l-0.0031 -0.0044 -0.0061 -0.0087c-0.3403 -0.3631 -0.3259 -0.8117 -0.2841 -1.0526 0.0459 -0.2661 0.158 -0.5088 0.2684 -0.6951 0.113 -0.1916 0.2575 -0.3801 0.4181 -0.5324 0.0571 -0.055 0.1256 -0.1134 0.2042 -0.168l0.0314 -0.0689c0.0969 -0.2134 0.2265 -0.5132 0.3561 -0.8575 0.2692 -0.7144 0.4992 -1.5186 0.5062 -2.1265v-0.0052c0.0049 -0.3019 0.114 -0.5928 0.3088 -0.8234 0.1949 -0.2307 0.4635 -0.3869 0.7603 -0.4421 0.4119 -0.0785 0.8365 -0.2714 1.1795 -0.466 0.1698 -0.0964 0.3343 -0.2016 0.4931 -0.3151l1.1918 -1.1852 4.1394 3.2654 -1.6399 1.6325Z" clip-rule="evenodd" stroke-width="1"></path>
  <path fill="#ffffff" d="M37.9641 21.3828h-27.928v3.491h27.928v-3.491Z" stroke-width="1"></path>
  <path fill="#ffffff" d="M30.9826 28.1467c0 0.0578 -0.023 0.1133 -0.0639 0.1542 -0.0409 0.041 -0.0964 0.0639 -0.1543 0.0639h-4.8001c-0.0579 0 -0.1134 -0.0229 -0.1543 -0.0639 -0.0409 -0.0409 -0.0639 -0.0964 -0.0639 -0.1542 0 -0.0579 0.023 -0.1134 0.0639 -0.1543 0.0409 -0.0409 0.0964 -0.0639 0.1543 -0.0639h4.8001c0.0579 0 0.1134 0.023 0.1543 0.0639 0.0409 0.0409 0.0639 0.0964 0.0639 0.1543Z" stroke-width="1"></path>
  <path fill="#ffffff" d="M30.9826 29.892c0 0.0579 -0.023 0.1134 -0.0639 0.1543 -0.0409 0.0409 -0.0964 0.0639 -0.1543 0.0639h-4.8001c-0.0579 0 -0.1134 -0.023 -0.1543 -0.0639 -0.0409 -0.0409 -0.0639 -0.0964 -0.0639 -0.1543 0 -0.0579 0.023 -0.1133 0.0639 -0.1543 0.0409 -0.0409 0.0964 -0.0639 0.1543 -0.0639h4.8001c0.0579 0 0.1134 0.023 0.1543 0.0639 0.0409 0.041 0.0639 0.0964 0.0639 0.1543Z" stroke-width="1"></path>
  <path fill="#ffffff" d="M30.9826 31.6371c0 0.0579 -0.023 0.1134 -0.0639 0.1543 -0.0409 0.0409 -0.0964 0.0639 -0.1543 0.0639h-4.8001c-0.0579 0 -0.1134 -0.023 -0.1543 -0.0639 -0.0409 -0.0409 -0.0639 -0.0964 -0.0639 -0.1543 0 -0.0578 0.023 -0.1133 0.0639 -0.1542 0.0409 -0.041 0.0964 -0.064 0.1543 -0.064h4.8001c0.0579 0 0.1134 0.023 0.1543 0.064 0.0409 0.0409 0.0639 0.0964 0.0639 0.1542Z" stroke-width="1"></path>
  <path fill="#ffffff" d="M33.6807 27.0791c0.1514 0 0.2706 0.1196 0.2706 0.2714v0.1388c0.348 0.0394 0.6823 0.1579 0.9775 0.3465 0.1012 0.0567 0.1893 0.1514 0.1893 0.3028 0 0.0461 -0.0092 0.0917 -0.0271 0.1342 -0.0179 0.0425 -0.044 0.081 -0.0769 0.1132 -0.0329 0.0323 -0.0719 0.0576 -0.1148 0.0747 -0.0428 0.017 -0.0886 0.0253 -0.1346 0.0244 -0.067 -0.0012 -0.1324 -0.0208 -0.189 -0.0567 -0.2208 -0.1322 -0.435 -0.2269 -0.6493 -0.2775v1.2105c0.9583 0.2395 1.3685 0.6244 1.3685 1.2991 0 0.6938 -0.5424 1.1542 -1.3432 1.2297v0.3783c0.0003 0.0357 -0.0065 0.071 -0.02 0.104 -0.0135 0.033 -0.0335 0.063 -0.0587 0.0883 -0.0252 0.0252 -0.0552 0.0451 -0.0882 0.0586 -0.033 0.0136 -0.0684 0.0204 -0.1041 0.0201 -0.0727 0.0008 -0.1428 -0.0273 -0.1948 -0.0781 -0.0521 -0.0508 -0.0818 -0.1202 -0.0827 -0.1929v-0.391c-0.4659 -0.0502 -0.9111 -0.2196 -1.2926 -0.4918 -0.0524 -0.0311 -0.0958 -0.0754 -0.1257 -0.1286 -0.0299 -0.0531 -0.0452 -0.1133 -0.0444 -0.1742 0 -0.1955 0.1514 -0.347 0.3469 -0.347 0.0751 -0.0001 0.1482 0.0242 0.2081 0.0694 0.2963 0.2143 0.5865 0.3596 0.9334 0.4224v-1.2423c-0.9207 -0.2396 -1.3492 -0.5865 -1.3492 -1.2991 0 -0.6746 0.5358 -1.1411 1.3244 -1.2044v-0.1322c0.0003 -0.036 0.0077 -0.0715 0.0218 -0.1046 0.0141 -0.033 0.0346 -0.063 0.0603 -0.0881 0.0257 -0.0252 0.0561 -0.045 0.0895 -0.0583 0.0334 -0.0134 0.0691 -0.02 0.105 -0.0196Zm-0.2531 2.1505v-1.1163c-0.4032 0.038 -0.6048 0.2523 -0.6048 0.5298 0 0.2649 0.12 0.4289 0.6053 0.5865h-0.0005Zm0.4988 0.8762v1.1477c0.4036 -0.0441 0.624 -0.2457 0.624 -0.5485 0 -0.2776 -0.1388 -0.4478 -0.624 -0.5992Z" stroke-width="1"></path>
  <path fill="#ffffff" d="M26.6189 35.3464h-4.3637c-0.3666 0 -0.6533 -0.1047 -0.8536 -0.3107 -0.3735 -0.3844 -0.3556 -1.0071 -0.3403 -1.5565 0.0083 -0.2754 0.0192 -0.6524 -0.0637 -0.7379 -0.0044 -0.0039 -0.0131 -0.0131 -0.0515 -0.0131 -0.2461 0 -0.3509 0.6223 -0.4351 1.1219 -0.1183 0.7013 -0.2522 1.4963 -0.8741 1.4963 -0.2561 0 -0.4494 -0.082 -0.5751 -0.2448 -0.2727 -0.3521 -0.1178 -0.9534 0.0327 -1.5351 0.072 -0.2789 0.192 -0.7458 0.1288 -0.8422 -0.2226 0.0035 -0.3448 0.4023 -0.4726 0.8247 -0.2313 0.7584 -0.5481 1.7974 -1.7324 1.7974 -0.2207 0.0037 -0.439 -0.046 -0.6362 -0.145 -0.1973 -0.0989 -0.3677 -0.2441 -0.4967 -0.4231 -0.6253 0.3369 -1.3152 0.5681 -1.9213 0.5681 -1.1416 0 -1.6526 -0.7047 -1.6526 -1.4033 0 -0.8924 0.7811 -1.8149 2.089 -1.8149 0.0578 0 0.1133 0.023 0.1542 0.0639 0.041 0.0409 0.0639 0.0964 0.0639 0.1543 0 0.0578 -0.0229 0.1133 -0.0639 0.1542 -0.0409 0.041 -0.0964 0.0639 -0.1542 0.0639 -1.0347 0 -1.6526 0.7009 -1.6526 1.3786 0 0.4673 0.3194 0.967 1.2162 0.967 0.5581 0 1.1682 -0.2121 1.7136 -0.5084 -0.0855 -0.2166 -0.1295 -0.4474 -0.1296 -0.6803 0 -0.3897 0.1222 -0.7502 0.3439 -1.0155 0.257 -0.3076 0.6279 -0.4704 1.0726 -0.4704 0.2435 0 0.4276 0.0428 0.5642 0.1314 0.1528 0.0995 0.2374 0.2557 0.2374 0.4398 0 0.5006 -0.6515 1.2092 -1.5037 1.7508 0.0907 0.1126 0.2061 0.2029 0.3372 0.2641 0.131 0.0611 0.2744 0.0914 0.419 0.0885 0.7994 0 1.0486 -0.6166 1.3144 -1.4881 0.1693 -0.5555 0.3438 -1.1302 0.8675 -1.1302 0.1981 0 0.3094 0.0903 0.3683 0.1658 0.1972 0.2549 0.082 0.7013 -0.0524 1.2184 -0.106 0.4115 -0.2518 0.9753 -0.11 1.1586 0.0144 0.0187 0.0585 0.0755 0.2304 0.0755 0.2531 0 0.3587 -0.628 0.4438 -1.1324 0.1174 -0.6965 0.2501 -1.4859 0.8654 -1.4859 0.1841 0 0.2998 0.079 0.3639 0.1453 0.2117 0.2178 0.2003 0.6053 0.1877 1.0547 -0.0131 0.463 -0.028 0.9876 0.2168 1.2398 0.117 0.12 0.2937 0.1785 0.5407 0.1785h4.3637c0.0579 0 0.1134 0.023 0.1543 0.0639 0.0409 0.0409 0.0639 0.0964 0.0639 0.1543 0 0.0578 -0.023 0.1133 -0.0639 0.1542 -0.0409 0.041 -0.0964 0.0639 -0.1543 0.0639Zm-9.6543 -2.6749c-0.3155 0 -0.5638 0.1056 -0.7379 0.3137 -0.1562 0.1868 -0.2422 0.4482 -0.2422 0.7357 0 0.155 0.0244 0.3103 0.0729 0.4552 0.7322 -0.4744 1.2729 -1.0591 1.2729 -1.3698 0 -0.0371 -0.0092 -0.0545 -0.0393 -0.0737 -0.0349 -0.0227 -0.1239 -0.0611 -0.3264 -0.0611Z" stroke-width="1"></path>
  <path fill="#000000" d="M31.043 11.7363c0.223 -0.2508 0.4951 -0.4533 0.7994 -0.595s0.6343 -0.2196 0.9699 -0.229c0.3355 -0.0093 0.6694 0.0501 0.9811 0.1747 0.3117 0.1246 0.5946 0.3116 0.8313 0.5496 0.2367 0.2381 0.4221 0.522 0.5449 0.8344 0.1228 0.3124 0.1804 0.6466 0.1691 0.9821 -0.0112 0.3355 -0.091 0.6651 -0.2344 0.9686 -0.1435 0.3035 -0.3475 0.5744 -0.5996 0.796l-11.0246 9.9625 -2.4615 -2.4756L31.043 11.7363Z" stroke-width="1"></path>
  <path fill="#000000" d="m20.3994 23.32 2.461 2.4754 0.6186 -0.6151 -2.4605 -2.475 -0.6191 0.6152V23.32Z" stroke-width="1"></path>
  <path fill="#000000" d="M17.9613 24.717c-0.0166 1.5363 -1.1114 3.6966 -1.1114 3.6966 -0.2827 -0.0009 -0.9128 0.9076 -0.6178 1.2043 0.0501 0.0506 0.0829 0.1143 0.1383 0.1701 0.0554 0.0559 0.1191 0.0891 0.1693 0.1392 0.295 0.2967 1.2514 -0.2701 1.2523 -0.5659 0 0 2.1214 -1.1275 3.6582 -1.1358 0.1006 -0.0009 0.1978 -0.0367 0.2751 -0.1012 0.0772 -0.0645 0.1297 -0.1538 0.1486 -0.2526 0.2129 -1.0917 0.987 -2.0766 0.987 -2.0766l-2.4614 -2.4753s-0.9896 0.7684 -2.0822 0.9752c-0.0989 0.0185 -0.1884 0.0705 -0.2533 0.1474 -0.0649 0.077 -0.1012 0.1739 -0.1027 0.2746Z" stroke-width="1"></path>
  <path fill="#000000" d="M34.6304 11.6389c-0.2368 -0.2386 -0.5202 -0.426 -0.8324 -0.5506 -0.3123 -0.1245 -0.6468 -0.1835 -0.9829 -0.1734 -0.3355 0.0106 -0.6654 0.0892 -0.9696 0.2311 -0.3042 0.1418 -0.5765 0.3439 -0.8003 0.5941l-0.7035 0.7702c-0.2329 -0.1783 -0.5083 -0.2929 -0.799 -0.3325 -0.6065 -0.0764 -1.2227 0.1916 -1.831 0.7968 -0.9661 0.9609 -3.2261 3.5286 -3.3217 3.6376 -0.0043 0.0048 -0.0052 0.0114 -0.0096 0.0166 -0.0279 0.0384 -0.0523 0.0786 -0.0707 0.1209 -0.0008 0.0026 -0.003 0.0048 -0.0043 0.0074 -0.0448 0.1036 -0.0624 0.2169 -0.0511 0.3291 0.0113 0.1123 0.0512 0.2198 0.1158 0.3123 0.0646 0.0925 0.1518 0.167 0.2532 0.2163 0.1015 0.0493 0.2139 0.0719 0.3266 0.0655 0.1126 -0.0064 0.2218 -0.0414 0.317 -0.1019 0.0953 -0.0604 0.1735 -0.1443 0.2273 -0.2435 0.0537 -0.0992 0.0812 -0.2105 0.0798 -0.3233 -0.0014 -0.1128 -0.0316 -0.2234 -0.0878 -0.3212 0.7218 -0.8134 1.8633 -2.1252 2.5572 -2.8147 0.4053 -0.4032 0.7763 -0.5886 1.1009 -0.5502 0.1283 0.0152 0.2396 0.0663 0.336 0.1278l-1.3846 1.5156 3.169 3.1872 3.2453 -2.9315c0.2515 -0.2225 0.4552 -0.4936 0.5987 -0.7971 0.1436 -0.3035 0.2241 -0.633 0.2365 -0.9685 0.0119 -0.3361 -0.0453 -0.6711 -0.1682 -0.9842 -0.1229 -0.3131 -0.3092 -0.5976 -0.5466 -0.8359Z" stroke-width="1"></path>
</svg>