<svg xmlns="http://www.w3.org/2000/svg" fill="none" viewBox="0 0 48 48" id="Sneakers-3--Streamline-Kameleon">
  <desc>
    Sneakers 3 Streamline Icon: https://streamlinehq.com
  </desc>
  <path fill="#ff78b9" d="M24.0006 48.0012c13.2553 0 24.0006 -10.7453 24.0006 -24.0006C48.0012 10.7453 37.2559 0 24.0006 0 10.7453 0 0 10.7453 0 24.0006c0 13.2553 10.7453 24.0006 24.0006 24.0006Z" stroke-width="1"></path>
  <path fill="#000000" d="M37.965 26.6719v6.0351c0 1.4444 -1.1739 2.6182 -2.6183 2.6182H14.8371c-1.7498 0 -3.8139 -1.1476 -4.5383 -2.7404 0.6022 -1.6233 2.195 -3.011 4.5383 -3.347 1.7761 -0.2531 1.811 0.0698 3.7005 -0.4014 1.0342 -0.3142 2.2299 -0.9252 3.1855 -1.4357 3.3688 -1.8284 3.7048 -2.3477 4.6125 -2.4874 0.9775 -0.1352 1.728 0.5019 2.6183 1.1433 0.8203 0.6022 1.7629 1.2044 3.1069 1.2044 2.1034 0 3.0416 -0.7985 3.4387 -1.3745 0.1239 -0.178 0.289 -0.3233 0.4813 -0.4236 0.1922 -0.1003 0.4059 -0.1526 0.6227 -0.1525 0.7506 0 1.3615 0.611 1.3615 1.3615Z" stroke-width="1"></path>
  <path fill="#ffffff" d="M37.9651 32.7067v2.64c0 1.4444 -1.1738 2.6183 -2.6182 2.6183H14.8372c-2.16 0 -4.8001 -1.7455 -4.8001 -3.9274 0 -0.4887 0.0916 -0.9818 0.2618 -1.4531 0.7244 1.5927 2.7885 2.7404 4.5383 2.7404h20.5097c1.4444 0 2.6182 -1.1738 2.6182 -2.6182Z" stroke-width="1"></path>
  <path fill="#ffffff" d="M22.4739 35.3245h-1.7848c-0.4477 -2.1061 -1.1147 -4.1595 -1.9899 -6.1267 0.2506 0.343 0.5961 0.6051 0.9939 0.754 0.3978 0.1489 0.8305 0.178 1.2447 0.0838 0.6546 1.6975 1.1695 3.4648 1.5361 5.2889Z" stroke-width="1"></path>
  <path fill="#ffffff" d="M26.0297 35.3241h-1.7803c-0.3927 -2.0726 -0.973 -4.0797 -1.7191 -6.004l1.5708 -0.7766c0.8601 2.1927 1.506 4.4635 1.9286 6.7806Z" stroke-width="1"></path>
  <path fill="#ffffff" d="m27.2389 26.9907 -1.5709 0.7768c0.96 2.4088 1.68 4.9397 2.1295 7.558h1.7608c-0.4831 -2.6396 -1.338 -5.9042 -2.3194 -8.3348Z" stroke-width="1"></path>
  <path fill="#ffffff" d="M28.9535 26.0566c-0.387 0.3404 -7.6313 3.8986 -8.0162 3.9798 -0.9225 0.2103 -1.9497 -0.1903 -2.448 -1.187 2.0256 -0.5062 6.7332 -3.528 7.1696 -3.7266 0.24 -0.1091 0.4626 -0.1789 0.6764 -0.2095 0.9775 -0.1352 1.728 0.5019 2.6182 1.1433Z" stroke-width="1"></path>
  <path fill="#000000" d="M20.8835 27.0489c-0.0777 -0.151 -0.211 -0.2658 -0.3718 -0.3203 -0.1608 -0.0546 -0.3365 -0.0445 -0.49 0.0279 -0.1535 0.0725 -0.2729 0.2018 -0.3329 0.3606 -0.06 0.1588 -0.0561 0.3347 0.0111 0.4906l0.5589 1.1836c0.078 0.1503 0.2113 0.2645 0.3717 0.3186 0.1604 0.0541 0.3356 0.044 0.4888 -0.0283 0.1531 -0.0722 0.2723 -0.201 0.3325 -0.3592 0.0603 -0.1583 0.0569 -0.3337 -0.0095 -0.4895l-0.5584 -1.184h-0.0004Z" stroke-width="1"></path>
  <path fill="#000000" d="M23.2507 25.9307c-0.0777 -0.1509 -0.2111 -0.2658 -0.3718 -0.3203 -0.1608 -0.0545 -0.3365 -0.0445 -0.49 0.028 -0.1535 0.0725 -0.2729 0.2017 -0.3329 0.3605 -0.0601 0.1588 -0.0561 0.3347 0.0111 0.4907l0.5584 1.1836c0.0772 0.1518 0.2105 0.2676 0.3716 0.3228 0.1612 0.0552 0.3375 0.0454 0.4915 -0.0272 0.1541 -0.0727 0.2738 -0.2025 0.3337 -0.362 0.0599 -0.1594 0.0553 -0.3359 -0.0128 -0.4921l-0.5588 -1.184Z" stroke-width="1"></path>
  <path fill="#000000" d="M25.6179 24.813c-0.0778 -0.1509 -0.2111 -0.2657 -0.3718 -0.3203 -0.1608 -0.0545 -0.3365 -0.0445 -0.49 0.028 -0.1535 0.0725 -0.2729 0.2018 -0.3329 0.3606 -0.0601 0.1588 -0.0561 0.3347 0.0111 0.4906l0.5588 1.1836c0.0781 0.1502 0.2113 0.2644 0.3718 0.3185 0.1604 0.0542 0.3356 0.0441 0.4887 -0.0282 0.1532 -0.0722 0.2724 -0.201 0.3326 -0.3593 0.0603 -0.1582 0.0569 -0.3336 -0.0095 -0.4894l-0.5588 -1.1841Z" stroke-width="1"></path>
  <path fill="#000000" d="M10.0371 21.331v-6.035c0 -1.4444 1.1739 -2.6183 2.6183 -2.6183H33.165c1.7498 0 3.8139 1.1477 4.5383 2.7405 -0.6022 1.6233 -2.195 3.011 -4.5383 3.347 -1.7761 0.2531 -1.811 -0.0699 -3.7005 0.4014 -1.0342 0.3142 -2.2299 0.9251 -3.1855 1.4357 -3.3688 1.8284 -3.7048 2.3477 -4.6125 2.4873 -0.9775 0.1353 -1.728 -0.5018 -2.6182 -1.1433 -0.8204 -0.6022 -1.763 -1.2044 -3.107 -1.2044 -2.1034 0 -3.0416 0.7986 -3.4387 1.3746 -0.1239 0.178 -0.289 0.3233 -0.4813 0.4236 -0.1922 0.1003 -0.4059 0.1526 -0.6227 0.1524 -0.7506 0 -1.3615 -0.6109 -1.3615 -1.3615Z" stroke-width="1"></path>
  <path fill="#ffffff" d="M10.0371 15.2954v-2.64c0 -1.4444 1.1739 -2.6183 2.6183 -2.6183H33.165c2.16 0 4.8001 1.7455 4.8001 3.9274 0 0.4887 -0.0916 0.9818 -0.2618 1.4531 -0.7244 -1.5928 -2.7885 -2.7404 -4.5383 -2.7404H12.6554c-1.4444 0 -2.6183 1.1738 -2.6183 2.6182Z" stroke-width="1"></path>
  <path fill="#ffffff" d="M25.5283 12.6777h1.7848c0.4538 2.1339 1.1258 4.1849 1.9899 6.1267 -0.2506 -0.343 -0.5961 -0.6051 -0.9939 -0.754 -0.3978 -0.1489 -0.8306 -0.178 -1.2447 -0.0838 -0.6609 -1.7163 -1.1747 -3.4856 -1.5361 -5.2889Z" stroke-width="1"></path>
  <path fill="#ffffff" d="M21.9717 12.6777h1.7802c0.3927 2.0726 0.9731 4.0798 1.7192 6.004l-1.5708 0.7767c-0.8601 -2.1927 -1.506 -4.4635 -1.9286 -6.7807Z" stroke-width="1"></path>
  <path fill="#ffffff" d="m20.7627 21.0125 1.5709 -0.7768c-0.9717 -2.438 -1.6854 -4.9712 -2.1295 -7.558h-1.7607c0.483 2.6397 1.3379 5.9042 2.3193 8.3348Z" stroke-width="1"></path>
  <path fill="#ffffff" d="M19.0479 21.9462c0.387 -0.3403 7.6313 -3.8985 8.0162 -3.9797 0.9225 -0.2103 1.9497 0.1903 2.448 1.1869 -2.0256 0.5062 -6.7332 3.5281 -7.1696 3.7267 -0.24 0.1091 -0.4626 0.1789 -0.6764 0.2094 -0.9775 0.1353 -1.728 -0.5018 -2.6182 -1.1433Z" stroke-width="1"></path>
  <path fill="#000000" d="M27.118 20.9523c0.0778 0.1509 0.2111 0.2658 0.3718 0.3203 0.1608 0.0546 0.3365 0.0445 0.49 -0.028 0.1535 -0.0724 0.2729 -0.2017 0.3329 -0.3605 0.0601 -0.1588 0.0561 -0.3347 -0.0111 -0.4906l-0.5588 -1.1836c-0.0781 -0.1503 -0.2113 -0.2645 -0.3718 -0.3186 -0.1604 -0.0541 -0.3356 -0.044 -0.4887 0.0282 -0.1532 0.0723 -0.2724 0.2011 -0.3326 0.3593 -0.0603 0.1583 -0.0569 0.3337 0.0095 0.4895l0.5584 1.184h0.0004Z" stroke-width="1"></path>
  <path fill="#000000" d="M24.7502 22.0713c0.0777 0.151 0.211 0.2658 0.3718 0.3204 0.1608 0.0545 0.3364 0.0445 0.4899 -0.028 0.1536 -0.0725 0.2729 -0.2018 0.333 -0.3606 0.06 -0.1588 0.056 -0.3347 -0.0111 -0.4906l-0.5585 -1.1836c-0.0771 -0.1519 -0.2104 -0.2677 -0.3716 -0.3229 -0.1611 -0.0552 -0.3374 -0.0454 -0.4915 0.0273 -0.154 0.0726 -0.2737 0.2025 -0.3336 0.3619 -0.0599 0.1595 -0.0554 0.336 0.0127 0.4921l0.5589 1.184Z" stroke-width="1"></path>
  <path fill="#000000" d="M22.3827 23.1886c0.0777 0.151 0.211 0.2658 0.3718 0.3204 0.1608 0.0545 0.3364 0.0445 0.4899 -0.028 0.1536 -0.0725 0.2729 -0.2018 0.333 -0.3606 0.06 -0.1588 0.056 -0.3347 -0.0111 -0.4906l-0.5589 -1.1836c-0.0781 -0.1503 -0.2113 -0.2644 -0.3717 -0.3186 -0.1605 -0.0541 -0.3357 -0.044 -0.4888 0.0283 -0.1531 0.0722 -0.2723 0.201 -0.3326 0.3592 -0.0602 0.1583 -0.0568 0.3337 0.0095 0.4895l0.5589 1.184Z" stroke-width="1"></path>
</svg>