<svg xmlns="http://www.w3.org/2000/svg" fill="none" viewBox="0 0 48 48" id="Truck--Streamline-Kameleon">
  <desc>
    Truck Streamline Icon: https://streamlinehq.com
  </desc>
  <path fill="#fb983d" d="M24.0006 48.0012c13.2553 0 24.0006 -10.7453 24.0006 -24.0006C48.0012 10.7453 37.2559 0 24.0006 0 10.7453 0 0 10.7453 0 24.0006c0 13.2553 10.7453 24.0006 24.0006 24.0006Z" stroke-width="1"></path>
  <path fill="#000000" d="M18.7649 29.2374v-7.8133c0 -0.2409 -0.1955 -0.4778 -0.4364 -0.4778h-2.1709c-1.0321 0 -1.9319 0.744 -2.1823 1.7455l-1.3196 3.0546s-1.7455 1.4911 -1.7455 2.2849v3.8244h26.1824v-2.6183H18.7649Z" stroke-width="1"></path>
  <path fill="#000000" d="M37.0914 32.2928c0 0.3472 -0.138 0.6802 -0.3835 0.9257 -0.2455 0.2455 -0.5785 0.3834 -0.9257 0.3834H10.9089c-0.2315 0 -0.4535 -0.0919 -0.6171 -0.2556 -0.1637 -0.1636 -0.2557 -0.3856 -0.2557 -0.6171 0 -0.2315 0.092 -0.4535 0.2557 -0.6171 0.1636 -0.1637 0.3856 -0.2557 0.6171 -0.2557h26.1825v0.4364Z" stroke-width="1"></path>
  <path fill="#ffffff" d="M12.6552 31.8554h-1.745v-2.6176h0.8725c0.2314 0 0.4533 0.0919 0.617 0.2556 0.1636 0.1636 0.2555 0.3855 0.2555 0.6169v1.7451Z" stroke-width="1"></path>
  <path fill="#ffffff" d="M33.165 36.2196c0.8101 0 1.5871 -0.3218 2.1599 -0.8947 0.5729 -0.5728 0.8947 -1.3498 0.8947 -2.1599 0 -0.8102 -0.3218 -1.5871 -0.8947 -2.16 -0.5728 -0.5728 -1.3498 -0.8946 -2.1599 -0.8946 -0.8102 0 -1.5871 0.3218 -2.16 0.8946 -0.5728 0.5729 -0.8946 1.3498 -0.8946 2.16 0 0.8101 0.3218 1.5871 0.8946 2.1599 0.5729 0.5729 1.3498 0.8947 2.16 0.8947Z" stroke-width="1"></path>
  <path fill="#000000" d="M33.1639 34.3869c0.1604 0 0.3193 -0.0316 0.4675 -0.0929 0.1482 -0.0614 0.2829 -0.1514 0.3963 -0.2648 0.1134 -0.1135 0.2034 -0.2481 0.2648 -0.3963 0.0614 -0.1482 0.093 -0.3071 0.093 -0.4675 0 -0.1604 -0.0316 -0.3193 -0.093 -0.4675 -0.0614 -0.1482 -0.1514 -0.2828 -0.2648 -0.3963 -0.1134 -0.1134 -0.2481 -0.2034 -0.3963 -0.2648 -0.1482 -0.0614 -0.3071 -0.093 -0.4675 -0.093 -0.3239 0 -0.6346 0.1287 -0.8637 0.3578 -0.2291 0.2291 -0.3578 0.5398 -0.3578 0.8638 0 0.324 0.1287 0.6347 0.3578 0.8638 0.2291 0.229 0.5398 0.3577 0.8637 0.3577Z" stroke-width="1"></path>
  <path fill="#ffffff" d="m34.4741 25.7466 -1.7455 1.7455 -1.7455 -1.7455 -1.7455 1.7455 -1.7455 -1.7455 -1.7455 1.7455 -1.7455 -1.7455 -1.7455 1.7455 -1.7455 -1.7455 -1.7455 1.7455v1.7455h19.2005v-3.491l-1.7455 1.7455 -1.7455 -1.7455Z" stroke-width="1"></path>
  <path fill="#000000" d="M19.6374 14.8379h17.455c0.2315 0 0.4534 0.0919 0.6171 0.2556 0.1637 0.1637 0.2556 0.3857 0.2556 0.6171v10.0367l-1.7455 1.7455 -1.7455 -1.7455 -1.7455 1.7455 -1.7455 -1.7455 -1.7455 1.7455 -1.7455 -1.7455 -1.7455 1.7455 -1.7455 -1.7455 -1.7455 1.7455 -1.7455 -1.7455 -1.7455 1.7455V15.7106c0 -0.2314 0.092 -0.4534 0.2557 -0.6171 0.1636 -0.1637 0.3856 -0.2556 0.6171 -0.2556Z" stroke-width="1"></path>
  <path fill="#ffffff" d="M15.2734 36.2196c0.8101 0 1.5871 -0.3218 2.1599 -0.8947 0.5729 -0.5728 0.8947 -1.3498 0.8947 -2.1599 0 -0.8102 -0.3218 -1.5871 -0.8947 -2.16 -0.5728 -0.5728 -1.3498 -0.8946 -2.1599 -0.8946 -0.8102 0 -1.5871 0.3218 -2.16 0.8946 -0.5728 0.5729 -0.8946 1.3498 -0.8946 2.16 0 0.8101 0.3218 1.5871 0.8946 2.1599 0.5729 0.5729 1.3498 0.8947 2.16 0.8947Z" stroke-width="1"></path>
  <path fill="#000000" d="M15.2723 34.3869c0.1604 0 0.3193 -0.0316 0.4675 -0.0929 0.1482 -0.0614 0.2829 -0.1514 0.3963 -0.2648 0.1134 -0.1135 0.2034 -0.2481 0.2648 -0.3963 0.0614 -0.1482 0.093 -0.3071 0.093 -0.4675 0 -0.1604 -0.0316 -0.3193 -0.093 -0.4675 -0.0614 -0.1482 -0.1514 -0.2828 -0.2648 -0.3963 -0.1134 -0.1134 -0.2481 -0.2034 -0.3963 -0.2648 -0.1482 -0.0614 -0.3071 -0.093 -0.4675 -0.093 -0.3239 0 -0.6347 0.1287 -0.8637 0.3578 -0.2291 0.2291 -0.3578 0.5398 -0.3578 0.8638 0 0.324 0.1287 0.6347 0.3578 0.8638 0.229 0.229 0.5398 0.3577 0.8637 0.3577Z" stroke-width="1"></path>
  <path fill="#ffffff" d="M13.5273 25.7467h4.3638v-3.9274h-1.9598c-0.6585 0 -0.9879 0.4979 -1.0948 0.8728l-1.3092 3.0546Z" stroke-width="1"></path>
</svg>