<svg xmlns="http://www.w3.org/2000/svg" fill="none" viewBox="0 0 14 14"><g id="esports--entertainment-gaming-esports"><path id="Vector" stroke="#3e3e3e" stroke-linecap="round" stroke-linejoin="round" d="M12.32 6.536c.638 1.544 1.197 3.545 1.18 4.643-.024 1.48-.928 2.32-1.857 2.32-.842-.395-1.858-2.32-2.785-2.32H5.142c-.927 0-1.943 1.925-2.786 2.32-.928 0-1.832-.84-1.856-2.32-.018-1.098.542-3.099 1.18-4.643"></path><path id="Vector 594" stroke="#3e3e3e" stroke-linecap="round" stroke-linejoin="round" d="M3.285 1.429v2.785a.93.93 0 0 0 .929.929h5.571a.929.929 0 0 0 .929-.929V1.43l-1.857.928L7 .5 5.142 2.357 3.285 1.43Z"></path><path id="Ellipse 1032" stroke="#3e3e3e" stroke-linecap="round" stroke-linejoin="round" d="M3.5 8.25a1 1 0 1 0 2 0 1 1 0 1 0-2 0"></path><path id="Ellipse 1033" stroke="#3e3e3e" stroke-linecap="round" stroke-linejoin="round" d="M8.5 8.25a1 1 0 1 0 2 0 1 1 0 1 0-2 0"></path></g></svg>