<svg xmlns="http://www.w3.org/2000/svg" fill="none" viewBox="0 0 14 14" id="Speaker-2--Streamline-Core">
  <desc>
    Speaker 2 Streamline Icon: https://streamlinehq.com
  </desc>
  <g id="speaker-2--speakers-music-audio-entertainment">
    <path id="Vector" stroke="#000000" stroke-linecap="round" stroke-linejoin="round" d="M11 0.5H3c-0.55228 0 -1 0.447715 -1 1v11c0 0.5523 0.44772 1 1 1h8c0.5523 0 1 -0.4477 1 -1v-11c0 -0.552285 -0.4477 -1 -1 -1Z" stroke-width="1"></path>
    <path id="Vector_2" stroke="#000000" stroke-linecap="round" stroke-linejoin="round" d="M7 11.5c1.38071 0 2.5 -1.1193 2.5 -2.5 0 -1.38071 -1.11929 -2.5 -2.5 -2.5S4.5 7.61929 4.5 9c0 1.3807 1.11929 2.5 2.5 2.5Z" stroke-width="1"></path>
    <g id="Group 4528">
      <path id="Ellipse 1" stroke="#000000" stroke-linecap="round" stroke-linejoin="round" d="M7 9.25c-0.13807 0 -0.25 -0.11193 -0.25 -0.25s0.11193 -0.25 0.25 -0.25" stroke-width="1"></path>
      <path id="Ellipse 2" stroke="#000000" stroke-linecap="round" stroke-linejoin="round" d="M7 9.25c0.13807 0 0.25 -0.11193 0.25 -0.25s-0.11193 -0.25 -0.25 -0.25" stroke-width="1"></path>
    </g>
    <g id="Group 4537">
      <path id="Vector_3" stroke="#000000" stroke-linecap="round" stroke-linejoin="round" d="M7 3.875c-0.20711 0 -0.375 -0.16789 -0.375 -0.375s0.16789 -0.375 0.375 -0.375" stroke-width="1"></path>
      <path id="Vector_4" stroke="#000000" stroke-linecap="round" stroke-linejoin="round" d="M7 3.875c0.20711 0 0.375 -0.16789 0.375 -0.375S7.20711 3.125 7 3.125" stroke-width="1"></path>
    </g>
  </g>
</svg>