<svg xmlns="http://www.w3.org/2000/svg" fill="none" viewBox="0 0 14 14" id="Stream--Streamline-Core">
  <desc>
    Stream Streamline Icon: https://streamlinehq.com
  </desc>
  <g id="stream--stream-entertainment-gaming">
    <path id="Union" stroke="#000000" stroke-linecap="round" stroke-linejoin="round" d="M4.16041 8.66073c.40859-.33623.92375-.55046 1.49248-.5832.0552-.00317.11009-.0046.16462-.00431l1.63645-3.56634c-.03799-.16567-.06265-.33675-.07275-.51213C7.28404 2.30651 8.57386.859153 10.2621.761985c1.6882-.097169 3.1356 1.192645 3.2328 2.880885.0916 1.59236-1.0506 2.97042-2.5973 3.20335l-2.671 2.91539c.08658.23445.14035.48549.15546.74799.08203 1.4253-1.00686 2.6472-2.43211 2.7292-1.37437.0791-2.55965-.9306-2.71606-2.2808"></path>
    <path id="Ellipse 253" stroke="#000000" stroke-linecap="round" stroke-linejoin="round" transform="rotate(-3.294 10.464 3.72)" d="M9.145 3.719a1.319 1.319 0 1 0 2.638 0 1.319 1.319 0 1 0-2.638 0"></path>
    <path id="Vector 708" stroke="#000000" stroke-linecap="round" stroke-linejoin="round" d="m1.01106 6.93021 4.5878 2.55295c.46744.26011.68108.81794.50697 1.32374v0c-.20231.5877-.84975.8926-1.43164.6741L.559173 9.93617"></path>
  </g>
</svg>