<svg xmlns="http://www.w3.org/2000/svg" fill="none" viewBox="0 0 14 14" id="Volume-Level-High--Streamline-Core">
  <desc>
    Volume Level High Streamline Icon: https://streamlinehq.com
  </desc>
  <g id="volume-level-high--speaker-high-volume-control-audio-music-entertainment">
    <path id="Vector" stroke="#000000" stroke-linecap="round" stroke-linejoin="round" d="M12.4951 10.5c0.6397 -1.05652 0.985 -2.265 1 -3.5 -0.015 -1.235 -0.3603 -2.44348 -1 -3.5" stroke-width="1"></path>
    <path id="Vector_2" stroke="#000000" stroke-linecap="round" stroke-linejoin="round" d="M10.5 5.5c0.3476 0.42029 0.5259 0.95518 0.5 1.5 0.0259 0.54482 -0.1524 1.07971 -0.5 1.5" stroke-width="1"></path>
    <path id="Vector_3" stroke="#000000" stroke-linecap="round" stroke-linejoin="round" d="M3 5.00002H1.5c-0.544667 0 -1 0.45533 -1 1v2c0 0.54466 0.455333 1 1 1H3L6.91 11.81c0.6453 0.4465 1.57254 -0.0236 1.59 -0.81V3c0.01874 -0.78684 -0.8529 -1.25773 -1.5 -0.81L3 5.00002Z" stroke-width="1"></path>
  </g>
</svg>