<svg xmlns="http://www.w3.org/2000/svg" fill="none" viewBox="0 0 14 14" id="Airplane-Disabled--Streamline-Flex-Remix">
  <desc>
    Airplane Disabled Streamline Icon: https://streamlinehq.com
  </desc>
  <g id="airplane-disabled--server-plane-airplane-disabled-off-wireless-mode-internet-network">
    <path id="Union" fill="#000000" fill-rule="evenodd" d="M0.132371 1.00987C-0.0800352 0.737782 -0.0316553 0.345022 0.240431 0.132616c0.272087 -0.2124073 0.664846 -0.1640272 0.877249 0.108059C2.47873 1.98413 3.66902 3.43419 4.83687 4.74186c0.00281 -0.00094 0.00561 -0.00187 0.0084 -0.0028 0.01998 -1.18428 0.12122 -2.18543 0.36185 -2.92813 0.137 -0.42284 0.33459 -0.811977 0.63313 -1.100501 0.31501 -0.304447 0.71055 -0.46504 1.15866 -0.46504 0.4481 0 0.84364 0.160593 1.15865 0.46504 0.29854 0.288524 0.49613 0.677661 0.63313 1.100501 0.24064 0.7427 0.34187 1.74387 0.36185 2.92816 0.78382 0.26038 1.75236 0.70491 2.58046 1.21608 0.5019 0.30986 0.9802 0.66109 1.341 1.03232 0.3391 0.34884 0.6796 0.82212 0.6796 1.37172 0 0.38733 -0.1634 0.7101 -0.4286 0.94099 -0.2431 0.21167 -0.5474 0.32668 -0.8302 0.39382 -0.5652 0.13418 -1.2677 0.12703 -1.9057 0.07654 -0.2383 -0.01886 -0.4757 -0.04452 -0.70442 -0.0738 1.14202 0.99074 2.40692 2.02514 3.87792 3.18804 0.2708 0.2141 0.3168 0.6071 0.1027 0.8779 -0.214 0.2708 -0.6071 0.3168 -0.8779 0.1027 -2.0542 -1.624 -3.71637 -3.0052 -5.20458 -4.366 -0.0397 -0.02866 -0.07591 -0.06187 -0.10785 -0.09887C5.03667 6.97605 2.93442 4.5992 0.132371 1.00987ZM3.17615 6.1314c0.17968 0.29473 0.08641 0.67931 -0.20832 0.85898 -0.46724 0.28486 -0.86335 0.57954 -1.13442 0.85481 -0.29141 0.29593 -0.33838 0.46761 -0.33923 0.51277 0.00612 0.00527 0.01633 0.01307 0.03234 0.0228 0.09275 0.05632 0.27883 0.11687 0.58355 0.14911 0.59811 0.06329 1.39633 -0.00577 2.11742 -0.11029 0.34161 -0.04952 0.65868 0.18727 0.70819 0.52888 0.04952 0.34161 -0.18727 0.65867 -0.52888 0.70819 -0.74251 0.10762 -1.66828 0.19669 -2.42826 0.11628 -0.37432 -0.0396 -0.77581 -0.12636 -1.100872 -0.32377 -0.358875 -0.21795 -0.6335 -0.5831 -0.6335 -1.08995 0 -0.55818 0.351257 -1.03836 0.698592 -1.39108 0.37043 -0.37617 0.86099 -0.73204 1.37441 -1.04505 0.29472 -0.17967 0.6793 -0.08641 0.85898 0.20832Zm3.156 3.40722c0.21936 0.26652 0.18113 0.66038 -0.08539 0.87978 -0.28541 0.2349 -0.69992 0.645 -0.99983 1.0891 -0.32477 0.4809 -0.3917 0.8157 -0.33594 0.9924 0.06006 0.0108 0.19047 0.0086 0.40517 -0.0519 0.44388 -0.1251 0.97351 -0.4187 1.32923 -0.6627 0.21303 -0.1461 0.494 -0.1461 0.70703 0 0.30176 0.2069 0.74024 0.4574 1.14642 0.6037 0.20393 0.0734 0.3702 0.1098 0.49062 0.1152 0.07065 0.0031 0.10397 -0.0049 0.11443 -0.0083 0.26974 -0.2071 0.65683 -0.1606 0.8695 0.1066 0.21501 0.27 0.17031 0.6632 -0.09972 0.8782 -0.29683 0.2363 -0.65015 0.2852 -0.9403 0.2722 -0.29301 -0.0132 -0.59061 -0.0915 -0.85813 -0.1879 -0.38049 -0.137 -0.75995 -0.3326 -1.07633 -0.5224 -0.38715 0.2323 -0.87364 0.4761 -1.34382 0.6086 -0.30866 0.0869 -0.68339 0.1474 -1.04051 0.0634 -0.4072 -0.0958 -0.74441 -0.3716 -0.89201 -0.8271 -0.24942 -0.7699 0.13143 -1.551 0.48847 -2.0796 0.38331 -0.5676 0.88825 -1.06404 1.24136 -1.35467 0.26652 -0.21935 0.66039 -0.18112 0.87975 0.08539Z" clip-rule="evenodd" stroke-width="1"></path>
  </g>
</svg>