<svg xmlns="http://www.w3.org/2000/svg" fill="none" viewBox="0 0 14 14" id="Phone-Qr--Streamline-Flex-Remix">
  <desc>
    Phone Qr Streamline Icon: https://streamlinehq.com
  </desc>
  <g id="phone-qr--android-phone-mobile-device-smartphone-iphone-qr-code-scan">
    <path id="Union" fill="#000000" fill-rule="evenodd" d="M6.00396 1.25906c-1.01837 -0.02488 -2.02378 0.00287 -3.07526 0.08357 -0.77134 0.05919 -1.44528 0.7489 -1.52014 1.69214 -0.21142 2.66391 -0.21141 5.26704 0 7.93093 0.07486 0.9433 0.7488 1.633 1.52014 1.6922 1.60501 0.1231 3.1049 0.1231 4.70991 0 0.77134 -0.0592 1.44527 -0.7489 1.52013 -1.6922 0.0658 -0.829 0.11862 -1.97515 0.14353 -2.80424 0.01036 -0.34502 0.29846 -0.61631 0.64348 -0.60595 0.34505 0.01037 0.61635 0.29847 0.60595 0.64349 -0.0252 0.84048 -0.0789 2.0088 -0.1469 2.8656 -0.1153 1.4534 -1.18752 2.7258 -2.67054 2.8396 -1.66869 0.1281 -3.23253 0.1281 -4.90121 0C1.35003 13.7904 0.277828 12.518 0.162483 11.0646 -0.0541607 8.33488 -0.054161 5.66561 0.162482 2.93588 0.277828 1.48251 1.35002 0.210105 2.83305 0.096291 3.92451 0.0125273 4.97208 -0.0165255 6.0345 0.00943745 6.37957 0.0178703 6.65248 0.304445 6.64404 0.64952c-0.00843 0.345075 -0.295 0.61798 -0.64008 0.60954ZM3.6582 10.8987c0 -0.4833 0.39175 -0.875 0.875 -0.875h1.5c0.48325 0 0.875 0.3917 0.875 0.875 0 0.4832 -0.39175 0.875 -0.875 0.875h-1.5c-0.48325 0 -0.875 -0.3918 -0.875 -0.875ZM11.2999 0.71119c0.0215 -0.413651 0.3744 -0.7314882 0.788 -0.70990892 0.2566 0.01338752 0.5401 0.04492702 0.7841 0.07207792 0.1225 0.0136342 0.2351 0.0261617 0.3293 0.034728 0.3608 0.032789 0.6465 0.318703 0.6791 0.679451 0.0088 0.097381 0.0219 0.21112 0.0363 0.335662 0.0374 0.32354 0.0832 0.71999 0.0832 1.09179 0 0.41422 -0.3358 0.75 -0.75 0.75 -0.4143 0 -0.75 -0.33578 -0.75 -0.75 0 -0.23704 -0.0204 -0.44993 -0.0464 -0.67862 -0.1438 -0.01553 -0.2859 -0.02889 -0.4437 -0.03713 -0.4137 -0.02158 -0.7315 -0.3744 -0.7099 -0.78805Zm-1.54023 0.79005c-0.27995 0 -0.47747 0.0182 -0.67819 0.04237 -0.01572 0.14512 -0.02925 0.28838 -0.03756 0.44771 -0.02158 0.41365 -0.3744 0.73149 -0.78805 0.70991 -0.41365 -0.02158 -0.73149 -0.3744 -0.70991 -0.78806 0.01339 -0.25662 0.04493 -0.54006 0.07208 -0.78405 0.01363 -0.12253 0.02616 -0.235108 0.03472 -0.329354 0.03279 -0.36073 0.31871 -0.646483 0.67946 -0.679068 0.0937 -0.008463 0.19867 -0.0215122 0.31462 -0.0359267 0.29936 -0.0372155 0.67194 -0.08353212 1.11283 -0.08353212 0.41423 0 0.75003 0.33578682 0.75003 0.74999982 0 0.414211 -0.3358 0.750001 -0.75003 0.750001Zm4.23923 3.04103c0.0216 -0.41366 -0.2963 -0.76648 -0.7099 -0.78806 -0.4137 -0.02158 -0.7665 0.29626 -0.7881 0.70991 -0.0082 0.15786 -0.0216 0.29996 -0.0371 0.44371 -0.2287 0.026 -0.4416 0.04637 -0.6786 0.04637 -0.4142 0 -0.75 0.33579 -0.75 0.75s0.3358 0.75 0.75 0.75c0.3718 0 0.7682 -0.04578 1.0917 -0.08314 0.1245 -0.01438 0.2383 -0.02752 0.3357 -0.03632 0.3608 -0.03258 0.6467 -0.31834 0.6795 -0.67907 0.0085 -0.09424 0.0211 -0.20682 0.0347 -0.32935 0.0272 -0.24399 0.0587 -0.52743 0.0721 -0.78405ZM9.04494 4.2405c0 -0.41422 -0.33579 -0.75 -0.75 -0.75s-0.75 0.33578 -0.75 0.75c0 0.3718 0.04578 0.7682 0.08314 1.09174 0.01438 0.12454 0.02752 0.23833 0.03632 0.33571 0.03258 0.36075 0.31834 0.64666 0.67907 0.67945 0.09424 0.00857 0.20683 0.0211 0.32935 0.03473 0.244 0.02715 0.52744 0.05869 0.78405 0.07208 0.41366 0.02158 0.76653 -0.29626 0.78803 -0.70991 0.0216 -0.41365 -0.29623 -0.76648 -0.70988 -0.78805 -0.15786 -0.00824 -0.29995 -0.0216 -0.44371 -0.03713 -0.026 -0.22869 -0.04637 -0.44158 -0.04637 -0.67862Zm2.83576 -1.66292c0.2652 0.3182 0.2222 0.79113 -0.096 1.05631 -0.1243 0.10359 -0.2354 0.19201 -0.3409 0.27598 -0.1634 0.13007 -0.3135 0.24952 -0.4783 0.39795 -0.3077 0.27724 -0.7819 0.2525 -1.05917 -0.05526 -0.27724 -0.30775 -0.2525 -0.78198 0.05526 -1.05922 0.19091 -0.17198 0.41361 -0.3501 0.60531 -0.50343 0.0963 -0.07698 0.1848 -0.14777 0.2575 -0.20834 0.3182 -0.26518 0.7911 -0.22219 1.0563 0.09601Z" clip-rule="evenodd" stroke-width="1"></path>
  </g>
</svg>