<svg xmlns="http://www.w3.org/2000/svg" fill="none" viewBox="0 0 24 24" id="Device-Database-Encryption-1--Streamline-Sharp-Remix">
  <desc>
    Device Database Encryption 1 Streamline Icon: https://streamlinehq.com
  </desc>
  <g id="Remix/Computer Devices/device-database-encryption-1">
    <path id="Union" fill="#000000" fill-rule="evenodd" d="M0.75 7.25V0.75h2.5v6.5H0.75Zm0 8v-6.5h2.5v6.5H0.75Zm7.5 1.5v6.5h2.5v-6.5h-2.5Zm4 -9.5V0.75h2.5v6.5h-2.5Zm4 -6.5v6.5h2.5V0.75h-2.5Zm-11.5 0h6v6.5h-6V0.75Zm2.5 2.5v1.5h1v-1.5h-1ZM6 8.75H4.75v6.5h6v-6.5H6Zm1.25 4v-1.5h1v1.5h-1Zm-6.5 4h6v6.5h-6v-6.5Zm2.5 2.5v1.5h1v-1.5h-1ZM19 11.75c-2.0711 0 -3.75 1.679 -3.75 3.75V17H14v7h10v-7h-1.25v-1.5c0 -2.071 -1.6789 -3.75 -3.75 -3.75Zm-1.25 3.75V17h2.5v-1.5c0 -0.6904 -0.5597 -1.25 -1.25 -1.25s-1.25 0.5596 -1.25 1.25Z" clip-rule="evenodd" stroke-width="1"></path>
  </g>
</svg>