<svg xmlns="http://www.w3.org/2000/svg" fill="none" viewBox="0 0 48 48" id="Chair-4--Streamline-Kameleon">
  <desc>
    Chair 4 Streamline Icon: https://streamlinehq.com
  </desc>
  <path fill="#fabc3d" d="M24 47.9955c13.255 0 24 -10.7445 24 -23.9988C48 10.7423 37.255 -0.00219727 24 -0.00219727S0 10.7423 0 23.9967C0 37.251 10.745 47.9955 24 47.9955Z" stroke-width="1"></path>
  <path fill="#ffffff" d="M24.0003 10.0342c-5.2364 0 -13.8306 6.1101 -13.9637 13.0903 -0.09554 5.0088 1.7455 9.5995 13.9637 9.5995 11.3454 0 13.9636 -5.0485 13.9636 -9.5995 0 -6.9815 -8.7273 -13.0903 -13.9636 -13.0903Z" stroke-width="1"></path>
  <path fill="#f0f1f1" d="M24.0002 37.96c4.8201 0 8.7273 -0.7811 8.7273 -1.7454s-3.9072 -1.7454 -8.7273 -1.7454 -8.7273 0.7811 -8.7273 1.7454 3.9072 1.7454 8.7273 1.7454Z" stroke-width="1"></path>
  <path fill="#cfd3d4" d="M22.2544 32.7244h3.4906v3.0541c-1.1637 0.5816 -2.3269 0.5816 -3.4906 0v-3.0541Z" stroke-width="1"></path>
  <path fill="#cfd3d4" d="M24.0001 12.6521c-3.9273 0 -10.4728 4.7998 -10.4728 9.5995 0 4.7998 3.9273 5.2362 3.9273 5.2362h13.0909s3.9273 -0.4364 3.9273 -5.2362c0 -4.7997 -6.5455 -9.5995 -10.4727 -9.5995Z" stroke-width="1"></path>
  <path fill="#f37a10" d="M23.9998 22.2517c-4.2349 0 -7.9466 0.9936 -10.0232 2.4841 1.0302 2.478 3.4778 2.752 3.4778 2.752h13.0909s2.4476 -0.274 3.4778 -2.752c-2.0766 -1.4905 -5.7884 -2.4841 -10.0233 -2.4841Z" stroke-width="1"></path>
  <path fill="#ffffff" d="M15.2729 36.2146c0 0.9639 3.9072 1.7454 8.7273 1.7454v-3.4908c-4.8201 0 -8.7273 0.7815 -8.7273 1.7454Z" stroke-width="1"></path>
  <path fill="#f0f1f1" d="M22.2544 32.7244v3.0541c0.5816 0.291 1.1637 0.4363 1.7453 0.4363v-3.4904h-1.7453Z" stroke-width="1"></path>
</svg>