<svg xmlns="http://www.w3.org/2000/svg" fill="none" viewBox="0 0 48 48" id="Nail-Varnish--Streamline-Kameleon">
  <desc>
    Nail Varnish Streamline Icon: https://streamlinehq.com
  </desc>
  <path fill="#32bea6" d="M24 47.9977c13.2549 0 24 -10.7446 24 -23.9988C48 10.7446 37.2549 0 24 0S0 10.7446 0 23.9989c0 13.2542 10.7451 23.9988 24 23.9988Z" stroke-width="1"></path>
  <path fill="#3e3e3f" d="M25.6828 10.4724c-1.1637 -0.58168 -2.3271 -0.58168 -3.4909 0l-1.6254 11.3767c-0.0659 0.4621 0.2644 0.8845 0.7291 0.9281 1.2511 0.1165 3.6249 0.285 5.3241 0.0642 0.4499 -0.0585 0.7619 -0.4765 0.6978 -0.9255l-1.6347 -11.4435Z" stroke-width="1"></path>
  <path fill="#5b5c5f" d="M23.9588 10.0372c-0.5886 -0.0035 -1.1777 0.1405 -1.7664 0.435L20.567 21.849c-0.0659 0.4621 0.2644 0.8844 0.7291 0.9276 0.662 0.062 1.6386 0.1375 2.6627 0.1628V10.0372Z" stroke-width="1"></path>
  <path fill="#f0f1f1" d="M31.9866 23.7385c-5.3354 -1.9683 -10.7101 -1.9775 -16.056 -0.0157 -0.4137 0.1518 -0.6406 0.5978 -0.5337 1.0254l2.3987 9.5943 0.4861 1.9448c0.2466 0.984 1.1311 1.6747 2.1456 1.6747h7.7834c1.0643 0 1.9776 -0.7579 2.1736 -1.8039l2.146 -11.4457c0.0777 -0.4132 -0.1492 -0.8286 -0.5437 -0.9739Z" stroke-width="1"></path>
  <path fill="#ffffff" d="M23.9584 22.2598c-2.6758 -0.0039 -5.352 0.4808 -8.0273 1.4626 -0.4137 0.1519 -0.6406 0.5978 -0.5337 1.0254l2.3987 9.5943 0.4861 1.9448c0.2461 0.984 1.1306 1.6747 2.1452 1.6747h3.5306l0.0004 -15.7018Z" stroke-width="1"></path>
  <path fill="#df2c2c" d="M30.8443 25.9367c0.0563 -0.2997 -0.1086 -0.6008 -0.3945 -0.7064 -3.8814 -1.4321 -9.1418 -1.4242 -13.0232 0 -0.3003 0.11 -0.4643 0.4337 -0.3871 0.7435l2.801 9.0275c0.1785 0.7139 0.82 1.2148 1.5561 1.2148h5.6452c0.772 0 1.4344 -0.5498 1.5766 -1.3081l2.2259 -8.9713Z" stroke-width="1"></path>
  <path fill="#fa5655" d="M23.9589 24.1592c-2.2922 -0.0013 -4.5857 0.3565 -6.5323 1.0708 -0.3003 0.1099 -0.4643 0.4337 -0.3871 0.7435l2.8015 9.0275c0.178 0.7143 0.8194 1.2152 1.5556 1.2152h2.5623v-12.057Z" stroke-width="1"></path>
</svg>