<svg xmlns="http://www.w3.org/2000/svg" fill="none" viewBox="0 0 14 14"><g id="inbox-favorite--mail-envelope-email-message-star-favorite-important-bookmark"><path id="Vector" stroke="#3e3e3e" stroke-linecap="round" stroke-linejoin="round" d="M9.45 7.336a.59.59 0 0 1 1.1 0l.64 1.63h1.71a.61.61 0 0 1 .56.39.59.59 0 0 1-.16.65l-1.51 1.35.64 1.28a.58.58 0 0 1-.12.69.61.61 0 0 1-.7.1l-1.61-.91-1.61.88a.61.61 0 0 1-.7-.1.58.58 0 0 1-.12-.69l.64-1.28-1.51-1.36a.59.59 0 0 1-.16-.65.61.61 0 0 1 .56-.35h1.71l.64-1.63Z"></path><path id="Vector_2" stroke="#3e3e3e" stroke-linecap="round" stroke-linejoin="round" d="M4 9.5H1.5a1 1 0 0 1-1-1v-7a1 1 0 0 1 1-1h10a1 1 0 0 1 1 1v4"></path><path id="Vector_3" stroke="#3e3e3e" stroke-linecap="round" stroke-linejoin="round" d="M.5 1.76 6.5 6l6-4.24"></path></g></svg>