<svg xmlns="http://www.w3.org/2000/svg" fill="none" viewBox="0 0 14 14"><g id="smiley-drool"><path id="Vector 576" stroke="#3e3e3e" stroke-linecap="round" stroke-linejoin="round" d="M9.5 9.95v1.8a1.25 1.25 0 0 1-2.5 0V11c.481-.481 1.537-1.05 2.5-1.05Z"></path><path id="Ellipse 650" stroke="#3e3e3e" stroke-linecap="round" stroke-linejoin="round" d="M3.5 7.5A3.5 3.5 0 0 0 7 11v.75a1.25 1.25 0 1 0 2.5 0v-1.8c.619-.632 1-1.496 1-2.45h-7Z"></path><path id="Vector" stroke="#3e3e3e" stroke-linecap="round" stroke-linejoin="round" d="M12.124 11A6.5 6.5 0 1 0 5 13.187"></path><path id="Vector 557" stroke="#3e3e3e" stroke-linecap="round" stroke-linejoin="round" d="M3.797 5.377c.092-.179.38-.497.713-.69.333-.192.753-.282.954-.272"></path><path id="Vector 559" stroke="#3e3e3e" stroke-linecap="round" stroke-linejoin="round" d="M8.536 4.413c.201-.01.62.08.954.273.333.192.621.51.713.69"></path></g></svg>