<svg xmlns="http://www.w3.org/2000/svg" fill="none" viewBox="0 0 24 24" id="Allowances-No-Bicycles-Sign--Streamline-Freehand">
  <desc>
    Allowances No Bicycles Sign Streamline Icon: https://streamlinehq.com
  </desc>
  <path fill="#0c6fff" fill-rule="evenodd" d="M23.2825 8.32034c-0.5092 -1.61621 -1.3582 -3.10483 -2.4899 -4.36599 -1.1318 -1.26116 -2.5202 -2.26569 -4.0721 -2.9462 -0.8354 -0.364793 -1.7072 -0.639753 -2.6008 -0.820245C11.1739 -0.154167 8.20193 0.5543 5.72724 2.1885 3.76365 3.32888 2.18037 5.02351 1.17588 7.05996 0.676981 8.23245 0.340443 9.46755 0.175576 10.7311c-0.1884044 1.2614 -0.2253441 2.5409 -0.1100325 3.8111 0.1606745 1.4265 0.6503385 2.7962 1.4304265 4.0012 0.73876 1.2971 1.74529 2.4221 2.95262 3.3 1.20733 0.8779 2.58777 1.4886 4.04947 1.7915 1.52114 0.2767 3.07404 0.3339 4.61134 0.1701 2.303 -0.1834 4.5304 -0.9065 6.502 -2.1107 1.351 -0.8303 2.4425 -2.0223 3.1509 -3.441 1.446 -3.1205 1.6324 -6.6785 0.5202 -9.93296ZM2.41625 17.9632c-0.70434 -1.0504 -1.15938 -2.2479 -1.3304 -3.501 -0.144763 -1.1826 -0.144763 -2.3785 0 -3.5611 0.15191 -1.20555 0.46131 -2.38597 0.92027 -3.51104 0.90003 -1.89157 2.32777 -3.48258 4.11123 -4.58137C6.29741 2.69866 9.86847 0.127888 14.0097 0.888115c0.8381 0.182735 1.6533 0.457825 2.4307 0.820245 1.4219 0.62231 2.6815 1.56355 3.6811 2.75082 -0.3297 0.3542 -0.6804 0.68824 -1.0503 1.0003 -1.0603 0.84025 -2.1806 1.61048 -3.1609 2.50075 -0.8003 0.75022 -1.6005 1.48044 -2.3907 2.23067 -1.1904 1.1303 -2.3607 2.2707 -3.5111 3.441 -1.15033 1.1704 -2.49073 2.6508 -3.71109 4.0012 -0.63019 0.7002 -1.30039 1.3604 -1.93058 2.0606l-0.21006 0.2701c-0.65354 -0.5993 -1.23741 -1.2704 -1.74052 -2.0006Zm19.43585 -0.17c-0.821 1.5305 -2.1211 2.7498 -3.7011 3.471 -1.5949 0.7807 -3.3218 1.2557 -5.0916 1.4004 -1.4307 0.1527 -2.8759 0.0988 -4.29125 -0.16 -1.38245 -0.2533 -2.67717 -0.8559 -3.76113 -1.7505l-0.36011 -0.3101c0.08003 -0.0801 0.14005 -0.1601 0.22007 -0.2301 0.6702 -0.6702 1.39041 -1.2904 2.06062 -1.9506 1.00029 -1.0003 1.95058 -1.8906 2.93087 -2.8408 0.98033 -0.9503 1.95063 -1.9006 2.91083 -2.8609 1.2404 -1.2804 2.5408 -2.60077 3.8212 -3.88116 0.9203 -1.00029 2.0006 -1.77052 3.0009 -2.67079 0.3512 -0.31517 0.6851 -0.64909 1.0003 -1.0003 1.3483 1.80658 2.1806 3.9455 2.4078 6.18825 0.2273 2.2428 -0.1589 4.5052 -1.1174 6.5456l-0.03 0.05Z" clip-rule="evenodd" stroke-width="1"></path>
  <path fill="#020202" fill-rule="evenodd" d="M16.5504 10.9611c-0.0397 -0.0056 -0.0801 -0.0029 -0.1187 0.0079 -0.0386 0.0108 -0.0745 0.0294 -0.1055 0.0548 -0.031 0.0254 -0.0564 0.0569 -0.0747 0.0926 -0.0182 0.0357 -0.0288 0.0748 -0.0312 0.1148 -0.0041 0.0394 -0.0004 0.0793 0.0109 0.1173 0.0114 0.038 0.0302 0.0734 0.0553 0.1041 0.0251 0.0307 0.0561 0.0561 0.0911 0.0747 0.035 0.0187 0.0733 0.0302 0.1128 0.034 0.2148 0.0495 0.4159 0.1461 0.5889 0.2828 0.173 0.1366 0.3135 0.3099 0.4114 0.5074 0.3584 0.6019 0.5095 1.3046 0.4301 2.0006 -0.049 0.3785 -0.173 0.7435 -0.3648 1.0736 -0.1917 0.33 -0.4473 0.6185 -0.7519 0.8485 -0.3046 0.2301 -0.652 0.3971 -1.0219 0.4913s-0.7548 0.1137 -1.1324 0.0573c-0.2599 -0.0474 -0.4961 -0.1813 -0.6702 -0.3801 -0.1883 -0.2007 -0.3165 -0.4502 -0.3701 -0.7202 0.0085 -0.0488 0.0062 -0.0989 -0.0067 -0.1468 -0.013 -0.0479 -0.0362 -0.0923 -0.0681 -0.1303 -0.032 -0.0379 -0.0718 -0.0684 -0.1168 -0.0893 -0.0449 -0.021 -0.0939 -0.0318 -0.1435 -0.0318 -0.0496 0 -0.0985 0.0108 -0.1435 0.0318 -0.0449 0.0209 -0.0848 0.0514 -0.1167 0.0893 -0.0319 0.038 -0.0552 0.0824 -0.0681 0.1303 -0.0129 0.0479 -0.0152 0.098 -0.0068 0.1468 0.0187 0.4318 0.1766 0.8459 0.4502 1.1804 0.2643 0.3591 0.641 0.6196 1.0703 0.7402 0.5066 0.1386 1.0372 0.1657 1.5553 0.0794 0.5181 -0.0864 1.0113 -0.2841 1.4456 -0.5796 0.4433 -0.3131 0.8121 -0.7202 1.0801 -1.1923 0.268 -0.472 0.4286 -0.9973 0.4703 -1.5385 -0.0035 -0.9194 -0.3093 -1.8122 -0.8702 -2.5407 -0.1832 -0.2581 -0.4203 -0.4732 -0.695 -0.6303 -0.2746 -0.1572 -0.5802 -0.2528 -0.8955 -0.28Z" clip-rule="evenodd" stroke-width="1"></path>
  <path fill="#020202" fill-rule="evenodd" d="M4.67685 15.4025c0.16691 0.138 0.35204 0.2525 0.55016 0.3401 0.27046 0.1251 0.55169 0.2256 0.84025 0.3 0.04261 0.0153 0.08798 0.0214 0.13311 0.0179 0.04513 -0.0036 0.08899 -0.0167 0.1287 -0.0384 0.0397 -0.0217 0.07434 -0.0517 0.10163 -0.0878 0.02729 -0.0361 0.04661 -0.0776 0.05669 -0.1217 0.014 -0.0427 0.01941 -0.0877 0.01591 -0.1325 -0.00349 -0.0448 -0.01583 -0.0885 -0.03629 -0.1285 -0.02046 -0.0399 -0.04864 -0.0755 -0.08292 -0.1045 -0.03427 -0.0291 -0.07396 -0.051 -0.11677 -0.0646 -0.19879 -0.0741 -0.39259 -0.161 -0.58017 -0.2601 -0.17065 -0.0887 -0.32874 -0.1997 -0.47014 -0.3301 -0.31242 -0.3043 -0.55478 -0.6729 -0.71021 -1.0803 -0.14479 -0.376 -0.17949 -0.7854 -0.10003 -1.1804 0.1245 -0.6197 0.48268 -1.1677 1.00029 -1.5305 0.40587 -0.3215 0.91293 -0.4882 1.43043 -0.4701l-0.62018 2.0006c-0.01457 0.0368 -0.02172 0.0761 -0.02105 0.1156 0.00068 0.0395 0.00916 0.0786 0.02496 0.1148 0.0158 0.0363 0.03862 0.069 0.06713 0.0964 0.02851 0.0275 0.06216 0.049 0.09901 0.0633 0.07585 0.0272 0.15918 0.0249 0.23336 -0.0067 0.07417 -0.0315 0.13372 -0.0898 0.16676 -0.1633l0.86026 -2.0006 0.17005 0.11c0.21579 0.1505 0.41086 0.3288 0.58017 0.5302 0.02118 0.0327 0.04875 0.0609 0.08106 0.0827 0.03231 0.0219 0.0687 0.037 0.10699 0.0445 0.03828 0.0074 0.07769 0.0071 0.11584 -0.001 0.03816 -0.0081 0.07429 -0.0238 0.10623 -0.0462 0.06636 -0.0449 0.11279 -0.1136 0.12957 -0.192 0.01678 -0.0783 0.00261 -0.16 -0.03954 -0.2281 -0.17328 -0.27 -0.38186 -0.5156 -0.62019 -0.7303 -0.08724 -0.0641 -0.17736 -0.1241 -0.27008 -0.18l0.13004 -0.31011 0.46014 -1.08032c0.14004 0.18005 0.30009 0.38011 0.47014 0.56017 0.17143 0.18561 0.35524 0.3594 0.55016 0.52015 0.29252 0.20271 0.56698 0.43021 0.82028 0.68021 0.1713 0.1567 0.3255 0.331 0.4601 0.5202 0.0409 0.0812 0.1118 0.1433 0.1977 0.1731 0.0859 0.0299 0.18 0.0252 0.2624 -0.0131 0.0795 -0.0427 0.1401 -0.1137 0.1697 -0.1989 0.0296 -0.0852 0.0262 -0.1784 -0.0096 -0.2612 -0.1288 -0.3373 -0.3003 -0.6566 -0.5102 -0.95032 -0.1954 -0.28061 -0.4093 -0.54795 -0.6402 -0.80024 0 0 -0.29 -0.26008 -0.62014 -0.49015 -0.27551 -0.19434 -0.56281 -0.3714 -0.86025 -0.53016v-0.13004l1.92059 0.39012c0.3324 0.03627 0.6678 0.03627 1.0003 0 0.5702 0 1.2504 -0.15004 2.0006 -0.15004 0.0902 0.00928 0.1804 -0.01765 0.2507 -0.07486 0.0704 -0.05722 0.1151 -0.14004 0.1244 -0.23024 0.0093 -0.0902 -0.0177 -0.18039 -0.0749 -0.25074 -0.0572 -0.07035 -0.14 -0.11508 -0.2302 -0.12437 -0.4843 -0.11037 -0.9756 -0.18724 -1.4704 -0.23007 -0.5602 0 -1.0003 0 -1.3604 -0.12003 -0.1667 -0.00848 -0.3336 -0.00848 -0.5002 0 -0.3801 0 -0.87026 0 -1.30039 0.07002l0.29009 -0.68021c0.14004 -0.28008 0.29009 -0.76022 0.4801 -1.16034 0.0801 -0.17005 0.1401 -0.36011 0.2701 -0.41012 0.234 -0.06629 0.4774 -0.09333 0.7202 -0.08003 0.4544 -0.01507 0.9092 0.005 1.3604 0.06002 0.048 0.01693 0.099 0.02322 0.1496 0.01843 0.0507 -0.00479 0.0996 -0.02055 0.1435 -0.04617 0.0439 -0.02563 0.0817 -0.06051 0.1108 -0.10222 0.0291 -0.04171 0.0487 -0.08925 0.0575 -0.13931 0.0089 -0.05007 0.0067 -0.10146 -0.0063 -0.1506 -0.0131 -0.04914 -0.0367 -0.09485 -0.0691 -0.13395 -0.0325 -0.03911 -0.0731 -0.07067 -0.119 -0.0925 -0.046 -0.02182 -0.0961 -0.03339 -0.1469 -0.03388 -0.4722 -0.09664 -0.9499 -0.16346 -1.4304 -0.20006 -0.3725 -0.03794 -0.7488 -0.00742 -1.11038 0.09002 -0.28622 0.11455 -0.52815 0.31791 -0.6902 0.58018 -0.2649 0.42784 -0.50213 0.87222 -0.71022 1.33039 -0.26017 0.45031 -0.48105 0.92219 -0.66019 1.41043 -0.25008 0.6902 -0.45014 1.41042 -0.71022 2.09062l-0.08002 0.26008c-0.39099 -0.1005 -0.79874 -0.11771 -1.1968 -0.05051 -0.39807 0.06721 -0.77757 0.21733 -1.11389 0.44065 -0.39886 0.2552 -0.73891 0.5923 -0.99759 0.989 -0.25868 0.3966 -0.43009 0.8437 -0.50286 1.3117 -0.06429 0.5978 0.04328 1.2016 0.31009 1.7405 0.26919 0.4874 0.63714 0.9133 1.08033 1.2504Z" clip-rule="evenodd" stroke-width="1"></path>
  <path fill="#020202" fill-rule="evenodd" d="M13.5093 14.2119c0.2492 0.0871 0.5029 0.1605 0.76 0.22 0.1095 0.0152 0.2205 0.0152 0.33 0 0.1095 0.0149 0.2205 0.0149 0.33 0 0.2716 -0.0594 0.5363 -0.1465 0.79 -0.26 0.0403 -0.0013 0.0799 -0.0106 0.1165 -0.0275 0.0366 -0.0169 0.0694 -0.0411 0.0965 -0.0709 0.0271 -0.0299 0.0478 -0.0649 0.0611 -0.103 0.0132 -0.0381 0.0186 -0.0784 0.0159 -0.1186 -0.0051 -0.0805 -0.0414 -0.1558 -0.1012 -0.2099 -0.0597 -0.0542 -0.1382 -0.0829 -0.2188 -0.0801 -0.26 -0.06 -0.47 -0.17 -0.74 -0.23h-0.32c-0.1098 -0.0099 -0.2202 -0.0099 -0.33 0 -0.2631 0.0457 -0.5235 0.1058 -0.78 0.18 -0.0445 -0.0028 -0.0891 0.0037 -0.131 0.0191 -0.0419 0.0155 -0.08 0.0395 -0.112 0.0706 -0.0321 0.0311 -0.0572 0.0685 -0.0739 0.1099 -0.0167 0.0414 -0.0246 0.0858 -0.0231 0.1304 -0.0041 0.0463 0.0013 0.0929 0.0159 0.137 0.0146 0.0441 0.0381 0.0847 0.069 0.1194 0.031 0.0347 0.0687 0.0626 0.1108 0.0822 0.0422 0.0195 0.0879 0.0302 0.1343 0.0314Z" clip-rule="evenodd" stroke-width="1"></path>
</svg>