<svg xmlns="http://www.w3.org/2000/svg" fill="none" viewBox="0 0 24 24" id="Information-Desk-Question-Help--Streamline-Freehand">
  <desc>
    Information Desk Question Help Streamline Icon: https://streamlinehq.com
  </desc>
  <path fill="#020202" fill-rule="evenodd" d="M19.454 6.4977c-0.0454 -0.3372 -0.1122 -0.67117 -0.2 -0.99986 -0.0926 -0.34253 -0.213 -0.67693 -0.36 -0.99987 -0.545 -1.15995 -1.3407 -2.18446 -2.3297 -2.99959C15.5824 0.666761 14.3741 0.147919 13.0948 0.00858262 12.1823 -0.0368352 11.2694 0.0921157 10.4052 0.388531 9.56495 0.674509 8.76512 1.0677 8.02551 1.55837c-1.51582 0.91668 -2.66756 2.32986 -3.25956 3.99946 -1.4198 5.17927 3.6895 7.24897 4.30942 3.93946 0.00178 -0.97603 -0.05833 -1.95118 -0.17998 -2.9196 0.04187 -0.3791 0.17463 -0.74249 0.387 -1.05931 0.21237 -0.31681 0.49807 -0.57768 0.83281 -0.76044 0.6634 -0.44229 1.4542 -0.65318 2.2497 -0.59992 0.2622 0.03848 0.52 0.1021 0.7699 0.18997 0.2375 0.09563 0.4625 0.21986 0.6699 0.36995 0.2099 0.16401 0.38 0.37327 0.4977 0.61218 0.1178 0.23891 0.18 0.5013 0.1822 0.76763 -0.0059 0.58076 -0.1645 1.14974 -0.4599 1.64978 -0.7199 1.30982 -2.1797 1.99973 -3.1396 2.99957 -0.4968 0.5444 -0.8417 1.2099 -0.99984 1.9298 -0.10999 0.6099 -0.22997 1.2598 -0.28996 1.8997 -0.04946 0.4381 -0.0695 0.879 -0.05999 1.3198 -0.01737 0.3823 0.0581 0.7631 0.21997 1.1099 0.12496 0.2198 0.32862 0.3842 0.56992 0.4599 0.1707 0.0482 0.3444 0.0849 0.5199 0.11l0.6599 0.05c0.4082 0.054 0.8217 0.054 1.2299 0 0.357 -0.0566 0.6883 -0.2205 0.9498 -0.47 0.1405 -0.15 0.2343 -0.3375 0.27 -0.5399 0.0292 -0.4194 0.0292 -0.8404 0 -1.2598 0.0316 -0.5658 0.1119 -1.1278 0.24 -1.6798 0.0924 -0.3293 0.234 -0.6428 0.4199 -0.9299 0.1002 -0.1435 0.2341 -0.2602 0.39 -0.3399 0.3239 -0.17 0.6578 -0.3203 0.9998 -0.4499 0.9755 -0.3315 1.8711 -0.8627 2.6297 -1.5598 0.5113 -0.5678 0.8084 -1.2963 0.8399 -2.05975v-0.89988c0.0153 -0.31337 0.0087 -0.62744 -0.02 -0.93987Zm-1.0699 1.70977c-0.0138 0.5136 -0.2085 1.00583 -0.5499 1.38981 -0.6507 0.57362 -1.4133 1.00602 -2.2397 1.26982 -0.3922 0.1455 -0.776 0.3124 -1.1499 0.4999 -0.3059 0.1726 -0.569 0.4118 -0.7699 0.6999 -0.2592 0.3875 -0.4487 0.8172 -0.5599 1.2699 -0.1455 0.621 -0.2392 1.2531 -0.2799 1.8897v1.1299c-0.1326 0.0814 -0.2844 0.1263 -0.44 0.1299 -0.2591 0.0298 -0.5208 0.0298 -0.7799 0 -0.6099 -0.07 -0.9998 0 -0.9998 -0.5999 -0.0196 -0.4907 0.0004 -0.9823 0.06 -1.4698 0.0599 -0.5099 0.1499 -0.9998 0.2299 -1.4998 0.11 -0.5386 0.366 -1.0367 0.7399 -1.4398 0.9999 -1.1098 2.4797 -1.88972 3.2096 -3.26953 0.4637 -0.79311 0.6402 -1.72169 0.4999 -2.62964 -0.1244 -0.63565 -0.4808 -1.20231 -0.9999 -1.58979 -0.2716 -0.20826 -0.5756 -0.3704 -0.8998 -0.47993 -0.3226 -0.11733 -0.6584 -0.19457 -0.9999 -0.22997 -0.9901 -0.05165 -1.9699 0.22227 -2.78961 0.77989 -0.4379 0.26064 -0.80649 0.62302 -1.07454 1.05642 -0.26804 0.4334 -0.42764 0.92504 -0.46525 1.43324 0.14024 0.93042 0.2204 1.8689 0.23996 2.80962 -0.14997 0.81989 -1.76975 1.73979 -2.82961 -0.59992 -0.26581 -0.58573 -0.38643 -1.22694 -0.35162 -1.86922 0.03481 -0.64229 0.22403 -1.2667 0.55159 -1.82028 0.65236 -1.1609 1.58796 -2.13778 2.71963 -2.83961 0.6897 -0.42843 1.4326 -0.76458 2.20975 -0.99986 0.7613 -0.243902 1.5618 -0.342269 2.3596 -0.289964 1.0851 0.158644 2.0963 0.643334 2.8996 1.389814 0.8539 0.73682 1.5364 1.65138 1.9998 2.67963 0.1099 0.26997 0.1999 0.53993 0.2899 0.81989 0.0662 0.27682 0.1163 0.55726 0.15 0.83989 0 0.25996 0.05 0.52992 0.05 0.79989 0.008 0.24703 -0.002 0.49432 -0.03 0.7399Z" clip-rule="evenodd" stroke-width="1"></path>
  <path fill="#020202" fill-rule="evenodd" d="M9.02551 20.326c-0.18202 0.1787 -0.3266 0.3919 -0.4253 0.6271 -0.09869 0.2353 -0.14953 0.4878 -0.14953 0.7429s0.05084 0.5076 0.14953 0.7428c0.0987 0.2353 0.24328 0.4485 0.4253 0.6272 0.11925 0.1244 0.24617 0.2413 0.38 0.35 0.13504 0.1104 0.28275 0.2044 0.44 0.28 0.49939 0.2439 1.05679 0.3443 1.60999 0.29 0.5644 -0.0546 1.0951 -0.2936 1.51 -0.68 0.3061 -0.2898 0.5316 -0.6541 0.6544 -1.0574 0.1227 -0.4032 0.1384 -0.8315 0.0456 -1.2426 -0.47 -2.14 -3.21 -2.28 -4.63999 -0.68Zm3.21999 2.21c-0.2665 0.2071 -0.5926 0.3228 -0.93 0.33 -0.3456 0.0305 -0.6927 -0.0389 -1 -0.2l-0.49999 -0.38c-0.58 -0.56 -0.27 -1.23 0.24999 -1.69 1.56 -1.34 2.63 -0.22 2.75 0.6 0.0257 0.2533 -0.0131 0.509 -0.1128 0.7432 -0.0996 0.2343 -0.2569 0.4396 -0.4572 0.5968Z" clip-rule="evenodd" stroke-width="1"></path>
</svg>