<svg xmlns="http://www.w3.org/2000/svg" fill="none" viewBox="0 0 24 24" id="Locker-Room-Hanger-Woman--Streamline-Freehand">
  <desc>
    Locker Room Hanger Woman Streamline Icon: https://streamlinehq.com
  </desc>
  <path fill="#020202" fill-rule="evenodd" d="M23.783 11.7228c-0.267 -0.4102 -0.5714 -0.7949 -0.9093 -1.1491 -0.146 -0.1618 -0.3103 -0.306 -0.4897 -0.4297 -0.3597 -0.23979 -0.8094 -0.4896 -0.9992 -0.64948 -0.2767 -0.18249 -0.5801 -0.32071 -0.8993 -0.40969 -0.6695 -0.21984 -1.5089 -0.3997 -1.9186 -0.51961h-0.0899c-0.3427 -0.29372 -0.7693 -0.47202 -1.2191 -0.50961 0.8132 -0.08486 1.5756 -0.43616 2.1684 -0.99925 0.8521 -0.80981 1.3962 -1.89078 1.5388 -3.05768 0.1016 -0.82695 -0.0667 -1.66458 -0.4796 -2.38819 -0.3553 -0.51819 -0.8404 -0.933994 -1.4068 -1.205806 -0.5664 -0.271812 -1.1943 -0.3900986 -1.8208 -0.3430242 -0.6412 0.1026072 -1.25 0.3522742 -1.7786 0.7294482 -0.5497 0.352112 -1.0446 0.783062 -1.4689 1.279032 -0.3029 0.35098 -0.5399 0.75382 -0.6995 1.1891 -0.1784 0.4883 -0.2475 1.00977 -0.2027 1.52769 0.0449 0.51792 0.2028 1.0197 0.4625 1.47004 0.2579 0.43582 0.6017 0.81468 1.0106 1.11357 0.4088 0.29888 0.8741 0.51156 1.3676 0.62511 0.3278 0.07386 0.6633 0.10742 0.9992 0.09993 -0.5145 0.11672 -0.9774 0.39722 -1.319 0.79939 -0.0737 -0.02947 -0.156 -0.02947 -0.2298 0 -0.7179 0.14121 -1.3985 0.43047 -1.9985 0.84936 -0.6096 0.39057 -1.1641 0.86107 -1.6487 1.39897l-0.4397 0.6395 -0.0899 -0.1699c-0.3098 -0.4996 -0.5896 -0.9992 -0.9193 -1.4989 -0.1373 -0.22491 -0.2874 -0.44177 -0.44968 -0.64946 -0.024 -0.03655 -0.05524 -0.0678 -0.09179 -0.0918 -0.03655 -0.024 -0.07764 -0.04024 -0.12072 -0.04774 -0.04308 -0.00749 -0.08724 -0.00607 -0.12975 0.00418 -0.04251 0.01026 -0.08246 0.02912 -0.11739 0.05542 -0.07345 0.05074 -0.12471 0.12765 -0.14329 0.21497 -0.01858 0.08731 -0.00306 0.17843 0.04337 0.25468 0.1299 0.20985 0.23981 0.41965 0.34973 0.62955 0.2598 0.5296 0.44962 1.0692 0.70942 1.6088 0.1155 0.2816 0.2777 0.5417 0.4797 0.7694 0.1656 0.1537 0.3753 0.2516 0.5995 0.2798 0.0982 0.0057 0.1963 -0.0133 0.2853 -0.0552 0.089 -0.0418 0.1661 -0.1053 0.2243 -0.1847 0.0923 -0.1274 0.1757 -0.2609 0.2499 -0.3997l0.4596 -0.6595c0.4532 -0.6066 0.9878 -1.148 1.5888 -1.6087 0.2286 -0.1898 0.4726 -0.36023 0.7294 -0.50966 -0.9456 1.38086 -1.6924 2.88776 -2.2183 4.47666 -0.2204 0.7897 -0.4005 1.5901 -0.5396 2.3981 -0.2897 1.5689 -0.4596 2.9978 -0.5995 3.5973 -0.1399 0.5996 0.9992 0.5096 2.588 0.5696 -0.0825 0.2711 -0.1427 0.5484 -0.1798 0.8294 -0.01 0.163 -0.01 0.3265 0 0.4896v0.4896c0.0776 0.3916 0.1879 0.776 0.3297 1.1491 0.0084 0.0441 0.0254 0.086 0.0501 0.1235 0.0246 0.0374 0.0564 0.0696 0.0936 0.0947 0.0372 0.025 0.0789 0.0425 0.1228 0.0514 0.044 0.0089 0.0892 0.0089 0.1332 0.0002 0.0877 -0.0192 0.1646 -0.0715 0.2148 -0.1459 0.0502 -0.0744 0.0699 -0.1652 0.055 -0.2538 0 -0.2797 0.05 -0.6495 0.0799 -1.0791 0.01 -0.1531 0.01 -0.3066 0 -0.4597 0.0103 -0.1564 0.0103 -0.3133 0 -0.4696 0 -0.2998 -0.1099 -0.5496 -0.1598 -0.7794h0.4197c0.4523 0.0325 0.9026 0.0892 1.3489 0.1698 0.5612 0.1128 1.1283 0.1928 1.6987 0.2398h0.2698c-0.0641 0.1859 -0.1142 0.3763 -0.1498 0.5696 -0.0363 0.1403 -0.0531 0.2848 -0.05 0.4297 -0.0148 0.1495 -0.0148 0.3001 0 0.4496 0.0476 0.3679 0.1451 0.7276 0.2898 1.0692 0.0213 0.0874 0.0764 0.1628 0.1532 0.2096 0.0768 0.0469 0.169 0.0613 0.2565 0.0402 0.0426 -0.0092 0.083 -0.0271 0.1185 -0.0526 0.0355 -0.0254 0.0654 -0.0579 0.0878 -0.0953 0.0225 -0.0375 0.0371 -0.0791 0.0428 -0.1224 0.0058 -0.0433 0.0026 -0.0873 -0.0093 -0.1293 0 -0.2499 0.0999 -0.5796 0.1299 -0.9993 0.0299 -0.2188 0.0299 -0.4407 0 -0.6595 -0.0133 -0.2461 -0.0501 -0.4904 -0.1099 -0.7294h1.8086c0.2567 -0.0234 0.5021 -0.1167 0.7095 -0.2698 0.0698 -0.0787 0.1234 -0.1704 0.1576 -0.2699 0.0343 -0.0995 0.0487 -0.2047 0.0422 -0.3097 -0.0274 -0.6725 -0.1144 -1.3413 -0.2598 -1.9985 -0.1899 -0.9992 -0.4696 -2.2083 -0.7994 -3.3574 0.1443 -0.1189 0.2981 -0.2258 0.4597 -0.3198 0.4996 -0.2898 1.0592 -0.5196 1.5288 -0.8494 0.2197 -0.1527 0.418 -0.3342 0.5896 -0.5395 0.157 -0.2006 0.2477 -0.4451 0.2598 -0.6995 0.0301 -0.2948 -0.0218 -0.5922 -0.1499 -0.8594Zm-7.5643 -4.8463c-0.3487 -0.08316 -0.6771 -0.23573 -0.9655 -0.44862 -0.2884 -0.21289 -0.531 -0.48172 -0.7132 -0.79044 -0.1911 -0.30499 -0.3157 -0.64687 -0.3656 -1.0033 -0.05 -0.35642 -0.0241 -0.71938 0.0758 -1.06514 0.1346 -0.42477 0.352 -0.81871 0.6395 -1.15912 0.2953 -0.36881 0.6304 -0.70391 0.9993 -0.99924 0.3549 -0.27454 0.7535 -0.487355 1.1791 -0.629525 0.5264 -0.104459 1.0722 -0.043345 1.5624 0.174944 0.4903 0.218291 0.9009 0.583041 1.1755 1.044131 0.2918 0.57668 0.3833 1.23416 0.2598 1.86859 -0.1706 0.9392 -0.6614 1.79024 -1.389 2.40817 -0.3317 0.28958 -0.7281 0.49519 -1.1559 0.59953 -0.4278 0.10434 -0.8744 0.10434 -1.3022 0.00002Zm5.0862 13.3499c-0.0696 0.0104 -0.1403 0.0104 -0.2099 0h-0.9992c-0.5322 0.0402 -1.0667 0.0402 -1.5988 0 -0.5395 -0.027 -1.0767 -0.087 -1.6088 -0.1799 -0.4497 -0.0699 -0.9393 -0.1099 -1.4489 -0.1399h-3.1476c0.1599 -0.7194 0.3497 -1.9185 0.6495 -3.2575 0.1798 -0.7494 0.3797 -1.5488 0.6295 -2.3083 0.4863 -1.2935 1.1307 -2.5219 1.9186 -3.6572 0.3271 -0.5151 0.7277 -0.97964 1.1891 -1.37894 0.1113 -0.09045 0.2469 -0.14607 0.3897 -0.15988 0.6195 0 0.9992 0.57956 1.3489 1.21912 0.492 1.1114 0.893 2.261 1.1991 3.4374 0.7223 1.98 1.2543 4.0244 1.5888 6.1053 0.06 0.08 0.08 0.2299 0.1 0.3198Zm1.6087 -7.4943c-0.093 0.1191 -0.1967 0.2294 -0.3097 0.3297 -0.3897 0.3597 -0.8994 0.6295 -1.339 0.9993 -0.0933 0.0687 -0.1803 0.1456 -0.2598 0.2298 -0.09 -0.2898 -0.1799 -0.5796 -0.2798 -0.8394 -0.3413 -1.3648 -0.8305 -2.6883 -1.4589 -3.94699l0.6195 0.2698c0.3027 0.12032 0.5857 0.28539 0.8394 0.48959l1.279 1.0492c0.1299 0.1499 0.3897 0.4297 0.6295 0.7295 0.2399 0.2998 0.3398 0.3597 0.3398 0.5196 0.0001 0.0618 -0.0211 0.1218 -0.06 0.1699Z" clip-rule="evenodd" stroke-width="1"></path>
  <path fill="#0c6fff" fill-rule="evenodd" d="M8.16458 10.3439H6.10614c-0.61953 0 -1.25905 -0.04 -2.02847 -0.1099 -0.35972 0 -1.06919 -0.09 -1.69871 -0.1899 -0.32196 -0.0282 -0.63824 -0.10225 -0.93929 -0.21983 -0.04393 -0.02029 -0.08331 -0.04922 -0.1158 -0.08508 -0.03249 -0.03586 -0.0574 -0.0779 -0.07326 -0.12361 -0.01586 -0.04571 -0.02234 -0.09416 -0.01904 -0.14243 0.0033 -0.04827 0.0163 -0.09538 0.03823 -0.13851 0.18976 -0.36642 0.43215 -0.70307 0.71945 -0.99925 0.30564 -0.35943 0.63981 -0.6936 0.99925 -0.99924 0.50961 -0.33974 1.08917 -0.77941 1.67873 -1.1891 0.34794 -0.25213 0.7155 -0.47601 1.09917 -0.66949 0.36694 -0.19229 0.76124 -0.32709 1.16911 -0.3997 0.12541 -0.02427 0.2543 -0.02427 0.37971 0 0.15663 0.0415 0.30762 0.1019 0.44966 0.17986l3.19762 1.99849c0.0662 0.03861 0.1446 0.05041 0.2193 0.03296 0.0746 -0.01745 0.1397 -0.06281 0.1819 -0.12677 0.0422 -0.06396 0.0583 -0.14166 0.045 -0.21714 -0.0133 -0.07547 -0.055 -0.14299 -0.1165 -0.18867L8.21454 4.59822c-0.22628 -0.15145 -0.47154 -0.2724 -0.72945 -0.35973 -0.00481 -0.08653 -0.00481 -0.17326 0 -0.2598 0.04483 -0.16037 0.11572 -0.31229 0.20984 -0.44966 0.11465 -0.10845 0.24218 -0.20241 0.37972 -0.27979 0.1974 -0.15559 0.36934 -0.34101 0.50961 -0.54958 0.15438 -0.23278 0.22487 -0.5112 0.19985 -0.7894 -0.02819 -0.40934 -0.1817 -0.80008 -0.43967 -1.119156 -0.25683 -0.293107 -0.57843 -0.522333 -0.93929 -0.669493 -0.36418 -0.1382306 -0.76245 -0.1591926 -1.13913 -0.0599543 -0.39087 0.0882113 -0.74194 0.3023663 -0.99925 0.6095383 -0.137 0.21424 -0.22505 0.456065 -0.25787 0.708245 -0.03281 0.25217 -0.00959 0.50848 0.06802 0.75065 0.04455 0.17769 0.13708 0.3397 0.26749 0.46835s0.29367 0.21897 0.47195 0.2611c0.03666 0.01416 0.07582 0.02071 0.11509 0.01927 0.03928 -0.00145 0.07785 -0.01088 0.11337 -0.0277 0.03552 -0.01683 0.06724 -0.0407 0.09324 -0.07017 0.02601 -0.02947 0.04574 -0.06393 0.05801 -0.10127 0.01416 -0.03666 0.02072 -0.07582 0.01927 -0.11509 -0.00145 -0.03928 -0.01088 -0.07785 -0.0277 -0.11337 -0.01683 -0.03552 -0.0407 -0.06724 -0.07017 -0.09324 -0.02947 -0.026 -0.06393 -0.04574 -0.10126 -0.05801 -0.08519 -0.04272 -0.15499 -0.11087 -0.19975 -0.19501 -0.04476 -0.08414 -0.06225 -0.18011 -0.05006 -0.27463 0.03496 -0.22259 0.14412 -0.42683 0.30976 -0.57956 0.13864 -0.08684 0.29648 -0.13831 0.45965 -0.14989 0.16327 -0.02102 0.32918 0.00317 0.47964 0.06995 0.19512 0.07941 0.36945 0.20246 0.50961 0.35972 0.10615 0.13661 0.17501 0.29844 0.19985 0.46965 0.01727 0.09751 -0.00425 0.19791 -0.05995 0.27979 -0.21984 0.32975 -0.56957 0.59954 -0.6695 0.81938 -0.08846 0.18051 -0.15231 0.37208 -0.18985 0.56957 -0.02652 0.15869 -0.0432 0.31888 -0.04996 0.47963 -0.38519 0.04252 -0.76412 0.12971 -1.12915 0.25981 -0.54477 0.21958 -1.06409 0.49767 -1.54883 0.82937 -0.6443 0.40006 -1.26487 0.83713 -1.85859 1.30901 -0.41143 0.32469 -0.79269 0.68589 -1.13914 1.07918 -0.465404 0.46548 -0.808648 1.0387 -0.9992411 1.66874 -0.0546757 0.29542 -0.0060647 0.60066 0.1376741 0.86453 0.143739 0.2638 0.373856 0.4701 0.651728 0.5844 0.318349 0.1357 0.655119 0.2232 0.999239 0.2598 0.71946 0.0899 1.64876 0.1199 2.07843 0.1299h2.09841c0.64951 0 1.27903 -0.06 2.09841 -0.1399 0.04465 -0.0026 0.08835 -0.0139 0.1286 -0.0334 0.04025 -0.0194 0.07626 -0.0467 0.10597 -0.0801 0.0297 -0.0334 0.05252 -0.0724 0.06714 -0.1146 0.01462 -0.0423 0.02076 -0.087 0.01805 -0.1316 -0.00704 -0.0762 -0.04116 -0.1473 -0.09616 -0.2005 -0.055 -0.0532 -0.12724 -0.0849 -0.20361 -0.0893Z" clip-rule="evenodd" stroke-width="1"></path>
</svg>