<svg xmlns="http://www.w3.org/2000/svg" fill="none" viewBox="0 0 24 24" id="Safety-911-Call--Streamline-Freehand">
  <desc>
    Safety 911 Call Streamline Icon: https://streamlinehq.com
  </desc>
  <path fill="#020202" fill-rule="evenodd" d="M20.5471 3.16977c-0.0407 -0.01906 -0.0848 -0.0299 -0.1297 -0.03191 -0.0449 -0.00202 -0.0898 0.00484 -0.1321 0.02017 -0.0423 0.01533 -0.0811 0.03883 -0.1143 0.06917 -0.0332 0.03034 -0.0601 0.06692 -0.0791 0.10766 -0.0191 0.04073 -0.0299 0.08482 -0.0319 0.12974 -0.002 0.04492 0.0048 0.0898 0.0201 0.13208 0.0154 0.04227 0.0389 0.08111 0.0692 0.1143 0.0304 0.03319 0.0669 0.06008 0.1077 0.07913 1.5608 0.77043 3.0016 3.34186 2.9116 6.47359 -0.1456 2.5357 -1.1636 4.9431 -2.8816 6.8138 -1.3339 1.6532 -3.0099 2.9981 -4.9127 3.9422 -1.8711 0.901 -4.009 1.0791 -6.00339 0.5003 -0.57671 -0.1654 -1.11897 -0.4331 -1.60089 -0.7905 -0.40022 -0.3001 -0.77043 -0.6403 -0.63035 -1.0706 0.03304 -0.0872 0.08038 -0.1684 0.14008 -0.2401 0.15008 -0.2001 0.33018 -0.3802 0.46025 -0.5503 0.3602 -0.4502 0.7104 -0.9005 1.09061 -1.3207 0.38021 -0.4203 0.51028 -0.5503 0.78043 -0.8105 0.16097 -0.1632 0.33136 -0.3169 0.51026 -0.4602 0.1009 -0.087 0.2209 -0.1487 0.3502 -0.1801 0 0 0.1101 0 0.1601 0.07 0.1901 0.1204 0.3738 0.2506 0.5503 0.3902 0.5057 0.4639 1.0836 0.8424 1.711 1.1206 0.2144 0.083 0.4499 0.0948 0.6716 0.0335 0.2216 -0.0613 0.4177 -0.1923 0.5591 -0.3736l3.0817 -3.7822c0.4302 -0.4902 1.0005 -1.0806 1.5308 -1.7109 0.3533 -0.4306 0.6247 -0.9223 0.8005 -1.4508 0.0409 -0.1879 0.0369 -0.3828 -0.0118 -0.56888 -0.0487 -0.18605 -0.1407 -0.35796 -0.2684 -0.50173 -0.4397 -0.50043 -0.9181 -0.96546 -1.4308 -1.39077 -0.3202 -0.29016 -0.6203 -0.55031 -0.6603 -0.81045l0.4002 -0.5403 1.7109 -2.28128c0.0298 -0.02629 0.0537 -0.05862 0.0701 -0.09485 0.0163 -0.03622 0.0248 -0.07551 0.0248 -0.11526 0 -0.03975 -0.0085 -0.07904 -0.0248 -0.11527 -0.0164 -0.03623 -0.0403 -0.06856 -0.0701 -0.09485 -0.0279 -0.02874 -0.0614 -0.05159 -0.0983 -0.06719 -0.037 -0.0156 -0.0767 -0.02363 -0.1168 -0.02363s-0.0798 0.00803 -0.1167 0.02363c-0.037 0.0156 -0.0704 0.03845 -0.0984 0.06719l-1.801 2.29128c-0.1001 0.14007 -0.3102 0.33018 -0.4303 0.53029 -0.0798 0.154 -0.1145 0.32742 -0.1 0.50028 0.0891 0.30634 0.2544 0.58514 0.4803 0.81045 0.4502 0.50028 1.1706 1.05059 1.5708 1.56087 0.1601 0.19011 0.2802 0.3602 0.2302 0.52027 -0.1534 0.4277 -0.3878 0.8218 -0.6904 1.1607 -0.5003 0.6003 -1.1106 1.1606 -1.5309 1.6309l-3.2018 3.722c-0.05 0.0601 -0.12 0 -0.2001 0 -0.1334 -0.0506 -0.2583 -0.1215 -0.3702 -0.2101 -0.5903 -0.4002 -1.2207 -1.0005 -1.6909 -1.3007 -0.2026 -0.1196 -0.4353 -0.1786 -0.6704 -0.1701 -0.2914 0.0219 -0.57138 0.1222 -0.81044 0.2902 -0.27144 0.1916 -0.5289 0.4022 -0.77043 0.6303 -0.30017 0.2802 -0.58033 0.5703 -0.85048 0.8705s-0.78043 0.9105 -1.15064 1.3708c-0.16009 0.2101 -0.39021 0.4402 -0.57031 0.6804 -0.09458 0.1473 -0.17181 0.3051 -0.23013 0.4702 -0.08581 0.3629 -0.06851 0.7425 0.04994 1.0961s0.33334 0.6671 0.62043 0.905c0.67542 0.6057 1.47933 1.0504 2.35131 1.3008 2.24515 0.665 4.65655 0.4798 6.77375 -0.5203 2.0058 -1.0402 3.7608 -2.505 5.1429 -4.2924 1.8406 -2.0538 2.9028 -4.688 3.0017 -7.4442 0.05 -3.49192 -1.691 -6.27347 -3.452 -7.11393Z" clip-rule="evenodd" stroke-width="1"></path>
  <path fill="#0c6fff" fill-rule="evenodd" d="M3.98781 1.45879c-0.58627 -0.35891 -1.28866 -0.477065 -1.96009 -0.32972 -0.67143 0.14734 -1.259805 0.54874 -1.641917 1.12016 -0.208616 0.28528 -0.3379547 0.62073 -0.3748615 0.97223 -0.0369067 0.35149 0.019935 0.70648 0.1647445 1.02888 0.160639 0.30377 0.389866 0.56593 0.669491 0.76566 0.279623 0.19973 0.601953 0.33155 0.941403 0.38498 0.22052 0.04888 0.44478 0.07901 0.67038 0.09005 0.22636 0.01976 0.45401 0.01976 0.68037 0 0.29595 -0.0447 0.58298 -0.13587 0.85048 -0.27015 0.25079 -0.11455 0.48073 -0.2701 0.68038 -0.46025 -0.01351 0.51795 -0.13985 1.02672 -0.37021 1.49082 -0.13095 0.36002 -0.33512 0.68898 -0.59961 0.96612 -0.26449 0.27713 -0.58356 0.49643 -0.93707 0.64404 -0.35352 0.14761 -0.73379 0.22033 -1.11682 0.21357 -0.38304 -0.00676 -0.76051 -0.09286 -1.108594 -0.25285C0.501131 7.803 0.462882 7.79077 0.423359 7.78634c-0.039523 -0.00442 -0.07953 -0.00094 -0.117698 0.01023 -0.038168 0.01117 -0.073736 0.02981 -0.104637 0.05485 -0.030901 0.02503 -0.056519 0.05596 -0.075366 0.09098 -0.019332 0.03475 -0.0315643 0.073 -0.035987 0.11252 -0.0044228 0.03953 -0.0009477 0.07953 0.0102235 0.1177 0.0111715 0.03817 0.0298155 0.07374 0.0548505 0.10464 0.025034 0.0309 0.05596 0.05652 0.09098 0.07537C2.24684 9.50327 4.24795 8.40265 5.14845 6.72172c0.27861 -0.41892 0.46989 -0.88972 0.56239 -1.38425 0.09251 -0.49452 0.08434 -1.00263 -0.02401 -1.49393 -0.10834 -0.4913 -0.31465 -0.95571 -0.60657 -1.36546 -0.29193 -0.40974 -0.66349 -0.75642 -1.09245 -1.01929Zm0.23013 2.77154c-0.16657 0.136 -0.35192 0.24722 -0.55031 0.33018 -0.19484 0.07844 -0.4008 0.12571 -0.61034 0.14008 -0.17979 0.01499 -0.36051 0.01499 -0.5403 0 -0.17955 -0.02653 -0.35683 -0.06667 -0.5303 -0.12006 -0.20863 -0.03038 -0.40745 -0.10848 -0.58099 -0.22822 -0.17354 -0.11974 -0.31711 -0.2779 -0.419563 -0.46217C0.927962 3.71988 0.916774 3.53708 0.953752 3.361c0.036977 -0.17609 0.120748 -0.33894 0.242498 -0.47142 0.24308 -0.33378 0.60573 -0.56074 1.01219 -0.63346 0.40646 -0.07271 0.8253 0.01444 1.16903 0.24325 0.24013 0.07004 1.61089 1.04058 0.84047 1.73096Z" clip-rule="evenodd" stroke-width="1"></path>
  <path fill="#0c6fff" fill-rule="evenodd" d="M8.07021 7.81232c-0.00412 0.0447 0.00065 0.08978 0.01403 0.13264 0.01339 0.04285 0.03513 0.08264 0.06396 0.11705 0.02883 0.03442 0.06419 0.06278 0.10404 0.08347 0.03985 0.02068 0.0834 0.03327 0.12814 0.03704 0.0913 0.00555 0.18114 -0.02484 0.25033 -0.08467 0.06918 -0.05984 0.11221 -0.14436 0.11988 -0.23551 0.12356 -0.70481 0.20376 -1.41654 0.24013 -2.13118v-0.91051c0 -0.32018 0 -0.59033 -0.06003 -0.9005 -0.08005 -0.67038 -0.22013 -1.35075 -0.33019 -2.08116 -0.00515 -0.08051 -0.04147 -0.15583 -0.10125 -0.21001 -0.05977 -0.05417 -0.1383 -0.08292 -0.21893 -0.08015 -0.07791 0.00731 -0.15045 0.0429 -0.20391 0.10004 -0.05346 0.05715 -0.08414 0.1319 -0.08625 0.21013 -0.07004 0.85047 -0.16009 1.64091 -0.17009 2.41134 0 0.50028 0 1.00056 0.07004 1.42079 0.10005 0.79044 0.16009 1.49083 0.1801 2.12119Z" clip-rule="evenodd" stroke-width="1"></path>
  <path fill="#0c6fff" fill-rule="evenodd" d="M11.7722 5.34094c0 0.77043 0.07 1.57088 0.15 2.42135 0 0.09022 0.0359 0.17675 0.0997 0.24055 0.0638 0.0638 0.1503 0.09964 0.2405 0.09964 0.0903 0 0.1768 -0.03584 0.2406 -0.09964 0.0638 -0.0638 0.0996 -0.15033 0.0996 -0.24055 0.0801 -0.75042 0.2101 -1.45081 0.2702 -2.1512 0.0397 -0.48947 0.0397 -0.98135 0 -1.47082 -0.0557 -0.84064 -0.2414 -1.66757 -0.5503 -2.45136 -0.0207 -0.06949 -0.065 -0.12956 -0.1253 -0.16978 -0.0603 -0.04021 -0.1328 -0.05802 -0.2049 -0.05034 -0.0775 0.02118 -0.1438 0.07161 -0.1848 0.14066 -0.0411 0.06905 -0.0537 0.15134 -0.0353 0.22954 0.055 0.69597 0.055 1.3952 0 2.09117 0 0.46025 -0.01 0.92051 0 1.41078Z" clip-rule="evenodd" stroke-width="1"></path>
</svg>