<svg xmlns="http://www.w3.org/2000/svg" fill="none" viewBox="0 0 24 24" id="Safety-Sign-Electricity--Streamline-Freehand">
  <desc>
    Safety Sign Electricity Streamline Icon: https://streamlinehq.com
  </desc>
  <path fill="#0c6fff" d="M23.2407 17.6404c-0.19 -0.67 -0.41 -1.33 -0.64 -2 -0.35 -0.95 -0.76 -1.89 -1.16 -2.83 -0.5 -1.16 -1 -2.27 -1.54 -3.36001 -0.82 -1.68 -1.66 -3.3 -2.51 -4.93 -0.5604 -1.15976 -1.2734 -2.23934 -2.12 -3.21 -0.6338 -0.736757 -1.5239 -1.205052 -2.49 -1.309998034 -0.3107 -0.007451606 -0.6189 0.057602134 -0.9 0.190000034 -0.3611 0.170706 -0.6974 0.389345 -1 0.65 -0.5553 0.514048 -1.06394 1.076238 -1.52003 1.679998 -0.48578 0.58973 -0.927 1.21479 -1.32 1.87 -1.12 1.86 -2.05 3.36 -3.12 5.16 -0.59 1.00001 -1.21 2.20001 -1.87 3.58001 -0.3 0.61 -0.76 1.7 -1.18 2.8 -0.42 1.1 -0.83 2.21 -1.000001 2.86 -0.278197 0.6216 -0.518633 1.2594 -0.72 1.91 -0.0954234 0.4853 -0.0954234 0.9846 0 1.47 0.067035 0.2933 0.233 0.5546 0.47 0.74 0.570001 0.48 1.000001 0.62 3.140001 0.64 1.71 0 3.93 -0.07 4.83 -0.06l8.25003 0.15c1 0 2 0.26 3 0.33 0.4591 0.0397 0.9208 0.0397 1.38 0 0.3612 -0.0232 0.7194 -0.0801 1.07 -0.17 0.2942 -0.0889 0.5576 -0.2587 0.76 -0.49 0.5577 -0.6407 0.8665 -1.4606 0.87 -2.31 -0.0583 -1.1476 -0.2875 -2.2801 -0.68 -3.36Zm-1 5c-0.1118 0.1267 -0.2635 0.2114 -0.43 0.24 -0.2438 0.0523 -0.4912 0.0857 -0.74 0.1 -0.4026 0.0349 -0.8075 0.0349 -1.21 0 -1 -0.05 -2 -0.25 -3 -0.27H8.58067c-0.9 0 -3.11 0.13 -4.83 0.15 -1.54 0 -2 0 -2.58 -0.45 -0.15536 -0.0905 -0.269948 -0.2373 -0.320001 -0.41 -0.059765 -0.3967 -0.039363 -0.8013 0.06 -1.19 0.177891 -0.6153 0.391591 -1.2197 0.640001 -1.81 0.21 -0.63 0.63 -1.71 1.06 -2.79 0.43 -1.08 0.9 -2.13 1.2 -2.72 0.69 -1.34 1.31 -2.49 1.92 -3.49 1 -1.78001 2 -3.25001 3.18 -5.09001 0.38067 -0.60749 0.80161 -1.18879 1.26003 -1.74 0.4411 -0.55173 0.9333 -1.06065 1.47 -1.52 0.1747 -0.16125 0.3697 -0.29907 0.58 -0.41 0.15 -0.09319 0.3234 -0.14175 0.5 -0.14 0.6807 0.0993 1.2969 0.45753 1.72 1 0.7755 0.90851 1.4247 1.91764 1.93 3 0.83 1.63 1.67 3.25 2.48 4.91001 0.52 1.08 1 2.18 1.53 3.32 0.41 0.92 0.81 1.83 1.16 2.77 0.23 0.61 0.45 1.23 0.63 1.87 0.3748 0.9616 0.6105 1.9718 0.7 3 -0.0048 0.6157 -0.2321 1.2088 -0.64 1.67h0.01Z" stroke-width="1"></path>
  <path fill="#020202" d="M15.0406 12.4304c-0.1565 -0.0084 -0.3134 -0.0084 -0.47 0h-3.36l-0.78 -0.08 -0.43999 -0.07c0 -0.08 0.06999 -0.17 0.08999 -0.21l0.71 -1.35 1.12 -1.67 1.23 -1.93c0.0421 -0.06808 0.0563 -0.14983 0.0395 -0.22812 -0.0167 -0.07829 -0.0632 -0.14705 -0.1295 -0.19188 -0.0327 -0.02263 -0.0696 -0.03852 -0.1086 -0.04676 -0.0389 -0.00823 -0.0791 -0.00863 -0.1181 -0.00119 -0.0391 0.00745 -0.0763 0.0226 -0.1095 0.04456 -0.0332 0.02197 -0.0617 0.05031 -0.0838 0.08339l-1.32 1.81 -1.31999 1.65 -0.79 1.27c-0.13009 0.1462 -0.2472 0.3035 -0.35 0.47 -0.06278 0.1376 -0.08364 0.2906 -0.06 0.44 0.05744 0.2415 0.19489 0.4565 0.39 0.61 0.3039 0.1996 0.64342 0.3388 0.99999 0.41l0.94 0.12h3.01c-0.0787 0.132 -0.1655 0.2589 -0.26 0.38 -0.28 0.39 -0.61 0.8 -0.79 1l-3.08999 3.91c0.01609 -0.1027 0.01609 -0.2073 0 -0.31 -0.12352 -0.461 -0.30497 -0.9046 -0.54 -1.32 -0.15779 -0.2956 -0.36398 -0.5626 -0.61 -0.79 -0.05608 -0.055 -0.13147 -0.0858 -0.21 -0.0858 -0.07853 0 -0.15392 0.0308 -0.21 0.0858 -0.02873 0.028 -0.05156 0.0614 -0.06715 0.0983 -0.01559 0.0369 -0.02363 0.0766 -0.02363 0.1167s0.00804 0.0798 0.02363 0.1167c0.01559 0.0369 0.03842 0.0703 0.06715 0.0983 0.15717 0.2049 0.27886 0.4348 0.36 0.68 0.12513 0.3815 0.19582 0.7787 0.21 1.18v0.75c0.01703 0.207 0.0858 0.4065 0.2 0.58 0.06944 0.0863 0.15585 0.1575 0.2539 0.2091 0.09804 0.0516 0.20562 0.0825 0.3161 0.0909 0.35539 0.0131 0.71049 -0.0342 1.04999 -0.14 0.2 -0.06 0.47 -0.13 0.76 -0.24 0.95 -0.34 2.21 -0.89 2.87 -1.12 0.0875 -0.0213 0.1629 -0.0765 0.2098 -0.1533 0.0468 -0.0769 0.0613 -0.1692 0.0402 -0.2567 -0.0105 -0.0444 -0.0298 -0.0862 -0.0567 -0.123 -0.027 -0.0367 -0.0611 -0.0677 -0.1003 -0.091 -0.0392 -0.0234 -0.0827 -0.0386 -0.1278 -0.0447 -0.0452 -0.0062 -0.0912 -0.0033 -0.1352 0.0087l-3.49 0.81 3.09 -3.42c0.2 -0.22 0.56 -0.63 0.88 -1 0.2091 -0.2502 0.3964 -0.5179 0.56 -0.8 0.1129 -0.195 0.1907 -0.4082 0.23 -0.63 0.0177 -0.1417 -0.0103 -0.2854 -0.08 -0.41 -0.0402 -0.0814 -0.0994 -0.152 -0.1724 -0.2059 -0.0731 -0.0539 -0.158 -0.0896 -0.2476 -0.1041Z" stroke-width="1"></path>
</svg>