<svg xmlns="http://www.w3.org/2000/svg" fill="none" viewBox="0 0 14 14" id="Camera-Tripod--Streamline-Flex-Gradient">
  <desc>
    Camera Tripod Streamline Icon: https://streamlinehq.com
  </desc>
  <g id="camera-tripod--tripod-photos-picture-camera-photography-photo-pictures">
    <path id="Subtract" fill="url(#paint0_linear_9380_1522)" fill-rule="evenodd" d="M7 .25c-1.40746 0-2.7788.117668-4.07996.229315l-.08813.00756C1.64638.588543.670304 1.49904.495173 2.67903.368369 3.5334.25 4.44069.25 5.375s.11837 1.8416.245173 2.69597C.670304 9.25096 1.64638 10.1615 2.83191 10.2631l.08814.0076c.64839.0556 1.31439.1128 1.99342.1561-.84051.582-1.59197 1.2685-2.2878 2.0876-.26816.3157-.22964.789.08605 1.0572.31569.2682.789.2296 1.05717-.0861.74092-.8722 1.54628-1.5678 2.48102-2.1397V13c0 .4142.33578.75.75.75.41421 0 .75-.3358.75-.75v-1.6542c.93474.5719 1.7401 1.2675 2.48099 2.1397.2682.3157.7415.3543 1.0572.0861.3157-.2682.3542-.7415.086-1.0572-.6958-.8191-1.44724-1.5056-2.28774-2.0876.67916-.0433 1.34514-.1005 1.99364-.1561l.0881-.0076c1.1855-.1016 2.1616-1.01214 2.3367-2.19213.1268-.85437.2452-1.76166.2452-2.69597s-.1184-1.8416-.2452-2.69597C13.3297 1.49904 12.3536.588543 11.1681.486875L11.08.479315C9.7788.367668 8.40746.25 7 .25ZM5.34322 3.84322C5.74273 3.44372 6.31398 3.25 7 3.25s1.25727.19372 1.65678.59322c.3995.39951.59322.97076.59322 1.65678s-.19372 1.25727-.59322 1.65678C8.25727 7.55628 7.68602 7.75 7 7.75s-1.25727-.19372-1.65678-.59322C4.94372 6.75727 4.75 6.18602 4.75 5.5s.19372-1.25727.59322-1.65678Z" clip-rule="evenodd"></path>
  </g>
  <defs>
    <linearGradient id="paint0_linear_9380_1522" x1=".769" x2="16.155" y1="1.341" y2="10.013" gradientUnits="userSpaceOnUse">
      <stop stop-color="#00d078"></stop>
      <stop offset="1" stop-color="#007df0"></stop>
    </linearGradient>
  </defs>
</svg>