<svg xmlns="http://www.w3.org/2000/svg" fill="none" viewBox="0 0 14 14" id="Film-Slate--Streamline-Flex-Gradient">
  <desc>
    Film Slate Streamline Icon: https://streamlinehq.com
  </desc>
  <g id="film-slate--pictures-photo-film-slate">
    <path id="Union" fill="url(#paint0_linear_9380_1534)" fill-rule="evenodd" d="m10.0965.55171.0027-.013402.9331-.235421c.8092-.2182894 1.6435.257232 1.8675 1.065523l.0018.0066.5123 1.68568c.0338.12868.0149.26551-.0525.38021-.0674.11471-.1777.19783-.3065.23098l-3.8155.96433.8571-4.0845ZM8.75076.878507 7.89063 4.9771l-2.88507.72917.80475-4.08593L8.75076.878507ZM4.46968 1.95856 3.6648 6.04514l-1.98542.50179c3.77575-.2244 7.87868-.20758 11.60532.05045.2621.01815.4655.23606.4655.4988V11.25c0 1.3807-1.1193 2.5-2.5 2.5H3.39477c-1.38071 0-2.499995-1.1193-2.499995-2.5V6.59738l.001999-.00014L.30806 4.62669l-.002244-.00785C.0802312 3.80493.558832 2.96263 1.37349 2.73978l.00961-.00252 3.08658-.7787ZM3.33374 10.9423c0-.3452.27982-.625.625-.625h1.53845c.34518 0 .625.2798.625.625s-.27982.625-.625.625H3.95874c-.34518 0-.625-.2798-.625-.625Z" clip-rule="evenodd"></path>
  </g>
  <defs>
    <linearGradient id="paint0_linear_9380_1534" x1="2.457" x2="13.36" y1="2.846" y2="8.887" gradientUnits="userSpaceOnUse">
      <stop stop-color="#ffd600"></stop>
      <stop offset="1" stop-color="#00d078"></stop>
    </linearGradient>
  </defs>
</svg>