<svg xmlns="http://www.w3.org/2000/svg" fill="none" viewBox="0 0 14 14" id="Flash-Warning--Streamline-Flex-Gradient">
  <desc>
    Flash Warning Streamline Icon: https://streamlinehq.com
  </desc>
  <g id="flash-warning--flash-warning-alert-camera-light 1">
    <path id="Union" fill="url(#paint0_linear_9380_1543)" fill-rule="evenodd" d="M4.8891.0929846C5.53806-.229721 6.19973.308703 6.15744.953382L6.00869 3.22106c.60404.0343 1.22241.09258 1.77365.18716.79938.13715 1.22361.98436.84549 1.70371-.76388 1.45321-2.39528 3.72219-5.06038 5.79327-.61073.4747-1.5.0159-1.45135-.7635.0655-1.04966.17656-2.12141.37971-3.13759H1.31586c-.947299 0-1.655647-.99418-1.153633-1.89233C1.28786 3.09791 2.94317 1.06062 4.8891.0929846Zm6.418 7.3560654c-.4606-.49355-1.2394-.49355-1.70008 0-1.44193 1.54491-2.15639 3.03175-2.65457 4.96255-.18546.7188.32273 1.421 1.05767 1.4836 1.63847.1397 3.25548.1397 4.89388 0 .735-.0626 1.2432-.7648 1.0577-1.4836-.4982-1.9308-1.2126-3.41764-2.6546-4.96255Zm-.3491 1.80708c0-.27614-.2239-.5-.5-.5s-.49999.22386-.49999.5v1.20007c0 .2761.22389.5.49999.5s.5-.2239.5-.5V9.25613Zm-.944 2.48057c.1051-.105.2567-.1576.4431-.1576s.338.0526.4431.1576c.105.105.1575.2567.1575.443 0 .1864-.0525.3381-.1575.4431-.1051.105-.2567.1576-.4431.1576s-.338-.0526-.4431-.1576c-.105-.105-.15755-.2567-.15755-.4431 0-.1863.05255-.338.15755-.443Z" clip-rule="evenodd"></path>
  </g>
  <defs>
    <linearGradient id="paint0_linear_9380_1543" x1="2.285" x2="13.596" y1="2.69" y2="8.957" gradientUnits="userSpaceOnUse">
      <stop stop-color="#ffd600"></stop>
      <stop offset="1" stop-color="#00d078"></stop>
    </linearGradient>
  </defs>
</svg>