<svg xmlns="http://www.w3.org/2000/svg" fill="none" viewBox="0 0 24 24" id="Elastic-Cloud-Logo--Streamline-Logos-Block">
  <desc>
    Elastic Cloud Logo Streamline Icon: https://streamlinehq.com
  </desc>
  <path fill="#000000" fill-rule="evenodd" d="M5 1a4 4 0 0 0 -4 4v14a4 4 0 0 0 4 4h14a4 4 0 0 0 4 -4V5a4 4 0 0 0 -4 -4H5Zm9.263 8.149a3.413 3.413 0 0 0 -1.905 -0.578c-0.714 0 -1.377 0.219 -1.926 0.592C8.342 8.55 7.229 7.59 6.503 6.55A7.978 7.978 0 0 1 12.358 4a7.986 7.986 0 0 1 6.284 3.048c-1.325 1.523 -3.268 2.845 -4.379 2.1ZM5.7 7.565c0.805 1.042 1.956 1.96 3.763 2.599a3.438 3.438 0 0 0 -0.438 2.64c-1.643 0.405 -2.509 0.987 -3.993 2.411A7.972 7.972 0 0 1 4.359 12c0 -1.64 0.493 -3.165 1.34 -4.435ZM12.36 20a7.98 7.98 0 0 1 -5.963 -2.667c1.17 -1.557 2.021 -2.11 3.807 -2.666a3.414 3.414 0 0 0 2.155 0.762c0.817 0 1.567 -0.286 2.155 -0.762 1.374 0 3.296 1.277 3.808 2.666A7.98 7.98 0 0 1 12.358 20Z" clip-rule="evenodd" stroke-width="1"></path>
</svg>