<svg xmlns="http://www.w3.org/2000/svg" fill="none" viewBox="0 0 24 24" id="Elastic-Logo--Streamline-Logos-Block">
  <desc>
    Elastic Logo Streamline Icon: https://streamlinehq.com
  </desc>
  <path fill="#000000" fill-rule="evenodd" d="M5 1a4 4 0 0 0 -4 4v14a4 4 0 0 0 4 4h14a4 4 0 0 0 4 -4V5a4 4 0 0 0 -4 -4H5Zm4.83 8.285 0.589 1.328 3.407 1.582 4.142 -3.375c0.134 -1.778 -0.826 -3.538 -2.455 -4.352 -1.768 -0.883 -3.94 -0.477 -5.302 0.884l-0.38 3.933ZM6.968 5.68c-0.78 0.461 -1.15 1.38 -0.978 2.228l2.65 0.692 0.292 -3.015a2.15 2.15 0 0 0 -1.966 0.095Zm-2.964 5.947a3.207 3.207 0 0 1 1.365 -2.608 0.609 0.609 0 0 0 0.142 0.056l3.233 0.843 0.442 0.996 -3.757 3.281a3.06 3.06 0 0 1 -1.425 -2.569Zm1.99 3.734c-0.03 1.739 0.955 3.412 2.552 4.191 1.788 0.873 3.954 0.435 5.277 -0.979a0.627 0.627 0 0 1 0.002 -0.096l0.376 -3.68 -0.736 -1.392 -3.416 -1.585 -4.055 3.541Zm9.273 -1.22 -0.556 -1.053 3.905 -3.181a2.962 2.962 0 0 1 1.382 2.485 3.249 3.249 0 0 1 -1.402 2.667 0.62 0.62 0 0 0 -0.11 -0.041l-3.219 -0.878Zm1.348 4.198a2.102 2.102 0 0 1 -1.519 -0.005l0.292 -2.865 2.527 0.689a2.075 2.075 0 0 1 -1.3 2.181Z" clip-rule="evenodd" stroke-width="1"></path>
</svg>