<svg xmlns="http://www.w3.org/2000/svg" fill="none" viewBox="0 0 24 24" id="Yahoo-Logo--Streamline-Logos-Block">
  <desc>
    Yahoo Logo Streamline Icon: https://streamlinehq.com
  </desc>
  <path fill="#000000" fill-rule="evenodd" d="M5 1a4 4 0 0 0 -4 4v14a4 4 0 0 0 4 4h14a4 4 0 0 0 4 -4V5a4 4 0 0 0 -4 -4H5Zm11.727 11h-3.273l3.273 -7.273H20L16.727 12ZM16 14.545a1.818 1.818 0 1 1 -3.636 0 1.818 1.818 0 0 1 3.636 0ZM7.273 8.363H4l3.636 8 -1.454 2.91H9.09l4.727 -10.91H10.91l-1.818 4.364 -1.818 -4.364Z" clip-rule="evenodd" stroke-width="1"></path>
</svg>