<svg xmlns="http://www.w3.org/2000/svg" fill="none" viewBox="0 0 14 14" id="Blood-Drop-Donation--Streamline-Core-Remix">
  <desc>
    Blood Drop Donation Streamline Icon: https://streamlinehq.com
  </desc>
  <g id="Free Remix/Health/blood-drop-donation">
    <path id="Union" fill="#000000" fill-rule="evenodd" d="m6.99976 0.625 0.31907 -0.5374228c-0.19669 -0.1167696 -0.44145 -0.1167696 -0.63813 0L6.99976 0.625ZM6.5276 1.70091c0.18432 -0.13579 0.34474 -0.24729 0.47216 -0.33297 0.12743 0.08568 0.28785 0.19718 0.47217 0.33297 0.48622 0.35818 1.13321 0.88129 1.77812 1.54081 1.30615 1.33576 2.51905 3.143 2.51905 5.21368 0 2.5501 -2.34799 4.2946 -4.76934 4.2946 -2.42134 0 -4.76929 -1.7445 -4.76929 -4.2946 0 -2.07068 1.21284 -3.87792 2.51901 -5.21368 0.64491 -0.65952 1.2919 -1.18263 1.77812 -1.54081ZM6.99976 0.625C6.6807 0.0875772 6.68051 0.0876884 6.68031 0.0878119l-0.00052 0.0003087 -0.00141 0.0008395 -0.00428 0.0025642 -0.01432 0.0086537c-0.01207 0.007328 -0.02911 0.017771 -0.05081 0.031274 -0.04339 0.027001 -0.10542 0.066264 -0.18343 0.11736 -0.15596 0.102145 -0.3762 0.251854 -0.63933 0.445698 -0.52521 0.38691 -1.22679 0.95368 -1.93046 1.67328C2.46478 3.79027 0.980469 5.89823 0.980469 8.4554 0.980469 11.8878 4.09713 14 6.99976 14c2.90264 0 6.01934 -2.1122 6.01934 -5.5446 0 -2.55717 -1.4844 -4.66513 -2.8753 -6.08761 -0.70369 -0.7196 -1.40527 -1.28637 -1.93048 -1.67328 -0.26313 -0.193844 -0.48337 -0.343553 -0.63933 -0.445698 -0.07801 -0.051096 -0.14004 -0.090359 -0.18343 -0.11736 -0.0217 -0.013503 -0.03875 -0.023946 -0.05081 -0.031274L7.32543 0.0915243 7.32115 0.0889601 7.31974 0.0881206 7.31922 0.0878119C7.31902 0.0876884 7.31883 0.0875772 6.99976 0.625ZM5.83181 5.7389c0 -0.20098 0.16292 -0.3639 0.36389 -0.3639h1.6086c0.20097 0 0.36389 0.16292 0.36389 0.3639v1.34292H9.5111c0.20098 0 0.3639 0.16293 0.3639 0.3639v1.6086c0 0.20097 -0.16292 0.36389 -0.3639 0.36389H8.16819v1.34289c0 0.201 -0.16292 0.3639 -0.36389 0.3639H6.1957c-0.20097 0 -0.36389 -0.1629 -0.36389 -0.3639V9.41821H4.4889c-0.20098 0 -0.3639 -0.16292 -0.3639 -0.36389v-1.6086c0 -0.20097 0.16292 -0.3639 0.3639 -0.3639h1.34291V5.7389Z" clip-rule="evenodd" stroke-width="1"></path>
  </g>
</svg>