<svg xmlns="http://www.w3.org/2000/svg" fill="none" viewBox="0 0 14 14" id="Ear-Hearing--Streamline-Core-Remix">
  <desc>
    Ear Hearing Streamline Icon: https://streamlinehq.com
  </desc>
  <g id="Free Remix/Health/ear-hearing--health-medical-hearing-ear">
    <path id="Union" fill="#000000" fill-rule="evenodd" d="M1.71506 3.95286C1.96671 3.2341 2.98921 1.75 5.00228 1.75c2.54946 0 3.96377 2.13461 3.52895 4.10875 -0.3337 1.51508 -1.14374 2.15309 -1.76579 2.64304l-0.00002 0.00002c-0.11368 0.08954 -0.22107 0.17412 -0.31813 0.25822 -0.5164 0.44739 -0.84591 0.99363 -1.04871 1.56927 -0.40018 1.1358 -1.1505 1.9207 -2.02657 1.9207 -0.89572 0 -1.62184 -0.7261 -1.62184 -1.6218v-0.0401c0 -0.3452 -0.27982 -0.62497 -0.625 -0.62497 -0.345178 0 -0.625 0.27977 -0.625 0.62497v0.0401c0 1.586 1.28576 2.8718 2.87184 2.8718 1.69702 0 2.75069 -1.4644 3.20554 -2.7554 0.14273 -0.4051 0.36137 -0.75663 0.68825 -1.03983 0.06635 -0.05748 0.15046 -0.12265 0.2476 -0.19791l0 -0.00001c0.62836 -0.48685 1.80175 -1.396 2.23857 -3.37923C10.354 3.39411 8.37148 0.5 5.00228 0.5 2.28041 0.5 0.895477 2.51101 0.53528 3.5398c-0.114063 0.32579 0.057572 0.68236 0.38336 0.79642 0.32579 0.11406 0.68236 -0.05757 0.79642 -0.38336Zm3.04481 0.47932c-0.72398 -0.05428 -1.16754 0.50548 -1.29463 0.81898 -0.12969 0.31989 -0.49414 0.47408 -0.81403 0.3444 -0.31989 -0.12969 -0.47408 -0.49414 -0.3444 -0.81403 0.22739 -0.56087 1.04832 -1.70818 2.54652 -1.59585 0.74573 0.05591 1.41906 0.45533 1.84657 1.00476 0.43114 0.55409 0.65286 1.32148 0.36325 2.08945 -0.11825 0.31357 -0.25892 0.5585 -0.43042 0.75452 -0.1739 0.19876 -0.35468 0.31841 -0.50536 0.4053 -0.05436 0.03134 -0.10165 0.05753 -0.14351 0.08071l-0.00005 0.00003 -0.00003 0.00002 -0.00001 0c-0.18287 0.10127 -0.26203 0.14511 -0.37313 0.30999 -0.06021 0.08935 -0.11644 0.2289 -0.17925 0.45027 -0.01768 0.06232 -0.03936 0.14569 -0.06326 0.23759l-0.00001 0.00004 -0.00002 0.00006 -0.00001 0.00005c-0.04187 0.16103 -0.09056 0.34825 -0.1365 0.49438 -0.16182 0.51472 -0.48361 1.22495 -1.36538 1.40105 -0.47138 0.0942 -0.85558 0.008 -1.13017 -0.1187 -0.13406 -0.0619 -0.23829 -0.1316 -0.31257 -0.1896 -0.03728 -0.0291 -0.06753 -0.0556 -0.09076 -0.0774 -0.01164 -0.0109 -0.02158 -0.0206 -0.02983 -0.029l-0.01113 -0.0115 -0.00462 -0.00492 -0.00209 -0.00224 -0.00098 -0.00106 -0.00048 -0.00052c-0.00023 -0.00026 -0.00046 -0.00051 0.46035 -0.42274l-0.46081 0.42223c-0.2332 -0.2545 -0.21592 -0.64985 0.03858 -0.88304 0.24878 -0.22796 0.63216 -0.21657 0.86709 0.02179l0.00368 0.00295c0.01075 0.0084 0.03357 0.02445 0.06752 0.04013 0.06145 0.02837 0.17718 0.06463 0.36135 0.02784 0.17055 -0.03407 0.28663 -0.13295 0.41779 -0.55016 0.04178 -0.13289 0.06997 -0.24344 0.10159 -0.36742l0 -0.00002 0.00001 -0.00001 0 -0.00001c0.02462 -0.09654 0.05132 -0.20124 0.08813 -0.33097 0.06995 -0.24653 0.16896 -0.54611 0.34517 -0.80761 0.29149 -0.43256 0.63688 -0.61761 0.84394 -0.72855 0.03184 -0.01705 0.0604 -0.03236 0.085 -0.04654 0.08755 -0.05049 0.14002 -0.08953 0.189 -0.1455 0.05137 -0.05872 0.12317 -0.16456 0.20159 -0.3725 0.10372 -0.27504 0.04511 -0.59121 -0.18019 -0.88076 -0.22893 -0.29421 -0.58815 -0.4985 -0.9535 -0.52589Zm6.74853 4.39594c0 -0.41421 -0.3358 -0.75 -0.75 -0.75 -0.4143 0 -0.75 0.33579 -0.75 0.75 0 0.60961 -0.49504 1.10528 -1.10747 1.10528 -0.41422 0 -0.75 0.3358 -0.75 0.75s0.33578 0.75 0.75 0.75c1.43917 0 2.60747 -1.1656 2.60747 -2.60528Zm2.2418 0.0774c0 -0.41422 -0.3358 -0.75 -0.75 -0.75s-0.75 0.33578 -0.75 0.75c0 1.84628 -1.4987 3.34448 -3.34927 3.34448 -0.41422 0 -0.75 0.3358 -0.75 0.75 0 0.4143 0.33578 0.75 0.75 0.75 2.67737 0 4.84927 -2.1681 4.84927 -4.84448Z" clip-rule="evenodd" stroke-width="1"></path>
  </g>
</svg>