<svg xmlns="http://www.w3.org/2000/svg" fill="none" viewBox="0 0 14 14" id="Eye-Optic--Streamline-Core-Remix">
  <desc>
    Eye Optic Streamline Icon: https://streamlinehq.com
  </desc>
  <g id="Free Remix/Health/eye-optic--health-medical-eye-optic">
    <path id="Union" fill="#000000" fill-rule="evenodd" d="M4.31665 1.00138c0.32911 -0.104086 0.68029 0.07833 0.78438 0.40744l0.48479 1.53278c0.44015 -0.10336 0.91189 -0.16157 1.41604 -0.16157 0.5038 0 0.97522 0.05813 1.41511 0.16135l0.48152 -1.53154c0.10353 -0.32929 0.45439 -0.512304 0.78368 -0.40878 0.32933 0.10353 0.51233 0.4544 0.40873 0.78368l-0.49275 1.56741c0.81875 0.38306 1.49485 0.91724 2.03655 1.4722l1.2979 -1.30072c0.2438 -0.24434 0.6395 -0.24478 0.8839 -0.00097 0.2443 0.24381 0.2448 0.63954 0.001 0.88388L12.443 5.78403c0.2911 0.39939 0.5182 0.77749 0.6856 1.08828 0.1228 0.22808 0.2149 0.42259 0.2776 0.56632 0.0313 0.07155 0.0562 0.13284 0.0745 0.18119 0.0089 0.02355 0.0178 0.04828 0.0254 0.07186 0.0037 0.01118 0.009 0.02814 0.0141 0.04772 0.0025 0.00961 0.0064 0.02553 0.0101 0.04509l0.0001 0.00039c0.0024 0.01239 0.0113 0.05913 0.0113 0.11899s-0.0089 0.1066 -0.0113 0.11899l-0.0001 0.00039c-0.0037 0.01956 -0.0076 0.03549 -0.0101 0.0451 -0.0051 0.01957 -0.0104 0.03654 -0.0141 0.04772 -0.0076 0.02357 -0.0165 0.04831 -0.0254 0.07185 -0.0183 0.04835 -0.0432 0.10964 -0.0745 0.18119 -0.0627 0.14373 -0.1548 0.33824 -0.2776 0.56632 -0.2451 0.45511 -0.6183 1.05457 -1.1331 1.65387 -1.0277 1.1963 -2.66482 2.4384 -4.99364 2.4384s-3.96595 -1.2421 -4.99368 -2.4384C1.49338 9.99 1.12021 9.39054 0.875128 8.93543c-0.122825 -0.22808 -0.214922 -0.42259 -0.277641 -0.56632 -0.03122 -0.07155 -0.056175 -0.13284 -0.074445 -0.18119 -0.008897 -0.02354 -0.017824 -0.04828 -0.025459 -0.07185 -0.003621 -0.01118 -0.008924 -0.02815 -0.01403 -0.04772 -0.002507 -0.00961 -0.006466 -0.02554 -0.010186 -0.0451l-0.000076 -0.0004c-0.002359 -0.01239 -0.011254 -0.05913 -0.011254 -0.11898s0.008895 -0.10658 0.011254 -0.11898l0.000076 -0.0004c0.00372 -0.01956 0.007679 -0.03548 0.010186 -0.04509 0.005106 -0.01958 0.010409 -0.03654 0.01403 -0.04772 0.007635 -0.02358 0.016562 -0.04831 0.025459 -0.07186 0.01827 -0.04835 0.043225 -0.10964 0.074445 -0.18119 0.062719 -0.14373 0.154816 -0.33824 0.277641 -0.56632 0.170752 -0.31708 0.403682 -0.70423 0.703372 -1.11257L0.19 4.41386c-0.2478519 -0.24024 -0.2540193 -0.63592 -0.013775 -0.88377 0.240244 -0.24785 0.635924 -0.25402 0.883775 -0.01378l1.3287 1.28791c0.53826 -0.54755 1.2076 -1.07329 2.01606 -1.4517l-0.49554 -1.56676c-0.10409 -0.32911 0.07833 -0.68028 0.40743 -0.78438ZM1.97569 8.34276c-0.0958 -0.1779 -0.1679 -0.32836 -0.21722 -0.43889 0.04932 -0.11053 0.12142 -0.26099 0.21722 -0.43888 0.21304 -0.3956 0.53748 -0.91607 0.98066 -1.43196 0.88823 -1.03395 2.20852 -2.003 4.04551 -2.003 1.83699 0 3.15724 0.96905 4.04554 2.003 0.4431 0.51589 0.7676 1.03636 0.9806 1.43196 0.0958 0.17789 0.1679 0.32835 0.2172 0.43888 -0.0493 0.11053 -0.1214 0.26099 -0.2172 0.43889 -0.213 0.39559 -0.5375 0.91607 -0.9806 1.43196 -0.8883 1.03398 -2.20855 2.00298 -4.04554 2.00298 -1.83699 0 -3.15728 -0.969 -4.04551 -2.00298 -0.44318 -0.51589 -0.76762 -1.03637 -0.98066 -1.43196Zm2.76094 -0.4703c0.00851 -1.24304 1.03544 -2.23867 2.27885 -2.23867s2.25671 0.99563 2.2482 2.23867c-0.00851 1.24303 -1.03544 2.23864 -2.27885 2.23864 -1.24342 0 -2.25672 -0.99561 -2.2482 -2.23864Z" clip-rule="evenodd" stroke-width="1"></path>
  </g>
</svg>