<svg xmlns="http://www.w3.org/2000/svg" fill="none" viewBox="0 0 14 14" id="Hospital-Sign-Square--Streamline-Core-Remix">
  <desc>
    Hospital Sign Square Streamline Icon: https://streamlinehq.com
  </desc>
  <g id="Free Remix/Health/hospital-sign-square--health-sign-medical-symbol-hospital-square-emergency">
    <path id="Union" fill="#000000" fill-rule="evenodd" d="M2.125 0.5C1.22754 0.5 0.5 1.22754 0.5 2.125v9.75c0 0.8975 0.72754 1.625 1.625 1.625h9.75c0.8975 0 1.625 -0.7275 1.625 -1.625v-9.75C13.5 1.22754 12.7725 0.5 11.875 0.5h-9.75ZM1.75 2.125c0 -0.20711 0.16789 -0.375 0.375 -0.375h9.75c0.2071 0 0.375 0.16789 0.375 0.375v9.75c0 0.2071 -0.1679 0.375 -0.375 0.375h-9.75c-0.20711 0 -0.375 -0.1679 -0.375 -0.375v-9.75ZM5.875 4.5c0 -0.48325 -0.39175 -0.875 -0.875 -0.875s-0.875 0.39175 -0.875 0.875v5c0 0.48325 0.39175 0.875 0.875 0.875s0.875 -0.39175 0.875 -0.875V7.875h2.25V9.5c0 0.48325 0.39175 0.875 0.875 0.875s0.875 -0.39175 0.875 -0.875v-5c0 -0.48325 -0.39175 -0.875 -0.875 -0.875s-0.875 0.39175 -0.875 0.875v1.625h-2.25V4.5Z" clip-rule="evenodd" stroke-width="1"></path>
  </g>
</svg>