<svg xmlns="http://www.w3.org/2000/svg" fill="none" viewBox="0 0 14 14" id="Medical-Bag--Streamline-Core-Remix">
  <desc>
    Medical Bag Streamline Icon: https://streamlinehq.com
  </desc>
  <g id="Free Remix/Health/medical-bag--health-sign-medical-symbol-hospital-bag-medicine-medkit">
    <path id="Union" fill="#000000" fill-rule="evenodd" d="M4.35095 0.975951C4.6557 0.671205 5.06902 0.5 5.5 0.5h3c0.43098 0 0.8443 0.171205 1.14905 0.475951 0.30474 0.304749 0.47595 0.718069 0.47595 1.149049V3h1.75c0.8975 0 1.625 0.72754 1.625 1.625v7.25c0 0.8975 -0.7275 1.625 -1.625 1.625h-9.75C1.22754 13.5 0.5 12.7725 0.5 11.875v-7.25C0.5 3.72754 1.22754 3 2.125 3h1.75v-0.875c0 -0.43098 0.17121 -0.8443 0.47595 -1.149049ZM8.875 2.125V3h-3.75v-0.875c0 -0.09946 0.03951 -0.19484 0.10984 -0.26517 0.07032 -0.07032 0.1657 -0.10983 0.26516 -0.10983h3c0.09946 0 0.19484 0.03951 0.26517 0.10983 0.07032 0.07033 0.10983 0.16571 0.10983 0.26517ZM2.125 4.25h9.75c0.2071 0 0.375 0.16789 0.375 0.375v7.25c0 0.2071 -0.1679 0.375 -0.375 0.375h-9.75c-0.20711 0 -0.375 -0.1679 -0.375 -0.375v-7.25c0 -0.20711 0.16789 -0.375 0.375 -0.375ZM7 5.5c0.41421 0 0.75 0.33579 0.75 0.75V7.5H9c0.41421 0 0.75 0.33579 0.75 0.75S9.41421 9 9 9H7.75v1.25c0 0.4142 -0.33579 0.75 -0.75 0.75s-0.75 -0.3358 -0.75 -0.75V9H5c-0.41421 0 -0.75 -0.33579 -0.75 -0.75s0.33579 -0.75 0.75 -0.75h1.25V6.25c0 -0.41421 0.33579 -0.75 0.75 -0.75Z" clip-rule="evenodd" stroke-width="1"></path>
  </g>
</svg>