<svg xmlns="http://www.w3.org/2000/svg" fill="none" viewBox="0 0 14 14" id="Stethoscope--Streamline-Core-Remix">
  <desc>
    Stethoscope Streamline Icon: https://streamlinehq.com
  </desc>
  <g id="Free Remix/Health/stethoscope--instrument-health-medical-stethoscope">
    <path id="Union" fill="#000000" fill-rule="evenodd" d="M0.5 1.25C0.5 0.835786 0.835786 0.5 1.25 0.5h0.96875c0.41421 0 0.75 0.335786 0.75 0.75 0 0.41421 -0.33579 0.75 -0.75 0.75H2v2.71875c0 1.22538 0.99337 2.21875 2.21875 2.21875S6.4375 5.94413 6.4375 4.71875V2h-0.21875c-0.41421 0 -0.75 -0.33579 -0.75 -0.75 0 -0.414214 0.33579 -0.75 0.75 -0.75h0.96875c0.41421 0 0.75 0.335786 0.75 0.75v3.46875c0 1.88577 -1.40364 3.4437 -3.22314 3.68601v0.89187c0 1.63107 1.32226 2.95337 2.95336 2.95337 1.63111 0 2.95338 -1.3223 2.95338 -2.95337V6.99431c-0.3603 -0.1049 -0.69199 -0.29923 -0.96209 -0.56934C9.23705 6.00302 9 5.43072 9 4.83398c0 -0.59673 0.23705 -1.16903 0.65901 -1.59099 0.42199 -0.42195 0.99429 -0.65901 1.59099 -0.65901 0.5967 0 1.169 0.23706 1.591 0.65901 0.4219 0.42196 0.659 0.99426 0.659 1.59099 0 0.59674 -0.2371 1.16904 -0.659 1.59099 -0.2721 0.27206 -0.6066 0.46725 -0.9699 0.5716v2.30006c0 2.32147 -1.88192 4.20337 -4.20338 4.20337 -2.32145 0 -4.20336 -1.8819 -4.20336 -4.20337v-0.9357C1.77225 8.01228 0.5 6.51409 0.5 4.71875V1.25Z" clip-rule="evenodd" stroke-width="1"></path>
  </g>
</svg>