<svg xmlns="http://www.w3.org/2000/svg" fill="none" viewBox="0 0 14 14" id="Christian-Cross-1--Streamline-Core-Gradient">
  <desc>
    Christian Cross 1 Streamline Icon: https://streamlinehq.com
  </desc>
  <g id="Free Gradient/Culture/christian-cross-1--religion-christian-cross-culture-bold">
    <path id="Union" fill="url(#paint0_linear_14402_16469)" fill-rule="evenodd" d="M5 0c-.27614 0-.5.223858-.5.5v2.75h-3c-.27614 0-.5.22386-.5.5v4c0 .27614.22386.5.5.5h3v5.25c0 .2761.22386.5.5.5h4c.27614 0 .5-.2239.5-.5V8.25h3c.2761 0 .5-.22386.5-.5v-4c0-.27614-.2239-.5-.5-.5h-3V.5C9.5.223858 9.27614 0 9 0H5Z" clip-rule="evenodd"></path>
  </g>
  <defs>
    <linearGradient id="paint0_linear_14402_16469" x1="1.461" x2="16.073" y1="1.131" y2="8.19" gradientUnits="userSpaceOnUse">
      <stop stop-color="#00d078"></stop>
      <stop offset="1" stop-color="#007df0"></stop>
    </linearGradient>
  </defs>
</svg>