<svg xmlns="http://www.w3.org/2000/svg" fill="none" viewBox="0 0 14 14" id="Zodiac-2--Streamline-Core-Gradient">
  <desc>
    Zodiac 2 Streamline Icon: https://streamlinehq.com
  </desc>
  <g id="Free Gradient/Culture/zodiac-2--sign-astrology-stars-space-virgo">
    <path id="Union" fill="url(#paint0_linear_14402_16578)" fill-rule="evenodd" d="M3 3c-.55228 0-1 .44772-1 1v5.5c0 .5523-.44772 1-1 1-.552285 0-1-.4477-1-1V4c0-1.65685 1.34315-3 3-3 .76843 0 1.46928.28896 2 .76407C5.53072 1.28896 6.23157 1 7 1c1.1105 0 2.07988.60349 2.59857 1.50017.00619-.00011.0124-.00017.01862-.00017h1.32811c1.2131 0 2.2251.72467 2.7122 1.66322.4988.9611.4762 2.21992-.4539 3.18651l-2.8113 3.44437c.1734.1328.3868.2059.6077.2059.2652 0 .5196-.1054.7071-.2929S12 10.2652 12 10c0-.55229.4477-1 1-1s1 .44771 1 1c0 .7956-.3161 1.5587-.8787 2.1213C12.5587 12.6839 11.7956 13 11 13c-.6838 0-1.34351-.2334-1.87261-.6562l-.2355.2885c-.34922.4279-.97917.4916-1.40703.1424-.42785-.3492-.4916-.9792-.14238-1.407l.70098-.8588C8.01472 10.3419 8 10.1717 8 10V4.0004C8 3.44786 7.55202 3 7 3s-1 .44786-1 1.0004V9.5c0 .5523-.44772 1-1 1s-1-.4477-1-1V4.2507L4 4.25v-.2496C4 3.44786 3.55202 3 3 3Zm7 5.11178 1.6825-2.06133c.0208-.02547.0428-.0499.066-.0732.2741-.27529.2925-.58701.1338-.89277-.177-.34114-.5415-.58448-.937-.58448H10v3.61178Z" clip-rule="evenodd"></path>
  </g>
  <defs>
    <linearGradient id="paint0_linear_14402_16578" x1=".538" x2="15.216" y1="1.97" y2="11.622" gradientUnits="userSpaceOnUse">
      <stop stop-color="#00d078"></stop>
      <stop offset="1" stop-color="#007df0"></stop>
    </linearGradient>
  </defs>
</svg>