<svg xmlns="http://www.w3.org/2000/svg" fill="none" viewBox="0 0 24 24" id="Earth-Refresh--Streamline-Ultimate">
  <desc>
    Earth Refresh Streamline Icon: https://streamlinehq.com
  </desc>
  <path stroke="#000000" stroke-linecap="round" stroke-linejoin="round" d="M8.25 22.6099c-1.8219 -0.6459 -3.44662 -1.7503 -4.7175 -3.2068 -1.27088 -1.4565 -2.14503 -3.2159 -2.538163 -5.1085C0.601209 12.402 0.702369 10.44 1.28806 8.59788c0.5857 -1.84214 1.63616 -3.50228 3.0501 -4.82034s3.14364 -2.24957 5.0223 -2.70468C11.2391 0.61774 13.2034 0.654366 15.0637 1.1792c1.8604 0.52484 3.5542 1.52018 4.918 2.89003 1.3638 1.36986 2.3517 3.06801 2.8683 4.9307" stroke-width="1.5"></path>
  <path stroke="#000000" stroke-linecap="round" stroke-linejoin="round" d="m5 20.8 1 -5.05h1.08c0.22808 0.0008 0.45325 -0.0512 0.65795 -0.1518 0.20469 -0.1006 0.38335 -0.2471 0.52205 -0.4282 0.14286 -0.1769 0.24181 -0.3851 0.28874 -0.6076 0.04693 -0.2224 0.04051 -0.4529 -0.01874 -0.6724l-0.75 -3c-0.07859 -0.3252 -0.26437 -0.6145 -0.5274 -0.8213 -0.26303 -0.20683 -0.58801 -0.31908 -0.9226 -0.3187H1" stroke-width="1.5"></path>
  <path stroke="#000000" stroke-linecap="round" stroke-linejoin="round" d="M21 5.25h-4.08c-0.3346 -0.00038 -0.6596 0.11187 -0.9226 0.31867 -0.263 0.20679 -0.4488 0.4961 -0.5274 0.82133L14.81 9" stroke-width="1.5"></path>
  <path stroke="#000000" stroke-linecap="round" stroke-linejoin="round" d="M15 18.75h-3.75v3.75" stroke-width="1.5"></path>
  <path stroke="#000000" stroke-linecap="round" stroke-linejoin="round" d="M22.67 19.48c-0.3956 1.1621 -1.1641 2.1609 -2.1859 2.8413 -1.0219 0.6803 -2.2399 1.004 -3.4646 0.9207 -1.2248 -0.0832 -2.3878 -0.5687 -3.3081 -1.3811 -0.9204 -0.8123 -1.5467 -1.906 -1.7814 -3.1109" stroke-width="1.5"></path>
  <path stroke="#000000" stroke-linecap="round" stroke-linejoin="round" d="M19.5 15.75h3.75V12" stroke-width="1.5"></path>
  <path stroke="#000000" stroke-linecap="round" stroke-linejoin="round" d="M11.83 15c0.3956 -1.1621 1.1641 -2.161 2.1859 -2.8413 1.0219 -0.6803 2.2398 -1.004 3.4646 -0.9208 1.2248 0.0833 2.3877 0.5688 3.3081 1.3811 0.9204 0.8124 1.5466 1.906 1.7814 3.111" stroke-width="1.5"></path>
</svg>