<svg xmlns="http://www.w3.org/2000/svg" fill="none" viewBox="0 0 24 24" id="Style-One-Pin-Plane--Streamline-Ultimate">
  <desc>
    Style One Pin Plane Streamline Icon: https://streamlinehq.com
  </desc>
  <path stroke="#000000" stroke-linecap="round" stroke-linejoin="round" d="m5.85899 10.929 1.382 0.95" stroke-width="1"></path>
  <path stroke="#000000" stroke-linecap="round" stroke-linejoin="round" d="m15.774 7.16102 -1.969 1.089 -4.147 -2.85 -1.969 1.089 3.49 3.211L7.241 11.879l2 1.375c0.22959 0.1577 0.49853 0.2483 0.7767 0.2617 0.2782 0.0134 0.5546 -0.0509 0.7983 -0.1857l6.409 -3.54298c0.1724 -0.09534 0.3244 -0.2237 0.4472 -0.37777 0.1228 -0.15407 0.2141 -0.33082 0.2686 -0.52015 0.0545 -0.18934 0.0712 -0.38756 0.0491 -0.58335 -0.0221 -0.19578 -0.0826 -0.3853 -0.1779 -0.55773 -0.0953 -0.17242 -0.2237 -0.32438 -0.3778 -0.4472 -0.154 -0.12281 -0.3308 -0.21408 -0.5201 -0.26859 -0.1894 -0.0545 -0.3876 -0.07119 -0.5834 -0.04909 -0.1958 0.0221 -0.3853 0.08254 -0.5577 0.17788h0.001Z" stroke-width="1"></path>
  <path stroke="#000000" stroke-linecap="round" stroke-linejoin="round" d="M21 9.75c-0.0003 -1.70285 -0.4838 -3.37067 -1.3942 -4.80974 -0.9103 -1.43907 -2.2103 -2.59034 -3.7489 -3.32009 -1.5385 -0.729759 -3.2525 -1.008053 -4.943 -0.802564 -1.69037 0.205484 -3.2878 0.886324 -4.60671 1.963444C4.98827 3.85816 4.002 5.28735 3.46291 6.90262c-0.53909 1.61527 -0.60887 3.35038 -0.20123 5.00368 0.40763 1.6533 1.27596 3.1571 2.50412 4.3367 1.22816 1.1795 2.76575 1.9864 4.4342 2.327l1.8 4.68 1.8 -4.68c2.0329 -0.415 3.8599 -1.5195 5.172 -3.1268C20.284 13.836 21.0004 11.8248 21 9.75Z" stroke-width="1"></path>
</svg>