<svg xmlns="http://www.w3.org/2000/svg" fill="none" viewBox="0 0 48 48" id="Bluetooth--Streamline-Plump">
  <desc>
    Bluetooth Streamline Icon: https://streamlinehq.com
  </desc>
  <g id="bluetooth--bluetooth-internet-server-network-wireless-connection">
    <path id="Union" fill="#8fbffa" fill-rule="evenodd" d="M37.082 17.71c1.527 -1.095 1.636 -3.314 0.169 -4.49 -5.534 -4.434 -11.668 -7.743 -15.437 -9.579 -1.787 -0.87 -3.797 0.315 -3.944 2.297 -0.2 2.695 -0.433 6.69 -0.548 11.73a373.12 373.12 0 0 0 -4.844 -2.735c-0.838 -0.463 -1.85 -0.46 -2.536 0.207a9.222 9.222 0 0 0 -0.856 0.964c-0.371 0.48 -0.616 0.963 -0.776 1.39 -0.329 0.874 0.124 1.77 0.883 2.313 1.127 0.806 3.106 2.184 6.154 4.192 -3.048 2.008 -5.027 3.387 -6.154 4.193 -0.76 0.542 -1.212 1.439 -0.883 2.312 0.16 0.428 0.405 0.91 0.776 1.39 0.3 0.389 0.592 0.707 0.856 0.965 0.685 0.667 1.698 0.67 2.536 0.207 0.937 -0.518 2.46 -1.37 4.844 -2.736 0.115 5.04 0.349 9.035 0.548 11.73 0.147 1.982 2.157 3.168 3.944 2.297 3.77 -1.836 9.903 -5.144 15.437 -9.579 1.467 -1.175 1.358 -3.394 -0.17 -4.49a211.554 211.554 0 0 0 -9.296 -6.289c2.985 -1.91 6.136 -4.02 9.297 -6.288Zm-6.846 -2.47c-2.862 -1.81 -6.454 -4.028 -6.454 -4.028s-0.305 3.929 -0.576 8.462c1.94 -1.157 4.96 -3.305 7.03 -4.434Zm-7.03 13.084c0.27 4.534 0.576 8.462 0.576 8.462s3.592 -2.218 6.454 -4.028c-2.07 -1.128 -5.09 -3.276 -7.03 -4.434Z" clip-rule="evenodd" stroke-width="3"></path>
    <path id="Union_2" fill-rule="evenodd" stroke="#2859c5" stroke-linecap="round" stroke-linejoin="round" d="M37.082 17.712c1.527 -1.096 1.636 -3.315 0.169 -4.49 -5.534 -4.435 -11.668 -7.744 -15.437 -9.58 -1.787 -0.87 -3.797 0.315 -3.944 2.297 -0.2 2.695 -0.433 6.69 -0.548 11.73a371.885 371.885 0 0 0 -4.844 -2.735c-0.838 -0.463 -1.85 -0.46 -2.536 0.207a9.222 9.222 0 0 0 -0.856 0.964c-0.371 0.48 -0.616 0.963 -0.776 1.39 -0.329 0.874 0.124 1.77 0.883 2.313 1.127 0.806 3.106 2.184 6.154 4.192 -3.048 2.008 -5.027 3.387 -6.154 4.193 -0.76 0.542 -1.212 1.439 -0.883 2.312 0.16 0.428 0.405 0.91 0.776 1.39 0.3 0.389 0.592 0.707 0.856 0.965 0.685 0.668 1.698 0.67 2.536 0.207 0.937 -0.518 2.46 -1.37 4.844 -2.736 0.115 5.04 0.349 9.036 0.548 11.73 0.147 1.982 2.157 3.168 3.944 2.297 3.77 -1.836 9.903 -5.144 15.437 -9.579 1.467 -1.175 1.358 -3.394 -0.17 -4.49A211.647 211.647 0 0 0 27.786 24c2.985 -1.91 6.136 -4.02 9.297 -6.288Zm-6.846 -2.47c-2.862 -1.81 -6.454 -4.03 -6.454 -4.03s-0.305 3.93 -0.576 8.463c1.94 -1.157 4.96 -3.306 7.03 -4.434Zm-7.03 13.083c0.27 4.534 0.576 8.462 0.576 8.462s3.592 -2.218 6.454 -4.028c-2.07 -1.128 -5.09 -3.276 -7.03 -4.434Z" clip-rule="evenodd" stroke-width="3"></path>
  </g>
</svg>