<svg xmlns="http://www.w3.org/2000/svg" fill="none" viewBox="0 0 48 48" id="Database--Streamline-Plump">
  <desc>
    Database Streamline Icon: https://streamlinehq.com
  </desc>
  <g id="database--raid-storage-code-disk-programming-database-array-hard-disc">
    <path id="Vector" fill="#8fbffa" d="M5.5 11c0 -4.418 8.283 -8 18.5 -8s18.5 3.582 18.5 8c0 0 0.5 5 0.5 13s-0.5 13 -0.5 13c0 4.418 -8.283 8 -18.5 8S5.5 41.418 5.5 37c0 0 -0.5 -5 -0.5 -13s0.5 -13 0.5 -13Z" stroke-width="3"></path>
    <path id="Vector_2" fill="#ffffff" d="M24 19c10.217 0 18.5 -3.582 18.5 -8S34.217 3 24 3 5.5 6.582 5.5 11s8.283 8 18.5 8Z" stroke-width="3"></path>
    <path id="Vector_3" fill="#ffffff" d="M24 19c10.217 0 18.5 -3.582 18.5 -8S34.217 3 24 3 5.5 6.582 5.5 11s8.283 8 18.5 8Z" stroke-width="3"></path>
    <path id="Ellipse 23" stroke="#2859c5" stroke-linecap="round" stroke-linejoin="round" d="M42.5 11c0 4.418 -8.283 8 -18.5 8S5.5 15.418 5.5 11" stroke-width="3"></path>
    <path id="Ellipse 24" stroke="#2859c5" stroke-linecap="round" stroke-linejoin="round" d="M43 24.205C43 28.51 34.493 32 24 32S5 28.51 5 24.205" stroke-width="3"></path>
    <path id="Ellipse 431" stroke="#2859c5" stroke-linecap="round" stroke-linejoin="round" d="M11.5 24a0.5 0.5 0 0 0 0 -1" stroke-width="3"></path>
    <path id="Ellipse 433" stroke="#2859c5" stroke-linecap="round" stroke-linejoin="round" d="M11.5 24a0.5 0.5 0 0 1 0 -1" stroke-width="3"></path>
    <path id="Vector_4" stroke="#2859c5" stroke-linecap="round" stroke-linejoin="round" d="M5.5 11c0 -4.418 8.283 -8 18.5 -8s18.5 3.582 18.5 8c0 0 0.5 5 0.5 13s-0.5 13 -0.5 13c0 4.418 -8.283 8 -18.5 8S5.5 41.418 5.5 37c0 0 -0.5 -5 -0.5 -13s0.5 -13 0.5 -13Z" stroke-width="3"></path>
    <path id="Ellipse 431_2" stroke="#2859c5" stroke-linecap="round" stroke-linejoin="round" d="M11.5 37a0.5 0.5 0 0 0 0 -1" stroke-width="3"></path>
    <path id="Ellipse 433_2" stroke="#2859c5" stroke-linecap="round" stroke-linejoin="round" d="M11.5 37a0.5 0.5 0 0 1 0 -1" stroke-width="3"></path>
    <path id="Ellipse 431_3" stroke="#2859c5" stroke-linecap="round" stroke-linejoin="round" d="M18 25.75a0.5 0.5 0 0 0 0 -1" stroke-width="3"></path>
    <path id="Ellipse 433_3" stroke="#2859c5" stroke-linecap="round" stroke-linejoin="round" d="M18 25.75a0.5 0.5 0 0 1 0 -1" stroke-width="3"></path>
    <path id="Ellipse 431_4" stroke="#2859c5" stroke-linecap="round" stroke-linejoin="round" d="M18 38.75a0.5 0.5 0 0 0 0 -1" stroke-width="3"></path>
    <path id="Ellipse 433_4" stroke="#2859c5" stroke-linecap="round" stroke-linejoin="round" d="M18 38.75a0.5 0.5 0 0 1 0 -1" stroke-width="3"></path>
  </g>
</svg>