<svg xmlns="http://www.w3.org/2000/svg" fill="none" viewBox="0 0 48 48" id="Floppy-Disk--Streamline-Plump">
  <desc>
    Floppy Disk Streamline Icon: https://streamlinehq.com
  </desc>
  <g id="floppy-disk--disk-floppy-electronics-device-disc-computer-storage">
    <path id="Subtract" fill="#8fbffa" d="M36.7557 4.34727c-0.9226 -0.72878 -2.059 -1.12576 -3.2338 -1.17223C30.8902 3.07094 27.7289 3 24 3c-7.364 0 -12.5146 0.27667 -15.74282 0.53896 -2.5553 0.20761 -4.5106 2.16291 -4.71821 4.71821C3.27668 11.4854 3 16.636 3 24c0 7.364 0.27667 12.5146 0.53896 15.7428 0.20762 2.5553 2.16291 4.5106 4.71821 4.7182C11.4854 44.7233 16.636 45 24 45c7.364 0 12.5146 -0.2767 15.7428 -0.539 2.5553 -0.2076 4.5106 -2.1629 4.7182 -4.7182C44.7233 36.5146 45 31.364 45 24c0 -3.729 -0.071 -6.8904 -0.1751 -9.5221 -0.0464 -1.1751 -0.4436 -2.3117 -1.1726 -3.2344 -0.861 -1.0897 -1.9887 -2.42734 -3.2293 -3.66781 -1.2404 -1.24037 -2.5778 -2.3678 -3.6673 -3.22842Z" stroke-width="3"></path>
    <path id="Intersect" fill="#ffffff" d="M36.361 44.6904c0.1265 -2.013 0.2374 -4.8512 0.2374 -8.6142 0 -4.4699 -0.1565 -7.635 -0.3097 -9.6619 -0.1288 -1.7039 -1.4253 -3.0129 -3.1286 -3.1497 -1.9497 -0.1566 -4.9533 -0.3134 -9.1617 -0.3134s-7.212 0.1568 -9.1617 0.3134c-1.7032 0.1368 -2.9997 1.4458 -3.1285 3.1497 -0.1532 2.0269 -0.3098 5.192 -0.3098 9.6619 0 3.7628 0.111 6.601 0.2375 8.6139 3.092 0.1727 7.1797 0.3099 12.3649 0.3099 5.1825 0 9.2687 -0.137 12.3602 -0.3096Z" stroke-width="3"></path>
    <path id="Intersect_2" fill="#ffffff" d="M28.1772 11.3208c1.6945 -0.0709 3.0184 -1.3155 3.1065 -3.00919 0.0383 -0.73713 0.0647 -1.629 0.0647 -2.687 0 -0.98183 -0.0227 -1.82058 -0.0566 -2.52538C29.1554 3.03802 26.7298 3 24 3c-2.7311 0 -5.1578 0.03806 -7.2949 0.09932 -0.0339 0.70478 -0.0567 1.5435 -0.0567 2.52529 0 1.05801 0.0265 1.94987 0.0648 2.68701 0.0881 1.69368 1.4119 2.93828 3.1065 3.00918 1.0634 0.0444 2.446 0.0788 4.1787 0.0788 1.7328 0 3.1154 -0.0344 4.1788 -0.0788Z" stroke-width="3"></path>
    <path id="Subtract_2" stroke="#2859c5" stroke-linecap="round" stroke-linejoin="round" d="M36.7557 4.34727c-0.9226 -0.72878 -2.059 -1.12576 -3.2338 -1.17223C30.8902 3.07094 27.7289 3 24 3c-7.364 0 -12.5146 0.27667 -15.74282 0.53896 -2.5553 0.20761 -4.5106 2.16291 -4.71821 4.71821C3.27668 11.4854 3 16.636 3 24c0 7.364 0.27667 12.5146 0.53896 15.7428 0.20762 2.5553 2.16291 4.5106 4.71821 4.7182C11.4854 44.7233 16.636 45 24 45c7.364 0 12.5146 -0.2767 15.7428 -0.539 2.5553 -0.2076 4.5106 -2.1629 4.7182 -4.7182C44.7233 36.5146 45 31.364 45 24c0 -3.729 -0.071 -6.8904 -0.1751 -9.5221 -0.0464 -1.1751 -0.4436 -2.3117 -1.1726 -3.2344 -0.861 -1.0897 -1.9887 -2.42734 -3.2293 -3.66781 -1.2404 -1.24037 -2.5778 -2.3678 -3.6673 -3.22842Z" stroke-width="3"></path>
    <path id="Intersect_3" stroke="#2859c5" stroke-linecap="round" stroke-linejoin="round" d="M31.2927 3.09961c0.0339 0.70502 0.0567 1.54414 0.0567 2.52649 0 1.058 -0.0264 1.94987 -0.0648 2.687 -0.088 1.6937 -1.4119 2.9383 -3.1064 3.0092 -1.0634 0.0444 -2.4461 0.0788 -4.1788 0.0788s-3.1153 -0.0344 -4.1788 -0.0788c-1.6945 -0.0709 -3.0183 -1.3155 -3.1064 -3.00919 -0.0384 -0.73714 -0.0648 -1.629 -0.0648 -2.68701 0 -0.98233 0.0228 -1.82143 0.0567 -2.52645" stroke-width="3"></path>
    <path id="Intersect_4" stroke="#2859c5" stroke-linecap="round" stroke-linejoin="round" d="M36.3619 44.6901c0.1265 -2.013 0.2375 -4.8515 0.2375 -8.6149 0 -4.4699 -0.1566 -7.6349 -0.3097 -9.6618 -0.1288 -1.704 -1.4253 -3.013 -3.1286 -3.1498 -1.9497 -0.1565 -4.9533 -0.3134 -9.1617 -0.3134s-7.212 0.1569 -9.1617 0.3134c-1.7033 0.1368 -2.9998 1.4458 -3.1285 3.1497 -0.1532 2.027 -0.3098 5.192 -0.3098 9.6619 0 3.7634 0.111 6.6018 0.2375 8.6148" stroke-width="3"></path>
    <path id="Intersect_5" stroke="#2859c5" stroke-linecap="round" stroke-linejoin="round" d="M36.3609 44.6911c0.1265 -2.013 0.2375 -4.8515 0.2375 -8.6149 0 -4.4699 -0.1565 -7.635 -0.3097 -9.6619 -0.1288 -1.7039 -1.4253 -3.0129 -3.1286 -3.1497 -1.9497 -0.1566 -4.9533 -0.3134 -9.1617 -0.3134s-7.212 0.1568 -9.1617 0.3134c-1.7032 0.1368 -2.9997 1.4458 -3.1285 3.1497 -0.1532 2.0269 -0.3098 5.192 -0.3098 9.6619 0 3.7634 0.111 6.6018 0.2375 8.6148" stroke-width="3"></path>
    <path id="Vector 924" stroke="#2859c5" stroke-linecap="round" stroke-linejoin="round" d="M19 31h10" stroke-width="3"></path>
    <path id="Vector 925" stroke="#2859c5" stroke-linecap="round" stroke-linejoin="round" d="M19 37h6" stroke-width="3"></path>
  </g>
</svg>