<svg xmlns="http://www.w3.org/2000/svg" fill="none" viewBox="0 0 48 48" id="Mouse-Wireless--Streamline-Plump">
  <desc>
    Mouse Wireless Streamline Icon: https://streamlinehq.com
  </desc>
  <g id="mouse-wireless--remote-wireless-device-electronics-mouse-computer">
    <path id="Rectangle 57" fill="#8fbffa" d="M24 3c9.168 0 15.662 6.181 15.924 15.345C39.972 20.041 40 21.92 40 24s-0.028 3.96 -0.076 5.655C39.662 38.819 33.168 45 24 45S8.338 38.819 8.076 29.655A198.331 198.331 0 0 1 8 24c0 -2.08 0.028 -3.96 0.076 -5.654C8.338 9.18 14.832 3 24 3Z" stroke-width="3"></path>
    <path id="Rectangle 56" stroke="#2859c5" stroke-linecap="round" stroke-linejoin="round" d="M24 3c9.168 0 15.662 6.181 15.924 15.345C39.972 20.041 40 21.92 40 24s-0.028 3.96 -0.076 5.655C39.662 38.819 33.168 45 24 45S8.338 38.819 8.076 29.655A198.331 198.331 0 0 1 8 24c0 -2.08 0.028 -3.96 0.076 -5.654C8.338 9.18 14.832 3 24 3Z" stroke-width="3"></path>
    <path id="Vector 1118" stroke="#2859c5" stroke-linecap="round" stroke-linejoin="round" d="M24 11v6" stroke-width="3"></path>
  </g>
</svg>