<svg xmlns="http://www.w3.org/2000/svg" viewBox="0 0 14 14">
  <g>
    <path d="M6.45,10.37a.24.24,0,0,1-.28.09A.25.25,0,0,1,6,10.22V9.29a.29.29,0,0,0-.07-.18L4.64,7.82a.29.29,0,0,0-.18-.07H4a.25.25,0,0,1-.23-.14.25.25,0,0,1,0-.26l0,0A.27.27,0,0,0,3.8,7l-.72-.71a.24.24,0,0,0-.19-.08.32.32,0,0,0-.19.1L1.4,8.05a.75.75,0,0,0-.07.79A.76.76,0,0,0,2,9.25H4.25a.25.25,0,0,1,.25.25v3.75A.75.75,0,0,0,5,14a.67.67,0,0,0,.24,0,.75.75,0,0,0,.6-.3l1.86-2.5a.26.26,0,0,0,0-.33L7,10.15a.26.26,0,0,0-.38,0Z" style="fill: #000001"/>
    <path d="M13.78,13.78a.75.75,0,0,0,0-1.06l-4-4a.26.26,0,0,1,0-.33L11.6,6a.75.75,0,0,0,.07-.79A.76.76,0,0,0,11,4.75H8.75A.25.25,0,0,1,8.5,4.5V.75A.75.75,0,0,0,8,0,.74.74,0,0,0,7.15.3L4.86,3.39a.24.24,0,0,1-.19.1.23.23,0,0,1-.19-.07L1.28.22A.75.75,0,0,0,.22,1.28L3.78,4.84h0L4.85,5.92h0L7.67,8.73h0L8.74,9.8h0l4,4a.75.75,0,0,0,1.06,0ZM5.91,4.85a.26.26,0,0,1,0-.33l.67-.89a.24.24,0,0,1,.28-.09A.25.25,0,0,1,7,3.78V5.5a.76.76,0,0,0,.75.75H9a.25.25,0,0,1,.23.14.25.25,0,0,1,0,.26l-.46.63a.27.27,0,0,1-.19.1.23.23,0,0,1-.19-.07Z" style="fill: #000001"/>
  </g>
</svg>
