<svg xmlns="http://www.w3.org/2000/svg" fill="none" viewBox="0 0 14 14" id="Airport-Security--Streamline-Core">
  <desc>
    Airport Security Streamline Icon: https://streamlinehq.com
  </desc>
  <g id="airport-security">
    <path id="Vector 3702" fill="#79ee8d" d="M12 1H2c-0.55228 0 -1 0.44772 -1 1v2.67544C1 8.45241 3.41686 11.8056 7 13c3.5831 -1.1944 6 -4.54759 6 -8.32456V2c0 -0.55228 -0.4477 -1 -1 -1Z" stroke-width="1"></path>
    <path id="Union" fill="#0c098c" fill-rule="evenodd" d="M0.375 2C0.375 1.10254 1.10254 0.375 2 0.375h10c0.8975 0 1.625 0.72754 1.625 1.625v2.67544c0 4.04599 -2.589 7.63806 -6.42736 8.91746 -0.12829 0.0428 -0.26699 0.0428 -0.39528 0C2.964 12.3135 0.375 8.72143 0.375 4.67544V2ZM2 1.625c-0.20711 0 -0.375 0.16789 -0.375 0.375v2.67544c0 3.43805 2.15615 6.49806 5.375 7.66296 3.2188 -1.1649 5.375 -4.22491 5.375 -7.66296V2c0 -0.20711 -0.1679 -0.375 -0.375 -0.375H2Zm6.79214 1.88362c0.30417 -0.02751 0.6107 0.01101 0.89861 0.11291 0.28791 0.1019 0.55045 0.26478 0.76955 0.47751 0.2192 0.21272 0.3898 0.47027 0.5002 0.75503 0.0021 0.00554 0.0041 0.01115 0.0058 0.01683 0.0294 0.09551 0.0397 0.19588 0.0303 0.29538 -0.0094 0.09949 -0.0383 0.19616 -0.085 0.28448 -0.0468 0.08832 -0.1105 0.16657 -0.1875 0.23027s-0.1658 0.11161 -0.2613 0.14099l-0.0031 0.00094 0 -0.00002 -1.76048 0.51701 -0.07195 0.02214 -0.63274 1.85272c-0.0234 0.08096 -0.06612 0.15508 -0.12455 0.21595 -0.05902 0.06147 -0.1322 0.10749 -0.2131 0.13405l-1.08063 0.39738 -0.00755 0.00278 -0.00004 -0.00013c-0.08728 0.02894 -0.1806 0.03459 -0.27073 0.01638 -0.09012 -0.0182 -0.17393 -0.05963 -0.24313 -0.12018 -0.0692 -0.06055 -0.12139 -0.13812 -0.1514 -0.22503 -0.03001 -0.08692 -0.0368 -0.18016 -0.0197 -0.2705 0.00168 -0.00889 0.00384 -0.01767 0.00648 -0.02632l0.34997 -1.14969 -1.58681 0.51649c-0.18731 0.06391 -0.39227 0.05155 -0.57058 -0.03446 -0.17902 -0.08635 -0.31667 -0.23995 -0.38295 -0.42734l-0.00215 -0.00608 0.00008 -0.00003 -0.67619 -2.08114 -0.00334 -0.01029 0.00022 -0.00007c-0.03395 -0.12223 -0.02068 -0.25276 0.03715 -0.36568 0.05783 -0.11291 0.15601 -0.19994 0.27504 -0.24382l0.00597 -0.00221 0.00003 0.00008 0.7456 -0.2535c0.12035 -0.04655 0.25407 -0.04534 0.3737 0.0036 0.11477 0.04695 0.20801 0.13434 0.26239 0.24517l0.41762 0.64645 2.79881 -1.3994c0.26331 -0.14975 0.55567 -0.24136 0.8574 -0.26865Z" clip-rule="evenodd" stroke-width="1"></path>
  </g>
</svg>