<svg xmlns="http://www.w3.org/2000/svg" fill="none" viewBox="0 0 14 14" id="Baggage--Streamline-Core">
  <desc>
    Baggage Streamline Icon: https://streamlinehq.com
  </desc>
  <g id="baggage--check-baggage-travel-adventure-luggage-bag-checked-airport">
    <path id="Vector 4705" fill="#79ee8d" d="M1 11V6c0 -1.10457 0.89543 -2 2 -2h8c1.1046 0 2 0.89543 2 2v5c0 1.1046 -0.8954 2 -2 2H3c-1.10457 0 -2 -0.8954 -2 -2Z" stroke-width="1"></path>
    <path id="Union" fill="#0c098c" fill-rule="evenodd" d="M5.625 3c0 -0.75939 0.61561 -1.375 1.375 -1.375S8.375 2.24061 8.375 3v0.375h-2.75V3Zm-1.25 0.375V3C4.375 1.55025 5.55025 0.375 7 0.375S9.625 1.55025 9.625 3v0.375H11c1.4497 0 2.625 1.17525 2.625 2.625v5c0 1.4497 -1.1753 2.625 -2.625 2.625H3C1.55025 13.625 0.375 12.4497 0.375 11V6C0.375 4.55025 1.55025 3.375 3 3.375h1.375Zm6 1.25v7.75H11c0.7594 0 1.375 -0.6156 1.375 -1.375V6c0 -0.75939 -0.6156 -1.375 -1.375 -1.375h-0.625Zm-1.75 7.75v-7.75h-3.25v7.75h3.25ZM3 4.625h0.625v7.75H3c-0.75939 0 -1.375 -0.6156 -1.375 -1.375V6c0 -0.75939 0.61561 -1.375 1.375 -1.375Z" clip-rule="evenodd" stroke-width="1"></path>
  </g>
</svg>