<svg xmlns="http://www.w3.org/2000/svg" fill="none" viewBox="0 0 14 14" id="Beach--Streamline-Core">
  <desc>
    Beach Streamline Icon: https://streamlinehq.com
  </desc>
  <g id="beach--island-waves-outdoor-recreation-tree-beach-palm-wave-water-travel-places">
    <path id="Ellipse 2027" fill="#ff7972" d="M5.76184 7.9707c-3.0488 0 -5.520339 2.4715 -5.520339 5.5203H11.2822c0 -3.0488 -2.47156 -5.5203 -5.52036 -5.5203Z" stroke-width="1"></path>
    <path id="Union" fill="#0c098c" fill-rule="evenodd" d="M6.96742 3.66331c0.03164 -0.00922 0.06342 -0.01769 0.09534 -0.02541 -0.21977 0.31632 -0.40373 0.66488 -0.55545 1.03229 -0.32895 0.79664 -0.52013 1.71252 -0.59696 2.66272 -0.05007 -0.00123 -0.10019 -0.00185 -0.15035 -0.00185 -0.90305 0 -1.7949 0.20001 -2.61146 0.58567 -0.81656 0.38566 -1.53757 0.94738 -2.11123 1.64482 -0.219273 0.26659 -0.180917 0.66045 0.08567 0.87975 0.26658 0.2192 0.66045 0.1809 0.87972 -0.0857 0.45639 -0.55487 1.03002 -1.00177 1.67966 -1.30859 0.64965 -0.30683 1.35919 -0.46595 2.07764 -0.46595 0.20179 0 0.40287 0.01255 0.60212 0.0374 0.03451 0.00776 0.07012 0.01268 0.10658 0.01449 0.47295 0.06964 0.93435 0.2088 1.36895 0.41406 0.41795 0.19739 0.80443 0.45277 1.14848 0.75757 0.25837 0.22892 0.65338 0.20502 0.88227 -0.05336 0.2289 -0.25836 0.205 -0.65337 -0.05336 -0.88227 -0.43244 -0.38312 -0.91823 -0.70411 -1.44357 -0.95222 -0.39161 -0.18496 -0.80054 -0.32721 -1.21971 -0.42519 0.0657 -0.87289 0.23573 -1.6778 0.51093 -2.34427 0.23884 -0.57842 0.54603 -1.02855 0.91321 -1.34015 0.40784 0.10877 0.76007 0.36772 0.98551 0.72557 0.23165 0.3677 0.31133 0.81104 0.22219 1.23638 -0.09911 0.47298 0.20397 0.93675 0.6769 1.03586 0.473 0.09912 0.9368 -0.20396 1.0359 -0.67693 0.1823 -0.86974 0.0193 -1.77626 -0.4543 -2.52812 -0.049 -0.07768 -0.1008 -0.15308 -0.1554 -0.22608 0.3358 0.09456 0.6414 0.28021 0.8813 0.53928 0.3284 0.35456 0.882 0.3758 1.2365 0.04744 0.3546 -0.32836 0.3758 -0.88197 0.0475 -1.23653 -0.6051 -0.6534 -1.428 -1.06338 -2.314 -1.15296 -0.5275 -0.05332 -1.05582 0.0091 -1.54969 0.17788C8.91628 1.31367 8.54827 0.9406 8.10705 0.661161 7.3596 0.187775 6.45902 0.0191725 5.59095 0.190104c-0.47415 0.093363 -0.78283 0.553419 -0.68947 1.027566 0.09336 0.47414 0.55342 0.78283 1.02756 0.68946 0.25249 -0.04971 0.51055 -0.04122 0.75542 0.02196 -0.06929 0.01611 -0.13827 0.03417 -0.20687 0.05417 -0.8652 0.25225 -1.61542 0.79819 -2.12156 1.54386 -0.2714 0.39984 -0.16728 0.94399 0.23256 1.21539s0.94399 0.16728 1.21539 -0.23256c0.27756 -0.40892 0.68897 -0.70831 1.16344 -0.84664ZM4.125 11.375c0 -0.3452 -0.27982 -0.625 -0.625 -0.625s-0.625 0.2798 -0.625 0.625c0 0.6213 -0.50368 1.125 -1.125 1.125 -0.17368 0 -0.33653 -0.0389 -0.48182 -0.1079 -0.19363 -0.092 -0.420895 -0.0784 -0.602104 0.0362 -0.18121 0.1145 -0.291076 0.3139 -0.291076 0.5283v0.4184c0 0.3452 0.279822 0.625 0.625 0.625h12c0.3452 0 0.625 -0.2798 0.625 -0.625v-0.4184c0 -0.2144 -0.1099 -0.4138 -0.2911 -0.5283 -0.1812 -0.1146 -0.4085 -0.1282 -0.6021 -0.0362 -0.1453 0.069 -0.3081 0.1079 -0.4818 0.1079 -0.6213 0 -1.125 -0.5037 -1.125 -1.125 0 -0.3452 -0.2798 -0.625 -0.625 -0.625s-0.625 0.2798 -0.625 0.625c0 0.6213 -0.50368 1.125 -1.125 1.125s-1.125 -0.5037 -1.125 -1.125c0 -0.3452 -0.27982 -0.625 -0.625 -0.625s-0.625 0.2798 -0.625 0.625c0 0.6213 -0.50368 1.125 -1.125 1.125s-1.125 -0.5037 -1.125 -1.125Z" clip-rule="evenodd" stroke-width="1"></path>
  </g>
</svg>