<svg xmlns="http://www.w3.org/2000/svg" fill="none" viewBox="0 0 14 14" id="Dangerous-Zone-Sign--Streamline-Core">
  <desc>
    Dangerous Zone Sign Streamline Icon: https://streamlinehq.com
  </desc>
  <g id="dangerous-zone-sign">
    <path id="Vector 3927" fill="#79ee8d" d="M6.13622 1.98076 0.877258 10.9961C0.488375 11.6628 0.969246 12.5 1.74104 12.5H12.259c0.7718 0 1.2526 -0.8372 0.8637 -1.5039L7.86378 1.98076c-0.38588 -0.6615 -1.34168 -0.6615 -1.72756 0Z" stroke-width="1"></path>
    <path id="Union" fill="#0c098c" fill-rule="evenodd" d="M6.67608 2.29567c0.1447 -0.24807 0.50313 -0.24807 0.64783 0L12.5829 11.311c0.1458 0.25 -0.0345 0.564 -0.3239 0.564H1.74103c-0.28942 0 -0.46974 -0.314 -0.32391 -0.564l5.25896 -9.01533Zm1.72756 -0.62984c-0.62705 -1.074945 -2.18023 -1.07495 -2.80728 0L0.337393 10.6812c-0.631935 1.0833 0.149481 2.4438 1.403637 2.4438H12.259c1.2541 0 2.0355 -1.3605 1.4036 -2.4438L8.40364 1.66583Zm-0.51052 4.22003c0.21311 -0.35519 0.09793 -0.81588 -0.25725 -1.029 -0.35519 -0.21311 -0.81588 -0.09793 -1.02899 0.25725l-1.5 2.5c-0.13902 0.2317 -0.14266 0.52027 -0.00953 0.7554 0.13313 0.23513 0.38244 0.38047 0.65265 0.38047h1.17535l-0.81847 1.36412c-0.21311 0.3552 -0.09794 0.8159 0.25724 1.029 0.35519 0.2131 0.81589 0.0979 1.029 -0.2572l1.5 -2.50004c0.13902 -0.2317 0.14266 -0.52027 0.00953 -0.7554 -0.13313 -0.23513 -0.38245 -0.38048 -0.65265 -0.38048H7.07464l0.81848 -1.36412Z" clip-rule="evenodd" stroke-width="1"></path>
  </g>
</svg>