<svg xmlns="http://www.w3.org/2000/svg" fill="none" viewBox="0 0 14 14" id="Emergency-Exit--Streamline-Core">
  <desc>
    Emergency Exit Streamline Icon: https://streamlinehq.com
  </desc>
  <g id="emergency-exit">
    <path id="Union" fill="#fddc5c" fill-rule="evenodd" d="M6 0c-0.89746 0 -1.625 0.727537 -1.625 1.625v10.75C4.375 13.2725 5.10254 14 6 14h6.375c0.8975 0 1.625 -0.7275 1.625 -1.625V1.625C14 0.727537 13.2725 0 12.375 0H6Z" clip-rule="evenodd" stroke-width="1"></path>
    <path id="Union_2" fill="#0c098c" fill-rule="evenodd" d="M5.625 1.625c0 -0.20711 0.16789 -0.375 0.375 -0.375h6.375c0.2071 0 0.375 0.16789 0.375 0.375v10.75c0 0.2071 -0.1679 0.375 -0.375 0.375H8.5c-0.34518 0 -0.625 0.2798 -0.625 0.625S8.15482 14 8.5 14h3.875c0.8975 0 1.625 -0.7275 1.625 -1.625V1.625C14 0.727537 13.2725 0 12.375 0H6c-0.89746 0 -1.625 0.727537 -1.625 1.625V2.5c0 0.34518 0.27982 0.625 0.625 0.625s0.625 -0.27982 0.625 -0.625v-0.875Zm1 3.5c0 -0.9665 0.7835 -1.75 1.75 -1.75s1.75 0.7835 1.75 1.75 -0.7835 1.75 -1.75 1.75 -1.75 -0.7835 -1.75 -1.75ZM3.8086 8.80752 5.11612 7.5l-0.76517 -0.76516c-0.07032 -0.07033 -0.16571 -0.10984 -0.26516 -0.10984H2.625C2.27982 6.625 2 6.34518 2 6s0.27982 -0.625 0.625 -0.625h1.46079c0.43097 0 0.8443 0.17121 1.14904 0.47595l1.20665 1.20664 0 0.00001 0.00046 0.00046 0.00047 0.00046 0.70944 0.70945 0.4972 0.4972c0.07032 0.07032 0.16571 0.10983 0.26516 0.10983H9.375c0.34518 0 0.625 0.27982 0.625 0.625s-0.27982 0.625 -0.625 0.625H7.91421c-0.43097 0 -0.8443 -0.17121 -1.14905 -0.47595l-0.05525 -0.05526 -0.86612 0.86612 0.30526 0.30529c0.30475 0.3047 0.47595 0.718 0.47595 1.149v1.9608c0 0.3452 -0.27982 0.625 -0.625 0.625s-0.625 -0.2798 -0.625 -0.625v-1.9608c0 -0.0994 -0.03951 -0.1948 -0.10983 -0.2652l-0.7472 -0.7472 -0.26797 -0.2679 -0.01517 0.0151c-0.30474 0.3048 -0.71807 0.476 -1.14904 0.476H0.625C0.279822 10.625 0 10.3452 0 10c0 -0.34518 0.279822 -0.625 0.625 -0.625h2.46079c0.09945 0 0.19484 -0.03951 0.26516 -0.10983l0.45655 -0.45655 0.00056 -0.00056 0.00054 -0.00054Z" clip-rule="evenodd" stroke-width="1"></path>
  </g>
</svg>