<svg xmlns="http://www.w3.org/2000/svg" fill="none" viewBox="0 0 14 14" id="Hotel-Laundry--Streamline-Core">
  <desc>
    Hotel Laundry Streamline Icon: https://streamlinehq.com
  </desc>
  <g id="hotel-laundry--laundry-machine-hotel">
    <path id="Vector 4848" fill="#7af1ff" d="M11.5 0.625h-9c-0.55228 0 -1 0.44772 -1 1v10.75c0 0.5523 0.44771 1 1 1h9c0.5523 0 1 -0.4477 1 -1V1.625c0 -0.55228 -0.4477 -1 -1 -1Z" stroke-width="1"></path>
    <path id="Union" fill="#0c098c" fill-rule="evenodd" d="M2.5 0C1.60254 0 0.875 0.727537 0.875 1.625v10.75C0.875 13.2725 1.60254 14 2.5 14h9c0.8975 0 1.625 -0.7275 1.625 -1.625V1.625C13.125 0.727538 12.3975 0 11.5 0h-9Zm-0.375 3.5v8.875c0 0.2071 0.16789 0.375 0.375 0.375h9c0.2071 0 0.375 -0.1679 0.375 -0.375V3.5h-9.75Zm2.75699 4.125h-0.20427C4.90734 6.55342 5.85984 5.75 7 5.75c1.31168 0 2.375 1.06332 2.375 2.375 0 0.17152 -0.01818 0.33879 -0.05272 0.5h-0.20422c-0.73525 0 -1.46041 -0.17119 -2.11804 -0.5 -0.65762 -0.32881 -1.38278 -0.5 -2.11803 -0.5ZM7 4.5c-2.00203 0 -3.625 1.62297 -3.625 3.625 0 2.002 1.62297 3.625 3.625 3.625s3.625 -1.623 3.625 -3.625C10.625 6.12297 9.00203 4.5 7 4.5Z" clip-rule="evenodd" stroke-width="1"></path>
  </g>
</svg>