<svg xmlns="http://www.w3.org/2000/svg" fill="none" viewBox="0 0 14 14" id="Iron--Streamline-Core">
  <desc>
    Iron Streamline Icon: https://streamlinehq.com
  </desc>
  <g id="iron--laundry-iron-heat-hotel">
    <path id="Vector 4894" fill="#fddc5c" d="M1.43402 12.625H13.375v-7H8.56927c-3.03017 0 -5.80028 1.71202 -7.15541 4.4223l-0.70345 1.4069c-0.056168 0.1123 -0.08541 0.2362 -0.08541 0.3618 0 0.4468 0.362209 0.809 0.80902 0.809Z" stroke-width="1"></path>
    <path id="Union" fill="#0c098c" fill-rule="evenodd" d="M4.875 0.75C4.39175 0.75 4 1.14175 4 1.625s0.39175 0.875 0.875 0.875h5.25c1.1736 0 2.125 0.9514 2.125 2.125V5H8.56927C5.30236 5 2.31584 6.84577 0.854838 9.76778L0.151393 11.1747C0.0518327 11.3738 0 11.5934 0 11.816c0 0.792 0.642031 1.434 1.43402 1.434H13.375c0.3452 0 0.625 -0.2798 0.625 -0.625v-8C14 2.4849 12.2651 0.75 10.125 0.75h-5.25Zm-2.90213 9.5768C3.22214 7.82827 5.77583 6.25 8.56927 6.25H12.75V12H1.43402c-0.10163 0 -0.18402 -0.0824 -0.18402 -0.184 0 -0.0286 0.00665 -0.0568 0.01943 -0.0823l0.70344 -1.4069Z" clip-rule="evenodd" stroke-width="1"></path>
  </g>
</svg>