<svg xmlns="http://www.w3.org/2000/svg" fill="none" viewBox="0 0 14 14" id="Lift-Disability--Streamline-Core">
  <desc>
    Lift Disability Streamline Icon: https://streamlinehq.com
  </desc>
  <g id="lift-disability--arrow-up-human-down-person-user-lift-elevator-disability-wheelchair-accessible">
    <path id="Ellipse 1992" fill="#fddc5c" d="M0.625 10.375c0 1.6568 1.34315 3 3 3s3 -1.3432 3 -3c0 -1.65687 -1.34315 -3 -3 -3s-3 1.34313 -3 3Z" stroke-width="1"></path>
    <path id="Ellipse 1990" fill="#fddc5c" d="M3.875 3.25a1.5 1.5 0 1 0 3 0 1.5 1.5 0 1 0 -3 0" stroke-width="1"></path>
    <path id="Union" fill="#0c098c" fill-rule="evenodd" d="M11.8536 0.146447c-0.1953 -0.1952625 -0.5119 -0.1952625 -0.7072 0L9.14645 2.14645c-0.143 0.143 -0.18578 0.35805 -0.10839 0.54489S9.29777 3 9.5 3h4c0.2022 0 0.3845 -0.12182 0.4619 -0.30866 0.0774 -0.18684 0.0347 -0.40189 -0.1083 -0.54489l-2 -2.000003ZM4.03732 7.14877c0.13206 -0.52821 0.60666 -0.89877 1.15113 -0.89877 0.65531 0 1.18655 0.53124 1.18655 1.18655V9.25h1.3406c0.65005 0 1.23755 0.38739 1.49361 0.9849l1.24029 2.8939c0.1359 0.3173 -0.011 0.6847 -0.3283 0.8207 -0.31727 0.1359 -0.68469 -0.011 -0.82067 -0.3283l-1.24025 -2.8939c-0.05909 -0.1379 -0.19467 -0.2273 -0.34468 -0.2273H5.28078c-1.05718 0 -1.83289 -0.99351 -1.57649 -2.01912l0.33303 -1.33211Zm-0.95798 0.20974c0.12951 0.31996 -0.02487 0.68433 -0.34483 0.81384C1.86297 8.52514 1.25 9.37921 1.25 10.3749c0 1.3117 1.06332 2.375 2.375 2.375 0.83694 0 1.57325 -0.4324 1.99713 -1.0889 0.18722 -0.29 0.57408 -0.3734 0.86407 -0.1861 0.29 0.1872 0.37331 0.5741 0.18609 0.864 -0.64436 0.9981 -1.76822 1.661 -3.04729 1.661 -2.00203 0 -3.625 -1.6229 -3.625 -3.625 0 -1.52225 0.938156 -2.82393 2.26549 -3.36122 0.31996 -0.12951 0.68433 0.02487 0.81385 0.34483Zm5.95872 -2.04985C9.11545 5.12182 9.29777 5 9.5 5h4c0.2022 0 0.3845 0.12182 0.4619 0.30866 0.0774 0.18684 0.0347 0.40189 -0.1083 0.54489l-2 2c-0.1953 0.19527 -0.5119 0.19527 -0.7072 0l-1.99995 -2c-0.143 -0.143 -0.18578 -0.35805 -0.10839 -0.54489ZM4.5 3.25c0 -0.48325 0.39175 -0.875 0.875 -0.875s0.875 0.39175 0.875 0.875 -0.39175 0.875 -0.875 0.875S4.5 3.73325 4.5 3.25Zm0.875 -2.125c-1.1736 0 -2.125 0.9514 -2.125 2.125s0.9514 2.125 2.125 2.125S7.5 4.4236 7.5 3.25s-0.9514 -2.125 -2.125 -2.125Z" clip-rule="evenodd" stroke-width="1"></path>
  </g>
</svg>