<svg xmlns="http://www.w3.org/2000/svg" fill="none" viewBox="0 0 14 14" id="Location-Pin-Disabled--Streamline-Core">
  <desc>
    Location Pin Disabled Streamline Icon: https://streamlinehq.com
  </desc>
  <g id="location-pin-disabled--navigation-map-maps-pin-gps-location-disabled-off">
    <path id="Ellipse 1694" fill="#79ee8d" d="M12.395 6.0191c0 -2.97962 -2.41546 -5.395077 -5.39508 -5.395077 -1.73982 0 -3.28728 0.823537 -4.27385 2.102067l7.73063 7.73061c1.0436 -1.2519 1.9383 -2.80215 1.9383 -4.4376Z" stroke-width="1"></path>
    <path id="Union" fill="#0c098c" fill-rule="evenodd" d="M6.96914 -0.000899556C6.94284 -0.00076794 6.91659 -0.000467747 6.89037 0h0.00003C5.24667 0.0293402 3.76365 0.717926 2.69493 1.81098L1.06944 0.1855c-0.244073 -0.244078 -0.639802 -0.244078 -0.88388 0 -0.2440765 0.244077 -0.2440765 0.639805 0 0.88388l2.09215 2.09216c0.00212 0.00217 0.00425 0.00434 0.0064 0.00649l7.73069 7.73067c0.0021 0.0021 0.0042 0.0042 0.0064 0.0063l2.9094 2.9094c0.2441 0.2441 0.6398 0.2441 0.8839 0 0.2441 -0.2441 0.2441 -0.6398 0 -0.8839l-2.521 -2.5209c0.9322 -1.22419 1.7265 -2.74318 1.7265 -4.3905C13.02 2.73089 10.3837 0.058424 7.10944 0h0.00001c-0.03643 -0.000650124 -0.07295 -0.000976562 -0.10954 -0.000976562H6.9999l-0.03076 0.000077006ZM10.4006 9.5167c0.7973 -1.08158 1.3694 -2.28674 1.3694 -3.4976 0 -2.63444 -2.13566 -4.77008 -4.7701 -4.77008 -1.34157 0 -2.5537 0.55331 -3.42105 1.44588L5.3115 4.42755C5.66642 3.86993 6.28999 3.5 6.99995 3.5c1.10457 0 2 0.89543 2 2 0 0.70997 -0.36993 1.33353 -0.92755 1.68845l2.3282 2.32825ZM0.979839 6.0191c0 -0.71422 0.124371 -1.39938 0.352641 -2.03502L9.60735 12.259c-0.77369 0.726 -1.46652 1.2471 -1.79887 1.4857 -0.2442 0.1753 -0.52822 0.2563 -0.80857 0.2563s-0.56436 -0.081 -0.80856 -0.2563c-0.49184 -0.353 -1.77311 -1.325 -2.93766 -2.6639C2.10366 9.75852 0.979839 7.97862 0.979839 6.0191Z" clip-rule="evenodd" stroke-width="1"></path>
  </g>
</svg>