<svg xmlns="http://www.w3.org/2000/svg" fill="none" viewBox="0 0 14 14" id="Smoke-Detector--Streamline-Core">
  <desc>
    Smoke Detector Streamline Icon: https://streamlinehq.com
  </desc>
  <g id="smoke-detector--smoke-alert-fire-signal">
    <path id="Vector 5017" fill="#fddc5c" d="M3 1.625v-1h8v1c0 1.65685 -1.34315 3 -3 3H6c-1.65685 0 -3 -1.34315 -3 -3Z" stroke-width="1"></path>
    <path id="Union" fill="#0c098c" fill-rule="evenodd" d="M2 0c-0.34518 0 -0.625 0.279822 -0.625 0.625s0.27982 0.625 0.625 0.625h0.375v0.375C2.375 3.62703 3.99797 5.25 6 5.25h2c2.002 0 3.625 -1.62297 3.625 -3.625V1.25H12c0.3452 0 0.625 -0.279822 0.625 -0.625S12.3452 0 12 0H2Zm8.375 1.25h-6.75v0.375C3.625 2.93668 4.68832 4 6 4h2c1.31168 0 2.375 -1.06332 2.375 -2.375V1.25ZM3.92087 6.66435c0.32345 0.25876 0.37589 0.73072 0.11713 1.05417 -0.39639 0.49549 -0.43632 0.82811 -0.40432 1.07613 0.04017 0.31129 0.20452 0.61892 0.46985 1.08325l0.0257 0.04492c0.23279 0.40668 0.54767 0.95678 0.62945 1.59058 0.093 0.7207 -0.11707 1.4506 -0.72068 2.2051 -0.25876 0.3235 -0.73072 0.3759 -1.05417 0.1172 -0.32345 -0.2588 -0.37589 -0.7308 -0.11713 -1.0542 0.39639 -0.4955 0.43632 -0.8281 0.40432 -1.0761 -0.04017 -0.3113 -0.20452 -0.619 -0.46985 -1.0833l-0.0257 -0.0449c-0.23279 -0.4067 -0.54767 -0.95678 -0.62945 -1.5906 -0.093 -0.72073 0.11707 -1.45061 0.72068 -2.20512 0.25876 -0.32345 0.73072 -0.37589 1.05417 -0.11713Zm3.66474 1.05417c0.25875 -0.32345 0.20631 -0.79541 -0.11713 -1.05417 -0.32345 -0.25876 -0.79542 -0.20632 -1.05418 0.11713 -0.6036 0.75451 -0.81368 1.48439 -0.72067 2.20513 0.08178 0.63381 0.39666 1.18389 0.62946 1.59059l0.0257 0.0449c0.26533 0.4643 0.42969 0.772 0.46986 1.0833 0.032 0.248 -0.00792 0.5806 -0.40432 1.0761 -0.25875 0.3234 -0.20631 0.7954 0.11713 1.0542 0.32345 0.2587 0.79542 0.2063 1.05418 -0.1172 0.6036 -0.7545 0.81367 -1.4844 0.72067 -2.2051 -0.08178 -0.6338 -0.39667 -1.1839 -0.62946 -1.59059l-0.0257 -0.04492c-0.26533 -0.46433 -0.42969 -0.77196 -0.46986 -1.08325 -0.032 -0.24801 0.00792 -0.58063 0.40432 -1.07612Zm3.43059 -1.05417c0.3235 0.25876 0.3759 0.73072 0.1171 1.05417 -0.3964 0.49549 -0.4363 0.82811 -0.4043 1.07612 0.0402 0.31129 0.2045 0.61892 0.4699 1.08325l0.0257 0.04492c0.2328 0.40669 0.5477 0.95679 0.6294 1.59059 0.093 0.7207 -0.117 1.4506 -0.7206 2.2051 -0.2588 0.3235 -0.7308 0.3759 -1.0542 0.1172 -0.32345 -0.2588 -0.37589 -0.7308 -0.11714 -1.0542 0.39644 -0.4955 0.43634 -0.8281 0.40434 -1.0761 -0.0402 -0.3113 -0.2045 -0.619 -0.46988 -1.0833l-0.0257 -0.0449c-0.2328 -0.4067 -0.54768 -0.95678 -0.62946 -1.59059 -0.09301 -0.72074 0.11707 -1.45062 0.72067 -2.20513 0.25877 -0.32345 0.73077 -0.37589 1.05417 -0.11713Z" clip-rule="evenodd" stroke-width="1"></path>
  </g>
</svg>