<svg xmlns="http://www.w3.org/2000/svg" fill="none" viewBox="0 0 14 14" id="Toiltet-Sign-Woman--Streamline-Core">
  <desc>
    Toiltet Sign Woman Streamline Icon: https://streamlinehq.com
  </desc>
  <g id="toiltet-sign-woman--toilet-sign-restroom-bathroom-user-human-person-woman-female">
    <path id="Union" fill="#ff7972" fill-rule="evenodd" d="M9 2.625c0 1.10457 -0.89543 2 -2 2s-2 -0.89543 -2 -2 0.89543 -2 2 -2 2 0.89543 2 2Zm-5.75 10.75S3.5 5 7 5s3.75 8.375 3.75 8.375h-7.5Z" clip-rule="evenodd" stroke-width="1"></path>
    <path id="Union_2" fill="#0c098c" fill-rule="evenodd" d="M5.625 2.625c0 -0.75939 0.61561 -1.375 1.375 -1.375s1.375 0.61561 1.375 1.375S7.75939 4 7 4s-1.375 -0.61561 -1.375 -1.375ZM7 0C5.55025 0 4.375 1.17525 4.375 2.625c0 0.90887 0.46191 1.70986 1.16377 2.18103 -0.45181 0.29004 -0.82331 0.70208 -1.12369 1.15948 -0.574 0.87406 -0.95396 2.0026 -1.21049 3.07682 -0.25879 1.08367 -0.40301 2.16067 -0.48277 2.96217 -0.04 0.402 -0.06404 0.7374 -0.07813 0.9734 -0.00705 0.118 -0.01161 0.2113 -0.01443 0.2757 -0.00141 0.0322 -0.00238 0.0572 -0.00302 0.0745l-0.0007 0.0201 -0.00018 0.0056 -0.00005 0.0017 -0.00002 0.0005c-0.00001 0.0002 -0.00001 0.0004 0.62471 0.019l-0.62472 -0.0186c-0.00504 0.1689 0.05853 0.3326 0.17623 0.4539 0.1177 0.1213 0.2795 0.1897 0.44849 0.1897h7.5c0.169 0 0.3308 -0.0684 0.4485 -0.1897 0.1177 -0.1213 0.1813 -0.285 0.1762 -0.4539l-0.6247 0.0186c0.6247 -0.0186 0.6247 -0.0188 0.6247 -0.019l0 -0.0005 -0.0001 -0.0017 -0.0001 -0.0056 -0.0007 -0.0201c-0.0007 -0.0173 -0.0016 -0.0423 -0.0031 -0.0745 -0.0028 -0.0644 -0.0073 -0.1577 -0.0144 -0.2757 -0.0141 -0.236 -0.0381 -0.5714 -0.0781 -0.9734 -0.0798 -0.8015 -0.224 -1.8785 -0.4828 -2.96217 -0.2565 -1.07422 -0.6365 -2.20276 -1.21048 -3.07682 -0.30038 -0.4574 -0.67188 -0.86944 -1.12369 -1.15948C9.16309 4.33486 9.625 3.53387 9.625 2.625 9.625 1.17525 8.44975 0 7 0Zm3.0343 12.1283c0.0233 0.2336 0.0408 0.4433 0.054 0.6217H3.91171c0.01317 -0.1784 0.03073 -0.3881 0.05397 -0.6217 0.07649 -0.7688 0.21352 -1.7856 0.45473 -2.79563 0.24347 -1.01953 0.58226 -1.98474 1.03951 -2.681C5.91392 5.96036 6.41776 5.625 7 5.625c0.58224 0 1.08609 0.33536 1.54008 1.02667 0.45725 0.69626 0.79604 1.66147 1.03951 2.681 0.24121 1.01003 0.37824 2.02683 0.45471 2.79563Z" clip-rule="evenodd" stroke-width="1"></path>
  </g>
</svg>