<svg xmlns="http://www.w3.org/2000/svg" fill="none" viewBox="0 0 14 14" id="Add-Circle--Streamline-Core">
  <desc>
    Add Circle Streamline Icon: https://streamlinehq.com
  </desc>
  <g id="add-circle--button-remove-cross-add-buttons-plus-circle-+-mathematics-math">
    <path id="Subtract" fill="#000000" fill-rule="evenodd" d="M14 7c0 3.866 -3.134 7 -7 7 -3.86599 0 -7 -3.134 -7 -7 0 -3.86599 3.13401 -7 7 -7 3.866 0 7 3.13401 7 7ZM7 3.25c0.41421 0 0.75 0.33579 0.75 0.75v2.25H10c0.4142 0 0.75 0.33579 0.75 0.75s-0.3358 0.75 -0.75 0.75H7.75V10c0 0.4142 -0.33579 0.75 -0.75 0.75s-0.75 -0.3358 -0.75 -0.75V7.75H4c-0.41421 0 -0.75 -0.33579 -0.75 -0.75s0.33579 -0.75 0.75 -0.75h2.25V4c0 -0.41421 0.33579 -0.75 0.75 -0.75Z" clip-rule="evenodd" stroke-width="1"></path>
  </g>
</svg>