<svg xmlns="http://www.w3.org/2000/svg" fill="none" viewBox="0 0 14 14" id="Alarm-Clock--Streamline-Core">
  <desc>
    Alarm Clock Streamline Icon: https://streamlinehq.com
  </desc>
  <g id="alarm-clock--time-tock-stopwatch-measure-clock-tick">
    <path id="Subtract" fill="#000000" fill-rule="evenodd" d="M3.60263 1.41208c0.36558 -0.19474 0.50407 -0.648976 0.30932 -1.014553C3.7172 0.0319506 3.26297 -0.106534 2.89739 0.0882129 1.86539 0.637971 0.944513 1.37468 0.181627 2.26083c-0.270246 0.31391 -0.2348484 0.78746 0.079063 1.0577 0.313911 0.27025 0.78746 0.23485 1.05771 -0.07906 0.64166 -0.74534 1.41622 -1.36498 2.28423 -1.82739ZM7.00001 14.0001C10.3137 14.0001 13 11.3139 13 8.00015c0 -3.31371 -2.6863 -6 -5.99999 -6 -3.31371 0 -6 2.68629 -6 6 0 3.31375 2.68629 5.99995 6 5.99995ZM10.0881 0.397527c0.1947 -0.3655764 0.649 -0.504061 1.0145 -0.3093141C12.1346 0.637971 13.0555 1.37468 13.8184 2.26083c0.2702 0.31391 0.2348 0.78746 -0.0791 1.0577 -0.3139 0.27025 -0.7874 0.23485 -1.0577 -0.07906 -0.6416 -0.74534 -1.4162 -1.36498 -2.2842 -1.82739 -0.3656 -0.19474 -0.50407 -0.648976 -0.3093 -1.014553ZM7.625 5c0 -0.34518 -0.27982 -0.625 -0.625 -0.625s-0.625 0.27982 -0.625 0.625v3c0 0.34518 0.27982 0.625 0.625 0.625h2.5c0.34518 0 0.625 -0.27982 0.625 -0.625s-0.27982 -0.625 -0.625 -0.625H7.625V5Z" clip-rule="evenodd" stroke-width="1"></path>
  </g>
</svg>