<svg xmlns="http://www.w3.org/2000/svg" fill="none" viewBox="0 0 14 14"><g id="align-right--rag-paragraph-text-alignment-align-right-formatting-left"><path id="Union" fill="#3e3e3e" fill-rule="evenodd" d="M0 1A.75.75 0 0 1 .75.25h12.5a.75.75 0 0 1 0 1.5H.75A.75.75 0 0 1 0 1Zm3.25 2.25a.75.75 0 0 0 0 1.5h10a.75.75 0 0 0 0-1.5h-10ZM5.5 7a.75.75 0 0 1 .75-.75h7a.75.75 0 0 1 0 1.5h-7A.75.75 0 0 1 5.5 7Zm-3 3a.75.75 0 0 1 .75-.75h10a.75.75 0 0 1 0 1.5h-10A.75.75 0 0 1 2.5 10ZM.75 12.25a.75.75 0 0 0 0 1.5h12.5a.75.75 0 0 0 0-1.5H.75Z" clip-rule="evenodd"></path></g></svg>