<svg xmlns="http://www.w3.org/2000/svg" fill="none" viewBox="0 0 14 14" id="Align-Right--Streamline-Core">
  <desc>
    Align Right Streamline Icon: https://streamlinehq.com
  </desc>
  <g id="align-right--rag-paragraph-text-alignment-align-right-formatting-left">
    <path id="Union" fill="#000000" fill-rule="evenodd" d="M0 1C0 0.585786 0.335786 0.25 0.75 0.25h12.5c0.4142 0 0.75 0.335786 0.75 0.75 0 0.41421 -0.3358 0.75 -0.75 0.75H0.75C0.335786 1.75 0 1.41421 0 1Zm3.25 2.25c-0.41421 0 -0.75 0.33579 -0.75 0.75s0.33579 0.75 0.75 0.75h10c0.4142 0 0.75 -0.33579 0.75 -0.75s-0.3358 -0.75 -0.75 -0.75h-10ZM5.5 7c0 -0.41421 0.33579 -0.75 0.75 -0.75h7c0.4142 0 0.75 0.33579 0.75 0.75s-0.3358 0.75 -0.75 0.75h-7c-0.41421 0 -0.75 -0.33579 -0.75 -0.75Zm-3 3c0 -0.41421 0.33579 -0.75 0.75 -0.75h10c0.4142 0 0.75 0.33579 0.75 0.75 0 0.4142 -0.3358 0.75 -0.75 0.75h-10c-0.41421 0 -0.75 -0.3358 -0.75 -0.75ZM0.75 12.25c-0.414214 0 -0.75 0.3358 -0.75 0.75s0.335786 0.75 0.75 0.75h12.5c0.4142 0 0.75 -0.3358 0.75 -0.75s-0.3358 -0.75 -0.75 -0.75H0.75Z" clip-rule="evenodd" stroke-width="1"></path>
  </g>
</svg>