<svg xmlns="http://www.w3.org/2000/svg" fill="none" viewBox="0 0 14 14" id="Ampersand--Streamline-Core">
  <desc>
    Ampersand Streamline Icon: https://streamlinehq.com
  </desc>
  <g id="ampersand">
    <path id="Vector 742 (Stroke)" fill="#000000" fill-rule="evenodd" d="M4.19238 1.75841c-0.23294 0.1577 -0.49859 0.46922 -0.49859 1.2356 0 0.20446 0.10699 0.55556 0.42209 1.06886 0.20936 0.34103 0.4863 0.71512 0.81903 1.1142 0.05348 -0.04735 0.12431 -0.11095 0.20724 -0.18756 0.19463 -0.1798 0.45165 -0.42733 0.70635 -0.70203 0.25762 -0.27786 0.49729 -0.56689 0.66802 -0.83027 0.08497 -0.13109 0.14413 -0.24257 0.18042 -0.33223 0.03478 -0.08596 0.03828 -0.12676 0.03862 -0.13068 0.00003 -0.00034 0.00003 -0.0004 0.00003 -0.0002 0 -0.57975 -0.1878 -0.92699 -0.41652 -1.13538C6.07892 1.63993 5.71114 1.5 5.23453 1.5c-0.36229 0 -0.75691 0.0653 -1.04215 0.25841Zm1.74864 4.5313c0.05883 -0.05221 0.13331 -0.11924 0.21898 -0.19839 0.21304 -0.19681 0.49958 -0.47244 0.78845 -0.78399 0.28593 -0.30839 0.58982 -0.66869 0.82677 -1.03424 0.21865 -0.33732 0.46037 -0.79749 0.46037 -1.27899 0 -0.93418 -0.3189 -1.709 -0.9063 -2.244176C6.75332 0.225151 5.99556 0 5.23453 0c-0.48368 0 -1.23444 0.077164 -1.88307 0.51629 -0.70094 0.474536 -1.15767 1.28502 -1.15767 2.47772 0 0.6254 0.28419 1.26789 0.64375 1.85361 0.25952 0.42275 0.58818 0.86308 0.96149 1.30946l-1.84615 1.5912C0.517443 8.98549 0.30394 11.1308 1.46738 12.6267c1.28716 1.6549 3.71912 1.8433 5.24584 0.4064l2.15376 -2.0271c0.56217 0.4766 1.10259 0.9253 1.59172 1.3299 0.1043 0.0862 0.206 0.1703 0.305 0.2522 0.5086 0.4203 0.9451 0.781 1.2803 1.0683 0.3144 0.2696 0.7879 0.2332 1.0575 -0.0813 0.2696 -0.3145 0.2331 -0.788 -0.0814 -1.0575 -0.3464 -0.297 -0.7959 -0.6684 -1.304 -1.0884 -0.0984 -0.0813 -0.1989 -0.1644 -0.3013 -0.2491 -0.45 -0.3723 -0.94 -0.779 -1.44848 -1.20875l1.01598 -0.95618c0.3016 -0.28389 0.316 -0.75854 0.0321 -1.06017 -0.2839 -0.30163 -0.7586 -0.31602 -1.06019 -0.03213l-1.1328 1.06617c-1.00962 -0.8812 -2.02024 -1.80861 -2.88039 -2.69933Zm-1.13716 0.98157L2.93218 8.88449c-0.83014 0.7155 -0.95361 1.95621 -0.28077 2.82121 0.74438 0.9571 2.15083 1.0661 3.03376 0.2351l2.03875 -1.9188c-1.01019 -0.88503 -2.03619 -1.83017 -2.92006 -2.75072Z" clip-rule="evenodd" stroke-width="1"></path>
  </g>
</svg>