<svg xmlns="http://www.w3.org/2000/svg" fill="none" viewBox="0 0 14 14" id="Arrow-Transfer-Diagonal-2--Streamline-Core">
  <desc>
    Arrow Transfer Diagonal 2 Streamline Icon: https://streamlinehq.com
  </desc>
  <g id="arrow-transfer-diagonal-2--arrows-arrow-server-data-diagonal-internet-transfer-network">
    <path id="Union" fill="#000000" fill-rule="evenodd" d="M8 0c0.40446 0 0.7691 0.243642 0.92388 0.617317 0.15478 0.373674 0.06922 0.803793 -0.21677 1.089793L7.40602 3.00819l6.30018 6.28378c0.391 0.39002 0.3918 1.02323 0.0018 1.41423 -0.39 0.391 -1.0232 0.3918 -1.4142 0.0018L3.27819 1.71584C2.88716 1.32582 2.88633 0.692659 3.27635 0.301627c0.08422 -0.084445 0.17979 -0.150692 0.2818 -0.198735C3.6929 0.0364926 3.84347 0 4 0h4ZM6.58579 11 0.292893 4.70711c-0.3905245 -0.39053 -0.3905245 -1.02369 0 -1.41422 0.390524 -0.39052 1.023687 -0.39052 1.414217 0l7 7.00001 1.99999 2c0.1781 0.1781 0.275 0.4066 0.2906 0.6396 0.0045 0.0653 0.0025 0.1311 -0.006 0.1967 -0.0244 0.1883 -0.1024 0.3709 -0.2339 0.5233 -0.0262 0.0305 -0.0542 0.0593 -0.0838 0.0862 -0.1779 0.1627 -0.4005 0.2494 -0.626 0.2602 -0.016 0.0007 -0.032 0.0011 -0.048 0.0011H6c-0.40446 0 -0.7691 -0.2436 -0.92388 -0.6173 -0.15478 -0.3737 -0.06922 -0.8038 0.21677 -1.0898L6.58579 11Z" clip-rule="evenodd" stroke-width="1"></path>
  </g>
</svg>