<svg xmlns="http://www.w3.org/2000/svg" fill="none" viewBox="0 0 14 14" id="Arrow-Crossover-Left--Streamline-Core">
  <desc>
    Arrow Crossover Left Streamline Icon: https://streamlinehq.com
  </desc>
  <g id="arrow-crossover-left--cross-move-over-arrow-arrows-left">
    <path id="Union" fill="#000000" fill-rule="evenodd" d="M13.7071 1.70711 3.56066 11.8536l1.29289 1.2928c0.143 0.143 0.18578 0.3581 0.10839 0.5449C4.88455 13.8782 4.70223 14 4.5 14h-4c-0.276142 0 -0.5 -0.2239 -0.5 -0.5v-4c0 -0.20223 0.121821 -0.38455 0.308658 -0.46194 0.186837 -0.07739 0.401896 -0.03461 0.544895 0.10839L2.14645 10.4393 12.2929 0.292893c0.3905 -0.3905241 1.0237 -0.3905241 1.4142 0 0.3905 0.390524 0.3905 1.023687 0 1.414217ZM8.79289 8.79289c0.39053 -0.39052 1.02369 -0.39052 1.41421 0l3.5 3.50001c0.3905 0.3905 0.3905 1.0237 0 1.4142 -0.3905 0.3905 -1.0237 0.3905 -1.4142 0l-3.50001 -3.5c-0.39052 -0.39052 -0.39052 -1.02368 0 -1.41421ZM0 0.999827V4.5c0 0.20223 0.121821 0.38455 0.308658 0.46194 0.186837 0.07739 0.401896 0.03461 0.544895 -0.10839L2.14645 3.56066l1.64644 1.64645c0.39053 0.39052 1.02369 0.39052 1.41422 0 0.39052 -0.39053 0.39052 -1.02369 0 -1.41422L3.56066 2.14645 4.85355 0.853553c0.143 -0.142999 0.18578 -0.358058 0.10839 -0.544895C4.88455 0.121821 4.70223 0 4.5 0h-4C0.223858 0 0 0.223858 0 0.5v0.499827Z" clip-rule="evenodd" stroke-width="1"></path>
  </g>
</svg>