<svg xmlns="http://www.w3.org/2000/svg" fill="none" viewBox="0 0 14 14" id="Arrow-Curvy-Up-Down-1--Streamline-Core">
  <desc>
    Arrow Curvy Up Down 1 Streamline Icon: https://streamlinehq.com
  </desc>
  <g id="arrow-curvy-up-down-1--both-direction-arrow-curvy-diagram-zigzag-vertical">
    <path id="Union" fill="#000000" fill-rule="evenodd" d="M10.0576 0.227167c0.1559 -0.1281399 0.3512 -0.2100535 0.565 -0.22477485 0.0389 -0.002716863 0.0779 -0.003139505 0.1167 -0.0013078 0.2133 0.00986845 0.4092 0.08659375 0.5672 0.20970765 0.0324 0.025203 0.0634 0.052584 0.0929 0.082101l2.3077 2.307697c0.286 0.28599 0.3716 0.71611 0.2168 1.08979 -0.1548 0.37367 -0.5194 0.61731 -0.9239 0.61731h-1.3077v6.84611c0 0.7549 -0.2999 1.4788 -0.8336 2.0126 -0.5338 0.5337 -1.25771 0.8336 -2.01256 0.8336s-1.47878 -0.2999 -2.01254 -0.8336c-0.53375 -0.5338 -0.83361 -1.2577 -0.83361 -2.0126V2.84615c0 -0.22441 -0.08915 -0.43963 -0.24784 -0.59832C5.59347 2.08915 5.37825 2 5.15383 2c-0.22441 0 -0.43963 0.08915 -0.59832 0.24783 -0.15868 0.15869 -0.24783 0.37391 -0.24783 0.59832V10.687l0.00001 0.0054v2.3077c0 0.2207 -0.07258 0.4296 -0.19926 0.599 -0.1559 0.208 -0.39098 0.3533 -0.66054 0.3911 -0.08238 0.0117 -0.1654 0.013 -0.24714 0.0042 -0.16723 -0.0178 -0.32215 -0.0768 -0.4544 -0.1667 -0.05167 -0.035 -0.10052 -0.0753 -0.14576 -0.1205L0.292893 11.3995c-0.28599782 -0.286 -0.3715535 -0.7161 -0.2167725 -1.0898C0.230901 9.93602 0.595538 9.69238 1 9.69238h1.30768V2.84615c0 -0.75484 0.29986 -1.47877 0.83362 -2.012531C3.67505 0.299862 4.39898 0 5.15383 0s1.47878 0.299862 2.01254 0.833619c0.53375 0.533761 0.83362 1.257691 0.83362 2.012531v8.30765c0 0.2245 0.08914 0.4397 0.24783 0.5984 0.15868 0.1587 0.37391 0.2478 0.59832 0.2478 0.22441 0 0.43963 -0.0891 0.59832 -0.2478 0.15869 -0.1587 0.24783 -0.3739 0.24783 -0.5984V1c0 -0.266761 0.10446 -0.509126 0.27469 -0.688425 0.02835 -0.029886 0.05862 -0.058089 0.09062 -0.084408Z" clip-rule="evenodd" stroke-width="1"></path>
  </g>
</svg>