<svg xmlns="http://www.w3.org/2000/svg" fill="none" viewBox="0 0 14 14" id="Block-Bell-Notification--Streamline-Core">
  <desc>
    Block Bell Notification Streamline Icon: https://streamlinehq.com
  </desc>
  <g id="block-bell-notification--notification-alarm-alert-bell-block">
    <path id="Union" fill="#000000" fill-rule="evenodd" d="M14 3.748c0 1.01 -0.4 1.928 -1.05 2.602a0.738 0.738 0 0 1 -0.097 0.097 3.748 3.748 0 0 1 -5.3 -5.3 0.761 0.761 0 0 1 0.097 -0.098A3.748 3.748 0 0 1 14 3.748ZM10.252 1.5a2.248 2.248 0 0 1 2.03 3.217l-3 -2.998a2.24 2.24 0 0 1 0.97 -0.219Zm-2.03 1.28 2.998 2.998A2.248 2.248 0 0 1 8.222 2.78Zm2.03 5.967c0.107 0 0.214 -0.004 0.32 -0.01v0.838c0 0.234 0.1 0.466 0.289 0.642 0.219 0.204 0.391 0.283 0.639 0.283a0.5 0.5 0 0 1 0 1H0.5a0.5 0.5 0 0 1 0 -1c0.248 0 0.42 -0.079 0.64 -0.283a0.878 0.878 0 0 0 0.288 -0.642V5.8c0 -1.152 0.49 -2.25 1.351 -3.052a4.713 4.713 0 0 1 3.005 -1.243 4.998 4.998 0 0 0 4.467 7.242ZM4.25 13.25A0.75 0.75 0 0 1 5 12.5h2A0.75 0.75 0 0 1 7 14H5a0.75 0.75 0 0 1 -0.75 -0.75Z" clip-rule="evenodd" stroke-width="1"></path>
  </g>
</svg>