<svg xmlns="http://www.w3.org/2000/svg" fill="none" viewBox="0 0 14 14" id="Flip-Vertical-Square-2--Streamline-Core">
  <desc>
    Flip Vertical Square 2 Streamline Icon: https://streamlinehq.com
  </desc>
  <g id="flip-vertical-square-2--design-up-flip-reflect-vertical">
    <path id="Union" fill="#000000" fill-rule="evenodd" d="M11.75 0c-0.4142 0 -0.75 0.335786 -0.75 0.75 0 0.41421 0.3358 0.75 0.75 0.75h0.5c0.1381 0 0.25 0.11193 0.25 0.25v0.5c0 0.41421 0.3358 0.75 0.75 0.75s0.75 -0.33579 0.75 -0.75v-0.5C14 0.783502 13.2165 0 12.25 0h-0.5ZM14 7V5.5c0 -0.41421 -0.3358 -0.75 -0.75 -0.75s-0.75 0.33579 -0.75 0.75v0.75h-11V5.5c0 -0.41421 -0.33579 -0.75 -0.75 -0.75 -0.414214 0 -0.75 0.33579 -0.75 0.75v6.75C0 13.2165 0.783502 14 1.75 14h10.5c0.9665 0 1.75 -0.7835 1.75 -1.75V7ZM1.75012 1.5c-0.13807 0 -0.25 0.11193 -0.25 0.25v0.5c0 0.41421 -0.33578 0.75 -0.749998 0.75 -0.414213 0 -0.74999993 -0.33579 -0.74999993 -0.75v-0.5C0.00012207 0.783502 0.783624 0 1.75012 0h0.5c0.41422 0 0.75 0.335786 0.75 0.75 0 0.41421 -0.33578 0.75 -0.75 0.75h-0.5ZM6 0c-0.41421 0 -0.75 0.335786 -0.75 0.75 0 0.41421 0.33579 0.75 0.75 0.75h2c0.41421 0 0.75 -0.33579 0.75 -0.75C8.75 0.335786 8.41421 0 8 0H6Z" clip-rule="evenodd" stroke-width="1"></path>
  </g>
</svg>