<svg xmlns="http://www.w3.org/2000/svg" fill="none" viewBox="0 0 14 14" id="Give-Gift--Streamline-Core">
  <desc>
    Give Gift Streamline Icon: https://streamlinehq.com
  </desc>
  <g id="give-gift--reward-social-rating-media-queen-vip-gift">
    <path id="Union" fill="#000000" fill-rule="evenodd" d="M9.03 0.22a0.75 0.75 0 1 0 -1.06 1.06l0.72 0.72H6.5a0.5 0.5 0 0 0 -0.5 0.5v5a0.5 0.5 0 0 0 0.5 0.5h2.875V3.5a0.625 0.625 0 1 1 1.25 0V8H13.5a0.5 0.5 0 0 0 0.5 -0.5v-5a0.5 0.5 0 0 0 -0.5 -0.5h-2.19l0.72 -0.72A0.75 0.75 0 0 0 10.97 0.22l-0.97 0.97 -0.97 -0.97ZM1.843 7H0v4l1.828 1.828A4 4 0 0 0 4.657 14H10.5a1.5 1.5 0 0 0 0 -3H7.723a2.11 2.11 0 0 1 -3.515 0.892l-1.45 -1.45a0.625 0.625 0 1 1 0.884 -0.884l1.45 1.45a0.86 0.86 0 0 0 1.306 -1.11L4.672 8.172A4 4 0 0 0 1.843 7Z" clip-rule="evenodd" stroke-width="1"></path>
  </g>
</svg>