<svg xmlns="http://www.w3.org/2000/svg" fill="none" viewBox="0 0 14 14" id="Help-Question-1--Streamline-Core">
  <desc>
    Help Question 1 Streamline Icon: https://streamlinehq.com
  </desc>
  <g id="help-question-1--circle-faq-frame-help-info-mark-more-query-question">
    <path id="Subtract" fill="#000000" fill-rule="evenodd" d="M14 7c0 3.866 -3.134 7 -7 7 -3.86599 0 -7 -3.134 -7 -7 0 -3.86599 3.13401 -7 7 -7 3.866 0 7 3.13401 7 7ZM5.75 5.25C5.75 4.55964 6.30964 4 7 4s1.25 0.55964 1.25 1.25S7.69036 6.5 7 6.5c-0.41421 0 -0.75 0.33579 -0.75 0.75v0.64648c0 0.41422 0.33579 0.75 0.75 0.75s0.75 -0.33578 0.75 -0.75c1.15425 -0.32646 2 -1.3877 2 -2.64648C9.75 3.73122 8.51878 2.5 7 2.5S4.25 3.73122 4.25 5.25c0 0.41421 0.33579 0.75 0.75 0.75s0.75 -0.33579 0.75 -0.75ZM8 10.5c0 0.5523 -0.44771 1 -1 1s-1 -0.4477 -1 -1c0 -0.55229 0.44771 -1 1 -1s1 0.44771 1 1Z" clip-rule="evenodd" stroke-width="1"></path>
  </g>
</svg>