<svg xmlns="http://www.w3.org/2000/svg" fill="none" viewBox="0 0 14 14" id="Hierarchy-14--Streamline-Core">
  <desc>
    Hierarchy 14 Streamline Icon: https://streamlinehq.com
  </desc>
  <g id="hierarchy-14--node-organization-links-structure-link-nodes-network-hierarchy">
    <path id="Union" fill="#000000" fill-rule="evenodd" d="M4.25 1v3.5c0 0.55228 0.44772 1 1 1h1v1.25H3c-0.9665 0 -1.75 0.7835 -1.75 1.75V10H1c-0.552285 0 -1 0.4477 -1 1v2c0 0.5523 0.447715 1 1 1h2c0.55228 0 1 -0.4477 1 -1v-2c0 -0.5523 -0.44772 -1 -1 -1h-0.25V8.5c0 -0.13807 0.11193 -0.25 0.25 -0.25h3.25V10H6c-0.55228 0 -1 0.4477 -1 1v2c0 0.5523 0.44772 1 1 1h2c0.55228 0 1 -0.4477 1 -1v-2c0 -0.5523 -0.44772 -1 -1 -1h-0.25V8.25H11c0.1381 0 0.25 0.11193 0.25 0.25V10H11c-0.5523 0 -1 0.4477 -1 1v2c0 0.5523 0.4477 1 1 1h2c0.5523 0 1 -0.4477 1 -1v-2c0 -0.5523 -0.4477 -1 -1 -1h-0.25V8.5c0 -0.9665 -0.7835 -1.75 -1.75 -1.75H7.75V5.5h1c0.55228 0 1 -0.44772 1 -1V1c0 -0.552285 -0.44772 -1 -1 -1h-3.5c-0.55228 0 -1 0.447715 -1 1Z" clip-rule="evenodd" stroke-width="1"></path>
  </g>
</svg>