<svg xmlns="http://www.w3.org/2000/svg" fill="none" viewBox="0 0 14 14"><g id="hierarchy-13--node-organization-links-structure-link-nodes-network-hierarchy"><path id="Union" fill="#3e3e3e" fill-rule="evenodd" d="M10.5 0H13a1 1 0 0 1 1 1v2.5a1 1 0 0 1-1 1h-.918l-.899 2.517A1 1 0 0 1 12 8v2.5a1 1 0 0 1-1 1H8.5a1 1 0 0 1-1-1V8.695L5.626 6.992A1.01 1.01 0 0 1 5.5 7H4.231l-.54 2.518a1 1 0 0 1 .809.982V13a1 1 0 0 1-1 1H1a1 1 0 0 1-1-1v-2.5a1 1 0 0 1 1-1h1.162l.545-2.544A1 1 0 0 1 2 6V3.5a1 1 0 0 1 1-1h2.5a1 1 0 0 1 1 1v2.26l1.507 1.37A.995.995 0 0 1 8.5 7h1.096l.893-2.5a1 1 0 0 1-.989-1V1a1 1 0 0 1 1-1Z" clip-rule="evenodd"></path></g></svg>