<svg xmlns="http://www.w3.org/2000/svg" fill="none" viewBox="0 0 14 14" id="Insert-Top-Left--Streamline-Core">
  <desc>
    Insert Top Left Streamline Icon: https://streamlinehq.com
  </desc>
  <g id="insert-top-left--alignment-wrap-formatting-paragraph-image-left-text">
    <path id="Union" fill="#000000" fill-rule="evenodd" d="M9.25 0.25c-0.41421 0 -0.75 0.335786 -0.75 0.75 0 0.41421 0.33579 0.75 0.75 0.75h4c0.4142 0 0.75 -0.33579 0.75 -0.75 0 -0.414214 -0.3358 -0.75 -0.75 -0.75h-4ZM1 0.499512c-0.552285 0 -1 0.447715 -1 0.999998v5c0 0.55229 0.447715 1 1 1h5c0.55228 0 1 -0.44771 1 -1v-5c0 -0.552283 -0.44772 -0.999998 -1 -0.999998H1ZM8.5 4c0 -0.41421 0.33579 -0.75 0.75 -0.75h4c0.4142 0 0.75 0.33579 0.75 0.75s-0.3358 0.75 -0.75 0.75h-4c-0.41421 0 -0.75 -0.33579 -0.75 -0.75Zm0.75 2.25c-0.41421 0 -0.75 0.33579 -0.75 0.75s0.33579 0.75 0.75 0.75h4c0.4142 0 0.75 -0.33579 0.75 -0.75s-0.3358 -0.75 -0.75 -0.75h-4ZM0 10c0 -0.41421 0.335786 -0.75 0.75 -0.75h12.5c0.4142 0 0.75 0.33579 0.75 0.75 0 0.4142 -0.3358 0.75 -0.75 0.75H0.75c-0.414214 0 -0.75 -0.3358 -0.75 -0.75Zm0.75 2.25c-0.414214 0 -0.75 0.3358 -0.75 0.75s0.335786 0.75 0.75 0.75h12.5c0.4142 0 0.75 -0.3358 0.75 -0.75s-0.3358 -0.75 -0.75 -0.75H0.75Z" clip-rule="evenodd" stroke-width="1"></path>
  </g>
</svg>