<svg xmlns="http://www.w3.org/2000/svg" fill="none" viewBox="0 0 14 14"><g id="insert-top-right--paragraph-image-text-alignment-wrap-right-formatting"><path id="Union" fill="#3e3e3e" fill-rule="evenodd" d="M.75.25a.75.75 0 1 0 0 1.5h4a.75.75 0 0 0 0-1.5h-4ZM8 .5a1 1 0 0 0-1 1v5a1 1 0 0 0 1 1h5a1 1 0 0 0 1-1v-5a1 1 0 0 0-1-1H8ZM0 4a.75.75 0 0 1 .75-.75h4a.75.75 0 0 1 0 1.5h-4A.75.75 0 0 1 0 4Zm.75 2.25a.75.75 0 0 0 0 1.5h4a.75.75 0 0 0 0-1.5h-4ZM0 10a.75.75 0 0 1 .75-.75h12.5a.75.75 0 0 1 0 1.5H.75A.75.75 0 0 1 0 10Zm.75 2.25a.75.75 0 0 0 0 1.5h12.5a.75.75 0 0 0 0-1.5H.75Z" clip-rule="evenodd"></path></g></svg>