<svg xmlns="http://www.w3.org/2000/svg" fill="none" viewBox="0 0 14 14" id="Lightbulb--Streamline-Core">
  <desc>
    Lightbulb Streamline Icon: https://streamlinehq.com
  </desc>
  <g id="lightbulb--lighting-light-incandescent-bulb-lights">
    <path id="Union" fill="#000000" fill-rule="evenodd" d="M9.5 9.33109C10.9945 8.46657 12 6.85071 12 5c0 -2.76142 -2.23858 -5 -5 -5S2 2.23858 2 5c0 1.85071 1.0055 3.46657 2.5 4.33109V10.5c0 0.5523 0.44772 1 1 1h3c0.55228 0 1 -0.4477 1 -1V9.33109ZM4.5 13.25c0 -0.4142 0.33579 -0.75 0.75 -0.75h3.5c0.41421 0 0.75 0.3358 0.75 0.75s-0.33579 0.75 -0.75 0.75h-3.5c-0.41421 0 -0.75 -0.3358 -0.75 -0.75Z" clip-rule="evenodd" stroke-width="1"></path>
  </g>
</svg>