<svg xmlns="http://www.w3.org/2000/svg" fill="none" viewBox="0 0 14 14" id="Link-Chain--Streamline-Core">
  <desc>
    Link Chain Streamline Icon: https://streamlinehq.com
  </desc>
  <g id="link-chain--create-hyperlink-link-make-unlink-connection-chain">
    <path id="Union" fill="#000000" fill-rule="evenodd" d="m7.6715 2.7426 -0.00004 0.00004 -0.96431 0.96443c-0.3905 0.39054 -1.02367 0.39058 -1.41422 0.00008 -0.39054 -0.3905 -0.39058 -1.02367 -0.00008 -1.41422l0.96436 -0.96446 0.00004 -0.00004c1.77124 -1.771239 4.64295 -1.771239 6.41425 0 1.7712 1.77122 1.7712 4.64293 0 6.41417l0 0.00004 -0.9644 0.96443c-0.3905 0.39054 -1.0236 0.39058 -1.4142 0.00008 -0.39051 -0.39051 -0.39055 -1.02367 0 -1.41422l0.9643 -0.96446 0 -0.00004c0.9902 -0.99019 0.9902 -2.5956 0 -3.58579 -0.9901 -0.99017 -2.59551 -0.99019 -3.5857 -0.00004ZM3.70696 5.29285c0.39054 0.3905 0.39058 1.02367 0.00008 1.41422l-0.96436 0.96446 -0.00004 0.00004c-0.99019 0.99019 -0.99019 2.59563 0 3.58583 0.99018 0.9901 2.59555 0.9901 3.58575 0l0.00004 0 0.96431 -0.9645c0.3905 -0.39051 1.02367 -0.39055 1.41422 0 0.39054 0.3905 0.39058 1.0236 0.00008 1.4142l-0.96436 0.9644 -0.00004 0.0001c-1.77124 1.7712 -4.64298 1.7712 -6.41421 0 -1.771226 -1.7713 -1.771239 -4.64296 -0.00004 -6.4142l0.00004 -0.00004 0.96431 -0.96443c0.3905 -0.39054 1.02367 -0.39058 1.41422 -0.00008Zm5.50015 0.91426c0.39052 -0.39053 0.39052 -1.02369 0 -1.41422 -0.39053 -0.39052 -1.02369 -0.39052 -1.41422 0l-3 3c-0.39052 0.39053 -0.39052 1.02369 0 1.41422 0.39053 0.39052 1.02369 0.39052 1.41422 0l3 -3Z" clip-rule="evenodd" stroke-width="1"></path>
  </g>
</svg>