<svg xmlns="http://www.w3.org/2000/svg" fill="none" viewBox="0 0 14 14" id="Moon-Cloud--Streamline-Core">
  <desc>
    Moon Cloud Streamline Icon: https://streamlinehq.com
  </desc>
  <g id="moon-cloud--cloud-meteorology-cloudy-partly-sunny-weather">
    <path id="Union" fill="#000000" fill-rule="evenodd" d="M10.8432 1.24906c0.2059 -0.20596 0.2524 -0.492017 0.1918 -0.721084 -0.0643 -0.243063 -0.2906 -0.52365492 -0.6744 -0.5092554C9.53081 0.0498497 8.70882 0.381748 8.0741 1.0138c-0.66352 0.62785 -1.03462 1.3313 -1.15326 2.03868 0.15883 0.0513 0.31594 0.10907 0.47094 0.17328 1.14204 0.47304 2.11816 1.27412 2.80492 2.30193 0.2578 0.38583 0.4705 0.79711 0.6356 1.22575 0.055 -0.00221 0.1107 -0.00336 0.1659 -0.00344l0.0018 0c0.1438 0 0.2868 0.00729 0.4286 0.02165 0.5029 -0.16596 1.0024 -0.45831 1.4714 -0.90126l0.0103 -0.00998c0.6354 -0.63542 0.9691 -1.45965 1.0003 -2.29169 0.0144 -0.38382 -0.2662 -0.61015 -0.5093 -0.67443 -0.229 -0.06058 -0.5151 -0.0141 -0.7211 0.19186 -0.5073 0.5073 -1.3297 0.5073 -1.837 0 -0.5073 -0.5073 -0.5073 -1.32979 0 -1.83709ZM4.02455 4.09608c0.96991 -0.19293 1.97524 -0.09391 2.88887 0.28452 0.91363 0.37844 1.69452 1.0193 2.24393 1.84155 0.39913 0.59734 0.66306 1.27091 0.77759 1.97385 0.33796 -0.1283 0.69836 -0.19551 1.06436 -0.196L11 8c0.7957 0 1.5587 0.31607 2.1213 0.87868C13.6839 9.44129 14 10.2044 14 11c0 0.7957 -0.3161 1.5587 -0.8787 2.1213C12.5587 13.6839 11.7957 14 11 14H5c-0.9889 0 -1.9556 -0.2932 -2.77785 -0.8426 -0.82224 -0.5495 -1.463107 -1.3304 -1.841545 -2.244 -0.37843862 -0.91361 -0.4774552 -1.91894 -0.2845292 -2.88885C0.289002 7.05465 0.765206 6.16373 1.46447 5.46447c0.69926 -0.69926 1.59018 -1.17547 2.56008 -1.36839Z" clip-rule="evenodd" stroke-width="1"></path>
  </g>
</svg>