<svg xmlns="http://www.w3.org/2000/svg" fill="none" viewBox="0 0 14 14"><g id="moon-cloud--cloud-meteorology-cloudy-partly-sunny-weather"><path id="Union" fill="#3e3e3e" fill-rule="evenodd" d="M10.843 1.25a.752.752 0 0 0 .192-.722.67.67 0 0 0-.674-.51 3.413 3.413 0 0 0-2.287.996c-.663.628-1.035 1.331-1.153 2.038a6.249 6.249 0 0 1 3.911 3.701c.055-.002.111-.003.166-.003H11c.144 0 .287.007.429.022A3.947 3.947 0 0 0 12.9 5.87l.01-.01c.636-.635.97-1.46 1-2.291a.67.67 0 0 0-.509-.675.752.752 0 0 0-.72.192 1.299 1.299 0 1 1-1.838-1.837ZM4.025 4.095a5 5 0 0 1 5.91 4.1A3.01 3.01 0 0 1 10.999 8H11a3 3 0 1 1 0 6H5a5 5 0 0 1-.975-9.904Z" clip-rule="evenodd"></path></g></svg>