<svg xmlns="http://www.w3.org/2000/svg" fill="none" viewBox="0 0 14 14"><g id="ok-hand"><path id="Union" fill="#3e3e3e" fill-rule="evenodd" d="m4.938 2.04-.116.359c-.35.57-.724 1.215-1.07 1.887-.464.899-.923 1.928-1.186 2.937-.524-1.967-.483-4.525-.404-5.958A1.347 1.347 0 0 1 3.337.014a1.415 1.415 0 0 1 1.6 1.228v.798Zm5.177 7.942c.183-.042.36-.126.515-.253.544-.443.586-1.452.143-1.996A3.806 3.806 0 0 0 7.67 6.33a4.3 4.3 0 0 0-.427.068 2.82 2.82 0 0 0-.68.222.625.625 0 1 1-.596-1.1c.265-.143.638-.264 1.015-.345.381-.08.82-.131 1.228-.102l.977-2.03a1.415 1.415 0 0 0-.752-1.872 1.347 1.347 0 0 0-1.649.479c-.99 1.482-3.078 4.752-3.191 6.965a53.255 53.255 0 0 0-.025 4.918.489.489 0 0 0 .492.466H8.81a.882.882 0 0 0 .286-.045 3.783 3.783 0 0 0 1.17-.651 3.8 3.8 0 0 0 1.16-1.61 1.27 1.27 0 0 0-1.31-1.712Zm-3.137 1.137a1.27 1.27 0 0 1 1.97-1.605c.279.342.7.501 1.108.462a1.27 1.27 0 0 0-.904.79 1.27 1.27 0 0 1-2.173.352Z" clip-rule="evenodd"></path></g></svg>