<svg xmlns="http://www.w3.org/2000/svg" fill="none" viewBox="0 0 14 14" id="Paintbrush-2--Streamline-Core">
  <desc>
    Paintbrush 2 Streamline Icon: https://streamlinehq.com
  </desc>
  <g id="paintbrush-2--brush-color-colors-design-paint-painting">
    <path id="Union" fill="#000000" fill-rule="evenodd" d="M13.41 0.594A2.024 2.024 0 0 0 11.112 0.19a2.028 2.028 0 0 0 -0.66 0.495L5.134 6.638A4.15 4.15 0 0 1 7.35 8.987l5.97 -5.41A2.043 2.043 0 0 0 14 2.115a2.055 2.055 0 0 0 -0.59 -1.521ZM5.393 12.599l0.018 -0.018c-1.414 1.405 -3.722 1.937 -5.243 0.807 -0.217 -0.16 -0.212 -0.472 -0.044 -0.684 0.734 -0.926 0.666 -1.63 0.602 -2.284 -0.062 -0.638 -0.119 -1.226 0.577 -1.921a2.9 2.9 0 1 1 4.09 4.1Z" clip-rule="evenodd" stroke-width="1"></path>
  </g>
</svg>