<svg xmlns="http://www.w3.org/2000/svg" fill="none" viewBox="0 0 14 14" id="Pathfinder-Intersect--Streamline-Core">
  <desc>
    Pathfinder Intersect Streamline Icon: https://streamlinehq.com
  </desc>
  <g id="pathfinder-intersect">
    <path id="Union" fill="#000000" fill-rule="evenodd" d="M1.27747 2.27747C1.13737 2.41756 0.948107 2.49741 0.75 2.5c-0.198107 -0.00259 -0.387371 -0.08244 -0.527466 -0.22253C0.0824394 2.13737 0.00258996 1.94811 0 1.75 0.0026251 1.28668 0.187842 0.843085 0.515464 0.515464 0.843085 0.187842 1.28668 0.0026251 1.75 0c0.19891 0 0.38968 0.079018 0.53033 0.21967C2.42098 0.360323 2.5 0.551088 2.5 0.75c0 0.198912 -0.07902 0.38968 -0.21967 0.53033C2.13968 1.42098 1.94891 1.5 1.75 1.5c-0.0663 0 -0.12989 0.02634 -0.17678 0.07322C1.52634 1.62011 1.5 1.6837 1.5 1.75c-0.00259 0.19811 -0.08244 0.38737 -0.22253 0.52747ZM12.25 5c0.0663 0 0.1299 0.02634 0.1768 0.07322 0.0469 0.04689 0.0732 0.11048 0.0732 0.17678 0 0.19891 0.079 0.38968 0.2197 0.53033 0.1406 0.14065 0.3314 0.21967 0.5303 0.21967 0.1989 0 0.3897 -0.07902 0.5303 -0.21967C13.921 5.63968 14 5.44891 14 5.25c-0.0026 -0.46332 -0.1878 -0.90691 -0.5155 -1.23454 -0.3276 -0.32762 -0.7712 -0.51284 -1.2345 -0.51546 -0.1989 0 -0.3897 0.07902 -0.5303 0.21967 -0.1407 0.14065 -0.2197 0.33142 -0.2197 0.53033 0 0.19891 0.079 0.38968 0.2197 0.53033 0.1406 0.14065 0.3314 0.21967 0.5303 0.21967Zm1 6.5c-0.1981 0.0026 -0.3874 0.0824 -0.5275 0.2225 -0.1401 0.1401 -0.2199 0.3294 -0.2225 0.5275 0 0.0663 -0.0263 0.1299 -0.0732 0.1768 -0.0469 0.0469 -0.1105 0.0732 -0.1768 0.0732 -0.1989 0 -0.3897 0.079 -0.5303 0.2197 -0.1407 0.1406 -0.2197 0.3314 -0.2197 0.5303 0 0.1989 0.079 0.3897 0.2197 0.5303 0.1406 0.1407 0.3314 0.2197 0.5303 0.2197 0.4633 -0.0026 0.9069 -0.1878 1.2345 -0.5155 0.3277 -0.3276 0.5129 -0.7712 0.5155 -1.2345 -0.0026 -0.1981 -0.0824 -0.3874 -0.2225 -0.5275 -0.1401 -0.1401 -0.3294 -0.2199 -0.5275 -0.2225Zm-8.17678 0.9268c0.04689 0.0469 0.11048 0.0732 0.17678 0.0732 0.19891 0 0.38968 0.079 0.53033 0.2197 0.14065 0.1406 0.21967 0.3314 0.21967 0.5303 0 0.1989 -0.07902 0.3897 -0.21967 0.5303C5.63968 13.921 5.44891 14 5.25 14c-0.46332 -0.0026 -0.90691 -0.1878 -1.23454 -0.5155 -0.32762 -0.3276 -0.51284 -0.7712 -0.51546 -1.2345 0 -0.1989 0.07902 -0.3897 0.21967 -0.5303 0.14065 -0.1407 0.33142 -0.2197 0.53033 -0.2197 0.19891 0 0.38968 0.079 0.53033 0.2197 0.14065 0.1406 0.21967 0.3314 0.21967 0.5303 0 0.0663 0.02634 0.1299 0.07322 0.1768ZM8 12.5c-0.19891 0 -0.38968 0.079 -0.53033 0.2197 -0.14065 0.1406 -0.21967 0.3314 -0.21967 0.5303 0 0.1989 0.07902 0.3897 0.21967 0.5303C7.61032 13.921 7.80109 14 8 14h1.5c0.19891 0 0.38968 -0.079 0.5303 -0.2197 0.1407 -0.1406 0.2197 -0.3314 0.2197 -0.5303 0 -0.1989 -0.079 -0.3897 -0.2197 -0.5303C9.88968 12.579 9.69891 12.5 9.5 12.5H8Zm4.7225 -5.02747c0.1401 -0.14009 0.3294 -0.21994 0.5275 -0.22253 0.1981 0.00259 0.3874 0.08244 0.5275 0.22253 0.1401 0.1401 0.2199 0.32936 0.2225 0.52747v1.5c0 0.19891 -0.079 0.38968 -0.2197 0.5303 -0.1406 0.1407 -0.3314 0.2197 -0.5303 0.2197 -0.1989 0 -0.3897 -0.079 -0.5303 -0.2197C12.579 9.88968 12.5 9.69891 12.5 9.5V8c0.0026 -0.19811 0.0824 -0.38737 0.2225 -0.52747ZM1.75 9c-0.0663 0 -0.12989 -0.02634 -0.17678 -0.07322C1.52634 8.87989 1.5 8.8163 1.5 8.75c0 -0.19891 -0.07902 -0.38968 -0.21967 -0.53033C1.13968 8.07902 0.948912 8 0.75 8c-0.198912 0 -0.389677 0.07902 -0.53033 0.21967C0.079018 8.36032 0 8.55109 0 8.75c0.0026251 0.46332 0.187842 0.90691 0.515464 1.23454 0.327621 0.32766 0.771216 0.51286 1.234536 0.51546 0.19891 0 0.38968 -0.079 0.53033 -0.2197 0.14065 -0.1406 0.21967 -0.33139 0.21967 -0.5303 0 -0.19891 -0.07902 -0.38968 -0.21967 -0.53033C2.13968 9.07902 1.94891 9 1.75 9Zm7 -7.5c0.0663 0 0.12989 0.02634 0.17678 0.07322C8.97366 1.62011 9 1.6837 9 1.75c0 0.19891 0.07902 0.38968 0.21967 0.53033 0.14065 0.14065 0.33142 0.21967 0.53033 0.21967 0.19891 0 0.3897 -0.07902 0.5303 -0.21967 0.1407 -0.14065 0.2197 -0.33142 0.2197 -0.53033 -0.0026 -0.46332 -0.1878 -0.906915 -0.51546 -1.234536C9.65691 0.187842 9.21332 0.0026251 8.75 0c-0.19891 0 -0.38968 0.079018 -0.53033 0.21967C8.07902 0.360323 8 0.551088 8 0.75c0 0.198912 0.07902 0.38968 0.21967 0.53033 0.14065 0.14065 0.33142 0.21967 0.53033 0.21967ZM6 1.5H4.5c-0.19891 0 -0.38968 -0.07902 -0.53033 -0.21967C3.82902 1.13968 3.75 0.948912 3.75 0.75c0 -0.198912 0.07902 -0.389677 0.21967 -0.53033C4.11032 0.079018 4.30109 0 4.5 0H6c0.19891 0 0.38968 0.079018 0.53033 0.21967C6.67098 0.360323 6.75 0.551088 6.75 0.75c0 0.198912 -0.07902 0.38968 -0.21967 0.53033C6.38968 1.42098 6.19891 1.5 6 1.5ZM0.75 6.75c0.198107 -0.00259 0.38737 -0.08244 0.52747 -0.22253 0.14009 -0.1401 0.21994 -0.32936 0.22253 -0.52747V4.5c0 -0.19891 -0.07902 -0.38968 -0.21967 -0.53033C1.13968 3.82902 0.948912 3.75 0.75 3.75c-0.198912 0 -0.389677 0.07902 -0.53033 0.21967C0.079018 4.11032 0 4.30109 0 4.5V6c0.00258996 0.19811 0.0824394 0.38737 0.222534 0.52747 0.140095 0.14009 0.329359 0.21994 0.527466 0.22253Zm4.5 -2.5c-0.55228 0 -1 0.44772 -1 1v4c0 0.27614 0.22386 0.5 0.5 0.5h4c0.55228 0 1 -0.44772 1 -1v-4c0 -0.27614 -0.22386 -0.5 -0.5 -0.5h-4Z" clip-rule="evenodd" stroke-width="1"></path>
  </g>
</svg>