<svg xmlns="http://www.w3.org/2000/svg" fill="none" viewBox="0 0 14 14" id="Quotation-2--Streamline-Core">
  <desc>
    Quotation 2 Streamline Icon: https://streamlinehq.com
  </desc>
  <g id="quotation-2--quote-quotation-format-formatting-open-close-marks-text">
    <path id="Union" fill="#000000" fill-rule="evenodd" d="M1.48979 3.8767c-0.06809 -0.40858 -0.45451 -0.68459 -0.86309 -0.61649 -0.408578 0.06809 -0.6845929 0.45451 -0.6164966 0.86309l0.4999996 3c0.068097 0.40858 0.454517 0.68459 0.863097 0.6165 0.40858 -0.0681 0.68459 -0.45452 0.61649 -0.8631l-0.5 -3Zm2.5 0c-0.06809 -0.40858 -0.45451 -0.68459 -0.86309 -0.61649 -0.40858 0.06809 -0.68459 0.45451 -0.6165 0.86309l0.5 3c0.0681 0.40858 0.45452 0.68459 0.8631 0.6165 0.40858 -0.0681 0.68459 -0.45452 0.61649 -0.8631l-0.5 -3Zm7.13351 2.38351c0.4086 0.06809 0.6846 0.45451 0.6165 0.86309l-0.5 3c-0.0681 0.4086 -0.4545 0.6846 -0.8631 0.6165 -0.40858 -0.0681 -0.68459 -0.4545 -0.6165 -0.8631l0.5 -3c0.0681 -0.40858 0.4545 -0.68459 0.8631 -0.61649Zm2.8665 0.86309c0.0681 -0.40858 -0.2079 -0.795 -0.6165 -0.86309 -0.4086 -0.0681 -0.795 0.20791 -0.8631 0.61649l-0.5 3c-0.0681 0.4086 0.2079 0.795 0.6165 0.8631 0.4086 0.0681 0.795 -0.2079 0.8631 -0.6165l0.5 -3Z" clip-rule="evenodd" stroke-width="1"></path>
  </g>
</svg>