<svg xmlns="http://www.w3.org/2000/svg" fill="none" viewBox="0 0 14 14" id="Scanner--Streamline-Core">
  <desc>
    Scanner Streamline Icon: https://streamlinehq.com
  </desc>
  <g id="scanner">
    <path id="Union" fill="#000000" fill-rule="evenodd" d="M9.75 0.75c0 -0.414214 0.3358 -0.75 0.75 -0.75h1.75C13.2165 0 14 0.783502 14 1.75V3.5c0 0.41421 -0.3358 0.75 -0.75 0.75s-0.75 -0.33579 -0.75 -0.75V1.75c0 -0.13807 -0.1119 -0.25 -0.25 -0.25H10.5c-0.4142 0 -0.75 -0.33579 -0.75 -0.75ZM0 7c0 -0.41421 0.335786 -0.75 0.75 -0.75h12.5c0.4142 0 0.75 0.33579 0.75 0.75s-0.3358 0.75 -0.75 0.75H0.75C0.335786 7.75 0 7.41421 0 7Zm1.5 -5.25c0 -0.13807 0.11193 -0.25 0.25 -0.25H3.5c0.41421 0 0.75 -0.33579 0.75 -0.75C4.25 0.335786 3.91421 0 3.5 0H1.75C0.783502 0 0 0.783502 0 1.75V3.5c0 0.41421 0.335786 0.75 0.75 0.75 0.41421 0 0.75 -0.33579 0.75 -0.75V1.75Zm11.75 8c0.4142 0 0.75 0.3358 0.75 0.75v1.75c0 0.9665 -0.7835 1.75 -1.75 1.75H10.5c-0.4142 0 -0.75 -0.3358 -0.75 -0.75s0.3358 -0.75 0.75 -0.75h1.75c0.1381 0 0.25 -0.1119 0.25 -0.25V10.5c0 -0.4142 0.3358 -0.75 0.75 -0.75Zm-11.74988 0.75c0 -0.4142 -0.33578 -0.75 -0.749998 -0.75 -0.414213 0 -0.74999993 0.3358 -0.74999993 0.75v1.7499c0 0.9665 0.78350193 1.75 1.74999793 1.75H3.5c0.41421 0 0.75 -0.3358 0.75 -0.75s-0.33579 -0.75 -0.75 -0.75H1.75012c-0.13807 0 -0.25 -0.1119 -0.25 -0.25V10.5Z" clip-rule="evenodd" stroke-width="1"></path>
  </g>
</svg>