<svg xmlns="http://www.w3.org/2000/svg" fill="none" viewBox="0 0 14 14" id="Search-Visual--Streamline-Core">
  <desc>
    Search Visual Streamline Icon: https://streamlinehq.com
  </desc>
  <g id="search-visual">
    <path id="Union" fill="#000000" fill-rule="evenodd" d="M1.75 1.5c-0.0663 0 -0.12989 0.02634 -0.17678 0.07322C1.52634 1.62011 1.5 1.6837 1.5 1.75v1.5c0 0.41421 -0.33579 0.75 -0.75 0.75C0.335786 4 0 3.66421 0 3.25v-1.5C0 1.28587 0.184375 0.840752 0.512563 0.512563 0.840752 0.184375 1.28587 0 1.75 0h1.5c0.41421 0 0.75 0.335786 0.75 0.75 0 0.41421 -0.33579 0.75 -0.75 0.75h-1.5Zm11.5 8.5c0.4142 0 0.75 0.3358 0.75 0.75v1.5c0 0.4641 -0.1844 0.9092 -0.5126 1.2374 -0.3282 0.3282 -0.7733 0.5126 -1.2374 0.5126h-1.5c-0.4142 0 -0.75 -0.3358 -0.75 -0.75s0.3358 -0.75 0.75 -0.75h1.5c0.0663 0 0.1299 -0.0263 0.1768 -0.0732 0.0469 -0.0469 0.0732 -0.1105 0.0732 -0.1768v-1.5c0 -0.4142 0.3358 -0.75 0.75 -0.75Zm-11.75 0.75c0 -0.4142 -0.33579 -0.75 -0.75 -0.75 -0.414214 0 -0.75 0.3358 -0.75 0.75v1.5c0 0.4641 0.184375 0.9092 0.512563 1.2374C0.840752 13.8156 1.28587 14 1.75 14h1.5c0.41421 0 0.75 -0.3358 0.75 -0.75s-0.33579 -0.75 -0.75 -0.75h-1.5c-0.0663 0 -0.12989 -0.0263 -0.17678 -0.0732C1.52634 12.3799 1.5 12.3163 1.5 12.25v-1.5Zm8.5 -10c0 -0.414214 0.3358 -0.75 0.75 -0.75h1.5c0.4641 0 0.9092 0.184375 1.2374 0.512563C13.8156 0.840752 14 1.28587 14 1.75v1.5c0 0.41421 -0.3358 0.75 -0.75 0.75s-0.75 -0.33579 -0.75 -0.75v-1.5c0 -0.0663 -0.0263 -0.12989 -0.0732 -0.17678C12.3799 1.52634 12.3163 1.5 12.25 1.5h-1.5c-0.4142 0 -0.75 -0.33579 -0.75 -0.75ZM6.25 4C5.00736 4 4 5.00736 4 6.25S5.00736 8.5 6.25 8.5 8.5 7.49264 8.5 6.25 7.49264 4 6.25 4ZM2.5 6.25c0 -2.07107 1.67893 -3.75 3.75 -3.75C8.32107 2.5 10 4.17893 10 6.25c0 0.76431 -0.22866 1.47522 -0.6213 2.06804l1.6516 1.65163c0.2929 0.29293 0.2929 0.76773 0 1.06063 -0.2929 0.2929 -0.7677 0.2929 -1.06063 0L8.31804 9.3787C7.72522 9.77134 7.01431 10 6.25 10 4.17893 10 2.5 8.32107 2.5 6.25Z" clip-rule="evenodd" stroke-width="1"></path>
  </g>
</svg>