<svg xmlns="http://www.w3.org/2000/svg" fill="none" viewBox="0 0 14 14"><g id="shrink-horizontal-1--resize-shrink-bigger-horizontal-smaller-size-arrow-arrows-big"><path id="Union" fill="#3e3e3e" fill-rule="evenodd" d="M1.5.75a.75.75 0 0 0-1.5 0v12.5a.75.75 0 0 0 1.5 0V.75Zm12.5 0a.75.75 0 0 0-1.5 0v12.5a.75.75 0 0 0 1.5 0V.75Zm-2.809 3.288a.5.5 0 0 1 .309.462v5a.5.5 0 0 1-.854.354l-2.5-2.5a.5.5 0 0 1 0-.708l2.5-2.5a.5.5 0 0 1 .545-.108Zm-8.382 0a.5.5 0 0 1 .545.108l2.5 2.5a.5.5 0 0 1 0 .708l-2.5 2.5A.5.5 0 0 1 2.5 9.5v-5a.5.5 0 0 1 .309-.462Z" clip-rule="evenodd"></path></g></svg>