<svg xmlns="http://www.w3.org/2000/svg" fill="none" viewBox="0 0 14 14" id="Sort-Descending--Streamline-Core">
  <desc>
    Sort Descending Streamline Icon: https://streamlinehq.com
  </desc>
  <g id="sort-descending">
    <path id="Union" fill="#000000" fill-rule="evenodd" d="M0 0.75A0.75 0.75 0 0 1 0.75 0h6.5a0.75 0.75 0 0 1 0 1.5H0.75A0.75 0.75 0 0 1 0 0.75ZM3.25 3a0.75 0.75 0 0 0 0 1.5h4a0.75 0.75 0 0 0 0 -1.5h-4Zm2 3a0.75 0.75 0 0 0 0 1.5h2a0.75 0.75 0 0 0 0 -1.5h-2Zm5.5 -6a1 1 0 0 1 1 1v9h1.5a0.75 0.75 0 0 1 0.53 1.28l-2.5 2.5a0.75 0.75 0 0 1 -1.06 0l-2.5 -2.5A0.75 0.75 0 0 1 8.25 10h1.5V1a1 1 0 0 1 1 -1Z" clip-rule="evenodd" stroke-width="1"></path>
  </g>
</svg>