<svg xmlns="http://www.w3.org/2000/svg" fill="none" viewBox="0 0 14 14" id="User-Sync-Online-In-Person--Streamline-Core">
  <desc>
    User Sync Online In Person Streamline Icon: https://streamlinehq.com
  </desc>
  <g id="user-sync-online-in-person">
    <path id="Union" fill="#000000" fill-rule="evenodd" d="M10.2127 2.53752c-1.29367 -0.93012 -2.97821 -1.29258 -4.63574 -0.84844 -2.79544 0.74903 -4.50822 3.52323 -3.98216 6.32072 0.07654 0.40708 -0.1914 0.79913 -0.598482 0.87568 -0.407078 0.07655 -0.799136 -0.1914 -0.875685 -0.59847C-0.549251 4.72465 1.62993 1.19377 5.18873 0.240189 7.38469 -0.348217 9.61568 0.176234 11.2842 1.46596l0.6123 -0.612224c0.3149 -0.314982 0.8535 -0.091898 0.8535 0.353554v2.29289c0 0.27615 -0.2238 0.5 -0.5 0.5H9.95712c-0.44545 0 -0.66854 -0.53857 -0.35355 -0.85355l0.60913 -0.60911Zm2.7914 2.57735c0.407 -0.07655 0.7991 0.19139 0.8756 0.59847 0.6699 3.56236 -1.5092 7.09326 -5.06805 8.04686 -2.19603 0.5884 -4.4271 0.0639 -6.09567 -1.2259l-0.61236 0.6123c-0.31499 0.315 -0.85356 0.0919 -0.85356 -0.3535v-2.2929c0 -0.2762 0.22386 -0.5 0.5 -0.5h2.2929c0.44545 0 0.66853 0.5385 0.35355 0.8535l-0.60899 0.609c1.29367 0.9302 2.9783 1.2927 4.6359 0.8486 2.79548 -0.7491 4.50818 -3.52326 3.98218 -6.32075 -0.0766 -0.40708 0.1914 -0.79913 0.5985 -0.87568Zm-4.50458 0.38578c0 0.82809 -0.6713 1.49939 -1.49939 1.49939 -0.8281 0 -1.4994 -0.6713 -1.4994 -1.49939 0 -0.8281 0.6713 -1.4994 1.4994 -1.4994 0.82809 0 1.49939 0.6713 1.49939 1.4994Zm-1.4996 2.02453c-1.05471 0 -1.9823 0.54428 -2.51722 1.36729 -0.18805 0.28933 0.04991 0.63268 0.39498 0.63268h4.24448c0.34507 0 0.58303 -0.34335 0.39498 -0.63268 -0.53491 -0.82301 -1.4625 -1.36729 -2.51722 -1.36729Z" clip-rule="evenodd" stroke-width="1"></path>
  </g>
</svg>