<svg xmlns="http://www.w3.org/2000/svg" fill="none" viewBox="0 0 14 14" id="User-Identifier-Card--Streamline-Core">
  <desc>
    User Identifier Card Streamline Icon: https://streamlinehq.com
  </desc>
  <g id="user-identifier-card">
    <path id="Subtract" fill="#000000" fill-rule="evenodd" d="M0 3c0 -0.55228 0.447715 -1 1 -1h12c0.5523 0 1 0.44772 1 1v8c0 0.5523 -0.4477 1 -1 1H1c-0.552284 0 -1 -0.4477 -1 -1V3Zm6 2.5C6 6.32843 5.32843 7 4.5 7S3 6.32843 3 5.5 3.67157 4 4.5 4 6 4.67157 6 5.5ZM1.54665 9.3022C2.27806 8.50196 3.33039 8 4.49997 8c1.16957 0 2.2219 0.50196 2.95332 1.3022 0.25979 0.28425 0.02977 0.6978 -0.35532 0.6978H1.90196c-0.38509 0 -0.61511 -0.41355 -0.35531 -0.6978Zm7.32832 -3.80217c0 -0.34518 0.27982 -0.625 0.625 -0.625H11.5c0.3451 0 0.625 0.27982 0.625 0.625s-0.2799 0.625 -0.625 0.625H9.49997c-0.34518 0 -0.625 -0.27982 -0.625 -0.625Zm0.625 2.375c-0.34518 0 -0.625 0.27982 -0.625 0.625s0.27982 0.625 0.625 0.625H11.5c0.3451 0 0.625 -0.27982 0.625 -0.625s-0.2799 -0.625 -0.625 -0.625H9.49997Z" clip-rule="evenodd" stroke-width="1"></path>
  </g>
</svg>