<svg xmlns="http://www.w3.org/2000/svg" fill="none" viewBox="0 0 14 14" id="Waving-Hand--Streamline-Core">
  <desc>
    Waving Hand Streamline Icon: https://streamlinehq.com
  </desc>
  <g id="waving-hand">
    <path id="Union" fill="#000000" fill-rule="evenodd" d="M3.74099 0.0639173c0.37891 -0.1673193 0.82172 0.0042139 0.98904 0.3831297 0.16732 0.378916 -0.00421 0.821723 -0.38313 0.989043 -0.35604 0.15722 -0.67284 0.41387 -0.90581 0.76319 -0.22982 0.34461 -0.69549 0.43765 -1.0401 0.20783 -0.3446 -0.22983 -0.43765 -0.6955 -0.20782 -1.0401C2.58908 0.773371 3.1317 0.332961 3.74099 0.0639173ZM2.54254 12.469l-0.44656 -0.5082c-0.46189 -0.5255 -0.8244 -1.1307 -1.06985 -1.7859L0.250853 8.10533C0.069024 7.61995 0.222506 7.0727 0.630224 6.75266c0.611536 -0.48002 1.511636 -0.25383 1.823606 0.45826l0.62006 1.41535 -0.01592 0.05943c0.34683 0.09293 1.15659 0.47392 1.54694 1.15003 0.17259 0.29897 0.55484 0.40137 0.85377 0.22877 0.29893 -0.17259 0.40135 -0.55483 0.22876 -0.85377 -0.62049 -1.07472 -1.78943 -1.59399 -2.30577 -1.73239l1.35575 -5.05972c0.12772 -0.47668 0.61769 -0.75957 1.09437 -0.63184 0.47668 0.12773 0.75956 0.61769 0.63184 1.09437l-0.92505 3.45232c-0.06386 0.23834 0.07758 0.48332 0.31591 0.54718 0.23834 0.06386 0.48331 -0.07758 0.54718 -0.31591l1.27194 -4.74697c0.12773 -0.47667 0.61768 -0.75955 1.09435 -0.63182 0.47667 0.12772 0.75954 0.61768 0.63182 1.09434L8.12784 7.02726c-0.06387 0.23834 0.07757 0.48331 0.31591 0.54718 0.23833 0.06386 0.48331 -0.07758 0.54717 -0.31592l0.68194 -2.54504c0.13379 -0.4993 0.64974 -0.79304 1.14744 -0.65321 0.4891 0.13745 0.7768 0.64276 0.6453 1.13358L9.50447 12.5129c-0.13211 0.493 -0.45466 0.9134 -0.89669 1.1686 -0.39324 0.2061 -0.84527 0.271 -1.28061 0.1839l-3.6399 -0.728c-0.44539 -0.0891 -0.84827 -0.3243 -1.14473 -0.6684ZM12.1558 1.82428c0.3344 -0.24449 0.8036 -0.17164 1.0481 0.16272 0.3932 0.53764 0.6429 1.19036 0.6889 1.90242 0.0268 0.41335 -0.2867 0.77011 -0.7 0.79684 -0.4134 0.02674 -0.7701 -0.28668 -0.7968 -0.70003 -0.0271 -0.41901 -0.1732 -0.79967 -0.4029 -1.11385 -0.2445 -0.33436 -0.1716 -0.80361 0.1627 -1.0481Z" clip-rule="evenodd" stroke-width="1"></path>
  </g>
</svg>