<svg xmlns="http://www.w3.org/2000/svg" fill="none" viewBox="0 0 14 14" id="Wrench--Streamline-Core">
  <desc>
    Wrench Streamline Icon: https://streamlinehq.com
  </desc>
  <g id="wrench--crescent-tool-construction-tools-wrench-setting-edit-adjust">
    <path id="Union" fill="#000000" fill-rule="evenodd" d="M10.4774 0.0859642C9.68774 -0.0715067 8.86974 -0.00410062 8.11653 0.280508c-0.75322 0.284609 -1.41139 0.774982 -1.89959 1.415302 -0.48819 0.64031 -0.78679 1.40483 -0.86181 2.20652 -0.05924 0.6332 0.02287 1.26948 0.23784 1.86361L0.46104 10.8979c-0.594253 0.5942 -0.584399 1.5607 0.021849 2.1427l0.560781 0.5383c0.58672 0.5633 1.51544 0.5564 2.09368 -0.0156l5.20267 -5.14635c0.57427 0.18604 1.18333 0.25003 1.78768 0.18523 0.7927 -0.08498 1.5464 -0.38816 2.177 -0.87584 0.6307 -0.48768 1.1138 -1.14073 1.3956 -1.88655 0.2815 -0.7452 0.3509 -1.55382 0.2006 -2.33609 -0.0321 -0.17303 -0.1002 -0.3374 -0.1998 -0.48253 -0.1 -0.14567 -0.2295 -0.26868 -0.3801 -0.36106 -0.1971 -0.12093 -0.4514 -0.09088 -0.615 0.07265l-2 2 0 -0.00006 -0.0064 0.00662c-0.0466 0.04839 -0.1026 0.08688 -0.1644 0.11317 -0.0619 0.0263 -0.1284 0.03984 -0.1956 0.03984 -0.0672 0 -0.1337 -0.01354 -0.1956 -0.03984 -0.0618 -0.02629 -0.1178 -0.06478 -0.1644 -0.11317 -0.00855 -0.00887 -0.01743 -0.01742 -0.02661 -0.02563l-0.74569 -0.6672c-0.08574 -0.09235 -0.13356 -0.21384 -0.13356 -0.34018 0 -0.13018 0.05077 -0.2552 0.14148 -0.34851l1.99798 -1.99794c0.1442 -0.14425 0.1864 -0.361683 0.1064 -0.549392 -0.0723 -0.169875 -0.181 -0.321781 -0.3185 -0.444972 -0.1376 -0.12319 -0.3005 -0.214656 -0.4772 -0.2679237 -0.0153 -0.0046097 -0.0309 -0.0084835 -0.0465 -0.0116081Z" clip-rule="evenodd" stroke-width="1"></path>
  </g>
</svg>