<svg xmlns="http://www.w3.org/2000/svg" fill="none" viewBox="0 0 14 14"><g id="battery-charging--phone-mobile-charge-device-electricity-power-battery-charging"><path id="Subtract" fill="#3e3e3e" fill-rule="evenodd" d="M13.354 5.146a.5.5 0 0 1 .146.354v3a.5.5 0 0 1-.5.5h-.5v1.5a1 1 0 0 1-1 1h-10a1 1 0 0 1-1-1v-7a1 1 0 0 1 1-1h10a1 1 0 0 1 1 1V5h.5a.5.5 0 0 1 .354.146Zm-5.862.009a.625.625 0 1 0-1.005-.744L4.83 6.651a.625.625 0 0 0 .503.997h1.106L5.771 8.85a.625.625 0 1 0 1.093.607l1.182-2.13a.625.625 0 0 0-.546-.93h-.928l.92-1.242Z" clip-rule="evenodd"></path></g></svg>