<svg xmlns="http://www.w3.org/2000/svg" fill="none" viewBox="0 0 14 14" id="Bluetooth-Disabled--Streamline-Core">
  <desc>
    Bluetooth Disabled Streamline Icon: https://streamlinehq.com
  </desc>
  <g id="bluetooth-disabled--bluetooth-internet-server-network-wireless-disabled-off-connection">
    <path id="Subtract" fill="#000000" fill-rule="evenodd" d="M0.218937 0.218999c-0.2928925 0.292893 -0.2928925 0.767767 0 1.060661l0.178099 0.1781c0.017688 0.0142 0.034783 0.02951 0.051192 0.04592L12.7761 13.8316c0.2946 0.2412 0.7299 0.2243 1.0049 -0.0506 0.2928 -0.2929 0.2928 -0.7678 0 -1.0606l-2.7312 -2.73117c0.0119 -0.0589 0.0168 -0.11958 0.0142 -0.18083 -0.0098 -0.22735 -0.1223 -0.43796 -0.3058 -0.57253L9.02669 7.96609 7.91119 6.8506l2.84701 -2.08781c0.1835 -0.13458 0.296 -0.34519 0.3058 -0.57254 0.0098 -0.22735 -0.0842 -0.44685 -0.2554 -0.5967L7.0201 0.278646C6.79863 0.0848596 6.48429 0.0385015 6.21631 0.160104c-0.26798 0.121602 -0.44009 0.388692 -0.44009 0.682975V4.71562L1.2796 0.218999c-0.292896 -0.2928937 -0.76777 -0.2928937 -1.060663 0ZM9.08767 11.9109l-1.06301 -1.063 -0.74844 0.6549v-1.4034l-1.5 -1.49996v4.55616c0 0.2943 0.17211 0.5614 0.44009 0.683 0.26798 0.1216 0.58232 0.0752 0.80379 -0.1186l2.06757 -1.8091ZM5.67053 8.49375 4.59739 7.42061 2.7678 8.76231c-0.33403 0.24495 -0.40624 0.71431 -0.16129 1.04833 0.24496 0.33406 0.71431 0.40626 1.04833 0.16128l2.01569 -1.47817Zm1.60569 -3.03762V2.4959l1.84056 1.61049 -1.84056 1.34974Z" clip-rule="evenodd" stroke-width="1"></path>
  </g>
</svg>