<svg xmlns="http://www.w3.org/2000/svg" fill="none" viewBox="0 0 14 14" id="Bluetooth--Streamline-Core">
  <desc>
    Bluetooth Streamline Icon: https://streamlinehq.com
  </desc>
  <g id="bluetooth--bluetooth-internet-server-network-wireless-connection">
    <path id="Vector (Stroke)" fill="#000000" fill-rule="evenodd" d="M6.27167 0.141684c0.33555 -0.1705452 0.73844 -0.13822519 1.04251 0.08363L11.7177 3.43824c0.2697 0.19674 0.4234 0.51505 0.4098 0.84857 -0.0136 0.33352 -0.1927 0.63826 -0.4775 0.81239L8.54154 7 11.65 8.90079c0.2848 0.17414 0.4639 0.47888 0.4775 0.8124 0.0136 0.33351 -0.1401 0.65181 -0.4098 0.84861l-4.40352 3.2129c-0.30407 0.2218 -0.70696 0.2542 -1.04251 0.0836 -0.33555 -0.1705 -0.5469 -0.515 -0.5469 -0.8914V8.72244L3.39335 10.1481c-0.47117 0.2881 -1.0867 0.1397 -1.37482 -0.33147 -0.28812 -0.47117 -0.13973 -1.0867 0.33145 -1.37482L4.70783 7 2.34998 5.55819c-0.47118 -0.28812 -0.61957 -0.90365 -0.33145 -1.37482 0.28812 -0.47118 0.90365 -0.61957 1.37482 -0.33145l2.33142 1.42564V1.03315c0 -0.376404 0.21135 -0.720921 0.5469 -0.891466ZM7.72476 8.84484l1.60652 0.98237 -1.60652 1.17219V8.84484Zm0 -3.68968V3.00065l1.60652 1.17214 -1.60652 0.98237Z" clip-rule="evenodd" stroke-width="1"></path>
  </g>
</svg>