<svg xmlns="http://www.w3.org/2000/svg" fill="none" viewBox="0 0 14 14"><g id="bluetooth-disabled--bluetooth-internet-server-network-wireless-disabled-off-connection"><path id="Subtract" fill="#3e3e3e" fill-rule="evenodd" d="M.219.219a.75.75 0 0 0 0 1.06l.178.179c.018.014.035.03.051.046l12.328 12.328a.75.75 0 0 0 1.005-1.112L11.05 9.99a.752.752 0 0 0-.292-.754l-1.731-1.27L7.91 6.851l2.847-2.088a.75.75 0 0 0 .05-1.17L7.02.28a.75.75 0 0 0-1.244.564v3.873L1.28.219a.75.75 0 0 0-1.061 0Zm8.869 11.692-1.063-1.063-.749.655v-1.404l-1.5-1.5v4.557a.75.75 0 0 0 1.244.564l2.068-1.81ZM5.67 8.494 4.597 7.42l-1.83 1.341a.75.75 0 1 0 .888 1.21L5.67 8.494Zm1.605-3.038v-2.96l1.84 1.61-1.84 1.35Z" clip-rule="evenodd"></path></g></svg>