<svg xmlns="http://www.w3.org/2000/svg" fill="none" viewBox="0 0 14 14" id="Controller-1--Streamline-Core">
  <desc>
    Controller 1 Streamline Icon: https://streamlinehq.com
  </desc>
  <g id="controller-1--remote-quadcopter-drones-flying-drone-control-controller-technology-fly">
    <path id="Subtract" fill="#000000" fill-rule="evenodd" d="M1.20347 5.1687 0.784391 8.94037C0.632675 10.3058 1.70152 11.5 3.07537 11.5c0.8731 0 1.67126 -0.4933 2.06173 -1.2742L5.49999 9.5h3l0.36289 0.7258c0.39046 0.7809 1.18862 1.2742 2.06172 1.2742 1.3739 0 2.4427 -1.1942 2.291 -2.55963l-0.4191 -3.77166C12.6277 3.64941 11.3435 2.5 9.81486 2.5H4.18512c-1.52865 0 -2.81284 1.14941 -2.98165 2.6687ZM4.375 4.375c0.34518 0 0.625 0.27982 0.625 0.625v0.54175h0.54175c0.34518 0 0.625 0.27982 0.625 0.625s-0.27982 0.625 -0.625 0.625H5v0.54158c0 0.34518 -0.27982 0.625 -0.625 0.625 -0.34517 0 -0.625 -0.27982 -0.625 -0.625v-0.54158h-0.54158c-0.34518 0 -0.625 -0.27982 -0.625 -0.625s0.27982 -0.625 0.625 -0.625H3.75V5c0 -0.34518 0.27983 -0.625 0.625 -0.625Zm4.89063 3.04175c0.34518 0 0.625 -0.27982 0.625 -0.625s-0.27982 -0.625 -0.625 -0.625 -0.625 0.27982 -0.625 0.625 0.27982 0.625 0.625 0.625Zm1.87497 -2.17456c0 0.34518 -0.2798 0.625 -0.625 0.625 -0.3451 0 -0.62497 -0.27982 -0.62497 -0.625s0.27987 -0.625 0.62497 -0.625c0.3452 0 0.625 0.27982 0.625 0.625Z" clip-rule="evenodd" stroke-width="1"></path>
  </g>
</svg>