<svg xmlns="http://www.w3.org/2000/svg" fill="none" viewBox="0 0 14 14" id="Database-Server-1--Streamline-Core">
  <desc>
    Database Server 1 Streamline Icon: https://streamlinehq.com
  </desc>
  <g id="database-server-1--server-network-internet">
    <path id="Subtract" fill="#000000" fill-rule="evenodd" d="M1.50003 0.407196c-0.828426 0 -1.4999976347 0.671574 -1.5000003765 1.499994v0.00001L0 4.83177c0 0.82843 0.671573 1.5 1.5 1.5h11c0.8284 0 1.5 -0.67157 1.5 -1.49999l0 -2.92458c0 -0.82843 -0.6715 -1.500004 -1.5 -1.500004H1.50003ZM0.0000296235 9.16822C0.0000323653 8.3398 0.671604 7.66823 1.50003 7.66823H12.5c0.8285 0 1.5 0.67157 1.5 1.5l0 2.92457c0 0.8284 -0.6716 1.5 -1.5 1.5h-11c-0.828427 0 -1.5 -0.6716 -1.5 -1.5l0.0000296235 -2.92458ZM2.04645 3.36949c0 -0.62132 0.50368 -1.125 1.125 -1.125s1.125 0.50368 1.125 1.125 -0.50368 1.125 -1.125 1.125 -1.125 -0.50368 -1.125 -1.125Zm0 7.26101c0 -0.6213 0.50368 -1.12498 1.125 -1.12498s1.125 0.50368 1.125 1.12498c0 0.6213 -0.50368 1.125 -1.125 1.125s-1.125 -0.5037 -1.125 -1.125ZM6.875 3.36949c0 -0.34518 0.27982 -0.625 0.625 -0.625H11c0.3452 0 0.625 0.27982 0.625 0.625s-0.2798 0.625 -0.625 0.625H7.5c-0.34518 0 -0.625 -0.27982 -0.625 -0.625ZM7.5 10.0055c-0.34518 0 -0.625 0.2798 -0.625 0.625s0.27982 0.625 0.625 0.625H11c0.3452 0 0.625 -0.2798 0.625 -0.625s-0.2798 -0.625 -0.625 -0.625H7.5Z" clip-rule="evenodd" stroke-width="1"></path>
  </g>
</svg>