<svg xmlns="http://www.w3.org/2000/svg" fill="none" viewBox="0 0 14 14"><g id="desktop-emoji--device-display-desktop-padlock-smiley"><path id="Subtract" fill="#3e3e3e" fill-rule="evenodd" d="M1.457.252C.652.252 0 .905 0 1.71v7.587c0 .804.652 1.456 1.457 1.456h4.026l-.535 1.496H4a.75.75 0 0 0 0 1.5h6a.75.75 0 0 0 0-1.5h-.948l-.535-1.496h4.026c.805 0 1.457-.652 1.457-1.456V1.709c0-.804-.652-1.457-1.457-1.457H1.457Zm3.545 6.134a.625.625 0 0 0-.89.876C4.705 7.867 5.707 8.377 7 8.377c1.292 0 2.294-.51 2.889-1.115a.625.625 0 1 0-.891-.876c-.359.364-1.04.741-1.998.741-.959 0-1.64-.377-1.998-.741Zm1.014-2.383a.766.766 0 1 1-1.531 0 .766.766 0 0 1 1.53 0Zm2.734.765a.766.766 0 1 0 0-1.531.766.766 0 0 0 0 1.531Z" clip-rule="evenodd"></path></g></svg>