<svg xmlns="http://www.w3.org/2000/svg" fill="none" viewBox="0 0 14 14"><g id="discord"><path id="Subtract" fill="#3e3e3e" fill-rule="evenodd" d="M2.226 2.768c-.425.697-.868 1.86-1.213 3.204-.35 1.366-.586 2.869-.604 4.17.338.417 1.259 1.219 2.78 1.595l1.088-1.36c-.526-.19-.968-.433-1.246-.711a.5.5 0 0 1 .707-.707c.205.204.729.478 1.502.66l.007.002a7.129 7.129 0 0 0 3.23 0h.006c.774-.184 1.298-.458 1.502-.662a.5.5 0 1 1 .708.707c-.278.278-.72.521-1.246.71l1.088 1.36c1.521-.375 2.442-1.177 2.78-1.593-.018-1.302-.254-2.805-.604-4.171-.345-1.345-.788-2.507-1.213-3.204l-.03-.009a5.925 5.925 0 0 0-.714-.156c-.711-.119-1.925-.242-3.892-.242-1.967 0-3.18.123-3.892.242-.355.06-.582.117-.714.156l-.03.01Zm-.331-.41a30.645 30.645 0 0 1-.223-.448h.002l.003-.002.008-.004.02-.009.059-.024c.048-.019.115-.043.204-.07.179-.053.448-.12.838-.185.78-.13 2.05-.255 4.056-.255 2.006 0 3.277.126 4.056.255.39.065.66.132.838.186a2.751 2.751 0 0 1 .263.093l.02.01.008.003.003.001.001.001h.001l-.223.448M4.407 7.077a1 1 0 1 0 0-2 1 1 0 0 0 0 2Zm5.91-1a1 1 0 1 1-2 0 1 1 0 0 1 2 0Z" clip-rule="evenodd"></path></g></svg>