<svg xmlns="http://www.w3.org/2000/svg" fill="none" viewBox="0 0 14 14"><g id="drone--artificial-robotics-intelligence-machine-technology-android-flying"><path id="Union" fill="#3e3e3e" fill-rule="evenodd" d="M.034.79a.75.75 0 0 1 .75-.75H4.61a.75.75 0 0 1 0 1.5H3.447V3.5h7.106V1.54H9.391a.75.75 0 0 1 0-1.5h3.825a.75.75 0 0 1 0 1.5h-1.163V3.5H13.5a.5.5 0 0 1 .5.5v1a2.5 2.5 0 0 1-2.44 2.5.632.632 0 0 0-.06-.004h-9l-.06.003A2.5 2.5 0 0 1 0 5V4a.5.5 0 0 1 .5-.5h1.447V1.54H.784a.75.75 0 0 1-.75-.75Zm3.197 7.956h7.622c.55.585.794 1.38.9 2.063a7.69 7.69 0 0 1-.013 2.314.75.75 0 0 1-.74.627h-1a.75.75 0 0 1 0-1.5h.326a5.98 5.98 0 0 0-.055-1.21 3.388 3.388 0 0 0-.2-.76 1.617 1.617 0 0 1-.096.105A3.5 3.5 0 0 1 7.5 11.41h-1a3.5 3.5 0 0 1-2.512-1.063 3.5 3.5 0 0 0-.175.694c-.064.412-.073.84-.054 1.209h.326a.75.75 0 0 1 0 1.5h-1a.75.75 0 0 1-.74-.627 7.691 7.691 0 0 1-.014-2.313c.106-.683.35-1.48.9-2.064Z" clip-rule="evenodd"></path></g></svg>