<svg xmlns="http://www.w3.org/2000/svg" fill="none" viewBox="0 0 14 14" id="Laptop-Charging--Streamline-Core">
  <desc>
    Laptop Charging Streamline Icon: https://streamlinehq.com
  </desc>
  <g id="laptop-charging--device-laptop-electronics-computer-notebook-charging">
    <path id="Union" fill="#000000" fill-rule="evenodd" d="M12.0821 1.16599c0.2298 -0.344642 0.1367 -0.810294 -0.208 -1.040058 -0.3446 -0.229765 -0.8103 -0.1366342 -1.04 0.208012L9.00072 3.08394c-0.15343 0.23015 -0.16773 0.52605 -0.03722 0.76992 0.13051 0.24387 0.38466 0.39611 0.66126 0.39611h1.34864L9.91739 5.83394c-0.22977 0.34465 -0.13664 0.8103 0.20801 1.04007 0.3446 0.22976 0.8103 0.13663 1.0401 -0.20802l1.8333 -2.75c0.1534 -0.23014 0.1677 -0.52605 0.0372 -0.76991 -0.1305 -0.24387 -0.3846 -0.39611 -0.6612 -0.39611h-1.3487l1.056 -1.58398ZM6.99633 3.04233c0.41421 0 0.75 0.33578 0.75 0.75 0 0.41421 -0.33579 0.75 -0.75 0.75h-3.2973c-0.13807 0 -0.25 0.11193 -0.25 0.25v3.95764h7.09457v-0.25c0 -0.41421 0.3358 -0.75 0.75 -0.75s0.75 0.33579 0.75 0.75v0.8939l1.6541 2.20633c0.7414 0.9889 0.0358 2.3998 -1.2001 2.3998H1.50248C0.266541 14 -0.439068 12.5891 0.30231 11.6002l1.64672 -2.19649V4.79233c0 -0.9665 0.7835 -1.75 1.75 -1.75h3.2973Z" clip-rule="evenodd" stroke-width="1"></path>
  </g>
</svg>