<svg xmlns="http://www.w3.org/2000/svg" fill="none" viewBox="0 0 14 14" id="Meta--Streamline-Core">
  <desc>
    Meta Streamline Icon: https://streamlinehq.com
  </desc>
  <g id="meta">
    <path id="Vector 878 (Stroke)" fill="#000000" d="M10.4286 2.57141c1.4312 0 2.3349 1.07667 2.823 2.05278C13.7574 5.63586 14 6.86326 14 7.85712c0 1.98096 -1.0571 3.57138 -2.7143 3.57138 -0.5414 0 -1.0066 -0.2167 -1.37594 -0.4729 -0.36871 -0.2557 -0.70463 -0.5939 -1.00775 -0.9444 -0.46082 -0.53305 -0.93858 -1.2083 -1.40261 -1.86415l-0.00002 -0.00003 -0.00009 -0.00013c-0.13495 -0.19073 -0.26873 -0.37981 -0.40059 -0.56327 -0.61404 -0.85432 -1.21614 -1.63257 -1.84464 -2.19645 -0.6289 -0.56425 -1.17597 -0.81576 -1.68263 -0.81576 -0.28307 0 -0.66506 0.20904 -1.03415 0.94721C2.18598 6.22124 2 7.1367 2 7.85712c0 1.44762 0.65715 1.57143 0.71429 1.57143 0.08844 0 0.20474 -0.02499 0.63169 -0.46364 0.20287 -0.20844 0.53544 -0.62877 0.85663 -1.05362 0.32637 -0.43169 0.9333 -0.54116 1.38186 -0.23838 0.46727 0.31541 0.58305 0.95514 0.24347 1.40516 -0.36788 0.4875 -0.77019 0.99563 -1.04876 1.28183 -0.48733 0.5007 -1.18549 1.0687 -2.06489 1.0687C1.05714 11.4286 0 9.83807 0 7.85712c0 -0.99386 0.242596 -2.22126 0.74843 -3.23292 0.48806 -0.97612 1.39178 -2.05279 2.823 -2.05279 1.20762 0 2.21412 0.60563 3.01826 1.3271 0.80454 0.72183 1.51494 1.65787 2.13304 2.51783 0.15728 0.21883 0.30758 0.43112 0.45242 0.63569l0.00002 0.00003c0.45079 0.63668 0.84873 1.1987 1.23983 1.65103 0.2526 0.29227 0.4625 0.48979 0.6345 0.60908 0.083 0.05754 0.1442 0.08767 0.1845 0.10277 0.0196 0.00731 0.033 0.01065 0.0409 0.01217 0.0039 0.00077 0.0083 0.00128 0.0083 0.00128l0.0025 0.00016c0.0572 0 0.7143 -0.12381 0.7143 -1.57143 0 -0.72042 -0.186 -1.63588 -0.5373 -2.3385 -0.3691 -0.73817 -0.7511 -0.94721 -1.0341 -0.94721 -0.2924 0.01916 -0.54925 0.07193 -0.78229 0.14391 -0.55792 0.17233 -1.17418 -0.10204 -1.27745 -0.67676 -0.06606 -0.36766 0.10294 -0.74828 0.41534 -0.9531 0.37613 -0.24661 0.82248 -0.48538 1.6444 -0.51405Z" stroke-width="1"></path>
  </g>
</svg>