<svg xmlns="http://www.w3.org/2000/svg" fill="none" viewBox="0 0 14 14"><g id="mouse--device-electronics-mouse"><path id="Subtract" fill="#3e3e3e" fill-rule="evenodd" d="M5.659 1.94A1.5 1.5 0 0 1 8.219 3v.25a2.75 2.75 0 0 0 5.5 0v-1.5a.75.75 0 0 0-1.5 0v1.5a1.25 1.25 0 0 1-2.5 0V3a3 3 0 0 0-5.93-.64 4.758 4.758 0 0 1 1.559.033 1.5 1.5 0 0 1 .31-.454Zm2.28 5.09A3.47 3.47 0 0 0 1 7.03v3.47a3.47 3.47 0 1 0 6.939 0V7.03ZM5.094 5.97a.625.625 0 1 0-1.25 0v1a.625.625 0 1 0 1.25 0v-1Z" clip-rule="evenodd"></path></g></svg>