<svg xmlns="http://www.w3.org/2000/svg" fill="none" viewBox="0 0 14 14" id="Mouse-Wireless-1--Streamline-Core">
  <desc>
    Mouse Wireless 1 Streamline Icon: https://streamlinehq.com
  </desc>
  <g id="mouse-wireless-1--remote-wireless-device-electronics-mouse-computer">
    <path id="Subtract" fill="#000000" fill-rule="evenodd" d="M7.00004 0.0776062c-1.28577 0 -2.5585 0.2576148 -3.74306 0.7576348 -0.318 0.134236 -0.46698 0.500849 -0.33274 0.818859 0.13423 0.31801 0.50085 0.46698 0.81886 0.33275 1.03071 -0.43509 2.13816 -0.65924 3.25694 -0.65924s2.22623 0.22415 3.25696 0.65924c0.318 0.13423 0.6846 -0.01474 0.8188 -0.33275 0.1343 -0.31801 -0.0147 -0.684623 -0.3327 -0.818859C9.55854 0.335221 8.28581 0.0776062 7.00004 0.0776062Zm-3.5 8.3447838c0 -1.93299 1.567 -3.5 3.5 -3.5S10.5 6.4894 10.5 8.42239v2.00001c0 1.933 -1.56696 3.5 -3.49996 3.5 -1.933 0 -3.5 -1.567 -3.5 -3.5V8.42239Zm1.13913 -5.50357c1.54401 -0.52429 3.2179 -0.52429 4.76192 0 0.32684 0.11099 0.50184 0.46593 0.39085 0.79277 -0.11099 0.32685 -0.46592 0.50184 -0.79277 0.39086 -1.28338 -0.43579 -2.67471 -0.43579 -3.95808 0 -0.32685 0.11098 -0.68179 -0.06401 -0.79277 -0.39086 -0.11099 -0.32684 0.064 -0.68178 0.39085 -0.79277Zm3.11095 4.50357c0 -0.41421 -0.33578 -0.75 -0.75 -0.75 -0.41421 0 -0.75 0.33579 -0.75 0.75v1c0 0.41422 0.33579 0.75 0.75 0.75 0.41422 0 0.75 -0.33578 0.75 -0.75v-1Z" clip-rule="evenodd" stroke-width="1"></path>
  </g>
</svg>