<svg xmlns="http://www.w3.org/2000/svg" fill="none" viewBox="0 0 14 14" id="Screensaver-Monitor-Wallpaper--Streamline-Core">
  <desc>
    Screensaver Monitor Wallpaper Streamline Icon: https://streamlinehq.com
  </desc>
  <g id="screensaver-monitor-wallpaper">
    <path id="Union" fill="#000000" fill-rule="evenodd" d="M2 2.24988v6.50001h2.17811l3.99821 -3.74497c0.00708 -0.00663 0.01435 -0.01306 0.02181 -0.01927 0.17968 -0.14966 0.40614 -0.23162 0.64 -0.23162 0.22691 0 0.44686 0.07716 0.62387 0.21848L12 6.79773V2.24988H2Zm-2 -0.54321C0 0.902107 0.652229 0.249878 1.45679 0.249878H12.5432C13.3478 0.249878 14 0.902107 14 1.70667v7.58642c0 0.80461 -0.6522 1.45681 -1.4568 1.45681H8.51522l0.53693 1.5002H10c0.4142 0 0.75 0.3358 0.75 0.75s-0.3358 0.75 -0.75 0.75H4c-0.41421 0 -0.75 -0.3358 -0.75 -0.75s0.33579 -0.75 0.75 -0.75h0.94788l0.53693 -1.5002H1.45679C0.65223 10.7499 0 10.0977 0 9.29309V1.70667Zm5.96875 2.68408c0 0.75076 -0.60861 1.35937 -1.35937 1.35937 -0.75077 0 -1.35938 -0.60861 -1.35938 -1.35937s0.60861 -1.35938 1.35938 -1.35938c0.75076 0 1.35937 0.60862 1.35937 1.35938Z" clip-rule="evenodd" stroke-width="1"></path>
  </g>
</svg>