<svg xmlns="http://www.w3.org/2000/svg" fill="none" viewBox="0 0 14 14" id="Tiktok--Streamline-Core">
  <desc>
    Tiktok Streamline Icon: https://streamlinehq.com
  </desc>
  <g id="tiktok">
    <path id="Union" fill="#000000" d="M9.42188 1.14062c0 -0.55228 -0.44772 -0.999995 -1 -0.999995 -0.55229 0 -1 0.447715 -1 0.999995V9.7207c0 1.0452 -0.84734 1.8926 -1.89258 1.8926s-1.89258 -0.8474 -1.89258 -1.8926c0 -1.04524 0.84733 -1.89258 1.89258 -1.89258 0.55228 0 1 -0.44771 1 -1 0 -0.55228 -0.44772 -1 -1 -1 -2.14981 0 -3.89258 1.74277 -3.89258 3.89258 0 2.1498 1.74277 3.8926 3.89258 3.8926 2.14981 0 3.89258 -1.7428 3.89258 -3.8926V5.28256c0.90272 0.71767 2.04552 1.14642 3.28832 1.14642 0.5523 0 1 -0.44772 1 -1s-0.4477 -1 -1 -1c-1.8161 0 -3.28832 -1.47225 -3.28832 -3.28836Z" stroke-width="1"></path>
  </g>
</svg>