<svg xmlns="http://www.w3.org/2000/svg" fill="none" viewBox="0 0 14 14"><g id="watch-2--device-square-timepiece-electronics-face-blank-watch-smart"><path id="Union" fill="#3e3e3e" fill-rule="evenodd" d="M4.44.44A1.5 1.5 0 0 1 5.5 0h3A1.5 1.5 0 0 1 10 1.5v.25h.5c.966 0 1.75.784 1.75 1.75v7a1.75 1.75 0 0 1-1.75 1.75H10v.25A1.5 1.5 0 0 1 8.5 14h-3A1.5 1.5 0 0 1 4 12.5v-.25h-.5a1.75 1.75 0 0 1-1.75-1.75v-7c0-.966.784-1.75 1.75-1.75H4V1.5c0-.398.158-.78.44-1.06ZM3.25 3.5a.25.25 0 0 1 .25-.25h7a.25.25 0 0 1 .25.25v7a.25.25 0 0 1-.25.25h-7a.25.25 0 0 1-.25-.25v-7Z" clip-rule="evenodd"></path></g></svg>