<svg xmlns="http://www.w3.org/2000/svg" fill="none" viewBox="0 0 14 14" id="Wifi-Antenna--Streamline-Core">
  <desc>
    Wifi Antenna Streamline Icon: https://streamlinehq.com
  </desc>
  <g id="wifi-antenna--wireless-wifi-internet-server-network-antenna-connection">
    <path id="Union" fill="#000000" fill-rule="evenodd" d="M11.63 0.247a0.75 0.75 0 1 0 -0.963 1.15c0.53 0.443 0.976 1.039 1.294 1.746a5.99 5.99 0 0 1 0.513 2.297 5.978 5.978 0 0 1 -0.515 2.298 4.856 4.856 0 0 1 -1.298 1.744 0.75 0.75 0 0 0 0.96 1.153c0.72 -0.6 1.3 -1.383 1.705 -2.28a7.478 7.478 0 0 0 0.648 -2.932 7.49 7.49 0 0 0 -0.645 -2.895A6.37 6.37 0 0 0 11.63 0.247ZM5.35 8.664a0.75 0.75 0 0 1 -1.055 0.101A4.143 4.143 0 0 1 3.18 7.3a4.774 4.774 0 0 1 -0.43 -1.892 4.776 4.776 0 0 1 0.428 -1.851 4.144 4.144 0 0 1 1.116 -1.47 0.75 0.75 0 1 1 0.955 1.156 2.642 2.642 0 0 0 -0.708 0.94 3.273 3.273 0 0 0 -0.291 1.246c0.016 0.44 0.118 0.865 0.292 1.243 0.177 0.384 0.422 0.702 0.706 0.937a0.75 0.75 0 0 1 0.102 1.056Zm3.274 -6.448a0.75 0.75 0 0 1 1.055 -0.101c0.472 0.389 0.85 0.893 1.114 1.466a4.773 4.773 0 0 1 0.43 1.892 4.775 4.775 0 0 1 -0.428 1.851A4.144 4.144 0 0 1 9.68 8.796a0.75 0.75 0 1 1 -0.954 -1.157c0.285 -0.235 0.53 -0.555 0.708 -0.94 0.174 -0.379 0.275 -0.806 0.29 -1.246a3.272 3.272 0 0 0 -0.292 -1.243 2.645 2.645 0 0 0 -0.706 -0.937 0.75 0.75 0 0 1 -0.101 -1.056ZM3.4 10.54a0.75 0.75 0 0 1 -1.057 0.093A6.37 6.37 0 0 1 0.645 8.352 7.492 7.492 0 0 1 0 5.423a7.48 7.48 0 0 1 0.648 -2.898A6.354 6.354 0 0 1 2.354 0.245a0.75 0.75 0 1 1 0.96 1.153 4.856 4.856 0 0 0 -1.298 1.744A5.978 5.978 0 0 0 1.5 5.44a5.99 5.99 0 0 0 0.514 2.297 4.871 4.871 0 0 0 1.293 1.746 0.75 0.75 0 0 1 0.094 1.057ZM7 3.876a1.624 1.624 0 0 0 -0.748 3.065A0.76 0.76 0 0 0 6.25 7v6.149a0.75 0.75 0 0 0 1.5 0V7c0 -0.02 0 -0.04 -0.002 -0.059A1.623 1.623 0 0 0 7 3.876Z" clip-rule="evenodd" stroke-width="1"></path>
  </g>
</svg>