<svg xmlns="http://www.w3.org/2000/svg" fill="none" viewBox="0 0 14 14"><g id="wifi-router--wireless-wifi-internet-server-network-connection"><path id="Union" fill="#3e3e3e" fill-rule="evenodd" d="M4.233 2.753a3.922 3.922 0 0 1 5.534 0 .75.75 0 0 0 1.06-1.06 5.422 5.422 0 0 0-7.655 0 .75.75 0 1 0 1.061 1.06ZM6.95 6.266a.75.75 0 1 0 0-1.5.75.75 0 0 0 0 1.5Zm.995-2.048c-.527-.527-1.46-.527-1.987 0a.75.75 0 1 1-1.06-1.06c1.113-1.114 2.995-1.114 4.108 0a.75.75 0 0 1-1.06 1.06ZM1.99 2.981a.75.75 0 1 0-1.447.395L1.599 7.25h1.554L1.99 2.981Zm11.469.395L12.4 7.25h-1.554l1.164-4.269a.75.75 0 0 1 1.447.395ZM2.427 13.214V12.5H1.5a1 1 0 0 1-1-1v-2a1 1 0 0 1 1-1h11a1 1 0 0 1 1 1v2a1 1 0 0 1-1 1h-.927v.714a.75.75 0 0 1-1.5 0V12.5H3.927v.714a.75.75 0 0 1-1.5 0Zm.25-2.867a.5.5 0 0 1 .5-.5h.478a.5.5 0 1 1 0 1h-.478a.5.5 0 0 1-.5-.5Zm2.89-.5a.5.5 0 1 0 0 1h.477a.5.5 0 1 0 0-1h-.478Z" clip-rule="evenodd"></path></g></svg>