<svg xmlns="http://www.w3.org/2000/svg" fill="none" viewBox="0 0 24 24" id="Graduation-Cap--Streamline-Sharp">
  <desc>
    Graduation Cap Streamline Icon: https://streamlinehq.com
  </desc>
  <g id="graduation-cap--graduation-cap-education">
    <path id="Vector 2724" fill="#ffffff" d="m2 17.763 1.91 -1.909 1.908 1.91v1.43l-1.909 1.91L2 19.194v-1.43Z" stroke-width="1.5"></path>
    <path id="Ellipse 348" fill="#d7e0ff" d="M7.629 15.504 12.954 18l5.334 -2.496 -0.001 -3.912H7.619l0.01 3.912Z" stroke-width="1.5"></path>
    <path id="Rectangle 646" fill="#d7e0ff" d="M12.955 4.88 3.909 8.8v0.625l9.046 3.919L22 9.424V8.8l-9.045 -3.92Z" stroke-width="1.5"></path>
    <path id="Rectangle 645" stroke="#4147d5" d="M12.955 4.88 3.909 8.8v0.625l9.046 3.919L22 9.424V8.8l-9.045 -3.92Z" stroke-width="1.5"></path>
    <path id="Ellipse 346" stroke="#4147d5" d="m7.62 11.592 0.009 3.912L12.954 18l5.334 -2.496 -0.001 -3.912" stroke-width="1.5"></path>
    <path id="Ellipse 347" stroke="#4147d5" stroke-linejoin="round" d="M3.91 15.335V10" stroke-width="1.5"></path>
    <path id="Vector 2723" stroke="#4147d5" d="m2 17.763 1.91 -1.909 1.908 1.91v1.43l-1.909 1.91L2 19.194v-1.43Z" stroke-width="1.5"></path>
  </g>
</svg>