<svg xmlns="http://www.w3.org/2000/svg" viewBox="0 0 14 14">
  <g>
    <path d="M4.52,12.75a.31.31,0,0,0-.07-.18.29.29,0,0,0-.18-.07H1.75a.25.25,0,0,1-.25-.25V1.75a.25.25,0,0,1,.25-.25H7.09a.26.26,0,0,1,.17.07l2.9,2.9a.26.26,0,0,0,.15.07A2.68,2.68,0,0,1,11.6,5a.23.23,0,0,0,.26,0A.23.23,0,0,0,12,4.83V4.5A.75.75,0,0,0,11.78,4L8,.22A.75.75,0,0,0,7.5,0H1.75A1.76,1.76,0,0,0,0,1.75v10.5A1.76,1.76,0,0,0,1.75,14H4.43a.26.26,0,0,0,.2-.1.24.24,0,0,0,0-.23A2.64,2.64,0,0,1,4.52,12.75Z" style="fill: #000001"/>
    <path d="M13.87,12.27l-2.8-5.61a1.2,1.2,0,0,0-2.14,0l-2.8,5.61A1.19,1.19,0,0,0,7.2,14h5.6a1.19,1.19,0,0,0,1.07-1.73Zm-3.12-.77a.75.75,0,0,1-1.5,0V10a.75.75,0,0,1,1.5,0Z" style="fill: #000001"/>
  </g>
</svg>
