<svg xmlns="http://www.w3.org/2000/svg" viewBox="0 0 14 14">
  <g>
    <path d="M4.52,12.75a.31.31,0,0,0-.07-.18.29.29,0,0,0-.18-.07H1.75a.25.25,0,0,1-.25-.25V4.75a.25.25,0,0,1,.25-.25h10.5a.25.25,0,0,1,.25.25V6.11a.2.2,0,0,0,0,.11l1,2a.24.24,0,0,0,.28.13A.25.25,0,0,0,14,8.11V1.25A1.25,1.25,0,0,0,12.75,0H1.25A1.25,1.25,0,0,0,0,1.25v11.5A1.25,1.25,0,0,0,1.25,14H4.43a.26.26,0,0,0,.2-.1.24.24,0,0,0,0-.23A2.64,2.64,0,0,1,4.52,12.75Z" style="fill: #000001"/>
    <path d="M13.87,12.27l-2.8-5.61a1.2,1.2,0,0,0-2.14,0l-2.8,5.61A1.19,1.19,0,0,0,7.2,14h5.6a1.19,1.19,0,0,0,1.07-1.73Zm-3.12-.77a.75.75,0,0,1-1.5,0V10a.75.75,0,0,1,1.5,0Z" style="fill: #000001"/>
  </g>
</svg>
