<svg xmlns="http://www.w3.org/2000/svg" viewBox="0 0 14 14">
  <g>
    <circle cx="6.5" cy="4" r="1.5" style="fill: #000001"/>
    <g>
      <path d="M9.5,14a2,2,0,0,1-2-2V8.75a3.25,3.25,0,0,1,6.5,0v3.5a.75.75,0,0,1-1.5,0V8.75a1.75,1.75,0,0,0-3.5,0V12a.5.5,0,0,0,1,0V9.25a.75.75,0,0,1,1.5,0V12A2,2,0,0,1,9.5,14Z" style="fill: #000001"/>
      <path d="M6,9.25A.25.25,0,0,0,5.75,9H5.68a.24.24,0,0,1-.23-.17A4.52,4.52,0,0,0,1.73,5.51a.25.25,0,0,1-.23-.25V1.71a.22.22,0,0,1,.21-.21H8.79A.22.22,0,0,1,9,1.71V4a.26.26,0,0,0,.1.2.25.25,0,0,0,.22,0A5.16,5.16,0,0,1,10.27,4a.25.25,0,0,0,.23-.25V1.07A1.07,1.07,0,0,0,9.43,0H1.07A1.07,1.07,0,0,0,0,1.07V9.43A1.07,1.07,0,0,0,1.07,10.5H5.75A.25.25,0,0,0,6,10.25Z" style="fill: #000001"/>
    </g>
  </g>
</svg>
