<svg xmlns="http://www.w3.org/2000/svg" viewBox="0 0 14 14">
  <path d="M11.75,1.25H2.25A2.25,2.25,0,0,0,0,3.5v7a2.25,2.25,0,0,0,2.25,2.25h9.5A2.25,2.25,0,0,0,14,10.5v-7A2.25,2.25,0,0,0,11.75,1.25Zm-9.5,1.5h9.5a.76.76,0,0,1,.75.75v.16a.25.25,0,0,1-.13.22L7.61,6.55a1.26,1.26,0,0,1-1.22,0L1.63,3.88a.25.25,0,0,1-.13-.22V3.5A.76.76,0,0,1,2.25,2.75Zm9.5,8.5H2.25a.76.76,0,0,1-.75-.75V6a.27.27,0,0,1,.12-.22.25.25,0,0,1,.25,0L5.66,7.86a2.74,2.74,0,0,0,2.68,0l3.79-2.12a.25.25,0,0,1,.25,0A.27.27,0,0,1,12.5,6V10.5A.76.76,0,0,1,11.75,11.25Z" style="fill: #000001"/>
</svg>
