<svg xmlns="http://www.w3.org/2000/svg" viewBox="0 0 14 14">
  <g>
    <circle cx="6.75" cy="3.75" r="1.25" style="fill: #000001"/>
    <g>
      <path d="M9.5,14a2,2,0,0,1-2-2V8.75a3.25,3.25,0,0,1,6.5,0v3.5a.75.75,0,0,1-1.5,0V8.75a1.75,1.75,0,0,0-3.5,0V12a.5.5,0,0,0,1,0V9.25a.75.75,0,0,1,1.5,0V12A2,2,0,0,1,9.5,14Z" style="fill: #000001"/>
      <path d="M6,8.75a4.37,4.37,0,0,1,.18-1.21.26.26,0,0,0-.06-.24L4.29,5.35a1.13,1.13,0,0,0-1.55-.06L1.91,6a.23.23,0,0,1-.26,0,.25.25,0,0,1-.15-.23V1.75a.25.25,0,0,1,.25-.25h7A.25.25,0,0,1,9,1.75V4a.26.26,0,0,0,.1.2.25.25,0,0,0,.22,0A5.16,5.16,0,0,1,10.27,4a.25.25,0,0,0,.23-.25V1.25A1.25,1.25,0,0,0,9.25,0h-8A1.25,1.25,0,0,0,0,1.25v8A1.25,1.25,0,0,0,1.25,10.5h4.5A.25.25,0,0,0,6,10.25Z" style="fill: #000001"/>
    </g>
  </g>
</svg>
