<svg xmlns="http://www.w3.org/2000/svg" fill="none" viewBox="0 0 14 14" id="Battery-Medium-1--Streamline-Flex-Neon">
  <desc>
    Battery Medium 1 Streamline Icon: https://streamlinehq.com
  </desc>
  <g id="battery-medium-1--phone-mobile-charge-medium-device-electricity-power-battery">
    <path id="Union" stroke="#c71dff" stroke-linecap="round" stroke-linejoin="round" d="M2.5953 11.7601c-0.95969 -0.0967 -1.737811 -0.8509 -1.859843 -1.80767C0.613423 8.99562 0.5 8.00874 0.5 7c0 -1.00874 0.113423 -1.99562 0.235457 -2.95243 0.122032 -0.9568 0.900153 -1.71092 1.859843 -1.80764C3.77653 2.12088 4.99869 2 6.25 2c1.25131 0 2.47347 0.12088 3.6547 0.23993 0.9597 0.09672 1.7378 0.85084 1.8598 1.80764 0.0106 0.08313 0.0212 0.16648 0.0316 0.25005 0.1685 0.01497 0.3353 0.03306 0.5004 0.05233 0.2838 0.03484 0.5485 0.17322 0.7507 0.39258 0.2022 0.21935 0.3302 0.50674 0.3629 0.8153 0.0484 0.46902 0.0896 0.95077 0.0896 1.44217 0 0.4914 -0.0416 0.97271 -0.0892 1.44217 -0.0327 0.30856 -0.1607 0.59595 -0.3629 0.8153 -0.2022 0.21936 -0.4669 0.35774 -0.7507 0.39258 -0.1653 0.01926 -0.3323 0.03735 -0.5008 0.05231 -0.0104 0.08358 -0.021 0.16694 -0.0316 0.25007 -0.122 0.95677 -0.9001 1.71097 -1.8598 1.80767C8.72347 11.8791 7.50131 12 6.25 12c-1.25131 0 -2.47347 -0.1209 -3.6547 -0.2399Z" stroke-width="1"></path>
    <path id="Vector" stroke="#000cfe" stroke-linecap="round" stroke-linejoin="round" d="m6.44531 4.8501 0 4.3" stroke-width="1"></path>
    <path id="Vector_2" stroke="#000cfe" stroke-linecap="round" stroke-linejoin="round" d="m3.69336 4.8501 0 4.3" stroke-width="1"></path>
  </g>
</svg>