<svg xmlns="http://www.w3.org/2000/svg" fill="none" viewBox="0 0 14 14" id="Charging--Streamline-Flex-Neon">
  <desc>
    Charging Streamline Icon: https://streamlinehq.com
  </desc>
  <g id="charging--phone-mobile-charge-device-electricity-power-battery-charging">
    <path id="Vector" stroke="#c71dff" stroke-linecap="round" stroke-linejoin="round" d="M0.622613 8.56C0.541277 8.07292 0.5 7.55251 0.5 7 0.5 2.84 2.84 0.5 7 0.5s6.5 2.34 6.5 6.5c0 0.55251 -0.0413 1.07292 -0.1226 1.56" stroke-width="1"></path>
    <path id="Vector_2" stroke="#c71dff" stroke-linecap="round" stroke-linejoin="round" d="M12.7722 10.4697c-0.3888 0.7717 -0.9293 1.4042 -1.612 1.8881" stroke-width="1"></path>
    <path id="Vector_3" stroke="#c71dff" stroke-linecap="round" stroke-linejoin="round" d="M1.22852 10.4697c0.38879 0.7717 0.92935 1.4042 1.61207 1.8881" stroke-width="1"></path>
    <path id="Vector_4" stroke="#c71dff" stroke-linecap="round" stroke-linejoin="round" d="M5.44043 13.377c0.48708 0.0813 1.00749 0.1226 1.56 0.1226 0.55251 0 1.07291 -0.0413 1.56 -0.1226" stroke-width="1"></path>
    <path id="Vector_5" stroke="#000cfe" stroke-linecap="round" stroke-linejoin="round" d="M6.04528 10.3713V7.37926H4.24371c-0.40302 0 -0.63962 -0.45199 -0.4042 -0.77911 1.00917 -1.4023 2.04477 -2.65478 3.3218 -3.80347 0.31198 -0.28063 0.79436 -0.05226 0.79436 0.36737v2.99202h1.80157c0.40306 0 0.63966 0.45199 0.40416 0.77911 -1.00912 1.4023 -2.04473 2.65477 -3.32175 3.80352 -0.31198 0.2806 -0.79437 0.0522 -0.79437 -0.3674Z" stroke-width="1"></path>
  </g>
</svg>