<svg xmlns="http://www.w3.org/2000/svg" fill="none" viewBox="0 0 14 14" id="Desktop-Lock--Streamline-Flex-Neon">
  <desc>
    Desktop Lock Streamline Icon: https://streamlinehq.com
  </desc>
  <g id="desktop-lock--device-secure-display-computer-lock-desktop-padlock-security">
    <path id="Vector 8" stroke="#000cfe" stroke-linecap="round" stroke-linejoin="round" d="M10.4077 13.5c-2.45358 -0.2679 -4.85581 -0.2679 -7.30941 0" stroke-width="1"></path>
    <path id="Subtract" stroke="#000cfe" stroke-linecap="round" stroke-linejoin="round" d="M8.284 10.6634c-1.02402 0.0344 -2.04342 0.0344 -3.06744 -0.0001l-0.47877 2.6971c1.34448 -0.0818 2.6803 -0.0819 4.02474 -0.0004L8.284 10.6634Z" stroke-width="1"></path>
    <path id="Vector" stroke="#000cfe" stroke-linecap="round" stroke-linejoin="round" d="M12.3909 2.89771v-0.80628c0 -0.20899 -0.0412 -0.41593 -0.1212 -0.60901 -0.0799 -0.19308 -0.1972 -0.36852 -0.3449 -0.516301 -0.1478 -0.147778 -0.3233 -0.265002 -0.5163 -0.344979C11.2154 0.541163 11.0084 0.5 10.7994 0.5c-0.209 0 -0.4159 0.041163 -0.609 0.12114 -0.19306 0.079977 -0.3685 0.197201 -0.51627 0.344979 -0.14778 0.147781 -0.26501 0.323221 -0.34498 0.516301 -0.07998 0.19308 -0.12114 0.40002 -0.12114 0.60901v0.80628" stroke-width="1"></path>
    <path id="Intersect" stroke="#000cfe" stroke-linecap="round" stroke-linejoin="round" d="M8.24328 5.94792c0.03867 0.23582 0.23402 0.41709 0.47231 0.43511 0.66751 0.05047 1.36561 0.11701 2.08421 0.11701 0.7185 0 1.4166 -0.06654 2.0842 -0.11701 0.2382 -0.01802 0.4336 -0.19929 0.4723 -0.43511 0.068 -0.41461 0.1436 -0.84577 0.1436 -1.28835 0 -0.44259 -0.0756 -0.87375 -0.1436 -1.28836 -0.0387 -0.23582 -0.2341 -0.41709 -0.4723 -0.4351 -0.6676 -0.05048 -1.3657 -0.11702 -2.0842 -0.11702 -0.7186 0 -1.4167 0.06654 -2.08421 0.11702 -0.23829 0.01801 -0.43364 0.19928 -0.47231 0.4351 -0.068 0.41461 -0.14367 0.84577 -0.14367 1.28836 0 0.44258 0.07567 0.87374 0.14367 1.28835Z" stroke-width="1"></path>
    <path id="Subtract_2" stroke="#c71dff" stroke-linecap="round" stroke-linejoin="round" d="M12.8125 8.71787c-0.1355 0.95347 -0.9278 1.69513 -1.8686 1.78003 -2.82717 0.2551 -5.56142 0.2551 -8.38856 0C1.61451 10.413 0.842892 9.67138 0.707413 8.71791c-0.277201 -1.95087 -0.277202 -3.79561 0 -5.74648 0.135479 -0.95347 0.907097 -1.69509 1.847927 -1.78 1.48789 -0.13428 3.0749 -0.198453 4.53841 -0.19139" stroke-width="1"></path>
  </g>
</svg>