<svg xmlns="http://www.w3.org/2000/svg" fill="none" viewBox="0 0 14 14" id="Return-Square-2--Streamline-Flex-Neon">
  <desc>
    Return Square 2 Streamline Icon: https://streamlinehq.com
  </desc>
  <g id="return-square-2--arrow-return-enter-keyboard">
    <path id="Intersect" stroke="#c71dff" stroke-linecap="round" stroke-linejoin="round" d="M13.0401 10.2685c-0.1541 1.4407 -1.3128 2.5994 -2.7528 2.7599 -1.06951 0.1192 -2.16767 0.2216 -3.2873 0.2216s-2.21779 -0.1024 -3.28734 -0.2216C2.27271 12.8679 1.114 11.7092 0.959867 10.2685 0.846084 9.20502 0.75 8.11315 0.75 7c0 -1.11316 0.096084 -2.20502 0.209867 -3.26853C1.114 2.29082 2.2727 1.13211 3.71266 0.971609 4.78221 0.852392 5.88037 0.75 7 0.75s2.21779 0.102392 3.2873 0.221609c1.44 0.160501 2.5987 1.319211 2.7528 2.759861C13.1539 4.79498 13.25 5.88684 13.25 7c0 1.11315 -0.0961 2.20502 -0.2099 3.2685Z" stroke-width="1"></path>
    <path id="Vector" stroke="#000cfe" stroke-linecap="round" stroke-linejoin="round" d="M9.875 8 6.52693 8C5.4328 8 4.54175 7.12079 4.52711 6.02675L4.5 4" stroke-width="1"></path>
    <path id="Vector_2" stroke="#000cfe" stroke-linecap="round" stroke-linejoin="round" d="M8.07813 9.99512c0.7746 -0.38731 1.54921 -1.16192 1.93647 -1.9365 -0.38726 -0.77464 -1.16187 -1.54924 -1.93647 -1.93655" stroke-width="1"></path>
  </g>
</svg>