<svg xmlns="http://www.w3.org/2000/svg" fill="none" viewBox="0 0 14 14" id="Webcam--Streamline-Flex-Neon">
  <desc>
    Webcam Streamline Icon: https://streamlinehq.com
  </desc>
  <g id="webcam--webcam-camera-future-tech-chat-skype-technology-video">
    <path id="Vector" stroke="#000cfe" stroke-linecap="round" stroke-linejoin="round" d="M1.65527 13.5001c0.1383 -0.6637 0.50462 -1.2861 1.05693 -1.8116" stroke-width="1"></path>
    <path id="Vector_2" stroke="#000cfe" stroke-linecap="round" stroke-linejoin="round" d="M12.3444 13.4999c-0.1388 -0.666 -0.5072 -1.2904 -1.0627 -1.817" stroke-width="1"></path>
    <path id="Vector_3" stroke="#c71dff" stroke-linecap="round" stroke-linejoin="round" d="M7 13c4 0 6.25 -2.25 6.25 -6.25S11 0.5 7 0.5 0.75 2.75 0.75 6.75 3 13 7 13Z" stroke-width="1"></path>
    <path id="Vector_4" stroke="#000cfe" stroke-linecap="round" stroke-linejoin="round" d="M6.99992 9.96809c2.05947 0 3.21788 -1.15845 3.21788 -3.21793 0 -2.05948 -1.15841 -3.21793 -3.21788 -3.21793 -2.05948 0 -3.21794 1.15845 -3.21794 3.21793 0 2.05948 1.15846 3.21793 3.21794 3.21793Z" stroke-width="1"></path>
    <path id="Union" stroke="#c71dff" stroke-linecap="round" stroke-linejoin="round" d="M6.99805 7.27295c-0.32 0 -0.5 -0.18 -0.5 -0.5s0.18 -0.5 0.5 -0.5" stroke-width="1"></path>
    <path id="Union_2" stroke="#c71dff" stroke-linecap="round" stroke-linejoin="round" d="M7.00122 7.27295c0.32 0 0.5 -0.18 0.5 -0.5s-0.18 -0.5 -0.5 -0.5" stroke-width="1"></path>
  </g>
</svg>