<svg xmlns="http://www.w3.org/2000/svg" fill="none" viewBox="0 0 14 14" id="Wifi-Secure-Connection--Streamline-Flex-Neon">
  <desc>
    Wifi Secure Connection Streamline Icon: https://streamlinehq.com
  </desc>
  <g id="wifi-secure-connection">
    <path id="Vector" stroke="#c71dff" stroke-linecap="round" stroke-linejoin="round" d="M8.85736 9.2973v-0.94064c0 -0.24382 -0.04803 -0.48526 -0.14133 -0.71052 -0.09331 -0.22526 -0.23007 -0.42993 -0.40248 -0.60234 -0.1724 -0.1724 -0.37708 -0.30916 -0.60234 -0.40247C7.48595 6.54802 7.24452 6.5 7.0007 6.5c-0.24382 0 -0.48525 0.04802 -0.71051 0.14133 -0.22526 0.09331 -0.42994 0.23007 -0.60235 0.40247 -0.1724 0.17241 -0.30916 0.37708 -0.40247 0.60234 -0.0933 0.22526 -0.14133 0.4667 -0.14133 0.71052v0.94064" stroke-width="1"></path>
    <path id="Intersect" stroke="#c71dff" stroke-linecap="round" stroke-linejoin="round" d="M4.02974 12.9235c0.03831 0.2359 0.23331 0.4171 0.47162 0.4348 0.79942 0.0594 1.637 0.1417 2.49988 0.1417 0.86289 0 1.70047 -0.0823 2.49988 -0.1417 0.23831 -0.0177 0.43331 -0.1989 0.47163 -0.4348 0.08195 -0.5044 0.17865 -1.0303 0.17865 -1.5707 0 -0.5405 -0.0967 -1.0664 -0.17865 -1.57076 -0.03832 -0.23588 -0.23332 -0.41713 -0.47163 -0.43483 -0.79941 -0.0594 -1.63699 -0.14164 -2.49988 -0.14164 -0.86288 0 -1.70046 0.08224 -2.49988 0.14164 -0.23831 0.0177 -0.43331 0.19895 -0.47162 0.43483 -0.08194 0.50436 -0.17867 1.03026 -0.17867 1.57076 0 0.5404 0.09673 1.0663 0.17867 1.5707Z" stroke-width="1"></path>
    <path id="Vector_2" stroke="#000cfe" stroke-linecap="round" stroke-linejoin="round" d="M3.98975 5.00619c0.55849 -0.89863 1.58651 -1.38217 3.01176 -1.38217 1.42526 0 2.45328 0.48354 3.01179 1.38217" stroke-width="1"></path>
    <path id="Vector_2_2" stroke="#000cfe" stroke-linecap="round" stroke-linejoin="round" d="M1.50098 2.68498C2.64126 1.26061 4.5087 0.5 7.00098 0.5s4.35972 0.76061 5.50002 2.18498" stroke-width="1"></path>
  </g>
</svg>