<svg xmlns="http://www.w3.org/2000/svg" fill="none" viewBox="0 0 14 14" id="Youtube-Logo--Streamline-Flex-Neon">
  <desc>
    Youtube Logo Streamline Icon: https://streamlinehq.com
  </desc>
  <g id="youtube-logo--youtube-clip-social-video">
    <path id="Intersect" stroke="#c71dff" stroke-linecap="round" stroke-linejoin="round" d="M3.60128 1.68386c-0.73161 0.0699 -1.41366 0.3475 -1.93493 0.78755 -0.52128 0.44005 -0.851023 1.01657 -0.93547 1.63557C0.60608 5.04877 0.5 6.01432 0.5 7.00012c0 0.9858 0.10608 1.95223 0.23088 2.89314 0.084447 0.61904 0.41419 1.19554 0.93547 1.63554 0.52127 0.4401 1.20332 0.7177 1.93493 0.7876 1.10552 0.1003 2.2412 0.1848 3.39872 0.1848 1.15752 0 2.2932 -0.0845 3.3998 -0.1848 0.7316 -0.0699 1.4136 -0.3475 1.9349 -0.7876 0.5213 -0.44 0.851 -1.0165 0.9355 -1.63554 0.1227 -0.94179 0.2298 -1.90734 0.2298 -2.89314 0 -0.98579 -0.1061 -1.95223 -0.2309 -2.89314 -0.0844 -0.61899 -0.4142 -1.19552 -0.9354 -1.63557 -0.5213 -0.44005 -1.2034 -0.71765 -1.935 -0.78755C9.29424 1.58352 8.15856 1.49902 7 1.49902s-2.2932 0.0845 -3.39872 0.18484Z" stroke-width="1"></path>
    <path id="Intersect_2" stroke="#000cfe" stroke-linecap="round" stroke-linejoin="round" d="M6.3896 9.46028c1.28719 -0.67456 3.1397 -1.76601 3.1397 -2.46037 0 -0.69435 -1.85251 -1.7858 -3.1397 -2.46037 -0.59528 -0.31196 -1.30096 0.07364 -1.35214 0.74377 -0.08769 1.14806 -0.08769 2.28514 0 3.43321 0.05118 0.67013 0.75685 1.05573 1.35214 0.74376Z" stroke-width="1"></path>
  </g>
</svg>