<svg xmlns="http://www.w3.org/2000/svg" fill="none" viewBox="0 0 14 14" id="Book-Reading--Streamline-Flex">
  <desc>
    Book Reading Streamline Icon: https://streamlinehq.com
  </desc>
  <g id="book-reading--book-reading-learning">
    <path id="Union" fill="#000000" fill-rule="evenodd" d="M0.628 1.35C0.781 0.694 1.365 0.2 2.14 0.29l0.01 0c1.41 0.19 2.737 0.669 3.855 1.393v5.82c-0.002 0.04 -0.003 0.081 -0.003 0.122l0 3.285 -0.014 0.007a1.394 1.394 0 0 1 -0.317 -0.217 4.387 4.387 0 0 1 -0.163 -0.155 1.394 1.394 0 0 0 -0.315 -0.25C4.266 9.757 2.88 9.149 1.82 9.032 1.16 8.97 0.738 8.443 0.628 7.962a14.385 14.385 0 0 1 0 -6.612Zm6.626 4.108V1.683C8.37 0.959 9.698 0.479 11.109 0.29l0.01 -0.002c0.774 -0.088 1.358 0.405 1.51 1.061 0.517 2.226 0.51 4.39 0 6.612 -0.11 0.481 -0.53 1.008 -1.192 1.07a4.6 4.6 0 0 0 -0.436 0.07V7.626a2.5 2.5 0 0 0 -3.747 -2.167ZM7.25 11.72V7.625a1.25 1.25 0 0 1 2.5 0v2.623c2.085 0 3.882 1.181 4.004 3.013 0.017 0.26 -0.204 0.46 -0.465 0.46H6.053c-0.282 0 -0.513 -0.236 -0.435 -0.507a1.977 1.977 0 0 1 1.132 -1.279l0.5 -0.214Z" clip-rule="evenodd" stroke-width="1"></path>
  </g>
</svg>