<svg xmlns="http://www.w3.org/2000/svg" fill="none" viewBox="0 0 24 24" id="Arrow-Down-2--Streamline-Ultimate">
  <desc>
    Arrow Down 2 Streamline Icon: https://streamlinehq.com
  </desc>
  <path fill="#ffbfc5" d="M3.75 15.6065V1.9706c0 -0.25742 0.10226 -0.5043 0.28428 -0.68632C4.2163 1.10226 4.46318 1 4.7206 1h14.5589c0.2574 0 0.5043 0.10226 0.6863 0.28428 0.1821 0.18202 0.2843 0.4289 0.2843 0.68632v13.6359c0 0.1375 -0.0293 0.2734 -0.0859 0.3987 -0.0565 0.1254 -0.1391 0.2372 -0.2421 0.3283l-7.2795 6.4234c-0.1774 0.1566 -0.4059 0.2431 -0.6425 0.2431 -0.2367 0 -0.4652 -0.0865 -0.6426 -0.2431l-7.27944 -6.4234c-0.10305 -0.0911 -0.18559 -0.2029 -0.24215 -0.3283 -0.05656 -0.1253 -0.08584 -0.2612 -0.08591 -0.3987Z" stroke-width="1"></path>
  <path fill="#ff808c" d="M3.90234 16.0947c0.0456 0.0883 0.10489 0.1689 0.17568 0.2387l7.27948 6.4234c0.1774 0.1567 0.4059 0.2432 0.6425 0.2432 0.2367 0 0.4652 -0.0865 0.6426 -0.2432l7.2794 -6.4234c0.1031 -0.091 0.1856 -0.2029 0.2422 -0.3282 0.0565 -0.1253 0.0858 -0.2612 0.0859 -0.3987V1.97055c-0.0011 -0.25462 -0.1022 -0.49863 -0.2815 -0.67941L3.90234 16.0947Z" stroke-width="1"></path>
  <path stroke="#191919" stroke-linecap="round" stroke-linejoin="round" d="M3.75 15.6065V1.9706c0 -0.25742 0.10226 -0.5043 0.28428 -0.68632C4.2163 1.10226 4.46318 1 4.7206 1h14.5589c0.2574 0 0.5043 0.10226 0.6863 0.28428 0.1821 0.18202 0.2843 0.4289 0.2843 0.68632v13.6359c0 0.1375 -0.0293 0.2734 -0.0859 0.3987 -0.0565 0.1254 -0.1391 0.2372 -0.2421 0.3283l-7.2795 6.4234c-0.1774 0.1566 -0.4059 0.2431 -0.6425 0.2431 -0.2367 0 -0.4652 -0.0865 -0.6426 -0.2431l-7.27944 -6.4234c-0.10305 -0.0911 -0.18559 -0.2029 -0.24215 -0.3283 -0.05656 -0.1253 -0.08584 -0.2612 -0.08591 -0.3987Z" stroke-width="1"></path>
</svg>