<svg xmlns="http://www.w3.org/2000/svg" fill="none" viewBox="-0.75 -0.75 24 24" id="Hearing-Deaf-1--Streamline-Sharp-Neon">
  <desc>
    Hearing Deaf 1 Streamline Icon: https://streamlinehq.com
  </desc>
  <g id="hearing-deaf-1--disability-hearing-deaf">
    <path id="Vector 1350" stroke="#000cfe" d="m21.3781875 1.1218125 -4.27378125 4.27378125" stroke-width="1.5"></path>
    <path id="Ellipse 8" stroke="#c71dff" d="M8.55946875 7.662562500000001c0 -0.71353125 0.28340625 -1.3979062500000001 0.78796875 -1.9024687500000002 0.50465625 -0.50465625 1.18903125 -0.7880625 1.9025625 -0.7880625 0.71353125 0 1.3979062500000001 0.2835 1.9024687500000002 0.7880625s0.7880625 1.1889375 0.7880625 1.9024687500000002" stroke-width="1.5"></path>
    <path id="Ellipse 9" stroke="#c71dff" d="M4.97203125 7.662562500000001c0 -3.46725 2.81071875 -6.27796875 6.27796875 -6.27796875 1.665 0 3.2618437499999997 0.66140625 4.43915625 1.8388125 1.17740625 1.1773125 1.8388125 2.77415625 1.8388125 4.43915625 0 2.2970625 -0.91246875 4.49990625 -2.5366875 6.124125l-2.84446875 2.844375v0.89690625c0 0.9514687499999999 -0.37790625 1.8639375 -1.05075 2.5366875 -0.67275 0.67275 -1.5851250000000001 1.05075 -2.53659375 1.05075 -0.99065625 0 -1.8875624999999998 -0.40153125 -2.5366875 -1.05075" stroke-width="1.5"></path>
    <path id="Vector 1349" stroke="#000cfe" d="M1.1218125 21.3781875 11.25 11.25" stroke-width="1.5"></path>
  </g>
</svg>