<svg viewBox="-0.75 -0.75 24 24" fill="none" xmlns="http://www.w3.org/2000/svg" id="Hotel-Three-Star--Streamline-Sharp-Neon">
  <desc>
    Hotel Three Star Streamline Icon: https://streamlinehq.com
  </desc>
  <g id="hotel-three-star--three-stars-reviews-review-rating-hotel-star">
    <path id="Vector" d="m12.173343749999999 12.1875 0.26353125 0c0.5098125 0 0.9230625 0.42824999999999996 0.9230625 0.9568125l0 1.3674374999999999c0 0.5285624999999999 -0.41325 0.957 -0.9230625 0.957l-2.37346875 0c-0.50971875 0 -0.92300625 -0.4284375 -0.92300625 -0.957V13.59375M12.173343749999999 12.1875c0.5098125 0 0.922875 -0.42834374999999997 0.922875 -0.95690625v-1.3673437499999999c0 -0.528553125 -0.41325 -0.957 -0.9230625 -0.957l-1.84603125 0c-0.50971875 0 -0.92296875 0.42848437500000003 -0.92296875 0.957V10.78125m2.7691875 1.40625H10.78125" stroke="#000cfe" stroke-width="1.5"></path>
    <path id="Star 4" d="M11.31871875 1.992815625 11.25 1.875l-0.06871875000000001 0.11781562500000001C9.115471874999999 5.534184375 5.7935625 8.169290625 1.875 9.375c2.635640625 2.6356875 3.779671875 6.41409375 3.0486750000000002 10.069125L4.6875 20.625c4.1725312500000005 -1.8823125 8.952468750000001 -1.8823125 13.125 0l-0.23615625 -1.1808750000000001C16.84528125 15.78909375 17.9893125 12.010687500000001 20.625 9.375c-3.9185625 -1.2057093749999999 -7.2405 -3.840815625 -9.30628125 -7.382184375Z" stroke="#c71dff" stroke-width="1.5"></path>
  </g>
</svg>