<svg xmlns="http://www.w3.org/2000/svg" fill="none" viewBox="0 0 24 24" id="Passport-Globe--Streamline-Sharp-Neon">
  <desc>
    Passport Globe Streamline Icon: https://streamlinehq.com
  </desc>
  <g id="passport-globe--international-travel-book-id-adventure-visa-airport">
    <path id="Vector" stroke="#000cfe" d="M21.4185 11.9999H19c-1.1046 0 -2 -0.8954 -2 -1.99998v-3l-3 0.00001c-1.1046 0.00001 -2 -0.89543 -2 -2V1.25195" stroke-width="1"></path>
    <path id="Union" stroke="#000cfe" d="M11 22.9998 11 12l-9.00008 0.0001v10.9997l9.00008 0Z" stroke-width="1"></path>
    <path id="Vector_2" stroke="#000cfe" d="M6.5 18.5c-0.55228 0 -1 -0.4477 -1 -1s0.44772 -1 1 -1 1 0.4477 1 1 -0.44772 1 -1 1Z" stroke-width="1"></path>
    <path id="Vector_3" stroke="#c71dff" d="M6 9c0 -4.41828 3.58172 -8 8 -8 4.4183 0 8 3.58172 8 8 0 4.4183 -3.5817 8 -8 8" stroke-width="1"></path>
  </g>
</svg>