<svg xmlns="http://www.w3.org/2000/svg" fill="none" viewBox="-0.5 -0.5 24 24" id="Passport-Globe--Streamline-Sharp-Neon">
  <desc>
    Passport Globe Streamline Icon: https://streamlinehq.com
  </desc>
  <g id="passport-globe--international-travel-book-id-adventure-visa-airport">
    <path id="Vector" stroke="#000cfe" d="M20.526062500000002 11.499904166666667H18.208333333333336c-1.058575 0 -1.9166666666666667 -0.8580916666666667 -1.9166666666666667 -1.9166475v-2.875l-2.875 0.00000958333333333334c-1.058575 0.00000958333333333334 -1.9166666666666667 -0.8581204166666666 -1.9166666666666667 -1.9166666666666667V1.1997854166666666" stroke-width="1"></path>
    <path id="Union" stroke="#000cfe" d="M10.541666666666668 22.041475000000002 10.541666666666668 11.5l-8.625076666666667 0.00009583333333333334v10.541379166666667l8.625076666666667 0Z" stroke-width="1"></path>
    <path id="Vector_2" stroke="#000cfe" d="M6.229166666666667 17.729166666666668c-0.5292683333333333 0 -0.9583333333333334 -0.42904583333333335 -0.9583333333333334 -0.9583333333333334s0.42906500000000003 -0.9583333333333334 0.9583333333333334 -0.9583333333333334 0.9583333333333334 0.42904583333333335 0.9583333333333334 0.9583333333333334 -0.42906500000000003 0.9583333333333334 -0.9583333333333334 0.9583333333333334Z" stroke-width="1"></path>
    <path id="Vector_3" stroke="#c71dff" d="M5.75 8.625c0 -4.234185 3.4324816666666664 -7.666666666666667 7.666666666666667 -7.666666666666667 4.234204166666667 0 7.666666666666667 3.4324816666666664 7.666666666666667 7.666666666666667 0 4.234204166666667 -3.4324625 7.666666666666667 -7.666666666666667 7.666666666666667" stroke-width="1"></path>
  </g>
</svg>