<svg viewBox="-0.75 -0.75 24 24" fill="none" xmlns="http://www.w3.org/2000/svg" id="School-Bus-Side--Streamline-Sharp-Neon">
  <desc>
    School Bus Side Streamline Icon: https://streamlinehq.com
  </desc>
  <g id="school-bus-side">
    <path id="Vector 4032" d="M6.65625 6.196875v4.59375" stroke="#000cfe" stroke-width="1.5"></path>
    <path id="Vector 4033" d="M12.168750000000001 6.196875v4.59375" stroke="#000cfe" stroke-width="1.5"></path>
    <path id="Vector" d="M3.9464062500000003 18.140625H1.14384375V2.521875H17.68125v8.26875h3.675v7.35h-2.8027499999999996" stroke="#c71dff" stroke-width="1.5"></path>
    <path id="Vector_2" d="M8.44734375 18.140625h5.605218750000001" stroke="#c71dff" stroke-width="1.5"></path>
    <path id="Ellipse 1120" d="M3.9000000000000004 17.68125c0 0.6090937500000001 0.24196875 1.19334375 0.67275 1.624125 0.4306875 0.4306875 1.0149375 0.67275 1.624125 0.67275 0.6091875 0 1.19334375 -0.24206249999999999 1.624125 -0.67275 0.4306875 -0.43078125 0.67275 -1.01503125 0.67275 -1.624125s-0.24206249999999999 -1.19334375 -0.67275 -1.6242187499999998c-0.43078125 -0.4306875 -1.0149375 -0.6726562500000001 -1.624125 -0.6726562500000001 -0.6091875 0 -1.1934375 0.24196875 -1.624125 0.6726562500000001 -0.43078125 0.430875 -0.67275 1.01503125 -0.67275 1.6242187499999998Z" stroke="#000cfe" stroke-width="1.5"></path>
    <path id="Ellipse 1121" d="M14.00615625 17.68125c0 0.6090937500000001 0.24206249999999999 1.19334375 0.67275 1.624125 0.43078125 0.4306875 1.01503125 0.67275 1.624125 0.67275s1.1934375 -0.24206249999999999 1.6242187499999998 -0.67275c0.4306875 -0.43078125 0.6726562500000001 -1.01503125 0.6726562500000001 -1.624125s-0.24196875 -1.19334375 -0.6726562500000001 -1.6242187499999998c-0.43078125 -0.4306875 -1.01503125 -0.6726562500000001 -1.6242187499999998 -0.6726562500000001s-1.19334375 0.24196875 -1.624125 0.6726562500000001c-0.4306875 0.430875 -0.67275 1.01503125 -0.67275 1.6242187499999998Z" stroke="#000cfe" stroke-width="1.5"></path>
    <path id="Vector_3" d="M1.14375 10.790625h16.53740625v-4.59375H1.14375v4.59375Z" stroke="#000cfe" stroke-width="1.5"></path>
  </g>
</svg>