<svg xmlns="http://www.w3.org/2000/svg" fill="none" viewBox="0 0 40 40" id="Earpod-Connected--Streamline-Stickies">
  <desc>
    Earpod Connected Streamline Icon: https://streamlinehq.com
  </desc>
  <g clip-path="url(#a)">
    <path fill="#00034a" stroke="#00034a" stroke-miterlimit="10" d="M30.34 4.05599c-0.418 -1.434 0.348 -3.100001 3.139 -3.488001 1.35 -0.187 2.347 0.029 3.052 0.427 0.995 0.563001 2.33 1.910001 2.103 3.130001 -0.175 0.936 -1.357 1.022 -3.28 1.16 -0.323 0.024 -0.668 0.049 -1.032 0.08 0.6953 1.3144 1.2693 2.68942 1.715 4.108 0.1241 0.31371 0.1769 0.65101 0.1548 0.98771 -0.0221 0.3366 -0.1187 0.6641 -0.2828 0.9589 -0.1641 0.2947 -0.3915 0.5494 -0.666 0.7456 -0.2744 0.1961 -0.589 0.3289 -0.921 0.3888 -0.3131 0.1247 -0.65 0.1784 -0.9863 0.1571 -0.3364 -0.0213 -0.6638 -0.1169 -0.9587 -0.2801 -0.445 -0.247 -1.17 -0.968 -1.473 -1.39 -0.1964 -0.2737 -0.3296 -0.5876 -0.39 -0.919 -0.1104 -0.27221 -0.1658 -0.56354 -0.1632 -0.85725 0.0026 -0.29371 0.0633 -0.58401 0.1786 -0.85418 0.1152 -0.27017 0.2827 -0.51489 0.4929 -0.72007 0.2102 -0.20519 0.4588 -0.36679 0.7317 -0.47551 -0.5612 -1.01056 -1.0336 -2.06744 -1.414 -3.159Z" stroke-width="1"></path>
    <path fill="#9bff00" stroke="#00034a" stroke-miterlimit="10" d="M33.479 0.568015c-2.791 0.388 -3.556 2.053995 -3.14 3.488005 0.38 1.092 0.854 2.14899 1.415 3.15999 -0.2727 0.10873 -0.5213 0.2703 -0.7314 0.47541 -0.2101 0.20511 -0.3776 0.44973 -0.4928 0.71979 -0.1152 0.27005 -0.1759 0.56022 -0.1787 0.85382 -0.0027 0.2936 0.0527 0.58485 0.1629 0.85697 0.0605 0.3314 0.1938 0.6451 0.3903 0.9187 0.1965 0.2736 0.4512 0.5002 0.7459 0.6634 0.2946 0.1632 0.6218 0.259 0.958 0.2804 0.3361 0.0214 0.6728 -0.032 0.9858 -0.1565 0.3325 -0.0592 0.6476 -0.1916 0.9226 -0.3877 0.2749 -0.196 0.5028 -0.4508 0.6671 -0.7459 0.1643 -0.295 0.2609 -0.623 0.2827 -0.95995 0.0218 -0.337 -0.0316 -0.67464 -0.1564 -0.98843 -0.4456 -1.41862 -1.0197 -2.79365 -1.715 -4.10801 2.529 -0.213 4.108 -0.145 4.312 -1.24 0.203 -1.095 -0.93 -3.3139951 -4.428 -2.829995Z" stroke-width="1"></path>
    <path fill="#00034a" stroke="#00034a" stroke-miterlimit="10" d="M23.653 20.549c1.318 -4.439 4.845 -6.6 10.66 -4.845 1.687 0.507 3.87 1.907 4.59 3.629 0.629 1.501 0.027 3.483 -0.724 5.96l-0.136 0.45 -0.14 0.46c-1.253 4.175 -2.086 6.948 -6.798 5.498 -0.3582 -0.1114 -0.7106 -0.2406 -1.056 -0.387 -0.7228 2.4376 -1.6567 4.8075 -2.791 7.083 -0.766 1.395 -2.422 1.202 -3.614 0.843 -1.448 -0.436 -3.92 -2.175 -3.76 -3.905 -0.107 -0.843 0.969 -5.426 1.938 -8.72l1.831 -6.066Z" stroke-width="1"></path>
    <path fill="#9bff00" stroke="#00034a" stroke-miterlimit="10" d="M34.312 15.704c-5.814 -1.754 -9.341 0.406 -10.659 4.845l-1.831 6.065c-0.97 3.295 -2.045 7.878 -1.938 8.721 -0.145 1.58 1.357 2.335 2.548 2.694 1.192 0.358 2.85 0.552 3.615 -0.843 1.134 -2.2755 2.0675 -4.6454 2.79 -7.083 0.34 0.145 0.688 0.27 1.056 0.387 4.884 1.502 5.601 -1.53 6.938 -5.96 1.337 -4.427 2.413 -7.344 -2.519 -8.826Z" stroke-width="1"></path>
    <path stroke="#00034a" stroke-linecap="round" stroke-miterlimit="10" d="M22.355 33.717c0.39 0.191 0.8 0.344 1.22 0.455 0.41 0.136 0.832 0.233 1.26 0.291" stroke-width="1"></path>
    <path stroke="#00034a" stroke-linecap="round" stroke-miterlimit="10" d="M35.514 20.568c-0.4632 1.0534 -0.8519 2.1381 -1.163 3.246 -0.3538 1.0899 -0.6292 2.2038 -0.824 3.333" stroke-width="1"></path>
    <path fill="#00034a" stroke="#00034a" stroke-miterlimit="10" d="M23.799 23.388c-0.556 -0.702 -3.173 -2.52 -6.012 -4.457 2.52 -2.848 4.983 -5.796 5.343 -6.706 0.1934 -0.3323 0.2837 -0.7146 0.2593 -1.0983 -0.0244 -0.3838 -0.1624 -0.7516 -0.3963 -1.0567 -0.308 -0.40201 -1.115 -1.22501 -1.54 -1.46901 -1.482 -0.833 -9.815 -4.71 -11.21 -4.515 -0.52528 0.00563 -1.02944 0.20765 -1.41327 0.56631 -0.38383 0.35866 -0.61953 0.84799 -0.66072 1.37169 -0.04391 2.32766 0.10829 4.65491 0.455 6.95701 -1.49226 -1.0024 -3.07918 -1.8562 -4.738 -2.549 -0.48368 -0.1584 -1.00873 -0.1333 -1.47511 0.0705 -0.46638 0.2037 -0.8415 0.572 -1.05389 1.0345 -0.337 0.38 -0.522995 0.872 -0.522995 1.38 0 1.107 0.843995 1.618 1.491995 2.35 0.51 0.672 2.924 2.404 5.635 4.226 -2.405 2.752 -4.67499 5.495 -5.04399 6.366 -0.22933 0.4533 -0.2838 0.9751 -0.15301 1.466 0.185 0.699 1.194 1.747 1.83 2.167 0.32527 0.3888 0.78117 0.6457 1.28227 0.7225 0.50109 0.0767 1.01298 -0.0319 1.43973 -0.3055 1.13082 -0.8911 2.19129 -1.868 3.17199 -2.922 0.275 1.71 0.66 3.4 1.15 5.063 0.175 0.55 1.352 1.8 1.882 2.107 0.436 0.253 0.95 0.334 1.441 0.228 1.328 0.107 8.605 -6.104 9.807 -7.277 0.2732 -0.2713 0.4594 -0.6179 0.5349 -0.9954 0.0755 -0.3776 0.0369 -0.7691 -0.1109 -1.1246 -0.27 -0.648 -0.91 -1.12 -1.393 -1.6Z" stroke-width="1"></path>
    <path fill="#ffffff" stroke="#00034a" stroke-miterlimit="10" d="M16.648 18.155c2.577 -2.907 5.145 -5.969 5.513 -6.899 0.1288 -0.2205 0.2127 -0.4644 0.2469 -0.7174 0.0342 -0.2531 0.0179 -0.5105 -0.0478 -0.75726 -0.0657 -0.24678 -0.1796 -0.47813 -0.3351 -0.68071 -0.1555 -0.20257 -0.3496 -0.37238 -0.571 -0.49964 -1.483 -0.833 -9.816 -4.71 -11.211 -4.515 -0.52529 0.00563 -1.02945 0.20765 -1.41328 0.56631 -0.38383 0.35866 -0.61953 0.84799 -0.66072 1.37169 -0.04391 2.32766 0.10829 4.65491 0.455 6.95701 -1.49226 -1.0024 -3.07918 -1.8562 -4.738 -2.549 -0.48368 -0.1584 -1.00873 -0.1333 -1.47511 0.0705 -0.46638 0.2037 -0.8415 0.572 -1.05389 1.0345 -0.33735 0.3809 -0.523595 0.8722 -0.523595 1.381s0.186245 1.0001 0.523595 1.381c0.581 0.765 3.63401 2.907 6.78301 4.99 -2.471 2.82 -4.84501 5.678 -5.22301 6.57 -0.22902 0.4536 -0.28344 0.9756 -0.15292 1.4667 0.13053 0.4911 0.4369 0.9172 0.86092 1.1973 0.32527 0.3888 0.78117 0.6457 1.28227 0.7225 0.50109 0.0767 1.01298 -0.0319 1.43973 -0.3055 1.41559 -1.1152 2.7203 -2.3643 3.896 -3.73 0.2682 2.3157 0.735 4.6042 1.395 6.84 0.1524 0.4798 0.478 0.8857 0.9134 1.1384 0.4354 0.2528 0.9494 0.3342 1.4416 0.2286 1.327 0.106 8.604 -6.105 9.806 -7.277 0.1815 -0.1802 0.3256 -0.3946 0.4239 -0.6308 0.0983 -0.2361 0.149 -0.4894 0.149 -0.7452 0 -0.2558 -0.0507 -0.5091 -0.149 -0.7452 -0.0983 -0.2362 -0.2424 -0.4506 -0.4239 -0.6308 -0.63 -0.795 -3.905 -3.024 -7.151 -5.233Zm-2.665 -6.734 0.891 0.407 -0.717 0.785c-0.0553 -0.3977 -0.1133 -0.7951 -0.174 -1.192Zm1.705 12.761 0.901 0.552 -0.765 0.64c-0.039 -0.388 -0.087 -0.785 -0.136 -1.192Z" stroke-width="1"></path>
    <path fill="#00034a" stroke="#00034a" stroke-miterlimit="10" d="M23.847 0.936005c-0.2062 0 -0.4103 0.040609 -0.6008 0.119505 -0.1905 0.0789 -0.3636 0.19455 -0.5093 0.34034 -0.1458 0.14578 -0.2615 0.31886 -0.3404 0.50934 -0.0789 0.19048 -0.1195 0.39464 -0.1195 0.60081 0 0.91 0.902 1.812 1.812 1.812 0.4164 0 0.8157 -0.16541 1.1102 -0.45984 0.2944 -0.29443 0.4598 -0.69377 0.4598 -1.11016 0 -0.91 -0.902 -1.811995 -1.812 -1.811995Z" stroke-width="1"></path>
    <path fill="#9bff00" stroke="#00034a" stroke-miterlimit="10" d="M23.847 4.076c0.2062 0 0.4103 -0.0406 0.6008 -0.1195s0.3636 -0.19455 0.5094 -0.34034c0.1458 -0.14579 0.2614 -0.31886 0.3403 -0.50934 0.0789 -0.19048 0.1195 -0.39464 0.1195 -0.60082 0 -0.20617 -0.0406 -0.41033 -0.1195 -0.60081 -0.0789 -0.19048 -0.1945 -0.36356 -0.3403 -0.50934 -0.1458 -0.14579 -0.3189 -0.26144 -0.5094 -0.34034 -0.1905 -0.078896 -0.3946 -0.119505 -0.6008 -0.119505 -0.4164 0 -0.8157 0.165405 -1.1101 0.459845 -0.2945 0.29443 -0.4599 0.69376 -0.4599 1.11015 0 0.41639 0.1654 0.81573 0.4599 1.11016 0.2944 0.29443 0.6937 0.45984 1.1101 0.45984Z" stroke-width="1"></path>
    <path fill="#00034a" stroke="#00034a" stroke-miterlimit="10" d="M5.39801 32.835c-0.31307 0 -0.62308 0.0617 -0.91232 0.1815 -0.28924 0.1198 -0.55205 0.2954 -0.77342 0.5167 -0.22138 0.2214 -0.39698 0.4842 -0.51679 0.7735 -0.11981 0.2892 -0.18147 0.5992 -0.18147 0.9123 0 1.404 1.464 2.868 2.868 2.868 0.63227 0 1.23865 -0.2512 1.68574 -0.6983 0.44709 -0.447 0.69826 -1.0534 0.69826 -1.6857 0 -1.404 -1.465 -2.868 -2.868 -2.868Z" stroke-width="1"></path>
    <path fill="#9bff00" stroke="#00034a" stroke-miterlimit="10" d="M5.39801 37.602c0.31712 0.0065 0.63234 -0.0503 0.9272 -0.1672 0.29487 -0.1169 0.56345 -0.2914 0.79002 -0.5134 0.22656 -0.222 0.40656 -0.4869 0.52943 -0.7793 0.12288 -0.2924 0.18618 -0.6064 0.18618 -0.9236 0 -0.3172 -0.0633 -0.6312 -0.18618 -0.9236 -0.12287 -0.2924 -0.30287 -0.5573 -0.52943 -0.7793 -0.22657 -0.222 -0.49515 -0.3965 -0.79002 -0.5134 -0.29486 -0.1168 -0.61008 -0.1737 -0.9272 -0.1672 -0.62369 0.0128 -1.21752 0.2695 -1.65409 0.7151 -0.43657 0.4456 -0.68108 1.0446 -0.68108 1.6684 0 0.6238 0.24451 1.2228 0.68108 1.6684s1.0304 0.7023 1.65409 0.7151Z" stroke-width="1"></path>
  </g>
  <defs>
    <clipPath id="a">
      <path fill="#ffffff" d="M0 0h40v40H0z" stroke-width="1"></path>
    </clipPath>
  </defs>
</svg>