<svg xmlns="http://www.w3.org/2000/svg" viewBox="0 0 32 32" id="Music-Microphone-2--Streamline-Pixel">
  <desc>
    Music Microphone 2 Streamline Icon: https://streamlinehq.com
  </desc>
  <title>music-microphone-2</title>
  <g>
    <path d="m24.38 10.67 -1.52 0 0 -7.62 -1.53 0 0 13.71 1.53 0 0 -4.57 1.52 0 0 6.1 1.52 0 0 -9.14 -1.52 0 0 1.52z" fill="#000000" stroke-width="1"></path>
    <path d="M22.86 18.29h1.52v1.52h-1.52Z" fill="#000000" stroke-width="1"></path>
    <path d="M21.33 19.81h1.53v1.53h-1.53Z" fill="#000000" stroke-width="1"></path>
    <path d="M19.81 16.76h1.52v1.53h-1.52Z" fill="#000000" stroke-width="1"></path>
    <path d="M19.81 1.53h1.52v1.52h-1.52Z" fill="#000000" stroke-width="1"></path>
    <path d="m10.67 21.34 0 1.52 4.57 0 0 4.57 -4.57 0 0 1.53 -3.05 0 0 3.04 16.76 0 0 -3.04 -3.05 0 0 -1.53 -4.57 0 0 -4.57 4.57 0 0 -1.52 -10.66 0z" fill="#000000" stroke-width="1"></path>
    <path d="M18.29 7.62h1.52v1.53h-1.52Z" fill="#000000" stroke-width="1"></path>
    <path d="M18.29 4.57h1.52V6.1h-1.52Z" fill="#000000" stroke-width="1"></path>
    <path d="M12.19 18.29h7.62v1.52h-7.62Z" fill="#000000" stroke-width="1"></path>
    <path d="M15.24 9.15h1.52v1.52h-1.52Z" fill="#000000" stroke-width="1"></path>
    <path d="M15.24 6.1h1.52v1.52h-1.52Z" fill="#000000" stroke-width="1"></path>
    <path d="M15.24 3.05h1.52v1.52h-1.52Z" fill="#000000" stroke-width="1"></path>
    <path d="M12.19 0h7.62v1.53h-7.62Z" fill="#000000" stroke-width="1"></path>
    <path d="M12.19 7.62h1.52v1.53h-1.52Z" fill="#000000" stroke-width="1"></path>
    <path d="M12.19 4.57h1.52V6.1h-1.52Z" fill="#000000" stroke-width="1"></path>
    <path d="M10.67 16.76h1.52v1.53h-1.52Z" fill="#000000" stroke-width="1"></path>
    <path d="M10.67 1.53h1.52v1.52h-1.52Z" fill="#000000" stroke-width="1"></path>
    <path d="M9.14 19.81h1.53v1.53H9.14Z" fill="#000000" stroke-width="1"></path>
    <path d="M7.62 18.29h1.52v1.52H7.62Z" fill="#000000" stroke-width="1"></path>
    <path d="m7.62 12.19 1.52 0 0 4.57 1.53 0 0 -13.71 -1.53 0 0 7.62 -1.52 0 0 -1.52 -1.52 0 0 9.14 1.52 0 0 -6.1z" fill="#000000" stroke-width="1"></path>
  </g>
</svg>