<svg xmlns="http://www.w3.org/2000/svg" viewBox="0 0 32 32" id="Music-Walkman-Cassette--Streamline-Pixel">
  <desc>
    Music Walkman Cassette Streamline Icon: https://streamlinehq.com
  </desc>
  <title>music-walkman-cassette</title>
  <g>
    <path d="M30.48 6.09H32v18.29h-1.52Z" fill="#000000" stroke-width="1"></path>
    <path d="M28.96 24.38h1.52v1.52h-1.52Z" fill="#000000" stroke-width="1"></path>
    <path d="M27.43 21.33h1.53v1.52h-1.53Z" fill="#000000" stroke-width="1"></path>
    <path d="M27.43 12.19h1.53v4.57h-1.53Z" fill="#000000" stroke-width="1"></path>
    <path d="M27.43 7.62h1.53v1.52h-1.53Z" fill="#000000" stroke-width="1"></path>
    <path d="m27.43 24.38 -1.52 0 0 1.52 -4.57 0 0 -1.52 -10.67 0 0 1.52 -4.57 0 0 -1.52 -1.52 0 0 1.52 -1.53 0 0 1.53 25.91 0 0 -1.53 -1.53 0 0 -1.52z" fill="#000000" stroke-width="1"></path>
    <path d="M25.91 16.76h1.52v1.52h-1.52Z" fill="#000000" stroke-width="1"></path>
    <path d="M25.91 10.66h1.52v1.53h-1.52Z" fill="#000000" stroke-width="1"></path>
    <path d="M24.38 22.85h1.53v1.53h-1.53Z" fill="#000000" stroke-width="1"></path>
    <path d="M22.86 16.76h-1.52v-4.57h1.52v-1.53h3.05V9.14H6.1v1.52h3.05v1.53h1.52v4.57H9.15v1.52H6.1v1.53h19.81v-1.53h-3.05Zm-3.05 -1.53h-7.62v-4.57h7.62Z" fill="#000000" stroke-width="1"></path>
    <path d="M22.86 12.19h3.05v4.57h-3.05Z" fill="#000000" stroke-width="1"></path>
    <path d="M16.77 12.19h1.52v1.52h-1.52Z" fill="#000000" stroke-width="1"></path>
    <path d="M13.72 12.19h1.52v1.52h-1.52Z" fill="#000000" stroke-width="1"></path>
    <path d="M7.62 21.33h16.76v1.52H7.62Z" fill="#000000" stroke-width="1"></path>
    <path d="M6.1 22.85h1.52v1.53H6.1Z" fill="#000000" stroke-width="1"></path>
    <path d="M6.1 12.19h3.05v4.57H6.1Z" fill="#000000" stroke-width="1"></path>
    <path d="M4.58 16.76H6.1v1.52H4.58Z" fill="#000000" stroke-width="1"></path>
    <path d="M4.58 10.66H6.1v1.53H4.58Z" fill="#000000" stroke-width="1"></path>
    <path d="M3.05 21.33h1.53v1.52H3.05Z" fill="#000000" stroke-width="1"></path>
    <path d="M3.05 12.19h1.53v4.57H3.05Z" fill="#000000" stroke-width="1"></path>
    <path d="M3.05 7.62h1.53v1.52H3.05Z" fill="#000000" stroke-width="1"></path>
    <path d="M1.53 4.57h28.95v1.52H1.53Z" fill="#000000" stroke-width="1"></path>
    <path d="M1.53 24.38h1.52v1.52H1.53Z" fill="#000000" stroke-width="1"></path>
    <path d="M0 6.09h1.53v18.29H0Z" fill="#000000" stroke-width="1"></path>
  </g>
</svg>