<svg xmlns="http://www.w3.org/2000/svg" viewBox="0 0 32 32" id="Music-Notes-Music-2--Streamline-Pixel">
  <desc>
    Music Notes Music 2 Streamline Icon: https://streamlinehq.com
  </desc>
  <title>music-notes-music-2</title>
  <g>
    <path d="M30.48 19.81H32v3.05h-1.52Z" fill="#000000" stroke-width="1"></path>
    <path d="M30.48 13.72H32v1.52h-1.52Z" fill="#000000" stroke-width="1"></path>
    <path d="M30.48 10.67H32v1.52h-1.52Z" fill="#000000" stroke-width="1"></path>
    <path d="M30.48 7.62H32v1.53h-1.52Z" fill="#000000" stroke-width="1"></path>
    <path d="M28.96 18.29h1.52v1.52h-1.52Z" fill="#000000" stroke-width="1"></path>
    <path d="M28.96 12.19h1.52v1.53h-1.52Z" fill="#000000" stroke-width="1"></path>
    <path d="M28.96 9.15h1.52v1.52h-1.52Z" fill="#000000" stroke-width="1"></path>
    <path d="M28.96 1.53h1.52v3.04h-1.52Z" fill="#000000" stroke-width="1"></path>
    <path d="m27.43 16.76 0 -1.52 -1.52 0 0 10.67 -3.05 0 0 1.52 -1.52 0 0 3.05 1.52 0 0 1.52 3.05 0 0 -1.52 1.52 0 0 -12.19 1.53 0 0 -1.53 -1.53 0z" fill="#000000" stroke-width="1"></path>
    <path d="M27.43 4.57h1.53V6.1h-1.53Z" fill="#000000" stroke-width="1"></path>
    <path d="M25.91 0h3.05v1.53h-3.05Z" fill="#000000" stroke-width="1"></path>
    <path d="M25.91 6.1h1.52v1.52h-1.52Z" fill="#000000" stroke-width="1"></path>
    <path d="M24.38 7.62h1.53v1.53h-1.53Z" fill="#000000" stroke-width="1"></path>
    <path d="M24.38 1.53h1.53v1.52h-1.53Z" fill="#000000" stroke-width="1"></path>
    <path d="M22.86 12.19h1.52v1.53h-1.52Z" fill="#000000" stroke-width="1"></path>
    <path d="M22.86 6.1h1.52v1.52h-1.52Z" fill="#000000" stroke-width="1"></path>
    <path d="M21.34 0h3.04v1.53h-3.04Z" fill="#000000" stroke-width="1"></path>
    <path d="M21.34 19.81h1.52v3.05h-1.52Z" fill="#000000" stroke-width="1"></path>
    <path d="M21.34 13.72h1.52v1.52h-1.52Z" fill="#000000" stroke-width="1"></path>
    <path d="M21.34 10.67h1.52v1.52h-1.52Z" fill="#000000" stroke-width="1"></path>
    <path d="M21.34 4.57h1.52V6.1h-1.52Z" fill="#000000" stroke-width="1"></path>
    <path d="M18.29 22.86h3.05v1.52h-3.05Z" fill="#000000" stroke-width="1"></path>
    <path d="M18.29 18.29h3.05v1.52h-3.05Z" fill="#000000" stroke-width="1"></path>
    <path d="M19.81 12.19h1.53v1.53h-1.53Z" fill="#000000" stroke-width="1"></path>
    <path d="M19.81 1.53h1.53v3.04h-1.53Z" fill="#000000" stroke-width="1"></path>
    <path d="M16.77 19.81h1.52v3.05h-1.52Z" fill="#000000" stroke-width="1"></path>
    <path d="m16.77 30.48 0 -1.52 1.52 0 0 -1.53 -1.52 0 0 -1.52 -1.53 0 0 1.52 -1.52 0 0 1.53 1.52 0 0 1.52 1.53 0z" fill="#000000" stroke-width="1"></path>
    <path d="M12.19 0h3.05v1.53h-3.05Z" fill="#000000" stroke-width="1"></path>
    <path d="m12.19 9.15 0 1.52 -1.52 0 0 3.05 1.52 0 0 1.52 3.05 0 0 -1.52 1.53 0 0 -12.19 -1.53 0 0 7.62 -3.05 0z" fill="#000000" stroke-width="1"></path>
    <path d="M10.67 21.34h1.52v1.52h-1.52Z" fill="#000000" stroke-width="1"></path>
    <path d="M9.15 22.86h1.52v1.52H9.15Z" fill="#000000" stroke-width="1"></path>
    <path d="M9.15 19.81h1.52v1.53H9.15Z" fill="#000000" stroke-width="1"></path>
    <path d="M9.15 1.53h3.04v1.52H9.15Z" fill="#000000" stroke-width="1"></path>
    <path d="M7.62 27.43h1.53v1.53H7.62Z" fill="#000000" stroke-width="1"></path>
    <path d="M7.62 21.34h1.53v1.52H7.62Z" fill="#000000" stroke-width="1"></path>
    <path d="M6.1 25.91h1.52v1.52H6.1Z" fill="#000000" stroke-width="1"></path>
    <path d="M6.1 3.05h3.05v1.52H6.1Z" fill="#000000" stroke-width="1"></path>
    <path d="M4.58 27.43H6.1v1.53H4.58Z" fill="#000000" stroke-width="1"></path>
    <path d="m1.53 19.81 3.05 0 0 -1.52 1.52 0 0 -13.72 -1.52 0 0 9.15 -3.05 0 0 1.52 -1.53 0 0 3.05 1.53 0 0 1.52z" fill="#000000" stroke-width="1"></path>
    <path d="M3.05 25.91h1.53v1.52H3.05Z" fill="#000000" stroke-width="1"></path>
    <path d="M1.53 27.43h1.52v1.53H1.53Z" fill="#000000" stroke-width="1"></path>
  </g>
</svg>