<svg xmlns="http://www.w3.org/2000/svg" fill="none" viewBox="0 0 14 14" id="Dices-Entertainment-Gaming-Dices--Streamline-Core">
  <desc>
    Dices Entertainment Gaming Dices Streamline Icon: https://streamlinehq.com
  </desc>
  <g id="dices-entertainment-gaming-dices">
    <path id="Union" fill="#000000" fill-rule="evenodd" d="M0.25 1.25c0 -0.552285 0.447715 -1 1 -1h6.43667c0.55228 0 1 0.447715 1 1v2.81335H6.31335c-1.24264 0 -2.25 1.00736 -2.25 2.25v2.37332H1.25c-0.552285 0 -1 -0.44772 -1 -1V1.25Zm2.55146 2.49869c-0.01199 0.00057 -0.02405 0.00085 -0.03618 0.00085 -0.55951 0 -1.01308 -0.45357 -1.01308 -1.01307l0.00002 -0.00662 -0.00002 -0.00658c0 -0.55229 0.44771 -1 1 -1l0.01367 -0.00013c0.55951 0 1.01308 0.45357 1.01308 1.01308 0 0.5476 -0.43446 0.99372 -0.97749 1.01247Zm3.51189 1.56466c-0.55228 0 -1 0.44772 -1 1V12.75c0 0.5523 0.44772 1 1 1H12.75c0.5523 0 1 -0.4477 1 -1V6.31335c0 -0.55228 -0.4477 -1 -1 -1H6.31335Zm4.56815 3.65821c0.5523 0 1 -0.44772 1 -1 0 -0.55229 -0.4477 -1 -1 -1s-1.00003 0.44771 -1.00003 1c0 0.55228 0.44773 1 1.00003 1ZM9.18182 11.0918c0 0.5523 -0.44771 1 -1 1 -0.55228 0 -1 -0.4477 -1 -1s0.44772 -1 1 -1c0.55229 0 1 0.4477 1 1Z" clip-rule="evenodd" stroke-width="1"></path>
  </g>
</svg>