<svg xmlns="http://www.w3.org/2000/svg" fill="none" viewBox="0 0 14 14" id="Esports--Streamline-Core">
  <desc>
    Esports Streamline Icon: https://streamlinehq.com
  </desc>
  <g id="esports--entertainment-gaming-esports">
    <path id="Subtract" fill="#000000" fill-rule="evenodd" d="M3.46869 2.25617v1.2747c0 0.04571 0.00347 0.0906 0.01017 0.13443 0.00286 0.01871 0.0063 0.03722 0.01032 0.05552 0.02469 0.1126 0.07089 0.21715 0.13406 0.30913h-0.00002c0.1591 0.2317 0.4259 0.38365 0.7282 0.38365h0.74811l-0.00007 -0.00004h3.80107l-0.00008 0.00004h0.74733c0.3023 0 0.56912 -0.15195 0.72822 -0.38365h-0.0001c0.0975 -0.14197 0.1546 -0.31388 0.1546 -0.49912V1.28716c0 -0.0116 -0.0008 -0.02295 -0.0022 -0.03402 -0.0023 -0.01698 -0.0062 -0.03329 -0.0116 -0.0488 -0.0474 -0.13616 -0.2081 -0.210701 -0.348 -0.14075l-0.44721 0.2236 -0.41946 0.20973 -0.02152 0.01076 -0.51548 0.25774L7.17635 0.176739c-0.09763 -0.0976314 -0.25592 -0.0976309 -0.35355 0L5.23412 1.76542l-0.51543 -0.25772 -0.02152 -0.01076 -0.41947 -0.20974 -0.44721 -0.22361c-0.16622 -0.083109 -0.3618 0.03776 -0.3618 0.22361v0.96897ZM2.2795 4.03862c-0.45909 0.05227 -0.88502 0.33903 -1.06522 0.80779C0.865812 5.75293 0.558986 6.9731 0.341987 8.11499 0.126011 9.2515 -0.0102728 10.3592 0.000606679 11.0381 0.0128946 11.8049 0.130229 12.5157 0.510743 13.0397c0.408133 0.5621 1.042057 0.8119 1.846267 0.8119 0.07768 0 0.15429 -0.0181 0.22375 -0.0529 0.60472 -0.3026 1.11798 -0.8834 1.54694 -1.4149 0.12941 -0.1604 0.25161 -0.3166 0.3689 -0.4666l0.00008 -0.0001 0.00001 0c0.24975 -0.3194 0.47721 -0.6103 0.70437 -0.8513H8.7906c0.20516 0.2313 0.41232 0.511 0.64087 0.8196l0.00002 0.0001c0.11654 0.1573 0.23866 0.3222 0.3689 0.492 0.40901 0.5333 0.90731 1.1251 1.49921 1.4212 0.0694 0.0348 0.146 0.0529 0.2237 0.0529 0.8024 0 1.4544 -0.2476 1.8916 -0.7929 0.4182 -0.5215 0.5719 -1.2341 0.5845 -2.0206 0.0108 -0.6737 -0.1233 -1.76944 -0.3363 -2.8961 -0.214 -1.13227 -0.5167 -2.34375 -0.8609 -3.25228 -0.1829 -0.48275 -0.6142 -0.7812 -1.0837 -0.84628 -0.2295 0.9303 -1.0695 1.62016 -2.07072 1.62016H4.35142c-1.00291 0 -1.84413 -0.69224 -2.07192 -1.62498Zm3.32886 4.57351c0 0.72169 -0.58505 1.30674 -1.30674 1.30674 -0.7217 0 -1.30675 -0.58505 -1.30675 -1.30674 0 -0.7217 0.58505 -1.30675 1.30675 -1.30675 0.72169 0 1.30674 0.58505 1.30674 1.30675Zm4.09005 1.30674c0.72169 0 1.30679 -0.58505 1.30679 -1.30674 0 -0.7217 -0.5851 -1.30675 -1.30679 -1.30675 -0.7217 0 -1.30675 0.58505 -1.30675 1.30675 0 0.72169 0.58505 1.30674 1.30675 1.30674Z" clip-rule="evenodd" stroke-width="1"></path>
  </g>
</svg>