<svg xmlns="http://www.w3.org/2000/svg" fill="none" viewBox="0 0 14 14" id="Gameboy--Streamline-Core">
  <desc>
    Gameboy Streamline Icon: https://streamlinehq.com
  </desc>
  <g id="gameboy--entertainment-gaming-device-gameboy">
    <path id="Subtract" fill="#000000" fill-rule="evenodd" d="M11.5576 14c0.5523 0 1 -0.4477 1 -1V1c0 -0.552285 -0.4477 -1 -1 -1H2.44202c-0.55229 0 -1 0.447715 -1 1v12c0 0.5523 0.44771 1 1 1h9.11558ZM9.41209 7.60837c0.55228 0 1.00001 -0.44772 1.00001 -1V2.92622c0 -0.55228 -0.44773 -1 -1.00001 -1H4.58851c-0.55228 0 -1 0.44772 -1 1v3.68215c0 0.55228 0.44772 1 1 1h4.82358ZM4.27441 11.5444c0 0.3452 0.27983 0.625 0.625 0.625 0.34518 0 0.625 -0.2798 0.625 -0.625v-0.3347h0.33505c0.34517 0 0.625 -0.2798 0.625 -0.625s-0.27983 -0.62498 -0.625 -0.62498h-0.33505v-0.3348c0 -0.34518 -0.27982 -0.625 -0.625 -0.625 -0.34517 0 -0.625 0.27982 -0.625 0.625v0.3348h-0.33447c-0.34518 0 -0.625 0.27978 -0.625 0.62498s0.27982 0.625 0.625 0.625h0.33447v0.3347ZM9.5 11.4708c0.5523 0 1 -0.4477 1 -1s-0.4477 -1.00001 -1 -1.00001c-0.55228 0 -1 0.44771 -1 1.00001s0.44772 1 1 1Z" clip-rule="evenodd" stroke-width="1"></path>
  </g>
</svg>