<svg xmlns="http://www.w3.org/2000/svg" fill="none" viewBox="0 0 14 14"><g id="nintendo-switch--nintendo-switch-entertainment-gaming"><path id="Subtract" fill="#3e3e3e" fill-rule="evenodd" d="M10.415 14a3.5 3.5 0 0 0 3.5-3.5v-7a3.5 3.5 0 0 0-3.5-3.5H8.242a.5.5 0 0 0-.5.5v13a.5.5 0 0 0 .5.5h2.173Zm.272-3.912a1.523 1.523 0 1 0 0-3.047 1.523 1.523 0 0 0 0 3.047Z" clip-rule="evenodd"></path><path id="Subtract_2" fill="#3e3e3e" fill-rule="evenodd" d="M3.528 0a3.5 3.5 0 0 0-3.5 3.5v7a3.5 3.5 0 0 0 3.5 3.5h2.173a.5.5 0 0 0 .5-.5V.5a.5.5 0 0 0-.5-.5H3.528Zm-.272 3.147a1.523 1.523 0 1 0 0 3.047 1.523 1.523 0 0 0 0-3.047Z" clip-rule="evenodd"></path></g></svg>