<svg xmlns="http://www.w3.org/2000/svg" fill="none" viewBox="0 0 14 14" id="One-Vesus-One--Streamline-Core">
  <desc>
    One Vesus One Streamline Icon: https://streamlinehq.com
  </desc>
  <g id="one-vesus-one--entertainment-gaming-one-vesus-one">
    <path id="Union" fill="#000000" fill-rule="evenodd" d="M5 6a3 3 0 1 0 0 -6 3 3 0 0 0 0 6Zm5.852 6.095 0.103 0.307a1.306 1.306 0 0 0 2.537 -0.557l-0.202 -1.817a2.4 2.4 0 0 0 -2.386 -2.136H7.991c-1.223 0 -2.25 0.92 -2.386 2.136l-0.202 1.816a1.306 1.306 0 0 0 2.538 0.558l0.102 -0.307c0.12 -0.359 0.455 -0.6 0.833 -0.6h1.143c0.378 0 0.714 0.241 0.833 0.6ZM4.362 9.89A3.65 3.65 0 0 1 6.16 7.135 5 5 0 0 0 0 12a0.5 0.5 0 0 0 0.5 0.5h3.696a2.557 2.557 0 0 1 -0.035 -0.793l0.202 -1.817Z" clip-rule="evenodd" stroke-width="1"></path>
  </g>
</svg>