<svg xmlns="http://www.w3.org/2000/svg" fill="none" viewBox="0 0 14 14" id="Pacman--Streamline-Core">
  <desc>
    Pacman Streamline Icon: https://streamlinehq.com
  </desc>
  <g id="pacman--entertainment-gaming-pacman-video">
    <path id="Subtract" fill="#000000" fill-rule="evenodd" d="M0.375 7C0.375 3.34111 3.34111 0.375 7 0.375c2.38452 0 4.4743 1.2601 5.6405 3.14834 0.0697 0.1129 0.0917 0.24888 0.0611 0.378 -0.0306 0.12911 -0.1113 0.24078 -0.2242 0.31039L7.95302 7l4.52438 2.78827c0.1129 0.06961 0.1936 0.18128 0.2242 0.31043 0.0306 0.1291 0.0086 0.2651 -0.0611 0.378C11.4743 12.3649 9.38452 13.625 7 13.625 3.34111 13.625 0.375 10.6589 0.375 7ZM6 5c0.55228 0 1 -0.44772 1 -1s-0.44772 -1 -1 -1 -1 0.44772 -1 1 0.44772 1 1 1Z" clip-rule="evenodd" stroke-width="1"></path>
  </g>
</svg>