<svg xmlns="http://www.w3.org/2000/svg" fill="none" viewBox="0 0 14 14" id="Party-Popper--Streamline-Core">
  <desc>
    Party Popper Streamline Icon: https://streamlinehq.com
  </desc>
  <g id="party-popper--hobby-entertainment-party-popper-confetti-event">
    <path id="Union" fill="#000000" fill-rule="evenodd" d="M6.87557 0.201461c0.39138 0.135628 0.59871 0.562851 0.46308 0.954229 -0.28814 0.8315 -0.25064 1.73164 0.10726 2.54086 0.16754 0.37882 -0.00373 0.82173 -0.38255 0.98927 -0.37881 0.16755 -0.82173 -0.00372 -0.98927 -0.38254 -0.51083 -1.155 -0.56559 -2.44741 -0.15275 -3.638739 0.13563 -0.39138 0.56286 -0.5987078 0.95423 -0.46308ZM4.52306 2.8832c0.05704 -0.41026 -0.22931 -0.78909 -0.63958 -0.84613 -0.41027 -0.05703 -0.78909 0.22931 -0.84613 0.63958 -0.09574 0.68862 0.06354 1.38849 0.44786 1.96786 0.22896 0.34518 0.6944 0.43938 1.03957 0.21042 0.34518 -0.22897 0.43939 -0.69441 0.21042 -1.03958 -0.18204 -0.27444 -0.25749 -0.60596 -0.21214 -0.93215Zm5.88474 1.40693c-0.2733 -0.07032 -0.55995 -0.07049 -0.83334 -0.00051 -0.27339 0.06999 -0.52469 0.20787 -0.73059 0.40085l-0.01163 0.01126 -3.9113 3.9113 -0.00003 -0.00003 -0.00491 0.00505c-0.19493 0.20049 -0.33628 0.44681 -0.41105 0.71627 -0.07476 0.26945 -0.08053 0.55339 -0.01678 0.82568 0.06375 0.2722 0.19498 0.5241 0.38159 0.7324 0.18557 0.207 0.41997 0.3644 0.68184 0.4577l6.232 2.323 0 0.0001 0.0076 0.0027c0.2876 0.1019 0.5979 0.1215 0.896 0.0566 0.2981 -0.0649 0.5722 -0.2117 0.7914 -0.4239 0.2192 -0.2122 0.3748 -0.4814 0.4493 -0.7772 0.0745 -0.2959 0.0649 -0.6066 -0.0276 -0.8974 -0.0024 -0.0075 -0.005 -0.0149 -0.0077 -0.0223l-2.3118 -6.22686c-0.0878 -0.26413 -0.24 -0.50231 -0.4429 -0.69297 -0.2057 -0.19324 -0.4568 -0.33142 -0.7301 -0.40174Zm-7.12853 3.6198c-0.31535 -0.07161 -0.64605 -0.02405 -0.92844 0.13354 -0.36171 0.20185 -0.81856 0.07226 -1.0204 -0.28945 -0.20185 -0.3617 -0.07226 -0.81855 0.28944 -1.0204 0.60574 -0.33803 1.31511 -0.44006 1.99156 -0.28646 0.40393 0.09173 0.65702 0.49353 0.5653 0.89746 -0.09172 0.40393 -0.49352 0.65703 -0.89746 0.56531ZM1.06464 3.4999c-0.552289 0 -1.0000038 0.44771 -1.0000038 1 0 0.55228 0.4477148 1 1.0000038 1 0.55228 0 1 -0.44772 1 -1 0 -0.55229 -0.44772 -1 -1 -1Z" clip-rule="evenodd" stroke-width="1"></path>
  </g>
</svg>