<svg xmlns="http://www.w3.org/2000/svg" fill="none" viewBox="0 0 14 14"><g id="play-list-folder--player-television-movies-slider-media-tv-players-video"><path id="Union" fill="#3e3e3e" fill-rule="evenodd" d="M5.183.75a1.5 1.5 0 0 1 1.492 1.14l.215.86h5.61a1.5 1.5 0 0 1 1.5 1.5v2.975a4.531 4.531 0 0 0-.254-.248 4.83 4.83 0 0 0-3.238-1.228 2 2 0 0 0-2 2V9.6a2.926 2.926 0 0 0-1.699 3.65H1.5a1.5 1.5 0 0 1-1.5-1.5v-9.5A1.5 1.5 0 0 1 1.5.75h3.683Zm4.795 6.468a.75.75 0 0 1 .53-.22 3.58 3.58 0 0 1 2.4.906 3.068 3.068 0 0 1 1.032 2.273.75.75 0 1 1-1.5 0c0-.42-.184-.84-.54-1.161a1.97 1.97 0 0 0-.642-.385v3.691a1.675 1.675 0 1 1-1.5-1.666V7.75a.75.75 0 0 1 .22-.53Z" clip-rule="evenodd"></path></g></svg>