<svg xmlns="http://www.w3.org/2000/svg" fill="none" viewBox="0 0 14 14" id="Radio--Streamline-Core">
  <desc>
    Radio Streamline Icon: https://streamlinehq.com
  </desc>
  <g id="radio--antenna-audio-music-radio-entertainment">
    <path id="Subtract" fill="#000000" fill-rule="evenodd" d="M13.362 1.49833c0.3971 -0.11793 0.6234 -0.535421 0.5054 -0.932492 -0.1179 -0.39707 -0.5354 -0.6233577 -0.9325 -0.5054267L1.31644 3.51113C0.5746 3.60165 0 4.23373 0 5.00001V5.875h14l0 -0.87499c0 -0.82842 -0.6716 -1.5 -1.5 -1.5H6.62238L13.362 1.49833ZM14 7.125H0V12.5c0 0.8284 0.671573 1.5 1.5 1.5h11c0.8284 0 1.5 -0.6716 1.5 -1.5l0 -5.375Zm-9.66232 5.2059c1.0112 0 1.83094 -0.8197 1.83094 -1.8309 0 -1.01119 -0.81974 -1.83093 -1.83094 -1.83093S2.50674 9.48881 2.50674 10.5c0 1.0112 0.81974 1.8309 1.83094 1.8309ZM9.5 8.80676c-0.34518 0 -0.625 0.27983 -0.625 0.625 0 0.34518 0.27982 0.62504 0.625 0.62504H11c0.3452 0 0.625 -0.27986 0.625 -0.62504 0 -0.34517 -0.2798 -0.625 -0.625 -0.625H9.5Zm-0.625 3.12504c0 -0.3452 0.27982 -0.625 0.625 -0.625H11c0.3452 0 0.625 0.2798 0.625 0.625 0 0.3451 -0.2798 0.625 -0.625 0.625H9.5c-0.34518 0 -0.625 -0.2799 -0.625 -0.625Z" clip-rule="evenodd" stroke-width="1"></path>
  </g>
</svg>