<svg xmlns="http://www.w3.org/2000/svg" fill="none" viewBox="0 0 14 14" id="Speaker-1--Streamline-Core">
  <desc>
    Speaker 1 Streamline Icon: https://streamlinehq.com
  </desc>
  <g id="speaker-1--speaker-music-audio-subwoofer-entertainment">
    <path id="Union" fill="#000000" fill-rule="evenodd" d="M2.52605 0.112586C2.19173 0.026935 1.84087 0.029829 1.50801 0.120983 1.17516 0.212137 0.871774 0.388408 0.627741 0.632441 0.383708 0.876474 0.207437 1.17986 0.116283 1.51271c-0.0911537 0.33286 -0.0940477 0.68372 -0.008397 1.01804 0.085651 0.33432 0.256894 0.64057 0.496868 0.88859 0.092551 0.09566 0.194095 0.18138 0.302934 0.25615 -0.531596 0.97339 -0.8240111 2.06166 -0.8501439 3.1744C0.0321282 7.93209 0.262956 9.00801 0.729416 9.98294 -0.0700083 10.682 -0.17315 11.9409 0.519981 12.7588c0.733569 0.8657 2.060479 0.8882 2.861929 0.1686 1.08593 0.6668 2.33789 1.0221 3.61808 1.0221 1.27963 0 2.53105 -0.355 3.61661 -1.0212 0.8336 0.7557 2.2152 0.679 2.9298 -0.2729 0.6293 -0.8383 0.4701 -2.0098 -0.277 -2.67006 0.2272 -0.4742 0.3988 -0.97186 0.5121 -1.48301 0.1987 -0.89671 0.2141 -1.84011 0.0493 -2.74141 -0.1332 -0.72861 -0.3821 -1.43283 -0.7385 -2.08543 0.1088 -0.07477 0.2104 -0.16049 0.3029 -0.25615 0.24 -0.24802 0.4113 -0.55427 0.4969 -0.88859 0.0857 -0.33432 0.0828 -0.68518 -0.0084 -1.01804 -0.0911 -0.33285 -0.2674 -0.636235 -0.5115 -0.880269 -0.244 -0.244033 -0.5474 -0.420304 -0.8802 -0.511458 -0.3329 -0.091154 -0.6837 -0.094048 -1.0181 -0.008397 -0.3343 0.085651 -0.6405 0.256894 -0.8886 0.496868 -0.0955 0.092401 -0.1811 0.193765 -0.2557 0.302404C9.31142 0.354543 8.16672 0.0602197 6.99999 0.0602197c-1.16672 0 -2.31142 0.2943233 -3.32957 0.8516363 -0.07468 -0.108638 -0.16028 -0.210002 -0.25578 -0.302402C3.16662 0.36948 2.86037 0.198237 2.52605 0.112586ZM6.99999 11.0426c2.23006 0 4.03791 -1.80785 4.03791 -4.03791S9.23005 2.96681 6.99999 2.96681 2.96211 4.77463 2.96211 7.00469c0 2.23006 1.80782 4.03791 4.03788 4.03791ZM5.44971 7.00471c0 -0.8562 0.69409 -1.55029 1.55029 -1.55029s1.55029 0.69409 1.55029 1.55029S7.8562 8.555 7 8.555s-1.55029 -0.69409 -1.55029 -1.55029Z" clip-rule="evenodd" stroke-width="1"></path>
  </g>
</svg>