<svg xmlns="http://www.w3.org/2000/svg" fill="none" viewBox="0 0 14 14" id="Tape-Cassette-Record--Streamline-Core">
  <desc>
    Tape Cassette Record Streamline Icon: https://streamlinehq.com
  </desc>
  <g id="tape-cassette-record--music-entertainment-tape-cassette-record">
    <path id="Union" fill="#000000" fill-rule="evenodd" d="M0 3c0 -0.82843 0.671573 -1.5 1.5 -1.5h11c0.8284 0 1.5 0.67157 1.5 1.5v8c0 0.8284 -0.6716 1.5 -1.5 1.5h-11C0.671573 12.5 0 11.8284 0 11V3Zm9.50001 6.5h-5L3.9 11h6.2l-0.59999 -1.5ZM2 5.75C2 4.7835 2.7835 4 3.75 4h6.5c0.9665 0 1.75 0.7835 1.75 1.75s-0.7835 1.75 -1.75 1.75h-6.5C2.7835 7.5 2 6.7165 2 5.75ZM3.75 5c-0.41421 0 -0.75 0.33579 -0.75 0.75s0.33579 0.75 0.75 0.75h0.91466c0.20789 -0.18396 0.33789 -0.4519 0.33789 -0.75005 0 -0.2981 -0.12995 -0.56599 -0.33777 -0.74995H3.75Zm4.39283 1.5H5.85717c0.09371 -0.23158 0.14538 -0.48477 0.14538 -0.75005 0 -0.26525 -0.05166 -0.5184 -0.14534 -0.74995h2.28558c-0.09368 0.23155 -0.14534 0.4847 -0.14534 0.74995 0 0.26528 0.05167 0.51847 0.14538 0.75005Zm1.19251 0H10.25c0.4142 0 0.75 -0.33579 0.75 -0.75S10.6642 5 10.25 5h-0.91478c-0.20782 0.18396 -0.33777 0.45185 -0.33777 0.74995 0 0.29815 0.13 0.56609 0.33789 0.75005Z" clip-rule="evenodd" stroke-width="1"></path>
  </g>
</svg>