<svg xmlns="http://www.w3.org/2000/svg" fill="none" viewBox="0 0 14 14" id="Vr-Headset-1--Streamline-Core">
  <desc>
    Vr Headset 1 Streamline Icon: https://streamlinehq.com
  </desc>
  <g id="vr-headset-1--entertainment-gaming-vr-headset">
    <path id="Subtract" fill="#000000" fill-rule="evenodd" d="M6.07142 0C3.0901 0 0.610663 2.14883 0.0974268 4.98218l4.7084332 0C5.09999 3.3718 6.5102 2.15112 8.20552 2.15112h2.50208C9.59436 0.835938 7.93071 0 6.07142 0ZM2.7857 11.1777C1.15266 10.1249 0.056053 8.30853 0.0020752 6.23218l4.8037948 0c0.29416 1.61034 1.70436 2.83098 3.39965 2.83098h3.93728V10.25c0 0.789 -0.6395 1.4286 -1.4285 1.4286H9.35713V13.5c0 0.2761 -0.22386 0.5 -0.5 0.5H3.2857c-0.27614 0 -0.5 -0.2239 -0.5 -0.5v-2.3223Zm9.345 -3.36454H12.5c0.0345 0 0.0686 -0.00175 0.1022 -0.00516 0.5043 -0.05121 0.8978 -0.47707 0.8978 -0.99484V4.40112c0 -0.55228 -0.4477 -1 -1 -1H9.94643v4.41204h2.18427Zm-3.43427 0V3.40112h-0.49091c-1.21835 0 -2.20602 0.98767 -2.20602 2.20602s0.98767 2.20602 2.20602 2.20602h0.49091Z" clip-rule="evenodd" stroke-width="1"></path>
  </g>
</svg>