<svg xmlns="http://www.w3.org/2000/svg" fill="none" viewBox="0 0 24 24" id="Box-Logo--Streamline-Logos">
  <desc>
    Box Logo Streamline Icon: https://streamlinehq.com
  </desc>
  <path fill="#000000" fill-rule="evenodd" d="M2.25 7a0.75 0.75 0 0 0 -1.5 0v6.5a4.25 4.25 0 0 0 8 2.002 4.25 4.25 0 1 0 0 -4.004 4.25 4.25 0 0 0 -6.5 -1.239V7Zm0 6.5a2.75 2.75 0 1 0 5.5 0 2.75 2.75 0 0 0 -5.5 0Zm7.5 0a2.75 2.75 0 1 1 5.5 0 2.75 2.75 0 0 1 -5.5 0Zm6.766 -3.573a0.75 0.75 0 0 1 1.057 0.089l2.177 2.573 2.177 -2.573a0.75 0.75 0 1 1 1.146 0.969l-2.34 2.765 2.34 2.766a0.75 0.75 0 0 1 -1.146 0.969L19.75 14.91l-2.177 2.574a0.75 0.75 0 0 1 -1.146 -0.97l2.34 -2.765 -2.34 -2.765a0.75 0.75 0 0 1 0.089 -1.058Z" clip-rule="evenodd" stroke-width="1"></path>
</svg>