<svg xmlns="http://www.w3.org/2000/svg" fill="none" viewBox="0 0 24 24" id="Evernote-Logo--Streamline-Logos">
  <desc>
    Evernote Logo Streamline Icon: https://streamlinehq.com
  </desc>
  <path fill="#000000" fill-rule="evenodd" d="M7.75 1.067a0.5 0.5 0 0 0 -0.119 0.095l-5.5 6a0.5 0.5 0 0 0 -0.064 0.088H6.5c0.69 0 1.25 -0.56 1.25 -1.25V1.067ZM2 8.75V11a6.5 6.5 0 0 0 6.5 6.5h0.34a2.5 2.5 0 0 0 2.17 -1.26l1.05 -1.838a4.116 4.116 0 0 0 1.983 1.304c1.683 0.523 2.957 1.62 2.957 3.127 0 0.645 -0.522 1.167 -1.167 1.167H14.75a0.25 0.25 0 1 1 0 -0.5 1.25 1.25 0 1 0 0 -2.5h-0.417a2.833 2.833 0 0 0 -2.833 2.833V20a3 3 0 0 0 3 3h2a4.5 4.5 0 0 0 4.5 -4.5v-7c0 -1.748 -0.235 -3.573 -0.476 -4.992 -0.31 -1.813 -1.786 -3.131 -3.565 -3.405l-3.581 -0.55 -0.176 -0.527A1.5 1.5 0 0 0 11.78 1H9.25v5A2.75 2.75 0 0 1 6.5 8.75H2ZM15.75 11a0.75 0.75 0 0 1 0.75 -0.75h1a0.75 0.75 0 0 1 0 1.5h-1a0.75 0.75 0 0 1 -0.75 -0.75Z" clip-rule="evenodd" stroke-width="1"></path>
</svg>