<svg xmlns="http://www.w3.org/2000/svg" fill="none" viewBox="0 0 24 24" id="Nuke-Logo--Streamline-Logos">
  <desc>
    Nuke Logo Streamline Icon: https://streamlinehq.com
  </desc>
  <path fill="#000000" fill-rule="evenodd" d="M23 12c0 6.075 -4.925 11 -11 11S1 18.075 1 12 5.925 1 12 1s11 4.925 11 11Zm-8.306 -8.064a0.5 0.5 0 0 0 -0.659 0.474v2.097a0.5 0.5 0 0 1 -0.5 0.5H12.4a0.5 0.5 0 0 1 -0.345 -0.138L9.293 4.24a0.5 0.5 0 0 0 -0.535 -0.1 8.526 8.526 0 0 0 -4.701 4.828 0.5 0.5 0 0 0 0.467 0.678h5.722a0.5 0.5 0 0 1 0.372 0.166l3.27 3.643a0.5 0.5 0 0 1 0.127 0.359l-0.297 5.85a0.5 0.5 0 0 0 0.638 0.505 8.52 8.52 0 0 0 5.37 -4.619 0.5 0.5 0 0 0 -0.096 -0.557l-2.48 -2.558a0.5 0.5 0 0 1 -0.141 -0.348v-1.94a0.5 0.5 0 0 1 0.5 -0.5h1.967a0.5 0.5 0 0 0 0.467 -0.679 8.522 8.522 0 0 0 -5.25 -5.032Zm-0.002 7.088c-0.53 0.156 -1.113 -0.238 -1.302 -0.88 -0.19 -0.641 0.086 -1.289 0.616 -1.445 0.53 -0.156 1.113 0.237 1.302 0.88 0.19 0.641 -0.086 1.288 -0.616 1.445Z" clip-rule="evenodd" stroke-width="1"></path>
</svg>