<svg xmlns="http://www.w3.org/2000/svg" fill="none" viewBox="0 0 24 24" id="Whitesource-Logo-2--Streamline-Logos">
  <desc>
    Whitesource Logo 2 Streamline Icon: https://streamlinehq.com
  </desc>
  <path fill="#000000" fill-rule="evenodd" d="M4.667 9.067v1.7H3.2v1h17.6v-1h-1.467v-1.7a7.328 7.328 0 0 0 -3.4 -6.191v6.19h-1V1.734A0.733 0.733 0 0 0 14.2 1H9.8a0.733 0.733 0 0 0 -0.733 0.733v7.334h-1V2.876a7.328 7.328 0 0 0 -3.4 6.19ZM4.633 13.5H3.2v3h2.07c0.23 0.518 0.52 1.004 0.859 1.45l-1.412 1.412 2.121 2.122 1.558 -1.558a7.315 7.315 0 0 0 2.104 0.788V23h3v-2.286a7.314 7.314 0 0 0 2.104 -0.788l1.558 1.558 2.121 -2.122 -1.412 -1.412c0.339 -0.446 0.628 -0.932 0.86 -1.45H20.8v-3h-4.433a4.367 4.367 0 1 1 -8.734 0h-3Z" clip-rule="evenodd" stroke-width="1"></path>
</svg>