<svg xmlns="http://www.w3.org/2000/svg" fill="none" viewBox="0 0 24 24" id="Z-Wave-Logo--Streamline-Logos">
  <desc>
    Z Wave Logo Streamline Icon: https://streamlinehq.com
  </desc>
  <path fill="#000000" fill-rule="evenodd" d="M16.75 3C9.156 3 3 9.156 3 16.75H1C1 8.052 8.052 1 16.75 1v2Zm0 4.25a9.5 9.5 0 0 0 -9.5 9.5h-2c0 -6.351 5.149 -11.5 11.5 -11.5v2Zm6.25 9.5a6.25 6.25 0 1 1 -12.5 0 6.25 6.25 0 0 1 12.5 0Zm-8.5 -3.25 -1 2H16l-2.5 4h5l1.5 -2h-2.5l2.5 -4h-5.5Z" clip-rule="evenodd" stroke-width="1"></path>
</svg>