<svg xmlns="http://www.w3.org/2000/svg" fill="none" viewBox="0 0 24 24" id="Hotel-Three-Star--Streamline-Sharp">
  <desc>
    Hotel Three Star Streamline Icon: https://streamlinehq.com
  </desc>
  <g id="hotel-three-star--three-stars-reviews-review-rating-hotel-star">
    <path id="Vector 2431" stroke="#000000" d="M10.234 11.234v-0.484a1 1 0 0 1 1 -1h1.485a1 1 0 0 1 1 1v0.734a1 1 0 0 1 -1 1H10.75" stroke-width="1.5"></path>
    <path id="Vector 2432" stroke="#000000" d="M10 13.986v0.764a1 1 0 0 0 1 1h2a1 1 0 0 0 1 -1V13.5a1 1 0 0 0 -1 -1h-2.408" stroke-width="1.5"></path>
    <path id="Vector" stroke="#000000" d="M8.5 8 12 2.5 15.5 8 22 9l-4.5 5 1 7.5 -6.5 -3 -6.5 3 1 -7.5L2 9l6.5 -1Z" stroke-width="1.5"></path>
  </g>
</svg>