<svg xmlns="http://www.w3.org/2000/svg" fill="none" viewBox="0 0 48 48" id="Archive-Box--Streamline-Plump">
  <desc>
    Archive Box Streamline Icon: https://streamlinehq.com
  </desc>
  <g id="archive-box--box-content-banker-archive-file">
    <path id="Union" fill="#000000" fill-rule="evenodd" d="M7.79862 2.95034C11.1105 2.73162 16.4093 2.5 23.9993 2.5c7.5899 0 12.8888 0.23162 16.2006 0.45035 3.2495 0.21461 5.868 2.64416 6.17 5.94442 0.0241 0.2636 0.0481 0.53972 0.0718 0.82852C46.6563 12.3408 44.5589 14.5 41.9951 14.5H6.00343c-2.56372 0 -4.6612 -2.1591 -4.44655 -4.77671 0.02369 -0.2888 0.04769 -0.56491 0.07181 -0.82852 0.30193 -3.30025 2.92042 -5.72982 6.16993 -5.94443ZM41.9951 17H6.00338c-0.51449 0 -1.01777 -0.0563 -1.50338 -0.1632v9.163c0 5.9026 0.20616 10.1684 0.41862 12.9974 0.24755 3.2964 2.78766 5.8365 6.08398 6.084 2.829 0.2125 7.0948 0.4186 12.9974 0.4186 5.9026 0 10.1684 -0.2061 12.9974 -0.4186 3.2963 -0.2475 5.8364 -2.7876 6.084 -6.084 0.2124 -2.829 0.4186 -7.0948 0.4186 -12.9974v-9.1634c-0.4861 0.1072 -0.9899 0.1636 -1.5049 0.1636Zm-26.9822 9.5855c0.0646 1.434 1.3001 2.3159 2.7352 2.3501C19.1419 28.9688 21.1968 29 24 29s4.8581 -0.0312 6.2519 -0.0644c1.4351 -0.0342 2.6706 -0.9161 2.7352 -2.3501 0.0083 -0.1831 0.0129 -0.3782 0.0129 -0.5855 0 -0.2074 -0.0046 -0.4024 -0.0129 -0.5855 -0.0646 -1.434 -1.3001 -2.3159 -2.7352 -2.3501C28.8581 23.0312 26.8032 23 24 23s-4.8581 0.0312 -6.2519 0.0644c-1.4351 0.0342 -2.6706 0.9161 -2.7352 2.3501 -0.0083 0.1831 -0.0129 0.3781 -0.0129 0.5855 0 0.2073 0.0046 0.4024 0.0129 0.5855Z" clip-rule="evenodd" stroke-width="1"></path>
  </g>
</svg>