<svg xmlns="http://www.w3.org/2000/svg" fill="none" viewBox="0 0 48 48" id="Arrow-Roadmap--Streamline-Plump">
  <desc>
    Arrow Roadmap Streamline Icon: https://streamlinehq.com
  </desc>
  <g id="arrow-roadmap">
    <path id="Union" fill="#000000" d="M8.45963 10.5H4c-1.38071 0 -2.5 -1.11929 -2.5 -2.5S2.61929 5.5 4 5.5h4.45963C9.46605 2.86863 12.0148 1 15 1c2.9852 0 5.5339 1.86863 6.5404 4.5H35c5.799 0 10.5 4.701 10.5 10.5 0 5.2604 -3.8683 9.6172 -8.9154 10.3812C35.6102 29.075 33.0299 31 30 31c-2.9852 0 -5.5339 -1.8686 -6.5404 -4.5H13c-3.03757 0 -5.5 2.4624 -5.5 5.5 0 2.5314 1.71017 4.6634 4.0382 5.3036C12.5941 34.7761 15.0896 33 18 33c2.9852 0 5.5339 1.8686 6.5404 4.5h11.0582c0.1051 -0.7555 0.2588 -1.4922 0.4609 -2.1929 0.215 -0.7452 0.7636 -1.3484 1.4851 -1.6329 0.7215 -0.2844 1.5342 -0.2179 2.1999 0.1801l0.0155 0.0093 0.037 0.0223 0.0523 0.0316 0.0819 0.0499c0.1146 0.07 0.2782 0.1706 0.479 0.2963 0.4009 0.2509 0.9544 0.6043 1.5662 1.0151 1.1748 0.789 2.7378 1.9038 3.7881 2.9501 0.4708 0.4691 0.7355 1.1065 0.7355 1.7712 0 0.6647 -0.2647 1.302 -0.7356 1.7711 -1.0504 1.0463 -2.6133 2.1611 -3.7882 2.9501 -0.6117 0.4108 -1.1652 0.7642 -1.566 1.015 -0.2008 0.1257 -0.3644 0.2263 -0.479 0.2963 -0.0574 0.035 -0.1026 0.0624 -0.1342 0.0815l-0.037 0.0223 -0.0148 0.0089c-0.6656 0.398 -1.4791 0.4649 -2.2006 0.1805 -0.7215 -0.2845 -1.2701 -0.8877 -1.4851 -1.6329 -0.2021 -0.7007 -0.3558 -1.4374 -0.4609 -2.1929H24.5404C23.5339 45.1314 20.9852 47 18 47c-3.0299 0 -5.6102 -1.925 -6.5846 -4.6188C6.36829 41.6172 2.5 37.2604 2.5 32c0 -5.799 4.70101 -10.5 10.5 -10.5h10.4596C24.4661 18.8686 27.0148 17 30 17c2.9104 0 5.4059 1.7761 6.4618 4.3036C38.7898 20.6634 40.5 18.5314 40.5 16c0 -3.0376 -2.4624 -5.5 -5.5 -5.5H21.5404C20.5339 13.1314 17.9852 15 15 15s-5.53395 -1.8686 -6.54037 -4.5Z" stroke-width="1"></path>
  </g>
</svg>