<svg xmlns="http://www.w3.org/2000/svg" fill="none" viewBox="0 0 48 48" id="Arrow-Right-Circle-1--Streamline-Plump">
  <desc>
    Arrow Right Circle 1 Streamline Icon: https://streamlinehq.com
  </desc>
  <g id="arrow-right-circle-1--arrow-keyboard-circle-button-right">
    <path id="Subtract" fill="#000000" fill-rule="evenodd" d="M46.5 24C46.5 11.5736 36.4264 1.5 24 1.5S1.5 11.5736 1.5 24 11.5736 46.5 24 46.5 46.5 36.4264 46.5 24Zm-22.3535 0.3534c0.1952 -0.1953 0.1952 -0.5119 -0.0001 -0.7071L17.648 17.148c-0.9696 -0.9696 -1.1688 -2.4864 -0.2894 -3.5385 0.7007 -0.8384 1.5361 -1.6733 2.3917 -2.275 1.0074 -0.7085 2.3018 -0.3763 3.218 0.447 3.2735 2.9417 7.6021 7.3282 9.7784 10.2109 0.9194 1.2178 0.9194 2.7971 0.0001 4.0149 -2.1763 2.8829 -6.505 7.2695 -9.7785 10.2112 -0.9162 0.8233 -2.2106 1.1555 -3.218 0.447 -0.8557 -0.6018 -1.691 -1.4366 -2.3918 -2.2751 -0.8793 -1.052 -0.6801 -2.5688 0.2894 -3.5384l6.4986 -6.4986Z" clip-rule="evenodd" stroke-width="1"></path>
  </g>
</svg>