<svg xmlns="http://www.w3.org/2000/svg" fill="none" viewBox="0 0 48 48" id="Calendar-Heart--Streamline-Plump">
  <desc>
    Calendar Heart Streamline Icon: https://streamlinehq.com
  </desc>
  <g id="calendar-heart--calendar-date-day-favorite-heart-like-month">
    <path id="Subtract" fill="#000000" fill-rule="evenodd" d="M38.4518 5.57172c0.0194 0.48315 0.0353 1.03229 0.043 1.63805 0.6027 0.06729 1.1532 0.13523 1.6521 0.20173 2.8617 0.38146 5.0685 2.55403 5.479 5.4181 0.4172 2.9112 0.8741 7.5068 0.8741 13.6704 0 6.1636 -0.4569 10.7592 -0.8741 13.6704 -0.4105 2.8641 -2.6173 5.0366 -5.479 5.4181 -3.1986 0.4264 -8.5151 0.9115 -16.1469 0.9115 -7.6318 0 -12.9483 -0.4851 -16.14689 -0.9115 -2.86174 -0.3815 -5.06852 -2.554 -5.47896 -5.4181C1.95694 37.2592 1.5 32.6636 1.5 26.5c0 -6.1636 0.45694 -10.7592 0.87415 -13.6704 0.41044 -2.86407 2.61722 -5.03664 5.47897 -5.4181 0.4989 -0.0665 1.04933 -0.13443 1.65204 -0.20173 0.00776 -0.60576 0.02362 -1.1549 0.04306 -1.63805 0.08089 -2.01015 1.45808 -3.8691 3.74828 -4.00716 0.4826 -0.02909 1.0463 -0.04698 1.7035 -0.04698s1.2209 0.01789 1.7035 0.04698c2.2902 0.13806 3.6674 1.99701 3.7483 4.00716 0.0119 0.29709 0.0225 0.61914 0.0307 0.96395C21.5952 6.51265 22.7674 6.5 24 6.5c1.2326 0 2.4048 0.01265 3.5175 0.03567 0.0082 -0.34481 0.0188 -0.66686 0.0307 -0.96395 0.0809 -2.01015 1.4581 -3.8691 3.7483 -4.00716 0.4826 -0.02909 1.0463 -0.04698 1.7035 -0.04698s1.2209 0.01789 1.7035 0.04698c2.2902 0.13806 3.6674 1.99701 3.7483 4.00716Zm-4.146 19.38608c0.4478 1.8274 0.1128 3.7929 -0.9167 5.3793 -1.7123 2.6425 -4.4211 4.7292 -7.1182 6.6141 -1.3609 0.9511 -3.1809 0.9511 -4.5418 0 -2.6971 -1.8849 -5.406 -3.9715 -7.1182 -6.6141 -1.0295 -1.5864 -1.3644 -3.5519 -0.9167 -5.3793 0.9568 -4.1628 6.2548 -5.8638 9.5548 -3.0742 0.1854 0.1557 0.3562 0.3282 0.5316 0.5054 0.0719 0.0726 0.1446 0.146 0.2194 0.2194 0.0748 -0.0734 0.1475 -0.1468 0.2194 -0.2194 0.1754 -0.1772 0.3462 -0.3497 0.5316 -0.5054 3.3 -2.7896 8.598 -1.0886 9.5548 3.0742Z" clip-rule="evenodd" stroke-width="1"></path>
  </g>
</svg>