<svg xmlns="http://www.w3.org/2000/svg" fill="none" viewBox="0 0 48 48" id="Circle-Clock--Streamline-Plump">
  <desc>
    Circle Clock Streamline Icon: https://streamlinehq.com
  </desc>
  <g id="circle-clock--clock-loading-measure-time-circle">
    <path id="Union" fill="#000000" fill-rule="evenodd" d="M24 1.5C11.5736 1.5 1.5 11.5736 1.5 24S11.5736 46.5 24 46.5 46.5 36.4264 46.5 24 36.4264 1.5 24 1.5ZM39 24c0 8.2843 -6.7157 15 -15 15S9 32.2843 9 24 15.7157 9 24 9s15 6.7157 15 15Zm-12.5 -9c0 -1.3807 -1.1193 -2.5 -2.5 -2.5s-2.5 1.1193 -2.5 2.5v9c0 0.663 0.2634 1.2989 0.7322 1.7678l6 6c0.9763 0.9763 2.5593 0.9763 3.5356 0 0.9763 -0.9763 0.9763 -2.5593 0 -3.5356L26.5 22.9645V15Z" clip-rule="evenodd" stroke-width="1"></path>
  </g>
</svg>