<svg xmlns="http://www.w3.org/2000/svg" fill="none" viewBox="0 0 48 48" id="Delete-Row--Streamline-Plump">
  <desc>
    Delete Row Streamline Icon: https://streamlinehq.com
  </desc>
  <g id="delete-row">
    <path id="Union" fill="#000000" fill-rule="evenodd" d="M43.193 5.741c0.171 1.127 0.307 2.617 0.307 4.509 0 1.892 -0.136 3.383 -0.307 4.509 -0.354 2.334 -2.36 3.692 -4.443 3.77 -2.627 0.097 -7.413 0.221 -14.75 0.221s-12.123 -0.124 -14.75 -0.222c-2.083 -0.077 -4.09 -1.435 -4.443 -3.77 -0.171 -1.125 -0.307 -2.616 -0.307 -4.508s0.136 -3.382 0.307 -4.509c0.354 -2.334 2.36 -3.692 4.443 -3.77 2.627 -0.097 7.413 -0.221 14.75 -0.221s12.123 0.124 14.75 0.222c2.083 0.077 4.09 1.435 4.443 3.77Zm0 20c0.171 1.127 0.307 2.617 0.307 4.509 0 1.892 -0.136 3.383 -0.307 4.509 -0.354 2.334 -2.36 3.692 -4.443 3.77 -1.432 0.052 -3.506 0.113 -6.285 0.158a167.3 167.3 0 0 0 -0.406 -0.437 154.85 154.85 0 0 0 1.638 -1.782c1.833 -2.026 1.697 -5.086 -0.187 -6.97l-0.758 -0.758c-1.884 -1.884 -4.944 -2.02 -6.97 -0.187 -0.496 0.448 -1.099 1 -1.782 1.638 -0.684 -0.638 -1.286 -1.19 -1.782 -1.638 -2.026 -1.833 -5.086 -1.697 -6.97 0.187l-0.759 0.758c-1.883 1.884 -2.02 4.944 -0.186 6.97 0.448 0.496 1 1.099 1.638 1.782l-0.407 0.437a301.582 301.582 0 0 1 -6.284 -0.159c-2.083 -0.077 -4.09 -1.435 -4.443 -3.77 -0.171 -1.126 -0.307 -2.616 -0.307 -4.508s0.136 -3.383 0.307 -4.509c0.354 -2.334 2.36 -3.692 4.443 -3.77 2.627 -0.097 7.413 -0.221 14.75 -0.221s12.123 0.124 14.75 0.222c2.083 0.077 4.09 1.435 4.443 3.77ZM31.39 44.881a2.057 2.057 0 0 0 0.084 -2.837 161.21 161.21 0 0 0 -3.55 -3.794 161.21 161.21 0 0 0 3.55 -3.794 2.055 2.055 0 0 0 -0.084 -2.836l-0.759 -0.76a2.054 2.054 0 0 0 -2.835 -0.083A161.21 161.21 0 0 0 24 34.327a161.21 161.21 0 0 0 -3.794 -3.55 2.054 2.054 0 0 0 -2.836 0.084l-0.76 0.759a2.055 2.055 0 0 0 -0.083 2.835c0.846 0.935 2.068 2.26 3.55 3.795a161.21 161.21 0 0 0 -3.55 3.794 2.055 2.055 0 0 0 0.084 2.836l0.759 0.76c0.777 0.776 2.02 0.82 2.835 0.083A161.21 161.21 0 0 0 24 42.173a161.21 161.21 0 0 0 3.794 3.55 2.054 2.054 0 0 0 2.836 -0.084l0.76 -0.759Z" clip-rule="evenodd" stroke-width="1"></path>
  </g>
</svg>