<svg xmlns="http://www.w3.org/2000/svg" fill="none" viewBox="0 0 48 48" id="Description--Streamline-Plump">
  <desc>
    Description Streamline Icon: https://streamlinehq.com
  </desc>
  <g id="description">
    <path id="Subtract" fill="#000000" fill-rule="evenodd" d="M24 1.5c-7.4033 0 -12.5917 0.23864 -15.8566 0.46626 -3.26575 0.22767 -5.86192 2.6924 -6.152 5.99265C1.74218 10.7943 1.5 15.0741 1.5 21v22.6516c0 2.9902 3.50741 4.6034 5.77777 2.6574l6.96073 -5.9664c2.6866 0.0934 5.9269 0.1574 9.7615 0.1574 7.4033 0 12.5917 -0.2386 15.8566 -0.4663 3.2657 -0.2276 5.8619 -2.6923 6.152 -5.9926 0.2492 -2.8354 0.4914 -7.1152 0.4914 -13.0411s-0.2422 -10.2057 -0.4914 -13.04109c-0.2901 -3.30025 -2.8863 -5.76498 -6.152 -5.99265C36.5917 1.73865 31.4033 1.5 24 1.5Zm2.882 25.4518c2.218 -1.2374 3.36 -2.5874 3.5378 -4.8795 -0.8128 -0.0034 -1.4814 -0.0138 -2.0282 -0.0277 -1.3302 -0.0338 -2.3257 -1.0318 -2.361 -2.362 -0.018 -0.6774 -0.0306 -1.5357 -0.0306 -2.6101 0 -1.1601 0.0147 -2.0682 0.035 -2.7687 0.0363 -1.2528 0.939 -2.2032 2.1913 -2.2547C28.9214 12.0205 29.8283 12 31 12c1.1717 0 2.0786 0.0205 2.7736 0.0491 1.2524 0.0514 2.1552 1.002 2.1914 2.2549 0.0201 0.6948 0.0348 1.5939 0.035 2.7405v5.029h-0.0229c-0.2962 4.2356 -3.4247 6.7592 -6.9699 7.8499 -0.499 0.1535 -1.0497 0.0798 -1.4271 -0.2809 -0.4379 -0.4185 -0.8132 -0.9362 -1.088 -1.3676 -0.2955 -0.4638 -0.0904 -1.0552 0.3899 -1.3231Zm-10.4622 -4.8795c-0.1778 2.2921 -1.3198 3.6421 -3.5378 4.8795 -0.4803 0.2679 -0.6854 0.8593 -0.3899 1.3231 0.2748 0.4314 0.6501 0.9491 1.088 1.3676 0.3774 0.3607 0.9281 0.4344 1.4271 0.2809 3.5452 -1.0907 6.6737 -3.6143 6.9699 -7.8499H22v-5.029c-0.0002 -1.1466 -0.0149 -2.0457 -0.035 -2.7405 -0.0362 -1.2529 -0.939 -2.2035 -2.1914 -2.2549C19.0786 12.0205 18.1717 12 17 12s-2.0786 0.0205 -2.7737 0.0491c-1.2523 0.0515 -2.155 1.0019 -2.1913 2.2547 -0.0203 0.7005 -0.035 1.6086 -0.035 2.7687 0 1.0744 0.0126 1.9327 0.0306 2.6101 0.0353 1.3302 1.0308 2.3282 2.361 2.362 0.5468 0.0139 1.2154 0.0243 2.0282 0.0277Z" clip-rule="evenodd" stroke-width="1"></path>
  </g>
</svg>