<svg xmlns="http://www.w3.org/2000/svg" fill="none" viewBox="0 0 48 48" id="Disable-Alarm--Streamline-Plump">
  <desc>
    Disable Alarm Streamline Icon: https://streamlinehq.com
  </desc>
  <g id="disable-alarm--time-tock-stopwatch-measure-clock-tick-disabled-off">
    <path id="Union" fill="#000000" fill-rule="evenodd" d="M5.76777 1.23223c-0.97631 -0.976308 -2.55923 -0.976308 -3.53554 0 -0.97631 0.97631 -0.97631 2.55923 0 3.53554L42.2322 44.7678c0.9763 0.9763 2.5593 0.9763 3.5356 0 0.9763 -0.9763 0.9763 -2.5593 0 -3.5356l-5.5399 -5.5398C42.601 32.4041 44 28.3644 44 24c0 -11.0457 -8.9543 -20 -20 -20 -4.3653 0 -8.404 1.39856 -11.6924 3.77205l-1.431 -1.43096c1.5571 -1.15906 3.2728 -2.11704 5.1085 -2.8355C14.558 2.5544 12.8437 2 11 2c-1.31107 0 -2.55667 0.28034 -3.68012 0.78435L5.76777 1.23223ZM2.25259 8.87391C2.08749 9.55558 2 10.2676 2 11c0 1.8437 0.5544 3.558 1.50559 4.9851 0.53369 -1.3636 1.19956 -2.661 1.98183 -3.8764L2.25259 8.87391ZM4 24c0 -3.8262 1.07446 -7.4015 2.9381 -10.4406L38.778 45.3993c-0.1293 0.0461 -0.2565 0.087 -0.3798 0.1233 -1.5037 0.4433 -2.895 -0.3542 -3.6559 -1.4234 -0.4469 -0.6279 -1.0153 -1.4288 -1.6255 -2.2935C30.3821 43.2086 27.2822 44 24 44c-3.2822 0 -6.3821 -0.7914 -9.1168 -2.1943 -0.6102 0.8647 -1.1786 1.6656 -1.6255 2.2935 -0.7609 1.0692 -2.1522 1.8667 -3.65594 1.4234 -0.41472 -0.1223 -0.87418 -0.2961 -1.30727 -0.5462 -0.43309 -0.25 -0.81334 -0.561 -1.12657 -0.859 -1.13579 -1.0806 -1.14082 -2.6843 -0.59529 -3.8779 0.45704 -0.9999 1.09522 -2.3903 1.75626 -3.8119C5.61929 33.0152 4 28.6955 4 24Zm40.4944 -8.0149c-2.2321 -5.7033 -6.7762 -10.24739 -12.4795 -12.47951C33.442 2.5544 35.1563 2 37 2c4.9706 0 9 4.02944 9 9 0 1.8437 -0.5544 3.558 -1.5056 4.9851Z" clip-rule="evenodd" stroke-width="1"></path>
  </g>
</svg>