<svg xmlns="http://www.w3.org/2000/svg" fill="none" viewBox="0 0 48 48" id="Dumbell--Streamline-Plump">
  <desc>
    Dumbell Streamline Icon: https://streamlinehq.com
  </desc>
  <g id="dumbell--sports-weights-dumbbell-sport-fitness-hotel">
    <path id="Union" fill="#000000" fill-rule="evenodd" d="M10.6236 10.1067C11.1353 9.79989 11.9217 9.5 13 9.5c1.0783 0 1.8647 0.29989 2.3764 0.6067 0.7881 0.4725 1.0246 1.2811 1.0363 1.8562 0.0234 1.1483 0.0873 4.9344 0.0873 12.0371 0 7.1027 -0.0639 10.8888 -0.0873 12.0371 -0.0117 0.5751 -0.2482 1.3837 -1.0363 1.8562 -0.5117 0.3068 -1.2981 0.6067 -2.3764 0.6067 -1.0783 0 -1.8647 -0.2999 -2.3764 -0.6067 -0.78811 -0.4725 -1.0246 -1.2811 -1.03632 -1.8562C9.56389 34.8888 9.5 31.1027 9.5 24c0 -7.1027 0.06388 -10.8888 0.08728 -12.0371 0.01171 -0.5751 0.2482 -1.3837 1.03632 -1.8562Zm26.7528 0C36.8647 9.79989 36.0783 9.5 35 9.5c-1.0783 0 -1.8647 0.29989 -2.3764 0.6067 -0.7881 0.4725 -1.0246 1.2811 -1.0363 1.8562C31.5639 13.1112 31.5 16.8973 31.5 24c0 7.1027 0.0639 10.8888 0.0873 12.0371 0.0117 0.5751 0.2482 1.3837 1.0363 1.8562 0.5117 0.3068 1.2981 0.6067 2.3764 0.6067 1.0783 0 1.8647 -0.2999 2.3764 -0.6067 0.7881 -0.4725 1.0246 -1.2811 1.0363 -1.8562 0.0234 -1.1483 0.0873 -4.9344 0.0873 -12.0371 0 -7.1027 -0.0639 -10.8888 -0.0873 -12.0371 -0.0117 -0.5751 -0.2482 -1.3837 -1.0363 -1.8562ZM4.5 14.5c-0.65951 0 -1.18898 0.12 -1.59431 0.2771 -1.01519 0.3934 -1.33025 1.356 -1.3448 1.9996C1.5406 17.6744 1.5 19.9737 1.5 24s0.04061 6.3256 0.0609 7.2233c0.01454 0.6436 0.3296 1.6062 1.34479 1.9996 0.40533 0.1571 0.9348 0.2771 1.59431 0.2771 0.65952 0 1.18899 -0.12 1.59432 -0.2771 1.01519 -0.3934 1.33024 -1.356 1.34479 -1.9996C7.4594 30.3256 7.5 28.0263 7.5 24s-0.0406 -6.3256 -0.06089 -7.2233c-0.01455 -0.6436 -0.32961 -1.6062 -1.3448 -1.9996C5.68898 14.62 5.15951 14.5 4.5 14.5Zm40.5943 0.2771C44.689 14.62 44.1595 14.5 43.5 14.5c-0.6595 0 -1.189 0.12 -1.5943 0.2771 -1.0152 0.3934 -1.3303 1.356 -1.3448 1.9996 -0.0203 0.8977 -0.0609 3.197 -0.0609 7.2233s0.0406 6.3256 0.0609 7.2233c0.0145 0.6436 0.3296 1.6062 1.3448 1.9996 0.4053 0.1571 0.9348 0.2771 1.5943 0.2771 0.6595 0 1.189 -0.12 1.5943 -0.2771 1.0152 -0.3934 1.3303 -1.356 1.3448 -1.9996 0.0203 -0.8977 0.0609 -3.197 0.0609 -7.2233s-0.0406 -6.3256 -0.0609 -7.2233c-0.0145 -0.6436 -0.3296 -1.6062 -1.3448 -1.9996ZM18.5 26.8565v-5.7136c0 -0.9484 0.7762 -1.446 1.6031 -1.5169 0.1721 -0.0147 0.4249 -0.0336 0.7646 -0.0523 0.6794 -0.0373 1.7069 -0.0737 3.1323 -0.0737 1.4254 0 2.4529 0.0364 3.1323 0.0737 0.3397 0.0187 0.5925 0.0376 0.7646 0.0523 0.827 0.0709 1.6029 0.5689 1.6031 1.5172v5.7142c-0.0002 0.9482 -0.7763 1.4457 -1.6031 1.5166 -0.1721 0.0147 -0.4249 0.0336 -0.7646 0.0523 -0.6794 0.0373 -1.7069 0.0737 -3.1323 0.0737 -1.4254 0 -2.4529 -0.0364 -3.1323 -0.0737 -0.3397 -0.0187 -0.5925 -0.0376 -0.7646 -0.0523 -0.8272 -0.0709 -1.6031 -0.5689 -1.6031 -1.5175Z" clip-rule="evenodd" stroke-width="1"></path>
  </g>
</svg>