<svg xmlns="http://www.w3.org/2000/svg" fill="none" viewBox="0 0 48 48" id="End-Point-Diamond--Streamline-Plump">
  <desc>
    End Point Diamond Streamline Icon: https://streamlinehq.com
  </desc>
  <g id="end-point-diamond">
    <path id="Union" fill="#000000" d="M38.591 14.8807c-1.1536 -1.0082 -2.8152 -1.0082 -3.9688 0 -0.8807 0.7696 -2.1048 1.8949 -3.6725 3.4625 -0.8165 0.8166 -1.5131 1.5399 -2.1018 2.1701 -1.6551 -0.0085 -3.5231 -0.0134 -5.6312 -0.0134H2c-0.27614 0 -0.5 0.2239 -0.5 0.5v6c0 0.2762 0.22386 0.5 0.5 0.5h21.2167c2.1079 0 3.9759 -0.0048 5.6309 -0.0133 0.5888 0.6302 1.2854 1.3536 2.1021 2.1703 1.5677 1.5677 2.7918 2.693 3.6725 3.4626 1.1536 1.0082 2.8152 1.0082 3.9688 0 0.8807 -0.7696 2.1048 -1.8949 3.6725 -3.4626 1.5676 -1.5676 2.6929 -2.7917 3.4625 -3.6724 1.0082 -1.1537 1.0082 -2.8152 0 -3.9688 -0.7696 -0.8807 -1.8949 -2.1048 -3.4625 -3.6725 -1.5677 -1.5676 -2.7918 -2.6929 -3.6725 -3.4625Z" stroke-width="1"></path>
  </g>
</svg>