<svg xmlns="http://www.w3.org/2000/svg" fill="none" viewBox="0 0 48 48" id="Firefighter-Truck--Streamline-Plump">
  <desc>
    Firefighter Truck Streamline Icon: https://streamlinehq.com
  </desc>
  <g id="firefighter-truck">
    <path id="Union" fill="#000000" fill-rule="evenodd" d="M35.3512 2.34822c0.3601 0.74604 0.0473 1.64279 -0.6987 2.00295L13.2998 14.6594c2.774 -0.0726 4.9921 -0.1121 6.5851 -0.1336 2.3175 -0.0312 4.2409 1.7111 4.4794 3.9742h1.2842l0.0054 -0.1654c0.0696 -2.0901 1.6147 -3.9317 3.8236 -4.1253 1.711 -0.15 4.1637 -0.2462 6.8157 0.036 1.6098 0.1712 3.0749 0.9611 4.1091 2.1956 1.2119 1.4466 3.1071 3.9248 5.0832 7.3503 0.6706 1.1623 1.0484 2.4625 1.1185 3.7935 0.1049 1.9906 0.2258 5.5263 0.0525 9.4154 -0.0942 2.1151 -1.6764 3.799 -3.706 4.1047C42.5055 37.1079 39.1157 34 35 34c-4.2506 0 -7.7269 3.315 -7.9847 7.5007l-6.0307 -0.0005C20.7266 37.3147 17.2504 34 13 34c-4.09728 0 -7.47514 3.0802 -7.94433 7.0513 -1.79541 -0.3864 -3.19341 -1.8797 -3.32278 -3.8211C1.61639 35.4821 1.5 32.735 1.5 28.7349c0 -4.3397 0.13699 -7.6413 0.26108 -9.7418 0.13356 -2.2609 1.95404 -3.9758 4.15109 -4.0986L33.3482 1.64952c0.7461 -0.36016 1.6428 -0.04734 2.003 0.6987Zm0.5003 16.27588c-0.4698 -0.058 -1.3656 -0.1477 -2.289 -0.1183 -1.6115 0.0512 -2.7535 1.3353 -2.8594 2.7989 -0.1241 1.7137 -0.0275 3.8293 0.0571 5.1368 0.0894 1.3809 1.0562 2.736 2.6507 2.9686 1.7546 0.256 3.9427 0.2212 5.2908 0.1658 1.4609 -0.0601 2.78 -1.066 3.1034 -2.5832 0.0559 -0.2622 0.1095 -0.5487 0.146 -0.8276 0.0891 -0.6818 -0.0847 -1.3083 -0.361 -1.8071 -0.2987 -0.5393 -0.8643 -1.5005 -1.6142 -2.493 -0.735 -0.9728 -1.7233 -2.0789 -2.8902 -2.8093 -0.3976 -0.2488 -0.8249 -0.381 -1.2342 -0.4316ZM8 20c-0.82843 0 -1.5 0.6716 -1.5 1.5S7.17157 23 8 23h10c0.8284 0 1.5 -0.6716 1.5 -1.5S18.8284 20 18 20H8Zm-1.5 8.5c0 -0.8284 0.67157 -1.5 1.5 -1.5h10c0.8284 0 1.5 0.6716 1.5 1.5S18.8284 30 18 30H8c-0.82843 0 -1.5 -0.6716 -1.5 -1.5ZM32.9999 8c1.4426 0 2.6727 1.04341 2.8131 2.4792 0.0516 0.5274 0.0993 1.1109 0.1336 1.7218 -2.2323 -0.1987 -4.2928 -0.1534 -5.8909 -0.0438 0.0341 -0.595 0.0808 -1.1633 0.1311 -1.678C30.3272 9.04341 31.5573 8 32.9999 8ZM30 42c0 2.7614 2.2386 5 5 5s5 -2.2386 5 -5 -2.2386 -5 -5 -5 -5 2.2386 -5 5Zm-17 5c-2.7614 0 -5 -2.2386 -5 -5s2.2386 -5 5 -5 5 2.2386 5 5 -2.2386 5 -5 5Z" clip-rule="evenodd" stroke-width="1"></path>
  </g>
</svg>