<svg xmlns="http://www.w3.org/2000/svg" fill="none" viewBox="0 0 48 48" id="Flip-Horizontal-Circle-1--Streamline-Plump">
  <desc>
    Flip Horizontal Circle 1 Streamline Icon: https://streamlinehq.com
  </desc>
  <g id="flip-horizontal-circle-1--flip-left-object-work">
    <path id="Union" fill="#000000" fill-rule="evenodd" d="M24.5 5.09579c0 -1.95106 -1.6679 -3.69306 -3.8045 -3.37808C9.834 3.31893 1.5 12.6847 1.5 23.9997c0 11.315 8.334 20.6808 19.1955 22.282 2.1366 0.315 3.8045 -1.427 3.8045 -3.378V5.09579Zm11.4073 1.62982c0.5206 -0.9742 0.1529 -2.18597 -0.8213 -2.70657 -1.5964 -0.85311 -3.3081 -1.51692 -5.1057 -1.96114 -1.0723 -0.26499 -2.1564 0.38947 -2.4214 1.46178 -0.265 1.07231 0.3894 2.15641 1.4618 2.4214 1.4702 0.36334 2.8715 0.90652 4.1801 1.60582 0.9742 0.5206 2.1859 0.1529 2.7065 -0.82129Zm8.803 7.30219c0.484 0.9929 0.0714 2.1901 -0.9215 2.6741 -0.9929 0.4839 -2.1901 0.0714 -2.6741 -0.9215 -0.9284 -1.9046 -2.1697 -3.6253 -3.6557 -5.0929 -0.7859 -0.77612 -0.7938 -2.04242 -0.0176 -2.82834 0.7761 -0.78591 2.0424 -0.79382 2.8283 -0.01767 1.8053 1.78287 3.3129 3.87261 4.4406 6.18631Zm-0.3386 15.4521c1.089 0.1848 2.1216 -0.5483 2.3063 -1.6373 0.2122 -1.2503 0.3225 -2.5345 0.3225 -3.8431 0 -1.3087 -0.1103 -2.5929 -0.3225 -3.8432 -0.1847 -1.089 -1.2173 -1.822 -2.3064 -1.6373 -1.089 0.1848 -1.822 1.2174 -1.6372 2.3064 0.1748 1.0302 0.2661 2.0905 0.2661 3.1741 0 1.0835 -0.0913 2.1439 -0.2661 3.174 -0.1848 1.089 0.5483 2.1216 1.6373 2.3064Zm-4.1016 10.6772c-0.7859 0.7762 -2.0522 0.7683 -2.8284 -0.0176 -0.7762 -0.7859 -0.7683 -2.0522 0.0176 -2.8283 1.4859 -1.4675 2.7271 -3.1881 3.6554 -5.0925 0.4839 -0.9929 1.6812 -1.4055 2.6741 -0.9216 0.9929 0.484 1.4055 1.6812 0.9215 2.6741 -1.1277 2.3135 -2.6351 4.4032 -4.4402 6.1859Zm-10.2898 5.784c-1.0723 0.265 -2.1564 -0.3895 -2.4214 -1.4618 -0.265 -1.0723 0.3894 -2.1564 1.4618 -2.4214 1.4701 -0.3633 2.8712 -0.9064 4.1797 -1.6056 0.9742 -0.5206 2.186 -0.1529 2.7066 0.8213 0.5205 0.9742 0.1528 2.186 -0.8214 2.7066 -1.5963 0.853 -3.3079 1.5167 -5.1053 1.9609Z" clip-rule="evenodd" stroke-width="1"></path>
  </g>
</svg>