<svg xmlns="http://www.w3.org/2000/svg" fill="none" viewBox="0 0 48 48" id="Heater--Streamline-Plump">
  <desc>
    Heater Streamline Icon: https://streamlinehq.com
  </desc>
  <g id="heater--travel-hotel-heater">
    <path id="Union" fill="#000000" fill-rule="evenodd" d="M12.4049 1.79358c0.6663 -0.880941 1.9206 -1.054897 2.8016 -0.38855 0.8809 0.66636 1.0549 1.92068 0.3885 2.80162 -0.4042 0.53443 -0.5842 1.05679 -0.5946 1.58871 -0.0107 0.54457 0.154 1.25899 0.7058 2.16133 0.8594 1.40536 1.3213 2.86251 1.2925 4.32681 -0.029 1.4769 -0.5547 2.8007 -1.4037 3.9231 -0.6663 0.881 -1.9207 1.0549 -2.8016 0.3886 -0.8809 -0.6664 -1.0549 -1.9207 -0.3885 -2.8016 0.4042 -0.5345 0.5841 -1.0568 0.5946 -1.5887 0.0107 -0.5446 -0.154 -1.259 -0.7058 -2.1614 -0.8594 -1.40532 -1.3214 -2.86247 -1.2926 -4.32676 0.0291 -1.47694 0.5547 -2.80075 1.4038 -3.92316Zm10 0c0.6663 -0.880941 1.9206 -1.054897 2.8016 -0.38855 0.8809 0.66636 1.0549 1.92068 0.3885 2.80162 -0.4042 0.53443 -0.5842 1.05679 -0.5946 1.58871 -0.0107 0.54457 0.154 1.25899 0.7058 2.16133 0.8594 1.40536 1.3213 2.86251 1.2925 4.32681 -0.029 1.4769 -0.5547 2.8007 -1.4037 3.9231 -0.6663 0.881 -1.9207 1.0549 -2.8016 0.3886 -0.8809 -0.6664 -1.0549 -1.9207 -0.3885 -2.8016 0.4042 -0.5345 0.5841 -1.0568 0.5946 -1.5887 0.0107 -0.5446 -0.154 -1.259 -0.7058 -2.1614 -0.8594 -1.40532 -1.3214 -2.86247 -1.2926 -4.32676 0.0291 -1.47694 0.5547 -2.80075 1.4038 -3.92316Zm12.8016 -0.38855c-0.881 -0.666347 -2.1353 -0.492391 -2.8016 0.38855 -0.8491 1.12241 -1.3747 2.44622 -1.4038 3.92316 -0.0288 1.46429 0.4332 2.92144 1.2926 4.32676 0.5518 0.9024 0.7165 1.6168 0.7058 2.1614 -0.0105 0.5319 -0.1904 1.0542 -0.5946 1.5887 -0.6664 0.8809 -0.4924 2.1352 0.3885 2.8016 0.8809 0.6663 2.1353 0.4924 2.8016 -0.3886 0.849 -1.1224 1.3747 -2.4462 1.4037 -3.9231 0.0288 -1.4643 -0.4331 -2.92145 -1.2925 -4.32681 -0.5518 -0.90234 -0.7165 -1.61676 -0.7058 -2.16133 0.0104 -0.53192 0.1904 -1.05428 0.5946 -1.58871 0.6664 -0.88094 0.4924 -2.13526 -0.3885 -2.80162ZM46.5 32.5c0 -3.4224 -0.1663 -6.0672 -0.3669 -8.0128 -0.3369 -3.2669 -3.0124 -5.5018 -6.1481 -5.6563C36.7422 18.671 31.516 18.5 24 18.5s-12.7422 0.171 -15.98501 0.3308c-3.13569 0.1546 -5.81114 2.3895 -6.14806 5.6564C1.66627 26.4328 1.5 29.0776 1.5 32.5c0 3.4224 0.16627 6.0672 0.36693 8.0128 0.33692 3.2669 3.01236 5.5018 6.14806 5.6564C11.2578 46.329 16.484 46.5 24 46.5s12.7422 -0.171 15.985 -0.3308c3.1357 -0.1546 5.8112 -2.3895 6.1481 -5.6564 0.2006 -1.9456 0.3669 -4.5904 0.3669 -8.0128ZM7.5 28c0 -1.933 1.567 -3.5 3.5 -3.5s3.5 1.567 3.5 3.5 -1.567 3.5 -3.5 3.5 -3.5 -1.567 -3.5 -3.5Zm19.9331 -0.8018c0.0342 1.1676 0.0669 2.9089 0.0669 5.3018s-0.0327 4.1342 -0.0669 5.3018c-0.039 1.3331 -0.916 2.5594 -2.3654 2.6622 -0.315 0.0223 -0.6702 0.036 -1.0677 0.036 -0.3975 0 -0.7527 -0.0137 -1.0677 -0.036 -1.4494 -0.1028 -2.3264 -1.3291 -2.3654 -2.6622 -0.0342 -1.1676 -0.0669 -2.9089 -0.0669 -5.3018s0.0327 -4.1342 0.0669 -5.3018c0.039 -1.3331 0.916 -2.5594 2.3654 -2.6622 0.315 -0.0223 0.6702 -0.036 1.0677 -0.036 0.3975 0 0.7527 0.0137 1.0677 0.036 1.4494 0.1028 2.3264 1.3291 2.3654 2.6622ZM39.5 32.5c0 -2.3929 -0.0327 -4.1342 -0.0669 -5.3018 -0.039 -1.3331 -0.916 -2.5594 -2.3654 -2.6622 -0.315 -0.0223 -0.6702 -0.036 -1.0677 -0.036 -0.3975 0 -0.7527 0.0137 -1.0677 0.036 -1.4494 0.1028 -2.3264 1.3291 -2.3654 2.6622 -0.0342 1.1676 -0.0669 2.9089 -0.0669 5.3018s0.0327 4.1342 0.0669 5.3018c0.039 1.3331 0.916 2.5594 2.3654 2.6622 0.315 0.0223 0.6702 0.036 1.0677 0.036 0.3975 0 0.7527 -0.0137 1.0677 -0.036 1.4494 -0.1028 2.3264 -1.3291 2.3654 -2.6622 0.0342 -1.1676 0.0669 -2.9089 0.0669 -5.3018Z" clip-rule="evenodd" stroke-width="1"></path>
  </g>
</svg>