<svg xmlns="http://www.w3.org/2000/svg" fill="none" viewBox="0 0 48 48" id="Hierarchy-15--Streamline-Plump">
  <desc>
    Hierarchy 15 Streamline Icon: https://streamlinehq.com
  </desc>
  <g id="hierarchy-15--node-organization-links-structure-link-nodes-network-hierarchy">
    <path id="Union" fill="#000000" d="M46.5 8.5c0 1.39978 -0.0745 2.4209 -0.1707 3.1579 -0.2144 1.6435 -1.5356 2.6809 -3.037 2.772 -0.6525 0.0397 -1.5553 0.0701 -2.7923 0.0701s-2.1398 -0.0304 -2.7923 -0.0701c-1.5014 -0.0911 -2.8225 -1.1285 -3.037 -2.772 -0.0427 -0.3265 -0.081 -0.7088 -0.1105 -1.1551l-1.7413 0.1583C31.7888 10.7547 31 11.6184 31 12.6529V22h3.56c0.0295 -0.4475 0.0679 -0.8307 0.1107 -1.1579 0.2145 -1.6435 1.5356 -2.6808 3.037 -2.772C38.3602 18.0304 39.263 18 40.5 18s2.1398 0.0304 2.7923 0.0701c1.5014 0.0911 2.8226 1.1285 3.037 2.772 0.0962 0.737 0.1707 1.7581 0.1707 3.1579 0 1.3998 -0.0745 2.4209 -0.1707 3.1579 -0.2144 1.6435 -1.5356 2.6809 -3.037 2.772C42.6398 29.9696 41.737 30 40.5 30s-2.1398 -0.0304 -2.7923 -0.0701c-1.5014 -0.0911 -2.8225 -1.1285 -3.037 -2.772 -0.0428 -0.3272 -0.0812 -0.7104 -0.1107 -1.1579H31v9.3471c0 1.0344 0.7888 1.8982 1.8189 1.9918l1.7413 0.1583c0.0295 -0.4463 0.0678 -0.8286 0.1105 -1.1551 0.2145 -1.6434 1.5356 -2.6808 3.037 -2.772 0.6525 -0.0397 1.5553 -0.0701 2.7923 -0.0701s2.1398 0.0304 2.7923 0.0701c1.5014 0.0911 2.8226 1.1285 3.037 2.772 0.0962 0.737 0.1707 1.7581 0.1707 3.1579 0 1.3998 -0.0745 2.4209 -0.1707 3.1579 -0.2144 1.6435 -1.5356 2.6808 -3.037 2.772 -0.6525 0.0397 -1.5553 0.0701 -2.7923 0.0701s-2.1398 -0.0304 -2.7923 -0.0701c-1.5014 -0.0911 -2.8225 -1.1285 -3.037 -2.772 -0.0423 -0.3238 -0.0804 -0.7025 -0.1098 -1.1441l-2.1041 -0.1913C29.3663 41.0415 27 38.4504 27 35.3471V26h-3.5264c-0.0546 1.9796 -0.1873 3.4825 -0.341 4.6093 -0.3396 2.4902 -2.3214 4.0856 -4.6816 4.2361 -1.3466 0.0858 -3.2632 0.1546 -5.951 0.1546 -2.68783 0 -4.60436 -0.0688 -5.95099 -0.1546 -2.36018 -0.1505 -4.34204 -1.7459 -4.68164 -4.2361C1.66564 29.1301 1.5 27.0029 1.5 24c0 -3.0029 0.16564 -5.1301 0.36737 -6.6093 0.3396 -2.4902 2.32146 -4.0856 4.68163 -4.2361C7.89564 13.0688 9.81217 13 12.5 13c2.6878 0 4.6044 0.0688 5.951 0.1546 2.3602 0.1505 4.342 1.7459 4.6816 4.2361 0.1537 1.1268 0.2864 2.6297 0.341 4.6093H27v-9.3471c0 -3.10327 2.3663 -5.69446 5.4568 -5.97541l2.1041 -0.19128c0.0294 -0.44158 0.0675 -0.82028 0.1098 -1.14414 0.2145 -1.64342 1.5356 -2.68082 3.037 -2.77202C38.3602 2.53042 39.263 2.5 40.5 2.5s2.1398 0.03042 2.7923 0.07005c1.5014 0.0912 2.8226 1.1286 3.037 2.77201 0.0962 0.73706 0.1707 1.75816 0.1707 3.15794Z" stroke-width="1"></path>
  </g>
</svg>