<svg xmlns="http://www.w3.org/2000/svg" fill="none" viewBox="0 0 48 48" id="Horizonal-Scroll--Streamline-Plump">
  <desc>
    Horizonal Scroll Streamline Icon: https://streamlinehq.com
  </desc>
  <g id="horizonal-scroll--move-scroll-horizonal">
    <path id="Union" fill="#000000" fill-rule="evenodd" d="M12.4983 10.3328c0.6509 -0.62828 1.6739 -0.91096 2.6294 -0.49546 2.2867 0.99436 3.2541 2.71546 3.6235 3.65846 0.3517 0.8978 0.0587 1.7769 -0.4143 2.3387l-6.8763 8.1658 6.8762 8.1654c0.4733 0.562 0.7653 1.44 0.4158 2.3366 -0.3657 0.9382 -1.324 2.6579 -3.5886 3.655 -0.958 0.4218 -1.9855 0.1385 -2.6379 -0.4909 -3.0121 -2.9061 -7.57933 -7.7931 -9.74499 -10.9834 -1.11263 -1.6391 -1.1125 -3.7253 -0.00317 -5.3648 2.15914 -3.1909 6.70845 -8.0781 9.72036 -10.9854Zm23.0026 0c-0.651 -0.62828 -1.6739 -0.91096 -2.6294 -0.49546 -2.2867 0.99436 -3.2541 2.71546 -3.6235 3.65846 -0.3517 0.8978 -0.0588 1.7769 0.4143 2.3387l6.8763 8.1658 -6.8763 8.1654c-0.4732 0.562 -0.7652 1.44 -0.4157 2.3366 0.3657 0.9382 1.324 2.6579 3.5886 3.655 0.958 0.4218 1.9855 0.1385 2.6378 -0.4909 3.0122 -2.9061 7.5794 -7.7931 9.7451 -10.9834 1.1126 -1.6391 1.1125 -3.7253 0.0031 -5.3648 -2.1591 -3.1909 -6.7084 -8.0781 -9.7203 -10.9854ZM24 29.5c-3.0376 0 -5.5 -2.4624 -5.5 -5.5s2.4624 -5.5 5.5 -5.5 5.5 2.4624 5.5 5.5 -2.4624 5.5 -5.5 5.5Z" clip-rule="evenodd" stroke-width="1"></path>
  </g>
</svg>