<svg xmlns="http://www.w3.org/2000/svg" fill="none" viewBox="0 0 48 48" id="Information-Circle--Streamline-Plump">
  <desc>
    Information Circle Streamline Icon: https://streamlinehq.com
  </desc>
  <g id="information-circle--information-frame-info-more-help-point-circle">
    <path id="Subtract" fill="#000000" fill-rule="evenodd" d="M24 46.5C11.5736 46.5 1.5 36.4264 1.5 24S11.5736 1.5 24 1.5 46.5 11.5736 46.5 24 36.4264 46.5 24 46.5Zm-4 -34c0 -2.2091 1.7909 -4 4 -4 2.2091 0 4 1.7909 4 4 0 2.2091 -1.7909 4 -4 4 -2.2091 0 -4 -1.7909 -4 -4Zm6.8805 8.614c-0.0705 -1.1379 -0.7986 -2.0224 -1.9368 -2.0885C24.6694 19.0096 24.3563 19 24 19h-3.5c-0.5855 0 -1.0745 0.0145 -1.4813 0.037 -1.1866 0.0659 -1.9792 0.941 -2.0089 2.1291 -0.0062 0.2473 -0.0098 0.5243 -0.0098 0.8339s0.0036 0.5866 0.0098 0.8339c0.0297 1.1881 0.8223 2.0632 2.0089 2.1291 0.4068 0.0225 0.8958 0.037 1.4813 0.037 0.1766 0 0.3443 -0.0013 0.5037 -0.0038C21.0013 25.3139 21 25.6483 21 26v6.0284c-1.2699 0.0262 -2.2173 0.0675 -2.9122 0.11 -1.0939 0.0669 -1.9719 0.7401 -2.0527 1.8331C16.0134 34.2656 16 34.6065 16 35c0 0.3935 0.0134 0.7344 0.0351 1.0285 0.0808 1.093 0.9588 1.7662 2.0527 1.8331C19.2473 37.9325 21.1097 38 24 38c2.8903 0 4.7527 -0.0675 5.9122 -0.1384 1.0939 -0.0669 1.9719 -0.7401 2.0527 -1.8331 0.0217 -0.2941 0.0351 -0.635 0.0351 -1.0285 0 -0.3935 -0.0134 -0.7344 -0.0351 -1.0285 -0.0808 -1.093 -0.9588 -1.7662 -2.0527 -1.8331 -0.6949 -0.0425 -1.6423 -0.0838 -2.9122 -0.11V26c0 -2.3029 -0.0559 -3.86 -0.1195 -4.886Z" clip-rule="evenodd" stroke-width="1"></path>
  </g>
</svg>