<svg xmlns="http://www.w3.org/2000/svg" fill="none" viewBox="0 0 48 48" id="Layers-1--Streamline-Plump">
  <desc>
    Layers 1 Streamline Icon: https://streamlinehq.com
  </desc>
  <g id="layers-1--design-layer-layers-pile-stack-align">
    <path id="Union" fill="#000000" fill-rule="evenodd" d="M22.3496 2.81816c1.0879 -0.26015 2.2124 -0.26015 3.3003 0 2.0047 0.47936 6.0105 1.62008 10.9948 3.99353 3.8818 1.84848 6.5704 3.45311 8.228 4.54271 1.9451 1.2787 1.9451 4.0112 0 5.2898 -1.6576 1.0897 -4.3462 2.6943 -8.228 4.5427 -4.9843 2.3735 -8.9901 3.5142 -10.9948 3.9936 -1.0879 0.2601 -2.2124 0.2601 -3.3003 0 -2.0047 -0.4794 -6.0105 -1.6201 -10.9947 -3.9936 -3.88186 -1.8484 -6.57054 -3.453 -8.22814 -4.5427 -1.94506 -1.2786 -1.94505 -4.0111 0 -5.2898 1.6576 -1.0896 4.34628 -2.69423 8.22814 -4.54271 4.9842 -2.37344 8.99 -3.51417 10.9947 -3.99353ZM4.07055 20.7502c1.58327 0.9221 3.56952 1.9906 5.99455 3.1453 5.2076 2.4798 9.418 3.6841 11.5868 4.2027 1.5466 0.3698 3.1491 0.3698 4.6957 0 2.1688 -0.5186 6.3792 -1.7229 11.5869 -4.2027 2.4249 -1.1547 4.4112 -2.2232 5.9945 -3.1453 0.3454 0.2156 0.6597 0.4175 0.9437 0.6042 1.9451 1.2787 1.9451 4.0112 0 5.2898 -1.6576 1.0897 -4.3462 2.6942 -8.228 4.5427 -4.9843 2.3735 -8.9901 3.5142 -10.9948 3.9936 -1.0879 0.2601 -2.2124 0.2601 -3.3003 0 -2.0047 -0.4794 -6.0105 -1.6201 -10.9947 -3.9936 -3.88186 -1.8485 -6.57054 -3.453 -8.22814 -4.5427 -1.94506 -1.2786 -1.94505 -4.0111 0 -5.2898 0.28405 -0.1867 0.59837 -0.3886 0.94379 -0.6042Zm0 10c1.58327 0.9221 3.56952 1.9906 5.99455 3.1453 5.2076 2.4798 9.418 3.6841 11.5868 4.2027 1.5466 0.3698 3.1491 0.3698 4.6957 0 2.1688 -0.5186 6.3792 -1.7229 11.5869 -4.2027 2.4249 -1.1547 4.4112 -2.2232 5.9945 -3.1453 0.3454 0.2156 0.6597 0.4175 0.9437 0.6042 1.9451 1.2787 1.9451 4.0112 0 5.2898 -1.6576 1.0897 -4.3462 2.6942 -8.228 4.5427 -4.9843 2.3735 -8.9901 3.5142 -10.9948 3.9936 -1.0879 0.2601 -2.2124 0.2601 -3.3003 0 -2.0047 -0.4794 -6.0105 -1.6201 -10.9947 -3.9936 -3.88186 -1.8485 -6.57054 -3.4531 -8.22814 -4.5427 -1.94506 -1.2787 -1.94505 -4.0111 0 -5.2898 0.28405 -0.1867 0.59837 -0.3886 0.94379 -0.6042Z" clip-rule="evenodd" stroke-width="1"></path>
  </g>
</svg>