<svg xmlns="http://www.w3.org/2000/svg" fill="none" viewBox="0 0 48 48" id="Loading-Circle--Streamline-Plump">
  <desc>
    Loading Circle Streamline Icon: https://streamlinehq.com
  </desc>
  <g id="loading-circle--progress-loading-load-half-wait-waiting">
    <path id="Union" fill="#000000" fill-rule="evenodd" d="M24.0137 1C11.303 1 0.999023 11.304 0.999023 24.0147c0 11.2354 8.050047 20.5885 18.696677 22.61 1.2469 0.2368 2.3175 -0.7473 2.3175 -1.9437v-4.4022c0 -0.9701 -0.6855 -1.7551 -1.5649 -1.9737 -6.4101 -1.5937 -11.15937 -7.3887 -11.15937 -14.2904 0 -8.1323 6.59247 -14.7248 14.72477 -14.7248 6.9841 0 12.8347 4.8633 14.3456 11.3892 0.207 0.8942 0.9981 1.5976 1.9813 1.5976h4.3874c1.1871 0 2.1673 -1.0542 1.9483 -2.2935C44.7696 9.19472 35.3496 1 24.0137 1Zm9.9212 36.0261c-0.679 -0.6789 -1.7065 -0.756 -2.4815 -0.3013 -1.1947 0.7009 -2.4966 1.2379 -3.875 1.5805 -0.8799 0.2186 -1.5647 1.0039 -1.5647 1.9736v4.4022c0 1.1958 1.0696 2.1805 2.317 1.9438 3.0762 -0.5839 5.9354 -1.7798 8.4458 -3.4556 1.0625 -0.7093 1.1291 -2.1724 0.2787 -3.0229l-3.1203 -3.1203Zm4.3163 -9.239c0.237 -0.8542 1.0109 -1.5102 1.9595 -1.5102h4.4181c1.2051 0 2.1937 1.0861 1.9389 2.3409 -0.3033 1.4939 -0.7513 2.9354 -1.3287 4.309 -0.6233 1.4826 -1.3972 2.886 -2.3024 4.191 -0.7195 1.0372 -2.1625 1.0913 -3.0037 0.2502l-3.1051 -3.1051c-0.6865 -0.6865 -0.7565 -1.7267 -0.288 -2.5034l0.0006 -0.0009 0.0233 -0.0413c0.0204 -0.0362 0.0501 -0.089 0.0868 -0.1547 0.0734 -0.1316 0.1743 -0.3141 0.2843 -0.5177 0.2257 -0.4178 0.4695 -0.8875 0.6016 -1.193 0.1322 -0.3057 0.3092 -0.8127 0.461 -1.272 0.074 -0.2237 0.1387 -0.4262 0.185 -0.5729 0.0232 -0.0732 0.0416 -0.1323 0.0542 -0.1729l0.0146 -0.047Z" clip-rule="evenodd" stroke-width="1"></path>
  </g>
</svg>