<svg xmlns="http://www.w3.org/2000/svg" fill="none" viewBox="0 0 48 48" id="Login-1--Streamline-Plump">
  <desc>
    Login 1 Streamline Icon: https://streamlinehq.com
  </desc>
  <g id="login-1--arrow-enter-frame-left-login-point-rectangle">
    <path id="Union" fill="#000000" fill-rule="evenodd" d="M17.1025 46.5c3.7893 0 6.9197 -0.211 9.1868 -0.4371 3.1225 -0.3115 5.5161 -2.7156 5.7806 -5.855 0.1757 -2.086 0.3544 -5.0717 0.4536 -9.1939l-6.6394 0.2414c-0.037 0.667 -0.0756 1.2888 -0.1132 1.8515 -0.1179 1.7636 -1.1369 3.31 -2.7207 4.033 -1.6147 0.737 -3.5022 0.4691 -4.9163 -0.7275 -1.0401 -0.8802 -2.3799 -2.088 -4.0503 -3.7272 -2.8184 -2.7659 -4.29528 -4.8071 -5.06667 -6.1322 -0.92573 -1.5902 -0.9259 -3.5182 -0.00024 -5.1087 0.77141 -1.3254 2.24841 -3.3669 5.06711 -6.1326 1.67 -1.6385 3.0094 -2.8459 4.0493 -3.7259 1.4143 -1.1968 3.3019 -1.4647 4.9167 -0.7278 1.5839 0.7229 2.6032 2.2693 2.7211 4.0334 0.0377 0.5632 0.0764 1.1856 0.1134 1.8533l6.6392 0.2414c-0.0992 -4.1222 -0.2779 -7.10795 -0.4536 -9.19399 -0.2645 -3.13937 -2.6581 -5.54352 -5.7806 -5.85497C24.0222 1.71101 20.8918 1.5 17.1025 1.5c-3.7892 0 -6.9196 0.21101 -9.18673 0.43714 -3.12252 0.31145 -5.51614 2.7156 -5.78058 5.85497C1.87217 10.9145 1.60254 16.0524 1.60254 24c0 7.9476 0.26963 13.0856 0.53265 16.2079 0.26444 3.1394 2.65806 5.5435 5.78058 5.855 2.26713 0.2261 5.39753 0.4371 9.18673 0.4371Zm5.6761 -13.5932c-0.0969 1.4507 -1.5959 2.1545 -2.7058 1.2154 -0.9772 -0.8269 -2.2625 -1.9842 -3.8868 -3.5782 -2.6699 -2.6201 -3.9659 -4.4535 -4.5753 -5.5003 -0.3827 -0.6575 -0.3828 -1.4329 -0.0001 -2.0904 0.6093 -1.0469 1.9053 -2.8805 4.5754 -5.5002 1.6239 -1.5934 2.909 -2.7504 3.8861 -3.5773 1.1101 -0.9394 2.6096 -0.2354 2.7066 1.2155 0.0848 1.2689 0.1748 2.8417 0.2386 4.551l21.5072 0.7821c1.2504 0.0455 2.3473 0.8684 2.4926 2.1112 0.0515 0.4407 0.0865 0.9351 0.0865 1.4644 0 0.5293 -0.035 1.0237 -0.0865 1.4644 -0.1453 1.2428 -1.2422 2.0657 -2.4926 2.1112l-21.5074 0.7821c-0.0637 1.7086 -0.1537 3.2808 -0.2385 4.5491Z" clip-rule="evenodd" stroke-width="1"></path>
  </g>
</svg>