<svg xmlns="http://www.w3.org/2000/svg" fill="none" viewBox="0 0 48 48" id="Multiple-Stars--Streamline-Plump">
  <desc>
    Multiple Stars Streamline Icon: https://streamlinehq.com
  </desc>
  <g id="multiple-stars--reward-rating-rate-social-star-media-favorite-like-stars-spark">
    <path id="Union" fill="#000000" fill-rule="evenodd" d="M9.70261 3.16288c0.72919 -2.217174 3.86559 -2.21717 4.59479 0l1.6185 4.92123 4.9212 1.6185c2.2172 0.72919 2.2172 3.86559 0 4.59479l-4.9212 1.6185 -1.6185 4.9212c-0.7292 2.2172 -3.8656 2.2172 -4.59479 0l-1.6185 -4.9212 -4.92123 -1.6185c-2.217174 -0.7292 -2.21717 -3.8656 0 -4.59479l4.92123 -1.6185 1.6185 -4.92123ZM29.3951 7.38544c0.8268 -2.51393 4.383 -2.51391 5.2098 0l2.4772 7.53246 7.5325 2.4772c2.5139 0.8268 2.5139 4.383 0 5.2098l-7.5325 2.4772 -2.4772 7.5325c-0.8268 2.5139 -4.383 2.5139 -5.2098 0l-2.4772 -7.5325 -7.5325 -2.4772c-2.5139 -0.8268 -2.5139 -4.383 0 -5.2098l7.5325 -2.4772 2.4772 -7.53246ZM18.3943 25.233c-0.7599 -2.3107 -4.0287 -2.3107 -4.7886 0l-1.8247 5.548 -5.54796 1.8247c-2.31072 0.7599 -2.31072 4.0287 0 4.7886L11.781 39.219l1.8247 5.548c0.7599 2.3107 4.0287 2.3107 4.7886 0l1.8247 -5.548 5.548 -1.8247c2.3107 -0.7599 2.3107 -4.0287 0 -4.7886l-5.548 -1.8247 -1.8247 -5.548Z" clip-rule="evenodd" stroke-width="1"></path>
  </g>
</svg>