<svg xmlns="http://www.w3.org/2000/svg" fill="none" viewBox="0 0 48 48" id="Padlock-Square-2--Streamline-Plump">
  <desc>
    Padlock Square 2 Streamline Icon: https://streamlinehq.com
  </desc>
  <g id="padlock-square-2--combination-combo-key-keyhole-lock-secure-security-square-unlock-unlocked">
    <path id="Subtract" fill="#000000" fill-rule="evenodd" d="M10.585 12.962A12.5 12.5 0 0 1 23.04 1.5h1.917c5.348 0 9.96 3.372 11.73 8.174 0.582 1.578 -0.763 2.965 -2.28 2.932 -1.34 -0.03 -2.799 -0.054 -4.376 -0.072 -0.97 -0.011 -1.766 -0.595 -2.298 -1.252a4.803 4.803 0 0 0 -8.528 2.739l-0.325 5.512c1.556 -0.02 3.26 -0.033 5.119 -0.033 6.48 0 11.082 0.149 14.043 0.296 3.168 0.157 5.838 2.437 6.145 5.726 0.173 1.846 0.312 4.316 0.312 7.478s-0.14 5.632 -0.312 7.478c-0.307 3.289 -2.977 5.569 -6.145 5.726 -2.961 0.147 -7.562 0.296 -14.043 0.296 -6.48 0 -11.082 -0.149 -14.043 -0.296 -3.168 -0.157 -5.838 -2.437 -6.145 -5.726C3.639 38.632 3.5 36.162 3.5 33s0.14 -5.632 0.312 -7.478c0.307 -3.289 2.977 -5.569 6.145 -5.726l0.058 -0.003 0.57 -6.831ZM28 31a3.992 3.992 0 0 1 -1.518 3.137l0.637 2.73c0.22 0.945 -0.287 1.883 -1.247 2.014 -0.506 0.069 -1.13 0.119 -1.872 0.119 -0.742 0 -1.366 -0.05 -1.872 -0.12 -0.96 -0.13 -1.468 -1.068 -1.247 -2.012l0.637 -2.731A4 4 0 1 1 28 31Z" clip-rule="evenodd" stroke-width="1"></path>
  </g>
</svg>