<svg xmlns="http://www.w3.org/2000/svg" fill="none" viewBox="0 0 48 48" id="Radioactive-1--Streamline-Plump">
  <desc>
    Radioactive 1 Streamline Icon: https://streamlinehq.com
  </desc>
  <g id="radioactive-1--danger-nuke-radiation-nuclear-warning-alert-radioactive-caution">
    <path id="Union" fill="#000000" fill-rule="evenodd" d="M15.4454 4.41293c-0.6505 -1.15587 -2.1327 -1.62776 -3.3007 -0.89288C5.793 7.51637 1.75825 14.5883 1.51202 22.1259c-0.0448 1.3714 1.09675 2.4135 2.41708 2.4037 3.92822 -0.029 8.9973 -0.1572 13.8855 -0.5457 0.8617 -0.0685 1.402 -0.8231 1.4659 -1.5618 0.1226 -1.4158 0.8751 -2.734 2.0282 -3.5485 0.6023 -0.4255 0.9853 -1.2667 0.6169 -2.0461 -2.1121 -4.4686 -4.5394 -8.96589 -6.4802 -12.41457ZM28.1113 27.6305c-0.491 -0.7206 -1.4241 -0.8101 -2.0992 -0.49 -0.6102 0.2894 -1.2917 0.4513 -2.012 0.4513 -0.7203 0 -1.4018 -0.1619 -2.0121 -0.4513 -0.675 -0.3201 -1.6081 -0.2306 -2.0991 0.49 -2.7841 4.0854 -5.4341 8.4599 -7.4241 11.8794 -0.6592 1.1328 -0.3329 2.6294 0.8633 3.2805 3.176 1.7286 6.8111 2.7097 10.672 2.7097 3.8609 0 7.496 -0.9811 10.672 -2.7097 1.1962 -0.6511 1.5225 -2.1477 0.8633 -3.2805 -1.99 -3.4195 -4.64 -7.794 -7.4241 -11.8794Zm4.4434 -23.21757c0.6505 -1.15587 2.1327 -1.62776 3.3007 -0.89288C42.2071 7.51636 46.2419 14.5883 46.4881 22.1259c0.0448 1.3714 -1.0968 2.4135 -2.4171 2.4037 -3.9282 -0.029 -8.9973 -0.1572 -13.8855 -0.5457 -0.8617 -0.0685 -1.402 -0.8231 -1.4659 -1.5618 -0.1226 -1.4158 -0.8751 -2.734 -2.0282 -3.5485 -0.6023 -0.4255 -0.9853 -1.2667 -0.6169 -2.0461 2.1121 -4.4686 4.5394 -8.96589 6.4802 -12.41457Z" clip-rule="evenodd" stroke-width="1"></path>
  </g>
</svg>