<svg xmlns="http://www.w3.org/2000/svg" fill="none" viewBox="0 0 48 48" id="Round-Anchor-Point--Streamline-Plump">
  <desc>
    Round Anchor Point Streamline Icon: https://streamlinehq.com
  </desc>
  <g id="round-anchor-point">
    <path id="Union" fill="#000000" fill-rule="evenodd" d="M0 10.5C0 6.91015 2.91015 4 6.5 4c3.41631 0 6.217 2.63558 6.4798 5.98439 1.0519 0.20931 2.2367 0.40621 3.552 0.56991 0.01 -0.3476 0.0218 -0.66346 0.0349 -0.95023 0.103 -2.24993 1.7872 -3.93423 4.0372 -4.03728C21.4562 5.52775 22.566 5.5 24 5.5c1.4339 0 2.5436 0.02774 3.396 0.06678 2.25 0.10305 3.9343 1.78744 4.0373 4.03744 0.0131 0.28673 0.0249 0.60258 0.0349 0.95008 1.3153 -0.1637 2.5001 -0.3606 3.552 -0.56992C35.283 6.63558 38.0837 4 41.5 4c3.5899 0 6.5 2.91015 6.5 6.5 0 3.5899 -2.9101 6.5 -6.5 6.5 -2.3525 0 -4.4132 -1.2498 -5.5542 -3.1216 -0.4973 0.1005 -1.0208 0.1983 -1.5701 0.2914C38.1116 17.1948 40.5 21.8185 40.5 27v0.5334c0.3263 0.0096 0.6242 0.0209 0.896 0.0334 2.25 0.103 3.9343 1.7874 4.0373 4.0374 0.039 0.8523 0.0667 1.962 0.0667 3.3958 0 1.4335 -0.0277 2.543 -0.0667 3.3953 -0.103 2.2505 -1.7877 3.9351 -4.0382 4.038 -0.8522 0.039 -1.9617 0.0667 -3.3951 0.0667 -1.4335 0 -2.543 -0.0277 -3.3952 -0.0667 -2.2504 -0.1029 -3.9351 -1.7874 -4.0381 -4.0379 -0.039 -0.8522 -0.0667 -1.9618 -0.0667 -3.3954 0 -1.4339 0.0277 -2.5436 0.0667 -3.3959 0.103 -2.25 1.7872 -3.9343 4.0372 -4.0373 0.2718 -0.0125 0.5698 -0.0238 0.8961 -0.0334V27c0 -3.679 -1.7276 -6.9545 -4.4157 -9.0595 -0.6185 1.4394 -1.9932 2.4153 -3.6892 2.4928 -0.8522 0.039 -1.9617 0.0667 -3.3951 0.0667 -1.4335 0 -2.543 -0.0277 -3.3952 -0.0667 -1.696 -0.0776 -3.0706 -1.0534 -3.6891 -2.4928C14.2275 20.0456 12.5 23.321 12.5 27v0.5334c0.3263 0.0096 0.6242 0.0209 0.896 0.0334 2.25 0.103 3.9343 1.7874 4.0373 4.0374 0.039 0.8523 0.0667 1.962 0.0667 3.3958 0 1.4335 -0.0277 2.543 -0.0667 3.3953 -0.103 2.2505 -1.7877 3.9351 -4.0382 4.038 -0.8522 0.039 -1.9617 0.0667 -3.3951 0.0667 -1.43353 0 -2.54303 -0.0277 -3.39524 -0.0667 -2.25037 -0.1029 -3.93505 -1.7874 -4.03804 -4.0379C2.52772 37.5432 2.5 36.4336 2.5 35c0 -1.4339 0.02773 -2.5436 0.06675 -3.3959 0.10299 -2.25 1.78715 -3.9343 4.03713 -4.0373 0.27181 -0.0125 0.56979 -0.0238 0.89612 -0.0334V27c0 -5.1815 2.38838 -9.8052 6.1243 -12.8301 -0.5493 -0.0932 -1.0728 -0.191 -1.5701 -0.2915C10.9132 15.7502 8.85253 17 6.5 17 2.91015 17 0 14.0899 0 10.5ZM6.5 8C5.11929 8 4 9.11929 4 10.5 4 11.8807 5.11929 13 6.5 13c0.40042 0 0.77886 -0.0941 1.11438 -0.2615 0.02602 -0.013 0.05178 -0.0264 0.07727 -0.0402C8.47096 12.2749 9 11.4492 9 10.5c0 -0.0054 -0.00002 -0.0108 -0.00005 -0.0162 -0.00429 -0.67733 -0.27796 -1.29077 -0.71927 -1.73856C7.82729 8.28519 7.19695 8 6.5 8Zm35 5c-0.4004 0 -0.7789 -0.0941 -1.1144 -0.2615 -0.026 -0.013 -0.0518 -0.0264 -0.0772 -0.0402C39.529 12.2749 39 11.4492 39 10.5l0 -0.0081c0.0003 -0.0839 0.0047 -0.1669 0.013 -0.2487 0.0593 -0.58139 0.3179 -1.10386 0.7064 -1.49799C40.1727 8.28517 40.8031 8 41.5 8c1.3807 0 2.5 1.11929 2.5 2.5 0 1.3807 -1.1193 2.5 -2.5 2.5Z" clip-rule="evenodd" stroke-width="1"></path>
  </g>
</svg>