<svg xmlns="http://www.w3.org/2000/svg" fill="none" viewBox="0 0 48 48" id="Skull-2--Streamline-Plump">
  <desc>
    Skull 2 Streamline Icon: https://streamlinehq.com
  </desc>
  <g id="skull-2--crash-death-delete-die-error-garbage-remove-skull-trash">
    <path id="Subtract" fill="#000000" fill-rule="evenodd" d="M24 1.5C12.2784 1.5 2.5 10.0857 2.5 21c0 9.2034 6.97334 16.7668 16.1709 18.8962 0.0268 0.4822 0.0554 0.9134 0.0846 1.2981 0.1759 2.3172 1.7225 4.2919 4.1653 4.7052 0.5462 0.0924 1.1808 0.1823 1.9147 0.2633 0.4239 0.0468 0.8477 -0.0891 1.1653 -0.3736 0.3177 -0.2846 0.4992 -0.6909 0.4992 -1.1173V42c0 -0.8284 0.6716 -1.5 1.5 -1.5s1.5 0.6716 1.5 1.5v2.9947c0 0.8221 0.6618 1.4911 1.4838 1.4999 0.3295 0.0036 0.6681 0.0054 1.0162 0.0054 0.7174 0 1.3947 -0.0078 2.0339 -0.0223 0.815 -0.0184 1.4661 -0.6844 1.4661 -1.4996V42c0 -0.8284 0.6716 -1.5 1.5 -1.5s1.5 0.6716 1.5 1.5v2.5477c0 0.4339 0.1879 0.8465 0.5151 1.1314 0.3272 0.2848 0.7617 0.4141 1.1915 0.3543 0.3131 -0.0435 0.6035 -0.0884 0.8726 -0.1339 2.4428 -0.4134 3.9894 -2.388 4.1653 -4.7052 0.134 -1.766 0.2555 -4.5171 0.2555 -8.6943V20c0 -0.1397 -0.0191 -0.2749 -0.0548 -0.4032C44.6436 9.35384 35.2178 1.5 24 1.5ZM42.5 23c0 -2.753 -1.8115 -4.5 -3.5 -4.5s-3.5 1.747 -3.5 4.5 1.8115 4.5 3.5 4.5 3.5 -1.747 3.5 -4.5Zm-21 0c0 -2.6108 1.9111 -4.5 4 -4.5 2.0889 0 4 1.8892 4 4.5 0 2.6108 -1.9111 4.5 -4 4.5 -2.0889 0 -4 -1.8892 -4 -4.5Z" clip-rule="evenodd" stroke-width="1"></path>
  </g>
</svg>