<svg xmlns="http://www.w3.org/2000/svg" fill="none" viewBox="0 0 48 48" id="Star-Medal--Streamline-Plump">
  <desc>
    Star Medal Streamline Icon: https://streamlinehq.com
  </desc>
  <g id="star-medal--ribbon-reward-like-social-rating-media">
    <path id="Union" fill="#000000" fill-rule="evenodd" d="M30.9885 1.40865C29.3728 1.19254 27.0714 1 23.9999 1c-3.0716 0 -5.3729 0.19254 -6.9887 0.40865 0.0307 0.07044 0.0643 0.14708 0.1006 0.22974 0.2329 0.5303 0.5802 1.30781 1.0321 2.28349 0.9043 1.95243 2.2248 4.69268 3.8832 7.82992l0.1394 0.2632c0.5709 -0.0097 1.1811 -0.015 1.8334 -0.015 0.6522 0 1.2625 0.0053 1.8333 0.015l0.1394 -0.2632c1.6585 -3.13724 2.9789 -5.87749 3.8832 -7.82992 0.4519 -0.97568 0.7992 -1.75319 1.0322 -2.28349 0.0363 -0.08266 0.0698 -0.1593 0.1005 -0.22974ZM3.83625 16.244c-0.53625 -0.7816 -0.655 -1.7742 -0.25509 -2.6336C6.84921 6.58756 13.9999 2 13.9999 2s3.3332 7.94833 8.6548 17.0595c-4.7837 0.4252 -8.9216 3.096 -11.3524 6.9512 -3.46258 -4.0748 -6.17047 -7.8783 -7.46605 -9.7667Zm32.86125 9.7667c3.4626 -4.0748 6.1705 -7.8783 7.4661 -9.7667 0.5362 -0.7816 0.655 -1.7742 0.2551 -2.6336C41.1506 6.58756 33.9999 2 33.9999 2s-3.3332 7.94833 -8.6548 17.0595c4.7837 0.4252 8.9217 3.096 11.3524 6.9512ZM24 21.5c-6.9036 0 -12.5 5.5964 -12.5 12.5S17.0964 46.5 24 46.5 36.5 40.9036 36.5 34 30.9036 21.5 24 21.5Zm1.1096 6.1393 1.5109 2.9129 3.2196 0.634c0.952 0.1874 1.3367 1.3407 0.688 2.0622L28.24 35.7931l0.419 3.3952c0.1221 0.9895 -0.9067 1.7168 -1.7988 1.2715L24 39.0322l-2.8602 1.4276c-0.8921 0.4453 -1.9209 -0.282 -1.7988 -1.2715l0.419 -3.3952 -2.2881 -2.5447c-0.6487 -0.7215 -0.264 -1.8748 0.688 -2.0622l3.2196 -0.634 1.5109 -2.9129c0.4664 -0.8993 1.7528 -0.8993 2.2192 0Z" clip-rule="evenodd" stroke-width="1"></path>
  </g>
</svg>