<svg xmlns="http://www.w3.org/2000/svg" fill="none" viewBox="0 0 48 48" id="Text-Image-Center-Large--Streamline-Plump">
  <desc>
    Text Image Center Large Streamline Icon: https://streamlinehq.com
  </desc>
  <g id="text-image-center-large">
    <path id="Union" fill="#000000" fill-rule="evenodd" d="M24 2c6.537 0 9.524 0.102 10.84 0.178 0.948 0.054 1.92 0.67 2.074 1.832 0.05 0.383 0.086 0.871 0.086 1.49s-0.035 1.107 -0.086 1.49c-0.155 1.163 -1.126 1.778 -2.074 1.832C33.524 8.898 30.537 9 24 9s-9.524 -0.102 -10.84 -0.178c-0.948 -0.054 -1.92 -0.67 -2.074 -1.832 -0.05 -0.383 -0.086 -0.871 -0.086 -1.49s0.035 -1.107 0.086 -1.49c0.155 -1.163 1.126 -1.778 2.074 -1.832C14.476 2.102 17.463 2 24 2Zm0 37c6.537 0 9.524 0.102 10.84 0.178 0.948 0.054 1.92 0.67 2.074 1.832 0.05 0.383 0.086 0.871 0.086 1.49s-0.035 1.107 -0.086 1.49c-0.155 1.163 -1.126 1.778 -2.074 1.832 -1.316 0.075 -4.303 0.178 -10.84 0.178s-9.524 -0.102 -10.84 -0.178c-0.948 -0.054 -1.92 -0.67 -2.074 -1.832 -0.05 -0.383 -0.086 -0.871 -0.086 -1.49s0.035 -1.107 0.086 -1.49c0.155 -1.163 1.126 -1.778 2.074 -1.832C14.476 39.103 17.463 39 24 39Zm18.506 -24.695C39.436 14.178 33.454 14 24 14s-15.436 0.178 -18.506 0.305c-1.919 0.08 -3.676 1.33 -4.025 3.375C1.222 19.13 1 21.21 1 24c0 2.79 0.222 4.87 0.47 6.32 0.348 2.045 2.105 3.295 4.024 3.375C8.564 33.822 14.546 34 24 34s15.436 -0.178 18.506 -0.305c1.919 -0.08 3.676 -1.33 4.025 -3.375 0.247 -1.45 0.469 -3.53 0.469 -6.32 0 -2.79 -0.222 -4.87 -0.47 -6.32 -0.348 -2.045 -2.105 -3.296 -4.024 -3.375Z" clip-rule="evenodd" stroke-width="1"></path>
  </g>
</svg>