<svg xmlns="http://www.w3.org/2000/svg" fill="none" viewBox="0 0 48 48" id="Voice-Scan-1--Streamline-Plump">
  <desc>
    Voice Scan 1 Streamline Icon: https://streamlinehq.com
  </desc>
  <g id="voice-scan-1--identification-secure-id-soundwave-sound-voice-brackets-security">
    <path id="Union" fill="#000000" fill-rule="evenodd" d="M16.4989 3.92401c-0.042 -1.38007 -1.1948 -2.46481 -2.5749 -2.42283l-6.3561 0.19335c-0.02385 0.00072 -0.04769 0.00179 -0.07151 0.0032 -3.1319 0.18513 -5.61295 2.66567 -5.79837 5.79775 -0.00142 0.02386 -0.00248 0.04774 -0.00321 0.07163l-0.19363 6.35679c-0.04204 1.3801 1.04266 2.5329 2.42273 2.575 1.38007 0.042 2.53292 -1.0427 2.57495 -2.4228l0.19224 -6.31129c0.04665 -0.58143 0.49256 -1.02736 1.07418 -1.07398l6.31072 -0.19196c1.3801 -0.04198 2.4648 -1.19479 2.4229 -2.57486ZM44.0761 31.5012c-1.38 -0.0421 -2.5329 1.0426 -2.5749 2.4227l-0.1923 6.3114c-0.0466 0.5814 -0.4925 1.0273 -1.0741 1.0739l-6.3108 0.192c-1.3801 0.042 -2.4648 1.1948 -2.4228 2.5748 0.042 1.3801 1.1948 2.4648 2.5748 2.4229l6.3561 -0.1934c0.0239 -0.0007 0.0477 -0.0018 0.0716 -0.0032 3.1319 -0.1851 5.6129 -2.6657 5.7983 -5.7977 0.0014 -0.0239 0.0025 -0.0478 0.0032 -0.0717l0.1937 -6.3568c0.042 -1.38 -1.0427 -2.5329 -2.4228 -2.5749Zm-10 -30.00002c-1.3801 -0.04198 -2.5329 1.04276 -2.5749 2.42283 -0.042 1.38007 1.0428 2.53288 2.4229 2.57486l6.3107 0.19196c0.5816 0.04662 1.0275 0.49255 1.0742 1.07398l0.1922 6.31129c0.0421 1.3801 1.1949 2.4648 2.575 2.4228 1.3801 -0.0421 2.4647 -1.1949 2.4227 -2.575l-0.1936 -6.35679c-0.0007 -0.02389 -0.0018 -0.04777 -0.0032 -0.07163 -0.1855 -3.13208 -2.6665 -5.61262 -5.7984 -5.79775 -0.0238 -0.00141 -0.0477 -0.00248 -0.0715 -0.0032l-6.3561 -0.19335ZM3.92395 31.5012c1.38007 -0.0421 2.53292 1.0426 2.57496 2.4227l0.19224 6.3114c0.04667 0.5814 0.49257 1.0273 1.07417 1.0739l6.31078 0.192c1.3801 0.042 2.4648 1.1948 2.4228 2.5748 -0.042 1.3801 -1.1948 2.4648 -2.5748 2.4229l-6.35615 -0.1934c-0.02385 -0.0007 -0.04769 -0.0018 -0.07151 -0.0032 -3.13191 -0.1851 -5.61295 -2.6657 -5.79838 -5.7977 -0.00141 -0.0239 -0.00248 -0.0478 -0.00321 -0.0717l-0.19362 -6.3568c-0.04204 -1.38 1.04265 -2.5329 2.42272 -2.5749ZM27.8922 15.5655c1.1738 -2.5154 4.6685 -2.7288 6.1396 -0.3749L37.6627 21l5.6498 0.0001c0.7413 0 1.5725 0.3486 1.8769 1.1858 0.1673 0.4604 0.3106 1.0718 0.3106 1.8141s-0.1433 1.3537 -0.3106 1.8141C44.885 26.6514 44.0538 27 43.3125 27h-6.4811c-1.5516 0 -2.9937 -0.7993 -3.816 -2.115l-1.6323 -2.6117 -4.2584 9.125c-1.1975 2.5661 -4.7881 2.7218 -6.2032 0.2689l-4.4358 -7.6887 -0.4603 0.7889C15.219 26.1499 13.7389 27 12.1384 27H4.75626c-0.74964 0 -1.57649 -0.3513 -1.90316 -1.1736C2.66689 25.3577 2.5 24.7334 2.5 24s0.16689 -1.3577 0.3531 -1.8264C3.17977 21.3514 4.00662 21 4.75626 21h6.52064l2.1975 -3.7671c1.3543 -2.3217 4.7117 -2.3137 6.0549 0.0145l4.1893 7.2615 4.1736 -8.9434Z" clip-rule="evenodd" stroke-width="1"></path>
  </g>
</svg>