<svg xmlns="http://www.w3.org/2000/svg" fill="none" viewBox="0 0 48 48" id="Warp-Squeeze--Streamline-Plump">
  <desc>
    Warp Squeeze Streamline Icon: https://streamlinehq.com
  </desc>
  <g id="warp-squeeze">
    <path id="Union" fill="#000000" d="M23.9999 1.5C13.2241 1.5 6.91346 5.34923 3.90967 7.9266c-0.96345 0.82668 -1.26195 2.00631 -1.02145 3.0717 0.23195 1.0275 0.94808 1.9198 1.94298 2.4062 1.68029 0.8215 3.89007 2.1278 5.6612 3.9335 1.7606 1.7949 3.0075 3.9946 3.0075 6.662 0 2.6674 -1.2469 4.8671 -3.0075 6.662 -1.77113 1.8057 -3.98092 3.112 -5.66121 3.9335 -0.99489 0.4864 -1.71102 1.3787 -1.94297 2.4062 -0.2405 1.0654 0.058 2.245 1.02145 3.0717C6.91346 42.6508 13.2241 46.5 23.9999 46.5c10.7759 0 17.0865 -3.8492 20.0903 -6.4266 0.9634 -0.8267 1.2619 -2.0063 1.0214 -3.0717 -0.2319 -1.0275 -0.9481 -1.9198 -1.9429 -2.4062 -1.6803 -0.8215 -3.8901 -2.1278 -5.6613 -3.9335 -1.7606 -1.7949 -3.0075 -3.9946 -3.0075 -6.662 0 -2.6674 1.2469 -4.8671 3.0075 -6.662 1.7712 -1.8057 3.981 -3.112 5.6613 -3.9335 0.9948 -0.4864 1.711 -1.3787 1.9429 -2.4062 0.2405 -1.06539 -0.058 -2.24502 -1.0214 -3.0717C41.0864 5.34923 34.7758 1.5 23.9999 1.5Z" stroke-width="1"></path>
  </g>
</svg>