<svg xmlns="http://www.w3.org/2000/svg" fill="none" viewBox="0 0 24 24" id="Bell-Set-Timer--Streamline-Sharp">
  <desc>
    Bell Set Timer Streamline Icon: https://streamlinehq.com
  </desc>
  <g id="bell-set-timer--notification-alarm-alert-bell-set-time">
    <path id="Union" fill="#000000" fill-rule="evenodd" d="M23 6.5a5.5 5.5 0 1 1 -11 0 5.5 5.5 0 0 1 11 0Zm-6.25 0V3h1.5v2.75h2.25v1.5h-3.75V6.5Zm0.75 7a7 7 0 0 1 -4.828 -12.07A7.75 7.75 0 0 0 3.25 9v4.823L0.786 18.75h20.428l-2.464 -4.927v-0.434a7.043 7.043 0 0 1 -1.25 0.111ZM13 23H9v-2h4v2Z" clip-rule="evenodd" stroke-width="1"></path>
  </g>
</svg>