<svg xmlns="http://www.w3.org/2000/svg" fill="none" viewBox="0 0 24 24" id="Drawing-Compass--Streamline-Sharp">
  <desc>
    Drawing Compass Streamline Icon: https://streamlinehq.com
  </desc>
  <g id="drawing-compass">
    <path id="Union" fill="#000000" fill-rule="evenodd" d="M13 0.5v2.95699c1.3355 0.42362 2.3032 1.67327 2.3032 3.14895 0 0.36025 -0.0577 0.70703 -0.1643 1.0316l2.3747 6.47826h2.2941v2h-1.5609l2.2141 6.04 0.3442 0.9389 -1.8779 0.6884 -0.3441 -0.9389 -2.4665 -6.7284H13v1.702h-2v-1.702H7.88337l-2.46644 6.7284 -0.34417 0.9389 -1.87781 -0.6884 0.34417 -0.9389 2.21411 -6.04H4.19189v-2h2.29448l2.37497 -6.4789c-0.10648 -0.3244 -0.16407 -0.67095 -0.16407 -1.03096 0 -1.47551 0.96751 -2.72505 2.30273 -3.1488V0.5h2Zm0 13.6158v-1.702h-2v1.702H8.61651l1.70909 -4.66231c0.491 0.28939 1.0634 0.45541 1.6746 0.45541 0.6111 0 1.1834 -0.16593 1.6743 -0.45519l1.709 4.66209H13Z" clip-rule="evenodd" stroke-width="1"></path>
  </g>
</svg>