<svg xmlns="http://www.w3.org/2000/svg" fill="none" viewBox="0 0 24 24" id="Help-Chat-2--Streamline-Sharp">
  <desc>
    Help Chat 2 Streamline Icon: https://streamlinehq.com
  </desc>
  <g id="help-chat-2--bubble-help-mark-message-query-question-speech-circle">
    <path id="Subtract" fill="#000000" fill-rule="evenodd" d="M1.00007 12c0 -6.07513 4.92487 -11 11.00003 -11 6.0751 0 11 4.92487 11 11 0 6.0751 -4.9249 11 -11.0001 11L0.195801 22.9997l2.866529 -4.5862C1.76477 16.6081 1.00007 14.3923 1.00007 12ZM11.9375 7.5c-1.1046 0 -2 0.89543 -2 2v0.5556h-2V9.5c0 -2.20914 1.79086 -4 4 -4 2.2091 0 4 1.79086 4 4v1.0046l-0.3356 0.2984 -2.6644 2.3683V14.5h-2v-2.2268l0.3356 -0.2984 2.6644 -2.36831V9.5c0 -1.10457 -0.8954 -2 -2 -2Zm-1 10.5v-2h2v2h-2Z" clip-rule="evenodd" stroke-width="1"></path>
  </g>
</svg>