<svg xmlns="http://www.w3.org/2000/svg" fill="none" viewBox="0 0 24 24" id="Moon-Cloud--Streamline-Sharp">
  <desc>
    Moon Cloud Streamline Icon: https://streamlinehq.com
  </desc>
  <g id="moon-cloud--cloud-meteorology-cloudy-partly-sunny-weather">
    <path id="Union" fill="#000000" fill-rule="evenodd" d="M21.8998 7.67415c-0.5746 0.30362 -1.2295 0.47553 -1.9246 0.47553 -2.2782 0 -4.1251 -1.84689 -4.1251 -4.12514 0 -0.69502 0.1719 -1.3499 0.4754 -1.92444 -2.4049 0.03194 -4.4372 1.60734 -5.1517 3.78076 -0.1777 0.54081 -0.2739 1.11864 -0.2739 1.71893 0 0.50263 0.0674 0.98952 0.1937 1.45211 1.8004 0.6666 3.3285 1.9028 4.2983 3.5196 0.3631 -0.0472 0.7331 -0.0715 1.108 -0.0715 0.6506 0 1.2923 0.0758 1.9123 0.2203 0.9555 -0.3757 1.7803 -1.0112 2.3877 -1.8194 0.6771 -0.90103 1.0838 -2.01674 1.0999 -3.22675ZM1 16.5556C1 12.864 4.20787 10 7.99998 10c2.96692 0 5.56342 1.7438 6.56372 4.2707 0.6131 -0.1763 1.2637 -0.2707 1.9362 -0.2707 3.498 0 6.5 2.5987 6.5 6v2H1.00009L1 16.5556Z" clip-rule="evenodd" stroke-width="1"></path>
  </g>
</svg>