<svg xmlns="http://www.w3.org/2000/svg" fill="none" viewBox="0 0 24 24" id="Panoramic-Screen--Streamline-Sharp">
  <desc>
    Panoramic Screen Streamline Icon: https://streamlinehq.com
  </desc>
  <g id="panoramic-screen">
    <path id="Subtract" fill="#000000" fill-rule="evenodd" d="M22.9078 19.4077V4.59277l-0.9494 0.24697 -0.0336 0.00864 -0.1317 0.03354c-0.1153 0.02913 -0.2835 0.07118 -0.4939 0.12252 -0.4211 0.10271 -1.0104 0.24234 -1.6824 0.38986 -0.8659 0.1901 -1.8566 0.39043 -2.7969 0.54243l0 12.12697c0.9403 0.152 1.931 0.3524 2.7969 0.5425 0.672 0.1475 1.2613 0.2871 1.6824 0.3898 0.2104 0.0513 0.3786 0.0934 0.4939 0.1225l0.1317 0.0336 0.0336 0.0086 0.0107 0.0028 0.9387 0.2442Zm-7.5879 -1.5435c-0.0018 -0.0002 -0.0037 -0.0003 -0.0055 -0.0005 -2.5851 -0.2473 -4.0441 -0.2473 -6.62915 0l-0.0052 0.0005 0 -11.72794 0.0052 0.0005c2.58505 0.24733 4.04405 0.24733 6.62915 0 0.0018 -0.00018 0.0037 -0.00036 0.0055 -0.00054l0 11.72798Zm-8.13985 0.1995 0 -12.12691c-0.94038 -0.15201 -1.93117 -0.35237 -2.79725 -0.54249 -0.67199 -0.14752 -1.26125 -0.28715 -1.68233 -0.38986 -0.21044 -0.05134 -0.37865 -0.09339 -0.4939 -0.12252l-0.13177 -0.03354 -0.03355 -0.00864 -0.01066 -0.00276 -0.93879 -0.24421V19.4077l0.93927 -0.2444 0.01018 -0.0026 0.03355 -0.0086 0.13177 -0.0336c0.11525 -0.0291 0.28346 -0.0712 0.4939 -0.1225 0.42108 -0.1027 1.01034 -0.2423 1.68232 -0.3898 0.86609 -0.1902 1.85688 -0.3905 2.79726 -0.5425Z" clip-rule="evenodd" stroke-width="1"></path>
  </g>
</svg>