<svg xmlns="http://www.w3.org/2000/svg" fill="none" viewBox="0 0 24 24" id="Pen-Draw--Streamline-Sharp">
  <desc>
    Pen Draw Streamline Icon: https://streamlinehq.com
  </desc>
  <g id="pen-draw">
    <path id="Vector 2802 (Stroke)" fill="#000000" fill-rule="evenodd" d="M13.933 3.40588c-0.482 -0.48208 -1.366 -0.51679 -1.981 0.09226L2.22102 13.1346 0.813721 11.7135 10.5447 2.07705c1.3196 -1.306758 3.4671 -1.420848 4.8025 -0.08538 1.3405 1.34042 1.22 3.4973 -0.0978 4.81507L7.98632 14.0698c-0.58277 0.5828 -0.5568 1.4218 -0.10837 1.8851 0.45674 0.4718 1.3153 0.514 1.91139 -0.082l5.14966 -5.1497c1.313 -1.31301 3.4663 -1.42528 4.7912 -0.0762 1.3081 1.3321 1.1807 3.453 -0.1168 4.7505l-2.8776 2.8776c-0.5894 0.5894 -0.5554 1.4382 -0.0953 1.8984 0.4602 0.4601 1.309 0.4941 1.8984 -0.0954l3.2382 -3.2381 1.4142 1.4142 -3.2382 3.2382c-1.2927 1.2926 -3.41 1.412 -4.7268 0.0953 -1.3167 -1.3168 -1.1974 -3.4341 0.0953 -4.7268l2.8776 -2.8776c0.5982 -0.5982 0.5693 -1.4612 0.1041 -1.9349 -0.4701 -0.4787 -1.3443 -0.5168 -1.9501 0.089l-5.1496 5.1497c-1.30648 1.3064 -3.45263 1.4121 -4.76264 0.0588 -1.28043 -1.3227 -1.14781 -3.4113 0.13115 -4.6903l7.26309 -7.26307c0.6145 -0.61451 0.5816 -1.50286 0.0978 -1.98665Z" clip-rule="evenodd" stroke-width="1"></path>
  </g>
</svg>