<svg xmlns="http://www.w3.org/2000/svg" fill="none" viewBox="0 0 24 24" id="Snooze--Streamline-Sharp">
  <desc>
    Snooze Streamline Icon: https://streamlinehq.com
  </desc>
  <g id="snooze--nap-sleep-rest-break-clock-bed-time-moon">
    <path id="Union" fill="#000000" fill-rule="evenodd" d="M1.20996 12c0 -5.93706 4.81294 -10.75 10.75004 -10.75 1.899 0 3.6851 0.49307 5.235 1.35874l1.6582 0.92621 -1.8436 0.45658C13.4144 4.88187 10.75 8.13072 10.75 12c0 3.8693 2.6644 7.1181 6.2596 8.0085l1.8436 0.4566 -1.6582 0.9262c-1.5499 0.8656 -3.336 1.3587 -5.235 1.3587 -5.9371 0 -10.75004 -4.8129 -10.75004 -10.75ZM16.6893 8.75H13.75v-1.5h5v1.56066l-0.2197 0.21967L15.8107 11.75H18.75v1.5h-5v-1.5607l0.2197 -0.2196L16.6893 8.75Zm4 6.5H19.25v-1.5h3.5v1.5607l-0.2197 0.2196 -1.2196 1.2197H22.75v1.5h-3.5v-1.5607l0.2197 -0.2196 1.2196 -1.2197Z" clip-rule="evenodd" stroke-width="1"></path>
  </g>
</svg>