<svg xmlns="http://www.w3.org/2000/svg" fill="none" viewBox="0 0 24 24" id="Story-Post--Streamline-Sharp">
  <desc>
    Story Post Streamline Icon: https://streamlinehq.com
  </desc>
  <g id="story-post">
    <path id="Union" fill="#000000" fill-rule="evenodd" d="M21 12a9 9 0 0 0 -9 -9V1c6.075 0 11 4.925 11 11s-4.925 11 -11 11S1 18.075 1 12h2a9 9 0 1 0 18 0ZM3.9 8.073a8.927 8.927 0 0 0 -0.72 2.126l-1.96 -0.398c0.186 -0.913 0.484 -1.786 0.88 -2.602l1.8 0.874ZM4.8 6.6a9.059 9.059 0 0 1 1.8 -1.801l-1.2 -1.6a11.059 11.059 0 0 0 -2.2 2.2l1.6 1.2Zm5.399 -3.42a8.927 8.927 0 0 0 -2.126 0.72l-0.874 -1.8A10.926 10.926 0 0 1 9.8 1.22l0.398 1.96Zm0.551 4.32v3.25H7.5v2.5h3.25v3.25h2.5v-3.25h3.25v-2.5h-3.25V7.5h-2.5Z" clip-rule="evenodd" stroke-width="1"></path>
  </g>
</svg>