<svg xmlns="http://www.w3.org/2000/svg" fill="none" viewBox="0 0 24 24" id="User-Collaborate-Group--Streamline-Sharp">
  <desc>
    User Collaborate Group Streamline Icon: https://streamlinehq.com
  </desc>
  <g id="user-collaborate-group">
    <path id="Union" fill="#000000" fill-rule="evenodd" d="M9 3.5C9 4.88071 7.88071 6 6.5 6S4 4.88071 4 3.5 5.11929 1 6.5 1 9 2.11929 9 3.5Zm8.5 15c1.3807 0 2.5 -1.1193 2.5 -2.5s-1.1193 -2.5 -2.5 -2.5S15 14.6193 15 16s1.1193 2.5 2.5 2.5ZM13 23v-2s1.5 -1.5 4.5 -1.5S22 21 22 21v2h-9ZM2 10.5v-2S3.5 7 6.5 7 11 8.5 11 8.5v2H2ZM18 5h-4.5V3H20v6.5h-2V5ZM4 14.5V21h6.5v-2H6v-4.5H4Z" clip-rule="evenodd" stroke-width="1"></path>
  </g>
</svg>