<svg xmlns="http://www.w3.org/2000/svg" fill="none" viewBox="0 0 24 24" id="Modern-Music-Electric-Guitar--Streamline-Ultimate">
  <desc>
    Modern Music Electric Guitar Streamline Icon: https://streamlinehq.com
  </desc>
  <path stroke="#000000" stroke-linecap="round" stroke-linejoin="round" d="M19.68 6.66012c-0.1025 0.09627 -0.2232 0.17116 -0.355 0.22032 -0.1318 0.04915 -0.272 0.0716 -0.4126 0.06601 -0.1405 -0.00558 -0.2785 -0.03908 -0.406 -0.09854 -0.1275 -0.05946 -0.2418 -0.14369 -0.3364 -0.24779l-1.57 -1.6c-0.2081 -0.20067 -0.3306 -0.47404 -0.3418 -0.76293 -0.0111 -0.28889 0.0898 -0.57091 0.2818 -0.78707 0.1502 -0.20462 0.3597 -0.35821 0.6 -0.44l4.77 -1.46c0.1772 -0.04815 0.3643 -0.04657 0.5407 0.00459 0.1764 0.05115 0.3353 0.1499 0.4593 0.28541 0.0999 0.08687 0.1815 0.1927 0.2401 0.31135 0.0587 0.11865 0.0932 0.24776 0.1015 0.37985 0.0084 0.13209 -0.0095 0.26452 -0.0527 0.38963 -0.0432 0.1251 -0.1108 0.24039 -0.1989 0.33917l-3.32 3.4Z" stroke-width="1.5"></path>
  <path stroke="#000000" stroke-linecap="round" stroke-linejoin="round" d="M11 10.5302c-0.3131 -0.3349 -0.5453 -0.73704 -0.6788 -1.17562 -0.1335 -0.43858 -0.1647 -0.90191 -0.0912 -1.35442 0.1207 -0.70232 0.3609 -1.37877 0.71 -2 0.1212 -0.22153 0.1682 -0.4761 0.134 -0.72631 -0.0342 -0.2502 -0.1478 -0.48283 -0.324 -0.66369 -0.1037 -0.10924 -0.2285 -0.19622 -0.3669 -0.25566 -0.1384 -0.05944 -0.2875 -0.0901 -0.4381 -0.0901 -0.15061 0 -0.29966 0.03066 -0.43805 0.0901s-0.26324 0.14642 -0.36694 0.25566c-0.94405 0.91934 -1.59177 2.09986 -1.86001 3.39 -0.21 1.05 -1 2.48004 -2 2.49004 -0.61438 0.0033 -1.22175 0.1309 -1.78563 0.3748 -0.56387 0.244 -1.07263 0.5994 -1.49572 1.0449 -0.4231 0.4455 -0.75179 0.972 -0.96636 1.5477 -0.214574 0.5757 -0.310589 1.1888 -0.282286 1.8026 0.014508 1.6077 0.661096 3.1451 1.799996 4.28l1.08 1.12c0.53739 0.5717 1.1845 1.0294 1.90268 1.3455 0.71818 0.3161 1.49271 0.4843 2.27732 0.4945 0.60891 0.0107 1.2138 -0.1007 1.77896 -0.3276 0.56514 -0.2269 1.07914 -0.5646 1.51164 -0.9934 0.4325 -0.4288 0.7747 -0.9398 1.0065 -1.503 0.2317 -0.5632 0.3483 -1.1671 0.3429 -1.776 0 -1.11 1.2 -1.8 2.23 -1.76 0.6017 0.0488 1.2066 -0.0392 1.7695 -0.2574 0.5628 -0.2182 1.069 -0.561 1.4805 -1.0026 0.1429 -0.1528 0.2402 -0.3425 0.2808 -0.5476 0.0407 -0.2052 0.023 -0.4177 -0.0509 -0.6133 -0.0739 -0.1957 -0.2011 -0.3668 -0.3672 -0.4939 -0.1661 -0.1271 -0.3645 -0.2051 -0.5727 -0.2252 -3.24 -0.27 -3.93 -0.16 -4.8 -1.06l-1.42 -1.41Z" stroke-width="1.5"></path>
  <path stroke="#000000" stroke-linecap="round" stroke-linejoin="round" d="m8.52 12.79 2.07 2.12" stroke-width="1.5"></path>
  <path stroke="#000000" stroke-linecap="round" stroke-linejoin="round" d="m11.89 11.42 5.49 -5.62996" stroke-width="1.5"></path>
  <path stroke="#000000" stroke-linecap="round" stroke-linejoin="round" d="M4.92 17.06c0 0.1996 0.03828 0.3973 0.11266 0.5817 0.07437 0.1844 0.18339 0.352 0.32082 0.4931 0.13743 0.1412 0.30058 0.2531 0.48015 0.3295 0.17956 0.0764 0.37201 0.1157 0.56637 0.1157 0.19435 0 0.38681 -0.0393 0.56637 -0.1157 0.17956 -0.0764 0.34272 -0.1883 0.48015 -0.3295 0.13743 -0.1411 0.24644 -0.3087 0.32082 -0.4931S7.88 17.2596 7.88 17.06s-0.03828 -0.3972 -0.11266 -0.5816c-0.07438 -0.1845 -0.18339 -0.352 -0.32082 -0.4932 -0.13743 -0.1411 -0.30059 -0.2531 -0.48015 -0.3295 -0.17956 -0.0763 -0.37202 -0.1157 -0.56637 -0.1157 -0.19436 0 -0.38681 0.0394 -0.56637 0.1157 -0.17957 0.0764 -0.34272 0.1884 -0.48015 0.3295 -0.13743 0.1412 -0.24645 0.3087 -0.32082 0.4932 -0.07438 0.1844 -0.11266 0.382 -0.11266 0.5816Z" stroke-width="1.5"></path>
</svg>