<svg xmlns="http://www.w3.org/2000/svg" fill="none" viewBox="0 0 48 48" id="Smiley-Indiferent--Streamline-Plump">
  <desc>
    Smiley Indiferent Streamline Icon: https://streamlinehq.com
  </desc>
  <g id="smiley-indiferent">
    <path id="Subtract" fill="#000000" fill-rule="evenodd" d="M1.5 24C1.5 11.574 11.574 1.5 24 1.5S46.5 11.574 46.5 24 36.426 46.5 24 46.5 1.5 36.426 1.5 24ZM16 30a2 2 0 1 0 0 4h16a2 2 0 1 0 0 -4H16Zm-5 -12a2 2 0 0 1 2 -2h6a2 2 0 1 1 0 4h-6a2 2 0 0 1 -2 -2Zm18 -2a2 2 0 1 0 0 4h6a2 2 0 1 0 0 -4l-6 0Z" clip-rule="evenodd" stroke-width="1"></path>
  </g>
</svg>