<svg xmlns="http://www.w3.org/2000/svg" viewBox="0 0 14 14">
  <g>
    <path d="M11.25,0H3.5a1,1,0,0,0-1,1V2.94a.25.25,0,0,0,.31.24A5.68,5.68,0,0,1,4.25,3,5.76,5.76,0,0,1,9.54,6.49a.24.24,0,0,0,.19.15.25.25,0,0,0,.23-.1,2.62,2.62,0,0,0,.45-.86.24.24,0,0,1,.24-.18h.6a2.75,2.75,0,0,0,0-5.5Zm0,4h-.5a.25.25,0,0,1-.25-.25v-2a.25.25,0,0,1,.25-.25h.5a1.25,1.25,0,0,1,0,2.5Z" style="fill: #000001"/>
    <path d="M4.25,13A4.25,4.25,0,1,1,8.5,8.75,4.26,4.26,0,0,1,4.25,13Zm0-7A2.75,2.75,0,1,0,7,8.75,2.75,2.75,0,0,0,4.25,6Z" style="fill: #000001"/>
    <path d="M4.25,9.5a.74.74,0,0,1-.53-.22.75.75,0,0,1,0-1.06l.75-.75A.75.75,0,0,1,5.53,8.53l-.75.75A.74.74,0,0,1,4.25,9.5Z" style="fill: #000001"/>
  </g>
</svg>
