<svg xmlns="http://www.w3.org/2000/svg" viewBox="0 0 14 14">
  <g>
    <path d="M1.25,4.25a5.66,5.66,0,0,1,.61-2.57.25.25,0,0,0,0-.17.16.16,0,0,0-.14-.1,1.45,1.45,0,0,0-1.2.35A1.49,1.49,0,0,0,0,2.89v8a1.49,1.49,0,0,0,1.31,1.49,8.19,8.19,0,0,1,3.9,1.55A.51.51,0,0,0,6,13.49V10.12a.26.26,0,0,0-.2-.25A5.75,5.75,0,0,1,1.25,4.25Z" style="fill: #000001"/>
    <path d="M7,8.5a4.25,4.25,0,1,1,4.25-4.25A4.26,4.26,0,0,1,7,8.5Zm0-7A2.75,2.75,0,1,0,9.75,4.25,2.75,2.75,0,0,0,7,1.5Z" style="fill: #000001"/>
    <path d="M7,5a.74.74,0,0,1-.53-.22.75.75,0,0,1,0-1.06L7.22,3A.75.75,0,1,1,8.28,4l-.75.75A.74.74,0,0,1,7,5Z" style="fill: #000001"/>
    <path d="M14,2.89a1.49,1.49,0,0,0-.52-1.13,1.45,1.45,0,0,0-1.2-.35.17.17,0,0,0-.14.09.28.28,0,0,0,0,.18,5.66,5.66,0,0,1,.61,2.57A5.75,5.75,0,0,1,8.2,9.87a.26.26,0,0,0-.2.25v3.37a.51.51,0,0,0,.79.42,8.19,8.19,0,0,1,3.9-1.55A1.49,1.49,0,0,0,14,10.87Z" style="fill: #000001"/>
  </g>
</svg>
