<svg xmlns="http://www.w3.org/2000/svg" viewBox="0 0 14 14">
  <g>
    <path d="M9.71,6.5H8.25a.76.76,0,0,1-.75-.75V3.88a.75.75,0,1,1,1.5,0v.87A.25.25,0,0,0,9.25,5h.46a.75.75,0,0,1,0,1.5Z" style="fill: #000001"/>
    <path d="M.48,12.37a4.86,4.86,0,0,1,2.84,1.44.27.27,0,0,0,.36,0,4.86,4.86,0,0,1,2.84-1.44A.56.56,0,0,0,7,11.82V8.55a.57.57,0,0,0-.19-.42A.54.54,0,0,0,6.46,8H6.38a4.91,4.91,0,0,0-2.7,1.42.27.27,0,0,1-.36,0A4.91,4.91,0,0,0,.62,8H.54a.54.54,0,0,0-.35.13A.57.57,0,0,0,0,8.55v3.27A.56.56,0,0,0,.48,12.37Z" style="fill: #000001"/>
    <path d="M8.25,0A5.74,5.74,0,0,0,2.64,7a.22.22,0,0,0,.12.16q.33.18.6.36a.24.24,0,0,0,.28,0,4.28,4.28,0,0,1,.42-.26A.26.26,0,0,0,4.18,7,4.14,4.14,0,0,1,4,5.75,4.25,4.25,0,1,1,8.72,10a.26.26,0,0,0-.22.25v1a.25.25,0,0,0,.08.18.26.26,0,0,0,.19.07A5.75,5.75,0,0,0,8.25,0Z" style="fill: #000001"/>
  </g>
</svg>
