<svg xmlns="http://www.w3.org/2000/svg" viewBox="0 0 14 14">
  <g>
    <path d="M9.71,6.5H8.25a.76.76,0,0,1-.75-.75V3.88a.75.75,0,1,1,1.5,0v.87A.25.25,0,0,0,9.25,5h.46a.75.75,0,0,1,0,1.5Z" style="fill: #000001"/>
    <path d="M4.71,13.09v-.23a.3.3,0,0,1,.2-.28,3.14,3.14,0,0,0,.79-.46.26.26,0,0,1,.19-.07.42.42,0,0,1,.15,0l.2.12a.92.92,0,0,0,.45.12.89.89,0,0,0,.79-.45.9.9,0,0,0-.33-1.25L7,10.52a.31.31,0,0,1-.15-.31,2.84,2.84,0,0,0,0-.92A.31.31,0,0,1,7,9l.2-.11a.9.9,0,0,0,.33-1.25.89.89,0,0,0-.78-.45.93.93,0,0,0-.46.12L6,7.41a.42.42,0,0,1-.15,0,.26.26,0,0,1-.19-.07,3.14,3.14,0,0,0-.79-.46.3.3,0,0,1-.2-.28V6.41a.91.91,0,0,0-1.82,0v.23a.29.29,0,0,1-.19.28,2.82,2.82,0,0,0-.79.46.3.3,0,0,1-.19.07.37.37,0,0,1-.15,0l-.2-.12a1,1,0,0,0-.46-.12.91.91,0,0,0-.45,1.7L.65,9a.31.31,0,0,1,.15.31,3.15,3.15,0,0,0,0,.92.31.31,0,0,1-.15.31l-.19.11a.91.91,0,0,0,.45,1.7,1,1,0,0,0,.46-.12l.2-.12a.37.37,0,0,1,.15,0,.3.3,0,0,1,.19.07,2.82,2.82,0,0,0,.79.46.29.29,0,0,1,.19.28v.23a.91.91,0,0,0,1.82,0ZM2.59,9.75A1.22,1.22,0,1,1,3.8,11,1.21,1.21,0,0,1,2.59,9.75Z" style="fill: #000001"/>
    <path d="M14,5.75a5.75,5.75,0,0,0-11.14-2A.23.23,0,0,0,2.91,4a.25.25,0,0,0,.25.07A2.25,2.25,0,0,1,3.8,4a2.22,2.22,0,0,1,.37,0,.26.26,0,0,0,.26-.14A4.25,4.25,0,1,1,9,9.93a.28.28,0,0,0-.18.14.27.27,0,0,0,0,.23,2.37,2.37,0,0,1,.26.87.27.27,0,0,0,.1.17.29.29,0,0,0,.2.05A5.76,5.76,0,0,0,14,5.75Z" style="fill: #000001"/>
  </g>
</svg>
