<svg xmlns="http://www.w3.org/2000/svg" fill="none" viewBox="0 0 24 24" id="Brightness--Streamline-Ultimate">
  <desc>
    Brightness Streamline Icon: https://streamlinehq.com
  </desc>
  <path fill="#ffef5e" d="M12.0002 15.6676c2.025 0 3.6666 -1.6417 3.6666 -3.6667 0 -2.02505 -1.6416 -3.66667 -3.6666 -3.66667 -2.02508 0 -3.6667 1.64162 -3.6667 3.66667 0 2.025 1.64162 3.6667 3.6667 3.6667Z" stroke-width="1"></path>
  <path fill="#fff9bf" d="M9.40762 14.5933c-0.67499 -0.6902 -1.05058 -1.6187 -1.04526 -2.584 0.00532 -0.9654 0.39111 -1.8897 1.07366 -2.57233 0.68258 -0.68267 1.60678 -1.06864 2.57208 -1.07412 0.9654 -0.00549 1.8939 0.36994 2.5842 1.0448L9.40762 14.5933Z" stroke-width="1"></path>
  <path stroke="#191919" stroke-linecap="round" stroke-linejoin="round" d="M12.0002 15.6676c2.025 0 3.6666 -1.6417 3.6666 -3.6667 0 -2.02505 -1.6416 -3.66667 -3.6666 -3.66667 -2.02508 0 -3.6667 1.64162 -3.6667 3.66667 0 2.025 1.64162 3.6667 3.6667 3.6667Z" stroke-width="1"></path>
  <path stroke="#191919" stroke-linecap="round" stroke-linejoin="round" d="M12 1.45923V5.1259" stroke-width="1"></path>
  <path stroke="#191919" stroke-linecap="round" stroke-linejoin="round" d="M12 18.876v3.6666" stroke-width="1"></path>
  <path stroke="#191919" stroke-linecap="round" stroke-linejoin="round" d="m4.5459 4.54663 2.59325 2.59233" stroke-width="1"></path>
  <path stroke="#191919" stroke-linecap="round" stroke-linejoin="round" d="m16.8613 16.8621 2.5933 2.5932" stroke-width="1"></path>
  <path stroke="#191919" stroke-linecap="round" stroke-linejoin="round" d="M1.4585 12.001h3.66666" stroke-width="1"></path>
  <path stroke="#191919" stroke-linecap="round" stroke-linejoin="round" d="M18.875 12.001h3.6667" stroke-width="1"></path>
  <path stroke="#191919" stroke-linecap="round" stroke-linejoin="round" d="m4.5459 19.4553 2.59325 -2.5932" stroke-width="1"></path>
  <path stroke="#191919" stroke-linecap="round" stroke-linejoin="round" d="m16.8613 7.13896 2.5933 -2.59233" stroke-width="1"></path>
</svg>