<svg xmlns="http://www.w3.org/2000/svg" fill="none" viewBox="0 0 24 24" id="Button-Zigzag-1--Streamline-Ultimate">
  <desc>
    Button Zigzag 1 Streamline Icon: https://streamlinehq.com
  </desc>
  <path fill="#c2f3ff" d="M12.0001 22.6468c5.88 0 10.6467 -4.7668 10.6467 -10.6467 0 -5.8801 -4.7667 -10.6469 -10.6467 -10.6469C6.12 1.3532 1.3533 6.12 1.3533 12.0001c0 5.8799 4.7667 10.6467 10.6468 10.6467Z" stroke-width="1"></path>
  <path stroke="#191919" stroke-linecap="round" stroke-linejoin="round" d="m0.8207 16.2578 3.7264 3.7263 3.7264 -3.7263" stroke-width="1"></path>
  <path stroke="#191919" stroke-linecap="round" stroke-linejoin="round" d="M19.4528 4.0149v12.2439c0 0.9883 -0.3925 1.9361 -1.0913 2.6349 -0.6989 0.6989 -1.6467 1.0915 -2.635 1.0915s-1.9362 -0.3926 -2.6351 -1.0915c-0.6988 -0.6988 -1.0913 -1.6466 -1.0913 -2.6349V7.7413c0 -0.9883 -0.3926 -1.9361 -1.0914 -2.6349 -0.6989 -0.6989 -1.6467 -1.0915 -2.635 -1.0915 -0.9883 0 -1.9361 0.3926 -2.635 1.0915 -0.6988 0.6988 -1.0914 1.6466 -1.0914 2.6349v12.2439" stroke-width="1"></path>
  <path stroke="#191919" stroke-linecap="round" stroke-linejoin="round" d="m23.1793 7.7403 -3.7265 -3.7264 -3.7263 3.7264" stroke-width="1"></path>
</svg>