<svg xmlns="http://www.w3.org/2000/svg" fill="none" viewBox="0 0 24 24" id="Calendar-1--Streamline-Ultimate">
  <desc>
    Calendar 1 Streamline Icon: https://streamlinehq.com
  </desc>
  <path fill="#e3e3e3" d="M21.3737 3.56348H2.62586c-0.51773 0 -0.93738 0.41965 -0.93738 0.93738V21.3739c0 0.5178 0.41965 0.9374 0.93738 0.9374H21.3737c0.5177 0 0.9374 -0.4196 0.9374 -0.9374V4.50086c0 -0.51764 -0.4197 -0.93738 -0.9374 -0.93738Z" stroke-width="1"></path>
  <path fill="#ffffff" d="M22.3111 7.31209H1.68848V4.49994c0 -0.51773 0.41965 -0.93738 0.93738 -0.93738H21.3737c0.5177 0 0.9374 0.41965 0.9374 0.93738v2.81215Z" stroke-width="1"></path>
  <path stroke="#191919" stroke-linecap="round" stroke-linejoin="round" d="M21.3737 3.56348H2.62586c-0.51773 0 -0.93738 0.41965 -0.93738 0.93738V21.3739c0 0.5178 0.41965 0.9374 0.93738 0.9374H21.3737c0.5177 0 0.9374 -0.4196 0.9374 -0.9374V4.50086c0 -0.51764 -0.4197 -0.93738 -0.9374 -0.93738Z" stroke-width="1"></path>
  <path stroke="#191919" stroke-linecap="round" stroke-linejoin="round" d="M4.50098 1.68872v2.81215" stroke-width="1"></path>
  <path stroke="#191919" stroke-linecap="round" stroke-linejoin="round" d="M8.25049 1.68872v2.81215" stroke-width="1"></path>
  <path stroke="#191919" stroke-linecap="round" stroke-linejoin="round" d="M12 1.68872v2.81215" stroke-width="1"></path>
  <path stroke="#191919" stroke-linecap="round" stroke-linejoin="round" d="M15.7495 1.68872v2.81215" stroke-width="1"></path>
  <path stroke="#191919" stroke-linecap="round" stroke-linejoin="round" d="M19.499 1.68872v2.81215" stroke-width="1"></path>
  <path fill="#78eb7b" stroke="#191919" stroke-linecap="round" stroke-linejoin="round" d="M12.9374 8.24945h2.8121v3.74965H12V9.18683c0 -0.51764 0.4197 -0.93738 0.9374 -0.93738Z" stroke-width="1"></path>
  <path fill="#ff808c" stroke="#191919" stroke-linecap="round" stroke-linejoin="round" d="M15.7495 8.24945h2.8123c0.5176 0 0.9373 0.41974 0.9373 0.93738v2.81227h-3.7496V8.24945Z" stroke-width="1"></path>
  <path fill="#78eb7b" stroke="#191919" stroke-linecap="round" stroke-linejoin="round" d="M15.7495 12H12v3.7495h3.7495V12Z" stroke-width="1"></path>
  <path fill="#ff808c" stroke="#191919" stroke-linecap="round" stroke-linejoin="round" d="M19.4991 12h-3.7496v3.7495h3.7496V12Z" stroke-width="1"></path>
  <path fill="#78eb7b" stroke="#191919" stroke-linecap="round" stroke-linejoin="round" d="M15.7495 15.7495H12v3.7496h3.7495v-3.7496Z" stroke-width="1"></path>
  <path fill="#ff808c" stroke="#191919" stroke-linecap="round" stroke-linejoin="round" d="M15.7495 15.7486h3.7496v2.8121c0 0.5178 -0.4197 0.9374 -0.9373 0.9374h-2.8123v-3.7495Z" stroke-width="1"></path>
  <path fill="#78eb7b" stroke="#191919" stroke-linecap="round" stroke-linejoin="round" d="M5.43836 11.9991H8.2506v3.7495H4.50098v-2.8121c0 -0.5178 0.41965 -0.9374 0.93738 -0.9374Z" stroke-width="1"></path>
  <path fill="#78eb7b" stroke="#191919" stroke-linecap="round" stroke-linejoin="round" d="M12 12H8.25049v3.7495H12V12Z" stroke-width="1"></path>
  <path fill="#78eb7b" stroke="#191919" stroke-linecap="round" stroke-linejoin="round" d="M4.50098 15.7486H8.2506v3.7495H5.43836c-0.51764 0 -0.93738 -0.4196 -0.93738 -0.9374v-2.8121Z" stroke-width="1"></path>
  <path fill="#78eb7b" stroke="#191919" stroke-linecap="round" stroke-linejoin="round" d="M12 15.7495H8.25049v3.7496H12v-3.7496Z" stroke-width="1"></path>
</svg>