<svg xmlns="http://www.w3.org/2000/svg" fill="none" viewBox="0 0 24 24" id="Calendar-Date--Streamline-Ultimate">
  <desc>
    Calendar Date Streamline Icon: https://streamlinehq.com
  </desc>
  <path fill="#ff808c" d="M1.4585 7.87496V4.20829c0 -0.24312 0.09657 -0.47627 0.26848 -0.64818 0.17191 -0.1719 0.40506 -0.26848 0.64818 -0.26848H21.6252c0.2431 0 0.4763 0.09658 0.6481 0.26848 0.1719 0.17191 0.2685 0.40506 0.2685 0.64818v3.66667H1.4585Z" stroke-width="1"></path>
  <path fill="#ffbfc5" d="M1.4585 5.58329v-1.375c0 -0.24312 0.09657 -0.47627 0.26848 -0.64818 0.17191 -0.1719 0.40506 -0.26848 0.64818 -0.26848H21.6252c0.2431 0 0.4763 0.09658 0.6481 0.26848 0.1719 0.17191 0.2685 0.40506 0.2685 0.64818v1.375H1.4585Z" stroke-width="1"></path>
  <path fill="#ffffff" d="M1.4585 7.875h21.0833v13.75c0 0.2431 -0.0966 0.4763 -0.2685 0.6482 -0.1718 0.1718 -0.405 0.2685 -0.6481 0.2685H2.37516c-0.24312 0 -0.47627 -0.0967 -0.64818 -0.2685 -0.17191 -0.1719 -0.26848 -0.4051 -0.26848 -0.6482V7.875Z" stroke-width="1"></path>
  <path stroke="#191919" stroke-linecap="round" stroke-linejoin="round" d="M21.6252 3.2926H2.37516c-0.50626 0 -0.91666 0.4104 -0.91666 0.91667V21.6259c0 0.5063 0.4104 0.9167 0.91666 0.9167H21.6252c0.5062 0 0.9166 -0.4104 0.9166 -0.9167V4.20927c0 -0.50627 -0.4104 -0.91667 -0.9166 -0.91667Z" stroke-width="1"></path>
  <path stroke="#191919" stroke-linecap="round" stroke-linejoin="round" d="M6.0415 1.45923v4.58333" stroke-width="1"></path>
  <path stroke="#191919" stroke-linecap="round" stroke-linejoin="round" d="M17.9585 1.45923v4.58333" stroke-width="1"></path>
  <path stroke="#191919" stroke-linecap="round" stroke-linejoin="round" d="M1.4585 7.87598h21.0833" stroke-width="1"></path>
  <path stroke="#191919" stroke-linecap="round" stroke-linejoin="round" d="M6.9585 18.4176h4.5833" stroke-width="1"></path>
  <path stroke="#191919" stroke-linecap="round" stroke-linejoin="round" d="M9.25016 18.4167v-6.875c0.00005 -0.0863 -0.02428 -0.1709 -0.07019 -0.244 -0.0459 -0.0731 -0.11152 -0.1317 -0.1893 -0.1692 -0.07777 -0.0374 -0.16454 -0.0522 -0.25031 -0.0425 -0.08578 0.0097 -0.16707 0.0434 -0.23453 0.0973L6.9585 12.4217" stroke-width="1"></path>
  <path stroke="#191919" stroke-linecap="round" stroke-linejoin="round" d="m15.2083 18.4166 2.6868 -6.6504c0.0425 -0.069 0.0647 -0.1487 0.0639 -0.2298 -0.0009 -0.0811 -0.0246 -0.1603 -0.0685 -0.2285 -0.0463 -0.0701 -0.1095 -0.1275 -0.1839 -0.1667 -0.0743 -0.0393 -0.1574 -0.0592 -0.2414 -0.0579h-3.6319c-0.1215 0 -0.2381 0.0483 -0.3241 0.1343 -0.0859 0.0859 -0.1342 0.2025 -0.1342 0.324v0.9167" stroke-width="1"></path>
</svg>