<svg xmlns="http://www.w3.org/2000/svg" fill="none" viewBox="0 0 24 24" id="Calendar-Edit-1--Streamline-Ultimate">
  <desc>
    Calendar Edit 1 Streamline Icon: https://streamlinehq.com
  </desc>
  <path fill="#ff808c" d="M19.7918 7.88235v-3.674c0 -0.24311 -0.0966 -0.47627 -0.2685 -0.64818 -0.1718 -0.1719 -0.405 -0.26848 -0.6481 -0.26848H2.37516c-0.24312 0 -0.47627 0.09658 -0.64818 0.26848 -0.17191 0.17191 -0.26848 0.40507 -0.26848 0.64818v3.674h18.3333Z" stroke-width="1"></path>
  <path fill="#ffbfc5" d="M19.7918 5.12502v-0.91667c0 -0.24311 -0.0966 -0.47627 -0.2685 -0.64818 -0.1718 -0.1719 -0.405 -0.26848 -0.6481 -0.26848H2.37516c-0.24312 0 -0.47627 0.09658 -0.64818 0.26848 -0.17191 0.17191 -0.26848 0.40507 -0.26848 0.64818v0.91667h18.3333Z" stroke-width="1"></path>
  <path fill="#ffffff" d="M1.4585 7.88233v9.15937c0 0.2431 0.09657 0.4763 0.26848 0.6481 0.17191 0.1719 0.40506 0.2685 0.64818 0.2685H18.8752c0.2431 0 0.4763 -0.0966 0.6481 -0.2685 0.1719 -0.1718 0.2685 -0.405 0.2685 -0.6481V7.875l-18.3333 0.00733Z" stroke-width="1"></path>
  <path fill="#ffef5e" stroke="#191919" stroke-linecap="round" stroke-linejoin="round" d="m18.3968 12.9372 -5.7552 5.7552 2.7502 2.7502 5.7552 -5.7552 -2.7502 -2.7502Z" stroke-width="1"></path>
  <path fill="#ffbc44" stroke="#191919" stroke-linecap="round" stroke-linejoin="round" d="m11.5415 22.5426 3.85 -1.1 -2.75 -2.75 -1.1 3.85Z" stroke-width="1"></path>
  <path fill="#ff808c" stroke="#191919" stroke-linecap="round" stroke-linejoin="round" d="M21.9725 12.1119c-0.3648 -0.3646 -0.8593 -0.5693 -1.375 -0.5693 -0.5158 0 -1.0103 0.2047 -1.375 0.5693l-0.825 0.825 2.75 2.75 0.825 -0.825c0.3645 -0.3648 0.5692 -0.8593 0.5692 -1.375 0 -0.5158 -0.2047 -1.0103 -0.5692 -1.375Z" stroke-width="1"></path>
  <path stroke="#191919" stroke-linecap="round" stroke-linejoin="round" d="M9.7085 17.9584H2.37516c-0.24312 0 -0.47627 -0.0967 -0.64818 -0.2685 -0.17191 -0.1719 -0.26848 -0.4051 -0.26848 -0.6482V4.20835c0 -0.24311 0.09657 -0.47627 0.26848 -0.64818 0.17191 -0.1719 0.40506 -0.26848 0.64818 -0.26848H18.8752c0.2431 0 0.4763 0.09658 0.6481 0.26848 0.1719 0.17191 0.2685 0.40507 0.2685 0.64818v5.5" stroke-width="1"></path>
  <path stroke="#191919" stroke-linecap="round" stroke-linejoin="round" d="M6.0415 1.45923v4.58333" stroke-width="1"></path>
  <path stroke="#191919" stroke-linecap="round" stroke-linejoin="round" d="M15.2085 1.45923v4.58333" stroke-width="1"></path>
  <path stroke="#191919" stroke-linecap="round" stroke-linejoin="round" d="M1.4585 7.87592h18.3333" stroke-width="1"></path>
</svg>