<svg xmlns="http://www.w3.org/2000/svg" fill="none" viewBox="0 0 24 24" id="Caps--Streamline-Ultimate">
  <desc>
    Caps Streamline Icon: https://streamlinehq.com
  </desc>
  <path fill="#c2f3ff" d="M12.0002 21.1666c5.0625 0 9.1666 -4.1041 9.1666 -9.1666 0 -5.06263 -4.1041 -9.16669 -9.1666 -9.16669 -5.06265 0 -9.1667 4.10406 -9.1667 9.16669 0 5.0625 4.10405 9.1666 9.1667 9.1666Z" stroke-width="1"></path>
  <path stroke="#191919" stroke-linecap="round" stroke-linejoin="round" d="M1.4585 7.87502v-0.91667c0 -0.24311 0.09657 -0.47627 0.26848 -0.64818 0.17191 -0.1719 0.40506 -0.26848 0.64818 -0.26848H9.7085c0.24311 0 0.4763 0.09658 0.6482 0.26848 0.1718 0.17191 0.2685 0.40507 0.2685 0.64818v0.91667" stroke-width="1"></path>
  <path stroke="#191919" stroke-linecap="round" stroke-linejoin="round" d="M6.0415 6.03986V18.8731" stroke-width="1"></path>
  <path stroke="#191919" stroke-linecap="round" stroke-linejoin="round" d="M4.6665 18.8732h2.75" stroke-width="1"></path>
  <path stroke="#191919" stroke-linecap="round" stroke-linejoin="round" d="M13.375 7.87502v-0.91667c0 -0.24311 0.0966 -0.47627 0.2685 -0.64818 0.1719 -0.1719 0.4051 -0.26848 0.6482 -0.26848h7.3333c0.2431 0 0.4763 0.09658 0.6482 0.26848 0.1718 0.17191 0.2685 0.40507 0.2685 0.64818v0.91667" stroke-width="1"></path>
  <path stroke="#191919" stroke-linecap="round" stroke-linejoin="round" d="M17.9585 6.03986V18.8731" stroke-width="1"></path>
  <path stroke="#191919" stroke-linecap="round" stroke-linejoin="round" d="M16.5835 18.8732h2.75" stroke-width="1"></path>
</svg>