<svg xmlns="http://www.w3.org/2000/svg" fill="none" viewBox="0 0 24 24" id="Expand--Streamline-Ultimate">
  <desc>
    Expand Streamline Icon: https://streamlinehq.com
  </desc>
  <path fill="#c2f3ff" d="M20.2498 6.95831H3.74984c-0.25313 0 -0.45834 0.20521 -0.45834 0.45834v9.16665c0 0.2531 0.20521 0.4583 0.45834 0.4583H20.2498c0.2531 0 0.4584 -0.2052 0.4584 -0.4583V7.41665c0 -0.25313 -0.2053 -0.45834 -0.4584 -0.45834Z" stroke-width="1"></path>
  <path stroke="#191919" stroke-linecap="round" stroke-linejoin="round" d="M16.125 5.125h5.5c0.2431 0 0.4763 0.09658 0.6482 0.26848 0.1718 0.17191 0.2685 0.40507 0.2685 0.64819v3.66666" stroke-width="1"></path>
  <path stroke="#191919" stroke-linecap="round" stroke-linejoin="round" d="M7.87516 5.125h-5.5c-0.24312 0 -0.47627 0.09658 -0.64818 0.26848 -0.17191 0.17191 -0.26848 0.40507 -0.26848 0.64819v3.66666" stroke-width="1"></path>
  <path stroke="#191919" stroke-linecap="round" stroke-linejoin="round" d="M16.125 18.875h5.5c0.2431 0 0.4763 -0.0966 0.6482 -0.2685 0.1718 -0.1718 0.2685 -0.405 0.2685 -0.6481v-3.6667" stroke-width="1"></path>
  <path stroke="#191919" stroke-linecap="round" stroke-linejoin="round" d="M7.87516 18.875h-5.5c-0.24312 0 -0.47627 -0.0966 -0.64818 -0.2685 -0.17191 -0.1718 -0.26848 -0.405 -0.26848 -0.6481v-3.6667" stroke-width="1"></path>
  <path fill="#ffef5e" d="M17.9583 8.79077H6.04167c-0.50626 0 -0.91667 0.41041 -0.91667 0.91667v4.58336c0 0.5062 0.41041 0.9166 0.91667 0.9166H17.9583c0.5063 0 0.9167 -0.4104 0.9167 -0.9166V9.70744c0 -0.50626 -0.4104 -0.91667 -0.9167 -0.91667Z" stroke-width="1"></path>
  <path fill="#fff9bf" d="M18.875 10.625v-0.91665c0 -0.24311 -0.0966 -0.47627 -0.2685 -0.64818 -0.1719 -0.1719 -0.4051 -0.26848 -0.6482 -0.26848H6.04167c-0.24312 0 -0.47628 0.09658 -0.64819 0.26848 -0.1719 0.17191 -0.26848 0.40507 -0.26848 0.64818v0.91665h13.75Z" stroke-width="1"></path>
  <path stroke="#191919" stroke-linecap="round" stroke-linejoin="round" d="M17.9583 8.79077H6.04167c-0.50626 0 -0.91667 0.41041 -0.91667 0.91667v4.58336c0 0.5062 0.41041 0.9166 0.91667 0.9166H17.9583c0.5063 0 0.9167 -0.4104 0.9167 -0.9166V9.70744c0 -0.50626 -0.4104 -0.91667 -0.9167 -0.91667Z" stroke-width="1"></path>
</svg>