<svg xmlns="http://www.w3.org/2000/svg" fill="none" viewBox="0 0 24 24" id="Font-Size--Streamline-Ultimate">
  <desc>
    Font Size Streamline Icon: https://streamlinehq.com
  </desc>
  <path fill="#c2f3ff" d="M12.0002 21.1666c5.0625 0 9.1666 -4.1041 9.1666 -9.1666 0 -5.06263 -4.1041 -9.16669 -9.1666 -9.16669 -5.06265 0 -9.1667 4.10406 -9.1667 9.16669 0 5.0625 4.10405 9.1666 9.1667 9.1666Z" stroke-width="1"></path>
  <path stroke="#191919" stroke-linecap="round" stroke-linejoin="round" d="M15.6476 20.9147 9.66541 3.39442c-0.03097 -0.09039 -0.08941 -0.16884 -0.16715 -0.22437 -0.07774 -0.05554 -0.17089 -0.08539 -0.26643 -0.08539 -0.09555 0 -0.1887 0.02985 -0.26643 0.08539 -0.07774 0.05553 -0.13618 0.13398 -0.16715 0.22437L2.8335 20.9147" stroke-width="1"></path>
  <path stroke="#191919" stroke-linecap="round" stroke-linejoin="round" d="M5.01758 14.498h8.43982" stroke-width="1"></path>
  <path stroke="#191919" stroke-linecap="round" stroke-linejoin="round" d="M1.4585 20.9147h2.76833" stroke-width="1"></path>
  <path stroke="#191919" stroke-linecap="round" stroke-linejoin="round" d="M14.2725 20.9147h2.7692" stroke-width="1"></path>
  <path stroke="#191919" stroke-linecap="round" stroke-linejoin="round" d="M21.6248 20.9146 17.8454 9.84309c-0.031 -0.09039 -0.0895 -0.16883 -0.1672 -0.22437 -0.0777 -0.05554 -0.1709 -0.08539 -0.2664 -0.08539 -0.0956 0 -0.1887 0.02985 -0.2665 0.08539 -0.0777 0.05554 -0.1361 0.13398 -0.1671 0.22437l-1.7306 5.08111" stroke-width="1"></path>
  <path stroke="#191919" stroke-linecap="round" stroke-linejoin="round" d="M16.5098 16.3314h3.5511" stroke-width="1"></path>
  <path stroke="#191919" stroke-linecap="round" stroke-linejoin="round" d="M20.7231 20.9147h1.8187" stroke-width="1"></path>
</svg>