<svg xmlns="http://www.w3.org/2000/svg" fill="none" viewBox="0 0 24 24" id="Keyhole-Square--Streamline-Ultimate">
  <desc>
    Keyhole Square Streamline Icon: https://streamlinehq.com
  </desc>
  <path fill="#e3e3e3" d="M1.4585 3.29165c0 -0.48623 0.19315 -0.95255 0.53697 -1.29636 0.34381 -0.34382 0.81013 -0.53698 1.29636 -0.53698H20.7085c0.4862 0 0.9525 0.19316 1.2963 0.53698 0.3439 0.34381 0.537 0.81013 0.537 1.29636V20.7083c0 0.4862 -0.1931 0.9525 -0.537 1.2964 -0.3438 0.3438 -0.8101 0.5369 -1.2963 0.5369H3.29183c-0.48623 0 -0.95255 -0.1931 -1.29636 -0.5369 -0.34382 -0.3439 -0.53697 -0.8102 -0.53697 -1.2964V3.29165Z" stroke-width="1"></path>
  <path fill="#ffffff" d="M20.7085 1.45831H3.29183c-0.48623 0 -0.95255 0.19316 -1.29636 0.53698 -0.34382 0.34381 -0.53697 0.81013 -0.53697 1.29636v2.75c0 -0.48623 0.19315 -0.95255 0.53697 -1.29636 0.34381 -0.34383 0.81013 -0.53698 1.29636 -0.53698H20.7085c0.4862 0 0.9525 0.19315 1.2963 0.53698 0.3439 0.34381 0.537 0.81013 0.537 1.29636v-2.75c0 -0.48623 -0.1931 -0.95255 -0.537 -1.29636 -0.3438 -0.34382 -0.8101 -0.53698 -1.2963 -0.53698Z" stroke-width="1"></path>
  <path stroke="#191919" stroke-linecap="round" stroke-linejoin="round" d="M1.4585 3.29165c0 -0.48623 0.19315 -0.95255 0.53697 -1.29636 0.34381 -0.34382 0.81013 -0.53698 1.29636 -0.53698H20.7085c0.4862 0 0.9525 0.19316 1.2963 0.53698 0.3439 0.34381 0.537 0.81013 0.537 1.29636V20.7083c0 0.4862 -0.1931 0.9525 -0.537 1.2964 -0.3438 0.3438 -0.8101 0.5369 -1.2963 0.5369H3.29183c-0.48623 0 -0.95255 -0.1931 -1.29636 -0.5369 -0.34382 -0.3439 -0.53697 -0.8102 -0.53697 -1.2964V3.29165Z" stroke-width="1"></path>
  <path fill="#6b6b6b" stroke="#191919" stroke-linecap="round" stroke-linejoin="round" d="M15.2082 9.24994c0.0004 -0.57323 -0.1527 -1.13611 -0.4435 -1.63011 -0.2908 -0.49399 -0.7086 -0.90105 -1.21 -1.17885 -0.5014 -0.27779 -1.0682 -0.41618 -1.6412 -0.40076 -0.573 0.01543 -1.1315 0.1841 -1.6172 0.48846 -0.48574 0.30437 -0.88107 0.73332 -1.14487 1.24225 -0.2638 0.50892 -0.38644 1.07923 -0.35514 1.6516 0.03129 0.57238 0.21536 1.12587 0.53307 1.60307 0.31771 0.4771 0.75744 0.8604 1.27344 1.11l-1.35296 5.8227h5.49996l-1.3548 -5.8227c0.5428 -0.2621 1.0007 -0.6718 1.3214 -1.1822 0.3207 -0.5103 0.4911 -1.1007 0.4918 -1.70346Z" stroke-width="1"></path>
</svg>