<svg xmlns="http://www.w3.org/2000/svg" fill="none" viewBox="0 0 24 24" id="Lock-Hierarchy--Streamline-Ultimate">
  <desc>
    Lock Hierarchy Streamline Icon: https://streamlinehq.com
  </desc>
  <path stroke="#191919" stroke-linecap="round" stroke-linejoin="round" d="M4.6665 17.0416V14.75c0 -0.1216 0.04829 -0.2382 0.13425 -0.3242 0.08595 -0.0859 0.20253 -0.1342 0.32409 -0.1342H18.8748c0.1216 0 0.2382 0.0483 0.3242 0.1342 0.0859 0.086 0.1342 0.2026 0.1342 0.3242v2.2916" stroke-width="1"></path>
  <path stroke="#191919" stroke-linecap="round" stroke-linejoin="round" d="M12 11.5416v5.5" stroke-width="1"></path>
  <path fill="#ffef5e" d="M16.5832 10.625c0 0.2431 -0.0966 0.4763 -0.2685 0.6482s-0.4051 0.2685 -0.6482 0.2685H8.33317c-0.24312 0 -0.47627 -0.0966 -0.64818 -0.2685 -0.17191 -0.1719 -0.26849 -0.4051 -0.26849 -0.6482V6.04167c0 -0.24312 0.09658 -0.47628 0.26849 -0.64819 0.17191 -0.1719 0.40506 -0.26848 0.64818 -0.26848h7.33333c0.2431 0 0.4763 0.09658 0.6482 0.26848 0.1719 0.17191 0.2685 0.40507 0.2685 0.64819V10.625Z" stroke-width="1"></path>
  <path fill="#fff9bf" d="M11.9998 5.125H8.33317c-0.24312 0 -0.47627 0.09658 -0.64818 0.26848 -0.17191 0.17191 -0.26849 0.40507 -0.26849 0.64819V10.625c0 0.2431 0.09658 0.4763 0.26849 0.6482s0.40506 0.2685 0.64818 0.2685h3.66663V5.125Z" stroke-width="1"></path>
  <path stroke="#191919" stroke-linecap="round" stroke-linejoin="round" d="M16.5832 10.625c0 0.2431 -0.0966 0.4763 -0.2685 0.6482s-0.4051 0.2685 -0.6482 0.2685H8.33317c-0.24312 0 -0.47627 -0.0966 -0.64818 -0.2685 -0.17191 -0.1719 -0.26849 -0.4051 -0.26849 -0.6482V6.04167c0 -0.24312 0.09658 -0.47628 0.26849 -0.64819 0.17191 -0.1719 0.40506 -0.26848 0.64818 -0.26848h7.33333c0.2431 0 0.4763 0.09658 0.6482 0.26848 0.1719 0.17191 0.2685 0.40507 0.2685 0.64819V10.625Z" stroke-width="1"></path>
  <path fill="#808080" stroke="#191919" stroke-linecap="round" stroke-linejoin="round" d="M12.0002 9.24996c0.5062 0 0.9166 -0.41041 0.9166 -0.91667 0 -0.50625 -0.4104 -0.91666 -0.9166 -0.91666 -0.5063 0 -0.9167 0.41041 -0.9167 0.91666 0 0.50626 0.4104 0.91667 0.9167 0.91667Z" stroke-width="1"></path>
  <path stroke="#191919" stroke-linecap="round" stroke-linejoin="round" d="M14.75 5.12504v-0.91667c0 -0.72934 -0.2898 -1.42881 -0.8055 -1.94454S12.7293 1.45837 12 1.45837c-0.7293 0 -1.4288 0.28973 -1.9445 0.80546 -0.51577 0.51573 -0.8055 1.2152 -0.8055 1.94454v0.91667" stroke-width="1"></path>
  <path fill="#78eb7b" stroke="#191919" stroke-linecap="round" stroke-linejoin="round" d="M4.6665 22.5416c1.51878 0 2.75 -1.2311 2.75 -2.75 0 -1.5188 -1.23122 -2.75 -2.75 -2.75s-2.75 1.2312 -2.75 2.75c0 1.5189 1.23122 2.75 2.75 2.75Z" stroke-width="1"></path>
  <path fill="#ff808c" stroke="#191919" stroke-linecap="round" stroke-linejoin="round" d="M12 22.5416c1.5188 0 2.75 -1.2311 2.75 -2.75 0 -1.5188 -1.2312 -2.75 -2.75 -2.75s-2.75 1.2312 -2.75 2.75c0 1.5189 1.2312 2.75 2.75 2.75Z" stroke-width="1"></path>
  <path fill="#ff808c" stroke="#191919" stroke-linecap="round" stroke-linejoin="round" d="M19.3335 22.5416c1.5188 0 2.75 -1.2311 2.75 -2.75 0 -1.5188 -1.2312 -2.75 -2.75 -2.75s-2.75 1.2312 -2.75 2.75c0 1.5189 1.2312 2.75 2.75 2.75Z" stroke-width="1"></path>
</svg>