<svg xmlns="http://www.w3.org/2000/svg" fill="none" viewBox="0 0 24 24" id="Move-To-Bottom--Streamline-Ultimate">
  <desc>
    Move To Bottom Streamline Icon: https://streamlinehq.com
  </desc>
  <path fill="#c9f7ca" d="M8.7668 17.0935H3.6743c-0.2813 0 -0.5093 0.228 -0.5093 0.5093v5.0924c0 0.2813 0.228 0.5092 0.5093 0.5092h5.0925c0.2812 0 0.5092 -0.228 0.5092 -0.5092v-5.0924c0 -0.2813 -0.228 -0.5093 -0.5092 -0.5093Z" stroke-width="1"></path>
  <path fill="#c9f7ca" d="M8.7668 8.9455H3.6743c-0.2813 0 -0.5093 0.228 -0.5093 0.5093v5.0925c0 0.2812 0.228 0.5092 0.5093 0.5092h5.0925c0.2812 0 0.5092 -0.228 0.5092 -0.5092V9.4548c0 -0.2813 -0.228 -0.5093 -0.5092 -0.5093Z" stroke-width="1"></path>
  <path stroke="#191919" stroke-linecap="round" stroke-linejoin="round" d="m20.835 19.5806 -6.66 1.4749 0.4492 -6.8066" stroke-width="1"></path>
  <path stroke="#191919" stroke-linecap="round" stroke-linejoin="round" d="M14.1891 20.9902c2.7055 -2.2518 4.4074 -5.4847 4.7319 -8.9897 0.3247 -3.505 -0.7544 -6.9955 -3.0005 -9.7058" stroke-width="1"></path>
  <path stroke="#191919" stroke-linecap="round" stroke-linejoin="round" d="M7.7483 23.2045h1.0185c0.135 0 0.2646 -0.0537 0.3601 -0.1493 0.0955 -0.0954 0.1491 -0.225 0.1491 -0.36v-1.0185" stroke-width="1"></path>
  <path stroke="#191919" stroke-linecap="round" stroke-linejoin="round" d="M4.6928 23.2045H3.6743c-0.1351 0 -0.2646 -0.0537 -0.3601 -0.1493 -0.0955 -0.0954 -0.1492 -0.225 -0.1492 -0.36v-1.0185" stroke-width="1"></path>
  <path stroke="#191919" stroke-linecap="round" stroke-linejoin="round" d="M4.6928 17.0935H3.6743c-0.1351 0 -0.2646 0.0536 -0.3601 0.1491 -0.0955 0.0955 -0.1492 0.2251 -0.1492 0.3602v1.0184" stroke-width="1"></path>
  <path stroke="#191919" stroke-linecap="round" stroke-linejoin="round" d="M7.7483 17.0935h1.0185c0.135 0 0.2646 0.0536 0.3601 0.1491 0.0955 0.0955 0.1491 0.2251 0.1491 0.3602v1.0184" stroke-width="1"></path>
  <path stroke="#191919" stroke-linecap="round" stroke-linejoin="round" d="M7.7483 15.0565h1.0185c0.135 0 0.2646 -0.0537 0.3601 -0.1492 0.0955 -0.0954 0.1491 -0.225 0.1491 -0.36v-1.0185" stroke-width="1"></path>
  <path stroke="#191919" stroke-linecap="round" stroke-linejoin="round" d="M4.6928 15.0565H3.6743c-0.1351 0 -0.2646 -0.0537 -0.3601 -0.1492 -0.0955 -0.0954 -0.1492 -0.225 -0.1492 -0.36v-1.0185" stroke-width="1"></path>
  <path stroke="#191919" stroke-linecap="round" stroke-linejoin="round" d="M4.6928 8.9455H3.6743c-0.1351 0 -0.2646 0.0537 -0.3601 0.1492 -0.0955 0.0955 -0.1492 0.225 -0.1492 0.3601v1.0185" stroke-width="1"></path>
  <path stroke="#191919" stroke-linecap="round" stroke-linejoin="round" d="M7.7483 8.9455h1.0185c0.135 0 0.2646 0.0537 0.3601 0.1492 0.0955 0.0955 0.1491 0.225 0.1491 0.3601v1.0185" stroke-width="1"></path>
  <path fill="#78eb7b" d="M8.7668 0.7955H3.6743c-0.2813 0 -0.5093 0.228 -0.5093 0.5093v5.0925c0 0.2812 0.228 0.5092 0.5093 0.5092h5.0925c0.2812 0 0.5092 -0.228 0.5092 -0.5092V1.3048c0 -0.2813 -0.228 -0.5093 -0.5092 -0.5093Z" stroke-width="1"></path>
  <path fill="#c9f7ca" d="M9.276 2.8345V1.3068c0 -0.1351 -0.0536 -0.2646 -0.1491 -0.3601 -0.0955 -0.0955 -0.2251 -0.1492 -0.3601 -0.1492H3.6743c-0.1351 0 -0.2646 0.0537 -0.3601 0.1492 -0.0955 0.0955 -0.1492 0.225 -0.1492 0.3601v1.5277h6.111Z" stroke-width="1"></path>
  <path stroke="#191919" stroke-linecap="round" stroke-linejoin="round" d="M8.7668 0.7955H3.6743c-0.2813 0 -0.5093 0.228 -0.5093 0.5093v5.0925c0 0.2812 0.228 0.5092 0.5093 0.5092h5.0925c0.2812 0 0.5092 -0.228 0.5092 -0.5092V1.3048c0 -0.2813 -0.228 -0.5093 -0.5092 -0.5093Z" stroke-width="1"></path>
</svg>