<svg xmlns="http://www.w3.org/2000/svg" fill="none" viewBox="0 0 24 24" id="Navigation-Menu-Horizontal-1--Streamline-Ultimate">
  <desc>
    Navigation Menu Horizontal 1 Streamline Icon: https://streamlinehq.com
  </desc>
  <path fill="#66e1ff" d="M12.0002 22.5416c5.822 0 10.5416 -4.7196 10.5416 -10.5416 0 -5.82202 -4.7196 -10.54169 -10.5416 -10.54169C6.17817 1.45831 1.4585 6.17798 1.4585 12c0 5.822 4.71967 10.5416 10.5417 10.5416Z" stroke-width="1"></path>
  <path fill="#c2f3ff" d="M12.0002 22.5416c-2.79586 0 -5.47718 -1.1106 -7.45412 -3.0876C2.56913 17.4772 1.4585 14.7958 1.4585 12c0 -2.79584 1.11063 -5.47716 3.08758 -7.45411 1.97694 -1.97694 4.65826 -3.08758 7.45412 -3.08758V22.5416Z" stroke-width="1"></path>
  <path stroke="#191919" stroke-linecap="round" stroke-linejoin="round" d="M12.0002 22.5416c5.822 0 10.5416 -4.7196 10.5416 -10.5416 0 -5.82202 -4.7196 -10.54169 -10.5416 -10.54169C6.17817 1.45831 1.4585 6.17798 1.4585 12c0 5.822 4.71967 10.5416 10.5417 10.5416Z" stroke-width="1"></path>
  <path fill="#e3e3e3" stroke="#191919" stroke-linecap="round" stroke-linejoin="round" d="M7.41683 13.1459c0.63283 0 1.14583 -0.513 1.14583 -1.1459 0 -0.6328 -0.513 -1.1458 -1.14583 -1.1458 -0.63283 0 -1.14583 0.513 -1.14583 1.1458 0 0.6329 0.513 1.1459 1.14583 1.1459Z" stroke-width="1"></path>
  <path fill="#e3e3e3" stroke="#191919" stroke-linecap="round" stroke-linejoin="round" d="M11.9998 13.1459c0.6329 0 1.1459 -0.513 1.1459 -1.1459 0 -0.6328 -0.513 -1.1458 -1.1459 -1.1458 -0.6328 0 -1.1458 0.513 -1.1458 1.1458 0 0.6329 0.513 1.1459 1.1458 1.1459Z" stroke-width="1"></path>
  <path fill="#e3e3e3" stroke="#191919" stroke-linecap="round" stroke-linejoin="round" d="M16.5833 13.1459c0.6329 0 1.1459 -0.513 1.1459 -1.1459 0 -0.6328 -0.513 -1.1458 -1.1459 -1.1458 -0.6328 0 -1.1458 0.513 -1.1458 1.1458 0 0.6329 0.513 1.1459 1.1458 1.1459Z" stroke-width="1"></path>
</svg>