<svg xmlns="http://www.w3.org/2000/svg" fill="none" viewBox="0 0 24 24" id="Navigation-Menu-1--Streamline-Ultimate">
  <desc>
    Navigation Menu 1 Streamline Icon: https://streamlinehq.com
  </desc>
  <path fill="#66e1ff" d="M23.2095 4.7468c0 0.3498 -0.139 0.6852 -0.3862 0.9325 -0.2473 0.2473 -0.5829 0.3863 -0.9326 0.3863H2.1093c-0.3497 0 -0.6852 -0.139 -0.9325 -0.3863 -0.2473 -0.2473 -0.3863 -0.5827 -0.3863 -0.9325V3.4281c0 -0.3498 0.139 -0.6852 0.3863 -0.9326 0.2473 -0.2472 0.5828 -0.3862 0.9325 -0.3862h19.7814c0.3497 0 0.6852 0.139 0.9324 0.3862 0.2473 0.2474 0.3864 0.5828 0.3864 0.9326v1.3187Z" stroke-width="1"></path>
  <path fill="#c2f3ff" d="M23.2095 4.0874v-0.6593c0 -0.3498 -0.139 -0.6852 -0.3862 -0.9326 -0.2474 -0.2472 -0.5829 -0.3862 -0.9326 -0.3862H2.1093c-0.3497 0 -0.6852 0.139 -0.9325 0.3862 -0.2473 0.2474 -0.3863 0.5828 -0.3863 0.9326v0.6593h22.419Z" stroke-width="1"></path>
  <path fill="#66e1ff" d="M23.2095 12.6593c0 0.3498 -0.139 0.6853 -0.3862 0.9326 -0.2473 0.2472 -0.5829 0.3862 -0.9326 0.3862H2.1093c-0.3497 0 -0.6852 -0.139 -0.9325 -0.3862 -0.2473 -0.2473 -0.3863 -0.5828 -0.3863 -0.9326v-1.3187c0 -0.3498 0.139 -0.6852 0.3863 -0.9325 0.2473 -0.2473 0.5827 -0.3863 0.9325 -0.3863h19.7814c0.3497 0 0.6852 0.139 0.9324 0.3863 0.2473 0.2473 0.3864 0.5827 0.3864 0.9325v1.3187Z" stroke-width="1"></path>
  <path fill="#c2f3ff" d="M23.2095 12v-0.6594c0 -0.3498 -0.139 -0.6852 -0.3862 -0.9325 -0.2473 -0.2473 -0.5829 -0.3862 -0.9326 -0.3862H2.1093c-0.3498 0 -0.6852 0.1389 -0.9325 0.3862 -0.2473 0.2473 -0.3863 0.5827 -0.3863 0.9325V12h22.419Z" stroke-width="1"></path>
  <path fill="#66e1ff" d="M23.2095 20.5719c0 0.3499 -0.139 0.6854 -0.3862 0.9326 -0.2473 0.2473 -0.5829 0.3862 -0.9326 0.3862H2.1093c-0.3497 0 -0.6852 -0.1389 -0.9325 -0.3862 -0.2473 -0.2472 -0.3863 -0.5827 -0.3863 -0.9326v-1.3187c0 -0.3497 0.139 -0.6852 0.3863 -0.9325 0.2473 -0.2473 0.5827 -0.3862 0.9325 -0.3862h19.7814c0.3497 0 0.6852 0.1389 0.9324 0.3862 0.2473 0.2473 0.3864 0.5828 0.3864 0.9325v1.3187Z" stroke-width="1"></path>
  <path fill="#c2f3ff" d="M23.2095 19.9126v-0.6594c0 -0.3497 -0.139 -0.6852 -0.3862 -0.9325 -0.2473 -0.2473 -0.5829 -0.3862 -0.9326 -0.3862H2.1093c-0.3498 0 -0.6852 0.1389 -0.9325 0.3862 -0.2473 0.2473 -0.3863 0.5828 -0.3863 0.9325v0.6594h22.419Z" stroke-width="1"></path>
  <path stroke="#191919" stroke-linecap="round" stroke-linejoin="round" d="M23.2095 4.7468c0 0.3498 -0.139 0.6852 -0.3862 0.9325 -0.2473 0.2473 -0.5829 0.3863 -0.9326 0.3863H2.1093c-0.3497 0 -0.6852 -0.139 -0.9325 -0.3863 -0.2473 -0.2473 -0.3863 -0.5827 -0.3863 -0.9325V3.4281c0 -0.3498 0.139 -0.6852 0.3863 -0.9326 0.2473 -0.2472 0.5828 -0.3862 0.9325 -0.3862h19.7814c0.3497 0 0.6852 0.139 0.9324 0.3862 0.2473 0.2474 0.3864 0.5828 0.3864 0.9326v1.3187Z" stroke-width="1"></path>
  <path stroke="#191919" stroke-linecap="round" stroke-linejoin="round" d="M23.2095 12.6593c0 0.3498 -0.139 0.6853 -0.3862 0.9326 -0.2473 0.2472 -0.5829 0.3862 -0.9326 0.3862H2.1093c-0.3497 0 -0.6852 -0.139 -0.9325 -0.3862 -0.2473 -0.2473 -0.3863 -0.5828 -0.3863 -0.9326v-1.3187c0 -0.3498 0.139 -0.6852 0.3863 -0.9325 0.2473 -0.2473 0.5827 -0.3863 0.9325 -0.3863h19.7814c0.3497 0 0.6852 0.139 0.9324 0.3863 0.2473 0.2473 0.3864 0.5827 0.3864 0.9325v1.3187Z" stroke-width="1"></path>
  <path stroke="#191919" stroke-linecap="round" stroke-linejoin="round" d="M23.2095 20.5719c0 0.3499 -0.139 0.6854 -0.3862 0.9326 -0.2473 0.2473 -0.5829 0.3862 -0.9326 0.3862H2.1093c-0.3497 0 -0.6852 -0.1389 -0.9325 -0.3862 -0.2473 -0.2472 -0.3863 -0.5827 -0.3863 -0.9326v-1.3187c0 -0.3497 0.139 -0.6852 0.3863 -0.9325 0.2473 -0.2473 0.5827 -0.3862 0.9325 -0.3862h19.7814c0.3497 0 0.6852 0.1389 0.9324 0.3862 0.2473 0.2473 0.3864 0.5828 0.3864 0.9325v1.3187Z" stroke-width="1"></path>
</svg>