<svg xmlns="http://www.w3.org/2000/svg" fill="none" viewBox="0 0 24 24" id="Paginate-Filter-3--Streamline-Ultimate">
  <desc>
    Paginate Filter 3 Streamline Icon: https://streamlinehq.com
  </desc>
  <path fill="#b2b2b2" d="M4.2085 5.125H2.37516c-0.24312 0 -0.47627 0.09658 -0.64818 0.26848 -0.17191 0.17191 -0.26848 0.40507 -0.26848 0.64819V21.625c0 0.2431 0.09657 0.4763 0.26848 0.6482 0.17191 0.1718 0.40506 0.2685 0.64818 0.2685H17.9585c0.2431 0 0.4763 -0.0967 0.6482 -0.2685 0.1718 -0.1719 0.2685 -0.4051 0.2685 -0.6482v-1.8333" stroke-width="1"></path>
  <path stroke="#191919" stroke-linecap="round" stroke-linejoin="round" d="M4.2085 5.125H2.37516c-0.24312 0 -0.47627 0.09658 -0.64818 0.26848 -0.17191 0.17191 -0.26848 0.40507 -0.26848 0.64819V21.625c0 0.2431 0.09657 0.4763 0.26848 0.6482 0.17191 0.1718 0.40506 0.2685 0.64818 0.2685H17.9585c0.2431 0 0.4763 -0.0967 0.6482 -0.2685 0.1718 -0.1719 0.2685 -0.4051 0.2685 -0.6482v-1.8333" stroke-width="1"></path>
  <path fill="#e3e3e3" d="M22.5418 2.37498c0 -0.24312 -0.0966 -0.47627 -0.2685 -0.64818 -0.1718 -0.17191 -0.405 -0.26849 -0.6481 -0.26849H5.12516c-0.24312 0 -0.47627 0.09658 -0.64818 0.26849 -0.1719 0.17191 -0.26848 0.40506 -0.26848 0.64818V18.875c0 0.2431 0.09658 0.4763 0.26848 0.6482 0.17191 0.1718 0.40506 0.2684 0.64818 0.2684H21.6252c0.2431 0 0.4763 -0.0966 0.6481 -0.2684 0.1719 -0.1719 0.2685 -0.4051 0.2685 -0.6482V2.37498Z" stroke-width="1"></path>
  <path fill="#ffffff" d="M4.4835 19.524 22.2742 1.73331c-0.0847 -0.08639 -0.1857 -0.15517 -0.297 -0.20237 -0.1114 -0.0472 -0.231 -0.07188 -0.352 -0.07263H5.12516c-0.24312 0 -0.47627 0.09658 -0.64818 0.26849 -0.1719 0.17191 -0.26848 0.40506 -0.26848 0.64818V18.875c0.00074 0.121 0.02542 0.2406 0.07262 0.352 0.0472 0.1114 0.11598 0.2123 0.20238 0.297Z" stroke-width="1"></path>
  <path stroke="#191919" stroke-linecap="round" stroke-linejoin="round" d="M22.5418 2.37498c0 -0.24312 -0.0966 -0.47627 -0.2685 -0.64818 -0.1718 -0.17191 -0.405 -0.26849 -0.6481 -0.26849H5.12516c-0.24312 0 -0.47627 0.09658 -0.64818 0.26849 -0.1719 0.17191 -0.26848 0.40506 -0.26848 0.64818V18.875c0 0.2431 0.09658 0.4763 0.26848 0.6482 0.17191 0.1718 0.40506 0.2684 0.64818 0.2684H21.6252c0.2431 0 0.4763 -0.0966 0.6481 -0.2684 0.1719 -0.1719 0.2685 -0.4051 0.2685 -0.6482V2.37498Z" stroke-width="1"></path>
  <path stroke="#191919" stroke-linecap="round" stroke-linejoin="round" d="M10.625 6.95831h2.75c0.4862 0 0.9525 0.19315 1.2963 0.53698 0.3439 0.34381 0.537 0.81013 0.537 1.29636 0 0.48622 -0.1931 0.95254 -0.537 1.29635 -0.3438 0.3438 -0.8101 0.537 -1.2963 0.537 0.4862 0 0.9525 0.1931 1.2963 0.537 0.3439 0.3438 0.537 0.8101 0.537 1.2963 0 0.4862 -0.1931 0.9525 -0.537 1.2964 -0.3438 0.3438 -0.8101 0.5369 -1.2963 0.5369h-2.75" stroke-width="1"></path>
</svg>