<svg xmlns="http://www.w3.org/2000/svg" fill="none" viewBox="0 0 24 24" id="Paginate-Filter-7--Streamline-Ultimate">
  <desc>
    Paginate Filter 7 Streamline Icon: https://streamlinehq.com
  </desc>
  <path fill="#b2b2b2" d="M4.2085 5.125H2.37516c-0.24312 0 -0.47627 0.09658 -0.64818 0.26848 -0.17191 0.17191 -0.26848 0.40507 -0.26848 0.64819V21.625c0 0.2431 0.09657 0.4763 0.26848 0.6482 0.17191 0.1718 0.40506 0.2685 0.64818 0.2685H17.9585c0.2431 0 0.4763 -0.0967 0.6482 -0.2685 0.1718 -0.1719 0.2685 -0.4051 0.2685 -0.6482v-1.8333" stroke-width="1"></path>
  <path stroke="#191919" stroke-linecap="round" stroke-linejoin="round" d="M4.2085 5.125H2.37516c-0.24312 0 -0.47627 0.09658 -0.64818 0.26848 -0.17191 0.17191 -0.26848 0.40507 -0.26848 0.64819V21.625c0 0.2431 0.09657 0.4763 0.26848 0.6482 0.17191 0.1718 0.40506 0.2685 0.64818 0.2685H17.9585c0.2431 0 0.4763 -0.0967 0.6482 -0.2685 0.1718 -0.1719 0.2685 -0.4051 0.2685 -0.6482v-1.8333" stroke-width="1"></path>
  <path fill="#e3e3e3" d="M22.5418 2.37498c0 -0.24312 -0.0966 -0.47627 -0.2685 -0.64818 -0.1718 -0.17191 -0.405 -0.26849 -0.6481 -0.26849H5.12516c-0.24312 0 -0.47627 0.09658 -0.64818 0.26849 -0.1719 0.17191 -0.26848 0.40506 -0.26848 0.64818V18.875c0 0.2431 0.09658 0.4763 0.26848 0.6482 0.17191 0.1718 0.40506 0.2684 0.64818 0.2684H21.6252c0.2431 0 0.4763 -0.0966 0.6481 -0.2684 0.1719 -0.1719 0.2685 -0.4051 0.2685 -0.6482V2.37498Z" stroke-width="1"></path>
  <path fill="#ffffff" d="M4.4835 19.524 22.2742 1.73331c-0.0847 -0.08639 -0.1857 -0.15517 -0.297 -0.20237 -0.1114 -0.0472 -0.231 -0.07188 -0.352 -0.07263H5.12516c-0.24312 0 -0.47627 0.09658 -0.64818 0.26849 -0.1719 0.17191 -0.26848 0.40506 -0.26848 0.64818V18.875c0.00074 0.121 0.02542 0.2406 0.07262 0.352 0.0472 0.1114 0.11598 0.2123 0.20238 0.297Z" stroke-width="1"></path>
  <path stroke="#191919" stroke-linecap="round" stroke-linejoin="round" d="M22.5418 2.37498c0 -0.24312 -0.0966 -0.47627 -0.2685 -0.64818 -0.1718 -0.17191 -0.405 -0.26849 -0.6481 -0.26849H5.12516c-0.24312 0 -0.47627 0.09658 -0.64818 0.26849 -0.1719 0.17191 -0.26848 0.40506 -0.26848 0.64818V18.875c0 0.2431 0.09658 0.4763 0.26848 0.6482 0.17191 0.1718 0.40506 0.2684 0.64818 0.2684H21.6252c0.2431 0 0.4763 -0.0966 0.6481 -0.2684 0.1719 -0.1719 0.2685 -0.4051 0.2685 -0.6482V2.37498Z" stroke-width="1"></path>
  <path stroke="#191919" stroke-linecap="round" stroke-linejoin="round" d="m12.4583 14.2916 2.6666 -6.59991c0.0107 -0.02626 0.0226 -0.05196 0.0358 -0.077 0.0348 -0.06687 0.0514 -0.14176 0.048 -0.21709 -0.0034 -0.07533 -0.0266 -0.14844 -0.0673 -0.21191 -0.0462 -0.07073 -0.1094 -0.12864 -0.184 -0.16839 -0.0745 -0.03973 -0.1578 -0.06001 -0.2422 -0.05895h-3.6319c-0.1215 0 -0.2381 0.04829 -0.3241 0.13425 -0.0859 0.08595 -0.1342 0.20254 -0.1342 0.32409v0.91666" stroke-width="1"></path>
</svg>