<svg xmlns="http://www.w3.org/2000/svg" fill="none" viewBox="0 0 24 24" id="Pen-Write--Streamline-Ultimate">
  <desc>
    Pen Write Streamline Icon: https://streamlinehq.com
  </desc>
  <path fill="#ffffff" d="M17.0418 3.29169c0.4862 0 0.9525 0.19315 1.2964 0.53697 0.3438 0.34382 0.537 0.81013 0.537 1.29636V20.7084c0 0.4862 -0.1932 0.9525 -0.537 1.2963 -0.3439 0.3438 -0.8102 0.537 -1.2964 0.537H3.29183c-0.48623 0 -0.95255 -0.1932 -1.29636 -0.537 -0.34382 -0.3438 -0.53697 -0.8101 -0.53697 -1.2963V5.12502c0 -0.48623 0.19315 -0.95254 0.53697 -1.29636 0.34381 -0.34382 0.81013 -0.53697 1.29636 -0.53697H17.0418Z" stroke-width="1"></path>
  <path fill="#e4f1f5" d="m18.8751 9.23718 -7.0326 3.27892 -0.0009 0.0046 -2.32744 2.6024 3.48884 -0.11 0.0018 -0.0046 5.8703 -2.7371V9.23718Z" stroke-width="1"></path>
  <path stroke="#191919" stroke-linecap="round" stroke-linejoin="round" d="M18.8752 10.1621v10.5463c0 0.4862 -0.1932 0.9525 -0.537 1.2963 -0.3439 0.3438 -0.8102 0.537 -1.2964 0.537H3.29183c-0.48623 0 -0.95255 -0.1932 -1.29636 -0.537 -0.34382 -0.3438 -0.53697 -0.8101 -0.53697 -1.2963V5.12502c0 -0.48623 0.19315 -0.95254 0.53697 -1.29636 0.34381 -0.34382 0.81013 -0.53697 1.29636 -0.53697H13.3119" stroke-width="1"></path>
  <path fill="#66e1ff" d="m10.5508 11.5068 8.426 -8.42599 1.9442 1.94425 -8.426 8.42604 -1.9442 -1.9443Z" stroke-width="1"></path>
  <path fill="#c2f3ff" d="m18.9768 3.08209 -8.426 8.42541 0.9709 0.971 8.426 -8.4254 -0.9709 -0.97101Z" stroke-width="1"></path>
  <path stroke="#191919" stroke-linecap="round" stroke-linejoin="round" d="m10.5508 11.5114 8.426 -8.42601L20.921 5.0333l-8.426 8.4223 -1.9442 -1.9442Z" stroke-width="1"></path>
  <path fill="#66e1ff" stroke="#191919" stroke-linecap="round" stroke-linejoin="round" d="m20.9208 5.02874 -1.9442 -1.94425 0.9725 -0.97258c0.1269 -0.13133 0.2786 -0.23608 0.4464 -0.30814 0.1677 -0.07206 0.3482 -0.10999 0.5307 -0.11158 0.1826 -0.00159 0.3637 0.0332 0.5327 0.10234 0.1689 0.06914 0.3225 0.17124 0.4515 0.30034 0.1292 0.12909 0.2312 0.28262 0.3004 0.45161 0.0692 0.16897 0.1039 0.35003 0.1023 0.53261 -0.0015 0.18257 -0.0395 0.363 -0.1115 0.53076 -0.0721 0.16775 -0.1768 0.31947 -0.3082 0.44631l-0.9726 0.97258Z" stroke-width="1"></path>
  <path stroke="#191919" stroke-linecap="round" stroke-linejoin="round" d="M18.9767 3.08176c-0.3499 -0.34991 -0.8246 -0.54648 -1.3195 -0.54648 -0.4949 0 -0.9696 0.19657 -1.3195 0.54648l-2.046 2.04325h-0.9167" stroke-width="1"></path>
  <path stroke="#191919" stroke-linecap="round" stroke-linejoin="round" d="m21.9102 2.09453 0.6315 -0.63158" stroke-width="1"></path>
  <path stroke="#191919" stroke-linecap="round" stroke-linejoin="round" d="m9.25016 14.7546 -0.91666 0.9166" stroke-width="1"></path>
  <path fill="#66e1ff" stroke="#191919" stroke-linecap="round" stroke-linejoin="round" d="M12.495 13.4557 9.25 14.75l1.2971 -3.2413 1.9479 1.947Z" stroke-width="1"></path>
</svg>