<svg xmlns="http://www.w3.org/2000/svg" fill="none" viewBox="0 0 24 24" id="Settings-On--Streamline-Ultimate">
  <desc>
    Settings On Streamline Icon: https://streamlinehq.com
  </desc>
  <path fill="#e3e3e3" d="M6.04183 7.41669H17.9585c1.2156 0 2.3814 0.48288 3.2409 1.34243 0.8595 0.85954 1.3424 2.02528 1.3424 3.24088 0 1.2156 -0.4829 2.3814 -1.3424 3.2409 -0.8595 0.8596 -2.0253 1.3425 -3.2409 1.3425H6.04183c-1.21557 0 -2.38136 -0.4829 -3.2409 -1.3425C1.94138 14.3814 1.4585 13.2156 1.4585 12c0 -1.2156 0.48288 -2.38134 1.34243 -3.24088 0.85954 -0.85955 2.02533 -1.34243 3.2409 -1.34243Z" stroke-width="1"></path>
  <path fill="#ffffff" d="M1.4585 12c0 -1.2156 0.48288 -2.38134 1.34243 -3.24088 0.85954 -0.85955 2.02533 -1.34243 3.2409 -1.34243H17.9585c1.2156 0 2.3814 0.48288 3.2409 1.34243 0.8595 0.85954 1.3424 2.02528 1.3424 3.24088H1.4585Z" stroke-width="1"></path>
  <path stroke="#191919" stroke-linecap="round" stroke-linejoin="round" d="M6.04183 7.41669H17.9585c1.2156 0 2.3814 0.48288 3.2409 1.34243 0.8595 0.85954 1.3424 2.02528 1.3424 3.24088 0 1.2156 -0.4829 2.3814 -1.3424 3.2409 -0.8595 0.8596 -2.0253 1.3425 -3.2409 1.3425H6.04183c-1.21557 0 -2.38136 -0.4829 -3.2409 -1.3425C1.94138 14.3814 1.4585 13.2156 1.4585 12c0 -1.2156 0.48288 -2.38134 1.34243 -3.24088 0.85954 -0.85955 2.02533 -1.34243 3.2409 -1.34243Z" stroke-width="1"></path>
  <path stroke="#191919" stroke-linecap="round" stroke-linejoin="round" d="M17.5 9.70923v4.58337" stroke-width="1"></path>
  <path stroke="#191919" stroke-linecap="round" stroke-linejoin="round" d="M15.6665 9.70923v4.58337" stroke-width="1"></path>
</svg>