<svg xmlns="http://www.w3.org/2000/svg" fill="none" viewBox="0 0 24 24" id="Synchronize-Arrows-Lock--Streamline-Ultimate">
  <desc>
    Synchronize Arrows Lock Streamline Icon: https://streamlinehq.com
  </desc>
  <path fill="#c2f3ff" d="M11.9998 17.9583c1.5803 0 3.0958 -0.6277 4.2132 -1.7451 1.1174 -1.1174 1.7452 -2.633 1.7452 -4.2132 0 -1.5803 -0.6278 -3.09578 -1.7452 -4.21319 -1.1174 -1.1174 -2.6329 -1.74515 -4.2132 -1.74515 -1.5802 0 -3.09574 0.62775 -4.21314 1.74515C6.66926 8.90422 6.0415 10.4197 6.0415 12c0 1.5802 0.62776 3.0958 1.74516 4.2132 1.1174 1.1174 2.63294 1.7451 4.21314 1.7451Z" stroke-width="1"></path>
  <path stroke="#191919" stroke-linecap="round" stroke-linejoin="round" d="m1.65381 10.4967 2.55567 3.8041 2.93699 -3.5181" stroke-width="1"></path>
  <path stroke="#191919" stroke-linecap="round" stroke-linejoin="round" d="m22.3456 14.4383 -2.5538 -3.8041 -2.9397 3.52" stroke-width="1"></path>
  <path stroke="#191919" stroke-linecap="round" stroke-linejoin="round" d="M19.7577 10.6699c0.31 1.9642 -0.132 3.9731 -1.2377 5.6258 -1.1058 1.6527 -2.7941 2.8277 -4.7279 3.2906 -1.2854 0.3048 -2.6271 0.2774 -3.8989 -0.0794 -1.27184 -0.3568 -2.43198 -1.0313 -3.37123 -1.9601" stroke-width="1"></path>
  <path stroke="#191919" stroke-linecap="round" stroke-linejoin="round" d="M4.21315 14.2779c-0.25981 -1.0408 -0.31057 -2.1228 -0.14933 -3.1834 0.16123 -1.0606 0.53127 -2.07863 1.08866 -2.99521 0.5574 -0.91658 1.2911 -1.71348 2.1586 -2.34455 0.8675 -0.63108 1.85157 -1.08378 2.89522 -1.33192 1.3719 -0.326 2.8066 -0.27304 4.1508 0.15321 1.3441 0.42625 2.5471 1.20977 3.4805 2.26679" stroke-width="1"></path>
  <path fill="#ffef5e" stroke="#191919" stroke-linecap="round" stroke-linejoin="round" d="M10.6252 15.2138h3.6666c0.2431 0 0.4763 -0.0966 0.6482 -0.2685s0.2685 -0.405 0.2685 -0.6481v-2.75c0 -0.2432 -0.0966 -0.4763 -0.2685 -0.6482s-0.4051 -0.2685 -0.6482 -0.2685h-3.6666c-0.2432 0 -0.4763 0.0966 -0.64822 0.2685 -0.17191 0.1719 -0.26848 0.405 -0.26848 0.6482v2.75c0 0.2431 0.09657 0.4762 0.26848 0.6481 0.17192 0.1719 0.40502 0.2685 0.64822 0.2685Z" stroke-width="1"></path>
  <path stroke="#191919" stroke-linecap="round" stroke-linejoin="round" d="M12.4583 7.88049c-0.2407 0 -0.4791 0.04742 -0.7016 0.13956 -0.2224 0.09213 -0.4245 0.22717 -0.5947 0.39741 -0.1703 0.17025 -0.3053 0.37235 -0.3974 0.59478 -0.0922 0.22243 -0.1396 0.46083 -0.1396 0.70159v0.91667h3.6667v-0.91667c0 -0.24076 -0.0475 -0.47916 -0.1396 -0.70159 -0.0921 -0.22243 -0.2272 -0.42453 -0.3974 -0.59478 -0.1702 -0.17024 -0.3724 -0.30528 -0.5948 -0.39741 -0.2224 -0.09214 -0.4608 -0.13956 -0.7016 -0.13956Z" stroke-width="1"></path>
  <path stroke="#191919" d="M12.4582 13.1697c-0.0608 0 -0.1191 -0.0242 -0.1621 -0.0672 -0.043 -0.0429 -0.0671 -0.1012 -0.0671 -0.162 0 -0.0608 0.0241 -0.1191 0.0671 -0.162 0.043 -0.043 0.1013 -0.0672 0.1621 -0.0672" stroke-width="1"></path>
  <path stroke="#191919" d="M12.4585 13.1697c0.0608 0 0.1191 -0.0242 0.162 -0.0672 0.043 -0.0429 0.0672 -0.1012 0.0672 -0.162 0 -0.0608 -0.0242 -0.1191 -0.0672 -0.162 -0.0429 -0.043 -0.1012 -0.0672 -0.162 -0.0672" stroke-width="1"></path>
</svg>