<svg xmlns="http://www.w3.org/2000/svg" fill="none" viewBox="0 0 24 24" id="Tags-1--Streamline-Ultimate">
  <desc>
    Tags 1 Streamline Icon: https://streamlinehq.com
  </desc>
  <path fill="#ffbc44" d="M22.1092 14.3312 10.1063 2.32191c-0.43276 -0.3876 -0.98466 -0.61618 -1.56475 -0.64808H2.59147c-0.24311 0 -0.47627 0.09658 -0.64818 0.26848 -0.17191 0.17192 -0.26849 0.40507 -0.26849 0.64819l0.0055 5.95283c0.03223 0.58018 0.26113 1.13208 0.649 1.56477l12.001 12.0001c0.0584 0.0842 0.1411 0.1487 0.237 0.1848 0.096 0.0363 0.2007 0.0423 0.3001 0.0176 0.0996 -0.0249 0.1891 -0.0793 0.257 -0.1562 0.0677 -0.077 0.1105 -0.1727 0.1226 -0.2745l1.5519 -5.0811 5.082 -1.551c0.1015 -0.0125 0.1968 -0.0555 0.2735 -0.1234 0.0765 -0.0678 0.1308 -0.1573 0.1555 -0.2565 0.0247 -0.0993 0.0187 -0.2037 -0.0171 -0.2995 -0.0359 -0.0958 -0.0998 -0.1786 -0.1836 -0.2372ZM6.25722 8.0905c-0.3626 0 -0.71705 -0.10753 -1.01855 -0.30897 -0.30149 -0.20146 -0.53647 -0.48778 -0.67523 -0.82279 -0.13876 -0.33499 -0.17507 -0.70361 -0.10433 -1.05924 0.07074 -0.35564 0.24535 -0.6823 0.50175 -0.9387 0.25639 -0.2564 0.58306 -0.431 0.93869 -0.50174 0.35563 -0.07074 0.72426 -0.03444 1.05926 0.10432 0.33499 0.13876 0.62132 0.37375 0.82277 0.67524 0.20145 0.30149 0.30897 0.65594 0.30897 1.01854 0 0.48623 -0.19315 0.95255 -0.53696 1.29636 -0.34383 0.34382 -0.81014 0.53698 -1.29637 0.53698Z" stroke-width="1"></path>
  <path fill="#ffdda1" d="M4.96103 4.961c0.34388 -0.34389 0.81029 -0.53709 1.29662 -0.53709 0.48633 0 0.95274 0.1932 1.29663 0.53709 0.34388 0.34389 0.53708 0.81029 0.53708 1.29662 0 0.48633 -0.1932 0.95274 -0.53708 1.29663l9.24462 9.24455 5.082 -1.551c0.1015 -0.0125 0.1968 -0.0555 0.2734 -0.1234 0.0766 -0.0678 0.1309 -0.1573 0.1556 -0.2565 0.0247 -0.0993 0.0187 -0.2037 -0.0171 -0.2995 -0.0359 -0.0958 -0.0999 -0.1786 -0.1836 -0.2372L10.1063 2.32191c-0.43278 -0.3876 -0.98469 -0.61618 -1.56477 -0.64808H2.59144c-0.12043 0.00014 -0.23965 0.02402 -0.35085 0.07026s-0.2122 0.11395 -0.29723 0.19924L4.96103 4.961Z" stroke-width="1"></path>
  <path stroke="#191919" stroke-linecap="round" stroke-linejoin="round" d="M22.1092 14.3312 10.1063 2.32191c-0.43276 -0.3876 -0.98466 -0.61618 -1.56475 -0.64808H2.59147c-0.24311 0 -0.47627 0.09658 -0.64818 0.26848 -0.17191 0.17192 -0.26849 0.40507 -0.26849 0.64819l0.0055 5.95283c0.03223 0.58018 0.26113 1.13208 0.649 1.56477l12.001 12.0001c0.0584 0.0842 0.1411 0.1487 0.237 0.1848 0.096 0.0363 0.2007 0.0423 0.3001 0.0176 0.0996 -0.0249 0.1891 -0.0793 0.257 -0.1562 0.0677 -0.077 0.1105 -0.1727 0.1226 -0.2745l1.5519 -5.0811 5.082 -1.551c0.1015 -0.0125 0.1968 -0.0555 0.2735 -0.1234 0.0765 -0.0678 0.1308 -0.1573 0.1555 -0.2565 0.0247 -0.0993 0.0187 -0.2037 -0.0171 -0.2995 -0.0359 -0.0958 -0.0998 -0.1786 -0.1836 -0.2372ZM6.25722 8.0905c-0.3626 0 -0.71705 -0.10753 -1.01855 -0.30897 -0.30149 -0.20146 -0.53647 -0.48778 -0.67523 -0.82279 -0.13876 -0.33499 -0.17507 -0.70361 -0.10433 -1.05924 0.07074 -0.35564 0.24535 -0.6823 0.50175 -0.9387 0.25639 -0.2564 0.58306 -0.431 0.93869 -0.50174 0.35563 -0.07074 0.72426 -0.03444 1.05926 0.10432 0.33499 0.13876 0.62132 0.37375 0.82277 0.67524 0.20145 0.30149 0.30897 0.65594 0.30897 1.01854 0 0.48623 -0.19315 0.95255 -0.53696 1.29636 -0.34383 0.34382 -0.81014 0.53698 -1.29637 0.53698Z" stroke-width="1"></path>
</svg>