<svg xmlns="http://www.w3.org/2000/svg" fill="none" viewBox="0 0 24 24" id="Tags-Remove--Streamline-Ultimate">
  <desc>
    Tags Remove Streamline Icon: https://streamlinehq.com
  </desc>
  <path fill="#ffbc44" d="M16.1472 9.31031 17.79 7.63372c0.3828 -0.43484 0.6078 -0.98591 0.639 -1.56434V2.41866c0 -0.24206 -0.0962 -0.4742 -0.2674 -0.64536 -0.1712 -0.17116 -0.4033 -0.26732 -0.6454 -0.26732l-3.8862 0.00639c-0.5777 0.03208 -1.1271 0.25999 -1.5579 0.64618L2.18959 12.041c-0.17111 0.1712 -0.26723 0.4033 -0.26723 0.6453 0 0.2421 0.09612 0.4742 0.26723 0.6453l4.41372 4.4137c0.08444 0.0845 0.18477 0.1513 0.29521 0.1967 0.11044 0.0455 0.22879 0.0686 0.3482 0.0679 0.11941 -0.0005 0.23752 -0.0248 0.3475 -0.0713 0.10997 -0.0466 0.20964 -0.1144 0.29323 -0.1996l0.95832 -0.9785 7.30143 -7.45019Zm-0.9126 -3.24093c-0.2708 0 -0.5356 -0.08029 -0.7607 -0.23071 -0.2251 -0.15044 -0.4006 -0.36425 -0.5042 -0.61441 -0.1036 -0.25015 -0.1307 -0.52541 -0.0779 -0.79098 0.0528 -0.26556 0.1833 -0.5095 0.3747 -0.70096 0.1915 -0.19146 0.4354 -0.32185 0.7009 -0.37467 0.2656 -0.05282 0.5409 -0.02572 0.791 0.0779 0.2502 0.10362 0.464 0.27909 0.6145 0.50423 0.1504 0.22513 0.2306 0.48982 0.2306 0.76058 0 0.36309 -0.1442 0.71131 -0.4009 0.96805 -0.2568 0.25674 -0.6049 0.40097 -0.968 0.40097Z" stroke-width="1"></path>
  <path fill="#ffdda1" d="m4.39554 15.5385 9.87066 -9.87069c-0.2394 -0.25976 -0.3691 -0.60203 -0.3621 -0.95522 0.0071 -0.3532 0.1503 -0.69 0.4 -0.93998 0.2497 -0.24997 0.5863 -0.39378 0.9394 -0.40135 0.3532 -0.00756 0.6956 0.1217 0.9558 0.36075l1.9613 -1.95953c-0.1711 -0.17061 -0.4027 -0.26645 -0.6444 -0.2665l-3.8862 0.00639c-0.5777 0.03208 -1.1271 0.25999 -1.5579 0.64618L2.18959 12.041c-0.17111 0.1712 -0.26723 0.4033 -0.26723 0.6453 0 0.2421 0.09612 0.4742 0.26723 0.6453l2.20595 2.2069Z" stroke-width="1"></path>
  <path stroke="#191919" stroke-linecap="round" stroke-linejoin="round" d="m16.1462 9.30855 1.6428 -1.67659c0.3827 -0.43484 0.6078 -0.98592 0.639 -1.56434V2.41689c0 -0.24205 -0.0962 -0.4742 -0.2673 -0.64536 -0.1713 -0.17116 -0.4034 -0.26732 -0.6455 -0.26732l-3.8862 0.00639c-0.5776 0.03208 -1.1271 0.25999 -1.5578 0.64618L2.1886 12.0393c-0.1711 0.1712 -0.26721 0.4033 -0.26721 0.6453s0.09611 0.4741 0.26721 0.6452l4.41373 4.4138c0.08444 0.0844 0.18478 0.1512 0.29521 0.1967 0.11044 0.0454 0.22878 0.0684 0.3482 0.0679 0.11941 -0.0006 0.23751 -0.0248 0.34749 -0.0714 0.10999 -0.0465 0.20965 -0.1144 0.29325 -0.1997l0.95831 -0.9783 7.30141 -7.45025Zm-0.9126 -3.24093c-0.2708 0 -0.5355 -0.08029 -0.7606 -0.23073 -0.2251 -0.15042 -0.4007 -0.36424 -0.5043 -0.61439 -0.1035 -0.25016 -0.1307 -0.52543 -0.0779 -0.79099 0.0528 -0.26556 0.1833 -0.5095 0.3747 -0.70096 0.1915 -0.19146 0.4354 -0.32184 0.7009 -0.37467 0.2656 -0.05283 0.5409 -0.02571 0.791 0.07791 0.2502 0.10362 0.4641 0.27908 0.6145 0.50422 0.1504 0.22513 0.2307 0.48982 0.2307 0.76058 0.0002 0.17995 -0.035 0.35816 -0.1037 0.52447s-0.1695 0.31744 -0.2966 0.44476c-0.1272 0.12732 -0.2782 0.22833 -0.4444 0.29724 -0.1662 0.06892 -0.3444 0.10438 -0.5243 0.10438v-0.00182Z" stroke-width="1"></path>
  <path fill="#ff808c" d="M16.6025 22.4959c3.0244 0 5.4761 -2.4518 5.4761 -5.4761 0 -3.0244 -2.4517 -5.4761 -5.4761 -5.4761 -3.0243 0 -5.476 2.4517 -5.476 5.4761 0 3.0243 2.4517 5.4761 5.476 5.4761Z" stroke-width="1"></path>
  <path fill="#ffbfc5" d="M20.4753 13.1479c-1.0298 -1.0131 -2.4183 -1.5783 -3.8629 -1.5724 -1.4445 0.0059 -2.8283 0.5823 -3.8499 1.6039 -1.0214 1.0215 -1.5979 2.4052 -1.6038 3.8499 -0.0059 1.4446 0.5593 2.8329 1.5725 3.8627l7.7441 -7.7441Z" stroke-width="1"></path>
  <path stroke="#191919" stroke-linejoin="round" d="M16.6025 22.4959c3.0244 0 5.4761 -2.4518 5.4761 -5.4761 0 -3.0244 -2.4517 -5.4761 -5.4761 -5.4761 -3.0243 0 -5.476 2.4517 -5.476 5.4761 0 3.0243 2.4517 5.4761 5.476 5.4761Z" stroke-width="1"></path>
  <path stroke="#191919" stroke-linecap="round" stroke-linejoin="round" d="m18.5385 15.0839 -3.8715 3.8716" stroke-width="1"></path>
  <path stroke="#191919" stroke-linecap="round" stroke-linejoin="round" d="m18.5385 18.9555 -3.8715 -3.8716" stroke-width="1"></path>
</svg>