<svg xmlns="http://www.w3.org/2000/svg" fill="none" viewBox="0 0 24 24" id="Time-Clock-Fire--Streamline-Ultimate">
  <desc>
    Time Clock Fire Streamline Icon: https://streamlinehq.com
  </desc>
  <path fill="#ffbc44" d="M18.3117 13.8204c0.6969 -0.4006 1.2735 -0.981 1.6695 -1.6805 0.3962 -0.6995 0.5973 -1.4925 0.5825 -2.29624 -0.0286 -1.65752 -0.7058 -3.23776 -1.8864 -4.40165 -0.0351 0.29168 -0.129 0.57328 -0.2758 0.82765 -0.1469 0.25447 -0.3439 0.47658 -0.5789 0.65285 -0.2351 0.17628 -0.5034 0.30315 -0.7887 0.3729 -0.2854 0.06976 -0.582 0.08095 -0.8719 0.033 -0.8019 -0.67439 -1.3594 -1.5939 -1.5867 -2.61671 -0.2273 -1.02282 -0.1117 -2.09202 0.3292 -3.04251 -3.9301 0 -6.44531 2.31843 -6.91693 5.65922 -0.57988 0.0606 -1.16114 -0.1001 -1.62763 -0.4499 -0.4664 -0.3498 -0.78339 -0.86285 -0.88761 -1.4365 -2.78199 2.3661 -2.92573 7.15219 0.89292 8.92639" stroke-width="1"></path>
  <path stroke="#191919" stroke-linecap="round" stroke-linejoin="round" d="M18.3117 13.8204c0.6969 -0.4006 1.2735 -0.981 1.6695 -1.6805 0.3962 -0.6995 0.5973 -1.4925 0.5825 -2.29624 -0.0286 -1.65752 -0.7058 -3.23776 -1.8864 -4.40165 -0.0351 0.29168 -0.129 0.57328 -0.2758 0.82765 -0.1469 0.25447 -0.3439 0.47658 -0.5789 0.65285 -0.2351 0.17628 -0.5034 0.30315 -0.7887 0.3729 -0.2854 0.06976 -0.582 0.08095 -0.8719 0.033 -0.8019 -0.67439 -1.3594 -1.5939 -1.5867 -2.61671 -0.2273 -1.02282 -0.1117 -2.09202 0.3292 -3.04251 -3.9301 0 -6.44531 2.31843 -6.91693 5.65922 -0.57988 0.0606 -1.16114 -0.1001 -1.62763 -0.4499 -0.4664 -0.3498 -0.78339 -0.86285 -0.88761 -1.4365 -2.78199 2.3661 -2.92573 7.15219 0.89292 8.92639" stroke-width="1"></path>
  <path fill="#66e1ff" d="M12.4277 22.3308c3.4729 0 6.2882 -2.8153 6.2882 -6.288 0 -3.4728 -2.8153 -6.2881 -6.2882 -6.2881 -3.47278 0 -6.28805 2.8153 -6.28805 6.2881 0 3.4727 2.81527 6.288 6.28805 6.288Z" stroke-width="1"></path>
  <path fill="#c2f3ff" d="M7.98142 20.4894c-1.1793 -1.1792 -1.84177 -2.7787 -1.84177 -4.4465 0 -1.6678 0.66247 -3.2673 1.84177 -4.4466C9.16071 10.417 10.7603 9.75446 12.428 9.75446c1.6678 0 3.2673 0.66254 4.4465 1.84184l-8.89308 8.8931Z" stroke-width="1"></path>
  <path stroke="#191919" stroke-linecap="round" stroke-linejoin="round" d="M12.4277 22.3308c3.4729 0 6.2882 -2.8153 6.2882 -6.288 0 -3.4728 -2.8153 -6.2881 -6.2882 -6.2881 -3.47278 0 -6.28805 2.8153 -6.28805 6.2881 0 3.4727 2.81527 6.288 6.28805 6.288Z" stroke-width="1"></path>
  <path stroke="#191919" stroke-linecap="round" stroke-linejoin="round" d="M15.5718 16.0428h-3.1441v-4.0423" stroke-width="1"></path>
</svg>