<svg xmlns="http://www.w3.org/2000/svg" fill="none" viewBox="0 0 24 24" id="Wifi-Signal-2--Streamline-Ultimate">
  <desc>
    Wifi Signal 2 Streamline Icon: https://streamlinehq.com
  </desc>
  <path fill="#c2f3ff" d="M12.0001 19.7341c4.918 0 8.9048 -3.9868 8.9048 -8.9049 0 -4.91796 -3.9868 -8.90482 -8.9048 -8.90482 -4.91803 0 -8.90489 3.98686 -8.90489 8.90482 0 4.9181 3.98686 8.9049 8.90489 8.9049Z" stroke-width="1"></path>
  <path stroke="#191919" stroke-linecap="round" stroke-linejoin="round" d="M12 13.6395v7.9674" stroke-width="1"></path>
  <path stroke="#191919" stroke-linecap="round" stroke-linejoin="round" d="M19.1538 3.33044c1.001 1.001 1.7951 2.18937 2.3369 3.49718 0.5417 1.3079 0.8206 2.70967 0.8206 4.12538 0 1.4157 -0.2789 2.8174 -0.8206 4.1253 -0.5418 1.3079 -1.3359 2.4962 -2.3369 3.4972" stroke-width="1"></path>
  <path stroke="#191919" stroke-linecap="round" stroke-linejoin="round" d="M16.4995 5.98035c0.6529 0.65285 1.1708 1.4278 1.5242 2.28085 0.3532 0.85286 0.5351 1.7671 0.5351 2.6904s-0.1819 1.8375 -0.5351 2.6904c-0.3534 0.8531 -0.8713 1.628 -1.5242 2.2808" stroke-width="1"></path>
  <path stroke="#191919" stroke-linecap="round" stroke-linejoin="round" d="M4.84593 3.33044c-1.001 1.001 -1.7951 2.18937 -2.33685 3.49718 -0.54175 1.3079 -0.8206 2.70967 -0.8206 4.12538 0 1.4157 0.27885 2.8174 0.8206 4.1253s1.33585 2.4962 2.33685 3.4972" stroke-width="1"></path>
  <path stroke="#191919" stroke-linecap="round" stroke-linejoin="round" d="M7.50061 5.98035c-0.65285 0.65285 -1.17068 1.4278 -1.52405 2.28085 -0.35338 0.85286 -0.53515 1.7671 -0.53515 2.6904s0.18186 1.8375 0.53515 2.6904c0.35337 0.8531 0.8712 1.628 1.52405 2.2808" stroke-width="1"></path>
  <path fill="#ffef5e" d="M12 13.6394c1.5532 0 2.8121 -1.259 2.8121 -2.812 0 -1.55313 -1.2589 -2.81208 -2.8121 -2.81208 -1.5531 0 -2.81201 1.25895 -2.81201 2.81208 0 1.553 1.25891 2.812 2.81201 2.812Z" stroke-width="1"></path>
  <path fill="#fff9bf" d="M9.18799 10.8293c0 0.2014 0.02163 0.4022 0.06472 0.5989 0.47355 0.2572 1.01109 0.3729 1.54849 0.3333 0.5376 -0.0396 1.0524 -0.2329 1.4831 -0.5566 0.4308 -0.3238 0.7595 -0.7648 0.9468 -1.27003 0.1874 -0.50527 0.2258 -1.0538 0.1103 -1.58024 -0.4285 -0.23256 -0.9102 -0.34971 -1.3977 -0.3399 -0.4875 0.00972 -0.9641 0.14612 -1.383 0.39572 -0.4188 0.24952 -0.76569 0.60372 -1.00632 1.02777 -0.24071 0.42405 -0.36694 0.90348 -0.36639 1.39108Z" stroke-width="1"></path>
  <path stroke="#191919" stroke-linecap="round" stroke-linejoin="round" d="M12 13.6394c1.5532 0 2.8121 -1.259 2.8121 -2.812 0 -1.55313 -1.2589 -2.81208 -2.8121 -2.81208 -1.5531 0 -2.81201 1.25895 -2.81201 2.81208 0 1.553 1.25891 2.812 2.81201 2.812Z" stroke-width="1"></path>
</svg>