<svg xmlns="http://www.w3.org/2000/svg" fill="none" viewBox="0 0 14 14" id="Business-Profession-Home-Office--Streamline-Core-Gradient">
  <desc>
    Business Profession Home Office Streamline Icon: https://streamlinehq.com
  </desc>
  <g id="Free Gradient/Money Shopping/business-profession-home-office--workspace-home-office-work-business-remote-working">
    <path id="Subtract" fill="url(#paint0_linear_14402_13989)" fill-rule="evenodd" d="M6.66214.631423c.19116-.175231.48456-.175231.67572 0L13.0136 5.83417c.3099.28412.4864.68527.4864 1.10573V12c0 .8284-.6716 1.5-1.5 1.5H2c-.82843 0-1.5-.6716-1.5-1.5V6.9399c0-.42046.17647-.82161.486413-1.10573L6.66214.631423ZM4.99585 6.62184v-.59779c0-.69036.55964-1.25 1.25-1.25h1.51c.69036 0 1.25.55964 1.25 1.25v.59823c.69524.13065 1.22125.74097 1.22125 1.47416v1.95546c0 .8285-.67155 1.5-1.49998 1.5h-3.4549c-.82843 0-1.5-.6715-1.5-1.5V8.09644c0-.73402.52722-1.34489 1.22363-1.4746Zm3.01-.0254h-2.01v-.57239c0-.13807.11193-.25.25-.25h1.51c.13807 0 .25.11193.25.25v.57239Z" clip-rule="evenodd"></path>
  </g>
  <defs>
    <linearGradient id="paint0_linear_14402_13989" x1="14.627" x2="-2.908" y1="16.253" y2="3.798" gradientUnits="userSpaceOnUse">
      <stop stop-color="#ffd600"></stop>
      <stop offset="1" stop-color="#ff007a"></stop>
    </linearGradient>
  </defs>
</svg>