<svg xmlns="http://www.w3.org/2000/svg" fill="none" viewBox="0 0 14 14" id="Coins-Stack--Streamline-Core-Gradient">
  <desc>
    Coins Stack Streamline Icon: https://streamlinehq.com
  </desc>
  <g id="Free Gradient/Money Shopping/coins-stack--accounting-billing-payment-stack-cash-coins-currency-money-finance">
    <path id="Union" fill="url(#paint0_linear_14402_14092)" fill-rule="evenodd" d="M1.49951 2.50553c-.0001 0-.00004-.00106.00043-.00317-.00011.00211-.00034.00317-.00043.00317ZM1.50054 2.5c.00428-.0155.0242-.06355.10661-.14378.12396-.12068.34234-.26391.67321-.40015C2.93856 1.68505 3.8997 1.5 5 1.5c1.08523 0 2.03508.18001 2.69242.44498C8.11929 1.89845 8.55776 1.875 9 1.875c.29513 0 .58858.01044.87802.03122-.10296-.24289-.26162-.45227-.43884-.6248C9.13302.983368 8.729.749502 8.29077.569055 7.41077.206704 6.24691 0 5 0 3.75309 0 2.58923.206704 1.70923.569055 1.271.749502.866981.983368.560818 1.28142.252285 1.58179 0 1.99384 0 2.5c0 .02666.000699785.05305.00207072.07919C.000700245 2.59427 0 2.60956 0 2.625v2.25c0 .14119.0616307.32292.268096.54078.209493.22105.542343.44892 1.002184.65408.41776.18638.91782.34397 1.47972.46037V5.75c0-.01851.00029-.037.00087-.05545C2.75029 5.67144 2.75 5.64826 2.75 5.625c0-.94912.47656-1.66417.93887-2.11424.03131-.03048.0631-.06032.09531-.08955-.58907-.07888-1.1027-.21211-1.50382-.37728-.33087-.13624-.54925-.27947-.67321-.40015-.08241-.08023-.10233-.12828-.10661-.14378ZM2.75 10.6233V7.8036c-.74178-.13527-1.41622-.33665-1.989026-.59221C.488442 7.0898.232338 6.95301 0 6.80075V8.375c0 .43705.200695.81666.488649 1.1205.28553.30128.675501.5502 1.120131.7486.3395.1515.72362.2792 1.14122.3792ZM1.49994 2.49764c-.00047-.00211-.00053-.00317-.00043-.00317.00009 0 .00032.00106.00043.00317Zm4 3.12972c-.00047.00211-.00053.00317-.00043.00317.00006 0 .00021-.00056.00032-.0017.00004-.00041.00008-.0009.00011-.00147Zm.10721-.14614c-.08241.08023-.10233.12828-.10661.14378.00428.0155.0242.06355.10661.14378.12396.12068.34234.26391.67321.40015C6.93856 6.43995 7.8997 6.625 9 6.625s2.0614-.18505 2.7196-.45607c.3309-.13624.5493-.27947.6732-.40015.0825-.08023.1024-.12828.1067-.14378-.0043-.0155-.0242-.06355-.1067-.14378-.1239-.12068-.3423-.26391-.6732-.40015C11.0614 4.81005 10.1003 4.625 9 4.625c-1.1003 0-2.06144.18505-2.71964.45607-.33087.13624-.54925.27947-.67321.40015Zm6.89335.14931c-.0001 0-.0003-.00106-.0004-.00317.0004.00211.0005.00317.0004.00317Zm-.0004-.00789c.0001-.00211.0003-.00317.0004-.00317.0001 0 0 .00106-.0004.00317Zm-7.00016 0c-.00047-.00211-.00053-.00317-.00043-.00317.00009 0 .00032.00106.00043.00317ZM9 3.125c-1.24691 0-2.41077.2067-3.29077.56905-.43823.18045-.84225.41432-1.14841.71237C4.25229 4.70679 4 5.11884 4 5.625c0 .02666.0007.05305.00207.07919C4.0007 5.71927 4 5.73456 4 5.75V8c0 .14119.06163.32292.2681.54078.20949.22105.54234.44892 1.00218.65408C6.18842 9.60449 7.50403 9.875 9 9.875c1.496 0 2.8116-.27051 3.7297-.68014.4599-.20516.7927-.43303 1.0022-.65408C13.9384 8.32292 14 8.14119 14 8V5.75c0-.01544-.0007-.03073-.0021-.04581.0014-.02614.0021-.05253.0021-.07919 0-.50616-.2523-.91821-.5608-1.21858-.3062-.29805-.7102-.53192-1.1484-.71237C11.4108 3.3317 10.2469 3.125 9 3.125ZM4 11.5V9.92575c.23234.15225.48844.28905.76097.41065 1.11311.4966 2.61.7886 4.23903.7886 1.629 0 3.1259-.292 4.239-.7886.2726-.1216.5287-.2584.761-.41065V11.5c0 .437-.2007.8167-.4886 1.1205-.2856.3013-.6755.5502-1.1202.7486C11.5007 13.7664 10.3032 14 9 14c-1.30322 0-2.50074-.2336-3.39122-.6309-.44463-.1984-.8346-.4473-1.12013-.7486C4.2007 12.3167 4 11.937 4 11.5Z" clip-rule="evenodd"></path>
  </g>
  <defs>
    <linearGradient id="paint0_linear_14402_14092" x1=".538" x2="16.494" y1="1.131" y2="10.125" gradientUnits="userSpaceOnUse">
      <stop stop-color="#00d078"></stop>
      <stop offset="1" stop-color="#007df0"></stop>
    </linearGradient>
  </defs>
</svg>