<svg xmlns="http://www.w3.org/2000/svg" fill="none" viewBox="0 0 14 14" id="Dollar-Coin-1--Streamline-Core-Gradient">
  <desc>
    Dollar Coin 1 Streamline Icon: https://streamlinehq.com
  </desc>
  <g id="Free Gradient/Money Shopping/dollar-coin-1--accounting-billing-payment-cash-coin-currency-money-finance">
    <path id="Union" fill="url(#paint0_linear_14402_14227)" fill-rule="evenodd" d="M8.5 0C5.46243 0 3 2.46243 3 5.5S5.46243 11 8.5 11c3.0376 0 5.5-2.46243 5.5-5.5S11.5376 0 8.5 0Zm.62988 2.86119v-.41905c0-.34518-.27982-.625-.625-.625s-.625.27982-.625.625v.40431c-.76486.08724-1.35901.73668-1.35901 1.52489 0 .72129.50224 1.34526 1.20686 1.4994l1.20122.26277c.1808.03954.31004.19996.31004.38548 0 .21806-.17683.39467-.3943.39467h-.33174l-.00807-.00006-.00807.00006h-.33164c-.1707 0-.3176-.10883-.37202-.26281-.11503-.32545-.47211-.49603-.79756-.381-.32544.11503-.49602.47211-.38099.79756.19482.55121.67557.96846 1.26528 1.0716v.41889c0 .34518.27982.625.625.625s.625-.27982.625-.625v-.41889C9.90227 8.0039 10.489 7.3296 10.489 6.51899c0-.77249-.53784-1.44143-1.29293-1.60661l-1.20121-.26277c-.13078-.0286-.22399-.14441-.22399-.27827 0-.15732.12754-.28485.28486-.28485h.78896c.11672 0 .22095.04992.29404.13158.03433.03835.06091.08291.07798.13122.11503.32545.47211.49603.79759.381.3254-.11503.496-.47211.381-.79755-.0725-.2049-.184-.39059-.3251-.54831-.2403-.26843-.56897-.45817-.94032-.52324Zm-1.0574 9.37551c-3.38737-.2117-6.09745-2.92181-6.30916-6.30918C.691206 6.75004 0 8.0443 0 9.5 0 11.9853 2.01472 14 4.5 14c1.4557 0 2.74996-.6912 3.57248-1.7633Z" clip-rule="evenodd"></path>
  </g>
  <defs>
    <linearGradient id="paint0_linear_14402_14227" x1="15.213" x2="-3.671" y1="16.965" y2="3.551" gradientUnits="userSpaceOnUse">
      <stop stop-color="#ffd600"></stop>
      <stop offset="1" stop-color="#ff007a"></stop>
    </linearGradient>
  </defs>
</svg>