<svg xmlns="http://www.w3.org/2000/svg" fill="none" viewBox="0 0 14 14" id="Justice-Scale-2--Streamline-Core-Gradient">
  <desc>
    Justice Scale 2 Streamline Icon: https://streamlinehq.com
  </desc>
  <g id="Free Gradient/Money Shopping/justice-scale-2--office-work-scale-justice-unequal-company-arbitration-unbalance-court">
    <path id="Union" fill="url(#paint0_linear_14402_13579)" fill-rule="evenodd" d="M7.75.75C7.75.335786 7.41421 0 7 0s-.75.335786-.75.75v1.58833L1.81545 4.29839c-.37886.16745-.55023.61032-.38278.98918.12665.28654.41084.45439.70573.44674L.0688209 10.2263C.023479 10.3247 0 10.4318 0 10.5401c0 .4176.0823433.8825.231287 1.3121.146927.4237.379542.8729.722783 1.2113.60927.6008 1.43341.9365 2.29058.9365.85716 0 1.6813-.3357 2.29057-.9365.34324-.3384.57586-.7876.72278-1.2113.14895-.4296.23129-.8945.23129-1.3121 0-.1083-.02348-.2154-.06882-.3138L4.00004 4.9728l3.26097-1.44134c.02842-.01055.05603-.02278.08271-.03656l2.26526-1.00123-2.02942 4.40478c-.04534.09841-.06882.20548-.06882.31384 0 .41755.08235.88254.23129 1.31206.14693.42372.37954.87291.72278 1.21137.60927.60078 1.43341.93648 2.29059.93648.8572 0 1.6813-.3357 2.2906-.93648.3432-.33846.5758-.78765.7227-1.21137.149-.42952.2313-.89451.2313-1.31206 0-.10836-.0234-.21543-.0688-.31384L11.5139 1.6517l.3113-.13759c.3789-.16746.5502-.61033.3828-.989186-.1675-.378857-.6104-.5502327-.9892-.382779L7.75 1.67534V.75Zm-2.82518 9.8146L3.24465 6.91787 1.56447 10.5646h3.36035Zm5.83058-6.97455 1.6802 3.64677H9.07521l1.68019-3.64677Z" clip-rule="evenodd"></path>
  </g>
  <defs>
    <linearGradient id="paint0_linear_14402_13579" x1="13.953" x2="-2.626" y1="14.003" y2="4.677" gradientUnits="userSpaceOnUse">
      <stop stop-color="#ff51e3"></stop>
      <stop offset="1" stop-color="#1b4dff"></stop>
    </linearGradient>
  </defs>
</svg>