<svg xmlns="http://www.w3.org/2000/svg" fill="none" viewBox="0 0 14 14" id="Tag--Streamline-Core-Gradient">
  <desc>
    Tag Streamline Icon: https://streamlinehq.com
  </desc>
  <g id="Free Gradient/Money Shopping/tag--codes-tags-tag-product-label">
    <path id="Union" fill="url(#paint0_linear_14402_14484)" fill-rule="evenodd" d="M8.08263.260259c.1724-.1774361.41621-.2726311.66282-.259557503h4.75385c.2761 0 .5.223857503.5.499999503V5.25455c.0131.24661-.0821.49042-.2596.66282l-3.3808 3.38085 3.4214 3.42148c.2929.2929.2929.7677 0 1.0606-.2929.2929-.7677.2929-1.0606 0L.21967 1.28033c-.2928931-.292893-.2928931-.767767 0-1.06066.292893-.2928933.767767-.2928933 1.06066 0l3.42145 3.42145L8.08263.260259ZM2.7604 5.58249l5.65711 5.65711-2.39466 2.3947-.00022.0002c-.23437.2341-.55208.3655-.88333.3655-.33125 0-.64896-.1314-.88334-.3655l-.00022-.0002L.365745 9.74426l-.00022-.00022c-.234084-.23438-.3655669617-.55209-.3655669617-.88334 0-.33125.1314829617-.64896.3655669617-.88333l.00022-.00022L2.7604 5.58249Zm8.629-1.97196c0-.55228-.4477-1-1-1-.55228 0-1 .44772-1 1 0 .55229.44772 1 1 1 .5523 0 1-.44771 1-1Z" clip-rule="evenodd"></path>
  </g>
  <defs>
    <linearGradient id="paint0_linear_14402_14484" x1="14.035" x2="4.72" y1="14.023" y2="-2.556" gradientUnits="userSpaceOnUse">
      <stop stop-color="#ff51e3"></stop>
      <stop offset="1" stop-color="#1b4dff"></stop>
    </linearGradient>
  </defs>
</svg>