<svg xmlns="http://www.w3.org/2000/svg" fill="none" viewBox="0 0 14 14" id="Target-3--Streamline-Core-Gradient">
  <desc>
    Target 3 Streamline Icon: https://streamlinehq.com
  </desc>
  <g id="Free Gradient/Money Shopping/target-3--shop-bullseye-shooting-target">
    <path id="Union" fill="url(#paint0_linear_14402_14510)" fill-rule="evenodd" d="M12.4496 6.25007h-.8667c-.4142 0-.75.33579-.75.75s.3358.75.75.75h.8667c-.3323 2.43763-2.2619 4.36713-4.69953 4.69953v-.8667c0-.4142-.33579-.75-.75-.75s-.75.3358-.75.75v.8667c-2.43769-.3323-4.36722-2.2618-4.6996-4.69953h.8667c.41421 0 .75-.33579.75-.75s-.33579-.75-.75-.75h-.86671c.33234-2.43773 2.26188-4.36728 4.69961-4.69964v.86674c0 .41421.33579.75.75.75s.75-.33579.75-.75v-.86674c2.43773.33238 4.36723 2.26192 4.69953 4.69964Zm1.5507.74995c0 3.86618-3.1341 7.00028-7.00025 7.00028-3.86616 0-7.000294141-3.1341-7.000294141-7.00028 0-3.86616 3.134134141-7.000294658 7.000294141-7.000294658 3.86615 0 7.00025 3.134134658 7.00025 7.000294658Zm-9.75026-.00001c0 .41421.33579.75.75.75h1.25v1.25c0 .41421.33579.75.75.75s.75-.33579.75-.75v-1.25h1.25c.41421 0 .75-.33579.75-.75s-.33579-.75-.75-.75h-1.25v-1.25c0-.41421-.33579-.75-.75-.75s-.75.33579-.75.75v1.25h-1.25c-.41421 0-.75.33579-.75.75Z" clip-rule="evenodd"></path>
  </g>
  <defs>
    <linearGradient id="paint0_linear_14402_14510" x1=".538" x2="16.495" y1="1.131" y2="10.125" gradientUnits="userSpaceOnUse">
      <stop stop-color="#00d078"></stop>
      <stop offset="1" stop-color="#007df0"></stop>
    </linearGradient>
  </defs>
</svg>