<svg xmlns="http://www.w3.org/2000/svg" fill="none" viewBox="0 0 14 14" id="Yuan-Yen--Streamline-Core-Gradient">
  <desc>
    Yuan Yen Streamline Icon: https://streamlinehq.com
  </desc>
  <g id="Free Gradient/Money Shopping/yuan-yen--exchange-payment-forex-finance-yuan-yen-renmindi-foreign-currency">
    <path id="Union" fill="url(#paint0_linear_14402_14551)" fill-rule="evenodd" d="M3.78091.875311C3.4359.444049 2.8066.374128 2.37534.719137c-.43126.345013-.50118.974303-.15617 1.405563l3.78087 4.72609v.14922h-2c-.55229 0-1 .44771-1 1 0 .55228.44771 1 1 1h2V10h-2c-.55229 0-1 .4477-1 1s.44771 1 1 1h2v.5c0 .5523.44771 1 1 1 .55228 0 1-.4477 1-1V12H10c.5523 0 1-.4477 1-1s-.4477-1-1-1H8.00004v-.99999H10c.5523 0 1-.44772 1-1 0-.55229-.4477-1-1-1H8.00004v-.14922L11.7809 2.1247c.345-.43126.2751-1.06055-.1562-1.405563-.4312-.345009-1.0605-.275088-1.4055.156174L7.00004 4.89923 3.78091.875311Z" clip-rule="evenodd"></path>
  </g>
  <defs>
    <linearGradient id="paint0_linear_14402_14551" x1="3.635" x2="12.568" y1="3" y2="6.807" gradientUnits="userSpaceOnUse">
      <stop stop-color="#ffd600"></stop>
      <stop offset="1" stop-color="#00d078"></stop>
    </linearGradient>
  </defs>
</svg>