<svg xmlns="http://www.w3.org/2000/svg" fill="none" viewBox="0 0 24 24" id="Github-Logo-2--Streamline-Logos">
  <desc>
    Github Logo 2 Streamline Icon: https://streamlinehq.com
  </desc>
  <path fill="#000000" d="M11.996 1.284a10.986 10.986 0 0 0 -3.472 21.412c0.548 0.095 0.722 -0.227 0.722 -0.517 0 -0.263 0.006 -0.991 0 -1.91 -3.057 0.662 -3.688 -1.448 -3.688 -1.448a2.907 2.907 0 0 0 -1.22 -1.607c-0.997 -0.682 0.075 -0.669 0.075 -0.669a2.307 2.307 0 0 1 1.683 1.131 2.34 2.34 0 0 0 3.197 0.914 2.34 2.34 0 0 1 0.697 -1.464c-2.439 -0.279 -5.004 -1.22 -5.004 -5.432a4.248 4.248 0 0 1 1.132 -2.948 3.942 3.942 0 0 1 0.107 -2.907s0.924 -0.295 3.02 1.128a10.402 10.402 0 0 1 5.503 0c2.102 -1.422 3.018 -1.128 3.018 -1.128 0.405 0.92 0.444 1.96 0.109 2.907a4.243 4.243 0 0 1 1.13 2.95c0 4.223 -2.569 5.15 -5.016 5.42a2.604 2.604 0 0 1 0.752 2.026v3.041c0 0.294 0.177 0.619 0.735 0.512a10.986 10.986 0 0 0 -3.48 -21.411Z" stroke-width="1"></path>
</svg>