<svg xmlns="http://www.w3.org/2000/svg" fill="none" viewBox="0 0 14 14" id="Coin-Share--Streamline-Core-Neon">
  <desc>
    Coin Share Streamline Icon: https://streamlinehq.com
  </desc>
  <g id="coin-share--payment-cash-money-finance-receive-give-coin-hand">
    <path id="Vector" stroke="#000cfe" stroke-linecap="round" stroke-linejoin="round" d="M9.75 8c2.0711 0 3.75 -1.67893 3.75 -3.75C13.5 2.17893 11.8211 0.5 9.75 0.5 7.67893 0.5 6 2.17893 6 4.25 6 6.32107 7.67893 8 9.75 8Z" stroke-width="1"></path>
    <path id="Vector_2" stroke="#000cfe" stroke-linecap="round" stroke-linejoin="round" d="M9.75 5.25v-2" stroke-width="1"></path>
    <path id="Vector 294" stroke="#c71dff" stroke-linecap="round" stroke-linejoin="round" d="m0.5 11 2.44373 2.0364c0.35943 0.2996 0.8125 0.4636 1.28037 0.4636l6.4426 0c0.4602 0 0.8333 -0.3731 0.8333 -0.8333C11.5 11.7462 10.7538 11 9.83333 11H5.35429" stroke-width="1"></path>
    <path id="Vector 295" stroke="#c71dff" stroke-linecap="round" stroke-linejoin="round" d="m3.5 10 0.75 0.75c0.41421 0.4142 1.08579 0.4142 1.5 0 0.41421 -0.4142 0.41421 -1.08579 0 -1.5L4.58579 8.08579C4.21071 7.71071 3.70201 7.5 3.17157 7.5H0.5" stroke-width="1"></path>
  </g>
</svg>