<svg xmlns="http://www.w3.org/2000/svg" fill="none" viewBox="0 0 14 14" id="Lipstick--Streamline-Core-Neon">
  <desc>
    Lipstick Streamline Icon: https://streamlinehq.com
  </desc>
  <g id="lipstick--fashion-beauty-lip-lipstick-makeup-shopping">
    <path id="Vector" stroke="#000cfe" stroke-linecap="round" stroke-linejoin="round" d="M8.24463 4.11351 11.5159 0.829003c0.1414 -0.140693 0.3143 -0.242756 0.497 -0.293312 0.1826 -0.050556 0.3668 -0.047339 0.5293 0.009244 0.1631 0.05509 0.2975 0.161116 0.3865 0.304714 0.089 0.143599 0.1285 0.318341 0.1135 0.502221l-0.1749 2.0219c-0.0099 0.12256 -0.0438 0.24617 -0.0997 0.36372 -0.0559 0.11756 -0.1327 0.22676 -0.2261 0.32134l-2.1974 2.16723" stroke-width="1"></path>
    <path id="Vector_2" stroke="#c71dff" stroke-linecap="round" stroke-linejoin="round" d="M1.24731 9.66051c-0.18749 0.18977 -0.29272 0.44649 -0.29272 0.71409s0.10523 0.5243 0.29272 0.714l2.10383 2.1169c0.1886 0.1886 0.44373 0.2945 0.70966 0.2945 0.26593 0 0.52106 -0.1059 0.70967 -0.2945l3.73454 -3.75769 -3.52316 -3.54498 -3.73454 3.75768Z" stroke-width="1"></path>
    <path id="Vector_3" stroke="#c71dff" stroke-linecap="round" stroke-linejoin="round" d="M5.39307 6.31646 7.91245 3.7793l2.76995 2.78316 -2.5497 2.51061" stroke-width="1"></path>
  </g>
</svg>