<svg xmlns="http://www.w3.org/2000/svg" fill="none" viewBox="0 0 14 14" id="Safe-Vault--Streamline-Core-Neon">
  <desc>
    Safe Vault Streamline Icon: https://streamlinehq.com
  </desc>
  <g id="safe-vault--saving-combo-payment-safe-combination-finance">
    <path id="Vector" stroke="#000cfe" stroke-linecap="round" stroke-linejoin="round" d="M8.5 8c0.9665 0 1.75 -0.7835 1.75 -1.75S9.4665 4.5 8.5 4.5s-1.75 0.7835 -1.75 1.75S7.5335 8 8.5 8Z" stroke-width="1"></path>
    <path id="Vector_2" stroke="#000cfe" stroke-linecap="round" stroke-linejoin="round" d="M8.5 3.25V4.5" stroke-width="1"></path>
    <path id="Vector_3" stroke="#000cfe" stroke-linecap="round" stroke-linejoin="round" d="M8.5 8v1.25" stroke-width="1"></path>
    <path id="Vector_4" stroke="#000cfe" stroke-linecap="round" stroke-linejoin="round" d="M11.5 6.25h-1.25" stroke-width="1"></path>
    <path id="Vector_5" stroke="#000cfe" stroke-linecap="round" stroke-linejoin="round" d="M6.75 6.25H5.5" stroke-width="1"></path>
    <path id="Vector_6" stroke="#000cfe" stroke-linecap="round" stroke-linejoin="round" d="m10.62 4.13 -0.88001 0.88" stroke-width="1"></path>
    <path id="Vector_7" stroke="#000cfe" stroke-linecap="round" stroke-linejoin="round" d="m7.25988 7.48999 -0.88 0.88" stroke-width="1"></path>
    <path id="Vector_8" stroke="#000cfe" stroke-linecap="round" stroke-linejoin="round" d="m10.62 8.36999 -0.88001 -0.88" stroke-width="1"></path>
    <path id="Vector_9" stroke="#000cfe" stroke-linecap="round" stroke-linejoin="round" d="m7.25988 5.01 -0.88 -0.88" stroke-width="1"></path>
    <path id="Vector_10" stroke="#000cfe" stroke-linecap="round" stroke-linejoin="round" d="M3 4.5V8" stroke-width="1"></path>
    <path id="Vector_11" stroke="#000cfe" stroke-linecap="round" stroke-linejoin="round" d="M2 11.5V13" stroke-width="1"></path>
    <path id="Vector_12" stroke="#000cfe" stroke-linecap="round" stroke-linejoin="round" d="M11.5 11.5V13" stroke-width="1"></path>
    <path id="Vector_13" stroke="#c71dff" stroke-linecap="round" stroke-linejoin="round" d="M12 1H2c-0.55228 0 -1 0.44772 -1 1v8.5c0 0.5523 0.44772 1 1 1h10c0.5523 0 1 -0.4477 1 -1V2c0 -0.55228 -0.4477 -1 -1 -1Z" stroke-width="1"></path>
  </g>
</svg>