<svg xmlns="http://www.w3.org/2000/svg" fill="none" viewBox="0 0 14 14" id="Shopping-Basket-1--Streamline-Core-Neon">
  <desc>
    Shopping Basket 1 Streamline Icon: https://streamlinehq.com
  </desc>
  <g id="shopping-basket-1--shopping-basket">
    <path id="Vector" stroke="#000cfe" stroke-linecap="round" stroke-linejoin="round" d="M4.5 8v2.5" stroke-width="1"></path>
    <path id="Vector_2" stroke="#000cfe" stroke-linecap="round" stroke-linejoin="round" d="M7 8v2.5" stroke-width="1"></path>
    <path id="Vector_3" stroke="#000cfe" stroke-linecap="round" stroke-linejoin="round" d="M9.5 8v2.5" stroke-width="1"></path>
    <path id="Vector_4" stroke="#000cfe" stroke-linecap="round" stroke-linejoin="round" d="M9.47998 2.03998c0.59902 0.10349 1.14782 0.39979 1.56302 0.84383 0.4152 0.44405 0.674 1.01155 0.737 1.61617l0.11 1" stroke-width="1"></path>
    <path id="Vector_5" stroke="#000cfe" stroke-linecap="round" stroke-linejoin="round" d="M4.52011 2.06c-0.59603 0.10248 -1.14262 0.39585 -1.55745 0.83593 -0.41483 0.44008 -0.67543 1.00303 -0.74255 1.60407l-0.11 1" stroke-width="1"></path>
    <path id="Vector_6" stroke="#000cfe" stroke-linecap="round" stroke-linejoin="round" d="M9.5 2.25c0 0.16415 -0.03233 0.3267 -0.09515 0.47835 -0.06282 0.15166 -0.15489 0.28946 -0.27097 0.40553 -0.11607 0.11608 -0.25387 0.20815 -0.40553 0.27097C8.5767 3.46767 8.41415 3.5 8.25 3.5h-2.5c-0.33152 0 -0.64946 -0.1317 -0.88388 -0.36612C4.6317 2.89946 4.5 2.58152 4.5 2.25c0 -0.33152 0.1317 -0.64946 0.36612 -0.88388C5.10054 1.1317 5.41848 1 5.75 1h2.5c0.33152 0 0.64946 0.1317 0.88388 0.36612 0.23442 0.23442 0.36612 0.55236 0.36612 0.88388v0Z" stroke-width="1"></path>
    <path id="Vector_7" stroke="#c71dff" stroke-linecap="round" stroke-linejoin="round" d="M12.0672 5.49998H1.95163c-0.13495 -0.00122 -0.26858 0.02826 -0.39186 0.08643 -0.12329 0.05818 -0.23336 0.14371 -0.3228 0.25081 -0.08944 0.1071 -0.15615 0.23329 -0.19565 0.37005 -0.0395 0.13675 -0.050857 0.2809 -0.03331 0.4227L1.69685 12.13c0.02995 0.2421 0.14244 0.4642 0.31626 0.6244 0.17383 0.1603 0.39697 0.2476 0.62736 0.2456h8.71903c0.2304 0.002 0.4536 -0.0853 0.6274 -0.2456 0.1738 -0.1602 0.2863 -0.3823 0.3162 -0.6244l0.6889 -5.50003c0.0173 -0.14013 0.0064 -0.28257 -0.0319 -0.41793 -0.0384 -0.13535 -0.1035 -0.26054 -0.1908 -0.36732 -0.0874 -0.10677 -0.1952 -0.1927 -0.3162 -0.25213 -0.121 -0.05942 -0.2525 -0.09099 -0.3859 -0.09261Z" stroke-width="1"></path>
  </g>
</svg>