<svg xmlns="http://www.w3.org/2000/svg" fill="none" viewBox="0 0 14 14" id="Store-Computer--Streamline-Core-Neon">
  <desc>
    Store Computer Streamline Icon: https://streamlinehq.com
  </desc>
  <g id="store-computer--store-shop-shops-stores-online-computer-website-desktop-app">
    <path id="Vector" stroke="#000cfe" stroke-linecap="round" stroke-linejoin="round" d="m5.99976 11 -1 2.5" stroke-width="1"></path>
    <path id="Vector_2" stroke="#000cfe" stroke-linecap="round" stroke-linejoin="round" d="m7.99976 11 1 2.5" stroke-width="1"></path>
    <path id="Vector_3" stroke="#000cfe" stroke-linecap="round" stroke-linejoin="round" d="M3.99976 13.5h6" stroke-width="1"></path>
    <path id="Vector_4" stroke="#000cfe" stroke-linecap="round" stroke-linejoin="round" d="m1.5 3.25 1.0011 -2.16906C2.66456 0.726791 3.01901 0.5 3.40906 0.5h7.18184c0.3901 0 0.7445 0.226791 0.908 0.58094L12.5 3.25h-11Z" stroke-width="1"></path>
    <path id="Rectangle 2013" stroke="#000cfe" stroke-linecap="round" stroke-linejoin="round" d="M1.5 3.25h3.66667v0.66667c0 1.01252 -0.82081 1.83333 -1.83334 1.83333v0C2.32081 5.75 1.5 4.92919 1.5 3.91667V3.25Z" stroke-width="1"></path>
    <path id="Rectangle 2014" stroke="#000cfe" stroke-linecap="round" stroke-linejoin="round" d="M5.16675 3.25h3.66666v0.66667c0 1.01252 -0.82081 1.83333 -1.83333 1.83333v0c-1.01252 0 -1.83333 -0.82081 -1.83333 -1.83333V3.25Z" stroke-width="1"></path>
    <path id="Rectangle 2015" stroke="#000cfe" stroke-linecap="round" stroke-linejoin="round" d="M8.83325 3.25h3.66665v0.66667c0 1.01252 -0.8208 1.83333 -1.8333 1.83333v0c-1.01254 0 -1.83335 -0.82081 -1.83335 -1.83333V3.25Z" stroke-width="1"></path>
    <path id="Vector_5" stroke="#c71dff" stroke-linecap="round" stroke-linejoin="round" d="M12.0881 7.5v2.46875c0 0.55225 -0.4477 1.00005 -1 1.00005H2.91138c-0.55229 0 -1 -0.4478 -1 -1.00005V7.5" stroke-width="1"></path>
  </g>
</svg>