<svg xmlns="http://www.w3.org/2000/svg" fill="none" viewBox="0 0 14 14" id="Tag--Streamline-Core-Neon">
  <desc>
    Tag Streamline Icon: https://streamlinehq.com
  </desc>
  <g id="tag--codes-tags-tag-product-label">
    <path id="Vector" stroke="#c71dff" stroke-linecap="round" stroke-linejoin="round" d="m4.57925 4.47068 3.86 -3.859996c0.07417 -0.077581 0.18304 -0.118878 0.29 -0.11h4.77005V5.27068c0.0088 0.10697 -0.0325 0.21584 -0.11 0.29l-3.86005 3.86M7.94372 11.0062l-2.27447 2.2745c-0.14062 0.1404 -0.33124 0.2193 -0.53 0.2193 -0.19875 0 -0.38937 -0.0789 -0.53 -0.2193L0.719254 9.39069c-0.14045 -0.14063 -0.21934 -0.33125 -0.21934 -0.53001 0 -0.19875 0.07889 -0.38937 0.21934 -0.53l2.297906 -2.2979" stroke-width="1"></path>
    <path id="Vector 1859" stroke="#000cfe" stroke-linecap="round" stroke-linejoin="round" d="m0.5 0.5 13 13" stroke-width="1"></path>
    <path id="Vector_2" stroke="#c71dff" stroke-linecap="round" stroke-linejoin="round" d="M10.3894 4.11053c-0.2761 0 -0.5 -0.22385 -0.5 -0.5 0 -0.27614 0.2239 -0.5 0.5 -0.5s0.5 0.22386 0.5 0.5c0 0.27615 -0.2239 0.5 -0.5 0.5Z" stroke-width="1"></path>
  </g>
</svg>