<svg xmlns="http://www.w3.org/2000/svg" fill="none" viewBox="0 0 14 14" id="Departure-Time--Streamline-Flex">
  <desc>
    Departure Time Streamline Icon: https://streamlinehq.com
  </desc>
  <g id="departure-time--travel-plane-trip-airplane-time-off-adventure-timer-take-clock-airport">
    <path id="Vector" fill="#ffffff" d="M9.93722 7.37443c2.14108 0 3.34538 -1.20435 3.34538 -3.34542S12.0783 0.683594 9.93722 0.683594c-2.14107 0 -3.34542 1.204346 -3.34542 3.345416s1.20435 3.34542 3.34542 3.34542Z" stroke-width="1"></path>
    <path id="Vector_2" stroke="#4147d5" stroke-linecap="round" stroke-linejoin="round" d="m9.9668 3.99929 0.8438 -0.84377" stroke-width="1"></path>
    <path id="Union" fill="#d7e0ff" d="M0.856064 8.08755c-0.08915 0.69979 0.407646 1.36143 1.079736 1.55799 0.77646 0.22709 1.66518 0.46436 2.57685 0.69576 0.36606 0.7245 0.75009 1.4247 1.03713 1.9345 0.26495 0.4706 0.82144 0.7506 1.34311 0.6866 0.59645 -0.0732 0.95993 -0.5715 0.82543 -1.1444 -0.05263 -0.2242 -0.1126 -0.4753 -0.17815 -0.7425 0.96784 0.2256 1.8358 0.4206 2.47243 0.5614 0.5752 0.1273 1.11 -0.2278 1.2349 -0.7976 0.0151 -0.0353 0.0281 -0.0722 0.0387 -0.1104 0.2055 -0.73614 0.3873 -1.61645 0.5115 -2.27379 0.1051 -0.55613 -0.2158 -1.115 -0.7415 -1.31492 -0.5258 -0.19992 -1.09924 0.01884 -1.33875 0.52386 -0.16464 0.34717 -0.35771 0.76633 -0.54264 1.19665 -1.51316 -0.67291 -3.55964 -1.55276 -5.34643 -2.21692 -1.31918 -0.49035 -2.79402 0.04419 -2.972316 1.44377Z" stroke-width="1"></path>
    <path id="Union_2" stroke="#4147d5" stroke-linecap="round" stroke-linejoin="round" d="M0.856064 8.08755c-0.08915 0.69979 0.407646 1.36143 1.079736 1.55799 0.77646 0.22709 1.66518 0.46436 2.57685 0.69576 0.36606 0.7245 0.75009 1.4247 1.03713 1.9345 0.26495 0.4706 0.82144 0.7506 1.34311 0.6866 0.59645 -0.0732 0.95993 -0.5715 0.82543 -1.1444 -0.05263 -0.2242 -0.1126 -0.4753 -0.17815 -0.7425 0.96784 0.2256 1.8358 0.4206 2.47243 0.5614 0.5752 0.1273 1.11 -0.2278 1.2349 -0.7976 0.0151 -0.0353 0.0281 -0.0722 0.0387 -0.1104 0.2055 -0.73614 0.3873 -1.61645 0.5115 -2.27379 0.1051 -0.55613 -0.2158 -1.115 -0.7415 -1.31492 -0.5258 -0.19992 -1.09924 0.01884 -1.33875 0.52386 -0.16464 0.34717 -0.35771 0.76633 -0.54264 1.19665 -1.51316 -0.67291 -3.55964 -1.55276 -5.34643 -2.21692 -1.31918 -0.49035 -2.79402 0.04419 -2.972316 1.44377Z" stroke-width="1"></path>
    <path id="Vector_3" stroke="#4147d5" stroke-linecap="round" stroke-linejoin="round" d="M7.00507 5.88802c-0.27161 -0.50271 -0.41278 -1.12595 -0.41278 -1.85901 0 -2.14107 1.20435 -3.345416 3.34542 -3.345416 2.14109 0 3.34539 1.204346 3.34539 3.345416 0 0.55071 -0.0797 1.03944 -0.2345 1.46165" stroke-width="1"></path>
  </g>
</svg>