<svg xmlns="http://www.w3.org/2000/svg" fill="none" viewBox="0 0 16 16" id="Fish--Streamline-Block-Free">
  <desc>
    Fish Streamline Icon: https://streamlinehq.com
  </desc>
  <path fill="#000000" fill-rule="evenodd" d="M10 12c3.3137 0 6 -2.68629 6 -6V0h-6C6.68629 0 4 2.68629 4 6c0 1.09286 0.29218 2.11748 0.80269 3H0c0 3.866 3.13401 7 7 7v-4.8027c0.88252 0.5105 1.90714 0.8027 3 0.8027Zm3.0001 -7.74982c-0.6905 0 -1.2502 -0.55972 -1.2502 -1.25018 0 -0.69046 0.5597 -1.25018 1.2502 -1.25018 0.6904 0 1.2501 0.55972 1.2501 1.25018 0 0.69046 -0.5597 1.25018 -1.2501 1.25018Z" clip-rule="evenodd" stroke-width="1"></path>
</svg>