<svg xmlns="http://www.w3.org/2000/svg" fill="none" viewBox="0 0 16 16" id="Meat--Streamline-Block-Free">
  <desc>
    Meat Streamline Icon: https://streamlinehq.com
  </desc>
  <path fill="#000000" d="M10 12c3.3137 0 6 -2.68629 6 -6s-2.6863 -6 -6 -6C6.68629 0 4 2.68629 4 6c0 1.14433 0.32035 2.21383 0.87626 3.12373L3.41421 10.5858C3.05228 10.2239 2.55228 10 2 10c-1.104569 0 -2 0.8954 -2 2s0.895431 2 2 2c0 1.1046 0.89543 2 2 2s2 -0.8954 2 -2c0 -0.5523 -0.22386 -1.0523 -0.58579 -1.4142l1.46205 -1.4621C7.78616 11.6796 8.85567 12 10 12Z" stroke-width="1"></path>
</svg>