<svg xmlns="http://www.w3.org/2000/svg" fill="none" viewBox="0 0 14 14" id="Film--Streamline-Flex">
  <desc>
    Film Streamline Icon: https://streamlinehq.com
  </desc>
  <g id="film--photos-camera-shutter-picture-photography-pictures-photo-lens-film-cut">
    <path id="Union" fill="#8fbffa" fill-rule="evenodd" d="M2.396 0.25C1.68 0.25 1.044 0.762 0.941 1.498 0.78 2.638 0.595 4.532 0.595 7s0.186 4.362 0.346 5.502a1.458 1.458 0 0 0 1.455 1.248h9.208c0.716 0 1.352 -0.512 1.455 -1.248 0.16 -1.14 0.346 -3.034 0.346 -5.502s-0.186 -4.362 -0.346 -5.502A1.459 1.459 0 0 0 11.604 0.25H2.396Z" clip-rule="evenodd" stroke-width="1"></path>
    <path id="Vector 371" fill="#2859c5" d="M3.358 5.178c0.052 -1.018 0.17 -2.007 0.281 -2.666 0.071 -0.425 0.442 -0.704 0.872 -0.704H9.49c0.43 0 0.8 0.28 0.872 0.704 0.11 0.659 0.23 1.648 0.281 2.666a0.96 0.96 0 0 1 -0.973 1H4.331a0.96 0.96 0 0 1 -0.973 -1Z" stroke-width="1"></path>
    <path id="Vector 372" fill="#2859c5" d="M10.642 8.822a24.705 24.705 0 0 1 -0.281 2.666c-0.071 0.425 -0.442 0.704 -0.872 0.704l-4.978 0c-0.43 0 -0.8 -0.28 -0.872 -0.704a24.68 24.68 0 0 1 -0.281 -2.666 0.96 0.96 0 0 1 0.973 -1l5.338 0a0.96 0.96 0 0 1 0.973 1Z" stroke-width="1"></path>
  </g>
</svg>