<svg xmlns="http://www.w3.org/2000/svg" fill="none" viewBox="0 0 24 24" id="Lubuntu-Logo--Streamline-Logos">
  <desc>
    Lubuntu Logo Streamline Icon: https://streamlinehq.com
  </desc>
  <path fill="#000000" fill-rule="evenodd" d="M19.407 20.133A10.971 10.971 0 0 0 23 12c0 -6.075 -4.925 -11 -11 -11S1 5.925 1 12s4.925 11 11 11c2.787 0 5.332 -1.036 7.27 -2.745 -0.134 -0.276 -0.271 -0.563 -0.412 -0.856 -1.85 -3.857 -4.282 -8.926 -6.35 -8.543 -2.438 0.591 -6.827 10.149 -6.827 10.149a11.05 11.05 0 0 1 -3.468 -3.979c1.469 -1.86 3.908 -5.174 3.504 -5.579 -0.419 -0.418 -3.262 0.154 -4.717 0.512l0 -0.061c3.225 -2.955 10.81 -7.649 14.075 -8.486l-0.812 2.695c2.173 2.36 5.186 8.575 5.145 14.026Zm-15.63 -0.827a11.045 11.045 0 0 1 -0.924 -1.194c1.542 -2.16 4.517 -6.152 4.867 -5.919 0.346 0.231 -2.39 4.69 -3.944 7.113Z" clip-rule="evenodd" stroke-width="1"></path>
</svg>