<svg xmlns="http://www.w3.org/2000/svg" fill="none" viewBox="0 0 24 24" id="Natural-Disaster-Hurricane--Streamline-Ultimate">
  <desc>
    Natural Disaster Hurricane Streamline Icon: https://streamlinehq.com
  </desc>
  <path fill="#e3e3e3" d="M1.71729 1c2.76243 3.14504 5.73913 3.99157 5.73913 5.73913 0 1.32861 -3.34783 1.4233 -3.34783 2.86957 0 1.8824 16.61291 7.7784 11.00001 13.3913h1.913s5.2609 -2.7892 5.2609 -4.7826c0 -1.9934 -4.7826 -6.623 -4.7826 -8.6087 0 -1.98574 4.7826 -4.12166 4.7826 -5.73913C22.2825 2.25209 20.3695 1 20.3695 1H1.71729Z" stroke-width="1"></path>
  <path fill="#ffffff" d="M10.523 9.6087c0 -1.44531 3.3479 -2.8447 3.3479 -4.17331C13.8709 3.68783 8.13172 1 8.13172 1H1.71729c2.76243 3.14504 5.73913 3.99157 5.73913 5.73913 0 1.32861 -3.34783 1.42426 -3.34783 2.86957 0 1.8824 16.61291 7.7784 11.00001 13.3913h1.4348c5.6128 -5.6129 -6.0204 -11.5089 -6.0204 -13.3913Z" stroke-width="1"></path>
  <path stroke="#191919" stroke-linecap="round" stroke-linejoin="round" d="M1.71729 1H20.3695" stroke-width="1"></path>
  <path stroke="#191919" stroke-linecap="round" stroke-linejoin="round" d="M5.06494 3.86957H22.2823" stroke-width="1"></path>
  <path stroke="#191919" stroke-linecap="round" stroke-linejoin="round" d="M7.45654 6.73914H19.8913" stroke-width="1"></path>
  <path stroke="#191919" stroke-linecap="round" stroke-linejoin="round" d="M4.1084 9.6087h13.3913" stroke-width="1"></path>
  <path stroke="#191919" stroke-linecap="round" stroke-linejoin="round" d="M8.41309 12.4783H18.9348" stroke-width="1"></path>
  <path stroke="#191919" stroke-linecap="round" stroke-linejoin="round" d="M12.2393 15.3478h8.6087" stroke-width="1"></path>
  <path stroke="#191919" stroke-linecap="round" stroke-linejoin="round" d="M15.5869 18.2174h6.6957" stroke-width="1"></path>
  <path stroke="#191919" stroke-linecap="round" stroke-linejoin="round" d="M17.0215 21.087h3.3478" stroke-width="1"></path>
  <path stroke="#191919" stroke-linecap="round" stroke-linejoin="round" d="M15.1084 23h1.913" stroke-width="1"></path>
</svg>