<svg xmlns="http://www.w3.org/2000/svg" fill="none" viewBox="0 0 24 24" id="Weather-Cloud-Snow-Thunder--Streamline-Ultimate">
  <desc>
    Weather Cloud Snow Thunder Streamline Icon: https://streamlinehq.com
  </desc>
  <path stroke="#191919" stroke-linecap="round" stroke-linejoin="round" d="m13.4504 18.1502 -2.4172 2.4171h2.4172l-2.4172 2.4172" stroke-width="1"></path>
  <path stroke="#191919" stroke-linecap="round" stroke-linejoin="round" d="M6.19873 19.616c0.06411 0 0.12559 0.0254 0.17092 0.0708 0.04533 0.0453 0.0708 0.1068 0.0708 0.1709" stroke-width="1"></path>
  <path stroke="#191919" stroke-linecap="round" stroke-linejoin="round" d="M5.95703 19.8577c0 -0.0641 0.02547 -0.1256 0.0708 -0.1709 0.04533 -0.0454 0.10681 -0.0708 0.17092 -0.0708" stroke-width="1"></path>
  <path stroke="#191919" stroke-linecap="round" stroke-linejoin="round" d="M6.19875 20.0994c-0.06411 0 -0.12559 -0.0255 -0.17092 -0.0708 -0.04533 -0.0453 -0.0708 -0.1068 -0.0708 -0.1709" stroke-width="1"></path>
  <path stroke="#191919" stroke-linecap="round" stroke-linejoin="round" d="M6.44045 19.8577c0 0.0641 -0.02547 0.1256 -0.0708 0.1709 -0.04533 0.0453 -0.10681 0.0708 -0.17092 0.0708" stroke-width="1"></path>
  <path stroke="#191919" stroke-linecap="round" stroke-linejoin="round" d="M8.13232 18.1656c0.06411 0 0.12559 0.0255 0.17092 0.0708 0.04533 0.0454 0.0708 0.1069 0.0708 0.171" stroke-width="1"></path>
  <path stroke="#191919" stroke-linecap="round" stroke-linejoin="round" d="M7.89062 18.4074c0.00001 -0.0641 0.02547 -0.1256 0.0708 -0.171 0.04533 -0.0453 0.10681 -0.0708 0.17092 -0.0708" stroke-width="1"></path>
  <path stroke="#191919" stroke-linecap="round" stroke-linejoin="round" d="M8.13234 18.6491c-0.06411 0 -0.12559 -0.0255 -0.17092 -0.0708 -0.04533 -0.0453 -0.07079 -0.1068 -0.0708 -0.1709" stroke-width="1"></path>
  <path stroke="#191919" stroke-linecap="round" stroke-linejoin="round" d="M8.37404 18.4074c0 0.0641 -0.02547 0.1256 -0.0708 0.1709 -0.04533 0.0453 -0.10681 0.0708 -0.17092 0.0708" stroke-width="1"></path>
  <path stroke="#191919" stroke-linecap="round" stroke-linejoin="round" d="M8.13232 21.0663c0.06411 0 0.12559 0.0254 0.17092 0.0707 0.04533 0.0454 0.0708 0.1069 0.0708 0.171" stroke-width="1"></path>
  <path stroke="#191919" stroke-linecap="round" stroke-linejoin="round" d="M7.89062 21.308c0.00001 -0.0641 0.02547 -0.1256 0.0708 -0.171 0.04533 -0.0453 0.10681 -0.0707 0.17092 -0.0707" stroke-width="1"></path>
  <path stroke="#191919" stroke-linecap="round" stroke-linejoin="round" d="M8.13234 21.5497c-0.06411 0 -0.12559 -0.0255 -0.17092 -0.0708 -0.04533 -0.0453 -0.07079 -0.1068 -0.0708 -0.1709" stroke-width="1"></path>
  <path stroke="#191919" stroke-linecap="round" stroke-linejoin="round" d="M8.37404 21.308c0 0.0641 -0.02547 0.1256 -0.0708 0.1709 -0.04533 0.0453 -0.10681 0.0708 -0.17092 0.0708" stroke-width="1"></path>
  <path stroke="#191919" stroke-linecap="round" stroke-linejoin="round" d="M6.19873 22.5166c0.06411 0 0.12559 0.0254 0.17092 0.0708 0.04533 0.0453 0.0708 0.1068 0.0708 0.1709" stroke-width="1"></path>
  <path stroke="#191919" stroke-linecap="round" stroke-linejoin="round" d="M5.95703 22.7583c0 -0.0641 0.02547 -0.1256 0.0708 -0.1709 0.04533 -0.0454 0.10681 -0.0708 0.17092 -0.0708" stroke-width="1"></path>
  <path stroke="#191919" stroke-linecap="round" stroke-linejoin="round" d="M6.19875 23c-0.06411 0 -0.12559 -0.0255 -0.17092 -0.0708 -0.04533 -0.0453 -0.0708 -0.1068 -0.0708 -0.1709" stroke-width="1"></path>
  <path stroke="#191919" stroke-linecap="round" stroke-linejoin="round" d="M6.44045 22.7583c0 0.0641 -0.02547 0.1256 -0.0708 0.1709 -0.04533 0.0453 -0.10681 0.0708 -0.17092 0.0708" stroke-width="1"></path>
  <path stroke="#191919" stroke-linecap="round" stroke-linejoin="round" d="M15.8677 18.1656c0.0317 0 0.0632 0.0063 0.0925 0.0184 0.0293 0.0122 0.056 0.03 0.0784 0.0524 0.0224 0.0225 0.0402 0.0491 0.0524 0.0785 0.0121 0.0293 0.0184 0.0607 0.0184 0.0925" stroke-width="1"></path>
  <path stroke="#191919" stroke-linecap="round" stroke-linejoin="round" d="M15.626 18.4074c0 -0.0641 0.0254 -0.1256 0.0708 -0.171 0.0453 -0.0453 0.1068 -0.0708 0.1709 -0.0708" stroke-width="1"></path>
  <path stroke="#191919" stroke-linecap="round" stroke-linejoin="round" d="M15.8677 18.6491c-0.0641 0 -0.1256 -0.0255 -0.1709 -0.0708 -0.0454 -0.0453 -0.0708 -0.1068 -0.0708 -0.1709" stroke-width="1"></path>
  <path stroke="#191919" stroke-linecap="round" stroke-linejoin="round" d="M16.1094 18.4074c0 0.0641 -0.0255 0.1256 -0.0708 0.1709 -0.0453 0.0453 -0.1068 0.0708 -0.1709 0.0708" stroke-width="1"></path>
  <path stroke="#191919" stroke-linecap="round" stroke-linejoin="round" d="M15.8677 21.0663c0.0317 0 0.0632 0.0062 0.0925 0.0184 0.0293 0.0121 0.056 0.0299 0.0784 0.0523 0.0224 0.0225 0.0402 0.0491 0.0524 0.0785 0.0121 0.0293 0.0184 0.0607 0.0184 0.0925" stroke-width="1"></path>
  <path stroke="#191919" stroke-linecap="round" stroke-linejoin="round" d="M15.626 21.308c0 -0.0641 0.0254 -0.1256 0.0708 -0.171 0.0453 -0.0453 0.1068 -0.0707 0.1709 -0.0707" stroke-width="1"></path>
  <path stroke="#191919" stroke-linecap="round" stroke-linejoin="round" d="M15.8677 21.5497c-0.0641 0 -0.1256 -0.0255 -0.1709 -0.0708 -0.0454 -0.0453 -0.0708 -0.1068 -0.0708 -0.1709" stroke-width="1"></path>
  <path stroke="#191919" stroke-linecap="round" stroke-linejoin="round" d="M16.1094 21.308c0 0.0641 -0.0255 0.1256 -0.0708 0.1709 -0.0453 0.0453 -0.1068 0.0708 -0.1709 0.0708" stroke-width="1"></path>
  <path stroke="#191919" stroke-linecap="round" stroke-linejoin="round" d="M17.8013 19.616c0.0641 0 0.1256 0.0254 0.1709 0.0708 0.0453 0.0453 0.0708 0.1068 0.0708 0.1709" stroke-width="1"></path>
  <path stroke="#191919" stroke-linecap="round" stroke-linejoin="round" d="M17.5596 19.8577c0 -0.0641 0.0254 -0.1256 0.0708 -0.1709 0.0453 -0.0454 0.1068 -0.0708 0.1709 -0.0708" stroke-width="1"></path>
  <path stroke="#191919" stroke-linecap="round" stroke-linejoin="round" d="M17.8013 20.0994c-0.0641 0 -0.1256 -0.0255 -0.1709 -0.0708 -0.0454 -0.0453 -0.0708 -0.1068 -0.0708 -0.1709" stroke-width="1"></path>
  <path stroke="#191919" stroke-linecap="round" stroke-linejoin="round" d="M18.043 19.8577c0 0.0641 -0.0255 0.1256 -0.0708 0.1709 -0.0453 0.0453 -0.1068 0.0708 -0.1709 0.0708" stroke-width="1"></path>
  <path stroke="#191919" stroke-linecap="round" stroke-linejoin="round" d="M17.8013 22.5166c0.0641 0 0.1256 0.0254 0.1709 0.0708 0.0453 0.0453 0.0708 0.1068 0.0708 0.1709" stroke-width="1"></path>
  <path stroke="#191919" stroke-linecap="round" stroke-linejoin="round" d="M17.5596 22.7583c0 -0.0641 0.0254 -0.1256 0.0708 -0.1709 0.0453 -0.0454 0.1068 -0.0708 0.1709 -0.0708" stroke-width="1"></path>
  <path stroke="#191919" stroke-linecap="round" stroke-linejoin="round" d="M17.8013 23c-0.0641 0 -0.1256 -0.0255 -0.1709 -0.0708 -0.0454 -0.0453 -0.0708 -0.1068 -0.0708 -0.1709" stroke-width="1"></path>
  <path stroke="#191919" stroke-linecap="round" stroke-linejoin="round" d="M18.043 22.7583c0 0.0641 -0.0255 0.1256 -0.0708 0.1709 -0.0453 0.0453 -0.1068 0.0708 -0.1709 0.0708" stroke-width="1"></path>
  <path fill="#e3e3e3" d="M19.973 8.43996c0.2023 -0.46882 0.2772 -0.98271 0.2172 -1.48976s-0.2528 -0.98928 -0.5588 -1.39795c-0.3061 -0.40868 -0.7146 -0.72933 -1.1843 -0.92954 -0.4697 -0.20022 -0.9839 -0.2729 -1.4907 -0.21071 -0.4296 -1.12296 -1.2277 -2.06683 -2.2636 -2.67715 -1.036 -0.61032 -2.2484 -0.850933 -3.4388 -0.68247 -1.1905 0.16846 -2.28856 0.73603 -3.11447 1.60981 -0.8259 0.87379 -1.33075 2.00203 -1.43194 3.20011 -1.22963 0.12989 -2.36307 0.72499 -3.16818 1.66343 -0.80511 0.93843 -1.22096 2.14918 -1.16238 3.38427 0.05857 1.2351 0.58715 2.401 1.47746 3.2591 0.89032 0.858 2.075 1.3431 3.3114 1.3561H17.8014c0.8272 -0.0048 1.6313 -0.2735 2.2951 -0.7671 0.6639 -0.4935 1.1528 -1.1861 1.3956 -1.9769 0.2427 -0.7908 0.2267 -1.6385 -0.0459 -2.4195 -0.2725 -0.78102 -0.7873 -1.45463 -1.4693 -1.9227l-0.0039 0.00096Z" stroke-width="1"></path>
  <path fill="#b2b2b2" d="M17.8013 11.6644H7.16574c-0.93934 -0.0029 -1.85747 -0.2794 -2.64218 -0.7957 -0.7847 -0.5164 -1.40199 -1.25013 -1.7764 -2.11162 -0.32381 0.73455 -0.45914 1.53832 -0.39371 2.33842 0.06542 0.8001 0.32953 1.5712 0.76838 2.2434 0.43884 0.6721 1.03853 1.2242 1.7447 1.6059 0.70616 0.3818 1.49645 0.5813 2.29921 0.5803H17.7935c0.6803 -0.0014 1.3482 -0.182 1.9365 -0.5235 0.5884 -0.3415 1.0764 -0.8318 1.4151 -1.4218 0.3387 -0.5899 0.5161 -1.2587 0.5143 -1.9389 -0.0018 -0.6803 -0.1826 -1.3481 -0.5244 -1.93629 -0.3333 0.59179 -0.8172 1.08489 -1.4028 1.42909 -0.5855 0.3442 -1.2517 0.5274 -1.9309 0.5307Z" stroke-width="1"></path>
  <path stroke="#191919" stroke-linecap="round" stroke-linejoin="round" d="M19.973 8.43996c0.2023 -0.46882 0.2772 -0.98271 0.2172 -1.48976s-0.2528 -0.98928 -0.5588 -1.39795c-0.3061 -0.40868 -0.7146 -0.72933 -1.1843 -0.92954 -0.4697 -0.20022 -0.9839 -0.2729 -1.4907 -0.21071 -0.4296 -1.12296 -1.2277 -2.06683 -2.2636 -2.67715 -1.036 -0.61032 -2.2484 -0.850933 -3.4388 -0.68247 -1.1905 0.16846 -2.28856 0.73603 -3.11447 1.60981 -0.8259 0.87379 -1.33075 2.00203 -1.43194 3.20011 -1.22963 0.12989 -2.36307 0.72499 -3.16818 1.66343 -0.80511 0.93843 -1.22096 2.14918 -1.16238 3.38427 0.05857 1.2351 0.58715 2.401 1.47746 3.2591 0.89032 0.858 2.075 1.3431 3.3114 1.3561H17.8014c0.8272 -0.0048 1.6313 -0.2735 2.2951 -0.7671 0.6639 -0.4935 1.1528 -1.1861 1.3956 -1.9769 0.2427 -0.7908 0.2267 -1.6385 -0.0459 -2.4195 -0.2725 -0.78102 -0.7873 -1.45463 -1.4693 -1.9227l-0.0039 0.00096Z" stroke-width="1"></path>
</svg>