<svg xmlns="http://www.w3.org/2000/svg" fill="none" viewBox="0 0 24 24" id="Weather-Cloud-Wind-4--Streamline-Ultimate">
  <desc>
    Weather Cloud Wind 4 Streamline Icon: https://streamlinehq.com
  </desc>
  <path fill="#ffffff" d="M18.5077 15.9916c0.8561 -0.0002 1.6896 -0.2746 2.3782 -0.7832 0.6887 -0.5085 1.1963 -1.2243 1.4483 -2.0424 0.2521 -0.8182 0.2354 -1.6955 -0.0477 -2.5034 -0.283 -0.80794 -0.8175 -1.5039 -1.5251 -1.98581 0.2104 -0.48586 0.2886 -1.01868 0.2267 -1.54448 -0.0619 -0.5258 -0.2617 -1.02591 -0.5791 -1.44964 -0.3174 -0.42373 -0.7412 -0.75603 -1.2284 -0.96323 -0.4872 -0.20721 -1.0205 -0.28196 -1.5459 -0.21667 -0.4514 -1.15538 -1.2797 -2.12451 -2.3506 -2.7504 -1.071 -0.62588 -2.3219 -0.871841 -3.5501 -0.69804 -1.2282 0.1738 -2.36169 0.75718 -3.21693 1.65564 -0.85524 0.89845 -1.38208 2.05935 -1.49517 3.2946 -1.27571 0.12787 -2.45374 0.74033 -3.29121 1.71112 -0.83747 0.97078 -1.27055 2.22589 -1.20995 3.50651 0.0606 1.2807 0.61025 2.4893 1.53565 3.3767s2.15599 1.3859 3.43808 1.3927H18.5077Z" stroke-width="1"></path>
  <path fill="#e3e3e3" d="M18.5075 12.4723H7.49425c-1.01898 -0.0015 -2.01311 -0.3147 -2.84891 -0.8976 -0.83579 -0.5829 -1.47322 -1.4076 -1.82671 -2.3633 -0.29003 0.75726 -0.39129 1.5738 -0.29504 2.3789 0.09625 0.8052 0.38712 1.5748 0.84747 2.2424 0.46035 0.6675 1.07634 1.213 1.79473 1.5891 0.71839 0.3761 1.51756 0.5717 2.32846 0.5698H18.5075c0.6812 0.0019 1.3515 -0.1705 1.9473 -0.5007 0.5957 -0.3302 1.0971 -0.8073 1.4565 -1.3859 0.3594 -0.5786 0.5649 -1.2396 0.5968 -1.92 0.0319 -0.6804 -0.1107 -1.3576 -0.4143 -1.9674 -0.3259 0.6746 -0.8351 1.2438 -1.4693 1.6425 -0.6342 0.3987 -1.3678 0.6109 -2.117 0.6122Z" stroke-width="1"></path>
  <path fill="#e3e3e3" d="M7.49463 20.9976c0 0.396 0.11744 0.7832 0.33747 1.1125 0.22002 0.3293 0.53276 0.5859 0.89865 0.7375 0.36589 0.1515 0.76851 0.1912 1.15694 0.1139 0.38841 -0.0772 0.74521 -0.268 1.02531 -0.548 0.28 -0.28 0.4707 -0.6368 0.548 -1.0253 0.0772 -0.3884 0.0376 -0.791 -0.114 -1.1569 -0.1515 -0.3659 -0.4082 -0.6786 -0.7375 -0.8987 -0.3293 -0.22 -0.71642 -0.3374 -1.11246 -0.3374H7.49463v2.0024Z" stroke-width="1"></path>
  <path fill="#e3e3e3" d="M13.5019 16.9928c0.3961 0 0.7832 -0.1175 1.1125 -0.3375 0.3293 -0.22 0.5859 -0.5328 0.7375 -0.8987 0.1516 -0.3658 0.1912 -0.7685 0.114 -1.1569 -0.0773 -0.3884 -0.268 -0.7452 -0.5481 -1.0253 -0.28 -0.28 -0.6368 -0.4707 -1.0252 -0.548 -0.3885 -0.0772 -0.7911 -0.0376 -1.157 0.114 -0.3659 0.1515 -0.6786 0.4082 -0.8986 0.7375 -0.22 0.3293 -0.3375 0.7164 -0.3375 1.1125v2.0024h2.0024Z" stroke-width="1"></path>
  <path stroke="#191919" stroke-linecap="round" stroke-linejoin="round" d="M1.4873 16.9928h12.0145c0.396 0 0.7831 -0.1175 1.1124 -0.3375 0.3293 -0.22 0.586 -0.5328 0.7375 -0.8987 0.1516 -0.3658 0.1913 -0.7685 0.114 -1.1569 -0.0773 -0.3884 -0.268 -0.7452 -0.548 -1.0253 -0.2801 -0.28 -0.6369 -0.4707 -1.0253 -0.548 -0.3884 -0.0772 -0.791 -0.0376 -1.1569 0.114 -0.3659 0.1515 -0.6787 0.4082 -0.8987 0.7375 -0.22 0.3293 -0.3375 0.7164 -0.3375 1.1125" stroke-width="1"></path>
  <path stroke="#191919" stroke-linecap="round" stroke-linejoin="round" d="M7.49453 20.9976c0 0.396 0.11744 0.7832 0.33747 1.1125 0.22003 0.3293 0.53276 0.5859 0.89865 0.7375 0.36589 0.1515 0.76851 0.1912 1.15694 0.1139 0.38841 -0.0772 0.74521 -0.268 1.02531 -0.548 0.28 -0.28 0.4707 -0.6368 0.548 -1.0253 0.0772 -0.3884 0.0376 -0.791 -0.114 -1.1569 -0.1515 -0.3659 -0.4082 -0.6786 -0.7375 -0.8987 -0.3293 -0.22 -0.71642 -0.3374 -1.11246 -0.3374H1.4873" stroke-width="1"></path>
  <path stroke="#191919" stroke-linecap="round" stroke-linejoin="round" d="M17.5064 15.9916h1.0012c0.8561 -0.0002 1.6896 -0.2746 2.3783 -0.7832 0.6886 -0.5085 1.1962 -1.2243 1.4483 -2.0424 0.252 -0.8182 0.2353 -1.6955 -0.0478 -2.5034 -0.283 -0.80794 -0.8175 -1.5039 -1.5251 -1.98581 0.2104 -0.48586 0.2886 -1.01868 0.2267 -1.54448 -0.0619 -0.5258 -0.2617 -1.02591 -0.5791 -1.44964 -0.3174 -0.42373 -0.7412 -0.75603 -1.2284 -0.96323 -0.4872 -0.20721 -1.0205 -0.28196 -1.5459 -0.21667 -0.4514 -1.15538 -1.2797 -2.12451 -2.3506 -2.7504 -1.071 -0.62588 -2.3219 -0.871841 -3.55 -0.69804 -1.2282 0.1738 -2.36176 0.75718 -3.217 1.65564 -0.85524 0.89845 -1.38208 2.05935 -1.49518 3.2946 -1.00729 0.09312 -1.9625 0.49012 -2.73906 1.13839 -0.77656 0.64827 -1.3378 1.51721 -1.60934 2.49167 -0.27155 0.97447 -0.24058 2.00837 0.0888 2.96487 0.32938 0.9565 0.94162 1.7903 1.75559 2.3909" stroke-width="1"></path>
</svg>