<svg xmlns="http://www.w3.org/2000/svg" fill="none" viewBox="0 0 24 24" id="Email-Action-Add--Streamline-Ultimate">
  <desc>
    Email Action Add Streamline Icon: https://streamlinehq.com
  </desc>
  <path stroke="#000000" stroke-linecap="round" stroke-linejoin="round" d="M11.25 17.25c0 1.5913 0.6321 3.1174 1.7574 4.2426 1.1252 1.1253 2.6513 1.7574 4.2426 1.7574 1.5913 0 3.1174 -0.6321 4.2426 -1.7574 1.1253 -1.1252 1.7574 -2.6513 1.7574 -4.2426 0 -1.5913 -0.6321 -3.1174 -1.7574 -4.2426 -1.1252 -1.1253 -2.6513 -1.7574 -4.2426 -1.7574 -1.5913 0 -3.1174 0.6321 -4.2426 1.7574 -1.1253 1.1252 -1.7574 2.6513 -1.7574 4.2426Z" stroke-width="1"></path>
  <path stroke="#000000" stroke-linecap="round" stroke-linejoin="round" d="M17.25 14.25v6" stroke-width="1"></path>
  <path stroke="#000000" stroke-linecap="round" stroke-linejoin="round" d="M14.25 17.25h6" stroke-width="1"></path>
  <path stroke="#000000" stroke-linecap="round" stroke-linejoin="round" d="M8.25 15.75h-6c-0.39782 0 -0.77936 -0.158 -1.06066 -0.4393C0.908035 15.0294 0.75 14.6478 0.75 14.25v-12c0 -0.39782 0.158035 -0.77936 0.43934 -1.06066C1.47064 0.908035 1.85218 0.75 2.25 0.75h18c0.3978 0 0.7794 0.158035 1.0607 0.43934 0.2813 0.2813 0.4393 0.66284 0.4393 1.06066V9" stroke-width="1"></path>
  <path stroke="#000000" stroke-linecap="round" stroke-linejoin="round" d="m21.411 1.30005 -8.144 6.264c-0.5783 0.44486 -1.2874 0.68606 -2.017 0.68606 -0.7296 0 -1.43873 -0.2412 -2.01701 -0.68606l-8.144 -6.264" stroke-width="1"></path>
</svg>