<svg xmlns="http://www.w3.org/2000/svg" fill="none" viewBox="0 0 24 24" id="Envelope-Sealed--Streamline-Ultimate">
  <desc>
    Envelope Sealed Streamline Icon: https://streamlinehq.com
  </desc>
  <path stroke="#000000" stroke-linecap="round" stroke-linejoin="round" d="M6 0.75h12s1.5 0 1.5 1.5v19.5s0 1.5 -1.5 1.5H6s-1.5 0 -1.5 -1.5V2.25S4.5 0.75 6 0.75Z" stroke-width="1"></path>
  <path stroke="#000000" stroke-linecap="round" stroke-linejoin="round" d="M12 5.25v13.5" stroke-width="1"></path>
  <path stroke="#000000" stroke-linecap="round" stroke-linejoin="round" d="M19.5 2.25c0 0.79565 -0.3161 1.55871 -0.8787 2.12132 -0.5626 0.56261 -1.3257 0.87868 -2.1213 0.87868h-9c-0.79565 0 -1.55871 -0.31607 -2.12132 -0.87868C4.81607 3.80871 4.5 3.04565 4.5 2.25" stroke-width="1"></path>
  <path stroke="#000000" stroke-linecap="round" stroke-linejoin="round" d="M4.5 21.75c0 -0.7956 0.31607 -1.5587 0.87868 -2.1213 0.56261 -0.5626 1.32567 -0.8787 2.12132 -0.8787h9c0.7956 0 1.5587 0.3161 2.1213 0.8787 0.5626 0.5626 0.8787 1.3257 0.8787 2.1213" stroke-width="1"></path>
</svg>