<svg xmlns="http://www.w3.org/2000/svg" viewBox="0 0 14 14">
  <g>
    <path d="M10.07,11.66a7.51,7.51,0,0,1,2.48,1.79" style="fill: none;stroke: #000001;stroke-linecap: round;stroke-linejoin: round"/>
    <line x1="0.5" y1="13.5" x2="13.5" y2="0.5" style="fill: none;stroke: #000001;stroke-linecap: round;stroke-linejoin: round"/>
    <path d="M11.48,2.52A6,6,0,1,0,3,11" style="fill: none;stroke: #000001;stroke-linecap: round;stroke-linejoin: round"/>
    <path d="M5.47,12.3A5.94,5.94,0,0,0,7,12.5a6,6,0,0,0,6-6,5.94,5.94,0,0,0-.51-2.43" style="fill: none;stroke: #000001;stroke-linecap: round;stroke-linejoin: round"/>
    <path d="M9.36,4.64A3,3,0,1,0,5.14,8.86" style="fill: none;stroke: #000001;stroke-linecap: round;stroke-linejoin: round"/>
    <path d="M8.07,9.3A3,3,0,0,0,9.79,7.59" style="fill: none;stroke: #000001;stroke-linecap: round;stroke-linejoin: round"/>
  </g>
</svg>
