<svg xmlns="http://www.w3.org/2000/svg" fill="none" viewBox="0 0 14 14" id="Beer-Pitch--Streamline-Core">
  <desc>
    Beer Pitch Streamline Icon: https://streamlinehq.com
  </desc>
  <g id="beer-pitch--drink-glass-beer-pitch">
    <path id="Union" fill="#8fbffa" fill-rule="evenodd" d="M1.77551 6.06329c0 -0.27614 0.22386 -0.5 0.5 -0.5H10.078c0.2274 0 0.4193 0.1518 0.48 0.3596 0.0025 -0.00003 0.005 -0.00004 0.0076 -0.00004h1.5906c0.9665 0 1.75 0.7835 1.75 1.75v2.38885c0 0.9665 -0.7835 1.75 -1.75 1.75h-1.5906l-0.0069 0C10.4053 13.0453 9.35315 14 8.07798 14H4.27551c-1.38071 0 -2.5 -1.1193 -2.5 -2.5V6.06329ZM10.578 10.3117h1.5782c0.1381 0 0.25 -0.1119 0.25 -0.25V7.67285c0 -0.13807 -0.1119 -0.25 -0.25 -0.25H10.578v2.88885Z" clip-rule="evenodd" stroke-width="1"></path>
    <path id="Union_2" fill="#2859c5" fill-rule="evenodd" d="M1.77724 6.27943C1.02165 5.9166 0.5 5.14422 0.5 4.25 0.5 3.00736 1.50736 2 2.75 2c0.27276 0 0.53418 0.04853 0.7761 0.13744C3.70172 0.928547 4.74242 0 6 0s2.29828 0.928548 2.4739 2.13744C8.71582 2.04854 8.97724 2 9.25 2c1.2426 0 2.25 1.00736 2.25 2.25S10.4926 6.5 9.25 6.5c-0.00185 0 -0.00369 0 -0.00554 -0.00001H4.50001v2.13862c0 0.75187 -0.60951 1.36138 -1.36139 1.36138 -0.75187 0 -1.36138 -0.60951 -1.36138 -1.36138V6.27943Z" clip-rule="evenodd" stroke-width="1"></path>
  </g>
</svg>