<svg xmlns="http://www.w3.org/2000/svg" fill="none" viewBox="0 0 14 14" id="Beer-Mug--Streamline-Core">
  <desc>
    Beer Mug Streamline Icon: https://streamlinehq.com
  </desc>
  <g id="beer-mug--beer-cook-brewery-drink-mug-cooking-nutrition-brew-brewing-food">
    <path id="Union" fill="#8fbffa" fill-rule="evenodd" d="M0.414 0.45A1.42 1.42 0 0 1 1.446 0h7.566c0.393 0 0.764 0.165 1.032 0.45 0.268 0.282 0.414 0.66 0.414 1.05v0.75h1.777A1.75 1.75 0 0 1 13.986 4v4.5a1.75 1.75 0 0 1 -1.75 1.75h-1.777v1.25a2.56 2.56 0 0 1 -0.69 1.758A2.341 2.341 0 0 1 8.066 14H2.392c-0.644 0 -1.255 -0.27 -1.701 -0.742A2.56 2.56 0 0 1 0 11.5v-10C0 1.11 0.146 0.732 0.414 0.45Zm10.044 8.3h1.777a0.25 0.25 0 0 0 0.25 -0.25V4a0.25 0.25 0 0 0 -0.25 -0.25h-1.777v5Z" clip-rule="evenodd" stroke-width="1"></path>
    <path id="Union_2" fill="#2859c5" fill-rule="evenodd" d="M3.802 4a0.625 0.625 0 1 0 -1.25 0v5.5a0.625 0.625 0 1 0 1.25 0V4Zm4.104 0a0.625 0.625 0 1 0 -1.25 0v5.5a0.625 0.625 0 1 0 1.25 0V4Z" clip-rule="evenodd" stroke-width="1"></path>
  </g>
</svg>