<svg xmlns="http://www.w3.org/2000/svg" fill="none" viewBox="0 0 14 14" id="Coffee-Takeaway-Cup--Streamline-Core">
  <desc>
    Coffee Takeaway Cup Streamline Icon: https://streamlinehq.com
  </desc>
  <g id="coffee-takeaway-cup--cup-coffee-hot-takeaway-drink-caffeine">
    <path id="Union" fill="#8fbffa" fill-rule="evenodd" d="M3.5 0c-0.21522 0 -0.40628 0.137715 -0.47434 0.341886l-1 3.000004C2.00866 3.39287 2 3.44626 2 3.5V7c0 0.02545 0.00194 0.05087 0.00581 0.07603l1 6.49997c0.03753 0.2439 0.2474 0.424 0.49419 0.424h7c0.2468 0 0.4567 -0.1801 0.4942 -0.424l1 -6.49997C11.9981 7.05087 12 7.02545 12 7V3.5c0 -0.05374 -0.0087 -0.10713 -0.0257 -0.15811l-1 -3.000004C10.9063 0.137715 10.7152 0 10.5 0h-7Z" clip-rule="evenodd" stroke-width="1"></path>
    <path id="Vector" fill="#2859c5" d="M11.8848 3.16347H2.11525c-0.5995 0 -1.0855 0.42133 -1.0855 0.94108v2.38216c0 0.51975 0.486 0.94109 1.0855 0.94109h9.76955c0.5995 0 1.0855 -0.42134 1.0855 -0.94109V4.10455c0 -0.51975 -0.486 -0.94108 -1.0855 -0.94108Z" stroke-width="1"></path>
  </g>
</svg>