<svg xmlns="http://www.w3.org/2000/svg" fill="none" viewBox="0 0 14 14" id="Pork-Meat--Streamline-Core">
  <desc>
    Pork Meat Streamline Icon: https://streamlinehq.com
  </desc>
  <g id="pork-meat">
    <path id="Union" fill="#8fbffa" fill-rule="evenodd" d="M2.24786 0.548575c-0.15491 -0.073772 -0.33683 -0.062959 -0.48192 0.028644C1.62086 0.668822 1.53288 0.82842 1.53288 1v3.01935c0 0.15957 -0.07946 0.35087 -0.2401 0.54744C0.807653 5.16042 0.125 6.36153 0.125 8.38267c0 1.84193 0.865169 3.15033 2.17911 3.97483C3.59159 13.1654 5.28935 13.5 7 13.5c1.71065 0 3.4084 -0.3346 4.6959 -1.1425 1.3139 -0.8245 2.1791 -2.1329 2.1791 -3.97483 0 -2.02114 -0.6827 -3.22225 -1.1678 -3.81588 -0.1606 -0.19657 -0.2401 -0.38787 -0.2401 -0.54744V1c0 -0.17158 -0.088 -0.331178 -0.233 -0.422781 -0.1451 -0.091603 -0.327 -0.102416 -0.482 -0.028644L8.75856 1.97417l-0.02997 -0.00654c-0.12435 -0.02702 -0.29708 -0.06308 -0.49062 -0.09921C7.86293 1.7984 7.36784 1.71986 7 1.71986c-0.36784 0 -0.86293 0.07854 -1.23797 0.14856 -0.19354 0.03613 -0.36627 0.07219 -0.49062 0.09921l-0.02997 0.00654L2.24786 0.548575Z" clip-rule="evenodd" stroke-width="1"></path>
    <path id="Union_2" fill="#2859c5" fill-rule="evenodd" d="M3.5625 5.625c0 0.34518 0.27982 0.625 0.625 0.625s0.625 -0.27982 0.625 -0.625S4.53268 5 4.1875 5s-0.625 0.27982 -0.625 0.625Zm6.375 3.34375C9.9375 10.3125 8.62234 11.125 7 11.125s-2.9375 -0.75 -2.9375 -2.15625S5.37766 6.8125 7 6.8125s2.9375 0.8125 2.9375 2.15625Zm0.5 -3.34375c0 0.34518 -0.2798 0.625 -0.625 0.625 -0.34518 0 -0.625 -0.27982 -0.625 -0.625S9.46732 5 9.8125 5c0.3452 0 0.625 0.27982 0.625 0.625Z" clip-rule="evenodd" stroke-width="1"></path>
    <path id="Union_3" fill="#8fbffa" fill-rule="evenodd" d="M6 8.46875c0.34518 0 0.625 0.27982 0.625 0.625s-0.27982 0.625 -0.625 0.625 -0.625 -0.27982 -0.625 -0.625 0.27982 -0.625 0.625 -0.625Zm2.625 0.625c0 0.34518 -0.27982 0.625 -0.625 0.625s-0.625 -0.27982 -0.625 -0.625 0.27982 -0.625 0.625 -0.625 0.625 0.27982 0.625 0.625Z" clip-rule="evenodd" stroke-width="1"></path>
  </g>
</svg>