<svg xmlns="http://www.w3.org/2000/svg" fill="none" viewBox="0 0 14 14" id="Water-Glass--Streamline-Core">
  <desc>
    Water Glass Streamline Icon: https://streamlinehq.com
  </desc>
  <g id="water-glass--glass-water-juice-drink-liquid">
    <path id="Union" fill="#8fbffa" fill-rule="evenodd" d="M1.7342 0.0268097c-0.21371 0 -0.41726 0.0911633 -0.55956 0.2506013 -0.1423 0.159437 -0.209821 0.372006 -0.185619 0.584334L2.21466 11.6148c0.07551 0.6524 0.38927 1.2539 0.88108 1.6892 0.49114 0.4346 1.12531 0.6729 1.7811 0.6692h4.22711c0.65579 0.0037 1.28995 -0.2346 1.78115 -0.6692 0.4918 -0.4353 0.8055 -1.0368 0.881 -1.6892L13.0108 0.863055c0.0246 -0.212514 -0.0428 -0.425418 -0.1851 -0.585152 -0.1423 -0.159734 -0.346 -0.2510933 -0.56 -0.2510933H1.7342Z" clip-rule="evenodd" stroke-width="1"></path>
    <path id="Subtract" fill="#2859c5" d="m2.9408 4.74014 0.76391 6.70216c0.03313 0.285 0.17031 0.5483 0.38513 0.7384 0.21498 0.1902 0.49264 0.2944 0.7797 0.2925l0.00498 0 4.23674 0c0.28706 0.0019 0.56472 -0.1023 0.77969 -0.2925 0.21495 -0.1903 0.35215 -0.4532 0.38515 -0.7384l0.7758 -6.70216H2.9408Z" stroke-width="1"></path>
  </g>
</svg>