<svg xmlns="http://www.w3.org/2000/svg" fill="none" viewBox="0 0 14 14"><g id="wine--drink-cook-glass-cooking-wine-nutrition-food"><path id="Union" fill="#37d7ff" fill-rule="evenodd" d="m2.224 1.533.004-.033c.063-.504.34-.852.557-1.044A1.68 1.68 0 0 1 3.899.028h6.195a1.68 1.68 0 0 1 1.12.426 1.686 1.686 0 0 1 .562 1.085c.105 1.057.162 2.518.162 2.961 0 1.429-.555 2.576-1.494 3.353-.74.613-1.68.964-2.694 1.078v3.475H9a.75.75 0 0 1 0 1.5H5a.75.75 0 1 1 0-1.5h1.25V8.931c-1.013-.114-1.954-.465-2.694-1.078C2.617 7.076 2.062 5.93 2.062 4.5c0-.441.057-1.953.162-2.967Z" clip-rule="evenodd"></path><path id="Intersect" fill="#3e3e3e" d="M10.49 3.57H3.51c-.015.348-.022.638-.022.78 0 2.045 1.56 3.122 3.512 3.122 1.951 0 3.512-1.077 3.512-3.122 0-.144-.007-.431-.023-.78Z"></path></g></svg>