<svg xmlns="http://www.w3.org/2000/svg" fill="none" viewBox="0 0 14 14" id="Hexagram--Streamline-Core-Remix">
  <desc>
    Hexagram Streamline Icon: https://streamlinehq.com
  </desc>
  <g id="Free Remix/Culture/hexagram--star-jew-jewish-judaism-hexagram-culture-religion-david">
    <path id="Union" fill="#000000" fill-rule="evenodd" d="M7.53383 0.298038C7.41987 0.112505 7.21774 -0.000549316 7 -0.000549316c-0.21774 0 -0.41986 0.113054316 -0.53383 0.298587316L4.69196 3.1864H1.12699c-0.22688 0 -0.43603 0.12266 -0.546783 0.32067 -0.110752 0.19801 -0.105799 0.44042 0.01295 0.63374L2.34943 6.99996 0.593157 9.85911c-0.118749 0.19329 -0.123702 0.43569 -0.01295 0.63379 0.110753 0.198 0.319903 0.3206 0.546783 0.3206l3.56497 0 1.77421 2.8884c0.11397 0.1855 0.31609 0.2986 0.53383 0.2986 0.21774 0 0.41987 -0.1131 0.53383 -0.2986l1.77422 -2.8884 3.56495 0c0.2269 0 0.436 -0.1226 0.5468 -0.3206 0.1107 -0.1981 0.1058 -0.4405 -0.013 -0.63379l-1.7562 -2.85915 1.7562 -2.85915c0.1188 -0.19332 0.1237 -0.43573 0.013 -0.63374 -0.1108 -0.19801 -0.3199 -0.32067 -0.5468 -0.32067H9.30805L7.53383 0.298038ZM7.83754 3.1864 7 1.82292 6.16247 3.1864h1.67507ZM5.3928 4.4394h3.21441l1.57289 2.56056 -1.57289 2.56056H5.3928L3.81994 6.99996 5.3928 4.4394Zm-1.47052 0h-1.6752l0.8376 1.36359 0.8376 -1.36359Zm-0.8376 3.75753 -0.8376 1.36359h1.6752l-0.8376 -1.36359Zm3.07779 2.61657L7 12.177l0.83753 -1.3635H6.16247Zm3.91523 -1.25297h1.6752l-0.8376 -1.36359 -0.8376 1.36359Zm0.8376 -3.75754 -0.8376 -1.36359h1.6752l-0.8376 1.36359Z" clip-rule="evenodd" stroke-width="1"></path>
  </g>
</svg>