<svg xmlns="http://www.w3.org/2000/svg" fill="none" viewBox="0 0 14 14" id="Hinduism--Streamline-Core-Remix">
  <desc>
    Hinduism Streamline Icon: https://streamlinehq.com
  </desc>
  <g id="Free Remix/Culture/hinduism--religion-hinduism-culture-hindu">
    <path id="Union" fill="#000000" fill-rule="evenodd" d="M2.90719 2.09199c0.38342 -0.29314 0.86165 -0.46699 1.38226 -0.46699 1.25837 0 2.27848 1.02011 2.27848 2.27848 0 0.39382 -0.09951 0.76354 -0.27498 1.08629 -0.46152 -0.16237 -0.95794 -0.2507 -1.47499 -0.2507 -0.34518 0 -0.625 0.27983 -0.625 0.625 0 0.34518 0.27982 0.625 0.625 0.625 1.76342 0 3.19296 1.42954 3.19296 3.19296 0 1.76347 -1.42954 3.19297 -3.19296 3.19297 -1.76342 0 -3.19296 -1.4295 -3.19296 -3.19297 0 -0.34517 -0.27982 -0.625 -0.625 -0.625 -0.345178 0 -0.625 0.27983 -0.625 0.625 0 2.45377 1.98918 4.44297 4.44296 4.44297s4.44296 -1.9892 4.44296 -4.44297c0 -0.81318 -0.21846 -1.57534 -0.5999 -2.23098 0.01999 -0.00496 0.04048 -0.00978 0.06149 -0.01443 0.28039 -0.06216 0.58372 -0.08083 0.8291 -0.06051 1.44249 0.11946 2.51499 1.38564 2.39549 2.82811 -0.0454 0.54888 -0.2561 1.04248 -0.579 1.43838 -0.2182 0.2675 -0.1783 0.6612 0.0891 0.8794 0.2675 0.2182 0.6612 0.1783 0.8794 -0.0892 0.4776 -0.5854 0.7893 -1.3169 0.8563 -2.12542 0.1764 -2.13046 -1.4077 -4.00057 -3.53813 -4.177 -0.37391 -0.03097 -0.8032 -0.00272 -1.2028 0.08586 -0.20188 0.04476 -0.41624 0.10932 -0.62037 0.20113 -0.13573 -0.12536 -0.2793 -0.24236 -0.42989 -0.35019 0.2655 -0.4958 0.41622 -1.06257 0.41622 -1.6637C7.81793 1.95475 6.23817 0.375 4.28945 0.375c-0.80447 0 -1.54767 0.269979 -2.14146 0.72395 -0.27422 0.20965 -0.32657 0.6019 -0.11692 0.87612 0.20965 0.27422 0.6019 0.32656 0.87612 0.11692Zm10.53481 0.83246c0.2441 0.24408 0.2441 0.63981 0 0.88388 -1.1996 1.19956 -3.1444 1.19956 -4.34396 0 -0.24408 -0.24407 -0.24408 -0.6398 0 -0.88388 0.24408 -0.24408 0.6398 -0.24408 0.88388 0 0.71138 0.7114 1.86478 0.7114 2.57618 0 0.2441 -0.24408 0.6398 -0.24408 0.8839 0ZM10.395 1.25c0 0.48325 0.3918 0.875 0.875 0.875 0.4833 0 0.875 -0.39175 0.875 -0.875 0 -0.483249 -0.3917 -0.875 -0.875 -0.875 -0.4832 0 -0.875 0.391751 -0.875 0.875Z" clip-rule="evenodd" stroke-width="1"></path>
  </g>
</svg>