<svg xmlns="http://www.w3.org/2000/svg" fill="none" viewBox="0 0 14 14" id="Politics-Vote-2--Streamline-Core-Remix">
  <desc>
    Politics Vote 2 Streamline Icon: https://streamlinehq.com
  </desc>
  <g id="Free Remix/Culture/politics-vote-2">
    <path id="Union" fill="#000000" fill-rule="evenodd" d="M5.92172 0.792893c0.39053 -0.390524 1.02369 -0.390524 1.41422 0L10.3401 3.79703c0.3905 0.39052 0.3905 1.02369 0 1.41421L8.07819 7.47313c-0.03768 0.03768 -0.07762 0.07172 -0.11937 0.10213H10c0.3452 0 0.625 0.27982 0.625 0.625 0 0.34517 -0.2798 0.625 -0.625 0.625H4c-0.34518 0 -0.625 -0.27983 -0.625 -0.625 0 -0.34518 0.27982 -0.625 0.625 -0.625h2.78334c-0.04175 -0.03041 -0.08169 -0.06445 -0.11937 -0.10213L3.65984 4.46899c-0.39053 -0.39052 -0.39053 -1.02368 0 -1.41421L5.92172 0.792893ZM0.5 7.13648V13c0 0.2761 0.223858 0.5 0.5 0.5h12c0.2761 0 0.5 -0.2239 0.5 -0.5V7.13647c0 -0.89746 -0.7275 -1.625 -1.625 -1.625h-0.6924c-0.3452 0 -0.625 0.27983 -0.625 0.625 0 0.34518 0.2798 0.625 0.625 0.625h0.6924c0.2071 0 0.375 0.1679 0.375 0.375v2.50251H1.75v-2.5025c0 -0.20711 0.16789 -0.37501 0.375 -0.37501h1.43458c0.34518 0 0.625 -0.27982 0.625 -0.625 0 -0.34517 -0.27982 -0.625 -0.625 -0.625H2.125c-0.89746 0 -1.625 0.72754 -1.625 1.62501Z" clip-rule="evenodd" stroke-width="1"></path>
  </g>
</svg>