<svg xmlns="http://www.w3.org/2000/svg" fill="none" viewBox="0 0 14 14" id="Zodiac-5--Streamline-Core-Remix">
  <desc>
    Zodiac 5 Streamline Icon: https://streamlinehq.com
  </desc>
  <g id="Free Remix/Culture/zodiac-5--sign-astrology-stars-space-taurus">
    <path id="Union" fill="#000000" fill-rule="evenodd" d="M3.23397 0.555406c-0.03793 -0.343088 -0.3468 -0.5904702 -0.68989 -0.55254376C2.20099 0.0407887 1.95361 0.349662 1.99154 0.69275c0.18384 1.66312 1.17641 3.08219 2.57579 3.85505 -1.55395 0.85826 -2.60639 2.51325 -2.60639 4.41406 0 2.78304 2.25609 5.03914 5.03912 5.03914 2.78303 0 5.03914 -2.2561 5.03914 -5.03914 0 -1.90086 -1.0525 -3.55589 -2.60654 -4.41413C10.832 3.77486 11.8245 2.35582 12.0083 0.69275c0.038 -0.343088 -0.2094 -0.6519613 -0.5525 -0.68988776 -0.3431 -0.03792644 -0.652 0.20945576 -0.6899 0.55254376C10.5565 2.44928 8.94988 3.92274 6.99993 3.92274c-1.94995 0 -3.55661 -1.47346 -3.76596 -3.367334ZM3.21094 8.96186c0 -2.09267 1.69644 -3.78912 3.78912 -3.78912 2.09267 0 3.78914 1.69645 3.78914 3.78912 0 2.09264 -1.69647 3.78914 -3.78914 3.78914 -2.09268 0 -3.78912 -1.6965 -3.78912 -3.78914Z" clip-rule="evenodd" stroke-width="1"></path>
  </g>
</svg>