<svg xmlns="http://www.w3.org/2000/svg" fill="none" viewBox="0 0 14 14" id="Zodiac-1--Streamline-Core-Remix">
  <desc>
    Zodiac 1 Streamline Icon: https://streamlinehq.com
  </desc>
  <g id="Free Remix/Culture/zodiac-1--sign-astrology-stars-space-scorpio">
    <path id="Union" fill="#000000" fill-rule="evenodd" d="M2.58623 2.35291c-0.35337 0 -0.69299 0.14114 -0.94395 0.39353 -0.25108 0.25252 -0.39277 0.59575 -0.39277 0.95439V9.497c0 0.34517 -0.27982 0.625 -0.624998 0.625 -0.345178 0 -0.625000281 -0.27983 -0.625000281 -0.625V3.70083c0 -0.68787 0.271668281 -1.34827 0.756373281 -1.83575 0.484825 -0.4876 1.143145 -0.76217 1.830345 -0.76217 0.68719 0 1.34551 0.27457 1.83034 0.76217 0.0457 0.04596 0.08951 0.09346 0.13137 0.14238 0.04186 -0.04892 0.08567 -0.09642 0.13137 -0.14238 0.48483 -0.4876 1.14315 -0.76217 1.83034 -0.76217 0.6872 0 1.34552 0.27457 1.83034 0.76217 0.48471 0.48748 0.75638 1.14788 0.75638 1.83575v6.85477c0 0.6028 0.48868 1.0915 1.09153 1.0915 0.6028 0 1.0915 -0.4887 1.0915 -1.0915V8.77693l-0.4046 0.40454c-0.2441 0.24408 -0.6398 0.24408 -0.88386 0 -0.24408 -0.24408 -0.24408 -0.6398 0 -0.88388L11.4622 6.8263c0.2441 -0.24408 0.6398 -0.24408 0.8839 0l1.4713 1.47129c0.2441 0.24408 0.2441 0.6398 0 0.88388 -0.2441 0.24408 -0.6398 0.24408 -0.8839 0l-0.4041 -0.40414v1.77827c0 1.2932 -1.0484 2.3415 -2.3415 2.3415 -1.29321 0 -2.34153 -1.0483 -2.34153 -2.3415V3.70083c0 -0.35864 -0.14169 -0.70187 -0.39277 -0.95439 -0.25096 -0.25239 -0.59058 -0.39353 -0.94395 -0.39353 -0.35336 0 -0.69298 0.14114 -0.94394 0.39353 -0.25108 0.25252 -0.39277 0.59575 -0.39277 0.95439l-0.00003 0.00624V9.4521c0 0.34518 -0.27982 0.625 -0.625 0.625s-0.625 -0.27982 -0.625 -0.625V3.69175c-0.00237 -0.35535 -0.14378 -0.69493 -0.39274 -0.94531 -0.25096 -0.25239 -0.59058 -0.39353 -0.94394 -0.39353Z" clip-rule="evenodd" stroke-width="1"></path>
  </g>
</svg>