<svg xmlns="http://www.w3.org/2000/svg" fill="none" viewBox="-0.75 -0.75 24 24" id="Buttons-All--Streamline-Sharp-Neon">
  <desc>
    Buttons All Streamline Icon: https://streamlinehq.com
  </desc>
  <g id="buttons-all">
    <path id="Ellipse 5" stroke="#000cfe" d="M8.3025 4.6190625a2.9475000000000002 2.9475000000000002 0 1 0 5.8950000000000005 0 2.9475000000000002 2.9475000000000002 0 1 0 -5.8950000000000005 0" stroke-width="1.5"></path>
    <path id="Ellipse 7" stroke="#000cfe" d="M17.881875 8.3025a2.9475000000000002 2.9475000000000002 0 1 0 0 5.8950000000000005 2.9475000000000002 2.9475000000000002 0 1 0 0 -5.8950000000000005" stroke-width="1.5"></path>
    <path id="Ellipse 6" stroke="#000cfe" d="M8.3025 17.8809375a2.9475000000000002 2.9475000000000002 0 1 0 5.8950000000000005 0 2.9475000000000002 2.9475000000000002 0 1 0 -5.8950000000000005 0" stroke-width="1.5"></path>
    <path id="Ellipse 8" stroke="#000cfe" d="M4.6190625 8.3025a2.9475000000000002 2.9475000000000002 0 1 0 0 5.8950000000000005 2.9475000000000002 2.9475000000000002 0 1 0 0 -5.8950000000000005" stroke-width="1.5"></path>
    <path id="Vector 4230" stroke="#000cfe" d="M11.25 3.75v1.875" stroke-width="1.5"></path>
    <path id="Vector 4231" stroke="#000cfe" d="M11.25 16.875v1.875" stroke-width="1.5"></path>
    <path id="Vector 4232" stroke="#000cfe" d="M4.6875 10.3125v1.875" stroke-width="1.5"></path>
    <path id="Vector 4233" stroke="#000cfe" d="M17.8125 10.3125v1.875" stroke-width="1.5"></path>
  </g>
</svg>