<svg xmlns="http://www.w3.org/2000/svg" fill="none" viewBox="-0.5 -0.5 24 24" id="Buttons-All--Streamline-Sharp-Neon">
  <desc>
    Buttons All Streamline Icon: https://streamlinehq.com
  </desc>
  <g id="buttons-all">
    <path id="Ellipse 5" stroke="#000cfe" d="M8.487 4.721708333333333a3.0130000000000003 3.0130000000000003 0 1 0 6.026000000000001 0 3.0130000000000003 3.0130000000000003 0 1 0 -6.026000000000001 0" stroke-width="1"></path>
    <path id="Ellipse 7" stroke="#000cfe" d="M18.27925 8.487a3.0130000000000003 3.0130000000000003 0 1 0 0 6.026000000000001 3.0130000000000003 3.0130000000000003 0 1 0 0 -6.026000000000001" stroke-width="1"></path>
    <path id="Ellipse 6" stroke="#000cfe" d="M8.487 18.278291666666668a3.0130000000000003 3.0130000000000003 0 1 0 6.026000000000001 0 3.0130000000000003 3.0130000000000003 0 1 0 -6.026000000000001 0" stroke-width="1"></path>
    <path id="Ellipse 8" stroke="#000cfe" d="M4.721708333333333 8.487a3.0130000000000003 3.0130000000000003 0 1 0 0 6.026000000000001 3.0130000000000003 3.0130000000000003 0 1 0 0 -6.026000000000001" stroke-width="1"></path>
    <path id="Vector 4230" stroke="#000cfe" d="M11.5 3.8333333333333335v1.9166666666666667" stroke-width="1"></path>
    <path id="Vector 4231" stroke="#000cfe" d="M11.5 17.25v1.9166666666666667" stroke-width="1"></path>
    <path id="Vector 4232" stroke="#000cfe" d="M4.791666666666667 10.541666666666668v1.9166666666666667" stroke-width="1"></path>
    <path id="Vector 4233" stroke="#000cfe" d="M18.208333333333336 10.541666666666668v1.9166666666666667" stroke-width="1"></path>
  </g>
</svg>