<svg xmlns="http://www.w3.org/2000/svg" fill="none" viewBox="-0.75 -0.75 24 24" id="Speaker-1--Streamline-Sharp-Neon">
  <desc>
    Speaker 1 Streamline Icon: https://streamlinehq.com
  </desc>
  <g id="speaker-1--speaker-music-audio-subwoofer-entertainment">
    <path id="Ellipse 330" stroke="#000cfe" d="M6.1865625 11.25a5.0634375 5.0634375 0 1 0 10.126875 0 5.0634375 5.0634375 0 1 0 -10.126875 0" stroke-width="1.5"></path>
    <path id="Union" stroke="#c71dff" d="m18.30271875 1.382446875 2.81521875 2.81521875 -2.28365625 2.2836c0.8701875 1.3809749999999998 1.373625 3.016265625 1.373625 4.769109374999999 0 1.7528437499999998 -0.5034375 3.388125 -1.373625 4.7690624999999995l2.28365625 2.28365625 -2.81521875 2.81521875 -2.28365625 -2.28365625c-1.3809375000000002 0.87028125 -3.0162187499999997 1.37371875 -4.7690624999999995 1.37371875s-3.3881625 -0.5034375 -4.7691375 -1.37371875l-2.2836 2.28365625 -2.81521875 -2.81521875 2.2836 -2.28365625c-0.870196875 -1.3809375000000002 -1.3736531250000001 -3.0162187499999997 -1.3736531250000001 -4.7690624999999995s0.50345625 -3.388134375 1.3736531250000001 -4.769109374999999L1.38204375 4.197665625l2.81521875 -2.81521875 2.2836 2.2836C7.861837500000001 2.79585 9.49715625 2.29239375 11.25 2.29239375c1.7528437499999998 0 3.388125 0.50345625 4.7690624999999995 1.3736531250000001l2.28365625 -2.2836Z" stroke-width="1.5"></path>
    <path id="Vector 2949" stroke="#000cfe" d="M11.015156249999999 11.48446875v-0.46978125h0.46978125v0.46978125h-0.46978125Z" stroke-width="1.5"></path>
  </g>
</svg>