<svg xmlns="http://www.w3.org/2000/svg" fill="none" viewBox="0 0 14 14" id="Bell-Notification--Streamline-Flex">
  <desc>
    Bell Notification Streamline Icon: https://streamlinehq.com
  </desc>
  <g id="bell-notification--alert-bell-ring-notification-alarm">
    <path id="Ellipse 85" stroke="#000000" stroke-linecap="round" stroke-linejoin="round" d="M5.67725 12.458c0.25284 0.4714 0.75036 0.7921 1.32275 0.7921 0.5724 0 1.06991 -0.3207 1.32276 -0.7921" stroke-width="1"></path>
    <path id="Vector" stroke="#000000" stroke-linecap="round" stroke-linejoin="round" d="M4.2624 1.88396C4.98846 1.1579 5.97321 0.75 7.00002 0.75c1.0268 0 2.01154 0.4079 2.73761 1.13396 0.72607 0.72606 1.13397 1.71081 1.13397 2.73762 0 0.60416 0.0997 1.17186 0.2497 1.75253 0.042 0.13145 0.0883 0.25549 0.1381 0.37251 0.232 0.54577 0.8708 0.732 1.3475 1.08487 0.7115 0.52672 0.5739 1.65374 -0.0179 2.09132 0 0 -0.9555 0.82719 -5.58898 0.82719 -4.63354 0 -5.58902 -0.82719 -5.58902 -0.82719 -0.591783 -0.43758 -0.729337 -1.5646 -0.01786 -2.09132 0.47665 -0.35287 1.11545 -0.53906 1.34752 -1.08482 0.23132 -0.544 0.38778 -1.2399 0.38778 -2.12509 0 -1.02681 0.4079 -2.01156 1.13396 -2.73762Z" stroke-width="1"></path>
  </g>
</svg>