<svg xmlns="http://www.w3.org/2000/svg" fill="none" viewBox="0 0 14 14" id="Broken-Link-1--Streamline-Flex">
  <desc>
    Broken Link 1 Streamline Icon: https://streamlinehq.com
  </desc>
  <g id="broken-link-1--break-broken-hyperlink-link-remove-unlink-chain">
    <path id="Vector" stroke="#000000" stroke-linecap="round" stroke-linejoin="round" d="M3.29319 7.1189 1.49681 8.91527c-0.47515 0.4771 -0.741927 1.12303 -0.741927 1.79633 0 0.6734 0.266777 1.3193 0.741927 1.7964 0.47711 0.4752 1.12303 0.7419 1.79638 0.7419 0.67335 0 1.31927 -0.2667 1.79637 -0.7419l1.06629 -1.0663" stroke-width="1"></path>
    <path id="Vector_2" stroke="#000000" stroke-linecap="round" stroke-linejoin="round" d="M8.92214 9.39559h1.78676c0.6726 0 1.3177 -0.26719 1.7933 -0.74279 0.4756 -0.4756 0.7428 -1.12066 0.7428 -1.79326 0 -0.6726 -0.2672 -1.31766 -0.7428 -1.79326s-1.1207 -0.74279 -1.7933 -0.74279H8.17285" stroke-width="1"></path>
    <path id="Vector_3" stroke="#000000" stroke-linecap="round" stroke-linejoin="round" d="M7.00131 0.75 6.521 2.67125" stroke-width="1"></path>
    <path id="Vector_4" stroke="#000000" stroke-linecap="round" stroke-linejoin="round" d="m0.756836 3.63184 1.921254 0.96062" stroke-width="1"></path>
    <path id="Vector_5" stroke="#000000" stroke-linecap="round" stroke-linejoin="round" d="m3.15869 0.75 0.96063 1.92125" stroke-width="1"></path>
  </g>
</svg>