<svg xmlns="http://www.w3.org/2000/svg" fill="none" viewBox="0 0 14 14" id="Color-Picker--Streamline-Flex">
  <desc>
    Color Picker Streamline Icon: https://streamlinehq.com
  </desc>
  <g id="color-picker--color-colors-design-dropper-eye-eyedrop-eyedropper-painting-picker">
    <path id="Union" stroke="#000000" stroke-linecap="round" stroke-linejoin="round" d="M8.96126 8.65991 5.33996 5.0386s-1.21094 0.76877 -2.13722 1.69506c-0.4633 0.46329 -0.88719 0.9978 -1.19519 1.41638 -0.33954 0.46144 -0.49884 1.02528 -0.49691 1.59817l0.00132 0.39249c0.00107 0.3157 -0.12385 0.6187 -0.34704 0.8419 -0.462732 0.4627 -0.462732 1.2129 0 1.6757l0.17667 0.1766c0.46273 0.4628 1.21297 0.4628 1.67571 0 0.22319 -0.2231 0.5262 -0.3481 0.84184 -0.347l0.40476 0.0014c0.56521 0.0019 1.12136 -0.1528 1.58113 -0.4816 0.43671 -0.3122 0.99499 -0.7423 1.44219 -1.1896 0.86929 -0.86925 1.67404 -2.15819 1.67404 -2.15819Z" stroke-width="1"></path>
    <path id="Union_2" stroke="#000000" stroke-linecap="round" stroke-linejoin="round" d="M12.2643 6.36834c1.2793 -1.27926 1.2793 -3.35335 0 -4.63262 -1.2793 -1.27926 -3.35336 -1.27926 -4.63262 0l-0.47552 0.47552c-0.22886 0.22886 -0.59991 0.22886 -0.82877 0 -0.45773 -0.45772 -1.19984 -0.45772 -1.65756 0l-0.1249 0.1249c-0.5267 0.5267 -0.5267 1.38065 0 1.90736l5.21159 5.21159c0.52668 0.5267 1.38068 0.5267 1.90738 0l0.1249 -0.1249c0.4577 -0.45772 0.4577 -1.19983 0 -1.65755 -0.2289 -0.22886 -0.2289 -0.59992 0 -0.82878l0.4755 -0.47552Z" stroke-width="1"></path>
  </g>
</svg>