<svg xmlns="http://www.w3.org/2000/svg" fill="none" viewBox="0 0 14 14" id="Color-Swatches--Streamline-Flex">
  <desc>
    Color Swatches Streamline Icon: https://streamlinehq.com
  </desc>
  <g id="color-swatches--color-colors-design-painting-palette-sample-swatch">
    <path id="Vector 114" stroke="#000000" stroke-linecap="round" stroke-linejoin="round" d="m4.75 13.25 6.5 0c1.1046 0 2 -0.8954 2 -2v-3c0 -0.63159 -0.2928 -1.19481 -0.75 -1.56134" stroke-width="1"></path>
    <path id="Subtract" stroke="#000000" stroke-linecap="round" stroke-linejoin="round" d="M12.3721 6.86094 7.7334 11.5074c0.01083 -0.0843 0.01642 -0.1702 0.01642 -0.2575V2.74994L7.7334 1.65771c0.77572 -0.51201 1.82975 -0.4271 2.5133 0.25526l2.1231 2.11954c0.7817 0.7804 0.7827 2.04673 0.0023 2.82843Z" stroke-width="1"></path>
    <path id="Subtract_2" stroke="#000000" stroke-linecap="round" stroke-linejoin="round" d="M12.3721 6.86094 7.7334 11.5074c0.01083 -0.0843 0.01642 -0.1702 0.01642 -0.2575V1.64699c0.77412 -0.50006 1.81814 -0.41158 2.49688 0.26598l2.1231 2.11954c0.7817 0.7804 0.7827 2.04673 0.0023 2.82843Z" stroke-width="1"></path>
    <path id="Vector 112" stroke="#000000" stroke-linecap="round" stroke-linejoin="round" d="M0.75 11.25v-8.5c0 -1.10457 0.89543 -2 2 -2h3c1.10457 0 2 0.89543 2 2v8.5c0 1.1046 -0.89543 2 -2 2h-3c-1.10457 0 -2 -0.8954 -2 -2Z" stroke-width="1"></path>
    <path id="Vector 117" stroke="#000000" stroke-linecap="round" stroke-linejoin="round" d="M0.75 11.25v-8.5c0 -1.10457 0.89543 -2 2 -2h3c1.10457 0 2 0.89543 2 2v8.5c0 1.1046 -0.89543 2 -2 2h-3c-1.10457 0 -2 -0.8954 -2 -2Z" stroke-width="1"></path>
    <path id="Intersect" stroke="#000000" stroke-linecap="round" stroke-linejoin="round" d="M0.75 8v3.25c0 1.1046 0.89543 2 2 2h3c1.10457 0 2 -0.8954 2 -2V8h-7Z" stroke-width="1"></path>
    <path id="Vector 115" stroke="#000000" stroke-linecap="round" stroke-linejoin="round" d="M1 8h6.5" stroke-width="1"></path>
    <path id="Vector 116" stroke="#000000" stroke-linecap="round" stroke-linejoin="round" d="m0.75 4.51562 6.99993 -0.03124" stroke-width="1"></path>
    <path id="Vector 1159" stroke="#000000" stroke-linecap="round" stroke-linejoin="round" d="M4.25 10.534v0.182" stroke-width="1"></path>
  </g>
</svg>