<svg xmlns="http://www.w3.org/2000/svg" fill="none" viewBox="0 0 14 14" id="Customer-Support-7--Streamline-Flex">
  <desc>
    Customer Support 7 Streamline Icon: https://streamlinehq.com
  </desc>
  <g id="customer-support-7--customer-headphones-help-microphone-person-profile-support">
    <path id="Vector" stroke="#000000" stroke-linecap="round" stroke-linejoin="round" d="M6.50195 5.00391V0.75" stroke-width="1"></path>
    <path id="Vector 182" stroke="#000000" stroke-linecap="round" stroke-linejoin="round" d="M7 8.96484C8 9.96484 10 11 12.5 11" stroke-width="1"></path>
    <path id="Vector_2" stroke="#000000" stroke-linecap="round" stroke-linejoin="round" d="M2.71695 13.4914c0 -0.2409 0.00059 -0.5364 0.0014 -0.8266 0.0022 -0.7905 -0.17337 -1.5763 -0.58901 -2.2487C1.37417 9.1945 0.75 8.39179 0.75 5.99996c0 -2.22154 0.79244 -3.73805 2.24403 -4.54952" stroke-width="1"></path>
    <path id="Vector_3" stroke="#000000" stroke-linecap="round" stroke-linejoin="round" d="M11.6299 9.22524v-0.60495l0.7847 -0.01973c0.1291 -0.00005 0.2564 -0.0312 0.3709 -0.09081 0.1146 -0.0596 0.2131 -0.14592 0.2873 -0.25164 0.5155 -0.73494 -1.5836 -2.51714 -1.7328 -3.58829 -0.2348 -1.68604 -1.1034 -2.73722 -2.28775 -3.32143" stroke-width="1"></path>
    <path id="Vector_4" stroke="#000000" stroke-linecap="round" stroke-linejoin="round" d="M8.73535 12.2498v1.2416" stroke-width="1"></path>
    <path id="Vector_5" stroke="#000000" stroke-linecap="round" stroke-linejoin="round" d="M6.50195 9c1.28 0 2 -0.72 2 -2s-0.72 -2 -2 -2 -2 0.72 -2 2 0.72 2 2 2Z" stroke-width="1"></path>
  </g>
</svg>