<svg xmlns="http://www.w3.org/2000/svg" fill="none" viewBox="0 0 14 14" id="Delete-Tag--Streamline-Flex">
  <desc>
    Delete Tag Streamline Icon: https://streamlinehq.com
  </desc>
  <g id="delete-tag--delete-tag-remove-cross-x-button-mathematics-math">
    <path id="Vector 1179" stroke="#000000" stroke-linecap="round" stroke-linejoin="round" d="M5.76855 5.94617 3.29368 8.42104" stroke-width="1"></path>
    <path id="Vector 1180" stroke="#000000" stroke-linecap="round" stroke-linejoin="round" d="M5.76855 8.42102 3.29368 5.94615" stroke-width="1"></path>
    <path id="Intersect" stroke="#000000" stroke-linecap="round" stroke-linejoin="round" d="M2.40297 3.29674c-0.84296 0.04415 -1.541521 0.78997 -1.669599 1.75345C0.641068 5.74456 0.5625 6.45719 0.5625 7.18358c0 0.72639 0.078568 1.43903 0.17087 2.13339 0.128078 0.96353 0.82664 1.70933 1.6696 1.75343 2.40008 0.1257 4.74334 0.1054 7.1618 -0.0609 0.29268 -0.0202 0.57473 -0.1254 0.81783 -0.3147 0.8812 -0.6866 3.0237 -2.46357 3.0237 -3.51122S11.2638 4.359 10.3826 3.6724c-0.2431 -0.18938 -0.52515 -0.29457 -0.81783 -0.3147 -2.41846 -0.16635 -4.76172 -0.18667 -7.1618 -0.06096Z" stroke-width="1"></path>
  </g>
</svg>