<svg xmlns="http://www.w3.org/2000/svg" fill="none" viewBox="0 0 14 14" id="Give-Star--Streamline-Flex">
  <desc>
    Give Star Streamline Icon: https://streamlinehq.com
  </desc>
  <g id="give-star--reward-social-rating-media-hand-star">
    <path id="Star 1" stroke="#000000" stroke-linecap="round" stroke-linejoin="round" d="M9.56841 1.2549c0.15829 -0.38597 0.70489 -0.385969 0.86319 0l0.5876 1.43278 1.5924 0.13959c0.4163 0.03649 0.5783 0.55987 0.2554 0.82514l-0.9468 0.7778c-0.1351 0.11095 -0.1968 0.28809 -0.1599 0.45893l0.3138 1.45279c0.0886 0.40992 -0.3667 0.71937 -0.7153 0.48624L10 5.91944l-1.35884 0.90873c-0.3486 0.23313 -0.80381 -0.07632 -0.71527 -0.48624l0.31378 -1.45279c0.0369 -0.17084 -0.0248 -0.34798 -0.15986 -0.45893l-0.94683 -0.7778c-0.32291 -0.26527 -0.16093 -0.78865 0.25537 -0.82514l1.59247 -0.13959 0.58759 -1.43278Z" stroke-width="1"></path>
    <path id="Vector 353" stroke="#000000" stroke-linecap="round" stroke-linejoin="round" d="m0.982542 6.37024 0.692798 -0.04287c0.82279 -0.05091 1.6485 0.02566 2.4479 0.227l1.15913 0.29194c0.63636 0.16027 1.05858 0.76338 0.99143 1.41616v0c-0.07861 0.76417 -0.79019 1.30034 -1.54641 1.16523l-1.10526 -0.19749 3.89699 0.69884 4.03648 -0.95802c0.6529 -0.15497 1.3104 0.23846 1.4825 0.88708v0c0.1599 0.60249 -0.1531 1.22989 -0.7306 1.46449l-3.22873 1.3118c-1.5706 0.6382 -3.32068 0.6781 -4.91877 0.1123L0.8125 11.5616" stroke-width="1"></path>
  </g>
</svg>