<svg xmlns="http://www.w3.org/2000/svg" fill="none" viewBox="0 0 14 14" id="New-Sticky-Note--Streamline-Flex">
  <desc>
    New Sticky Note Streamline Icon: https://streamlinehq.com
  </desc>
  <g id="new-sticky-note--empty-common-file">
    <path id="Intersect" stroke="#000000" stroke-linecap="round" stroke-linejoin="round" d="M7.5118 12.803 7 12.8049c-1.39969 0 -2.76567 -0.0435 -4.08384 -0.1262 -0.96402 -0.0605 -1.72943 -0.8259 -1.78994 -1.7899C1.04349 9.5706 1 8.20462 1 6.80493s0.04349 -2.76567 0.12622 -4.08384c0.06051 -0.96402 0.82592 -1.729429 1.78994 -1.789935C4.23433 0.84842 5.60031 0.804932 7 0.804932c1.39969 0 2.76567 0.043488 4.0838 0.126223 0.9641 0.060506 1.7295 0.825915 1.79 1.789935C12.9565 4.03926 13 5.40524 13 6.80493l-0.0107 1.19886" stroke-width="1"></path>
    <path id="Vector 169" stroke="#000000" stroke-linecap="round" stroke-linejoin="round" d="M13 8.00006c-0.4825 2.97834 -3.34626 4.58574 -5.5 4.81214 0.82003 -1.0927 1.39753 -2.2052 1.64918 -3.88691 0.07761 -0.51861 0.50693 -0.92523 1.03132 -0.92523H13Z" stroke-width="1"></path>
  </g>
</svg>