<svg xmlns="http://www.w3.org/2000/svg" fill="none" viewBox="0 0 14 14" id="Notepad-Text--Streamline-Flex">
  <desc>
    Notepad Text Streamline Icon: https://streamlinehq.com
  </desc>
  <g id="notepad-text--content-notes-book-notepad-notebook">
    <path id="Vector 12" stroke="#000000" stroke-linecap="round" stroke-linejoin="round" d="M3.92188 6.50232h6.15622" stroke-width="1"></path>
    <path id="Vector 13" stroke="#000000" stroke-linecap="round" stroke-linejoin="round" d="M3.92188 9.47107h2.95138" stroke-width="1"></path>
    <path id="Intersect" stroke="#000000" stroke-linecap="round" stroke-linejoin="round" d="M1.09183 10.5249c0.16134 1.4393 1.33128 2.5822 2.778 2.6519 0.99995 0.0481 2.02144 0.0731 3.13008 0.0731 1.10864 0 2.13012 -0.025 3.13009 -0.0731 1.4467 -0.0697 2.6166 -1.2126 2.778 -2.6519 0.1086 -0.96936 0.1978 -1.96314 0.1978 -2.97549 0 -1.01234 -0.0892 -2.00612 -0.1978 -2.97544 -0.1614 -1.43938 -1.3313 -2.58223 -2.778 -2.6519 -0.99997 -0.04816 -2.02145 -0.07319 -3.13009 -0.07319 -1.10864 0 -2.13013 0.02503 -3.13008 0.07319 -1.44672 0.06967 -2.61666 1.21252 -2.778 2.6519 -0.108648 0.96932 -0.197787 1.9631 -0.197787 2.97544 0 1.01235 0.089139 2.00613 0.197787 2.97549Z" stroke-width="1"></path>
    <path id="Line 7" stroke="#000000" stroke-linecap="round" stroke-linejoin="round" d="m4 0.75 0 2.53918" stroke-width="1"></path>
    <path id="Line 8" stroke="#000000" stroke-linecap="round" stroke-linejoin="round" d="m10 0.75 0 2.53918" stroke-width="1"></path>
    <path id="Line 9" stroke="#000000" stroke-linecap="round" stroke-linejoin="round" d="m7 0.75 0 2.53918" stroke-width="1"></path>
  </g>
</svg>