<svg xmlns="http://www.w3.org/2000/svg" fill="none" viewBox="0 0 14 14" id="Pictures-Folder-Memories--Streamline-Flex">
  <desc>
    Pictures Folder Memories Streamline Icon: https://streamlinehq.com
  </desc>
  <g id="pictures-folder-memories">
    <path id="Subtract" stroke="#000000" stroke-linejoin="round" d="M6.354 1.765a0.991 0.991 0 0 0 -0.883 -0.648 26.604 26.604 0 0 0 -3.456 0.034 1.004 1.004 0 0 0 -0.92 0.893C0.758 4.98 0.646 7.927 0.997 10.87c0.12 0.998 0.938 1.724 1.916 1.83a37.71 37.71 0 0 0 8.247 -0.007 2.092 2.092 0 0 0 1.845 -1.823c0.218 -1.82 0.275 -3.684 0.14 -5.97A1.906 1.906 0 0 0 11.4 3.11c-1.344 -0.11 -2.279 -0.116 -3.93 -0.151a0.998 0.998 0 0 1 -0.915 -0.651l-0.2 -0.542Z" stroke-width="1"></path>
    <path id="Intersect" stroke="#000000" stroke-linecap="round" stroke-linejoin="round" d="M0.942 10.275a11.22 11.22 0 0 1 2.42 -2.492c0.613 -0.474 1.466 -0.513 2.079 -0.038 1.678 1.299 3.113 3.218 4.081 5.095" stroke-width="1"></path>
    <path id="Vector" stroke="#000000" stroke-linecap="round" stroke-linejoin="round" d="M9.594 8.017c0.83 0 1.296 -0.467 1.296 -1.296 0 -0.83 -0.466 -1.296 -1.296 -1.296 -0.83 0 -1.296 0.466 -1.296 1.296 0 0.83 0.466 1.296 1.296 1.296Z" stroke-width="1"></path>
  </g>
</svg>