<svg xmlns="http://www.w3.org/2000/svg" fill="none" viewBox="0 0 14 14" id="Table-Lamp-2--Streamline-Flex">
  <desc>
    Table Lamp 2 Streamline Icon: https://streamlinehq.com
  </desc>
  <g id="table-lamp-2--lighting-light-incandescent-bulb-lights-table-lamp">
    <path id="Vector" stroke="#000000" stroke-linecap="round" stroke-linejoin="round" d="m7.03809 9.0625 0.00024 4.1875" stroke-width="1"></path>
    <path id="Vector_2" stroke="#000000" stroke-linecap="round" stroke-linejoin="round" d="M4.63477 13.25h4.80769" stroke-width="1"></path>
    <path id="Vector_3" stroke="#000000" stroke-linecap="round" stroke-linejoin="round" d="M12.2557 7.05249c0.039 0.49215 -0.2671 0.93763 -0.7249 1.1224v0c-2.90672 1.17308 -6.15511 1.17308 -9.06181 -0.00001v0c-0.4578 -0.18476 -0.76421 -0.63008 -0.7212 -1.12189 0.19076 -2.1812 1.08616 -4.14918 1.58585 -5.10144 0.20809 -0.39655 0.5757 -0.67494 1.00457 -0.80385v0c1.73608 -0.521832 3.6098 -0.515056 5.34589 0.00677v0c0.4122 0.1239 0.7745 0.38624 0.9826 0.76304 0.5031 0.91135 1.4066 2.83079 1.589 5.13498Z" stroke-width="1"></path>
  </g>
</svg>