<svg xmlns="http://www.w3.org/2000/svg" fill="none" viewBox="0 0 14 14" id="User-Sync-Online-In-Person--Streamline-Flex">
  <desc>
    User Sync Online In Person Streamline Icon: https://streamlinehq.com
  </desc>
  <g id="user-sync-online-in-person">
    <path id="Vector" stroke="#000000" stroke-linecap="round" stroke-linejoin="round" d="M10.8535 7.25205c0.2228 0.61317 0.6463 1.01459 1.2704 1.20428 0.6132 -0.22276 1.0146 -0.64624 1.2043 -1.27043" stroke-width="1"></path>
    <path id="Vector_2" stroke="#000000" stroke-linecap="round" stroke-linejoin="round" d="M3.13965 6.7681c-0.22217 -0.61151 -0.6445 -1.01185 -1.26701 -1.20103 -0.61151 0.22216 -1.011853 0.6445 -1.201029 1.26701" stroke-width="1"></path>
    <path id="Vector_3" stroke="#000000" stroke-linecap="round" stroke-linejoin="round" d="M1.87267 5.58069c-0.08456 0.43869 -0.12755 0.91227 -0.12755 1.4193 0 3.36301 1.89171 5.25471 5.25474 5.25471 1.68647 0 3.00294 -0.4757 3.89644 -1.3741" stroke-width="1"></path>
    <path id="Intersect" stroke="#000000" stroke-linecap="round" stroke-linejoin="round" d="M9.37162 9.32069c-0.04977 -0.24221 -0.13391 -0.47367 -0.24842 -0.68755 -0.14837 -0.27713 -0.34771 -0.52473 -0.58928 -0.72788 -0.43301 -0.36413 -0.97505 -0.56304 -1.53429 -0.56304 -0.55925 0 -1.10129 0.19891 -1.5343 0.56304 -0.23352 0.19638 -0.43253 0.44866 -0.58378 0.72788 -0.11759 0.21706 -0.20632 0.45041 -0.25997 0.68642" stroke-width="1"></path>
    <path id="Vector_4" stroke="#000000" stroke-linecap="round" stroke-linejoin="round" d="M6.9964 7.34221c0.95831 0 1.49737 -0.53905 1.49737 -1.49737 0 -0.95832 -0.53906 -1.49737 -1.49737 -1.49737 -0.95832 0 -1.49738 0.53905 -1.49738 1.49737 0 0.95832 0.53906 1.49737 1.49738 1.49737Z" stroke-width="1"></path>
    <path id="Vector_5" stroke="#000000" stroke-linecap="round" stroke-linejoin="round" d="M3.1748 3.04932c0.89159 -0.85307 2.18289 -1.30408 3.82498 -1.30408 3.36302 0 5.25472 1.89171 5.25472 5.25474 0 0.51738 -0.0448 0.99994 -0.1328 1.44614" stroke-width="1"></path>
  </g>
</svg>