<svg xmlns="http://www.w3.org/2000/svg" fill="none" viewBox="0 0 14 14" id="User-Feedback-Heart--Streamline-Flex">
  <desc>
    User Feedback Heart Streamline Icon: https://streamlinehq.com
  </desc>
  <g id="user-feedback-heart">
    <path id="Union" stroke="#000000" stroke-linecap="round" stroke-linejoin="round" d="M6.99985 9.52084c-0.9133 -0.55037 -2.42563 -1.54604 -2.42563 -2.78774 0 -0.80817 0.65515 -1.46332 1.46332 -1.46332 0.36843 0 0.70506 0.13615 0.96231 0.3609 0.25726 -0.22475 0.59388 -0.3609 0.96231 -0.3609 0.80817 0 1.46333 0.65515 1.46333 1.46332 0 1.2417 -1.51233 2.23737 -2.42564 2.78774Z" stroke-width="1"></path>
    <path id="Vector" stroke="#000000" stroke-linecap="round" stroke-linejoin="round" d="M10.8613 9.63159c-0.1313 0.74191 0.0605 1.38791 0.5752 1.93811 0.742 0.1313 1.388 -0.0605 1.9381 -0.5752" stroke-width="1"></path>
    <path id="Vector_2" stroke="#000000" stroke-linecap="round" stroke-linejoin="round" d="M3.11595 4.37171c0.13091 -0.73991 -0.06032 -1.38421 -0.5737 -1.93288 -0.7399 -0.13092 -1.3842 0.06031 -1.932875 0.57369" stroke-width="1"></path>
    <path id="Vector_3" stroke="#000000" stroke-linecap="round" stroke-linejoin="round" d="M8.6246 12.9355c-0.50265 0.0956 -1.04471 0.1442 -1.62458 0.1442 -3.89095 0 -6.07961 -2.1887 -6.07961 -6.07962 0 -1.95773 0.55408 -3.48452 1.6003 -4.51839" stroke-width="1"></path>
    <path id="Vector_4" stroke="#000000" stroke-linecap="round" stroke-linejoin="round" d="M5.44824 1.05116c0.48207 -0.086705 0.99978 -0.13075 1.55175 -0.13075 3.89091 0 6.07961 2.18866 6.07961 6.07961 0 1.96018 -0.5555 3.48838 -1.6042 4.52228" stroke-width="1"></path>
  </g>
</svg>