<svg xmlns="http://www.w3.org/2000/svg" fill="none" viewBox="0 0 24 24" id="Bloglovin-Logo--Streamline-Logos">
  <desc>
    Bloglovin Logo Streamline Icon: https://streamlinehq.com
  </desc>
  <path stroke="#000000" stroke-linejoin="round" d="M17.5 5a2.5 2.5 0 0 1 5 0c0 1.06 -0.157 2.048 -0.642 2.968 -0.485 0.921 -1.25 1.681 -2.314 2.37l-1.088 -1.677c0.62 -0.403 1.044 -0.787 1.339 -1.17A2.5 2.5 0 0 1 17.5 5Z" stroke-width="1"></path>
  <path stroke="#000000" stroke-linejoin="round" d="M9.5 3.5h-8v17h8a5 5 0 0 0 3.57 -8.5A5 5 0 0 0 9.5 3.5Zm-5 10v4h5a2 2 0 1 0 0 -4h-5Zm0 -3h5a2 2 0 1 0 0 -4h-5v4Z" clip-rule="evenodd" stroke-width="1"></path>
</svg>