<svg xmlns="http://www.w3.org/2000/svg" fill="none" viewBox="0 0 24 24" id="Cut--Streamline-Sharp">
  <desc>
    Cut Streamline Icon: https://streamlinehq.com
  </desc>
  <g id="cut--coupon-cut-discount-price-prices-scissors">
    <path id="Union" fill="#8fbffa" fill-rule="evenodd" d="M3 6a3 3 0 1 1 6 0 3 3 0 0 1 -6 0Zm3 -5a5 5 0 0 0 -0.899 9.92L7.2 12l-2.1 1.08A5.001 5.001 0 0 0 6 23a5 5 0 0 0 2.417 -9.378l0.965 -0.497 3.16 1.628 0.916 -1.778L11.566 12l10.892 -5.611 -0.916 -1.778 -12.16 6.264 -0.965 -0.497A5 5 0 0 0 6 1ZM3 18a3 3 0 1 1 6 0 3 3 0 0 1 -6 0Z" clip-rule="evenodd" stroke-width="1"></path>
    <path id="Union_2" fill="#2859c5" fill-rule="evenodd" d="M17 16h-4v2h4v-2Zm6 0h-4v2h4v-2Z" clip-rule="evenodd" stroke-width="1"></path>
  </g>
</svg>