<svg xmlns="http://www.w3.org/2000/svg" fill="none" viewBox="0 0 24 24" id="Password-Block--Streamline-Sharp">
  <desc>
    Password Block Streamline Icon: https://streamlinehq.com
  </desc>
  <g id="password-block--login-password-false-textbox-touch-type-block">
    <path id="Subtract" fill="#8fbffa" fill-rule="evenodd" d="M1.25 2.25h21.5v10.62a7.002 7.002 0 0 0 -11.69 1.88H1.25V2.25Z" clip-rule="evenodd" stroke-width="1"></path>
    <path id="Union" fill="#2859c5" fill-rule="evenodd" d="M5.667 9.5h3v-2h-3v2Zm4.833 0h3v-2h-3v2Zm7.834 0h-3v-2h3v2ZM17.5 14c-0.603 0 -1.17 0.152 -1.665 0.42l4.744 4.745A3.5 3.5 0 0 0 17.5 14ZM14 17.5c0 -0.603 0.152 -1.17 0.42 -1.665l4.745 4.744A3.5 3.5 0 0 1 14 17.5Zm-2 0a5.5 5.5 0 1 1 11 0 5.5 5.5 0 0 1 -11 0Z" clip-rule="evenodd" stroke-width="1"></path>
  </g>
</svg>