<svg xmlns="http://www.w3.org/2000/svg" fill="none" viewBox="0 0 24 24" id="Reset-Clock--Streamline-Sharp">
  <desc>
    Reset Clock Streamline Icon: https://streamlinehq.com
  </desc>
  <g id="reset-clock--timer-countdown-clock">
    <path id="Vector 2044 (Stroke)" fill="#2859c5" fill-rule="evenodd" d="M13 6.5h-2v5l-3.6 2.7 1.2 1.6 4.4 -3.3v-6Z" clip-rule="evenodd" stroke-width="1"></path>
    <path id="Union" fill="#8fbffa" fill-rule="evenodd" d="M18.892 17.392A8.711 8.711 0 0 0 20.75 12a8.75 8.75 0 1 0 -6.999 8.575l0.498 2.45A11.28 11.28 0 0 1 12 23.25C5.787 23.25 0.75 18.213 0.75 12S5.787 0.75 12 0.75 23.25 5.787 23.25 12c0 2.725 -0.97 5.224 -2.58 7.17L22 20.5l-1 1h-4.5V17l1 -1 1.392 1.392Z" clip-rule="evenodd" stroke-width="1"></path>
  </g>
</svg>