<svg xmlns="http://www.w3.org/2000/svg" fill="none" viewBox="0 0 24 24" id="Rotate-Right--Streamline-Sharp">
  <desc>
    Rotate Right Streamline Icon: https://streamlinehq.com
  </desc>
  <g id="rotate-right">
    <path id="Union" fill="#8fbffa" fill-rule="evenodd" d="M12 3.25a8.75 8.75 0 0 0 -4.09 16.487l-1.17 2.21A11.248 11.248 0 0 1 0.75 12C0.75 5.787 5.787 0.75 12 0.75a11.2 11.2 0 0 1 6.011 1.74L19.5 1l1 1v4.5H16l-1 -1 1.186 -1.186A8.71 8.71 0 0 0 12 3.25Zm0 17.5c1.14 0 2.227 -0.217 3.223 -0.612l0.921 2.324A11.224 11.224 0 0 1 12 23.25c-1.027 0 -2.025 -0.138 -2.973 -0.397l0.66 -2.412a8.761 8.761 0 0 0 2.313 0.31Zm7.543 -4.314a8.8 8.8 0 0 1 -2.933 3.002l1.32 2.123a11.301 11.301 0 0 0 3.767 -3.855l-2.154 -1.27Zm0.702 -1.5A8.732 8.732 0 0 0 20.75 12h2.5c0 1.322 -0.229 2.594 -0.65 3.775l-2.355 -0.838Z" clip-rule="evenodd" stroke-width="1"></path>
  </g>
</svg>