<svg xmlns="http://www.w3.org/2000/svg" fill="none" viewBox="0 0 24 24" id="Snooze-Clock--Streamline-Sharp">
  <desc>
    Snooze Clock Streamline Icon: https://streamlinehq.com
  </desc>
  <g id="snooze-clock--nap-sleep-rest-break-clock">
    <path id="Subtract" fill="#8fbffa" fill-rule="evenodd" d="M16.4645 4.5H14.5V1.28533C13.6969 1.09868 12.86 1 12 1 5.92487 1 1 5.92487 1 12c0 6.0751 4.92487 11 11 11 6.0751 0 11 -4.9249 11 -11 0 -0.5088 -0.0345 -1.0095 -0.1014 -1.5H14.5V6.46446L16.4645 4.5Z" clip-rule="evenodd" stroke-width="1"></path>
    <path id="Union" fill="#2859c5" fill-rule="evenodd" d="M20.0858 3H16V1h7v1.91421L18.9142 7H23v2h-7V7.08578L20.0858 3ZM12 11H7v2h4v6h2v-8h-1Z" clip-rule="evenodd" stroke-width="1"></path>
  </g>
</svg>