<svg xmlns="http://www.w3.org/2000/svg" fill="none" viewBox="0 0 24 24" id="Snow-Flake--Streamline-Sharp">
  <desc>
    Snow Flake Streamline Icon: https://streamlinehq.com
  </desc>
  <g id="snow-flake--winter-freeze-snow-freezing-ice-cold-weather-snowflake">
    <path id="Union" fill="#8fbffa" fill-rule="evenodd" d="M11 4.914 8.293 2.207 9.707 0.793 12 3.086 14.293 0.793l1.414 1.414L13 4.914v3.172l0.75 0.75L16 6.586V4h2v2h2v2h-2.586l-2.25 2.25 0.75 0.75h2.672l2.707 -2.707 1.414 1.414L20.414 12l2.293 2.293 -1.414 1.414L18.586 13h-2.672l-0.75 0.75 2.25 2.25H20v2h-2v2h-2v-2.586l-2.25 -2.25 -0.75 0.75v3.172l2.707 2.707 -1.414 1.414L12 20.914l-2.293 2.293 -1.414 -1.414L11 19.086v-3.172l-0.75 -0.75L8 17.414V20H6v-2H4v-2h2.586l2.25 -2.25 -0.75 -0.75H4.914l-2.707 2.707 -1.414 -1.414L3.086 12 0.793 9.707l1.414 -1.414L4.914 11h3.172l0.75 -0.75L6.586 8H4V6h2V4h2v2.586l2.25 2.25 0.75 -0.75V4.914Zm1 9.172L9.914 12 12 9.914 14.086 12 12 14.086Z" clip-rule="evenodd" stroke-width="1"></path>
  </g>
</svg>