<svg xmlns="http://www.w3.org/2000/svg" fill="none" viewBox="0 0 24 24" id="Text-Bar--Streamline-Sharp">
  <desc>
    Text Bar Streamline Icon: https://streamlinehq.com
  </desc>
  <g id="text-bar--text-bar-formatting-format">
    <path id="Union" fill="#8fbffa" fill-rule="evenodd" d="M8 3.25H5V0.75h3c1.602 0 3.037 0.718 4 1.85a5.239 5.239 0 0 1 4 -1.85h3v2.5h-3A2.75 2.75 0 0 0 13.25 6v5.75H17v2.5h-3.75V18A2.75 2.75 0 0 0 16 20.75h3v2.5h-3a5.238 5.238 0 0 1 -4 -1.85 5.238 5.238 0 0 1 -4 1.85H5v-2.5h3A2.75 2.75 0 0 0 10.75 18v-3.75H7v-2.5h3.75V6A2.75 2.75 0 0 0 8 3.25Z" clip-rule="evenodd" stroke-width="1"></path>
  </g>
</svg>