<svg xmlns="http://www.w3.org/2000/svg" fill="none" viewBox="0 0 24 24" id="View-Document-Files--Streamline-Sharp">
  <desc>
    View Document Files Streamline Icon: https://streamlinehq.com
  </desc>
  <g id="view-document-files">
    <g id="Group 176462">
      <g id="Group 4557">
        <path id="Union" fill="#2859c5" d="M7.554 14.175a6.58 6.58 0 0 0 -6.206 4.348l-0.09 0.252 0.09 0.252a6.58 6.58 0 0 0 6.206 4.348 6.58 6.58 0 0 0 6.206 -4.348l0.09 -0.252 -0.09 -0.252a6.58 6.58 0 0 0 -6.206 -4.348Z" stroke-width="1"></path>
        <path id="Subtract" fill="#8fbffa" fill-rule="evenodd" d="M3.242 0.625h14.061l5.44 5.44v16.06h-9.099a8.007 8.007 0 0 0 1.529 -2.593l0.27 -0.757 -0.27 -0.756a8.08 8.08 0 0 0 -7.62 -5.344 8.087 8.087 0 0 0 -4.31 1.237V0.625Z" clip-rule="evenodd" stroke-width="1"></path>
        <path id="Vector 2949" fill="#8fbffa" d="M7.055 19.425v-1h1v1h-1Z" stroke-width="1"></path>
        <path id="Vector 2949 (Stroke)" fill="#8fbffa" fill-rule="evenodd" d="M6.055 17.425h3v3h-3v-3Z" clip-rule="evenodd" stroke-width="1"></path>
      </g>
    </g>
  </g>
</svg>