<svg xmlns="http://www.w3.org/2000/svg" fill="none" viewBox="0 0 24 24" id="Waving-Hand--Streamline-Sharp">
  <desc>
    Waving Hand Streamline Icon: https://streamlinehq.com
  </desc>
  <g id="waving-hand">
    <path id="Subtract" fill="#8fbffa" d="m10.4103 5.64699 2.75 4.76311 -1.2991 0.75 -4.99999 -8.66022 -0.86602 0.5c-1.19573 0.69035 -1.60542 2.21933 -0.91506 3.41506l3.75 6.49516 -1.29904 0.75 -4 -6.92817 -0.86602 0.5C1.46934 7.92228 1.05965 9.45126 1.75 10.647l7.13194 12.3529 4.07736 0c1.5689 0 3.1102 -0.413 4.4689 -1.1975 2.3888 -1.3791 3.8986 -3.8916 3.9951 -6.6482l0.1878 -5.36337 -0.7341 -0.19671c-1.2003 -0.32161 -2.434 0.39068 -2.7557 1.59098l-0.1497 0.5586 -5.7803 -10.01177 -0.866 0.5c-1.1957 0.69035 -1.6054 2.21933 -0.915 3.41506Z" stroke-width="1"></path>
    <path id="Union" fill="#2859c5" fill-rule="evenodd" d="M15.7588 1.03406c2.9039 0.77809 4.6272 3.76293 3.8491 6.66681l-1.9318 -0.51764c0.4922 -1.83695 -0.598 -3.72511 -2.4349 -4.21732l0.5176 -1.93185ZM4.59329 22.9656c-2.90388 -0.7781 -4.6271792 -3.7629 -3.849086 -6.6668l1.931856 0.5176c-0.49221 1.837 0.59792 3.7251 2.43487 4.2173l-0.51764 1.9319ZM16.5895 10.8234c0.076 -0.3175 0.1901 -0.6156 0.3363 -0.8908l1.0035 1.738 -0.3374 1.4106 -0.0792 0.3314 -0.3017 0.1583 -0.8062 0.4231c-1.1318 0.594 -1.5421 2.0103 -0.903 3.1173l0.4383 0.7591 -1.299 0.75 -0.4383 -0.7591c-1.0652 -1.8449 -0.3814 -4.2056 1.505 -5.1955l0.5045 -0.2648 0.3772 -1.5776Z" clip-rule="evenodd" stroke-width="1"></path>
  </g>
</svg>