<svg xmlns="http://www.w3.org/2000/svg" fill="none" viewBox="0 0 24 24" id="Athletics-Javelin-Throwing--Streamline-Ultimate">
  <desc>
    Athletics Javelin Throwing Streamline Icon: https://streamlinehq.com
  </desc>
  <path fill="#ffdda1" stroke="#191919" stroke-linecap="round" stroke-linejoin="round" d="M12.8928 9.11701c1.8378 -0.0001 2.9864 -1.98962 2.0675 -3.58114 -0.4265 -0.73862 -1.2146 -1.19352 -2.0675 -1.19352 -1.8377 0 -2.98637 1.98942 -2.0674 3.58095 0.4264 0.73871 1.2145 1.19371 2.0674 1.19371Z" stroke-width="1"></path>
  <path fill="#66e1ff" d="M20.4143 12.5184c1.0876 -0.1837 1.5684 -1.476 0.8655 -2.326 -0.3263 -0.39449 -0.8382 -0.5849 -1.343 -0.4996L11.14 11.1547c-0.6685 0.1076 -1.32091 -0.2677 -1.56413 -0.8994L8.46619 7.25286c-0.37233 -1.03785 -1.72865 -1.28341 -2.4413 -0.44202 -0.3454 0.40786 -0.43499 0.97402 -0.23248 1.46865l1.11154 3.00231c0.73491 1.8958 2.69281 3.0221 4.70105 2.7043l0.6151 -0.104 0.5729 2.5716 -2.98221 4.2542c-0.66181 0.882 -0.12063 2.1496 0.97411 2.2818 0.5415 0.0653 1.0731 -0.1825 1.3712 -0.6393l2.9707 -4.2437 1.3532 -0.1499c0.6718 -0.0782 1.3058 0.3274 1.5164 0.9702l0.7 2.1008c0.3488 1.046 1.6992 1.3222 2.4307 0.4971 0.3395 -0.3829 0.449 -0.9179 0.2871 -1.4033l-0.7 -2.1009c-0.6558 -1.9108 -2.5415 -3.1179 -4.5513 -2.9135l-0.718 0.0793 -0.3973 -1.7868 5.3667 -0.8813Z" stroke-width="1"></path>
  <path fill="#c2f3ff" d="M8.61083 10.982c0.49179 1.1422 1.70927 1.7913 2.93167 1.5632l9.9991 -1.8669c-0.212 -0.68516 -0.898 -1.10796 -1.6053 -0.98937l-8.7978 1.46577c-0.6684 0.1076 -1.32088 -0.2677 -1.56409 -0.8994L8.46473 7.25289c-0.27845 -0.72417 -1.08285 -1.09504 -1.81434 -0.83651L8.61083 10.982Z" stroke-width="1"></path>
  <path stroke="#191919" stroke-linecap="round" stroke-linejoin="round" d="M20.4143 12.5184c1.0876 -0.1837 1.5684 -1.476 0.8655 -2.326 -0.3263 -0.39449 -0.8382 -0.5849 -1.343 -0.4996L11.14 11.1547c-0.6685 0.1076 -1.32091 -0.2677 -1.56413 -0.8994L8.46619 7.25286c-0.37233 -1.03785 -1.72865 -1.28341 -2.4413 -0.44202 -0.3454 0.40786 -0.43499 0.97402 -0.23248 1.46865l1.11154 3.00231c0.73491 1.8958 2.69281 3.0221 4.70105 2.7043l0.6151 -0.104 0.5729 2.5716 -2.98221 4.2542c-0.66181 0.882 -0.12063 2.1496 0.97411 2.2818 0.5415 0.0653 1.0731 -0.1825 1.3712 -0.6393l2.9707 -4.2437 1.3532 -0.1499c0.6718 -0.0782 1.3058 0.3274 1.5164 0.9702l0.7 2.1008c0.3488 1.046 1.6992 1.3222 2.4307 0.4971 0.3395 -0.3829 0.449 -0.9179 0.2871 -1.4033l-0.7 -2.1009c-0.6558 -1.9108 -2.5415 -3.1179 -4.5513 -2.9135l-0.718 0.0793 -0.3973 -1.7868 5.3667 -0.8813Z" stroke-width="1"></path>
  <path stroke="#191919" stroke-linecap="round" stroke-linejoin="round" d="M2.38965 6.25211 17.6685 1" stroke-width="1"></path>
</svg>