<svg xmlns="http://www.w3.org/2000/svg" fill="none" viewBox="0 0 24 24" id="Boxing-Head-Guard--Streamline-Ultimate">
  <desc>
    Boxing Head Guard Streamline Icon: https://streamlinehq.com
  </desc>
  <path fill="#ff808c" d="M2.50098 6.35158c0.00045 -0.75465 0.21401 -1.49382 0.6161 -2.13243 0.40209 -0.6386 0.97635 -1.15066 1.65668 -1.47723C7.0129 1.59951 9.49085 1.00391 12.0046 1.00391c2.5137 0 4.9917 0.5956 7.2308 1.73801 0.6776 0.32723 1.2494 0.83873 1.6497 1.4759 0.4005 0.63717 0.6133 1.37424 0.6141 2.12676V17.0006c0 1.5911 -0.6321 3.1171 -1.7573 4.2422C18.6168 22.3679 17.0909 23 15.4997 23H8.5004c-1.59114 0 -3.11712 -0.6321 -4.24223 -1.7572 -1.12511 -1.1251 -1.75719 -2.6511 -1.75719 -4.2422V6.35158Z" stroke-width="1"></path>
  <path fill="#ffbfc5" d="M19.2354 2.73802C16.9961 1.59561 14.5179 1 12.0041 1c-2.51391 0 -4.99203 0.59561 -7.23134 1.73802 -0.68067 0.3271 -1.25508 0.83987 -1.65701 1.47922 -0.40194 0.63935 -0.61505 1.37925 -0.61477 2.13444v3.99962c0.00048 -0.75451 0.21394 -1.49356 0.61583 -2.13213 0.40189 -0.63858 0.97589 -1.15072 1.65595 -1.47753 2.23931 -1.14241 4.71743 -1.73802 7.23134 -1.73802 2.5138 0 4.992 0.59561 7.2313 1.73802 0.6776 0.32724 1.2494 0.83874 1.6497 1.47591 0.4005 0.63717 0.6133 1.37423 0.6141 2.12675V6.34468c-0.0001 -0.7532 -0.2125 -1.49111 -0.613 -2.12906 -0.4004 -0.63795 -0.9726 -1.15007 -1.6508 -1.4776Z" stroke-width="1"></path>
  <path stroke="#191919" stroke-linecap="round" stroke-linejoin="round" d="M2.50098 6.35158c0.00045 -0.75465 0.21401 -1.49382 0.6161 -2.13243 0.40209 -0.6386 0.97635 -1.15066 1.65668 -1.47723C7.0129 1.59951 9.49085 1.00391 12.0046 1.00391c2.5137 0 4.9917 0.5956 7.2308 1.73801 0.6776 0.32723 1.2494 0.83873 1.6497 1.4759 0.4005 0.63717 0.6133 1.37424 0.6141 2.12676V17.0006c0 1.5911 -0.6321 3.1171 -1.7573 4.2422C18.6168 22.3679 17.0909 23 15.4997 23H8.5004c-1.59114 0 -3.11712 -0.6321 -4.24223 -1.7572 -1.12511 -1.1251 -1.75719 -2.6511 -1.75719 -4.2422V6.35158Z" stroke-width="1"></path>
  <path fill="#ffdda1" d="M5.50098 9.50139c0 -0.1326 0.05267 -0.25977 0.14643 -0.35352 0.09376 -0.09376 0.22092 -0.14644 0.35352 -0.14644H17.9998c0.1326 0 0.2598 0.05268 0.3536 0.14644 0.0936 0.09375 0.1463 0.22092 0.1463 0.35352v1.18191c-0.0002 0.5706 -0.1232 1.1345 -0.3608 1.6533 -0.2376 0.5189 -0.5842 0.9804 -1.016 1.3534 -3.5797 3.0887 -0.133 4.1866 0.8669 4.9485 0.0588 0.1514 0.0798 0.3149 0.0613 0.4763 -0.0186 0.1614 -0.0762 0.3158 -0.1679 0.4499 -0.0917 0.1341 -0.2147 0.2439 -0.3583 0.3198 -0.1437 0.0759 -0.3035 0.1157 -0.466 0.1159H6.95884c-0.16234 0.0001 -0.32225 -0.0393 -0.46595 -0.1149 -0.14368 -0.0755 -0.26682 -0.1849 -0.35876 -0.3187 -0.09195 -0.1338 -0.14994 -0.2879 -0.16897 -0.4491 -0.01903 -0.1612 0.00149 -0.3247 0.05977 -0.4762 0.9999 -0.7699 4.43557 -1.8688 0.85592 -4.9375 -0.43297 -0.3707 -0.78052 -0.8308 -1.01872 -1.3486 -0.2382 -0.5178 -0.36141 -1.0812 -0.36115 -1.6511V9.50139Z" stroke-width="1"></path>
  <path fill="#ffbc44" d="M18.4867 11.0012c0.009 -0.1049 0.013 -0.2119 0.013 -0.3179V9.50139c0 -0.1326 -0.0527 -0.25977 -0.1463 -0.35352 -0.0938 -0.09376 -0.221 -0.14644 -0.3536 -0.14644H6.00093c-0.1326 0 -0.25977 0.05268 -0.35352 0.14644 -0.09376 0.09375 -0.14643 0.22092 -0.14643 0.35352v1.19991c0 0.1 0 0.2 0.011 0.2999H18.4867Z" stroke-width="1"></path>
  <path stroke="#191919" stroke-linecap="round" stroke-linejoin="round" d="M5.50098 9.50139c0 -0.1326 0.05267 -0.25977 0.14643 -0.35352 0.09376 -0.09376 0.22092 -0.14644 0.35352 -0.14644H17.9998c0.1326 0 0.2598 0.05268 0.3536 0.14644 0.0936 0.09375 0.1463 0.22092 0.1463 0.35352v1.18191c-0.0002 0.5706 -0.1232 1.1345 -0.3608 1.6533 -0.2376 0.5189 -0.5842 0.9804 -1.016 1.3534 -3.5797 3.0887 -0.133 4.1866 0.8669 4.9485 0.0588 0.1514 0.0798 0.3149 0.0613 0.4763 -0.0186 0.1614 -0.0762 0.3158 -0.1679 0.4499 -0.0917 0.1341 -0.2147 0.2439 -0.3583 0.3198 -0.1437 0.0759 -0.3035 0.1157 -0.466 0.1159H6.95884c-0.16234 0.0001 -0.32225 -0.0393 -0.46595 -0.1149 -0.14368 -0.0755 -0.26682 -0.1849 -0.35876 -0.3187 -0.09195 -0.1338 -0.14994 -0.2879 -0.16897 -0.4491 -0.01903 -0.1612 0.00149 -0.3247 0.05977 -0.4762 0.9999 -0.7699 4.43557 -1.8688 0.85592 -4.9375 -0.43297 -0.3707 -0.78052 -0.8308 -1.01872 -1.3486 -0.2382 -0.5178 -0.36141 -1.0812 -0.36115 -1.6511V9.50139Z" stroke-width="1"></path>
  <path fill="#ffffff" stroke="#191919" stroke-linecap="round" stroke-linejoin="round" d="M16.0002 4.00192H8.00093c-0.27611 0 -0.49995 0.22384 -0.49995 0.49996v1.9998c0 0.27612 0.22384 0.49996 0.49995 0.49996h7.99927c0.276 0 0.4999 -0.22384 0.4999 -0.49996v-1.9998c0 -0.27612 -0.2239 -0.49996 -0.4999 -0.49996Z" stroke-width="1"></path>
  <path stroke="#191919" stroke-linecap="round" stroke-linejoin="round" d="M9.5 11.0013v1.9998" stroke-width="1"></path>
  <path stroke="#191919" stroke-linecap="round" stroke-linejoin="round" d="M14.5 11.0013v1.9998" stroke-width="1"></path>
  <path stroke="#191919" stroke-linecap="round" stroke-linejoin="round" d="M10.5 17.0007h2.9997" stroke-width="1"></path>
</svg>