<svg xmlns="http://www.w3.org/2000/svg" fill="none" viewBox="0 0 24 24" id="Paralympics-Football--Streamline-Ultimate">
  <desc>
    Paralympics Football Streamline Icon: https://streamlinehq.com
  </desc>
  <path stroke="#191919" stroke-linecap="round" stroke-linejoin="round" d="m15.9033 18.2139 0.9362 3.6341c0.0507 0.1955 0.1395 0.3793 0.2611 0.5404 0.1216 0.1613 0.274 0.2971 0.4481 0.3994 0.1742 0.1025 0.3668 0.1696 0.567 0.1975 0.2001 0.0279 0.4037 0.0161 0.5992 -0.0347l0.0277 -0.0077c0.2454 -0.0635 0.4711 -0.1867 0.6574 -0.3586 0.1861 -0.1718 0.3269 -0.387 0.4099 -0.6264" stroke-width="1"></path>
  <path fill="#ffdda1" stroke="#191919" stroke-linecap="round" stroke-linejoin="round" d="M12.5099 5.78168c1.3205 0 2.3909 -1.07041 2.3909 -2.39089C14.9008 2.07032 13.8304 1 12.5099 1c-1.3204 0 -2.3908 1.07042 -2.3908 2.39079 0 1.32038 1.0705 2.39089 2.3908 2.39089Z" stroke-width="1"></path>
  <path fill="#ffffff" stroke="#191919" stroke-linecap="round" stroke-linejoin="round" d="M11.8394 22.9955c1.0564 0 1.9126 -0.8563 1.9126 -1.9126 0 -1.0564 -0.8562 -1.9127 -1.9126 -1.9127s-1.91264 0.8563 -1.91264 1.9127c0 1.0563 0.85624 1.9126 1.91264 1.9126Z" stroke-width="1"></path>
  <path fill="#66e1ff" d="M18.0179 19.0314c0.2631 -0.0932 0.4816 -0.2815 0.6126 -0.528 0.131 -0.2463 0.1649 -0.533 0.0951 -0.8032 -0.1486 -0.8138 -0.5281 -1.5678 -1.0932 -2.1718 -0.5652 -0.6043 -1.292 -1.0331 -2.0942 -1.2355l-1.1764 -0.2946 -0.5269 -3.4351h1.5436c0.8606 0.003 1.7022 -0.2535 2.415 -0.73584 0.7127 -0.48245 1.2634 -1.1685 1.5805 -1.96865l0.2352 -0.58718c0.0717 -0.1752 0.108 -0.36289 0.107 -0.55224 -0.0012 -0.18926 -0.0398 -0.37656 -0.1136 -0.55088 -0.0739 -0.17432 -0.1815 -0.33224 -0.3167 -0.46478 -0.1352 -0.13255 -0.2952 -0.23708 -0.471 -0.30745 -0.1758 -0.07028 -0.3637 -0.10522 -0.553 -0.10258 -0.1893 0.00263 -0.3763 0.04265 -0.55 0.1179 -0.1738 0.07516 -0.3309 0.18408 -0.4625 0.32024 -0.1313 0.13625 -0.2346 0.2972 -0.3035 0.47347l-0.2353 0.58816c-0.1057 0.26665 -0.2895 0.49524 -0.527 0.65599 -0.2377 0.16065 -0.5183 0.24606 -0.8051 0.24489H8.206c-0.73407 0.02625 -1.45224 0.22097 -2.09896 0.56922 -0.64682 0.34825 -1.20472 0.84065 -1.63075 1.43906 -0.11303 0.1507 -0.19521 0.32217 -0.24196 0.50457 -0.04675 0.1826 -0.0571 0.3725 -0.03045 0.5589 0.05377 0.3767 0.25494 0.7165 0.55936 0.9448 0.30433 0.2282 0.68693 0.3263 1.06358 0.2724 0.37656 -0.0538 0.71641 -0.255 0.9447 -0.5593l0.28686 -0.2869c0.13411 -0.1776 0.30755 -0.3218 0.50656 -0.4213 0.19911 -0.0996 0.41852 -0.1517 0.64106 -0.1525h2.6844l0.568 3.6283 -2.27978 0.6847c-0.19092 0.0565 -0.39129 0.0729 -0.58884 0.0482 -0.19745 -0.0247 -0.38768 -0.09 -0.55878 -0.1916l-1.30447 -0.7823c-0.32629 -0.1957 -0.7169 -0.2537 -1.08603 -0.1613 -0.36914 0.0923 -0.68635 0.3275 -0.88204 0.6538 -0.1957 0.3263 -0.25377 0.717 -0.16134 1.0861 0.09233 0.3691 0.32756 0.6864 0.65384 0.8821l1.3035 0.7822c0.51358 0.3076 1.08564 0.5049 1.67975 0.5792 0.59411 0.0741 1.1971 0.0239 1.77059 -0.1479l2.4348 -0.7306c0.4945 -0.1484 1.0198 -0.1606 1.5206 -0.0354l0.8817 0.22c0.2676 0.067 0.5099 0.2098 0.6985 0.4111 0.1884 0.2013 0.3148 0.4527 0.3641 0.724 0.0476 0.1821 0.1325 0.3523 0.2491 0.4998 0.1168 0.1475 0.2629 0.2694 0.4289 0.3577 0.1661 0.0883 0.3488 0.1413 0.5364 0.1555 0.1877 0.0142 0.3762 -0.0107 0.5537 -0.0729l0.3453 -0.1225Z" stroke-width="1"></path>
  <path fill="#c2f3ff" d="M6.27002 10.199c0.92636 -0.69439 2.0527 -1.06987 3.21037 -1.07016h5.64231c0.5032 0.0001 0.9968 -0.13606 1.4287 -0.39402 0.432 -0.25797 0.7859 -0.62808 1.0243 -1.0711l1.2146 -2.26459c-0.3518 -0.1347 -0.7425 -0.12572 -1.0876 0.02508 -0.3451 0.1509 -0.6172 0.43141 -0.7572 0.78112l-0.2352 0.58816c-0.1058 0.26665 -0.2895 0.49524 -0.5271 0.65589 -0.2377 0.16075 -0.5183 0.24606 -0.8051 0.24489H8.2056c-0.73408 0.02625 -1.45224 0.22107 -2.09896 0.56932 -0.64672 0.34825 -1.20472 0.84065 -1.63066 1.43896 -0.1954 0.26207 -0.29545 0.58285 -0.28364 0.90945 0.01181 0.3267 0.13489 0.6394 0.34864 0.8866l1.72904 -1.2996Z" stroke-width="1"></path>
  <path stroke="#191919" stroke-linecap="round" stroke-linejoin="round" d="M18.0179 19.0314c0.2631 -0.0932 0.4816 -0.2815 0.6126 -0.528 0.131 -0.2463 0.1649 -0.533 0.0951 -0.8032 -0.1486 -0.8138 -0.5281 -1.5678 -1.0932 -2.1718 -0.5652 -0.6043 -1.292 -1.0331 -2.0942 -1.2355l-1.1764 -0.2946 -0.5269 -3.4351h1.5436c0.8606 0.003 1.7022 -0.2535 2.415 -0.73584 0.7127 -0.48245 1.2634 -1.1685 1.5805 -1.96865l0.2352 -0.58718c0.0717 -0.1752 0.108 -0.36289 0.107 -0.55224 -0.0012 -0.18926 -0.0398 -0.37656 -0.1136 -0.55088 -0.0739 -0.17432 -0.1815 -0.33224 -0.3167 -0.46478 -0.1352 -0.13255 -0.2952 -0.23708 -0.471 -0.30745 -0.1758 -0.07028 -0.3637 -0.10522 -0.553 -0.10258 -0.1893 0.00263 -0.3763 0.04265 -0.55 0.1179 -0.1738 0.07516 -0.3309 0.18408 -0.4625 0.32024 -0.1313 0.13625 -0.2346 0.2972 -0.3035 0.47347l-0.2353 0.58816c-0.1057 0.26665 -0.2895 0.49524 -0.527 0.65599 -0.2377 0.16065 -0.5183 0.24606 -0.8051 0.24489H8.206c-0.73407 0.02625 -1.45224 0.22097 -2.09896 0.56922 -0.64682 0.34825 -1.20472 0.84065 -1.63075 1.43906 -0.11303 0.1507 -0.19521 0.32217 -0.24196 0.50457 -0.04675 0.1826 -0.0571 0.3725 -0.03045 0.5589 0.05377 0.3767 0.25494 0.7165 0.55936 0.9448 0.30433 0.2282 0.68693 0.3263 1.06358 0.2724 0.37656 -0.0538 0.71641 -0.255 0.9447 -0.5593l0.28686 -0.2869c0.13411 -0.1776 0.30755 -0.3218 0.50656 -0.4213 0.19911 -0.0996 0.41852 -0.1517 0.64106 -0.1525h2.6844l0.568 3.6283 -2.27978 0.6847c-0.19092 0.0565 -0.39129 0.0729 -0.58884 0.0482 -0.19745 -0.0247 -0.38768 -0.09 -0.55878 -0.1916l-1.30447 -0.7823c-0.32629 -0.1957 -0.7169 -0.2537 -1.08603 -0.1613 -0.36914 0.0923 -0.68635 0.3275 -0.88204 0.6538 -0.1957 0.3263 -0.25377 0.717 -0.16134 1.0861 0.09233 0.3691 0.32756 0.6864 0.65384 0.8821l1.3035 0.7822c0.51358 0.3076 1.08564 0.5049 1.67975 0.5792 0.59411 0.0741 1.1971 0.0239 1.77059 -0.1479l2.4348 -0.7306c0.4945 -0.1484 1.0198 -0.1606 1.5206 -0.0354l0.8817 0.22c0.2676 0.067 0.5099 0.2098 0.6985 0.4111 0.1884 0.2013 0.3148 0.4527 0.3641 0.724 0.0476 0.1821 0.1325 0.3523 0.2491 0.4998 0.1168 0.1475 0.2629 0.2694 0.4289 0.3577 0.1661 0.0883 0.3488 0.1413 0.5364 0.1555 0.1877 0.0142 0.3762 -0.0107 0.5537 -0.0729l0.3453 -0.1225Z" stroke-width="1"></path>
</svg>