<svg xmlns="http://www.w3.org/2000/svg" fill="none" viewBox="0 0 24 24" id="Skateboard-Person--Streamline-Ultimate">
  <desc>
    Skateboard Person Streamline Icon: https://streamlinehq.com
  </desc>
  <path fill="#66e1ff" d="m13.3554 21.087 1.4348 -2.8065c0.2038 -0.3977 0.3259 -0.8322 0.359 -1.2779 0.0332 -0.4457 -0.0231 -0.8935 -0.1658 -1.317 -0.1427 -0.4236 -0.3686 -0.8143 -0.6647 -1.1491 -0.296 -0.3348 -0.656 -0.6069 -1.0589 -0.8004l-1.7734 -0.8523 1.3391 -2.3195h6.8267c0.3805 0 0.7455 -0.1512 1.0146 -0.4202 0.2691 -0.26911 0.4202 -0.63405 0.4202 -1.01458 0 -0.38053 -0.1511 -0.74547 -0.4202 -1.01455 -0.2691 -0.26907 -0.6341 -0.42024 -1.0146 -0.42024H4.34787c-0.38052 0 -0.74548 0.15117 -1.01455 0.42024 -0.26907 0.26908 -0.42023 0.63402 -0.42023 1.01455 0 0.38053 0.15116 0.74547 0.42023 1.01458 0.26907 0.269 0.63403 0.4202 1.01455 0.4202h5.16522L3.58265 20.8469c-0.09421 0.1633 -0.15533 0.3436 -0.17988 0.5305 -0.02455 0.1869 -0.01204 0.3768 0.03681 0.5589 0.04885 0.1821 0.13309 0.3527 0.24791 0.5023 0.11481 0.1495 0.25795 0.2749 0.42125 0.3692 0.1633 0.0942 0.34354 0.1553 0.53047 0.1799 0.18691 0.0245 0.37684 0.012 0.55892 -0.0368 0.18208 -0.0489 0.35277 -0.1331 0.50229 -0.248 0.14953 -0.1148 0.27498 -0.2579 0.36919 -0.4212l3.98389 -6.9061 1.9685 0.9469c0.0579 0.0273 0.1096 0.066 0.1519 0.114 0.0425 0.0478 0.0747 0.1037 0.0949 0.1644 0.0203 0.0604 0.0283 0.1243 0.0236 0.1879 -0.0048 0.0636 -0.0222 0.1255 -0.0513 0.1823l-1.0388 2.0259 2.1531 2.09Z" stroke-width="1"></path>
  <path fill="#ffdda1" stroke="#191919" stroke-linecap="round" stroke-linejoin="round" d="M13.9128 5.78261c1.3207 0 2.3913 -1.07063 2.3913 -2.39131C16.3041 2.07063 15.2335 1 13.9128 1c-1.3207 0 -2.3913 1.07063 -2.3913 2.3913 0 1.32068 1.0706 2.39131 2.3913 2.39131Z" stroke-width="1"></path>
  <path fill="#c2f3ff" d="M21.087 9.13043c0 -0.38052 -0.1511 -0.74547 -0.4202 -1.01454 -0.2691 -0.26907 -0.6341 -0.42024 -1.0146 -0.42024H4.34787c-0.38052 0 -0.74548 0.15117 -1.01455 0.42024 -0.26907 0.26907 -0.42023 0.63402 -0.42023 1.01454H21.087Z" stroke-width="1"></path>
  <path stroke="#191919" stroke-linecap="round" stroke-linejoin="round" d="m13.3554 21.087 1.4348 -2.8065c0.2038 -0.3977 0.3259 -0.8322 0.359 -1.2779 0.0332 -0.4457 -0.0231 -0.8935 -0.1658 -1.317 -0.1427 -0.4236 -0.3686 -0.8143 -0.6647 -1.1491 -0.296 -0.3348 -0.656 -0.6069 -1.0589 -0.8004l-1.7734 -0.8523 1.3391 -2.3195h6.8267c0.3805 0 0.7455 -0.1512 1.0146 -0.4202 0.2691 -0.26911 0.4202 -0.63405 0.4202 -1.01458 0 -0.38053 -0.1511 -0.74547 -0.4202 -1.01455 -0.2691 -0.26907 -0.6341 -0.42024 -1.0146 -0.42024H4.34787c-0.38052 0 -0.74548 0.15117 -1.01455 0.42024 -0.26907 0.26908 -0.42023 0.63402 -0.42023 1.01455 0 0.38053 0.15116 0.74547 0.42023 1.01458 0.26907 0.269 0.63403 0.4202 1.01455 0.4202h5.16522L3.58265 20.8469c-0.09421 0.1633 -0.15533 0.3436 -0.17988 0.5305 -0.02455 0.1869 -0.01204 0.3768 0.03681 0.5589 0.04885 0.1821 0.13309 0.3527 0.24791 0.5023 0.11481 0.1495 0.25795 0.2749 0.42125 0.3692 0.1633 0.0942 0.34354 0.1553 0.53047 0.1799 0.18691 0.0245 0.37684 0.012 0.55892 -0.0368 0.18208 -0.0489 0.35277 -0.1331 0.50229 -0.248 0.14953 -0.1148 0.27498 -0.2579 0.36919 -0.4212l3.98389 -6.9061 1.9685 0.9469c0.0579 0.0273 0.1096 0.066 0.1519 0.114 0.0425 0.0478 0.0747 0.1037 0.0949 0.1644 0.0203 0.0604 0.0283 0.1243 0.0236 0.1879 -0.0048 0.0636 -0.0222 0.1255 -0.0513 0.1823l-1.0388 2.0259" stroke-width="1"></path>
  <path stroke="#191919" stroke-linecap="round" stroke-linejoin="round" d="M8.65234 21.0869H19.1741" stroke-width="1"></path>
  <path fill="#808080" stroke="#191919" stroke-linecap="round" stroke-linejoin="round" d="M17.2612 23c0.5283 0 0.9565 -0.4282 0.9565 -0.9565s-0.4282 -0.9566 -0.9565 -0.9566 -0.9565 0.4283 -0.9565 0.9566 0.4282 0.9565 0.9565 0.9565Z" stroke-width="1"></path>
  <path fill="#808080" stroke="#191919" stroke-linecap="round" stroke-linejoin="round" d="M10.5649 23c0.5283 0 0.9565 -0.4282 0.9565 -0.9565s-0.4282 -0.9566 -0.9565 -0.9566c-0.5282 0 -0.9565 0.4283 -0.9565 0.9566s0.4283 0.9565 0.9565 0.9565Z" stroke-width="1"></path>
</svg>