<svg xmlns="http://www.w3.org/2000/svg" fill="none" viewBox="0 0 24 24" id="Yoga-Down-Stretch--Streamline-Ultimate">
  <desc>
    Yoga Down Stretch Streamline Icon: https://streamlinehq.com
  </desc>
  <path fill="#ffdda1" d="M6.26049 13.6579c1.3207 0 2.39134 -1.0707 2.39134 -2.3914 0 -1.32067 -1.07064 -2.39132 -2.39134 -2.39132 -1.32071 0 -2.39135 1.07065 -2.39135 2.39132 0 1.3207 1.07064 2.3914 2.39135 2.3914Z" stroke-width="1"></path>
  <path fill="#ffdda1" d="m20.3718 17.8016 -6.1084 -9.16269c-0.0431 -0.06432 -0.101 -0.11725 -0.1691 -0.15424 -0.0679 -0.03699 -0.1438 -0.05692 -0.2212 -0.05811 -0.078 -0.00431 -0.1557 0.01199 -0.2254 0.04725 -0.0697 0.03525 -0.1289 0.08825 -0.1716 0.15362L6.9535 17.837c-0.13256 0.1871 -0.30805 0.3398 -0.51176 0.4452 -0.20371 0.1053 -0.42971 0.1603 -0.65905 0.1603H2.43481c-0.38053 0 -0.74549 -0.1511 -1.01456 -0.4202C1.15117 17.7531 1 17.3882 1 17.0077c0 -0.3805 0.15117 -0.7455 0.42025 -1.0146 0.26907 -0.2691 0.63403 -0.4202 1.01456 -0.4202h2.35882c0.07645 0 0.15178 -0.0184 0.21968 -0.0535 0.06791 -0.0351 0.12641 -0.086 0.17059 -0.1484l5.9554 -8.40125c0.3184 -0.43734 0.7357 -0.79327 1.2177 -1.03879 0.4821 -0.24551 1.0153 -0.37366 1.5563 -0.37401 0.5429 0.00776 1.0759 0.14748 1.5528 0.40712 0.4769 0.25962 0.8836 0.63137 1.1848 1.08316l6.1084 9.16367c0.2111 0.3171 0.2876 0.705 0.2126 1.0786 -0.075 0.3734 -0.2953 0.7018 -0.6124 0.9129 -0.3171 0.2111 -0.7051 0.2875 -1.0786 0.2125 -0.3734 -0.075 -0.7018 -0.2952 -0.9129 -0.6123l0.0038 -0.001Z" stroke-width="1"></path>
  <path fill="#66e1ff" d="m6.69629 13.2341 2.289 1.7323 3.69221 -5.21122 -2.289 -1.73229 -3.69221 5.21121Z" stroke-width="1"></path>
  <path stroke="#191919" stroke-linecap="round" stroke-linejoin="round" d="M4.36272 12.7214c-0.32127 -0.4185 -0.49515 -0.9314 -0.49455 -1.459 0.0006 -0.5275 0.17564 -1.0401 0.49785 -1.45784 0.32222 -0.41773 0.77355 -0.71718 1.28367 -0.85172 0.51012 -0.13453 1.05041 -0.0966 1.53674 0.10789" stroke-width="1"></path>
  <path stroke="#191919" stroke-linecap="round" stroke-linejoin="round" d="m20.3718 17.8016 -6.1084 -9.16269c-0.0431 -0.06432 -0.101 -0.11725 -0.1691 -0.15424 -0.0679 -0.03699 -0.1438 -0.05692 -0.2212 -0.05811 -0.078 -0.00431 -0.1557 0.01199 -0.2254 0.04725 -0.0697 0.03525 -0.1289 0.08825 -0.1716 0.15362L6.9535 17.837c-0.13256 0.1871 -0.30805 0.3398 -0.51176 0.4452 -0.20371 0.1053 -0.42971 0.1603 -0.65905 0.1603H2.43481c-0.38053 0 -0.74549 -0.1511 -1.01456 -0.4202C1.15117 17.7531 1 17.3882 1 17.0077c0 -0.3805 0.15117 -0.7455 0.42025 -1.0146 0.26907 -0.2691 0.63403 -0.4202 1.01456 -0.4202h2.35882c0.07645 0 0.15178 -0.0184 0.21968 -0.0535 0.06791 -0.0351 0.12641 -0.086 0.17059 -0.1484l5.9554 -8.40125c0.3184 -0.43734 0.7357 -0.79327 1.2177 -1.03879 0.4821 -0.24551 1.0153 -0.37366 1.5563 -0.37401 0.5429 0.00776 1.0759 0.14748 1.5528 0.40712 0.4769 0.25962 0.8836 0.63137 1.1848 1.08316l6.1084 9.16367c0.2111 0.3171 0.2876 0.705 0.2126 1.0786 -0.075 0.3734 -0.2953 0.7018 -0.6124 0.9129 -0.3171 0.2111 -0.7051 0.2875 -1.0786 0.2125 -0.3734 -0.075 -0.7018 -0.2952 -0.9129 -0.6123l0.0038 -0.001Z" stroke-width="1"></path>
  <path stroke="#191919" stroke-linecap="round" stroke-linejoin="round" d="m12.6777 9.75518 -2.289 -1.73229" stroke-width="1"></path>
  <path stroke="#191919" stroke-linecap="round" stroke-linejoin="round" d="m8.98529 14.9664 -2.289 -1.7323" stroke-width="1"></path>
</svg>