<svg xmlns="http://www.w3.org/2000/svg" fill="none" viewBox="0 0 14 14" id="Application-Add--Streamline-Flex">
  <desc>
    Application Add Streamline Icon: https://streamlinehq.com
  </desc>
  <g id="application-add--application-new-add-square">
    <path id="Union" fill="#2859c5" fill-rule="evenodd" d="M11.476 8.718a0.75 0.75 0 0 0 -1.5 0v1.378H8.598a0.75 0.75 0 0 0 0 1.5h1.378v1.378a0.75 0.75 0 0 0 1.5 0v-1.378h1.378a0.75 0.75 0 0 0 0 -1.5h-1.378V8.718Z" clip-rule="evenodd" stroke-width="1"></path>
    <path id="Union_2" fill="#8fbffa" fill-rule="evenodd" d="M3.274 0.25c-0.46 0 -0.904 0.042 -1.32 0.088a1.704 1.704 0 0 0 -1.5 1.506c-0.045 0.413 -0.084 0.855 -0.084 1.31 0 0.455 0.04 0.896 0.084 1.31a1.704 1.704 0 0 0 1.5 1.505c0.416 0.047 0.86 0.089 1.32 0.089 0.46 0 0.904 -0.042 1.32 -0.089a1.704 1.704 0 0 0 1.5 -1.505c0.045 -0.414 0.084 -0.855 0.084 -1.31 0 -0.455 -0.04 -0.897 -0.084 -1.31a1.704 1.704 0 0 0 -1.5 -1.506A11.87 11.87 0 0 0 3.274 0.25Zm0 7.692c-0.46 0 -0.904 0.042 -1.32 0.089a1.704 1.704 0 0 0 -1.5 1.505c-0.045 0.414 -0.084 0.855 -0.084 1.31 0 0.456 0.04 0.897 0.084 1.31a1.704 1.704 0 0 0 1.5 1.506c0.416 0.046 0.86 0.088 1.32 0.088 0.46 0 0.904 -0.042 1.32 -0.088a1.704 1.704 0 0 0 1.5 -1.505c0.045 -0.414 0.084 -0.855 0.084 -1.31 0 -0.456 -0.04 -0.897 -0.084 -1.311a1.704 1.704 0 0 0 -1.5 -1.505c-0.416 -0.047 -0.86 -0.089 -1.32 -0.089ZM9.406 0.338c0.416 -0.046 0.86 -0.088 1.32 -0.088 0.46 0 0.904 0.042 1.32 0.088a1.704 1.704 0 0 1 1.5 1.506c0.045 0.413 0.084 0.855 0.084 1.31 0 0.455 -0.04 0.896 -0.084 1.31a1.704 1.704 0 0 1 -1.5 1.505c-0.416 0.047 -0.86 0.089 -1.32 0.089 -0.46 0 -0.904 -0.042 -1.32 -0.089a1.704 1.704 0 0 1 -1.5 -1.505 12.276 12.276 0 0 1 -0.084 -1.31c0 -0.455 0.04 -0.897 0.084 -1.31a1.704 1.704 0 0 1 1.5 -1.506Z" clip-rule="evenodd" stroke-width="1"></path>
  </g>
</svg>