<svg xmlns="http://www.w3.org/2000/svg" fill="none" viewBox="0 0 14 14" id="Cloud-Data-Transfer--Streamline-Flex">
  <desc>
    Cloud Data Transfer Streamline Icon: https://streamlinehq.com
  </desc>
  <g id="cloud-data-transfer--cloud-data-transfer-internet-server-network">
    <path id="Subtract" fill="#8fbffa" fill-rule="evenodd" d="M11.278 3.953c0.031 0.034 0.071 0.06 0.116 0.073a2.74 2.74 0 0 1 1.611 1.068 2.644 2.644 0 0 1 -0.409 3.54c-0.438 0.388 -1 0.7 -1.64 0.938a2.041 2.041 0 0 0 -0.74 -0.28v-1.26a2 2 0 0 0 -3.203 -1.599 1.99 1.99 0 0 0 -0.267 -0.172c-0.907 -0.49 -1.744 -0.093 -2.11 0.174 -0.453 0.333 -1.4 1.187 -2.13 2.134a2.013 2.013 0 0 0 -0.261 0.448 4.578 4.578 0 0 1 -0.655 -0.463A3.116 3.116 0 0 1 0.503 6.401a3.1 3.1 0 0 1 0.784 -2.275c0.277 -0.31 0.613 -0.564 0.99 -0.747a3.251 3.251 0 0 1 1.206 -0.32 0.232 0.232 0 0 0 0.21 -0.124A3.817 3.817 0 0 1 5.303 0.95a3.941 3.941 0 0 1 4.839 0.575A3.77 3.77 0 0 1 11.22 3.83a0.24 0.24 0 0 0 0.057 0.124ZM6.52 10.148V9.78c0 -0.02 0 -0.038 -0.002 -0.057V8.031l0 1.692a0.761 0.761 0 0 1 0.002 0.057v0.368Zm-0.222 -2.682a0.67 0.67 0 0 1 -0.145 -0.105 0.648 0.648 0 0 0 0.145 0.105Z" clip-rule="evenodd" stroke-width="1"></path>
    <path id="Intersect" fill="#2859c5" fill-rule="evenodd" d="m3.491 3.06 0.037 0.001c0.483 0 0.956 0.16 1.348 0.406 0.4 0.25 0.668 0.557 0.78 0.795a0.625 0.625 0 0 0 1.131 -0.53c-0.238 -0.507 -0.698 -0.98 -1.248 -1.325a3.963 3.963 0 0 0 -1.279 -0.519 3.777 3.777 0 0 0 -0.568 1.047 0.225 0.225 0 0 1 -0.2 0.125Z" clip-rule="evenodd" stroke-width="1"></path>
    <path id="Union" fill="#2859c5" fill-rule="evenodd" d="M10.49 11.691a0.72 0.72 0 0 0 0.152 -0.5 0.72 0.72 0 0 0 -0.199 -0.437 0.78 0.78 0 0 0 -0.858 -0.181 2.45 2.45 0 0 1 -0.619 0.165V8.03a0.75 0.75 0 0 0 -1.5 0v3.213l0.002 0.056v1.693c0 0.209 0.074 0.513 0.366 0.67 0.3 0.163 0.6 0.046 0.776 -0.083 0.362 -0.265 1.224 -1.038 1.88 -1.889ZM3.495 9.333a0.72 0.72 0 0 0 -0.152 0.5 0.72 0.72 0 0 0 0.198 0.437 0.781 0.781 0 0 0 0.859 0.18c0.214 -0.085 0.418 -0.14 0.618 -0.164l0 2.707a0.75 0.75 0 0 0 1.5 0V9.78c0 -0.02 0 -0.038 -0.002 -0.056l0 -1.693c0 -0.21 -0.074 -0.513 -0.365 -0.67 -0.301 -0.163 -0.601 -0.046 -0.777 0.083 -0.362 0.265 -1.224 1.038 -1.88 1.889Z" clip-rule="evenodd" stroke-width="1"></path>
  </g>
</svg>