<svg xmlns="http://www.w3.org/2000/svg" fill="none" viewBox="0 0 14 14" id="Code-Analysis--Streamline-Flex">
  <desc>
    Code Analysis Streamline Icon: https://streamlinehq.com
  </desc>
  <g id="code-analysis">
    <path id="Vector" fill="#8fbffa" d="M2.329 9.704c1.806 2.121 6.056 2.121 7.863 0 1.663 -1.954 1.537 -5.777 -0.465 -7.45 -1.794 -1.498 -5.14 -1.498 -6.933 0C0.792 3.927 0.665 7.75 2.329 9.704Z" stroke-width="1"></path>
    <path id="Union" fill="#2859c5" fill-rule="evenodd" d="M3.275 2.83c0.729 -0.61 1.828 -0.95 2.985 -0.95 1.157 0 2.257 0.34 2.986 0.95 0.795 0.664 1.272 1.814 1.339 3.083 0.066 1.269 -0.286 2.509 -0.964 3.305 -0.72 0.845 -1.994 1.327 -3.36 1.327 -1.367 0 -2.641 -0.482 -3.361 -1.327 -0.678 -0.796 -1.03 -2.036 -0.964 -3.305 0.066 -1.27 0.544 -2.42 1.339 -3.083Zm6.932 -1.151C9.143 0.789 7.673 0.38 6.26 0.38c-1.412 0 -2.883 0.41 -3.947 1.299C1.106 2.687 0.519 4.285 0.438 5.834c-0.082 1.55 0.334 3.199 1.32 4.356 1.086 1.276 2.84 1.855 4.502 1.855 1.15 0 2.343 -0.277 3.33 -0.87a0.997 0.997 0 0 0 0.105 0.122l2 2a1.1 1.1 0 0 0 1.556 -1.556l-2 -2a1.12 1.12 0 0 0 -0.095 -0.084c0.702 -1.1 0.996 -2.498 0.927 -3.823 -0.082 -1.549 -0.668 -3.147 -1.876 -4.155Zm-4.67 5.733a0.625 0.625 0 1 1 -0.92 0.846L3.123 6.636a0.625 0.625 0 0 1 0 -0.846l1.492 -1.623a0.625 0.625 0 0 1 0.92 0.846l-1.103 1.2 1.103 1.2Zm1.484 0.884a0.625 0.625 0 0 1 -0.037 -0.884l1.103 -1.2 -1.103 -1.199a0.625 0.625 0 0 1 0.92 -0.846L9.397 5.79c0.22 0.239 0.22 0.607 0 0.846L7.904 8.258a0.625 0.625 0 0 1 -0.883 0.038Z" clip-rule="evenodd" stroke-width="1"></path>
  </g>
</svg>