<svg xmlns="http://www.w3.org/2000/svg" fill="none" viewBox="0 0 14 14" id="Steps-2--Streamline-Flex">
  <desc>
    Steps 2 Streamline Icon: https://streamlinehq.com
  </desc>
  <g id="steps-2--interface-internet-menu-progress-bubble-bar">
    <path id="Vector" stroke="#2859c5" stroke-linecap="round" stroke-linejoin="round" stroke-width="1.25" d="M3.308 7h1.846"></path>
    <path id="Vector_2" stroke="#2859c5" stroke-linecap="round" stroke-linejoin="round" stroke-width="1.25" d="M8.846 7h1.846"></path>
    <path id="Union" fill="#8fbffa" fill-rule="evenodd" d="M5.28 5.28c0.433 -0.433 1.037 -0.626 1.72 -0.626s1.287 0.193 1.72 0.626c0.433 0.433 0.626 1.037 0.626 1.72s-0.193 1.287 -0.626 1.72c-0.433 0.433 -1.037 0.626 -1.72 0.626s-1.287 -0.193 -1.72 -0.626c-0.433 -0.433 -0.626 -1.037 -0.626 -1.72s0.193 -1.287 0.626 -1.72Zm6.816 0.066c-0.461 0 -0.892 0.131 -1.207 0.447 -0.315 0.315 -0.447 0.746 -0.447 1.207 0 0.461 0.132 0.892 0.447 1.207 0.315 0.316 0.746 0.447 1.207 0.447 0.461 0 0.893 -0.131 1.208 -0.447 0.315 -0.315 0.446 -0.746 0.446 -1.207 0 -0.461 -0.131 -0.892 -0.446 -1.207 -0.316 -0.316 -0.747 -0.447 -1.208 -0.447Zm-10.192 0c-0.461 0 -0.892 0.131 -1.208 0.447C0.381 6.108 0.25 6.539 0.25 7c0 0.461 0.131 0.892 0.446 1.207 0.316 0.316 0.747 0.447 1.208 0.447 0.461 0 0.892 -0.131 1.207 -0.447 0.315 -0.315 0.447 -0.746 0.447 -1.207 0 -0.461 -0.132 -0.892 -0.447 -1.207 -0.315 -0.316 -0.746 -0.447 -1.207 -0.447Z" clip-rule="evenodd" stroke-width="1"></path>
  </g>
</svg>