<svg xmlns="http://www.w3.org/2000/svg" fill="none" viewBox="0 0 14 14" id="Add-To-Playlist--Streamline-Flex-Neon">
  <desc>
    Add To Playlist Streamline Icon: https://streamlinehq.com
  </desc>
  <g id="add-to-playlist--add-to-playlist-song-entertainment">
    <path id="Vector" stroke="#c71dff" stroke-linecap="round" stroke-linejoin="round" d="m4.31738 7.09668 0 4.49452" stroke-width="1"></path>
    <path id="Intersect" stroke="#c71dff" stroke-linecap="round" stroke-linejoin="round" d="M6.26695 3.0647c-0.19291 0.05058 -0.38481 0.10176 -0.57568 0.15333 -0.81334 0.21975 -1.37926 1.01615 -1.37926 1.92484v1.95345c0.0633 -0.01298 0.12673 -0.02597 0.19029 -0.039 1.15677 -0.23702 2.35466 -0.48246 3.57191 -0.7786 0.30345 -0.07382 0.60451 -0.14992 0.90315 -0.22755" stroke-width="1"></path>
    <path id="Vector_2" stroke="#c71dff" stroke-linecap="round" stroke-linejoin="round" d="m12 10.5838 0 -3.34942" stroke-width="1"></path>
    <path id="Vector_3" stroke="#c71dff" stroke-linecap="round" stroke-linejoin="round" d="M2.40874 13.5001c1.2216 0 1.90875 -0.6871 1.90875 -1.9087s-0.68715 -1.90878 -1.90875 -1.90878C1.18715 9.68262 0.5 10.3698 0.5 11.5914s0.68715 1.9087 1.90874 1.9087Z" stroke-width="1"></path>
    <path id="Vector_4" stroke="#c71dff" stroke-linecap="round" stroke-linejoin="round" d="M10.0914 12.5946c1.2216 0 1.9087 -0.6872 1.9087 -1.9088 0 -1.22155 -0.6871 -1.9087 -1.9087 -1.9087 -1.22163 0 -1.90878 0.68715 -1.90878 1.9087 0 1.2216 0.68715 1.9088 1.90878 1.9088Z" stroke-width="1"></path>
    <path id="Vector_5" stroke="#000cfe" stroke-linecap="round" stroke-linejoin="round" d="M8.5 3h5" stroke-width="1"></path>
    <path id="Vector_6" stroke="#000cfe" stroke-linecap="round" stroke-linejoin="round" d="M11 0.5v5" stroke-width="1"></path>
  </g>
</svg>