<svg xmlns="http://www.w3.org/2000/svg" fill="none" viewBox="0 0 14 14" id="Speaker-1--Streamline-Flex-Neon">
  <desc>
    Speaker 1 Streamline Icon: https://streamlinehq.com
  </desc>
  <g id="speaker-1--speaker-music-audio-subwoofer-entertainment">
    <g id="Group 4576">
      <path id="Ellipse 203" stroke="#000cfe" stroke-linecap="round" stroke-linejoin="round" d="M7 6.75c0.13807 0 0.25 0.11193 0.25 0.25s-0.11193 0.25 -0.25 0.25" stroke-width="1"></path>
      <path id="Ellipse 204" stroke="#000cfe" stroke-linecap="round" stroke-linejoin="round" d="M7 6.75c-0.13807 0 -0.25 0.11193 -0.25 0.25s0.11193 0.25 0.25 0.25" stroke-width="1"></path>
    </g>
    <path id="Vector" stroke="#000cfe" stroke-linecap="round" stroke-linejoin="round" d="M7 10c1.92 0 3 -1.08 3 -3S8.92 4 7 4 4 5.08 4 7s1.08 3 3 3Z" stroke-width="1"></path>
    <path id="Union" stroke="#c71dff" stroke-linecap="round" stroke-linejoin="round" d="M1.33648 1.33648c0.78197 -0.781972 2.04979 -0.781972 2.83176 0l0.24191 0.24191c0.7842 -0.37528 1.6625 -0.585428 2.58989 -0.585428 0.92738 0 1.80568 0.210148 2.58988 0.585428l0.24191 -0.24191c0.78197 -0.781972 2.04977 -0.781972 2.83177 0 0.782 0.78197 0.782 2.04979 0 2.83176l-0.2419 0.24191c0.3753 0.7842 0.5854 1.6625 0.5854 2.58989 0 0.92738 -0.2101 1.80568 -0.5854 2.58988l0.2418 0.24184c0.782 0.78194 0.782 2.04984 0 2.83174 -0.7819 0.782 -2.0498 0.782 -2.83174 0l-0.24184 -0.2418c-0.7842 0.3753 -1.6625 0.5854 -2.58988 0.5854 -0.92739 0 -1.80569 -0.2101 -2.58989 -0.5854l-0.24184 0.2418c-0.78197 0.782 -2.04979 0.782 -2.83176 0 -0.781972 -0.7819 -0.781972 -2.0498 0 -2.83174l0.24184 -0.24184c-0.37528 -0.7842 -0.585428 -1.6625 -0.585428 -2.58988 0 -0.92739 0.210148 -1.80569 0.585428 -2.58989l-0.24191 -0.24191c-0.781972 -0.78197 -0.781972 -2.04979 0 -2.83176Z" stroke-width="1"></path>
  </g>
</svg>