<svg xmlns="http://www.w3.org/2000/svg" viewBox="0 0 32 32" id="Building-Real-Eastate-Houses-Location--Streamline-Pixel">
  <desc>
    Building Real Eastate Houses Location Streamline Icon: https://streamlinehq.com
  </desc>
  <title>building-real-eastate-houses-location</title>
  <g>
    <path d="m30.48 18.29 -1.53 0 0 -1.52 -1.52 0 0 -1.53 -1.52 0 0 -1.52 -1.53 0 0 -1.52 -1.52 0 0 1.52 -1.53 0 0 1.52 -1.52 0 0 1.53 -3.05 0 0 -1.53 -1.52 0 0 1.53 -3.05 0 0 -1.53 -1.52 0 0 -1.52 -1.53 0 0 -1.52 -1.52 0 0 1.52 -1.52 0 0 1.52 -1.53 0 0 1.53 -1.52 0 0 1.52 -1.53 0 0 1.52 -1.52 0 0 3.05 1.52 0 0 6.1 4.58 0 0 -6.1 -1.53 0 0 4.57 -1.52 0 0 -7.62 1.52 0 0 -1.52 1.53 0 0 -1.52 1.52 0 0 -1.53 1.52 0 0 1.53 1.53 0 0 1.52 1.52 0 0 1.52 -1.52 0 0 1.53 -4.57 0 0 1.52 1.52 0 0 3.05 1.52 0 0 6.09 4.58 0 0 -6.09 -1.53 0 0 4.57 -1.52 0 0 -7.62 1.52 0 0 -1.52 1.53 0 0 -1.53 1.52 0 0 -1.52 1.52 0 0 1.52 1.53 0 0 1.53 1.52 0 0 1.52 1.52 0 0 7.62 -1.52 0 0 -4.57 -1.52 0 0 6.09 4.57 0 0 -6.09 1.52 0 0 -3.05 1.53 0 0 -1.52 -4.58 0 0 -1.53 -1.52 0 0 -1.52 1.52 0 0 -1.52 1.53 0 0 -1.53 1.52 0 0 1.53 1.53 0 0 1.52 1.52 0 0 1.52 1.52 0 0 7.62 -1.52 0 0 -4.57 -1.52 0 0 6.1 4.57 0 0 -6.1 1.52 0 0 -3.05 -1.52 0 0 -1.52z" fill="#000000" stroke-width="1"></path>
    <path d="M13.72 24.39h4.57v1.52h-4.57Z" fill="#000000" stroke-width="1"></path>
    <path d="M13.72 0v1.53h-1.53v1.52h-1.52v4.57h1.52v3.05h1.53v1.53h1.52v1.52h1.52V12.2h1.53v-1.53h1.52V7.62h1.52V3.05h-1.52V1.53h-1.52V0Zm4.57 6.1h-1.53v1.52h-1.52V6.1h-1.52V4.58h1.52V3.05h1.52v1.53h1.53Z" fill="#000000" stroke-width="1"></path>
  </g>
</svg>