<svg xmlns="http://www.w3.org/2000/svg" viewBox="0 0 32 32" id="Building-Real-Eastate-House-2--Streamline-Pixel">
  <desc>
    Building Real Eastate House 2 Streamline Icon: https://streamlinehq.com
  </desc>
  <title>building-real-eastate-house-2</title>
  <g>
    <path d="M30.48 6.855H32v3.05h-1.52Z" fill="#000000" stroke-width="1"></path>
    <path d="M28.96 5.335h1.52v1.52h-1.52Z" fill="#000000" stroke-width="1"></path>
    <path d="M25.91 9.905h4.57v1.52h-4.57Z" fill="#000000" stroke-width="1"></path>
    <path d="M10.67 9.9H9.15v1.52H7.62v1.53H6.1v1.52H4.58V16H3.05v3.04h1.53v12.19h22.85V19.045h1.53v-3.04h-1.53v-1.53h-1.52v-1.52h-1.52v-1.53h-1.53V9.9h-1.52V8.385h-1.53v-1.53h-1.52v-1.52h-1.52v-1.53h-1.53v1.53h-1.52v1.52h-1.53v1.53h-1.52Zm4.57 16.76h-1.52v-3.05h1.52Zm-3.05 -15.24h1.53V9.9h1.52V8.385h1.53V9.9h1.52v1.52h1.52v1.53h1.53v1.52h1.52V16h1.53v1.52h1.52v6.09h-3.05v1.53h3.05v4.57h-6.1v-9.14h-1.52v-1.53h-4.57v1.53h-1.53v9.14H6.1V28.2h3.05v-1.53H6.1V22.1h3.05v-1.52H6.1v-3.05h1.52v-1.52h1.53v-1.53h1.52v-1.52h1.52Z" fill="#000000" stroke-width="1"></path>
    <path d="M24.39 3.805h4.57v1.53h-4.57Z" fill="#000000" stroke-width="1"></path>
    <path d="M24.39 8.385h1.52v1.52h-1.52Z" fill="#000000" stroke-width="1"></path>
    <path d="M22.86 20.575h1.53v1.52h-1.53Z" fill="#000000" stroke-width="1"></path>
    <path d="M22.86 5.335h1.53v3.05h-1.53Z" fill="#000000" stroke-width="1"></path>
    <path d="M21.34 26.665h3.05v1.53h-3.05Z" fill="#000000" stroke-width="1"></path>
    <path d="M19.81 16.005h3.05v1.52h-3.05Z" fill="#000000" stroke-width="1"></path>
    <path d="M15.24 11.425h3.05v1.53h-3.05Z" fill="#000000" stroke-width="1"></path>
    <path d="M13.72 14.475h3.05v1.53h-3.05Z" fill="#000000" stroke-width="1"></path>
    <path d="M9.15 16.005h3.04v1.52H9.15Z" fill="#000000" stroke-width="1"></path>
    <path d="M9.15 3.805h1.52v3.05H9.15Z" fill="#000000" stroke-width="1"></path>
    <path d="M7.62 23.615h3.05v1.53H7.62Z" fill="#000000" stroke-width="1"></path>
    <path d="M7.62 2.285h1.53v1.52H7.62Z" fill="#000000" stroke-width="1"></path>
    <path d="M3.05 0.765h4.57v1.52H3.05Z" fill="#000000" stroke-width="1"></path>
    <path d="M1.53 6.855h7.62v1.53H1.53Z" fill="#000000" stroke-width="1"></path>
    <path d="M1.53 2.285h1.52v1.52H1.53Z" fill="#000000" stroke-width="1"></path>
    <path d="M0 3.805h1.53v3.05H0Z" fill="#000000" stroke-width="1"></path>
  </g>
</svg>