<svg xmlns="http://www.w3.org/2000/svg" viewBox="0 0 32 32" id="Building-Real-Eastate-Deal-Documant--Streamline-Pixel">
  <desc>
    Building Real Eastate Deal Documant Streamline Icon: https://streamlinehq.com
  </desc>
  <title>building-real-eastate-deal-documant</title>
  <g>
    <path d="M29.715 18.28h1.52v3.05h-1.52Z" fill="#000000" stroke-width="1"></path>
    <path d="m3.805 13.71 0 18.29 25.91 0 0 -6.1 -1.53 0 0 4.57 -22.85 0 0 -16.76 -1.53 0z" fill="#000000" stroke-width="1"></path>
    <path d="M28.185 21.33h1.53v1.53h-1.53Z" fill="#000000" stroke-width="1"></path>
    <path d="M26.665 16.76h3.05v1.52h-3.05Z" fill="#000000" stroke-width="1"></path>
    <path d="M26.665 22.86h1.52v1.52h-1.52Z" fill="#000000" stroke-width="1"></path>
    <path d="M26.665 19.81h1.52v1.52h-1.52Z" fill="#000000" stroke-width="1"></path>
    <path d="M25.145 24.38h1.52v1.52h-1.52Z" fill="#000000" stroke-width="1"></path>
    <path d="M25.145 18.28h1.52v1.53h-1.52Z" fill="#000000" stroke-width="1"></path>
    <path d="M23.615 25.9h1.53v1.53h-1.53Z" fill="#000000" stroke-width="1"></path>
    <path d="M23.615 19.81h1.53v1.52h-1.53Z" fill="#000000" stroke-width="1"></path>
    <path d="M22.095 24.38h1.52v1.52h-1.52Z" fill="#000000" stroke-width="1"></path>
    <path d="M22.095 21.33h1.52v1.53h-1.52Z" fill="#000000" stroke-width="1"></path>
    <path d="m20.565 24.38 -1.52 0 0 4.57 4.57 0 0 -1.52 -3.05 0 0 -3.05z" fill="#000000" stroke-width="1"></path>
    <path d="M20.565 22.86h1.53v1.52h-1.53Z" fill="#000000" stroke-width="1"></path>
    <path d="M12.955 12.19h10.66v1.52h-10.66Z" fill="#000000" stroke-width="1"></path>
    <path d="M8.375 18.28h12.19v1.53H8.375Z" fill="#000000" stroke-width="1"></path>
    <path d="M8.375 24.38h7.62v1.52h-7.62Z" fill="#000000" stroke-width="1"></path>
    <path d="m3.805 0 0 1.52 16.76 0 0 7.62 7.62 0 0 6.1 1.53 0 0 -7.62 -1.53 0 0 -1.53 -1.52 0 0 -1.52 -1.52 0 0 -1.52 -1.53 0 0 -1.53 -1.52 0 0 -1.52 -18.29 0z" fill="#000000" stroke-width="1"></path>
    <path d="m3.805 6.09 -1.52 0 0 1.53 -1.52 0 0 1.52 1.52 0 0 3.05 3.05 0 0 -3.05 1.52 0 0 3.05 3.05 0 0 -3.05 1.52 0 0 -1.52 -1.52 0 0 -1.53 -1.53 0 0 -1.52 -1.52 0 0 -1.52 -1.52 0 0 1.52 -1.53 0 0 1.52z" fill="#000000" stroke-width="1"></path>
  </g>
</svg>