<svg xmlns="http://www.w3.org/2000/svg" viewBox="0 0 32 32" id="Real-Estate-Building-4--Streamline-Pixel">
  <desc>
    Real Estate Building 4 Streamline Icon: https://streamlinehq.com
  </desc>
  <title>real-estate-building-4</title>
  <g>
    <path d="M29.715 12.19h-1.53v4.57h-7.62v4.57h7.62v1.52H16V1.52h1.53V0h-3.05v7.62h-1.53v1.52h1.53v3.05h-1.53v-1.53h-1.52v1.53H9.9v-1.53H8.375v1.53h-1.52v-1.53h-1.52v1.53h-1.53V9.14h-1.52V32h27.43Zm-4.57 7.62H22.1v-1.53h3.05Zm-13.72 10.66h-7.62v-3.04h7.62Zm3.05 0h-1.53V25.9h-9.14v-7.62h10.67Zm0 -13.71h-1.53v-1.52h-1.52v1.52H9.9v-1.52H8.375v1.52h-1.52v-1.52h-1.52v1.52h-1.53v-3.05h10.67Zm4.57 13.71H16v-3.04h3.05Zm0 -4.57H16v-1.52h3.05Zm4.57 4.57h-3.05v-6.09h3.05Zm4.57 0h-3.04v-3.04h3.04Zm0 -4.57h-3.04v-1.52h3.04Z" fill="#000000" stroke-width="1"></path>
    <path d="M23.615 13.71h3.05v1.53h-3.05Z" fill="#000000" stroke-width="1"></path>
    <path d="M19.045 7.62v4.57h9.14V9.14h-1.52V6.09h-1.52v1.53Zm4.57 3.04h-3.05V9.14h3.05Z" fill="#000000" stroke-width="1"></path>
    <path d="M23.615 4.57h1.53v1.52h-1.53Z" fill="#000000" stroke-width="1"></path>
    <path d="M20.565 3.04h3.05v1.53h-3.05Z" fill="#000000" stroke-width="1"></path>
    <path d="M17.525 13.71h3.04v1.53h-3.04Z" fill="#000000" stroke-width="1"></path>
    <path d="M17.525 19.81h1.52v1.52h-1.52Z" fill="#000000" stroke-width="1"></path>
    <path d="M17.525 4.57h1.52v1.52h-1.52Z" fill="#000000" stroke-width="1"></path>
    <path d="M17.525 1.52h3.04v1.52h-3.04Z" fill="#000000" stroke-width="1"></path>
    <path d="M11.425 22.85h1.52v1.53h-1.52Z" fill="#000000" stroke-width="1"></path>
    <path d="M11.425 19.81h1.52v1.52h-1.52Z" fill="#000000" stroke-width="1"></path>
    <path d="M8.375 22.85h1.53v1.53h-1.53Z" fill="#000000" stroke-width="1"></path>
    <path d="M8.375 19.81h1.53v1.52h-1.53Z" fill="#000000" stroke-width="1"></path>
    <path d="m12.945 7.62 0 -1.53 -3.04 0 0 -3.05 -1.53 0 0 3.05 -3.04 0 0 1.53 7.61 0z" fill="#000000" stroke-width="1"></path>
    <path d="M5.335 22.85h1.52v1.53h-1.52Z" fill="#000000" stroke-width="1"></path>
    <path d="M5.335 19.81h1.52v1.52h-1.52Z" fill="#000000" stroke-width="1"></path>
    <path d="M3.805 7.62h1.53v1.52h-1.53Z" fill="#000000" stroke-width="1"></path>
  </g>
</svg>