<svg xmlns="http://www.w3.org/2000/svg" viewBox="0 0 32 32" id="Real-Estate-Building-Ad--Streamline-Pixel">
  <desc>
    Real Estate Building Ad Streamline Icon: https://streamlinehq.com
  </desc>
  <title>real-estate-building-ad</title>
  <g>
    <path d="M30.48 19.81H18.29v-3.05h10.67v-1.52h-1.53v-1.53h1.53v-1.52H18.29v-1.53h-3.05V7.62h3.05V0H1.53v7.62h3.05v3.04H1.53v18.29H0V32h1.53v-1.53h1.52V32H6.1v-1.53h1.52V32h3.05v-1.53h1.52V32h3.05v-1.53h1.53V32h1.52v-1.53h1.52V32h3.05v-1.53h1.53V32h3.04v-1.53h1.53V32H32v-3.05h-1.52v-7.62H32v-3.05h-1.52Zm-6.09 -6.1h1.52v1.53h-1.52Zm-3.05 0h1.52v1.53h-1.52Zm-3.05 0h1.52v1.53h-1.52ZM3.05 6.09V1.52h13.72v4.57Zm10.67 1.53v3.04H6.1V7.62ZM9.15 28.95H6.1v-6.1h3.05Zm7.62 -7.62h-4.58v4.57h4.58v3.05h-6.1v-7.62H4.58v7.62H3.05V12.19h13.72Zm-1.53 1.52v1.53h-1.52v-1.53Zm13.72 6.1H18.29v-7.62h10.67Z" fill="#000000" stroke-width="1"></path>
    <path d="M28.96 16.76h1.52v1.52h-1.52Z" fill="#000000" stroke-width="1"></path>
    <path d="M24.39 22.85h3.04v3.05h-3.04Z" fill="#000000" stroke-width="1"></path>
    <path d="M19.81 22.85h3.05v3.05h-3.05Z" fill="#000000" stroke-width="1"></path>
    <path d="M12.19 16.76h3.05v1.52h-3.05Z" fill="#000000" stroke-width="1"></path>
    <path d="M12.19 13.71h3.05v1.53h-3.05Z" fill="#000000" stroke-width="1"></path>
    <path d="M13.72 3.04h1.52v1.53h-1.52Z" fill="#000000" stroke-width="1"></path>
    <path d="M9.15 3.04h1.52v1.53H9.15Z" fill="#000000" stroke-width="1"></path>
    <path d="M4.58 16.76h4.57v1.52H4.58Z" fill="#000000" stroke-width="1"></path>
    <path d="M4.58 13.71h4.57v1.53H4.58Z" fill="#000000" stroke-width="1"></path>
    <path d="M4.58 3.04H6.1v1.53H4.58Z" fill="#000000" stroke-width="1"></path>
  </g>
</svg>