<svg xmlns="http://www.w3.org/2000/svg" fill="none" viewBox="0 0 14 14" id="Browser-Hash--Streamline-Core">
  <desc>
    Browser Hash Streamline Icon: https://streamlinehq.com
  </desc>
  <g id="browser-hash--window-hash-code-internet-language-browser-web-tag">
    <path id="Union" fill="#000000" fill-rule="evenodd" d="M1.54614 12.2494V3.3153H12.4538v8.9341c0 0.1129 -0.0915 0.2044 -0.2044 0.2044H1.75058c-0.11291 0 -0.20444 -0.0915 -0.20444 -0.2044ZM1.75058 0.0461426C0.809244 0.0461426 0.0461426 0.809244 0.0461426 1.75058V12.2494c0 0.9413 0.7631014 1.7044 1.7044374 1.7044H12.2494c0.9413 0 1.7044 -0.7631 1.7044 -1.7044V1.75058c0 -0.941336 -0.7631 -1.7044374 -1.7044 -1.7044374H1.75058ZM6.78893 4.55551c0.39185 0.13425 0.60067 0.56075 0.46641 0.9526l-0.12731 0.37159h1.13949l0.2939 -0.85778c0.13426 -0.39185 0.56076 -0.60067 0.95261 -0.46641 0.39185 0.13425 0.60067 0.56075 0.46641 0.9526l-0.12731 0.37159h0.32607c0.4142 0 0.75 0.33579 0.75 0.75s-0.3358 0.75 -0.75 0.75h-0.84002l-0.41973 1.22504h0.80566c0.41419 0 0.74999 0.33578 0.74999 0.75 0 0.41421 -0.3358 0.74996 -0.74999 0.74996h-1.3196l-0.24178 0.7057c-0.13426 0.3918 -0.56075 0.6007 -0.9526 0.4664 -0.39186 -0.1343 -0.60067 -0.5608 -0.46642 -0.9526l0.0752 -0.2195h-1.1395l-0.24177 0.7057c-0.13426 0.3918 -0.56076 0.6007 -0.95261 0.4664 -0.39185 -0.1343 -0.60067 -0.5608 -0.46641 -0.9526l0.07519 -0.2195H3.8208c-0.41421 0 -0.75 -0.33575 -0.75 -0.74996 0 -0.41422 0.33579 -0.75 0.75 -0.75h0.78795l0.41973 -1.22504H4.2749c-0.41421 0 -0.75 -0.33579 -0.75 -0.75s0.33579 -0.75 0.75 -0.75h1.26753l0.2939 -0.85778c0.13426 -0.39185 0.56075 -0.60067 0.9526 -0.46641Zm0.96465 2.82419 -0.41973 1.22504h-1.1395l0.41974 -1.22504h1.13949Z" clip-rule="evenodd" stroke-width="1"></path>
  </g>
</svg>