<svg xmlns="http://www.w3.org/2000/svg" fill="none" viewBox="0 0 14 14"><g id="cloud-add--cloud-network-internet-add-server-plus"><path id="Union" fill="#3e3e3e" fill-rule="evenodd" d="M7.883.06a4.368 4.368 0 0 0-4.582 2.718 3.693 3.693 0 0 0-.743 7.18A2 2 0 0 1 4.5 8.438H5v-.5a2 2 0 1 1 4 0v.5h.5a2 2 0 0 1 1.963 1.617 3.231 3.231 0 0 0 .223-6.246A4.369 4.369 0 0 0 7.883.061ZM3.75 10.439a.75.75 0 0 1 .75-.75h1.75v-1.75a.75.75 0 1 1 1.5 0v1.75H9.5a.75.75 0 0 1 0 1.5H7.75v1.75a.75.75 0 0 1-1.5 0v-1.75H4.5a.75.75 0 0 1-.75-.75Z" clip-rule="evenodd"></path></g></svg>