<svg xmlns="http://www.w3.org/2000/svg" fill="none" viewBox="0 0 14 14" id="Cloud-Block--Streamline-Core">
  <desc>
    Cloud Block Streamline Icon: https://streamlinehq.com
  </desc>
  <g id="cloud-block--cloud-network-internet-block-server-deny">
    <path id="Union" fill="#000000" fill-rule="evenodd" d="M5.04132 0.747564c0.84705 -0.529841 1.85015 -0.75327894 2.842 -0.633054 0.99186 0.120225 1.91252 0.576846 2.60848 1.29372 0.6513 0.67093 1.069 1.53187 1.1943 2.45516 0.6909 0.20757 1.2945 0.64127 1.7119 1.23428 0.4551 0.64641 0.6573 1.43724 0.5684 2.22274 -0.0889 0.78549 -0.4627 1.51112 -1.0507 2.03949 -0.3015 0.2709 -0.6485 0.4803 -1.0217 0.62069 -0.1766 -2.54892 -2.30021 -4.56184 -4.89399 -4.56184 -2.54451 0 -4.63656 1.93716 -4.88184 4.41715 -0.30227 -0.14393 -0.58613 -0.32953 -0.84266 -0.55377C0.53818 8.63758 0.0870937 7.72653 0.021486 6.74939c-0.0656078 -0.97714 0.259637 -1.94031 0.904186 -2.67764 0.319148 -0.36509 0.707078 -0.66375 1.141648 -0.87891 0.38727 -0.19175 0.80481 -0.31385 1.23354 -0.36115 0.34332 -0.86028 0.95214 -1.59103 1.74046 -2.084126ZM7.00003 8.19757c1.17473 0 2.12705 0.95231 2.12705 2.12703 0 0.3129 -0.06755 0.61 -0.18886 0.8775L6.12255 8.38643c0.26752 -0.12131 0.56461 -0.18886 0.87748 -0.18886ZM4.48341 7.7127c-0.01709 0.01429 -0.03369 0.02946 -0.04974 0.04551 -0.01605 0.01605 -0.03122 0.03264 -0.0455 0.04973 -0.62861 0.65222 -1.01519 1.5393 -1.01519 2.51666 0 2.0032 1.62388 3.6271 3.62705 3.6271 0.97715 0 1.86406 -0.3864 2.51624 -1.0148 0.01725 -0.0144 0.034 -0.0297 0.05019 -0.0459 0.0162 -0.0162 0.0315 -0.0329 0.04591 -0.0502 0.62833 -0.6522 1.01473 -1.5391 1.01473 -2.5162 0 -2.00314 -1.62391 -3.62703 -3.62707 -3.62703 -0.97735 0 -1.8644 0.38656 -2.51662 1.01513Zm3.39417 4.5501c-0.26755 0.1213 -0.56466 0.1889 -0.87755 0.1889 -1.17474 0 -2.12705 -0.9523 -2.12705 -2.1271 0 -0.3129 0.06756 -0.60999 0.18889 -0.87753l2.81571 2.81573Z" clip-rule="evenodd" stroke-width="1"></path>
  </g>
</svg>