<svg xmlns="http://www.w3.org/2000/svg" fill="none" viewBox="0 0 14 14" id="Cloud-Refresh--Streamline-Core">
  <desc>
    Cloud Refresh Streamline Icon: https://streamlinehq.com
  </desc>
  <g id="cloud-refresh--cloud-network-internet-server-refresh">
    <path id="Union" fill="#000000" fill-rule="evenodd" d="M7.88332 0.0461506c-0.99185 -0.1202249 -1.99495 0.1032134 -2.842 0.6330544C4.253 1.17231 3.64418 1.90305 3.30086 2.76333c-0.42873 0.0473 -0.84627 0.1694 -1.23354 0.36115 -0.43457 0.21516 -0.8225 0.51382 -1.141648 0.87891 -0.644549 0.73733 -0.9697938 1.70051 -0.904186 2.67764 0.0656077 0.97714 0.516694 1.88819 1.254024 2.53274 0.38065 0.33275 0.8215 0.5804 1.29338 0.73311C2.94178 7.83768 4.78379 6.2356 7 6.2356c0.8376 0 1.62279 0.22956 2.29462 0.62841 0.65599 -0.24741 1.40648 -0.13529 1.96588 0.31874 0.6634 0.53852 0.9115 1.43908 0.6173 2.24137l-0.2064 0.56274c0.4578 -0.1352 0.8836 -0.37126 1.2443 -0.69532 0.588 -0.52837 0.9618 -1.254 1.0507 -2.03949 0.0889 -0.7855 -0.1133 -1.57633 -0.5684 -2.22274 -0.4174 -0.593 -1.021 -1.02671 -1.7119 -1.23428 -0.1253 -0.92329 -0.543 -1.78423 -1.1943 -2.45516C9.79584 0.622997 8.87518 0.166376 7.88332 0.0461506ZM7 8.9856c-0.9665 0 -1.75 0.7835 -1.75 1.75s0.7835 1.75 1.75 1.75c0.43241 0 0.82649 -0.1559 1.13202 -0.4154 0.3157 -0.2681 0.78901 -0.2296 1.05717 0.0861 0.26815 0.3157 0.22961 0.789 -0.08609 1.0572 -0.56647 0.4811 -1.30177 0.7721 -2.1031 0.7721 -1.79493 0 -3.25 -1.4551 -3.25 -3.25 0 -1.79493 1.45507 -3.25 3.25 -3.25 0.85134 0 1.62578 0.32711 2.20498 0.86245l0.39752 -0.24845c0.27174 -0.16984 0.6214 -0.14827 0.8702 0.05368 0.2488 0.20194 0.3418 0.53965 0.2315 0.84051l-0.5455 1.48751c-0.01 0.0289 -0.0218 0.057 -0.0352 0.0843 -0.0357 0.073 -0.0823 0.1383 -0.13726 0.1944 -0.0849 0.087 -0.19164 0.1542 -0.31391 0.1919 -0.05606 0.0175 -0.11447 0.0284 -0.17414 0.0322 -0.06555 0.0043 -0.13016 -0.0001 -0.19252 -0.0123l-1.4331 -0.2471c-0.30649 -0.0529 -0.54857 -0.2894 -0.60851 -0.5946 -0.05994 -0.30515 0.0747 -0.61567 0.33844 -0.7805l0.23845 -0.14903C7.59128 9.06353 7.30463 8.9856 7 8.9856Z" clip-rule="evenodd" stroke-width="1"></path>
  </g>
</svg>