<svg xmlns="http://www.w3.org/2000/svg" fill="none" viewBox="0 0 14 14" id="Threat-Document--Streamline-Core">
  <desc>
    Threat Document Streamline Icon: https://streamlinehq.com
  </desc>
  <g id="threat-document--bug-document-file-threat-danger">
    <path id="Union" fill="#000000" fill-rule="evenodd" d="M1.5 0A1.5 1.5 0 0 0 0 1.5v9A1.5 1.5 0 0 0 1.5 12h3.411l3.134 -5.484c0.63 -1.1 2.042 -1.3 2.955 -0.598V3.5a0.5 0.5 0 0 0 -0.146 -0.354l-3 -3A0.5 0.5 0 0 0 7.5 0h-6Zm7.414 7.012a1 1 0 0 1 1.736 0l3.139 5.492A1 1 0 0 1 12.92 14H6.643a1 1 0 0 1 -0.868 -1.496l3.139 -5.492Zm0.868 6.113a0.625 0.625 0 1 0 0 -1.25 0.625 0.625 0 0 0 0 1.25Zm0 -4.25c0.345 0 0.625 0.28 0.625 0.625v1a0.625 0.625 0 0 1 -1.25 0v-1c0 -0.345 0.28 -0.625 0.625 -0.625Z" clip-rule="evenodd" stroke-width="1"></path>
  </g>
</svg>