<svg xmlns="http://www.w3.org/2000/svg" fill="none" viewBox="0 0 14 14"><g id="widget"><path id="rectangle 629" fill="#3e3e3e" d="M12.5 9.5a1 1 0 0 1 1 1v2a1 1 0 0 1-1 1h-11a1 1 0 0 1-1-1v-2a1 1 0 0 1 1-1h11Z"></path><path id="rectangle 634" fill="#3e3e3e" d="M7 .5a1 1 0 0 1 1 1V7a1 1 0 0 1-1 1H1.432a1 1 0 0 1-1-1V1.5a1 1 0 0 1 1-1H7Z"></path><path id="rectangle 636" fill="#3e3e3e" d="M13 4.75a.5.5 0 0 1 .5.5V7.5a.5.5 0 0 1-.5.5h-3a.5.5 0 0 1-.5-.5V5.25a.5.5 0 0 1 .5-.5h3Z"></path><path id="rectangle 637" fill="#3e3e3e" d="M13 .5a.5.5 0 0 1 .5.5v2.25a.5.5 0 0 1-.5.5h-3a.5.5 0 0 1-.5-.5V1a.5.5 0 0 1 .5-.5h3Z"></path></g></svg>