<svg xmlns="http://www.w3.org/2000/svg" fill="none" viewBox="-0.75 -0.75 24 24" id="Apple--Streamline-Sharp-Neon">
  <desc>
    Apple Streamline Icon: https://streamlinehq.com
  </desc>
  <g id="apple-logo--os-system-apple-logo">
    <path id="Vector 4232" stroke="#000cfe" d="M12.02025 3.8948437499999997v1.3053750000000002h1.3053750000000002c1.2015 0 2.1755625000000003 -0.9740624999999999 2.1755625000000003 -2.1755625000000003V1.71928125h-1.3053750000000002c-1.2015 0 -2.1755625000000003 0.9740624999999999 -2.1755625000000003 2.1755625000000003Z" stroke-width="1.5"></path>
    <path id="Subtract" stroke="#c71dff" d="M14.48540625 20.780625c2.0806875 -0.7896562500000001 3.75609375 -2.4024375 4.62871875 -4.4407499999999995 -1.4109375 -0.5749687499999999 -2.40534375 -1.9603125000000001 -2.40534375 -3.5778749999999997 0 -1.4128124999999998 0.758625 -2.6484375 1.89075 -3.3216562499999998 -1.542375 -2.05153125 -4.32328125 -2.664 -6.59325 -0.394125l-0.8549062500000001 0c-3.3320624999999997 -3.33215625 -7.765500000000001 -0.453 -7.765500000000001 4.0719375 0 3.50146875 2.19646875 6.48984375 5.28675 7.662562500000001 0.8605312500000001 -0.4790625 1.85165625 -0.7519687500000001 2.90653125 -0.7519687500000001 1.0546875 0 2.0457187500000003 0.27290625 2.90625 0.7518750000000001Z" stroke-width="1.5"></path>
  </g>
</svg>