<svg xmlns="http://www.w3.org/2000/svg" fill="none" viewBox="-0.5 -0.5 24 24" id="Cupcake--Streamline-Sharp-Neon">
  <desc>
    Cupcake Streamline Icon: https://streamlinehq.com
  </desc>
  <g id="cupcake--cupcake-bakery-sweet-dessert-food">
    <path id="Vector" stroke="#000cfe" d="M2.9468558333333337 11.859375 4.791666666666667 21.08342916666667h13.416666666666668l1.8447916666666668 -9.224054166666667" stroke-width="1"></path>
    <path id="Vector_2" stroke="#000cfe" d="m9.463541666666668 21.083333333333336 -1.4988908333333335 -7.962887500000001M13.536458333333334 21.083333333333336l1.4989291666666669 -7.962887500000001" stroke-width="1"></path>
    <path id="Union" stroke="#c71dff" d="M6.662189583333334 11.8383875c-0.5027895833333333 0.4124666666666667 -1.15623875 0.6616333333333334 -1.8705229166666668 0.6616333333333334 -1.5878145833333333 0 -2.875 -1.2312666666666667 -2.875 -2.7500333333333336 0 -1.5187858333333333 1.2871854166666667 -2.750014166666667 2.875 -2.750014166666667 0.039655833333333335 0 0.07912 0.00077625 0.11838291666666667 0.0023C5.563537083333334 4.095456666666667 8.265759166666667 1.9166666666666667 11.5 1.9166666666666667c3.2342791666666666 0 5.936491666666667 2.1787900000000002 6.589979166666667 5.085606666666667 0.03919583333333333 -0.0015237500000000001 0.07867916666666668 -0.0023 0.11835416666666666 -0.0023 1.5878625000000002 0 2.875 1.2312283333333334 2.875 2.750014166666667 0 1.5187666666666668 -1.2871375 2.7500333333333336 -2.875 2.7500333333333336 -0.7142458333333334 0 -1.3677333333333335 -0.24916666666666668 -1.8705708333333333 -0.6616333333333334C15.877858333333334 12.771133333333333 14.885791666666666 13.416666666666668 13.736079166666666 13.416666666666668c-0.9031333333333333 0 -1.7089958333333335 -0.3983791666666667 -2.236079166666667 -1.0213916666666667C10.972916666666666 13.018287500000001 10.167054166666667 13.416666666666668 9.263882500000001 13.416666666666668c-1.1496741666666666 0 -2.14173125 -0.6454375 -2.601692916666667 -1.5782791666666667Z" stroke-width="1"></path>
  </g>
</svg>