<svg xmlns="http://www.w3.org/2000/svg" fill="none" viewBox="0 0 24 24" id="Forrst-Logo--Streamline-Logos-Block">
  <desc>
    Forrst Logo Streamline Icon: https://streamlinehq.com
  </desc>
  <path fill="#000000" fill-rule="evenodd" d="M5 1a4 4 0 0 0 -4 4v14a4 4 0 0 0 4 4h14a4 4 0 0 0 4 -4V5a4 4 0 0 0 -4 -4H5Zm0.523 18.5h5.795v-2.358l-1.323 -0.992a0.5 0.5 0 0 1 0.6 -0.8l0.723 0.542v-1.846h1.364v0.975l0.799 -0.4a0.5 0.5 0 0 1 0.447 0.894l-1.246 0.623v0.587l1.48 -0.74a0.5 0.5 0 1 1 0.448 0.894l-1.928 0.964V19.5h5.795L12 4.5l-6.477 15Z" clip-rule="evenodd" stroke-width="1"></path>
</svg>