<svg xmlns="http://www.w3.org/2000/svg" fill="none" viewBox="0 0 48 48" id="Insurance-Hand--Streamline-Plump">
  <desc>
    Insurance Hand Streamline Icon: https://streamlinehq.com
  </desc>
  <g id="insurance-hand--health-medical-insurance-hand-cross">
    <path id="Union" fill="#ffffff" d="M3 27.587s6 -2.5 11 -2.5c3.553 0 7.456 1.402 10.05 2.546 1.949 0.86 3.08 1.817 3.535 3.899 0.316 1.443 -0.721 3.851 -2.194 3.967l-1.132 0.089c3.397 0 12.357 -1.578 15.492 -2.15 0.735 -0.134 1.494 -0.232 2.197 0.022 0.892 0.322 2.096 1.102 2.69 2.995 0.488 1.554 -0.621 3.06 -2.146 3.635C38.06 41.761 28.876 45 24.26 45 12 45 3 42 3 42H1.5V27.633l1.5 -0.046Z" stroke-width="3"></path>
    <path id="Union_2" stroke="#2859c5" stroke-linecap="round" stroke-linejoin="round" d="M3 27.564S9 25 14 25c3.527 0 7.4 1.418 9.994 2.587 1.99 0.896 3.135 1.462 3.59 3.597 0.317 1.483 -0.748 3.955 -2.26 4.077l-1.065 0.086m0 0c-2.442 0 -6.222 -0.724 -6.222 -0.724m6.222 0.724c3.387 0 12.303 -1.609 15.463 -2.2 0.754 -0.14 1.535 -0.243 2.252 0.027 0.902 0.341 2.112 1.164 2.69 3.15 0.452 1.552 -0.633 3.045 -2.14 3.628C38.104 41.662 28.887 45 24.259 45 12 45 3 41.923 3 41.923" stroke-width="3"></path>
    <path id="Union_3" fill="#8fbffa" d="M30.126 22.98c0.032 0.923 0.604 1.717 1.516 1.857 0.59 0.09 1.369 0.163 2.358 0.163a15.5 15.5 0 0 0 2.358 -0.163c0.912 -0.14 1.484 -0.934 1.516 -1.856 0.037 -1.06 0.08 -2.703 0.105 -5.002a211.88 211.88 0 0 0 5.002 -0.105c0.922 -0.032 1.716 -0.604 1.856 -1.516 0.09 -0.59 0.163 -1.369 0.163 -2.358a15.5 15.5 0 0 0 -0.163 -2.358c-0.14 -0.912 -0.934 -1.484 -1.856 -1.516 -1.06 -0.037 -2.703 -0.08 -5.002 -0.105a212.729 212.729 0 0 0 -0.105 -5.002c-0.032 -0.922 -0.604 -1.716 -1.516 -1.856A15.56 15.56 0 0 0 34 3a15.5 15.5 0 0 0 -2.358 0.163c-0.912 0.14 -1.484 0.934 -1.516 1.856 -0.037 1.06 -0.08 2.703 -0.105 5.002a211.88 211.88 0 0 0 -5.002 0.105c-0.922 0.032 -1.716 0.604 -1.856 1.516 -0.09 0.59 -0.163 1.369 -0.163 2.358 0 0.99 0.072 1.769 0.163 2.358 0.14 0.912 0.934 1.484 1.856 1.516 1.06 0.037 2.703 0.08 5.002 0.105 0.025 2.299 0.068 3.943 0.105 5.002Z" stroke-width="3"></path>
    <path id="Union_4" stroke="#2859c5" stroke-linecap="round" stroke-linejoin="round" d="M30.126 22.98c0.032 0.923 0.604 1.717 1.516 1.857 0.59 0.09 1.369 0.163 2.358 0.163a15.5 15.5 0 0 0 2.358 -0.163c0.912 -0.14 1.484 -0.934 1.516 -1.856 0.037 -1.06 0.08 -2.703 0.105 -5.002a211.88 211.88 0 0 0 5.002 -0.105c0.922 -0.032 1.716 -0.604 1.856 -1.516 0.09 -0.59 0.163 -1.369 0.163 -2.358a15.5 15.5 0 0 0 -0.163 -2.358c-0.14 -0.912 -0.934 -1.484 -1.856 -1.516 -1.06 -0.037 -2.703 -0.08 -5.002 -0.105a212.729 212.729 0 0 0 -0.105 -5.002c-0.032 -0.922 -0.604 -1.716 -1.516 -1.856A15.56 15.56 0 0 0 34 3a15.5 15.5 0 0 0 -2.358 0.163c-0.912 0.14 -1.484 0.934 -1.516 1.856 -0.037 1.06 -0.08 2.703 -0.105 5.002a211.88 211.88 0 0 0 -5.002 0.105c-0.922 0.032 -1.716 0.604 -1.856 1.516 -0.09 0.59 -0.163 1.369 -0.163 2.358 0 0.99 0.072 1.769 0.163 2.358 0.14 0.912 0.934 1.484 1.856 1.516 1.06 0.037 2.703 0.08 5.002 0.105 0.025 2.299 0.068 3.943 0.105 5.002Z" stroke-width="3"></path>
  </g>
</svg>