<svg xmlns="http://www.w3.org/2000/svg" viewBox="0 0 24 24" id="Messages-Bubble-Square-Question--Streamline-Ultimate">
  <desc>
    Messages Bubble Square Question Streamline Icon: https://streamlinehq.com
  </desc>
  <path d="M22 1.5H2A1.5 1.5 0 0 0 0.5 3v13.55A1.46 1.46 0 0 0 2 18h3v4a0.48 0.48 0 0 0 0.27 0.44 0.47 0.47 0 0 0 0.51 0L12.16 18H22a1.5 1.5 0 0 0 1.5 -1.5V3A1.5 1.5 0 0 0 22 1.5Zm-8.75 9.06V11a0.75 0.75 0 0 1 -1.5 0v-0.44A2.08 2.08 0 0 1 13 8.65a1.25 1.25 0 1 0 -1.75 -1.15 0.75 0.75 0 0 1 -1.5 0A2.75 2.75 0 1 1 13.6 10a0.58 0.58 0 0 0 -0.35 0.56Zm0.25 2.94a1 1 0 1 1 -1 -1 1 1 0 0 1 1 1Z" fill="#000000" stroke-width="1"></path>
</svg>