<svg xmlns="http://www.w3.org/2000/svg" viewBox="0 0 24 24" id="Smiley-Bad--Streamline-Ultimate">
  <desc>
    Smiley Bad Streamline Icon: https://streamlinehq.com
  </desc>
  <path d="M12 0a12 12 0 1 0 12 12A12 12 0 0 0 12 0ZM5.79 8.21a1 1 0 1 1 1.42 -1.42l3 3a1 1 0 0 1 0.24 1 1 1 0 0 1 -0.79 0.69l-3 0.5H6.5a1 1 0 0 1 -0.16 -2l0.6 -0.1a0.25 0.25 0 0 0 0.2 -0.17 0.26 0.26 0 0 0 -0.06 -0.25Zm1.27 9.64a5.71 5.71 0 0 1 9.88 0 0.43 0.43 0 0 1 0 0.44 0.43 0.43 0 0 1 -0.38 0.22H7.44a0.43 0.43 0 0 1 -0.38 -0.22 0.43 0.43 0 0 1 0 -0.44ZM19 11.14a1 1 0 0 1 -1 0.86h-0.14l-3.5 -0.5a1 1 0 0 1 -0.81 -0.67 1 1 0 0 1 0.24 -1l3 -3a1 1 0 1 1 1.42 1.42L17 9.44a0.27 0.27 0 0 0 -0.06 0.26 0.24 0.24 0 0 0 0.21 0.16l1 0.15a1 1 0 0 1 0.85 1.13Z" fill="#000000" stroke-width="1"></path>
</svg>