<svg xmlns="http://www.w3.org/2000/svg" viewBox="0 0 24 24" id="Smiley-Unhappy--Streamline-Ultimate">
  <desc>
    Smiley Unhappy Streamline Icon: https://streamlinehq.com
  </desc>
  <path d="M12 0a12 12 0 1 0 12 12A12 12 0 0 0 12 0Zm6.48 15.38a1 1 0 0 1 -1.19 0.76A6.21 6.21 0 0 0 16 16a6 6 0 0 0 -4.6 2.14 1 1 0 0 1 -0.76 0.36 1 1 0 0 1 -0.77 -1.64A8 8 0 0 1 16 14a7.47 7.47 0 0 1 1.71 0.19 1 1 0 0 1 0.77 1.19ZM9.5 9a2 2 0 1 1 -2 -2 2 2 0 0 1 2 2Zm5 0a2 2 0 1 1 2 2 2 2 0 0 1 -2 -2Z" fill="#000000" stroke-width="1"></path>
</svg>