<svg xmlns="http://www.w3.org/2000/svg" fill="none" viewBox="0 0 48 48" id="Education-Globe--Streamline-Kameleon">
  <desc>
    Education Globe Streamline Icon: https://streamlinehq.com
  </desc>
  <path fill="#deeeff" d="M23.9979 47.9983c13.2548 0 23.9999 -10.7451 23.9999 -23.9999S37.2527 -0.00146484 23.9979 -0.00146484 -0.00195312 10.7436 -0.00195312 23.9984c0 13.2548 10.74505312 23.9999 23.99985312 23.9999Z" stroke-width="1"></path>
  <path fill="#6bafff" d="M22.7018 35.3438c-0.2932 0 -0.5838 -0.0127 -0.8727 -0.0314v0.9041h2.6182v-0.9892c-0.5721 0.0742 -1.1538 0.1165 -1.7455 0.1165Z" stroke-width="1"></path>
  <path fill="#6bafff" d="M28.3928 36.2166H17.8852c-0.9543 0 -1.728 0.7736 -1.728 1.7279v0.0175h13.9636v-0.0175c0 -0.9543 -0.7737 -1.7279 -1.728 -1.7279Z" stroke-width="1"></path>
  <path fill="#6bafff" d="m33.0008 13.0608 -1.2777 1.2777c1.6866 2.0308 2.7024 4.638 2.7024 7.4783 0 6.4643 -5.259 11.7237 -11.7237 11.7237 -2.8403 0 -5.4471 -1.0158 -7.4784 -2.7023l-1.2781 1.2776c2.362 2.0108 5.4192 3.2282 8.7569 3.2282 7.4587 0 13.5272 -6.0685 13.5272 -13.5272 0 -3.3377 -1.2174 -6.3944 -3.2286 -8.756Z" stroke-width="1"></path>
  <path fill="#6bafff" d="M13.6555 32.4061c-0.4259 0.4259 -1.1166 0.4259 -1.543 0 -0.4263 -0.4258 -0.4258 -1.1166 0 -1.5429l19.6319 -19.6319c0.4259 -0.4259 1.1167 -0.4259 1.543 0 0.4263 0.4259 0.4259 1.1166 0 1.543L13.6555 32.4061Z" stroke-width="1"></path>
  <path fill="#2e3ecd" d="M22.7022 32.2891c5.7838 0 10.4726 -4.6888 10.4726 -10.4727S28.486 11.3438 22.7022 11.3438c-5.7839 0 -10.4727 4.6887 -10.4727 10.4726s4.6888 10.4727 10.4727 10.4727Z" stroke-width="1"></path>
  <path fill="#6bafff" d="M29.7898 29.5215c0.1082 -0.0956 0.2129 -0.1946 0.3176 -0.2993 0.1048 -0.1048 0.2038 -0.2099 0.2994 -0.3177l-2.9319 -2.9319c1.1651 -1.2476 2.0343 -2.6727 2.5998 -4.1882l2.7447 2.7447c0.0895 -0.3364 0.1637 -0.6759 0.216 -1.018l-2.6565 -2.6566c0.764 -2.6609 0.466 -5.6557 0.2775 -5.8442 -0.1698 -0.2068 -0.3548 -0.4041 -0.549 -0.5987 -0.1941 -0.1942 -0.3918 -0.3796 -0.5986 -0.5489 -0.1886 -0.1885 -3.1833 -0.4866 -5.8442 0.2775l-2.6566 -2.6566c-0.3425 0.0524 -0.682 0.1266 -1.018 0.216l2.7447 2.7448c-1.5155 0.5655 -2.9407 1.4351 -4.1882 2.5998l-2.9315 -2.9315c-0.1082 0.0956 -0.2129 0.1942 -0.3181 0.2994 -0.1052 0.1051 -0.2038 0.2099 -0.2993 0.3181l2.9314 2.9314c-1.4007 1.4998 -2.3698 3.2584 -2.9039 5.1181l-2.6566 -2.6565c-0.062 0.3704 -0.1017 0.7435 -0.1205 1.114l2.5362 2.5361c-0.4626 2.2948 -0.158 4.7297 -0.0367 4.8506 0.1698 0.2069 0.3548 0.4041 0.549 0.5987 0.1941 0.1942 0.3918 0.3796 0.5987 0.5489 0.1208 0.1209 2.5557 0.4259 4.8505 -0.0366l2.5362 2.5361c0.3705 -0.0183 0.7435 -0.0584 1.114 -0.1204l-2.6566 -2.6566c1.8598 -0.5341 3.6184 -1.5032 5.1181 -2.904l2.9324 2.9315Zm-0.0773 -14.715c0.3853 1.752 0.3613 3.5747 -0.0611 5.3202l-5.259 -5.2591c1.7455 -0.4228 3.5681 -0.4464 5.3201 -0.0611Zm-6.2796 0.3356 5.9441 5.9441c-0.5154 1.5421 -1.3602 2.9961 -2.5318 4.2567l-7.669 -7.6695c1.2606 -1.1712 2.7146 -2.016 4.2567 -2.5313Zm-7.7411 13.6847c-0.3102 -1.4103 -0.3578 -2.8664 -0.1444 -4.2916l4.436 4.4365c-1.4247 0.2129 -2.8808 0.1654 -4.2916 -0.1449Zm5.3201 -0.0611 -5.259 -5.2586c0.4586 -1.8955 1.3942 -3.6968 2.8062 -5.2162l7.6691 7.669c-1.5194 1.4117 -3.3203 2.3472 -5.2163 2.8058Z" stroke-width="1"></path>
</svg>