<svg xmlns="http://www.w3.org/2000/svg" fill="none" viewBox="0 0 48 48" id="Service-Bell--Streamline-Kameleon">
  <desc>
    Service Bell Streamline Icon: https://streamlinehq.com
  </desc>
  <path fill="#deeeff" d="M23.9989 47.9963c13.2548 0 23.9999 -10.7451 23.9999 -23.9998 0 -13.2548 -10.7451 -23.99991797 -23.9999 -23.99991797S-0.000976562 10.7417 -0.000976562 23.9965c0 13.2547 10.745076562 23.9998 23.999876562 23.9998Z" stroke-width="1"></path>
  <path fill="#2e3ecd" d="M25.7438 15.2695h-3.4909v2.1818h3.4909v-2.1818Z" stroke-width="1"></path>
  <path fill="#6bafff" d="M24.8706 13.96H23.126v1.3084h1.7446V13.96Z" stroke-width="1"></path>
  <path fill="#2e3ecd" d="M37.9623 34.4692H10.0352v1.7455h27.9271v-1.7455Z" stroke-width="1"></path>
  <path fill="#6bafff" d="M10.0352 34.4694c1.7454 -0.8727 2.1818 -1.7454 2.1818 -3.4909h23.5635c0 1.7455 0.8727 2.6182 2.1818 3.4909H10.0352Z" stroke-width="1"></path>
  <path fill="#2e3ecd" d="M11.8854 30.5187c-0.0065 0.1196 0.0367 0.2365 0.1191 0.3238 0.0825 0.0873 0.1968 0.1357 0.3168 0.1357h23.5326c0.1195 0 0.2343 -0.0493 0.3168 -0.1361 0.0824 -0.0869 0.1256 -0.2038 0.1195 -0.3234 -0.1291 -2.4126 -1.3134 -13.5041 -12.2024 -13.5041 -10.8889 0 -12.0737 11.0915 -12.2024 13.5041Z" stroke-width="1"></path>
  <path fill="#2e3ecd" d="M21.3411 13.3291c-0.0742 0.131 -0.0733 0.2911 0.0026 0.4211 0.0755 0.1296 0.2143 0.2099 0.3648 0.2099h4.5565c0.1558 0 0.2998 -0.0833 0.3779 -0.2182 0.0781 -0.1348 0.0781 -0.3015 0 -0.4363 -0.528 -0.9129 -1.5142 -1.5273 -2.6443 -1.5273 -1.1398 0 -2.133 0.6249 -2.6575 1.5508Z" stroke-width="1"></path>
</svg>