<svg xmlns="http://www.w3.org/2000/svg" fill="none" viewBox="0 0 48 48" id="Taxi-2--Streamline-Kameleon">
  <desc>
    Taxi 2 Streamline Icon: https://streamlinehq.com
  </desc>
  <path fill="#deeeff" d="M23.9989 47.9958c13.2549 0 23.9999 -10.7449 23.9999 -23.9998 0 -13.2549 -10.745 -23.99990625 -23.9999 -23.99990625C10.744 -0.00390625 -0.000976562 10.7411 -0.000976562 23.996S10.744 47.9958 23.9989 47.9958Z" stroke-width="1"></path>
  <path fill="#2e3ecd" d="M11.7813 31.8503c0.0581 -0.0127 -1.0826 -4.522 -1.5635 -6.2827 -0.418 -1.5295 0.2544 -2.4445 3.309 -2.4445h3.0239c0.292 0 0.5643 -0.1458 0.7262 -0.3888l2.9729 -4.4592c0.1614 -0.2426 0.4342 -0.3884 0.7256 -0.3884h6.2313c1.6073 0 3.174 0.5056 4.4779 1.4454 1.304 0.9398 2.2792 2.2661 2.7875 3.791h2.6182c0.2314 0 0.4534 0.0919 0.6171 0.2556 0.1637 0.1636 0.2556 0.3856 0.2556 0.6171l-0.8727 6.9818c0 0.2314 -0.092 0.4534 -0.2556 0.6171 -0.1637 0.1636 -0.3857 0.2556 -0.6171 0.2556H11.7813Z" stroke-width="1"></path>
  <path fill="#6bafff" d="M13.0897 31.4136c0 -0.4691 0.1091 -0.912 0.298 -1.3091h-2.4798c-0.2315 0 -0.4535 0.0919 -0.6171 0.2556 -0.1637 0.1637 -0.2556 0.3857 -0.2556 0.6171 0 0.2315 0.0919 0.4535 0.2556 0.6171 0.1636 0.1637 0.3856 0.2556 0.6171 0.2556h2.2167c-0.0222 -0.1444 -0.0339 -0.2902 -0.0349 -0.4363Z" stroke-width="1"></path>
  <path fill="#6bafff" d="M16.1444 34.4684c0.8101 0 1.587 -0.3218 2.1599 -0.8946 0.5728 -0.5729 0.8946 -1.3498 0.8946 -2.1599 0 -0.8101 -0.3218 -1.587 -0.8946 -2.1599 -0.5729 -0.5728 -1.3498 -0.8946 -2.1599 -0.8946 -0.8101 0 -1.5871 0.3218 -2.1599 0.8946 -0.5728 0.5729 -0.8947 1.3498 -0.8947 2.1599 0 0.8101 0.3219 1.587 0.8947 2.1599 0.5728 0.5728 1.3498 0.8946 2.1599 0.8946Z" stroke-width="1"></path>
  <path fill="#2e3ecd" d="M16.144 32.7227c0.3472 0 0.6802 -0.138 0.9257 -0.3835 0.2455 -0.2455 0.3834 -0.5784 0.3834 -0.9256 0 -0.3472 -0.1379 -0.6802 -0.3834 -0.9257 -0.2455 -0.2455 -0.5785 -0.3834 -0.9257 -0.3834 -0.3471 0 -0.6801 0.1379 -0.9256 0.3834 -0.2455 0.2455 -0.3834 0.5785 -0.3834 0.9257 0 0.3472 0.1379 0.6801 0.3834 0.9256 0.2455 0.2455 0.5785 0.3835 0.9256 0.3835Z" stroke-width="1"></path>
  <path fill="#6bafff" d="M31.8534 34.4684c0.8101 0 1.587 -0.3218 2.1598 -0.8946 0.5729 -0.5729 0.8947 -1.3498 0.8947 -2.1599 0 -0.8101 -0.3218 -1.587 -0.8947 -2.1599 -0.5728 -0.5728 -1.3497 -0.8946 -2.1598 -0.8946 -0.8102 0 -1.5871 0.3218 -2.1599 0.8946 -0.5729 0.5729 -0.8947 1.3498 -0.8947 2.1599 0 0.8101 0.3218 1.587 0.8947 2.1599 0.5728 0.5728 1.3497 0.8946 2.1599 0.8946Z" stroke-width="1"></path>
  <path fill="#2e3ecd" d="M31.853 32.7227c0.3472 0 0.6802 -0.138 0.9257 -0.3835 0.2455 -0.2455 0.3834 -0.5784 0.3834 -0.9256 0 -0.3472 -0.1379 -0.6802 -0.3834 -0.9257 -0.2455 -0.2455 -0.5785 -0.3834 -0.9257 -0.3834 -0.3472 0 -0.6801 0.1379 -0.9256 0.3834 -0.2455 0.2455 -0.3835 0.5785 -0.3835 0.9257 0 0.3472 0.138 0.6801 0.3835 0.9256 0.2455 0.2455 0.5784 0.3835 0.9256 0.3835Z" stroke-width="1"></path>
  <path fill="#6bafff" d="M30.1084 20.0117v3.1104l0.0009 0.0009h2.6173l-0.0088 -0.0349c-0.1698 -0.6786 -0.4934 -1.3091 -0.9459 -1.8425 -0.4525 -0.5335 -1.0217 -0.9557 -1.6635 -1.2339Z" stroke-width="1"></path>
  <path fill="#6bafff" d="M28.359 19.6313h-3.4861l-0.0008 0.0009v3.4892l0.0008 0.0008h3.4892l0.0009 -0.0008v-3.4861l-0.004 -0.004Z" stroke-width="1"></path>
  <path fill="#6bafff" d="m20.9442 19.6318 -2.1805 3.4891 0.0004 0.0013h4.3614l0.0009 -0.0008v-3.4892l-0.0009 -0.0009H20.945l-0.0008 0.0005Z" stroke-width="1"></path>
  <path fill="#6bafff" d="M34.4714 24.8682H15.2715v1.7454h19.1999v-1.7454Z" stroke-width="1"></path>
  <path fill="#2e3ecd" d="M18.7622 25.3047h-1.7446v0.8723h1.7446v-0.8723Z" stroke-width="1"></path>
  <path fill="#2e3ecd" d="M22.2524 25.3047h-1.7446v0.8723h1.7446v-0.8723Z" stroke-width="1"></path>
  <path fill="#2e3ecd" d="M25.7437 25.3047H23.999v0.8723h1.7447v-0.8723Z" stroke-width="1"></path>
  <path fill="#2e3ecd" d="M29.2349 25.3047h-1.7447v0.8723h1.7447v-0.8723Z" stroke-width="1"></path>
  <path fill="#2e3ecd" d="M32.7251 25.3047h-1.7446v0.8723h1.7446v-0.8723Z" stroke-width="1"></path>
  <path fill="#6bafff" d="M11.7803 24.8682c-0.48 0 -0.7649 0.3774 -0.6327 0.8391l0.3927 1.3763c0.1323 0.4616 0.6328 0.8391 1.1128 0.8391h0.4363v-3.0545h-1.3091Z" stroke-width="1"></path>
</svg>