<svg xmlns="http://www.w3.org/2000/svg" fill="none" viewBox="0 0 48 48" id="Truck-Front--Streamline-Kameleon">
  <desc>
    Truck Front Streamline Icon: https://streamlinehq.com
  </desc>
  <path fill="#deeeff" d="M23.9989 47.9958c13.2548 0 23.9999 -10.7451 23.9999 -23.9998 0 -13.2548 -10.7451 -23.99990625 -23.9999 -23.99990625S-0.000976562 10.7412 -0.000976562 23.996c0 13.2547 10.745076562 23.9998 23.999876562 23.9998Z" stroke-width="1"></path>
  <path fill="#2e3ecd" d="M32.7261 23.9958V12.6504c0 -1.4444 -1.1738 -2.6182 -2.6181 -2.6182H17.8899c-1.4444 0 -2.6182 1.1738 -2.6182 2.6182v11.3454c-1.1389 0 -1.9855 0.288 -2.6182 0.7418 -0.3927 0.2793 -0.7025 0.624 -0.9469 1.0036 -0.528 0.8204 -0.7418 1.7978 -0.8116 2.6182 -0.096 0.9862 0.0131 1.7454 0.0131 1.7454h26.1817s0.8727 -6.109 -4.3637 -6.109Zm-1.7454 -10.4727v5.2364H17.0171v-5.2364h13.9636Z" stroke-width="1"></path>
  <path fill="#6bafff" d="M30.9802 13.5229H17.0166v5.2364h13.9636v-5.2364Z" stroke-width="1"></path>
  <path fill="#2e3ecd" d="M32.7266 19.6325c0 -0.4822 0.3905 -0.8727 0.8727 -0.8727h1.7454c0.4822 0 0.8728 0.3905 0.8728 0.8727v6.109h-3.4909v-6.109Z" stroke-width="1"></path>
  <path fill="#2e3ecd" d="M33.5986 18.7591h1.7455v-5.2363h2.6181v-1.7455h-3.4908c-0.4818 0 -0.8728 0.391 -0.8728 0.8728v6.109Z" stroke-width="1"></path>
  <path fill="#2e3ecd" d="M15.2712 19.6325c0 -0.4822 -0.3906 -0.8727 -0.8728 -0.8727H12.653c-0.4822 0 -0.8727 0.3905 -0.8727 0.8727v6.109h3.4909v-6.109Z" stroke-width="1"></path>
  <path fill="#6bafff" d="M37.9623 33.5954c0 0.4822 -0.3906 0.8727 -0.8727 0.8727H10.9079c-0.4822 0 -0.8727 -0.3905 -0.8727 -0.8727v-2.6182c0 -0.4822 0.3905 -0.8727 0.8727 -0.8727h26.1817c0.4821 0 0.8727 0.3905 0.8727 0.8727v2.6182Z" stroke-width="1"></path>
  <path fill="#2e3ecd" d="M37.0898 30.1052H10.9081s-0.1091 -0.7593 -0.0131 -1.7455c0.2247 -2.6391 1.6281 -4.3636 4.3767 -4.3636v-4.3636c0 -0.48 0.3927 -0.8727 0.8727 -0.8727h15.709c0.48 0 0.8727 0.3927 0.8727 0.8727v4.3636c5.2364 0 4.3637 6.1091 4.3637 6.1091Z" stroke-width="1"></path>
  <path fill="#6bafff" d="M32.7266 25.7412v2.6182h4.3767c-0.0699 -0.8204 -0.2837 -1.7978 -0.8117 -2.6182h-3.565Z" stroke-width="1"></path>
  <path fill="#2e3ecd" d="M14.3988 18.7591h-1.7455v-5.2363h-2.6181v-1.7455h3.4908c0.4818 0 0.8728 0.391 0.8728 0.8728v6.109Z" stroke-width="1"></path>
  <path fill="#2e3ecd" d="M16.1439 34.4688h-4.3636v2.6181c0 0.4822 0.3905 0.8727 0.8727 0.8727h2.6182c0.4821 0 0.8727 -0.3905 0.8727 -0.8727v-2.6181Z" stroke-width="1"></path>
  <path fill="#2e3ecd" d="M36.2171 34.4688h-4.3636v2.6181c0 0.4822 0.3906 0.8727 0.8727 0.8727h2.6182c0.4822 0 0.8727 -0.3905 0.8727 -0.8727v-2.6181Z" stroke-width="1"></path>
  <path fill="#6bafff" d="M15.2712 25.7412v2.6182h-4.3767c0.0698 -0.8204 0.2837 -1.7978 0.8117 -2.6182h3.565Z" stroke-width="1"></path>
  <path fill="#6bafff" d="M30.544 30.1048H17.4531v-7.4181l2.6182 -2.1818h7.8545l2.6182 2.1818v7.4181Z" stroke-width="1"></path>
  <path fill="#2e3ecd" d="M20.944 28.3592c0 0.2409 -0.1955 0.4364 -0.4363 0.4364 -0.2409 0 -0.4364 -0.1955 -0.4364 -0.4364V24.432c0 -0.2409 0.1955 -0.4364 0.4364 -0.4364 0.2408 0 0.4363 0.1955 0.4363 0.4364v3.9272Z" stroke-width="1"></path>
  <path fill="#2e3ecd" d="M22.6901 28.3595c0 0.2409 -0.1955 0.4364 -0.4364 0.4364 -0.2408 0 -0.4363 -0.1955 -0.4363 -0.4364v-5.6727c0 -0.2408 0.1955 -0.4363 0.4363 -0.4363 0.2409 0 0.4364 0.1955 0.4364 0.4363v5.6727Z" stroke-width="1"></path>
  <path fill="#2e3ecd" d="M24.4352 28.3595c0 0.2409 -0.1955 0.4364 -0.4363 0.4364 -0.2409 0 -0.4364 -0.1955 -0.4364 -0.4364v-5.6727c0 -0.2408 0.1955 -0.4363 0.4364 -0.4363 0.2408 0 0.4363 0.1955 0.4363 0.4363v5.6727Z" stroke-width="1"></path>
  <path fill="#2e3ecd" d="M26.1803 28.3595c0 0.2409 -0.1954 0.4364 -0.4363 0.4364 -0.2409 0 -0.4364 -0.1955 -0.4364 -0.4364v-5.6727c0 -0.2408 0.1955 -0.4363 0.4364 -0.4363s0.4363 0.1955 0.4363 0.4363v5.6727Z" stroke-width="1"></path>
  <path fill="#2e3ecd" d="M27.9264 28.3592c0 0.2409 -0.1955 0.4364 -0.4363 0.4364 -0.2409 0 -0.4364 -0.1955 -0.4364 -0.4364V24.432c0 -0.2409 0.1955 -0.4364 0.4364 -0.4364 0.2408 0 0.4363 0.1955 0.4363 0.4364v3.9272Z" stroke-width="1"></path>
</svg>