<svg xmlns="http://www.w3.org/2000/svg" fill="none" viewBox="0 0 48 48" id="Wind-Vane--Streamline-Kameleon">
  <desc>
    Wind Vane Streamline Icon: https://streamlinehq.com
  </desc>
  <path fill="#deeeff" d="M23.9989 47.9954c13.2548 0 23.9999 -10.7451 23.9999 -23.9999S37.2537 -0.00439453 23.9989 -0.00439453 -0.000976562 10.7407 -0.000976562 23.9955 10.7441 47.9954 23.9989 47.9954Z" stroke-width="1"></path>
  <path fill="#2e3ecd" d="M31.8532 12.6499c3.0546 0 3.4909 2.6182 3.4909 2.6182l1.591 1.0608c0.1514 0.1012 0.2243 0.2853 0.1828 0.4629 -0.0414 0.1772 -0.1889 0.3099 -0.3696 0.333 -1.3649 0.1745 -3.4145 0.6065 -3.586 1.6342 -0.8727 5.2363 -0.4364 10.909 -7.8545 10.909 -8.2909 0 -5.6727 -8.7272 -8.7272 -8.7272 -3.0546 0 -2.1818 4.7999 -2.1818 4.7999 -0.8728 -0.8727 -1.3091 -4.7999 -1.3091 -4.3636 -0.8727 1.3091 -0.8727 5.6727 -0.8727 5.6727 -0.8728 -0.8727 -2.1818 -2.6181 -2.1818 -5.6727 0 -3.0545 2.6181 -6.109 6.109 -6.109s4.3636 3.4909 6.9818 3.4909 4.8 -6.1091 8.7272 -6.1091Z" stroke-width="1"></path>
  <path fill="#2e3ecd" d="M31.8532 12.6499c0.7584 0 1.3545 0.1619 1.8235 0.4045l0.3583 -2.1499 -1.7454 0.8727 -0.8728 -1.7455 -0.8727 1.7455 -2.1818 -0.4364 1.3065 1.9597c0.6689 -0.3984 1.3907 -0.6506 2.1844 -0.6506Z" stroke-width="1"></path>
  <path fill="#2e3ecd" d="M34.5182 17.6182c-0.7095 0.2583 -1.2698 0.6244 -1.3558 1.1406 -0.144 0.8649 -0.2526 1.7289 -0.3665 2.5702 0.2972 0.2967 0.6672 0.4843 1.0774 0.4843 0.9639 0 1.7454 -0.977 1.7454 -2.1818 -0.0004 -0.9181 -0.4582 -1.6917 -1.1005 -2.0133Z" stroke-width="1"></path>
  <path fill="#6bafff" d="M25.3081 29.6676c-0.4721 0 -0.9046 -0.0318 -1.3091 -0.0851v8.376h1.7455v-8.3014c-0.144 0.0044 -0.2858 0.0105 -0.4364 0.0105Z" stroke-width="1"></path>
  <path fill="#6bafff" d="M32.2893 16.1396c0.4818 0 0.8723 -0.3905 0.8723 -0.8723 0 -0.4817 -0.3905 -0.8723 -0.8723 -0.8723 -0.4818 0 -0.8723 0.3906 -0.8723 0.8723 0 0.4818 0.3905 0.8723 0.8723 0.8723Z" stroke-width="1"></path>
  <path fill="#6bafff" d="M34.1572 30.4245c-0.2601 -0.2168 -0.6222 -0.2635 -0.929 -0.12 -0.3068 0.1436 -0.5023 0.4517 -0.5023 0.7903v1.6276h-15.709l-1.7454 -1.7454h-5.2363l2.1818 2.6181 -2.1818 2.6182h5.2363l1.7454 -1.7454h15.709v1.6276c0 0.3386 0.196 0.6467 0.5027 0.7902 0.3068 0.1436 0.6685 0.0969 0.929 -0.12l3.8047 -3.1706 -3.8051 -3.1706Z" stroke-width="1"></path>
</svg>