<svg xmlns="http://www.w3.org/2000/svg" fill="none" viewBox="0 0 24 24" id="Begging-Hand-Coin-2--Streamline-Ultimate">
  <desc>
    Begging Hand Coin 2 Streamline Icon: https://streamlinehq.com
  </desc>
  <path stroke="#000000" stroke-linecap="round" stroke-linejoin="round" d="M17.191 4.15498h-1.668c-0.2564 -0.0011 -0.5052 0.08743 -0.7032 0.25029 -0.1981 0.16285 -0.3331 0.3898 -0.3816 0.64161 -0.0485 0.25181 -0.0075 0.51265 0.1159 0.73744 0.1234 0.22479 0.3215 0.39941 0.5599 0.49366l1.693 0.677c0.2377 0.09461 0.435 0.2691 0.5579 0.49345 0.1229 0.22435 0.1638 0.48452 0.1156 0.73575 -0.0482 0.25123 -0.1824 0.47782 -0.3796 0.64077 -0.1972 0.16294 -0.445 0.25207 -0.7009 0.25203h-1.67" stroke-width="1"></path>
  <path stroke="#000000" stroke-linecap="round" stroke-linejoin="round" d="M15.9611 4.15501v-1.192" stroke-width="1"></path>
  <path stroke="#000000" stroke-linecap="round" stroke-linejoin="round" d="M15.9611 10.141V9.07703" stroke-width="1"></path>
  <path stroke="#000000" stroke-linecap="round" stroke-linejoin="round" d="M10.321 6.61601c0 1.49582 0.5943 2.93038 1.652 3.98809 1.0577 1.0577 2.4922 1.6519 3.988 1.6519 1.4959 0 2.9304 -0.5942 3.9881 -1.6519 1.0577 -1.05771 1.6519 -2.49227 1.6519 -3.98809 0 -1.49582 -0.5942 -2.93037 -1.6519 -3.98808C18.8914 1.57023 17.4569 0.976013 15.961 0.976013c-1.4958 0 -2.9303 0.594217 -3.988 1.651917 -1.0577 1.05771 -1.652 2.49226 -1.652 3.98808Z" stroke-width="1"></path>
  <path stroke="#000000" stroke-linecap="round" stroke-linejoin="round" d="m15.2 17.42 6.217 -1.986 0.043 -0.012c0.3497 -0.0766 0.7154 -0.0234 1.0287 0.1498 0.3133 0.1732 0.5529 0.4545 0.674 0.7914 0.1211 0.3368 0.1155 0.7063 -0.0158 1.0393 -0.1314 0.3331 -0.3794 0.6069 -0.6979 0.7705 -12.137 6.284 -9.041 6 -21.699977 1.783" stroke-width="1"></path>
  <path stroke="#000000" stroke-linecap="round" stroke-linejoin="round" d="M0.75 12.256h2.2c2.55711 -0.0261 5.03773 0.8716 6.986 2.528l0.041 0.036h4.1c0.409 0 0.8012 0.1624 1.0904 0.4516 0.2891 0.2892 0.4516 0.6814 0.4516 1.0904 0.0003 0.4077 -0.161 0.799 -0.4485 1.0882 -0.2874 0.2891 -0.6778 0.4527 -1.0855 0.4548l-6.234 0.031" stroke-width="1"></path>
</svg>