<svg xmlns="http://www.w3.org/2000/svg" fill="none" viewBox="0 0 14 14"><g id="ai-generate-music-spark--music-audio-note-entertainment-artificial-intelligence-ai"><path id="Vector" fill="#37d7ff" d="M10.546 5.588 3.72 7.475V5.08l7.226-2.06-.035 2.095a.5.5 0 0 1-.366.474Z"></path><path id="vector" fill="#37d7ff" d="M2.124 13.46a1.597 1.597 0 1 0 0-3.193 1.597 1.597 0 0 0 0 3.194Z"></path><path id="vector_2" fill="#37d7ff" d="M9.31 11.465a1.597 1.597 0 1 0 0-3.194 1.597 1.597 0 0 0 0 3.194Z"></path><path id="vector_3" stroke="#3e3e3e" stroke-linecap="round" stroke-linejoin="round" d="M2.124 13.46a1.597 1.597 0 1 0 0-3.193 1.597 1.597 0 0 0 0 3.194Z"></path><path id="vector_4" stroke="#3e3e3e" stroke-linecap="round" stroke-linejoin="round" d="M9.31 11.465a1.597 1.597 0 1 0 0-3.194 1.597 1.597 0 0 0 0 3.194Z"></path><path id="vector_5" stroke="#3e3e3e" stroke-linecap="round" stroke-linejoin="round" d="M3.721 11.864V5.381a.4.4 0 0 1 .295-.383l1.511-.433"></path><path id="vector_6" stroke="#3e3e3e" stroke-linecap="round" stroke-linejoin="round" d="m3.721 7.473 4.306-1.196"></path><path id="vector_7" stroke="#3e3e3e" stroke-linecap="round" stroke-linejoin="round" d="M10.906 9.868V8.461"></path><path id="Vector 2136" fill="#ffffff" d="M7.389 3.973c-.351-.06-.351-.565 0-.626A3.176 3.176 0 0 0 9.947.897L9.968.8c.076-.346.57-.349.649-.002l.026.112a3.193 3.193 0 0 0 2.565 2.436c.353.061.353.567 0 .629a3.193 3.193 0 0 0-2.565 2.435l-.026.113c-.079.346-.573.344-.649-.003l-.02-.097a3.176 3.176 0 0 0-2.56-2.45Z"></path><path id="Vector 2137" stroke="#3e3e3e" stroke-linecap="round" stroke-linejoin="round" d="M7.389 3.973c-.351-.06-.351-.565 0-.626A3.176 3.176 0 0 0 9.947.897L9.968.8c.076-.346.57-.349.649-.002l.026.112a3.193 3.193 0 0 0 2.565 2.436c.353.061.353.567 0 .629a3.193 3.193 0 0 0-2.565 2.435l-.026.113c-.079.346-.573.344-.649-.003l-.02-.097a3.176 3.176 0 0 0-2.56-2.45Z"></path></g></svg>