<svg xmlns="http://www.w3.org/2000/svg" fill="none" viewBox="0 0 14 14"><g id="ai-redo-spark--arrow-refresh-sync-synchronize-artificial-intelligence-ai"><path id="Vector" stroke="#3e3e3e" stroke-linecap="round" stroke-linejoin="round" d="M2.04 13.448v-2.48h2.48"></path><path id="Ellipse 1132" stroke="#3e3e3e" stroke-linecap="round" stroke-linejoin="round" d="M13.339 5.815a6.449 6.449 0 0 1-11.3 5.308"></path><path id="Ellipse 1133" stroke="#3e3e3e" stroke-linecap="round" stroke-linejoin="round" d="M.661 8.185a6.449 6.449 0 0 1 11.3-5.308"></path><path id="Vector_2" stroke="#3e3e3e" stroke-linecap="round" stroke-linejoin="round" d="M11.96.552v2.48H9.48"></path><path id="Vector 2136" fill="#37d7ff" d="M4.09 7.334c-.351-.061-.351-.565 0-.626a3.176 3.176 0 0 0 2.558-2.45l.021-.097c.076-.347.57-.349.649-.003l.026.113a3.193 3.193 0 0 0 2.565 2.435c.353.062.353.568 0 .63A3.193 3.193 0 0 0 7.344 9.77l-.026.112c-.079.347-.573.344-.649-.002l-.021-.097a3.176 3.176 0 0 0-2.558-2.45Z"></path><path id="Vector 2137" stroke="#3e3e3e" stroke-linecap="round" stroke-linejoin="round" d="M4.09 7.334c-.351-.061-.351-.565 0-.626a3.176 3.176 0 0 0 2.558-2.45l.021-.097c.076-.347.57-.349.649-.003l.026.113a3.193 3.193 0 0 0 2.565 2.435c.353.062.353.568 0 .63A3.193 3.193 0 0 0 7.344 9.77l-.026.112c-.079.347-.573.344-.649-.002l-.021-.097a3.176 3.176 0 0 0-2.558-2.45Z"></path></g></svg>