<svg xmlns="http://www.w3.org/2000/svg" fill="none" viewBox="0 0 24 24" id="Color-Palette--Streamline-Ultimate">
  <desc>
    Color Palette Streamline Icon: https://streamlinehq.com
  </desc>
  <g clip-path="url(#a)">
    <path fill="#66e1ff" d="M19.1704 8.18106c0.002 0.4207 -0.0372 0.83943 -0.1146 1.25246 -1 -0.51235 -2.108 -0.77784 -3.2316 -0.77437 -1.3541 -0.00075 -2.6805 0.3839 -3.8242 1.10903 -1.1437 -0.72513 -2.47006 -1.10978 -3.82418 -1.10903 -1.12355 -0.00347 -2.23156 0.26202 -3.23144 0.77437 -0.07742 -0.41293 -0.1158 -0.83223 -0.11477 -1.25246 0 -5.51972 5.97539 -8.969564 10.75559 -6.20975 2.2186 1.28091 3.5852 3.64802 3.5852 6.20975Z" stroke-width="1"></path>
    <path fill="#78eb7b" d="M12.0014 9.76819C10.293 10.8379 9.11862 12.5822 8.77 14.5676c-2.0155 -1.0096 -3.43402 -2.9138 -3.8242 -5.13408 0.99989 -0.51234 2.10789 -0.77783 3.23144 -0.77437 1.35374 0 2.67986 0.38429 3.82416 1.10904Z" stroke-width="1"></path>
    <path fill="#ffef5e" d="M12.0014 21.8814C10.8605 22.6137 9.53287 23.002 8.17716 23c-5.51972 -0.0076 -8.961513 -5.9876 -6.19505 -10.7641 0.69573 -1.2013 1.72529 -2.1748 2.96361 -2.80237 0.39018 2.22027 1.80871 4.12447 3.8242 5.13407 -0.52358 2.8698 0.75715 5.7685 3.23148 7.3138Z" stroke-width="1"></path>
    <path fill="#e3e3e3" d="M15.2314 14.5676c-2.0274 1.0452 -4.4354 1.0452 -6.46285 0C9.11726 12.5822 10.2916 10.838 12 9.76819c1.7083 1.06981 2.8828 2.81401 3.2314 4.79941Z" stroke-width="1"></path>
    <path fill="#d480ff" d="M19.0567 9.43352c-0.3903 2.22028 -1.8087 4.12448 -3.8242 5.13408 -0.3488 -1.9853 -1.5232 -3.7295 -3.2315 -4.79941 1.1437 -0.72513 2.4701 -1.10979 3.8243 -1.10904 1.1234 -0.00346 2.2315 0.26203 3.2314 0.77437Z" stroke-width="1"></path>
    <path fill="#c77f67" d="M15.3469 15.8296c0.0053 2.4599 -1.26 4.7483 -3.3463 6.0518 -2.47425 -1.5453 -3.75497 -4.444 -3.23139 -7.3138 2.02749 1.0453 4.43539 1.0453 6.46299 0 0.0765 0.4159 0.1147 0.8385 0.1147 1.262Z" stroke-width="1"></path>
    <path fill="#ff808c" d="M22.9946 15.8296c0 3.9602 -3.2101 7.1706 -7.1704 7.1704 -1.3556 0.002 -2.6832 -0.3863 -3.8242 -1.1186 2.4744 -1.5453 3.7551 -4.444 3.2315 -7.3138 2.0154 -1.0096 3.4339 -2.9139 3.8242 -5.13407C21.4749 10.6466 23 13.1233 22.9946 15.8296Z" stroke-width="1"></path>
    <path stroke="#191919" stroke-linecap="round" stroke-linejoin="round" d="M19.1704 8.18106c0.002 0.4207 -0.0372 0.83943 -0.1146 1.25246 -1 -0.51235 -2.108 -0.77784 -3.2316 -0.77437 -1.3541 -0.00075 -2.6805 0.3839 -3.8242 1.10903 -1.1437 -0.72513 -2.47006 -1.10978 -3.82418 -1.10903 -1.12355 -0.00347 -2.23156 0.26202 -3.23144 0.77437 -0.07742 -0.41293 -0.1158 -0.83223 -0.11477 -1.25246 0 -5.51972 5.97539 -8.969564 10.75559 -6.20975 2.2186 1.28091 3.5852 3.64802 3.5852 6.20975Z" stroke-width="1"></path>
    <path stroke="#191919" stroke-linecap="round" stroke-linejoin="round" d="M12.0014 9.76819C10.293 10.8379 9.11862 12.5822 8.77 14.5676c-2.0155 -1.0096 -3.43402 -2.9138 -3.8242 -5.13408 0.99989 -0.51234 2.10789 -0.77783 3.23144 -0.77437 1.35374 0 2.67986 0.38429 3.82416 1.10904Z" stroke-width="1"></path>
    <path stroke="#191919" stroke-linecap="round" stroke-linejoin="round" d="M12.0014 21.8814C10.8605 22.6137 9.53287 23.002 8.17716 23c-5.51972 -0.0076 -8.961513 -5.9876 -6.19505 -10.7641 0.69573 -1.2013 1.72529 -2.1748 2.96361 -2.80237 0.39018 2.22027 1.80871 4.12447 3.8242 5.13407 -0.52358 2.8698 0.75715 5.7685 3.23148 7.3138Z" stroke-width="1"></path>
    <path stroke="#191919" stroke-linecap="round" stroke-linejoin="round" d="M15.2314 14.5676c-2.0274 1.0452 -4.4354 1.0452 -6.46285 0C9.11726 12.5822 10.2916 10.838 12 9.76819c1.7083 1.06981 2.8828 2.81401 3.2314 4.79941Z" stroke-width="1"></path>
    <path stroke="#191919" stroke-linecap="round" stroke-linejoin="round" d="M15.2322 14.5676c2.0155 -1.0096 3.4339 -2.9138 3.8242 -5.13408 -0.9999 -0.51234 -2.108 -0.77783 -3.2315 -0.77437 -1.3542 -0.00075 -2.6806 0.38391 -3.8243 1.10904 1.7084 1.06991 2.8828 2.81411 3.2316 4.79941Zm0 0c-2.0276 1.0452 -4.4355 1.0452 -6.46299 0 -0.52358 2.8698 0.75714 5.7685 3.23139 7.3138 2.0863 -1.3035 3.3516 -3.5919 3.3463 -6.0518 0 -0.4235 -0.0382 -0.8461 -0.1147 -1.262Z" stroke-width="1"></path>
    <path stroke="#191919" stroke-linecap="round" stroke-linejoin="round" d="M22.9946 15.8296c0 3.9602 -3.2101 7.1706 -7.1704 7.1704 -1.3556 0.002 -2.6832 -0.3863 -3.8242 -1.1186 2.4744 -1.5453 3.7551 -4.444 3.2315 -7.3138 2.0154 -1.0096 3.4339 -2.9139 3.8242 -5.13407C21.4749 10.6466 23 13.1233 22.9946 15.8296Z" stroke-width="1"></path>
  </g>
  <defs>
    <clipPath id="a">
      <path fill="#ffffff" d="M0 0h24v24H0z" stroke-width="1"></path>
    </clipPath>
  </defs>
</svg>