<svg xmlns="http://www.w3.org/2000/svg" fill="none" viewBox="0 0 24 24" id="Design-Tool-Magic-Wand--Streamline-Ultimate">
  <desc>
    Design Tool Magic Wand Streamline Icon: https://streamlinehq.com
  </desc>
  <g clip-path="url(#a)">
    <path stroke="#191919" stroke-linecap="round" stroke-linejoin="round" d="M1 22.958 16.4925 7.56126" stroke-width="1"></path>
    <path fill="#fff9bf" d="M21.5469 2.18771c0.2499 -0.0833 0.383 0.05267 0.3035 0.30258l-0.923 2.76816c-0.0373 0.13759 -0.0393 0.28237 -0.0058 0.42093 0.0334 0.13857 0.1013 0.26648 0.1973 0.37189l1.7733 1.77331c0.1857 0.18576 0.1244 0.31502 -0.1379 0.28725l-2.7241 -0.30161c-0.1401 -0.00817 -0.2797 0.02147 -0.4044 0.08583 -0.1247 0.06435 -0.2297 0.16103 -0.3042 0.27993l-1.577 2.83712c-0.1274 0.2307 -0.2806 0.2087 -0.3399 -0.0479l-0.7038 -3.05062c-0.0392 -0.13662 -0.1124 -0.26104 -0.2129 -0.36155 -0.1006 -0.1005 -0.225 -0.17378 -0.3616 -0.21295l-3.0525 -0.70186c-0.2567 -0.05936 -0.2787 -0.21256 -0.0479 -0.34087l2.839 -1.57415c0.1189 -0.07435 0.2156 -0.17942 0.2798 -0.30412 0.0642 -0.12471 0.0936 -0.26443 0.085 -0.40444l-0.3045 -2.72794c-0.0287 -0.2614 0.0958 -0.32364 0.2873 -0.13693l1.7742 1.77331c0.1059 0.09506 0.2341 0.16197 0.3726 0.1946 0.1386 0.03263 0.283 0.02992 0.4203 -0.00788l2.7672 -0.92209Z" stroke-width="1"></path>
    <path fill="#ffef5e" d="m22.7508 8.10704 -2.7194 -0.29683c-0.14 -0.00837 -0.2796 0.02109 -0.4042 0.08528 -0.1247 0.06418 -0.2298 0.16073 -0.3043 0.27953l-1.578 2.83428c-0.1245 0.2393 -0.2777 0.2096 -0.3447 -0.0489l-0.699 -3.04391c-0.0283 -0.11624 -0.088 -0.22251 -0.1723 -0.30736 -0.0242 -0.04144 -0.0568 -0.07732 -0.0958 -0.10532l5.3333 -5.33238c0.0096 0.00958 0.0288 0.01915 0.0383 0.02873 0.0671 0.04787 0.0862 0.15224 0.0479 0.28725l-0.9192 2.76721c-0.0396 0.13755 -0.0429 0.28306 -0.0093 0.42223 0.0336 0.13916 0.1028 0.2672 0.2008 0.37154l1.7714 1.7714c0.18 0.19246 0.1226 0.31693 -0.1455 0.28725Z" stroke-width="1"></path>
    <path stroke="#191919" stroke-linecap="round" stroke-linejoin="round" d="M21.5469 2.18771c0.2499 -0.0833 0.383 0.05267 0.3035 0.30258l-0.923 2.76816c-0.0373 0.13759 -0.0393 0.28237 -0.0058 0.42093 0.0334 0.13857 0.1013 0.26648 0.1973 0.37189l1.7733 1.77331c0.1857 0.18576 0.1244 0.31502 -0.1379 0.28725l-2.7241 -0.30161c-0.1401 -0.00817 -0.2797 0.02147 -0.4044 0.08583 -0.1247 0.06435 -0.2297 0.16103 -0.3042 0.27993l-1.577 2.83712c-0.1274 0.2307 -0.2806 0.2087 -0.3399 -0.0479l-0.7038 -3.05062c-0.0392 -0.13662 -0.1124 -0.26104 -0.2129 -0.36155 -0.1006 -0.1005 -0.225 -0.17378 -0.3616 -0.21295l-3.0525 -0.70186c-0.2567 -0.05936 -0.2787 -0.21256 -0.0479 -0.34087l2.839 -1.57415c0.1189 -0.07435 0.2156 -0.17942 0.2798 -0.30412 0.0642 -0.12471 0.0936 -0.26443 0.085 -0.40444l-0.3045 -2.72794c-0.0287 -0.2614 0.0958 -0.32364 0.2873 -0.13693l1.7742 1.77331c0.1059 0.09506 0.2341 0.16197 0.3726 0.1946 0.1386 0.03263 0.283 0.02992 0.4203 -0.00788l2.7672 -0.92209Z" stroke-width="1"></path>
  </g>
  <defs>
    <clipPath id="a">
      <path fill="#ffffff" d="M0 0h24v24H0z" stroke-width="1"></path>
    </clipPath>
  </defs>
</svg>