<svg xmlns="http://www.w3.org/2000/svg" fill="none" viewBox="0 0 24 24" id="Graphic-Tablet-Draw--Streamline-Ultimate">
  <desc>
    Graphic Tablet Draw Streamline Icon: https://streamlinehq.com
  </desc>
  <path fill="#ffffff" d="M22.0435 3.3913H1.95652C1.42825 3.3913 1 3.81955 1 4.34782V19.6522c0 0.5283 0.42825 0.9565 0.95652 0.9565H22.0435c0.5283 0 0.9565 -0.4282 0.9565 -0.9565V4.34782c0 -0.52827 -0.4282 -0.95652 -0.9565 -0.95652Z" stroke-width="1"></path>
  <path fill="#c2f3ff" d="M21.0865 5.3082v7.6522h-2.3913v5.7391H2.9126V5.3082h18.1739Z" stroke-width="1"></path>
  <path fill="#66e1ff" d="M6.53906 18.6995H18.6955v-5.7391h2.3913V5.3082h-1.1564L6.53906 18.6995Z" stroke-width="1"></path>
  <path stroke="#191919" stroke-linecap="round" stroke-linejoin="round" d="M23 8.65217V19.6522c0 0.2536 -0.1008 0.497 -0.2802 0.6763 -0.1793 0.1794 -0.4227 0.2802 -0.6763 0.2802H1.95652c-0.25369 0 -0.49698 -0.1008 -0.67636 -0.2802C1.10078 20.1492 1 19.9058 1 19.6522V4.34782c0 -0.25369 0.10078 -0.49698 0.28016 -0.67637 0.17938 -0.17937 0.42267 -0.28015 0.67636 -0.28015H18.6957" stroke-width="1"></path>
  <path fill="#ff808c" d="M21.0866 15.8299h-2.3913v2.8696h2.3913v-2.8696Z" stroke-width="1"></path>
  <path stroke="#191919" stroke-linecap="round" stroke-linejoin="round" d="M16.7822 5.3082H2.9126v13.3913h15.7826" stroke-width="1"></path>
  <path fill="#ffef5e" d="M21.0866 12.9603h-2.3913v2.8696h2.3913v-2.8696Z" stroke-width="1"></path>
  <path stroke="#191919" stroke-linecap="round" stroke-linejoin="round" d="M21.0869 12.9603V10.569" stroke-width="1"></path>
  <path fill="#e3e3e3" d="M8.17351 14.8696c0.66213 0 1.3094 -0.1964 1.85999 -0.5643 0.5505 -0.3678 0.9796 -0.8907 1.233 -1.5024 0.2534 -0.6117 0.3197 -1.2849 0.1905 -1.9343 -0.1292 -0.6494 -0.448 -1.24592 -0.9162 -1.71412 -0.4682 -0.4682 -1.06475 -0.78705 -1.71416 -0.91623 -0.64942 -0.12918 -1.32255 -0.06288 -1.93429 0.19051 -0.61173 0.25339 -1.13459 0.68249 -1.50245 1.23303 -0.36787 0.55061 -0.56422 1.19781 -0.56422 1.85991 0 0.888 0.35272 1.7395 0.98056 2.3673 0.62783 0.6279 1.47937 0.9806 2.36727 0.9806Z" stroke-width="1"></path>
  <path fill="#ffffff" d="M8.17404 12.9565c0.28377 0 0.56117 -0.0841 0.79712 -0.2418 0.23595 -0.1576 0.41985 -0.3817 0.52845 -0.6439 0.10859 -0.2622 0.13701 -0.5507 0.08165 -0.8289 -0.05537 -0.2784 -0.19202 -0.5341 -0.39268 -0.7347 -0.20065 -0.2006 -0.4563 -0.3373 -0.73462 -0.3927 -0.27833 -0.0553 -0.56682 -0.027 -0.82899 0.0817 -0.26217 0.1086 -0.48625 0.2925 -0.6439 0.5284 -0.15767 0.236 -0.24181 0.5133 -0.24181 0.7971 0 0.3805 0.15117 0.7456 0.42024 1.0146 0.26907 0.2691 0.63402 0.4202 1.01454 0.4202Z" stroke-width="1"></path>
  <path fill="#808080" d="M22.6048 6.65589 17.739 11.5217 15.3477 12l0.4782 -2.39133 4.8658 -4.86583c0.2529 -0.25291 0.5961 -0.395 0.9537 -0.395 0.3576 0 0.7007 0.14209 0.9536 0.395l0.0058 0.00574c0.2529 0.25294 0.395 0.59597 0.395 0.95366 0 0.35769 -0.1421 0.70072 -0.395 0.95365Z" stroke-width="1"></path>
  <path stroke="#191919" stroke-linecap="round" stroke-linejoin="round" d="M21.0866 15.8299h-2.3913v2.8696h2.3913v-2.8696Z" stroke-width="1"></path>
  <path stroke="#191919" stroke-linecap="round" stroke-linejoin="round" d="M21.0866 12.9603h-2.3913v2.8696h2.3913v-2.8696Z" stroke-width="1"></path>
  <path stroke="#191919" stroke-linecap="round" stroke-linejoin="round" d="M8.17351 14.8696c0.66213 0 1.3094 -0.1964 1.85999 -0.5643 0.5505 -0.3678 0.9796 -0.8907 1.233 -1.5024 0.2534 -0.6117 0.3197 -1.2849 0.1905 -1.9343 -0.1292 -0.6494 -0.448 -1.24592 -0.9162 -1.71412 -0.4682 -0.4682 -1.06475 -0.78705 -1.71416 -0.91623 -0.64942 -0.12918 -1.32255 -0.06288 -1.93429 0.19051 -0.61173 0.25339 -1.13459 0.68249 -1.50245 1.23303 -0.36787 0.55061 -0.56422 1.19781 -0.56422 1.85991 0 0.888 0.35272 1.7395 0.98056 2.3673 0.62783 0.6279 1.47937 0.9806 2.36727 0.9806Z" stroke-width="1"></path>
  <path stroke="#191919" stroke-linecap="round" stroke-linejoin="round" d="M8.17404 12.9565c0.28377 0 0.56117 -0.0841 0.79712 -0.2418 0.23595 -0.1576 0.41985 -0.3817 0.52845 -0.6439 0.10859 -0.2622 0.13701 -0.5507 0.08165 -0.8289 -0.05537 -0.2784 -0.19202 -0.5341 -0.39268 -0.7347 -0.20065 -0.2006 -0.4563 -0.3373 -0.73462 -0.3927 -0.27833 -0.0553 -0.56682 -0.027 -0.82899 0.0817 -0.26217 0.1086 -0.48625 0.2925 -0.6439 0.5284 -0.15767 0.236 -0.24181 0.5133 -0.24181 0.7971 0 0.3805 0.15117 0.7456 0.42024 1.0146 0.26907 0.2691 0.63402 0.4202 1.01454 0.4202Z" stroke-width="1"></path>
  <path stroke="#191919" stroke-linecap="round" stroke-linejoin="round" d="M22.6048 6.65589 17.739 11.5217 15.3477 12l0.4782 -2.39133 4.8658 -4.86583c0.2529 -0.25291 0.5961 -0.395 0.9537 -0.395 0.3576 0 0.7007 0.14209 0.9536 0.395l0.0058 0.00574c0.2529 0.25294 0.395 0.59597 0.395 0.95366 0 0.35769 -0.1421 0.70072 -0.395 0.95365Z" stroke-width="1"></path>
</svg>