<svg xmlns="http://www.w3.org/2000/svg" fill="none" viewBox="0 0 14 14" id="Cheese--Streamline-Core-Remix">
  <desc>
    Cheese Streamline Icon: https://streamlinehq.com
  </desc>
  <g id="Free Remix/Food Drink/cheese--cook-cheese-animal-products-cooking-nutrition-dairy-food">
    <path id="Union" fill="#000000" fill-rule="evenodd" d="M8.15331 0.479969C8.25598 0.411524 8.37661 0.375 8.5 0.375c1.46719 0 2.7543 0.7334 3.6598 1.77817C13.0637 3.19617 13.625 4.5892 13.625 6v6c0 0.8975 -0.7275 1.625 -1.625 1.625H2c-0.89746 0 -1.625 -0.7275 -1.625 -1.625V6c0 -0.15715 0.057998 -0.30075 0.153757 -0.41057 0.017891 -0.02054 0.037188 -0.03997 0.057808 -0.05816 0.023441 -0.02069 0.048446 -0.03965 0.074814 -0.05668L8.15331 0.479969ZM1.625 6.625v2.80154c0.26897 -0.11365 0.56467 -0.17654 0.875 -0.17654 1.24264 0 2.25 1.0074 2.25 2.25 0 0.3103 -0.06289 0.606 -0.17654 0.875H12c0.2071 0 0.375 -0.1679 0.375 -0.375V6.625H1.625ZM7.25 9.5c0 -0.9665 0.7835 -1.75 1.75 -1.75s1.75 0.7835 1.75 1.75 -0.7835 1.75 -1.75 1.75 -1.75 -0.7835 -1.75 -1.75Z" clip-rule="evenodd" stroke-width="1"></path>
  </g>
</svg>