<svg xmlns="http://www.w3.org/2000/svg" fill="none" viewBox="0 0 14 14" id="Ampersand--Streamline-Core-Gradient">
  <desc>
    Ampersand Streamline Icon: https://streamlinehq.com
  </desc>
  <g id="Free Gradient/Interface Essential/ampersand">
    <path id="Vector 4134 (Stroke)" fill="url(#paint0_linear_14402_9046)" fill-rule="evenodd" d="M5.06117 1.5C4.19896 1.5 3.5 2.19896 3.5 3.06117c0 .40665.15866.79724.44224 1.08869l1.11644 1.14746 1.2198-1.16677c.30118-.28808.47152-.68674.47152-1.10351C6.75 2.18368 6.06632 1.5 5.22296 1.5h-.16179ZM8.25 3.02704c0 .82616-.33767 1.61642-.93468 2.18747L6.10475 6.37245l2.57037 2.64177 1.54458-1.54455c.2929-.29289.7677-.29289 1.0606 0 .2929.29289.2929.76777 0 1.06066L9.72125 10.0894l2.56625 2.6376c.2889.2969.2824.7717-.0145 1.0605-.2969.2889-.7717.2824-1.0605-.0145l-2.55201-2.6228-1.85351 1.8535C6.16754 13.6431 5.29452 14 4.39449 14 2.53558 14 1 12.4942 1 10.6226c0-.92172.37675-1.80343 1.04285-2.44058l1.93183-1.84783L2.86715 5.1959C2.31111 4.62441 2 3.85853 2 3.06117 2 1.37053 3.37053 0 5.06117 0h.16179C6.89475 0 8.25 1.35525 8.25 3.02704ZM5.02075 7.40932 3.07969 9.26598C2.70942 9.62015 2.5 10.1103 2.5 10.6226c0 1.0306.8513 1.8774 1.89449 1.8774.50649 0 .99671-.2019 1.35183-.557l1.86804-1.868-2.59361-2.66568Z" clip-rule="evenodd"></path>
  </g>
  <defs>
    <linearGradient id="paint0_linear_14402_9046" x1="2.88" x2="12.936" y1="2.692" y2="7.269" gradientUnits="userSpaceOnUse">
      <stop stop-color="#ffd600"></stop>
      <stop offset="1" stop-color="#00d078"></stop>
    </linearGradient>
  </defs>
</svg>