<svg xmlns="http://www.w3.org/2000/svg" fill="none" viewBox="0 0 14 14" id="Broken-Link-2--Streamline-Core-Gradient">
  <desc>
    Broken Link 2 Streamline Icon: https://streamlinehq.com
  </desc>
  <g id="Free Gradient/Interface Essential/broken-link-2--break-broken-hyperlink-link-remove-unlink-chain">
    <path id="Union" fill="url(#paint0_linear_14402_9351)" fill-rule="evenodd" d="M6.25725 1.32843c1.77123-1.771237 4.64295-1.771241 6.41425 0 1.7712 1.77123 1.7712 4.64297 0 6.41421l-1 1c-.3906.39052-1.0237.39052-1.4143 0-.39048-.39052-.39048-1.02369 0-1.41421l1-1c.9902-.99019.9902-2.5956 0-3.58579-.9901-.99019-2.59555-.99019-3.58574 0l-1 1c-.39052.39052-1.02369.39052-1.41421 0-.39053-.39052-.39053-1.02369 0-1.41421l1-1Zm2.94986 4.87868c.39052-.39053.39052-1.02369 0-1.41422-.39053-.39052-1.02369-.39052-1.41422 0l-.96967.96967L1.28033.21967c-.292893-.2928933-.767767-.2928933-1.06066 0-.2928931.292893-.2928931.767767 0 1.06066L12.7197 13.7803c.2929.2929.7677.2929 1.0606 0 .2929-.2929.2929-.7677 0-1.0606L8.23744 7.17678l.96967-.96967ZM2.74264 7.67158c.39053-.39052.39053-1.02369 0-1.41421-.39052-.39052-1.02369-.39052-1.41421 0-1.771239 1.77124-1.77124 4.64293 0 6.41423 1.77123 1.7712 4.64298 1.7712 6.41421 0 .39053-.3905.39053-1.0237 0-1.4142-.39052-.3906-1.02369-.3906-1.41421 0-.99019.9902-2.5956.9902-3.58579 0-.99019-.9902-.99019-2.59563 0-3.58582Z" clip-rule="evenodd"></path>
  </g>
  <defs>
    <linearGradient id="paint0_linear_14402_9351" x1=".538" x2="16.494" y1="1.131" y2="10.125" gradientUnits="userSpaceOnUse">
      <stop stop-color="#00d078"></stop>
      <stop offset="1" stop-color="#007df0"></stop>
    </linearGradient>
  </defs>
</svg>