<svg xmlns="http://www.w3.org/2000/svg" fill="none" viewBox="0 0 14 14" id="Celsius--Streamline-Core-Gradient">
  <desc>
    Celsius Streamline Icon: https://streamlinehq.com
  </desc>
  <g id="Free Gradient/Interface Essential/Interface Essential/Weather/celsius--degrees-temperature-centigrade-celsius-degree-weather">
    <path id="Union" fill="url(#paint0_linear_14402_9402)" fill-rule="evenodd" d="M2.5 2.25c0-.41421.33579-.75.75-.75s.75.33579.75.75-.33579.75-.75.75-.75-.33579-.75-.75ZM3.25 0C2.00736 0 1 1.00736 1 2.25S2.00736 4.5 3.25 4.5 5.5 3.49264 5.5 2.25 4.49264 0 3.25 0ZM9.5 1C7.567 1 6 2.567 6 4.5v6C6 12.433 7.567 14 9.5 14s3.5-1.567 3.5-3.5c0-.55228-.4477-1-1-1s-1 .44772-1 1c0 .8284-.6716 1.5-1.5 1.5-.82843 0-1.5-.6716-1.5-1.5v-6C8 3.67157 8.67157 3 9.5 3c.8284 0 1.5.67157 1.5 1.5 0 .55228.4477 1 1 1s1-.44772 1-1C13 2.567 11.433 1 9.5 1Z" clip-rule="evenodd"></path>
  </g>
  <defs>
    <linearGradient id="paint0_linear_14402_9402" x1="2.962" x2="13.298" y1="2.692" y2="7.601" gradientUnits="userSpaceOnUse">
      <stop stop-color="#ffd600"></stop>
      <stop offset="1" stop-color="#00d078"></stop>
    </linearGradient>
  </defs>
</svg>