<svg xmlns="http://www.w3.org/2000/svg" fill="none" viewBox="0 0 14 14" id="Cut--Streamline-Core-Gradient">
  <desc>
    Cut Streamline Icon: https://streamlinehq.com
  </desc>
  <g id="Free Gradient/Interface Essential/cut--coupon-cut-discount-price-prices-scissors">
    <path id="Union" fill="url(#paint0_linear_14402_9535)" fill-rule="evenodd" d="M3.5 4.99994c-.82843 0-1.5-.67157-1.5-1.5s.67157-1.5 1.5-1.5 1.5.67157 1.5 1.5-.67157 1.5-1.5 1.5Zm-3-1.5c0 1.36628.91335 2.51924 2.16278 2.88162l1.18712.62384-1.18446.61215C1.41464 7.97906.5 9.13269.5 10.4999c0 1.6569 1.34315 3 3 3s3-1.3431 3-3c0-1.03711-.5263-1.95133-1.3264-2.49012l.29621-.15309 1.53595.80716c.36666.19268.82011.05165 1.0128-.31502.19268-.36667.05165-.82011-.31502-1.0128l-.60803-.31953 5.99879-3.10028c.368-.19018.5122-.64265.322-1.01062-.1902-.36798-.6427-.51212-1.0106-.32194L5.4756 6.16522l-.31574-.16592C5.96767 5.46175 6.5 4.54301 6.5 3.49994c0-1.65686-1.34315-3.000001-3-3.000001S.5 1.84308.5 3.49994Zm3 5.5c-.82843 0-1.5.67157-1.5 1.49996 0 .8285.67157 1.5 1.5 1.5s1.5-.6715 1.5-1.5c0-.82839-.67157-1.49996-1.5-1.49996Zm3.75 1.49996c0-.4142.33579-.74996.75-.74996h1c.41421 0 .75.33576.75.74996 0 .4143-.33579.75-.75.75H8c-.41421 0-.75-.3357-.75-.75Zm3.75 0c0-.4142.3358-.74996.75-.74996h1c.4142 0 .75.33576.75.74996 0 .4143-.3358.75-.75.75h-1c-.4142 0-.75-.3357-.75-.75Z" clip-rule="evenodd"></path>
  </g>
  <defs>
    <linearGradient id="paint0_linear_14402_9535" x1="1" x2="15.816" y1="1.55" y2="9.902" gradientUnits="userSpaceOnUse">
      <stop stop-color="#00d078"></stop>
      <stop offset="1" stop-color="#007df0"></stop>
    </linearGradient>
  </defs>
</svg>