<svg xmlns="http://www.w3.org/2000/svg" fill="none" viewBox="0 0 14 14" id="Descending-Number-Order--Streamline-Core-Gradient">
  <desc>
    Descending Number Order Streamline Icon: https://streamlinehq.com
  </desc>
  <g id="Free Gradient/Interface Essential/descending-number-order">
    <path id="Union" fill="url(#paint0_linear_14402_9259)" fill-rule="evenodd" d="m10.4949 2.84368-.65628.00001c-.37106 0-.67187-.30081-.67187-.67188 0-.37106.3008-.67186.67187-.67187l.65618 0c.3695 0 .6693.29819.6719.66702v.0097c-.0026.36883-.3024.66702-.6718.66702Zm-.0001-2.8437410351C11.6053-.00006981 12.5212.833348 12.651 1.90883c.0103.04958.0157.10095.0157.1536v.10065l0 .00874 0 .00872v2.50689c0 1.13909-.9234 2.0625-2.0625 2.0625h-.87498c-.8992 0-1.66216-.57501-1.94494-1.37507-.13804-.39054.06666-.81903.45719-.95706.39054-.13804.81903.06666.95707.45719.07757.21949.28694.37494.53068.37494h.87498c.3107 0 .5625-.25184.5625-.5625v-.44966c-.2115.06875-.4374.10591-.6718.10591l-.65627.00001c-1.1995 0-2.17188-.97238-2.17188-2.17188 0-1.199482.97237-2.1718563471 2.17185-2.17186596l.6562-.0000050751ZM11.3333 8.24993c0-.41422-.3358-.75-.75-.75s-.75001.33578-.75001.75c0 .27614-.22386.5-.5.5h-.41666c-.41422 0-.75001.33578-.75001.75 0 .41421.33579.74997.75.74997h.41667c.17265 0 .34019-.0218.5-.063v2.313h-.91667c-.41421 0-.75.3358-.75.75s.33579.75.75.75H12.25c.4142 0 .75-.3358.75-.75s-.3358-.75-.75-.75h-.9167V8.24993ZM3.50001-.0000610351c.55229 0 1 .4477150351 1 1.0000000351V10.4999h1.5c.20224 0 .38455.1219.46194.3087.0774.1868.03462.4019-.10838.5449l-2.5 2.5c-.19526.1953-.51185.1953-.70711 0l-2.499999-2.5c-.142999-.143-.185777-.3581-.108386-.5449.07739-.1868.259708-.3087.461935-.3087h1.5V.999939c0-.552285.44772-1.0000000351 1-1.0000000351Z" clip-rule="evenodd"></path>
  </g>
  <defs>
    <linearGradient id="paint0_linear_14402_9259" x1="14.083" x2="-4.008" y1="16.965" y2="5.491" gradientUnits="userSpaceOnUse">
      <stop stop-color="#ffd600"></stop>
      <stop offset="1" stop-color="#ff007a"></stop>
    </linearGradient>
  </defs>
</svg>