<svg xmlns="http://www.w3.org/2000/svg" fill="none" viewBox="0 0 14 14" id="Face-Scan-1--Streamline-Core-Gradient">
  <desc>
    Face Scan 1 Streamline Icon: https://streamlinehq.com
  </desc>
  <g id="Free Gradient/Interface Essential/face-scan-1--identification-angle-secure-human-id-person-face-security-brackets">
    <path id="Union" fill="url(#paint0_linear_14402_9675)" fill-rule="evenodd" d="M2.07322 2.07316c.04689-.04688.11048-.07322.17678-.07322h2c.41421 0 .75-.33579.75-.75 0-.414215-.33579-.750001-.75-.750001h-2c-.46413 0-.90925.184374-1.23744.512561C.684375 1.34069.5 1.78581.5 2.24994v2c0 .41421.335786.75.75.75.41421 0 .75-.33579.75-.75v-2c0-.06631.02634-.12989.07322-.17678ZM9 1.24994c0-.414215.33579-.750001.75-.750001h2c.4641 0 .9092.184375 1.2374.512561.3282.32819.5126.77331.5126 1.23744v2c0 .41421-.3358.75-.75.75s-.75-.33579-.75-.75v-2c0-.0663-.0263-.12989-.0732-.17678-.0469-.04688-.1105-.07322-.1768-.07322h-2c-.41421 0-.75-.33579-.75-.75Zm3.75 7.75c.4142 0 .75.33579.75.75v1.99996c0 .4642-.1844.9093-.5126 1.2375-.3282.3282-.7733.5125-1.2374.5125h-2c-.41421 0-.75-.3357-.75-.75 0-.4142.33579-.75.75-.75h2c.0663 0 .1299-.0263.1768-.0732.0469-.0469.0732-.1105.0732-.1768V9.74994c0-.41421.3358-.75.75-.75Zm-11.5 0c.41421 0 .75.33579.75.75v1.99996c0 .0663.02634.1299.07322.1768.04689.0469.11048.0732.17678.0732h2c.41421 0 .75.3358.75.75 0 .4143-.33579.75-.75.75h-2c-.46413 0-.90925-.1843-1.23744-.5125C.684375 12.6592.5 12.2141.5 11.7499V9.74994c0-.41421.335786-.75.75-.75Zm3.5-4.75c0-.41421-.33579-.75-.75-.75s-.75.33579-.75.75.33579.75.75.75.75-.33579.75-.75Zm2.25-.625c.34518 0 .625.27982.625.625v3.5c0 .34518-.27982.625-.625.625H5.5c-.34518 0-.625-.27982-.625-.625s.27982-.625.625-.625h.875v-2.875c0-.34518.27982-.625.625-.625ZM4.04685 9.3195c.23772-.25027.63332-.26044.88359-.02271C5.4889 9.82726 6.22975 10.123 7 10.123c.77025 0 1.5111-.29574 2.06956-.82621.25027-.23773.64587-.22756.88359.02271.23775.25027.22755.64586-.02271.8836C9.13967 10.9542 8.09066 11.373 7 11.373s-2.13967-.4188-2.93044-1.1699c-.25027-.23774-.26044-.63333-.02271-.8836ZM10 3.49994c.4142 0 .75.33579.75.75s-.3358.75-.75.75c-.41421 0-.75-.33579-.75-.75s.33579-.75.75-.75Z" clip-rule="evenodd"></path>
  </g>
  <defs>
    <linearGradient id="paint0_linear_14402_9675" x1="1" x2="15.816" y1="1.55" y2="9.901" gradientUnits="userSpaceOnUse">
      <stop stop-color="#00d078"></stop>
      <stop offset="1" stop-color="#007df0"></stop>
    </linearGradient>
  </defs>
</svg>