<svg xmlns="http://www.w3.org/2000/svg" fill="none" viewBox="0 0 14 14" id="File-Delete-Alternate--Streamline-Core-Gradient">
  <desc>
    File Delete Alternate Streamline Icon: https://streamlinehq.com
  </desc>
  <g id="Free Gradient/Interface Essential/file-delete-alternate--file-common-delete-cross">
    <path id="Union" fill="url(#paint0_linear_14402_7471)" fill-rule="evenodd" d="M3.5-.0000610352c-.39782 0-.77936.1580350352-1.06066.4393400352C2.15804.720583 2 1.10211 2 1.49994v5.94851c.05675.04555.1116.09464.16424.14729l.70579.70578.70579-.70578c.78105-.78105 2.04737-.78105 2.82842-.00001.78105.78105.78105 2.04738 0 2.82847l-.70578.7057.70578.7058c.58508.5851.73188 1.4425.4404 2.1642H12.5c.3978 0 .7794-.158 1.0607-.4393S14 12.8978 14 12.4999V3.99994c0-.13261-.0527-.25979-.1464-.35355l-3.5-3.500004c-.0938-.0937686-.221-.1464470352-.3536-.1464470352H3.5ZM5.52033 8.47962c.29289.29289.29289.76777 0 1.06066L3.93066 11.1299l1.58967 1.5897c.29289.2929.29289.7678 0 1.0607-.29289.2929-.76777.2929-1.06066 0L2.87 12.1906l-1.58967 1.5897c-.292893.2929-.767767.2929-1.06066 0-.2928933-.2929-.2928933-.7678 0-1.0607l1.58967-1.5897L.21967 9.54028c-.2928933-.29289-.2928933-.76777 0-1.06066.292893-.29289.767767-.29289 1.06066 0L2.87 10.0693l1.58967-1.58968c.29289-.29289.76777-.29289 1.06066 0Z" clip-rule="evenodd"></path>
  </g>
  <defs>
    <linearGradient id="paint0_linear_14402_7471" x1=".538" x2="16.494" y1="1.131" y2="10.125" gradientUnits="userSpaceOnUse">
      <stop stop-color="#00d078"></stop>
      <stop offset="1" stop-color="#007df0"></stop>
    </linearGradient>
  </defs>
</svg>