<svg xmlns="http://www.w3.org/2000/svg" fill="none" viewBox="0 0 14 14" id="Fist--Streamline-Core-Gradient">
  <desc>
    Fist Streamline Icon: https://streamlinehq.com
  </desc>
  <g id="Free Gradient/Interface Essential/fist">
    <path id="Subtract" fill="url(#paint0_linear_14402_7497)" fill-rule="evenodd" d="M4.87994 3.66693H2.13983V2.37c0-.75666.6134-1.370061 1.37006-1.370061.75551 0 1.36818.611521 1.37005 1.366591v1.3004Zm3.4846 1.17151c-.31314-.69087-1.00866-1.17151-1.81676-1.17151h-.66783V2.37l-.00001-.00456V1.37c0-.756665.6134-1.3700610352 1.37006-1.3700610352.75666 0 1.37006.6133960352 1.37006 1.3700610352v2.6714c0 .29705-.09459.57232-.25552.79704Zm-1.75182.08129c.38032.03289.67877.35203.67877.74119 0 .32773-.21444.61686-.52807.71198l-2.10772.63922c-.29643.08991-.48229.38337-.43685.68979.04545.30641.30848.53331.61824.53331.35677 0 .81214.17807 1.1802.51375.36175.32992.57706.75377.5676 1.19527-.0074.34506.26636.63086.61146.63826.3451.0074.63086-.2664.63825-.61147.01893-.88317-.41291-1.63303-.975-2.14565-.0489-.0446-.09926-.08785-.15095-.12965l.41756-.12664c.7125-.21608 1.23401-.8058 1.37636-1.51543.23709-.14788.44621-.33652.61752-.55617.43371.55625 1.11011.91397 1.87011.91397.8271 0 1.5553-.42369 1.9793-1.06586.0468.23092.0706.46668.0706.70385v1.03424c0 2.80643-2.3387 3.74191-2.3387 3.74191v2.6743c0 .2762-.2239.5-.5.5l-6.40663-.0003c-.27613 0-.49998-.2238-.49998-.5v-2.43C1.89564 10.5841.955993 8.64771.956055 7.32768c.000053-1.14093.256545-2.3332 1.523365-2.33321l4.1333-.07474Zm4.37748-3.85338c-.7566 0-1.37002.61339-1.37002 1.37005v1.605c0 .75666.61342 1.37006 1.37002 1.37006.7567 0 1.3701-.6134 1.3701-1.37006v-1.605c0-.75666-.6134-1.37005-1.3701-1.37005Z" clip-rule="evenodd"></path>
  </g>
  <defs>
    <linearGradient id="paint0_linear_14402_7497" x1="1.42" x2="16.095" y1="1.131" y2="8.27" gradientUnits="userSpaceOnUse">
      <stop stop-color="#00d078"></stop>
      <stop offset="1" stop-color="#007df0"></stop>
    </linearGradient>
  </defs>
</svg>