<svg xmlns="http://www.w3.org/2000/svg" fill="none" viewBox="0 0 14 14" id="Flip-Vertical-Circle-1--Streamline-Core-Gradient">
  <desc>
    Flip Vertical Circle 1 Streamline Icon: https://streamlinehq.com
  </desc>
  <g id="Free Gradient/Interface Essential/flip-vertical-circle-1--flip-bottom-object-work">
    <path id="Union" fill="url(#paint0_linear_14402_7520)" fill-rule="evenodd" d="M8.6102.182504c-1.05968-.2434202-2.16075-.2434202-3.22043 0-.4037.092735-.65579.495174-.56305.898876.09273.4037.49517.65578.89887.56305.83868-.19265 1.71012-.19265 2.54879 0 .4037.09273.80614-.15935.89888-.56305C9.26599.677678 9.0139.275239 8.6102.182504ZM3.58815 1.71481c.26359.31952.21825.79222-.10127 1.05581-.32782.27043-.62222.57899-.87697.91913l-.0042.00561-.00002-.00002c-.25663.33605-.47084.70247-.63779 1.09094-.16355.38056-.60463.55648-.98519.39294-.380559-.16355-.556481-.60464-.392934-.98519.215171-.50069.491124-.97299.821624-1.40627.32575-.43448.70204-.82866 1.12094-1.17423.31952-.26358.79222-.21824 1.05581.10128Zm7.97845-.09077c-.3137-.27047-.7873-.23541-1.0577.0783-.2705.31372-.2354.7873.0783 1.05777.316.27243.599.5809.8432.91913l.012.0161c.2566.33605.4708.70247.6377 1.09094.1636.38056.6047.55648.9852.39294.3806-.16355.5565-.60464.393-.98519-.2143-.49869-.4889-.96922-.8177-1.40108-.3114-.42995-.6719-.82222-1.074-1.16891ZM0 6.99994c0-.41421.335786-.75.75-.75h12.5c.1989 0 .3897.07902.5303.21967.1407.14065.2197.33142.2197.53033 0 1.85651-.7375 3.63696-2.0503 4.94976C10.637 13.2624 8.85651 13.9999 7 13.9999c-1.85652 0-3.63699-.7375-4.94975-2.0502C.737498 10.6369 0 8.85645 0 6.99994Z" clip-rule="evenodd"></path>
  </g>
  <defs>
    <linearGradient id="paint0_linear_14402_7520" x1="2.288" x2="13.596" y1="2.692" y2="8.957" gradientUnits="userSpaceOnUse">
      <stop stop-color="#ffd600"></stop>
      <stop offset="1" stop-color="#00d078"></stop>
    </linearGradient>
  </defs>
</svg>