<svg xmlns="http://www.w3.org/2000/svg" fill="none" viewBox="0 0 14 14" id="Give-Gift--Streamline-Core-Gradient">
  <desc>
    Give Gift Streamline Icon: https://streamlinehq.com
  </desc>
  <g id="Free Gradient/Interface Essential/give-gift--reward-social-rating-media-queen-vip-gift">
    <path id="Union" fill="url(#paint0_linear_14402_7589)" fill-rule="evenodd" d="M9.03033.219609c-.29289-.2928933-.76777-.2928933-1.06066 0-.29289.292893-.29289.767767 0 1.060661l.71967.71967H6.5c-.27614 0-.5.22386-.5.5v5c0 .27614.22386.5.5.5h2.875v-4.5c0-.34518.27982-.625.625-.625.3452 0 .625.27982.625.625v4.5H13.5c.2761 0 .5-.22386.5-.5v-5c0-.27614-.2239-.5-.5-.5h-2.1893l.7196-.71967c.2929-.292894.2929-.767768 0-1.060661-.2929-.2928933-.7677-.2928933-1.0606 0L10 1.18928 9.03033.219609ZM1.84315 6.99994H0v3.99996l1.82843 1.8285c.75014.7501 1.76756 1.1715 2.82842 1.1715H10.5c.8284 0 1.5-.6715 1.5-1.5 0-.8284-.6716-1.5-1.5-1.5H7.72328c-.09648.3267-.27362.6346-.5314.8924-.82397.8239-2.15989.8239-2.98386 0l-1.45001-1.4501c-.24408-.244-.24408-.63976 0-.88384.24408-.24407.63981-.24407.88388 0l1.45002 1.45004c.33581.3358.88027.3358 1.21609 0 .30251-.3025.33251-.7744.08999-1.11047L4.67157 8.17151c-.75014-.75014-1.76756-1.17157-2.82842-1.17157Z" clip-rule="evenodd"></path>
  </g>
  <defs>
    <linearGradient id="paint0_linear_14402_7589" x1="15.213" x2="-3.671" y1="16.965" y2="3.551" gradientUnits="userSpaceOnUse">
      <stop stop-color="#ffd600"></stop>
      <stop offset="1" stop-color="#ff007a"></stop>
    </linearGradient>
  </defs>
</svg>