<svg xmlns="http://www.w3.org/2000/svg" fill="none" viewBox="0 0 14 14" id="Line-Arrow-Up-Dashed-Square--Streamline-Core-Gradient">
  <desc>
    Line Arrow Up Dashed Square Streamline Icon: https://streamlinehq.com
  </desc>
  <g id="Free Gradient/Interface Essential/line-arrow-up-dashed-square--arrow-keyboard-button-up-square-dashes">
    <path id="Union" fill="url(#paint0_linear_14402_9233)" fill-rule="evenodd" d="M2.25 2c-.13807 0-.25.11193-.25.25v.5c0 .41421-.33579.75-.75.75-.414214 0-.75-.33579-.75-.75v-.5C.5 1.2835 1.2835.5 2.25.5h.5c.41421 0 .75.335786.75.75 0 .41421-.33579.75-.75.75h-.5Zm10.5 3.25c.4142 0 .75.33579.75.75v2c0 .41421-.3358.75-.75.75S12 8.41421 12 8V6c0-.41421.3358-.75.75-.75ZM1.25 10.5c.41421 0 .75.3358.75.75v.5c0 .1381.11193.25.25.25h.5c.41421 0 .75.3358.75.75s-.33579.75-.75.75h-.5c-.9665 0-1.75-.7835-1.75-1.75v-.5c0-.4142.335786-.75.75-.75Zm4 2.25c0-.4142.33579-.75.75-.75h2c.41421 0 .75.3358.75.75s-.33579.75-.75.75H6c-.41421 0-.75-.3358-.75-.75Zm8.25-1.5c0-.4142-.3358-.75-.75-.75s-.75.3358-.75.75v.5c0 .1381-.1119.25-.25.25h-.5c-.4142 0-.75.3358-.75.75s.3358.75.75.75h.5c.9665 0 1.75-.7835 1.75-1.75v-.5ZM2 6c0-.41421-.33579-.75-.75-.75-.414214 0-.75.33579-.75.75v2c0 .41421.335786.75.75.75.41421 0 .75-.33579.75-.75V6ZM6 .5c-.41421 0-.75.335786-.75.75 0 .41421.33579.75.75.75h2c.41421 0 .75-.33579.75-.75C8.75.835786 8.41421.5 8 .5H6Zm4.5.75c0-.414214.3358-.75.75-.75h.5c.9665 0 1.75.7835 1.75 1.75v.5c0 .41421-.3358.75-.75.75S12 3.16421 12 2.75v-.5c0-.13807-.1119-.25-.25-.25h-.5c-.4142 0-.75-.33579-.75-.75ZM7 3.5c.10169 0 .19866.02024.28709.05691.08846.0366.17133.09085.24324.16276l2 2c.29289.29289.29289.76777 0 1.06066s-.76777.29289-1.06066 0L7.75 6.06066V9.75c0 .4142-.33579.75-.75.75s-.75-.3358-.75-.75V6.06066l-.71967.71967c-.29289.29289-.76777.29289-1.06066 0s-.29289-.76777 0-1.06066l1.9999-1.9999.0001-.0001c.07191-.07191.15478-.12616.24324-.16276C6.80134 3.52024 6.89831 3.5 7 3.5Z" clip-rule="evenodd"></path>
  </g>
  <defs>
    <linearGradient id="paint0_linear_14402_9233" x1="1" x2="15.816" y1="1.551" y2="9.901" gradientUnits="userSpaceOnUse">
      <stop stop-color="#00d078"></stop>
      <stop offset="1" stop-color="#007df0"></stop>
    </linearGradient>
  </defs>
</svg>