<svg xmlns="http://www.w3.org/2000/svg" fill="none" viewBox="0 0 14 14" id="Line-Arrow-Fit-To-Height-Square--Streamline-Core-Gradient">
  <desc>
    Line Arrow Fit To Height Square Streamline Icon: https://streamlinehq.com
  </desc>
  <g id="Free Gradient/Interface Essential/line-arrow-fit-to-height-square">
    <path id="Subtract" fill="url(#paint0_linear_14402_7509)" fill-rule="evenodd" d="M.5 1.99994C.5 1.17151 1.17157.499939 2 .499939h10c.8284 0 1.5.671571 1.5 1.500001v9.99996c0 .8285-.6716 1.5-1.5 1.5H2c-.82843 0-1.5-.6715-1.5-1.5V1.99994ZM6.55806 3.058c.05992-.05993.12899-.10514.2027-.13564.07311-.03031.15321-.04715.23722-.04742l.00202 0c.08474 0 .16555.01686.23924.04742.07371.0305.14278.07571.2027.13564l.00033.00033L9.44194 5.058c.24408.24407.24408.6398 0 .88388-.24408.24408-.6398.24408-.88388 0L7.625 5.00882v3.98224l.93306-.93306c.24408-.24408.6398-.24408.88388 0 .24408.24407.24408.6398 0 .88388L7.44211 10.9417l-.00017.0002c-.11185.1118-.26587.1815-.43617.183l-.00577 0-.00577 0c-.08264-.0007-.16145-.0175-.23347-.0474-.07371-.0305-.14278-.0757-.2027-.1356l-2-2.00002c-.24408-.24408-.24408-.63981 0-.88388.24408-.24408.6398-.24408.88388 0l.93306.93306V5.00882l-.93306.93306c-.24408.24408-.6398.24408-.88388 0-.24408-.24408-.24408-.63981 0-.88388l2-2Z" clip-rule="evenodd"></path>
  </g>
  <defs>
    <linearGradient id="paint0_linear_14402_7509" x1="2.625" x2="13.125" y1="3" y2="8.817" gradientUnits="userSpaceOnUse">
      <stop stop-color="#ffd600"></stop>
      <stop offset="1" stop-color="#00d078"></stop>
    </linearGradient>
  </defs>
</svg>