<svg xmlns="http://www.w3.org/2000/svg" fill="none" viewBox="0 0 14 14" id="Line-Arrow-Move-Down-1--Streamline-Core-Gradient">
  <desc>
    Line Arrow Move Down 1 Streamline Icon: https://streamlinehq.com
  </desc>
  <g id="Free Gradient/Interface Essential/line-arrow-move-down-1--down-move-arrow-arrows">
    <path id="Union" fill="url(#paint0_linear_14402_9104)" fill-rule="evenodd" d="M7 0c.55228 0 1 .447715 1 1v5.58579l.79289-.7929c.39053-.39052 1.02369-.39052 1.41421 0 .3905.39053.3905 1.02369 0 1.41422l-2.49999 2.5c-.39053.39049-1.02369.39049-1.41422 0l-2.5-2.5c-.39052-.39053-.39052-1.02369 0-1.41422.39053-.39052 1.02369-.39052 1.41422 0L6 6.58579V1c0-.552285.44772-1 1-1ZM3.5 12c-.55228 0-1 .4477-1 1s.44772 1 1 1h7c.5523 0 1-.4477 1-1s-.4477-1-1-1h-7Z" clip-rule="evenodd"></path>
  </g>
  <defs>
    <linearGradient id="paint0_linear_14402_9104" x1="3.971" x2="12.402" y1="2.692" y2="5.695" gradientUnits="userSpaceOnUse">
      <stop stop-color="#ffd600"></stop>
      <stop offset="1" stop-color="#00d078"></stop>
    </linearGradient>
  </defs>
</svg>