<svg xmlns="http://www.w3.org/2000/svg" fill="none" viewBox="0 0 14 14" id="Line-Arrow-Synchronize-Disable--Streamline-Core-Gradient">
  <desc>
    Line Arrow Synchronize Disable Streamline Icon: https://streamlinehq.com
  </desc>
  <g id="Free Gradient/Interface Essential/line-arrow-synchronize-disable--arrows-loading-load-sync-synchronize-arrow-reload">
    <path id="Union" fill="url(#paint0_linear_14402_8611)" fill-rule="evenodd" d="M7 1.49994c.41421 0 .75-.33579.75-.750001 0-.414214-.33579-.7500000352-.75-.7500000352-1.66283 0-3.19024.5797920352-4.3911 1.5482410352L1.28033.219609c-.292893-.2928933-.767767-.2928933-1.06066 0-.2928931.292893-.2928931.767767 0 1.060661L12.7197 13.7803c.2929.2929.7677.2929 1.0606 0 .2929-.2929.2929-.7678 0-1.0607l-1.3285-1.3286C13.4202 10.1902 14 8.66276 14 6.99994c0-1.83383-.7054-3.50253-1.8583-4.75h.6083c.4142 0 .75-.33579.75-.75s-.3358-.750001-.75-.750001l-2.5 0c-.41421 0-.75.335791-.75.750001v.14696c-.00014.00849-.00014.01698 0 .02546v2.32758c0 .41421.33579.75.75.75.4142 0 .75-.33579.75-.75v-.77508c.9305.98552 1.5 2.31398 1.5 3.77508 0 1.24835-.4159 2.39957-1.1167 3.32266L3.67736 2.61664C4.60043 1.91584 5.75165 1.49994 7 1.49994Zm-7 5.5c0-1.20719.30558-2.343.843606-3.3343L1.96383 4.78585C1.66558 5.46327 1.5 6.21227 1.5 6.99994c0 1.4611.56948 2.78956 1.5 3.77506v-.77506c0-.41421.33579-.75.75-.75s.75.33579.75.75v2.32756c.00014.0085.00014.017 0 .0254v.147c0 .4143-.33579.75-.75.75h-2.5c-.414214 0-.75-.3357-.75-.75 0-.4142.335786-.75.75-.75h.60835C.70542 10.5025 0 8.83376 0 6.99994Zm7 5.49996c.78767 0 1.53667-.1655 2.21408-.4638l1.12022 1.1202c-.99131.5381-2.12712.8436-3.3343.8436-.41421 0-.75-.3357-.75-.75 0-.4142.33579-.75.75-.75Z" clip-rule="evenodd"></path>
  </g>
  <defs>
    <linearGradient id="paint0_linear_14402_8611" x1="15.213" x2="-3.671" y1="16.965" y2="3.551" gradientUnits="userSpaceOnUse">
      <stop stop-color="#ffd600"></stop>
      <stop offset="1" stop-color="#ff007a"></stop>
    </linearGradient>
  </defs>
</svg>