<svg xmlns="http://www.w3.org/2000/svg" fill="none" viewBox="0 0 14 14" id="Line-Arrow-Move--Streamline-Core-Gradient">
  <desc>
    Line Arrow Move Streamline Icon: https://streamlinehq.com
  </desc>
  <g id="Free Gradient/Interface Essential/line-arrow-move--move-button-arrows-direction">
    <path id="Union" fill="url(#paint0_linear_14402_9140)" fill-rule="evenodd" d="M7.53033.71967c-.29289-.292893-.76777-.292893-1.06066 0l-1.75 1.75c-.29289.29289-.29289.76777 0 1.06066s.76777.29289 1.06066 0L6.25 3.06066V6.25H3.06066l.46967-.46967c.29289-.29289.29289-.76777 0-1.06066s-.76777-.29289-1.06066 0l-1.75 1.75c-.292893.29289-.292893.76777 0 1.06066l1.75 1.75c.29289.29289.76777.29289 1.06066 0s.29289-.76777 0-1.06066L3.06066 7.75H6.25v3.1893l-.46967-.4696c-.29289-.2929-.76777-.2929-1.06066 0s-.29289.7677 0 1.0606l1.75 1.75c.29289.2929.76777.2929 1.06066 0l1.75-1.75c.29289-.2929.29289-.7677 0-1.0606-.29289-.2929-.76777-.2929-1.06066 0l-.46967.4696V7.75h3.1893l-.4696.46967c-.2929.29289-.2929.76777 0 1.06066s.7677.29289 1.0606 0l1.75-1.75c.2929-.29289.2929-.76777 0-1.06066l-1.75-1.75c-.2929-.29289-.7677-.29289-1.0606 0-.2929.29289-.2929.76777 0 1.06066l.4696.46967H7.75V3.06066l.46967.46967c.29289.29289.76777.29289 1.06066 0s.29289-.76777 0-1.06066l-1.75-1.75Z" clip-rule="evenodd"></path>
  </g>
  <defs>
    <linearGradient id="paint0_linear_14402_9140" x1="2.625" x2="13.125" y1="3" y2="8.818" gradientUnits="userSpaceOnUse">
      <stop stop-color="#ffd600"></stop>
      <stop offset="1" stop-color="#00d078"></stop>
    </linearGradient>
  </defs>
</svg>