<svg xmlns="http://www.w3.org/2000/svg" fill="none" viewBox="0 0 14 14" id="Line-Arrow-Expand-Window-1--Streamline-Core-Gradient">
  <desc>
    Line Arrow Expand Window 1 Streamline Icon: https://streamlinehq.com
  </desc>
  <g id="Free Gradient/Interface Essential/line-arrow-expand-window-1--expand-small-bigger-retract-smaller-big">
    <path id="Union" fill="url(#paint0_linear_14402_9669)" fill-rule="evenodd" d="M2.5.499939c-1.10457 0-2 .895431-2 2.000001v8.99996c0 1.1046.89543 2 2 2h9c1.1046 0 2-.8954 2-2V8.99994c0-.55229-.4477-1-1-1s-1 .44771-1 1v2.49996h-9V2.49994l2.5 0c.55228 0 1-.44772 1-1C6 .947654 5.55228.499939 5 .499939H2.5Zm5 1.000001c0-.552286.44772-1.000001 1-1.000001h4c.5523 0 1 .447715 1 1.000001v4c0 .55228-.4477 1-1 1s-1-.44772-1-1V3.91415l-3.79289 3.7929c-.39053.39052-1.02369.39052-1.41422 0-.39052-.39053-.39052-1.02369 0-1.41422l3.79291-3.79289H8.5c-.55228 0-1-.44772-1-1Z" clip-rule="evenodd"></path>
  </g>
  <defs>
    <linearGradient id="paint0_linear_14402_9669" x1="2.625" x2="13.125" y1="3" y2="8.817" gradientUnits="userSpaceOnUse">
      <stop stop-color="#ffd600"></stop>
      <stop offset="1" stop-color="#00d078"></stop>
    </linearGradient>
  </defs>
</svg>