<svg xmlns="http://www.w3.org/2000/svg" fill="none" viewBox="0 0 14 14" id="Line-Arrow-Synchronize-Warning--Streamline-Core-Gradient">
  <desc>
    Line Arrow Synchronize Warning Streamline Icon: https://streamlinehq.com
  </desc>
  <g id="Free Gradient/Interface Essential/line-arrow-synchronize-warning--arrow-fail-notification-sync-warning-failure-synchronize-error">
    <path id="Union" fill="url(#paint0_linear_14402_8621)" fill-rule="evenodd" d="M1.64694 4.49994c.00851.00014.017.00014.02549 0H4c.41421 0 .75-.33579.75-.75s-.33579-.75-.75-.75h-.77508c.98552-.93052 2.31398-1.5 3.77508-1.5 3.0376 0 5.5 2.46243 5.5 5.5 0 .41421.3358.75.75.75s.75-.33579.75-.75c0-3.86599-3.134-7.0000010352-7-7.0000010352-1.83383 0-3.50253.7054200352-4.75 1.8583510352v-.60835c0-.414215-.33579-.750001-.75-.750001S.75.835725.75 1.24994v2.5c0 .41421.33579.75.75.75h.14694ZM.75 6.24994c.41421 0 .75.33579.75.75 0 3.03756 2.46243 5.49996 5.5 5.49996 1.4611 0 2.78956-.5694 3.7751-1.5H10c-.41421 0-.75-.3357-.75-.75 0-.41417.33579-.74996.75-.74996h2.3276c.0085-.00015.0169-.00015.0254 0h.147c.4142 0 .75.33579.75.74996v2.5c0 .4143-.3358.75-.75.75s-.75-.3357-.75-.75v-.6083c-1.2475 1.1529-2.91618 1.8583-4.75 1.8583-3.86599 0-7-3.134-7-6.99996 0-.41421.335786-.75.75-.75Zm6.25-3.25c.41421 0 .75.33579.75.75v3.5c0 .41421-.33579.75-.75.75s-.75-.33579-.75-.75v-3.5c0-.41421.33579-.75.75-.75Zm1 6.75c0 .55226-.44772.99996-1 .99996s-1-.4477-1-.99996c0-.55229.44772-1 1-1s1 .44771 1 1Z" clip-rule="evenodd"></path>
  </g>
  <defs>
    <linearGradient id="paint0_linear_14402_8621" x1="13.953" x2="-2.626" y1="14.003" y2="4.677" gradientUnits="userSpaceOnUse">
      <stop stop-color="#ff51e3"></stop>
      <stop offset="1" stop-color="#1b4dff"></stop>
    </linearGradient>
  </defs>
</svg>