<svg xmlns="http://www.w3.org/2000/svg" fill="none" viewBox="0 0 14 14" id="Line-Arrow-Reload-Vertical-1--Streamline-Core-Gradient">
  <desc>
    Line Arrow Reload Vertical 1 Streamline Icon: https://streamlinehq.com
  </desc>
  <g id="Free Gradient/Interface Essential/line-arrow-reload-vertical-1--arrows-load-arrow-sync-square-loading-reload-synchronize">
    <path id="Union" fill="url(#paint0_linear_14402_9162)" fill-rule="evenodd" d="M7 0c-.55228 0-1 .447715-1 1 0 .55228.44772 1 1 1h2.5v6.58579l-.79289-.7929c-.39053-.39052-1.02369-.39052-1.41422 0-.39052.39053-.39052 1.02369 0 1.41422l2.5 2.49999c.39051.3905 1.02371.3905 1.41421 0l2.5-2.49999c.3905-.39053.3905-1.02369 0-1.41422-.3905-.39052-1.0237-.39052-1.4142 0l-.7929.7929V2c0-1.104569-.8954-2-2-2H7ZM4.20711 2.29289c-.39053-.39052-1.02369-.39052-1.41422 0l-2.499997 2.5c-.3905241.39053-.3905241 1.02369 0 1.41422.390525.39052 1.023687.39052 1.414217 0L2.5 5.41421V12c0 1.1046.89543 2 2 2H7c.55228 0 1-.4477 1-1s-.44772-1-1-1H4.5V5.41421l.79289.7929c.39053.39052 1.02369.39052 1.41422 0 .39052-.39053.39052-1.02369 0-1.41422l-2.5-2.5Z" clip-rule="evenodd"></path>
  </g>
  <defs>
    <linearGradient id="paint0_linear_14402_9162" x1="13.953" x2="-2.626" y1="14.003" y2="4.677" gradientUnits="userSpaceOnUse">
      <stop stop-color="#ff51e3"></stop>
      <stop offset="1" stop-color="#1b4dff"></stop>
    </linearGradient>
  </defs>
</svg>