<svg xmlns="http://www.w3.org/2000/svg" fill="none" viewBox="0 0 14 14" id="Loop-1--Streamline-Core-Gradient">
  <desc>
    Loop 1 Streamline Icon: https://streamlinehq.com
  </desc>
  <g id="Free Gradient/Interface Essential/loop-1--multimedia-multi-button-repeat-media-loop-infinity-controls">
    <path id="Vector 4029 (Stroke)" fill="url(#paint0_linear_14402_7991)" fill-rule="evenodd" d="M1.96701 5.39789c-.30542.39269-.46701.963-.46701 1.60205s.16159 1.20936.46701 1.60204c.28317.36408.74374.64796 1.53299.64796.47238 0 .91765-.22831 1.40717-.71783.40726-.40726.78697-.93575 1.19008-1.53217-.40311-.59643-.78282-1.12491-1.19008-1.53217-.48952-.48952-.93479-.71783-1.40717-.71783-.78925 0-1.24982.28388-1.53299.64795ZM7 5.66694c-.31891-.44921-.66081-.88847-1.03217-1.25983C5.33235 3.77163 4.52762 3.24994 3.5 3.24994c-1.21075 0-2.12518.46612-2.717014 1.22704C.21341 5.2093 0 6.13899 0 6.99994c0 .86095.21341 1.79064.782986 2.52295C1.37482 10.2838 2.28925 10.7499 3.5 10.7499c1.02762 0 1.83235-.5217 2.46783-1.15713.37136-.37136.71326-.81062 1.03217-1.25984.31891.44922.66081.88848 1.03217 1.25984.63548.63543 1.4402 1.15713 2.46783 1.15713 1.2107 0 2.1252-.4661 2.717-1.22701.5696-.73231.783-1.662.783-2.52295 0-.86095-.2134-1.79064-.783-2.52296-.5918-.76092-1.5063-1.22704-2.717-1.22704-1.02763 0-1.83235.52169-2.46783 1.15717-.37136.37136-.71326.81062-1.03217 1.25983Zm.90275 1.333c.40311.59642.78282 1.12491 1.19008 1.53217.48952.48952.93477.71783 1.40717.71783.7893 0 1.2498-.28388 1.533-.64796.3054-.39268.467-.96299.467-1.60204 0-.63905-.1616-1.20936-.467-1.60205-.2832-.36407-.7437-.64795-1.533-.64795-.4724 0-.91765.22831-1.40717.71783-.40726.40726-.78697.93575-1.19008 1.53217Z" clip-rule="evenodd"></path>
  </g>
  <defs>
    <linearGradient id="paint0_linear_14402_7991" x1="2.288" x2="9.429" y1="4.692" y2="12.077" gradientUnits="userSpaceOnUse">
      <stop stop-color="#ffd600"></stop>
      <stop offset="1" stop-color="#00d078"></stop>
    </linearGradient>
  </defs>
</svg>