<svg xmlns="http://www.w3.org/2000/svg" fill="none" viewBox="0 0 14 14" id="Manual-Book--Streamline-Core-Gradient">
  <desc>
    Manual Book Streamline Icon: https://streamlinehq.com
  </desc>
  <g id="Free Gradient/Interface Essential/manual-book">
    <path id="Subtract" fill="url(#paint0_linear_14402_8008)" fill-rule="evenodd" d="M2.75-.0000610352C1.7835-.0000610352 1 .783441 1 1.74994v9.87496c0 1.3117 1.06332 2.375 2.375 2.375h8.875c.4142 0 .75-.3357.75-.75 0-.4142-.3358-.75-.75-.75h-.5v-1.7707c.7094-.119 1.25-.73601 1.25-1.47926v-7.75c0-.828428-.6716-1.5000010352-1.5-1.5000010352H2.75ZM10.25 12.4999H3.375c-.48325 0-.875-.3917-.875-.875 0-.4832.39175-.875.875-.875h6.875v1.75ZM6.66515 2.87856c.15989-.06623.33582-.08356.50555-.0498.16974.03377.32565.1171.44802.23947.12237.12237.20571.27828.23947.44802.03376.16973.01643.34566-.0498.50555-.06622.15988-.17837.29654-.32227.39269-.14389.09614-.31306.14746-.48612.14746-.34518 0-.625.27982-.625.625v.5c0 .34518.27982.625.625.625.3347 0 .60795-.26309.62423-.59375.19625-.06031.38379-.14907.55636-.26438.34945-.23349.62182-.56537.78265-.95367.16084-.38829.20292-.81556.12093-1.22777-.08199-.4122-.28438-.79084-.58157-1.08803-.29718-.29719-.67582-.49957-1.08803-.58157-.41221-.08199-.83948-.03991-1.22777.12093-.3883.16083-.72017.4332-.95367.78265-.2335.34946-.35813.76031-.35813 1.18059 0 .34518.27982.625.625.625s.625-.27982.625-.625c0-.17306.05132-.34223.14746-.48612.09615-.1439.23281-.25605.39269-.32227ZM7 8.88373c-.48325 0-.875-.39175-.875-.875s.39175-.875.875-.875.875.39175.875.875-.39175.875-.875.875Z" clip-rule="evenodd"></path>
  </g>
  <defs>
    <linearGradient id="paint0_linear_14402_8008" x1="1.461" x2="16.073" y1="1.131" y2="8.19" gradientUnits="userSpaceOnUse">
      <stop stop-color="#00d078"></stop>
      <stop offset="1" stop-color="#007df0"></stop>
    </linearGradient>
  </defs>
</svg>