<svg xmlns="http://www.w3.org/2000/svg" fill="none" viewBox="0 0 14 14" id="Pathfinder-Square-Trim--Streamline-Core-Gradient">
  <desc>
    Pathfinder Square Trim Streamline Icon: https://streamlinehq.com
  </desc>
  <g id="Free Gradient/Interface Essential/pathfinder-square-trim">
    <path id="Union" fill="url(#paint0_linear_14402_8247)" fill-rule="evenodd" d="M8.5.499939H2c-.82843 0-1.5.671571-1.5 1.500001v6.5c0 .82843.67157 1.5 1.5 1.5h.75v-4.5c0-1.51878 1.23122-2.75 2.75-2.75H10v-.75C10 1.17151 9.32843.499939 8.5.499939Zm-3 3.500001H12c.8284 0 1.5.67157 1.5 1.5v6.49996c0 .8285-.6716 1.5-1.5 1.5H5.5c-.82843 0-1.5-.6715-1.5-1.5V5.49994c0-.82843.67157-1.5 1.5-1.5Z" clip-rule="evenodd"></path>
  </g>
  <defs>
    <linearGradient id="paint0_linear_14402_8247" x1="1" x2="15.816" y1="1.55" y2="9.901" gradientUnits="userSpaceOnUse">
      <stop stop-color="#00d078"></stop>
      <stop offset="1" stop-color="#007df0"></stop>
    </linearGradient>
  </defs>
</svg>