<svg xmlns="http://www.w3.org/2000/svg" fill="none" viewBox="0 0 14 14" id="Pathfinder-Square-Intersect--Streamline-Core-Gradient">
  <desc>
    Pathfinder Square Intersect Streamline Icon: https://streamlinehq.com
  </desc>
  <g id="Free Gradient/Interface Essential/pathfinder-square-intersect">
    <path id="Union" fill="url(#paint0_linear_14402_8201)" fill-rule="evenodd" d="M1.77747 2.7774c-.1401.1401-.32936.21995-.52747.22254-.19811-.00259-.387371-.08244-.527466-.22254C.582439 2.63731.50259 2.44805.5 2.24994c.002625-.46332.187842-.90692.51546-1.23454C1.34309.687781 1.78668.502564 2.25.499939c.19891 0 .38968.079018.53033.21967C2.92098.860262 3 1.05103 3 1.24994c0 .19891-.07902.38968-.21967.53033-.14065.14065-.33142.21967-.53033.21967-.0663 0-.12989.02634-.17678.07322C2.02634 2.12005 2 2.18363 2 2.24994c-.00259.19811-.08244.38737-.22253.52746ZM11.75 4.99994c.0663 0 .1299.02634.1768.07322.0469.04689.0732.11047.0732.17678 0 .19891.079.38968.2197.53033.1406.14065.3314.21967.5303.21967.1989 0 .3897-.07902.5303-.21967.1407-.14065.2197-.33142.2197-.53033-.0026-.46332-.1878-.90692-.5155-1.23454-.3276-.32762-.7712-.51284-1.2345-.51546-.1989 0-.3897.07902-.5303.21967-.1407.14065-.2197.33142-.2197.53033 0 .19891.079.38968.2197.53033.1406.14065.3314.21967.5303.21967Zm1 5.99996c-.1981.0026-.3874.0825-.5275.2226-.1401.1401-.2199.3293-.2225.5274 0 .0663-.0263.1299-.0732.1768-.0469.0469-.1105.0732-.1768.0732-.1989 0-.3897.0791-.5303.2197-.1407.1407-.2197.3314-.2197.5303 0 .199.079.3897.2197.5304.1406.1406.3314.2196.5303.2196.4633-.0026.9069-.1878 1.2345-.5154.3277-.3276.5129-.7712.5155-1.2346-.0026-.1981-.0824-.3873-.2225-.5274s-.3294-.22-.5275-.2226Zm-7.67678.9268c.04689.0469.11048.0732.17678.0732.19891 0 .38968.0791.53033.2197.14065.1407.21967.3314.21967.5303 0 .199-.07902.3897-.21967.5304-.14065.1406-.33142.2196-.53033.2196-.46332-.0026-.90691-.1878-1.23454-.5154-.32762-.3276-.51284-.7712-.51546-1.2346 0-.1989.07902-.3896.21967-.5303.14065-.1406.33142-.2197.53033-.2197.19891 0 .38968.0791.53033.2197.14065.1407.21967.3314.21967.5303 0 .0663.02634.1299.07322.1768ZM2.25 8.99994c-.0663 0-.12989-.02634-.17678-.07322C2.02634 8.87983 2 8.81624 2 8.74994c0-.19891-.07902-.38968-.21967-.53033-.14065-.14065-.33142-.21967-.53033-.21967-.19891 0-.389677.07902-.53033.21967C.579018 8.36026.5 8.55103.5 8.74994c.002625.46332.187842.90691.51546 1.23454.32763.32762.77122.51282 1.23454.51542.19891 0 .38968-.079.53033-.2196C2.92098 10.1396 3 9.94885 3 9.74994c0-.19891-.07902-.38968-.21967-.53033-.14065-.14065-.33142-.21967-.53033-.21967Zm6.5-7c.0663 0 .12989.02634.17678.07322.04688.04689.07322.11047.07322.17678 0 .19891.07902.38968.21967.53033.14065.14065.33142.21967.53033.21967.19891 0 .3897-.07902.5303-.21967.1407-.14065.2197-.33142.2197-.53033-.0026-.46332-.1878-.90692-.51546-1.23454C9.65691.687781 9.21332.502564 8.75.499939c-.19891 0-.38968.079018-.53033.21967C8.07902.860262 8 1.05103 8 1.24994c0 .19891.07902.38968.21967.53033.14065.14065.33142.21967.53033.21967Zm-2.5 0h-1.5c-.19891 0-.38968-.07902-.53033-.21967C4.07902 1.63962 4 1.44885 4 1.24994c0-.19891.07902-.389678.21967-.530331.14065-.140652.33142-.21967.53033-.21967h1.5c.19891 0 .38968.079018.53033.21967C6.92098.860262 7 1.05103 7 1.24994c0 .19891-.07902.38968-.21967.53033-.14065.14065-.33142.21967-.53033.21967Zm-5 5c.19811-.00259.38737-.08244.52747-.22253.14009-.1401.21994-.32936.22253-.52747v-1.5c0-.19891-.07902-.38968-.21967-.53033-.14065-.14065-.33142-.21967-.53033-.21967-.19891 0-.389677.07902-.53033.21967C.579018 4.36026.5 4.55103.5 4.74994v1.5c.00259.19811.082439.38737.222534.52747.140095.14009.329356.21994.527466.22253Zm6.5 4.99996h1.5c.19891 0 .38968.0791.53033.2197.14065.1407.21967.3314.21967.5303 0 .199-.07902.3897-.21967.5304-.14065.1406-.33142.2196-.53033.2196h-1.5c-.19891 0-.38968-.079-.53033-.2196C7.07902 13.1396 7 12.9489 7 12.7499c0-.1989.07902-.3896.21967-.5303.14065-.1406.33142-.2197.53033-.2197Zm5-4.99996c-.1981.00259-.3874.08244-.5275.22253-.1401.1401-.2199.32936-.2225.52747v1.5c0 .19891.079.38968.2197.53033.1406.14065.3314.21967.5303.21967.1989 0 .3897-.07902.5303-.21967.1407-.14065.2197-.33142.2197-.53033v-1.5c-.0026-.19811-.0824-.38737-.2225-.52747-.1401-.14009-.3294-.21994-.5275-.22253Zm-7.5-2.75c-.55228 0-1 .44771-1 1v4c0 .27614.22386.5.5.5h4c.55228 0 1-.44772 1-1v-4c0-.27614-.22386-.5-.5-.5h-4Z" clip-rule="evenodd"></path>
  </g>
  <defs>
    <linearGradient id="paint0_linear_14402_8201" x1="13.456" x2="-1.939" y1="13.503" y2="4.843" gradientUnits="userSpaceOnUse">
      <stop stop-color="#ff51e3"></stop>
      <stop offset="1" stop-color="#1b4dff"></stop>
    </linearGradient>
  </defs>
</svg>