<svg xmlns="http://www.w3.org/2000/svg" fill="none" viewBox="0 0 14 14" id="Recycle-Bin-2--Streamline-Core-Gradient">
  <desc>
    Recycle Bin 2 Streamline Icon: https://streamlinehq.com
  </desc>
  <g id="Free Gradient/Interface Essential/recycle-bin-2--remove-delete-empty-bin-trash-garbage">
    <path id="Subtract" fill="url(#paint0_linear_14402_8376)" fill-rule="evenodd" d="M5.76256 2.0125c.32819-.32819.77331-.51256 1.23744-.51256.46413 0 .90925.18437 1.23744.51256.20736.20737.35731.46141.43961.73744h-3.3541c.0823-.27603.23225-.53007.43961-.73744Zm-1.97388.73744c.10537-.67679.42285-1.30773.91322-1.798098C5.3114.342349 6.13805-.0000610352 7-.0000610352c.86195 0 1.6886.3424100352 2.2981.9519030352.49037.490368.8079 1.121308.9132 1.798098H12.75c.4142 0 .75.33579.75.75s-.3358.75-.75.75H12v8.24996c0 .3979-.158.7794-.4393 1.0607s-.6629.4393-1.0607.4393h-7c-.39783 0-.77936-.158-1.06066-.4393C2.15804 13.2793 2 12.8978 2 12.4999V4.24994h-.75c-.414214 0-.75-.33579-.75-.75s.335786-.75.75-.75h2.53868ZM5.25 5.8764c.34518 0 .625.27983.625.625v4.0015c0 .3452-.27982.625-.625.625s-.625-.2798-.625-.625V6.5014c0-.34517.27982-.625.625-.625Zm4.125.625c0-.34517-.27982-.625-.625-.625s-.625.27983-.625.625v4.0015c0 .3452.27982.625.625.625s.625-.2798.625-.625V6.5014Z" clip-rule="evenodd"></path>
  </g>
  <defs>
    <linearGradient id="paint0_linear_14402_8376" x1="1" x2="16.325" y1="1.131" y2="9.152" gradientUnits="userSpaceOnUse">
      <stop stop-color="#00d078"></stop>
      <stop offset="1" stop-color="#007df0"></stop>
    </linearGradient>
  </defs>
</svg>