<svg xmlns="http://www.w3.org/2000/svg" fill="none" viewBox="0 0 14 14" id="Ringing-Bell-Notification--Streamline-Core-Gradient">
  <desc>
    Ringing Bell Notification Streamline Icon: https://streamlinehq.com
  </desc>
  <g id="Free Gradient/Interface Essential/ringing-bell-notification--notification-vibrate-ring-sound-alarm-alert-bell-noise">
    <path id="Union" fill="url(#paint0_linear_14402_8385)" fill-rule="evenodd" d="M3.76302.312496c.24163.336438.16476.805054-.17167 1.046674-.64676.46449-1.17372 1.07619-1.53736 1.78457-.36365.70837-.55354 1.49311-.55399 2.28937-.00023.41422-.33621.74981-.750425.74958-.414213-.00024-.749809302-.33621-.7495748773-.75043C.000585917 4.39803.247225 3.37878.719545 2.4587 1.19186 1.53863 1.87631.744121 2.71635.140821c.33643-.241625.80505-.1647632 1.04667.171675Zm.055 2.755514C4.66193 2.2241 5.80653 1.75 7 1.75c1.19347 0 2.33807.4741 3.182 1.31801.8439.84392 1.318 1.98851 1.318 3.18199v3.5c0 .2652.1054.5196.2929.7071s.4419.2929.7071.2929c.2761 0 .5.2239.5.5s-.2239.5-.5.5h-11c-.27614 0-.5-.2239-.5-.5s.22386-.5.5-.5c.26522 0 .51957-.1054.70711-.2929.18753-.1875.29289-.4419.29289-.7071v-3.5c0-1.19348.47411-2.33807 1.31802-3.18199ZM5.25 13.25c0-.4142.33579-.75.75-.75h2c.41421 0 .75.3358.75.75S8.41421 14 8 14H6c-.41421 0-.75-.3358-.75-.75ZM11.2837.140821c-.3365-.241625-.8051-.1647632-1.0467.171675-.24164.336438-.1648.805054.1717 1.046674.6467.46449 1.1737 1.07619 1.5373 1.78457.3637.70838.5536 1.49311.554 2.28937.0002.41422.3362.74981.7504.74958.4142-.00024.7498-.33621.7496-.75043-.0006-1.03423-.2472-2.05348-.7195-2.97356-.4724-.92007-1.1568-1.714578-1.9968-2.317879Z" clip-rule="evenodd"></path>
  </g>
  <defs>
    <linearGradient id="paint0_linear_14402_8385" x1="2.288" x2="13.596" y1="2.692" y2="8.957" gradientUnits="userSpaceOnUse">
      <stop stop-color="#ffd600"></stop>
      <stop offset="1" stop-color="#00d078"></stop>
    </linearGradient>
  </defs>
</svg>