<svg xmlns="http://www.w3.org/2000/svg" fill="none" viewBox="0 0 14 14" id="Scanner--Streamline-Core-Gradient">
  <desc>
    Scanner Streamline Icon: https://streamlinehq.com
  </desc>
  <g id="Free Gradient/Interface Essential/scanner">
    <path id="Union" fill="url(#paint0_linear_14402_8419)" fill-rule="evenodd" d="M9.5 1.24994c0-.414215.33579-.750001.75-.750001h1.5714c.9271 0 1.6786.751521 1.6786 1.678571v1.57143c0 .41421-.3358.75-.75.75s-.75-.33579-.75-.75V2.17851c0-.09862-.0799-.17857-.1786-.17857H10.25c-.41421 0-.75-.33579-.75-.75Zm3.25 8.25c.4142 0 .75.33579.75.74996v1.5715c0 .927-.7515 1.6785-1.6786 1.6785l-1.5714 0c-.41421 0-.75-.3357-.75-.75 0-.4142.33579-.75.75-.75l1.5714 0c.0987 0 .1786-.0799.1786-.1785v-1.5715c0-.41417.3358-.74996.75-.74996ZM2 10.2499c0-.41417-.33579-.74996-.75-.74996-.414214 0-.75.33579-.75.74996v1.5715c0 .927.75152 1.6785 1.67857 1.6785l2.07143 0c.41421 0 .75-.3357.75-.75 0-.4142-.33579-.75-.75-.75l-2.07143 0C2.07995 11.9999 2 11.92 2 11.8214v-1.5715Zm.17857-8.24996c-.09862 0-.17857.07995-.17857.17857v1.57143c0 .41421-.33579.75-.75.75-.414214 0-.75-.33579-.75-.75V2.17851c0-.92705.75152-1.678571 1.67857-1.678571H3.75c.41421 0 .75.335786.75.750001 0 .41421-.33579.75-.75.75H2.17857Zm-.92857 4.25c-.414214 0-.75.33579-.75.75s.335786.75.75.75h11.5c.4142 0 .75-.33579.75-.75s-.3358-.75-.75-.75H1.25Z" clip-rule="evenodd"></path>
  </g>
  <defs>
    <linearGradient id="paint0_linear_14402_8419" x1="2.625" x2="13.125" y1="3" y2="8.817" gradientUnits="userSpaceOnUse">
      <stop stop-color="#ffd600"></stop>
      <stop offset="1" stop-color="#00d078"></stop>
    </linearGradient>
  </defs>
</svg>