<svg xmlns="http://www.w3.org/2000/svg" fill="none" viewBox="0 0 14 14" id="Text-Style--Streamline-Core-Gradient">
  <desc>
    Text Style Streamline Icon: https://streamlinehq.com
  </desc>
  <g id="Free Gradient/Interface Essential/text-style--text-style-formatting-format">
    <path id="Union" fill="url(#paint0_linear_14402_8672)" fill-rule="evenodd" d="M2 2.24994c0-.13807.11193-.25.25-.25h4v9.99996h-1.5c-.41421 0-.75.3358-.75.75 0 .4143.33579.75.75.75h4.5c.41421 0 .75-.3357.75-.75 0-.4142-.33579-.75-.75-.75h-1.5V1.99994h4c.1381 0 .25.11193.25.25v1.5c0 .41421.3358.75.75.75s.75-.33579.75-.75v-1.5c0-.9665-.7835-1.750001-1.75-1.750001h-9.5C1.2835.499939.5 1.28344.5 2.24994v1.5c0 .41421.335786.75.75.75.41421 0 .75-.33579.75-.75v-1.5Z" clip-rule="evenodd"></path>
  </g>
  <defs>
    <linearGradient id="paint0_linear_14402_8672" x1="13.456" x2="-1.939" y1="13.503" y2="4.843" gradientUnits="userSpaceOnUse">
      <stop stop-color="#ff51e3"></stop>
      <stop offset="1" stop-color="#1b4dff"></stop>
    </linearGradient>
  </defs>
</svg>