<svg xmlns="http://www.w3.org/2000/svg" fill="none" viewBox="0 0 14 14" id="User-Sync-Online-In-Person--Streamline-Core-Gradient">
  <desc>
    User Sync Online In Person Streamline Icon: https://streamlinehq.com
  </desc>
  <g id="Free Gradient/Interface Essential/user-sync-online-in-person">
    <path id="Union" fill="url(#paint0_linear_14402_8835)" fill-rule="evenodd" d="M1.56994 6.11902c.42111-2.61865 2.69263-4.61908 5.42995-4.61908 1.91235 0 3.59781.97583 4.58391 2.45928l-.6872.68718c-.143.143-.1858.35806-.1084.5449.0774.18683.2597.30865.4619.30865h2.25c.2762 0 .5-.22385.5-.5v-2.25c0-.20223-.1218-.38455-.3086-.46194-.1869-.07739-.4019-.03461-.5449.10839l-.4856.4856C11.3889 1.13617 9.32753-.0000610352 6.99989-.0000610352 3.5144-.0000610352.625146 2.54665.0889709 5.88086c-.0657649.40896.2124491.7938.6214091.85957.40896.06576.7938-.21245.85956-.62141ZM12.4304 7.88085c-.4211 2.61865-2.69261 4.61905-5.42993 4.61905-1.91241 0-3.59788-.9759-4.58395-2.4594l.68703-.68702c.143-.143.18578-.35806.10839-.54489-.07739-.18684-.25971-.30866-.46194-.30866H.5c-.276142 0-.5.22386-.5.5v2.24997c0 .2023.121821.3846.308658.462.186837.0774.401896.0346.544895-.1084l.485737-.4858c1.2721 1.7459 3.33348 2.8822 5.66118 2.8822 3.48553 0 6.37473-2.5467 6.91093-5.88089.0657-.40896-.2125-.7938-.6214-.85957-.409-.06576-.7938.21245-.8596.62141ZM7 3.49994c-.9665 0-1.75.7835-1.75 1.75s.7835 1.75 1.75 1.75 1.75-.7835 1.75-1.75-.7835-1.75-1.75-1.75Zm-.00001 4c-1.23097 0-2.28768.74132-2.75016 1.79981-.06754.15459-.05258.33281.03979.47397.09237.14115.24969.22622.41839.22622h4.58396c.16869 0 .32601-.08507.41838-.22622.09237-.14116.10733-.31938.03979-.47397-.46247-1.05849-1.51918-1.79981-2.75015-1.79981Z" clip-rule="evenodd"></path>
  </g>
  <defs>
    <linearGradient id="paint0_linear_14402_8835" x1="15.213" x2="-3.671" y1="16.965" y2="3.551" gradientUnits="userSpaceOnUse">
      <stop stop-color="#ffd600"></stop>
      <stop offset="1" stop-color="#ff007a"></stop>
    </linearGradient>
  </defs>
</svg>