<svg xmlns="http://www.w3.org/2000/svg" fill="none" viewBox="0 0 48 48" id="Charging--Streamline-Plump">
  <desc>
    Charging Streamline Icon: https://streamlinehq.com
  </desc>
  <g id="charging--phone-mobile-charge-device-electricity-power-battery-charging">
    <path id="Union" fill="#000000" fill-rule="evenodd" d="M2.928 22.9798c1.09344 0.1564 2.10664 -0.6032 2.26304 -1.6966C6.50783 12.0774 14.4284 5 23.9985 5c9.5702 0 17.4907 7.0774 18.8075 16.2832 0.1564 1.0934 1.1696 1.853 2.2631 1.6966 1.0934 -0.1564 1.853 -1.1696 1.6966 -2.263C45.1711 9.56882 35.5872 1 23.9985 1 12.4098 0.999997 2.82594 9.56882 1.23134 20.7168c-0.1564 1.0934 0.60322 2.1066 1.69666 2.263Zm0 2.0406c1.09344 -0.1564 2.10664 0.6032 2.26305 1.6967 0.21611 1.5109 0.60991 2.9637 1.15948 4.3372 0.41032 1.0256 -0.0884 2.1896 -1.11393 2.5999 -1.02553 0.4103 -2.18952 -0.0884 -2.59984 -1.1139 -0.66634 -1.6654 -1.14364 -3.4268 -1.40541 -5.2569 -0.1564 -1.0934 0.60321 -2.1066 1.69665 -2.263Zm42.1411 0c1.0934 0.1564 1.853 1.1696 1.6966 2.2631 -0.2618 1.83 -0.739 3.5914 -1.4054 5.2568 -0.4103 1.0255 -1.5743 1.5242 -2.5998 1.1139 -1.0256 -0.4103 -1.5243 -1.5743 -1.114 -2.5999 0.5496 -1.3735 0.9434 -2.8263 1.1595 -4.3372 0.1564 -1.0935 1.1696 -1.8531 2.2631 -1.6967ZM6.24141 35.3923c0.8685 -0.6825 2.12582 -0.5317 2.8083 0.3368 0.93486 1.1897 2.00869 2.2652 3.19689 3.2019 0.8675 0.6838 1.0164 1.9413 0.3325 2.8088 -0.6838 0.8674 -1.9413 1.0163 -2.80877 0.3325 -1.43687 -1.1327 -2.73523 -2.433 -3.86575 -3.8717 -0.68247 -0.8685 -0.53167 -2.1258 0.33683 -2.8083Zm35.51429 0c0.8685 0.6825 1.0193 1.9398 0.3368 2.8083 -1.138 1.4482 -2.4462 2.7563 -3.8945 3.8943 -0.8685 0.6824 -2.1258 0.5316 -2.8082 -0.337 -0.6825 -0.8685 -0.5316 -2.1258 0.3369 -2.8083 1.1977 -0.941 2.2796 -2.0229 3.2207 -3.2205 0.6824 -0.8685 1.9398 -1.0193 2.8083 -0.3368ZM14.314 42.7464c0.412 -1.0249 1.5768 -1.5217 2.6016 -1.1097 1.3821 0.5556 2.8447 0.9534 4.3661 1.171 1.0935 0.1564 1.8531 1.1696 1.6967 2.2631 -0.1564 1.0934 -1.1696 1.853 -2.2631 1.6966 -1.8429 -0.2636 -3.616 -0.7457 -5.2917 -1.4194 -1.0248 -0.412 -1.5216 -1.5768 -1.1096 -2.6016Zm19.3393 0.0153c0.4104 1.0256 -0.0883 2.1896 -1.1138 2.5999 -1.6657 0.6666 -3.4273 1.144 -5.2578 1.4058 -1.0934 0.1564 -2.1066 -0.6032 -2.263 -1.6966 -0.1564 -1.0935 0.6032 -2.1067 1.6966 -2.2631 1.5112 -0.2161 2.9644 -0.61 4.3381 -1.1598 1.0256 -0.4103 2.1896 0.0883 2.5999 1.1138Zm-4.5854 -30.2942c0.1787 -2.56998 -2.7868 -4.14151 -4.7741 -2.3937 -4.9064 4.315 -9.4306 9.1566 -11.9534 11.9655 -1.4885 1.6572 -0.6652 4.2683 1.5593 4.6985 1.4662 0.2836 3.4063 0.6169 5.7393 0.9238 -0.2403 2.1357 -0.4886 4.7555 -0.7053 7.8715 -0.1787 2.57 2.7868 4.1415 4.7741 2.3937 4.9064 -4.315 9.4306 -9.1566 11.9534 -11.9655 1.4885 -1.6572 0.6652 -4.2683 -1.5593 -4.6985 -1.4662 -0.2836 -3.4063 -0.6169 -5.7393 -0.9238 0.2403 -2.1357 0.4886 -4.7555 0.7053 -7.8715Z" clip-rule="evenodd" stroke-width="1"></path>
  </g>
</svg>