<svg xmlns="http://www.w3.org/2000/svg" fill="none" viewBox="0 0 48 48" id="Cyborg-2--Streamline-Plump">
  <desc>
    Cyborg 2 Streamline Icon: https://streamlinehq.com
  </desc>
  <g id="cyborg-2--artificial-robotics-intelligence-machine-technology-android">
    <path id="Subtract" fill="#000000" fill-rule="evenodd" d="M24 2a5 5 0 0 0 -2 9.584v3.922c-4.893 0.032 -8.515 0.175 -11.007 0.32 -3.248 0.191 -5.878 2.609 -6.154 5.92C4.657 23.934 4.5 26.985 4.5 31c0 4.016 0.157 7.066 0.34 9.254 0.275 3.311 2.905 5.729 6.153 5.92 2.82 0.165 7.088 0.326 13.007 0.326s10.187 -0.161 13.007 -0.327c3.248 -0.19 5.878 -2.608 6.154 -5.92 0.182 -2.187 0.339 -5.237 0.339 -9.253s-0.157 -7.066 -0.34 -9.253c-0.275 -3.312 -2.905 -5.73 -6.153 -5.92 -2.492 -0.146 -6.114 -0.29 -11.007 -0.32v-3.923A5.001 5.001 0 0 0 24 2Zm-5 24a2 2 0 1 0 -4 0v1a2 2 0 1 0 4 0v-1Zm12 -2a2 2 0 0 0 -2 2v1a2 2 0 1 0 4 0v-1a2 2 0 0 0 -2 -2ZM16.628 34.545c0.966 -0.91 2.065 -0.507 2.959 0.189 0.15 0.117 0.407 0.296 0.775 0.482 0.727 0.369 1.918 0.784 3.638 0.784s2.911 -0.415 3.638 -0.784a4.76 4.76 0 0 0 0.775 -0.482c0.894 -0.696 1.993 -1.1 2.959 -0.19 0.831 0.785 0.805 2.116 0.012 2.9l-0.12 0.116c-0.098 0.089 -0.23 0.202 -0.395 0.331a8.816 8.816 0 0 1 -1.421 0.893C28.203 39.415 26.395 40 24 40c-2.395 0 -4.203 -0.585 -5.448 -1.216a8.816 8.816 0 0 1 -1.421 -0.893 6.368 6.368 0 0 1 -0.394 -0.331c-0.852 -0.782 -1.019 -2.157 -0.109 -3.015Z" clip-rule="evenodd" stroke-width="1"></path>
  </g>
</svg>