<svg xmlns="http://www.w3.org/2000/svg" fill="none" viewBox="0 0 48 48" id="Desktop-Lock--Streamline-Plump">
  <desc>
    Desktop Lock Streamline Icon: https://streamlinehq.com
  </desc>
  <g id="desktop-lock--device-secure-display-computer-lock-desktop-padlock-security">
    <path id="Union" fill="#000000" fill-rule="evenodd" d="M8.12465 36.0821c3.25895 0.2026 8.45265 0.4159 15.87535 0.416 7.4227 0 12.6164 -0.2134 15.8753 -0.416 3.236 -0.2012 5.8674 -2.6021 6.1739 -5.9008 0.2347 -2.5256 0.4508 -6.2032 0.4508 -11.1833 0 -4.98 -0.2161 -8.6576 -0.4508 -11.18319 -0.3065 -3.29872 -2.9379 -5.69959 -6.1738 -5.90079 -3.259 -0.20263 -8.4527 -0.41597 -15.8754 -0.41597 -7.4227 -0.00001 -12.6164 0.21334 -15.87535 0.41597 -3.23593 0.2012 -5.86736 2.60207 -6.17388 5.90079C1.71608 10.3404 1.5 14.018 1.5 18.998c0 4.9801 0.21608 8.6576 0.45077 11.1833 0.30652 3.2987 2.93795 5.6996 6.17388 5.9008ZM24 8c-3.6337 0 -6.6211 2.8655 -6.7724 6.4961l-0.0759 1.8227c-1.7386 0.4691 -2.9726 1.8975 -3.0815 3.8384C14.0279 20.9099 14 21.8442 14 23c0 1.3048 0.0414 2.3294 0.1017 3.1306 0.1599 2.1209 1.7458 3.5367 3.784 3.6889 1.327 0.099 3.279 0.1805 6.1143 0.1805s4.7873 -0.0815 6.1143 -0.1805c2.0382 -0.1522 3.6241 -1.568 3.784 -3.6889C33.9586 25.3294 34 24.3048 34 23c0 -1.3048 -0.0414 -2.3294 -0.1017 -3.1306 -0.1401 -1.8588 -1.3756 -3.176 -3.051 -3.5756l-0.0749 -1.7977C30.6212 10.8655 27.6338 8 24 8Zm2.8329 8.0311C26.0039 16.0115 25.0642 16 24 16c-1.0624 0 -2.0023 0.0114 -2.8329 0.0309l0.0571 -1.3683C21.2862 13.1745 22.5106 12 24 12c1.4894 0 2.7139 1.1745 2.7759 2.6626l0.057 1.3685ZM24 20c1.1046 0 2 0.8954 2 2v2c0 1.1046 -0.8954 2 -2 2s-2 -0.8954 -2 -2v-2c0 -1.1046 0.8954 -2 2 -2Zm0.001 19.4978c-1.8172 0 -3.503 -0.0127 -5.0619 -0.0349l-0.2151 1.7209c-0.0938 0.7507 -0.7319 1.314 -1.4884 1.314h-2.8495c-1.0423 0 -1.9676 0.6669 -2.2972 1.6557 -0.3845 1.1533 0.4739 2.3443 1.6896 2.3443h20.4453c1.2157 0 2.0741 -1.191 1.6897 -2.3443 -0.3296 -0.9888 -1.255 -1.6557 -2.2973 -1.6557h-2.8495c-0.7565 0 -1.3946 -0.5633 -1.4884 -1.314l-0.2151 -1.7209c-1.5589 0.0222 -3.245 0.0349 -5.0622 0.0349Z" clip-rule="evenodd" stroke-width="1"></path>
  </g>
</svg>