<svg xmlns="http://www.w3.org/2000/svg" fill="none" viewBox="0 0 48 48" id="Dropbox--Streamline-Plump">
  <desc>
    Dropbox Streamline Icon: https://streamlinehq.com
  </desc>
  <g id="dropbox">
    <path id="Union" fill="#000000" fill-rule="evenodd" d="M11.0283 4.22675c0.5597 -0.3033 1.2233 -0.30291 1.7808 0.00465 1.7375 0.95844 5.74 3.27424 9.4041 6.1784 0.3862 0.3061 0.382 0.9006 -0.0105 1.198 -1.4477 1.0967 -4.8549 3.5727 -9.3306 6.1383 -0.5902 0.3384 -1.3042 0.3393 -1.8928 -0.0021 -1.7835 -1.0344 -5.76942 -3.4202 -9.08425 -5.9339 -0.52328 -0.3968 -0.52767 -1.1883 -0.00746 -1.5894 1.63985 -1.26446 5.11055 -3.8101 9.14071 -5.99395Zm0 15.00005c0.5597 -0.3033 1.2233 -0.303 1.7808 0.0046 1.7375 0.9584 5.74 3.2742 9.4041 6.1784 0.3862 0.3061 0.382 0.9006 -0.0105 1.198 -1.4477 1.0967 -4.8549 3.5727 -9.3306 6.1383 -0.5902 0.3384 -1.3042 0.3393 -1.8928 -0.0021 -1.7835 -1.0344 -5.76942 -3.4202 -9.08425 -5.9339 -0.52328 -0.3968 -0.52767 -1.1883 -0.00746 -1.5894 1.63985 -1.2645 5.11055 -3.8101 9.14071 -5.9939Zm13.3943 11.0046c-0.5798 -0.3076 -1.2698 -0.3079 -1.8519 -0.0046 -4.4222 2.3043 -8.1966 5.0116 -9.77 6.1913 -0.4041 0.303 -0.3998 0.8964 0.0063 1.1966 3.4972 2.5848 7.8102 5.0681 9.7128 6.1293 0.6121 0.3414 1.3545 0.3405 1.9683 0.0021 4.6542 -2.5656 8.1973 -5.0415 9.7027 -6.1383 0.4082 -0.2974 0.4126 -0.8919 0.0109 -1.198 -3.8102 -2.9042 -7.9723 -5.22 -9.7791 -6.1784ZM34.646 4.22675c0.5864 -0.3033 1.2816 -0.30291 1.8657 0.00465 1.7784 0.93641 5.8221 3.16852 9.587 5.9791 0.5422 0.4048 0.5334 1.1986 -0.0171 1.5924 -1.6449 1.1767 -5.075 3.5199 -9.5039 5.9432 -0.6184 0.3384 -1.3664 0.3393 -1.983 -0.0021 -1.9169 -1.0612 -6.2621 -3.5445 -9.7854 -6.1293 -0.4092 -0.3002 -0.4135 -0.8936 -0.0064 -1.1966 1.5852 -1.17974 5.3878 -3.88696 9.8431 -6.19135Zm1.8657 15.00465c-0.5841 -0.3076 -1.2793 -0.3079 -1.8657 -0.0046 -4.4553 2.3043 -8.2579 5.0116 -9.8431 6.1913 -0.4071 0.303 -0.4028 0.8964 0.0064 1.1966 3.5233 2.5848 7.8685 5.0681 9.7854 6.1293 0.6166 0.3414 1.3646 0.3405 1.983 0.0021 4.4289 -2.4233 7.859 -4.7665 9.5039 -5.9432 0.5505 -0.3938 0.5593 -1.1876 0.0171 -1.5924 -3.7649 -2.8106 -7.8086 -5.0427 -9.587 -5.9791Z" clip-rule="evenodd" stroke-width="1"></path>
  </g>
</svg>