<svg xmlns="http://www.w3.org/2000/svg" fill="none" viewBox="0 0 48 48" id="Spotify--Streamline-Plump">
  <desc>
    Spotify Streamline Icon: https://streamlinehq.com
  </desc>
  <g id="spotify">
    <path id="Subtract" fill="#000000" fill-rule="evenodd" d="M24 46.5C11.5736 46.5 1.5 36.4264 1.5 24S11.5736 1.5 24 1.5 46.5 11.5736 46.5 24 36.4264 46.5 24 46.5Zm1.6356 -33.3784c-4.4746 -0.4145 -9.2309 0.2192 -13.4462 2.0881 -1.0098 0.4476 -1.4655 1.6292 -1.0178 2.6389 0.4477 1.0098 1.6292 1.4655 2.639 1.0178 3.5219 -1.5615 7.5828 -2.1207 11.456 -1.7619 3.8978 0.3611 7.6569 1.6571 10.514 3.8548 0.8755 0.6734 2.1312 0.5096 2.8047 -0.3659 0.6734 -0.8755 0.5096 -2.1312 -0.3659 -2.8047 -3.5727 -2.7481 -8.0941 -4.2513 -12.5838 -4.6671Zm-12.1693 9.9766c3.4758 -1.6458 7.4276 -2.2054 11.1312 -1.8561 3.6221 0.3416 7.2848 1.5812 10.1809 3.8634 0.8676 0.6837 1.0167 1.9412 0.333 2.8088 -0.6837 0.8675 -1.9412 1.0166 -2.8088 0.333 -2.1771 -1.7157 -5.0658 -2.7385 -8.0807 -3.0229 -3.0737 -0.2899 -6.2922 0.1861 -9.0437 1.489 -0.9983 0.4727 -2.1908 0.0467 -2.6635 -0.9516 -0.4727 -0.9983 -0.0467 -2.1908 0.9516 -2.6636Zm10.0962 6.3096c-2.7339 -0.2659 -5.6516 0.1421 -8.2461 1.3596 -0.9999 0.4692 -1.4302 1.6602 -0.961 2.6601 0.4693 1 1.6603 1.4302 2.6602 0.961 1.8766 -0.8806 4.063 -1.2034 6.1596 -0.9995 2.1137 0.2056 4.117 0.9446 5.6105 2.1608 0.8566 0.6974 2.1163 0.5685 2.8137 -0.288 0.6975 -0.8566 0.5685 -2.1163 -0.288 -2.8138 -2.2134 -1.8023 -5.0043 -2.7733 -7.7489 -3.0402Z" clip-rule="evenodd" stroke-width="1"></path>
  </g>
</svg>