<svg xmlns="http://www.w3.org/2000/svg" fill="none" viewBox="0 0 24 24" id="Global-Learning--Streamline-Sharp">
  <desc>
    Global Learning Streamline Icon: https://streamlinehq.com
  </desc>
  <g id="global-learning--global-learning-education">
    <path id="Subtract" fill="#fddc5c" fill-rule="evenodd" d="M5.71802 16.9187C3.06275 15.5335 1.25 12.7548 1.25 9.55266 1.25 4.96723 4.96723 1.25 9.55266 1.25c4.58544 0 8.30264 3.71723 8.30264 8.30266 0 0.16495 -0.0048 0.32878 -0.0143 0.49134l-1.982 -0.79644L5.71802 13.3226v3.5961Z" clip-rule="evenodd" stroke-width="1"></path>
    <path id="Ellipse 349" fill="#fddc5c" d="m12.0959 20.856 3.7624 1.7636 3.7684 -1.7636 -0.0006 -3.6416h-7.537l0.0068 3.6416Z" stroke-width="1"></path>
    <path id="Union" fill="#0c098c" fill-rule="evenodd" d="M0 9.55266C0 4.27687 4.27687 0 9.55266 0c5.27574 0 9.55264 4.27687 9.55264 9.55266 0 0.33068 -0.0168 0.65744 -0.0496 0.97944L15.859 9.24756l-3.8702 1.55514H7.47556l0.57541 1.5824 -2.32101 0.9327 -0.91456 -2.5151H2.61045c0.3495 1.954 1.50374 3.629 3.10757 4.67v2.8318C2.35145 16.8273 0 13.4646 0 9.55266Zm2.61042 -1.24993c0.41784 -2.33631 1.98617 -4.27389 4.09793 -5.20568L4.81537 8.30273H2.61042Zm9.78648 -5.2057c2.1118 0.93177 3.6801 2.86937 4.098 5.2057h-2.205l-1.893 -5.2057ZM9.55263 2.5907l-2.0771 5.71203h4.15417L9.55263 2.5907Zm6.77247 8.999 -0.4661 -0.1873 -0.4661 0.1873 -6.89096 2.769 -0.78392 0.315v5.3462H10.218v-2.4604l0.6222 0.25 0.0057 3.0488 0.0015 0.793 0.718 0.3365 3.7624 1.7636 0.5301 0.2485 0.5302 -0.2482 3.7685 -1.7636 0.7203 -0.3371 -0.0002 -0.7952 -0.0005 -3.0457 2.3398 -0.9402 0.7839 -0.315v-1.8812l-0.7839 -0.315 -6.8909 -2.769Zm-2.9806 8.471 -0.0024 -1.2459 2.0508 0.8241 0.4661 0.1873 0.4661 -0.1873 2.0513 -0.8243 0.0002 1.2463 -2.5179 1.1784 -2.5142 -1.1786Z" clip-rule="evenodd" stroke-width="1"></path>
  </g>
</svg>