<svg xmlns="http://www.w3.org/2000/svg" viewBox="0 0 14 14">
  <path d="M7,0a7,7,0,1,0,7,7A7,7,0,0,0,7,0ZM5.29,10.78a.63.63,0,0,1-.54.31A.68.68,0,0,1,4.44,11a4.63,4.63,0,0,1,0-8,.62.62,0,0,1,.85.23.64.64,0,0,1-.23.86,3.38,3.38,0,0,0,0,5.84A.64.64,0,0,1,5.29,10.78Zm2.33-.28a.62.62,0,0,1-1.24,0V10a.26.26,0,0,0-.18-.24,1.41,1.41,0,0,1-1.08-1.4.63.63,0,0,1,1.26,0c0,.1,0,.25.62.25h.4a.23.23,0,0,0,.22-.24c0-.26-.36-.47-.91-.76S5.12,6.72,5.12,5.69A1.29,1.29,0,0,1,6.18,4.25.25.25,0,0,0,6.38,4V3.5a.62.62,0,0,1,1.24,0v.57a.25.25,0,0,0,.18.24A1.45,1.45,0,0,1,8.88,5.69a.63.63,0,0,1-1.26,0c0-.16-.31-.25-.62-.25H6.6a.23.23,0,0,0-.22.24c0,.26.36.47.91.76s1.59.83,1.59,1.86A1.29,1.29,0,0,1,7.82,9.75a.25.25,0,0,0-.2.24ZM9.56,11a.68.68,0,0,1-.31.08.63.63,0,0,1-.31-1.17,3.38,3.38,0,0,0,0-5.84.64.64,0,0,1-.23-.86A.62.62,0,0,1,9.56,3a4.63,4.63,0,0,1,0,8Z" style="fill: #000001"/>
</svg>
