<svg xmlns="http://www.w3.org/2000/svg" fill="none" viewBox="0 0 48 48" id="Notification-Alert--Streamline-Plump">
  <desc>
    Notification Alert Streamline Icon: https://streamlinehq.com
  </desc>
  <g id="notification-alert--android-phone-mobile-device-smartphone-iphone-alert">
    <path id="Union" fill="#000000" fill-rule="evenodd" d="M13.8319 1.56155C15.096 1.52276 16.4838 1.5 18 1.5s2.904 0.02276 4.1681 0.06155l-0.328 2.6245C21.7462 4.9367 21.1081 5.5 20.3517 5.5h-4.7034c-0.7564 0 -1.3945 -0.5633 -1.4884 -1.31395l-0.328 -2.6245ZM20.3535 8.5c-0.5527 1.5639 -0.8535 3.2468 -0.8535 5 0 8.2756 6.7017 14.986 14.9741 15 -0.0602 5.0901 -0.2161 8.8405 -0.3654 11.3944 -0.1878 3.2139 -2.5474 5.8617 -5.8422 6.1769C25.9016 46.2975 22.522 46.5 18 46.5s-7.9016 -0.2025 -10.26652 -0.4287c-3.29475 -0.3152 -5.65436 -2.963 -5.84222 -6.1769C1.70098 36.639 1.5 31.4398 1.5 24s0.20098 -12.639 0.39126 -15.89437C2.07912 4.89166 4.43873 2.2439 7.73348 1.9287c0.8859 -0.08475 1.91418 -0.16616 3.09162 -0.23484l0.358 2.8643C11.4646 6.81009 13.3789 8.5 15.6483 8.5h4.7034l0.0018 0ZM16 39.5c-0.8284 0 -1.5 0.6716 -1.5 1.5s0.6716 1.5 1.5 1.5h4c0.8284 0 1.5 -0.6716 1.5 -1.5s-0.6716 -1.5 -1.5 -1.5h-4Zm9.2412 -37.80226 -0.0663 -0.00388 -0.0078 0.06241 0.0741 -0.05853ZM34.5 25.5c6.6274 0 12 -5.3726 12 -12 0 -6.62742 -5.3726 -12 -12 -12s-12 5.37258 -12 12c0 6.6274 5.3726 12 12 12Zm2 -6.5c0 -1.1046 -0.8954 -2 -2 -2s-2 0.8954 -2 2v0.5c0 1.1046 0.8954 2 2 2s2 -0.8954 2 -2V19Zm-2 -13.5c1.1046 0 2 0.89543 2 2v6c0 1.1046 -0.8954 2 -2 2s-2 -0.8954 -2 -2v-6c0 -1.10457 0.8954 -2 2 -2Z" clip-rule="evenodd" stroke-width="1"></path>
  </g>
</svg>