<svg xmlns="http://www.w3.org/2000/svg" fill="none" viewBox="0 0 24 24" id="Blood-Bag-Donation--Streamline-Sharp">
  <desc>
    Blood Bag Donation Streamline Icon: https://streamlinehq.com
  </desc>
  <g id="blood-bag-donation">
    <path id="Union" fill="#000000" fill-rule="evenodd" d="M16.1091 20.6143H13.5v2.3484h-3v-2.3484H7.89092v-2.3404l-1.31545 -0.2791c-2.31003 -0.4902 -3.96219 -2.5297 -3.96219 -4.8911V1.0376h1l16.77342 0 1 0v1l0 11.0661c0 2.3614 -1.6522 4.4009 -3.9622 4.8911l-1.3154 0.2791v1.3404l0 1ZM4.61328 12.2725c2.61956 -0.6624 4.7338 0.112 6.55802 0.7801l0.0403 0.0148c0.2435 0.0892 0.4798 0.1757 0.7142 0.2582 2.073 0.7292 4.5213 1.142 7.4528 -0.0003 0.0054 -0.0732 0.0081 -0.1472 0.0081 -0.2216l0 -10.0661 -14.77342 0 0 9.2349Zm9.87732 -3.45473c0 1.37553 -1.1151 2.49063 -2.4906 2.49063 -1.3755 0 -2.49059 -1.1151 -2.49059 -2.49063C9.50941 7.26116 12 4.45925 12 4.45925s2.4906 2.80191 2.4906 4.35852Z" clip-rule="evenodd" stroke-width="1"></path>
  </g>
</svg>