<svg xmlns="http://www.w3.org/2000/svg" fill="none" viewBox="0 0 24 24" id="Insurance-Hands--Streamline-Sharp">
  <desc>
    Insurance Hands Streamline Icon: https://streamlinehq.com
  </desc>
  <g id="insurance-hands--health-medical-insurance-hands-cross">
    <path id="Union" fill="#000000" fill-rule="evenodd" d="M14.0005 5V2h-4v3H7.00046v4h3.00004v3h4V9h3V5h-3Zm5.5317 8.8258c0.4628 0.5836 0.7789 1.2452 0.8571 1.9487 0.1031 0.9281 -0.2201 1.8304 -0.9727 2.583l-0.5304 -0.5304 0.5304 0.5304 -0.0001 0 -0.0001 0.0001 -0.0003 0.0003 -0.0013 0.0013 -0.0051 0.0052 -0.02 0.0199 -0.0742 0.0742 -0.2525 0.2525 -0.6566 0.6566 -1.0607 -1.0606 0.6567 -0.6566 0.2525 -0.2526 0.0742 -0.0742 0.0199 -0.0199 0.0052 -0.0051 0.0013 -0.0014 0.0003 -0.0003 0.0001 -0.0001c0.4596 -0.4596 0.5909 -0.921 0.5425 -1.3566 -0.0516 -0.4643 -0.3203 -0.9971 -0.8455 -1.5223l-4.0229 4.023 0 4.5591h5.0022l4 -4V8c-2 0 -3.5 1 -3.5 3v1.5001l0 1.3257Zm-9.5077 4.6151 -4.02287 -4.023c-0.52516 0.5252 -0.79391 1.058 -0.8455 1.5223 -0.04841 0.4356 0.08294 0.897 0.54253 1.3566l0.00002 0 0.00008 0.0001 0.00033 0.0003 0.00132 0.0014 0.00515 0.0051 0.01993 0.0199 0.07418 0.0742 0.25254 0.2526 0.65661 0.6566 -1.06066 1.0606 -0.6566 -0.6566 -0.25254 -0.2525 -0.07418 -0.0742 -0.01993 -0.0199 -0.00515 -0.0052 -0.00132 -0.0013 -0.00033 -0.0003 -0.00008 -0.0001 -0.00002 0 0.53032 -0.5304 -0.53033 0.5304c-0.7526 -0.7526 -1.07582 -1.6549 -0.9727 -2.583 0.07817 -0.7035 0.39428 -1.3651 0.85704 -1.9487V11c0 -2 -1.5 -3 -3.5 -3v11l4 4h5.00216v-4.5591Z" clip-rule="evenodd" stroke-width="1"></path>
  </g>
</svg>