<svg xmlns="http://www.w3.org/2000/svg" fill="none" viewBox="0 0 24 24" id="Medical-Ribbon-1--Streamline-Sharp">
  <desc>
    Medical Ribbon 1 Streamline Icon: https://streamlinehq.com
  </desc>
  <g id="medical-ribbon-1--ribbon-medical-cancer-health-beauty-symbol">
    <path id="Subtract" fill="#000000" fill-rule="evenodd" d="M6.86811 3.04636c2.72588 -2.725877 7.14539 -2.725877 9.87129 0 2.7259 2.72589 2.7259 7.14544 0 9.87134l-1.2945 1.2945 -2.5956 -2.5957 1.3016 -1.3016c1.3046 -1.30465 1.3046 -3.4199 0 -4.72455 -1.3047 -1.30465 -3.4199 -1.30465 -4.72456 0 -1.30465 1.30465 -1.30465 3.4199 0 4.72455l1.83196 1.8319 -0.0001 0 3.9072 3.9071 0.0075 -0.0075 4.3869 4.3869 -2.5881 2.5882 -4.3869 -4.3869 0.0021 -0.0021 -3.90716 -3.9071 -0.00195 0.0019 -1.80968 -1.8096c-2.72589 -2.7259 -2.72589 -7.14545 0 -9.87134ZM8.1688 16.3357l-4.12681 4.1269 2.5761 2.5761 4.12681 -4.1268 -2.5761 -2.5762Z" clip-rule="evenodd" stroke-width="1"></path>
  </g>
</svg>