<svg xmlns="http://www.w3.org/2000/svg" fill="none" viewBox="0 0 14 14" id="Screen-Curve--Streamline-Flex-Remix">
  <desc>
    Screen Curve Streamline Icon: https://streamlinehq.com
  </desc>
  <g id="screen-curve--screen-curved-device-electronics-monitor-diplay-computer">
    <path id="Union" fill="#000000" fill-rule="evenodd" d="M0.50976 1.63575C0.629093 0.727464 1.47825 0.121635 2.36293 0.273235 3.61844 0.488381 5.71377 0.80864 7 0.80864c1.28623 0 3.3816 -0.320259 4.6371 -0.535405 0.8846 -0.151599 1.7338 0.454229 1.8531 1.362515 0.3464 2.63618 0.3464 5.10085 0 7.73703 -0.1193 0.90832 -0.9685 1.51412 -1.8531 1.36252 -0.9992 -0.1712 -2.53034 -0.409 -3.76221 -0.499v1.6054c0.49077 0.0307 0.98377 0.0873 1.48279 0.1697 0.47679 0.0788 0.79942 0.5291 0.72072 1.0059 -0.07874 0.4768 -0.5291 0.7995 -1.00588 0.7207 -0.69618 -0.1149 -1.37635 -0.1729 -2.0564 -0.1738l-0.01623 0.0002 -0.01612 -0.0002c-0.68005 0.0009 -1.36022 0.0589 -2.05639 0.1738 -0.47679 0.0788 -0.92714 -0.2439 -1.00588 -0.7207 -0.07875 -0.4768 0.24393 -0.9271 0.72072 -1.0059 0.49898 -0.0824 0.99194 -0.139 1.48267 -0.1697v-1.6054c-1.23183 0.09 -2.76282 0.3278 -3.76196 0.499 -0.88468 0.1516 -1.733837 -0.4542 -1.853169 -1.36252C0.163413 6.7366 0.163413 4.27193 0.50976 1.63575Zm1.64205 -0.13047c-0.19739 -0.03383 -0.37737 0.10051 -0.4027 0.2933 -0.33215 2.52809 -0.33215 4.88328 0 7.41137 0.02533 0.19279 0.20532 0.32713 0.4027 0.2933C3.39207 9.29072 5.59058 8.94989 7 8.94989s3.6079 0.34083 4.8482 0.55336c0.1974 0.03383 0.3774 -0.10051 0.4027 -0.2933 0.3321 -2.52809 0.3321 -4.88328 0 -7.41137 -0.0253 -0.19279 -0.2053 -0.32713 -0.4027 -0.2933 -1.2403 0.21253 -3.43878 0.55336 -4.8482 0.55336 -1.40942 0 -3.60793 -0.34083 -4.84819 -0.55336Z" clip-rule="evenodd" stroke-width="1"></path>
  </g>
</svg>