<svg xmlns="http://www.w3.org/2000/svg" fill="none" viewBox="0 0 14 14" id="Vpn-Connection--Streamline-Flex-Remix">
  <desc>
    VPN Connection Streamline Icon: https://streamlinehq.com
  </desc>
  <g id="VPN-connection">
    <path id="Union" fill="#000000" fill-rule="evenodd" d="M7.63335 0.201399c-0.37713 -0.2636209 -0.8783 -0.2698203 -1.26198 -0.01047 -0.71798 0.485318 -1.36688 0.902801 -1.98315 1.167831 -0.61067 0.26262 -1.12908 0.3485 -1.60075 0.2401 -0.55449 -0.12742 -1.36582 0.1433 -1.47432 0.95002C1.16907 3.6202 1 5.91586 1 7.44687c0 2.41002 1.26466 4.05893 2.60559 5.08193 0.66832 0.5098 1.36382 0.872 1.95354 1.108 0.56656 0.2268 1.10121 0.3632 1.44091 0.3632 0.3397 0 0.87434 -0.1364 1.44089 -0.3632 0.58972 -0.236 1.28521 -0.5982 1.95347 -1.108C11.7354 11.5058 13 9.85688 13 7.44687c0 -1.531 -0.169 -3.82666 -0.3131 -4.89798 -0.1084 -0.80621 -0.9193 -1.07783 -1.474 -0.95082 -0.4796 0.1098 -1.0126 0.02334 -1.62794 -0.23821 -0.61861 -0.26292 -1.2651 -0.678584 -1.95161 -1.158461ZM4.88205 2.50707c0.71143 -0.30594 1.42306 -0.76408 2.11145 -1.22797 0.67239 0.46745 1.38276 0.92526 2.10252 1.23117 0.7413 0.31506 1.54568 0.49218 2.36608 0.31293 0.1337 1.05981 0.2879 3.19863 0.2879 4.62367 0 1.91246 -0.9857 3.22753 -2.11371 4.08813 -0.56615 0.4318 -1.15975 0.7412 -1.65981 0.9413 -0.52322 0.2094 -0.87901 0.2737 -0.97644 0.2737 -0.09744 0 -0.45324 -0.0643 -0.97646 -0.2737 -0.50007 -0.2001 -1.09368 -0.5095 -1.65984 -0.9414C3.23572 10.6744 2.25 9.35933 2.25 7.44687c0 -1.42471 0.15421 -3.56288 0.28789 -4.62294 0.81667 0.17888 1.6094 -0.00087 2.34416 -0.31686Zm-0.35229 4.06872c1.36427 -1.36937 3.57621 -1.36937 4.94048 0 0.29235 0.29343 0.76636 0.29343 1.05866 0 0.2924 -0.29344 0.2924 -0.7692 0 -1.06264 -1.94895 -1.95624 -5.10885 -1.95624 -7.05783 0 -0.29234 0.29344 -0.29234 0.7692 0 1.06264 0.29235 0.29343 0.76634 0.29343 1.05869 0Zm3.38491 1.6581c-0.50516 -0.50704 -1.32418 -0.50704 -1.82934 0 -0.29234 0.29344 -0.76633 0.29344 -1.05868 0 -0.29235 -0.29344 -0.29235 -0.7692 0 -1.06264 1.08985 -1.09391 2.85685 -1.09391 3.9467 0 0.29235 0.29344 0.29235 0.7692 0 1.06264 -0.29235 0.29344 -0.76634 0.29344 -1.05868 0ZM8 9.54468c0 0.64002 -0.36 1.00002 -1 1.00002s-1 -0.36 -1 -1.00002c0 -0.64 0.36 -1 1 -1s1 0.36 1 1Z" clip-rule="evenodd" stroke-width="1"></path>
  </g>
</svg>