<svg xmlns="http://www.w3.org/2000/svg" fill="none" viewBox="0 0 24 24" id="Baggage--Streamline-Sharp-Remix">
  <desc>
    Baggage Streamline Icon: https://streamlinehq.com
  </desc>
  <g id="Remix/Map Travel/baggage--check-baggage-travel-adventure-luggage-bag-checked-airport">
    <path id="Union" fill="#000000" fill-rule="evenodd" d="M9.99988 0.75c-1.79493 0 -3.25 1.45507 -3.25 3.25v0.75H0.749634v18.5H23.2496V4.75h-5.9997V4c0 -1.79492 -1.4551 -3.25 -3.25 -3.25H9.99988Zm4.75002 4V4c0 -0.41421 -0.3358 -0.75 -0.75 -0.75H9.99988c-0.41422 0 -0.75 0.33579 -0.75 0.75v0.75h5.50002Zm-11.50027 16V7.25H6l0 13.5H3.24963ZM10 20.75l0 -13.5h4l0 13.5h-4Zm8 0h2.7496V7.25H18l0 13.5Z" clip-rule="evenodd" stroke-width="1"></path>
  </g>
</svg>