<svg xmlns="http://www.w3.org/2000/svg" fill="none" viewBox="0 0 48 48" id="Wine--Streamline-Plump">
  <desc>
    Wine Streamline Icon: https://streamlinehq.com
  </desc>
  <g id="wine--drink-cook-glass-cooking-wine-nutrition-food">
    <path id="Union" fill="#ffffff" d="M39.316 7.095c-0.375 -2.223 -2.182 -3.628 -4.431 -3.788C32.653 3.147 29.183 3 24 3s-8.653 0.148 -10.885 0.307c-2.249 0.16 -4.056 1.565 -4.431 3.788C8.326 9.213 8 12.512 8 17.5c0 7.221 4.371 12.26 10.774 13.912 1.03 0.265 1.78 1.203 1.68 2.261l-0.334 3.573c-0.113 1.202 -0.937 2.214 -2.07 2.628a77.571 77.571 0 0 0 -5.265 2.176 1.521 1.521 0 0 0 -0.886 1.392c0 0.86 0.698 1.558 1.558 1.558h21.084c0.86 0 1.558 -0.698 1.558 -1.558 0 -0.6 -0.34 -1.144 -0.886 -1.392a77.55 77.55 0 0 0 -5.264 -2.176c-1.133 -0.414 -1.958 -1.426 -2.07 -2.628l-0.335 -3.572c-0.1 -1.058 0.651 -1.997 1.68 -2.262C35.628 29.761 40 24.722 40 17.5c0 -4.988 -0.326 -8.287 -0.684 -10.405Z" stroke-width="3"></path>
    <path id="Intersect" fill="#8fbffa" d="M39.943 14.05a1.973 1.973 0 0 0 -0.598 -0.123c-2.808 -0.14 -9.399 -0.427 -15.845 -0.427 -6.154 0 -11.914 0.262 -14.626 0.407a1.963 1.963 0 0 0 -0.82 0.227A99.527 99.527 0 0 0 8 17.5c0 7.221 4.371 12.26 10.774 13.912 1.03 0.265 1.78 1.203 1.68 2.261l-0.334 3.573c-0.113 1.202 -0.937 2.214 -2.07 2.628a77.571 77.571 0 0 0 -5.265 2.176 1.521 1.521 0 0 0 -0.886 1.392c0 0.86 0.698 1.558 1.558 1.558h21.084c0.86 0 1.558 -0.698 1.558 -1.558 0 -0.6 -0.34 -1.144 -0.886 -1.392a77.55 77.55 0 0 0 -5.264 -2.176c-1.133 -0.414 -1.958 -1.426 -2.07 -2.628l-0.335 -3.572c-0.1 -1.058 0.651 -1.997 1.68 -2.262C35.628 29.761 40 24.722 40 17.5c0 -1.254 -0.02 -2.4 -0.057 -3.45Z" stroke-width="3"></path>
    <path id="Union_2" stroke="#2859c5" stroke-linecap="round" stroke-linejoin="round" d="M39.317 7.095c-0.375 -2.223 -2.182 -3.628 -4.431 -3.788C32.654 3.147 29.184 3 24.001 3s-8.653 0.148 -10.885 0.307c-2.249 0.16 -4.056 1.565 -4.431 3.788C8.327 9.213 8 12.512 8 17.5c0 7.221 4.371 12.26 10.774 13.912 1.03 0.265 1.78 1.203 1.68 2.261l-0.334 3.573c-0.113 1.202 -0.937 2.214 -2.07 2.628a77.55 77.55 0 0 0 -5.265 2.176 1.521 1.521 0 0 0 -0.886 1.392c0 0.86 0.698 1.558 1.558 1.558h21.084c0.86 0 1.558 -0.698 1.558 -1.558 0 -0.6 -0.34 -1.144 -0.886 -1.392a77.571 77.571 0 0 0 -5.264 -2.176c-1.133 -0.414 -1.958 -1.426 -2.07 -2.628l-0.335 -3.572c-0.1 -1.058 0.651 -1.997 1.68 -2.262C35.628 29.761 40 24.722 40 17.5c0 -4.988 -0.326 -8.287 -0.684 -10.405Z" stroke-width="3"></path>
    <path id="Intersect_2" stroke="#2859c5" stroke-linecap="round" stroke-linejoin="round" d="M39.75 14s-7.75 -0.5 -16.25 -0.5 -15.25 0.5 -15.25 0.5" stroke-width="3"></path>
  </g>
</svg>