<svg xmlns="http://www.w3.org/2000/svg" fill="none" viewBox="0 0 24 24" id="Business-Coaching-Whistle--Streamline-Freehand">
  <desc>
    Business Coaching Whistle Streamline Icon: https://streamlinehq.com
  </desc>
  <path fill="#0c6fff" d="M12.916 13.4336c0.3157 -0.2777 0.6846 -0.4883 1.0841 -0.6192 0.3996 -0.1309 0.8216 -0.1793 1.2404 -0.1423 0.0744 0.0093 0.1494 -0.0113 0.2086 -0.0574 0.0592 -0.046 0.0977 -0.1137 0.107 -0.1881 0.0093 -0.0744 -0.0114 -0.1494 -0.0574 -0.2086s-0.1137 -0.0977 -0.1881 -0.107c-0.5005 -0.0733 -1.0106 -0.0445 -1.4996 0.0847 -0.489 0.1291 -0.9469 0.356 -1.3459 0.6668 -0.8391 0.6192 -1.4148 1.5311 -1.6131 2.5549 -0.1794 0.8938 -0.0779 1.8212 0.2906 2.6551 0.2923 0.5959 0.7906 1.0658 1.4027 1.3226 0.9253 0.3895 1.9524 0.4668 2.9256 0.2204 0.9501 -0.2354 1.8105 -0.7439 2.4748 -1.4628 0.3516 -0.3672 0.6189 -0.8066 0.7833 -1.2877 0.1644 -0.481 0.2219 -0.9921 0.1685 -1.4977 -0.0558 -0.4952 -0.2215 -0.9716 -0.485 -1.3946 -0.2634 -0.4229 -0.6181 -0.7817 -1.0379 -1.0501 -0.0713 -0.0434 -0.1564 -0.0582 -0.2381 -0.0415 -0.0818 0.0167 -0.1542 0.0638 -0.2028 0.1317 -0.024 0.0345 -0.0408 0.0735 -0.0493 0.1148 -0.0085 0.0412 -0.0085 0.0837 -0.0001 0.1249 0.0084 0.0412 0.0252 0.0803 0.0492 0.1149 0.024 0.0346 0.0547 0.0639 0.0904 0.0862 0.3132 0.2228 0.573 0.5124 0.7606 0.8479 0.1876 0.3354 0.2984 0.7084 0.3243 1.0919 0.0259 0.3835 -0.0338 0.7679 -0.1746 1.1256 -0.1408 0.3576 -0.3593 0.6795 -0.6398 0.9423 -0.5737 0.5499 -1.2878 0.9312 -2.0639 1.1022 -0.7571 0.1733 -1.5496 0.1032 -2.2644 -0.2004 -0.238 -0.1011 -0.451 -0.2531 -0.6241 -0.4452 -0.1731 -0.1921 -0.302 -0.4198 -0.3779 -0.667 -0.1929 -0.5596 -0.2513 -1.1569 -0.1703 -1.7433 0.1091 -0.8049 0.5081 -1.5423 1.1222 -2.074Z" stroke-width="1"></path>
  <path fill="#020202" d="M23.6367 17.1608c-0.1971 -0.2899 -0.4715 -0.5187 -0.7921 -0.6604 -0.3205 -0.1417 -0.6744 -0.1906 -1.0214 -0.1412 -0.1358 0.0194 -0.2698 0.0496 -0.4008 0.0902 0.167 -1.5232 -0.268 -3.0514 -1.2123 -4.2582 -0.9897 -1.1493 -2.2805 -1.9995 -3.7272 -2.45478 -2.0665 -0.56965 -4.1685 -1.00143 -6.2922 -1.29249 -1.37893 -0.2721 -2.77488 -0.44953 -4.17805 -0.53103 -1.39378 -0.09799 -2.7918 -0.1214 -4.18808 -0.07013 -0.04165 -0.00002 -0.08287 0.00833 -0.12123 0.02456 -0.03835 0.01623 -0.07304 0.04001 -0.10202 0.06992 -0.02898 0.02992 -0.05164 0.06535 -0.06665 0.1042 -0.01501 0.03884 -0.02205 0.08031 -0.0207 0.12194 0.00129 0.04211 0.01087 0.08355 0.02819 0.12195 0.01733 0.03841 0.04205 0.07303 0.07275 0.10187 0.03071 0.02885 0.0668 0.05136 0.10621 0.06625s0.08137 0.02186 0.12348 0.02053c1.39101 -0.02093 2.78217 0.02923 4.16805 0.15029 0.85164 0.07013 1.70329 0.18034 2.52488 0.32062 -0.12388 0.32395 -0.21452 0.65965 -0.27053 1.00193 -0.02797 0.21677 0.02953 0.43597 0.16031 0.61117 0.2035 0.2513 0.47469 0.439 0.78151 0.5411 0.54802 0.1503 1.10778 0.2542 1.67328 0.3106 0.2213 0.0439 0.4458 0.0707 0.6712 0.0801 0.1714 -0.0113 0.3371 -0.0665 0.481 -0.1603 0.2125 -0.1608 0.3785 -0.3752 0.4809 -0.6212 0.1231 -0.3258 0.2202 -0.6608 0.2906 -1.00193 1.1594 0.18752 2.2995 0.47923 3.4065 0.87163 1.2717 0.4128 2.4007 1.177 3.2563 2.2043 0.4199 0.5687 0.7146 1.2198 0.8648 1.9106 0.1502 0.6907 0.1526 1.4054 0.0069 2.0971 -0.2332 1.4295 -1.0083 2.7142 -2.1642 3.587 -0.5867 0.4006 -1.2475 0.68 -1.9437 0.8216 -0.7055 0.1641 -1.4327 0.2148 -2.1542 0.1502 -0.8672 -0.0642 -1.7092 -0.3209 -2.4647 -0.7514 -0.7575 -0.4138 -1.3906 -1.0226 -1.83358 -1.7634 -0.32872 -0.4983 -0.59141 -1.0372 -0.78151 -1.6031 -0.17686 -0.5527 -0.23491 -1.1366 -0.17032 -1.7133 0.0129 -0.0921 -0.00584 -0.1859 -0.05316 -0.266s-0.12043 -0.1417 -0.20735 -0.1749L0.722438 12.3615c0 -0.2004 0.060116 -2.82546 0.060116 -2.82546 0.002761 -0.03718 -0.00219 -0.07452 -0.014543 -0.10969 -0.012353 -0.03517 -0.031842 -0.06741 -0.057243 -0.09469s-0.056166 -0.04902 -0.090365 -0.06385c-0.0342 -0.01483 -0.071095 -0.02244 -0.108372 -0.02233 -0.0727 -0.00005 -0.14258 0.02813 -0.194913 0.07859 -0.052333 0.05047 -0.083032 0.11927 -0.085628 0.19193l-0.1502904 2.1542c-0.0404269 0.2656 -0.0671804 0.5331 -0.08015474 0.8015 -0.0057338 0.0783 0.01222584 0.1564 0.05154064 0.2243 0.0393148 0.0679 0.0981635 0.1224 0.1688845 0.1564l7.69486 3.0058c-0.04034 0.5872 0.02067 1.1769 0.18034 1.7434 0.19438 0.6455 0.47406 1.2621 0.83161 1.8335 0.50739 0.871 1.22802 1.5985 2.09402 2.1141 0.8832 0.5138 1.8681 0.8284 2.8856 0.9218 0.8273 0.0778 1.6616 0.0305 2.4748 -0.1403 0.834 -0.1849 1.6259 -0.5247 2.3345 -1.0019 0.4155 -0.3 0.7895 -0.6538 1.1121 -1.052l0.1203 0.2004c0.1188 0.1616 0.2685 0.298 0.4405 0.4012 0.1721 0.1032 0.3629 0.1711 0.5614 0.1999 0.2985 0.0311 0.6001 0.0108 0.8917 -0.0601 0.4685 -0.1057 0.9048 -0.3222 1.2725 -0.6312 0.3885 -0.3326 0.6649 -0.777 0.7915 -1.2725 0.0925 -0.3266 0.1162 -0.6689 0.0696 -1.0052 -0.0466 -0.3363 -0.1624 -0.6593 -0.3401 -0.9485Zm-11.8228 -7.0136c-0.0802 0.1403 -0.1002 0.4108 -0.2305 0.3707l-1.91369 -0.3807c-0.19557 -0.017 -0.38604 -0.0714 -0.56108 -0.16031 0 -0.61118 0.14027 -0.59114 0.10019 -0.94182 0.27052 0.06012 0.55107 0.10019 0.82158 0.15029 0.6513 0.15029 1.3426 0.27052 2.0039 0.40077 -0.0625 0.20097 -0.1361 0.39832 -0.2204 0.59117v-0.0301Zm11.1314 8.7068c-0.0769 0.2959 -0.2368 0.5636 -0.4608 0.7715 -0.2313 0.2355 -0.5119 0.4169 -0.8216 0.531 -0.1543 0.0611 -0.3161 0.1016 -0.481 0.1203 -0.1364 0.011 -0.2735 -0.0096 -0.4007 -0.0601 -0.0944 -0.0478 -0.1793 -0.1123 -0.2505 -0.1904 -0.0886 -0.0932 -0.169 -0.1937 -0.2405 -0.3006 0.4986 -0.7848 0.839 -1.6595 1.0019 -2.575l0.0802 0c0.1475 -0.0363 0.299 -0.0532 0.4509 -0.0501 0.2063 -0.0026 0.4093 0.0523 0.5862 0.1584 0.177 0.1062 0.3209 0.2595 0.4157 0.4428 0.0953 0.1746 0.155 0.3663 0.1756 0.5641 0.0206 0.1977 0.0018 0.3977 -0.0554 0.5881Z" stroke-width="1"></path>
  <path fill="#0c6fff" d="M9.36909 3.73484c0.12023 0.07014 0.25048 0.12023 0.30058 0.16031 0.10616 0.09525 0.17975 0.2214 0.21041 0.3607 0.07114 0.23165 0.11814 0.47005 0.14022 0.71137 -0.0027 0.04212 0.003 0.08437 0.0166 0.12431 0.0137 0.03994 0.0351 0.07679 0.063 0.10844s0.0618 0.05748 0.0997 0.07599c0.038 0.01852 0.0792 0.02937 0.1213 0.03192 0.0834 0.00276 0.1646 -0.02708 0.2263 -0.08321 0.0618 -0.05612 0.0992 -0.1341 0.1044 -0.21737 0.0906 -0.38721 0.1143 -0.78708 0.0701 -1.18229 -0.044 -0.23282 -0.1476 -0.45028 -0.3006 -0.63121 -0.0902 -0.09018 -0.52099 -0.20039 -0.70133 -0.34066 0.0206 -0.06908 0.04743 -0.13615 0.08015 -0.20039 0.14027 -0.2605 0.30058 -0.50097 0.41078 -0.71137 0.0436 -0.05988 0.0617 -0.13457 0.0505 -0.20777 -0.0113 -0.0732 -0.051 -0.13898 -0.1106 -0.18299 -0.0291 -0.02292 -0.0627 -0.03962 -0.0985 -0.04904 -0.0359 -0.00943 -0.07329 -0.01138 -0.10993 -0.00574 -0.03664 0.00563 -0.07173 0.01874 -0.1031 0.03851 -0.03136 0.01976 -0.05833 0.04577 -0.07923 0.07639 -0.20038 0.19037 -0.49094 0.41079 -0.72139 0.64124 -0.12095 0.13387 -0.22524 0.2819 -0.3106 0.44085 -0.04532 0.13023 -0.04944 0.27126 -0.0118 0.40392 0.03765 0.13265 0.11523 0.2505 0.22221 0.33751 0.1298 0.11866 0.27465 0.21973 0.43083 0.30058Z" stroke-width="1"></path>
  <path fill="#0c6fff" d="M13.3067 6.10942c0.5853 -0.2018 1.1439 -0.47434 1.6632 -0.81156 0.1625 -0.11355 0.2968 -0.26297 0.3923 -0.43671 0.0956 -0.17374 0.1499 -0.36714 0.1587 -0.56523 -0.019 -0.17159 -0.0699 -0.33811 -0.1502 -0.49094l1.6632 -0.84163c0.0716 -0.01885 0.1328 -0.06524 0.1703 -0.12905 0.0376 -0.06381 0.0484 -0.13987 0.03 -0.21161 -0.021 -0.07235 -0.0694 -0.1337 -0.1348 -0.17108 -0.0654 -0.03739 -0.1428 -0.0479 -0.2158 -0.0293l-1.8536 0.39075c-0.18 0.04687 -0.3573 0.10374 -0.531 0.17033 -0.0742 0.03859 -0.1394 0.09248 -0.1912 0.15812 -0.0518 0.06563 -0.0891 0.1415 -0.1094 0.22261 -0.0348 0.14151 -0.0348 0.28933 0 0.43084 0.0397 0.13705 0.0969 0.26839 0.1703 0.39075 0 0.06012 0.1002 0.11021 0.1102 0.17033 0.01 0.06012 0 0.11021 -0.0801 0.17033 -0.1077 0.12918 -0.2286 0.24672 -0.3607 0.35067 -0.3707 0.28055 -0.7815 0.51099 -1.002 0.6713 -0.0371 0.01811 -0.0702 0.04344 -0.0974 0.07451 -0.0273 0.03107 -0.048 0.06725 -0.0611 0.10644 -0.013 0.03918 -0.0181 0.08058 -0.015 0.12177 0.0031 0.04119 0.0144 0.08133 0.0333 0.11809 0.0384 0.07063 0.1019 0.12425 0.178 0.15023 0.0761 0.02598 0.1592 0.02243 0.2328 -0.00996Z" stroke-width="1"></path>
</svg>