<svg xmlns="http://www.w3.org/2000/svg" fill="none" viewBox="0 0 24 24" id="Business-Workflow-Merge-1--Streamline-Freehand">
  <desc>
    Business Workflow Merge 1 Streamline Icon: https://streamlinehq.com
  </desc>
  <path fill="#020202" d="M5.92809 5.36112c-0.40984 -0.41606 -0.74687 -0.89802 -0.99702 -1.42575 -0.03682 -0.077 -0.10211 -0.13669 -0.18211 -0.16645 -0.07999 -0.02977 -0.16842 -0.02728 -0.24661 0.00693 -0.03902 0.01721 -0.0742 0.04206 -0.10345 0.07309 -0.02925 0.03103 -0.05199 0.06761 -0.06686 0.10758 -0.01487 0.03997 -0.02158 0.08251 -0.01973 0.12512 0.00185 0.0426 0.01223 0.0844 0.03051 0.12293 0.29813 0.75722 0.76136 1.43843 1.35595 1.99405 0.63973 0.58572 1.47564 0.91059 2.34301 0.91059 0.86736 0 1.70327 -0.32487 2.34302 -0.91059 0.4584 -0.37987 0.8157 -0.86724 1.0402 -1.41869 0.2244 -0.55145 0.3089 -1.14985 0.2459 -1.74188 -0.0118 -0.44836 -0.1202 -0.88889 -0.3177 -1.29158 -0.1975 -0.40269 -0.4795 -0.758078 -0.8268 -1.041942 -0.3473 -0.283865 -0.75162 -0.489539 -1.18555 -0.60301 -0.43393 -0.11347 -0.88722 -0.13207 -1.32898 -0.0545325C7.17165 0.149537 6.38027 0.497388 5.7366 1.04708c-0.64368 0.5497 -1.11112 1.27687 -1.34393 2.09068 -0.01047 0.03535 -0.01388 0.07242 -0.01003 0.10908 0.00385 0.03667 0.01489 0.07222 0.03248 0.10463 0.01759 0.0324 0.04139 0.06102 0.07004 0.08423 0.02865 0.0232 0.0616 0.04054 0.09695 0.05101 0.03535 0.01048 0.07242 0.01389 0.10909 0.01004 0.03666 -0.00385 0.07222 -0.01489 0.10462 -0.03248s0.06103 -0.04139 0.08423 -0.07004c0.02321 -0.02866 0.04054 -0.0616 0.05102 -0.09695 0.24571 -0.64562 0.67107 -1.20742 1.22581 -1.61907 0.55475 -0.41164 1.21572 -0.65592 1.90484 -0.703993 0.31243 -0.045722 0.63104 -0.02376 0.93424 0.064403 0.3032 0.08815 0.58392 0.24045 0.82312 0.44656 0.23922 0.20612 0.43132 0.46124 0.56332 0.74808 0.132 0.28685 0.2008 0.59871 0.2018 0.91447 0.0388 0.41385 -0.0224 0.83097 -0.1786 1.21619 -0.1561 0.38522 -0.4027 0.72723 -0.71874 0.9972 -0.50748 0.48106 -1.18012 0.7492 -1.87938 0.7492s-1.3719 -0.26814 -1.87939 -0.7492Z" stroke-width="1"></path>
  <path fill="#020202" d="M8.33091 18.6714c-0.65903 -0.3954 -1.42962 -0.5635 -2.19345 -0.4786 -0.5356 0.0887 -1.03919 0.3143 -1.46193 0.655 -0.42274 0.3406 -0.75028 0.7847 -0.95086 1.2892 -0.21519 0.4933 -0.28263 1.0385 -0.19414 1.5694 0.08848 0.5309 0.32909 1.0248 0.69265 1.4217 0.3049 0.3146 0.68622 0.5448 1.10669 0.668 0.57618 0.1821 1.18377 0.2432 1.78467 0.1794 0.03762 -0.0024 0.07434 -0.0125 0.10796 -0.0295 0.03363 -0.0171 0.06345 -0.0408 0.08767 -0.0696 0.02422 -0.0289 0.04235 -0.0624 0.05328 -0.0985 0.01093 -0.0361 0.01444 -0.074 0.01032 -0.1114 -0.00372 -0.0368 -0.0147 -0.0724 -0.03229 -0.1049 -0.0176 -0.0325 -0.04146 -0.0611 -0.07021 -0.0843 -0.02874 -0.0232 -0.06181 -0.0404 -0.09727 -0.0508 -0.03546 -0.0103 -0.07261 -0.0134 -0.10931 -0.0093 -0.42785 0.0141 -0.85523 -0.0397 -1.26622 -0.1595 -0.38863 -0.0914 -0.73793 -0.3045 -0.99702 -0.6082 -0.22076 -0.291 -0.35318 -0.6393 -0.38146 -1.0035 -0.02829 -0.3642 0.04875 -0.7288 0.22194 -1.0504 0.13995 -0.3325 0.36119 -0.6245 0.6434 -0.8492 0.28222 -0.2248 0.61637 -0.375 0.97177 -0.4369 0.52969 -0.0759 1.06959 0.0258 1.53542 0.2891 0.46475 0.2286 0.82231 0.6291 0.99702 1.1167 0.1142 0.4543 0.06478 0.9344 -0.13958 1.3559 -0.07255 0.2221 -0.20331 0.4206 -0.37867 0.5749 -0.17536 0.1543 -0.38889 0.2588 -0.61835 0.3025 -0.04197 0.0037 -0.08278 0.0158 -0.12007 0.0354 -0.0373 0.0196 -0.07034 0.0464 -0.09722 0.0788 -0.02689 0.0325 -0.04708 0.0699 -0.05941 0.1102s-0.01656 0.0826 -0.01244 0.1246c0.00375 0.0419 0.01577 0.0827 0.03538 0.12 0.0196 0.0373 0.0464 0.0704 0.07884 0.0972 0.03245 0.0269 0.06989 0.0471 0.11018 0.0595 0.04029 0.0123 0.08262 0.0165 0.12456 0.0124 0.34185 -0.0433 0.66664 -0.1744 0.94272 -0.3806 0.27609 -0.2062 0.49402 -0.4804 0.63257 -0.7959 0.32146 -0.594 0.42716 -1.281 0.29911 -1.9442 -0.16814 -0.7394 -0.61907 -1.3836 -1.25625 -1.7946Z" stroke-width="1"></path>
  <path fill="#020202" d="M19.1186 11.0142c-0.3835 -0.3059 -0.8303 -0.5228 -1.3079 -0.6348 -0.4777 -0.1121 -0.9743 -0.1166 -1.4538 -0.0132 -3.5495 0.997 -2.5923 6.69 0.7178 5.7927 0.0362 -0.0082 0.0704 -0.0236 0.1006 -0.0451 0.0301 -0.0216 0.0557 -0.0489 0.0752 -0.0805 0.0195 -0.0316 0.0325 -0.0667 0.0383 -0.1033 0.0057 -0.0367 0.0041 -0.0741 -0.0047 -0.1101 -0.0071 -0.0371 -0.0216 -0.0723 -0.0426 -0.1037 -0.0211 -0.0313 -0.0483 -0.058 -0.08 -0.0785 -0.0317 -0.0205 -0.0672 -0.0344 -0.1044 -0.0407 -0.0372 -0.0064 -0.0753 -0.0052 -0.112 0.0035 -1.2563 0.2294 -1.9043 -0.7976 -1.9342 -1.8744 -0.0475 -0.513 0.0889 -1.0262 0.3847 -1.4481 0.2959 -0.4218 0.7319 -0.7248 1.2304 -0.855 0.3258 -0.07 0.6628 -0.0688 0.988 0.0034 0.3252 0.0723 0.631 0.214 0.8964 0.4154 0.586 0.39 0.9945 0.9955 1.1366 1.6849 0.0634 0.4046 0.0008 0.8188 -0.1794 1.1865 -0.0653 0.1658 -0.1842 0.305 -0.3378 0.3954 -0.1536 0.0903 -0.3331 0.1266 -0.5097 0.1031 -0.042 -0.0086 -0.0852 -0.0087 -0.1272 -0.0003 -0.042 0.0085 -0.0819 0.0253 -0.1173 0.0495 -0.0353 0.0242 -0.0655 0.0552 -0.0885 0.0913 -0.0231 0.0361 -0.0387 0.0765 -0.0459 0.1187 -0.015 0.0831 0.0026 0.1687 0.0489 0.2393 0.0464 0.0705 0.1182 0.1205 0.2004 0.1396 0.2547 0.0594 0.5209 0.047 0.7691 -0.0357 0.2481 -0.0827 0.4685 -0.2326 0.6367 -0.4329 0.4528 -0.5607 0.6676 -1.2767 0.5982 -1.994 -0.0577 -0.4678 -0.2093 -0.9192 -0.4458 -1.3269 -0.2364 -0.4078 -0.5528 -0.7636 -0.9301 -1.0461Z" stroke-width="1"></path>
  <path fill="#0c6fff" d="M13.2661 13.0083c-0.9097 -0.2128 -1.7675 -0.6061 -2.5225 -1.1566 -0.4037 -0.2877 -0.77187 -0.6224 -1.09668 -0.997 -0.31898 -0.383 -0.59327 -0.8011 -0.81756 -1.24627 -0.29214 -0.57646 -0.5035 -1.19041 -0.62812 -1.82455 -0.35893 -0.43869 -0.72783 -0.37887 -1.08676 0 -0.22931 1.1067 -0.4686 2.21339 -0.63809 3.34002 -0.07976 0.5384 -0.13958 1.0768 -0.17946 1.6152 0 0.5483 -0.0698 1.0867 -0.07977 1.6351 0 0.9372 0 1.8744 0.08974 2.8016 0.14955 0.668 0.37886 0.8475 0.74776 0v-1.1565c0 -0.7079 0.11965 -1.4158 0.18944 -2.1237 0.06979 -0.7079 0.12961 -1.4157 0.17946 -2.1236 0.04985 -0.7079 0.10967 -1.675 0.15952 -2.51253 0.06656 0.26424 0.14981 0.52399 0.24926 0.77773 0.46309 1.11 1.26131 2.0476 2.28316 2.6819 0.9457 0.5608 2.0055 0.9015 3.1008 0.9971 0.6879 -0.2194 0.7776 -0.4587 0.0498 -0.7079Z" stroke-width="1"></path>
</svg>