<svg xmlns="http://www.w3.org/2000/svg" fill="none" viewBox="0 0 24 24" id="Performance-Presentation-Graph--Streamline-Freehand">
  <desc>
    Performance Presentation Graph Streamline Icon: https://streamlinehq.com
  </desc>
  <path fill="#020202" fill-rule="evenodd" d="M22.5845 13.2225c-0.7403 -0.2448 -1.5173 -0.3596 -2.2967 -0.3395 -1.0984 0 -2.2367 0.1298 -3.2053 0.1598l-5.532 0.1597c-1.80733 0.0699 -3.66462 0.1498 -5.50195 0.2896 -1.24819 0.0999 -2.4764 0.2397 -3.66467 0.4294 -0.04349 0.0061 -0.08532 0.0208 -0.12304 0.0432 -0.03773 0.0225 -0.07057 0.0523 -0.09662 0.0877 -0.02605 0.0353 -0.04477 0.0755 -0.05506 0.1182s-0.01195 0.087 -0.00487 0.1303c0.00484 0.0431 0.01839 0.0847 0.03983 0.1224 0.02144 0.0377 0.05032 0.0706 0.08488 0.0967 0.03456 0.0262 0.07408 0.045 0.11616 0.0554 0.04207 0.0104 0.08582 0.0122 0.12859 0.0051 1.17828 -0.1597 2.39651 -0.2596 3.62473 -0.3195 1.82734 -0.0799 3.68463 -0.0799 5.47202 -0.0899h5.532c0.9486 0 2.0869 -0.1098 3.1654 -0.0898 0.6406 0.003 1.2771 0.104 1.8872 0.2995 0.3195 0.1198 0.5292 0.2097 0.5692 0.3595 0.0399 0.1498 -0.0599 0.1198 -0.1198 0.1897 -0.4158 0.3904 -0.9428 0.6417 -1.5078 0.719 -0.6614 0.0977 -1.3286 0.1511 -1.9971 0.1597h-3.1554l-10.04543 0.2896c-0.81881 0 -1.72749 0.1398 -2.60621 0.1298 -0.546 0.0113 -1.09078 -0.056 -1.61765 -0.1997 -0.44935 -0.1298 -0.738924 -0.3395 -0.818808 -0.6191 -0.025915 -0.1708 -0.00202 -0.3455 0.068821 -0.5032 0.070841 -0.1576 0.185627 -0.2914 0.330597 -0.3855 0.07599 -0.0641 0.12379 -0.1554 0.13313 -0.2544 0.00933 -0.099 -0.02054 -0.1976 -0.0832 -0.2748 -0.03442 -0.0353 -0.07557 -0.0634 -0.12102 -0.0826 -0.04545 -0.0192 -0.09427 -0.029 -0.1436 -0.029 -0.049321 0 -0.098147 0.0098 -0.143594 0.029 -0.045447 0.0192 -0.086595 0.0473 -0.121017 0.0826 -0.280238 0.1707 -0.501948 0.4225 -0.635706 0.7221 -0.13375789 0.2997 -0.1732395 0.6329 -0.1132049 0.9554 0.1009829 0.2981 0.2772189 0.565 0.5116409 0.7749 0.234421 0.2099 0.519081 0.3558 0.826411 0.4234 0.59693 0.1761 1.21504 0.2702 1.83733 0.2796 0.89869 0 1.82734 -0.0499 2.65613 -0.0599h5.16248c-0.0699 0.4294 -0.1498 0.8587 -0.2097 1.2881 -0.4893 0.2996 -0.99853 0.5891 -1.47783 0.9087 -0.25962 0.1697 -0.50926 0.3495 -0.7589 0.5392 -0.24963 0.1897 -0.48929 0.3894 -0.70897 0.5991 -0.52414 0.5166 -1.0176 1.0634 -1.47785 1.6376 -0.03109 0.0307 -0.05579 0.0672 -0.07264 0.1075 -0.01685 0.0403 -0.02553 0.0835 -0.02553 0.1272s0.00868 0.0869 0.02553 0.1272 0.04155 0.0768 0.07264 0.1075c0.0298 0.0308 0.06549 0.0553 0.10494 0.072 0.03946 0.0167 0.08188 0.0253 0.12473 0.0253 0.04286 0 0.08527 -0.0086 0.12473 -0.0253 0.03945 -0.0167 0.07514 -0.0412 0.10494 -0.072 0.57915 -0.4094 1.18827 -0.7689 1.7874 -1.1783 0.23965 -0.1698 0.48928 -0.3595 0.72894 -0.5492 0.23965 -0.1897 0.46931 -0.3895 0.69897 -0.5892 0.2297 -0.1997 0.4494 -0.4194 0.669 -0.6291v0.6191c0 0.689 0.0799 1.3581 0.1298 1.9971 -0.0089 0.0543 -0.0058 0.1099 0.0089 0.1629 0.0147 0.053 0.0408 0.1022 0.0764 0.1442 0.0356 0.0419 0.0799 0.0756 0.1299 0.0987 0.0499 0.0231 0.1043 0.035 0.1593 0.035 0.055 0 0.1094 -0.0119 0.1593 -0.035 0.05 -0.0231 0.0943 -0.0568 0.1299 -0.0987 0.0356 -0.042 0.0617 -0.0912 0.0764 -0.1442 0.0147 -0.053 0.0178 -0.1086 0.0089 -0.1629 0.0898 -0.669 0.2196 -1.318 0.3095 -1.9971l0.0599 -0.639c0.2297 0.2696 0.4494 0.5492 0.689 0.8188l0.5093 0.5292c0.1797 0.1798 0.3694 0.3395 0.5592 0.4993 0.4593 0.3695 0.9386 0.679 1.4079 0.9985 0.0298 0.0308 0.0655 0.0553 0.105 0.0721 0.0394 0.0167 0.0818 0.0253 0.1247 0.0253 0.0428 0 0.0853 -0.0086 0.1247 -0.0253 0.0395 -0.0168 0.0751 -0.0413 0.1049 -0.0721 0.0322 -0.029 0.0578 -0.0644 0.0754 -0.104 0.0176 -0.0395 0.0267 -0.0823 0.0267 -0.1256 0 -0.0433 -0.0091 -0.0861 -0.0267 -0.1257 -0.0176 -0.0395 -0.0432 -0.075 -0.0754 -0.104 -0.3395 -0.4993 -0.659 -0.9985 -0.9985 -1.4579 -0.1797 -0.1897 -0.3495 -0.3694 -0.5292 -0.5392 -0.1798 -0.1697 -0.3895 -0.3395 -0.5792 -0.4893 -0.4793 -0.3694 -0.9985 -0.689 -1.4479 -0.9985 -0.0285 -0.4884 -0.0819 -0.975 -0.1598 -1.4579h7.2295c0.7289 -0.0098 1.4562 -0.0699 2.1769 -0.1797 0.5334 -0.0586 1.0462 -0.2395 1.4983 -0.5287 0.452 -0.2893 0.8312 -0.679 1.1079 -1.1389 0.2496 -0.5991 0.0898 -1.418 -1.3181 -1.9372Z" clip-rule="evenodd" stroke-width="1"></path>
  <path fill="#020202" fill-rule="evenodd" d="m7.81595 8.97868 1.99709 1.41792c0.05861 0.0408 0.1283 0.0627 0.19976 0.0627 0.0714 0 0.1411 -0.0219 0.1997 -0.0627 0.0033 0.072 0.0276 0.1414 0.0699 0.1997 0.0725 0.0696 0.1691 0.1084 0.2696 0.1084s0.1971 -0.0388 0.2696 -0.1084c0.3588 -0.2975 0.6551 -0.66317 0.8717 -1.07594 0.2166 -0.41276 0.3491 -0.86438 0.39 -1.32871 0.0408 -0.46433 -0.0108 -0.93216 -0.152 -1.3764 -0.1411 -0.44424 -0.369 -0.85608 -0.6704 -1.21166 -0.5423 -0.7912 -1.35132 -1.36079 -2.27906 -1.60464 -0.92773 -0.24385 -1.91224 -0.14568 -2.77355 0.27657 -0.54714 0.29746 -1.02496 0.70759 -1.40191 1.20332 -0.37696 0.49572 -0.64448 1.06577 -0.78491 1.67249 -0.155 0.60338 -0.15575 1.23605 -0.0022 1.83979 0.15356 0.60375 0.45649 1.15918 0.88092 1.61518 0.56683 0.5649 1.31081 0.9175 2.10693 0.9986 0.74482 0.0749 1.49685 -0.0243 2.19681 -0.2896 0.08218 -0.0295 0.14982 -0.0896 0.18887 -0.1677 0.03906 -0.0781 0.04651 -0.1683 0.02082 -0.2517 -0.02336 -0.0829 -0.07825 -0.1533 -0.1529 -0.1963 -0.07465 -0.0429 -0.16313 -0.0549 -0.24652 -0.0334 -0.60476 0.1839 -1.24397 0.2249 -1.86728 0.1198 -0.57548 -0.0951 -1.10267 -0.3797 -1.49782 -0.80878 -0.32376 -0.39526 -0.50648 -0.88719 -0.51924 -1.39796h0.99854c1.88726 -0.1398 1.20825 0.01997 1.68755 0.39942Zm2.56625 0.99854c-0.0151 -0.06835 -0.0498 -0.13082 -0.0998 -0.17974L8.55487 7.98013c-0.15613 -0.17641 -0.32286 -0.34314 -0.49927 -0.49927l-0.0699 0c0.11179 -0.20038 0.21181 -0.4071 0.29957 -0.6191 0.07685 -0.16554 0.14354 -0.33561 0.1997 -0.50926 0.05269 -0.17734 0.09602 -0.35733 0.12982 -0.53922v-0.64905c0.70401 0.15752 1.33604 0.54376 1.79741 1.0984 0.4768 0.50262 0.7401 1.17057 0.7345 1.86334 -0.0056 0.69277 -0.2796 1.35639 -0.7645 1.85125ZM5.21972 7.5907c-0.00367 -0.04653 -0.00367 -0.09327 0 -0.1398 0.10806 -0.41953 0.30004 -0.81279 0.56435 -1.15604 0.2643 -0.34326 0.59544 -0.62937 0.97342 -0.84106 0.2614 -0.13888 0.54541 -0.23017 0.83878 -0.2696 -0.05992 0.10984 -0.11983 0.21968 -0.16976 0.32952 -0.13477 0.32136 -0.23518 0.65607 -0.29956 0.99854 -0.04417 0.26114 -0.07417 0.52448 -0.08987 0.78886 -0.22276 -0.01496 -0.44627 -0.01496 -0.66903 0 -0.38812 0.07392 -0.77156 0.17062 -1.14833 0.28958Z" clip-rule="evenodd" stroke-width="1"></path>
  <path fill="#0c6fff" fill-rule="evenodd" d="M14.7159 6.49229c-0.1997 0 -0.3994 0 -0.5293 1.8573 -0.0149 0.21276 -0.0149 0.42631 0 0.63907 0.008 0.21773 0.0313 0.43463 0.0699 0.64906 0.2397 1.70748 0.3695 1.87728 0.689 1.85728 0.3196 -0.02 0.3695 -0.2097 0.4893 -1.90721 0.0151 -0.21276 0.0151 -0.42631 0 -0.63907 -0.0051 -0.21416 -0.0251 -0.4277 -0.0599 -0.63907 -0.2496 -1.84731 -0.4693 -1.82734 -0.659 -1.81736Z" clip-rule="evenodd" stroke-width="1"></path>
  <path fill="#0c6fff" fill-rule="evenodd" d="M17.7115 3.72632c-0.0436 -0.00273 -0.0873 0.00351 -0.1284 0.01834 -0.0411 0.01483 -0.0787 0.03793 -0.1105 0.06788 -0.0319 0.02995 -0.0572 0.06611 -0.0745 0.10624 -0.0173 0.04013 -0.0262 0.08338 -0.0261 0.12707 -0.1198 0.8288 -0.2796 1.63762 -0.3694 2.4764 0 0.35948 -0.06 0.71895 -0.0699 1.07843 -0.01 0.35948 0 0.71895 0 1.07843 0 0.84877 0.1398 1.67759 0.2496 2.51639 0.0077 0.0997 0.0534 0.1927 0.1278 0.2596 0.0743 0.0669 0.1716 0.1027 0.2716 0.0998 0.0495 -0.0025 0.0979 -0.0149 0.1424 -0.0365 0.0446 -0.0216 0.0843 -0.0519 0.1169 -0.0892 0.0326 -0.0372 0.0574 -0.0807 0.0729 -0.1277 0.0155 -0.047 0.0214 -0.0967 0.0173 -0.146 0 -0.8488 0.1398 -1.67755 0.1997 -2.5363 0 -0.55919 0.0699 -1.12836 0.0699 -1.68755 0 -0.99854 -0.1198 -1.91721 -0.1797 -2.86583 0.0003 -0.08508 -0.0313 -0.16719 -0.0886 -0.23006 -0.0574 -0.06288 -0.1362 -0.10194 -0.221 -0.10944Z" clip-rule="evenodd" stroke-width="1"></path>
  <path fill="#020202" fill-rule="evenodd" d="M1.09575 13.6019c-0.00269 0.0428 0.00325 0.0857 0.01747 0.1262 0.01422 0.0404 0.03643 0.0776 0.06531 0.1092 0.02889 0.0317 0.06385 0.0573 0.10281 0.0752 0.03896 0.0178 0.08111 0.0277 0.12396 0.029 0.04362 0.0027 0.08732 -0.0036 0.12843 -0.0184 0.0411 -0.0148 0.07872 -0.0379 0.11054 -0.0679 0.03182 -0.0299 0.05716 -0.0661 0.07446 -0.1062 0.01729 -0.0401 0.02617 -0.0834 0.02608 -0.1271 0.14978 -1.4778 0.30955 -2.9956 0.33951 -4.43353V6.54222c0 -1.32807 -0.1398 -2.63616 -0.15977 -3.99419 -0.01455 -0.08882 -0.0602 -0.16957 -0.12879 -0.22784 -0.0686 -0.05826 -0.15567 -0.09025 -0.24567 -0.09025s-0.17707 0.03199 -0.24566 0.09025c-0.06859 0.05827 -0.11424 0.13902 -0.12879 0.22784C1.02586 3.84614 0.916016 5.13427 0.866089 6.43238v3.31518c0.059913 1.28814 0.159771 2.56624 0.229661 3.85434Z" clip-rule="evenodd" stroke-width="1"></path>
  <path fill="#020202" fill-rule="evenodd" d="M2.23405 2.27842c0.47931 0.05992 0.99855 0.08987 1.45788 0.11983 1.10839 0 2.21678 0 3.34514 0.0699 1.99709 0.08987 3.99423 0.17974 5.99123 0.18972 1.3481 0 2.6861 0 3.9942 -0.05991l3.7646 0.04993c0.1697 0 0.9985 -0.1398 0.8687 0.05991 0.1028 0.24384 0.1604 0.5044 0.1697 0.76888v6.89002c0 0.7389 0 1.4678 0.06 2.1968 0.0012 0.0503 0.0126 0.0998 0.0336 0.1455 0.021 0.0457 0.0512 0.0867 0.0886 0.1203 0.0374 0.0337 0.0812 0.0593 0.1289 0.0754 0.0477 0.0161 0.0981 0.0223 0.1483 0.0182 0.0481 -0.0012 0.0954 -0.0121 0.1392 -0.032 0.0438 -0.0199 0.0832 -0.0484 0.1158 -0.0838 0.0326 -0.0354 0.0577 -0.0769 0.074 -0.1222 0.0162 -0.0453 0.0232 -0.0934 0.0205 -0.1414v-2.1669c0.0599 -1.69749 0.1597 -3.405 0.1897 -5.09255 0.0999 -0.72827 0.1566 -1.46182 0.1698 -2.1968 -0.0376 -0.39416 -0.175 -0.77222 -0.3995 -1.0984 -0.1229 -0.1731 -0.2978 -0.30252 -0.4992 -0.36947 -0.3877 -0.10373 -0.787 -0.15742 -1.1883 -0.15976 -0.7589 0 -1.5378 -0.07989 -2.3067 -0.09986h-1.5577l-10.02541 0.19971c-1.11837 0 -2.22676 0.09985 -3.33514 0.10984 -0.46932 0 -0.93864 0 -1.40796 -0.04993 -0.04332 -0.00557 -0.08732 -0.00248 -0.12943 0.00911 -0.04212 0.01158 -0.08152 0.03142 -0.11589 0.05837 -0.03438 0.02694 -0.06306 0.06046 -0.08437 0.09858 -0.02131 0.03813 -0.03483 0.08012 -0.03977 0.12352 -0.00411 0.04621 0.0013 0.09277 0.01588 0.13681 0.01459 0.04404 0.03804 0.08462 0.06892 0.11924 0.03088 0.03462 0.06853 0.06254 0.11062 0.08205s0.08773 0.03018 0.1341 0.03136Z" clip-rule="evenodd" stroke-width="1"></path>
</svg>