<svg xmlns="http://www.w3.org/2000/svg" fill="none" viewBox="0 0 14 14" id="Airship--Streamline-Flex">
  <desc>
    Airship Streamline Icon: https://streamlinehq.com
  </desc>
  <g id="airship">
    <path id="Vector 908" stroke="#000000" stroke-linecap="round" stroke-linejoin="round" d="M5.84064 9.90308c-0.12803 0.89812 -0.09981 1.51462 0.07078 2.24902 0.05252 0.226 0.18984 0.4253 0.39129 0.5405 0.69894 0.3997 1.6568 0.6543 2.69722 0.3075 1.03337 -0.3445 1.15217 -1.7025 1.05877 -2.6051" stroke-width="1"></path>
    <path id="Vector 906" stroke="#000000" stroke-linecap="round" stroke-linejoin="round" d="M4.58691 2.81677C3.28783 1.36039 1.70146 1.26631 1.00022 1.50006l0.9319 4.19352" stroke-width="1"></path>
    <path id="Vector 907" stroke="#000000" stroke-linecap="round" stroke-linejoin="round" d="M1.8501 6.17376 0.999838 9.99994c0.651072 0.21706 2.065142 0.15146 3.303872 -1.02465" stroke-width="1"></path>
    <path id="Vector 902" stroke="#000000" stroke-linecap="round" stroke-linejoin="round" d="M8 1.49995c3.6 -0.4 5.25 2.00011 5.25 4.5S11.6 10.9001 8 10.5001c-3.6 -0.4 -5.58333 -3.33333 -6.25 -4.50004C2.41667 4.83336 4.4 1.89995 8 1.49995Z" stroke-width="1"></path>
    <path id="Vector 663" stroke="#000000" stroke-linecap="round" stroke-linejoin="round" d="M4.13916 6H0.999951" stroke-width="1"></path>
  </g>
</svg>