<svg xmlns="http://www.w3.org/2000/svg" fill="none" viewBox="0 0 14 14" id="Gas-Station-Fuel-Petroleum--Streamline-Flex">
  <desc>
    Gas Station Fuel Petroleum Streamline Icon: https://streamlinehq.com
  </desc>
  <g id="gas-station-fuel-petroleum">
    <path id="Intersect" stroke="#000000" stroke-linecap="round" stroke-linejoin="round" d="M1.11301 11.9334c0.03754 0.478 0.40417 0.8673 0.8779 0.9419 0.9451 0.1488 1.92954 0.3258 2.94089 0.3258s1.99578 -0.177 2.94088 -0.3258c0.47373 -0.0746 0.84036 -0.4639 0.8779 -0.9419 0.10922 -1.3908 0.24973 -2.84585 0.24973 -4.34385 0 -1.498 -0.14051 -2.95305 -0.24973 -4.34381 -0.03754 -0.47808 -0.40417 -0.86737 -0.8779 -0.94194 -0.9451 -0.14876 -1.92953 -0.32577 -2.94088 -0.32577s-1.99579 0.17701 -2.94089 0.32577c-0.47373 0.07457 -0.84036 0.46386 -0.8779 0.94194C1.00379 4.6365 0.863281 6.09155 0.863281 7.58955c0 1.498 0.140509 2.95305 0.249729 4.34385Z" stroke-width="1"></path>
    <path id="Intersect_2" stroke="#000000" stroke-linecap="round" stroke-linejoin="round" d="M8.98069 6.57994c-0.03399 -0.91688 -0.10713 -1.81535 -0.17835 -2.69033 -0.01759 -0.21608 -0.03507 -0.43073 -0.0518 -0.64387 -0.03755 -0.47808 -0.40418 -0.86737 -0.8779 -0.94194 -0.10212 -0.01607 -0.2047 -0.03248 -0.30771 -0.04895 -0.85044 -0.13599 -1.7311 -0.27682 -2.63318 -0.27682 -0.90208 0 -1.78274 0.14083 -2.63318 0.27682 -0.10302 0.01647 -0.20559 0.03288 -0.30771 0.04895 -0.47372 0.07457 -0.84035 0.46386 -0.8779 0.94194 -0.01674 0.21314 -0.03421 0.42778 -0.0518 0.64386 -0.071221 0.87498 -0.144357 1.77346 -0.178348 2.69034 1.319868 0.05829 2.672058 0.1061 4.048928 0.1061 1.37688 0 2.72908 -0.04781 4.04895 -0.1061Z" stroke-width="1"></path>
    <path id="Vector" stroke="#000000" stroke-linecap="round" stroke-linejoin="round" d="M8.88867 10.2442c0 0.8693 0.70472 1.574 1.57403 1.574 0.8693 0 1.5741 -0.7047 1.5741 -1.574V4.9196c0 -0.55289 0.2288 -1.08111 0.6322 -1.45921l0.4597 -0.43085" stroke-width="1"></path>
    <path id="Vector 676" stroke="#000000" stroke-linecap="round" stroke-linejoin="round" d="M12.0376 6.18018h1.0915" stroke-width="1"></path>
    <path id="Vector 677" stroke="#000000" stroke-linecap="round" stroke-linejoin="round" d="M4.03711 4.33203h1.78971" stroke-width="1"></path>
  </g>
</svg>