<svg xmlns="http://www.w3.org/2000/svg" fill="none" viewBox="0 0 14 14" id="High-Speed-Train-Front--Streamline-Flex">
  <desc>
    High Speed Train Front Streamline Icon: https://streamlinehq.com
  </desc>
  <g id="high-speed-train-front">
    <path id="Vector 993" stroke="#000000" stroke-linecap="round" stroke-linejoin="round" d="M7.00025 0.75c-5 0 -5.7884 4.11889 -5.5 6 0.30999 2.02086 2.11844 6 5.50005 6 3.3816 0 5.1899 -3.97914 5.4999 -6 0.2884 -1.88111 -0.4999 -6 -5.49995 -6Z" stroke-width="1"></path>
    <path id="Vector 994" stroke="#000000" stroke-linecap="round" stroke-linejoin="round" d="M6.99987 3.25c-1.99107 0 -2.85798 1.1471 -3.00044 2.01382 -0.05005 0.30451 0.16324 0.56633 0.45951 0.65268 0.54712 0.15945 1.45693 0.3335 2.54093 0.3335 1.084 0 1.99382 -0.17405 2.54095 -0.3335 0.29627 -0.08635 0.50958 -0.34818 0.45948 -0.65269C9.85787 4.39709 8.99094 3.25 6.99987 3.25Z" stroke-width="1"></path>
    <path id="Intersect" stroke="#000000" stroke-linecap="round" stroke-linejoin="round" d="M10.2712 11.2579C9.87083 10.1581 8.93525 9 7.00009 9 5.06497 9 4.12941 10.158 3.729 11.2578c0.84882 0.8734 1.93768 1.4922 3.27118 1.4922 1.33346 0 2.42228 -0.6187 3.27102 -1.4921Z" stroke-width="1"></path>
    <path id="Vector 961" stroke="#000000" stroke-linecap="round" stroke-linejoin="round" d="m12.2515 11.75 1.001 1.5602" stroke-width="1"></path>
    <path id="Vector 995" stroke="#000000" stroke-linecap="round" stroke-linejoin="round" d="M1.74902 11.75 0.748014 13.3102" stroke-width="1"></path>
  </g>
</svg>