<svg xmlns="http://www.w3.org/2000/svg" fill="none" viewBox="0 0 14 14" id="Surveillance-Camera--Streamline-Flex">
  <desc>
    Surveillance Camera Streamline Icon: https://streamlinehq.com
  </desc>
  <g id="surveillance-camera">
    <path id="Vector 687" stroke="#000000" stroke-linecap="round" stroke-linejoin="round" d="M9.27197 8H11.25c0.5522 0 1 -0.44772 1 -1V4.5h-0.142" stroke-width="1"></path>
    <path id="Vector 686" stroke="#000000" stroke-linecap="round" stroke-linejoin="round" d="M9.26984 5.5c2.98496 0 4.09336 -2.33333 3.92746 -3.5 0 0 -3.67973 -0.55713 -6.12539 -0.55713 -0.88874 0 -1.96098 0.05707 -2.966 0.12972C2.21479 1.70931 0.791016 3.30812 0.791016 5.20417c0 2.03604 1.634614 3.69493 3.670424 3.72494l3.79366 0.05593c0.55799 0.00823 1.01474 -0.44184 1.01474 -0.99989V5.5Z" stroke-width="1"></path>
    <path id="Vector 688" stroke="#000000" stroke-linecap="round" stroke-linejoin="round" d="M5 9v0.5c0 1.1046 -0.89543 2 -2 2H1" stroke-width="1"></path>
    <path id="Vector 689" stroke="#000000" stroke-linecap="round" stroke-linejoin="round" d="M1 10.5v2" stroke-width="1"></path>
    <path id="Vector 1157" stroke="#000000" stroke-linecap="round" stroke-linejoin="round" d="M4.99988 6.25h-0.88465" stroke-width="1"></path>
  </g>
</svg>