<svg xmlns="http://www.w3.org/2000/svg" fill="none" viewBox="0 0 48 48" id="Polaroid--Streamline-Plump-Neon">
  <desc>
    Polaroid Streamline Icon: https://streamlinehq.com
  </desc>
  <g id="polaroid--photos-polaroid-picture-camera-photography-photo-pictures-image">
    <path id="Vector" stroke="#c71dff" stroke-linecap="round" stroke-linejoin="round" d="M40 14.3359c0.7646 0.2472 1.4512 0.4771 2.0629 0.6879 2.4239 0.8351 3.8035 3.2247 3.3148 5.7414 -0.4729 2.4355 -1.2525 5.9644 -2.5189 10.6906 -1.2664 4.7262 -2.3557 8.1721 -3.1639 10.5178 -0.8351 2.4239 -3.2246 3.8035 -5.7413 3.3148 -2.4356 -0.4729 -5.9644 -1.2525 -10.6907 -2.5189 -4.2426 -1.1368 -7.4534 -2.1309 -9.7629 -2.907" stroke-width="1"></path>
    <path id="Vector_2" stroke="#000cfe" stroke-linecap="round" stroke-linejoin="round" d="M13.5 39.8625c2.3095 0.7761 5.5203 1.7702 9.7629 2.907 4.7263 1.2664 8.2551 2.046 10.6907 2.5189 2.5167 0.4887 4.9062 -0.8909 5.7413 -3.3148l0.6281 -1.884 -6.3699 -1.7068" stroke-width="1"></path>
    <path id="Vector_3" stroke="#c71dff" stroke-linecap="round" stroke-linejoin="round" d="M3.33388 29.9783c0.17934 2.5574 2.13038 4.5085 4.68782 4.6878C10.4966 34.8397 14.107 35 19 35c4.893 0 8.5034 -0.1603 10.9783 -0.3339 2.5574 -0.1793 4.5085 -2.1304 4.6878 -4.6878C34.8397 27.5034 35 23.893 35 19c0 -4.893 -0.1603 -8.5034 -0.3339 -10.9783 -0.1793 -2.55744 -2.1304 -4.50848 -4.6878 -4.68782C27.5034 3.16032 23.893 3 19 3c-4.893 0 -8.5034 0.16032 -10.9783 0.33387 -2.55744 0.17935 -4.50848 2.13039 -4.68782 4.68783C3.16032 10.4966 3 14.107 3 19c0 4.893 0.16032 8.5034 0.33388 10.9783Z" stroke-width="1"></path>
    <path id="Vector_4" stroke="#000cfe" stroke-linecap="round" stroke-linejoin="round" d="M34.7862 28H3.21289c0.03807 0.7261 0.07892 1.3848 0.12054 1.9783 0.17934 2.5574 2.13039 4.5085 4.68783 4.6878C10.4962 34.8397 14.1066 35 18.9996 35c4.8929 0 8.5033 -0.1603 10.9782 -0.3339 2.5575 -0.1793 4.5085 -2.1304 4.6879 -4.6878 0.0416 -0.5935 0.0824 -1.2522 0.1205 -1.9783Z" stroke-width="1"></path>
  </g>
</svg>