<svg xmlns="http://www.w3.org/2000/svg" fill="none" viewBox="0 0 24 24" id="Adobe-Cloud-Logo--Streamline-Logos">
  <desc>
    Adobe Cloud Logo Streamline Icon: https://streamlinehq.com
  </desc>
  <path fill="#000000" fill-rule="evenodd" d="M15 20.5A8.5 8.5 0 1 0 8.504 6.518 7 7 0 1 0 8 20.5h7ZM7.99 10.249a3.189 3.189 0 0 0 0 6.377 1 1 0 0 1 0 2 5.188 5.188 0 1 1 0 -10.377c1.672 0 3.318 0.95 4.467 1.786a16.19 16.19 0 0 1 2.2 1.923 1 1 0 1 1 -1.486 1.338c-0.076 -0.085 -0.838 -0.88 -1.89 -1.643 -1.089 -0.792 -2.292 -1.404 -3.292 -1.404Zm6.053 -1.49a4.025 4.025 0 1 1 1.208 7.867c-0.45 0 -1.02 -0.181 -1.684 -0.552 -0.65 -0.363 -1.312 -0.865 -1.925 -1.397 -1.009 -0.878 -1.788 -1.75 -2.155 -2.159a9.77 9.77 0 0 0 -0.184 -0.203A1 1 0 0 0 7.86 13.7l0.017 0.018 0.05 0.057 0.04 0.044 0.126 0.141c0.136 0.152 0.317 0.352 0.536 0.583a24.315 24.315 0 0 0 1.7 1.642c0.67 0.583 1.447 1.18 2.262 1.634 0.801 0.448 1.722 0.806 2.66 0.806A6.025 6.025 0 1 0 13.443 6.85a1 1 0 1 0 0.6 1.908Z" clip-rule="evenodd" stroke-width="1"></path>
</svg>