<svg xmlns="http://www.w3.org/2000/svg" fill="none" viewBox="0 0 24 24" id="Bower-Logo--Streamline-Logos">
  <desc>
    Bower Logo Streamline Icon: https://streamlinehq.com
  </desc>
  <path fill="#000000" fill-rule="evenodd" d="M22.543 1.654s-3.683 0.953 -4.441 1.707a1.953 1.953 0 0 0 0 2.735c0.744 0.744 1.99 0.744 2.734 0 0.754 -0.758 1.707 -4.442 1.707 -4.442ZM2.177 16.764c0.873 2.58 2.605 5.893 5.288 3.295 -1.789 -0.303 -3.37 -1.236 -4.56 -2.454a9.108 9.108 0 0 1 -0.728 -0.84Zm5.329 3.302c0.486 1.738 2.14 3.765 5.534 2.3 2.518 -1.089 1.554 -3.534 0.873 -4.744a7.57 7.57 0 0 1 -0.979 0.979c-0.923 0.768 -2.339 1.563 -4.223 1.563 -0.41 0 -0.812 -0.034 -1.205 -0.098Zm6.799 -8.918c0.14 -0.293 0.254 -0.61 0.343 -0.951 2.76 0 7.895 0.814 7.895 2.39 0 0.374 -0.113 0.757 -0.329 1.131 -1.645 -0.764 -2.915 -1.016 -6.72 -1.18a0.5 0.5 0 1 0 -0.043 1c3.568 0.153 4.756 0.382 6.12 0.986 -1.418 1.367 -4.299 2.389 -8.071 1.976 0 0 -1.618 2.664 -4.789 2.664 -3.963 0 -7.21 -3.682 -7.21 -7.016 0 -5.045 3.121 -9.127 7.084 -9.127 2.169 0 3.967 0.813 4.886 2.163 -0.247 0.18 -0.536 0.505 -0.764 0.917a3.327 3.327 0 0 0 -0.427 1.608c0 1.27 0.84 1.985 1.399 2.243a4.32 4.32 0 0 1 -0.276 0.765c-0.687 1.437 -2.14 2.05 -4.559 2.05a0.5 0.5 0 0 0 0 1c2.546 0 4.52 -0.65 5.461 -2.619Zm3.162 -2.724c-0.642 -0.725 -2.256 -2.119 -3.528 -2.326 -0.105 0.106 -0.238 0.27 -0.358 0.488 -0.171 0.31 -0.3 0.695 -0.3 1.123 0 0.704 0.425 1.114 0.714 1.283l0 -0.001c0.886 -0.408 2.075 -0.769 3.472 -0.567Zm-7.965 -0.142a1 1 0 1 1 0 -2 1 1 0 0 1 0 2Z" clip-rule="evenodd" stroke-width="1"></path>
</svg>