<svg xmlns="http://www.w3.org/2000/svg" viewBox="0 0 24 24" id="Adobe-After-Effects-Logo--Streamline-Ultimate">
  <desc>
    Adobe After Effects Logo Streamline Icon: https://streamlinehq.com
  </desc>
  <g id="Adobe-After-Effects-Logo--Streamline-Ultimate.svg">
    <path d="M8.77 11.5 7.75 7.92 6.73 11.5l2.04 0z" fill="#000000" stroke-width="1"></path>
    <path d="M17.5 8.9c-0.92 0 -1.33 0.89 -1.51 1.65h3c-0.16 -0.76 -0.57 -1.65 -1.49 -1.65Z" fill="#000000" stroke-width="1"></path>
    <path d="M22.5 0h-21A1.5 1.5 0 0 0 0 1.5v21A1.5 1.5 0 0 0 1.5 24h21a1.5 1.5 0 0 0 1.5 -1.5v-21A1.5 1.5 0 0 0 22.5 0Zm-5.57 14.32a2.2 2.2 0 0 0 2.2 -0.31 1.1 1.1 0 0 1 1.14 1.89 5.22 5.22 0 0 1 -2.63 0.8 3.63 3.63 0 0 1 -1.8 -0.46c-1.39 -0.79 -2.19 -2.46 -2.19 -4.59 0 -1.71 0.81 -4.95 3.85 -4.95s3.85 3.24 3.85 5a1.1 1.1 0 0 1 -1.1 1.1H16a2.25 2.25 0 0 0 0.93 1.52Zm-4.15 2.11a0.24 0.24 0 0 1 0 0.22 0.26 0.26 0 0 1 -0.2 0.1h-2.12a0.25 0.25 0 0 1 -0.24 -0.18L9.49 14H6l-0.73 2.57a0.25 0.25 0 0 1 -0.24 0.18H3a0.26 0.26 0 0 1 -0.2 -0.1 0.24 0.24 0 0 1 0 -0.22L6 4.93a0.26 0.26 0 0 1 0.25 -0.18h3a0.26 0.26 0 0 1 0.25 0.18Z" fill="#000000" stroke-width="1"></path>
  </g>
</svg>