<svg xmlns="http://www.w3.org/2000/svg" viewBox="0 0 24 24" id="Blackberry-Logo--Streamline-Ultimate">
  <desc>
    Blackberry Logo Streamline Icon: https://streamlinehq.com
  </desc>
  <g id="Blackberry-Logo--Streamline-Ultimate.svg">
    <path d="M5.1255 3.7455H2.4428c-0.2452 -0.0001 -0.4565 0.1725 -0.5056 0.4127l-0.65 3.0954c-0.0399 0.1494 -0.001 0.3088 0.1032 0.4231 0.0952 0.1257 0.2447 0.1985 0.4024 0.196h2.5795c2.5279 0 3.2399 -1.1969 3.2399 -2.3009 0 -0.7842 -0.4747 -1.8263 -2.4867 -1.8263Z" fill="#000000" stroke-width="1"></path>
    <path d="M13.38 3.7455h-2.6827c-0.2452 -0.0001 -0.4566 0.1725 -0.5056 0.4127l-0.65 3.0954c-0.0399 0.1494 -0.0011 0.3088 0.1031 0.4231 0.0953 0.1257 0.2447 0.1985 0.4024 0.196h2.5796c2.5279 0 3.2398 -1.1969 3.2398 -2.3009 0 -0.7842 -0.4746 -1.8263 -2.4866 -1.8263Z" fill="#000000" stroke-width="1"></path>
    <path d="M21.2733 6.8409h-2.6827c-0.2452 0 -0.4565 0.1725 -0.5056 0.4127l-0.6603 3.0955c-0.0653 0.3198 0.1791 0.6191 0.5056 0.6191h2.5898c2.5176 0 3.2399 -1.1969 3.2399 -2.301 0 -0.7842 -0.5159 -1.8263 -2.4867 -1.8263Z" fill="#000000" stroke-width="1"></path>
    <path d="M20.2415 13.0318h-2.6827c-0.2452 -0.0001 -0.4565 0.1725 -0.5056 0.4127l-0.6603 3.0954c-0.0653 0.3199 0.1791 0.6192 0.5056 0.6191h2.5898c2.5176 0 3.2399 -1.1969 3.2399 -2.3009 0 -0.7842 -0.5159 -1.8263 -2.4867 -1.8263Z" fill="#000000" stroke-width="1"></path>
    <path d="M4.0937 9.9363H1.411c-0.2452 0 -0.4565 0.1725 -0.5056 0.4128l-0.65 3.0954c-0.0399 0.1494 -0.001 0.3088 0.1032 0.423 0.0952 0.1257 0.2447 0.1985 0.4024 0.1961h2.5795c2.5279 0 3.2399 -1.1969 3.2399 -2.301 0 -0.7841 -0.4747 -1.8263 -2.4867 -1.8263Z" fill="#000000" stroke-width="1"></path>
    <path d="M12.3482 9.9363H9.6655c-0.2452 0 -0.4566 0.1725 -0.5056 0.4128l-0.6501 3.0954c-0.0398 0.1494 -0.001 0.3088 0.1032 0.423 0.0953 0.1257 0.2447 0.1985 0.4024 0.1961h2.5796c2.5279 0 3.2398 -1.1969 3.2398 -2.301 0 -0.7841 -0.4746 -1.8263 -2.4866 -1.8263Z" fill="#000000" stroke-width="1"></path>
    <path d="M11.3164 16.1272H8.6337c-0.2452 0 -0.4566 0.1725 -0.5056 0.4127l-0.6501 3.0955c-0.0399 0.1493 -0.001 0.3088 0.1032 0.423 0.0953 0.1257 0.2447 0.1985 0.4024 0.196h2.5795c2.528 0 3.2399 -1.1969 3.2399 -2.3009 0 -0.7842 -0.4746 -1.8263 -2.4866 -1.8263Z" fill="#000000" stroke-width="1"></path>
  </g>
</svg>