<svg xmlns="http://www.w3.org/2000/svg" viewBox="0 0 24 24" id="Instagram-Logo--Streamline-Ultimate">
  <desc>
    Instagram Logo Streamline Icon: https://streamlinehq.com
  </desc>
  <g id="Instagram-Logo--Streamline-Ultimate.svg">
    <path d="M18.5 0h-13A5.51 5.51 0 0 0 0 5.5v13A5.51 5.51 0 0 0 5.5 24h13a5.51 5.51 0 0 0 5.5 -5.5v-13A5.51 5.51 0 0 0 18.5 0ZM20 16a4 4 0 0 1 -4 4H8a4 4 0 0 1 -4 -4V8a4 4 0 0 1 4 -4h8a4 4 0 0 1 4 4Z" fill="#000000" stroke-width="1"></path>
    <path d="M8 12a4 4 0 1 0 8 0 4 4 0 1 0 -8 0" fill="#000000" stroke-width="1"></path>
    <path d="M16 7a1 1 0 1 0 2 0 1 1 0 1 0 -2 0" fill="#000000" stroke-width="1"></path>
  </g>
</svg>