<svg xmlns="http://www.w3.org/2000/svg" viewBox="0 0 24 24" id="Vlc-Logo--Streamline-Ultimate">
  <desc>
    Vlc Logo Streamline Icon: https://streamlinehq.com
  </desc>
  <path d="m23.0609 21.5381 -2.086 -5.8991c-0.2362 -0.655 -0.8562 -1.0929 -1.5525 -1.0964h-1.1255l-0.6597 -2.0667 -1.4554 -4.599 -1.2128 -3.8034 -0.6986 -2.183c-0.5669 -1.7478 -2.8132 -2.2265 -4.0433 -0.8617 -0.2245 0.2491 -0.394 0.5427 -0.4975 0.8617l-0.6986 2.183 -1.2128 3.8034 -1.4554 4.599 -0.6597 2.0667H4.5776c-0.6963 0.0035 -1.3163 0.4414 -1.5525 1.0964l-2.086 5.8991c-0.1761 0.5127 -0.0968 1.0787 0.2135 1.5233 0.3133 0.4386 0.8193 0.6988 1.3583 0.6986h18.9782c0.539 0.0002 1.045 -0.26 1.3584 -0.6986 0.3102 -0.4446 0.3895 -1.0106 0.2134 -1.5233ZM10.1856 5.2669c0.5845 0.1979 1.1973 0.2995 1.8144 0.3008 0.6171 -0.0013 1.2299 -0.1029 1.8144 -0.3008l0.7956 2.4936c-1.6156 0.9305 -3.6044 0.9305 -5.22 0ZM12 14.7851c1.5679 0.0156 3.1173 -0.3401 4.5214 -1.0381l0.4754 1.5039 0.4269 1.3389c0.0577 0.1737 0.0126 0.3651 -0.1164 0.4949 -0.7762 0.7762 -2.1637 1.8046 -5.317 1.8046s-4.5408 -1.0284 -5.317 -1.8046c-0.129 -0.1298 -0.1741 -0.3212 -0.1164 -0.4949l0.4269 -1.3389 0.4754 -1.5039c1.4099 0.701 2.9663 1.0568 4.5408 1.0381Z" fill="#000000" stroke-width="1"></path>
</svg>