<svg xmlns="http://www.w3.org/2000/svg" viewBox="0 0 24 24" id="Wordpress-Logo-1--Streamline-Ultimate">
  <desc>
    Wordpress Logo 1 Streamline Icon: https://streamlinehq.com
  </desc>
  <path d="M12 0a12 12 0 1 0 12 12A12 12 0 0 0 12 0Zm6.54 8.71L18 10.28 17.18 13l-0.84 2.68s-0.05 0.2 -0.11 0.4c-0.65 2.4 -0.73 2.71 -1.4 2.71a0.75 0.75 0 0 1 -0.72 -0.55L12 10.56 9.84 18.2a0.75 0.75 0 0 1 -1.44 0L5.69 8.53H5A0.75 0.75 0 1 1 5 7h2.89a0.75 0.75 0 0 1 0 1.5h-0.64l1.87 6.68L11 8.53h-0.65a0.75 0.75 0 0 1 0 -1.5h2.85a0.75 0.75 0 1 1 0 1.5H13l1.9 6.81 0 -0.14 0.84 -2.69 1.28 -4 0.1 -0.28a2 2 0 0 0 0.16 -0.62 0.47 0.47 0 0 0 0 -0.14 0.49 0.49 0 0 0 -0.64 -0.11 0.75 0.75 0 1 1 -0.83 -1.25 2 2 0 0 1 2.75 0.59 1.67 1.67 0 0 1 0.25 0.79 2.88 2.88 0 0 1 -0.27 1.22Z" fill="#000000" stroke-width="1"></path>
</svg>