<svg xmlns="http://www.w3.org/2000/svg" fill="none" viewBox="0 0 40 40" id="Bluetooth--Streamline-Stickies">
  <desc>
    Bluetooth Streamline Icon: https://streamlinehq.com
  </desc>
  <path fill="#00034a" stroke="#00034a" stroke-miterlimit="10" d="M30.0767 24.4186c-1.4156 -1.3357 -2.8549 -2.6459 -4.3175 -3.9299 3.6698 -3.2145 7.3593 -6.5732 7.9774 -7.6575 0.6198 -0.7826 0.6957 -1.8653 0.1914 -2.7268 -0.3729 -0.6398 -1.151 -1.307 -1.7358 -1.7437C30.4858 7.092 20.7059 0.890602 18.9515 0.890602c-1.1932 0 -2.6337 0.448398 -2.8623 2.098898 -0.3336 1.0205 -0.5053 4.6363 -0.5819 8.7575 -1.7029 -1.5051 -3.5462 -2.8434 -5.5047 -3.9966 -1.30699 -0.7634 -2.54719 0.0569 -3.32929 0.9538 -0.783 0.8968 -1.4031 2.2705 -0.4484 3.4441 0.3631 0.6358 1.776 2.0527 3.6276 3.763 1.29839 1.2273 2.62009 2.4299 3.96419 3.607 -3.5344 3.0997 -6.96479 6.2563 -7.59179 7.2925 -0.9547 1.1834 -0.3238 2.5384 0.4484 3.4441 1.0205 1.1971 2.774 2.9692 4.42539 1.9811 1.5625 -0.9129 3.0511 -1.947 4.4518 -3.0928 0.0913 3.2851 0.2581 5.9757 0.5387 6.8264 0.1904 1.0627 1.2226 1.9595 2.0459 2.5973 0.5004 0.3876 1.1274 0.576 1.7584 0.5279 1.5935 0.3631 11.706 -6.1719 13.3938 -7.4505 1.0906 -0.8136 1.2939 -2.3674 0.4494 -3.4343 -0.3641 -0.6387 -1.7957 -2.0674 -3.66 -3.7914Z" stroke-width="1"></path>
  <path fill="#9bff00" stroke="#00034a" stroke-miterlimit="10" d="M24.6279 19.4948c3.6816 -3.2253 7.3936 -6.6027 8.0127 -7.6899 0.8465 -1.0695 0.6443 -2.6266 -0.4474 -3.4442C30.4858 7.092 20.7059 0.890602 18.9515 0.890602c-1.1932 0 -2.6337 0.448398 -2.8623 2.098898 -0.3336 1.0205 -0.5053 4.6363 -0.5819 8.7575 -1.7029 -1.5051 -3.5462 -2.8434 -5.5047 -3.9966 -1.30699 -0.7634 -2.54719 0.0569 -3.32929 0.9538 -0.783 0.8968 -1.4031 2.2705 -0.4484 3.4441 0.6005 1.0499 4.05439 4.2261 7.63199 7.3357 -3.5491 3.1105 -7.00299 6.2867 -7.63199 7.3268 -0.9547 1.1834 -0.3238 2.5385 0.4484 3.4441 0.7723 0.9067 2.0214 1.7368 3.32929 0.9538 1.9614 -1.1453 3.8052 -2.481 5.5047 -3.9877 0.0766 4.1211 0.2473 7.737 0.5819 8.7486 0.2309 1.2911 1.4014 2.1979 2.7092 2.0989 1.5935 0.363 11.7061 -6.172 13.3938 -7.4505 1.0909 -0.8137 1.2938 -2.3678 0.4484 -3.4343 -0.6201 -1.0882 -4.3311 -4.4646 -8.0137 -7.6899l0.001 0.001Zm-2.2235 -8.8449 1.0499 0.6585 -1.0204 0.8301c-0.0069 -0.5024 -0.0167 -0.9989 -0.0295 -1.4886Zm0 16.2188 1.0401 0.839 -1.0685 0.6672 0.0284 -1.5062Z" stroke-width="1"></path>
</svg>