<svg xmlns="http://www.w3.org/2000/svg" fill="none" viewBox="0 0 24 24" id="Answer-Machine-Voice-Mail--Streamline-Freehand">
  <desc>
    Answer Machine Voice Mail Streamline Icon: https://streamlinehq.com
  </desc>
  <path fill="#020202" fill-rule="evenodd" d="M23.9651 11.0194c-0.0613 -0.6608 -0.2599 -1.30149 -0.5832 -1.88103 -0.3233 -0.57954 -0.7642 -1.08513 -1.2943 -1.48436 -0.6024 -0.39379 -1.2844 -0.64955 -1.9972 -0.74897 -0.6622 -0.09686 -1.335 -0.09686 -1.9973 0 -1.1077 0.17707 -2.1446 0.65753 -2.9959 1.38809 -0.8677 0.71243 -1.4752 1.69214 -1.7276 2.78617 -0.1782 0.9361 -0.0849 1.9037 0.269 2.7884 0.3539 0.8848 0.9536 1.6498 1.7283 2.2048 -0.3861 -0.0663 -0.7767 -0.103 -1.1684 -0.1099 -1.1684 0 -2.3268 0 -3.4952 0.0499 -0.71904 0 -1.43805 0.0999 -2.14708 0.1498 0.52092 -0.4046 0.96993 -0.8941 1.32818 -1.448 0.6779 -1.105 0.953 -2.4103 0.7789 -3.6949 -0.0596 -0.6673 -0.2606 -1.31423 -0.5894 -1.8979 -0.32888 -0.58367 -0.77813 -1.09071 -1.31795 -1.48746 -0.60242 -0.39379 -1.28445 -0.64955 -1.99726 -0.74897 -0.66223 -0.09686 -1.33503 -0.09686 -1.99726 0 -1.10707 0.17906 -2.14352 0.65929 -2.99588 1.38809 -0.858302 0.7206 -1.449227 1.709 -1.6776994 2.80614 -0.1425173 0.7497 -0.111305 1.5221 0.0912394 2.2578 0.202544 0.7357 0.571031 1.4153 1.07716 1.9864 0.40328 0.4795 0.90179 0.87 1.46392 1.1468 0.56213 0.2768 1.17562 0.4337 1.80159 0.461 0.03683 0.0446 0.08507 0.0784 0.1396 0.0977 0.05452 0.0194 0.11327 0.0235 0.16998 0.0121h0.36949c0.22969 0 0.45937 0 0.69904 0.0599h4.80343c1.1684 0 2.3268 -0.0898 3.4852 -0.1298 1.1584 -0.0399 2.2269 0.1498 3.3354 0.1997 0.5097 0.0333 1.0215 0.0166 1.5279 -0.0499 0.0803 -0.0119 0.1542 -0.0506 0.2097 -0.1098h0.5593c0.6992 -0.1148 1.3585 -0.4032 1.9173 -0.8389 0.5517 -0.4189 1.0279 -0.9289 1.4081 -1.5079 0.6716 -1.0898 0.9598 -2.3727 0.8189 -3.645ZM1.85542 14.8242c-0.39202 -0.4905 -0.66835 -1.0631 -0.8084 -1.6752 -0.14005 -0.6121 -0.140216 -1.2478 -0.00049 -1.86 0.24628 -0.8572 0.76511 -1.61095 1.47798 -2.14703 0.68825 -0.5806 1.51914 -0.96674 2.40669 -1.11847 0.56307 -0.0799 1.1346 -0.0799 1.69767 0 0.53801 0.07181 1.05319 0.26288 1.50793 0.55924 0.41409 0.29956 0.76055 0.68286 1.01689 1.12501 0.25634 0.44215 0.41684 0.93325 0.47107 1.44145 0.18497 1.0577 0.00168 2.1469 -0.51929 3.0858 -0.29239 0.5046 -0.67093 0.9541 -1.11846 1.3282 -0.44199 0.3742 -0.97073 0.6317 -1.53789 0.7489h-0.99863c-0.02852 -0.0246 -0.06205 -0.0427 -0.09826 -0.053 -0.03621 -0.0104 -0.07424 -0.0127 -0.11145 -0.0069 -0.63936 0.072 -1.28648 -0.0216 -1.87928 -0.2716 -0.59281 -0.2501 -1.11142 -0.6483 -1.50608 -1.1564Zm20.54178 -0.5992c-0.304 0.508 -0.6924 0.9606 -1.1484 1.3382 -0.4431 0.3724 -0.9714 0.6297 -1.5379 0.7489h-0.9986c-0.0282 -0.0252 -0.0617 -0.0437 -0.098 -0.054 -0.0363 -0.0104 -0.0745 -0.0124 -0.1117 -0.0059 -0.6365 0.0604 -1.2779 -0.0428 -1.8633 -0.2997 -0.5855 -0.2569 -1.0956 -0.659 -1.4821 -1.1683 -0.3929 -0.4899 -0.6691 -1.0628 -0.8075 -1.6753 -0.1384 -0.6126 -0.1355 -1.2486 0.0086 -1.8598 0.2361 -0.8594 0.7528 -1.6152 1.4679 -2.14708 0.688 -0.56142 1.5108 -0.93322 2.3868 -1.07852 0.563 -0.0799 1.1346 -0.0799 1.6976 0 0.7837 0.09456 1.5104 0.45763 2.0566 1.02748 0.5461 0.56984 0.8781 1.31132 0.9393 2.09822 0.1809 1.0534 0.0014 2.1369 -0.5093 3.0758Z" clip-rule="evenodd" stroke-width="1"></path>
</svg>