<svg xmlns="http://www.w3.org/2000/svg" fill="none" viewBox="0 0 24 24" id="Broken-Smartphone-1--Streamline-Freehand">
  <desc>
    Broken Smartphone 1 Streamline Icon: https://streamlinehq.com
  </desc>
  <path fill="#020202" fill-rule="evenodd" d="M19.9001 5.24733c0.0239 -1.04171 -0.0835 -2.08228 -0.3197 -3.09714 -0.096 -0.52714 -0.3464 -1.01392 -0.7193 -1.398704C18.3918 0.4085 17.8405 0.194889 17.2626 0.132058c-1.1478 -0.12402765 -2.3034 -0.160766 -3.4568 -0.1098984H9.87941C8.99661 0.0105018 8.11527 0.0976301 7.25184 0.281919c-0.64174 0.115692 -1.24542 0.386662 -1.75838 0.789271 -0.32283 0.29206 -0.5493 0.67531 -0.6494 1.09898 -0.10765 0.51944 -0.16453 1.0481 -0.16984 1.57855 -0.05994 0.8592 -0.17983 2.20795 -0.23978 4.05625v4.06623c-0.0263 0.0456 -0.04015 0.0973 -0.04015 0.1499 0 0.0526 0.01385 0.1043 0.04015 0.1498 0.02706 0.0284 0.05961 0.0511 0.09568 0.0665 0.03606 0.0155 0.07489 0.0234 0.11413 0.0234s0.07806 -0.0079 0.11413 -0.0234c0.03606 -0.0154 0.06861 -0.0381 0.09567 -0.0665 0.17204 -1.4423 0.25878 -2.89344 0.25976 -4.34595 0.12988 -1.82831 0.31971 -3.16707 0.41962 -3.99631 0.01988 -0.46843 0.08682 -0.93368 0.19981 -1.38871 0.05138 -0.23087 0.17788 -0.43817 0.35967 -0.58946 0.26953 -0.18867 0.57599 -0.31806 0.89917 -0.37965 0.00615 0.01608 0.00615 0.03387 0 0.04995 0.04995 0.27975 0.16984 0.59945 0.19981 0.81925 0.09347 0.36995 0.2275 0.72846 0.39963 1.06901 0.14667 0.35183 0.33091 0.6868 0.5495 0.99908 0.07925 0.09596 0.18823 0.16275 0.30971 0.18982 0.28787 0.06916 0.58314 0.10272 0.87919 0.09991 0.99908 0 2.58758 -0.06994 3.42688 -0.11989 0.2895 -0.01494 0.5796 -0.01494 0.8691 0 0.2828 -0.02008 0.5665 -0.02008 0.8493 0 0.3608 0.05234 0.7245 0.08237 1.089 0.08992 0.3119 -0.00937 0.6156 -0.10254 0.8791 -0.26975 0.3293 -0.21768 0.6003 -0.51267 0.7893 -0.85921 0.289 -0.68134 0.5391 -1.37847 0.7493 -2.08807l0.1799 0.09991c0.2842 0.36084 0.464 0.79283 0.5195 1.24884 0.1775 0.8079 0.2779 1.63084 0.2997 2.45773 0 0.3297 0.2198 7.44308 0.2098 6.99358h0.06c0.0554 0.0713 0.1363 0.1184 0.2256 0.1315 0.0894 0.013 0.1804 -0.0091 0.2539 -0.0616l0 -0.06c0.0362 -0.0331 0.0655 -0.0732 0.0861 -0.1178 0.0206 -0.0446 0.0321 -0.0928 0.0338 -0.1419l0.0499 -6.75377Zm-3.2469 -2.42776c-0.1463 0.30963 -0.3832 0.56747 -0.6794 0.73932 -0.1291 0.06766 -0.2742 0.09876 -0.4196 0.08992 -0.3358 -0.03449 -0.6693 -0.08786 -0.9991 -0.15985 -0.3308 -0.05105 -0.6645 -0.08108 -0.9991 -0.08992h-0.9991l-2.2679 0.16984c-0.57943 0 -1.11893 0.08992 -1.46861 0.08992h-0.19982c-0.11561 -0.20542 -0.2158 -0.41914 -0.29972 -0.63941 -0.16952 -0.2624 -0.30704 -0.54415 -0.40962 -0.83922 -0.05995 -0.22979 -0.20981 -0.53951 -0.28973 -0.81925v-0.02997c0.74028 -0.11309 1.48953 -0.15658 2.23793 -0.12988h3.99627c0.7593 0 1.8583 -0.07993 2.8374 0 0.2314 0.0101 0.4618 0.03681 0.6894 0.07993 -0.2498 0.43959 -0.3997 1.02905 -0.7293 1.53857Z" clip-rule="evenodd" stroke-width="1"></path>
  <path fill="#0c6fff" fill-rule="evenodd" d="M18.3916 10.7023c-0.1154 -0.083 -0.2255 -0.1731 -0.3297 -0.2698 -0.2986 -0.2982 -0.6344 -0.55678 -0.9991 -0.76925 -0.1036 -0.04691 -0.216 -0.07117 -0.3297 -0.07117s-0.2261 0.02426 -0.3297 0.07117c-0.3097 0.16984 -0.5295 0.25976 -0.7493 0.39965 -0.1798 0.1156 -0.3472 0.2496 -0.4995 0.3996 -0.1735 0.1867 -0.3605 0.3603 -0.5595 0.5195 -0.1573 -0.2416 -0.2879 -0.4995 -0.3896 -0.7693 -0.3062 -0.78382 -0.7162 -1.52306 -1.2189 -2.19793 -0.2851 -0.37948 -0.6959 -0.6451 -1.159 -0.74931 -0.2513 -0.04031 -0.5086 0.01686 -0.7193 0.15986 -0.2641 0.19605 -0.4995 0.42808 -0.6993 0.68936 -0.1002 0.1295 -0.1904 0.26643 -0.2698 0.40962 -0.32969 0.48955 -0.73931 1.41869 -1.14893 2.0481 -0.12988 0.2098 -0.27974 0.5795 -0.35967 0.4596 -0.17446 -0.0667 -0.32676 -0.1809 -0.43959 -0.3297 -0.31971 -0.3597 -0.55948 -0.78928 -0.62942 -0.84923 -0.12466 -0.13589 -0.28151 -0.23824 -0.4561 -0.2976 -0.17459 -0.05936 -0.36132 -0.07383 -0.54298 -0.04208 -0.24131 0.07948 -0.45347 0.22904 -0.60943 0.4296 0 0.05991 -0.47956 0.44961 -0.51952 0.50951 -0.66938 1.059 -0.35967 1.6085 0.28973 0.9192 0.36966 -0.3397 0.61943 -0.8492 0.93913 -1.069 0.1099 -0.08 0.20981 0 0.37965 0.1598 0.22715 0.4224 0.50568 0.815 0.82923 1.1689 0.22233 0.214 0.51173 0.3446 0.81925 0.3697 0.20093 -0.0182 0.39516 -0.0815 0.56817 -0.1854 0.173 -0.1038 0.32031 -0.2453 0.4309 -0.4141 0.58948 -0.7293 1.22888 -2.19793 1.53858 -2.52762 0.3097 -0.3297 0.2797 -0.93913 0.9991 0.1099 0.3505 0.52374 0.6515 1.07892 0.8991 1.65842 0.1278 0.341 0.2745 0.6746 0.4396 0.9991 0.055 0.1032 0.1317 0.1933 0.2249 0.264 0.0931 0.0707 0.2005 0.1204 0.3146 0.1456 0.2558 0.0164 0.5105 -0.0464 0.7294 -0.1798 0.3355 -0.2039 0.6443 -0.4489 0.9191 -0.7293 0.0968 -0.1135 0.2076 -0.2142 0.3297 -0.2997 0.8992 -0.6395 0.6294 -0.4197 1.4387 0.2297l0.8392 0.6095c1.079 0.5994 1.1889 -0.4196 0.03 -0.9791Z" clip-rule="evenodd" stroke-width="1"></path>
  <path fill="#0c6fff" fill-rule="evenodd" d="m5.48352 15.8875 0.10989 -0.1299c0.18983 -0.1998 0.38964 -0.3796 0.59945 -0.5794l0.48955 -0.4496c0.21998 -0.0046 0.43611 0.0581 0.61943 0.1798 0.38726 0.2095 0.76099 0.443 1.11896 0.6994 0.18105 0.1453 0.37126 0.2788 0.56947 0.3996 0.16342 0.0573 0.33672 0.0811 0.50953 0.0699 0.47816 -0.1922 0.874 -0.5456 1.119 -0.999 0.3896 -0.5395 0.7792 -1.2689 1.059 -1.6885l0.2598 0.2898c0.5794 0.6993 1.1889 1.7683 1.5785 2.078 0.2416 0.2179 0.5063 0.4089 0.7893 0.5695 0.1623 0.0744 0.3432 0.0987 0.5195 0.0699 0.2406 -0.064 0.4698 -0.1651 0.6794 -0.2997 0.4196 -0.2597 0.8092 -0.6294 1.1789 -0.8992 0.1898 -0.1398 0.3397 -0.2897 0.4995 -0.2297l1.1889 0.3297c0.9991 0.1898 0.8892 -0.4396 0 -0.7893l-0.8992 -0.2798c-0.1456 -0.0541 -0.301 -0.0767 -0.456 -0.0664 -0.155 0.0103 -0.306 0.0534 -0.4431 0.1264 -2.3079 0.9991 -1.8583 1.2388 -2.3878 0.6694 -0.2246 -0.2472 -0.416 -0.5226 -0.5695 -0.8193 -0.3126 -0.5262 -0.6702 -1.0243 -1.069 -1.4886 -0.1238 -0.1485 -0.2759 -0.2709 -0.4474 -0.3601 -0.1715 -0.0891 -0.359 -0.1433 -0.5517 -0.1594 -0.1473 0.0235 -0.2874 0.0796 -0.4102 0.1643 -0.1227 0.0847 -0.2249 0.1959 -0.2991 0.3252 -1.84833 2.6975 -1.08903 2.5677 -1.93824 2.1181 -0.46996 -0.2807 -0.96098 -0.5246 -1.46864 -0.7294 -0.281 -0.1032 -0.58419 -0.1307 -0.87919 -0.0799 -0.16073 0.0323 -0.3094 0.1084 -0.42961 0.2198 -0.15591 0.158 -0.30268 0.3248 -0.43959 0.4996 -0.16984 0.1698 -0.3197 0.3396 -0.45957 0.5095 -0.77928 0.8492 -0.4396 0.8492 0.25976 0.7293Z" clip-rule="evenodd" stroke-width="1"></path>
  <path fill="#020202" fill-rule="evenodd" d="M19.7203 15.2081c0 -0.9991 -0.5495 -1.5486 -0.6094 -0.4296 0 0.0999 0 1.7384 -0.1599 4.1162 -0.0599 0.8192 -0.1499 1.6285 -0.2797 2.4178 -0.0245 0.2373 -0.1052 0.4654 -0.2355 0.6652 -0.1304 0.1998 -0.3065 0.3657 -0.5138 0.4837 -0.7694 0.3239 -1.6064 0.4543 -2.4378 0.3797H9.48975c-0.57947 0 -1.6285 0.0599 -2.53766 0 -0.46421 0.0259 -0.9268 -0.0742 -1.33876 -0.2898 -0.40555 -0.665 -0.61988 -1.429 -0.61943 -2.2079 -0.29972 -2.5677 0.07993 -5.1053 -0.44958 -4.9954 -0.17984 0 -0.37965 0.8392 -0.38964 0.9991 -0.0985 1.5615 -0.07177 3.1284 0.07992 4.6856 0.02081 0.7964 0.28588 1.5672 0.7593 2.208 0.42127 0.3247 0.92828 0.5192 1.45865 0.5595 0.99591 0.1006 1.99627 0.1506 2.99723 0.1498 0.85922 0 1.85832 0.05 2.99722 0.05 0.8992 0 1.8983 0 2.9972 -0.05 1.0167 0.0429 2.0275 -0.1737 2.9373 -0.6294 0.3247 -0.2009 0.5972 -0.4758 0.7951 -0.8023 0.198 -0.3265 0.3158 -0.6952 0.3439 -1.076 0.0899 -0.8292 0.1299 -1.6684 0.1498 -2.5076 0.09 -1.2589 0.07 -2.5177 0.05 -3.7266Z" clip-rule="evenodd" stroke-width="1"></path>
</svg>