<svg xmlns="http://www.w3.org/2000/svg" fill="none" viewBox="0 0 24 24" id="Cellular-Network-Wifi-4g--Streamline-Freehand">
  <desc>
    Cellular Network Wifi 4g Streamline Icon: https://streamlinehq.com
  </desc>
  <path fill="#020202" fill-rule="evenodd" d="M9.21014 17.518c-0.05979 -1.0962 -0.15939 -2.1724 -0.17928 -3.2286 -0.00143 -0.2301 -0.25133 -0.3725 -0.45 -0.2562 -0.09102 0.0532 -0.14725 0.1507 -0.14796 0.2562 -0.13949 1.0562 -0.26898 2.1523 -0.31878 3.2683v2.1524l-2.8599 -0.2392c-0.99643 -0.0896 -0.87683 0 -0.82704 -0.5778 0 -0.2193 0 -0.4086 0.07969 -0.588 0.0798 -0.4883 0.18939 -0.8669 0.29898 -1.4847l0.43847 -2.6107c0.03133 -0.1615 -0.06949 -0.3193 -0.22918 -0.3587 -0.16255 -0.037 -0.32398 0.0661 -0.35878 0.2292l-0.77724 2.521c-0.15939 0.5181 -0.30888 0.857 -0.41847 1.2455 -0.07959 0.3109 -0.13622 0.6274 -0.16939 0.9467 -0.04143 0.2406 -0.06806 0.4835 -0.07969 0.7274 -0.00265 0.1393 0.03173 0.2768 0.09959 0.3986 0.15663 0.2545 0.40725 0.4371 0.69755 0.5081 0.41265 0.0857 0.83592 0.1091 1.25551 0.0698l2.9097 -0.0798c0.07969 1.0863 0.20918 2.1425 0.31877 3.1489 -0.0003 0.1896 0.15949 0.3403 0.34878 0.3288 0.18877 -0.0107 0.33459 -0.1698 0.32888 -0.3587 0 -0.9965 0.05979 -2.1224 0.06969 -3.2484V18.903c0 -0.4683 0 -0.9666 -0.0299 -1.385Z" clip-rule="evenodd" stroke-width="1"></path>
  <path fill="#020202" fill-rule="evenodd" d="M19.7625 19.1222c-0.2135 -0.1253 -0.4513 -0.2034 -0.6975 -0.2291 -0.7861 -0.0592 -1.5756 -0.0592 -2.3616 0 -0.1874 0.0158 -0.3262 0.1813 -0.3089 0.3686 0.0044 0.1889 0.1713 0.3326 0.3587 0.3089 0.8042 -0.0262 1.609 0.0305 2.4015 0.1694 0.0568 0.4745 -0.012 0.9555 -0.1993 1.395 -0.1763 0.4883 -0.4915 0.9143 -0.9068 1.2257 -0.7456 0.4361 -1.6307 0.5682 -2.4712 0.3687 -0.8417 -0.1242 -1.5782 -0.6323 -1.9929 -1.3751 -0.4222 -0.8986 -0.4654 -1.9292 -0.1195 -2.8599 0.3 -0.9927 0.9113 -1.8626 1.7437 -2.4811 0.4841 -0.328 1.0424 -0.53 1.6242 -0.5879 0.5499 -0.0984 1.1152 0.0511 1.5445 0.4085 0.1174 0.1206 0.3111 0.1206 0.4285 0 0.114 -0.1162 0.114 -0.3023 0 -0.4185 -0.4241 -0.4329 -0.9986 -0.6862 -1.6043 -0.7074 -0.8595 -0.0405 -1.7129 0.1632 -2.4612 0.5878 -1.0423 0.6786 -1.8387 1.6742 -2.272 2.8399 -0.4746 1.2305 -0.4131 2.6034 0.1695 3.7866 0.5531 1.059 1.5714 1.797 2.7502 1.9928 1.1258 0.2273 2.2957 -0.0061 3.2484 -0.6476 0.564 -0.4508 0.9832 -1.0571 1.2057 -1.7438 0.2548 -0.6861 0.2931 -1.4339 0.1096 -2.1424 -0.0363 -0.103 -0.1021 -0.1931 -0.1893 -0.2591Z" clip-rule="evenodd" stroke-width="1"></path>
  <path fill="#0c6fff" fill-rule="evenodd" d="M13.6045 10.0545c0.945 0.2199 1.7628 0.8083 2.2719 1.6342 0.0881 0.1651 0.2933 0.2275 0.4584 0.1395 0.1699 -0.084 0.2338 -0.2939 0.1395 -0.4584 -0.4863 -1.106 -1.4159 -1.95603 -2.5609 -2.34164 -0.972 -0.31255 -2.0174 -0.31255 -2.9894 0 -1.11688 0.36439 -2.0831 1.08564 -2.75024 2.05264 -0.12051 0.1174 -0.12051 0.3111 0 0.4285 0.11969 0.1152 0.30887 0.1152 0.42847 0 0.69806 -0.7027 1.58957 -1.1814 2.56087 -1.3751 0.4055 -0.0965 0.8192 -0.15328 1.2357 -0.16941 0.404 -0.0204 0.809 0.0098 1.2057 0.08971Z" clip-rule="evenodd" stroke-width="1"></path>
  <path fill="#0c6fff" fill-rule="evenodd" d="M4.37737 8.96838c1.3249 -1.52837 3.08919 -2.61062 5.05204 -3.09898 0.83349 -0.21551 1.68999 -0.32929 2.55089 -0.33878 0.8453 -0.01133 1.6888 0.08245 2.5111 0.27898 1.9536 0.49367 3.6841 1.63102 4.9125 3.22857 0.1087 0.15612 0.3247 0.19215 0.4783 0.0797 0.1478 -0.1149 0.1786 -0.32602 0.0697 -0.47837 -2.3429 -3.56123 -6.7736 -5.12245 -10.83147 -3.81633C7.01696 5.49409 5.18809 6.82991 3.909 8.6296c-0.09122 0.14255 -0.04602 0.33235 0.0997 0.41847 0.12561 0.06837 0.28245 0.03449 0.36867 -0.07969Z" clip-rule="evenodd" stroke-width="1"></path>
  <path fill="#0c6fff" fill-rule="evenodd" d="M22.8416 6.71643c-0.7274 -3.10898 -3.4178 -5.21153 -6.7261 -6.158162 -1.298 -0.361225 -2.6384 -0.54887809 -3.9858 -0.557959721C10.7838 -0.00836519 9.44296 0.166023 8.14388 0.518472 4.94531 1.41531 2.225 3.39817 1.16878 6.42745c-0.08439 0.2148 0.09541 0.44031 0.32357 0.40602 0.10592 -0.01592 0.19531 -0.08714 0.23439 -0.18683C2.82286 3.92633 5.42358 2.30215 8.38307 1.5847c1.22091 -0.29113 2.47163 -0.43827 3.72673 -0.43847 1.2562 0.00071 2.5078 0.15469 3.7267 0.45836 2.9894 0.75735 5.5602 2.50113 6.3475 5.28123 0.0652 0.25306 0.3799 0.34071 0.5665 0.15765 0.0867 -0.08489 0.1213 -0.20959 0.0911 -0.32704Z" clip-rule="evenodd" stroke-width="1"></path>
</svg>