<svg xmlns="http://www.w3.org/2000/svg" fill="none" viewBox="0 0 24 24" id="Connect-Device-Exchange--Streamline-Freehand">
  <desc>
    Connect Device Exchange Streamline Icon: https://streamlinehq.com
  </desc>
  <path fill="#020202" fill-rule="evenodd" d="m17.6314 9.37048 -0.05 0.46979 -0.1499 0.79963 -0.1799 1.3594c-0.0211 0.0875 -0.0066 0.1798 0.0402 0.2566 0.0468 0.0768 0.1222 0.1319 0.2097 0.1532 0.0873 0.0185 0.1783 0.0029 0.2545 -0.0435 0.0762 -0.0465 0.1317 -0.1203 0.1553 -0.2064l0.3898 -1.2994 0.2899 -0.7896 0.1399 -0.5198c0.0591 -0.19733 0.0772 -0.40465 0.0531 -0.60921 -0.0241 -0.20457 -0.0898 -0.40204 -0.193 -0.58027 -0.1623 -0.19894 -0.395 -0.32779 -0.6497 -0.35984 -0.3126 -0.02736 -0.627 -0.02736 -0.9396 0l-0.8796 0.07997 -1.3494 0.15993c-0.0789 -0.00017 -0.1548 0.02972 -0.2124 0.08357 -0.0575 0.05386 -0.0924 0.12763 -0.0975 0.2063 0.0021 0.07815 0.0328 0.15282 0.0862 0.20991 0.0534 0.05709 0.1258 0.09265 0.2037 0.09995l1.3894 0.11995 0.6597 0.06997 -3.6684 2.43887c-0.4598 0.3199 -0.9996 0.7097 -1.5893 1.1595 -0.9996 0.8197 -2.11906 1.7693 -2.99867 2.5089v-0.2799l0.20991 -2.089c0.01513 -0.078 -0.00029 -0.1589 -0.04307 -0.2259 -0.04279 -0.0669 -0.10968 -0.1149 -0.18683 -0.134 -0.07678 -0.0148 -0.15632 0.0009 -0.22168 0.0438 -0.06535 0.043 -0.11135 0.1098 -0.12817 0.1861 -0.16992 0.4998 -0.34984 0.9996 -0.49978 1.4294 -0.06996 0.2099 -0.12994 0.4298 -0.17992 0.6497 -0.10032 0.4037 -0.10032 0.8258 0 1.2295 0.14994 0.3698 0.47979 0.6797 1.28943 0.7496l2.44888 -0.0599c0.0489 0.0084 0.0989 0.0061 0.1468 -0.0068 0.0478 -0.0129 0.0922 -0.0362 0.1301 -0.0681 0.0379 -0.0319 0.0684 -0.0717 0.0893 -0.1166 0.0209 -0.0449 0.0318 -0.0938 0.0318 -0.1434 0 -0.0495 -0.0109 -0.0985 -0.0318 -0.1434 -0.0209 -0.0449 -0.0514 -0.0847 -0.0893 -0.1166s-0.0823 -0.0551 -0.1301 -0.0681c-0.0479 -0.0129 -0.0979 -0.0152 -0.1468 -0.0067l-2.22897 -0.3699c0.79964 -0.5098 1.74927 -1.1195 2.64887 -1.7392 0.8996 -0.6197 1.5193 -1.0895 2.119 -1.4894 0.2099 -0.1499 0.5298 -0.3798 0.8996 -0.6697 0.9196 -0.7196 2.1391 -1.72919 2.9387 -2.36891l0.02 0.03999Z" clip-rule="evenodd" stroke-width="1"></path>
  <path fill="#020202" fill-rule="evenodd" d="M12.3937 17.8168c-0.0036 -0.0391 -0.0152 -0.0771 -0.034 -0.1116 -0.0187 -0.0345 -0.0443 -0.0648 -0.0752 -0.0891 -0.0308 -0.0243 -0.0663 -0.0421 -0.1042 -0.0523s-0.0775 -0.0125 -0.1164 -0.0069c-0.0779 0.01 -0.1487 0.0501 -0.1973 0.1118 -0.0486 0.0617 -0.0711 0.14 -0.0626 0.218 0.06 0.5298 0.12 0.9196 0.1599 1.4294 0.04 0.5098 0.06 0.8196 0.06 1.4194 0.0087 0.1659 -0.0211 0.3316 -0.087 0.4842 -0.0659 0.1526 -0.1661 0.2879 -0.2928 0.3954 -0.5023 0.3093 -1.0711 0.4943 -1.65929 0.5397l-4.19814 0.5898c-0.40982 0 -1.1295 0.1799 -1.76922 0.2199 -0.28414 0.0571 -0.57865 0.0328 -0.84962 -0.07 -0.24109 -0.2475 -0.40441 -0.5603 -0.46979 -0.8996 -0.18251 -0.6536 -0.30299 -1.3229 -0.35984 -1.9991l-1.14949 -9.9956c-0.04493 -0.25748 -0.06833 -0.51827 -0.06997 -0.77965 -0.00726 -0.18487 0.04532 -0.36716 0.14993 -0.51977 0.17581 -0.1758 0.38708 -0.3121 0.61973 -0.39982l0.4498 1.07952c0.17706 0.28176 0.3886 0.54031 0.62972 0.76962 0.13869 0.1378 0.30586 0.2436 0.48978 0.3099 0.50081 0.068 1.00852 0.068 1.50933 0 0.70658 -0.0503 1.40638 -0.1709 2.08908 -0.3598 0.32985 -0.12998 0.78965 -0.27991 1.13949 -0.45983 0.2047 -0.08912 0.3937 -0.21062 0.55976 -0.35984 0.1679 -0.18477 0.28801 -0.40784 0.34984 -0.64972 0.10995 -0.38982 0.15993 -0.8896 0.21991 -1.21946v-0.41981c0.05978 -0.01292 0.12193 -0.00947 0.17992 0.01 0.34654 0.24608 0.60567 0.59621 0.73967 0.99955 0.2521 0.64203 0.4201 1.31398 0.4998 1.99911 0.0199 0.0804 0.0685 0.1508 0.1367 0.1978 0.0682 0.0471 0.1512 0.0677 0.2334 0.0579 0.0823 -0.0099 0.1581 -0.0494 0.2133 -0.1112 0.0551 -0.0618 0.0858 -0.1416 0.0863 -0.22446 -0.0649 -0.76869 -0.233 -1.52515 -0.4998 -2.249 -0.1837 -0.54337 -0.5333 -1.01537 -0.99956 -1.3494 -0.37748 -0.17537 -0.79563 -0.24448 -1.20946 -0.19992 -0.8158 0.04145 -1.62754 0.14167 -2.42893 0.29987l-2.73878 0.40982c-0.62509 0.07555 -1.24116 0.21283 -1.83919 0.40982 -0.45845 0.15211 -0.873378 0.41273 -1.209465 0.75966 -0.213523 0.25628 -0.348843 0.56856 -0.3898275 0.8996 -0.050707 0.39822 -0.050707 0.80126 0 1.19951L1.18871 20.0957c0.08812 0.8628 0.2794 1.7118 0.56974 2.5289 0.15119 0.4353 0.42552 0.8172 0.78965 1.0995 0.37124 0.2076 0.79531 0.3015 1.21946 0.2699 0.72127 -0.0657 1.4386 -0.1691 2.14905 -0.3098l4.20819 -0.7497c0.7208 -0.0829 1.4087 -0.3477 1.9991 -0.7697 0.2058 -0.1756 0.3666 -0.3979 0.4692 -0.6482 0.1026 -0.2504 0.1439 -0.5216 0.1205 -0.7911 0 -0.6298 -0.06 -1.0796 -0.0999 -1.4694 -0.04 -0.3898 -0.15 -0.9096 -0.22 -1.4393ZM3.66761 7.82117l2.76877 -0.48978c0.65976 -0.1517 1.32706 -0.26848 1.99912 -0.34985h0.27988l-0.06997 0.30987c-0.07997 0.25988 -0.15993 0.64971 -0.27988 0.99955 -0.03835 0.1396 -0.10656 0.2692 -0.19991 0.37984 -0.14574 0.08742 -0.30425 0.1515 -0.46979 0.18991 -0.30987 0.09996 -0.6797 0.18992 -0.99956 0.25989 -0.40582 0.09415 -0.81617 0.16754 -1.22946 0.2199l-1.1295 0.05997c-0.21396 0.04209 -0.43166 0.06219 -0.64971 0.05998 -0.11158 -0.04276 -0.21352 -0.10733 -0.29987 -0.18992 -0.1406 -0.09271 -0.26832 -0.20363 -0.37983 -0.32985l-0.50977 -0.93959c0.38409 -0.10335 0.77484 -0.18016 1.16948 -0.2299v0.04998Z" clip-rule="evenodd" stroke-width="1"></path>
  <path fill="#0c6fff" fill-rule="evenodd" d="M23.9386 3.00331c0.0043 -0.52122 -0.1605 -1.02979 -0.4698 -1.44936 -0.2753 -0.28575 -0.6195 -0.49574 -0.9996 -0.60973 -0.7209 -0.201548 -1.456 -0.348565 -2.199 -0.439805L17.8513 0.144574c-0.5522 -0.1133591 -1.116 -0.1603381 -1.6793 -0.13993831 -0.4301 0.00200585 -0.8529 0.11198831 -1.2294 0.31985831 -0.2533 0.158939 -0.4547 0.388174 -0.5798 0.659708 -0.1308 0.321528 -0.2247 0.656858 -0.2799 0.999558l-1.0795 6.37718c-0.0085 0.03872 -0.0093 0.07875 -0.0024 0.11779 0.0069 0.03904 0.0215 0.07633 0.0428 0.10974 0.0431 0.06749 0.1113 0.11508 0.1895 0.13231 0.0782 0.01723 0.1601 0.00269 0.2275 -0.04042 0.0335 -0.02135 0.0623 -0.04907 0.085 -0.08158 0.0227 -0.03251 0.0388 -0.06918 0.0473 -0.1079l1.3694 -6.3172c0.0379 -0.23292 0.1016 -0.46089 0.19 -0.6797 0.0518 -0.15262 0.154 -0.28305 0.2898 -0.36984 0.1758 -0.07985 0.3667 -0.12077 0.5598 -0.11995 -0.0711 0.38601 -0.1112 0.77708 -0.12 1.16949 0.0053 0.29023 0.0808 0.57487 0.2199 0.82963 0.1053 0.15317 0.2415 0.28256 0.3999 0.37983 0.2705 0.1627 0.559 0.29351 0.8596 0.38983 0.7215 0.23076 1.4652 0.38488 2.219 0.4598 0.5759 0.08182 1.163 0.02001 1.7092 -0.17992 0.3062 -0.23359 0.55 -0.53917 0.7097 -0.88961 0.1685 -0.34002 0.3057 -0.69466 0.4098 -1.05953 0.0727 0.03235 0.1375 0.0801 0.19 0.13994 0.1845 0.33855 0.2513 0.72884 0.1899 1.1095 -0.0451 0.74459 -0.1554 1.48377 -0.3299 2.20903 -0.1399 0.68969 -0.2599 1.3494 -0.3798 1.99911 -0.1599 0.99956 -0.2999 1.93915 -0.4798 2.99871 -0.1199 0.7396 -0.2399 1.5093 -0.3898 2.269 -0.11 0.4997 -0.2199 0.9995 -0.3599 1.4593 -0.0384 0.1614 -0.1233 0.3079 -0.2441 0.4216 -0.1208 0.1137 -0.2722 0.1895 -0.4356 0.2181 -0.4299 0.0749 -0.8695 0.0749 -1.2994 0 -0.4898 -0.0599 -1.1295 -0.1599 -1.8092 -0.2798 -0.6797 -0.12 -1.2194 -0.2199 -1.7792 -0.3599 -0.0427 -0.012 -0.0873 -0.0152 -0.1313 -0.0096 -0.0439 0.0057 -0.0863 0.0201 -0.1246 0.0425 -0.0382 0.0224 -0.0716 0.0523 -0.098 0.0878 -0.0265 0.0356 -0.0455 0.0761 -0.0559 0.1192 -0.012 0.0427 -0.0153 0.0873 -0.0096 0.1313 0.0056 0.044 0.0201 0.0863 0.0425 0.1246 0.0224 0.0382 0.0522 0.0716 0.0878 0.098 0.0356 0.0265 0.0761 0.0455 0.1192 0.0559 0.4498 0.13 0.9995 0.2499 1.4493 0.3599 0.8097 0.1699 1.6193 0.3098 2.1891 0.4098 0.6337 0.1551 1.2954 0.1551 1.9291 0 0.2402 -0.0936 0.4555 -0.2416 0.6289 -0.4324s0.3003 -0.4191 0.3707 -0.6671c0.1599 -0.4998 0.2998 -0.9996 0.4298 -1.5293 0.1799 -0.7697 0.3298 -1.5394 0.4798 -2.289l0.9995 -4.92786c0.2251 -0.93647 0.3425 -1.8956 0.3499 -2.85873Zm-2.5389 -0.43981c-0.134 0.25987 -0.3296 0.48295 -0.5698 0.64972 -0.0729 0.01012 -0.1469 0.01012 -0.2199 0 -0.3048 -0.00949 -0.6087 -0.03954 -0.9096 -0.08996 -0.6751 -0.07996 -1.3433 -0.21026 -1.9991 -0.38983 -0.1699 0 -0.3598 -0.07997 -0.5497 -0.13994 -0.1102 -0.0142 -0.2142 -0.05924 -0.2999 -0.12994 -0.1035 -0.169 -0.162 -0.36171 -0.1699 -0.55975 -0.0195 -0.30289 -0.0195 -0.60671 0 -0.909602 0.3364 0.025102 0.6705 0.075222 0.9995 0.149932l2.459 0.4498c0.4398 0.06997 1.0695 0.14994 1.6392 0.28987 -0.1299 0.21991 -0.2499 0.44981 -0.3798 0.6797Z" clip-rule="evenodd" stroke-width="1"></path>
</svg>