<svg xmlns="http://www.w3.org/2000/svg" fill="none" viewBox="0 0 24 24" id="Phone-Actions-Ringing--Streamline-Freehand">
  <desc>
    Phone Actions Ringing Streamline Icon: https://streamlinehq.com
  </desc>
  <path fill="#020202" fill-rule="evenodd" d="M17.8202 19.8369c-0.1702 -0.2402 -0.4004 -0.4705 -0.5706 -0.6807 -0.3705 -0.4706 -0.7509 -0.9411 -1.1513 -1.3816 -0.2752 -0.3052 -0.5659 -0.5959 -0.871 -0.871 -0.2332 -0.2367 -0.488 -0.4512 -0.7609 -0.6407 -0.243 -0.1695 -0.5259 -0.273 -0.8209 -0.3004 -0.2361 -0.0044 -0.4687 0.0581 -0.6708 0.1802 -0.4705 0.2703 -1.1112 0.9111 -1.7019 1.3115 -0.1191 0.0832 -0.2467 0.1536 -0.3804 0.2103 -0.0701 0 -0.1502 0.07 -0.2003 0l-3.21362 -3.7343c-0.43049 -0.4705 -1.00114 -1.0011 -1.54175 -1.6418 -0.30608 -0.3423 -0.54394 -0.7398 -0.70079 -1.1714 -0.05006 -0.1601 0.08009 -0.3303 0.23026 -0.5206 0.41046 -0.5205 1.13128 -1.06115 1.54175 -1.59176 0.24162 -0.23484 0.41172 -0.53337 0.49055 -0.86097 0.02445 -0.17339 -0.01086 -0.34993 -0.10011 -0.50057 -0.12014 -0.20023 -0.33038 -0.39044 -0.43049 -0.5306L5.21591 4.82991c-0.02195 -0.03917 -0.05215 -0.07311 -0.0885 -0.09947 -0.03635 -0.02636 -0.07799 -0.04453 -0.12204 -0.05323 -0.04405 -0.00871 -0.08947 -0.00775 -0.13312 0.00281 -0.04364 0.01055 -0.08448 0.03045 -0.11969 0.05832 -0.0352 0.02787 -0.06394 0.06306 -0.08423 0.10311 -0.02029 0.04006 -0.03164 0.08405 -0.03328 0.12892 -0.00163 0.04488 0.00649 0.08957 0.02381 0.131 0.01732 0.04143 0.04342 0.07861 0.07651 0.10897l1.72195 2.30261 0.40046 0.5306c-0.13994 0.32958 -0.36869 0.6138 -0.66075 0.82093 -0.51602 0.42565 -0.99803 0.89092 -1.44164 1.39162 -0.1281 0.1477 -0.22011 0.3232 -0.26876 0.5125 -0.04865 0.1894 -0.0526 0.3875 -0.01156 0.5787 0.1757 0.531 0.45091 1.0236 0.81092 1.4516 0.49056 0.6408 1.10125 1.2314 1.53174 1.722l3.09351 3.8043c0.14576 0.1819 0.34546 0.3128 0.57026 0.374 0.2249 0.0611 0.4634 0.0494 0.6812 -0.0336 0.6309 -0.2781 1.2124 -0.6568 1.7219 -1.1213 0.1902 -0.1501 0.3804 -0.3003 0.5406 -0.4004 0.1602 -0.1001 0.1702 0 0.1702 -0.0701 0.1316 0.0311 0.2526 0.0968 0.3504 0.1902 0.1902 0.1402 0.3604 0.3204 0.5206 0.4605 0.1602 0.1402 0.5306 0.5306 0.7809 0.811 0.2503 0.2803 0.7408 0.8809 1.0912 1.3315 0.1402 0.1702 0.3204 0.3504 0.4706 0.5506 0.0599 0.0753 0.1072 0.1598 0.1401 0.2503 0.1402 0.4305 -0.2403 0.7708 -0.6307 1.0712 -0.4845 0.3561 -1.0262 0.627 -1.6018 0.8009 -1.9967 0.567 -4.1315 0.3891 -6.00682 -0.5006 -1.90536 -0.947 -3.58771 -2.2881 -4.9356 -3.9344C2.03012 16.2307 0.999104 13.8037 0.860976 11.2472 0.750851 8.09361 2.2025 5.51068 3.78429 4.73981c0.08127 -0.04094 0.14343 -0.11188 0.17333 -0.19783 0.02989 -0.08595 0.02518 -0.18016 -0.01315 -0.26269 -0.01833 -0.04203 -0.04496 -0.07992 -0.0783 -0.11141 -0.03334 -0.03148 -0.07269 -0.0559 -0.1157 -0.07179 -0.04301 -0.0159 -0.08879 -0.02294 -0.13459 -0.0207 -0.0458 0.00223 -0.09067 0.0137 -0.13193 0.0337C1.71194 4.94004 0 7.75323 0 11.2672c0.098014 2.7699 1.16031 5.4185 3.00341 7.4885 1.41019 1.7777 3.18546 3.232 5.2059 4.2648 2.11569 1.0383 4.54099 1.2558 6.80769 0.6107 0.8805 -0.2506 1.6921 -0.6992 2.3727 -1.3115 0.2913 -0.2346 0.5085 -0.5484 0.6258 -0.9036 0.1172 -0.3552 0.1293 -0.7367 0.035 -1.0986 -0.0541 -0.1701 -0.1316 -0.3319 -0.2303 -0.4806Z" clip-rule="evenodd" stroke-width="1"></path>
  <path fill="#0c6fff" fill-rule="evenodd" d="M14.4264 12.1482c0.0903 0.0211 0.1852 0.0055 0.264 -0.0433 0.0788 -0.0488 0.1351 -0.1268 0.1565 -0.217 0.2763 -0.7564 0.2763 -1.5862 0 -2.34262 -0.1226 -0.33436 -0.3059 -0.64321 -0.5406 -0.91103 -0.2415 -0.26618 -0.5344 -0.48073 -0.861 -0.63072 -0.7205 -0.36689 -1.5507 -0.45598 -2.3326 -0.25028 -0.0395 0.0046 -0.0776 0.01693 -0.1123 0.03627 -0.0347 0.01935 -0.0652 0.04533 -0.0898 0.07647 -0.0247 0.03115 -0.0429 0.06684 -0.0538 0.10504 -0.0108 0.0382 -0.014 0.07816 -0.0094 0.1176s0.0169 0.07759 0.0362 0.11227c0.0194 0.03468 0.0454 0.06521 0.0765 0.08984 0.0312 0.02464 0.0669 0.0429 0.1051 0.05374 0.0382 0.01084 0.0781 0.01405 0.1176 0.00945 0.6107 0.01367 1.2006 0.22437 1.6819 0.60068 0.1963 0.14111 0.3774 0.30215 0.5406 0.48055 0.2978 0.30434 0.522 0.67274 0.6556 1.07704 0.1336 0.4043 0.1731 0.8338 0.1152 1.2556 -0.0126 0.0831 0.006 0.168 0.0522 0.2382 0.0462 0.0703 0.1168 0.1209 0.1981 0.1422Z" clip-rule="evenodd" stroke-width="1"></path>
  <path fill="#0c6fff" fill-rule="evenodd" d="M18.0205 6.80215c-0.6314 -0.91171 -1.4771 -1.6543 -2.4628 -2.16245 -0.9343 -0.4487 -1.9696 -0.64541 -3.0034 -0.57065 -0.9928 0.05971 -1.9571 0.35483 -2.81319 0.86098 -0.07169 0.03717 -0.12568 0.1013 -0.15009 0.17828 -0.0244 0.07697 -0.01723 0.16049 0.01994 0.23218 0.03717 0.07169 0.1013 0.12568 0.17828 0.15009 0.07698 0.02441 0.1605 0.01723 0.23216 -0.01994 0.7951 -0.38291 1.6709 -0.56836 2.5529 -0.54061 0.8576 0.02128 1.6953 0.2626 2.4328 0.70079 0.7995 0.45281 1.4845 1.083 2.0022 1.84209 0.4083 0.49644 0.7484 1.04525 1.0112 1.63185 0.3216 0.71057 0.4676 1.48804 0.4258 2.26684 -0.0419 0.7788 -0.2703 1.5362 -0.6661 2.2082 -0.0263 0.0373 -0.0449 0.0794 -0.0547 0.124 -0.0097 0.0445 -0.0104 0.0906 -0.002 0.1354 0.0084 0.0448 0.0258 0.0875 0.051 0.1255 0.0252 0.038 0.0578 0.0705 0.0958 0.0957 0.0749 0.0516 0.1668 0.0721 0.2565 0.0571 0.0897 -0.0149 0.17 -0.0641 0.2241 -0.1372 0.5266 -0.7516 0.8628 -1.62 0.9797 -2.5303 0.1168 -0.9103 0.0108 -1.83536 -0.309 -2.69564 -0.2347 -0.69693 -0.5721 -1.35492 -1.0011 -1.95221Z" clip-rule="evenodd" stroke-width="1"></path>
  <path fill="#0c6fff" fill-rule="evenodd" d="M23.8972 7.46292c-0.0901 -0.55663 -0.2447 -1.10089 -0.4605 -1.62184 -0.2127 -0.5125 -0.4707 -1.00501 -0.7709 -1.47167 -0.7248 -1.1249 -1.6761 -2.08641 -2.7931 -2.8232C18.7516 0.826235 17.4939 0.345655 16.1785 0.134607c-2.5862 -0.37474 -5.2248 0.066198 -7.5486 1.261433 -0.0741 0.03478 -0.13146 0.09743 -0.15959 0.17431 -0.02813 0.07688 -0.02474 0.16176 0.00942 0.23615 0.01622 0.03634 0.03949 0.0691 0.06847 0.09636 0.02898 0.02727 0.0631 0.04851 0.10035 0.06248 0.03726 0.01397 0.07693 0.0204 0.11669 0.01891 0.03977 -0.00148 0.07884 -0.01086 0.11495 -0.02758C11.117 0.950291 13.6102 0.660058 16.0183 1.12573c1.16 0.2476 2.2614 0.71669 3.2437 1.38157 0.9672 0.6626 1.7939 1.50976 2.4327 2.49282 0.2727 0.40108 0.5073 0.82674 0.7008 1.27145 0.1947 0.43695 0.3424 0.89336 0.4405 1.36154 0.1934 1.0466 0.2306 2.11611 0.1101 3.17359 -0.1072 1.064 -0.3808 2.1045 -0.8109 3.0835l-1.2514 2.1224c-0.0429 0.0812 -0.0523 0.1759 -0.0261 0.2639 0.0262 0.088 0.0859 0.1622 0.1663 0.2066 0.0811 0.043 0.1759 0.0524 0.2639 0.0262 0.088 -0.0263 0.1622 -0.086 0.2066 -0.1663l1.3515 -2.1124c0.5072 -1.041 0.8452 -2.1563 1.0012 -3.3038 0.1855 -1.14598 0.2023 -2.31298 0.05 -3.46388Z" clip-rule="evenodd" stroke-width="1"></path>
</svg>