<svg xmlns="http://www.w3.org/2000/svg" fill="none" viewBox="0 0 24 24" id="Push-Notification-2--Streamline-Freehand">
  <desc>
    Push Notification 2 Streamline Icon: https://streamlinehq.com
  </desc>
  <path fill="#020202" d="M14.1841 17.6619c-0.0806 0 -0.1581 0.0313 -0.216 0.0874 -0.058 0.0561 -0.0918 0.1325 -0.0944 0.2131v0.7711c-1.5624 -0.0701 -3.1247 -0.2303 -4.67707 -0.3305 -1.09165 -0.06 -2.17328 -0.1201 -3.17479 -0.1101 -1.57972 0.0323 -3.15556 0.1695 -4.71711 0.4106 -0.11016 -2.3636 -0.17026 -5.7987 -0.12018 -8.95351 0 -3.62546 0.17026 -6.88037 0.65098 -7.65153 0.09014 -0.14021 0.36055 -0.22033 0.71107 -0.3305 0.83674 -0.21749 1.69156 -0.35829 2.55385 -0.42064 1.88542 -0.1761 3.78314 -0.1761 5.66855 0 0.5175 0.05197 1.0299 0.14575 1.5323 0.28043 0.3505 0.10015 0.6209 0.19028 0.7111 0.34051 0.06 0.13024 0.1005 0.26859 0.1202 0.41062 0.0606 0.25097 0.1074 0.50506 0.1402 0.76115 0.0148 0.09029 0.0634 0.17158 0.1359 0.22737 0.0726 0.05579 0.1636 0.08191 0.2547 0.07308 0.0895 -0.01482 0.1699 -0.06381 0.224 -0.13666 0.0542 -0.07286 0.078 -0.16389 0.0664 -0.25393 -0.0346 -0.33658 -0.0881 -0.67094 -0.1602 -1.00151 -0.0232 -0.16562 -0.0776 -0.32535 -0.1603 -0.47071 -0.2041 -0.28996 -0.5008 -0.50187 -0.8412 -0.600904 -0.6235 -0.186167 -1.2645 -0.306998 -1.9129 -0.360544C8.60274 0.332819 6.30191 0.302589 4.01882 0.526087c-0.81826 0.061066 -1.62394 0.236361 -2.39361 0.520783 -0.24409 0.11502 -0.45448 0.29092 -0.61092 0.51077C0.463463 2.36886 0.112935 5.8441 0.0127839 9.72996 -0.0673369 14.9879 0.243131 20.9268 0.553599 21.8683c0.136489 0.278 0.331613 0.5231 0.571931 0.7185 0.24033 0.1954 0.52014 0.3363 0.82017 0.4132 1.80003 0.4881 3.66547 0.6908 5.52833 0.6009 1.84951 0.0112 3.68997 -0.2589 5.45827 -0.8012 0.514 -0.153 0.9641 -0.4694 1.2819 -0.9014 0.1331 -0.4077 0.204 -0.8331 0.2103 -1.2619 0 -0.661 0.0601 -1.5724 0.0601 -2.644 0.0042 -0.0419 -0.0004 -0.0842 -0.0136 -0.1242 -0.0132 -0.04 -0.0347 -0.0768 -0.063 -0.1079 -0.0284 -0.0312 -0.0629 -0.0561 -0.1015 -0.073 -0.0385 -0.0169 -0.0802 -0.0256 -0.1224 -0.0254Zm-0.5708 3.8558c-0.2444 0.2845 -0.5749 0.4814 -0.9414 0.5609 -1.6955 0.4633 -3.4515 0.6659 -5.20788 0.6009 -1.74436 0.0452 -3.48495 -0.1846 -5.15778 -0.681 -0.36054 -0.1402 -0.65098 -0.2504 -0.72109 -0.4507 -0.13821 -0.7135 -0.21859 -1.4369 -0.24036 -2.1633 1.3921 0 2.76417 0 4.12622 0.0601l3.12471 0.0801c1.75598 0 3.49858 -0.03 5.22788 -0.0901v0.7812c-0.0191 0.4407 -0.0897 0.8776 -0.2103 1.3019Z" stroke-width="1"></path>
  <path fill="#0c6fff" d="M13.373 4.6523c-0.9597 -0.12207 -1.9272 -0.17228 -2.8944 -0.15023 -2.34229 -0.08758 -4.68778 0.02635 -7.01056 0.34052 -0.4607 0.10015 -0.56085 0.34051 -0.60091 0.46069 -0.17001 0.6542 -0.25748 1.3271 -0.26039 2.00302 -0.02621 0.42557 0.02122 0.85247 0.14021 1.2619 0.04885 0.16 0.14272 0.30254 0.27041 0.41062 0.90613 0.23758 1.83754 0.36535 2.77418 0.38058 2.18329 0.14021 5.08766 0.22033 6.10926 0.24036 0.4988 0.01831 0.9982 -0.0085 1.4922 -0.08012 0.3303 -0.04505 0.6329 -0.20882 0.8513 -0.4607 0.1035 -0.14044 0.1659 -0.30687 0.1803 -0.48072 0.0553 -0.66653 0.0553 -1.3365 0 -2.00302 -0.0228 -0.41563 -0.1003 -0.82645 -0.2304 -1.22184 -0.0659 -0.18159 -0.1721 -0.34593 -0.3105 -0.48073 -0.1514 -0.11112 -0.326 -0.18645 -0.5107 -0.22033Zm-0.0701 3.67554s-0.2905 0.06009 -0.4307 0.07011H5.86165c-0.80309 0.02024 -1.60656 -0.01993 -2.40363 -0.12018 -0.03883 -0.07556 -0.06585 -0.15662 -0.08012 -0.24037 -0.05884 -0.25286 -0.08907 -0.51154 -0.09013 -0.77116 -0.02008 -0.53986 0.01684 -1.08032 0.11016 -1.61243 0.00489 -0.04996 0.00489 -0.10027 0 -0.15023 0.40061 -0.10015 3.39512 -0.12018 6.00906 -0.06009 1.29191 0 2.48371 0.10015 3.24491 0.2003 0.2403 0 0.5508 0.07011 0.5508 0.07011v0.52079c0.0748 0.69511 0.1083 1.39406 0.1002 2.09315Z" stroke-width="1"></path>
  <path fill="#0c6fff" d="M16.4375 12.0334c-0.0629 -0.1802 -0.1696 -0.3419 -0.3105 -0.4707 -0.1601 -0.1068 -0.341 -0.1785 -0.5308 -0.2103 -0.9554 -0.1323 -1.9201 -0.1859 -2.8843 -0.1602 -4.8874 0 -6.43974 0.1402 -7.07069 0.3505 -0.43065 0.1402 -0.5308 0.3405 -0.56085 0.4507 -0.16816 0.6548 -0.25892 1.327 -0.27041 2.003 -0.02301 0.4228 0.02782 0.8465 0.15023 1.2519 0.05944 0.168 0.17193 0.3121 0.32048 0.4106 0.8982 0.2195 1.8195 0.3305 2.74414 0.3305 2.1833 0.1502 5.0977 0.2303 6.1192 0.2504 0.4959 0.0202 0.9925 -0.01 1.4823 -0.0902 0.3311 -0.0444 0.636 -0.2039 0.8613 -0.4506 0.0969 -0.1476 0.1586 -0.3156 0.1802 -0.4908 0.0554 -0.6665 0.0554 -1.3365 0 -2.003 -0.0279 -0.3986 -0.1052 -0.7923 -0.2303 -1.1718Zm-0.9014 2.9545h-0.0501c-0.1213 0.0316 -0.2454 0.0517 -0.3705 0.0601H8.09491c-0.80149 0.047 -1.60549 0.0269 -2.40363 -0.0601 -0.04023 -0.0759 -0.07052 -0.1567 -0.09013 -0.2404 -0.0549 -0.2499 -0.08177 -0.5052 -0.08012 -0.7611 0.01285 -0.5894 0.05631 -1.1778 0.13019 -1.7627 0.40061 -0.0901 3.39512 -0.1202 6.00908 -0.0601 1.2919 0 2.8943 0.1302 3.6555 0.1803 0.1502 0 0.1402 0.4707 0.1602 0.6209 0.0873 0.6707 0.1074 1.3484 0.0601 2.0231Z" stroke-width="1"></path>
  <path fill="#0c6fff" d="M16.1872 6.39493c0.3792 0.10395 0.7636 0.18753 1.1517 0.25038 0.1632 0.01527 0.3275 0.01527 0.4908 0 0.1634 0.01026 0.3273 0.01026 0.4907 0 0.4407 -0.06009 0.8313 -0.15023 1.1517 -0.20031 0.093 0 0.1822 -0.03693 0.2479 -0.10266 0.0657 -0.06574 0.1027 -0.1549 0.1027 -0.24786 -0.0026 -0.09122 -0.0407 -0.17783 -0.1062 -0.24142 -0.0654 -0.06358 -0.1531 -0.09913 -0.2444 -0.0991 -0.3204 -0.06009 -0.711 -0.15022 -1.1517 -0.2003 -0.3321 -0.04864 -0.6694 -0.04864 -1.0015 0 -0.3881 0.06285 -0.7726 0.14643 -1.1517 0.25038 -0.0797 0 -0.1562 0.03165 -0.2125 0.088 -0.0563 0.05634 -0.088 0.13277 -0.088 0.21245 0 0.07969 0.0317 0.15611 0.088 0.21245 0.0563 0.05635 0.1328 0.088 0.2125 0.088l0.02 -0.01001Z" stroke-width="1"></path>
  <path fill="#0c6fff" d="M20.6939 13.2052c0.3405 -0.0501 0.631 -0.1402 0.8914 -0.2003 0.0903 0 0.1769 -0.0359 0.2407 -0.0997 0.0639 -0.0639 0.0998 -0.1505 0.0998 -0.2408 0 -0.0903 -0.0359 -0.1769 -0.0998 -0.2408 -0.0638 -0.0638 -0.1504 -0.0997 -0.2407 -0.0997 -0.2604 -0.0601 -0.5509 -0.1502 -0.8914 -0.2103 -0.13 -0.01 -0.2606 -0.01 -0.3906 0 -0.1264 -0.0153 -0.2542 -0.0153 -0.3805 0 -0.3026 0.0629 -0.6004 0.1465 -0.8914 0.2503 -0.0797 0 -0.1561 0.0317 -0.2124 0.088 -0.0564 0.0564 -0.088 0.1328 -0.088 0.2125s0.0316 0.1561 0.088 0.2124c0.0563 0.0564 0.1327 0.088 0.2124 0.088 0.291 0.1039 0.5888 0.1875 0.8914 0.2504 0.1266 0.0103 0.2539 0.0103 0.3805 0 0.1303 0.0065 0.2609 0.0032 0.3906 -0.01Z" stroke-width="1"></path>
  <path fill="#0c6fff" d="M20.0429 8.97882c0.7211 0 1.4422 -0.15022 2.1633 -0.23034 0.0903 0 0.1769 -0.03588 0.2407 -0.09974 0.0639 -0.06386 0.0998 -0.15047 0.0998 -0.24078s-0.0359 -0.17692 -0.0998 -0.24078c-0.0638 -0.06385 -0.1504 -0.09973 -0.2407 -0.09973 -0.7211 -0.09014 -1.4422 -0.24036 -2.1633 -0.28042 -0.2867 -0.02004 -0.5745 -0.02004 -0.8613 0 -0.1944 0.00631 -0.3883 0.02303 -0.5809 0.05007 -0.2303 0 -0.6009 0.11017 -0.9414 0.14021 -0.1723 0.03032 -0.3485 0.03032 -0.5208 0 -0.0368 -0.01578 -0.0764 -0.02415 -0.1164 -0.02464 -0.0401 -0.00049 -0.0799 0.00692 -0.1171 0.0218s-0.0711 0.03694 -0.0997 0.06492c-0.0287 0.02798 -0.0516 0.06134 -0.0674 0.09817 -0.0158 0.03682 -0.0241 0.0764 -0.0246 0.11646 -0.0005 0.04006 0.0069 0.07983 0.0218 0.11703 0.0149 0.03719 0.0369 0.0711 0.0649 0.09977 0.028 0.02868 0.0613 0.05156 0.0982 0.06734 0.177 0.0874 0.366 0.14815 0.5608 0.18027 0.3906 0.09014 0.8613 0.12018 1.1417 0.16024 0.2805 0.04006 0.3806 0 0.5809 0.06009 0.2862 0.02838 0.5737 0.04175 0.8613 0.04006Z" stroke-width="1"></path>
  <path fill="#0c6fff" d="M23.7085 14.5072c-0.3405 -0.0601 -0.7411 -0.1502 -1.1718 -0.2003 -0.1667 -0.01 -0.334 -0.01 -0.5007 0 -0.1666 -0.0152 -0.3342 -0.0152 -0.5008 0 -0.4406 0.0601 -0.8312 0.1802 -1.1717 0.2504 -0.0716 0.013 -0.1363 0.0507 -0.1829 0.1065 -0.0466 0.0558 -0.0721 0.1262 -0.0721 0.1989 0 0.0727 0.0255 0.1431 0.0721 0.1989 0.0466 0.0559 0.1113 0.0936 0.1829 0.1066 0.3405 0.0701 0.7311 0.1903 1.1717 0.2504 0.1668 0.0102 0.334 0.0102 0.5008 0h0.5007c0.4307 -0.0501 0.8313 -0.1403 1.1718 -0.2004 0.0815 -0.0139 0.1555 -0.0562 0.2089 -0.1194 0.0533 -0.0633 0.0826 -0.1433 0.0826 -0.2261 0 -0.0827 -0.0293 -0.1628 -0.0826 -0.226 -0.0534 -0.0632 -0.1274 -0.1056 -0.2089 -0.1195v-0.02Z" stroke-width="1"></path>
</svg>