<svg xmlns="http://www.w3.org/2000/svg" fill="none" viewBox="0 0 24 24" id="Smartphone-App-Widget-Add--Streamline-Freehand">
  <desc>
    Smartphone App Widget Add Streamline Icon: https://streamlinehq.com
  </desc>
  <path fill="#020202" d="M8.13116 14.2132c-0.91837 -0.4966 -1.95661 -0.7285 -2.99902 -0.6698 -1.08758 0.1553 -2.10989 0.6122 -2.95096 1.319 -0.84108 0.7068 -1.467242 1.6351 -1.807473 2.6797 -0.4401846 1.0216 -0.478823 2.1717 -0.108201 3.2205 0.370623 1.0489 1.123234 1.9194 2.107544 2.4376 0.3558 0.1919 0.74087 0.3236 1.13963 0.3899 0.56489 0.0599 1.13454 0.0599 1.69944 0 0.03719 0.0001 0.074 -0.0075 0.10813 -0.0223 0.03412 -0.0148 0.06481 -0.0365 0.09016 -0.0637 0.02534 -0.0272 0.04478 -0.0594 0.05711 -0.0945 0.01233 -0.035 0.01727 -0.0723 0.01451 -0.1094 0.0001 -0.0372 -0.00748 -0.074 -0.02228 -0.1081 -0.0148 -0.0341 -0.03649 -0.0648 -0.06371 -0.0902 -0.02722 -0.0253 -0.05938 -0.0448 -0.09447 -0.0571 -0.0351 -0.0123 -0.07235 -0.0173 -0.10944 -0.0145 -0.55001 0.0434 -1.1031 0.0266 -1.64946 -0.05 -0.31629 -0.0691 -0.61985 -0.1871 -0.89971 -0.3499 -0.77731 -0.475 -1.35011 -1.2221 -1.60694 -2.0961 -0.256842 -0.874 -0.179349 -1.8123 0.2174 -2.6323 0.28566 -0.8567 0.80304 -1.6175 1.49476 -2.198 0.69171 -0.5806 1.53071 -0.9582 2.42395 -1.0909 0.85105 -0.06 1.70212 0.1164 2.45919 0.5098 0.76698 0.3835 1.40346 0.9852 1.8294 1.7294 0.59028 1.0284 0.79578 2.233 0.57978 3.3989 -0.10099 0.5668 -0.36303 1.0926 -0.75479 1.5144 -0.39176 0.4219 -0.89668 0.7222 -1.45445 0.8648 -0.08058 0.0213 -0.15012 0.0723 -0.19463 0.1428 -0.04451 0.0705 -0.06069 0.1552 -0.04529 0.2371 0.00938 0.0416 0.02699 0.0809 0.05179 0.1156 0.0248 0.0347 0.05629 0.0641 0.09261 0.0865 0.03633 0.0223 0.07676 0.0372 0.11891 0.0437 0.04216 0.0065 0.08519 0.0045 0.12656 -0.0059 0.69561 -0.1416 1.33439 -0.4842 1.83725 -0.9853 0.50284 -0.5011 0.84774 -1.1386 0.99184 -1.8337 0.3134 -1.3521 0.1289 -2.7718 -0.5198 -3.9987 -0.47973 -0.9405 -1.23239 -1.714 -2.15934 -2.2193Z" stroke-width="1"></path>
  <path fill="#020202" d="M8.1312 0.68765C7.21364 0.188049 6.17549 -0.0472653 5.13219 0.00787292 4.04542 0.165344 3.02419 0.623084 2.1835 1.32955 1.3428 2.03602 0.716028 2.96315 0.373746 4.00656c-0.4383159 1.02337 -0.47605 2.17409 -0.105719 3.22398C0.638358 8.28043 1.38971 9.15281 2.37309 9.6747c0.35439 0.19309 0.74026 0.32171 1.13963 0.3799 0.56313 0.0765 1.13278 0.0933 1.69944 0.05 0.06642 -0.0125 0.12639 -0.0478 0.16954 -0.0999 0.04315 -0.05199 0.06676 -0.11746 0.06676 -0.18505 0 -0.06758 -0.02361 -0.13305 -0.06676 -0.18507 -0.04315 -0.05202 -0.10312 -0.08734 -0.16954 -0.09983 -0.52556 0.01783 -1.05155 -0.01902 -1.56949 -0.10997 -0.31892 -0.0601 -0.62396 -0.17872 -0.8997 -0.34988 -0.78734 -0.45841 -1.37595 -1.19338 -1.65127 -2.06185 -0.275327 -0.86847 -0.217666 -1.80831 0.16176 -2.63661 0.28765 -0.85551 0.80563 -1.61514 1.49697 -2.19538 0.69135 -0.58024 1.52931 -0.95862 2.42174 -1.09354 0.85195 -0.05636 1.70293 0.12352 2.4592 0.51983 0.76907 0.38048 1.40634 0.98292 1.82939 1.72943 0.57424 1.03053 0.76544 2.23095 0.53984 3.38889 -0.09798 0.56179 -0.35409 1.084 -0.7383 1.5054 -0.38422 0.4214 -0.88062 0.72452 -1.431 0.87382 -0.08267 0.02131 -0.15385 0.07384 -0.19859 0.14655 -0.04474 0.0727 -0.05956 0.15992 -0.04133 0.24332 0.0091 0.04383 0.02729 0.08526 0.05341 0.12161 0.02611 0.03636 0.05957 0.06683 0.0982 0.08944 0.03863 0.02261 0.08158 0.03687 0.12606 0.04184 0.04449 0.00497 0.08952 0.00056 0.13219 -0.01297 0.6964 -0.14358 1.33547 -0.48804 1.83825 -0.99082 0.50281 -0.50279 0.84721 -1.14186 0.99081 -1.83825 0.3135 -1.35203 0.1289 -2.77174 -0.5198 -3.99869 -0.48344 -0.94446 -1.24378 -1.71876 -2.1793 -2.21927Z" stroke-width="1"></path>
  <path fill="#020202" d="M23.3261 2.98687c-0.4769 -0.95337 -1.2338 -1.73819 -2.1693 -2.249264 -0.9192 -0.495226 -1.9561 -0.73025909 -2.999 -0.6797772 -1.0863 0.1585762 -2.107 0.6167162 -2.9475 1.3230212 -0.8405 0.70631 -1.4676 1.63285 -1.8109 2.67567 -0.4383 1.02337 -0.4761 2.17409 -0.1057 3.22398 0.3703 1.04988 1.1216 1.92227 2.105 2.44416 0.3544 0.19308 0.7403 0.32174 1.1397 0.37984 0.5646 0.065 1.1348 0.065 1.6994 0 0.0419 0.0079 0.085 0.0065 0.1262 -0.0042 0.0413 -0.0107 0.0797 -0.0303 0.1125 -0.0575 0.0328 -0.0272 0.0592 -0.06134 0.0773 -0.0999 0.0181 -0.03857 0.0275 -0.08066 0.0275 -0.12327 0 -0.04262 -0.0094 -0.08471 -0.0275 -0.12327 -0.0181 -0.03857 -0.0445 -0.07267 -0.0773 -0.09988 -0.0328 -0.0272 -0.0712 -0.04684 -0.1125 -0.05751 -0.0412 -0.01068 -0.0843 -0.01213 -0.1262 -0.00425 -0.5219 0.02153 -1.0446 -0.01198 -1.5595 -0.09997 -0.3223 -0.06461 -0.6304 -0.1865 -0.9097 -0.35988 -0.7756 -0.47657 -1.3469 -1.22377 -1.6036 -2.09715 -0.2567 -0.87337 -0.1804 -1.81089 0.2141 -2.6313 0.2931 -0.82546 0.8019 -1.55742 1.4733 -2.11993 0.6715 -0.56251 1.4813 -0.93507 2.3454 -1.07902 0.8543 -0.05973 1.7085 0.11665 2.4692 0.50983 0.7649 0.38642 1.4007 0.9874 1.8294 1.72944 0.5869 1.02958 0.7888 2.23419 0.5698 3.39888 -0.0936 0.56715 -0.3521 1.0942 -0.7432 1.51549 -0.3911 0.42129 -0.8975 0.7182 -1.4561 0.85373 -0.0826 0.02132 -0.1538 0.07385 -0.1986 0.14655 -0.0447 0.07271 -0.0595 0.15993 -0.0413 0.24333 0.0191 0.07979 0.0682 0.14919 0.137 0.19385 0.0689 0.04465 0.1522 0.06115 0.2329 0.04607 0.6948 -0.13849 1.3339 -0.47733 1.8384 -0.97472 0.5045 -0.4974 0.8523 -1.1316 1.0007 -1.82436 0.3146 -1.35093 0.1337 -2.76994 -0.5099 -3.99869Z" stroke-width="1"></path>
  <path fill="#0c6fff" d="M23.4661 16.9223c-1.5195 0.12 -2.9991 0.2799 -4.5885 0.4599 0.0799 -1.7694 0 -3.209 0.0999 -4.9984 0.0042 -0.0362 0.0009 -0.0729 -0.0095 -0.1079 -0.0105 -0.035 -0.0279 -0.0674 -0.0513 -0.0955 -0.0233 -0.028 -0.0521 -0.051 -0.0846 -0.0676 -0.0325 -0.0166 -0.0681 -0.0264 -0.1045 -0.0289 -0.0368 -0.0041 -0.074 -0.0009 -0.1096 0.0094 -0.0355 0.0103 -0.0687 0.0276 -0.0975 0.0509 -0.0288 0.0232 -0.0528 0.052 -0.0704 0.0845 -0.0176 0.0326 -0.0286 0.0683 -0.0324 0.1051 -0.3187 1.7072 -0.5224 3.4339 -0.6098 5.1683l-1.4295 0.18c-0.5798 0.07 -1.1596 0.1499 -1.7394 0.1999 -0.7279 0.0649 -1.459 0.085 -2.1893 0.06 -0.0765 -0.0058 -0.1522 0.018 -0.2117 0.0663 -0.0595 0.0483 -0.0982 0.1176 -0.1082 0.1936 -0.0032 0.0748 0.0217 0.148 0.0698 0.2054 0.0481 0.0573 0.1159 0.0946 0.1901 0.1045 1.4979 0.2301 3.017 0.2904 4.5285 0.18l0.8497 -0.1v1.0896c0 1.3396 0.09 2.6692 0.19 3.9987 0 0.0849 0.0337 0.1662 0.0937 0.2262 0.06 0.06 0.1413 0.0937 0.2262 0.0937 0.0848 0 0.1662 -0.0337 0.2262 -0.0937 0.06 -0.06 0.0937 -0.1413 0.0937 -0.2262 0 -1.3395 0.1299 -2.6891 0.1999 -4.0487v-1.1396l0.7797 -0.1299c1.3196 -0.23 2.6292 -0.5399 3.9288 -0.7598 0.0421 -0.0049 0.0828 -0.0182 0.1198 -0.039 0.037 -0.0209 0.0694 -0.0488 0.0955 -0.0823 0.026 -0.0335 0.0451 -0.0719 0.0562 -0.1128 0.0111 -0.041 0.014 -0.0837 0.0084 -0.1258 0 -0.0848 -0.0337 -0.1662 -0.0937 -0.2262 -0.06 -0.06 -0.1414 -0.0937 -0.2262 -0.0937Z" stroke-width="1"></path>
</svg>