<svg xmlns="http://www.w3.org/2000/svg" fill="none" viewBox="0 0 16 16" id="Video-Games--Streamline-Block-Free">
  <desc>
    Video Games Streamline Icon: https://streamlinehq.com
  </desc>
  <path fill="#000000" fill-rule="evenodd" d="M0 5c0 -2.20914 1.79086 -4 4 -4h8c2.2091 0 4 1.79086 4 4v10c-2.419 0 -4.4367 -1.7178 -4.9 -4H4.89998C4.43671 13.2822 2.41896 15 0 15V5Zm13.2515 1c0 0.69116 -0.5603 1.25146 -1.2515 1.25146S10.7485 6.69116 10.7485 6 11.3088 4.74854 12 4.74854 13.2515 5.30884 13.2515 6ZM4 7.25146c0.69116 0 1.25146 -0.5603 1.25146 -1.25146S4.69116 4.74854 4 4.74854 2.74854 5.30884 2.74854 6 3.30884 7.25146 4 7.25146Z" clip-rule="evenodd" stroke-width="1"></path>
</svg>