<svg xmlns="http://www.w3.org/2000/svg" fill="none" viewBox="0 0 24 24" id="Copy-Link--Streamline-Sharp">
  <desc>
    Copy Link Streamline Icon: https://streamlinehq.com
  </desc>
  <g id="copy-link">
    <path id="Rectangle 19" fill="#ff7972" d="M0.241211 23.7588H20.7412V5.25879c0 -1.10457 -0.8954 -2 -2 -2H0.241211V23.7588Z" stroke-width="1"></path>
    <path id="Union" fill="#0c098c" fill-rule="evenodd" d="M20.2234 7.17434 17.4417 9.9561l1.7677 1.7678 3.6657 -3.66567 0.8839 -0.88389 -0.8839 -0.88388 -5.1654 -5.16537 -0.8839 -0.883879 -0.8838 0.883879 -3.6657 3.66565 1.7678 1.76777 2.7817 -2.78176 3.3976 3.39759ZM1.49121 3.25893H0.241211V23.7589H20.7412v-8.75h-2.5v6.25H2.74121V5.75893h6.25v-2.5h-7.5ZM15.775 6.45708l-4.3318 4.33182 1.7678 1.7678 4.3318 -4.33185 -1.7678 -1.76777Zm-3.7304 2.10077L9.26288 11.3396l3.39762 3.3976 2.7817 -2.7817 1.7678 1.7677 -3.6656 3.6657 -0.8839 0.8838 -0.8839 -0.8838 -5.16537 -5.1654 -0.88388 -0.8839 0.88388 -0.8839 3.66567 -3.66561 1.7677 1.76776Z" clip-rule="evenodd" stroke-width="1"></path>
  </g>
</svg>