<svg xmlns="http://www.w3.org/2000/svg" fill="none" viewBox="0 0 24 24" id="Dashboard-Gauge-2--Streamline-Sharp">
  <desc>
    Dashboard Gauge 2 Streamline Icon: https://streamlinehq.com
  </desc>
  <g id="dashboard-gauge-2--bar-speed-test-loading-dashboard-internet-gauge-progress">
    <path id="Ellipse 8" fill="#ff7972" d="M19.6014 7.8195c2.016 2.01602 3.1486 4.7503 3.1486 7.6014 0 1.3505 -0.2541 2.6749 -0.7359 3.9091H1.98593C1.50414 18.0958 1.25 16.7714 1.25 15.4209c0 -2.8511 1.13259 -5.58538 3.1486 -7.6014C6.41462 5.80348 9.14892 4.6709 12 4.6709c2.8511 0 5.5854 1.13258 7.6014 3.1486Z" stroke-width="1"></path>
    <path id="Union" fill="#0c098c" fill-rule="evenodd" d="M12 3.4209c-3.1826 0 -6.23484 1.26428 -8.48528 3.51472C1.26428 9.18605 0 12.2383 0 15.4209c0 1.5076 0.283708 2.986 0.821511 4.3636l0.310519 0.7955H22.868l0.3105 -0.7955c0.5378 -1.3776 0.8215 -2.856 0.8215 -4.3636 0 -3.1826 -1.2643 -6.23485 -3.5147 -8.48528C18.2348 4.68518 15.1826 3.4209 12 3.4209ZM5.28249 8.70338C7.06408 6.92179 9.48044 5.9209 12 5.9209c2.5196 0 4.9359 1.00089 6.7175 2.78248C20.4991 10.485 21.5 12.9013 21.5 15.4209c0 0.9081 -0.13 1.8027 -0.3797 2.6591h-6.1956l2.5947 -4.5409 -3.0388 -1.7364 -3.5871 6.2773H2.87971C2.63 17.2236 2.5 16.329 2.5 15.4209c0 -2.5196 1.00089 -4.9359 2.78249 -6.71752Z" clip-rule="evenodd" stroke-width="1"></path>
  </g>
</svg>