<svg xmlns="http://www.w3.org/2000/svg" fill="none" viewBox="0 0 24 24" id="Feather-Pen--Streamline-Sharp">
  <desc>
    Feather Pen Streamline Icon: https://streamlinehq.com
  </desc>
  <g id="feather-pen--change-edit-feather-modify-quill-write-writing">
    <path id="Vector 1642" fill="#fddc5c" d="M4.99707 11.0029v8h8.00003l8.0931 -8.0931c1.0609 -1.06088 1.6569 -2.49973 1.6569 -4.00002 0 -3.12419 -2.5327 -5.65685 -5.6569 -5.65685 -1.5003 0 -2.9391 0.59599 -4 1.65686L4.99707 11.0029Z" stroke-width="1"></path>
    <path id="Union" fill="#0c098c" fill-rule="evenodd" d="M17.0901 2.50293c-1.1688 0 -2.2897 0.46429 -3.1162 1.29074L6.24692 11.5207v4.4644L17.1129 5.11905l1.7678 1.76776 -5.1161 5.11609h4.4645l1.9771 -1.977c0.8264 -0.82644 1.2907 -1.94735 1.2907 -3.11612 0 -2.43383 -1.973 -4.40685 -4.4068 -4.40685ZM3.74692 11.0029v7.4822L0.00292969 22.229 1.7707 23.9968l3.74388 -3.7439h8.00012l0.3661 -0.3661 8.0931 -8.0931c1.2953 -1.2953 2.023 -3.05211 2.023 -4.88392 0 -3.81454 -3.0923 -6.90685031 -6.9068 -6.90685031 -1.8319 0 -3.5886 0.72768631 -4.8839 2.02297031l-8.09316 8.0932 -0.36612 0.3661v0.5177Z" clip-rule="evenodd" stroke-width="1"></path>
  </g>
</svg>