<svg xmlns="http://www.w3.org/2000/svg" fill="none" viewBox="0 0 24 24" id="Fingerprint-2--Streamline-Sharp">
  <desc>
    Fingerprint 2 Streamline Icon: https://streamlinehq.com
  </desc>
  <g id="fingerprint-2--identification-password-touch-id-secure-fingerprint-finger-security">
    <path id="Vector" fill="#fddc5c" d="M19.2271 3.00122c1.9167 1.91665 2.9934 4.51618 2.9934 7.22668l0.0001 3.5465c0 2.7105 -1.0768 5.31 -2.9934 7.2267 -1.9167 1.9166 -4.5162 2.9934 -7.2268 2.9934 -2.71051 0 -5.31004 -1.0768 -7.22669 -2.9934 -1.91665 -1.9167 -2.99341 -4.5162 -2.99341 -7.2268l-0.00003 -3.5464c0 -2.7105 1.07676 -5.31003 2.99341 -7.22668C6.69033 1.08457 9.28986 0.0078125 12.0004 0.0078125c2.7106 0 5.3101 1.0767575 7.2267 2.9934075Z" stroke-width="1"></path>
    <path id="Union" fill="#0c098c" fill-rule="evenodd" d="M19.75 10.25c0 -4.28021 -3.4698 -7.75 -7.75 -7.75V0c5.6609 0 10.25 4.58908 10.25 10.25v3.5h-2.5v-3.5Zm-15.5 2v1.5c0 4.2802 3.46979 7.75 7.75 7.75 3.6867 0 6.7749 -2.5755 7.558 -6.0266l2.438 0.5532C20.9602 20.5914 16.8796 24 12 24 6.33908 24 1.75 19.4109 1.75 13.75v-1.5h2.5ZM9.72339 0.254133C5.15856 1.28995 1.75 5.37049 1.75 10.2501h2.5c0 -3.68668 2.57548 -6.77484 6.0266 -7.55794L9.72339 0.254133ZM6.84838 7.44371C7.78777 5.55343 9.74053 4.25 12 4.25c3.1757 0 5.75 2.57436 5.75 5.75h-2.5c0 -1.79493 -1.4551 -3.25 -3.25 -3.25 -1.2742 0 -2.37952 0.73313 -2.91283 1.80629L6.84838 7.44371ZM15.25 12v2c0 1.7949 -1.4551 3.25 -3.25 3.25v2.5c3.1756 0 5.75 -2.5744 5.75 -5.75v-2h-2.5Zm-6.5 -2v4c0 1.2742 0.73313 2.3795 1.8063 2.9128l-1.11259 2.2388C7.55343 18.2122 6.25 16.2595 6.25 14v-4h2.5Zm2 -1v6h2.5V9h-2.5Z" clip-rule="evenodd" stroke-width="1"></path>
  </g>
</svg>