<svg xmlns="http://www.w3.org/2000/svg" fill="none" viewBox="0 0 24 24" id="Hierarchy-2--Streamline-Sharp">
  <desc>
    Hierarchy 2 Streamline Icon: https://streamlinehq.com
  </desc>
  <g id="hierarchy-2--node-organization-links-structure-link-nodes-network-hierarchy">
    <path id="Rectangle 991" fill="#fddc5c" d="M9.751 18.126h4.498v4.498H9.751z" stroke-width="1"></path>
    <path id="Rectangle 992" fill="#fddc5c" d="M1.25 18.126h4.498v4.498H1.25z" stroke-width="1"></path>
    <path id="Rectangle 994" fill="#fddc5c" d="M9.751 1.376h4.498v4.498H9.751z" stroke-width="1"></path>
    <path id="Rectangle 993" fill="#fddc5c" d="M18.252 18.126h4.498v4.498h-4.498z" stroke-width="1"></path>
    <path id="Union" fill="#0c098c" fill-rule="evenodd" d="M8.50122 0.125977h6.99758V7.12354H13.25v3.49996h8.4995v6.2525H24v6.9975h-6.9976V16.876h2.2471v-3.7525H13.25v3.7525h2.2488v6.9975H8.50122V16.876H10.75v-3.7525h-6v3.752h2.24756v6.9976H0v-6.9976h2.25v-6.252h8.5V7.12354H8.50122V0.125977ZM11.0012 2.62598v1.99756h1.9976V2.62598h-1.9976ZM2.5 21.3731v-1.9976h1.99756v1.9976H2.5Zm8.5012 0.0004V19.376h1.9976v1.9975h-1.9976Zm8.5012 0V19.376H21.5v1.9975h-1.9976Z" clip-rule="evenodd" stroke-width="1"></path>
  </g>
</svg>