<svg xmlns="http://www.w3.org/2000/svg" fill="none" viewBox="0 0 24 24" id="Image-Highlights--Streamline-Sharp">
  <desc>
    Image Highlights Streamline Icon: https://streamlinehq.com
  </desc>
  <g id="image-highlights">
    <path id="Ellipse 11" fill="#fddc5c" d="M4.3986 19.6014C6.41462 21.6174 9.14892 22.75 12 22.75c2.8511 0 5.5854 -1.1326 7.6014 -3.1486S22.75 14.8511 22.75 12c0 -2.85108 -1.1326 -5.58538 -3.1486 -7.6014C17.5854 2.38259 14.8511 1.25 12 1.25c-2.85108 0 -5.58538 1.13259 -7.6014 3.1486C2.38259 6.41462 1.25 9.14892 1.25 12c0 2.8511 1.13259 5.5854 3.1486 7.6014Z" stroke-width="1"></path>
    <path id="Union" fill="#0c098c" fill-rule="evenodd" d="M3.51472 3.51472C5.76516 1.26428 8.8174 0 12 0s6.2348 1.26428 8.4853 3.51472C22.7357 5.76516 24 8.8174 24 12s-1.2643 6.2348 -3.5147 8.4853C18.2348 22.7357 15.1826 24 12 24c-3.1826 0 -6.23484 -1.2643 -8.48528 -3.5147C1.26428 18.2348 0 15.1826 0 12c0 -3.1826 1.26428 -6.23484 3.51472 -8.48528ZM10.75 2.58256c-2.05818 0.27315 -3.98316 1.21557 -5.46751 2.69993C3.50089 7.06408 2.5 9.48044 2.5 12c0 2.5196 1.00089 4.9359 2.78249 6.7175 1.48435 1.4844 3.40933 2.4268 5.46751 2.6999V2.58256Z" clip-rule="evenodd" stroke-width="1"></path>
  </g>
</svg>