<svg xmlns="http://www.w3.org/2000/svg" fill="none" viewBox="0 0 24 24" id="Like-1--Streamline-Sharp">
  <desc>
    Like 1 Streamline Icon: https://streamlinehq.com
  </desc>
  <g id="like-1--reward-social-up-rating-media-like-thumb-hand">
    <path id="Vector 35" fill="#ff7972" d="M17.447 22H1.44702V11h4l2.5 -9h0.9C10.8352 2 12.447 3.61177 12.447 5.6V9h9.589l-4.589 13Z" stroke-width="1"></path>
    <path id="Union" fill="#0c098c" fill-rule="evenodd" d="M7.94702 0.750002h-0.95011l-0.25429 0.915448L4.49691 9.75H0.197021v13.5H18.3314l0.2943 -0.8339 4.589 -13.00001 0.5882 -1.66609H13.697V5.6c0 -2.67858 -2.1714 -4.849998 -4.84998 -4.849998h-0.9ZM6.65142 11.3346l2.24556 -8.08408C10.1718 3.27711 11.197 4.31883 11.197 5.6v4.65h9.0722l-3.7065 10.5H6.44702v-8.6796l0.2044 -0.7358Z" clip-rule="evenodd" stroke-width="1"></path>
  </g>
</svg>