<svg xmlns="http://www.w3.org/2000/svg" fill="none" viewBox="0 0 24 24" id="Snooze-Clock--Streamline-Sharp">
  <desc>
    Snooze Clock Streamline Icon: https://streamlinehq.com
  </desc>
  <g id="snooze-clock--nap-sleep-rest-break-clock">
    <path id="Subtract" fill="#79ee8d" fill-rule="evenodd" d="M1.25 12H9.5v4.715L7.42854 19.5H9.5v2.9553c0.8124 0.1943 1.651 0.2947 2.5 0.2947 2.8511 0 5.5854 -1.1326 7.6014 -3.1486S22.75 14.8511 22.75 12c0 -2.85108 -1.1326 -5.58538 -3.1486 -7.6014C17.5854 2.38259 14.8511 1.25 12 1.25c-2.85108 0 -5.58538 1.13259 -7.6014 3.1486C2.38259 6.41462 1.25 9.14892 1.25 12Z" clip-rule="evenodd" stroke-width="1"></path>
    <path id="Union" fill="#0c098c" fill-rule="evenodd" d="M12 0C8.8174 0 5.76516 1.26428 3.51472 3.51472 1.26428 5.76516 0 8.8174 0 12h2.5c0 -2.51956 1.00089 -4.93592 2.78249 -6.71751C7.06408 3.50089 9.48044 2.5 12 2.5c2.5196 0 4.9359 1.00089 6.7175 2.78249C20.4991 7.06408 21.5 9.48044 21.5 12c0 2.5196 -1.0009 4.9359 -2.7825 6.7175C16.9359 20.4991 14.5196 21.5 12 21.5c-0.5974 0 -1.1889 -0.0563 -1.7674 -0.1658l-0.46517 2.4563C10.4984 23.9289 11.2456 24 12 24c3.1826 0 6.2348 -1.2643 8.4853 -3.5147C22.7357 18.2348 24 15.1826 24 12c0 -3.1826 -1.2643 -6.23484 -3.5147 -8.48528C18.2348 1.26428 15.1826 0 12 0Zm-1.75 12V5h3.5v5.25H17v3.5h-6.75V12Zm-6.19836 4.5H0V14h7.5v2.0528l-0.24702 0.3321L3.44836 21.5H7.5V24H0v-2.0528l0.247024 -0.3321L4.05164 16.5Z" clip-rule="evenodd" stroke-width="1"></path>
  </g>
</svg>