<svg xmlns="http://www.w3.org/2000/svg" fill="none" viewBox="0 0 24 24" id="Synchronize-Disable--Streamline-Sharp">
  <desc>
    Synchronize Disable Streamline Icon: https://streamlinehq.com
  </desc>
  <g id="line-arrow-synchronize-disable--arrows-loading-load-sync-synchronize-arrow-reload">
    <path id="Union" fill="#79ee8d" fill-rule="evenodd" d="m3.51472 3.5147 -0.88389 0.88388L19.6014 21.3691l0.8839 -0.8838c4.6863 -4.6863 4.6863 -12.28432 0 -16.97061C15.799 -1.1716 8.20101 -1.1716 3.51472 3.5147Z" clip-rule="evenodd" stroke-width="1"></path>
    <path id="Union_2" fill="#0c098c" fill-rule="evenodd" d="M4.44447 2.67672C6.5073 1.00295 9.13652 0.0000012577 12 0.0000013828 15.8675 0.0000015518 19.306 1.82928 21.5 4.66806l0 -2.41806 2.5 0 0 6 0 1.25 -1.25 0 -6 0 0 -2.5 3.3296 0C18.4038 4.29784 15.4107 2.5 12 2.5c-2.17273 0 -4.17509 0.72938 -5.77559 1.95666L19.5433 17.7756C20.7706 16.1751 21.5 14.1727 21.5 12l2.5 0c0 2.8635 -1.0029 5.4927 -2.6767 7.5555l2.5606 2.5606 -1.7678 1.7678L0.116103 1.88389 1.88387 0.116117l2.5606 2.560603ZM3.38802 7.98415 1.53219 6.12833C0.556477 7.86406 -0.000014641 9.86704 -0.0000147343 12L2.49999 12c0 -1.4352 0.31825 -2.79604 0.88803 -4.01585ZM17.8717 22.4678l-1.8559 -1.8558c-1.2198 0.5698 -2.5806 0.888 -4.0158 0.888 -3.41074 0 -6.40378 -1.7978 -8.07964 -4.5l3.32963 0 0 -2.5 -6 0 -1.2500029362 0 -5.46e-8 1.25 -2.623e-7 6L2.49999 21.75l0 -2.4181C4.69397 22.1707 8.13247 24 12 24c2.133 0 4.1359 -0.5565 5.8717 -1.5322Z" clip-rule="evenodd" stroke-width="1"></path>
  </g>
</svg>