<svg xmlns="http://www.w3.org/2000/svg" fill="none" viewBox="0 0 24 24" id="Epic-Games-Logo--Streamline-Logos-Block">
  <desc>
    Epic Games Logo Streamline Icon: https://streamlinehq.com
  </desc>
  <path fill="#000000" fill-rule="evenodd" d="M5 1a4 4 0 0 0 -4 4v14a4 4 0 0 0 4 4h14a4 4 0 0 0 4 -4V5a4 4 0 0 0 -4 -4H5Zm1.182 3.5A1.09 1.09 0 0 0 5.09 5.59v11.637c0 0.144 0.084 0.274 0.216 0.333l6.545 2.909a0.364 0.364 0 0 0 0.296 0l6.545 -2.91a0.364 0.364 0 0 0 0.216 -0.332V5.591a1.09 1.09 0 0 0 -1.09 -1.091H6.181Zm6.363 2.364h1.091v6.182h-1.09V6.864ZM9.091 17.227 12 18.682l2.909 -1.455H9.091Zm-2 -4.181V6.864h2v1.09h-0.91V9.41h0.91v1.09h-0.91v1.454h0.91v1.091h-2Zm2.545 0V6.864h1.273c0.703 0 1.273 0.57 1.273 1.272v1.819c0 0.703 -0.57 1.272 -1.273 1.272h-0.182v1.819h-1.09Zm5.273 -6.182a0.91 0.91 0 0 0 -0.91 0.909v4.363c0 0.502 0.408 0.91 0.91 0.91h1.09a0.91 0.91 0 0 0 0.91 -0.91v-1.454h-1.09v1.272h-0.728v-4h0.727v1.273h1.091V7.773a0.91 0.91 0 0 0 -0.91 -0.91h-1.09Zm1.09 8.727H7.274V14.5H16v1.09Zm-5.272 -5.455h0.182c0.1 0 0.182 -0.081 0.182 -0.181V8.136c0 -0.1 -0.082 -0.181 -0.182 -0.181h-0.182v2.181Z" clip-rule="evenodd" stroke-width="1"></path>
</svg>