<svg xmlns="http://www.w3.org/2000/svg" fill="none" viewBox="0 0 24 24" id="Obs-Studio-Logo--Streamline-Logos-Block">
  <desc>
    Obs Studio Logo Streamline Icon: https://streamlinehq.com
  </desc>
  <path fill="#000000" fill-rule="evenodd" d="M5 1a4 4 0 0 0 -4 4v14a4 4 0 0 0 4 4h14a4 4 0 0 0 4 -4V5a4 4 0 0 0 -4 -4H5Zm7 19a8 8 0 1 0 0 -16 8 8 0 0 0 0 16Zm5.789 -6.57a2.656 2.656 0 0 1 -0.32 1.716 3.984 3.984 0 0 0 -1.485 -5.437 3.778 3.778 0 0 0 -1.208 -0.471 0.345 0.345 0 0 0 -0.365 0.206 2.603 2.603 0 0 1 -1.262 1.281 2.656 2.656 0 1 1 -1.421 -5.033 3.984 3.984 0 0 0 -3.712 3.984c0.002 0.451 0.083 0.898 0.239 1.321a0.326 0.326 0 0 0 0.358 0.213 2.656 2.656 0 0 1 2.488 4.066 2.656 2.656 0 0 1 -4.347 0.21A3.984 3.984 0 0 0 12 16.648c0.38 -0.23 0.718 -0.522 1.003 -0.863a0.339 0.339 0 0 0 0 -0.425 2.658 2.658 0 0 1 0.664 -3.725 2.656 2.656 0 0 1 4.122 1.796Z" clip-rule="evenodd" stroke-width="1"></path>
</svg>