<svg xmlns="http://www.w3.org/2000/svg" fill="none" viewBox="0 0 24 24" id="Twitch-Logo--Streamline-Logos-Block">
  <desc>
    Twitch Logo Streamline Icon: https://streamlinehq.com
  </desc>
  <path fill="#000000" fill-rule="evenodd" d="M5 1a4 4 0 0 0 -4 4v14a4 4 0 0 0 4 4h14a4 4 0 0 0 4 -4V5a4 4 0 0 0 -4 -4H5Zm-0.16 6.727L5.865 5H19.16v9.204l-3.75 3.75h-2.727L10.636 20H8.591v-2.046H4.84V7.727Zm12.955 -1.364H7.227v9.546h3.068v1.704L12 15.91h3.409l2.386 -2.387v-7.16Zm-7.227 2.728v3.75h1.5V9.09h-1.5Zm3.41 3.75V9.09h1.5v3.75h-1.5Z" clip-rule="evenodd" stroke-width="1"></path>
</svg>