<svg xmlns="http://www.w3.org/2000/svg" fill="none" viewBox="0 0 24 24" id="Unreal-Engine-Logo--Streamline-Logos-Block">
  <desc>
    Unreal Engine Logo Streamline Icon: https://streamlinehq.com
  </desc>
  <path fill="#000000" fill-rule="evenodd" d="M5 1a4 4 0 0 0 -4 4v14a4 4 0 0 0 4 4h14a4 4 0 0 0 4 -4V5a4 4 0 0 0 -4 -4H5Zm15 11a8 8 0 1 1 -16 0 8 8 0 0 1 16 0Zm-8.853 -5.09c-3.446 1.252 -4.765 4.545 -5.287 6.242 1.251 -1.799 1.904 -2.701 3.329 -2.506v4.487H8.014c0.783 1.175 2.741 1.958 3.916 1.958l1.175 -1.175 1.175 0.783c0.783 0 2.5 -1.692 3.133 -3.133 -0.784 0.784 -1.828 0.914 -2.35 0.784v-4.7c0.452 -0.96 0.807 -1.474 1.566 -2.35 -1.253 0 -3.12 1.507 -3.524 2.35v4.7s-0.687 0.391 -1.175 0.391c-0.313 0 -0.652 -0.26 -0.783 -0.391V6.91Z" clip-rule="evenodd" stroke-width="1"></path>
</svg>