<svg xmlns="http://www.w3.org/2000/svg" fill="none" viewBox="-0.75 -0.75 24 24" id="Blood-Bag-Donation--Streamline-Sharp-Neon">
  <desc>
    Blood Bag Donation Streamline Icon: https://streamlinehq.com
  </desc>
  <g id="blood-bag-donation">
    <path id="Ellipse 671" stroke="#000cfe" d="M13.119562499999999 8.092575c0 1.032571875 -0.8370000000000001 1.869675 -1.8695625 1.869675 -1.0326562499999998 0 -1.86965625 -0.837103125 -1.86965625 -1.869675C9.38034375 6.924046875 11.25 4.820709375 11.25 4.820709375s1.8695625 2.1033375 1.8695625 3.271865625Z" stroke-width="1.5"></path>
    <path id="Vector 2997" stroke="#000cfe" d="M11.25 19.6875v2.8125" stroke-width="1.5"></path>
    <path id="Vector 2996" stroke="#000cfe" d="M3.2313 13.293281250000001c3.296128125 -1.9209375 5.584378125 -0.7685624999999999 7.768856250000001 -0.00009375 2.1844687499999997 0.768375 4.91784375 1.1524687500000002 8.268468749999998 -0.80334375" stroke-width="1.5"></path>
    <path id="Rectangle 9" stroke="#c71dff" d="m14.222625 19.6875 -5.9452875 0 0 -2.056125 -2.0743968749999997 -0.44015624999999997c-1.732528125 -0.36759375 -2.971640625 -1.89721875 -2.971640625 -3.66834375l0 -12.503146875 16.037325000000003 0 0 12.503146875c0 1.771125 -1.23909375 3.30075 -2.9715937500000003 3.66834375l-2.07440625 0.44015624999999997 0 2.056125Z" stroke-width="1.5"></path>
  </g>
</svg>