<svg xmlns="http://www.w3.org/2000/svg" fill="none" viewBox="-0.75 -0.75 24 24" id="Emergency-Call--Streamline-Sharp-Neon">
  <desc>
    Emergency Call Streamline Icon: https://streamlinehq.com
  </desc>
  <g id="emergency-call--health-medical-ambulance-emergency-call">
    <path id="Ellipse 441" stroke="#c71dff" d="M3.217284375 13.542375c-1.195453125 -2.1069375 -1.858303125 -4.434075 -1.9885499999999998 -6.785231250000001l4.153303125 -0.49756875 1.46229375 5.11801875 -3.627046875 2.16478125Zm0 0c0.6741 1.1880000000000002 1.517540625 2.3060625 2.53033125 3.3188437499999996 1.012790625 1.01278125 2.130796875 1.85625 3.3188437499999996 2.5303125m0 0c2.1069468749999998 1.1955 4.434103125 1.8583125 6.785259375 1.9885312500000003l0.49753125 -4.1533125 -5.118 -1.4623125000000001 -2.164790625 3.6270937500000002Z" stroke-width="1.5"></path>
    <path id="Ellipse 577" stroke="#c71dff" d="M3.217284375 13.542375c-1.195453125 -2.1069375 -1.858303125 -4.434075 -1.9885499999999998 -6.785231250000001l4.153303125 -0.49756875 1.46229375 5.11801875 -3.627046875 2.16478125Zm0 0c0.6741 1.1880000000000002 1.517540625 2.3060625 2.53033125 3.3188437499999996 1.012790625 1.01278125 2.130796875 1.85625 3.3188437499999996 2.5303125m0 0c2.1069468749999998 1.1955 4.434103125 1.8583125 6.785259375 1.9885312500000003l0.49753125 -4.1533125 -5.118 -1.4623125000000001 -2.164790625 3.6270937500000002Z" stroke-width="1.5"></path>
    <path id="Union" stroke="#000cfe" d="M18.75 3.75V0.9375h-3.75v2.8125h-2.8125v3.75h2.8125v2.8125h3.75V7.5h2.8125V3.75h-2.8125Z" stroke-width="1.5"></path>
  </g>
</svg>