<svg xmlns="http://www.w3.org/2000/svg" fill="none" viewBox="0 0 24 24" id="Medical-Ribbon-1--Streamline-Sharp-Neon">
  <desc>
    Medical Ribbon 1 Streamline Icon: https://streamlinehq.com
  </desc>
  <g id="medical-ribbon-1--ribbon-medical-cancer-health-beauty-symbol">
    <path id="Union" stroke="#c71dff" d="M7.03435 3.05275c-2.72919 2.72918 -2.72919 7.15405 0 9.88325L8.688 14.5896 4 19.2776l3.28788 3.2879 4.68792 -4.6879 4.6724 4.6724 3.2988 -3.2988 -4.6723 -4.6723 1.6429 -1.6429c2.7292 -2.7292 2.7292 -7.15407 0 -9.88325 -2.7292 -2.729186 -7.15407 -2.729186 -9.88325 0Z" stroke-width="1"></path>
    <path id="Ellipse 3" stroke="#c71dff" d="M10.306 6.31148c-0.91474 0.9147 -0.91474 2.39771 0 3.31241l1.6562 1.65621 1.6562 -1.65621c0.9147 -0.9147 0.9147 -2.39771 0 -3.31241 -0.9147 -0.9147 -2.3978 -0.9147 -3.3124 0Z" stroke-width="1"></path>
    <path id="Vector 614" stroke="#c71dff" d="m11.9622 11.2803 3.5323 3.5323" stroke-width="1"></path>
    <path id="Vector 615" stroke="#c71dff" d="m8.67188 14.5703 3.53232 3.5323" stroke-width="1"></path>
  </g>
</svg>