<svg xmlns="http://www.w3.org/2000/svg" fill="none" viewBox="-0.5 -0.5 24 24" id="Medical-Ribbon-1--Streamline-Sharp-Neon">
  <desc>
    Medical Ribbon 1 Streamline Icon: https://streamlinehq.com
  </desc>
  <g id="medical-ribbon-1--ribbon-medical-cancer-health-beauty-symbol">
    <path id="Union" stroke="#c71dff" d="M6.741252083333333 2.9255520833333337c-2.61547375 2.615464166666667 -2.61547375 6.855964583333334 0 9.471447916666667L8.326 13.981700000000002 3.8333333333333335 18.47436666666667l3.150885 3.150904166666667 4.49259 -4.492570833333334 4.477716666666667 4.477716666666667 3.16135 -3.16135 -4.477620833333334 -4.477620833333334 1.5744458333333333 -1.5744458333333333c2.6154833333333336 -2.6154833333333336 2.6154833333333336 -6.85598375 0 -9.471447916666667 -2.6154833333333336 -2.6154699166666666 -6.85598375 -2.6154699166666666 -9.471447916666667 0Z" stroke-width="1"></path>
    <path id="Ellipse 3" stroke="#c71dff" d="M9.876583333333333 6.0485016666666676c-0.8766258333333333 0.8765875 -0.8766258333333333 2.297805416666667 0 3.1743929166666667l1.5871916666666666 1.5872012500000001 1.5871916666666666 -1.5872012500000001c0.8765875 -0.8765875 0.8765875 -2.297805416666667 0 -3.1743929166666667 -0.8765875 -0.8765875 -2.297891666666667 -0.8765875 -3.174383333333333 0Z" stroke-width="1"></path>
    <path id="Vector 614" stroke="#c71dff" d="m11.463775 10.810287500000001 3.3851208333333336 3.3851208333333336" stroke-width="1"></path>
    <path id="Vector 615" stroke="#c71dff" d="m8.310551666666667 13.963204166666667 3.3851400000000003 3.3851208333333336" stroke-width="1"></path>
  </g>
</svg>