<svg xmlns="http://www.w3.org/2000/svg" viewBox="0 0 24 24" id="Bowling-Set--Streamline-Ultimate">
  <desc>
    Bowling Set Streamline Icon: https://streamlinehq.com
  </desc>
  <g id="Bowling-Set--Streamline-Ultimate.svg">
    <path d="M2.76 6.85a0.49 0.49 0 0 0 0.49 0.4H6.7a0.5 0.5 0 0 0 0.49 -0.4q0 -0.18 0.06 -0.33C7.63 4.49 8.17 0 5 0S2.32 4.49 2.7 6.52c0.02 0.11 0.04 0.21 0.06 0.33Z" fill="#000000" stroke-width="1"></path>
    <path d="M6.68 8.75H3.27a0.51 0.51 0 0 0 -0.47 0.32c-0.88 2.3 -5.92 8.05 0.15 14.59a1 1 0 0 0 0.78 0.34h2.49a1 1 0 0 0 0.78 -0.34c6 -6.41 1.2 -11.84 0.14 -14.59a0.49 0.49 0 0 0 -0.46 -0.32Z" fill="#000000" stroke-width="1"></path>
    <path d="M16 8a8 8 0 0 0 -5.94 2.65 0.48 0.48 0 0 0 -0.08 0.55c1.31 2.75 2.31 6.27 0.48 10.09a0.52 0.52 0 0 0 0.11 0.59A8 8 0 1 0 16 8Zm-2.13 3.73a1.07 1.07 0 0 1 2.13 0 1.07 1.07 0 1 1 -2.13 0ZM16 17.07A1.07 1.07 0 1 1 17.07 16 1.07 1.07 0 0 1 16 17.07Zm3.2 -3.2a1.07 1.07 0 1 1 1.07 -1.07 1.07 1.07 0 0 1 -1.07 1.07Z" fill="#000000" stroke-width="1"></path>
  </g>
</svg>