<svg xmlns="http://www.w3.org/2000/svg" viewBox="0 0 24 24" id="Volleyball-Ball--Streamline-Ultimate">
  <desc>
    Volleyball Ball Streamline Icon: https://streamlinehq.com
  </desc>
  <g id="Volleyball-Ball--Streamline-Ultimate.svg">
    <path d="M16.4 15.11a0.49 0.49 0 0 0 -0.18 -0.64 11.65 11.65 0 0 0 -3.64 -1.59 0.52 0.52 0 0 0 -0.48 0.15 13.36 13.36 0 0 1 -10.46 4.11 0.27 0.27 0 0 0 -0.23 0.12 0.25 0.25 0 0 0 0 0.25 12 12 0 0 0 3.39 4 1 1 0 0 0 0.72 0.19c4.48 -0.51 8.93 -2.7 10.88 -6.59Z" fill="#000000" stroke-width="1"></path>
    <path d="M18.28 16.16a0.5 0.5 0 0 0 -0.42 -0.15 0.47 0.47 0 0 0 -0.37 0.25A14.42 14.42 0 0 1 8 22.82a0.25 0.25 0 0 0 0 0.48 12 12 0 0 0 12.6 -2.91 0.49 0.49 0 0 0 0.1 -0.54 11.63 11.63 0 0 0 -2.42 -3.69Z" fill="#000000" stroke-width="1"></path>
    <path d="M23.75 12.78C21 9.15 16.88 6.42 12.57 6.67a0.49 0.49 0 0 0 -0.47 0.47 11.75 11.75 0 0 0 0.45 3.94 0.49 0.49 0 0 0 0.36 0.35 13.35 13.35 0 0 1 8.8 7 0.26 0.26 0 0 0 0.21 0.14 0.24 0.24 0 0 0 0.22 -0.12 12 12 0 0 0 1.8 -4.94 1.05 1.05 0 0 0 -0.19 -0.73Z" fill="#000000" stroke-width="1"></path>
    <path d="M12.62 5a0.48 0.48 0 0 0 0.4 0.2c4 -0.05 7.64 2 10.4 4.9a0.25 0.25 0 0 0 0.29 0 0.25 0.25 0 0 0 0.14 -0.27A12 12 0 0 0 15 0.39a0.5 0.5 0 0 0 -0.52 0.18 11.72 11.72 0 0 0 -2 3.94 0.5 0.5 0 0 0 0.14 0.49Z" fill="#000000" stroke-width="1"></path>
    <path d="M7.81 14.38A12.05 12.05 0 0 0 11 12a0.51 0.51 0 0 0 0.11 -0.49A13.38 13.38 0 0 1 12.79 0.41a0.27 0.27 0 0 0 0 -0.26 0.23 0.23 0 0 0 -0.2 -0.15 11.91 11.91 0 0 0 -5.18 0.94 1 1 0 0 0 -0.53 0.52c-1.79 4.18 -2.08 9.13 0.29 12.74a0.5 0.5 0 0 0 0.64 0.18Z" fill="#000000" stroke-width="1"></path>
    <path d="M5.32 15.31a0.5 0.5 0 0 0 0.34 -0.31 0.51 0.51 0 0 0 0 -0.45c-2 -3.42 -2.09 -7.61 -1 -11.45a0.24 0.24 0 0 0 -0.1 -0.28 0.26 0.26 0 0 0 -0.3 0A12 12 0 0 0 0.5 15.2a0.48 0.48 0 0 0 0.41 0.36 11.7 11.7 0 0 0 4.41 -0.25Z" fill="#000000" stroke-width="1"></path>
  </g>
</svg>