<svg xmlns="http://www.w3.org/2000/svg" fill="none" viewBox="0 0 14 14" id="Calculator-1--Streamline-Flex">
  <desc>
    Calculator 1 Streamline Icon: https://streamlinehq.com
  </desc>
  <g id="calculator-1--shop-shopping-pay-payment-store-cash-calculate-math">
    <path id="Subtract" fill="#d7e0ff" fill-rule="evenodd" d="M3.63527 12.9031c-0.96212 -0.0703 -1.71669 -0.8453 -1.77217 -1.8084 -0.106 -1.83984 -0.14145 -3.63359 -0.10635 -5.4426H12.2434c0.0351 1.80901 -0.0003 3.60276 -0.1063 5.4426 -0.0555 0.9631 -0.8101 1.7382 -1.7722 1.8084 -2.29063 0.1671 -4.43898 0.1671 -6.72963 0Z" clip-rule="evenodd" stroke-width="1"></path>
    <path id="Intersect" fill="#ffffff" d="M1.86319 2.90542c-0.05327 0.92458 -0.08872 1.83753 -0.10635 2.74662H12.2435c-0.0176 -0.90909 -0.0531 -1.82204 -0.1063 -2.74662 -0.0555 -0.96308 -0.8101 -1.73815 -1.7722 -1.80837 -2.29064 -0.167161 -4.43899 -0.167162 -6.72964 0 -0.96212 0.07022 -1.71669 0.84529 -1.77217 1.80837Z" stroke-width="1"></path>
    <path id="Vector 5" stroke="#4147d5" stroke-linecap="round" stroke-linejoin="round" d="M8.31396 3.31177h1.37342" stroke-width="1"></path>
    <path id="Vector 9" stroke="#4147d5" stroke-linecap="round" stroke-linejoin="round" d="M4.3042 10.4333h0.28162" stroke-width="1"></path>
    <path id="Vector 10" stroke="#4147d5" stroke-linecap="round" stroke-linejoin="round" d="M6.85938 10.4333h0.28161" stroke-width="1"></path>
    <path id="Vector 11" stroke="#4147d5" stroke-linecap="round" stroke-linejoin="round" d="M9.45312 10.4333h0.28162" stroke-width="1"></path>
    <path id="Vector 6" stroke="#4147d5" stroke-linecap="round" stroke-linejoin="round" d="M4.3042 8.18335h0.28162" stroke-width="1"></path>
    <path id="Vector 7" stroke="#4147d5" stroke-linecap="round" stroke-linejoin="round" d="M6.85938 8.18335h0.28161" stroke-width="1"></path>
    <path id="Vector 8" stroke="#4147d5" stroke-linecap="round" stroke-linejoin="round" d="M9.45312 8.18335h0.28162" stroke-width="1"></path>
    <path id="Intersect_2" stroke="#4147d5" stroke-linecap="round" stroke-linejoin="round" d="M1.8631 11.0946c0.05548 0.9631 0.81005 1.7382 1.77217 1.8084 2.29065 0.1672 4.439 0.1672 6.72963 0 0.9621 -0.0702 1.7167 -0.8453 1.7722 -1.8084 0.1593 -2.76439 0.1593 -5.42476 0 -8.18918 -0.0555 -0.96308 -0.8101 -1.73815 -1.7722 -1.80837 -2.29063 -0.167161 -4.43898 -0.167162 -6.72963 0 -0.96212 0.07022 -1.71669 0.84529 -1.77217 1.80837 -0.15926 2.76442 -0.15926 5.42479 0 8.18918Z" stroke-width="1"></path>
    <path id="Intersect_3" stroke="#4147d5" stroke-linecap="round" stroke-linejoin="round" d="M12.2435 5.65204H1.75684c0.01763 -0.90909 0.05308 -1.82204 0.10635 -2.74662 0.05548 -0.96308 0.81005 -1.73815 1.77217 -1.80837 2.29065 -0.167162 4.439 -0.167161 6.72964 0 0.9621 0.07022 1.7167 0.84529 1.7722 1.80837 0.0532 0.92458 0.0887 1.83753 0.1063 2.74662Z" stroke-width="1"></path>
  </g>
</svg>