<svg xmlns="http://www.w3.org/2000/svg" fill="none" viewBox="0 0 14 14" id="Search-Arrow-Increase--Streamline-Flex">
  <desc>
    Search Arrow Increase Streamline Icon: https://streamlinehq.com
  </desc>
  <g id="search-arrow-increase--ascend-growth-up-arrow-stats-right-grow-search">
    <path id="Vector" fill="#d7e0ff" d="M6.57103 12.5527c3.79607 0 5.93137 -2.1353 5.93137 -5.93137 0 -3.79609 -2.1353 -5.931389 -5.93137 -5.931389C2.77495 0.689941 0.639648 2.82524 0.639648 6.62133c0 3.79607 2.135302 5.93137 5.931382 5.93137Z" stroke-width="1"></path>
    <path id="Vector_2" stroke="#4147d5" stroke-linecap="round" stroke-linejoin="round" d="m13.3605 13.31 -2.3332 -2.3332" stroke-width="1"></path>
    <path id="Vector_3" stroke="#4147d5" stroke-linecap="round" stroke-linejoin="round" d="M6.57103 12.5527c3.79607 0 5.93137 -2.1353 5.93137 -5.93137 0 -3.79609 -2.1353 -5.931389 -5.93137 -5.931389C2.77495 0.689941 0.639648 2.82524 0.639648 6.62133c0 3.79607 2.135302 5.93137 5.931382 5.93137Z" stroke-width="1"></path>
    <path id="Vector_4" stroke="#4147d5" stroke-linecap="round" stroke-linejoin="round" d="M9.51203 6.72063c0.19838 -0.59512 0.19838 -1.38862 0.00002 -1.98373 -0.59514 -0.19839 -1.38864 -0.19839 -1.98376 -0.00001" stroke-width="1"></path>
    <path id="Vector 3175" stroke="#4147d5" stroke-linecap="round" stroke-linejoin="round" d="M3.25945 8.32779S4.74136 6.36915 5.39848 6.4225c0.52788 0.04286 0.57497 1.16521 1.06435 0.96271 0.32687 -0.13525 2.18875 -1.82459 2.64719 -2.24304" stroke-width="1"></path>
  </g>
</svg>