<svg xmlns="http://www.w3.org/2000/svg" fill="none" viewBox="0 0 14 14" id="Shopping-Basket-2--Streamline-Flex">
  <desc>
    Shopping Basket 2 Streamline Icon: https://streamlinehq.com
  </desc>
  <g id="shopping-basket-2--shopping-basket">
    <path id="Vector 282" fill="#d7e0ff" d="M1.66776 11.3031c-0.38816 -1.67251 -0.56728 -3.58098 -0.63435 -4.80401C1.00317 5.94763 1.44772 5.5 2 5.5h10c0.5523 0 0.9968 0.44763 0.9666 0.99909 -0.0671 1.22303 -0.2462 3.1315 -0.6344 4.80401 -0.1798 0.775 -0.7504 1.3652 -1.5378 1.4794C9.98308 12.9002 8.75104 13 7 13c-1.75104 0 -2.98308 -0.0998 -3.79441 -0.2175 -0.78741 -0.1142 -1.35796 -0.7044 -1.53783 -1.4794Z" stroke-width="1"></path>
    <path id="Vector 287" stroke="#4147d5" stroke-linecap="round" stroke-linejoin="round" d="M1.66776 11.3031c-0.38816 -1.67251 -0.56728 -3.58098 -0.63435 -4.80401C1.00317 5.94763 1.44772 5.5 2 5.5h10c0.5523 0 0.9968 0.44763 0.9666 0.99909 -0.0671 1.22303 -0.2462 3.1315 -0.6344 4.80401 -0.1798 0.775 -0.7504 1.3652 -1.5378 1.4794C9.98308 12.9002 8.75104 13 7 13c-1.75104 0 -2.98308 -0.0998 -3.79441 -0.2175 -0.78741 -0.1142 -1.35796 -0.7044 -1.53783 -1.4794Z" stroke-width="1"></path>
    <path id="Vector 285" stroke="#4147d5" stroke-linecap="round" stroke-linejoin="round" d="m3 5.5 2.5 -4" stroke-width="1"></path>
    <path id="Vector 286" stroke="#4147d5" stroke-linecap="round" stroke-linejoin="round" d="m11 5.5 -2.5 -4" stroke-width="1"></path>
  </g>
</svg>