<svg xmlns="http://www.w3.org/2000/svg" fill="none" viewBox="0 0 14 14" id="Shopping-Bag-Hand-Bag-2--Streamline-Flex">
  <desc>
    Shopping Bag Hand Bag 2 Streamline Icon: https://streamlinehq.com
  </desc>
  <g id="shopping-bag-hand-bag-2--shopping-bag-purse-goods-item-products">
    <path id="Vector 193" stroke="#4147d5" stroke-linecap="round" stroke-linejoin="round" d="M4.5 4.25v-1C4.5 1.86929 5.61929 0.75 7 0.75v0c1.38071 0 2.5 1.11929 2.5 2.5v1" stroke-width="1"></path>
    <path id="Vector 191" fill="#d7e0ff" d="M1 10.25c0 -2.0712 0.37239 -3.73278 0.79579 -5.27397 0.11827 -0.43053 0.51203 -0.72603 0.95851 -0.72603h8.4914c0.4465 0 0.8402 0.2955 0.9585 0.72603C12.6276 6.51722 13 8.1788 13 10.25c0 1.5 -0.9728 2.5204 -2.5 2.7602 -0.88896 0.1396 -2 0.2398 -3.5 0.2398s-2.61104 -0.1002 -3.5 -0.2398C1.97277 12.7704 1 11.75 1 10.25Z" stroke-width="1"></path>
    <path id="Vector 194" stroke="#4147d5" stroke-linecap="round" stroke-linejoin="round" d="M1 10.25c0 -2.0712 0.37239 -3.73278 0.79579 -5.27397 0.11827 -0.43053 0.51203 -0.72603 0.95851 -0.72603h8.4914c0.4465 0 0.8402 0.2955 0.9585 0.72603C12.6276 6.51722 13 8.1788 13 10.25c0 1.5 -0.9728 2.5204 -2.5 2.7602 -0.88896 0.1396 -2 0.2398 -3.5 0.2398s-2.61104 -0.1002 -3.5 -0.2398C1.97277 12.7704 1 11.75 1 10.25Z" stroke-width="1"></path>
  </g>
</svg>