<svg xmlns="http://www.w3.org/2000/svg" fill="none" viewBox="0 0 14 14" id="Store-1--Streamline-Flex">
  <desc>
    Store 1 Streamline Icon: https://streamlinehq.com
  </desc>
  <g id="store-1--store-shop-shops-stores">
    <path id="Intersect" fill="#ffffff" d="M1.5 5.44434v4.55554h7V6.27721c-0.36508 0.24217 -0.80306 0.38323 -1.27399 0.38323 -0.75489 0 -1.42512 -0.36247 -1.84615 -0.92285 -0.42103 0.56038 -1.09126 0.92285 -1.84615 0.92285 -0.87963 0 -1.64431 -0.49214 -2.03371 -1.2161Z" stroke-width="1"></path>
    <path id="Subtract" fill="#d7e0ff" d="M8.5 6.27742v3.72268h-7v1.25c0 1.1045 0.89543 2 2 2h7c1.1046 0 2 -0.8955 2 -2V6.03336c-0.4131 0.38895 -0.9695 0.62729 -1.5817 0.62729 -0.7549 0 -1.42511 -0.36247 -1.84613 -0.92286 -0.15838 0.2108 -0.35202 0.3936 -0.57217 0.53963Z" stroke-width="1"></path>
    <path id="Vector 225" stroke="#4147d5" stroke-linecap="round" stroke-linejoin="round" d="M1.5 8.75v2.5c0 1.1046 0.89543 2 2 2h7c1.1046 0 2 -0.8954 2 -2v-2.5" stroke-width="1"></path>
    <path id="Vector 226" stroke="#4147d5" stroke-linecap="round" stroke-linejoin="round" d="M8.5 8.75v4.4887" stroke-width="1"></path>
    <path id="Vector 227" stroke="#4147d5" stroke-linecap="round" stroke-linejoin="round" d="M1.5 10h7" stroke-width="1"></path>
    <path id="Union" fill="#d7e0ff" d="M3.53377 6.66057c0.75489 0 1.42512 -0.36247 1.84615 -0.92286 0.42103 0.56039 1.09126 0.92286 1.84615 0.92286 0.7549 0 1.42513 -0.36247 1.84616 -0.92286 0.42102 0.56039 1.09127 0.92286 1.84617 0.92286 1.2745 0 2.3077 -1.03319 2.3077 -2.30769 0 -0.61539 -0.4616 -2.53077 -2.3077 -3.26924 -2.86458 -0.442842 -4.48128 -0.446863 -7.38463 0 -1.84616 0.73847 -2.3077 2.65385 -2.3077 3.26924 0 1.2745 1.03319 2.30769 2.3077 2.30769Z" stroke-width="1"></path>
    <path id="Union_2" stroke="#4147d5" stroke-linecap="round" stroke-linejoin="round" d="M3.53377 6.66057c0.75489 0 1.42512 -0.36247 1.84615 -0.92286 0.42103 0.56039 1.09126 0.92286 1.84615 0.92286 0.7549 0 1.42513 -0.36247 1.84616 -0.92286 0.42102 0.56039 1.09127 0.92286 1.84617 0.92286 1.2745 0 2.3077 -1.03319 2.3077 -2.30769 0 -0.61539 -0.4616 -2.53077 -2.3077 -3.26924 -2.86458 -0.442842 -4.48128 -0.446863 -7.38463 0 -1.84616 0.73847 -2.3077 2.65385 -2.3077 3.26924 0 1.2745 1.03319 2.30769 2.3077 2.30769Z" stroke-width="1"></path>
  </g>
</svg>