<svg xmlns="http://www.w3.org/2000/svg" fill="none" viewBox="0 0 24 24" id="Cloud-Rain--Streamline-Cyber">
  <desc>
    Cloud Rain Streamline Icon: https://streamlinehq.com
  </desc>
  <path fill="#ffffff" d="M21.7147 7.9096h-3.0679l-2.5565 -5.1131h-5.113L8.42082 5.8643h-4.0905L0.751221 11.4887l3.579099 4.6017H20.6921l2.5565 -3.5791 -1.5339 -4.6017Z" stroke-width="1"></path>
  <path fill="#bbd8ff" d="M4.33032 16.0904 0.751221 11.4887H3.81902l2.0453 2.5565H18.6469l2.0452 -1.5339 1.0226 -4.6017 1.5339 4.6017 -2.5565 3.5791H4.33032Z" stroke-width="1"></path>
  <path stroke="#092f63" stroke-linecap="round" stroke-linejoin="round" d="M3.81902 18.1357 0.751221 21.2035" stroke-width="1"></path>
  <path stroke="#092f63" stroke-linecap="round" stroke-linejoin="round" d="m8.93216 18.1357 -3.0679 3.0678" stroke-width="1"></path>
  <path stroke="#092f63" stroke-linecap="round" stroke-linejoin="round" d="m14.0451 18.1357 -3.0678 3.0678" stroke-width="1"></path>
  <path stroke="#092f63" stroke-linecap="round" stroke-linejoin="round" d="m19.1582 18.1357 -3.0679 3.0678" stroke-width="1"></path>
  <path stroke="#092f63" stroke-linejoin="round" d="M21.7147 7.9096h-3.0679l-2.5565 -5.1131h-5.113L8.42082 5.8643h-4.0905L0.751221 11.4887l3.579099 4.6017H20.6921l2.5565 -3.5791 -1.5339 -4.6017Z" stroke-width="1"></path>
  <path stroke="#092f63" stroke-linecap="round" stroke-linejoin="round" d="M15.0679 7.9096h3.5792" stroke-width="1"></path>
</svg>