<svg xmlns="http://www.w3.org/2000/svg" fill="none" viewBox="0 0 24 24" id="Elephant--Streamline-Cyber">
  <desc>
    Elephant Streamline Icon: https://streamlinehq.com
  </desc>
  <path fill="#ffffff" d="m19.3499 9.305 -4.018 -0.98 1.568 -1.96 -2.94 -4.9 -8.32997 1.96 -1.96 4.9 -0.49 2.45 0.49 3.92 1.47 6.86h1.47l0.49 -7.84 1.96 0.98 1.46997 7.84 2.94 -4.9 5.39 0.49 1.96 4.41 2.45 -9.31 -3.92 -3.92Z" stroke-width="1"></path>
  <path fill="#bbd8ff" d="m8.57009 8.815 -0.98 1.96 4.41001 4.41 6.174 -6.174 -2.842 -0.686 -3.332 3.92 -3.43001 -3.43Z" stroke-width="1"></path>
  <path stroke="#092f63" stroke-linecap="round" stroke-linejoin="round" stroke-miterlimit="10" d="m8.56993 8.815 3.42997 3.43 4.9 -5.88 -2.94 -4.9 -8.32997 1.96 -1.96 4.9 -0.49 2.45" stroke-width="1"></path>
  <path stroke="#092f63" stroke-linecap="round" stroke-linejoin="round" stroke-miterlimit="10" d="m8.07998 11.755 -4.41 0.98 -2.94 -0.98" stroke-width="1"></path>
  <path stroke="#092f63" stroke-linecap="round" stroke-linejoin="round" stroke-miterlimit="10" d="m3.66992 14.695 1.47 6.86h1.47l0.49 -7.84" stroke-width="1"></path>
  <path stroke="#092f63" stroke-linecap="round" stroke-linejoin="round" stroke-miterlimit="10" d="m15.3321 8.325 4.018 0.98 3.92 3.92 -2.45 9.31 -1.96 -4.41 -5.39 -0.49 -2.94 4.9 -1.47004 -7.84" stroke-width="1"></path>
  <path stroke="#092f63" stroke-linecap="round" stroke-linejoin="round" stroke-miterlimit="10" d="M6.61011 6.855v0.98" stroke-width="1"></path>
</svg>