<svg xmlns="http://www.w3.org/2000/svg" viewBox="0 0 14 14">
  <g>
    <path d="M3.37,5.85,5.91,1.79a1.09,1.09,0,0,1,.94-.52h0A1.11,1.11,0,0,1,8,2.37V5.28h4.39A1.15,1.15,0,0,1,13.49,6.6l-.8,5.16a1.14,1.14,0,0,1-1.13,1H5a2,2,0,0,1-.9-.21l-.72-.36" style="fill: none;stroke: #000001;stroke-linecap: round;stroke-linejoin: round"/>
    <line x1="3.37" y1="5.85" x2="3.37" y2="12.16" style="fill: none;stroke: #000001;stroke-linecap: round;stroke-linejoin: round"/>
    <path d="M1,5.85H3.37a0,0,0,0,1,0,0v6.31a0,0,0,0,1,0,0H1a.5.5,0,0,1-.5-.5V6.35A.5.5,0,0,1,1,5.85Z" style="fill: none;stroke: #000001;stroke-linecap: round;stroke-linejoin: round"/>
  </g>
</svg>
