<svg xmlns="http://www.w3.org/2000/svg" fill="none" viewBox="0 0 24 24"><path stroke="#000" d="M6.5775 21.8592L6.57753 17.4225C6.57754 16.3335 7.46032 15.4507 8.54929 15.4507L8.5493 9.53508C8.5493 9.53508 7.07041 8.5492 4.6056 8.5492C2.1408 8.5492 0.661912 9.53516 0.661912 9.53516L0.661907 15.4507C1.75099 15.4507 2.63387 16.3336 2.63387 17.4227V21.8591M15.4508 21.8592L15.4508 18.2441C15.4508 17.3568 16.1129 16.6375 16.9296 16.6375L16.9297 11.8174C16.9297 11.8174 15.8205 11.0141 13.9719 11.0141C12.1233 11.0141 11.0141 11.8174 11.0141 11.8174L11.0141 16.6375C11.8309 16.6375 12.4931 17.3569 12.4931 18.2443V21.8591M23.8311 0.661865H0.168945M23.8311 23.3381H0.168945M21.3663 3.12667V20.8733M21.3663 3.12667C21.3663 3.47999 21.5688 3.91968 21.7796 4.2816C22.0611 4.76493 22.4299 5.18634 22.852 5.53927C23.1798 5.81339 23.57 6.08445 23.8311 6.08445M21.3663 3.12667C21.3663 3.47999 21.1638 3.91968 20.953 4.2816C20.6715 4.76493 20.3027 5.18634 19.8806 5.53927C19.5528 5.81339 19.1626 6.08445 18.9015 6.08445M21.3663 20.8733C21.3663 20.52 21.5688 20.0803 21.7796 19.7184C22.0611 19.235 22.4299 18.8136 22.852 18.4607C23.1798 18.1866 23.57 17.9155 23.8311 17.9155M21.3663 20.8733C21.3663 20.52 21.1638 20.0803 20.953 19.7184C20.6715 19.235 20.3027 18.8136 19.8806 18.4607C19.5528 18.1866 19.1626 17.9155 18.9015 17.9155M4.45771 6.57741C4.45771 6.57741 2.88024 5.59148 2.88024 4.35908C2.88024 3.40619 3.65271 2.63371 4.6056 2.63371C5.5585 2.63371 6.32671 3.40619 6.32671 4.35908C6.32671 5.59148 4.75349 6.57741 4.75349 6.57741H4.45771ZM13.8468 9.2887C13.8468 9.2887 12.493 8.42602 12.493 7.34766C12.493 6.51388 13.1559 5.83797 13.9737 5.83797C14.7915 5.83797 15.4508 6.51388 15.4508 7.34766C15.4508 8.42602 14.1006 9.2887 14.1006 9.2887H13.8468Z"></path></svg>