<svg xmlns="http://www.w3.org/2000/svg" fill="none" viewBox="0 0 24 24" id="Evernote-Logo--Streamline-Logos-Block">
  <desc>
    Evernote Logo Streamline Icon: https://streamlinehq.com
  </desc>
  <path fill="#000000" fill-rule="evenodd" d="M5 1a4 4 0 0 0 -4 4v14a4 4 0 0 0 4 4h14a4 4 0 0 0 4 -4V5a4 4 0 0 0 -4 -4H5Zm4.187 3.118 0.006 -0.007v3.525a0.83 0.83 0 0 1 -0.83 0.83H5.202l3.986 -4.348ZM5.09 11.273V9.716h3.273a2.08 2.08 0 0 0 2.08 -2.08V4h1.76c0.469 0 0.886 0.3 1.034 0.746l0.128 0.383 2.604 0.4c1.294 0.2 2.368 1.158 2.593 2.477 0.175 1.032 0.346 2.36 0.346 3.63v5.091A3.273 3.273 0 0 1 15.636 20h-1.454A2.182 2.182 0 0 1 12 17.818v-0.121a2.06 2.06 0 0 1 2.06 -2.06h0.304a0.91 0.91 0 0 1 0 1.817 0.182 0.182 0 0 0 0 0.364h0.787c0.47 0 0.849 -0.38 0.849 -0.848 0 -1.097 -0.926 -1.894 -2.15 -2.274a2.993 2.993 0 0 1 -1.442 -0.95l-0.764 1.338a1.818 1.818 0 0 1 -1.579 0.916h-0.247a4.727 4.727 0 0 1 -4.727 -4.727Zm10.545 -0.75a0.75 0.75 0 0 0 0 1.5h0.728a0.75 0.75 0 0 0 0 -1.5h-0.728Z" clip-rule="evenodd" stroke-width="1"></path>
</svg>