<svg xmlns="http://www.w3.org/2000/svg" fill="none" viewBox="0 0 24 24" id="Logmein-Logo-1--Streamline-Logos-Block">
  <desc>
    Logmein Logo 1 Streamline Icon: https://streamlinehq.com
  </desc>
  <path fill="#000000" fill-rule="evenodd" d="M5 1a4 4 0 0 0 -4 4v14a4 4 0 0 0 4 4h14a4 4 0 0 0 4 -4V5a4 4 0 0 0 -4 -4H5Zm15 11a8 8 0 1 1 -16 0 8 8 0 0 1 16 0Zm-7 -2.466a3 3 0 0 1 4 2.83V16h-2v-3.636a1 1 0 0 0 -2 0V16h-2V9.455h2v0.08ZM7.727 7.273V16h2V7.273h-2Z" clip-rule="evenodd" stroke-width="1"></path>
</svg>