<svg xmlns="http://www.w3.org/2000/svg" fill="none" viewBox="0 0 24 24" id="Microsoft-Teams-Logo--Streamline-Logos-Block">
  <desc>
    Microsoft Teams Logo Streamline Icon: https://streamlinehq.com
  </desc>
  <path fill="#000000" fill-rule="evenodd" d="M5 1a4 4 0 0 0 -4 4v14a4 4 0 0 0 4 4h14a4 4 0 0 0 4 -4V5a4 4 0 0 0 -4 -4H5Zm8.724 7.615A1.727 1.727 0 0 0 12 7h-1.816a2.182 2.182 0 1 1 3.54 1.615Zm-0.997 0.446 0 6.94a0.727 0.727 0 0 1 -0.727 0.726H8.894l-4.167 0A0.727 0.727 0 0 1 4 16V8.727C4 8.326 4.326 8 4.727 8H12c0.402 0 0.727 0.326 0.727 0.727l0 0.334Zm-3.863 1.985h1.318v-1H6.545v1h1.319v3.5h1v-3.5ZM17 10.909c0 -0.26 -0.057 -0.506 -0.16 -0.727h2.514c0.357 0 0.646 0.29 0.646 0.646V14a2.364 2.364 0 0 1 -3.042 2.265c0.028 -0.206 0.042 -0.415 0.042 -0.629V10.91Zm-1 4.796 0 -0.069V10.91a0.727 0.727 0 0 0 -0.727 -0.727h-1.546V16c0 0.954 -0.773 1.727 -1.727 1.727H9.388A3.636 3.636 0 0 0 16 15.705Zm3.09 -8.069a1.455 1.455 0 1 1 -2.908 0 1.455 1.455 0 0 1 2.909 0Z" clip-rule="evenodd" stroke-width="1"></path>
</svg>