<svg xmlns="http://www.w3.org/2000/svg" fill="none" viewBox="0 0 24 24" id="Open-Access-Logo--Streamline-Logos-Block">
  <desc>
    Open Access Logo Streamline Icon: https://streamlinehq.com
  </desc>
  <path fill="#000000" fill-rule="evenodd" d="M5 1a4 4 0 0 0 -4 4v14a4 4 0 0 0 4 4h14a4 4 0 0 0 4 -4V5a4 4 0 0 0 -4 -4H5Zm7 2.978A4.023 4.023 0 0 0 7.977 8v1.091h1.5v-1.09a2.523 2.523 0 1 1 5.046 0v2.46a5.114 5.114 0 1 0 1.5 1.292V7.999A4.023 4.023 0 0 0 12 3.978ZM8.386 14.909a3.614 3.614 0 1 1 7.228 0 3.614 3.614 0 0 1 -7.228 0Zm5.069 0a1.454 1.454 0 1 1 -2.91 0 1.454 1.454 0 0 1 2.91 0Z" clip-rule="evenodd" stroke-width="1"></path>
</svg>