<svg xmlns="http://www.w3.org/2000/svg" fill="none" viewBox="0 0 24 24" id="Proxmox-Logo--Streamline-Logos-Block">
  <desc>
    Proxmox Logo Streamline Icon: https://streamlinehq.com
  </desc>
  <path fill="#000000" fill-rule="evenodd" d="M5 1a4 4 0 0 0 -4 4v14a4 4 0 0 0 4 4h14a4 4 0 0 0 4 -4V5a4 4 0 0 0 -4 -4H5Zm7 9.91a0.364 0.364 0 0 1 -0.259 -0.109L6.983 5.985a0.364 0.364 0 0 1 -0.103 -0.287c0.014 -0.172 0.124 -0.252 0.245 -0.326a3.328 3.328 0 0 1 1.046 -0.419c0.677 -0.142 1.575 -0.08 2.378 0.722L12 7.154l1.451 -1.479c0.803 -0.803 1.7 -0.864 2.379 -0.722a3.328 3.328 0 0 1 1.045 0.419c0.12 0.074 0.23 0.154 0.245 0.326a0.364 0.364 0 0 1 -0.104 0.287L12.26 10.8a0.364 0.364 0 0 1 -0.259 0.108Zm0 2.181a0.363 0.363 0 0 0 -0.259 0.108l-4.758 4.816a0.364 0.364 0 0 0 -0.103 0.287c0.014 0.172 0.124 0.252 0.245 0.326a3.33 3.33 0 0 0 1.046 0.419c0.677 0.142 1.575 0.08 2.378 -0.722L12 16.846l1.451 1.48c0.803 0.802 1.7 0.863 2.379 0.721a3.33 3.33 0 0 0 1.045 -0.419c0.12 -0.074 0.23 -0.154 0.245 -0.326a0.364 0.364 0 0 0 -0.104 -0.287L12.26 13.2a0.363 0.363 0 0 0 -0.259 -0.108Zm7.753 -5.529a3.527 3.527 0 0 0 -1.064 -0.441c-0.685 -0.157 -1.598 -0.118 -2.396 0.681l-3.827 3.947a0.362 0.362 0 0 0 0 0.506l3.827 3.947c0.798 0.799 1.711 0.838 2.396 0.682a3.526 3.526 0 0 0 1.064 -0.442c0.12 -0.076 0.228 -0.165 0.245 -0.317a0.364 0.364 0 0 0 -0.089 -0.282l-3.388 -3.84L19.91 8.16c0.068 -0.077 0.1 -0.18 0.089 -0.281 -0.017 -0.153 -0.124 -0.242 -0.245 -0.318Zm-15.506 0a3.526 3.526 0 0 1 1.065 -0.441c0.684 -0.157 1.597 -0.118 2.395 0.681l3.827 3.947a0.362 0.362 0 0 1 0 0.506l-3.827 3.947c-0.798 0.799 -1.711 0.838 -2.396 0.682a3.525 3.525 0 0 1 -1.064 -0.442c-0.12 -0.076 -0.228 -0.165 -0.245 -0.317a0.364 0.364 0 0 1 0.089 -0.282l3.388 -3.84L4.09 8.16a0.364 0.364 0 0 1 -0.089 -0.281c0.017 -0.153 0.124 -0.242 0.245 -0.318Z" clip-rule="evenodd" stroke-width="1"></path>
</svg>