<svg xmlns="http://www.w3.org/2000/svg" fill="none" viewBox="0 0 24 24" id="Chess-Knight--Streamline-Sharp-Remix">
  <desc>
    Chess Knight Streamline Icon: https://streamlinehq.com
  </desc>
  <g id="Remix/Entertainment/chess-knight">
    <path id="Union" fill="#000000" fill-rule="evenodd" d="M9.38739 0.27037 7.91378 0.00244141V3.03632L2.99917 6.96801l-0.78909 0.63127 0.45192 0.90384 1.61512 3.23028 0.44843 0.8968 0.97278 -0.2432 2.2539 -0.5635 -1.63499 6.1767H4.79352l-0.30663 0.8051 -1.33545 3.5063 -0.64553 1.695H21.4941l-0.6455 -1.695 -1.3355 -3.5063 -0.3066 -0.8051h-1.1451L16.5936 7.23683l-0.0025 -0.01834 -0.003 -0.01826c-0.308 -1.84788 -1.0892 -3.42153 -2.3501 -4.6237C12.9837 1.38068 11.3299 0.623562 9.38739 0.27037ZM15.5382 18.0002 14.1191 7.59363c-0.2321 -1.37377 -0.7882 -2.42773 -1.6063 -3.20769 -0.5452 -0.51979 -1.2397 -0.94898 -2.099 -1.26312v1.11506l-0.46915 0.37531 -4.59466 3.67573 0.71478 1.42955 3.33422 -0.83355 2.05311 -0.51327 0 0.00007 0.1004 -0.02511 0.6063 2.42539 -1.4372 0.3593 -1.81826 6.8689h6.63486Z" clip-rule="evenodd" stroke-width="1"></path>
  </g>
</svg>