<svg xmlns="http://www.w3.org/2000/svg" fill="none" viewBox="0 0 24 24" id="Circus-Tent--Streamline-Sharp-Remix">
  <desc>
    Circus Tent Streamline Icon: https://streamlinehq.com
  </desc>
  <g id="Remix/Entertainment/circus-tent--circus-tent-leisure-entertainment-comedy-funny">
    <path id="Union" fill="#000000" fill-rule="evenodd" d="M10.75 0H16v2.5h-2.75v1.87366c2.5604 3.77607 6.0526 5.623 7.8935 6.06754l0.819 0.1978 0.1239 0.8334 1.65 11.0937L23.9497 24H0.0503769l0.2132661 -1.4339L1.91364 11.4724l0.12396 -0.8334 0.81903 -0.1978C4.69743 9.99666 8.1897 8.14973 10.75 4.37366V0ZM4.26912 12.629 2.94971 21.5h5.34795l1.4881 -6.25h4.42854l1.4881 6.25h5.348l-1.3194 -8.871c-2.208 -0.7542 -5.2492 -2.5865 -7.731 -5.73305C9.51825 10.0425 6.47712 11.8748 4.26912 12.629Z" clip-rule="evenodd" stroke-width="1"></path>
  </g>
</svg>