<svg xmlns="http://www.w3.org/2000/svg" fill="none" viewBox="0 0 24 24" id="Music-Note-Trebble-Clef--Streamline-Sharp-Remix">
  <desc>
    Music Note Trebble Clef Streamline Icon: https://streamlinehq.com
  </desc>
  <g id="Remix/Entertainment/music-note-trebble-clef--music-audio-note-trebble-clef-entertainment">
    <path id="Union" fill="#000000" fill-rule="evenodd" d="M13.5 2.5c-0.4142 0 -0.75 0.33579 -0.75 0.75v3.04093l2.5242 -0.99167c0.2871 -0.11275 0.4758 -0.38969 0.4758 -0.69806V3.25c0 -0.41421 -0.3358 -0.75 -0.75 -0.75h-1.5Zm-0.75 6.47693 3.4384 -1.35079C17.4321 7.13753 18.25 5.93746 18.25 4.6012V3.25C18.25 1.45508 16.7949 0 15 0h-1.5c-1.7949 0 -3.25 1.45507 -3.25 3.25v4.02307L5.81163 9.01672C4.5679 9.50532 3.75 10.7054 3.75 12.0417v3.4702c0 1.7949 1.45507 3.25 3.25 3.25h3.25V20.75c0 0.4142 -0.33579 0.75 -0.75 0.75H7c-0.41421 0 -0.75 -0.3358 -0.75 -0.75v-0.619h-2.5v0.619C3.75 22.5449 5.20507 24 7 24h2.5c1.7949 0 3.25 -1.4551 3.25 -3.25v-1.9881H15c1.7949 0 3.25 -1.4551 3.25 -3.25v-3.2381h-2.5v3.2381c0 0.4142 -0.3358 0.75 -0.75 0.75h-2.25V8.97693Zm-2.5 0.98214L6.72576 11.3436c-0.28701 0.1127 -0.47576 0.3897 -0.47576 0.6981v3.4702c0 0.4142 0.33579 0.75 0.75 0.75h3.25V9.95907Z" clip-rule="evenodd" stroke-width="1"></path>
  </g>
</svg>