<svg xmlns="http://www.w3.org/2000/svg" fill="none" viewBox="0 0 24 24" id="Recording-Tape-2--Streamline-Sharp-Remix">
  <desc>
    Recording Tape 2 Streamline Icon: https://streamlinehq.com
  </desc>
  <g id="Remix/Entertainment/recording-tape-2--phone-device-mail-mobile-fax-voice-machine-answering-entertainment">
    <path id="Union" fill="#000000" fill-rule="evenodd" d="M5.75 8.25c-1.79493 0 -3.25 1.45507 -3.25 3.25 0 1.7949 1.45507 3.25 3.25 3.25S9 13.2949 9 11.5c0 -1.79493 -1.45507 -3.25 -3.25 -3.25Zm4.7441 6.5c0.6346 -0.9245 1.0059 -2.0439 1.0059 -3.25 0 -3.17564 -2.57436 -5.75 -5.75 -5.75S0 8.32436 0 11.5c0 3.1575 2.54499 5.7205 5.69556 5.7497v0.0003H18.3177v-0.0004C21.4621 17.2134 24 14.6531 24 11.5c0 -3.17564 -2.5744 -5.75 -5.75 -5.75S12.5 8.32436 12.5 11.5c0 1.2061 0.3713 2.3255 1.0059 3.25h-3.0118Zm7.7559 0c1.7949 0 3.25 -1.4551 3.25 -3.25 0 -1.79493 -1.4551 -3.25 -3.25 -3.25S15 9.70507 15 11.5c0 1.7949 1.4551 3.25 3.25 3.25Z" clip-rule="evenodd" stroke-width="1"></path>
  </g>
</svg>