<svg xmlns="http://www.w3.org/2000/svg" fill="none" viewBox="0 0 14 14" id="Blood-Donate-Drop--Streamline-Core">
  <desc>
    Blood Donate Drop Streamline Icon: https://streamlinehq.com
  </desc>
  <g id="blood-donate-drop">
    <path id="vector 2618" fill="#d7e0ff" d="M0.521 9.171V5a1 1 0 0 1 2 0v3.008a1 1 0 0 1 1.621 -0.301l1.294 1.292a2 2 0 0 1 0.585 1.415V13h-3v-0.5l-1.914 -1.915a2 2 0 0 1 -0.586 -1.414Z" stroke-width="1"></path>
    <path id="vector 2619" fill="#d7e0ff" d="M13.479 9.171V5a1 1 0 1 0 -2 0v3.008a1 1 0 0 0 -1.621 -0.301L8.563 8.998a2 2 0 0 0 -0.585 1.415V13h3v-0.5l1.914 -1.915a2 2 0 0 0 0.585 -1.414Z" stroke-width="1"></path>
    <path id="vector" fill="#ffffff" d="M9.021 4.915c0 -1.126 -2 -3.915 -2 -3.915s-2 2.789 -2 3.915c0 0.553 0.211 1.083 0.586 1.474 0.375 0.39 0.884 0.61 1.414 0.61 0.53 0 1.04 -0.22 1.415 -0.61a2.13 2.13 0 0 0 0.585 -1.474Z" stroke-width="1"></path>
    <path id="vector 2614" stroke="#4147d5" stroke-linecap="round" stroke-linejoin="round" d="m3.021 12.5 -1.914 -1.915a2 2 0 0 1 -0.586 -1.414V5a1 1 0 0 1 1 -1v0a1 1 0 0 1 1 1v3" stroke-width="1"></path>
    <path id="vector 2616" stroke="#4147d5" stroke-linecap="round" stroke-linejoin="round" d="m10.979 12.5 1.914 -1.915a2 2 0 0 0 0.585 -1.414V5a1 1 0 0 0 -1 -1v0a1 1 0 0 0 -1 1v3" stroke-width="1"></path>
    <path id="vector 2615" stroke="#4147d5" stroke-linecap="round" stroke-linejoin="round" d="m3.436 9.828 -0.707 -0.707a1 1 0 0 1 0 -1.415v0a1 1 0 0 1 1.414 0L5.436 9a2 2 0 0 1 0.585 1.415V12.5" stroke-width="1"></path>
    <path id="vector 2617" stroke="#4147d5" stroke-linecap="round" stroke-linejoin="round" d="m10.564 9.828 0.707 -0.707a1 1 0 0 0 0 -1.415v0a1 1 0 0 0 -1.414 0L8.564 9a2 2 0 0 0 -0.585 1.415V12.5" stroke-width="1"></path>
    <path id="vector_2" stroke="#4147d5" stroke-linecap="round" stroke-linejoin="round" d="M9.021 4.915c0 -1.126 -2 -3.915 -2 -3.915s-2 2.789 -2 3.915c0 0.553 0.211 1.083 0.586 1.474 0.375 0.39 0.884 0.61 1.414 0.61 0.53 0 1.04 -0.22 1.415 -0.61a2.13 2.13 0 0 0 0.585 -1.474v0Z" stroke-width="1"></path>
  </g>
</svg>