<svg xmlns="http://www.w3.org/2000/svg" fill="none" viewBox="0 0 14 14" id="Checkup-Medical-Report-Clipboard--Streamline-Core">
  <desc>
    Checkup Medical Report Clipboard Streamline Icon: https://streamlinehq.com
  </desc>
  <g id="checkup-medical-report-clipboard">
    <path id="Subtract" fill="#d7e0ff" fill-rule="evenodd" d="M4.5 1.5H2.75a1 1 0 0 0 -1 1v10a1 1 0 0 0 1 1h8.5a1 1 0 0 0 1 -1v-10a1 1 0 0 0 -1 -1H9.5V2a1 1 0 0 1 -1 1h-3a1 1 0 0 1 -1 -1v-0.5Z" clip-rule="evenodd" stroke-width="1"></path>
    <path id="vector" stroke="#4147d5" stroke-linecap="round" stroke-linejoin="round" d="M9.75 1.5h1.5a1 1 0 0 1 1 1v10a1 1 0 0 1 -1 1h-8.5a1 1 0 0 1 -1 -1v-10a1 1 0 0 1 1 -1h1.5" stroke-width="1"></path>
    <path id="vector_2" fill="#ffffff" d="M8.5 0.5h-3a1 1 0 0 0 -1 1V2a1 1 0 0 0 1 1h3a1 1 0 0 0 1 -1v-0.5a1 1 0 0 0 -1 -1Z" stroke-width="1"></path>
    <path id="vector_3" stroke="#4147d5" stroke-linecap="round" stroke-linejoin="round" d="M8.5 0.5h-3a1 1 0 0 0 -1 1V2a1 1 0 0 0 1 1h3a1 1 0 0 0 1 -1v-0.5a1 1 0 0 0 -1 -1Z" stroke-width="1"></path>
    <path id="union" fill="#ffffff" d="M6.303 5.21a0.43 0.43 0 0 0 -0.43 0.43v1.207l-1.207 0a0.43 0.43 0 0 0 -0.43 0.43v1.395c0 0.237 0.193 0.43 0.43 0.43h1.207v1.207c0 0.237 0.193 0.43 0.43 0.43h1.395a0.43 0.43 0 0 0 0.43 -0.43V9.1h1.207a0.43 0.43 0 0 0 0.43 -0.43V7.277a0.43 0.43 0 0 0 -0.43 -0.429l-1.207 0V5.639a0.43 0.43 0 0 0 -0.43 -0.429H6.303Z" stroke-width="1"></path>
    <path id="union_2" stroke="#4147d5" stroke-linecap="round" stroke-linejoin="round" d="M6.303 5.21a0.43 0.43 0 0 0 -0.43 0.43v1.207l-1.207 0a0.43 0.43 0 0 0 -0.43 0.43v1.395c0 0.237 0.193 0.43 0.43 0.43h1.207v1.207c0 0.237 0.193 0.43 0.43 0.43h1.395a0.43 0.43 0 0 0 0.43 -0.43V9.101h1.207a0.43 0.43 0 0 0 0.43 -0.429V7.277a0.43 0.43 0 0 0 -0.43 -0.43l-1.207 0V5.64a0.43 0.43 0 0 0 -0.43 -0.429H6.303Z" stroke-width="1"></path>
  </g>
</svg>