<svg xmlns="http://www.w3.org/2000/svg" fill="none" viewBox="0 0 14 14" id="Nurse-Assistant-Emergency--Streamline-Core">
  <desc>
    Nurse Assistant Emergency Streamline Icon: https://streamlinehq.com
  </desc>
  <g id="nurse-assistant-emergency">
    <path id="ellipse 785" fill="#d7e0ff" d="M5.031 7.531a4.5 4.5 0 0 0 -4.5 4.5v0.5h8.973a4.5 4.5 0 0 0 -4.473 -5Z" stroke-width="1"></path>
    <path id="vector" fill="#d7e0ff" d="M5.031 5.531a2.5 2.5 0 1 0 0 -5 2.5 2.5 0 0 0 0 5Z" stroke-width="1"></path>
    <path id="vector_2" stroke="#4147d5" stroke-linecap="round" stroke-linejoin="round" d="M5.031 5.531a2.5 2.5 0 1 0 0 -5 2.5 2.5 0 0 0 0 5Z" stroke-width="1"></path>
    <path id="vector_3" stroke="#4147d5" stroke-linecap="round" stroke-linejoin="round" d="M5.528 12.531H0.531l0 -0.542a4.51 4.51 0 0 1 5.116 -4.422" stroke-width="1"></path>
    <path id="union" fill="#ffffff" d="M9.438 7.031a0.5 0.5 0 0 0 -0.5 0.5v1.407l-1.407 0a0.5 0.5 0 0 0 -0.5 0.5v1.624a0.5 0.5 0 0 0 0.5 0.5h1.407v1.407a0.5 0.5 0 0 0 0.5 0.5h1.624a0.5 0.5 0 0 0 0.5 -0.5v-1.406h1.407a0.5 0.5 0 0 0 0.5 -0.5V9.438a0.5 0.5 0 0 0 -0.5 -0.5l-1.406 0V7.53a0.5 0.5 0 0 0 -0.5 -0.5H9.437Z" stroke-width="1"></path>
    <path id="union_2" stroke="#4147d5" stroke-linecap="round" stroke-linejoin="round" d="M9.438 7.031a0.5 0.5 0 0 0 -0.5 0.5v1.407l-1.407 0a0.5 0.5 0 0 0 -0.5 0.5v1.624a0.5 0.5 0 0 0 0.5 0.5h1.407v1.407a0.5 0.5 0 0 0 0.5 0.5h1.624a0.5 0.5 0 0 0 0.5 -0.5v-1.406h1.407a0.5 0.5 0 0 0 0.5 -0.5V9.438a0.5 0.5 0 0 0 -0.5 -0.5l-1.406 0V7.53a0.5 0.5 0 0 0 -0.5 -0.5H9.437Z" stroke-width="1"></path>
  </g>
</svg>