<svg xmlns="http://www.w3.org/2000/svg" fill="none" viewBox="0 0 14 14" id="Stethoscope--Streamline-Core">
  <desc>
    Stethoscope Streamline Icon: https://streamlinehq.com
  </desc>
  <g id="stethoscope--instrument-health-medical-stethoscope">
    <path id="Ellipse 902" fill="#d7e0ff" transform="rotate(12.898 11.32 4.658)" d="M9.581 4.658a1.738 1.738 0 1 0 3.476 0 1.738 1.738 0 1 0-3.476 0"></path>
    <path id="Ellipse 903" stroke="#4147d5" stroke-linecap="round" stroke-linejoin="round" transform="rotate(12.898 11.32 4.658)" d="M9.581 4.658a1.738 1.738 0 1 0 3.476 0 1.738 1.738 0 1 0-3.476 0"></path>
    <path id="Vector 2103" stroke="#4147d5" stroke-linecap="round" stroke-linejoin="round" d="M1.73926 1.65625H.645508V5.25c0 1.77767 1.441082 3.21875 3.218752 3.21875v0c1.77766 0 3.21875-1.44108 3.21875-3.21875V1.65625H5.98926"></path>
    <path id="Vector 2104" stroke="#4147d5" stroke-linecap="round" stroke-linejoin="round" d="M3.92676 8.5v1.20776c0 2.04264 1.65587 3.69844 3.69848 3.69844v0c2.04262 0 3.69846-1.6558 3.69846-3.69844V6.59375"></path>
  </g>
</svg>