<svg xmlns="http://www.w3.org/2000/svg" fill="none" viewBox="0 0 48 48" id="Enter-Key--Streamline-Kameleon">
  <desc>
    Enter Key Streamline Icon: https://streamlinehq.com
  </desc>
  <path fill="#fabc3d" d="M24 47.9977c13.2549 0 24 -10.7446 24 -23.9988C48 10.7446 37.2549 0 24 0S0 10.7446 0 23.9989c0 13.2542 10.7451 23.9988 24 23.9988Z" stroke-width="1"></path>
  <path fill="#ffffff" d="M25.3089 10.0356c-0.7231 0 -1.3091 0.5861 -1.3091 1.3091v7.8541c0 0.7231 -0.5861 1.3091 -1.3091 1.3091H11.3452c-0.723 0 -1.3091 0.586 -1.3091 1.309v14.8357c0 0.723 0.5861 1.309 1.3091 1.309h25.3091c0.7231 0 1.3091 -0.586 1.3091 -1.309V11.3447c0 -0.723 -0.586 -1.3091 -1.3091 -1.3091H25.3089Z" stroke-width="1"></path>
  <path fill="#5b5c5f" d="M32.7273 25.3076v6.1088c0 0.4822 -0.3906 0.8727 -0.8728 0.8727h-4.3636v-1.7454L24 33.1618l3.4909 2.6181v-1.7454h5.2364c0.9639 0 1.7454 -0.7815 1.7454 -1.7454v-6.9815h-1.7454Z" stroke-width="1"></path>
  <path fill="#5b5c5f" d="M14.946 26.4243h1.5573v0.8412H14.946v0.575h1.6929v0.9171h-2.675V24.916h2.675v0.9114H14.946v0.5969Z" stroke-width="1"></path>
  <path fill="#5b5c5f" d="M17.1538 24.916h0.9224l0.928 1.6388 0.3255 0.7705 0.0271 -0.0053c-0.0052 0 -0.103 -0.6618 -0.1087 -0.6618v-1.7417h0.9661v3.8416h-0.9822l-0.8683 -1.514 -0.3364 -0.7705 -0.027 0.0052 0.1248 0.7435v1.5358h-0.9713V24.916Z" stroke-width="1"></path>
  <path fill="#5b5c5f" d="M22.596 25.8335v2.9245h-0.9821v-2.9245h-1.0201v-0.9224h3.0223v0.9224H22.596Z" stroke-width="1"></path>
  <path fill="#5b5c5f" d="M24.9778 26.4243h1.5572v0.8412h-1.5572v0.575h1.6929v0.9171h-2.6751V24.916h2.6751v0.9114h-1.6929v0.5969Z" stroke-width="1"></path>
  <path fill="#5b5c5f" d="M28.3423 27.5369h-0.1736v1.2207h-0.9822V24.916h1.5359c0.7923 0 1.4054 0.3635 1.4272 1.2644 0 0.7107 -0.2876 1.1121 -0.754 1.2587l1.0472 1.3185H29.232l-0.8897 -1.2207Zm0.3958 -0.8355c0.613 0 0.613 -0.8792 0 -0.8792h-0.5699v0.8792h0.5699Z" stroke-width="1"></path>
</svg>