<svg xmlns="http://www.w3.org/2000/svg" fill="none" viewBox="0 0 14 14" id="Add-1--Streamline-Core">
  <desc>
    Add 1 Streamline Icon: https://streamlinehq.com
  </desc>
  <g id="add-1--expand-cross-buttons-button-more-remove-plus-add-+-mathematics-math">
    <path id="Vector" fill="#7af1ff" d="M7 14c3.866 0 7 -3.134 7 -7 0 -3.86599 -3.134 -7 -7 -7 -3.86599 0 -7 3.13401 -7 7 0 3.866 3.13401 7 7 7Z" stroke-width="1"></path>
    <path id="Union" fill="#0c098c" fill-rule="evenodd" d="M7.625 1c0 -0.345178 -0.27982 -0.625 -0.625 -0.625S6.375 0.654822 6.375 1v5.33496H1c-0.345178 0 -0.625 0.27982 -0.625 0.625s0.279822 0.625 0.625 0.625h5.375V13c0 0.3452 0.27982 0.625 0.625 0.625s0.625 -0.2798 0.625 -0.625V7.58496H13c0.3452 0 0.625 -0.27982 0.625 -0.625s-0.2798 -0.625 -0.625 -0.625H7.625V1Z" clip-rule="evenodd" stroke-width="1"></path>
  </g>
</svg>