<svg xmlns="http://www.w3.org/2000/svg" fill="none" viewBox="0 0 14 14" id="Add-Circle--Streamline-Core">
  <desc>
    Add Circle Streamline Icon: https://streamlinehq.com
  </desc>
  <g id="add-circle--button-remove-cross-add-buttons-plus-circle-+-mathematics-math">
    <path id="Vector" fill="#fddc5c" d="M7 13.375c3.5208 0 6.375 -2.8542 6.375 -6.375C13.375 3.47918 10.5208 0.625 7 0.625 3.47918 0.625 0.625 3.47918 0.625 7c0 3.5208 2.85418 6.375 6.375 6.375Z" stroke-width="1"></path>
    <path id="Union" fill="#0c098c" fill-rule="evenodd" d="M7 1.25C3.82436 1.25 1.25 3.82436 1.25 7c0 3.1756 2.57436 5.75 5.75 5.75 3.1756 0 5.75 -2.5744 5.75 -5.75 0 -3.17564 -2.5744 -5.75 -5.75 -5.75ZM0 7c0 -3.86599 3.13401 -7 7 -7 3.866 0 7 3.13401 7 7 0 3.866 -3.134 7 -7 7 -3.86599 0 -7 -3.134 -7 -7Zm7 -3.75c0.41421 0 0.75 0.33579 0.75 0.75v2.25H10c0.4142 0 0.75 0.33579 0.75 0.75s-0.3358 0.75 -0.75 0.75H7.75V10c0 0.4142 -0.33579 0.75 -0.75 0.75s-0.75 -0.3358 -0.75 -0.75V7.75H4c-0.41421 0 -0.75 -0.33579 -0.75 -0.75s0.33579 -0.75 0.75 -0.75h2.25V4c0 -0.41421 0.33579 -0.75 0.75 -0.75Z" clip-rule="evenodd" stroke-width="1"></path>
  </g>
</svg>