<svg xmlns="http://www.w3.org/2000/svg" fill="none" viewBox="0 0 14 14" id="Align-Center--Streamline-Core">
  <desc>
    Align Center Streamline Icon: https://streamlinehq.com
  </desc>
  <g id="align-center--text-alignment-align-paragraph-centered-formatting-center">
    <path id="Vector" fill="#fddc5c" d="M13.625 1H0.375v12h13.25V1Z" stroke-width="1"></path>
    <path id="Union" fill="#0c098c" fill-rule="evenodd" d="M0.375 1C0.375 0.654822 0.654822 0.375 1 0.375h12c0.3452 0 0.625 0.279822 0.625 0.625 0 0.34518 -0.2798 0.625 -0.625 0.625H1C0.654822 1.625 0.375 1.34518 0.375 1Zm1.5 3c0 -0.34518 0.27982 -0.625 0.625 -0.625h9c0.3452 0 0.625 0.27982 0.625 0.625s-0.2798 0.625 -0.625 0.625h-9c-0.34518 0 -0.625 -0.27982 -0.625 -0.625ZM4 6.375c-0.34518 0 -0.625 0.27982 -0.625 0.625s0.27982 0.625 0.625 0.625h6c0.3452 0 0.625 -0.27982 0.625 -0.625s-0.2798 -0.625 -0.625 -0.625H4ZM0.375 13c0 -0.3452 0.279822 -0.625 0.625 -0.625h12c0.3452 0 0.625 0.2798 0.625 0.625s-0.2798 0.625 -0.625 0.625H1c-0.345178 0 -0.625 -0.2798 -0.625 -0.625ZM2.5 9.375c-0.34518 0 -0.625 0.27982 -0.625 0.625 0 0.3452 0.27982 0.625 0.625 0.625h9c0.3452 0 0.625 -0.2798 0.625 -0.625 0 -0.34518 -0.2798 -0.625 -0.625 -0.625h-9Z" clip-rule="evenodd" stroke-width="1"></path>
  </g>
</svg>