<svg xmlns="http://www.w3.org/2000/svg" fill="none" viewBox="0 0 14 14" id="Attribution--Streamline-Core">
  <desc>
    Attribution Streamline Icon: https://streamlinehq.com
  </desc>
  <g id="attribution">
    <path id="Vector" fill="#ff7972" d="M7 13.375c3.5208 0 6.375 -2.8542 6.375 -6.375C13.375 3.47918 10.5208 0.625 7 0.625 3.47918 0.625 0.625 3.47918 0.625 7c0 3.5208 2.85418 6.375 6.375 6.375Z" stroke-width="1"></path>
    <path id="Union" fill="#0c098c" fill-rule="evenodd" d="M7 1.25C3.82436 1.25 1.25 3.82436 1.25 7c0 3.1756 2.57436 5.75 5.75 5.75 3.1756 0 5.75 -2.5744 5.75 -5.75 0 -3.17564 -2.5744 -5.75 -5.75 -5.75ZM0 7c0 -3.86599 3.13401 -7 7 -7 3.866 0 7 3.13401 7 7 0 3.866 -3.134 7 -7 7 -3.86599 0 -7 -3.134 -7 -7Zm7.98062 -1.80035C8.4449 4.88498 8.75 4.35312 8.75 3.75 8.75 2.7835 7.9665 2 7 2s-1.75 0.7835 -1.75 1.75c0 0.60312 0.3051 1.13498 0.76938 1.44965C5.12609 5.58094 4.5 6.46736 4.5 7.5v1.25c0 0.27614 0.22386 0.5 0.5 0.5h0.54339l0.20866 2.2953c0.02342 0.2575 0.23935 0.4547 0.49795 0.4547h1.5c0.2586 0 0.47453 -0.1972 0.49795 -0.4547L8.45661 9.25H9c0.27614 0 0.5 -0.22386 0.5 -0.5V7.5c0 -1.03264 -0.62609 -1.91905 -1.51938 -2.30035Z" clip-rule="evenodd" stroke-width="1"></path>
  </g>
</svg>