<svg xmlns="http://www.w3.org/2000/svg" fill="none" viewBox="0 0 14 14" id="Color-Palette--Streamline-Core">
  <desc>
    Color Palette Streamline Icon: https://streamlinehq.com
  </desc>
  <g id="color-palette--color-palette-company-office-supplies-work">
    <path id="Union" fill="#ff7972" fill-rule="evenodd" d="M10.9138 5.31932c0.0066 -0.0929 0.01 -0.18669 0.01 -0.28126 0 -2.16692 -1.75667 -3.92356 -3.92359 -3.92356S3.07666 2.87114 3.07666 5.03806c0 0.09457 0.00335 0.18836 0.00993 0.28125C1.64347 5.8989 0.624512 7.31127 0.624512 8.96164c0 2.16696 1.756638 3.92356 3.923548 3.92356 0.92784 0 1.78046 -0.3221 2.45216 -0.8605 0.6717 0.5384 1.52431 0.8605 2.45214 0.8605 2.16694 0 3.92354 -1.7566 3.92354 -3.92356 0 -1.65037 -1.0189 -3.06274 -2.4621 -3.64232Z" clip-rule="evenodd" stroke-width="1"></path>
    <path id="Subtract" fill="#0c098c" fill-rule="evenodd" d="M7.00021 1.7395c-1.63265 0 -2.98826 1.18615 -3.25208 2.7437 0.25969 -0.04608 0.52701 -0.07011 0.79994 -0.07011 0.903 0 1.74455 0.26314 2.45214 0.71692 0.7076 -0.45379 1.54914 -0.71692 2.45215 -0.71692 0.27293 0 0.54024 0.02404 0.79994 0.07011 -0.26382 -1.55755 -1.61943 -2.7437 -3.25209 -2.7437Zm0 -1.249998c-2.4737 0 -4.48619 1.974678 -4.54713 4.433708C0.995253 5.68102 -0.000488281 7.20504 -0.000488281 8.96164c0 2.51206 2.036458281 4.54856 4.548558281 4.54856 0.903 0 1.74455 -0.2631 2.45214 -0.7169 0.7076 0.4538 1.54914 0.7169 2.45215 0.7169 2.51214 0 4.54854 -2.0365 4.54854 -4.54856 0 -1.7566 -0.9957 -3.28063 -2.4536 -4.03843C11.4864 2.46418 9.47391 0.489502 7.00021 0.489502ZM1.24951 8.96164c0 -1.10365 0.54202 -2.0807 1.37438 -2.67949 0.34467 1.21479 1.1815 2.22262 2.28134 2.79434 0.02693 1.08661 0.43492 2.07861 1.09538 2.84751 -0.43826 0.2153 -0.93128 0.3362 -1.45254 0.3362 -1.82175 0 -3.29856 -1.4768 -3.29856 -3.29856ZM7.99982 11.924c0.66046 -0.7689 1.06844 -1.7609 1.09537 -2.84751 1.09981 -0.57172 1.93671 -1.57955 2.28131 -2.79433 0.8324 0.59878 1.3744 1.57583 1.3744 2.67948 0 1.82176 -1.4768 3.29856 -3.29854 3.29856 -0.52126 0 -1.01427 -0.1209 -1.45254 -0.3362Zm-0.99964 -5.71917c-0.66146 0.59203 -1.11112 1.41479 -1.22284 2.34132 0.38301 0.13204 0.79431 0.20382 1.22284 0.20382 0.42854 0 0.83984 -0.07178 1.22284 -0.20382 -0.11171 -0.92653 -0.56138 -1.74929 -1.22284 -2.34132Z" clip-rule="evenodd" stroke-width="1"></path>
  </g>
</svg>