<svg xmlns="http://www.w3.org/2000/svg" fill="none" viewBox="0 0 14 14" id="Crown--Streamline-Core">
  <desc>
    Crown Streamline Icon: https://streamlinehq.com
  </desc>
  <g id="crown--reward-social-rating-media-queen-vip-king-crown">
    <path id="Vector" fill="#79ee8d" d="m13.376 4.0573 -2.9428 2.94277 -3.43318 -4.90461 -3.43323 4.90461L0.624023 4.0573v6.376c0 0.3902 0.155021 0.7645 0.430957 1.0404 0.27594 0.276 0.65019 0.431 1.04043 0.431h9.80919c0.3903 0 0.7645 -0.155 1.0405 -0.431 0.2759 -0.2759 0.4309 -0.6502 0.4309 -1.0404v-6.376Z" stroke-width="1"></path>
    <path id="Union" fill="#0c098c" fill-rule="evenodd" d="M7.26753 1.53055c0.06172 0.02915 0.1192 0.06869 0.1696 0.11811 0.03178 0.031 0.05968 0.06487 0.0836 0.10088L10.518 6.03142l2.4161 -2.416c0.1787 -0.17875 0.4475 -0.23223 0.6811 -0.13549 0.2335 0.09674 0.3858 0.32464 0.3858 0.57743v6.37604c0 0.5559 -0.2209 1.0892 -0.614 1.4823 -0.3932 0.3932 -0.9264 0.614 -1.4824 0.614H2.09541c-0.556 0 -1.08922 -0.2208 -1.48237 -0.614 -0.393148 -0.3931 -0.614016562 -0.9263 -0.614016562 -1.4823V4.05736c0 -0.25279 0.152276562 -0.48069 0.385822562 -0.57743 0.233547 -0.09674 0.50237 -0.04326 0.681124 0.13549l2.416 2.416 2.99732 -4.28188c0.02392 -0.03601 0.05182 -0.06988 0.0836 -0.10089 0.0504 -0.04941 0.10788 -0.08895 0.1696 -0.1181 0.08534 -0.04054 0.17677 -0.06017 0.26752 -0.06009 0.09075 -0.00008 0.18218 0.01955 0.26752 0.06009ZM7.00001 3.1854l-2.9212 4.17314c-0.10595 0.15136 -0.27345 0.24809 -0.4575 0.2642 -0.18406 0.01612 -0.36581 -0.05003 -0.49646 -0.18067L1.24902 5.56624v4.86716c0 0.2244 0.08918 0.4397 0.2479 0.5984 0.15873 0.1588 0.37401 0.2479 0.59849 0.2479h9.80919c0.2245 0 0.4398 -0.0891 0.5985 -0.2479 0.1587 -0.1587 0.2479 -0.374 0.2479 -0.5984V5.56624l-1.8758 1.87583c-0.1307 0.13064 -0.3124 0.19679 -0.4965 0.18067 -0.184 -0.01611 -0.3515 -0.11284 -0.45749 -0.2642L7.00001 3.1854Z" clip-rule="evenodd" stroke-width="1"></path>
  </g>
</svg>