<svg xmlns="http://www.w3.org/2000/svg" fill="none" viewBox="0 0 14 14" id="File-Remove-Alternate--Streamline-Core">
  <desc>
    File Remove Alternate Streamline Icon: https://streamlinehq.com
  </desc>
  <g id="file-remove-alternate--file-common-remove-minus-subtract">
    <path id="Subtract" fill="#79ee8d" fill-rule="evenodd" d="M2.375 8.75H5.75c1.10457 0 2 0.89543 2 2 0 1.0199 -0.76342 1.8615 -1.75 1.9845v0.6405h6.375c0.2652 0 0.5196 -0.1054 0.7071 -0.2929s0.2929 -0.4419 0.2929 -0.7071v-8.25l-3.5 -3.5h-6.5c-0.26522 0 -0.51957 0.105357 -0.70711 0.292893 -0.18753 0.187537 -0.29289 0.441887 -0.29289 0.707107V8.75Z" clip-rule="evenodd" stroke-width="1"></path>
    <path id="Union" fill="#0c098c" fill-rule="evenodd" d="M3.10983 1.35983c0.07033 -0.07032 0.16571 -0.10983 0.26517 -0.10983h6.24112L12.75 4.38388V12.375c0 0.0995 -0.0395 0.1948 -0.1098 0.2652 -0.0704 0.0703 -0.1657 0.1098 -0.2652 0.1098h-7.75c-0.34518 0 -0.625 0.2798 -0.625 0.625s0.27982 0.625 0.625 0.625h7.75c0.431 0 0.8443 -0.1712 1.149 -0.476 0.3048 -0.3047 0.476 -0.718 0.476 -1.149v-8.25c0 -0.16576 -0.0658 -0.32473 -0.1831 -0.44194l-3.5 -3.500002C10.1997 0.0658481 10.0408 0 9.875 0h-6.5c-0.43098 0 -0.8443 0.171205 -1.14905 0.475951C1.9212 0.780698 1.75 1.19402 1.75 1.625v6.5c0 0.34518 0.27982 0.625 0.625 0.625S3 8.47018 3 8.125v-6.5c0 -0.09946 0.03951 -0.19484 0.10983 -0.26517ZM0.75 10c-0.414214 0 -0.75 0.3358 -0.75 0.75s0.335786 0.75 0.75 0.75h5c0.41421 0 0.75 -0.3358 0.75 -0.75S6.16421 10 5.75 10h-5Z" clip-rule="evenodd" stroke-width="1"></path>
  </g>
</svg>