<svg xmlns="http://www.w3.org/2000/svg" fill="none" viewBox="0 0 14 14" id="Give-Gift--Streamline-Core">
  <desc>
    Give Gift Streamline Icon: https://streamlinehq.com
  </desc>
  <g id="give-gift--reward-social-rating-media-queen-vip-gift">
    <path id="Vector 3865" fill="#7af1ff" d="m10.7917 13.3749 -6.44261 0c-0.46787 0 -0.92094 -0.164 -1.28036 -0.4636L0.00037241 10.8542 0.000219434 7.375H3.2966c0.53043 0 1.03914 0.21071 1.41421 0.58579L5.87502 9.125c0.41422 0.41421 0.41422 1.0858 0 1.5 -0.1155 0.1155 -0.25101 0.1988 -0.39537 0.2499h4.47867c0.92048 0 1.66668 0.7462 1.66668 1.6666 0 0.4603 -0.3731 0.8334 -0.8333 0.8334Z" stroke-width="1"></path>
    <path id="Union" fill="#0c098c" fill-rule="evenodd" d="M9.075 0.350051c-0.28995 -0.3865989 -0.8384 -0.464949 -1.225 -0.175 -0.3866 0.28995 -0.46495 0.838399 -0.175 1.224999l0.825 1.1H6.375c-0.34518 0 -0.625 0.27982 -0.625 0.625v3.20763l2.43705 2.41737H13.375c0.3452 0 0.625 -0.27982 0.625 -0.625v-5c0 -0.34518 -0.2798 -0.625 -0.625 -0.625H11.25l0.825 -1.1c0.2899 -0.3866 0.2116 -0.935049 -0.175 -1.224999 -0.3866 -0.289949 -0.9351 -0.2115989 -1.225 0.175l-0.8 1.066669 -0.8 -1.066669ZM0 7.375c0 -0.34518 0.279822 -0.625 0.625 -0.625h2.67157c0.6962 0 1.36387 0.27656 1.85616 0.76884l1.16421 1.16422c0.42516 0.42516 0.57573 1.02094 0.45171 1.56694h3.18968c1.26567 0 2.29167 1.026 2.29167 2.2917 0 0.8054 -0.6529 1.4583 -1.4583 1.4583l-6.4426 0c-0.61408 0 -1.20873 -0.2153 -1.68048 -0.6084L0.224885 11.3551c-0.2651733 -0.2209 -0.3010008 -0.615 -0.080023 -0.8802 0.220977 -0.2652 0.61508 -0.301 0.880258 -0.08l2.44373 2.0364c0.2471 0.2059 0.55859 0.3187 0.88025 0.3187l6.4426 0c0.115 0 0.2083 -0.0933 0.2083 -0.2083 0 -0.5753 -0.4664 -1.0417 -1.04167 -1.0417H5.57424c-0.56565 0.1558 -1.19666 0.0115 -1.64118 -0.4331l-0.75 -0.75c-0.24408 -0.244 -0.24408 -0.63976 0 -0.88384 0.24408 -0.24408 0.6398 -0.24408 0.88388 0l0.75 0.75004c0.12181 0.1218 0.29781 0.1564 0.4504 0.1038l0.0067 -0.0024c0.05803 -0.0211 0.11248 -0.0549 0.15902 -0.1014 0.17013 -0.1702 0.17013 -0.44602 0 -0.61616L4.26884 8.40273C4.01098 8.14487 3.66125 8 3.29657 8H0.625C0.279822 8 0 7.72018 0 7.375Z" clip-rule="evenodd" stroke-width="1"></path>
  </g>
</svg>