<svg xmlns="http://www.w3.org/2000/svg" fill="none" viewBox="0 0 14 14" id="Invisible-2--Streamline-Core">
  <desc>
    Invisible 2 Streamline Icon: https://streamlinehq.com
  </desc>
  <g id="invisible-2">
    <path id="Vector" fill="#7af1ff" d="M7 14c3.866 0 7 -3.134 7 -7 0 -3.86599 -3.134 -7 -7 -7 -3.86599 0 -7 3.13401 -7 7 0 3.866 3.13401 7 7 7Z" stroke-width="1"></path>
    <path id="Union" fill="#0c098c" fill-rule="evenodd" d="M1.26459 3.43569c0.42556 -0.22898 0.95616 -0.06963 1.18515 0.35592 0.81479 1.51423 2.52933 2.59083 4.55055 2.59083 2.02122 0 3.73581 -1.0766 4.55051 -2.59083 0.229 -0.42555 0.7596 -0.5849 1.1852 -0.35592 0.4255 0.22899 0.5849 0.75959 0.3559 1.18515 -0.2119 0.39373 -0.4654 0.76311 -0.7548 1.10347l1.4528 1.2892c0.2582 0.2291 0.2817 0.62413 0.0526 0.88231 -0.2291 0.25818 -0.6241 0.28175 -0.8823 0.05264l-1.5226 -1.35111c-0.5727 0.45956 -1.2267 0.83048 -1.93746 1.09253l0.74376 1.87311c0.1274 0.32082 -0.0294 0.68411 -0.35022 0.81151 -0.32081 0.1274 -0.68415 -0.0294 -0.81154 -0.3502l-0.79623 -2.00527c-0.41704 0.07451 -0.84691 0.11341 -1.28562 0.11341 -0.4402 0 -0.87149 -0.03916 -1.28986 -0.11416L4.9139 10.0243c-0.12739 0.3208 -0.49073 0.4776 -0.81154 0.3502 -0.32081 -0.1274 -0.47761 -0.49069 -0.35023 -0.81151l0.74435 -1.87458c-0.7093 -0.262 -1.36207 -0.63248 -1.93381 -1.09129L1.03984 7.94846c-0.258179 0.22911 -0.653205 0.20554 -0.882312 -0.05264 -0.2291074 -0.25818 -0.205538 -0.65321 0.052644 -0.88231L1.66327 5.72404c-0.28936 -0.34028 -0.54279 -0.70958 -0.754597 -1.1032 -0.228984 -0.42556 -0.069634 -0.95616 0.355917 -1.18515Z" clip-rule="evenodd" stroke-width="1"></path>
  </g>
</svg>