<svg xmlns="http://www.w3.org/2000/svg" fill="none" viewBox="0 0 14 14" id="Layers-1--Streamline-Core">
  <desc>
    Layers 1 Streamline Icon: https://streamlinehq.com
  </desc>
  <g id="layers-1--design-layer-layers-pile-stack-align">
    <path id="Vector" fill="#fddc5c" d="M7.43533 7.40008c-0.13738 0.06441 -0.28556 0.09764 -0.43533 0.09764 -0.14978 0 -0.29795 -0.03323 -0.43533 -0.09764l-5.27956 -2.64c-0.08574 -0.04668 -0.15778 -0.11814 -0.20812 -0.20642C1.02665 4.46538 1 4.36375 1 4.26008c0 -0.10366 0.02665 -0.20529 0.07699 -0.29357s0.12238 -0.15974 0.20812 -0.20643l5.27956 -2.66c0.13738 -0.0644 0.28555 -0.09764 0.43533 -0.09764 0.14977 0 0.29795 0.03324 0.43533 0.09764l5.27957 2.64c0.0857 0.04669 0.1578 0.11815 0.2081 0.20643 0.0503 0.08828 0.077 0.18991 0.077 0.29357 0 0.10367 -0.0267 0.2053 -0.077 0.29358s-0.1224 0.15974 -0.2081 0.20642l-5.27957 2.66Z" stroke-width="1"></path>
    <path id="Union" fill="#0c098c" fill-rule="evenodd" d="M6.83636 1.66311 1.68233 4.25986l5.15337 2.5769c0.05375 0.02426 0.1095 0.03596 0.16443 0.03596 0.05471 0 0.11022 -0.0116 0.16377 -0.03566l5.154 -2.59676 -5.15333 -2.57689c-0.05375 -0.02426 -0.1095 -0.03597 -0.16444 -0.03597 -0.05471 0 -0.11022 0.01161 -0.16377 0.03567ZM6.2995 0.534186c0.21929 -0.102807 0.45793 -0.156745 0.70063 -0.156745 0.24271 0 0.48135 0.053938 0.70064 0.156745l0.01422 0.006889L12.9946 3.18108c0.0065 0.00325 0.0129 0.00662 0.0193 0.01011 0.1921 0.10457 0.3468 0.2609 0.4522 0.44573 0.1052 0.18456 0.159 0.39321 0.159 0.60316 0 0.20995 -0.0538 0.4186 -0.159 0.60317 -0.1054 0.18483 -0.2601 0.34116 -0.4522 0.44573 -0.0058 0.00318 -0.0117 0.00627 -0.0177 0.00926l-5.27952 2.66 -0.01591 0.00774c-0.21929 0.10281 -0.45793 0.15674 -0.70064 0.15674 -0.2427 0 -0.48134 -0.05393 -0.70063 -0.15674l-0.01422 -0.00689 -5.27957 -2.64c-0.006512 -0.00326 -0.012971 -0.00663 -0.019368 -0.01011 -0.192036 -0.10458 -0.346761 -0.2609 -0.452153 -0.44573 -0.105239 -0.18457 -0.159054 -0.39322 -0.159054 -0.60317 0 -0.20995 0.053815 -0.4186 0.159054 -0.60316 0.105392 -0.18483 0.260118 -0.34116 0.452153 -0.44573 0.005844 -0.00318 0.011738 -0.00627 0.017678 -0.00927L6.28359 0.541924 6.2995 0.534186Zm7.2593 6.535604c0.1548 0.30852 0.0302 0.68412 -0.2784 0.83893L7.68044 10.7187c-0.00691 0.0035 -0.01389 0.0068 -0.02093 0.01 -0.21171 0.0966 -0.44168 0.1466 -0.67437 0.1466s-0.46267 -0.05 -0.67438 -0.1466c-0.00745 -0.0034 -0.01483 -0.0069 -0.02214 -0.0106L0.718625 7.90811C0.410444 7.75264 0.28665 7.37677 0.442124 7.06859c0.155473 -0.30818 0.53134 -0.43198 0.839526 -0.2765l5.5564 2.80313c0.04647 0.01982 0.0965 0.03006 0.14709 0.03006 0.05075 0 0.10095 -0.01031 0.14756 -0.03026l5.5871 -2.80354c0.3085 -0.15481 0.6841 -0.0302 0.839 0.27831Zm-0.2784 3.58891c0.3086 -0.1548 0.4332 -0.5304 0.2784 -0.83891 -0.1549 -0.30851 -0.5305 -0.43312 -0.839 -0.27831L7.1327 12.345c-0.04661 0.02 -0.09681 0.0303 -0.14756 0.0303 -0.05059 0 -0.10062 -0.0103 -0.14709 -0.0301l-5.5564 -2.80311c-0.308186 -0.15548 -0.684053 -0.03168 -0.839526 0.2765 -0.155474 0.30821 -0.03168 0.68401 0.276501 0.83951l5.569995 2.81c0.00731 0.0037 0.01469 0.0072 0.02214 0.0106 0.21171 0.0966 0.44169 0.1466 0.67438 0.1466 0.23269 0 0.46266 -0.05 0.67437 -0.1466 0.00704 -0.0032 0.01402 -0.0065 0.02093 -0.01l5.59996 -2.81Z" clip-rule="evenodd" stroke-width="1"></path>
  </g>
</svg>