<svg xmlns="http://www.w3.org/2000/svg" fill="none" viewBox="0 0 14 14" id="Lightbulb--Streamline-Core">
  <desc>
    Lightbulb Streamline Icon: https://streamlinehq.com
  </desc>
  <g id="lightbulb--lighting-light-incandescent-bulb-lights">
    <path id="Ellipse 1789" fill="#ff7972" d="M9 9.15724c1.4817 -0.73635 2.5 -2.26538 2.5 -4.03224 0 -2.48528 -2.01472 -4.5 -4.5 -4.5s-4.5 2.01472 -4.5 4.5c0 1.76686 1.01828 3.29589 2.5 4.03224V10.25c0 0.2761 0.22386 0.5 0.5 0.5h3c0.27614 0 0.5 -0.2239 0.5 -0.5V9.15724Z" stroke-width="1"></path>
    <path id="Union" fill="#0c098c" fill-rule="evenodd" d="M3.125 5.125C3.125 2.9849 4.8599 1.25 7 1.25s3.875 1.7349 3.875 3.875c0 1.52055 -0.87571 2.83771 -2.15315 3.47254 -0.21248 0.1056 -0.34685 0.32242 -0.34685 0.5597v0.96776h-2.75v-0.96776c0 -0.23728 -0.13437 -0.4541 -0.34685 -0.5597C4.00071 7.96271 3.125 6.64555 3.125 5.125ZM7 0C4.16954 0 1.875 2.29454 1.875 5.125c0 1.87195 1.0037 3.50847 2.5 4.40249V10.25c0 0.6213 0.50368 1.125 1.125 1.125h3c0.62132 0 1.125 -0.5037 1.125 -1.125v-0.72251c1.4963 -0.89402 2.5 -2.53054 2.5 -4.40249C12.125 2.29454 9.83046 0 7 0ZM5.25 12.25c-0.48325 0 -0.875 0.3918 -0.875 0.875s0.39175 0.875 0.875 0.875h3.5c0.48325 0 0.875 -0.3918 0.875 -0.875s-0.39175 -0.875 -0.875 -0.875h-3.5Z" clip-rule="evenodd" stroke-width="1"></path>
  </g>
</svg>