<svg xmlns="http://www.w3.org/2000/svg" fill="none" viewBox="0 0 14 14" id="Line-Arrow-Transfer-Diagonal-3--Streamline-Core">
  <desc>
    Line Arrow Transfer Diagonal 3 Streamline Icon: https://streamlinehq.com
  </desc>
  <g id="line-arrow-transfer-diagonal-3--arrows-arrow-server-data-diagonal-internet-transfer-network">
    <path id="Ellipse 1802" fill="#ff7972" d="M0 7a7 7 0 1 0 14 0A7 7 0 1 0 0 7" stroke-width="1"></path>
    <path id="Union" fill="#0c098c" fill-rule="evenodd" d="M9.57758 0.385761c-0.0305 -0.073716 -0.07571 -0.14278 -0.13564 -0.202703C9.3199 0.0610194 9.15995 0 9 0H5c-0.34518 0 -0.625 0.279822 -0.625 0.625s0.27982 0.625 0.625 0.625h2.49112L0.558058 8.18306c-0.244077 0.24408 -0.244077 0.6398 0 0.88388 0.244078 0.24408 0.639802 0.24408 0.883882 0L8.375 2.13388V4.625c0 0.34518 0.27982 0.625 0.625 0.625s0.625 -0.27982 0.625 -0.625v-4c0 -0.084743 -0.01687 -0.165548 -0.04742 -0.239239ZM5 8.75c0.34518 0 0.625 0.27982 0.625 0.625v2.4911l6.9331 -6.93304c0.244 -0.24408 0.6398 -0.24408 0.8838 0 0.2441 0.24408 0.2441 0.6398 0 0.88388L6.50888 12.75H9c0.34518 0 0.625 0.2798 0.625 0.625S9.34518 14 9 14H5c-0.08474 0 -0.16555 -0.0169 -0.23924 -0.0474 -0.07372 -0.0305 -0.14278 -0.0757 -0.2027 -0.1357 -0.05992 -0.0599 -0.10514 -0.1289 -0.13564 -0.2027 -0.03055 -0.0737 -0.04742 -0.1545 -0.04742 -0.2392v-4c0 -0.34518 0.27982 -0.625 0.625 -0.625Z" clip-rule="evenodd" stroke-width="1"></path>
  </g>
</svg>