<svg xmlns="http://www.w3.org/2000/svg" fill="none" viewBox="0 0 14 14" id="Line-Arrow-Infinite-Loop--Streamline-Core">
  <desc>
    Line Arrow Infinite Loop Streamline Icon: https://streamlinehq.com
  </desc>
  <g id="line-arrow-infinite-loop--arrow-diagram-loop-infinity-repeat">
    <path id="Ellipse 1802" fill="#fddc5c" d="M0 7a7 7 0 1 0 14 0A7 7 0 1 0 0 7" stroke-width="1"></path>
    <path id="Union" fill="#0c098c" fill-rule="evenodd" d="M10.8753 1.14082c0.2441 0.24408 0.2441 0.63981 0 0.88389L9.49094 3.4091h0.94246c1.4215 0 2.3515 0.58323 2.9021 1.36969 0.5252 0.75035 0.6645 1.62475 0.6645 2.19691 0 0.57217 -0.1393 1.44657 -0.6645 2.19692 -0.5506 0.78646 -1.4806 1.36968 -2.9021 1.36968 -0.96676 0 -1.72936 -0.4899 -2.34173 -1.1023 -0.59556 -0.59556 -1.11446 -1.37398 -1.59025 -2.08772l-0.01993 -0.02989c-0.49931 -0.74897 -0.95477 -1.42788 -1.45399 -1.9271 -0.49073 -0.49073 -0.9538 -0.73619 -1.45784 -0.73619 -1.02985 0 -1.57059 0.39731 -1.87804 0.83652 -0.33272 0.47531 -0.43857 1.07171 -0.43857 1.48008 0 0.40837 0.10585 1.00477 0.43857 1.48009 0.30745 0.43921 0.84819 0.83652 1.87804 0.83652 0.52249 0 1.00159 -0.26414 1.51207 -0.79132 0.24012 -0.24797 0.6358 -0.25434 0.88377 -0.01422 0.24797 0.24012 0.25434 0.6358 0.01422 0.88377 -0.62436 0.64476 -1.40706 1.17176 -2.41006 1.17176 -1.4215 0 -2.35156 -0.58322 -2.902077 -1.36968C0.142338 8.42227 0.00305176 7.54787 0.00305176 6.9757c0 -0.57216 0.13928624 -1.44656 0.66453124 -2.19691C1.2181 3.99233 2.14816 3.4091 3.56966 3.4091c0.96675 0 1.72936 0.48994 2.34172 1.10231 0.59556 0.59556 1.11446 1.37397 1.59025 2.08771l0.01993 0.02989c0.49931 0.74897 0.95478 1.42789 1.45399 1.9271 0.49074 0.49074 0.9538 0.7362 1.45785 0.7362 1.0298 0 1.5706 -0.39731 1.878 -0.83652 0.3328 -0.47532 0.4386 -1.07172 0.4386 -1.48009 0 -0.40837 -0.1058 -1.00477 -0.4386 -1.48008 -0.3074 -0.43921 -0.8482 -0.83652 -1.878 -0.83652H7.98206c-0.25279 0 -0.48069 -0.15228 -0.57742 -0.38582 -0.09674 -0.23355 -0.04327 -0.50237 0.13548 -0.68112l2.45134 -2.45134c0.24404 -0.244076 0.63984 -0.244076 0.88384 0Z" clip-rule="evenodd" stroke-width="1"></path>
  </g>
</svg>