<svg xmlns="http://www.w3.org/2000/svg" fill="none" viewBox="0 0 14 14" id="Padlock-Square-1--Streamline-Core">
  <desc>
    Padlock Square 1 Streamline Icon: https://streamlinehq.com
  </desc>
  <g id="padlock-square-1--combination-combo-lock-locked-padlock-secure-security-shield-keyhole">
    <path id="Vector" fill="#ff7972" d="M11.3753 5.625H2.62427c-0.55229 0 -1 0.44771 -1 1v5.752c0 0.5523 0.44771 1 1 1h8.75103c0.5523 0 1 -0.4477 1 -1V6.625c0 -0.55228 -0.4477 -1 -1 -1Z" stroke-width="1"></path>
    <path id="Union" fill="#0c098c" fill-rule="evenodd" d="M7 0C5.83968 0 4.72688 0.460936 3.90641 1.28141 3.08594 2.10188 2.625 3.21468 2.625 4.375V5h-0.00073C1.7268 5 0.999268 5.72754 0.999268 6.625v5.752c0 0.8975 0.727532 1.625 1.625002 1.625h8.75103c0.8975 0 1.625 -0.7275 1.625 -1.625V6.625c0 -0.89746 -0.7275 -1.625 -1.625 -1.625h-0.0003v-0.625c0 -1.16032 -0.4609 -2.27312 -1.2814 -3.09359C9.27312 0.460936 8.16032 0 7 0Zm2.625 5v-0.625c0 -0.69619 -0.27656 -1.36387 -0.76885 -1.85616C8.36387 2.02656 7.69619 1.75 7 1.75c-0.69619 0 -1.36387 0.27656 -1.85616 0.76884C4.65156 3.01113 4.375 3.67881 4.375 4.375V5h5.25ZM3.5 6.25h-0.87573c-0.20711 0 -0.375 0.16789 -0.375 0.375v5.752c0 0.2071 0.16789 0.375 0.375 0.375h8.75103c0.2071 0 0.375 -0.1679 0.375 -0.375V6.625c0 -0.20711 -0.1679 -0.375 -0.375 -0.375H3.5ZM7 8.375c-0.62132 0 -1.125 0.50368 -1.125 1.125 0 0.6213 0.50368 1.125 1.125 1.125s1.125 -0.5037 1.125 -1.125c0 -0.62132 -0.50368 -1.125 -1.125 -1.125Z" clip-rule="evenodd" stroke-width="1"></path>
  </g>
</svg>