<svg xmlns="http://www.w3.org/2000/svg" fill="none" viewBox="0 0 14 14" id="Pathfinder-Square-Intersect--Streamline-Core">
  <desc>
    Pathfinder Square Intersect Streamline Icon: https://streamlinehq.com
  </desc>
  <g id="pathfinder-square-intersect">
    <path id="Union" fill="#fddc5c" fill-rule="evenodd" d="M2 0.375C1.10254 0.375 0.375 1.10254 0.375 2v6.5c0 0.89746 0.72754 1.625 1.625 1.625h1.875V12c0 0.8975 0.72754 1.625 1.625 1.625H12c0.8975 0 1.625 -0.7275 1.625 -1.625V5.5c0 -0.89746 -0.7275 -1.625 -1.625 -1.625h-1.875V2c0 -0.89746 -0.72754 -1.625 -1.625 -1.625H2Z" clip-rule="evenodd" stroke-width="1"></path>
    <path id="Union_2" fill="#0c098c" fill-rule="evenodd" d="M2 1.625c-0.20711 0 -0.375 0.16789 -0.375 0.375 0 0.34518 -0.27982 0.625 -0.625 0.625 -0.345178 0 -0.625 -0.27982 -0.625 -0.625C0.375 1.10254 1.10254 0.375 2 0.375c0.34518 0 0.625 0.279822 0.625 0.625 0 0.34518 -0.27982 0.625 -0.625 0.625ZM11.375 4.5c0 -0.34518 0.2798 -0.625 0.625 -0.625 0.8975 0 1.625 0.72754 1.625 1.625 0 0.34518 -0.2798 0.625 -0.625 0.625s-0.625 -0.27982 -0.625 -0.625c0 -0.20711 -0.1679 -0.375 -0.375 -0.375 -0.3452 0 -0.625 -0.27982 -0.625 -0.625Zm2.25 7.5c0 -0.3452 -0.2798 -0.625 -0.625 -0.625s-0.625 0.2798 -0.625 0.625c0 0.2071 -0.1679 0.375 -0.375 0.375 -0.3452 0 -0.625 0.2798 -0.625 0.625s0.2798 0.625 0.625 0.625c0.8975 0 1.625 -0.7275 1.625 -1.625Zm-8.5 0c0 -0.3452 -0.27982 -0.625 -0.625 -0.625s-0.625 0.2798 -0.625 0.625c0 0.8975 0.72754 1.625 1.625 1.625 0.34518 0 0.625 -0.2798 0.625 -0.625s-0.27982 -0.625 -0.625 -0.625c-0.20711 0 -0.375 -0.1679 -0.375 -0.375ZM13 7.375c0.3452 0 0.625 0.27982 0.625 0.625v1.5c0 0.34518 -0.2798 0.625 -0.625 0.625s-0.625 -0.27982 -0.625 -0.625V8c0 -0.34518 0.2798 -0.625 0.625 -0.625Zm-5 5c-0.34518 0 -0.625 0.2798 -0.625 0.625s0.27982 0.625 0.625 0.625h1.5c0.34518 0 0.625 -0.2798 0.625 -0.625s-0.27982 -0.625 -0.625 -0.625H8Zm0.5 -12c-0.34518 0 -0.625 0.279822 -0.625 0.625 0 0.34518 0.27982 0.625 0.625 0.625 0.20711 0 0.375 0.16789 0.375 0.375 0 0.34518 0.27982 0.625 0.625 0.625s0.625 -0.27982 0.625 -0.625c0 -0.89746 -0.72754 -1.625 -1.625 -1.625ZM1 7.875c0.34518 0 0.625 0.27982 0.625 0.625 0 0.20711 0.16789 0.375 0.375 0.375 0.34518 0 0.625 0.27982 0.625 0.625s-0.27982 0.625 -0.625 0.625c-0.89746 0 -1.625 -0.72754 -1.625 -1.625 0 -0.34518 0.279822 -0.625 0.625 -0.625ZM1.625 4.5c0 -0.34518 -0.27982 -0.625 -0.625 -0.625 -0.345178 0 -0.625 0.27982 -0.625 0.625V6c0 0.34518 0.279822 0.625 0.625 0.625 0.34518 0 0.625 -0.27982 0.625 -0.625V4.5ZM3.875 1c0 -0.345178 0.27982 -0.625 0.625 -0.625H6c0.34518 0 0.625 0.279822 0.625 0.625 0 0.34518 -0.27982 0.625 -0.625 0.625H4.5c-0.34518 0 -0.625 -0.27982 -0.625 -0.625ZM5.5 3.875c-0.89746 0 -1.625 0.72754 -1.625 1.625v3c0 0.89746 0.72754 1.625 1.625 1.625h3c0.89746 0 1.625 -0.72754 1.625 -1.625v-3c0 -0.89746 -0.72754 -1.625 -1.625 -1.625h-3Z" clip-rule="evenodd" stroke-width="1"></path>
  </g>
</svg>