<svg xmlns="http://www.w3.org/2000/svg" fill="none" viewBox="0 0 14 14" id="Shield-Cross--Streamline-Core">
  <desc>
    Shield Cross Streamline Icon: https://streamlinehq.com
  </desc>
  <g id="shield-cross--shield-secure-security-cross-add-plus">
    <path id="Vector 3703" fill="#fddc5c" d="M12 1H2c-0.55228 0 -1 0.44772 -1 1v2.67544C1 8.45241 3.41686 11.8056 7 13c3.5831 -1.1944 6 -4.54759 6 -8.32456V2c0 -0.55228 -0.4477 -1 -1 -1Z" stroke-width="1"></path>
    <path id="Union" fill="#0c098c" fill-rule="evenodd" d="M2 0.375C1.10254 0.375 0.375 1.10254 0.375 2v2.67544c0 4.04599 2.589 7.63806 6.42736 8.91746 0.12829 0.0428 0.26699 0.0428 0.39528 0C11.036 12.3135 13.625 8.72143 13.625 4.67544V2c0 -0.89746 -0.7275 -1.625 -1.625 -1.625H2ZM1.625 2c0 -0.20711 0.16789 -0.375 0.375 -0.375h10c0.2071 0 0.375 0.16789 0.375 0.375v2.67544c0 3.43805 -2.1562 6.49806 -5.375 7.66296 -3.21885 -1.1649 -5.375 -4.22491 -5.375 -7.66296V2ZM5.5 3.25c0 -0.27614 0.22386 -0.5 0.5 -0.5h2c0.27614 0 0.5 0.22386 0.5 0.5v1.5H10c0.2761 0 0.5 0.22386 0.5 0.5v2c0 0.27614 -0.2239 0.5 -0.5 0.5H8.5v1.5c0 0.27614 -0.22386 0.5 -0.5 0.5H6c-0.27614 0 -0.5 -0.22386 -0.5 -0.5v-1.5H4c-0.27614 0 -0.5 -0.22386 -0.5 -0.5v-2c0 -0.27614 0.22386 -0.5 0.5 -0.5h1.5v-1.5Z" clip-rule="evenodd" stroke-width="1"></path>
  </g>
</svg>