<svg xmlns="http://www.w3.org/2000/svg" fill="none" viewBox="0 0 14 14" id="Star-2--Streamline-Core">
  <desc>
    Star 2 Streamline Icon: https://streamlinehq.com
  </desc>
  <g id="star-2--reward-rating-rate-social-star-media-favorite-like-stars-spark">
    <path id="Vector 2135" fill="#ff7972" d="M0.944988 6.54169 5.04919 5.04925 6.54163 0.945051c0.15565 -0.428036 0.76101 -0.428037 0.91666 -0.000002L8.95073 5.04925l4.10417 1.49244c0.4281 0.15565 0.4281 0.76101 0 0.91666L8.95073 8.95079 7.45829 13.055c-0.15565 0.428 -0.76101 0.428 -0.91666 0L5.04919 8.95079 0.94499 7.45835C0.516954 7.3027 0.516953 6.69734 0.944988 6.54169Z" stroke-width="1"></path>
    <path id="Union" fill="#0c098c" fill-rule="evenodd" d="M8.04566 0.73146c-0.35512 -0.976588 -1.73628 -0.976577 -2.0914 0.000001L4.56147 4.56163 0.731399 5.95438c-0.976588 0.35513 -0.976577 1.73629 0.000001 2.0914l3.8301 1.39277 1.39276 3.83005c0.35512 0.9766 1.73628 0.9766 2.0914 0l1.39279 -3.83012 3.83005 -1.39276c0.9766 -0.35512 0.9766 -1.73628 0 -2.0914L9.43843 4.56156 8.04566 0.73146Zm0.31532 8.01233L6.99996 12.4866l-1.3634 -3.74934c-0.06317 -0.17374 -0.20003 -0.3106 -0.37378 -0.37378l-3.74934 -1.3634 3.74934 -1.36339c0.10023 -0.03645 0.18547 -0.09587 0.25193 -0.17015 0.04293 -0.04786 0.07902 -0.10305 0.10614 -0.16458 0.00662 -0.01497 0.01266 -0.03019 0.01809 -0.04564L6.99996 1.5135l1.3634 3.74934c0.06318 0.17375 0.20004 0.31061 0.37378 0.37379l3.74936 1.36339 -3.74936 1.3634c-0.16653 0.06055 -0.29167 0.18452 -0.35807 0.33473 -0.00662 0.01496 -0.01265 0.03019 -0.01809 0.04564Z" clip-rule="evenodd" stroke-width="1"></path>
  </g>
</svg>