<svg xmlns="http://www.w3.org/2000/svg" fill="none" viewBox="0 0 14 14" id="Straight-Cap--Streamline-Core">
  <desc>
    Straight Cap Streamline Icon: https://streamlinehq.com
  </desc>
  <g id="straight-cap">
    <path id="Vector 4478" fill="#7af1ff" d="M14 2H3.625c-0.55228 0 -1 0.44772 -1 1v8c0 0.5523 0.44772 1 1 1H14V2Z" stroke-width="1"></path>
    <path id="Union" fill="#0c098c" fill-rule="evenodd" d="M3.25 3c0 -0.20711 0.16789 -0.375 0.375 -0.375h9.75c0.3452 0 0.625 -0.27982 0.625 -0.625s-0.2798 -0.625 -0.625 -0.625h-9.75C2.72754 1.375 2 2.10254 2 3v1.44986C0.851997 4.73025 0 5.76563 0 7c0 1.23437 0.851997 2.26975 2 2.55014V11c0 0.8975 0.72754 1.625 1.625 1.625h9.75c0.3452 0 0.625 -0.2798 0.625 -0.625s-0.2798 -0.625 -0.625 -0.625h-9.75c-0.20711 0 -0.375 -0.1679 -0.375 -0.375V9.55014c0.9477 -0.23147 1.69367 -0.97744 1.92514 -1.92514H13.375c0.3452 0 0.625 -0.27982 0.625 -0.625s-0.2798 -0.625 -0.625 -0.625H5.17514C4.94367 5.4273 4.1977 4.68133 3.25 4.44986V3Z" clip-rule="evenodd" stroke-width="1"></path>
  </g>
</svg>