<svg xmlns="http://www.w3.org/2000/svg" fill="none" viewBox="0 0 14 14" id="Table-Lamp-1--Streamline-Core">
  <desc>
    Table Lamp 1 Streamline Icon: https://streamlinehq.com
  </desc>
  <g id="table-lamp-1--lighting-light-incandescent-bulb-lights-table-lamp">
    <path id="Vector" fill="#7af1ff" d="M6.62498 3.5V2c0 -0.26522 -0.10536 -0.51957 -0.2929 -0.70711C6.14455 1.10536 5.89019 1 5.62498 1h-2c-0.26522 0 -0.51957 0.10536 -0.70711 0.29289 -0.18754 0.18754 -0.29289 0.44189 -0.29289 0.70711v1.5c-0.61338 0.3541 -1.12175 0.86471 -1.47314 1.47964C0.800454 5.59457 0.618637 6.29178 0.624977 7H8.62498c0.00634 -0.70822 -0.17548 -1.40543 -0.52687 -2.02036C7.74672 4.36471 7.23836 3.8541 6.62498 3.5Z" stroke-width="1"></path>
    <path id="Union" fill="#0c098c" fill-rule="evenodd" d="M3.62498 0.375c-0.43098 0 -0.8443 0.171205 -1.14905 0.475951C2.17118 1.1557 1.99998 1.56902 1.99998 2v1.1562c-0.56994 0.39285 -1.045795 0.90961 -1.390788 1.51335 -0.406295 0.71102 -0.61652027 1.51716 -0.609189735 2.33604C0.00307256 7.34858 0.281982 7.625 0.624977 7.625H8.62498c0.34299 0 0.6219 -0.27642 0.62497 -0.61941 0.00733 -0.81888 -0.20289 -1.62502 -0.60919 -2.33604 -0.31818 -0.55682 -0.74769 -1.03967 -1.25965 -1.41955H7.75C9.54493 3.25 11 4.70507 11 6.5v5.75H8c-0.41421 0 -0.75 0.3358 -0.75 0.75s0.33579 0.75 0.75 0.75h5.25c0.4142 0 0.75 -0.3358 0.75 -0.75s-0.3358 -0.75 -0.75 -0.75h-0.75V6.5c0 -2.62335 -2.1266 -4.75 -4.75 -4.75h-0.51936c-0.05269 -0.3384 -0.21143 -0.65386 -0.45661 -0.899049C6.46928 0.546205 6.05595 0.375 5.62498 0.375h-2Zm-0.26517 1.35983c0.07033 -0.07032 0.16571 -0.10983 0.26517 -0.10983h2c0.09945 0 0.19484 0.03951 0.26516 0.10983 0.07033 0.07033 0.10984 0.16571 0.10984 0.26517v1.5c0 0.2233 0.11913 0.42964 0.31252 0.54128 0.51754 0.29877 0.94647 0.72959 1.24296 1.24845 0.19306 0.33785 0.32545 0.70514 0.39285 1.08527H1.30164c0.0674 -0.38013 0.1998 -0.74742 0.39286 -1.08527 0.29648 -0.51885 0.72541 -0.94968 1.24295 -1.24845 0.19339 -0.11164 0.31253 -0.31798 0.31253 -0.54128V2c0 -0.09946 0.03951 -0.19484 0.10983 -0.26517Z" clip-rule="evenodd" stroke-width="1"></path>
  </g>
</svg>