<svg xmlns="http://www.w3.org/2000/svg" fill="none" viewBox="0 0 14 14" id="User-Add-Plus--Streamline-Core">
  <desc>
    User Add Plus Streamline Icon: https://streamlinehq.com
  </desc>
  <g id="user-add-plus--actions-add-close-geometric-human-person-plus-single-user">
    <path id="Union" fill="#79ee8d" fill-rule="evenodd" d="M7.3754 3.00053c0 1.31304 -1.06418 2.37748 -2.37691 2.37748 -1.31273 0 -2.37691 -1.06444 -2.37691 -2.37748 0 -1.31305 1.06418 -2.377483 2.37691 -2.377483 1.31273 0 2.37691 1.064433 2.37691 2.377483ZM7.82319 8.75H7.75C6.7835 8.75 6 9.5335 6 10.5c0 0.5947 0.29663 1.1201 0.75 1.4363v0.437H0.625488c0 -2.62133 1.957822 -4.74635 4.372912 -4.74635 1.07685 0 2.06278 0.42248 2.82479 1.12305Z" clip-rule="evenodd" stroke-width="1"></path>
    <path id="Union_2" fill="#0c098c" fill-rule="evenodd" d="M4.99849 1.24805c-0.96741 0 -1.75191 0.78447 -1.75191 1.75248s0.7845 1.75248 1.75191 1.75248c0.96741 0 1.75191 -0.78447 1.75191 -1.75248s-0.7845 -1.75248 -1.75191 -1.75248ZM1.99658 3.00053c0 -1.65809 1.34386 -3.00248312 3.00191 -3.00248312S8.0004 1.34244 8.0004 3.00053c0 1.65808 -1.34386 3.00248 -3.00191 3.00248s-3.00191 -1.3444 -3.00191 -3.00248ZM11.25 7.75c0 -0.41421 -0.3358 -0.75 -0.75 -0.75s-0.75 0.33579 -0.75 0.75v2h-2c-0.41421 0 -0.75 0.3358 -0.75 0.75s0.33579 0.75 0.75 0.75h2v2c0 0.4142 0.3358 0.75 0.75 0.75s0.75 -0.3358 0.75 -0.75v-2h2c0.4142 0 0.75 -0.3358 0.75 -0.75s-0.3358 -0.75 -0.75 -0.75h-2v-2Zm-6.2516 0.50195c-1.83731 0 -3.4292 1.48189 -3.70554 3.49635H6.375c0.34518 0 0.625 0.2798 0.625 0.625s-0.27982 0.625 -0.625 0.625H0.625488c-0.345178 0 -0.624999719 -0.2798 -0.624999719 -0.625C0.000488281 9.456 2.1909 7.00195 4.9984 7.00195c0.99982 0 1.92963 0.31589 2.70713 0.855 0.28366 0.19668 0.35416 0.58608 0.15748 0.86974 -0.19669 0.28366 -0.58608 0.35416 -0.86974 0.15748 -0.58036 -0.40241 -1.2639 -0.63222 -1.99487 -0.63222Z" clip-rule="evenodd" stroke-width="1"></path>
  </g>
</svg>