<svg xmlns="http://www.w3.org/2000/svg" fill="none" viewBox="0 0 14 14" id="User-Single-Neutral-Male--Streamline-Core">
  <desc>
    User Single Neutral Male Streamline Icon: https://streamlinehq.com
  </desc>
  <g id="user-single-neutral-male--close-geometric-human-person-single-user-male">
    <path id="Union" fill="#7af1ff" fill-rule="evenodd" d="M10 4c0 1.65685 -1.34315 3 -3 3S4 5.65685 4 4V2s1 -1 3 -1 3 1 3 1v2ZM0.998047 13C1.97761 10.651 4.29593 9 6.99988 9c2.70395 0 5.02232 1.651 6.00182 4H0.998047Z" clip-rule="evenodd" stroke-width="1"></path>
    <path id="Union_2" fill="#0c098c" fill-rule="evenodd" d="M4.625 4V2.29841c0.09737 -0.06838 0.23224 -0.15326 0.40451 -0.23939C5.45308 1.84723 6.10798 1.625 7 1.625s1.54692 0.22223 1.97049 0.43402c0.17228 0.08613 0.30715 0.17101 0.40451 0.23939V4c0 1.31168 -1.06332 2.375 -2.375 2.375 -1.31167 0 -2.375 -1.06332 -2.375 -2.375Zm5.8169 -2.44194L10 2c0.4419 -0.44194 0.4417 -0.44216 0.4415 -0.44238l-0.0005 -0.00047 -0.001 -0.001 -0.0023 -0.00228 -0.0058 -0.00564 -0.0162 -0.01542c-0.0128 -0.01206 -0.0298 -0.02761 -0.051 -0.04614 -0.0423 -0.03704 -0.1014 -0.08606 -0.1772 -0.14292 -0.1515 -0.11365 -0.3708 -0.25917 -0.65799 -0.402767C8.95308 0.652768 8.10798 0.375 7 0.375c-1.10798 0 -1.95308 0.277768 -2.52951 0.565983 -0.28719 0.143597 -0.50645 0.289117 -0.65799 0.402767 -0.07581 0.05686 -0.13486 0.10588 -0.17719 0.14292 -0.02117 0.01853 -0.03819 0.03408 -0.05105 0.04614l-0.0162 0.01542 -0.00577 0.00564 -0.00231 0.00228 -0.00101 0.001 -0.00047 0.00047C3.55828 1.55784 3.55806 1.55806 4 2l-0.44194 -0.44194C3.44085 1.67527 3.375 1.83424 3.375 2v2c0 2.00203 1.62297 3.625 3.625 3.625 2.00204 0 3.625 -1.62297 3.625 -3.625V2c0 -0.16576 -0.0658 -0.32473 -0.1831 -0.44194ZM6.99989 9.625c2.0955 0 3.93581 1.0972 4.97601 2.75H2.02388c1.0402 -1.6528 2.88051 -2.75 4.97601 -2.75Zm0 -1.25c-2.96493 0 -5.50545 1.8108 -6.578691 4.3844 -0.080445 0.1929 -0.059142 0.4133 0.056767 0.5872 0.115908 0.1739 0.311079 0.2784 0.520083 0.2784H13.0017c0.209 0 0.4042 -0.1045 0.5201 -0.2784s0.1372 -0.3943 0.0568 -0.5872C12.5053 10.1858 9.96481 8.375 6.99989 8.375Z" clip-rule="evenodd" stroke-width="1"></path>
  </g>
</svg>