<svg xmlns="http://www.w3.org/2000/svg" fill="none" viewBox="0 0 14 14" id="User-Circle-Single--Streamline-Core">
  <desc>
    User Circle Single Streamline Icon: https://streamlinehq.com
  </desc>
  <g id="user-circle-single--circle-geometric-human-person-single-user">
    <path id="Vector" fill="#7af1ff" d="M7.00018 13.3749c-3.52064 0 -6.374692 -2.8541 -6.374692 -6.37472 0 -3.52064 2.854052 -6.374692 6.374692 -6.374692 3.52062 0 6.37472 2.854052 6.37472 6.374692 0 3.52062 -2.8541 6.37472 -6.37472 6.37472Z" stroke-width="1"></path>
    <path id="Union" fill="#0c098c" fill-rule="evenodd" d="M7.00018 0.000488281C3.13436 0.000488281 0.000488281 3.13436 0.000488281 7.00018c0 3.86582 3.133871719 6.99972 6.999691719 6.99972 3.86582 0 6.99972 -3.1339 6.99972 -6.99972S10.866 0.000488281 7.00018 0.000488281ZM1.25049 7.00018c0 -3.17547 2.57422 -5.74969 5.74969 -5.74969 3.17542 0 5.74972 2.57422 5.74972 5.74969 0 1.70375 -0.7411 3.23442 -1.9184 4.28732C9.91429 10.1947 8.53824 9.5 6.99994 9.5c-1.53818 0 -2.91414 0.6946 -3.83133 1.7872 -1.17719 -1.0528 -1.91812 -2.5834 -1.91812 -4.28702ZM3.875 5.75c0 -1.72589 1.39911 -3.125 3.125 -3.125s3.125 1.39911 3.125 3.125S8.72589 8.875 7 8.875 3.875 7.47589 3.875 5.75Z" clip-rule="evenodd" stroke-width="1"></path>
  </g>
</svg>