<svg xmlns="http://www.w3.org/2000/svg" fill="none" viewBox="0 0 14 14" id="Visible--Streamline-Core">
  <desc>
    Visible Streamline Icon: https://streamlinehq.com
  </desc>
  <g id="visible--eye-eyeball-open-view">
    <path id="Vector" fill="#fddc5c" d="M13.1232 6.17867c0.163 0.22531 0.2532 0.51803 0.2532 0.82154 0 0.30351 -0.0902 0.59624 -0.2532 0.82155 -1.032 1.38559 -3.38093 4.08324 -6.123 4.08324 -2.74206 0 -5.091 -2.69765 -6.122964 -4.08324 -0.162991 -0.22531 -0.253213 -0.51804 -0.253213 -0.82155 0 -0.30351 0.090222 -0.59623 0.253213 -0.82154C1.9092 4.79307 4.25814 2.09546 7.0002 2.09546c2.74207 0 5.091 2.69761 6.123 4.08321Z" stroke-width="1"></path>
    <path id="Union" fill="#0c098c" fill-rule="evenodd" d="M1.38155 6.54788c-0.07768 0.10886 -0.13253 0.26933 -0.13253 0.45233 0 0.18301 0.05485 0.34347 0.13253 0.45234 0.50042 0.67145 1.30789 1.64324 2.30643 2.44246C4.69602 10.7018 5.83246 11.28 7.0002 11.28c1.16775 0 2.30419 -0.5782 3.3122 -1.38499 0.9986 -0.79921 1.806 -1.771 2.3064 -2.44245 0.0777 -0.10886 0.1326 -0.26933 0.1326 -0.45235 0 -0.18301 -0.0549 -0.34348 -0.1326 -0.45235 -0.5004 -0.67145 -1.3078 -1.64323 -2.3064 -2.44244 -1.00801 -0.80683 -2.14445 -1.38496 -3.3122 -1.38496 -1.16774 0 -2.30418 0.57813 -3.31222 1.38496 -0.99854 0.79922 -1.80601 1.77101 -2.30643 2.44246Zm1.52533 -3.41836c1.10994 -0.88839 2.519 -1.65906 4.09332 -1.65906 1.57433 0 2.98339 0.77067 4.0933 1.65906 1.1174 0.89435 1.9991 1.96182 2.5309 2.67582l0.0052 0.00697 0 0.00003c0.2472 0.34172 0.3718 0.76548 0.3718 1.18787 0 0.42239 -0.1246 0.84615 -0.3718 1.18787l-0.0051 0.00704 -0.0001 -0.00004c-0.5318 0.71401 -1.4135 1.78148 -2.5309 2.67582 -1.10991 0.8884 -2.51897 1.6591 -4.0933 1.6591 -1.57432 0 -2.98338 -0.7707 -4.09332 -1.6591C1.78948 9.97656 0.907759 8.90909 0.375983 8.19508l-0.005188 -0.00696 0.000049 -0.00004c-0.247199 -0.34172 -0.371820562 -0.76548 -0.371820562 -1.18787 0 -0.42239 0.124621562 -0.84615 0.371820562 -1.18787l0.00509 -0.00703 0.000049 0.00003c0.531776 -0.714 1.413497 -1.78147 2.530897 -2.67582ZM7 4.5C5.61929 4.5 4.5 5.61929 4.5 7S5.61929 9.5 7 9.5 9.5 8.38071 9.5 7 8.38071 4.5 7 4.5Z" clip-rule="evenodd" stroke-width="1"></path>
  </g>
</svg>