<svg xmlns="http://www.w3.org/2000/svg" fill="none" viewBox="0 0 14 14" id="Wind-Flow-2--Streamline-Core">
  <desc>
    Wind Flow 2 Streamline Icon: https://streamlinehq.com
  </desc>
  <g id="wind-flow-2--wind-flow-weather">
    <path id="Vector" fill="#79ee8d" d="M7 14c3.866 0 7 -3.134 7 -7 0 -3.86599 -3.134 -7 -7 -7 -3.86599 0 -7 3.13401 -7 7 0 3.866 3.13401 7 7 7Z" stroke-width="1"></path>
    <path id="Union" fill="#0c098c" fill-rule="evenodd" d="M10.816 1.72038c0.1543 -0.30873 0.5298 -0.43387 0.8385 -0.2795l2 1c0.2135 0.10677 0.3476 0.32588 0.3455 0.56462 -0.0022 0.23875 -0.1401 0.45541 -0.3556 0.55834 -1.3249 0.63299 -2.7663 0.99472 -4.11402 1.06031 -0.01012 0.0005 -0.02025 0.00074 -0.03039 0.00074 -1.14809 0 -2.01145 -0.43182 -2.74695 -0.7997l-0.03256 -0.01628c-0.75334 -0.37667 -1.3788 -0.68073 -2.20702 -0.68399 -1.28789 0.05896 -2.43735 0.37435 -3.619036 0.93892 -0.311457 0.1488 -0.684572 0.01694 -0.8333745 -0.29452 -0.1488027 -0.31145 -0.0169452 -0.68457 0.2945115 -0.83337C1.6749 2.30562 2.99209 1.94106 4.47234 1.8755c0.00921 -0.0004 0.01843 -0.00061 0.02765 -0.00061 1.1481 0 2.01146 0.43183 2.74696 0.7997l0.03255 0.01629c0.75293 0.37646 1.37811 0.68039 2.20565 0.68398 0.76255 -0.03858 1.56815 -0.18677 2.36165 -0.4403l-0.7513 -0.37565c-0.3088 -0.15437 -0.4339 -0.52979 -0.2795 -0.83853Zm0 4c0.1543 -0.30873 0.5298 -0.43387 0.8385 -0.2795l2 1c0.2135 0.10677 0.3476 0.32588 0.3455 0.56462 -0.0022 0.23875 -0.1401 0.45541 -0.3556 0.55834 -1.3193 0.63033 -2.6365 0.99489 -4.11676 1.06044 -0.00921 0.00041 -0.01843 0.00061 -0.02765 0.00061 -1.1481 0 -2.01145 -0.43182 -2.74695 -0.7997l-0.03256 -0.01628c-0.75334 -0.37667 -1.3788 -0.68073 -2.20702 -0.68399 -1.28789 0.05896 -2.43735 0.37435 -3.619036 0.93892 -0.311457 0.1488 -0.684572 0.01694 -0.8333745 -0.29452 -0.1488027 -0.31145 -0.0169452 -0.68457 0.2945115 -0.83337C1.6749 6.30562 2.99209 5.94106 4.47234 5.8755c0.00921 -0.0004 0.01843 -0.00061 0.02765 -0.00061 1.1481 0 2.01146 0.43183 2.74696 0.7997l0.03255 0.01629c0.75335 0.37667 1.3788 0.68072 2.20702 0.68399 0.83318 -0.03815 1.60848 -0.18362 2.37198 -0.43445l-0.763 -0.38151c-0.3088 -0.15437 -0.4339 -0.52979 -0.2795 -0.83853Zm0.8385 3.7205c-0.3087 -0.15437 -0.6842 -0.02923 -0.8385 0.2795 -0.1544 0.30872 -0.0293 0.68412 0.2795 0.83852l0.763 0.3815c-0.7635 0.2509 -1.5388 0.3963 -2.37198 0.4345 -0.82822 -0.0033 -1.45367 -0.3074 -2.20702 -0.684l-0.03255 -0.0163c-0.7355 -0.3679 -1.59886 -0.79971 -2.74696 -0.79971 -0.00922 0 -0.01844 0.00021 -0.02765 0.00062 -1.48025 0.06555 -2.79744 0.43009 -4.116779 1.06049 -0.3114567 0.1488 -0.4433142 0.5219 -0.2945115 0.8333 0.1488025 0.3115 0.5219175 0.4433 0.8333745 0.2945 1.181686 -0.5645 2.331146 -0.8799 3.619036 -0.9389 0.82822 0.0033 1.45368 0.3073 2.20702 0.684l0.03256 0.0163c0.7355 0.3679 1.59885 0.7997 2.74695 0.7997 0.00922 0 0.01844 -0.0002 0.02765 -0.0006 1.48026 -0.0656 2.79746 -0.4301 4.11676 -1.0605 0.2155 -0.1029 0.3534 -0.3196 0.3556 -0.5583 0.0021 -0.2387 -0.132 -0.4578 -0.3455 -0.5646l-2 -1.00002Z" clip-rule="evenodd" stroke-width="1"></path>
  </g>
</svg>