<svg xmlns="http://www.w3.org/2000/svg" fill="none" viewBox="0 0 14 14" id="Wrench--Streamline-Core">
  <desc>
    Wrench Streamline Icon: https://streamlinehq.com
  </desc>
  <g id="wrench--crescent-tool-construction-tools-wrench-setting-edit-adjust">
    <path id="Union" fill="#79ee8d" d="M13.2846 3.72131c-0.0193 -0.1048 -0.0605 -0.20436 -0.1208 -0.29222 -0.0603 -0.08786 -0.1384 -0.16206 -0.2292 -0.21778l-2 2c-0.0933 0.09678 -0.2051 0.17376 -0.3289 0.22634 -0.1237 0.05258 -0.2567 0.07968 -0.3911 0.07968 -0.1344 0 -0.26748 -0.0271 -0.39119 -0.07968 -0.12371 -0.05258 -0.23555 -0.12956 -0.32883 -0.22634l-0.76 -0.68c-0.18323 -0.18693 -0.28586 -0.43825 -0.28586 -0.7s0.10263 -0.51307 0.28586 -0.7l2.00002 -2c-0.0436 -0.10246 -0.1092 -0.19409 -0.1922 -0.268396 -0.0829 -0.074305 -0.1812 -0.129475 -0.2878 -0.161605 -0.69784 -0.13916 -1.42072 -0.079592 -2.08636 0.171923 -0.66563 0.251518 -1.24727 0.684868 -1.6787 1.250728 -0.43142 0.56586 -0.6953 1.24148 -0.7616 1.94996 -0.06209 0.66366 0.05153 1.33116 0.32834 1.93579L0.939577 11.1264c-0.396169 0.3962 -0.389599 1.0405 0.014567 1.4285l0.560776 0.5384c0.39115 0.3755 1.0103 0.3708 1.39579 -0.0105l5.17832 -5.11953c0.58713 0.24247 1.22667 0.3347 1.86039 0.26676 0.70078 -0.07512 1.36698 -0.34313 1.92448 -0.77424 0.5575 -0.4311 0.9845 -1.00839 1.2336 -1.66769 0.249 -0.65929 0.3103 -1.37474 0.1771 -2.06679Z" stroke-width="1"></path>
    <path id="Union_2" fill="#0c098c" fill-rule="evenodd" d="M8.38916 1.45789c0.42651 -0.16117 0.88115 -0.228 1.33292 -0.19796L8.29263 2.68937l-0.00002 -0.00002 -0.00437 0.00446c-0.29775 0.30376 -0.46452 0.71215 -0.46452 1.1375s0.16677 0.83374 0.46452 1.1375c0.00955 0.00974 0.01942 0.01918 0.02959 0.02828l0.74486 0.66645c0.14787 0.1486 0.32315 0.26725 0.51624 0.34931 0.20102 0.08545 0.41721 0.12948 0.63567 0.12948 0.2184 0 0.4346 -0.04403 0.6356 -0.12948 0.1991 -0.0846 0.3792 -0.20808 0.5299 -0.36317l1.3452 -1.34526c0.0185 0.4287 -0.0497 0.8584 -0.2025 1.26282 -0.2082 0.55114 -0.5652 1.03374 -1.0312 1.39412 -0.4661 0.36039 -1.023 0.58443 -1.6088 0.64723 -0.52604 0.05639 -1.05688 -0.01923 -1.54484 -0.21874 -0.02617 -0.01135 -0.05295 -0.02083 -0.08016 -0.02843 -0.10672 -0.03007 -0.21628 -0.03034 -0.31869 -0.00495 -0.06987 0.01719 -0.13738 0.0466 -0.19911 0.08825 -0.03665 0.02462 -0.07084 0.05321 -0.10185 0.08548l-5.16686 5.1082 -0.00011 0.0001c-0.14456 0.143 -0.37674 0.1448 -0.52342 0.0039l-0.56078 -0.5383c-0.15156 -0.1455 -0.15403 -0.3871 -0.00546 -0.5357l5.10773 -5.10772c0.09784 -0.09393 0.16155 -0.21677 0.18358 -0.34819 0.01456 -0.08685 0.01091 -0.17745 -0.01312 -0.26592 -0.00999 -0.03708 -0.02346 -0.07342 -0.04039 -0.10851 -0.22748 -0.50215 -0.32059 -1.05562 -0.2691 -1.60592 0.05539 -0.59194 0.27587 -1.15645 0.63634 -1.62924 0.36047 -0.47279 0.84644 -0.83487 1.4026 -1.04501ZM5.32394 5.85822c-0.20142 -0.58972 -0.27676 -1.21759 -0.21828 -1.84253 0.07719 -0.825 0.38447 -1.61174 0.88686 -2.27067S7.17221 0.58146 7.94732 0.288577c0.77511 -0.29288195 1.61689 -0.3622475 2.42948 -0.200199 0.0196 0.0039058 0.039 0.0087481 0.0581 0.01451 0.1943 0.058553 0.3734 0.159092 0.5245 0.294504 0.1512 0.135412 0.2707 0.302388 0.3502 0.489116 0.0999 0.234632 0.0472 0.506422 -0.1331 0.686742L9.17926 3.57051c-0.06767 0.06992 -0.10554 0.16343 -0.10554 0.2608 0 0.09296 0.03452 0.18241 0.09653 0.25116l0.74107 0.66306c0.01148 0.01027 0.02257 0.02096 0.03326 0.03205 0.03498 0.03629 0.07692 0.06516 0.12332 0.08487 0.0464 0.01972 0.0963 0.02988 0.1467 0.02988s0.1003 -0.01016 0.1467 -0.02988c0.0464 -0.01971 0.0883 -0.04858 0.1233 -0.08487l0.008 -0.00829 0 0.00008 2 -2c0.2044 -0.20441 0.5224 -0.24197 0.7688 -0.09081 0.1655 0.10154 0.3078 0.23676 0.4177 0.39688 0.1095 0.15944 0.1843 0.34002 0.2197 0.53011 0.1545 0.80482 0.083 1.63673 -0.2066 2.40341 -0.2899 0.76745 -0.787 1.43944 -1.436 1.94126 -0.649 0.50183 -1.4245 0.81381 -2.2402 0.90125 -0.5964 0.06394 -1.19725 0.006 -1.76671 -0.16771L3.35024 13.5272l-0.00012 0.0001c-0.62643 0.6195 -1.63246 0.627 -2.26804 0.0169l-0.560773 -0.5384c-0.656769 -0.6305 -0.667445 -1.6775 -0.023671 -2.3213l0.429778 0.4298 -0.429778 -0.4298L5.32394 5.85822Z" clip-rule="evenodd" stroke-width="1"></path>
  </g>
</svg>