<svg xmlns="http://www.w3.org/2000/svg" fill="none" viewBox="0 0 14 14"><g id="hand-grab--hand-select-cursor-finger-grab"><path id="Subtract" fill="#3e3e3e" fill-rule="evenodd" d="M3.794 2.51A2.5 2.5 0 0 1 6.809.07l.013.003 4.557 1.09a2.5 2.5 0 0 1 1.977 2.445v3.016a10.5 10.5 0 0 1-1.108 4.696l-.392.783v1.382a.5.5 0 0 1-.5.5h-7a.5.5 0 0 1-.5-.5v-1.26L2.113 10.83a2.5 2.5 0 0 1-.89-1.461l-.53-2.655a2.5 2.5 0 0 1 1.522-2.811l.023-.01.023-.006.283-.083V6.08a.625.625 0 0 0 1.25 0V2.51Z" clip-rule="evenodd"></path></g></svg>