<svg xmlns="http://www.w3.org/2000/svg" fill="none" viewBox="0 0 14 14"><g id="login-1--arrow-enter-frame-left-login-point-rectangle"><path id="Union" fill="#3e3e3e" fill-rule="evenodd" d="M0 1.5A1.5 1.5 0 0 1 1.5 0h7A1.5 1.5 0 0 1 10 1.5v3.25h-.516a2 2 0 0 0-3.398-1.164l-2 2a2 2 0 0 0 0 2.828l2 2A2 2 0 0 0 9.484 9.25H10v3.25A1.5 1.5 0 0 1 8.5 14h-7A1.5 1.5 0 0 1 0 12.5v-11Zm7.787 2.807A.75.75 0 0 1 8.25 5v1H13a1 1 0 1 1 0 2H8.25v1a.75.75 0 0 1-1.28.53l-2-2a.75.75 0 0 1 0-1.06l2-2a.75.75 0 0 1 .817-.163Z" clip-rule="evenodd"></path></g></svg>