<svg xmlns="http://www.w3.org/2000/svg" fill="none" viewBox="0 0 14 14"><g id="manual-book"><path id="Union" fill="#3e3e3e" fill-rule="evenodd" d="M12 10.75h-.25v1.75H12a.75.75 0 0 1 0 1.5H3.625a2.375 2.375 0 0 1-2.375-2.375V2.25A2.25 2.25 0 0 1 3.5 0h7a2.25 2.25 0 0 1 2.25 2.25V10a.75.75 0 0 1-.75.75Zm-8.375 0h6.625v1.75H3.625a.875.875 0 0 1 0-1.75Zm3.546-7.921a.875.875 0 0 0-1.046.858.625.625 0 1 1-1.25 0 2.125 2.125 0 1 1 2.75 2.031.625.625 0 0 1-1.25-.031v-.5c0-.345.28-.625.625-.625a.875.875 0 0 0 .17-1.733ZM7 8.884a.875.875 0 1 1 0-1.75.875.875 0 0 1 0 1.75Z" clip-rule="evenodd"></path></g></svg>