<svg xmlns="http://www.w3.org/2000/svg" fill="none" viewBox="0 0 14 14"><g id="pen-3--content-creation-edit-pen-pens-write"><path id="Union" fill="#3e3e3e" fill-rule="evenodd" d="M7.5 2a2 2 0 1 1 4 0v.349h.75A1.75 1.75 0 0 1 14 4.099v4a.75.75 0 0 1-1.5 0v-4a.25.25 0 0 0-.25-.25h-.75v.026h-4V2Zm0 9V5.125h4V11a1 1 0 0 1-1 1h-.25v1.25a.75.75 0 0 1-1.5 0V12H8.5a1 1 0 0 1-1-1ZM4.768.732A2.5 2.5 0 0 1 5.5 2.5v1.375h-5V2.5A2.5 2.5 0 0 1 4.768.732ZM.5 11.1V5.125h5V11.1a.5.5 0 0 1-.116.32l-2 2.4a.5.5 0 0 1-.768 0l-2-2.4A.5.5 0 0 1 .5 11.1Z" clip-rule="evenodd"></path></g></svg>