<svg xmlns="http://www.w3.org/2000/svg" fill="none" viewBox="0 0 14 14"><g id="two-finger-tap"><path id="Union" fill="#3e3e3e" fill-rule="evenodd" d="M6.923 2.485a2.748 2.748 0 0 1 4.785 2.39.75.75 0 0 0 1.461.34 4.248 4.248 0 0 0-7.103-4.009 4.249 4.249 0 0 0-4.534 5.196.75.75 0 0 0 1.462-.34 2.748 2.748 0 0 1 3.21-3.323.75.75 0 0 0 .72-.254Zm-2.175 7.704-.566-4.347a1.307 1.307 0 0 1 2.583-.39l.573 3.34.003-.009.612-4.667a1.283 1.283 0 1 1 2.544.334l-.569 4.333h.471c1.179 0 2.134.956 2.134 2.134v2.067a1 1 0 0 1-.998 1l-7.275.015a1 1 0 0 1-.826-.433l-.42-.61a1.707 1.707 0 0 1 1.09-2.646l.644-.12Z" clip-rule="evenodd"></path></g></svg>