<svg xmlns="http://www.w3.org/2000/svg" fill="none" viewBox="0 0 14 14"><g id="user-single-neutral-male--close-geometric-human-person-single-up-user-male"><path id="Union" fill="#3e3e3e" fill-rule="evenodd" d="M7 8a4 4 0 0 0 4-4v-.042a4.61 4.61 0 0 1-2.964-1.182 4.611 4.611 0 0 1-3.09 1.184 4.612 4.612 0 0 1-1.92-.416A4 4 0 0 0 7 8Zm1.41-6.263a3.617 3.617 0 0 0 2.45 1.213 4.002 4.002 0 0 0-7.59-.399c.501.261 1.07.409 1.675.409a3.617 3.617 0 0 0 2.717-1.223.5.5 0 0 1 .748 0ZM.512 13.367a7.002 7.002 0 0 1 12.976 0c.126.31-.114.633-.448.633H.96c-.334 0-.574-.323-.448-.633Z" clip-rule="evenodd"></path></g></svg>