<svg xmlns="http://www.w3.org/2000/svg" fill="none" viewBox="0 0 14 14"><g id="user-protection-2--shield-secure-security-profile-person"><path id="Subtract" fill="#3e3e3e" fill-rule="evenodd" d="M0 1.75C0 .784.784 0 1.75 0h10.5C13.216 0 14 .783 14 1.75v3.257a9.307 9.307 0 0 1-6.57 8.895 1.45 1.45 0 0 1-.86 0A9.307 9.307 0 0 1 0 5.007V1.75ZM7 6.5A2.25 2.25 0 1 0 7 2a2.25 2.25 0 0 0 0 4.5Zm4.152 2.893A5.487 5.487 0 0 0 7 7.5a5.487 5.487 0 0 0-4.152 1.893A7.798 7.798 0 0 0 7 12.465a7.798 7.798 0 0 0 4.152-3.072Z" clip-rule="evenodd"></path></g></svg>