<svg xmlns="http://www.w3.org/2000/svg" fill="none" viewBox="0 0 14 14"><g id="user-multiple-circle--close-geometric-human-multiple-person-up-user-circle"><path id="Subtract" fill="#3e3e3e" fill-rule="evenodd" d="M14 7a7 7 0 1 0-12.95 3.688A6.994 6.994 0 0 0 7 14a7 7 0 0 0 7-7Zm-7 5.5a5.5 5.5 0 0 0 1.582-.23c-.433-1.965-1.758-3.582-4.011-3.582-.946 0-1.762.325-2.447.86A5.5 5.5 0 0 0 7 12.5Zm2.594-.649A5.524 5.524 0 0 0 11.93 9.44a3.743 3.743 0 0 0-3.665-.16c.047.052.094.105.139.16.583.698.97 1.537 1.189 2.412ZM4.729 3.243a2.245 2.245 0 1 1 0 4.49 2.245 2.245 0 0 1 0-4.49Zm7.069 2.897a1.86 1.86 0 1 0-3.72 0 1.86 1.86 0 0 0 3.72 0Z" clip-rule="evenodd"></path></g></svg>