<svg xmlns="http://www.w3.org/2000/svg" viewBox="0 0 14 14">
  <g>
    <path d="M1.08,2.21a.74.74,0,0,0,.7.5.7.7,0,0,0,.25,0,.75.75,0,0,0,.46-1L2.15.76a.75.75,0,1,0-1.41.51Z" style="fill: #000001"/>
    <path d="M5.46,9l-.67.92a.26.26,0,0,1-.26.09L3.42,9.74a.74.74,0,0,0-.91.54.76.76,0,0,0,.55.91l1.1.27a.49.49,0,0,1,.35.32l.62,1.72A.75.75,0,1,0,6.54,13l-.62-1.73A.51.51,0,0,1,6,10.81l.68-.91a.74.74,0,0,0-.16-1.05A.75.75,0,0,0,5.46,9Z" style="fill: #000001"/>
    <path d="M4,8.82a.75.75,0,0,0,.6-.3L5.71,7.07A.75.75,0,0,0,5.56,6a.76.76,0,0,0-1,.16l-.68.91a.26.26,0,0,1-.26.1l-1.1-.28a.75.75,0,0,0-.36,1.46l1.75.43A.55.55,0,0,0,4,8.82Z" style="fill: #000001"/>
    <path d="M2.85,5.62a.75.75,0,0,0,.61-.31L4.53,3.87A.75.75,0,0,0,3.33,3l-.68.92A.25.25,0,0,1,2.39,4l-1.1-.27A.75.75,0,0,0,.92,5.16l1.75.44Z" style="fill: #000001"/>
    <path d="M11.91,2.38l.18,0a.75.75,0,0,0,.73-.57l.23-.9A.75.75,0,0,0,11.59.57l-.22.9A.75.75,0,0,0,11.91,2.38Z" style="fill: #000001"/>
    <path d="M11.29,8.93l-.95.34a.25.25,0,0,1-.27-.06L9.4,8.46a.77.77,0,0,0-1.06-.05.75.75,0,0,0-.05,1.06l.67.75a.47.47,0,0,1,.12.45l-.4,1.6a.75.75,0,0,0,1.46.37l.4-1.61a.52.52,0,0,1,.31-.35l1-.33a.75.75,0,0,0-.51-1.42Z" style="fill: #000001"/>
    <path d="M12,6,11,6.32a.25.25,0,0,1-.27-.06l-.68-.74A.75.75,0,0,0,9,5.47.76.76,0,0,0,9,6.53l1.13,1.23a.75.75,0,0,0,.55.25.8.8,0,0,0,.26,0l1.57-.56A.75.75,0,1,0,12,6Z" style="fill: #000001"/>
    <path d="M13.6,3.76a.75.75,0,0,0-1-.45l-.94.34a.26.26,0,0,1-.27-.07l-.68-.74a.75.75,0,0,0-1.11,1l1.13,1.23a.73.73,0,0,0,.55.25.7.7,0,0,0,.25,0l1.58-.56A.75.75,0,0,0,13.6,3.76Z" style="fill: #000001"/>
  </g>
</svg>
