<svg xmlns="http://www.w3.org/2000/svg" viewBox="0 0 14 14">
  <g>
    <path d="M9.8,8.75a.75.75,0,0,1,0-1.5c.13,0,.2-.07.2-.09V4.09S9.93,4,9.8,4H5.35A1.25,1.25,0,0,0,4,5.09V6.25a.75.75,0,0,1-1.5,0V5.09A2.73,2.73,0,0,1,5.35,2.5H9.8a1.65,1.65,0,0,1,1.7,1.59V7.16A1.65,1.65,0,0,1,9.8,8.75Z" style="fill: #000001"/>
    <path d="M11.25,0H4.69A4.67,4.67,0,0,0,0,4.43a.35.35,0,0,0,0,.13V8.42A3.59,3.59,0,0,0,3.58,12h.56a.87.87,0,0,1,.84.64A1.9,1.9,0,0,0,6.79,14h5.33A1.88,1.88,0,0,0,14,12.12V2.75A2.75,2.75,0,0,0,11.25,0ZM4.69,1.5h6.56A1.25,1.25,0,0,1,12.5,2.75v7.62a.63.63,0,0,1-.63.63H8a.61.61,0,0,1-.6-.45A2.15,2.15,0,0,0,5.39,9h-.7A3.19,3.19,0,0,1,1.5,5.81V4.69A3.19,3.19,0,0,1,4.69,1.5Z" style="fill: #000001"/>
    <path d="M6.25,7a1,1,0,1,1,1-1A1,1,0,0,1,6.25,7Z" style="fill: #000001"/>
  </g>
</svg>
