<svg xmlns="http://www.w3.org/2000/svg" viewBox="0 0 14 14">
  <path d="M14,1a1,1,0,0,0-1-1H3A1,1,0,0,0,2,1V2a.25.25,0,0,1-.25.25h-1a.75.75,0,0,0,0,1.5h1A.25.25,0,0,1,2,4V6a.25.25,0,0,1-.25.25h-1a.75.75,0,0,0,0,1.5h1A.25.25,0,0,1,2,8v2a.25.25,0,0,1-.25.25h-1a.75.75,0,0,0,0,1.5h1A.25.25,0,0,1,2,12v1a1,1,0,0,0,1,1H13a1,1,0,0,0,1-1ZM9.71,7.48a.26.26,0,0,0-.21.25V8a.5.5,0,0,1-.5.5H7A.5.5,0,0,1,6.5,8V7.73a.26.26,0,0,0-.21-.25A1.49,1.49,0,0,1,5,6,1.51,1.51,0,0,1,6.43,4.5a.24.24,0,0,0,.21-.14,1.51,1.51,0,0,1,2.72,0,.24.24,0,0,0,.21.14A1.51,1.51,0,0,1,11,6,1.49,1.49,0,0,1,9.71,7.48Z" style="fill: #000001"/>
</svg>
