<svg xmlns="http://www.w3.org/2000/svg" viewBox="0 0 14 14">
  <g>
    <path d="M13.52,11.61a1.92,1.92,0,0,0-.12-1.45L8.5.92a1.68,1.68,0,0,0-3,0L.6,10.16a1.92,1.92,0,0,0-.12,1.45,1.81,1.81,0,0,0,.93,1.06A12.83,12.83,0,0,0,7,14a12.83,12.83,0,0,0,5.59-1.33A1.81,1.81,0,0,0,13.52,11.61Zm-6.69-10a.18.18,0,0,1,.34,0l4,7.61a.23.23,0,0,1,0,.2.28.28,0,0,1-.15.15,11.42,11.42,0,0,1-8.14,0,.28.28,0,0,1-.15-.15.23.23,0,0,1,0-.2Z" style="fill: #000001"/>
    <path d="M5.5,9.25a.75.75,0,0,1-.75-.75V8a.75.75,0,0,1,1.5,0v.5A.75.75,0,0,1,5.5,9.25Z" style="fill: #000001"/>
    <path d="M8.5,9.25a.75.75,0,0,1-.75-.75V8a.75.75,0,0,1,1.5,0v.5A.75.75,0,0,1,8.5,9.25Z" style="fill: #000001"/>
    <path d="M7,6.25a.75.75,0,0,1-.75-.75V5a.75.75,0,0,1,1.5,0v.5A.75.75,0,0,1,7,6.25Z" style="fill: #000001"/>
  </g>
</svg>
