<svg xmlns="http://www.w3.org/2000/svg" viewBox="0 0 14 14">
  <g>
    <path d="M12.85,6.14A.25.25,0,0,0,12.73,6a.24.24,0,0,0-.2,0L8.32,7.29a1.29,1.29,0,0,1-1.43-.47,1.25,1.25,0,0,1-.18-1.14L8.05,1.47a.24.24,0,0,0,0-.2.25.25,0,0,0-.16-.12A6.1,6.1,0,0,0,6.5,1,6.5,6.5,0,1,0,13,7.5,6.1,6.1,0,0,0,12.85,6.14ZM3,5.5a1,1,0,1,1,1,1A1,1,0,0,1,3,5.5Zm2,6a1,1,0,1,1,1-1A1,1,0,0,1,5,11.5Zm5-1a1,1,0,1,1,1-1A1,1,0,0,1,10,10.5Z" style="fill: #000001"/>
    <path d="M8,6.34l5.56-1.77A.58.58,0,0,0,14,4a4.47,4.47,0,0,0-4-4h0a.6.6,0,0,0-.55.42L7.66,6A.29.29,0,0,0,8,6.34Z" style="fill: #000001"/>
  </g>
</svg>
