<svg xmlns="http://www.w3.org/2000/svg" viewBox="0 0 14 14">
  <path d="M13,6.53a.47.47,0,0,0-.14-.37A.48.48,0,0,0,12.5,6h-.3C11.88,3.08,9.72,0,7,0S2.12,3.08,1.8,6H1.5a.48.48,0,0,0-.36.16A.47.47,0,0,0,1,6.53c.07,1.32.45,4.71,2.28,5a.24.24,0,0,1,.22.24V13.5A.5.5,0,0,0,4,14h6a.5.5,0,0,0,.5-.5V11.73a.24.24,0,0,1,.22-.24C12.55,11.24,12.93,7.85,13,6.53ZM3.6,6a.25.25,0,0,1-.19-.09.23.23,0,0,1-.05-.21C3.76,3.61,5.27,1.5,7,1.5s3.24,2.11,3.64,4.2a.23.23,0,0,1-.05.21A.25.25,0,0,1,10.4,6Z" style="fill: #000001"/>
</svg>
