<svg xmlns="http://www.w3.org/2000/svg" fill="none" viewBox="0 0 14 14" id="Inbox-Open--Streamline-Flex">
  <desc>
    Inbox Open Streamline Icon: https://streamlinehq.com
  </desc>
  <g id="inbox-open--mail-envelope-email-message-open-letter-text-document">
    <path id="Subtract" fill="#000000" fill-rule="evenodd" d="M9.464 0.52a40.282 40.282 0 0 0 -5.053 0 2.398 2.398 0 0 0 -2.244 2.27 53.648 53.648 0 0 0 -0.073 2.042 0.25 0.25 0 0 0 0.1 0.204l4.161 3.093A0.985 0.985 0 0 0 7.5 8.13l4.18 -3.086a0.25 0.25 0 0 0 0.102 -0.204 53.628 53.628 0 0 0 -0.073 -2.05A2.398 2.398 0 0 0 9.463 0.52Zm-0.22 7.875 -1.002 0.74A2.234 2.234 0 0 1 5.61 9.13l-0.998 -0.742 -3.426 -2.547c-0.112 -0.083 -0.272 -0.06 -0.336 0.065a1.615 1.615 0 0 0 -0.155 0.462 12.306 12.306 0 0 0 -0.09 0.607A17.122 17.122 0 0 0 0.49 9.13c0 1.14 0.064 1.965 0.203 2.762 0.138 0.79 0.845 1.372 1.691 1.462 1.466 0.157 2.988 0.275 4.553 0.275s3.087 -0.118 4.552 -0.275c0.053 -0.005 0.106 -0.013 0.157 -0.022 0.776 -0.142 1.406 -0.7 1.535 -1.44 0.138 -0.797 0.203 -1.622 0.203 -2.762a17.4 17.4 0 0 0 -0.118 -2.193 12.24 12.24 0 0 0 -0.094 -0.615 1.617 1.617 0 0 0 -0.142 -0.408c-0.064 -0.124 -0.224 -0.149 -0.336 -0.066l-3.45 2.547Zm-3.746 -3.73a0.625 0.625 0 1 0 0 1.25h2.88a0.625 0.625 0 0 0 0 -1.25h-2.88Zm-0.625 -1.992c0 -0.345 0.28 -0.625 0.625 -0.625h2.88a0.625 0.625 0 0 1 0 1.25h-2.88a0.625 0.625 0 0 1 -0.625 -0.625Z" clip-rule="evenodd" stroke-width="1"></path>
  </g>
</svg>