<svg xmlns="http://www.w3.org/2000/svg" fill="none" viewBox="0 0 14 14" id="Mail-Send-Email-Message-Circle--Streamline-Flex">
  <desc>
    Mail Send Email Message Circle Streamline Icon: https://streamlinehq.com
  </desc>
  <g id="mail-send-email-message-circle--send-email-paper-airplane-deliver">
    <path id="Subtract" fill="#000000" fill-rule="evenodd" d="M2.02145 2.02145C3.20296 0.839932 4.90797 0.25 7 0.25c2.09203 0 3.797 0.589932 4.9786 1.77145C13.1601 3.20296 13.75 4.90797 13.75 7c0 2.09203 -0.5899 3.797 -1.7714 4.9786C10.797 13.1601 9.09203 13.75 7 13.75c-2.09203 0 -3.79704 -0.5899 -4.97855 -1.7714C0.839932 10.797 0.25 9.09203 0.25 7c0 -2.09203 0.589932 -3.79704 1.77145 -4.97855Zm8.62945 2.51664c-0.0474 -0.64802 -0.5562 -1.15684 -1.20424 -1.20427 -1.50161 -0.10992 -4.10206 0.19653 -6.65149 2.35866 -0.6247 0.5298 -0.67278 1.5176 0.02739 2.05044 0.42292 0.32186 0.99427 0.68187 1.63171 0.90387l2.11836 -2.11858c0.24407 -0.24409 0.6398 -0.24411 0.88389 -0.00005 0.24409 0.24407 0.24411 0.6398 0.00004 0.88389l-2.1185 2.11872c0.22201 0.63733 0.58196 1.20853 0.90377 1.63143 0.53285 0.7002 1.52065 0.6521 2.05044 0.0274 2.16213 -2.54945 2.46853 -5.1499 2.35863 -6.65151Z" clip-rule="evenodd" stroke-width="1"></path>
  </g>
</svg>