<svg xmlns="http://www.w3.org/2000/svg" fill="none" viewBox="0 0 24 24" id="Rugby--Streamline-Cyber">
  <desc>
    Rugby Streamline Icon: https://streamlinehq.com
  </desc>
  <path fill="#ffffff" d="M23.489 12.198 23.5 0.5H11.814L0.5 12.186V23.5l11.325 -0.011 11.664 -11.291Z" stroke-width="1"></path>
  <path fill="#bbd8ff" d="M23.489 12.198 23.5 0.5l-23 23 11.325 -0.011 11.664 -11.291Z" stroke-width="1"></path>
  <path stroke="#092f63" stroke-linecap="round" stroke-linejoin="round" d="m8.28491 12.8862 2.82899 2.829" stroke-width="1"></path>
  <path stroke="#092f63" stroke-linecap="round" stroke-linejoin="round" d="m9.69897 10.0649 4.23603 4.235" stroke-width="1"></path>
  <path stroke="#092f63" stroke-linecap="round" stroke-linejoin="round" d="m12.521 8.65088 2.828 2.82802" stroke-width="1"></path>
  <path stroke="#092f63" stroke-linecap="round" stroke-linejoin="round" d="M0.5 12.186 11.814 23.5" stroke-width="1"></path>
  <path stroke="#092f63" stroke-linecap="round" stroke-linejoin="round" d="m0.5 17.8428 5.651 5.651" stroke-width="1"></path>
  <path stroke="#092f63" stroke-linecap="round" stroke-linejoin="round" d="M23.489 12.198 23.5 0.5H11.814L0.5 12.186V23.5l11.325 -0.011 11.664 -11.291Z" stroke-width="1"></path>
  <path stroke="#092f63" stroke-linecap="round" stroke-linejoin="round" d="M11.814 0.5 23.5 12.186" stroke-width="1"></path>
  <path stroke="#092f63" stroke-linecap="round" stroke-linejoin="round" d="m17.4709 0.5 6.023 6.024" stroke-width="1"></path>
  <path stroke="#092f63" stroke-linecap="round" stroke-linejoin="round" d="m8.27808 15.7219 7.07102 -7.07102" stroke-width="1"></path>
</svg>