<svg xmlns="http://www.w3.org/2000/svg" fill="none" viewBox="0 0 24 24" id="Daytum-Logo--Streamline-Logos-Block">
  <desc>
    Daytum Logo Streamline Icon: https://streamlinehq.com
  </desc>
  <path fill="#000000" fill-rule="evenodd" d="M5 1a4 4 0 0 0 -4 4v14a4 4 0 0 0 4 4h14a4 4 0 0 0 4 -4V5a4 4 0 0 0 -4 -4H5Zm12.114 3.5H6.886c-1.13 0 -2.045 0.916 -2.045 2.045v10.91c0 1.13 0.916 2.045 2.045 2.045h10.228c1.13 0 2.045 -0.916 2.045 -2.046V6.545c0 -1.13 -0.916 -2.045 -2.045 -2.045Zm-0.853 12.954V8.25h1.023v9.204h-1.023Zm-1.909 -5.113v5.114h1.023V12.34h-1.023Zm-7.636 5.114v-3.069h1.023v3.069H6.716Zm2.932 0v-5.796H8.625v5.795h1.023Zm0.886 0v-4.091h1.023v4.09h-1.023Zm1.91 -7.16v7.16h1.022v-7.16h-1.023ZM8.25 6.546c0 -0.376 0.305 -0.681 0.682 -0.681h6.136a0.682 0.682 0 1 1 0 1.363H8.932a0.682 0.682 0 0 1 -0.682 -0.682Z" clip-rule="evenodd" stroke-width="1"></path>
</svg>