<svg xmlns="http://www.w3.org/2000/svg" fill="none" viewBox="0 0 14 14" id="Bag-Suitcase-4--Streamline-Flex-Neon">
  <desc>
    Bag Suitcase 4 Streamline Icon: https://streamlinehq.com
  </desc>
  <g id="bag-suitcase-4--product-business-briefcase">
    <path id="Vector 194" stroke="#000cfe" stroke-linecap="round" stroke-linejoin="round" d="M4.396 3.53469v-0.70135C4.396 1.68274 5.3676 0.75 6.56613 0.75h0.86806c1.19853 0 2.17013 0.93274 2.17013 2.08334v0.70135" stroke-width="1"></path>
    <path id="Vector 2184" stroke="#000cfe" stroke-linecap="round" stroke-linejoin="round" d="M0.774414 6.84229 6.37009 8.71027c0.41105 0.13722 0.85554 0.13722 1.26659 0l5.59572 -1.86798" stroke-width="1"></path>
    <path id="Intersect" stroke="#c71dff" stroke-linecap="round" stroke-linejoin="round" d="M6.99999 3.5c-1.60059 0 -3.27371 0 -4.67629 0.24064 -0.67229 0.11535 -1.20192 0.60821 -1.346258 1.24904C0.75 5.99944 0.75 6.94132 0.75 8.37501c0 1.43369 0 2.37559 0.227442 3.38529 0.144338 0.6409 0.673968 1.1337 1.346258 1.2491 1.40258 0.2406 3.0757 0.2406 4.67629 0.2406 1.6006 0 3.27371 0 4.67631 -0.2406 0.6723 -0.1154 1.2019 -0.6082 1.3462 -1.2491 0.2275 -1.0097 0.2275 -1.9516 0.2275 -3.38529s0 -2.37557 -0.2275 -3.38533c-0.1443 -0.64083 -0.6739 -1.13369 -1.3462 -1.24904C10.2737 3.5 8.60059 3.5 6.99999 3.5Z" stroke-width="1"></path>
  </g>
</svg>