<svg xmlns="http://www.w3.org/2000/svg" fill="none" viewBox="0 0 14 14" id="Calculator-1--Streamline-Flex-Neon">
  <desc>
    Calculator 1 Streamline Icon: https://streamlinehq.com
  </desc>
  <g id="calculator-1--shop-shopping-pay-payment-store-cash-calculate-math">
    <path id="Vector 5" stroke="#000cfe" stroke-linecap="round" stroke-linejoin="round" d="M8.31396 3.31177h1.37342" stroke-width="1"></path>
    <path id="Vector 9" stroke="#000cfe" stroke-linecap="round" stroke-linejoin="round" d="M4.3042 10.4331h0.28162" stroke-width="1"></path>
    <path id="Vector 10" stroke="#000cfe" stroke-linecap="round" stroke-linejoin="round" d="M6.85938 10.4331h0.28161" stroke-width="1"></path>
    <path id="Vector 11" stroke="#000cfe" stroke-linecap="round" stroke-linejoin="round" d="M9.45312 10.4331h0.28162" stroke-width="1"></path>
    <path id="Vector 6" stroke="#000cfe" stroke-linecap="round" stroke-linejoin="round" d="M4.3042 8.18311h0.28162" stroke-width="1"></path>
    <path id="Vector 7" stroke="#000cfe" stroke-linecap="round" stroke-linejoin="round" d="M6.85938 8.18311h0.28161" stroke-width="1"></path>
    <path id="Vector 8" stroke="#000cfe" stroke-linecap="round" stroke-linejoin="round" d="M9.45312 8.18311h0.28162" stroke-width="1"></path>
    <path id="Intersect" stroke="#c71dff" stroke-linecap="round" stroke-linejoin="round" d="M1.62403 11.415c0.05806 1.0384 0.84774 1.8741 1.85461 1.9498 2.39721 0.1803 4.64551 0.1803 7.04276 0 1.0068 -0.0757 1.7965 -0.9114 1.8546 -1.9498 0.1666 -2.98074 0.1666 -5.84926 0 -8.82997 -0.0581 -1.03843 -0.8478 -1.874141 -1.8546 -1.949847 -2.39725 -0.180244 -4.64555 -0.180244 -7.04276 0C2.47177 0.710889 1.68209 1.5466 1.62403 2.58503c-0.16667 2.98071 -0.16667 5.84923 0 8.82997Z" stroke-width="1"></path>
    <path id="Intersect_2" stroke="#000cfe" stroke-linecap="round" stroke-linejoin="round" d="M10.5213 0.635183c-2.39718 -0.180244 -4.64548 -0.180244 -7.04269 0C2.47174 0.710889 1.68206 1.5466 1.624 2.58503c-0.05575 0.99695 -0.09285 1.98136 -0.1113 2.9616h1.14352l8.87498 0h0.956c-0.0184 -0.98024 -0.0555 -1.96465 -0.1113 -2.9616 -0.058 -1.03843 -0.8477 -1.874141 -1.8546 -1.949847Z" stroke-width="1"></path>
  </g>
</svg>