<svg xmlns="http://www.w3.org/2000/svg" fill="none" viewBox="0 0 14 14" id="Cashing-Check--Streamline-Flex-Neon">
  <desc>
    Cashing Check Streamline Icon: https://streamlinehq.com
  </desc>
  <g id="cashing-check--cashing-check-cheques-money-currency-payment-finance">
    <path id="Intersect" stroke="#c71dff" stroke-linecap="round" stroke-linejoin="round" d="m9.92188 5.51318 0.65622 0H11.9c0.5005 0 0.9229 0.37093 1.0409 0.85733 0.1508 0.62214 0.3091 1.19069 0.3091 3.011 0 1.82029 -0.1583 2.38889 -0.3091 3.01099 -0.118 0.4864 -0.5404 0.8573 -1.0409 0.8573H2.10001c-0.50049 0 -0.92334 -0.3707 -1.03703 -0.8581C0.911 11.7401 0.75 11.1461 0.75 9.38151s0.161 -2.35858 0.31298 -3.01019c0.1281 -0.54921 0.59909 -0.85814 1.14014 -0.85814l0.375 0" stroke-width="1"></path>
    <path id="Vector 7" stroke="#000cfe" stroke-linecap="round" stroke-linejoin="round" d="m9.27734 8.89502 1.76156 0" stroke-width="1"></path>
    <path id="Vector 8" stroke="#000cfe" stroke-linecap="round" stroke-linejoin="round" d="m7.51562 10.9263 3.52318 0" stroke-width="1"></path>
    <path id="Vector" stroke="#000cfe" stroke-linecap="round" stroke-linejoin="round" d="M7.56592 1.17948 4.46438 4.69869l-0.4249 1.99843c-0.06837 0.32156 0.26682 0.62582 0.58072 0.52714l1.98873 -0.62521 3.20354 -3.37088c0.53203 -0.55986 0.43923 -1.49627 -0.2048 -2.06593 -0.62896 -0.556315 -1.54307 -0.5486 -2.04175 0.01724Z" stroke-width="1"></path>
  </g>
</svg>