<svg xmlns="http://www.w3.org/2000/svg" fill="none" viewBox="0 0 14 14" id="Justice-Scale-1--Streamline-Flex-Neon">
  <desc>
    Justice Scale 1 Streamline Icon: https://streamlinehq.com
  </desc>
  <g id="justice-scale-1--office-work-scale-justice-company-arbitration-balance-court">
    <path id="Vector 367" stroke="#000cfe" stroke-linecap="round" stroke-linejoin="round" d="M0.556085 9.79772 3.26084 4.55005l2.47547 5.24762c0.34261 1.96443 -0.69536 2.70343 -2.47547 2.70343 -1.7801 0 -3.047365 -0.7389 -2.704755 -2.70338Z" stroke-width="1"></path>
    <path id="Vector 364" stroke="#c71dff" stroke-linecap="round" stroke-linejoin="round" d="M3.26084 12.501c-1.7801 0 -3.047365 -0.7389 -2.704755 -2.70334l5.180225 -0.00005C6.07892 11.762 5.04095 12.501 3.26084 12.501Z" stroke-width="1"></path>
    <path id="Vector 367_2" stroke="#000cfe" stroke-linecap="round" stroke-linejoin="round" d="m8.25433 9.79772 2.70477 -5.24767 2.4755 5.24762c0.3426 1.96443 -0.6954 2.70343 -2.4755 2.70343 -1.78012 0 -3.04738 -0.7389 -2.70477 -2.70338Z" stroke-width="1"></path>
    <path id="Vector 364_2" stroke="#c71dff" stroke-linecap="round" stroke-linejoin="round" d="M10.9591 12.501c-1.78012 0 -3.04738 -0.7389 -2.70477 -2.70334l5.18027 -0.00005c0.3426 1.96439 -0.6954 2.70339 -2.4755 2.70339Z" stroke-width="1"></path>
    <path id="Vector 362" stroke="#c71dff" stroke-linecap="round" stroke-linejoin="round" d="m0.5 4.55005 13 0" stroke-width="1"></path>
    <path id="Vector 363" stroke="#c71dff" stroke-linecap="round" stroke-linejoin="round" d="m7 1.49902 0 3.05115" stroke-width="1"></path>
  </g>
</svg>