<svg xmlns="http://www.w3.org/2000/svg" fill="none" viewBox="0 0 14 14" id="Production-Belt-Time--Streamline-Flex-Neon">
  <desc>
    Production Belt Time Streamline Icon: https://streamlinehq.com
  </desc>
  <g id="production-belt-time--production-time-produce-box-clock-belt-factory">
    <path id="Vector 248" stroke="#000cfe" stroke-linecap="round" stroke-linejoin="round" d="M3.80811 5.08566c1.1323 -1.00502 1.83418 -1.34434 3.19183 -1.59591 1.35765 0.25157 2.05953 0.59089 3.19186 1.59591L6.99994 6.68158 3.80811 5.08566Z" stroke-width="1"></path>
    <path id="Subtract" stroke="#000cfe" stroke-linecap="round" stroke-linejoin="round" d="M3.80812 5.08555c-0.39355 1.08036 -0.39683 2.36825 -0.08544 3.45361 0.05122 0.17851 0.15857 0.33502 0.30114 0.45403 0.98693 0.82385 1.66268 1.12671 2.76476 1.36751 0.13911 0.0304 0.28372 0.0304 0.42283 0 1.10207 -0.2408 1.77783 -0.54366 2.76476 -1.36751 0.14253 -0.11901 0.24993 -0.27552 0.30113 -0.45403 0.3114 -1.08539 0.3081 -2.37333 -0.0855 -3.45371L6.99994 6.68146 3.80812 5.08555Z" stroke-width="1"></path>
    <path id="Vector 250" stroke="#000cfe" stroke-linecap="round" stroke-linejoin="round" d="M6.99994 6.67407v3.73133" stroke-width="1"></path>
    <path id="Ellipse 141" stroke="#c71dff" stroke-linecap="round" stroke-linejoin="round" d="M0.5 7C0.5 3.41015 3.41015 0.5 7 0.5c2.4714 0 4.6207 1.37927 5.72 3.41004 0.0786 -1.14551 0.0556 -1.80102 -0.1048 -2.990337" stroke-width="1"></path>
    <path id="Ellipse 142" stroke="#c71dff" stroke-linecap="round" stroke-linejoin="round" d="M13.5 7c0 3.5899 -2.9101 6.5 -6.49999 6.5 -2.4592 0 -4.59942 -1.3657 -5.70363 -3.38 -0.07862 1.1455 -0.05558 1.801 0.10477 2.9903" stroke-width="1"></path>
  </g>
</svg>