<svg xmlns="http://www.w3.org/2000/svg" fill="none" viewBox="0 0 14 14" id="Security-Umbrella--Streamline-Flex-Neon">
  <desc>
    Security Umbrella Streamline Icon: https://streamlinehq.com
  </desc>
  <g id="security-umbrella--business-money-wealth-protection-umbrella-insurance-security">
    <path id="Vector" stroke="#000cfe" stroke-linecap="round" stroke-linejoin="round" d="m6.11252 1.71411 0 -1.213866" stroke-width="1"></path>
    <path id="Vector_2" stroke="#000cfe" stroke-linecap="round" stroke-linejoin="round" d="M2.8298 11.8587c0 0.4353 0.17292 0.8528 0.48074 1.1606 0.30781 0.3078 0.7253 0.4807 1.16062 0.4807 0.43531 0 0.8528 -0.1729 1.16061 -0.4807 0.30782 -0.3078 0.48075 -0.7253 0.48075 -1.1606V7.76503" stroke-width="1"></path>
    <path id="Vector_3" stroke="#000cfe" stroke-linecap="round" stroke-linejoin="round" d="M13.5005 8.2605s-0.5998 -0.66862 -1.5726 -0.58506c-0.9728 0.08356 -1.4417 0.68123 -1.4417 1.28055 0 1.74801 3.0143 0.53661 3.0143 2.32911 0 0.9241 -1.9995 1.5764 -3.1909 0.4892M12.0471 6.5v1.16821m0 4.66359V13.5" stroke-width="1"></path>
    <path id="Vector_4" stroke="#c71dff" stroke-linecap="round" stroke-linejoin="round" d="M11.2798 4.27706c-0.2049 -0.30524 -0.4428 -0.59231 -0.714 -0.85661C9.44497 2.3279 7.84863 1.71411 6.26351 1.71411c-1.58511 0 -3.18146 0.61379 -4.3023 1.70634 -0.6607 0.64403 -1.12428 1.42331 -1.393554 2.27108C0.248185 6.69734 1.10686 7.59538 2.16113 7.6425c1.51968 0.06792 2.78132 0.08265 4.10238 0.06782 0.72526 0.00814 1.43261 0.00738 2.17458 -0.00621" stroke-width="1"></path>
  </g>
</svg>