<svg xmlns="http://www.w3.org/2000/svg" fill="none" viewBox="0 0 14 14" id="Shirt--Streamline-Flex-Neon">
  <desc>
    Shirt Streamline Icon: https://streamlinehq.com
  </desc>
  <g id="shirt--clothing-t-shirt-men-top-shopping-catergories">
    <path id="Subtract" stroke="#c71dff" stroke-linecap="round" stroke-linejoin="round" d="M5.0031 0.5H3.44366c-0.38852 0 -1.23112 1.05206 -1.48385 1.3048 -0.37043 0.37042 -0.71156 0.7541 -1.040031 1.12836 -0.330712 0.37681 -0.37533 0.94805 -0.0807 1.35369 0.110026 0.15149 0.228381 0.29909 0.363151 0.43387 0.13478 0.13477 0.28238 0.25312 0.43386 0.36315 0.40565 0.29463 0.97689 0.25001 1.3537 -0.0807 0.12584 -0.11045 0.32428 -0.01985 0.32239 0.14757 -0.02606 2.30663 -0.029 5.00726 0.05364 6.95076 0.01718 0.4039 0.26844 0.7611 0.65056 0.8933 2.06545 0.7143 4.01157 0.6351 6.05272 -0.011 0.4006 -0.1268 0.6708 -0.4937 0.6884 -0.9135 0.0813 -1.941 0.0783 -4.62494 0.0523 -6.91919 -0.0018 -0.16714 0.1962 -0.25758 0.3219 -0.14733 0.3768 0.33071 0.948 0.3753 1.3537 0.08066 0.1516 -0.1101 0.2993 -0.22853 0.4341 -0.3634 0.1349 -0.13487 0.2533 -0.28258 0.3634 -0.43416 0.2947 -0.40566 0.2501 -0.9769 -0.0806 -1.35373 -0.3285 -0.37426 -0.6696 -0.75793 -1.04 -1.12835C11.9122 1.55471 11.0715 0.5 10.6783 0.5H8.88726c-0.19053 0.89765 -0.98765 1.57113 -1.94208 1.57113S5.19362 1.39765 5.0031 0.5Z" stroke-width="1"></path>
  </g>
</svg>