<svg xmlns="http://www.w3.org/2000/svg" fill="none" viewBox="0 0 14 14" id="Signage-1--Streamline-Flex-Neon">
  <desc>
    Signage 1 Streamline Icon: https://streamlinehq.com
  </desc>
  <g id="signage-1--sign-shop-shops-signage-stores">
    <path id="Vector 205" stroke="#000cfe" stroke-linecap="round" stroke-linejoin="round" d="M3.5 5.35156 7 0.75l3.5 4.60156" stroke-width="1"></path>
    <path id="Intersect" stroke="#c71dff" stroke-linecap="round" stroke-linejoin="round" d="M7 5.25c-1.63231 0 -3.34003 0 -4.75933 0.26177 -0.61879 0.11413 -1.10783 0.58345 -1.275954 1.18981C0.75 7.47598 0.75 7.94755 0.75 9.25c0 1.3024 0 1.774 0.214716 2.5484 0.168124 0.6064 0.657164 1.0757 1.275954 1.1898C3.65997 13.25 5.36769 13.25 7 13.25c1.6323 0 3.34 0 4.7593 -0.2618 0.6188 -0.1141 1.1079 -0.5834 1.276 -1.1898 0.2147 -0.7744 0.2147 -1.246 0.2147 -2.5484 0 -1.30245 0 -1.77402 -0.2147 -2.54842 -0.1681 -0.60636 -0.6572 -1.07568 -1.276 -1.18981C10.34 5.25 8.6323 5.25 7 5.25Z" stroke-width="1"></path>
  </g>
</svg>