<svg xmlns="http://www.w3.org/2000/svg" fill="none" viewBox="0 0 24 24" id="Wine--Streamline-Sharp-Gradient-Free">
  <desc>
    Wine Streamline Icon: https://streamlinehq.com
  </desc>
  <g id="Gradient/Food Drink/wine--drink-cook-glass-cooking-wine-nutrition-food">
    <path id="Union" fill="url(#paint0_linear_628_19664)" fill-rule="evenodd" d="M5.43381 0H18.5662l.2931.488575.004.006676.0142.023944c.0122.020595.0298.050366.0521.08871.0447.076674.1088.187718.1881.328317.1584.281008.3782.681118.6261 1.161658.4931.9561 1.1086 2.25216 1.5701 3.57209C21.6951 6.76037 22 7.94619 22 9c0 2.6522-1.0536 5.1957-2.9289 7.0711-1.6382 1.6381-3.7862 2.6492-6.0711 2.8788V22h5v2H6v-2h5v-3.0501c-2.28489-.2296-4.4329-1.2407-6.07107-2.8788C3.05357 14.1957 2 11.6522 2 9c0-1.05381.30488-2.23963.68612-3.33003.46147-1.31993 1.07697-2.61599 1.57013-3.57209.24786-.48054.46766-.88065.6261-1.161658.07927-.140599.14333-.251643.18804-.328317.02236-.038345.03989-.068115.05208-.08871l.01421-.023944.00399-.006676.00173-.002886L6 1C5.14251.485504 5.1424.485689 5.1424.485689L5.43381 0Zm1.14492 2c-.14404.25735-.33359.60483-.54501 1.0147C5.73834 3.58738 5.40468 4.2734 5.0938 5h13.8124c-.3109-.7266-.6445-1.41262-.9399-1.9853-.2114-.40987-.401-.75735-.545-1.0147H6.57873Z" clip-rule="evenodd"></path>
  </g>
  <defs>
    <linearGradient id="paint0_linear_628_19664" x1="23.733" x2="-6.324" y1="29.083" y2="11.291" gradientUnits="userSpaceOnUse">
      <stop stop-color="#ffd600"></stop>
      <stop offset="1" stop-color="#ff007a"></stop>
    </linearGradient>
  </defs>
</svg>