<svg xmlns="http://www.w3.org/2000/svg" fill="none" viewBox="0 0 24 24" id="Controls-Forward--Streamline-Ultimate">
  <desc>
    Controls Forward Streamline Icon: https://streamlinehq.com
  </desc>
  <path stroke="#000000" stroke-linecap="round" stroke-linejoin="round" d="m1.925 3.01095 7.825 4.864v-4.246c-0.00001 -0.13668 0.03733 -0.27075 0.10798 -0.38775 0.07066 -0.11699 0.17192 -0.21246 0.29292 -0.27608 0.1209 -0.06362 0.257 -0.09298 0.3934 -0.0849 0.1365 0.00807 0.2681 0.05328 0.3807 0.13073l12 8.37095c0.1002 0.069 0.1822 0.1612 0.2388 0.2689 0.0567 0.1077 0.0863 0.2275 0.0863 0.3491 0 0.1217 -0.0296 0.2415 -0.0863 0.3492 -0.0566 0.1076 -0.1386 0.1999 -0.2388 0.2688l-12 8.371c-0.1126 0.0775 -0.2442 0.1227 -0.3807 0.1308 -0.1364 0.0081 -0.2725 -0.0213 -0.3934 -0.0849 -0.121 -0.0636 -0.22226 -0.1591 -0.29292 -0.2761 -0.07065 -0.117 -0.10799 -0.2511 -0.10798 -0.3878v-4.246l-7.825 4.864c-0.11261 0.0775 -0.24425 0.1227 -0.38068 0.1308 -0.13643 0.0081 -0.27248 -0.0213 -0.39344 -0.0849 -0.12097 -0.0636 -0.222244 -0.1591 -0.292896 -0.2761 -0.070652 -0.117 -0.107991 -0.2511 -0.107984 -0.3878V3.62895c-0.000007 -0.13668 0.037332 -0.27075 0.107984 -0.38775 0.070652 -0.11699 0.171926 -0.21246 0.292896 -0.27608 0.12096 -0.06362 0.25701 -0.09298 0.39344 -0.0849 0.13643 0.00807 0.26807 0.05328 0.38068 0.13073Z" stroke-width="1"></path>
</svg>