<svg xmlns="http://www.w3.org/2000/svg" viewBox="0 0 32 32" id="Money-Payments-Saving-Treasure--Streamline-Pixel">
  <desc>
    Money Payments Saving Treasure Streamline Icon: https://streamlinehq.com
  </desc>
  <title>money-payments-saving-treasure</title>
  <g>
    <path d="M30.47 9.91h-1.52V8.38h-1.52V6.86h-7.62v1.52h-1.53v1.53h-1.52V16H3.04v-1.52H1.52V16H0v12.19h1.52v-7.62h6.1v9.15H3.04v1.52h25.91v-1.52h-4.57v-9.15h6.09v7.62H32V16h-1.53Zm-10.66 1.52h1.52V9.91h1.52V8.38h1.53v1.53h1.52v1.52h-4.57v1.52h4.57v1.53h1.53V16H25.9v-1.52h-4.57v-1.53h-1.52ZM1.52 19.05v-1.52h10.67v1.52Zm21.33 10.67H9.14v-9.15h3.05v1.53h1.52v-4.57h1.53v3.04h1.52v-3.04h1.52v4.57h1.53v-1.53h3.04Zm7.62 -10.67H19.81v-1.52h10.66Z" fill="#000000" stroke-width="1"></path>
    <path d="M28.95 28.19h1.52v1.53h-1.52Z" fill="#000000" stroke-width="1"></path>
    <path d="M28.95 2.29h1.52v1.52h-1.52Z" fill="#000000" stroke-width="1"></path>
    <path d="M27.43 3.81h1.52v1.53h-1.52Z" fill="#000000" stroke-width="1"></path>
    <path d="M22.85 0.76h1.53v4.58h-1.53Z" fill="#000000" stroke-width="1"></path>
    <path d="M18.28 3.81h1.53v1.53h-1.53Z" fill="#000000" stroke-width="1"></path>
    <path d="M16.76 2.29h1.52v1.52h-1.52Z" fill="#000000" stroke-width="1"></path>
    <path d="M13.71 22.1h4.57v1.52h-4.57Z" fill="#000000" stroke-width="1"></path>
    <path d="M13.71 12.95h1.53v1.53h-1.53Z" fill="#000000" stroke-width="1"></path>
    <path d="M3.04 12.95h1.53v1.53h7.62v-1.53h1.52v-1.52h1.53V8.38h3.04V6.86h-3.04V3.81h-1.53V2.29h-1.52V0.76H4.57v1.53H3.04v1.52H1.52v7.62h1.52Zm1.53 -7.61h1.52V3.81h1.53V2.29h1.52v1.52h1.52v1.53H6.09v1.52h4.57v1.52h1.53v1.53h-1.53v1.52H9.14v1.52H7.62v-1.52H6.09V9.91h4.57V8.38H6.09V6.86H4.57Z" fill="#000000" stroke-width="1"></path>
    <path d="M1.52 28.19h1.52v1.53H1.52Z" fill="#000000" stroke-width="1"></path>
    <path d="M0 11.43h1.52v3.05H0Z" fill="#000000" stroke-width="1"></path>
  </g>
</svg>