<svg xmlns="http://www.w3.org/2000/svg" fill="none" viewBox="0 0 14 14" id="Chat-Bubble-Square-Block--Streamline-Core">
  <desc>
    Chat Bubble Square Block Streamline Icon: https://streamlinehq.com
  </desc>
  <g id="chat-bubble-square-block--messages-message-bubble-chat-square-block">
    <path id="Subtract" fill="#d7e0ff" fill-rule="evenodd" d="m1.5 10.5 -1 3 4 -1h8c0.2652 0 0.5196 -0.1054 0.7071 -0.2929s0.2929 -0.4419 0.2929 -0.7071v-10c0 -0.26522 -0.1054 -0.51957 -0.2929 -0.707107C13.0196 0.605357 12.7652 0.5 12.5 0.5h-10c-0.26522 0 -0.51957 0.105357 -0.70711 0.292893C1.60536 0.98043 1.5 1.23478 1.5 1.5v9Zm9.3281 -3.99905c0 1.79492 -1.45503 3.25 -3.24995 3.25 -1.79493 0 -3.25 -1.45508 -3.25 -3.25 0 -1.79493 1.45507 -3.25 3.25 -3.25 1.79492 0 3.24995 1.45507 3.24995 3.25Z" clip-rule="evenodd" stroke-width="1"></path>
    <path id="Vector" fill="#ffffff" d="M7.57816 9.75098c1.79492 0 3.25004 -1.45508 3.25004 -3.25 0 -1.79493 -1.45512 -3.25 -3.25004 -3.25 -1.79493 0 -3.25 1.45507 -3.25 3.25 0 1.79492 1.45507 3.25 3.25 3.25Z" stroke-width="1"></path>
    <path id="Vector_2" stroke="#4147d5" stroke-linecap="round" stroke-linejoin="round" d="M7.57816 9.75098c1.79492 0 3.25004 -1.45508 3.25004 -3.25 0 -1.79493 -1.45512 -3.25 -3.25004 -3.25 -1.79493 0 -3.25 1.45507 -3.25 3.25 0 1.79492 1.45507 3.25 3.25 3.25Z" stroke-width="1"></path>
    <path id="Vector_3" stroke="#4147d5" stroke-linecap="round" stroke-linejoin="round" d="m4.5 12.5 -4 1 1 -3v-9c0 -0.26522 0.10536 -0.51957 0.29289 -0.707107C1.98043 0.605357 2.23478 0.5 2.5 0.5h10c0.2652 0 0.5196 0.105357 0.7071 0.292893 0.1875 0.187537 0.2929 0.441887 0.2929 0.707107v10c0 0.2652 -0.1054 0.5196 -0.2929 0.7071s-0.4419 0.2929 -0.7071 0.2929h-8Z" stroke-width="1"></path>
    <path id="Vector_4" stroke="#4147d5" stroke-linecap="round" stroke-linejoin="round" d="m9.87817 8.80093 -4.6 -4.6" stroke-width="1"></path>
  </g>
</svg>