<svg xmlns="http://www.w3.org/2000/svg" fill="none" viewBox="0 0 14 14" id="Chat-Bubble-Oval-Notification--Streamline-Core">
  <desc>
    Chat Bubble Oval Notification Streamline Icon: https://streamlinehq.com
  </desc>
  <g id="chat-bubble-oval-notification--messages-message-bubble-chat-oval-notify-ping">
    <path id="Vector" fill="#d7e0ff" d="M6.99809 0.560426c-1.16483 0.000363 -2.30774 0.316666 -3.30702 0.915224C2.6918 2.0742 1.87359 2.9326 1.32359 3.9594 0.773587 4.9862 0.512397 6.14296 0.567835 7.30646 0.623272 8.46997 0.993262 9.59665 1.6384 10.5665l-1.079867 2.873 3.616057 -0.6538c0.87074 0.4255 1.82628 0.649 2.79541 0.6538 0.96913 0.0048 1.92684 -0.2092 2.80175 -0.6261 0.87495 -0.4169 1.64445 -1.0258 2.25125 -1.7815 0.6068 -0.7556 1.0352 -1.63853 1.2533 -2.58281 0.2181 -0.94428 0.2202 -1.92561 0.0062 -2.87083 -0.2139 -0.94523 -0.6385 -1.82997 -1.242 -2.58827 -0.6035 -0.75831 -1.3703 -1.37062 -2.24342 -1.79129C8.924 0.778035 7.96723 0.559854 6.99809 0.560426Z" stroke-width="1"></path>
    <path id="Vector_2" stroke="#4147d5" stroke-linecap="round" stroke-linejoin="round" d="M6.99809 0.560426c-1.16483 0.000363 -2.30774 0.316666 -3.30702 0.915224C2.6918 2.0742 1.87359 2.9326 1.32359 3.9594 0.773587 4.9862 0.512397 6.14296 0.567835 7.30646 0.623272 8.46997 0.993262 9.59665 1.6384 10.5665l-1.079867 2.873 3.616057 -0.6538c0.87074 0.4255 1.82628 0.649 2.79541 0.6538 0.96913 0.0048 1.92684 -0.2092 2.80175 -0.6261 0.87495 -0.4169 1.64445 -1.0258 2.25125 -1.7815 0.6068 -0.7556 1.0352 -1.63853 1.2533 -2.58281 0.1219 -0.52781 0.1763 -1.0672 0.1633 -1.60539" stroke-width="1"></path>
    <path id="Vector_3" fill="#ffffff" d="M11 5.5c1.3807 0 2.5 -1.11929 2.5 -2.5S12.3807 0.5 11 0.5C9.61929 0.5 8.5 1.61929 8.5 3S9.61929 5.5 11 5.5Z" stroke-width="1"></path>
    <path id="Vector_4" stroke="#4147d5" stroke-linecap="round" stroke-linejoin="round" d="M11 5.5c1.3807 0 2.5 -1.11929 2.5 -2.5S12.3807 0.5 11 0.5C9.61929 0.5 8.5 1.61929 8.5 3S9.61929 5.5 11 5.5Z" stroke-width="1"></path>
  </g>
</svg>