<svg xmlns="http://www.w3.org/2000/svg" fill="none" viewBox="0 0 14 14" id="Chat-Bubble-Square-Write--Streamline-Core">
  <desc>
    Chat Bubble Square Write Streamline Icon: https://streamlinehq.com
  </desc>
  <g id="chat-bubble-square-write--messages-message-bubble-chat-square-write-review-pen-pencil-compose">
    <path id="Vector" fill="#d7e0ff" d="m0.5 13.5 4 -1h8a1 1 0 0 0 1 -1v-10a1 1 0 0 0 -1 -1h-10a1 1 0 0 0 -1 1v9l-1 3Z" stroke-width="1"></path>
    <path id="Vector_2" fill="#ffffff" d="m8.363 8.137 -3 0.54 0.5 -3.04 4.73 -4.71a0.999 0.999 0 0 1 1.42 0l1.06 1.06a1 1 0 0 1 0 1.42l-4.71 4.73Z" stroke-width="1"></path>
    <path id="Vector_3" stroke="#4147d5" stroke-linecap="round" stroke-linejoin="round" d="M7.5 0.5h-5a1 1 0 0 0 -1 1v9l-1 3 4 -1h8a1 1 0 0 0 1 -1v-5" stroke-width="1"></path>
    <path id="Vector_4" stroke="#4147d5" stroke-linecap="round" stroke-linejoin="round" d="m8.363 8.137 -3 0.54 0.5 -3.04 4.73 -4.71a0.999 0.999 0 0 1 1.42 0l1.06 1.06a1 1 0 0 1 0 1.42l-4.71 4.73Z" stroke-width="1"></path>
  </g>
</svg>