<svg xmlns="http://www.w3.org/2000/svg" fill="none" viewBox="0 0 14 14" id="Happy-Face--Streamline-Core">
  <desc>
    Happy Face Streamline Icon: https://streamlinehq.com
  </desc>
  <g id="happy-face--smiley-chat-message-smile-emoji-face-satisfied">
    <path id="Vector" fill="#d7e0ff" d="M7 13.5c3.5899 0 6.5 -2.9101 6.5 -6.5C13.5 3.41015 10.5899 0.5 7 0.5 3.41015 0.5 0.5 3.41015 0.5 7c0 3.5899 2.91015 6.5 6.5 6.5Z" stroke-width="1"></path>
    <path id="Vector_2" stroke="#4147d5" stroke-linecap="round" stroke-linejoin="round" d="M7 13.5c3.5899 0 6.5 -2.9101 6.5 -6.5C13.5 3.41015 10.5899 0.5 7 0.5 3.41015 0.5 0.5 3.41015 0.5 7c0 3.5899 2.91015 6.5 6.5 6.5Z" stroke-width="1"></path>
    <path id="Vector_3" stroke="#4147d5" stroke-linecap="round" stroke-linejoin="round" d="M3.69995 8c0.5 1.8 2.5 2.9 4.3 2.4 1.1 -0.4 2 -1.3 2.30005 -2.4" stroke-width="1"></path>
    <g id="Group 623">
      <path id="Vector_4" stroke="#4147d5" stroke-linecap="round" stroke-linejoin="round" d="M4.75 5.5c-0.13807 0 -0.25 -0.11193 -0.25 -0.25S4.61193 5 4.75 5" stroke-width="1"></path>
      <path id="Vector_5" stroke="#4147d5" stroke-linecap="round" stroke-linejoin="round" d="M4.75 5.5c0.13807 0 0.25 -0.11193 0.25 -0.25S4.88807 5 4.75 5" stroke-width="1"></path>
    </g>
    <g id="Group 624">
      <path id="Vector_6" stroke="#4147d5" stroke-linecap="round" stroke-linejoin="round" d="M9.25 5.5c-0.13807 0 -0.25 -0.11193 -0.25 -0.25S9.11193 5 9.25 5" stroke-width="1"></path>
      <path id="Vector_7" stroke="#4147d5" stroke-linecap="round" stroke-linejoin="round" d="M9.25 5.5c0.13807 0 0.25 -0.11193 0.25 -0.25S9.38807 5 9.25 5" stroke-width="1"></path>
    </g>
  </g>
</svg>