<svg xmlns="http://www.w3.org/2000/svg" fill="none" viewBox="0 0 14 14" id="Inbox-Tray-2--Streamline-Core">
  <desc>
    Inbox Tray 2 Streamline Icon: https://streamlinehq.com
  </desc>
  <g id="inbox-tray-2--mail-email-outbox-drawer-empty-open-inbox-arrow-up">
    <path id="Vector" fill="#d7e0ff" d="M13.5 8H10a1 1 0 0 0 -1 1 2 2 0 0 1 -4 0 1 1 0 0 0 -1 -1H0.5v4.5a1 1 0 0 0 1 1h11a1 1 0 0 0 1 -1V8Z" stroke-width="1"></path>
    <path id="Vector_2" stroke="#4147d5" stroke-linecap="round" stroke-linejoin="round" d="M13.5 8H10a1 1 0 0 0 -1 1 2 2 0 0 1 -4 0 1 1 0 0 0 -1 -1H0.5v4.5a1 1 0 0 0 1 1h11a1 1 0 0 0 1 -1V8Z" stroke-width="1"></path>
    <path id="Vector_3" stroke="#4147d5" stroke-linecap="round" stroke-linejoin="round" d="M4.5 3 7 0.5 9.5 3" stroke-width="1"></path>
    <path id="Vector_4" stroke="#4147d5" stroke-linecap="round" stroke-linejoin="round" d="M7 6.5v-6" stroke-width="1"></path>
  </g>
</svg>