<svg xmlns="http://www.w3.org/2000/svg" fill="none" viewBox="0 0 14 14" id="Inbox-Block--Streamline-Core">
  <desc>
    Inbox Block Streamline Icon: https://streamlinehq.com
  </desc>
  <g id="inbox-block--mail-envelope-email-message-block-spam-remove">
    <path id="Subtract" fill="#d7e0ff" fill-rule="evenodd" d="M12.5 7.90479C11.9161 7.3444 11.1232 7 10.25 7 8.71321 7 7.42555 8.06665 7.08697 9.5H1.5c-0.26522 0 -0.51957 -0.10536 -0.707107 -0.29289C0.605357 9.01957 0.5 8.76522 0.5 8.5v-7c0 -0.26522 0.105357 -0.51957 0.292893 -0.707107C0.98043 0.605357 1.23478 0.5 1.5 0.5h10c0.2652 0 0.5196 0.105357 0.7071 0.292893 0.1875 0.187537 0.2929 0.441887 0.2929 0.707107v6.40479Z" clip-rule="evenodd" stroke-width="1"></path>
    <path id="Vector" fill="#ffffff" d="M10.25 13.5c1.7949 0 3.25 -1.4551 3.25 -3.25C13.5 8.45507 12.0449 7 10.25 7 8.45507 7 7 8.45507 7 10.25c0 1.7949 1.45507 3.25 3.25 3.25Z" stroke-width="1"></path>
    <path id="Vector_2" stroke="#4147d5" stroke-linecap="round" stroke-linejoin="round" d="M10.25 13.5c1.7949 0 3.25 -1.4551 3.25 -3.25C13.5 8.45507 12.0449 7 10.25 7 8.45507 7 7 8.45507 7 10.25c0 1.7949 1.45507 3.25 3.25 3.25Z" stroke-width="1"></path>
    <path id="Vector_3" stroke="#4147d5" stroke-linecap="round" stroke-linejoin="round" d="M12.55 12.55 7.94999 7.94995" stroke-width="1"></path>
    <path id="Vector_4" stroke="#4147d5" stroke-linecap="round" stroke-linejoin="round" d="M4.5 9.5h-3c-0.26522 0 -0.51957 -0.10536 -0.707107 -0.29289C0.605357 9.01957 0.5 8.76522 0.5 8.5v-7c0 -0.26522 0.105357 -0.51957 0.292893 -0.707107C0.98043 0.605357 1.23478 0.5 1.5 0.5h10c0.2652 0 0.5196 0.105357 0.7071 0.292893 0.1875 0.187537 0.2929 0.441887 0.2929 0.707107V5" stroke-width="1"></path>
    <path id="Vector_5" stroke="#4147d5" stroke-linecap="round" stroke-linejoin="round" d="m0.5 1.76001 6 4.24 6 -4.24" stroke-width="1"></path>
  </g>
</svg>