<svg xmlns="http://www.w3.org/2000/svg" fill="none" viewBox="0 0 14 14" id="Mail-Search--Streamline-Core">
  <desc>
    Mail Search Streamline Icon: https://streamlinehq.com
  </desc>
  <g id="mail-search--inbox-envelope-email-message-search">
    <path id="Vector" fill="#d7e0ff" d="M12.5 8.5a1 1 0 0 1 -1 1h-10a1 1 0 0 1 -1 -1v-7a1 1 0 0 1 1 -1h10a1 1 0 0 1 1 1v7Z" stroke-width="1"></path>
    <path id="Vector_2" stroke="#4147d5" stroke-linecap="round" stroke-linejoin="round" d="M5 9.5H1.5a1 1 0 0 1 -1 -1v-7a1 1 0 0 1 1 -1h10a1 1 0 0 1 1 1v4" stroke-width="1"></path>
    <path id="Vector_3" stroke="#4147d5" stroke-linecap="round" stroke-linejoin="round" d="M0.5 1.76 6.5 6l6 -4.24" stroke-width="1"></path>
    <path id="Vector_4" fill="#ffffff" d="M9.987 12.5a2.5 2.5 0 1 0 0 -5 2.5 2.5 0 0 0 0 5Z" stroke-width="1"></path>
    <path id="Vector_5" stroke="#4147d5" stroke-linecap="round" stroke-linejoin="round" d="M9.987 12.5a2.5 2.5 0 1 0 0 -5 2.5 2.5 0 0 0 0 5Z" stroke-width="1"></path>
    <path id="Vector_6" stroke="#4147d5" stroke-linecap="round" stroke-linejoin="round" d="m13.487 13.5 -1.73 -1.73" stroke-width="1"></path>
  </g>
</svg>