<svg xmlns="http://www.w3.org/2000/svg" fill="none" viewBox="0 0 14 14" id="Smiley-Emoji-Terrified--Streamline-Core">
  <desc>
    Smiley Emoji Terrified Streamline Icon: https://streamlinehq.com
  </desc>
  <g id="smiley-emoji-terrified">
    <path id="Vector" fill="#d7e0ff" d="M7 13.5c3.5899 0 6.5 -2.9101 6.5 -6.5C13.5 3.41015 10.5899 0.5 7 0.5 3.41015 0.5 0.5 3.41015 0.5 7c0 3.5899 2.91015 6.5 6.5 6.5Z" stroke-width="1"></path>
    <path id="Vector_2" stroke="#4147d5" stroke-linecap="round" stroke-linejoin="round" d="M7 13.5c3.5899 0 6.5 -2.9101 6.5 -6.5C13.5 3.41015 10.5899 0.5 7 0.5 3.41015 0.5 0.5 3.41015 0.5 7c0 3.5899 2.91015 6.5 6.5 6.5Z" stroke-width="1"></path>
    <path id="Vector 873" stroke="#4147d5" stroke-linecap="round" stroke-linejoin="round" d="m10.5 4 -2 1.5 2 1" stroke-width="1"></path>
    <path id="Vector 874" stroke="#4147d5" stroke-linecap="round" stroke-linejoin="round" d="m3.5 4 2 1.5 -2 1" stroke-width="1"></path>
    <path id="Vector_3" stroke="#4147d5" stroke-linecap="round" stroke-linejoin="round" d="M4.5 9.99994S6 7.50006 7 7.5c1 -0.00006 2.5 2.49994 2.5 2.49994" stroke-width="1"></path>
  </g>
</svg>