<svg xmlns="http://www.w3.org/2000/svg" fill="none" viewBox="0 0 14 14"><g id="smiley-happy"><path id="Subtract" fill="#37d7ff" fill-rule="evenodd" d="M13.5 7a6.5 6.5 0 1 1-13 0 6.5 6.5 0 0 1 13 0Zm-3 .5a3.5 3.5 0 1 1-7 0h7Z" clip-rule="evenodd"></path><path id="Ellipse 650" fill="#ffffff" d="M7 11a3.5 3.5 0 0 0 3.5-3.5h-7A3.5 3.5 0 0 0 7 11Z"></path><path id="Vector" stroke="#3e3e3e" stroke-linecap="round" stroke-linejoin="round" d="M7 13.5a6.5 6.5 0 1 0 0-13 6.5 6.5 0 0 0 0 13Z"></path><g id="Group 623"><path id="Vector_2" stroke="#3e3e3e" stroke-linecap="round" stroke-linejoin="round" d="M4.75 5a.25.25 0 0 1 0-.5"></path><path id="Vector_3" stroke="#3e3e3e" stroke-linecap="round" stroke-linejoin="round" d="M4.75 5a.25.25 0 0 0 0-.5"></path></g><g id="Group 624"><path id="Vector_4" stroke="#3e3e3e" stroke-linecap="round" stroke-linejoin="round" d="M9.25 5a.25.25 0 0 1 0-.5"></path><path id="Vector_5" stroke="#3e3e3e" stroke-linecap="round" stroke-linejoin="round" d="M9.25 5a.25.25 0 0 0 0-.5"></path></g><path id="Ellipse 651" stroke="#3e3e3e" stroke-linecap="round" stroke-linejoin="round" d="M7 11a3.5 3.5 0 0 0 3.5-3.5h-7A3.5 3.5 0 0 0 7 11Z"></path></g></svg>