<svg xmlns="http://www.w3.org/2000/svg" fill="none" viewBox="0 0 14 14" id="Smiley-Very-Shocked--Streamline-Core">
  <desc>
    Smiley Very Shocked Streamline Icon: https://streamlinehq.com
  </desc>
  <g id="smiley-very-shocked">
    <path id="Subtract" fill="#d7e0ff" fill-rule="evenodd" d="M1.36724 10.7856C1.66103 12.0265 1.24483 13.1122 1 13.5l2.9379 0c0.08289 -0.4376 0.12088 -1.3493 -0.13685 -2.374C4.46144 12.0952 5.20757 13 7.00003 13c1.79242 0 2.53851 -0.9047 3.19887 -1.8738 -0.25767 1.0246 -0.21968 1.9362 -0.1368 2.3738L13 13.5c-0.2448 -0.3878 -0.661 -1.4735 -0.3672 -2.7144 0.2938 -1.2408 0.1224 -1.80952 0 -1.93878 -0.0825 -0.13059 -0.2177 -0.26118 -0.3945 -0.31771C12.7282 7.86617 13 7.20515 13 6 13 2.25305 10.3072 0.5 7 0.5 3.69276 0.5 1 2.25305 1 6c0 1.20515 0.27181 1.86617 0.76166 2.52911 -0.17675 0.05653 -0.31197 0.18712 -0.39442 0.31771 -0.12241 0.12926 -0.29379 0.69798 0 1.93878ZM6 4.5C6 5.88071 5.10457 7 4 7S2 5.88071 2 4.5 2.89543 2 4 2s2 1.11929 2 2.5Zm6 0c0 1.38071 -0.8954 2.5 -2 2.5 -1.10457 0 -2 -1.11929 -2 -2.5S8.89543 2 10 2c1.1046 0 2 1.11929 2 2.5Z" clip-rule="evenodd" stroke-width="1"></path>
    <path id="Ellipse 654" fill="#ffffff" d="M2 4.5a2 2.5 0 1 0 4 0 2 2.5 0 1 0 -4 0" stroke-width="1"></path>
    <path id="Ellipse 655" fill="#ffffff" d="M8 4.5a2 2.5 0 1 0 4 0 2 2.5 0 1 0 -4 0" stroke-width="1"></path>
    <path id="Vector 891" stroke="#4147d5" stroke-linecap="round" stroke-linejoin="round" d="M7 8.5v2" stroke-width="1"></path>
    <path id="Vector 612" stroke="#4147d5" stroke-linecap="round" stroke-linejoin="round" d="M1 13.5c0.24483 -0.3878 0.66103 -1.4735 0.36724 -2.7144 -0.29379 -1.24081 -0.12241 -1.80952 0 -1.93878 0.24482 -0.38776 0.95482 -0.77552 1.83619 0.77553S4.06031 12.8537 3.9379 13.5" stroke-width="1"></path>
    <path id="Vector 613" stroke="#4147d5" stroke-linecap="round" stroke-linejoin="round" d="M13 13.5c-0.2448 -0.3878 -0.661 -1.4735 -0.3672 -2.7144 0.2938 -1.24081 0.1224 -1.80952 0 -1.93878 -0.2449 -0.38776 -0.9549 -0.77552 -1.8362 0.77553 -0.8814 1.55105 -0.85691 3.23135 -0.7345 3.87765" stroke-width="1"></path>
    <path id="Ellipse 656" stroke="#4147d5" stroke-linecap="round" stroke-linejoin="round" d="M2 4.5a2 2.5 0 1 0 4 0 2 2.5 0 1 0 -4 0" stroke-width="1"></path>
    <path id="Ellipse 657" stroke="#4147d5" stroke-linecap="round" stroke-linejoin="round" d="M8 4.5a2 2.5 0 1 0 4 0 2 2.5 0 1 0 -4 0" stroke-width="1"></path>
    <path id="Vector" stroke="#4147d5" stroke-linecap="round" stroke-linejoin="round" d="M1.76166 8.52911C1.27181 7.86617 1 7.20515 1 6 1 2.25305 3.69276 0.5 7 0.5c3.3072 0 6 1.75305 6 5.5 0 1.20515 -0.2718 1.86617 -0.7617 2.52911" stroke-width="1"></path>
    <path id="Vector_2" stroke="#4147d5" stroke-linecap="round" stroke-linejoin="round" d="M3.80109 11.1261C4.46148 12.0953 5.20757 13 7.00003 13s2.53855 -0.9047 3.19897 -1.8739" stroke-width="1"></path>
  </g>
</svg>