<svg xmlns="http://www.w3.org/2000/svg" fill="none" viewBox="0 0 24 24" id="Book-Album-Picture--Streamline-Cyber">
  <desc>
    Book Album Picture Streamline Icon: https://streamlinehq.com
  </desc>
  <path fill="#ffffff" d="M22.2261 4.8417H4.84167v18.407H22.2261V4.8417Z" stroke-width="1"></path>
  <path fill="#bbd8ff" d="M1.77393 2.7965v18.407l3.0678 2.0452V4.8417l-3.0678 -2.0452Z" stroke-width="1"></path>
  <path fill="#bbd8ff" d="M14.5565 18.647 12 17.6244l-1.0226 1.5339h8.1809l-1.8315 -5.1284 -2.7703 4.6171Z" stroke-width="1"></path>
  <path fill="#bbd8ff" d="M12 10.2104v2.0453l-2.04519 1.2782 -2.0452 -1.2782L12 10.2104Z" stroke-width="1"></path>
  <path stroke="#092f63" stroke-linecap="round" stroke-linejoin="round" d="M22.2261 4.8417H4.84167v18.407H22.2261V4.8417Z" stroke-width="1"></path>
  <path stroke="#092f63" stroke-linecap="round" stroke-linejoin="round" d="M21.2035 2.7965H5.86438" stroke-width="1"></path>
  <path stroke="#092f63" stroke-linecap="round" stroke-linejoin="round" d="M22.2261 0.751301H4.84173L1.77393 2.7965l3.0678 2.0452" stroke-width="1"></path>
  <path stroke="#092f63" stroke-linecap="round" stroke-linejoin="round" d="M1.77393 2.7965v18.407l3.0678 2.0452" stroke-width="1"></path>
  <path stroke="#092f63" stroke-linecap="round" stroke-linejoin="round" d="m12 12.2557 -2.04519 1.2782 -2.0452 -1.2782v-2.0453l2.0452 -1.2782L12 10.2104v2.0453Z" stroke-width="1"></path>
  <path stroke="#092f63" stroke-linejoin="round" d="m16.6017 12 -3.0678 5.113 -2.5565 -1.0226 -2.04521 3.0679H19.1583L16.6017 12Z" stroke-width="1"></path>
</svg>