<svg xmlns="http://www.w3.org/2000/svg" viewBox="0 0 14 14">
  <path d="M13.44,9.9a.26.26,0,0,1-.18-.17l-1.44-5a.26.26,0,0,1,0-.22.24.24,0,0,1,.2-.09h1.18A.76.76,0,0,0,14,3.62a.75.75,0,0,0-.75-.74H8a.26.26,0,0,1-.25-.26V1.12a.75.75,0,0,0-1.5,0v1.5A.26.26,0,0,1,6,2.88H.75A.75.75,0,0,0,0,3.62a.76.76,0,0,0,.75.76H1.93a.24.24,0,0,1,.2.09.26.26,0,0,1,.05.22l-1.44,5a.26.26,0,0,1-.18.17.75.75,0,0,0-.56.72,3,3,0,0,0,6,0,.75.75,0,0,0-.56-.72.26.26,0,0,1-.18-.17l-1.44-5a.26.26,0,0,1,.05-.22.24.24,0,0,1,.2-.09H9.93a.24.24,0,0,1,.2.09.26.26,0,0,1,0,.22l-1.44,5a.26.26,0,0,1-.18.17.75.75,0,0,0-.56.72,3,3,0,0,0,6,0A.75.75,0,0,0,13.44,9.9Zm-11.37,0a.25.25,0,0,1-.2-.1.26.26,0,0,1-.05-.22l.94-3.27a.25.25,0,0,1,.48,0l.94,3.27a.26.26,0,0,1,0,.22.25.25,0,0,1-.2.1Zm8,0a.25.25,0,0,1-.2-.1.26.26,0,0,1,0-.22l.94-3.27a.25.25,0,0,1,.48,0l.94,3.27a.26.26,0,0,1,0,.22.25.25,0,0,1-.2.1Z" style="fill: #000001"/>
</svg>
