<svg xmlns="http://www.w3.org/2000/svg" viewBox="0 0 14 14">
  <path d="M13.927,2.455A.75.75,0,0,0,13.78,1.6L12.4.22a.747.747,0,0,0-.853-.146l-2.62,1.25a.749.749,0,0,0-.419.571l-.25,1.75a.746.746,0,0,0,.055.4.252.252,0,0,1-.052.277L5.728,6.858a.25.25,0,0,1-.354,0l-.152-.152a.99.99,0,0,0-1.4,0L.717,9.814a2.453,2.453,0,0,0,3.47,3.469l3.107-3.108a.989.989,0,0,0,0-1.4l-.152-.152a.25.25,0,0,1,0-.354L9.674,5.74a.252.252,0,0,1,.277-.052.746.746,0,0,0,.3.063.959.959,0,0,0,.106-.007l1.75-.251a.75.75,0,0,0,.571-.419ZM11.553,3.944a.249.249,0,0,1-.19.14l-.724.1a.252.252,0,0,1-.213-.071l-.543-.543a.252.252,0,0,1-.07-.212l.1-.725a.251.251,0,0,1,.14-.19l1.5-.715a.25.25,0,0,1,.285.049l.381.381a.25.25,0,0,1,.048.284Z" style="fill: #000001"/>
</svg>
