<svg xmlns="http://www.w3.org/2000/svg" viewBox="0 0 14 14">
  <g>
    <path d="M8,9a.25.25,0,0,0-.25.25v1a.75.75,0,0,1-1.5,0v-1A.25.25,0,0,0,6,9H.25A.25.25,0,0,0,0,9.25V12.5A1.5,1.5,0,0,0,1.5,14h11A1.5,1.5,0,0,0,14,12.5V9.25A.25.25,0,0,0,13.75,9Z" style="fill: #000001"/>
    <path d="M13.75,7.5A.25.25,0,0,0,14,7.25V5.5A1.5,1.5,0,0,0,12.5,4H11.243a.25.25,0,0,1-.25-.235,4,4,0,0,0-7.986,0A.25.25,0,0,1,2.758,4H1.5A1.5,1.5,0,0,0,0,5.5V7.25a.25.25,0,0,0,.25.25ZM7,2A2,2,0,0,1,8.98,3.714.252.252,0,0,1,8.732,4H5.268a.25.25,0,0,1-.248-.286A2,2,0,0,1,7,2Z" style="fill: #000001"/>
  </g>
</svg>
