<svg xmlns="http://www.w3.org/2000/svg" viewBox="0 0 14 14">
  <g>
    <path d="M10.425.1a.5.5,0,0,0-.8.4V1.671a1,1,0,0,1-2,0V.5a.5.5,0,0,0-.8-.4A3,3,0,0,0,7.24,5.161a.25.25,0,0,1,.135.222V5.75a.25.25,0,0,0,.25.25h2a.25.25,0,0,0,.25-.25V5.383a.249.249,0,0,1,.135-.222A3,3,0,0,0,10.425.1Z" style="fill: #000001"/>
    <path d="M9.267,14H2.375a.75.75,0,0,1-.75-.75V9.75A.75.75,0,0,1,2.375,9H3.594a.252.252,0,0,0,.2-.1L4.73,7.683A1.759,1.759,0,0,1,6.117,7H9.959a1.749,1.749,0,0,1,1.73,2.015l-.7,3.532A1.731,1.731,0,0,1,9.267,14ZM3.125,12.25a.25.25,0,0,0,.25.25H9.267a.249.249,0,0,0,.248-.212l.7-3.532a.256.256,0,0,0-.065-.17A.248.248,0,0,0,9.959,8.5H6.117a.248.248,0,0,0-.2.1v0L4.981,9.817a1.759,1.759,0,0,1-1.387.683H3.375a.25.25,0,0,0-.25.25Zm2.2-4.11h0Z" style="fill: #000001"/>
  </g>
</svg>
