<svg xmlns="http://www.w3.org/2000/svg" viewBox="0 0 14 14">
  <g>
    <path d="M9.75,7.625H4.25a.625.625,0,0,1,0-1.25h5.5a.625.625,0,0,1,0,1.25Z" style="fill: #000001"/>
    <path d="M9.75,5.125H4.25a.625.625,0,0,1,0-1.25h5.5a.625.625,0,0,1,0,1.25Z" style="fill: #000001"/>
    <path d="M9.75,10.125H4.25a.625.625,0,0,1,0-1.25h5.5a.625.625,0,0,1,0,1.25Z" style="fill: #000001"/>
    <path d="M7,14a7,7,0,1,1,7-7A7.008,7.008,0,0,1,7,14ZM7,1.5A5.5,5.5,0,1,0,12.5,7,5.506,5.506,0,0,0,7,1.5Z" style="fill: #000001"/>
  </g>
</svg>
