<svg xmlns="http://www.w3.org/2000/svg" viewBox="0 0 14 14">
  <g>
    <path d="M6.25,11.6a.76.76,0,0,0-.75-.75A.71.71,0,0,0,5,11a.27.27,0,0,1-.17.06H3.52a.7.7,0,0,1-.27-.2c0-.07-.09-.58.93-1.7a.27.27,0,0,1,.19-.08h.55A.75.75,0,0,0,5.57,8L4.09,5.57a.73.73,0,0,0-.64-.36H.75a.73.73,0,0,0-.67.42.72.72,0,0,0,.08.78l.21.28a.25.25,0,0,1,0,.25,1.76,1.76,0,0,0-.14.73A9.17,9.17,0,0,0,2,11.8a2.14,2.14,0,0,0,1.41.8h1.8A1,1,0,0,0,6.25,11.6Z" style="fill: #000001"/>
    <path d="M13.91,8.66a1.6,1.6,0,0,0-.14-1.36l-1-1.51a1,1,0,0,0-.64-.42,1,1,0,0,0-.75.17.74.74,0,0,0-.19,1,.75.75,0,0,0,.51.31l.71,1.05a.24.24,0,0,1,0,.2.22.22,0,0,1-.12.16,4.35,4.35,0,0,1-1.3.29.24.24,0,0,1-.26-.19.77.77,0,0,0-.49-.54.76.76,0,0,0-.84.26L7.73,10.33a.75.75,0,0,0,0,.87l1.6,2.46a.74.74,0,0,0,.63.34l.18,0a.77.77,0,0,0,.57-.67v-.15a.23.23,0,0,1,.17-.21,1.9,1.9,0,0,0,.47-.24C12.14,12.15,13.91,8.66,13.91,8.66Z" style="fill: #000001"/>
    <path d="M10.49,4.43l1-2.7a.75.75,0,0,0-.92-1l-.4.12A.24.24,0,0,1,9.94.78,2.21,2.21,0,0,0,9.3.29,5.51,5.51,0,0,0,7.13,0h-2A1.65,1.65,0,0,0,3.84.87l-.92,2a1,1,0,0,0,0,.76,1,1,0,0,0,.51.56.74.74,0,0,0,1-.88.25.25,0,0,1,0-.17l.61-1.33a.25.25,0,0,1,.16-.14.26.26,0,0,1,.21,0A4.68,4.68,0,0,1,6.6,3.08a.24.24,0,0,1,0,.28l-.26.33a.75.75,0,0,0,.58,1.22h2.9A.75.75,0,0,0,10.49,4.43Z" style="fill: #000001"/>
  </g>
</svg>
