<svg xmlns="http://www.w3.org/2000/svg" viewBox="0 0 14 14">
  <path d="M12.5,1.5H11a1.46,1.46,0,0,1-.68-.17A7.5,7.5,0,0,0,7,.5a7.54,7.54,0,0,0-3.34.83A1.49,1.49,0,0,1,3,1.5H1.5A1.5,1.5,0,0,0,0,3V5.5A2.5,2.5,0,0,0,2.05,8h.66A.25.25,0,0,0,3,7.71v-2a.75.75,0,0,1,1.5,0v2A1.76,1.76,0,0,1,2.71,9.46H2.59a.25.25,0,0,0-.24.3,4.76,4.76,0,0,0,9.3,0,.25.25,0,0,0-.24-.3h-.2A1.75,1.75,0,0,1,9.46,7.71v-2a.75.75,0,0,1,1.5,0v2a.25.25,0,0,0,.25.25H12A2.5,2.5,0,0,0,14,5.5V3A1.5,1.5,0,0,0,12.5,1.5Zm-5,9.25h-1a.75.75,0,0,1,0-1.5h1a.75.75,0,0,1,0,1.5Z" style="fill: #000001"/>
</svg>
