<svg xmlns="http://www.w3.org/2000/svg" viewBox="0 0 14 14">
  <g>
    <path d="M12.5,5.5a5.5,5.5,0,1,0-6.548,5.394.251.251,0,0,0,.3-.245V8.414a.251.251,0,0,0-.073-.177L4.97,7.03A.75.75,0,0,1,6.03,5.97l.793.793a.252.252,0,0,0,.354,0L7.97,5.97A.75.75,0,1,1,9.03,7.03L7.823,8.237a.251.251,0,0,0-.073.177v2.235a.251.251,0,0,0,.3.245A5.5,5.5,0,0,0,12.5,5.5Z" style="fill: #000001"/>
    <path d="M7,10.25a.75.75,0,0,0-.75.75v2.25a.75.75,0,0,0,1.5,0V11A.75.75,0,0,0,7,10.25Z" style="fill: #000001"/>
  </g>
</svg>
