<svg xmlns="http://www.w3.org/2000/svg" viewBox="0 0 14 14">
  <path d="M14,5.5a3.75,3.75,0,0,0-3.75-3.75H6.75A2.75,2.75,0,0,0,4,4.5V7.31a.25.25,0,0,1-.18.24.26.26,0,0,1-.28-.1L1.37,4.32a.76.76,0,0,0-1-.19.76.76,0,0,0-.19,1L4,10.73a.3.3,0,0,1,0,.1,1.75,1.75,0,0,0,1.71,1.42h3.5A1.76,1.76,0,0,0,11,10.5V9.37a.26.26,0,0,1,.19-.24A3.77,3.77,0,0,0,14,5.5ZM11.38,7.44a.3.3,0,0,1-.26,0A.27.27,0,0,1,11,7.22V6a.76.76,0,0,0-.75-.75h-1A.25.25,0,0,1,9,5.07l-.43-1.5a.26.26,0,0,1,.25-.32h1.42a2.25,2.25,0,0,1,1.13,4.19Z" style="fill: #000001"/>
</svg>
