<svg xmlns="http://www.w3.org/2000/svg" viewBox="0 0 14 14">
  <path d="M10.25,10.75c-1.791,0-2.856-1.7-3.886-3.353C5.55,6.1,4.709,4.75,3.75,4.75A2.017,2.017,0,0,0,1.5,7,2.017,2.017,0,0,0,3.75,9.25a1.622,1.622,0,0,0,.987-.408.75.75,0,1,1,.922,1.183,3.092,3.092,0,0,1-1.909.725A3.486,3.486,0,0,1,0,7,3.486,3.486,0,0,1,3.75,3.25c1.791,0,2.856,1.7,3.886,3.353C8.45,7.9,9.291,9.25,10.25,9.25A2.017,2.017,0,0,0,12.5,7a2.017,2.017,0,0,0-2.25-2.25,1.622,1.622,0,0,0-.987.408.75.75,0,1,1-.922-1.183A3.092,3.092,0,0,1,10.25,3.25,3.486,3.486,0,0,1,14,7,3.486,3.486,0,0,1,10.25,10.75Z" style="fill: #000001"/>
</svg>
