<svg xmlns="http://www.w3.org/2000/svg" viewBox="0 0 14 14">
  <g>
    <path d="M7,4.131a.75.75,0,0,1-.75-.75V.881a.75.75,0,0,1,1.5,0v2.5A.75.75,0,0,1,7,4.131Z" style="fill: #000001"/>
    <path d="M3.336,5.623,1.493,3.933a.75.75,0,1,1,1.014-1.1L4.35,4.517A.75.75,0,1,1,3.336,5.623Z" style="fill: #000001"/>
    <path d="M.3,9.143a.75.75,0,0,1,.441-.965l2.423-.9a.75.75,0,0,1,.524,1.4l-2.423.9A.75.75,0,0,1,.3,9.143Z" style="fill: #000001"/>
    <path d="M4.053,13.791a.75.75,0,0,1-.337-1.006l1.113-2.238a.75.75,0,1,1,1.342.668L5.059,13.453A.751.751,0,0,1,4.053,13.791Z" style="fill: #000001"/>
    <path d="M9.6,5.577a.752.752,0,0,1,.046-1.06l1.843-1.689a.75.75,0,1,1,1.014,1.105l-1.843,1.69A.751.751,0,0,1,9.6,5.577Z" style="fill: #000001"/>
    <path d="M12.738,9.583l-2.423-.9a.75.75,0,0,1,.524-1.4l2.423.9a.75.75,0,1,1-.524,1.4Z" style="fill: #000001"/>
    <path d="M8.941,13.453,7.829,11.215a.75.75,0,1,1,1.342-.668l1.113,2.238a.75.75,0,1,1-1.343.668Z" style="fill: #000001"/>
  </g>
</svg>
