<svg xmlns="http://www.w3.org/2000/svg" fill="none" viewBox="0 0 40 40" id="Cancel-2--Streamline-Stickies">
  <desc>
    Cancel 2 Streamline Icon: https://streamlinehq.com
  </desc>
  <path fill="#ff52a1" stroke="#231f20" stroke-miterlimit="10" d="M0.5 20c0 5.1717 2.05446 10.1316 5.71142 13.7886C9.86838 37.4455 14.8283 39.5 20 39.5c5.1717 0 10.1316 -2.0545 13.7886 -5.7114C37.4455 30.1316 39.5 25.1717 39.5 20c0 -5.1717 -2.0545 -10.13162 -5.7114 -13.78858C30.1316 2.55446 25.1717 0.5 20 0.5 14.8283 0.5 9.86838 2.55446 6.21142 6.21142 2.55446 9.86838 0.5 14.8283 0.5 20Z" stroke-width="1"></path>
  <path fill="#ffffff" stroke="#231f20" stroke-miterlimit="10" d="M30.08 25.41c-0.16 -0.77 -2.31 -3.15 -4.48 -5.41 2.17 -2.26 4.32 -4.64 4.48 -5.41 0.46 -0.89 -0.63 -2.11 -1.59 -3.08 -0.96 -0.97 -2.19 -1.99999 -3.08 -1.58999C24.64 10.08 22.26 12.23 20 14.4c-2.26 -2.17 -4.64 -4.32 -5.41 -4.47999 -0.89 -0.46 -2.11 0.62999 -3.07 1.58999s-2.06 2.19 -1.6 3.08c0.16 0.77 2.31 3.15 4.48 5.41 -2.17 2.26 -4.32 4.64 -4.48 5.41 -0.46 0.89 0.63 2.11 1.59 3.08 0.96 0.97 2.19 2.05 3.08 1.59 0.77 -0.16 3.15 -2.31 5.41 -4.48 2.26 2.17 4.64 4.32 5.41 4.48 0.89 0.46 2.11 -0.63 3.08 -1.59 0.97 -0.96 2.05 -2.19 1.59 -3.08Z" stroke-width="1"></path>
  <path stroke="#ffffff" stroke-linecap="round" stroke-miterlimit="10" d="M27.56 5c1.9975 0.85715 3.7903 2.12849 5.26 3.73" stroke-width="1"></path>
</svg>