<svg xmlns="http://www.w3.org/2000/svg" fill="none" viewBox="0 -1 42 42" id="Control--Streamline-Stickies">
  <desc>
    Control Streamline Icon: https://streamlinehq.com
  </desc>
  <path fill="#ff52a1" stroke="#231f20" stroke-miterlimit="10" d="M37 17.21c3 -0.69 3.53 -4.27 3.53 -7 0 -2.72999 -0.59 -6.20999 -3.53 -6.91999 -1.48 -0.7 -9.41 -1.4 -16 -1.4s-14.48 0.7 -16 1.4c-2.94 0.71 -3.5 4.27 -3.5 6.95999 0 2.69 0.56 6.27 3.53 7 1.49 0.7 9.41 1.4 16 1.4s14.46 -0.74 15.97 -1.44Z" stroke-width="1"></path>
  <path fill="#48eeff" stroke="#231f20" stroke-miterlimit="10" d="M37 36.71c3 -0.69 3.53 -4.27 3.53 -7 0 -2.73 -0.56 -6.27 -3.53 -7 -1.48 -0.7 -9.41 -1.4 -16 -1.4s-14.48 0.7 -16 1.4c-3 0.69 -3.53 4.27 -3.53 7 0 2.73 0.59 6.29 3.53 7 1.49 0.7 9.41 1.4 16 1.4s14.49 -0.7 16 -1.4Z" stroke-width="1"></path>
  <path fill="#ffffff" stroke="#231f20" stroke-miterlimit="10" d="M5.67999 10.25c0 1.1086 0.44039 2.1718 1.2243 2.9557 0.7839 0.7839 1.8471 1.2243 2.9557 1.2243 1.10861 0 2.17181 -0.4404 2.95571 -1.2243 0.7839 -0.7839 1.2243 -1.8471 1.2243 -2.9557 0 -1.1086 -0.4404 -2.1718 -1.2243 -2.9557 -0.7839 -0.7839 -1.8471 -1.22429 -2.95571 -1.22429 -1.1086 0 -2.1718 0.44039 -2.9557 1.22429 -0.78391 0.7839 -1.2243 1.8471 -1.2243 2.9557Z" stroke-width="1"></path>
  <path fill="#ffffff" stroke="#231f20" stroke-miterlimit="10" d="M27.96 29.75c0 0.5489 0.1081 1.0925 0.3182 1.5996 0.21 0.5072 0.5179 0.968 0.9061 1.3561 0.3881 0.3882 0.8489 0.6961 1.3561 0.9061 0.5071 0.2101 1.0507 0.3182 1.5996 0.3182 0.5489 0 1.0925 -0.1081 1.5996 -0.3182 0.5071 -0.21 0.968 -0.5179 1.3561 -0.9061 0.3881 -0.3881 0.696 -0.8489 0.9061 -1.3561 0.2101 -0.5071 0.3182 -1.0507 0.3182 -1.5996 0 -0.5489 -0.1081 -1.0925 -0.3182 -1.5996 -0.2101 -0.5072 -0.518 -0.9679 -0.9061 -1.3561 -0.3881 -0.3881 -0.849 -0.696 -1.3561 -0.9061 -0.5071 -0.2101 -1.0507 -0.3182 -1.5996 -0.3182 -0.5489 0 -1.0925 0.1081 -1.5996 0.3182 -0.5072 0.2101 -0.968 0.518 -1.3561 0.9061 -0.3882 0.3882 -0.6961 0.8489 -0.9061 1.3561 -0.2101 0.5071 -0.3182 1.0507 -0.3182 1.5996Z" stroke-width="1"></path>
  <path stroke="#ffffff" stroke-linecap="round" stroke-miterlimit="10" d="M34.66 5.29004c2.15 0.54 2.32 0.71 2.79 2.45" stroke-width="1"></path>
  <path stroke="#ffffff" stroke-linecap="round" stroke-miterlimit="10" d="M21.55 23.73c2.35 0 4.22 0 5.33 0.13" stroke-width="1"></path>
</svg>