<svg xmlns="http://www.w3.org/2000/svg" fill="none" viewBox="0 0 14 14" id="Controller-Wireless--Streamline-Flex">
  <desc>
    Controller Wireless Streamline Icon: https://streamlinehq.com
  </desc>
  <g id="controller-wireless--remote-gaming-drones-drone-control-controller-technology-console">
    <path id="Subtract" fill="#000000" fill-rule="evenodd" d="M2.605 2.1a0.75 0.75 0 0 0 0.97 1.144 5.56 5.56 0 0 1 3.427 -1.318 5.55 5.55 0 0 1 3.422 1.317 0.75 0.75 0 0 0 0.97 -1.143A7.05 7.05 0 0 0 6.983 0.426 7.06 7.06 0 0 0 2.605 2.1Zm1.752 2.733a0.75 0.75 0 0 1 0.3 -1.017 5.27 5.27 0 0 1 2.381 -0.64 5.27 5.27 0 0 1 2.335 0.637 0.75 0.75 0 0 1 -0.716 1.318 3.77 3.77 0 0 0 -1.644 -0.454 3.77 3.77 0 0 0 -1.639 0.456 0.75 0.75 0 0 1 -1.017 -0.3Zm-0.61 1.585a3.599 3.599 0 1 0 2.894 5.91 20.37 20.37 0 0 0 0.718 0 3.599 3.599 0 1 0 2.875 -5.911l-0.306 -0.024c-0.946 -0.074 -1.925 -0.15 -2.928 -0.15s-1.983 0.076 -2.928 0.15l-0.325 0.025Zm-1.283 3.51c0 -0.345 0.28 -0.625 0.625 -0.625h0.26v-0.26a0.625 0.625 0 1 1 1.25 0v0.26h0.262a0.625 0.625 0 0 1 0 1.25H4.6v0.26a0.625 0.625 0 1 1 -1.25 0v-0.26h-0.26a0.625 0.625 0 0 1 -0.626 -0.625ZM10.39 8.6a0.625 0.625 0 0 1 0.884 0l0.282 0.282a0.625 0.625 0 1 1 -0.884 0.884l-0.282 -0.282a0.625 0.625 0 0 1 0 -0.884Zm-0.663 1.539a0.625 0.625 0 1 0 -0.884 0.884l0.282 0.282a0.625 0.625 0 1 0 0.884 -0.884l-0.282 -0.282Z" clip-rule="evenodd" stroke-width="1"></path>
  </g>
</svg>