<svg viewBox="0 0 14 14" fill="none" xmlns="http://www.w3.org/2000/svg" id="Database--Streamline-Flex">
  <desc>
    Database Streamline Icon: https://streamlinehq.com
  </desc>
  <g id="database--raid-storage-code-disk-programming-database-array-hard-disc">
    <path id="Subtract" fill-rule="evenodd" clip-rule="evenodd" d="M2.50701 1.10316c-0.95858 0.42437 -1.29546 0.95729 -1.29546 1.52953 0 0.57223 0.33688 1.10515 1.29546 1.52952 0.97441 0.43139 2.4768 0.6847 4.49283 0.6847 2.01604 0 3.51846 -0.25331 4.49286 -0.6847 0.9586 -0.42437 1.2954 -0.95729 1.2954 -1.52952 0 -0.57224 -0.3368 -1.10516 -1.2954 -1.52953C10.5183 0.671775 9.01588 0.418457 6.99984 0.418457c-2.01603 0 -3.51842 0.253318 -4.49283 0.684703Zm9.49169 4.20205c0.266 -0.11776 0.5128 -0.2519 0.7362 -0.40256 0.174 -0.11734 0.4288 -0.00916 0.4382 0.20051 0.0193 0.43164 0.0306 0.86771 0.0306 1.30751 0 0.3496 -0.0109 0.7211 -0.0292 1.09879 -0.0041 0.08333 -0.0499 0.15922 -0.1221 0.20109 -3.73101 2.165 -8.364 2.15723 -12.103691 -0.00025 -0.072463 -0.04181 -0.118538 -0.11787 -0.122597 -0.20142 -0.018339 -0.37749 -0.029237 -0.74879 -0.029237 -1.09821 0 -0.40417 0.009588 -0.85081 0.026176 -1.30485 0.007724 -0.21145 0.265279 -0.32221 0.440669 -0.20386 0.22368 0.15094 0.47087 0.28531 0.73728 0.40325 1.20611 0.53396 2.91037 0.7917 4.99884 0.7917 2.08848 0 3.79276 -0.25774 4.99886 -0.7917ZM1.34722 9.32579c-0.17809 -0.08315 -0.383141 0.05623 -0.36391 0.25183 0.02913 0.29631 0.05901 0.57578 0.08745 0.82868 0.11084 0.9852 0.66682 1.9146 1.63011 2.3458 0.99081 0.4434 2.51863 0.9559 4.29944 0.9559 1.7808 0 3.30859 -0.5125 4.29939 -0.9559 0.9633 -0.4312 1.5193 -1.3606 1.6301 -2.3458 0.0284 -0.252 0.0582 -0.53043 0.0872 -0.82559 0.0193 -0.19578 -0.1862 -0.33519 -0.3643 -0.25175 -3.57425 1.67414 -7.72931 1.66664 -11.30548 -0.00317Z" fill="#000000" stroke-width="1"></path>
  </g>
</svg>