<svg xmlns="http://www.w3.org/2000/svg" fill="none" viewBox="0 0 14 14" id="Left-Click--Streamline-Flex">
  <desc>
    Left Click Streamline Icon: https://streamlinehq.com
  </desc>
  <g id="left-click">
    <path id="Union" fill="#000000" fill-rule="evenodd" d="M3.00244 5.45898c0 -1.99331 1.82776 -3.86132 3.86133 -3.86132 0.41421 0 0.75 -0.33579 0.75 -0.750004 0 -0.414213 -0.33579 -0.7499998 -0.75 -0.7499998 -2.87255 0 -5.36133 2.5501938 -5.36133 5.3613238 0 0.41422 0.33579 0.75 0.75 0.75s0.75 -0.33578 0.75 -0.75Zm4.31217 -2.33989c0.19455 -0.0218 0.39038 -0.03996 0.58739 -0.05286v3.80394c0 0.20797 -0.16864 0.37625 -0.3766 0.37582 -0.87694 -0.00182 -2.11296 -0.003 -2.75797 0.0027 -0.06311 0.00056 -0.12395 0.01045 -0.18123 0.02836 0.01989 -0.44842 0.04876 -0.89214 0.08137 -1.33055 0.10675 -1.43524 1.21677 -2.66718 2.64704 -2.82741Zm-2.7565 5.35453 0 -0.01286c0.06866 0.02514 0.14293 0.03857 0.22036 0.03789 0.63684 -0.00563 1.86557 -0.00448 2.74434 -0.00266 0.89933 0.00186 1.62919 -0.72648 1.62919 -1.62582V3.06613c0.19749 0.01291 0.3938 0.03111 0.58883 0.05296 1.43027 0.16023 2.54027 1.39217 2.64707 2.82742 0.0613 0.82493 0.1094 1.66873 0.1094 2.52711 0 0.85838 -0.0481 1.70218 -0.1094 2.52708 -0.1068 1.4353 -1.2168 2.6672 -2.64707 2.8275 -0.39928 0.0447 -0.80394 0.0741 -1.21311 0.0741 -0.40917 0 -0.81383 -0.0294 -1.21311 -0.0741 -1.43027 -0.1603 -2.54029 -1.3922 -2.64704 -2.8275 -0.06137 -0.8249 -0.10946 -1.6687 -0.10946 -2.52708Z" clip-rule="evenodd" stroke-width="1"></path>
  </g>
</svg>