<svg xmlns="http://www.w3.org/2000/svg" fill="none" viewBox="0 0 14 14" id="Printer-Wireless--Streamline-Flex">
  <desc>
    Printer Wireless Streamline Icon: https://streamlinehq.com
  </desc>
  <g id="printer--wireless-wifi-internet-server-network-smart-control-printer-connection">
    <path id="Union" fill="#000000" fill-rule="evenodd" d="M8.169 0.9a0.75 0.75 0 0 1 0.75 -0.75 4.933 4.933 0 0 1 4.933 4.933 0.75 0.75 0 0 1 -1.5 0A3.433 3.433 0 0 0 8.92 1.649a0.75 0.75 0 0 1 -0.75 -0.75Zm0 2.732a0.75 0.75 0 0 1 0.75 -0.75 2.201 2.201 0 0 1 2.2 2.2 0.75 0.75 0 1 1 -1.5 0 0.701 0.701 0 0 0 -0.7 -0.7 0.75 0.75 0 0 1 -0.75 -0.75Zm-6.438 1.95a1 1 0 0 1 1 -1h4.338a1 1 0 0 1 1 1v0.914a0.267 0.267 0 0 1 -0.284 0.26 3.703 3.703 0 0 0 -0.173 -0.004H2.187a3.24 3.24 0 0 0 -0.172 0.004 0.267 0.267 0 0 1 -0.284 -0.26v-0.913Zm5.881 2.17c0.166 0 0.317 0.014 0.455 0.04C9.137 8 9.42 8.962 9.42 9.923v1.67a0.5 0.5 0 0 1 -0.5 0.5h-0.44a0.257 0.257 0 0 1 -0.25 -0.21 5.712 5.712 0 0 0 -0.036 -0.173 3.749 3.749 0 0 0 -0.221 -0.694 1.928 1.928 0 0 0 -0.494 -0.69 1 1 0 0 0 -0.65 -0.24H2.97a1 1 0 0 0 -0.648 0.24 1.928 1.928 0 0 0 -0.494 0.69c-0.1 0.224 -0.17 0.465 -0.222 0.694a5.65 5.65 0 0 0 -0.036 0.173 0.257 0.257 0 0 1 -0.25 0.21H0.88a0.5 0.5 0 0 1 -0.5 -0.5v-1.67c0 -0.961 0.284 -1.922 1.353 -2.13 0.139 -0.026 0.29 -0.04 0.455 -0.04h5.425Zm-0.36 4.34c0.064 0.34 0.1 0.722 0.117 1.084a0.482 0.482 0 0 1 -0.488 0.5H2.918a0.48 0.48 0 0 1 -0.488 -0.5c0.036 -0.789 0.165 -1.668 0.475 -2.026a0.204 0.204 0 0 1 0.157 -0.065h3.675c0.06 0 0.119 0.02 0.158 0.065 0.167 0.194 0.282 0.54 0.357 0.942Z" clip-rule="evenodd" stroke-width="1"></path>
  </g>
</svg>