<svg xmlns="http://www.w3.org/2000/svg" fill="none" viewBox="0 0 14 14" id="Return-Square-2--Streamline-Flex">
  <desc>
    Return Square 2 Streamline Icon: https://streamlinehq.com
  </desc>
  <g id="return-square-2--arrow-return-enter-keyboard">
    <path id="Subtract" fill="#000000" fill-rule="evenodd" d="M10.3427 0.474686C9.26888 0.35499 8.14832 0.25 7 0.25c-1.14832 0 -2.26888 0.10499 -3.34273 0.224686C1.98532 0.661049 0.641908 2.0033 0.462705 3.67828 0.348408 4.74658 0.25 5.85964 0.25 7c0 1.14035 0.098408 2.25341 0.212705 3.3217 0.179204 1.675 1.522615 3.0173 3.194565 3.2036C4.73112 13.645 5.85168 13.75 7 13.75s2.26888 -0.105 3.3427 -0.2247c1.672 -0.1863 3.0154 -1.5286 3.1946 -3.2036 0.1143 -1.06829 0.2127 -2.18135 0.2127 -3.3217 0 -1.14036 -0.0984 -2.25342 -0.2127 -3.32172C13.3581 2.0033 12.0147 0.661049 10.3427 0.474686ZM7.28802 6.45486l0.16754 0.67014H6.5c-0.62132 0 -1.125 -0.50368 -1.125 -1.125V4c0 -0.48325 -0.39175 -0.875 -0.875 -0.875s-0.875 0.39175 -0.875 0.875v2c0 1.58782 1.28718 2.875 2.875 2.875h0.95556l-0.16754 0.67014c-0.05601 0.22406 -0.00567 0.46146 0.13646 0.64346 0.14213 0.182 0.3602 0.2884 0.59115 0.2884 0.61875 0 1.17811 -0.3817 1.55576 -0.75933 0.40059 -0.40058 0.75191 -0.94789 0.89891 -1.53577 0.0298 -0.11943 0.0298 -0.24437 0 -0.3638 -0.147 -0.58788 -0.49832 -1.13519 -0.89891 -1.53577 -0.37765 -0.37766 -0.93701 -0.75937 -1.55576 -0.75937 -0.23095 0 -0.44902 0.1064 -0.59115 0.28844 -0.14213 0.18203 -0.19247 0.4194 -0.13646 0.64346Z" clip-rule="evenodd" stroke-width="1"></path>
  </g>
</svg>