<svg xmlns="http://www.w3.org/2000/svg" fill="none" viewBox="0 0 14 14" id="Watch-Square-Menu--Streamline-Flex">
  <desc>
    Watch Square Menu Streamline Icon: https://streamlinehq.com
  </desc>
  <g id="watch-square-menu--device-timepiece-watch-square-menu-list-option-app">
    <path id="Union" fill="#000000" fill-rule="evenodd" d="M8.455 0.202C7.984 0.098 7.497 0 7 0c-0.497 0 -0.983 0.098 -1.455 0.202A1.163 1.163 0 0 0 4.64 1.24l-0.016 0.248A21.662 21.662 0 0 1 7 1.333c0.83 0 1.633 0.073 2.376 0.155a17.084 17.084 0 0 0 -0.016 -0.248A1.163 1.163 0 0 0 8.455 0.202ZM4.644 12.76a10.255 10.255 0 0 1 -0.016 -0.246c0.742 0.082 1.543 0.154 2.372 0.154s1.63 -0.072 2.373 -0.154l-0.017 0.246c-0.035 0.503 -0.41 0.93 -0.9 1.038 -0.473 0.104 -0.96 0.202 -1.456 0.202s-0.983 -0.098 -1.455 -0.202a1.158 1.158 0 0 1 -0.901 -1.038Zm-0.067 -1.51a2.09 2.09 0 0 1 -1.835 -1.84c-0.085 -0.782 -0.16 -1.588 -0.16 -2.41 0 -0.821 0.075 -1.626 0.16 -2.41a2.09 2.09 0 0 1 1.835 -1.84c0.787 -0.088 1.597 -0.167 2.423 -0.167 0.826 0 1.636 0.079 2.424 0.168 0.96 0.108 1.73 0.88 1.835 1.84 0.085 0.783 0.159 1.588 0.159 2.41 0 0.821 -0.074 1.627 -0.16 2.41a2.09 2.09 0 0 1 -1.834 1.84c-0.788 0.088 -1.598 0.167 -2.424 0.167 -0.826 0 -1.636 -0.079 -2.423 -0.167Zm2.986 -6.125a0.625 0.625 0 0 0 0 1.25h1.452a0.625 0.625 0 1 0 0 -1.25H7.563Zm-3.2 0.625c0 -0.345 0.28 -0.625 0.625 -0.625h0.496a0.625 0.625 0 0 1 0 1.25h-0.496a0.625 0.625 0 0 1 -0.625 -0.625Zm3.2 1.875a0.625 0.625 0 0 0 0 1.25h1.452a0.625 0.625 0 1 0 0 -1.25H7.563Zm-3.2 0.625c0 -0.345 0.28 -0.625 0.625 -0.625h0.496a0.625 0.625 0 0 1 0 1.25h-0.496a0.625 0.625 0 0 1 -0.625 -0.625Z" clip-rule="evenodd" stroke-width="1"></path>
  </g>
</svg>