<svg xmlns="http://www.w3.org/2000/svg" fill="none" viewBox="0 0 14 14"><g id="bag-dollar--bag-payment-cash-money-finance"><path id="Subtract" fill="#3e3e3e" fill-rule="evenodd" d="M13.463 9.692C13.463 12.664 10.77 14 7 14S.537 12.664.537 9.713c0-3.231 1.616-4.868 4.847-6.505L4.24 1.077A.7.7 0 0 1 4.843 0H9.41a.7.7 0 0 1 .603 1.023L8.616 3.208c3.23 1.615 4.847 3.252 4.847 6.484ZM7.625 4.887a.625.625 0 1 0-1.25 0v.627a1.74 1.74 0 0 0-.298 3.44l1.473.322a.625.625 0 0 1-.133 1.236h-.834a.625.625 0 0 1-.59-.416.625.625 0 1 0-1.178.416 1.877 1.877 0 0 0 1.56 1.239v.636a.625.625 0 1 0 1.25 0v-.636a1.876 1.876 0 0 0 .192-3.696l-1.473-.322a.49.49 0 0 1 .105-.97h.968a.622.622 0 0 1 .59.416.625.625 0 0 0 1.178-.417 1.874 1.874 0 0 0-1.56-1.238v-.637Z" clip-rule="evenodd"></path></g></svg>