<svg xmlns="http://www.w3.org/2000/svg" fill="none" viewBox="0 0 14 14"><g id="binance-circle--crypto-circle-payment-blockchain-finance-binance-currency"><path id="Subtract" fill="#3e3e3e" fill-rule="evenodd" d="M14 7A7 7 0 1 1 0 7a7 7 0 0 1 14 0ZM9.89 3.963l-2.5-2a.625.625 0 0 0-.78 0l-2.5 2a.625.625 0 0 0 .78.976L7 3.252l2.11 1.687a.625.625 0 1 0 .78-.976Zm-5 5.097a.625.625 0 1 0-.78.976l2.5 2a.625.625 0 0 0 .78 0l2.5-2a.625.625 0 1 0-.78-.976L7 10.748 4.89 9.06ZM7.75 7a.75.75 0 1 1-1.5 0 .75.75 0 0 1 1.5 0Zm-3.95.75a.75.75 0 1 0 0-1.5.75.75 0 0 0 0 1.5ZM10.95 7a.75.75 0 1 1-1.5 0 .75.75 0 0 1 1.5 0Z" clip-rule="evenodd"></path></g></svg>