<svg xmlns="http://www.w3.org/2000/svg" fill="none" viewBox="0 0 14 14"><g id="piggy-bank--institution-saving-bank-payment-finance"><path id="Subtract" fill="#3e3e3e" fill-rule="evenodd" d="M7.349 2.08C8.059.705 9.53.352 10.302.387c.553.025.802.516.802.89V3.03c.7.352 1.169.822 1.457 1.407.283.577.369 1.225.384 1.889l.695.57a.5.5 0 0 1 .183.387v2.219a.5.5 0 0 1-.047.21c-.548 1.179-1.519 1.816-2.672 2.267v.637a1 1 0 0 1-1 1h-1.75a1 1 0 0 1-1-1v-.484h-2.14v.406a1 1 0 0 1-1 1H2.447a1 1 0 0 1-1-1v-1.716a6.143 6.143 0 0 0-.038-.121l-.02-.063a24.954 24.954 0 0 1-.132-.425l-.005-.015C.91 9.055.273 6.932 1.186 4.907a4.43 4.43 0 0 1 .23-.442C.944 4.09.47 3.563.208 2.859a.625.625 0 0 1 1.17-.437c.165.44.476.798.829 1.075a4.662 4.662 0 0 1 1.127-.75c.997-.477 2.31-.724 4.015-.666Zm.026 2.822c0 .345-.28.625-.625.625H4.896a.625.625 0 1 1 0-1.25H6.75c.346 0 .625.28.625.625Zm2.459 2.017a.766.766 0 1 0 0-1.53.766.766 0 0 0 0 1.53Z" clip-rule="evenodd"></path></g></svg>