<svg xmlns="http://www.w3.org/2000/svg" fill="none" viewBox="0 0 24 24" id="Chat-Two-Bubbles-Oval--Streamline-Sharp">
  <desc>
    Chat Two Bubbles Oval Streamline Icon: https://streamlinehq.com
  </desc>
  <g id="chat-two-bubbles-oval--messages-message-bubble-chat-oval-conversation">
    <path id="Subtract" fill="#79ee8d" fill-rule="evenodd" d="M1.25 12c0 1.7807 0.4418 3.5158 1.2647 5.0588L1.75 22.25l5.22789 -0.7452c0.32491 0.1717 0.65825 0.3265 0.99866 0.4639C6.70076 20.2537 6 18.163 6 16c0 -2.6522 1.05357 -5.1957 2.92893 -7.07107C10.8043 7.05357 13.3478 6 16 6c2.163 0 4.2537 0.70076 5.9687 1.97655 -0.5356 -1.32697 -1.3358 -2.54647 -2.3673 -3.57795C17.5854 2.38259 14.8511 1.25 12 1.25c-2.85108 0 -5.58538 1.13259 -7.6014 3.1486C2.38259 6.41462 1.25 9.14892 1.25 12Z" clip-rule="evenodd" stroke-width="1"></path>
    <path id="Union" fill="#0c098c" fill-rule="evenodd" d="M3.51472 3.51472C5.76516 1.26428 8.8174 0 12 0s6.2348 1.26428 8.4853 3.51472c1.7051 1.7051 2.8441 3.87049 3.2959 6.20412 -0.2215 -0.27444 -0.4584 -0.53819 -0.7101 -0.78991 -0.9023 -0.90224 -1.9592 -1.61427 -3.1084 -2.11027 -0.3578 -0.54987 -0.7742 -1.0652 -1.2452 -1.53617C16.9359 3.50089 14.5196 2.5 12 2.5c-2.51956 0 -4.93592 1.00089 -6.71751 2.78249C3.50089 7.06408 2.5 9.48044 2.5 12c0 1.5736 0.39039 3.1069 1.11766 4.4706l0.19368 0.3632 -0.05999 0.4072 -0.52078 3.5353 3.57093 -0.509 0.14499 -0.0207c0.48757 1.0395 1.15502 1.997 1.98244 2.8245 0.25171 0.2517 0.51547 0.4886 0.7899 0.7101 -1.02544 -0.1985 -2.01839 -0.5298 -2.95404 -0.9834l-4.83839 0.6897 -1.656975 0.2362 0.243921 -1.6559 0.706534 -4.7963C0.424708 15.6454 0 13.8446 0 12c0 -3.1826 1.26428 -6.23484 3.51472 -8.48528Zm6.82838 6.82838C11.8434 8.84285 13.8783 8 16 8s4.1566 0.84285 5.6569 2.3431C23.1571 11.8434 24 13.8783 24 16c0 1.2097 -0.274 2.3911 -0.7875 3.4613l0.4584 3.073 0.1983 1.3293 -1.3303 -0.192 -3.1012 -0.4479C18.3738 23.73 17.2008 24 16 24c-2.1217 0 -4.1566 -0.8429 -5.6569 -2.3431C8.84285 20.1566 8 18.1217 8 16s0.84285 -4.1566 2.3431 -5.6569Z" clip-rule="evenodd" stroke-width="1"></path>
  </g>
</svg>