<svg xmlns="http://www.w3.org/2000/svg" fill="none" viewBox="0 0 24 24" id="Chat-Bubble-Disable-Oval--Streamline-Sharp">
  <desc>
    Chat Bubble Disable Oval Streamline Icon: https://streamlinehq.com
  </desc>
  <g id="chat-bubble-disable-oval--chat-bubble-disable-oval-deny-cross">
    <path id="Union" fill="#7af1ff" d="M4.39856 4.3986C6.41458 2.38259 9.14888 1.25 12 1.25c2.851 0 5.5853 1.13259 7.6014 3.1486C21.6174 6.41462 22.75 9.14892 22.75 12c0 2.8511 -1.1326 5.5854 -3.1486 7.6014L4.39856 4.3986Z" stroke-width="1"></path>
    <path id="Union_2" fill="#0c098c" fill-rule="evenodd" d="M6.2247 4.45696 19.543 17.7752c1.2622 -1.6485 1.9569 -3.676 1.9569 -5.7752 0 -2.51956 -1.0009 -4.93592 -2.7825 -6.71751C16.9358 3.50089 14.5195 2.5 11.9999 2.5c-2.09915 0 -4.12671 0.69477 -5.7752 1.95696ZM21.323 19.5552l2.5609 2.5609 -1.7678 1.7678L0.116089 1.88388 1.88386 0.116117 4.44469 2.67695C6.5719 0.952989 9.23679 0 11.9999 0c3.1826 0 6.2349 1.26428 8.4853 3.51472C22.7356 5.76516 23.9999 8.8174 23.9999 12c0 2.7631 -0.953 5.428 -2.6769 7.5552ZM3.38131 8.00401c0.00281 -0.00605 0.00563 -0.01211 0.00845 -0.01816L1.53379 6.12988C0.53693 7.90735 0 9.926 0 12.0001c0 1.8445 0.424708 3.6453 1.21988 5.2715l-0.706534 4.7963 -0.243921 1.6558 1.656975 -0.2362 4.83839 -0.6896c1.61665 0.7837 3.40441 1.2022 5.23521 1.2022 2.0741 0 4.0927 -0.537 5.8702 -1.5338l-1.856 -1.856c-0.006 0.0028 -0.0121 0.0056 -0.0182 0.0084L3.38131 8.00401Z" clip-rule="evenodd" stroke-width="1"></path>
  </g>
</svg>