<svg xmlns="http://www.w3.org/2000/svg" fill="none" viewBox="0 0 24 24" id="Inbox-Favorite--Streamline-Sharp">
  <desc>
    Inbox Favorite Streamline Icon: https://streamlinehq.com
  </desc>
  <g id="inbox-favorite--mail-envelope-email-message-star-favorite-important-bookmark">
    <path id="Subtract" fill="#79ee8d" fill-rule="evenodd" d="M19.3093 1.39404H1.30933V15.394h6.15692l-0.0517 -0.0517 6.56825 -2.021 3.5764 -6.13087 1.7501 3.00027V1.39404ZM15.3172 15.0033l-0.0001 0 2.2421 -3.8436 0 0.0001 -0.8637 1.4806 -1.3783 2.3629Z" clip-rule="evenodd" stroke-width="1"></path>
    <path id="Union" fill="#0c098c" fill-rule="evenodd" d="M1.30933 0.144043H0.0593262V16.644H8.71674l-1.30195 -1.3019 3.89371 -1.1981H2.55933V5.51844l7.14294 3.9683 0.60703 0.33725 0.6071 -0.33725 7.1429 -3.9683v2.52872l2.5 4.28574V0.144043H1.30933ZM10.3093 6.96409 2.55933 2.65854v-0.0145H18.0593v0.0145l-7.75 4.30555Zm7.25 4.19531 0.8638 1.4808 1.3784 2.3629 2.5519 0.7852 1.5875 0.4884 -1.1745 1.1745 -1.6465 1.6465 0.57 2.8502 0.3815 1.9077 -1.7733 -0.8 -2.7388 -1.2355 -2.7387 1.2355 -1.7734 0.8 0.3816 -1.9077 0.57 -2.8502 -1.6466 -1.6465 -1.1744 -1.1745 1.5875 -0.4884 2.5519 -0.7852 1.3784 -2.3629 0.8637 -1.4808Z" clip-rule="evenodd" stroke-width="1"></path>
  </g>
</svg>