<svg xmlns="http://www.w3.org/2000/svg" fill="none" viewBox="0 0 24 24" id="Smiley-Shocked--Streamline-Sharp">
  <desc>
    Smiley Shocked Streamline Icon: https://streamlinehq.com
  </desc>
  <g id="smiley-shocked">
    <path id="Ellipse 9" fill="#7af1ff" d="M22.75 12c0 5.9371 -4.8129 10.75 -10.75 10.75 -5.93706 0 -10.75 -4.8129 -10.75 -10.75C1.25 6.06294 6.06294 1.25 12 1.25c5.9371 0 10.75 4.81294 10.75 10.75Z" stroke-width="1"></path>
    <path id="Union" fill="#0c098c" fill-rule="evenodd" d="M2.5 12c0 -5.24671 4.25329 -9.5 9.5 -9.5 5.2467 0 9.5 4.25329 9.5 9.5 0 5.2467 -4.2533 9.5 -9.5 9.5 -5.24671 0 -9.5 -4.2533 -9.5 -9.5ZM12 0C5.37258 0 0 5.37258 0 12c0 6.6274 5.37258 12 12 12 6.6274 0 12 -5.3726 12 -12 0 -6.62742 -5.3726 -12 -12 -12Zm-0.6161 6.88388L10.0178 8.25l1.3661 1.36612 -1.76778 1.76778L8.25 10.0178l-1.36612 1.3661 -1.76776 -1.76778L6.48223 8.25 5.11612 6.88388l1.76776 -1.76776L8.25 6.48223l1.36612 -1.36611 1.76778 1.76776ZM8 16c0 -2.2091 1.79086 -4 4 -4 2.2091 0 4 1.7909 4 4 0 2.2091 -1.7909 4 -4 4 -2.20914 0 -4 -1.7909 -4 -4Zm9.1161 -10.88388L15.75 6.48223l-1.3661 -1.36611 -1.7678 1.76776L13.9822 8.25l-1.3661 1.36612 1.7678 1.76778 1.3661 -1.3661 1.3661 1.3661 1.7678 -1.76778L17.5178 8.25l1.3661 -1.36612 -1.7678 -1.76776Z" clip-rule="evenodd" stroke-width="1"></path>
  </g>
</svg>