<svg xmlns="http://www.w3.org/2000/svg" fill="none" viewBox="0 0 48 48" id="Beer-Pitch--Streamline-Plump">
  <desc>
    Beer Pitch Streamline Icon: https://streamlinehq.com
  </desc>
  <g id="beer-pitch--drink-glass-beer-pitch">
    <path id="Union" fill="#000000" fill-rule="evenodd" d="M20 1c-3.4699 0 -6.5628 1.60749 -8.5768 4.11219C10.9589 5.0383 10.4834 5 10 5c-4.97056 0 -9 4.02944 -9 9 0 2.5221 1.03686 4.801 2.70769 6.4346C3.58523 22.6218 3.5 25.4272 3.5 28.9999c0 3.3192 0.1101 5.9799 0.27269 8.1002 0.42246 5.5091 4.65073 9.0939 10.01391 9.2945 1.7062 0.0639 3.7587 0.1053 6.2134 0.1053s4.5072 -0.0414 6.2134 -0.1053c4.1604 -0.1556 7.6378 -2.3477 9.1855 -5.8947h2.0215c3.9644 0 7.6447 -2.8322 7.9456 -7.1363 0.0798 -1.1398 0.134 -2.4388 0.134 -3.8637 0 -1.425 -0.0542 -2.724 -0.134 -3.8638 -0.2915 -4.1695 -3.7544 -6.9577 -7.5747 -7.128C38.5599 17.1825 39 15.6426 39 14c0 -4.97056 -4.0294 -9 -9 -9 -0.4834 0 -0.9589 0.0383 -1.4232 0.11219C26.5628 2.60749 23.4699 1 20 1Zm-6.009 7.40677C15.2174 6.36158 17.4507 5 20 5s4.7826 1.36158 6.009 3.40677c0.4857 0.81004 1.4719 1.16986 2.3652 0.86293C28.8813 9.09545 29.4274 9 30 9c2.7614 0 5 2.2386 5 5s-2.2386 5 -5 5H18.9974c-1.1002 0 -1.9939 0.8887 -1.9999 1.989 -0.0038 0.6795 -0.0115 1.2471 -0.0219 1.8154C16.9399 24.7413 15.6511 26 14 26s-2.9399 -1.2587 -2.9756 -3.1956c-0.0105 -0.571 -0.0182 -1.1989 -0.0219 -1.8858 -0.0054 -0.9913 -0.7361 -1.8291 -1.71753 -1.9691C6.86291 18.604 5 16.5178 5 14c0 -2.7614 2.23858 -5 5 -5 0.5726 0 1.1187 0.09545 1.6258 0.2697 0.8933 0.30693 1.8795 -0.05289 2.3652 -0.86293ZM36.4225 23.4999c0.0485 1.5918 0.0775 3.4152 0.0775 5.5 0 2.5325 -0.0641 4.6817 -0.1667 6.5h1.0871c1.6957 0 2.864 -1.1428 2.9578 -2.4851 0.0723 -1.0341 0.1218 -2.2163 0.1218 -3.5149 0 -1.2987 -0.0495 -2.4809 -0.1218 -3.515 -0.0938 -1.3423 -1.2621 -2.485 -2.9578 -2.485h-0.9979Z" clip-rule="evenodd" stroke-width="1"></path>
  </g>
</svg>