<svg xmlns="http://www.w3.org/2000/svg" fill="none" viewBox="0 0 48 48" id="Bowl-Chop-Stick--Streamline-Plump">
  <desc>
    Bowl Chop Stick Streamline Icon: https://streamlinehq.com
  </desc>
  <g id="bowl-chop-stick--cook-soup-bowl-chopsticks-cooking-nutrition-asian-food-kitchenware">
    <path id="Union" fill="#000000" fill-rule="evenodd" d="M32.7379 2.47492c-0.2208 -0.22079 -0.4431 -0.41046 -0.6623 -0.57326 -0.7738 -0.57478 -1.6562 -0.64399 -2.4701 -0.41636 -0.8008 0.22396 -1.5471 0.73488 -2.1318 1.3495 -4.5384 4.77077 -8.9718 10.274 -10.8667 12.6775 -0.3489 0.4426 -0.6103 0.9951 -0.6767 1.5617 -0.0675 0.5768 0.0683 1.1886 0.5443 1.6645 0.4759 0.476 1.0877 0.6118 1.6645 0.5443 0.5666 -0.0664 1.1191 -0.3278 1.5617 -0.6767 2.4034 -1.8948 7.9064 -6.3279 12.6771 -10.86626 0.6147 -0.58483 1.1257 -1.33131 1.3497 -2.13232 0.2276 -0.81412 0.1583 -1.69666 -0.4166 -2.47061 -0.1628 -0.21911 -0.3524 -0.44128 -0.5731 -0.66199ZM46.064 8.68871c-0.1561 -0.27042 -0.3217 -0.51115 -0.4913 -0.72514 -0.5987 -0.75548 -1.4331 -1.0507 -2.2782 -1.04149 -0.8315 0.00907 -1.6846 0.30942 -2.4085 0.75177 -5.6185 3.43355 -11.3251 7.60185 -13.7776 9.43305 -0.4516 0.3372 -0.847 0.8032 -1.0578 1.3333 -0.2145 0.5396 -0.2416 1.1658 0.0949 1.7487 0.3366 0.5829 0.8924 0.8725 1.467 0.9565 0.5645 0.0826 1.1657 -0.0269 1.6836 -0.2494 2.8119 -1.2082 9.2748 -4.066 15.0575 -7.215 0.7452 -0.4058 1.4319 -0.9945 1.8556 -1.7103 0.4306 -0.7275 0.5921 -1.5979 0.237 -2.49424 -0.1005 -0.25377 -0.2261 -0.51744 -0.3822 -0.78775ZM6.56543 23.7812c-2.29078 0.1081 -4.21678 2.0527 -3.8632 4.526C4.14861 38.4249 13.1408 46.5 23.9994 46.5c10.8586 0 19.8508 -8.0751 21.2972 -18.1928 0.3535 -2.4733 -1.5725 -4.4179 -3.8632 -4.526 -2.7444 -0.1296 -7.9747 -0.2812 -17.434 -0.2812s-14.68957 0.1516 -17.43397 0.2812ZM30.1239 38.7519c-0.4152 -0.7169 -0.1707 -1.6346 0.5461 -2.0499 2.7813 -1.611 4.9455 -4.1833 6.0403 -7.2119 0.2816 -0.7791 1.1415 -1.1824 1.9206 -0.9008 0.7791 0.2817 1.1823 1.1415 0.9007 1.9206 -1.337 3.6987 -3.9712 6.8263 -7.3579 8.7881 -0.7168 0.4152 -1.6345 0.1707 -2.0498 -0.5461Z" clip-rule="evenodd" stroke-width="1"></path>
  </g>
</svg>