<svg xmlns="http://www.w3.org/2000/svg" fill="none" viewBox="0 0 48 48" id="Chef-Toque-Hat--Streamline-Plump">
  <desc>
    Chef Toque Hat Streamline Icon: https://streamlinehq.com
  </desc>
  <g id="chef-toque-hat--cook-gear-chef-cooking-nutrition-tools-clothes-hat-clothing-food-kitchenware">
    <g id="Subtract">
      <path fill="#000000" fill-rule="evenodd" d="M31.844 5.01988C29.9223 2.86207 27.1205 1.5 24 1.5c-3.1205 0 -5.9223 1.36207 -7.844 3.51988C14.6711 4.05884 12.8998 3.5 11 3.5c-5.2467 0 -9.5 4.25329 -9.5 9.5 0 3.9365 2.39323 7.3107 5.80157 8.7527 0.44903 5.5538 0.93889 10.4402 1.35915 14.2624 0.77458 -0.0442 1.76388 -0.096 2.93738 -0.1477 3.0602 -0.1349 7.3754 -0.2697 12.4011 -0.2697 5.0258 0 9.3409 0.1348 12.4012 0.2697 1.1742 0.0518 2.1641 0.1036 2.9389 0.1478 0.4202 -3.8222 0.9101 -8.7086 1.3591 -14.2625C44.1068 20.3107 46.5 16.9365 46.5 13c0 -5.24671 -4.2533 -9.5 -9.5 -9.5 -1.8998 0 -3.6711 0.55884 -5.156 1.51988ZM20.4884 20.8139c-0.1027 -0.822 -0.8524 -1.4051 -1.6745 -1.3023 -0.822 0.1027 -1.4051 0.8524 -1.3023 1.6745l1 8c0.1027 0.822 0.8524 1.4051 1.6745 1.3023 0.822 -0.1027 1.4051 -0.8524 1.3023 -1.6745l-1 -8Zm8.6977 -1.3023c-0.8221 -0.1028 -1.5718 0.4803 -1.6745 1.3023l-1 8c-0.1028 0.8221 0.4803 1.5718 1.3023 1.6745 0.8221 0.1028 1.5718 -0.4803 1.6745 -1.3023l1 -8c0.1028 -0.8221 -0.4803 -1.5718 -1.3023 -1.6745Z" clip-rule="evenodd" stroke-width="1"></path>
      <path fill="#000000" d="M39.0011 39.0009c-0.7364 -0.0414 -1.6556 -0.0889 -2.7329 -0.1364 -3.0253 -0.1334 -7.2955 -0.2668 -12.269 -0.2668 -4.9734 0 -9.2436 0.1334 -12.269 0.2668 -1.0765 0.0475 -1.99514 0.0949 -2.73129 0.1363 0.15867 1.3595 0.29897 2.5049 0.41233 3.4053 0.25896 2.0569 1.90876 3.6623 4.01166 3.798 2.1183 0.1367 5.644 0.2959 10.5771 0.2959s8.4588 -0.1592 10.5771 -0.2959c2.1029 -0.1357 3.7527 -1.7411 4.0117 -3.798 0.1133 -0.9004 0.2536 -2.0457 0.4123 -3.4052Z" stroke-width="1"></path>
    </g>
  </g>
</svg>