<svg xmlns="http://www.w3.org/2000/svg" fill="none" viewBox="0 0 48 48" id="Drum-Stick--Streamline-Plump">
  <desc>
    Drum Stick Streamline Icon: https://streamlinehq.com
  </desc>
  <g id="drum-stick--cook-animal-drumsticks-products-chicken-cooking-nutrition-food">
    <path id="Union" fill="#000000" fill-rule="evenodd" d="M41.5171 6.48348c-2.9349 -2.93484 -6.555 -4.824 -10.4673 -4.97386 -3.9399 -0.15092 -7.9497 1.471 -11.6073 5.12854 -3.6241 3.62414 -6.3257 8.66264 -7.4138 13.54354 -1.0757 4.825 -0.6454 9.907 2.6189 13.1713 3.2642 3.2643 8.3462 3.6945 13.1712 2.6189 4.8809 -1.0882 9.9195 -3.7897 13.5436 -7.4139 3.6575 -3.6575 5.2794 -7.6674 5.1285 -11.6072 -0.1498 -3.9123 -2.039 -7.53247 -4.9738 -10.46732ZM35.2708 24.9393c0.5858 0.5858 0.5858 1.5356 0 2.1214 -1.7924 1.7923 -4.1277 3.2052 -6.5125 4.0413 -2.3659 0.8295 -4.9343 1.1433 -7.1539 0.5365 -0.7991 -0.2185 -1.2698 -1.0434 -1.0513 -1.8425 0.2185 -0.7991 1.0434 -1.2698 1.8425 -1.0513 1.4401 0.3937 3.3562 0.2324 5.3701 -0.4737 1.9951 -0.6995 3.9349 -1.8828 5.3838 -3.3317 0.5857 -0.5857 1.5355 -0.5857 2.1213 0ZM12.8794 35.1211c0.9251 0.9251 1.9499 1.6588 3.0413 2.2275l-3.1099 2.2252c-0.2289 0.1638 -0.3276 0.5836 -0.1185 1.0091 0.2685 0.5465 0.4191 1.1612 0.4191 1.8095 0 2.2686 -1.839 4.1076 -4.10757 4.1076 -1.84087 0 -3.39767 -1.2106 -3.9202 -2.8779 -0.10352 -0.3302 -0.38048 -0.6073 -0.71074 -0.7109 -1.66672 -0.5229 -2.8768 -2.0794 -2.8768 -3.9199 0 -2.2685 1.83903 -4.1075 4.10759 -4.1075 0.65036 0 1.26676 0.1515 1.81453 0.4216 0.42616 0.2101 0.84716 0.1114 1.01115 -0.118l2.22214 -3.1083c0.5688 1.0917 1.3026 2.1166 2.2279 3.042Z" clip-rule="evenodd" stroke-width="1"></path>
  </g>
</svg>