<svg xmlns="http://www.w3.org/2000/svg" fill="none" viewBox="0 0 48 48" id="Toast--Streamline-Plump">
  <desc>
    Toast Streamline Icon: https://streamlinehq.com
  </desc>
  <g id="toast--bread-toast-breakfast">
    <path id="Union" fill="#000000" fill-rule="evenodd" d="M21 1.5c-4.448 0 -8.2622 0.18526 -11.17185 0.39737 -2.2269 0.16233 -4.3001 0.92444 -5.8396 2.31558C2.424 5.6267 1.5 7.61425 1.5 10c0 3.18 1.62902 5.5612 4.05317 6.8944 0.06028 5.8212 0.16071 10.8952 0.24171 14.3766 0.08311 3.5715 2.72151 6.6205 6.39292 6.9053 2.2549 0.175 5.2128 0.3237 8.7531 0.3237 3.6218 0 6.6341 -0.1556 8.9079 -0.3358 3.5803 -0.2837 6.1972 -3.2093 6.3383 -6.7107 0.1409 -3.4972 0.297 -8.6559 0.3118 -14.5879C38.8951 15.5267 40.5 13.1559 40.5 10c0 -2.38575 -0.924 -4.3733 -2.4885 -5.78705 -1.5396 -1.39114 -3.6127 -2.15325 -5.8396 -2.31558C29.2622 1.68526 25.448 1.5 21 1.5Zm-1 9c0.8284 0 1.5 0.6716 1.5 1.5v1c0 0.8284 -0.6716 1.5 -1.5 1.5s-1.5 -0.6716 -1.5 -1.5v-1c0 -0.8284 0.6716 -1.5 1.5 -1.5ZM29.5 21c0 -0.8284 -0.6716 -1.5 -1.5 -1.5s-1.5 0.6716 -1.5 1.5v1c0 0.8284 0.6716 1.5 1.5 1.5s1.5 -0.6716 1.5 -1.5v-1ZM16 24.5c0.8284 0 1.5 0.6716 1.5 1.5v1c0 0.8284 -0.6716 1.5 -1.5 1.5s-1.5 -0.6716 -1.5 -1.5v-1c0 -0.8284 0.6716 -1.5 1.5 -1.5Zm-4.0054 16.169 -0.0337 -0.0027c0.6391 2.9402 3.0451 5.2633 6.2271 5.5102 2.2549 0.175 5.2128 0.3237 8.753 0.3237 3.6219 0 6.6342 -0.1557 8.908 -0.3358 3.5803 -0.2837 6.1972 -3.2093 6.3383 -6.7107 0.1408 -3.4973 0.297 -8.656 0.3117 -14.5879 2.3963 -1.339 4.0012 -3.7097 4.0012 -6.8656 0 -2.3858 -0.924 -4.3733 -2.4886 -5.7871 -0.3401 -0.3074 -0.7063 -0.584 -1.0945 -0.8303 -0.356 2.9089 -1.8308 5.2431 -3.9238 6.8312 -0.0328 5.4051 -0.177 10.0865 -0.3081 13.3403 -0.189 4.6925 -3.7249 8.7129 -8.6388 9.1023 -2.3337 0.1849 -5.4121 0.3436 -9.1054 0.3436 -3.61 0 -6.6325 -0.1517 -8.9464 -0.3312Z" clip-rule="evenodd" stroke-width="1"></path>
  </g>
</svg>