<svg xmlns="http://www.w3.org/2000/svg" fill="none" viewBox="0 0 48 48" id="Water-Melon--Streamline-Plump">
  <desc>
    Water Melon Streamline Icon: https://streamlinehq.com
  </desc>
  <g id="water-melon--cook-plant-plants-cooking-nutrition-watermelon-fruit-vegetarian-food">
    <g id="Subtract">
      <path fill="#000000" fill-rule="evenodd" d="M38.5 20.5c0 -5.7945 -2.738 -10.94954 -6.9909 -14.24186 -2.9818 2.62669 -7.2549 6.57896 -12.9629 12.28706 -5.7088 5.7087 -9.66132 9.9821 -12.28801 12.964C9.55051 35.762 14.7055 38.5 20.5 38.5c9.9411 0 18 -8.0589 18 -18Zm-9.4393 5.4393c-0.5858 -0.5857 -1.5356 -0.5857 -2.1214 0 -0.5857 0.5858 -0.5857 1.5356 0 2.1214l1 1c0.5858 0.5857 1.5356 0.5857 2.1214 0 0.5857 -0.5858 0.5857 -1.5356 0 -2.1214l-1 -1Zm-0.6546 -10.3066c0.5858 -0.5858 1.5356 -0.5858 2.1214 0l0.9333 0.9333c0.5858 0.5858 0.5858 1.5356 0 2.1214 -0.5858 0.5857 -1.5355 0.5857 -2.1213 0l-0.9334 -0.9334c-0.5857 -0.5858 -0.5857 -1.5355 0 -2.1213ZM18.131 28.0292c-0.5858 -0.5858 -1.5356 -0.5858 -2.1213 0 -0.5858 0.5858 -0.5858 1.5355 0 2.1213l0.9333 0.9333c0.5858 0.5858 1.5355 0.5858 2.1213 0 0.5858 -0.5857 0.5858 -1.5355 0 -2.1213l-0.9333 -0.9333Z" clip-rule="evenodd" stroke-width="1"></path>
      <path fill="#000000" d="M34.8469 3.4095c-0.307 0.25184 -0.649 0.536 -1.027 0.85457C38.509 8.11546 41.5 13.9584 41.5 20.5c0 11.598 -9.402 21 -21 21 -6.5415 0 -12.38446 -2.991 -16.23585 -7.68 -0.31821 0.3775 -0.60207 0.7193 -0.85368 1.0259 -1.41956 1.7301 -1.29778 4.3267 0.52869 5.8137C14.1927 49.0074 29.3034 48.406 38.8552 38.8542c9.5518 -9.5518 10.1531 -24.6625 1.8054 -34.91602 -1.487 -1.82647 -4.0836 -1.94825 -5.8137 -0.52868Z" stroke-width="1"></path>
    </g>
  </g>
</svg>