<svg xmlns="http://www.w3.org/2000/svg" fill="none" viewBox="0 0 14 14"><g id="fireworks-rocket--hobby-entertainment-party-fireworks-rocket"><path id="Union" fill="#3e3e3e" fill-rule="evenodd" d="M6.92 7.443a.625.625 0 0 0-1.038-.255L.41 12.66a.625.625 0 0 0 .884.884l4.191-4.192c-.112.785.131 1.61.73 2.218l.429.434a.625.625 0 0 0 .89-.878l-.43-.434a1.376 1.376 0 0 1 .004-1.935l.247-.249a.625.625 0 0 0-.435-1.065Z" clip-rule="evenodd"></path><path id="Union_2" fill="#37d7ff" fill-rule="evenodd" d="M8.154 1.195a.762.762 0 0 0 .18.277l.441.442-4.183 3.182a.5.5 0 0 0-.051.751l3.564 3.565a.5.5 0 0 0 .752-.051l3.182-4.184.454.455c.08.077.174.135.273.17a.565.565 0 0 0 .29.026.419.419 0 0 0 .244-.117.419.419 0 0 0 .117-.244l.416-4.614a.591.591 0 0 0-.043-.278.767.767 0 0 0-.425-.425.592.592 0 0 0-.277-.043L8.486.536a.42.42 0 0 0-.244.117.42.42 0 0 0-.117.244.568.568 0 0 0 .03.298Z" clip-rule="evenodd"></path><path id="Union_3" fill="#3e3e3e" fill-rule="evenodd" d="M10.466 10.136a.625.625 0 0 0-.884.884l.451.45a.625.625 0 0 0 .884-.883l-.451-.451Zm1.917 0a.625.625 0 0 1 .884.884l-.452.45a.625.625 0 0 1-.883-.883l.45-.451Zm-2.801 3.408c.244.244.64.244.884 0l.451-.452a.625.625 0 0 0-.884-.883l-.451.45a.625.625 0 0 0 0 .885Zm2.8 0a.625.625 0 0 0 .885-.884l-.452-.451a.625.625 0 1 0-.883.883l.45.452Z" clip-rule="evenodd"></path></g></svg>