<svg xmlns="http://www.w3.org/2000/svg" fill="none" viewBox="0 0 14 14"><g id="one-vesus-one--entertainment-gaming-one-vesus-one"><g id="Vector 778"><path fill="#3e3e3e" d="m10.852 12.095.103.307a1.306 1.306 0 0 0 2.537-.557l-.202-1.817a2.4 2.4 0 0 0-2.386-2.136H7.991c-1.223 0-2.25.92-2.386 2.136l-.202 1.816a1.306 1.306 0 0 0 2.538.558l.102-.307c.12-.359.455-.6.833-.6h1.143c.378 0 .714.241.833.6Z"></path></g><path id="Union" fill="#37d7ff" fill-rule="evenodd" d="M8 3a3 3 0 1 1-6 0 3 3 0 0 1 6 0ZM4.363 9.89a3.65 3.65 0 0 1 1.796-2.755A5 5 0 0 0 0 12a.5.5 0 0 0 .5.5h3.696a2.557 2.557 0 0 1-.035-.793l.202-1.817Zm3.54 2.61c.014-.032.027-.065.038-.098l.102-.307-.102.307a1.312 1.312 0 0 1-.037.098Z" clip-rule="evenodd"></path></g></svg>