<svg xmlns="http://www.w3.org/2000/svg" fill="none" viewBox="0 0 14 14"><g id="play-list-4--screen-television-display-player-movies-players-tv-media-video-entertainment"><path id="Union" fill="#37d7ff" fill-rule="evenodd" d="M1.5 0A1.5 1.5 0 0 0 0 1.5v11A1.5 1.5 0 0 0 1.5 14h11a1.5 1.5 0 0 0 1.5-1.5v-11A1.5 1.5 0 0 0 12.5 0h-11Z" clip-rule="evenodd"></path><path id="Vector" fill="#3e3e3e" d="M4.954 9.494V4.646a.46.46 0 0 1 .696-.392L9.8 6.666a.46.46 0 0 1 0 .797L5.65 9.886a.46.46 0 0 1-.696-.392Z"></path></g></svg>