<svg xmlns="http://www.w3.org/2000/svg" viewBox="0 0 32 32" id="Health-Dentistry-Tooth--Streamline-Pixel">
  <desc>
    Health Dentistry Tooth Streamline Icon: https://streamlinehq.com
  </desc>
  <title>health-dentistry-tooth</title>
  <g>
    <path d="M28.955 5.335h1.52v12.19h-1.52Z" fill="#000000" stroke-width="1"></path>
    <path d="M27.425 17.525h1.53v7.62h-1.53Z" fill="#000000" stroke-width="1"></path>
    <path d="M27.425 3.815h1.53v1.52h-1.53Z" fill="#000000" stroke-width="1"></path>
    <path d="M25.905 25.145h1.52v3.05h-1.52Z" fill="#000000" stroke-width="1"></path>
    <path d="M25.905 9.905h1.52v4.58h-1.52Z" fill="#000000" stroke-width="1"></path>
    <path d="M24.385 8.385h1.52v1.52h-1.52Z" fill="#000000" stroke-width="1"></path>
    <path d="M22.855 28.195h3.05v1.52h-3.05Z" fill="#000000" stroke-width="1"></path>
    <path d="M21.335 6.865h3.05v1.52h-3.05Z" fill="#000000" stroke-width="1"></path>
    <path d="M21.335 23.625h1.52v4.57h-1.52Z" fill="#000000" stroke-width="1"></path>
    <path d="M19.805 22.095h1.53v1.53h-1.53Z" fill="#000000" stroke-width="1"></path>
    <path d="M18.285 2.285h9.14v1.53h-9.14Z" fill="#000000" stroke-width="1"></path>
    <path d="M12.195 20.575h7.61v1.52h-7.61Z" fill="#000000" stroke-width="1"></path>
    <path d="M18.285 14.485h1.52v1.52h-1.52Z" fill="#000000" stroke-width="1"></path>
    <path d="M18.285 11.435h1.52v1.52h-1.52Z" fill="#000000" stroke-width="1"></path>
    <path d="M13.715 16.005h4.57v1.52h-4.57Z" fill="#000000" stroke-width="1"></path>
    <path d="M13.715 3.815h4.57v1.52h-4.57Z" fill="#000000" stroke-width="1"></path>
    <path d="M12.195 14.485h1.52v1.52h-1.52Z" fill="#000000" stroke-width="1"></path>
    <path d="M12.195 11.435h1.52v1.52h-1.52Z" fill="#000000" stroke-width="1"></path>
    <path d="M10.665 22.095h1.53v1.53h-1.53Z" fill="#000000" stroke-width="1"></path>
    <path d="M9.145 23.625h1.52v4.57h-1.52Z" fill="#000000" stroke-width="1"></path>
    <path d="M6.095 28.195h3.05v1.52h-3.05Z" fill="#000000" stroke-width="1"></path>
    <path d="M4.575 2.285h9.14v1.53h-9.14Z" fill="#000000" stroke-width="1"></path>
    <path d="M4.575 25.145h1.52v3.05h-1.52Z" fill="#000000" stroke-width="1"></path>
    <path d="M3.045 17.525h1.53v7.62h-1.53Z" fill="#000000" stroke-width="1"></path>
    <path d="M3.045 3.815h1.53v1.52h-1.53Z" fill="#000000" stroke-width="1"></path>
    <path d="M1.525 5.335h1.52v12.19h-1.52Z" fill="#000000" stroke-width="1"></path>
  </g>
</svg>