<svg xmlns="http://www.w3.org/2000/svg" fill="none" viewBox="0 0 24 24" id="Single-Neutral-Folder-Box--Streamline-Ultimate">
  <desc>
    Single Neutral Folder Box Streamline Icon: https://streamlinehq.com
  </desc>
  <path stroke="#000000" stroke-linecap="round" stroke-linejoin="round" d="M9.75 9c0 0.59674 0.23705 1.169 0.659 1.591 0.422 0.4219 0.9943 0.659 1.591 0.659s1.169 -0.2371 1.591 -0.659c0.4219 -0.422 0.659 -0.99426 0.659 -1.591 0 -0.59674 -0.2371 -1.16903 -0.659 -1.59099C13.169 6.98705 12.5967 6.75 12 6.75s-1.169 0.23705 -1.591 0.65901C9.98705 7.83097 9.75 8.40326 9.75 9Z" stroke-width="1"></path>
  <path stroke="#000000" stroke-linecap="round" stroke-linejoin="round" d="M15.9 14.25c-0.3951 -0.6835 -0.9631 -1.2511 -1.647 -1.6457 -0.6839 -0.3946 -1.4595 -0.6023 -2.249 -0.6023 -0.7896 0 -1.5652 0.2077 -2.24906 0.6023 -0.68386 0.3946 -1.25186 0.9622 -1.64697 1.6457" stroke-width="1"></path>
  <path stroke="#000000" stroke-linecap="round" stroke-linejoin="round" d="M15 17.25c0 0.7956 -0.3161 1.5587 -0.8787 2.1213 -0.5626 0.5626 -1.3257 0.8787 -2.1213 0.8787 -0.7956 0 -1.5587 -0.3161 -2.12132 -0.8787C9.31607 18.8087 9 18.0456 9 17.25H1.5c-0.19891 0 -0.38968 0.079 -0.53033 0.2197C0.829018 17.6103 0.75 17.8011 0.75 18v4.5c0 0.1989 0.079018 0.3897 0.21967 0.5303 0.14065 0.1407 0.33142 0.2197 0.53033 0.2197h21c0.1989 0 0.3897 -0.079 0.5303 -0.2197 0.1407 -0.1406 0.2197 -0.3314 0.2197 -0.5303V18c0 -0.1989 -0.079 -0.3897 -0.2197 -0.5303 -0.1406 -0.1407 -0.3314 -0.2197 -0.5303 -0.2197H15Z" stroke-width="1"></path>
  <path stroke="#000000" stroke-linecap="round" stroke-linejoin="round" d="M21.75 14.25v-9c0 -0.39782 -0.158 -0.77936 -0.4393 -1.06066 -0.2813 -0.2813 -0.6629 -0.43934 -1.0607 -0.43934H9.75v-1.5c0 -0.39782 -0.15804 -0.77936 -0.43934 -1.06066C9.02936 0.908035 8.64782 0.75 8.25 0.75h-4.5c-0.39782 0 -0.77936 0.158035 -1.06066 0.43934 -0.2813 0.2813 -0.43934 0.66284 -0.43934 1.06066v12" stroke-width="1"></path>
</svg>