<svg xmlns="http://www.w3.org/2000/svg" fill="none" viewBox="0 0 48 48" id="Favorite-File--Streamline-Kameleon">
  <desc>
    Favorite File Streamline Icon: https://streamlinehq.com
  </desc>
  <path fill="#32bea6" d="M24 47.9977c13.2549 0 24 -10.7446 24 -23.9988C48 10.7446 37.2549 0 24 0S0 10.7446 0 23.9989c0 13.2542 10.7451 23.9988 24 23.9988Z" stroke-width="1"></path>
  <path fill="#ffffff" d="M13.5273 11.7117c0 -0.9251 0.7502 -1.6756 1.6757 -1.6756h12.288l6.9818 5.8645v20.3859c0 0.9255 -0.7501 1.6756 -1.6756 1.6756H15.203c-0.9255 0 -1.6757 -0.7501 -1.6757 -1.6756V11.7117Z" stroke-width="1"></path>
  <path fill="#e2e4e5" d="M27.4907 10.0361v4.1889c0 0.9255 0.7501 1.6756 1.6757 1.6756h5.3061" stroke-width="1"></path>
  <path fill="#fa5655" d="M24.4366 19.6353c-4.3309 0 -7.8546 3.5234 -7.8546 7.8541s3.5237 7.8542 7.8546 7.8542 7.8545 -3.5235 7.8545 -7.8542 -3.5236 -7.8541 -7.8545 -7.8541Zm0.1924 12.0461c-0.0571 0.0419 -0.1248 0.0624 -0.1924 0.0624 -0.0677 0 -0.1353 -0.021 -0.1925 -0.0629 -0.1527 -0.1104 -3.7348 -2.7398 -3.7348 -4.8215 0 -1.4491 1.0726 -2.3148 2.1098 -2.3148 0.6223 0 1.3554 0.322 1.8175 1.1676 0.4621 -0.8461 1.1952 -1.1676 1.8174 -1.1676 1.0373 0 2.1099 0.8657 2.1099 2.3148 0 2.0817 -3.5822 4.7111 -3.7349 4.822Z" stroke-width="1"></path>
</svg>