<svg xmlns="http://www.w3.org/2000/svg" fill="none" viewBox="0 0 48 48" id="Quill-Paper--Streamline-Kameleon">
  <desc>
    Quill Paper Streamline Icon: https://streamlinehq.com
  </desc>
  <path fill="#25b7d3" d="M24 47.9977c13.2549 0 24 -10.7446 24 -23.9988C48 10.7446 37.2549 0 24 0S0 10.7446 0 23.9989c0 13.2542 10.7451 23.9988 24 23.9988Z" stroke-width="1"></path>
  <path fill="#ffffff" d="M10.0366 11.7117c0 -0.9255 0.7501 -1.6756 1.6757 -1.6756h12.288l6.9818 5.8645v20.3859c0 0.9255 -0.7501 1.6756 -1.6757 1.6756H11.7123c-0.9256 0 -1.6757 -0.7501 -1.6757 -1.6756V11.7117Z" stroke-width="1"></path>
  <path fill="#f0f1f1" d="M24 10.0361v4.1889c0 0.9255 0.7501 1.6756 1.6756 1.6756h5.3062L24 10.0361Z" stroke-width="1"></path>
  <path fill="#e2e4e5" d="M22.2546 17.8904c0 0.2409 -0.1955 0.4364 -0.4363 0.4364h-7.8546c-0.2409 0 -0.4364 -0.1955 -0.4364 -0.4364 0 -0.2408 0.1955 -0.4363 0.4364 -0.4363h7.8546c0.2408 0 0.4363 0.1955 0.4363 0.4363Z" stroke-width="1"></path>
  <path fill="#e2e4e5" d="M27.491 21.3812c0 0.2408 -0.1955 0.4363 -0.4364 0.4363H13.9637c-0.2409 0 -0.4364 -0.1955 -0.4364 -0.4363 0 -0.2409 0.1955 -0.4364 0.4364 -0.4364h13.0909c0.2409 0 0.4364 0.1955 0.4364 0.4364Z" stroke-width="1"></path>
  <path fill="#e2e4e5" d="M27.491 24.8719c0 0.2409 -0.1955 0.4363 -0.4364 0.4363H13.9637c-0.2409 0 -0.4364 -0.1954 -0.4364 -0.4363 0 -0.2409 0.1955 -0.4364 0.4364 -0.4364h13.0909c0.2409 0 0.4364 0.1955 0.4364 0.4364Z" stroke-width="1"></path>
  <path fill="#e2e4e5" d="M27.491 28.3626c0 0.2409 -0.1955 0.4364 -0.4364 0.4364H13.9637c-0.2409 0 -0.4364 -0.1955 -0.4364 -0.4364 0 -0.2408 0.1955 -0.4363 0.4364 -0.4363h13.0909c0.2409 0 0.4364 0.1955 0.4364 0.4363Z" stroke-width="1"></path>
  <path fill="#3e3e3f" d="M37.9638 13.0908c0 2.8755 -0.5105 5.306 -1.3614 7.3568v0.0043c-0.8379 0.624 -2.592 1.8021 -3.8749 1.8021 0.781 0.2618 1.7934 0.4451 2.8101 0.3142 -1.3043 2.19 -2.9315 4.1828 -5.4414 3.8005 0.4494 0.2313 0.9862 0.4451 1.5709 0.5804 -2.911 2.3248 -6.4783 3.2398 -9.8487 3.5954 0 -6.9814 5.1587 -17.4537 16.1454 -17.4537Z" stroke-width="1"></path>
  <path fill="#5b5c5f" d="M37.9638 13.0908c-10.6272 0 -16.1454 10.0329 -16.1454 17.4537l16.1441 -17.3847c0 -0.0236 0.0013 -0.0454 0.0013 -0.069Z" stroke-width="1"></path>
  <path fill="#e2e4e5" d="m18.7637 34.0117 19.2 -20.9209 -17.4546 20.5081 -1.7454 0.4128Z" stroke-width="1"></path>
  <path fill="#f0f1f1" d="m37.9637 13.0908 -19.2 19.1991v1.7218l19.2 -20.9209Z" stroke-width="1"></path>
</svg>