<svg xmlns="http://www.w3.org/2000/svg" fill="none" viewBox="0 0 14 14" id="Cashing-Check--Streamline-Flex">
  <desc>
    Cashing Check Streamline Icon: https://streamlinehq.com
  </desc>
  <g id="cashing-check--cashing-check-cheques-money-currency-payment-finance">
    <path id="Union" fill="#fddc5c" fill-rule="evenodd" d="M2.19801 4.87524c-0.81211 0 -1.455039 0.5958 -1.625019 1.32619l-0.019894 0.08518C0.402733 6.92935 0.25 7.58222 0.25 9.2998c0 1.7175 0.152714 2.3702 0.303067 3.0129l0.019924 0.0853c0.16998 0.7304 0.812909 1.3262 1.625019 1.3262H11.802c0.8129 0 1.4524 -0.5962 1.6275 -1.3201l0.0159 -0.0654c0.1521 -0.6268 0.3046 -1.2548 0.3046 -3.0389 0 -1.78419 -0.1525 -2.41235 -0.3046 -3.03915l-0.0159 -0.0653c-0.1751 -0.72387 -0.8146 -1.32011 -1.6275 -1.32011H2.19801Z" clip-rule="evenodd" stroke-width="1"></path>
    <path id="Union_2" fill="#0c098c" fill-rule="evenodd" d="M7.56466 0.793842C8.17383 0.101088 9.25476 0.119217 9.97138 0.754485c0.73302 0.649845 0.87152 1.755665 0.22152 2.441195L6.97148 6.59293c-0.02921 0.0308 -0.06579 0.05366 -0.10628 0.06642l-1.99984 0.6301c-0.2576 0.08117 -0.511 -0.00704 -0.67949 -0.16033 -0.16849 -0.15329 -0.28017 -0.39717 -0.22415 -0.66126L4.389 4.4538c0.0089 -0.04199 0.02847 -0.08098 0.05681 -0.11321L7.56466 0.793842ZM1.79046 6.48482c0.04955 -0.21294 0.22186 -0.35952 0.5086 -0.35952 0.34518 0 0.625 -0.27982 0.625 -0.625s-0.27982 -0.625 -0.625 -0.625c-0.77373 0 -1.524548 0.46026 -1.726069 1.32619l-0.019924 0.08531C0.402714 6.92948 0.25 7.58226 0.25 9.29972c0 1.71748 0.152714 2.37028 0.303067 3.01288l0.019924 0.0854c0.16998 0.7303 0.812909 1.3261 1.625019 1.3261H11.802c0.8129 0 1.4524 -0.5962 1.6275 -1.3201l0.0159 -0.0654c0.1521 -0.6267 0.3046 -1.2548 0.3046 -3.03888 0 -1.78407 -0.1525 -2.41214 -0.3046 -3.03889l-0.0159 -0.06543c-0.1751 -0.72387 -0.8146 -1.3201 -1.6275 -1.3201h-1.2954c-0.3452 0 -0.62504 0.27982 -0.62504 0.625s0.27984 0.625 0.62504 0.625h1.2954c0.168 0 0.3566 0.13242 0.4126 0.36401l0.0214 0.0879c0.1317 0.53982 0.264 1.08174 0.264 2.72251 0 1.64078 -0.1323 2.18268 -0.264 2.72248l-0.0214 0.0879c-0.056 0.2316 -0.2446 0.364 -0.4126 0.364H2.19801c-0.16885 0 -0.35471 -0.1324 -0.40755 -0.3595l-0.02393 -0.1021C1.63273 11.4432 1.5 10.8784 1.5 9.29972c0 -1.57872 0.13273 -2.14348 0.26653 -2.71278l0.02393 -0.10212ZM9.1355 7.64909c-0.41422 0 -0.75 0.33579 -0.75 0.75s0.33578 0.75 0.75 0.75h1.6301c0.4142 0 0.75 -0.33579 0.75 -0.75s-0.3358 -0.75 -0.75 -0.75H9.1355ZM6.75537 10.8171c0 -0.4142 0.33579 -0.75 0.75 -0.75h3.26023c0.4142 0 0.75 0.3358 0.75 0.75s-0.3358 0.75 -0.75 0.75H7.50537c-0.41421 0 -0.75 -0.3358 -0.75 -0.75Z" clip-rule="evenodd" stroke-width="1"></path>
  </g>
</svg>