<svg xmlns="http://www.w3.org/2000/svg" fill="none" viewBox="0 0 14 14" id="Coin-Share--Streamline-Flex">
  <desc>
    Coin Share Streamline Icon: https://streamlinehq.com
  </desc>
  <g id="coin-share--payment-cash-money-finance-receive-give-coin-hand">
    <path id="Vector" fill="#7af1ff" d="M10.3296 6.83547c2.0274 0 3.1677 -1.14038 3.1677 -3.16773S12.357 0.5 10.3296 0.5C8.30225 0.5 7.16187 1.64039 7.16187 3.66774c0 2.02735 1.14038 3.16773 3.16773 3.16773Z" stroke-width="1"></path>
    <path id="Union" fill="#7af1ff" fill-rule="evenodd" d="M6.65992 8.60178c-0.03002 0.29181 -0.12307 0.56091 -0.26387 0.79579l0.85876 0.154 3.87429 -0.91953c0.9768 -0.23184 1.9605 0.35674 2.2179 1.32709 0.2392 0.90137 -0.2291 1.83987 -1.093 2.19087l-3.20028 1.3003c-1.69848 0.6901 -3.59108 0.7333 -5.31929 0.1215L0.416413 12.3971C0.166827 12.3087 0 12.0727 0 11.8079V6.66226c0 -0.33308 0.26121 -0.60764 0.593877 -0.62423l0.864263 -0.04309c0.87015 -0.05345 1.74335 0.02772 2.58875 0.24065l1.16126 0.29247c0.93183 0.23469 1.5501 1.11784 1.45177 2.07372Z" clip-rule="evenodd" stroke-width="1"></path>
    <path id="Union_2" fill="#0c098c" fill-rule="evenodd" d="M10.3296 0C9.22389 0 8.28945 0.312528 7.63192 0.970058c-0.65753 0.657532 -0.97005 1.591972 -0.97005 2.697682s0.31252 2.04014 0.97005 2.69767 1.59197 0.97006 2.69768 0.97006c1.1057 0 2.0401 -0.31253 2.6977 -0.97006 0.6575 -0.65753 0.97 -1.59196 0.97 -2.69767s-0.3125 -2.04015 -0.97 -2.697682C12.3697 0.312528 11.4353 0 10.3296 0Zm0 2.30469c0.4142 0 0.75 0.33578 0.75 0.75v1.22615c0 0.41422 -0.3358 0.75 -0.75 0.75 -0.41422 0 -0.75001 -0.33578 -0.75001 -0.75V3.05469c0 -0.41422 0.33579 -0.75 0.75001 -0.75Zm-8.79807 4.9381c0.74285 -0.04596 1.48834 0.02317 2.21007 0.20494l1.16126 0.29248c0.32967 0.08303 0.54841 0.39548 0.51362 0.73366 -0.04072 0.39588 -0.40937 0.67366 -0.80114 0.60366L3.5202 8.88186l-0.00039 -0.00007c-0.33972 -0.0607 -0.66435 0.16543 -0.72515 0.50513 -0.06081 0.3397 0.16522 0.66438 0.5049 0.72528l0.00039 0.0001 3.86228 0.6926c0.08447 0.0152 0.17115 0.0127 0.25465 -0.0071l4.00092 -0.94955c0.3175 -0.07537 0.6373 0.11598 0.721 0.43145 0.0778 0.293 -0.0744 0.5981 -0.3553 0.7123l-3.2003 1.3002c-1.41503 0.575 -2.99179 0.611 -4.43159 0.1012L0.833587 11.2187c-0.325387 -0.1152 -0.682553 0.0552 -0.7977527 0.3806 -0.1151997 0.3254 0.055191 0.6826 0.3805787 0.7978l3.318017 1.1747c1.72821 0.6118 3.62081 0.5686 5.31929 -0.1215L12.254 12.15c0.8639 -0.351 1.3322 -1.2895 1.093 -2.19087 -0.2574 -0.97035 -1.2411 -1.55893 -2.2179 -1.32709l-3.87429 0.91953 -0.85876 -0.154c0.1408 -0.23488 0.23385 -0.50398 0.26387 -0.79579 0.09833 -0.95588 -0.51994 -1.83903 -1.45177 -2.07372l-1.16126 -0.29247c-0.84562 -0.21298 -1.71904 -0.29414 -2.58941 -0.24061l-0.864898 0.04492c-0.344714 0.01791 -0.6096448 0.31187 -0.59174068 0.65658 0.01790408 0.34471 0.31186368 0.60965 0.65657668 0.59174l0.867932 -0.04508 0 0.00003 0.00618 -0.00038Z" clip-rule="evenodd" stroke-width="1"></path>
  </g>
</svg>