<svg xmlns="http://www.w3.org/2000/svg" fill="none" viewBox="0 0 48 48" id="Bag--Streamline-Plump-Neon">
  <desc>
    Bag Streamline Icon: https://streamlinehq.com
  </desc>
  <g id="bag--bag-payment-cash-money-finance">
    <path id="Vector" stroke="#c71dff" stroke-linecap="round" stroke-linejoin="round" d="M17.2074 12.3711C8.94291 15.758 3 24.7852 3 32.2497c0 9.3888 9.402 12.75 21 12.75s21 -3.3612 21 -12.75c0 -7.4645 -5.9429 -16.4917 -14.2074 -19.8786" stroke-width="1"></path>
    <path id="Vector_2" stroke="#000cfe" stroke-linecap="round" stroke-linejoin="round" d="M13 5.85861c0 -1.09232 0.7444 -2.03414 1.8232 -2.20542C16.6425 3.36434 19.7747 3 24 3s7.3575 0.36434 9.1768 0.65319C34.2556 3.82447 35 4.76629 35 5.85861c0 2.89837 -1.7266 5.39349 -4.2074 6.51279 0 0 -2.793 0.6283 -6.793 0.6283s-6.7922 -0.6283 -6.7922 -0.6283C14.7266 11.2521 13 8.75698 13 5.85861Z" stroke-width="1"></path>
  </g>
</svg>