<svg xmlns="http://www.w3.org/2000/svg" fill="none" viewBox="0 0 48 48" id="Dollar-Coin--Streamline-Plump-Neon">
  <desc>
    Dollar Coin Streamline Icon: https://streamlinehq.com
  </desc>
  <g id="dollar-coin--accounting-billing-payment-cash-coin-currency-money-finance">
    <path id="Vector" stroke="#c71dff" stroke-linecap="round" stroke-linejoin="round" d="M24 2c12.1503 0 22 9.8497 22 22s-9.8498 22 -22 22C11.8497 46 2 36.1503 2 24S11.8497 2 24 2Z" stroke-width="1"></path>
    <path id="Vector_2" stroke="#c71dff" stroke-linecap="round" stroke-linejoin="round" d="M24 8c8.8366 0 16 7.1634 16 16s-7.1634 16 -16 16S8 32.8366 8 24 15.1634 8 24 8Z" stroke-width="1"></path>
    <path id="Vector_3" stroke="#000cfe" stroke-linecap="round" stroke-linejoin="round" d="M28.5 18.9479s-1.8 -1.3776 -4.5 -1.3776c-2.2499 0 -4.5 1.3776 -4.5 3.2143 0 4.5918 9 1.8367 9 6.4286 0 1.8367 -2.25 3.2143 -4.5 3.2143 -2.7 0 -4.5 -1.3776 -4.5 -1.3776" stroke-width="1"></path>
    <path id="Vector_4" stroke="#000cfe" stroke-linecap="round" stroke-linejoin="round" d="M24 17.5714V15" stroke-width="1"></path>
    <path id="Vector_5" stroke="#000cfe" stroke-linecap="round" stroke-linejoin="round" d="M24 33.0011v-2.5714" stroke-width="1"></path>
  </g>
</svg>