<svg xmlns="http://www.w3.org/2000/svg" fill="none" viewBox="0 0 48 48" id="Money-Cash-Bill-1--Streamline-Plump-Neon">
  <desc>
    Money Cash Bill 1 Streamline Icon: https://streamlinehq.com
  </desc>
  <g id="bill-dollar-1--billing-bills-payment-finance-cash-currency-money-accounting-dollar">
    <path id="Vector" stroke="#000cfe" stroke-linecap="round" stroke-linejoin="round" d="M35 42.3398c-0.5765 0.2627 -1.2165 0.4214 -1.8958 0.4559 -2.1418 0.1086 -5.1425 0.203 -9.1042 0.203 -3.9617 0 -6.9624 -0.0944 -9.1042 -0.203 -0.6793 -0.0345 -1.3193 -0.1932 -1.8958 -0.4559" stroke-width="1"></path>
    <path id="Vector_2" stroke="#000cfe" stroke-linecap="round" stroke-linejoin="round" d="M39.5 36.8789c-0.7335 0.4757 -1.6071 0.766 -2.5539 0.8178 -2.7883 0.1524 -7.0353 0.3026 -12.9461 0.3026 -5.9108 0 -10.1578 -0.1502 -12.9461 -0.3026 -0.9468 -0.0518 -1.82043 -0.3422 -2.5539 -0.8178" stroke-width="1"></path>
    <path id="Vector_3" stroke="#c71dff" stroke-linecap="round" stroke-linejoin="round" d="M2.42002 28.2408c0.25743 2.4811 2.26576 4.249 4.75657 4.3825C10.533 32.8031 16.0286 33 24 33c7.9714 0 13.467 -0.1969 16.8234 -0.3767 2.4908 -0.1334 4.4991 -1.9014 4.7566 -4.3825 0.2231 -2.1502 0.42 -5.1942 0.42 -9.2408s-0.1969 -7.0906 -0.42 -9.2408c-0.2575 -2.48106 -2.2658 -4.24904 -4.7566 -4.38247C37.467 5.19693 31.9714 5 24 5c-7.9714 0 -13.467 0.19693 -16.82341 0.37672 -2.49081 0.13343 -4.49914 1.90142 -4.75657 4.38248C2.19693 11.9094 2 14.9534 2 19s0.19693 7.0906 0.42002 9.2408Z" stroke-width="1"></path>
    <path id="Vector_4" stroke="#000cfe" stroke-linecap="round" stroke-linejoin="round" d="M28 14.5096s-1.6 -1.2244 -4 -1.2244c-2 0 -4 1.2244 -4 2.8571 0 4.0816 8 1.6327 8 5.7143 0 1.6326 -2 2.8571 -4 2.8571 -2.4 0 -4 -1.2245 -4 -1.2245" stroke-width="1"></path>
    <path id="Vector_5" stroke="#000cfe" stroke-linecap="round" stroke-linejoin="round" d="M24 13.2857V11" stroke-width="1"></path>
    <path id="Vector_6" stroke="#000cfe" stroke-linecap="round" stroke-linejoin="round" d="M24 27.0006v-2.2858" stroke-width="1"></path>
    <path id="Vector_7" stroke="#000cfe" stroke-linecap="round" stroke-linejoin="round" d="M38 19h-1" stroke-width="1"></path>
    <path id="Vector_8" stroke="#000cfe" stroke-linecap="round" stroke-linejoin="round" d="M11 19h-1" stroke-width="1"></path>
  </g>
</svg>