<svg xmlns="http://www.w3.org/2000/svg" fill="none" viewBox="0 0 48 48" id="Payment-Recieve-7--Streamline-Plump-Neon">
  <desc>
    Payment Recieve 7 Streamline Icon: https://streamlinehq.com
  </desc>
  <g id="payment-recieve-7--deposit-payment-finance-atm-withdraw-dollar">
    <path id="Vector" stroke="#c71dff" stroke-linecap="round" stroke-linejoin="round" d="M23.9996 19.408c10.1726 -2.6272 16.1218 -0.9752 18.6143 0.1243 0.9484 0.4184 1.5758 1.2631 1.7506 2.2849 0.2858 1.671 0.6355 4.9623 0.6355 11.0642 0 4.1227 -0.1596 6.9624 -0.3513 8.8862 -0.1916 1.9226 -2.2451 2.7524 -4.1062 2.2334 -3.148 -0.8779 -8.5378 -1.4604 -16.5429 0.6071 -10.1751 2.6278 -16.12437 0.9314 -18.61549 -0.1916 -0.94794 -0.4274 -1.57172 -1.2804 -1.74642 -2.3054C3.35149 40.4318 3 37.132 3 31.0533c0 -4.0641 0.1571 -6.886 0.34678 -8.8119 0.19166 -1.9462 2.28903 -2.7899 4.17108 -2.2585 3.15614 0.8911 8.52784 1.4794 16.48174 -0.5749Z" stroke-width="3"></path>
    <path id="Vector_2" stroke="#000cfe" stroke-linecap="round" stroke-linejoin="round" d="M20 36.7143S21.6 38 24 38c2 0 4 -1.2857 4 -3 0 -4.2857 -8 -1.7143 -8 -6 0 -1.7143 2 -3 4 -3 2.4 0 4 1.2857 4 1.2857" stroke-width="3"></path>
    <path id="Vector_3" stroke="#000cfe" stroke-linecap="round" stroke-linejoin="round" d="M24 38v2" stroke-width="3"></path>
    <path id="Vector_4" stroke="#000cfe" stroke-linecap="round" stroke-linejoin="round" d="M24 24v2" stroke-width="3"></path>
    <path id="Vector_5" stroke="#000cfe" stroke-linecap="round" stroke-linejoin="round" d="M11 32h1" stroke-width="3"></path>
    <path id="Vector_6" stroke="#000cfe" stroke-linecap="round" stroke-linejoin="round" d="M37 32h-1" stroke-width="3"></path>
    <path id="Vector_7" stroke="#000cfe" stroke-linecap="round" stroke-linejoin="round" d="m24 11 0 -9" stroke-width="3"></path>
    <path id="Vector_8" stroke="#000cfe" stroke-linecap="round" stroke-linejoin="round" d="M16 16V7" stroke-width="3"></path>
    <path id="Vector_9" stroke="#000cfe" stroke-linecap="round" stroke-linejoin="round" d="M32 13V4" stroke-width="3"></path>
  </g>
</svg>