<svg xmlns="http://www.w3.org/2000/svg" fill="none" viewBox="0 0 24 24" id="App-Store-Logo--Streamline-Logos-Block">
  <desc>
    App Store Logo Streamline Icon: https://streamlinehq.com
  </desc>
  <path fill="#000000" fill-rule="evenodd" d="M5 1a4 4 0 0 0 -4 4v14a4 4 0 0 0 4 4h14a4 4 0 0 0 4 -4V5a4 4 0 0 0 -4 -4H5Zm6.086 4.096a1 1 0 1 0 -1.728 1.008l1.484 2.544 -3.031 5.197H4.889a1 1 0 1 0 0 2h3.477l0.036 0h4.31a1 1 0 1 0 0 -2h-2.586l2.727 -4.675a0.966 0.966 0 0 0 0.02 -0.035l1.769 -3.03a1 1 0 0 0 -1.728 -1.009L12 6.663l-0.914 -1.567Zm3.2 5.486 1.903 3.263h2.922a1 1 0 1 1 0 2h-1.755l1.197 2.051a1 1 0 1 1 -1.728 1.008l-2.05 -3.516a1.029 1.029 0 0 1 -0.048 -0.081l-2.168 -3.718a1 1 0 1 1 1.727 -1.007Zm-6.76 5.735a1 1 0 0 1 0.36 1.368l-0.711 1.22a1 1 0 0 1 -1.728 -1.009l0.711 -1.219a1 1 0 0 1 1.368 -0.36Z" clip-rule="evenodd" stroke-width="1"></path>
</svg>