<svg xmlns="http://www.w3.org/2000/svg" fill="none" viewBox="0 0 24 24" id="Ffffounding-Logo--Streamline-Logos-Block">
  <desc>
    Ffffounding Logo Streamline Icon: https://streamlinehq.com
  </desc>
  <path fill="#000000" fill-rule="evenodd" d="M5 1a4 4 0 0 0 -4 4v14a4 4 0 0 0 4 4h14a4 4 0 0 0 4 -4V5a4 4 0 0 0 -4 -4H5Zm7 6.334c0.856 -1.529 2.045 -2.246 3.21 -2.326 1.291 -0.09 2.49 0.618 3.012 1.737 0.533 0.976 0.44 2.009 0.038 3.038 -0.4 1.024 -1.123 2.088 -1.913 3.164 -0.222 0.301 -0.45 0.604 -0.678 0.909 -0.595 0.794 -1.2 1.6 -1.74 2.428 -0.743 1.142 -1.34 2.292 -1.596 3.449a0.34 0.34 0 0 1 -0.666 0c-0.256 -1.157 -0.853 -2.307 -1.597 -3.45 -0.54 -0.827 -1.144 -1.633 -1.74 -2.428a141.73 141.73 0 0 1 -0.677 -0.908c-0.79 -1.076 -1.513 -2.14 -1.914 -3.164 -0.402 -1.03 -0.494 -2.062 0.039 -3.038 0.523 -1.119 1.72 -1.826 3.012 -1.737 1.165 0.08 2.354 0.797 3.21 2.326Z" clip-rule="evenodd" stroke-width="1"></path>
</svg>