<svg xmlns="http://www.w3.org/2000/svg" fill="none" viewBox="0 0 24 24" id="Zootool-Logo--Streamline-Logos-Block">
  <desc>
    Zootool Logo Streamline Icon: https://streamlinehq.com
  </desc>
  <path fill="#000000" fill-rule="evenodd" d="M5 1a4 4 0 0 0 -4 4v14a4 4 0 0 0 4 4h14a4 4 0 0 0 4 -4V5a4 4 0 0 0 -4 -4H5Zm10.24 4.13c-0.13 0.094 -0.241 0.206 -0.329 0.324a36.091 36.091 0 0 0 -1.451 -0.43c-0.93 -0.255 -2.08 -0.524 -2.824 -0.524 -0.488 0 -0.928 0.244 -1.275 0.57a3.41 3.41 0 0 0 -0.81 1.211c-0.182 0.463 -0.045 0.89 0.154 1.203 0.197 0.308 0.476 0.543 0.678 0.67a0.34 0.34 0 0 0 0.363 0.002 2.998 2.998 0 0 1 1.036 -0.376c0.073 -0.01 0.234 -0.002 0.484 0.036 0.238 0.035 0.523 0.092 0.822 0.159 0.404 0.09 0.827 0.198 1.184 0.294 -0.042 0.049 -0.088 0.1 -0.139 0.157 -0.246 0.271 -0.58 0.613 -0.952 0.98a83.499 83.499 0 0 1 -1.98 1.878 2.758 2.758 0 0 0 -0.934 -0.387c-0.28 -0.064 -0.557 -0.006 -0.8 0.097a2.677 2.677 0 0 0 -0.678 0.437c-0.403 0.346 -0.751 0.8 -0.911 1.15 -0.166 0.362 -0.255 0.941 -0.21 1.462 0.022 0.264 0.08 0.537 0.198 0.772 0.12 0.239 0.31 0.456 0.6 0.557 0.434 0.151 0.876 -0.009 1.196 -0.191a3.11 3.11 0 0 0 0.43 -0.298l0.073 0.15c0.367 0.747 0.831 1.692 1.386 2.504 0.694 1.014 1.62 1.963 2.812 1.963 1.27 0 2.22 -0.387 2.868 -0.883 0.634 -0.484 1.003 -1.091 1.06 -1.55a1.634 1.634 0 0 0 -0.142 -0.894c-0.104 -0.222 -0.266 -0.432 -0.448 -0.526a0.34 0.34 0 0 0 -0.361 0.03c-0.11 0.082 -0.379 0.23 -0.746 0.349a3.35 3.35 0 0 1 -1.229 0.17c-0.035 -0.002 -0.114 -0.024 -0.24 -0.108 -0.121 -0.08 -0.261 -0.2 -0.415 -0.353a10.74 10.74 0 0 1 -0.96 -1.155 32.53 32.53 0 0 1 -0.848 -1.22l-0.097 -0.145 -0.171 -0.257 0.088 -0.07c0.163 -0.135 0.355 -0.309 0.562 -0.507 0.415 -0.398 0.905 -0.907 1.378 -1.42 0.474 -0.512 0.933 -1.032 1.286 -1.453 0.177 -0.21 0.329 -0.399 0.443 -0.55a4.144 4.144 0 0 0 0.193 -0.28 7.817 7.817 0 0 0 0.751 -0.586 4.69 4.69 0 0 0 0.613 -0.643c0.176 -0.232 0.336 -0.508 0.379 -0.803a1.622 1.622 0 0 0 -0.277 -1.16c-0.208 -0.3 -0.522 -0.536 -0.866 -0.59a1.27 1.27 0 0 0 -0.943 0.235Z" clip-rule="evenodd" stroke-width="1"></path>
</svg>