<svg xmlns="http://www.w3.org/2000/svg" fill="none" viewBox="0 0 48 48" id="Construction-Worker-4--Streamline-Kameleon">
  <desc>
    Construction Worker 4 Streamline Icon: https://streamlinehq.com
  </desc>
  <path fill="#25b7d3" d="M24 47.9977c13.255 0 24 -10.7445 24 -23.9988C48 10.7445 37.255 0 24 0S0 10.7445 0 23.9989c0 13.2543 10.745 23.9988 24 23.9988Z" stroke-width="1"></path>
  <path fill="#ffffff" d="M24.0011 37.9605h13.9628l-1.7455 -4.7998c-0.2684 -0.5816 -0.7408 -1.0446 -1.3278 -1.3011l-5.654 -2.1896 -0.8727 -0.4364s-0.4364 3.4921 -4.3636 3.4921c-3.9273 0 -4.3637 -3.4921 -4.3637 -3.4921l-0.8727 0.4364 -5.654 2.1896c-0.5869 0.2565 -1.0594 0.7195 -1.3278 1.3011l-1.7455 4.7998h13.9628l0.0009 0.0013 0.0008 -0.0013Z" stroke-width="1"></path>
  <path fill="#0484ab" d="M32.7272 35.3427v-4.3621l-2.1818 -0.8727v3.4908h-13.091v-3.4908l-2.1818 0.8727v4.3621l-0.8727 2.6194h19.2l-0.8727 -2.6194Z" stroke-width="1"></path>
  <path fill="#21b2d1" d="M29.2364 35.3438H18.7637v1.3077h10.4727v-1.3077Z" stroke-width="1"></path>
  <path fill="#bf8662" d="M30.5457 19.6339c-0.4364 0 -0.4364 0.4848 -0.4364 0.4848v-0.4848c-0.0018 -0.908 -0.0275 -1.7445 -0.1348 -2.4963 -1.1883 -0.3343 -3.347 -0.8169 -5.9625 -0.8374l-0.0118 -0.0004h-0.0118c-2.6151 0.0205 -4.7738 0.5035 -5.9625 0.8378 -0.1073 0.7518 -0.133 1.5887 -0.1348 2.4963v3.4894l1.7455 4.3635 2.2276 1.7436c0.1228 0.1378 0.2734 0.2481 0.4419 0.3236 0.1684 0.0755 0.3509 0.1145 0.5356 0.1145h2.317c0.3736 0 0.7292 -0.1593 0.9775 -0.4381l2.2276 -1.7436 1.3995 -3.4982c1.237 -0.089 1.6551 -1.9653 1.6551 -3.3851 0 -0.4848 -0.4364 -0.9696 -0.8727 -0.9696Z" stroke-width="1"></path>
  <path fill="#cc9978" d="M23.9884 16.3002c-2.6151 0.0205 -4.7738 0.5031 -5.9624 0.8374 -0.1074 0.7518 -0.1331 1.5887 -0.1349 2.4963v0.4848s0 -0.4848 -0.4363 -0.4848c-0.4364 0 -0.8728 0.4848 -0.8728 0.9696 0 1.4194 0.4181 3.2961 1.6552 3.3851l1.3994 3.4982 2.2276 1.7436c0.1228 0.1378 0.2734 0.2481 0.4419 0.3236 0.1684 0.0755 0.351 0.1145 0.5356 0.1145h1.1585V16.2998l-0.0118 0.0004Z" stroke-width="1"></path>
  <path fill="#af7653" d="M25.1584 29.6712h-2.3171c-0.1846 0.0001 -0.3671 -0.0389 -0.5356 -0.1144 -0.1684 -0.0755 -0.319 -0.1858 -0.4418 -0.3237l-2.2277 -1.7436v1.9635s0 3.2726 4.3637 3.2726c4.3636 0 4.3636 -3.2726 4.3636 -3.2726v-1.9635l-2.2276 1.7436c-0.1228 0.1379 -0.2734 0.2482 -0.4419 0.3237 -0.1684 0.0755 -0.351 0.1145 -0.5356 0.1144Z" stroke-width="1"></path>
  <path fill="#bf8662" d="m21.8639 29.2331 -2.2277 -1.7436v1.9635s0 3.2726 4.3637 3.2726v-3.0544h-1.1586c-0.1846 0.0001 -0.3671 -0.0389 -0.5356 -0.1144 -0.1684 -0.0755 -0.319 -0.1858 -0.4418 -0.3237Z" stroke-width="1"></path>
  <path fill="#84462d" d="M21.8184 24.8687h4.3632s0 1.3089 -2.1816 1.3089 -2.1816 -1.3089 -2.1816 -1.3089Z" stroke-width="1"></path>
  <path fill="#3e3e3f" d="M22.6885 20.5225c0 -0.2315 -0.092 -0.4535 -0.2557 -0.6172 -0.1637 -0.1637 -0.3857 -0.2556 -0.6172 -0.2556h-0.0026c0.0004 0.0091 0.0026 0.0179 0.0026 0.027 0 0.2311 -0.0916 0.4527 -0.2547 0.6163 -0.1632 0.1636 -0.3845 0.2559 -0.6156 0.2566 0.0036 0.2311 0.0989 0.4514 0.2649 0.6123 0.166 0.1609 0.3891 0.2493 0.6202 0.2457 0.2312 -0.0036 0.4515 -0.0989 0.6124 -0.2648 0.1609 -0.166 0.2493 -0.3891 0.2457 -0.6203Z" stroke-width="1"></path>
  <path fill="#3e3e3f" d="M27.0493 20.5225c0 -0.2315 -0.0919 -0.4535 -0.2556 -0.6172 -0.1637 -0.1637 -0.3858 -0.2556 -0.6173 -0.2556h-0.0026c0.0005 0.0091 0.0026 0.0179 0.0026 0.027 0 0.2311 -0.0916 0.4527 -0.2547 0.6163 -0.1631 0.1636 -0.3845 0.2559 -0.6155 0.2566 0.0035 0.2311 0.0988 0.4514 0.2648 0.6123 0.166 0.1609 0.3891 0.2493 0.6203 0.2457 0.2311 -0.0036 0.4514 -0.0989 0.6123 -0.2648 0.1609 -0.166 0.2493 -0.3891 0.2457 -0.6203Z" stroke-width="1"></path>
  <path fill="#84462d" d="M17.4546 18.3262c0 0.9408 0.4364 5.1807 0.4364 5.6725l0.4363 0.8727h0.4364c0 -0.6035 -0.4364 -5.6725 1.3091 -6.9815l-2.6182 0.4363Z" stroke-width="1"></path>
  <path fill="#84462d" d="M30.5454 18.3262c0 0.9408 -0.4363 5.1807 -0.4363 5.6725l-0.4364 0.8727h-0.4364c0 -0.6035 0.4364 -5.6725 -1.3091 -6.9815l2.6182 0.4363Z" stroke-width="1"></path>
  <path fill="#facb1b" d="M17.4546 17.8899s-0.4364 -6.5452 6.5455 -6.5452v6.5452h-6.5455Z" stroke-width="1"></path>
  <path fill="#f3b607" d="M30.5455 17.8899s0.4363 -6.5452 -6.5455 -6.5452v6.5452h6.5455Z" stroke-width="1"></path>
  <path fill="#fbe158" d="M25.309 13.5264v-2.6181c0 -0.2314 -0.092 -0.4534 -0.2557 -0.6171 -0.1636 -0.1636 -0.3856 -0.2556 -0.6171 -0.2556h-0.8727c-0.2315 0 -0.4534 0.092 -0.6171 0.2556 -0.1637 0.1637 -0.2556 0.3857 -0.2556 0.6171v2.6181c0.0292 0.7706 -0.8383 3.3694 -3.0546 3.4907h8.7273c-2.2163 -0.1213 -3.0838 -2.7201 -3.0545 -3.4907Z" stroke-width="1"></path>
  <path fill="#f3b607" d="M31.8546 17.9985c-0.0001 0.0962 -0.0319 0.1897 -0.0906 0.2659 -0.0588 0.0763 -0.141 0.131 -0.2341 0.1556 -0.8478 0.2251 -3.3578 0.7793 -7.5298 0.7793 -4.1721 0 -6.6821 -0.5542 -7.5299 -0.7793 -0.0931 -0.0246 -0.1753 -0.0793 -0.234 -0.1556 -0.0588 -0.0762 -0.0906 -0.1697 -0.0907 -0.2659v-0.1082c0 -0.2315 0.092 -0.4535 0.2556 -0.6171 0.1637 -0.1637 0.3857 -0.2556 0.6171 -0.2556h13.9637c0.2314 0 0.4534 0.0919 0.6171 0.2556 0.1637 0.1636 0.2556 0.3856 0.2556 0.6171v0.1082Z" stroke-width="1"></path>
  <path fill="#facb1b" d="M17.0182 17.0176c-0.2314 0 -0.4534 0.0919 -0.6171 0.2556 -0.1636 0.1636 -0.2556 0.3856 -0.2556 0.6171v0.1086c0.0001 0.0962 0.0319 0.1897 0.0907 0.266 0.0587 0.0762 0.1409 0.1309 0.234 0.1555 0.8478 0.2247 3.3578 0.7789 7.5299 0.7789v-2.1817h-6.9819Z" stroke-width="1"></path>
</svg>