<svg xmlns="http://www.w3.org/2000/svg" fill="none" viewBox="0 0 48 48" id="Telemarketer-Woman--Streamline-Kameleon">
  <desc>
    Telemarketer Woman Streamline Icon: https://streamlinehq.com
  </desc>
  <path fill="#fabc3d" d="M48.0004 23.9884c0 13.2482 -10.7529 24.567 -23.9895 23.9884C10.1825 47.3725 -0.251388 36.9526 0.0213388 23.9884 0.300175 10.7428 10.762 0 24.0109 0c13.2488 0 23.9895 10.7397 23.9895 23.9884Z" stroke-width="1"></path>
  <path fill="#3e3e3f" d="M36.3964 33.888c-0.1913 -0.4975 -0.494 -0.9446 -0.8849 -1.307 -0.3909 -0.3624 -0.8596 -0.6304 -1.3702 -0.7836l-7.087 -1.6895 -3.0545 0.4364 -3.0546 -0.4364 -7.087 1.6895c-0.5105 0.1532 -0.9792 0.4212 -1.3701 0.7836 -0.3909 0.3624 -0.6937 0.8095 -0.885 1.307l-1.567 4.0741h27.9273l-1.567 -4.0741Z" stroke-width="1"></path>
  <path fill="#f7b4b4" d="M23.9999 30.1079c-1.4331 -0.4778 -3.124 -1.3836 -4.3637 -3.3022v5.6537c0 0.7527 0.1436 1.4984 0.4233 2.197l1.3222 3.3057h5.2363l1.3222 -3.3057c0.2797 -0.6986 0.4233 -1.4443 0.4233 -2.197v-5.6537c-1.2397 1.9186 -2.9306 2.8244 -4.3636 3.3022Z" stroke-width="1"></path>
  <path fill="#fbc8c8" d="M19.6362 26.8057v5.6537c0 0.7527 0.1436 1.4984 0.4233 2.197l1.3222 3.3057h2.6182v-7.8542c-1.4331 -0.4778 -3.124 -1.3836 -4.3637 -3.3022Z" stroke-width="1"></path>
  <path fill="#f37a10" d="M31.4181 29.6713c-2.345 -2.931 0.0624 -3.0544 0.0624 -7.8542l-0.0253 -3.4908v-0.8726c-0.2574 -3.8979 -3.4922 -6.9815 -7.4552 -6.9815 -3.9631 0 -7.2227 3.0836 -7.4806 6.9815v4.3634c0 4.7998 2.4074 4.9232 0.0624 7.8542 -1.7455 2.1817 -5.2364 5.2361 -0.4364 8.2905h3.4909c-6.1091 -3.0544 1.3493 -3.8843 0.8727 -7.8542 -0.5201 -4.3324 -1.7454 -3.0544 -1.7454 -6.5451v-5.2362h0.7785c1.7144 0 3.336 -0.7793 4.4072 -2.118L24 16.1446l0.051 0.0637c0.5288 0.6609 1.1994 1.1945 1.9623 1.5611 0.7629 0.3666 1.5986 0.557 2.445 0.5569h0.778v5.2362c0 3.4907 -1.2253 2.2127 -1.7454 6.5451 -0.4765 3.9699 6.9818 4.7998 0.8727 7.8542h3.4909c4.8 -3.0544 1.3091 -6.1088 -0.4364 -8.2905Z" stroke-width="1"></path>
  <path fill="#fbc8c8" d="M30.5452 19.6353h-0.4364v-0.0092c0.0002 -0.4334 -0.0086 -0.8668 -0.0266 -1.2999h-1.6246c-1.7149 0 -3.3364 -0.7793 -4.4073 -2.118l-0.0506 -0.0637 -0.051 0.0637c-0.5287 0.6609 -1.1993 1.1945 -1.9621 1.5611 -0.7629 0.3666 -1.5984 0.557 -2.4448 0.5569h-1.6245c-0.0178 0.4331 -0.0267 0.8665 -0.0267 1.2999v0.0092h-0.4363c-0.4364 0 -0.8728 0.4848 -0.8728 0.9695 0 1.3488 0.3771 3.1112 1.8232 3.3612 1.0656 3.9711 3.586 5.4717 5.595 6.1415 2.009 -0.6698 4.5295 -2.1704 5.5951 -6.1415 1.4461 -0.2496 1.8231 -2.0124 1.8231 -3.3612 0 -0.4847 -0.4364 -0.9695 -0.8727 -0.9695Z" stroke-width="1"></path>
  <path fill="#fbd7d7" d="M23.9487 16.2082c-0.5287 0.6609 -1.1993 1.1945 -1.9621 1.5611 -0.7629 0.3666 -1.5984 0.557 -2.4448 0.5569h-1.6245c-0.0178 0.4331 -0.0267 0.8665 -0.0267 1.2999v0.0092h-0.4363c-0.4364 0 -0.8728 0.4848 -0.8728 0.9695 0 1.3488 0.3771 3.1112 1.8232 3.3612 1.0656 3.9711 3.586 5.4717 5.595 6.1415v-13.963l-0.051 0.0637Z" stroke-width="1"></path>
  <path fill="#3e3e3f" d="M22.6909 20.5081c0 -0.2315 -0.0919 -0.4535 -0.2556 -0.6172 -0.1637 -0.1637 -0.3858 -0.2556 -0.6173 -0.2556h-0.0026c0.0005 0.0091 0.0026 0.0183 0.0026 0.0274 0 0.2311 -0.0916 0.4527 -0.2547 0.6163 -0.1631 0.1636 -0.3845 0.2559 -0.6155 0.2566 0.0036 0.2312 0.0989 0.4514 0.265 0.6123 0.166 0.1608 0.3891 0.2492 0.6203 0.2455 0.2312 -0.0036 0.4514 -0.099 0.6123 -0.265 0.1609 -0.166 0.2492 -0.3891 0.2455 -0.6203Z" stroke-width="1"></path>
  <path fill="#3e3e3f" d="M27.0523 20.5081c0 -0.2315 -0.092 -0.4535 -0.2557 -0.6172 -0.1637 -0.1637 -0.3857 -0.2556 -0.6172 -0.2556h-0.0027c0.0005 0.0091 0.0027 0.0178 0.0027 0.027 0 0.2311 -0.0916 0.4527 -0.2548 0.6163 -0.1631 0.1636 -0.3845 0.2559 -0.6155 0.2566 0.0036 0.2311 0.0988 0.4514 0.2648 0.6123 0.166 0.1609 0.3891 0.2493 0.6203 0.2457 0.2312 -0.0036 0.4514 -0.0989 0.6123 -0.2648 0.161 -0.166 0.2494 -0.3891 0.2458 -0.6203Z" stroke-width="1"></path>
  <path fill="#f79392" d="M21.8184 25.3076h4.3632s0 1.3089 -2.1816 1.3089 -2.1816 -1.3089 -2.1816 -1.3089Z" stroke-width="1"></path>
  <path fill="#ffffff" d="M23.9902 36.2165c-1.2598 0 -2.4458 -0.1688 -3.5009 -0.4616l0.8827 2.207h5.2364l0.8827 -2.207c-1.0551 0.2923 -2.2416 0.4616 -3.5009 0.4616Z" stroke-width="1"></path>
  <path fill="#f99134" d="M16.5194 17.4537v4.3634c0 4.7998 2.4074 4.9232 0.0624 7.8542 -1.7455 2.1817 -5.2364 5.2361 -0.4364 8.2905h3.4909c-6.1091 -3.0544 1.3493 -3.8843 0.8727 -7.8542 -0.5201 -4.3324 -1.7454 -3.0544 -1.7454 -6.5451v-5.2362h0.7785c1.7144 0 3.336 -0.7793 4.4072 -2.118L24 16.1446v-5.6724c-3.9631 0 -7.2227 3.0836 -7.4806 6.9815Z" stroke-width="1"></path>
  <path fill="#3e3e3f" d="M25.6663 26.1673h-3.3326c-0.3355 0 -0.6287 0.1741 -0.7985 0.4364h-0.5895c-0.9055 0 -2.6182 -0.5472 -2.6182 -2.6181v-4.3503h-1.018c-0.5402 0 -1.0582 0.2145 -1.4401 0.5964 -0.3819 0.3819 -0.5965 0.8999 -0.5965 1.44 0 0.5401 0.2146 1.058 0.5965 1.4399 0.3819 0.3819 0.8999 0.5965 1.4401 0.5965h0.1453v0.2775c0 2.5613 2.0875 3.4907 3.4909 3.4907h0.507c0.071 0.1758 0.1928 0.3263 0.3498 0.4323 0.1571 0.1061 0.3422 0.1628 0.5317 0.1629h3.3325c0.2525 0 0.4947 -0.1004 0.6732 -0.279 0.1785 -0.1786 0.2788 -0.4208 0.2787 -0.6733 0 -0.2525 -0.1004 -0.4947 -0.279 -0.6732 -0.1786 -0.1785 -0.4208 -0.2787 -0.6733 -0.2787Z" stroke-width="1"></path>
</svg>