<svg xmlns="http://www.w3.org/2000/svg" fill="none" viewBox="0 0 24 24" id="Cloud-Warning--Streamline-Ultimate">
  <desc>
    Cloud Warning Streamline Icon: https://streamlinehq.com
  </desc>
  <path stroke="#000000" d="M17.2502 21c-0.2071 0 -0.375 -0.1679 -0.375 -0.375s0.1679 -0.375 0.375 -0.375" stroke-width="1"></path>
  <path stroke="#000000" d="M17.2502 21c0.2071 0 0.375 -0.1679 0.375 -0.375s-0.1679 -0.375 -0.375 -0.375" stroke-width="1"></path>
  <path stroke="#000000" stroke-linecap="round" stroke-linejoin="round" d="M17.25 18v-3" stroke-width="1"></path>
  <path stroke="#000000" stroke-linecap="round" stroke-linejoin="round" d="M23.063 20.683c0.1352 0.2704 0.1989 0.571 0.1853 0.873 -0.0136 0.3021 -0.1043 0.5956 -0.2633 0.8528 -0.159 0.2572 -0.3811 0.4695 -0.6452 0.6167 -0.2641 0.1472 -0.5614 0.2245 -0.8638 0.2245h-8.452c-0.3024 0.0001 -0.5998 -0.0771 -0.8639 -0.2243s-0.4862 -0.3596 -0.6452 -0.6168c-0.1589 -0.2573 -0.2494 -0.5509 -0.2629 -0.853 -0.0134 -0.3021 0.0506 -0.6026 0.186 -0.8729l4.225 -8.452c0.1473 -0.2949 0.3738 -0.5428 0.6541 -0.7161s0.6033 -0.2651 0.9329 -0.2651 0.6526 0.0918 0.9329 0.2651 0.5068 0.4212 0.6541 0.7161l4.226 8.452Z" stroke-width="1"></path>
  <path stroke="#000000" stroke-linecap="round" stroke-linejoin="round" d="M22.8254 12.8525c0.4341 -0.9701 0.5388 -2.0556 0.2981 -3.09084 -0.2407 -1.03521 -0.8136 -1.9632 -1.6312 -2.64226 -0.8176 -0.67907 -1.835 -1.0719 -2.8968 -1.11852 -1.0618 -0.04662 -2.1097 0.25554 -2.9836 0.86035 -0.2629 -1.39916 -0.9189 -2.69451 -1.8911 -3.73448 -0.9722 -1.03998 -2.2205 -1.78158 -3.5988 -2.138018C8.74373 0.632291 7.29243 0.675748 5.93793 1.11402c-1.3545 0.43827 -2.55618 1.25322 -3.46442 2.3495C1.56526 4.55981 0.988012 5.89208 0.809297 7.30446c-0.178714 1.41238 0.0485 2.84644 0.655053 4.13444 0.60656 1.2879 1.56737 2.3765 2.77002 3.1383 1.20264 0.7619 2.59738 1.1655 4.02102 1.1636H10.504" stroke-width="1"></path>
</svg>