<svg xmlns="http://www.w3.org/2000/svg" fill="none" viewBox="0 0 24 24" id="Server-Star-1--Streamline-Ultimate">
  <desc>
    Server Star 1 Streamline Icon: https://streamlinehq.com
  </desc>
  <path stroke="#000000" stroke-linecap="round" stroke-linejoin="round" d="M9.75098 3.75024H11.251" stroke-width="1"></path>
  <path stroke="#000000" stroke-linecap="round" stroke-linejoin="round" d="M14.251 3.75024h1.5" stroke-width="1"></path>
  <path stroke="#000000" stroke-linecap="round" stroke-linejoin="round" d="M9.75098 9.75024H11.251" stroke-width="1"></path>
  <path stroke="#000000" stroke-linecap="round" stroke-linejoin="round" d="M14.251 9.75024h0.75" stroke-width="1"></path>
  <path stroke="#000000" stroke-linecap="round" stroke-linejoin="round" d="M4.50098 18.7502h3.75v-6" stroke-width="1"></path>
  <path stroke="#000000" stroke-linecap="round" stroke-linejoin="round" d="M18.751 3.75024c0 0.79565 -0.3161 1.55872 -0.8787 2.12132 -0.5626 0.56261 -1.3257 0.87868 -2.1213 0.87868H3.75098c-0.79565 0 -1.55871 -0.31607 -2.12132 -0.87868 -0.56261 -0.5626 -0.878683 -1.32567 -0.878683 -2.12132s0.316073 -1.55871 0.878683 -2.12132c0.56261 -0.56261 1.32567 -0.878676 2.12132 -0.878676H15.751c0.7956 0 1.5587 0.316066 2.1213 0.878676 0.5626 0.56261 0.8787 1.32567 0.8787 2.12132Z" stroke-width="1"></path>
  <path stroke="#000000" stroke-linecap="round" stroke-linejoin="round" d="M9.75098 12.7502h-6c-0.79565 0 -1.55871 -0.316 -2.12132 -0.8786 -0.56261 -0.5626 -0.878683 -1.3257 -0.878683 -2.12135s0.316073 -1.55872 0.878683 -2.12133c0.56261 -0.5626 1.32567 -0.87867 2.12132 -0.87867H15.751c0.4408 -0.00035 0.8762 0.09663 1.2751 0.28401 0.399 0.18738 0.7517 0.46055 1.0329 0.79999" stroke-width="1"></path>
  <path stroke="#000000" stroke-linecap="round" stroke-linejoin="round" d="m17.9444 11.6803 1.541 4.07h3c0.1513 -0.006 0.3007 0.035 0.4279 0.1172 0.1271 0.0822 0.2258 0.2016 0.2825 0.342 0.0567 0.1404 0.0686 0.2949 0.0342 0.4424 -0.0345 0.1474 -0.1136 0.2806 -0.2266 0.3814l-2.6 1.815 1.442 3.314c0.063 0.1517 0.0769 0.3194 0.0396 0.4794 -0.0372 0.16 -0.1236 0.3043 -0.2471 0.4127 -0.1235 0.1083 -0.2778 0.1753 -0.4413 0.1914 -0.1635 0.0161 -0.3279 -0.0194 -0.4702 -0.1015l-3.486 -1.961 -3.487 1.961c-0.1423 0.0821 -0.3067 0.1176 -0.4702 0.1015 -0.1635 -0.0161 -0.3178 -0.0831 -0.4413 -0.1914 -0.1235 -0.1084 -0.2099 -0.2527 -0.2471 -0.4127 -0.0372 -0.16 -0.0234 -0.3277 0.0396 -0.4794l1.443 -3.314 -2.6 -1.815c-0.1133 -0.1004 -0.1929 -0.2333 -0.2277 -0.3807 -0.0349 -0.1473 -0.0233 -0.3018 0.0331 -0.4423s0.1549 -0.2601 0.2819 -0.3425c0.127 -0.0823 0.2764 -0.1234 0.4277 -0.1175h3l1.544 -4.07c0.0686 -0.127 0.1702 -0.2331 0.2941 -0.3071 0.124 -0.0739 0.2656 -0.1129 0.4099 -0.1129 0.1443 0 0.286 0.039 0.4099 0.1129 0.1239 0.074 0.2256 0.1801 0.2941 0.3071Z" stroke-width="1"></path>
  <path stroke="#000000" d="M4.5 4.12524c-0.20711 0 -0.375 -0.16789 -0.375 -0.375 0 -0.2071 0.16789 -0.375 0.375 -0.375" stroke-width="1"></path>
  <path stroke="#000000" d="M4.5 4.12524c0.20711 0 0.375 -0.16789 0.375 -0.375 0 -0.2071 -0.16789 -0.375 -0.375 -0.375" stroke-width="1"></path>
  <path stroke="#000000" d="M4.5 10.1252c-0.20711 0 -0.375 -0.16785 -0.375 -0.37496 0 -0.2071 0.16789 -0.375 0.375 -0.375" stroke-width="1"></path>
  <path stroke="#000000" d="M4.5 10.1252c0.20711 0 0.375 -0.16785 0.375 -0.37496 0 -0.2071 -0.16789 -0.375 -0.375 -0.375" stroke-width="1"></path>
  <path stroke="#000000" d="M1.12598 18.7502c-0.20711 0 -0.375003 -0.1678 -0.375003 -0.375 0 -0.2071 0.167893 -0.375 0.375003 -0.375" stroke-width="1"></path>
  <path stroke="#000000" d="M1.12598 18.7502c0.2071 0 0.375 -0.1678 0.375 -0.375 0 -0.2071 -0.1679 -0.375 -0.375 -0.375" stroke-width="1"></path>
</svg>