<svg xmlns="http://www.w3.org/2000/svg" fill="none" viewBox="0 0 24 24" id="Wifi-Laptop-1--Streamline-Ultimate">
  <desc>
    Wifi Laptop 1 Streamline Icon: https://streamlinehq.com
  </desc>
  <path stroke="#000000" stroke-linecap="round" stroke-linejoin="round" d="M8.25 8.25H6c-0.39782 0 -0.77936 0.15804 -1.06066 0.43934C4.65804 8.97064 4.5 9.35218 4.5 9.75v6c0 0.3978 0.15804 0.7794 0.43934 1.0607S5.60218 17.25 6 17.25" stroke-width="1"></path>
  <path stroke="#000000" stroke-linecap="round" stroke-linejoin="round" d="M18 17.25c0.3978 0 0.7794 -0.158 1.0607 -0.4393s0.4393 -0.6629 0.4393 -1.0607v-6c0 -0.39782 -0.158 -0.77936 -0.4393 -1.06066C18.7794 8.40804 18.3978 8.25 18 8.25h-2.25" stroke-width="1"></path>
  <path stroke="#000000" stroke-linecap="round" stroke-linejoin="round" d="M20.818 21.224c0.085 0.2269 0.1137 0.4711 0.0837 0.7116 -0.03 0.2404 -0.1177 0.4701 -0.2558 0.6692 -0.1381 0.1991 -0.3224 0.3618 -0.5371 0.4742s-0.4535 0.171 -0.6958 0.171H4.50002c-0.24191 -0.0008 -0.48004 -0.06 -0.6941 -0.1727 -0.21405 -0.1127 -0.39766 -0.2755 -0.53519 -0.4746 -0.13752 -0.199 -0.22487 -0.4283 -0.2546 -0.6684 -0.02972 -0.24 -0.00094 -0.4838 0.08389 -0.7103l1.125 -3c0.10683 -0.2853 0.29801 -0.5313 0.5481 -0.7053 0.25009 -0.174 0.54724 -0.2677 0.8519 -0.2687H18.461c0.3047 0.001 0.6018 0.0947 0.8519 0.2687s0.4413 0.42 0.5481 0.7053l0.957 3Z" stroke-width="1"></path>
  <path stroke="#000000" stroke-linecap="round" stroke-linejoin="round" d="M10.5 20.25h3" stroke-width="1"></path>
  <path stroke="#000000" d="M12 8.25c-0.2071 0 -0.375 -0.16789 -0.375 -0.375S11.7929 7.5 12 7.5" stroke-width="1"></path>
  <path stroke="#000000" d="M12 8.25c0.2071 0 0.375 -0.16789 0.375 -0.375S12.2071 7.5 12 7.5" stroke-width="1"></path>
  <path stroke="#000000" stroke-linecap="round" stroke-linejoin="round" d="M18 2.87294C16.3018 1.49967 14.184 0.750488 12 0.750488c-2.18396 0 -4.30182 0.749182 -6 2.122452" stroke-width="1"></path>
  <path stroke="#000000" stroke-linecap="round" stroke-linejoin="round" d="M8.5 5.24998c0.99059 -0.80111 2.226 -1.23814 3.5 -1.23814s2.5094 0.43703 3.5 1.23814" stroke-width="1"></path>
</svg>