<svg xmlns="http://www.w3.org/2000/svg" fill="none" viewBox="0 0 14 14" id="Ear-Speciality--Streamline-Flex">
  <desc>
    Ear Speciality Streamline Icon: https://streamlinehq.com
  </desc>
  <g id="ear-speciality--hearing-health-medical-ear-speciality">
    <path id="Union" stroke="#000000" stroke-linecap="round" stroke-linejoin="round" d="M2.56152 5.27162c0 -2.45124 1.98713 -4.438368 4.43837 -4.438368 2.45125 0 4.43841 1.987128 4.43841 4.438368 0 1.22063 -0.4928 2.32617 -1.2902 3.12856 -0.4447 0.44749 -0.7025 1.07055 -0.77404 1.69732 -0.1898 1.663 -1.61892 3.0691 -3.39441 3.0691 -1.88778 0 -3.41813 -1.5304 -3.41813 -3.41815" stroke-width="1"></path>
    <path id="Ellipse 112" stroke="#000000" stroke-linecap="round" stroke-linejoin="round" d="M8.72417 5.24954c0 -0.95236 -0.77203 -1.72439 -1.72439 -1.72439 -0.95235 0 -1.72439 0.77203 -1.72439 1.72439v1.9158" stroke-width="1"></path>
    <path id="Vector 767" stroke="#000000" stroke-linecap="round" stroke-linejoin="round" d="M5.27539 7.16528h0.47066c0.72586 0 1.34757 0.51973 1.47624 1.23409l0.00847 0.04702" stroke-width="1"></path>
  </g>
</svg>