<svg xmlns="http://www.w3.org/2000/svg" fill="none" viewBox="0 0 14 14" id="Nurse-Assistant-Emergency--Streamline-Flex">
  <desc>
    Nurse Assistant Emergency Streamline Icon: https://streamlinehq.com
  </desc>
  <g id="nurse-assistant-emergency">
    <path id="Vector" stroke="#000000" stroke-linecap="round" stroke-linejoin="round" d="M5.142 5.741c1.665 0 2.6 -0.936 2.6 -2.6 0 -1.665 -0.935 -2.6 -2.6 -2.6 -1.664 0 -2.6 0.935 -2.6 2.6 0 1.664 0.936 2.6 2.6 2.6Z" stroke-width="1"></path>
    <path id="Subtract" stroke="#000000" stroke-linecap="round" stroke-linejoin="round" d="M4.296 11.375H2.27c-1.528 0 -2.387 -1.634 -1.115 -2.481a7.156 7.156 0 0 1 3.432 -1.182" stroke-width="1"></path>
    <path id="Union" stroke="#000000" stroke-linecap="round" stroke-linejoin="round" d="M9.237 13.422c-0.457 -0.047 -0.787 -0.443 -0.8 -0.903 -0.012 -0.352 -0.02 -0.7 -0.027 -1.047 -0.35 -0.007 -0.703 -0.015 -1.06 -0.027 -0.459 -0.014 -0.855 -0.343 -0.902 -0.8 -0.05 -0.477 -0.05 -0.94 0 -1.417 0.047 -0.457 0.443 -0.786 0.903 -0.8 0.356 -0.012 0.708 -0.02 1.059 -0.027 0.006 -0.347 0.015 -0.696 0.026 -1.048 0.014 -0.46 0.344 -0.856 0.8 -0.903 0.478 -0.05 0.94 -0.05 1.417 0 0.458 0.047 0.787 0.443 0.801 0.903 0.011 0.352 0.02 0.701 0.027 1.048 0.343 0.007 0.69 0.015 1.039 0.026 0.459 0.015 0.855 0.344 0.903 0.8 0.05 0.478 0.05 0.94 0 1.418 -0.048 0.457 -0.444 0.786 -0.903 0.8 -0.35 0.011 -0.696 0.02 -1.04 0.027 -0.006 0.346 -0.015 0.695 -0.026 1.047 -0.014 0.46 -0.343 0.856 -0.8 0.903 -0.477 0.05 -0.94 0.05 -1.417 0Z" stroke-width="1"></path>
  </g>
</svg>