<svg xmlns="http://www.w3.org/2000/svg" fill="none" viewBox="0 0 14 14" id="Align-Top-1--Streamline-Flex">
  <desc>
    Align Top 1 Streamline Icon: https://streamlinehq.com
  </desc>
  <g id="align-top-1--align-design-top-vertical">
    <path id="Intersect" fill="#79ee8d" d="M1.85498 6.65715c0 0.85497 0.05873 1.72981 0.13539 2.3144 0.05764 0.43959 0.36692 0.76602 0.80274 0.84739 0.27512 0.05138 0.6156 0.08912 1.02187 0.08912 0.40626 0 0.74672 -0.03774 1.02181 -0.08911 0.43582 -0.08138 0.74509 -0.40782 0.80273 -0.8474 0.07664 -0.58459 0.13536 -1.45943 0.1354 -2.3144 0.00004 -0.85497 -0.05869 -1.7298 -0.13535 -2.31439 -0.05765 -0.43959 -0.36693 -0.76602 -0.80275 -0.8474 -0.27511 -0.05137 -0.61559 -0.08911 -1.02187 -0.08911 -0.40628 0 -0.74676 0.03774 -1.02187 0.08911 -0.43582 0.08138 -0.7451 0.40781 -0.80273 0.8474 -0.07665 0.58459 -0.13537 1.45943 -0.13537 2.31439Z" stroke-width="1"></path>
    <path id="Intersect_2" fill="#79ee8d" d="M8.2251 8.26566c0 1.65082 0.07006 3.09194 0.15703 3.90324 0.04753 0.4433 0.3454 0.7791 0.78313 0.8639 0.27476 0.0532 0.61456 0.0923 1.01984 0.0923 0.4053 0 0.745 -0.0391 1.0198 -0.0923 0.4377 -0.0848 0.7356 -0.4206 0.7831 -0.8639 0.087 -0.8113 0.157 -2.25242 0.157 -3.90324 0 -1.65081 -0.07 -3.09195 -0.157 -3.90321 -0.0475 -0.44333 -0.3454 -0.77915 -0.7831 -0.86393 -0.2747 -0.05322 -0.6146 -0.09227 -1.0198 -0.09227 -0.40531 0 -0.74511 0.03905 -1.01987 0.09227 -0.43773 0.08478 -0.73561 0.4206 -0.78313 0.86393 -0.08695 0.81126 -0.157 2.2524 -0.157 3.90321Z" stroke-width="1"></path>
    <path id="Union" fill="#0c098c" fill-rule="evenodd" d="M1.125 2C0.641751 2 0.25 1.60825 0.25 1.125 0.25 0.641751 0.641751 0.25 1.125 0.25h11.75c0.4832 0 0.875 0.391752 0.875 0.875 0 0.48325 -0.3918 0.875 -0.875 0.875L1.125 2Zm1.35498 4.65715c0 -0.8316 0.05741 -1.67901 0.13006 -2.23314 0.02245 -0.17123 0.12785 -0.28254 0.29776 -0.31427 0.23773 -0.04439 0.53981 -0.07849 0.90715 -0.07849s0.66942 0.0341 0.90715 0.07849c0.16992 0.03173 0.27532 0.14305 0.29778 0.31428 0.07266 0.55412 0.13008 1.40152 0.13004 2.23311 -0.00004 0.83161 -0.05745 1.67904 -0.1301 2.23317 -0.02245 0.17123 -0.12785 0.28254 -0.29775 0.31427 -0.23771 0.04439 -0.53977 0.07849 -0.90709 0.07849 -0.36733 0 -0.66942 -0.0341 -0.90715 -0.0785 -0.16991 -0.03172 -0.27531 -0.14304 -0.29777 -0.31427 -0.07266 -0.55413 -0.13008 -1.40154 -0.13008 -2.23314ZM1.37065 4.26151c-0.08065 0.61505 -0.14067 1.51731 -0.14067 2.39564 0 0.87835 0.06004 1.78061 0.14069 2.39566 0.09284 0.70794 0.606 1.24949 1.30772 1.38049 0.3125 0.0584 0.69138 0.0998 1.13659 0.0998 0.4452 0 0.82406 -0.0414 1.13654 -0.0998 0.70173 -0.131 1.21487 -0.67256 1.30769 -1.3805 0.08064 -0.61505 0.14067 -1.5173 0.14071 -2.39562 0.00004 -0.87836 -0.06 -1.78063 -0.14066 -2.39569 -0.09283 -0.70794 -0.606 -1.24948 -1.30771 -1.38051 -0.3125 -0.05835 -0.69138 -0.09973 -1.1366 -0.09973 -0.44522 0 -0.8241 0.04138 -1.1366 0.09973 -0.70172 0.13103 -1.21488 0.67258 -1.3077 1.38053ZM8.8501 8.26566c0 -1.63861 0.06973 -3.05561 0.15344 -3.8366 0.01936 -0.18053 0.12212 -0.28626 0.28053 -0.31694 0.23612 -0.04574 0.53613 -0.08087 0.90103 -0.08087 0.3648 0 0.6648 0.03513 0.901 0.08087 0.1584 0.03068 0.2611 0.13641 0.2805 0.31694 0.0837 0.78099 0.1534 2.19799 0.1534 3.8366 0 1.63862 -0.0697 3.05564 -0.1534 3.83664 -0.0194 0.1805 -0.1222 0.2862 -0.2806 0.3169 -0.2361 0.0457 -0.536 0.0809 -0.9009 0.0809 -0.36486 0 -0.66488 -0.0352 -0.90099 -0.0809 -0.15842 -0.0307 -0.26119 -0.1364 -0.28054 -0.3169 -0.08372 -0.781 -0.15347 -2.19802 -0.15347 -3.83664ZM7.76066 4.29584c-0.0902 0.84153 -0.16056 2.30682 -0.16056 3.96982 0 1.66302 0.07038 3.12834 0.16059 3.96984 0.0757 0.7061 0.56868 1.272 1.28572 1.4109 0.31341 0.0607 0.693 0.1037 1.13869 0.1037 0.4457 0 0.8252 -0.043 1.1386 -0.1037 0.7171 -0.1389 1.21 -0.7048 1.2857 -1.4109 0.0903 -0.8415 0.1606 -2.30682 0.1606 -3.96984 0 -1.663 -0.0703 -3.12829 -0.1605 -3.96982 -0.0757 -0.70612 -0.5687 -1.27203 -1.2857 -1.41092 -0.3134 -0.0607 -0.693 -0.10367 -1.1387 -0.10367 -0.44572 0 -0.82532 0.04297 -1.13872 0.10367 -0.71705 0.13889 -1.21003 0.7048 -1.28572 1.41092Z" clip-rule="evenodd" stroke-width="1"></path>
  </g>
</svg>