<svg xmlns="http://www.w3.org/2000/svg" fill="none" viewBox="0 0 14 14" id="Align-Back-1--Streamline-Flex">
  <desc>
    Align Back 1 Streamline Icon: https://streamlinehq.com
  </desc>
  <g id="align-back-1--back-design-layer-layers-pile-stack-arrange-square">
    <path id="Intersect" fill="#7af1ff" d="M9.54974 3.01531c-0.11033 -1.03734 -0.94518 -1.87218 -1.98202 -1.98708 -0.74297 -0.082327 -1.5054 -0.152232 -2.2825 -0.152232 -0.77709 0 -1.53952 0.069905 -2.28249 0.152232 -1.03684 0.1149 -1.87169 0.94974 -1.98202 1.98708 -0.078534 0.73832 -0.144108 1.49591 -0.144108 2.26803 0 0.77211 0.065574 1.5297 0.144108 2.26802 0.11033 1.03734 0.94518 1.87218 1.98202 1.98708 0.74297 0.08233 1.5054 0.15223 2.28249 0.15223 0.7771 0 1.53953 -0.0699 2.2825 -0.15223 1.03684 -0.1149 1.87169 -0.94974 1.98202 -1.98708 0.07853 -0.73832 0.14411 -1.49591 0.14411 -2.26802 0 -0.77212 -0.06558 -1.52971 -0.14411 -2.26803Z" stroke-width="1"></path>
    <path id="Union" fill="#0c098c" fill-rule="evenodd" d="M7.49874 8.91722c-0.73708 0.08168 -1.47193 0.14843 -2.21365 0.14843 -0.74173 0 -1.47657 -0.06675 -2.21366 -0.14843 -0.74653 -0.08272 -1.35022 -0.68787 -1.42937 -1.43198 -0.07784 -0.73187 -0.1406 -1.46335 -0.1406 -2.20192 0 -0.73858 0.06276 -1.47006 0.1406 -2.20193 0.07915 -0.74411 0.68284 -1.34926 1.42937 -1.43198 0.73709 -0.08168 1.47193 -0.14843 2.21366 -0.14843 0.74172 0 1.47657 0.06675 2.21365 0.14843 0.74653 0.08272 1.35023 0.68787 1.42937 1.43198 0.07785 0.73187 0.1406 1.46335 0.1406 2.20193 0 0.73857 -0.06275 1.47005 -0.1406 2.20192 -0.07914 0.74411 -0.68284 1.34926 -1.42937 1.43198ZM5.28509 10.3157c0.81246 0 1.60247 -0.0731 2.35132 -0.1561 1.32716 -0.147 2.39319 -1.21159 2.53469 -2.54216 0.0792 -0.74477 0.1476 -1.52847 0.1476 -2.33412 0 -0.80566 -0.0684 -1.58936 -0.1476 -2.33414C10.0296 1.61862 8.96356 0.554078 7.63641 0.407014 6.88756 0.324033 6.09755 0.250977 5.28509 0.250977c-0.81247 0 -1.60248 0.073055 -2.35133 0.156036C1.60661 0.554077 0.540595 1.61862 0.399074 2.94918 0.319859 3.69396 0.251465 4.47766 0.251465 5.28332c0 0.80565 0.068394 1.58935 0.147609 2.33412C0.540595 8.94801 1.60661 10.0126 2.93376 10.1596c0.74885 0.083 1.53886 0.1561 2.35133 0.1561Zm-0.00004 1.25c-0.46894 0 -0.92716 -0.0224 -1.36771 -0.056 0.30913 1.1102 1.27652 1.9536 2.44705 2.0833 0.74885 0.083 1.53886 0.1561 2.35132 0.1561 0.81247 0 1.60249 -0.0731 2.35129 -0.1561 1.3272 -0.147 2.3932 -1.2116 2.5347 -2.5422 0.0792 -0.7447 0.1476 -1.52843 0.1476 -2.33408 0 -0.80566 -0.0684 -1.58936 -0.1476 -2.33414 -0.1251 -1.1767 -0.9733 -2.14536 -2.0858 -2.45535 0.0318 0.43745 0.0528 0.89158 0.0528 1.35614 0 0.8727 -0.0741 1.70861 -0.1546 2.46633 -0.204 1.91714 -1.7324 3.441 -3.64005 3.6524 -0.76068 0.0843 -1.60582 0.1636 -2.489 0.1636Z" clip-rule="evenodd" stroke-width="1"></path>
  </g>
</svg>