<svg xmlns="http://www.w3.org/2000/svg" fill="none" viewBox="0 0 14 14" id="Binoculars--Streamline-Flex">
  <desc>
    Binoculars Streamline Icon: https://streamlinehq.com
  </desc>
  <g id="binoculars--binocular-binoculars-view-zoom">
    <path id="Union" fill="#79ee8d" fill-rule="evenodd" d="M1.14839 3.23877C1.21557 1.72327 1.82751 0.875 3.36312 0.875s2.14756 0.84827 2.21474 2.36377c0.0095 0.21442 0.02005 0.43013 0.03132 0.6469 0.93056 -0.37315 1.8437 -0.37489 2.7741 -0.00524 0.01117 -0.21501 0.02162 -0.42897 0.03105 -0.64166C8.48151 1.72327 9.09346 0.875 10.6291 0.875c1.5356 0 2.1475 0.84827 2.2147 2.36377 0.0292 0.6599 0.0684 1.33203 0.1079 2.00981l0 0.00018v0.00001c0.1072 1.8398 0.2168 3.72119 0.1374 5.51243 -0.0672 1.5155 -0.9454 2.3638 -2.46 2.3638 -1.51464 0 -2.39285 -0.8483 -2.46002 -2.3638 -0.05582 -1.25916 -0.01824 -2.56289 0.04623 -3.8654 -0.8166 -0.28577 -1.62147 -0.28423 -2.43821 0.00462 0.06434 1.30097 0.10176 2.60311 0.04601 3.86078 -0.06718 1.5155 -0.94538 2.3638 -2.45999 2.3638 -1.5146 0 -2.39281 -0.8483 -2.459986 -2.3638 -0.079401 -1.79124 0.030191 -3.67263 0.137356 -5.51243 0.03949 -0.67784 0.07864 -1.35004 0.1079 -2.01Z" clip-rule="evenodd" stroke-width="1"></path>
    <path id="Union_2" fill="#0c098c" fill-rule="evenodd" d="M1.15681 12.9618c0.56292 0.5416 1.33289 0.7882 2.20613 0.7882 0.87325 0 1.64322 -0.2466 2.20613 -0.7882 0.56239 -0.5411 0.83961 -1.3013 0.87824 -2.1729 0.05659 -1.27657 0.01911 -2.59053 -0.0446 -3.88772 -0.01693 -0.34476 -0.31014 -0.61052 -0.65491 -0.59359 -0.34476 0.01694 -0.61052 0.31015 -0.59358 0.65491 0.03068 0.62464 0.05478 1.24568 0.06522 1.8591 -0.41907 -0.45308 -1.04979 -0.69343 -1.86491 -0.69343 -0.80424 0 -1.42896 0.23398 -1.84802 0.67539 0.02006 -1.1504 0.08818 -2.32004 0.15622 -3.48825l0 -0.00001 0 -0.00001 0 -0.00002 0 -0.00001 0 -0.00002c0.03988 -0.68481 0.07974 -1.36912 0.10987 -2.0488 0.03086 -0.69622 0.18458 -1.11847 0.4015 -1.36497C2.37248 1.67605 2.71131 1.5 3.36294 1.5c0.65164 0 0.99047 0.17605 1.18884 0.40147 0.21204 0.24095 0.36369 0.64983 0.39923 1.31838 -0.28781 0.13786 -0.57185 0.30298 -0.85237 0.49305 -0.40006 0.27108 -0.50462 0.81515 -0.23354 1.2152 0.27108 0.40006 0.81514 0.50462 1.2152 0.23354 0.71213 -0.48253 1.34098 -0.68215 1.9224 -0.68215 0.58141 0 1.21026 0.19962 1.92239 0.68215 0.40006 0.27108 0.94413 0.16652 1.21521 -0.23354 0.2711 -0.40006 0.1665 -0.94412 -0.23355 -1.2152 -0.28202 -0.19109 -0.5676 -0.35696 -0.85699 -0.49526 0.03576 -0.66724 0.18731 -1.07549 0.39912 -1.31617C9.64725 1.67605 9.98607 1.5 10.6377 1.5c0.6516 0 0.9905 0.17605 1.1888 0.40147 0.217 0.2465 0.3707 0.66875 0.4016 1.36497 0.0301 0.67969 0.0699 1.36403 0.1098 2.04886v0.00001c0.0677 1.1626 0.1355 2.32661 0.1559 3.47167 -0.4188 -0.43069 -1.0379 -0.65881 -1.832 -0.65881 -0.82555 0 -1.46193 0.24652 -1.88088 0.71087 0.01028 -0.61909 0.03455 -1.24598 0.06552 -1.87654 0.01693 -0.34476 -0.24883 -0.63797 -0.59359 -0.65491 -0.34476 -0.01693 -0.63798 0.24883 -0.65491 0.59359 -0.06371 1.29719 -0.10118 2.61115 -0.0446 3.88772 0.03864 0.8716 0.31585 1.6318 0.87824 2.1729 0.56292 0.5416 1.33289 0.7882 2.20612 0.7882 0.8733 0 1.6432 -0.2466 2.2061 -0.7882 0.5624 -0.5411 0.8396 -1.3013 0.8783 -2.1729 0.0809 -1.82595 -0.0316 -3.7566 -0.1393 -5.60644v-0.00001c-0.0391 -0.67069 -0.0776 -1.33076 -0.106 -1.97136 -0.0363 -0.81928 -0.2221 -1.5789 -0.7119 -2.13542C12.2566 0.49808 11.5217 0.25 10.6377 0.25c-0.88396 0 -1.61891 0.24808 -2.12721 0.82567 -0.40848 0.46418 -0.60554 1.06967 -0.68076 1.73321 -0.2722 -0.05234 -0.54781 -0.07939 -0.82703 -0.07939 -0.28081 0 -0.55797 0.02735 -0.83167 0.08028 -0.07514 -0.66389 -0.2722 -1.26971 -0.68087 -1.7341C4.98186 0.49808 4.24692 0.25 3.36294 0.25c-0.88397 0 -1.61892 0.24808 -2.12721 0.82567 -0.489753 0.55652 -0.675591 1.31614 -0.711907 2.13542 -0.028395 0.6406 -0.066853 1.30067 -0.105929 1.97136C0.310116 7.0323 0.19763 8.96295 0.278569 10.7889c0.038635 0.8716 0.31585 1.6318 0.878241 2.1729Z" clip-rule="evenodd" stroke-width="1"></path>
  </g>
</svg>