<svg xmlns="http://www.w3.org/2000/svg" fill="none" viewBox="0 0 14 14" id="Calendar-Mark--Streamline-Flex">
  <desc>
    Calendar Mark Streamline Icon: https://streamlinehq.com
  </desc>
  <g id="calendar-mark--calendar-date-day-month-mark">
    <path id="Intersect" fill="#fddc5c" d="M1.04441 10.4805c0.16263 1.3968 1.34195 2.5058 2.80027 2.5734 1.00797 0.0467 2.03764 0.071 3.15517 0.071 1.11752 0 2.1472 -0.0243 3.15515 -0.071 1.4583 -0.0676 2.6376 -1.1766 2.8003 -2.5734 0.2259 -1.93994 0.2259 -3.59198 0 -5.53194 -0.1627 -1.39674 -1.342 -2.50573 -2.8003 -2.57334 -1.00795 -0.04673 -2.03762 -0.07102 -3.15515 -0.07102s-2.1472 0.02429 -3.15517 0.07102c-1.45832 0.06761 -2.63764 1.1766 -2.80027 2.57334 -0.225881 1.93996 -0.22588 3.592 0 5.53194Z" stroke-width="1"></path>
    <path id="Union" fill="#0c098c" fill-rule="evenodd" d="M4.93164 0.875c0 -0.345178 -0.27982 -0.625 -0.625 -0.625s-0.625 0.279822 -0.625 0.625v0.88458C1.98352 1.90105 0.617087 3.21458 0.423606 4.87627c-0.231475 1.988 -0.231474 3.68855 0 5.67653 0.198549 1.7052 1.632294 3.0438 3.392124 3.1254 1.01794 0.0472 2.05727 0.0717 3.18412 0.0717 1.12685 0 2.16617 -0.0245 3.18415 -0.0717 1.7598 -0.0816 3.1935 -1.4202 3.3921 -3.1254 0.2315 -1.98798 0.2315 -3.68853 0 -5.67653 -0.1935 -1.66159 -1.5598 -2.97506 -3.2577 -3.11666V0.875c0 -0.345178 -0.2799 -0.625 -0.62504 -0.625 -0.34518 0 -0.625 0.279822 -0.625 0.625v0.83369c-0.6653 -0.01951 -1.34907 -0.02949 -2.06851 -0.02949 -0.71934 0 -1.403 0.00998 -2.06821 0.02948V0.875Zm4.13672 2.69497v-0.61073c-0.66434 -0.01986 -1.34777 -0.03004 -2.06851 -0.03004 -0.72063 0 -1.40397 0.01018 -2.06821 0.03003v0.61074c0 0.34518 -0.27982 0.625 -0.625 0.625s-0.625 -0.27982 -0.625 -0.625v-0.55376c-1.06586 0.13608 -1.8968 0.97729 -2.01642 2.00463 -0.22029 1.89194 -0.22029 3.49547 0 5.38736 0.12671 1.0883 1.0516 1.9677 2.2084 2.0213 0.998 0.0463 2.01802 0.0704 3.12623 0.0704 1.1082 0 2.12822 -0.0241 3.12625 -0.0704 1.1568 -0.0536 2.0817 -0.933 2.2084 -2.0213 0.2203 -1.89189 0.2203 -3.49542 0 -5.38736 -0.1196 -1.02724 -0.9504 -1.86839 -2.0161 -2.00459v0.55372c0 0.34518 -0.2799 0.625 -0.62504 0.625 -0.34518 0 -0.625 -0.27982 -0.625 -0.625ZM5.25293 6.78394c0 0.64 -0.36 1 -1 1s-1 -0.36 -1 -1 0.36 -1 1 -1 1 0.36 1 1Zm1.74707 1c0.64 0 1 -0.36 1 -1s-0.36 -1 -1 -1 -1 0.36 -1 1 0.36 1 1 1Zm3.7471 -1c0 0.64 -0.36 1 -1.00003 1 -0.64 0 -1 -0.36 -1 -1s0.36 -1 1 -1c0.64003 0 1.00003 0.36 1.00003 1ZM4.25293 10.7839c0.64 0 1 -0.36 1 -0.99996 0 -0.64 -0.36 -1 -1 -1s-1 0.36 -1 1c0 0.63996 0.36 0.99996 1 0.99996ZM8 9.78394c0 0.63996 -0.36 0.99996 -1 0.99996s-1 -0.36 -1 -0.99996c0 -0.64 0.36 -1 1 -1s1 0.36 1 1Z" clip-rule="evenodd" stroke-width="1"></path>
  </g>
</svg>