<svg xmlns="http://www.w3.org/2000/svg" fill="none" viewBox="0 0 14 14" id="Download-Tray--Streamline-Flex">
  <desc>
    Download Tray Streamline Icon: https://streamlinehq.com
  </desc>
  <g id="download-tray--arrow-bottom-down-download-internet-network-server-upload">
    <path id="Intersect" fill="#7af1ff" d="M1.1714 10.1536c0.07663 0.6789 0.38099 1.3117 0.86345 1.7954 0.48245 0.4837 1.11454 0.7897 1.79319 0.868 1.03255 0.1158 2.09116 0.2142 3.17196 0.2142s2.14037 -0.0984 3.172 -0.2142c0.6786 -0.0783 1.3107 -0.3843 1.7932 -0.868 0.4824 -0.4837 0.7868 -1.1165 0.8634 -1.7954 0.11 -1.02578 0.2026 -2.07956 0.2026 -3.1536 0 -1.07405 -0.0926 -2.12783 -0.2026 -3.15459 -0.0766 -0.67885 -0.381 -1.31171 -0.8634 -1.79539 -0.4825 -0.48368 -1.1146 -0.78965 -1.7932 -0.868C9.1394 1.06815 8.0808 0.96875 7 0.96875s-2.14037 0.09843 -3.17196 0.21423c-0.67865 0.07836 -1.31074 0.38432 -1.79319 0.868 -0.48246 0.48369 -0.78682 1.11655 -0.86345 1.7954C1.06139 4.87121 0.96875 5.92499 0.96875 7c0 1.07501 0.09264 2.12782 0.20265 3.1536Z" stroke-width="1"></path>
    <path id="Union" fill="#7af1ff" fill-rule="evenodd" d="M6.99986 0.249756c-1.10302 0 -2.1743 0.100408 -3.18757 0.214154l0 -0.000005 -0.00275 0.000318C2.95195 0.563239 2.15321 0.949874 1.54355 1.56108 0.933889 2.17229 0.549284 2.97201 0.452446 3.82985l-0.000013 0 -0.000512 0.00476C0.343817 4.84169 0.249512 5.9053 0.249512 7.0001c0 1.09483 0.09431 2.15751 0.2024 3.1654l0.000534 0.0049c0.096838 0.8578 0.481443 1.6575 1.091104 2.2687 0.60966 0.6112 1.4084 0.9979 2.26599 1.0969l0.00284 0.0003c1.01408 0.1137 2.08444 0.2141 3.18748 0.2141 1.10301 0 2.17429 -0.1004 3.18754 -0.2141l0.0028 -0.0003c0.8576 -0.099 1.6563 -0.4857 2.266 -1.0969 0.6096 -0.6112 0.9942 -1.4109 1.0911 -2.2687l0.0005 -0.0049c0.1081 -1.00791 0.2024 -2.07153 0.2024 -3.1654s-0.0943 -2.15748 -0.2024 -3.16626l-0.0005 -0.00493c-0.0969 -0.85784 -0.4815 -1.65756 -1.0911 -2.26877 -0.6097 -0.611206 -1.4084 -0.997841 -2.266 -1.096857l0 -0.000012 -0.0045 -0.00049C9.17367 0.35117 8.10301 0.249756 6.99986 0.249756Z" clip-rule="evenodd" stroke-width="1"></path>
    <path id="Union_2" fill="#0c098c" fill-rule="evenodd" d="M7.06942 0.25c-0.34518 0 -0.625 0.279822 -0.625 0.625l-0.00001 4.30088H3.90896c-0.21661 0 -0.41777 0.11216 -0.53165 0.29642 -0.11388 0.18426 -0.12424 0.41434 -0.02736 0.60809 0.69273 1.38546 2.05532 2.74806 3.44084 3.44079 0.17596 0.08797 0.38306 0.08797 0.55902 -0.00001 1.38541 -0.69273 2.74799 -2.05532 3.44069 -3.44078 0.0969 -0.19375 0.0866 -0.42383 -0.0273 -0.60809 -0.1139 -0.18426 -0.3151 -0.29642 -0.5317 -0.29642H7.69441L7.69442 0.875c0 -0.345178 -0.27983 -0.625 -0.625 -0.625ZM1.99456 9.87719c-0.05421 -0.4802 -0.48743 -0.82553 -0.96763 -0.77133 -0.480203 0.05421 -0.825537 0.48744 -0.771328 0.96764 0.099429 0.8808 0.494325 1.7019 1.120298 2.3295 0.62597 0.6275 1.44608 1.0245 2.32662 1.1262l0.00284 0.0003c1.04899 0.1176 2.15515 0.2214 3.29473 0.2214 1.13955 0 2.24666 -0.1038 3.29481 -0.2214l0.0028 -0.0003c0.8805 -0.1017 1.7006 -0.4987 2.3266 -1.1262 0.6259 -0.6276 1.0208 -1.4487 1.1203 -2.3295 0.0542 -0.4802 -0.2912 -0.91343 -0.7714 -0.96764 -0.4802 -0.0542 -0.9134 0.29113 -0.9676 0.77133 -0.055 0.48771 -0.2737 0.94241 -0.6203 1.28991 -0.3464 0.3472 -0.8 0.5669 -1.2871 0.6235 -1.03094 0.1157 -2.05936 0.2103 -3.09811 0.2103 -1.03872 0 -2.06613 -0.0946 -3.09816 -0.2103 -0.48709 -0.0566 -0.94071 -0.2763 -1.28703 -0.6235 -0.34662 -0.3475 -0.56529 -0.8022 -0.62034 -1.28991Z" clip-rule="evenodd" stroke-width="1"></path>
  </g>
</svg>