<svg xmlns="http://www.w3.org/2000/svg" fill="none" viewBox="0 0 14 14" id="Expand-Crop-Resize--Streamline-Flex">
  <desc>
    Expand Crop Resize Streamline Icon: https://streamlinehq.com
  </desc>
  <g id="expand-crop-resize">
    <path id="Union" fill="#7af1ff" d="M5.72252 10.7274c-0.61733 -0.0715 -1.19231 -0.3506 -1.63117 -0.79199 -0.43998 -0.44022 -0.73926 -1.0162 -0.81054 -1.63545 -0.10534 -0.94216 -0.19487 -1.9081 -0.19487 -2.89429 0 -0.74798 0.05151 -1.48482 0.12235 -2.20782 0.71496 -0.07014 1.44345 -0.12095 2.18286 -0.12095 0.98314 0 1.9461 0.08982 2.88535 0.19548 0.61734 0.0715 1.19231 0.35068 1.63117 0.79202 0.44003 0.44023 0.73923 1.01621 0.81053 1.63545 0.1053 0.94217 0.1949 1.90811 0.1949 2.8943 0 0.74798 -0.0515 1.48485 -0.1224 2.20785 -0.7149 0.0701 -1.44341 0.1209 -2.18283 0.1209 -0.98314 0 -1.94609 -0.0898 -2.88535 -0.1955Z" stroke-width="1"></path>
    <path id="Union_2" fill="#0c098c" fill-rule="evenodd" d="M3.77179 0.159791c0.39497 0.12477 0.61402 0.546106 0.48925 0.941079 -0.07229 0.22883 -0.14232 0.71512 -0.20926 1.27383 0.43946 -0.02951 0.8865 -0.04775 1.33915 -0.04775 1.02628 0 2.02288 0.09372 2.9692 0.20018l0.00244 0.00028c0.78632 0.09107 1.51829 0.44664 2.07673 1.00821 0.5472 0.54807 0.9314 1.27611 1.0238 2.07852l0.0003 0.00243c0.1061 0.94919 0.1995 1.94856 0.1995 2.97763 0 0.4605 -0.0187 0.91524 -0.0489 1.36214 0.2793 -0.03807 0.5184 -0.08222 0.7589 -0.12664l0 -0.00001c0.2041 -0.03769 0.4093 -0.07557 0.6409 -0.11011 0.4097 -0.06107 0.7913 0.22154 0.8524 0.63122 0.0611 0.4097 -0.2215 0.7913 -0.6312 0.8524 -0.1289 0.0192 -0.2968 0.0495 -0.4866 0.0838l-0.0001 0c-0.3503 0.0632 -0.7755 0.1399 -1.169 0.1855l-0.0024 0.0003c-0.0345 0.0039 -0.0691 0.0077 -0.1038 0.0116 -0.0033 0.0292 -0.0065 0.0584 -0.0098 0.0875l-0.0002 0.0024c-0.0744 0.6462 -0.1786 1.233 -0.276 1.7029 -0.0841 0.4056 -0.481 0.6662 -0.8866 0.5821 -0.40562 -0.084 -0.66625 -0.481 -0.58217 -0.8866 0.079 -0.381 0.16219 -0.8422 0.2274 -1.3474 -0.43911 0.0295 -0.88579 0.0477 -1.33807 0.0477 -1.02629 0 -2.02288 -0.0938 -2.9692 -0.2002l-0.00244 -0.0003c-0.78632 -0.0911 -1.51829 -0.4466 -2.07671 -1.0082 -0.5472 -0.54807 -0.93144 -1.27612 -1.0238 -2.07853l-0.00028 -0.00243c-0.10612 -0.94919 -0.19951 -1.94856 -0.19951 -2.97762 0 -0.46063 0.01871 -0.91549 0.0489 -1.36252 -0.52636 0.06956 -1.06524 0.17032 -1.36141 0.23037 -0.405955 0.08231 -0.801771 -0.18005 -0.884082 -0.586 -0.082312 -0.40595 0.180051 -0.80177 0.586004 -0.88408 0.353458 -0.07167 1.046578 -0.20108 1.694168 -0.27608l0.00236 -0.00027c0.03455 -0.00389 0.06916 -0.00776 0.10385 -0.01161 0.00323 -0.02922 0.00648 -0.05839 0.00973 -0.08752l0.00027 -0.00235c0.06778 -0.58887 0.15976 -1.34787 0.29519 -1.776618 0.12477 -0.394976 0.54611 -0.6140206 0.94109 -0.489251Zm0.12796 3.729839c-0.03921 0.50359 -0.06403 1.0084 -0.06403 1.51609 0 0.94288 0.0856 1.87495 0.19008 2.80964 0.05036 0.43504 0.26405 0.85798 0.59581 1.18992l0.00135 0.00135c0.31906 0.32086 0.73663 0.52359 1.18459 0.57571 0.93172 0.10476 1.86057 0.19066 2.80011 0.19066 0.49928 0 0.9958 -0.0243 1.49114 -0.0627 0.0393 -0.50361 0.0641 -1.00842 0.0641 -1.5161 0 -0.94288 -0.0856 -1.87495 -0.19011 -2.80965 -0.05036 -0.43503 -0.26406 -0.85797 -0.59581 -1.18991l-0.00135 -0.00135c-0.31906 -0.32087 -0.73664 -0.5236 -1.18459 -0.57572 -0.93172 -0.10479 -1.86057 -0.19062 -2.80011 -0.19062 -0.49928 0 -0.99581 0.02424 -1.49118 0.06268ZM9.83157 0.44205c-0.34318 -0.037082 -0.65144 0.21106 -0.68852 0.554241 -0.03708 0.343179 0.21106 0.651439 0.55424 0.688529 0.33631 0.03633 0.67001 0.07515 1.00371 0.11395l0.03 0.00349c0.6718 0.07813 1.2086 0.61635 1.2835 1.28579 0.0385 0.34362 0.0768 0.68781 0.1125 1.03448 0.0354 0.34337 0.3424 0.59307 0.6857 0.55772 0.3434 -0.03534 0.5931 -0.34234 0.5578 -0.68571 -0.0364 -0.3529 -0.0753 -0.70221 -0.1137 -1.0455 -0.1399 -1.2504 -1.1343 -2.243383 -2.3814 -2.388409l-0.0319 -0.003709C10.5112 0.518281 10.173 0.478944 9.83157 0.44205ZM3.82229 13.5579c0.34318 0.037 0.65144 -0.2111 0.68852 -0.5543 0.03709 -0.3432 -0.21106 -0.6514 -0.55424 -0.6885 -0.33628 -0.0363 -0.67005 -0.0752 -1.00366 -0.114l-0.03004 -0.0034c-0.67181 -0.0782 -1.20863 -0.6164 -1.28354 -1.2858 -0.03845 -0.3437 -0.07681 -0.6878 -0.11249 -1.03452 -0.03534 -0.34336 -0.34235 -0.59306 -0.68571 -0.55772 -0.343363 0.03534 -0.593063 0.34235 -0.557721 0.68574 0.036325 0.3529 0.075263 0.7022 0.113677 1.0455 0.139923 1.2504 1.134294 2.2434 2.381384 2.3884l0.03189 0.0037 0.00018 0c0.3322 0.0386 0.67037 0.078 1.01175 0.1149Z" clip-rule="evenodd" stroke-width="1"></path>
  </g>
</svg>