<svg xmlns="http://www.w3.org/2000/svg" fill="none" viewBox="0 0 14 14" id="Face-Scan-1--Streamline-Flex">
  <desc>
    Face Scan 1 Streamline Icon: https://streamlinehq.com
  </desc>
  <g id="face-scan-1--identification-angle-secure-human-id-person-face-security-brackets">
    <path id="Intersect" fill="#ff7972" d="M0.307631 10.6209c0.08799 0.7795 0.43745 1.5061 0.991399 2.0615 0.55395 0.5553 1.2797 0.9066 2.05893 0.9966 1.18556 0.133 2.40103 0.246 3.64199 0.246 1.24096 0 2.45754 -0.113 3.64195 -0.246 0.7793 -0.09 1.505 -0.4413 2.059 -0.9966 0.5539 -0.5554 0.9034 -1.282 0.9914 -2.0615 0.1263 -1.17778 0.2327 -2.38771 0.2327 -3.62092 0 -1.2332 -0.1064 -2.44314 -0.2327 -3.62205 -0.088 -0.77945 -0.4375 -1.50609 -0.9914 -2.06145 -0.554 -0.555357 -1.2797 -0.906662 -2.059 -0.99663C9.45639 0.189106 8.24091 0.0749817 6.99995 0.0749817c-1.24096 0 -2.45754 0.1130163 -3.64199 0.2459763 -0.77923 0.089968 -1.50498 0.441273 -2.05893 0.996632 -0.553949 0.55535 -0.903409 1.282 -0.991399 2.06145C0.181319 4.55573 0.0749512 5.76567 0.0749512 6.99998c0 1.23431 0.1063678 2.44314 0.2326798 3.62092Z" stroke-width="1"></path>
    <path id="Union" fill="#0c098c" fill-rule="evenodd" d="M4.02898 1.49639c0.34319 -0.03699 0.59142 -0.34519 0.55442 -0.68838 -0.03699 -0.34319 -0.34519 -0.591412 -0.68838 -0.554419 -0.35315 0.038067 -0.70326 0.078687 -1.04727 0.118598L2.8477 0.372195l-0.12198 0.014147C1.51112 0.527115 0.540339 1.4843 0.38562 2.69644c-0.092724 0.39809 -0.107 0.72417 -0.11763 0.96701 -0.003993 0.09118 -0.007471 0.17063 -0.014396 0.23775 -0.035428 0.34335 0.214195 0.65042 0.55755 0.68585 0.343356 0.03543 0.650416 -0.2142 0.685846 -0.55755 0.02023 -0.19608 0.02476 -0.32932 0.02868 -0.44459 0.00651 -0.19144 0.01133 -0.3333 0.0836 -0.63114 0.00621 -0.02558 0.01079 -0.05153 0.01373 -0.0777 0.07295 -0.65024 0.59404 -1.1724 1.24663 -1.24804l0.12195 -0.01414 0.00004 -0.00001c0.34465 -0.03998 0.68958 -0.08 1.03736 -0.11749ZM10.1051 0.253591C9.76196 0.216598 9.45376 0.46482 9.41677 0.80801c-0.037 0.34319 0.21122 0.65139 0.55442 0.68838 0.34781 0.03749 0.69271 0.07751 1.03741 0.11749l0.1219 0.01415c0.6526 0.07564 1.1737 0.5978 1.2467 1.24804l0 0.00002 0.0031 0.02766c0.0419 0.37383 0.0839 0.74828 0.1229 1.12575 0.0354 0.34335 0.3425 0.59298 0.6858 0.55755 0.3434 -0.03543 0.593 -0.3425 0.5576 -0.68585 -0.0396 -0.3836 -0.0822 -0.76324 -0.124 -1.13591l-0.0001 -0.00093 -0.0031 -0.02765 0 -0.00002C13.4812 1.50554 12.5025 0.528669 11.2745 0.386342l-0.122 -0.014144 0 -0.000001c-0.344 -0.039914 -0.6942 -0.080537 -1.0474 -0.118606ZM1.49699 9.97049c-0.03543 -0.34336 -0.34249 -0.59298 -0.685846 -0.55755 -0.343355 0.03542 -0.592978 0.34249 -0.55755 0.68586 0.039569 0.3835 0.082153 0.763 0.123955 1.1356l0.000005 0 0.000135 0.0012 0.003103 0.0277c0.138127 1.2311 1.116908 2.208 2.344928 2.3503l0.12186 0.0142c0.34406 0.0399 0.69423 0.0805 1.04744 0.1186 0.34319 0.037 0.65139 -0.2112 0.68838 -0.5544 0.037 -0.3432 -0.21123 -0.6514 -0.55442 -0.6884 -0.34776 -0.0375 -0.69267 -0.0775 -1.03731 -0.1175l-0.00005 0 -0.12199 -0.0141c-0.65259 -0.0757 -1.17368 -0.5979 -1.24663 -1.2481l-0.62084 0.0697 0.62084 -0.0697 -0.00311 -0.0277c-0.04194 -0.3738 -0.08395 -0.7482 -0.1229 -1.12571Zm12.24961 0.12831c0.0354 -0.34337 -0.2142 -0.65044 -0.5576 -0.68586 -0.3433 -0.03543 -0.6504 0.21419 -0.6858 0.55755 -0.039 0.37751 -0.081 0.75191 -0.1229 1.12571l-0.0031 0.0277c-0.073 0.6502 -0.5941 1.1724 -1.2467 1.2481l-0.122 0.0141c-0.3446 0.04 -0.6895 0.08 -1.03731 0.1175 -0.3432 0.037 -0.59142 0.3452 -0.55442 0.6884 0.03699 0.3432 0.34519 0.5914 0.68833 0.5544 0.3532 -0.0381 0.7033 -0.0787 1.0473 -0.1186l0.0002 0 0.1219 -0.0142c1.228 -0.1423 2.2067 -1.1192 2.3449 -2.3503l0.0031 -0.0277 0.0001 -0.0009c0.0418 -0.3727 0.0844 -0.7523 0.124 -1.1359ZM4.06035 3.29851c0.41422 0 0.75 0.33579 0.75 0.75v0.76398c0 0.41422 -0.33578 0.75 -0.75 0.75 -0.41421 0 -0.75 -0.33578 -0.75 -0.75v-0.76398c0 -0.41421 0.33579 -0.75 0.75 -0.75Zm5.87989 0c0.41416 0 0.74996 0.33579 0.74996 0.75v0.76398c0 0.41422 -0.3358 0.75 -0.74996 0.75 -0.41422 0 -0.75 -0.33578 -0.75 -0.75v-0.76398c0 -0.41421 0.33578 -0.75 0.75 -0.75ZM7.7055 5.58587c0 -0.41422 -0.33578 -0.75 -0.75 -0.75 -0.41421 0 -0.75 0.33578 -0.75 0.75v1.07038c0 0.13808 -0.11193 0.25 -0.25 0.25h-0.38026c-0.41421 0 -0.75 0.33579 -0.75 0.75 0 0.41422 0.33579 0.75 0.75 0.75h0.38026c0.9665 0 1.75 -0.7835 1.75 -1.75V5.58587ZM4.77658 9.71949c0.28527 -0.30033 0.75999 -0.31253 1.06031 -0.02726 0.31388 0.29816 0.73027 0.46437 1.16319 0.46437 0.43292 0 0.84931 -0.16621 1.1632 -0.46437 0.30032 -0.28527 0.77503 -0.27307 1.06031 0.02726 0.28527 0.30031 0.27307 0.77501 -0.02726 1.06031 -0.59265 0.5629 -1.37884 0.8768 -2.19625 0.8768 -0.8174 0 -1.6036 -0.3139 -2.19625 -0.8768 -0.30032 -0.2853 -0.31252 -0.76 -0.02725 -1.06031Z" clip-rule="evenodd" stroke-width="1"></path>
  </g>
</svg>