<svg xmlns="http://www.w3.org/2000/svg" fill="none" viewBox="0 0 14 14" id="Humidity-None--Streamline-Flex">
  <desc>
    Humidity None Streamline Icon: https://streamlinehq.com
  </desc>
  <g id="humidity-none--humidity-drop-weather">
    <path id="Subtract" fill="#ff7972" fill-rule="evenodd" d="M10.9239 11.3957C7.96034 8.9391 5.85713 6.90829 3.54053 4.20919c1.00701 -1.46467 2.25887 -2.5181 2.9468 -3.03591 0.30695 -0.231041 0.71834 -0.23104 1.02529 0C8.78767 2.13302 12 4.93276 12 8.78067c0 0.95367 -0.3826 1.87403 -1.0761 2.61503Z" clip-rule="evenodd" stroke-width="1"></path>
    <path id="Union" fill="#0c098c" fill-rule="evenodd" d="M0.240403 0.132344C-0.031683 0.34475 -0.0800629 0.73751 0.132343 1.0096 1.1809 2.35277 2.13147 3.52616 3.0488 4.59578c0.01087 0.01382 0.02238 0.02725 0.03453 0.04023 2.92824 3.40917 5.52553 5.76769 9.90407 9.22909 0.2708 0.2141 0.6638 0.1681 0.8779 -0.1026 0.2141 -0.2708 0.1681 -0.6639 -0.1027 -0.8779 -0.6974 -0.5514 -1.3484 -1.0738 -1.962 -1.5764 0.5299 -0.7476 0.8243 -1.61945 0.8243 -2.52753 0 -2.10223 -0.8773 -3.89227 -1.8881 -5.25848C9.72563 2.15546 8.55296 1.17415 7.88839 0.673931c-0.52952 -0.398574 -1.24749 -0.398575 -1.77702 0C5.5007 1.13358 4.45802 2.00166 3.50679 3.20369 2.753 2.30603 1.96871 1.33057 1.11766 0.240403 0.90525 -0.0316833 0.51249 -0.0800633 0.240403 0.132344ZM10.8347 10.5072C8.28508 8.36459 6.37609 6.51534 4.33634 4.17407 5.23386 2.9871 6.26663 2.1216 6.8631 1.67263c0.08438 -0.06351 0.18919 -0.06351 0.27357 0 0.61048 0.45952 1.68149 1.35795 2.59524 2.59301 0.91409 1.23557 1.64299 2.76935 1.64299 4.51503 0 0.60082 -0.1848 1.19522 -0.5402 1.72653ZM1.375 8.78068c0 -1.23121 0.30092 -2.35534 0.75334 -3.34995C4.55285 8.26534 6.73597 10.3674 9.8675 12.9499c-0.86559 0.4409 -1.85628 0.6751 -2.8675 0.6751 -1.46078 0 -2.87873 -0.4888 -3.93861 -1.3831C1.99833 11.3448 1.375 10.103 1.375 8.78068Z" clip-rule="evenodd" stroke-width="1"></path>
  </g>
</svg>