<svg xmlns="http://www.w3.org/2000/svg" fill="none" viewBox="0 0 14 14" id="Layout-Window-1--Streamline-Flex">
  <desc>
    Layout Window 1 Streamline Icon: https://streamlinehq.com
  </desc>
  <g id="layout-window-1--column-layout-layouts-left-sidebar">
    <path id="Intersect" fill="#7af1ff" d="M1.07537 10.1534c0.15322 1.4408 1.31268 2.6003 2.75273 2.7599 1.03247 0.1145 2.09199 0.2117 3.1719 0.2117s2.13943 -0.0972 3.1719 -0.2117c1.44 -0.1596 2.5995 -1.3191 2.7527 -2.7599 0.1092 -1.02651 0.2004 -2.07985 0.2004 -3.1534s-0.0912 -2.12689 -0.2004 -3.15343c-0.1532 -1.44075 -1.3127 -2.60028 -2.7527 -2.75992C9.13943 0.972199 8.07991 0.875 7 0.875s-2.13943 0.097199 -3.1719 0.21165c-1.44005 0.15964 -2.59951 1.31917 -2.75274 2.75992C0.966192 4.87311 0.875 5.92645 0.875 7s0.091192 2.12689 0.20037 3.1534Z" stroke-width="1"></path>
    <path id="Union" fill="#0c098c" fill-rule="evenodd" d="M4.97852 1.59868V6.375l7.51138 0c-0.0262 -0.82725 -0.1001 -1.64707 -0.1868 -2.46234 -0.122 -1.14753 -1.0503 -2.07736 -2.2001 -2.20481C9.07645 1.59405 8.04452 1.5 7 1.5c-0.67848 0 -1.35164 0.03968 -2.02148 0.09868Zm0 6.02632 0 4.7763c0.66984 0.059 1.343 0.0987 2.02148 0.0987 1.04452 0 2.07645 -0.094 3.103 -0.2078 1.1498 -0.1275 2.0781 -1.0573 2.2001 -2.2049 0.0867 -0.81523 0.1606 -1.63505 0.1868 -2.4623l-7.51138 0ZM3.75924 0.465458C4.79758 0.350353 5.8847 0.25 7 0.25s2.20242 0.100353 3.2408 0.215458c1.7303 0.191817 3.1209 1.581052 3.3053 3.315012C13.656 4.81345 13.75 5.8929 13.75 7c0 1.10709 -0.094 2.18655 -0.2039 3.2195 -0.1844 1.734 -1.575 3.1232 -3.3053 3.315 -1.03838 0.1151 -2.1255 0.2155 -3.2408 0.2155s-2.20242 -0.1004 -3.24076 -0.2155c-1.73036 -0.1918 -3.120963 -1.581 -3.30537 -3.315C0.344012 9.18655 0.25 8.10709 0.25 7c0 -1.1071 0.094012 -2.18655 0.20387 -3.21953C0.638277 2.04651 2.02888 0.657275 3.75924 0.465458Z" clip-rule="evenodd" stroke-width="1"></path>
  </g>
</svg>