<svg xmlns="http://www.w3.org/2000/svg" fill="none" viewBox="0 0 14 14" id="Padlock-Square-2--Streamline-Flex">
  <desc>
    Padlock Square 2 Streamline Icon: https://streamlinehq.com
  </desc>
  <g id="padlock-square-2--combination-combo-key-keyhole-lock-secure-security-square-unlock-unlocked">
    <path id="Intersect" fill="#fddc5c" d="M1.72994 10.7295c0.1679 1.4335 1.37989 2.55 2.82228 2.6025 0.78089 0.0284 1.58198 0.043 2.44778 0.043 0.8658 0 1.66689 -0.0146 2.44778 -0.043 1.44242 -0.0525 2.65442 -1.169 2.82232 -2.6025 0.0616 -0.5266 0.1049 -1.06196 0.1049 -1.60448 0 -0.54251 -0.0433 -1.07788 -0.1049 -1.60446 -0.1679 -1.43353 -1.3799 -2.55006 -2.82232 -2.60249C8.66689 4.88969 7.8658 4.875 7 4.875c-0.8658 0 -1.66689 0.01469 -2.44778 0.04307 -1.44239 0.05243 -2.65438 1.16896 -2.82228 2.60249 -0.06168 0.52658 -0.10494 1.06195 -0.10494 1.60446 0 0.54252 0.04326 1.07788 0.10494 1.60448Z" stroke-width="1"></path>
    <path id="Union" fill="#0c098c" fill-rule="evenodd" d="M7.00048 0C5.98129 0 5.00451 0.406427 4.28484 1.12881c-0.71956 0.72227 -1.12322 1.70118 -1.12322 2.72121v0.77332c-1.09753 0.51158 -1.90504 1.56608 -2.05244 2.82452C1.04583 7.98874 1 8.54999 1 9.12502c0 0.57503 0.04583 1.13628 0.10918 1.67718 0.20385 1.7404 1.67029 3.0908 3.42033 3.1544C5.3183 13.9852 6.12696 14 7 14c0.87304 0 1.6817 -0.0148 2.47049 -0.0434 1.75001 -0.0636 3.21651 -1.414 3.42031 -3.1544 0.0634 -0.5409 0.1092 -1.10215 0.1092 -1.67718 0 -0.57503 -0.0458 -1.13628 -0.1092 -1.67716 -0.2038 -1.74042 -1.6703 -3.09076 -3.42031 -3.15438C8.6817 4.26481 7.87304 4.25 7 4.25c-0.7327 0 -1.42006 0.01043 -2.08838 0.03074v-0.43072c0 -0.55802 0.22087 -1.09252 0.61298 -1.4861 0.39199 -0.39347 0.92295 -0.61392 1.47588 -0.61392 0.55294 0 1.0839 0.22045 1.47589 0.61392 0.34107 0.34235 0.89509 0.34339 1.23744 0.00232 0.34239 -0.34106 0.34339 -0.89508 0.00232 -1.23743C8.99646 0.406427 8.01968 0 7.00048 0ZM7 5.5c-0.85856 0 -1.65207 0.01456 -2.42508 0.04266 -1.13473 0.04124 -2.09226 0.92395 -2.22423 2.05061 -0.06 0.51228 -0.10069 1.02175 -0.10069 1.53175 0 0.51001 0.04069 1.01948 0.1007 1.53178 0.13196 1.1266 1.08949 2.0093 2.22422 2.0506 0.77301 0.0281 1.56652 0.0426 2.42508 0.0426s1.65207 -0.0145 2.42508 -0.0426c1.13472 -0.0413 2.09222 -0.924 2.22422 -2.0506 0.06 -0.5123 0.1007 -1.02177 0.1007 -1.53178 0 -0.51 -0.0407 -1.01947 -0.1007 -1.53175 -0.132 -1.12666 -1.0895 -2.00937 -2.22422 -2.05061C8.65207 5.51456 7.85856 5.5 7 5.5Zm0.875 3.03003c0 -0.48325 -0.39175 -0.875 -0.875 -0.875s-0.875 0.39175 -0.875 0.875v1.01994c0 0.48323 0.39175 0.87503 0.875 0.87503s0.875 -0.3918 0.875 -0.87503V8.53003Z" clip-rule="evenodd" stroke-width="1"></path>
  </g>
</svg>