<svg xmlns="http://www.w3.org/2000/svg" fill="none" viewBox="0 0 14 14" id="Page-Setting--Streamline-Flex">
  <desc>
    Page Setting Streamline Icon: https://streamlinehq.com
  </desc>
  <g id="page-setting--page-setting-square-triangle-circle-line-combination-variation">
    <path id="Vector" fill="#7af1ff" d="M3.19952 13.375c1.64769 0 2.57452 -0.9268 2.57452 -2.5745 0 -1.64772 -0.92683 -2.57455 -2.57452 -2.57455S0.625 9.15278 0.625 10.8005c0 1.6477 0.92683 2.5745 2.57452 2.5745Z" stroke-width="1"></path>
    <path id="Vector 2594" fill="#7af1ff" d="M7.99743 4.66481C8.51077 2.96149 9.69348 1.42837 10.4239 0.728224c0.1436 -0.137632 0.3642 -0.137632 0.5078 0 0.7305 0.700146 1.9132 2.233266 2.4265 3.936586 0.054 0.17921 -0.0257 0.37006 -0.1967 0.4462 -0.491 0.21862 -1.3858 0.49539 -2.4837 0.49539 -1.0978 0 -1.99267 -0.27677 -2.48362 -0.49539 -0.17098 -0.07614 -0.25076 -0.26699 -0.19675 -0.4462Z" stroke-width="1"></path>
    <path id="Union" fill="#0c098c" fill-rule="evenodd" d="M9.99144 0.277023c0.38536 -0.369364 0.98746 -0.369364 1.37276 0 0.7859 0.753307 2.0402 2.375097 2.5924 4.207447 0.1384 0.45902 -0.0623 0.98436 -0.5409 1.19749 -0.5587 0.24879 -1.5399 0.54944 -2.7379 0.54944 -1.1979 0 -2.17916 -0.30065 -2.73786 -0.54944 -0.47862 -0.21313 -0.67926 -0.73847 -0.54092 -1.19749 0.55222 -1.83235 1.80652 -3.45414 2.59242 -4.207447Zm0.68636 1.081807c-0.6443 0.67527 -1.55065 1.91173 -2.01246 3.26973 0.45426 0.17043 1.16512 0.35284 2.01246 0.35284 0.8474 0 1.5583 -0.18241 2.0125 -0.35284 -0.4618 -1.358 -1.3681 -2.59446 -2.0125 -3.26973ZM1.57845 0.117605C2.07976 0.0598014 2.63 0 3.19952 0s1.11976 0.0598014 1.62107 0.117605c0.76779 0.088529 1.38105 0.70008 1.46679 1.471005 0.05563 0.50015 0.11166 1.04597 0.11166 1.61091s-0.05603 1.11076 -0.11166 1.61091c-0.08574 0.77092 -0.69899 1.38247 -1.46679 1.471 -0.50131 0.05781 -1.05155 0.11761 -1.62107 0.11761s-1.11976 -0.0598 -1.62107 -0.11761C0.810653 6.1929 0.197393 5.58135 0.111653 4.81043 0.0560282 4.31028 0 3.76446 0 3.19952s0.0560281 -1.11076 0.111653 -1.61091C0.197393 0.817685 0.810653 0.206134 1.57845 0.117605ZM1.25 10.8005c0 -0.7088 0.19742 -1.17433 0.48632 -1.46323 0.2889 -0.2889 0.7544 -0.48632 1.4632 -0.48632 0.7088 0 1.1743 0.19742 1.4632 0.48632 0.2889 0.2889 0.48632 0.75443 0.48632 1.46323s-0.19742 1.1743 -0.48632 1.4632c-0.2889 0.2889 -0.7544 0.4863 -1.4632 0.4863 -0.7088 0 -1.1743 -0.1974 -1.4632 -0.4863 -0.2889 -0.2889 -0.48632 -0.7544 -0.48632 -1.4632Zm1.94952 -3.19955c-0.93889 0 -1.76065 0.266 -2.347087 0.85244C0.265997 9.03982 0 9.86158 0 10.8005c0 0.9389 0.265997 1.7606 0.852433 2.3471C1.43887 13.734 2.26063 14 3.19952 14c0.93889 0 1.76065 -0.266 2.34709 -0.8524 0.58643 -0.5865 0.85243 -1.4082 0.85243 -2.3471 0 -0.93892 -0.266 -1.76068 -0.85243 -2.34711 -0.58644 -0.58644 -1.4082 -0.85244 -2.34709 -0.85244Zm5.40986 0.22717c-0.41422 0 -0.75 0.33579 -0.75 0.75 0 0.41422 0.33578 0.75 0.75 0.75h4.62502c0.4142 0 0.75 -0.33578 0.75 -0.75 0 -0.41421 -0.3358 -0.75 -0.75 -0.75H8.60938Zm0 2.33618c-0.41422 0 -0.75 0.3358 -0.75 0.75s0.33578 0.75 0.75 0.75h4.62502c0.4142 0 0.75 -0.3358 0.75 -0.75s-0.3358 -0.75 -0.75 -0.75H8.60938Zm-0.75 3.0857c0 -0.4142 0.33578 -0.75 0.75 -0.75h4.62502c0.4142 0 0.75 0.3358 0.75 0.75s-0.3358 0.75 -0.75 0.75H8.60938c-0.41422 0 -0.75 -0.3358 -0.75 -0.75Z" clip-rule="evenodd" stroke-width="1"></path>
  </g>
</svg>