<svg xmlns="http://www.w3.org/2000/svg" fill="none" viewBox="0 0 14 14" id="Pen-1--Streamline-Flex">
  <desc>
    Pen 1 Streamline Icon: https://streamlinehq.com
  </desc>
  <g id="pen-1--content-creation-edit-pen-write">
    <path id="Subtract" fill="#ff7972" d="M11.7931 5.68269 8.31889 2.2085c-0.68576 0.63908 -1.37864 1.29742 -2.06467 1.98345C5.15891 5.28726 4.1342 6.4 3.14572 7.47341c-0.06976 0.07576 -0.13934 0.15132 -0.20875 0.22666 -0.59543 0.6463 -0.75059 1.6404 -0.29731 2.39323 0.15653 0.26 0.33219 0.5076 0.5466 0.722 0.2144 0.2144 0.46203 0.3901 0.722 0.5466 0.75285 0.4533 1.74694 0.2981 2.39324 -0.2973 0.07535 -0.0694 0.15092 -0.139 0.22668 -0.2088 1.0734 -0.98844 2.18614 -2.01314 3.28144 -3.10844 0.68608 -0.68604 1.34438 -1.37891 1.98348 -2.06467Z" stroke-width="1"></path>
    <path id="Union" fill="#0c098c" fill-rule="evenodd" d="M8.73263 0.948488C9.92355 -0.137797 11.8895 -0.437655 13.1641 0.836974c1.2747 1.274626 0.9748 3.240576 -0.1115 4.431496 -0.2581 0.28301 -0.5206 0.56889 -0.788 0.85569 -0.0374 0.04012 -0.0796 0.07477 -0.1252 0.10339 -0.6073 0.65008 -1.2346 1.30841 -1.8881 1.96186 -1.1044 1.10442 -2.22503 2.13639 -3.29586 3.12249l-0.00414 0.0038 -0.22657 0.2087c-0.82583 0.7608 -2.12086 0.9861 -3.13911 0.3731l0.31186 -0.518 -0.31186 0.518c-0.08555 -0.0515 -0.17189 -0.1061 -0.25794 -0.1644l-2.04637 2.0464c-0.292897 0.2929 -0.76777 0.2929 -1.060664 0 -0.2928928 -0.2929 -0.2928927 -0.7678 0 -1.0607l2.046624 -2.0466c-0.05787 -0.0855 -0.1121 -0.1714 -0.1633 -0.2564 -0.61308 -1.01823 -0.38775 -2.31327 0.37308 -3.1391l0.20866 -0.22656 0.00384 -0.00416 0.00001 -0.00001 0.00003 -0.00003c0.98609 -1.07081 2.01803 -2.19142 3.12243 -3.29582 0.53514 -0.53513 1.07355 -1.05275 1.60802 -1.55618l-0.19181 -0.19181c-0.51042 -0.51042 -1.33378 -0.5237 -1.8604 -0.03001L3.60334 3.62628c-0.25183 0.23608 -0.64735 0.22331 -0.88343 -0.02851 -0.23608 -0.25183 -0.22331 -0.64735 0.02851 -0.88343l1.7645 -1.65416c1.01882 -0.955105 2.61172 -0.929406 3.5992 0.05807l0.20798 0.20799c0.13804 -0.12698 0.27562 -0.25287 0.41253 -0.377752ZM10.923 5.69735l-2.61891 -2.6189c-0.53716 0.5056 -1.0752 1.02257 -1.60819 1.55556C5.61112 5.71879 4.59492 6.82217 3.60522 7.8969l-0.20885 0.22676c-0.43003 0.46678 -0.51501 1.15994 -0.22152 1.64738 0.14147 0.23496 0.28718 0.43656 0.45309 0.60246s0.36748 0.3116 0.60245 0.4531c0.48744 0.2935 1.18061 0.2085 1.64738 -0.2215l0.22677 -0.2089 0.42338 0.4597 -0.42338 -0.4597c1.07473 -0.9897 2.17811 -2.0059 3.26289 -3.09067 0.53299 -0.53299 1.04997 -1.07102 1.55557 -1.60818Z" clip-rule="evenodd" stroke-width="1"></path>
  </g>
</svg>