<svg xmlns="http://www.w3.org/2000/svg" fill="none" viewBox="0 0 14 14" id="Pictures-Folder-Memories--Streamline-Flex">
  <desc>
    Pictures Folder Memories Streamline Icon: https://streamlinehq.com
  </desc>
  <g id="pictures-folder-memories">
    <path id="Subtract" fill="#ff7972" d="M6.35593 1.56523c-0.13133 -0.37229 -0.47327 -0.630394 -0.8676 -0.64919 -1.41189 -0.067298 -2.265 -0.049117 -3.39904 0.0347 -0.47444 0.035065 -0.85167 0.42763 -0.90596 0.92367C0.85099 4.9111 0.740731 7.95834 1.08693 11.002c0.11748 1.0328 0.92306 1.7835 1.88679 1.8936 2.72129 0.3111 5.40345 0.3031 8.12458 -0.0079 0.9456 -0.108 1.7048 -0.8942 1.8175 -1.8857 0.2167 -1.9048 0.2724 -3.85793 0.1327 -6.26417 -0.0539 -0.92764 -0.7769 -1.67814 -1.7026 -1.75888 -1.3286 -0.11589 -2.24908 -0.12256 -3.87725 -0.15869 -0.40642 -0.00902 -0.76497 -0.26925 -0.9002 -0.65261l-0.21252 -0.60242Z" stroke-width="1"></path>
    <path id="Union" fill="#0c098c" fill-rule="evenodd" d="M5.51808 0.291747C4.08146 0.22327 3.20302 0.241718 2.04322 0.327439 1.23605 0.387096 0.645474 1.04408 0.562042 1.80641 0.226546 4.8719 0.11284 7.96837 0.465937 11.0726c0.151474 1.3317 1.193863 2.3019 2.436813 2.444 1.03862 0.1187 2.07164 0.1918 3.10312 0.22 1.22925 0.0337 2.45632 0.0037 3.68808 -0.0883m0.34785 -1.2823c-0.35447 -0.7899 -0.8202 -1.6984 -1.37901 -2.54318 -0.49076 -0.74189 -1.08203 -1.47877 -1.76908 -2.04044 -0.68594 -0.56077 -1.54496 -1.00824 -2.54159 -1.00824 -0.99664 0 -1.85566 0.44747 -2.5416 1.00824 -0.10189 0.0833 -0.2016 0.17039 -0.29912 0.2607 -0.05085 -2.02797 0.07011 -4.06205 0.29322 -6.10068 0.02515 -0.22974 0.18903 -0.35789 0.33073 -0.36836 1.10829 -0.08191 1.93607 -0.09983 3.32322 -0.03371 0.13655 0.00651 0.25986 0.09646 0.30796 0.23282l0.21251 0.60242c0.22154 0.62801 0.80892 1.05474 1.47574 1.06953 0.20655 0.00459 0.40132 0.0087 0.5866 0.0126 1.28284 0.02706 2.11112 0.04452 3.25022 0.14389 0.6139 0.05354 1.0969 0.55189 1.133 1.17248 0.1379 2.37462 0.0824 4.29177 -0.1298 6.15723 -0.082 0.7216 -0.6296 1.2626 -1.2675 1.3355 -0.3291 0.0376 -0.6575 0.0707 -0.9855 0.0992Zm-0.34632 1.2821c0.49032 -0.0366 0.98152 -0.0832 1.47372 -0.1394 1.2535 -0.1433 2.2241 -1.1745 2.3676 -2.4361 0.2212 -1.94404 0.2772 -3.93316 0.1356 -6.371 -0.0717 -1.23469 -1.0347 -2.23734 -2.2722 -2.34529 -1.1825 -0.10314 -2.05268 -0.12144 -3.33357 -0.14838 -0.18538 -0.00389 -0.37935 -0.00797 -0.58412 -0.01252 -0.14602 -0.00324 -0.27573 -0.09697 -0.32466 -0.23568l-0.21252 -0.60242C6.73077 0.749086 6.17019 0.322831 5.51808 0.291747M8.2488 4.94305c0.33495 -0.33496 0.79502 -0.47671 1.29352 -0.47671 0.49848 0 0.95858 0.14175 1.29348 0.47671 0.335 0.33495 0.4768 0.79501 0.4768 1.29352s-0.1418 0.95857 -0.4768 1.29352c-0.3349 0.33496 -0.795 0.47671 -1.29348 0.47671 -0.4985 0 -0.95857 -0.14175 -1.29352 -0.47671 -0.33495 -0.33495 -0.47671 -0.79501 -0.47671 -1.29352s0.14176 -0.95857 0.47671 -1.29352Z" clip-rule="evenodd" stroke-width="1"></path>
  </g>
</svg>