<svg xmlns="http://www.w3.org/2000/svg" fill="none" viewBox="0 0 14 14" id="Recycle-Bin-3--Streamline-Flex">
  <desc>
    Recycle Bin 3 Streamline Icon: https://streamlinehq.com
  </desc>
  <g id="recycle-bin-3--remove-delete-empty-bin-trash-garbage">
    <path id="Subtract" fill="#ff7972" d="M3.00859 11.9744C2.04305 8.80731 1.79824 4.61531 1.78076 1.16285c0 0 3.1779 -0.287855 5.21924 -0.28785 2.04097 0.000005 5.2183 0.28777 5.2183 0.28777 -0.0175 3.45256 -0.2622 7.64492 -1.2278 10.81223 -0.195 0.6394 -0.7485 1.0965 -1.40949 1.1959 -1.81086 0.2723 -3.35217 0.272 -5.16299 -0.0005 -0.66102 -0.0995 -1.2145 -0.5565 -1.40943 -1.196Z" stroke-width="1"></path>
    <path id="Union" fill="#0c098c" fill-rule="evenodd" d="M12.8323 2.14627c0.0576 0.00775 0.1152 0.01561 0.1728 0.02359 0.4787 0.06628 0.9205 -0.26805 0.9867 -0.74673 0.0663 -0.478682 -0.268 -0.920458 -0.7467 -0.986734 -4.20257 -0.581861 -8.28742 -0.581861 -12.489995 0 -0.478683 0.066276 -0.8130057 0.508052 -0.74673038 0.986734 0.06627528 0.47868 0.50805138 0.81301 0.98673438 0.74673 0.057311 -0.00793 0.114601 -0.01576 0.171861 -0.02347 0.05796 3.26229 0.34204 7.0521 1.24389 10.01031 0.26865 0.8812 1.02706 1.4982 1.91426 1.6318 1.87239 0.2817 3.47638 0.2821 5.34894 0.0005 0.88724 -0.1334 1.64564 -0.7505 1.91434 -1.6317 0.9019 -2.95844 1.186 -6.7486 1.2439 -10.01103Zm-1.2477 -0.15053c-1.285 -0.13696 -2.56063 -0.21667 -3.83474 -0.23913v4.4245c1.21186 -0.01574 2.42454 -0.06878 3.64234 -0.15911 0.1151 -1.35766 0.1716 -2.72787 0.1924 -4.02626Zm-5.33474 -0.23912c-1.27425 0.02248 -2.55004 0.10222 -3.83523 0.23922 0.02086 1.29919 0.07748 2.67026 0.19272 4.02869 1.21776 0.08964 2.43055 0.14198 3.64251 0.15702V1.75662Zm1.5 5.92462c1.16057 -0.01471 2.32184 -0.06277 3.48724 -0.14419 -0.184 1.51652 -0.4543 2.97615 -0.8444 4.25575 -0.1212 0.3976 -0.46974 0.6947 -0.90452 0.7601 -0.60429 0.0909 -1.17629 0.1503 -1.73832 0.1783V7.68124Zm-4.98735 -0.1418c1.16537 0.08077 2.32671 0.12818 3.48735 0.14222v5.04944c-0.56215 -0.0282 -1.13428 -0.0878 -1.73873 -0.1787 -0.43484 -0.0655 -0.78338 -0.3626 -0.9046 -0.7602 -0.38983 -1.2787 -0.66007 -2.73731 -0.84402 -4.25276Z" clip-rule="evenodd" stroke-width="1"></path>
  </g>
</svg>