<svg xmlns="http://www.w3.org/2000/svg" fill="none" viewBox="0 0 14 14" id="Rotate-Left--Streamline-Flex">
  <desc>
    Rotate Left Streamline Icon: https://streamlinehq.com
  </desc>
  <g id="line-arrow-rotate-left-2">
    <path id="Union" fill="#7af1ff" fill-rule="evenodd" d="M7.57642 0.577393C11.1235 0.577393 13.999 3.45289 13.999 7c0 3.5471 -2.8755 6.4226 -6.42258 6.4226 -3.54711 0 -6.42261 -2.8755 -6.42261 -6.4226 0 -3.54711 2.8755 -6.422607 6.42261 -6.422607Z" clip-rule="evenodd" stroke-width="1"></path>
    <path id="Union_2" fill="#0c098c" fill-rule="evenodd" d="M12.7491 7c0 -2.85675 -2.3158 -5.17261 -5.17259 -5.17261 -2.28578 0 -4.22623 1.48315 -4.90978 3.53973 0.9862 0.01027 1.84665 -0.34499 2.61366 -1.07569 0.24992 -0.23809 0.64553 -0.2285 0.88362 0.02143 0.23809 0.24992 0.2285 0.64553 -0.02142 0.88362 -1.1973 1.14062 -2.63483 1.59914 -4.25705 1.35854 -0.04042 0.00048 -0.08148 -0.00297 -0.12274 -0.01067 -0.16091 -0.03003 -0.29584 -0.11922 -0.38648 -0.2409C0.242578 5.08755 -0.194952 3.62727 0.0812848 1.97988c0.0570832 -0.34042 0.3793272 -0.57011 0.7197532 -0.51303 0.340422 0.05708 0.570122 0.37933 0.513032 0.71975 -0.14624 0.87213 -0.03933 1.65154 0.3265 2.35702C2.60515 2.21527 4.89907 0.577393 7.57651 0.577393 11.1236 0.577393 13.9991 3.45289 13.9991 7c0 3.5471 -2.8755 6.4226 -6.42259 6.4226 -2.72416 0 -5.05071 -1.6958 -5.98457 -4.08702 -0.12556 -0.32153 0.0333 -0.68397 0.35483 -0.80954 0.32153 -0.12556 0.68397 0.0333 0.80953 0.35482 0.75287 1.92784 2.62802 3.29174 4.82021 3.29174 2.85679 0 5.17259 -2.31585 5.17259 -5.1726Z" clip-rule="evenodd" stroke-width="1"></path>
  </g>
</svg>