<svg xmlns="http://www.w3.org/2000/svg" fill="none" viewBox="0 0 14 14" id="Screwdriver-Wrench--Streamline-Flex">
  <desc>
    Screwdriver Wrench Streamline Icon: https://streamlinehq.com
  </desc>
  <g id="screwdriver-wrench--tools-construction-tools-wrench-screwdriver-preferences-setting-edit-adjust">
    <path id="Subtract" fill="#ff7972" fill-rule="evenodd" d="M6.70535 2.18669c0.25933 -0.36029 0.63233 -0.64277 1.12086 -0.8347 -0.00284 0.21144 -0.00927 0.4249 -0.01557 0.63321l-0.00009 0.00297c-0.0052 0.17201 -0.01034 0.34202 -0.01281 0.49806 -0.00664 0.41957 0.00276 0.82017 0.07545 1.16602 0.0734 0.34925 0.21569 0.66369 0.49054 0.88734 0.27442 0.2233 0.64963 0.33061 1.1371 0.33061 0.48743 0 0.86267 -0.1073 1.13717 -0.33061 0.2748 -0.22364 0.4171 -0.53809 0.4905 -0.88734 0.0727 -0.34584 0.0821 -0.74644 0.0755 -1.16602 -0.0025 -0.1561 -0.0077 -0.32614 -0.0129 -0.49823l0 -0.0028c-0.0063 -0.20831 -0.0128 -0.42176 -0.0156 -0.63321 0.4885 0.19193 0.8615 0.47442 1.1208 0.83471 0.2936 0.40791 0.4537 0.93249 0.4537 1.57604 0 0.62424 -0.1506 1.13644 -0.4273 1.53866 -0.2472 0.35919 -0.6024 0.64196 -1.0668 0.83922 -0.2423 0.1029 -0.3942 0.34658 -0.3798 0.60942 0.03 0.54786 0.0554 1.60776 0.0554 2.19213 0 1.25293 -0.0259 1.69653 -0.057 2.22823l-0.0102 0.176c-0.0395 0.6927 -0.5397 1.3164 -1.12332 1.3818 -0.14958 0.0168 -0.33159 0.0167 -0.48027 0 -0.58366 -0.0654 -1.0838 -0.6891 -1.12328 -1.3818l-0.01021 -0.176c-0.03111 -0.5317 -0.05706 -0.9753 -0.05706 -2.22823 0 -0.58437 0.02541 -1.64427 0.0554 -2.19213 0.01439 -0.26284 -0.13746 -0.50652 -0.37975 -0.60943 -0.46445 -0.19726 -0.81964 -0.48002 -1.06677 -0.83922 -0.27672 -0.40221 -0.42733 -0.91441 -0.42733 -1.53865 0 -0.64355 0.16005 -1.16813 0.45364 -1.57605Z" clip-rule="evenodd" stroke-width="1"></path>
    <path id="Union" fill="#0c098c" fill-rule="evenodd" d="M1.99822 0.0102515c0.26195 -0.01368681 0.49499 -0.01366685 0.75692 0.0000491C3.56071 0.0524848 4.17722 0.7098 4.20912 1.49369c0.01756 0.43171 0.02138 0.85506 0.01142 1.28344 -0.0169 0.72672 -0.44768 1.39058 -1.09383 1.68617l0 3.02105c0.03919 0.00268 0.07852 0.00557 0.118 0.00866 0.80096 0.06279 1.37504 0.72136 1.42943 1.46831 0.03942 0.54141 0.0797 1.12278 0.0797 1.72188 0 0.3092 -0.01068 0.6122 -0.02635 0.907 -0.06233 1.1724 -0.9699 2.3994 -2.32018 2.4097L2.37692 14l-0.03039 -0.0001C0.996252 13.9896 0.0886766 12.7626 0.0263523 11.5902 0.0106827 11.2954 0 10.9924 0 10.6832c0 -0.5991 0.0402768 -1.18047 0.0797019 -1.72188C0.134094 8.21437 0.708175 7.5558 1.50913 7.49301c0.03934 -0.00308 0.07853 -0.00596 0.11758 -0.00863l0 -3.02102C0.980483 4.1678 0.549646 3.5039 0.532746 2.77713c-0.009962 -0.42841 -0.006142 -0.8518 0.011422 -1.28353C0.576059 0.70973 1.19257 0.0523466 1.99822 0.0102515Zm5.64214 0.0813703C8.37895 -0.147294 9.07773 0.422302 9.07773 1.13852c0 0.30046 -0.00923 0.60565 -0.01753 0.88012v0.00001l-0.00013 0.00431c-0.0053 0.17527 -0.01017 0.33682 -0.01249 0.48304 -0.00648 0.40996 0.00706 0.69018 0.04888 0.88912 0.01956 0.09309 0.04021 0.14222 0.05208 0.16471 0.00264 0.00501 0.00477 0.00856 0.0063 0.01095 0.02372 0.01233 0.11593 0.04941 0.34598 0.04941 0.23008 0 0.32231 -0.03708 0.34603 -0.04941 0.00154 -0.00239 0.00366 -0.00594 0.00631 -0.01095 0.01186 -0.02249 0.03251 -0.07162 0.05208 -0.1647 0.04181 -0.19895 0.05536 -0.47917 0.04887 -0.88912 -0.00232 -0.14623 -0.00719 -0.30778 -0.01249 -0.48304l-0.00013 -0.00436v-0.00002c-0.0083 -0.27446 -0.01752 -0.57962 -0.01753 -0.88007 0 -0.716215 0.69874 -1.285811 1.43734 -1.046895 0.7956 0.257359 1.4749 0.705311 1.9496 1.364845 0.474 0.65857 0.6891 1.45163 0.6891 2.30626 0 0.82843 -0.202 1.59961 -0.6475 2.24716 -0.3146 0.45727 -0.727 0.8182 -1.2095 1.08683 0.0223 0.58879 0.0385 1.36785 0.0385 1.84544 0 1.28764 -0.0273 1.75474 -0.0592 2.30114l-0.0101 0.1743c-0.063 1.1051 -0.8665 2.3997 -2.23193 2.5528 -0.2424 0.0272 -0.51786 0.0271 -0.75885 0 -1.36546 -0.1531 -2.16898 -1.4477 -2.23197 -2.5528l-0.01009 -0.1743c-0.03192 -0.5464 -0.0592 -1.0135 -0.0592 -2.30115 0 -0.47758 0.0162 -1.25664 0.03858 -1.84544 -0.48254 -0.26863 -0.89492 -0.62956 -1.20951 -1.08682 -0.44552 -0.64756 -0.64752 -1.41874 -0.64752 -2.24717 0 -0.85462 0.2151 -1.64768 0.68911 -2.30625C6.16552 0.796934 6.84475 0.348981 7.64036 0.0916218ZM7.82621 1.35199c-0.48853 0.19193 -0.86153 0.47441 -1.12086 0.8347 -0.29359 0.40792 -0.45364 0.9325 -0.45364 1.57605 0 0.62424 0.15061 1.13644 0.42733 1.53865 0.24713 0.3592 0.60232 0.64196 1.06677 0.83922 0.24229 0.10291 0.39414 0.34659 0.37975 0.60943 -0.02999 0.54786 -0.0554 1.60776 -0.0554 2.19213 0 1.25293 0.02595 1.69653 0.05706 2.22823l0.01021 0.176c0.03948 0.6927 0.53962 1.3164 1.12328 1.3818 0.14868 0.0167 0.33069 0.0168 0.48027 0 0.58362 -0.0654 1.08382 -0.6891 1.12332 -1.3818l0.0102 -0.176c0.0311 -0.5317 0.057 -0.9753 0.057 -2.22823 0 -0.58437 -0.0254 -1.64427 -0.0554 -2.19213 -0.0144 -0.26284 0.1375 -0.50652 0.3798 -0.60942 0.4644 -0.19726 0.8196 -0.48003 1.0668 -0.83922 0.2767 -0.40222 0.4273 -0.91442 0.4273 -1.53866 0 -0.64355 -0.1601 -1.16813 -0.4537 -1.57604 -0.2593 -0.36029 -0.6323 -0.64278 -1.1208 -0.83471 0.0028 0.21145 0.0093 0.4249 0.0156 0.63321l0 0.0028c0.0052 0.17209 0.0104 0.34213 0.0129 0.49823 0.0066 0.41958 -0.0028 0.82017 -0.0755 1.16602 -0.0734 0.34925 -0.2157 0.6637 -0.4905 0.88734 -0.2745 0.22331 -0.64974 0.33061 -1.13717 0.33061 -0.48747 0 -0.86268 -0.10731 -1.1371 -0.33061 -0.27485 -0.22365 -0.41714 -0.53809 -0.49054 -0.88734 -0.07269 -0.34585 -0.08209 -0.74645 -0.07545 -1.16602 0.00247 -0.15602 0.00761 -0.32598 0.01281 -0.49797l0 -0.00005 0 -0.00004 0.00009 -0.00297c0.0063 -0.20831 0.01273 -0.42177 0.01557 -0.63321Z" clip-rule="evenodd" stroke-width="1"></path>
  </g>
</svg>