<svg xmlns="http://www.w3.org/2000/svg" fill="none" viewBox="0 0 14 14" id="Shield-1--Streamline-Flex">
  <desc>
    Shield 1 Streamline Icon: https://streamlinehq.com
  </desc>
  <g id="shield-1--shield-protection-security-defend-crime-war-cover">
    <path id="Vector 108" fill="#ff7972" d="M0.625 6.73588C0.625 2.84714 2.21873 1.18053 2.74998 0.625h8.49992c0.5312 0.55553 2.125 2.22214 2.125 6.11088 0 4.44432 -4.18588 6.08342 -6.31086 6.63902C4.93907 12.8193 0.625 11.1802 0.625 6.73588Z" stroke-width="1"></path>
    <path id="Union" fill="#0c098c" fill-rule="evenodd" d="M2.74998 0c-0.17061 0 -0.3338 0.0697419 -0.45171 0.193044 -0.28146 0.294337 -0.86641 0.906536 -1.373858 1.967836C0.41752 3.22102 0 4.70248 0 6.73588c0 2.46014 1.2072 4.14972 2.6664 5.27302 1.44058 1.109 3.14352 1.6841 4.23956 1.9707 0.10365 0.0271 0.21252 0.0271 0.31617 0 1.09896 -0.2873 2.77169 -0.8636 4.18127 -1.9752 1.4288 -1.1269 2.5965 -2.81603 2.5965 -5.26852 0 -2.0334 -0.4175 -3.51486 -0.9244 -4.575 -0.5075 -1.0613 -1.0924 -1.673499 -1.3739 -1.967836C11.5837 0.0697419 11.4205 0 11.2499 0H2.74998Zm-0.69785 2.70009c0.33522 -0.70108 0.7053 -1.16001 0.96859 -1.45009h7.95848c0.2632 0.29008 0.6333 0.74901 0.9685 1.45009 0.4228 0.88424 0.8022 2.18045 0.8022 4.03579 0 1.99179 -0.9253 3.34432 -2.1206 4.28702 -1.15363 0.9098 -2.54906 1.4256 -3.56538 1.7049 -1.02199 -0.28 -2.44981 -0.797 -3.63501 -1.7094C2.19984 10.0722 1.25 8.72002 1.25 6.73588c0 -1.85534 0.37935 -3.15155 0.80213 -4.03579Z" clip-rule="evenodd" stroke-width="1"></path>
  </g>
</svg>