<svg xmlns="http://www.w3.org/2000/svg" fill="none" viewBox="0 0 14 14" id="Show-Layer--Streamline-Flex">
  <desc>
    Show Layer Streamline Icon: https://streamlinehq.com
  </desc>
  <g id="show-layer--show-layer-work">
    <path id="Intersect" fill="#79ee8d" d="M6.85267 3.46593c0.94807 0.13591 1.67977 0.93567 1.75762 1.89027 0.07945 0.97424 0.15527 1.97945 0.15527 3.00711s-0.07582 2.03289 -0.15527 3.00709c-0.07785 0.9546 -0.80955 1.7544 -1.75762 1.8903 -0.5395 0.0773 -1.09126 0.1378 -1.65251 0.1378s-1.11301 -0.0605 -1.6525 -0.1378c-0.94808 -0.1359 -1.67978 -0.9357 -1.75763 -1.8903 -0.07945 -0.9742 -0.15526 -1.97943 -0.15526 -3.00709 0 -1.02766 0.07581 -2.03287 0.15526 -3.00711 0.07785 -0.9546 0.80955 -1.75436 1.75763 -1.89027 0.53949 -0.07734 1.09125 -0.13781 1.6525 -0.13781s1.11301 0.06047 1.65251 0.13781Z" stroke-width="1"></path>
    <path id="Union" fill="#0c098c" fill-rule="evenodd" d="m5.19005 1.42969 -0.03673 0.00007C5.5578 0.754087 6.24786 0.261699 7.068 0.144131 7.61956 0.0650622 8.2048 0 8.80919 0s1.18963 0.0650622 1.74121 0.144131c1.2455 0.178547 2.191 1.221549 2.2919 2.458139 0.0794 0.97425 0.1573 2.00216 0.1573 3.05791 0 1.05576 -0.0779 2.08367 -0.1573 3.05791 -0.1009 1.2366 -1.0464 2.27961 -2.2919 2.45811l-0.056 0.008c0.0706 -0.8886 0.136 -1.85105 0.136 -2.84433 0 -1.11192 -0.082 -2.18521 -0.1614 -3.15951 -0.1468 -1.79975 -1.5192 -3.32995 -3.36038 -3.59389 -0.57578 -0.08254 -1.22795 -0.15678 -1.91857 -0.15678ZM2.4032 5.38356c-0.07945 0.97425 -0.1532 1.95675 -0.1532 2.95631 0 0.99956 0.07375 1.98203 0.1532 2.95633 0.05485 0.6726 0.57274 1.2291 1.22338 1.3224 0.52742 0.0756 1.0457 0.1315 1.56381 0.1315 0.51812 0 1.0364 -0.0559 1.56382 -0.1315 0.65065 -0.0933 1.16853 -0.6498 1.22338 -1.3224 0.07945 -0.9743 0.1532 -1.95677 0.1532 -2.95633s-0.07375 -1.98206 -0.1532 -2.95631c-0.05485 -0.6726 -0.57273 -1.22912 -1.22338 -1.32239 -0.52742 -0.07561 -1.0457 -0.13148 -1.56382 -0.13148 -0.51811 0 -1.03639 0.05587 -1.56381 0.13148 -0.65064 0.09327 -1.16853 0.64979 -1.22338 1.32239ZM1 8.33987c0 -1.05575 0.07789 -2.08366 0.15733 -3.05791 0.10085 -1.23659 1.04637 -2.27959 2.29187 -2.45814 0.55157 -0.07907 1.13681 -0.14413 1.74119 -0.14413 0.60439 0 1.18963 0.06506 1.7412 0.14413 1.2455 0.17855 2.19102 1.22155 2.29187 2.45814 0.07945 0.97425 0.15733 2.00215 0.15733 3.05791 0 1.05576 -0.07788 2.08363 -0.15733 3.05793 -0.10085 1.2366 -1.04636 2.2796 -2.29187 2.4581 -0.55157 0.0791 -1.13681 0.1442 -1.74119 0.1442 -0.60439 0 -1.18963 -0.0651 -1.7412 -0.1442 -1.2455 -0.1785 -2.19102 -1.2215 -2.29186 -2.4581C1.07789 10.4235 1 9.39563 1 8.33987Z" clip-rule="evenodd" stroke-width="1"></path>
  </g>
</svg>