<svg xmlns="http://www.w3.org/2000/svg" fill="none" viewBox="0 0 14 14" id="Story-Post--Streamline-Flex">
  <desc>
    Story Post Streamline Icon: https://streamlinehq.com
  </desc>
  <g id="story-post">
    <path id="Union" fill="#7af1ff" fill-rule="evenodd" d="M7 0C4.84496 0 3.07308 0.60804 1.84056 1.84056S0 4.84496 0 7s0.60804 3.9269 1.84056 5.1594C3.07308 13.392 4.84496 14 7 14s3.9269 -0.608 5.1594 -1.8406C13.392 10.9269 14 9.15504 14 7c0 -2.15504 -0.608 -3.92692 -1.8406 -5.15944C10.9269 0.60804 9.15504 0 7 0Z" clip-rule="evenodd" stroke-width="1"></path>
    <path id="Union_2" fill="#0c098c" fill-rule="evenodd" d="M6.52578 0.554286c0.03906 0.342961 -0.20731 0.652644 -0.55027 0.691704 -0.73545 0.08375 -1.37961 0.25972 -1.93419 0.51581 -0.31338 0.14472 -0.68473 0.00798 -0.82945 -0.30539 -0.14471 -0.31338 -0.00798 -0.68474 0.3054 -0.829451C4.20896 0.307552 4.98504 0.100697 5.83408 0.0040133c0.34296 -0.0390545 0.65265 0.2073107 0.6917 0.5502727ZM7.86651 0.57823c0.05509 -0.340754 0.37599 -0.57233003 0.71674 -0.5172403C10.2858 0.336249 11.6607 1.08331 12.6029 2.29061c0.937 1.20078 1.3974 2.79417 1.3974 4.67923 0 2.16384 -0.6076 3.94286 -1.8395 5.18056 -1.2324 1.2382 -3.00471 1.8494 -5.16058 1.8494 -2.45663 0 -4.41147 -0.7953 -5.63359 -2.3908 -0.2099 -0.274 -0.15792 -0.6663 0.1161 -0.8762 0.27402 -0.2099 0.66632 -0.1579 0.87622 0.1161 0.92131 1.2027 2.45408 1.9009 4.64127 1.9009 1.92418 0 3.33948 -0.5417 4.27458 -1.4812 0.9356 -0.9399 1.4755 -2.36342 1.4755 -4.29876 0 -1.68742 -0.4112 -2.98543 -1.1329 -3.91021 -0.7166 -0.91824 -1.78758 -1.53088 -3.23365 -1.76466 -0.34075 -0.05509 -0.57233 -0.375987 -0.51724 -0.71674ZM0.625 6.34521c0.345178 0 0.625 0.27983 0.625 0.625 0 0.71082 0.07316 1.35366 0.21187 1.92828 0.081 0.33554 -0.12535 0.67321 -0.46089 0.7542 -0.335538 0.081 -0.673209 -0.12535 -0.754206 -0.46089C0.0818275 8.50849 0 7.76592 0 6.97021c0 -0.34517 0.279822 -0.625 0.625 -0.625Zm1.74827 -3.27258c0.21136 -0.2729 0.16146 -0.66547 -0.11144 -0.87683 -0.2729 -0.21135 -0.66547 -0.16146 -0.87683 0.11145C0.885876 2.95172 0.522063 3.71071 0.293165 4.56717c-0.089124 0.33347 0.10896 0.67606 0.442434 0.76518 0.333471 0.08912 0.676061 -0.10896 0.765181 -0.44243 0.19081 -0.71395 0.48611 -1.31838 0.87249 -1.81729ZM7.75035 4.5c0 -0.41421 -0.33578 -0.75 -0.75 -0.75 -0.41421 0 -0.75 0.33579 -0.75 0.75v1.74987l-1.74986 -0.00001c-0.41422 0 -0.75 0.33579 -0.75 0.75 0 0.41422 0.33578 0.75 0.75 0.75h1.74986v1.74987c0 0.41421 0.33579 0.74997 0.75 0.74997 0.41422 0 0.75 -0.33576 0.75 -0.74997V7.74987h1.74987c0.41421 0 0.74998 -0.33579 0.74998 -0.75 0 -0.41422 -0.33577 -0.75 -0.74998 -0.75H7.75035V4.5Z" clip-rule="evenodd" stroke-width="1"></path>
  </g>
</svg>