<svg xmlns="http://www.w3.org/2000/svg" fill="none" viewBox="0 0 14 14" id="Text-Style--Streamline-Flex">
  <desc>
    Text Style Streamline Icon: https://streamlinehq.com
  </desc>
  <g id="text-style--text-style-formatting-format">
    <path id="Union" fill="#79ee8d" fill-rule="evenodd" d="M6.99992 0.00201416c-1.19309 0 -2.357 0.10863184 -3.47319 0.23392884l0 -0.000003 -0.00157 0.000182C2.68172 0.333505 1.89615 0.713763 1.29655 1.31489 0.696944 1.91602 0.318682 2.70255 0.223441 3.54624l-0.000008 0 -0.000292 0.00272C0.104082 4.65809 0.00195312 5.8146 0.00195312 6.99998c0 1.1854 0.10213188 2.34088 0.22118288 3.45102l0.000305 0.0027c0.095241 0.8437 0.473503 1.6303 1.073109 2.2314 0.5996 0.6011 1.38517 0.9814 2.22861 1.0787l0.00163 0.0002c1.11715 0.1253 2.28003 0.234 3.47313 0.234 1.1931 0 2.357 -0.1087 3.47318 -0.234l0.0016 -0.0002c0.8434 -0.0973 1.629 -0.4776 2.2286 -1.0787 0.5996 -0.6011 0.9779 -1.3877 1.0731 -2.2314l0.0003 -0.0027c0.1191 -1.11015 0.2212 -2.26666 0.2212 -3.45102 0 -1.18435 -0.1021 -2.34086 -0.2212 -3.45196l-0.0003 -0.00282c-0.0952 -0.84369 -0.4735 -1.63022 -1.0731 -2.23135 -0.5996 -0.601126 -1.3852 -0.981384 -2.2286 -1.078774l-0.0026 -0.000281C9.35615 0.111723 8.1931 0.00201416 6.99992 0.00201416Z" clip-rule="evenodd" stroke-width="1"></path>
    <path id="Union_2" fill="#0c098c" fill-rule="evenodd" d="M10.3625 2.83372c-0.92183 -0.14883 -1.83076 -0.23716 -2.73728 -0.26498l0 8.71676c0.45799 0.0262 0.91796 0.0813 1.38423 0.1653 0.33972 0.0611 0.56553 0.3861 0.50437 0.7258 -0.06116 0.3397 -0.38613 0.5656 -0.72585 0.5044 -1.2107 -0.218 -2.36445 -0.218 -3.57516 0 -0.33971 0.0612 -0.66469 -0.1647 -0.72585 -0.5044 -0.06116 -0.3397 0.16466 -0.6647 0.50437 -0.7258 0.46616 -0.084 0.92601 -0.139 1.38389 -0.1653l0 -8.71676c-0.90652 0.02782 -1.81545 0.11615 -2.73729 0.26498 -0.15576 0.02515 -0.28393 0.16584 -0.28393 0.35036v1.22065c0 0.34517 -0.27982 0.625 -0.625 0.625 -0.34517 0 -0.625 -0.27983 -0.625 -0.625V3.18408c0 -0.77104 0.54711 -1.45722 1.33469 -1.58438 2.39953 -0.38741 4.72353 -0.38741 7.12301 0 0.7876 0.12716 1.3347 0.81334 1.3347 1.58438v1.22065c0 0.34517 -0.2798 0.625 -0.625 0.625 -0.3451 0 -0.625 -0.27983 -0.625 -0.625V3.18408c0 -0.18452 -0.1281 -0.32521 -0.2839 -0.35036Z" clip-rule="evenodd" stroke-width="1"></path>
  </g>
</svg>