<svg xmlns="http://www.w3.org/2000/svg" fill="none" viewBox="0 0 48 48" id="Baseball--Streamline-Kameleon">
  <desc>
    Baseball Streamline Icon: https://streamlinehq.com
  </desc>
  <path fill="#deeeff" d="M23.9999 47.9993c13.2548 0 23.9998 -10.7451 23.9998 -23.9999S37.2547 -0.000488281 23.9999 -0.000488281C10.7451 -0.000488281 0 10.7446 0 23.9994c0 13.2548 10.7451 23.9999 23.9999 23.9999Z" stroke-width="1"></path>
  <path fill="#2e3ecd" d="M23.987 37.9625c7.7119 0 13.9636 -6.2517 13.9636 -13.9635 0 -7.7119 -6.2517 -13.9636 -13.9636 -13.9636S10.0234 16.2871 10.0234 23.999c0 7.7118 6.2517 13.9635 13.9636 13.9635Z" stroke-width="1"></path>
  <path fill="#6bafff" d="M35.3318 23.5626c-0.5612 0 -1.1127 0.0419 -1.6529 0.1183 -0.0563 -0.0585 -1.4937 -1.2716 -1.5561 -1.3239 -0.1837 -0.1558 -0.4591 -0.1327 -0.6148 0.051 -0.1558 0.1837 -0.1327 0.4591 0.051 0.6148l1.0237 0.8671c-1.3392 0.3212 -2.5898 0.871 -3.7086 1.6071l-1.687 -0.5995c-0.2273 -0.0812 -0.4765 0.0379 -0.5572 0.2648 -0.0807 0.2274 0.0379 0.4765 0.2648 0.5573l1.1224 0.3988c-1.0024 0.7959 -1.8716 1.7511 -2.5706 2.8276l-1.7869 -0.1453c-0.2405 -0.0192 -0.4508 0.1593 -0.4704 0.3997 -0.0197 0.2405 0.1592 0.4508 0.3997 0.4704l1.3606 0.1104c-0.6384 1.1865 -1.0779 2.4947 -1.2773 3.8801l-1.6359 0.7929c-0.2169 0.1052 -0.3076 0.3661 -0.2025 0.583 0.1052 0.2169 0.3661 0.3076 0.583 0.2025l1.1533 -0.559c-0.0126 0.2195 -0.0201 0.4407 -0.0201 0.6637 0 0.8989 0.1004 1.776 0.2968 2.6182h0.1396c0.2487 0 0.5018 -0.0044 0.7505 -0.0219 -0.205 -0.8334 -0.3141 -1.7018 -0.3141 -2.5963 0 -0.2165 0.0078 -0.4307 0.0205 -0.6437l1.0643 0.5817c0.2133 0.1165 0.4778 0.0358 0.5921 -0.1737 0.1156 -0.2116 0.0375 -0.4765 -0.1737 -0.5921l-1.3867 -0.7575c0.1793 -1.2262 0.5637 -2.3856 1.1162 -3.4442l0.5742 0.9622c0.1244 0.2085 0.3928 0.274 0.5983 0.1509 0.2068 -0.1235 0.2745 -0.3914 0.151 -0.5982l-0.8221 -1.3767c0.6785 -1.053 1.5325 -1.982 2.5213 -2.7456l0.3552 1.2445c0.0663 0.2321 0.308 0.3657 0.5393 0.2998 0.2317 -0.0664 0.3661 -0.3077 0.2998 -0.5394l-0.439 -1.5382c1.0377 -0.6693 2.1949 -1.1668 3.4333 -1.4539l-0.0951 1.1472c-0.0201 0.24 0.1584 0.4512 0.3988 0.4708 0.2356 0.0205 0.4508 -0.1549 0.4708 -0.3988l0.1152 -1.3881c0.5149 -0.0755 1.0403 -0.1161 1.5753 -0.1161 0.8945 0 1.7629 0.1091 2.5964 0.3142 0.0218 -0.3124 0.0218 -0.586 0.0218 -0.8901 -0.8422 -0.1964 -1.7193 -0.2968 -2.6182 -0.2968Z" stroke-width="1"></path>
  <path fill="#6bafff" d="M26.1244 12.9612c-0.1052 -0.2169 -0.3661 -0.3076 -0.583 -0.2025l-1.1494 0.5573c0.0123 -0.2191 0.0197 -0.4399 0.0197 -0.6624 0 -0.8989 -0.1039 -1.776 -0.3007 -2.6182 -0.305 0 -0.5781 0 -0.8901 0.0218 0.205 0.8335 0.3141 1.7018 0.3141 2.5964 0 0.2164 -0.0078 0.4307 -0.0205 0.6436l-1.0643 -0.5817c-0.2116 -0.1152 -0.4765 -0.0375 -0.5921 0.1737 -0.1156 0.2116 -0.0375 0.4765 0.1737 0.5921l1.3867 0.7576c-0.1793 1.2261 -0.5638 2.3856 -1.1162 3.4442l-0.5742 -0.9622c-0.1235 -0.2068 -0.391 -0.2749 -0.5983 -0.151 -0.2068 0.1235 -0.2745 0.3914 -0.151 0.5983l0.8221 1.3767c-0.6785 1.0529 -1.5325 1.9819 -2.5213 2.7456l-0.3552 -1.2437c-0.0663 -0.2317 -0.308 -0.3661 -0.5393 -0.2997 -0.2317 0.0663 -0.3661 0.3076 -0.2998 0.5393l0.439 1.5382c-1.0377 0.6694 -2.1949 1.1672 -3.4333 1.4539l0.0951 -1.1472c0.0201 -0.24 -0.1584 -0.4512 -0.3988 -0.4708 -0.2378 -0.0201 -0.4512 0.1584 -0.4708 0.3988l-0.1152 1.3881c-0.5145 0.0746 -1.0403 0.1152 -1.5753 0.1152 -0.8945 0 -1.7555 -0.1091 -2.5889 -0.3142 -0.0175 0.2487 -0.0144 0.5018 -0.0144 0.7506v0.1396c0.8727 0.1964 1.7118 0.2967 2.6107 0.2967 0.559 0 1.1084 -0.0419 1.6464 -0.1174 0.0567 0.0585 1.4928 1.2703 1.5552 1.3231 0.1833 0.1553 0.4591 0.1331 0.6148 -0.0511 0.1558 -0.1837 0.1327 -0.459 -0.051 -0.6148l-1.0224 -0.8653c1.3405 -0.3207 2.5915 -0.8705 3.7108 -1.6067l1.683 0.5983c0.2256 0.0807 0.4766 -0.0371 0.5573 -0.2649 0.0807 -0.2273 -0.038 -0.4765 -0.2649 -0.5572l-1.1179 -0.3976c1.0023 -0.7963 1.8719 -1.7515 2.571 -2.8285 0.0314 0.0018 1.7878 0.1458 1.8187 0.1458 0.2248 0 0.4159 -0.1728 0.4347 -0.401 0.0196 -0.2405 -0.1593 -0.4508 -0.3997 -0.4704l-1.3563 -0.1104c0.6384 -1.1874 1.0779 -2.496 1.2768 -3.8823l1.632 -0.7912c0.2169 -0.1047 0.3077 -0.3656 0.2025 -0.5825Z" stroke-width="1"></path>
</svg>