<svg xmlns="http://www.w3.org/2000/svg" fill="none" viewBox="0 0 14 14" id="Computer-Chip-1--Streamline-Flex">
  <desc>
    Computer Chip 1 Streamline Icon: https://streamlinehq.com
  </desc>
  <g id="computer-chip-1--computer-device-chip-electronics-cpu-microprocessor">
    <path id="Union" fill="#8fbffa" fill-rule="evenodd" d="M7.003 2.32c-0.957 0 -1.89 0.108 -2.76 0.21l-0.325 0.037a1.54 1.54 0 0 0 -1.355 1.357l-0.03 0.265c-0.099 0.884 -0.205 1.833 -0.205 2.806 0 0.974 0.106 1.922 0.206 2.807l0.03 0.265a1.54 1.54 0 0 0 1.354 1.357l0.325 0.038c0.87 0.1 1.804 0.209 2.76 0.209 0.957 0 1.89 -0.108 2.76 -0.21l0.001 0 0.324 -0.037a1.54 1.54 0 0 0 1.355 -1.357l0.03 -0.265c0.1 -0.885 0.206 -1.833 0.206 -2.807 0 -0.973 -0.107 -1.922 -0.206 -2.806l-0.03 -0.265a1.54 1.54 0 0 0 -1.355 -1.357 159.74 159.74 0 0 1 -0.325 -0.038c-0.87 -0.1 -1.803 -0.21 -2.76 -0.21Z" clip-rule="evenodd" stroke-width="1"></path>
    <path id="Subtract" fill="#2859c5" fill-rule="evenodd" d="m9.886 2.543 -0.122 -0.014a43.354 43.354 0 0 0 -1.378 -0.145l0 -1.52a0.75 0.75 0 1 1 1.5 0l0 1.68Zm1.738 3.153a43.288 43.288 0 0 0 -0.15 -1.5h1.654a0.75 0.75 0 0 1 0 1.5h-1.504Zm-0.15 4.099c0.054 -0.483 0.11 -0.985 0.15 -1.5h1.504a0.75 0.75 0 0 1 0 1.5h-1.654Zm-3.088 1.812c0.472 -0.04 0.933 -0.094 1.378 -0.145l0.122 -0.015 0 1.689a0.75 0.75 0 0 1 -1.5 0l0 -1.53Zm-4.264 -0.16 0.121 0.015c0.445 0.051 0.906 0.105 1.379 0.145l0 1.529a0.75 0.75 0 0 1 -1.5 0l0 -1.688Zm-1.74 -3.152c0.04 0.515 0.097 1.017 0.151 1.5H0.873a0.75 0.75 0 0 1 0 -1.5h1.51Zm0.151 -4.1c-0.054 0.484 -0.11 0.986 -0.15 1.5H0.873a0.75 0.75 0 0 1 0 -1.5h1.66Zm3.089 -1.811c-0.473 0.04 -0.934 0.093 -1.379 0.145l-0.121 0.014 0 -1.679a0.75 0.75 0 0 1 1.5 0l0 1.52Z" clip-rule="evenodd" stroke-width="1"></path>
    <path id="Vector (Stroke)" fill="#2859c5" fill-rule="evenodd" d="M7.063 9.045c0 -0.345 0.28 -0.625 0.625 -0.625h1.447a0.625 0.625 0 1 1 0 1.25H7.688a0.625 0.625 0 0 1 -0.625 -0.625Z" clip-rule="evenodd" stroke-width="1"></path>
  </g>
</svg>