<svg xmlns="http://www.w3.org/2000/svg" fill="none" viewBox="0 0 14 14" id="Database--Streamline-Flex">
  <desc>
    Database Streamline Icon: https://streamlinehq.com
  </desc>
  <g id="database--raid-storage-code-disk-programming-database-array-hard-disc">
    <path id="Vector" fill="#2859c5" d="M7 5.721c3.891 0 6.08 -1.022 6.08 -2.84C13.08 1.066 10.89 0.044 7 0.044 3.108 0.043 0.92 1.065 0.92 2.882S3.107 5.722 7 5.722Z" stroke-width="1"></path>
    <path id="Subtract" fill="#8fbffa" fill-rule="evenodd" d="M13.06 3.177C12.83 4.809 10.675 5.721 7 5.721c-3.773 0 -5.945 -0.96 -6.075 -2.675a0.553 0.553 0 0 0 -0.007 0.058 49.082 49.082 0 0 0 -0.122 3.2c0 1.362 0.15 3.04 0.274 4.19 0.111 1.034 0.667 2.009 1.63 2.46 0.991 0.466 2.519 1.003 4.3 1.003 1.78 0 3.308 -0.537 4.3 -1.002 0.962 -0.452 1.518 -1.427 1.63 -2.46 0.123 -1.151 0.273 -2.83 0.273 -4.19 0 -1.045 -0.058 -2.07 -0.135 -3.067a0.53 0.53 0 0 0 -0.008 -0.061Z" clip-rule="evenodd" stroke-width="1"></path>
    <path id="Intersect" fill="#2859c5" fill-rule="evenodd" d="M13.178 7.386C9.383 9.65 4.626 9.641 0.822 7.386c0.021 0.492 0.055 0.995 0.094 1.479a13.363 13.363 0 0 0 12.166 0.002c0.04 -0.484 0.073 -0.988 0.095 -1.481Z" clip-rule="evenodd" stroke-width="1"></path>
  </g>
</svg>