<svg xmlns="http://www.w3.org/2000/svg" fill="none" viewBox="0 0 14 14" id="Printer--Streamline-Flex">
  <desc>
    Printer Streamline Icon: https://streamlinehq.com
  </desc>
  <g id="printer--printer-company-office-supplies-work">
    <path id="Vector 139" fill="#8fbffa" d="M10.403 0.474C7.85 0.2 6.136 0.208 3.573 0.478a0.96 0.96 0 0 0 -0.856 0.807c-0.164 1.105 -0.144 1.912 0.097 3.138h8.37c0.194 -1.194 0.211 -1.997 0.08 -3.108a0.965 0.965 0 0 0 -0.86 -0.841Z" stroke-width="1"></path>
    <path id="Union" fill="#2859c5" fill-rule="evenodd" d="M10.806 4.38c-2.967 -0.337 -4.643 -0.34 -7.613 0 -1.107 0.127 -1.878 0.556 -2.353 1.233 -0.461 0.657 -0.59 1.47 -0.59 2.264v1.407a2.5 2.5 0 0 0 2.381 2.497h8.738l0.029 -0.001a2.5 2.5 0 0 0 2.352 -2.496V7.877c0 -0.795 -0.134 -1.61 -0.596 -2.266 -0.477 -0.677 -1.247 -1.106 -2.348 -1.231Z" clip-rule="evenodd" stroke-width="1"></path>
    <path id="Vector 140" fill="#8fbffa" d="M11.248 10.265c0.274 0.63 0.414 1.5 0.471 2.325 0.036 0.521 -0.371 0.957 -0.893 0.992 -2.858 0.194 -4.794 0.194 -7.651 0 -0.522 -0.035 -0.93 -0.47 -0.893 -0.992 0.056 -0.824 0.196 -1.693 0.47 -2.322 0.248 -0.572 0.875 -0.803 1.494 -0.876 2.007 -0.237 3.46 -0.243 5.512 0 0.617 0.072 1.241 0.304 1.49 0.873Z" stroke-width="1"></path>
  </g>
</svg>