<svg xmlns="http://www.w3.org/2000/svg" fill="none" viewBox="0 0 14 14" id="Watch-2--Streamline-Flex">
  <desc>
    Watch 2 Streamline Icon: https://streamlinehq.com
  </desc>
  <g id="watch-2--device-square-timepiece-electronics-face-blank-watch-smart">
    <path id="Vector" fill="#2859c5" d="M8.51 0.202C8.02 0.098 7.514 0 7 0c-0.516 0 -1.021 0.098 -1.51 0.202 -0.51 0.109 -0.9 0.535 -0.94 1.038 -0.016 0.224 -0.034 0.514 -0.05 0.992l0 9.457c0.017 0.511 0.036 0.823 0.054 1.07 0.037 0.504 0.425 0.93 0.935 1.039 0.49 0.104 0.995 0.202 1.51 0.202 0.516 0 1.02 -0.098 1.51 -0.202 0.51 -0.109 0.898 -0.535 0.936 -1.038 0.018 -0.25 0.037 -0.562 0.054 -1.076l0 -9.448c-0.016 -0.48 -0.034 -0.77 -0.051 -0.996C9.409 0.737 9.019 0.31 8.509 0.202Z" stroke-width="1"></path>
    <path id="Intersect" fill="#8fbffa" d="M2.521 9.63c0.106 0.96 0.876 1.73 1.835 1.84 0.858 0.098 1.742 0.187 2.644 0.187 0.902 0 1.786 -0.09 2.644 -0.187 0.96 -0.11 1.73 -0.88 1.835 -1.84 0.094 -0.853 0.178 -1.732 0.178 -2.63 0 -0.897 -0.084 -1.776 -0.178 -2.63a2.092 2.092 0 0 0 -1.835 -1.839C8.786 2.433 7.902 2.344 7 2.344c-0.902 0 -1.786 0.09 -2.644 0.187 -0.96 0.11 -1.73 0.88 -1.835 1.84 -0.093 0.853 -0.177 1.732 -0.177 2.63 0 0.897 0.084 1.776 0.177 2.63Z" stroke-width="1"></path>
  </g>
</svg>