<svg xmlns="http://www.w3.org/2000/svg" fill="none" viewBox="0 0 14 14" id="Burrito-Fastfood--Streamline-Core-Neon">
  <desc>
    Burrito Fastfood Streamline Icon: https://streamlinehq.com
  </desc>
  <g id="burrito-fastfood">
    <path id="Union" stroke="#000cfe" stroke-linecap="round" stroke-linejoin="round" d="M11.4372 2.00097C11.2156 1.13786 10.4323 0.5 9.5 0.5c-0.55772 0 -1.06212 0.228285 -1.42486 0.59651C7.38198 0.564129 6.38471 0.615292 5.75 1.25c-0.69036 0.69036 -0.69036 1.80964 0 2.5l4.5 4.5c0.6904 0.69036 1.8096 0.69036 2.5 0 0.6904 -0.69036 0.6904 -1.80964 0 -2.5l-0.1079 -0.10793C13.1606 5.28071 13.5 4.67999 13.5 4c0 -1.10457 -0.8954 -2 -2 -2 -0.021 0 -0.0419 0.00033 -0.0628 0.00097Z" stroke-width="1"></path>
    <path id="Vector 3126" stroke="#000cfe" stroke-linecap="round" stroke-linejoin="round" d="m5.25 4.75 2 6 -0.5 0.5 -6 -2" stroke-width="1"></path>
    <path id="Vector 3125" stroke="#c71dff" stroke-linecap="round" stroke-linejoin="round" d="M0.676777 9.32322 6 4l4 4 -5.32322 5.3232c-0.11319 0.1132 -0.26671 0.1768 -0.42678 0.1768s-0.31359 -0.0636 -0.42678 -0.1768L0.676777 10.1768C0.563588 10.0636 0.5 9.91007 0.5 9.75s0.063589 -0.31359 0.176777 -0.42678Z" stroke-width="1"></path>
  </g>
</svg>