<svg xmlns="http://www.w3.org/2000/svg" fill="none" viewBox="0 0 14 14" id="Microwave--Streamline-Core-Neon">
  <desc>
    Microwave Streamline Icon: https://streamlinehq.com
  </desc>
  <g id="microwave--cook-food-appliances-cooking-nutrition-appliance-microwave-kitchenware">
    <path id="Vector" stroke="#c71dff" stroke-linecap="round" stroke-linejoin="round" d="M13 2H1c-0.276142 0 -0.5 0.22386 -0.5 0.5v9c0 0.2761 0.223858 0.5 0.5 0.5h12c0.2761 0 0.5 -0.2239 0.5 -0.5v-9c0 -0.27614 -0.2239 -0.5 -0.5 -0.5Z" stroke-width="1"></path>
    <path id="Vector_2" stroke="#000cfe" stroke-linecap="round" stroke-linejoin="round" d="M8.5 4H3c-0.27614 0 -0.5 0.22386 -0.5 0.5v5c0 0.27614 0.22386 0.5 0.5 0.5h5.5c0.27614 0 0.5 -0.22386 0.5 -0.5v-5c0 -0.27614 -0.22386 -0.5 -0.5 -0.5Z" stroke-width="1"></path>
    <path id="Vector_3" stroke="#000cfe" stroke-linecap="round" stroke-linejoin="round" d="M11 4.5h0.5" stroke-width="1"></path>
    <path id="Vector_4" stroke="#000cfe" stroke-linecap="round" stroke-linejoin="round" d="M11 6.5h0.5" stroke-width="1"></path>
  </g>
</svg>