<svg xmlns="http://www.w3.org/2000/svg" fill="none" viewBox="0 0 14 14" id="Strawberry--Streamline-Core-Neon">
  <desc>
    Strawberry Streamline Icon: https://streamlinehq.com
  </desc>
  <g id="strawberry--fruit-sweet-berries-plant-strawberry">
    <path id="Vector 3083" stroke="#000cfe" stroke-linecap="round" stroke-linejoin="round" d="M4.5 0.5v0C5.88071 0.5 7 1.61929 7 3v0" stroke-width="1"></path>
    <path id="Vector 3084" stroke="#000cfe" stroke-linecap="round" stroke-linejoin="round" d="M7 3v0C7 1.61929 8.11929 0.5 9.5 0.5v0" stroke-width="1"></path>
    <g id="Group 11">
      <path id="Ellipse 1094" stroke="#000cfe" stroke-linecap="round" stroke-linejoin="round" d="M4.5 7c-0.13807 0 -0.25 -0.11193 -0.25 -0.25s0.11193 -0.25 0.25 -0.25" stroke-width="1"></path>
      <path id="Ellipse 1095" stroke="#000cfe" stroke-linecap="round" stroke-linejoin="round" d="M4.5 7c0.13807 0 0.25 -0.11193 0.25 -0.25s-0.11193 -0.25 -0.25 -0.25" stroke-width="1"></path>
    </g>
    <g id="Group 14">
      <path id="Ellipse 1094_2" stroke="#000cfe" stroke-linecap="round" stroke-linejoin="round" d="M5.75 10c-0.13807 0 -0.25 -0.11193 -0.25 -0.25s0.11193 -0.25 0.25 -0.25" stroke-width="1"></path>
      <path id="Ellipse 1095_2" stroke="#000cfe" stroke-linecap="round" stroke-linejoin="round" d="M5.75 10c0.13807 0 0.25 -0.11193 0.25 -0.25s-0.11193 -0.25 -0.25 -0.25" stroke-width="1"></path>
    </g>
    <g id="Group 15">
      <path id="Ellipse 1094_3" stroke="#000cfe" stroke-linecap="round" stroke-linejoin="round" d="M8.25 10C8.11193 10 8 9.88807 8 9.75s0.11193 -0.25 0.25 -0.25" stroke-width="1"></path>
      <path id="Ellipse 1095_3" stroke="#000cfe" stroke-linecap="round" stroke-linejoin="round" d="M8.25 10c0.13807 0 0.25 -0.11193 0.25 -0.25s-0.11193 -0.25 -0.25 -0.25" stroke-width="1"></path>
    </g>
    <g id="Group 12">
      <path id="Ellipse 1094_4" stroke="#000cfe" stroke-linecap="round" stroke-linejoin="round" d="M7 7c-0.13807 0 -0.25 -0.11193 -0.25 -0.25s0.11193 -0.25 0.25 -0.25" stroke-width="1"></path>
      <path id="Ellipse 1095_4" stroke="#000cfe" stroke-linecap="round" stroke-linejoin="round" d="M7 7c0.13807 0 0.25 -0.11193 0.25 -0.25S7.13807 6.5 7 6.5" stroke-width="1"></path>
    </g>
    <g id="Group 13">
      <path id="Ellipse 1094_5" stroke="#000cfe" stroke-linecap="round" stroke-linejoin="round" d="M9.5 7c-0.13807 0 -0.25 -0.11193 -0.25 -0.25s0.11193 -0.25 0.25 -0.25" stroke-width="1"></path>
      <path id="Ellipse 1095_5" stroke="#000cfe" stroke-linecap="round" stroke-linejoin="round" d="M9.5 7c0.13807 0 0.25 -0.11193 0.25 -0.25s-0.11193 -0.25 -0.25 -0.25" stroke-width="1"></path>
    </g>
    <path id="Ellipse 1842" stroke="#c71dff" stroke-linecap="round" stroke-linejoin="round" d="M12 7.5c0 3 -2.51472 6 -5 6s-5 -3 -5 -6S3.5 3 7 3s5 2 5 4.5Z" stroke-width="1"></path>
  </g>
</svg>