<svg xmlns="http://www.w3.org/2000/svg" fill="none" viewBox="0 0 40 40" id="Solar-Power-Battery--Streamline-Stickies">
  <desc>
    Solar Power Battery Streamline Icon: https://streamlinehq.com
  </desc>
  <g clip-path="url(#a)">
    <path fill="#00034a" stroke="#00034a" stroke-linecap="round" stroke-miterlimit="10" d="M33.0103 10.8392c-0.2879 -0.5946 0.2202 -1.51459 2.0906 -2.54069 1.3563 -0.745 3.0125 -1.0006 3.844 0.5563 0.285 0.5327 0.341 1.0654 -1.0527 1.95099 0.3647 0.2683 0.6979 0.5504 0.9288 0.916 0.3254 0.6232 -0.1631 1.5136 -2.0807 2.5407 -1.3907 0.7431 -3.0302 1.0075 -3.8921 -0.5563 -0.2969 -0.5366 -0.3431 -1.0713 1.0782 -1.9677 -0.3716 -0.2663 -0.69 -0.5366 -0.9161 -0.8993Z" stroke-width="1"></path>
    <path fill="#00034a" stroke="#00034a" stroke-linecap="round" stroke-miterlimit="10" d="M26.8547 3.75373c1.4674 -2.1574 2.464 -2.3097 3.097 -1.9175 1.1656 0.7243 1.7082 1.6807 1.031 2.982 0.1179 0.0472 0.231 0.1042 0.3401 0.172 1.891 1.2158 1.0841 3.0154 -0.0285 4.6411 -1.4763 2.15737 -2.4828 2.31947 -3.1059 1.91747 -1.1568 -0.7469 -1.7072 -1.66887 -1.0202 -2.98587 -0.122 -0.0487 -0.2395 -0.1083 -0.3509 -0.1779 -1.8025 -1.3033 -1.1165 -2.9339 0.0374 -4.6313Z" stroke-width="1"></path>
    <path fill="#00034a" stroke="#00034a" stroke-miterlimit="10" d="M33.2502 17.445c-1.5009 -0.9877 -3.5275 -1.6305 -5.3213 -1.6974 -0.4894 0 -0.863 0.8158 -1.1127 1.5343 -1.5627 -0.2782 -2.9907 -0.2782 -3.6335 0.4324 -0.863 0.4974 -2.2912 4.1694 -3.2888 7.286 -0.9966 3.1157 -1.9165 6.9322 -1.543 7.8433 0.2988 2.5092 4.875 3.8774 6.7307 4.4671 2.4738 0.7863 5.8195 1.6207 6.9125 0.4226 0.8629 -0.4993 2.291 -4.1811 3.2886 -7.2869 0.9967 -3.1059 1.9363 -6.9125 1.5244 -7.8236 -0.1336 -1.1107 -1.7201 -2.241 -2.6194 -2.7688 0.2939 -1.204 -0.1169 -1.6315 -0.9375 -2.409Z" stroke-width="1"></path>
    <path fill="#00034a" d="M11.7587 13.8232c0.1248 0.1278 0.288 0.2113 0.4649 0.2378 0.671 0.0453 1.3449 0.0033 2.0051 -0.1248 0.6608 -0.1188 1.3045 -0.3186 1.9166 -0.5946 0.3203 -0.1764 0.4817 -0.5465 0.3931 -0.9013 -0.0886 -0.3548 -0.0098 -0.5563 -1.2079 -1.9844 -0.6816 -0.83139 -1.4604 -1.57809 -2.3196 -2.22419 -0.3507 -0.2165 -0.8087 -0.1295 -1.0556 0.2005 -0.365 0.5743 -0.655 1.1929 -0.863 1.84089 -0.2758 0.7257 -0.4157 1.496 -0.4128 2.2724 0.0216 0.1778 0.101 0.3436 0.2261 0.4717 0.286 0.2949 0.5593 0.5033 0.8531 0.806Z" stroke-width="1"></path>
    <path fill="#00034a" d="M15.0622 15.441c-3.7438 0 -6.77884 3.035 -6.77884 6.7788 0 3.8912 3.74674 7.5838 7.63204 7.5838 3.7435 0.0002 6.7782 -3.0343 6.7788 -6.7778 0 -3.8922 -3.7467 -7.5848 -7.632 -7.5848Z" stroke-width="1"></path>
    <path fill="#00034a" d="M14.4676 33.0156s0 0.5465 1.1991 1.9756c0.6805 0.8294 1.4594 1.573 2.3196 2.2143 0.3463 0.228 0.8106 0.1436 1.0546 -0.1916 0.3635 -0.5751 0.6535 -1.1936 0.8629 -1.8409 0.2792 -0.7372 0.4187 -1.5215 0.4128 -2.3098 -0.0181 -0.1791 -0.0964 -0.3468 -0.2221 -0.4757 -0.3342 -0.344 -0.8118 -0.975 -1.3219 -1.0398 -0.6677 -0.0459 -1.3384 -0.0043 -1.9953 0.1238 -0.6615 0.1159 -1.3056 0.3157 -1.9166 0.5946 -0.3154 0.1809 -0.4751 0.5471 -0.3931 0.9013v0.0482Z" stroke-width="1"></path>
    <path fill="#00034a" d="M5.70436 13.7731c1.8694 0.1631 2.2527 0.5464 2.2527 0.5464 0.3794 0.2261 1.0281 0.7844 1.1903 1.2227 0.0645 0.1743 0.0676 0.3653 0.0088 0.5416 -0.2366 0.6326 -0.5595 1.2296 -0.9593 1.774 -0.3712 0.556 -0.8125 1.0617 -1.3131 1.5048 -0.1399 0.1002 -0.3076 0.1541 -0.4796 0.1543 -0.5779 0 -0.9052 -0.6546 -1.3328 -0.9593 -0.5459 -0.5579 -0.9903 -1.2068 -1.3131 -1.9175 -0.3109 -0.6072 -0.5431 -1.2516 -0.691 -1.9176 -0.0656 -0.4082 0.2002 -0.7963 0.6045 -0.8826 0.6719 -0.1088 1.355 -0.1312 2.0326 -0.0668Z" stroke-width="1"></path>
    <path fill="#00034a" d="M21.8489 29.9147c-0.0648 -0.1746 -0.068 -0.366 -0.0088 -0.5426 0.2419 -0.6272 0.5644 -1.2202 0.9592 -1.7642 0.3685 -0.5581 0.8101 -1.0642 1.3132 -1.5048 0.2868 -0.2051 0.6724 -0.2051 0.9592 0 0.8414 0.8482 1.666 1.6021 2.1673 2.7225 0.3115 0.6075 0.5435 1.2512 0.6899 1.9176 0.0657 0.4079 -0.1995 0.7958 -0.6035 0.8826 -0.6753 0.0821 -1.3581 0.0821 -2.0335 0 -1.8596 -0.173 -2.2429 -0.5464 -2.2429 -0.5464v0.057c-0.3489 -0.2084 -1.0438 -0.7991 -1.2001 -1.2217Z" stroke-width="1"></path>
    <path fill="#00034a" d="M2.42456 22.8911c1.429 -1.1991 1.9755 -1.1991 1.9755 -1.1991l0.0098 0.0197c0.1727 -0.0451 0.3554 -0.0309 0.519 0.0403 0.3096 0.1356 1.0585 0.8285 1.2355 1.1588 0.2811 0.6093 0.4816 1.2551 0.5946 1.9166 0.1281 0.6601 0.1701 1.3341 0.1248 2.005 -0.0541 0.3636 -0.3446 0.6461 -0.7096 0.69 -0.7763 0.0019 -1.5464 -0.138 -2.2724 -0.4128 -0.6471 -0.2101 -1.2655 -0.5 -1.8409 -0.863 -0.3607 -0.2693 -1.071301 -0.8227 -1.156801 -1.2944 -0.0355 -0.1958 0.0045 -0.3978 0.112001 -0.5652 0.4046 -0.5563 0.8773 -1.059 1.4085 -1.4959Z" stroke-width="1"></path>
    <path fill="#00034a" d="M24.8318 22.4695c-0.2794 -0.6112 -0.4793 -1.2556 -0.5946 -1.9176 -0.1123 -0.6456 -0.1414 -1.3029 -0.0865 -1.9559 0.047 -0.3674 0.3412 -0.6537 0.7096 -0.691 0.7764 -0.0029 1.5467 0.137 2.2724 0.4128 0.6487 0.2074 1.2669 0.4974 1.8409 0.863 0.3617 0.2634 1.0734 0.8246 1.1628 1.2925 0.0372 0.1959 -0.0015 0.3986 -0.1082 0.5671 -0.4223 0.548 -0.9117 1.041 -1.4566 1.4674 -0.5799 0.4865 -1.6137 1.4989 -2.5003 1.1126 -0.3538 -0.1543 -1.0645 -0.8453 -1.2395 -1.1509Z" stroke-width="1"></path>
    <path fill="#00034a" d="M6.57716 31.6543c0.172 -1.8605 0.4884 -2.234 0.4884 -2.234 0.2014 -0.3234 0.5961 -0.4694 0.9593 -0.3548 0.6284 0.2389 1.2218 0.5612 1.7643 0.9583 0.85514 0.572 1.67484 1.3465 2.35884 2.12 0.2047 0.2866 0.2047 0.6716 0 0.9583 -0.5579 0.5459 -1.2068 0.9902 -1.9175 1.3131 -0.60674 0.3123 -1.25124 0.5445 -1.91764 0.6909 -0.1963 0.0294 -0.3964 -0.0166 -0.5602 -0.1287 -0.3637 -0.2497 -1.0713 -0.8237 -1.1755 -1.2807 -0.0818 -0.6783 -0.0818 -1.364 0 -2.0424Z" stroke-width="1"></path>
    <path fill="#00034a" d="M18.8777 13.2551c-0.2046 -0.2867 -0.2046 -0.6716 0 -0.9583 0.5546 -0.5502 1.2043 -0.9954 1.9176 -1.3141 0.6073 -0.3105 1.2516 -0.5424 1.9176 -0.69 0.1962 -0.0314 0.3971 0.0136 0.5612 0.1259 0.3636 0.2486 1.0762 0.8256 1.1745 1.2836 0.0871 0.6747 0.0871 1.3578 0 2.0325 -0.1632 1.8606 -0.5081 2.2822 -0.5081 2.2822 -0.1918 0.3349 -0.5961 0.484 -0.9593 0.3539 -0.6311 -0.239 -1.2274 -0.5613 -1.7731 -0.9583 -0.8632 -0.6194 -1.6457 -1.3442 -2.3294 -2.1574h-0.001Z" stroke-width="1"></path>
    <path stroke="#00034a" stroke-miterlimit="10" d="M11.7587 13.8232c0.1248 0.1278 0.288 0.2113 0.4649 0.2378 0.671 0.0453 1.3449 0.0033 2.0051 -0.1248 0.6608 -0.1188 1.3045 -0.3186 1.9166 -0.5946 0.3203 -0.1764 0.4817 -0.5465 0.3931 -0.9013 -0.0886 -0.3548 -0.0098 -0.5563 -1.2079 -1.9844 -0.6816 -0.83139 -1.4604 -1.57809 -2.3196 -2.22419 -0.3507 -0.2165 -0.8087 -0.1295 -1.0556 0.2005 -0.365 0.5743 -0.655 1.1929 -0.863 1.84089 -0.2758 0.7257 -0.4157 1.496 -0.4128 2.2724 0.0216 0.1778 0.101 0.3436 0.2261 0.4717 0.286 0.2949 0.5593 0.5033 0.8531 0.806Z" stroke-width="1"></path>
    <path stroke="#00034a" stroke-miterlimit="10" d="M15.0622 15.441c-3.7438 0 -6.77884 3.035 -6.77884 6.7788 0 3.8912 3.74674 7.5838 7.63204 7.5838 3.7435 0.0002 6.7782 -3.0343 6.7788 -6.7778 0 -3.8922 -3.7467 -7.5848 -7.632 -7.5848Z" stroke-width="1"></path>
    <path stroke="#00034a" stroke-miterlimit="10" d="M14.4676 33.0156s0 0.5465 1.1991 1.9756c0.6805 0.8294 1.4594 1.573 2.3196 2.2143 0.3463 0.228 0.8106 0.1436 1.0546 -0.1916 0.3635 -0.5751 0.6535 -1.1936 0.8629 -1.8409 0.2792 -0.7372 0.4187 -1.5215 0.4128 -2.3098 -0.0181 -0.1791 -0.0964 -0.3468 -0.2221 -0.4757 -0.3342 -0.344 -0.8118 -0.975 -1.3219 -1.0398 -0.6677 -0.0459 -1.3384 -0.0043 -1.9953 0.1238 -0.6615 0.1159 -1.3056 0.3157 -1.9166 0.5946 -0.3154 0.1809 -0.4751 0.5471 -0.3931 0.9013v0.0482Z" stroke-width="1"></path>
    <path stroke="#00034a" stroke-miterlimit="10" d="M5.70436 13.7731c1.8694 0.1631 2.2527 0.5464 2.2527 0.5464 0.3794 0.2261 1.0281 0.7844 1.1903 1.2227 0.0645 0.1743 0.0676 0.3653 0.0088 0.5416 -0.2366 0.6326 -0.5595 1.2296 -0.9593 1.774 -0.3712 0.556 -0.8125 1.0617 -1.3131 1.5048 -0.1399 0.1002 -0.3076 0.1541 -0.4796 0.1543 -0.5779 0 -0.9052 -0.6546 -1.3328 -0.9593 -0.5459 -0.5579 -0.9903 -1.2068 -1.3131 -1.9175 -0.3109 -0.6072 -0.5431 -1.2516 -0.691 -1.9176 -0.0656 -0.4082 0.2002 -0.7963 0.6045 -0.8826 0.6719 -0.1088 1.355 -0.1312 2.0326 -0.0668Z" stroke-width="1"></path>
    <path stroke="#00034a" stroke-miterlimit="10" d="M21.8489 29.9147c-0.0648 -0.1746 -0.068 -0.366 -0.0088 -0.5426 0.2419 -0.6272 0.5644 -1.2202 0.9592 -1.7642 0.3685 -0.5581 0.8101 -1.0642 1.3132 -1.5048 0.2868 -0.2051 0.6724 -0.2051 0.9592 0 0.8414 0.8482 1.666 1.6021 2.1673 2.7225 0.3115 0.6075 0.5435 1.2512 0.6899 1.9176 0.0657 0.4079 -0.1995 0.7958 -0.6035 0.8826 -0.6753 0.0821 -1.3581 0.0821 -2.0335 0 -1.8596 -0.173 -2.2429 -0.5464 -2.2429 -0.5464v0.057c-0.3489 -0.2084 -1.0438 -0.7991 -1.2001 -1.2217Z" stroke-width="1"></path>
    <path stroke="#00034a" stroke-miterlimit="10" d="M2.42456 22.8911c1.429 -1.1991 1.9755 -1.1991 1.9755 -1.1991l0.0098 0.0197c0.1727 -0.0451 0.3554 -0.0309 0.519 0.0403 0.3096 0.1356 1.0585 0.8285 1.2355 1.1588 0.2811 0.6093 0.4816 1.2551 0.5946 1.9166 0.1281 0.6601 0.1701 1.3341 0.1248 2.005 -0.0541 0.3636 -0.3446 0.6461 -0.7096 0.69 -0.7763 0.0019 -1.5464 -0.138 -2.2724 -0.4128 -0.6471 -0.2101 -1.2655 -0.5 -1.8409 -0.863 -0.3607 -0.2693 -1.071301 -0.8227 -1.156801 -1.2944 -0.0355 -0.1958 0.0045 -0.3978 0.112001 -0.5652 0.4046 -0.5563 0.8773 -1.059 1.4085 -1.4959Z" stroke-width="1"></path>
    <path stroke="#00034a" stroke-miterlimit="10" d="M24.8318 22.4695c-0.2794 -0.6112 -0.4793 -1.2556 -0.5946 -1.9176 -0.1123 -0.6456 -0.1414 -1.3029 -0.0865 -1.9559 0.047 -0.3674 0.3412 -0.6537 0.7096 -0.691 0.7764 -0.0029 1.5467 0.137 2.2724 0.4128 0.6487 0.2074 1.2669 0.4974 1.8409 0.863 0.3617 0.2634 1.0734 0.8246 1.1628 1.2925 0.0372 0.1959 -0.0015 0.3986 -0.1082 0.5671 -0.4223 0.548 -0.9117 1.041 -1.4566 1.4674 -0.5799 0.4865 -1.6137 1.4989 -2.5003 1.1126 -0.3538 -0.1543 -1.0645 -0.8453 -1.2395 -1.1509Z" stroke-width="1"></path>
    <path stroke="#00034a" stroke-miterlimit="10" d="M6.57716 31.6543c0.172 -1.8605 0.4884 -2.234 0.4884 -2.234 0.2014 -0.3234 0.5961 -0.4694 0.9593 -0.3548 0.6284 0.2389 1.2218 0.5612 1.7643 0.9583 0.85514 0.572 1.67484 1.3465 2.35884 2.12 0.2047 0.2866 0.2047 0.6716 0 0.9583 -0.5579 0.5459 -1.2068 0.9902 -1.9175 1.3131 -0.60674 0.3123 -1.25124 0.5445 -1.91764 0.6909 -0.1963 0.0294 -0.3964 -0.0166 -0.5602 -0.1287 -0.3637 -0.2497 -1.0713 -0.8237 -1.1755 -1.2807 -0.0818 -0.6783 -0.0818 -1.364 0 -2.0424Z" stroke-width="1"></path>
    <path stroke="#00034a" stroke-miterlimit="10" d="M18.8777 13.2551c-0.2046 -0.2867 -0.2046 -0.6716 0 -0.9583 0.5546 -0.5502 1.2043 -0.9954 1.9176 -1.3141 0.6073 -0.3105 1.2516 -0.5424 1.9176 -0.69 0.1962 -0.0314 0.3971 0.0136 0.5612 0.1259 0.3636 0.2486 1.0762 0.8256 1.1745 1.2836 0.0871 0.6747 0.0871 1.3578 0 2.0325 -0.1632 1.8606 -0.5081 2.2822 -0.5081 2.2822 -0.1918 0.3349 -0.5961 0.484 -0.9593 0.3539 -0.6311 -0.239 -1.2274 -0.5613 -1.7731 -0.9583 -0.8632 -0.6194 -1.6457 -1.3442 -2.3294 -2.1574h-0.001Z" stroke-width="1"></path>
    <path fill="#9bff00" stroke="#00034a" stroke-miterlimit="10" d="M15.0622 28.9986c5.2184 0 8.4798 -5.649 5.8707 -10.1682 -1.211 -2.0974 -3.4488 -3.3894 -5.8707 -3.3894 -5.21835 0 -8.47985 5.649 -5.87065 10.1682 1.21095 2.0974 3.44885 3.3894 5.87065 3.3894Z" stroke-width="1"></path>
    <path fill="#9bff00" stroke="#00034a" stroke-miterlimit="10" d="M15.6854 11.6343s-0.0099 -0.5553 -1.2089 -1.98442c-0.4286 -0.5313 -0.9211 -1.0077 -1.4665 -1.4182 -0.3505 -0.2159 -0.8078 -0.129 -1.0546 0.2005 -0.365 0.5743 -0.655 1.1929 -0.8629 1.84092 -0.2759 0.7257 -0.4158 1.496 -0.4128 2.2724 0.0436 0.3654 0.3268 0.6562 0.6909 0.7096 0.6706 0.0452 1.3442 0.0032 2.0041 -0.1248 0.6608 -0.1189 1.3045 -0.3186 1.9166 -0.5947 0.3203 -0.1764 0.4817 -0.5464 0.3931 -0.9012l0.001 -0.0001Z" stroke-width="1"></path>
    <path fill="#9bff00" stroke="#00034a" stroke-miterlimit="10" d="M14.4676 33.0156s0 0.5465 1.1991 1.9756c0.4276 0.5287 0.92 1.0025 1.4664 1.4084 0.3464 0.2279 0.8107 0.1435 1.0546 -0.1917 0.3637 -0.5749 0.6527 -1.1932 0.863 -1.8409 0.2791 -0.7371 0.4187 -1.5214 0.4128 -2.3097 -0.0372 -0.3685 -0.3236 -0.6626 -0.6909 -0.7096 -0.6677 -0.0459 -1.3384 -0.0043 -1.9953 0.1238 -0.6615 0.1159 -1.3056 0.3157 -1.9166 0.5946 -0.3154 0.1809 -0.4751 0.5471 -0.3931 0.9013v0.0482Z" stroke-width="1"></path>
    <path fill="#9bff00" stroke="#00034a" stroke-miterlimit="10" d="M7.95805 14.3195s-0.3833 -0.3833 -2.2537 -0.5464c-0.6776 -0.0645 -1.3607 -0.042 -2.0326 0.0668 -0.4043 0.0863 -0.6701 0.4744 -0.6044 0.8826 0.1474 0.6654 0.3803 1.3102 0.6909 1.9166 0.3228 0.711 0.7672 1.3603 1.3131 1.9185 0.287 0.2049 0.6723 0.2049 0.9593 0 0.5007 -0.4432 0.9421 -0.9493 1.3131 -1.5057 0.3998 -0.5444 0.7226 -1.1414 0.9593 -1.7741 0.0588 -0.1762 0.0557 -0.3673 -0.0089 -0.5415 -0.0609 -0.1737 -0.179 -0.3209 -0.3361 -0.4168Z" stroke-width="1"></path>
    <path fill="#9bff00" stroke="#00034a" stroke-miterlimit="10" d="M22.1949 30.2734s0.3833 0.3735 2.2439 0.5465c0.675 0.0819 1.3575 0.0819 2.0325 0 0.4039 -0.0864 0.6696 -0.4738 0.6045 -0.8817 -0.1464 -0.6663 -0.3787 -1.3109 -0.691 -1.9175 -0.3184 -0.7132 -0.7633 -1.3629 -1.3131 -1.9176 -0.2869 -0.2048 -0.6723 -0.2048 -0.9593 0 -0.503 0.4406 -0.9447 0.9467 -1.3131 1.5048 -0.3948 0.544 -0.7173 1.137 -0.9592 1.7642 -0.1222 0.3634 0.0255 0.7628 0.3548 0.9593v-0.058Z" stroke-width="1"></path>
    <path fill="#9bff00" stroke="#00034a" stroke-miterlimit="10" d="M4.40005 21.692s-0.5465 0 -1.9755 1.1991c-0.5309 0.4367 -1.0042 0.939 -1.4085 1.4949 -0.223397 0.3476 -0.139597 0.8088 0.1917 1.0556 0.5753 0.3629 1.1937 0.6525 1.8409 0.862 0.7263 0.2752 1.4959 0.4148 2.2724 0.4128 0.3649 -0.0438 0.6555 -0.3263 0.7096 -0.69 0.0453 -0.6709 0.0033 -1.3449 -0.1248 -2.005 -0.1142 -0.662 -0.3141 -1.3062 -0.5947 -1.9166 -0.1739 -0.3231 -0.5461 -0.4854 -0.9013 -0.3931l-0.0098 -0.0197Z" stroke-width="1"></path>
    <path fill="#9bff00" stroke="#00034a" stroke-miterlimit="10" d="M25.7429 22.9009s0.5465 0 1.9756 -1.1991c0.5449 -0.426 1.0342 -0.9187 1.4566 -1.4664 0.2207 -0.3498 0.1326 -0.8108 -0.2015 -1.0546 -0.5743 -0.365 -1.193 -0.655 -1.8409 -0.863 -0.7257 -0.2758 -1.496 -0.4157 -2.2724 -0.4128 -0.3684 0.0373 -0.6626 0.3236 -0.7096 0.691 -0.0549 0.653 -0.0258 1.3103 0.0865 1.9559 0.115 0.6614 0.3145 1.3062 0.5946 1.9166 0.1809 0.3154 0.5471 0.4751 0.9013 0.3931l0.0098 0.0393Z" stroke-width="1"></path>
    <path fill="#9bff00" stroke="#00034a" stroke-miterlimit="10" d="M7.06556 29.4203s-0.3164 0.3735 -0.4884 2.234c-0.0818 0.6784 -0.0818 1.3641 0 2.0424 0.0911 0.4006 0.4752 0.6635 0.8816 0.6035 0.6663 -0.1461 1.3109 -0.3781 1.9176 -0.69 0.71074 -0.3231 1.35974 -0.7678 1.91754 -1.3141 0.2047 -0.2866 0.2047 -0.6716 0 -0.9583 -0.443 -0.5008 -0.9488 -0.9425 -1.50474 -1.314 -0.5426 -0.397 -1.136 -0.7193 -1.7643 -0.9583 -0.363 -0.1147 -0.7577 0.0318 -0.9593 0.3548Z" stroke-width="1"></path>
    <path fill="#9bff00" stroke="#00034a" stroke-miterlimit="10" d="M23.0873 15.211s0.344 -0.4226 0.5082 -2.2822c0.087 -0.6747 0.087 -1.3579 0 -2.0326 -0.0868 -0.4039 -0.4747 -0.6692 -0.8826 -0.6035 -0.6656 0.1477 -1.3097 0.3795 -1.9166 0.69 -0.7137 0.3186 -1.3637 0.7638 -1.9186 1.3141 -0.2046 0.2867 -0.2046 0.6716 0 0.9583 0.4325 0.5121 0.9278 0.9671 1.4763 1.3524 0.546 0.3971 1.1426 0.7194 1.774 0.9583 0.3633 0.1301 0.7676 -0.02 0.9593 -0.3548Z" stroke-width="1"></path>
    <path fill="#9bff00" stroke="#00034a" stroke-linecap="round" stroke-miterlimit="10" d="M33.0103 10.8392c0.2458 0.3941 0.634 0.6792 1.0832 0.7961 -1.5923 0.9583 -1.553 1.5136 -1.2463 2.0709 0.3066 0.5553 1.1214 0.7765 3.039 -0.2496 1.9176 -1.0261 2.407 -1.9176 2.0807 -2.5407 -0.2555 -0.403 -0.6585 -0.688 -1.1214 -0.7962 1.5922 -0.9582 1.5431 -1.5146 1.2463 -2.0709 -0.2969 -0.5563 -1.1215 -0.7764 -2.9909 0.2497 -1.8704 1.0261 -2.3785 1.9461 -2.0906 2.5407Z" stroke-width="1"></path>
    <path fill="#9bff00" stroke="#00034a" stroke-linecap="round" stroke-miterlimit="10" d="M25.9641 7.57903c0.4799 0.2988 1.0562 0.4019 1.6099 0.288 -1.2178 1.9166 -0.863 2.47387 -0.2398 2.87587 0.6231 0.403 1.6296 0.2398 3.1058 -1.91657 1.4773 -2.1574 1.553 -3.4046 0.8826 -3.8361 -0.4775 -0.2966 -1.0516 -0.3959 -1.601 -0.2772 1.2177 -1.9176 0.8629 -2.4837 0.2299 -2.8768 -0.6329 -0.3932 -1.6295 -0.2399 -3.096 1.9175 -1.4674 2.1574 -1.5146 3.3752 -0.8914 3.8253Z" stroke-width="1"></path>
    <path fill="#ffffff" stroke="#00034a" stroke-miterlimit="10" d="M35.954 21.8168c-0.115 -0.9583 -1.2659 -1.7731 -2.7038 -2.4542 0.2103 -0.7283 0.3538 -1.5824 0 -1.9176 -0.7866 -0.5176 -1.6558 -0.8969 -2.5702 -1.1214 -0.8783 -0.346 -1.8088 -0.5407 -2.7521 -0.576 -0.4884 0 -0.862 0.8158 -1.1107 1.5343 -1.5628 -0.2782 -2.9917 -0.2782 -3.6345 0.4324 -0.863 0.4974 -2.2912 4.1694 -3.2888 7.286 -0.9966 3.1157 -1.9165 6.9322 -1.543 7.8433 0.1917 1.6099 3.4037 2.8758 5.8775 3.6621 2.4729 0.7863 5.8186 1.6198 6.9125 0.4217 0.863 -0.4983 2.291 -4.1801 3.2886 -7.287 0.9966 -3.1058 1.9373 -6.9125 1.5245 -7.8236Z" stroke-width="1"></path>
    <path stroke="#00034a" stroke-linecap="round" stroke-miterlimit="10" d="M20.6999 29.9382c3.3197 1.5159 6.8088 2.6292 10.3929 3.3162" stroke-width="1"></path>
    <path stroke="#00034a" stroke-linecap="round" stroke-miterlimit="10" d="M23.1158 22.383c3.3256 1.5207 6.8213 2.6377 10.4125 3.327" stroke-width="1"></path>
  </g>
  <defs>
    <clipPath id="a">
      <path fill="#ffffff" d="M0 0h40v40H0z" stroke-width="1"></path>
    </clipPath>
  </defs>
</svg>