<svg xmlns="http://www.w3.org/2000/svg" fill="none" viewBox="0 0 14 14" id="Definition-Search-Book--Streamline-Core">
  <desc>
    Definition Search Book Streamline Icon: https://streamlinehq.com
  </desc>
  <g id="definition-search-book">
    <path id="vector" fill="#d7e0ff" d="M5.5 0.5h-5v10h12a1 1 0 0 0 1 -1v-9h-5A1.5 1.5 0 0 0 7 2 1.5 1.5 0 0 0 5.5 0.5Z" stroke-width="1"></path>
    <path id="vector_2" fill="#ffffff" d="M10 12.5a2.5 2.5 0 1 0 0 -5 2.5 2.5 0 0 0 0 5Z" stroke-width="1"></path>
    <path id="vector_3" stroke="#4147d5" stroke-linecap="round" stroke-linejoin="round" d="M10 12.5a2.5 2.5 0 1 0 0 -5 2.5 2.5 0 0 0 0 5Z" stroke-width="1"></path>
    <path id="vector_4" stroke="#4147d5" stroke-linecap="round" stroke-linejoin="round" d="m13.5 13.5 -1.73 -1.73" stroke-width="1"></path>
    <path id="vector 2652" stroke="#4147d5" stroke-linecap="round" stroke-linejoin="round" d="M7 2v0A1.5 1.5 0 0 0 5.5 0.5h-5v10h5" stroke-width="1"></path>
    <path id="vector 2655" stroke="#4147d5" stroke-linecap="round" stroke-linejoin="round" d="M13.5 7.5v-7l-5 0A1.5 1.5 0 0 0 7 2" stroke-width="1"></path>
    <path id="vector 2656" stroke="#4147d5" stroke-linecap="round" stroke-linejoin="round" d="M7 2v4.5" stroke-width="1"></path>
  </g>
</svg>