<svg xmlns="http://www.w3.org/2000/svg" fill="none" viewBox="0 0 14 14" id="Group-Meeting-Call--Streamline-Core">
  <desc>
    Group Meeting Call Streamline Icon: https://streamlinehq.com
  </desc>
  <g id="group-meeting-call--group-meeting-call-work">
    <path id="Vector" fill="#d7e0ff" d="M11.782 0.545H2.218a0.718 0.718 0 0 0 -0.718 0.718V6c0 0.397 0.322 0.718 0.718 0.718h9.564A0.718 0.718 0 0 0 12.5 6V1.263a0.718 0.718 0 0 0 -0.718 -0.718Z" stroke-width="1"></path>
    <path id="Vector_2" fill="#d7e0ff" d="M3.48 10.533a1.141 1.141 0 1 0 0 -2.283 1.141 1.141 0 0 0 0 2.283Z" stroke-width="1"></path>
    <path id="Vector_3" fill="#ffffff" d="M7 4.013a1.048 1.048 0 1 0 0 -2.097 1.048 1.048 0 0 0 0 2.097Z" stroke-width="1"></path>
    <path id="Vector_4" fill="#d7e0ff" d="M10.525 10.533a1.141 1.141 0 1 0 0 -2.283 1.141 1.141 0 0 0 0 2.283Z" stroke-width="1"></path>
    <path id="Vector_5" stroke="#4147d5" stroke-linecap="round" stroke-linejoin="round" d="M3.48 10.533a1.141 1.141 0 1 0 0 -2.283 1.141 1.141 0 0 0 0 2.283Z" stroke-width="1"></path>
    <path id="Vector_6" fill="#d7e0ff" d="M1.692 12.486a2.06 2.06 0 0 0 -0.267 0.993h4.109a2.06 2.06 0 0 0 -0.267 -0.993 2.077 2.077 0 0 0 -1.787 -1.045 2.077 2.077 0 0 0 -1.788 1.045Z" stroke-width="1"></path>
    <path id="Vector_7" fill="#ffffff" d="M5.266 5.756a1.996 1.996 0 0 0 -0.259 0.962h3.984a1.996 1.996 0 0 0 -0.259 -0.962A2.013 2.013 0 0 0 7 4.743a2.013 2.013 0 0 0 -1.733 1.013Z" stroke-width="1"></path>
    <path id="Vector_8" stroke="#4147d5" stroke-linecap="round" stroke-linejoin="round" d="M1.425 13.479a2.06 2.06 0 0 1 0.267 -0.993 2.077 2.077 0 0 1 1.788 -1.045 2.077 2.077 0 0 1 1.787 1.045c0.172 0.303 0.263 0.645 0.267 0.993" stroke-width="1"></path>
    <path id="Vector_9" stroke="#4147d5" stroke-linecap="round" stroke-linejoin="round" d="M10.525 10.533a1.141 1.141 0 1 0 0 -2.283 1.141 1.141 0 0 0 0 2.283Z" stroke-width="1"></path>
    <path id="Vector_10" fill="#d7e0ff" d="M8.737 12.486a2.06 2.06 0 0 0 -0.267 0.993h4.109a2.058 2.058 0 0 0 -2.055 -2.038 2.077 2.077 0 0 0 -1.787 1.045Z" stroke-width="1"></path>
    <path id="Vector_11" stroke="#4147d5" stroke-linecap="round" stroke-linejoin="round" d="M8.47 13.479a2.06 2.06 0 0 1 0.267 -0.993 2.077 2.077 0 0 1 1.787 -1.045 2.058 2.058 0 0 1 2.055 2.037" stroke-width="1"></path>
    <path id="Vector_12" stroke="#4147d5" stroke-linecap="round" stroke-linejoin="round" d="M6.999 4.013a1.048 1.048 0 1 0 0 -2.097 1.048 1.048 0 0 0 0 2.097Z" stroke-width="1"></path>
    <path id="Vector_13" stroke="#4147d5" stroke-linecap="round" stroke-linejoin="round" d="M5.008 6.718c0.003 -0.337 0.092 -0.668 0.258 -0.962A2.013 2.013 0 0 1 7 4.743c0.71 0.001 1.383 0.394 1.733 1.013 0.166 0.294 0.255 0.625 0.259 0.962" stroke-width="1"></path>
    <path id="Vector_14" stroke="#4147d5" stroke-linecap="round" stroke-linejoin="round" d="M11.782 0.545H2.218a0.718 0.718 0 0 0 -0.718 0.718V6c0 0.397 0.322 0.718 0.718 0.718h9.564A0.718 0.718 0 0 0 12.5 6V1.263a0.718 0.718 0 0 0 -0.718 -0.718Z" stroke-width="1"></path>
  </g>
</svg>