<svg xmlns="http://www.w3.org/2000/svg" fill="none" viewBox="0 0 14 14" id="Office-Building-1--Streamline-Core">
  <desc>
    Office Building 1 Streamline Icon: https://streamlinehq.com
  </desc>
  <g id="office-building-1--office-building-work">
    <path id="Vector" fill="#d7e0ff" d="M2.65523 0.578735c-0.56089 0 -1.01558 0.454695 -1.01558 1.015575V13.4211h6.82163V1.59431c0 -0.56088 -0.45467 -1.015575 -1.01557 -1.015575H2.65523Z" stroke-width="1"></path>
    <path id="Vector_2" stroke="#4147d5" stroke-linecap="round" stroke-linejoin="round" d="M8.46128 4.75V1.59431c0 -0.56088 -0.45467 -1.015575 -1.01557 -1.015575H2.65523c-0.56089 0 -1.01558 0.454695 -1.01558 1.015575V13.4211" stroke-width="1"></path>
    <path id="Vector_3" stroke="#4147d5" stroke-linecap="round" stroke-linejoin="round" d="M0.518555 13.4213H5.4873" stroke-width="1"></path>
    <path id="Vector_4" stroke="#4147d5" stroke-linecap="round" stroke-linejoin="round" d="m1.63965 3.18689 2.46012 0" stroke-width="1"></path>
    <path id="Vector_5" stroke="#4147d5" stroke-linecap="round" stroke-linejoin="round" d="m1.63965 5.74939 3.84765 0" stroke-width="1"></path>
    <path id="Vector_6" fill="#ffffff" d="M10.4803 10.0319c0.9667 0 1.7504 -0.78371 1.7504 -1.75041s-0.7837 -1.75036 -1.7504 -1.75036c-0.96666 0 -1.75032 0.78366 -1.75032 1.75036 0 0.9667 0.78366 1.75041 1.75032 1.75041Z" stroke-width="1"></path>
    <path id="Vector_7" fill="#ffffff" d="M7.86838 11.9616c-0.25034 0.4455 -0.38443 0.9476 -0.38974 1.4594h6.00346c-0.0053 -0.5118 -0.1394 -1.0139 -0.3897 -1.4594 -0.5276 -0.9388 -1.5408 -1.5349 -2.612 -1.5373 -1.07125 0.0024 -2.08446 0.5985 -2.61202 1.5373Z" stroke-width="1"></path>
    <path id="Vector_8" stroke="#4147d5" stroke-linecap="round" stroke-linejoin="round" d="M10.4803 10.0319c0.9667 0 1.7504 -0.78371 1.7504 -1.75041s-0.7837 -1.75036 -1.7504 -1.75036c-0.96666 0 -1.75032 0.78366 -1.75032 1.75036 0 0.9667 0.78366 1.75041 1.75032 1.75041Z" stroke-width="1"></path>
    <path id="Vector_9" stroke="#4147d5" stroke-linecap="round" stroke-linejoin="round" d="M7.47864 13.421c0.00531 -0.5118 0.1394 -1.0139 0.38974 -1.4594 0.52756 -0.9388 1.54077 -1.5349 2.61202 -1.5373 1.0712 0.0024 2.0844 0.5985 2.612 1.5373 0.2503 0.4455 0.3844 0.9476 0.3897 1.4594" stroke-width="1"></path>
  </g>
</svg>