<svg xmlns="http://www.w3.org/2000/svg" fill="none" viewBox="0 0 14 14"><g id="strategy-tasks--strategy-tasks-work"><path id="Vector" fill="#37d7ff" d="M9.5 1.5H11a1 1 0 0 1 1 1v10a1 1 0 0 1-1 1H3a1 1 0 0 1-1-1v-10a1 1 0 0 1 1-1h1.5"></path><path id="Vector_2" stroke="#3e3e3e" stroke-linecap="round" stroke-linejoin="round" d="M9.5 1.5H11a1 1 0 0 1 1 1v10a1 1 0 0 1-1 1H3a1 1 0 0 1-1-1v-10a1 1 0 0 1 1-1h1.5"></path><path id="Vector_3" fill="#ffffff" d="M8.5.5h-3a1 1 0 0 0-1 1V2a1 1 0 0 0 1 1h3a1 1 0 0 0 1-1v-.5a1 1 0 0 0-1-1Z"></path><path id="Vector_4" stroke="#3e3e3e" stroke-linecap="round" stroke-linejoin="round" d="M8.5.5h-3a1 1 0 0 0-1 1V2a1 1 0 0 0 1 1h3a1 1 0 0 0 1-1v-.5a1 1 0 0 0-1-1Z"></path><path id="Vector_5" stroke="#3e3e3e" stroke-linecap="round" stroke-linejoin="round" d="M4.046 6.203a1.25 1.25 0 1 0 2.5 0 1.25 1.25 0 0 0-2.5 0Z"></path><path id="Vector_6" stroke="#3e3e3e" stroke-linecap="round" stroke-linejoin="round" d="m7.452 8.833 2.5 2.5"></path><path id="Vector_7" stroke="#3e3e3e" stroke-linecap="round" stroke-linejoin="round" d="m9.954 8.833-2.5 2.5"></path></g></svg>