<svg xmlns="http://www.w3.org/2000/svg" fill="none" viewBox="0 0 14 14" id="Workspace-Desk--Streamline-Core">
  <desc>
    Workspace Desk Streamline Icon: https://streamlinehq.com
  </desc>
  <g id="workspace-desk--workspace-desk-work">
    <path id="Vector" fill="#d7e0ff" d="M2.2023 8.02527c-0.61223 0 -1.10855 0.49632 -1.10855 1.10855v1.07558H12.9061V9.13382c0 -0.61223 -0.4963 -1.10855 -1.1086 -1.10855H2.2023Z" stroke-width="1"></path>
    <path id="Vector_2" fill="#ffffff" d="M10.0363 0.500031H3.96343c-0.43298 0 -0.78399 0.351002 -0.78399 0.783989v3.59877c0 0.43298 0.35101 0.78398 0.78399 0.78398h6.07287c0.433 0 0.784 -0.351 0.784 -0.78398V1.28402c0 -0.432987 -0.351 -0.783989 -0.784 -0.783989Z" stroke-width="1"></path>
    <path id="Vector_3" stroke="#4147d5" stroke-linecap="round" stroke-linejoin="round" d="M12.9061 13.5V9.13382c0 -0.61223 -0.4963 -1.10855 -1.1086 -1.10855H2.2023c-0.61223 0 -1.10855 0.49632 -1.10855 1.10855V13.5" stroke-width="1"></path>
    <path id="Vector_4" stroke="#4147d5" stroke-linecap="round" stroke-linejoin="round" d="M10.0362 0.500031H3.96337c-0.43299 0 -0.78399 0.351002 -0.78399 0.783989v3.59877c0 0.43298 0.351 0.78398 0.78399 0.78398h6.07283c0.433 0 0.784 -0.351 0.784 -0.78398V1.28402c0 -0.432987 -0.351 -0.783989 -0.784 -0.783989Z" stroke-width="1"></path>
    <path id="Vector 1285" stroke="#4147d5" stroke-linecap="round" stroke-linejoin="round" d="m7.00067 5.66687 -0.00198 2.35834" stroke-width="1"></path>
    <path id="Vector 1286" stroke="#4147d5" stroke-linecap="round" stroke-linejoin="round" d="M1.09375 10.2122H12.9068" stroke-width="1"></path>
  </g>
</svg>