<svg xmlns="http://www.w3.org/2000/svg" fill="none" viewBox="0 0 24 24" id="Discord-Logo-2--Streamline-Logos">
  <desc>
    Discord Logo 2 Streamline Icon: https://streamlinehq.com
  </desc>
  <path stroke="#000000" stroke-linejoin="round" d="M7 12.75a1.5 1.75 0 1 0 3 0 1.5 1.75 0 1 0 -3 0" stroke-width="1"></path>
  <path stroke="#000000" stroke-linejoin="round" d="M14 12.75a1.5 1.75 0 1 0 3 0 1.5 1.75 0 1 0 -3 0" stroke-width="1"></path>
  <path stroke="#000000" stroke-linecap="round" stroke-linejoin="round" d="M9.5 5.5S10.58 5 12 5s2.5 0.5 2.5 0.5L15 4c1.755 0 3.06 0.293 4.5 1 1 1.667 3 6.4 3 12 -1.864 1.924 -3.304 2.736 -5.5 3l-1.5 -2.5c-0.5 0.167 -1.9 0.5 -3.5 0.5s-3 -0.333 -3.5 -0.5L7 20c-2.196 -0.264 -3.636 -1.076 -5.5 -3 0 -5.6 2 -10.333 3 -12C5.94 4.293 7.245 4 9 4l0.5 1.5Z" stroke-width="1"></path>
  <path stroke="#000000" stroke-linecap="round" stroke-linejoin="round" d="M8.5 17.5c-1.086 -0.277 -2 -1 -2 -1" stroke-width="1"></path>
  <path stroke="#000000" stroke-linecap="round" stroke-linejoin="round" d="M15.5 17.5c1.086 -0.277 2 -1 2 -1" stroke-width="1"></path>
</svg>