<svg xmlns="http://www.w3.org/2000/svg" fill="none" viewBox="0 0 24 24" id="Cash-Payment-Bill--Streamline-Ultimate">
  <desc>
    Cash Payment Bill Streamline Icon: https://streamlinehq.com
  </desc>
  <path stroke="#000000" stroke-linecap="round" stroke-linejoin="round" d="M0.75 14.25v9" stroke-width="1.5"></path>
  <path stroke="#000000" stroke-linecap="round" stroke-linejoin="round" d="M0.75 21.75h16.5c0 -0.7956 -0.3161 -1.5587 -0.8787 -2.1213 -0.5626 -0.5626 -1.3257 -0.8787 -2.1213 -0.8787H10.5c0 -0.7956 -0.3161 -1.5587 -0.87868 -2.1213C9.05871 16.0661 8.29565 15.75 7.5 15.75H0.75" stroke-width="1.5"></path>
  <path stroke="#000000" stroke-linecap="round" stroke-linejoin="round" d="M6.75 18.75h3.75" stroke-width="1.5"></path>
  <path stroke="#000000" stroke-linecap="round" stroke-linejoin="round" d="M6.63001 0.75H21.87c0.3696 0.00527 0.7221 0.156467 0.9806 0.42061 0.2585 0.26414 0.4021 0.6198 0.3994 0.98939v8.68c0.0027 0.3696 -0.1409 0.7252 -0.3994 0.9894 -0.2585 0.2641 -0.611 0.4153 -0.9806 0.4206H6.63001c-0.36957 -0.0053 -0.72205 -0.1565 -0.98058 -0.4206 -0.25852 -0.2642 -0.4021 -0.6198 -0.39942 -0.9894V2.16c-0.00268 -0.36959 0.1409 -0.72525 0.39942 -0.98939 0.25853 -0.264143 0.61101 -0.41534 0.98058 -0.42061Z" stroke-width="1.5"></path>
  <path stroke="#000000" stroke-linecap="round" stroke-linejoin="round" d="M12 6.5c0 0.59674 0.2371 1.16903 0.659 1.59099 0.422 0.42196 0.9943 0.65901 1.591 0.65901s1.169 -0.23705 1.591 -0.65901c0.4219 -0.42196 0.659 -0.99425 0.659 -1.59099 0 -0.59674 -0.2371 -1.16903 -0.659 -1.59099 -0.422 -0.42196 -0.9943 -0.65901 -1.591 -0.65901s-1.169 0.23705 -1.591 0.65901C12.2371 5.33097 12 5.90326 12 6.5Z" stroke-width="1.5"></path>
  <path stroke="#000000" stroke-linecap="round" stroke-linejoin="round" d="M8 4h1.5" stroke-width="1.5"></path>
  <path stroke="#000000" stroke-linecap="round" stroke-linejoin="round" d="M19 9h1.5" stroke-width="1.5"></path>
</svg>