<svg xmlns="http://www.w3.org/2000/svg" fill="none" viewBox="0 0 24 24" id="Cash-Payment-Sign-2--Streamline-Ultimate">
  <desc>
    Cash Payment Sign 2 Streamline Icon: https://streamlinehq.com
  </desc>
  <path stroke="#000000" stroke-linecap="round" stroke-linejoin="round" d="m8.212 15.637 -3.712 0.53 0.53 -3.712 9.546 -9.54599c0.2089 -0.20893 0.457 -0.37466 0.73 -0.48774 0.2729 -0.11307 0.5655 -0.17127 0.861 -0.17127s0.5881 0.0582 0.861 0.17127c0.273 0.11308 0.5211 0.27881 0.73 0.48774 0.2089 0.20894 0.3747 0.45698 0.4877 0.72996 0.1131 0.27299 0.1713 0.56557 0.1713 0.86104 0 0.29548 -0.0582 0.58806 -0.1713 0.86105 -0.113 0.27298 -0.2788 0.52102 -0.4877 0.72995L8.212 15.637Z" stroke-width="1.5"></path>
  <path stroke="#000000" stroke-linecap="round" stroke-linejoin="round" d="M5.25 8.25h-3c-0.39782 0 -0.77936 0.15804 -1.06066 0.43934C0.908035 8.97064 0.75 9.35218 0.75 9.75v10.5c0 0.3978 0.158035 0.7794 0.43934 1.0607 0.2813 0.2813 0.66284 0.4393 1.06066 0.4393h19.5c0.3978 0 0.7794 -0.158 1.0607 -0.4393s0.4393 -0.6629 0.4393 -1.0607V9.75c0 -0.39782 -0.158 -0.77936 -0.4393 -1.06066 -0.2813 -0.2813 -0.6629 -0.43934 -1.0607 -0.43934h-1.5" stroke-width="1.5"></path>
  <path stroke="#000000" stroke-linecap="round" stroke-linejoin="round" d="M20.25 18h-7.5" stroke-width="1.5"></path>
  <path stroke="#000000" stroke-linecap="round" stroke-linejoin="round" d="M20.25 14.25h-4.5" stroke-width="1.5"></path>
</svg>