<svg xmlns="http://www.w3.org/2000/svg" fill="none" viewBox="0 0 24 24" id="Coin-Purse-1--Streamline-Ultimate">
  <desc>
    Coin Purse 1 Streamline Icon: https://streamlinehq.com
  </desc>
  <path stroke="#000000" stroke-linecap="round" stroke-linejoin="round" d="M7 3.5c0 0.49728 0.19754 0.97419 0.54917 1.32583 0.35164 0.35163 0.82855 0.54917 1.32583 0.54917 0.49728 0 0.97419 -0.19754 1.3258 -0.54917 0.3517 -0.35164 0.5492 -0.82855 0.5492 -1.32583 0 -0.49728 -0.1975 -0.97419 -0.5492 -1.32583 -0.35161 -0.35163 -0.82852 -0.54917 -1.3258 -0.54917 -0.49728 0 -0.97419 0.19754 -1.32583 0.54917C7.19754 2.52581 7 3.00272 7 3.5Z" stroke-width="1"></path>
  <path stroke="#000000" stroke-linecap="round" stroke-linejoin="round" d="M13 3.5c0 0.49728 0.1975 0.97419 0.5492 1.32583 0.3516 0.35163 0.8285 0.54917 1.3258 0.54917 0.4973 0 0.9742 -0.19754 1.3258 -0.54917 0.3517 -0.35164 0.5492 -0.82855 0.5492 -1.32583 0 -0.49728 -0.1975 -0.97419 -0.5492 -1.32583 -0.3516 -0.35163 -0.8285 -0.54917 -1.3258 -0.54917 -0.4973 0 -0.9742 0.19754 -1.3258 0.54917C13.1975 2.52581 13 3.00272 13 3.5Z" stroke-width="1"></path>
  <path stroke="#000000" stroke-linecap="round" stroke-linejoin="round" d="M0.75 9.625c0 -0.59674 0.237053 -1.16903 0.65901 -1.59099C1.83097 7.61205 2.40326 7.375 3 7.375h18c0.5967 0 1.169 0.23705 1.591 0.65901 0.4219 0.42196 0.659 0.99425 0.659 1.59099" stroke-width="1"></path>
  <path stroke="#000000" stroke-linecap="round" stroke-linejoin="round" d="M17.2 22.375H6.79999c-0.70149 0 -1.39325 -0.1641 -2.02007 -0.479 -0.62682 -0.315 -1.17133 -0.7721 -1.59006 -1.3349 -0.41873 -0.5628 -0.70008 -1.2157 -0.8216 -1.9066 -0.12151 -0.6909 -0.07983 -1.4006 0.12173 -2.0725l2.76 -9.207H18.75l2.762 9.207c0.2016 0.6721 0.2433 1.382 0.1216 2.073 -0.1216 0.691 -0.4031 1.3441 -0.8221 1.9069 -0.4189 0.5629 -0.9637 1.02 -1.5908 1.3348 -0.627 0.3148 -1.319 0.4786 -2.0207 0.4783Z" stroke-width="1"></path>
</svg>