<svg xmlns="http://www.w3.org/2000/svg" fill="none" viewBox="0 0 24 24" id="Crypto-Currency-Bitcoin-Code--Streamline-Ultimate">
  <desc>
    Crypto Currency Bitcoin Code Streamline Icon: https://streamlinehq.com
  </desc>
  <path stroke="#000000" stroke-linecap="round" stroke-linejoin="round" d="M1.88 0.75h0.75001c0.1981 0.00259 0.38737 0.082439 0.52746 0.222534 0.1401 0.140096 0.21995 0.329356 0.22254 0.527466v5.25" stroke-width="1.5"></path>
  <path stroke="#000000" stroke-linecap="round" stroke-linejoin="round" d="M1.88 6.75h3" stroke-width="1.5"></path>
  <path stroke="#000000" stroke-linecap="round" stroke-linejoin="round" d="M10.88 5.25c0 0.39782 -0.158 0.77936 -0.4393 1.06066 -0.2813 0.2813 -0.66287 0.43934 -1.0607 0.43934 -0.39782 0 -0.77935 -0.15804 -1.06066 -0.43934C8.03804 6.02936 7.88 5.64782 7.88 5.25v-3c0 -0.39782 0.15804 -0.77936 0.43934 -1.06066C8.60065 0.908035 8.98218 0.75 9.38 0.75c0.39783 0 0.7794 0.158035 1.0607 0.43934 0.2813 0.2813 0.4393 0.66284 0.4393 1.06066v3Z" stroke-width="1.5"></path>
  <path stroke="#000000" stroke-linecap="round" stroke-linejoin="round" d="M13.87 0.75h0.75c0.1989 0 0.3897 0.079018 0.5303 0.21967 0.1407 0.14065 0.2197 0.33142 0.2197 0.53033v5.25" stroke-width="1.5"></path>
  <path stroke="#000000" stroke-linecap="round" stroke-linejoin="round" d="M13.87 6.75h3" stroke-width="1.5"></path>
  <path stroke="#000000" stroke-linecap="round" stroke-linejoin="round" d="M22.87 5.25c0 0.39782 -0.158 0.77936 -0.4393 1.06066 -0.2813 0.2813 -0.6629 0.43934 -1.0607 0.43934 -0.3978 0 -0.7793 -0.15804 -1.0607 -0.43934 -0.2813 -0.2813 -0.4393 -0.66284 -0.4393 -1.06066v-3c0 -0.39782 0.158 -0.77936 0.4393 -1.06066C20.5907 0.908035 20.9722 0.75 21.37 0.75c0.3978 0 0.7794 0.158035 1.0607 0.43934 0.2813 0.2813 0.4393 0.66284 0.4393 1.06066v3Z" stroke-width="1.5"></path>
  <path stroke="#000000" stroke-linecap="round" stroke-linejoin="round" d="M15.37 9c0.3978 0 0.7794 0.15804 1.0607 0.43934s0.4393 0.66286 0.4393 1.06066V12" stroke-width="1.5"></path>
  <path stroke="#000000" stroke-linecap="round" stroke-linejoin="round" d="M19.87 9h0.75c0.1989 0 0.3897 0.07902 0.5303 0.21967 0.1407 0.14065 0.2197 0.33142 0.2197 0.53033V15" stroke-width="1.5"></path>
  <path stroke="#000000" stroke-linecap="round" stroke-linejoin="round" d="M19.87 15h3" stroke-width="1.5"></path>
  <path stroke="#000000" stroke-linecap="round" stroke-linejoin="round" d="M22.87 21.75c0 0.3978 -0.158 0.7794 -0.4393 1.0607s-0.6629 0.4393 -1.0607 0.4393c-0.3978 0 -0.7793 -0.158 -1.0607 -0.4393 -0.2813 -0.2813 -0.4393 -0.6629 -0.4393 -1.0607v-3c0 -0.3978 0.158 -0.7794 0.4393 -1.0607 0.2814 -0.2813 0.6629 -0.4393 1.0607 -0.4393 0.3978 0 0.7794 0.158 1.0607 0.4393s0.4393 0.6629 0.4393 1.0607v3Z" stroke-width="1.5"></path>
  <path stroke="#000000" stroke-linecap="round" stroke-linejoin="round" d="M6.38 16.5h2.5" stroke-width="1.5"></path>
  <path stroke="#000000" stroke-linecap="round" stroke-linejoin="round" d="M7.88 13.5v-0.75" stroke-width="1.5"></path>
  <path stroke="#000000" stroke-linecap="round" stroke-linejoin="round" d="M7.88 19.5v0.75" stroke-width="1.5"></path>
  <path stroke="#000000" stroke-linecap="round" stroke-linejoin="round" d="M8.88 13.5c0.3637 0.0355 0.69879 0.2128 0.93273 0.4936 0.23397 0.2807 0.34797 0.6423 0.31727 1.0064 0.0307 0.3641 -0.0833 0.7257 -0.31727 1.0064 -0.23394 0.2808 -0.56903 0.4581 -0.93273 0.4936 0.3637 0.0355 0.69879 0.2128 0.93273 0.4936 0.23397 0.2807 0.34797 0.6423 0.31727 1.0064 0.0307 0.3641 -0.0833 0.7257 -0.31727 1.0064 -0.23394 0.2808 -0.56903 0.4581 -0.93273 0.4936h-2.5v-6h2.5Z" stroke-width="1.5"></path>
  <path stroke="#000000" stroke-linecap="round" stroke-linejoin="round" d="M1.13 16.5c0 0.8864 0.1746 1.7642 0.51382 2.5831 0.33922 0.819 0.83642 1.5631 1.46321 2.1899 0.6268 0.6268 1.37091 1.124 2.18986 1.4632 0.81895 0.3392 1.69669 0.5138 2.58311 0.5138 0.88643 0 1.76417 -0.1746 2.5831 -0.5138 0.819 -0.3392 1.5631 -0.8364 2.1899 -1.4632 0.6268 -0.6268 1.124 -1.3709 1.4632 -2.1899 0.3392 -0.8189 0.5138 -1.6967 0.5138 -2.5831 0 -1.7902 -0.7112 -3.5071 -1.977 -4.773C11.3871 10.4612 9.67022 9.75 7.88 9.75c-1.79021 0 -3.5071 0.7112 -4.77297 1.977C1.84116 12.9929 1.13 14.7098 1.13 16.5Z" stroke-width="1.5"></path>
  <path stroke="#000000" stroke-linecap="round" stroke-linejoin="round" d="M15.37 21.75v1.5" stroke-width="1.5"></path>
  <path stroke="#000000" stroke-linecap="round" stroke-linejoin="round" d="M13.87 23.25h3" stroke-width="1.5"></path>
</svg>