<svg xmlns="http://www.w3.org/2000/svg" fill="none" viewBox="0 0 24 24" id="Money-Bag-Dollar--Streamline-Ultimate">
  <desc>
    Money Bag Dollar Streamline Icon: https://streamlinehq.com
  </desc>
  <path stroke="#000000" stroke-linecap="round" stroke-linejoin="round" d="M13.574 12.75h-2.033c-0.3116 0.0002 -0.6134 0.1088 -0.8536 0.3072 -0.2402 0.1984 -0.404 0.4742 -0.4631 0.7801 -0.0591 0.3059 -0.0099 0.6229 0.1391 0.8965 0.149 0.2736 0.3886 0.4869 0.6776 0.6032l2.064 0.826c0.289 0.1163 0.5286 0.3296 0.6776 0.6032 0.149 0.2736 0.1982 0.5906 0.1391 0.8965 -0.0591 0.3059 -0.2229 0.5817 -0.4631 0.7801 -0.2402 0.1984 -0.542 0.307 -0.8536 0.3072h-2.031" stroke-width="1.5"></path>
  <path stroke="#000000" stroke-linecap="round" stroke-linejoin="round" d="M12.074 12.75V12" stroke-width="1.5"></path>
  <path stroke="#000000" stroke-linecap="round" stroke-linejoin="round" d="M12.074 19.5v-0.75" stroke-width="1.5"></path>
  <path stroke="#000000" stroke-linecap="round" stroke-linejoin="round" d="M6.82401 8.25H17.324" stroke-width="1.5"></path>
  <path stroke="#000000" stroke-linecap="round" stroke-linejoin="round" d="m15.63 5.03592 1.438 -2.876c0.0703 -0.14076 0.0945 -0.30006 0.0692 -0.45534 -0.0252 -0.15529 -0.0987 -0.2987 -0.2099 -0.40994 -0.1113 -0.11125 -0.2547 -0.18469 -0.41 -0.20995 -0.1552 -0.02525 -0.3145 -0.00103 -0.4553 0.06923l-1.9 0.948c-0.1635 0.0816 -0.3511 0.10073 -0.5277 0.05377 -0.1766 -0.04695 -0.33 -0.15675 -0.4313 -0.30877l-0.503 -0.763c-0.0685 -0.10272 -0.1613 -0.186942 -0.2701 -0.245192C12.321 0.780478 12.1995 0.75 12.076 0.75s-0.245 0.030478 -0.3539 0.088728c-0.1088 0.05825 -0.2016 0.142472 -0.2701 0.245192l-0.509 0.763c-0.1012 0.15219 -0.2546 0.26213 -0.4312 0.3091 -0.1767 0.04696 -0.3644 0.02772 -0.52781 -0.0541l-1.897 -0.948c-0.1408 -0.06993 -0.3 -0.09391 -0.45516 -0.06856 -0.15515 0.02535 -0.29844 0.09876 -0.40966 0.20987 -0.11123 0.11111 -0.18478 0.25433 -0.21028 0.40946 -0.02551 0.15513 -0.00169 0.31435 0.0681 0.45523l1.41 2.82" stroke-width="1.5"></path>
  <path stroke="#000000" stroke-linecap="round" stroke-linejoin="round" d="m7.237 10.5 -2.76 3.2c-0.6754 0.8779 -1.09149 1.9274 -1.20116 3.0297 -0.10967 1.1022 0.09145 2.2131 0.5806 3.2069 0.48916 0.9938 1.24679 1.8308 2.18711 2.4162 0.94033 0.5854 2.02578 0.8959 3.13345 0.8962h5.79c1.1077 -0.0003 2.1931 -0.3108 3.1334 -0.8962 0.9404 -0.5854 1.698 -1.4224 2.1871 -2.4162 0.4892 -0.9938 0.6903 -2.1047 0.5807 -3.2069 -0.1097 -1.1023 -0.5258 -2.1518 -1.2012 -3.0297l-2.76 -3.2" stroke-width="1.5"></path>
</svg>