<svg xmlns="http://www.w3.org/2000/svg" fill="none" viewBox="0 0 48 48" id="Intellectual--Streamline-Plump">
  <desc>
    Intellectual Streamline Icon: https://streamlinehq.com
  </desc>
  <g id="intellectual--disability-intellectual">
    <path id="Union" stroke="#000000" stroke-linecap="round" stroke-linejoin="round" d="M39.3132 20.2858C39.1974 10.7195 31.3236 3 21.6275 3 11.8592 3 3.94043 10.835 3.94043 20.4999c0 5.7253 2.77883 10.8085 7.07487 14.0011v7.1625c0 1.2948 0.8367 2.4259 2.1104 2.6586 1.748 0.3195 4.582 0.6776 8.5018 0.6776 3.9198 0 6.7538 -0.3581 8.5018 -0.6776 1.2737 -0.2327 2.1104 -1.3638 2.1104 -2.6586v-3.2257l2.8 0.3463c1.6899 0.209 3.2147 -1.0288 3.3576 -2.7255l0.5658 -6.7175c1.6712 -0.4038 2.9033 -0.9883 3.734 -1.4881 0.8272 -0.4977 0.9256 -1.5591 0.3629 -2.3436l-3.7468 -5.2236Z" stroke-width="3"></path>
    <path id="Ellipse 451" stroke="#000000" stroke-linecap="round" stroke-linejoin="round" d="M15.6575 10.4537c-4.6642 2.6929 -6.7528 8.1337 -5.4015 13.0968 0.4353 1.5987 2.3155 2.0899 3.7504 1.2614l14.9113 -8.609c1.4348 -0.8284 1.9496 -2.7023 0.7827 -3.8786 -3.6225 -3.65184 -9.3787 -4.56345 -14.0429 -1.8706Z" stroke-width="3"></path>
  </g>
</svg>