<svg xmlns="http://www.w3.org/2000/svg" fill="none" viewBox="0 0 48 48" id="Location-Pin-3--Streamline-Plump">
  <desc>
    Location Pin 3 Streamline Icon: https://streamlinehq.com
  </desc>
  <g id="location-pin-3--navigation-map-maps-pin-gps-location">
    <path id="Rectangle 180" stroke="#000000" stroke-linecap="round" stroke-linejoin="round" d="m37.5 33.26 0.58 0.032c1.215 0.068 2.301 0.733 2.848 1.82a33.521 33.521 0 0 1 2.423 6.38c0.44 1.657 -0.775 3.19 -2.487 3.26C37.998 44.87 32.824 45 24 45c-8.824 0 -13.998 -0.13 -16.864 -0.247 -1.712 -0.07 -2.926 -1.605 -2.487 -3.26a33.523 33.523 0 0 1 2.423 -6.381c0.547 -1.087 1.633 -1.752 2.848 -1.82l0.58 -0.031" stroke-width="3"></path>
    <path id="Ellipse 517" stroke="#000000" stroke-linecap="round" stroke-linejoin="round" d="M39 18.07c0 10.63 -10.748 18.26 -14.048 20.353a1.766 1.766 0 0 1 -1.904 0C19.748 36.331 9 28.7 9 18.07 9 9.747 15.716 3 24 3c8.284 0 15 6.747 15 15.07Z" stroke-width="3"></path>
    <path id="Ellipse 27" stroke="#000000" stroke-linecap="round" stroke-linejoin="round" d="M30 18a6 6 0 1 1 -12 0 6 6 0 0 1 12 0Z" stroke-width="3"></path>
  </g>
</svg>