<svg xmlns="http://www.w3.org/2000/svg" fill="none" viewBox="0 0 48 48" id="Man-Arm-Raises-2-Alternate--Streamline-Plump">
  <desc>
    Man Arm Raises 2 Alternate Streamline Icon: https://streamlinehq.com
  </desc>
  <g id="man-arm-raises-2-alternate--man-raise-arm-scaning-detect-posture-security">
    <path id="Ellipse 137" stroke="#000000" stroke-linecap="round" stroke-linejoin="round" d="M18 9a6 6 0 1 0 12 0 6 6 0 0 0 -12 0Z" stroke-width="3"></path>
    <path id="Vector" stroke="#000000" stroke-linecap="round" stroke-linejoin="round" d="m7.018 11.626 9.441 2.926a9.998 9.998 0 0 0 2.96 0.448h9.143a10 10 0 0 0 2.998 -0.46l9.299 -2.922c1.185 -0.372 2.536 0 3.067 1.123 0.715 1.512 0.709 2.8 0.514 3.724 -0.223 1.065 -1.142 1.76 -2.144 2.187L32.096 23l-0.85 18.266c-0.087 1.886 -1.483 3.446 -3.366 3.587A52.2 52.2 0 0 1 24 45c-1.456 0 -2.78 -0.064 -3.878 -0.147 -1.883 -0.14 -3.28 -1.701 -3.367 -3.587L15.905 23l-10.24 -4.3c-1.086 -0.457 -2.07 -1.232 -2.252 -2.396 -0.14 -0.894 -0.102 -2.095 0.51 -3.49 0.51 -1.16 1.885 -1.564 3.095 -1.188Z" stroke-width="3"></path>
    <path id="Vector 1331" stroke="#000000" stroke-linecap="round" stroke-linejoin="round" d="m24 45 0 -13" stroke-width="3"></path>
  </g>
</svg>