<svg xmlns="http://www.w3.org/2000/svg" fill="none" viewBox="0 0 48 48" id="Sail-Ship--Streamline-Plump">
  <desc>
    Sail Ship Streamline Icon: https://streamlinehq.com
  </desc>
  <g id="sail-ship---travel-boat-transportation-transport-ocean-ship-sea-water">
    <path id="Vector" stroke="#000000" stroke-linecap="round" stroke-linejoin="round" d="M4.61862 41.084c-1.56185 -3.3005 -2.19206 -6.2515 -2.44636 -8.0956C2.02137 31.8942 2.89567 31 4.00024 31H44.0002c1.1046 0 1.9789 0.8942 1.828 1.9884 -0.2543 1.8441 -0.8845 4.7951 -2.4463 8.0956 -1.1015 2.3275 -3.5352 3.6319 -6.1092 3.7056 -3.3751 0.0967 -8.3847 0.2104 -13.2725 0.2104 -4.8877 0 -9.8974 -0.1137 -13.2725 -0.2104 -2.57395 -0.0737 -5.00762 -1.3781 -6.10908 -3.7056Z" stroke-width="1"></path>
    <path id="Vector_2" stroke="#000000" stroke-linecap="round" stroke-linejoin="round" d="M44.5 37h-41" stroke-width="1"></path>
    <path id="Vector 2558" stroke="#000000" stroke-linecap="round" stroke-linejoin="round" d="M8.18035 20.8079C10.7704 16.1249 15.4491 8.53175 21.0189 3.41625c1.1917 -1.09449 2.981 -0.19284 2.981 1.42521V25.0001H10.7273c-2.19906 0 -3.61127 -2.2679 -2.54695 -4.1922Z" stroke-width="1"></path>
    <path id="Vector 2561" stroke="#000000" stroke-linecap="round" stroke-linejoin="round" d="M29.5 25.0172h7.8139c2.1887 0 3.6107 -2.2492 2.5817 -4.181C37.583 16.4953 33.6431 9.81234 29.5 5.9668" stroke-width="1"></path>
    <path id="Vector 2562" stroke="#000000" stroke-linecap="round" stroke-linejoin="round" d="m24 25 0 6" stroke-width="1"></path>
  </g>
</svg>