<svg xmlns="http://www.w3.org/2000/svg" fill="none" viewBox="0 0 48 48" id="Suitcase-Rolling--Streamline-Plump">
  <desc>
    Suitcase Rolling Streamline Icon: https://streamlinehq.com
  </desc>
  <g id="suitcase-rolling">
    <path id="Rectangle 1104" stroke="#000000" stroke-linecap="round" stroke-linejoin="round" d="M37.725 38.024c-0.16 2.557 -2.09 4.525 -4.647 4.701 -2.14 0.147 -5.132 0.275 -9.078 0.275 -3.946 0 -6.938 -0.128 -9.078 -0.275 -2.556 -0.176 -4.487 -2.144 -4.647 -4.701C10.13 35.714 10 32.414 10 28c0 -4.413 0.13 -7.714 0.275 -10.024 0.16 -2.557 2.09 -4.525 4.647 -4.701C17.062 13.128 20.054 13 24 13c3.946 0 6.938 0.128 9.078 0.275 2.556 0.176 4.486 2.144 4.647 4.701 0.145 2.31 0.275 5.61 0.275 10.024 0 4.413 -0.13 7.714 -0.275 10.024Z" stroke-width="1"></path>
    <path id="Subtract" stroke="#000000" stroke-linecap="round" stroke-linejoin="round" d="M30.971 13.153a255.157 255.157 0 0 0 -0.144 -6.206c-0.072 -1.97 -1.382 -3.607 -3.345 -3.794C26.547 3.063 25.392 3 24 3a36.77 36.77 0 0 0 -3.482 0.153c-1.963 0.187 -3.273 1.824 -3.346 3.794a255.047 255.047 0 0 0 -0.144 6.206" stroke-width="1"></path>
    <path id="Intersect" stroke="#000000" stroke-linecap="round" stroke-linejoin="round" d="m37.94 33 -27.88 0" stroke-width="1"></path>
    <path id="Vector 2685" stroke="#000000" stroke-linecap="round" stroke-linejoin="round" d="m16 43 0 3" stroke-width="1"></path>
    <path id="Vector 2686" stroke="#000000" stroke-linecap="round" stroke-linejoin="round" d="m32 43 0 3" stroke-width="1"></path>
  </g>
</svg>