<svg xmlns="http://www.w3.org/2000/svg" fill="none" viewBox="0 0 14 14" id="Ear-Hearing--Streamline-Core-Gradient">
  <desc>
    Ear Hearing Streamline Icon: https://streamlinehq.com
  </desc>
  <g id="Free Gradient/Health/ear-hearing--health-medical-hearing-ear">
    <path id="Union" fill="url(#paint0_linear_14402_16409)" fill-rule="evenodd" d="M4.9596.5C2.25824.5.883939 2.4955.528088 3.51188.509496 3.56498.5 3.62084.5 3.6771v7.2374C.5 12.3424 1.65758 13.5 3.08553 13.5h.20911c1.6423 0 2.68483-1.4203 3.14331-2.7217.15241-.4325.38797-.81312.74277-1.1205.07083-.06137.15924-.13.26039-.20853.64259-.49885 1.79964-1.39707 2.23418-3.36996C10.2717 3.37165 8.30979.5 4.9596.5Zm.24473 3.86429c-.74918-.05612-1.20672.52237-1.3376.84487-.1298.31985-.4943.47391-.81415.34411-.31984-.1298-.4739-.49431-.34411-.81415.23151-.57047 1.06666-1.73538 2.58922-1.62134.75791.05676 1.44274.46242 1.87766 1.02081.43855.56305.66361 1.34217.36943 2.12148-.12048.31916-.26357.56783-.43761.76655-.17641.20144-.35982.32274-.51313.41106-.05511.03174-.10322.05835-.14594.08198-.18772.10383-.27136.15008-.38684.32127-.06278.09307-.1207.23725-.18498.46358-.01826.06428-.04051.14977-.06499.24383-.04272.16416-.09224.35441-.13916.50352-.16519.52491-.492 1.24334-1.38533 1.42164-.47855.0955-.86819.0081-1.14646-.1202-.13592-.0627-.24156-.1333-.3168-.1919-.03775-.0294-.06836-.0563-.09184-.0782-.01176-.011-.02179-.0209-.0301-.0293l-.0112-.0116-.00465-.0049-.00208-.0022-.00099-.0011-.00048-.0005c-.00023-.0003-.00047-.0005.46013-.42299l-.4606.42249c-.23331-.25442-.21624-.64978.03814-.88309.24883-.22823.63255-.21687.86755.02181l.00464.00374c.0117.00912.03594.02612.07179.04265.06525.0301.18668.06773.37831.02949.18248-.03642.30329-.14422.43762-.57107.04275-.13584.07173-.24937.10417-.37641.0252-.09866.05247-.20548.08989-.33723.07144-.25153.17222-.55582.35114-.82107.29597-.43877.64597-.62618.8577-.73954l.00009-.00005.00008-.00005c.0326-.01746.06192-.03316.08726-.04775.09023-.05198.14529-.09275.19671-.15146.05381-.06144.12793-.17101.20851-.38445.10792-.28589.04639-.61339-.18614-.91193-.23616-.30319-.6069-.5141-.98486-.5424Zm5.16747 3.68649c.4142 0 .75.33579.75.75 0 1.24622-1.0121 2.25372-2.25705 2.25372-.41422 0-.75-.3358-.75-.75 0-.41418.33578-.74997.75-.74997.41961 0 .757-.339.757-.75375 0-.41421.33579-.75.75005-.75Zm2.3774.07321c.4142 0 .75.33579.75.75 0 2.55641-2.0765 4.62601-4.63445 4.62601-.41422 0-.75-.3358-.75-.75s.33578-.75.75-.75c1.73265 0 3.13445-1.4011 3.13445-3.12601 0-.41421.3358-.75.75-.75Z" clip-rule="evenodd"></path>
  </g>
  <defs>
    <linearGradient id="paint0_linear_14402_16409" x1="14.626" x2="-2.909" y1="16.253" y2="3.799" gradientUnits="userSpaceOnUse">
      <stop stop-color="#ffd600"></stop>
      <stop offset="1" stop-color="#ff007a"></stop>
    </linearGradient>
  </defs>
</svg>