<svg xmlns="http://www.w3.org/2000/svg" fill="none" viewBox="0 0 14 14" id="Medical-Ribbon-1--Streamline-Core-Gradient">
  <desc>
    Medical Ribbon 1 Streamline Icon: https://streamlinehq.com
  </desc>
  <g id="Free Gradient/Health/medical-ribbon-1--ribbon-medical-cancer-health-beauty-symbol">
    <path id="Subtract" fill="url(#paint0_linear_14402_16252)" fill-rule="evenodd" d="M7.00036 0c-2.4274 0-4.35277 2.07297-4.35277 4.31887 0 1.28433.50159 2.51369 1.17261 3.59497.4311.69469.95037 1.35758 1.50041 1.9715-.67334.56446-1.27569 1.05216-1.75426 1.43266-.35236.2802-.63715.5019-.83319.6531-.09801.0756-.17381.1336-.22474.1723l-.05741.0436-.01409.0106-.00328.0025c-.44135.332-.53084.9594-.1989 1.4008s.95886.5302 1.40026.1982l.00625-.0047.01638-.0124.06214-.0472c.05415-.0412.13333-.1017.23486-.18.20304-.1566.49564-.3845.85646-.6714.56068-.4458 1.28722-1.0351 2.09925-1.7221.04249.0026.08512.0026.12761-.0001.82438.6938 1.56516 1.2859 2.13762 1.7326.36754.2868.66628.514.87393.6702.1038.0781.1849.1384.2405.1795l.0639.0471.017.0125.0059.0043c.4463.3254 1.0725.2279 1.3979-.2183.3253-.4463.2274-1.0718-.2188-1.3972l-.004-.0029-.0141-.0103-.0581-.0429c-.0517-.0382-.1287-.0955-.2282-.1703-.1992-.1498-.4884-.3698-.8456-.6485-.48602-.3792-1.09686-.8664-1.77719-1.43251.55951-.62146 1.08901-1.29098 1.52879-1.98896.6794-1.0784 1.1956-2.30543 1.1956-3.57666 0-1.09878-.5023-2.16776-1.2565-2.95244C9.33545.574478 8.24803 0 7.00036 0ZM4.64771 4.31887C4.64771 3.14575 5.70916 2 7.00047 2c.61606 0 1.20502.28489 1.65431.75234.45626.47471.69846 1.06518.69846 1.56653 0 .74217-.30947 1.59252-.88785 2.51057-.40845.64833-.92588 1.29068-1.49141 1.90131-.55257-.59905-1.05652-1.23049-1.4543-1.87149-.56483-.91018-.87197-1.76926-.87197-2.54039Z" clip-rule="evenodd"></path>
  </g>
  <defs>
    <linearGradient id="paint0_linear_14402_16252" x1="12.828" x2="-3.247" y1="16.965" y2="8.864" gradientUnits="userSpaceOnUse">
      <stop stop-color="#ffd600"></stop>
      <stop offset="1" stop-color="#ff007a"></stop>
    </linearGradient>
  </defs>
</svg>