<svg xmlns="http://www.w3.org/2000/svg" fill="none" viewBox="0 0 14 14" id="Phone-Ringing-1--Streamline-Flex">
  <desc>
    Phone Ringing 1 Streamline Icon: https://streamlinehq.com
  </desc>
  <g id="phone-ringing-1--android-phone-mobile-device-smartphone-iphone-ringing-incoming-call">
    <path id="Intersect" stroke="#000000" stroke-linecap="round" stroke-linejoin="round" d="M9.85732 4.16344c0.69858 -0.60867 1.72158 -0.49955 2.27188 0.24588 0.0824 0.11161 0.1817 0.24211 0.3103 0.40298 0.816 1.02073 0.816 2.49871 -0.0046 3.51582 -0.6057 0.75085 -1.2407 1.50849 -1.9507 2.21848 -0.70993 0.7099 -1.46757 1.345 -2.21842 1.9507 -1.01711 0.8205 -2.4951 0.8205 -3.51583 0.0045 -0.18081 -0.1446 -0.32278 -0.2515 -0.44253 -0.339 -0.72248 -0.5278 -0.84499 -1.5163 -0.25988 -2.19319 0.26636 -0.30814 0.54871 -0.60694 0.82713 -0.90007 0.38456 -0.40488 1.0447 -0.44993 1.46599 -0.08342 0.07396 0.06433 0.16797 0.14932 0.29799 0.27122 1.16757 -0.6938 1.8752 -1.41006 2.55634 -2.55635 -0.1241 -0.13237 -0.21007 -0.22754 -0.27497 -0.30226 -0.36578 -0.42107 -0.32103 -1.07923 0.08645 -1.46008 0.27883 -0.2606 0.56153 -0.52313 0.85085 -0.77521Z" stroke-width="1"></path>
    <path id="Ellipse 3" stroke="#000000" stroke-linecap="round" stroke-linejoin="round" d="M3.90917 6.20879c0.11127 -0.55621 0.4079 -1.07897 0.88008 -1.46749 0.49126 -0.40422 1.08852 -0.59398 1.67826 -0.58033" stroke-width="1"></path>
    <path id="Ellipse 3_2" stroke="#000000" stroke-linecap="round" stroke-linejoin="round" d="M0.823283 5.69884c0.251127 -1.25526 0.920547 -2.43502 1.986157 -3.31182 1.10867 -0.91224 2.45655 -1.3405 3.78747 -1.30967" stroke-width="1"></path>
  </g>
</svg>