<svg xmlns="http://www.w3.org/2000/svg" fill="none" viewBox="0 0 14 14" id="Phone-Notification--Streamline-Flex">
  <desc>
    Phone Notification Streamline Icon: https://streamlinehq.com
  </desc>
  <g id="phone-notification--android-phone-mobile-device-smartphone-iphone-bell-notification">
    <path id="Intersect" stroke="#000000" stroke-linecap="round" stroke-linejoin="round" d="M5.185 3.098c-0.822 -0.013 -1.639 0.01 -2.48 0.07 -0.96 0.067 -1.703 0.85 -1.785 1.807C0.833 5.997 0.75 7.052 0.75 8.131c0 1.08 0.083 2.134 0.17 3.156 0.082 0.958 0.826 1.74 1.784 1.808 1.387 0.097 2.705 0.097 4.092 0 0.958 -0.067 1.702 -0.85 1.784 -1.808 0.064 -0.75 0.126 -1.518 0.154 -2.3" stroke-width="1"></path>
    <path id="Vector 122" stroke="#000000" stroke-linecap="round" stroke-linejoin="round" d="M4.177 10.775h1.147" stroke-width="1"></path>
    <path id="Vector" stroke="#000000" stroke-linecap="round" stroke-linejoin="round" d="M8.53 1.516a2.078 2.078 0 0 1 3.548 1.47c0 0.88 0.31 1.732 0.874 2.407l0.048 0.058H7l0.048 -0.058a3.756 3.756 0 0 0 0.874 -2.408c0 -0.55 0.219 -1.08 0.609 -1.47Z" stroke-width="1"></path>
    <path id="Vector 169" stroke="#000000" stroke-linecap="round" stroke-linejoin="round" d="m9.9 5.451 0 0.95" stroke-width="1"></path>
  </g>
</svg>