<svg xmlns="http://www.w3.org/2000/svg" fill="none" viewBox="0 0 48 48" id="Steps-1--Streamline-Plump">
  <desc>
    Steps 1 Streamline Icon: https://streamlinehq.com
  </desc>
  <g id="steps-1--interface-internet-menu-progress-bubble-bar">
    <path id="Vector 1675 (Stroke)" fill="#8fbffa" fill-rule="evenodd" d="M27 24a2 2 0 0 1 2 -2l6 0a2 2 0 1 1 0 4l-6 0a2 2 0 0 1 -2 -2Z" clip-rule="evenodd" stroke-width="1"></path>
    <path id="Vector 1676 (Stroke)" fill="#8fbffa" fill-rule="evenodd" d="M11 24a2 2 0 0 1 2 -2l6 0a2 2 0 1 1 0 4l-6 0a2 2 0 0 1 -2 -2Z" clip-rule="evenodd" stroke-width="1"></path>
    <path id="Union" fill="#8fbffa" d="M8 17.5a6.5 6.5 0 1 0 0 13 6.5 6.5 0 0 0 0 -13Z" stroke-width="1"></path>
    <path id="Union_2" fill="#8fbffa" d="M24 17.5a6.5 6.5 0 1 0 0 13 6.5 6.5 0 0 0 0 -13Z" stroke-width="1"></path>
    <path id="Union_3" fill="#8fbffa" d="M40 17.5a6.5 6.5 0 1 0 0 13 6.5 6.5 0 0 0 0 -13Z" stroke-width="1"></path>
  </g>
</svg>