<svg xmlns="http://www.w3.org/2000/svg" fill="none" viewBox="0 0 14 14"><g id="ai-prompt-spark--app-code-apps-window-website-web-artificial-intelligence-ai"><path id="Subtract" fill="#37d7ff" fill-rule="evenodd" d="M6.035 2.507c-.653 1.073-.204 2.73 1.344 3 .545.095.978.51 1.096 1.05l.02.092c.454 2.073 3.407 2.086 3.878.017l.025-.108a1.4 1.4 0 0 1 .04-.139v5.791c0 .941-.764 1.704-1.705 1.704H1.734A1.704 1.704 0 0 1 .03 12.21V4.211c0-.941.763-1.704 1.704-1.704h4.3Z" clip-rule="evenodd"></path><path id="Union" fill="#3e3e3e" fill-rule="evenodd" d="M3.08 7.797a.625.625 0 1 0-.883.884L3.255 9.74l-1.058 1.058a.625.625 0 0 0 .884.884l1.5-1.5a.625.625 0 0 0 0-.884l-1.5-1.5Zm2.559 2.817a.625.625 0 1 0 0 1.25h1.5a.625.625 0 0 0 0-1.25h-1.5Z" clip-rule="evenodd"></path><path id="Subtract_2" fill="#3e3e3e" fill-rule="evenodd" d="M6.035 2.507c-.653 1.073-.204 2.73 1.344 3 .318.055.598.22.8.454H.028V4.21c0-.941.764-1.704 1.705-1.704h4.3Z" clip-rule="evenodd"></path><path id="Union_2" fill="#3e3e3e" fill-rule="evenodd" d="M11.233.721C11.04-.13 9.825-.125 9.638.728l-.007.035-.015.068A2.53 2.53 0 0 1 7.58 2.772c-.887.154-.887 1.428 0 1.582a2.53 2.53 0 0 1 2.038 1.952l.02.093c.187.852 1.401.858 1.595.007l.025-.108a2.546 2.546 0 0 1 2.046-1.942c.889-.155.889-1.43 0-1.585A2.546 2.546 0 0 1 11.26.844l-.018-.082-.01-.041Z" clip-rule="evenodd"></path></g></svg>