<svg xmlns="http://www.w3.org/2000/svg" fill="none" viewBox="0 0 14 14" id="Ai-Prompt-Spark--Streamline-Core">
  <desc>
    Ai Prompt Spark Streamline Icon: https://streamlinehq.com
  </desc>
  <g id="ai-prompt-spark--app-code-apps-window-website-web-artificial-intelligence-ai">
    <path id="Subtract" fill="#8fbffa" fill-rule="evenodd" d="M6.035 2.507c-0.653 1.073 -0.204 2.73 1.344 3 0.545 0.095 0.978 0.51 1.096 1.05l0.02 0.092c0.454 2.073 3.407 2.086 3.878 0.017l0.025 -0.108a1.4 1.4 0 0 1 0.04 -0.139v5.791c0 0.941 -0.764 1.704 -1.705 1.704H1.734A1.704 1.704 0 0 1 0.03 12.21V4.211c0 -0.941 0.763 -1.704 1.704 -1.704h4.3Z" clip-rule="evenodd" stroke-width="1"></path>
    <path id="Union" fill="#2859c5" fill-rule="evenodd" d="M3.08 7.797a0.625 0.625 0 1 0 -0.883 0.884L3.255 9.74l-1.058 1.058a0.625 0.625 0 0 0 0.884 0.884l1.5 -1.5a0.625 0.625 0 0 0 0 -0.884l-1.5 -1.5Zm2.559 2.817a0.625 0.625 0 1 0 0 1.25h1.5a0.625 0.625 0 0 0 0 -1.25h-1.5Z" clip-rule="evenodd" stroke-width="1"></path>
    <path id="Subtract_2" fill="#2859c5" fill-rule="evenodd" d="M6.035 2.507c-0.653 1.073 -0.204 2.73 1.344 3 0.318 0.055 0.598 0.22 0.8 0.454H0.028V4.21c0 -0.941 0.764 -1.704 1.705 -1.704h4.3Z" clip-rule="evenodd" stroke-width="1"></path>
    <path id="Union_2" fill="#2859c5" fill-rule="evenodd" d="M11.233 0.721C11.04 -0.13 9.825 -0.125 9.638 0.728l-0.007 0.035 -0.015 0.068A2.53 2.53 0 0 1 7.58 2.772c-0.887 0.154 -0.887 1.428 0 1.582a2.53 2.53 0 0 1 2.038 1.952l0.02 0.093c0.187 0.852 1.401 0.858 1.595 0.007l0.025 -0.108a2.546 2.546 0 0 1 2.046 -1.942c0.889 -0.155 0.889 -1.43 0 -1.585A2.546 2.546 0 0 1 11.26 0.844l-0.018 -0.082 -0.01 -0.041Z" clip-rule="evenodd" stroke-width="1"></path>
  </g>
</svg>