<svg xmlns="http://www.w3.org/2000/svg" fill="none" viewBox="0 0 14 14" id="Ai-Redo-Spark--Streamline-Core">
  <desc>
    Ai Redo Spark Streamline Icon: https://streamlinehq.com
  </desc>
  <g id="ai-redo-spark--arrow-refresh-sync-synchronize-artificial-intelligence-ai">
    <path id="Union" fill="#8fbffa" fill-rule="evenodd" d="M5.577 1.689a5.488 5.488 0 0 1 4.636 0.848l-0.61 0.61A0.5 0.5 0 0 0 9.957 4h2.293a0.5 0.5 0 0 0 0.5 -0.5V1.207a0.5 0.5 0 0 0 -0.854 -0.353l-0.612 0.612A6.999 6.999 0 0 0 0.12 8.287a0.75 0.75 0 1 0 1.475 -0.277 5.499 5.499 0 0 1 3.982 -6.321Zm8.303 4.024a0.75 0.75 0 0 0 -1.475 0.277 5.499 5.499 0 0 1 -8.618 5.473l0.61 -0.61A0.5 0.5 0 0 0 4.042 10H1.75a0.5 0.5 0 0 0 -0.5 0.5v2.293a0.5 0.5 0 0 0 0.854 0.353l0.612 -0.612a6.999 6.999 0 0 0 11.164 -6.82Z" clip-rule="evenodd" stroke-width="1"></path>
    <path id="Union_2" fill="#2859c5" fill-rule="evenodd" d="M7.806 4.026c-0.198 -0.866 -1.435 -0.861 -1.625 0.008l-0.008 0.036 -0.016 0.071a2.676 2.676 0 0 1 -2.153 2.054c-0.903 0.157 -0.903 1.454 0 1.61A2.676 2.676 0 0 1 6.16 9.87l0.021 0.097c0.19 0.868 1.427 0.874 1.625 0.007l0.025 -0.113a2.693 2.693 0 0 1 2.164 -2.054c0.905 -0.157 0.905 -1.457 0 -1.614a2.693 2.693 0 0 1 -2.16 -2.037l-0.02 -0.086 -0.01 -0.044Z" clip-rule="evenodd" stroke-width="1"></path>
  </g>
</svg>