<svg xmlns="http://www.w3.org/2000/svg" fill="none" viewBox="0 0 14 14" id="Artificial-Intelligence-Spark--Streamline-Core">
  <desc>
    Artificial Intelligence Spark Streamline Icon: https://streamlinehq.com
  </desc>
  <g id="artificial-intelligence-spark--brain-thought-ai-automated-ai">
    <path id="Subtract" fill="#8fbffa" fill-rule="evenodd" d="M7.625 5.496c0.44 0.136 0.78 0.5 0.881 0.959l0.02 0.087c0.43 1.971 3.237 1.984 3.686 0.017l0.023 -0.103a1.308 1.308 0 0 1 1.051 -0.998c0.093 -0.016 0.18 -0.037 0.265 -0.063 0.284 0.6 0.449 1.297 0.449 2.004 0 1.093 -0.393 2.404 -1.017 3.074a2.997 2.997 0 0 1 -5.358 2.084V5.495Zm-1.25 -3.148c-0.62 0.698 -0.62 1.824 0 2.522v7.686a2.997 2.997 0 0 1 -5.358 -2.084C0.393 9.803 0 8.493 0 7.4c0 -1.491 0.73 -2.94 1.779 -3.51a2.618 2.618 0 0 1 4.596 -1.982v0.44Z" clip-rule="evenodd" stroke-width="1"></path>
    <g id="Union">
      <path fill="#2859c5" d="M5.974 7.494c0.268 -0.39 0.384 -0.817 0.4 -1.022v2.415a2.69 2.69 0 0 1 -1.404 0.584 0.625 0.625 0 0 1 -0.139 -1.242c0.509 -0.057 0.879 -0.349 1.143 -0.735Z" stroke-width="1"></path>
      <path fill="#2859c5" d="M0.822 4.763c0.27 -0.373 0.594 -0.675 0.957 -0.872a2.648 2.648 0 0 1 -0.016 -0.282c0.039 0.39 0.198 0.681 0.382 0.891 0.229 0.26 0.47 0.367 0.527 0.38a0.625 0.625 0 1 1 -0.278 1.22c-0.359 -0.083 -0.82 -0.355 -1.188 -0.775a2.813 2.813 0 0 1 -0.384 -0.562Z" stroke-width="1"></path>
      <path fill="#2859c5" d="M1.04 11.168a3.02 3.02 0 0 1 -0.023 -0.695 3.148 3.148 0 0 1 -0.534 -0.836c0.08 -0.09 0.167 -0.172 0.26 -0.245a0.625 0.625 0 0 1 0.774 0.981c-0.178 0.14 -0.364 0.444 -0.478 0.795Z" stroke-width="1"></path>
      <path fill="#2859c5" d="m12.99 10.465 -0.023 -0.001a1.723 1.723 0 0 1 -0.476 -0.11c-0.363 -0.136 -0.801 -0.42 -1.183 -0.975a0.625 0.625 0 0 0 -1.03 0.71c0.53 0.77 1.178 1.211 1.773 1.435 0.265 0.1 0.531 0.16 0.778 0.183a2.99 2.99 0 0 0 0.154 -1.234l0.007 -0.008Z" stroke-width="1"></path>
    </g>
    <path id="Union_2" fill="#2859c5" fill-rule="evenodd" d="M11.152 0.902c-0.19 -0.835 -1.382 -0.83 -1.565 0.007L9.58 0.942l-0.014 0.064A2.38 2.38 0 0 1 7.65 2.833c-0.87 0.152 -0.87 1.401 0 1.553a2.38 2.38 0 0 1 1.918 1.836l0.02 0.088c0.182 0.836 1.373 0.842 1.564 0.007l0.023 -0.102A2.396 2.396 0 0 1 13.1 4.387c0.872 -0.151 0.872 -1.404 0 -1.555a2.396 2.396 0 0 1 -1.922 -1.813L11.16 0.942l-0.008 -0.04Z" clip-rule="evenodd" stroke-width="1"></path>
  </g>
</svg>