<svg xmlns="http://www.w3.org/2000/svg" fill="none" viewBox="0 0 14 14" id="Cube--Streamline-Flex-Neon">
  <desc>
    Cube Streamline Icon: https://streamlinehq.com
  </desc>
  <g id="cube">
    <path id="rectangle 630" stroke="#c71dff" stroke-linecap="round" stroke-linejoin="round" d="M7 6.5498 7 13.25" stroke-width="1"></path>
    <path id="union" stroke="#c71dff" stroke-linecap="round" stroke-linejoin="round" d="M1.34588 3.41748C3.14922 2.24162 4.69146 1.46316 6.68576 0.80067c0.20337 -0.06756 0.42391 -0.06756 0.62728 -0.000001C9.30741 1.46318 10.8504 2.24176 12.6538 3.41764c0.2561 0.16699 0.4216 0.44178 0.4501 0.74561 0.1893 2.0236 0.1994 3.66182 0.0024 5.67767 -0.0294 0.30148 -0.1946 0.57348 -0.4488 0.73928 -1.8049 1.1771 -3.34877 1.9562 -5.34439 2.6191 -0.20338 0.0676 -0.42391 0.0676 -0.62729 0 -1.9955 -0.6629 -3.53829 -1.442 -5.34304 -2.6191 -0.2542 -0.1658 -0.419355 -0.4378 -0.448826 -0.73927 -0.197075 -2.01588 -0.187345 -3.65422 0.00189 -5.67784 0.028411 -0.30382 0.193926 -0.57861 0.450036 -0.74561Z" stroke-width="1"></path>
    <path id="Intersect" stroke="#000cfe" stroke-linecap="round" stroke-linejoin="round" d="M12.9358 3.69483 6.99972 6.54978 1.06323 3.69539c0.0738 -0.10917 0.16932 -0.20408 0.28256 -0.27791C3.14913 2.24162 4.69137 1.46316 6.68567 0.80067c0.20337 -0.06756 0.42391 -0.06756 0.62728 -0.000001C9.30732 1.46318 10.8503 2.24176 12.6537 3.41764c0.113 0.07367 0.2084 0.16832 0.2821 0.27719Z" stroke-width="1"></path>
  </g>
</svg>