<svg xmlns="http://www.w3.org/2000/svg" fill="none" viewBox="0 0 14 14" id="Curves-Levels-Graph--Streamline-Flex-Neon">
  <desc>
    Curves Levels Graph Streamline Icon: https://streamlinehq.com
  </desc>
  <g id="curves-levels-graph">
    <path id="Ellipse 1469" stroke="#000cfe" stroke-linecap="round" d="M11.8461 3.54395c0 2.9062 -2.36687 5.26215 -5.28653 5.26215" stroke-width="1"></path>
    <path id="Vector_2" stroke="#000cfe" stroke-linecap="round" stroke-linejoin="round" d="M5.15931 10.2027c0.89821 0 1.40346 -0.50295 1.40346 -1.39702 0 -0.89407 -0.50525 -1.39699 -1.40346 -1.39699s-1.40345 0.50292 -1.40345 1.39699c0 0.89407 0.50524 1.39702 1.40345 1.39702Z" stroke-width="1"></path>
    <path id="Vector_2_2" stroke="#000cfe" stroke-linecap="round" stroke-linejoin="round" d="M11.8468 3.54397c0.8982 0 1.4035 -0.50291 1.4035 -1.39698C13.2503 1.25292 12.745 0.75 11.8468 0.75s-1.4034 0.50292 -1.4034 1.39699c0 0.89407 0.5052 1.39698 1.4034 1.39698Z" stroke-width="1"></path>
    <path id="Intersect" stroke="#c71dff" stroke-linecap="round" stroke-linejoin="round" d="M3.15708 13.0898c-0.09575 -0.0103 -0.19119 -0.0208 -0.28632 -0.0315 -1.00834 -0.1131 -1.81865 -0.9196 -1.92792 -1.9238 -0.010107 -0.0929 -0.020058 -0.186 -0.029754 -0.2795" stroke-width="1"></path>
    <path id="Intersect_2" stroke="#c71dff" stroke-linecap="round" stroke-linejoin="round" d="M0.762059 6.08862c-0.016079 0.73136 -0.016079 1.45913 0 2.19048V6.08862Z" stroke-width="1"></path>
    <path id="Intersect_3" stroke="#c71dff" stroke-linecap="round" stroke-linejoin="round" d="M0.762059 1.05957c-0.016079 0.73136 -0.016079 1.45913 0 2.19048V1.05957Z" stroke-width="1"></path>
    <path id="Intersect_4" stroke="#c71dff" stroke-linecap="round" stroke-linejoin="round" d="M7.94824 13.2379c-0.73474 0.0161 -1.46588 0.0161 -2.20062 0l2.20062 0Z" stroke-width="1"></path>
    <path id="Intersect_5" stroke="#c71dff" stroke-linecap="round" stroke-linejoin="round" d="M13 13.2379c-0.7347 0.0161 -1.4659 0.0161 -2.2006 0l2.2006 0Z" stroke-width="1"></path>
  </g>
</svg>