<svg xmlns="http://www.w3.org/2000/svg" fill="none" viewBox="0 0 14 14" id="File-Bookmark--Streamline-Flex-Neon">
  <desc>
    File Bookmark Streamline Icon: https://streamlinehq.com
  </desc>
  <g id="file-bookmark--text-common-bookmark">
    <path id="Intersect" stroke="#000cfe" stroke-linejoin="round" d="M7.12992 0.500115C7.08685 0.500038 7.04355 0.5 7 0.5 5.6688 0.5 4.56905 0.535808 3.46234 0.604378c-0.1735 1.514012 -0.15056 2.991722 0.06884 4.515342 0 0.39369 0.47598 0.59084 0.75436 0.31247l1.01322 -1.01323 1.01323 1.01323c0.27838 0.27837 0.75436 0.08122 0.75436 -0.31247 0.22152 -1.55829 0.24271 -3.07019 0.06357 -4.619605Z" stroke-width="1"></path>
    <path id="Subtract" stroke="#c71dff" stroke-linecap="round" stroke-linejoin="round" d="M12.8534 11.5629C12.9494 10.0921 13 8.56549 13 7c0 -0.42599 -0.0037 -0.84909 -0.0111 -1.26898 -0.0138 -0.78391 -0.2654 -1.54895 -0.7457 -2.16867 -0.8249 -1.06446 -1.5593 -1.798 -2.69605 -2.664462 -0.3171 -0.241706 -0.70416 -0.373156 -1.10277 -0.382227C7.98804 0.505278 7.51108 0.5 7 0.5 5.45944 0.5 4.22884 0.547957 2.93872 0.639152c-0.9635 0.068107 -1.72917 0.834098 -1.79211 1.797948C1.05057 3.90794 1 5.4345 1 7c0 1.56549 0.05057 3.0921 0.14661 4.5629 0.06294 0.9639 0.82861 1.7298 1.79211 1.7979C4.22884 13.452 5.45943 13.5 7 13.5c1.54057 0 2.77116 -0.048 4.0613 -0.1392 0.9635 -0.0681 1.7292 -0.834 1.7921 -1.7979Z" stroke-width="1"></path>
  </g>
</svg>