<svg xmlns="http://www.w3.org/2000/svg" fill="none" viewBox="0 0 14 14" id="Iris-Scan--Streamline-Flex-Neon">
  <desc>
    Iris Scan Streamline Icon: https://streamlinehq.com
  </desc>
  <g id="iris-scan--identification-retina-secure-security-iris-scan-eye-brackets">
    <path id="Ellipse 20" stroke="#000cfe" stroke-linecap="round" stroke-linejoin="round" d="M11.7318 7.00002c0 0.79503 -2.11854 3.59618 -4.73187 3.59618 -2.61334 0 -4.73186 -2.80115 -4.73186 -3.59618 0 -0.79502 2.11852 -3.59621 4.73186 -3.59621 2.61333 0 4.73187 2.80119 4.73187 3.59621Z" stroke-width="1"></path>
    <path id="Vector" stroke="#000cfe" stroke-linecap="round" stroke-linejoin="round" d="M6.99976 8.24976c0.8 0 1.25 -0.45 1.25 -1.25s-0.45 -1.25 -1.25 -1.25 -1.25 0.45 -1.25 1.25 0.45 1.25 1.25 1.25Z" stroke-width="1"></path>
    <path id="Vector_2" stroke="#c71dff" stroke-linecap="round" stroke-linejoin="round" d="M10.0999 0.75c0.3999 0.043107 0.796 0.089455 1.188 0.134892 0.9595 0.111206 1.7248 0.876028 1.8325 1.835918l0.0031 0.02823c0.0428 0.38102 0.086 0.76592 0.1261 1.15438M10.0999 13.25c0.3999 -0.0431 0.796 -0.0895 1.188 -0.1349 0.9595 -0.1112 1.7248 -0.876 1.8325 -1.8359l0.0031 -0.0283c0.0428 -0.381 0.086 -0.7659 0.1261 -1.1543M3.8997 0.75c-0.39991 0.043107 -0.79606 0.089455 -1.18809 0.134892C1.75212 0.996098 0.986879 1.76092 0.879185 2.72081l-0.003166 0.02823C0.833268 3.13006 0.790082 3.51496 0.75 3.90342M3.8997 13.25c-0.39991 -0.0431 -0.79606 -0.0895 -1.18809 -0.1349 -0.95949 -0.1112 -1.724731 -0.876 -1.832425 -1.8359l-0.003166 -0.0283C0.833268 10.8699 0.790082 10.485 0.75 10.0966" stroke-width="1"></path>
  </g>
</svg>