<svg xmlns="http://www.w3.org/2000/svg" fill="none" viewBox="0 0 14 14" id="Open-Umbrella--Streamline-Flex-Neon">
  <desc>
    Open Umbrella Streamline Icon: https://streamlinehq.com
  </desc>
  <g id="open-umbrella--storm-rain-umbrella-open-weather">
    <path id="Vector" stroke="#000cfe" stroke-linecap="round" stroke-linejoin="round" d="m10.54 2.69061 1.0392 -0.99127" stroke-width="1"></path>
    <path id="Vector_2" stroke="#000cfe" stroke-linecap="round" stroke-linejoin="round" d="M4.41829 13.0227c-0.33135 0.3161 -0.77467 0.4876 -1.23246 0.4768 -0.45779 -0.0108 -0.89253 -0.203 -1.2086 -0.5344 -0.31606 -0.3313 -0.48755 -0.7747 -0.47675 -1.2324 0.01081 -0.4578 0.20302 -0.8926 0.53437 -1.2086l2.9339 -2.7116" stroke-width="1"></path>
    <path id="Vector_3" stroke="#c71dff" stroke-linecap="round" stroke-linejoin="round" d="M1.74618 3.26478c-0.30982 -0.66936 -0.10752 -1.44861 0.51752 -1.84023C3.32773 0.757894 4.59691 0.434332 5.91149 0.511089c1.72799 0.100896 3.39286 0.885231 4.62831 2.180451 1.2355 1.29522 1.9405 2.99524 1.9597 4.72606 0.0147 1.31674 -0.3684 2.56925 -1.0845 3.6006 -0.4207 0.6059 -1.2086 0.7712 -1.86261 0.4302 -1.00039 -0.5217 -2.6095 -1.5629 -4.48884 -3.5331C3.1842 5.9451 2.22009 4.28866 1.74618 3.26478Z" stroke-width="1"></path>
  </g>
</svg>