<svg xmlns="http://www.w3.org/2000/svg" fill="none" viewBox="0 0 14 14" id="Padlock-Square-2--Streamline-Flex-Neon">
  <desc>
    Padlock Square 2 Streamline Icon: https://streamlinehq.com
  </desc>
  <g id="padlock-square-2--combination-combo-key-keyhole-lock-secure-security-square-unlock-unlocked">
    <path id="Vector" stroke="#000cfe" stroke-linecap="round" stroke-linejoin="round" d="M9.1455 1.38844C8.57664 0.819582 7.8051 0.5 7.00061 0.5c-0.80448 0 -1.57602 0.319582 -2.14488 0.88844 -0.56886 0.56886 -0.88844 1.3404 -0.88844 2.14489v1.3" stroke-width="1"></path>
    <path id="Vector_2" stroke="#000cfe" stroke-linecap="round" stroke-linejoin="round" d="m7 8.56006 0 1.03993" stroke-width="1"></path>
    <path id="Intersect" stroke="#c71dff" stroke-linecap="round" stroke-linejoin="round" d="M1.61224 10.8515c0.17164 1.4329 1.3818 2.5488 2.82397 2.6023 0.81775 0.0304 1.65601 0.0461 2.56379 0.0461s1.74604 -0.0157 2.56379 -0.0461c1.44221 -0.0535 2.65231 -1.1694 2.82401 -2.6023 0.0662 -0.5527 0.1132 -1.11493 0.1132 -1.68492 0 -0.57 -0.047 -1.13225 -0.1132 -1.68494 -0.1717 -1.43291 -1.3818 -2.5488 -2.82401 -2.60232C8.74604 4.84897 7.90778 4.83325 7 4.83325s-1.74604 0.01572 -2.56379 0.04607c-1.44217 0.05352 -2.65233 1.16941 -2.82397 2.60232 -0.0662 0.55269 -0.11322 1.11494 -0.11322 1.68494 0 0.56999 0.04702 1.13222 0.11322 1.68492Z" stroke-width="1"></path>
  </g>
</svg>