<svg xmlns="http://www.w3.org/2000/svg" fill="none" viewBox="0 0 14 14" id="Share-Link--Streamline-Flex-Neon">
  <desc>
    Share Link Streamline Icon: https://streamlinehq.com
  </desc>
  <g id="share-link--share-transmit">
    <path id="Vector" stroke="#000cfe" stroke-linecap="round" stroke-linejoin="round" d="M8.98434 3.3728c-2.60472 0.62013 -2.78579 0.63975 -5.00241 1.69284" stroke-width="1"></path>
    <path id="Vector_2" stroke="#000cfe" stroke-linecap="round" stroke-linejoin="round" d="M8.98434 10.6382c-2.60472 -0.6201 -2.78579 -0.63976 -5.00241 -1.69285" stroke-width="1"></path>
    <path id="Vector_3" stroke="#c71dff" stroke-linecap="round" stroke-linejoin="round" d="M11.0996 5.05466c1.3763 0 2.1505 -0.77484 2.1505 -2.15233S12.4759 0.75 11.0996 0.75c-1.37623 0 -2.15038 0.77484 -2.15038 2.15233s0.77415 2.15233 2.15038 2.15233Z" stroke-width="1"></path>
    <path id="Vector_4" stroke="#c71dff" stroke-linecap="round" stroke-linejoin="round" d="M2.90042 9.15793c1.37627 0 2.15042 -0.77484 2.15042 -2.15233s-0.77415 -2.15233 -2.15042 -2.15233C1.52415 4.85327 0.75 5.62811 0.75 7.0056s0.77415 2.15233 2.15042 2.15233Z" stroke-width="1"></path>
    <path id="Vector_5" stroke="#c71dff" stroke-linecap="round" stroke-linejoin="round" d="M11.0996 8.94534c1.3763 0 2.1505 0.77484 2.1505 2.15236 0 1.3775 -0.7742 2.1523 -2.1505 2.1523 -1.37623 0 -2.15038 -0.7748 -2.15038 -2.1523 0 -1.37752 0.77415 -2.15236 2.15038 -2.15236Z" stroke-width="1"></path>
  </g>
</svg>