<svg xmlns="http://www.w3.org/2000/svg" fill="none" viewBox="0 0 14 14" id="Spiral-Shape--Streamline-Flex-Neon">
  <desc>
    Spiral Shape Streamline Icon: https://streamlinehq.com
  </desc>
  <g id="spiral-shape">
    <path id="Vector" stroke="#c71dff" stroke-linecap="round" stroke-linejoin="round" d="M5.43689 6.40039c0 0.95801 0.55165 1.49689 1.53235 1.49689 0.9807 0 1.5324 -0.53884 1.5324 -1.49685 0 -1.72768 -0.99484 -2.6995 -2.76345 -2.6995 -1.76861 0 -2.76346 0.97178 -2.76346 2.69946 0 2.52271 1.45265 3.94171 4.03513 3.94171 2.58247 0 4.03514 -1.41892 4.03514 -3.94163 0 -3.2963 -1.89811 -5.15047 -5.27251 -5.15047C2.3981 1.25 0.5 3.10417 0.5 6.40047 0.5 10.4642 2.84 12.75 7 12.75s6.5 -2.2859 6.5 -6.34961" stroke-width="1"></path>
  </g>
</svg>