<svg xmlns="http://www.w3.org/2000/svg" fill="none" viewBox="0 0 14 14" id="Zip-Folder--Streamline-Flex-Neon">
  <desc>
    Zip Folder Streamline Icon: https://streamlinehq.com
  </desc>
  <g id="zip-folder--zip-folder-compact">
    <path id="Vector 163" stroke="#000cfe" stroke-linecap="round" stroke-linejoin="round" d="M8 8.76602c0.86224 0.28658 1.63776 0.28658 2.5 0" stroke-width="1"></path>
    <path id="Vector 164" stroke="#000cfe" stroke-linecap="round" stroke-linejoin="round" d="M8 5.76602c0.86224 0.28658 1.63776 0.28658 2.5 0" stroke-width="1"></path>
    <path id="Vector 165" stroke="#000cfe" stroke-linecap="round" stroke-linejoin="round" d="m9.25012 2.8125 0 6.15576" stroke-width="1"></path>
    <path id="Subtract" stroke="#c71dff" stroke-linejoin="round" d="M6.34286 1.45431c-0.13401 -0.37988 -0.48293 -0.643254 -0.8853 -0.662433C4.01687 0.723206 3.14636 0.741758 1.98918 0.827285c-0.48411 0.035781 -0.86904 0.436355 -0.92443 0.942515C0.725625 4.86843 0.613117 7.97783 0.966382 11.0836c0.119878 1.0538 0.941888 1.8198 1.925278 1.9322 2.77679 0.3175 5.51367 0.3093 8.29024 -0.008 0.965 -0.1103 1.7396 -0.9125 1.8547 -1.9242 0.2211 -1.94368 0.2779 -3.93665 0.1353 -6.39197 -0.0549 -0.94656 -0.7927 -1.71237 -1.7373 -1.79476 -1.3557 -0.11826 -2.29494 -0.12507 -3.95633 -0.16193 -0.4147 -0.0092 -0.78057 -0.27474 -0.91856 -0.66592l-0.21685 -0.61471Z" stroke-width="1"></path>
  </g>
</svg>