<svg xmlns="http://www.w3.org/2000/svg" fill="none" viewBox="0 0 14 14" id="Markdown-Circle-Programming--Streamline-Core-Remix">
  <desc>
    Markdown Circle Programming Streamline Icon: https://streamlinehq.com
  </desc>
  <g id="Free Remix/Programming/Programming/Web/markdown-circle-programming">
    <path id="Union" fill="#000000" fill-rule="evenodd" d="M1.24902 7.001c0 -3.17619 2.57481 -5.751 5.751 -5.751 3.17618 0 5.75098 2.57481 5.75098 5.751 0 3.1762 -2.5748 5.751 -5.75098 5.751 -3.17619 0 -5.751 -2.5748 -5.751 -5.751ZM7.00002 0C3.13348 0 -0.000976562 3.13445 -0.000976562 7.001c0 3.8665 3.134456562 7.001 7.000996562 7.001 3.86658 0 7.00098 -3.1345 7.00098 -7.001C14.001 3.13445 10.8666 0 7.00002 0Zm-2.8749 9V7.02332l0.02282 0.05072c0.15087 0.33531 0.48436 0.55096 0.85205 0.55096 0.36764 0 0.70111 -0.21561 0.852 -0.55086l0.02311 -0.05134V9c0 0.34518 0.27982 0.625 0.625 0.625s0.625 -0.27982 0.625 -0.625V5.24293c0 -0.47934 -0.38859 -0.86793 -0.86793 -0.86793 -0.34153 0 -0.65131 0.20029 -0.79147 0.51172L5.00003 5.9214l-0.46549 -1.0346c-0.14014 -0.31147 -0.44994 -0.5118 -0.7915 -0.5118 -0.47934 0 -0.86792 0.38858 -0.86792 0.86792V9c0 0.34518 0.27982 0.625 0.625 0.625s0.625 -0.27982 0.625 -0.625Zm5.99998 -3.99994c0 -0.34518 -0.2798 -0.625 -0.62498 -0.625s-0.625 0.27982 -0.625 0.625V7.375h-0.375c-0.25279 0 -0.48068 0.15228 -0.57742 0.38582 -0.09674 0.23355 -0.04327 0.50237 0.13548 0.68112l1 1c0.11721 0.11721 0.27618 0.18306 0.44194 0.18306 0.16576 0 0.32473 -0.06585 0.44194 -0.18306l1.00004 -1c0.1787 -0.17875 0.2322 -0.44757 0.1354 -0.68112 -0.0967 -0.23354 -0.3246 -0.38582 -0.5774 -0.38582h-0.375V5.00006Z" clip-rule="evenodd" stroke-width="1"></path>
  </g>
</svg>