<svg xmlns="http://www.w3.org/2000/svg" fill="none" viewBox="0 0 14 14" id="Module-Puzzle-1--Streamline-Core-Remix">
  <desc>
    Module Puzzle 1 Streamline Icon: https://streamlinehq.com
  </desc>
  <g id="Free Remix/Programming/Programming/Modules/module-puzzle-1--code-puzzle-module-programming-plugin-piece">
    <path id="Vector (Stroke)" fill="#000000" fill-rule="evenodd" d="M6.98046 1.24902c0.0042 0 0.00835 0.00089 0.01218 0.00261 0.00383 0.00171 0.00726 0.00422 0.01005 0.00736 0.00829 0.00929 0.01686 0.01834 0.02569 0.02712l1.78848 1.77871c0.17496 0.174 0.43592 0.22878 0.66607 0.13981 0.23016 -0.08897 0.38643 -0.30503 0.39886 -0.55147 0.01687 -0.33445 0.15931 -0.65022 0.39891 -0.8842l-0.43673 -0.44712 0.44193 0.44194c0.2586 -0.25863 0.6094 -0.40392 0.9752 -0.40392 0.3657 0 0.7165 0.14529 0.9751 0.40392 0.2586 0.25863 0.4039 0.60941 0.4039 0.97516 0 0.36576 -0.1453 0.71653 -0.4039 0.97516l-0.0052 0.00521 0 0.00003c-0.2339 0.23956 -0.5497 0.38201 -0.8841 0.39888 -0.2477 0.0125 -0.4646 0.17027 -0.5528 0.40209 -0.0881 0.23181 -0.0308 0.49381 0.146 0.66772l1.7787 1.74939c0.0072 0.00712 0.0146 0.01406 0.0222 0.02082 0.0031 0.00279 0.0057 0.00622 0.0074 0.01005 0.0017 0.00383 0.0026 0.00798 0.0026 0.01218 0 0.0042 -0.0009 0.00836 -0.0026 0.01219s-0.0043 0.00726 -0.0074 0.01005c-0.0089 0.00791 -0.0175 0.01607 -0.0259 0.02448l-0.9806 0.9806c-0.0085 -0.00898 -0.0171 -0.01791 -0.0257 -0.02678l-0.0043 -0.00433 0 0.00002c-0.4939 -0.49734 -1.1652 -0.77809 -1.86614 -0.78049 -0.70094 -0.0024 -1.37412 0.27374 -1.87146 0.76769 -0.49733 0.49394 -0.77808 1.16522 -0.78048 1.86616 -0.0024 0.70094 0.27374 1.37414 0.76768 1.87144l0.00728 0.0073 0.00006 0c0.01236 0.012 0.02484 0.024 0.03742 0.0358l-0.94129 0.9794c-0.00537 0.0056 -0.01063 0.0113 -0.01578 0.0171 -0.0028 0.0031 -0.00622 0.0056 -0.01006 0.0073 -0.00383 0.0017 -0.00798 0.0026 -0.01218 0.0026 -0.0042 0 -0.00835 -0.0009 -0.01218 -0.0026s-0.00726 -0.0042 -0.01005 -0.0073c-0.00829 -0.0093 -0.01686 -0.0184 -0.02569 -0.0272l-1.78848 -1.7787c-0.17415 -0.1732 -0.43362 -0.2283 -0.66316 -0.1409 -0.22954 0.0874 -0.3866 0.3012 -0.40143 0.5463 -0.01602 0.2651 -0.10827 0.5199 -0.26565 0.7338 -0.15738 0.2139 -0.37319 0.3778 -0.62148 0.4719 -0.2483 0.0942 -0.51851 0.1147 -0.77814 0.0589 -0.25964 -0.0557 -0.49765 -0.1852 -0.68542 -0.373 -0.18778 -0.1878 -0.31732 -0.4258 -0.37305 -0.6854 -0.05573 -0.2597 -0.03529 -0.5299 0.05888 -0.7782 0.09417 -0.2483 0.25805 -0.4641 0.47194 -0.6215 0.21389 -0.15735 0.46869 -0.2496 0.73375 -0.26563 0.24643 -0.0149 0.46099 -0.17346 0.54758 -0.40466 0.08658 -0.23119 0.02896 -0.49169 -0.14705 -0.6648l-1.7787 -1.74939c-0.00724 -0.00712 -0.01465 -0.01406 -0.02222 -0.02082 -0.00314 -0.00279 -0.00564 -0.00622 -0.00736 -0.01005 -0.00172 -0.00383 -0.00261 -0.00798 -0.00261 -0.01218 0 -0.0042 0.00089 -0.00836 0.00261 -0.01219s0.00422 -0.00726 0.00736 -0.01005c0.00786 -0.00702 0.01555 -0.01423 0.02305 -0.02164l0.99972 -0.98691c0.0096 0.01016 0.01927 0.02024 0.02903 0.03025 0.0088 0.00904 0.01788 0.01781 0.02721 0.0263 0.50165 0.45616 1.15967 0.70167 1.83753 0.68559 0.67785 -0.01609 1.32348 -0.29254 1.80293 -0.77199 0.47944 -0.47945 0.75589 -1.12509 0.77198 -1.80294 0.01609 -0.67785 -0.22942 -1.33587 -0.68558 -1.83753 -0.00849 -0.00933 -0.01726 -0.0184 -0.0263 -0.02721 -0.01236 -0.01204 -0.02483 -0.02397 -0.03741 -0.03577l0.94128 -0.97945c0.00537 -0.00558 0.01063 -0.01126 0.01578 -0.01704 0.0028 -0.00314 0.00623 -0.00565 0.01006 -0.00736 0.00383 -0.00172 0.00798 -0.00261 0.01218 -0.00261ZM9.40463 0.877297c-0.17405 0.170483 -0.32158 0.363253 -0.43968 0.571853L7.92089 0.410798C7.80359 0.283714 7.6617 0.181664 7.50374 0.11089c-0.1646 -0.0737446 -0.34292 -0.111866562 -0.52328 -0.111866562 -0.18036 0 -0.35868 0.038121962 -0.52328 0.111866562 -0.16047 0.071897 -0.30436 0.176071 -0.42272 0.305978L4.59476 1.91494c-0.13862 0.14424 -0.19982 0.34612 -0.16462 0.54305 0.0352 0.19693 0.16255 0.36511 0.34255 0.4524 0.13946 0.06762 0.2676 0.15636 0.37992 0.26304 0.23197 0.26215 0.35651 0.60249 0.34819 0.95291 -0.00846 0.35668 -0.15393 0.69642 -0.40622 0.94871 -0.25228 0.25228 -0.59202 0.39775 -0.9487 0.40622 -0.35041 0.00831 -0.69076 -0.11622 -0.9529 -0.3482 -0.10668 -0.11232 -0.19542 -0.24046 -0.26304 -0.37992 -0.08793 -0.18133 -0.25791 -0.30914 -0.45653 -0.34327 -0.19862 -0.03413 -0.4015 0.02961 -0.54492 0.17119L0.41327 6.07686c-0.128229 0.11774 -0.231141 0.26045 -0.302371 0.41943 -0.0737438 0.16459 -0.111866026 0.34292 -0.111866026 0.52328 0 0.18036 0.038122226 0.35868 0.111866026 0.52327 0.071322 0.15919 0.174407 0.30206 0.302867 0.41988L1.44153 8.97355c-0.08844 0.05038 -0.17417 0.10603 -0.25671 0.16675 -0.40784 0.3001 -0.720327 0.7116 -0.899886 1.185 -0.179559 0.4735 -0.2185459 0.9887 -0.112275 1.4838 0.106272 0.4951 0.353277 0.9489 0.711322 1.307 0.358039 0.358 0.811889 0.605 1.306959 0.7113 0.49507 0.1063 1.01031 0.0673 1.48375 -0.1123 0.47345 -0.1795 0.88495 -0.492 1.18504 -0.8999 0.06309 -0.0857 0.12069 -0.1749 0.17261 -0.267l1.04678 1.041c0.1173 0.1271 0.25919 0.2292 0.41716 0.3 0.16459 0.0737 0.34291 0.1118 0.52327 0.1118 0.18036 0 0.35868 -0.0381 0.52328 -0.1118 0.16047 -0.0719 0.30436 -0.1761 0.42273 -0.306l1.43969 -1.4981c0.13862 -0.1442 0.19982 -0.3461 0.16462 -0.5431 -0.0352 -0.1969 -0.16255 -0.3651 -0.34255 -0.4523 -0.14362 -0.0697 -0.27523 -0.1617 -0.38993 -0.2727 -0.25806 -0.2617 -0.40224 -0.615 -0.40098 -0.98266 0.00126 -0.36942 0.14923 -0.72321 0.41134 -0.98354 0.26212 -0.26033 0.61691 -0.40587 0.98633 -0.4046 0.36842 0.00126 0.72132 0.14844 0.98142 0.40923 0.1116 0.11506 0.2042 0.2472 0.2741 0.39146 0.0883 0.18197 0.2591 0.31 0.4585 0.34361 0.1995 0.03361 0.4028 -0.03136 0.5458 -0.17437l1.4946 -1.49454c0.1274 -0.11743 0.2297 -0.25957 0.3006 -0.41784 0.0738 -0.1646 0.1119 -0.34292 0.1119 -0.52328 0 -0.18036 -0.0381 -0.35868 -0.1119 -0.52327 -0.0713 -0.15919 -0.1744 -0.30206 -0.3029 -0.41988l-1.025 -1.00815c0.2046 -0.1171 0.3938 -0.26262 0.5615 -0.43378 0.4914 -0.4928 0.7674 -1.16039 0.7674 -1.85645 0 -0.69727 -0.2769 -1.36599 -0.77 -1.85904 -0.493 -0.493049 -1.1618 -0.770041 -1.859 -0.770041 -0.6961 0 -1.36367 0.276017 -1.85647 0.767438Z" clip-rule="evenodd" stroke-width="1"></path>
  </g>
</svg>