<svg xmlns="http://www.w3.org/2000/svg" fill="none" viewBox="0 0 14 14" id="Threat-Browser-1--Streamline-Core-Remix">
  <desc>
    Threat Browser 1 Streamline Icon: https://streamlinehq.com
  </desc>
  <g id="Free Remix/Programming/Programming/Bugs/threat-browser-1--bug-browser-file-threat-danger-internet">
    <path id="Union" fill="#000000" fill-rule="evenodd" d="M0.0107422 1.625C0.0107422 0.728052 0.737375 0 1.63487 0h9.99133c0.8975 0 1.6241 0.728051 1.6241 1.625v4.75c0 0.34518 -0.2798 0.625 -0.625 0.625s-0.625 -0.27982 -0.625 -0.625v-2.75H1.26074v7c0 0.2076 0.16802 0.375 0.37413 0.375h2.74564c0.34518 0 0.625 0.2798 0.625 0.625s-0.27982 0.625 -0.625 0.625H1.63487c-0.897495 0 -1.6241278 -0.7281 -1.6241278 -1.625v-9ZM6.13827 12.3675l2.93791 -5.29815c0.16364 -0.36586 0.54762 -0.61537 0.94932 -0.61537 0.4025 0 0.7871 0.25041 0.9503 0.6173l2.8895 5.30082c0.1762 0.3256 0.1772 0.7342 0.0028 1.0606 -0.1769 0.3418 -0.5475 0.5674 -0.9326 0.5673H7.06555c-0.38507 0.0001 -0.75564 -0.2255 -0.93258 -0.5673 -0.17436 -0.3264 -0.17334 -0.735 0.0028 -1.0606l0.0025 -0.0046Zm3.86723 -3.85114c0.3452 0 0.625 0.27982 0.625 0.625v1.25004c0 0.3451 -0.2798 0.625 -0.625 0.625 -0.34518 0 -0.62501 -0.2799 -0.62501 -0.625V9.14136c0 -0.34518 0.27983 -0.625 0.62501 -0.625Zm-0.0048 4.60874c0.0091 0 0.0182 -0.0002 0.0273 -0.0005 0.4015 -0.0145 0.7226 -0.3446 0.7226 -0.7496 0 -0.4143 -0.3358 -0.7501 -0.7501 -0.7501 -0.00912 0 -0.01822 0.0002 -0.02727 0.0006 -0.40153 0.0144 -0.72262 0.3445 -0.72262 0.7496 0 0.4142 0.33583 0.75 0.75009 0.75Z" clip-rule="evenodd" stroke-width="1"></path>
  </g>
</svg>