<svg xmlns="http://www.w3.org/2000/svg" fill="none" viewBox="0 0 24 24" id="Google-Stadia-Logo--Streamline-Logos">
  <desc>
    Google Stadia Logo Streamline Icon: https://streamlinehq.com
  </desc>
  <path fill="#000000" d="M3.776 14.017c3.323 -1.111 7.219 -1.269 9.658 -0.209 0 0 -3.588 0.5 -6.468 2.086a0.492 0.492 0 0 0 -0.23 0.573l0.807 2.72c0.106 0.358 0.555 0.485 0.853 0.259 2.302 -1.75 6.437 -3.311 10.41 -2.751a0.521 0.521 0 0 0 0.535 -0.267l1.427 -2.685a0.488 0.488 0 0 0 -0.128 -0.62C16.4 9.885 9.23 9.914 6.938 10.16c4.025 -1.911 9.076 -1.854 14.4 -0.612a0.51 0.51 0 0 0 0.594 -0.312l1.034 -2.672a0.497 0.497 0 0 0 -0.288 -0.648c-3.477 -1.287 -7.343 -1.747 -11.14 -1.321 -3.822 0.428 -7.407 1.735 -10.327 3.76a0.497 0.497 0 0 0 -0.168 0.61l2.093 4.774a0.518 0.518 0 0 0 0.64 0.278Z" stroke-width="1"></path>
</svg>