<svg xmlns="http://www.w3.org/2000/svg" fill="none" viewBox="0 0 24 24" id="Steam-Logo--Streamline-Logos">
  <desc>
    Steam Logo Streamline Icon: https://streamlinehq.com
  </desc>
  <path fill="#000000" fill-rule="evenodd" d="M12 23c6.075 0 11 -4.925 11 -11S18.075 1 12 1C6.248 1 1.527 5.415 1.041 11.042l5.92 2.494a3.235 3.235 0 0 1 1.892 -0.534l2.409 -3.433a4.25 4.25 0 1 1 4.127 3.93l-3.406 2.414a3.25 3.25 0 0 1 -6.447 0.82l-4.123 -1.737C2.718 19.616 6.963 23 12 23Zm-3.25 -4.371a2.38 2.38 0 0 1 -2.198 -1.467l1.36 0.572A1.75 1.75 0 0 0 9.27 14.51l-1.246 -0.525a2.379 2.379 0 1 1 0.726 4.645Zm6.904 -11.127a1.75 1.75 0 1 0 0 3.5 1.75 1.75 0 0 0 0 -3.5Zm-2.75 1.75a2.75 2.75 0 1 1 5.5 0 2.75 2.75 0 0 1 -5.5 0Z" clip-rule="evenodd" stroke-width="1"></path>
</svg>