<svg xmlns="http://www.w3.org/2000/svg" fill="none" viewBox="0 0 48 48" id="Database-Server-3--Streamline-Plump">
  <desc>
    Database Server 3 Streamline Icon: https://streamlinehq.com
  </desc>
  <g id="database-server-3--server-network-internet">
    <path id="Rectangle 137" stroke="#000000" stroke-linecap="round" stroke-linejoin="round" d="M3.11333 18.5554c0.14154 2.3171 2.00022 4.0746 4.3196 4.1713C10.6052 22.859 15.8893 23 24 23c8.1107 0 13.3948 -0.141 16.5671 -0.2733 2.3193 -0.0967 4.178 -1.8542 4.3196 -4.1713C44.9521 17.484 45 16.2671 45 15c0 -1.2671 -0.0479 -2.484 -0.1133 -3.5554 -0.1416 -2.31709 -2.0002 -4.07464 -4.3196 -4.17134C37.3948 7.14101 32.1108 7 24 7c-8.1107 0 -13.3948 0.14101 -16.56707 0.27326 -2.31938 0.0967 -4.17806 1.85426 -4.3196 4.17134C3.04789 12.516 3 13.7329 3 15c0 1.2671 0.04789 2.484 0.11333 3.5554Z" stroke-width="1"></path>
    <path id="Vector 938" stroke="#000000" stroke-linecap="round" stroke-linejoin="round" d="m38 15 -20 0" stroke-width="1"></path>
    <path id="Vector 939" stroke="#000000" stroke-linecap="round" stroke-linejoin="round" d="M11 15h-1" stroke-width="1"></path>
    <path id="Vector 940" stroke="#000000" stroke-linecap="round" stroke-linejoin="round" d="m24 23 0 10" stroke-width="1"></path>
    <path id="Vector 941" stroke="#000000" stroke-linecap="round" stroke-linejoin="round" d="M20.0078 37h-7" stroke-width="1"></path>
    <path id="Vector 942" stroke="#000000" stroke-linecap="round" stroke-linejoin="round" d="M35.0078 37h-7" stroke-width="1"></path>
    <path id="Ellipse 122" stroke="#000000" stroke-linecap="round" stroke-linejoin="round" d="M20.008 37a4 4 0 1 0 8 0 4 4 0 1 0 -8 0" stroke-width="1"></path>
  </g>
</svg>