<svg viewBox="0 0 48 48" fill="none" xmlns="http://www.w3.org/2000/svg" id="Device-Database-Encryption-1--Streamline-Plump">
  <desc>
    Device Database Encryption 1 Streamline Icon: https://streamlinehq.com
  </desc>
  <g id="device-database-encryption-1">
    <path id="Rectangle 1097" d="M23.067 15.9858c0.0485 1.5994 1.1329 2.9088 2.7311 2.9863 0.36 0.0174 0.76 0.0279 1.2019 0.0279 0.4419 0 0.8419 -0.0105 1.2019 -0.0279 1.5982 -0.0775 2.6826 -1.3869 2.7311 -2.9863C30.9695 14.779 31 13.1333 31 11c0 -2.13329 -0.0305 -3.77899 -0.067 -4.98584 -0.0485 -1.59937 -1.1329 -2.90874 -2.7311 -2.98624C27.8419 3.01046 27.4419 3 27 3c-0.4419 0 -0.8419 0.01046 -1.2019 0.02792 -1.5982 0.0775 -2.6826 1.38687 -2.7311 2.98624C23.0305 7.22101 23 8.86671 23 11c0 2.1333 0.0305 3.779 0.067 4.9858Z" stroke="#000000" stroke-linecap="round" stroke-linejoin="round" stroke-width="3"></path>
    <path id="Rectangle 1524" d="M13.067 37.9858c0.0485 1.5994 1.1329 2.9088 2.7311 2.9863 0.36 0.0174 0.76 0.0279 1.2019 0.0279 0.4419 0 0.8419 -0.0105 1.2019 -0.0279 1.5982 -0.0775 2.6826 -1.3869 2.7311 -2.9863C20.9695 36.779 21 35.1333 21 33s-0.0305 -3.779 -0.067 -4.9858c-0.0485 -1.5994 -1.1329 -2.9088 -2.7311 -2.9863 -0.36 -0.0174 -0.76 -0.0279 -1.2019 -0.0279 -0.4419 0 -0.8419 0.0105 -1.2019 0.0279 -1.5982 0.0775 -2.6826 1.3869 -2.7311 2.9863C13.0305 29.221 13 30.8667 13 33s0.0305 3.779 0.067 4.9858Z" stroke="#000000" stroke-linecap="round" stroke-linejoin="round" stroke-width="3"></path>
    <path id="Rectangle 56" d="M27.0686 36.2132c0.0977 -1.7397 1.3398 -2.9307 3.0782 -3.0506C31.4512 33.0727 33.331 33 36 33c2.8172 0 4.7436 0.081 6.0398 0.1778 1.5869 0.1185 2.7417 1.1799 2.8613 2.7667C44.9593 36.7167 45 37.7158 45 39c0 1.2842 -0.0407 2.2833 -0.0989 3.0555 -0.1196 1.5868 -1.2744 2.6482 -2.8613 2.7667C40.7436 44.919 38.8172 45 36 45c-2.8172 0 -4.7436 -0.081 -6.0398 -0.1778 -1.5869 -0.1185 -2.7417 -1.1799 -2.8613 -2.7667C27.0407 41.2833 27 40.2842 27 39c0 -1.14 0.0275 -2.0554 0.0686 -2.7868Z" stroke="#000000" stroke-linecap="round" stroke-linejoin="round" stroke-width="3"></path>
    <path id="Subtract" d="m40.8901 33.1063 -0.1335 -3.5263c-0.0969 -2.557 -2.198 -4.58 -4.7569 -4.58s-4.6599 2.023 -4.7568 4.5801l-0.1335 3.5255" stroke="#000000" stroke-linecap="round" stroke-linejoin="round" stroke-width="3"></path>
    <path id="Vector 1114" d="M36 38v2" stroke="#000000" stroke-linecap="round" stroke-linejoin="round" stroke-width="3"></path>
    <path id="Vector 1115" d="M3 3h3c0.55228 0 1 0.44772 1 1v15" stroke="#000000" stroke-linecap="round" stroke-linejoin="round" stroke-width="3"></path>
    <path id="Vector 1116" d="M13 3h3c0.5523 0 1 0.44772 1 1v15" stroke="#000000" stroke-linecap="round" stroke-linejoin="round" stroke-width="3"></path>
    <path id="Vector 1117" d="M3 25h3c0.55228 0 1 0.4477 1 1v15" stroke="#000000" stroke-linecap="round" stroke-linejoin="round" stroke-width="3"></path>
  </g>
</svg>