<svg xmlns="http://www.w3.org/2000/svg" fill="none" viewBox="0 0 14 14" id="Medical-Ribbon-1--Streamline-Core">
  <desc>
    Medical Ribbon 1 Streamline Icon: https://streamlinehq.com
  </desc>
  <g id="medical-ribbon-1--ribbon-medical-cancer-health-beauty-symbol">
    <path id="Ellipse 1802" fill="#7af1ff" d="M0 7a7 7 0 1 0 14 0A7 7 0 1 0 0 7" stroke-width="1"></path>
    <path id="Vector (Stroke)" fill="#0c098c" fill-rule="evenodd" d="M2.90737 4.05769C2.90737 1.97846 4.71449 -0.0000246761 7.00009 2e-10 8.16127 2e-10 9.18397 0.534907 9.90742 1.28761c0.71908 0.74816 1.18538 1.75587 1.18538 2.77008 0 1.26438 -0.5399 2.51381 -1.27572 3.64019 -0.55371 0.84758 -1.23918 1.65711 -1.95041 2.39202 0.86613 0.8006 1.72341 1.4766 2.37703 1.9605 0.3451 0.2555 0.632 0.4565 0.8318 0.593 0.0999 0.0682 0.1779 0.1203 0.2303 0.1549 0.0262 0.0174 0.0461 0.0303 0.0591 0.0388l0.0143 0.0092 0.0031 0.0021c0 -0.0001 0.0001 0 0 0 0.2906 0.1862 0.3759 0.573 0.1898 0.8637 -0.1862 0.2906 -0.5727 0.3754 -0.8634 0.1892l0.31 -0.4841c-0.31 0.4841 -0.3099 0.4842 -0.31 0.4841l-0.0023 -0.0014 -0.0049 -0.0032 -0.018 -0.0116c-0.0154 -0.0101 -0.0377 -0.0247 -0.0666 -0.0437 -0.0576 -0.0381 -0.141 -0.0938 -0.2466 -0.1659 -0.2111 -0.1443 -0.51109 -0.3544 -0.87041 -0.6204 -0.68969 -0.5107 -1.60279 -1.2308 -2.52689 -2.0892 -0.90376 0.8432 -1.79285 1.556 -2.46781 2.0661 -0.35894 0.2712 -0.6586 0.4861 -0.86941 0.6337 -0.10543 0.0739 -0.18872 0.1309 -0.24619 0.1699 -0.02873 0.0195 -0.05102 0.0345 -0.06639 0.0447l-0.01783 0.0119 -0.00491 0.0033 -0.00145 0.0009c-0.00015 0.0001 -0.00075 0.0005 -0.32162 -0.4865l0.32162 0.4865c-0.28825 0.1899 -0.67662 0.1107 -0.86651 -0.1776 -0.18987 -0.2882 -0.11019 -0.6757 0.17795 -0.8656 -0.00004 0 0.00004 -0.0001 0 0l0.0039 -0.0026 0.01439 -0.0096 0.05926 -0.0399c0.05259 -0.0357 0.13072 -0.0892 0.23073 -0.1593 0.20008 -0.1401 0.48741 -0.3461 0.83284 -0.6071 0.64108 -0.4844 1.47793 -1.1553 2.3271 -1.944 -0.69192 -0.71585 -1.35676 -1.5049 -1.89651 -2.33607 -0.73775 -1.13607 -1.27479 -2.4015 -1.27479 -3.69694Zm4.06492 5.1589c0.66991 -0.69257 1.29933 -1.43854 1.79831 -2.20236 0.67292 -1.03007 1.07221 -2.03717 1.07221 -2.95654 0 -0.64083 -0.30374 -1.34947 -0.83662 -1.90389 -0.52851 -0.54988 -1.23967 -0.9038 -2.00611 -0.9038 -1.56963 -0.00002 -2.84271 1.39293 -2.84271 2.80769 0 0.95727 0.40213 1.98286 1.07314 3.01616 0.48486 0.74665 1.093 1.47103 1.74178 2.14274Z" clip-rule="evenodd" stroke-width="1"></path>
  </g>
</svg>