<svg xmlns="http://www.w3.org/2000/svg" fill="none" viewBox="0 0 14 14" id="Nurse-Hat--Streamline-Core">
  <desc>
    Nurse Hat Streamline Icon: https://streamlinehq.com
  </desc>
  <g id="nurse-hat--health-medical-hospital-nurse-doctor-cap">
    <path id="Vector" fill="#7af1ff" d="M13.375 5.76963c-4.14994 -1.29701 -8.60006 -1.29701 -12.75 0l1.96154 6.57747h8.82696l1.9615 -6.57747Z" stroke-width="1"></path>
    <path id="Union" fill="#0c098c" fill-rule="evenodd" d="M9.20974 1.00105H4.7503c-0.32652 -0.012204 -0.64825 0.08253 -0.91615 0.27001 -0.26532 0.18567 -0.46327 0.4521 -0.56451 0.75929L2.19033 4.70394c-0.5886 0.13187 -1.17306 0.28825 -1.751858 0.46914 -0.326417 0.10202 -0.5102278 0.44744 -0.412493 0.77516L1.98752 12.5257c0.07898 0.2648 0.32255 0.4464 0.59893 0.4464h8.82695c0.2764 0 0.5199 -0.1816 0.5989 -0.4464l1.9615 -6.57746c0.0978 -0.32772 -0.086 -0.67314 -0.4124 -0.77516 -0.5793 -0.18104 -1.1643 -0.33753 -1.7533 -0.46946l-1.1188 -2.67647c-0.1015 -0.30584 -0.299 -0.57107 -0.5634 -0.75609 -0.26791 -0.18748 -0.58964 -0.282214 -0.91616 -0.27001ZM4.62491 8.52344c0 -0.34518 0.27982 -0.625 0.625 -0.625h1.125v-1.125c0 -0.34518 0.27982 -0.625 0.625 -0.625s0.625 0.27982 0.625 0.625v1.125h1.125c0.34518 0 0.625 0.27982 0.625 0.625s-0.27982 0.625 -0.625 0.625h-1.125v1.12496c0 0.3452 -0.27982 0.625 -0.625 0.625s-0.625 -0.2798 -0.625 -0.625V9.14844h-1.125c-0.34518 0 -0.625 -0.27982 -0.625 -0.625ZM1.40276 6.19095l1.6495 5.53115h7.89534l1.6495 -5.53115c-3.66006 -1.02543 -7.53432 -1.02543 -11.19434 0Z" clip-rule="evenodd" stroke-width="1"></path>
  </g>
</svg>