<svg xmlns="http://www.w3.org/2000/svg" fill="none" viewBox="0 0 14 14" id="Waiting-Appointments-Calendar--Streamline-Core">
  <desc>
    Waiting Appointments Calendar Streamline Icon: https://streamlinehq.com
  </desc>
  <g id="waiting-appointments-calendar">
    <path id="Vector" fill="#fddc5c" d="M2 2.625c-0.26522 0 -0.51957 0.10536 -0.70711 0.29289C1.10536 3.10543 1 3.35978 1 3.625v8.25c0 0.2652 0.10536 0.5196 0.29289 0.7071 0.18754 0.1875 0.44189 0.2929 0.70711 0.2929h10c0.2652 0 0.5196 -0.1054 0.7071 -0.2929S13 12.1402 13 11.875v-8.25c0 -0.26522 -0.1054 -0.51957 -0.2929 -0.70711 -0.1875 -0.18753 -0.4419 -0.29289 -0.7071 -0.29289H2Z" stroke-width="1"></path>
    <path id="Union" fill="#0c098c" fill-rule="evenodd" d="M4.125 0.875C4.125 0.529822 3.84518 0.25 3.5 0.25s-0.625 0.279822 -0.625 0.625V2H2c-0.43098 0 -0.8443 0.1712 -1.149049 0.47595C0.546205 2.7807 0.375 3.19402 0.375 3.625v8.25c0 0.431 0.171205 0.8443 0.475951 1.149C1.1557 13.3288 1.56902 13.5 2 13.5h10c0.431 0 0.8443 -0.1712 1.149 -0.476 0.3048 -0.3047 0.476 -0.718 0.476 -1.149v-8.25c0 -0.43098 -0.1712 -0.8443 -0.476 -1.14905C12.8443 2.1712 12.431 2 12 2h-0.875V0.875c0 -0.345178 -0.2798 -0.625 -0.625 -0.625s-0.625 0.279822 -0.625 0.625V2h-5.75V0.875Zm5.75 3V3.25h-5.75v0.625c0 0.34518 -0.27982 0.625 -0.625 0.625s-0.625 -0.27982 -0.625 -0.625V3.25H2c-0.09946 0 -0.19484 0.03951 -0.26517 0.10983 -0.07032 0.07033 -0.10983 0.16571 -0.10983 0.26517v8.25c0 0.0995 0.03951 0.1948 0.10983 0.2652 0.07033 0.0703 0.16571 0.1098 0.26517 0.1098h10c0.0995 0 0.1948 -0.0395 0.2652 -0.1098 0.0703 -0.0704 0.1098 -0.1657 0.1098 -0.2652v-8.25c0 -0.09946 -0.0395 -0.19484 -0.1098 -0.26517C12.1948 3.28951 12.0995 3.25 12 3.25h-0.875v0.625c0 0.34518 -0.2798 0.625 -0.625 0.625s-0.625 -0.27982 -0.625 -0.625ZM5.83181 5.6139c0 -0.20098 0.16292 -0.3639 0.36389 -0.3639h1.6086c0.20097 0 0.36389 0.16292 0.36389 0.3639v1.34292H9.5111c0.20098 0 0.3639 0.16293 0.3639 0.3639v1.6086c0 0.20097 -0.16292 0.36389 -0.3639 0.36389H8.16819v1.34289c0 0.201 -0.16292 0.3639 -0.36389 0.3639H6.1957c-0.20097 0 -0.36389 -0.1629 -0.36389 -0.3639V9.29321H4.4889c-0.20098 0 -0.3639 -0.16292 -0.3639 -0.36389v-1.6086c0 -0.20097 0.16292 -0.3639 0.3639 -0.3639h1.34291V5.6139Z" clip-rule="evenodd" stroke-width="1"></path>
  </g>
</svg>