<svg xmlns="http://www.w3.org/2000/svg" fill="none" viewBox="0 0 24 24" id="Hearing-Deaf-1--Streamline-Sharp">
  <desc>
    Hearing Deaf 1 Streamline Icon: https://streamlinehq.com
  </desc>
  <g id="hearing-deaf-1--disability-hearing-deaf">
    <path id="Ellipse 9" fill="#fddc5c" d="M16.3689 2.92605c1.3845 1.38454 2.1623 3.26239 2.1623 5.22043 0 2.70122 -1.073 5.29182 -2.9831 7.20182l-3.345 3.3451v0.5273c0 1.1189 -0.4445 2.1919 -1.2356 2.9831 -0.7912 0.7912 -1.86424 1.2357 -2.98313 1.2357 -1.16497 0 -2.21966 -0.4722 -2.9831 -1.2357 -0.60239 -0.626 -1.07476 -1.3706 -1.23565 -1.6647V8.14648c0 -4.07741 3.3054 -7.382808 7.38278 -7.382808 1.9581 0 3.8359 0.777828 5.2205 2.162378Z" stroke-width="1"></path>
    <path id="Union" fill="#0c098c" fill-rule="evenodd" d="M12.0001 0C7.44375 0 3.75009 3.69365 3.75009 8.25h2.5c0 -3.17564 2.57437 -5.75 5.75001 -5.75 1.525 0 2.9875 0.6058 4.0659 1.68414 1.0783 1.07833 1.6841 2.54087 1.6841 4.06586 0 2.2296 -0.8857 4.368 -2.4623 5.9445l-3.1716 3.1716 -0.3661 0.3661V18.75c0 0.7293 -0.2897 1.4288 -0.8055 1.9445 -0.5157 0.5158 -1.21516 0.8055 -1.94451 0.8055 -0.75973 0 -1.44552 -0.3064 -1.94454 -0.8055l-1.76777 1.7678C6.23648 23.411 7.55069 24 9.00009 24c1.39241 0 2.72771 -0.5531 3.71231 -1.5377 0.9804 -0.9804 1.533 -2.3085 1.5377 -3.6945l2.8054 -2.8055c2.0455 -2.0454 3.1946 -4.8196 3.1946 -7.7123 0 -0.81404 -0.1203 -1.61568 -0.3511 -2.38115l3.985 -3.98497L22.1162 0.116117 18.7401 3.49227c-0.2692 -0.38128 -0.5719 -0.74147 -0.9064 -1.0759C16.2865 0.869194 14.1881 0 12.0001 0Zm0 4c-1.1272 0 -2.20818 0.44777 -3.00521 1.2448 -0.79703 0.79703 -1.2448 1.87803 -1.2448 3.0052h2.50001c0 -0.46413 0.1844 -0.90925 0.5126 -1.23744 0.3281 -0.32819 0.7733 -0.51256 1.2374 -0.51256 0.4641 0 0.9092 0.18437 1.2374 0.51256 0.3282 0.32819 0.5126 0.77331 0.5126 1.23744h2.5c0 -1.12717 -0.4478 -2.20817 -1.2448 -3.0052C14.2083 4.44777 13.1273 4 12.0001 4ZM1.88398 23.8839l11.00002 -11 -1.7678 -1.7678 -10.999989 11 1.767769 1.7678Z" clip-rule="evenodd" stroke-width="1"></path>
  </g>
</svg>