<svg xmlns="http://www.w3.org/2000/svg" fill="none" viewBox="0 0 24 24" id="School-Bus-Side--Streamline-Sharp">
  <desc>
    School Bus Side Streamline Icon: https://streamlinehq.com
  </desc>
  <g id="school-bus-side">
    <path id="Vector" fill="#79ee8d" d="M22.75 11.625v8H1.25v-17h17.5v9l4 0Z" stroke-width="1"></path>
    <path id="Union" fill="#0c098c" fill-rule="evenodd" d="M0 1.375h20v9h4v10.5h-3.4689c-0.1516 0.2627 -0.338 0.5067 -0.5562 0.7249 -0.6564 0.6564 -1.5466 1.0251 -2.4749 1.0251 -0.9283 0 -1.8185 -0.3687 -2.4749 -1.0251 -0.2182 -0.2182 -0.4046 -0.4622 -0.5562 -0.7249H9.5311c-0.15164 0.2627 -0.33804 0.5067 -0.55623 0.7249C8.3185 22.2563 7.42826 22.625 6.5 22.625c-0.92826 0 -1.8185 -0.3687 -2.47487 -1.0251 -0.21819 -0.2182 -0.40459 -0.4622 -0.55623 -0.7249H0v-19.5Zm9.91871 17h4.16259c0.1422 -0.6483 0.4672 -1.2482 0.9438 -1.7249 0.6564 -0.6564 1.5466 -1.0251 2.4749 -1.0251 0.9283 0 1.8185 0.3687 2.4749 1.0251 0.4766 0.4767 0.8016 1.0766 0.9438 1.7249H21.5v-5.5l-2.75 0H17.5v-9h-15v14.5h0.58129c0.14223 -0.6483 0.4672 -1.2482 0.94384 -1.7249C4.6815 15.9937 5.57174 15.625 6.5 15.625c0.92826 0 1.8185 0.3687 2.47487 1.0251 0.47664 0.4767 0.80161 1.0766 0.94384 1.7249ZM9 5.625H4.25v5.5H9v-5.5Zm6.75 0H11v5.5h4.75v-5.5Z" clip-rule="evenodd" stroke-width="1"></path>
  </g>
</svg>