<svg xmlns="http://www.w3.org/2000/svg" fill="none" viewBox="0 0 14 14" id="Blood-Donate-Drop--Streamline-Core">
  <desc>
    Blood Donate Drop Streamline Icon: https://streamlinehq.com
  </desc>
  <g id="blood-donate-drop">
    <path id="Union" fill="#000000" fill-rule="evenodd" d="m7 0.464 0.377 -0.27a0.464 0.464 0 0 0 -0.754 0L7 0.464Zm0 0 -0.377 -0.27 -0.002 0.002 -0.005 0.006L6.6 0.226a15.595 15.595 0 0 0 -0.276 0.4 23.46 23.46 0 0 0 -0.652 1.027 12.4 12.4 0 0 0 -0.664 1.25c-0.176 0.395 -0.33 0.831 -0.33 1.198 0 0.631 0.24 1.24 0.673 1.691 0.434 0.452 1.027 0.71 1.649 0.71 0.622 0 1.215 -0.258 1.649 -0.71 0.433 -0.451 0.673 -1.06 0.673 -1.69 0 -0.368 -0.154 -0.804 -0.33 -1.2a12.408 12.408 0 0 0 -0.664 -1.25A23.088 23.088 0 0 0 7.4 0.227L7.384 0.202 7.379 0.196 7.378 0.195 7 0.465ZM0 5.112v4.726a2 2 0 0 0 0.586 1.414l2.191 2.191V14H6.11v-2.874a2.22 2.22 0 0 0 -0.65 -1.57L4.022 8.118l-0.004 -0.004a0.8 0.8 0 0 0 -1.076 1.182l0.92 0.92a0.5 0.5 0 1 1 -0.707 0.707l-0.92 -0.92a1.8 1.8 0 0 1 -0.014 -2.53V5.111a1.11 1.11 0 1 0 -2.222 0Zm14 4.726V5.112a1.11 1.11 0 0 0 -2.222 0v2.361a1.8 1.8 0 0 1 -0.014 2.532l-0.92 0.919a0.5 0.5 0 0 1 -0.707 -0.707l0.92 -0.92A0.8 0.8 0 0 0 9.98 8.115l-0.004 0.004L8.54 9.555a2.22 2.22 0 0 0 -0.65 1.571V14h3.332v-0.556l2.191 -2.192A2 2 0 0 0 14 9.838Z" clip-rule="evenodd" stroke-width="1"></path>
  </g>
</svg>