<svg xmlns="http://www.w3.org/2000/svg" fill="none" viewBox="0 0 14 14" id="Blood-Bag-Donation--Streamline-Core">
  <desc>
    Blood Bag Donation Streamline Icon: https://streamlinehq.com
  </desc>
  <g id="blood-bag-donation">
    <path id="Union" fill="#000000" fill-rule="evenodd" d="M2.43266 7.80577v-0.12991c0.94424 -0.30098 2.54668 -0.44642 4.56847 0.32308 2.00126 0.7617 3.59517 0.50905 4.54487 0.11 -0.1134 0.80362 -0.6719 1.48721 -1.458 1.74927l-0.91223 0.30409c-0.29448 0.0981 -0.49311 0.3737 -0.49311 0.6841v0.4808c0 0.1328 -0.10762 0.2404 -0.24038 0.2404H7.02411c-0.00782 -0.0003 -0.01566 -0.0004 -0.02354 -0.0004 -0.00787 0 -0.01572 0.0001 -0.02353 0.0004H5.55766c-0.13276 0 -0.24038 -0.1076 -0.24038 -0.2404v-0.4808c0 -0.3104 -0.19863 -0.586 -0.49311 -0.6841l-0.91219 -0.30409c-0.88343 -0.29448 -1.47932 -1.12122 -1.47932 -2.05244Zm3.84676 5.20413h-0.72176c-0.91623 0 -1.66143 -0.7323 -1.68224 -1.6436l-0.41954 -0.1398C1.98349 10.7357 0.990356 9.3578 0.990356 7.80577V3.63488c0 -1.99141 1.614354 -3.6057662 3.605774 -3.6057662h4.80769c1.99138 0 3.60578 1.6143562 3.60578 3.6057662v4.17089c0 1.55203 -0.9931 2.92993 -2.4655 3.42073l-0.4196 0.1398c-0.0208 0.9113 -0.76598 1.6436 -1.68222 1.6436h-0.72055v0.24c0 0.3983 -0.32287 0.7211 -0.72116 0.7211 -0.39828 0 -0.72115 -0.3228 -0.72115 -0.7211v-0.24Zm0.72276 -10.17662 0.40633 -0.29137c-0.0939 -0.13096 -0.24518 -0.20863 -0.40633 -0.20863 -0.16115 0 -0.31242 0.07767 -0.40633 0.20863l0.40633 0.29137Zm0 0c-0.40633 -0.29137 -0.40636 -0.29133 -0.4064 -0.29128l-0.00008 0.00012 -0.00023 0.00032 -0.0007 0.00097 -0.00232 0.00326 -0.00826 0.01163 -0.02979 0.04246c-0.02533 0.03634 -0.06113 0.08828 -0.10391 0.15196 -0.08527 0.12693 -0.19976 0.30265 -0.31502 0.49584 -0.11426 0.19153 -0.23455 0.40898 -0.32781 0.61784 -0.08472 0.18972 -0.18011 0.44211 -0.18011 0.67926 0 0.36785 0.14002 0.72457 0.39539 0.99072 0.25606 0.26685 0.60785 0.4208 0.97924 0.4208 0.3714 0 0.72319 -0.15395 0.97924 -0.4208 0.25537 -0.26615 0.3954 -0.62287 0.3954 -0.99072 0 -0.23715 -0.0954 -0.48954 -0.18012 -0.67926 -0.09326 -0.20886 -0.21354 -0.42631 -0.32781 -0.61784 -0.11525 -0.19319 -0.22974 -0.36891 -0.31502 -0.49584 -0.04278 -0.06368 -0.07858 -0.11562 -0.1039 -0.15196l-0.0298 -0.04246 -0.00825 -0.01163 -0.00233 -0.00326 -0.0007 -0.00097 -0.00023 -0.00032 -0.00008 -0.00012c-0.00004 -0.00005 -0.00007 -0.00009 -0.4064 0.29128Z" clip-rule="evenodd" stroke-width="1"></path>
  </g>
</svg>