<svg xmlns="http://www.w3.org/2000/svg" fill="none" viewBox="0 0 14 14" id="Call-Center-Support-Service--Streamline-Core">
  <desc>
    Call Center Support Service Streamline Icon: https://streamlinehq.com
  </desc>
  <g id="call-center-support-service">
    <path id="Union" fill="#000000" fill-rule="evenodd" d="M5.656 1.195A1.514 1.514 0 0 1 7.084 0.186H7.7a1.49 1.49 0 0 1 0.597 2.857l-1.319 0.577a0.264 0.264 0 0 0 -0.13 0.122h1.718a0.625 0.625 0 1 1 0 1.25h-2.37a0.625 0.625 0 0 1 -0.626 -0.625v-0.505c0 -0.602 0.356 -1.146 0.907 -1.387l1.32 -0.577a0.24 0.24 0 0 0 -0.097 -0.462h-0.616a0.264 0.264 0 0 0 -0.249 0.176 0.625 0.625 0 0 1 -1.179 -0.417ZM11.76 0.47a0.829 0.829 0 0 1 1.452 0.546v1.839a0.625 0.625 0 0 1 0 1.248v0.265a0.625 0.625 0 0 1 -1.25 0v-0.264h-1.53A0.84 0.84 0 0 1 9.8 2.709L11.76 0.47Zm-0.425 2.384 0.627 -0.717v0.717h-0.627ZM8.915 13.8a2.7 2.7 0 0 1 -1.75 -0.415 24.23 24.23 0 0 1 -6.56 -6.56 2.7 2.7 0 0 1 0.41 -3.37l0.38 -0.38a0.91 0.91 0 0 1 1.28 0l1.54 1.6a0.9 0.9 0 0 1 0 1.27 0.91 0.91 0 0 0 0 1.28l2.55 2.55a0.91 0.91 0 0 0 1.28 0 0.9 0.9 0 0 1 1.27 0l1.6 1.59a0.91 0.91 0 0 1 0 1.28l-0.38 0.38a2.7 2.7 0 0 1 -1.62 0.775Z" clip-rule="evenodd" stroke-width="1"></path>
  </g>
</svg>