<svg xmlns="http://www.w3.org/2000/svg" fill="none" viewBox="0 0 14 14" id="Checkup-Medical-Report-Clipboard--Streamline-Core">
  <desc>
    Checkup Medical Report Clipboard Streamline Icon: https://streamlinehq.com
  </desc>
  <g id="checkup-medical-report-clipboard">
    <path id="Subtract" fill="#000000" fill-rule="evenodd" d="M4.5 1a1 1 0 0 1 1 -1h3a1 1 0 0 1 1 1v0.5a1 1 0 0 1 -1 1h-3a1 1 0 0 1 -1 -1V1Zm6.25 0h0.5a1.5 1.5 0 0 1 1.5 1.5v10a1.5 1.5 0 0 1 -1.5 1.5h-8.5a1.5 1.5 0 0 1 -1.5 -1.5v-10A1.5 1.5 0 0 1 2.75 1h0.5v0.5A2.25 2.25 0 0 0 5.5 3.75h3a2.25 2.25 0 0 0 2.25 -2.25V1ZM5.97 5.948c0 -0.217 0.176 -0.392 0.393 -0.392h1.275c0.216 0 0.392 0.175 0.392 0.392v1.56l1.56 0c0.217 0 0.392 0.176 0.392 0.393v1.275a0.392 0.392 0 0 1 -0.392 0.392H8.03l0 1.56a0.392 0.392 0 0 1 -0.392 0.393H6.362a0.392 0.392 0 0 1 -0.392 -0.393v-1.56H4.41a0.392 0.392 0 0 1 -0.392 -0.392V7.9c0 -0.217 0.175 -0.393 0.392 -0.393h1.56v-1.56Z" clip-rule="evenodd" stroke-width="1"></path>
  </g>
</svg>