<svg xmlns="http://www.w3.org/2000/svg" fill="none" viewBox="0 0 14 14"><g id="ear-hearing--health-medical-hearing-ear"><path id="Union" fill="#3e3e3e" fill-rule="evenodd" d="M.53 3.03C1.1 1.752 2.36.371 4.455.371c2.966 0 4.635 2.183 4.635 4.36 0 2.093-1.303 3.426-2.237 4.112-.586.43-.965.769-.965 1.283 0 1.278-1.044 2.17-2.146 2.414-1.14.252-2.482-.14-3.186-1.527a1.85 1.85 0 0 1-.185-.841v-6.35c0-.254.041-.528.159-.792Zm2.833 1.384c.181-.547.564-.972 1.11-.972.845 0 1.342.662 1.342 1.42 0 .47-.11.742-.234.923-.134.194-.321.34-.58.505l-.133.083c-.22.136-.507.314-.728.53a1.73 1.73 0 0 0-.53 1.287c0 .233-.062.356-.108.416a.268.268 0 0 1-.169.105c-.139.025-.317-.043-.4-.24a.625.625 0 1 0-1.151.488 1.619 1.619 0 0 0 1.777.981c.355-.065.69-.255.934-.571.243-.316.366-.721.366-1.179 0-.2.06-.298.158-.396.111-.109.244-.192.446-.318l.21-.132c.293-.187.657-.443.937-.85.29-.42.455-.948.455-1.632 0-1.274-.894-2.67-2.591-2.67-1.34 0-2.043 1.06-2.298 1.83a.625.625 0 1 0 1.187.392Zm9.516 4.284a.75.75 0 0 1 .75.75 4.18 4.18 0 0 1-4.18 4.18.75.75 0 0 1 0-1.5c1.48 0 2.68-1.2 2.68-2.68a.75.75 0 0 1 .75-.75Zm-1.694-.141a.75.75 0 0 0-1.5 0c0 .605-.49 1.095-1.095 1.095a.75.75 0 1 0 0 1.5 2.595 2.595 0 0 0 2.595-2.595Z" clip-rule="evenodd"></path></g></svg>