<svg xmlns="http://www.w3.org/2000/svg" fill="none" viewBox="0 0 14 14" id="Blood-Donate-Drop--Streamline-Core">
  <desc>
    Blood Donate Drop Streamline Icon: https://streamlinehq.com
  </desc>
  <g id="blood-donate-drop">
    <path id="vector 2614" stroke="#000000" stroke-linecap="round" stroke-linejoin="round" d="M3.02148 12.75s-1.00214 -1.0021 -1.91427 -1.9143c-0.375069 -0.375 -0.585726 -0.88369 -0.585726 -1.41413V5.25c0 -0.55228 0.447716 -1 0.999996 -1v0c0.55229 0 1 0.44772 1 1v3" stroke-width="1"></path>
    <path id="vector 2616" stroke="#000000" stroke-linecap="round" stroke-linejoin="round" d="M10.9785 12.75s1.0022 -1.0021 1.9143 -1.9143c0.3751 -0.375 0.5857 -0.88369 0.5857 -1.41413V5.25c0 -0.55228 -0.4477 -1 -1 -1v0c-0.5523 0 -1 0.44772 -1 1v3" stroke-width="1"></path>
    <path id="vector 2615" stroke="#000000" stroke-linecap="round" stroke-linejoin="round" d="m3.43567 10.0783 -0.70711 -0.70713c-0.39052 -0.39052 -0.39052 -1.02369 0 -1.41421 0.39053 -0.39053 1.02369 -0.39053 1.41422 0l1.29289 1.29289c0.37507 0.37507 0.58579 0.88375 0.58579 1.41425V12.75" stroke-width="1"></path>
    <path id="vector 2617" stroke="#000000" stroke-linecap="round" stroke-linejoin="round" d="m10.5643 10.0783 0.7071 -0.70713c0.3905 -0.39052 0.3905 -1.02369 0 -1.41421 -0.3905 -0.39053 -1.0237 -0.39053 -1.4142 0L8.5643 9.24985c-0.37507 0.37507 -0.58578 0.88375 -0.58578 1.41425V12.75" stroke-width="1"></path>
    <path id="vector" stroke="#000000" stroke-linecap="round" stroke-linejoin="round" d="M9.02148 5.16566c0 -1.1265 -2 -3.91566 -2 -3.91566s-2 2.78916 -2 3.91566c0 0.5528 0.21072 1.08296 0.58579 1.47385 0.37507 0.39089 0.88378 0.61049 1.41421 0.61049 0.53044 0 1.03915 -0.2196 1.41422 -0.61049 0.37507 -0.39089 0.58578 -0.92105 0.58578 -1.47385v0Z" stroke-width="1"></path>
  </g>
</svg>