<svg xmlns="http://www.w3.org/2000/svg" fill="none" viewBox="0 0 14 14" id="Ear-Hearing--Streamline-Core">
  <desc>
    Ear Hearing Streamline Icon: https://streamlinehq.com
  </desc>
  <g id="ear-hearing--health-medical-hearing-ear">
    <path id="Vector 1115" stroke="#000000" stroke-linecap="round" stroke-linejoin="round" d="M0.540222 3.18944C0.853992 2.29296 2.08858 0.5 4.51675 0.5c3.03523 0 4.77722 2.57969 4.24548 4.99468 -0.46105 2.09392 -1.76735 2.82391 -2.34366 3.32338 -0.84188 0.72963 -0.84164 1.32494 -1.147 2.28794 -0.17661 0.5571 -0.79032 1.3514 -1.6452 1.4493 -0.61955 0.0709 -1.36576 -0.2239 -2.16406 -1.2399" stroke-width="1"></path>
    <path id="Ellipse 343" stroke="#000000" stroke-linecap="round" stroke-linejoin="round" d="M13.5 9.78564c0 2.05136 -1.663 3.71426 -3.71429 3.71426" stroke-width="1"></path>
    <path id="Ellipse 345" stroke="#000000" stroke-linecap="round" stroke-linejoin="round" d="M11.7832 9.71558c0 1.10312 -0.8943 1.99742 -1.99749 1.99742" stroke-width="1"></path>
    <path id="Ellipse 344" stroke="#000000" stroke-linecap="round" stroke-linejoin="round" d="M10.1222 9.15991c0 0.51284 -0.41573 0.92859 -0.92857 0.92859" stroke-width="1"></path>
    <path id="Vector 1116" stroke="#000000" stroke-linecap="round" stroke-linejoin="round" d="M2.34618 4.49565c0.18179 -0.44891 0.83025 -1.32536 1.96982 -1.23982 1.13958 0.08554 2.11805 1.23982 1.71463 2.31083 -0.40341 1.071 -0.93658 0.73945 -1.42156 1.45998 -0.48498 0.72053 -0.30383 2.16621 -1.38315 2.38208 -0.67236 0.13447 -1.02548 -0.25137 -1.02548 -0.25137" stroke-width="1"></path>
  </g>
</svg>