<svg xmlns="http://www.w3.org/2000/svg" fill="none" viewBox="0 0 14 14"><g id="medical-search-diagnosis"><path id="vector" stroke="#3e3e3e" stroke-linecap="round" stroke-linejoin="round" d="M6.478 12.207a5.729 5.729 0 1 0 0-11.457 5.729 5.729 0 0 0 0 11.457Z"></path><path id="vector_2" stroke="#3e3e3e" stroke-linecap="round" stroke-linejoin="round" d="m13.25 13.25-2.722-2.723"></path><path id="union" stroke="#3e3e3e" stroke-linecap="round" stroke-linejoin="round" d="M5.666 3.26a.5.5 0 0 0-.5.5v1.406H3.759a.5.5 0 0 0-.5.5v1.625a.5.5 0 0 0 .5.5h1.407v1.407a.5.5 0 0 0 .5.5H7.29a.5.5 0 0 0 .5-.5V7.79h1.406a.5.5 0 0 0 .5-.5V5.666a.5.5 0 0 0-.5-.5H7.791V3.76a.5.5 0 0 0-.5-.5H5.666Z"></path></g></svg>