<svg xmlns="http://www.w3.org/2000/svg" fill="none" viewBox="0 0 14 14" id="Tooth--Streamline-Core">
  <desc>
    Tooth Streamline Icon: https://streamlinehq.com
  </desc>
  <g id="tooth--health-medical-tooth">
    <path id="vector 2013" stroke="#000000" stroke-linecap="round" stroke-linejoin="round" d="M1.4903 5.13206c0.32384 -2.94697 2.91625 -3.23103 4.68192 -2.20792 0.55497 0.32158 1.10058 0.32158 1.65556 0 1.76566 -1.02311 4.35802 -0.73905 4.68192 2.20792 0.3249 2.95643 -1.34 6.08414 -2.2314 7.28194 -0.2028 0.2725 -0.53025 0.4027 -0.86993 0.4027 -0.55675 0 -1.05373 -0.3492 -1.24255 -0.8729l-0.31486 -0.8734c-0.12932 -0.3587 -0.46967 -0.5978 -0.85096 -0.5978 -0.3813 0 -0.72165 0.2391 -0.85097 0.5978l-0.31486 0.8734c-0.18882 0.5237 -0.6858 0.8729 -1.24255 0.8729 -0.33968 0 -0.66713 -0.1302 -0.86992 -0.4027 -0.89138 -1.1978 -2.55628 -4.32551 -2.2314 -7.28194Z" stroke-width="1"></path>
    <path id="vector 2014" stroke="#000000" stroke-linecap="round" stroke-linejoin="round" d="M8.29108 5.27954c-1.06035 0.38665 -1.62995 0.37882 -2.58217 0" stroke-width="1"></path>
  </g>
</svg>