<svg xmlns="http://www.w3.org/2000/svg" viewBox="0 0 24 24" id="Single-Neutral-Actions-Edit-2--Streamline-Ultimate">
  <desc>
    Single Neutral Actions Edit 2 Streamline Icon: https://streamlinehq.com
  </desc>
  <g id="Single-Neutral-Actions-Edit-2--Streamline-Ultimate.svg">
    <path d="M13.84 15.33a0.49 0.49 0 0 0 0.1 -0.57 7.52 7.52 0 0 0 -6.73 -4.26A7.55 7.55 0 0 0 0 15.86a0.5 0.5 0 0 0 0.08 0.44 0.48 0.48 0 0 0 0.4 0.2h12a0.47 0.47 0 0 0 0.35 -0.15Z" fill="#000000" stroke-width="1"></path>
    <path d="M2.25 4.75a4.75 4.75 0 1 0 9.5 0 4.75 4.75 0 1 0 -9.5 0" fill="#000000" stroke-width="1"></path>
    <path d="M19.53 11.77 13 18.27a0.48 0.48 0 0 0 0 0.7l3 3a0.48 0.48 0 0 0 0.7 0l6.51 -6.5a2.62 2.62 0 0 0 -3.71 -3.7Z" fill="#000000" stroke-width="1"></path>
    <path d="M12.39 20.46a0.5 0.5 0 0 0 -0.84 0.26L11 23.4a0.49 0.49 0 0 0 0.14 0.45 0.51 0.51 0 0 0 0.45 0.14l2.68 -0.54a0.48 0.48 0 0 0 0.38 -0.34 0.49 0.49 0 0 0 -0.12 -0.5Z" fill="#000000" stroke-width="1"></path>
  </g>
</svg>