<svg xmlns="http://www.w3.org/2000/svg" viewBox="0 0 32 32" id="Business-Products-Treasure--Streamline-Pixel">
  <desc>
    Business Products Treasure Streamline Icon: https://streamlinehq.com
  </desc>
  <title>Business-Products-treasure</title>
  <g>
    <path d="m1.525 13.72 0 13.71 1.52 0 0 -12.19 19.81 0 0 12.19 -19.81 0 0 1.52 25.91 0 0 -1.52 -4.57 0 0 -12.19 4.57 0 0 12.19 1.52 0 0 -19.81 -1.52 0 0 4.57 -1.53 0 0 1.53 -19.81 0 0 -1.53 -1.52 0 0 1.53 -4.57 0z" fill="#000000" stroke-width="1"></path>
    <path d="M27.425 6.1h1.53v1.52h-1.53Z" fill="#000000" stroke-width="1"></path>
    <path d="M25.905 16.76h1.52v9.15h-1.52Z" fill="#000000" stroke-width="1"></path>
    <path d="M25.905 10.67h1.52v1.52h-1.52Z" fill="#000000" stroke-width="1"></path>
    <path d="M25.905 4.57h1.52V6.1h-1.52Z" fill="#000000" stroke-width="1"></path>
    <path d="M24.385 9.14h1.52v1.53h-1.52Z" fill="#000000" stroke-width="1"></path>
    <path d="M24.385 6.1h1.52v1.52h-1.52Z" fill="#000000" stroke-width="1"></path>
    <path d="M13.715 19.81h-1.53v6.1h7.62v-9.15h-6.09Zm4.57 1.52v3.05h-4.57v-3.05Z" fill="#000000" stroke-width="1"></path>
    <path d="M10.665 16.76h1.52v1.53h-1.52Z" fill="#000000" stroke-width="1"></path>
    <path d="M9.145 16.76h-4.57v9.15h6.09v-6.1h-1.52Zm0 7.62H6.1v-3.05h3.05Z" fill="#000000" stroke-width="1"></path>
    <path d="M4.575 3.05h21.33v1.52H4.575Z" fill="#000000" stroke-width="1"></path>
    <path d="M4.575 10.67h1.52v1.52h-1.52Z" fill="#000000" stroke-width="1"></path>
    <path d="m24.385 9.14 0 -1.52 -21.34 0 0 -1.52 -1.52 0 0 3.04 1.52 0 0 1.53 1.53 0 0 -1.53 19.81 0z" fill="#000000" stroke-width="1"></path>
    <path d="M3.045 4.57h1.53V6.1h-1.53Z" fill="#000000" stroke-width="1"></path>
  </g>
</svg>