<svg xmlns="http://www.w3.org/2000/svg" viewBox="0 0 32 32" id="Business-Products-Factory--Streamline-Pixel">
  <desc>
    Business Products Factory Streamline Icon: https://streamlinehq.com
  </desc>
  <title>business-products-factory</title>
  <g>
    <path d="M30.47 9.145H32v21.33h-1.53Z" fill="#000000" stroke-width="1"></path>
    <path d="m30.47 1.525 -4.57 0 0 7.62 1.53 0 0 -6.1 1.52 0 0 6.1 1.52 0 0 -7.62z" fill="#000000" stroke-width="1"></path>
    <path d="M27.43 24.385h1.52v1.52h-1.52Z" fill="#000000" stroke-width="1"></path>
    <path d="M27.43 18.285h1.52v1.52h-1.52Z" fill="#000000" stroke-width="1"></path>
    <path d="M27.43 12.195h1.52v1.52h-1.52Z" fill="#000000" stroke-width="1"></path>
    <path d="m24.38 12.195 -3.05 0 0 1.52 3.05 0 0 16.76 1.52 0 0 -21.33 -1.52 0 0 3.05z" fill="#000000" stroke-width="1"></path>
    <path d="M21.33 3.045h1.53v1.53h-1.53Z" fill="#000000" stroke-width="1"></path>
    <path d="M19.81 18.285h3.05v3.05h-3.05Z" fill="#000000" stroke-width="1"></path>
    <path d="M18.28 1.525h3.05v1.52h-3.05Z" fill="#000000" stroke-width="1"></path>
    <path d="M18.28 13.715h3.05v1.52h-3.05Z" fill="#000000" stroke-width="1"></path>
    <path d="M15.24 24.385h3.04v3.04h-3.04Z" fill="#000000" stroke-width="1"></path>
    <path d="M15.24 15.235h3.04v1.53h-3.04Z" fill="#000000" stroke-width="1"></path>
    <path d="M15.24 3.045h3.04v1.53h-3.04Z" fill="#000000" stroke-width="1"></path>
    <path d="M13.71 1.525h1.53v1.52h-1.53Z" fill="#000000" stroke-width="1"></path>
    <path d="m13.71 12.195 -3.05 0 0 1.52 1.53 0 0 16.76 1.52 0 0 -12.19 1.53 0 0 -1.52 -1.53 0 0 -4.57z" fill="#000000" stroke-width="1"></path>
    <path d="M9.14 6.095h1.52v1.52H9.14Z" fill="#000000" stroke-width="1"></path>
    <path d="M7.62 18.285h3.04v3.05H7.62Z" fill="#000000" stroke-width="1"></path>
    <path d="M7.62 13.715h3.04v1.52H7.62Z" fill="#000000" stroke-width="1"></path>
    <path d="M6.09 4.575h3.05v1.52H6.09Z" fill="#000000" stroke-width="1"></path>
    <path d="M4.57 15.235h3.05v1.53H4.57Z" fill="#000000" stroke-width="1"></path>
    <path d="M3.05 24.385h3.04v3.04H3.05Z" fill="#000000" stroke-width="1"></path>
    <path d="M3.05 6.095h3.04v1.52H3.05Z" fill="#000000" stroke-width="1"></path>
    <path d="M1.52 16.765h3.05v1.52H1.52Z" fill="#000000" stroke-width="1"></path>
    <path d="M1.52 4.575h1.53v1.52H1.52Z" fill="#000000" stroke-width="1"></path>
    <path d="M0 18.285h1.52v12.19H0Z" fill="#000000" stroke-width="1"></path>
  </g>
</svg>