<svg xmlns="http://www.w3.org/2000/svg" viewBox="0 0 32 32" id="Business-Products-Bag--Streamline-Pixel">
  <desc>
    Business Products Bag Streamline Icon: https://streamlinehq.com
  </desc>
  <title>business-products-bag</title>
  <g>
    <path d="M29.715 8.38h1.52v6.1h-1.52Z" fill="#000000" stroke-width="1"></path>
    <path d="M28.185 6.86h1.53v1.52h-1.53Z" fill="#000000" stroke-width="1"></path>
    <path d="M26.665 28.19h1.52v1.53h-1.52Z" fill="#000000" stroke-width="1"></path>
    <path d="m26.665 16 1.52 0 0 12.19 1.53 0 0 -13.71 -3.05 0 0 1.52z" fill="#000000" stroke-width="1"></path>
    <path d="M23.615 16h3.05v1.53h-3.05Z" fill="#000000" stroke-width="1"></path>
    <path d="M5.335 29.72h21.33v1.52H5.335Z" fill="#000000" stroke-width="1"></path>
    <path d="M20.575 17.53h3.04v1.52h-3.04Z" fill="#000000" stroke-width="1"></path>
    <path d="m14.475 20.57 0 3.05 3.05 0 0 -3.05 3.05 0 0 -1.52 -3.05 0 0 -1.52 -3.05 0 0 1.52 -3.05 0 0 1.52 3.05 0z" fill="#000000" stroke-width="1"></path>
    <path d="M8.375 0.76h15.24v1.53H8.375Z" fill="#000000" stroke-width="1"></path>
    <path d="M8.375 17.53h3.05v1.52h-3.05Z" fill="#000000" stroke-width="1"></path>
    <path d="M5.335 16h3.04v1.53h-3.04Z" fill="#000000" stroke-width="1"></path>
    <path d="m28.185 6.86 0 -1.52 -3.04 0 0 -3.05 -1.53 0 0 3.05 -15.24 0 0 -3.05 -1.52 0 0 3.05 -3.05 0 0 1.52 24.38 0z" fill="#000000" stroke-width="1"></path>
    <path d="M3.805 28.19h1.53v1.53h-1.53Z" fill="#000000" stroke-width="1"></path>
    <path d="m3.805 16 1.53 0 0 -1.52 -3.05 0 0 13.71 1.52 0 0 -12.19z" fill="#000000" stroke-width="1"></path>
    <path d="M2.285 6.86h1.52v1.52h-1.52Z" fill="#000000" stroke-width="1"></path>
    <path d="M0.765 8.38h1.52v6.1H0.765Z" fill="#000000" stroke-width="1"></path>
  </g>
</svg>