<svg xmlns="http://www.w3.org/2000/svg" fill="none" viewBox="0 0 14 14" id="Alien--Streamline-Core">
  <desc>
    Alien Streamline Icon: https://streamlinehq.com
  </desc>
  <g id="alien--science-extraterristerial-life-form-space-universe-head-astronomy">
    <path id="Subtract" fill="#000000" fill-rule="evenodd" d="M7 0C5.1517 0 3.41338 0.361019 2.12226 1.24052 0.803257 2.13901 0 3.54704 0 5.5c0 1.91911 0.782881 4.0233 2.02095 5.6492C3.2556 12.7705 5.01161 14 7 14c1.98839 0 3.7444 -1.2295 4.979 -2.8508C13.2171 9.5233 14 7.41911 14 5.5c0 -1.95296 -0.8033 -3.36099 -2.1223 -4.25948C10.5866 0.361019 8.8483 0 7 0ZM2.52082 4.16893c0.43757 -0.0942 0.88984 -0.09734 1.32867 -0.00922 0.43883 0.08813 0.85482 0.26563 1.22209 0.52147 0.02427 0.0169 0.04534 0.03797 0.06225 0.06224 0.25583 0.36727 0.43333 0.78326 0.52146 1.22209 0.08812 0.43883 0.08498 0.8911 -0.00922 1.32867 -0.02068 0.09606 -0.09572 0.1711 -0.19178 0.19178 -0.43757 0.0942 -0.88984 0.09734 -1.32867 0.00922 -0.43883 -0.08813 -0.85482 -0.26563 -1.22209 -0.52146 -0.02427 -0.01691 -0.04534 -0.03798 -0.06224 -0.06225 -0.25584 -0.36727 -0.43334 -0.78326 -0.52146 -1.22209 -0.08813 -0.43883 -0.08499 -0.8911 0.00921 -1.32867 0.02069 -0.09606 0.09572 -0.1711 0.19178 -0.19178Zm7.62968 -0.00922c0.4389 -0.08812 0.8911 -0.08498 1.3287 0.00922 0.0961 0.02068 0.1711 0.09572 0.1918 0.19178 0.0942 0.43757 0.0973 0.88984 0.0092 1.32867 -0.0881 0.43883 -0.2656 0.85482 -0.5215 1.22209 -0.0169 0.02427 -0.0379 0.04534 -0.0622 0.06225 -0.3673 0.25583 -0.7833 0.43333 -1.22211 0.52146 -0.43883 0.08812 -0.8911 0.08498 -1.32866 -0.00922 -0.09606 -0.02068 -0.1711 -0.09572 -0.19178 -0.19178 -0.09421 -0.43757 -0.09735 -0.88984 -0.00922 -1.32867 0.08812 -0.43883 0.26563 -0.85482 0.52146 -1.22209 0.0169 -0.02427 0.03798 -0.04534 0.06224 -0.06224 0.36727 -0.25584 0.78327 -0.43334 1.22207 -0.52147Z" clip-rule="evenodd" stroke-width="1"></path>
  </g>
</svg>