<svg xmlns="http://www.w3.org/2000/svg" fill="none" viewBox="0 0 14 14" id="Clean-Water-And-Sanitation--Streamline-Core">
  <desc>
    Clean Water And Sanitation Streamline Icon: https://streamlinehq.com
  </desc>
  <g id="clean-water-and-sanitation">
    <path id="Union" fill="#000000" fill-rule="evenodd" d="M2.19822 2.02193C2.06651 0.968251 2.8881 0.0375671 3.94998 0.0375671h5.82273c1.06189 0 1.88349 0.9306849 1.75179 1.9843629l-0.7616 6.09238c-0.1104 0.88345 -0.86141 1.54642 -1.75174 1.54642H7.49779v1.30437h0.71315c0.30335 0 0.57683 0.1827 0.69291 0.463 0.11609 0.2802 0.05192 0.6028 -0.16258 0.8173l-1.461 1.461c-0.00738 0.0075 -0.01491 0.0147 -0.02258 0.0219 -0.0629 0.0583 -0.13337 0.1039 -0.20809 0.1368 -0.09235 0.0406 -0.19444 0.0631 -0.30181 0.0631 -0.1106 0 -0.21562 -0.0239 -0.31014 -0.0669 -0.065 -0.0295 -0.12666 -0.0687 -0.18276 -0.1178 -0.01416 -0.0123 -0.02786 -0.0252 -0.04106 -0.0386l-1.4595 -1.4595c-0.2145 -0.2145 -0.27867 -0.5371 -0.16258 -0.8173 0.11608 -0.2803 0.38956 -0.463 0.69291 -0.463h0.71313V9.66073H4.71153c-0.89033 0 -1.64133 -0.66297 -1.75176 -1.54642l-0.76155 -6.09238Zm3.15283 3.19786c-0.34181 0.07102 -0.73881 0.11045 -1.23031 0.08895l-0.4341 -3.47286c-0.0198 -0.1584 0.10371 -0.29831 0.26334 -0.29831h5.82273c0.15963 0 0.28319 0.13991 0.26339 0.29831L9.74719 4.1468c-0.59527 -0.03412 -1.09537 0.0068 -1.54034 0.0958 -0.60647 0.12129 -1.09102 0.32897 -1.52932 0.51682l-0.00001 0.00001 -0.01333 0.00571c-0.43733 0.18743 -0.82956 0.35417 -1.31314 0.45465Z" clip-rule="evenodd" stroke-width="1"></path>
  </g>
</svg>