<svg xmlns="http://www.w3.org/2000/svg" fill="none" viewBox="0 0 14 14"><g id="shovel-rake--nature-crops-plants"><path id="Union" fill="#3e3e3e" fill-rule="evenodd" d="M11.866 1.563h-.671V7.73a3.119 3.119 0 0 1 2.367 3.027v2.368a.75.75 0 0 1-1.5 0v-2.368c0-.623-.351-1.163-.867-1.434v3.802a.75.75 0 0 1-1.5 0V9.323c-.516.27-.868.811-.868 1.434v2.368a.75.75 0 0 1-1.5 0v-2.368A3.12 3.12 0 0 1 9.695 7.73V1.562h-.67a.75.75 0 0 1 0-1.5h2.84a.75.75 0 0 1 0 1.5ZM1.523 2.04a2.383 2.383 0 0 1 4.584 0l.775 2.715A2.5 2.5 0 0 1 4.565 7.94v4.434h.67a.75.75 0 0 1 0 1.5h-2.84a.75.75 0 0 1 0-1.5h.67V7.941A2.5 2.5 0 0 1 .749 4.756l.775-2.715Z" clip-rule="evenodd"></path></g></svg>