<svg xmlns="http://www.w3.org/2000/svg" fill="none" viewBox="0 0 14 14" id="Volcano--Streamline-Core">
  <desc>
    Volcano Streamline Icon: https://streamlinehq.com
  </desc>
  <g id="volcano--nature-eruption-erupt-mountain-volcano-lava-magma-explosion">
    <path id="Union" fill="#000000" fill-rule="evenodd" d="M6.99843 0.0463867c-0.93553 0 -1.76442 0.4536043 -2.2798 1.1516333 -0.30025 -0.13795 -0.63438 -0.214947 -0.98594 -0.214947 -1.30548 0 -2.36379 1.058307 -2.36379 2.363787 0 1.3055 1.05834 2.3638 2.36382 2.3638h0.98759V4.51865c0 -0.34518 0.27982 -0.625 0.625 -0.625s0.625 0.27982 0.625 0.625v2.84322h2.05607V4.51865c0 -0.34518 0.27983 -0.625 0.625 -0.625 0.34518 0 0.625 0.27982 0.625 0.625v1.19201h0.98772c1.3055 0 2.3638 -1.0583 2.3638 -2.3638 0 -1.30548 -1.0583 -2.363787 -2.3637 -2.363787 -0.3516 0 -0.68573 0.076997 -0.98598 0.214947C8.76284 0.499991 7.93395 0.0463867 6.99843 0.0463867ZM4.19094 8.98613c0 -0.27614 0.22386 -0.5 0.5 -0.5h4.61812c0.27615 0 0.5 0.22386 0.5 0.5 0 0.91691 0.61224 1.78597 1.47254 2.52837 0.8455 0.7298 1.8342 1.252 2.3685 1.4789 0.2188 0.0929 0.3419 0.327 0.2945 0.5599 -0.0474 0.233 -0.2522 0.4003 -0.4899 0.4003H0.545338c-0.237701 0 -0.442544 -0.1673 -0.4899541 -0.4003 -0.04740989 -0.2329 0.0757201 -0.467 0.2945091 -0.5599 0.534314 -0.2269 1.522977 -0.7491 2.368557 -1.4789 0.86022 -0.7424 1.47249 -1.61146 1.47249 -2.52837Z" clip-rule="evenodd" stroke-width="1"></path>
  </g>
</svg>