<svg xmlns="http://www.w3.org/2000/svg" fill="none" viewBox="0 0 14 14" id="Toaster--Streamline-Flex">
  <desc>
    Toaster Streamline Icon: https://streamlinehq.com
  </desc>
  <g id="toaster--bread-toast-cook-cooking-appliances-kitchenware">
    <path id="Subtract" fill="#fddc5c" d="M8.59776 5.65785c0.01359 -0.6159 0.00764 -1.23137 -0.02629 -1.70696 1.60373 -0.42483 1.23233 -2.40114 -0.21206 -2.78213 -1.48496 -0.391682 -2.88818 -0.391681 -4.37314 0 -1.4444 0.38099 -1.81582 2.3573 -0.21206 2.78213 -0.03391 0.47535 -0.03987 1.09046 -0.02631 1.70606 0.79004 -0.05945 1.59767 -0.10604 2.41894 -0.10604 0.82543 0 1.63707 0.04706 2.43092 0.10694Z" stroke-width="1"></path>
    <path id="Subtract_2" fill="#fddc5c" d="M0.876465 9.33809c0 -0.64742 0.07493 -1.28295 0.166115 -1.90282 0.1354 -0.92039 0.90888 -1.63188 1.83809 -1.70886 1.06303 -0.08807 2.16172 -0.17538 3.28599 -0.17538s2.22296 0.08731 3.28598 0.17538c0.92926 0.07698 1.70266 0.78847 1.83806 1.70886 0.0912 0.61987 0.1662 1.2554 0.1662 1.90282 0 0.21268 -0.0081 0.42408 -0.0222 0.63407 -0.0288 0.42924 -0.0828 0.85224 -0.144 1.26854 -0.1354 0.9204 -0.9089 1.6319 -1.83812 1.7088 -1.06302 0.0881 -2.16171 0.1754 -3.28598 0.1754s-2.22296 -0.0873 -3.28598 -0.1754c-0.92922 -0.0769 -1.7027 -0.7884 -1.83809 -1.7088 -0.053468 -0.3635 -0.101281 -0.7321 -0.131743 -1.1055l-0.034322 -0.79711Z" stroke-width="1"></path>
    <path id="Union" fill="#0c098c" fill-rule="evenodd" d="M3.82675 0.564434c1.58944 -0.419245 3.10251 -0.419245 4.69196 0 0.97244 0.2565 1.60639 1.057376 1.70999 1.902886 0.0525 0.42818 -0.0303 0.88116 -0.29153 1.27108 -0.17613 0.26291 -0.41946 0.47651 -0.71871 0.63103 0.00771 0.22564 0.01113 0.46584 0.01095 0.71148l0.27483 0.02263c0.95896 0.07945 1.79396 0.67553 2.18936 1.52244h1.3047c0.4142 0 0.75 0.33578 0.75 0.75 0 0.41421 -0.3358 0.75 -0.75 0.75h-0.9876c0.0427 0.3934 0.0712 0.79881 0.0712 1.21211 0 0.22848 -0.0087 0.45396 -0.0236 0.67591 -0.0304 0.4529 -0.087 0.8944 -0.1493 1.3176 -0.1786 1.2145 -1.1927 2.1404 -2.40481 2.2408 -1.06136 0.0879 -2.18411 0.1775 -3.33759 0.1775 -1.15347 0 -2.27623 -0.0896 -3.33758 -0.1775C1.61689 13.472 0.60284 12.5461 0.424182 11.3316c-0.054413 -0.3699 -0.10432 -0.7532 -0.136326 -1.1456 -0.000649 -0.008 -0.001146 -0.016 -0.00149 -0.0239l-0.034323 -0.79712c-0.000385 -0.00896 -0.000578 -0.01792 -0.000578 -0.02689 0 -0.69327 0.080176 -1.36434 0.172771 -1.99378C0.602895 6.12983 1.61695 5.20396 2.82907 5.10354l0.28697 -0.02362c-0.00017 -0.24529 0.00326 -0.48516 0.01095 -0.71049 -0.29924 -0.15452 -0.54257 -0.36812 -0.71871 -0.63103 -0.26122 -0.38992 -0.34407 -0.8429 -0.29156 -1.27108 0.10367 -0.84551 0.73759 -1.646386 1.71003 -1.902886ZM8.1999 1.7731c-1.38048 -0.36413 -2.67386 -0.36413 -4.05434 0 -0.47195 0.12448 -0.74594 0.50226 -0.78814 0.84636 -0.02043 0.16662 0.0143 0.31119 0.08935 0.42321 0.07247 0.10816 0.21287 0.23135 0.48736 0.30406 0.29019 0.07687 0.48474 0.34919 0.46338 0.64863 -0.02024 0.28369 -0.03017 0.6257 -0.03135 0.99227 0.58783 -0.03661 1.18931 -0.06172 1.80057 -0.06172 0.61541 0 1.22092 0.02545 1.81257 0.06247 -0.00117 -0.36686 -0.0111 -0.70914 -0.03135 -0.99302 -0.02136 -0.29943 0.17318 -0.57176 0.46337 -0.64863 0.27449 -0.07271 0.4149 -0.1959 0.48737 -0.30406 0.07505 -0.11203 0.10977 -0.25659 0.08934 -0.42321 -0.04219 -0.3441 -0.31618 -0.72188 -0.78813 -0.84636ZM2.93228 6.34928c1.06469 -0.08821 2.13931 -0.17325 3.23438 -0.17325 1.09506 0 2.16969 0.08504 3.23438 0.17325 0.64626 0.05354 1.17926 0.55064 1.27136 1.17696 0.0898 0.61028 0.1595 1.21028 0.1595 1.81185 0 0.19689 -0.0075 0.39421 -0.0208 0.59221 -0.0055 0.0811 -0.0119 0.1622 -0.0191 0.2433 -0.0484 0.0066 -0.0972 0.0116 -0.1464 0.0148l-0.3055 0.0197 -0.0001 0c-1.41695 0.0918 -2.88428 0.1868 -4.38729 0.1868 -1.50301 0 -2.97034 -0.095 -4.38731 -0.1868l-0.00004 0 -0.021 -0.0013c-0.0034 -0.0369 -0.00663 -0.0738 -0.00967 -0.1106l-0.03321 -0.7713c0.001 -0.59715 0.07033 -1.19284 0.15945 -1.79866 0.09213 -0.62632 0.62503 -1.12342 1.27135 -1.17696Z" clip-rule="evenodd" stroke-width="1"></path>
  </g>
</svg>