<svg xmlns="http://www.w3.org/2000/svg" fill="none" viewBox="-0.5 0 41 41" id="Checking-Order--Streamline-Stickies">
  <desc>
    Checking Order Streamline Icon: https://streamlinehq.com
  </desc>
  <path fill="#ff52a1" stroke="#231f20" stroke-miterlimit="10" d="M36.41 22.46c-0.8899 -0.0928 -1.7884 -0.0625 -2.67 0.09 -0.45 -0.65 -1 -1.42 -1.59 -2.09 -0.8886 -1.1056 -1.8945 -2.1114 -3 -3 -0.3382 -0.1907 -0.7279 -0.2701 -1.1137 -0.227 -0.3859 0.0431 -0.7484 0.2064 -1.0363 0.467 -0.3093 0.2302 -0.5364 0.5537 -0.6481 0.9228 -0.1116 0.369 -0.1017 0.7642 0.0281 1.1272 0.6741 1.2437 1.4859 2.4076 2.42 3.47 -1.23 0.21 -2.43 0.43 -3.46 0.64 -1.03 0.21 -2.22 0.48 -3.43 0.76 0.4351 -1.345 0.7235 -2.733 0.86 -4.14 -0.0238 -0.3852 -0.1708 -0.7525 -0.4193 -1.0478 -0.2485 -0.2953 -0.5853 -0.5029 -0.9607 -0.5922 -0.3637 -0.1301 -0.7593 -0.141 -1.1296 -0.0314 -0.3703 0.1097 -0.6962 0.3343 -0.9304 0.6414 -0.6612 1.2483 -1.181 2.5665 -1.55 3.93 -0.25 0.83 -0.49 1.76 -0.65 2.54 -0.8704 0.2222 -1.7077 0.5585 -2.49 1 -1.42 1.18 -0.05 4 1.3 6.4 2.7 4.7 2.95 5.56 4.72 6.09 1.05 0.31 3.89 0 7.67 -0.76s6.5 -1.61 7.34 -2.31c1.42 -1.18 1.7 -2.05 2 -7.45 0.21 -3.5 0.51 -5.89 -1.26 -6.43Z" stroke-width="1"></path>
  <path stroke="#231f20" stroke-linecap="round" stroke-linejoin="round" d="M20.4 29.56c0.5541 1.9475 1.2219 3.8607 2 5.73" stroke-width="1"></path>
  <path stroke="#231f20" stroke-linecap="round" stroke-linejoin="round" d="M32.19 27.15c0.2377 2.0148 0.3612 4.0413 0.37 6.07" stroke-width="1"></path>
  <path stroke="#231f20" stroke-linecap="round" stroke-linejoin="round" d="m26.29 28.36 1.21 5.9" stroke-width="1"></path>
  <path stroke="#ffffff" stroke-linecap="round" stroke-miterlimit="10" d="M35.05 24c0.82 -0.06 1.07 0 0.89 2.15" stroke-width="1"></path>
  <path fill="#48eeff" stroke="#231f20" stroke-miterlimit="10" d="M25.06 13.23c-0.4894 -1.4455 -1.2197 -2.7979 -2.16 -3.99998 -0.8459 -1.23881 -1.8899 -2.33004 -3.09 -3.23l-1 -0.4c-0.2202 -0.07315 -0.4603 -0.0564 -0.6682 0.0466 -0.2078 0.103 -0.3666 0.28392 -0.4418 0.5034 -0.3086 0.80939 -0.8798 1.49185 -1.6222 1.93814 -0.7424 0.44629 -1.6131 0.63061 -2.4726 0.52345 -0.8596 -0.10715 -1.6584 -0.49959 -2.2685 -1.1145 -0.6101 -0.6149 -0.9963 -1.41671 -1.0967 -2.27709 -0.0204 -0.23001 -0.1304 -0.44279 -0.30622 -0.59245 -0.17585 -0.14966 -0.40347 -0.2242 -0.63378 -0.20755 -0.66 0.06 -1.1 0.12 -1.12 0.13 -1.39593 0.59622 -2.68078 1.4246 -3.8 2.45 -1.19599 0.9171 -2.23604 2.02132 -3.08 3.26998 -0.450002 0.76 0.15 2.21 0.84 3.1 0.55324 0.7766 1.3712 1.3243 2.3 1.54 -0.26 3.1 -0.4 5.62 0 6.45 0.74 1.5 4.57 2.3 7.23 2.63 2.66 0.33 6.57 0.5 7.66 -0.78 0.6 -0.7 1.08 -3.18 1.59 -6.25 0.9445 0.0009 1.8574 -0.3401 2.57 -0.96 0.89 -0.67 1.83 -1.92 1.57 -2.77Z" stroke-width="1"></path>
  <path stroke="#231f20" stroke-linecap="round" stroke-miterlimit="10" d="M5.27 12.79c0.12296 -0.8604 0.33751 -1.7052 0.64 -2.52" stroke-width="1"></path>
  <path stroke="#231f20" stroke-linecap="round" stroke-miterlimit="10" d="M20.64 14.71c0.0926 -0.8642 0.0926 -1.7358 0 -2.6" stroke-width="1"></path>
  <path stroke="#ffffff" stroke-linecap="round" stroke-miterlimit="10" d="M19.67 8c0.6006 0.53079 1.1315 1.13562 1.58 1.8" stroke-width="1"></path>
  <path fill="#ffe236" stroke="#231f20" stroke-miterlimit="10" d="M22.36 2.22c0 0.45617 0.1812 0.89366 0.5038 1.21622 0.3225 0.32257 0.76 0.50378 1.2162 0.50378 0.4562 0 0.8937 -0.18121 1.2162 -0.50378 0.3226 -0.32256 0.5038 -0.76005 0.5038 -1.21622 0 -0.45617 -0.1812 -0.89366 -0.5038 -1.21622C24.9737 0.681214 24.5362 0.5 24.08 0.5c-0.4562 0 -0.8937 0.181214 -1.2162 0.50378 -0.3226 0.32256 -0.5038 0.76005 -0.5038 1.21622Z" stroke-width="1"></path>
  <path fill="#ffe236" stroke="#231f20" stroke-miterlimit="10" d="M28.38 5.66c0 0.45617 0.1812 0.89366 0.5038 1.21623 0.3225 0.32256 0.76 0.50377 1.2162 0.50377 0.4562 0 0.8937 -0.18121 1.2162 -0.50377 0.3226 -0.32257 0.5038 -0.76006 0.5038 -1.21623 0 -0.45617 -0.1812 -0.89366 -0.5038 -1.21622 -0.3225 -0.32256 -0.76 -0.50378 -1.2162 -0.50378 -0.4562 0 -0.8937 0.18122 -1.2162 0.50378 -0.3226 0.32256 -0.5038 0.76005 -0.5038 1.21622Z" stroke-width="1"></path>
  <path fill="#ffe236" stroke="#231f20" stroke-miterlimit="10" d="M36.6 7.15003c-0.8494 1.05868 -1.5992 2.19349 -2.24 3.38997l-0.6 1.1c-0.725 -0.4533 -1.5045 -0.8128 -2.32 -1.07 -0.48 -0.11 -0.9 0.45 -1.16 0.92 -0.26 0.47 -0.52 1.12 -0.17 1.47 0.6523 0.5539 1.3712 1.0242 2.14 1.4 0.705 0.4892 1.4902 0.8513 2.32 1.07 0.68 0.16 1 -0.67 2.53 -3.37 0.6764 -1.1785 1.2421 -2.4171 1.69 -3.69998 0.0514 -0.13524 0.0756 -0.2793 0.0713 -0.42391 -0.0044 -0.14462 -0.0372 -0.28696 -0.0967 -0.41887 -0.0594 -0.1319 -0.1443 -0.25078 -0.2498 -0.34983 -0.1055 -0.09905 -0.2294 -0.17632 -0.3648 -0.22738 -0.2338 -0.17667 -0.5279 -0.25374 -0.8183 -0.2144 -0.2903 0.03934 -0.5534 0.1919 -0.7317 0.4244Z" stroke-width="1"></path>
</svg>