<svg xmlns="http://www.w3.org/2000/svg" fill="none" viewBox="0 0 24 24" id="Seasoning-Food--Streamline-Ultimate">
  <desc>
    Seasoning Food Streamline Icon: https://streamlinehq.com
  </desc>
  <path stroke="#000000" stroke-linecap="round" stroke-linejoin="round" d="M19.81 13.583c0.0112 -0.1048 0.0003 -0.2108 -0.0321 -0.3111 -0.0323 -0.1003 -0.0854 -0.1927 -0.1557 -0.2713 -0.0703 -0.0785 -0.1563 -0.1414 -0.2525 -0.1845 -0.0961 -0.0432 -0.2003 -0.0657 -0.3057 -0.0661H2.64601c-0.1054 0.0004 -0.20955 0.0229 -0.3057 0.0661 -0.09616 0.0431 -0.18218 0.106 -0.2525 0.1845 -0.07031 0.0786 -0.12336 0.171 -0.15572 0.2713 -0.03235 0.1003 -0.04327 0.2063 -0.03208 0.3111 0.20371 1.5216 0.82218 2.9578 1.78769 4.1514 0.96551 1.1936 2.24083 2.0985 3.68631 2.6156 0.14146 0.0545 0.26311 0.1505 0.34896 0.2755 0.08585 0.1249 0.13189 0.2729 0.13204 0.4245v1.45c0 0.1989 0.07902 0.3897 0.21967 0.5303 0.14066 0.1407 0.33142 0.2197 0.53033 0.2197H13.105c0.1989 0 0.3897 -0.079 0.5303 -0.2197 0.1407 -0.1406 0.2197 -0.3314 0.2197 -0.5303v-1.45c0.0002 -0.1516 0.0462 -0.2996 0.1321 -0.4245 0.0858 -0.125 0.2075 -0.221 0.3489 -0.2755 1.4455 -0.5171 2.7208 -1.422 3.6863 -2.6156 0.9655 -1.1936 1.584 -2.6298 1.7877 -4.1514Z" stroke-width="1"></path>
  <path stroke="#000000" stroke-linecap="round" stroke-linejoin="round" d="M22.022 3.82601c0.045 0.08765 0.0723 0.18331 0.0804 0.28152 0.008 0.0982 -0.0034 0.19702 -0.0336 0.29082 -0.0302 0.0938 -0.0785 0.18073 -0.1423 0.25582 -0.0638 0.0751 -0.1418 0.13689 -0.2295 0.18184l-3.335 1.713c-0.2636 0.14693 -0.5542 0.2393 -0.8543 0.27162 -0.3001 0.03233 -0.6036 0.00394 -0.8925 -0.08348 -0.2889 -0.08741 -0.5573 -0.23206 -0.7891 -0.42533 -0.2319 -0.19327 -0.4225 -0.43121 -0.5604 -0.69967 -0.138 -0.26845 -0.2206 -0.56192 -0.2428 -0.86294 -0.0222 -0.30102 0.0163 -0.60343 0.1134 -0.88924 0.0971 -0.2858 0.2507 -0.54915 0.4516 -0.77437 0.201 -0.22522 0.4452 -0.4077 0.7181 -0.53659l3.336 -1.716c0.0876 -0.044988 0.1832 -0.072269 0.2813 -0.080281 0.0981 -0.008013 0.1969 0.0034 0.2906 0.033586 0.0937 0.030185 0.1806 0.078551 0.2556 0.14233 0.075 0.063779 0.1367 0.141725 0.1815 0.229365l1.371 2.668Z" stroke-width="1"></path>
  <path stroke="#000000" stroke-linecap="round" stroke-linejoin="round" d="m10.855 6 0.75 -0.75" stroke-width="1"></path>
  <path stroke="#000000" stroke-linecap="round" stroke-linejoin="round" d="m11.605 9 0.75 -0.75" stroke-width="1"></path>
  <path stroke="#000000" stroke-linecap="round" stroke-linejoin="round" d="m14.605 9.75 0.75 -0.75" stroke-width="1"></path>
</svg>