<svg xmlns="http://www.w3.org/2000/svg" fill="none" viewBox="0 0 24 24" id="Graph-Dot--Streamline-Sharp">
  <desc>
    Graph Dot Streamline Icon: https://streamlinehq.com
  </desc>
  <g id="graph-dot--product-data-bars-analysis-analytics-graph-business-chart-dot">
    <path id="Ellipse 19" stroke="#000000" d="M7.97 7.5a2.692 2.692 0 1 1 0 5.383 2.692 2.692 0 0 1 0 -5.384Z" stroke-width="1"></path>
    <path id="Ellipse 904" stroke="#000000" d="M18.58 3a2.692 2.692 0 1 1 0 5.383 2.692 2.692 0 0 1 0 -5.383Z" stroke-width="1"></path>
    <path id="Ellipse 903" stroke="#000000" d="M14.838 12.883a2.692 2.692 0 1 1 0 5.384 2.692 2.692 0 0 1 0 -5.384Z" stroke-width="1"></path>
    <path id="Vector 2181" stroke="#000000" d="m2 15.941 3.841 -4.102" stroke-width="1"></path>
    <path id="Vector 2182" stroke="#000000" d="m10.317 11.533 2.463 2.298" stroke-width="1"></path>
    <path id="Vector 2183" stroke="#000000" d="M16.025 13.143 17.8 8.265" stroke-width="1"></path>
    <path id="Vector" stroke="#000000" d="M2 2v20h20" stroke-width="1"></path>
  </g>
</svg>