<svg xmlns="http://www.w3.org/2000/svg" fill="none" viewBox="0 0 14 14" id="Smiley-Smirk--Streamline-Core-Gradient">
  <desc>
    Smiley Smirk Streamline Icon: https://streamlinehq.com
  </desc>
  <g id="Free Gradient/Mail/smiley-smirk">
    <path id="Subtract" fill="url(#paint0_linear_14402_11455)" fill-rule="evenodd" d="M0 7c0-3.86599 3.13401-7 7-7 3.866 0 7 3.13401 7 7 0 3.866-3.134 7-7 7-3.86599 0-7-3.134-7-7Zm5.75-2.25c0-.55228-.44772-1-1-1s-1 .44772-1 1c0 .55229.44772 1 1 1s1-.44771 1-1Zm2.30105 5.08201c.0312.00427.13983.00017.31983-.06695.1685-.06282.35207-.16351.51501-.28818.16294-.12468.30812-.27553.41282-.42174.11184-.1562.1442-.25997.14823-.2912.04423-.34233.35759-.584.69996-.53978.3423.04422.584.35759.5397.69992-.041.31788-.1992.618-.3716.85878-.1795.25074-.41236.48994-.66952.68674-.25716.1968-.54892.359-.83792.4667-.27749.1035-.60851.1776-.92607.1342-.34199-.0469-.58126-.3621-.53444-.7041.04682-.3419.36202-.58122.704-.53439ZM9.25 3.75c.55228 0 1 .44772 1 1 0 .55229-.44772 1-1 1s-1-.44771-1-1c0-.55228.44772-1 1-1Z" clip-rule="evenodd"></path>
  </g>
  <defs>
    <linearGradient id="paint0_linear_14402_11455" x1="13.953" x2="-2.626" y1="14.003" y2="4.677" gradientUnits="userSpaceOnUse">
      <stop stop-color="#ff51e3"></stop>
      <stop offset="1" stop-color="#1b4dff"></stop>
    </linearGradient>
  </defs>
</svg>