<svg xmlns="http://www.w3.org/2000/svg" fill="none" viewBox="0 0 14 14" id="Smiley-Laughing-3--Streamline-Core-Gradient">
  <desc>
    Smiley Laughing 3 Streamline Icon: https://streamlinehq.com
  </desc>
  <g id="Free Gradient/Mail/smiley-laughing-3">
    <path id="Subtract" fill="url(#paint0_linear_14402_11431)" fill-rule="evenodd" d="M0 7c0-3.86599 3.13401-7 7-7 3.866 0 7 3.13401 7 7 0 3.866-3.134 7-7 7-3.86599 0-7-3.134-7-7Zm2.85151-1.57926c-.33342-.08933-.67613.10853-.76547.44195-.08934.33341.10853.67612.44194.76546l.59157.15851-.42532.24556c-.29893.17259-.40135.55483-.22876.85377.17259.29893.55483.40135.85376.22876l1.73205-1c.21893-.12639.34015-.37222.30716-.62284-.033-.25063-.21372-.4567-.45789-.52213l-2.04904-.54904Zm6.07111-2.48453c.08933-.33342-.10853-.67613-.44195-.76547-.33341-.08934-.67612.10853-.76546.44195l-.54904 2.04903c-.06543.24418.02268.50372.22323.65761.20055.15389.47405.17182.69297.04542l1.73205-1c.29898-.17259.40138-.55483.22878-.85376-.1726-.29894-.55484-.40136-.85378-.22877l-.42532.24556.15852-.59157ZM4.3739 9.23208c-.23915.13807-.32109.44387-.18301.68302.3103.5375.98883 1.1191 1.86834 1.4051.90321.2936 2.02728.2791 3.2044-.4005 1.17717-.6796 1.75177-1.6458 1.94897-2.57485.1921-.90468.0277-1.7831-.2826-2.32057-.1381-.23914-.4439-.32108-.683-.18301L4.3739 9.23208Z" clip-rule="evenodd"></path>
  </g>
  <defs>
    <linearGradient id="paint0_linear_14402_11431" x1="15.213" x2="-3.671" y1="16.965" y2="3.551" gradientUnits="userSpaceOnUse">
      <stop stop-color="#ffd600"></stop>
      <stop offset="1" stop-color="#ff007a"></stop>
    </linearGradient>
  </defs>
</svg>