<svg xmlns="http://www.w3.org/2000/svg" fill="none" viewBox="0 0 14 14" id="Smiley-Crying-1--Streamline-Core-Gradient">
  <desc>
    Smiley Crying 1 Streamline Icon: https://streamlinehq.com
  </desc>
  <g id="Free Gradient/Mail/smiley-crying-1">
    <path id="Subtract" fill="url(#paint0_linear_14402_11351)" fill-rule="evenodd" d="M14 7c0-3.86599-3.134-7-7-7-3.86599 0-7 3.13401-7 7 0 3.866 3.13401 7 7 7 3.866 0 7-3.134 7-7ZM4.99445 3.82648c-.18936-.00929-.41357.02659-.61767.08055-.21311.05635-.45501.14579-.67931.27529-.2243.1295-.42271.29427-.57806.45065-.14879.14978-.29196.32601-.3786.49465-.15774.30703-.03671.6838.27032.84153.30703.15774.68379.03671.84153-.27032-.00002.00004-.00002.00004.00001-.00001l.00009-.00016c.00127-.00219.01269-.02197.04063-.05788.02832-.0364.06641-.08013.11283-.12686.09491-.09554.20713-.18607.31625-.24907.10912-.063.24363-.11492.37383-.14934.06367-.01684.12059-.02796.16627-.03429.04509-.00624.06794-.00624.07044-.00624.00021 0 .00028 0 .0002-.00001.34476.01692.63796-.24886.65487-.59362.01691-.34477-.24886-.63796-.59363-.65487ZM7 6.87494c-1.50125 0-2.8145.80236-3.53533 1.99865-.17815.29565-.08289.67974.21277.85789.29565.17815.67974.08289.85789-.21276C5.03939 8.68217 5.95493 8.12494 7 8.12494c1.04508 0 1.96061.55723 2.46468 1.39378.17815.29565.56222.39091.85792.21276.2956-.17815.3909-.56224.2127-.85789C9.81451 7.6773 8.50126 6.87494 7 6.87494Zm2.13737-1.79372c-.04509-.00624-.06793-.00624-.07043-.00624-.00021 0-.00028 0-.0002-.00001-.34477.01692-.63796-.24886-.65488-.59362-.01691-.34477.24887-.63796.59363-.65487.18937-.00929.41358.02659.61768.08055.21311.05635.45503.14579.67933.27529.2243.1295.4227.29427.578.45065.1488.14978.292.32601.3786.49465.1578.30703.0367.6838-.2703.84153-.307.15774-.6838.03671-.8415-.27032 0 .00007 0 .00001-.0001-.00017-.0013-.00217-.0127-.02195-.0406-.05788-.0284-.0364-.0665-.08013-.11287-.12686-.09491-.09554-.20714-.18607-.31625-.24907-.10912-.063-.24363-.11492-.37383-.14934-.06367-.01684-.1206-.02796-.16628-.03429Z" clip-rule="evenodd"></path>
  </g>
  <defs>
    <linearGradient id="paint0_linear_14402_11351" x1="2.288" x2="13.596" y1="2.692" y2="8.957" gradientUnits="userSpaceOnUse">
      <stop stop-color="#ffd600"></stop>
      <stop offset="1" stop-color="#00d078"></stop>
    </linearGradient>
  </defs>
</svg>