<svg xmlns="http://www.w3.org/2000/svg" fill="none" viewBox="0 0 24 24" id="Ai-Vehicle-Robot-1--Streamline-Sharp">
  <desc>
    Ai Vehicle Robot 1 Streamline Icon: https://streamlinehq.com
  </desc>
  <g id="ai-vehicle-robot-1--car-automated-transportation-artificial-intelligence-ai">
    <path id="Subtract" fill="#7af1ff" fill-rule="evenodd" d="M11 10H4l-1 5H1.25v6h15.5v-6H15l-0.7 -3.5H11V10Z" clip-rule="evenodd" stroke-width="1"></path>
    <path id="Union" fill="#0c098c" fill-rule="evenodd" d="M19.75 2H24v7.5H13V2h4.25V0h2.5v2ZM4 8.75h7v2.5H5.02476l-0.79903 3.9951 -0.20098 1.0049H2.5v3.5h13v-3.5h-1.5248l-0.2009 -1.0049 -0.7491 -3.7451h2.5496l0.45 2.25H18v8.5h-1.75V24h-2.5v-1.75h-9.5V24h-2.5v-1.75H0v-8.5h1.97525l0.79902 -3.99514L2.97524 8.75H4Zm7.5 3.75 0.5 3H6l0.5 -3h5Z" clip-rule="evenodd" stroke-width="1"></path>
    <path id="Union_2" fill="#7af1ff" fill-rule="evenodd" d="M15.25 4.5v2h2v-2h-2Zm4.5 0v2h2v-2h-2Z" clip-rule="evenodd" stroke-width="1"></path>
  </g>
</svg>