<svg xmlns="http://www.w3.org/2000/svg" fill="none" viewBox="0 0 48 48" id="Battery-Charging--Streamline-Plump-Remix">
  <desc>
    Battery Charging Streamline Icon: https://streamlinehq.com
  </desc>
  <g id="battery-charging--phone-mobile-charge-device-electricity-power-battery-charging">
    <path id="Union" fill="#000000" fill-rule="evenodd" d="M21.5578 6.49805c-6.5145 0 -11.1466 0.19288 -14.13605 0.38381 -3.42704 0.21888 -6.21061 2.77859 -6.513458 6.27224C0.695071 15.6138 0.5 19.1807 0.5 23.9988c0.000002 4.8181 0.195072 8.3849 0.408293 10.8446 0.302847 3.4937 3.086417 6.0534 6.513467 6.2723 2.98944 0.1909 7.62154 0.3838 14.13604 0.3838 6.5146 0 11.1466 -0.1929 14.1361 -0.3838 3.427 -0.2189 6.2106 -2.7786 6.5134 -6.2723 0.0455 -0.5248 0.0902 -1.1 0.1323 -1.727l0.039 -0.0038c2.0423 -0.1984 4.1215 -1.5317 4.6248 -3.9234 0.2671 -1.2695 0.4989 -2.9987 0.4989 -5.1751 0 -2.1822 -0.233 -3.9148 -0.501 -5.1852 -0.5028 -2.3831 -2.5715 -3.7148 -4.6059 -3.9195l-0.0542 -0.0055c-0.0426 -0.6359 -0.0878 -1.2186 -0.1339 -1.7498 -0.3028 -3.49365 -3.0864 -6.05336 -6.5134 -6.27224 -2.9895 -0.19093 -7.6215 -0.38382 -14.1361 -0.38381ZM7.6767 10.8737c2.8984 -0.1851 7.4453 -0.3757 13.8811 -0.3757 6.4359 0 10.9827 0.1906 13.8811 0.3757 1.5479 0.0989 2.6594 1.1959 2.7834 2.6258 0.0805 0.9293 0.1592 2.0346 0.2248 3.325 0.0501 0.9871 0.8137 1.7895 1.7971 1.8885l1.7506 0.1762c0.7186 0.0724 1.029 0.4637 1.0926 0.7655 0.2127 1.008 0.4149 2.4639 0.4149 4.3594 0 1.8904 -0.2011 3.3437 -0.4132 4.3514 -0.0638 0.303 -0.3758 0.6958 -1.0972 0.7658l-1.7416 0.1692c-0.9863 0.0958 -1.7537 0.8993 -1.8041 1.8889 -0.0654 1.2834 -0.1437 2.3833 -0.2239 3.3086 -0.124 1.43 -1.2355 2.527 -2.7834 2.6258 -2.8984 0.1851 -7.4452 0.3757 -13.8811 0.3757 -6.4358 0 -10.9826 -0.1906 -13.88109 -0.3757 -1.54792 -0.0988 -2.6594 -1.1958 -2.78336 -2.6258C4.69072 32.1604 4.5 28.7091 4.5 23.9988c0 -4.7104 0.19072 -8.1617 0.39335 -10.4993 0.12395 -1.4299 1.23544 -2.5269 2.78335 -2.6258Zm11.8741 5.0191c1.7207 -1.3644 4.3024 -0.4473 4.7395 1.7188l0.6036 2.9914 4.3127 -0.5029c2.4356 -0.284 3.7862 2.799 1.8243 4.3547l-8.1535 6.4655c-1.7207 1.3644 -4.3024 0.4473 -4.7395 -1.7187l-0.6036 -2.9915 -4.3128 0.503c-2.4355 0.284 -3.78615 -2.7991 -1.8242 -4.3548l8.1535 -6.4655Z" clip-rule="evenodd" stroke-width="1"></path>
  </g>
</svg>