<svg xmlns="http://www.w3.org/2000/svg" fill="none" viewBox="0 0 48 48" id="Command--Streamline-Plump-Remix">
  <desc>
    Command Streamline Icon: https://streamlinehq.com
  </desc>
  <g id="command--mac-command-apple-keyboard">
    <path id="Union" fill="#000000" fill-rule="evenodd" d="M0.498047 11.8927C0.498047 5.59979 5.59943 0.498047 11.8926 0.498047c5.5743 0 10.6204 4.147713 11.0383 10.164253 0.015 0.2154 0.0298 0.438 0.0446 0.6678 0.3352 0.0013 0.6762 0.002 1.0232 0.002 0.347 0 0.6881 -0.0007 1.0233 -0.002 0.0147 -0.2298 0.0296 -0.4524 0.0445 -0.6678C25.4844 4.64576 30.5305 0.498047 36.1048 0.498047c6.2932 0 11.3946 5.101743 11.3946 11.394653 0 5.5742 -4.1476 10.6206 -10.1644 11.0385 -0.2152 0.0149 -0.4377 0.0298 -0.6673 0.0445 -0.0014 0.3353 -0.0021 0.6764 -0.0021 1.0235 0 0.347 0.0007 0.6882 0.0021 1.0234 0.2296 0.0147 0.4521 0.0296 0.6673 0.0446 6.0168 0.4179 10.1644 5.4643 10.1644 11.0385 0 6.2929 -5.1014 11.3946 -11.3946 11.3946 -5.5743 0 -10.6204 -4.1477 -11.0383 -10.1642 -0.0149 -0.2154 -0.0298 -0.438 -0.0445 -0.6678 -0.3352 -0.0013 -0.6763 -0.002 -1.0233 -0.002 -0.347 0 -0.688 0.0007 -1.0232 0.002 -0.0148 0.2298 -0.0296 0.4524 -0.0446 0.6678 -0.4179 6.0165 -5.464 10.1642 -11.0383 10.1642 -6.29317 0 -11.394553 -5.1017 -11.394553 -11.3946 0 -5.5742 4.147613 -10.6206 10.164353 -11.0385 0.2153 -0.015 0.4377 -0.0299 0.6674 -0.0446 0.0013 -0.3352 0.002 -0.6764 0.002 -1.0234 0 -0.3471 -0.0007 -0.6882 -0.002 -1.0235 -0.2297 -0.0147 -0.4521 -0.0296 -0.6674 -0.0445C4.64566 22.5133 0.498047 17.4669 0.498047 11.8927ZM11.8926 4.49805c-4.08394 0 -7.39455 3.31078 -7.39455 7.39465 0 3.6386 2.68294 6.787 6.44145 7.0481 0.7351 0.0511 1.5598 0.1014 2.4773 0.1481 1.0547 0.0537 1.886 0.9181 1.8983 1.9741 0.0108 0.9292 0.0167 1.9076 0.0167 2.9362 0 1.0285 -0.0059 2.0069 -0.0167 2.9361 -0.0123 1.056 -0.8436 1.9205 -1.8983 1.9742 -0.9175 0.0467 -1.7422 0.097 -2.4772 0.1481 -3.75861 0.261 -6.44155 3.4094 -6.44155 7.0481 0 4.0838 3.31061 7.3946 7.39455 7.3946 3.6386 0 6.7869 -2.6829 7.0479 -6.4414 0.0511 -0.7351 0.1014 -1.56 0.1481 -2.4777 0.0537 -1.0547 0.9181 -1.8859 1.9741 -1.8982 0.9292 -0.0108 1.9075 -0.0167 2.936 -0.0167s2.0068 0.0059 2.936 0.0167c1.056 0.0123 1.9204 0.8435 1.9741 1.8982 0.0467 0.9177 0.0971 1.7426 0.1481 2.4777 0.2611 3.7585 3.4093 6.4414 7.0479 6.4414 4.084 0 7.3946 -3.3108 7.3946 -7.3946 0 -3.6387 -2.683 -6.7871 -6.4415 -7.0481 -0.735 -0.0511 -1.5598 -0.1014 -2.4773 -0.1481 -1.0547 -0.0537 -1.8859 -0.9182 -1.8982 -1.9741 -0.0108 -0.9293 -0.0168 -1.9077 -0.0168 -2.9362 0 -1.0286 0.006 -2.007 0.0168 -2.9362 0.0123 -1.056 0.8435 -1.9204 1.8982 -1.9741 0.9175 -0.0467 1.7423 -0.097 2.4773 -0.1481 3.7585 -0.2611 6.4415 -3.4095 6.4415 -7.0481 0 -4.08387 -3.3106 -7.39465 -7.3946 -7.39465 -3.6386 0 -6.7868 2.68295 -7.0479 6.44145 -0.051 0.7351 -0.1014 1.5599 -0.1481 2.4776 -0.0537 1.0547 -0.9181 1.8859 -1.9741 1.8982 -0.9292 0.0109 -1.9075 0.0168 -2.936 0.0168s-2.0068 -0.0059 -2.936 -0.0168c-1.056 -0.0123 -1.9204 -0.8435 -1.9741 -1.8982 -0.0467 -0.9177 -0.097 -1.7425 -0.1481 -2.4776 -0.261 -3.7585 -3.4093 -6.44145 -7.0479 -6.44145ZM39 12.0881C39 10.3824 37.6171 9 35.9119 9c-0.7609 0 -1.4437 0.27657 -1.9455 0.72618 -0.5036 0.45122 -0.8282 1.07792 -0.8787 1.80392 -0.0287 0.4139 -0.0572 0.8665 -0.0846 1.3589 -0.0316 0.5681 0.1803 1.1228 0.5827 1.5252 0.4023 0.4024 0.9571 0.6143 1.5252 0.5827 0.4923 -0.0274 0.9449 -0.0559 1.3587 -0.0846 0.7259 -0.0504 1.3526 -0.375 1.8039 -0.8785 0.4497 -0.5019 0.7264 -1.1848 0.7264 -1.9457Zm-19.0607 7.8512c0.2851 -0.2851 0.673 -0.4434 1.0762 -0.4392 0.9514 0.0098 1.946 0.0151 2.9845 0.0151 1.0385 0 2.0331 -0.0053 2.9845 -0.0151 0.4032 -0.0042 0.7911 0.1541 1.0762 0.4392s0.4434 0.673 0.4392 1.0762c-0.0098 0.9514 -0.0151 1.946 -0.0151 2.9845 0 1.0385 0.0053 2.0331 0.0151 2.9845 0.0042 0.4032 -0.1541 0.7911 -0.4392 1.0762s-0.673 0.4434 -1.0762 0.4392c-0.9514 -0.0098 -1.946 -0.0151 -2.9845 -0.0151 -1.0385 0 -2.0331 0.0053 -2.9845 0.0151 -0.4032 0.0042 -0.7911 -0.1541 -1.0762 -0.4392s-0.4434 -0.673 -0.4392 -1.0762c0.0098 -0.9514 0.0151 -1.946 0.0151 -2.9845 0 -1.0385 -0.0053 -2.0331 -0.0151 -2.9845 -0.0042 -0.4032 0.1541 -0.7911 0.4392 -1.0762ZM12.0881 9C10.3829 9 9 10.3824 9 12.0881c0 0.7609 0.27667 1.4438 0.7264 1.9457 0.4513 0.5035 1.078 0.8281 1.8039 0.8785 0.4138 0.0287 0.8664 0.0572 1.3587 0.0846 0.5681 0.0316 1.1229 -0.1803 1.5252 -0.5827 0.4024 -0.4024 0.6143 -0.9571 0.5827 -1.5252 -0.0274 -0.4924 -0.0559 -0.945 -0.0846 -1.3589 -0.0505 -0.726 -0.3751 -1.3527 -0.8787 -1.80392C13.5318 9.27657 12.849 9 12.0881 9ZM9 35.9119C9 37.6176 10.3829 39 12.0881 39c0.7609 0 1.4437 -0.2766 1.9455 -0.7262 0.5036 -0.4512 0.8282 -1.0779 0.8787 -1.8039 0.0287 -0.4139 0.0572 -0.8665 0.0846 -1.3589 0.0316 -0.5681 -0.1803 -1.1228 -0.5827 -1.5252 -0.4023 -0.4024 -0.9571 -0.6143 -1.5252 -0.5827 -0.4923 0.0274 -0.9449 0.0559 -1.3587 0.0846 -0.7259 0.0504 -1.3526 0.375 -1.8039 0.8785C9.27667 34.4681 9 35.151 9 35.9119ZM35.9119 39C37.6171 39 39 37.6176 39 35.9119c0 -0.7609 -0.2767 -1.4438 -0.7264 -1.9457 -0.4513 -0.5035 -1.078 -0.8281 -1.8039 -0.8785 -0.4138 -0.0287 -0.8664 -0.0572 -1.3587 -0.0846 -0.5681 -0.0316 -1.1229 0.1803 -1.5252 0.5827 -0.4024 0.4024 -0.6143 0.9571 -0.5827 1.5252 0.0274 0.4924 0.0559 0.945 0.0846 1.3589 0.0505 0.726 0.3751 1.3527 0.8787 1.8039 0.5018 0.4496 1.1846 0.7262 1.9455 0.7262Z" clip-rule="evenodd" stroke-width="1"></path>
  </g>
</svg>