<svg xmlns="http://www.w3.org/2000/svg" fill="none" viewBox="0 0 48 48" id="Hard-Drive-2--Streamline-Plump-Remix">
  <desc>
    Hard Drive 2 Streamline Icon: https://streamlinehq.com
  </desc>
  <g id="hard-drive-2--disk-device-electronics-disc-drive-raid-storage">
    <path id="Union" fill="#000000" fill-rule="evenodd" d="M45.9987 36.794c0.0014 0.0681 0.002 0.1364 0.002 0.2049 0 5.5143 -4.2981 9.6953 -9.5467 9.8451 -3.0142 0.086 -7.0903 0.1538 -12.4536 0.1538s-9.4394 -0.0678 -12.4537 -0.1538C6.2981 46.6942 2.00001 42.5131 2 36.9989c-0.00001 -5.5143 4.29809 -9.6953 9.5467 -9.8451 -5.21352 0.1488 -9.48964 4.275 -9.5467 9.7344 0.00537 -1.3956 0.11383 -2.7888 0.32447 -4.1672L5.96531 8.89587c0.58755 -3.84485 3.39463 -7.15668 7.49609 -7.5096C15.9112 1.17546 19.3412 1 23.9995 1s8.0885 0.17546 10.5384 0.38627c4.1014 0.35292 6.9085 3.66475 7.4961 7.5096L45.6748 32.721c0.2059 1.3473 0.3142 2.7089 0.3239 4.073Zm-34.3378 -5.6418C14.6326 31.0673 18.6703 31 24.0004 31c5.33 0 9.3678 0.0673 12.3395 0.1522 3.1395 0.0896 5.6608 2.5515 5.6608 5.8467 0 3.2952 -2.5213 5.7571 -5.6608 5.8467 -2.9717 0.0849 -7.0095 0.1522 -12.3395 0.1522 -5.3301 0 -9.3678 -0.0673 -12.3395 -0.1522C8.52132 42.756 6 40.2941 6 36.9989c0 -3.2952 2.52131 -5.7571 5.6609 -5.8467ZM10.6641 35c-1.10461 0 -2.00004 0.8954 -2.00004 2s0.89543 2 2.00004 2H29.712c1.1046 0 2 -0.8954 2 -2s-0.8954 -2 -2 -2H10.6641Zm28.6348 1.9965c0 1.3486 -1.0922 2.4419 -2.4395 2.4419 -1.3473 0 -2.4395 -1.0933 -2.4395 -2.4419s1.0922 -2.4418 2.4395 -2.4418c1.3473 0 2.4395 1.0932 2.4395 2.4418Z" clip-rule="evenodd" stroke-width="1"></path>
  </g>
</svg>