<svg xmlns="http://www.w3.org/2000/svg" fill="none" viewBox="0 0 48 48" id="Tiktok-Logo--Streamline-Plump-Remix">
  <desc>
    Tiktok Logo Streamline Icon: https://streamlinehq.com
  </desc>
  <g id="tiktok-logo">
    <path id="Union" fill="#000000" fill-rule="evenodd" d="m23.7567 4.6265 -0.619 28.9893c-0.0125 3.2574 -2.6251 5.9457 -5.9094 5.9457 -3.2922 0 -5.9094 -2.7012 -5.9094 -5.9692 0 -2.2531 1.2248 -3.9507 2.7481 -4.9642 0.9196 -0.6119 2.1611 -0.3624 2.773 0.5572 0.6119 0.9196 0.3624 2.1611 -0.5572 2.773 -0.6421 0.4272 -0.9639 0.9775 -0.9639 1.634 0 1.1163 0.8834 1.9692 1.9094 1.9692s1.9094 -0.8529 1.9094 -1.9692c0 -0.0142 0.0002 -0.0285 0.0005 -0.0427l0.6248 -29.26002v-0.00306c0.0321 -1.40197 0.8721 -2.98987 2.6195 -3.446717C23.0717 0.659639 23.9817 0.5 25.0472 0.5c1.0642 0 1.9734 0.159273 2.6622 0.339179 1.7726 0.462961 2.5077 2.051891 2.6708 3.212891 0.6472 4.60811 5.3425 8.79833 10.4503 9.31153 1.008 0.1013 2.9602 0.6326 3.4533 2.6956 0.1323 0.5534 0.2162 1.2152 0.2162 2.0021 0 0.7869 -0.084 1.4488 -0.2163 2.0022 -0.4919 2.058 -2.4373 2.6768 -3.7553 2.61 -3.2872 -0.1664 -6.845 -0.9524 -9.8387 -2.3344l0.2665 13.2129c0.0003 0.0134 0.0004 0.0269 0.0004 0.0403 0 7.6523 -6.1179 13.9077 -13.7283 13.9077C9.61785 47.5 3.5 41.2446 3.5 33.5923c0 -7.2428 5.09459 -12.1927 11.2491 -13.5336 1.0793 -0.2352 2.1448 0.4491 2.3799 1.5284 0.2352 1.0792 -0.4491 2.1447 -1.5284 2.3799C10.9776 24.9742 7.5 28.5272 7.5 33.5923c0 5.5006 4.384 9.9077 9.7283 9.9077 5.338 0 9.7181 -4.3968 9.7283 -9.8884l-0.3384 -16.7783c-0.0155 -0.7702 0.4127 -1.4808 1.1009 -1.827 0.6882 -0.3462 1.5141 -0.2663 2.1232 0.2053 2.4698 1.9124 6.6107 3.2041 10.6285 3.4524 0.0177 -0.1696 0.0292 -0.3695 0.0292 -0.6027 0 -0.2867 -0.0174 -0.5232 -0.0423 -0.7148 -0.0088 -0.001 -0.0179 -0.002 -0.0271 -0.003 -6.6608 -0.6692 -13.0492 -6.0273 -14.0064 -12.69916 -0.3793 -0.08093 -0.8464 -0.14434 -1.377 -0.14434 -0.491 0 -0.9275 0.05429 -1.2905 0.1265Z" clip-rule="evenodd" stroke-width="1"></path>
  </g>
</svg>