<svg xmlns="http://www.w3.org/2000/svg" fill="none" viewBox="0 0 14 14" id="Hospital-Sign--Streamline-Flex">
  <desc>
    Hospital Sign Streamline Icon: https://streamlinehq.com
  </desc>
  <g id="hospital-sign--health-sign-medical-symbol-hospital-square">
    <path id="Intersect" fill="#ff7972" d="M4.10363 7.80545c0.11627 1.08677 0.99036 1.96086 2.07661 2.08194 0.80683 0.08993 1.63524 0.16721 2.47986 0.16721 0.84461 0 1.673 -0.07728 2.4799 -0.16721 1.0862 -0.12108 1.9603 -0.99517 2.0766 -2.08194 0.0858 -0.80228 0.1583 -1.62594 0.1583 -2.46567 0 -0.83972 -0.0725 -1.66339 -0.1583 -2.46566C13.1003 1.78734 12.2262 0.913252 11.14 0.792174 10.3331 0.702241 9.50471 0.625 8.6601 0.625c-0.84462 0 -1.67303 0.077241 -2.47986 0.167174C5.09399 0.913252 4.2199 1.78734 4.10363 2.87412c-0.08584 0.80227 -0.15832 1.62594 -0.15832 2.46566 0 0.83973 0.07248 1.66339 0.15832 2.46567Z" stroke-width="1"></path>
    <path id="Union" fill="#0c098c" fill-rule="evenodd" d="M0.875 -0.00488281c0.48325 0 0.875 0.39175081 0.875 0.87499981v0.943363h2.02233C4.21341 0.925131 5.08713 0.285145 6.111 0.171021 6.92321 0.0804889 7.77962 0 8.6601 0c0.88047 0 1.7369 0.0804889 2.5491 0.171021 1.3762 0.153402 2.4812 1.256919 2.6288 2.636609 0.0865 0.80827 0.1619 1.65843 0.1619 2.53215 0 0.87373 -0.0754 1.72389 -0.1619 2.53216 -0.1476 1.37969 -1.2526 2.48316 -2.6288 2.63656 -0.8122 0.0906 -1.66863 0.1711 -2.5491 0.1711 -0.88048 0 -1.73689 -0.0805 -2.5491 -0.1711 -1.02382 -0.1141 -1.89751 -0.75401 -2.33861 -1.64229H1.75V13.125c0 0.4833 -0.39175 0.875 -0.875 0.875C0.391751 14 0 13.6083 0 13.125V0.870117c0 -0.483249 0.391751 -0.87499981 0.875 -0.87499981ZM1.75 7.61621h1.7054c-0.07469 -0.73117 -0.13509 -1.49436 -0.13509 -2.27643 0 -0.78203 0.0604 -1.54517 0.13508 -2.2763H1.75v4.55273Zm4.49947 -6.20288C7.05093 1.32399 7.85134 1.25 8.6601 1.25c0.80875 0 1.6092 0.07399 2.4106 0.16333 0.7963 0.08875 1.4395 0.73342 1.5244 1.52728 0.0852 0.79628 0.1548 1.59344 0.1548 2.39917 0 0.80573 -0.0696 1.6029 -0.1548 2.39918 -0.0849 0.79386 -0.7281 1.43852 -1.5244 1.52728 -0.8014 0.08933 -1.60185 0.16333 -2.4106 0.16333 -0.80876 0 -1.60917 -0.074 -2.41063 -0.16333 -0.79625 -0.08876 -1.43945 -0.73342 -1.52439 -1.52728 -0.08519 -0.79628 -0.15477 -1.59345 -0.15477 -2.39918 0 -0.80573 0.06958 -1.60289 0.15477 -2.39917 0.08494 -0.79386 0.72814 -1.43853 1.52439 -1.52728Zm0.47514 3.17651c-0.41421 0 -0.75 0.33579 -0.75 0.75 0 0.41422 0.33579 0.75 0.75 0.75h1.18555v1.18397c0 0.41422 0.33578 0.75 0.75 0.75 0.41421 0 0.75 -0.33578 0.75 -0.75V6.08984h1.18294c0.4143 0 0.75 -0.33578 0.75 -0.75 0 -0.41421 -0.3357 -0.75 -0.75 -0.75H9.41016V3.40527c0 -0.41421 -0.33579 -0.75 -0.75 -0.75 -0.41422 0 -0.75 0.33579 -0.75 0.75v1.18457H6.72461Z" clip-rule="evenodd" stroke-width="1"></path>
  </g>
</svg>