<svg xmlns="http://www.w3.org/2000/svg" fill="none" viewBox="0 0 24 24" id="Visa-Logo--Streamline-Logos-Block">
  <desc>
    Visa Logo Streamline Icon: https://streamlinehq.com
  </desc>
  <path fill="#000000" fill-rule="evenodd" d="M5 1a4 4 0 0 0 -4 4v14a4 4 0 0 0 4 4h14a4 4 0 0 0 4 -4V5a4 4 0 0 0 -4 -4H5Zm0.962 8.455H4l1.455 0.727 1.09 4.364H8l1.818 -5.091H8.364l-1.091 3.272 -0.601 -2.703a0.727 0.727 0 0 0 -0.71 -0.57Zm5.674 0h-1.09l-0.728 5.09h1.091l0.727 -5.09Zm3.969 0.211c-0.243 -0.12 -0.839 -0.211 -1.421 -0.211 -0.728 0 -1.875 0.442 -1.875 1.534 0 0.864 0.608 1.18 1.112 1.444 0.359 0.187 0.665 0.347 0.665 0.657 0 0.207 -0.354 0.449 -0.833 0.449 -0.48 0 -1.079 -0.167 -1.296 -0.242l-0.17 1.037c0.242 0.121 0.953 0.212 1.535 0.212 0.728 0 2.112 -0.46 2.112 -1.551 0 -0.942 -0.73 -1.33 -1.265 -1.613 -0.307 -0.163 -0.55 -0.292 -0.55 -0.472 0 -0.13 0.137 -0.432 0.616 -0.432s0.978 0.105 1.199 0.225l0.17 -1.037Zm1.122 4.88h-1.454l2.181 -5.091h1.455L20 14.545h-1.196l-0.162 -0.727h-1.666l-0.249 0.728Zm0.605 -1.82h1.076l-0.396 -1.838 -0.68 1.838Z" clip-rule="evenodd" stroke-width="1"></path>
</svg>