<svg xmlns="http://www.w3.org/2000/svg" fill="none" viewBox="0 0 24 24" id="Mac-Finder-Logo--Streamline-Logos-Block">
  <desc>
    Mac Finder Logo Streamline Icon: https://streamlinehq.com
  </desc>
  <path fill="#000000" fill-rule="evenodd" d="M5 1a4 4 0 0 0 -4 4v14a4 4 0 0 0 4 4h14a4 4 0 0 0 4 -4V5a4 4 0 0 0 -4 -4H5Zm6.863 3.5H7.227A2.727 2.727 0 0 0 4.5 7.227v9.546A2.727 2.727 0 0 0 7.227 19.5h5.723a24.55 24.55 0 0 1 -0.505 -2.457 7.154 7.154 0 0 1 -0.445 0.014c-2.69 0 -4.397 -1.491 -4.952 -2.324a0.625 0.625 0 0 1 1.04 -0.693c0.354 0.53 1.693 1.767 3.912 1.767 0.09 0 0.18 -0.002 0.268 -0.006 -0.097 -0.77 -0.166 -1.52 -0.195 -2.153h-1.449a0.625 0.625 0 0 1 -0.625 -0.625c0 -3.014 1.192 -6.75 1.864 -8.523Zm2.389 15c-0.208 -0.668 -0.409 -1.628 -0.573 -2.652a6.28 6.28 0 0 0 3.233 -2.062 0.625 0.625 0 1 0 -0.96 -0.8 5.02 5.02 0 0 1 -2.45 1.613c-0.123 -0.992 -0.195 -1.923 -0.195 -2.576a0.625 0.625 0 0 0 -0.625 -0.625h-1.415c0.16 -2.968 1.39 -6.552 1.938 -7.898h3.568A2.727 2.727 0 0 1 19.5 7.227v9.546a2.727 2.727 0 0 1 -2.727 2.727h-2.521ZM8.25 8.307c0.345 0 0.625 0.28 0.625 0.625v1.363a0.625 0.625 0 1 1 -1.25 0V8.932c0 -0.346 0.28 -0.625 0.625 -0.625Zm7.443 0.625a0.625 0.625 0 0 0 -1.25 0v1.363a0.625 0.625 0 1 0 1.25 0V8.932Z" clip-rule="evenodd" stroke-width="1"></path>
</svg>