<svg xmlns="http://www.w3.org/2000/svg" fill="none" viewBox="0 0 48 48" id="Class-Lesson--Streamline-Plump-Remix">
  <desc>
    Class Lesson Streamline Icon: https://streamlinehq.com
  </desc>
  <g id="class-lesson--class-lesson-education-teacher">
    <path id="Union" fill="#000000" fill-rule="evenodd" d="M21.2189 2.50521c0.0023 1.10457 0.8996 1.99811 2.0042 1.9958 0.3172 -0.00067 0.6387 -0.00101 0.9645 -0.00101 8.149 0 13.6011 0.21322 16.7445 0.39247 1.1776 0.06715 1.9963 0.86027 2.1134 1.88582 0.2306 2.02029 0.4545 5.06611 0.4545 9.27571s-0.2239 7.2555 -0.4545 9.2758c-0.117 1.0246 -0.9365 1.8187 -2.115 1.8859 -2.8888 0.1647 -7.7264 0.358 -14.8139 0.3883 -1.1046 0.0047 -1.9962 0.9039 -1.9915 2.0085 0.0047 1.1046 0.904 1.9962 2.0085 1.9914 7.1523 -0.0305 12.0603 -0.2257 15.0246 -0.3947 2.9717 -0.1694 5.507 -2.3203 5.8615 -5.4259 0.2488 -2.1803 0.4803 -5.3779 0.4803 -9.7293 0 -4.3513 -0.2315 -7.54897 -0.4803 -9.72929 -0.3544 -3.10463 -2.8872 -5.25625 -5.8598 -5.425753C37.9343 0.715031 32.406 0.500003 24.1876 0.5c-0.3286 0 -0.6529 0.000344 -0.9729 0.001015 -1.1046 0.002319 -1.9981 0.899625 -1.9958 2.004195Zm-0.2969 6.03244c0 -4.41646 -3.5823 -7.995658 -8 -7.995658 -4.41767 0 -7.99997 3.579198 -7.99997 7.995658 0 2.51645 1.16305 4.76115 2.98101 6.22675 -3.18911 0.3762 -5.83639 2.7247 -6.40639 5.9729 -0.42361 2.414 -0.848675 5.4762 -0.992654 8.6331 -0.079719 1.748 1.041204 3.2741 2.646164 3.8268l1.48679 0.5121 0.5839 10.794c0.09091 1.6805 1.48011 2.9966 3.16311 2.9966 1.69804 0 3.09404 -1.3389 3.16494 -3.0354l0.3731 -8.922c0 -0.8284 0.1716 -1.5 1 -1.5s1 0.6716 1 1.5l0.375 8.9328c0.0699 1.6641 1.4393 2.9772 3.1048 2.9772 1.6284 0 2.9807 -1.2571 3.0993 -2.8812l1.4872 -20.3707 7.1778 -1.129c1.5023 -0.2363 2.901 -1.3503 3.115 -3.0377 0.1487 -1.1715 0.1267 -1.3568 0.0412 -2.0796 -0.0068 -0.057 -0.0139 -0.1175 -0.0214 -0.182 -0.2057 -1.771 -1.7355 -2.8268 -3.2992 -2.9083 -3.4697 -0.1807 -7.1554 -0.2798 -10.8251 -0.2971 1.6822 -1.4657 2.7454 -3.6232 2.7454 -6.02925Z" clip-rule="evenodd" stroke-width="1"></path>
  </g>
</svg>