<svg xmlns="http://www.w3.org/2000/svg" fill="none" viewBox="0 0 14 14" id="Dog-1--Streamline-Flex">
  <desc>
    Dog 1 Streamline Icon: https://streamlinehq.com
  </desc>
  <g id="dog-1--nature-head-dog-pet-animals-canine">
    <path id="Subtract" fill="#8fbffa" fill-rule="evenodd" d="M7 0.316c-0.707 0 -1.603 0.114 -2.47 0.35 -0.86 0.233 -1.739 0.6 -2.378 1.134 -0.416 0.348 -0.841 0.893 -1.197 1.502a7.45 7.45 0 0 0 -0.828 2.03c-0.16 0.693 -0.19 1.439 0.086 2.071 0.292 0.67 0.888 1.125 1.78 1.274l0.042 0.007 0.486 -0.002c-0.03 0.338 -0.048 0.675 -0.048 1.002 0 1.573 0.395 2.644 1.268 3.279 0.83 0.604 1.982 0.72 3.232 0.72 1.25 0 2.401 -0.116 3.231 -0.72 0.874 -0.635 1.269 -1.706 1.269 -3.28 0 -0.326 -0.018 -0.663 -0.048 -1l0.54 0 0.042 -0.006c0.891 -0.149 1.488 -0.604 1.78 -1.274 0.276 -0.632 0.245 -1.378 0.086 -2.071a7.45 7.45 0 0 0 -0.828 -2.03c-0.356 -0.609 -0.781 -1.154 -1.197 -1.502 -0.64 -0.534 -1.52 -0.9 -2.38 -1.134A9.842 9.842 0 0 0 7 0.316Z" clip-rule="evenodd" stroke-width="1"></path>
    <path id="Union" fill="#2859c5" fill-rule="evenodd" d="M5.598 6.184a0.625 0.625 0 0 0 -1.25 0v0.5a0.625 0.625 0 0 0 1.25 0v-0.5Zm4 0a0.625 0.625 0 0 0 -1.25 0v0.5a0.625 0.625 0 0 0 1.25 0v-0.5Zm-3.345 2.94a0.625 0.625 0 1 0 -0.56 1.119l1 0.5a0.625 0.625 0 0 0 0.56 0l1 -0.5a0.625 0.625 0 1 0 -0.56 -1.118l-0.72 0.36 -0.72 -0.36Z" clip-rule="evenodd" stroke-width="1"></path>
    <path id="Union_2" fill="#2859c5" fill-rule="evenodd" d="m12.588 8.11 0.04 0.396a2.97 2.97 0 0 1 -0.621 0.17l-0.042 0.008 -0.54 -0.002 -0.042 -0.43c-0.12 -0.935 -0.358 -1.866 -0.543 -2.586l-0.022 -0.086a26.344 26.344 0 0 0 -0.315 -1.123l-0.02 -0.062 -0.005 -0.016 0 -0.003a0.626 0.626 0 0 1 1.189 -0.384l0.002 0.007 0.006 0.019 0.022 0.07a27.73 27.73 0 0 1 0.332 1.182c0.195 0.76 0.425 1.787 0.558 2.832l0 0.007Zm-10.021 0.15 -0.046 0.422 -0.486 0.002 -0.042 -0.007a2.938 2.938 0 0 1 -0.661 -0.188l0.048 -0.387c0.133 -1.045 0.363 -2.072 0.558 -2.833a27.613 27.613 0 0 1 0.332 -1.181l0.022 -0.07 0.006 -0.019 0.001 -0.005 0 -0.002a0.626 0.626 0 0 1 1.19 0.383l0 0.004 -0.005 0.016 -0.02 0.062 -0.073 0.243a26.344 26.344 0 0 0 -0.314 1.16c-0.18 0.69 -0.402 1.543 -0.51 2.398l0 0.001Z" clip-rule="evenodd" stroke-width="1"></path>
  </g>
</svg>