<svg xmlns="http://www.w3.org/2000/svg" fill="none" viewBox="0 0 24 24" id="3d-Scale--Streamline-Sharp-Neon">
  <desc>
    3d Scale Streamline Icon: https://streamlinehq.com
  </desc>
  <g id="3d-scale">
    <path id="Vector 1790" stroke="#000cfe" d="M12 7.5V15" stroke-width="1"></path>
    <path id="Vector 1791" stroke="#000cfe" d="M11.9997 15 6.75 17.867" stroke-width="1"></path>
    <path id="Vector 1792" stroke="#000cfe" d="m12 15 5.2503 2.867" stroke-width="1"></path>
    <path id="Ellipse 635" stroke="#c71dff" d="M7 19.5c0 1.6569 -1.34315 3 -3 3s-3 -1.3431 -3 -3 1.34315 -3 3 -3 3 1.3431 3 3Z" stroke-width="1"></path>
    <path id="Ellipse 636" stroke="#c71dff" d="M15 4.5c0 1.65685 -1.3431 3 -3 3s-3 -1.34315 -3 -3 1.3431 -3 3 -3 3 1.34315 3 3Z" stroke-width="1"></path>
    <path id="Ellipse 637" stroke="#c71dff" d="M23 19.5c0 1.6569 -1.3431 3 -3 3s-3 -1.3431 -3 -3 1.3431 -3 3 -3 3 1.3431 3 3Z" stroke-width="1"></path>
  </g>
</svg>