<svg xmlns="http://www.w3.org/2000/svg" fill="none" viewBox="0 0 24 24" id="Image-Highlights--Streamline-Sharp-Neon">
  <desc>
    Image Highlights Streamline Icon: https://streamlinehq.com
  </desc>
  <g id="image-highlights">
    <path id="Vector" stroke="#c71dff" d="M12 23c-2.91738 0 -5.71527 -1.1589 -7.77817 -3.2218S1 14.9174 1 12c0 -2.91738 1.15893 -5.71527 3.22183 -7.77817S9.08262 1 12 1c2.9174 0 5.7153 1.15893 7.7782 3.22183S23 9.08262 23 12c0 2.9174 -1.1589 5.7153 -3.2218 7.7782S14.9174 23 12 23Z" stroke-width="1"></path>
    <path id="Vector_2" stroke="#000cfe" d="M12 19c-1.8565 0 -3.63699 -0.7375 -4.94975 -2.0503C5.7375 15.637 5 13.8565 5 12s0.7375 -3.63699 2.05025 -4.94975C8.36301 5.7375 10.1435 5 12 5v14Z" stroke-width="1"></path>
  </g>
</svg>