<svg xmlns="http://www.w3.org/2000/svg" fill="none" viewBox="0 0 24 24" id="Non-Commercial-Dollars--Streamline-Sharp-Neon">
  <desc>
    Non Commercial Dollars Streamline Icon: https://streamlinehq.com
  </desc>
  <g id="non-commercial-dollars">
    <path id="Vector 3" stroke="#000cfe" d="M9.00049 14.5v1.0417c0 0.8054 0.65292 1.4583 1.45831 1.4583h3.0833c0.8054 0 1.4584 -0.6528 1.4584 -1.4582l0 -2.0747c0 -0.6199 -0.3919 -1.172 -0.9771 -1.3766l-4.04582 -1.1237c-0.58518 -0.2045 -0.97708 -0.7566 -0.97709 -1.37651l0 -1.13209C9.00048 7.65278 9.6534 7 10.4588 7h3.0833c0.8054 0 1.4584 0.65292 1.4584 1.45833V9.5" stroke-width="1"></path>
    <path id="Vector 3994" stroke="#000cfe" d="M12.0049 17v2" stroke-width="1"></path>
    <path id="Vector 3993" stroke="#000cfe" d="M12 7V5" stroke-width="1"></path>
    <path id="Ellipse 7" stroke="#c71dff" d="M1 12c0 2.9174 1.15893 5.7153 3.22183 7.7782S9.08262 23 12 23c2.9174 0 5.7153 -1.1589 7.7782 -3.2218S23 14.9174 23 12c0 -2.91738 -1.1589 -5.71527 -3.2218 -7.77817S14.9174 1 12 1C9.08262 1 6.28473 2.15893 4.22183 4.22183S1 9.08262 1 12Z" stroke-width="1"></path>
    <path id="Vector 3992" stroke="#c71dff" d="M2.47363 6.5 6 8.53595" stroke-width="1"></path>
    <path id="Vector 3995" stroke="#c71dff" d="m18 15.4648 3.5262 2.0359" stroke-width="1"></path>
  </g>
</svg>