<svg xmlns="http://www.w3.org/2000/svg" fill="none" viewBox="0 0 14 14" id="Credit-Card-Approved--Streamline-Flex">
  <desc>
    Credit Card Approved Streamline Icon: https://streamlinehq.com
  </desc>
  <g id="credit-card-approved">
    <path id="Union" fill="#000000" fill-rule="evenodd" d="M13.7538 1.3055c0.3068 -0.27831 0.3299 -0.752618 0.0516 -1.05941 -0.2783 -0.3067913 -0.7526 -0.3298869 -1.0594 -0.051585 -0.7306 0.66278 -1.2876 1.265765 -1.759 2.001665 -0.294 0.45877 -0.5467 0.95674 -0.7883 1.53456l-0.76037 -0.78409c-0.28836 -0.29736 -0.76317 -0.30467 -1.06054 -0.01632 -0.29736 0.28836 -0.30467 0.76318 -0.01631 1.06054l1.58181 1.63125c0.18111 0.18681 0.44621 0.26637 0.70031 0.21022 0.2541 -0.05616 0.4609 -0.24 0.5464 -0.48575 0.3631 -1.04309 0.6815 -1.75043 1.06 -2.34122 0.3755 -0.58616 0.8305 -1.08909 1.5038 -1.69986ZM7.4641 4.86106l1.51506 1.5624H0v-0.92085C0 4.45507 0.788147 3.61737 1.75852 3.4467c0.13381 -0.02353 0.26663 -0.04825 0.40468 -0.07396 0.94516 -0.17597 2.00869 -0.37262 4.3368 -0.37262 0.15379 0 0.30534 0.00107 0.45458 0.0031 -0.15323 0.64298 0.01529 1.34816 0.50952 1.85784ZM13 6.42346h-1.0183c0.1656 -0.1865 0.2996 -0.40947 0.3888 -0.66591 0.1746 -0.50154 0.3322 -0.90357 0.4842 -1.23951 0.0946 0.23371 0.1453 0.48823 0.1453 0.74891v1.15651Zm-1.8096 7.13904c-0.1157 0.0206 -0.2311 0.0421 -0.3503 0.0643l-0.0033 0.0007 0 -0.0001C9.89163 13.8034 8.8281 14 6.5 14s-3.39163 -0.1966 -4.33678 -0.3726l-0.00002 0c-0.1204 -0.0224 -0.23682 -0.0441 -0.35361 -0.0649C0.823264 13.3866 0 12.5525 0 11.4872V7.67346h13v3.81374c0 1.0653 -0.8233 1.8994 -1.8096 2.0753Zm-3.26022 -3.0474c0 -0.3451 0.27982 -0.62496 0.625 -0.62496h2.03252c0.3451 0 0.625 0.27986 0.625 0.62496 0 0.3452 -0.2799 0.625 -0.625 0.625H8.55518c-0.34518 0 -0.625 -0.2798 -0.625 -0.625Z" clip-rule="evenodd" stroke-width="1"></path>
  </g>
</svg>