<svg xmlns="http://www.w3.org/2000/svg" fill="none" viewBox="0 0 14 14" id="Credit-Card-4--Streamline-Flex">
  <desc>
    Credit Card 4 Streamline Icon: https://streamlinehq.com
  </desc>
  <g id="credit-card-4--credit-pay-payment-debit-card-finance-plastic-stack-atm">
    <path id="Union" fill="#000000" fill-rule="evenodd" d="M0.32959 7.61105c0 0.79313 0.618405 1.45254 1.39901 1.59293l0.08345 0.01504 0.00004 0c0.15097 0.02724 0.30534 0.05509 0.47014 0.0823V6.38919c0 -1.4705 1.12587 -2.58906 2.42776 -2.82319l0.0716 -0.01289c0.82803 -0.14923 1.77573 -0.32002 3.8197 -0.32002 0.674 0 1.29904 0.0228 1.86641 0.05891v-0.29321c0 -0.68953 -0.4709 -1.28485 -1.15273 -1.38767 -0.88626 -0.13365 -2.24137 -0.28055 -3.91632 -0.28055 -1.93412 0 -2.80586 0.15727 -3.58659 0.29813l-0.08346 0.01504C0.947995 1.78412 0.32959 2.44353 0.32959 3.23666v4.37439Zm4.60165 4.74545c-0.78061 -0.1404 -1.39901 -0.7998 -1.39901 -1.5929V8.01312H13.6703v2.75048c0 0.7931 -0.6184 1.4525 -1.399 1.5929l-0.0834 0.015c-0.7808 0.1409 -1.6525 0.2982 -3.58661 0.2982 -1.93412 0 -2.80586 -0.1573 -3.58659 -0.2982l-0.00001 0 -0.08345 -0.015Zm8.73906 -5.59338v-0.6118c0 -0.68954 -0.4709 -1.28486 -1.1527 -1.38768 -0.8863 -0.13365 -2.2414 -0.28055 -3.91631 -0.28055 -1.93413 0 -2.80586 0.15728 -3.5866 0.29814l-0.08345 0.01504c-0.78061 0.14038 -1.39901 0.79979 -1.39901 1.59292v0.37393H13.6703ZM9.29004 10.4506c0 -0.3452 0.27982 -0.62498 0.625 -0.62498h1.71716c0.3451 0 0.625 0.27978 0.625 0.62498s-0.2799 0.625 -0.625 0.625H9.91504c-0.34518 0 -0.625 -0.2798 -0.625 -0.625Z" clip-rule="evenodd" stroke-width="1"></path>
  </g>
</svg>