<svg xmlns="http://www.w3.org/2000/svg" fill="none" viewBox="0 0 14 14" id="Diamond-1--Streamline-Flex">
  <desc>
    Diamond 1 Streamline Icon: https://streamlinehq.com
  </desc>
  <g id="diamond-1--diamond-money-payment-finance-wealth-jewelry">
    <path id="Subtract" fill="#000000" fill-rule="evenodd" d="M1.13547 4.802c-0.181941 0 -0.302115 -0.1878 -0.217908 -0.34907 0.465548 -0.89164 1.122218 -1.72639 1.688598 -2.26036 0.08681 -0.08184 0.22873 -0.04691 0.31309 0.03746l2.1452 2.1452c0.15749 0.15749 0.04595 0.42677 -0.17678 0.42677h-3.7522Zm11.94693 -0.34907c0.0842 0.16127 -0.0359 0.34907 -0.2179 0.34907H9.11232c-0.22272 0 -0.33426 -0.26928 -0.17677 -0.42677l2.14515 -2.1452c0.0844 -0.08436 0.2263 -0.1193 0.3131 -0.03746 0.5664 0.53398 1.2231 1.36872 1.6886 2.26036Zm-5.90563 -0.0867c-0.09763 0.09763 -0.25592 0.09763 -0.35355 0L4.67185 2.21486c-0.15749 -0.15749 -0.04595 -0.42677 0.17678 -0.42677h4.30274c0.22272 0 0.33427 0.26928 0.17677 0.42677L7.17677 4.36623ZM1.30556 6.052c-0.19573 0 -0.315193 0.21322 -0.20796 0.37696C2.15564 8.0446 4.19555 10.6437 6.33581 12.631c0.01518 0.014 0.03917 0.003 0.03917 -0.0177V6.302c0 -0.13807 -0.11192 -0.25 -0.25 -0.25H1.30556Zm6.56942 0c-0.13807 0 -0.25 0.11193 -0.25 0.25v6.3112c0 0.0208 0.024 0.0319 0.03919 0.0178 2.14026 -1.9873 4.18013 -4.5864 5.23823 -6.20204 0.1072 -0.16374 -0.0123 -0.37696 -0.208 -0.37696H7.87498Z" clip-rule="evenodd" stroke-width="1"></path>
  </g>
</svg>