<svg xmlns="http://www.w3.org/2000/svg" fill="none" viewBox="0 0 14 14" id="Gift-2--Streamline-Flex">
  <desc>
    Gift 2 Streamline Icon: https://streamlinehq.com
  </desc>
  <g id="gift-2--reward-box-social-present-gift-media-rating-bow">
    <path id="Subtract" fill="#000000" fill-rule="evenodd" d="M10.655 2.24a0.867 0.867 0 0 0 -1.497 -0.049l-0.983 1.583c0.455 0.01 0.887 0.027 1.299 0.051a0.75 0.75 0 0 1 0.2 -0.14l0.598 -0.29a0.842 0.842 0 0 0 0.383 -1.155Zm-4.83 1.534 -0.983 -1.583a0.867 0.867 0 0 0 -1.497 0.049 0.842 0.842 0 0 0 0.383 1.155l0.599 0.29a0.75 0.75 0 0 1 0.2 0.14c0.412 -0.024 0.844 -0.04 1.299 -0.05ZM7 2.822 7.884 1.4c0.959 -1.543 3.24 -1.47 4.095 0.135a2.34 2.34 0 0 1 -0.523 2.858 3.113 3.113 0 0 1 1.322 2.31c0.036 0.433 0.06 0.872 0.073 1.318H7.625V5.687a0.625 0.625 0 1 0 -1.25 0v2.334H1.15c0.013 -0.446 0.038 -0.885 0.073 -1.318a3.113 3.113 0 0 1 1.322 -2.31 2.34 2.34 0 0 1 -0.522 -2.858C2.876 -0.07 5.158 -0.143 6.116 1.4L7 2.822Zm-0.625 6.45H1.15c0.013 0.445 0.038 0.884 0.073 1.317a3.09 3.09 0 0 0 2.852 2.85c0.702 0.05 1.464 0.08 2.301 0.089l0 -4.257Zm1.25 4.256c0.837 -0.01 1.599 -0.039 2.302 -0.09a3.09 3.09 0 0 0 2.851 -2.849c0.036 -0.433 0.06 -0.872 0.073 -1.318H7.625l0 4.257Z" clip-rule="evenodd" stroke-width="1"></path>
  </g>
</svg>