<svg xmlns="http://www.w3.org/2000/svg" fill="none" viewBox="0 0 14 14" id="Graph-Bar-Increase-Square--Streamline-Flex">
  <desc>
    Graph Bar Increase Square Streamline Icon: https://streamlinehq.com
  </desc>
  <g id="graph-bar-increase-square--up-product-performance-increase-arrow-graph-business-chart">
    <path id="Subtract" fill="#000000" fill-rule="evenodd" d="M3.65727 0.474686C4.73112 0.35499 5.85168 0.25 7 0.25s2.26888 0.10499 3.3427 0.224686c1.672 0.186363 3.0154 1.528614 3.1946 3.203594 0.1143 1.0683 0.2127 2.18136 0.2127 3.32172 0 1.14035 -0.0984 2.25341 -0.2127 3.3217 -0.1792 1.675 -1.5226 3.0173 -3.1946 3.2036C9.26888 13.645 8.14832 13.75 7 13.75c-1.14832 0 -2.26888 -0.105 -3.34273 -0.2247C1.98532 13.339 0.641908 11.9967 0.462704 10.3217 0.348408 9.25341 0.25 8.14035 0.25 7c0 -1.14036 0.098408 -2.25342 0.212704 -3.32172C0.641907 2.0033 1.98532 0.661049 3.65727 0.474686ZM3.05142 10.1931c-0.48243 -0.0154 -0.87308 -0.40266 -0.90941 -0.88396 -0.01163 -0.15405 -0.01945 -0.3104 -0.01945 -0.46867 0 -0.15826 0.00782 -0.31462 0.01945 -0.46866 0.03633 -0.48131 0.42693 -0.86959 0.90936 -0.8848 0.23564 -0.00742 0.46899 -0.00742 0.70463 0 0.48243 0.01521 0.87302 0.40349 0.90935 0.8848 0.01163 0.15404 0.01946 0.3104 0.01946 0.46866v0.84557c0 0.25699 -0.19478 0.47306 -0.45127 0.48906 -0.39297 0.0246 -0.7881 0.0306 -1.18212 0.018Zm2.66767 -0.517c-0.00005 0.24604 0.17875 0.4567 0.42355 0.4813 0.56082 0.0564 1.15424 0.0564 1.71506 0 0.24475 -0.0246 0.42354 -0.23521 0.42354 -0.48119V8.03736c0 -0.42873 -0.02268 -0.84866 -0.04819 -1.25665 -0.02948 -0.47151 -0.38304 -0.87015 -0.85479 -0.89551 -0.25293 -0.0136 -0.50304 -0.0136 -0.75597 0 -0.47175 0.02536 -0.82531 0.424 -0.85479 0.89551 -0.02551 0.40799 -0.04819 0.82792 -0.04819 1.25665L5.71909 9.6761Zm3.98548 0.4569c-0.22932 -0.0364 -0.38894 -0.24011 -0.38899 -0.47232 -0.00014 -0.63607 -0.00039 -1.89177 -0.00039 -2.66031 0 -0.75018 0.03172 -1.48215 0.06232 -2.18825 0.00151 -0.03467 0.00301 -0.06929 0.0045 -0.10384 0.0195 -0.45103 0.33529 -0.84753 0.78489 -0.88805 0.2877 -0.02593 0.5712 -0.02593 0.8588 0 0.4496 0.04052 0.7654 0.43702 0.7849 0.88805 0.0015 0.03458 0.003 0.06924 0.0045 0.10395 0.0306 0.70606 0.0623 1.43799 0.0623 2.18814 0 0.75014 -0.0317 1.48207 -0.0623 2.18814 -0.0015 0.03471 -0.003 0.06936 -0.0045 0.10395 -0.0195 0.45102 -0.3356 0.84564 -0.7852 0.88604 -0.4402 0.0396 -0.8819 0.0244 -1.32083 -0.0455Z" clip-rule="evenodd" stroke-width="1"></path>
  </g>
</svg>