<svg xmlns="http://www.w3.org/2000/svg" fill="none" viewBox="0 0 14 14" id="Safe-Vault--Streamline-Flex">
  <desc>
    Safe Vault Streamline Icon: https://streamlinehq.com
  </desc>
  <g id="safe-vault--saving-combo-payment-safe-combination-finance">
    <path id="Union" fill="#000000" fill-rule="evenodd" d="M6.97027 0.5h0.05947C8.5612 0.49999 10.223 0.499978 11.6239 0.763273c0.82 0.154095 1.4555 0.785977 1.6323 1.592867 0.2438 1.1134 0.2438 2.13711 0.2438 3.60637v0.07499c0 1.46925 0 2.49296 -0.2438 3.60636 -0.1594 0.72774 -0.6921 1.31314 -1.3966 1.53404l0.368 1.4722c0.1005 0.4019 -0.1439 0.8091 -0.5457 0.9095 -0.4018 0.1005 -0.809 -0.1438 -0.9095 -0.5457l-0.4025 -1.61C9.28512 11.5 8.12415 11.5 7.02973 11.5h-0.05946c-1.09442 0 -2.25539 0 -3.34016 -0.0961l-0.4025 1.61c-0.10046 0.4019 -0.50767 0.6462 -0.90951 0.5457 -0.40185 -0.1004 -0.64617 -0.5076 -0.54571 -0.9095l0.36806 -1.4722C1.43592 10.957 0.903245 10.3716 0.743842 9.64386 0.499972 8.53045 0.499984 7.50673 0.5 6.03746v-0.07492C0.499984 4.49327 0.499972 3.46955 0.743842 2.35614 0.920575 1.54925 1.55614 0.917368 2.37606 0.763273 3.77703 0.499978 5.4388 0.49999 6.97026 0.5h0.00001ZM3.80603 5.1665c0 -0.34517 -0.27982 -0.625 -0.625 -0.625s-0.625 0.27983 -0.625 0.625v1.66675c0 0.34518 0.27982 0.625 0.625 0.625s0.625 -0.27982 0.625 -0.625V5.1665ZM8.65389 2.875c0.34518 0.00001 0.625 0.27984 0.62499 0.62502l-0.00001 0.29462c0.37069 0.10485 0.70319 0.30063 0.97193 0.56173l0.2557 -0.14764c0.2989 -0.17258 0.6812 -0.07016 0.8537 0.22877 0.1726 0.29893 0.0702 0.68118 -0.2287 0.85377l-0.2552 0.14735c0.0452 0.17965 0.0692 0.36773 0.0692 0.56142 0 0.19367 -0.024 0.38172 -0.0692 0.56135l0.2552 0.14734c0.2989 0.17259 0.4013 0.55484 0.2287 0.85377 -0.1725 0.29893 -0.5548 0.40135 -0.8537 0.22877l-0.2557 -0.14761c-0.26869 0.26112 -0.60122 0.45693 -0.97193 0.56178l0.00001 0.2945c0.00001 0.34518 -0.27981 0.62501 -0.62499 0.62502 -0.34517 0.00001 -0.625 -0.27981 -0.62501 -0.62499l-0.00001 -0.29452c-0.37068 -0.10484 -0.70318 -0.30062 -0.97188 -0.56171l-0.2556 0.14757c-0.29893 0.17259 -0.68117 0.07016 -0.85376 -0.22877 -0.17259 -0.29893 -0.07017 -0.68118 0.22876 -0.85377l0.25508 -0.14727c-0.04524 -0.17966 -0.06928 -0.36775 -0.06928 -0.56146 0 -0.19373 0.02404 -0.38185 0.0693 -0.56153l-0.2551 -0.14728c-0.29893 -0.17259 -0.40135 -0.55484 -0.22876 -0.85377 0.17259 -0.29893 0.55483 -0.40136 0.85376 -0.22877l0.25565 0.1476c0.26869 -0.26106 0.60117 -0.45682 0.97183 -0.56166l0.00001 -0.29464c0.00001 -0.34518 0.27984 -0.625 0.62501 -0.62499Zm-0.90893 2.61577 0.00689 -0.01164 0.00624 -0.01107c0.18164 -0.3052 0.51482 -0.50969 0.89577 -0.50969 0.38241 0 0.7167 0.20608 0.89787 0.51323l0.00429 0.00757 0.00479 0.00814c0.08576 0.15137 0.13471 0.32633 0.13471 0.51273 0 0.1858 -0.04864 0.36025 -0.1339 0.51128l-0.0056 0.00951 -0.0051 0.009c-0.18134 0.30641 -0.51521 0.51188 -0.89706 0.51188 -0.38054 0 -0.71342 -0.20406 -0.89519 -0.50872l-0.00682 -0.01212 -0.00749 -0.01262c-0.08418 -0.15033 -0.13217 -0.32367 -0.13217 -0.50821 0 -0.18498 0.04822 -0.35869 0.13277 -0.50927Z" clip-rule="evenodd" stroke-width="1"></path>
  </g>
</svg>