<svg xmlns="http://www.w3.org/2000/svg" fill="none" viewBox="0 0 14 14" id="Sofa--Streamline-Flex">
  <desc>
    Sofa Streamline Icon: https://streamlinehq.com
  </desc>
  <g id="sofa--decoration-furniture-interior-design-couch-sofa-decorate-shopping">
    <path id="Union" fill="#000000" fill-rule="evenodd" d="M2.1144 5.13843c-0.11263 0.00472 -0.20998 -0.08246 -0.20998 -0.19519 0 -0.56297 0.05497 -1.11026 0.12379 -1.63152 0.15737 -1.19201 1.14984 -2.10687 2.33348 -2.20894 0.84422 -0.0728 1.72984 -0.1405 2.63851 -0.1405 0.90867 0 1.7943 0.0677 2.63851 0.1405 1.18369 0.10207 2.17609 1.01693 2.33349 2.20894 0.0688 0.52126 0.1238 1.06855 0.1238 1.63152 0 0.11274 -0.0974 0.19993 -0.21 0.1952 -0.0582 -0.00244 -0.1171 -0.00377 -0.1769 -0.00377 -0.3926 0 -0.7537 0.05718 -1.0476 0.11347 -0.74339 0.14238 -1.33953 0.63919 -1.64124 1.28661 -0.04681 0.10046 -0.1479 0.16717 -0.25849 0.15996 -0.56348 -0.03674 -1.15609 -0.06611 -1.76165 -0.06611 -0.60559 0 -1.19823 0.02937 -1.76172 0.06611 -0.1106 0.00722 -0.21168 -0.0595 -0.2585 -0.15995 -0.3017 -0.64743 -0.89784 -1.14423 -1.64122 -1.28662 -0.29387 -0.05629 -0.65504 -0.11347 -1.04765 -0.11347 -0.05964 0 -0.11856 0.00132 -0.17663 0.00376Zm0.98913 1.33739c0.46286 0.08866 0.81021 0.49261 0.8395 0.96297l0.0008 0.01283 0.00001 0.00018 0 0.00008 0.00001 0.00017c0.009 0.14455 0.01808 0.29025 0.02677 0.43703 0.01342 0.57485 -0.00257 1.16651 -0.01472 1.42991 -0.01592 0.34481 0.25071 0.63724 0.59552 0.65315 0.34481 0.01592 0.63723 -0.2507 0.65315 -0.59551 0.01059 -0.22955 0.02409 -0.69083 0.02056 -1.18988 -0.00094 -0.13337 0.10155 -0.24531 0.23466 -0.25359 0.50439 -0.03139 1.01849 -0.05456 1.54033 -0.05456 0.52394 0 1.0401 0.02336 1.54646 0.05494 0.1331 0.0083 0.23557 0.12024 0.23463 0.25359 -0.00351 0.4989 0.00998 0.96 0.02057 1.1895 0.01591 0.34481 0.30834 0.61143 0.65315 0.59551 0.34481 -0.01591 0.61147 -0.30834 0.59557 -0.65315 -0.0136 -0.29447 -0.032 -0.99922 -0.0087 -1.63209l0.0145 -0.23531 0.0008 -0.0128c0.0293 -0.47036 0.3767 -0.87431 0.8395 -0.96297 0.2653 -0.0508 0.5366 -0.09115 0.8125 -0.09115 0.276 0 0.5473 0.04035 0.8125 0.09115 0.4629 0.08866 0.8102 0.49261 0.8395 0.96297l0.0008 0.01284c0.0415 0.66637 0.0846 1.35715 0.0846 2.06512 0 0.55535 -0.0399 1.42175 -0.0754 2.08445 -0.0282 0.5266 -0.4648 0.9357 -0.9922 0.9357h-2.2654s-0.0001 0 -0.0002 0.0001c-0.0001 0 -0.0002 0.0002 -0.0002 0.0004s-0.0002 0.0004 -0.0004 0.0004l-3.11258 0H3.9205c-0.01156 0 -0.02088 -0.0095 -0.02068 -0.021 -0.00072 0.0113 -0.01013 0.0201 -0.02148 0.0201H1.62398c-0.52639 0 -0.962553 -0.4077 -0.991846 -0.9333 -0.036954 -0.663 -0.078423 -1.5309 -0.078423 -2.08685 0 -0.70797 0.04302 -1.39876 0.084519 -2.06513l0.000799 -0.01283c0.029291 -0.47036 0.376641 -0.87431 0.839491 -0.96297 0.26522 -0.0508 0.53652 -0.09115 0.81251 -0.09115 0.27599 0 0.54728 0.04035 0.8125 0.09115Z" clip-rule="evenodd" stroke-width="1"></path>
  </g>
</svg>