<svg xmlns="http://www.w3.org/2000/svg" fill="none" viewBox="0 0 14 14" id="Store-1--Streamline-Flex">
  <desc>
    Store 1 Streamline Icon: https://streamlinehq.com
  </desc>
  <g id="store-1--store-shop-shops-stores">
    <path id="Subtract" fill="#000000" fill-rule="evenodd" d="M3.03841 7.51436c0.71798 0 1.40004 -0.19168 1.98072 -0.5334 0.58068 0.34172 1.26274 0.5334 1.98073 0.5334 0.71798 0 1.40004 -0.19168 1.98072 -0.5334 0.58068 0.34172 1.26272 0.5334 1.98072 0.5334 0.6028 0 1.1908 -0.14024 1.7149 -0.39486v4.5164c0 0.9917 -0.7219 1.8149 -1.6689 1.9727v-3.6084c0 -0.55225 -0.4477 -0.99997 -1 -0.99997h-0.99998c-0.55228 0 -1 0.44772 -1 0.99997v3.6357h-4.6831c-1.10457 0 -2 -0.8955 -2 -2V7.11986c0.52398 0.25439 1.1117 0.3945 1.71419 0.3945Zm-0.03109 1.48587c-0.27614 0 -0.5 0.22386 -0.5 0.5v1.49997c0 0.2762 0.22386 0.5 0.5 0.5h3c0.27615 0 0.5 -0.2238 0.5 -0.5V9.50023c0 -0.27614 -0.22385 -0.5 -0.5 -0.5h-3Z" clip-rule="evenodd" stroke-width="1"></path>
    <path id="Union" fill="#000000" d="M3.03841 6.26416c0.80992 0 1.529 -0.35253 1.98072 -0.89755 0.45172 0.54502 1.17081 0.89755 1.98073 0.89755 0.80991 0 1.529 -0.35253 1.98072 -0.89755 0.45172 0.54502 1.17082 0.89755 1.98072 0.89755 1.3674 0 2.4759 -1.00486 2.4759 -2.24443 0 -0.59851 -0.4952 -2.46139 -2.4759 -3.179607 -3.07336 -0.430706 -4.80791 -0.434617 -7.92289 0C1.05768 1.55834 0.5625 3.42122 0.5625 4.01973c0 1.23957 1.1085 2.24443 2.47591 2.24443Z" stroke-width="1"></path>
  </g>
</svg>