<svg xmlns="http://www.w3.org/2000/svg" fill="none" viewBox="0 0 14 14" id="Table--Streamline-Flex">
  <desc>
    Table Streamline Icon: https://streamlinehq.com
  </desc>
  <g id="table--money-payment-table-organize-organization-business">
    <path id="Subtract" fill="#000000" fill-rule="evenodd" d="M3.65727 0.474686C4.73112 0.35499 5.85168 0.25 7 0.25s2.26888 0.10499 3.3427 0.224686c1.672 0.186363 3.0154 1.528614 3.1946 3.203594 0.0286 0.26729 0.0562 0.53738 0.0815 0.81H0.381189c0.025316 -0.27262 0.052918 -0.54271 0.081515 -0.81C0.641907 2.0033 1.98532 0.661049 3.65727 0.474686ZM0.286679 5.73828C0.263647 6.15447 0.25 6.57534 0.25 7c0 0.60608 0.027798 1.20444 0.071004 1.79248H4.14502v-3.0542H0.286679Zm0.14667 4.30422c0.009629 0.0934 0.019432 0.1865 0.029355 0.2792 0.179204 1.675 1.522616 3.0173 3.194566 3.2036 0.16155 0.018 0.32415 0.0357 0.48775 0.0527v-3.5355H0.433349Zm4.961671 3.6469c0.52749 0.0372 1.06314 0.0606 1.60498 0.0606 1.14832 0 2.26888 -0.105 3.3427 -0.2247 1.672 -0.1863 3.0154 -1.5286 3.1946 -3.2036 0.0099 -0.0927 0.0197 -0.1858 0.0294 -0.2792H5.39502v3.6469ZM13.679 8.79248c0.0432 -0.58804 0.071 -1.1864 0.071 -1.79248 0 -0.42466 -0.0136 -0.84553 -0.0367 -1.26172H5.39502v3.0542H13.679Z" clip-rule="evenodd" stroke-width="1"></path>
  </g>
</svg>