<svg xmlns="http://www.w3.org/2000/svg" fill="none" viewBox="0 0 14 14" id="Tall-Hat--Streamline-Flex">
  <desc>
    Tall Hat Streamline Icon: https://streamlinehq.com
  </desc>
  <g id="tall-hat--tall-hat-cloth-clothing-wearable-magician-gentleman-accessories">
    <path id="Union" fill="#000000" fill-rule="evenodd" d="M10.2963 1.20554c0.9285 0.5375 1.5941 1.41527 1.4389 2.6206l-0.0004 0.00357 -0.4376 3.21687c-0.0176 0.12916 -0.1314 0.22312 -0.2616 0.21609 -1.35364 -0.0732 -2.74302 -0.12961 -4.15793 -0.12961 -1.39666 0 -2.76822 0.05496 -4.10504 0.12676 -0.00051 0.00002 -0.00096 -0.00034 -0.00103 -0.00085l-0.50386 -3.40526c-0.16876 -1.20532 0.48712 -2.08833 1.41127 -2.63154C4.5863 0.688873 5.8032 0.439396 6.98385 0.436548 8.16463 0.4337 9.38379 0.677349 10.2963 1.20554ZM3.22982 8.48763c-0.14716 0.00746 -0.25568 0.14019 -0.23411 0.28596l0.20223 1.36681c0.01448 0.0978 0.08511 0.178 0.1806 0.2038 1.1459 0.31 2.54061 0.6093 3.62115 0.6093 1.10532 0 2.53939 -0.3132 3.69961 -0.6306 0.0962 -0.0263 0.1668 -0.1077 0.1803 -0.2066l0.1809 -1.32997c0.0197 -0.14465 -0.0882 -0.27534 -0.234 -0.28307 -1.29738 -0.06885 -2.61428 -0.1202 -3.94883 -0.1202 -1.23134 0 -2.44782 0.04372 -3.64785 0.10457Zm0.19037 3.16257c0.00057 0.0002 0.00111 -0.0003 0.00102 -0.0009 -0.00008 -0.0006 0.00044 -0.001 0.001 -0.0009 1.11351 0.2853 2.45725 0.5551 3.57748 0.5551 1.15294 0 2.54264 -0.2858 3.67441 -0.5801 0.0002 -0.0001 0.0005 0.0001 0.0004 0.0004 0 0.0002 0.0002 0.0004 0.0005 0.0003 0.5136 -0.1407 0.9628 -0.2792 1.2901 -0.385 0.176 -0.0568 0.3163 -0.104 0.4118 -0.1368 0.0478 -0.0163 0.0844 -0.0291 0.1087 -0.0376l0.0269 -0.0095 0.0063 -0.0023 0.0013 -0.0004c0.3899 -0.1399 0.8194 0.0627 0.9593 0.4526 0.1399 0.3898 -0.0629 0.8194 -0.4528 0.9593l-0.0035 0.0012 -0.0087 0.0031 -0.032 0.0113c-0.0276 0.0097 -0.0678 0.0237 -0.1193 0.0414 -0.1031 0.0353 -0.2517 0.0853 -0.4369 0.1451 -0.3699 0.1195 -0.8875 0.2788 -1.4796 0.4382 -1.16593 0.314 -2.68935 0.6479 -3.94696 0.6479 -1.2576 0 -2.78102 -0.3339 -3.94691 -0.6479 -0.59216 -0.1594 -1.10979 -0.3187 -1.47969 -0.4382 -0.18515 -0.0598 -0.33379 -0.1098 -0.43683 -0.1451 -0.05153 -0.0177 -0.0917 -0.0317 -0.11936 -0.0414l-0.031983 -0.0113 -0.008702 -0.0031 -0.003701 -0.0013c-0.38987 -0.1399 -0.592504 -0.5694 -0.452596 -0.9592 0.139898 -0.3899 0.569402 -0.5925 0.959252 -0.4526l0.00134 0.0004 0.00629 0.0023 0.02698 0.0095c0.02426 0.0085 0.06084 0.0213 0.10862 0.0376 0.09558 0.0328 0.23584 0.08 0.41179 0.1368 0.34758 0.1123 0.83246 0.2616 1.38605 0.4111Z" clip-rule="evenodd" stroke-width="1"></path>
  </g>
</svg>