<svg xmlns="http://www.w3.org/2000/svg" fill="none" viewBox="0 0 14 14" id="Wallet--Streamline-Flex">
  <desc>
    Wallet Streamline Icon: https://streamlinehq.com
  </desc>
  <g id="wallet--money-payment-finance-wallet">
    <path id="Union" fill="#000000" fill-rule="evenodd" d="M9.85534 0.71747C8.92774 0.524471 6.86028 0.457031 5.66266 0.457031c-1.00641 0 -1.98016 0.164197 -2.96151 0.368943C1.53397 1.06898 0.749151 2.28238 0.58117 3.59046 0.438428 4.7013 0.350586 5.80664 0.350586 6.92771c0 0.2536 0.00285 0.48806 0.008163 0.70697 -0.005332 0.16636 -0.008163 0.34317 -0.008163 0.53261 0 1.27925 0.129661 1.96691 0.270201 2.71021l0.010547 0.0558c0.226507 1.1992 1.243896 2.135 2.494466 2.312l0.16336 0.0232c0.98477 0.1399 1.93207 0.2744 3.3409 0.2744 1.40887 0 2.35618 -0.1345 3.34098 -0.2744l0.16346 -0.0232c1.0265 -0.1453 1.9119 -0.8179 2.3163 -1.7479 0.1284 -0.2951 -0.1226 -0.5895 -0.4444 -0.5911 -0.1231 -0.0005 -0.2461 -0.002 -0.3692 -0.0035 -0.1578 -0.0019 -0.3156 -0.0038 -0.473 -0.0038 -1.47368 0 -2.66835 -1.19466 -2.66835 -2.66837 0 -1.4737 1.19467 -2.66837 2.66835 -2.66837 0.1562 0 0.3125 -0.00135 0.469 -0.00269 0.1083 -0.00094 0.2167 -0.00187 0.325 -0.00235 0.3276 -0.00147 0.5749 -0.30901 0.4282 -0.60192 -0.2464 -0.49189 -0.636 -0.90561 -1.1142 -1.19258 -0.7685 -0.40548 -1.76133 -0.4905 -3.16399 -0.4905 -1.12715 0 -2.21259 0.08678 -3.05087 0.15381 -0.22692 0.01814 -0.43573 0.03483 -0.62235 0.04797 -0.34433 0.02423 -0.6431 -0.23526 -0.66733 -0.57959 -0.02424 -0.34432 0.23525 -0.6431 0.57958 -0.66733 0.17034 -0.01199 0.36693 -0.02774 0.58477 -0.04519 0.83886 -0.06721 1.99283 -0.15967 3.1762 -0.15967 0.82432 0 1.61391 0.02348 2.34619 0.16316 0.3533 0.06738 0.6924 -0.21639 0.5344 -0.53941 -0.2231 -0.45605 -0.6158 -0.820787 -1.13346 -0.9285Zm1.30886 8.93154h1.3766c0.5523 0 1 -0.44771 1 -1v-0.83676c0 -0.55228 -0.4477 -0.99999 -1 -0.99999h-1.3766c-0.7833 0 -1.41835 0.63503 -1.41835 1.41837 0 0.78335 0.63505 1.41838 1.41835 1.41838Z" clip-rule="evenodd" stroke-width="1"></path>
  </g>
</svg>