<svg xmlns="http://www.w3.org/2000/svg" fill="none" viewBox="0 0 24 24" id="Alert-Alarm-Clock--Streamline-Freehand">
  <desc>
    Alert Alarm Clock Streamline Icon: https://streamlinehq.com
  </desc>
  <path fill="#020202" fill-rule="evenodd" d="M22.9333 1.81353C22.2293 0.984555 21.2928 0.385781 20.2449 0.0945966c-0.7538 -0.1814193 -1.547 -0.10033797 -2.2486 0.2298574 -0.6835 0.292748 -1.2719 0.770356 -1.6989 1.379146 -0.165 0.20705 -0.3121 0.4277 -0.4397 0.65959 -0.0608 0.11417 -0.0949 0.24056 -0.1 0.36977 0.0312 0.10853 0.0871 0.20835 0.1634 0.29159 0.0763 0.08325 0.1709 0.14764 0.2763 0.18811 0.6003 0.26501 1.1843 0.56535 1.749 0.89944 0.0808 0.05169 0.1789 0.06914 0.2726 0.04853 0.0937 -0.02062 0.1754 -0.07762 0.227 -0.15846 0.0517 -0.08084 0.0692 -0.1789 0.0486 -0.27261 -0.0206 -0.09371 -0.0776 -0.17539 -0.1585 -0.22708 -0.4805 -0.32524 -0.9776 -0.62545 -1.4891 -0.89944 0.08 -0.13991 0.1499 -0.30981 0.1899 -0.36977 0.3481 -0.45635 0.8198 -0.80321 1.3592 -0.99938 0.4848 -0.20233 1.0239 -0.234044 1.529 -0.08994 0.8166 0.26493 1.5364 0.76567 2.0687 1.4391 0.5178 0.63337 0.7688 1.44343 0.6996 2.2586 0.0148 0.14954 0.0148 0.30018 0 0.44972 -0.016 0.09923 -0.0428 0.19642 -0.0799 0.28982 -0.1156 -0.02061 -0.2292 -0.05069 -0.3398 -0.08994 -0.6898 -0.19495 -1.3592 -0.456 -1.9988 -0.77952l-0.3098 -0.13991c-0.079 -0.04381 -0.1698 -0.06159 -0.2595 -0.05082 -0.0897 0.01076 -0.1738 0.04953 -0.2402 0.11078 -0.2099 0.21986 -0.8894 1.10931 -1.3092 1.58901 -2.6483 -2.22861 -6.386 -2.62836 -9.10432 -2.22861 -1.24503 0.20237 -2.41218 0.7376 -3.37791 1.54904 -0.33979 -0.33979 -0.83948 -0.92943 -1.06933 -1.09932 -0.0729 -0.05209 -0.16025 -0.0801 -0.24985 -0.0801 -0.08959 0 -0.17695 0.02801 -0.24984 0.0801l-0.26984 0.21986c-0.57145 0.47558 -1.18341 0.90026 -1.82886 1.26921 -0.09994 0 -0.22986 0.12992 -0.3298 0.1699 -0.04595 -0.08373 -0.08602 -0.17055 -0.11992 -0.25984 -0.04799 -0.14427 -0.08802 -0.29107 -0.11993 -0.43973 -0.20099 -0.79915 -0.08269 -1.64517 0.3298 -2.35853 0.41949 -0.7334 1.04495 -1.32759 1.79888 -1.70894 0.47237 -0.22749 1.00811 -0.2874 1.51906 -0.1699 0.55356 0.09397 1.07148 0.33566 1.49907 0.69957 0.05996 0.05996 0.17989 0.26983 0.29981 0.38976 -0.35527 0.43648 -0.78915 0.80257 -1.2792 1.07933 -0.09481 0.01712 -0.17919 0.07056 -0.23518 0.14896 -0.056 0.07839 -0.07919 0.17554 -0.06464 0.27078 0.01937 0.09363 0.07335 0.17652 0.15116 0.2321 0.07781 0.05558 0.17372 0.07976 0.26858 0.06771 0.57506 -0.25321 1.0972 -0.61261 1.53905 -1.05934l0.48969 -0.44972c0.05791 -0.05415 0.1018 -0.12154 0.12791 -0.1964 0.02612 -0.07485 0.03366 -0.15492 0.022 -0.23334 -0.02652 -0.12707 -0.08116 -0.24658 -0.1599 -0.34978 -0.16528 -0.20631 -0.34567 -0.40006 -0.53967 -0.57964C6.67001 0.667159 6.0069 0.304521 5.28422 0.134572c-0.7558 -0.2055488 -1.55891 -0.1491897 -2.27859 0.159901C2.0242 0.762493 1.206 1.51454 0.657088 2.45313c-0.54199 0.98582 -0.674794 2.14516 -0.369771 3.228 0.066268 0.24164 0.156667 0.47601 0.269833 0.69956 0.082858 0.17452 0.190579 0.3361 0.319801 0.47971 0.172529 0.16447 0.395059 0.26658 0.632249 0.29012 0.23719 0.02353 0.47545 -0.03285 0.67694 -0.1602 0.80205 -0.48297 1.54351 -1.06003 2.20863 -1.71894 0.22985 0.19988 0.51967 0.4797 0.76952 0.70956C4.15608 6.98936 3.4143 8.23254 3.00563 9.5987c-0.85165 2.7405 -0.58955 5.7062 0.72955 8.2549 0.24166 0.4356 0.53346 0.8414 0.86946 1.2092l-0.89944 2.7283c-0.07983 0.2689 -0.11362 0.5494 -0.09994 0.8295 0.0268 0.2188 0.12518 0.4226 0.27982 0.5797 0.11335 0.1144 0.2451 0.209 0.38976 0.2798 0.14991 0.0799 0.3298 0.1399 0.46971 0.1999 0.2636 0.1192 0.53801 0.2129 0.81949 0.2798 0.16908 0.0536 0.3506 0.0536 0.51968 0 0.30631 -0.1476 0.58918 -0.3395 0.83948 -0.5697 0.3205 -0.3139 0.62091 -0.6477 0.89944 -0.9993l0.6396 -0.8195c1.12069 0.3809 2.29426 0.5832 3.47786 0.5996 1.5015 0.0297 2.9916 -0.2669 4.3673 -0.8695 0 0.06 0.1399 0.1499 0.1699 0.1699l0.7795 0.7096c0.337 0.2934 0.6907 0.567 1.0593 0.8195 0.2906 0.1833 0.6074 0.3214 0.9394 0.4097 0.1779 0.0315 0.3609 0.0143 0.5297 -0.0499 0.2618 -0.1252 0.5126 -0.2723 0.7495 -0.4398 0.1773 -0.1005 0.3446 -0.2177 0.4997 -0.3498 0.0965 -0.0805 0.1807 -0.1748 0.2499 -0.2798 0.1198 -0.1834 0.1759 -0.4011 0.1599 -0.6196 -0.0397 -0.2746 -0.1313 -0.5391 -0.2698 -0.7795l-1.1793 -2.1087c-0.042 -0.0719 -0.1097 -0.1253 -0.1894 -0.1494 -0.0797 -0.0241 -0.1656 -0.0171 -0.2404 0.0195 -0.0754 0.0385 -0.1326 0.1053 -0.1588 0.1859s-0.0194 0.1683 0.0189 0.2438c0.1499 0.3598 0.2999 0.7196 0.4398 1.0893 0.1399 0.3698 0.2398 0.7396 0.3597 1.0994 0.12 0.3597 0.2499 0.4097 -0.2998 0.7695 -0.3597 0.2198 -0.5296 0.1899 -0.9994 0 -0.3658 -0.1765 -0.7197 -0.3768 -1.0593 -0.5997l-0.8695 -0.5496c1.2851 -0.6935 2.3303 -1.7596 2.9982 -3.0581 0.0437 -0.0862 0.0514 -0.1861 0.0215 -0.278 -0.03 -0.0918 -0.0953 -0.168 -0.1814 -0.2117 -0.0862 -0.0437 -0.1861 -0.0515 -0.278 -0.0215 -0.0918 0.03 -0.168 0.0952 -0.2117 0.1814 -1.3991 2.6783 -4.3873 3.8076 -7.3455 3.6977 -2.95812 -0.1099 -5.99623 -1.4891 -7.24546 -3.8776 -1.14286 -2.2751 -1.35784 -4.905 -0.59962 -7.33544 0.30715 -1.20203 0.94759 -2.29285 1.84755 -3.14684 0.89995 -0.85398 2.02282 -1.4364 3.23929 -1.68017 2.49844 -0.45971 5.99624 -0.17989 8.33484 1.82887 1.8089 1.54903 2.9382 4.12748 2.4884 8.13498 -0.0086 0.0844 0.0157 0.169 0.0678 0.236 0.0521 0.067 0.1281 0.1113 0.2121 0.1237 0.042 0.0056 0.0848 0.0028 0.1257 -0.0083 0.0409 -0.0111 0.0793 -0.0302 0.1128 -0.0562 0.0334 -0.0261 0.0614 -0.0585 0.0822 -0.0955 0.0208 -0.0369 0.0341 -0.0777 0.039 -0.1198 0.5697 -4.0575 -0.4697 -6.76578 -2.1786 -8.52469 0.3598 -0.34978 0.8695 -0.90944 1.1893 -1.23923 0.7892 0.47971 1.6352 0.85907 2.5184 1.1293 0.2184 0.07525 0.4548 0.08108 0.6767 0.01666 0.2218 -0.06441 0.4184 -0.19591 0.5625 -0.37644 0.1054 -0.16392 0.1862 -0.34237 0.2399 -0.52967 0.0698 -0.24497 0.1166 -0.49589 0.1399 -0.74954 0.1093 -1.11924 -0.2203 -2.2372 -0.9194 -3.11806ZM7.67273 21.2315l-0.49969 0.4897c-0.29981 0.2698 -0.64959 0.4997 -0.92942 0.7895s-0.68957 0.1799 -1.06934 0c-0.55965 -0.2499 -0.52967 -0.1499 -0.06995 -2.5984v-0.2798c0.76073 0.6728 1.62891 1.2133 2.5684 1.599Z" clip-rule="evenodd" stroke-width="1"></path>
  <path fill="#0c6fff" fill-rule="evenodd" d="M10.2911 14.1259c0.0266 0.201 0.1137 0.3893 0.2498 0.5396 0.1581 0.1446 0.3655 0.2232 0.5797 0.2199 0.2254 -0.0309 0.4489 -0.0743 0.6695 -0.1299 0.3704 -0.069 0.7439 -0.119 1.1193 -0.1499l1.1693 -0.09h0.9194c0.1963 0.0043 0.3919 -0.0227 0.5797 -0.0799h0.1099c0.0677 -0.0379 0.1221 -0.0955 0.156 -0.1652 0.034 -0.0696 0.0458 -0.148 0.0339 -0.2246 -0.008 -0.0595 -0.0317 -0.1158 -0.0685 -0.1632 -0.0369 -0.0474 -0.0857 -0.0842 -0.1414 -0.1066 -0.2198 -0.08 -0.4697 0 -0.5196 0l-0.9994 -0.1299c-0.4897 0 -0.9994 -0.06 -1.4391 -0.06 -0.3329 -0.0204 -0.6666 -0.0204 -0.9994 0 -0.0815 0.0219 -0.1615 0.0486 -0.2399 0.0799 0.07 -0.9993 0.1699 0.4697 -0.1898 -3.3479l-0.05 -1.11929v-0.52967c0.0054 -0.03309 0.0054 -0.06684 0 -0.09994 0.004 -0.05769 -0.0138 -0.11478 -0.05 -0.1599 0 -0.05996 -0.5297 -0.23985 -0.5996 0.17989 0 0.13991 -0.06 0.53967 -0.07 0.60962l-0.1199 1.11929c0 0.5697 -0.0899 1.1293 -0.0899 1.699 -0.02 0.3861 -0.02 0.7731 0 1.1592 -0.02 0.1699 -0.05 0.6496 -0.01 0.9495Z" clip-rule="evenodd" stroke-width="1"></path>
</svg>