<svg xmlns="http://www.w3.org/2000/svg" fill="none" viewBox="0 0 24 24" id="Delete-Skull--Streamline-Freehand">
  <desc>
    Delete Skull Streamline Icon: https://streamlinehq.com
  </desc>
  <path fill="#020202" fill-rule="evenodd" d="M23.1923 7.93634c-0.2328 -0.80424 -0.5439 -1.58372 -0.9289 -2.32723 -0.3753 -0.75803 -0.8343 -1.47163 -1.3684 -2.12747 -1.089 -1.17078 -2.4219 -2.08804 -3.9045 -2.686943 -1.4826 -0.598898 -3.0786 -0.8648121 -4.6753 -0.7789421C10.7314 0.00530135 9.16118 0.308866 7.69537 0.908904 6.22957 1.50894 4.89722 2.39355 3.77535 3.5116c-0.72432 0.80509 -1.34507 1.69764 -1.8478 2.65684 -0.50405 0.95739 -0.91543 1.96077 -1.228542 2.99644 -0.29979 0.97202 -0.467759 1.97982 -0.499407 2.99642 -0.028957 1.0509 0.165078 2.096 0.569324 3.0664 0.289505 0.702 0.709815 1.3426 1.238525 1.8877 0.34903 0.401 0.79657 0.7039 1.29846 0.879 0.08743 0.0285 0.18259 0.0215 0.26486 -0.0196 0.08226 -0.0412 0.145 -0.1131 0.17462 -0.2001 0.02544 -0.0888 0.01578 -0.1839 -0.02699 -0.2657 -0.04276 -0.0818 -0.11535 -0.1441 -0.20274 -0.1738 -0.49306 -0.175 -0.92378 -0.491 -1.23853 -0.9089 -0.34549 -0.4325 -0.62487 -0.9138 -0.82901 -1.4283 -0.34949 -0.8889 -0.499512 -1.8436 -0.43948 -2.7967 0.03782 -0.954 0.20585 -1.8983 0.49941 -2.80669 0.30638 -0.9711 0.70437 -1.91088 1.18858 -2.80666 0.48071 -0.8864 1.07134 -1.70859 1.75792 -2.4471C6.5689 2.11739 9.39922 1.01472 12.3252 1.0745c1.4296 -0.06272 2.8558 0.1872 4.1789 0.73232 1.3231 0.54513 2.5114 1.37233 3.482 2.42393 0.4694 0.59122 0.8745 1.23074 1.2086 1.90773 1.044 2.04007 1.5136 4.32572 1.3583 6.61212 -0.1194 1.508 -0.6027 2.9646 -1.4083 4.245 -0.4452 0.5153 -0.9187 1.0055 -1.4183 1.4682 -0.176 0.1816 -0.3211 0.3908 -0.4295 0.6193 -0.1099 0.3396 -0.4295 2.0775 -0.5993 2.7867v0.1298c-0.3224 0.2579 -0.6974 0.442 -1.0987 0.5394 -0.4853 0.1459 -0.9922 0.2067 -1.4982 0.1798l-0.2297 -0.05c-0.1836 -0.6091 -0.4209 -1.2007 -0.7092 -1.7679 -0.109 -0.25 -0.2898 -0.462 -0.5194 -0.6092 -0.0563 -0.0296 -0.1184 -0.0468 -0.1819 -0.0506 -0.0636 -0.0038 -0.1272 0.006 -0.1867 0.0287 -0.0595 0.0226 -0.1135 0.0577 -0.1584 0.1028 -0.0449 0.0451 -0.0798 0.0992 -0.1022 0.1588 -0.0466 0.1116 -0.0769 0.2293 -0.0899 0.3496 -0.0599 0.3895 -0.1398 1.2185 -0.2397 1.7279 0 0.0999 -0.05 0.2098 -0.0599 0.2497 -0.1345 0.0768 -0.285 0.1212 -0.4395 0.1299 -0.4195 0.0699 -0.9089 0.0699 -1.1986 0.0998 -0.4277 0.0557 -0.8608 0.0557 -1.2885 0 -0.2114 -0.017 -0.4098 -0.1091 -0.5593 -0.2596 -0.0914 -0.2065 -0.15195 -0.4252 -0.17979 -0.6493 -0.15981 -0.5493 -0.25969 -1.1886 -0.25969 -1.1886 -0.01096 -0.0879 -0.05157 -0.1695 -0.11513 -0.2312 -0.06355 -0.0617 -0.14625 -0.1 -0.23446 -0.1084 -0.08945 -0.0045 -0.17794 0.0203 -0.2519 0.0708 -0.07397 0.0506 -0.12933 0.1239 -0.15761 0.2089 0 0 -0.19976 0.6592 -0.4195 1.2285 -0.06752 0.2255 -0.17217 0.4382 -0.30964 0.6293 -0.18965 0.09 -0.40283 0.118 -0.60927 0.0799 -0.64311 -0.0255 -1.27757 -0.1572 -1.87777 -0.3895 -0.60928 -0.2397 -1.13865 -0.5494 -1.25851 -0.9988 -0.04729 -0.23 -0.0674 -0.4646 -0.05992 -0.6992 0 -0.6293 0.0799 -1.3584 0 -1.8778 -0.00367 -0.0404 -0.0155 -0.0796 -0.03476 -0.1152 -0.01927 -0.0357 -0.04557 -0.0671 -0.07732 -0.0923 -0.03174 -0.0252 -0.06828 -0.0437 -0.10739 -0.0544 -0.03911 -0.0107 -0.07998 -0.0133 -0.12013 -0.0078 -0.03943 0.0038 -0.07772 0.0153 -0.11266 0.0339 -0.03495 0.0187 -0.06585 0.044 -0.09093 0.0747 -0.02508 0.0306 -0.04383 0.066 -0.05517 0.1039 -0.01135 0.0379 -0.01506 0.0778 -0.01092 0.1171 0.04994 0.5794 -0.07991 1.4283 -0.05993 2.0876 0.00053 0.1984 0.024 0.3962 0.06992 0.5893 0.19976 0.7091 1.12866 1.3484 2.19739 1.618 0.86718 0.3493 1.83056 0.3777 2.71677 0.0799 0.19697 -0.2029 0.34998 -0.4443 0.44946 -0.7091v-0.0899c0.04581 0.2712 0.14057 0.5318 0.27967 0.7691 0.26836 0.3251 0.65049 0.5359 1.06869 0.5893 0.487 0.0923 0.9837 0.1225 1.4783 0.0899 0.5017 -0.0098 1.0023 -0.0532 1.4982 -0.1299 0.3007 -0.0531 0.5768 -0.2 0.7891 -0.4195 0.1199 -0.1876 0.1983 -0.3988 0.2297 -0.6192 0 -0.1598 0.0599 -0.3496 0.0899 -0.5394 0.0866 0.2397 0.1764 0.5094 0.2697 0.809 0.0398 0.122 0.1061 0.2336 0.1942 0.3268 0.0881 0.0933 0.1957 0.1659 0.3152 0.2126 0.5229 0.1521 1.0753 0.1727 1.6081 0.0599 0.9411 -0.073 1.8355 -0.4399 2.5569 -1.0487 0.1017 -0.1597 0.176 -0.3352 0.2198 -0.5194 0.1797 -0.6892 0.4994 -2.3572 0.6192 -2.6768 0.1199 -0.3196 0.889 -0.889 1.3384 -1.3584 0.1599 -0.155 0.3038 -0.3256 0.4295 -0.5094 0.909 -1.4193 1.4639 -3.0361 1.6181 -4.7144 0.1143 -1.6631 -0.0821 -3.33298 -0.5793 -4.92416Z" clip-rule="evenodd" stroke-width="1"></path>
  <path fill="#0c6fff" fill-rule="evenodd" d="M5.94278 8.07619c0.27169 -0.15616 0.5772 -0.2441 0.89033 -0.25628 0.31313 -0.01218 0.62454 0.05177 0.90754 0.18636 0.07158 0.03943 0.15586 0.04896 0.23444 0.02651 0.07859 -0.02245 0.14511 -0.07507 0.18506 -0.14636 0.02994 -0.0729 0.02995 -0.15466 0.00004 -0.22757 -0.02991 -0.07291 -0.08734 -0.1311 -0.15985 -0.16197 -0.36135 -0.20762 -0.76605 -0.32834 -1.18209 -0.35261 -0.41604 -0.02427 -0.83202 0.04857 -1.21506 0.21277 -0.38751 0.18493 -0.73075 0.45097 -1.00647 0.78012 -0.27573 0.32914 -0.47749 0.7137 -0.59164 1.12762 -0.21495 0.60061 -0.21495 1.25722 0 1.85782 0.24367 0.5855 0.66683 1.0786 1.20857 1.4083 0.90538 0.536 1.94482 0.8028 2.99644 0.7691 0.77495 -0.0005 1.51957 -0.3012 2.07751 -0.839 0.2531 -0.2893 0.4281 -0.6383 0.5085 -1.0141 0.0804 -0.3758 0.0635 -0.7659 -0.049 -1.1334 -0.1283 -0.49516 -0.3543 -0.95969 -0.6648 -1.36622 -0.31045 -0.40654 -0.69911 -0.74686 -1.14308 -1.00094 -0.04129 -0.02047 -0.08622 -0.03258 -0.13221 -0.03562 -0.04598 -0.00305 -0.09212 0.00303 -0.13575 0.01788 -0.04363 0.01486 -0.08389 0.03819 -0.11847 0.06866 -0.03458 0.03047 -0.06279 0.06748 -0.08301 0.10889 -0.02062 0.03995 -0.0331 0.0836 -0.03672 0.12841 -0.00362 0.0448 0.00169 0.08989 0.01563 0.13263 0.01394 0.04274 0.03622 0.08228 0.06556 0.11634 0.02934 0.03407 0.06515 0.06196 0.10535 0.08208 0.57098 0.36393 0.99809 0.91459 1.20857 1.55819 0.12459 0.2642 0.16923 0.5591 0.12842 0.8483 -0.04082 0.2893 -0.16531 0.5603 -0.35815 0.7797 -0.25534 0.1881 -0.54715 0.3208 -0.85674 0.3896 -0.3096 0.0688 -0.63015 0.0722 -0.94112 0.0099 -0.68556 -0.046 -1.35163 -0.2475 -1.94769 -0.5893 -0.36635 -0.1944 -0.66307 -0.4981 -0.84899 -0.8689 -0.16605 -0.3702 -0.20127 -0.7858 -0.09988 -1.17862 0.05065 -0.30355 0.17076 -0.5913 0.35094 -0.84079 0.18019 -0.24949 0.41559 -0.45398 0.68782 -0.5975Z" clip-rule="evenodd" stroke-width="1"></path>
  <path fill="#0c6fff" fill-rule="evenodd" d="M15.3715 13.0003c1.0526 0.0307 2.0921 -0.2395 2.9965 -0.7791 0.538 -0.3313 0.9575 -0.8242 1.1986 -1.4083 0.2047 -0.5989 0.2047 -1.24886 0 -1.84778 -0.1004 -0.42337 -0.2942 -0.81891 -0.5673 -1.15765 -0.2731 -0.33874 -0.6185 -0.61209 -1.0109 -0.80003 -0.3589 -0.1705 -0.7512 -0.25897 -1.1486 -0.25897 -0.3974 0 -0.7897 0.08847 -1.1486 0.25897 -0.0555 -0.01637 -0.1144 -0.01637 -0.1698 0 -1.0727 0.5798 -1.9515 1.462 -2.527 2.53699 -0.2429 0.40593 -0.347 0.87987 -0.2965 1.35027 0.0504 0.4703 0.2527 0.9115 0.5761 1.2566 0.5614 0.5463 1.3143 0.851 2.0975 0.849Zm-1.5381 -3.07632c0.4679 -0.91624 1.1889 -1.6789 2.0775 -2.19739 0.0419 -0.0188 0.0768 -0.05024 0.0999 -0.08989 0.2695 -0.10326 0.5581 -0.1469 0.846 -0.12793 0.288 0.01896 0.5684 0.10009 0.822 0.23779 0.2648 0.14815 0.4923 0.35467 0.6654 0.60388 0.1731 0.24921 0.2871 0.53457 0.3334 0.83442 0.0992 0.3955 0.0677 0.81249 -0.0899 1.18854 -0.1823 0.3642 -0.4716 0.6639 -0.829 0.859 -0.6084 0.3551 -1.2939 0.5574 -1.9976 0.5893 -0.3071 0.0525 -0.6216 0.0433 -0.9251 -0.027 -0.3036 -0.0703 -0.5901 -0.2003 -0.8428 -0.3825 -0.1839 -0.1975 -0.2989 -0.4492 -0.3277 -0.7175 -0.0288 -0.2683 0.0301 -0.5387 0.1679 -0.77072Z" clip-rule="evenodd" stroke-width="1"></path>
  <path fill="#0c6fff" fill-rule="evenodd" d="M10.4375 15.5273c-0.4276 0.3902 -0.72416 0.903 -0.84897 1.4683 -0.02974 0.0755 -0.02861 0.1598 0.00315 0.2345 0.03176 0.0747 0.09161 0.134 0.16665 0.165 0.07555 0.0297 0.15977 0.0286 0.2345 -0.0031 0.07477 -0.0318 0.13397 -0.0917 0.16507 -0.1667 0.1428 -0.2332 0.3294 -0.4367 0.5493 -0.5993 0.158 -0.108 0.3292 -0.1952 0.5094 -0.2597 0.1141 -0.0606 0.2404 -0.0948 0.3696 -0.0998l0.4694 0.0499c0.1924 0.012 0.3783 0.074 0.5394 0.1798 0.1876 0.1834 0.334 0.4048 0.4294 0.6492 0.0126 0.0437 0.0338 0.0843 0.0623 0.1197 0.0286 0.0353 0.0639 0.0645 0.1039 0.0859 0.0401 0.0214 0.084 0.0346 0.1292 0.0388 0.0453 0.0041 0.0909 -0.0009 0.1341 -0.0147 0.0885 -0.0255 0.1633 -0.085 0.2082 -0.1654 0.0449 -0.0804 0.0562 -0.1753 0.0315 -0.2641 -0.0605 -0.4983 -0.2854 -0.9622 -0.6392 -1.3184 -0.4026 -0.3124 -0.8898 -0.4968 -1.3983 -0.5294 -0.4426 0.0043 -0.8712 0.1553 -1.2186 0.4295Z" clip-rule="evenodd" stroke-width="1"></path>
</svg>