<svg xmlns="http://www.w3.org/2000/svg" fill="none" viewBox="0 0 24 24" id="Face-Id-Square--Streamline-Freehand">
  <desc>
    Face Id Square Streamline Icon: https://streamlinehq.com
  </desc>
  <path fill="#020202" fill-rule="evenodd" d="M0.900587 5.19258c0.099863 -0.00766 0.192943 -0.05347 0.259943 -0.12791 0.067 -0.07445 0.10278 -0.17182 0.09992 -0.27194V2.58356c0.01937 -0.34186 0.09014 -0.67885 0.20992 -0.99963 0.00181 -0.02662 0.00181 -0.05334 0 -0.07997v0.07997c1.08901 -0.2883 2.21235 -0.4262 3.33875 -0.40984 0.06373 0.01063 0.12905 0.00676 0.19108 -0.01132 0.06203 -0.01809 0.11919 -0.04993 0.16722 -0.09316 0.04803 -0.04323 0.08569 -0.096725 0.11019 -0.156516 0.0245 -0.059792 0.03521 -0.124337 0.03132 -0.188837C5.31167 0.611921 5.2703 0.502981 5.19369 0.42077c-0.0766 -0.082211 -0.18235 -0.131154 -0.2946 -0.136347C3.77002 0.095088 2.62346 0.0313901 1.48037 0.0944939 1.23615 0.114653 0.999896 0.191009 0.790072 0.317597 0.580248 0.444185 0.402537 0.617575 0.270824 0.82422c-0.1890545 0.43126 -0.2811868 0.89874 -0.269898928 1.36949C0.0958535 3.08622 0.266402 3.96906 0.510734 4.83271c0.005179 0.099 0.048849 0.19204 0.121689 0.25928 0.072839 0.06723 0.169075 0.10333 0.268164 0.10059Z" clip-rule="evenodd" stroke-width="1"></path>
  <path fill="#020202" fill-rule="evenodd" d="M4.8691 22.856c-1.12641 0.0163 -2.24975 -0.1216 -3.33875 -0.4099v0.08c0.00181 -0.0266 0.00181 -0.0533 0 -0.08 -0.11978 -0.3207 -0.19055 -0.6577 -0.20992 -0.9996v-2.2092c0.00286 -0.1001 -0.03292 -0.1975 -0.09992 -0.2719 -0.067 -0.0744 -0.16008 -0.1202 -0.259945 -0.1279 -0.09909 -0.0028 -0.195326 0.0333 -0.268165 0.1006 -0.072839 0.0672 -0.11651 0.1603 -0.121689 0.2593 -0.262966 0.8521 -0.453571 1.7248 -0.569785928 2.609 -0.011287872 0.4707 0.080844428 0.9382 0.269898928 1.3695 0.131713 0.2066 0.309424 0.38 0.519248 0.5066 0.209824 0.1266 0.446078 0.2029 0.690298 0.2231 1.14309 0.0631 2.28965 -0.0006 3.41872 -0.1899 0.114 0 0.22333 -0.0453 0.30394 -0.1259 0.08061 -0.0807 0.12589 -0.19 0.12589 -0.304 0 -0.114 -0.04528 -0.2233 -0.12589 -0.3039s-0.18994 -0.1259 -0.30394 -0.1259H4.8691Z" clip-rule="evenodd" stroke-width="1"></path>
  <path fill="#020202" fill-rule="evenodd" d="M19.1238 1.1441c1.1264 -0.01636 2.2497 0.12154 3.3387 0.40985v-0.07997c-0.0018 0.02662 -0.0018 0.05334 0 0.07997 0.05 0 0 0 0 0 0.1279 0.31882 0.2022 0.65658 0.22 0.99962v2.20917c-0.0029 0.10012 0.0329 0.19749 0.0999 0.27194 0.067 0.07444 0.1601 0.12025 0.2599 0.12791 0.0991 0.00274 0.1954 -0.03335 0.2682 -0.10059s0.1165 -0.16028 0.1217 -0.25927c0.2596 -0.8524 0.4468 -1.72517 0.5598 -2.60902 0.0113 -0.47075 -0.0809 -0.93823 -0.2699 -1.36949 -0.1317 -0.206645 -0.3095 -0.380035 -0.5193 -0.506623 -0.2098 -0.126588 -0.4461 -0.202944 -0.6903 -0.2231031 -1.1431 -0.0631038 -2.2896 0.0005941 -3.4187 0.1899291 -0.1122 0.005193 -0.218 0.054136 -0.2946 0.136347 -0.0766 0.08221 -0.118 0.191151 -0.1152 0.303487 0.0013 0.056452 0.0137 0.112095 0.0365 0.16375 0.0228 0.051655 0.0556 0.09831 0.0964 0.137303 0.0408 0.03899 0.089 0.06954 0.1416 0.08993 0.0527 0.02038 0.1088 0.03019 0.1653 0.02886Z" clip-rule="evenodd" stroke-width="1"></path>
  <path fill="#020202" fill-rule="evenodd" d="M23.0923 18.8075c-0.0999 0.0076 -0.193 0.0534 -0.26 0.1279 -0.067 0.0744 -0.1028 0.1718 -0.0999 0.2719v2.2092c-0.0178 0.343 -0.0921 0.6808 -0.2199 0.9996 -0.0018 0.0266 -0.0018 0.0533 0 0.08v-0.08c-1.089 0.2883 -2.2124 0.4262 -3.3388 0.4098 -0.114 0 -0.2233 0.0453 -0.3039 0.1259 -0.0806 0.0807 -0.1259 0.19 -0.1259 0.304 0 0.114 0.0453 0.2233 0.1259 0.3039s0.1899 0.1259 0.3039 0.1259c1.1291 0.1894 2.2757 0.2531 3.4188 0.19 0.2442 -0.0202 0.4804 -0.0966 0.6902 -0.2231 0.2099 -0.1266 0.3876 -0.3 0.5193 -0.5067 0.1575 -0.428 0.2222 -0.8846 0.1899 -1.3395 -0.0949 -0.8925 -0.2655 -1.7753 -0.5098 -2.639 -0.0052 -0.099 -0.0488 -0.192 -0.1217 -0.2593 -0.0728 -0.0672 -0.169 -0.1033 -0.2681 -0.1005Z" clip-rule="evenodd" stroke-width="1"></path>
  <path fill="#0c6fff" fill-rule="evenodd" d="m7.59806 6.81201 0.75972 0.46983c0.03994 0.0402 0.08745 0.0721 0.13977 0.09387 0.05233 0.02176 0.10844 0.03297 0.16511 0.03297 0.05667 0 0.11279 -0.01121 0.16511 -0.03297 0.05233 -0.02177 0.09983 -0.05367 0.13978 -0.09387 0.03989 -0.03909 0.07159 -0.08575 0.09323 -0.13725 0.02164 -0.05149 0.03278 -0.10678 0.03278 -0.16264 0 -0.05586 -0.01114 -0.11115 -0.03278 -0.16264 -0.02164 -0.0515 -0.05334 -0.09816 -0.09323 -0.13725l-0.73973 -0.7797c-0.32439 -0.30619 -0.69993 -0.55316 -1.10958 -0.72973 -0.2499 -0.11227 -0.52074 -0.17031 -0.7947 -0.17031s-0.5448 0.05804 -0.7947 0.17031c-0.25982 0.12954 -0.49362 0.30574 -0.68974 0.5198 -0.37399 0.42172 -0.7086 0.87678 -0.99963 1.35949 -0.06465 0.0731 -0.10033 0.16732 -0.10033 0.2649 0 0.09759 0.03568 0.19181 0.10033 0.26491 0.0726 0.06964 0.1693 0.10853 0.2699 0.10853 0.1006 0 0.19731 -0.03889 0.2699 -0.10853 0.49816 -0.44998 1.07397 -0.80563 1.69936 -1.04961 0.20543 -0.0614 0.42433 -0.0614 0.62977 0 0.30803 0.05185 0.60742 0.14604 0.88966 0.27989Z" clip-rule="evenodd" stroke-width="1"></path>
  <path fill="#0c6fff" fill-rule="evenodd" d="M19.9934 7.32177c0.0766 -0.08307 0.1191 -0.19191 0.1191 -0.30488 0 -0.11298 -0.0425 -0.22182 -0.1191 -0.30489l-0.7397 -0.76971c-0.3236 -0.30717 -0.6993 -0.55427 -1.1096 -0.72973 -0.2494 -0.10726 -0.5181 -0.16257 -0.7897 -0.16257 -0.2715 0 -0.5402 0.05531 -0.7897 0.16257 -0.2645 0.12664 -0.5021 0.30314 -0.6997 0.51981 -0.3717 0.4236 -0.7061 0.87845 -0.9996 1.35949 -0.0697 0.07259 -0.1086 0.1693 -0.1086 0.2699 0 0.1006 0.0389 0.1973 0.1086 0.2699 0.0344 0.03536 0.0756 0.06347 0.1211 0.08266s0.0944 0.02908 0.1438 0.02908c0.0493 0 0.0982 -0.00989 0.1437 -0.02908 0.0455 -0.01919 0.0867 -0.0473 0.1212 -0.08266 0.4978 -0.45056 1.0692 -0.81235 1.6893 -1.0696 0.2089 -0.06109 0.4309 -0.06109 0.6398 0 0.3076 0.06347 0.6064 0.16417 0.8897 0.29989l0.7597 0.47982c0.085 0.07919 0.1979 0.12154 0.314 0.11779 0.1161 -0.00374 0.226 -0.05328 0.3057 -0.13779Z" clip-rule="evenodd" stroke-width="1"></path>
  <path fill="#0c6fff" fill-rule="evenodd" d="M11.5265 13.6294c0.1567 0.1764 0.347 0.3197 0.5598 0.4215s0.4439 0.16 0.6795 0.1711c0.2356 0.0112 0.4711 -0.0248 0.6926 -0.106 0.2215 -0.0812 0.4246 -0.2058 0.5972 -0.3666 0.1974 -0.1323 0.3846 -0.2793 0.5598 -0.4399 0.17 -0.1566 0.3302 -0.3235 0.4798 -0.4998 0.0759 -0.0814 0.1181 -0.1886 0.1181 -0.2999 0 -0.1113 -0.0422 -0.2184 -0.1181 -0.2999 -0.0803 -0.0781 -0.1879 -0.1218 -0.2999 -0.1218 -0.112 0 -0.2196 0.0437 -0.2999 0.1218 -0.1407 0.1341 -0.2911 0.2577 -0.4498 0.3699 -0.1491 0.1107 -0.3101 0.2046 -0.4798 0.2799 -0.1234 0.0785 -0.2614 0.1313 -0.4056 0.1554 -0.1443 0.024 -0.2919 0.0188 -0.4341 -0.0154 -0.2199 -0.08 -0.2899 -0.3299 -0.3899 -0.5998 -0.151 -0.561 -0.2316 -1.1385 -0.2399 -1.7194V7.74163c0.05 -0.46983 0.08 -0.89966 0.14 -1.31951 0.0349 -0.28309 0.0883 -0.56359 0.1599 -0.83968 0.0318 -0.09412 0.025 -0.19702 -0.0191 -0.28606 -0.0441 -0.08905 -0.1217 -0.15695 -0.2158 -0.18876 -0.0941 -0.03182 -0.197 -0.02494 -0.2861 0.01911 -0.089 0.04406 -0.1569 0.12168 -0.1887 0.2158l-0.6898 2.19917 -0.2499 1.14957c-0.1427 0.96322 -0.1628 1.94063 -0.0599 2.90893 0.0739 0.7443 0.3661 1.4502 0.8396 2.0292Z" clip-rule="evenodd" stroke-width="1"></path>
  <path fill="#0c6fff" fill-rule="evenodd" d="M16.7447 15.4487c-0.1155 0.1895 -0.2494 0.3669 -0.3999 0.5298 -0.2586 0.2592 -0.5323 0.5029 -0.8197 0.7298 -0.2456 0.2042 -0.5026 0.3945 -0.7697 0.5698 -0.2403 0.1684 -0.5027 0.3029 -0.7797 0.3998 -0.9085 0.3422 -1.9105 0.3422 -2.8189 0 -1.52009 -0.551 -2.9163 -1.3969 -4.1085 -2.4891 -0.07092 -0.069 -0.16596 -0.1076 -0.2649 -0.1076 -0.09895 0 -0.19399 0.0386 -0.2649 0.1076 -0.06675 0.0721 -0.10383 0.1667 -0.10383 0.2649 0 0.0983 0.03708 0.1929 0.10383 0.2649 1.11743 1.407 2.54832 2.5332 4.1784 3.2888 0.6154 0.2291 1.2706 0.3321 1.9266 0.3029 0.656 -0.0292 1.2994 -0.19 1.892 -0.4728 0.2769 -0.144 0.5411 -0.3112 0.7897 -0.4998 0.3346 -0.2732 0.6486 -0.5705 0.9396 -0.8897 0.2913 -0.2865 0.565 -0.5903 0.8197 -0.9097 0.1841 -0.235 0.3354 -0.4939 0.4499 -0.7697 0.0476 -0.1034 0.0522 -0.2215 0.0128 -0.3283 -0.0393 -0.1068 -0.1194 -0.1936 -0.2228 -0.2415 -0.0527 -0.0238 -0.11 -0.0363 -0.1679 -0.0364 -0.0579 -0.0002 -0.1152 0.012 -0.1681 0.0356s-0.1002 0.0582 -0.1388 0.1014c-0.0385 0.0432 -0.0675 0.0941 -0.0849 0.1493Z" clip-rule="evenodd" stroke-width="1"></path>
</svg>