<svg xmlns="http://www.w3.org/2000/svg" fill="none" viewBox="0 0 24 24" id="Link-Paperclip--Streamline-Freehand">
  <desc>
    Link Paperclip Streamline Icon: https://streamlinehq.com
  </desc>
  <path fill="#020202" d="M20.4282 10.2711c-0.0419 -0.0424 -0.0917 -0.076 -0.1466 -0.0989 -0.055 -0.023 -0.1139 -0.0348 -0.1734 -0.0348s-0.1185 0.0118 -0.1734 0.0348c-0.0549 0.0229 -0.1048 0.0565 -0.1466 0.0989 -0.3311 0.3099 -0.6386 0.6442 -0.92 1 -0.43 0.52 -0.82 1.08 -1.22 1.59 -0.84 1.1 -1.68 2.19 -2.56 3.26 -0.58 0.71 -1.18 1.41 -1.8 2.09 -0.45 0.51 -1 1.23 -1.65 1.86 -0.3519 0.3939 -0.7478 0.7462 -1.18 1.05 -0.4802 0.213 -0.99969 0.3231 -1.52502 0.3231 -0.52533 0 -1.04482 -0.1101 -1.525 -0.3231 -1.04639 -0.3381 -1.9756 -0.9656 -2.68 -1.81 -0.24363 -0.3265 -0.40682 -0.7058 -0.47633 -1.1072 -0.0695 -0.4014 -0.04335 -0.8135 0.07633 -1.2028 0.44689 -1.2819 1.05511 -2.5017 1.81 -3.63 0.26 -0.46 0.52 -0.91 0.8 -1.36 0.28 -0.45 0.55 -0.89 0.85 -1.32l1.44 -2.00005c0.74 -1 1.49002 -2 2.33002 -3 0.5398 -0.62417 1.1431 -1.19055 1.8 -1.69 0.28 -0.21 0.56 -0.45 0.85 -0.64 0.1637 -0.11347 0.342 -0.20429 0.53 -0.27 0.5588 -0.15978 1.1512 -0.15978 1.71 0 0.5881 0.16082 1.1455 0.41761 1.65 0.76 0.2513 0.16869 0.4476 0.40724 0.5649 0.68623 0.1173 0.279 0.1504 0.58622 0.0951 0.88377 -0.2013 1.05995 -0.6694 2.05113 -1.36 2.88l-0.8 1 -1 1.34005 -1.35 1.81 -1.65 2.22c-0.3223 0.436 -0.6731 0.8502 -1.05 1.24 -0.3686 0.3852 -0.7854 0.7213 -1.24 1 -0.2669 0.138 -0.56022 0.2174 -0.8603 0.2329 -0.30007 0.0156 -0.60001 -0.0332 -0.87972 -0.1429 -0.26417 -0.0629 -0.49794 -0.2164 -0.66057 -0.4338 -0.16263 -0.2175 -0.24382 -0.4851 -0.22943 -0.7562 0.06687 -0.4562 0.23797 -0.8908 0.5 -1.27 0.42 -0.69 1 -1.35 1.36 -1.87 0.36 -0.52 0.85002 -1.23 1.31002 -1.82 0.3008 -0.3796 0.6355 -0.731 1 -1.05005 0.0521 -0.03336 0.0964 -0.07757 0.1299 -0.12963 0.0334 -0.05205 0.0553 -0.11071 0.064 -0.17197 0.0087 -0.06127 0.0041 -0.12369 -0.0135 -0.18301 -0.0177 -0.05932 -0.0479 -0.11414 -0.0886 -0.16071 -0.0408 -0.04657 -0.0911 -0.0838 -0.1475 -0.10914 -0.0565 -0.02534 -0.1178 -0.03819 -0.1796 -0.03769 -0.0619 0.00051 -0.123 0.01436 -0.179 0.04062 -0.056 0.02626 -0.1057 0.0643 -0.1457 0.11153 -0.3898 0.35838 -0.7478 0.74984 -1.07 1.17005 -0.46002 0.6 -0.88002 1.25 -1.31002 1.85 -0.43 0.6 -1 1.22 -1.39 1.94 -0.32462 0.4862 -0.53331 1.0404 -0.61 1.62 -0.03043 0.3653 0.04838 0.7315 0.22643 1.0519 0.17804 0.3205 0.44729 0.5809 0.77357 0.7481 0.43235 0.2504 0.9204 0.3889 1.41985 0.4029 0.49945 0.0139 0.99447 -0.0971 1.44017 -0.3229 0.4136 -0.2399 0.7993 -0.525 1.15 -0.85 0.5083 -0.4847 0.9765 -1.0098 1.4 -1.57l1.58 -2.2 1.39 -1.84 1 -1.30005 0.8 -1c0.7998 -0.9547 1.3435 -2.09721 1.58 -3.32 0.082 -0.46479 0.0262 -0.94341 -0.1603 -1.37694 -0.1866 -0.43353 -0.4958 -0.80304 -0.8897 -1.06306 -0.5899 -0.40747 -1.2464 -0.70867 -1.94 -0.89 -0.7252 -0.20946 -1.4948 -0.20946 -2.22 0 -0.2709 0.08798 -0.5271 0.21607 -0.76 0.38 -0.3 0.2 -0.59 0.45 -0.88 0.67 -0.7026 0.54063 -1.3491 1.15035 -1.93 1.82 -0.85 1 -1.60002 2.06 -2.35002 3.09l-1.43 2.07005c-0.3 0.45 -0.59 0.9 -0.87 1.36 -0.28 0.46 -0.53 0.93 -0.79 1.4 -0.78174 1.1951 -1.40684 2.4856 -1.86 3.84 -0.14662 0.5009 -0.17231 1.0295 -0.07496 1.5423 0.09735 0.5129 0.31496 0.9953 0.63496 1.4077 0.78645 0.955 1.82622 1.669 3 2.06 0.58715 0.2497 1.2207 0.3717 1.8586 0.3579 0.63791 -0.0138 1.26562 -0.1631 1.84142 -0.4379 0.3597 -0.2471 0.6946 -0.5284 1 -0.84 0.72 -0.7 1.45 -1.58 2 -2.16 0.55 -0.58 1.24 -1.39 1.84 -2.1 0.9 -1.07 1.76 -2.16 2.62 -3.25 0.4 -0.51 0.8 -1.05 1.22 -1.57 0.2658 -0.3287 0.5531 -0.6394 0.86 -0.93 0.0453 -0.0401 0.0824 -0.0886 0.1089 -0.143 0.0266 -0.0543 0.0422 -0.1134 0.0459 -0.1738 0.0037 -0.0603 -0.0045 -0.1208 -0.0242 -0.178 -0.0197 -0.0572 -0.0505 -0.11 -0.0906 -0.1552Z" stroke-width="1"></path>
  <path fill="#0c6fff" d="M2.43824 15.3711c0 0.19 -0.91 -0.19 -1.710001 0.23 -1.06 0.57 -0.85 -0.79 -0.09 -0.89 1.010001 -0.14 1.890001 0.23 1.800001 0.66Z" stroke-width="1"></path>
  <path fill="#0c6fff" d="M5.30827 8.8211c0.07 -0.19 -0.74 -0.71 -1.21 -1.49 -0.63 -1 -1.14 0.26 -0.53 0.73 0.8 0.63 1.6 1.17 1.74 0.76Z" stroke-width="1"></path>
  <path fill="#0c6fff" d="M9.75828 3.25107c-0.2 0 -0.13 -0.92 -0.81 -1.53 -0.89 -0.809999 0.46 -1.069999 0.82 -0.39 0.47002 0.9 0.42002 1.86 -0.01 1.92Z" stroke-width="1"></path>
  <path fill="#0c6fff" d="M13.4381 20.7508c-0.17 0.12 0.53 0.77 0.45 1.67 -0.11 1.2 1.06 0.47 0.86 -0.26 -0.28 -0.99 -0.96 -1.65 -1.31 -1.41Z" stroke-width="1"></path>
  <path fill="#0c6fff" d="M18.3383 15.551c0.15 -0.13 0.94 0.4 1.84 0.54 1.19 0.17 0.21 1.14 -0.46 0.77 -0.89 -0.49 -1.72 -1.02 -1.38 -1.31Z" stroke-width="1"></path>
  <path fill="#0c6fff" d="M21.558 9.05101c0 0.2 0.9 -0.22 1.72 0.18 1.08 0.53 0.82 -0.82 0.06 -0.9 -1.02 -0.1 -1.88 0.3 -1.78 0.72Z" stroke-width="1"></path>
</svg>