<svg xmlns="http://www.w3.org/2000/svg" fill="none" viewBox="0 0 24 24" id="Lists-Numbers--Streamline-Freehand">
  <desc>
    Lists Numbers Streamline Icon: https://streamlinehq.com
  </desc>
  <path fill="#020202" d="M2.32766 5.5476c0.19286 0.0148 0.38657 0.0148 0.57943 0 0.18968 0.00995 0.37976 0.00995 0.56944 0 0.45321 -0.04398 0.90351 -0.11402 1.34867 -0.20979 0.08573 0.00004 0.16811 -0.03332 0.22965 -0.093 0.06155 -0.05968 0.09743 -0.14099 0.10002 -0.22668 -0.00129 -0.04462 -0.01136 -0.08853 -0.02964 -0.12925 -0.01827 -0.04072 -0.04439 -0.07743 -0.07686 -0.10805 -0.03248 -0.03062 -0.07066 -0.05454 -0.11238 -0.07039 -0.04173 -0.01585 -0.08616 -0.02332 -0.13077 -0.02199 -0.41959 0 -0.81919 -0.11988 -1.23878 -0.17982 0.08088 -0.38611 0.14091 -0.77629 0.17982 -1.16885 0.05994 -0.54946 0.07993 -1.09891 0.11989 -1.60841 0.02346 -0.37774 -0.00003 -0.756931 -0.06994 -1.128886 -0.06165 -0.215448 -0.20505 -0.39828 -0.3996 -0.5094968C3.3084 0.0324198 3.20391 0 3.0969 0c-0.107 0 -0.21149 0.0324198 -0.2997 0.0929872L2.46753 0.462622 1.25872 1.65145c-0.03149 0.02361 -0.05801 0.0532 -0.07807 0.08706 -0.02005 0.03387 -0.03323 0.07136 -0.0388 0.11032 -0.00557 0.03896 -0.0034 0.07864 0.00636 0.11676 0.00977 0.03813 0.02695 0.07396 0.05057 0.10544 0.02361 0.03149 0.0532 0.05802 0.08706 0.07807 0.03387 0.02005 0.07135 0.03324 0.11032 0.0388 0.03896 0.00557 0.07864 0.00341 0.11676 -0.00636 0.03813 -0.00977 0.07396 -0.02695 0.10544 -0.05056l1.15886 -0.71929v3.037c-0.14635 -0.00999 -0.29321 -0.00999 -0.43957 0 -0.45954 0 -0.87913 0.12987 -1.32868 0.18981 -0.039697 -0.00274 -0.079529 0.00272 -0.117018 0.01604 -0.037489 0.01333 -0.071832 0.03423 -0.100888 0.06141 -0.029055 0.02719 -0.0522 0.06006 -0.067993 0.09658 -0.015793 0.03652 -0.023894 0.0759 -0.0238 0.11568 -0.004511 0.04223 0.000316 0.08493 0.014138 0.12509 0.013823 0.04015 0.036305 0.07677 0.065853 0.10727 0.029548 0.03051 0.065439 0.05414 0.105134 0.06923 0.039695 0.01509 0.082222 0.02127 0.124574 0.0181 0.44955 0.0999 0.86914 0.22977 1.31869 0.2997Z" stroke-width="1"></path>
  <path fill="#020202" d="M2.36765 14.5188c0.5792 -0.0465 1.13018 -0.2697 1.57844 -0.6394 0.22977 0.1798 0.45954 0.3696 0.69931 0.5295 0.03531 0.0278 0.0758 0.0483 0.1191 0.0604 0.04331 0.012 0.08858 0.0153 0.13318 0.0098 0.04461 -0.0056 0.08766 -0.02 0.12667 -0.0423 0.03901 -0.0224 0.07319 -0.0522 0.10057 -0.0879 0.05255 -0.0735 0.07462 -0.1644 0.06158 -0.2538 -0.01303 -0.0894 -0.06016 -0.1703 -0.13151 -0.2257 -0.21978 -0.1798 -0.41958 -0.3696 -0.62938 -0.5594 0.18612 -0.3054 0.30846 -0.6452 0.35965 -0.9991 0.08484 -0.7358 -0.029 -1.4809 -0.32968 -2.1578 -0.10781 -0.25165 -0.2601 -0.48177 -0.44955 -0.67936 -0.17702 -0.20244 -0.39958 -0.35994 -0.64936 -0.45955 -0.21759 -0.09584 -0.45638 -0.13334 -0.69287 -0.10882 -0.23649 0.02453 -0.46251 0.11023 -0.6558 0.24868 -0.17778 0.12432 -0.32745 0.28461 -0.43931 0.47048 -0.11186 0.18587 -0.18343 0.39317 -0.21005 0.60847 -0.00981 0.04 -0.01128 0.0816 -0.0043 0.1222s0.02225 0.0793 0.04487 0.1137c0.02261 0.0345 0.05208 0.0639 0.08656 0.0864 0.03449 0.0225 0.07325 0.0377 0.11386 0.0446 0.04061 0.0069 0.08221 0.0053 0.12219 -0.0046 0.03998 -0.0099 0.07749 -0.028 0.11019 -0.053 0.03269 -0.0251 0.05987 -0.0566 0.07984 -0.0926 0.01997 -0.036 0.03229 -0.0758 0.03621 -0.1168 0.02875 -0.1232 0.08264 -0.2392 0.15827 -0.34059 0.07564 -0.10143 0.1714 -0.18614 0.2813 -0.24884 0.09507 -0.05159 0.20152 -0.07861 0.30969 -0.07861 0.10817 0 0.21462 0.02702 0.30969 0.07861 0.13001 0.07094 0.24262 0.1699 0.32968 0.28973 0.09546 0.1329 0.1665 0.2817 0.20979 0.4396 0.14149 0.4414 0.19246 0.9069 0.14985 1.3686 -0.02092 0.2781 -0.09556 0.5495 -0.21978 0.7992 -0.29208 -0.1181 -0.60406 -0.1791 -0.91909 -0.1798 -0.19574 0.0021 -0.39044 0.0289 -0.57943 0.0799 -0.20578 0.0502 -0.40166 0.1346 -0.57943 0.2498 -0.14636 0.0985 -0.26916 0.2281 -0.35964 0.3796 -0.041546 0.0856 -0.06313 0.1795 -0.06313 0.2747s0.021584 0.1891 0.06313 0.2747c0.10868 0.2565 0.29578 0.472 0.53447 0.6156 0.23869 0.1435 0.51672 0.2078 0.79422 0.1837Z" stroke-width="1"></path>
  <path fill="#020202" d="m4.67539 20.2431 -0.08991 -0.0799c0.10786 -0.1144 0.19567 -0.2461 0.25974 -0.3896 0.07858 -0.1866 0.11906 -0.387 0.11906 -0.5894 0 -0.2025 -0.04048 -0.4029 -0.11906 -0.5895 -0.08506 -0.2284 -0.21831 -0.4359 -0.39069 -0.6083 -0.17239 -0.1724 -0.37986 -0.3056 -0.60832 -0.3907 -0.31299 -0.093 -0.6421 -0.1188 -0.96576 -0.0758 -0.32367 0.0431 -0.63459 0.154 -0.91239 0.3256 -0.19418 0.1021 -0.37817 0.2225 -0.54946 0.3596 -0.13815 0.1226 -0.24443 0.2768 -0.30969 0.4496 -0.01429 0.0373 -0.02097 0.0772 -0.01963 0.1171 0.00134 0.04 0.01066 0.0793 0.02742 0.1156 0.01675 0.0363 0.04061 0.0689 0.07015 0.0958 0.02955 0.027 0.06419 0.0477 0.10188 0.0611 0.03735 0.0143 0.07718 0.021 0.11714 0.0196 0.03997 -0.0013 0.07926 -0.0106 0.11557 -0.0274 0.03631 -0.0168 0.0689 -0.0406 0.09584 -0.0702 0.02695 -0.0295 0.04771 -0.0641 0.06107 -0.1018 0.04325 -0.09 0.11785 -0.161 0.20979 -0.1998 0.12712 -0.0754 0.26088 -0.1389 0.3996 -0.1898 0.31256 -0.1425 0.66163 -0.1844 0.99902 -0.1199 0.13604 0.0412 0.25821 0.1188 0.3533 0.2245 0.09509 0.1056 0.15947 0.2353 0.18617 0.3749 0.03958 0.0665 0.06048 0.1424 0.06048 0.2198 0 0.0773 -0.0209 0.1533 -0.06048 0.2197 -0.17994 0.1682 -0.39488 0.2944 -0.62938 0.3697 -0.08608 0.0362 -0.16151 0.0937 -0.2192 0.1671 -0.05768 0.0734 -0.0957 0.1603 -0.11048 0.2525 -0.0203 0.0954 -0.01531 0.1944 0.01448 0.2873 0.02979 0.0929 0.08335 0.1764 0.15535 0.2421 0.3097 0.2998 0.99902 0.09 1.26875 0.9291 0.08047 0.1819 0.10482 0.3837 0.06993 0.5795 -0.07482 0.2348 -0.21349 0.4442 -0.4005 0.6047 -0.18701 0.1606 -0.41499 0.266 -0.65845 0.3044 -0.26098 0.0847 -0.53783 0.109 -0.80957 0.0709 -0.27175 -0.0381 -0.53126 -0.1375 -0.75888 -0.2907 -0.06367 -0.0635 -0.14989 -0.0991 -0.23977 -0.0991 -0.08988 0 -0.1761 0.0356 -0.23976 0.0991 -0.06407 0.0653 -0.09995 0.1532 -0.09995 0.2447 0 0.0916 0.03588 0.1794 0.09995 0.2448 0.30322 0.2479 0.65748 0.4257 1.03743 0.5207 0.37995 0.095 0.7762 0.1048 1.1604 0.0288 0.41922 -0.0479 0.81718 -0.2102 1.15023 -0.4693 0.33306 -0.259 0.58836 -0.6047 0.73791 -0.9993 0.13124 -0.4025 0.13124 -0.8363 0 -1.2388 -0.13058 -0.389 -0.36558 -0.7346 -0.67933 -0.999Z" stroke-width="1"></path>
  <path fill="#0c6fff" d="M22.9873 2.02108c-1.7683 -0.15984 -3.5465 -0.28972 -5.3347 -0.29971 -1.069 0 -2.1379 0 -3.2069 0.09991 -0.7093 0.04995 -1.4186 0.13986 -2.1279 0.21978 -0.7093 0.07992 -1.6384 0 -2.45756 0.07992 -0.37531 0.00654 -0.74948 0.04329 -1.11889 0.10989 -0.07878 0.01465 -0.14881 0.05927 -0.19538 0.12447s-0.06606 0.14592 -0.05437 0.22519c0.01462 0.07682 0.05776 0.14527 0.12077 0.19159 0.063 0.04633 0.1412 0.06711 0.21889 0.05816 0.33238 -0.02881 0.66663 -0.02881 0.99901 0 0.84913 0.04995 1.69833 0.1998 2.54753 0.17982h1.4785c0.7293 0 1.4686 0 2.2078 -0.07992 1.2388 -0.04995 2.4676 -0.11988 3.6964 -0.14985 1.0589 0 2.1179 -0.04995 3.1768 0 0.0885 0.00275 0.1745 -0.02911 0.2398 -0.08882 0.0653 -0.0597 0.1047 -0.14253 0.1099 -0.23087 0.0152 -0.04884 0.0191 -0.10048 0.0116 -0.15107 -0.0076 -0.05058 -0.0265 -0.09881 -0.0553 -0.14107 -0.0288 -0.04226 -0.0668 -0.07747 -0.1112 -0.10299 -0.0443 -0.02553 -0.0938 -0.04072 -0.1448 -0.04443Z" stroke-width="1"></path>
  <path fill="#0c6fff" d="M8.35179 12.0113H10.15c1.3787 -0.06 2.7373 -0.1999 4.116 -0.2098 0.8191 0 1.6383 -0.06 2.4575 -0.08 0.8192 -0.0199 1.6384 -0.0799 2.4576 -0.0899h3.2768c0.0911 0.0056 0.1808 -0.0248 0.2499 -0.0845 0.0691 -0.0598 0.112 -0.1442 0.1197 -0.2352 0.0027 -0.0446 -0.0034 -0.0893 -0.018 -0.1315 -0.0147 -0.0423 -0.0375 -0.0812 -0.0672 -0.1147 -0.0297 -0.0334 -0.0657 -0.0606 -0.1059 -0.0801 -0.0403 -0.0194 -0.084 -0.0308 -0.1286 -0.0333 -1.6484 -0.1898 -3.3067 -0.3297 -4.9951 -0.3596 -1.1089 0 -2.2178 0 -3.3267 0.0599 -1.5784 0.1598 -3.1269 0.4795 -4.69534 0.6494 -0.38961 0.0499 -0.76924 0.0799 -1.15885 0.0999 -0.07949 0 -0.15572 0.0315 -0.21192 0.0877 -0.05621 0.0562 -0.08779 0.1325 -0.08779 0.212 0 0.0794 0.03158 0.1557 0.08779 0.2119 0.0562 0.0562 0.13243 0.0878 0.21192 0.0878l0.01998 0.01Z" stroke-width="1"></path>
  <path fill="#0c6fff" d="M22.8275 19.2541c-0.2779 -0.0405 -0.5584 -0.0606 -0.8392 -0.0599h-1.8482c-1.2288 0 -2.4576 -0.08 -3.6863 0 -1.2288 0.0799 -2.4576 0.1798 -3.6864 0.3196l-2.7673 0.3996c-0.33117 0.0475 -0.66464 0.0775 -0.99899 0.09 -0.18862 0.03 -0.38081 0.03 -0.56943 0 -0.03739 -0.0126 -0.07688 -0.0176 -0.11621 -0.0148 -0.03933 0.0027 -0.07773 0.0132 -0.113 0.0309 -0.03526 0.0176 -0.0667 0.042 -0.09251 0.0718 -0.02582 0.0298 -0.04549 0.0644 -0.05791 0.1019 -0.01231 0.038 -0.0169 0.0781 -0.01348 0.1179 0.00342 0.0399 0.01478 0.0786 0.0334 0.114 0.01861 0.0353 0.04412 0.0666 0.07501 0.092 0.0309 0.0254 0.06655 0.0443 0.10487 0.0557 0.24159 0.0829 0.49402 0.13 0.74926 0.1399 0.33274 0.0187 0.66628 0.0187 0.99899 0l2.7873 -0.1699 7.2728 -0.4196c0.6094 0 1.2388 -0.1099 1.8682 -0.1398 0.2493 -0.02 0.4999 -0.02 0.7492 0 0.0913 0.0084 0.1821 -0.0194 0.2531 -0.0773 0.071 -0.0579 0.1165 -0.1414 0.1265 -0.2324 0.0248 -0.0861 0.0146 -0.1785 -0.0285 -0.2571 -0.043 -0.0786 -0.1153 -0.137 -0.2012 -0.1625Z" stroke-width="1"></path>
</svg>