<svg xmlns="http://www.w3.org/2000/svg" fill="none" viewBox="0 0 24 24" id="Login-Logout-Key--Streamline-Freehand">
  <desc>
    Login Logout Key Streamline Icon: https://streamlinehq.com
  </desc>
  <path fill="#0c6fff" fill-rule="evenodd" d="M6.90706 17.6813c-.29161-.3694-.69415-.6355-1.14835-.7589-.3291-.0882-.67323-.1052-1.00943-.0498-.33619.0553-.65673.1817-.94022.3707-.2835.189-.52343.4362-.70381.7253-.18037.289-.29704.6132-.34221.9509-.05936.5611.08717 1.1246.41231 1.5857.32513.461.80673.7883 1.35514.9207.51973.148 1.07499.108 1.56812-.113.49313-.221.89254-.6088 1.12798-1.0952.06839-.1417.12516-.2886.16976-.4394.07589-.3641.07143-.7403-.01308-1.1025-.08451-.3622-.24703-.7016-.47621-.9945Zm-.08987 1.8673c-.04434.1091-.09434.2157-.14979.3196-.18504.3111-.47264.548-.8134.6701-.34076.1221-.7134.1217-1.0539-.0011-.31968-.0963-.59511-.3024-.77777-.5819-.18267-.2794-.26086-.6144-.22079-.9459.0265-.1996.09436-.3916.19924-.5635.10488-.172.24448-.3201.40988-.435.16807-.131.36078-.2268.56665-.2816.20586-.0549.42067-.0678.63162-.038.31919.0471.61398.198.83879.4294.69899.7289.42938 1.2881.36947 1.4279Z" clip-rule="evenodd"></path>
  <path fill="#020202" fill-rule="evenodd" d="M19.0995 8.88403c-.1098-.49928-.4193-1.61767-.5292-1.99712.1874-.61547.3342-1.24258.4394-1.87729.0945-.49816.0945-1.00966 0-1.50782-.0164-.06495-.0453-.12604-.0853-.17977-.04-.05374-.0901-.09906-.1476-.13338-.0575-.03432-.1213-.05696-.1875-.06662-.0663-.00966-.1338-.00616-.1987.0103l-.3595.09986c-.8388.26961-2.9058.99856-3.1155 1.14834-.9539.87719-1.8542 1.81085-2.6961 2.79596-1.8074 1.99712-4.12406 4.66331-5.6219 6.36081-.73304-.1337-1.48525-.1213-2.21351.0363-.72825.1577-1.41823.4575-2.03036.8824-.6348.4162-1.17101.9661-1.571165 1.6112-.40015.6451-.654577 1.3698-.745494 2.1234-.0854385.6923-.0227922 1.3948.183788 2.061.206581.6662.552378 1.2809 1.014481 1.8034.93413 1.0341 2.2185 1.6852 3.6048 1.8274.06844.0058.13652-.0148.19033-.0574.05382-.0427.08932-.1043.09925-.1723.00564-.0343.00405-.0695-.00469-.1032-.00874-.0337-.02443-.0652-.04605-.0924-.02163-.0273-.04872-.0497-.07953-.0659-.03082-.0162-.06467-.0258-.0994-.0281-1.23402-.1562-2.36764-.7603-3.1854-1.6975-.40038-.4611-.69679-1.003-.869096-1.5888-.172304-.5858-.216459-1.2019-.129463-1.8063.092241-.6442.322999-1.2608.676389-1.8072.35338-.5465.821-1.0099 1.37066-1.3583.53569-.3623 1.13941-.6119 1.77453-.7338.63512-.1219 1.28838-.1134 1.92013.0249h.15977c.06941.0225.14342.0271.21506.0131.07163-.014.13852-.046.19435-.093 1.51781-1.6676 3.99422-4.40366 5.88152-6.4507.78-.90764 1.6066-1.77422 2.4764-2.59625.1798-.10985 1.7575-.67902 2.6462-.99856 0 .17974 0 .37945-.0699.56918-.0979.62455-.238 1.24174-.4194 1.84733-.025.09491-.025.19467 0 .28958 0 0 .3695 1.26817.5292 1.9372l-.0599.08987h-1.6276c-.1953.0069-.3823.08096-.5293.2097-.1027.12678-.1728.27682-.2042.43697-.0313.16015-.0229.32555.0245.48168.1161.4139.2561.8207.4194 1.2183 0 .0898.0599.2097.0799.2995-.0647.0259-.1315.046-.1997.0599-.485-.0116-.9687-.0549-1.4479-.1298-.1031-.0071-.2065-.0071-.3096 0-.0938.0013-.1846.0332-.2585.0909-.0739.0577-.1269.138-.1509.2287-.0285.145-.0285.2943 0 .4393.0899.4394.3395 1.378.4194 1.9173-.1827-.02-.3632-.0568-.5392-.1099-.739-.1997-1.5178-.5592-1.6576-.5492-.1974.049-.375.157-.5093.3096-.4294.4194-1.3081 1.388-2.05704 2.2268-.04336.0632-.06657.138-.06657.2146 0 .0767.02321.1515.06657.2147.16448.2686.30164.5529.40941.8488.11337.2852.20353.5791.26963.8787l.0699.739c-.0213.3264-.0851.6487-.1897.9586-.10242.3171-.23275.6246-.38948.9187-.29937.5545-.69888 1.0488-1.1783 1.4579-.47701.404-1.03561.7003-1.63764.8687-.03803.0105-.07362.0284-.10474.0526-.03111.0243-.05715.0544-.07663.0887-.01947.0343-.03199.0721-.03685.1113-.00486.0391-.00197.0788.00852.1169.01049.038.02837.0736.05262.1047.02424.0311.05438.0572.08869.0766.03431.0195.07211.032.11126.0369.03915.0049.07887.002.1169-.0085.68883-.1976 1.32842-.5378 1.87729-.9986.5454-.4513 1.00246-.9998 1.34806-1.6177.1838-.3178.3376-.6521.4593-.9985.1162-.3927.1799-.7989.1898-1.2083l-.0699-.7788c-.1216-.6065-.323-1.1941-.5992-1.7475.699-.7589 1.4679-1.5877 1.8673-1.9971l.0599-.05.1398.05c.4838.2175.9848.3945 1.4979.5292.3275.0846.6711.0846.9985 0 .1102-.046.1992-.1315.2497-.2397.0336-.1512.0336-.308 0-.4593 0-.4094-.2297-1.2182-.3495-1.7874.2596 0 .5891.0799.8887.0998.229.0386.4635.0293.6886-.0274.2252-.0568.4361-.1596.6195-.3021.0862-.1293.1411-.277.1601-.4313.0191-.1543.0019-.3109-.0503-.4574-.0798-.3495-.2795-.7988-.3994-1.1883-.0282-.081-.0483-.1646-.0599-.24962h1.6976c.1628-.00766.3215-.05316.4637-.13289.1421-.07974.2637-.19151.3551-.32644.0933-.18851.1248-.40169.0898-.60912Z" clip-rule="evenodd"></path>
  <g clip-path="url(#a)">
    <path fill="#0c6fff" d="M11.4406 5.1095c.2197 0 .5792-1.16832 1.3281-1.83735s1.3581-.64906 1.398-.93865c.1897-1.16831-1.7974-.25962-2.2767.47931-.4793.73894-.729 2.2168-.4494 2.29669Z"></path>
    <path fill="#0c6fff" d="M9.90287 4.58024c.07312-.02271.13733-.06758.18393-.1284.0465-.06083.0729-.13459.0757-.21111-.0212-.77724.0834-1.55279.3095-2.29668C11.0312.905544 12.3893.516107 12.2994.246496c-.1598-.51925-2.2168.60912-2.57627 1.867304-.27959.93864-.1398 2.52635.17974 2.46644Z"></path>
  </g>
  <path fill="#0c6fff" d="M20.0083 10.7214c-.1398-.1597.679-1.11836.8388-2.10694.1897-1.16831-.1798-1.49783 0-1.68756.8887-.77887 1.1883 1.37801.8288 2.17686-.3595.79885-1.5178 1.83734-1.6676 1.61764Z"></path>
  <path fill="#0c6fff" d="M21.2065 11.7499c-.0158-.0724-.0101-.1479.0165-.2171.0267-.0692.073-.1291.1333-.1723.4493-.3695 1.4279-.8887 1.7674-1.50784.5792-.99856.1698-2.38655.4494-2.45645.5192-.12981.679 2.19683-.1798 3.17539-.649.7489-2.077 1.428-2.1868 1.1783Z"></path>
  <defs>
    <clipPath id="a">
      <path fill="#ffffff" d="M0 0h4.603v4.953H0z" transform="translate(9.583 .117)"></path>
    </clipPath>
  </defs>
</svg>