<svg xmlns="http://www.w3.org/2000/svg" fill="none" viewBox="0 0 24 24" id="Search-Magnifier--Streamline-Freehand">
  <desc>
    Search Magnifier Streamline Icon: https://streamlinehq.com
  </desc>
  <path fill="#020202" d="M16.1952 8.05092c-0.1789 -0.9786 -0.609 -1.89392 -1.2482 -2.65625 -0.1897 -0.22968 -0.3894 -0.4993 -0.6191 -0.72898 -0.1672 -0.17504 -0.3631 -0.32026 -0.5792 -0.42939 -0.0751 -0.03803 -0.1616 -0.04682 -0.2428 -0.02468s-0.1512 0.07364 -0.1966 0.14451h-0.1298c-0.9986 0.57918 -1.9972 1.19831 -2.9159 1.85738 -0.46933 0.32954 -0.93867 0.65907 -1.39802 0.99859L7.52747 8.34051c-0.68903 0.60914 -1.418 1.22827 -2.08706 1.89729 -0.30956 0.3096 -0.59915 0.6291 -0.87876 0.9986 -0.1547 -0.5346 -0.20221 -1.0946 -0.1398 -1.64765 0.28862 -1.67274 1.08327 -3.21674 2.27679 -4.42376 0.32935 -0.3211 0.71532 -0.57841 1.13839 -0.75893 0.59833 -0.21847 1.23041 -0.33002 1.86737 -0.32953 1.0089 -0.00223 2.0145 0.11509 2.9958 0.3495 0.069 0.00477 0.1376 -0.01451 0.194 -0.05456 0.0564 -0.04004 0.0972 -0.09839 0.1155 -0.16513 0.0184 -0.07804 0.0058 -0.16017 -0.0352 -0.22908 -0.041 -0.06892 -0.1071 -0.11925 -0.1845 -0.1404 -1.0143 -0.27385 -2.0559 -0.43461 -3.10557 -0.47932 -0.72843 -0.02631 -1.45565 0.07854 -2.14697 0.30956 -2.127 0.74895 -3.92447 3.79465 -4.20407 5.79183 -0.12584 1.06047 0.04348 2.13517 0.48931 3.10567 0.44242 0.955 1.11493 1.7854 1.95724 2.4165 0.47792 0.3465 1.01643 0.6005 1.58776 0.749 0.53703 0.1498 1.09034 0.2337 1.64767 0.2496 1.55563 0.031 3.08183 -0.4265 4.36383 -1.3081 1.2904 -0.8722 2.2229 -2.1805 2.6263 -3.6848 0.2708 -0.9541 0.3355 -1.95488 0.1897 -2.93588ZM4.8812 12.0453c-0.02753 -0.0548 -0.0509 -0.1115 -0.0699 -0.1698 0.37992 -0.3657 0.78356 -0.706 1.2083 -1.0185 0.72897 -0.5792 1.49788 -1.09849 2.23684 -1.62774 0.73896 -0.52926 1.25823 -0.99859 1.86736 -1.4879 0.6091 -0.48931 1.2083 -0.9986 1.8274 -1.52785 0.6192 -0.52925 1.0585 -0.83882 1.5978 -1.21828 0.0847 0.06414 0.1648 0.13422 0.2396 0.2097 0.1998 0.21969 0.3795 0.47933 0.5493 0.69902 0.4793 0.5818 0.8207 1.2646 0.9986 1.99718 -1.0586 0.64908 -2.137 1.23825 -3.1955 1.87735 -0.7845 0.46302 -1.5444 0.96632 -2.27683 1.50792 -1.15599 0.8863 -2.21685 1.8903 -3.16553 2.9957l-0.21969 -0.1298c-0.69787 -0.5438 -1.24738 -1.2547 -1.59775 -2.0671v-0.0399Zm10.2655 -1.3481c-0.3753 1.2769 -1.2023 2.3736 -2.3267 3.0856 -1.1145 0.7131 -2.4231 1.062 -3.74471 0.9986 -0.47267 -0.0061 -0.94256 -0.0732 -1.39803 -0.1997 -0.12982 0 -0.24965 -0.0899 -0.36948 -0.1298 0.44937 -0.3895 0.89873 -0.749 1.36807 -1.0985 0.46934 -0.3495 0.99859 -0.659 1.46795 -0.9986l1.4779 -0.9985c1.2915 -0.8855 2.5597 -1.79751 3.8046 -2.73618 0.0318 0.71661 -0.0629 1.43318 -0.2796 2.11698v-0.0399Z" stroke-width="1"></path>
  <path fill="#0c6fff" d="M23.2453 20.5533c-0.04 -0.2181 -0.1002 -0.4321 -0.1798 -0.6391 -0.136 -0.3547 -0.3172 -0.6903 -0.5392 -0.9986 -0.3034 -0.4388 -0.6371 -0.8559 -0.9986 -1.2482 -0.5285 -0.5741 -1.0957 -1.1113 -1.6976 -1.6078 -0.8288 -0.679 -1.6976 -1.2981 -2.5764 -1.9971 0.2632 -0.5055 0.4804 -1.0335 0.6491 -1.5778 0.248 -0.8172 0.4349 -1.6516 0.5592 -2.4965 0.1568 -0.81258 0.2304 -1.63902 0.2197 -2.46652 -0.0078 -0.57747 -0.1055 -1.1502 -0.2896 -1.6976 -0.1575 -0.4947 -0.3477 -0.97841 -0.5692 -1.44796 -0.1562 -0.33202 -0.347 -0.64665 -0.5692 -0.93868 -0.378 -0.48797 -0.8216 -0.92146 -1.3181 -1.28818 -0.7357 -0.52062 -1.5301 -0.95298 -2.3667 -1.288183 -0.5827 -0.254108 -1.1835 -0.464396 -1.7974 -0.629112 -0.6518 -0.1693231 -1.324 -0.246631 -1.99723 -0.22967613C8.94603 0.0473495 8.12868 0.212165 7.34769 0.491599c-0.7673 0.278516 -1.50628 0.629611 -2.20688 1.048521 -0.60025 0.33964 -1.16553 0.73768 -1.68762 1.18832C1.21634 4.69567 0.756992 8.98961 0.727035 9.45895c-0.106942 1.26975 0.077493 2.54715 0.539235 3.73475 0.12146 0.3013 0.26153 0.5948 0.41941 0.8787 0.22968 0.3995 0.48931 0.7889 0.75893 1.1784 0.5038 0.7726 1.12352 1.463 1.83741 2.0471 0.49826 0.396 1.06292 0.7003 1.66765 0.8987 0.69046 0.2254 1.39861 0.3924 2.11701 0.4993 0.49142 0.0823 0.99015 0.1124 1.4879 0.0899 0.77442 -0.05 1.53942 -0.1977 2.27682 -0.4394 0.7156 -0.2507 1.4101 -0.5579 2.077 -0.9187 0.1352 0.1597 0.2618 0.3264 0.3795 0.4993 0.4294 0.6591 0.7689 1.3681 1.1684 1.9972 0.2809 0.4341 0.5877 0.851 0.9187 1.2482 0.3126 0.3904 0.6459 0.7638 0.9986 1.1184 0.971 0.9019 2.1935 1.4871 3.505 1.6777 0.262 0.0471 0.5307 0.0413 0.7904 -0.0169 0.2597 -0.0582 0.5051 -0.1678 0.7219 -0.3222 0.2168 -0.1544 0.4005 -0.3506 0.5403 -0.5771 0.1399 -0.2264 0.2331 -0.4785 0.2741 -0.7415 0.0405 -0.1745 0.0705 -0.3512 0.0899 -0.5292 0.0097 -0.1763 0.0097 -0.353 0 -0.5293 0.0036 -0.234 -0.0131 -0.4679 -0.0499 -0.699Zm-1.1584 1.4679c-0.0509 0.2532 -0.1979 0.4768 -0.4102 0.6239 -0.2123 0.1471 -0.4733 0.2062 -0.7282 0.165 -1.0468 -0.1308 -2.0325 -0.5647 -2.836 -1.2482 -0.3522 -0.313 -0.6856 -0.6464 -0.9986 -0.9986 -0.3312 -0.341 -0.6382 -0.7047 -0.9187 -1.0885 -0.4394 -0.6191 -0.8388 -1.3081 -1.2982 -1.9372 -0.1219 -0.1597 -0.2518 -0.313 -0.3894 -0.4594l0.1298 -0.0899c0.2213 -0.1586 0.4315 -0.3321 0.6291 -0.5192 0.0618 -0.0665 0.0961 -0.1539 0.0961 -0.2447 0 -0.0908 -0.0343 -0.1782 -0.0961 -0.2447 -0.0636 -0.0634 -0.1498 -0.099 -0.2396 -0.099 -0.0899 0 -0.1761 0.0356 -0.2397 0.099 -0.1708 0.1582 -0.3546 0.3018 -0.5492 0.4294 -0.1917 0.1358 -0.3918 0.2592 -0.5992 0.3695 -0.6446 0.3275 -1.3121 0.6078 -1.9972 0.8388 -0.6936 0.2123 -1.412 0.3332 -2.13695 0.3595 -0.55091 0.0138 -1.10132 -0.0432 -1.63769 -0.1697 -0.5569 -0.1063 -1.10451 -0.2566 -1.63769 -0.4494 -0.62749 -0.2261 -1.19946 -0.5835 -1.67763 -1.0485 -0.49431 -0.4831 -0.93003 -1.0228 -1.29817 -1.6077 -0.22968 -0.3595 -0.46934 -0.719 -0.67904 -1.1185 -0.13067 -0.2462 -0.24735 -0.4996 -0.34951 -0.7589 -0.38354 -1.05 -0.52354 -2.1734 -0.40942 -3.28536 0.45935 -5.29254 3.14556 -6.55076 3.91448 -6.99014 0.63297 -0.38101 1.30193 -0.69877 1.99718 -0.94867 0.6757 -0.25505 1.38606 -0.40655 2.10703 -0.44936 0.56141 -0.01552 1.12241 0.04495 1.66761 0.17975 0.5644 0.13703 1.1183 0.31389 1.6577 0.52925 0.6401 0.2469 1.2581 0.54755 1.8474 0.89873 0.5688 0.32061 1.076 0.7399 1.4979 1.23825 0.1894 0.23504 0.3534 0.48943 0.4893 0.75893 0.2208 0.42872 0.411 0.87254 0.5692 1.32813 0.1632 0.46345 0.2606 0.94748 0.2896 1.43797 0.0241 0.77857 -0.026 1.55767 -0.1498 2.32672 -0.0854 0.6722 -0.2088 1.3389 -0.3695 1.9972 -0.161 0.6599 -0.3954 1.2996 -0.699 1.9073 -0.1609 0.3485 -0.3513 0.6826 -0.5692 0.9986 -0.2144 0.3034 -0.455 0.5874 -0.719 0.8488 -0.0288 0.0275 -0.052 0.0605 -0.0681 0.097 -0.0161 0.0364 -0.0249 0.0757 -0.0258 0.1156 -0.0019 0.0805 0.0283 0.1585 0.0839 0.2168 0.0556 0.0582 0.1321 0.092 0.2127 0.0939 0.0805 0.0019 0.1585 -0.0283 0.2167 -0.0839 0.2935 -0.2844 0.564 -0.5916 0.8089 -0.9187 0.1098 -0.1498 0.1997 -0.3096 0.2996 -0.4694 0.8088 0.6791 1.6177 1.3182 2.3866 1.9972 0.5434 0.4957 1.0506 1.0297 1.5178 1.5978 0.3134 0.3747 0.6035 0.7682 0.8688 1.1783 0.1585 0.2534 0.2859 0.525 0.3795 0.8088 0.0505 0.1638 0.0905 0.3305 0.1198 0.4993 0.0099 0.1597 0.0099 0.3197 0 0.4794l-0.0599 0.8088Z" stroke-width="1"></path>
</svg>