<svg xmlns="http://www.w3.org/2000/svg" fill="none" viewBox="0 0 24 24" id="Settings-Wrench-Double--Streamline-Freehand">
  <desc>
    Settings Wrench Double Streamline Icon: https://streamlinehq.com
  </desc>
  <path fill="#020202" fill-rule="evenodd" d="M10.5894 17.0129c0.9302 -1.0001 2.0004 -2.3204 3.0606 -3.5506 1.0602 -1.2303 2.2704 -2.7105 3.0006 -3.58071 0.4579 0.20131 0.9434 0.33281 1.4403 0.39011 0.6483 0.0633 1.3025 -0.0257 1.9103 -0.2601 0.7354 -0.2727 1.4137 -0.67968 2.0004 -1.20021 0.5775 -0.50508 1.0529 -1.11623 1.4003 -1.80034 0.1551 -0.36269 0.1936 -0.76468 0.11 -1.15022 -0.155 -0.70942 -0.4325 -1.38637 -0.8202 -2.00037 -0.1138 -0.20149 -0.2408 -0.39528 -0.38 -0.58011 -0.033 -0.04639 -0.0698 -0.08989 -0.1101 -0.13003 -0.0827 -0.06917 -0.1872 -0.10707 -0.295 -0.10707 -0.1079 0 -0.2123 0.0379 -0.2951 0.10707 0 0 -1.2402 1.44027 -2.1604 2.37045l-0.1 0.10002 -1.7903 0.24004c0 -1.78033 -0.0801 -1.73032 1.8103 -4.34082 0.078 -0.10274 0.145 -0.21337 0.2 -0.33006 0.0267 -0.04721 0.043 -0.09959 0.0478 -0.15361 0.0048 -0.05403 -0.0021 -0.108451 -0.0201 -0.159613 -0.018 -0.051161 -0.0467 -0.097878 -0.0843 -0.13701 -0.0375 -0.039133 -0.083 -0.069775 -0.1334 -0.089868C18.3069 0.19735 17.104 0.154644 16.0005 0.529826c-0.5673 0.167889 -1.0903 0.459501 -1.5313 0.853834 -0.4411 0.39433 -0.7892 0.88156 -1.0192 1.4266 -0.2254 0.75166 -0.3168 1.53711 -0.2701 2.32044 0.0407 0.69561 0.221 1.37592 0.5301 2.00037L7.13878 14.2924c-0.46946 -0.1924 -0.96501 -0.3138 -1.47028 -0.36 -0.62008 -0.0438 -1.2421 0.0519 -1.82034 0.28 -0.71598 0.2756 -1.37409 0.6827 -1.94037 1.2002 -0.564 0.5228 -1.019433 1.1515 -1.340253 1.8504 -0.390074 0.8101 0.230044 2.2604 0.750143 3.1006 0.14104 0.2482 0.30513 0.4826 0.49009 0.7001 0.08089 0.0731 0.18603 0.1136 0.29506 0.1136 0.10902 0 0.21416 -0.0405 0.29505 -0.1136 0 0 1.16022 -1.3803 2.13041 -2.3804l0.08001 -0.0901 1.68032 -0.24v1.7703l-0.08002 0.1101c-0.38007 0.5401 -1.28024 1.7603 -1.66031 2.3304 -0.07622 0.1163 -0.14633 0.2365 -0.21004 0.3601 -0.03287 0.0679 -0.05142 0.1418 -0.05451 0.2171 -0.00308 0.0754 0.00936 0.1506 0.03656 0.2209 0.02721 0.0704 0.06859 0.1344 0.12157 0.1881 0.05299 0.0537 0.11645 0.0959 0.18644 0.124 1.14371 0.4343 2.40695 0.4343 3.55067 0 0.59097 -0.1919 1.13227 -0.512 1.58526 -0.9373 0.45296 -0.4253 0.80646 -0.9454 1.03526 -1.5232 0.1973 -0.7532 0.2649 -1.5345 0.2 -2.3104 -0.0235 -0.6494 -0.1624 -1.2895 -0.4101 -1.8904Zm-0.88013 3.8608c-0.17312 0.4169 -0.43576 0.7907 -0.76934 1.0949 -0.33358 0.3042 -0.72994 0.5314 -1.16103 0.6654 -0.66951 0.2527 -1.39207 0.3318 -2.1004 0.23 0.42008 -0.6201 1.09021 -1.5402 1.40027 -2.0003 0.13284 -0.1767 0.22195 -0.3824 0.26005 -0.6001v-2.2205c0.01069 -0.1064 0.01069 -0.2136 0 -0.32 -0.01831 -0.0961 -0.06388 -0.185 -0.13127 -0.2559 -0.06739 -0.0709 -0.15375 -0.121 -0.2488 -0.1442 -0.22563 -0.0314 -0.45451 -0.0314 -0.68013 0 -0.60012 0.08 -1.5503 0.3001 -1.87036 0.3201 -0.21521 0.0677 -0.40624 0.1962 -0.5501 0.37 -0.39007 0.4101 -1.19023 1.3203 -1.67032 1.8904 -0.26887 -0.4225 -0.49343 -0.8717 -0.67012 -1.3403 -0.13236 -0.2882 -0.16064 -0.6134 -0.08002 -0.9201 0.2444 -0.6094 0.60828 -1.1637 1.0702 -1.6303 0.48727 -0.4327 1.05011 -0.7717 1.66032 -1.0002 0.45488 -0.191 0.94804 -0.2732 1.44027 -0.2401 0.5089 0.0376 1.0069 0.1664 1.47028 0.3801 0.07918 0.0334 0.1667 0.0417 0.25076 0.0239 0.08406 -0.0179 0.16061 -0.0612 0.21933 -0.1239l6.88134 -7.72149c0 -0.86016 -0.5401 -0.65012 -0.6202 -2.22042 -0.0417 -0.71084 0.0499 -1.42322 0.2701 -2.10039 0.197 -0.43908 0.4897 -0.82859 0.8565 -1.14007 0.3669 -0.31148 0.7987 -0.53707 1.2639 -0.66028 0.7887 -0.276339 1.6419 -0.311163 2.4505 -0.10001 -0.4201 0.59011 -1.2603 1.65031 -1.6203 2.1404 -0.1281 0.14943 -0.2174 0.32804 -0.2601 0.5201 0 0.36007 -0.07 1.67031 -0.07 2.22042 -0.0087 0.10317 -0.0087 0.20689 0 0.31006 0.0153 0.07977 0.0523 0.15377 0.107 0.21379 0.0548 0.06002 0.125 0.10372 0.203 0.12627 0.2158 0.029 0.4344 0.029 0.6502 0 0.6101 -0.06001 1.5603 -0.23004 1.8803 -0.25005 0.2078 -0.05633 0.3952 -0.17084 0.5401 -0.33006 0.4001 -0.39007 1.2203 -1.26024 1.7204 -1.81034 0.2574 0.42851 0.4655 0.88485 0.6201 1.36026 0.1031 0.28432 0.1031 0.59584 0 0.88016 -0.2694 0.57056 -0.6425 1.08608 -1.1002 1.52029 -0.489 0.43537 -1.0557 0.77469 -1.6704 1.00019 -0.4701 0.17077 -0.9744 0.22567 -1.4702 0.16003 -0.5186 -0.06825 -1.0204 -0.23096 -1.4803 -0.48009 -0.1159 -0.05694 -0.2478 -0.07212 -0.3736 -0.04295 -0.1257 0.02916 -0.2376 0.10086 -0.3165 0.20298 -0.6502 0.82016 -1.8904 2.3004 -3.2307 3.8707 -1.089 1.2832 -2.1893 2.5568 -3.30058 3.8208 -0.08349 0.0865 -0.13571 0.1984 -0.14839 0.318 -0.01268 0.1196 0.0149 0.24 0.07838 0.3421 0.29706 0.559 0.46456 1.1778 0.49009 1.8103 0.03538 0.623 -0.02877 1.2476 -0.19003 1.8504v0.01Z" clip-rule="evenodd" stroke-width="1"></path>
  <path fill="#0c6fff" fill-rule="evenodd" d="M2.99797 10.0117c0.71691 0.2487 1.47168 0.3705 2.23042 0.3601 0.68547 0.0079 1.3656 -0.1213 2.00038 -0.38012l0.92018 0.92022c0.02709 0.0284 0.05967 0.051 0.09578 0.0665 0.0361 0.0155 0.07497 0.0235 0.11426 0.0235 0.03928 0 0.07815 -0.008 0.11425 -0.0235 0.03611 -0.0155 0.06869 -0.0381 0.09579 -0.0665 0.05497 -0.0561 0.08577 -0.1315 0.08577 -0.2101 0 -0.0785 -0.0308 -0.1539 -0.08577 -0.21l-1.0502 -1.16024c-0.04545 -0.05068 -0.10631 -0.08499 -0.17319 -0.09764 -0.06688 -0.01265 -0.13607 -0.00294 -0.19688 0.02762 -0.60723 0.25279 -1.26358 0.3656 -1.92037 0.33007 -0.6613 -0.01625 -1.31464 -0.14827 -1.93036 -0.39008 -0.4169 -0.22172 -0.77939 -0.5332 -1.06131 -0.91199 -0.28193 -0.37879 -0.47627 -0.81543 -0.569 -1.27842 -0.18975 -0.70764 -0.18975 -1.45277 0 -2.16041 0.58011 0.48009 1.45027 1.24023 1.88036 1.6003 0.16919 0.15651 0.37588 0.26675 0.60011 0.32006 0.36007 0 1.66031 0.15003 2.21042 0.17003 0.113 0.01264 0.22706 0.01264 0.34006 0 0.10771 -0.01253 0.20946 -0.05607 0.2929 -0.12531 0.08345 -0.06924 0.145 -0.16121 0.17719 -0.26476 0.03861 -0.22842 0.03861 -0.46171 0 -0.69013 0 -0.61012 -0.16003 -1.5703 -0.16003 -1.89036 -0.04908 -0.23595 -0.16749 -0.45188 -0.34006 -0.62011 -0.33007 -0.41008 -1.14022 -1.23024 -1.67032 -1.76034 0.41273 -0.2237 0.84876 -0.40146 1.30025 -0.5301 0.2865 -0.110152 0.60367 -0.110152 0.89017 0 0.57817 0.29593 1.09425 0.69996 1.52028 1.19023 0.41493 0.52507 0.73019 1.12169 0.93018 1.76033 0.16436 0.46821 0.21242 0.96936 0.14002 1.46028 -0.07503 0.49802 -0.23756 0.97885 -0.48009 1.42027 -0.03511 0.06923 -0.04819 0.14756 -0.03746 0.22445 0.01073 0.07689 0.04474 0.14865 0.09747 0.20563L10.5794 8.5114c0.0328 0.03218 0.0717 0.05758 0.1143 0.07474 0.0427 0.01717 0.0883 0.02576 0.1343 0.0253 0.046 -0.00047 0.0914 -0.00998 0.1337 -0.028 0.0423 -0.01803 0.0806 -0.0442 0.1128 -0.07704 0.0322 -0.03284 0.0576 -0.07169 0.0747 -0.11434 0.0172 -0.04265 0.0258 -0.08827 0.0253 -0.13424 -0.0004 -0.04597 -0.0099 -0.09141 -0.028 -0.1337 -0.018 -0.0423 -0.0442 -0.08063 -0.077 -0.11281l-1.0002 -1.00019c0.2324 -0.45286 0.3943 -0.93855 0.4801 -1.44027 0.1039 -0.61443 0.0628 -1.24462 -0.12 -1.84035 -0.2086 -0.72223 -0.54757 -1.40019 -1.00021 -2.00038C8.94912 1.1062 8.35098 0.582827 7.66886 0.189828c-0.79015 -0.460087 -2.30044 0 -3.19061 0.490093 -0.21076 0.095766 -0.41463 0.206052 -0.61011 0.330059 -0.05099 0.03083 -0.09802 0.06777 -0.14003 0.11002 -0.08931 0.08062 -0.14656 0.19073 -0.16126 0.31014 -0.0147 0.11941 0.01415 0.24012 0.08125 0.33999 0.09001 0.15003 0.94017 0.88016 2.22042 2.32044l0.06001 0.08001 0.12002 1.6003c-0.5401 0 -1.29024 -0.11002 -1.70032 -0.13002l-0.09002 -0.07001c-0.5101 -0.41008 -1.67032 -1.38027 -2.26043 -1.79034 -0.1106 -0.08557 -0.22764 -0.16248 -0.35006 -0.23005 -0.11686 -0.04637 -0.2464 -0.0497 -0.36548 -0.0094 -0.11909 0.04031 -0.21998 0.12163 -0.284646 0.22945C0.486679 4.8709 0.40117 6.12147 0.757549 7.28117c0.143713 0.59447 0.419851 1.1488 0.807791 1.6216 0.38795 0.47281 0.87767 0.85188 1.43263 1.10893Z" clip-rule="evenodd" stroke-width="1"></path>
  <path fill="#0c6fff" fill-rule="evenodd" d="M21.1014 14.1025c-0.7409 -0.2831 -1.5272 -0.4288 -2.3204 -0.4301 -0.7182 -0.015 -1.4312 0.1248 -2.0904 0.4101l-1.1002 -1.1403c-0.0561 -0.0549 -0.1315 -0.0857 -0.2101 -0.0857 -0.0785 0 -0.1539 0.0308 -0.21 0.0857 -0.0284 0.0271 -0.0511 0.0597 -0.0666 0.0958 -0.0154 0.0361 -0.0234 0.075 -0.0234 0.1143s0.008 0.0781 0.0234 0.1142c0.0155 0.0362 0.0382 0.0687 0.0666 0.0958l1.2202 1.3603c0.0477 0.0538 0.1122 0.0899 0.1829 0.1026 0.0708 0.0127 0.1438 0.0012 0.2072 -0.0326 0.6265 -0.2844 1.314 -0.4081 2.0004 -0.3601 0.6877 0.0261 1.3652 0.1751 2.0004 0.4401 0.4107 0.2283 0.7656 0.5451 1.0389 0.9274 0.2733 0.3822 0.4582 0.8205 0.5414 1.283 0.1856 0.7048 0.1856 1.4457 0 2.1504 -0.5701 -0.4901 -1.4203 -1.2702 -1.8404 -1.6403 -0.166 -0.1576 -0.3689 -0.271 -0.5901 -0.33 -0.3601 0 -1.6603 -0.1901 -2.2104 -0.2201 -0.1128 -0.0157 -0.2273 -0.0157 -0.3401 0 -0.1063 0.0114 -0.2075 0.0521 -0.2922 0.1174 -0.0847 0.0653 -0.1498 0.1527 -0.1879 0.2527 -0.0549 0.2257 -0.0751 0.4584 -0.06 0.6901 0 0.6101 0.12 1.5803 0.11 1.9004 0.0478 0.2372 0.1623 0.4558 0.3301 0.6301 0.3601 0.4101 1.1502 1.2602 1.6703 1.7903 -0.4205 0.2169 -0.8631 0.3879 -1.3202 0.5101 -0.2907 0.1063 -0.6096 0.1063 -0.9002 0 -0.5711 -0.3192 -1.074 -0.7473 -1.4803 -1.2602 -0.4034 -0.519 -0.7054 -1.1094 -0.8902 -1.7403 -0.1584 -0.5013 -0.1894 -1.0341 -0.09 -1.5503 0.1006 -0.5344 0.2971 -1.0461 0.5801 -1.5103 0.0452 -0.0699 0.0639 -0.1536 0.0529 -0.2361 -0.011 -0.0825 -0.051 -0.1583 -0.1129 -0.214L13.72 15.4227c-0.0637 -0.0635 -0.15 -0.0992 -0.24 -0.0992s-0.1763 0.0357 -0.2401 0.0992c-0.0635 0.0638 -0.0992 0.1501 -0.0992 0.2401s0.0357 0.1763 0.0992 0.24l0.8402 0.8202c-0.2701 0.4634 -0.4658 0.9662 -0.5801 1.4902 -0.138 0.6382 -0.1209 1.3002 0.05 1.9304 0.2006 0.7406 0.54 1.4364 1.0002 2.0504 0.4615 0.6216 1.0388 1.148 1.7003 1.5503 0.7701 0.4701 2.3004 0 3.2006 -0.4101 0.1892 -0.0964 0.3728 -0.2032 0.5501 -0.32 0.0521 -0.025 0.0995 -0.0589 0.14 -0.1001 0.0907 -0.0791 0.1505 -0.1878 0.1688 -0.3068 0.0183 -0.1189 -0.006 -0.2405 -0.0687 -0.3433 0 0 -1.3203 -1.3702 -2.1605 -2.3804l-0.08 -0.0701 -0.08 -1.6103c0.5301 0 1.2903 0.1401 1.6903 0.1701l0.0901 0.08c0.5001 0.4301 1.6303 1.4303 2.1704 1.8603 0.1112 0.0877 0.2282 0.1679 0.35 0.2401 0.0625 0.0396 0.1328 0.0654 0.206 0.0758 0.0733 0.0103 0.1479 0.0048 0.2189 -0.016 0.071 -0.0208 0.1368 -0.0566 0.1929 -0.1048 0.056 -0.0483 0.1012 -0.108 0.1324 -0.1751 0.5207 -1.0927 0.6204 -2.339 0.28 -3.5006 -0.1347 -0.5857 -0.3973 -1.1342 -0.7691 -1.6063 -0.3718 -0.4721 -0.8435 -0.856 -1.3813 -1.1242Z" clip-rule="evenodd" stroke-width="1"></path>
</svg>