<svg xmlns="http://www.w3.org/2000/svg" fill="none" viewBox="0 0 24 24" id="Text-Formating-Rotate-Vertical--Streamline-Freehand">
  <desc>
    Text Formating Rotate Vertical Streamline Icon: https://streamlinehq.com
  </desc>
  <path fill="#0c6fff" d="M15.6178 13.6501c-0.0781 -0.1964 -0.223 -0.3589 -0.4091 -0.459 -0.5289 -0.2595 -4.8297 -0.4591 -8.58164 -0.3992 -1.51685 0.0093 -3.03224 0.0959 -4.54027 0.2595 -0.47929 0.032 -0.94582 0.1682 -1.367067 0.3991 -0.294253 0.3349 -0.475774 0.7537 -0.518888 1.1974 -0.1772165 1.2557 -0.2373467 2.5251 -0.1796145 3.7919 0.026536 1.2635 0.1634305 2.5223 0.4091225 3.7619 0.063829 0.4372 0.270893 0.8408 0.588737 1.1476 1.39431 0.3099 2.82548 0.4207 4.25089 0.3293 3.22309 0 7.50393 -0.2295 9.37993 -0.479 0.0461 0.0067 0.0931 0.0025 0.1373 -0.0121 0.0442 -0.0147 0.0844 -0.0395 0.1174 -0.0725 0.0329 -0.0329 0.0577 -0.0731 0.0724 -0.1173 0.0147 -0.0442 0.0188 -0.0913 0.0121 -0.1374 -0.0049 -0.0394 -0.0176 -0.0775 -0.0374 -0.112s-0.0462 -0.0647 -0.0778 -0.0888c-0.0316 -0.0242 -0.0677 -0.0418 -0.1061 -0.0519 -0.0385 -0.01 -0.0786 -0.0123 -0.1179 -0.0067 -1.6066 0.1696 -4.98935 0.2395 -7.98293 0.1996 -1.69636 0 -3.24304 -0.0799 -4.22095 -0.1896 -0.25168 -0.0138 -0.5019 -0.0472 -0.74839 -0.0998 0.04989 -0.0898 -0.12973 -0.2994 -0.17962 -0.5489 -0.20074 -1.1735 -0.3042 -2.3617 -0.30934 -3.5523 -0.04902 -1.1899 0.0044 -2.3817 0.15966 -3.5624 0.03378 -0.1772 0.08389 -0.3509 0.14968 -0.5189 0.32346 -0.1012 0.65912 -0.1583 0.99786 -0.1696 1.31718 -0.1796 3.42266 -0.2694 5.48823 -0.3193 2.2523 -0.1166 4.51 -0.0699 6.7555 0.1397 0.0397 0.0793 0.0698 0.163 0.0898 0.2494 0.1545 0.782 0.2281 1.5779 0.2196 2.3749 0 1.5767 0 3.4227 -0.1098 4.6501 0.0139 0.0812 0.056 0.1549 0.1191 0.2081 0.063 0.0531 0.1427 0.0823 0.2252 0.0823 0.0824 0 0.1622 -0.0292 0.2252 -0.0823 0.063 -0.0532 0.1051 -0.1269 0.119 -0.2081 0.1884 -2.0866 0.2617 -4.182 0.2195 -6.2766 -0.0189 -0.452 -0.1029 -0.899 -0.2494 -1.3271Z" stroke-width="1"></path>
  <path fill="#020202" d="M21.3456 1.91523c0.212 0.00863 0.4227 0.03872 0.6286 0.0898 0.938 0.26943 0.8981 0.63864 0.9281 0.89808 0.0299 0.25944 0 0.48895 0.1197 0.90805 0 0.08998 0.0357 0.17628 0.0994 0.2399 0.0636 0.06363 0.1499 0.09937 0.2399 0.09937s0.1762 -0.03574 0.2399 -0.09937c0.0636 -0.06362 0.0993 -0.14992 0.0993 -0.2399 0.0599 -0.49893 0.1397 -0.71846 0.1797 -0.99786 0.011 -0.16946 0.011 -0.33945 0 -0.50891 -0.0557 -0.24333 -0.1788 -0.46604 -0.3554 -0.64255 -0.1765 -0.17651 -0.3992 -0.29966 -0.6425 -0.35531 -0.5246 -0.12321 -1.0728 -0.10253 -1.5866 0.05987 -0.0777 0.00761 -0.1493 0.04524 -0.1996 0.10489 -0.0504 0.05965 -0.0754 0.13659 -0.0698 0.21443 0.0183 0.06934 0.0602 0.13015 0.1185 0.17202 0.0582 0.04187 0.1292 0.06219 0.2008 0.05749Z" stroke-width="1"></path>
  <path fill="#020202" d="M23.3911 6.42557c-0.0786 0.00249 -0.1533 0.03484 -0.2089 0.09044 -0.0556 0.05561 -0.088 0.13031 -0.0904 0.20892 -0.0799 0.49893 -0.1896 0.99786 -0.2495 1.45687v1.23735c0 0.50891 0.1197 0.99785 0.1596 1.44685 0.0139 0.0813 0.0561 0.155 0.1191 0.2082 0.063 0.0531 0.1428 0.0823 0.2252 0.0823s0.1622 -0.0292 0.2252 -0.0823c0.063 -0.0532 0.1052 -0.1269 0.1191 -0.2082 0.0798 -0.4689 0.1796 -0.94792 0.2395 -1.45683v-0.62865c0.0149 -0.20929 0.0149 -0.41937 0 -0.62865 0 -0.48896 -0.1597 -0.99786 -0.2395 -1.45688 -0.0095 -0.07325 -0.045 -0.14069 -0.0999 -0.1901 -0.0549 -0.04942 -0.1256 -0.07755 -0.1995 -0.07932Z" stroke-width="1"></path>
  <path fill="#020202" d="M23.88 13.8796c0.0028 -0.0393 -0.0023 -0.0788 -0.0149 -0.1162 -0.0126 -0.0373 -0.0325 -0.0718 -0.0584 -0.1015 -0.026 -0.0297 -0.0575 -0.0539 -0.0929 -0.0714 -0.0354 -0.0174 -0.0738 -0.0277 -0.1132 -0.0302 -0.0393 -0.0027 -0.0788 0.0024 -0.1161 0.0149 -0.0374 0.0126 -0.0719 0.0325 -0.1016 0.0584 -0.0296 0.026 -0.0539 0.0576 -0.0713 0.0929 -0.0175 0.0354 -0.0277 0.0738 -0.0303 0.1132 -0.6586 1.9957 -0.3093 1.5666 -1.2473 1.846l-0.6187 0.1896c-0.0891 0.0125 -0.17 0.0588 -0.2258 0.1295 -0.0558 0.0706 -0.0821 0.1601 -0.0735 0.2497 0.0049 0.0447 0.0187 0.0879 0.0405 0.1272s0.0512 0.0739 0.0865 0.1018c0.0352 0.0278 0.0757 0.0484 0.119 0.0605 0.0433 0.0121 0.0886 0.0154 0.1332 0.0099h0.6885c0.3364 0.0041 0.6719 -0.0361 0.9978 -0.1198 0.2358 -0.0626 0.4434 -0.2033 0.5888 -0.3991 0.1359 -0.2273 0.2147 -0.4841 0.2295 -0.7484 0.0033 -0.4717 -0.0368 -0.9427 -0.1198 -1.407Z" stroke-width="1"></path>
  <path fill="#020202" d="M19.7091 15.6857c-0.2894 -0.0499 -0.5588 -0.1596 -0.8881 -0.2195h-0.7883c-0.3194 0 -0.6187 0.1297 -0.928 0.1996 -0.09 0 -0.1763 0.0357 -0.2399 0.0993 -0.0637 0.0637 -0.0994 0.15 -0.0994 0.2399 0 0.09 0.0357 0.1763 0.0994 0.2399 0.0636 0.0637 0.1499 0.0994 0.2399 0.0994 0.2993 0.0599 0.5887 0.1497 0.908 0.2096 0.1295 0.0098 0.2596 0.0098 0.3892 0 0.1359 0.0152 0.2731 0.0152 0.4091 0 0.3245 -0.0616 0.642 -0.1552 0.948 -0.2794 0.0393 -0.0038 0.0776 -0.0153 0.1125 -0.0339s0.0658 -0.044 0.0909 -0.0746c0.025 -0.0306 0.0437 -0.0659 0.0551 -0.1038 0.0113 -0.0379 0.015 -0.0777 0.0109 -0.117 -0.01 -0.0759 -0.0487 -0.1451 -0.108 -0.1933 -0.0594 -0.0483 -0.135 -0.0719 -0.2113 -0.0662Z" stroke-width="1"></path>
  <path fill="#020202" d="M13.0831 7.84251c-0.0446 -0.0027 -0.0892 0.00343 -0.1314 0.01802 -0.0422 0.0146 -0.0811 0.03739 -0.1145 0.06706 -0.0334 0.02966 -0.0606 0.06562 -0.08 0.10582 -0.0195 0.04019 -0.0308 0.08383 -0.0333 0.12841 -0.0898 0.36921 -0.1896 0.65859 -0.2595 0.99787 0 0.14967 -0.0499 0.2794 -0.0698 0.42908 -0.01 0.14285 -0.01 0.28622 0 0.42903 0.0468 0.3371 0.1168 0.6705 0.2095 0.9979 -0.0001 0.0787 0.0297 0.1545 0.0835 0.212 0.0537 0.0574 0.1274 0.0923 0.2059 0.0973 0.0402 0.0014 0.0802 -0.0054 0.1176 -0.0198 0.0375 -0.0145 0.0717 -0.0363 0.1006 -0.0642 0.0288 -0.028 0.0518 -0.0614 0.0674 -0.0984 0.0157 -0.037 0.0238 -0.0767 0.0237 -0.1169 0.0998 -0.3592 0.2196 -0.6486 0.2894 -0.9979 0.0299 -0.13809 0.0499 -0.27814 0.0599 -0.41908v-0.42908c0 -0.31931 -0.0798 -0.62865 -0.1297 -0.99786 -0.0025 -0.08919 -0.0391 -0.17403 -0.1022 -0.23712 -0.0631 -0.06309 -0.1479 -0.09964 -0.2371 -0.10215Z" stroke-width="1"></path>
  <path fill="#020202" d="M17.4638 2.53389c0.1262 0.01011 0.253 0.01011 0.3792 0 0.3392 0 0.6286 -0.09979 0.908 -0.1397 0.0446 0.0027 0.0892 -0.00343 0.1314 -0.01803 0.0422 -0.0146 0.0811 -0.03738 0.1145 -0.06705 0.0334 -0.02966 0.0606 -0.06562 0.08 -0.10582 0.0195 -0.0402 0.0308 -0.08384 0.0333 -0.12842 0.0056 -0.04433 0.0019 -0.08934 -0.011 -0.13212 -0.0129 -0.04278 -0.0346 -0.08238 -0.0638 -0.11624 -0.0291 -0.03386 -0.0651 -0.06122 -0.1055 -0.08032 -0.0404 -0.01909 -0.0843 -0.0295 -0.129 -0.03055 -0.2794 -0.07982 -0.5488 -0.18959 -0.8781 -0.25944 -0.1247 -0.02967 -0.2515 -0.04968 -0.3792 -0.05987 -0.1293 -0.01493 -0.2599 -0.01493 -0.3892 0 -0.3062 0.04502 -0.6094 0.10833 -0.908 0.18959 -0.0804 -0.00276 -0.1587 0.02592 -0.2184 0.07994 -0.0596 0.05403 -0.0958 0.12915 -0.1009 0.20944 -0.0027 0.04013 0.0027 0.0804 0.0159 0.11839 0.0132 0.03799 0.0339 0.07293 0.0609 0.10274 0.027 0.0298 0.0598 0.05386 0.0963 0.07073 0.0365 0.01687 0.076 0.02621 0.1162 0.02746 0.3094 0.09978 0.5688 0.21953 0.8682 0.29936 0.1253 0.02241 0.252 0.03575 0.3792 0.03991Z" stroke-width="1"></path>
  <path fill="#020202" d="M11.8957 0.887435c0.0281 0.069964 0.0686 0.134215 0.1198 0.189595l0.5388 1.13756c0.7783 2.32501 1.1476 1.64647 -1.5566 2.44476 -0.2186 0.02701 -0.4331 0.08063 -0.6387 0.15966 -0.0834 0.0304 -0.1594 0.07814 -0.2231 0.14006 -0.0636 0.06191 -0.1134 0.13661 -0.14609 0.21917 -0.03316 0.08479 -0.0319 0.17918 0.00351 0.26306 0.03538 0.08387 0.10218 0.15061 0.18608 0.18597 0.0998 0 -0.31931 0 1.8261 -0.2794 0.439 -0.05987 0.8781 -0.1397 1.2972 -0.21953 0.0631 -0.0039 0.1265 -0.0039 0.1896 0 0.1435 0.00055 0.2858 -0.02655 0.4191 -0.07983 0.1471 -0.06704 0.2693 -0.17878 0.3493 -0.31931 0.1026 -0.17445 0.1447 -0.37792 0.1197 -0.57876 -0.0367 -0.22196 -0.0969 -0.43939 -0.1796 -0.64861 -0.0767 -0.24882 -0.17 -0.49219 -0.2794 -0.72844 -0.1666 -0.34522 -0.3566 -0.67862 -0.5688 -0.99786l-0.7584 -0.99786c-0.0776 -0.142385 -0.1789 -0.270592 -0.2993 -0.379187 -0.03 -0.033977 -0.0668 -0.06119 -0.1081 -0.079829 -0.0413 -0.018639 -0.0861 -0.028279 -0.1314 -0.028279 -0.0453 0 -0.0901 0.00964 -0.1314 0.028279 -0.0413 0.018639 -0.0781 0.045852 -0.1081 0.079829 -0.0555 0.057638 -0.0865 0.134533 -0.0865 0.21454s0.031 0.156902 0.0865 0.21454l0.0798 0.059872Z" stroke-width="1"></path>
  <path fill="#020202" d="M4.49161 8.48114c0.08826 0.01182 0.1777 -0.01052 0.25004 -0.06246 0.07233 -0.05193 0.1221 -0.12953 0.13912 -0.21694 0.19207 -1.01384 0.52809 -1.99502 0.99786 -2.91375 0.23272 -0.43988 0.51027 -0.85453 0.82823 -1.23735 0.26145 -0.34704 0.6041 -0.62458 0.99786 -0.80827 0.58298 -0.257 1.2212 -0.36337 1.85602 -0.30934 0.67096 0.04921 1.32876 0.21114 1.94586 0.47898 0.0363 0.03446 0.0807 0.05924 0.1292 0.07208 0.0484 0.01284 0.0992 0.01332 0.1479 0.00141 0.0487 -0.01192 0.0935 -0.03585 0.1305 -0.06961 0.0371 -0.03376 0.065 -0.07627 0.0813 -0.12363 0.0363 -0.07054 0.0442 -0.15233 0.0219 -0.22848 -0.0223 -0.07614 -0.073 -0.14081 -0.1416 -0.18064 -0.6571 -0.39318 -1.3756 -0.67315 -2.12547 -0.82822 -0.78971 -0.15208 -1.60449 -0.111 -2.37491 0.11974 -0.90596 0.42368 -1.63875 1.1459 -2.07555 2.04561 -0.61625 1.20965 -0.98917 2.52845 -1.09764 3.88168 -0.00703 0.04405 -0.00503 0.08907 0.00587 0.13232 0.01091 0.04326 0.03048 0.08384 0.05754 0.1193 0.02706 0.03546 0.06105 0.06505 0.09989 0.08698 0.03884 0.02193 0.08174 0.03574 0.12608 0.04059Z" stroke-width="1"></path>
  <path fill="#020202" d="M2.73539 9.81829c0.14457 0.30071 0.30444 0.59381 0.47897 0.87811 0.12529 0.1783 0.26195 0.3482 0.40912 0.5089 0.12975 0.1276 0.29193 0.2174 0.469 0.2595 0.10965 0.0232 0.22292 0.0237 0.33278 0.0014 0.10986 -0.0223 0.21396 -0.0669 0.30585 -0.1312 0.16117 -0.1307 0.30832 -0.2778 0.43905 -0.439l1.28725 -1.13758c0.19957 -0.15966 0.84818 -0.54883 1.10762 -0.72844 0.25944 -0.17962 0.20955 -0.17962 0.21953 -0.21953 0.02093 -0.04059 0.0323 -0.08544 0.03323 -0.1311 0.00093 -0.04567 -0.0086 -0.09094 -0.02786 -0.13235s-0.04775 -0.07787 -0.08327 -0.10658c-0.03552 -0.0287 -0.07714 -0.0489 -0.12167 -0.05905 0 0 -1.38703 0.52887 -1.57662 0.65859 -0.1896 0.12972 -0.77833 0.40912 -1.13756 0.65859 -0.72844 0.50895 -0.39915 0.89805 -1.39701 -0.63863 -0.48895 -0.73842 -0.99786 -1.56665 -0.99786 -1.56665 -0.02031 -0.03996 -0.04829 -0.07554 -0.08235 -0.10469 -0.03406 -0.02915 -0.07353 -0.05131 -0.11616 -0.06521 -0.04262 -0.0139 -0.08756 -0.01927 -0.13226 -0.0158 -0.0447 0.00347 -0.08828 0.01571 -0.12824 0.03603 -0.03997 0.02031 -0.07555 0.04829 -0.1047 0.08235 -0.02915 0.03406 -0.05131 0.07353 -0.06521 0.11615 -0.0139 0.04263 -0.01927 0.08757 -0.0158 0.13227 0.00347 0.0447 0.01572 0.08827 0.03603 0.12824 0 0 0.43906 1.18746 0.86814 2.01568Z" stroke-width="1"></path>
</svg>