<svg xmlns="http://www.w3.org/2000/svg" fill="none" viewBox="0 0 24 24" id="Touch-Id-Fingerprint-Lock-1--Streamline-Freehand">
  <desc>
    Touch Id Fingerprint Lock 1 Streamline Icon: https://streamlinehq.com
  </desc>
  <path fill="#020202" fill-rule="evenodd" d="M20.2249 14.2579c-0.0681 -1.4701 -0.2183 -2.9352 -0.4498 -4.38862 -0.0123 -0.07802 -0.055 -0.14804 -0.1186 -0.19483 -0.0636 -0.04679 -0.1432 -0.06659 -0.2213 -0.05509 -0.0379 0.00479 -0.0745 0.01729 -0.1074 0.03674 -0.0329 0.01944 -0.0614 0.04542 -0.0839 0.07633 -0.0225 0.03091 -0.0384 0.06609 -0.0468 0.10338 -0.0083 0.03729 -0.009 0.0759 -0.0018 0.11345 0.1909 1.43894 0.301 2.88744 0.3299 4.33864 0.0357 1.4446 -0.0143 2.89 -0.15 4.3287 -0.0474 0.8177 -0.2193 1.6234 -0.5098 2.3892 -0.1753 0.4496 -0.4732 0.841 -0.8598 1.1297 -0.9811 0.5386 -2.0798 0.827 -3.199 0.8397 -1.8894 0.14 -3.9988 0 -5.34834 0 -1.28506 0.079 -2.57376 0.079 -3.85881 0 -0.77011 -0.0597 -1.51761 -0.2884 -2.18933 -0.6698 0.15995 -0.1199 -0.15995 -0.6198 -0.20993 -0.9996 -0.04999 -0.5799 -0.07998 -1.1697 -0.08998 -1.3696 -0.14022 -1.5554 -0.18029 -3.1181 -0.11996 -4.6786 0 -1.5795 0.18994 -3.149 0.38988 -4.6985 1.9136 -0.3859 3.85682 -0.60665 5.80821 -0.65983 1.25966 -0.05998 2.53926 -0.07997 3.80886 -0.07997 1.9993 0 3.9088 0.05998 5.7482 0.17994 0.0689 -0.01274 0.1312 -0.04921 0.176 -0.10309 0.0448 -0.05387 0.0694 -0.12174 0.0694 -0.19182 0 -0.07008 -0.0246 -0.13795 -0.0694 -0.19182 -0.0448 -0.05387 -0.1071 -0.09035 -0.176 -0.10309 -1.8394 -0.34989 -3.7389 -0.57982 -5.7382 -0.65979 -1.292 -0.07002 -2.5869 -0.07002 -3.87884 0 -0.38988 0 -0.75977 0.10996 -1.13965 0.14995 -0.06588 -1.10862 0.08698 -2.21937 0.44986 -3.26899 0.19192 -0.54718 0.50055 -1.04607 0.90448 -1.46209 0.40394 -0.41602 0.89355 -0.73921 1.43485 -0.94717 0.3202 -0.13469 0.656 -0.22873 0.9996 -0.27991 0.3303 -0.06248 0.6694 -0.06248 0.9997 0 0.4413 0.0824 0.8384 0.31999 1.1197 0.66979 0.2525 0.43315 0.4283 0.90662 0.5198 1.39957 0.0085 0.05057 0.0269 0.09897 0.0541 0.14243 0.0272 0.04346 0.0627 0.08113 0.1045 0.11084 0.0418 0.02972 0.089 0.0509 0.139 0.06233 0.05 0.01143 0.1017 0.0129 0.1523 0.0043 0.1299 0 0.3299 -0.13996 0.4598 -0.14995 1.2097 0 2.2194 0.3299 1.5296 -1.85943 -0.2101 -0.71168 -0.5871 -1.36289 -1.0997 -1.89941 -0.5649 -0.496163 -1.2221 -0.87605 -1.934 -1.117921 -0.7119 -0.2418711 -1.4645 -0.3409776 -2.2147 -0.2916474C10.1037 0.0187853 8.64196 0.509547 7.43888 1.41189c-0.93191 0.79968 -1.58638 1.87414 -1.86942 3.06905 -0.27961 1.58487 -0.23882 3.20969 0.11996 4.77853 -1.01389 0.19348 -2.01536 0.44719 -2.99908 0.75973 -0.06438 0.0208 -0.11814 0.0658 -0.14988 0.1255 -0.03173 0.0597 -0.03893 0.1295 -0.02006 0.1944 0.01614 0.0546 0.05114 0.1016 0.09875 0.1327 0.04761 0.0312 0.10473 0.0444 0.16117 0.0373 -0.22993 1.5095 -0.40988 3.049 -0.50985 4.5886 -0.10493 1.5944 -0.10493 3.194 0 4.7885 0.00412 0.7452 0.05085 1.4895 0.13996 2.2293 0.0326 0.2932 0.16704 0.5656 0.37988 0.7698 0.79035 0.5303 1.70132 0.8534 2.64919 0.9397 1.32946 0.1184 2.66532 0.1485 3.99876 0.0899 2.11494 0.1358 4.23724 0.109 6.34804 -0.0799 0.9674 -0.1228 1.8939 -0.4647 2.7092 -0.9997 0.5381 -0.3863 0.9515 -0.9214 1.1896 -1.5395 0.3058 -0.8515 0.4778 -1.7451 0.5098 -2.6492 0.0888 -1.4613 0.0988 -2.9263 0.03 -4.3887ZM6.36921 4.69088c0.28255 -1.00261 0.87798 -1.88875 1.69948 -2.52922 1.04368 -0.74746 2.29511 -1.14947 3.57891 -1.14965 1.2746 -0.147043 2.5561 0.21191 3.5689 0.9997 0.4593 0.41931 0.8035 0.94935 0.9997 1.53952 0.105 0.32605 0.1819 0.66051 0.2299 0.99969h-1.4396c-0.1246 -0.60307 -0.3958 -1.16615 -0.7897 -1.63949 -0.3498 -0.38175 -0.8059 -0.64988 -1.3096 -0.76976 -0.421 -0.12546 -0.8621 -0.16957 -1.2996 -0.12996 -0.4249 0.05454 -0.8414 0.162 -1.2396 0.3199 -1.07289 0.43551 -1.94817 1.2503 -2.45927 2.28929 -0.57902 1.38599 -0.75236 2.90795 -0.49984 4.38865 -0.39988 0.05998 -0.79975 0.08997 -1.18963 0.15995 -0.25122 -1.4878 -0.20023 -3.01096 0.14995 -4.47862Z" clip-rule="evenodd" stroke-width="1"></path>
  <path fill="#0c6fff" fill-rule="evenodd" d="M13.257 20.7559c0.5134 -0.1139 0.9958 -0.3384 1.4136 -0.6578 0.4178 -0.3194 0.761 -0.7261 1.0056 -1.1916 0.5514 -0.8989 0.8099 -1.9469 0.7398 -2.9991 -0.1159 -1.4335 -0.7482 -2.7763 -1.7794 -3.7788 -0.5595 -0.4857 -1.2274 -0.83 -1.9476 -1.004 -0.7202 -0.174 -1.4717 -0.1725 -2.1912 0.0043 -0.54701 0.1213 -1.06458 0.3498 -1.52274 0.6724 -0.45815 0.3226 -0.8478 0.7329 -1.1464 1.207 -0.58399 0.8979 -0.92817 1.9304 -0.99969 2.9991 -0.19994 2.2193 0.74977 4.4386 3.16902 4.8585 0.35581 0.0664 0.71921 0.0833 1.07971 0.05 0.3378 -0.0362 0.6721 -0.0998 0.9997 -0.19 0.0371 -0.007 0.0725 -0.0216 0.1039 -0.0427 0.0314 -0.0211 0.0582 -0.0484 0.0787 -0.0802 0.0206 -0.0318 0.0345 -0.0674 0.0409 -0.1047 0.0064 -0.0372 0.0052 -0.0755 -0.0036 -0.1123 -0.0071 -0.0371 -0.0216 -0.0725 -0.0428 -0.1039 -0.0211 -0.0314 -0.0484 -0.0582 -0.0801 -0.0787 -0.0318 -0.0206 -0.0674 -0.0345 -0.1047 -0.0409 -0.0373 -0.0064 -0.0755 -0.0052 -0.1123 0.0036 -0.309 0.0682 -0.6235 0.1083 -0.9397 0.12 -0.3055 0.0177 -0.612 -0.0093 -0.9097 -0.08 -1.93944 -0.4399 -2.56925 -2.2993 -2.32932 -4.0887 0.13202 -0.8848 0.4749 -1.7248 0.99969 -2.4493 0.46416 -0.7019 1.1797 -1.1992 1.99943 -1.3896 0.5561 -0.1434 1.1382 -0.1539 1.6992 -0.0306 0.561 0.1233 1.085 0.377 1.5298 0.7404 0.8857 0.8174 1.4525 1.9228 1.5995 3.1191 0.0452 0.8481 -0.1637 1.6904 -0.5998 2.4192 -0.1754 0.3834 -0.4329 0.7235 -0.7542 0.9965 -0.3213 0.2729 -0.6986 0.4719 -1.1053 0.583 -0.0422 0.0061 -0.0828 0.0206 -0.1194 0.0425 -0.0365 0.022 -0.0683 0.0511 -0.0935 0.0856 -0.0251 0.0345 -0.0431 0.0736 -0.0529 0.1151 -0.0098 0.0416 -0.0112 0.0846 -0.0041 0.1267 0.0148 0.0868 0.0626 0.1644 0.1335 0.2166 0.0708 0.0522 0.1592 0.0749 0.2464 0.0633Z" clip-rule="evenodd" stroke-width="1"></path>
  <path fill="#0c6fff" fill-rule="evenodd" d="M12.5675 18.7473c0.3927 -0.0004 0.7736 -0.1344 1.08 -0.38 0.1366 -0.1021 0.2579 -0.2234 0.36 -0.36 0.0924 -0.1182 0.1666 -0.2497 0.22 -0.39 0.1103 -0.3223 0.171 -0.6595 0.18 -1 0.022 -0.0729 0.0143 -0.1516 -0.0212 -0.2189 -0.0356 -0.0674 -0.0962 -0.1181 -0.1688 -0.1411 -0.0361 -0.0123 -0.0743 -0.0171 -0.1123 -0.0141 -0.038 0.003 -0.0749 0.0138 -0.1086 0.0315 -0.0337 0.0178 -0.0635 0.0423 -0.0874 0.072 -0.0239 0.0297 -0.0415 0.0639 -0.0517 0.1006 -0.16 0.25 -0.4 0.46 -0.61 0.73 -0.09 0.11 -0.17 0.23 -0.25 0.34 -0.0651 0.1153 -0.1387 0.2256 -0.22 0.33 -0.0865 0.0997 -0.1918 0.1813 -0.31 0.24 -0.0473 0.0026 -0.0935 0.0154 -0.1354 0.0375 -0.0419 0.022 -0.0786 0.0528 -0.1075 0.0903 -0.029 0.0375 -0.0495 0.0808 -0.0603 0.1269 -0.0107 0.0462 -0.0114 0.0941 -0.0019 0.1405 0.0094 0.0464 0.0287 0.0903 0.0566 0.1286 0.0279 0.0382 0.0637 0.0701 0.105 0.0933 0.0412 0.0232 0.087 0.0373 0.1342 0.0413 0.0472 0.0039 0.0947 -0.0023 0.1393 -0.0184l-0.03 0.02Z" clip-rule="evenodd" stroke-width="1"></path>
  <path fill="#0c6fff" fill-rule="evenodd" d="M12.5273 14.3879c0.3599 0.1799 0.6798 0.4398 0.6698 0.8297 -0.0027 0.0434 0.0032 0.0868 0.0173 0.1279 0.0141 0.041 0.0362 0.0789 0.065 0.1114s0.0637 0.059 0.1028 0.078c0.039 0.019 0.0814 0.0301 0.1248 0.0326 0.0433 0.0027 0.0868 -0.0032 0.1278 -0.0173 0.0411 -0.0141 0.079 -0.0362 0.1115 -0.065s0.059 -0.0637 0.078 -0.1028c0.0189 -0.039 0.03 -0.0814 0.0326 -0.1248 0.0129 -0.326 -0.0678 -0.649 -0.2326 -0.9306 -0.1647 -0.2817 -0.4066 -0.5103 -0.6971 -0.6589 -0.5342 -0.3494 -1.1789 -0.4883 -1.8095 -0.3899 -0.6379 0.1355 -1.21434 0.4751 -1.64188 0.9676 -0.42754 0.4925 -0.68289 1.1109 -0.72737 1.7616 -0.06228 0.6343 0.10532 1.2698 0.47229 1.7909 0.36697 0.5211 0.90886 0.8931 1.52706 1.0482 0.0361 0.0125 0.0743 0.0177 0.1125 0.0154 0.0381 -0.0023 0.0754 -0.0121 0.1097 -0.0288 0.0344 -0.0167 0.0651 -0.04 0.0905 -0.0686 0.0253 -0.0285 0.0447 -0.0618 0.0572 -0.0979 0.0125 -0.0361 0.0177 -0.0744 0.0154 -0.1125 -0.0023 -0.0381 -0.012 -0.0754 -0.0287 -0.1098 -0.0168 -0.0343 -0.0401 -0.065 -0.0686 -0.0904 -0.0286 -0.0253 -0.0619 -0.0448 -0.098 -0.0572 -0.4168 -0.1743 -0.7622 -0.4847 -0.98005 -0.8804 -0.21784 -0.3957 -0.29525 -0.8536 -0.2196 -1.299 0.09074 -0.415 0.29095 -0.7981 0.57985 -1.1096 0.2765 -0.3392 0.6442 -0.5923 1.0596 -0.7298 0.3843 -0.0987 0.7911 -0.0598 1.1497 0.11Z" clip-rule="evenodd" stroke-width="1"></path>
  <path fill="#0c6fff" fill-rule="evenodd" d="M11.3778 15.0077c-0.26 0 -0.52 0.67 -0.57 0.83 -0.0098 0.083 -0.0098 0.1669 0 0.25 -0.0152 0.0826 -0.0152 0.1674 0 0.25 0.2 0.85 0.37 0.88 0.53 0.88 0.16 0 0.3 0 0.5 -0.89 0.0143 -0.076 0.0143 -0.154 0 -0.23 0.005 -0.0799 0.005 -0.1601 0 -0.24 -0.21 -0.92 -0.37 -0.85 -0.46 -0.85Z" clip-rule="evenodd" stroke-width="1"></path>
  <path fill="#0c6fff" d="M18.6954 6.35057c0.54 1.24 3 1.51 3.1 0.56 0.1 -0.95 -0.4 -1.25 -1.11 -1.15 -0.6858 0.11073 -1.3546 0.30901 -1.99 0.59Z" stroke-width="1"></path>
  <path fill="#0c6fff" d="M18.3156 4.73161c0.92 0.15 2 -1.55 1.56 -2.08 -0.44 -0.53 -0.87 -0.25 -1.09 0.36 -0.2126 0.55658 -0.37 1.13267 -0.47 1.72Z" stroke-width="1"></path>
</svg>