<svg xmlns="http://www.w3.org/2000/svg" fill="none" viewBox="0 0 24 24" id="Wireless-Wifi-Signal-Pole--Streamline-Freehand">
  <desc>
    Wireless Wifi Signal Pole Streamline Icon: https://streamlinehq.com
  </desc>
  <path fill="#0c6fff" fill-rule="evenodd" d="M5.01384 17.2097c-1.67439 -1.2731 -2.85927 -3.0841 -3.35536 -5.1282 -0.33463 -1.206 -0.48987 -2.45466 -0.46073 -3.70589 -0.00206 -0.80625 0.09209 -1.60987 0.28045 -2.39382 0.23608 -0.9448 0.61793 -1.84705 1.1318 -2.67427 0.51033 -0.81293 1.15757 -1.53134 1.91306 -2.1234 0.07153 -0.05555 0.11878 -0.13664 0.13185 -0.226263 0.01307 -0.089624 -0.00906 -0.180827 -0.06174 -0.2545C4.5394 0.632512 4.46005 0.585514 4.37208 0.572412 4.28411 0.55931 4.1945 0.581144 4.12242 0.633245 3.25751 1.22736 2.5047 1.97001 1.89887 2.82675 1.28536 3.6877 0.805828 4.63663 0.476596 5.64124 0.198381 6.51732 0.0400265 7.42701 0.00584387 8.34556 -0.0370173 9.704 0.156152 11.0596 0.576756 12.352c0.668844 2.2028 2.108934 4.0909 4.056474 5.3185 0.06819 0.0422 0.15007 0.0564 0.22848 0.0396 0.07842 -0.0169 0.14729 -0.0633 0.1922 -0.1298 0.03785 -0.0566 0.05457 -0.1248 0.04725 -0.1926 -0.00732 -0.0677 -0.03823 -0.1307 -0.08732 -0.178Z" clip-rule="evenodd" stroke-width="1"></path>
  <path fill="#0c6fff" fill-rule="evenodd" d="M23.5735 5.56126c-0.3271 -1.00238 -0.8069 -1.94832 -1.4223 -2.80448 -0.6056 -0.85978 -1.3583 -1.60576 -2.2235 -2.203522 -0.0721 -0.052101 -0.1617 -0.073935 -0.2497 -0.060833 -0.088 0.013102 -0.1673 0.0601 -0.2211 0.130945 -0.0527 0.073673 -0.0748 0.164877 -0.0617 0.2545 0.013 0.089623 0.0603 0.17071 0.1318 0.22627 0.7555 0.59205 1.4028 1.31046 1.9131 2.12339 0.5091 0.81175 0.8908 1.69676 1.1318 2.62419 0.2065 0.80185 0.3141 1.62594 0.3205 2.45392 0.0282 1.24458 -0.1271 2.48656 -0.4607 3.68586 -0.5022 2.0545 -1.7024 3.8708 -3.3955 5.1382 -0.0336 0.0204 -0.0627 0.0474 -0.0855 0.0794 -0.0229 0.032 -0.039 0.0683 -0.0475 0.1067 -0.0084 0.0384 -0.0089 0.0781 -0.0016 0.1167 0.0074 0.0386 0.0225 0.0753 0.0445 0.1079 0.0449 0.0664 0.1138 0.1129 0.1922 0.1297 0.0784 0.0168 0.1603 0.0026 0.2285 -0.0396 1.9475 -1.2275 3.3876 -3.1156 4.0564 -5.3185 0.4206 -1.2924 0.6138 -2.64792 0.571 -4.00636 -0.0144 -0.92971 -0.1559 -1.85308 -0.4207 -2.74438Z" clip-rule="evenodd" stroke-width="1"></path>
  <path fill="#0c6fff" fill-rule="evenodd" d="M6.68646 6.06206c0.26283 -0.46658 0.6013 -0.88628 1.0016 -1.24198 0.06794 -0.05836 0.11172 -0.13992 0.12283 -0.22879 0.01111 -0.08887 -0.01125 -0.17869 -0.06273 -0.25198 -0.02745 -0.03574 -0.06173 -0.06568 -0.10084 -0.08808 -0.03911 -0.02239 -0.08227 -0.0368 -0.12699 -0.04239 -0.04472 -0.00559 -0.09011 -0.00225 -0.13353 0.00983 -0.04341 0.01208 -0.084 0.03266 -0.11941 0.06054 -0.48401 0.36458 -0.90667 0.80415 -1.252 1.30208 -0.37286 0.51424 -0.66658 1.08143 -0.87139 1.68269 -0.21618 0.64533 -0.32117 1.3227 -0.3105 2.0032 0.00098 0.66248 0.10228 1.32102 0.30048 1.95312 0.37462 1.2485 1.13997 2.3439 2.18349 3.125 0.02947 0.0301 0.06495 0.0537 0.10412 0.0692 0.03917 0.0155 0.08117 0.0226 0.12326 0.0208 0.0421 -0.0018 0.08335 -0.0124 0.12108 -0.0311 0.03773 -0.0188 0.07109 -0.0453 0.09792 -0.0777 0.02683 -0.0325 0.04654 -0.0703 0.05783 -0.1109 0.01129 -0.0406 0.01392 -0.0831 0.00772 -0.1247 -0.0062 -0.0417 -0.0211 -0.0816 -0.04372 -0.1172 -0.02263 -0.0355 -0.05247 -0.0659 -0.0876 -0.0891 -0.82274 -0.8146 -1.37222 -1.8645 -1.57251 -3.0048 -0.12607 -0.5523 -0.19321 -1.11633 -0.20032 -1.68273 -0.02097 -0.55945 0.03634 -1.11908 0.17027 -1.66266 0.12436 -0.5169 0.32344 -1.0129 0.59094 -1.47235Z" clip-rule="evenodd" stroke-width="1"></path>
  <path fill="#0c6fff" fill-rule="evenodd" d="M19.2666 9.14698c0.0107 -0.68049 -0.0943 -1.35786 -0.3105 -2.00319 -0.2027 -0.59905 -0.4966 -1.16324 -0.8714 -1.67268 -0.3696 -0.5104 -0.8235 -0.95411 -1.3421 -1.31209 -0.0725 -0.0538 -0.1629 -0.07757 -0.2525 -0.06638 -0.0895 0.0112 -0.1713 0.0565 -0.2283 0.12647 -0.0515 0.07329 -0.0738 0.16312 -0.0627 0.25199 0.0111 0.08887 0.0549 0.17042 0.1228 0.22878 0.4003 0.35571 0.7388 0.77541 1.0016 1.24199 0.2676 0.46649 0.4667 0.96912 0.5909 1.49238 0.134 0.54358 0.1913 1.10321 0.1703 1.66265 -0.0071 0.5664 -0.0742 1.1305 -0.2003 1.6827 -0.1977 1.1412 -0.7476 2.1918 -1.5725 3.0048 -0.0285 0.0271 -0.0512 0.0598 -0.0667 0.0959 -0.0155 0.0362 -0.0235 0.0751 -0.0235 0.1144 0 0.0394 0.008 0.0783 0.0235 0.1144 0.0155 0.0362 0.0382 0.0688 0.0667 0.096 0.0562 0.055 0.1317 0.0859 0.2103 0.0859 0.0787 0 0.1542 -0.0309 0.2104 -0.0859 1.0693 -0.788 1.8533 -1.9024 2.2335 -3.1751 0.1921 -0.6095 0.2933 -1.244 0.3005 -1.88302Z" clip-rule="evenodd" stroke-width="1"></path>
  <path fill="#020202" fill-rule="evenodd" d="M13.0266 7.38417c-0.5395 -0.13178 -1.1036 -0.12464 -1.6395 0.02074 -0.536 0.14538 -1.0264 0.42426 -1.42537 0.81059 -0.40717 0.37392 -0.70859 0.84856 -0.87389 1.37608 -0.16529 0.52752 -0.18861 1.08932 -0.06762 1.62872 0.24543 0.8258 0.77839 1.5364 1.50238 2.0032 0.3506 0.235 0.7601 0.3669 1.1819 0.3806 0 0.7111 -0.1202 1.6827 -0.1703 2.7344v2.9246c0 1.4323 0.1503 2.7144 0.2004 3.4055 0 0.5208 0 0.661 0.1202 0.7512 0.1201 0.0901 0.2904 0.1502 0.4306 0 0.1403 -0.1503 0.0702 -0.0601 0.1202 -0.8614 0.0501 -0.8013 0.1803 -2.0533 0.2404 -3.4956v-2.3337c0 -1.6627 -0.1302 -3.1751 -0.1602 -3.8862v-0.3906c0 -0.2004 -0.1903 -0.2104 -0.3506 -0.1703 -0.1603 0.0401 -0.2905 0 -0.3205 0.1703v0.4908c-0.4064 -0.0619 -0.7784 -0.2639 -1.0517 -0.571 -0.4138 -0.3616 -0.7015 -0.8458 -0.8213 -1.3822 -0.04958 -0.3736 -0.00291 -0.7537 0.1356 -1.1043 0.1384 -0.35056 0.3641 -0.65996 0.6557 -0.89887 0.2642 -0.24789 0.5839 -0.42904 0.9323 -0.52835 0.3485 -0.0993 0.7156 -0.1139 1.0709 -0.04256 0.4792 0.07475 0.9104 0.33347 1.2019 0.72115 0.283 0.4415 0.4261 0.95813 0.4106 1.48233 0.0336 0.3689 -0.0357 0.7399 -0.2003 1.0718 -0.2149 0.3248 -0.4988 0.5984 -0.8313 0.8012 -0.0383 0.0236 -0.0715 0.0545 -0.0978 0.0909 -0.0263 0.0365 -0.0451 0.0778 -0.0553 0.1216 -0.0103 0.0437 -0.0118 0.0891 -0.0044 0.1334 0.0074 0.0444 0.0235 0.0868 0.0473 0.1249 0.0493 0.0753 0.1257 0.1287 0.2134 0.1492 0.0876 0.0205 0.1798 0.0065 0.2574 -0.039 0.4418 -0.2451 0.8221 -0.5876 1.1117 -1.0016 0.2835 -0.4349 0.4332 -0.9433 0.4307 -1.4624 0.0644 -0.71204 -0.0856 -1.42707 -0.4307 -2.05326 -0.4213 -0.59632 -1.0498 -1.01414 -1.7628 -1.17187Z" clip-rule="evenodd" stroke-width="1"></path>
</svg>