<svg xmlns="http://www.w3.org/2000/svg" fill="none" viewBox="0 0 14 14" id="Affordable-And-Clean-Energy--Streamline-Core-Remix">
  <desc>
    Affordable And Clean Energy Streamline Icon: https://streamlinehq.com
  </desc>
  <g id="Free Remix/Nature Ecology/affordable-and-clean-energy">
    <path id="Union" fill="#000000" fill-rule="evenodd" d="M7 1.75c-0.34518 0 -0.625 -0.27982 -0.625 -0.625v-0.5C6.375 0.279822 6.65482 0 7 0s0.625 0.279822 0.625 0.625v0.5c0 0.34518 -0.27982 0.625 -0.625 0.625Zm3.7123 1.53764c-0.2441 -0.24407 -0.2441 -0.6398 0 -0.88388l0.3535 -0.35355c0.2441 -0.24408 0.6399 -0.24408 0.8839 0 0.2441 0.24408 0.2441 0.6398 0 0.88388l-0.3535 0.35355c-0.2441 0.24408 -0.6398 0.24408 -0.8839 0ZM2.93413 2.05025c-0.24408 -0.24408 -0.63981 -0.24408 -0.88388 0 -0.24408 0.24407 -0.24408 0.6398 0 0.88388l0.35355 0.35355c0.24408 0.24408 0.6398 0.24408 0.88388 0 0.24408 -0.24408 0.24408 -0.6398 0 -0.88388l-0.35355 -0.35355ZM7 3.625C5.13604 3.625 3.625 5.13604 3.625 7S5.13604 10.375 7 10.375 10.375 8.86396 10.375 7 8.86396 3.625 7 3.625ZM2.375 7c0 -2.55432 2.07068 -4.625 4.625 -4.625S11.625 4.44568 11.625 7 9.55432 11.625 7 11.625 2.375 9.55432 2.375 7Zm3.10532 -1.25177c0.32229 0.1236 0.48336 0.48506 0.35976 0.80735 -0.0526 0.13716 -0.08172 0.28666 -0.08172 0.44443 0 0.68575 0.55591 1.24166 1.24167 1.24166 0.68575 0 1.24167 -0.55591 1.24167 -1.24166 0 -0.15777 -0.02913 -0.30727 -0.08173 -0.44443 -0.12359 -0.32229 0.03748 -0.68375 0.35977 -0.80735 0.32229 -0.1236 0.68375 0.03747 0.80735 0.35976 0.10653 0.27778 0.16461 0.57885 0.16461 0.89202 0 1.37611 -1.11556 2.49166 -2.49167 2.49166S4.50836 8.37612 4.50836 7.00001c0 -0.31317 0.05808 -0.61424 0.16461 -0.89202 0.12359 -0.32229 0.48506 -0.48336 0.80735 -0.35976ZM7.625 4.8667c0 -0.34518 -0.27982 -0.625 -0.625 -0.625s-0.625 0.27982 -0.625 0.625v1.06667c0 0.34517 0.27982 0.625 0.625 0.625s0.625 -0.27983 0.625 -0.625V4.8667ZM12.25 7c0 -0.34518 0.2798 -0.625 0.625 -0.625h0.5c0.3452 0 0.625 0.27982 0.625 0.625s-0.2798 0.625 -0.625 0.625h-0.5c-0.3452 0 -0.625 -0.27982 -0.625 -0.625ZM0.625 6.375C0.279822 6.375 0 6.65482 0 7s0.279822 0.625 0.625 0.625h0.5c0.34518 0 0.625 -0.27982 0.625 -0.625s-0.27982 -0.625 -0.625 -0.625h-0.5Zm10.0873 4.3374c0.2441 -0.2441 0.6398 -0.2441 0.8839 0l0.3535 0.3535c0.2441 0.2441 0.2441 0.6398 0 0.8839 -0.244 0.2441 -0.6398 0.2441 -0.8839 0l-0.3535 -0.3536c-0.2441 -0.244 -0.2441 -0.6398 0 -0.8838Zm-8.66205 0.3535c-0.24408 0.244 -0.24408 0.6398 0 0.8839 0.24407 0.244 0.6398 0.244 0.88388 0l0.35355 -0.3536c0.24408 -0.2441 0.24408 -0.6398 0 -0.8839 -0.24408 -0.2441 -0.6398 -0.2441 -0.88388 0l-0.35355 0.3536ZM6.375 13.375c0 0.3452 0.27982 0.625 0.625 0.625s0.625 -0.2798 0.625 -0.625v-0.5c0 -0.3452 -0.27982 -0.625 -0.625 -0.625s-0.625 0.2798 -0.625 0.625v0.5Z" clip-rule="evenodd" stroke-width="1"></path>
  </g>
</svg>