<svg xmlns="http://www.w3.org/2000/svg" fill="none" viewBox="0 0 14 14" id="Log--Streamline-Core-Remix">
  <desc>
    Log Streamline Icon: https://streamlinehq.com
  </desc>
  <g id="Free Remix/Nature Ecology/log--nature-tree-plant-circle-round-log">
    <path id="Union" fill="#000000" fill-rule="evenodd" d="M5.99372 1.00628c-0.34171 -0.341707 -0.89573 -0.341707 -1.23744 0 -0.34171 0.34171 -0.34171 0.89573 0 1.23744L5.51256 3H2.875c-0.10494 0 -0.20384 0.02586 -0.29068 0.07156 -0.76198 0.20582 -1.36453 0.8319 -1.773435 1.56793C0.297796 5.56305 0 6.79659 0 8.125c0 1.32841 0.297796 2.5619 0.810885 3.4855 0.408905 0.736 1.011455 1.3621 1.773435 1.5679 0.08684 0.0457 0.18574 0.0716 0.29068 0.0716h8c1.0204 0 1.8128 -0.7371 2.3141 -1.6395 0.5131 -0.9236 0.8109 -2.15709 0.8109 -3.4855 0 -1.32841 -0.2978 -2.56195 -0.8109 -3.48551C12.6878 3.73711 11.8954 3 10.875 3H7.98744L5.99372 1.00628Zm-0.5546 10.60422c-0.07451 0.1341 -0.15544 0.2646 -0.24259 0.3895H10.875c0.3603 0 0.8179 -0.2703 1.2214 -0.9965 0.3918 -0.7052 0.6536 -1.72163 0.6536 -2.8785 0 -0.21347 -0.0089 -0.42216 -0.0259 -0.625H8.375c-0.34518 0 -0.625 -0.27982 -0.625 -0.625s0.27982 -0.625 0.625 -0.625h4.1261c-0.1075 -0.37833 -0.2453 -0.71665 -0.4047 -1.00345 -0.4035 -0.7263 -0.8611 -0.99655 -1.2214 -0.99655H5.19653c0.08715 0.12493 0.16808 0.25539 0.24259 0.38949 0.51308 0.92356 0.81088 2.1571 0.81088 3.48551 0 0.3847 -0.02497 0.76144 -0.07292 1.125H7.75c0.34517 0 0.625 0.27982 0.625 0.625 0 0.3452 -0.27983 0.625 -0.625 0.625H5.9065c-0.12519 0.4038 -0.28228 0.7773 -0.46738 1.1105Z" clip-rule="evenodd" stroke-width="1"></path>
  </g>
</svg>