<svg xmlns="http://www.w3.org/2000/svg" fill="none" viewBox="0 0 14 14" id="Shell--Streamline-Core-Remix">
  <desc>
    Shell Streamline Icon: https://streamlinehq.com
  </desc>
  <g id="Free Remix/Nature Ecology/shell--nature-sealife-animals">
    <path id="Union" fill="#000000" fill-rule="evenodd" d="M6.99645 1.15991c-0.98605 0 -1.86416 0.45913 -2.43327 1.17366 -0.32684 -0.11657 -0.67866 -0.18 -1.04454 -0.18 -1.71713 0 -3.109144 1.39201 -3.109144 3.10915 0 0.30699 0.044673 0.60434 0.128076 0.88547 -0.053776 0.07375 -0.105375 0.14654 -0.154827 0.21811 -0.823098 1.19129 -0.240184 2.64888 0.884705 3.27382l2.62007 1.45558v0.6194c0 0.8975 0.72754 1.625 1.625 1.625h2.9683c0.89746 0 1.62498 -0.7275 1.62498 -1.625v-0.5954l2.6327 -1.47797c1.1184 -0.62788 1.6957 -2.08076 0.8765 -3.26848 -0.051 -0.07381 -0.1042 -0.14893 -0.1597 -0.22506 0.0834 -0.28113 0.1281 -0.57848 0.1281 -0.88547 0 -1.71714 -1.392 -3.10915 -3.1091 -3.10915 -0.3659 0 -0.71774 0.06343 -1.04457 0.18 -0.56912 -0.71453 -1.44723 -1.17366 -2.43328 -1.17366ZM6.1153 6.1166l-0.66227 -2.88454c0.33453 -0.49685 0.9014 -0.82215 1.54342 -0.82215 0.64217 0 1.20916 0.32546 1.54365 0.82251L7.87792 6.1166c-0.07724 0.33642 0.13288 0.67176 0.4693 0.749 0.33643 0.07724 0.67177 -0.13287 0.74901 -0.46929l0.65352 -2.84646c0.22221 -0.09415 0.46675 -0.14628 0.72455 -0.14628 1.0267 0 1.8591 0.83237 1.8591 1.85915 0 0.15681 -0.0193 0.30855 -0.0555 0.45323L9.76291 7.34403c-0.28976 0.18757 -0.3726 0.57454 -0.18502 0.8643 0.18757 0.28976 0.57451 0.3726 0.86431 0.18502l2.1067 -1.36375 0.0371 0.05338c0.3131 0.45401 0.1612 1.12034 -0.4594 1.46876L9.36362 10.1028H4.67426L1.8745 8.54743c-0.62439 -0.34689 -0.77777 -1.01551 -0.46335 -1.47058 0.01088 -0.01574 0.02187 -0.03154 0.03297 -0.04741l2.10694 1.36391c0.28976 0.18758 0.67672 0.10474 0.8643 -0.18502 0.18758 -0.28976 0.10474 -0.67673 -0.18503 -0.8643L1.71491 5.71569c-0.03615 -0.14461 -0.05541 -0.29625 -0.05541 -0.45297 0 -1.02678 0.83237 -1.85915 1.85914 -1.85915 0.2579 0 0.50257 0.05219 0.72487 0.14643l0.65348 2.84631c0.07724 0.33642 0.41258 0.54653 0.74901 0.46929 0.33642 -0.07724 0.54654 -0.41258 0.4693 -0.749Z" clip-rule="evenodd" stroke-width="1"></path>
  </g>
</svg>