<svg xmlns="http://www.w3.org/2000/svg" fill="none" viewBox="0 0 14 14" id="Shovel-Rake--Streamline-Core-Remix">
  <desc>
    Shovel Rake Streamline Icon: https://streamlinehq.com
  </desc>
  <g id="Free Remix/Nature Ecology/shovel-rake--nature-crops-plants">
    <path id="Union" fill="#000000" fill-rule="evenodd" d="M3.875 0.375C2.41416 0.375 1.1564 1.40612 0.869905 2.83859L0.288642 5.7449C0.262943 5.8734 0.25 6.00411 0.25 6.13515c0 1.09896 0.89089 1.98985 1.98985 1.98985H3.25v3.75h-0.875c-0.48325 0 -0.875 0.3918 -0.875 0.875s0.39175 0.875 0.875 0.875h3c0.48325 0 0.875 -0.3918 0.875 -0.875s-0.39175 -0.875 -0.875 -0.875H4.5v-3.75h1.01015C6.60911 8.125 7.5 7.23411 7.5 6.13515c0 -0.13104 -0.01294 -0.26175 -0.03864 -0.39025L6.8801 2.83859C6.5936 1.40612 5.33584 0.375 3.875 0.375Zm0.625 6.5h1.01015c0.40861 0 0.73985 -0.33124 0.73985 -0.73985 0 -0.04872 -0.00481 -0.09733 -0.01437 -0.1451l0.61287 -0.12257 -0.61287 0.12257 -0.58126 -2.90632C5.48473 2.23554 4.73999 1.625 3.875 1.625c-0.86499 0 -1.60973 0.61054 -1.77937 1.45873l-0.58126 2.90632c-0.00956 0.04777 -0.01437 0.09638 -0.01437 0.1451 0 0.40861 0.33124 0.73985 0.73985 0.73985H3.25V5.5c0 -0.34518 0.27982 -0.625 0.625 -0.625s0.625 0.27982 0.625 0.625v1.375Zm7.625 -4.75h-0.875v5.31251c1.4264 0.28955 2.5 1.55064 2.5 3.06249V13c0 0.3452 -0.2798 0.625 -0.625 0.625S12.5 13.3452 12.5 13v-2.5c0 -0.81639 -0.5218 -1.51091 -1.25 -1.76831V13c0 0.3452 -0.2798 0.625 -0.625 0.625S10 13.3452 10 13V8.73169c-0.72824 0.2574 -1.25 0.95192 -1.25 1.76831V13c0 0.3452 -0.27982 0.625 -0.625 0.625S7.5 13.3452 7.5 13v-2.5c0 -1.51185 1.0736 -2.77294 2.5 -3.06249V2.125h-0.875c-0.48325 0 -0.875 -0.39175 -0.875 -0.875 0 -0.483249 0.39175 -0.875 0.875 -0.875h3c0.4832 0 0.875 0.391751 0.875 0.875 0 0.48325 -0.3918 0.875 -0.875 0.875Z" clip-rule="evenodd" stroke-width="1"></path>
  </g>
</svg>