<svg xmlns="http://www.w3.org/2000/svg" fill="none" viewBox="0 0 48 48" id="3d-Coordinate-Axis--Streamline-Plump-Gradient">
  <desc>
    3d Coordinate Axis Streamline Icon: https://streamlinehq.com
  </desc>
  <g id="3d-coordinate-axis">
    <path id="Union" fill="url(#paint0_linear_7979_11)" fill-rule="evenodd" d="M21.7537 2.51685c1.3852-.86622 3.1069-.86622 4.4921 0 1.8984 1.18716 5.0911 3.67673 7.8103 8.19425.5958.9898.7406 2.1645.324 3.2079-.426 1.0672-1.3733 1.824-2.5838 2.0405-.9533.1705-2.1937.3264-3.7982.4264v10.573l8.214 4.7424c.9508-1.4488 1.7531-2.512 2.4104-3.2915.7927-.9401 1.9218-1.3821 3.059-1.2174 1.112.161 2.0569.8738 2.6162 1.8846 2.5527 4.6136 3.1123 8.6234 3.1912 10.8611.0576 1.6327-.8032 3.1237-2.246 3.8902-1.9773 1.0505-5.7297 2.5707-11.0016 2.6668-1.155.0211-2.2447-.4409-2.9401-1.3233-.7113-.9026-.893-2.1014-.4752-3.258.3109-.8609.7615-1.9374 1.4143-3.2685l-8.2422-4.7593-8.2396 4.7578c.6531 1.3318 1.1039 2.4087 1.415 3.27.4178 1.1566.236 2.3554-.4752 3.258-.6954.8824-1.7851 1.3444-2.9401 1.3233-5.27192-.0961-9.02433-1.6163-11.00165-2.6668-1.44276-.7665-2.30359-2.2575-2.246021-3.8902.0789-2.2377.638551-6.2475 3.191271-10.8611.55929-1.0108 1.50419-1.7236 2.61613-1.8846 1.13721-.1647 2.2663.2773 3.05905 1.2174.65712.7793 1.45912 1.842 2.40942 3.2901l8.2119-4.7412.0007-10.573c-1.6034-.1-2.843-.2558-3.7958-.4262-1.2105-.2165-2.1578-.9733-2.5838-2.0405-.4166-1.0434-.2718-2.2181.324-3.2079 2.7191-4.51752 5.9119-7.00709 7.8103-8.19425Z" clip-rule="evenodd"></path>
  </g>
  <defs>
    <linearGradient id="paint0_linear_7979_11" x1="8.188" x2="45.194" y1="10.45" y2="32.035" gradientUnits="userSpaceOnUse">
      <stop stop-color="#ffd600"></stop>
      <stop offset="1" stop-color="#00d078"></stop>
    </linearGradient>
  </defs>
</svg>