<svg xmlns="http://www.w3.org/2000/svg" fill="none" viewBox="0 0 48 48" id="Add-Bell-Notification--Streamline-Plump-Gradient">
  <desc>
    Add Bell Notification Streamline Icon: https://streamlinehq.com
  </desc>
  <g id="add-bell-notification--notification-alarm-alert-bell-add">
    <path id="Union" fill="url(#paint0_linear_7979_20)" fill-rule="evenodd" d="M31.2153 2.13655c-.0536.28025-.0866.56161-.0986.84028l-.0057.13417-.1342.00569c-2.4345.10534-5.0738 1.80388-5.3865 4.94476C25.5349 8.61775 25.5 9.26134 25.5 10c0 .7387.0349 1.3822.0903 1.9386.3127 3.1408 2.952 4.8394 5.3865 4.9447l.1342.0057.0057.1342c.1053 2.4345 1.8039 5.0738 4.9448 5.3865.5562.0554 1.1998.0903 1.9385.0903.7387 0 1.3822-.0349 1.9386-.0903.4354-.0433.8431-.1314 1.2227-.2574l.0191.2325c.1874 2.279.911 4.4814 2.112 6.4273l1.877 3.0415c.7897 1.2797 1.0892 2.784.5922 4.1402-.5186 1.4149-1.7788 2.3273-3.3837 2.5715-3.1762.4833-8.7164.9347-18.378.9347-9.6615 0-15.2018-.4514-18.37794-.9347-1.60495-.2442-2.86514-1.1566-3.38371-2.5715-.49707-1.3562-.19757-2.8605.59222-4.1402l1.877-3.0414c1.20094-1.946 1.92461-4.1484 2.11192-6.4274l.53875-6.5547C8.07012 7.16763 15.3083.5 23.9999.5c2.577 0 5.0262.58611 7.2154 1.63655ZM24.0005 42.4998c-3.267 0-6.0804-.0511-8.5049-.1385 1.5576 3.1193 4.7808 5.2616 8.5044 5.2616 3.7236 0 6.9468-2.1423 8.5044-5.2615-2.4242.0873-5.2374.1384-8.5039.1384ZM36.3586.575508C36.8115.530422 37.3558.5 38 .5s1.1885.030422 1.6414.075508c1.3575.13515 2.19 1.266872 2.2447 2.531012.0306.70583.0612 1.66031.083 2.92434 1.2641.0218 2.2185.05248 2.9244.08302 1.2641.0547 2.3958.8872 2.531 2.24476.0451.45287.0755.99714.0755 1.64136 0 .6442-.0304 1.1885-.0755 1.6414-.1352 1.3575-1.2669 2.19-2.531 2.2447-.7059.0306-1.6603.0612-2.9244.083-.0218 1.2641-.0524 2.2185-.083 2.9244-.0547 1.2641-.8872 2.3958-2.2447 2.531-.4529.0451-.9972.0755-1.6414.0755s-1.1885-.0304-1.6414-.0755c-1.3575-.1352-2.19-1.2669-2.2447-2.531-.0306-.7059-.0612-1.6603-.083-2.9244-1.2641-.0218-2.2185-.0524-2.9244-.083-1.2641-.0547-2.3958-.8872-2.531-2.2447-.0451-.4529-.0755-.9972-.0755-1.6414 0-.64422.0304-1.18849.0755-1.64136.1352-1.35757 1.2669-2.19006 2.531-2.24476.7059-.03054 1.6603-.06122 2.9244-.08302.0218-1.26403.0524-2.2185.083-2.92434.0547-1.26414.8872-2.395862 2.2447-2.531012Z" clip-rule="evenodd"></path>
  </g>
  <defs>
    <linearGradient id="paint0_linear_7979_20" x1="47.346" x2="-7.43" y1="47.633" y2="17.878" gradientUnits="userSpaceOnUse">
      <stop stop-color="#ff51e3"></stop>
      <stop offset="1" stop-color="#1b4dff"></stop>
    </linearGradient>
  </defs>
</svg>