<svg xmlns="http://www.w3.org/2000/svg" fill="none" viewBox="0 0 48 48" id="Ampersand--Streamline-Plump-Gradient">
  <desc>
    Ampersand Streamline Icon: https://streamlinehq.com
  </desc>
  <g id="ampersand">
    <path id="Union" fill="url(#paint0_linear_7979_53)" fill-rule="evenodd" d="M21.6491.5c-3.1118 0-6.1881.88226-8.499 2.63698-2.324 1.76465-3.85794 4.40283-3.85794 7.84232 0 1.516.33049 3.4084.88374 5.1991.475 1.5371 1.1262 3.0388 1.9048 4.1813C6.8952 22.68 3.5 27.2759 3.5 33.0978c0 4.6352 2.0024 8.2525 5.09017 10.6996C11.6668 46.2356 15.8022 47.5 20.0818 47.5c4.7166 0 9.4653-1.3047 13.1231-4.421.2111.2233.4245.4568.644.697l.0011.0011c.3304.3616.6738.7373 1.0305 1.0993.7088.7192 1.4967 1.4125 2.4082 1.8755 1.7921 1.0267 4.1977.7563 5.6406-.7817.5656-.5727.9819-1.254 1.2494-2.0368.3718-1.0884-.1068-2.1825-.8203-2.9032l-4.4128-4.4568c.6773-1.4856 1.4394-3.8114 1.985-6.2868.5858-2.6578.9369-5.5534.6351-7.8076-.1952-1.4577-1.4073-2.4416-2.8062-2.5681-.4591-.0415-.9877-.07-1.5738-.07-.4278 0-.8251.0152-1.187.0396-1.6608.1117-2.7002 1.5534-2.7669 3.088-.1007 2.3159-.38 4.6442-.9856 6.8348l-6.5311-6.6382c.125-.073.2667-.1581.4224-.2549.6104-.3797 1.4388-.9434 2.3133-1.6811 1.7399-1.4677 3.7093-3.6638 4.454-6.5117 1.0882-4.1614.253-7.73188-1.883-10.26337C28.8931 1.93111 25.5232.5 21.6491.5Zm-2.9753 11.374c0-1.3433.5491-2.28096 1.3421-2.83244.8054-.56018 1.9137-.7563 3.073-.49725.844.1886 1.6308.63996 2.126 1.33825.4858.68524.7299 1.66254.4005 2.99604-.1536.6217-.5353 1.2481-1.0625 1.8503-.5246.5991-1.1711 1.1493-1.8155 1.619-.643.4688-1.2732.8498-1.757 1.1125-.2059.1118-.3827.2007-.5203.265-.4306-.595-.8508-1.536-1.1796-2.5783-.3785-1.1997-.6067-2.4396-.6067-3.2731Zm-3.769 25.8622c-1.9008-1.6514-2.2455-3.8736-1.5233-5.9154.6987-1.9751 2.3982-3.768 4.6533-4.6263l8.9212 9.4395c-1.6683 1.341-3.7351 2.3459-5.8113 2.687-2.2374.3676-4.4582-.037-6.2399-1.5848Z" clip-rule="evenodd"></path>
  </g>
  <defs>
    <linearGradient id="paint0_linear_7979_53" x1="10.171" x2="45.153" y1="9.538" y2="26.367" gradientUnits="userSpaceOnUse">
      <stop stop-color="#ffd600"></stop>
      <stop offset="1" stop-color="#00d078"></stop>
    </linearGradient>
  </defs>
</svg>