<svg xmlns="http://www.w3.org/2000/svg" fill="none" viewBox="0 0 48 48" id="Bomb--Streamline-Plump-Gradient">
  <desc>
    Bomb Streamline Icon: https://streamlinehq.com
  </desc>
  <g id="bomb--delete-bomb-remove">
    <path id="Subtract" fill="url(#paint0_linear_7979_155)" fill-rule="evenodd" d="M35.1848 6.30822c.2648.19064.5403.40081.8252.63239 2.5487-2.78627 6.7357-3.42421 10.0155-1.45632l.5036.30212c.9471.5683 1.2543 1.79682.686 2.74398-.5683.94716-1.7969 1.25429-2.744.68599l-.5036-.30212c-1.6821-1.00928-3.8415-.64769-5.1045.83789.311.37025.5862.72585.8297 1.06395 1.7789 2.4709.8046 5.4107-.967 7.1823l-.6567.6567c.9227 2.2672 1.431 4.7472 1.431 7.3459 0 10.7695-8.7304 19.5-19.5 19.5-10.76955 0-19.5-8.7305-19.5-19.5C.5 15.2314 9.23045 6.50098 20 6.50098c2.5986 0 5.0785.50831 7.3457 1.43092l.6567-.65673c1.7717-1.77163 4.7115-2.74589 7.1824-.96695ZM6 26.001c0 1.1045.89543 2 2 2s2-.8955 2-2c0-5.5229 4.4772-10 10-10 1.1046 0 2-.8955 2-2 0-1.1046-.8954-2-2-2-7.732 0-14 6.268-14 14Z" clip-rule="evenodd"></path>
  </g>
  <defs>
    <linearGradient id="paint0_linear_7979_155" x1="51.574" x2="-5.956" y1="54.218" y2="7.551" gradientUnits="userSpaceOnUse">
      <stop stop-color="#ffd600"></stop>
      <stop offset="1" stop-color="#ff007a"></stop>
    </linearGradient>
  </defs>
</svg>