<svg xmlns="http://www.w3.org/2000/svg" fill="none" viewBox="0 0 48 48" id="Compress-Pdf--Streamline-Plump-Gradient">
  <desc>
    Compress PDF Streamline Icon: https://streamlinehq.com
  </desc>
  <g id="compress-PDF--essential-files-folder-compress-PDF">
    <path id="Union" fill="url(#paint0_linear_7979_272)" fill-rule="evenodd" d="M27.1366.52331c.1209.001825.2427.006554.3653.01447.0243 3.50166.2788 7.17495.5246 9.95532.3057 3.4583 3.0224 6.1749 6.4807 6.4806 2.7711.2449 6.4293.4985 9.9205.5242.005.0888.0083.1773.0101.2653.0153.7354.0282 1.5007.0382 2.2966-.308.0714-.6046.2017-.8722.3898-.9013.6332-2.8393 2.1101-4.3911 4.1959-1.2612 1.6954-1.2613 4.0135-.0001 5.7089 1.5518 2.0859 3.4899 3.5628 4.3912 4.1961.2151.1512.4489.265.6923.341-.1003 2.4506-.2257 4.4252-.3479 5.9663-.2605 3.2856-2.7873 5.8344-6.0739 6.1159-3.0401.2604-7.6649.5263-13.8743.5263s-10.8342-.2659-13.8743-.5263c-3.28661-.2815-5.81343-2.8303-6.07393-6.1159-.12218-1.5411-.24758-3.5156-.3479-5.9662.2434-.0759.47721-.1898.69234-.341.90127-.6332 2.83935-2.1101 4.39111-4.1961 1.26118-1.6953 1.26118-4.0135-.00005-5.7088-1.55176-2.0859-3.48981-3.5627-4.39107-4.196-.26764-.188-.56419-.3183-.87215-.3898.0739-5.9012.30611-10.12252.52772-12.91769.2605-3.28565 2.78732-5.83445 6.07393-6.11593C13.1658.765905 17.7906.5 24 .5c1.0948 0 2.1403.008266 3.1366.02331ZM13 19.5c-.8284 0-1.5.6716-1.5 1.5s.6716 1.5 1.5 1.5h11c.8284 0 1.5-.6716 1.5-1.5s-.6716-1.5-1.5-1.5H13Zm0 8c-.8284 0-1.5.6716-1.5 1.5s.6716 1.5 1.5 1.5h22c.8284 0 1.5-.6716 1.5-1.5s-.6716-1.5-1.5-1.5H13Zm0 8c-.8284 0-1.5.6716-1.5 1.5s.6716 1.5 1.5 1.5h22c.8284 0 1.5-.6716 1.5-1.5s-.6716-1.5-1.5-1.5H13ZM38.0607 6.93934c2.853 2.85308 4.5638 5.70956 5.4794 7.54686-3.0967-.057-6.278-.2807-8.7687-.5009-2.0102-.1776-3.5789-1.7463-3.7565-3.7564-.2202-2.49078-.444-5.67216-.501-8.76892 1.8378.91589 4.6941 2.62666 7.5468 5.47936ZM2.94055 22.4822c-.37123-.2527-.84739-.3295-1.28726-.1644-.4499.1688-.769125.5573-.86314 1.0294C.653238 24.0348.5 25.2929.5 27.4998c0 2.207.153238 3.465.290151 4.1526.094014.4722.413239.8607.863139 1.0295.43988.165.91604.0882 1.28726-.1644.02011-.0137.03651-.0257.04985-.0358.10779-.081 2.49744-1.8807 3.7911-3.6197.60232-.8097.60231-1.9148-.00003-2.7245-1.29365-1.7389-3.68328-3.5385-3.79108-3.6196-.01333-.01-.02973-.022-.04984-.0357ZM46.35 22.3178c-.4399-.1651-.9161-.0883-1.2873.1644-.0201.0137-.0365.0257-.0498.0357-.1078.0811-2.4975 1.8807-3.7911 3.6196-.6024.8097-.6024 1.9148 0 2.7245 1.2936 1.739 3.6833 3.5387 3.7911 3.6197.0133.0101.0297.0221.0498.0358.3712.2526.8474.3294 1.2873.1644.4499-.1688.7691-.5573.8631-1.0295.1369-.6876.2902-1.9456.2902-4.1526 0-2.2069-.1533-3.465-.2902-4.1526-.094-.4721-.4132-.8606-.8631-1.0294Z" clip-rule="evenodd"></path>
  </g>
  <defs>
    <linearGradient id="paint0_linear_7979_272" x1="51.577" x2="-11.821" y1="57.455" y2="12.418" gradientUnits="userSpaceOnUse">
      <stop stop-color="#ffd600"></stop>
      <stop offset="1" stop-color="#ff007a"></stop>
    </linearGradient>
  </defs>
</svg>