<svg xmlns="http://www.w3.org/2000/svg" fill="none" viewBox="0 0 48 48" id="Download-Box-2--Streamline-Plump-Gradient">
  <desc>
    Download Box 2 Streamline Icon: https://streamlinehq.com
  </desc>
  <g id="download-box-2--arrow-button-down-download-internet-network-server-upload">
    <path id="Union" fill="url(#paint0_linear_7979_408)" fill-rule="evenodd" d="m27.9602 21.4284-.4087-17.78277c-.0305-1.32687-.935-2.4782-2.2575-2.59024C24.8978 1.02182 24.4626 1 24.0007 1c-.4621 0-.8974.02184-1.2938.05542-1.3227.11206-2.2274 1.26352-2.2578 2.59056l-.4084 17.78242c-1.494.0759-2.7964.1881-3.8931.3092-2.0469.2262-2.8407 2.3488-1.4362 3.8548.7246.7769 1.6269 1.7093 2.7435 2.812 2.2713 2.243 3.9513 3.4855 5.0404 4.1613.9408.5839 2.0693.5839 3.0102.0001 1.0891-.6757 2.7693-1.9182 5.0403-4.1614 1.1165-1.1028 2.0187-2.0352 2.7432-2.8122 1.4042-1.5061.6104-3.6284-1.4363-3.8546-1.0965-.1211-2.3987-.2333-3.8925-.3092ZM7 28.9304c0-4.359.18276-7.5896.38209-9.8167.08898-.9941.86093-1.795 2.03948-1.8644 1.38663-.0817 3.11563-.1662 5.17893-.2353 1.6559-.0555 2.9533-1.4429 2.8978-3.0988-.0555-1.656-1.4429-2.9534-3.0988-2.8979-2.1145.0709-3.8941.1577-5.33072.2423-3.96112.2333-7.29278 3.1852-7.6628 7.3192C1.18977 20.9945 1 24.404 1 28.9304c0 4.5775.19408 8.0127.41332 10.4331.36928 4.0766 3.63206 7.0165 7.57018 7.2532 3.1478.1892 8.0657.3827 15.0165.3827 6.9508 0 11.8687-.1934 15.0165-.3826 3.9381-.2367 7.2009-3.1767 7.5702-7.2533.2192-2.4204.4133-5.8555.4133-10.4331 0-4.5264-.1898-7.9359-.406-10.3516-.37-4.134-3.7016-7.0859-7.6628-7.3192-1.4365-.0846-3.2162-.1714-5.3307-.2423-1.6559-.0555-3.0433 1.2419-3.0988 2.8979-.0555 1.6559 1.2419 3.0433 2.8978 3.0988 2.0633.0691 3.7923.1536 5.1789.2353 1.1786.0694 1.9505.8703 2.0395 1.8644.1993 2.2271.3821 5.4577.3821 9.8167 0 4.4082-.1869 7.6624-.3889 9.8918-.0883.9758-.8287 1.7377-1.9546 1.8054-3.0191.1814-7.8166.3718-14.6565.3718-6.8399 0-11.6374-.1904-14.65652-.3718-1.12586-.0677-1.86623-.8296-1.95463-1.8054C7.18691 36.5928 7 33.3386 7 28.9304Z" clip-rule="evenodd"></path>
  </g>
  <defs>
    <linearGradient id="paint0_linear_7979_408" x1="2.768" x2="55.195" y1="4.717" y2="34.267" gradientUnits="userSpaceOnUse">
      <stop stop-color="#00d078"></stop>
      <stop offset="1" stop-color="#007df0"></stop>
    </linearGradient>
  </defs>
</svg>