<svg xmlns="http://www.w3.org/2000/svg" fill="none" viewBox="0 0 48 48" id="Firefighter-Truck--Streamline-Plump-Gradient">
  <desc>
    Firefighter Truck Streamline Icon: https://streamlinehq.com
  </desc>
  <g id="firefighter-truck">
    <path id="Union" fill="url(#paint0_linear_7979_510)" fill-rule="evenodd" d="M34.8445 4.81364c1.0014-.46616 1.4353-1.65584.9691-2.65722-.4661-1.00138-1.6558-1.435266-2.6572-.96911L4.76243 14.4052c-2.12948.1904-3.870831 1.8784-4.001352 4.0877C.636993 20.5934.5 23.895.5 28.2347c0 4.0001.11639 6.7472.232887 8.4953.145977 2.1905 1.907003 3.8106 4.031663 3.9138.11426.0055.23249.0112.35469.0169C5.75072 37.1576 8.815 34.5 12.5 34.5c3.8026 0 6.9442 2.8299 7.4337 6.4986.022.0009.0441.0014.0663.0014h7.9529c.0157.0005.0315.0007.0472.0007h.0659C28.5546 37.331 31.6967 34.5 35.5 34.5c3.6875 0 6.7535 2.6612 7.3821 6.1679.1328-.0065.2615-.0128.386-.0191 2.2362-.1129 4.0437-1.8835 4.1446-4.1487.1733-3.8891.0525-7.4248-.0524-9.4154-.0701-1.331-.448-2.6312-1.1185-3.7935-1.9762-3.4255-3.8713-5.9036-5.0833-7.3503-1.0341-1.2345-2.4993-2.0244-4.109-2.1956-.2024-.0216-.4037-.0409-.6036-.0582-.0342-.6059-.0816-1.1845-.1328-1.7079C36.1727 10.5434 34.9426 9.5 33.5 9.5c-1.4426 0-2.6727 1.0434-2.8131 2.4792-.0511.5221-.0983 1.0992-.1326 1.7034-.1095.0087-.2164.0176-.3206.0267-2.2089.1936-3.7539 2.0352-3.8235 4.1253L26.4047 18h-3.0404c-.2384-2.2632-2.1618-4.0056-4.4794-3.9744-1.0581.0143-2.3922.0365-3.9818.0711l19.9414-9.28306Zm.885 13.83156c-.456-.0636-1.8267-.2314-3.0739-.0901-1.1259.1275-1.9177 1.0254-2.0367 2.0512-.2409 2.0763-.0564 5.1265.0366 6.3931.0712.9703.7374 1.9286 1.8513 2.1714 2.0698.4513 5.1409.3308 6.4167.2584 1.0566-.06 1.9689-.7921 2.2305-1.8423.1184-.4752.2834-1.2051.3314-1.8188.0363-.4653-.0756-.8908-.2578-1.2413-.2267-.4363-.7778-1.4476-1.5466-2.5202-.748-1.0434-1.8017-2.288-3.0675-3.05-.2817-.1696-.5837-.2695-.884-.3114ZM8 20.5c-.82843 0-1.5.6716-1.5 1.5s.67157 1.5 1.5 1.5h8c.8284 0 1.5-.6716 1.5-1.5s-.6716-1.5-1.5-1.5H8ZM6.5 28c0-.8284.67157-1.5 1.5-1.5h8c.8284 0 1.5.6716 1.5 1.5s-.6716 1.5-1.5 1.5H8c-.82843 0-1.5-.6716-1.5-1.5ZM7 42c0 3.0376 2.46243 5.5 5.5 5.5 3.0376 0 5.5-2.4624 5.5-5.5s-2.4624-5.5-5.5-5.5C9.46243 36.5 7 38.9624 7 42Zm23 0c0 3.0376 2.4624 5.5 5.5 5.5S41 45.0376 41 42s-2.4624-5.5-5.5-5.5S30 38.9624 30 42Z" clip-rule="evenodd"></path>
  </g>
  <defs>
    <linearGradient id="paint0_linear_7979_510" x1="8.183" x2="45.952" y1="9.942" y2="31.094" gradientUnits="userSpaceOnUse">
      <stop stop-color="#ffd600"></stop>
      <stop offset="1" stop-color="#00d078"></stop>
    </linearGradient>
  </defs>
</svg>