<svg xmlns="http://www.w3.org/2000/svg" fill="none" viewBox="0 0 48 48" id="Give-Gift--Streamline-Plump-Gradient">
  <desc>
    Give Gift Streamline Icon: https://streamlinehq.com
  </desc>
  <g id="give-gift--reward-social-rating-media-queen-vip-gift">
    <path id="Union" fill="url(#paint0_linear_7979_543)" fill-rule="evenodd" d="M26.0751 1.66885C26.9305.919039 28.0698.5 29.4121.5c2.1743 0 3.6589 1.11006 4.5878 2.45128C34.9288 1.61007 36.4133.5 38.5876.5c1.3423 0 2.4816.419041 3.3371 1.16886.8416.73775 1.3168 1.71491 1.4934 2.6884.1513.83398.0885 1.77926-.2246 2.64116 1.7018.5871 2.9641 2.08644 3.124 4.01758.1011 1.2207.1825 2.8623.1825 4.984s-.0814 3.7633-.1825 4.984c-.1974 2.384-2.075 4.11-4.3851 4.2739-1.4003.0994-3.3572.1954-5.9324.2293V13c0-1.1046-.8954-2-2-2s-2 .8954-2 2v12.4872c-2.5752-.0339-4.5321-.1299-5.9324-.2293-2.3101-.1639-4.1877-1.8899-4.3851-4.2739C21.5814 19.7633 21.5 18.1217 21.5 16s.0814-3.7633.1825-4.984c.1599-1.93105 1.4221-3.43033 3.1237-4.01749-.3131-.86193-.3759-1.80724-.2246-2.64126.1766-.97349.6518-1.95064 1.4935-2.6884Zm2.1176 4.95136c1.1521-.05212 2.5207-.09358 4.1196-.11113-.1229-.51683-.3107-1.0514-.5765-1.52545C31.2196 4.06306 30.5066 3.5 29.4121 3.5c-.6965 0-1.1098.20596-1.3596.4249-.2635.23099-.4462.56634-.5191.96785-.168.92631.2741 1.57052.6362 1.71787l.0231.00959Zm7.4948-.11113c1.5989.01754 2.9674.059 4.1196.11111l.023-.00957c.3621-.14734.8042-.79155.6362-1.71788-.0728-.40151-.2556-.73685-.5191-.96785-.2498-.21893-.663-.42489-1.3596-.42489-1.0945 0-1.8074.56305-2.3236 1.48362-.2658.47406-.4536 1.00863-.5765 1.52546ZM3.30321 26.8725c-1.07186.3335-1.82811 1.2708-1.93883 2.3879C1.20145 30.9044 1 33.4522 1 36c0 2.3662.17376 4.7325.32905 6.3747.12307 1.3015 1.1084 2.3339 2.39914 2.5411C7.962 45.5956 17.5263 47 24.284 47c5.1158 0 15.3522-3.4439 20.1383-5.161 1.5582-.5591 2.7047-2.0874 2.1982-3.6635-.6781-2.1103-2.1201-2.9099-3.1154-3.2129-.6796-.2068-1.3933-.1227-2.0931-.0013-3.2752.5683-13.3475 2.2609-17.128 2.2609-1.7828 0-4.2168-.3258-5.6417-.5431-.6805-.1037-1.1732-.6918-1.1732-1.3802 0-.8293.708-1.4819 1.5346-1.4145l7.7155.6289c1.7472.1425 3.2836-1.2565 2.8843-2.9634-.2145-.9168-.4999-1.68-.7845-2.2897-.5943-1.2728-1.8334-2.0366-3.1939-2.3864C22.8155 26.1515 17.6032 25 12.9259 25c-3.11622 0-7.30121 1.1501-9.62269 1.8725Z" clip-rule="evenodd"></path>
  </g>
  <defs>
    <linearGradient id="paint0_linear_7979_543" x1="50.706" x2="-11.67" y1="56.849" y2="13.263" gradientUnits="userSpaceOnUse">
      <stop stop-color="#ffd600"></stop>
      <stop offset="1" stop-color="#ff007a"></stop>
    </linearGradient>
  </defs>
</svg>