<svg xmlns="http://www.w3.org/2000/svg" fill="none" viewBox="0 0 48 48" id="Heater--Streamline-Plump-Gradient">
  <desc>
    Heater Streamline Icon: https://streamlinehq.com
  </desc>
  <g id="heater--travel-hotel-heater">
    <path id="Union" fill="url(#paint0_linear_7979_558)" fill-rule="evenodd" d="M12.405 1.79358c.6663-.88094 1.9207-1.054897 2.8016-.38855.8809.66636 1.0549 1.92068.3885 2.80162-.4042.53443-.5841 1.05679-.5946 1.58871-.0107.54457.154 1.25899.7058 2.16133.8594 1.40536 1.3214 2.86251 1.2926 4.32681-.0291 1.4769-.5547 2.8007-1.4038 3.9231-.6663.881-1.9206 1.0549-2.8016.3886-.8809-.6664-1.0549-1.9207-.3885-2.8016.4042-.5345.5842-1.0568.5946-1.5887.0107-.5446-.154-1.259-.7058-2.1614-.8594-1.40532-1.3213-2.86247-1.2925-4.32676.029-1.47694.5547-2.80075 1.4037-3.92316Zm10 0c.6663-.88094 1.9207-1.054897 2.8016-.38855.8809.66636 1.0549 1.92068.3885 2.80162-.4042.53443-.5841 1.05679-.5946 1.58871-.0107.54457.154 1.25899.7058 2.16133.8594 1.40536 1.3214 2.86251 1.2926 4.32681-.0291 1.4769-.5547 2.8007-1.4038 3.9231-.6663.881-1.9206 1.0549-2.8016.3886-.8809-.6664-1.0549-1.9207-.3885-2.8016.4042-.5345.5842-1.0568.5946-1.5887.0107-.5446-.154-1.259-.7058-2.1614-.8594-1.40532-1.3213-2.86247-1.2925-4.32676.029-1.47694.5547-2.80075 1.4037-3.92316Zm12.8016-.38855c-.8809-.666347-2.1353-.49239-2.8016.38855-.849 1.12241-1.3747 2.44622-1.4037 3.92316-.0288 1.46429.4331 2.92144 1.2925 4.32676.5518.9024.7165 1.6168.7058 2.1614-.0104.5319-.1904 1.0542-.5946 1.5887-.6664.8809-.4924 2.1352.3885 2.8016.881.6663 2.1353.4924 2.8016-.3886.8491-1.1224 1.3747-2.4462 1.4038-3.9231.0287-1.4643-.4332-2.92145-1.2926-4.32681-.5518-.90234-.7165-1.61676-.7058-2.16133.0105-.53192.1904-1.05428.5946-1.58871.6664-.88094.4924-2.13526-.3885-2.80162ZM47.5 32.5c0-3.4486-.1767-6.1088-.3892-8.0607-.3537-3.2501-3.0273-5.4475-6.1381-5.5975C37.5976 18.679 32.0547 18.5 24 18.5s-13.5976.179-16.97264.3418c-3.11081.15-5.78442 2.3474-6.138166 5.5975C.676746 26.3912.5 29.0514.5 32.5c0 3.4486.176745 6.1088.389194 8.0607.353746 3.2501 3.027346 5.4475 6.138156 5.5975C10.4024 46.321 15.9453 46.5 24 46.5c8.0547 0 13.5976-.179 16.9726-.3418 3.1109-.15 5.7845-2.3474 6.1382-5.5975.2125-1.9519.3892-4.6121.3892-8.0607Zm-37.5-8c-1.933 0-3.5 1.567-3.5 3.5s1.567 3.5 3.5 3.5 3.5-1.567 3.5-3.5-1.567-3.5-3.5-3.5Zm19.5 8c0-2.3929-.0327-4.1342-.0669-5.3018-.039-1.3331-.916-2.5594-2.3654-2.6622-.315-.0223-.6702-.036-1.0677-.036-.3975 0-.7527.0137-1.0677.036-1.4494.1028-2.3264 1.3291-2.3654 2.6622-.0342 1.1676-.0669 2.9089-.0669 5.3018s.0327 4.1342.0669 5.3018c.039 1.3331.916 2.5594 2.3654 2.6622.315.0223.6702.036 1.0677.036.3975 0 .7527-.0137 1.0677-.036 1.4494-.1028 2.3264-1.3291 2.3654-2.6622.0342-1.1676.0669-2.9089.0669-5.3018Zm11 0c0-2.3929-.0327-4.1342-.0669-5.3018-.039-1.3331-.916-2.5594-2.3654-2.6622-.315-.0223-.6702-.036-1.0677-.036-.3975 0-.7527.0137-1.0677.036-1.4494.1028-2.3264 1.3291-2.3654 2.6622-.0342 1.1676-.0669 2.9089-.0669 5.3018s.0327 4.1342.0669 5.3018c.039 1.3331.916 2.5594 2.3654 2.6622.315.0223.6702.036 1.0677.036.3975 0 .7527-.0137 1.0677-.036 1.4494-.1028 2.3264-1.3291 2.3654-2.6622.0342-1.1676.0669-2.9089.0669-5.3018Z" clip-rule="evenodd"></path>
  </g>
  <defs>
    <linearGradient id="paint0_linear_7979_558" x1="8.183" x2="45.555" y1="9.75" y2="31.139" gradientUnits="userSpaceOnUse">
      <stop stop-color="#ffd600"></stop>
      <stop offset="1" stop-color="#00d078"></stop>
    </linearGradient>
  </defs>
</svg>