<svg xmlns="http://www.w3.org/2000/svg" fill="none" viewBox="0 0 48 48" id="Information-Circle--Streamline-Plump-Gradient">
  <desc>
    Information Circle Streamline Icon: https://streamlinehq.com
  </desc>
  <g id="information-circle--information-frame-info-more-help-point-circle">
    <path id="Union" fill="url(#paint0_linear_7979_618)" fill-rule="evenodd" d="M24 47.5C11.0213 47.5.5 36.9787.5 24S11.0213.5 24 .5 47.5 11.0213 47.5 24 36.9787 47.5 24 47.5Zm-5-34c0-2.2091 1.7909-4 4-4 2.2091 0 4 1.7909 4 4 0 2.2091-1.7909 4-4 4-2.2091 0-4-1.7909-4-4Zm7.8805 7.614c-.0705-1.1379-.7986-2.0224-1.9368-2.0885C24.6694 19.0096 24.3563 19 24 19h-3.5c-.5855 0-1.0745.0145-1.4813.037-1.1866.0659-1.9792.941-2.0089 2.1291-.0062.2473-.0098.5243-.0098.8339s.0036.5866.0098.8339c.0297 1.1881.8223 2.0632 2.0089 2.1291.4068.0225.8958.037 1.4813.037.1766 0 .3443-.0013.5037-.0038C21.0013 25.3139 21 25.6483 21 26v6.0284c-1.2699.0262-2.2173.0675-2.9122.11-1.0939.0669-1.9719.7401-2.0527 1.8331C16.0134 34.2656 16 34.6065 16 35c0 .3935.0134.7344.0351 1.0285.0808 1.093.9588 1.7662 2.0527 1.8331C19.2473 37.9325 21.1097 38 24 38c2.8903 0 4.7527-.0675 5.9122-.1384 1.0939-.0669 1.9719-.7401 2.0527-1.8331.0217-.2941.0351-.635.0351-1.0285 0-.3935-.0134-.7344-.0351-1.0285-.0808-1.093-.9588-1.7662-2.0527-1.8331-.6949-.0425-1.6423-.0838-2.9122-.11V26c0-2.3029-.0559-3.86-.1195-4.886Z" clip-rule="evenodd"></path>
  </g>
  <defs>
    <linearGradient id="paint0_linear_7979_618" x1="2.306" x2="55.874" y1="4.298" y2="34.49" gradientUnits="userSpaceOnUse">
      <stop stop-color="#00d078"></stop>
      <stop offset="1" stop-color="#007df0"></stop>
    </linearGradient>
  </defs>
</svg>