<svg xmlns="http://www.w3.org/2000/svg" fill="none" viewBox="0 0 48 48" id="Insert-Side--Streamline-Plump-Gradient">
  <desc>
    Insert Side Streamline Icon: https://streamlinehq.com
  </desc>
  <g id="insert-side--points-bullet-align-paragraph-formatting-bullets-text">
    <path id="Union" fill="url(#paint0_linear_7979_639)" fill-rule="evenodd" d="M17.7916 2.1602C16.4017 2.0733 14.4911 2 12 2c-2.49112 0-4.40174.07329-5.79164.1602-2.20896.13811-3.91004 1.8392-4.04816 4.04815C2.0733 7.59826 2 9.50888 2 12c0 2.4911.07329 4.4017.1602 5.7916.13812 2.209 1.8392 3.9101 4.04815 4.0482C7.59826 21.9267 9.50888 22 12 22c2.4911 0 4.4017-.0733 5.7916-.1602 2.209-.1381 3.9101-1.8392 4.0482-4.0481C21.9267 16.4017 22 14.4911 22 12c0-2.49111-.0733-4.40174-.1602-5.79164-.1381-2.20895-1.8392-3.91004-4.0482-4.04816Zm0 24C16.4017 26.0733 14.4911 26 12 26c-2.49112 0-4.40174.0733-5.79164.1602-2.20896.1381-3.91004 1.8392-4.04816 4.0482C2.0733 31.5983 2 33.5089 2 36s.07329 4.4017.1602 5.7916c.13812 2.209 1.8392 3.9101 4.04815 4.0482C7.59826 45.9267 9.50888 46 12 46c2.4911 0 4.4017-.0733 5.7916-.1602 2.209-.1381 3.9101-1.8392 4.0482-4.0482C21.9267 40.4017 22 38.4911 22 36s-.0733-4.4017-.1602-5.7916c-.1381-2.209-1.8392-3.9101-4.0482-4.0482Zm9.8976-23.01601C29.002 3.07237 31.3515 3 35.5 3s6.498.07237 7.8108.14419c1.3873.0759 2.5831 1.04084 2.664 2.57371.0157.29684.0252.63888.0252 1.0321s-.0095.73526-.0252 1.03211c-.0809 1.53285-1.2767 2.49779-2.664 2.57369-1.3128.0718-3.6623.1442-7.8108.1442s-6.498-.0724-7.8108-.1442c-1.3873-.0759-2.5831-1.04084-2.664-2.5737C25.0095 7.48526 25 7.14322 25 6.75s.0095-.73526.0252-1.03211c.0809-1.53286 1.2767-2.4978 2.664-2.5737Zm-.0259 10.47121C28.6993 13.5539 30.3587 13.5 33 13.5c2.6413 0 4.3007.0539 5.3367.1154 1.4613.0868 2.5919 1.1516 2.6471 2.6708.0101.2792.0162.5988.0162.9638s-.0061.6846-.0162.9637c-.0552 1.5193-1.1858 2.5841-2.6471 2.6709C37.3007 20.9461 35.6413 21 33 21c-2.6413 0-4.3007-.0539-5.3367-.1154-1.4613-.0868-2.5919-1.1516-2.6471-2.6708C25.0061 17.9346 25 17.615 25 17.25s.0061-.6846.0162-.9638c.0552-1.5192 1.1858-2.584 2.6471-2.6708ZM35.5 27c-4.1485 0-6.498.0724-7.8108.1442-1.3873.0759-2.5831 1.0408-2.664 2.5737-.0157.2968-.0252.6389-.0252 1.0321s.0095.7353.0252 1.0321c.0809 1.5329 1.2767 2.4978 2.664 2.5737 1.3128.0718 3.6623.1442 7.8108.1442s6.498-.0724 7.8108-.1442c1.3873-.0759 2.5831-1.0408 2.664-2.5737.0157-.2968.0252-.6389.0252-1.0321s-.0095-.7353-.0252-1.0321c-.0809-1.5329-1.2767-2.4978-2.664-2.5737C41.998 27.0724 39.6485 27 35.5 27ZM33 37.5c-2.6413 0-4.3007.0539-5.3367.1154-1.4613.0868-2.5919 1.1516-2.6471 2.6708-.0101.2792-.0162.5988-.0162.9638s.0061.6846.0162.9638c.0552 1.5192 1.1858 2.584 2.6471 2.6708C28.6993 44.9461 30.3587 45 33 45c2.6413 0 4.3007-.0539 5.3367-.1154 1.4613-.0868 2.5919-1.1516 2.6471-2.6709.0101-.2791.0162-.5987.0162-.9637s-.0061-.6846-.0162-.9638c-.0552-1.5192-1.1858-2.584-2.6471-2.6708C37.3007 37.5539 35.6413 37.5 33 37.5Z" clip-rule="evenodd"></path>
  </g>
  <defs>
    <linearGradient id="paint0_linear_7979_639" x1="45.851" x2="-6.255" y1="46.009" y2="16.698" gradientUnits="userSpaceOnUse">
      <stop stop-color="#ff51e3"></stop>
      <stop offset="1" stop-color="#1b4dff"></stop>
    </linearGradient>
  </defs>
</svg>