<svg xmlns="http://www.w3.org/2000/svg" fill="none" viewBox="0 0 48 48" id="Interface-Geometric-Spiral--Streamline-Plump-Gradient">
  <desc>
    Interface Geometric Spiral Streamline Icon: https://streamlinehq.com
  </desc>
  <g id="interface-geometric-spiral">
    <path id="Union" fill="url(#paint0_linear_7979_1068)" d="M35.9838 2.75328c1.2408-1.09793 3.1368-.98208 4.2347.25876 4.9546 5.59948 7.0604 12.82106 6.752 19.61206-.3058 6.7347-3.0068 13.3348-8.05 17.6087-9.648 9.0393-25.2204 6.9305-32.6454-2.6646-3.97465-4.6734-5.573081-10.576-5.22974-16.0614.34091-5.4468 2.62352-10.7752 6.79258-14.15418C15.8198.217954 28.1925 2.30531 33.8266 9.99021c3.0211 3.76079 4.1235 8.37299 3.737 12.58019-.3819 4.1566-2.2557 8.2176-5.5736 10.6954-6.3325 5.21-15.5177 3.1039-19.3333-2.7078-2.0535-2.8637-2.6429-6.1943-2.1857-9.1338.4454-2.8638 1.9495-5.6705 4.4735-7.2214 4.72-3.1824 10.7718-1.0209 12.678 3.1271 1.0281 2.0245 1.0236 4.1453.3526 5.8648-.5966 1.529-1.9789 3.2464-4.105 3.5771-1.8948.3704-3.5954-.4055-4.5692-1.6868-.752-.9894-1.6857-3.5053.3894-5.3072.4866-.4226 1.0706-.6605 1.6666-.72-.1837-.1028-.3978-.1949-.6435-.2647-.7781-.2209-1.6475-.1442-2.443.4039l-.0795.0547-.0828.0495c-.6861.4104-1.461 1.4543-1.7084 3.0452-.2371 1.5242.0726 3.2565 1.1582 4.7501l.0486.0668.0449.0695c1.9466 3.0142 7.1115 4.2484 10.5658 1.3671l.0708-.0591.0743-.0546c1.69-1.2418 2.9623-3.5899 3.2265-6.4647.2601-2.8318-.4966-5.8778-2.4728-8.3146l-.0511-.063-.0476-.0656c-3.6539-5.03898-12.0202-6.412-17.2238-1.7136l-.0656.0592-.0689.0552c-2.63148 2.1086-4.3651 5.7442-4.62536 9.9025-.25823 4.1256.96125 8.4728 3.84986 11.8438l.0527.0615.0493.0642c5.3893 7.0231 16.9554 8.4992 23.8785 1.9601l.0636-.06.0669-.0562c3.554-2.9851 5.7351-7.9014 5.9822-13.3431.2459-5.4153-1.4445-11.0611-5.2517-15.36387-1.0979-1.24085-.9821-3.13681.2588-4.23475Z"></path>
  </g>
  <defs>
    <linearGradient id="paint0_linear_7979_1068" x1="50.986" x2="-9.186" y1="55.322" y2="10.638" gradientUnits="userSpaceOnUse">
      <stop stop-color="#ffd600"></stop>
      <stop offset="1" stop-color="#ff007a"></stop>
    </linearGradient>
  </defs>
</svg>