<svg xmlns="http://www.w3.org/2000/svg" fill="none" viewBox="0 0 48 48" id="Ladder--Streamline-Plump-Gradient">
  <desc>
    Ladder Streamline Icon: https://streamlinehq.com
  </desc>
  <g id="ladder--business-product-metaphor-ladder">
    <path id="Union" fill="url(#paint0_linear_7979_669)" fill-rule="evenodd" d="M11 .5c-.7713 0-1.39757.143284-1.88859.335036C7.98862 1.2735 7.63455 2.45523 7.62037 3.42301 7.58008 6.17214 7.5 13.0178 7.5 24c0 10.9822.08008 17.8279.12037 20.577.01418.9678.36825 2.1495 1.49104 2.588.49102.1917 1.11729.335 1.88859.335.7713 0 1.3976-.1433 1.8886-.335 1.1228-.4385 1.4768-1.6202 1.491-2.588.0121-.824.0278-2.0159.0438-3.577h19.1532c.016 1.5611.0317 2.753.0438 3.577.0142.9678.3682 2.1495 1.491 2.588.491.1917 1.1173.335 1.8886.335.7713 0 1.3976-.1433 1.8886-.335 1.1228-.4385 1.4769-1.6202 1.491-2.588.0403-2.7491.1204-9.5948.1204-20.577 0-10.9822-.0801-17.82787-.1204-20.577-.0141-.96777-.3682-2.1495-1.491-2.587964C38.3976.643284 37.7713.5 37 .5c-.7713 0-1.3976.143284-1.8886.335036-1.1228.438464-1.4768 1.620194-1.491 2.587974-.0121.82397-.0278 2.01594-.0438 3.57699H14.4234c-.016-1.56105-.0317-2.75303-.0438-3.577-.0142-.96777-.3682-2.1495-1.491-2.587964C12.3976.643284 11.7713.5 11 .5ZM14.498 21c-.0042-3.0312-.0145-5.6975-.0276-8h19.0592c-.0131 2.3025-.0234 4.9688-.0276 8H14.498Zm-.0276 14c.0131-2.3025.0234-4.9688.0276-8h19.004c.0042 3.0312.0145 5.6975.0276 8H14.4704Z" clip-rule="evenodd"></path>
  </g>
  <defs>
    <linearGradient id="paint0_linear_7979_669" x1="43.36" x2="-10.271" y1="57.455" y2="30.706" gradientUnits="userSpaceOnUse">
      <stop stop-color="#ffd600"></stop>
      <stop offset="1" stop-color="#ff007a"></stop>
    </linearGradient>
  </defs>
</svg>