<svg xmlns="http://www.w3.org/2000/svg" fill="none" viewBox="0 0 48 48" id="Lightning-Cloud--Streamline-Plump-Gradient">
  <desc>
    Lightning Cloud Streamline Icon: https://streamlinehq.com
  </desc>
  <g id="lightning-cloud--cloud-bolt-storm-weather-thunder-meteorology-lightning">
    <path id="Union" fill="url(#paint0_linear_7979_705)" fill-rule="evenodd" d="M13.5572 34.1972c-.0992.3898-.1546.7752-.1702 1.1524C6.11736 35.0611.5 29.9814.5 22.5c0-5.409 2.96104-9.6315 7.43585-11.6173C9.43815 4.58004 14.686.517439 21.6425.500435 21.7606.500147 21.8797.5 22 .5c.1203 0 .2394.000147.3575.000435 3.7934.009272 7.1183 1.219185 9.6039 3.412645 2.177 1.92111 3.6444 4.53925 4.2395 7.60312 3.1866.148 5.9512 1.309 7.9626 3.3203C46.3209 16.994 47.5 20.0182 47.5 23.5c0 3.3878-1.116 6.3432-3.1663 8.4893-1.4033 1.4689-3.1973 2.5094-5.2608 3.0591.8595-2.7261-.6691-5.695-3.3136-6.6965 1.1976-3.501-.8268-7.8756-5.2832-8.2238-.9627-.0752-2.1213-.1281-3.4756-.1281-1.8576 0-3.347.0995-4.4675.2196-2.8702.3074-5.0687 2.2464-6.0113 4.6673-1.4566 3.7409-2.4397 7.2482-2.9645 9.3103Zm9.2954-10.9947c1.015-.1087 2.3978-.2025 4.1479-.2025 1.2761 0 2.3568.0498 3.242.119 2.2683.1772 3.4032 2.4607 2.6228 4.4116l-1.3877 3.4693h2.3339c2.1033 0 3.2863 2.4584 1.858 4.0759-2.5598 2.8987-7.1702 7.8947-12.0077 12.0292-1.4422 1.2327-3.5145-.0623-3.197-1.8478.3884-2.1839.7767-4.2948 1.0679-5.8593.1005-.5404.1895-1.0157.2629-1.4065-1.0958-.0057-2.1111-.0051-2.9222-.0026-1.5848.0051-2.8137-1.4606-2.4088-3.0517.5071-1.9926 1.4556-5.3735 2.8527-8.9617.5763-1.48 1.8858-2.5962 3.5353-2.7729Z" clip-rule="evenodd"></path>
  </g>
  <defs>
    <linearGradient id="paint0_linear_7979_705" x1="51.573" x2="-11.905" y1="57.565" y2="12.561" gradientUnits="userSpaceOnUse">
      <stop stop-color="#ffd600"></stop>
      <stop offset="1" stop-color="#ff007a"></stop>
    </linearGradient>
  </defs>
</svg>