<svg xmlns="http://www.w3.org/2000/svg" fill="none" viewBox="0 0 48 48" id="Line-Arrow-Right-Circle-2--Streamline-Plump-Gradient">
  <desc>
    Line Arrow Right Circle 2 Streamline Icon: https://streamlinehq.com
  </desc>
  <g id="line-arrow-right-circle-2">
    <path id="Subtract" fill="url(#paint0_linear_7979_101)" fill-rule="evenodd" d="M47.5 24C47.5 11.0213 36.9787.5 24 .5S.5 11.0213.5 24 11.0213 47.5 24 47.5 47.5 36.9787 47.5 24Zm-27.124-3.6334-11.2858.3189c-1.34857.0381-2.50083.9796-2.56881 2.327-.0134.2656-.02139.5497-.02139.8497 0 .3552.01119.6981.0293 1.0205.07834 1.3942 1.26694 2.3953 2.66283 2.4347l11.18397.3161-1.6941 1.8244c-.8595.9256-1.0879 2.3262-.2908 3.306.4169.5125.8804.9641 1.3868 1.3335 1.0535.7684 2.4582.4082 3.4256-.4661 2.3531-2.1267 5.0467-4.8425 6.8002-7.0018 1.2824-1.5793 1.2824-3.6795-.0001-5.2587-1.7536-2.1594-4.4474-4.8753-6.8006-7.002-.9671-.8741-2.3713-1.2344-3.4247-.4664-.5067.3694-.9704.8211-1.3875 1.3339-.7969.9797-.5685 2.3802.2909 3.3057l1.6942 1.8246Zm17.4448-6.3395c1.251.0876 1.9662 1.1391 2.0312 2.3914C39.9263 17.8511 40 20.2236 40 24s-.0737 6.1489-.148 7.5815c-.065 1.2524-.7802 2.3038-2.0312 2.3914C37.5768 33.99 37.3042 34 37 34s-.5768-.01-.8208-.0271c-1.251-.0876-1.9662-1.139-2.0312-2.3914C34.0737 30.1489 34 27.7764 34 24s.0737-6.1489.148-7.5815c.065-1.2523.7802-2.3038 2.0312-2.3914C36.4232 14.01 36.6958 14 37 14s.5768.01.8208.0271Z" clip-rule="evenodd"></path>
  </g>
  <defs>
    <linearGradient id="paint0_linear_7979_101" x1="47.341" x2="-8.317" y1="47.51" y2="16.201" gradientUnits="userSpaceOnUse">
      <stop stop-color="#ff51e3"></stop>
      <stop offset="1" stop-color="#1b4dff"></stop>
    </linearGradient>
  </defs>
</svg>