<svg xmlns="http://www.w3.org/2000/svg" fill="none" viewBox="0 0 48 48" id="Page-Setting--Streamline-Plump-Gradient">
  <desc>
    Page Setting Streamline Icon: https://streamlinehq.com
  </desc>
  <g id="page-setting--page-setting-square-triangle-circle-line-combination-variation">
    <path id="Union" fill="url(#paint0_linear_7979_843)" fill-rule="evenodd" d="M32.7591 2.83423C34.4138.657259 37.5827.656659 39.238 2.83339c1.1965 1.57338 2.7543 3.8091 4.2772 6.54434 1.5768 2.83197 2.6877 5.42867 3.4013 7.30517.9344 2.4569-.581 5.0844-3.1913 5.4824-1.9235.2933-4.6166.585-7.7259.585-3.1094 0-5.8023-.2918-7.7256-.5851-2.6098-.398-4.1251-3.0249-3.1912-5.4815.7134-1.8766 1.8241-4.4736 3.4011-7.30597 1.5227-2.73478 3.0797-4.9702 4.2755-6.5435ZM28 26.5c-1.3807 0-2.5 1.1193-2.5 2.5s1.1193 2.5 2.5 2.5h16c1.3807 0 2.5-1.1193 2.5-2.5s-1.1193-2.5-2.5-2.5H28Zm0 7c-1.3807 0-2.5 1.1193-2.5 2.5s1.1193 2.5 2.5 2.5h16c1.3807 0 2.5-1.1193 2.5-2.5s-1.1193-2.5-2.5-2.5H28ZM25.5 43c0-1.3807 1.1193-2.5 2.5-2.5h16c1.3807 0 2.5 1.1193 2.5 2.5s-1.1193 2.5-2.5 2.5H28c-1.3807 0-2.5-1.1193-2.5-2.5ZM12 1.5c2.7479 0 4.7239.14626 6.1217.32869 2.4994.32621 4.0974 2.31468 4.241 4.67768C22.4397 7.77508 22.5 9.54974 22.5 12c0 2.4503-.0603 4.2249-.1373 5.4936-.1436 2.363-1.7416 4.3515-4.241 4.6777-1.3978.1824-3.3738.3287-6.1217.3287-2.7479 0-4.72393-.1463-6.12174-.3287-2.49935-.3262-4.09738-2.3147-4.24091-4.6777C1.56029 16.2249 1.5 14.4503 1.5 12c0-2.45026.06029-4.22492.13735-5.49363.14353-2.363 1.74156-4.35147 4.24091-4.67768C7.27607 1.64626 9.2521 1.5 12 1.5ZM.5 36c0-6.3513 5.14873-11.5 11.5-11.5 6.3513 0 11.5 5.1487 11.5 11.5S18.3513 47.5 12 47.5C5.64873 47.5.5 42.3513.5 36Z" clip-rule="evenodd"></path>
  </g>
  <defs>
    <linearGradient id="paint0_linear_7979_843" x1="2.294" x2="55.294" y1="4.943" y2="35.069" gradientUnits="userSpaceOnUse">
      <stop stop-color="#00d078"></stop>
      <stop offset="1" stop-color="#007df0"></stop>
    </linearGradient>
  </defs>
</svg>