<svg xmlns="http://www.w3.org/2000/svg" fill="none" viewBox="0 0 48 48" id="Paint-Bucket--Streamline-Plump-Gradient">
  <desc>
    Paint Bucket Streamline Icon: https://streamlinehq.com
  </desc>
  <g id="paint-bucket--bucket-color-colors-design-paint-painting">
    <path id="Union" fill="url(#paint0_linear_7979_840)" fill-rule="evenodd" d="M17.918 4.64472c1.3453-1.49715 3.6375-1.51395 5.0318-.11962l16.5258 16.526c1.3943 1.3943 1.3775 3.6865-.1196 5.0318-2.9214 2.6253-9.7337 8.5952-18.1411 14.9552-2.5143 1.902-6.0214 2.0034-8.5574-.0292-1.4812-1.1872-3.29214-2.7418-5.10788-4.5575-1.81573-1.8158-3.3703-3.6267-4.55749-5.1079-2.032576-2.536-1.93117-6.0431-.02918-8.5575.89415-1.182 1.78059-2.3325 2.65111-3.4451.72049.178 1.52966.3748 2.40555.5831 3.46899.8247 8.00419 1.833 12.22779 2.5546.8166.1395 1.5917-.4094 1.7312-1.226.1277-.7477-.3217-1.4606-1.0253-1.6827-.1709-.0073-.3424-.0269-.5132-.0591-1.219-.2305-2.4434-.4757-3.6478-.727-2.8824-.5758-5.7206-1.2178-8.07878-1.7785-.36219-.0861-.71284-.1702-1.05035-.2518l.02933-.0366c-1.46028-.3559-2.68028-.6641-3.55088-.8876-1.05587-.271-2.03652-1.0741-2.13978-2.2971-.05541-.6563-.03307-1.4722.20324-2.3515.2363-.8793.62608-1.59697 1.00305-2.13753.70205-1.00672 1.95299-1.21356 3.00339-.92184 1.48315.41191 3.97848 1.11934 6.91778 2.01077 2.0319-2.39039 3.6986-4.2743 4.7887-5.48738ZM37.7059 31.1171c1.2638-1.3124 3.3244-1.3124 4.5882 0 .7837.8138 1.8118 2.0009 2.6519 3.3928.8299 1.375 1.554 3.077 1.554 4.8895 0 3.7569-2.7548 7.1-6.5 7.1s-6.5-3.3431-6.5-7.1c0-1.8125.7241-3.5145 1.554-4.8895.8401-1.3919 1.8682-2.579 2.6519-3.3928Z" clip-rule="evenodd"></path>
  </g>
  <defs>
    <linearGradient id="paint0_linear_7979_840" x1="8.857" x2="44.407" y1="11.769" y2="32.381" gradientUnits="userSpaceOnUse">
      <stop stop-color="#ffd600"></stop>
      <stop offset="1" stop-color="#00d078"></stop>
    </linearGradient>
  </defs>
</svg>