<svg xmlns="http://www.w3.org/2000/svg" fill="none" viewBox="0 0 48 48" id="Pen-1--Streamline-Plump-Gradient">
  <desc>
    Pen 1 Streamline Icon: https://streamlinehq.com
  </desc>
  <g id="pen-1--content-creation-edit-pen-write">
    <path id="Union" fill="url(#paint0_linear_7979_894)" fill-rule="evenodd" d="M34.1364 2.89282c.7061.3966 1.5083.902 2.3865 1.54333L39.57 1.82437c.9718-.832947 2.3715-1.423191 3.7151-.80822.6595.30185 1.4165.77889 2.1682 1.53057.7517.75169 1.2287 1.50871 1.5305 2.1682.615 1.34363.0248 2.74332-.8082 3.71509l-2.6117 3.04709c.6413.8782 1.1467 1.6804 1.5433 2.3865 1.3365 2.3795.4875 5.0259-1.1768 6.6961l-2.9943 3.0049c-.2695-.4724-.6782-1.1398-1.2632-1.9806-1.1966-1.7199-3.1289-4.1631-6.1116-7.1459-2.9827-2.9827-5.4259-4.91497-7.1458-6.11156l-.0375-.02605c-.0811-.03937-.1604-.08468-.2374-.13604-1.5048-1.00322-2.9064-1.54165-3.9701-1.831-.6344-.17255-1.4712.04599-2.2636.83847l-8.2427 8.24268c-.781.781-2.04737.781-2.82841 0-.78105-.7811-.78105-2.0474 0-2.8285l8.24261-8.2426c1.458-1.45795 3.7053-2.53257 6.1419-1.86981 1.1579.31495 2.576.84058 4.0986 1.71699l.1214-.12103c1.6702-1.6643 4.3167-2.51326 6.6961-1.17683Zm4.4987 22.73008.0778.172-15.9982 16.0549c-.2587-.3699-.5479-.7749-.8662-1.2091-1.5598-2.1269-3.8312-4.9669-6.6768-7.8125-2.8455-2.8455-5.68555-5.117-7.81247-6.6767-.43445-.3186-.8397-.6079-1.20982-.8668L22.2046 9.28613l.1718.07774.016.00761c.0179.00862.0498.02419.0954.04735.091.04632.2365.12296.4337.23489.3942.22384.9953.58898 1.7802 1.13508 1.5697 1.092 3.8769 2.9093 6.7379 5.7703 2.861 2.861 4.6782 5.1682 5.7703 6.7378.5461.785.9112 1.386 1.135 1.7803.112.1971.1886.3426.2349.4337.0232.0455.0388.0774.0474.0954l.007.0148.0009.0018ZM4.27698 27.6367c-.26512.5815-.42654 1.2134-.46468 1.8714-.11459 1.9768-.28787 5.9511-.30996 12.1616l-2.41655 2.4165c-.781053.7811-.781053 2.0474 0 2.8285.78104.781 2.04738.781 2.82842 0l2.41676-2.4168c6.21023-.0221 10.18443-.1953 12.16123-.3099.658-.0382 1.29-.1996 1.8715-.4648-.2727-.3925-.5846-.8313-.9341-1.3078-1.4958-2.0398-3.6688-4.7553-6.3788-7.4653s-5.42551-4.883-7.46526-6.3788c-.47678-.3497-.91591-.6618-1.30856-.9346Z" clip-rule="evenodd"></path>
  </g>
  <defs>
    <linearGradient id="paint0_linear_7979_894" x1="2.296" x2="55.566" y1="4.539" y2="34.562" gradientUnits="userSpaceOnUse">
      <stop stop-color="#00d078"></stop>
      <stop offset="1" stop-color="#007df0"></stop>
    </linearGradient>
  </defs>
</svg>