<svg xmlns="http://www.w3.org/2000/svg" fill="none" viewBox="0 0 48 48" id="Projector-Screen--Streamline-Plump-Gradient">
  <desc>
    Projector Screen Streamline Icon: https://streamlinehq.com
  </desc>
  <g id="projector-screen--projector-screen-work-meeting-presentation">
    <path id="Union" fill="url(#paint0_linear_7979_936)" fill-rule="evenodd" d="M5.385.789701C8.00453.670002 13.5609.5 24 .5c10.4391 0 15.9955.170002 18.615.289701 1.7242.078789 3.5716 1.158759 3.7966 3.327079C46.4658 4.63949 46.5 5.26157 46.5 6c0 .73843-.0342 1.36051-.0884 1.88322-.225 2.16828-2.0724 3.24828-3.7966 3.32708C39.9955 11.33 34.4391 11.5 24 11.5c-10.4391 0-15.99547-.17-18.615-.2897-1.72422-.0788-3.57165-1.1588-3.79656-3.32709C1.53422 7.36051 1.5 6.73843 1.5 6c0-.73843.03422-1.36051.08844-1.88321C1.81335 1.94847 3.66078.868489 5.385.789701ZM21.5 41.4984c-11.76388-.015-15.62641-.1341-16.04122-.1481-.71149-.024-1.2046-.4248-1.47677-.8142-.23928-.3424-.33995-.7076-.38893-.9395-.09473-.4484-.09345-.9108-.09301-1.0712l.00005-.0254-.00005-.0254c-.00044-.1604-.00172-.6228.09301-1.0712.04898-.2319.14965-.5971.38893-.9395.27217-.3894.76529-.7902 1.47678-.8142.4429-.015 4.81631-.1497 18.54131-.1497 13.7195 0 18.0726.1346 18.5163.1497.685.0232 1.178.3931 1.464.7807.2511.3403.3603.7066.4143.9429.1061.4648.1056.9416.1054 1.1097v.034c.0002.1681.0007.6449-.1054 1.1097-.054.2363-.1632.6026-.4143.9429-.286.3876-.779.7575-1.464.7807-.4155.0141-4.2601.1331-16.0164.1481V45c0 1.3807-1.1193 2.5-2.5 2.5s-2.5-1.1193-2.5-2.5v-3.5016Zm2.4998-8.4985c12.2505 0 17.0619.1072 18.3013.142.1047-2.6548.1989-6.3686.1989-11.1416v-8.2824c-2.7545.121-8.327.282-18.5002.282-10.1727 0-15.74515-.161-18.4998-.282v8.2824c0 4.7726.09414 8.4862.19888 11.141 1.28058-.0355 6.12512-.1414 18.30092-.1414Z" clip-rule="evenodd"></path>
  </g>
  <defs>
    <linearGradient id="paint0_linear_7979_936" x1="50.4" x2="-12.043" y1="57.455" y2="14.987" gradientUnits="userSpaceOnUse">
      <stop stop-color="#ffd600"></stop>
      <stop offset="1" stop-color="#ff007a"></stop>
    </linearGradient>
  </defs>
</svg>