<svg xmlns="http://www.w3.org/2000/svg" fill="none" viewBox="0 0 48 48" id="Round-Anchor-Point--Streamline-Plump-Gradient">
  <desc>
    Round Anchor Point Streamline Icon: https://streamlinehq.com
  </desc>
  <g id="round-anchor-point">
    <path id="Union" fill="url(#paint0_linear_7979_987)" fill-rule="evenodd" d="M5.5 12c-1.10457 0-2-.8954-2-2 0-1.10457.89543-2 2-2s2 .89543 2 2c0 1.1046-.89543 2-2 2Zm-5-2c0 2.7614 2.23857 5 5 5 1.52708 0 2.89427-.6846 3.8114-1.7636.25357.0681.51846.1366.7946.2049 1.155.286 2.5064.5701 4.0497.8159C10.1163 17.2648 7.5 22.0769 7.5 27.5v.0334c-.32633.0096-.62431.0209-.89612.0334-2.24998.103-3.93414 1.7873-4.03713 4.0373C2.52773 32.4564 2.5 33.5661 2.5 35c0 1.4336.02772 2.5432.06672 3.3954.10299 2.2505 1.78767 3.935 4.03804 4.0379.85221.039 1.96171.0667 3.39524.0667 1.4334 0 2.5429-.0277 3.3951-.0667 2.2505-.1029 3.9352-1.7875 4.0382-4.038.039-.8523.0667-1.9618.0667-3.3953 0-1.4338-.0277-2.5435-.0667-3.3958-.103-2.25-1.7873-3.9344-4.0373-4.0374-.2718-.0125-.5697-.0238-.896-.0334V27.5c0-3.679 1.7275-6.9544 4.4157-9.0595.6185 1.4394 1.9931 2.4152 3.6891 2.4928C21.457 20.9723 22.5665 21 24 21c1.4334 0 2.5429-.0277 3.3951-.0667 1.696-.0775 3.0707-1.0534 3.6892-2.4928C33.7724 20.5455 35.5 23.821 35.5 27.5v.0334c-.3263.0096-.6243.0209-.8961.0334-2.25.103-3.9342 1.7873-4.0372 4.0373-.039.8523-.0667 1.962-.0667 3.3959 0 1.4336.0277 2.5432.0667 3.3954.103 2.2505 1.7877 3.935 4.0381 4.0379.8522.039 1.9617.0667 3.3952.0667 1.4334 0 2.5429-.0277 3.3951-.0667 2.2505-.1029 3.9352-1.7875 4.0382-4.038.039-.8523.0667-1.9618.0667-3.3953 0-1.4338-.0277-2.5435-.0667-3.3958-.103-2.25-1.7873-3.9344-4.0373-4.0374-.2718-.0125-.5697-.0238-.896-.0334V27.5c0-5.4231-2.6163-10.2352-6.6556-13.2428 1.5434-.2457 2.8949-.5298 4.05-.8159.276-.0683.5408-.1368.7943-.2048C39.6058 14.3154 40.973 15 42.5 15c2.7614 0 5-2.2386 5-5 0-2.76142-2.2386-5-5-5-2.5599 0-4.6704 1.92369-4.9649 4.40431-.1931.05117-.3938.10269-.6022.15428-1.4575.36092-3.2881.72561-5.481.99781-.0058-.1582-.0121-.3088-.0186-.4522-.103-2.24998-1.7873-3.93437-4.0373-4.03742C26.5436 6.02774 25.4339 6 24 6c-1.434 0-2.5438.02775-3.3961.06679-2.25.10305-3.9342 1.78735-4.0372 4.03731-.0065.1433-.0128.294-.0186.4522-2.1927-.2722-4.0232-.63681-5.4807-.99771-.2084-.05162-.4093-.10317-.6025-.15437C10.1703 6.92364 8.05982 5 5.5 5c-2.76142 0-5 2.23858-5 5Zm40 0c0 1.1046.8954 2 2 2s2-.8954 2-2c0-1.10457-.8954-2-2-2s-2 .89543-2 2Z" clip-rule="evenodd"></path>
  </g>
  <defs>
    <linearGradient id="paint0_linear_7979_987" x1="8.183" x2="41.655" y1="12.211" y2="35.456" gradientUnits="userSpaceOnUse">
      <stop stop-color="#ffd600"></stop>
      <stop offset="1" stop-color="#00d078"></stop>
    </linearGradient>
  </defs>
</svg>