<svg xmlns="http://www.w3.org/2000/svg" fill="none" viewBox="0 0 48 48" id="Select-Circle-Area-1--Streamline-Plump-Gradient">
  <desc>
    Select Circle Area 1 Streamline Icon: https://streamlinehq.com
  </desc>
  <g id="select-circle-area-1--select-area-object-work">
    <path id="Ellipse 582 (Stroke)" fill="url(#paint0_linear_7979_1029)" fill-rule="evenodd" d="M26.306 4.63592c-1.5421-.18248-3.1019-.18122-4.6436.00377-1.0967.13159-2.0925-.65079-2.2241-1.74749-.1315-1.0967.6508-2.09243 1.7475-2.22402C23.042.445464 24.9195.443951 26.776.663636c1.0969.129803 1.8809 1.124254 1.7511 2.221174-.1298 1.09691-1.1242 1.88091-2.2211 1.75111Zm-8.9425-1.18893c.435 1.01532-.0355 2.19101-1.0508 2.62598-1.396.59803-2.7364 1.36674-3.99 2.30658-.8838.66258-2.1373.48327-2.79992-.4005-.66259-.88377-.48328-2.13734.40049-2.79993 1.51163-1.1333 3.12933-2.06111 4.81423-2.78295 1.0154-.43497 2.191.0355 2.626 1.05082Zm13.3065.0108c.4366-1.01461 1.6131-1.48315 2.6277-1.04651 1.6723.71967 3.2779 1.64243 4.779 2.76785.8838.66258 1.0631 1.91615.4005 2.79993-.6626.88377-1.9161 1.06308-2.7999.40049-1.2449-.93329-2.5754-1.69782-3.9608-2.29406-1.0146-.43663-1.4832-1.6131-1.0465-2.6277Zm9.3509 6.06499c.8838-.66259 2.1374-.48328 2.8.40049 1.1331 1.51133 2.0607 3.12863 2.7825 4.81323.435 1.0153-.0354 2.191-1.0507 2.6261-1.0153.435-2.191-.0354-2.626-1.0507-.598-1.3957-1.3666-2.7359-2.3063-3.9892-.6625-.8838-.4832-2.1373.4005-2.79992Zm-32.04185 0c.88377.66262 1.06308 1.91612.4005 2.79992-.93349 1.2451-1.69814 2.5759-2.29442 3.9617-.43658 1.0146-1.61302 1.4832-2.62765 1.0466-1.01463-.4366-1.48322-1.613-1.04664-2.6276.71974-1.6727 1.64265-3.2787 2.76828-4.78012.66258-.88378 1.91616-1.06309 2.79993-.4005ZM45.108 19.4393c1.0967-.1315 2.0924.6509 2.224 1.7476.2241 1.8686.224 3.7587-.0002 5.6273-.1316 1.0967-1.1273 1.879-2.224 1.7475-1.0967-.1316-1.8791-1.1274-1.7475-2.2241.1862-1.552.1863-3.1223.0001-4.6743-.1315-1.0967.6509-2.0924 1.7476-2.224Zm-42.22298.0326c1.09691.1298 1.88086 1.1243 1.75101 2.2212-.18134 1.5318-.18137 3.0811-.00011 4.6129.12981 1.0969-.65419 2.0913-1.75111 2.2211-1.09691.1298-2.091368-.6542-2.221173-1.7511-.218226-1.8441-.218183-3.709.00013-5.5531.129856-1.0969 1.124343-1.8809 2.221253-1.751Zm.5518 11.1329c1.01599-.4334 2.19095.0389 2.62435 1.0549.59971 1.4059 1.37235 2.7558 2.31838 4.0176.66259.8838.48328 2.1373-.4005 2.7999-.88377.6626-2.13734.4833-2.79993-.4005-1.14077-1.5216-2.07332-3.1506-2.7972-4.8476-.43339-1.0159.0389-2.1909 1.0549-2.6243Zm41.11618.0317c1.0153.435 1.4858 1.6106 1.0508 2.626-.7218 1.6849-1.6496 3.3026-2.7829 4.8142-.6626.8838-1.9162 1.0631-2.7999.4005-.8838-.6626-1.0631-1.9161-.4006-2.7999.9399-1.2536 1.7086-2.594 2.3066-3.99.435-1.0153 1.6107-1.4858 2.626-1.0508ZM9.52277 40.0209c.66263-.8837 1.91613-1.063 2.79993-.4005 1.2533.9397 2.5935 1.7083 3.9892 2.3063 1.0153.435 1.4857 1.6107 1.0506 2.626-.435 1.0153-1.6107 1.4857-2.626 1.0507-1.6846-.7218-3.3019-1.6495-4.81323-2.7825-.88378-.6626-1.06309-1.9162-.4005-2.8Zm28.95443 0c.6626.8838.4833 2.1374-.4005 2.8-1.5219 1.141-3.1513 2.0737-4.8486 2.7976-1.016.4334-2.1909-.039-2.6243-1.055-.4333-1.016.039-2.191 1.055-2.6243 1.4063-.5998 2.7564-1.3725 4.0185-2.3187.8838-.6626 2.1373-.4833 2.7999.4004ZM19.4393 45.108c.1316-1.0967 1.1273-1.8791 2.224-1.7476 1.5418.1849 3.1015.1861 4.6436.0036 1.0969-.1299 2.0914.6541 2.2212 1.751.1299 1.0969-.6541 2.0914-1.751 2.2212-1.8564.2198-3.734.2184-5.5902-.0042-1.0967-.1316-1.8791-1.1273-1.7476-2.224Z" clip-rule="evenodd"></path>
  </g>
  <defs>
    <linearGradient id="paint0_linear_7979_1029" x1="2.306" x2="55.874" y1="4.298" y2="34.49" gradientUnits="userSpaceOnUse">
      <stop stop-color="#00d078"></stop>
      <stop offset="1" stop-color="#007df0"></stop>
    </linearGradient>
  </defs>
</svg>