<svg xmlns="http://www.w3.org/2000/svg" fill="none" viewBox="0 0 48 48" id="Shuffle--Streamline-Plump-Gradient">
  <desc>
    Shuffle Streamline Icon: https://streamlinehq.com
  </desc>
  <g id="shuffle--multimedia-shuffle-multi-button-controls-media">
    <path id="Union" fill="url(#paint0_linear_7979_1008)" fill-rule="evenodd" d="M35.6338 3.30596c.1009-1.22965 1.2824-1.77545 2.29-1.0634.9845.69575 2.3565 1.73562 4.1614 3.25341 1.8935 1.59224 3.0722 2.8338 3.7986 3.72477.8355 1.02486.8356 2.37196.0002 3.39686-.7264.891-1.9052 2.1326-3.7988 3.7247-1.8047 1.5173-3.1765 2.557-4.161 3.2528-1.0077.7122-2.1895.1664-2.2904-1.0635-.068-.8286-.133-1.9258-.1777-3.363-2.1363-.1263-3.6599-.1263-3.6599-.1263-.8385 0-1.6215.4158-2.0866 1.108l-12.477 20.0615c-1.7674 2.6304-4.7429 4.7081-7.92917 4.7081H4.09192c-.99921 0-1.94399-.5055-2.23541-1.4612-.1984-.6507-.36628-1.5021-.36628-2.52s.16788-1.8693.36628-2.52c.29142-.9557 1.23621-1.4612 2.23542-1.4612h5.2115c.83847 0 1.62147-.4158 2.08667-1.108l12.477-20.5591c1.7674-2.63047 4.7429-4.21046 7.9291-4.21046 0 0 1.5196 0 3.6514-.12581.0448-1.57834.1138-2.76563.1862-3.64817ZM17.2326 11.2872l1.5635 2.5765-4.396 7.2436-3.01-4.9602c-.4652-.6922-1.2482-1.108-2.08667-1.108h-5.2115c-.99921 0-1.944-.5054-2.23542-1.4612-.1984-.6507-.36628-1.502-.36628-2.5199 0-1.018.16788-1.8693.36628-2.52001.29142-.95577 1.2362-1.46121 2.23542-1.46121h5.2115c3.18627 0 6.16177 1.57998 7.92917 4.21042Zm9.4003 15.4905-4.4499 7.1548 1.6833 2.7738c1.7674 2.6304 4.7429 4.2104 7.9291 4.2104 0 0 1.5199 0 3.6521.1259.0448 1.5802.1138 2.7687.1863 3.652.1009 1.2296 1.2824 1.7754 2.29 1.0634.9845-.6958 2.3565-1.7356 4.1614-3.2534 1.8935-1.5923 3.0722-2.8338 3.7986-3.7248.8355-1.0248.8356-2.372.0002-3.3969-.7264-.891-1.9052-2.1326-3.7988-3.7246-1.8047-1.5173-3.1765-2.5571-4.161-3.2529-1.0077-.7122-2.1895-.1664-2.2904 1.0635-.068.8279-.1329 1.9239-.1776 3.3591-2.1367.1264-3.6608.1264-3.6608.1264-.8385 0-1.6215-.4158-2.0866-1.108l-3.0759-5.0687Z" clip-rule="evenodd"></path>
  </g>
  <defs>
    <linearGradient id="paint0_linear_7979_1008" x1="8.849" x2="44.874" y1="10.416" y2="30.77" gradientUnits="userSpaceOnUse">
      <stop stop-color="#ffd600"></stop>
      <stop offset="1" stop-color="#00d078"></stop>
    </linearGradient>
  </defs>
</svg>