<svg xmlns="http://www.w3.org/2000/svg" fill="none" viewBox="0 0 48 48" id="Skull-2--Streamline-Plump-Gradient">
  <desc>
    Skull 2 Streamline Icon: https://streamlinehq.com
  </desc>
  <g id="skull-2--crash-death-delete-die-error-garbage-remove-skull-trash">
    <path id="Subtract" fill="url(#paint0_linear_7979_1062)" fill-rule="evenodd" d="M2.5 21C2.5 9.60659 12.1993.5 24 .5S45.5 9.60659 45.5 21v12.5c0 4.3632-.1325 7.1706-.2736 8.9249-.1744 2.1699-1.6256 4.0253-3.9135 4.4339-.3325.0594-.7003.1182-1.1063.1746-.4298.0598-.8643-.0695-1.1915-.3543-.3272-.2849-.5151-.6975-.5151-1.1314V42c0-.8284-.6716-1.5-1.5-1.5s-1.5.6716-1.5 1.5v3.9781c0 .8152-.6511 1.4812-1.4661 1.4996-.6392.0145-1.3165.0223-2.0339.0223-.3481 0-.6867-.0018-1.0162-.0054-.822-.0088-1.4838-.6778-1.4838-1.4999V42c0-.8284-.6716-1.5-1.5-1.5s-1.5.6716-1.5 1.5v3.6719c0 .4264-.1815.8327-.4992 1.1173-.3176.2845-.7414.4204-1.1653.3736-.8411-.0928-1.5517-.1974-2.1484-.304-2.2879-.4086-3.7391-2.264-3.9135-4.4339-.0361-.4488-.0716-.9661-.1045-1.5603C9.42058 38.6133 2.5 30.6174 2.5 21Zm17 2c0-2.9277 1.9164-5.5 4.5-5.5 2.5836 0 4.5 2.5723 4.5 5.5s-1.9164 5.5-4.5 5.5c-2.5836 0-4.5-2.5723-4.5-5.5ZM38 17.5c2.5836 0 4.5 2.5723 4.5 5.5s-1.9164 5.5-4.5 5.5c-2.5836 0-4.5-2.5723-4.5-5.5s1.9164-5.5 4.5-5.5Z" clip-rule="evenodd"></path>
  </g>
  <defs>
    <linearGradient id="paint0_linear_7979_1062" x1="9.529" x2="45.641" y1="9.538" y2="27.844" gradientUnits="userSpaceOnUse">
      <stop stop-color="#ffd600"></stop>
      <stop offset="1" stop-color="#00d078"></stop>
    </linearGradient>
  </defs>
</svg>