<svg xmlns="http://www.w3.org/2000/svg" fill="none" viewBox="0 0 48 48" id="Triangle-Arrow-Synchronize-2--Streamline-Plump-Gradient">
  <desc>
    Triangle Arrow Synchronize 2 Streamline Icon: https://streamlinehq.com
  </desc>
  <g id="triangle-arrow-synchronize-2--arrows-loading-load-sync-synchronize-arrow-reload">
    <path id="Union" fill="url(#paint0_linear_7979_1101)" fill-rule="evenodd" d="M40.7359 6.94172c-7.4404-6.9560604-18.9641-8.60828-28.336-3.33144C5.48429 7.50415 1.3281 14.2779.611265 21.488c-.15271 1.5361.896925 2.9904 2.537985 3.0112 1.03899.0131 2.36901-.119 3.85657-.6166 1.24856-.4177 1.9278-1.6031 2.13627-2.7588.75941-4.2097 3.35261-8.0775 7.45231-10.3858 6.0379-3.39965 13.4574-2.35315 18.2692 2.0935-.7124.7861-1.3006 1.4713-1.7835 2.0595-.6423.7822-.76 1.7319-.4202 2.5202.3395.7875 1.1103 1.3563 2.1169 1.4357 2.9468.2325 6.2043.1665 8.8905.0249 1.733-.0914 3.1129-1.4712 3.2043-3.2042.1427-2.7049.2086-5.98937-.0297-8.95245-.08-.99468-.6381-1.75944-1.416-2.09715-.7793-.33836-1.7171-.2209-2.4919.41405-.6195.50768-1.3501 1.13604-2.1981 1.90967ZM35.6 44.3898c-9.3719 5.2769-20.8955 3.6247-28.33601-3.3314-.84791.7736-1.57852 1.402-2.19805 1.9097-.77484.6349-1.71266.7524-2.49196.414-.77781-.3377-1.33598-1.1025-1.41598-2.0971-.238282-2.9631-.172396-6.2476-.0297-8.9525.09142-1.733 1.4713-3.1128 3.2043-3.2042 2.68619-.1416 5.9438-.2075 8.8905.0249 1.0066.0794 1.7775.6482 2.1169 1.4357.3398.7884.2221 1.7381-.4202 2.5203-.4829.5881-1.0711 1.2733-1.7835 2.0594 4.8119 4.4467 12.2314 5.4932 18.2692 2.0935 4.0997-2.3083 6.6929-6.1761 7.4523-10.3858.2085-1.1557.8877-2.3411 2.1363-2.7587 1.4876-.4976 2.8176-.6298 3.8566-.6167 1.641.0208 2.6907 1.4752 2.538 3.0112-.7169 7.2101-4.8731 13.9839-11.7887 17.8777Z" clip-rule="evenodd"></path>
  </g>
  <defs>
    <linearGradient id="paint0_linear_7979_1101" x1="2.395" x2="55.848" y1="4.298" y2="34.301" gradientUnits="userSpaceOnUse">
      <stop stop-color="#00d078"></stop>
      <stop offset="1" stop-color="#007df0"></stop>
    </linearGradient>
  </defs>
</svg>