<svg xmlns="http://www.w3.org/2000/svg" fill="none" viewBox="0 0 48 48" id="Triangle-Arrow-Roadmap--Streamline-Plump-Gradient">
  <desc>
    Triangle Arrow Roadmap Streamline Icon: https://streamlinehq.com
  </desc>
  <g id="triangle-arrow-roadmap">
    <path id="Union" fill="url(#paint0_linear_7979_107)" fill-rule="evenodd" d="M8.45963 10.5H4c-1.38071 0-2.5-1.11929-2.5-2.5S2.61929 5.5 4 5.5h4.45963C9.46605 2.86863 12.0148 1 15 1c2.9852 0 5.5339 1.86863 6.5404 4.5H35c5.799 0 10.5 4.701 10.5 10.5 0 5.2604-3.8683 9.6172-8.9154 10.3812C35.6102 29.075 33.0299 31 30 31c-2.9852 0-5.5339-1.8686-6.5404-4.5H13c-3.03757 0-5.5 2.4624-5.5 5.5 0 2.5314 1.71017 4.6634 4.0382 5.3036C12.5941 34.7761 15.0896 33 18 33c2.9852 0 5.5339 1.8686 6.5404 4.5h11.1087c.0358-.2959.0752-.5657.115-.8066.0669-.4063.1352-.7333.1893-.968.0271-.1175.0508-.2121.0691-.2823.0091-.0351.0169-.0641.0232-.0868l.0081-.0294.0032-.0111.0013-.0047.0009-.003L38.4615 36c.9166-2.3259.9179-2.3254.9179-2.3254l.004.0016.0056.0022.0122.0049.0282.0116c.0205.0085.0444.0186.0718.0304.0547.0238.1235.0547.2068.0942.1666.0787.3922.1917.6815.3495.578.3153 1.4147.812 2.548 1.5773 1.1852.8003 1.9497 1.4587 2.4502 1.9845.252.2648.444.5031.5907.7166.0736.107.1364.2086.1898.3049.0268.0482.0512.0951.0735.1407.0112.0228.0218.0453.0319.0674l.0148.033.0071.0164.0035.0081.0017.004c.0009.002.0017.0041-2.3007.9781 2.3023.9744 2.3015.9764 2.3006.9784l-.0017.004-.0035.0082-.0071.0163-.0148.033c-.0101.0221-.0207.0446-.0319.0674-.0223.0456-.0468.0925-.0735.1407-.0535.0962-.1163.1978-.1898.3048-.1468.2134-.3387.4517-.5907.7164-.5004.5257-1.2648 1.184-2.4499 1.9844-1.1327.765-1.9694 1.2617-2.5477 1.5771-.2893.1579-.515.2709-.6817.3497-.0834.0394-.1522.0704-.2069.0942-.0274.0118-.0512.0219-.0717.0304l-.0281.0115-.0122.0049-.0056.0023-.0027.001-.0013.0006s-.0013.0005-.9183-2.3253l.917 2.3258c-.6551.2582-1.3887.2283-2.0206-.0826-.6318-.3108-1.1033-.8737-1.2984-1.5503l-.0012-.004-.0013-.0047-.0032-.0111-.0081-.0294c-.0063-.0227-.0141-.0517-.0232-.0868-.0183-.0702-.042-.1648-.0691-.2823-.0541-.2347-.1224-.5617-.1893-.968-.0398-.2409-.0792-.5107-.115-.8066H24.5404C23.5339 45.1314 20.9852 47 18 47c-3.0299 0-5.6102-1.925-6.5846-4.6188C6.36829 41.6172 2.5 37.2604 2.5 32c0-5.799 4.70101-10.5 10.5-10.5h10.4596C24.4661 18.8686 27.0148 17 30 17c2.9104 0 5.4059 1.7761 6.4618 4.3036C38.7898 20.6634 40.5 18.5314 40.5 16c0-3.0376-2.4624-5.5-5.5-5.5H21.5404C20.5339 13.1314 17.9852 15 15 15s-5.53395-1.8686-6.54037-4.5ZM44 40l2.3024-.974c.2635.6227.2634 1.3256-.0001 1.9484L44 40Zm-5.5385-4c-2.402-.6929-2.4023-.6919-2.4023-.6919.1951-.6766.6668-1.2404 1.2985-1.5512.6318-.3109 1.3653-.341 2.0204-.0828L38.4615 36Z" clip-rule="evenodd"></path>
  </g>
  <defs>
    <linearGradient id="paint0_linear_7979_107" x1="50.4" x2="-11.187" y1="56.743" y2="13.946" gradientUnits="userSpaceOnUse">
      <stop stop-color="#ffd600"></stop>
      <stop offset="1" stop-color="#ff007a"></stop>
    </linearGradient>
  </defs>
</svg>