<svg xmlns="http://www.w3.org/2000/svg" fill="none" viewBox="0 0 48 48" id="User-Protection-1—Shield-Secure-Security-Person--Streamline-Plump-Gradient">
  <desc>
    User Protection 1—shield Secure Security Person Streamline Icon: https://streamlinehq.com
  </desc>
  <g id="user-protection-1—shield-secure-security-person">
    <path id="Union" fill="url(#paint0_linear_7979_1200)" fill-rule="evenodd" d="M16.9997 1C10.3723 1 4.99974 6.37258 4.99974 13c0 3.9458 1.90453 7.4454 4.84169 9.6319-4.48824 2.1711-7.80848 6.3223-8.75757 11.3039-.209343 1.0989-.00065 2.1648.60389 3.0047.60518.8409 1.55058 1.3767 2.66436 1.5193C6.53284 38.7391 10.3448 39 17.0036 39c2.8877 0 5.24-.0491 7.156-.1274C23.72 37.2801 23.5 35.6333 23.5 34c0-1.9071.0944-3.5992.1998-4.8977.1528-1.8811.9673-3.8772 2.4907-5.3046-.6444-.4355-1.3224-.8263-2.0294-1.1681 2.9354-2.1865 4.8386-5.6852 4.8386-9.6296 0-6.62742-5.3725-12-12-12Zm13.6117 23.8755C32.0003 24.6665 34.0338 24.5 37 24.5s4.9997.1665 6.3886.3755c2.4177.3638 3.7504 2.3639 3.9214 4.4697.1003 1.2348.19 2.8443.19 4.6548 0 4.98-2.4125 9.9115-6.9687 12.3595C39.4594 46.9354 38.1636 47.5 37 47.5c-1.1636 0-2.4594-.5646-3.5313-1.1405C28.9125 43.9115 26.5 38.98 26.5 34c0-1.8105.0897-3.42.19-4.6548.171-2.1058 1.5037-4.1059 3.9214-4.4697Z" clip-rule="evenodd"></path>
  </g>
  <defs>
    <linearGradient id="paint0_linear_7979_1200" x1="2.791" x2="55.786" y1="4.758" y2="34.623" gradientUnits="userSpaceOnUse">
      <stop stop-color="#00d078"></stop>
      <stop offset="1" stop-color="#007df0"></stop>
    </linearGradient>
  </defs>
</svg>