<svg xmlns="http://www.w3.org/2000/svg" fill="none" viewBox="0 0 48 48" id="Waving-Hand--Streamline-Plump-Gradient">
  <desc>
    Waving Hand Streamline Icon: https://streamlinehq.com
  </desc>
  <g id="waving-hand">
    <path id="Union" fill="url(#paint0_linear_7979_1275)" fill-rule="evenodd" d="M28.8624 1.64019c.4751-.997167 1.6687-1.420368 2.6658-.945249 3.9908 1.901469 7.09 5.950379 8.4213 10.208759.3296 1.0542-.2579 2.1761-1.3121 2.5057-1.0543.3295-2.1761-.2579-2.5057-1.3122-1.0617-3.3961-3.5133-6.452-6.324-7.79121-.9972-.47512-1.4204-1.66864-.9453-2.6658ZM2.67352 19.6593c1.10184.0777 1.93212 1.0338 1.85448 2.1357-.24918 3.5363 1.18736 7.6102 3.5193 10.432.70365.8514.58383 2.1121-.26762 2.8157-.85144.7037-2.11209.5839-2.81573-.2676C2.04968 31.2487.208962 26.1821.537892 21.5138c.077637-1.1018 1.033788-1.9321 2.135628-1.8545ZM29.6369 7.40751c-.8792-1.4296-2.6184-2.40738-4.3279-1.6918-.2551.10674-.513.23093-.7628.37538-.3343.19331-.6306.39237-.8921.58944-1.4193 1.06954-1.2907 2.93281-.4716 4.25257 1.3373 2.155 3.4844 5.6246 4.8292 7.8478.3885.6422.1713 1.4755-.488 1.8568-.6478.3745-1.4697.1664-1.8573-.4693-1.4844-2.4343-4.3402-7.1174-5.8529-9.596-.6254-1.02469-1.7873-1.91957-3.1583-1.52624-.4636.133-.9894.34397-1.5574.67238-.4049.23417-.7561.47176-1.0587.70156-1.3214 1.0039-1.3158 2.7201-.5468 4.0014.9748 1.624 2.4461 4.0013 3.82 6.2212l.0018.0028c.8218 1.3278 1.6088 2.5995 2.2358 3.6229.3954.6455.1789 1.4889-.4838 1.8721-.6411.3707-1.4597.1657-1.8503-.4634l-4.0952-6.5956c-.6049-.9743-1.7336-1.8359-3.0526-1.3937-.40634.1362-.8697.339-1.38429.6365-.36005.2082-.68157.4261-.96652.643-1.4839 1.1295-1.37253 3.1057-.48964 4.5054 1.45124 2.3007 3.87605 6.205 6.11075 10.0826 1.5758 2.746 4.0072 6.087 6.4721 8.8206 3.1656 3.5107 8.1003 3.9792 12.2241 1.8238.8937-.4671 1.8631-.9972 2.8969-1.595 2.6061-1.5071 4.4297-2.7434 5.6503-3.6507 1.4904-1.1078 2.6041-2.6106 3.299-4.3181 2.1195-5.2076 3.1449-11.0776 3.5598-14.0198.1872-1.3274-.0424-2.7991-1.0529-3.8439-.5798-.5994-1.2047-1.0702-1.805-1.4376-.9417-.5764-1.9762-.57-2.8595-.1683-.8731.3971-1.5939 1.1749-1.9771 2.1459-.5646 1.4306-1.0537 2.7586-1.4017 3.7287-.0712.1987-.1366.3824-.1955.549l.0012.0042c-1.4432.419-3.0726 1.5397-4.213 3.0931-1.1258 1.5335-1.6646 3.3269-1.2667 5.1194.2094.9436-.3857 1.8782-1.3293 2.0876-.9435.2095-1.8782-.3857-2.0876-1.3292-.6678-3.0089.2956-5.8151 1.8623-7.9491 1.3615-1.8545 3.2626-3.3247 5.2295-4.0993l.0012.0007c-2.5845-4.3728-5.1983-8.65258-6.7095-11.10979Z" clip-rule="evenodd"></path>
  </g>
  <defs>
    <linearGradient id="paint0_linear_7979_1275" x1="51.573" x2="-9.948" y1="55.031" y2="9.388" gradientUnits="userSpaceOnUse">
      <stop stop-color="#ffd600"></stop>
      <stop offset="1" stop-color="#ff007a"></stop>
    </linearGradient>
  </defs>
</svg>