<svg xmlns="http://www.w3.org/2000/svg" fill="none" viewBox="0 0 14 14" id="Camera-Square--Streamline-Core">
  <desc>
    Camera Square Streamline Icon: https://streamlinehq.com
  </desc>
  <g id="camera-square--photos-picture-camera-photography-photo-pictures-frame-square">
    <path id="Exclude" fill="#000000" fill-rule="evenodd" d="M0 1.5C0 0.671573 0.671573 0 1.5 0h11c0.8284 0 1.5 0.671573 1.5 1.5v11c0 0.8284 -0.6716 1.5 -1.5 1.5h-11C0.671573 14 0 13.3284 0 12.5v-11Zm10.8244 4.73173c0 -0.2898 -0.1151 -0.56773 -0.32 -0.77265 -0.2049 -0.20492 -0.4829 -0.32004 -0.77268 -0.32004h-0.54635L8.09268 3.5H5.9073L4.81461 5.13904h-0.54635c-0.2898 0 -0.56773 0.11512 -0.77265 0.32004s-0.32004 0.48285 -0.32004 0.77265v2.73173c0 0.2898 0.11512 0.56773 0.32004 0.77265s0.48285 0.32009 0.77265 0.32009h5.46346c0.28978 0 0.56778 -0.11517 0.77268 -0.32009 0.2049 -0.20492 0.32 -0.48285 0.32 -0.77265V6.23173ZM5.80881 7.4693c0 -0.65789 0.53333 -1.19122 1.19122 -1.19122 0.6579 0 1.19123 0.53333 1.19123 1.19122 0 0.6579 -0.53333 1.19123 -1.19123 1.19123 -0.65789 0 -1.19122 -0.53333 -1.19122 -1.19123Z" clip-rule="evenodd" stroke-width="1"></path>
  </g>
</svg>