<svg xmlns="http://www.w3.org/2000/svg" fill="none" viewBox="0 0 14 14" id="Film-Roll-1--Streamline-Core">
  <desc>
    Film Roll 1 Streamline Icon: https://streamlinehq.com
  </desc>
  <g id="film-roll-1--photos-camera-shutter-picture-photography-pictures-photo-film-roll">
    <path id="Subtract" fill="#000000" fill-rule="evenodd" d="M0 6C0 2.96243 2.46243 0.5 5.5 0.5S11 2.96243 11 6c0 0.06114 -0.001 0.12205 -0.003 0.18271 0.002 0.02217 0.003 0.04461 0.003 0.06729v5c0 0.4142 0.3358 0.75 0.75 0.75s0.75 -0.3358 0.75 -0.75 0.3358 -0.75 0.75 -0.75 0.75 0.3358 0.75 0.75c0 1.2426 -1.0074 2.25 -2.25 2.25S9.5 12.4926 9.5 11.25V9.77494C8.49723 10.8371 7.07603 11.5 5.5 11.5 2.46243 11.5 0 9.03757 0 6Zm6.375 -2.5c0 0.48325 -0.39175 0.875 -0.875 0.875s-0.875 -0.39175 -0.875 -0.875 0.39175 -0.875 0.875 -0.875 0.875 0.39175 0.875 0.875ZM3.19531 6.88281c0.48325 0 0.875 -0.39175 0.875 -0.875s-0.39175 -0.875 -0.875 -0.875 -0.875 0.39175 -0.875 0.875 0.39175 0.875 0.875 0.875Zm5.48438 -0.875c0 0.48325 -0.39175 0.875 -0.875 0.875s-0.875 -0.39175 -0.875 -0.875 0.39175 -0.875 0.875 -0.875 0.875 0.39175 0.875 0.875ZM5.5 9.24219c0.48325 0 0.875 -0.39175 0.875 -0.875s-0.39175 -0.875 -0.875 -0.875 -0.875 0.39175 -0.875 0.875 0.39175 0.875 0.875 0.875Z" clip-rule="evenodd" stroke-width="1"></path>
  </g>
</svg>