<svg xmlns="http://www.w3.org/2000/svg" fill="none" viewBox="0 0 14 14"><g id="focus-points--camera-frame-photography-pictures-photo-focus-position"><path id="Union" fill="#3e3e3e" fill-rule="evenodd" d="M.542 1.497c.32-.32.753-.5 1.205-.5h.955a.75.75 0 0 1 0 1.5h-.955a.205.205 0 0 0-.205.205v.955a.75.75 0 0 1-1.5 0v-.955c0-.452.18-.886.5-1.205Zm10.006.25a.75.75 0 0 1 .75-.75h.955a1.705 1.705 0 0 1 1.705 1.705v.955a.75.75 0 0 1-1.5 0v-.955a.205.205 0 0 0-.205-.205h-.955a.75.75 0 0 1-.75-.75Zm3.41 8.596a.75.75 0 1 0-1.5 0v.955a.205.205 0 0 1-.205.205h-.955a.75.75 0 0 0 0 1.5h.955a1.705 1.705 0 0 0 1.705-1.705v-.955ZM.792 9.593a.75.75 0 0 1 .75.75v.955a.205.205 0 0 0 .205.205h.955a.75.75 0 0 1 0 1.5h-.955a1.705 1.705 0 0 1-1.705-1.705v-.955a.75.75 0 0 1 .75-.75ZM6 3a1 1 0 1 1 2 0 1 1 0 0 1-2 0ZM3 6a1 1 0 1 0 0 2 1 1 0 0 0 0-2Zm4 0a1 1 0 1 0 0 2 1 1 0 0 0 0-2Zm3 1a1 1 0 1 1 2 0 1 1 0 0 1-2 0Zm-3 3a1 1 0 1 0 0 2 1 1 0 0 0 0-2Z" clip-rule="evenodd"></path></g></svg>