<svg xmlns="http://www.w3.org/2000/svg" fill="none" viewBox="0 0 14 14" id="Landscape-2--Streamline-Core">
  <desc>
    Landscape 2 Streamline Icon: https://streamlinehq.com
  </desc>
  <g id="landscape-2--photos-photo-landscape-picture-photography-camera-pictures-image">
    <path id="Subtract" fill="#000000" fill-rule="evenodd" d="M14 12.5c0 0.8284 -0.6716 1.5 -1.5 1.5h-11C0.671573 14 0 13.3284 0 12.5v-11C0 0.671573 0.671573 0 1.5 0h11c0.8284 0 1.5 0.671573 1.5 1.5v11ZM3.75 2C2.7835 2 2 2.7835 2 3.75S2.7835 5.5 3.75 5.5 5.5 4.7165 5.5 3.75 4.7165 2 3.75 2Zm4.65099 4.59901L2.5 12.5h10v-4L9.68934 6.49238c-0.39779 -0.28413 -0.94269 -0.23903 -1.28835 0.10663Z" clip-rule="evenodd" stroke-width="1"></path>
  </g>
</svg>