<svg xmlns="http://www.w3.org/2000/svg" fill="none" viewBox="0 0 14 14"><g id="orientation-portrait--photos-photo-orientation-portrait-picture-photography-camera-pictures-image"><path id="Subtract" fill="#3e3e3e" fill-rule="evenodd" d="M11 0a1.5 1.5 0 0 1 1.5 1.5v11A1.5 1.5 0 0 1 11 14H3a1.5 1.5 0 0 1-1.5-1.5v-11A1.5 1.5 0 0 1 3 0h8Zm-.681 4.531a1.5 1.5 0 1 1-3 0 1.5 1.5 0 0 1 3 0ZM3.063 8.22c1.121-.023 2.208.31 3.068.93 1.223.882 1.795 2.375 1.898 3.85H3a.5.5 0 0 1-.5-.5V8.245c.183-.017.367-.026.552-.025h.01Zm6.834 1.344a6.9 6.9 0 0 0-1.826.242c.605.977.894 2.116.96 3.194H11a.5.5 0 0 0 .5-.5V9.753a6.827 6.827 0 0 0-1.602-.189h-.001Z" clip-rule="evenodd"></path></g></svg>