<svg xmlns="http://www.w3.org/2000/svg" fill="none" viewBox="0 0 24 24"><path stroke="#000" d="M3.76462 7C5.54188 3.72419 9.0112 1.5 13 1.5C18.799 1.5 23.5 6.20101 23.5 12C23.5 17.799 18.799 22.5 13 22.5C8.61734 22.5 4.86182 19.8149 3.28878 16M18 16H3.28878M0 16H3.28878M2 13H11.5V12C11.5 10.3431 10.1569 9 8.5 9C7.96024 9 3.80793 9.437 0.100098 9.83926M13.5 11.4C13.5 11.4 14.5 13 15.75 13C16.7165 13 17.5 12.2165 17.5 11.25C17.5 10.2835 16.7165 9.50432 15.75 9.50432C14.5 9.50432 13.5 11.1 13.5 11.1V11.4Z"></path></svg>