<svg xmlns="http://www.w3.org/2000/svg" fill="none" viewBox="0 0 40 40" id="Candy-Cane--Streamline-Stickies">
  <desc>
    Candy Cane Streamline Icon: https://streamlinehq.com
  </desc>
  <path fill="#ff52a1" stroke="#231f20" stroke-miterlimit="10" d="M20 0.5c-2.29 0 -15.5 0.57 -15.14 14.44 0 0.7 0 3.54 1 4.88 0.34 1.18 2.54 2.35 4.36 2.35 1.82 0 4 -1.18 4.44 -2.35 1.9 -2.7 -0.67 -8.49 5.31 -8.49 5.81 0 4.33 5.81 4.33 13.55 0 4.71 0.16 11 1 12.18 0.42 1.22 2.62 2.44 4.44 2.44 1.82 0 4 -1.22 4.44 -2.44 0.82 -1.22 1 -7.47 1 -12.18C35.14 14.53 36.67 0.5 20 0.5Z" stroke-width="1"></path>
  <path stroke="#231f20" stroke-linecap="round" stroke-miterlimit="10" d="M27.47 30.49s0.83 -0.52 2.4 -1.67c1.57 -1.15 2.31 -1.82 2.31 -1.82" stroke-width="1"></path>
  <path stroke="#231f20" stroke-linecap="round" stroke-miterlimit="10" d="M27.47 20.68s0.83 -0.52 2.4 -1.67c1.57 -1.15 2.31 -1.8 2.31 -1.8" stroke-width="1"></path>
  <path stroke="#231f20" stroke-linecap="round" stroke-miterlimit="10" d="M8.3 16.5s0.82 -0.52 2.39 -1.67C12.26 13.68 13 13 13 13" stroke-width="1"></path>
  <path stroke="#231f20" stroke-linecap="round" stroke-miterlimit="10" d="M25.54 10.25s0.28 -0.93001 0.71 -2.83001c0.43 -1.9 0.57 -2.87 0.57 -2.87" stroke-width="1"></path>
  <path stroke="#231f20" stroke-linecap="round" stroke-miterlimit="10" d="M18.86 8.46002s-0.52 -0.83 -1.68 -2.39 -1.8 -2.3 -1.8 -2.3" stroke-width="1"></path>
  <path stroke="#ffffff" stroke-linecap="round" stroke-miterlimit="10" d="M30 7.40002c0.9254 1.23661 1.5518 2.67078 1.83 4.18998" stroke-width="1"></path>
</svg>