<svg xmlns="http://www.w3.org/2000/svg" fill="none" viewBox="0 0 24 24" id="Cloudsmith-Logo--Streamline-Logos">
  <desc>
    Cloudsmith Logo Streamline Icon: https://streamlinehq.com
  </desc>
  <path stroke="#000000" stroke-linecap="round" stroke-linejoin="round" d="M4.524 14.444c-1.531 -1.58 -1.29 -4.294 0.53 -5.548 1.43 -0.985 3.29 -0.084 4.563 -1.302 1.432 -1.382 0.473 -3.54 1.898 -5.01 1.354 -1.398 3.604 -1.428 4.961 -0.028 1.35 1.393 1.35 3.707 0 5.1 -1.524 1.572 -3.668 0.357 -5.11 1.777 -1.279 1.233 -0.55 3.052 -1.464 4.465 -1.182 1.825 -3.836 2.137 -5.378 0.546Z" stroke-width="1"></path>
  <path stroke="#000000" stroke-linejoin="round" d="M11 19a3.5 3.5 0 1 0 7 0 3.5 3.5 0 1 0 -7 0" stroke-width="1"></path>
</svg>