<svg xmlns="http://www.w3.org/2000/svg" fill="none" viewBox="0 0 24 24" id="Crowdin-Logo--Streamline-Logos">
  <desc>
    Crowdin Logo Streamline Icon: https://streamlinehq.com
  </desc>
  <path stroke="#000000" stroke-linecap="round" stroke-linejoin="round" d="M22.5 5.942C13.025 2.207 2.233 4.01 1.537 10.574l4.101 0.915C7.441 6.821 11.753 4.68 22.5 5.942Z" stroke-width="1"></path>
  <path stroke="#000000" stroke-linecap="round" stroke-linejoin="round" d="M12.485 19.408C6.242 20.99 1.5 19.408 1.5 13l3.662 0.915c-0.121 2.31 1.684 6.573 7.323 5.493Z" stroke-width="1"></path>
  <path stroke="#000000" stroke-linecap="round" stroke-linejoin="round" d="m7.972 12.002 2.325 0.366c0.687 -3.231 5.923 -4.742 10.62 -4.494C15.02 6.38 8.63 7.919 7.971 12.002Z" stroke-width="1"></path>
  <path stroke="#000000" stroke-linecap="round" stroke-linejoin="round" d="M7.972 14.034c-0.183 1.4 0.97 4.156 5.383 3.78 -2.773 -1.021 -3.085 -3.313 -3.085 -3.313l-2.298 -0.467Z" stroke-width="1"></path>
  <path stroke="#000000" stroke-linecap="round" stroke-linejoin="round" d="m13.18 12.78 2.143 0.257c0.264 -1.48 2.48 -2.902 5.044 -3.177 -2.856 -0.604 -6.518 0.147 -7.186 2.92Z" stroke-width="1"></path>
  <path stroke="#000000" stroke-linecap="round" stroke-linejoin="round" d="M13.355 14.501c0.1 2.069 1.666 3.067 4.238 2.59 -1.643 -0.336 -2.39 -1.6 -2.39 -2.343l-1.848 -0.247Z" stroke-width="1"></path>
  <path stroke="#000000" stroke-linecap="round" stroke-linejoin="round" d="M5.16 13.92c0.042 -0.972 0.143 -1.505 0.48 -2.428" stroke-width="1"></path>
  <path stroke="#000000" stroke-linecap="round" stroke-linejoin="round" d="M10.3 12.37c-0.101 0.658 -0.193 1.296 -0.03 2.13" stroke-width="1"></path>
  <path stroke="#000000" stroke-linecap="round" stroke-linejoin="round" d="M15.2 14.75c-0.006 -0.607 0 -1.07 0.12 -1.71" stroke-width="1"></path>
</svg>