<svg xmlns="http://www.w3.org/2000/svg" fill="none" viewBox="0 0 24 24" id="Microsoft-Onedrive-Logo-2--Streamline-Logos">
  <desc>
    Microsoft Onedrive Logo 2 Streamline Icon: https://streamlinehq.com
  </desc>
  <path stroke="#000000" stroke-linecap="round" stroke-linejoin="round" d="M16.874 8a4.002 4.002 0 0 0 -7.612 -0.428 3 3 0 0 0 -4.554 3.53A2.501 2.501 0 0 0 1.5 13.5 2.5 2.5 0 0 0 4 16h1" stroke-width="1"></path>
  <path stroke="#000000" stroke-linejoin="round" d="M20.5 17a2 2 0 1 0 -0.568 -3.918 2.5 2.5 0 0 0 -4.12 -2.425 3.251 3.251 0 0 0 -6.298 1.396A2.5 2.5 0 1 0 9 17h11.5Z" stroke-width="1"></path>
</svg>