<svg xmlns="http://www.w3.org/2000/svg" fill="none" viewBox="0 0 24 24" id="Nuke-Logo--Streamline-Logos">
  <desc>
    Nuke Logo Streamline Icon: https://streamlinehq.com
  </desc>
  <path stroke="#000000" stroke-linejoin="round" d="M14.227 10.247a0.5 0.5 0 1 1 0 -1" stroke-width="1"></path>
  <path stroke="#000000" stroke-linejoin="round" d="M14.227 10.247a0.5 0.5 0 1 0 0 -1" stroke-width="1"></path>
  <path stroke="#000000" stroke-linejoin="round" d="M1.5 12a10.5 10.5 0 1 0 21 0 10.5 10.5 0 1 0 -21 0" stroke-width="1"></path>
  <path stroke="#000000" stroke-linejoin="round" d="M11.71 7.231 8.95 4.603a8.026 8.026 0 0 0 -4.425 4.543h5.722a1 1 0 0 1 0.744 0.332l3.27 3.643a1 1 0 0 1 0.255 0.718l-0.297 5.85a8.02 8.02 0 0 0 5.053 -4.348l-2.48 -2.557a1 1 0 0 1 -0.282 -0.697v-1.94a1 1 0 0 1 1 -1h1.967a8.022 8.022 0 0 0 -4.94 -4.737v2.097a1 1 0 0 1 -1 1H12.4a1 1 0 0 1 -0.69 -0.276Z" stroke-width="1"></path>
</svg>