<svg xmlns="http://www.w3.org/2000/svg" fill="none" viewBox="0 0 14 14"><g id="dhammajak--religion-dhammajak-culture-bhuddhism-buddish"><path id="Subtract" fill="#3e3e3e" fill-rule="evenodd" d="M6.375.09a6.905 6.905 0 0 0-3.823 1.585L5.706 4.83c.206-.123.43-.218.669-.279V.09ZM1.669 2.56A6.905 6.905 0 0 0 .09 6.383h4.46c.06-.237.153-.461.274-.667L1.669 2.56ZM.093 7.633a6.905 6.905 0 0 0 1.585 3.813l3.155-3.155a2.508 2.508 0 0 1-.276-.658H.093Zm2.47 4.696a6.905 6.905 0 0 0 3.812 1.577V9.442a2.508 2.508 0 0 1-.655-.27l-3.157 3.157Zm5.062 1.577a6.905 6.905 0 0 0 3.812-1.577L8.28 9.17c-.202.12-.422.211-.655.27v4.465Zm4.697-2.46a6.905 6.905 0 0 0 1.585-3.813H9.442c-.06.234-.154.455-.276.657l3.156 3.156Zm1.587-5.063a6.905 6.905 0 0 0-1.578-3.822L9.175 5.717c.12.205.214.429.273.666h4.461Zm-2.46-4.707A6.905 6.905 0 0 0 7.624.089v4.462c.238.061.463.156.669.28l3.154-3.155Zm-5.723 5.32c0-.7.567-1.269 1.267-1.273h.014a1.273 1.273 0 1 1-1.28 1.274Z" clip-rule="evenodd"></path></g></svg>