<svg xmlns="http://www.w3.org/2000/svg" fill="none" viewBox="0 0 14 14"><g id="islam--religion-islam-moon-crescent-muslim-culture-star"><path id="Union" fill="#3e3e3e" fill-rule="evenodd" d="M7.325.003a7 7 0 1 0 3.529 12.92.5.5 0 0 0-.264-.923 5 5 0 0 1 0-10 .5.5 0 0 0 .264-.923A7 7 0 0 0 7.325.003Zm4.87 4.941a.5.5 0 0 0-.894.002l-.4.806h-.774a.5.5 0 0 0-.359.848l.635.654-.17.944a.5.5 0 0 0 .745.52l.776-.454.822.46a.5.5 0 0 0 .733-.542l-.201-.936.627-.646a.5.5 0 0 0-.358-.848h-.775l-.407-.808Z" clip-rule="evenodd"></path></g></svg>