<svg xmlns="http://www.w3.org/2000/svg" fill="none" viewBox="0 0 14 14"><g id="zodiac-9--sign-astrology-stars-space-gemini"><path id="Union" fill="#3e3e3e" fill-rule="evenodd" d="M1.746.334A1 1 0 1 0 .254 1.666 8.226 8.226 0 0 0 3.29 3.787c.133.054.267.105.402.153v6.12a9.24 9.24 0 0 0-.402.153 8.226 8.226 0 0 0-3.036 2.121 1 1 0 0 0 1.492 1.332 6.227 6.227 0 0 1 2.3-1.602 7.105 7.105 0 0 1 2.92-.515h.067a7.113 7.113 0 0 1 2.92.515c.91.372 1.696.924 2.3 1.602a1 1 0 1 0 1.493-1.332 8.226 8.226 0 0 0-3.036-2.121 8.698 8.698 0 0 0-.402-.153V3.94a9.24 9.24 0 0 0 .402-.153 8.226 8.226 0 0 0 3.036-2.121A1 1 0 0 0 12.254.334a6.228 6.228 0 0 1-2.3 1.602c-.91.371-1.911.55-2.92.515h-.067a7.115 7.115 0 0 1-2.92-.515 6.227 6.227 0 0 1-2.3-1.602Zm6.562 4.064A9.23 9.23 0 0 1 7 4.45a9.23 9.23 0 0 1-1.308-.053v5.204c.433-.048.87-.066 1.308-.053a9.23 9.23 0 0 1 1.308.053V4.398Z" clip-rule="evenodd"></path></g></svg>