<svg xmlns="http://www.w3.org/2000/svg" viewBox="0 0 14 14">
  <g>
    <path d="M10,14H1.75A1.76,1.76,0,0,1,0,12.25V4a.76.76,0,0,1,.75-.75A.76.76,0,0,1,1.5,4v8.25a.25.25,0,0,0,.25.25H10A.75.75,0,0,1,10,14Z" style="fill: #000001"/>
    <path d="M12.5,0h-8A1.5,1.5,0,0,0,3,1.5v8A1.5,1.5,0,0,0,4.5,11h8A1.5,1.5,0,0,0,14,9.5v-8A1.5,1.5,0,0,0,12.5,0ZM5.75,4A.74.74,0,0,1,7,3.49l1,1a.24.24,0,0,0,.35,0l1.8-1.8a.75.75,0,0,1,1.06,1.06l-1.8,1.8a.24.24,0,0,0,0,.35l1,1a.76.76,0,0,1,.23.53.76.76,0,0,1-.75.75H6.5a.76.76,0,0,1-.75-.75Z" style="fill: #000001"/>
  </g>
</svg>
