<svg xmlns="http://www.w3.org/2000/svg" viewBox="0 0 14 14">
  <g>
    <path d="M5.5,12.75a.74.74,0,0,1-1.29.51l-1-1a.24.24,0,0,0-.35,0L1.28,13.78A.75.75,0,0,1,.22,12.72l1.55-1.55a.24.24,0,0,0,0-.35l-1-1A.76.76,0,0,1,.5,9.25a.76.76,0,0,1,.75-.75h3.5a.76.76,0,0,1,.75.75Z" style="fill: #000001"/>
    <path d="M12.75,8.5a.74.74,0,0,1,.51,1.29l-1,1a.24.24,0,0,0,0,.35l1.55,1.55a.75.75,0,0,1-1.06,1.06l-1.55-1.55a.24.24,0,0,0-.35,0l-1,1a.76.76,0,0,1-.53.23.76.76,0,0,1-.75-.75V9.25a.76.76,0,0,1,.75-.75Z" style="fill: #000001"/>
    <path d="M8.5,1.25A.74.74,0,0,1,9.79.74l1,1a.24.24,0,0,0,.35,0L12.72.22a.75.75,0,0,1,1.06,1.06L12.23,2.83a.24.24,0,0,0,0,.35l1,1a.76.76,0,0,1,.23.53.76.76,0,0,1-.75.75H9.25a.76.76,0,0,1-.75-.75Z" style="fill: #000001"/>
    <path d="M1.25,5.5A.74.74,0,0,1,.74,4.21l1-1a.24.24,0,0,0,0-.35L.22,1.28A.75.75,0,0,1,1.28.22L2.83,1.77a.24.24,0,0,0,.35,0l1-1A.76.76,0,0,1,4.75.5a.76.76,0,0,1,.75.75v3.5a.76.76,0,0,1-.75.75Z" style="fill: #000001"/>
  </g>
</svg>
