<svg xmlns="http://www.w3.org/2000/svg" fill="none" viewBox="0 0 48 48" id="Webcam--Streamline-Kameleon">
  <desc>
    Webcam Streamline Icon: https://streamlinehq.com
  </desc>
  <path fill="#52c1ff" d="M24.0006 48.0012c13.2553 0 24.0006 -10.7453 24.0006 -24.0006C48.0012 10.7453 37.2559 0 24.0006 0 10.7453 0 0 10.7453 0 24.0006c0 13.2553 10.7453 24.0006 24.0006 24.0006Z" stroke-width="1"></path>
  <path fill="#000000" fill-rule="evenodd" d="M14.3024 31.0483c2.3957 2.6401 5.8536 4.2983 9.6976 4.2983 3.8445 0 7.3023 -1.6582 9.6976 -4.2983 1.9231 1.965 3.3775 3.8035 4.046 5.4639 0.1118 0.1257 0.1849 0.2811 0.2105 0.4475 0.0255 0.1663 0.0024 0.3365 -0.0665 0.49 -0.069 0.1535 -0.1808 0.2838 -0.3221 0.3752 -0.1413 0.0914 -0.306 0.14 -0.4743 0.14H10.9088c-0.1325 -0.0007 -0.263 -0.0316 -0.3816 -0.0906 -0.1186 -0.0589 -0.2222 -0.1442 -0.3027 -0.2494 -0.101 -0.1249 -0.1646 -0.276 -0.1835 -0.4356 -0.0188 -0.1596 0.0079 -0.3213 0.077 -0.4663 0.6961 -1.4942 1.6133 -3.0494 4.1844 -5.6747Z" clip-rule="evenodd" stroke-width="1"></path>
  <path fill="#000000" d="M36.2192 22.2561c0 6.7463 -5.4721 12.2185 -12.2185 12.2185 -6.7463 0 -12.2185 -5.4722 -12.2185 -12.2185 0 -6.7468 5.4739 -12.2185 12.2185 -12.2185 6.7455 0 12.2185 5.473 12.2185 12.2185Z" stroke-width="1"></path>
  <path fill="#ffffff" d="M29.2213 15.2741h0.0161c-0.9425 -1.3789 -1.0865 -2.8277 -0.5978 -4.3245 -1.4717 -0.6045 -3.0477 -0.9144 -4.6387 -0.912 -1.6538 0 -3.2291 0.3273 -4.6692 0.9251 0.5673 1.7543 0.3186 3.1637 -0.5673 4.3114h0.0162c-2.1256 1.5919 -3.5072 4.1224 -3.5072 6.982 0 4.8202 3.9073 8.7275 8.7275 8.7275 4.8202 0 8.7275 -3.9073 8.7275 -8.7275 0 -2.8596 -1.3815 -5.3901 -3.5071 -6.982Z" stroke-width="1"></path>
  <path fill="#000000" d="M24.0002 27.492c2.8918 0 5.2365 -2.3446 5.2365 -5.2365 0 -2.8918 -2.3447 -5.2365 -5.2365 -5.2365 -2.8919 0 -5.2365 2.3447 -5.2365 5.2365 0 2.8919 2.3446 5.2365 5.2365 5.2365Z" stroke-width="1"></path>
  <path fill="#000000" d="M24.0002 14.8368c0.3471 0 0.68 -0.1379 0.9255 -0.3833 0.2454 -0.2455 0.3833 -0.5783 0.3833 -0.9255 0 -0.3471 -0.1379 -0.68 -0.3833 -0.9254 -0.2455 -0.2455 -0.5784 -0.3834 -0.9255 -0.3834 -0.3471 0 -0.68 0.1379 -0.9255 0.3834 -0.2454 0.2454 -0.3833 0.5783 -0.3833 0.9254 0 0.3472 0.1379 0.68 0.3833 0.9255 0.2455 0.2454 0.5784 0.3833 0.9255 0.3833Z" stroke-width="1"></path>
</svg>