<svg xmlns="http://www.w3.org/2000/svg" viewBox="0 0 14 14">
  <path d="M12.25,0H1.75A1.76,1.76,0,0,0,0,1.75v7.5A1.76,1.76,0,0,0,1.75,11H5a.26.26,0,0,1,.21.11.29.29,0,0,1,0,.24L4.56,13a.75.75,0,0,0,.69,1h3.5a.75.75,0,0,0,.69-1l-.67-1.61a.29.29,0,0,1,0-.24A.26.26,0,0,1,9,11h3.25A1.76,1.76,0,0,0,14,9.25V1.75A1.76,1.76,0,0,0,12.25,0ZM4.5,6.5A.75.75,0,0,1,3,6.5v-2a.75.75,0,0,1,1.5,0Zm3.25,1a.75.75,0,0,1-1.5,0v-4a.75.75,0,0,1,1.5,0ZM11,6.5a.75.75,0,0,1-1.5,0v-2a.75.75,0,0,1,1.5,0Z" style="fill: #000001"/>
</svg>
