<svg xmlns="http://www.w3.org/2000/svg" viewBox="0 0 14 14">
  <g>
    <path d="M14,1.75A1.76,1.76,0,0,0,12.25,0H1.75A1.76,1.76,0,0,0,0,1.75v7.5A1.76,1.76,0,0,0,1.75,11H5a.26.26,0,0,1,.21.11.29.29,0,0,1,0,.24L4.56,13a.75.75,0,0,0,.69,1h3.5a.75.75,0,0,0,.69-1l-.67-1.61a.29.29,0,0,1,0-.24A.26.26,0,0,1,9,11h3.25A1.76,1.76,0,0,0,14,9.25Zm-1.5,7.5a.25.25,0,0,1-.25.25H1.75a.25.25,0,0,1-.25-.25V1.75a.25.25,0,0,1,.25-.25h10.5a.25.25,0,0,1,.25.25Z" style="fill: #000001"/>
    <path d="M3.75,7A.76.76,0,0,1,3,6.25V4.75a.75.75,0,0,1,1.5,0v1.5A.76.76,0,0,1,3.75,7Z" style="fill: #000001"/>
    <path d="M7,8a.76.76,0,0,1-.75-.75V3.75a.75.75,0,0,1,1.5,0v3.5A.76.76,0,0,1,7,8Z" style="fill: #000001"/>
    <path d="M10.25,7a.76.76,0,0,1-.75-.75V4.75a.75.75,0,0,1,1.5,0v1.5A.76.76,0,0,1,10.25,7Z" style="fill: #000001"/>
  </g>
</svg>
