<svg xmlns="http://www.w3.org/2000/svg" viewBox="0 0 14 14">
  <path d="M14,1.75A1.76,1.76,0,0,0,12.25,0H1.75A1.76,1.76,0,0,0,0,1.75v7.5A1.76,1.76,0,0,0,1.75,11H5a.26.26,0,0,1,.21.11.29.29,0,0,1,0,.24L4.56,13a.75.75,0,0,0,.69,1h3.5a.75.75,0,0,0,.69-1l-.67-1.61a.29.29,0,0,1,0-.24A.26.26,0,0,1,9,11h3.25A1.76,1.76,0,0,0,14,9.25ZM3.78,6.47a.75.75,0,0,1,0,1.06.75.75,0,0,1-1.06,0L1.22,6A.75.75,0,0,1,1.22,5l1.5-1.5A.75.75,0,1,1,3.78,4.53L3,5.32a.25.25,0,0,0,0,.36ZM8.5,7a.5.5,0,0,1-.5.5H6A.5.5,0,0,1,5.5,7V4A.5.5,0,0,1,6,3.5H8a.5.5,0,0,1,.5.5Zm4.28-1-1.5,1.5a.75.75,0,0,1-1.06,0,.75.75,0,0,1,0-1.06L11,5.68a.25.25,0,0,0,0-.36l-.79-.79a.75.75,0,1,1,1.06-1.06L12.78,5A.75.75,0,0,1,12.78,6Z" style="fill: #000001"/>
</svg>
