<svg xmlns="http://www.w3.org/2000/svg" viewBox="0 0 14 14">
  <g>
    <path d="M13.893,2.636a.75.75,0,0,0-.257-1.029l-2.5-1.5A.75.75,0,0,0,10,.75v2.5a.25.25,0,0,1-.077.18.245.245,0,0,1-.183.07c-.079,0-.159,0-.24,0a2,2,0,1,0,2,2V2.516a.25.25,0,0,1,.378-.214l.986.591A.749.749,0,0,0,13.893,2.636Z" style="fill: #000001"/>
    <path d="M13.248,4.5A.25.25,0,0,0,13,4.75V5.5A3.5,3.5,0,1,1,8.333,2.2.251.251,0,0,0,8.5,1.964V.75A1.919,1.919,0,0,1,8.554.307.251.251,0,0,0,8.31,0H1.75A1.752,1.752,0,0,0,0,1.75v7.5A1.752,1.752,0,0,0,1.75,11H5a.25.25,0,0,1,.231.346l-.673,1.615A.75.75,0,0,0,5.25,14h3.5a.75.75,0,0,0,.692-1.039l-.673-1.615A.25.25,0,0,1,9,11h3.25A1.752,1.752,0,0,0,14,9.25V4.69a.251.251,0,0,0-.308-.244A1.928,1.928,0,0,1,13.248,4.5Z" style="fill: #000001"/>
  </g>
</svg>
