<svg xmlns="http://www.w3.org/2000/svg" fill="none" viewBox="0 0 48 48" id="Building-Office--Streamline-Plump-Neon">
  <desc>
    Building Office Streamline Icon: https://streamlinehq.com
  </desc>
  <g id="building-office--travel-places-building-office">
    <path id="Vector" stroke="#000cfe" stroke-linecap="round" stroke-linejoin="round" d="m30.7227 44.9982 11.0702 0c1.5937 0 2.9048 -1.2434 2.9677 -2.8358 0.1062 -2.6885 0.2399 -7.0006 0.2399 -11.6642 0 -3.5633 -0.1562 -6.7747 -0.3245 -9.2021 -0.1887 -2.7204 -2.2967 -4.858 -5.017 -5.0473 -1.6193 -0.1126 -3.5875 -0.2107 -5.776 -0.241" stroke-width="1"></path>
    <path id="Vector_2" stroke="#000cfe" stroke-linecap="round" stroke-linejoin="round" d="M23.4162 45c0.0023 -0.0349 0.0041 -0.0699 0.0055 -0.105 0.0432 -1.1003 0.0783 -2.6766 0.0783 -4.895 0 -2.2184 -0.0351 -3.7947 -0.0783 -4.895 -0.0585 -1.4876 -0.8899 -2.7463 -2.3646 -2.9501C20.3965 32.0636 19.557 32 18.5 32c-1.057 0 -1.8965 0.0636 -2.5571 0.1549 -1.4747 0.2038 -2.3061 1.4625 -2.3646 2.9501C13.5351 36.2053 13.5 37.7816 13.5 40c0 2.2184 0.0351 3.7947 0.0783 4.895 0.0014 0.0351 0.0032 0.0701 0.0055 0.105" stroke-width="1"></path>
    <path id="Vector_3" stroke="#000cfe" stroke-linecap="round" stroke-linejoin="round" d="M13 12v2" stroke-width="1"></path>
    <path id="Vector_4" stroke="#000cfe" stroke-linecap="round" stroke-linejoin="round" d="M13 23v2" stroke-width="1"></path>
    <path id="Vector_5" stroke="#000cfe" stroke-linecap="round" stroke-linejoin="round" d="M24 12v2" stroke-width="1"></path>
    <path id="Vector_6" stroke="#000cfe" stroke-linecap="round" stroke-linejoin="round" d="M24 23v2" stroke-width="1"></path>
    <path id="Vector_7" stroke="#c71dff" stroke-linecap="round" stroke-linejoin="round" d="M28.6094 3.49154c2.6599 0.24625 4.7076 2.33075 4.8995 4.99508C33.7479 11.8067 34 16.9734 34 24c0 8.6053 -0.189 14.8358 -0.3237 18.1817C33.6125 43.7679 32.3096 45 30.7222 45L18.5 45 6.28775 45c-1.59147 0 -2.89735 -1.24 -2.95999 -2.8302C3.19292 38.7461 3 32.3829 3 24c0 -6.8583 0.25826 -12.0815 0.49988 -15.46736 0.19157 -2.68455 2.25269 -4.79781 4.9327 -5.04498C11.098 3.24184 14.6887 3 18.5 3c3.8313 0 7.4398 0.24439 10.1094 0.49154Z" stroke-width="1"></path>
  </g>
</svg>