<svg xmlns="http://www.w3.org/2000/svg" fill="none" viewBox="0 0 48 48" id="Toilet-Sign-Man--Streamline-Plump-Neon">
  <desc>
    Toilet Sign Man Streamline Icon: https://streamlinehq.com
  </desc>
  <g id="toilet-sign-man--toilet-sign-restroom-bathroom-user-human-person-man-male">
    <path id="Vector" stroke="#c71dff" stroke-linecap="round" stroke-linejoin="round" d="M17.0017 40.8844C18.1463 43.8751 20.7974 46 23.9996 46c3.2018 0 5.8525 -2.1246 6.9969 -5.115 1.5539 -4.0602 3.6047 -10.5607 4.5805 -18.5348 0.3161 -2.5826 -1.5605 -4.8587 -4.1547 -5.0587C29.3924 17.135 26.8234 17 23.9996 17c-2.824 0 -5.3932 0.135 -7.4233 0.2915 -2.5942 0.2 -4.4709 2.4761 -4.1548 5.0588 0.9758 7.9736 3.0264 14.4738 4.5802 18.5341Z" stroke-width="3"></path>
    <path id="Vector_2" stroke="#c71dff" stroke-linecap="round" stroke-linejoin="round" d="M16.5 9.5a7.5 7.5 0 1 0 15 0 7.5 7.5 0 1 0 -15 0" stroke-width="3"></path>
  </g>
</svg>