<svg xmlns="http://www.w3.org/2000/svg" fill="none" viewBox="0 0 48 48" id="Traffic-Light--Streamline-Plump-Neon">
  <desc>
    Traffic Light Streamline Icon: https://streamlinehq.com
  </desc>
  <g id="traffic-light">
    <path id="Vector" stroke="#000cfe" stroke-linecap="round" stroke-linejoin="round" d="M12.0802 15h-1.9531c-0.72667 0 -1.43142 -0.2612 -1.92023 -0.7988 -0.98066 -1.0788 -2.57982 -3.1626 -3.06378 -5.70963C4.98845 7.6777 5.67129 7 6.49972 7h5.83178" stroke-width="1"></path>
    <path id="Vector_2" stroke="#000cfe" stroke-linecap="round" stroke-linejoin="round" d="M12.0148 20H6.49972c-0.82843 0 -1.51127 0.6777 -1.35663 1.4916 0.48396 2.547 2.08312 4.6308 3.06378 5.7096 0.48881 0.5376 1.19356 0.7988 1.92023 0.7988h1.8877" stroke-width="1"></path>
    <path id="Vector_3" stroke="#000cfe" stroke-linecap="round" stroke-linejoin="round" d="M12.0802 33H6.49972c-0.82843 0 -1.51127 0.6777 -1.35663 1.4916 0.48396 2.547 2.08312 4.6308 3.06378 5.7096 0.48881 0.5376 1.19356 0.7988 1.92023 0.7988h2.2044c-0.0013 -0.0226 -0.0025 -0.0452 -0.0036 -0.0678" stroke-width="1"></path>
    <path id="Vector_4" stroke="#000cfe" stroke-linecap="round" stroke-linejoin="round" d="M35.6689 7h5.8316c0.8284 0 1.5113 0.6777 1.3566 1.49157 -0.4839 2.54703 -2.0831 4.63083 -3.0638 5.70963 -0.4888 0.5376 -1.1935 0.7988 -1.9202 0.7988h-1.9529" stroke-width="1"></path>
    <path id="Vector_5" stroke="#000cfe" stroke-linecap="round" stroke-linejoin="round" d="M35.9854 28h1.8875c0.7266 0 1.4314 -0.2612 1.9202 -0.7988 0.9807 -1.0788 2.5798 -3.1626 3.0638 -5.7096 0.1546 -0.8139 -0.5282 -1.4916 -1.3567 -1.4916h-5.5148" stroke-width="1"></path>
    <path id="Vector_6" stroke="#000cfe" stroke-linecap="round" stroke-linejoin="round" d="M35.9202 33h5.5803c0.8284 0 1.5113 0.6777 1.3566 1.4916 -0.4839 2.547 -2.0831 4.6308 -3.0638 5.7096 -0.4888 0.5376 -1.1935 0.7988 -1.9202 0.7988h-2.2042c0.0014 -0.0226 0.0026 -0.0452 0.0036 -0.0678" stroke-width="1"></path>
    <path id="Vector_7" stroke="#c71dff" stroke-linecap="round" stroke-linejoin="round" d="M35.6721 7.06784c-0.1132 -2.43615 -1.7885 -4.4329 -4.2125 -4.70121C29.6511 2.16643 27.1887 2 24 2s-5.6511 0.16643 -7.4596 0.36662c-2.424 0.26832 -4.0993 2.26507 -4.2125 4.70122C12.1725 10.4137 12 15.9419 12 24s0.1725 13.5863 0.3279 16.9322c0.1132 2.4361 1.7885 4.4329 4.2125 4.7012C18.3489 45.8336 20.8113 46 24 46s5.6511 -0.1664 7.4596 -0.3666c2.424 -0.2683 4.0993 -2.2651 4.2125 -4.7012C35.8275 37.5863 36 32.0581 36 24c0 -8.0581 -0.1725 -13.5863 -0.3279 -16.93216Z" stroke-width="1"></path>
    <path id="Vector_8" stroke="#000cfe" stroke-linecap="round" stroke-linejoin="round" d="M28 37a4 4 0 1 1 -8 0 4 4 0 1 1 8 0" stroke-width="1"></path>
    <path id="Vector_9" stroke="#000cfe" stroke-linecap="round" stroke-linejoin="round" d="M28 24a4 4 0 1 1 -8 0 4 4 0 1 1 8 0" stroke-width="1"></path>
    <path id="Vector_10" stroke="#000cfe" stroke-linecap="round" stroke-linejoin="round" d="M28 11a4 4 0 1 1 -8 0 4 4 0 1 1 8 0" stroke-width="1"></path>
  </g>
</svg>