<svg xmlns="http://www.w3.org/2000/svg" fill="none" viewBox="0 0 48 48" id="Castle--Streamline-Kameleon">
  <desc>
    Castle Streamline Icon: https://streamlinehq.com
  </desc>
  <path fill="#deeeff" d="M23.9979 47.9993c13.2548 0 23.9999 -10.7451 23.9999 -23.9999S37.2527 -0.000488281 23.9979 -0.000488281 -0.00195312 10.7446 -0.00195312 23.9994c0 13.2548 10.74505312 23.9999 23.99985312 23.9999Z" stroke-width="1"></path>
  <path fill="#6bafff" d="M30.5435 27.0542v1.7455h2.1818v-8.2909h-3.4909v6.5454h1.3091Z" stroke-width="1"></path>
  <path fill="#6bafff" d="M22.2528 28.7996v-1.7455h3.4909v1.7455h0.4363V17.0178h-4.3636v11.7818h0.4364Z" stroke-width="1"></path>
  <path fill="#6bafff" d="M17.4523 28.7997v-1.7455h1.3091v-6.5454h-3.4909v8.2909h2.1818Z" stroke-width="1"></path>
  <path fill="#2e3ecd" fill-rule="evenodd" d="M16.9728 26.1814h-6.8954c0.2203 2.2625 1.2659 2.6182 1.2659 2.6182l-1.3091 9.1636h27.9271l-1.3091 -9.1636s1.0455 -0.3557 1.2659 -2.6182h-6.8954c0.2204 2.2625 1.2659 2.6182 1.2659 2.6182h-1.7454v-1.7455h-3.0546v1.7455h-1.7454v-1.7455h-3.4909v1.7455h-1.3091v-1.7455h-3.4909v1.7455h-1.7454s1.0455 -0.3557 1.2659 -2.6182Z" clip-rule="evenodd" stroke-width="1"></path>
  <path fill="#6bafff" d="M25.7438 35.7816c0 -0.9639 -0.7815 -1.7455 -1.7454 -1.7455 -0.9639 0 -1.7455 0.7816 -1.7455 1.7455v2.1818h3.4909v-2.1818Z" stroke-width="1"></path>
  <path fill="#2e3ecd" fill-rule="evenodd" d="M23.5614 10.4724v3.8727l-3.0546 2.6727h6.9818l-3.0545 -2.6727v-1.6909l7.4181 -0.8727 -7.4181 -1.3091h-0.8727Z" clip-rule="evenodd" stroke-width="1"></path>
  <path fill="#2e3ecd" fill-rule="evenodd" d="M16.5799 13.5271v3.9273l-3.0545 3.0545h6.9818l-3.0546 -3.0545v-2.1819l3.0546 -0.8727 -3.0546 -0.8727h-0.8727Z" clip-rule="evenodd" stroke-width="1"></path>
  <path fill="#2e3ecd" fill-rule="evenodd" d="M31.4165 17.4544v-2.1819l3.0545 -0.8727 -3.0545 -0.8727h-0.8727v3.9273l-3.0545 3.0545h6.9817l-3.0545 -3.0545Z" clip-rule="evenodd" stroke-width="1"></path>
  <path fill="#2e3ecd" d="M24.8696 19.6357c0 -0.4819 -0.3903 -0.8723 -0.8723 -0.8723 -0.4819 0 -0.8723 0.3904 -0.8723 0.8723v0.8724h1.7446v-0.8724Z" stroke-width="1"></path>
  <path fill="#2e3ecd" d="M31.852 22.2537c0 -0.482 -0.3903 -0.8724 -0.8723 -0.8724 -0.4819 0 -0.8723 0.3904 -0.8723 0.8724v0.8723h1.7446v-0.8723Z" stroke-width="1"></path>
  <path fill="#2e3ecd" d="M17.8882 22.2537c0 -0.482 -0.3904 -0.8724 -0.8723 -0.8724 -0.482 0 -0.8723 0.3904 -0.8723 0.8724v0.8723h1.7446v-0.8723Z" stroke-width="1"></path>
  <path fill="#6bafff" fill-rule="evenodd" d="M34.9071 30.5455c0 -0.241 -0.1953 -0.4364 -0.4363 -0.4364 -0.241 0 -0.4364 0.1954 -0.4364 0.4364v1.0909h-0.2182c-0.241 0 -0.4363 0.1954 -0.4363 0.4364 0 0.241 0.1953 0.4363 0.4363 0.4363h0.2182V33.6c0 0.241 0.1954 0.4364 0.4364 0.4364 0.241 0 0.4363 -0.1954 0.4363 -0.4364v-1.0909h0.2182c0.241 0 0.4364 -0.1953 0.4364 -0.4363 0 -0.241 -0.1954 -0.4364 -0.4364 -0.4364h-0.2182v-1.0909Z" clip-rule="evenodd" stroke-width="1"></path>
  <path fill="#6bafff" fill-rule="evenodd" d="M13.9618 30.5455c0 -0.241 -0.1953 -0.4364 -0.4363 -0.4364 -0.241 0 -0.4364 0.1954 -0.4364 0.4364v1.0909h-0.2182c-0.241 0 -0.4363 0.1954 -0.4363 0.4364 0 0.241 0.1953 0.4363 0.4363 0.4363h0.2182V33.6c0 0.241 0.1954 0.4364 0.4364 0.4364 0.241 0 0.4363 -0.1954 0.4363 -0.4364v-1.0909h0.2182c0.241 0 0.4364 -0.1953 0.4364 -0.4363 0 -0.241 -0.1954 -0.4364 -0.4364 -0.4364h-0.2182v-1.0909Z" clip-rule="evenodd" stroke-width="1"></path>
</svg>