<svg xmlns="http://www.w3.org/2000/svg" fill="none" viewBox="0 0 14 14" id="3d-Rotate-1--Streamline-Flex">
  <desc>
    3d Rotate 1 Streamline Icon: https://streamlinehq.com
  </desc>
  <g id="3d-rotate-1">
    <path id="Union" fill="#8fbffa" fill-rule="evenodd" d="M7 0.25c-2.092 0 -3.797 0.59 -4.979 1.771C0.84 3.203 0.25 4.908 0.25 7s0.59 3.797 1.771 4.979C3.203 13.16 4.908 13.75 7 13.75s3.797 -0.59 4.979 -1.771C13.16 10.797 13.75 9.092 13.75 7s-0.59 -3.797 -1.771 -4.979C10.797 0.84 9.092 0.25 7 0.25Z" clip-rule="evenodd" stroke-width="1"></path>
    <path id="Intersect" fill="#2859c5" fill-rule="evenodd" d="M7.832 13.717a0.626 0.626 0 0 0 -0.042 -0.05c-1.07 -1.166 -1.884 -2.797 -2.27 -4.693 0.303 0.018 0.613 0.027 0.93 0.026 2.904 -0.012 5.434 -0.886 7.296 -2.339a9.088 9.088 0 0 0 -0.168 -1.504l-0.007 0.007C11.93 6.721 9.446 7.737 6.443 7.75c-0.382 0.002 -0.754 -0.013 -1.114 -0.043 -0.038 -0.4 -0.058 -0.81 -0.058 -1.226 0 -2.424 0.68 -4.61 1.77 -6.23L7 0.25a9.7 9.7 0 0 0 -1.487 0.11C4.57 2.081 4.021 4.201 4.021 6.48c0 0.354 0.013 0.704 0.039 1.05A9.937 9.937 0 0 1 0.302 5.955 10.117 10.117 0 0 0 0.258 7.41 11.322 11.322 0 0 0 4.22 8.83c0.323 1.868 1.024 3.553 2.002 4.892a10.384 10.384 0 0 0 1.61 -0.005Z" clip-rule="evenodd" stroke-width="1"></path>
  </g>
</svg>