<svg xmlns="http://www.w3.org/2000/svg" fill="none" viewBox="0 0 14 14" id="Align-Text-Top--Streamline-Flex">
  <desc>
    Align Text Top Streamline Icon: https://streamlinehq.com
  </desc>
  <g id="align-text-top">
    <path id="Union" fill="#8fbffa" d="M7 0.25c-1.148 0 -2.269 0.105 -3.343 0.225A3.632 3.632 0 0 0 0.463 3.678C0.348 4.747 0.25 5.86 0.25 7c0 1.14 0.098 2.253 0.213 3.322a3.632 3.632 0 0 0 3.194 3.203c1.074 0.12 2.195 0.225 3.343 0.225 1.148 0 2.269 -0.105 3.343 -0.225a3.632 3.632 0 0 0 3.194 -3.203c0.115 -1.069 0.213 -2.182 0.213 -3.322 0 -1.14 -0.098 -2.253 -0.213 -3.322A3.632 3.632 0 0 0 10.343 0.475C9.269 0.355 8.148 0.25 7 0.25Z" stroke-width="1"></path>
    <path id="Union_2" fill="#2859c5" fill-rule="evenodd" d="M9.688 3.125a0.625 0.625 0 1 1 0 1.25l-5.376 0a0.625 0.625 0 1 1 0 -1.25h5.375Zm0 2.75a0.625 0.625 0 1 1 0 1.25l-5.376 0a0.625 0.625 0 1 1 0 -1.25l5.375 0Z" clip-rule="evenodd" stroke-width="1"></path>
  </g>
</svg>