<svg xmlns="http://www.w3.org/2000/svg" fill="none" viewBox="0 0 14 14" id="Auto-Correction-Check--Streamline-Flex">
  <desc>
    Auto Correction Check Streamline Icon: https://streamlinehq.com
  </desc>
  <g id="auto-correction-check">
    <path id="Union" fill="#8fbffa" fill-rule="evenodd" d="M3.43839 3.51356c-0.15074 -0.4522 -0.57392 -0.75721 -1.05058 -0.75721 -0.47666 0 -0.89984 0.30501 -1.05057 0.75721L0.524619 5.95142c-0.003263 0.00908 -0.006322 0.01825 -0.009171 0.02752l-0.4590356 1.3771c-0.1091548 0.32747 0.0678206 0.68142 0.3952846 0.79057 0.327465 0.10916 0.681413 -0.06782 0.790573 -0.39528l0.32114 -0.96342h1.64881l0.32114 0.96342c0.10916 0.32746 0.4631 0.50444 0.79057 0.39528 0.32746 -0.10915 0.50444 -0.4631 0.39528 -0.79057l-0.45903 -1.37709c-0.00285 -0.00928 -0.00591 -0.01846 -0.00918 -0.02754l-0.81261 -2.43785ZM1.98007 5.53791l0.40774 -1.22322 0.40774 1.22322h-0.81548Zm4.0057 -2.78156c-0.34518 0 -0.625 0.27982 -0.625 0.625v1.91232l0.00006 0.00936V7.5537c0 0.34518 0.27983 0.625 0.625 0.625h1.65155c0.96927 0 1.75501 -0.78575 1.75501 -1.75501 0 -0.50929 -0.21693 -0.9679 -0.56343 -1.2885 0.13709 -0.23416 0.21567 -0.50675 0.21567 -0.79768 0 -0.87325 -0.70791 -1.58116 -1.58116 -1.58116h-1.4777Zm1.4777 1.25c0.18289 0 0.33116 0.14826 0.33116 0.33116 0 0.18289 -0.14827 0.33116 -0.33116 0.33116h-0.8527v-0.66232h0.8527Zm0.17391 1.91233c0.27891 0 0.50501 0.2261 0.50501 0.50501s-0.2261 0.50501 -0.50501 0.50501H6.61083V5.91868h1.02655Zm4.03402 -1.91233c-0.2309 0 -0.4181 0.18718 -0.4181 0.41808V6.5106c0 0.2309 0.1872 0.41808 0.4181 0.41808h0.6954c0.1811 0 0.3368 -0.11544 0.3945 -0.27866 0.115 -0.32545 0.4721 -0.49602 0.7975 -0.38099 0.3255 0.11503 0.4961 0.47211 0.381 0.79755 -0.2287 0.64703 -0.8457 1.1121 -1.573 1.1121h-0.6954c-0.9212 0 -1.6681 -0.74682 -1.6681 -1.66808V4.42443c0 -0.92126 0.7469 -1.66808 1.6681 -1.66808h0.6954c0.7273 0 1.3443 0.46508 1.573 1.11212 0.1151 0.32544 -0.0555 0.68252 -0.381 0.79755 -0.3254 0.11503 -0.6825 -0.05555 -0.7975 -0.381 -0.0577 -0.16323 -0.2134 -0.27867 -0.3945 -0.27867h-0.6954Z" clip-rule="evenodd" stroke-width="1"></path>
    <g id="Group 4622">
      <g id="group 2220">
        <path id="vector (Stroke)" fill="#2859c5" fill-rule="evenodd" d="M9.53871 10.2897c0.05926 -0.0956 0.09348 -0.2083 0.09348 -0.32901 0 -0.34517 -0.27982 -0.625 -0.625 -0.625 -0.52686 0 -0.95397 0.42711 -0.95397 0.95401 0 0.5268 0.42711 0.9539 0.95397 0.9539 0.34518 0 0.625 -0.2798 0.625 -0.625 0 -0.1207 -0.03422 -0.2334 -0.09348 -0.3289Z" clip-rule="evenodd" stroke-width="1"></path>
        <path id="vector (Stroke)_2" fill="#2859c5" fill-rule="evenodd" d="M8.47561 10.2897c-0.05927 -0.0956 -0.09348 -0.2083 -0.09348 -0.32901 0 -0.34517 0.27982 -0.625 0.625 -0.625 0.52686 0 0.95396 0.42711 0.95396 0.95401 0 0.5268 -0.4271 0.9539 -0.95396 0.9539 -0.34518 0 -0.625 -0.2798 -0.625 -0.625 0 -0.1207 0.03421 -0.2334 0.09348 -0.3289Z" clip-rule="evenodd" stroke-width="1"></path>
      </g>
      <g id="group 2219">
        <path id="vector (Stroke)_3" fill="#2859c5" fill-rule="evenodd" d="M5.5243 10.2897c0.05927 -0.0956 0.09348 -0.2083 0.09348 -0.32901 0 -0.34517 -0.27982 -0.625 -0.625 -0.625 -0.52686 0 -0.95396 0.42711 -0.95396 0.95401 0 0.5268 0.4271 0.9539 0.95396 0.9539 0.34518 0 0.625 -0.2798 0.625 -0.625 0 -0.1207 -0.03421 -0.2334 -0.09348 -0.3289Z" clip-rule="evenodd" stroke-width="1"></path>
        <path id="vector (Stroke)_4" fill="#2859c5" fill-rule="evenodd" d="M4.46139 10.2897c-0.05927 -0.0956 -0.09348 -0.2083 -0.09348 -0.32901 0 -0.34517 0.27982 -0.625 0.625 -0.625 0.52686 0 0.95396 0.42711 0.95396 0.95401 0 0.5268 -0.4271 0.9539 -0.95396 0.9539 -0.34518 0 -0.625 -0.2798 -0.625 -0.625 0 -0.1207 0.03421 -0.2334 0.09348 -0.3289Z" clip-rule="evenodd" stroke-width="1"></path>
      </g>
      <g id="group 2222">
        <path id="vector (Stroke)_5" fill="#2859c5" fill-rule="evenodd" d="M1.51039 10.2897c0.05926 -0.0956 0.09348 -0.2083 0.09348 -0.32901 0 -0.34517 -0.27982 -0.625 -0.625002 -0.625 -0.526861 0 -0.9539657 0.42711 -0.9539657 0.95401 0 0.5268 0.4271047 0.9539 0.9539657 0.9539 0.345182 0 0.625002 -0.2798 0.625002 -0.625 0 -0.1207 -0.03422 -0.2334 -0.09348 -0.3289Z" clip-rule="evenodd" stroke-width="1"></path>
        <path id="vector (Stroke)_6" fill="#2859c5" fill-rule="evenodd" d="M0.44747 10.2897c-0.059263 -0.0956 -0.093479 -0.2083 -0.093479 -0.32901 0 -0.34517 0.279822 -0.625 0.625 -0.625 0.526859 0 0.953969 0.42711 0.953969 0.95401 0 0.5268 -0.42711 0.9539 -0.953969 0.9539 -0.345178 0 -0.625 -0.2798 -0.625 -0.625 0 -0.1207 0.034216 -0.2334 0.093479 -0.3289Z" clip-rule="evenodd" stroke-width="1"></path>
      </g>
      <g id="group 2221">
        <path id="vector (Stroke)_7" fill="#2859c5" fill-rule="evenodd" d="M13.5531 10.2897c0.0593 -0.0956 0.0935 -0.2083 0.0935 -0.32901 0 -0.34517 -0.2798 -0.625 -0.625 -0.625 -0.5269 0 -0.954 0.42711 -0.954 0.95401 0 0.5268 0.4271 0.9539 0.954 0.9539 0.3452 0 0.625 -0.2798 0.625 -0.625 0 -0.1207 -0.0342 -0.2334 -0.0935 -0.3289Z" clip-rule="evenodd" stroke-width="1"></path>
        <path id="vector (Stroke)_8" fill="#2859c5" fill-rule="evenodd" d="M12.4901 10.2897c-0.0593 -0.0956 -0.0935 -0.2083 -0.0935 -0.32901 0 -0.34517 0.2798 -0.625 0.625 -0.625 0.5269 0 0.954 0.42711 0.954 0.95401 0 0.5268 -0.4271 0.9539 -0.954 0.9539 -0.3452 0 -0.625 -0.2798 -0.625 -0.625 0 -0.1207 0.0342 -0.2334 0.0935 -0.3289Z" clip-rule="evenodd" stroke-width="1"></path>
      </g>
    </g>
  </g>
</svg>