<svg xmlns="http://www.w3.org/2000/svg" fill="none" viewBox="0 0 14 14" id="Bell-Notification--Streamline-Flex">
  <desc>
    Bell Notification Streamline Icon: https://streamlinehq.com
  </desc>
  <g id="bell-notification--alert-bell-ring-notification-alarm">
    <path id="Union" fill="#8fbffa" fill-rule="evenodd" d="M7 0.25a4.372 4.372 0 0 0 -4.372 4.372c0 0.825 -0.145 1.453 -0.348 1.929 -0.056 0.133 -0.17 0.248 -0.39 0.39a8.454 8.454 0 0 1 -0.275 0.162l-0.093 0.054a4.5 4.5 0 0 0 -0.426 0.273l0.297 0.401 -0.297 -0.401c-0.518 0.383 -0.708 0.973 -0.682 1.505 0.025 0.517 0.257 1.057 0.69 1.383a0.76 0.76 0 0 0 0.087 0.06 1.8 1.8 0 0 0 0.226 0.125c0.196 0.094 0.493 0.208 0.928 0.318 0.87 0.22 2.311 0.429 4.655 0.429 2.344 0 3.785 -0.209 4.655 -0.429 0.435 -0.11 0.732 -0.224 0.928 -0.318a2.07 2.07 0 0 0 0.293 -0.17 0.764 0.764 0 0 0 0.02 -0.015c0.433 -0.326 0.665 -0.866 0.69 -1.383 0.026 -0.532 -0.164 -1.122 -0.682 -1.505a4.51 4.51 0 0 0 -0.426 -0.273l-0.093 -0.054a6.687 6.687 0 0 1 -0.274 -0.163c-0.22 -0.14 -0.335 -0.256 -0.392 -0.389a3.78 3.78 0 0 1 -0.117 -0.316c-0.142 -0.55 -0.23 -1.07 -0.23 -1.613A4.371 4.371 0 0 0 7 0.25Z" clip-rule="evenodd" stroke-width="1"></path>
    <path id="Ellipse 86 (Stroke)" fill="#2859c5" fill-rule="evenodd" d="M5.296 12.135a0.5 0.5 0 0 1 0.542 -0.15c0.254 0.086 0.628 0.152 1.162 0.152 0.534 0 0.908 -0.066 1.162 -0.152a0.5 0.5 0 0 1 0.601 0.71 2 2 0 0 1 -3.526 0 0.5 0.5 0 0 1 0.059 -0.56Z" clip-rule="evenodd" stroke-width="1"></path>
  </g>
</svg>