<svg xmlns="http://www.w3.org/2000/svg" fill="none" viewBox="0 0 14 14" id="Copy-2--Streamline-Flex">
  <desc>
    Copy 2 Streamline Icon: https://streamlinehq.com
  </desc>
  <g id="copy-2">
    <path id="Subtract" fill="#2859c5" fill-rule="evenodd" d="M1.609 0.314a48.9 48.9 0 0 1 7.551 0 1.476 1.476 0 0 1 1.362 1.36c0.042 0.563 0.076 1.118 0.1 1.67l0 0.01a48.736 48.736 0 0 0 -6.157 0.087A1.476 1.476 0 0 0 3.103 4.8a48.501 48.501 0 0 0 -0.1 5.845c-0.46 -0.023 -0.925 -0.052 -1.394 -0.087a1.476 1.476 0 0 1 -1.362 -1.36 48.617 48.617 0 0 1 0 -7.524A1.476 1.476 0 0 1 1.61 0.314Z" clip-rule="evenodd" stroke-width="1"></path>
    <path id="Union" fill="#8fbffa" fill-rule="evenodd" d="M12.016 3.44a48.9 48.9 0 0 0 -7.551 0 1.476 1.476 0 0 0 -1.362 1.362 48.617 48.617 0 0 0 0 7.523 1.476 1.476 0 0 0 1.362 1.36 48.89 48.89 0 0 0 7.551 0 1.476 1.476 0 0 0 1.362 -1.36 48.624 48.624 0 0 0 0 -7.523 1.476 1.476 0 0 0 -1.362 -1.361Z" clip-rule="evenodd" stroke-width="1"></path>
    <path id="Union_2" fill="#2859c5" fill-rule="evenodd" d="M7.99 6.455a0.625 0.625 0 0 1 1.25 0l0 1.483 1.484 0a0.625 0.625 0 1 1 0 1.25l-1.484 0 0 1.483a0.625 0.625 0 0 1 -1.25 0l0 -1.483 -1.483 0a0.625 0.625 0 0 1 0 -1.25l1.483 0 0 -1.483Z" clip-rule="evenodd" stroke-width="1"></path>
  </g>
</svg>