<svg xmlns="http://www.w3.org/2000/svg" fill="none" viewBox="0 0 14 14" id="Dashboard-Gauge-1--Streamline-Flex">
  <desc>
    Dashboard Gauge 1 Streamline Icon: https://streamlinehq.com
  </desc>
  <g id="dashboard-gauge-1--bar-speed-test-loading-dashboard-internet-gauge-progress">
    <path id="Union" fill="#8fbffa" d="M7 0.25c-2.09203 0 -3.79704 0.589932 -4.97855 1.77145C0.839932 3.20296 0.25 4.90797 0.25 7c0 2.09203 0.589932 3.797 1.77145 4.9786C3.20296 13.1601 4.90797 13.75 7 13.75c2.09203 0 3.797 -0.5899 4.9786 -1.7714C13.1601 10.797 13.75 9.09203 13.75 7c0 -2.09203 -0.5899 -3.79704 -1.7714 -4.97855C10.797 0.839932 9.09203 0.25 7 0.25Z" stroke-width="1"></path>
    <path id="Union_2" fill="#2859c5" fill-rule="evenodd" d="M10.6097 5.43685c0.2412 -0.33672 0.1638 -0.80525 -0.1729 -1.04648 -0.3367 -0.24123 -0.80523 -0.16382 -1.04646 0.1729L6.61477 8.4375H0.351929c0.215279 1.44278 0.771531 2.6431 1.669481 3.5411C3.20293 13.1601 4.90793 13.75 6.99997 13.75c1.53528 0 2.86213 -0.3177 3.92663 -0.9538 0.7351 -0.4989 1.3702 -1.134 1.8691 -1.8688 0.4283 -0.7166 0.7124 -1.552 0.8523 -2.4899H8.45999l2.14971 -3.00065Z" clip-rule="evenodd" stroke-width="1"></path>
  </g>
</svg>