<svg xmlns="http://www.w3.org/2000/svg" fill="none" viewBox="0 0 14 14" id="Delete-Tag--Streamline-Flex">
  <desc>
    Delete Tag Streamline Icon: https://streamlinehq.com
  </desc>
  <g id="delete-tag--delete-tag-remove-cross-x-button-mathematics-math">
    <path id="Union" fill="#8fbffa" fill-rule="evenodd" d="M9.6 2.859a59.131 59.131 0 0 0 -7.223 -0.062C1.237 2.857 0.39 3.842 0.237 4.984c-0.092 0.7 -0.174 1.44 -0.174 2.2 0 0.76 0.082 1.5 0.175 2.199 0.152 1.142 1 2.127 2.139 2.187 2.42 0.127 4.784 0.106 7.222 -0.062a1.99 1.99 0 0 0 1.09 -0.419 19.54 19.54 0 0 0 1.893 -1.665c0.334 -0.342 0.654 -0.709 0.893 -1.07 0.229 -0.347 0.431 -0.757 0.431 -1.17 0 -0.413 -0.202 -0.824 -0.431 -1.17a7.576 7.576 0 0 0 -0.893 -1.07 19.744 19.744 0 0 0 -1.892 -1.666c-0.322 -0.25 -0.7 -0.392 -1.09 -0.42Z" clip-rule="evenodd" stroke-width="1"></path>
    <path id="Union_2" fill="#2859c5" fill-rule="evenodd" d="M6.3 6.476a0.75 0.75 0 1 0 -1.061 -1.06l-0.708 0.707 -0.707 -0.707a0.75 0.75 0 1 0 -1.06 1.06l0.707 0.708 -0.707 0.707a0.75 0.75 0 0 0 1.06 1.06l0.707 -0.707 0.707 0.707A0.75 0.75 0 0 0 6.3 7.891l-0.707 -0.707 0.707 -0.708Z" clip-rule="evenodd" stroke-width="1"></path>
  </g>
</svg>