<svg xmlns="http://www.w3.org/2000/svg" fill="none" viewBox="0 0 14 14" id="Expand-Window-1--Streamline-Flex">
  <desc>
    Expand Window 1 Streamline Icon: https://streamlinehq.com
  </desc>
  <g id="expand-window-1--expand-small-bigger-retract-smaller-big">
    <path id="Union" fill="#8fbffa" fill-rule="evenodd" d="M8.403 0.419c-0.94 0 -1.854 0.093 -2.72 0.192a2.592 2.592 0 0 0 -2.275 2.281c-0.095 0.863 -0.182 1.771 -0.182 2.705 0 0.933 0.087 1.841 0.182 2.704a2.592 2.592 0 0 0 2.275 2.281c0.866 0.1 1.78 0.192 2.72 0.192 0.94 0 1.854 -0.093 2.72 -0.192A2.592 2.592 0 0 0 13.4 8.301c0.095 -0.863 0.182 -1.771 0.182 -2.704 0 -0.934 -0.087 -1.842 -0.182 -2.705A2.592 2.592 0 0 0 11.124 0.611c-0.867 -0.099 -1.78 -0.192 -2.72 -0.192Z" clip-rule="evenodd" stroke-width="1"></path>
    <path id="Union_2" fill="#2859c5" fill-rule="evenodd" d="M9.38 6.674a0.745 0.745 0 0 0 0.576 0.44 0.672 0.672 0 0 0 0.71 -0.398c0.19 -0.427 0.248 -0.956 0.206 -1.462 -0.042 -0.51 -0.188 -1.047 -0.456 -1.493a0.5 0.5 0 0 0 -0.172 -0.172 3.517 3.517 0 0 0 -1.493 -0.456c-0.505 -0.041 -1.035 0.016 -1.462 0.206a0.672 0.672 0 0 0 -0.398 0.71 0.745 0.745 0 0 0 0.44 0.576c0.184 0.082 0.412 0.196 0.642 0.34L6.22 6.72a0.75 0.75 0 0 0 1.06 1.06l1.755 -1.755c0.146 0.233 0.262 0.464 0.345 0.65ZM1.802 5.16a0.75 0.75 0 0 0 -1.478 -0.252c-0.057 0.33 -0.155 1.228 -0.155 2.43 0 1.29 0.135 2.543 0.266 3.714a2.843 2.843 0 0 0 2.493 2.499c1.174 0.136 2.436 0.28 3.734 0.28 1.052 0 1.878 -0.082 2.186 -0.128a0.75 0.75 0 0 0 -0.221 -1.483c-0.226 0.034 -0.978 0.111 -1.965 0.111 -1.199 0 -2.377 -0.133 -3.561 -0.27a1.343 1.343 0 0 1 -1.175 -1.176C1.794 9.71 1.67 8.533 1.67 7.337c0 -1.134 0.094 -1.945 0.133 -2.177Z" clip-rule="evenodd" stroke-width="1"></path>
  </g>
</svg>