<svg xmlns="http://www.w3.org/2000/svg" fill="none" viewBox="0 0 14 14" id="Help-Chat-1--Streamline-Flex">
  <desc>
    Help Chat 1 Streamline Icon: https://streamlinehq.com
  </desc>
  <g id="help-chat-1--bubble-help-mark-message-query-question-speech-square">
    <path id="Union" fill="#8fbffa" fill-rule="evenodd" d="M7 0.25c-1.523 0 -3.013 0.08 -4.44 0.23A2.326 2.326 0 0 0 0.485 2.452a23.391 23.391 0 0 0 -0.01 6.54c0.159 1.141 1.116 1.952 2.217 2.055l0.218 0.02 0.225 0.02v2.164a0.5 0.5 0 0 0 0.704 0.456c1.405 -0.63 2.255 -1.242 3.28 -2.39a43.353 43.353 0 0 0 4.256 -0.234 2.386 2.386 0 0 0 2.131 -2.033 23.31 23.31 0 0 0 0.244 -3.266c0 -1.13 -0.087 -2.238 -0.239 -3.301a2.354 2.354 0 0 0 -2.101 -2A42.726 42.726 0 0 0 7 0.25Z" clip-rule="evenodd" stroke-width="1"></path>
    <path id="Union_2" fill="#2859c5" fill-rule="evenodd" d="M6.127 4.273a0.888 0.888 0 0 1 1.044 -0.856c0.333 0.066 0.62 0.353 0.686 0.686a0.522 0.522 0 0 1 -0.034 0.358c-0.05 0.097 -0.149 0.212 -0.337 0.338 -0.255 0.17 -0.522 0.353 -0.719 0.557 -0.22 0.23 -0.391 0.526 -0.391 0.915a0.625 0.625 0 0 0 1.25 0.003 0.398 0.398 0 0 1 0.043 -0.052c0.086 -0.09 0.235 -0.199 0.511 -0.383 0.305 -0.204 0.582 -0.467 0.757 -0.811 0.18 -0.356 0.23 -0.752 0.146 -1.169a2.151 2.151 0 0 0 -1.668 -1.668c-1.3 -0.258 -2.538 0.758 -2.538 2.082a0.625 0.625 0 1 0 1.25 0ZM7.625 8.56a0.625 0.625 0 1 0 -1.25 0v0.275a0.625 0.625 0 1 0 1.25 0V8.56Z" clip-rule="evenodd" stroke-width="1"></path>
  </g>
</svg>