<svg xmlns="http://www.w3.org/2000/svg" fill="none" viewBox="0 0 14 14" id="Home-2--Streamline-Flex">
  <desc>
    Home 2 Streamline Icon: https://streamlinehq.com
  </desc>
  <g id="home-2--door-entrance-home-house-roof-round-shelter">
    <path id="Union" fill="#8fbffa" fill-rule="evenodd" d="M7.907 1.265a1.5 1.5 0 0 0 -1.814 0l-0.66 0.501A20.5 20.5 0 0 0 0.527 7.101l-0.211 0.333A1 1 0 0 0 1.16 8.97h0.691c-0.04 0.92 0.01 1.841 0.15 2.752 0.14 0.906 0.92 1.574 1.836 1.574h6.326c0.917 0 1.696 -0.668 1.835 -1.573 0.14 -0.912 0.19 -1.834 0.15 -2.753h0.692a1 1 0 0 0 0.844 -1.536l-0.211 -0.333a20.5 20.5 0 0 0 -4.906 -5.335l-0.66 -0.501Z" clip-rule="evenodd" stroke-width="1"></path>
    <path id="Intersect" fill="#2859c5" fill-rule="evenodd" d="M8.25 13.296V10a1.25 1.25 0 1 0 -2.5 0v3.296h2.5Z" clip-rule="evenodd" stroke-width="1"></path>
  </g>
</svg>