<svg xmlns="http://www.w3.org/2000/svg" fill="none" viewBox="0 0 14 14" id="Incorrect-Password--Streamline-Flex">
  <desc>
    Incorrect Password Streamline Icon: https://streamlinehq.com
  </desc>
  <g id="incorrect-password--login-password-delete-textbox-touch-type-cross-wrong-incorrect">
    <path id="Subtract" fill="#8fbffa" fill-rule="evenodd" d="M2.82 0C1.57 0 0.492 0.922 0.32 2.167 0.217 2.929 0.125 3.742 0.125 4.481c0 0.738 0.092 1.551 0.196 2.313A2.522 2.522 0 0 0 2.82 8.961h3.436A2 2 0 0 1 9.54 6.836l1.086 1.086 1.086 -1.086a1.99 1.99 0 0 1 0.86 -0.508c0.077 -0.62 0.135 -1.258 0.135 -1.847 0 -0.739 -0.092 -1.552 -0.197 -2.314A2.522 2.522 0 0 0 10.012 0H2.819Z" clip-rule="evenodd" stroke-width="1"></path>
    <path id="Union" fill="#2859c5" fill-rule="evenodd" d="M3.162 3.728c0.345 0 0.625 0.28 0.625 0.625v0.256a0.625 0.625 0 1 1 -1.25 0v-0.256c0 -0.346 0.28 -0.625 0.625 -0.625Zm3.254 0c0.345 0 0.625 0.28 0.625 0.625v0.256a0.625 0.625 0 1 1 -1.25 0v-0.256c0 -0.346 0.28 -0.625 0.625 -0.625Zm3.878 0.625a0.625 0.625 0 1 0 -1.25 0v0.256a0.625 0.625 0 0 0 1.25 0v-0.256Z" clip-rule="evenodd" stroke-width="1"></path>
    <path id="Union_2" fill="#2859c5" fill-rule="evenodd" d="M8.655 7.72a0.75 0.75 0 1 0 -1.06 1.06l1.97 1.97 -1.97 1.97a0.75 0.75 0 1 0 1.06 1.06l1.97 -1.97 1.97 1.97a0.75 0.75 0 0 0 1.06 -1.06l-1.97 -1.97 1.97 -1.97a0.75 0.75 0 0 0 -1.06 -1.06l-1.97 1.97 -1.97 -1.97Z" clip-rule="evenodd" stroke-width="1"></path>
  </g>
</svg>