<svg xmlns="http://www.w3.org/2000/svg" fill="none" viewBox="0 0 14 14" id="Increase-Indent--Streamline-Flex">
  <desc>
    Increase Indent Streamline Icon: https://streamlinehq.com
  </desc>
  <g id="increase-indent--alignment-align-indent-paragraph-increase-formatting-text">
    <path id="Union" fill="#8fbffa" fill-rule="evenodd" d="M1.064 0.25a0.75 0.75 0 0 0 0 1.5h11.872a0.75 0.75 0 0 0 0 -1.5H1.063Zm5.023 4a0.75 0.75 0 0 0 0 1.5h6.849a0.75 0.75 0 0 0 0 -1.5h-6.85ZM5.337 9a0.75 0.75 0 0 1 0.75 -0.75h6.849a0.75 0.75 0 0 1 0 1.5h-6.85a0.75 0.75 0 0 1 -0.75 -0.75Zm-4.273 3.25a0.75 0.75 0 0 0 0 1.5h11.872a0.75 0.75 0 0 0 0 -1.5H1.063Z" clip-rule="evenodd" stroke-width="1"></path>
    <g id="Group 5492">
      <path id="Vector (Stroke)" fill="#2859c5" fill-rule="evenodd" d="M3.475 6.922a0.75 0.75 0 0 0 0 -0.364c-0.142 -0.565 -0.478 -1.09 -0.862 -1.472 -0.36 -0.36 -0.9 -0.731 -1.5 -0.731a0.75 0.75 0 0 0 -0.729 0.932L0.748 6.74 0.384 8.193a0.75 0.75 0 0 0 0.728 0.932c0.602 0 1.14 -0.37 1.501 -0.73 0.384 -0.384 0.72 -0.908 0.862 -1.473Z" clip-rule="evenodd" stroke-width="1"></path>
    </g>
  </g>
</svg>