<svg xmlns="http://www.w3.org/2000/svg" fill="none" viewBox="0 0 14 14" id="Layout-Window-1--Streamline-Flex">
  <desc>
    Layout Window 1 Streamline Icon: https://streamlinehq.com
  </desc>
  <g id="layout-window-1--column-layout-layouts-left-sidebar">
    <path id="Union" fill="#8fbffa" d="M7 0.25c-1.148 0 -2.269 0.105 -3.343 0.225A3.632 3.632 0 0 0 0.463 3.678C0.348 4.747 0.25 5.86 0.25 7c0 1.14 0.098 2.253 0.213 3.322a3.632 3.632 0 0 0 3.194 3.203c1.074 0.12 2.195 0.225 3.343 0.225 1.148 0 2.269 -0.105 3.343 -0.225a3.632 3.632 0 0 0 3.194 -3.203c0.115 -1.069 0.213 -2.182 0.213 -3.322 0 -1.14 -0.098 -2.253 -0.213 -3.322A3.632 3.632 0 0 0 10.343 0.475C9.269 0.355 8.148 0.25 7 0.25Z" stroke-width="1"></path>
    <path id="Intersect" fill="#2859c5" fill-rule="evenodd" d="M6.125 0.269c-0.422 0.018 -0.838 0.047 -1.25 0.083v13.296c0.412 0.036 0.828 0.065 1.25 0.083l0 -6.106h7.616a21.252 21.252 0 0 0 0 -1.25H6.125l0 -6.106Z" clip-rule="evenodd" stroke-width="1"></path>
  </g>
</svg>