<svg xmlns="http://www.w3.org/2000/svg" fill="none" viewBox="0 0 14 14" id="Magnifying-Glass--Streamline-Flex">
  <desc>
    Magnifying Glass Streamline Icon: https://streamlinehq.com
  </desc>
  <g id="magnifying-glass--glass-search-magnifying">
    <path id="Vector" fill="#8fbffa" d="M6.002 11.109c3.201 0 5.002 -1.8 5.002 -5.002s-1.8 -5.002 -5.002 -5.002C2.801 1.105 1 2.905 1 6.107c0 3.201 1.8 5.002 5.002 5.002Z" stroke-width="1"></path>
    <path id="Union" fill="#2859c5" fill-rule="evenodd" d="M2.01 6.012c0 -1.416 0.395 -2.382 1.008 -2.994 0.612 -0.613 1.578 -1.008 2.994 -1.008 1.417 0 2.382 0.395 2.995 1.008 0.612 0.612 1.007 1.578 1.007 2.994 0 1.417 -0.395 2.382 -1.007 2.995 -0.613 0.612 -1.578 1.007 -2.995 1.007 -1.416 0 -2.382 -0.395 -2.994 -1.007 -0.613 -0.613 -1.008 -1.578 -1.008 -2.995ZM6.012 0.01c-1.785 0 -3.32 0.505 -4.409 1.593C0.515 2.692 0.01 4.227 0.01 6.013c0 1.784 0.505 3.32 1.593 4.408 1.089 1.088 2.624 1.593 4.41 1.593 1.392 0 2.632 -0.307 3.627 -0.96l2.638 2.638a1 1 0 0 0 1.414 -1.414l-2.637 -2.637c0.652 -0.996 0.96 -2.236 0.96 -3.629 0 -1.785 -0.506 -3.32 -1.594 -4.409C9.332 0.515 7.797 0.01 6.012 0.01Z" clip-rule="evenodd" stroke-width="1"></path>
  </g>
</svg>