<svg xmlns="http://www.w3.org/2000/svg" fill="none" viewBox="0 0 14 14" id="Padlock-Square-1--Streamline-Flex">
  <desc>
    Padlock Square 1 Streamline Icon: https://streamlinehq.com
  </desc>
  <g id="padlock-square-1--combination-combo-lock-locked-padlock-secure-security-shield-keyhole">
    <path id="Union" fill="#8fbffa" fill-rule="evenodd" d="M7 4.667c-0.816 0 -1.573 0.013 -2.311 0.04A3.458 3.458 0 0 0 1.39 7.753c-0.058 0.512 -0.1 1.04 -0.1 1.58 0 0.539 0.042 1.067 0.1 1.578a3.458 3.458 0 0 0 3.298 3.048 65.069 65.069 0 0 0 4.622 0 3.458 3.458 0 0 0 3.298 -3.048c0.058 -0.511 0.1 -1.04 0.1 -1.579 0 -0.54 -0.042 -1.067 -0.1 -1.579A3.458 3.458 0 0 0 9.31 4.705 64.694 64.694 0 0 0 7 4.666Z" clip-rule="evenodd" stroke-width="1"></path>
    <path id="Union_2" fill="#2859c5" fill-rule="evenodd" d="M4.407 1.199a3.667 3.667 0 0 1 6.26 2.593V5.04a3.407 3.407 0 0 0 -1.356 -0.335L9.166 4.7v-0.91a2.167 2.167 0 1 0 -4.333 0v0.91l-0.144 0.005c-0.482 0.017 -0.94 0.136 -1.356 0.335V3.79c0 -0.972 0.386 -1.904 1.074 -2.592ZM7.75 8.75a0.75 0.75 0 0 0 -1.5 0v1a0.75 0.75 0 1 0 1.5 0v-1Z" clip-rule="evenodd" stroke-width="1"></path>
  </g>
</svg>