<svg xmlns="http://www.w3.org/2000/svg" fill="none" viewBox="0 0 14 14" id="Pathfinder-Minus-Front-2--Streamline-Flex">
  <desc>
    Pathfinder Minus Front 2 Streamline Icon: https://streamlinehq.com
  </desc>
  <g id="pathfinder-minus-front-2">
    <path id="Union" fill="#2859c5" fill-rule="evenodd" d="M11.6534 5.68345c-0.3595 -0.20558 -0.4844 -0.66375 -0.2788 -1.02334 0.2056 -0.3596 0.6638 -0.48444 1.0233 -0.27886 0.4261 0.24361 0.7853 0.59174 1.042 1.00914 0.217 0.35284 0.1068 0.81476 -0.246 1.03173 -0.3529 0.21696 -0.8148 0.1068 -1.0318 -0.24604 -0.125 -0.20336 -0.3009 -0.37384 -0.5087 -0.49263Zm-0.2788 7.51685c-0.2056 -0.3596 -0.0807 -0.8178 0.2788 -1.0234 0.2078 -0.1188 0.3837 -0.2893 0.5087 -0.4926 0.217 -0.3529 0.6789 -0.463 1.0318 -0.2461 0.3528 0.217 0.463 0.6789 0.246 1.0318 -0.2567 0.4174 -0.6159 0.7655 -1.042 1.0091 -0.3595 0.2056 -0.8177 0.0808 -1.0233 -0.2788Zm-2.44417 -0.7004c0.24515 0 0.49041 -0.0076 0.73605 -0.0207 0.41362 -0.0222 0.76692 0.2951 0.78912 0.7087 0.0222 0.4136 -0.2952 0.7669 -0.70878 0.7891 -0.26823 0.0144 -0.54058 0.0229 -0.81639 0.0229 -0.27582 0 -0.54817 -0.0085 -0.8164 -0.0229 -0.41362 -0.0222 -0.73093 -0.3755 -0.70875 -0.7891 0.02219 -0.4136 0.37548 -0.7309 0.7891 -0.7087 0.24563 0.0131 0.49089 0.0207 0.73605 0.0207ZM12.5 8.93021c0 0.24515 -0.0076 0.49041 -0.0207 0.73604 -0.0222 0.41365 0.2951 0.76695 0.7087 0.78915 0.4136 0.0221 0.7669 -0.2952 0.7891 -0.7088 0.0144 -0.26823 0.0229 -0.54058 0.0229 -0.81639 0 -0.27582 -0.0085 -0.54817 -0.0229 -0.8164 -0.0222 -0.41362 -0.3755 -0.73094 -0.7891 -0.70875 -0.4136 0.02219 -0.7309 0.37548 -0.7087 0.7891 0.0131 0.24563 0.0207 0.49089 0.0207 0.73605ZM6.23824 12.1769c0.3596 0.2056 0.48444 0.6638 0.27886 1.0234 -0.20559 0.3596 -0.66376 0.4844 -1.02335 0.2788 -0.42609 -0.2436 -0.7853 -0.5917 -1.04195 -1.0091 -0.21696 -0.3529 -0.10681 -0.8148 0.24604 -1.0318 0.35284 -0.2169 0.81476 -0.1068 1.03173 0.2461 0.12504 0.2033 0.30091 0.3738 0.50867 0.4926Z" clip-rule="evenodd" stroke-width="1"></path>
    <path id="Union_2" fill="#8fbffa" d="M5.06508 0c-0.81604 0 -1.60783 0.0745901 -2.35271 0.157618C1.37022 0.30722 0.293171 1.38252 0.14915 2.72866 0.0698237 3.47011 0 4.25574 0 5.06507c0 0.80934 0.0698238 1.59497 0.149151 2.33642C0.293172 8.74763 1.37022 9.82293 2.71237 9.97253c0.74488 0.08307 1.53667 0.15767 2.35271 0.15767 0.81603 0 1.60782 -0.0746 2.3527 -0.15767 1.34215 -0.1496 2.4192 -1.2249 2.56322 -2.57104 0.0793 -0.74145 0.1492 -1.52708 0.1492 -2.33642 0 -0.80933 -0.0699 -1.59496 -0.1492 -2.33641C9.83698 1.38252 8.75993 0.30722 7.41778 0.157618 6.6729 0.0745901 5.88111 0 5.06508 0Z" stroke-width="1"></path>
  </g>
</svg>