<svg xmlns="http://www.w3.org/2000/svg" fill="none" viewBox="0 0 14 14" id="Pdf-Reader-Application--Streamline-Flex">
  <desc>
    Pdf Reader Application Streamline Icon: https://streamlinehq.com
  </desc>
  <g id="pdf-reader-application">
    <path id="Vector 2588 (Stroke)" fill="#2859c5" fill-rule="evenodd" d="M5.26617 1.55552c-0.06966 -0.01095 -0.21577 -0.01043 -0.46995 0.06721 -0.22876 0.06987 -0.33416 0.14335 -0.377 0.18403 -0.03103 0.02948 -0.03486 0.04469 -0.03774 0.06562 -0.01363 0.09905 0.03259 0.36653 0.35088 0.85801 0.16944 0.26164 0.38507 0.5413 0.63582 0.83476 0.06449 -0.38751 0.10509 -0.74445 0.11451 -1.06054 0.01807 -0.60645 -0.08917 -0.85236 -0.14723 -0.91881 -0.00032 -0.00037 -0.00064 -0.00074 -0.00097 -0.00112 -0.0082 -0.00946 -0.01848 -0.02133 -0.06832 -0.02916Zm1.3636 3.3437c0.19431 -0.85167 0.33179 -1.66352 0.35225 -2.34992 0.01982 -0.66503 -0.05876 -1.42591 -0.5169 -1.950349 -0.53906 -0.6170765 -1.33484 -0.6466598 -2.10707 -0.410795 -0.74952 0.228929 -1.35443 0.693721 -1.46258 1.479774 -0.09168 0.66643 0.22446 1.33215 0.57785 1.87783 0.36983 0.57107 0.90201 1.1884 1.50009 1.81161 -0.14685 0.56707 -0.31502 1.1593 -0.49023 1.75654 -0.02405 0.08198 -0.04806 0.16393 -0.07204 0.2458 -0.14513 0.49531 -0.28929 0.98734 -0.43494 1.46104 -0.90289 0.30475 -1.73955 0.62949 -2.38402 0.98656 -0.598544 0.33159 -1.225574 0.79139 -1.456 1.45479 -0.272535 0.7845 0.098907 1.498 0.699044 2.061 0.287506 0.2697 0.611306 0.4797 0.975586 0.5733 0.38013 0.0976 0.75058 0.054 1.08414 -0.0991 0.6105 -0.2802 1.04133 -0.8998 1.36 -1.5021 0.3359 -0.635 0.63871 -1.4368 0.91842 -2.2868 0.48889 -0.15496 1.00176 -0.31028 1.52495 -0.46873 0.09841 -0.02981 0.19719 -0.05972 0.29624 -0.08977 0.58011 -0.17595 1.15726 -0.34946 1.71167 -0.50428 0.64154 0.59146 1.26371 1.12508 1.82267 1.48928 0.5316 0.3464 1.1998 0.6757 1.8726 0.5614 0.7901 -0.1342 1.2196 -0.7855 1.4311 -1.53564 0.2207 -0.78252 0.1823 -1.58489 -0.4466 -2.11449 -0.5358 -0.45118 -1.3015 -0.50613 -1.9584 -0.46835 -0.6756 0.03885 -1.4722 0.1955 -2.30165 0.40362 -0.1357 -0.12902 -0.27371 -0.26088 -0.41397 -0.39489 -0.27746 -0.26509 -0.5637 -0.53858 -0.85818 -0.81512 -0.42272 -0.39697 -0.83676 -0.79 -1.22403 -1.17221Zm-0.43013 1.67257c-0.0909 0.32512 -0.18433 0.64808 -0.27712 0.96438 -0.0305 0.10397 -0.06121 0.20895 -0.09215 0.31473 -0.04077 0.13936 -0.08194 0.28009 -0.12355 0.42166 0.16133 -0.04904 0.32231 -0.09771 0.48229 -0.14608 0.12406 -0.0375 0.24751 -0.07483 0.37006 -0.112 0.28824 -0.08742 0.58388 -0.17699 0.88286 -0.26566 -0.20643 -0.19733 -0.41192 -0.39318 -0.61506 -0.58395 -0.2072 -0.19458 -0.41743 -0.39274 -0.62733 -0.59308Zm4.27716 1.94275c0.3082 0.26108 0.599 0.48635 0.871 0.6636 0.4951 0.32263 0.7348 0.35086 0.8024 0.33937 0.0002 -0.00003 0.0005 -0.00004 0.0008 -0.00004 0.0035 -0.0001 0.0151 -0.0004 0.0455 -0.03586 0.0452 -0.05252 0.1211 -0.17507 0.1924 -0.42802 0.0747 -0.26477 0.0733 -0.41729 0.0606 -0.49116 -0.0089 -0.05211 -0.0213 -0.06211 -0.0283 -0.06775 -0.0005 -0.00039 -0.001 -0.00076 -0.0014 -0.00113 -0.0621 -0.05233 -0.3025 -0.15291 -0.9061 -0.1182 -0.3109 0.01787 -0.6598 0.06694 -1.0369 0.13919ZM3.35694 10.6408c-0.39089 0.1555 -0.7411 0.3142 -1.03782 0.4786 -0.55564 0.3078 -0.73163 0.5359 -0.766 0.6349 -0.00644 0.0185 -0.01208 0.037 0.0076 0.0888 0.02627 0.0692 0.10184 0.1994 0.30074 0.386 0.16838 0.1579 0.27633 0.2026 0.3224 0.2144 0.03022 0.0078 0.04873 0.0074 0.08546 -0.0095 0.13009 -0.0597 0.3652 -0.2835 0.65974 -0.8403 0.14771 -0.2792 0.28975 -0.6004 0.42788 -0.9529Z" clip-rule="evenodd" stroke-width="1"></path>
  </g>
</svg>