<svg xmlns="http://www.w3.org/2000/svg" fill="none" viewBox="0 0 14 14" id="Pin-1--Streamline-Flex">
  <desc>
    Pin 1 Streamline Icon: https://streamlinehq.com
  </desc>
  <g id="pin-1--pin-push-thumbtack">
    <path id="Subtract" fill="#2859c5" fill-rule="evenodd" d="M4.22539 8.76172c0.30656 0.36721 0.64593 0.70606 1.0136 1.01219 -0.03436 0.06555 -0.07909 0.12708 -0.13418 0.18217l-3.6006 3.60062c-0.2929 0.2929 -0.76777 0.2929 -1.060663 0 -0.292893 -0.2929 -0.292893 -0.7678 0 -1.0607L4.04415 8.89542c0.05483 -0.05483 0.11604 -0.0994 0.18124 -0.1337Z" clip-rule="evenodd" stroke-width="1"></path>
    <path id="Union" fill="#8fbffa" fill-rule="evenodd" d="M13.0294 7.02429c0.7533 -0.75338 0.8731 -1.7331 0.6394 -2.65555 -0.2302 -0.90899 -0.8071 -1.80262 -1.5211 -2.51662 -0.714 -0.71401 -1.6076 -1.290865 -2.51662 -1.521148C8.70863 0.0972803 7.72891 0.217084 6.97553 0.970459c-0.63427 0.634271 -0.96731 1.552961 -1.16 2.349631 -0.13878 0.57376 -0.21557 1.13743 -0.26678 1.54307l-2.45949 0.1678c-0.14785 0.01009 -0.28361 0.08525 -0.37065 0.20519 -0.08703 0.11994 -0.11638 0.27232 -0.08011 0.41601 0.70722 2.80229 2.91025 4.99514 5.70792 5.70884 0.14381 0.0367 0.29649 0.0076 0.41673 -0.0794 0.12024 -0.087 0.1956 -0.223 0.20571 -0.371l0.1678 -2.45953c0.40564 -0.05121 0.96934 -0.128 1.54304 -0.26678 0.7967 -0.19269 1.7154 -0.52573 2.3497 -1.16Z" clip-rule="evenodd" stroke-width="1"></path>
  </g>
</svg>