<svg xmlns="http://www.w3.org/2000/svg" fill="none" viewBox="0 0 14 14" id="Presentation--Streamline-Flex">
  <desc>
    Presentation Streamline Icon: https://streamlinehq.com
  </desc>
  <g id="presentation">
    <path id="Union" fill="#2859c5" fill-rule="evenodd" d="M7 5.978c1.15 0 1.797 -0.647 1.797 -1.797S8.15 2.384 7 2.384s-1.797 0.647 -1.797 1.797S5.85 5.978 7 5.978Zm0 1.137a3.32 3.32 0 0 0 -3.13 2.213 0.5 0.5 0 0 0 0.471 0.666H9.66a0.5 0.5 0 0 0 0.471 -0.666A3.32 3.32 0 0 0 7 7.115Z" clip-rule="evenodd" stroke-width="1"></path>
    <path id="Union_2" fill="#8fbffa" fill-rule="evenodd" d="M1.797 11.964a0.75 0.75 0 0 1 0.75 -0.75h8.906a0.75 0.75 0 0 1 0 1.5h-0.469l0 0.771a0.5 0.5 0 0 1 -0.5 0.5H3.516a0.5 0.5 0 0 1 -0.5 -0.5l0 -0.771h-0.47a0.75 0.75 0 0 1 -0.75 -0.75Z" clip-rule="evenodd" stroke-width="1"></path>
    <path id="Subtract" fill="#8fbffa" fill-rule="evenodd" d="m13.124 2.06 -0.005 -0.023C12.972 1.031 12.05 0.331 11.01 0.233 9.725 0.11 8.307 0.015 7.001 0.015c-1.307 0 -2.726 0.096 -4.01 0.218C1.948 0.33 1.026 1.03 0.88 2.037l-0.006 0.023a8.184 8.184 0 0 0 -0.107 0.631 14.95 14.95 0 0 0 -0.112 1.918c0 0.84 0.056 1.482 0.113 1.918a8.185 8.185 0 0 0 0.106 0.631l0.006 0.022c0.132 0.906 0.892 1.564 1.801 1.758l0.01 -0.026a4.585 4.585 0 0 1 2.122 -2.49 2.615 2.615 0 0 1 -0.028 -0.027c-0.603 -0.603 -0.833 -1.409 -0.833 -2.214 0 -0.805 0.23 -1.61 0.833 -2.213S6.195 1.134 7 1.134c0.805 0 1.61 0.23 2.214 0.834 0.603 0.603 0.833 1.408 0.833 2.213 0 0.805 -0.23 1.61 -0.833 2.214a2.625 2.625 0 0 1 -0.028 0.026 4.585 4.585 0 0 1 2.123 2.491l0.009 0.026c0.91 -0.195 1.669 -0.852 1.801 -1.757l0.005 -0.023a8.107 8.107 0 0 0 0.107 -0.631 14.92 14.92 0 0 0 0.113 -1.918c0 -0.84 -0.056 -1.482 -0.113 -1.918a8.269 8.269 0 0 0 -0.107 -0.631Z" clip-rule="evenodd" stroke-width="1"></path>
  </g>
</svg>