<svg xmlns="http://www.w3.org/2000/svg" fill="none" viewBox="0 0 14 14" id="Projector--Streamline-Flex">
  <desc>
    Projector Streamline Icon: https://streamlinehq.com
  </desc>
  <g id="projector--work-meeting-presentation-projection">
    <path id="Subtract" fill="#2859c5" fill-rule="evenodd" d="M10.9818 11.0818c0.3111 -0.0176 0.62 -0.0367 0.9267 -0.0572 0.199 -0.0133 0.3935 -0.0516 0.5733 -0.1142v1.2578c0 0.4142 -0.3358 0.75 -0.75 0.75s-0.75 -0.3358 -0.75 -0.75v-1.0864Zm-9.4641 -0.1774c0.1834 0.0625 0.38159 0.1001 0.58369 0.1123 0.29827 0.018 0.60428 0.036 0.91631 0.0534v1.0981c0 0.4142 -0.33579 0.75 -0.75 0.75s-0.75 -0.3358 -0.75 -0.75v-1.2638Z" clip-rule="evenodd" stroke-width="1"></path>
    <path id="Union" fill="#8fbffa" fill-rule="evenodd" d="M10.9777 4.37637 5.08037 4.2876l-0.0105 0.00028c-1.03206 0.02783 -2.04163 0.07753 -3.0185 0.14675 -0.30961 0.02194 -0.60878 0.10513 -0.85699 0.2476 -0.242926 0.13943 -0.479657 0.36257 -0.570591 0.68029 -0.21648 0.75636 -0.329233 1.55521 -0.329233 2.36813 0 0.80946 0.119288 1.58827 0.326954 2.33715 0.091463 0.3298 0.338952 0.5593 0.5905 0.701 0.25759 0.145 0.56856 0.2285 0.88938 0.2479 1.50894 0.0911 3.21619 0.1827 4.89858 0.1827 1.69769 0 3.33223 -0.0696 4.90853 -0.1748 0.3204 -0.0214 0.629 -0.1077 0.8836 -0.2556 0.2493 -0.1447 0.4898 -0.376 0.5776 -0.7026 0.1988 -0.73915 0.3357 -1.51966 0.3357 -2.33575 0 -0.81371 -0.1233 -1.60569 -0.3315 -2.35337 -0.0897 -0.32212 -0.3287 -0.54889 -0.5746 -0.69053 -0.2514 -0.14472 -0.555 -0.22913 -0.8695 -0.25074 -0.3121 -0.02145 -0.626 -0.04118 -0.9417 -0.05905l-0.0104 -0.00059Z" clip-rule="evenodd" stroke-width="1"></path>
    <path id="Vector" fill="#2859c5" d="M8.01831 7.70557c1.87961 0 2.93689 -1.05728 2.93689 -2.93689S9.89792 1.83179 8.01831 1.83179 5.08142 2.88907 5.08142 4.76868 6.1387 7.70557 8.01831 7.70557Z" stroke-width="1"></path>
  </g>
</svg>