<svg xmlns="http://www.w3.org/2000/svg" fill="none" viewBox="0 0 14 14" id="Projector-Board--Streamline-Flex">
  <desc>
    Projector Board Streamline Icon: https://streamlinehq.com
  </desc>
  <g id="projector-board--projector-screen-work-meeting-presentation">
    <path id="Subtract" fill="#2859c5" fill-rule="evenodd" d="m4.114 10.623 -1.971 1.972a0.75 0.75 0 1 0 1.06 1.06l2.885 -2.884a0.747 0.747 0 0 0 0.04 -0.043 44.327 44.327 0 0 1 -2.014 -0.104Zm2.136 0.108v2.394a0.75 0.75 0 0 0 1.5 0v-2.392a39.678 39.678 0 0 1 -1.5 -0.002Zm1.625 0a44.09 44.09 0 0 0 2.026 -0.092l1.956 1.956a0.75 0.75 0 1 1 -1.06 1.06l-2.885 -2.884a0.798 0.798 0 0 1 -0.037 -0.04Z" clip-rule="evenodd" stroke-width="1"></path>
    <path id="Union" fill="#8fbffa" fill-rule="evenodd" d="M7 0.125c-1.775 0 -3.505 0.105 -5.142 0.297A1.452 1.452 0 0 0 0.595 1.596 21.144 21.144 0 0 0 0.25 5.433c0 1.312 0.125 2.577 0.344 3.797a1.472 1.472 0 0 0 1.312 1.2c1.554 0.152 3.337 0.31 5.094 0.31 1.77 0 3.47 -0.12 5.106 -0.3 0.65 -0.07 1.18 -0.56 1.292 -1.21 0.209 -1.213 0.352 -2.48 0.352 -3.797a21.8 21.8 0 0 0 -0.347 -3.82 1.46 1.46 0 0 0 -1.278 -1.19A45.337 45.337 0 0 0 7 0.126Z" clip-rule="evenodd" stroke-width="1"></path>
    <path id="Subtract_2" fill="#2859c5" d="M1.858 0.422a44.324 44.324 0 0 1 10.267 0.002 1.461 1.461 0 0 1 1.278 1.19c0.073 0.41 0.137 0.827 0.189 1.251H0.402c0.051 -0.43 0.116 -0.854 0.193 -1.27A1.45 1.45 0 0 1 1.858 0.422Z" stroke-width="1"></path>
  </g>
</svg>