<svg xmlns="http://www.w3.org/2000/svg" fill="none" viewBox="0 0 14 14" id="Scissors--Streamline-Flex">
  <desc>
    Scissors Streamline Icon: https://streamlinehq.com
  </desc>
  <g id="scissors--clipboard-copy-cut-paste-right-scissors">
    <path id="Union" fill="#8fbffa" fill-rule="evenodd" d="M1.521 2.907c0 -0.549 0.152 -0.871 0.339 -1.058 0.186 -0.186 0.509 -0.338 1.057 -0.338 0.549 0 0.872 0.152 1.058 0.338 0.186 0.187 0.338 0.51 0.338 1.058 0 0.549 -0.152 0.871 -0.338 1.058 -0.186 0.186 -0.51 0.338 -1.058 0.338s-0.871 -0.152 -1.057 -0.338c-0.187 -0.187 -0.339 -0.51 -0.339 -1.058ZM2.917 0.011C2.093 0.011 1.342 0.245 0.8 0.79 0.256 1.332 0.021 2.082 0.021 2.907S0.256 4.482 0.8 5.025c0.338 0.339 0.757 0.557 1.224 0.674 0.537 0.47 1.049 0.902 1.545 1.301 -0.496 0.4 -1.008 0.83 -1.545 1.301A2.588 2.588 0 0 0 0.8 8.975c-0.543 0.543 -0.778 1.293 -0.778 2.118s0.235 1.575 0.778 2.118c0.543 0.543 1.294 0.778 2.118 0.778 0.825 0 1.575 -0.235 2.118 -0.778 0.544 -0.543 0.778 -1.293 0.778 -2.118s-0.234 -1.575 -0.778 -2.118a2.49 2.49 0 0 0 -0.841 -0.55c0.203 -0.167 0.403 -0.328 0.6 -0.484 2.403 1.75 4.672 2.827 8.212 4.047a0.75 0.75 0 0 0 0.488 -1.418C10.284 9.463 8.196 8.5 6.057 7c2.139 -1.5 4.227 -2.463 7.437 -3.57a0.75 0.75 0 0 0 -0.488 -1.418c-3.54 1.22 -5.81 2.297 -8.212 4.047a36.585 36.585 0 0 1 -0.6 -0.483 2.49 2.49 0 0 0 0.841 -0.55c0.544 -0.544 0.778 -1.294 0.778 -2.119 0 -0.825 -0.234 -1.575 -0.778 -2.118C4.492 0.245 3.742 0.01 2.917 0.01ZM1.521 11.093c0 0.549 0.152 0.871 0.339 1.057 0.186 0.187 0.509 0.339 1.057 0.339 0.549 0 0.872 -0.152 1.058 -0.339 0.186 -0.186 0.338 -0.508 0.338 -1.057 0 -0.549 -0.152 -0.871 -0.338 -1.057 -0.186 -0.187 -0.51 -0.339 -1.058 -0.339s-0.871 0.152 -1.057 0.339c-0.187 0.186 -0.339 0.508 -0.339 1.057Z" clip-rule="evenodd" stroke-width="1"></path>
  </g>
</svg>