<svg xmlns="http://www.w3.org/2000/svg" fill="none" viewBox="0 0 14 14" id="Tag--Streamline-Flex">
  <desc>
    Tag Streamline Icon: https://streamlinehq.com
  </desc>
  <g id="tag--tags-bookmark-favorite">
    <path id="Subtract" fill="#8fbffa" fill-rule="evenodd" d="M6.128 0.657c-0.6 -0.117 -1.66 -0.3 -2.672 -0.362a7.81 7.81 0 0 0 -1.46 0.028c-0.42 0.056 -0.884 0.18 -1.189 0.484 -0.305 0.305 -0.428 0.77 -0.484 1.19a7.81 7.81 0 0 0 -0.028 1.459C0.357 4.467 0.54 5.528 0.657 6.128c0.082 0.42 0.278 0.8 0.555 1.113a77.456 77.456 0 0 0 5.75 5.835c0.89 0.812 2.235 0.86 3.194 0.156 0.563 -0.413 1.146 -0.863 1.68 -1.396 0.533 -0.534 0.983 -1.117 1.396 -1.68 0.704 -0.96 0.656 -2.305 -0.156 -3.194a77.456 77.456 0 0 0 -5.835 -5.75A2.352 2.352 0 0 0 6.128 0.657Z" clip-rule="evenodd" stroke-width="1"></path>
    <path id="Vector" fill="#2859c5" d="M4.67 6.128c0.933 0 1.458 -0.525 1.458 -1.458 0 -0.934 -0.525 -1.46 -1.459 -1.46 -0.933 0 -1.458 0.526 -1.458 1.46 0 0.933 0.525 1.458 1.458 1.458Z" stroke-width="1"></path>
  </g>
</svg>