<svg xmlns="http://www.w3.org/2000/svg" fill="none" viewBox="0 0 14 14" id="User-Sync-Online-In-Person--Streamline-Flex">
  <desc>
    User Sync Online In Person Streamline Icon: https://streamlinehq.com
  </desc>
  <g id="user-sync-online-in-person">
    <g id="Group 5521">
      <path id="Vector" fill="#2859c5" d="M6.991 6.842c0.958 0 1.496 -0.538 1.496 -1.496 0 -0.957 -0.538 -1.496 -1.496 -1.496 -0.957 0 -1.496 0.539 -1.496 1.496 0 0.958 0.539 1.496 1.496 1.496Z" stroke-width="1"></path>
      <path id="Union" fill="#8fbffa" fill-rule="evenodd" d="M6.994 2.5c-1.506 0 -2.59 0.411 -3.303 1.094a0.75 0.75 0 0 1 -1.037 -1.083C3.722 1.489 5.219 0.999 6.994 0.999c1.819 0 3.345 0.514 4.416 1.585 1.004 1.004 1.518 2.409 1.579 4.078l0.247 -0.056a0.625 0.625 0 0 1 0.738 0.79 2.466 2.466 0 0 1 -1.578 1.665 0.625 0.625 0 0 1 -0.395 0.01 2.466 2.466 0 0 1 -1.664 -1.577 0.625 0.625 0 0 1 0.696 -0.829l0.458 0.08c-0.045 -1.409 -0.467 -2.426 -1.142 -3.1 -0.714 -0.714 -1.813 -1.146 -3.355 -1.146ZM2.498 7.25l0.463 0.082a0.625 0.625 0 0 0 0.695 -0.83 2.46 2.46 0 0 0 -1.66 -1.573 0.625 0.625 0 0 0 -0.395 0.01A2.46 2.46 0 0 0 0.027 6.6a0.625 0.625 0 0 0 0.737 0.792L1 7.337c0.06 1.67 0.574 3.074 1.579 4.079C3.649 12.486 5.176 13 6.994 13c1.824 0 3.354 -0.517 4.425 -1.595a0.75 0.75 0 1 0 -1.063 -1.057c-0.714 0.718 -1.815 1.152 -3.362 1.152 -1.542 0 -2.64 -0.432 -3.355 -1.146 -0.675 -0.675 -1.097 -1.693 -1.141 -3.105Z" clip-rule="evenodd" stroke-width="1"></path>
      <path id="Subtract" fill="#2859c5" fill-rule="evenodd" d="M9.405 9.523c-0.157 -0.613 -0.374 -1.194 -0.878 -1.618a2.381 2.381 0 0 0 -1.533 -0.563c-0.559 0 -1.1 0.199 -1.533 0.563 -0.504 0.424 -0.721 1.005 -0.877 1.618 0.477 0.443 1.239 0.756 2.41 0.756s1.934 -0.313 2.41 -0.756Z" clip-rule="evenodd" stroke-width="1"></path>
    </g>
  </g>
</svg>