<svg xmlns="http://www.w3.org/2000/svg" fill="none" viewBox="0 0 14 14" id="Zoom-Out-Gesture--Streamline-Flex">
  <desc>
    Zoom Out Gesture Streamline Icon: https://streamlinehq.com
  </desc>
  <g id="zoom-out">
    <path id="Vector 1440" fill="#8fbffa" d="m8.11 6.734 -0.776 -2.898a1.25 1.25 0 0 0 -2.415 0.647l1.553 5.796 -0.882 -0.05a1.373 1.373 0 0 0 -0.538 2.664l2.467 0.88a2 2 0 0 0 1.19 0.047l3.859 -1.034c0.537 -0.144 1.006 -0.506 1.108 -1.054 0.159 -0.845 0.115 -1.896 -0.053 -2.524 -0.453 -1.69 -1.854 -3.331 -5.513 -2.474Z" stroke-width="1"></path>
    <path id="Union" fill="#2859c5" fill-rule="evenodd" d="M3.767 0.085c0.302 0.169 0.409 0.55 0.24 0.85a6.25 6.25 0 0 0 -0.339 0.708c0.06 -0.004 0.122 -0.01 0.184 -0.016a0.756 0.756 0 0 1 0.756 0.4 0.7 0.7 0 0 1 -0.203 0.887c-0.487 0.375 -1.082 0.676 -1.656 0.81a0.5 0.5 0 0 1 -0.435 -0.104c-0.452 -0.379 -0.846 -0.917 -1.111 -1.471a0.7 0.7 0 0 1 0.22 -0.883 0.756 0.756 0 0 1 0.855 -0.015c0.054 0.035 0.108 0.069 0.162 0.1 0.14 -0.37 0.3 -0.711 0.477 -1.026a0.625 0.625 0 0 1 0.85 -0.24ZM2.01 8.809a0.625 0.625 0 0 0 0.58 -0.668 6.25 6.25 0 0 1 -0.005 -0.784c0.053 0.03 0.106 0.06 0.159 0.093 0.282 0.172 0.62 0.14 0.855 -0.04a0.7 0.7 0 0 0 0.194 -0.888c-0.28 -0.547 -0.69 -1.074 -1.153 -1.44a0.5 0.5 0 0 0 -0.437 -0.091c-0.571 0.15 -1.157 0.469 -1.633 0.858a0.7 0.7 0 0 0 -0.177 0.891c0.143 0.26 0.44 0.423 0.767 0.38 0.064 -0.01 0.127 -0.017 0.19 -0.023a7.554 7.554 0 0 0 -0.007 1.132 0.625 0.625 0 0 0 0.667 0.58Z" clip-rule="evenodd" stroke-width="1"></path>
  </g>
</svg>