<svg xmlns="http://www.w3.org/2000/svg" fill="none" viewBox="0 0 14 14" id="Add-Square--Streamline-Core">
  <desc>
    Add Square Streamline Icon: https://streamlinehq.com
  </desc>
  <g id="add-square--square-remove-cross-buttons-add-plus-button-+-mathematics-math">
    <path id="Vector" fill="#d7e0ff" d="M10.5 0.5h-7c-1.65685 0 -3 1.34315 -3 3v7c0 1.6569 1.34315 3 3 3h7c1.6569 0 3 -1.3431 3 -3v-7c0 -1.65685 -1.3431 -3 -3 -3Z" stroke-width="1"></path>
    <path id="Vector_2" stroke="#4147d5" stroke-linecap="round" stroke-linejoin="round" d="M7 4v6" stroke-width="1"></path>
    <path id="Vector_3" stroke="#4147d5" stroke-linecap="round" stroke-linejoin="round" d="M4 7h6" stroke-width="1"></path>
    <path id="Vector_4" stroke="#4147d5" stroke-linecap="round" stroke-linejoin="round" d="M10.5 0.5h-7c-1.65685 0 -3 1.34315 -3 3v7c0 1.6569 1.34315 3 3 3h7c1.6569 0 3 -1.3431 3 -3v-7c0 -1.65685 -1.3431 -3 -3 -3Z" stroke-width="1"></path>
  </g>
</svg>