<svg xmlns="http://www.w3.org/2000/svg" fill="none" viewBox="0 0 14 14"><g id="archive-box--box-content-banker-archive-file"><path id="Vector" fill="#37d7ff" d="M1.5 5h11v7a1 1 0 0 1-1 1h-9a1 1 0 0 1-1-1V5Z"></path><path id="Vector_2" fill="#37d7ff" d="M13.5 4V2a1 1 0 0 0-1-1h-11a1 1 0 0 0-1 1v2a1 1 0 0 0 1 1h11a1 1 0 0 0 1-1Z"></path><path id="Vector_3" stroke="#3e3e3e" stroke-linecap="round" stroke-linejoin="round" d="M1.5 5h11v7a1 1 0 0 1-1 1h-9a1 1 0 0 1-1-1V5v0Z"></path><path id="Vector_4" stroke="#3e3e3e" stroke-linecap="round" stroke-linejoin="round" d="M13.5 4V2a1 1 0 0 0-1-1h-11a1 1 0 0 0-1 1v2a1 1 0 0 0 1 1h11a1 1 0 0 0 1-1Z"></path><path id="Vector_5" stroke="#3e3e3e" stroke-linecap="round" stroke-linejoin="round" d="M5.5 8h3"></path></g></svg>