<svg xmlns="http://www.w3.org/2000/svg" fill="none" viewBox="0 0 14 14" id="Braces-Circle--Streamline-Core">
  <desc>
    Braces Circle Streamline Icon: https://streamlinehq.com
  </desc>
  <g id="braces-circle--interface-math-braces-sign-mathematics">
    <path id="Vector" fill="#d7e0ff" d="M7 13.25c3.4518 0 6.25 -2.7982 6.25 -6.25C13.25 3.54822 10.4518 0.75 7 0.75 3.54822 0.75 0.75 3.54822 0.75 7c0 3.4518 2.79822 6.25 6.25 6.25Z" stroke-width="1"></path>
    <path id="Vector 286" stroke="#4147d5" stroke-linecap="round" stroke-linejoin="round" d="M5.5 4.5c-0.38972 0 -1.08319 0.30376 -1.13339 1.14803 -0.02953 0.49678 -0.19723 1.01728 -0.64234 1.23984L3.5 7l0.22427 0.11213c0.44511 0.22256 0.61281 0.74306 0.64234 1.23984C4.41681 9.19624 5.11028 9.5 5.5 9.5" stroke-width="1"></path>
    <path id="Vector 287" stroke="#4147d5" stroke-linecap="round" stroke-linejoin="round" d="M8.5 4.5c0.38972 0 1.08319 0.30376 1.13339 1.14803 0.02953 0.49678 0.19723 1.01728 0.64231 1.23984L10.5 7l-0.2243 0.11213c-0.44508 0.22256 -0.61278 0.74306 -0.64231 1.23984C9.58319 9.19624 8.88972 9.5 8.5 9.5" stroke-width="1"></path>
    <path id="Vector_2" stroke="#4147d5" stroke-linecap="round" stroke-linejoin="round" d="M7 13.25c3.4518 0 6.25 -2.7982 6.25 -6.25C13.25 3.54822 10.4518 0.75 7 0.75 3.54822 0.75 0.75 3.54822 0.75 7c0 3.4518 2.79822 6.25 6.25 6.25Z" stroke-width="1"></path>
  </g>
</svg>