<svg xmlns="http://www.w3.org/2000/svg" fill="none" viewBox="0 0 14 14" id="Color-Palette--Streamline-Core">
  <desc>
    Color Palette Streamline Icon: https://streamlinehq.com
  </desc>
  <g id="color-palette--color-palette-company-office-supplies-work">
    <g id="Vector">
      <path fill="#d7e0ff" d="M0.5 9c0 2.2091 1.79086 4 4 4 0.94595 0 1.8152 -0.3284 2.5 -0.8773C6.08554 11.3896 5.5 10.2632 5.5 9c0 -0.09639 0.00341 -0.19199 0.01012 -0.28668 -1.38699 -0.55701 -2.38967 -1.86857 -2.5 -3.42664C1.53884 5.87754 0.5 7.31745 0.5 9Z" stroke-width="1"></path>
    </g>
    <g id="Vector_2">
      <path fill="#d7e0ff" d="M7.00002 5.87732c-0.84468 0.67712 -1.40872 1.68987 -1.48989 2.836C5.9706 8.89825 6.47342 9 7.00002 9c0.52659 0 1.02941 -0.10175 1.48988 -0.28668 -0.08116 -1.14613 -0.6452 -2.15888 -1.48988 -2.836Z" stroke-width="1"></path>
    </g>
    <g id="Vector_3">
      <path fill="#d7e0ff" d="M7 1C4.79086 1 3 2.79086 3 5c0 0.09639 0.00341 0.19199 0.01012 0.28668C3.47058 5.10176 3.97341 5 4.5 5c0.94595 0 1.8152 0.32836 2.5 0.87731C7.6848 5.32836 8.55405 5 9.5 5c0.5266 0 1.0294 0.10176 1.4899 0.28668C10.9966 5.19199 11 5.09639 11 5c0 -2.20914 -1.79086 -4 -4 -4Z" stroke-width="1"></path>
    </g>
    <g id="Vector_4">
      <path fill="#d7e0ff" d="M9.5 13c2.2091 0 4 -1.7909 4 -4 0 -1.68255 -1.0388 -3.12246 -2.5101 -3.71332 -0.1104 1.55807 -1.11303 2.86963 -2.50002 3.42664C8.49659 8.80801 8.5 8.90361 8.5 9c0 1.2632 -0.58554 2.3896 -1.5 3.1227 0.6848 0.5489 1.55405 0.8773 2.5 0.8773Z" stroke-width="1"></path>
    </g>
    <path id="Subtract" fill="#ffffff" fill-rule="evenodd" d="M10.9899 5.28668C10.5294 5.10176 10.0266 5 9.5 5c-0.94591 0 -1.81514 0.32834 -2.49993 0.87726 0.84464 0.67712 1.40865 1.68984 1.48982 2.83594 -0.46047 0.18493 -0.9633 0.28668 -1.48989 0.28668 -0.52659 0 -1.02942 -0.10175 -1.48988 -0.28668 0.08116 -1.1461 0.64517 -2.15882 1.48981 -2.83594C6.31514 5.32834 5.44591 5 4.5 5c-0.52659 0 -1.02941 0.10176 -1.48988 0.28668 0.11036 1.55804 1.11303 2.86958 2.5 3.42658 -0.00671 0.09469 -0.01012 0.19029 -0.01012 0.28668 0 1.26316 0.58554 2.38966 1.5 3.12266 -0.6848 0.549 -1.55405 0.8773 -2.5 0.8773 -2.20912 0 -3.999968 -1.7908 -4 -3.9999 0 2.2091 1.79086 4 4 4 0.94595 0 1.8152 -0.3284 2.5 -0.8773 0.6848 0.5489 1.55405 0.8773 2.5 0.8773 2.2091 0 4 -1.7909 4 -4l0 -0.00006c0 2.20916 -1.7909 3.99996 -4 3.99996 -0.94595 0 -1.8152 -0.3283 -2.5 -0.8773 0.91446 -0.733 1.5 -1.8595 1.5 -3.12266 0 -0.09639 -0.00341 -0.19199 -0.01012 -0.28668 1.38697 -0.557 2.38962 -1.86854 2.50002 -3.42658Z" clip-rule="evenodd" stroke-width="1"></path>
    <path id="Vector_5" stroke="#4147d5" stroke-linecap="round" stroke-linejoin="round" d="M4.5 13c2.20914 0 4 -1.7909 4 -4 0 -2.20914 -1.79086 -4 -4 -4s-4 1.79086 -4 4c0 2.2091 1.79086 4 4 4Z" stroke-width="1"></path>
    <path id="Vector_6" stroke="#4147d5" stroke-linecap="round" stroke-linejoin="round" d="M9.5 13c2.2091 0 4 -1.7909 4 -4 0 -2.20914 -1.7909 -4 -4 -4 -2.20914 0 -4 1.79086 -4 4 0 2.2091 1.79086 4 4 4Z" stroke-width="1"></path>
    <path id="Vector_7" stroke="#4147d5" stroke-linecap="round" stroke-linejoin="round" d="M7 9c2.20914 0 4 -1.79086 4 -4S9.20914 1 7 1 3 2.79086 3 5s1.79086 4 4 4Z" stroke-width="1"></path>
  </g>
</svg>