<svg xmlns="http://www.w3.org/2000/svg" fill="none" viewBox="0 0 14 14" id="Color-Picker--Streamline-Core">
  <desc>
    Color Picker Streamline Icon: https://streamlinehq.com
  </desc>
  <g id="color-picker--color-colors-design-dropper-eye-eyedrop-eyedropper-painting-picker">
    <path id="Vector" fill="#ffffff" d="M2.0616 7.80175c0.09466 -0.63047 0.38926 -1.21389 0.84044 -1.66433l3.10525 -3.10525 4.96051 4.96046 -3.1053 3.10527c-0.45044 0.4512 -1.03386 0.7458 -1.66433 0.8404 -0.63047 0.0947 -1.27468 -0.0156 -1.83776 -0.3146l-1.53774 1.5377c-0.18588 0.1848 -0.43733 0.2885 -0.69943 0.2885 -0.26209 0 -0.51354 -0.1037 -0.69942 -0.2885l-0.585339 -0.5853c-0.184778 -0.1859 -0.288493 -0.4373 -0.288493 -0.6994s0.103715 -0.5136 0.288493 -0.6994L2.37623 9.63951c-0.299 -0.56308 -0.40929 -1.20729 -0.31463 -1.83776Z" stroke-width="1"></path>
    <path id="Vector_2" fill="#d7e0ff" d="M11.2795 0.818777c0.4257 0.177434 0.812 0.437433 1.1367 0.764993 0.3275 0.32467 0.5875 0.711 0.765 1.1367 0.1774 0.4257 0.2688 0.88233 0.2688 1.34353 0 0.4612 -0.0914 0.91783 -0.2688 1.34353 -0.1775 0.4257 -0.4375 0.81203 -0.765 1.1367l-1.4485 1.44846 -4.96044 -4.96047 1.44846 -1.44845c0.32467 -0.32756 0.71101 -0.587559 1.13671 -0.764993 0.4257 -0.177435 0.88232 -0.268789 1.34352 -0.268789 0.46115 0 0.91785 0.091354 1.34355 0.268789Z" stroke-width="1"></path>
    <path id="Vector_3" stroke="#4147d5" stroke-linecap="round" stroke-linejoin="round" d="M12.4162 1.58377c-0.3247 -0.32756 -0.711 -0.587559 -1.1367 -0.764993 -0.4257 -0.177435 -0.8823 -0.268789 -1.34352 -0.268789 -0.4612 0 -0.91783 0.091354 -1.34353 0.268789 -0.4257 0.177434 -0.81204 0.437433 -1.13671 0.764993l-4.5537 4.5537c-0.45118 0.45045 -0.74578 1.03386 -0.84044 1.66434 -0.09466 0.63047 0.01563 1.27468 0.31463 1.83775L0.838481 11.1773c-0.184778 0.1859 -0.288493 0.4373 -0.288493 0.6994s0.103715 0.5136 0.288493 0.6995l0.585339 0.5853c0.18588 0.1848 0.43733 0.2885 0.69942 0.2885 0.2621 0 0.51355 -0.1037 0.69943 -0.2885l1.53774 -1.5378c0.56308 0.299 1.20729 0.4093 1.83776 0.3147 0.63047 -0.0947 1.21389 -0.3893 1.66433 -0.8405l4.5537 -4.55367c0.3276 -0.32467 0.5876 -0.711 0.765 -1.1367 0.1774 -0.4257 0.2688 -0.88233 0.2688 -1.34353 0 -0.4612 -0.0914 -0.91783 -0.2688 -1.34353 -0.1774 -0.4257 -0.4374 -0.81203 -0.765 -1.1367v0Z" stroke-width="1"></path>
    <path id="Vector_4" stroke="#4147d5" stroke-linecap="round" stroke-linejoin="round" d="m4.51917 1.54401 7.93673 7.93674" stroke-width="1"></path>
  </g>
</svg>