<svg xmlns="http://www.w3.org/2000/svg" fill="none" viewBox="0 0 14 14" id="Face-Scan-1--Streamline-Core">
  <desc>
    Face Scan 1 Streamline Icon: https://streamlinehq.com
  </desc>
  <g id="face-scan-1--identification-angle-secure-human-id-person-face-security-brackets">
    <path id="Vector" stroke="#4147d5" stroke-linecap="round" stroke-linejoin="round" d="M13.5 10.5v2a1 1 0 0 1 -1 1h-2" stroke-width="1"></path>
    <path id="Vector_2" stroke="#4147d5" stroke-linecap="round" stroke-linejoin="round" d="M10.5 0.5h2a1 1 0 0 1 1 1v2" stroke-width="1"></path>
    <path id="Vector_3" stroke="#4147d5" stroke-linecap="round" stroke-linejoin="round" d="M0.5 3.5v-2a1 1 0 0 1 1 -1h2" stroke-width="1"></path>
    <path id="Vector_4" stroke="#4147d5" stroke-linecap="round" stroke-linejoin="round" d="M3.5 13.5h-2a1 1 0 0 1 -1 -1v-2" stroke-width="1"></path>
    <path id="Vector_5" stroke="#4147d5" stroke-linecap="round" stroke-linejoin="round" d="M7 4.5V8H5.5" stroke-width="1"></path>
    <path id="Vector_6" stroke="#4147d5" stroke-linecap="round" stroke-linejoin="round" d="M4.5 10a3.63 3.63 0 0 0 5 0" stroke-width="1"></path>
    <g id="Group 8">
      <path id="Vector_7" stroke="#4147d5" stroke-linecap="round" stroke-linejoin="round" d="M4 4.75a0.25 0.25 0 0 1 0 -0.5" stroke-width="1"></path>
      <path id="Vector_8" stroke="#4147d5" stroke-linecap="round" stroke-linejoin="round" d="M4 4.75a0.25 0.25 0 0 0 0 -0.5" stroke-width="1"></path>
    </g>
    <g id="Group 2656">
      <path id="Vector_9" stroke="#4147d5" stroke-linecap="round" stroke-linejoin="round" d="M10 4.75a0.25 0.25 0 0 1 0 -0.5" stroke-width="1"></path>
      <path id="Vector_10" stroke="#4147d5" stroke-linecap="round" stroke-linejoin="round" d="M10 4.75a0.25 0.25 0 1 0 0 -0.5" stroke-width="1"></path>
    </g>
  </g>
</svg>