<svg xmlns="http://www.w3.org/2000/svg" fill="none" viewBox="0 0 14 14"><g id="folder-check--remove-check-folder"><path id="Vector" fill="#37d7ff" d="M.5 12.25V1.75a1 1 0 0 1 1-1h3.69a1 1 0 0 1 1 .76l.31 1.24h6a1 1 0 0 1 1 1v8.5a1 1 0 0 1-1 1h-11a1 1 0 0 1-1-1Z"></path><path id="Vector_2" stroke="#3e3e3e" stroke-linecap="round" stroke-linejoin="round" d="M.5 12.25V1.75a1 1 0 0 1 1-1h3.69a1 1 0 0 1 1 .76l.31 1.24h6a1 1 0 0 1 1 1v8.5a1 1 0 0 1-1 1h-11a1 1 0 0 1-1-1Z"></path><path id="Vector_3" stroke="#3e3e3e" stroke-linecap="round" stroke-linejoin="round" d="M4.5 9 6 10l3-4"></path></g></svg>