<svg xmlns="http://www.w3.org/2000/svg" fill="none" viewBox="0 0 14 14"><g id="gif-format"><path id="rectangle 629" fill="#37d7ff" transform="rotate(90 13.438 2.656)" d="M15.438 2.656h4.289s2 0 2 2v8.875s0 2-2 2h-4.289s-2 0-2-2V4.656s0-2 2-2"></path><path id="rectangle 630" stroke="#3e3e3e" stroke-linecap="round" stroke-linejoin="round" transform="rotate(90 13.438 2.656)" d="M15.438 2.656h4.289s2 0 2 2v8.875s0 2-2 2h-4.289s-2 0-2-2V4.656s0-2 2-2"></path><path id="vector 1" stroke="#3e3e3e" stroke-linecap="round" stroke-linejoin="round" d="M6 5.045h1.756m0 3.51H6"></path><path id="vector 2" stroke="#3e3e3e" stroke-linecap="round" stroke-linejoin="round" d="M6.878 5.045v3.51"></path><path id="vector 2_2" stroke="#3e3e3e" stroke-linecap="round" stroke-linejoin="round" d="M3.758 7.093h.878v.585a.878.878 0 0 1-.878.878h-.585a.878.878 0 0 1-.878-.878V5.923c0-.485.393-.878.878-.878h.585a.88.88 0 0 1 .828.585"></path><path id="vector 2_3" stroke="#3e3e3e" stroke-linecap="round" stroke-linejoin="round" d="M9.385 8.556v-3.51h2.34"></path><path id="vector 3" stroke="#3e3e3e" stroke-linecap="round" stroke-linejoin="round" d="M9.385 6.654h2.047"></path></g></svg>