<svg xmlns="http://www.w3.org/2000/svg" fill="none" viewBox="0 0 14 14" id="Give-Gift--Streamline-Core">
  <desc>
    Give Gift Streamline Icon: https://streamlinehq.com
  </desc>
  <g id="give-gift--reward-social-rating-media-queen-vip-gift">
    <path id="Vector" fill="#d7e0ff" d="M2.944 13.036 0.5 11V7.5h2.672a2 2 0 0 1 1.414 0.586L5.75 9.25A1.06 1.06 0 0 1 5.354 11h4.48c0.92 0 1.666 0.746 1.666 1.667 0 0.46 -0.373 0.833 -0.833 0.833l-6.443 0a2 2 0 0 1 -1.28 -0.464Z" stroke-width="1"></path>
    <path id="Vector_2" fill="#ffffff" d="M13.5 2.5h-7v5h7v-5Z" stroke-width="1"></path>
    <path id="Vector_3" stroke="#4147d5" stroke-linecap="round" stroke-linejoin="round" d="M13.5 2.5h-7v5h7v-5Z" stroke-width="1"></path>
    <path id="Vector_4" stroke="#4147d5" stroke-linecap="round" stroke-linejoin="round" d="M10 2.5v5" stroke-width="1"></path>
    <path id="Vector_5" stroke="#4147d5" stroke-linecap="round" stroke-linejoin="round" d="m8.5 0.5 1.5 2 1.5 -2" stroke-width="1"></path>
    <path id="Vector 294" stroke="#4147d5" stroke-linecap="round" stroke-linejoin="round" d="m0.5 11 2.444 2.036a2 2 0 0 0 1.28 0.463l6.442 0c0.46 0 0.834 -0.373 0.834 -0.833 0 -0.92 -0.746 -1.667 -1.667 -1.667H5.354" stroke-width="1"></path>
    <path id="Vector 295" stroke="#4147d5" stroke-linecap="round" stroke-linejoin="round" d="m3.5 10 0.75 0.75a1.06 1.06 0 0 0 1.5 -1.5L4.586 8.085A2 2 0 0 0 3.17 7.5H0.5" stroke-width="1"></path>
  </g>
</svg>