<svg xmlns="http://www.w3.org/2000/svg" fill="none" viewBox="0 0 14 14" id="Horizontal-Menu-Circle--Streamline-Core">
  <desc>
    Horizontal Menu Circle Streamline Icon: https://streamlinehq.com
  </desc>
  <g id="horizontal-menu-circle--navigation-dots-three-circle-button-horizontal-menu">
    <path id="Vector" fill="#d7e0ff" d="M7 13.5a6.5 6.5 0 1 0 0 -13 6.5 6.5 0 0 0 0 13Z" stroke-width="1"></path>
    <path id="Vector_2" stroke="#4147d5" stroke-linecap="round" stroke-linejoin="round" d="M7 13.5a6.5 6.5 0 1 0 0 -13 6.5 6.5 0 0 0 0 13Z" stroke-width="1"></path>
    <g id="Group 2606">
      <path id="Ellipse 1111" stroke="#4147d5" stroke-linecap="round" stroke-linejoin="round" d="M4 7.25a0.25 0.25 0 0 1 0 -0.5" stroke-width="1"></path>
      <path id="Ellipse 1112" stroke="#4147d5" stroke-linecap="round" stroke-linejoin="round" d="M4 7.25a0.25 0.25 0 0 0 0 -0.5" stroke-width="1"></path>
    </g>
    <g id="Group 2632">
      <path id="Ellipse 1111_2" stroke="#4147d5" stroke-linecap="round" stroke-linejoin="round" d="M7 7.25a0.25 0.25 0 0 1 0 -0.5" stroke-width="1"></path>
      <path id="Ellipse 1112_2" stroke="#4147d5" stroke-linecap="round" stroke-linejoin="round" d="M7 7.25a0.25 0.25 0 0 0 0 -0.5" stroke-width="1"></path>
    </g>
    <g id="Group 2633">
      <path id="Ellipse 1111_3" stroke="#4147d5" stroke-linecap="round" stroke-linejoin="round" d="M10 7.25a0.25 0.25 0 0 1 0 -0.5" stroke-width="1"></path>
      <path id="Ellipse 1112_3" stroke="#4147d5" stroke-linecap="round" stroke-linejoin="round" d="M10 7.25a0.25 0.25 0 1 0 0 -0.5" stroke-width="1"></path>
    </g>
  </g>
</svg>