<svg xmlns="http://www.w3.org/2000/svg" fill="none" viewBox="0 0 14 14"><g id="live-video"><g id="Vector 32"><path fill="#37d7ff" d="M5.014 8.764V5.236c0-.408.474-.666.86-.468l3.441 1.765a.515.515 0 0 1 0 .934l-3.44 1.765c-.387.198-.861-.06-.861-.468Z"></path></g><path id="Vector 33" stroke="#3e3e3e" stroke-linecap="round" stroke-linejoin="round" d="M5.014 8.764V5.236c0-.408.474-.666.86-.468l3.441 1.765a.515.515 0 0 1 0 .934l-3.44 1.765c-.387.198-.861-.06-.861-.468Z"></path><path id="Ellipse 300" stroke="#3e3e3e" stroke-linecap="round" stroke-linejoin="round" d="M.61 6.139a6.506 6.506 0 0 0 0 1.593"></path><path id="Ellipse 305" stroke="#3e3e3e" stroke-linecap="round" stroke-linejoin="round" d="M3.115 1.799a6.506 6.506 0 0 1 1.38-.797"></path><path id="Ellipse 303" stroke="#3e3e3e" stroke-linecap="round" stroke-linejoin="round" d="M1.068 4.43a6.503 6.503 0 0 1 .796-1.38"></path><path id="Ellipse 306" stroke="#3e3e3e" stroke-linecap="round" stroke-linejoin="round" d="M7.012.5c3.55 0 6.427 2.91 6.427 6.5s-2.877 6.5-6.427 6.5c-2.446 0-4.573-1.382-5.659-3.416"></path></g></svg>