<svg xmlns="http://www.w3.org/2000/svg" fill="none" viewBox="0 0 14 14" id="Lock-Rotation--Streamline-Core">
  <desc>
    Lock Rotation Streamline Icon: https://streamlinehq.com
  </desc>
  <g id="lock-rotation">
    <path id="Ellipse 1115" stroke="#4147d5" stroke-linecap="round" d="M13.326 8.5a6.5 6.5 0 1 1 -0.558 -4.5" stroke-width="1"></path>
    <path id="Vector" stroke="#4147d5" stroke-linecap="round" stroke-linejoin="round" d="M13.5 2v2.5H11" stroke-width="1"></path>
    <path id="Vector 2567" fill="#d7e0ff" d="M4.75 9.25v-2a0.5 0.5 0 0 1 0.5 -0.5h3.5a0.5 0.5 0 0 1 0.5 0.5v2a0.5 0.5 0 0 1 -0.5 0.5h-3.5a0.5 0.5 0 0 1 -0.5 -0.5Z" stroke-width="1"></path>
    <path id="Vector 2569" stroke="#4147d5" stroke-linejoin="round" d="M4.75 9.25v-2a0.5 0.5 0 0 1 0.5 -0.5h3.5a0.5 0.5 0 0 1 0.5 0.5v2a0.5 0.5 0 0 1 -0.5 0.5h-3.5a0.5 0.5 0 0 1 -0.5 -0.5Z" stroke-width="1"></path>
    <path id="Vector 2568" stroke="#4147d5" stroke-linecap="round" stroke-linejoin="round" d="M5.5 6.75v-1A1.5 1.5 0 0 1 7 4.25v0a1.5 1.5 0 0 1 1.5 1.5v1" stroke-width="1"></path>
  </g>
</svg>