<svg xmlns="http://www.w3.org/2000/svg" fill="none" viewBox="0 0 14 14"><g id="open-book--content-books-book-open"><g id="Vector"><path fill="#37d7ff" d="M1.39 10.55A9.26 9.26 0 0 1 7 13.5a9.26 9.26 0 0 1 5.61-2.95 1 1 0 0 0 .89-1V1.5a1 1 0 0 0-1.14-.99A9.3 9.3 0 0 0 7 3.43 9.3 9.3 0 0 0 1.64.51 1 1 0 0 0 .5 1.5v8.05a1 1 0 0 0 .89 1Z"></path></g><path id="Vector_2" stroke="#3e3e3e" stroke-linecap="round" stroke-linejoin="round" d="M7 13.5a9.26 9.26 0 0 0-5.61-2.95 1 1 0 0 1-.89-1V1.5A1 1 0 0 1 1.64.51 9.3 9.3 0 0 1 7 3.43V13.5Z"></path><path id="Vector_3" stroke="#3e3e3e" stroke-linecap="round" stroke-linejoin="round" d="M7 13.5a9.26 9.26 0 0 1 5.61-2.95 1 1 0 0 0 .89-1V1.5a1 1 0 0 0-1.14-.99A9.3 9.3 0 0 0 7 3.43V13.5Z"></path></g></svg>