<svg xmlns="http://www.w3.org/2000/svg" fill="none" viewBox="0 0 14 14" id="Peace-Hand--Streamline-Core">
  <desc>
    Peace Hand Streamline Icon: https://streamlinehq.com
  </desc>
  <g id="peace-hand">
    <path id="Vector" fill="#d7e0ff" d="M7.93851 6.03783c2.27159 0.44022 4.32399 1.21607 4.01409 3.10621 -0.1797 1.09646 -0.2788 2.92736 -1.7425 4.35616L3.88544 13.5c-1.97649 -0.7882 -2.28521 -2.7896 -2.19496 -4.18745 0.05673 -0.87873 0.85468 -1.49077 1.73525 -1.49077l0.02359 -0.00202 -1.45063 -5.44085c-0.17812 -0.66808 0.22157 -1.33685 0.89442 -1.49654 0.67394 -0.159952 1.36803 0.25102 1.55192 0.9189l1.04299 3.78812 0.47347 -3.98474c0.06705 -0.57438 0.55366 -1.007491 1.13194 -1.007482 0.66031 0.00001 1.1824 0.559432 1.13688 1.218172l-0.2918 4.22249Z" stroke-width="1"></path>
    <path id="Vector 107" stroke="#4147d5" stroke-linecap="round" stroke-linejoin="round" d="M10.2102 13.5002c1.4636 -1.4288 1.5627 -3.2597 1.7424 -4.35616 0.3099 -1.89014 -1.7425 -2.66599 -4.01406 -3.10621l0.2918 -4.22249C8.27586 1.1566 7.75378 0.597178 7.09346 0.597168 6.51518 0.597159 6.02857 1.03027 5.96152 1.60465l-0.47347 3.98474 -1.04299 -3.78812c-0.18389 -0.66788 -0.87798 -1.078852 -1.55192 -0.9189 -0.67285 0.15969 -1.07254 0.82846 -0.89442 1.49654l1.45063 5.44085" stroke-width="1"></path>
    <path id="Vector 536" stroke="#4147d5" stroke-linecap="round" stroke-linejoin="round" d="M3.88544 13.5c-1.97649 -0.7882 -2.28521 -2.7896 -2.19496 -4.18745 0.05673 -0.87873 0.85468 -1.49077 1.73525 -1.49077l3.19167 0c0.57606 0 1.04305 0.46699 1.04305 1.04305 0 0.48238 -0.33077 0.90183 -0.79985 1.0143l-1.80671 0.43317c0.56925 -0.0932 1.86953 0.4812 1.91747 1.7345" stroke-width="1"></path>
  </g>
</svg>