<svg xmlns="http://www.w3.org/2000/svg" fill="none" viewBox="0 0 14 14" id="Pictures-Folder-Memories--Streamline-Core">
  <desc>
    Pictures Folder Memories Streamline Icon: https://streamlinehq.com
  </desc>
  <g id="pictures-folder-memories">
    <path id="vector" fill="#d7e0ff" d="M0.5 12.25V1.75a1 1 0 0 1 1 -1h3.69a1 1 0 0 1 1 0.76l0.31 1.24h6a1 1 0 0 1 1 1v8.5a1 1 0 0 1 -1 1h-11a1 1 0 0 1 -1 -1Z" stroke-width="1"></path>
    <path id="vector_2" fill="#ffffff" d="M9.86 7.879a1.5 1.5 0 1 1 0 -3 1.5 1.5 0 0 1 0 3Z" stroke-width="1"></path>
    <path id="vector_3" stroke="#4147d5" stroke-linecap="round" stroke-linejoin="round" d="M9.86 7.879a1.5 1.5 0 1 1 0 -3 1.5 1.5 0 0 1 0 3Z" stroke-width="1"></path>
    <path id="Intersect" fill="#ffffff" fill-rule="evenodd" d="M10.902 13.25H1.5a1 1 0 0 1 -0.983 -0.818V10.95l4.096 -2.946a0.538 0.538 0 0 1 0.688 0l5.601 5.247Z" clip-rule="evenodd" stroke-width="1"></path>
    <path id="Intersect_2" stroke="#4147d5" stroke-linecap="round" stroke-linejoin="round" d="M10.903 13.25H1.501a1 1 0 0 1 -0.983 -0.818V10.95l4.096 -2.946a0.538 0.538 0 0 1 0.688 0l5.601 5.248Z" stroke-width="1"></path>
    <path id="vector_4" stroke="#4147d5" stroke-linecap="round" stroke-linejoin="round" d="M0.5 12.25V1.75a1 1 0 0 1 1 -1h3.69a1 1 0 0 1 1 0.76l0.31 1.24h6a1 1 0 0 1 1 1v8.5a1 1 0 0 1 -1 1h-11a1 1 0 0 1 -1 -1Z" stroke-width="1"></path>
  </g>
</svg>