<svg xmlns="http://www.w3.org/2000/svg" fill="none" viewBox="0 0 14 14" id="Share-Link--Streamline-Core">
  <desc>
    Share Link Streamline Icon: https://streamlinehq.com
  </desc>
  <g id="share-link--share-transmit">
    <path id="Vector" stroke="#4147d5" stroke-linecap="round" stroke-linejoin="round" d="m4.76 6 4.48 -2.25" stroke-width="1"></path>
    <path id="Vector_2" stroke="#4147d5" stroke-linecap="round" stroke-linejoin="round" d="m4.76 8 4.48 2.25" stroke-width="1"></path>
    <path id="Vector_3" fill="#d7e0ff" d="M2.75 9.25a2.25 2.25 0 1 0 0 -4.5 2.25 2.25 0 0 0 0 4.5Z" stroke-width="1"></path>
    <path id="Vector_4" fill="#d7e0ff" d="M11.25 13.5a2.25 2.25 0 1 0 0 -4.5 2.25 2.25 0 0 0 0 4.5Z" stroke-width="1"></path>
    <path id="Vector_5" fill="#d7e0ff" d="M11.25 5a2.25 2.25 0 1 0 0 -4.5 2.25 2.25 0 0 0 0 4.5Z" stroke-width="1"></path>
    <path id="Vector_6" stroke="#4147d5" stroke-linecap="round" stroke-linejoin="round" d="M2.75 9.25a2.25 2.25 0 1 0 0 -4.5 2.25 2.25 0 0 0 0 4.5Z" stroke-width="1"></path>
    <path id="Vector_7" stroke="#4147d5" stroke-linecap="round" stroke-linejoin="round" d="M11.25 13.5a2.25 2.25 0 1 0 0 -4.5 2.25 2.25 0 0 0 0 4.5Z" stroke-width="1"></path>
    <path id="Vector_8" stroke="#4147d5" stroke-linecap="round" stroke-linejoin="round" d="M11.25 5a2.25 2.25 0 1 0 0 -4.5 2.25 2.25 0 0 0 0 4.5Z" stroke-width="1"></path>
  </g>
</svg>