<svg xmlns="http://www.w3.org/2000/svg" fill="none" viewBox="0 0 14 14" id="Trending-Content--Streamline-Core">
  <desc>
    Trending Content Streamline Icon: https://streamlinehq.com
  </desc>
  <g id="trending-content--lit-flame-torch-trending">
    <path id="Vector" fill="#d7e0ff" d="M6.15 0.555a0.389 0.389 0 0 0 -0.399 0 0.26 0.26 0 0 0 -0.06 0.34c1.227 2.123 1.486 5.016 -0.19 6.611a5.505 5.505 0 0 1 -1.495 -1.994 3.88 3.88 0 0 0 -1.995 3.49 4.688 4.688 0 0 0 4.987 4.488c3.211 0 4.877 -1.994 4.986 -4.488C12.114 6.01 9.99 2.33 6.15 0.555Z" stroke-width="1"></path>
    <path id="Vector_2" stroke="#4147d5" stroke-linecap="round" stroke-linejoin="round" d="M6.15 0.555a0.389 0.389 0 0 0 -0.399 0 0.26 0.26 0 0 0 -0.06 0.34c1.227 2.123 1.486 5.016 -0.19 6.611a5.505 5.505 0 0 1 -1.495 -1.994 3.88 3.88 0 0 0 -1.995 3.49 4.688 4.688 0 0 0 4.987 4.488c3.211 0 4.877 -1.994 4.986 -4.488C12.114 6.01 9.99 2.33 6.15 0.555Z" stroke-width="1"></path>
  </g>
</svg>