<svg xmlns="http://www.w3.org/2000/svg" fill="none" viewBox="0 0 14 14"><g id="upload-computer--action-actions-computer-desktop-device-display-monitor-screen-upload"><path id="Vector" fill="#ffffff" d="M13.5 2.5A.5.5 0 0 0 13 2H1a.5.5 0 0 0-.5.5v8a.5.5 0 0 0 .5.5h12a.5.5 0 0 0 .5-.5v-8Z"></path><path id="Vector_2" fill="#37d7ff" d="M5 13.5 6 11h2l1 2.5H5Z"></path><path id="Vector_3" stroke="#3e3e3e" stroke-linecap="round" stroke-linejoin="round" d="M5 13.5 6 11h2l1 2.5H5Z"></path><path id="Vector_4" stroke="#3e3e3e" stroke-linecap="round" stroke-linejoin="round" d="M11 2h2a.5.5 0 0 1 .5.5v8a.5.5 0 0 1-.5.5H1a.5.5 0 0 1-.5-.5v-8A.5.5 0 0 1 1 2h2"></path><path id="Vector_5" stroke="#3e3e3e" stroke-linecap="round" stroke-linejoin="round" d="M4 13.5h6"></path><path id="Vector_6" stroke="#3e3e3e" stroke-linecap="round" stroke-linejoin="round" d="M7 6.5v-6"></path><path id="Vector_7" stroke="#3e3e3e" stroke-linecap="round" stroke-linejoin="round" d="m5 2.5 2-2 2 2"></path></g></svg>