<svg xmlns="http://www.w3.org/2000/svg" fill="none" viewBox="0 0 14 14" id="Cloud-Check--Streamline-Core">
  <desc>
    Cloud Check Streamline Icon: https://streamlinehq.com
  </desc>
  <g id="cloud-check--cloud-network-internet-check-server-approve">
    <path id="Vector" stroke="#000000" stroke-linecap="round" stroke-linejoin="round" d="M9.80296 8.5498 6.597 12.1565l-1.60298 -1.2022" stroke-width="1"></path>
    <path id="Vector_2" stroke="#000000" stroke-linecap="round" stroke-linejoin="round" d="M10.7729 10.9929c0.6681 -0.004 1.3116 -0.2529 1.8086 -0.6995 0.4969 -0.44657 0.8129 -1.05989 0.8881 -1.7238 0.0751 -0.66392 -0.0958 -1.33234 -0.4804 -1.8787s-0.9562 -0.93273 -1.6066 -1.08595c-0.0449 -0.01341 -0.085 -0.03938 -0.1157 -0.07486 -0.0306 -0.03548 -0.0505 -0.07898 -0.0572 -0.12537 -0.0804 -0.88109 -0.4604 -1.70799 -1.0767 -2.3428 -0.61625 -0.63481 -1.43152 -1.03916 -2.30984 -1.14562 -0.87832 -0.10647 -1.76659 0.09139 -2.51669 0.56059 -0.75009 0.46919 -1.31667 1.18134 -1.60524 2.01771 -0.01909 0.039 -0.04895 0.07172 -0.08604 0.0943 -0.0371 0.02257 -0.07987 0.03407 -0.12329 0.03312 -0.41831 0.02808 -0.827 0.13829 -1.20272 0.32432 -0.37573 0.18603 -0.71113 0.44424 -0.98706 0.7599 -0.557277 0.63749 -0.838482 1.47025 -0.781758 2.31507 0.056724 0.84483 0.44673 1.63252 1.084218 2.18979 0.46393 0.4055 1.03126 0.6649 1.63141 0.7542" stroke-width="1"></path>
  </g>
</svg>