<svg xmlns="http://www.w3.org/2000/svg" fill="none" viewBox="0 0 14 14" id="Markdown-Document-Programming--Streamline-Core">
  <desc>
    Markdown Document Programming Streamline Icon: https://streamlinehq.com
  </desc>
  <g id="markdown-document-programming">
    <path id="Vector" stroke="#000000" stroke-linecap="round" stroke-linejoin="round" d="M12.5 12.5c0 0.2652 -0.1054 0.5196 -0.2929 0.7071s-0.4419 0.2929 -0.7071 0.2929h-9c-0.26522 0 -0.51957 -0.1054 -0.70711 -0.2929C1.60536 13.0196 1.5 12.7652 1.5 12.5v-11c0 -0.26522 0.10536 -0.51957 0.29289 -0.707107C1.98043 0.605357 2.23478 0.5 2.5 0.5h6l4 4v8Z" stroke-width="1"></path>
    <path id="Vector 1" stroke="#000000" stroke-linecap="round" stroke-linejoin="round" d="M3.5 10.5V6.74292c0 -0.13416 0.10876 -0.24292 0.24292 -0.24292v0c0.0956 0 0.18231 0.05607 0.22153 0.14325l0.75334 1.67435c0.04994 0.11101 0.16035 0.1824 0.28208 0.1824v0c0.12171 0 0.23211 -0.07138 0.28206 -0.18237l0.75358 -1.6744c0.03924 -0.08717 0.12594 -0.14323 0.22153 -0.14323v0c0.13417 0 0.24294 0.10876 0.24294 0.24293V10.5" stroke-width="1"></path>
    <path id="Vector_2" stroke="#000000" stroke-linecap="round" stroke-linejoin="round" d="M9.5 6.5v3.9999" stroke-width="1"></path>
    <path id="Vector_3" stroke="#000000" stroke-linecap="round" stroke-linejoin="round" d="m8.5 9.5 1 1 1 -1" stroke-width="1"></path>
  </g>
</svg>