<svg xmlns="http://www.w3.org/2000/svg" fill="none" viewBox="0 0 14 14"><g id="markdown-circle-programming"><path id="Ellipse 16" stroke="#3e3e3e" stroke-linecap="round" stroke-linejoin="round" d="M.5 7a6.5 6.5 0 1 0 13 0 6.5 6.5 0 1 0-13 0"></path><path id="Vector 1" stroke="#3e3e3e" stroke-linecap="round" stroke-linejoin="round" d="M3.5 9V5.243c0-.134.109-.243.243-.243v0c.096 0 .182.056.221.143l.754 1.675A.31.31 0 0 0 5 7v0a.31.31 0 0 0 .282-.182l.754-1.675A.243.243 0 0 1 6.257 5v0c.134 0 .243.109.243.243V9"></path><path id="Vector" stroke="#3e3e3e" stroke-linecap="round" stroke-linejoin="round" d="M9.5 5v4"></path><path id="Vector_2" stroke="#3e3e3e" stroke-linecap="round" stroke-linejoin="round" d="m8.5 8 1 1 1-1"></path></g></svg>