<svg xmlns="http://www.w3.org/2000/svg" fill="none" viewBox="0 0 14 14" id="Rss-Square--Streamline-Core">
  <desc>
    Rss Square Streamline Icon: https://streamlinehq.com
  </desc>
  <g id="rss-square--wireless-rss-feed-square-transmit-broadcast">
    <path id="Vector" stroke="#000000" stroke-linecap="round" stroke-linejoin="round" d="M12.5 0.5h-11c-0.552285 0 -1 0.447715 -1 1v11c0 0.5523 0.447715 1 1 1h11c0.5523 0 1 -0.4477 1 -1v-11c0 -0.552285 -0.4477 -1 -1 -1Z" stroke-width="1"></path>
    <path id="Vector_2" stroke="#000000" stroke-linecap="round" stroke-linejoin="round" d="M4 10.5c0.27614 0 0.5 -0.2239 0.5 -0.5 0 -0.27614 -0.22386 -0.5 -0.5 -0.5s-0.5 0.22386 -0.5 0.5c0 0.2761 0.22386 0.5 0.5 0.5Z" stroke-width="1"></path>
    <path id="Vector_3" stroke="#000000" stroke-linecap="round" stroke-linejoin="round" d="M4.5 6.5c0.79565 0 1.55871 0.31607 2.12132 0.87868C7.18393 7.94129 7.5 8.70435 7.5 9.5" stroke-width="1"></path>
    <path id="Vector_4" stroke="#000000" stroke-linecap="round" stroke-linejoin="round" d="M4.5 3.5c1.5913 0 3.11742 0.63214 4.24264 1.75736C9.86786 6.38258 10.5 7.9087 10.5 9.5" stroke-width="1"></path>
  </g>
</svg>