<svg xmlns="http://www.w3.org/2000/svg" fill="none" viewBox="0 0 24 24" id="Single-Neutral-Monitor--Streamline-Ultimate">
  <desc>
    Single Neutral Monitor Streamline Icon: https://streamlinehq.com
  </desc>
  <path fill="#c2f3ff" d="M22 2H2c-0.26522 0 -0.51957 0.10536 -0.70711 0.29289C1.10536 2.48043 1 2.73478 1 3v14c0 0.2652 0.10536 0.5196 0.29289 0.7071C1.48043 17.8946 1.73478 18 2 18h20c0.2652 0 0.5196 -0.1054 0.7071 -0.2929S23 17.2652 23 17V3c0 -0.26522 -0.1054 -0.51957 -0.2929 -0.70711C22.5196 2.10536 22.2652 2 22 2Z" stroke-width="1"></path>
  <path fill="#66e1ff" d="M21.9998 2h-1.74L4.25977 18H21.9998c0.2652 0 0.5195 -0.1054 0.7071 -0.2929 0.1875 -0.1875 0.2929 -0.4419 0.2929 -0.7071V3c0 -0.26522 -0.1054 -0.51957 -0.2929 -0.70711C22.5193 2.10536 22.265 2 21.9998 2Z" stroke-width="1"></path>
  <path stroke="#191919" stroke-linecap="round" stroke-linejoin="round" d="M22 2H2c-0.26522 0 -0.51957 0.10536 -0.70711 0.29289C1.10536 2.48043 1 2.73478 1 3v14c0 0.2652 0.10536 0.5196 0.29289 0.7071C1.48043 17.8946 1.73478 18 2 18h20c0.2652 0 0.5196 -0.1054 0.7071 -0.2929S23 17.2652 23 17V3c0 -0.26522 -0.1054 -0.51957 -0.2929 -0.70711C22.5196 2.10536 22.2652 2 22 2Z" stroke-width="1"></path>
  <path fill="#ffdda1" d="M11.9375 10.5c0.862 0 1.6886 -0.3424 2.2981 -0.95193 0.6095 -0.6095 0.9519 -1.43615 0.9519 -2.2981 0 -0.86195 -0.3424 -1.6886 -0.9519 -2.2981 -0.6095 -0.60949 -1.4361 -0.9519 -2.2981 -0.9519 -0.862 0 -1.6886 0.34241 -2.2981 0.9519 -0.60949 0.6095 -0.9519 1.43615 -0.9519 2.2981 0 0.86195 0.34241 1.6886 0.9519 2.2981 0.6095 0.60953 1.4361 0.95193 2.2981 0.95193Z" stroke-width="1"></path>
  <path fill="#e3e3e3" d="M16.9932 15.5c-0.3731 -1.0265 -1.0531 -1.9133 -1.9476 -2.54 -0.8945 -0.6266 -1.9603 -0.9628 -3.0524 -0.9628 -1.0922 0 -2.15794 0.3362 -3.05246 0.9628 -0.89453 0.6267 -1.5745 1.5135 -1.94758 2.54" stroke-width="1"></path>
  <path stroke="#191919" stroke-linecap="round" stroke-linejoin="round" d="M11.999 18v4" stroke-width="1"></path>
  <path stroke="#191919" stroke-linecap="round" stroke-linejoin="round" d="M4.49902 22H19.499" stroke-width="1"></path>
  <path fill="#ffdda1" d="M11.9375 5.93299c0.6909 0.00139 1.3633 0.22384 1.9188 0.6348 0.5554 0.41096 0.9648 0.98887 1.1682 1.6492 0.1607 -0.48818 0.2034 -1.00751 0.1245 -1.51537 -0.079 -0.50786 -0.2772 -0.98976 -0.5785 -1.40615 -0.3013 -0.41638 -0.697 -0.75537 -1.1547 -0.98915 -0.4577 -0.23378 -0.9643 -0.35567 -1.4783 -0.35567 -0.514 0 -1.0206 0.12189 -1.4783 0.35567s-0.85343 0.57277 -1.15472 0.98915c-0.30128 0.41639 -0.49952 0.89829 -0.57844 1.40615 -0.07891 0.50786 -0.03626 1.02719 0.12446 1.51537 0.20342 -0.66033 0.61279 -1.23824 1.1682 -1.6492 0.5555 -0.41096 1.2279 -0.63341 1.9188 -0.6348Z" stroke-width="1"></path>
  <path fill="#ffffff" d="M11.9981 13.933c0.6961 0.0007 1.3851 0.1396 2.0271 0.4086 0.642 0.269 1.2242 0.6627 1.7129 1.1584h1.256c-0.373 -1.0265 -1.053 -1.9133 -1.9475 -2.54 -0.8946 -0.6266 -1.9603 -0.9628 -3.0525 -0.9628 -1.0921 0 -2.15786 0.3362 -3.05239 0.9628 -0.89452 0.6267 -1.57449 1.5135 -1.94757 2.54h1.26c0.48965 -0.4955 1.07261 -0.8891 1.71523 -1.1581 0.64263 -0.269 1.33213 -0.4079 2.02873 -0.4089Z" stroke-width="1"></path>
  <path stroke="#191919" stroke-linecap="round" stroke-linejoin="round" d="M11.9375 10.5c0.862 0 1.6886 -0.3424 2.2981 -0.95193 0.6095 -0.6095 0.9519 -1.43615 0.9519 -2.2981 0 -0.86195 -0.3424 -1.6886 -0.9519 -2.2981 -0.6095 -0.60949 -1.4361 -0.9519 -2.2981 -0.9519 -0.862 0 -1.6886 0.34241 -2.2981 0.9519 -0.60949 0.6095 -0.9519 1.43615 -0.9519 2.2981 0 0.86195 0.34241 1.6886 0.9519 2.2981 0.6095 0.60953 1.4361 0.95193 2.2981 0.95193Z" stroke-width="1"></path>
  <path stroke="#191919" stroke-linecap="round" stroke-linejoin="round" d="M16.9932 15.5c-0.3731 -1.0265 -1.0531 -1.9133 -1.9476 -2.54 -0.8945 -0.6266 -1.9603 -0.9628 -3.0524 -0.9628 -1.0922 0 -2.15794 0.3362 -3.05246 0.9628 -0.89453 0.6267 -1.5745 1.5135 -1.94758 2.54" stroke-width="1"></path>
</svg>