<svg xmlns="http://www.w3.org/2000/svg" viewBox="0 0 24 24" id="Arrow-Button-Right-1--Streamline-Ultimate">
  <desc>
    Arrow Button Right 1 Streamline Icon: https://streamlinehq.com
  </desc>
  <g id="Arrow-Button-Right-1--Streamline-Ultimate.svg">
    <path d="M13.58 12a2.64 2.64 0 0 1 -0.77 1.88l-9.54 9.54a1.77 1.77 0 0 1 -2.5 -2.5l8.74 -8.74a0.27 0.27 0 0 0 0 -0.36L0.77 3.08a1.77 1.77 0 0 1 2.5 -2.5l9.54 9.54a2.64 2.64 0 0 1 0.77 1.88Z" fill="#000000" stroke-width="1"></path>
    <path d="M23.75 12a2.65 2.65 0 0 1 -0.75 1.88l-9.54 9.54a1.77 1.77 0 0 1 -2.5 -2.5l8.74 -8.74a0.25 0.25 0 0 0 0 -0.36l-8.77 -8.74a1.77 1.77 0 0 1 2.5 -2.5L23 10.12a2.65 2.65 0 0 1 0.75 1.88Z" fill="#000000" stroke-width="1"></path>
  </g>
</svg>