<svg xmlns="http://www.w3.org/2000/svg" viewBox="0 0 24 24" id="Arrow-Thick-Left-3--Streamline-Ultimate">
  <desc>
    Arrow Thick Left 3 Streamline Icon: https://streamlinehq.com
  </desc>
  <path d="M22.91 9H11.55a0.25 0.25 0 0 1 -0.23 -0.15 0.23 0.23 0 0 1 0 -0.26l4.23 -4.94a1 1 0 0 0 0.15 -1.07 1 1 0 0 0 -0.87 -0.58H9.14a1 1 0 0 0 -0.75 0.33l-8 9a1 1 0 0 0 0 1.34l8.05 9a1 1 0 0 0 0.75 0.33h5.69a1 1 0 0 0 0.91 -0.58 1 1 0 0 0 -0.15 -1.07l-4.23 -4.94a0.23 0.23 0 0 1 0 -0.26 0.25 0.25 0 0 1 0.23 -0.15h11.27a1 1 0 0 0 1 -1v-4a1 1 0 0 0 -1 -1Z" fill="#000000" stroke-width="1"></path>
</svg>