<svg xmlns="http://www.w3.org/2000/svg" viewBox="0 0 24 24" id="Arrow-Thick-Up-4--Streamline-Ultimate">
  <desc>
    Arrow Thick Up 4 Streamline Icon: https://streamlinehq.com
  </desc>
  <path d="M22.5 0h-21A1.5 1.5 0 0 0 0 1.5v21A1.5 1.5 0 0 0 1.5 24h21a1.5 1.5 0 0 0 1.5 -1.5v-21A1.5 1.5 0 0 0 22.5 0Zm-4.66 13a0.51 0.51 0 0 1 -0.86 0.36l-2.72 -2.73a0.25 0.25 0 0 0 -0.27 -0.05 0.26 0.26 0 0 0 -0.16 0.23v7.9a0.5 0.5 0 0 1 -0.5 0.5h-2a0.51 0.51 0 0 1 -0.5 -0.5v-7.9a0.25 0.25 0 0 0 -0.15 -0.23 0.23 0.23 0 0 0 -0.27 0.06L7.69 13.3a0.49 0.49 0 0 1 -0.85 -0.3V9.88A0.51 0.51 0 0 1 7 9.51L12 5a0.5 0.5 0 0 1 0.67 0l5 4.55a0.48 0.48 0 0 1 0.17 0.37Z" fill="#000000" stroke-width="1"></path>
</svg>