<svg xmlns="http://www.w3.org/2000/svg" viewBox="0 0 24 24" id="Diagram-Split-Horizontal--Streamline-Ultimate">
  <desc>
    Diagram Split Horizontal Streamline Icon: https://streamlinehq.com
  </desc>
  <path d="M18.24 6.06a4.51 4.51 0 0 1 -4.5 4.5H1.44a1.44 1.44 0 0 0 0 2.88h12.3a4.51 4.51 0 0 1 4.5 4.5 0.25 0.25 0 0 1 -0.25 0.25H16.8a1.44 1.44 0 0 0 -1 2.46l2.88 2.88a1.45 1.45 0 0 0 2 0l2.88 -2.88a1.44 1.44 0 0 0 -1 -2.46h-1.19a0.25 0.25 0 0 1 -0.25 -0.25 7.36 7.36 0 0 0 -2.77 -5.75 0.22 0.22 0 0 1 -0.09 -0.19 0.25 0.25 0 0 1 0.09 -0.19 7.36 7.36 0 0 0 2.77 -5.75V6a0.25 0.25 0 0 1 0.25 -0.25h1.19a1.44 1.44 0 0 0 1 -2.46L20.7 0.42a1.46 1.46 0 0 0 -1 -0.42 1.47 1.47 0 0 0 -1 0.42L15.78 3.3a1.44 1.44 0 0 0 1 2.46H18a0.25 0.25 0 0 1 0.25 0.25Z" fill="#000000" stroke-width="1"></path>
</svg>