<svg xmlns="http://www.w3.org/2000/svg" fill="none" viewBox="0 0 24 24" id="Diagram-Dash-Circle-Large-Head--Streamline-Ultimate">
  <desc>
    Diagram Dash Circle Large Head Streamline Icon: https://streamlinehq.com
  </desc>
  <path fill="#000000" fill-rule="evenodd" d="M17.1121 2.47463c-0.6566 -0.21315 -1.3617 0.14636 -1.5749 0.80298 -0.2131 0.65663 0.1464 1.36172 0.803 1.57487 0.5784 0.18774 1.1303 0.45035 1.6416 0.78157 0.5794 0.37534 1.3534 0.20991 1.7287 -0.36949 0.3753 -0.57941 0.2099 -1.35338 -0.3695 -1.72872 -0.6942 -0.44974 -1.4436 -0.8063 -2.2289 -1.06121Zm-10.61734 0.379c-0.39052 -0.39052 -1.02369 -0.39052 -1.41421 0L0.45967 7.47451c-0.285998 0.286 -0.3715532 0.71611 -0.216772 1.08979 0.154781 0.37367 0.519417 0.61732 0.923882 0.61732h3.37085v1.48278c0 0.6903 0.55964 1.25 1.25 1.25 0.69035 0 1.25 -0.5597 1.25 -1.25V9.18162h3.37087c0.4045 0 0.7691 -0.24365 0.9239 -0.61732 0.1548 -0.37368 0.0692 -0.80379 -0.2168 -1.08979L6.49476 2.85363ZM20.4178 5.9524c0.5696 -0.39006 1.3476 -0.24453 1.7377 0.32507 0.4503 0.65759 0.8158 1.37047 1.087 2.12177 0.2344 0.64934 -0.102 1.36577 -0.7513 1.60018 -0.6494 0.23438 -1.3658 -0.10196 -1.6002 -0.7513 -0.1992 -0.55171 -0.4675 -1.0752 -0.7982 -1.5581 -0.3901 -0.56959 -0.2446 -1.34755 0.325 -1.73762Zm3.4132 6.4027c0.0416 -0.6891 -0.4833 -1.2814 -1.1724 -1.323 -0.6891 -0.0415 -1.2815 0.4834 -1.323 1.1725 -0.0347 0.5754 -0.1335 1.1457 -0.2948 1.7003 -0.1927 0.6629 0.1884 1.3565 0.8513 1.5493 0.6629 0.1928 1.3565 -0.1883 1.5493 -0.8512 0.2132 -0.7332 0.3437 -1.4872 0.3896 -2.2479Zm-2.4416 3.9805c0.5305 0.4418 0.6023 1.23 0.1605 1.7604 -0.5048 0.6061 -1.0855 1.1461 -1.7284 1.6063 -0.5614 0.4018 -1.3422 0.2725 -1.744 -0.2889 -0.4019 -0.5613 -0.2725 -1.3422 0.2888 -1.744 0.4697 -0.3361 0.8939 -0.7306 1.2626 -1.1733 0.4419 -0.5305 1.23 -0.6024 1.7605 -0.1605Zm-5.0512 4.9813c0.6722 -0.1573 1.0897 -0.8297 0.9324 -1.5019 -0.1573 -0.6722 -0.8297 -1.0897 -1.5019 -0.9324 -0.6027 0.141 -1.2206 0.2096 -1.8405 0.2039 -0.6903 -0.0064 -1.2551 0.548 -1.2615 1.2383 -0.0064 0.6904 0.5481 1.2552 1.2384 1.2615 0.8195 0.0076 1.6364 -0.083 2.4331 -0.2694Zm-8.52347 -3.564c0.42839 -0.5413 1.21453 -0.6329 1.75589 -0.2045 0.49388 0.3908 1.03838 0.7121 1.61818 0.9552 0.6367 0.267 0.9363 0.9996 0.6693 1.6362s-0.9996 0.9363 -1.6362 0.6693c-0.78923 -0.331 -1.53036 -0.7683 -2.20262 -1.3003 -0.54136 -0.4284 -0.63294 -1.2145 -0.20455 -1.7559Zm-0.8146 -4.0694c-0.17388 -0.6681 -0.85644 -1.0687 -1.52454 -0.8948 -0.6681 0.1739 -1.06874 0.8564 -0.89486 1.5245 0.21541 0.8277 0.54182 1.6216 0.96978 2.3603 0.34605 0.5974 1.11084 0.8011 1.7082 0.4551 0.59736 -0.3461 0.80108 -1.1109 0.45503 -1.7082 -0.31491 -0.5436 -0.5551 -1.1278 -0.71361 -1.7369Z" clip-rule="evenodd" stroke-width="1"></path>
</svg>