<svg xmlns="http://www.w3.org/2000/svg" fill="none" viewBox="0 0 14 14" id="Ai-Edit-Spark--Streamline-Core-Neon">
  <desc>
    Ai Edit Spark Streamline Icon: https://streamlinehq.com
  </desc>
  <g id="ai-edit-spark--change-edit-modify-pencil-write-writing-artificial-intelligence-ai">
    <path id="Vector" stroke="#c71dff" stroke-linecap="round" stroke-linejoin="round" d="m7.00421 13.24 -3 0.26 0.26 -3 6.23999 -6.19998c0.0931 -0.09525 0.2044 -0.17092 0.3271 -0.22259 0.1228 -0.05167 0.2547 -0.07828 0.3879 -0.07828 0.1332 0 0.2651 0.02661 0.3879 0.07828 0.1228 0.05167 0.234 0.12734 0.3271 0.22259l1.27 1.28c0.0937 0.09296 0.1681 0.20357 0.2189 0.32542 0.0508 0.12186 0.0769 0.25257 0.0769 0.38458 0 0.13201 -0.0261 0.26272 -0.0769 0.38458 -0.0508 0.12186 -0.1252 0.23246 -0.2189 0.32542L7.00421 13.24Z" stroke-width="1"></path>
    <path id="Vector 2137" stroke="#000cfe" stroke-linecap="round" stroke-linejoin="round" d="M0.759165 3.93834c-0.345553 -0.06113 -0.345553 -0.56555 -0.000001 -0.62668C2.01104 3.0902 3.00674 2.12059 3.27846 0.858379l0.02083 -0.096753c0.07476 -0.347276 0.56104 -0.349438 0.63878 -0.002839l0.02529 0.112754C4.24514 2.1278 5.24111 3.08921 6.48951 3.31006c0.34732 0.06144 0.34732 0.56844 0 0.62988 -1.2484 0.22085 -2.24437 1.18226 -2.52615 2.43852l-0.02529 0.11275c-0.07774 0.3466 -0.56402 0.34444 -0.63878 -0.00284l-0.02083 -0.09675C3.00674 5.12941 2.01104 4.1598 0.759165 3.93834Z" stroke-width="1"></path>
  </g>
</svg>