<svg xmlns="http://www.w3.org/2000/svg" fill="none" viewBox="0 0 14 14" id="Ai-Gaming-Spark--Streamline-Core-Neon">
  <desc>
    Ai Gaming Spark Streamline Icon: https://streamlinehq.com
  </desc>
  <g id="ai-gaming-spark--remote-control-controller-technology-artificial-intelligence-ai">
    <path id="Vector 693" stroke="#000cfe" stroke-linecap="round" stroke-linejoin="round" d="M4.07022 7.06262v2.3109" stroke-width="1"></path>
    <path id="Vector 694" stroke="#000cfe" stroke-linecap="round" stroke-linejoin="round" d="m5.22574 8.21814 -2.3109 0" stroke-width="1"></path>
    <path id="Vector 2430" stroke="#c71dff" stroke-linecap="round" stroke-linejoin="round" d="m5.32508 4.58655 -1.417 0c-1.52865 0 -2.81284 1.14941 -2.981654 2.6687L0.514234 10.965C0.363976 12.3173 1.42254 13.5 2.78318 13.5c0.86471 0 1.6552 -0.4885 2.0419 -1.262l0.35941 -0.7188h2.97115l0.3594 0.7188c0.38671 0.7735 1.1772 1.262 2.04186 1.262 1.3607 0 2.4193 -1.1827 2.269 -2.535l-0.4122 -3.70975" stroke-width="1"></path>
    <path id="Vector 2137" stroke="#000cfe" stroke-linecap="round" stroke-linejoin="round" d="M7.50916 3.93834c-0.34555 -0.06113 -0.34555 -0.56555 0 -0.62668C8.76104 3.0902 9.75674 2.12059 10.0285 0.858379l0.0208 -0.096753c0.0748 -0.347276 0.561 -0.349438 0.6388 -0.002839l0.0253 0.112754c0.2817 1.256259 1.2777 2.217669 2.5261 2.438519 0.3473 0.06144 0.3473 0.56844 0 0.62988 -1.2484 0.22085 -2.2444 1.18226 -2.5261 2.43852l-0.0253 0.11275c-0.0778 0.3466 -0.564 0.34444 -0.6388 -0.00284l-0.0208 -0.09675C9.75674 5.12941 8.76104 4.1598 7.50916 3.93834Z" stroke-width="1"></path>
  </g>
</svg>