<svg xmlns="http://www.w3.org/2000/svg" fill="none" viewBox="0 0 14 14" id="Ai-Technology-Spark--Streamline-Core-Neon">
  <desc>
    Ai Technology Spark Streamline Icon: https://streamlinehq.com
  </desc>
  <g id="ai-technology-spark--lightbulb-idea-bright-lighting-artificial-intelligence-ai">
    <path id="Vector" stroke="#000cfe" stroke-linecap="round" stroke-linejoin="round" d="M2.99988 13.5h4" stroke-width="1"></path>
    <path id="Vector 2137" stroke="#000cfe" stroke-linecap="round" stroke-linejoin="round" d="M7.50916 3.93834c-0.34555 -0.06113 -0.34555 -0.56555 0 -0.62668C8.76104 3.0902 9.75674 2.12059 10.0285 0.858379l0.0208 -0.096753c0.0748 -0.347276 0.561 -0.349438 0.6388 -0.002839l0.0253 0.112754c0.2817 1.256259 1.2777 2.217669 2.5261 2.438519 0.3473 0.06144 0.3473 0.56844 0 0.62988 -1.2484 0.22085 -2.2444 1.18226 -2.5261 2.43852l-0.0253 0.11275c-0.0778 0.3466 -0.564 0.34444 -0.6388 -0.00284l-0.0208 -0.09675C9.75674 5.12941 8.76104 4.1598 7.50916 3.93834Z" stroke-width="1"></path>
    <path id="Subtract" stroke="#c71dff" stroke-linecap="round" stroke-linejoin="round" d="M7.20854 1.07931C6.50869 0.68506 5.71607 0.485325 4.91296 0.50084c-0.8031 0.015514 -1.58742 0.245713 -2.27152 0.6667 -0.6841 0.42098 -1.24305 1.01741 -1.61881 1.72735 -0.375766 0.70995 -0.554652 1.50753 -0.518086 2.30996 0.036565 0.80242 0.287248 1.58043 0.726026 2.25326 0.43877 0.67283 1.04965 1.21594 1.7692 1.57297v1.50002c0 0.1326 0.05268 0.2598 0.14645 0.3535 0.09377 0.0938 0.22094 0.1465 0.35355 0.1465h3c0.13261 0 0.25979 -0.0527 0.35356 -0.1465 0.09376 -0.0937 0.14644 -0.2209 0.14644 -0.3535V9.03108C7.58244 8.74401 8.09369 8.3347 8.5 7.83347" stroke-width="1"></path>
  </g>
</svg>