<svg xmlns="http://www.w3.org/2000/svg" fill="none" viewBox="0 0 14 14" id="Ai-Technology-Spark--Streamline-Core">
  <desc>
    Ai Technology Spark Streamline Icon: https://streamlinehq.com
  </desc>
  <g id="ai-technology-spark--lightbulb-idea-bright-lighting-artificial-intelligence-ai">
    <path id="Union" fill="#000000" fill-rule="evenodd" d="M7.52661 9.33109c0.58101 -0.3361 1.08811 -0.78575 1.49096 -1.31861 -0.12344 -0.18827 -0.21781 -0.40878 -0.27314 -0.66151l-0.01918 -0.08764c-0.11239 -0.51342 -0.52424 -0.90783 -1.04204 -0.99791 -2.07181 -0.36044 -2.07186 -3.33464 0 -3.69509 0.50091 -0.08714 0.90267 -0.45908 1.03008 -0.94801C7.79923 0.625182 6.48593 0 5.02661 0 2.26519 0 0.0266113 2.23858 0.0266113 5c0 1.85071 1.0054987 3.46657 2.4999987 4.33109V10.5c0 0.5523 0.44772 1 1 1h3c0.55229 0 1 -0.4477 1 -1V9.33109Zm-5 3.91891c0 -0.4142 0.33579 -0.75 0.75 -0.75h3.5c0.41421 0 0.75 0.3358 0.75 0.75s-0.33579 0.75 -0.75 0.75h-3.5c-0.41421 0 -0.75 -0.3358 -0.75 -0.75ZM9.8065 1.71727c0.18308 -0.836334 1.3739 -0.84154 1.5643 -0.00684l0.009 0.03946 0 0.00002c0.006 0.0269 0.0117 0.05173 0.0178 0.07763 0.2193 0.93409 0.9752 1.64783 1.9215 1.81246 0.8723 0.15176 0.8723 1.40399 0 1.55575 -0.9513 0.16551 -1.7103 0.88599 -1.925 1.82744l-0.0233 0.10213c-0.1904 0.83471 -1.38122 0.82949 -1.5643 -0.00684l-0.01918 -0.08763c-0.20684 -0.9449 -0.96479 -1.67076 -1.91775 -1.83654 -0.87068 -0.15148 -0.87069 -1.40139 0 -1.55286 0.94964 -0.16521 1.70563 -0.8866 1.91557 -1.82667l0.01416 -0.06449 0.0072 -0.03302Z" clip-rule="evenodd" stroke-width="1"></path>
  </g>
</svg>