<svg xmlns="http://www.w3.org/2000/svg" fill="none" viewBox="0 0 48 48" id="Binoculars--Streamline-Plump-Remix">
  <desc>
    Binoculars Streamline Icon: https://streamlinehq.com
  </desc>
  <g id="binoculars--binocular-binoculars-view-zoom">
    <path id="Union" fill="#000000" fill-rule="evenodd" d="M14.9996 5c-2.4165 0 -3.5822 0.80193 -4.0148 1.18368 -0.0996 0.08788 -0.2394 0.2767 -0.3883 0.68796 -0.78758 2.17447 -1.91759 6.79976 -3.02219 12.03166 -0.523 2.4772 -1.03321 5.0558 -1.49087 7.5205C7.6824 25.5175 9.53077 25 11.5 25c2.8808 0 5.5029 1.1074 7.464 2.9198 0.0933 -2.0202 0.1705 -4.0228 0.2342 -5.9532 -1.1189 0.236 -2.0166 0.5315 -2.7084 0.8136 -0.7842 0.3198 -1.6213 0.1219 -2.2055 -0.2536 -0.584 -0.3754 -1.1478 -1.0881 -1.0645 -2.0166l0.6391 -7.1214c0.111 -1.2369 0.6324 -2.6008 1.8971 -3.3788 0.8509 -0.52349 2.0736 -1.10166 3.7249 -1.50296 0.0032 -0.34699 0.0059 -0.66916 0.0082 -0.96455 0.0079 -1.04343 -0.3641 -1.53829 -0.6819 -1.70224C18.0092 5.42835 16.7641 5 14.9996 5Zm8.2155 16.5111c0.2555 -0.0073 0.5173 -0.0111 0.7853 -0.0111 0.2676 0 0.5289 0.0038 0.784 0.011 0.148 4.6404 0.3731 9.755 0.7159 14.5711C25.5444 42.1195 30.4523 47 36.5 47c6.0751 0 11 -4.9249 11 -11 0 -1.003 -0.1342 -1.9747 -0.3857 -2.898 -0.6343 -4.1836 -1.6788 -9.8332 -2.775 -15.0249 -1.0973 -5.1975 -2.2778 -10.09057 -3.1749 -12.56759 -0.2623 -0.72427 -0.6966 -1.61372 -1.5025 -2.32495C38.5181 2.17514 36.4174 1 33.0003 1c-2.4449 0 -4.3154 0.60105 -5.6415 1.28525 -2.2128 1.1416 -2.8615 3.4833 -2.8478 5.28727l0.0034 0.43326C24.3457 8.00196 24.1743 8 24.0004 8c-0.1743 0 -0.3459 0.00197 -0.5149 0.0058l0.0035 -0.43328c0.0136 -1.80397 -0.6351 -4.14567 -2.8478 -5.28727C19.315 1.60105 17.4445 1 14.9996 1c-3.417 0 -5.51774 1.17513 -6.66156 2.18456 -0.80592 0.71123 -1.24019 1.60068 -1.5025 2.32495C5.93841 7.98653 4.7579 12.8796 3.66058 18.0771c-1.09617 5.192 -2.1408 10.8418 -2.775005 15.0255C0.634183 34.0258 0.5 34.9972 0.5 36c0 6.0751 4.92487 11 11 11 6.0501 0 10.9594 -4.8844 10.9998 -10.925 0.3425 -4.8141 0.5674 -9.9259 0.7153 -14.5639Zm5.8205 6.4091C30.9967 26.1076 33.619 25 36.5 25c1.9692 0 3.8175 0.5174 5.4165 1.4238 -0.4577 -2.4648 -0.9679 -5.0433 -1.4909 -7.5205 -1.1046 -5.2319 -2.2346 -9.85719 -3.0221 -12.03166 -0.149 -0.41126 -0.2888 -0.60008 -0.3884 -0.68796C36.5826 5.80192 35.4168 5 33.0003 5c-1.7644 0 -3.0096 0.42835 -3.8076 0.84005 -0.3178 0.16395 -0.6897 0.65881 -0.6818 1.70224 0.0022 0.29534 0.0049 0.61743 0.0082 0.96435 1.6516 0.4013 2.8746 0.97958 3.7257 1.50316 1.2647 0.778 1.786 2.1419 1.897 3.3788l0.6391 7.1214c0.0834 0.9285 -0.4804 1.6412 -1.0645 2.0166 -0.5841 0.3755 -1.4212 0.5734 -2.2054 0.2536 -0.6921 -0.2822 -1.5902 -0.5778 -2.7097 -0.8138 0.0638 1.9306 0.1409 3.9334 0.2343 5.9538Z" clip-rule="evenodd" stroke-width="1"></path>
  </g>
</svg>