<svg xmlns="http://www.w3.org/2000/svg" fill="none" viewBox="0 0 48 48" id="Circle-And-Square-Shape--Streamline-Plump-Remix">
  <desc>
    Circle And Square Shape Streamline Icon: https://streamlinehq.com
  </desc>
  <g id="circle-and-square-shape">
    <path id="Union" fill="#000000" fill-rule="evenodd" d="M0.5 19.1136C0.5 8.83361 8.83361 0.5 19.1136 0.5c8.6113 0 15.8537 5.8459 17.9809 13.7854 1.563 0.0563 2.8662 0.1302 3.9366 0.2083 3.3508 0.2443 5.9125 2.806 6.1568 6.1568 0.1653 2.2668 0.3121 5.5777 0.3121 10.1902 -0.0001 4.6126 -0.1468 7.9234 -0.3121 10.1903 -0.2443 3.3507 -2.806 5.9125 -6.1568 6.1568 -2.2668 0.1653 -5.5777 0.312 -10.1902 0.312 -4.6126 0 -7.9234 -0.1467 -10.1903 -0.312 -3.3508 -0.2443 -5.9125 -2.8061 -6.1568 -6.1568 -0.0781 -1.0704 -0.152 -2.3735 -0.2082 -3.9365C6.34596 34.9674 0.5 27.725 0.5 19.1136Zm20.4415 -0.6305c2.1575 -0.1573 5.3705 -0.3015 9.8994 -0.3015 4.5288 0 7.7418 0.1442 9.8993 0.3015 1.371 0.0999 2.3584 1.0873 2.4583 2.4583 0.1573 2.1575 0.3015 5.3705 0.3015 9.8993 -0.0001 4.5289 -0.1442 7.7418 -0.3015 9.8994 -0.0999 1.371 -1.0873 2.3583 -2.4583 2.4583 -2.1575 0.1573 -5.3705 0.3014 -9.8993 0.3014 -4.5289 0 -7.7419 -0.1441 -9.8994 -0.3014 -1.371 -0.1 -2.3584 -1.0873 -2.4583 -2.4583 -0.1573 -2.1576 -0.3014 -5.3705 -0.3014 -9.8994 0 -4.5288 0.1441 -7.7418 0.3014 -9.8993 0.0999 -1.371 1.0873 -2.3584 2.4583 -2.4583Z" clip-rule="evenodd" stroke-width="1"></path>
  </g>
</svg>