<svg xmlns="http://www.w3.org/2000/svg" fill="none" viewBox="0 0 48 48" id="Creative-Commons--Streamline-Plump-Remix">
  <desc>
    Creative Commons Streamline Icon: https://streamlinehq.com
  </desc>
  <g id="creative-commons">
    <path id="Union" fill="#000000" fill-rule="evenodd" d="M24 4.5C13.2304 4.5 4.5 13.2304 4.5 24S13.2304 43.5 24 43.5c10.7695 0 19.5 -8.7304 19.5 -19.5S34.7695 4.5 24 4.5ZM0.5 24C0.5 11.0213 11.0213 0.5 24 0.5S47.5 11.0213 47.5 24 36.9787 47.5 24 47.5 0.5 36.9787 0.5 24Zm8 0c0 -5.665 3.9053 -9.5 8.7353 -9.5 2.3133 0 3.9085 0.684 4.8991 1.3353 1.0284 0.6761 1.3728 1.9255 1.0343 3.0461 -0.2645 0.8755 -0.6381 1.7375 -0.9679 2.42 -0.5237 1.0839 -1.8669 1.1666 -2.7286 0.6701 -0.474 -0.2732 -0.9912 -0.4715 -1.4722 -0.4715 -0.6435 0 -1.2706 0.2151 -1.7303 0.6237 -0.4506 0.4005 -0.7697 1.012 -0.7697 1.8763 0 0.8643 0.3191 1.4758 0.7697 1.8763 0.4597 0.4087 1.0868 0.6237 1.7303 0.6237 0.48 0 0.9961 -0.1975 1.4695 -0.4699 0.863 -0.4966 2.2081 -0.4124 2.7309 0.6734 0.3292 0.6837 0.7022 1.5467 0.9668 2.4224 0.3398 1.125 -0.0081 2.3797 -1.044 3.054 -0.9913 0.6452 -2.5832 1.3201 -4.8879 1.3201 -4.83 0 -8.7353 -3.835 -8.7353 -9.5Zm16 0c0 -5.665 3.9053 -9.5 8.7353 -9.5 2.3133 0 3.9085 0.684 4.8991 1.3353 1.0284 0.6761 1.3728 1.9255 1.0343 3.0461 -0.2645 0.8755 -0.6381 1.7375 -0.9679 2.42 -0.5237 1.0839 -1.8669 1.1666 -2.7286 0.6701 -0.474 -0.2732 -0.9912 -0.4715 -1.4722 -0.4715 -0.6435 0 -1.2706 0.2151 -1.7303 0.6237 -0.4506 0.4005 -0.7697 1.012 -0.7697 1.8763 0 0.8643 0.3191 1.4758 0.7697 1.8763 0.4597 0.4087 1.0868 0.6237 1.7303 0.6237 0.48 0 0.9961 -0.1975 1.4695 -0.4699 0.863 -0.4966 2.2081 -0.4124 2.7309 0.6734 0.3292 0.6837 0.7022 1.5467 0.9668 2.4224 0.3398 1.125 -0.0081 2.3797 -1.044 3.054 -0.9913 0.6452 -2.5832 1.3201 -4.8879 1.3201 -4.83 0 -8.7353 -3.835 -8.7353 -9.5Z" clip-rule="evenodd" stroke-width="1"></path>
  </g>
</svg>