<svg xmlns="http://www.w3.org/2000/svg" fill="none" viewBox="0 0 48 48" id="Disable-Alarm--Streamline-Plump-Remix">
  <desc>
    Disable Alarm Streamline Icon: https://streamlinehq.com
  </desc>
  <g id="disable-alarm--time-tock-stopwatch-measure-clock-tick-disabled-off">
    <path id="Union" fill="#000000" fill-rule="evenodd" d="M10.3183 0.5c2.7716 0 5.2744 1.14967 7.0577 2.99297 2.0871 -0.67375 4.3133 -1.03789 6.6239 -1.03789 2.3112 0 4.5374 0.36391 6.6245 1.03757C32.4076 1.64954 34.9103 0.5 37.6817 0.5c5.4225 0 9.8182 4.39575 9.8182 9.8182 0 2.7712 -1.1494 5.2738 -2.9924 7.057 0.6739 2.0873 1.0379 4.3138 1.0379 6.6253 0 5.2285 -1.8645 10.0245 -4.9615 13.755l6.3303 6.3303c0.7811 0.781 0.7811 2.0474 0 2.8284 -0.781 0.7811 -2.0474 0.7811 -2.8284 0l-7.6494 -7.6494c-0.0101 -0.0096 -0.0201 -0.0194 -0.03 -0.0293 -0.0099 -0.0099 -0.0197 -0.0199 -0.0293 -0.03L8.79495 11.6234c-0.01007 -0.0097 -0.02005 -0.0195 -0.02996 -0.0294 -0.00991 -0.0099 -0.0197 -0.0199 -0.02936 -0.0299L1.08579 3.91421c-0.781052 -0.78105 -0.781052 -2.04738 0 -2.82842 0.78104 -0.781052 2.04737 -0.781052 2.82842 0l1.02074 1.02073C6.48052 1.09166 8.33135 0.5 10.3183 0.5Zm22.9794 11.3748c0.7811 -0.781 2.0474 -0.781 2.8284 0 0.7811 0.7811 0.7811 2.0474 0 2.8285l-0.691 0.691c-0.7811 0.7811 -2.0474 0.7811 -2.8284 0 -0.7811 -0.781 -0.7811 -2.0474 0 -2.8284l0.691 -0.6911ZM24 6.85156c1.1046 0 2 0.89543 2 2v0.97728c0 1.10456 -0.8954 1.99996 -2 1.99996s-2 -0.8954 -2 -1.99997v-0.97727c0 -1.10457 0.8954 -2 2 -2ZM39.1477 22c1.1046 0 2 0.8954 2 2s-0.8954 2 -2 2h-0.9773c-1.1045 0 -2 -0.8954 -2 -2s0.8955 -2 2 -2h0.9773ZM4.51233 9.93567c0.07126 -1.10227 -0.76454 -2.0536 -1.86681 -2.12486C1.54325 7.73955 0.591923 8.57535 0.520664 9.67762 0.506948 9.8898 0.5 10.1036 0.5 10.3187c0 2.7713 1.14954 5.274 2.99265 7.0573 -0.67409 2.0882 -1.0381 4.3148 -1.0381 6.6243 0 4.5553 1.41365 8.7803 3.8262 12.2605l-1.96414 4.1473 -0.00376 0.008c-0.68764 1.4687 -0.72782 3.578 0.81498 5.0287 0.90077 0.847 1.94786 1.4134 3.11539 1.727 1.95258 0.5246 3.68448 -0.4884 4.61438 -1.7636l0.0036 -0.005 1.5309 -2.113c2.8926 1.4435 6.1554 2.2556 9.6079 2.2556 3.3426 0 6.5581 -0.7953 9.4981 -2.2223 0.2724 0.4345 0.5882 0.9193 0.9383 1.3835 0.7538 0.9992 2.129 2.5489 4.1699 2.6027 1.1042 0.0292 2.0229 -0.8423 2.0521 -1.9465 0.0291 -1.1041 -0.8423 -2.0229 -1.9465 -2.0521 -0.0097 -0.0002 -0.3654 -0.0628 -1.0821 -1.0129 -0.3073 -0.4074 -0.6008 -0.8683 -0.9043 -1.3593 -0.0418 -0.0676 -0.0847 -0.1374 -0.1286 -0.2087 -0.2483 -0.4037 -0.5251 -0.8537 -0.7842 -1.2141 -0.6044 -0.8406 -1.7504 -1.081 -2.6416 -0.5541 -2.8182 1.6659 -5.9418 2.5838 -9.1711 2.5838 -3.3322 0 -6.4475 -0.9289 -9.1009 -2.5419 -0.03 -0.0195 -0.0604 -0.0381 -0.091 -0.0557 -1.7634 -1.0867 -3.32 -2.4767 -4.597 -4.0973 -0.0239 -0.0325 -0.0488 -0.0644 -0.0748 -0.0956 -2.30767 -2.9704 -3.68175 -6.7022 -3.68175 -10.755 0 -3.1682 0.83792 -6.1346 2.30285 -8.6962 0.54835 -0.9588 0.21559 -2.1806 -0.74326 -2.729 -0.94568 -0.5408 -2.14719 -0.2245 -2.70607 0.7042 -0.51399 -0.8679 -0.80807 -1.88 -0.80807 -2.9606 0 -0.129 0.00416 -0.2567 0.01233 -0.38303ZM7.93548 42.1121l1.19393 -2.521c0.58828 0.5613 1.20829 1.0896 1.85699 1.582l-1.36077 1.8783 -0.00137 0.0019c-0.0994 0.1356 -0.20694 0.2095 -0.27659 0.2396 -0.03218 0.0139 -0.05096 0.0164 -0.05643 0.0169 -0.00225 0.0002 -0.00369 0.0003 -0.00556 0l-0.00468 -0.001c-0.5566 -0.1495 -1.01183 -0.401 -1.41239 -0.7774 -0.00202 -0.005 -0.00731 -0.02 -0.01055 -0.0483 -0.00863 -0.0755 0.00284 -0.2103 0.07609 -0.3681l0.00133 -0.0029ZM8.85229 22c-1.10456 0 -2 0.8954 -2 2s0.89544 2 2 2h0.97728c1.10453 0 2.00003 -0.8954 2.00003 -2s-0.8955 -2 -2.00003 -2h-0.97728Zm6.54101 13.4341c0.7811 -0.781 0.7811 -2.0474 0 -2.8284 -0.781 -0.7811 -2.0473 -0.7811 -2.8284 0l-0.691 0.691c-0.7811 0.7811 -0.7811 2.0474 0 2.8285 0.781 0.781 2.0474 0.781 2.8284 0l0.691 -0.6911ZM26 38.1712c0 -1.1046 -0.8954 -2 -2 -2s-2 0.8954 -2 2v0.9772c0 1.1046 0.8954 2 2 2s2 -0.8954 2 -2v-0.9772Z" clip-rule="evenodd" stroke-width="1"></path>
  </g>
</svg>