<svg xmlns="http://www.w3.org/2000/svg" fill="none" viewBox="0 0 48 48" id="Eraser--Streamline-Plump-Remix">
  <desc>
    Eraser Streamline Icon: https://streamlinehq.com
  </desc>
  <g id="eraser--text-remove-format-formatting-eraser-delete">
    <path id="Union" fill="#000000" fill-rule="evenodd" d="M4.9295 25.9645c6.2481 -7.2725 13.2753 -14.3379 21.1351 -20.5043 0.7526 -0.527 1.6536 -0.5059 2.4014 0.0758 4.893 3.806 9.5278 8.2958 13.4756 13.0716 0.5775 0.6986 0.5862 1.4976 0.0566 2.1879 -4.1136 5.3617 -9.1392 10.1314 -14.2756 14.7943 0 0.0001 -0.001 0.0009 -0.0038 0.002 -0.0031 0.0012 -0.0079 0.0024 -0.0144 0.0024 -7.4229 0 -12.115 0.0831 -14.9329 0.1645 -0.2872 0.0084 -0.5478 -0.0959 -0.7328 -0.2734 -2.4899 -2.3899 -4.8895 -4.7885 -7.0241 -7.3708 -0.5669 -0.6859 -0.5857 -1.4685 -0.0851 -2.15Zm26.048 -23.6574C28.8067 0.6186 25.8947 0.5372 23.6421 2.1635c-0.0218 0.0158 -0.0434 0.032 -0.0646 0.0486 -8.151 6.3898 -15.3953 13.684 -21.7941 21.137 -0.0244 0.0284 -0.0481 0.0576 -0.0709 0.0873 -1.7111 2.2302 -1.6212 5.1427 0.1492 7.2843 2.2899 2.7704 4.8286 5.3011 7.3444 7.7158 0.9985 0.9584 2.3312 1.4504 3.6836 1.4113 2.7692 -0.0801 7.4205 -0.1629 14.8147 -0.1629 1.0159 0 2.0049 -0.3738 2.7677 -1.0663 5.1508 -4.6758 10.4162 -9.6562 14.7716 -15.333 1.7111 -2.2302 1.6213 -5.1426 -0.1492 -7.2843 -4.1401 -5.0085 -8.9903 -9.7066 -14.117 -13.6942ZM7.8914 41.3845c-1.5532 0 -2.8124 1.2591 -2.8124 2.8123s1.2592 2.8124 2.8124 2.8124h36.8162c1.5533 0 2.8124 -1.2591 2.8124 -2.8124s-1.2591 -2.8123 -2.8124 -2.8123H7.8914Z" clip-rule="evenodd" stroke-width="1"></path>
  </g>
</svg>