<svg xmlns="http://www.w3.org/2000/svg" fill="none" viewBox="0 0 48 48" id="Heater--Streamline-Plump-Remix">
  <desc>
    Heater Streamline Icon: https://streamlinehq.com
  </desc>
  <g id="heater--travel-hotel-heater">
    <path id="Union" fill="#000000" fill-rule="evenodd" d="M12.405 1.79358c0.6663 -0.88094 1.9207 -1.054897 2.8016 -0.38855 0.8809 0.66636 1.0549 1.92068 0.3885 2.80162 -0.4042 0.53443 -0.5841 1.05679 -0.5946 1.58871 -0.0107 0.54457 0.154 1.25899 0.7058 2.16133 0.8594 1.40536 1.3214 2.86251 1.2926 4.32681 -0.0291 1.4769 -0.5547 2.8007 -1.4038 3.9231 -0.6663 0.881 -1.9206 1.0549 -2.8016 0.3886 -0.8809 -0.6664 -1.0549 -1.9207 -0.3885 -2.8016 0.4042 -0.5345 0.5842 -1.0568 0.5946 -1.5887 0.0107 -0.5446 -0.154 -1.259 -0.7058 -2.1614 -0.8594 -1.40532 -1.3213 -2.86247 -1.2925 -4.32676 0.029 -1.47695 0.5547 -2.80075 1.4037 -3.92316Zm10 0c0.6663 -0.88094 1.9207 -1.054897 2.8016 -0.38855 0.8809 0.66636 1.0549 1.92068 0.3885 2.80162 -0.4042 0.53443 -0.5841 1.05679 -0.5946 1.58871 -0.0107 0.54457 0.154 1.25899 0.7058 2.16133 0.8594 1.40536 1.3214 2.86251 1.2926 4.32681 -0.0291 1.4769 -0.5547 2.8007 -1.4038 3.9231 -0.6663 0.881 -1.9206 1.0549 -2.8016 0.3886 -0.8809 -0.6664 -1.0549 -1.9207 -0.3885 -2.8016 0.4042 -0.5345 0.5842 -1.0568 0.5946 -1.5887 0.0107 -0.5446 -0.154 -1.259 -0.7058 -2.1614 -0.8594 -1.40532 -1.3213 -2.86247 -1.2925 -4.32676 0.029 -1.47695 0.5547 -2.80075 1.4037 -3.92316Zm12.8016 -0.38855c-0.8809 -0.666347 -2.1353 -0.49239 -2.8016 0.38855 -0.849 1.12241 -1.3747 2.44621 -1.4037 3.92316 -0.0288 1.46429 0.4331 2.92144 1.2925 4.32676 0.5518 0.9024 0.7165 1.6168 0.7058 2.1614 -0.0104 0.5319 -0.1904 1.0542 -0.5946 1.5887 -0.6664 0.8809 -0.4924 2.1352 0.3885 2.8016 0.881 0.6663 2.1353 0.4924 2.8016 -0.3886 0.8491 -1.1224 1.3747 -2.4462 1.4038 -3.9231 0.0288 -1.4643 -0.4332 -2.92145 -1.2926 -4.32681 -0.5518 -0.90234 -0.7165 -1.61676 -0.7058 -2.16133 0.0105 -0.53192 0.1904 -1.05428 0.5946 -1.58871 0.6664 -0.88094 0.4924 -2.13526 -0.3885 -2.80162ZM24 22c-7.6366 0 -12.8707 0.1778 -16.03127 0.3375 -1.39078 0.0703 -2.46824 1.0453 -2.61634 2.4708C5.16302 26.6311 5 29.1678 5 32.5c0 3.3322 0.16302 5.8689 0.35239 7.6917 0.1481 1.4255 1.22555 2.4005 2.61634 2.4708C11.1293 42.8222 16.3634 43 24 43s12.8707 -0.1778 16.0313 -0.3375c1.3908 -0.0703 2.4682 -1.0453 2.6163 -2.4708C42.837 38.3689 43 35.8322 43 32.5c0 -3.3321 -0.163 -5.8689 -0.3524 -7.6917 -0.1481 -1.4255 -1.2255 -2.4005 -2.6163 -2.4708C36.8707 22.1778 31.6366 22 24 22ZM7.76689 18.3426C11 18.1793 16.3016 18 24 18c7.6984 0 13 0.1793 16.2331 0.3426 3.2908 0.1663 6.0341 2.5965 6.3931 6.0524 0.2044 1.9674 0.3738 4.6424 0.3738 8.105s-0.1694 6.1376 -0.3738 8.105c-0.359 3.4559 -3.1023 5.8861 -6.3931 6.0524C37 46.8207 31.6984 47 24 47c-7.6984 0 -13 -0.1793 -16.23312 -0.3426 -3.29077 -0.1663 -6.03403 -2.5965 -6.39308 -6.0524C1.16939 38.6376 1 35.9626 1 32.5s0.16939 -6.1376 0.3738 -8.105c0.35905 -3.4559 3.10232 -5.8861 6.39309 -6.0524ZM12 25.5c-1.933 0 -3.5 1.567 -3.5 3.5s1.567 3.5 3.5 3.5 3.5 -1.567 3.5 -3.5 -1.567 -3.5 -3.5 -3.5Zm12.0278 0.0258c0.2904 -0.0161 0.614 -0.0258 0.9722 -0.0258 0.3582 0 0.6818 0.0097 0.9722 0.0258 1.4864 0.0824 2.4296 1.3172 2.4714 2.7041 0.0301 1.0015 0.0564 2.4087 0.0564 4.2701 0 1.8614 -0.0263 3.2686 -0.0564 4.2701 -0.0418 1.3869 -0.985 2.6217 -2.4714 2.7041 -0.2904 0.0161 -0.614 0.0258 -0.9722 0.0258 -0.3582 0 -0.6818 -0.0097 -0.9723 -0.0258 -1.4863 -0.0824 -2.4295 -1.3172 -2.4713 -2.7041 -0.0301 -1.0015 -0.0564 -2.4087 -0.0564 -4.2701 0 -1.8614 0.0263 -3.2686 0.0564 -4.2701 0.0418 -1.3869 0.985 -2.6217 2.4714 -2.7041ZM36 25.5c-0.3582 0 -0.6818 0.0097 -0.9722 0.0258 -1.4864 0.0824 -2.4296 1.3172 -2.4714 2.7041 -0.0301 1.0015 -0.0564 2.4087 -0.0564 4.2701 0 1.8614 0.0263 3.2686 0.0564 4.2701 0.0418 1.3869 0.985 2.6217 2.4713 2.7041 0.2905 0.0161 0.6141 0.0258 0.9723 0.0258 0.3582 0 0.6818 -0.0097 0.9723 -0.0258 1.4863 -0.0824 2.4295 -1.3172 2.4713 -2.7041 0.0301 -1.0015 0.0564 -2.4087 0.0564 -4.2701 0 -1.8614 -0.0263 -3.2686 -0.0564 -4.2701 -0.0418 -1.3869 -0.985 -2.6217 -2.4713 -2.7041 -0.2905 -0.0161 -0.6141 -0.0258 -0.9723 -0.0258Z" clip-rule="evenodd" stroke-width="1"></path>
  </g>
</svg>