<svg xmlns="http://www.w3.org/2000/svg" fill="none" viewBox="0 0 48 48" id="Input-Box--Streamline-Plump-Remix">
  <desc>
    Input Box Streamline Icon: https://streamlinehq.com
  </desc>
  <g id="input-box--cursor-text-formatting-type-format">
    <path id="Union" fill="#000000" fill-rule="evenodd" d="M22.0195 7.87622c1.1141 -0.06869 1.9367 -0.86604 1.9686 -1.98181C23.9955 5.63203 24 5.33512 24 5c0 -0.33512 -0.0045 -0.63204 -0.0119 -0.89441 -0.0319 -1.11577 -0.8545 -1.91312 -1.9686 -1.98181C20.9603 2.05847 19.3545 2 17 2s-3.9602 0.05847 -5.0195 0.12378c-1.1141 0.06869 -1.9367 0.86604 -1.9686 1.98181C10.0045 4.36796 10 4.66488 10 5c0 0.33512 0.0045 0.63203 0.0119 0.89441 0.0319 1.11577 0.8545 1.91311 1.9686 1.98181l2.2 0.09103S14 15.7744 14 24s0.1805 16.0327 0.1805 16.0327l-2.2 0.0911c-1.1141 0.0687 -1.9367 0.866 -1.9686 1.9818C10.0045 42.368 10 42.6649 10 43c0 0.3351 0.0045 0.632 0.0119 0.8944 0.0319 1.1158 0.8545 1.9131 1.9686 1.9818C13.0398 45.9415 14.6455 46 17 46s3.9603 -0.0585 5.0195 -0.1238c1.1141 -0.0687 1.9367 -0.866 1.9686 -1.9818C23.9955 43.632 24 43.3351 24 43c0 -0.3351 -0.0045 -0.632 -0.0119 -0.8944 -0.0319 -1.1158 -0.8545 -1.9131 -1.9686 -1.9818l-2.2 -0.0911S20 32.2256 20 24c0 -8.2256 -0.1805 -16.03275 -0.1805 -16.03275l2.2 -0.09103Zm2.9548 8.35228c-1.1046 -0.0016 -1.9987 -0.8984 -1.997 -2.003 0.0016 -1.1046 0.8984 -1.9986 2.003 -1.997 7.9639 0.012 13.2954 0.168 16.3708 0.2971 2.7765 0.1166 5.3483 2.0019 5.761 5.0455 0.2134 1.574 0.3879 3.6966 0.3879 6.4294s-0.1745 4.8555 -0.3879 6.4294c-0.4127 3.0436 -2.9845 4.9289 -5.761 5.0455 -3.0754 0.1291 -8.4069 0.2852 -16.3708 0.2971 -1.1046 0.0017 -2.0014 -0.8924 -2.003 -1.997 -0.0017 -1.1046 0.8924 -2.0013 1.997 -2.003 7.9146 -0.0119 13.1919 -0.1669 16.209 -0.2936 1.14 -0.0478 1.8511 -0.7457 1.965 -1.5864 0.1881 -1.3869 0.3517 -3.3297 0.3517 -5.892 0 -2.5623 -0.1636 -4.5051 -0.3517 -5.892 -0.1139 -0.8407 -0.825 -1.5385 -1.9649 -1.5864 -3.0172 -0.1267 -8.2945 -0.2817 -16.2091 -0.2936ZM9.27782 12.4298c1.10398 -0.0349 2.02728 0.8319 2.06208 1.9359 0.0349 1.104 -0.8319 2.0272 -1.93591 2.0621 -0.99596 0.0314 -1.85523 0.0636 -2.58311 0.0941 -1.14249 0.048 -1.85555 0.7482 -1.96922 1.5866C4.66361 19.4954 4.5 21.4382 4.5 24.0005c0 2.5623 0.16361 4.5051 0.35166 5.892 0.11367 0.8384 0.82672 1.5387 1.96922 1.5866 0.72788 0.0305 1.58715 0.0627 2.58311 0.0942 1.10401 0.0348 1.97081 0.958 1.93591 2.062 -0.0348 1.1041 -0.9581 1.9708 -2.06208 1.936 -1.00952 -0.0319 -1.88264 -0.0646 -2.62464 -0.0957 -2.77392 -0.1164 -5.35227 -1.9997 -5.765255 -5.0457C0.674516 28.856 0.499998 26.7333 0.5 24.0005c0 -2.7328 0.174518 -4.8555 0.387927 -6.4294 0.412983 -3.046 2.991333 -4.9293 5.765253 -5.0457 0.742 -0.0311 1.61512 -0.0638 2.62464 -0.0956Z" clip-rule="evenodd" stroke-width="1"></path>
  </g>
</svg>