<svg xmlns="http://www.w3.org/2000/svg" fill="none" viewBox="0 0 48 48" id="Layers-1--Streamline-Plump-Remix">
  <desc>
    Layers 1 Streamline Icon: https://streamlinehq.com
  </desc>
  <g id="layers-1--design-layer-layers-pile-stack-align">
    <path id="Union" fill="#000000" fill-rule="evenodd" d="M25.776 2.20958c-1.1707 -0.27944 -2.3814 -0.27944 -3.5521 0 -2.0473 0.48865 -6.1182 1.64666 -11.1786 4.05195C7.11245 8.13092 4.38283 9.75631 2.69326 10.865c-2.255726 1.4801 -2.255727 4.6642 0 6.1443 1.68957 1.1087 4.41919 2.7341 8.35204 4.6035 5.0604 2.4053 9.1313 3.5633 11.1786 4.0519 1.1707 0.2795 2.3814 0.2795 3.5521 0 2.0472 -0.4886 6.1182 -1.6466 11.1786 -4.0519 3.9328 -1.8694 6.6625 -3.4948 8.352 -4.6035 2.2558 -1.4801 2.2558 -4.6642 0 -6.1443 -1.6895 -1.10869 -4.4192 -2.73408 -8.352 -4.60347 -5.0604 -2.40529 -9.1314 -3.5633 -11.1786 -4.05195ZM5.89997 33.6881c0.93932 -0.5811 1.22965 -1.8137 0.64848 -2.7531 -0.58117 -0.9393 -1.81377 -1.2296 -2.75309 -0.6484 -0.40754 0.2521 -0.77467 0.4868 -1.10259 0.702 -2.255724 1.4801 -2.255725 4.6642 0 6.1443 1.68957 1.1087 4.41919 2.7341 8.35203 4.6035 5.0604 2.4053 9.1313 3.5633 11.1786 4.0519 1.1707 0.2795 2.3814 0.2795 3.5521 0 2.0473 -0.4886 6.1182 -1.6466 11.1786 -4.0519 3.9328 -1.8694 6.6625 -3.4948 8.352 -4.6035 2.2558 -1.4801 2.2558 -4.6642 0 -6.1443 -0.3279 -0.2152 -0.695 -0.4499 -1.1026 -0.702 -0.9393 -0.5812 -2.1719 -0.2909 -2.753 0.6484 -0.5812 0.9394 -0.2909 2.172 0.6484 2.7531 0.2099 0.1299 0.4074 0.2542 0.5926 0.3726 -1.5678 1.0025 -4.0108 2.4261 -7.4546 4.063 -4.7627 2.2638 -8.5612 3.3374 -10.39 3.7739 -0.5602 0.1337 -1.1347 0.1337 -1.6949 0 -1.8288 -0.4365 -5.6273 -1.5101 -10.39 -3.7739 -3.44381 -1.6369 -5.88684 -3.0605 -7.45459 -4.063 0.18524 -0.1184 0.38269 -0.2427 0.59256 -0.3726Zm0.64848 -12.94c0.58117 0.9393 0.29084 2.1719 -0.64848 2.753 -0.20987 0.1299 -0.40732 0.2542 -0.59256 0.3727 1.56775 1.0024 4.01078 2.426 7.45459 4.0629 4.7627 2.2638 8.5612 3.3374 10.39 3.7739 0.5602 0.1337 1.1347 0.1337 1.6949 0 1.8288 -0.4365 5.6273 -1.5101 10.39 -3.7739 3.4438 -1.6369 5.8868 -3.0605 7.4546 -4.0629 -0.1852 -0.1185 -0.3827 -0.2428 -0.5926 -0.3727 -0.9393 -0.5811 -1.2296 -1.8137 -0.6484 -2.753 0.5811 -0.9394 1.8137 -1.2297 2.753 -0.6485 0.4076 0.2521 0.7747 0.4868 1.1026 0.702 2.2558 1.4801 2.2558 4.6642 0 6.1443 -1.6895 1.1087 -4.4192 2.7341 -8.352 4.6035 -5.0604 2.4053 -9.1313 3.5633 -11.1786 4.0519 -1.1707 0.2795 -2.3814 0.2795 -3.5521 0 -2.0473 -0.4886 -6.1182 -1.6466 -11.1786 -4.0519 -3.93284 -1.8694 -6.66246 -3.4948 -8.35203 -4.6035 -2.255725 -1.4801 -2.255724 -4.6642 0 -6.1443 0.32792 -0.2152 0.69505 -0.4499 1.10259 -0.702 0.93932 -0.5812 2.17192 -0.2909 2.75309 0.6485Z" clip-rule="evenodd" stroke-width="1"></path>
  </g>
</svg>