<svg xmlns="http://www.w3.org/2000/svg" fill="none" viewBox="0 0 48 48" id="Layer-Mask--Streamline-Plump-Remix">
  <desc>
    Layer Mask Streamline Icon: https://streamlinehq.com
  </desc>
  <g id="layer-mask">
    <path id="Union" fill="#000000" fill-rule="evenodd" d="M24 8c-8.9291 0 -14.2312 0.32099 -17.20157 0.61244 -1.24558 0.12221 -2.13228 1.00454 -2.2607 2.26936C4.2758 13.4616 4 17.6795 4 23.9999c0 6.3205 0.27581 10.5384 0.53773 13.1182 0.12842 1.2649 1.01514 2.1472 2.26073 2.2695C9.76883 39.679 15.0709 40 24 40c8.9291 0 14.2312 -0.321 17.2015 -0.6124 1.2456 -0.1223 2.1323 -1.0046 2.2608 -2.2695 0.2619 -2.5798 0.5377 -6.7977 0.5377 -13.1182 0 -6.3204 -0.2758 -10.5383 -0.5377 -13.1181 -0.1284 -1.26482 -1.0151 -2.14715 -2.2607 -2.26936C38.2312 8.32099 32.9291 8 24 8ZM6.40783 4.63155C9.54457 4.32378 14.9833 4 24 4s14.4554 0.32378 17.5922 0.63155c3.1604 0.31011 5.5308 2.70651 5.8496 5.84625 0.2775 2.733 0.5582 7.0872 0.5582 13.5221 0 6.435 -0.2807 10.7893 -0.5582 13.5223 -0.3188 3.1397 -2.6892 5.5361 -5.8497 5.8462C38.4554 43.6762 33.0167 44 24 44c-9.0167 0 -14.4554 -0.3238 -17.59214 -0.6316 -3.16049 -0.3101 -5.530895 -2.7065 -5.849668 -5.8462C0.280713 34.7892 0 30.4349 0 23.9999c0 -6.4349 0.28071 -10.7891 0.558188 -13.5221C0.876963 7.33806 3.24737 4.94166 6.40783 4.63155ZM24 12.5c-6.3513 0 -11.5 5.1487 -11.5 11.5S17.6487 35.5 24 35.5 35.5 30.3513 35.5 24 30.3513 12.5 24 12.5Z" clip-rule="evenodd" stroke-width="1"></path>
  </g>
</svg>