<svg xmlns="http://www.w3.org/2000/svg" fill="none" viewBox="0 0 48 48" id="Layout-Window-4--Streamline-Plump-Remix">
  <desc>
    Layout Window 4 Streamline Icon: https://streamlinehq.com
  </desc>
  <g id="layout-window-4--column-header-layout-layouts-masthead-sidebar">
    <path id="Union" fill="#000000" fill-rule="evenodd" d="M8.09522 1.54553C11.3813 1.27854 16.5861 1 24 1s12.6187 0.27855 15.9048 0.54554c3.532 0.28697 6.2627 3.01764 6.5497 6.54968 0.1394 1.71627 0.282 3.95598 0.3864 6.76038 0.0033 0.0459 0.005 0.0923 0.0051 0.139C46.9387 17.5302 47 20.522 47 24c0 7.4139 -0.2786 12.6187 -0.5455 15.9048 -0.287 3.532 -3.0177 6.2627 -6.5497 6.5497C36.6187 46.7215 31.4139 47 24 47s-12.6187 -0.2785 -15.90479 -0.5455c-3.53204 -0.287 -6.26271 -3.0177 -6.54968 -6.5497C1.27854 36.6187 1 31.4139 1 24s0.27855 -12.6187 0.54554 -15.9048c0.28697 -3.53203 3.01764 -6.2627 6.54968 -6.54967ZM18 17h24.9082c0.0568 2.0594 0.0918 4.3883 0.0918 7 0 7.3141 -0.2748 12.4105 -0.5324 15.5809 -0.1283 1.5785 -1.3082 2.7585 -2.8867 2.8867C36.4104 42.7252 31.314 43 24 43c-2.1976 0 -4.1949 -0.0248 -6 -0.0665V17ZM5.09182 17H14v25.8037c-2.281 -0.0971 -4.13206 -0.2184 -5.58087 -0.3361 -1.57856 -0.1282 -2.75848 -1.3082 -2.88674 -2.8867C5.2748 36.4105 5 31.3141 5 24c0 -2.6117 0.03504 -4.9406 0.09182 -7Z" clip-rule="evenodd" stroke-width="1"></path>
  </g>
</svg>