<svg xmlns="http://www.w3.org/2000/svg" fill="none" viewBox="0 0 48 48" id="Line-Arrow-Right-Circle-2--Streamline-Plump-Remix">
  <desc>
    Line Arrow Right Circle 2 Streamline Icon: https://streamlinehq.com
  </desc>
  <g id="line-arrow-right-circle-2">
    <path id="Union" fill="#000000" fill-rule="evenodd" d="M43.5003 24.0003C43.5003 13.2306 34.7697 4.5 24 4.5c-10.7697 0 -19.50031 8.7306 -19.50031 19.5003C4.49969 34.77 13.2303 43.5006 24 43.5006c10.7697 0 19.5003 -8.7306 19.5003 -19.5003ZM24 0.5c12.9789 0 23.5003 10.5214 23.5003 23.5003S36.9789 47.5006 24 47.5006 0.499695 36.9792 0.499695 24.0003 11.0211 0.5 24 0.5Zm-1.1876 13.8434c-1.0283 -0.9294 -2.6497 -1.4177 -3.9319 -0.4828 -0.5278 0.3847 -1.0055 0.8513 -1.4311 1.3746 -0.9668 1.1885 -0.6479 2.8202 0.3019 3.8431l0.9072 0.9769 -8.83892 0.2498c-1.51108 0.0427 -2.88101 1.1115 -2.96209 2.7183 -0.01331 0.264 -0.02125 0.5464 -0.02125 0.8445 0 0.3529 0.01112 0.6929 0.02904 1.012 0.09224 1.6417 1.48683 2.7751 3.05258 2.8193l8.74074 0.247 -0.9071 0.9768c-0.9499 1.023 -1.2687 2.6548 -0.3018 3.8434 0.4254 0.523 0.9029 0.9895 1.4304 1.3742 1.2823 0.9354 2.9042 0.4472 3.9328 -0.4824 2.2799 -2.0605 4.8971 -4.698 6.6096 -6.8069 1.3857 -1.7064 1.3856 -3.9944 -0.0001 -5.7008 -1.7126 -2.1089 -4.33 -4.7465 -6.61 -6.807Zm13.2088 0.4793c-0.2581 0 -0.4946 0.0065 -0.7112 0.018 -1.5946 0.0847 -2.4783 1.3989 -2.5534 2.834 -0.0667 1.2753 -0.128 3.2768 -0.128 6.3258s0.0613 5.0505 0.128 6.3258c0.0751 1.4351 0.9588 2.7493 2.5534 2.834 0.2166 0.0115 0.4531 0.018 0.7112 0.018 0.258 0 0.4945 -0.0065 0.7111 -0.018 1.5946 -0.0847 2.4783 -1.3989 2.5534 -2.834 0.0667 -1.2753 0.128 -3.2768 0.128 -6.3258s-0.0613 -5.0505 -0.128 -6.3259c-0.0751 -1.435 -0.9588 -2.7492 -2.5534 -2.8339 -0.2166 -0.0115 -0.4531 -0.018 -0.7111 -0.018Z" clip-rule="evenodd" stroke-width="1"></path>
  </g>
</svg>