<svg xmlns="http://www.w3.org/2000/svg" fill="none" viewBox="0 0 48 48" id="Multiple-Stars--Streamline-Plump-Remix">
  <desc>
    Multiple Stars Streamline Icon: https://streamlinehq.com
  </desc>
  <g id="multiple-stars--reward-rating-rate-social-star-media-favorite-like-stars-spark">
    <path id="Union" fill="#000000" fill-rule="evenodd" d="M9.0934 2.55777c1 -2.074422 3.9543 -2.074424 4.9544 0l1.3723 2.8468c0.172 0.35669 0.4598 0.64451 0.8165 0.81646l2.8468 1.37237c2.0744 1.00002 2.0744 3.9543 0 4.9544l-2.8468 1.3723c-0.3567 0.172 -0.6445 0.4598 -0.8165 0.8165l-1.3723 2.8468c-1.0001 2.0744 -3.9544 2.0744 -4.9544 0l-1.37237 -2.8468c-0.17195 -0.3567 -0.45977 -0.6445 -0.81645 -0.8165l-2.84681 -1.3723c-2.07442 -1.0001 -2.07442 -3.95438 0 -4.9544l2.8468 -1.37237c0.35669 -0.17195 0.64451 -0.45977 0.81646 -0.81645L9.0934 2.55777Zm22.1999 5.47655c-0.024 0.0144 -0.0568 0.04019 -0.089 0.10712l-2.9987 6.22046c-0.4176 0.8662 -1.1166 1.5652 -1.9829 1.9828l-6.2204 2.9987c-0.067 0.0323 -0.0927 0.065 -0.1071 0.0891 -0.0189 0.0315 -0.0344 0.0785 -0.0344 0.1361s0.0155 0.1047 0.0344 0.1362c0.0144 0.024 0.0402 0.0568 0.1071 0.089l6.2204 2.9987c0.8663 0.4176 1.5653 1.1166 1.9829 1.9828l2.9987 6.2205c0.0322 0.0669 0.065 0.0927 0.089 0.1071 0.0315 0.0189 0.0786 0.0343 0.1362 0.0343 0.0576 0 0.1046 -0.0154 0.1361 -0.0343 0.0241 -0.0144 0.0568 -0.0402 0.0891 -0.1071l2.9987 -6.2204c0.4176 -0.8663 1.1166 -1.5653 1.9828 -1.9829l6.2205 -2.9987c0.0669 -0.0322 0.0927 -0.065 0.1071 -0.089 0.0188 -0.0315 0.0343 -0.0786 0.0343 -0.1362 0 -0.0576 -0.0155 -0.1046 -0.0343 -0.1361 -0.0144 -0.0241 -0.0402 -0.0568 -0.1072 -0.0891l-6.2204 -2.9987c-0.8662 -0.4176 -1.5652 -1.1166 -1.9828 -1.9828l-2.9987 -6.22046c-0.0323 -0.06693 -0.065 -0.09273 -0.0891 -0.10712C31.5341 8.01549 31.4871 8 31.4295 8s-0.1047 0.01549 -0.1362 0.03432Zm-3.6922 -1.62987c1.5455 -3.20593 6.1112 -3.20594 7.6567 0l2.9987 6.22045c0.0246 0.051 0.0657 0.0921 0.1167 0.1166l6.2204 2.9987c3.206 1.5455 3.206 6.1113 0 7.6568l-6.2204 2.9987c-0.051 0.0246 -0.0921 0.0657 -0.1167 0.1166l-2.9987 6.2205c-1.5455 3.2059 -6.1112 3.2059 -7.6567 0l-2.9987 -6.2205c-0.0246 -0.0509 -0.0657 -0.092 -0.1167 -0.1166l-6.2204 -2.9987c-3.2059 -1.5455 -3.2059 -6.1113 0 -7.6567l6.2204 -2.9988c0.051 -0.0245 0.0921 -0.0656 0.1167 -0.1166l2.9987 -6.22045ZM12.9344 26.8956c-0.024 0.0144 -0.0568 0.0402 -0.089 0.1072l-1.8603 3.8589c-0.4176 0.8662 -1.11658 1.5652 -1.98281 1.9828l-3.8589 1.8603c-0.06693 0.0322 -0.09272 0.065 -0.10712 0.089 -0.01883 0.0315 -0.03432 0.0785 -0.03432 0.1362 0 0.0576 0.01549 0.1046 0.03432 0.1361 0.0144 0.024 0.04019 0.0568 0.10712 0.0891l3.8589 1.8602c0.86623 0.4176 1.56521 1.1166 1.98281 1.9828l1.8603 3.8589c0.0322 0.067 0.065 0.0928 0.089 0.1072 0.0315 0.0188 0.0786 0.0343 0.1362 0.0343 0.0576 0 0.1047 -0.0155 0.1361 -0.0343 0.0241 -0.0144 0.0568 -0.0402 0.0891 -0.1072l1.8602 -3.8589c0.4176 -0.8662 1.1166 -1.5652 1.9829 -1.9828l3.8589 -1.8602c0.0669 -0.0323 0.0927 -0.0651 0.1071 -0.0891 0.0188 -0.0315 0.0343 -0.0785 0.0343 -0.1361 0 -0.0577 -0.0155 -0.1047 -0.0343 -0.1362 -0.0144 -0.024 -0.0402 -0.0568 -0.1071 -0.089l-3.8589 -1.8603c-0.8663 -0.4176 -1.5653 -1.1166 -1.9829 -1.9828l-1.8602 -3.8589c-0.0323 -0.067 -0.065 -0.0928 -0.0891 -0.1072 -0.0314 -0.0188 -0.0785 -0.0343 -0.1361 -0.0343s-0.1047 0.0155 -0.1362 0.0343Zm-3.69219 -1.6298c1.54549 -3.206 6.11129 -3.206 7.65679 0l1.8602 3.8589c0.0246 0.0509 0.0657 0.092 0.1167 0.1166l3.8589 1.8603c3.2059 1.5455 3.2059 6.1112 0 7.6567l-3.8589 1.8603c-0.051 0.0246 -0.0921 0.0657 -0.1167 0.1166l-1.8602 3.8589c-1.5455 3.206 -6.1113 3.206 -7.65679 0l-1.86027 -3.8589c-0.02456 -0.0509 -0.06568 -0.092 -0.11664 -0.1166l-3.8589 -1.8603c-3.20593 -1.5455 -3.205929 -6.1112 0 -7.6567l3.8589 -1.8603c0.05095 -0.0246 0.09207 -0.0657 0.11664 -0.1166l1.86027 -3.8589Z" clip-rule="evenodd" stroke-width="1"></path>
  </g>
</svg>