<svg xmlns="http://www.w3.org/2000/svg" fill="none" viewBox="0 0 48 48" id="Open-Umbrella--Streamline-Plump-Remix">
  <desc>
    Open Umbrella Streamline Icon: https://streamlinehq.com
  </desc>
  <g id="open-umbrella--storm-rain-umbrella-open-weather">
    <path id="Union" fill="#000000" fill-rule="evenodd" d="M4.4863 20.8819c0.5104 -3.5978 2.7983 -7.5936 6.3516 -10.7107 3.5317 -3.098 8.1556 -5.187 13.1621 -5.187s9.6304 2.089 13.162 5.187c3.5533 3.1171 5.8412 7.1129 6.3517 10.7107 0.0052 0.0362 0.0018 0.0569 0 0.0653 -0.002 0.0088 -0.0053 0.014 -0.0053 0.014l-0.0016 0.002c-0.0016 0.0019 -0.0046 0.0049 -0.01 0.0088 -0.0074 0.0051 -0.0263 0.0166 -0.0633 0.0259 -2.2687 0.5718 -7.7682 1.5012 -19.4335 1.5012 -11.6653 0 -17.1649 -0.9294 -19.4335 -1.5012 -0.0371 -0.0093 -0.0559 -0.0208 -0.0633 -0.0259 -0.0079 -0.0055 -0.0115 -0.0108 -0.0115 -0.0108s-0.0034 -0.0052 -0.0054 -0.014c-0.0018 -0.0084 -0.0052 -0.0291 0 -0.0653ZM24 0.9808c-6.1339 0 -11.6666 2.5532 -15.802 6.1809 -4.1138 3.6086 -7.0035 8.4219 -7.6754 13.1578 -0.2987 2.1053 0.9997 4.0397 3.0655 4.5603 2.429 0.6123 7.3876 1.43 16.909 1.5936v12.539c0 4.4221 3.5847 8.0068 8.0067 8.0068 4.4219 0 8.0068 -3.5847 8.0068 -8.0068v-1.2711c0 -1.2326 -0.7981 -2.4146 -2.1086 -2.6171 -0.4297 -0.0664 -0.9092 -0.1151 -1.3944 -0.1151s-0.9648 0.0487 -1.3945 0.1151c-1.3105 0.2025 -2.1085 1.3845 -2.1085 2.6171v1.2711c0 0.5528 -0.448 1.0009 -1.0008 1.0009s-1.0008 -0.4481 -1.0008 -1.0009v-12.539c9.5213 -0.1636 14.4799 -0.9813 16.9088 -1.5936 2.0659 -0.5206 3.3643 -2.455 3.0656 -4.5603 -0.672 -4.7359 -3.5616 -9.5491 -7.6754 -13.1578C35.6666 3.534 30.1339 0.9808 24 0.9808Z" clip-rule="evenodd" stroke-width="1"></path>
  </g>
</svg>