<svg xmlns="http://www.w3.org/2000/svg" fill="none" viewBox="0 0 48 48" id="Panoramic-Screen--Streamline-Plump-Remix">
  <desc>
    Panoramic Screen Streamline Icon: https://streamlinehq.com
  </desc>
  <g id="panoramic-screen">
    <path id="Union" fill="#000000" fill-rule="evenodd" d="M7.74161 6.91126c-1.38542 -0.65548 -2.92342 -0.46471 -4.07674 0.13199 -1.16065 0.60048 -2.27509 1.80572 -2.35279 3.50425C1.16612 13.7384 1 18.5633 1 24.0004c0 5.437 0.16612 10.2619 0.31208 13.4528 0.0777 1.6985 1.19214 2.9038 2.35279 3.5043 1.15332 0.5967 2.69132 0.7874 4.07674 0.1319C10.6138 39.7305 15.825 38.0374 24 38.0374c8.175 0 13.3862 1.6931 16.2584 3.052 1.3854 0.6555 2.9234 0.4648 4.0767 -0.1319 1.1607 -0.6005 2.2751 -1.8058 2.3528 -3.5043 0.146 -3.1909 0.3121 -8.0158 0.3121 -13.4528 0 -5.4371 -0.1661 -10.262 -0.3121 -13.4529 -0.0777 -1.69853 -1.1921 -2.90377 -2.3528 -3.50425 -1.1533 -0.5967 -2.6913 -0.78747 -4.0767 -0.13199C37.3862 8.27018 32.175 9.96331 24 9.96331c-8.175 0 -13.3862 -1.69313 -16.25839 -3.05205ZM5.30146 10.7657c-0.00041 -0.0002 0.00035 -0.0038 0.00351 -0.0102 -0.00152 0.0071 -0.0031 0.0103 -0.00351 0.0102Zm0.20147 -0.1698c-0.13442 0.0696 -0.18162 0.1298 -0.19601 0.1559C5.16312 13.9008 5 18.6528 5 24.0004c0 5.3475 0.16312 10.0995 0.30692 13.2485 0.01439 0.0261 0.06159 0.0863 0.19601 0.1559 0.10899 0.0564 0.22976 0.0885 0.33741 0.0945 0.10564 0.0059 0.16654 -0.0142 0.19057 -0.0256 1.75606 -0.8308 4.13649 -1.7133 7.21909 -2.376V12.903c-3.0826 -0.6627 -5.46303 -1.5452 -7.21909 -2.376 -0.02403 -0.0114 -0.08493 -0.0315 -0.19057 -0.0256 -0.10765 0.006 -0.22842 0.0381 -0.33741 0.0945ZM18.75 13.7304v20.5399c1.6168 -0.1486 3.3649 -0.2329 5.25 -0.2329s3.6332 0.0843 5.25 0.2329V13.7304c-1.6168 0.1486 -3.3649 0.2329 -5.25 0.2329s-3.6332 -0.0843 -5.25 -0.2329Zm16 -0.8274v22.1947c3.0826 0.6627 5.463 1.5452 7.2191 2.376 0.024 0.0114 0.0849 0.0315 0.1906 0.0256 0.1076 -0.006 0.2284 -0.0381 0.3374 -0.0945 0.1344 -0.0696 0.1816 -0.1298 0.196 -0.1559 0.1438 -3.149 0.3069 -7.901 0.3069 -13.2485 0 -5.3476 -0.1631 -10.0996 -0.3069 -13.2486 -0.0144 -0.0261 -0.0616 -0.0863 -0.196 -0.1559 -0.109 -0.0564 -0.2298 -0.0885 -0.3374 -0.0945 -0.1057 -0.0059 -0.1666 0.0142 -0.1906 0.0256 -1.7561 0.8308 -4.1365 1.7133 -7.2191 2.376ZM5.30146 37.2351c0.00041 -0.0002 0.00199 0.003 0.00351 0.0101 -0.00316 -0.0064 -0.00392 -0.01 -0.00351 -0.0101Zm37.39714 0.0003c0.0001 0 0.0001 -0.0002 0 0 -0.0004 -0.0003 -0.002 0.0026 -0.0036 0.0097 0.0027 -0.0053 0.0036 -0.0086 0.0036 -0.0097Zm-0.001 -26.4711c0.0004 0.001 0.0008 0.0014 0.0009 0.0014 0.0005 -0.0002 -0.0003 -0.0038 -0.0035 -0.0102 0.001 0.0044 0.0019 0.0072 0.0026 0.0088Z" clip-rule="evenodd" stroke-width="1"></path>
  </g>
</svg>