<svg xmlns="http://www.w3.org/2000/svg" fill="none" viewBox="0 0 48 48" id="Pencil-Square--Streamline-Plump-Remix">
  <desc>
    Pencil Square Streamline Icon: https://streamlinehq.com
  </desc>
  <g id="pencil-square--change-document-edit-modify-paper-pencil-write-writing">
    <path id="Union" fill="#000000" fill-rule="evenodd" d="M40.0005 1.94172c-1.9741 -1.310851 -4.3525 -0.61817 -5.9147 0.94398l-1.5475 1.54757c1.6581 0.96139 3.7878 2.48279 6.1678 4.86277 2.3793 2.37926 3.9005 4.50836 4.8619 6.16636l1.5473 -1.5473c1.5621 -1.5621 2.2548 -3.94058 0.944 -5.91461 -0.6343 -0.95517 -1.5198 -2.0811 -2.7487 -3.31006 -1.229 -1.22896 -2.3549 -2.11443 -3.3101 -2.74871ZM15.8697 21.1019 30.3304 6.64118c1.4785 0.77098 3.679 2.20086 6.2543 4.77622 2.5745 2.5744 4.0043 4.7744 4.7754 6.2529l-14.461 14.461c-0.6113 0.6112 -1.4045 1.0473 -2.3047 1.1343 -1.3289 0.1282 -3.7833 0.2435 -7.575 -0.0217 -1.2117 -0.0848 -2.1775 -1.0506 -2.2623 -2.2624 -0.2652 -3.7916 -0.1499 -6.2461 -0.0217 -7.5749 0.087 -0.9002 0.5231 -1.6935 1.1343 -2.3047Zm9.8616 -14.3424c-0.7953 -0.00744 -1.6222 -0.01142 -2.4813 -0.01142 -6.8133 0 -11.6045 0.25047 -14.63363 0.49086 -1.57597 0.12507 -2.75043 1.29953 -2.8755 2.87546C5.50048 13.1436 5.25 17.9347 5.25 24.7481c0 6.8133 0.25047 11.6044 0.49087 14.6336 0.12506 1.576 1.29952 2.7504 2.87549 2.8755 3.02914 0.2404 7.82034 0.4909 14.63364 0.4909s11.6045 -0.2505 14.6336 -0.4909c1.576 -0.125 2.7505 -1.2995 2.8755 -2.8755 0.2404 -3.0292 0.4909 -7.8203 0.4909 -14.6336 0 -0.8591 -0.004 -1.686 -0.0114 -2.4813 -0.0104 -1.1045 0.8766 -2.0083 1.9812 -2.0186 1.1045 -0.0104 2.0083 0.8766 2.0186 1.9812 0.0076 0.8079 0.0116 1.6473 0.0116 2.5187 0 6.911 -0.2541 11.808 -0.5034 14.9501 -0.2806 3.5354 -3.0111 6.2659 -6.5465 6.5465 -3.1421 0.2493 -8.0391 0.5034 -14.9501 0.5034 -6.9111 0 -11.8081 -0.2541 -14.95008 -0.5034 -3.5354 -0.2806 -6.26595 -3.0111 -6.54652 -6.5465 -0.24934 -3.1421 -0.5034 -8.0391 -0.5034 -14.9501 0 -6.9111 0.25406 -11.8081 0.50341 -14.95011 0.28056 -3.5354 3.01112 -6.26595 6.54652 -6.54651 3.14207 -0.24935 8.03897 -0.5034 14.95007 -0.5034 0.8714 0 1.7108 0.00404 2.5187 0.0116 1.1045 0.01033 1.9915 0.9141 1.9812 2.01862 -0.0103 1.10452 -0.9141 1.99154 -2.0186 1.9812Z" clip-rule="evenodd" stroke-width="1"></path>
  </g>
</svg>