<svg xmlns="http://www.w3.org/2000/svg" fill="none" viewBox="0 0 48 48" id="Thermometer--Streamline-Plump-Remix">
  <desc>
    Thermometer Streamline Icon: https://streamlinehq.com
  </desc>
  <g id="thermometer--temperature-thermometer-weather-level-meter-mercury-measure">
    <path id="Union" fill="#000000" fill-rule="evenodd" d="M22.9079 4.51361C23.251 4.50479 23.6147 4.5 24 4.5c0.3853 0 0.749 0.00479 1.0921 0.01361 2.5535 0.06559 4.3341 1.96246 4.4856 4.98878 0.1404 2.80661 0.2556 6.84601 0.2556 12.54311 0 1.0414 -0.0038 2.0275 -0.011 2.9609 -0.0044 0.5758 0.2396 1.1255 0.6695 1.5085 2.0029 1.7847 3.2582 4.3741 3.2582 7.2578 0 5.3686 -4.3616 9.7273 -9.75 9.7273s-9.75 -4.3587 -9.75 -9.7273c0 -2.8837 1.2553 -5.4731 3.2582 -7.2578 0.4299 -0.383 0.6739 -0.9327 0.6695 -1.5085 -0.0072 -0.9334 -0.011 -1.9195 -0.011 -2.9609 0 -5.6971 0.1152 -9.7365 0.2556 -12.54311 0.1515 -3.02632 1.9321 -4.92319 4.4856 -4.98878ZM24 0.5c-0.4184 0 -0.8164 0.005205 -1.1948 0.014925 -5.1103 0.131268 -8.1469 4.171795 -8.3779 8.787525 -0.1444 2.88655 -0.2606 6.99405 -0.2606 12.74305 0 0.7355 0.0019 1.4441 0.0055 2.1267 -2.4238 2.473 -3.9222 5.8628 -3.9222 9.6005C10.25 41.3577 16.4097 47.5 24 47.5s13.75 -6.1423 13.75 -13.7273c0 -3.7377 -1.4984 -7.1275 -3.9222 -9.6005 0.0036 -0.6826 0.0055 -1.3912 0.0055 -2.1267 0 -5.749 -0.1162 -9.8565 -0.2606 -12.74305 -0.231 -4.61573 -3.2676 -8.656255 -8.3779 -8.787525C24.8164 0.505206 24.4185 0.5 24 0.5Zm0.0005 7.3418c1.3807 0 2.5 1.11928 2.5 2.5v18.0749c2.0138 0.9417 3.409 2.9857 3.409 5.3557 0 3.2635 -2.6456 5.9091 -5.9091 5.9091 -3.2635 0 -5.9091 -2.6456 -5.9091 -5.9091 0 -2.37 1.3953 -4.4142 3.4092 -5.3558V10.3418c0 -1.38072 1.1193 -2.5 2.5 -2.5Z" clip-rule="evenodd" stroke-width="1"></path>
  </g>
</svg>