<svg xmlns="http://www.w3.org/2000/svg" fill="none" viewBox="0 0 48 48" id="Triangle-Arrow-Curvy-Both-Direction-2--Streamline-Plump-Remix">
  <desc>
    Triangle Arrow Curvy Both Direction 2 Streamline Icon: https://streamlinehq.com
  </desc>
  <g id="triangle-arrow-curvy-both-direction-2--both-direction-arrow-curvy-diagram-zigzag-horizontal">
    <path id="Union" fill="#000000" fill-rule="evenodd" d="M14.3858 3.53211C13.9587 1.2374 11.44 -0.325532 9.10837 0.96282 6.7669 2.25664 4.04883 4.43018 2.0683 6.70112c-0.95857 1.09914 -1.04371 2.5489 -0.41992 3.67958 0.60285 1.0927 1.79917 1.7812 3.14328 1.7178 1.10091 -0.052 2.19552 -0.1051 3.28676 -0.1581h0.00169c9.43729 -0.4581 18.62169 -0.9038 29.43749 -0.4752 1.9071 0.0756 3.3759 1.5172 3.4646 3.2929 0.0351 0.7023 0.057 1.4162 0.057 2.0998 0 0.6252 -0.0106 1.218 -0.0287 1.7738 -0.0578 1.7751 -1.6144 3.2182 -3.7049 3.1443 -3.5377 -0.125 -8.4187 -0.2564 -13.3063 -0.2564 -5.1363 0 -10.2654 0.1451 -13.8366 0.2755 -3.73271 0.1362 -6.9857 2.9357 -7.15217 6.8896 -0.0316 0.7507 -0.05126 1.571 -0.05126 2.4503 0 0.7677 0.02463 1.5525 0.06233 2.3061 0.19881 3.9729 3.45725 6.9386 7.3021 7.091 8.2747 0.3279 15.6194 0.152 22.7629 -0.1502 0.1054 1.5637 0.3239 2.9987 0.5263 4.0864 0.4272 2.2947 2.9459 3.8576 5.2775 2.5693 2.3415 -1.2939 5.0596 -3.4674 7.0401 -5.7384 0.9586 -1.0991 1.0437 -2.5489 0.4199 -3.6795 -0.6029 -1.0927 -1.7992 -1.7813 -3.1433 -1.7178 -1.1015 0.052 -2.1968 0.1051 -3.2886 0.1581 -9.4369 0.458 -18.6211 0.9038 -29.4364 0.4752 -1.90728 -0.0756 -3.3766 -1.5175 -3.4655 -3.294 -0.03526 -0.7047 -0.05733 -1.4208 -0.05733 -2.1062 0 -0.8198 0.01833 -1.5839 0.04772 -2.282 0.06947 -1.65 1.42915 -2.9923 3.30161 -3.0606 3.5459 -0.1294 8.6218 -0.2728 13.6907 -0.2728 4.823 0 9.6528 0.1298 13.1651 0.2539 3.9804 0.1407 7.7041 -2.7152 7.844 -7.0116 0.0194 -0.5972 0.0308 -1.2334 0.0308 -1.904 0 -0.7657 -0.0244 -1.5481 -0.062 -2.2994 -0.1984 -3.9729 -3.457 -6.93782 -7.3012 -7.09016 -8.2751 -0.32794 -15.62 -0.15205 -22.7638 0.15012 -0.1054 -1.56372 -0.3239 -2.99871 -0.5264 -4.08635Z" clip-rule="evenodd" stroke-width="1"></path>
  </g>
</svg>