<svg xmlns="http://www.w3.org/2000/svg" fill="none" viewBox="0 0 48 48" id="Triangle-Arrow-Synchronize-2--Streamline-Plump-Remix">
  <desc>
    Triangle Arrow Synchronize 2 Streamline Icon: https://streamlinehq.com
  </desc>
  <g id="triangle-arrow-synchronize-2--arrows-loading-load-sync-synchronize-arrow-reload">
    <path id="Union" fill="#000000" fill-rule="evenodd" d="M12.6023 3.66312C21.383 -1.18905 31.9808 -0.282334 39.639 5.17448c0.5635 -0.49954 1.0704 -0.93067 1.523 -1.30191 1.1817 -0.96933 2.7128 -1.20673 4.0396 -0.63008 1.3204 0.57391 2.1908 1.84552 2.3119 3.35268 0.2457 3.05847 0.1765 6.41783 0.0324 9.15153 -0.1316 2.4977 -2.121 4.4912 -4.6203 4.6231 -2.7123 0.1432 -6.0407 0.2125 -9.0789 -0.0274 -1.5279 -0.1207 -2.803 -1.0101 -3.3748 -2.338 -0.5733 -1.3312 -0.34 -2.8726 0.6377 -4.0645 0.1956 -0.2385 0.4074 -0.4918 0.6365 -0.7599 -4.0528 -2.2615 -9.2388 -2.4412 -13.5994 -0.0315 -3.5728 1.9743 -5.8152 5.2538 -6.4901 8.8031 -0.2773 1.4587 -1.2022 3.2662 -3.1812 3.9046 -1.56496 0.505 -2.97478 0.6504 -4.09973 0.6438 -2.67558 -0.0159 -4.270636 -2.392 -4.027468 -4.6746C1.13131 14.4744 5.46513 7.60701 12.6023 3.66312Zm25.8719 5.65679C31.9891 3.9607 22.3928 2.82302 14.5369 7.16415 8.54597 10.4747 4.97106 16.1911 4.32569 22.2491c-0.00837 0.0786 -0.00468 0.1873 0.05331 0.2496 0.89619 0.1374 2.02719 -0.1779 2.8682 -0.4492 0.04536 -0.0147 0.12145 -0.052 0.21801 -0.1853 0.10448 -0.1442 0.2067 -0.3702 0.26176 -0.6598 0.89591 -4.7118 3.86503 -9.0039 8.48513 -11.55695 6.4705 -3.57556 14.3332 -2.72771 19.7885 1.57715 0.4368 0.3447 0.7102 0.8558 0.7546 1.4104 0.0445 0.5546 -0.1442 1.1027 -0.5205 1.5125 -0.7907 0.8609 -1.4292 1.5985 -1.9405 2.2175 2.7531 0.2079 5.8267 0.1473 8.4205 0.0104 0.4528 -0.0239 0.8127 -0.3818 0.8368 -0.8393 0.137 -2.6003 0.1975 -5.6817 -0.0111 -8.44026 -0.6666 0.55247 -1.4736 1.25651 -2.4295 2.14631 -0.7348 0.684 -1.8629 0.71727 -2.6367 0.07776ZM35.3979 44.3369c-8.7808 4.8521 -19.3786 3.9454 -27.03684 -1.5114 -0.56348 0.4996 -1.0704 0.9307 -1.52297 1.3019 -1.18171 0.9694 -2.71277 1.2068 -4.03956 0.6301C1.47807 44.1836 0.607659 42.912 0.486577 41.4048c-0.245713 -3.0584 -0.17648 -6.4178 -0.032414 -9.1515 0.131634 -2.4977 2.120997 -4.4912 4.620387 -4.6231 2.71225 -0.1432 6.04075 -0.2125 9.07885 0.0274 1.528 0.1207 2.8031 1.0101 3.3749 2.338 0.5732 1.3312 0.3399 2.8726 -0.6377 4.0645 -0.1957 0.2385 -0.4075 0.4918 -0.6365 0.7599 4.0527 2.2615 9.2387 2.4412 13.5993 0.0315 3.5728 -1.9743 5.8153 -5.2538 6.4901 -8.8031 0.2774 -1.4587 1.2023 -3.2662 3.1812 -3.9046 1.565 -0.505 2.9748 -0.6504 4.0997 -0.6438 2.6756 0.0159 4.2707 2.392 4.0275 4.6746 -0.7831 7.351 -5.1169 14.2184 -12.254 18.1623ZM9.52594 38.6801c6.48516 5.3592 16.08136 6.4969 23.93736 2.1557 5.9908 -3.3105 9.5657 -9.0269 10.2111 -15.0849 0.0084 -0.0786 0.0047 -0.1873 -0.0533 -0.2496 -0.8962 -0.1374 -2.0272 0.1779 -2.8682 0.4492 -0.0454 0.0147 -0.1214 0.052 -0.218 0.1853 -0.1045 0.1442 -0.2067 0.3702 -0.2618 0.6598 -0.8959 4.7118 -3.865 9.0039 -8.4851 11.557 -6.4705 3.5755 -14.3332 2.7277 -19.7884 -1.5772 -0.4368 -0.3447 -0.7103 -0.8558 -0.7547 -1.4104 -0.0444 -0.5546 0.1442 -1.1027 0.5206 -1.5125 0.7907 -0.8609 1.4291 -1.5985 1.9404 -2.2175 -2.7531 -0.2079 -5.82666 -0.1473 -8.42053 -0.0104 -0.4528 0.0239 -0.81264 0.3818 -0.83675 0.8393 -0.13704 2.6003 -0.19756 5.6817 0.01104 8.4403 0.6666 -0.5525 1.47365 -1.2566 2.42955 -2.1463 0.73483 -0.6841 1.86287 -0.7173 2.63673 -0.0778Z" clip-rule="evenodd" stroke-width="1"></path>
  </g>
</svg>