<svg xmlns="http://www.w3.org/2000/svg" fill="none" viewBox="0 0 48 48" id="User-Single-Neutral-Male--Streamline-Plump-Remix">
  <desc>
    User Single Neutral Male Streamline Icon: https://streamlinehq.com
  </desc>
  <g id="user-single-neutral-male--close-geometric-human-person-single-user-male">
    <path id="Union" fill="#000000" fill-rule="evenodd" d="M35.5847 18.0367c-1.6863 -0.2295 -3.288 -0.7255 -4.7606 -1.444 0.0528 0.1793 0.0811 0.3691 0.0811 0.5655v0.4886c0 1.1046 -0.8955 2 -2 2 -1.1046 0 -2 -0.8954 -2 -2v-0.4886c0 -0.9659 0.6847 -1.7719 1.5953 -1.959 -1.8413 -1.3322 -3.382 -3.0525 -4.5005 -5.0411 -1.1186 1.9885 -2.6591 3.7088 -4.5004 5.0409 0.911 0.1868 1.5961 0.993 1.5961 1.9592v0.4886c0 1.1046 -0.8954 2 -2 2 -1.1045 0 -2 -0.8954 -2 -2v-0.4886c0 -0.1966 0.0284 -0.3866 0.0813 -0.5661 -1.473 0.7189 -3.075 1.215 -4.7617 1.4446 0.633 3.9487 3.2544 7.2411 6.8139 8.8205l0.0141 0.0059 0.0215 0.0093c1.4455 0.6358 3.0461 0.99 4.7352 0.99 1.6891 0 3.2896 -0.3542 4.7352 -0.99 0.0118 -0.0052 0.0236 -0.0103 0.0355 -0.0152 3.5595 -1.5794 6.1809 -4.8718 6.814 -8.8205ZM24 0.5C15.3184 0.5 8.26805 7.51397 8.26805 16.1816c0 4.9104 2.26275 9.29 5.80305 12.1643 -4.38772 2.3331 -7.73152 6.1855 -9.08138 10.845 -1.07461 3.7093 1.62837 6.8735 5.00069 7.405 2.90519 0.4578 7.42219 0.9026 14.00959 0.9026 6.5873 0 11.1043 -0.4448 14.0095 -0.9026 3.3723 -0.5315 6.0753 -3.6957 5.0007 -7.405 -1.3499 -4.6595 -4.6937 -8.5119 -9.0813 -10.845 3.5392 -2.8734 5.8017 -7.2514 5.803 -12.1601v-0.0042C39.7319 7.51397 32.6815 0.5 24 0.5Zm-5.6284 30.3295c1.748 0.6678 3.6456 1.0337 5.6284 1.0337 1.9827 0 3.8803 -0.3659 5.6283 -1.0337 4.7493 1.6186 8.2995 5.193 9.5399 9.4744 0.2808 0.9693 -0.3262 2.1114 -1.7813 2.3407 -2.671 0.4209 -6.9774 0.8539 -13.3869 0.8539 -6.4096 0 -10.7159 -0.433 -13.3869 -0.8539 -1.45523 -0.2293 -2.06217 -1.3714 -1.78136 -2.3407 1.24036 -4.2814 4.79056 -7.8558 9.53986 -9.4744Zm3.3752 -9.3964c-0.6076 -0.9225 -1.848 -1.1777 -2.7704 -0.5701 -0.9225 0.6075 -1.1777 1.8479 -0.5701 2.7703 1.3055 1.9821 3.5421 2.8544 5.5936 2.8544 2.0515 0 4.2882 -0.8723 5.5937 -2.8544 0.6076 -0.9224 0.3523 -2.1628 -0.5701 -2.7703 -0.9225 -0.6076 -2.1628 -0.3524 -2.7704 0.5701 -0.411 0.624 -1.2395 1.0546 -2.2532 1.0546 -1.0136 0 -1.8421 -0.4306 -2.2531 -1.0546Z" clip-rule="evenodd" stroke-width="1"></path>
  </g>
</svg>