<svg xmlns="http://www.w3.org/2000/svg" fill="none" viewBox="0 0 48 48" id="User-Switch-Account--Streamline-Plump-Remix">
  <desc>
    User Switch Account Streamline Icon: https://streamlinehq.com
  </desc>
  <g id="user-switch-account">
    <path id="Union" fill="#000000" fill-rule="evenodd" d="M12.9939 0.966495C15.4825 0.723376 19.1017 0.5 23.9997 0.5c1.1045 0 2 0.89543 2 2s-0.8955 2 -2 2c-4.7766 0 -8.2657 0.21785 -10.6169 0.44754 -1.3259 0.12954 -2.3543 1.10841 -2.5673 2.48497 0.8643 0.06529 1.7022 0.16581 2.4854 0.30155 2.0951 0.36313 3.0576 2.74044 1.8826 4.46254 -1.5627 2.2903 -3.6541 4.5655 -4.6984 5.6581 -1.15526 1.2086 -3.07004 1.209 -4.22842 0.0133 -1.0798 -1.1145 -3.30346 -3.4974 -4.77553 -5.7249 -1.153925 -1.746 -0.12706 -4.04225 1.89669 -4.39879 1.06154 -0.18702 2.22527 -0.30885 3.4199 -0.36553 0.26107 -3.33422 2.74803 -6.07543 6.19616 -6.412285ZM37.1835 40.5687c-0.8857 -0.0669 -1.7438 -0.1708 -2.5439 -0.3117 -2.0237 -0.3566 -3.0506 -2.6528 -1.8967 -4.3989 1.4721 -2.2275 3.6957 -4.6103 4.7755 -5.7249 1.1584 -1.1957 3.0732 -1.1952 4.2284 0.0134 1.0443 1.0926 3.1357 3.3678 4.6984 5.658 1.1751 1.7221 0.2125 4.0995 -1.8825 4.4626 -1.0454 0.1812 -2.1883 0.2996 -3.3612 0.3553 -0.2622 3.3338 -2.7508 6.0733 -6.1974 6.4099 -1.2213 0.1193 -2.7147 0.2338 -4.4978 0.3195 -1.1033 0.0531 -2.0407 -0.7983 -2.0937 -1.9016 -0.053 -1.1033 0.7984 -2.0407 1.9017 -2.0937 1.7194 -0.0827 3.1471 -0.1925 4.3009 -0.3052 1.3257 -0.1295 2.3543 -1.1079 2.5683 -2.4827ZM35.9675 4.5c-2.9414 0 -5.327 2.38546 -5.327 5.32955 0 1.90255 0.995 3.57385 2.5019 4.51945 0.6239 0.3915 0.9821 1.0943 0.9324 1.8292 -0.0498 0.735 -0.4995 1.383 -1.1706 1.6868 -2.1606 0.9783 -3.843 2.9764 -4.4557 5.4539 -0.01 0.0401 -0.0059 0.0563 -0.0046 0.0613 0.0022 0.009 0.0108 0.0352 0.0422 0.0729 0.0688 0.0826 0.2196 0.1835 0.4385 0.2018 1.7421 0.1456 4.2473 0.2996 7.0429 0.2996 2.7956 0 5.3008 -0.154 7.0429 -0.2996 0.2189 -0.0183 0.3697 -0.1192 0.4385 -0.2018 0.0314 -0.0377 0.0399 -0.0635 0.0421 -0.0725 0.0013 -0.005 0.0055 -0.0216 -0.0045 -0.0617 -0.6127 -2.4775 -2.2951 -4.4756 -4.4557 -5.4539 -0.6711 -0.3038 -1.1208 -0.9518 -1.1706 -1.6868 -0.0497 -0.7349 0.3085 -1.4377 0.9324 -1.8292 1.5069 -0.9456 2.5019 -2.6169 2.5019 -4.51945 0 -2.94409 -2.3856 -5.32955 -5.327 -5.32955Zm-9.327 5.32955C26.6405 4.67764 30.8157 0.5 35.9675 0.5s9.327 4.17764 9.327 9.32955c0 2.25035 -0.7972 4.31385 -2.1216 5.92405 2.0433 1.6396 3.5411 3.9542 4.1967 6.605 0.7181 2.9039 -1.6371 5.0827 -4.026 5.2824 -1.82 0.1521 -4.4406 0.3135 -7.3761 0.3135s-5.5561 -0.1614 -7.3761 -0.3135c-2.3889 -0.1997 -4.7441 -2.3785 -4.026 -5.2824 0.6556 -2.6508 2.1534 -4.9654 4.1967 -6.605 -1.3244 -1.6102 -2.1216 -3.6737 -2.1216 -5.92405ZM6.70581 29.3745c0 -2.9441 2.38563 -5.3296 5.32699 -5.3296 2.9413 0 5.327 2.3855 5.327 5.3296 0 1.9026 -0.9951 3.5739 -2.5019 4.5195 -0.624 0.3915 -0.9822 1.0943 -0.9324 1.8292 0.0497 0.7349 0.4995 1.383 1.1705 1.6868 2.1605 0.9782 3.843 2.9764 4.4557 5.4538 0.0099 0.0401 0.0058 0.0563 0.0046 0.0614 -0.0023 0.009 -0.0108 0.0351 -0.0423 0.0728 -0.0688 0.0826 -0.2196 0.1835 -0.4384 0.2018 -1.7421 0.1456 -4.2474 0.2997 -7.043 0.2997 -2.79552 0 -5.30079 -0.1541 -7.04288 -0.2997 -0.21885 -0.0183 -0.36965 -0.1192 -0.43848 -0.2018 -0.03142 -0.0377 -0.03988 -0.0635 -0.04212 -0.0725 -0.00127 -0.0051 -0.00544 -0.0216 0.00447 -0.0617 0.61272 -2.4775 2.29522 -4.4757 4.45584 -5.4539 0.67104 -0.3038 1.12077 -0.9518 1.17057 -1.6867 0.0498 -0.735 -0.30844 -1.4378 -0.93236 -1.8293 -1.50685 -0.9456 -2.50183 -2.6169 -2.50183 -4.5194Zm5.32699 -9.3296c-5.15182 0 -9.32699 4.1777 -9.32699 9.3296 0 2.2503 0.79713 4.3137 2.12157 5.9239 -2.04336 1.6396 -3.54123 3.9543 -4.196802 6.6051 -0.7181709 2.904 1.637042 5.0827 4.025922 5.2824 1.82007 0.1522 4.44066 0.3136 7.3761 0.3136 2.9355 0 5.5561 -0.1614 7.3762 -0.3136 2.3889 -0.1997 4.7441 -2.3784 4.0259 -5.2824 -0.6555 -2.6507 -2.1533 -4.9653 -4.1966 -6.6049 1.3245 -1.6102 2.1217 -3.6738 2.1217 -5.9241 0 -5.1519 -4.1752 -9.3296 -9.327 -9.3296Z" clip-rule="evenodd" stroke-width="1"></path>
  </g>
</svg>