<svg xmlns="http://www.w3.org/2000/svg" fill="none" viewBox="0 0 48 48" id="Voice-Scan-1--Streamline-Plump-Remix">
  <desc>
    Voice Scan 1 Streamline Icon: https://streamlinehq.com
  </desc>
  <g id="voice-scan-1--identification-secure-id-soundwave-sound-voice-brackets-security">
    <path id="Union" fill="#000000" fill-rule="evenodd" d="M13.0684 5.24898c1.2421 -0.03778 2.2184 -1.0753 2.1806 -2.31737 -0.0378 -1.24207 -1.0753 -2.218332 -2.3174 -2.180549L6.5755 0.944408c-0.02146 0.000653 -0.04292 0.001613 -0.06436 0.002881C3.50567 1.12495 1.12552 3.50463 0.947579 6.51026c-0.001271 0.02147 -0.002234 0.04296 -0.002889 0.06446L0.751064 12.9315c-0.037833 1.2421 0.938386 2.2796 2.180456 2.3175 1.24206 0.0378 2.27962 -0.9384 2.31746 -2.1805l0.19242 -6.31728c0.0538 -0.70896 0.60121 -1.25636 1.31035 -1.31009l6.31665 -0.19215Zm22 -4.497919c-1.242 -0.037783 -2.2796 0.938479 -2.3173 2.180549 -0.0378 1.24207 0.9384 2.27959 2.1805 2.31737l6.3167 0.19215c0.7091 0.05372 1.2565 0.6011 1.3103 1.31005l0.1925 6.31732c0.0378 1.2421 1.0754 2.2183 2.3174 2.1805 1.2421 -0.0379 2.2183 -1.0754 2.1805 -2.3175l-0.1936 -6.35678c-0.0007 -0.0215 -0.0017 -0.04299 -0.0029 -0.06446 -0.178 -3.00563 -2.5581 -5.38531 -5.5636 -5.562971 -0.0214 -0.001268 -0.0429 -0.002228 -0.0644 -0.002881L35.0684 0.751061ZM5.24898 34.9315c-0.03784 -1.242 -1.0754 -2.2183 -2.31746 -2.1804 -1.24207 0.0378 -2.21829 1.0754 -2.180456 2.3174l0.193626 6.3568c0.000655 0.0215 0.001619 0.043 0.00289 0.0645 0.17794 3.0056 2.55809 5.3853 5.56356 5.5629 0.02144 0.0013 0.0429 0.0023 0.06436 0.0029l6.3561 0.1934c1.2421 0.0378 2.2796 -0.9385 2.3174 -2.1806 0.0378 -1.242 -0.9385 -2.2796 -2.1806 -2.3173l-6.31663 -0.1922c-0.70915 -0.0537 -1.25657 -0.6011 -1.31037 -1.3101l-0.19242 -6.3173Zm42.00002 0.137c0.0378 -1.242 -0.9384 -2.2796 -2.1805 -2.3174 -1.242 -0.0379 -2.2796 0.9384 -2.3174 2.1804l-0.1925 6.3174c-0.0538 0.7089 -0.6012 1.2563 -1.3103 1.31l-6.3167 0.1922c-1.2421 0.0377 -2.2183 1.0753 -2.1805 2.3173 0.0377 1.2421 1.0753 2.2184 2.3173 2.1806l6.3561 -0.1934c0.007 -0.0002 0.0139 -0.0004 0.0208 -0.0007 0.0057 -0.0002 0.0114 -0.0005 0.0171 -0.0007l0.0265 -0.0015c3.0055 -0.1776 5.3856 -2.5573 5.5636 -5.5629 0.0012 -0.0215 0.0022 -0.043 0.0029 -0.0645l0.1936 -6.3568ZM13.6322 11.9433c1.1641 -2.24497 4.4131 -2.13089 5.4168 0.1903l5.476 12.6632 4.5658 -9.4576c1.0239 -2.1209 3.9805 -2.289 5.2381 -0.2977l3.4467 5.4573 5.9225 -0.0001c1.2733 0 2.4979 0.8247 2.6982 2.1816 0.0605 0.4096 0.1037 0.8614 0.1037 1.3184 0 0.4571 -0.0432 0.9089 -0.1037 1.3185 -0.2003 1.3568 -1.4249 2.1815 -2.6982 2.1815H36.717c-1.5515 0 -2.9937 -0.7993 -3.816 -2.115l-0.8262 -1.322 -5.2121 11.7271c-1.0777 2.4248 -4.5414 2.3594 -5.5269 -0.1042L15.916 22.1351l-1.8265 3.131c-0.8064 1.3825 -2.2865 2.2326 -3.887 2.2326H4.26571c-1.25169 0 -2.46567 -0.801 -2.66237 -2.1445 -0.06047 -0.413 -0.10332 -0.8747 -0.10332 -1.3555 0 -0.4807 0.04284 -0.9424 0.10332 -1.3554 0.1967 -1.3435 1.41068 -2.1445 2.66236 -2.1445h4.93036l4.43614 -8.5555Z" clip-rule="evenodd" stroke-width="1"></path>
  </g>
</svg>