<svg xmlns="http://www.w3.org/2000/svg" fill="none" viewBox="0 0 48 48" id="Warp-Squeeze--Streamline-Plump-Remix">
  <desc>
    Warp Squeeze Streamline Icon: https://streamlinehq.com
  </desc>
  <g id="warp-squeeze">
    <path id="Union" fill="#000000" fill-rule="evenodd" d="M24.0004 5C15.6773 5 10.5926 7.69847 7.91057 9.75215c-0.08948 0.06851 -0.20511 0.25185 -0.14292 0.54725 0.04334 0.2059 0.19206 0.4334 0.46818 0.5903C11.7228 12.8713 17.3378 17.0887 17.3378 24c0 6.9113 -5.615 11.1287 -9.10197 13.1103 -0.27612 0.1569 -0.42484 0.3844 -0.46818 0.5903 -0.06219 0.2954 0.05344 0.4787 0.14292 0.5473C10.5926 40.3015 15.6773 43 24.0004 43s13.4077 -2.6985 16.0898 -4.7522c0.0895 -0.0685 0.2051 -0.2518 0.1429 -0.5472 -0.0433 -0.2059 -0.1921 -0.4334 -0.4682 -0.5903 -3.487 -1.9816 -9.1019 -6.199 -9.1019 -13.1103 0 -6.9113 5.6149 -11.1287 9.1019 -13.1103 0.2761 -0.1569 0.4249 -0.3844 0.4682 -0.5903 0.0622 -0.2954 -0.0534 -0.47874 -0.1429 -0.54725C37.4081 7.69847 32.3235 5 24.0004 5ZM5.47875 6.57626C8.80591 4.02861 14.7337 1 24.0004 1 33.267 1 39.1948 4.02861 42.522 6.57626c1.4593 1.11739 1.9649 2.93371 1.6253 4.54704 -0.301 1.43 -1.2288 2.5751 -2.4061 3.2441C38.423 16.2531 34.663 19.4444 34.663 24s3.76 7.7469 7.0782 9.6326c1.1773 0.669 2.1051 1.8141 2.4061 3.2441 0.3396 1.6133 -0.166 3.4297 -1.6253 4.547C39.1948 43.9714 33.267 47 24.0004 47c-9.2667 0 -15.19449 -3.0286 -18.52165 -5.5763 -1.45927 -1.1173 -1.96493 -2.9337 -1.62532 -4.547 0.30101 -1.43 1.22879 -2.5751 2.40609 -3.2441C9.57776 31.7469 13.3378 28.5556 13.3378 24s-3.76004 -7.7469 -7.07828 -9.6326c-1.17729 -0.669 -2.10508 -1.8141 -2.40609 -3.2441 -0.33961 -1.61333 0.16604 -3.42966 1.62532 -4.54704Z" clip-rule="evenodd" stroke-width="1"></path>
  </g>
</svg>