<svg xmlns="http://www.w3.org/2000/svg" fill="none" viewBox="0 0 48 48" id="Wave-Signal-Square--Streamline-Plump-Remix">
  <desc>
    Wave Signal Square Streamline Icon: https://streamlinehq.com
  </desc>
  <g id="wave-signal-square--heart-line-stats-beat-square-graph">
    <path id="Union" fill="#000000" fill-rule="evenodd" d="M24 1c-7.4139 0 -12.6187 0.27854 -15.90479 0.54553 -3.53203 0.28697 -6.2627 3.01764 -6.54968 6.54967C1.27855 11.3813 1 16.5861 1 24s0.27854 12.6187 0.54553 15.9048c0.28697 3.532 3.01764 6.2627 6.54968 6.5497C11.3813 46.7215 16.5861 47 24 47s12.6187 -0.2785 15.9048 -0.5455c3.532 -0.287 6.2627 -3.0177 6.5497 -6.5497C46.7214 36.6187 47 31.4139 47 24s-0.2786 -12.6187 -0.5455 -15.90478c-0.287 -3.53204 -3.0177 -6.26271 -6.5497 -6.54968C36.6187 1.27855 31.4139 1 24 1ZM8.41914 5.53239C11.5896 5.2748 16.6859 5 24 5s12.4104 0.27481 15.5809 0.5324c1.5785 0.12825 2.7584 1.30818 2.8867 2.88674 0.2143 2.63786 0.4406 6.60906 0.5105 12.08166h-8.6806c-1.6005 0 -3.0806 0.85 -3.887 2.2325l-1.8381 3.1509 -5.4227 -12.8788c-1.0879 -2.584 -4.6208 -2.9037 -6.1551 -0.5572l-5.2651 8.0526H5.02188c0.06995 -5.4726 0.2962 -9.4438 0.51052 -12.08167 0.12825 -1.57856 1.30818 -2.75848 2.88674 -2.88674ZM5.02189 27.5008c0.06998 5.4717 0.2962 9.4424 0.5105 12.0801 0.12826 1.5785 1.30818 2.7585 2.88674 2.8867C11.5895 42.7252 16.6859 43 24 43c7.314 0 12.4104 -0.2748 15.5808 -0.5324 1.5786 -0.1282 2.7585 -1.3082 2.8868 -2.8867 0.2143 -2.6377 0.4405 -6.6084 0.5105 -12.0801h-6.7076l-5.2651 8.0524c-1.5343 2.3466 -5.0672 2.0268 -6.1551 -0.5572l-5.4227 -12.8788 -1.8381 3.151c-0.8064 1.3824 -2.2865 2.2326 -3.887 2.2326H5.02189Z" clip-rule="evenodd" stroke-width="1"></path>
  </g>
</svg>