<svg xmlns="http://www.w3.org/2000/svg" fill="none" viewBox="0 0 24 24" id="Bag-Dollar--Streamline-Sharp">
  <desc>
    Bag Dollar Streamline Icon: https://streamlinehq.com
  </desc>
  <g id="bag-dollar--bag-payment-cash-money-finance">
    <path id="Vector 1751" stroke="#000000" d="m3 13 6 -7 -3 -4.5h12L15 6l6 7v4a5 5 0 0 1 -5 5H8a5 5 0 0 1 -5 -5v-4Z" stroke-width="1.5"></path>
    <path id="Vector 1752" stroke="#000000" d="M9 6h6" stroke-width="1.5"></path>
    <path id="Vector 2947" stroke="#000000" d="M12 11.5v-2" stroke-width="1.5"></path>
    <path id="Vector 2948" stroke="#000000" d="M12 19.5v-2" stroke-width="1.5"></path>
    <path id="Vector 3037" stroke="#000000" d="M14.25 13v-0.5a1 1 0 0 0 -1 -1h-2.5a1 1 0 0 0 -1 1v0.448a1 1 0 0 0 0.783 0.976l2.933 0.652a1 1 0 0 1 0.784 0.976v0.948a1 1 0 0 1 -1 1h-2.5a1 1 0 0 1 -1 -1V16" stroke-width="1.5"></path>
  </g>
</svg>