<svg xmlns="http://www.w3.org/2000/svg" viewBox="0 0 14 14">
  <g>
    <path d="M13.5,10.29a.7.7,0,0,1-.37.62.71.71,0,0,1-.73,0L7.32,7.59a.7.7,0,0,1,0-1.18l5.08-3.3a.71.71,0,0,1,.73,0,.7.7,0,0,1,.37.62Z" style="fill: none;stroke: #000001;stroke-linecap: round;stroke-linejoin: round"/>
    <path d="M7,10.29a.7.7,0,0,1-.37.62.71.71,0,0,1-.73,0L.82,7.59a.7.7,0,0,1,0-1.18L5.9,3.11a.71.71,0,0,1,.73,0A.7.7,0,0,1,7,3.71Z" style="fill: none;stroke: #000001;stroke-linecap: round;stroke-linejoin: round"/>
  </g>
</svg>
