<svg xmlns="http://www.w3.org/2000/svg" fill="none" viewBox="0 0 14 14" id="Definition-Search-Book--Streamline-Flex">
  <desc>
    Definition Search Book Streamline Icon: https://streamlinehq.com
  </desc>
  <g id="definition-search-book">
    <path id="Subtract" fill="#8fbffa" fill-rule="evenodd" d="M0 10.217V1.22C0 0.79 0.274 0.402 0.693 0.301 2.598 -0.155 4.838 -0.022 6.42 0.744c0.363 0.176 0.795 0.176 1.158 0 1.583 -0.766 3.823 -0.899 5.728 -0.443 0.419 0.1 0.693 0.488 0.693 0.918v6.349c-0.16 -0.26 -0.35 -0.507 -0.579 -0.735 -0.901 -0.902 -2.097 -1.236 -3.264 -1.236 -1.167 0 -2.363 0.334 -3.265 1.236 -0.902 0.902 -1.236 2.098 -1.236 3.265 0 0.256 0.016 0.514 0.051 0.77 -1.509 -0.506 -3.4 -0.546 -5.04 -0.148 -0.331 0.08 -0.666 -0.16 -0.666 -0.503Z" clip-rule="evenodd" stroke-width="1"></path>
    <path id="Subtract_2" fill="#2859c5" fill-rule="evenodd" d="m6.419 0.778 0 -0.034 0.002 0c0.363 0.176 0.795 0.176 1.158 0l0.086 -0.04a0.893 0.893 0 0 1 0.004 0.074V6.23a3.955 3.955 0 0 0 -1.25 1.176V0.778Z" clip-rule="evenodd" stroke-width="1"></path>
    <path id="Vector" fill="#8fbffa" d="M10.157 12.598c1.6 0 2.5 -0.9 2.5 -2.5s-0.9 -2.5 -2.5 -2.5 -2.5 0.9 -2.5 2.5 0.9 2.5 2.5 2.5Z" stroke-width="1"></path>
    <path id="Union" fill="#2859c5" fill-rule="evenodd" d="M8.406 10.098c0 -0.662 0.184 -1.074 0.43 -1.32 0.247 -0.247 0.659 -0.43 1.32 -0.43 0.663 0 1.074 0.183 1.32 0.43 0.247 0.246 0.431 0.658 0.431 1.32s-0.184 1.073 -0.43 1.32c-0.247 0.247 -0.658 0.43 -1.32 0.43s-1.074 -0.183 -1.32 -0.43c-0.247 -0.247 -0.43 -0.658 -0.43 -1.32Zm1.75 -3.25c-0.937 0 -1.776 0.266 -2.38 0.87 -0.604 0.603 -0.87 1.442 -0.87 2.38s0.266 1.777 0.87 2.38c0.604 0.604 1.443 0.87 2.38 0.87 0.656 0 1.264 -0.13 1.776 -0.414l0.738 0.738a0.75 0.75 0 0 0 1.06 -1.06l-0.737 -0.739c0.284 -0.512 0.414 -1.12 0.414 -1.775 0 -0.938 -0.266 -1.777 -0.87 -2.38 -0.603 -0.604 -1.442 -0.87 -2.38 -0.87Z" clip-rule="evenodd" stroke-width="1"></path>
  </g>
</svg>