<svg xmlns="http://www.w3.org/2000/svg" fill="none" viewBox="0 0 24 24"><path stroke="#000" d="M0.5 0.5L10.3573 10.3573M23.5 23.5L16.6427 16.6427M9.5 13C9.5 15.4853 11.5147 17.5 14 17.5M3 9.5H6M3 6.5H0.5V20.5H17M6.5 6.5H7.5C9.15685 6.5 10.5 5.15685 10.5 3.5H17.5C17.5 5.15685 18.8431 6.5 20.5 6.5H23.5V17.5C23.5 19.1569 22.1569 20.5 20.5 20.5M10.3573 10.3573C11.1753 9.23178 12.5022 8.5 14 8.5C16.4853 8.5 18.5 10.5147 18.5 13C18.5 14.4978 17.7682 15.8247 16.6427 16.6427M10.3573 10.3573L16.6427 16.6427"></path></svg>