<svg xmlns="http://www.w3.org/2000/svg" fill="none" viewBox="0 0 24 24"><path stroke="#000" d="M0.5 0.5L23.5 23.5M0.5 23.9L1.14889 19.0982C1.34998 17.6102 2.62027 16.5 4.12186 16.5H5.5L7.85279 21.2056C8.24944 21.9989 9.06027 22.5 9.94721 22.5C10.3107 22.5 10.6691 22.4163 10.9707 22.2133C11.6799 21.736 13.0899 20.6151 14.5 18.5M15.9999 16L20 5.5M23.5 2.35714V6.5H23.25L16.5 4.64286V0.5H16.75L23.5 2.35714ZM4.54701 14.5073C4.54701 14.5073 2.11346 14.4159 1.30471 12.9803C0.679386 11.8703 1.04731 10.4528 2.12649 9.81425C3.20568 9.17569 4.58263 9.56073 5.20796 10.6707C6.01671 12.1064 4.88199 14.3091 4.88199 14.3091L4.54701 14.5073Z"></path></svg>