<svg xmlns="http://www.w3.org/2000/svg" fill="none" viewBox="0 0 14 14" id="Bluetooth-Searching--Streamline-Flex">
  <desc>
    Bluetooth Searching Streamline Icon: https://streamlinehq.com
  </desc>
  <g id="bluetooth-searching--bluetooth-internet-server-network-wireless-searching-connecting-connection">
    <path id="Vector" fill="#7af1ff" d="M7.05811 4.81337c-0.5144 0.45027 -1.57663 1.35081 -2.80842 2.22829 1.21469 0.85528 2.26368 1.7056 2.78595 2.14072 0.19992 0.16656 0.22804 0.45961 0.06052 0.65852 -1.05813 1.2564 -2.22615 2.1344 -3.60188 2.5341 -0.05665 -1.8245 -0.0886 -3.30243 -0.09543 -4.75129 -0.00182 -0.38738 -0.00185 -0.77269 -0.00008 -1.16198 0.00661 -1.45184 0.03831 -2.95916 0.09551 -4.83673 1.43824 0.48326 2.62253 1.34757 3.6174 2.54588 0.16115 0.19409 0.13636 0.47624 -0.05357 0.64249Z" stroke-width="1"></path>
    <path id="Union" fill="#0c098c" fill-rule="evenodd" d="M3.13753 1.11204c0.16235 -0.11301 0.36862 -0.142491 0.55613 -0.07949 1.56146 0.52467 2.83958 1.46279 3.8992 2.7391 0.38136 0.45933 0.31762 1.12651 -0.12279 1.51201 -0.42236 0.3697 -1.2086 1.0386 -2.15742 1.7537 0.92697 0.68351 1.69773 1.31023 2.12336 1.66484 0.46178 0.38473 0.53285 1.07309 0.1385 1.5413 -1.11105 1.3192 -2.37709 2.2877 -3.90556 2.7317 -0.18552 0.0539 -0.38555 0.019 -0.54182 -0.0946 -0.15628 -0.1136 -0.25124 -0.2931 -0.25724 -0.4862 -0.04245 -1.3672 -0.07111 -2.54201 -0.08573 -3.65681 -0.65583 0.3787 -1.32391 0.70654 -1.958314 0.92163 -0.326901 0.11083 -0.681752 -0.06433 -0.7925831 -0.39123 -0.1108306 -0.3269 0.0643293 -0.68176 0.3912301 -0.79259 0.718007 -0.24342 1.531797 -0.67598 2.348527 -1.19205 -0.00032 -0.16086 -0.00033 -0.32168 -0.00003 -0.48288 -0.821 -0.52551 -1.64701 -0.98892 -2.383592 -1.28895 -0.3196754 -0.13021 -0.4732648 -0.49492 -0.3430514 -0.8146 0.1302134 -0.31967 0.4949204 -0.47326 0.8145954 -0.34305 0.620248 0.25265 1.275958 0.59808 1.923018 0.9837 0.01449 -1.12585 0.04311 -2.32609 0.08592 -3.7316 0.00603 -0.19772 0.1053 -0.38092 0.26765 -0.49393Zm1.10513 5.16349c-0.07176 -0.04919 -0.14399 -0.09828 -0.21661 -0.14721 0.00792 -1.10312 0.0302 -2.25302 0.06712 -3.58736 0.92206 0.4424 1.72428 1.08049 2.4341 1.90621 -0.48239 0.41813 -1.3148 1.11588 -2.28461 1.82836Zm0.0042 1.53152c-0.07309 0.05036 -0.14667 0.10053 -0.22067 0.15043 0.00809 1.0974 0.03053 2.22662 0.06721 3.52632 0.86947 -0.4053 1.66384 -1.0499 2.42015 -1.92274 -0.48685 -0.40228 -1.30961 -1.06308 -2.26669 -1.75401Zm6.85044 -5.24268c0.2924 -0.29341 0.7673 -0.29426 1.0607 -0.00189C13.3371 3.73738 14 5.33146 14 6.99419c0 1.66272 -0.6629 3.25681 -1.842 4.43171 -0.2934 0.2924 -0.7683 0.2915 -1.0607 -0.0019s-0.2915 -0.7683 0.0019 -1.0607C11.9964 9.46933 12.5 8.25736 12.5 6.99419c0 -1.26317 -0.5036 -2.47514 -1.4008 -3.36916 -0.2934 -0.29237 -0.2943 -0.76724 -0.0019 -1.06066Zm-0.7909 2.54547c-0.2934 -0.29237 -0.76828 -0.29152 -1.06065 0.00189 -0.29237 0.29342 -0.29152 0.76829 0.00189 1.06066 0.21914 0.21836 0.34176 0.51393 0.34176 0.82157s-0.12262 0.60322 -0.34176 0.82157c-0.29341 0.29237 -0.29426 0.76724 -0.00189 1.06066 0.29237 0.29341 0.76725 0.29426 1.06065 0.00189 0.501 -0.49924 0.783 -1.17693 0.783 -1.88412s-0.282 -1.38488 -0.783 -1.88412Z" clip-rule="evenodd" stroke-width="1"></path>
  </g>
</svg>