<svg xmlns="http://www.w3.org/2000/svg" fill="none" viewBox="0 0 14 14" id="Database--Streamline-Flex">
  <desc>
    Database Streamline Icon: https://streamlinehq.com
  </desc>
  <g id="database--raid-storage-code-disk-programming-database-array-hard-disc">
    <path id="Intersect" fill="#fddc5c" d="M2.54681 11.9648c0.62868 0.5715 1.96519 1.4101 4.3954 1.4101 2.4302 0 3.76719 -0.8386 4.39589 -1.4101 0.3405 -0.3096 0.5099 -0.7519 0.587 -1.2088 0.4474 -2.6508 0.5934 -5.66532 0.0047 -8.30959C11.6459 1.27619 9.88129 0.625 6.94246 0.625s-4.70341 0.65119 -4.98733 1.82141c-0.58874 2.64427 -0.44269 5.65879 0.00467 8.30959 0.0771 0.4569 0.24655 0.8992 0.58701 1.2088Z" stroke-width="1"></path>
    <path id="Union" fill="#0c098c" fill-rule="evenodd" d="M2.34449 3.84036c-0.14035 1.06458 -0.17753 2.1738 -0.1374 3.28139 0.96114 0.51845 2.47448 1.02387 4.73487 1.02387 2.26118 0 3.77484 -0.50577 4.73584 -1.02442 0.0401 -1.10735 0.003 -2.21633 -0.1374 -3.28069 -0.734 0.71027 -2.31385 1.09557 -4.59785 1.09557 -2.28417 0 -3.86412 -0.38536 -4.59806 -1.09572Zm0.23159 6.81164c-0.11519 -0.68253 -0.20951 -1.38695 -0.27587 -2.10049 1.11536 0.47444 2.63119 0.84411 4.64175 0.84411 2.01118 0 3.52734 -0.3699 4.64274 -0.84456 -0.0663 0.7137 -0.1607 1.41827 -0.2759 2.10094 -0.0652 0.3863 -0.1955 0.6725 -0.3911 0.8503 -0.5169 0.4699 -1.70511 1.2476 -3.97549 1.2476 -2.27033 0 -3.45804 -0.7777 -3.97498 -1.2476 -0.19562 -0.1778 -0.32596 -0.464 -0.39115 -0.8503ZM3.23828 0.509989C4.1795 0.165306 5.4377 0 6.94246 0s2.76296 0.165306 3.70414 0.509989c0.9323 0.341404 1.6774 0.910481 1.8906 1.789061l0.0028 0.01151 -0.0002 0.00002c0.6128 2.75233 0.4563 5.85518 0.0016 8.54942 -0.089 0.5275 -0.2976 1.126 -0.7829 1.5672 -0.7404 0.6732 -2.22627 1.5727 -4.81629 1.5727 -2.59008 0 -4.07539 -0.8995 -4.81583 -1.5727 -0.4853 -0.4412 -0.69385 -1.0397 -0.78287 -1.5672 -0.454689 -2.69424 -0.611238 -5.79709 0.00156 -8.54942l0.00257 -0.01155 0.00011 0.00002c0.21316 -0.87858 0.95826 -1.447657 1.89053 -1.789061Z" clip-rule="evenodd" stroke-width="1"></path>
  </g>
</svg>