<svg xmlns="http://www.w3.org/2000/svg" fill="none" viewBox="0 0 14 14" id="Facebook-1--Streamline-Flex">
  <desc>
    Facebook 1 Streamline Icon: https://streamlinehq.com
  </desc>
  <g id="facebook-logo-1--media-facebook-social">
    <path id="Subtract" fill="#ff7972" d="M1.08067 3.79684C0.969167 4.83908 0.875006 5.90911 0.875006 7s0.094156 2.16092 0.205664 3.2032c0.15105 1.4118 1.28658 2.5473 2.69773 2.7046 1.04816 0.1169 2.12436 0.2172 3.2216 0.2172 1.09724 0 2.17344 -0.1003 3.2216 -0.2172 1.4111 -0.1573 2.5467 -1.2928 2.6977 -2.7046 0.1115 -1.04228 0.2057 -2.11231 0.2057 -3.2032s-0.0942 -2.16092 -0.2057 -3.20316c-0.151 -1.41183 -1.2865 -2.54737 -2.6977 -2.70466C9.17344 0.975344 8.09724 0.875 7 0.875c-1.09724 0 -2.17343 0.100344 -3.22159 0.21718 -1.41116 0.15729 -2.54669 1.29283 -2.69774 2.70466Z" stroke-width="1"></path>
    <path id="Union" fill="#0c098c" fill-rule="evenodd" d="M3.84764 1.71333C4.89042 1.5971 5.93861 1.5 7 1.5c1.06138 0 2.10957 0.0971 3.1524 0.21333 1.1211 0.12497 2.0258 1.03108 2.1455 2.15C12.4087 4.89958 12.5 5.94311 12.5 7s-0.0913 2.10042 -0.2021 3.1367c-0.1197 1.1189 -1.0244 2.025 -2.1455 2.15 -0.55881 0.0623 -1.11912 0.119 -1.68218 0.1583V9.95836h1.59908c0.2155 0 0.4098 -0.13745 0.4613 -0.34671 0.147 -0.59791 0.147 -1.16363 0 -1.76154 -0.0515 -0.20926 -0.2458 -0.34671 -0.4613 -0.34671H8.47022v-0.98198c0 -0.54234 0.43876 -0.98199 0.98 -0.98199h0.48c0.27618 0 0.49998 -0.22386 0.49998 -0.5v-0.97297c0 -0.54234 -0.43874 -0.98199 -0.97998 -0.98199h-0.49c-1.62372 0 -2.94 1.31895 -2.94 2.94595V7.5034H4.42116c-0.21549 0 -0.40986 0.13745 -0.46131 0.34671 -0.147 0.59791 -0.147 1.16363 0 1.76154 0.05145 0.20926 0.24582 0.34671 0.46131 0.34671h1.59906v2.51614c-0.72849 -0.0363 -1.45183 -0.1075 -2.17259 -0.1878 -1.12116 -0.125 -2.0258 -1.0311 -2.14551 -2.15C1.59125 9.10043 1.5 8.0569 1.5 7c0 -1.05689 0.09126 -2.10042 0.20212 -3.13667 0.11971 -1.11892 1.02436 -2.02503 2.14552 -2.15ZM6.02022 13.726c-0.79068 -0.0374 -1.56362 -0.1137 -2.31106 -0.197 -1.70115 -0.1896 -3.067562 -1.5546 -3.24995 -3.2594C0.347061 9.22141 0.25 8.12489 0.25 7c0 -1.12489 0.097067 -2.22141 0.209216 -3.26965C0.641604 2.0256 2.00802 0.660641 3.70917 0.471024 4.7627 0.353592 5.8669 0.25 7 0.25c1.1331 0 2.2373 0.103592 3.2908 0.221024 1.7012 0.189617 3.0676 1.554576 3.25 3.259326C13.6529 4.77859 13.75 5.87511 13.75 7c0 1.12489 -0.0971 2.22142 -0.2092 3.2696 -0.1824 1.7048 -1.5488 3.0698 -3.25 3.2594 -0.59213 0.066 -1.20028 0.1276 -1.82058 0.1689v0.0012c-0.48331 0.0322 -0.974 0.052 -1.47022 0.052 -0.32921 0 -0.65598 -0.0087 -0.97978 -0.024v-0.0011Z" clip-rule="evenodd" stroke-width="1"></path>
  </g>
</svg>