<svg xmlns="http://www.w3.org/2000/svg" fill="none" viewBox="0 0 14 14" id="Return-Square-2--Streamline-Flex">
  <desc>
    Return Square 2 Streamline Icon: https://streamlinehq.com
  </desc>
  <g id="return-square-2--arrow-return-enter-keyboard">
    <path id="Intersect" fill="#ff7972" d="M12.9246 10.1534c-0.1532 1.4408 -1.3127 2.6003 -2.7527 2.7599 -1.03247 0.1145 -2.09199 0.2117 -3.1719 0.2117s-2.13943 -0.0972 -3.1719 -0.2117c-1.44005 -0.1596 -2.59951 -1.3191 -2.75273 -2.7599C0.966192 9.12689 0.875 8.07355 0.875 7s0.091192 -2.12689 0.20037 -3.15343c0.15322 -1.44075 1.31268 -2.60028 2.75273 -2.75992C4.86057 0.972199 5.92009 0.875 7 0.875s2.13943 0.097199 3.1719 0.21165c1.4401 0.15964 2.5995 1.31917 2.7527 2.75992 0.1092 1.02654 0.2004 2.07988 0.2004 3.15343s-0.0912 2.12689 -0.2004 3.1534Z" stroke-width="1"></path>
    <path id="Union" fill="#0c098c" fill-rule="evenodd" d="M10.103 1.70785C9.07645 1.59405 8.04452 1.5 7 1.5c-1.04452 0 -2.07645 0.09405 -3.10304 0.20785 -1.14974 0.12745 -2.07806 1.05728 -2.2001 2.20481C1.58837 4.93277 1.5 5.95999 1.5 7s0.08837 2.06723 0.19686 3.0873c0.12204 1.1476 1.05036 2.0774 2.2001 2.2049C4.92355 12.406 5.95548 12.5 7 12.5s2.07645 -0.094 3.103 -0.2078c1.1498 -0.1275 2.0781 -1.0573 2.2001 -2.2049C12.4116 9.06723 12.5 8.04001 12.5 7s-0.0884 -2.06723 -0.1969 -3.08734c-0.122 -1.14753 -1.0503 -2.07736 -2.2001 -2.20481ZM7 0.25c1.1153 0 2.20242 0.100353 3.2408 0.215458 1.7303 0.191817 3.1209 1.581052 3.3053 3.315012C13.656 4.81345 13.75 5.8929 13.75 7c0 1.10709 -0.094 2.18655 -0.2039 3.2195 -0.1844 1.734 -1.575 3.1232 -3.3053 3.315 -1.03838 0.1151 -2.1255 0.2155 -3.2408 0.2155s-2.20242 -0.1004 -3.24076 -0.2155c-1.73036 -0.1918 -3.120962 -1.581 -3.30537 -3.315C0.344012 9.18655 0.25 8.10709 0.25 7c0 -1.1071 0.094012 -2.18655 0.20387 -3.21953C0.638278 2.04651 2.02888 0.657275 3.75924 0.465458 4.79758 0.350353 5.8847 0.25 7 0.25Zm0.4318 7.10498V6.13972c0 -0.21661 0.11215 -0.41778 0.29642 -0.53166 0.18426 -0.11388 0.41434 -0.12423 0.60809 -0.02736 0.88007 0.44004 1.73729 1.29723 2.17729 2.17734 0.088 0.17595 0.088 0.38306 0 0.55901 -0.44 0.88004 -1.29722 1.73725 -2.17729 2.17725 -0.19375 0.0969 -0.42383 0.0865 -0.60809 -0.0273 -0.18427 -0.1139 -0.29642 -0.3151 -0.29642 -0.5317V8.60498h-0.85605c-1.43606 0 -2.60556 -1.15396 -2.62477 -2.58989l-0.02604 -1.94675c-0.00462 -0.34515 0.27144 -0.62869 0.61658 -0.6333 0.34515 -0.00462 0.62869 0.27143 0.63331 0.61658l0.02604 1.94675c0.01006 0.75215 0.62266 1.35661 1.37488 1.35661h0.85605Z" clip-rule="evenodd" stroke-width="1"></path>
  </g>
</svg>