<svg xmlns="http://www.w3.org/2000/svg" fill="none" viewBox="0 0 14 14" id="Webcam-Video-Off--Streamline-Flex">
  <desc>
    Webcam Video Off Streamline Icon: https://streamlinehq.com
  </desc>
  <g id="webcam-video-off--work-video-meeting-camera-company-conference-office-off">
    <path id="Subtract" fill="#79ee8d" fill-rule="evenodd" d="M1.87842 2.2067c0.32554 -0.23297 0.6989 -0.38114 1.09086 -0.42923 1.74335 -0.2032 3.45656 -0.20339 5.19991 0 0.55967 0.06867 1.08143 0.34138 1.48019 0.77367 0.39872 0.4323 0.65102 0.99867 0.71562 1.60676 0.0299 0.28903 0.0551 0.57644 0.0759 0.86271 0.4851 -0.2805 1.0127 -0.53626 1.5622 -0.73236 0.4064 -0.14503 0.8465 0.04328 0.9906 0.44866 0.1937 0.5451 0.3813 1.33558 0.3813 2.26307 0 0.92749 -0.1876 1.71797 -0.3813 2.26307 -0.1441 0.40538 -0.5842 0.59369 -0.9906 0.44866 -0.5496 -0.19613 -1.0773 -0.45194 -1.5624 -0.73249 -0.0206 0.28637 -0.0456 0.57387 -0.0749 0.863 -0.0329 0.30988 -0.1146 0.60888 -0.2395 0.88488 -3.2087 -2.72215 -5.42748 -5.02172 -8.24788 -8.5204Z" clip-rule="evenodd" stroke-width="1"></path>
    <path id="Union" fill="#0c098c" fill-rule="evenodd" d="M0.240403 0.132344C-0.031683 0.34475 -0.0800629 0.73751 0.132343 1.0096 4.54422 6.66107 7.22122 9.30666 12.9874 13.8651c0.2708 0.2141 0.6638 0.1681 0.8779 -0.1026 0.2141 -0.2708 0.1681 -0.6639 -0.1027 -0.8779 -1.0635 -0.8408 -2.0193 -1.6144 -2.8988 -2.3529 0.0541 -0.184 0.0933 -0.3733 0.117 -0.566 0.2628 0.1225 0.5343 0.2355 0.8123 0.3346 0.7043 0.2514 1.5203 -0.0702 1.7896 -0.82793 0.2137 -0.6012 0.4173 -1.46268 0.4173 -2.47239 0 -1.00971 -0.2036 -1.87119 -0.4173 -2.47239 -0.2693 -0.7577 -1.0853 -1.07934 -1.7896 -0.82798 -0.2783 0.09929 -0.55 0.21232 -0.8131 0.33501 -0.0876 -0.71463 -0.3903 -1.386 -0.8712 -1.90724l-0.45026 0.41538 0.45026 -0.41538c-0.49445 -0.53608 -1.15001 -0.88273 -1.86343 -0.97026l0 -0.00001 -0.00369 -0.00043C6.45016 0.947672 4.68837 0.947876 2.89698 1.15667l0 -0.00001 -0.00375 0.00046c-0.29951 0.03675 -0.58915 0.11926 -0.86103 0.24244 -0.29701 -0.37207 -0.60125 -0.757839 -0.91454 -1.159157C0.90525 -0.0316833 0.51249 -0.0800633 0.240403 0.132344ZM9.81737 8.9344c-0.01566 0.21781 -0.03392 0.43639 -0.05478 0.65596 -2.59425 -2.26084 -4.56034 -4.30852 -6.89742 -7.16037 0.05894 -0.01386 0.11852 -0.02453 0.17854 -0.03196 1.69397 -0.19729 3.3573 -0.19746 5.05114 0 0.40529 0.05015 0.79259 0.24883 1.0952 0.57688 0.30371 0.32925 0.50226 0.76828 0.55342 1.24816 0.02916 0.28247 0.05386 0.56323 0.07414 0.84276 0.01558 0.21474 0.14059 0.40635 0.33089 0.50711 0.1902 0.10076 0.419 0.0965 0.6054 -0.01128 0.4584 -0.26512 0.9516 -0.50358 1.4593 -0.68477 0.0539 -0.01924 0.0992 -0.01318 0.1294 0.00026 0.0279 0.0124 0.0495 0.03318 0.0623 0.06908 0.1738 0.489 0.3451 1.20849 0.3451 2.05375 0 0.84526 -0.1713 1.56475 -0.3451 2.05375 -0.0128 0.0359 -0.0344 0.05668 -0.0623 0.06908 -0.0302 0.01344 -0.0755 0.0195 -0.1294 0.00026 -0.5078 -0.18122 -1.001 -0.41972 -1.4595 -0.68489 -0.1865 -0.10782 -0.4153 -0.11205 -0.6056 -0.0112 -0.19032 0.10086 -0.31529 0.2926 -0.33073 0.50742ZM0.151988 4.09189c0.030103 -0.28337 0.093962 -0.56042 0.189297 -0.82456C3.41306 7.09934 5.7566 9.51323 9.31902 12.4944c-0.33096 0.1824 -0.69376 0.3021 -1.0729 0.3486l-0.00382 0.0005c-1.79167 0.2086 -3.55357 0.2088 -5.34536 0l-0.00376 -0.0005c-0.71343 -0.0875 -1.36898 -0.4342 -1.86347 -0.9702 -0.493643 -0.5352 -0.799537 -1.2286 -0.877723 -1.96454l-0.00019 -0.00181C-0.050696 7.94592 -0.0505003 6.05417 0.151792 4.09376l0.000196 -0.00187Z" clip-rule="evenodd" stroke-width="1"></path>
  </g>
</svg>