<svg viewBox="0 0 48 48" xmlns="http://www.w3.org/2000/svg"><path d="M27.660 11.090 A6.720 6.720 0 1 0 41.100 11.090 A6.720 6.720 0 1 0 27.660 11.090 Z" fill="#debb7e"></path><path d="M6.900 11.090 A6.720 6.720 0 1 0 20.340 11.090 A6.720 6.720 0 1 0 6.900 11.090 Z" fill="#debb7e"></path><path d="M34.38,7A6.72,6.72,0,0,1,41,12.42a6.52,6.52,0,0,0,.13-1.33,6.72,6.72,0,1,0-13.43,0,6.53,6.53,0,0,0,.14,1.33A6.72,6.72,0,0,1,34.38,7Z" fill="#f0d5a8"></path><path d="M13.62,7a6.72,6.72,0,0,1,6.58,5.38,6.53,6.53,0,0,0,.14-1.33,6.72,6.72,0,1,0-13.43,0A6.52,6.52,0,0,0,7,12.42,6.72,6.72,0,0,1,13.62,7Z" fill="#f0d5a8"></path><path d="M27.660 11.090 A6.720 6.720 0 1 0 41.100 11.090 A6.720 6.720 0 1 0 27.660 11.090 Z" fill="none" stroke="#45413c" stroke-linecap="round" stroke-linejoin="round"></path><path d="M6.900 11.090 A6.720 6.720 0 1 0 20.340 11.090 A6.720 6.720 0 1 0 6.900 11.090 Z" fill="none" stroke="#45413c" stroke-linecap="round" stroke-linejoin="round"></path><path d="M9.960 45.170 A14.04 1.83 0 1 0 38.040 45.170 A14.04 1.83 0 1 0 9.960 45.170 Z" fill="#45413c" opacity=".15"></path><path d="M37.91,19.63h0V18.39C37.91,11.79,32.26,7,25.28,7H22.72c-7,0-12.63,4.75-12.63,11.35v1.23h0A10.72,10.72,0,0,0,6.3,27.77C6.3,33.39,11.11,38,17.05,38H31c5.94,0,10.75-4.56,10.75-10.18A10.72,10.72,0,0,0,37.91,19.63Z" fill="#debb7e"></path><path d="M37.91,19.63h0V18.39C37.91,11.79,32.26,7,25.28,7H22.72c-7,0-12.63,4.75-12.63,11.35v1.23h0A10.72,10.72,0,0,0,6.3,27.77a9.5,9.5,0,0,0,.2,1.93,10.81,10.81,0,0,1,2.79-5.48,2.85,2.85,0,0,0,.8-2c0-6.61,5.65-11.35,12.63-11.35h2.56c7,0,12.63,4.74,12.63,11.35a2.85,2.85,0,0,0,.8,2A10.81,10.81,0,0,1,41.5,29.7a9.5,9.5,0,0,0,.2-1.93A10.72,10.72,0,0,0,37.91,19.63Z" fill="#f0d5a8"></path><path d="M37.91,19.63h0V18.39C37.91,11.79,32.26,7,25.28,7H22.72c-7,0-12.63,4.75-12.63,11.35v1.23h0A10.72,10.72,0,0,0,6.3,27.77C6.3,33.39,11.11,38,17.05,38H31c5.94,0,10.75-4.56,10.75-10.18A10.72,10.72,0,0,0,37.91,19.63Z" fill="none" stroke="#45413c" stroke-linecap="round" stroke-linejoin="round"></path><path d="M19.120 37.950 A4.88 3.05 0 1 0 28.880 37.950 A4.88 3.05 0 1 0 19.120 37.950 Z" fill="#f0d5a8" stroke="#45413c" stroke-linecap="round" stroke-linejoin="round"></path><path d="M25.83,28.18H22.17a6.11,6.11,0,0,0-6.11,6.1A4.26,4.26,0,0,0,24,36.45a4.26,4.26,0,0,0,7.94-2.17A6.11,6.11,0,0,0,25.83,28.18Z" fill="#f7e5c6"></path><path d="M22.17,31.46h3.66a6.1,6.1,0,0,1,5.82,4.34,4.24,4.24,0,0,0,.29-1.52,6.11,6.11,0,0,0-6.11-6.1H22.17a6.11,6.11,0,0,0-6.11,6.1,4.24,4.24,0,0,0,.29,1.52A6.1,6.1,0,0,1,22.17,31.46Z" fill="#fff5e3"></path><path d="M25.83,28.18H22.17a6.11,6.11,0,0,0-6.11,6.1A4.26,4.26,0,0,0,24,36.45a4.26,4.26,0,0,0,7.94-2.17A6.11,6.11,0,0,0,25.83,28.18Z" fill="none" stroke="#45413c" stroke-linecap="round" stroke-linejoin="round"></path><path d="M27.05,30A3.13,3.13,0,0,1,21,30c0-1,1.36-1.83,3.05-1.83S27.05,29,27.05,30Z" fill="#87898c" stroke="#45413c" stroke-linecap="round" stroke-linejoin="round"></path><path d="M30.110 24.520 A1.830 1.830 0 1 0 33.770 24.520 A1.830 1.830 0 1 0 30.110 24.520 Z" fill="#45413c" stroke="#45413c" stroke-linecap="round" stroke-linejoin="round"></path><path d="M14.230 24.520 A1.830 1.830 0 1 0 17.890 24.520 A1.830 1.830 0 1 0 14.230 24.520 Z" fill="#45413c" stroke="#45413c" stroke-linecap="round" stroke-linejoin="round"></path><path d="M38.65,30.4c0,.55-1,1-2.22,1s-2.22-.45-2.22-1,1-1,2.22-1S38.65,29.85,38.65,30.4Z" fill="#fff5e3"></path><path d="M13.79,30.4c0,.55-1,1-2.22,1s-2.22-.45-2.22-1,1-1,2.22-1S13.79,29.85,13.79,30.4Z" fill="#fff5e3"></path></svg>