<svg viewBox="0 0 48 48" xmlns="http://www.w3.org/2000/svg"><path d="M45.78,24a14.86,14.86,0,0,0-6.86-6.72c.77-.36,2.23-1.4,3.89-4.08a14.43,14.43,0,0,0,1.86-7.55,1.12,1.12,0,0,0-1.28-1.1,34,34,0,0,1-6,.21A10.34,10.34,0,0,0,30.5,6.91a16,16,0,0,0-13,0,10.34,10.34,0,0,0-6.91-2.17,34,34,0,0,1-6-.21,1.12,1.12,0,0,0-1.28,1.1,14.43,14.43,0,0,0,1.86,7.55c1.66,2.68,3.12,3.72,3.89,4.08A14.86,14.86,0,0,0,2.22,24a.56.56,0,0,0,.61.8,9.72,9.72,0,0,1,4.94.72c-.09,0-2.28.69-3.52,3.86a.56.56,0,0,0,.64.76,4.12,4.12,0,0,1,2.24,0C6.84,36.46,16.63,41,24,41s17.16-4.54,16.87-10.85a4.12,4.12,0,0,1,2.24,0,.57.57,0,0,0,.65-.76c-1.25-3.17-3.44-3.83-3.53-3.86a9.72,9.72,0,0,1,4.94-.72A.56.56,0,0,0,45.78,24Z" fill="#dea47a"></path><path d="M4.61,7.82a34,34,0,0,0,6,.21,10.47,10.47,0,0,1,6,1.56,2.1,2.1,0,0,0,1.82.23,16.11,16.11,0,0,1,11.12,0,2.1,2.1,0,0,0,1.82-.23,10.47,10.47,0,0,1,6-1.56,34,34,0,0,0,6-.21,1.13,1.13,0,0,1,1.1.5,17.48,17.48,0,0,0,.18-2.69,1.12,1.12,0,0,0-1.28-1.1,33.93,33.93,0,0,1-6,.21A10.34,10.34,0,0,0,30.5,6.91a16,16,0,0,0-13,0,10.34,10.34,0,0,0-6.91-2.17,34,34,0,0,1-6-.21,1.12,1.12,0,0,0-1.28,1.1,17.48,17.48,0,0,0,.18,2.69A1.13,1.13,0,0,1,4.61,7.82Z" fill="#f0c2a1"></path><path d="M45.78,24a14.86,14.86,0,0,0-6.86-6.72c.77-.36,2.23-1.4,3.89-4.08a14.43,14.43,0,0,0,1.86-7.55,1.12,1.12,0,0,0-1.28-1.1,34,34,0,0,1-6,.21A10.34,10.34,0,0,0,30.5,6.91a16,16,0,0,0-13,0,10.34,10.34,0,0,0-6.91-2.17,34,34,0,0,1-6-.21,1.12,1.12,0,0,0-1.28,1.1,14.43,14.43,0,0,0,1.86,7.55c1.66,2.68,3.12,3.72,3.89,4.08A14.86,14.86,0,0,0,2.22,24a.56.56,0,0,0,.61.8,9.72,9.72,0,0,1,4.94.72c-.09,0-2.28.69-3.52,3.86a.56.56,0,0,0,.64.76,4.12,4.12,0,0,1,2.24,0C6.84,36.46,16.63,41,24,41s17.16-4.54,16.87-10.85a4.12,4.12,0,0,1,2.24,0,.57.57,0,0,0,.65-.76c-1.25-3.17-3.44-3.83-3.53-3.86a9.72,9.72,0,0,1,4.94-.72A.56.56,0,0,0,45.78,24Z" fill="none" stroke="#45413c" stroke-linecap="round" stroke-linejoin="round"></path><path d="M42.81,13.18a13.12,13.12,0,0,0,1.74-5.29,10.22,10.22,0,0,1-5.26.67c-3.65-.49-5,.8-5,.8a14.23,14.23,0,0,1,4.63,7.9C39.69,16.9,41.15,15.86,42.81,13.18Z" fill="#ffcabf"></path><path d="M36,11.09A9.41,9.41,0,0,1,39.5,11,10.33,10.33,0,0,0,44,10.6a15.28,15.28,0,0,0,.57-2.71,10.22,10.22,0,0,1-5.26.67c-3.65-.49-5,.8-5,.8A14.44,14.44,0,0,1,36,11.09Z" fill="#ffa694"></path><path d="M42.81,13.18a13.12,13.12,0,0,0,1.74-5.29,10.22,10.22,0,0,1-5.26.67c-3.65-.49-5,.8-5,.8a14.23,14.23,0,0,1,4.63,7.9C39.69,16.9,41.15,15.86,42.81,13.18Z" fill="none" stroke="#45413c" stroke-linecap="round" stroke-linejoin="round"></path><path d="M5.19,13.18A13.12,13.12,0,0,1,3.45,7.89a10.22,10.22,0,0,0,5.26.67c3.65-.49,5,.8,5,.8a14.23,14.23,0,0,0-4.63,7.9C8.31,16.9,6.85,15.86,5.19,13.18Z" fill="#ffcabf"></path><path d="M12,11.09A9.41,9.41,0,0,0,8.5,11,10.27,10.27,0,0,1,4,10.6a14.5,14.5,0,0,1-.58-2.71,10.22,10.22,0,0,0,5.26.67c3.65-.49,5,.8,5,.8A14.44,14.44,0,0,0,12,11.09Z" fill="#ffa694"></path><path d="M5.19,13.18A13.12,13.12,0,0,1,3.45,7.89a10.22,10.22,0,0,0,5.26.67c3.65-.49,5,.8,5,.8a14.23,14.23,0,0,0-4.63,7.9C8.31,16.9,6.85,15.86,5.19,13.18Z" fill="none" stroke="#45413c" stroke-linecap="round" stroke-linejoin="round"></path><path d="M29.41,30.61s1.15,0,3.54-2.78A11,11,0,0,0,35.2,24a.57.57,0,0,1,1-.22,6.05,6.05,0,0,1,1.07,6.35c-1.5,4-6,5.29-6,5.29Z" fill="#fff"></path><path d="M18.59,30.61s-1.15,0-3.54-2.78A11,11,0,0,1,12.8,24a.57.57,0,0,0-1-.22,6.05,6.05,0,0,0-1.07,6.35c1.5,4,6,5.29,6,5.29Z" fill="#fff"></path><path d="M37.23,27.43c-1.5,4-6,5.29-6,5.29l-.94-2.46a2,2,0,0,1-.89.35l1.83,4.78s4.49-1.31,6-5.29a6.18,6.18,0,0,0,.29-3.68A7.45,7.45,0,0,1,37.23,27.43Z" fill="#e0e0e0"></path><path d="M16.76,32.72s-4.49-1.31-6-5.29a7.45,7.45,0,0,1-.29-1,6.18,6.18,0,0,0,.29,3.68c1.5,4,6,5.29,6,5.29l1.83-4.78a2,2,0,0,1-.89-.35Z" fill="#e0e0e0"></path><path d="M29.41,30.61s1.15,0,3.54-2.78A11,11,0,0,0,35.2,24a.57.57,0,0,1,1-.22,6.05,6.05,0,0,1,1.07,6.35c-1.5,4-6,5.29-6,5.29Z" fill="none" stroke="#45413c" stroke-linecap="round" stroke-linejoin="round"></path><path d="M18.59,30.61s-1.15,0-3.54-2.78A11,11,0,0,1,12.8,24a.57.57,0,0,0-1-.22,6.05,6.05,0,0,0-1.07,6.35c1.5,4,6,5.29,6,5.29Z" fill="none" stroke="#45413c" stroke-linecap="round" stroke-linejoin="round"></path><path d="M17.62,20.73a1.13,1.13,0,1,1-1.13-1.12A1.12,1.12,0,0,1,17.62,20.73Z" fill="#45413c" stroke="#45413c" stroke-linecap="round" stroke-linejoin="round"></path><path d="M32.63,20.73a1.13,1.13,0,1,1-1.12-1.12A1.12,1.12,0,0,1,32.63,20.73Z" fill="#45413c" stroke="#45413c" stroke-linecap="round" stroke-linejoin="round"></path><path d="M31.51,34.07c0,2.9-3.36,3.29-7.51,3.29s-7.51-.39-7.51-3.29,3.36-8.44,7.51-8.44S31.51,31.17,31.51,34.07Z" fill="#ffa694"></path><path d="M24,27.88c3.61,0,6.62,4.19,7.34,7.2a2.89,2.89,0,0,0,.17-1c0-2.9-3.36-8.44-7.51-8.44s-7.51,5.54-7.51,8.44a2.89,2.89,0,0,0,.17,1C17.38,32.07,20.39,27.88,24,27.88Z" fill="#ffcabf"></path><path d="M31.51,34.07c0,2.9-3.36,3.29-7.51,3.29s-7.51-.39-7.51-3.29,3.36-8.44,7.51-8.44S31.51,31.17,31.51,34.07Z" fill="none" stroke="#45413c" stroke-linecap="round" stroke-linejoin="round"></path><path d="M22.25,32.33c.34,1.06.07,2.09-.6,2.3s-1.48-.47-1.81-1.53-.07-2.08.6-2.29S21.92,31.28,22.25,32.33Z" fill="#ff866e" stroke="#45413c" stroke-linecap="round" stroke-linejoin="round"></path><path d="M25.75,32.33c-.34,1.06-.07,2.09.6,2.3s1.48-.47,1.81-1.53.07-2.08-.6-2.29S26.08,31.28,25.75,32.33Z" fill="#ff866e" stroke="#45413c" stroke-linecap="round" stroke-linejoin="round"></path><path d="M11.610 45.310 A12.39 1.69 0 1 0 36.390 45.310 A12.39 1.69 0 1 0 11.610 45.310 Z" fill="#45413c" opacity=".15"></path></svg>