<svg viewBox="0 0 48 48" xmlns="http://www.w3.org/2000/svg"><path d="M20.85,5.58a1.81,1.81,0,0,1,1.8,1.8V11H20.4L19.18,8.07A1.8,1.8,0,0,1,20.85,5.58Z" fill="#ff87af" stroke="#45413c" stroke-linecap="round" stroke-linejoin="round"></path><path d="M27.15,5.58a1.8,1.8,0,0,1,1.67,2.49L27.6,11H25.35V7.38A1.81,1.81,0,0,1,27.15,5.58Z" fill="#ff87af" stroke="#45413c" stroke-linecap="round" stroke-linejoin="round"></path><path d="M24,5.13A2.3,2.3,0,0,1,26.26,7.8l-.46,2.74H22.2L21.74,7.8A2.3,2.3,0,0,1,24,5.13Z" fill="#ff87af" stroke="#45413c" stroke-linecap="round" stroke-linejoin="round"></path><path d="M12.22,26.37a4.32,4.32,0,0,0,0-1.64,4.51,4.51,0,0,0-8.81,1.89,9.16,9.16,0,0,0,7.11,7c8.78,2.14,8.1.91,8.1.91Z" fill="#6dd627"></path><path d="M3.52,27.19A5.16,5.16,0,0,1,7.37,24a5.17,5.17,0,0,1,4.91,1.44,5,5,0,0,0-.09-.66,4.51,4.51,0,0,0-8.81,1.89C3.42,26.81,3.47,27,3.52,27.19Z" fill="#9ceb60"></path><path d="M12.22,26.37a4.32,4.32,0,0,0,0-1.64,4.51,4.51,0,0,0-8.81,1.89,9.16,9.16,0,0,0,7.11,7c8.78,2.14,8.1.91,8.1.91Z" fill="none" stroke="#45413c" stroke-linecap="round" stroke-linejoin="round"></path><path d="M41.13,17.76a4.69,4.69,0,0,0-5,4.33c0,.12,0,.24,0,.36h0l-3.06,7s1.87,1.74,5.71,1.15c4.28-.64,6.53-4.95,6.75-7.83A4.69,4.69,0,0,0,41.13,17.76Z" fill="#6dd627"></path><path d="M40.53,20.45a5.66,5.66,0,0,1,4.83,3.15c0-.28.09-.55.11-.81a4.7,4.7,0,0,0-9.35-.93A5.93,5.93,0,0,1,40.53,20.45Z" fill="#9ceb60"></path><path d="M41.13,17.76a4.69,4.69,0,0,0-5,4.33c0,.12,0,.24,0,.36h0l-3.06,7s1.87,1.74,5.71,1.15c4.28-.64,6.53-4.95,6.75-7.83A4.69,4.69,0,0,0,41.13,17.76Z" fill="none" stroke="#45413c" stroke-linecap="round" stroke-linejoin="round"></path><path d="M12.500 45.500 A11.5 1.5 0 1 0 35.500 45.500 A11.5 1.5 0 1 0 12.500 45.500 Z" fill="#45413c" opacity=".15"></path><path d="M24,9.63A13.18,13.18,0,0,0,10.94,23.15c0,5.06,2.22,11.64,3.69,15.42a10,10,0,0,0,18.74,0c1.47-3.78,3.69-10.36,3.69-15.42A13.18,13.18,0,0,0,24,9.63Z" fill="#6dd627"></path><path d="M24,14.25A13.12,13.12,0,0,1,36.91,25.64a21.57,21.57,0,0,0,.15-2.49A13.21,13.21,0,0,0,24,9.63,13.18,13.18,0,0,0,10.94,23.15a21.57,21.57,0,0,0,.15,2.49A13.07,13.07,0,0,1,24,14.25Z" fill="#9ceb60"></path><path d="M24,9.63A13.18,13.18,0,0,0,10.94,23.15c0,5.06,2.22,11.64,3.69,15.42a10,10,0,0,0,18.74,0c1.47-3.78,3.69-10.36,3.69-15.42A13.18,13.18,0,0,0,24,9.63Z" fill="none" stroke="#45413c" stroke-linecap="round" stroke-linejoin="round"></path><path d="M24,32.16h0a2,2,0,0,1-2-1.79l-.21-2.68a.45.45,0,0,1,.45-.49h3.52a.45.45,0,0,1,.45.49L26,30.37A2,2,0,0,1,24,32.16Z" fill="#ff866e" stroke="#45413c" stroke-linecap="round" stroke-linejoin="round"></path><path d="M16.920 22.250 A1.350 1.350 0 1 0 19.620 22.250 A1.350 1.350 0 1 0 16.920 22.250 Z" fill="#45413c" stroke="#45413c" stroke-linecap="round" stroke-linejoin="round"></path><path d="M28.380 22.250 A1.350 1.350 0 1 0 31.080 22.250 A1.350 1.350 0 1 0 28.380 22.250 Z" fill="#45413c" stroke="#45413c" stroke-linecap="round" stroke-linejoin="round"></path><path d="M18.27,27c0,.54-.74,1-1.64,1S15,27.55,15,27s.73-1,1.64-1S18.27,26.48,18.27,27Z" fill="#c8ffa1"></path><path d="M29.73,27c0,.54.74,1,1.64,1S33,27.55,33,27s-.73-1-1.64-1S29.73,26.48,29.73,27Z" fill="#c8ffa1"></path><path d="M23.15 5.29L22.65 3.78" fill="none" stroke="#45413c" stroke-linecap="round" stroke-linejoin="round"></path><path d="M24.85 5.29L25.35 3.78" fill="none" stroke="#45413c" stroke-linecap="round" stroke-linejoin="round"></path><path d="M15.98 12.42L14.54 10.99" fill="none" stroke="#45413c" stroke-linecap="round" stroke-linejoin="round"></path><path d="M12.2 17.27L10.49 16.84" fill="none" stroke="#45413c" stroke-linecap="round" stroke-linejoin="round"></path><path d="M31.74 12.22L33.01 10.54" fill="none" stroke="#45413c" stroke-linecap="round" stroke-linejoin="round"></path><path d="M35.14 16.03L36.61 15.04" fill="none" stroke="#45413c" stroke-linecap="round" stroke-linejoin="round"></path><path d="M41.97 17.9L42.47 16.39" fill="none" stroke="#45413c" stroke-linecap="round" stroke-linejoin="round"></path><path d="M45.48 22.45L47.43 21.8" fill="none" stroke="#45413c" stroke-linecap="round" stroke-linejoin="round"></path><path d="M43.66 27.49L45.17 29.01" fill="none" stroke="#45413c" stroke-linecap="round" stroke-linejoin="round"></path><path d="M37.79 30.72L38.42 32.61" fill="none" stroke="#45413c" stroke-linecap="round" stroke-linejoin="round"></path><path d="M7.4 21.18L6.88 19.09" fill="none" stroke="#45413c" stroke-linecap="round" stroke-linejoin="round"></path><path d="M3.41 24.59L1.93 23.6" fill="none" stroke="#45413c" stroke-linecap="round" stroke-linejoin="round"></path><path d="M5.98 31.26L4.63 32.61" fill="none" stroke="#45413c" stroke-linecap="round" stroke-linejoin="round"></path><path d="M10.89 33.7L10.49 35.31" fill="none" stroke="#45413c" stroke-linecap="round" stroke-linejoin="round"></path><path d="M14.58 38.45L13.19 38.92" fill="none" stroke="#45413c" stroke-linecap="round" stroke-linejoin="round"></path><path d="M34.26 36.15L35.71 37.11" fill="none" stroke="#45413c" stroke-linecap="round" stroke-linejoin="round"></path><path d="M40.22 22.7L41.12 21.35" fill="none" stroke="#45413c" stroke-linecap="round" stroke-linejoin="round"></path><path d="M39.77 26.3L41.12 25.85" fill="none" stroke="#45413c" stroke-linecap="round" stroke-linejoin="round"></path><path d="M9.13 28.1L7.33 27.2" fill="none" stroke="#45413c" stroke-linecap="round" stroke-linejoin="round"></path><path d="M28.5 15.49L28.96 13.69" fill="none" stroke="#45413c" stroke-linecap="round" stroke-linejoin="round"></path><path d="M20.4 15.04L19.95 13.69" fill="none" stroke="#45413c" stroke-linecap="round" stroke-linejoin="round"></path><path d="M31.21 35.31L32.56 34.41" fill="none" stroke="#45413c" stroke-linecap="round" stroke-linejoin="round"></path><path d="M17.69 34.86L16.34 33.96" fill="none" stroke="#45413c" stroke-linecap="round" stroke-linejoin="round"></path><path d="M27.6 37.11L28.05 35.76" fill="none" stroke="#45413c" stroke-linecap="round" stroke-linejoin="round"></path></svg>