<svg viewBox="0 0 48 48" xmlns="http://www.w3.org/2000/svg"><path d="M6.890 44.100 A17.11 1.9 0 1 0 41.110 44.100 A17.11 1.9 0 1 0 6.890 44.100 Z" fill="#45413c" opacity=".15"></path><path d="M29.44,11.43C18.93,2.45,11.29.59,7.17,2c-3.75,1.29-5,6.94.95,12.9C6,8.51,5.13,5.62,7.8,4.5s9.7.12,18.37,7.65c9,7.84,16.82,18.47,14,20.28s-12.13-2.3-21.06-9.53C18.06,22,14.9,22.28,14,21.39c1.4,1.44,1.51,4.67,3.15,6.07,10.51,9,22.73,11.77,26,7.91S40,20.4,29.44,11.43Z" fill="#ffe500" stroke="#ebcb00" stroke-linecap="round" stroke-linejoin="round"></path><path d="M14.63,19.92l3.52,1.17A.9.9,0,0,0,19,21l3-2.24a.91.91,0,0,1,1.46.73l0,3.72a.9.9,0,0,0,.39.75l3,2.13a.91.91,0,0,1-.25,1.61L23,28.78a.9.9,0,0,0-.6.6l-1.08,3.55a.91.91,0,0,1-1.61.26l-2.16-3a.89.89,0,0,0-.75-.38l-3.71.06a.9.9,0,0,1-.75-1.44l2.21-3a.91.91,0,0,0,.12-.83l-1.2-3.52A.9.9,0,0,1,14.63,19.92Z" fill="#ffe500"></path><path d="M26.81,26.05l-2.16-1.51L23,25.05a.92.92,0,0,0-.6.61l-1.08,3.55a.91.91,0,0,1-1.61.26l-2.16-3a.87.87,0,0,0-.75-.38l-2.77.05-1.69,2.29a.9.9,0,0,0,.75,1.44l3.71-.06a.89.89,0,0,1,.75.38l2.16,3a.91.91,0,0,0,1.61-.26l1.08-3.55a.9.9,0,0,1,.6-.6l3.54-1.12A.91.91,0,0,0,26.81,26.05Z" fill="#ebcb00"></path><path d="M14.63,19.92l3.52,1.17A.9.9,0,0,0,19,21l3-2.24a.91.91,0,0,1,1.46.73l0,3.72a.9.9,0,0,0,.39.75l3,2.13a.91.91,0,0,1-.25,1.61L23,28.78a.9.9,0,0,0-.6.6l-1.08,3.55a.91.91,0,0,1-1.61.26l-2.16-3a.89.89,0,0,0-.75-.38l-3.71.06a.9.9,0,0,1-.75-1.44l2.21-3a.91.91,0,0,0,.12-.83l-1.2-3.52A.9.9,0,0,1,14.63,19.92Z" fill="none" stroke="#45413c" stroke-linecap="round" stroke-linejoin="round"></path></svg>