<svg viewBox="0 0 48 48" xmlns="http://www.w3.org/2000/svg"><path d="M41.32,31.59a.55.55,0,0,0,.53-.67l-2.39-10a15.62,15.62,0,0,0-1.6-4.08c.9-8.28-1.23-14.29-3.49-14.68-2-.33-5.78,4.91-7.14,6.9a15.56,15.56,0,0,0-6.47,0c-1.36-2-5.18-7.23-7.13-6.9-2.26.39-4.4,6.4-3.5,14.68a15.6,15.6,0,0,0-1.59,4.08l-2.39,10a.55.55,0,0,0,.53.67H8.8a.55.55,0,0,1,.54.67L8.93,34a.55.55,0,0,0,.68.65l3.19-.89a2,2,0,0,1,2.44,1.21c1.87,4.7,4.23,7.57,8.76,7.57s6.88-2.87,8.76-7.57a2,2,0,0,1,2.43-1.21l3.2.89a.54.54,0,0,0,.67-.65l-.4-1.7a.55.55,0,0,1,.53-.67Z" fill="#ffaa54"></path><path d="M13.63,5.63c1.68-.29,4.73,3.54,6.42,5.88a2,2,0,0,0,1.89.82A15.48,15.48,0,0,1,24,12.18a15.73,15.73,0,0,1,2.06.15,2,2,0,0,0,1.88-.82c1.7-2.34,4.75-6.17,6.43-5.88S37.73,9.46,38,14.78c.38-7.22-1.59-12.31-3.66-12.66S28.59,7,27.23,9a15.56,15.56,0,0,0-6.47,0c-1.36-2-5.18-7.23-7.13-6.9S9.59,7.56,10,14.78C10.26,9.46,11.91,5.92,13.63,5.63Z" fill="#fc9"></path><path d="M41.32,31.59a.55.55,0,0,0,.53-.67l-2.39-10a15.62,15.62,0,0,0-1.6-4.08c.9-8.28-1.23-14.29-3.49-14.68-2-.33-5.78,4.91-7.14,6.9a15.56,15.56,0,0,0-6.47,0c-1.36-2-5.18-7.23-7.13-6.9-2.26.39-4.4,6.4-3.5,14.68a15.6,15.6,0,0,0-1.59,4.08l-2.39,10a.55.55,0,0,0,.53.67H8.8a.55.55,0,0,1,.54.67L8.93,34a.55.55,0,0,0,.68.65l3.19-.89a2,2,0,0,1,2.44,1.21c1.87,4.7,4.23,7.57,8.76,7.57s6.88-2.87,8.76-7.57a2,2,0,0,1,2.43-1.21l3.2.89a.54.54,0,0,0,.67-.65l-.4-1.7a.55.55,0,0,1,.53-.67Z" fill="none" stroke="#45413c" stroke-linecap="round" stroke-linejoin="round"></path><path d="M23,32.15s-5-4.43-10.52-5.73a7.51,7.51,0,0,0-9.08,4.46.49.49,0,0,0,.4.69,10.4,10.4,0,0,1,3.28.81,1,1,0,0,1,.58,1.08,12.21,12.21,0,0,0,0,4,.46.46,0,0,0,.72.31,17.81,17.81,0,0,1,4.67-2.34,2.06,2.06,0,0,1,2.45,1c1.32,2.31,4.29,6.11,8.5,6.11s7.18-3.8,8.49-6.11a2.07,2.07,0,0,1,2.46-1,17.76,17.76,0,0,1,4.66,2.34.47.47,0,0,0,.73-.31,11.89,11.89,0,0,0,0-4,1,1,0,0,1,.58-1.08,10.48,10.48,0,0,1,3.28-.81.5.5,0,0,0,.41-.69,7.52,7.52,0,0,0-9.09-4.46C30,27.72,25,32.15,25,32.15Z" fill="#f0f0f0"></path><path d="M3.77,31.57l.55.08a7.38,7.38,0,0,1,8.13-2.8C18,30.16,23,34.59,23,34.59H25s5-4.43,10.52-5.74a7.38,7.38,0,0,1,8.13,2.8l.55-.08a.5.5,0,0,0,.41-.69,7.52,7.52,0,0,0-9.09-4.46C30,27.72,25,32.15,25,32.15H23s-5-4.43-10.52-5.73a7.51,7.51,0,0,0-9.08,4.46A.49.49,0,0,0,3.77,31.57Z" fill="#fff"></path><path d="M23,32.15s-5-4.43-10.52-5.73a7.51,7.51,0,0,0-9.08,4.46.49.49,0,0,0,.4.69,10.4,10.4,0,0,1,3.28.81,1,1,0,0,1,.58,1.08,12.21,12.21,0,0,0,0,4,.46.46,0,0,0,.72.31,17.81,17.81,0,0,1,4.67-2.34,2.06,2.06,0,0,1,2.45,1c1.32,2.31,4.29,6.11,8.5,6.11s7.18-3.8,8.49-6.11a2.07,2.07,0,0,1,2.46-1,17.76,17.76,0,0,1,4.66,2.34.47.47,0,0,0,.73-.31,11.89,11.89,0,0,0,0-4,1,1,0,0,1,.58-1.08,10.48,10.48,0,0,1,3.28-.81.5.5,0,0,0,.41-.69,7.52,7.52,0,0,0-9.09-4.46C30,27.72,25,32.15,25,32.15Z" fill="none" stroke="#45413c" stroke-linecap="round" stroke-linejoin="round"></path><path d="M12.500 45.500 A11.5 1.5 0 1 0 35.500 45.500 A11.5 1.5 0 1 0 12.500 45.500 Z" fill="#45413c" opacity=".15"></path><path d="M29.790 23.960 A1.350 1.350 0 1 0 32.490 23.960 A1.350 1.350 0 1 0 29.790 23.960 Z" fill="#45413c" stroke="#45413c" stroke-linecap="round" stroke-linejoin="round"></path><path d="M15.500 23.960 A1.350 1.350 0 1 0 18.200 23.960 A1.350 1.350 0 1 0 15.500 23.960 Z" fill="#45413c" stroke="#45413c" stroke-linecap="round" stroke-linejoin="round"></path><path d="M37,30.81c0,.55-.67,1-1.5,1s-1.5-.45-1.5-1,.67-1,1.5-1S37,30.26,37,30.81Z" fill="#fcd"></path><path d="M14,30.81c0,.55-.67,1-1.5,1s-1.5-.45-1.5-1,.67-1,1.5-1S14,30.26,14,30.81Z" fill="#fcd"></path><path d="M20,38.31a2.17,2.17,0,0,0,2,1c1.5,0,2-1.31,2-4" fill="none" stroke="#45413c" stroke-linecap="round" stroke-linejoin="round"></path><path d="M28,38.31a2.17,2.17,0,0,1-2,1c-1.5,0-2-1.31-2-4" fill="none" stroke="#45413c" stroke-linecap="round" stroke-linejoin="round"></path><path d="M26.72,33.22A3,3,0,0,1,24,36a3,3,0,0,1-2.72-2.73c0-1.13,1.22-1.36,2.72-1.36S26.72,32.09,26.72,33.22Z" fill="#656769"></path><path d="M24,33.42c1.14,0,2.11.14,2.52.69a2.14,2.14,0,0,0,.21-.89c0-1.13-1.22-1.36-2.73-1.36s-2.72.23-2.72,1.36a2.28,2.28,0,0,0,.2.89C21.88,33.56,22.86,33.42,24,33.42Z" fill="#87898c"></path><path d="M26.72,33.22A3,3,0,0,1,24,36a3,3,0,0,1-2.72-2.73c0-1.13,1.22-1.36,2.72-1.36S26.72,32.09,26.72,33.22Z" fill="none" stroke="#45413c" stroke-linecap="round" stroke-linejoin="round"></path><path d="M17.9,11a.49.49,0,0,0,.25-.69C17.45,9,15.6,5.84,14.43,5.81c-1.32,0-2.23,4.89-1.73,8.72a.5.5,0,0,0,.91.2A9.81,9.81,0,0,1,17.9,11Z" fill="#ffa694"></path><path d="M14.43,8.05c.86,0,2.1,1.75,3,3.17A5.5,5.5,0,0,1,17.9,11a.49.49,0,0,0,.25-.69C17.45,9,15.6,5.84,14.43,5.81s-2,4-1.84,7.57C12.75,10.54,13.49,8,14.43,8.05Z" fill="#ff866e"></path><path d="M17.9,11a.49.49,0,0,0,.25-.69C17.45,9,15.6,5.84,14.43,5.81c-1.32,0-2.23,4.89-1.73,8.72a.5.5,0,0,0,.91.2A9.81,9.81,0,0,1,17.9,11Z" fill="none" stroke="#45413c" stroke-linecap="round" stroke-linejoin="round"></path><path d="M30.1,11a.49.49,0,0,1-.26-.69c.7-1.28,2.55-4.45,3.73-4.48s2.23,4.89,1.73,8.72a.51.51,0,0,1-.92.2A9.8,9.8,0,0,0,30.1,11Z" fill="#ffa694"></path><path d="M33.56,8.05c-.86,0-2.09,1.75-3,3.17L30.1,11a.49.49,0,0,1-.26-.69c.7-1.28,2.55-4.45,3.72-4.48s2,4,1.84,7.57C35.24,10.54,34.51,8,33.56,8.05Z" fill="#ff866e"></path><path d="M30.1,11a.49.49,0,0,1-.26-.69c.7-1.28,2.55-4.45,3.73-4.48s2.23,4.89,1.73,8.72a.51.51,0,0,1-.92.2A9.8,9.8,0,0,0,30.1,11Z" fill="none" stroke="#45413c" stroke-linecap="round" stroke-linejoin="round"></path></svg>