<svg viewBox="0 0 48 48" xmlns="http://www.w3.org/2000/svg"><path d="M15.89,38.94a14.41,14.41,0,0,1-12.29.69,1.22,1.22,0,0,1-.74-1.31,14.42,14.42,0,0,1,7-10.15,14.41,14.41,0,0,1,12.29-.69,1.24,1.24,0,0,1,.74,1.31A14.42,14.42,0,0,1,15.89,38.94Z" fill="#6dd627"></path><path d="M22.86,28.78a14.47,14.47,0,0,1-7,10.16,13.4,13.4,0,0,1-2.09.94,20.71,20.71,0,0,1-8.09-8.12,13.39,13.39,0,0,1,4.1-3.59,14.43,14.43,0,0,1,12.3-.7A1.24,1.24,0,0,1,22.86,28.78Z" fill="#46b000"></path><path d="M15.89,38.94a14.41,14.41,0,0,1-12.29.69,1.22,1.22,0,0,1-.74-1.31,14.42,14.42,0,0,1,7-10.15,14.41,14.41,0,0,1,12.29-.69,1.24,1.24,0,0,1,.74,1.31A14.42,14.42,0,0,1,15.89,38.94Z" fill="none" stroke="#45413c" stroke-linecap="round" stroke-linejoin="round"></path><path d="M32.12,38.94a14.41,14.41,0,0,0,12.29.69,1.21,1.21,0,0,0,.74-1.31,14.44,14.44,0,0,0-7-10.15,14.43,14.43,0,0,0-12.3-.69,1.22,1.22,0,0,0-.73,1.31A14.41,14.41,0,0,0,32.12,38.94Z" fill="#6dd627"></path><path d="M25.16,28.78a14.43,14.43,0,0,0,7,10.16,13.4,13.4,0,0,0,2.09.94,20.71,20.71,0,0,0,8.09-8.12,13.28,13.28,0,0,0-4.1-3.59,14.41,14.41,0,0,0-12.29-.7A1.22,1.22,0,0,0,25.16,28.78Z" fill="#46b000"></path><path d="M32.12,38.94a14.41,14.41,0,0,0,12.29.69,1.21,1.21,0,0,0,.74-1.31,14.44,14.44,0,0,0-7-10.15,14.43,14.43,0,0,0-12.3-.69,1.22,1.22,0,0,0-.73,1.31A14.41,14.41,0,0,0,32.12,38.94Z" fill="none" stroke="#45413c" stroke-linecap="round" stroke-linejoin="round"></path><path d="M21.36 25.3L19.73 20.28 24 17.18 28.27 20.28 26.64 25.3 21.36 25.3z" fill="#e0366f" stroke="#45413c" stroke-linecap="round" stroke-linejoin="round"></path><path d="M11.850 45.410 A12.16 1.59 0 1 0 36.170 45.410 A12.16 1.59 0 1 0 11.850 45.410 Z" fill="#45413c" opacity=".15"></path><path d="M19.85,20.32l-6.13-2A6.35,6.35,0,0,1,12,7.16l2-1.44A6.35,6.35,0,0,1,24,10.86V17.3A3.18,3.18,0,0,1,19.85,20.32Z" fill="#ff87af"></path><path d="M13.93,5.72,12,7.16a6.27,6.27,0,0,0-2.5,6.32A6.24,6.24,0,0,1,12,9.56l2-1.44A6.35,6.35,0,0,1,24,13.26v-2.4A6.34,6.34,0,0,0,13.93,5.72Z" fill="#ffb0ca"></path><path d="M19.85,20.32l-6.13-2A6.35,6.35,0,0,1,12,7.16l2-1.44A6.35,6.35,0,0,1,24,10.86V17.3A3.18,3.18,0,0,1,19.85,20.32Z" fill="none" stroke="#45413c" stroke-linecap="round" stroke-linejoin="round"></path><path d="M28.16,20.32l6.13-2A6.35,6.35,0,0,0,36.06,7.16l-2-1.44A6.34,6.34,0,0,0,24,10.86V17.3A3.17,3.17,0,0,0,28.16,20.32Z" fill="#ff87af"></path><path d="M34.08,5.72l2,1.44a6.27,6.27,0,0,1,2.5,6.32,6.24,6.24,0,0,0-2.5-3.92l-2-1.44A6.35,6.35,0,0,0,24,13.26v-2.4A6.34,6.34,0,0,1,34.08,5.72Z" fill="#ffb0ca"></path><path d="M28.16,20.32l6.13-2A6.35,6.35,0,0,0,36.06,7.16l-2-1.44A6.34,6.34,0,0,0,24,10.86V17.3A3.17,3.17,0,0,0,28.16,20.32Z" fill="none" stroke="#45413c" stroke-linecap="round" stroke-linejoin="round"></path><path d="M26.57,25.2l3.79,5.22A6.35,6.35,0,0,1,25.23,40.5H22.78a6.35,6.35,0,0,1-5.13-10.08l3.79-5.22A3.17,3.17,0,0,1,26.57,25.2Z" fill="#ff87af"></path><path d="M26.57,25.2a3.18,3.18,0,0,0-5.13,0l-1.46,2a7.56,7.56,0,0,1,8.05,0Z" fill="#ff6196"></path><path d="M26.57,25.2l3.79,5.22A6.35,6.35,0,0,1,25.23,40.5H22.78a6.35,6.35,0,0,1-5.13-10.08l3.79-5.22A3.17,3.17,0,0,1,26.57,25.2Z" fill="none" stroke="#45413c" stroke-linecap="round" stroke-linejoin="round"></path><path d="M6.48,28.65l-.76-2.32a6.35,6.35,0,0,1,8-8l6.13,2a3.17,3.17,0,0,1,1.59,4.88l-3.79,5.22A6.35,6.35,0,0,1,6.48,28.65Z" fill="#ff87af"></path><path d="M13.72,21.09l6.13,2a3.14,3.14,0,0,1,1.88,1.64,3.18,3.18,0,0,0-1.88-4.4l-6.13-2a6.34,6.34,0,0,0-8.16,7.39A6.35,6.35,0,0,1,13.72,21.09Z" fill="#ff6196"></path><path d="M6.48,28.65l-.76-2.32a6.35,6.35,0,0,1,8-8l6.13,2a3.17,3.17,0,0,1,1.59,4.88l-3.79,5.22A6.35,6.35,0,0,1,6.48,28.65Z" fill="none" stroke="#45413c" stroke-linecap="round" stroke-linejoin="round"></path><path d="M41.53,28.65l.76-2.32a6.35,6.35,0,0,0-8-8l-6.13,2a3.18,3.18,0,0,0-1.59,4.88l3.79,5.22A6.35,6.35,0,0,0,41.53,28.65Z" fill="#ff87af"></path><path d="M34.29,21.09l-6.13,2a3.17,3.17,0,0,0-1.88,1.64,3.18,3.18,0,0,1,1.88-4.4l6.13-2a6.34,6.34,0,0,1,8.16,7.39A6.35,6.35,0,0,0,34.29,21.09Z" fill="#ff6196"></path><path d="M41.53,28.65l.76-2.32a6.35,6.35,0,0,0-8-8l-6.13,2a3.18,3.18,0,0,0-1.59,4.88l3.79,5.22A6.35,6.35,0,0,0,41.53,28.65Z" fill="none" stroke="#45413c" stroke-linecap="round" stroke-linejoin="round"></path><path d="M24,21.67a22.46,22.46,0,0,0-4.81-8.46" fill="none" stroke="#45413c" stroke-linecap="round" stroke-linejoin="round"></path><path d="M18.17,8.51A2.21,2.21,0,1,1,16,6.3,2.21,2.21,0,0,1,18.17,8.51Z" fill="#ffe500" stroke="#45413c" stroke-linecap="round" stroke-linejoin="round"></path><path d="M22.07,10.94A2.34,2.34,0,1,1,19.74,8.6,2.33,2.33,0,0,1,22.07,10.94Z" fill="#ffe500" stroke="#45413c" stroke-linecap="round" stroke-linejoin="round"></path><path d="M15.64,12.07a2.21,2.21,0,1,1-2.21-2.21A2.21,2.21,0,0,1,15.64,12.07Z" fill="#ffe500" stroke="#45413c" stroke-linecap="round" stroke-linejoin="round"></path><path d="M19.61,14.54a2.34,2.34,0,1,1-2.34-2.34A2.34,2.34,0,0,1,19.61,14.54Z" fill="#ffe500" stroke="#45413c" stroke-linecap="round" stroke-linejoin="round"></path></svg>