<svg viewBox="0 0 48 48" xmlns="http://www.w3.org/2000/svg"><path d="M16.840 44.490 A12 1.5 0 1 0 40.840 44.490 A12 1.5 0 1 0 16.840 44.490 Z" fill="#45413c" opacity=".15"></path><path d="M1,7.41a1,1,0,0,1,.57-1C4.44,5.09,16.76.15,27.79,7.23,36,12.47,40.46,14.3,42.62,14.94A1,1,0,0,1,43,16.59C39.68,20,29.65,28.4,16.4,24.47S1.29,10.19,1,7.41Z" fill="#6dd627"></path><path d="M27.79,11.24c6.57,4.21,10.76,6.22,13.28,7.17.8-.68,1.46-1.31,2-1.82a1,1,0,0,0-.42-1.65C40.46,14.3,36,12.47,27.79,7.23,16.76.15,4.44,5.09,1.58,6.41a1,1,0,0,0-.57,1,16.79,16.79,0,0,0,.59,3C4.5,9.07,16.78,4.17,27.79,11.24Z" fill="#9ceb60"></path><path d="M1,7.41a1,1,0,0,1,.57-1C4.44,5.09,16.76.15,27.79,7.23,36,12.47,40.46,14.3,42.62,14.94A1,1,0,0,1,43,16.59C39.68,20,29.65,28.4,16.4,24.47S1.29,10.19,1,7.41Z" fill="none" stroke="#45413c" stroke-linecap="round" stroke-linejoin="round"></path><path d="M33.38,32.09A16.19,16.19,0,0,0,26,42.32a1,1,0,0,0,.71,1.16A16.16,16.16,0,0,0,46.55,31.42a1,1,0,0,0-.7-1.16A16.15,16.15,0,0,0,33.38,32.09Z" fill="#6dd627"></path><path d="M26.73,43.48l.13,0A16.12,16.12,0,0,1,45.72,34a16.73,16.73,0,0,0,.83-2.57,1,1,0,0,0-.7-1.16A16.15,16.15,0,0,0,26,42.32,1,1,0,0,0,26.73,43.48Z" fill="#9ceb60"></path><path d="M33.38,32.09A16.19,16.19,0,0,0,26,42.32a1,1,0,0,0,.71,1.16A16.16,16.16,0,0,0,46.55,31.42a1,1,0,0,0-.7-1.16A16.15,16.15,0,0,0,33.38,32.09Z" fill="none" stroke="#45413c" stroke-linecap="round" stroke-linejoin="round"></path><path d="M46.49,30.79a15.39,15.39,0,0,0-11.11,5.38" fill="none" stroke="#45413c" stroke-linecap="round" stroke-linejoin="round"></path><path d="M1.05,7c5.84-.18,13.58,1.21,19,4.49" fill="none" stroke="#45413c" stroke-linecap="round" stroke-linejoin="round"></path></svg>