<svg viewBox="0 0 48 48" xmlns="http://www.w3.org/2000/svg"><path d="M3.080 45.300 A20.92 1.7 0 1 0 44.920 45.300 A20.92 1.7 0 1 0 3.080 45.300 Z" fill="#45413c" opacity=".15"></path><path d="M4.210 4.210 L43.780 4.210 L43.780 43.780 L4.210 43.780 Z" fill="#fff"></path><path d="M4.210 4.210 L43.780 4.210 L43.780 43.780 L4.210 43.780 Z" fill="none" stroke="#45413c" stroke-linecap="round" stroke-linejoin="round"></path><path d="M7.040 7.040 L40.960 7.040 L40.960 40.960 L7.040 40.960 Z" fill="#00b8f0"></path><path d="M7.040 7.040 L40.960 7.040 L40.960 40.960 L7.040 40.960 Z" fill="none" stroke="#45413c" stroke-linecap="round" stroke-linejoin="round"></path><path d="M41,9.4h0a0,0,0,0,1,0,0V39.83A1.13,1.13,0,0,1,39.83,41H9.4a0,0,0,0,1,0,0v0A31.56,31.56,0,0,1,41,9.4Z" fill="#ff6242" stroke="#45413c" stroke-linecap="round" stroke-linejoin="round"></path><path d="M41,14.13h0a0,0,0,0,1,0,0v25.7A1.13,1.13,0,0,1,39.83,41H14.13a0,0,0,0,1,0,0v0A26.83,26.83,0,0,1,41,14.13Z" fill="#ffe500" stroke="#45413c" stroke-linecap="round" stroke-linejoin="round"></path><path d="M41,19h0a0,0,0,0,1,0,0V39.83A1.13,1.13,0,0,1,39.83,41H19a0,0,0,0,1,0,0v0A22,22,0,0,1,41,19Z" fill="#00dba8" stroke="#45413c" stroke-linecap="round" stroke-linejoin="round"></path><path d="M41,23.73h0a0,0,0,0,1,0,0v16.1A1.13,1.13,0,0,1,39.83,41H23.73a0,0,0,0,1,0,0v0A17.23,17.23,0,0,1,41,23.73Z" fill="#bf8df2" stroke="#45413c" stroke-linecap="round" stroke-linejoin="round"></path><path d="M41,28.25h0a0,0,0,0,1,0,0V39.83A1.13,1.13,0,0,1,39.83,41H28.25a0,0,0,0,1,0,0v0A12.71,12.71,0,0,1,41,28.25Z" fill="#00b8f0" stroke="#45413c" stroke-linecap="round" stroke-linejoin="round"></path></svg>