<svg viewBox="0 0 48 48" xmlns="http://www.w3.org/2000/svg"><path d="M10.780 45.280 A13.22 1.72 0 1 0 37.220 45.280 A13.22 1.72 0 1 0 10.780 45.280 Z" fill="#45413c" opacity=".15"></path><path d="M42.57,32.38a6,6,0,0,0,3.82-3.9,6.22,6.22,0,0,0-1.07-5.75s3.46-5.65-1.06-5.74H44l.17-3.73a1.76,1.76,0,0,0-2.19-1.88,15.12,15.12,0,0,0-8.2,6.31l-1.31,2a3.42,3.42,0,0,1-5.93-.17l-2.58-4.46a8.58,8.58,0,0,0-7.38-4.42c-6,0-9.92,5.11-9.74,10.64l.19,6C7.28,36.6,14.38,44,23,44h4.39C34.4,44,40.38,39.17,42.57,32.38Z" fill="#f0f0f0"></path><path d="M14.3,14.78a11,11,0,0,1,9,4.41l3.15,4.47a4.66,4.66,0,0,0,7.23.17l1.6-2A18.26,18.26,0,0,1,44,15.87l.12-2.61a1.76,1.76,0,0,0-2.19-1.88,15.12,15.12,0,0,0-8.2,6.31l-1.31,2a3.42,3.42,0,0,1-5.93-.17l-2.58-4.46a8.58,8.58,0,0,0-7.38-4.42,9.48,9.48,0,0,0-8.77,5.75A12.73,12.73,0,0,1,14.3,14.78Z" fill="#fff"></path><path d="M42.57,32.38a6,6,0,0,0,3.82-3.9,6.22,6.22,0,0,0-1.07-5.75s3.46-5.65-1.06-5.74H44l.17-3.73a1.76,1.76,0,0,0-2.19-1.88,15.12,15.12,0,0,0-8.2,6.31l-1.31,2a3.42,3.42,0,0,1-5.93-.17l-2.58-4.46a8.58,8.58,0,0,0-7.38-4.42c-6,0-9.92,5.11-9.74,10.64l.19,6C7.28,36.6,14.38,44,23,44h4.39C34.4,44,40.38,39.17,42.57,32.38Z" fill="none" stroke="#45413c" stroke-linecap="round" stroke-linejoin="round"></path><path d="M35.74,23.31s4-6.42,8.52-6.32,1.06,5.74,1.06,5.74a6.22,6.22,0,0,1,1.07,5.75,6,6,0,0,1-3.82,3.9" fill="none" stroke="#45413c" stroke-linecap="round" stroke-linejoin="round"></path><path d="M5.36,22.48S2.82,30.29,7.65,30c3.3-.23,3.44-3.09,3.19-4.88A1.14,1.14,0,0,1,12,23.8a5.84,5.84,0,0,0,6-3.62c1.44-3.6.06-5.36-.71-6a1.16,1.16,0,0,1-.43-1c.09-1.1.85-2.73,3.44-1.63,1.94-1.36,2.23-4.09,0-5.17a2.87,2.87,0,0,0-3.25.3,1.43,1.43,0,0,1-1.68,0A2.85,2.85,0,0,0,11.68,7c-2.37,2.09.57,4.6.57,4.6s-3.06,0-5.17,4A12.57,12.57,0,0,0,5.36,22.48Z" fill="#ff866e"></path><path d="M12.07,11.39A2.33,2.33,0,0,1,13,9.15a2.85,2.85,0,0,1,3.7-.23,1.44,1.44,0,0,0,1.67,0,2.87,2.87,0,0,1,3.25-.3,1.92,1.92,0,0,1,.28.18A2.57,2.57,0,0,0,20.3,6.39a2.87,2.87,0,0,0-3.25.3,1.43,1.43,0,0,1-1.68,0A2.85,2.85,0,0,0,11.68,7C9.67,8.73,11.48,10.8,12.07,11.39Z" fill="#ffa694"></path><path d="M6.63,24.67a12.72,12.72,0,0,1,1.72-6.9c2.11-4,5.18-4,5.18-4a4.91,4.91,0,0,1-1.42-2.18c-.63.06-3.19.51-5,4a12.57,12.57,0,0,0-1.72,6.89S3.49,28.24,6,29.65A13.48,13.48,0,0,1,6.63,24.67Z" fill="#ffa694"></path><path d="M5.36,22.48S2.82,30.29,7.65,30c3.3-.23,3.44-3.09,3.19-4.88A1.14,1.14,0,0,1,12,23.8a5.84,5.84,0,0,0,6-3.62c1.44-3.6.06-5.36-.71-6a1.16,1.16,0,0,1-.43-1c.09-1.1.85-2.73,3.44-1.63,1.94-1.36,2.23-4.09,0-5.17a2.87,2.87,0,0,0-3.25.3,1.43,1.43,0,0,1-1.68,0A2.85,2.85,0,0,0,11.68,7c-2.37,2.09.57,4.6.57,4.6s-3.06,0-5.17,4A12.57,12.57,0,0,0,5.36,22.48Z" fill="none" stroke="#45413c" stroke-linecap="round" stroke-linejoin="round"></path><path d="M6.16,17.56S2.24,19.09,1.57,21s4,2.3,4,2.3,1.72.09,2.3-1.15S6.16,17.56,6.16,17.56Z" fill="#ffe500"></path><path d="M7.27,19.71l.4.63a16.22,16.22,0,0,0-1.51-2.78S2.24,19.09,1.57,21c-.29.82.42,1.36,1.32,1.71C3.93,21,7.27,19.71,7.27,19.71Z" fill="#fff48c"></path><path d="M6.16,17.56S2.24,19.09,1.57,21s4,2.3,4,2.3,1.72.09,2.3-1.15S6.16,17.56,6.16,17.56Z" fill="none" stroke="#45413c" stroke-linecap="round" stroke-linejoin="round"></path><path d="M18.7,33.08S19,39.9,25.09,39.4,31,33.65,31,33.65s2.93-1.94,2.66-4.59c-.29-2.88-2-3.6-5.32-2.88" fill="none" stroke="#45413c" stroke-linecap="round" stroke-linejoin="round"></path><path d="M11.440 16.820 A1.150 1.150 0 1 0 13.740 16.820 A1.150 1.150 0 1 0 11.440 16.820 Z" fill="#45413c"></path><path d="M16,19.81a1.16,1.16,0,1,1-1.15-1A1.08,1.08,0,0,1,16,19.81Z" fill="#ffcabf"></path></svg>