<svg viewBox="0 0 48 48" xmlns="http://www.w3.org/2000/svg"><path d="M47,9.06A14.54,14.54,0,0,0,39.22,7.3C35,7.66,32.44,11.83,34,14.91a15.73,15.73,0,0,0-1.79,1.9,22.89,22.89,0,0,0-4.5,11.52l2,4s.41-7.66,3.5-13a26.79,26.79,0,0,1,1.93-2.89c2.88,2.76,6.7.08,8.59-2.12a40.22,40.22,0,0,1,3.44-3.62A1,1,0,0,0,47,9.06Z" fill="#6dd627"></path><path d="M39.22,9.53a14.44,14.44,0,0,1,7.46,1.62c.17-.17.34-.33.49-.46A1,1,0,0,0,47,9.06,14.54,14.54,0,0,0,39.22,7.3c-3.83.33-6.29,3.8-5.53,6.74A6.2,6.2,0,0,1,39.22,9.53Z" fill="#9ceb60"></path><path d="M32.21,19.05A15.14,15.14,0,0,1,34,17.14a4.24,4.24,0,0,1-.46-1.79,17.55,17.55,0,0,0-1.33,1.46,22.89,22.89,0,0,0-4.5,11.52l.24.48A22.61,22.61,0,0,1,32.21,19.05Z" fill="#9ceb60"></path><path d="M47,9.06A14.54,14.54,0,0,0,39.22,7.3C35,7.66,32.44,11.83,34,14.91a15.73,15.73,0,0,0-1.79,1.9,22.89,22.89,0,0,0-4.5,11.52l2,4s.41-7.66,3.5-13a26.79,26.79,0,0,1,1.93-2.89c2.88,2.76,6.7.08,8.59-2.12a40.22,40.22,0,0,1,3.44-3.62A1,1,0,0,0,47,9.06Z" fill="none" stroke="#45413c" stroke-linecap="round" stroke-linejoin="round"></path><path d="M17.350 46.390 A11.52 1.61 0 1 0 40.390 46.390 A11.52 1.61 0 1 0 17.350 46.390 Z" fill="#45413c" opacity=".15"></path><path d="M27.71,22.82A29.17,29.17,0,0,0,19.86,12c.34-2.15.65-8-5.35-10.42C9-.68,3.51,1.15,1.1,2.23A1,1,0,0,0,.77,3.82a34.52,34.52,0,0,1,4.67,6.4c3.06,5.43,9.62,8.68,13.83,3.16A26.17,26.17,0,0,1,24.7,23.82c3.51,12.94,1.69,18.47.9,20.61a1.42,1.42,0,0,0,.59,1.71,5.32,5.32,0,0,0,2.52.71c2.35.1,2.5-1.5,2.5-1.5A52.06,52.06,0,0,0,27.71,22.82Z" fill="#6dd627"></path><path d="M20,14.21a27,27,0,0,1,1.67,2.39,28.16,28.16,0,0,1,6.09,9.14,52.55,52.55,0,0,1,3.61,17.78,53,53,0,0,0-3.61-20.7A29.23,29.23,0,0,0,20,12.1,12,12,0,0,1,20,14.21Z" fill="#9ceb60"></path><path d="M1.72,4.89C4.36,3.82,9.4,2.41,14.51,4.5a8.32,8.32,0,0,1,5.41,7c.29-2.42.21-7.68-5.41-10s-11-.42-13.41.66A1,1,0,0,0,.77,3.82C1,4.12,1.36,4.47,1.72,4.89Z" fill="#9ceb60"></path><path d="M27.71,22.82A29.17,29.17,0,0,0,19.86,12c.34-2.15.65-8-5.35-10.42C9-.68,3.51,1.15,1.1,2.23A1,1,0,0,0,.77,3.82a34.52,34.52,0,0,1,4.67,6.4c3.06,5.43,9.62,8.68,13.83,3.16A26.17,26.17,0,0,1,24.7,23.82c3.51,12.94,1.69,18.47.9,20.61a1.42,1.42,0,0,0,.59,1.71,5.32,5.32,0,0,0,2.52.71c2.35.1,2.5-1.5,2.5-1.5A52.06,52.06,0,0,0,27.71,22.82Z" fill="none" stroke="#45413c" stroke-linecap="round" stroke-linejoin="round"></path><path d="M35,14.52s.94-4.63,7-4.51" fill="#6dd627" stroke="#45413c" stroke-linecap="round" stroke-linejoin="round"></path><path d="M18,11c-.31-5.32-7.51-6.5-7.51-6.5" fill="#6dd627" stroke="#45413c" stroke-linecap="round" stroke-linejoin="round"></path></svg>