<svg viewBox="0 0 48 48" xmlns="http://www.w3.org/2000/svg"><path d="M2.62,23.66a1.4,1.4,0,0,0,.73,1.83l2.44,1.05-2.06.61a1,1,0,0,0,.57,1.91l4.34-1.3L16.15,31a1.39,1.39,0,0,0,1.1-2.56l-12.8-5.5A1.4,1.4,0,0,0,2.62,23.66Z" fill="#debb7e"></path><path d="M4.45,24.64l12.8,5.5a1.43,1.43,0,0,1,.54.43,1.61,1.61,0,0,0,.19-.31,1.4,1.4,0,0,0-.73-1.83l-12.8-5.5a1.39,1.39,0,0,0-1.64,2.13A1.39,1.39,0,0,1,4.45,24.64Z" fill="#f0d5a8"></path><path d="M2.62,23.66a1.4,1.4,0,0,0,.73,1.83l2.44,1.05-2.06.61a1,1,0,0,0,.57,1.91l4.34-1.3L16.15,31a1.39,1.39,0,0,0,1.1-2.56l-12.8-5.5A1.4,1.4,0,0,0,2.62,23.66Z" fill="none" stroke="#45413c" stroke-linecap="round" stroke-linejoin="round"></path><path d="M45.43,23.66a1.38,1.38,0,0,1-.73,1.83l-2.43,1.05,2.06.61a1,1,0,0,1-.57,1.91l-4.35-1.3L31.91,31a1.38,1.38,0,0,1-1.83-.73,1.4,1.4,0,0,1,.73-1.83l12.79-5.5A1.39,1.39,0,0,1,45.43,23.66Z" fill="#debb7e"></path><path d="M43.6,24.64l-12.79,5.5a1.43,1.43,0,0,0-.54.43,1.23,1.23,0,0,1-.19-.31,1.4,1.4,0,0,1,.73-1.83l12.79-5.5a1.39,1.39,0,0,1,1.83.73,1.38,1.38,0,0,1-.18,1.4A1.4,1.4,0,0,0,43.6,24.64Z" fill="#f0d5a8"></path><path d="M45.43,23.66a1.38,1.38,0,0,1-.73,1.83l-2.43,1.05,2.06.61a1,1,0,0,1-.57,1.91l-4.35-1.3L31.91,31a1.38,1.38,0,0,1-1.83-.73,1.4,1.4,0,0,1,.73-1.83l12.79-5.5A1.39,1.39,0,0,1,45.43,23.66Z" fill="none" stroke="#45413c" stroke-linecap="round" stroke-linejoin="round"></path><path d="M9.26,13.24A.92.92,0,0,0,9.6,12a.93.93,0,0,0-1.26-.34l-1.53.89V10.76a.92.92,0,0,0-1.84,0v1.78l-1.53-.89A.93.93,0,0,0,2.18,12a.92.92,0,0,0,.34,1.25l1.54.89L2.52,15a.92.92,0,1,0,.92,1.59L5,15.71v1.78a.92.92,0,0,0,1.84,0V15.71l1.53.89A.92.92,0,1,0,9.26,15l-1.54-.88Z" fill="#fff" stroke="#45413c" stroke-linecap="round" stroke-linejoin="round"></path><path d="M46.07,40.06a.93.93,0,0,0,.34-1.26.92.92,0,0,0-1.26-.33l-1.53.88V37.58a.92.92,0,0,0-1.84,0v1.77l-1.53-.88A.9.9,0,0,0,39,38.8a.92.92,0,0,0,.33,1.26l1.54.88-1.54.89A.9.9,0,0,0,39,43.08a.92.92,0,0,0,1.25.34l1.53-.89V44.3a.92.92,0,0,0,1.84,0V42.53l1.53.89a.93.93,0,0,0,1.26-.34.92.92,0,0,0-.34-1.25l-1.54-.89Z" fill="#fff" stroke="#45413c" stroke-linecap="round" stroke-linejoin="round"></path><path d="M43.93,6.23A.92.92,0,0,0,43,4.64l-1.54.89V3.75a.92.92,0,0,0-1.83,0V5.53L38.1,4.64a.92.92,0,1,0-.91,1.59l1.53.88L37.19,8a.92.92,0,1,0,.91,1.59l1.54-.89v1.78a.92.92,0,0,0,1.83,0V8.7L43,9.59a.92.92,0,0,0,1.25-.34A.9.9,0,0,0,43.93,8l-1.54-.89Z" fill="#fff" stroke="#45413c" stroke-linecap="round" stroke-linejoin="round"></path><path d="M12.000 45.500 A12 1.5 0 1 0 36.000 45.500 A12 1.5 0 1 0 12.000 45.500 Z" fill="#45413c" opacity=".15"></path><path d="M10.070 31.570 A13.930 13.930 0 1 0 37.930 31.570 A13.930 13.930 0 1 0 10.070 31.570 Z" fill="#e5feff" transform="translate(-11.01 50.2) rotate(-80.78)"></path><path d="M37.63,28.74A16.11,16.11,0,0,1,24,36a16.15,16.15,0,0,1-13.64-7.27,13.93,13.93,0,0,1,27.28,0Z" fill="#a6fbff"></path><path d="M10.070 31.570 A13.930 13.930 0 1 0 37.930 31.570 A13.930 13.930 0 1 0 10.070 31.570 Z" fill="none" stroke="#45413c" stroke-linecap="round" stroke-linejoin="round" transform="translate(-11.01 50.2) rotate(-80.78)"></path><path d="M13.290 15.310 A10.740 10.740 0 1 0 34.770 15.310 A10.740 10.740 0 1 0 13.290 15.310 Z" fill="#e5feff"></path><path d="M24,7.66a10.74,10.74,0,0,1,10.63,9.2,9.93,9.93,0,0,0,.11-1.55,10.75,10.75,0,0,0-21.49,0,9.92,9.92,0,0,0,.12,1.55A10.73,10.73,0,0,1,24,7.66Z" fill="#fff"></path><path d="M13.290 15.310 A10.740 10.740 0 1 0 34.770 15.310 A10.740 10.740 0 1 0 13.290 15.310 Z" fill="none" stroke="#45413c" stroke-linecap="round" stroke-linejoin="round"></path><path d="M34.45,18a10.75,10.75,0,0,1-20.84,0,7.58,7.58,0,0,0-1.52,4.47c0,5,5.34,9.15,11.94,9.15S36,27.47,36,22.42A7.58,7.58,0,0,0,34.45,18Z" fill="#9ceb60"></path><path d="M24,26.06A10.76,10.76,0,0,1,13.61,18a8.12,8.12,0,0,0-1.3,2.7C13.39,24.85,18.22,28,24,28s10.64-3.17,11.72-7.37a8.12,8.12,0,0,0-1.3-2.7A10.76,10.76,0,0,1,24,26.06Z" fill="#c8ffa1"></path><path d="M34.45,18a10.75,10.75,0,0,1-20.84,0,7.58,7.58,0,0,0-1.52,4.47c0,5,5.34,9.15,11.94,9.15S36,27.47,36,22.42A7.58,7.58,0,0,0,34.45,18Z" fill="none" stroke="#45413c" stroke-linecap="round" stroke-linejoin="round"></path><path d="M17.37,23.75a10.54,10.54,0,0,0-2.75,4.3A13.49,13.49,0,0,0,24,31.57V26.06A10.76,10.76,0,0,1,17.37,23.75Z" fill="#ff6242"></path><path d="M17.37,23.75a10.66,10.66,0,0,0-1.51,1.79A14,14,0,0,0,24,28v-2A10.76,10.76,0,0,1,17.37,23.75Z" fill="#ff866e"></path><path d="M17.37,23.75a10.54,10.54,0,0,0-2.75,4.3A13.49,13.49,0,0,0,24,31.57V26.06A10.76,10.76,0,0,1,17.37,23.75Z" fill="none" stroke="#45413c" stroke-linecap="round" stroke-linejoin="round"></path><path d="M34.45,18a10.78,10.78,0,0,1-3.77,5.8,10.66,10.66,0,0,1,2.76,4.3A7.86,7.86,0,0,0,36,22.42,7.58,7.58,0,0,0,34.45,18Z" fill="#ff6242"></path><path d="M35.75,20.65a8.12,8.12,0,0,0-1.3-2.7,10.78,10.78,0,0,1-3.77,5.8,10.7,10.7,0,0,1,1.52,1.79A8.87,8.87,0,0,0,35.75,20.65Z" fill="#ff866e"></path><path d="M34.45,18a10.78,10.78,0,0,1-3.77,5.8,10.66,10.66,0,0,1,2.76,4.3A7.86,7.86,0,0,0,36,22.42,7.58,7.58,0,0,0,34.45,18Z" fill="none" stroke="#45413c" stroke-linecap="round" stroke-linejoin="round"></path><path d="M26.39,25.6a4.58,4.58,0,0,1,3.18-2.78c2.49-.65,5.57,1.29,5.57,6,0,2.8.57,4.1,1,4.69a.84.84,0,0,1-.08,1.12l-2.15,2.15a.85.85,0,0,1-1.38-.23,12.88,12.88,0,0,1-1-5.35C31.56,27.29,29.12,24.86,26.39,25.6Z" fill="none" stroke="#45413c" stroke-linecap="round" stroke-linejoin="round"></path><path d="M26.39,25.6a4.58,4.58,0,0,1,3.18-2.78c2.49-.65,5.57,1.29,5.57,6,0,2.8.57,4.1,1,4.69a.84.84,0,0,1-.08,1.12l-2.15,2.15a.85.85,0,0,1-1.38-.23,12.88,12.88,0,0,1-1-5.35C31.56,27.29,29.12,24.86,26.39,25.6Z" fill="#ff6242"></path><path d="M29.57,22.82a4.58,4.58,0,0,0-3.18,2.78,3.64,3.64,0,0,1,1.7-.06,4.7,4.7,0,0,1,1.48-.66,3.92,3.92,0,0,1,3.24.61l1.13-1A4.13,4.13,0,0,0,29.57,22.82Z" fill="#ff866e"></path><path d="M26.39,25.6a4.58,4.58,0,0,1,3.18-2.78c2.49-.65,5.57,1.29,5.57,6,0,2.8.57,4.1,1,4.69a.84.84,0,0,1-.08,1.12l-2.15,2.15a.85.85,0,0,1-1.38-.23,12.88,12.88,0,0,1-1-5.35C31.56,27.29,29.12,24.86,26.39,25.6Z" fill="none" stroke="#45413c" stroke-linecap="round" stroke-linejoin="round"></path><path d="M28.010 15.310 A0.600 0.600 0 1 0 29.210 15.310 A0.600 0.600 0 1 0 28.010 15.310 Z" fill="#45413c" stroke="#45413c" stroke-linecap="round" stroke-linejoin="round"></path><path d="M18.850 15.310 A0.600 0.600 0 1 0 20.050 15.310 A0.600 0.600 0 1 0 18.850 15.310 Z" fill="#45413c" stroke="#45413c" stroke-linecap="round" stroke-linejoin="round"></path><path d="M31.62,18.4c0,.42-.59.75-1.31.75S29,18.82,29,18.4s.59-.75,1.31-.75S31.62,18,31.62,18.4Z" fill="#ffb0ca"></path><path d="M19.05,18.4c0,.42-.58.75-1.3.75s-1.31-.33-1.31-.75.59-.75,1.31-.75S19.05,18,19.05,18.4Z" fill="#ffb0ca"></path><path d="M21.84,20.31a2.48,2.48,0,0,0,4.37,0" fill="none" stroke="#45413c" stroke-linecap="round" stroke-linejoin="round"></path><path d="M22.330 35.490 A1.710 1.710 0 1 0 25.750 35.490 A1.710 1.710 0 1 0 22.330 35.490 Z" fill="#ff6242"></path><path d="M22.330 41.480 A1.710 1.710 0 1 0 25.750 41.480 A1.710 1.710 0 1 0 22.330 41.480 Z" fill="#ff6242"></path><path d="M24,35.06a1.71,1.71,0,0,1,1.59,1.07,1.74,1.74,0,0,0,.13-.64,1.72,1.72,0,0,0-3.43,0,1.74,1.74,0,0,0,.13.64A1.7,1.7,0,0,1,24,35.06Z" fill="#ff866e"></path><path d="M24,41.05a1.71,1.71,0,0,1,1.59,1.07,1.74,1.74,0,0,0,.13-.64,1.72,1.72,0,0,0-3.43,0,1.74,1.74,0,0,0,.13.64A1.7,1.7,0,0,1,24,41.05Z" fill="#ff866e"></path><path d="M22.330 35.490 A1.710 1.710 0 1 0 25.750 35.490 A1.710 1.710 0 1 0 22.330 35.490 Z" fill="none" stroke="#45413c" stroke-linecap="round" stroke-linejoin="round"></path><path d="M22.330 41.480 A1.710 1.710 0 1 0 25.750 41.480 A1.710 1.710 0 1 0 22.330 41.480 Z" fill="none" stroke="#45413c" stroke-linecap="round" stroke-linejoin="round"></path><path d="M35.14,28.79a7.14,7.14,0,0,0-1.2-4.26l-3.37,2.85a7.05,7.05,0,0,1,1,3.79A15.51,15.51,0,0,0,31.81,34l3.39-3.8Q35.14,29.59,35.14,28.79Z" fill="#9ceb60"></path><path d="M35.14,28.79a7.14,7.14,0,0,0-1.2-4.26l-1.14,1c1.24,1,1.68,2.21,2.1,5.07l.3-.34Q35.14,29.59,35.14,28.79Z" fill="#c8ffa1"></path><path d="M35.14,28.79a7.14,7.14,0,0,0-1.2-4.26l-3.37,2.85a7.05,7.05,0,0,1,1,3.79A15.51,15.51,0,0,0,31.81,34l3.39-3.8Q35.14,29.59,35.14,28.79Z" fill="none" stroke="#45413c" stroke-linecap="round" stroke-linejoin="round"></path></svg>