<svg viewBox="0 0 48 48" xmlns="http://www.w3.org/2000/svg"><path d="M7.990 44.250 A18.67 1.75 0 1 0 45.330 44.250 A18.67 1.75 0 1 0 7.990 44.250 Z" fill="#45413c" opacity=".15"></path><path d="M9.89,18.25c1.62,3.88,1.8,7.55,5.61,11.21a11.32,11.32,0,0,1,3.4,9.68c-.24,1.46-2,2.09-2.28,2.91a4.66,4.66,0,0,0-.1,2h4.69a5.84,5.84,0,0,0,1.27-2.53c.45-1.76-.44-7.73.71-10.6h0s1.7,1.41,6.31,1.41,5.82-.85,5.87-.89c1.12,3,4.28,5,4.78,6.09s0,3.55-1.45,3.94S37.58,44,37.58,44h5.64s1.85-8.56,1-9.63-1.65-2.62-.87-5.35,3.11-8.46.58-11.28-6.81-3-10.8-2.14-5.35.1-8.85-.58-4.08,1.07-6.8.1S14,9.47,11.27,9c-3.94-.63-4.62,3-5.88,3.4s-3,.64-3.26,1.61-.28,4,2.19,3.7C7,17.43,7.77,18.46,9.89,18.25Z" fill="#87898c"></path><path d="M5.39,15.92c1.26-.39,1.94-4,5.88-3.41,2.77.44,3.45,5.11,6.18,6.08s3.3-.78,6.8-.09,4.87,1.45,8.85.58,8.27-.68,10.8,2.14a4.39,4.39,0,0,1,1,2c.33-2.06.24-4.11-1-5.47-2.53-2.82-6.81-3-10.8-2.14s-5.35.1-8.85-.58-4.08,1.07-6.8.1S14,9.47,11.27,9c-3.94-.63-4.62,3-5.88,3.4s-3,.64-3.26,1.61A4,4,0,0,0,2.49,17,8.9,8.9,0,0,1,5.39,15.92Z" fill="#bdbec0"></path><path d="M9.89,18.25c1.62,3.88,1.8,7.55,5.61,11.21a11.32,11.32,0,0,1,3.4,9.68c-.24,1.46-2,2.09-2.28,2.91a4.66,4.66,0,0,0-.1,2h4.69a5.84,5.84,0,0,0,1.27-2.53c.45-1.76-.44-7.73.71-10.6h0s1.7,1.41,6.31,1.41,5.82-.85,5.87-.89c1.12,3,4.28,5,4.78,6.09s0,3.55-1.45,3.94S37.58,44,37.58,44h5.64s1.85-8.56,1-9.63-1.65-2.62-.87-5.35,3.11-8.46.58-11.28-6.81-3-10.8-2.14-5.35.1-8.85-.58-4.08,1.07-6.8.1S14,9.47,11.27,9c-3.94-.63-4.62,3-5.88,3.4s-3,.64-3.26,1.61-.28,4,2.19,3.7C7,17.43,7.77,18.46,9.89,18.25Z" fill="none" stroke="#45413c" stroke-linecap="round" stroke-linejoin="round"></path><path d="M35.37,31.39a4.56,4.56,0,0,1-.18-.52,12.75,12.75,0,0,1,.1-6.52" fill="none" stroke="#45413c" stroke-linecap="round" stroke-linejoin="round"></path><path d="M23.19,30.87a4.88,4.88,0,0,1,2.64-2.63" fill="none" stroke="#45413c" stroke-linecap="round" stroke-linejoin="round"></path><path d="M11.18,10.8c0-1.93,3.46-1.29,5.31-2.14s2.15-1.93.76-3.17c2.79,0,3.75,2,2.42,3.8a9.18,9.18,0,0,1-5.88,3.08C11.68,12.7,11.18,11.88,11.18,10.8Z" fill="#fffce5"></path><path d="M17.86,6.18a1.14,1.14,0,0,0,.25-.63,5.71,5.71,0,0,0-.86-.06A2.91,2.91,0,0,1,17.86,6.18Z" fill="#fffacf"></path><path d="M19.67,7.79a9.09,9.09,0,0,1-5.88,3.08c-1.48.23-2.17-.1-2.44-.69a1.19,1.19,0,0,0-.17.62c0,1.08.5,1.9,2.61,1.57a9.18,9.18,0,0,0,5.88-3.08A2.41,2.41,0,0,0,20.12,7,3,3,0,0,1,19.67,7.79Z" fill="#fffacf"></path><path d="M11.18,10.8c0-1.93,3.46-1.29,5.31-2.14s2.15-1.93.76-3.17c2.79,0,3.75,2,2.42,3.8a9.18,9.18,0,0,1-5.88,3.08C11.68,12.7,11.18,11.88,11.18,10.8Z" fill="none" stroke="#45413c" stroke-linecap="round" stroke-linejoin="round"></path><path d="M14.28,12.3c2.74.11,2.89,3.51,2.89,3.51a4.81,4.81,0,0,1-2.89-.92" fill="#bdbec0" stroke="#45413c" stroke-linecap="round" stroke-linejoin="round"></path><path d="M7.980 12.880 A0.880 0.880 0 1 0 9.740 12.880 A0.880 0.880 0 1 0 7.980 12.880 Z" fill="#45413c"></path></svg>