<svg xmlns="http://www.w3.org/2000/svg" fill="none" viewBox="0 0 24 24" id="Allowances-No-Talking--Streamline-Ultimate">
  <desc>
    Allowances No Talking Streamline Icon: https://streamlinehq.com
  </desc>
  <path fill="#ffdda1" d="M15.9053 5.09302V4.5814c0 -0.40708 -0.1616 -0.79749 -0.4495 -1.08533 -0.2878 -0.28784 -0.6783 -0.44956 -1.0854 -0.44956 -0.407 0 -0.7974 0.16172 -1.0853 0.44956 -0.2879 0.28784 -0.4495 0.67825 -0.4495 1.08533V2.53488c0 -0.40707 -0.1617 -0.79748 -0.4496 -1.08532C12.0982 1.16172 11.7077 1 11.3007 1c-0.4071 0 -0.7974 0.16172 -1.0854 0.44956 -0.28779 0.28784 -0.4495 0.67825 -0.4495 1.08532V4.5814c0 -0.40708 -0.16171 -0.79749 -0.44955 -1.08533 -0.28786 -0.28784 -0.67826 -0.44956 -1.08533 -0.44956 -0.40708 0 -0.79748 0.16172 -1.08533 0.44956 -0.28785 0.28784 -0.44955 0.67825 -0.44955 1.08533V14.814l-2.71777 -3.1721c-0.22729 -0.1932 -0.51711 -0.2971 -0.81537 -0.2922 -0.29826 0.0048 -0.58455 0.1181 -0.80538 0.3187 -0.22084 0.2005 -0.36112 0.4745 -0.39466 0.771 -0.03353 0.2964 0.04198 0.5949 0.21243 0.8397 0 0 0.8667 1.8091 1.94419 3.8372l2.24195 3.8484c0.47772 0.6306 1.09488 1.1421 1.80317 1.4945 0.70829 0.3523 1.48851 0.5361 2.2796 0.5367h3.4115c1.357 0 2.6584 -0.539 3.6178 -1.4986 0.9595 -0.9594 1.4985 -2.2607 1.4985 -3.6177V7.64707l-3.0667 -2.55405Z" stroke-width="1"></path>
  <path stroke="#191919" stroke-linecap="round" stroke-linejoin="round" d="M4.11898 17.1163C3.0415 15.0882 2.1748 13.2791 2.1748 13.2791c-0.16965 -0.2448 -0.24458 -0.5429 -0.21083 -0.8387 0.03374 -0.2959 0.17387 -0.5694 0.39427 -0.7697 0.22041 -0.2002 0.50608 -0.3136 0.80383 -0.3188 0.29774 -0.0054 0.58727 0.0977 0.81468 0.29l2.71777 3.1721V4.58139c0 -0.40707 0.16172 -0.79748 0.44956 -1.08532 0.28785 -0.28785 0.67825 -0.44956 1.08532 -0.44956 0.40709 0 0.79749 0.16171 1.08533 0.44956 0.28785 0.28784 0.44956 0.67825 0.44956 1.08532" stroke-width="1"></path>
  <path stroke="#191919" stroke-linecap="round" stroke-linejoin="round" d="M18.9744 7.65115V17.8837c0 1.357 -0.5391 2.6583 -1.4986 3.6177C16.5164 22.4609 15.215 23 13.8581 23h-3.4126c-0.79091 -0.0007 -1.57095 -0.1845 -2.27907 -0.5369 -0.70811 -0.3523 -1.32509 -0.8637 -1.80266 -1.4943" stroke-width="1"></path>
  <path stroke="#191919" stroke-linecap="round" stroke-linejoin="round" d="M9.76562 10.2093V2.53488c0 -0.40707 0.16172 -0.79748 0.44958 -1.08532C10.503 1.16172 10.8935 1 11.3005 1c0.4071 0 0.7974 0.16172 1.0854 0.44956 0.2878 0.28784 0.4495 0.67825 0.4495 1.08532v5.62791" stroke-width="1"></path>
  <path stroke="#191919" stroke-linecap="round" stroke-linejoin="round" d="M12.835 4.58139c0 -0.40707 0.1616 -0.79748 0.4495 -1.08532 0.2878 -0.28785 0.6783 -0.44956 1.0853 -0.44956 0.4071 0 0.7975 0.16171 1.0854 0.44956 0.2879 0.28784 0.4495 0.67825 0.4495 1.08532v0.51163" stroke-width="1"></path>
  <path stroke="#191919" stroke-linecap="round" stroke-linejoin="round" d="M22.0443 2.02325 2.09082 21.9767" stroke-width="1"></path>
</svg>