<svg xmlns="http://www.w3.org/2000/svg" fill="none" viewBox="0 0 24 24" id="Stairs-Descend--Streamline-Ultimate">
  <desc>
    Stairs Descend Streamline Icon: https://streamlinehq.com
  </desc>
  <path fill="#c77f67" d="M1 7.69565h6.21739c0.12685 0 0.2485 0.05039 0.33818 0.14008 0.08969 0.08968 0.14008 0.21133 0.14008 0.33818v3.34779h3.34785c0.1268 0 0.2485 0.0504 0.3382 0.1401 0.0896 0.0897 0.14 0.2114 0.14 0.3382v3.3478h3.3479c0.1268 0 0.2485 0.0504 0.3382 0.1401 0.0896 0.0897 0.14 0.2113 0.14 0.3382v3.3478h3.3479c0.1268 0 0.2485 0.0504 0.3382 0.14 0.0896 0.0898 0.14 0.2114 0.14 0.3383V23H1V7.69565Z" stroke-width="1"></path>
  <path fill="#e3bfb3" d="M4.58791 9.52452c-0.089 -0.08929 -0.20967 -0.13983 -0.33574 -0.14061H1V7.69565h6.21739c0.12685 0 0.2485 0.05039 0.33818 0.14008 0.08969 0.08968 0.14008 0.21133 0.14008 0.33818v3.34779h3.34785c0.1268 0 0.2485 0.0504 0.3382 0.1401 0.0896 0.0897 0.14 0.2114 0.14 0.3382v3.3478h3.3479c0.1268 0 0.2485 0.0504 0.3382 0.1401 0.0896 0.0897 0.14 0.2113 0.14 0.3382v3.3478h3.3479c0.1268 0 0.2485 0.0504 0.3382 0.14 0.0896 0.0898 0.14 0.2114 0.14 0.3383V23h-1.1105L4.58791 9.52452Z" stroke-width="1"></path>
  <path stroke="#191919" stroke-linecap="round" stroke-linejoin="round" d="M23 23H1" stroke-width="1"></path>
  <path stroke="#191919" stroke-linecap="round" stroke-linejoin="round" d="M1 7.69565h6.21739c0.12685 0 0.2485 0.05039 0.33818 0.14008 0.08969 0.08968 0.14008 0.21133 0.14008 0.33818v3.34779h3.34785c0.1268 0 0.2485 0.0504 0.3382 0.1401 0.0896 0.0897 0.14 0.2114 0.14 0.3382v3.3478h3.3479c0.1268 0 0.2485 0.0504 0.3382 0.1401 0.0896 0.0897 0.14 0.2113 0.14 0.3382v3.3478h3.3479c0.1268 0 0.2485 0.0504 0.3382 0.14 0.0896 0.0898 0.14 0.2114 0.14 0.3383V23" stroke-width="1"></path>
  <path stroke="#191919" stroke-linecap="round" stroke-linejoin="round" d="m12.478 1 10.5218 10.5217" stroke-width="1"></path>
  <path stroke="#191919" stroke-linecap="round" stroke-linejoin="round" d="M22.9999 6.73914v4.78256h-4.7826" stroke-width="1"></path>
</svg>