<svg xmlns="http://www.w3.org/2000/svg" fill="none" viewBox="0 0 24 24" id="View-Off--Streamline-Ultimate">
  <desc>
    View Off Streamline Icon: https://streamlinehq.com
  </desc>
  <path fill="#e4f1f5" d="M23 12s-4.9242 -6.21738 -11 -6.21738C5.92417 5.78262 1 12 1 12s4.92417 6.2174 11 6.2174C18.0758 18.2174 23 12 23 12Z" stroke-width="1"></path>
  <path fill="#ffffff" d="M12 5.78262C5.92417 5.78262 1 12 1 12s0.38835 0.4898 1.08087 1.1947C3.85522 11.3907 7.62965 8.17393 12 8.17393c4.3703 0 8.1448 3.21677 9.9191 5.02267C22.6117 12.4917 23 12 23 12s-4.9242 -6.21738 -11 -6.21738Z" stroke-width="1"></path>
  <path fill="#66e1ff" d="M11.9999 15.8366c2.1131 0 3.8261 -1.713 3.8261 -3.8261 0 -2.11309 -1.713 -3.82608 -3.8261 -3.82608 -2.11308 0 -3.82607 1.71299 -3.82607 3.82608 0 2.1131 1.71299 3.8261 3.82607 3.8261Z" stroke-width="1"></path>
  <path fill="#c2f3ff" d="M9.29437 14.7156c-0.70433 -0.7202 -1.09625 -1.6891 -1.0907 -2.6964 0.00555 -1.0072 0.40811 -1.9717 1.12034 -2.68406 0.71219 -0.71235 1.67669 -1.11508 2.68399 -1.12081 1.0073 -0.00573 1.9761 0.38602 2.6965 1.09023L9.29437 14.7156Z" stroke-width="1"></path>
  <path stroke="#191919" stroke-linecap="round" stroke-linejoin="round" d="M19.1911 8.45129C20.602 9.47279 21.8813 10.6647 22.9999 12c0 0 -4.9241 6.2174 -11 6.2174 -0.9731 -0.0056 -1.9401 -0.1552 -2.86953 -0.4438" stroke-width="1"></path>
  <path stroke="#191919" stroke-linecap="round" stroke-linejoin="round" d="M4.79548 15.5391C3.38976 14.5198 2.115 13.3311 1 12c0 0 4.92417 -6.21738 11 -6.21738 0.8069 0.00375 1.6102 0.10818 2.3913 0.31087" stroke-width="1"></path>
  <path stroke="#191919" stroke-linecap="round" stroke-linejoin="round" d="M8.17383 12c0 -1.0148 0.4031 -1.9879 1.12063 -2.70545 0.71754 -0.71752 1.69064 -1.12063 2.70544 -1.12063" stroke-width="1"></path>
  <path stroke="#191919" stroke-linecap="round" stroke-linejoin="round" d="M15.8261 12c0 1.0148 -0.4031 1.9879 -1.1207 2.7054 -0.7175 0.7176 -1.6906 1.1207 -2.7054 1.1207" stroke-width="1"></path>
  <path stroke="#191919" stroke-linecap="round" stroke-linejoin="round" d="M21.326 2.67392 2.67383 21.3261" stroke-width="1"></path>
</svg>