<svg xmlns="http://www.w3.org/2000/svg" fill="none" viewBox="0 0 24 24" id="Walking-1--Streamline-Ultimate">
  <desc>
    Walking 1 Streamline Icon: https://streamlinehq.com
  </desc>
  <path fill="#e3e3e3" stroke="#191919" stroke-linecap="round" stroke-linejoin="round" d="M14.1502 6.73305c2.2067 0.00394 3.5902 -2.38232 2.4903 -4.29533C16.1282 1.5467 15.178 0.998131 14.1502 1c-2.2066 0.00403 -3.5814 2.39526 -2.4747 4.30424 0.5119 0.88277 1.4543 1.42694 2.4747 1.42881Z" stroke-width="1"></path>
  <path fill="#e3e3e3" stroke="#191919" stroke-linecap="round" stroke-linejoin="round" d="m11.5226 17.148 1.7561 4.8806c0.3585 1.0436 1.7121 1.3078 2.4366 0.4756 0.3464 -0.3978 0.4462 -0.9538 0.2599 -1.4473l-2.5798 -7.1662c-0.2264 -0.6275 -0.2264 -1.3142 0 -1.9416l0.6687 -1.8613c0.3585 -1.04355 -0.5471 -2.08363 -1.63 -1.87226 -0.4875 0.09509 -0.8909 0.43585 -1.0663 0.90048L7.06803 21.0598c-0.38967 1.0323 0.4842 2.0991 1.573 1.9205 0.52047 -0.0854 0.95201 -0.4499 1.12338 -0.9488l2.18619 -6.0731 -0.428 1.1896Z" stroke-width="1"></path>
</svg>