<svg xmlns="http://www.w3.org/2000/svg" fill="none" viewBox="0 0 48 48" id="Ai-Edit-Robot--Streamline-Plump-Remix">
  <desc>
    Ai Edit Robot Streamline Icon: https://streamlinehq.com
  </desc>
  <g id="ai-edit-robot--change-edit-modify-pencil-write-writing-artificial-intelligence-ai">
    <path id="Union" fill="#000000" fill-rule="evenodd" d="M11 0.5c1.1046 0 2 0.89543 2 2v2.06007c4.723 0.32176 8.5 4.10086 8.5 8.97113 0 1.2509 -0.0834 2.7111 -0.1754 3.9469 -0.1782 2.3954 -1.9634 4.4027 -4.4244 4.6982 -1.5387 0.1847 -3.5837 0.3549 -5.9002 0.3549 -2.31647 0 -4.36152 -0.1702 -5.90019 -0.3549 -2.46105 -0.2955 -4.246199 -2.3028 -4.424445 -4.6982C0.583406 16.2423 0.5 14.7821 0.5 13.5313 0.5 8.66093 4.277 4.88183 9 4.56007V2.5c0 -1.10457 0.89543 -2 2 -2ZM9.5 13.0312c0 -1.1045 -0.89543 -2 -2 -2s-2 0.8955 -2 2v1c0 1.1046 0.89543 2 2 2s2 -0.8954 2 -2v-1Zm5 -2c1.1046 0 2 0.8955 2 2v1c0 1.1046 -0.8954 2 -2 2s-2 -0.8954 -2 -2v-1c0 -1.1045 0.8954 -2 2 -2Zm19.6054 3.8064c1.1749 -1.175 2.6334 -1.2727 3.5833 -0.5721 0.8522 0.6285 1.8353 1.4456 2.8764 2.4867 1.041 1.041 1.8581 2.0241 2.4867 2.8763 0.7006 0.9499 0.6029 2.4084 -0.5721 3.5834l-1.4346 1.4346c-0.6889 -1.2517 -1.8197 -2.8913 -3.6517 -4.7232 -1.8316 -1.8316 -3.4709 -2.9623 -4.7225 -3.6512l1.4345 -1.4345Zm3.4915 11.8409c0.2256 0.4205 0.3663 0.7492 0.4493 0.9669L22.8986 42.7929c-0.691 -1.2198 -1.8299 -2.8488 -3.6781 -4.697 -1.8477 -1.8476 -3.4763 -2.9865 -4.6959 -3.6775L29.672 19.2709c0.2178 0.0829 0.5462 0.2236 0.9663 0.449 0.9226 0.495 2.3012 1.4063 3.9267 3.0319 1.6256 1.6255 2.5368 3.0041 3.0319 3.9267Zm2.4661 -15.6321c-2.9141 -2.14929 -6.5661 -1.25729 -8.7861 0.9627L11.604 31.6821c-0.8829 0.8829 -1.515 2.0693 -1.63156 3.4278 -0.13734 1.6004 -0.27053 4.5096 0.00815 8.5717 0.13441 1.9599 1.69521 3.5206 3.65511 3.6551 4.062 0.2787 6.9713 0.1455 8.5716 0.0081 1.3585 -0.1165 2.5449 -0.7486 3.4278 -1.6315l19.673 -19.673c2.2201 -2.22 3.1121 -5.872 0.9628 -8.786 -0.7393 -1.0024 -1.6858 -2.1389 -2.8774 -3.3305 -1.1916 -1.1917 -2.3282 -2.1382 -3.3305 -2.8774Z" clip-rule="evenodd" stroke-width="1"></path>
  </g>
</svg>