<svg xmlns="http://www.w3.org/2000/svg" fill="none" viewBox="0 0 24 24" id="Hearing-Deaf-1--Streamline-Sharp">
  <desc>
    Hearing Deaf 1 Streamline Icon: https://streamlinehq.com
  </desc>
  <g id="hearing-deaf-1--disability-hearing-deaf">
    <path id="Union" fill="#8fbffa" fill-rule="evenodd" d="M13.86 21.045c0.588 -0.908 0.827 -1.966 0.886 -2.856a134.399 134.399 0 0 0 2.936 -2.792C19.85 13.277 21 11.203 21 8.73a7.73 7.73 0 0 0 -15.46 0v9c0 1.022 0.164 2.31 0.83 3.373C7.085 22.24 8.3 23 10.089 23c1.814 0 3.042 -0.826 3.772 -1.955Z" clip-rule="evenodd" stroke-width="1"></path>
    <path id="Union_2" fill="#2859c5" fill-rule="evenodd" d="m0.293 1.707 22 22 1.414 -1.414L10.136 8.722a3.14 3.14 0 0 1 6.274 0.206h2a5.14 5.14 0 0 0 -9.932 -1.864L1.708 0.293 0.292 1.707Z" clip-rule="evenodd" stroke-width="1"></path>
  </g>
</svg>