<svg xmlns="http://www.w3.org/2000/svg" fill="none" viewBox="0 0 24 24" id="Hot-Spring--Streamline-Sharp">
  <desc>
    Hot Spring Streamline Icon: https://streamlinehq.com
  </desc>
  <g id="hot-spring--relax-location-outdoor-recreation-spa-travel-places">
    <path id="Rectangle 856" fill="#8fbffa" d="M1 12h22v10H1V12Z" stroke-width="1"></path>
    <path id="Union" fill="#2859c5" fill-rule="evenodd" d="M11.8353 1.25244c-1.3915 1.23698 -1.8121 2.73685 -1.7566 4.25274 0.0519 1.41865 0.5245 2.90335 0.9456 4.22626l0.0228 0.0716c0.4484 1.40916 0.8345 2.64636 0.8754 3.76456 0.0382 1.0466 -0.2286 1.9217 -1.0871 2.6848l1.3286 1.4949c1.3917 -1.237 1.8126 -2.7368 1.7572 -4.2527 -0.0519 -1.4189 -0.5245 -2.9037 -0.9456 -4.22678l0 -0.00001 -0.0227 -0.07119c-0.4484 -1.4092 -0.8346 -2.64644 -0.8755 -3.76464 -0.0384 -1.04661 0.2284 -1.92174 1.0867 -2.68476l-1.3288 -1.49478Zm-6.61605 5.6256c-0.04194 -1.2164 0.40231 -2.41406 1.57361 -3.58533l1.41419 1.41424c-0.82876 0.82874 -1.00954 1.50607 -0.98899 2.10218 0.02363 0.68536 0.3098 1.38403 0.70099 2.29678l0.03033 0.07073c0.3541 0.82536 0.79341 1.84936 0.83118 2.94496 0.04194 1.2164 -0.40232 2.4141 -1.57362 3.5853l-1.41419 -1.4142c0.82877 -0.8287 1.00955 -1.5061 0.989 -2.1022 -0.02363 -0.6853 -0.30981 -1.384 -0.70099 -2.29675l-0.03034 -0.07073c-0.35409 -0.82537 -0.7934 -1.84937 -0.83117 -2.94498Zm9.78345 0c-0.0419 -1.2164 0.4023 -2.41406 1.5736 -3.58533l1.4142 1.41424c-0.8288 0.82874 -1.0095 1.50607 -0.989 2.10218 0.0236 0.68536 0.3098 1.38403 0.701 2.29678l0.0303 0.07073c0.3541 0.82536 0.7934 1.84936 0.8312 2.94496 0.0419 1.2164 -0.4023 2.4141 -1.5736 3.5853l-1.4142 -1.4142c0.8288 -0.8287 1.0095 -1.5061 0.989 -2.1022 -0.0236 -0.6853 -0.3098 -1.384 -0.701 -2.29675l-0.0303 -0.07073c-0.3541 -0.82537 -0.7934 -1.84937 -0.8312 -2.94498Z" clip-rule="evenodd" stroke-width="1"></path>
  </g>
</svg>