<svg xmlns="http://www.w3.org/2000/svg" fill="none" viewBox="0 0 24 24" id="Passport-Globe--Streamline-Sharp">
  <desc>
    Passport Globe Streamline Icon: https://streamlinehq.com
  </desc>
  <g id="passport-globe--international-travel-book-id-adventure-visa-airport">
    <path id="Union" fill="#2859c5" d="M21 12h-9v11.0001h9V12Z" stroke-width="1"></path>
    <path id="Subtract" fill="#8fbffa" fill-rule="evenodd" d="M15.7304 10.4999C15.9061 9.8632 16 9.19256 16 8.5 16 4.35786 12.6421 1 8.5 1 4.35786 1 1 4.35786 1 8.5 1 12.6421 4.35786 16 8.5 16c0.69261 0 1.36328 -0.0939 2 -0.2696v-5.2305h5.2304Z" clip-rule="evenodd" stroke-width="1"></path>
    <path id="Intersect" fill="#2859c5" fill-rule="evenodd" d="m8.63569 1.0012 -0.13577 5.99879h-3V10.5H1.26961C1.09388 9.86327 1 9.1926 1 8.5 1 4.35786 4.35786 1 8.5 1c0.04533 0 0.09056 0.0004 0.13569 0.0012Z" clip-rule="evenodd" stroke-width="1"></path>
    <path id="Ellipse 1166" fill="#8fbffa" d="M14.5 17.5a2 2 0 1 0 4 0 2 2 0 1 0 -4 0" stroke-width="1"></path>
  </g>
</svg>