<svg xmlns="http://www.w3.org/2000/svg" fill="none" viewBox="0 0 24 24" id="Contactless-Payment--Streamline-Ultimate">
  <desc>
    Contactless Payment Streamline Icon: https://streamlinehq.com
  </desc>
  <path fill="#c9f7ca" d="M7.69542 5.30459c-0.76103 0 -1.49089 0.30232 -2.02902 0.84045s-0.84045 1.26799 -0.84045 2.02902H1c0 -1.77574 0.70541 -3.47874 1.96104 -4.73438 1.25564 -1.25563 2.95864 -1.96104 4.73438 -1.96104v3.82595Z" stroke-width="1"></path>
  <path fill="#66e1ff" d="m18.6966 12.9565 -2.4868 2.4964 -1.9991 1.9895 -1.7217 1.7313h-0.0095l-6.97284 -6.9824c-0.17814 -0.1792 -0.27814 -0.4216 -0.27814 -0.6743 0 -0.2527 0.1 -0.4952 0.27814 -0.6743l4.86854 -4.86858c0.1792 -0.17814 0.4216 -0.27814 0.6743 -0.27814 0.2527 0 0.4951 0.1 0.6743 0.27814l6.9728 6.98238Z" stroke-width="1"></path>
  <path fill="#c2f3ff" d="m15.5972 16.0651 0.615 -0.6122 2.483 -2.4964 -6.9728 -6.98238c-0.1792 -0.17814 -0.4216 -0.27814 -0.6743 -0.27814 -0.2527 0 -0.4951 0.1 -0.6743 0.27814L7.94238 8.40934l7.65482 7.65576Z" stroke-width="1"></path>
  <path stroke="#191919" stroke-linecap="round" stroke-linejoin="round" d="m18.6966 12.9565 -2.4868 2.4964 -1.9991 1.9895 -1.7217 1.7313h-0.0095l-6.97284 -6.9824c-0.17814 -0.1792 -0.27814 -0.4216 -0.27814 -0.6743 0 -0.2527 0.1 -0.4952 0.27814 -0.6743l4.86854 -4.86858c0.1792 -0.17814 0.4216 -0.27814 0.6743 -0.27814 0.2527 0 0.4951 0.1 0.6743 0.27814l6.9728 6.98238Z" stroke-width="1"></path>
  <path fill="#ffffff" stroke="#191919" stroke-linecap="round" stroke-linejoin="round" d="m19.9393 15.539 -1.4347 1.4347 -2.4295 2.4391 -1.0043 0.9947c-0.1792 0.1782 -0.4216 0.2782 -0.6743 0.2782 -0.2527 0 -0.4951 -0.1 -0.6743 -0.2782l-1.2339 -1.2338 1.7217 -1.7313 1.999 -1.9895 2.4869 -2.4964 1.2434 1.2339c0.1781 0.1792 0.2782 0.4216 0.2782 0.6743 0 0.2527 -0.1001 0.4951 -0.2782 0.6743Z" stroke-width="1"></path>
  <path stroke="#191919" stroke-linecap="round" stroke-linejoin="round" d="M1 8.17406c0 -1.77574 0.70541 -3.47874 1.96104 -4.73438 1.25564 -1.25563 2.95864 -1.96104 4.73438 -1.96104" stroke-width="1"></path>
  <path stroke="#191919" stroke-linecap="round" stroke-linejoin="round" d="M2.91406 8.17404c0 -1.26838 0.50386 -2.48481 1.40075 -3.38169 0.89688 -0.89689 2.11331 -1.40075 3.38169 -1.40075" stroke-width="1"></path>
  <path stroke="#191919" stroke-linecap="round" stroke-linejoin="round" d="M4.82617 8.17397c0 -0.76103 0.30232 -1.49089 0.84045 -2.02902s1.26799 -0.84045 2.02902 -0.84045" stroke-width="1"></path>
  <path stroke="#191919" stroke-linecap="round" stroke-linejoin="round" d="m11.4132 10.527 -0.9355 0.9354c-0.0941 0.0941 -0.1537 0.2174 -0.1691 0.3497 -0.0153 0.1323 0.0145 0.2659 0.0846 0.3792 0.0701 0.1132 0.1763 0.1995 0.3015 0.2448 0.1252 0.0453 0.2621 0.047 0.3885 0.0048l1.3391 -0.4457c0.1264 -0.0423 0.2634 -0.0406 0.3887 0.0049 0.1254 0.0453 0.2316 0.1318 0.3017 0.2452 0.07 0.1134 0.0995 0.2473 0.0839 0.3796 -0.0156 0.1324 -0.0754 0.2556 -0.1698 0.3497l-0.9374 0.9345" stroke-width="1"></path>
  <path stroke="#191919" stroke-linecap="round" stroke-linejoin="round" d="m10.7377 11.2042 -0.6772 -0.6772" stroke-width="1"></path>
  <path stroke="#191919" stroke-linecap="round" stroke-linejoin="round" d="m13.4428 13.9129 -0.6772 -0.6791" stroke-width="1"></path>
  <path fill="#ffdda1" d="m23.0005 22.5213 -4.5529 -1.5112c-0.7809 -0.2567 -1.4892 -0.6961 -2.066 -1.2817l-1.8939 -1.8939c-0.2606 -0.2607 -0.415 -0.609 -0.4332 -0.9771 -0.0181 -0.3683 0.1013 -0.73 0.3351 -1.015 0.2337 -0.2851 0.5652 -0.473 0.9298 -0.5273 0.3646 -0.0544 0.7364 0.0288 1.043 0.2334l2.1426 1.4252 1.4347 -1.4347c0.1781 -0.1793 0.2781 -0.4216 0.2781 -0.6744 0 -0.2527 -0.1 -0.495 -0.2781 -0.6743L15.119 9.36962l0.2678 -0.26781c0.5429 -0.5462 1.2675 -0.87418 2.0361 -0.92178 0.7686 -0.04761 1.528 0.18849 2.1342 0.66352l3.4434 2.67815" stroke-width="1"></path>
  <path stroke="#191919" stroke-linecap="round" stroke-linejoin="round" d="m23.0005 22.5213 -4.5529 -1.5112c-0.7809 -0.2567 -1.4892 -0.6961 -2.066 -1.2817l-1.8939 -1.8939c-0.2606 -0.2607 -0.415 -0.609 -0.4332 -0.9771 -0.0181 -0.3683 0.1013 -0.73 0.3351 -1.015 0.2337 -0.2851 0.5652 -0.473 0.9298 -0.5273 0.3646 -0.0544 0.7364 0.0288 1.043 0.2334l2.1426 1.4252 1.4347 -1.4347c0.1781 -0.1793 0.2781 -0.4216 0.2781 -0.6744 0 -0.2527 -0.1 -0.495 -0.2781 -0.6743L15.119 9.36962l0.2678 -0.26781c0.5429 -0.5462 1.2675 -0.87418 2.0361 -0.92178 0.7686 -0.04761 1.528 0.18849 2.1342 0.66352l3.4434 2.67815" stroke-width="1"></path>
  <path stroke="#191919" stroke-linecap="round" stroke-linejoin="round" d="m19.6556 17.7389 -1.1478 -0.7652" stroke-width="1"></path>
</svg>