<svg xmlns="http://www.w3.org/2000/svg" fill="none" viewBox="0 0 24 24" id="Credit-Card-1--Streamline-Ultimate">
  <desc>
    Credit Card 1 Streamline Icon: https://streamlinehq.com
  </desc>
  <path fill="#ffef5e" d="M21.087 4.34784H2.91304c-0.50691 0.00151 -0.99261 0.20355 -1.35105 0.56198 -0.35844 0.35845 -0.56048 0.84415 -0.56199 1.35106V17.7391c0.00151 0.5069 0.20355 0.9926 0.56199 1.3511 0.35844 0.3584 0.84414 0.5605 1.35105 0.562H21.087c0.5073 0 0.9939 -0.2016 1.3527 -0.5603 0.3588 -0.3588 0.5603 -0.8454 0.5603 -1.3528V6.26088c0 -0.50737 -0.2015 -0.99396 -0.5603 -1.35272 -0.3588 -0.35877 -0.8454 -0.56032 -1.3527 -0.56032Z" stroke-width="1"></path>
  <path fill="#fff9bf" d="M2.91304 4.34784c-0.50691 0.00151 -0.99261 0.20355 -1.35105 0.56198 -0.35844 0.35845 -0.56048 0.84415 -0.56199 1.35106V17.7391c0.0018 0.4473 0.15985 0.8799 0.44683 1.2229 0.28698 0.3431 0.68483 0.575 1.12474 0.6558L17.8443 4.34784H2.91304Z" stroke-width="1"></path>
  <path stroke="#191919" stroke-linecap="round" stroke-linejoin="round" d="M23 6.26088v1.91305H1V6.26088c0.00151 -0.50691 0.20355 -0.99261 0.56199 -1.35106 0.35844 -0.35843 0.84414 -0.56047 1.35105 -0.56198H21.087c0.5073 0 0.9939 0.20155 1.3527 0.56032 0.3588 0.35876 0.5603 0.84535 0.5603 1.35272Z" stroke-width="1"></path>
  <path stroke="#191919" stroke-linecap="round" stroke-linejoin="round" d="M23 8.17383V17.739c0 0.5074 -0.2015 0.994 -0.5603 1.3528 -0.3588 0.3587 -0.8454 0.5603 -1.3527 0.5603H2.91304c-0.50691 -0.0015 -0.99261 -0.2036 -1.35105 -0.562 -0.35844 -0.3585 -0.56048 -0.8442 -0.56199 -1.3511V8.17383h22Z" stroke-width="1"></path>
  <path stroke="#191919" stroke-linecap="round" stroke-linejoin="round" d="M20.1376 12h-2.8695" stroke-width="1"></path>
  <path stroke="#191919" stroke-linecap="round" stroke-linejoin="round" d="M11.5296 12H3.87744" stroke-width="1"></path>
  <path stroke="#191919" stroke-linecap="round" stroke-linejoin="round" d="M6.74701 14.8696H3.87744" stroke-width="1"></path>
</svg>