<svg xmlns="http://www.w3.org/2000/svg" fill="none" viewBox="0 0 24 24" id="Credit-Card-Visa--Streamline-Ultimate">
  <desc>
    Credit Card Visa Streamline Icon: https://streamlinehq.com
  </desc>
  <path fill="#66e1ff" d="M1 5.78261c0 -0.50737 0.20155 -0.99396 0.56032 -1.35272 0.35876 -0.35877 0.84535 -0.56032 1.35272 -0.56032H21.087c0.5073 0 0.9939 0.20155 1.3527 0.56032 0.3587 0.35876 0.5603 0.84535 0.5603 1.35272V18.2174c0 0.5074 -0.2016 0.994 -0.5603 1.3527 -0.3588 0.3588 -0.8454 0.5603 -1.3527 0.5603H2.91304c-0.50737 0 -0.99396 -0.2015 -1.35272 -0.5603C1.20155 19.2114 1 18.7248 1 18.2174V5.78261Z" stroke-width="1"></path>
  <path fill="#c2f3ff" d="M2.91304 3.86957c-0.50737 0 -0.99396 0.20155 -1.35272 0.56032C1.20155 4.78865 1 5.27524 1 5.78261V18.2174c0 0.4974 0.19513 0.9756 0.5433 1.3324L17.2245 3.86957H2.91304Z" stroke-width="1"></path>
  <path stroke="#191919" stroke-linecap="round" stroke-linejoin="round" d="M1 5.78261c0 -0.50737 0.20155 -0.99396 0.56032 -1.35272 0.35876 -0.35877 0.84535 -0.56032 1.35272 -0.56032H21.087c0.5073 0 0.9939 0.20155 1.3527 0.56032 0.3587 0.35876 0.5603 0.84535 0.5603 1.35272V18.2174c0 0.5074 -0.2016 0.994 -0.5603 1.3527 -0.3588 0.3588 -0.8454 0.5603 -1.3527 0.5603H2.91304c-0.50737 0 -0.99396 -0.2015 -1.35272 -0.5603C1.20155 19.2114 1 18.7248 1 18.2174V5.78261Z" stroke-width="1"></path>
  <path stroke="#191919" stroke-linecap="round" stroke-linejoin="round" d="M5.25977 10.086h1.2253l0.34626 3.4435c0.0094 0.093 0.04898 0.1804 0.11268 0.2489 0.06371 0.0684 0.14805 0.1141 0.24016 0.1302 0.09212 0.016 0.18695 0.0015 0.27004 -0.0414s0.14987 -0.1118 0.19016 -0.1961l1.7734 -3.68935" stroke-width="1"></path>
  <path stroke="#191919" stroke-linecap="round" stroke-linejoin="round" d="m11.1478 10.0582 -0.7738 3.8854" stroke-width="1"></path>
  <path stroke="#191919" stroke-linecap="round" stroke-linejoin="round" d="M14.7054 10.0133s-1.3152 -0.34432 -1.7638 0.4037c-0.4487 0.748 0.2544 1.2253 0.7173 1.5094 0.463 0.2841 0.9719 0.7174 0.837 1.2253 -0.1349 0.5079 -0.7021 1.2559 -2.2 0.7327" stroke-width="1"></path>
  <path stroke="#191919" stroke-linecap="round" stroke-linejoin="round" d="m15.8271 13.9427 1.7983 -3.6243c0.0405 -0.0815 0.1067 -0.1476 0.1883 -0.1881 0.0816 -0.0404 0.1742 -0.0531 0.2637 -0.0359 0.0894 0.0171 0.1708 0.063 0.2317 0.1308 0.0609 0.0678 0.0979 0.1536 0.1054 0.2444l0.287 3.4138" stroke-width="1"></path>
  <path stroke="#191919" stroke-linecap="round" stroke-linejoin="round" d="M16.3945 12.7939h2.2268" stroke-width="1"></path>
</svg>