<svg xmlns="http://www.w3.org/2000/svg" fill="none" viewBox="0 0 24 24" id="Crypto-Currency-Bitcoin-Laptop--Streamline-Ultimate">
  <desc>
    Crypto Currency Bitcoin Laptop Streamline Icon: https://streamlinehq.com
  </desc>
  <path fill="#66e1ff" d="M3.80308 3.80414H20.1947c0.2557 0 0.501 0.10159 0.6818 0.28241 0.1808 0.18082 0.2824 0.42607 0.2824 0.6818V17.3031H2.83887V4.76835c0 -0.25573 0.10159 -0.50098 0.28241 -0.6818 0.18082 -0.18082 0.42607 -0.28241 0.6818 -0.28241Z" stroke-width="1"></path>
  <path fill="#c2f3ff" d="M18.4003 3.80414H3.80308c-0.25573 0 -0.50098 0.10159 -0.6818 0.28241 -0.18082 0.18082 -0.28241 0.42607 -0.28241 0.6818V17.3031h2.06245L18.4003 3.80414Z" stroke-width="1"></path>
  <path stroke="#191919" stroke-linecap="round" stroke-linejoin="round" d="M3.80308 3.80414H20.1947c0.2557 0 0.501 0.10159 0.6818 0.28241 0.1808 0.18082 0.2824 0.42607 0.2824 0.6818V17.3031H2.83887V4.76835c0 -0.25573 0.10159 -0.50098 0.28241 -0.6818 0.18082 -0.18082 0.42607 -0.28241 0.6818 -0.28241Z" stroke-width="1"></path>
  <path stroke="#191919" stroke-linecap="round" stroke-linejoin="round" d="M11.0342 5.75189v1.90914" stroke-width="1"></path>
  <path stroke="#191919" stroke-linecap="round" stroke-linejoin="round" d="M12.9639 5.75189v1.90914" stroke-width="1"></path>
  <path stroke="#191919" stroke-linecap="round" stroke-linejoin="round" d="M11.0342 13.4655v1.9092" stroke-width="1"></path>
  <path stroke="#191919" stroke-linecap="round" stroke-linejoin="round" d="M12.9639 13.4655v1.9092" stroke-width="1"></path>
  <path stroke="#191919" stroke-linecap="round" stroke-linejoin="round" d="M14.8914 9.10733c0 0.38358 -0.1524 0.75147 -0.4236 1.02277 -0.2712 0.2712 -0.6392 0.4235 -1.0227 0.4235h-3.3748V7.66101h3.3748c0.3835 0 0.7515 0.15238 1.0227 0.42362 0.2712 0.27123 0.4236 0.63912 0.4236 1.0227Z" stroke-width="1"></path>
  <path stroke="#191919" stroke-linecap="round" stroke-linejoin="round" d="M14.8914 12c0 0.3835 -0.1524 0.7515 -0.4236 1.0227s-0.6392 0.4236 -1.0227 0.4236h-3.3748v-2.8927h3.3748c0.3835 0 0.7515 0.1524 1.0227 0.4236 0.2712 0.2713 0.4236 0.6392 0.4236 1.0228Z" stroke-width="1"></path>
  <path fill="#e3e3e3" stroke="#191919" stroke-linecap="round" stroke-linejoin="round" d="M20.9725 20.1958H3.03137c-0.45731 0.0012 -0.90019 -0.1602 -1.24953 -0.4553 -0.34935 -0.2951 -0.58245 -0.7048 -0.65768 -1.1559l-0.11763 -0.7203c-0.011439 -0.0687 -0.007817 -0.1392 0.01062 -0.2065 0.01843 -0.0672 0.05124 -0.1297 0.09616 -0.183 0.04491 -0.0534 0.10087 -0.0963 0.164 -0.126 0.06313 -0.0296 0.13195 -0.0452 0.20168 -0.0456H22.5181c0.07 0 0.1391 0.0153 0.2026 0.0447 0.0635 0.0294 0.1198 0.0723 0.1651 0.1257 0.0452 0.0535 0.0783 0.116 0.0969 0.1835 0.0186 0.0675 0.0222 0.1382 0.0108 0.2072l-0.1206 0.7203c-0.075 0.45 -0.3071 0.8587 -0.655 1.1537 -0.348 0.295 -0.7893 0.4571 -1.2454 0.4575Z" stroke-width="1"></path>
</svg>