<svg xmlns="http://www.w3.org/2000/svg" fill="none" viewBox="0 0 24 24" id="Crypto-Currency-Bitcoin-Bill--Streamline-Ultimate">
  <desc>
    Crypto Currency Bitcoin Bill Streamline Icon: https://streamlinehq.com
  </desc>
  <path fill="#ffef5e" d="M23 12c-0.001 -0.8893 -0.2773 -1.7565 -0.7911 -2.48243 -0.5139 -0.72589 -1.24 -1.27478 -2.0784 -1.57123V6.73922c0 -0.25368 -0.1008 -0.49697 -0.2802 -0.67635 -0.1793 -0.17938 -0.4227 -0.28016 -0.6763 -0.28016H4.82633c-0.25369 0 -0.49698 0.10078 -0.67636 0.28016 -0.17939 0.17938 -0.28015 0.42267 -0.28015 0.67635v1.20712c-0.83909 0.2957 -1.56575 0.84447 -2.07976 1.57062C1.27604 10.2431 1 11.1109 1 12.0005c0 0.8897 0.27604 1.7574 0.79006 2.4836 0.51401 0.7261 1.24067 1.2749 2.07976 1.5706v1.2061c0 0.2537 0.10076 0.497 0.28015 0.6764 0.17938 0.1793 0.42267 0.2801 0.67636 0.2801H19.174c0.2536 0 0.497 -0.1008 0.6763 -0.2801 0.1794 -0.1794 0.2802 -0.4227 0.2802 -0.6764v-1.2061c0.8386 -0.2965 1.5648 -0.8456 2.0787 -1.5717 0.5138 -0.7261 0.7901 -1.5934 0.7908 -2.483Z" stroke-width="1"></path>
  <path fill="#fff9bf" d="M4.82633 5.78271c-0.25369 0 -0.49698 0.10078 -0.67636 0.28016 -0.17939 0.17938 -0.28015 0.42267 -0.28015 0.67635v1.20712c-0.83909 0.2957 -1.56575 0.84447 -2.07976 1.57062C1.27604 10.2431 1 11.1109 1 12.0005c0 0.8897 0.27604 1.7574 0.79006 2.4836 0.51401 0.7261 1.24067 1.2749 2.07976 1.5706v1.2061c0 0.1485 0.03456 0.295 0.10097 0.4278 0.06642 0.1328 0.16283 0.2484 0.28163 0.3374L16.4957 5.78271H4.82633Z" stroke-width="1"></path>
  <path stroke="#191919" stroke-linecap="round" stroke-linejoin="round" d="M23 12c-0.001 -0.8893 -0.2773 -1.7565 -0.7911 -2.48243 -0.5139 -0.72589 -1.24 -1.27478 -2.0784 -1.57123V6.73922c0 -0.25368 -0.1008 -0.49697 -0.2802 -0.67635 -0.1793 -0.17938 -0.4227 -0.28016 -0.6763 -0.28016H4.82633c-0.25369 0 -0.49698 0.10078 -0.67636 0.28016 -0.17939 0.17938 -0.28015 0.42267 -0.28015 0.67635v1.20712c-0.83909 0.2957 -1.56575 0.84447 -2.07976 1.57062C1.27604 10.2431 1 11.1109 1 12.0005c0 0.8897 0.27604 1.7574 0.79006 2.4836 0.51401 0.7261 1.24067 1.2749 2.07976 1.5706v1.2061c0 0.2537 0.10076 0.497 0.28015 0.6764 0.17938 0.1793 0.42267 0.2801 0.67636 0.2801H19.174c0.2536 0 0.497 -0.1008 0.6763 -0.2801 0.1794 -0.1794 0.2802 -0.4227 0.2802 -0.6764v-1.2061c0.8386 -0.2965 1.5648 -0.8456 2.0787 -1.5717 0.5138 -0.7261 0.7901 -1.5934 0.7908 -2.483Z" stroke-width="1"></path>
  <path stroke="#191919" stroke-linecap="round" stroke-linejoin="round" d="M13.9139 10.5653c0 0.3805 -0.1511 0.7455 -0.4202 1.0145 -0.269 0.2691 -0.634 0.4202 -1.0145 0.4202h-2.3913V9.13049h2.3913c0.3805 0 0.7455 0.15117 1.0145 0.42024 0.2691 0.26906 0.4202 0.63407 0.4202 1.01457Z" stroke-width="1"></path>
  <path stroke="#191919" stroke-linecap="round" stroke-linejoin="round" d="M13.9139 13.4348c0 0.3805 -0.1511 0.7455 -0.4202 1.0145 -0.269 0.2691 -0.634 0.4202 -1.0145 0.4202h-2.3913V12h2.3913c0.3805 0 0.7455 0.1511 1.0145 0.4202 0.2691 0.2691 0.4202 0.6341 0.4202 1.0146Z" stroke-width="1"></path>
  <path stroke="#191919" stroke-linecap="round" stroke-linejoin="round" d="M12 8.17389v0.95651" stroke-width="1"></path>
  <path stroke="#191919" stroke-linecap="round" stroke-linejoin="round" d="M12 14.8695v0.9565" stroke-width="1"></path>
</svg>