<svg xmlns="http://www.w3.org/2000/svg" fill="none" viewBox="0 0 24 24" id="Crypto-Currency-Bitcoin-Code--Streamline-Ultimate">
  <desc>
    Crypto Currency Bitcoin Code Streamline Icon: https://streamlinehq.com
  </desc>
  <path fill="#c9f7ca" d="M19.3333 1H4.66667C2.64162 1 1 2.64162 1 4.66667V19.3333C1 21.3583 2.64162 23 4.66667 23H19.3333C21.3583 23 23 21.3583 23 19.3333V4.66667C23 2.64162 21.3583 1 19.3333 1Z" stroke-width="1"></path>
  <path fill="#ffef5e" d="M8.33301 22.5417c1.35974 0 2.68899 -0.4033 3.81959 -1.1587 1.1305 -0.7554 2.0117 -1.8291 2.5321 -3.0854 0.5204 -1.2562 0.6565 -2.6385 0.3912 -3.9722 -0.2653 -1.3335 -0.92 -2.5586 -1.8815 -3.5201 -0.9615 -0.96145 -2.1866 -1.61624 -3.52014 -1.88151 -1.33363 -0.26527 -2.71596 -0.12912 -3.9722 0.39123 -1.25624 0.52035 -2.32997 1.40158 -3.0854 2.53208 -0.75544 1.1306 -1.15865 2.4598 -1.15865 3.8196 0 1.8233 0.72433 3.5721 2.01364 4.8613 1.28931 1.2893 3.038 2.0137 4.86136 2.0137Z" stroke-width="1"></path>
  <path fill="#fff9bf" d="M8.33371 8.79169c-1.36284 0.00044 -2.69481 0.40593 -3.82673 1.16494 -1.13191 0.75907 -2.0127 1.83737 -2.5305 3.09797 -0.51779 1.2606 -0.64923 2.6467 -0.37762 3.9822 0.27162 1.3356 0.93402 2.5602 1.9031 3.5185l9.71664 -9.7167c-0.6378 -0.6482 -1.3981 -1.16289 -2.2367 -1.5143 -0.8387 -0.35142 -1.73889 -0.53248 -2.64819 -0.53261Z" stroke-width="1"></path>
  <path stroke="#191919" stroke-linecap="round" stroke-linejoin="round" d="M8.33301 22.5417c1.35974 0 2.68899 -0.4033 3.81959 -1.1587 1.1305 -0.7554 2.0117 -1.8291 2.5321 -3.0854 0.5204 -1.2562 0.6565 -2.6385 0.3912 -3.9722 -0.2653 -1.3335 -0.92 -2.5586 -1.8815 -3.5201 -0.9615 -0.96145 -2.1866 -1.61624 -3.52014 -1.88151 -1.33363 -0.26527 -2.71596 -0.12912 -3.9722 0.39123 -1.25624 0.52035 -2.32997 1.40158 -3.0854 2.53208 -0.75544 1.1306 -1.15865 2.4598 -1.15865 3.8196 0 1.8233 0.72433 3.5721 2.01364 4.8613 1.28931 1.2893 3.038 2.0137 4.86136 2.0137Z" stroke-width="1"></path>
  <path stroke="#191919" stroke-linecap="round" stroke-linejoin="round" d="M2.375 6.95831h3.66667" stroke-width="1"></path>
  <path stroke="#191919" stroke-linecap="round" stroke-linejoin="round" d="m2.375 2.83331 1.21275 -1.21275c0.05128 -0.05158 0.11227 -0.09248 0.17946 -0.12033 0.06719 -0.02785 0.13923 -0.04209 0.21196 -0.04192 0.0607 0.00025 0.11885 0.02447 0.16178 0.06739 0.04292 0.04293 0.06715 0.10108 0.06738 0.16178v5.27083" stroke-width="1"></path>
  <path stroke="#191919" stroke-linecap="round" stroke-linejoin="round" d="M9.70833 1.45831c-0.48622 0 -0.95254 0.19316 -1.29636 0.53698 -0.34382 0.34381 -0.53697 0.81013 -0.53697 1.29636v1.83333c0 0.48623 0.19315 0.95254 0.53697 1.29636 0.34382 0.34382 0.81014 0.53697 1.29636 0.53697 0.48617 0 0.95247 -0.19315 1.29637 -0.53697 0.3438 -0.34382 0.537 -0.81013 0.537 -1.29636V3.29165c0 -0.48623 -0.1932 -0.95255 -0.537 -1.29636 -0.3439 -0.34382 -0.8102 -0.53698 -1.29637 -0.53698Z" stroke-width="1"></path>
  <path stroke="#191919" stroke-linecap="round" stroke-linejoin="round" d="M13.375 6.95831h3.6667" stroke-width="1"></path>
  <path stroke="#191919" stroke-linecap="round" stroke-linejoin="round" d="m13.375 2.83331 1.2128 -1.21275c0.0512 -0.05158 0.1122 -0.09248 0.1794 -0.12033 0.0672 -0.02785 0.1393 -0.04209 0.212 -0.04192 0.0607 0 0.119 0.02415 0.162 0.06713 0.043 0.04297 0.0671 0.10126 0.0671 0.16204v5.27083" stroke-width="1"></path>
  <path stroke="#191919" stroke-linecap="round" stroke-linejoin="round" d="M20.7083 1.45831c-0.4862 0 -0.9525 0.19316 -1.2963 0.53698 -0.3439 0.34381 -0.537 0.81013 -0.537 1.29636v1.83333c0 0.48623 0.1931 0.95254 0.537 1.29636 0.3438 0.34382 0.8101 0.53697 1.2963 0.53697 0.4862 0 0.9525 -0.19315 1.2964 -0.53697 0.3438 -0.34382 0.537 -0.81013 0.537 -1.29636V3.29165c0 -0.48623 -0.1932 -0.95255 -0.537 -1.29636 -0.3439 -0.34382 -0.8102 -0.53698 -1.2964 -0.53698Z" stroke-width="1"></path>
  <path stroke="#191919" stroke-linecap="round" stroke-linejoin="round" d="M18.875 14.2917h3.6667" stroke-width="1"></path>
  <path stroke="#191919" stroke-linecap="round" stroke-linejoin="round" d="m18.875 10.1667 1.2128 -1.21276c0.0512 -0.05158 0.1122 -0.09248 0.1794 -0.12033 0.0672 -0.02785 0.1393 -0.0421 0.212 -0.04192 0.0607 0 0.119 0.02414 0.162 0.06712 0.043 0.04298 0.0671 0.10127 0.0671 0.16205v5.27084" stroke-width="1"></path>
  <path stroke="#191919" stroke-linecap="round" stroke-linejoin="round" d="M16.7851 13.3933c0.1681 -0.2828 0.2565 -0.6059 0.2557 -0.935V10.625c0 -0.281 -0.0645 -0.5581 -0.1886 -0.81015 -0.1241 -0.25202 -0.3045 -0.47215 -0.5272 -0.64339 -0.2227 -0.17125 -0.4818 -0.28901 -0.7573 -0.34421 -0.2754 -0.0552 -0.5599 -0.04637 -0.8314 0.02583" stroke-width="1"></path>
  <path stroke="#191919" stroke-linecap="round" stroke-linejoin="round" d="M15.208 21.625h1.8333" stroke-width="1"></path>
  <path stroke="#191919" stroke-linecap="round" stroke-linejoin="round" d="M15.208 20.7083v0.9167" stroke-width="1"></path>
  <path stroke="#191919" stroke-linecap="round" stroke-linejoin="round" d="M20.7083 16.125c-0.4862 0 -0.9525 0.1931 -1.2963 0.537 -0.3439 0.3438 -0.537 0.8101 -0.537 1.2963v1.8334c0 0.4862 0.1931 0.9525 0.537 1.2963 0.3438 0.3439 0.8101 0.537 1.2963 0.537 0.4862 0 0.9525 -0.1931 1.2964 -0.537 0.3438 -0.3438 0.537 -0.8101 0.537 -1.2963v-1.8334c0 -0.4862 -0.1932 -0.9525 -0.537 -1.2963 -0.3439 -0.3439 -0.8102 -0.537 -1.2964 -0.537Z" stroke-width="1"></path>
  <path stroke="#191919" stroke-linecap="round" stroke-linejoin="round" d="M10.8086 13.8333c0 0.4862 -0.1931 0.9525 -0.537 1.2964 -0.34379 0.3438 -0.81011 0.537 -1.29634 0.537H6.68359V12h2.29167c0.48623 0 0.95255 0.1931 1.29634 0.537 0.3439 0.3438 0.537 0.8101 0.537 1.2963Z" stroke-width="1"></path>
  <path stroke="#191919" stroke-linecap="round" stroke-linejoin="round" d="M10.8086 17.5c0 0.4862 -0.1931 0.9525 -0.537 1.2964 -0.34379 0.3438 -0.81011 0.537 -1.29634 0.537H6.68359v-3.6667h2.29167c0.48623 0 0.95255 0.1931 1.29634 0.537 0.3439 0.3438 0.537 0.8101 0.537 1.2963Z" stroke-width="1"></path>
  <path stroke="#191919" stroke-linecap="round" stroke-linejoin="round" d="M8.05859 11.0833V12" stroke-width="1"></path>
  <path stroke="#191919" stroke-linecap="round" stroke-linejoin="round" d="M8.05859 19.3333v0.9167" stroke-width="1"></path>
  <path stroke="#191919" stroke-linecap="round" stroke-linejoin="round" d="M10.8086 13.8333c0 0.4862 -0.1931 0.9525 -0.537 1.2964 -0.34379 0.3438 -0.81011 0.537 -1.29634 0.537H6.68359V12h2.29167c0.48623 0 0.95255 0.1931 1.29634 0.537 0.3439 0.3438 0.537 0.8101 0.537 1.2963Z" stroke-width="1"></path>
  <path stroke="#191919" stroke-linecap="round" stroke-linejoin="round" d="M10.8086 17.5c0 0.4862 -0.1931 0.9525 -0.537 1.2964 -0.34379 0.3438 -0.81011 0.537 -1.29634 0.537H6.68359v-3.6667h2.29167c0.48623 0 0.95255 0.1931 1.29634 0.537 0.3439 0.3438 0.537 0.8101 0.537 1.2963Z" stroke-width="1"></path>
  <path stroke="#191919" stroke-linecap="round" stroke-linejoin="round" d="M8.05859 11.0833V12" stroke-width="1"></path>
  <path stroke="#191919" stroke-linecap="round" stroke-linejoin="round" d="M8.05859 19.3333v0.9167" stroke-width="1"></path>
</svg>