<svg xmlns="http://www.w3.org/2000/svg" fill="none" viewBox="0 0 24 24" id="Currency-Pound-Decrease--Streamline-Ultimate">
  <desc>
    Currency Pound Decrease Streamline Icon: https://streamlinehq.com
  </desc>
  <path fill="#ffef5e" d="M14.1534 17.2687c4.4924 0 8.1343 -3.6419 8.1343 -8.13436C22.2877 4.64187 18.6458 1 14.1534 1 9.66091 1 6.01904 4.64187 6.01904 9.13434c0 4.49246 3.64187 8.13436 8.13436 8.13436Z" stroke-width="1"></path>
  <path fill="#fff9bf" d="M14.1526 1c-1.6066 -0.000613 -3.1775 0.47455 -4.51436 1.36558 -1.3369 0.89101 -2.38002 2.15798 -2.99777 3.64109 -0.61775 1.4831 -0.78246 3.11594 -0.47339 4.69253 0.30909 1.5766 1.07814 3.0264 2.21014 4.1665L19.8801 3.36279C18.3592 1.84773 16.2994 0.997965 14.1526 1Z" stroke-width="1"></path>
  <path stroke="#191919" stroke-linecap="round" stroke-linejoin="round" d="M8.45912 14.9461c-1.15206 -1.1282 -1.94282 -2.5734 -2.27185 -4.1519 -0.32904 -1.57859 -0.18148 -3.21931 0.4239 -4.71384 0.6054 -1.49451 1.64131 -2.77538 2.97618 -3.67993 1.33485 -0.90455 2.90845 -1.39196 4.52095 -1.40032 1.6124 -0.008362 3.191 0.4627 4.5352 1.35336 1.3442 0.89065 2.3933 2.16072 3.0141 3.64888 0.6209 1.48816 0.7855 3.12727 0.4729 4.70915 -0.3127 1.5819 -1.0884 3.0352 -2.2288 4.1752" stroke-width="1"></path>
  <path stroke="#191919" stroke-linecap="round" stroke-linejoin="round" d="M11.2817 8.64532h4.7849" stroke-width="1"></path>
  <path stroke="#191919" stroke-linecap="round" stroke-linejoin="round" d="M17.0835 6.54001c0 -0.45203 -0.1796 -0.88554 -0.4992 -1.20517 -0.3196 -0.31964 -0.7531 -0.49921 -1.2052 -0.49921 -0.4521 0 -0.8856 0.17957 -1.2052 0.49921 -0.3197 0.31963 -0.4992 0.75314 -0.4992 1.20517v3.86809c0 1.424 -0.489 3.025 -1.914 3.025h5.2634" stroke-width="1"></path>
  <path stroke="#191919" stroke-linecap="round" stroke-linejoin="round" d="m1.7124 12.4732 8.00897 7.1199c0.16884 0.15 0.38523 0.2355 0.61103 0.2412 0.2258 0.0057 0.4462 -0.0684 0.6225 -0.2096l3.5093 -2.8068c0.1795 -0.1436 0.4046 -0.2177 0.6342 -0.2089 0.2297 0.0088 0.4486 0.0999 0.6165 0.2567L22.2875 23" stroke-width="1"></path>
  <path stroke="#191919" stroke-linecap="round" stroke-linejoin="round" d="M18.4595 23h3.8279v-3.8059" stroke-width="1"></path>
</svg>