<svg xmlns="http://www.w3.org/2000/svg" fill="none" viewBox="0 0 24 24" id="Currency-Pound--Streamline-Ultimate">
  <desc>
    Currency Pound Streamline Icon: https://streamlinehq.com
  </desc>
  <path fill="#fff9bf" d="M12 21.2285c5.0967 0 9.2285 -4.1318 9.2285 -9.2285 0 -5.09676 -4.1318 -9.22852 -9.2285 -9.22852 -5.09677 0 -9.22852 4.13176 -9.22852 9.22852 0 5.0967 4.13175 9.2285 9.22852 9.2285Z" stroke-width="1"></path>
  <path stroke="#191919" stroke-linecap="round" stroke-linejoin="round" d="M3.87305 12.4783H18.2209" stroke-width="1"></path>
  <path stroke="#191919" stroke-linecap="round" stroke-linejoin="round" d="M20.1295 6.26087c0 -1.39527 -0.5543 -2.7334 -1.5408 -3.72C17.602 1.55427 16.264 1 14.8687 1c-1.3953 0 -2.7334 0.55427 -3.72 1.54087 -0.9866 0.9866 -1.5409 2.32473 -1.5409 3.72V18.2174c0 0.628 -0.1237 1.25 -0.36405 1.8302 -0.24035 0.5802 -0.59263 1.1075 -1.03674 1.5516 -0.44411 0.4441 -0.97133 0.7964 -1.55159 1.0367C6.07517 22.8763 5.45326 23 4.8252 23h15.3043" stroke-width="1"></path>
</svg>