<svg xmlns="http://www.w3.org/2000/svg" fill="none" viewBox="0 0 24 24" id="Currency-Euro-Circle--Streamline-Ultimate">
  <desc>
    Currency Euro Circle Streamline Icon: https://streamlinehq.com
  </desc>
  <path fill="#ffef5e" d="M12 23c2.1756 0 4.3023 -0.6452 6.1113 -1.8538 1.8089 -1.2087 3.2188 -2.9267 4.0514 -4.9366 0.8325 -2.0101 1.0504 -4.2218 0.6259 -6.35559 -0.4244 -2.1338 -1.4721 -4.0938 -3.0105 -5.63218 -1.5383 -1.53838 -3.4983 -2.58603 -5.6321 -3.01046 -2.1338 -0.424441 -4.34553 -0.2066 -6.35552 0.62596 -2.00999 0.83257 -3.72795 2.24246 -4.93665 4.0514C1.64514 7.69767 1 9.82441 1 12c0 2.9174 1.15892 5.7153 3.22182 7.7781C6.28472 21.8411 9.08262 23 12 23Z" stroke-width="1"></path>
  <path fill="#fff9bf" d="M12.0001 1.00001c-2.19198 0.00018 -4.33388 0.65522 -6.15098 1.88109 -1.8171 1.22585 -3.22653 2.96664 -4.04749 4.99903 -0.82095 2.0324 -1.015992 4.26377 -0.5601 6.40777 0.4559 2.1439 1.54193 4.1029 3.11879 5.6254L19.9134 4.36027c-1.0247 -1.06425 -2.2539 -1.91048 -3.6137 -2.4879 -1.3598 -0.57744 -2.8223 -0.874158 -4.2996 -0.87236Z" stroke-width="1"></path>
  <path stroke="#191919" stroke-linecap="round" stroke-linejoin="round" d="M12 23c2.1756 0 4.3023 -0.6452 6.1113 -1.8538 1.8089 -1.2087 3.2188 -2.9267 4.0514 -4.9366 0.8325 -2.0101 1.0504 -4.2218 0.6259 -6.35559 -0.4244 -2.1338 -1.4721 -4.0938 -3.0105 -5.63218 -1.5383 -1.53838 -3.4983 -2.58603 -5.6321 -3.01046 -2.1338 -0.424441 -4.34553 -0.2066 -6.35552 0.62596 -2.00999 0.83257 -3.72795 2.24246 -4.93665 4.0514C1.64514 7.69767 1 9.82441 1 12c0 2.9174 1.15892 5.7153 3.22182 7.7781C6.28472 21.8411 9.08262 23 12 23Z" stroke-width="1"></path>
  <path stroke="#191919" stroke-linecap="round" stroke-linejoin="round" d="M14.3912 17.2609c-3.4339 0 -6.21737 -0.9566 -6.21737 -5.2609 0 -4.30434 2.78347 -5.26086 6.21737 -5.26086" stroke-width="1"></path>
  <path stroke="#191919" stroke-linecap="round" stroke-linejoin="round" d="M6.73926 13.4348h5.26084" stroke-width="1"></path>
  <path stroke="#191919" stroke-linecap="round" stroke-linejoin="round" d="M6.73926 11.5218h6.21734" stroke-width="1"></path>
</svg>