<svg xmlns="http://www.w3.org/2000/svg" fill="none" viewBox="0 0 24 24" id="Server-Sftp-Folder--Streamline-Freehand">
  <desc>
    Server Sftp Folder Streamline Icon: https://streamlinehq.com
  </desc>
  <path fill="#020202" d="m5.1572 7.39973 0.23967 -0.19972c0.08554 -0.05452 0.17577 -0.1013 0.26962 -0.13981 0.16113 -0.07115 0.32821 -0.12796 0.49931 -0.16976 0.17377 -0.04196 0.35086 -0.06869 0.52927 -0.07989 0.07415 0 0.14527 -0.02946 0.19771 -0.0819 0.05244 -0.05243 0.0819 -0.12355 0.0819 -0.19771s-0.02946 -0.14528 -0.0819 -0.19772c-0.05244 -0.05243 -0.12356 -0.08189 -0.19771 -0.08189 -0.20278 -0.01495 -0.40638 -0.01495 -0.60916 0 -0.2087 0.02205 -0.41559 0.05875 -0.61914 0.10984 -0.16683 0.03911 -0.32793 0.09952 -0.47933 0.17976 -0.13754 0.06661 -0.26802 0.14691 -0.38946 0.23966l-0.47934 0.45937c-0.1516 0.17212 -0.26045 0.37758 -0.31771 0.59968 -0.05727 0.2221 -0.06132 0.45458 -0.01183 0.67854 0.0569 0.1751 0.15729 0.3329 0.29176 0.45864 0.13448 0.12575 0.29866 0.21533 0.47717 0.26036 0.34952 0.11984 0.81887 0.15978 1.20833 0.32955 0.15853 0.05699 0.29023 0.17089 0.36948 0.31955 0.0808 0.16952 0.10007 0.36192 0.05452 0.54412 -0.04555 0.1822 -0.15309 0.3429 -0.30417 0.4545 -0.18367 0.1481 -0.403 0.2455 -0.63607 0.2823s-0.47172 0.0117 -0.69209 -0.0726c-0.07416 -0.0424 -0.16211 -0.0536 -0.24451 -0.0311 -0.0824 0.0225 -0.1525 0.0768 -0.19488 0.1509 -0.04237 0.0742 -0.05356 0.1622 -0.03108 0.2446 0.02247 0.0824 0.07676 0.1525 0.15092 0.1948 0.32785 0.1725 0.69554 0.255 1.06565 0.2392 0.37012 -0.0157 0.72944 -0.1293 1.04142 -0.329 0.34947 -0.1998 0.61601 -0.518 0.75151 -0.897 0.13551 -0.3791 0.13107 -0.79411 -0.01253 -1.17018 -0.11349 -0.3108 -0.328 -0.57453 -0.60916 -0.74896 -0.50425 -0.25049 -1.04261 -0.42546 -1.59778 -0.51928 -0.07989 0 -0.14979 0 -0.13981 -0.07989 0.01682 -0.13555 0.06466 -0.2654 0.13981 -0.37947l0.27961 -0.36949Z" stroke-width="1"></path>
  <path fill="#020202" d="M9.10181 7.14009c0.19969 -0.11491 0.42934 -0.1671 0.65908 -0.14979h1.43801c0.046 0.00823 0.0932 0.00627 0.1384 -0.00574 0.0452 -0.01201 0.0871 -0.03378 0.123 -0.06378 0.0358 -0.02999 0.0646 -0.06748 0.0844 -0.10981 0.0198 -0.04234 0.03 -0.0885 0.03 -0.13523 0 -0.04673 -0.0102 -0.09289 -0.03 -0.13523 -0.0198 -0.04234 -0.0486 -0.07983 -0.0844 -0.10982 -0.0359 -0.03 -0.0778 -0.05176 -0.123 -0.06378 -0.0452 -0.01201 -0.0924 -0.01397 -0.1384 -0.00574 -0.5771 -0.11523 -1.1607 -0.19527 -1.74758 -0.23967 -0.33035 -0.00308 -0.65631 0.07584 -0.94868 0.22969 -0.19571 0.14139 -0.34235 0.3404 -0.41942 0.56921 -0.08873 0.34879 -0.12243 0.70931 -0.09986 1.06851 -0.00146 0.5342 0.03189 1.06793 0.09986 1.59779 0.12696 0.7753 0.30037 1.5423 0.51928 2.2968 0.01457 0.0735 0.05703 0.1384 0.11848 0.1813 0.06145 0.0428 0.1371 0.0602 0.21106 0.0484 0.07347 -0.0146 0.13844 -0.057 0.18127 -0.1185 0.04282 -0.0614 0.06018 -0.1371 0.04842 -0.2111 0 -0.4993 -0.07989 -0.9986 -0.10985 -1.5278v-0.69906h0.46935l0.30957 -0.06991c0.2397 -0.07988 0.4494 -0.17975 0.699 -0.24965 0.0848 0 0.1661 -0.03367 0.226 -0.0936 0.0599 -0.05992 0.0936 -0.1412 0.0936 -0.22596 0 -0.08475 -0.0337 -0.16603 -0.0936 -0.22596 -0.0599 -0.05992 -0.1412 -0.09359 -0.226 -0.09359 -0.2597 -0.05684 -0.5235 -0.09356 -0.78888 -0.10985h-0.3595l-0.31956 0.0699v-0.57919l0.03995 -0.83884Z" stroke-width="1"></path>
  <path fill="#020202" d="M17.3004 6.26131c-0.0122 -0.07758 -0.0525 -0.14796 -0.1133 -0.19769 -0.0608 -0.04974 -0.1378 -0.07534 -0.2162 -0.07193 -0.5504 0.00803 -1.1007 -0.01865 -1.6478 -0.07989 -0.3758 -0.01977 -0.7525 -0.01977 -1.1284 0 -0.6591 0.03909 -1.312 0.14958 -1.9473 0.32954 -0.0649 0.01781 -0.1213 0.05847 -0.1586 0.11449 -0.0374 0.05603 -0.0533 0.12366 -0.0448 0.19047 0.0085 0.0668 0.0408 0.1283 0.091 0.17318 0.0502 0.04487 0.115 0.07012 0.1823 0.0711 0.5592 0 1.0985 0.11983 1.6677 0.15977 0.1496 0.00999 0.2997 0.00999 0.4494 0 -0.0599 0.48933 -0.1298 0.99862 -0.1698 1.49793 -0.0399 0.4993 0 0.81886 0 1.22829V11.504c-0.0116 0.0819 0.0089 0.1651 0.0573 0.2322 0.0484 0.067 0.121 0.1127 0.2023 0.1273 0.0835 0.0145 0.1692 -0.0047 0.2385 -0.0533 0.0693 -0.0487 0.1164 -0.1229 0.131 -0.2063 0.1558 -0.6021 0.2791 -1.2121 0.3695 -1.82747 0.0246 -0.26221 0.0346 -0.52558 0.03 -0.7889 0.015 -0.26275 0.015 -0.52615 0 -0.78891 0 -0.41941 -0.0999 -0.82885 -0.1598 -1.22829 0.6527 -0.03082 1.2996 -0.13807 1.9273 -0.31956 0.0431 -0.00654 0.0841 -0.02238 0.1204 -0.04641 0.0363 -0.02404 0.0669 -0.05569 0.0897 -0.09276 0.0229 -0.03707 0.0373 -0.07866 0.0424 -0.12189 0.0051 -0.04322 0.0007 -0.08704 -0.0128 -0.1284Z" stroke-width="1"></path>
  <path fill="#020202" d="M17.9695 12.1631c0.0728 0.0116 0.1472 -0.0061 0.2071 -0.0491 0.0598 -0.043 0.1002 -0.1079 0.1125 -0.1806 0.0699 -0.3495 0.1198 -0.699 0.1598 -1.0585 0.0399 -0.3595 0.0998 -0.9986 0.1498 -1.42801 0.0661 0.05835 0.1514 0.09034 0.2396 0.08988 0.1761 -0.00134 0.351 -0.02825 0.5193 -0.07989 0.3475 -0.09945 0.6752 -0.25824 0.9687 -0.46935 0.1541 -0.1327 0.2916 -0.28359 0.4094 -0.44938 0.1686 -0.24328 0.2773 -0.52298 0.3172 -0.81628 0.0399 -0.2933 0.0099 -0.59188 -0.0875 -0.87138 -0.1058 -0.27908 -0.2701 -0.53225 -0.482 -0.74241 -0.2119 -0.21017 -0.4664 -0.37245 -0.7463 -0.4759 -0.3713 -0.14526 -0.7743 -0.19004 -1.1684 -0.12982 -0.2513 0.05186 -0.473 0.19848 -0.6191 0.40944 -0.1186 0.19984 -0.184 0.42677 -0.1898 0.65908 -0.0175 0.33264 -0.0175 0.66598 0 0.99862v3.2655c0.0029 0.3335 -0.0137 0.667 -0.0499 0.9986 -0.0072 0.039 -0.0059 0.0791 0.0036 0.1176 0.0096 0.0386 0.0272 0.0746 0.0518 0.1058 0.0246 0.0312 0.0555 0.0567 0.0907 0.075 0.0352 0.0183 0.0739 0.0289 0.1135 0.0311Zm0.749 -5.65214c0.2658 -0.03778 0.5367 0.00712 0.7761 0.12859 0.2394 0.12148 0.4356 0.31366 0.562 0.55047 0.0736 0.14196 0.112 0.29949 0.112 0.45937 0 0.15987 -0.0384 0.3174 -0.112 0.45936 -0.0583 0.10995 -0.1323 0.21086 -0.2197 0.29958 -0.1036 0.0911 -0.2137 0.17454 -0.3295 0.24966 -0.1037 0.06512 -0.2142 0.1187 -0.3295 0.15977 -0.1022 0.04172 -0.2098 0.06862 -0.3196 0.07989 -0.0571 -0.00006 -0.1129 0.01736 -0.1598 0.04993l0.02 -2.43662Z" stroke-width="1"></path>
  <path fill="#020202" d="M22.8527 3.33537c-0.1364 -0.35891 -0.3687 -0.67349 -0.6715 -0.90945 -0.3029 -0.23597 -0.6647 -0.38425 -1.0461 -0.42869 -0.9222 -0.05831 -1.8481 -0.00128 -2.7562 0.16976 -1.9972 0.18974 -4.1143 0.51928 -6.2313 0.69903 -1.2712 0.1224 -2.54995 0.14577 -3.82473 0.06991l-0.05992 -0.46935c-0.09832 -0.53172 -0.27323 -1.04637 -0.51928 -1.527883 -0.10002 -0.20193 -0.24016 -0.381348 -0.41186 -0.527292 -0.1717 -0.145944 -0.37135 -0.255348 -0.58675 -0.3215297C6.54347 0.0331051 6.33533 0.00289147 6.12591 0c-0.43939 0 -0.92871 0.0599169 -1.31817 0.0499307h-0.81886c-0.26736 0.0088433 -0.53405 0.0321786 -0.79889 0.0699033C2.6704 0.14246 2.17058 0.325517 1.75928 0.643826c-0.4113 0.31831 -0.71387 0.756234 -0.866104 1.253544C0.563633 2.99584 0.993037 4.55368 0.823273 5.99169 0.688288 7.31873 0.658237 8.65437 0.733398 9.98614c0.067955 0.89136 0.235433 1.77226 0.499302 2.62636 0.00784 0.0359 0.02321 0.0698 0.04511 0.0993 0.0219 0.0296 0.04982 0.0541 0.08192 0.072 0.0321 0.018 0.06764 0.0289 0.10428 0.0321 0.03663 0.0031 0.07352 -0.0015 0.10822 -0.0137 0.06998 -0.0209 0.12945 -0.0676 0.16648 -0.1305 0.03704 -0.063 0.04892 -0.1376 0.03325 -0.209 -0.23566 -0.8204 -0.37967 -1.6644 -0.42941 -2.5165 -0.05637 -1.3206 0.00042 -2.6436 0.16977 -3.95451 0.1398 -1.34813 -0.2197 -2.83607 0.11983 -3.8946 0.19972 -0.61914 0.67906 -0.99861 1.7276 -1.178365h2.73621c0.1528 0.005392 0.30408 0.032286 0.44937 0.079889 0.22968 0.069906 0.34952 0.349516 0.47934 0.619146 0.13336 0.32188 0.23374 0.65647 0.29958 0.99861 0.01625 0.26932 0.05635 0.53666 0.11984 0.79889 0.03834 0.11629 0.10979 0.21886 0.20558 0.29513 0.09578 0.07628 0.21175 0.12294 0.33367 0.13427 1.41838 0.13013 2.84566 0.13013 4.26406 0 2.1271 -0.14979 4.2841 -0.47933 6.2513 -0.65908 0.811 -0.1668 1.6397 -0.23055 2.4666 -0.18974 0.2012 0.0256 0.3918 0.10496 0.5517 0.22974 0.16 0.12477 0.2833 0.29033 0.3571 0.47928 0.3549 1.97616 0.4689 3.98807 0.3395 5.99168 -0.0599 1.72756 -0.1897 3.28546 -0.5992 3.75476 -0.2581 0.2503 -0.5789 0.4262 -0.9287 0.5093 -0.6173 0.1711 -1.2491 0.2847 -1.8874 0.3396 -1.0685 0.0998 -3.8846 0.2197 -6.7007 0.3095 -2.81606 0.0899 -5.6022 0.1498 -6.71066 0.1099 -0.67305 0.0291 -1.3466 -0.045 -1.99723 -0.2197 -0.4016 -0.1313 -0.75123 -0.3865 -0.99861 -0.729 -0.05199 -0.0513 -0.11999 -0.0833 -0.19267 -0.0905 -0.07268 -0.0073 -0.14566 0.0105 -0.20678 0.0505 -0.03399 0.0239 -0.06285 0.0543 -0.08485 0.0895 -0.022 0.0352 -0.0367 0.0744 -0.04322 0.1154 -0.00652 0.041 -0.00473 0.0829 0.00526 0.1232 0.00999 0.0403 0.02799 0.0781 0.05291 0.1113 0.30271 0.4541 0.73885 0.803 1.24827 0.9987 0.71066 0.204 1.44767 0.3016 2.18696 0.2895 2.16699 0.1099 11.32432 0 13.52122 -0.1997 0.7067 -0.0497 1.4063 -0.1736 2.0871 -0.3695 0.5234 -0.1268 1.0029 -0.3925 1.3881 -0.7689 0.4893 -0.5392 0.8089 -2.3368 0.8988 -4.35395 0.1418 -2.15196 0.0076 -4.31322 -0.3995 -6.43108Z" stroke-width="1"></path>
  <path fill="#0c6fff" d="M21.2549 20.4217c-0.394 -0.2353 -0.8008 -0.4487 -1.2183 -0.6391 -0.6491 -0.3286 -1.2762 -0.6989 -1.8774 -1.1085 -0.393 -0.2768 -0.7636 -0.5839 -1.1085 -0.9187 -0.0251 -0.0263 -0.0554 -0.0472 -0.0888 -0.0615 -0.0335 -0.0143 -0.0695 -0.0217 -0.1059 -0.0217 -0.0364 0 -0.0724 0.0074 -0.1059 0.0217 -0.0334 0.0143 -0.0637 0.0352 -0.0888 0.0615 -0.0266 0.026 -0.0477 0.0571 -0.0621 0.0914 -0.0144 0.0343 -0.0218 0.0711 -0.0218 0.1083s0.0074 0.074 0.0218 0.1083 0.0355 0.0654 0.0621 0.0914c0.3935 0.4919 0.8314 0.9465 1.3082 1.3581 0.4322 0.3554 0.8822 0.6887 1.3481 0.9986h-0.1099c-0.8687 0.0699 -1.8274 0.0999 -2.2668 0.0899 -0.2696 0 -0.5293 0 -0.7989 -0.0699 -0.2531 -0.0307 -0.5035 -0.0808 -0.749 -0.1498 -0.6115 -0.1435 -1.1694 -0.4588 -1.6077 -0.9087 -0.3017 -0.2882 -0.5516 -0.6259 -0.739 -0.9986 -0.3093 -0.6715 -0.518 -1.3848 -0.6191 -2.1171 -0.005 -0.0631 -0.005 -0.1266 0 -0.1897 -0.0142 -0.0838 -0.0575 -0.1599 -0.1224 -0.2148 -0.0649 -0.0549 -0.1472 -0.085 -0.2322 -0.085 -0.0849 0 -0.1672 0.0301 -0.2321 0.085 -0.0649 0.0549 -0.1082 0.131 -0.1224 0.2148v0.1797c-0.1011 0.7355 -0.3097 1.4522 -0.6191 2.1271 -0.1871 0.3703 -0.4333 0.7076 -0.729 0.9986 -0.4421 0.4503 -1.00319 0.7654 -1.61774 0.9087 -0.25057 0.0846 -0.50778 0.1481 -0.76894 0.1898 -0.26962 0 -0.52926 0.0599 -0.7889 0.0699 -0.44938 0 -1.40805 0 -2.27684 -0.0899h-0.06991c0.46595 -0.3099 0.9159 -0.6432 1.34813 -0.9986 0.49417 -0.417 0.94576 -0.882 1.34813 -1.3881 0.02657 -0.026 0.04768 -0.0571 0.06209 -0.0914s0.02184 -0.0711 0.02184 -0.1083 -0.00743 -0.0741 -0.02184 -0.1083c-0.01441 -0.0343 -0.03552 -0.0654 -0.06209 -0.0914 -0.02517 -0.0263 -0.0554 -0.0472 -0.08886 -0.0615 -0.03347 -0.0143 -0.06948 -0.0217 -0.10587 -0.0217 -0.03639 0 -0.0724 0.0074 -0.10587 0.0217 -0.03346 0.0143 -0.06369 0.0352 -0.08886 0.0615 -0.36435 0.3338 -0.75508 0.6377 -1.16838 0.9087 -0.60119 0.4096 -1.2283 0.7799 -1.87739 1.1085 -0.19972 0.1198 -0.85881 0.3894 -1.2283 0.6391 -0.19777 0.1284 -0.34847 0.3177 -0.4294 0.5392 -0.02589 0.1095 -0.0199 0.2241 0.01726 0.3303 0.03716 0.1061 0.10394 0.1995 0.19245 0.2689 0.18418 0.1277 0.37781 0.2412 0.57919 0.3395l1.99723 0.9986 1.74758 1.0685c0.06983 0.0347 0.14991 0.0426 0.22516 0.0223 0.07525 -0.0203 0.14049 -0.0674 0.18345 -0.1325 0.04295 -0.065 0.06065 -0.1435 0.04976 -0.2207 -0.01088 -0.0772 -0.0496 -0.1477 -0.10886 -0.1983l-1.6577 -1.2383 -1.59778 -0.9986c0.34951 0.0699 0.75895 0.1398 1.17836 0.1997 0.78891 0.1198 1.57782 0.2097 1.99723 0.2297 0.35923 0.02 0.71928 0.02 1.07851 0 0.24549 -0.0279 0.48897 -0.0712 0.72898 -0.1298 0.53932 -0.1226 1.04868 -0.3518 1.49798 -0.6742 0.4494 -0.3224 0.8296 -0.7315 1.1184 -1.2032 0.1838 -0.3152 0.3312 -0.6502 0.4394 -0.9986 0.1115 0.3487 0.2623 0.6838 0.4494 0.9986 0.2854 0.4724 0.6635 0.8823 1.1114 1.2049 0.4479 0.3227 0.9564 0.5514 1.4949 0.6725 0.2401 0.0586 0.4835 0.1019 0.729 0.1298 0.3593 0.02 0.7193 0.02 1.0785 0 0.3895 0 1.1784 -0.1099 1.9973 -0.2297 0.4194 -0.0599 0.8288 -0.1298 1.1783 -0.1997l-1.5978 0.9986 -1.6077 1.1883c-0.0356 0.0223 -0.0663 0.0515 -0.0902 0.086 -0.0239 0.0344 -0.0406 0.0734 -0.049 0.1145 -0.0084 0.0411 -0.0083 0.0834 0.0001 0.1245 0.0085 0.0411 0.0252 0.08 0.0492 0.1144 0.0486 0.0704 0.1227 0.1191 0.2065 0.1359 0.0839 0.0167 0.171 0.0003 0.2429 -0.046l1.6577 -0.9487 1.9972 -0.9986c0.2014 -0.0983 0.395 -0.2118 0.5792 -0.3395 0.0905 -0.0678 0.1588 -0.1609 0.1961 -0.2676 0.0374 -0.1068 0.0421 -0.2222 0.0136 -0.3316 -0.0819 -0.2597 -0.2607 -0.4779 -0.4993 -0.6091Z" stroke-width="1"></path>
</svg>