<svg xmlns="http://www.w3.org/2000/svg" fill="none" viewBox="0 0 24 24" id="Wifi-Monitor-1--Streamline-Freehand">
  <desc>
    Wifi Monitor 1 Streamline Icon: https://streamlinehq.com
  </desc>
  <path fill="#0c6fff" fill-rule="evenodd" d="M12.0813 5.34491c-0.208 0.05723 -0.4015 0.15809 -0.5675 0.29588 -0.1661 0.13779 -0.3009 0.30936 -0.3955 0.50328 -0.0945 0.19392 -0.1468 0.40576 -0.1532 0.62143 -0.0063 0.21567 0.0333 0.43023 0.1162 0.62941 0.71 1.79 2.68 1 3.13 0.46 0.1124 -0.16684 0.1882 -0.3555 0.2227 -0.55366 0.0345 -0.19816 0.0267 -0.40137 -0.0227 -0.59634 -0.0299 -0.26345 -0.1169 -0.51718 -0.2551 -0.74346 -0.1382 -0.22628 -0.3242 -0.41963 -0.5449 -0.56654 -0.2392 -0.10839 -0.4975 -0.1686 -0.76 -0.17718 -0.2625 -0.00857 -0.5242 0.03464 -0.77 0.12718Zm1.25 2.05c-0.07 0.08 -1 0.93 -1.26 -0.29 -0.013 -0.05815 -0.0135 -0.11842 -0.0015 -0.17678 0.0121 -0.05837 0.0364 -0.11351 0.0714 -0.16175 0.035 -0.04824 0.0799 -0.08848 0.1316 -0.11804 0.0518 -0.02956 0.1092 -0.04778 0.1685 -0.05343 0.32 -0.1 0.5 -0.13 0.62 0 0.1213 0.11766 0.2078 0.26643 0.25 0.43 0.06 0.13 0.11 0.27 0.02 0.37Z" clip-rule="evenodd" stroke-width="1"></path>
  <path fill="#0c6fff" fill-rule="evenodd" d="M15.4515 4.74519c0.0357 -0.03533 0.064 -0.07738 0.0834 -0.12372 0.0193 -0.04635 0.0292 -0.09606 0.0292 -0.14628 0 -0.05021 -0.0099 -0.09992 -0.0292 -0.14627 -0.0194 -0.04634 -0.0477 -0.08839 -0.0834 -0.12373 -0.568 -0.67783 -1.3797 -1.10523 -2.26 -1.19 -0.3683 -0.04982 -0.7417 -0.04982 -1.11 0 -0.3458 0.05769 -0.6822 0.16197 -1 0.31 -0.7902 0.35731 -1.45297 0.94679 -1.89997 1.69 -0.02692 0.03612 -0.04647 0.07718 -0.05752 0.12085 -0.01105 0.04366 -0.01339 0.08908 -0.00689 0.13365 0.01312 0.09002 0.06147 0.17114 0.13441 0.2255 0.03611 0.02693 0.07717 0.04647 0.12084 0.05752 0.04367 0.01105 0.08908 0.0134 0.13365 0.0069 0.09002 -0.01313 0.17114 -0.06148 0.22551 -0.13442 0.49997 -0.44974 1.10527 -0.76616 1.75997 -0.92 0.2659 -0.07971 0.5364 -0.14316 0.81 -0.18999 0.2711 -0.04645 0.5451 -0.07319 0.82 -0.08001 0.637 -0.05039 1.2703 0.13463 1.78 0.52 0.0744 0.07136 0.174 0.11036 0.2771 0.10849 0.1031 -0.00187 0.2012 -0.04447 0.2729 -0.11849Z" clip-rule="evenodd" stroke-width="1"></path>
  <path fill="#0c6fff" fill-rule="evenodd" d="M7.39178 4.43501c0.69071 -1.26946 1.82692 -2.23827 3.18962 -2.71965 0.5587 -0.20919 1.1446 -0.33714 1.7397 -0.37996 0.5926 -0.0502 1.1894 -0.00974 1.7698 0.11999 0.6949 0.1512 1.3522 0.4407 1.9328 0.85125 0.5806 0.41055 1.0726 0.93375 1.4468 1.53844 0.0233 0.0463 0.0555 0.08749 0.0949 0.12117s0.0851 0.05918 0.1344 0.07501c0.0493 0.01582 0.1013 0.02166 0.1529 0.01716 0.0517 -0.0045 0.1019 -0.01924 0.1477 -0.04336 0.0434 -0.02487 0.0815 -0.05807 0.112 -0.09769 0.0306 -0.03962 0.053 -0.08489 0.066 -0.1332 0.013 -0.04831 0.0164 -0.09871 0.0098 -0.14831 -0.0065 -0.0496 -0.0227 -0.09743 -0.0478 -0.14073 -0.3646 -0.76755 -0.8856 -1.45043 -1.5296 -2.00486 -0.644 -0.554434 -1.3967 -0.968187 -2.2099 -1.214731 -0.6997 -0.2260449 -1.4365 -0.3143288 -2.1697 -0.2599674 -0.7331 0.0453998 -1.4516 0.2250224 -2.1198 0.5299324C8.57293 1.26599 7.37521 2.55695 6.77186 4.14505c-0.01904 0.0407 -0.02988 0.08476 -0.03189 0.12965 -0.00202 0.04489 0.00483 0.08974 0.02015 0.13199 0.01532 0.04224 0.03881 0.08106 0.06913 0.11422 0.03032 0.03317 0.06688 0.06004 0.10758 0.07908 0.04071 0.01904 0.08476 0.02987 0.12966 0.03189 0.04489 0.00201 0.08974 -0.00484 0.13198 -0.02016 0.04225 -0.01532 0.08106 -0.03881 0.11423 -0.06913 0.03317 -0.03032 0.06004 -0.06688 0.07908 -0.10758Z" clip-rule="evenodd" stroke-width="1"></path>
  <path fill="#020202" fill-rule="evenodd" d="M22.3799 10.0943c0.0177 -0.75989 -0.0596 -1.519 -0.23 -2.25973 -0.0838 -0.30423 -0.2291 -0.58807 -0.4269 -0.83398 -0.1977 -0.24592 -0.4438 -0.4487 -0.723 -0.59583 -0.3862 -0.17599 -0.8054 -0.268 -1.2298 -0.26997 -0.8489 0.03882 -1.6924 0.15597 -2.5197 0.34996 -0.0894 0.01479 -0.1696 0.0637 -0.2237 0.13644 -0.0541 0.07273 -0.0778 0.16361 -0.0663 0.25351 0.0171 0.08831 0.0665 0.16705 0.1387 0.22071 0.0722 0.05367 0.1618 0.07837 0.2513 0.06925 0.663 -0.08725 1.331 -0.13067 1.9997 -0.12998 0.3838 0.00364 0.7611 0.09967 1.0999 0.27996 0.2602 0.20364 0.4291 0.50202 0.4699 0.8299 0.1043 0.66116 0.1345 1.33189 0.09 1.99976v5.8392c0.0158 0.8366 0.0825 1.6713 0.2 2.4997l-7.999 0.11c-1.4498 0 -2.9096 0.14 -4.36943 0.17H7.01181l-3.35958 -0.12c-0.17405 -0.0077 -0.3476 -0.0244 -0.51993 -0.05 -0.10998 0 -0.23997 0 -0.29996 -0.1 -0.03449 -0.1612 -0.01699 -0.3292 0.04999 -0.4799v-1.0699h6.81914c1.35983 0 2.71963 -0.05 4.07943 -0.08 2.0498 -0.05 4.0895 -0.11 6.1193 -0.06 0.1012 0.0031 0.1998 -0.0324 0.2758 -0.0992 0.0761 -0.0668 0.124 -0.16 0.1341 -0.2607 0.012 -0.0976 -0.0132 -0.196 -0.0707 -0.2757 -0.0575 -0.0798 -0.1429 -0.1348 -0.2392 -0.1543 -1.9998 -0.1999 -3.9995 -0.3399 -5.9993 -0.3999h-2.5797c-0.8598 0 -1.70974 0 -2.56963 0.1 -1.99974 0.12 -3.99949 0.3499 -5.93924 0.5599v-4.6694c-0.03438 -1.0707 -0.00433 -2.1425 0.08999 -3.2096 0.06017 -0.55955 0.17402 -1.11202 0.33995 -1.64979 0.38995 0 0.75991 0.14998 1.15986 0.20998l0.49993 0.05999H5.532l1.28983 -0.07999c0.05298 0.01209 0.10789 0.01297 0.16123 0.0026 0.05333 -0.01038 0.10391 -0.03178 0.14849 -0.06285 0.04458 -0.03107 0.08217 -0.07111 0.11037 -0.11755 0.0282 -0.04645 0.04638 -0.09827 0.05338 -0.15216 0.00699 -0.05388 0.00265 -0.10863 -0.01275 -0.16074 -0.0154 -0.0521 -0.04152 -0.10042 -0.07668 -0.14184s-0.0786 -0.07504 -0.12751 -0.09869c-0.04892 -0.02366 -0.10224 -0.03683 -0.15654 -0.03867 -0.40995 -0.14998 -0.8199 -0.28997 -1.25984 -0.37995 -0.19061 -0.04535 -0.38454 -0.07544 -0.57993 -0.08999 -0.19302 -0.0149 -0.3869 -0.0149 -0.57992 0 -1.85977 0.22997 -1.92976 0.15998 -2.28971 2.58967 -0.1272 1.09547 -0.19729 2.19678 -0.20998 3.29958l-0.29996 5.2693c0 0.37 -0.10998 0.9499 -0.07999 1.4398 0.01628 0.3034 0.10546 0.5984 0.25997 0.8599 0.13776 0.222 0.34013 0.3964 0.57993 0.5 0.37591 0.1508 0.77509 0.2353 1.17985 0.2499 0.34995 0 0.70991 0.06 1.05986 0.07 0.7899 0 1.5798 0 2.3797 0.05s1.70978 0 2.55967 0l0.67993 -0.06 -1.06988 2.2198c0 0.0899 -0.33995 0.6199 -0.41994 0.8598 -0.04892 0.1631 -0.04892 0.3369 0 0.5 0.03917 0.0866 0.0958 0.1641 0.16634 0.2278 0.07055 0.0636 0.15348 0.112 0.2436 0.1421 0.13187 0.0335 0.26536 0.0602 0.39995 0.08 0.18318 0.01 0.36673 0.01 0.54993 0 0.25 0 0.4999 0 0.7499 -0.07 0.8693 -0.1657 1.7473 -0.2825 2.6297 -0.3499 1.9997 -0.13 2.2897 -0.12 2.0497 -1.8198 -0.0963 -0.4623 -0.2544 -0.9096 -0.4699 -1.3298 -0.1627 -0.2854 -0.3395 -0.5623 -0.53 -0.8299l6.9992 -0.38c0.1016 -0.0052 0.1972 -0.0499 0.2664 -0.1246 0.0691 -0.0748 0.1062 -0.1736 0.1035 -0.2753l0 -0.09c0.0414 -0.0377 0.0737 -0.0842 0.0945 -0.1362 0.0208 -0.052 0.0295 -0.108 0.0255 -0.1638 -0.0299 -0.5462 -0.0299 -1.0936 0 -1.6398 0 -1.3298 0.18 -2.6596 0.27 -3.9995 -0.01 -0.8798 0.01 -1.7697 0 -2.6896Zm-8.309 10.9986c0.11 0.3399 0.25 0.6699 0.38 0.9999l0.2699 0.6199c-0.5298 -0.0835 -1.0639 -0.1369 -1.5998 -0.16 -0.7741 -0.0131 -1.5483 0.0136 -2.3197 0.08h-0.4699c0.0048 -0.0231 0.0048 -0.0469 0 -0.07 0.21 -0.7199 0.3799 -1.4398 0.5899 -2.1497 0.06 -0.2 0.13 -0.4 0.2 -0.5899 0.7399 -0.07 1.4898 -0.13 2.2297 -0.18h0.36c0.1399 0.4999 0.2199 0.9798 0.3599 1.4698v-0.02Z" clip-rule="evenodd" stroke-width="1"></path>
</svg>