<svg xmlns="http://www.w3.org/2000/svg" fill="none" viewBox="0 0 24 24" id="Picture-Polaroid-2--Streamline-Cyber">
  <desc>
    Picture Polaroid 2 Streamline Icon: https://streamlinehq.com
  </desc>
  <path stroke="#092f63" stroke-linejoin="round" stroke-miterlimit="10" d="M22.5 1.5H0.5v22h22v-22Z" stroke-width="1"></path>
  <path stroke="#092f63" stroke-linejoin="round" stroke-miterlimit="10" d="M0.5 19.5h22" stroke-width="1"></path>
  <path stroke="#092f63" stroke-linejoin="round" stroke-miterlimit="10" d="m15.5 11.5 -1 -1 1 -1h2l1 1 -1 1h-2Z" stroke-width="1"></path>
  <path stroke="#092f63" stroke-linejoin="round" stroke-miterlimit="10" d="m14.5 7.598 -1.366 0.366 -0.366 -1.366 1 -1.732 1.366 -0.366 0.366 1.366 -1 1.732Z" stroke-width="1"></path>
  <path stroke="#092f63" stroke-linejoin="round" stroke-miterlimit="10" d="m10.232 6.598 -0.366 1.366L8.5 7.598l-1 -1.732 0.366 -1.366 1.366 0.366 1 1.732Z" stroke-width="1"></path>
  <path stroke="#092f63" stroke-linejoin="round" stroke-miterlimit="10" d="m7.5 9.5 1 1 -1 1h-2l-1 -1 1 -1h2Z" stroke-width="1"></path>
  <path stroke="#092f63" stroke-linejoin="round" stroke-miterlimit="10" d="m8.5 13.33 1.366 -0.366 0.366 1.366 -1 1.732 -1.366 0.366 -0.366 -1.366 1 -1.732Z" stroke-width="1"></path>
  <path stroke="#092f63" stroke-linejoin="round" stroke-miterlimit="10" d="m12.768 14.33 0.366 -1.366 1.366 0.366 1 1.732 -0.366 1.366 -1.366 -0.366 -1 -1.732Z" stroke-width="1"></path>
  <path stroke="#092f63" stroke-linecap="round" stroke-linejoin="round" stroke-miterlimit="10" d="M11.5 8.96399 10 10.464l1.5 1.5 1.5 -1.5 -1.5 -1.50001Z" stroke-width="1"></path>
  <path stroke="#092f63" stroke-linecap="round" stroke-linejoin="round" stroke-miterlimit="10" d="M11.5 19.5v-3" stroke-width="1"></path>
</svg>