<svg xmlns="http://www.w3.org/2000/svg" fill="none" viewBox="0 0 48 48" id="Log--Streamline-Plump-Gradient">
  <desc>
    Log Streamline Icon: https://streamlinehq.com
  </desc>
  <g id="log--nature-tree-plant-circle-round-log">
    <path id="Union" fill="url(#paint0_linear_7979_3730)" fill-rule="evenodd" d="M18.9182 4.0709C19.3444 4.02867 19.7983 4 20.2501 4c.6474 0 1.3036.05894 1.8823.13411 1.8707.24299 3.354 1.43421 4.2236 2.91248l3.5269 5.99571 9.1576.4578c2.7299.02 4.8637 2.0589 6.23 4.5964.3958.7349.7454 1.5406 1.0435 2.4035H31c-.8284 0-1.5.6716-1.5 1.5s.6716 1.5 1.5 1.5h16.0966c.2634 1.4232.4035 2.9374.4035 4.5 0 .5055-.0147 1.006-.0434 1.5H40c-.8284 0-1.5.6716-1.5 1.5s.6716 1.5 1.5 1.5h7.0966c-.375 2.0271-1 3.8695-1.8261 5.4035-1.3621 2.5298-3.4872 4.564-6.2052 4.5961l-.0161.0013-.0962.0075-.1157.0089c-.1858.0139-.4596.0338-.8156.0575-.7119.0475-1.7526.1105-3.0753.1735-2.6449.126-6.419.2517-10.9463.2517-4.5277 0-8.0541-.1258-10.4539-.2521-.7275-.0383-1.3515-.0766-1.8685-.1115 1.4571-1.0245 2.5975-2.5065 3.4134-4.0217.3557-.6605.6752-1.3681.9565-2.1147H24c.8284 0 1.5-.6716 1.5-1.5s-.6716-1.5-1.5-1.5h-7.0747c.3764-1.7325.5747-3.59.5747-5.5 0-3.9869-.8637-7.7452-2.4089-10.6147-.8059-1.4966-1.9284-2.9608-3.3599-3.9838l5.2957-.2942-1.2309-4.18505c-.6232-2.1189.6263-4.60403 3.1222-4.85135ZM7.5 41c3.866 0 7-5.8203 7-13s-3.134-13-7-13c-3.86599 0-7 5.8203-7 13s3.13401 13 7 13Z" clip-rule="evenodd"></path>
  </g>
  <defs>
    <linearGradient id="paint0_linear_7979_3730" x1="8.183" x2="42.498" y1="11.5" y2="34.413" gradientUnits="userSpaceOnUse">
      <stop stop-color="#ffd600"></stop>
      <stop offset="1" stop-color="#00d078"></stop>
    </linearGradient>
  </defs>
</svg>