<svg xmlns="http://www.w3.org/2000/svg" fill="none" viewBox="0 0 48 48" id="Recycle-1--Streamline-Plump-Gradient">
  <desc>
    Recycle 1 Streamline Icon: https://streamlinehq.com
  </desc>
  <g id="recycle-1--nature-sign-environment-protect-save-arrows">
    <path id="Union" fill="url(#paint0_linear_7979_3751)" fill-rule="evenodd" d="M28.9208 1.67518c-.058-.00855-.1155-.0141-.1724-.01667-3.7233-.28396-6.6077-.1417-8.5826.07772-.9905.11006-1.7517.23948-2.2747.34408-.2615.05229-.4634.09837-.6046.13272-.0706.01717-.126.03141-.1661.04202l-.0487.01312-.0157.00436-.0057.00159-.0042.00121c-.2451.07003-.4683.20137-.6486.38163-2.33 2.33006-4.7693 5.49287-6.60272 8.03144-.92254 1.2773-1.70285 2.4123-2.25293 3.2286-.27516.4083-.49307.7374-.64273.9652-.07483.1139-.13263.2026-.17202.2632l-.04511.0696-.01649.0256c-.37927.59-.29907 1.364.1931 1.8637.49217.4997 1.2649.5916 1.86057.2214l11.62673-7.2275 2.0034 3.6986c-.9807.6784-1.7033 1.229-2.2224 1.6508-.8819.7167-.6495 2.0105.3572 2.4452 3.5303 1.5248 8.2076 2.8506 11.7008 3.6284 1.333.2968 2.6619-.4705 3.0713-1.7733 1.0704-3.4058 2.2577-8.105 2.705-11.91971.129-1.10072-.8929-1.95235-1.9594-1.54084-.5062.19534-1.1489.46199-1.9393.82274l-.006-.00928c-1.0525-1.62382-2.3727-3.66069-3.9384-4.86272-.2756-.21156-.5405-.36416-.801-.46018-.1317-.04855-.264-.08324-.3963-.10273ZM41.431 14.7658l-.0139-.027c-.316-.6133-1.0096-.9319-1.6808-.7721-.6711.1598-1.1467.7568-1.1525 1.4467l-.115 13.7289-3.6434-.0991c-.0972-1.1884-.2127-2.0895-.3185-2.7501-.1796-1.122-1.4163-1.5676-2.2962-.9132-3.0856 2.295-6.5725 5.6828-8.9927 8.319-.9235 1.0061-.9235 2.5406.0001 3.5466 2.4144 2.6298 5.8903 6.0077 8.9703 8.3023.8887.6622 2.1373.2029 2.3141-.9264.084-.5361.1744-1.226.2571-2.0908 1.8239-.094 3.6578-.2743 5.4091-.8192.6404-.1992 1.0685-.3839 1.2718-.4789.2679-.1252.505-.297.6763-.5472 2.12-3.0963 3.4452-5.6766 4.2453-7.5027.3999-.9129.6685-1.6368.8394-2.142.0854-.2526.1464-.4505.1873-.59.0204-.0697.0358-.1248.0467-.1649l.013-.0487.004-.0157.0015-.0058.0006-.0023.0005-.0019c.0619-.2473.0597-.5063-.0062-.7525-.8529-3.183-2.3723-6.8768-3.6541-9.7339-.6449-1.4376-1.2377-2.6809-1.6696-3.5654-.216-.4424-.392-.7957-.5145-1.0392-.0613-.1218-.1091-.2162-.142-.2806l-.0377-.0739Zm-24.276 5.0784c-.4095-1.3029-1.7384-2.0701-3.0714-1.7733-3.4847.776-8.148 2.0973-11.67524 3.6174-1.01777.4386-1.24433 1.7494-.35471 2.4673.42228.3407.97456.764 1.68215 1.268-.87028 1.7043-1.85732 3.6952-2.17611 5.6119-.06074.3652-.07736.6601-.07043.8949.00347.1175.01284.2199.0255.3082.00633.0442.01346.0848.02106.1219.0038.0185.00772.0362.0117.053l.00601.0245.00303.0118.00153.0058.00076.0028.00076.0029c.02388.0884.05583.1745.09543.2572 1.6215 3.3841 3.19352 5.822 4.37493 7.4279.5906.8028 1.08328 1.3973 1.43534 1.798.17603.2002.31688.3521.41723.4572.05017.0525.09022.0934.11947.1228l.03569.0356.01162.0114.00423.0042.00171.0016.00144.0014c.18321.1773.40856.3049.65479.3709 3.18291.8529 7.14161 1.3839 10.25681 1.7024 1.5675.1603 2.9406.2686 3.9225.3368.4912.0342.8851.0584 1.1573.074.1361.0079.2417.0136.3139.0174l.0829.0043.0304.0015c.6848.0327 1.3046-.4031 1.5056-1.0586.201-.6555-.068-1.3638-.6535-1.7206L13.5857 35.151l1.7976-2.9267c1.0778.51 1.9159.8606 2.5409 1.0992 1.0615.4054 2.0658-.4428 1.939-1.5319-.4448-3.8197-1.6352-8.5334-2.7082-11.9474Z" clip-rule="evenodd"></path>
  </g>
  <defs>
    <linearGradient id="paint0_linear_7979_3751" x1="51.487" x2="-9.03" y1="55.248" y2="10.653" gradientUnits="userSpaceOnUse">
      <stop stop-color="#ffd600"></stop>
      <stop offset="1" stop-color="#ff007a"></stop>
    </linearGradient>
  </defs>
</svg>