<svg xmlns="http://www.w3.org/2000/svg" fill="none" viewBox="0 0 48 48" id="Sunset--Streamline-Plump-Gradient">
  <desc>
    Sunset Streamline Icon: https://streamlinehq.com
  </desc>
  <g id="sunset--nature-sun-set-water-afternoon">
    <path id="Union" fill="url(#paint0_linear_7979_3766)" fill-rule="evenodd" d="M24 1.5c.8284 0 1.5.67157 1.5 1.5v3c0 .82843-.6716 1.5-1.5 1.5s-1.5-.67157-1.5-1.5V3c0-.82843.6716-1.5 1.5-1.5ZM46.5 24c0 .8284-.6716 1.5-1.5 1.5h-3c-.8284 0-1.5-.6716-1.5-1.5s.6716-1.5 1.5-1.5h3c.8284 0 1.5.6716 1.5 1.5ZM6 25.5c.82843 0 1.5-.6716 1.5-1.5s-.67157-1.5-1.5-1.5H3c-.82843 0-1.5.6716-1.5 1.5s.67157 1.5 1.5 1.5h3Zm6.3327-13.1674c-.5858.5858-1.5356.5858-2.1214 0l-2.12129-2.1213c-.58579-.58577-.58579-1.53552 0-2.12131.58579-.58578 1.53553-.58578 2.12129 0l2.1214 2.12131c.5857.5858.5857 1.5355 0 2.1213Zm25.456 0c-.5858.5858-1.5356.5858-2.1213 0-.5858-.5858-.5858-1.5355 0-2.1213l2.1213-2.12131c.5858-.58578 1.5355-.58578 2.1213 0 .5858.58579.5858 1.53554 0 2.12131l-2.1213 2.1213ZM9.5 24c0-8.0081 6.4919-14.5 14.5-14.5 8.0081 0 14.5 6.4919 14.5 14.5 0 .632-.0404 1.2545-.1188 1.8651-1.4649-.0808-2.9518.3044-4.2065 1.1554C33.2081 27.6762 32.1029 28 31 28s-2.2081-.3238-3.1747-.9795c-2.2919-1.5546-5.3587-1.5546-7.6506 0C19.2081 27.6762 18.1029 28 17 28s-2.2081-.3238-3.1747-.9795c-1.2547-.851-2.7416-1.2362-4.20646-1.1554C9.54043 25.2545 9.5 24.632 9.5 24Zm30.9219 5.0894c-1.4446-.9799-3.3992-.9799-4.8438 0-1.3879.9413-2.9834 1.4105-4.5781 1.4105s-3.1902-.4692-4.5781-1.4105c-1.4446-.9799-3.3992-.9799-4.8438 0-1.3879.9413-2.9834 1.4105-4.5781 1.4105s-3.1902-.4692-4.5781-1.4105c-1.4446-.9799-3.39924-.9799-4.84385 0C6.19022 30.0307 4.5947 30.4999 3 30.4999c-.82843 0-1.5.6716-1.5 1.5 0 1.7292.11528 3.6742.26687 5.4871h1.6925c1.43973-.0815 2.8639-.5464 4.11866-1.3975 1.44459-.9798 3.39927-.9799 4.84387 0C13.8098 37.0308 15.4053 37.5 17 37.5s3.1902-.4692 4.5781-1.4105c1.4446-.9799 3.3992-.9799 4.8438 0C27.8098 37.0308 29.4053 37.5 31 37.5s3.1902-.4692 4.5781-1.4105c1.4446-.9799 3.3993-.9798 4.8439 0 1.2547.8511 2.6789 1.316 4.1186 1.3975h1.6925c.1516-1.8129.2669-3.7579.2669-5.4871 0-.8284-.6716-1.5-1.5-1.5-1.5947 0-3.1902-.4692-4.5781-1.4105ZM8.40183 45.9355c-3.11793-.2431-5.62764-2.4733-6.29653-5.4485H3.5c.02598 0 .05196-.0007.0779-.002 1.9901-.1035 3.95812-.742 5.68414-1.9127.42787-.2902 1.04806-.2902 1.47586-.0001C12.6312 39.8564 14.8152 40.5 17 40.5s4.3688-.6436 6.2621-1.9278c.4278-.2902 1.048-.2902 1.4758 0C26.6312 39.8564 28.8152 40.5 31 40.5s4.3688-.6436 6.2621-1.9278c.4278-.2901 1.048-.2901 1.4759.0001 1.726 1.1707 3.694 1.8092 5.6841 1.9127.0259.0013.0519.002.0779.002h1.3947c-.6689 2.9752-3.1786 5.2054-6.2965 5.4485-3.475.271-8.8058.5644-15.5982.5644-6.7924 0-12.1232-.2934-15.59817-.5644Z" clip-rule="evenodd"></path>
  </g>
  <defs>
    <linearGradient id="paint0_linear_7979_3766" x1="8.856" x2="45.201" y1="10.154" y2="30.291" gradientUnits="userSpaceOnUse">
      <stop stop-color="#ffd600"></stop>
      <stop offset="1" stop-color="#00d078"></stop>
    </linearGradient>
  </defs>
</svg>