<svg xmlns="http://www.w3.org/2000/svg" fill="none" viewBox="0 0 14 14" id="Camera-1--Streamline-Flex-Neon">
  <desc>
    Camera 1 Streamline Icon: https://streamlinehq.com
  </desc>
  <g id="camera-1--photos-picture-camera-photography-photo-pictures">
    <path id="Union" stroke="#c71dff" stroke-linecap="round" stroke-linejoin="round" d="m3.84712 3.3531 0.61936 -1.20854c0.14362 -0.28024 0.41062 -0.47875 0.72265 -0.52121 1.21939 -0.16593 2.40242 -0.16593 3.62181 0 0.31202 0.04246 0.57902 0.24097 0.72264 0.52121l0.61942 1.20855c0.3543 0.02735 0.7056 0.05647 1.0539 0.08532 0.0499 0.00414 0.0997 0.00827 0.1495 0.01239 0.9561 0.07912 1.743 0.7909 1.8849 1.70911 0.1351 0.87401 0.2587 1.77484 0.2587 2.69524 0 0.9204 -0.1236 1.82123 -0.2587 2.69523 -0.1419 0.9182 -0.9288 1.63 -1.8849 1.7091 -0.0498 0.0041 -0.0996 0.0083 -0.1496 0.0124 -1.35865 0.1126 -2.76562 0.2292 -4.2068 0.2292 -1.44118 0 -2.84814 -0.1166 -4.20682 -0.2292 -0.04992 -0.0041 -0.09977 -0.0083 -0.14955 -0.0124 -0.95615 -0.0791 -1.743002 -0.7909 -1.884914 -1.7091C0.623634 9.6764 0.5 8.77558 0.5 7.85517c0 -0.9204 0.123634 -1.82123 0.258716 -2.69524 0.141912 -0.91821 0.928764 -1.62999 1.884914 -1.70911 0.04977 -0.00412 0.09961 -0.00825 0.14951 -0.01239 0.34823 -0.02885 0.69964 -0.05798 1.05398 -0.08533Z" stroke-width="1"></path>
    <path id="Vector" stroke="#000cfe" stroke-linecap="round" stroke-linejoin="round" d="M7 9.90216c1.44 0 2.25 -0.81 2.25 -2.25s-0.81 -2.25 -2.25 -2.25 -2.25 0.81 -2.25 2.25 0.81 2.25 2.25 2.25Z" stroke-width="1"></path>
  </g>
</svg>