<svg xmlns="http://www.w3.org/2000/svg" fill="none" viewBox="0 0 24 24" id="Consellation--Streamline-Sharp">
  <desc>
    Consellation Streamline Icon: https://streamlinehq.com
  </desc>
  <g id="consellation--science-space-universe-star">
    <path id="Union" fill="#000000" fill-rule="evenodd" d="M20.5001 6.67074V1h-2v5.67067c-0.6093 0.21532 -1.1282 0.62188 -1.4847 1.14755l-6.026 -1.57198C10.8606 4.70815 9.57138 3.5 8 3.5c-1.65685 0 -3 1.34315 -3 3 0 0.92833 0.42166 1.75818 1.0839 2.30847L4.53955 13.0003C4.52639 13.0001 4.5132 13 4.5 13c-1.65685 0 -3 1.3431 -3 3s1.34315 3 3 3c0.9283 0 1.75813 -0.4216 2.30842 -1.0838l4.19188 1.5443c-0.0002 0.0132 -0.0003 0.0263 -0.0003 0.0395 0 1.6569 1.3431 3 3 3s3 -1.3431 3 -3c0 -0.7666 -0.2875 -1.466 -0.7606 -1.9963l2.7737 -5.043c0.1584 0.0258 0.3211 0.0393 0.4869 0.0393 1.6569 0 3 -1.3431 3 -3 0 -1.30618 -0.8348 -2.41739 -1.9999 -2.82926Zm-3.2393 4.82576c-0.4205 -0.4713 -0.6945 -1.0761 -0.7502 -1.74303l-6.0258 -1.57194C9.94532 8.97718 9.03372 9.5 8 9.5c-0.01314 0 -0.02627 -0.00008 -0.03937 -0.00025L6.41624 13.6917C7.0784 14.2419 7.5 15.0717 7.5 16c0 0.0132 -0.00008 0.0263 -0.00025 0.0394l4.19185 1.5444C12.2419 16.9216 13.0717 16.5 14 16.5c0.1659 0 0.3287 0.0135 0.4872 0.0394l2.7736 -5.0429Z" clip-rule="evenodd" stroke-width="1"></path>
  </g>
</svg>