<svg xmlns="http://www.w3.org/2000/svg" fill="none" viewBox="0 0 24 24" id="Rabbit--Streamline-Sharp">
  <desc>
    Rabbit Streamline Icon: https://streamlinehq.com
  </desc>
  <g id="rabbit--nature-head-pet-animals">
    <path id="Subtract" fill="#000000" fill-rule="evenodd" d="M8.78827 3.56055c-0.41092 -1.64372 -2.0404 -2.674903 -3.7018 -2.34262 -1.8908 0.37816 -3.0104 2.34102 -2.3734 4.16101L5.226 12.5587l-1.02723 5.4786c-0.31975 1.7053 0.50972 3.4198 2.04527 4.2276 2.10217 1.1058 4.64956 0.1155 5.50596 -2.0148v-2H10.5v-1.5h4v1.5h-1.25v2.0001c0.8564 2.1302 3.4038 3.1205 5.506 2.0147 1.5356 -0.8077 2.3651 -2.5223 2.0453 -4.2277l-1.0272 -5.4785 2.513 -7.17976c0.637 -1.81999 -0.4826 -3.78285 -2.3734 -4.16101 -1.6614 -0.332283 -3.2909 0.6989 -3.7018 2.34262l-1.2974 5.18951h-4.8288L8.78827 3.56055ZM8 15.5001v-2.5h2v2.5H8Zm7 -2.5v2.5h2v-2.5h-2Z" clip-rule="evenodd" stroke-width="1"></path>
  </g>
</svg>