<svg xmlns="http://www.w3.org/2000/svg" fill="none" viewBox="0 0 24 24" id="Water-Drop-1--Streamline-Sharp">
  <desc>
    Water Drop 1 Streamline Icon: https://streamlinehq.com
  </desc>
  <g id="water-drop-1--nature-convserve-save-water-liquid-protect">
    <path id="Union" fill="#000000" fill-rule="evenodd" d="M1 12C1 5.92487 5.92487 1 12 1c6.0751 0 11 4.92487 11 11h-2c0 -4.97056 -4.0294 -9 -9 -9 -4.97056 0 -9 4.02944 -9 9H1Zm3.72367 8.2497c-1.48325 -1.3091 -2.61166 -3.0133 -3.21996 -4.9501l1.9081 -0.5992c0.49677 1.5816 1.41949 2.9767 2.63532 4.0499l-1.32346 1.4994Zm3.42629 2.0574C9.34957 22.7554 10.6474 23 12 23c1.3526 0 2.6504 -0.2446 3.85 -0.6929l-0.7 -1.8735C14.1709 20.7995 13.11 21 12 21c-1.11 0 -2.17089 -0.2005 -3.14996 -0.5664l-0.70008 1.8735Zm14.34624 -7.0075c-0.6083 1.9368 -1.7367 3.641 -3.22 4.9501l-1.3234 -1.4994c1.2158 -1.0732 2.1385 -2.4683 2.6353 -4.0499l1.9081 0.5992ZM12 17.5c2.2091 0 4 -1.7909 4 -4 0 -2.5 -4 -7 -4 -7s-4 4.5 -4 7c0 2.2091 1.79086 4 4 4Z" clip-rule="evenodd" stroke-width="1"></path>
  </g>
</svg>