<svg xmlns="http://www.w3.org/2000/svg" fill="none" viewBox="0 0 14 14" id="Cake-Slice--Streamline-Core">
  <desc>
    Cake Slice Streamline Icon: https://streamlinehq.com
  </desc>
  <g id="cake-slice--cherry-cake-birthday-event-special-sweet-bake">
    <path id="Subtract" fill="#000000" fill-rule="evenodd" d="M1.46982 3.81716c0 -0.93729 0.63515 -1.72623 1.49853 -1.95988 0.02156 -0.16513 0.06432 -0.39063 0.15201 -0.62446 0.08977 -0.239401 0.23923 -0.521196 0.49359 -0.747291 0.26726 -0.237563 0.61925 -0.384966 1.04542 -0.384966 0.34518 0 0.625 0.279822 0.625 0.625 0 0.345177 -0.27982 0.624997 -0.625 0.624997 -0.11886 0 -0.17564 0.03428 -0.21497 0.06923 -0.05222 0.04642 -0.10715 0.12798 -0.15363 0.25194 -0.03074 0.08198 -0.05235 0.16803 -0.06723 0.24793 0.764 0.29149 1.30669 1.03111 1.30669 1.8975 0 1.12125 -0.90895 2.0302 -2.0302 2.0302 -1.12126 0 -2.03021 -0.90895 -2.03021 -2.0302ZM0 7.47321c0 -0.27614 0.223858 -0.5 0.5 -0.5h13c0.2761 0 0.5 0.22386 0.5 0.5L14 8.875H0V7.47321ZM0 10.125V13.5c0 0.2761 0.223858 0.5 0.5 0.5h13c0.2761 0 0.5 -0.2239 0.5 -0.5l0 -3.375H0Z" clip-rule="evenodd" stroke-width="1"></path>
  </g>
</svg>