<svg xmlns="http://www.w3.org/2000/svg" fill="none" viewBox="0 0 14 14" id="Cheese--Streamline-Core">
  <desc>
    Cheese Streamline Icon: https://streamlinehq.com
  </desc>
  <g id="cheese--cook-cheese-animal-products-cooking-nutrition-dairy-food">
    <path id="Vector" fill="#000000" d="M14 5.66c-0.1569 -1.33519 -0.721 -2.58975 -1.6154 -3.59337C11.4901 1.06301 10.3084 0.358943 9.00001 0.0500001 8.8908 0.0100763 8.77412 -0.00524667 8.6583 0.00512493 8.54249 0.0154965 8.43039 0.051307 8.33001 0.11L0.620008 5c-0.173639 0.10738 -0.320002 0.25358 -0.427583 0.4271C0.0848449 5.60062 0.0189797 5.79672 0.000008309 6v4.4c-0.000724964 0.153 0.046006691 0.3025 0.133759691 0.4279 0.087754 0.1253 0.212213 0.2204 0.35624 0.2721 0.141557 0.0545 0.296588 0.0636 0.443545 0.026 0.146957 -0.0377 0.278537 -0.1201 0.376457 -0.236 0.11099 -0.134 0.24874 -0.2434 0.40444 -0.3211 0.15569 -0.0778 0.32591 -0.1221 0.49974 -0.1303 0.17383 -0.0081 0.34744 0.0201 0.50973 0.0829 0.1623 0.0628 0.30968 0.1588 0.43274 0.2819 0.12305 0.123 0.21905 0.2704 0.28186 0.4327s0.09104 0.3359 0.08288 0.5097c-0.00816 0.1739 -0.05252 0.3441 -0.13025 0.4998 -0.07773 0.1557 -0.18711 0.2934 -0.32114 0.4044 -0.11587 0.0979 -0.19835 0.2295 -0.23598 0.3765 -0.03764 0.1469 -0.02856 0.3019 0.02598 0.4435 0.05169 0.144 0.14677 0.2685 0.27213 0.3562 0.12536 0.0878 0.27485 0.1345 0.42787 0.1338H12.75c0.3247 0.0002 0.6367 -0.126 0.87 -0.3519 0.2333 -0.2258 0.3696 -0.5336 0.38 -0.8581V5.66ZM8.75001 11c-0.34612 0 -0.68446 -0.1026 -0.97225 -0.2949s-0.51209 -0.4656 -0.64454 -0.7854c-0.13245 -0.31977 -0.16711 -0.67164 -0.09959 -1.01111 0.06753 -0.33946 0.2342 -0.65129 0.47894 -0.89603 0.24474 -0.24474 0.55656 -0.41141 0.89603 -0.47893 0.33947 -0.06753 0.69133 -0.03287 1.0111 0.09958 0.31978 0.13245 0.5931 0.35676 0.7854 0.64454 0.1923 0.28779 0.2949 0.62613 0.2949 0.97225 0 0.46413 -0.1844 0.9092 -0.51255 1.2374 -0.32819 0.3282 -0.77331 0.5126 -1.23744 0.5126Zm-4.5 -6c-0.05617 0.0041 -0.11199 -0.01169 -0.15769 -0.0446 -0.04571 -0.0329 -0.07838 -0.08083 -0.09231 -0.1354 -0.0155 -0.05123 -0.01415 -0.10608 0.00385 -0.15648 0.018 -0.0504 0.0517 -0.0937 0.09615 -0.12352l4.57 -2.86c0.06514 -0.04021 0.13835 -0.06554 0.21441 -0.07418 0.07606 -0.00864 0.15309 -0.00039 0.22559 0.02418 0.70099 0.24967 1.34039 0.6466 1.87509 1.16408 0.5347 0.51747 0.9524 1.14349 1.2249 1.83592 0.0193 0.03527 0.0294 0.07481 0.0294 0.115 0 0.04019 -0.0101 0.07973 -0.0294 0.115 -0.0175 0.04127 -0.0468 0.0765 -0.0841 0.10138 -0.0373 0.02487 -0.0811 0.0383 -0.1259 0.03862H4.25001Z" stroke-width="1"></path>
  </g>
</svg>