<svg xmlns="http://www.w3.org/2000/svg" fill="none" viewBox="0 0 14 14" id="Cherries--Streamline-Core">
  <desc>
    Cherries Streamline Icon: https://streamlinehq.com
  </desc>
  <g id="cherries--cook-plant-cherry-plants-cooking-nutrition-vegetarian-fruit-food-cherries">
    <path id="Union" fill="#000000" fill-rule="evenodd" d="M4.64228 1.54553C3.53384 3.46585 2.89511 5.62676 2.78526 7.85067 1.37127 8.13026 0.305084 9.37726 0.305084 10.8733c0 1.7017 1.379506 3.0812 3.081216 3.0812s3.08122 -1.3795 3.08122 -3.0812c0 -1.38966 -0.91996 -2.56445 -2.18409 -2.94858 0.08635 -1.74823 0.53877 -3.45285 1.32118 -5.00564 0.47765 1.81183 1.42525 3.47613 2.75823 4.81753 -0.51507 0.55074 -0.83038 1.29065 -0.83038 2.1042 0 1.70169 1.37951 3.08119 3.08124 3.08119 1.7017 0 3.0812 -1.3795 3.0812 -3.08119 0 -1.70171 -1.3795 -3.08122 -3.0812 -3.08122 -0.3316 0 -0.65103 0.0524 -0.95035 0.14935C8.14381 5.48547 7.15606 3.59318 6.8513 1.54553h1.62854c0.41421 0 0.75 -0.33578 0.75 -0.749997 0 -0.414214 -0.33579 -0.7500004 -0.75 -0.7500004H6.02776c-0.00555 -0.0000616 -0.01109 -0.0000615 -0.01663 0H3.48214c-0.41422 0 -0.75 0.3357864 -0.75 0.7500004 0 0.414217 0.33578 0.749997 0.75 0.749997h1.16014Z" clip-rule="evenodd" stroke-width="1"></path>
  </g>
</svg>