<svg xmlns="http://www.w3.org/2000/svg" fill="none" viewBox="0 0 14 14" id="Chicken-Grilled-Stream--Streamline-Core">
  <desc>
    Chicken Grilled Stream Streamline Icon: https://streamlinehq.com
  </desc>
  <g id="chicken-grilled-stream">
    <path id="Union" fill="#000000" fill-rule="evenodd" d="M5.1496 1.14502c0 -0.345178 -0.27982 -0.625 -0.625 -0.625s-0.625 0.279822 -0.625 0.625v1.5625c0 0.34518 0.27982 0.625 0.625 0.625s0.625 -0.27982 0.625 -0.625v-1.5625Zm-2.90625 0.53809c0.34518 0 0.625 0.27982 0.625 0.625v1.5625c0 0.34517 -0.27982 0.625 -0.625 0.625s-0.625 -0.27983 -0.625 -0.625v-1.5625c0 -0.34518 0.27982 -0.625 0.625 -0.625Zm4.5625 0c0.34518 0 0.625 0.27982 0.625 0.625v1.5625c0 0.34517 -0.27982 0.625 -0.625 0.625s-0.625 -0.27983 -0.625 -0.625v-1.5625c0 -0.34518 0.27982 -0.625 0.625 -0.625Zm5.65795 1.52636c-0.8038 0 -1.4554 0.65164 -1.4554 1.45547 0 0.18081 0.0329 0.35391 0.0932 0.51363l-1.0761 0.99486c-0.60962 -0.26808 -1.34808 -0.22527 -2.01229 0.10262 -0.2354 0.13728 -0.46129 0.31781 -0.66664 0.54335 -0.84507 0.92812 -0.90105 2.14976 -0.34812 2.86553 0.05673 0.07344 0.12032 0.14266 0.19096 0.20697 0.20418 0.1859 0.21899 0.5021 0.03308 0.7063 -0.18591 0.2042 -0.50215 0.219 -0.70633 0.0331 -0.11398 -0.1038 -0.21705 -0.2159 -0.30908 -0.335 -0.91224 -1.18092 -0.69758 -2.94462 0.40007 -4.15015l0.02737 -0.02974c-2.07238 -0.61494 -4.77233 0.11338 -5.963273 2.49196C-0.247014 10.4424 0.100902 11.9433 0.418511 12.7093c0.220321 0.5314 0.743479 0.7707 1.221339 0.7707H11.9419c0.8284 0 1.5 -0.6716 1.5 -1.5v-0.2968c0 -0.6759 -0.111 -1.3149 -0.4631 -1.89048 -0.2683 -0.43843 -0.657 -0.80832 -1.1791 -1.1268 -0.1558 0.52281 -0.4353 1.02594 -0.8265 1.45558 -0.1859 0.2042 -0.5022 0.219 -0.7063 0.0331 -0.2042 -0.18595 -0.219 -0.50218 -0.0331 -0.70637 0.6657 -0.73118 0.8404 -1.63306 0.6184 -2.33682l1.1162 -1.03187c0.0118 -0.01094 0.0231 -0.02222 0.0339 -0.03382 0.145 0.04845 0.3002 0.07469 0.4615 0.07469 0.8039 0 1.4555 -0.65163 1.4555 -1.45547 0 -0.80383 -0.6516 -1.45547 -1.4555 -1.45547Z" clip-rule="evenodd" stroke-width="1"></path>
  </g>
</svg>