<svg xmlns="http://www.w3.org/2000/svg" fill="none" viewBox="0 0 14 14" id="Coffee-Bean--Streamline-Core">
  <desc>
    Coffee Bean Streamline Icon: https://streamlinehq.com
  </desc>
  <g id="coffee-bean--cook-cooking-nutrition-coffee-bean">
    <path id="Subtract" fill="#000000" fill-rule="evenodd" d="M2.17484 12.3563c2.22126 1.8663 6.0481 1.2704 8.74996 -1.4315 2.4449 -2.44491 3.1654 -5.811 1.8974 -8.07501 -0.0487 0.17331 -0.1051 0.35906 -0.1698 0.55326 -0.3287 0.98617 -0.8941 2.25227 -1.8375 3.19565 -0.54 0.54001 -1.20028 0.79114 -1.8585 0.91081 -0.63551 0.11555 -1.31542 0.11552 -1.92792 0.11549h-0.00001L7 7.625c-0.645 0 -1.2187 0.00185 -1.73279 0.09532 -0.50124 0.09114 -0.89501 0.26163 -1.19824 0.56486 -0.74311 0.74311 -1.23179 1.79592 -1.5355 2.70702 -0.14957 0.4487 -0.24939 0.8481 -0.31158 1.1341 -0.01922 0.0884 -0.03478 0.1657 -0.04705 0.23Zm-0.99705 -1.2061C-0.0900539 8.88615 0.630403 5.52014 3.07527 3.07527 5.77711 0.37344 9.60389 -0.22245 11.8252 1.64375c-0.0123 0.06425 -0.0279 0.14152 -0.0471 0.2299 -0.0622 0.28609 -0.162 0.68541 -0.3116 1.13411 -0.3037 0.91113 -0.7924 1.96395 -1.53547 2.70706 -0.30323 0.30323 -0.697 0.47372 -1.19824 0.56486C8.2187 6.37315 7.645 6.375 7 6.375l-0.02847 0h-0.00001c-0.6125 -0.00003 -1.29241 -0.00006 -1.92792 0.11549 -0.65822 0.11967 -1.3185 0.3708 -1.85851 0.91081 -0.94338 0.94338 -1.50875 2.20948 -1.83747 3.1957 -0.06473 0.1941 -0.12106 0.3799 -0.16983 0.5532Z" clip-rule="evenodd" stroke-width="1"></path>
  </g>
</svg>