<svg xmlns="http://www.w3.org/2000/svg" fill="none" viewBox="0 0 14 14" id="Lemon-Fruit-Seasoning--Streamline-Core">
  <desc>
    Lemon Fruit Seasoning Streamline Icon: https://streamlinehq.com
  </desc>
  <g id="lemon-fruit-seasoning">
    <path id="Subtract" fill="#000000" fill-rule="evenodd" d="M11.3259 0.591063c0.524 0.030787 1.0163 0.244575 1.4281 0.656407 0.4116 0.41158 0.6254 0.9036 0.6564 1.42722 0.0304 0.51375 -0.1164 1.02614 -0.3682 1.49793 -0.1098 0.20575 -0.1351 0.43041 -0.0773 0.62221 0.5969 1.98125 0.3606 4.53767 -1.6359 6.53417 -1.99727 1.9973 -4.55497 2.233 -6.53657 1.6351 -0.19181 -0.0579 -0.41655 -0.0326 -0.6224 0.0772 -0.47166 0.2515 -0.98386 0.398 -1.49741 0.3675 -0.52341 -0.0311 -1.0152 -0.2449 -1.42662 -0.6563 -0.411994 -0.412 -0.625781 -0.9046 -0.656438 -1.4288 -0.030077 -0.5142 0.117282 -1.027 0.369721 -1.49915 0.109867 -0.20548 0.135417 -0.42997 0.077837 -0.62173 -0.594709 -1.9804 -0.356839 -4.53368 1.63762 -6.52814C4.67002 0.679393 7.22459 0.442158 9.20534 1.0378c0.19177 0.05766 0.41633 0.03218 0.62192 -0.077655 0.47194 -0.252165 0.98464 -0.399288 1.49864 -0.369082ZM5.0535 4.89382c0.97786 -0.97786 2.21733 -1.09981 3.20623 -0.80244 0.39666 0.11929 0.81492 -0.10558 0.93421 -0.50224 0.11928 -0.39667 -0.10558 -0.81493 -0.50225 -0.93421 -1.41873 -0.42663 -3.26253 -0.25809 -4.69885 1.17823 -0.78008 0.78008 -1.19273 1.69107 -1.33046 2.59426 -0.06244 0.40947 0.21888 0.79204 0.62836 0.85449 0.40948 0.06244 0.79205 -0.21889 0.8545 -0.62837 0.09173 -0.60151 0.36433 -1.21579 0.90826 -1.75972Z" clip-rule="evenodd" stroke-width="1"></path>
  </g>
</svg>