<svg xmlns="http://www.w3.org/2000/svg" fill="none" viewBox="0 0 14 14" id="Microwave--Streamline-Core">
  <desc>
    Microwave Streamline Icon: https://streamlinehq.com
  </desc>
  <g id="microwave--cook-food-appliances-cooking-nutrition-appliance-microwave-kitchenware">
    <path id="Subtract" fill="#000000" fill-rule="evenodd" d="M0 3c0 -0.55228 0.447715 -1 1 -1h12c0.5523 0 1 0.44772 1 1v8c0 0.5523 -0.4477 1 -1 1H1c-0.552285 0 -1 -0.4477 -1 -1V3Zm2.54627 1.08752h6.40742c0.3217 0 0.58249 0.2608 0.58249 0.5825v4.65994c0 0.3217 -0.26079 0.58249 -0.58249 0.58249H2.54627c-0.3217 0 -0.58249 -0.26079 -0.58249 -0.58249V4.67002c0 -0.3217 0.26079 -0.5825 0.58249 -0.5825Zm8.14583 0.74872c0 -0.34518 0.2798 -0.625 0.625 -0.625h1.0464c0.3452 0 0.625 0.27982 0.625 0.625s-0.2798 0.625 -0.625 0.625h-1.0464c-0.3452 0 -0.625 -0.27982 -0.625 -0.625Zm0.625 1.53876c-0.3452 0 -0.625 0.27982 -0.625 0.625s0.2798 0.625 0.625 0.625h1.0464c0.3452 0 0.625 -0.27982 0.625 -0.625s-0.2798 -0.625 -0.625 -0.625h-1.0464Z" clip-rule="evenodd" stroke-width="1"></path>
  </g>
</svg>