<svg xmlns="http://www.w3.org/2000/svg" fill="none" viewBox="0 0 14 14" id="Water-Glass--Streamline-Core">
  <desc>
    Water Glass Streamline Icon: https://streamlinehq.com
  </desc>
  <g id="water-glass--glass-water-juice-drink-liquid">
    <path id="Union" fill="#000000" fill-rule="evenodd" d="M1.17467 0.277411c0.1423 -0.159438 0.34585 -0.2506013 0.55956 -0.2506013H12.2658c0.2139 0 0.4177 0.0913593 0.56 0.2510933 0.1423 0.159734 0.2096 0.372638 0.185 0.585152l-0.5453 4.710565 -0.0003 0.00276 -0.699 6.03842c-0.0661 0.5708 -0.3146 1.1027 -0.7052 1.5184 -0.0557 0.0594 -0.1144 0.1164 -0.1759 0.1708 -0.4605 0.4075 -1.04662 0.6423 -1.65844 0.6671 -0.04079 0.0016 -0.08169 0.0023 -0.12268 0.0021h-4.2271c-0.57382 0.0032 -1.13108 -0.1788 -1.59046 -0.5155 -0.06563 -0.0481 -0.12926 -0.0994 -0.19065 -0.1537 -0.46107 -0.4081 -0.76565 -0.9623 -0.86414 -1.5675 -0.00657 -0.0404 -0.01222 -0.0809 -0.01694 -0.1217l-0.00015 -0.0013 -0.68826 -6.03843L0.989051 0.861745C0.96485 0.649417 1.03237 0.436848 1.17467 0.277411ZM11.4239 1.52681l-0.3719 3.21333H2.94082l-0.36625 -3.21333h8.84933Z" clip-rule="evenodd" stroke-width="1"></path>
  </g>
</svg>