<svg xmlns="http://www.w3.org/2000/svg" fill="none" viewBox="0 0 14 14" id="Wine--Streamline-Core">
  <desc>
    Wine Streamline Icon: https://streamlinehq.com
  </desc>
  <g id="wine--drink-cook-glass-cooking-wine-nutrition-food">
    <path id="Union" fill="#000000" fill-rule="evenodd" d="M3.89673 1.52777c-0.04466 -0.00027 -0.08784 0.01602 -0.12116 0.04568 -0.03269 0.02909 -0.05367 0.06903 -0.05911 0.11238 -0.05771 0.58427 -0.10025 1.30465 -0.12581 1.88363h6.81875c-0.0256 -0.579 -0.0681 -1.29942 -0.1258 -1.8837 -0.0055 -0.04332 -0.0265 -0.08324 -0.0591 -0.11231 -0.0334 -0.02967 -0.0765 -0.04595 -0.1212 -0.04568l-0.0045 0.00003 -6.19752 -0.00001h-0.00455l0 -0.00002Zm0.0065 -1.4999818C3.48872 0.0259145 3.08805 0.177305 2.77833 0.452957c-0.31036 0.276212 -0.50739 0.657593 -0.55309 1.070543l-0.00004 -0.00001 -0.00085 0.00853c-0.1048 1.05757 -0.16185 2.52461 -0.16185 2.96799 0 1.42839 0.55435 2.57611 1.49316 3.35315 0.74101 0.61333 1.68163 0.964 2.69434 1.07775v3.47539H5c-0.41421 0 -0.75 0.3358 -0.75 0.75s0.33579 0.75 0.75 0.75h4c0.41421 0 0.75 -0.3358 0.75 -0.75s-0.33579 -0.75 -0.75 -0.75H7.75V8.93092c1.01273 -0.11375 1.95336 -0.46442 2.6944 -1.07776 0.9388 -0.77704 1.4931 -1.92477 1.4931 -3.35315 0 -0.44338 -0.057 -1.91042 -0.1618 -2.96799l-0.0009 -0.00852c-0.0457 -0.41295 -0.2427 -0.794331 -0.5531 -1.070543 -0.3097 -0.275637 -0.7103 -0.4270427 -1.1249 -0.4251688h0.002V0.777788l-0.0046 -0.749986 0.0026 -0.0000138H3.90323Z" clip-rule="evenodd" stroke-width="1"></path>
  </g>
</svg>