<svg xmlns="http://www.w3.org/2000/svg" fill="none" viewBox="0 0 24 24" id="Wrestling-Mask-1--Streamline-Ultimate">
  <desc>
    Wrestling Mask 1 Streamline Icon: https://streamlinehq.com
  </desc>
  <path stroke="#000000" stroke-linecap="round" stroke-linejoin="round" stroke-miterlimit="10" d="M20.5 14.75c0 4.7 -3.8 8.5 -8.5 8.5s-8.5 -3.8 -8.5 -8.5v-5.5c0 -4.7 3.8 -8.5 8.5 -8.5s8.5 3.8 8.5 8.5v5.5Z" stroke-width="1"></path>
  <path stroke="#000000" stroke-linecap="round" stroke-linejoin="round" stroke-miterlimit="10" d="M10.5 11.2503c0 0.9 -0.8 1.6999 -1.7 1.6999 -1.6 0 -2.8 -1.2999 -2.8 -2.7999v-0.60001h2.8c1 0 1.7 0.80001 1.7 1.70001Z" stroke-width="1"></path>
  <path stroke="#000000" stroke-linecap="round" stroke-linejoin="round" stroke-miterlimit="10" d="M13.5 11.2503c0 0.9 0.8 1.6999 1.7 1.6999 1.6 0 2.8 -1.2999 2.8 -2.7999v-0.60001h-2.8c-0.9 0 -1.7 0.80001 -1.7 1.70001Z" stroke-width="1"></path>
  <path stroke="#000000" stroke-linecap="round" stroke-linejoin="round" stroke-miterlimit="10" d="M6.5 21.25v-1c0 -2.8 2.5 -5 5.5 -5s5.5 2.2 5.5 5v1" stroke-width="1"></path>
  <path stroke="#000000" stroke-linecap="round" stroke-linejoin="round" stroke-miterlimit="10" d="M3.5 8.84987c3.1 -3.2 7 -3.10001 7 -3.10001 0 0.8 0.7 1.5 1.5 1.5s1.5 -0.7 1.5 -1.5c0 0 3.9 -0.09999 7 3.10001" stroke-width="1"></path>
  <path stroke="#000000" stroke-linecap="round" stroke-linejoin="round" stroke-miterlimit="10" d="M11 18.75h2" stroke-width="1"></path>
  <path stroke="#000000" stroke-linecap="round" stroke-linejoin="round" stroke-miterlimit="10" d="M3.62549 16.2421c0.59707 -0.5971 1.19414 -1.0946 1.89072 -1.5922" stroke-width="1"></path>
  <path stroke="#000000" stroke-linecap="round" stroke-linejoin="round" stroke-miterlimit="10" d="M20.3668 16.2421c-0.5971 -0.5971 -1.1941 -1.0946 -1.8907 -1.5922" stroke-width="1"></path>
</svg>