<svg xmlns="http://www.w3.org/2000/svg" viewBox="0 0 60 60"><path d="M55.82,58.35,46,45.65V1a.94.94,0,0,0-1-1H5a1.05,1.05,0,0,0-.9.5.91.91,0,0,0,0,1l4,6A1.38,1.38,0,0,0,9,8h7v6.1A7,7,0,0,0,10,21a7.35,7.35,0,0,0,.7,3A4.89,4.89,0,0,0,6,29V39a2.93,2.93,0,0,0,4,2.8V49a3,3,0,0,0,6,0V41a1.28,1.28,0,0,1,1-1,1.28,1.28,0,0,1,1,1v8a3,3,0,0,0,6,0v-7.2A2.93,2.93,0,0,0,28,39V29a4.89,4.89,0,0,0-4.7-5,7.35,7.35,0,0,0,.7-3,7,7,0,0,0-6-6.9V8H38v37.7l-9.8,12.7a1.07,1.07,0,0,0-.1,1.1,1.15,1.15,0,0,0,.9.6h5a.91.91,0,0,0,.8-.4l3.2-3.9V59a.94.94,0,0,0,1,1h6a.94.94,0,0,0,1-1v-3.2l3.2,3.9a1.23,1.23,0,0,0,.8.4h5a1,1,0,0,0,.9-.6,1.07,1.07,0,0,0-.1-1.1ZM26,29V39a1,1,0,0,1-2,0V33a1,1,0,1,0-2,0V49a1,1,0,0,1-2,0V41a3.23,3.23,0,0,0-3-3,3.23,3.23,0,0,0-3,3v8a1,1,0,0,1-2,0V33a.94.94,0,0,0-1-1,.94.94,0,0,0-1,1v6a.94.94,0,0,1-1,1,.94.94,0,0,1-1-1V29a2.83,2.83,0,0,1,3-3h1.1A7.23,7.23,0,0,0,17,28a7.23,7.23,0,0,0,4.9-2H23a2.83,2.83,0,0,1,3,3Zm-4-8a5.14,5.14,0,0,1-1,3,1.07,1.07,0,0,0-1,1,5,5,0,0,1-6,0,1.07,1.07,0,0,0-1-1,5.14,5.14,0,0,1-1-3,5,5,0,0,1,10,0Zm11.5,37H31l7-9.1v3.7L33.52,58ZM44,58H40V7a.94.94,0,0,0-1-1H9.52L6.92,2H44V58Zm6.5,0L46,52.55v-3.7L53,58Z" fill="#000000" fill-rule="evenodd"></path></svg>