<svg xmlns="http://www.w3.org/2000/svg" viewBox="0 0 60 60"><g><path d="M46.23,46.6,33,41.2V37.9H18v3.3L5.73,46.6A8.8,8.8,0,0,0,0,54.9v5H2v-5a6.75,6.75,0,0,1,4.4-6.4L20,42.6V39.9H31v2.7l14.5,5.9A6.94,6.94,0,0,1,50,54.9v5h2v-5a8.89,8.89,0,0,0-5.8-8.3" fill="#000000" fill-rule="evenodd"></path><path d="M54.93,5.2a17,17,0,0,0-12-5.1,16.82,16.82,0,0,0-12,5.1c-5,5-6.9,12.7-4.7,18.8l-3.1,3.1,10.6,10.6,3.1-3.1a13.89,13.89,0,0,0,4.6.8h0c4.7,0,9.6-2.3,13.6-6.2a16.93,16.93,0,0,0-.1-24Zm-1.4,22.6c-3.6,3.6-8,5.6-12.1,5.6h0a10.49,10.49,0,0,1-4.4-.9l-.6-.3-2.7,2.7-7.8-7.8,2.6-2.6-.2-.6c-2.2-5.4-.6-12.7,4-17.3a14.73,14.73,0,0,1,21.2,0,14.73,14.73,0,0,1,0,21.2Z" fill="#000000" fill-rule="evenodd"></path><path d="M33,13a1,1,0,0,0-1.4,0c-1.5,1.5-2.2,4-1.9,6.9A12.07,12.07,0,0,0,33,27.1a12.53,12.53,0,0,0,8.6,3.4,7.82,7.82,0,0,0,5.6-2,1,1,0,0,0,0-1.4L33,13Zm8.5,15.5a10.32,10.32,0,0,1-7.1-2.8,9.81,9.81,0,0,1-2.7-6,7.8,7.8,0,0,1,.7-4.5l12.5,12.5a6.83,6.83,0,0,1-3.4.8Z" fill="#000000" fill-rule="evenodd"></path><path d="M37,10.9h3v3a1,1,0,0,0,2,0v-3h4a.94.94,0,0,0,1-1,.94.94,0,0,0-1-1H42v-3a1,1,0,1,0-2,0v3H37a.94.94,0,0,0-1,1,.94.94,0,0,0,1,1" fill="#000000" fill-rule="evenodd"></path><path d="M54,17.9H51v-4a1,1,0,1,0-2,0v4H46a1,1,0,0,0,0,2h3v3a1,1,0,1,0,2,0v-3h3a1,1,0,0,0,0-2" fill="#000000" fill-rule="evenodd"></path><path d="M13.43,29.4a1,1,0,0,0,.7,1.3l2.1.6h.3a1.2,1.2,0,0,0,1-.7,1,1,0,0,0-.7-1.3l-2.1-.6a1.15,1.15,0,0,0-1.3.7" fill="#000000" fill-rule="evenodd"></path><path d="M7.93,28.8l2.1.6h.3a1.2,1.2,0,0,0,1-.7,1,1,0,0,0-.7-1.3l-2.1-.5a1,1,0,0,0-1.3.7,1,1,0,0,0,.7,1.2" fill="#000000" fill-rule="evenodd"></path><path d="M1.73,26.9l2.1.6h.3a1.2,1.2,0,0,0,1-.7,1,1,0,0,0-.7-1.3l-2.1-.6a1,1,0,0,0-1.3.7,1.21,1.21,0,0,0,.7,1.3" fill="#000000" fill-rule="evenodd"></path><path d="M19.63,31.4a1,1,0,0,0,.7,1.3l.5.2h.3a1.2,1.2,0,0,0,1-.7,1,1,0,0,0-.7-1.3l-.5-.2a1,1,0,0,0-1.3.7" fill="#000000" fill-rule="evenodd"></path><path d="M14.73,23.1a1,1,0,0,0,1.4,0,1,1,0,0,0,0-1.4l-1.5-1.5a1,1,0,1,0-1.4,1.4l1.5,1.5" fill="#000000" fill-rule="evenodd"></path><path d="M19.33,27.6a1,1,0,0,0,1.4,0,1,1,0,0,0,0-1.4l-1.5-1.5a1,1,0,0,0-1.4,1.4l1.5,1.5" fill="#000000" fill-rule="evenodd"></path><path d="M10.13,18.6a1,1,0,0,0,1.4,0,1,1,0,0,0,0-1.4L10,15.7a1,1,0,1,0-1.4,1.4l1.5,1.5" fill="#000000" fill-rule="evenodd"></path><path d="M9.43,36a1,1,0,0,0-.7,1.2,1,1,0,0,0,1,.8h.2l2.1-.5a1,1,0,0,0-.5-1.9l-2.1.4" fill="#000000" fill-rule="evenodd"></path><path d="M2.43,38.8a1,1,0,0,0,1,.8h.2l2.1-.5a1,1,0,1,0-.5-1.9l-2.1.5c-.5,0-.8.6-.7,1.1" fill="#000000" fill-rule="evenodd"></path><path d="M17.83,33.9l-2.1.5a1,1,0,0,0-.7,1.2,1,1,0,0,0,1,.8h.2l2.1-.5a1,1,0,0,0,.7-1.2,1.06,1.06,0,0,0-1.2-.8" fill="#000000" fill-rule="evenodd"></path></g></svg>