<svg xmlns="http://www.w3.org/2000/svg" viewBox="0 0 60 60"><path d="M42.3,38h-.8V19.4c2.3-2.6,2.6-6.3.9-10.5C40.4,4.2,36.3,0,33.5,0s-6.9,4.2-8.9,8.9c-1.7,4.2-1.4,7.9.9,10.5V38H22.9c-.7,0-1.4-.5-1.4-1V31a2.85,2.85,0,0,0-2.8-3,2.9,2.9,0,0,0-2.9,2.9l-1.2,7A6.74,6.74,0,0,0,18,44.7l5,2.4c1.8.9,4.5,3.3,4.5,4.9v5a2.85,2.85,0,0,0,2.8,3h6a3.19,3.19,0,0,0,3.2-3V52a4.78,4.78,0,0,1,3.1-4.3,4.44,4.44,0,0,0,2.9-4V41a3.19,3.19,0,0,0-3.2-3ZM27.5,20h12v2h-12Zm0,4h12v2h-12Zm0,4h12v2h-12Zm0,4h12v2h-12ZM26.4,9.7C28.3,5.2,31.9,2,33.5,2s5.2,3.2,7.1,7.7c.8,2,1.8,5.7-.5,8.3H26.9c-2.3-2.7-1.3-6.3-.5-8.3ZM27.5,36h12v2h-12Zm16,7.7A2.41,2.41,0,0,1,42,45.8,6.93,6.93,0,0,0,37.5,52v5a1.2,1.2,0,0,1-1.2,1h-6c-.8,0-.8-.8-.8-1V52c0-2.9-3.8-5.8-5.7-6.7l-5-2.4a4.82,4.82,0,0,1-2.3-4.7l1.2-7.1v-.2a.92.92,0,0,1,.9-1,1,1,0,0,1,.9,1.1v6c0,1.7,1.8,3,3.4,3H42.3a1.2,1.2,0,0,1,1.2,1v2.7Z" fill="#000000" fill-rule="evenodd"></path></svg>