<svg xmlns="http://www.w3.org/2000/svg" viewBox="0 0 60 60"><g><path d="M30,45.65a4,4,0,1,0,4,4,4,4,0,0,0-4-4Zm0,6a2,2,0,1,1,2-2,2,2,0,0,1-2,2Z" fill="#000000" fill-rule="evenodd"></path><path d="M59.8,58.35,50,45.65V6h1a1,1,0,0,0,.9-.6l2-4a1.17,1.17,0,0,0,0-1A1.49,1.49,0,0,0,53,0H7a1.19,1.19,0,0,0-.9.5.91.91,0,0,0,0,1l2,4A1.05,1.05,0,0,0,9,6h1v39.7L.2,58.35a1.07,1.07,0,0,0-.1,1.1A1.05,1.05,0,0,0,1,60H6a.91.91,0,0,0,.8-.4l3.2-3.9V59a.94.94,0,0,0,1,1h4a.94.94,0,0,0,1-1V58H44v1a.94.94,0,0,0,1,1h4a.94.94,0,0,0,1-1v-3.2l3.2,3.9a1.23,1.23,0,0,0,.8.4h5a1,1,0,0,0,.9-.6,1.07,1.07,0,0,0-.1-1.1ZM8.6,2H51.4l-1,2H9.6l-1-2ZM16,6H29v4H16Zm0,6H44v2H16Zm5,4H39v8.8l-18,3.6V16Zm-5,0h3v14.9l22-4.4V16h3V42H16V16ZM31,6H44v4H31ZM5.5,58H3l7-9.1v3.7L5.5,58ZM12,6h2V58H12Zm4,38H44V56H16ZM46,6h2V58H46Zm8.5,52L50,52.55v-3.7L57,58Z" fill="#000000" fill-rule="evenodd"></path></g></svg>