<svg xmlns="http://www.w3.org/2000/svg" viewBox="0 0 60 60"><g><path d="M30,30A30.09,30.09,0,0,0,60,60V58A28,28,0,0,1,60,2V0A30.09,30.09,0,0,0,30,30" fill="#000000" fill-rule="evenodd"></path><path d="M16,13h2v2H16Z" fill="#000000" fill-rule="evenodd"></path><path d="M20,13h2v2H20Z" fill="#000000" fill-rule="evenodd"></path><path d="M24,13h2v2H24Z" fill="#000000" fill-rule="evenodd"></path><path d="M28,13h2v2H28Z" fill="#000000" fill-rule="evenodd"></path><path d="M13,10H4a4,4,0,0,0,0,8h9a.94.94,0,0,0,1-1V11a.94.94,0,0,0-1-1ZM2,14a2,2,0,0,1,2-2v4a2,2,0,0,1-2-2Zm4-2h6v4H6Z" fill="#000000" fill-rule="evenodd"></path><path d="M28.8,11l1.4.2L30,9.8c-.2-.8-1-5.2-2.3-6.5a3.8,3.8,0,0,0-5.4,0,3.64,3.64,0,0,0,0,5.4C23.6,10,28,10.8,28.8,11ZM23.7,4.7a1.71,1.71,0,0,1,2.6,0c.5.5,1,2.2,1.4,4a12.33,12.33,0,0,1-4-1.4,1.71,1.71,0,0,1,0-2.6Z" fill="#000000" fill-rule="evenodd"></path><path d="M28.8,17c-.9.1-5.2.9-6.5,2.3a3.64,3.64,0,0,0,0,5.4A3.73,3.73,0,0,0,25,25.9a3.57,3.57,0,0,0,2.7-1.2C29,23.4,29.8,19,30,18.2l.2-1.4-1.4.2Zm-2.5,6.3a1.84,1.84,0,1,1-2.6-2.6c.5-.5,2.2-1,4-1.4-.4,1.8-.9,3.5-1.4,4Z" fill="#000000" fill-rule="evenodd"></path><path d="M33,8.5l.8-.9C34,7.4,36,5,36,3a2.74,2.74,0,0,0-3-3,2.74,2.74,0,0,0-3,3c0,2,2,4.4,2.2,4.6l.8.9ZM33,2c.7,0,1,.2,1,1a5.54,5.54,0,0,1-1,2.3A5.54,5.54,0,0,1,32,3c0-.8.3-1,1-1Z" fill="#000000" fill-rule="evenodd"></path><path d="M41.3,28.7a1,1,0,0,0,1.4,0L48,23.4l5.3,5.3a1,1,0,0,0,1.4,0,1,1,0,0,0,0-1.4L49.4,22l5.3-5.3a1,1,0,1,0-1.4-1.4L48,20.6l-5.3-5.3a1,1,0,0,0-1.4,1.4L46.6,22l-5.3,5.3a1,1,0,0,0,0,1.4" fill="#000000" fill-rule="evenodd"></path><path d="M38,37c0,6,8.4,17,22,17V52c-11.5,0-19-8.7-19.9-14H60V36H38v1" fill="#000000" fill-rule="evenodd"></path></g></svg>