<svg xmlns="http://www.w3.org/2000/svg" viewBox="0 0 24 24" id="Bandage-Leg--Streamline-Ultimate">
  <desc>
    Bandage Leg Streamline Icon: https://streamlinehq.com
  </desc>
  <g id="Bandage-Leg--Streamline-Ultimate.svg">
    <path d="M20 5.62a0.48 0.48 0 0 0 -0.37 -0.48l-9 -2.42a0.47 0.47 0 0 0 -0.43 0.08 0.52 0.52 0 0 0 -0.2 0.4v2.29a0.49 0.49 0 0 0 0.37 0.48l9 2.58a0.5 0.5 0 0 0 0.63 -0.48Z" fill="#000000" stroke-width="1"></path>
    <path d="M16.58 18.56a0.49 0.49 0 0 0 0.24 -0.49 0.51 0.51 0 0 0 -0.35 -0.42l-5.8 -1.73a0.46 0.46 0 0 0 -0.44 0.08 0.49 0.49 0 0 0 -0.21 0.4V18h-1.5a0.5 0.5 0 0 0 -0.5 0.5v5a0.5 0.5 0 0 0 0.5 0.5h4.75a0.5 0.5 0 0 0 0.5 -0.5 5.76 5.76 0 0 1 2.81 -4.94Z" fill="#000000" stroke-width="1"></path>
    <path d="M15.27 23.5a0.5 0.5 0 0 0 0.5 0.5h2.75A1.5 1.5 0 0 0 20 22.5v-2.75a0.5 0.5 0 0 0 -0.5 -0.5 4.26 4.26 0 0 0 -4.23 4.25Z" fill="#000000" stroke-width="1"></path>
    <path d="M1.2 22.13a1.5 1.5 0 0 0 0.26 1.29 1.54 1.54 0 0 0 1.19 0.58H6a0.5 0.5 0 0 0 0.5 -0.5v-5a0.53 0.53 0 0 0 -0.16 -0.38A0.51 0.51 0 0 0 6 18a5.5 5.5 0 0 0 -4.8 4.13Z" fill="#000000" stroke-width="1"></path>
    <path d="M20 1a1 1 0 0 0 -1 -1h-8a1 1 0 0 0 -0.71 0.3 0.5 0.5 0 0 0 -0.12 0.48 0.48 0.48 0 0 0 0.35 0.35l8.85 2.38a0.53 0.53 0 0 0 0.44 -0.08A0.51 0.51 0 0 0 20 3Z" fill="#000000" stroke-width="1"></path>
    <path d="M0.08 12.29c-0.39 1.26 0.66 2.71 2.4 3.21a4.16 4.16 0 0 0 1.31 0.21 2.45 2.45 0 0 0 2.5 -1.48 1.82 1.82 0 0 0 0 -0.8 0.27 0.27 0 0 1 0.08 -0.23 0.26 0.26 0 0 1 0.24 0l16.1 4.8a1 1 0 0 0 0.29 0 1 1 0 0 0 1 -1v-4.81a1 1 0 0 0 -0.72 -1L5.51 6.13a3.21 3.21 0 0 0 -2.27 0.18 2.41 2.41 0 0 0 -1.38 1.33Zm2.85 1.78c-1 -0.32 -1.52 -1 -1.42 -1.34s0.49 -0.43 1.06 -0.43a2.91 2.91 0 0 1 0.87 0.14c1 0.32 1.52 1 1.42 1.34s-0.86 0.61 -1.93 0.29Z" fill="#000000" stroke-width="1"></path>
  </g>
</svg>