<svg xmlns="http://www.w3.org/2000/svg" fill="none" viewBox="0 0 24 24" id="Blood-Bag-Cross--Streamline-Ultimate">
  <desc>
    Blood Bag Cross Streamline Icon: https://streamlinehq.com
  </desc>
  <path fill="#000000" fill-rule="evenodd" d="M5.971 1.526A4.524 4.524 0 0 1 9.17 0.201h5.66a4.524 4.524 0 0 1 4.524 4.524v9.434a4.523 4.523 0 0 1 -3.774 4.461v1.2a0.75 0.75 0 0 1 -0.75 0.75H13v2.375a1 1 0 0 1 -2 0V20.57H9.17a0.75 0.75 0 0 1 -0.75 -0.75v-1.2a4.524 4.524 0 0 1 -3.774 -4.46V4.724c0 -1.2 0.477 -2.35 1.325 -3.199Zm4.755 3.717h2.753a0.5 0.5 0 0 1 0.5 0.5v2.118l2.015 0a0.5 0.5 0 0 1 0.5 0.5v2.753a0.5 0.5 0 0 1 -0.5 0.5H13.98v2.118a0.5 0.5 0 0 1 -0.5 0.5h-2.753a0.5 0.5 0 0 1 -0.5 -0.5l0 -2.118 -2.22 0a0.5 0.5 0 0 1 -0.5 -0.5l0 -2.753a0.5 0.5 0 0 1 0.5 -0.5h2.22l0 -2.118a0.5 0.5 0 0 1 0.5 -0.5Z" clip-rule="evenodd" stroke-width="1"></path>
</svg>