<svg xmlns="http://www.w3.org/2000/svg" viewBox="0 0 24 24" id="Dentistry-Tooth-Shield--Streamline-Ultimate">
  <desc>
    Dentistry Tooth Shield Streamline Icon: https://streamlinehq.com
  </desc>
  <path d="M24 2a2 2 0 0 0 -2 -2H2A1.91 1.91 0 0 0 0.58 0.59 1.93 1.93 0 0 0 0 2v7.31A15.13 15.13 0 0 0 11.86 24a0.68 0.68 0 0 0 0.2 0 0.71 0.71 0 0 0 0.2 0A15.13 15.13 0 0 0 24 9.2Zm-7.83 12.7a9.11 9.11 0 0 1 -0.17 1.84 0.56 0.56 0 0 1 -0.55 0.45 0.55 0.55 0 0 1 -0.55 -0.49c-0.22 -2.08 -1.43 -3.67 -2.88 -3.67s-2.65 1.58 -2.88 3.66a0.56 0.56 0 0 1 -0.56 0.5 0.55 0.55 0 0 1 -0.58 -0.43 9.31 9.31 0 0 1 -0.19 -1.86 8.73 8.73 0 0 1 0.54 -3.06 0.52 0.52 0 0 0 -0.09 -0.51A5.71 5.71 0 0 1 7 7.2c0 -1.87 1.21 -3.35 2.71 -3.35a2.66 2.66 0 0 1 1.93 0.82 0.51 0.51 0 0 0 0.72 0 2.66 2.66 0 0 1 1.93 -0.82c1.5 0 2.71 1.48 2.71 3.35a5.71 5.71 0 0 1 -1.28 3.93 0.52 0.52 0 0 0 -0.09 0.51 8.77 8.77 0 0 1 0.54 3.06Z" fill="#000000" stroke-width="1"></path>
</svg>