<svg xmlns="http://www.w3.org/2000/svg" viewBox="0 0 24 24" id="Hair-Dress-Barber--Streamline-Ultimate">
  <desc>
    Hair Dress Barber Streamline Icon: https://streamlinehq.com
  </desc>
  <path d="M4.38 18.59a0.51 0.51 0 0 1 -0.34 0.47 1 1 0 0 0 -0.66 0.94v1.5a2.5 2.5 0 0 0 2.5 2.5h12.24a2.5 2.5 0 0 0 2.5 -2.5V20a1 1 0 0 0 -0.66 -0.94 0.51 0.51 0 0 1 -0.34 -0.47V5.41a0.51 0.51 0 0 1 0.38 -0.47 1 1 0 0 0 0.62 -0.94V2.5a2.5 2.5 0 0 0 -2.5 -2.5H5.88a2.5 2.5 0 0 0 -2.5 2.5V4a1 1 0 0 0 0.62 0.94 0.51 0.51 0 0 1 0.34 0.47Zm13.25 -7.42a0.51 0.51 0 0 1 -0.34 0.47L6.71 15.36a0.27 0.27 0 0 1 -0.23 0 0.22 0.22 0 0 1 -0.1 -0.2v-2.33a0.5 0.5 0 0 1 0.33 -0.47l10.58 -3.72a0.27 0.27 0 0 1 0.23 0 0.23 0.23 0 0 1 0.11 0.2ZM14.81 5a0.25 0.25 0 0 1 0.08 0.49L7 8.24a0.51 0.51 0 0 1 -0.45 -0.06 0.49 0.49 0 0 1 -0.21 -0.41V5.5a0.5 0.5 0 0 1 0.5 -0.5ZM9.19 19a0.25 0.25 0 0 1 -0.08 -0.49L17 15.76a0.51 0.51 0 0 1 0.45 0.06 0.5 0.5 0 0 1 0.22 0.41v2.27a0.5 0.5 0 0 1 -0.5 0.5Z" fill="#000000" stroke-width="1"></path>
</svg>