<svg xmlns="http://www.w3.org/2000/svg" viewBox="0 0 24 24" id="Insurance-Hand--Streamline-Ultimate">
  <desc>
    Insurance Hand Streamline Icon: https://streamlinehq.com
  </desc>
  <g id="Insurance-Hand--Streamline-Ultimate.svg">
    <path d="M24 6.12A1.12 1.12 0 0 0 22.88 5H19.5a0.5 0.5 0 0 1 -0.5 -0.5V1.12A1.12 1.12 0 0 0 17.88 0h-3.76A1.12 1.12 0 0 0 13 1.12V4.5a0.5 0.5 0 0 1 -0.5 0.5H9.12A1.12 1.12 0 0 0 8 6.12v3.76A1.12 1.12 0 0 0 9.12 11h3.38a0.5 0.5 0 0 1 0.5 0.5v3.38A1.12 1.12 0 0 0 14.12 16h3.76A1.12 1.12 0 0 0 19 14.88V11.5a0.5 0.5 0 0 1 0.5 -0.5h3.38A1.12 1.12 0 0 0 24 9.88Z" fill="#000000" stroke-width="1"></path>
    <path d="M1 14.75a1 1 0 0 0 -1 1V23a1 1 0 0 0 2 0v-7.25a1 1 0 0 0 -1 -1Z" fill="#000000" stroke-width="1"></path>
    <path d="M15.5 19.5H6.38a0.63 0.63 0 1 1 0 -1.25H8.9a1 1 0 0 0 0.92 -1.39 2.23 2.23 0 0 0 -2.06 -1.36H3.5a0.5 0.5 0 0 0 -0.5 0.5v6.5a0.5 0.5 0 0 0 0.5 0.5h10.76a2.24 2.24 0 0 0 2.24 -2.24v-0.26a1 1 0 0 0 -1 -1Z" fill="#000000" stroke-width="1"></path>
  </g>
</svg>