<svg xmlns="http://www.w3.org/2000/svg" viewBox="0 0 24 24" id="Pregnancy-Pregnant--Streamline-Ultimate">
  <desc>
    Pregnancy Pregnant Streamline Icon: https://streamlinehq.com
  </desc>
  <path d="M19.12 10a13.79 13.79 0 0 1 -10.06 6.91h-0.12l-0.33 0a3.34 3.34 0 0 1 -0.44 -6.65c2.91 -0.39 4.69 -3 5.66 -5.06a0.75 0.75 0 1 1 1.36 0.63C14.06 8.29 12 11.3 8.37 11.78a1.84 1.84 0 0 0 0.42 3.65C17.44 14.27 20.16 4.88 21 0.75H5.05a5.17 5.17 0 0 0 -1 1c-0.89 1.5 0.58 3.49 2.51 4.2a8 8 0 0 0 0.76 14.45v2.84h14.13c0 -6 -2 -6.62 -2.42 -10.57a11.3 11.3 0 0 1 0.09 -2.67Z" fill="#000000" stroke-width="1"></path>
</svg>