<svg xmlns="http://www.w3.org/2000/svg" fill="none" viewBox="0 0 24 24"><path stroke="#000" d="M0.5 0.5L16.6689 16.6689M23.5 23.5L21.45 21.45M3 14C5.76142 14 8 16.2386 8 19V19.5H8.25C8.25 19.5 10 19 12 19C14 19 15.75 19.5 15.75 19.5M19 14.416C18.0185 14.8449 17.2013 15.5797 16.6689 16.5V16.6689M13 2.5H16.5V3.32524C16.5 8.02993 17.705 12.6562 20 16.7632M21.45 21.45H21.5C22.6411 21.2184 23.5 20.2095 23.5 19C23.5 17.6193 22.3807 16.5 21 16.5C19.7905 16.5 18.7816 17.3589 18.55 18.5V18.55M21.45 21.45L18.55 18.55M18.55 18.55L16.6689 16.6689M5.5 19C5.5 20.3807 4.38071 21.5 3 21.5C1.61929 21.5 0.5 20.3807 0.5 19C0.5 17.6193 1.61929 16.5 3 16.5C4.38071 16.5 5.5 17.6193 5.5 19Z"></path></svg>