<svg xmlns="http://www.w3.org/2000/svg" fill="none" viewBox="0 0 24 24"><path stroke="#000" d="M6.00012 15.5H9.00012M15.0001 15.5H18.0001M3.50012 11.7147C5.01298 12.0086 8.12267 12.5 12.0001 12.5C15.8776 12.5 18.9873 12.0086 20.5001 11.7147M8.50012 18.5L7.91428 19.6716C7.57678 20.3466 7.1445 20.9613 6.63553 21.5M15.5001 18.5L16.0858 19.6714C16.4233 20.3465 16.8556 20.9612 17.3646 21.5M21.0001 23.5C20.669 23.5 20.3379 23.4515 20.0312 23.3265C19.0162 22.9125 18.1085 22.2874 17.3646 21.5M3 23.5C3.33117 23.5 3.66224 23.4515 3.96889 23.3265C4.98395 22.9125 5.89165 22.2874 6.63553 21.5M3.50012 3.5H20.5001M6.63553 21.5H17.3646M3.50012 18.5V0.5H20.5002V18.5H3.50012Z"></path></svg>