<svg xmlns="http://www.w3.org/2000/svg" fill="none" viewBox="0 0 14 14" id="Carrot--Streamline-Flex">
  <desc>
    Carrot Streamline Icon: https://streamlinehq.com
  </desc>
  <g id="carrot--vegetable-carrot">
    <path id="Subtract" fill="#000000" fill-rule="evenodd" d="M9.76047 1.59084C9.86102 0.979891 9.78798 0.298812 9.13949 0.08252c-0.87148 -0.290669 -1.6471 0.94958 -2.21544 2.26934 -0.05823 0.13521 0.01576 0.28958 0.15416 0.33978 1.0394 0.37702 1.90224 1.05522 2.52085 1.67383 0.62994 0.62992 1.32164 1.51305 1.69424 2.57798 0.0489 0.14 0.2042 0.21574 0.3406 0.15751 1.3276 -0.56673 2.6099 -1.33615 2.3205 -2.20376 -0.2163 -0.64849 -0.8974 -0.72153 -1.5083 -0.62098 -0.0967 0.01591 -0.2604 -0.27552 -0.194 -0.34756 0.6373 -0.69072 1.1309 -1.6663 0.3266 -2.47053 -0.8042 -0.80424 -1.7799 -0.3106 -2.4707 0.32667 -0.072 0.06645 -0.36344 -0.09725 -0.34753 -0.19396ZM0.0493499 12.7443C-0.14866 10.8789 0.224503 7.49666 2.86202 4.85914c2.22995 -2.22995 4.51526 -0.94765 5.85312 0.39021 1.33786 1.33785 2.62016 3.62316 0.39021 5.85315 -2.63752 2.6375 -6.01979 3.0106 -7.88513 2.8126 -0.625994 -0.0664 -1.104419 -0.5448 -1.1708701 -1.1708ZM3.84346 5.58003c0.24408 -0.24408 0.6398 -0.24408 0.88388 0l1.12132 1.12132c0.24408 0.24408 0.24408 0.63981 0 0.88388 -0.24408 0.24408 -0.6398 0.24408 -0.88388 0L3.84346 6.46391c-0.24408 -0.24407 -0.24408 -0.6398 0 -0.88388Zm0.94455 4.30322c-0.24408 -0.24407 -0.6398 -0.24407 -0.88388 0 -0.24408 0.24405 -0.24408 0.63985 0 0.88385l1.01837 1.0184c0.24408 0.2441 0.6398 0.2441 0.88388 0 0.24408 -0.2441 0.24408 -0.6398 0 -0.8839L4.78801 9.88325Z" clip-rule="evenodd" stroke-width="1"></path>
  </g>
</svg>