<svg xmlns="http://www.w3.org/2000/svg" fill="none" viewBox="0 0 14 14" id="Chef-Toque-Hat--Streamline-Flex">
  <desc>
    Chef Toque Hat Streamline Icon: https://streamlinehq.com
  </desc>
  <g id="chef-toque-hat--cook-gear-chef-cooking-nutrition-tools-clothes-hat-clothing-food-kitchenware">
    <path id="Subtract" fill="#000000" fill-rule="evenodd" d="M4.13842 1.52425c0.18539 0.02792 0.37443 -0.03273 0.51027 -0.16195C5.2489 0.791337 6.08417 0.443848 6.99735 0.443848c0.91343 0 1.74893 0.347686 2.34917 0.918942 0.13602 0.12945 0.3254 0.19013 0.51105 0.16197 0.16993 -0.02576 0.34403 -0.03912 0.52123 -0.03912 1.7313 0 3.2114 1.2951 3.2114 2.98311 0 1.19089 -0.7407 2.18945 -1.7822 2.67161 -0.2055 0.09513 -0.3473 0.29813 -0.3378 0.52435 0.0117 0.27793 0.0185 0.55877 0.0185 0.8421 0 0.2242 -0.0043 0.44712 -0.0119 0.66849 -0.0093 0.27046 -0.237 0.4798 -0.5076 0.47297 -1.29129 -0.03257 -2.61783 -0.05916 -3.96923 -0.05916 -1.35152 0 -2.67819 0.0266 -3.96961 0.05917 -0.27053 0.00682 -0.49831 -0.20251 -0.50758 -0.47297 -0.00759 -0.22137 -0.01185 -0.4443 -0.01185 -0.6685 0 -0.2833 0.00678 -0.56412 0.01846 -0.84201 0.00951 -0.22624 -0.13235 -0.42924 -0.33784 -0.52436C1.15001 6.6583 0.40918 5.6597 0.40918 4.46875c0 -1.68801 1.48011 -2.98311 3.21142 -2.98311 0.17601 0 0.349 0.01318 0.51782 0.03861Zm-0.96929 9.37095c-0.28832 0.0072 -0.51034 0.2565 -0.48323 0.5436 0.00679 0.0719 0.01358 0.1434 0.02035 0.2147l0.00097 0.0102 0.00004 0.0005 0.00005 0.0004c0.01286 0.1355 0.0256 0.2697 0.03803 0.4032 0.06614 0.7104 0.62334 1.2976 1.35487 1.3604 1.98934 0.1708 3.80982 0.1708 5.79916 0 0.73153 -0.0628 1.28873 -0.65 1.35483 -1.3604 0.0125 -0.1338 0.0253 -0.2683 0.0382 -0.4041l0.0009 -0.0102c0.0068 -0.0713 0.0136 -0.1428 0.0204 -0.2147 0.0271 -0.2871 -0.1949 -0.5364 -0.4833 -0.5436 -1.25275 -0.0312 -2.53087 -0.0561 -3.83043 -0.0561 -1.29969 0 -2.57792 0.0249 -3.83084 0.0561Z" clip-rule="evenodd" stroke-width="1"></path>
  </g>
</svg>