<svg viewBox="0 0 24 24" fill="none" xmlns="http://www.w3.org/2000/svg" id="Database-Network-1--Streamline-Freehand">
  <desc>
    Database Network 1 Streamline Icon: https://streamlinehq.com
  </desc>
  <g id="database-network-1">
    <g id="Group">
      <path id="Vector" fill-rule="evenodd" clip-rule="evenodd" d="M5.45731 10.387c2.04431 0.7548 4.22852 1.0551 6.40069 0.8801 1.6107 0.0507 3.2218 -0.0869 4.8005 -0.41 0.7781 -0.1389 1.5325 -0.3881 2.2402 -0.7401 0.0401 -0.021 0.0756 -0.0497 0.1046 -0.0845 0.029 -0.0347 0.0508 -0.07481 0.0643 -0.11799 0.0134 -0.04319 0.0183 -0.0886 0.0142 -0.13365 -0.0041 -0.04505 -0.017 -0.08886 -0.038 -0.12891 -0.0211 -0.04006 -0.0498 -0.07559 -0.0845 -0.10455 -0.0347 -0.02897 -0.0749 -0.05081 -0.118 -0.06427 -0.0432 -0.01347 -0.0886 -0.0183 -0.1337 -0.01421 -0.045 0.00408 -0.0888 0.017 -0.1289 0.03801 -1.7402 0.87007 -6.0006 0.63007 -6.7207 0.61007 -1.6226 0.11 -3.25242 0.0429 -4.86053 -0.20002 -0.82571 -0.08737 -1.62167 -0.35725 -2.33024 -0.79009 -0.53006 0 -0.53006 0.49005 0 0.86009 0.33003 0.19002 0.11001 0.09002 0.79008 0.40002Z" fill="#000000" stroke-width="1"></path>
      <path id="Vector_2" fill-rule="evenodd" clip-rule="evenodd" d="M20.8189 5.99653c0 -0.09019 -0.0358 -0.17668 -0.0996 -0.24045 -0.0637 -0.06376 -0.1502 -0.09959 -0.2404 -0.09959s-0.1767 0.03583 -0.2404 0.09959c-0.0638 0.06377 -0.0996 0.15026 -0.0996 0.24045 0.08 7.40077 0.14 7.79087 -0.1 8.76097 -0.0906 0.4963 -0.3049 0.9618 -0.623 1.3533 -0.3182 0.3916 -0.73 0.6966 -1.1972 0.8869 -2.0109 0.8104 -4.1448 1.2737 -6.3107 1.3701 -1.4463 0.0713 -2.89527 -0.0702 -4.30047 -0.42 -0.97805 -0.1903 -1.92646 -0.5098 -2.8203 -0.9501 -1.13012 -0.7301 -0.90009 -10.47112 -0.86009 -12.00128 1.37093 1.26464 3.13841 2.01406 5.00053 2.12023 2.93553 0.20166 5.88473 -0.03427 8.75093 -0.70008 2.1402 -0.63007 4.1104 -2.00021 2.7803 -3.8004 -0.3644 -0.45659 -0.8187 -0.83336 -1.3349 -1.10692 -0.5161 -0.27355 -1.083 -0.43804 -1.6654 -0.48325 -0.0815 0.01391 -0.1553 0.05618 -0.2086 0.11933 -0.0533 0.06314 -0.0825 0.14309 -0.0825 0.2257 0 0.08262 0.0292 0.16257 0.0825 0.22571 0.0533 0.06315 0.1271 0.10542 0.2086 0.11933 0.4578 0.04388 0.902 0.1799 1.3059 0.3999 0.4039 0.21999 0.7591 0.51941 1.0443 0.88024C21.809 5.99653 9.74776 6.83662 6.3674 5.22644c-1.22013 -0.57006 -2.43026 -1.23013 -1.50016 -2.23023C7.73755 0.995995 11.4579 1.29603 14.9983 1.40604c1.1801 0.08001 1.4302 0.17002 1.5002 -0.16002 0.07 -0.330034 -0.3701 -0.400041 -0.7401 -0.440046 -0.12 0 -4.0004 -0.320034 -5.79062 -0.260027 -1.38902 0.011476 -2.76702 0.247897 -4.08043 0.700073 -1.14012 0.47005 -2.63028 1.23013 -2.49027 2.58028 -0.25002 0.68007 -0.07 4.47047 -0.12001 5.20055 -0.05 0.73008 -0.08001 2.11025 -0.06 3.34035 0 2.5903 0 4.2505 1.20012 5.3906 0.84172 0.6662 1.84675 1.0945 2.91031 1.2401 1.20684 0.3053 2.44562 0.4664 3.6904 0.4801 -0.1441 0.805 -0.0857 1.6333 0.17 2.4102 0.06 0.2 0.1 0.13 -0.13 0.15l-3.61039 0.3901c-0.07143 0.013 -0.13604 0.0506 -0.18256 0.1064 -0.04653 0.0557 -0.07201 0.126 -0.07201 0.1986s0.02548 0.1429 0.07201 0.1987c0.04652 0.0557 0.11113 0.0934 0.18256 0.1063 2.97649 0.228 5.96659 0.2146 8.94099 -0.04 0.0814 -0.0139 0.1553 -0.0561 0.2086 -0.1193 0.0532 -0.0631 0.0824 -0.1431 0.0824 -0.2257s-0.0292 -0.1626 -0.0824 -0.2257c-0.0533 -0.0632 -0.1272 -0.1054 -0.2086 -0.1193 -1.6302 -0.09 -2.7203 -0.2401 -4.3105 -0.2401 -0.05 -0.32 -0.07 0 0.06 -1.0001 0.0075 -0.413 -0.0637 -0.8237 -0.21 -1.2101 -0.12 -0.4 -0.15 -0.33 0 -0.33 2.3186 -0.1223 4.5958 -0.6645 6.7207 -1.6002 0.6017 -0.2587 1.1307 -0.6612 1.5405 -1.1722 0.4097 -0.5109 0.6878 -1.1146 0.8098 -1.7581 0.21 -1.2001 0.1 -2.0002 -0.1801 -9.00097Z" fill="#000000" stroke-width="1"></path>
      <path id="Vector_3" fill-rule="evenodd" clip-rule="evenodd" d="M14.5983 15.5976c1.6726 -0.1625 3.2849 -0.7102 4.7105 -1.6002 0.0387 -0.023 0.0726 -0.0534 0.0996 -0.0895 0.027 -0.036 0.0466 -0.077 0.0577 -0.1207 0.0112 -0.0436 0.0136 -0.0891 0.0072 -0.1336 -0.0064 -0.0446 -0.0215 -0.0875 -0.0445 -0.1263 -0.023 -0.0387 -0.0534 -0.0726 -0.0895 -0.0995 -0.036 -0.027 -0.077 -0.0467 -0.1207 -0.0578 -0.0436 -0.0112 -0.089 -0.0136 -0.1336 -0.0072 -0.0446 0.0064 -0.0875 0.0215 -0.1263 0.0445 -1.3646 0.7347 -2.8813 1.1421 -4.4304 1.1901 -5.07058 0.2201 -7.00078 -0.15 -9.82108 -1.2401 -0.47005 -0.11 -0.48005 0.3801 0 0.7201 3.69039 1.8502 5.80058 1.8502 9.89108 1.5202Z" fill="#000000" stroke-width="1"></path>
      <path id="Vector_4" fill-rule="evenodd" clip-rule="evenodd" d="M5.24713 22.3483c-0.6 0 -1.9 0.24 -1.44 0.64 1.56 1.31 4.05 -0.5 1.44 -0.64Z" fill="#000000" stroke-width="1"></path>
      <path id="Vector_5" fill-rule="evenodd" clip-rule="evenodd" d="M1.53673 22.3483c-0.600004 0 -1.900004 0.24 -1.4400041 0.64 1.5600041 1.31 4.0500041 -0.5 1.4400041 -0.64Z" fill="#000000" stroke-width="1"></path>
      <path id="Vector_6" fill-rule="evenodd" clip-rule="evenodd" d="M22.859 22.0682c-0.6 0 -1.9 0.24 -1.44 0.63 1.58 1.3 4.05 -0.49 1.44 -0.63Z" fill="#000000" stroke-width="1"></path>
      <path id="Vector_7" fill-rule="evenodd" clip-rule="evenodd" d="M19.1486 22.0682c-0.6 0 -1.9 0.24 -1.44 0.63 1.56 1.3 4.05 -0.49 1.44 -0.63Z" fill="#000000" stroke-width="1"></path>
    </g>
  </g>
</svg>