<svg viewBox="0 0 24 24" fill="none" xmlns="http://www.w3.org/2000/svg" id="Module-Building-Blocks--Streamline-Freehand">
  <desc>
    Module Building Blocks Streamline Icon: https://streamlinehq.com
  </desc>
  <g id="module-building-blocks">
    <g id="Group">
      <path id="Vector" fill-rule="evenodd" clip-rule="evenodd" d="M23.9102 15.3493c0.0599 -0.4777 0.0899 -0.9586 0.09 -1.44 0 -2.55 -0.32 -2.42 -1 -2.18 -0.5587 0.1961 -1.095 0.4509 -1.6 0.76 -0.3178 0.2029 -0.6218 0.4268 -0.91 0.67 -0.31 0.27 -0.6 0.55 -0.9 0.82 -0.88 -0.15 -1.75 -0.32 -2.64 -0.45 -0.43 -0.06 -0.87 -0.1 -1.31 -0.14h-2.28c-0.76 0 -1.77 0.2 -2.66 0.31 0.377 -0.2786 0.7345 -0.5826 1.07 -0.91 0.2485 -0.2758 0.4759 -0.5699 0.68 -0.88 1.4 -2 1.23 -1.33 1.23 -1.61 0.07 -0.59 0.15 -1.17 0.18 -1.77v-0.76c-0.008 -0.24788 -0.0314 -0.49502 -0.07 -0.74 -0.08 -0.59 -0.22 -1.15 -0.33 -1.74 0.0028 -0.08058 -0.026 -0.15906 -0.0801 -0.21881 -0.0541 -0.05974 -0.1294 -0.09604 -0.2099 -0.10119 -0.0836 0.0033 -0.1626 0.03919 -0.22 0.1 -0.0503 -0.00215 -0.1004 0.00657 -0.147 0.02555 -0.0466 0.01898 -0.0885 0.04779 -0.123 0.08445 -0.38 0.3 -0.77 0.57 -1.15 0.88l-0.46 0.4c-0.1476 0.13918 -0.2878 0.28605 -0.42 0.44 -0.2 0.23 -0.37 0.46 -0.54 0.69 -1 0 -2.05999 -0.09 -3.09999 -0.12h-1.42c-0.48 0 -0.94001 0 -1.41001 0.06 -0.84 0.06 -1.65999 0.16 -2.48999 0.26 0.043 -0.04752 0.08307 -0.09761 0.11999 -0.15 0.07315 -0.10405 0.13675 -0.2145 0.19001 -0.33 0.12 -0.27 0.17 -0.54 0.27 -0.82 0.03082 -0.04059 0.05293 -0.08712 0.06493 -0.13666 0.012 -0.04954 0.01363 -0.10103 0.0048 -0.15123 -0.00883 -0.0502 -0.02794 -0.09803 -0.05613 -0.1405 -0.02819 -0.04247 -0.06485 -0.07865 -0.10768 -0.10629 -0.04284 -0.02763 -0.09092 -0.04612 -0.14123 -0.05429 -0.05031 -0.00818 -0.10177 -0.00588 -0.15115 0.00677 -0.04938 0.01264 -0.09561 0.03535 -0.1358 0.06671 -0.04019 0.03135 -0.07347 0.07067 -0.09774 0.11549 -0.22 0.21 -0.43 0.39 -0.63 0.61 -0.088785 0.0848 -0.172275 0.17497 -0.250005 0.27 -0.05257 0.08336 -0.099347 0.17023 -0.14 0.26 -0.284424 0.73931 -0.41706 1.52833 -0.39 2.32 -0.07 0.89 -0.1 1.79 -0.14 2.68 0 0.24 -0.099999927 0.68 -0.099999927 1.05 -0.005153983 0.2365 0.039123627 0.4716 0.129999927 0.69 0.084832 0.1409 0.197044 0.2633 0.33 0.36 -0.177834 0.7483 -0.284971 1.5117 -0.32 2.28 -0.013236 0.5412 0.013503 1.0827 0.08 1.62 0.34 3.16 -1.18 3 4.180005 3 0.76 0 1.52 0 2.27 -0.1 1.14 -0.07 2.26999 -0.21 3.39999 -0.29h0.12c1.05 0.08 2.09 0.22 3.15 0.27h2.37l2.84 -0.27c0.0864 -0.0144 0.165 -0.0589 0.2216 -0.1258 0.0567 -0.0668 0.0878 -0.1516 0.0878 -0.2392 0 -0.0876 -0.0311 -0.1724 -0.0878 -0.2392 -0.0566 -0.0669 -0.1352 -0.1114 -0.2216 -0.1258l-2.88 -0.13c-0.78 0 -1.56 -0.07 -2.34 -0.06 -0.78 0.01 -1.72 0.09 -2.58 0.18 0.08 -0.6 0.16 -1.18 0.2 -1.78v-1.74c-0.08 -0.68 -0.23 -1.34 -0.36 -2l5 0.16c5 0.19 3.72 -0.26 3.69 1.94 -0.0013 0.4476 0.022 0.895 0.07 1.34 0.05 0.66 0.14 1.31 0.13 2 -0.0044 0.0466 -0.0044 0.0934 0 0.14 0 0 -0.09 0.1 -0.13 0.16 -0.0599 0.0616 -0.0934 0.1441 -0.0934 0.23s0.0335 0.1684 0.0934 0.23c0.0627 0.0576 0.1448 0.0896 0.23 0.0896s0.1673 -0.032 0.23 -0.0896c0.52 -0.37 1.06 -0.69 1.57 -1.07 0.22 -0.16 0.42 -0.34 0.63 -0.52 0.21 -0.18 0.39 -0.37 0.58 -0.57 0.19 -0.2 0.36 -0.43 0.55 -0.64 0.77 -0.12 0.76 -2.49 0.77 -2.63Zm-12.46 -7.57c0.1713 -0.12282 0.3319 -0.25998 0.48 -0.41 0.1504 -0.14707 0.2907 -0.30409 0.42 -0.47 0.14 -0.17 0.26 -0.36 0.39 -0.54 0 0.24 -0.07 0.48 -0.08 0.72 -0.01 0.24 0 0.5 0 0.75s0 0.5 0.07 0.75c0 0.48 0.13 1 0.19 1.42h-0.08c-0.43 0.36 -0.84 0.71 -1.24 1.11 -0.16 0.16 -0.32 0.33 -0.47 0.51 -0.1288 0.1567 -0.249 0.3203 -0.36 0.49 0 -0.25 0.08 -0.5 0.1 -0.75 0.0152 -0.2464 0.0152 -0.4936 0 -0.74 -0.0018 -0.2441 -0.0185 -0.4879 -0.05 -0.73 -0.07 -0.54 -0.2 -1.06 -0.31 -1.59 0.3226 -0.15607 0.6364 -0.32966 0.94 -0.52Zm-7.25 0.93h1.42c0.48 0 0.94001 0 1.42001 -0.07 3.45999 -0.22 2.74999 -0.67 2.61999 1.33v0.73c0 0.24 0.00001 0.48 0.05001 0.72 0.06 0.56 0.14999 1.11 0.19999 1.67 -0.0009 0.0501 0.00838 0.0999 0.02729 0.1463 0.01891 0.0464 0.04705 0.0885 0.08271 0.1237v0.07c-0.60999 0 -1.22999 0.07 -1.84999 0.09H3.1102c-0.39628 0.0246 -0.79371 0.0246 -1.19 0 -0.17167 -0.0146 -0.3421 -0.0413 -0.50999 -0.08 -0.06 0 -0.15 0 -0.16 -0.06v-1.17c-0.05 -0.89 -0.12 -1.77 -0.13 -2.66v-1c1 0.04 2.02999 0.13 3.07999 0.16Zm5.73001 11.37c-1.07 -0.11 -2.13 -0.11 -3.2 -0.11h-1.43c-0.43 0 -0.94 0 -1.42 0.07 -0.86 0.07 -1.71 0.17 -2.56 0.26 0 -0.79 0.08 -1.58 0.07 -2.38 0 -0.52 0 -1.05 -0.06 -1.57s-0.08 -1.11 -0.11 -1.65c0.62736 0.1064 1.26492 0.14 1.89999 0.1 1.45 -0.11 2.89 -0.18 4.33 -0.3 0.77 -0.07 1.54001 -0.16 2.30001 -0.27 0.04522 0.7693 0.04522 1.5407 0 2.31v0.85c0 0.28 0 0.57 0.05 0.86 0 0.62 0.12999 1.22 0.17999 1.84l-0.04999 -0.01Zm11.87999 -2.44c-0.3516 0.2611 -0.6856 0.5451 -1 0.85 -0.17 0.17 -0.31 0.36 -0.46 0.54 0.05 -0.37 0.14 -0.73 0.16 -1.1 0.02 -0.37 0 -0.58 0 -0.87 -0.0084 -0.281 -0.0318 -0.5614 -0.07 -0.84 -0.07 -0.55 -0.17 -1.09 -0.25 -1.63 0.3962 -0.1556 0.7778 -0.3464 1.14 -0.57 0.3097 -0.209 0.6069 -0.4361 0.89 -0.68l0.64 -0.53 -0.09 0.76c0 0.3 0 0.59 -0.06 0.89 -0.06 0.3 0 0.59 0 0.89 0 0.51 0 1 0.08 1.53 -0.3 0.25 -0.65 0.5 -0.98 0.76Z" fill="#000000" stroke-width="1"></path>
      <path id="Vector_2" fill-rule="evenodd" clip-rule="evenodd" d="M14.0902 12.6293c0.4405 0.0719 0.8914 0.0445 1.32 -0.08 0.81 -0.3 0.48 -1 -0.25 -1.14 -0.4616 -0.104 -0.9448 -0.0476 -1.37 0.16 -0.79 0.4 -0.32 0.89 0.3 1.06Z" fill="#000000" stroke-width="1"></path>
      <path id="Vector_3" fill-rule="evenodd" clip-rule="evenodd" d="M3.6202 5.7593c0.44076 0.06583 0.89042 0.03857 1.32 -0.08 0.81 -0.3 0.48 -1 -0.25 -1.15 -0.46181 -0.09934 -0.9435 -0.04308 -1.37 0.16 -0.79 0.39 -0.32 0.9 0.3 1.07Z" fill="#000000" stroke-width="1"></path>
      <path id="Vector_4" fill-rule="evenodd" clip-rule="evenodd" d="M16.1599 10.8792c0.4405 0.0718 0.8915 0.0445 1.32 -0.08 0.8 -0.3 0.48 -1.00003 -0.26 -1.14003 -0.4585 -0.09858 -0.9368 -0.04231 -1.36 0.16 -0.8 0.39003 -0.32 0.90003 0.3 1.06003Z" fill="#000000" stroke-width="1"></path>
      <path id="Vector_5" fill-rule="evenodd" clip-rule="evenodd" d="M5.6902 3.96934c0.43197 0.09063 0.87804 0.09063 1.31 0 0.8 -0.3 0.48 -1 -0.26 -1.15 -0.45427 -0.09942 -0.92863 -0.04671 -1.35 0.15 -0.8 0.36 -0.32 0.87 0.3 1Z" fill="#000000" stroke-width="1"></path>
      <path id="Vector_6" fill-rule="evenodd" clip-rule="evenodd" d="M18.3899 12.6292c0.4405 0.0718 0.8914 0.0445 1.32 -0.08 0.8 -0.3 0.48 -1 -0.25 -1.14 -0.4616 -0.1041 -0.9448 -0.0476 -1.37 0.16 -0.79 0.4 -0.32 0.89 0.3 1.06Z" fill="#000000" stroke-width="1"></path>
      <path id="Vector_7" fill-rule="evenodd" clip-rule="evenodd" d="M7.92021 5.75929c0.44075 0.06583 0.89041 0.03858 1.32 -0.08 0.79999 -0.3 0.48 -1 -0.26 -1.15 -0.45855 -0.09858 -0.93685 -0.04231 -1.36 0.16 -0.79 0.39 -0.32 0.9 0.3 1.07Z" fill="#000000" stroke-width="1"></path>
      <path id="Vector_8" fill-rule="evenodd" clip-rule="evenodd" d="M20.4599 10.8792c0.4404 0.0718 0.8914 0.0445 1.32 -0.08 0.8 -0.3 0.47 -1.00002 -0.26 -1.14002 -0.4619 -0.09782 -0.9431 -0.04162 -1.37 0.16 -0.79 0.39002 -0.31 0.90002 0.31 1.06002Z" fill="#000000" stroke-width="1"></path>
      <path id="Vector_9" fill-rule="evenodd" clip-rule="evenodd" d="M10.0002 3.96932c0.432 0.09062 0.878 0.09062 1.31 0 0.8 -0.3 0.48 -1 -0.26 -1.15 -0.4608 -0.10094 -0.942 -0.04826 -1.37 0.15 -0.79 0.36 -0.31 0.87 0.32 1Z" fill="#000000" stroke-width="1"></path>
    </g>
  </g>
</svg>