<svg viewBox="0 0 24 24" fill="none" xmlns="http://www.w3.org/2000/svg" id="Ui-Step-Indicator-2--Streamline-Freehand">
  <desc>
    Ui Step Indicator 2 Streamline Icon: https://streamlinehq.com
  </desc>
  <g id="ui-step-indicator-2">
    <g id="Group">
      <path id="Vector" fill-rule="evenodd" clip-rule="evenodd" d="M4.27076 11.7882c-0.0427 -0.4556 -0.24056 -0.8828 -0.5605 -1.21 -0.31994 -0.3272 -0.74254 -0.5346 -1.19711 -0.58754 -0.57385 -0.04611 -1.1441 0.12494 -1.597816 0.47934 -0.434116 0.3446 -0.737193 0.8274 -0.8588287 1.3681 -0.5991823 2.8362 3.7548747 2.8861 4.1842947 0.6891 0.02344 -0.2456 0.03344 -0.4923 0.02996 -0.739Zm-3.26555 0.3096c0.10314 -0.2449 0.26016 -0.4633 0.45937 -0.6391 0.13231 -0.1267 0.28921 -0.2248 0.46099 -0.2884 0.17178 -0.0636 0.35477 -0.0912 0.53765 -0.0811 0.13488 0.0074 0.26685 0.0421 0.38793 0.1019 0.12108 0.0599 0.22875 0.1437 0.31651 0.2464 0.08775 0.1027 0.15376 0.2221 0.19403 0.3511 0.04027 0.1289 0.05396 0.2647 0.04025 0.3991 0.06991 2.0172 -3.005898 1.5778 -2.39673 -0.0899Z" fill="#000000" stroke-width="1"></path>
      <path id="Vector_2" fill-rule="evenodd" clip-rule="evenodd" d="M16.9834 11.8981c0.0227 -1.0826 -0.3742 -2.13197 -1.1075 -2.92861 -0.7334 -0.79664 -1.7464 -1.2788 -2.8271 -1.34559 -1.2287 -0.09535 -2.4527 0.23622 -3.46529 0.93872 -1.01196 0.69703 -1.74987 1.72448 -2.08715 2.90608 0 0.1398 -0.06991 0.2696 -0.09987 0.4094 -0.05302 0.2392 -0.0765 0.4841 -0.0699 0.729 0 1.7975 1.13844 3.4753 4.07441 3.7249 0.0749 0.006 0.1493 -0.0163 0.2085 -0.0625 0.0592 -0.0463 0.0988 -0.113 0.1111 -0.1871 0.0034 -0.0759 -0.0211 -0.1503 -0.069 -0.2092 -0.0479 -0.059 -0.1157 -0.0982 -0.1907 -0.1104h-0.1497l2.4266 -2.0672 2.3169 -1.9373c0.0103 0.1429 0.0103 0.2864 0 0.4294 0.0339 0.4436 -0.0218 0.8894 -0.1639 1.311 -0.142 0.4216 -0.3674 0.8103 -0.6628 1.143 -0.2954 0.3326 -0.6547 0.6025 -1.0565 0.7933 -0.4019 0.1909 -0.838 0.299 -1.2825 0.3178 -0.042 0.0013 -0.0833 0.0109 -0.1216 0.0281 -0.0382 0.0173 -0.0727 0.0419 -0.1015 0.0725 -0.0287 0.0306 -0.0512 0.0666 -0.066 0.1059 -0.0149 0.0393 -0.0218 0.0811 -0.0205 0.1231 0.0013 0.0419 0.0109 0.0832 0.0281 0.1215 0.0173 0.0383 0.0419 0.0728 0.0725 0.1015 0.0306 0.0288 0.0666 0.0512 0.1059 0.0661 0.0393 0.0148 0.0811 0.0218 0.1231 0.0204 1.0111 0.0027 1.9856 -0.3782 2.7269 -1.0658 0.7413 -0.6875 1.1943 -1.6307 1.2676 -2.6391 0.0582 -0.2588 0.085 -0.5237 0.0799 -0.7889Zm-8.58827 -0.1598c0.33152 -0.9318 0.95925 -1.7292 1.78707 -2.27029 0.8279 -0.54107 1.8102 -0.79596 2.7967 -0.72564 0.2566 0.01161 0.5112 0.0518 0.7589 0.11984 -0.6696 0.35051 -1.3078 0.75813 -1.9074 1.21829 -0.3531 0.2692 -0.6868 0.5628 -0.9986 0.8788 -0.3247 0.3155 -0.6314 0.6489 -0.91874 0.9987 -0.52928 0.6191 -0.99864 1.2882 -1.45801 1.9973 -0.30284 -0.7042 -0.32428 -1.4976 -0.05992 -2.217Zm5.54247 0.4194c-0.3196 0.2097 -0.6092 0.4494 -0.9088 0.6791 -0.2996 0.2297 -0.5792 0.5293 -0.8388 0.8089 -0.5693 0.6191 -1.0586 1.2882 -1.6079 1.9274 -0.69339 -0.1812 -1.3141 -0.5718 -1.77753 -1.1185 0.73899 -0.779 1.50793 -1.5179 2.27693 -2.2669 0.5792 -0.5593 1.1184 -1.1285 1.7176 -1.6478 0.5505 -0.4853 1.1308 -0.93553 1.7377 -1.34814 0.6565 0.41375 1.1394 1.05294 1.3581 1.79754 -0.6591 0.3595 -1.3282 0.739 -1.9074 1.1684h-0.0499Z" fill="#000000" stroke-width="1"></path>
      <path id="Vector_3" fill-rule="evenodd" clip-rule="evenodd" d="m6.81729 11.8082 -0.54925 -0.0699c-0.18961 -0.0099 -0.37961 -0.0099 -0.56923 0 -0.18628 -0.01 -0.37295 -0.01 -0.55923 0h-0.41943c-0.26963 0.2197 -0.47935 0.8089 0 0.9288 0.11439 0.0328 0.23129 0.0562 0.34952 0.0699 0.19819 0.0316 0.39849 0.0483 0.59918 0.0499h0.5892c0.18466 -0.0085 0.36834 -0.0319 0.54925 -0.0699 0.27962 -0.1398 0.25965 -0.8089 0.00999 -0.9088Z" fill="#000000" stroke-width="1"></path>
      <path id="Vector_4" fill-rule="evenodd" clip-rule="evenodd" d="M18.741 11.7583h-0.4993c-0.2466 -0.0155 -0.4934 0.029 -0.719 0.1298 -0.2896 0.1698 -0.1498 0.729 0 0.8388 0.2254 0.1011 0.473 0.1423 0.719 0.1199 0.1763 0.0103 0.353 0.0103 0.5293 0 0.1495 -0.0125 0.297 -0.0427 0.4394 -0.0899 0.4094 -0.1598 0.2397 -0.8289 0 -0.8988l-0.4694 -0.0998Z" fill="#000000" stroke-width="1"></path>
      <path id="Vector_5" fill-rule="evenodd" clip-rule="evenodd" d="M22.1963 9.99069c-0.5451 -0.04778 -1.0894 0.09971 -1.5357 0.41621 -0.4463 0.3165 -0.7657 0.7813 -0.901 1.3114l0 0.0999c-0.0378 0.2415 -0.0378 0.4875 0 0.729 0.2896 1.5379 4.0845 2.197 4.2343 -0.4793 0.0204 -0.2549 -0.0101 -0.5112 -0.0898 -0.7541 -0.0796 -0.243 -0.2068 -0.4676 -0.3741 -0.6609 -0.1672 -0.1933 -0.3713 -0.3514 -0.6003 -0.4651 -0.229 -0.1137 -0.4783 -0.1807 -0.7334 -0.19711ZM20.6584 11.988c0.0973 -0.2314 0.252 -0.4342 0.4494 -0.5892 0.2793 -0.232 0.6361 -0.3498 0.9986 -0.3296 0.2544 0.0153 0.4932 0.1272 0.6678 0.3129 0.1745 0.1856 0.2714 0.431 0.271 0.6858 0.0998 1.9173 -2.966 1.448 -2.3868 -0.0799Z" fill="#000000" stroke-width="1"></path>
    </g>
  </g>
</svg>