<svg viewBox="0 0 24 24" fill="none" xmlns="http://www.w3.org/2000/svg" id="Website-Development-Browser-Hand--Streamline-Freehand">
  <desc>
    Website Development Browser Hand Streamline Icon: https://streamlinehq.com
  </desc>
  <g id="website-development-browser-hand">
    <g id="Group">
      <path id="Vector" fill-rule="evenodd" clip-rule="evenodd" d="M7.09696 2.64121c-0.02484 -0.457 -0.00812 -0.91531 0.04998 -1.36928 0.04568 -0.06014 0.06783 -0.1349 0.06228 -0.21022 -0.00555 -0.075319 -0.03843 -0.146018 -0.09244 -0.198806C7.06276 0.810116 6.99133 0.778876 6.9159 0.775055c-0.07543 -0.003821 -0.14966 0.020041 -0.20873 0.067101 -0.32983 0.299844 -0.32983 1.329304 -0.40979 1.689114 -0.71269 3.09061 -0.75019 6.29862 -0.10994 9.40503 0.0106 0.0901 0.05657 0.1724 0.1278 0.2286 0.07123 0.0562 0.16187 0.0819 0.252 0.0713 0.09013 -0.0106 0.17235 -0.0566 0.22858 -0.1278 0.05623 -0.0713 0.08187 -0.1619 0.07126 -0.252 -0.11118 -3.07357 -0.03442 -6.15103 0.22988 -9.21519Z" fill="#000000" stroke-width="1"></path>
      <path id="Vector_2" fill-rule="evenodd" clip-rule="evenodd" d="M21.1296 3.68065c-4.4227 -0.29677 -8.8603 -0.29677 -13.28303 0 -0.3798 0 -0.54971 0.59968 0.16991 0.73961 1.43924 0 2.99842 0.20989 5.99682 0.21989 2.9984 0.00999 5.1073 -0.17991 7.1762 -0.23988 0.0955 -0.00795 0.1838 -0.05349 0.2457 -0.12659 0.0618 -0.0731 0.0921 -0.16778 0.0842 -0.2632 -0.008 -0.09543 -0.0535 -0.18379 -0.1266 -0.24565 -0.0731 -0.06185 -0.1678 -0.09213 -0.2632 -0.08418Z" fill="#000000" stroke-width="1"></path>
      <path id="Vector_3" fill-rule="evenodd" clip-rule="evenodd" d="M23.7482 4.15041c-0.0999 -0.92951 0 -2.67859 -0.7396 -3.228297 -1.5092 -1.15939 -4.5676 -0.819569 -6.6665 -0.9095213C13.7035 -0.0573715 10.9949 0.182502 8.43626 0.28245c-0.09013 0 -0.17656 0.035802 -0.24029 0.099531 -0.06373 0.063729 -0.09953 0.150164 -0.09953 0.24029 0 0.090126 0.0358 0.176561 0.09953 0.24029 0.06373 0.063729 0.15016 0.099531 0.24029 0.099531 2.58864 0 5.21724 -0.159916 7.83584 0 1.899 0.119938 4.9174 0 5.9969 0.839558 0.2498 0.1999 0.5397 5.79695 0.5497 6.35666 0.0081 1.57673 -0.1156 3.15139 -0.3698 4.70749 -1.2094 0.7097 -6.1568 1.1194 -7.606 1.2094 -0.0714 0.013 -0.136 0.0506 -0.1825 0.1063 -0.0465 0.0557 -0.0719 0.126 -0.0719 0.1985 0 0.0726 0.0254 0.1429 0.0719 0.1986 0.0465 0.0557 0.1111 0.0933 0.1825 0.1063 1.859 0 6.1268 -0.2599 7.7359 -0.8496 0.5397 -0.1999 0.7696 -0.4398 0.9295 -1.2893 0.5101 -2.76967 0.591 -5.60132 0.2399 -8.39559Z" fill="#000000" stroke-width="1"></path>
      <path id="Vector_4" fill-rule="evenodd" clip-rule="evenodd" d="M9.36634 2.59166c0.06884 -0.12398 0.09155 -0.26833 0.06409 -0.40746 -0.02746 -0.13912 -0.10331 -0.26402 -0.21409 -0.35254 -0.57 -0.3 -1.27 0.28 -0.77 0.8 0.06088 0.06188 0.13408 0.11028 0.21485 0.14208 0.08077 0.0318 0.16732 0.04628 0.25405 0.04251 0.08672 -0.00377 0.17169 -0.02571 0.2494 -0.0644 0.0777 -0.03869 0.14642 -0.09326 0.2017 -0.16019Z" fill="#000000" stroke-width="1"></path>
      <path id="Vector_5" fill-rule="evenodd" clip-rule="evenodd" d="M11.3253 2.39183c0.0678 -0.12508 0.0889 -0.27017 0.0596 -0.40938 -0.0293 -0.1392 -0.1072 -0.26347 -0.2196 -0.35062 -0.57 -0.3 -1.26999 0.28 -0.76 0.79 0.0602 0.06248 0.1329 0.11162 0.2132 0.14426 0.0804 0.03264 0.1668 0.04804 0.2535 0.04521 0.0867 -0.00282 0.1718 -0.02382 0.2499 -0.06162 0.0781 -0.03781 0.1474 -0.09158 0.2034 -0.15785Z" fill="#000000" stroke-width="1"></path>
      <path id="Vector_6" fill-rule="evenodd" clip-rule="evenodd" d="M13.4542 2.39183c0.0709 -0.12346 0.0948 -0.26839 0.0672 -0.40806 -0.0276 -0.13968 -0.1047 -0.26467 -0.2172 -0.35194 -0.57 -0.3 -1.27 0.28 -0.76 0.79 0.0593 0.06224 0.1311 0.11125 0.2107 0.1438 0.0795 0.03255 0.1651 0.04791 0.251 0.04508 0.0859 -0.00284 0.1703 -0.0238 0.2475 -0.06152 0.0773 -0.03772 0.1457 -0.09134 0.2008 -0.15736Z" fill="#000000" stroke-width="1"></path>
      <path id="Vector_7" fill-rule="evenodd" clip-rule="evenodd" d="M18.7508 17.7532c0.0478 -0.3223 0.0082 -0.6515 -0.1147 -0.9532 -0.1229 -0.3018 -0.3247 -0.565 -0.5841 -0.7621 -0.2594 -0.1971 -0.567 -0.321 -0.8907 -0.3585 -0.3236 -0.0376 -0.6514 0.0124 -0.9491 0.1448 -0.8959 0.4283 -1.7029 1.0217 -2.3788 1.7491 -0.4198 0.3398 -1.839 1.4293 -1.839 1.4293 -0.7775 -0.0066 -1.5458 -0.1697 -2.25883 -0.4798 0 -0.0899 0.05997 -0.1799 0.16991 -0.3298 1.17942 -1.6292 2.69862 -2.2088 1.62912 -3.858 -0.1705 -0.2328 -0.4098 -0.4062 -0.6842 -0.4959 -0.2743 -0.0896 -0.5698 -0.091 -0.845 -0.0038 -1.75904 0.3298 -3.46814 2.0789 -5.12727 2.7185 -0.06996 0 -0.14992 0.0001 -0.16991 0.05 -0.27985 -1.879 -1.99895 -1.3892 -2.72857 -1.3992 -0.72961 -0.01 -2.178849 -0.11 -1.908991 0.5497 0.030889 0.0725 0.089118 0.13 0.162077 0.1599 0.072958 0.03 0.154771 0.0299 0.227718 0 0.48471 -0.0513 0.974586 -0.0209 1.449236 0.0899 2.07891 0.2299 1.82904 -0.9395 1.69911 6.2567 0 0.6697 0 0.8496 -1.10942 0.9396 -0.63771 0.0399 -1.27787 0.0097 -1.908995 -0.09 -0.043969 -0.0085 -0.089189 -0.0083 -0.133076 0.0006 -0.043888 0.009 -0.085584 0.0265 -0.122708 0.0515 -0.037124 0.0251 -0.068948 0.0572 -0.093657 0.0946 -0.024708 0.0373 -0.041817 0.0792 -0.050348 0.1232 -0.008532 0.0439 -0.008319 0.0891 0.000625 0.133 0.008945 0.0439 0.026446 0.0856 0.051505 0.1227 0.025058 0.0372 0.057184 0.069 0.094542 0.0937 0.037357 0.0247 0.079216 0.0418 0.123186 0.0503 0.679656 0.148 1.373346 0.2217 2.068916 0.2199 0.99947 0 1.62914 -0.1499 1.99894 -0.9994l2.23883 -0.4898c3.53816 0.9095 8.38556 1.0994 11.49396 -0.8795 1.1794 -0.7596 2.4987 -1.7191 1.849 -2.9984 -0.1215 -0.2592 -0.3134 -0.479 -0.5537 -0.6345 -0.2403 -0.1554 -0.5194 -0.2404 -0.8056 -0.2451Zm-4.3377 0.6497c0.9995 -0.6197 2.2388 -1.929 2.9984 -1.6292 0.2122 0.0713 0.3898 0.2199 0.4972 0.4163 0.1075 0.1964 0.1369 0.426 0.0825 0.6432 -1.849 0.3998 -2.7285 0.7896 -4.3877 0.9995 0.2799 -0.14 0.5897 -0.2999 0.8096 -0.4298Zm3.1883 2.3288c-3.9979 2.7485 -10.7643 1.0594 -10.99418 1.0994 -2.19884 0.5397 -1.99895 0.5597 -1.99895 0.4697 0.28985 -2.7085 0 -4.9973 0.09995 -4.9973 1.06495 -0.3741 2.07376 -0.8919 2.99842 -1.5392 0.58969 -0.3898 2.61866 -1.5492 2.99846 -0.9395 0.6296 0.9994 -0.5098 1.2493 -1.67915 2.7585 -0.59969 0.7796 -0.45976 1.3093 -0.09995 1.6791 0.53313 0.3742 1.1453 0.6204 1.7891 0.7196 2.2788 0.5697 6.2067 -0.7296 6.8763 -0.8695 0.6697 -0.1399 1.1195 -0.4498 1.4093 0.1 0.2898 0.5497 -0.9595 1.2193 -1.3993 1.5192Z" fill="#000000" stroke-width="1"></path>
    </g>
  </g>
</svg>