<svg xmlns="http://www.w3.org/2000/svg" viewBox="0 0 14 14">
  <g>
    <path d="M10.766,9.2a.25.25,0,0,1-.181-.21A3.417,3.417,0,0,0,4,8.214a.25.25,0,0,1-.193.159A2.833,2.833,0,0,0,4.277,14h5.834a2.445,2.445,0,0,0,.655-4.8Z" style="fill: #000001"/>
    <path d="M9.389,5a.745.745,0,0,1-.307-.066,5.233,5.233,0,0,0-4.164,0,.75.75,0,0,1-.613-1.369,6.855,6.855,0,0,1,5.39,0A.75.75,0,0,1,9.389,5Z" style="fill: #000001"/>
    <path d="M11.75,3a.741.741,0,0,1-.479-.174A7.2,7.2,0,0,0,7,1.5,7.187,7.187,0,0,0,2.729,2.827a.75.75,0,0,1-.961-1.151A8.553,8.553,0,0,1,7,0a8.553,8.553,0,0,1,5.232,1.676A.75.75,0,0,1,11.75,3Z" style="fill: #000001"/>
  </g>
</svg>
