<svg xmlns="http://www.w3.org/2000/svg" viewBox="0 0 14 14">
  <g>
    <path d="M8.237,9.677a.252.252,0,0,1,0-.354L9.78,7.78A.75.75,0,0,0,8.72,6.72L7.177,8.263a.252.252,0,0,1-.354,0L5.28,6.72A.75.75,0,0,0,4.22,7.78L5.763,9.323a.252.252,0,0,1,0,.354L4.22,11.22a.75.75,0,1,0,1.06,1.06l1.543-1.543a.252.252,0,0,1,.354,0L8.72,12.28a.75.75,0,0,0,1.06-1.06Z" style="fill: #000001"/>
    <path d="M11.831,3.839a.251.251,0,0,1-.154-.183,4.536,4.536,0,0,0-8.589-.974.254.254,0,0,1-.166.139,3.9,3.9,0,0,0-.1,7.522.25.25,0,0,0,.251-.069c.142-.152.4-.42.573-.6a.25.25,0,0,0,0-.351l-.39-.39a.249.249,0,0,0-.1-.061A2.4,2.4,0,0,1,3.66,4.21a.751.751,0,0,0,.651-.53,3.04,3.04,0,0,1,5.954.743.748.748,0,0,0,.625.7,1.949,1.949,0,0,1-.11,3.854.244.244,0,0,0-.15.072l-.274.274a.249.249,0,0,0,0,.35c.189.2.487.506.638.67a.247.247,0,0,0,.232.077,3.448,3.448,0,0,0,.608-6.584Z" style="fill: #000001"/>
  </g>
</svg>
