<svg xmlns="http://www.w3.org/2000/svg" fill="none" viewBox="0 0 24 24" id="Cellular-Network-Lte--Streamline-Ultimate">
  <desc>
    Cellular Network Lte Streamline Icon: https://streamlinehq.com
  </desc>
  <path stroke="#000000" stroke-linecap="round" stroke-linejoin="round" d="m5.363 4.5 3 -3 3 3" stroke-width="1.5"></path>
  <path stroke="#000000" stroke-linecap="round" stroke-linejoin="round" d="M8.363 1.5v9.75" stroke-width="1.5"></path>
  <path stroke="#000000" stroke-linecap="round" stroke-linejoin="round" d="m18.863 8.25 -3 3 -3 -3" stroke-width="1.5"></path>
  <path stroke="#000000" stroke-linecap="round" stroke-linejoin="round" d="M15.863 11.25V1.5" stroke-width="1.5"></path>
  <path stroke="#000000" stroke-linecap="round" stroke-linejoin="round" d="M11.363 22.5V15" stroke-width="1.5"></path>
  <path stroke="#000000" stroke-linecap="round" stroke-linejoin="round" d="M9.863 15h3" stroke-width="1.5"></path>
  <path stroke="#000000" stroke-linecap="round" stroke-linejoin="round" d="M5.363 15v6c0 0.3978 0.15803 0.7794 0.43934 1.0607 0.2813 0.2813 0.66283 0.4393 1.06066 0.4393h1.5" stroke-width="1.5"></path>
  <path stroke="#000000" stroke-linecap="round" stroke-linejoin="round" d="M18.863 22.5h-1.5c-0.3978 0 -0.7794 -0.158 -1.0607 -0.4393S15.863 21.3978 15.863 21v-4.5c0 -0.3978 0.158 -0.7794 0.4393 -1.0607S16.9652 15 17.363 15h1.5" stroke-width="1.5"></path>
  <path stroke="#000000" stroke-linecap="round" stroke-linejoin="round" d="M15.863 19.5h3" stroke-width="1.5"></path>
</svg>