<svg xmlns="http://www.w3.org/2000/svg" fill="none" viewBox="0 0 14 14" id="Incoming-Call--Streamline-Flex">
  <desc>
    Incoming Call Streamline Icon: https://streamlinehq.com
  </desc>
  <g id="incoming-call--android-phone-mobile-device-smartphone-iphone-ringing-incoming-call">
    <path id="Intersect" fill="#79ee8d" d="M9.95907 3.80416c0.74703 -0.6509 1.84103 -0.53421 2.42953 0.26294 0.0881 0.11935 0.1942 0.2589 0.3318 0.43094 0.8726 1.09155 0.8726 2.67208 -0.0049 3.75976 -0.6477 0.80294 -1.3268 1.61315 -2.086 2.3724 -0.75924 0.7592 -1.56945 1.4383 -2.3724 2.086 -1.08768 0.8775 -2.66821 0.8775 -3.75976 0.0049 -0.19336 -0.1546 -0.34518 -0.269 -0.47324 -0.3626 -0.77261 -0.5644 -0.90362 -1.6215 -0.27791 -2.3453 0.28485 -0.32954 0.58678 -0.64907 0.88452 -0.96254 0.41124 -0.43297 1.11719 -0.48115 1.56771 -0.08921 0.07908 0.0688 0.17961 0.15968 0.31866 0.29004 1.24858 -0.74193 2.0053 -1.50789 2.73371 -2.73371 -0.13271 -0.14156 -0.22465 -0.24333 -0.29406 -0.32323 -0.39115 -0.45029 -0.3433 -1.15412 0.09246 -1.5614 0.29817 -0.27867 0.60049 -0.55942 0.90988 -0.82899Z" stroke-width="1"></path>
    <path id="Union" fill="#0c098c" fill-rule="evenodd" d="M0.182679 1.06743c-0.2440775 -0.244078 -0.2440775 -0.639806 0 -0.883884 0.244078 -0.2440772 0.639806 -0.2440771 0.883881 0.000001L3.10915 2.22613 4.77176 0.56352c0.15316 -0.153167 0.37472 -0.216106 0.58553 -0.166339 0.21082 0.049767 0.38084 0.205143 0.44934 0.410638 0.45853 1.375601 0.46357 3.173051 0.01508 4.557961 -0.02633 0.10697 -0.08129 0.20834 -0.16488 0.29192 -0.08441 0.08442 -0.18696 0.13964 -0.29511 0.16566 -1.38436 0.44726 -3.17991 0.44184 -4.554332 -0.0163 -0.205496 -0.0685 -0.360872 -0.23852 -0.410639 -0.44933 -0.049766 -0.21082 0.013173 -0.43237 0.166339 -0.58554L2.22526 3.11001 0.182679 1.06743ZM12.8915 3.6959c-0.8066 -1.09259 -2.3223 -1.25228 -3.34296 -0.36297 -0.31844 0.27746 -0.62782 0.56485 -0.92607 0.84361 -0.66776 0.6241 -0.75536 1.69798 -0.15205 2.41094 -0.52196 0.79128 -1.08034 1.35337 -1.88375 1.88361 -0.71411 -0.60048 -1.7841 -0.50885 -2.40908 0.14915 -0.29712 0.31281 -0.60853 0.64218 -0.90419 0.98422 -0.86949 1.00584 -0.6795 2.48324 0.38207 3.25874 0.12134 0.0886 0.26592 0.1976 0.45165 0.346 1.31947 1.0549 3.22549 1.0559 4.54245 -0.0065 0.80764 -0.6515 1.63863 -1.3474 2.42183 -2.1306 0.7833 -0.7832 1.4791 -1.61425 2.1306 -2.42188 1.0624 -1.31696 1.0614 -3.22298 0.0066 -4.54245 -0.1323 -0.16546 -0.2335 -0.29863 -0.3171 -0.41187Zm-2.5218 0.57948c0.4734 -0.41249 1.1457 -0.3388 1.5161 0.16291 0.0926 0.12548 0.2036 0.2714 0.3464 0.45001 0.6904 0.86364 0.6894 2.11868 -0.0031 2.97708 -0.6439 0.79825 -1.3064 1.58767 -2.0415 2.32282 -0.7352 0.7352 -1.52462 1.3976 -2.32287 2.0416 -0.8584 0.6925 -2.11344 0.6935 -2.97708 0.0031 -0.20099 -0.1607 -0.36005 -0.2806 -0.49483 -0.3791 -0.48364 -0.3533 -0.55567 -0.9901 -0.17375 -1.4319 0.27403 -0.317 0.5665 -0.6267 0.86485 -0.94081 0.19106 -0.20115 0.51726 -0.21085 0.70433 -0.04811 0.07148 0.06219 0.16601 0.14753 0.30141 0.27447 0.20304 0.19035 0.50748 0.22351 0.74674 0.08134 1.3393 -0.79584 2.17059 -1.63716 2.95173 -2.95174 0.14218 -0.23926 0.10902 -0.5437 -0.08133 -0.74674 -0.12925 -0.13786 -0.21553 -0.23351 -0.27818 -0.30564 -0.16312 -0.18778 -0.15107 -0.50943 0.04738 -0.6949 0.29808 -0.2786 0.5933 -0.5527 0.8937 -0.81439Z" clip-rule="evenodd" stroke-width="1"></path>
  </g>
</svg>