<svg xmlns="http://www.w3.org/2000/svg" fill="none" viewBox="0 0 14 14" id="Iphone--Streamline-Flex">
  <desc>
    Iphone Streamline Icon: https://streamlinehq.com
  </desc>
  <g id="iphone--android-phone-mobile-device-smartphone-iphone">
    <path id="Intersect" fill="#ff7972" d="M2.53436 11.0152c0.09442 1.1983 0.96118 2.1793 2.08022 2.2658 1.62502 0.1256 3.14582 0.1256 4.77084 0 1.11908 -0.0865 1.98578 -1.0675 2.08018 -2.2658 0.2125 -2.69686 0.2125 -5.33305 0 -8.02988 -0.0944 -1.1983 -0.9611 -2.179356 -2.08018 -2.265861 -1.62502 -0.12562 -3.14582 -0.12562 -4.77084 0C3.49554 0.805964 2.62878 1.78702 2.53436 2.98532c-0.21248 2.69683 -0.21248 5.33302 0 8.02988Z" stroke-width="1"></path>
    <path id="Union" fill="#0c098c" fill-rule="evenodd" d="M4.05482 1.53242c-0.48179 0.27492 -0.84374 0.82111 -0.89739 1.502 -0.20991 2.66414 -0.20991 5.26751 0 7.93168 0.0746 0.9467 0.74525 1.633 1.50532 1.6918 1.59296 0.1231 3.08154 0.1231 4.6745 0 0.76005 -0.0588 1.43075 -0.7451 1.50535 -1.6918 0.2099 -2.66417 0.2099 -5.26754 0 -7.93168 -0.0537 -0.68117 -0.4159 -1.22753 -0.89801 -1.50233 -0.02929 0.22204 -0.05671 0.44237 -0.07538 0.61947 -0.06601 0.6262 -0.68226 1.06363 -1.37998 1.10511 -1.01095 0.06011 -1.96814 0.06011 -2.97909 0 -0.69772 -0.04148 -1.31397 -0.47891 -1.37998 -1.10511 -0.01866 -0.17702 -0.04606 -0.39721 -0.07534 -0.61914ZM9.43359 0.0963178c-1.65709 -0.1280982 -3.21009 -0.1280982 -4.86718 -2e-7C3.08839 0.210572 2.02553 1.48636 1.91129 2.93623c-0.21506 2.7295 -0.21505 5.39853 0.00001 8.12807 0.11423 1.4498 1.1771 2.7256 2.65511 2.8399 1.65709 0.1281 3.21009 0.1281 4.86718 0 1.47801 -0.1143 2.54091 -1.3901 2.65511 -2.8399 0.2151 -2.72954 0.2151 -5.39857 0 -8.12807C11.9745 1.48636 10.9116 0.210573 9.43359 0.0963178Z" clip-rule="evenodd" stroke-width="1"></path>
  </g>
</svg>