<svg xmlns="http://www.w3.org/2000/svg" fill="none" viewBox="0 0 14 14" id="Missed-Call--Streamline-Flex">
  <desc>
    Missed Call Streamline Icon: https://streamlinehq.com
  </desc>
  <g id="missed-call--android-phone-mobile-device-smartphone-iphone-missed-call">
    <path id="Intersect" fill="#79ee8d" d="M9.95858 3.80489c0.74702 -0.6509 1.84102 -0.53421 2.42952 0.26294 0.0881 0.11935 0.1942 0.25891 0.3318 0.43094 0.8726 1.09155 0.8726 2.67208 -0.0048 3.75976 -0.6478 0.80295 -1.3269 1.61315 -2.0861 2.37237 -0.75923 0.7592 -1.56944 1.4383 -2.37239 2.0861 -1.08768 0.8774 -2.66821 0.8774 -3.75976 0.0048 -0.19336 -0.1546 -0.34518 -0.269 -0.47324 -0.3625 -0.7726 -0.5644 -0.90362 -1.6215 -0.27791 -2.3454 0.28485 -0.32951 0.58679 -0.64904 0.88452 -0.96251 0.41124 -0.43297 1.11719 -0.48115 1.56771 -0.08921 0.07908 0.0688 0.17962 0.15969 0.31866 0.29004C7.76517 8.51029 8.5219 7.74433 9.2503 6.51851c-0.13271 -0.14156 -0.22465 -0.24333 -0.29405 -0.32323 -0.39116 -0.45029 -0.34331 -1.15412 0.09245 -1.5614 0.29817 -0.27867 0.60049 -0.55942 0.90988 -0.82899Z" stroke-width="1"></path>
    <path id="Union" fill="#0c098c" fill-rule="evenodd" d="M5.76575 3.11348 4.28022 4.59894l-0.00001 0.00001c-0.68388 0.68388 -1.79267 0.68387 -2.47655 -0.00001L0.182616 2.97788c-0.2440765 -0.24407 -0.2440755 -0.6398 0.000003 -0.88388 0.244079 -0.24408 0.639807 -0.24408 0.883881 0l1.62104 1.62106c0.19573 0.19573 0.51307 0.19573 0.7088 0l0.00001 -0.00001 1.48552 -1.48546 -0.95316 -0.95315c-0.15317 -0.15317 -0.2161 -0.374724 -0.16634 -0.585541 0.04977 -0.210816 0.20515 -0.380833 0.41064 -0.449331 0.9566 -0.3188662 2.19742 -0.3217351 3.15911 -0.00863 0.09924 0.028115 0.1929 0.081234 0.27102 0.159358 0.07941 0.079413 0.13298 0.174879 0.16072 0.275952 0.31142 0.960992 0.30798 2.199022 -0.01031 3.153862 -0.06849 0.2055 -0.23851 0.36087 -0.44933 0.41064 -0.21081 0.04977 -0.43237 -0.01317 -0.58553 -0.16634l-0.95294 -0.95293Zm7.12525 0.58316c-0.8066 -1.0926 -2.3223 -1.25229 -3.34295 -0.36297 -0.31844 0.27745 -0.62781 0.56485 -0.92607 0.8436 -0.66776 0.62411 -0.75536 1.69798 -0.15204 2.41094 -0.52197 0.79128 -1.08035 1.35337 -1.88376 1.88361 -0.71411 -0.60048 -1.7841 -0.50885 -2.40908 0.14915 -0.29712 0.31281 -0.60852 0.64219 -0.90419 0.98422 -0.86949 1.00591 -0.67949 2.48331 0.38207 3.25871 0.12134 0.0887 0.26592 0.1976 0.45166 0.3461 1.31946 1.0548 3.22548 1.0558 4.54244 -0.0066 0.80764 -0.6515 1.63862 -1.3473 2.42192 -2.1306 0.7832 -0.7832 1.479 -1.61421 2.1305 -2.42185 1.0624 -1.31696 1.0614 -3.22298 0.0066 -4.54245 -0.1323 -0.16546 -0.2335 -0.29863 -0.3171 -0.41186Zm-2.5218 0.57947c0.4734 -0.41249 1.1457 -0.3388 1.5161 0.16292 0.0926 0.12547 0.2037 0.2714 0.3464 0.45 0.6905 0.86364 0.6894 2.11868 -0.003 2.97708 -0.644 0.79825 -1.3065 1.58767 -2.0416 2.32279 -0.73519 0.7352 -1.5246 1.3977 -2.32286 2.0416 -0.8584 0.6925 -2.11344 0.6935 -2.97708 0.0031 -0.20099 -0.1607 -0.36005 -0.2806 -0.49483 -0.379 -0.48364 -0.3533 -0.55567 -0.9901 -0.17375 -1.432 0.27403 -0.317 0.5665 -0.62667 0.86485 -0.94078 0.19106 -0.20115 0.51726 -0.21084 0.70433 -0.0481 0.07148 0.06218 0.16602 0.14753 0.30141 0.27446 0.20304 0.19035 0.50748 0.22351 0.74674 0.08134 1.3393 -0.79584 2.17059 -1.63716 2.95174 -2.95174 0.14217 -0.23926 0.10901 -0.5437 -0.08134 -0.74674 -0.12925 -0.13785 -0.21552 -0.23351 -0.27818 -0.30564 -0.16312 -0.18777 -0.15107 -0.50942 0.04738 -0.6949 0.29809 -0.2786 0.59339 -0.55269 0.89369 -0.81439Z" clip-rule="evenodd" stroke-width="1"></path>
  </g>
</svg>