<svg xmlns="http://www.w3.org/2000/svg" fill="none" viewBox="0 -0.5 41 41" id="Airport-Railroad--Streamline-Stickies">
  <desc>
    Airport Railroad Streamline Icon: https://streamlinehq.com
  </desc>
  <path fill="#ffe236" stroke="#231f20" stroke-miterlimit="10" d="M33.54 1.48999c-1.7755 0.62879 -3.509 1.3703 -5.19 2.22 -3.35 -2.709997 -6.11 -2.44 -7.5 -1.26 -1.39 1.18 -2.13 3.9 0 7.61001 -1.1046 1.5218 -2.1068 3.1153 -3 4.77 -0.3289 0.5991 -0.4713 1.2829 -0.4089 1.9635 0.0623 0.6806 0.3266 1.3271 0.7589 1.8565 0.4948 0.5079 1.1581 0.8176 1.8652 0.871 0.7071 0.0534 1.4093 -0.1532 1.9748 -0.581 1.4592 -0.842 2.8472 -1.8018 4.15 -2.87 1.3671 1.1943 2.8398 2.262 4.4 3.19 -0.247 0.4344 -0.4706 0.8817 -0.67 1.34 -0.1247 0.3509 -0.1533 0.7287 -0.083 1.0944 0.0703 0.3657 0.2371 0.706 0.483 0.9856 0.2349 0.2889 0.5638 0.4862 0.9293 0.5575 0.3655 0.0713 0.7444 0.012 1.0707 -0.1675 1.3369 -0.7717 2.5903 -1.6799 3.74 -2.71 1.1964 -0.9708 2.2919 -2.0596 3.27 -3.25 0.2206 -0.2898 0.335 -0.6466 0.324 -1.0106 -0.0109 -0.3641 -0.1464 -0.7133 -0.384 -0.9894 -0.2308 -0.2977 -0.541 -0.5241 -0.8948 -0.6533 -0.3538 -0.1291 -0.7369 -0.1557 -1.1052 -0.0767 -0.4844 0.1203 -0.9618 0.2672 -1.43 0.44 -0.6655 -1.6887 -1.4857 -3.3123 -2.45 -4.85001 1.2691 -1.11368 2.4432 -2.33123 3.51 -3.64 0.5097 -0.49044 0.8233 -1.14976 0.8822 -1.85465 0.0589 -0.7049 -0.1409 -1.40712 -0.5622 -1.97535 -0.4444 -0.51387 -1.0314 -0.8842 -1.6866 -1.06401 -0.6551 -0.17982 -1.3489 -0.16102 -1.9934 0.05401Z" stroke-width="1"></path>
  <path fill="#ffffff" stroke="#231f20" stroke-linecap="round" stroke-linejoin="round" d="M23 8.35998s-1.91 -2.24 -0.23 -3.67c1.68 -1.43 3.59 0.81 3.59 0.81l-3.36 2.86Z" stroke-width="1"></path>
  <path stroke="#231f20" stroke-linecap="round" stroke-miterlimit="10" d="m32.76 16.44 1.9 2.24" stroke-width="1"></path>
  <path stroke="#ffffff" stroke-linecap="round" stroke-miterlimit="10" d="M31.86 4.16998c0.423 -0.29523 0.9032 -0.49849 1.4096 -0.59667 0.5064 -0.09817 1.0277 -0.08909 1.5304 0.02667" stroke-width="1"></path>
  <path fill="#48eeff" stroke="#231f20" stroke-miterlimit="10" d="M26.49 18.9c-1.07 -0.71 -6 -1 -10.33 -1.08C8.21 17.61 1.63 25.4 1.5 30.17c-0.13046 1.2395 0.17025 2.4861 0.85148 3.5298C3.03271 34.7435 4.05282 35.5205 5.24 35.9c0.81887 0.2421 1.6596 0.4028 2.51 0.48 0.08905 0.5193 0.34789 0.9943 0.73593 1.3507 0.38805 0.3563 0.88337 0.5739 1.40832 0.6185 0.52495 0.0446 1.04985 -0.0863 1.49245 -0.372 0.4426 -0.2858 0.7779 -0.7104 0.9533 -1.2072h0.26c0.1389 0.4794 0.4257 0.9026 0.8193 1.2094 0.3936 0.3069 0.874 0.4816 1.3728 0.4993 0.4987 0.0177 0.9904 -0.1224 1.4048 -0.4005 0.4144 -0.2781 0.7305 -0.6799 0.9031 -1.1482h3.46c0.1463 0.5191 0.4653 0.9728 0.9042 1.2861 0.439 0.3133 0.9716 0.4676 1.5101 0.4373 0.5385 -0.0303 1.0505 -0.2434 1.4515 -0.604s0.6671 -0.8472 0.7542 -1.3794c0.3192 -0.0401 0.6298 -0.1312 0.92 -0.27 1.82 -1.07 2.44 -5.06 2.53 -8.28 0.09 -3.22 -0.38 -8.06 -2.14 -9.22Z" stroke-width="1"></path>
  <path fill="#ffffff" stroke="#231f20" stroke-miterlimit="10" d="M9.48999 27.2C11.08 27.2 11.1 26.61 11.95 24.72c0.6 -1.34 1.69 -3.78 0.1 -3.82l-4.72001 -0.13c-1.59 0 -4.91 3.05 -5 5 0 1.28 1 1.3 5.53 1.43h1.63Z" stroke-width="1"></path>
  <path fill="#ffffff" stroke="#231f20" stroke-miterlimit="10" d="M24.6 27.36c0.74 -0.26 0.91 -1.68 0.94 -2.76 0.03 -1.08 -0.07 -2.51 -0.79 -2.8 -1.2463 -0.4527 -2.5642 -0.6763 -3.89 -0.66 -1.1058 -0.0978 -2.2202 0.0038 -3.29 0.3 -1 0.54 -3.19 4.63 -2.14 5.45 0.82 0.66 3.65 0.57 5.25 0.61 1.6 0.04 3.55 0.13 3.92 -0.14Z" stroke-width="1"></path>
  <path stroke="#231f20" stroke-linecap="round" stroke-miterlimit="10" d="M8.56 34.26s2.65 0.15 8 0.29c5.35 0.14 8 0.13 8 0.13" stroke-width="1"></path>
  <path stroke="#231f20" stroke-linecap="round" stroke-miterlimit="10" d="M5.55999 33.13c0.17797 -0.8208 0.09763 -1.6766 -0.23 -2.45 -0.25102 -0.7942 -0.73967 -1.4923 -1.4 -2" stroke-width="1"></path>
  <path stroke="#ffffff" stroke-linecap="round" stroke-miterlimit="10" d="M22.46 19.54c1.0418 -0.0321 2.0803 0.1342 3.06 0.49" stroke-width="1"></path>
  <path fill="#ff52a1" stroke="#231f20" stroke-miterlimit="10" d="M5 14.42c0.24 -4 2.75 -7.41003 7.3 -9.57003 -0.2674 -0.0878 -0.5227 -0.20874 -0.76 -0.36 -0.1538 -0.10979 -0.266 -0.2682 -0.3186 -0.44965 -0.0526 -0.18145 -0.0426 -0.37534 0.0286 -0.55035 0.09 -0.32 0.4 -0.7 0.78 -0.67 0.6802 0.05923 1.3513 0.19681 2 0.41 1.78 0.53 1.84 0.66 2 0.81 0.1472 0.13987 0.2484 0.32124 0.29 0.52 0 0.2 0.12 0.33 -0.41 2.1 -0.1815 0.6536 -0.4295 1.2869 -0.74 1.89 -0.1128 0.15019 -0.2708 0.26033 -0.4507 0.31431 -0.1799 0.05398 -0.3724 0.04897 -0.5493 -0.01431 -0.1802 -0.04529 -0.3416 -0.14582 -0.4618 -0.28749 -0.1201 -0.14167 -0.1929 -0.31738 -0.2082 -0.50251 0.0143 -0.28307 0.0545 -0.56424 0.12 -0.84l-0.1 0.06C9.86 8.99997 7.9 11.47 7.68 14.52c-0.0759 0.3053 -0.25456 0.5752 -0.50598 0.7643 -0.25141 0.1891 -0.56025 0.2859 -0.87464 0.2742 -0.31438 -0.0117 -0.61515 -0.1313 -0.85177 -0.3386 -0.23662 -0.2074 -0.39467 -0.4898 -0.44761 -0.7999Z" stroke-width="1"></path>
  <path fill="#ff52a1" stroke="#231f20" stroke-miterlimit="10" d="M30.95 33.13c0 0.4217 0.1675 0.8261 0.4657 1.1243 0.2982 0.2982 0.7026 0.4657 1.1243 0.4657 0.4217 0 0.8261 -0.1675 1.1243 -0.4657 0.2982 -0.2982 0.4657 -0.7026 0.4657 -1.1243 0 -0.4217 -0.1675 -0.8261 -0.4657 -1.1243 -0.2982 -0.2982 -0.7026 -0.4657 -1.1243 -0.4657 -0.4217 0 -0.8261 0.1675 -1.1243 0.4657 -0.2982 0.2982 -0.4657 0.7026 -0.4657 1.1243Z" stroke-width="1"></path>
  <path fill="#ff52a1" stroke="#231f20" stroke-miterlimit="10" d="M36.52 29.95c0 0.4217 0.1675 0.8261 0.4657 1.1243 0.2982 0.2982 0.7026 0.4657 1.1243 0.4657 0.4217 0 0.8261 -0.1675 1.1243 -0.4657 0.2982 -0.2982 0.4657 -0.7026 0.4657 -1.1243 0 -0.4217 -0.1675 -0.8261 -0.4657 -1.1243 -0.2982 -0.2982 -0.7026 -0.4657 -1.1243 -0.4657 -0.4217 0 -0.8261 0.1675 -1.1243 0.4657 -0.2982 0.2982 -0.4657 0.7026 -0.4657 1.1243Z" stroke-width="1"></path>
  <path fill="#ff52a1" stroke="#231f20" stroke-miterlimit="10" d="M37.32 23.58c0 0.4217 0.1675 0.8261 0.4657 1.1243 0.2982 0.2982 0.7026 0.4657 1.1243 0.4657 0.4217 0 0.8261 -0.1675 1.1243 -0.4657 0.2982 -0.2982 0.4657 -0.7026 0.4657 -1.1243 0 -0.4217 -0.1675 -0.8261 -0.4657 -1.1243 -0.2982 -0.2982 -0.7026 -0.4657 -1.1243 -0.4657 -0.4217 0 -0.8261 0.1675 -1.1243 0.4657 -0.2982 0.2982 -0.4657 0.7026 -0.4657 1.1243Z" stroke-width="1"></path>
</svg>