<svg xmlns="http://www.w3.org/2000/svg" fill="none" viewBox="0 0 40 40" id="Eiffel-Tower--Streamline-Stickies">
  <desc>
    Eiffel Tower Streamline Icon: https://streamlinehq.com
  </desc>
  <path fill="#48eeff" stroke="#231f20" stroke-miterlimit="10" d="M34.65 32.12c-0.4 -0.81 -0.79 -1.58 -1.17 -2.32v-1.07c0 -2.18 -0.38 -5.08 -2.45 -5.64 -0.3288 -0.151 -0.6746 -0.2618 -1.03 -0.33 -2.0672 -4.3864 -3.4177 -9.076 -4 -13.89001 0.2928 -0.2725 0.5177 -0.60984 0.6567 -0.98494 0.1389 -0.37511 0.188 -0.77756 0.1433 -1.17506 0 -0.91 -0.2 -2.12 -1.23 -2.35 -0.741 -0.2035 -1.5024 -0.32424 -2.27 -0.36 0.0497 -0.89799 -0.1438 -1.79274 -0.56 -2.59C21.9747 0.770891 20.9956 0.445704 20 0.499989c-1.14 0 -2.52 0.47 -2.78 0.940001 -0.4147 0.78798 -0.618 1.67001 -0.59 2.56 -0.7464 0.03016 -1.4874 0.1408 -2.21 0.33 -1 0.23 -1.23 1.44 -1.23 2.35 -0.05 0.40471 -0.0025 0.8155 0.1384 1.19817 0.1409 0.38267 0.3711 0.72614 0.6716 1.00183 -0.5865 4.81851 -1.9616 9.50771 -4.07 13.88001 -0.36531 0.067 -0.72122 0.1778 -1.06 0.33 -2.07 0.56 -2.45 3.46 -2.45 5.64v1.07c-0.38 0.74 -0.76 1.51 -1.17 2.32 -3.09 6.18 -4.35 7.22 5 7.38 0.492 0.0077 0.973 -0.1454 1.3701 -0.4359 0.3971 -0.2906 0.6884 -0.7028 0.8299 -1.1741 0.5037 -1.7132 1.3738 -3.2964 2.55 -4.64 0.61 -0.55 2.61 -0.74 4.94 -0.74 2.33 0 4.33 0.19 4.94 0.74 1.184 1.3353 2.0642 2.9115 2.58 4.62 0.14 0.4721 0.431 0.8853 0.8284 1.1761 0.3974 0.2908 0.8792 0.4433 1.3716 0.4339 9.63 -0.21 8.01 -1.33 4.99 -7.36Z" stroke-width="1"></path>
  <path stroke="#231f20" stroke-linecap="round" stroke-miterlimit="10" d="M25.62 22.19c-1.8686 -0.1643 -3.7446 -0.2277 -5.62 -0.19 -1.8861 -0.025 -3.7722 0.0517 -5.65 0.23" stroke-width="1"></path>
  <path stroke="#231f20" stroke-linecap="round" stroke-miterlimit="10" d="M13.29 25.34s-0.09 0.8 -0.09 2.38c0 1.58 0.09 2.38 0.09 2.38" stroke-width="1"></path>
  <path stroke="#231f20" stroke-linecap="round" stroke-miterlimit="10" d="M26.75 30.1c0.0773 -0.7909 0.1107 -1.5855 0.1 -2.38 0.0107 -0.7946 -0.0227 -1.5892 -0.1 -2.38" stroke-width="1"></path>
  <path stroke="#231f20" stroke-linecap="round" stroke-miterlimit="10" d="M23.36 8.56998s-1.13 -0.09 -3.36 -0.09 -3.39 0.09 -3.39 0.09" stroke-width="1"></path>
  <path stroke="#231f20" stroke-linecap="round" stroke-miterlimit="10" d="M19.97 25.34v4.52" stroke-width="1"></path>
  <path stroke="#231f20" stroke-linecap="round" stroke-miterlimit="10" d="m16.58 11.79 7.91 6.78" stroke-width="1"></path>
  <path stroke="#231f20" stroke-linecap="round" stroke-miterlimit="10" d="m23.36 11.79 -7.91 6.78" stroke-width="1"></path>
  <path stroke="#ffffff" stroke-linecap="round" stroke-miterlimit="10" d="M22.55 6c1.92 0.2 2 0.09 2.15 0.75" stroke-width="1"></path>
</svg>