<svg xmlns="http://www.w3.org/2000/svg" fill="none" viewBox="0 0 24 24"><path stroke="#000" d="M21.6 12.5C21.6 12.5 20 11.5 20 10.25C20 9.2835 20.7835 8.5 21.75 8.5M21.6 12.5H21.9M21.6 12.5L20.3728 14.5M21.75 8.5C22.7165 8.5 23.4957 9.2835 23.4957 10.25C23.4957 11.5 21.9 12.5 21.9 12.5M21.75 8.5V0.5H21.5C16.3726 2 11 7.37258 9.5 12.5M21.9 12.5L23.1228 14.5M0 19.5H7M7.5 14V6.50003L6.32784 6.50002C4.95796 6.50001 3.76207 7.42794 3.42182 8.75489L1.5 16.25V16.5H9.5V18C9.5 23.5 12 23.5 12 23.5M23.4956 18.25C23.4956 18.25 21.0323 16.5625 17.7478 18.25C14.4633 19.9375 12 18.25 12 18.25M23.4956 20.75C23.4956 20.75 21.0323 19.0625 17.7478 20.75C14.4633 22.4375 12 20.75 12 20.75M7.35 4.5C7.35 4.5 5.75 3.5 5.75 2.25C5.75 1.2835 6.5335 0.5 7.5 0.5C8.4665 0.5 9.24568 1.2835 9.24568 2.25C9.24568 3.5 7.65 4.5 7.65 4.5H7.35Z"></path></svg>