<svg xmlns="http://www.w3.org/2000/svg" fill="none" viewBox="0 0 14 14" id="Dice-6--Streamline-Core-Neon">
  <desc>
    Dice 6 Streamline Icon: https://streamlinehq.com
  </desc>
  <g id="dice-6">
    <path id="Ellipse 1036" stroke="#000cfe" stroke-linecap="round" stroke-linejoin="round" d="M9 3.5a0.5 0.5 0 1 0 1 0 0.5 0.5 0 1 0 -1 0" stroke-width="1"></path>
    <path id="Ellipse 1037" stroke="#000cfe" stroke-linecap="round" stroke-linejoin="round" d="M4 3.5a0.5 0.5 0 1 0 1 0 0.5 0.5 0 1 0 -1 0" stroke-width="1"></path>
    <path id="Ellipse 1038" stroke="#000cfe" stroke-linecap="round" stroke-linejoin="round" d="M9 10.5a0.5 0.5 0 1 0 1 0 0.5 0.5 0 1 0 -1 0" stroke-width="1"></path>
    <path id="Ellipse 1041" stroke="#000cfe" stroke-linecap="round" stroke-linejoin="round" d="M9 7a0.5 0.5 0 1 0 1 0 0.5 0.5 0 1 0 -1 0" stroke-width="1"></path>
    <path id="Ellipse 1039" stroke="#000cfe" stroke-linecap="round" stroke-linejoin="round" d="M4 10.5a0.5 0.5 0 1 0 1 0 0.5 0.5 0 1 0 -1 0" stroke-width="1"></path>
    <path id="Ellipse 1040" stroke="#000cfe" stroke-linecap="round" stroke-linejoin="round" d="M4 7a0.5 0.5 0 1 0 1 0 0.5 0.5 0 1 0 -1 0" stroke-width="1"></path>
    <path id="Rectangle 569" stroke="#c71dff" stroke-linecap="round" stroke-linejoin="round" d="M3 1h8s2 0 2 2v8s0 2 -2 2H3s-2 0 -2 -2V3s0 -2 2 -2" stroke-width="1"></path>
  </g>
</svg>