<svg xmlns="http://www.w3.org/2000/svg" fill="none" viewBox="0 0 14 14" id="Fireworks-Rocket--Streamline-Core-Neon">
  <desc>
    Fireworks Rocket Streamline Icon: https://streamlinehq.com
  </desc>
  <g id="fireworks-rocket--hobby-entertainment-party-fireworks-rocket">
    <path id="Vector 1875" stroke="#000cfe" stroke-linecap="round" stroke-linejoin="round" d="M6.37891 7.62109 0.499977 13.5" stroke-width="1"></path>
    <path id="Rectangle 1681" stroke="#c71dff" stroke-linecap="round" stroke-linejoin="round" d="M8.70778 2.21338 11.798 5.30359l-2.99438 3.9372c-0.18337 0.24112 -0.53733 0.26508 -0.75153 0.05088L4.7197 5.95928c-0.2142 -0.2142 -0.19024 -0.56816 0.05088 -0.75154l3.9372 -2.99436Z" stroke-width="1"></path>
    <path id="Vector" stroke="#c71dff" stroke-linecap="round" stroke-linejoin="round" d="M8.28965 1.79538c-0.07637 -0.07593 -0.13513 -0.16674 -0.16996 -0.26269 -0.03483 -0.09595 -0.04441 -0.19341 -0.02772 -0.28191 0.01214 -0.09126 0.05038 -0.1713 0.11065 -0.23157 0.06028 -0.060272 0.14031 -0.098516 0.23158 -0.110649l4.3569 -0.406102c0.0843 -0.008584 0.1748 0.005388 0.263 0.040624 0.0882 0.035237 0.1714 0.090603 0.2417 0.160989 0.0704 0.070386 0.1258 0.153522 0.161 0.241738 0.0353 0.08821 0.0492 0.17867 0.0406 0.263l-0.3941 4.36887c-0.0121 0.09127 -0.0504 0.1713 -0.1106 0.23158 -0.0603 0.06027 -0.1403 0.09851 -0.2316 0.11065 -0.0861 0.01628 -0.1808 0.00767 -0.2744 -0.02495 -0.0936 -0.03263 -0.1827 -0.0881 -0.2582 -0.16076L8.28965 1.79538Z" stroke-width="1"></path>
    <path id="Vector 1878" stroke="#000cfe" stroke-linecap="round" stroke-linejoin="round" d="m8.40039 10.9758 -0.45127 0.4513" stroke-width="1"></path>
    <path id="Vector 1879" stroke="#000cfe" stroke-linecap="round" stroke-linejoin="round" d="m5.59961 13.5 0.45127 -0.4513" stroke-width="1"></path>
    <path id="Vector 1880" stroke="#000cfe" stroke-linecap="round" stroke-linejoin="round" d="m8.40039 13.5 -0.45127 -0.4513" stroke-width="1"></path>
    <path id="Ellipse 1799" stroke="#000cfe" stroke-linecap="round" d="M6.29327 11.4584c-1.03687 -0.5986 -1.39212 -1.92446 -0.79349 -2.96133" stroke-width="1"></path>
  </g>
</svg>