<svg xmlns="http://www.w3.org/2000/svg" fill="none" viewBox="0 0 14 14" id="One-Vesus-One--Streamline-Core-Neon">
  <desc>
    One Vesus One Streamline Icon: https://streamlinehq.com
  </desc>
  <g id="one-vesus-one--entertainment-gaming-one-vesus-one">
    <path id="Vector" stroke="#c71dff" stroke-linecap="round" stroke-linejoin="round" d="M5 5.5c1.38071 0 2.5 -1.11929 2.5 -2.5S6.38071 0.5 5 0.5 2.5 1.61929 2.5 3 3.61929 5.5 5 5.5Z" stroke-width="1"></path>
    <path id="Vector 778" stroke="#000cfe" stroke-linecap="round" stroke-linejoin="round" d="m11.2131 12.4629 0.0884 0.2654c0.1536 0.4608 0.5847 0.7716 1.0702 0.7716 0.6724 0 1.1955 -0.5846 1.1213 -1.253l-0.1743 -1.5686c-0.1167 -1.0504 -1.0042 -1.84505 -2.0608 -1.84505H8.7421c-1.05655 0 -1.94415 0.79465 -2.06083 1.84505l-0.17424 1.5686c-0.07425 0.6684 0.44885 1.253 1.12122 1.253 0.48558 0 0.91668 -0.3108 1.07023 -0.7716l0.08846 -0.2654c0.10319 -0.3097 0.39289 -0.5185 0.71921 -0.5185h0.98775c0.3263 0 0.616 0.2088 0.7192 0.5185Z" stroke-width="1"></path>
    <path id="Ellipse 1772" stroke="#c71dff" stroke-linecap="round" stroke-linejoin="round" d="M6.12097 7.64073C5.76261 7.54885 5.38701 7.5 5 7.5 2.51472 7.5 0.5 9.51472 0.5 12v0.5h3.9375" stroke-width="1"></path>
  </g>
</svg>