<svg xmlns="http://www.w3.org/2000/svg" fill="none" viewBox="0 0 14 14" id="Vr-Headset-1--Streamline-Core-Neon">
  <desc>
    Vr Headset 1 Streamline Icon: https://streamlinehq.com
  </desc>
  <g id="vr-headset-1--entertainment-gaming-vr-headset">
    <path id="Ellipse 9" stroke="#000cfe" stroke-linecap="round" stroke-linejoin="round" d="m5.60614 5.60718 -4.54364 0" stroke-width="1"></path>
    <path id="Ellipse 8" stroke="#c71dff" stroke-linecap="round" stroke-linejoin="round" d="M3.66075 13v-2.0024C2.07015 10.0713 1 8.34003 1 6.35714 1 3.39847 3.38252 1 6.3215 1c1.7784 0 3.36844 0.93212 4.3347 2.28125" stroke-width="1"></path>
    <path id="Ellipse 10" stroke="#c71dff" stroke-linecap="round" stroke-linejoin="round" d="M8.98193 13.0001v-1.7206h1.77387c0.4898 0 0.8869 -0.3971 0.8869 -0.8869V8.17529" stroke-width="1"></path>
    <path id="Rectangle 337" stroke="#000cfe" stroke-linecap="round" stroke-linejoin="round" d="M5.60693 5.60707c0 -1.28209 1.03937 -2.32143 2.3215 -2.32143H12c0.5523 0 1 0.44772 1 1V6.9285c0 0.55229 -0.4477 1 -1 1H7.92843c-1.28213 0 -2.3215 -1.03934 -2.3215 -2.32143Z" stroke-width="1"></path>
    <path id="Vector 775" stroke="#000cfe" stroke-linecap="round" stroke-linejoin="round" d="M9.32129 3.28564V7.9285" stroke-width="1"></path>
  </g>
</svg>