<svg xmlns="http://www.w3.org/2000/svg" fill="none" viewBox="0 0 14 14" id="Take-Off--Streamline-Core-Gradient">
  <desc>
    Take Off Streamline Icon: https://streamlinehq.com
  </desc>
  <g id="Free Gradient/Map Travel/take-off--travel-plane-adventure-airplane-take-off-airport">
    <path id="Union" fill="url(#paint0_linear_14402_9729)" fill-rule="evenodd" d="M11.4218 1.69203c-.4614-.16304-.9529-.22336-1.44007-.17675-.48439.04634-.9529.19728-1.3732.44236L3.84026 4.33253l-.78929-1.25112c-.00267-.00422-.00546-.00836-.00838-.01241-.08392-.11631-.20228-.2033-.33836-.24866-.13607-.04536-.28296-.04679-.41988-.00408l-.00194.00061-1.319399.42375c-.164524.05238-.302217.16673-.383914.31886-.081783.15228-.101019.33044-.05363.49667l.002378.00784L1.64521 7.53168l.00214.00632c.04722.13373.12057.25674.21579.36185.09522.10511.2104.19023.33883.2504.12843.06016.26755.09418.40925.10006.1399.0058.27955-.01593.41103-.06393l3.00299-.97076-.22536 1.09865c-.02649.12591-.01792.25669.02479.37808.04279.12166.11823.22921.21805.31088.09981.08166.22017.13431.3479.15217.1236.01728.24949.00134.36478-.04606l1.47065-.47748c.11083-.03301.21134-.09398.29183-.17707.08044-.08303.13816-.18532.16765-.29705l.57974-1.9838 3.47053-1.12592c.2747-.08572.5043-.27677.6386-.53139.1345-.25509.1622-.55315.0772-.8287-.0015-.00474-.0031-.00943-.0048-.01407-.173-.45782-.4438-.87237-.7935-1.21467-.3498-.34231-.7701-.60413-1.2315-.76716ZM1.5 11.5c-.552285 0-1 .4477-1 1s.447715 1 1 1h11c.5523 0 1-.4477 1-1s-.4477-1-1-1h-11Z" clip-rule="evenodd"></path>
  </g>
  <defs>
    <linearGradient id="paint0_linear_14402_9729" x1="14.627" x2="-1.944" y1="16.042" y2="3.29" gradientUnits="userSpaceOnUse">
      <stop stop-color="#ffd600"></stop>
      <stop offset="1" stop-color="#ff007a"></stop>
    </linearGradient>
  </defs>
</svg>