<svg xmlns="http://www.w3.org/2000/svg" fill="none" viewBox="0 0 24 24" id="Bread-Loaf--Streamline-Ultimate">
  <desc>
    Bread Loaf Streamline Icon: https://streamlinehq.com
  </desc>
  <path stroke="#000000" stroke-linecap="round" stroke-linejoin="round" d="M17.1753 6.14369c0.0054 -2.8388 -2.2943 -5.143 -5.1331 -5.1428H6.17581c-3.9435 -0.060602 -6.473703 4.1705 -4.5544 7.6159 0.5292 0.95 1.347 1.70691 2.335 2.16131l-1.2515 10.5791c-0.1057 0.8737 0.5767 1.6431 1.4568 1.6426H15.7087L14.2616 10.739c1.7732 -0.84501 2.9057 -2.63101 2.9137 -4.59531Z" stroke-width="1.5"></path>
  <path stroke="#000000" stroke-linecap="round" stroke-linejoin="round" d="M15.7087 22.9998h4.214c0.8801 0.0005 1.5624 -0.7689 1.4568 -1.6426L20.128 10.739c3.5525 -1.71285 3.9186 -6.62915 0.659 -8.84935 -0.8488 -0.578 -1.8516 -0.8877 -2.8784 -0.8888h-5.8664" stroke-width="1.5"></path>
  <path stroke="#000000" stroke-linecap="round" stroke-linejoin="round" d="M20.128 10.7292h-5.8566" stroke-width="1.5"></path>
</svg>