<svg xmlns="http://www.w3.org/2000/svg" fill="none" viewBox="0 0 24 24" id="Design-Tool-Ink--Streamline-Ultimate">
  <desc>
    Design Tool Ink Streamline Icon: https://streamlinehq.com
  </desc>
  <path stroke="#000000" stroke-linecap="round" stroke-linejoin="round" d="M3 0.75h18v6H3v-6Z" stroke-width="1.5"></path>
  <path stroke="#000000" stroke-linecap="round" stroke-linejoin="round" d="M19.872 10.248c-0.5758 -0.38398 -1.0479 -0.90414 -1.3745 -1.51435C18.171 8.12345 18.0001 7.44209 18 6.75H6c0.00025 0.69242 -0.17048 1.3742 -0.49706 1.98477 -0.32657 0.61058 -0.79886 1.13106 -1.37494 1.51523l-0.624 0.416c-0.61566 0.4114 -1.1203 0.9683 -1.46918 1.6214 -0.34888 0.6531 -0.53121 1.3822 -0.53082 2.1226v5.84c0 0.7956 0.31607 1.5587 0.87868 2.1213 0.56261 0.5626 1.32567 0.8787 2.12132 0.8787h15c0.7956 0 1.5587 -0.3161 2.1213 -0.8787 0.5626 -0.5626 0.8787 -1.3257 0.8787 -2.1213v-5.842c0.0004 -0.7404 -0.1819 -1.4695 -0.5308 -2.1226 -0.3489 -0.6531 -0.8535 -1.21 -1.4692 -1.6214l-0.632 -0.416Z" stroke-width="1.5"></path>
  <path stroke="#000000" stroke-linecap="round" stroke-linejoin="round" d="M7.5 0.75v6" stroke-width="1.5"></path>
  <path stroke="#000000" stroke-linecap="round" stroke-linejoin="round" d="M16.5 0.75v6" stroke-width="1.5"></path>
  <path stroke="#000000" stroke-linecap="round" stroke-linejoin="round" d="M12 0.75v6" stroke-width="1.5"></path>
  <path stroke="#000000" stroke-linecap="round" stroke-linejoin="round" d="M14.25 16.5c0.0362 0.3042 0.0029 0.6126 -0.0974 0.9021 -0.1003 0.2894 -0.2649 0.5524 -0.4815 0.769 -0.2166 0.2166 -0.4796 0.3812 -0.769 0.4815 -0.2895 0.1003 -0.5979 0.1336 -0.9021 0.0974 -0.3042 0.0362 -0.6126 0.0029 -0.9021 -0.0974 -0.2894 -0.1003 -0.5523 -0.2649 -0.769 -0.4815 -0.2166 -0.2166 -0.3812 -0.4796 -0.48148 -0.769 -0.10028 -0.2895 -0.13359 -0.5979 -0.09741 -0.9021C9.75001 14.843 12 12.75 12 12.75s2.25 2.093 2.25 3.75Z" stroke-width="1.5"></path>
</svg>