<svg xmlns="http://www.w3.org/2000/svg" fill="none" viewBox="0 0 24 24" id="Reflect-Left--Streamline-Ultimate">
  <desc>
    Reflect Left Streamline Icon: https://streamlinehq.com
  </desc>
  <path stroke="#000000" stroke-linecap="round" stroke-linejoin="round" d="m7.72 17.03 -4.94 4.94c-0.10495 0.1048 -0.23862 0.1762 -0.38411 0.205 -0.14549 0.0289 -0.29627 0.0139 -0.43328 -0.0429 -0.137 -0.0568 -0.25407 -0.153 -0.33642 -0.2764 -0.08234 -0.1234 -0.12626 -0.2684 -0.12619 -0.4167v-9.878c-0.00007 -0.1483 0.04385 -0.2933 0.12619 -0.4167 0.08235 -0.1234 0.19942 -0.2196 0.33642 -0.2764 0.13701 -0.0568 0.28779 -0.0718 0.43328 -0.0429 0.14549 0.0288 0.27916 0.1002 0.38411 0.205l4.94 4.94c0.06966 0.0696 0.12493 0.1522 0.16264 0.2431 0.03771 0.091 0.05711 0.1885 0.05711 0.2869 0 0.0985 -0.0194 0.1959 -0.05711 0.2869 -0.03771 0.0909 -0.09298 0.1735 -0.16264 0.2431Z" stroke-width="1"></path>
  <path stroke="#000000" stroke-linecap="round" stroke-linejoin="round" d="m16.28 17.03 4.94 4.94c0.1049 0.1048 0.2386 0.1762 0.3841 0.205 0.1455 0.0289 0.2963 0.0139 0.4333 -0.0429s0.2541 -0.153 0.3364 -0.2764c0.0823 -0.1234 0.1263 -0.2684 0.1262 -0.4167v-9.878c0.0001 -0.1483 -0.0439 -0.2933 -0.1262 -0.4167 -0.0823 -0.1234 -0.1994 -0.2196 -0.3364 -0.2764 -0.137 -0.0568 -0.2878 -0.0718 -0.4333 -0.0429 -0.1455 0.0288 -0.2792 0.1002 -0.3841 0.205l-4.94 4.94c-0.0697 0.0696 -0.1249 0.1522 -0.1626 0.2431 -0.0378 0.091 -0.0572 0.1885 -0.0572 0.2869 0 0.0985 0.0194 0.1959 0.0572 0.2869 0.0377 0.0909 0.0929 0.1735 0.1626 0.2431Z" stroke-width="1"></path>
  <path stroke="#000000" stroke-linecap="round" stroke-linejoin="round" d="M12 23.25V9.75" stroke-width="1"></path>
  <path stroke="#000000" stroke-linecap="round" stroke-linejoin="round" d="m3 1.5 0.697 5.257 5.257 -0.697" stroke-width="1"></path>
  <path stroke="#000000" stroke-linecap="round" stroke-linejoin="round" d="M19.349 6.74996c-0.3431 -1.68382 -1.2541 -3.19875 -2.5805 -4.29132C15.4421 1.36606 13.7808 0.762107 12.0624 0.747818 10.344 0.733529 8.67286 1.30977 7.32849 2.38014 5.98412 3.45051 5.04809 4.95008 4.677 6.62796" stroke-width="1"></path>
</svg>