<svg xmlns="http://www.w3.org/2000/svg" fill="none" viewBox="0 0 48 48" id="Cloud-Off--Streamline-Plump-Gradient">
  <desc>
    Cloud Off Streamline Icon: https://streamlinehq.com
  </desc>
  <g id="cloud-off--cloud-network-internet-disable-server-off">
    <path id="Union" fill="url(#paint0_linear_7979_4237)" fill-rule="evenodd" d="M5.69163 1.62868c-1.17157-1.171573-3.07107-1.171573-4.24264 0-1.171571 1.17157-1.171571 3.07107 0 4.24264L41.949 46.3713c1.1716 1.1716 3.0711 1.1716 4.2426 0 1.1716-1.1716 1.1716-3.071 0-4.2426l-2.5797-2.5798c.0285-.0274.0569-.0549.0852-.0825C46.1096 37.1078 47.5 33.8262 47.5 30c0-5.8287-3.2201-10.2973-8.1293-12.2522-.4234-3.6175-1.8781-6.8011-4.2245-9.15246-2.5676-2.57298-6.1179-4.06269-10.2987-4.09237C24.5706 4.50101 24.2881 4.5 24 4.5s-.5706.00101-.8475.00297c-4.1808.02968-7.7311 1.51939-10.2987 4.09237-.0325.03263-.0649.06542-.0971.09837L5.69163 1.62868ZM8.68079 17.3462 34.6314 43.2968c-.1467.0096-.2942.0173-.4422.0232-2.7341.1085-6.0903.18-10.1892.18-4.0988 0-7.4551-.0714-10.1892-.18-3.7685-.1496-7.1039-1.5034-9.50792-3.8536C1.89036 37.1079.5 33.8262.5 30c0-5.8287 3.22014-10.2973 8.1293-12.2522.01574-.1345.0329-.2683.05149-.4016Z" clip-rule="evenodd"></path>
  </g>
  <defs>
    <linearGradient id="paint0_linear_7979_4237" x1="8.183" x2="45.952" y1="9.692" y2="30.844" gradientUnits="userSpaceOnUse">
      <stop stop-color="#ffd600"></stop>
      <stop offset="1" stop-color="#00d078"></stop>
    </linearGradient>
  </defs>
</svg>