<svg xmlns="http://www.w3.org/2000/svg" fill="none" viewBox="0 0 48 48" id="Cloud-Data-Transfer--Streamline-Plump-Gradient">
  <desc>
    Cloud Data Transfer Streamline Icon: https://streamlinehq.com
  </desc>
  <g id="cloud-data-transfer--cloud-data-transfer-internet-server-network">
    <path id="Union" fill="url(#paint0_linear_7979_4228)" fill-rule="evenodd" d="M24 1.5c-.2881 0-.5706.00101-.8475.00297-4.1808.02968-7.7311 1.51939-10.2987 4.09237-2.3464 2.35139-3.80111 5.53496-4.2245 9.15246C3.72014 16.7027.5 21.1713.5 27c0 3.8262 1.39036 7.1079 3.80288 9.4664 2.39678 2.3431 5.71932 3.6958 9.47392 3.8522l-.1691-3.2127-.7121-.1295c-2.97322-.5406-4.8932-4.1077-2.7499-6.8898 3.2762-4.2527 6.9231-6.3662 8.3633-7.0899.7302-.3668 1.4818-.4967 2.1583-.4967 1.3993 0 2.6442.6634 3.4365 1.6931.6675-.8379 1.6466-1.4685 2.9617-1.6152.4309-.0481.9098-.0779 1.4345-.0779.581 0 1.1058.0366 1.5713.094 2.6459.326 3.918 2.6369 4.0194 4.5631l.3019 5.7364.7122.1295c2.9052.5283 4.8048 3.9461 2.8906 6.6978 2.2005-.6301 4.1461-1.7337 5.7017-3.2544C46.1096 34.1078 47.5 30.8262 47.5 27c0-5.8287-3.2201-10.2973-8.1293-12.2522-.4234-3.6175-1.8781-6.80107-4.2245-9.15246-2.5676-2.57298-6.1179-4.06269-10.2987-4.09237C24.5706 1.50101 24.2881 1.5 24 1.5Zm-7.9998 33.4999-2.6575-.4832c-1.3748-.2499-2.0694-1.7975-1.2167-2.9044 2.9776-3.8651 6.2816-5.7668 7.5053-6.3817.3217-.1617.6758-.2306 1.0358-.2306 1.0124 0 1.8331.8203 1.8331 1.8327v15.7685c0 1.1602-.6896 2.2072-1.8427 2.3358-.3412.038-.7276.0624-1.1573.0624-.4758 0-.8985-.0299-1.2655-.0751-1.0952-.135-1.7707-1.1115-1.8287-2.2134l-.4058-7.711ZM32 34.9995l2.6575.4832c1.3748.25 2.0694 1.7976 1.2167 2.9045-2.9776 3.8651-6.2816 5.7668-7.5053 6.3816-.3217.1617-.6758.2306-1.0358.2306-1.0124 0-1.8331-.8203-1.8331-1.8326V27.3983c0-1.1603.6896-2.2072 1.8427-2.3358.3412-.0381.7275-.0625 1.1573-.0625.4758 0 .8985.0299 1.2655.0752 1.0952.1349 1.7707 1.1114 1.8287 2.2133L32 34.9995Z" clip-rule="evenodd"></path>
  </g>
  <defs>
    <linearGradient id="paint0_linear_7979_4228" x1="8.183" x2="44.707" y1="9.865" y2="31.731" gradientUnits="userSpaceOnUse">
      <stop stop-color="#ffd600"></stop>
      <stop offset="1" stop-color="#00d078"></stop>
    </linearGradient>
  </defs>
</svg>