<svg xmlns="http://www.w3.org/2000/svg" fill="none" viewBox="0 0 14 14" id="Contact-Phonebook-2--Streamline-Core">
  <desc>
    Contact Phonebook 2 Streamline Icon: https://streamlinehq.com
  </desc>
  <g id="contact-phonebook-2">
    <path id="Union" fill="#2859c5" fill-rule="evenodd" d="M3.046 9.576a2.177 2.177 0 1 0 0 4.354h7.47a0.75 0.75 0 0 0 0.75 -0.75v-2.854a0.75 0.75 0 0 0 -0.75 -0.75h-7.47Z" clip-rule="evenodd" stroke-width="1"></path>
    <path id="Union_2" fill="#8fbffa" fill-rule="evenodd" d="M3.046 0.063h8.086a1.701 1.701 0 0 1 1.701 1.7v7.611a1.7 1.7 0 0 1 -1.701 1.702H3.046a0.677 0.677 0 1 0 0 1.354h9.037a0.75 0.75 0 0 1 0 1.5H3.046a2.177 2.177 0 0 1 -2.177 -2.177c0 -0.035 0.002 -0.068 0.005 -0.1A2.035 2.035 0 0 1 0.87 11.5V2.201l0 -0.02A2.199 2.199 0 0 1 3.046 0.062Z" clip-rule="evenodd" stroke-width="1"></path>
    <path id="Vector" fill="#2859c5" d="M7.524 8.236a1.702 1.702 0 0 0 1.957 -0.461l0.246 -0.247a0.533 0.533 0 0 0 0.096 -0.732l-0.796 -0.795a0.533 0.533 0 0 0 -0.732 0.095 0.533 0.533 0 0 1 -0.731 0.095L6.29 4.92a0.533 0.533 0 0 1 0.095 -0.732 0.533 0.533 0 0 0 0.096 -0.732l-0.796 -0.796a0.533 0.533 0 0 0 -0.732 0.096L4.708 3a1.71 1.71 0 0 0 -0.462 1.957 9.546 9.546 0 0 0 3.278 3.278Z" stroke-width="1"></path>
  </g>
</svg>