<svg xmlns="http://www.w3.org/2000/svg" fill="none" viewBox="0 0 24 24" id="Adobe-Cloud-Logo--Streamline-Ultimate">
  <desc>
    Adobe Cloud Logo Streamline Icon: https://streamlinehq.com
  </desc>
  <path stroke="#000000" stroke-linecap="round" stroke-linejoin="round" d="M14.935 20.3151c1.3997 -0.0001 2.7767 -0.3535 4.0035 -1.0274 1.2267 -0.674 2.2635 -1.6467 3.0142 -2.8281 0.7506 -1.1813 1.191 -2.5331 1.2801 -3.9299 0.0892 -1.3969 -0.1757 -2.79363 -0.7702 -4.06083 -0.5944 -1.2672 -1.4991 -2.36384 -2.6302 -3.18829 -1.1311 -0.82445 -2.452 -1.35003 -3.8403 -1.52802 -1.3884 -0.17799 -2.7992 -0.00263 -4.1017 0.50982 -1.3025 0.51245 -2.45454 1.34541 -3.3494 2.42168 -0.31187 -0.04249 -0.62625 -0.06388 -0.941 -0.064 -1.81673 0 -3.55906 0.7217 -4.84368 2.00632C1.47169 9.911 0.75 11.6533 0.75 13.4701c0 1.8167 0.72169 3.559 2.00632 4.8436C4.04094 19.5984 5.78327 20.3201 7.6 20.3201l7.335 -0.005Z" stroke-width="1.5"></path>
  <path stroke="#000000" stroke-linecap="round" stroke-linejoin="round" d="M7.94299 9.71204c-1.00968 0 -1.97801 0.40106 -2.69196 1.11506 -0.71395 0.7139 -1.11504 1.6823 -1.11504 2.6919 0 1.0097 0.40109 1.978 1.11504 2.692 0.71395 0.7139 1.68228 1.115 2.69196 1.115h1.269" stroke-width="1.5"></path>
  <path stroke="#000000" stroke-linecap="round" stroke-linejoin="round" d="M7.94299 9.71204c0.50006 -0.00072 0.99532 0.09742 1.45731 0.28876 0.46199 0.1914 0.8816 0.4722 1.2347 0.8262l1.992 1.992" stroke-width="1.5"></path>
  <path stroke="#000000" stroke-linecap="round" stroke-linejoin="round" d="M11.707 8.42095c0.7461 -0.64918 1.6656 -1.06627 2.6455 -1.2 0.9799 -0.13374 1.9776 0.02169 2.8703 0.44719 0.8928 0.4255 1.6418 1.10254 2.1551 1.94793 0.5132 0.84543 0.7683 1.82233 0.734 2.81073 -0.0344 0.9884 -0.3568 1.9452 -0.9275 2.7529 -0.5708 0.8076 -1.365 1.431 -2.2852 1.7935 -0.9202 0.3624 -1.9262 0.4481 -2.8944 0.2467 -0.9683 -0.2015 -1.8566 -0.6815 -2.5558 -1.381l-2.74899 -2.749" stroke-width="1.5"></path>
</svg>