<svg xmlns="http://www.w3.org/2000/svg" fill="none" viewBox="0 0 24 24" id="Bilibili-Logo--Streamline-Ultimate">
  <desc>
    Bilibili Logo Streamline Icon: https://streamlinehq.com
  </desc>
  <path stroke="#000000" stroke-linecap="round" stroke-linejoin="round" d="M4.90263 6.93445H19.0575s1.4674 0 1.4674 1.46739v9.27356s0 1.4673 -1.4674 1.4673H4.90263s-1.46739 0 -1.46739 -1.4673V8.40184s0 -1.46739 1.46739 -1.46739Z" stroke-width="1.5"></path>
  <path stroke="#000000" stroke-linecap="round" stroke-linejoin="round" d="M14.7251 15.8387c-0.0599 0.2695 -0.3493 0.6189 -0.9982 0.6189 -1.1779 0 -1.707 -1.4674 -1.707 -1.4674s-0.529 1.4674 -1.7069 1.4674c-0.68879 0 -0.99824 -0.3494 -0.99824 -0.6189" stroke-width="1.5"></path>
  <path stroke="#000000" stroke-linecap="round" stroke-linejoin="round" d="M4.65306 4.24927c-1.03607 0.00264 -2.02881 0.41607 -2.76049 1.14962C1.16089 6.13245 0.749997 7.12623 0.75 8.16231V17.925c0 1.0351 0.41121 2.0279 1.14318 2.7598 0.73197 0.732 1.72472 1.1432 2.75988 1.1432h0.99823v0.2196c0.0276 0.3053 0.16838 0.5892 0.39465 0.7959 0.22627 0.2067 0.52168 0.3213 0.82817 0.3213 0.30649 0 0.6019 -0.1146 0.82818 -0.3213 0.22627 -0.2067 0.36704 -0.4906 0.39465 -0.7959v-0.2495h7.80616v0.2495c0.0276 0.3053 0.1683 0.5892 0.3946 0.7959 0.2263 0.2067 0.5217 0.3213 0.8282 0.3213s0.6019 -0.1146 0.8282 -0.3213c0.2262 -0.2067 0.367 -0.4906 0.3946 -0.7959v-0.2495h0.9982c1.0352 0 2.028 -0.4112 2.7599 -1.1432 0.732 -0.732 1.1432 -1.7247 1.1432 -2.7599V8.16231c0 -1.03608 -0.4109 -2.02986 -1.1426 -2.76342 -0.7317 -0.73355 -1.7244 -1.14698 -2.7605 -1.14962H4.65306Z" stroke-width="1.5"></path>
  <path stroke="#000000" stroke-linecap="round" stroke-linejoin="round" d="m5.72116 11.6761 3.84317 -0.7786" stroke-width="1.5"></path>
  <path stroke="#000000" stroke-linecap="round" stroke-linejoin="round" d="m18.2389 11.6761 -3.8431 -0.7786" stroke-width="1.5"></path>
  <path stroke="#000000" stroke-linecap="round" stroke-linejoin="round" d="M6.12045 0.835205 9.53438 4.24914" stroke-width="1.5"></path>
  <path stroke="#000000" stroke-linecap="round" stroke-linejoin="round" d="M17.8396 0.835205 14.4257 4.24914" stroke-width="1.5"></path>
</svg>