<svg xmlns="http://www.w3.org/2000/svg" fill="none" viewBox="0 0 24 24" id="Google-Keep-Logo-2--Streamline-Ultimate">
  <desc>
    Google Keep Logo 2 Streamline Icon: https://streamlinehq.com
  </desc>
  <path stroke="#000000" stroke-linecap="round" stroke-linejoin="round" d="M20 8.75005c-0.01 -1.42587 -0.401 -2.82314 -1.1324 -4.04717 -0.7314 -1.22403 -1.7767 -2.23034 -3.0276 -2.91474 -1.2509 -0.6844 -2.662 -1.022019 -4.0872 -0.977915C10.3275 0.854329 8.94 1.27856 7.73379 2.03899c-1.20621 0.76044 -2.18725 1.82944 -2.84157 3.09636 -0.65432 1.26691 -0.95814 2.68568 -0.88 4.10944 0.07814 1.42381 0.53539 2.80081 1.32443 3.98851C6.12568 14.421 7.21782 15.3762 8.5 16v3.8c0 0.2653 0.10536 0.5196 0.2929 0.7072 0.18753 0.1875 0.44189 0.2928 0.7071 0.2928h5c0.2652 0 0.5196 -0.1053 0.7071 -0.2928 0.1875 -0.1876 0.2929 -0.4419 0.2929 -0.7072V16c1.3578 -0.6605 2.501 -1.6919 3.2973 -2.9749S20.0106 10.26 20 8.75005Z" stroke-width="1.5"></path>
  <path stroke="#000000" stroke-linecap="round" stroke-linejoin="round" d="M9.5 20.75h5v1.5c0 0.2652 -0.1054 0.5196 -0.2929 0.7071s-0.4419 0.2929 -0.7071 0.2929h-3c-0.2652 0 -0.51957 -0.1054 -0.70711 -0.2929C9.60536 22.7696 9.5 22.5152 9.5 22.25v-1.5Z" stroke-width="1.5"></path>
  <path stroke="#000000" stroke-linecap="round" stroke-linejoin="round" d="M8.5 17.75h7" stroke-width="1.5"></path>
</svg>