<svg xmlns="http://www.w3.org/2000/svg" fill="none" viewBox="0 0 24 24" id="Google-Photos-Logo--Streamline-Ultimate">
  <desc>
    Google Photos Logo Streamline Icon: https://streamlinehq.com
  </desc>
  <path stroke="#000000" stroke-linecap="round" stroke-linejoin="round" d="M12 0.75c1.4229 0.072518 2.7593 0.70548 3.7168 1.76048 0.9576 1.05501 1.4585 2.44624 1.3932 3.86952 0.0626 1.42159 -0.4395 2.81024 -1.3968 3.8631C14.7559 11.2959 13.4211 11.9275 12 12V0.75Z" stroke-width="1.5"></path>
  <path stroke="#000000" stroke-linecap="round" stroke-linejoin="round" d="M23.25 12c-0.0725 1.4211 -0.7041 2.7559 -1.7569 3.7132 -1.0529 0.9573 -2.4415 1.4594 -3.8631 1.3968 -1.4233 0.0653 -2.8145 -0.4356 -3.8695 -1.3932C12.7055 14.7593 12.0725 13.4229 12 12h11.25Z" stroke-width="1.5"></path>
  <path stroke="#000000" stroke-linecap="round" stroke-linejoin="round" d="M12 23.25c-1.4229 -0.0725 -2.75926 -0.7055 -3.71683 -1.7605 -0.95756 -1.055 -1.45846 -2.4462 -1.39317 -3.8695 -0.06257 -1.4216 0.43955 -2.8102 1.39683 -3.8631C9.24411 12.7041 10.5789 12.0725 12 12v11.25Z" stroke-width="1.5"></path>
  <path stroke="#000000" stroke-linecap="round" stroke-linejoin="round" d="M0.75 11.9999c0.072544 -1.4211 0.70411 -2.75584 1.75693 -3.71312C3.55976 7.32949 4.94841 6.82737 6.37 6.88994c1.42328 -0.06528 2.81451 0.43561 3.8695 1.39318 1.055 0.95757 1.688 2.29388 1.7605 3.71678H0.75Z" stroke-width="1.5"></path>
</svg>