<svg xmlns="http://www.w3.org/2000/svg" fill="none" viewBox="0 0 24 24" id="Google-Assistant-Logo--Streamline-Ultimate">
  <desc>
    Google Assistant Logo Streamline Icon: https://streamlinehq.com
  </desc>
  <path stroke="#000000" stroke-linecap="round" stroke-linejoin="round" d="M13.02 13.02c0 0.6789 0.2697 1.3301 0.7498 1.8102 0.4801 0.48 1.1312 0.7498 1.8102 0.7498 0.6789 0 1.3301 -0.2698 1.8102 -0.7498 0.4801 -0.4801 0.7498 -1.1313 0.7498 -1.8102 0 -0.679 -0.2697 -1.3301 -0.7498 -1.8102 -0.4801 -0.4801 -1.1313 -0.7498 -1.8102 -0.7498 -0.679 0 -1.3301 0.2697 -1.8102 0.7498 -0.4801 0.4801 -0.7498 1.1312 -0.7498 1.8102Z" stroke-width="1.5"></path>
  <path stroke="#000000" stroke-linecap="round" stroke-linejoin="round" d="M1.25999 6.38c0 1.49317 0.59316 2.92518 1.64899 3.981 1.05583 1.0558 2.48785 1.649 3.98101 1.649 1.49317 0 2.92519 -0.5932 3.98101 -1.649 1.0558 -1.05582 1.649 -2.48783 1.649 -3.981 0 -1.49317 -0.5932 -2.92518 -1.649 -3.98101C9.81518 1.34316 8.38316 0.75 6.88999 0.75c-1.49316 0 -2.92518 0.59316 -3.98101 1.64899C1.85315 3.45482 1.25999 4.88683 1.25999 6.38Z" stroke-width="1.5"></path>
  <path stroke="#000000" stroke-linecap="round" stroke-linejoin="round" d="M13.02 20.69c0 0.679 0.2697 1.3301 0.7498 1.8102 0.4801 0.4801 1.1312 0.7498 1.8102 0.7498 0.6789 0 1.3301 -0.2697 1.8102 -0.7498 0.4801 -0.4801 0.7498 -1.1312 0.7498 -1.8102 0 -0.6789 -0.2697 -1.3301 -0.7498 -1.8102 -0.4801 -0.4801 -1.1313 -0.7498 -1.8102 -0.7498 -0.679 0 -1.3301 0.2697 -1.8102 0.7498 -0.4801 0.4801 -0.7498 1.1313 -0.7498 1.8102Z" stroke-width="1.5"></path>
  <path stroke="#000000" stroke-linecap="round" stroke-linejoin="round" d="M19.67 9.44003c0 0.40579 0.1612 0.79497 0.4481 1.08187 0.287 0.2869 0.6761 0.4481 1.0819 0.4481 0.4058 0 0.7949 -0.1612 1.0819 -0.4481 0.2869 -0.2869 0.4481 -0.67608 0.4481 -1.08187 0 -0.40578 -0.1612 -0.79494 -0.4481 -1.08187 -0.287 -0.28693 -0.6761 -0.44813 -1.0819 -0.44813 -0.4058 0 -0.7949 0.1612 -1.0819 0.44813 -0.2869 0.28693 -0.4481 0.67609 -0.4481 1.08187Z" stroke-width="1.5"></path>
</svg>