<svg xmlns="http://www.w3.org/2000/svg" fill="none" viewBox="0 0 24 24" id="Instagram-Logo--Streamline-Ultimate">
  <desc>
    Instagram Logo Streamline Icon: https://streamlinehq.com
  </desc>
  <path stroke="#000000" stroke-linecap="round" stroke-linejoin="round" d="M18.36 0.75H5.64C2.93933 0.75 0.75 2.93933 0.75 5.64v12.72c0 2.7007 2.18933 4.89 4.89 4.89h12.72c2.7007 0 4.89 -2.1893 4.89 -4.89V5.64c0 -2.70067 -2.1893 -4.89 -4.89 -4.89Z" stroke-width="1.5"></path>
  <path stroke="#000000" stroke-linecap="round" stroke-linejoin="round" d="M12 15.5c1.933 0 3.5 -1.567 3.5 -3.5S13.933 8.5 12 8.5 8.5 10.067 8.5 12s1.567 3.5 3.5 3.5Z" stroke-width="1.5"></path>
  <path stroke="#000000" stroke-linecap="round" stroke-linejoin="round" d="M16 4H8C5.79086 4 4 5.79086 4 8v8c0 2.2091 1.79086 4 4 4h8c2.2091 0 4 -1.7909 4 -4V8c0 -2.20914 -1.7909 -4 -4 -4Z" stroke-width="1.5"></path>
  <path stroke="#000000" d="M16.635 7.625c-0.1381 0 -0.25 -0.11193 -0.25 -0.25s0.1119 -0.25 0.25 -0.25" stroke-width="1.5"></path>
  <path stroke="#000000" d="M16.635 7.625c0.1381 0 0.25 -0.11193 0.25 -0.25s-0.1119 -0.25 -0.25 -0.25" stroke-width="1.5"></path>
</svg>