<svg xmlns="http://www.w3.org/2000/svg" fill="none" viewBox="0 0 24 24" id="Wechat-Pay-Logo--Streamline-Ultimate">
  <desc>
    Wechat Pay Logo Streamline Icon: https://streamlinehq.com
  </desc>
  <path stroke="#000000" stroke-linecap="round" stroke-linejoin="round" d="M11.835 15.466c-0.1083 0.0792 -0.2314 0.1359 -0.362 0.1665 -0.1306 0.0307 -0.266 0.0348 -0.3982 0.012 -0.1323 -0.0228 -0.2585 -0.0719 -0.3714 -0.1445 -0.1128 -0.0726 -0.2099 -0.1671 -0.2854 -0.278L7.21 10.5c-0.03033 -0.0443 -0.04559 -0.0972 -0.04353 -0.1509 0.00207 -0.0536 0.02136 -0.1052 0.05501 -0.147 0.03365 -0.0419 0.07988 -0.0717 0.13184 -0.0853 0.05196 -0.0135 0.1069 -0.0099 0.15668 0.0102l3.72 1.488c0.1589 0.0635 0.3314 0.0852 0.5011 0.0629 0.1696 -0.0222 0.3307 -0.0876 0.4679 -0.1899l8.4 -6.27c-1.1065 -1.16476 -2.4411 -2.08915 -3.9205 -2.71557S13.6065 1.56099 12 1.577C5.787 1.577 0.75 6.156 0.75 11.805c0.009114 2.281 0.83015 4.4843 2.316 6.215 0.15551 0.1844 0.24087 0.4178 0.241 0.659V21.4c0.00004 0.1743 0.04462 0.3457 0.12951 0.498 0.08489 0.1522 0.20727 0.2802 0.35554 0.3719 0.14826 0.0916 0.31748 0.1439 0.49161 0.1518 0.17413 0.0079 0.34739 -0.0288 0.50334 -0.1067l2.07 -1.035c0.12673 -0.0633 0.26521 -0.0997 0.4067 -0.1067 0.14149 -0.0071 0.2829 0.0153 0.4153 0.0657 1.3801 0.525 2.8444 0.7937 4.321 0.793 6.213 0 11.25 -4.579 11.25 -10.227 -0.0006 -1.3924 -0.3107 -2.76723 -0.908 -4.025l-10.507 7.686Z" stroke-width="1.5"></path>
</svg>