<svg xmlns="http://www.w3.org/2000/svg" fill="none" viewBox="0 0 24 24" id="Wordpress-Logo-1--Streamline-Ultimate">
  <desc>
    Wordpress Logo 1 Streamline Icon: https://streamlinehq.com
  </desc>
  <path stroke="#000000" stroke-linecap="round" stroke-linejoin="round" d="M5.03799 8.24597h2.857" stroke-width="1.5"></path>
  <path stroke="#000000" stroke-linecap="round" stroke-linejoin="round" d="M10.344 8.24597h2.858" stroke-width="1.5"></path>
  <path stroke="#000000" stroke-linecap="round" stroke-linejoin="round" d="M6.26199 8.24603 9.11999 18.47 11.977 8.24603 14.834 18.47c0.3166 -0.8437 0.5814 -1.706 0.793 -2.582 0.2767 -0.8946 0.5563 -1.7893 0.839 -2.684 0.2827 -0.8946 0.5663 -1.7883 0.851 -2.681 0.142 -0.4466 0.2847 -0.89331 0.428 -1.33997 0.1717 -0.37802 0.2697 -0.78528 0.289 -1.2 -0.0118 -0.163 -0.0618 -0.32093 -0.146 -0.461 -0.1082 -0.17047 -0.2579 -0.3107 -0.4351 -0.40759 -0.1772 -0.09688 -0.376 -0.14726 -0.5779 -0.14641 -0.2418 -0.00079 -0.4784 0.07096 -0.679 0.206" stroke-width="1.5"></path>
  <path stroke="#000000" stroke-linecap="round" stroke-linejoin="round" d="M0.75 12c0 2.9837 1.18526 5.8452 3.29505 7.955C6.15483 22.0647 9.01631 23.25 12 23.25c2.9837 0 5.8452 -1.1853 7.955 -3.295 2.1097 -2.1098 3.295 -4.9713 3.295 -7.955 0 -2.98369 -1.1853 -5.84517 -3.295 -7.95495C17.8452 1.93526 14.9837 0.75 12 0.75c-2.98369 0 -5.84517 1.18526 -7.95495 3.29505C1.93526 6.15483 0.75 9.01631 0.75 12Z" stroke-width="1.5"></path>
</svg>