<svg xmlns="http://www.w3.org/2000/svg" fill="none" viewBox="0 0 40 40" id="Money-Briefcase--Streamline-Stickies">
  <desc>
    Money Briefcase Streamline Icon: https://streamlinehq.com
  </desc>
  <g clip-path="url(#a)">
    <path fill="#00034a" stroke="#00034a" stroke-linejoin="round" d="M9.286 24.383c0.092 0.187 0.192 0.371 0.3 0.55 0.726 1.311 2.598 2.29 4.044 1.925 0.953 -0.24 2.108 -0.962 2.156 -1.848 0.0635 -0.6741 0.0345 -1.3537 -0.086 -2.02 2.646 -1.28 4.725 -3.677 3.667 -8.258 -0.293 -1.83 -1.628 -3.046 -2.955 -4.204 -0.2639 -0.2306 -0.5511 -0.433 -0.857 -0.60401 0.4938 -0.34431 0.8739 -0.82791 1.0917 -1.38912 0.2178 -0.56121 0.2635 -1.17458 0.1313 -1.76188 -0.534 -2.3 -3.727 -3.5 -5.777 -3.555 -0.1072 -0.22561 -0.2254 -0.44587 -0.354 -0.66C9.945 1.23199 8.052 0.303992 6.622 0.621992c-0.953 0.211 -2.108 0.961998 -2.156 1.847998 -0.069 0.7 -0.036 1.407 0.096 2.098 -2.618 1.367 -4.6580017 3.927 -3.686002 8.21101 0.185672 1.1614 0.774442 2.2204 1.663002 2.991 0.45 0.39 0.842 0.813 1.292 1.203 0.26 0.226 0.54 0.422 0.837 0.588 -0.49065 0.3434 -0.86739 0.8257 -1.08176 1.3849 -0.21438 0.5592 -0.2566 1.1697 -0.12124 1.7531 0.543 2.384 3.651 3.685 5.821 3.684Z" stroke-width="1"></path>
    <path fill="#00034a" stroke="#00034a" stroke-miterlimit="10" d="M32.584 13.505c-0.474 -0.706 0.285 -2.047 1.697 -2.996 0.887 -0.596 3.487 -1.515 4.326 -0.267 0.474 0.706 -0.285 2.048 -1.697 2.997 -0.887 0.596 -3.487 1.514 -4.326 0.266Z" stroke-width="1"></path>
    <path fill="#00034a" stroke="#00034a" stroke-miterlimit="10" d="M33.264 5.33801c0.714 0.462 0.543 1.994 -0.383 3.422 -0.815 1.25699 -2.44 2.50499 -3.878 1.57299 -0.713 -0.46299 -0.542 -1.99499 0.383 -3.42199 0.765 -1.18 2.462 -2.491 3.878 -1.573Z" stroke-width="1"></path>
    <path fill="#00034a" stroke="#00034a" stroke-miterlimit="10" d="M25.488 2.858c-0.849 -0.058 -1.63 1.272 -1.744 2.969 -0.114 1.697 0.48 3.119 1.329 3.176 1.816 0.123 2.517 -0.761 2.655 -2.796 0.116 -1.722 -0.425 -3.226 -2.24 -3.349Z" stroke-width="1"></path>
    <path fill="#00034a" fill-rule="evenodd" stroke="#00034a" stroke-miterlimit="10" d="M31.346 21.593c0.5 0.256 0.97 0.567 1.4 0.93 0.979 0.682 1.945 2.175 2.244 3.294 0.485 1.818 0.475 4.401 0.143 6.466 -0.5 3.109 -1.848 6.035 -3.696 6.564 -0.991 0.664 -5.707 0.731 -9.499 0.115 -3.792 -0.616 -8.248 -2.136 -8.97 -3.099 -1.09 -0.747 -2.152 -2.334 -2.469 -3.58 -0.366 -1.441 -0.367 -3.292 -0.09 -5.11 0.47 -3.11 2.001 -7.103 3.849 -7.633 0.9404 -0.3799 1.9504 -0.5571 2.964 -0.52 0.039 -0.298 0.077 -0.577 0.125 -0.885 0.1257 -0.8407 0.4224 -1.6467 0.8718 -2.3682 0.4494 -0.7215 1.042 -1.3431 1.7411 -1.8266 0.6991 -0.4835 1.49 -0.8185 2.3237 -0.9844 0.8336 -0.1658 1.6925 -0.1589 2.5234 0.0202 0.842 0.094 1.657 0.36 2.394 0.78 1.194 0.681 2.174 1.862 2.997 2.954 0.5195 0.6898 0.8898 1.4802 1.0874 2.3208 0.1977 0.8406 0.2183 1.7132 0.0606 2.5622Zm-4.78 -3.692c0.234 0.572 0.312 1.288 0.184 2.15 -0.9846 -0.2553 -1.9799 -0.4675 -2.983 -0.636 -0.5268 -0.0869 -1.056 -0.1583 -1.587 -0.214 0.617 -1.423 1.852 -1.928 3.175 -1.71h0.038c0.43 0.068 0.827 0.204 1.173 0.41Z" clip-rule="evenodd" stroke-width="1"></path>
    <path fill="#9bff00" stroke="#00034a" stroke-miterlimit="10" d="M32.746 22.524c-0.7776 -0.6551 -1.6817 -1.1433 -2.656 -1.434 0.058 -0.289 0.115 -0.568 0.163 -0.876 0.143 -0.836 0.1136 -1.6925 -0.0863 -2.5167 -0.1999 -0.8243 -0.5661 -1.599 -1.0762 -2.2767 -0.51 -0.6777 -1.1532 -1.244 -1.8899 -1.6642 -0.7368 -0.4202 -1.5517 -0.6854 -2.3946 -0.7794 -0.8308 -0.1791 -1.6895 -0.186 -2.5231 -0.0202 -0.8335 0.1658 -1.6243 0.5007 -2.3233 0.9841 -0.699 0.4834 -1.2915 1.1049 -1.7409 1.8263 -0.4493 0.7214 -0.746 1.5273 -0.8717 2.3678 -0.048 0.308 -0.086 0.587 -0.125 0.885 -1.0136 -0.0372 -2.0236 0.14 -2.964 0.52 -1.848 0.53 -3.378 4.524 -3.85 7.632 -0.471 3.109 -0.134 6.314 1.454 7.401 0.721 0.963 5.177 2.483 8.97 3.1 3.791 0.615 8.507 0.548 9.498 -0.116 1.848 -0.53 3.196 -3.455 3.696 -6.564s0.27 -7.39 -1.28 -8.469Zm-8.46 -6.323c1.646 0.26 2.81 1.52 2.464 3.85 -0.9846 -0.2553 -1.9799 -0.4675 -2.983 -0.636 -1.0012 -0.1619 -2.0097 -0.2744 -3.022 -0.337 0.365 -2.31 1.867 -3.147 3.503 -2.877h0.038Z" stroke-width="1"></path>
    <path stroke="#00034a" stroke-linecap="round" stroke-miterlimit="10" d="M12.853 25.372c0.866 2.349 5.091 3.032 9.316 3.715 4.225 0.684 8.46 1.357 10.01 -0.587" stroke-width="1"></path>
    <path fill="#ffffff" stroke="#00034a" stroke-miterlimit="10" d="M18.955 26.845c-0.087 -0.337 -0.751 -0.606 -1.27 -0.693 -0.52 -0.087 -1.233 0 -1.415 0.25 -0.291 0.5022 -0.4748 1.0592 -0.54 1.636 -0.1152 0.5686 -0.1152 1.1544 0 1.723 0.087 0.337 0.751 0.606 1.271 0.693 0.52 0.087 1.232 0 1.415 -0.26 0.2924 -0.5015 0.476 -1.0589 0.539 -1.636 0.1148 -0.5652 0.1148 -1.1478 0 -1.713Z" stroke-width="1"></path>
    <path fill="#ffffff" stroke="#00034a" stroke-miterlimit="10" d="M28.617 28.404c-0.086 -0.337 -0.75 -0.606 -1.27 -0.693 -0.52 -0.086 -1.232 0 -1.415 0.26 -0.2924 0.5015 -0.476 1.0589 -0.539 1.636 -0.1213 0.5679 -0.1213 1.1551 0 1.723 0.077 0.327 0.741 0.597 1.261 0.683 0.52 0.087 1.232 0 1.415 -0.25 0.2903 -0.5032 0.4767 -1.0595 0.548 -1.636 0.1116 -0.5689 0.1116 -1.1541 0 -1.723Z" stroke-width="1"></path>
    <path fill="#ffffff" stroke="#00034a" stroke-linejoin="round" d="M18.079 13.554c-0.1864 -1.1638 -0.7746 -2.2256 -1.6625 -3.0009 -0.8878 -0.77534 -2.0191 -1.21515 -3.1975 -1.24309v-0.097c0.7794 -0.18136 1.4554 -0.66344 1.8808 -1.34116 0.4254 -0.67773 0.5657 -1.49614 0.3902 -2.27684 -0.462 -1.993 -3.041 -2.426 -5.322 -2.349 -0.18591 -0.65537 -0.45795 -1.28318 -0.809 -1.867C8.936 0.580013 7.58 0.436013 6.626 0.648013c-0.953 0.211 -2.108 0.961997 -2.156 1.847997 -0.069 0.7 -0.036 1.407 0.096 2.098C1.95 5.96001 -0.0920006 8.52001 0.879999 12.804c0.185531 1.1617 0.774361 2.221 1.663111 2.9918 0.88875 0.7708 2.02061 1.2039 3.19689 1.2232v0.096c-0.38673 0.0866 -0.75249 0.2489 -1.07622 0.4775 -0.32373 0.2286 -0.59903 0.519 -0.81003 0.8545 -0.211 0.3355 -0.35354 0.7094 -0.4194 1.1002 -0.06587 0.3908 -0.05375 0.7907 0.03565 1.1768 0.519 2.28 3.195 2.589 5.35 2.454 0.177 0.625 0.436 1.224 0.77 1.78 0.443 0.8 1.8 0.963 2.753 0.722 0.953 -0.24 2.107 -0.962 2.156 -1.847 0.0633 -0.6745 0.034 -1.3544 -0.087 -2.021 2.647 -1.28 4.725 -3.677 3.667 -8.258Z" stroke-width="1"></path>
    <path stroke="#00034a" stroke-linecap="round" stroke-linejoin="round" d="M13.219 9.271c-1.5167 0.01641 -3.0139 0.34382 -4.39899 0.962" stroke-width="1"></path>
    <path stroke="#00034a" stroke-linecap="round" stroke-linejoin="round" d="M5.74001 17.019c1.52106 0.0234 3.02684 -0.3062 4.39899 -0.963" stroke-width="1"></path>
    <path fill="#9bff00" stroke="#00034a" stroke-miterlimit="10" d="M26.817 6.034c0.114 -1.697 -0.48 -3.12 -1.33 -3.176 -0.848 -0.058 -1.629 1.272 -1.743 2.969 -0.115 1.697 0.48 3.119 1.329 3.176 0.849 0.057 1.63 -1.272 1.744 -2.969Z" stroke-width="1"></path>
    <path fill="#9bff00" stroke="#00034a" stroke-miterlimit="10" d="M31.97 8.58599c0.926 -1.427 1.097 -2.96 0.383 -3.422 -0.713 -0.462 -2.042 0.32 -2.967 1.747 -0.925 1.427 -1.096 2.96 -0.383 3.42201 0.714 0.463 2.042 -0.32 2.968 -1.74701h-0.001Z" stroke-width="1"></path>
    <path fill="#9bff00" stroke="#00034a" stroke-miterlimit="10" d="M36 13.065c1.41 -0.949 2.17 -2.29 1.696 -2.996 -0.474 -0.70601 -2.003 -0.50901 -3.415 0.44 -1.411 0.95 -2.171 2.29 -1.697 2.996 0.475 0.706 2.005 0.51 3.416 -0.44Z" stroke-width="1"></path>
  </g>
  <defs>
    <clipPath id="a">
      <path fill="#ffffff" d="M0 0h40v40H0z" stroke-width="1"></path>
    </clipPath>
  </defs>
</svg>