<svg xmlns="http://www.w3.org/2000/svg" fill="none" viewBox="0 0 40 40" id="Pile-Of-Money--Streamline-Stickies">
  <desc>
    Pile Of Money Streamline Icon: https://streamlinehq.com
  </desc>
  <path fill="#00034a" stroke="#00034a" stroke-linecap="round" stroke-miterlimit="10" d="M32.6847 9.77858c0.2834 0.27162 0.5114 0.77512 0.6502 1.58292 0.4143 0.0962 0.7314 0.2211 0.9644 0.3668 0.5144 0.3211 1.5363 0.9079 1.5363 1.562 0 0.6383 -0.6483 1.1726 -2.4224 1.354 -0.1814 1.7741 -0.7058 2.4224 -1.3451 2.4224 -0.2299 0 -1.3578 -0.7454 -1.6056 -0.9694 -0.2944 -0.2676 -0.5333 -0.7751 -0.675 -1.6017 -0.3935 -0.0912 -0.6988 -0.2102 -0.9277 -0.3469 -0.5254 -0.3152 -1.574 -0.9337 -1.574 -1.5899 0 -0.6294 0.6492 -1.1636 2.4224 -1.345 0.1814 -1.77422 0.7156 -2.42242 1.3539 -2.42242 0.226 0 1.3848 0.7602 1.6226 0.9872Z" stroke-width="1"></path>
  <path fill="#00034a" stroke="#00034a" stroke-linecap="round" stroke-miterlimit="10" d="M25.0824 2.78299c-0.5055 0 -0.9535 0.5154 -1.0774 1.908 -1.4203 0.1427 -1.907 0.5719 -1.907 1.0774 0 0.6125 1.4293 1.4838 1.9883 1.6473 0.0991 0.5154 0.2468 0.8574 0.4282 1.0665 0.2052 0.2359 1.3628 1.003 1.574 1.003 0.5154 0 0.9545 -0.5253 1.0784 -1.9079 1.3638 -0.1329 1.907 -0.562 1.907 -1.0774 0 -0.6146 -1.4273 -1.4868 -1.9893 -1.6483 -0.1289 -0.6711 -0.3459 -1.0487 -0.6066 -1.2211 -0.3172 -0.2082 -1.0992 -0.8475 -1.3946 -0.8475h-0.001Z" stroke-width="1"></path>
  <path fill="#00034a" stroke="#00034a" stroke-linecap="round" stroke-miterlimit="10" d="M32.9414 3.50849c0 -0.6274 0.5084 -1.1348 1.1348 -1.1348 0.7137 0 1.7594 0.8226 1.7594 1.5501 0 0.6274 -0.5085 1.1349 -1.1349 1.1349 -0.7137 0 -1.7593 -0.8227 -1.7593 -1.5502Z" stroke-width="1"></path>
  <path fill="#00034a" stroke="#00034a" stroke-miterlimit="10" d="M19.4853 9.54468c-1.2112 -0.0763 -5.7983 1.79402 -9.5369 3.66242 -3.7387 1.8693 -7.9541 4.3968 -8.5835 5.4078 -1.143797 1.7166 0 5.2254 1.3262 7.8579 1.1537 2.2916 3.7377 6.5962 6.7657 6.7964 1.2112 0.0862 5.7883 -1.7831 9.5369 -3.6524 3.7476 -1.8694 7.9729 -4.4058 8.6311 -5.4267 1.1061 -1.7067 -0.0486 -5.2065 -1.3639 -7.848 -1.1547 -2.3163 -3.7347 -6.58532 -6.7756 -6.79742Z" stroke-width="1"></path>
  <path fill="#9bff00" stroke="#00034a" stroke-miterlimit="10" d="M26.3234 23.192c1.1061 -1.7067 -0.0486 -5.2065 -1.3639 -7.849 -1.3162 -2.6414 -3.4244 -5.65462 -5.4742 -5.79832 -1.2112 -0.0763 -5.7983 1.79402 -9.5369 3.66242 -3.7387 1.8693 -7.9541 4.3968 -8.5835 5.4078 -1.143797 1.7167 0 5.2254 1.3262 7.8579 1.3252 2.6315 3.4423 5.6645 5.4643 5.7983 1.2112 0.0862 5.7883 -1.7841 9.5369 -3.6524 3.7476 -1.8694 7.9729 -4.4058 8.6301 -5.4267h0.001Z" stroke-width="1"></path>
  <path fill="#ffffff" stroke="#00034a" stroke-linecap="round" stroke-linejoin="round" d="M16.7864 13.8464c0.7552 1.3067 2.3585 1.8562 3.7565 1.2875 0.9069 1.1775 1.5805 2.5174 1.9843 3.9478 -1.3186 0.7751 -1.8506 2.413 -1.2389 3.815 -3.3202 1.9837 -6.7933 3.6992 -10.3864 5.1302 -0.7593 -1.3368 -2.401 -1.8908 -3.815 -1.2875 -0.9124 -1.1633 -1.5629 -2.5099 -1.907 -3.9478 1.3153 -0.778 1.8432 -2.4152 1.23 -3.815 3.3162 -1.9846 6.7861 -3.7002 10.3765 -5.1302Z" stroke-width="1"></path>
  <path fill="#9bff00" stroke="#00034a" stroke-miterlimit="10" d="M13.8298 24.0504c2.4152 0.0429 3.9712 -2.5449 2.8007 -4.658 -0.5625 -1.0157 -1.6399 -1.6377 -2.8007 -1.6171 -2.4153 0.0429 -3.87841 2.6844 -2.6336 4.7546 0.5572 0.9267 1.5524 1.5013 2.6336 1.5205Z" stroke-width="1"></path>
  <path fill="#00034a" stroke="#00034a" stroke-miterlimit="10" d="M30.5378 19.3483c-4.8309 0 -6.5367 2.0715 -6.7518 2.3332 -0.0089 0.0099 -0.0149 0.0188 -0.0198 0.0228 -0.5709 0.6958 -0.7721 3.7387 -0.7721 6.3514 0 2.6137 0.2012 5.6556 0.7731 6.3514l0.0089 0.0109c1.8297 2.3163 4.9469 3.2084 7.7846 3.2084 4.8339 0 6.5387 -2.0656 6.7518 -2.3243 0.0064 -0.0074 0.013 -0.0147 0.0198 -0.0218 0.5719 -0.6968 0.7721 -3.7387 0.7721 -6.3514 0 -2.6137 -0.2002 -5.6268 -0.7731 -6.3524l-0.0089 -0.0109c-1.8277 -2.3193 -4.9449 -3.2173 -7.7846 -3.2173Z" stroke-width="1"></path>
  <path fill="#ffffff" stroke="#00034a" stroke-miterlimit="10" d="M37.3094 21.7043c-0.0862 -0.1051 -1.7355 -2.356 -6.7716 -2.356 -5.0351 0 -6.6755 2.2509 -6.7706 2.356 -0.5719 0.6958 -0.7732 3.7387 -0.7732 6.3514 0 2.6137 0.2013 5.6556 0.7732 6.3513 0.0862 0.1051 1.7355 2.3461 6.7706 2.3461s6.6765 -2.241 6.7716 -2.3461c0.5719 -0.6958 0.7731 -3.7376 0.7731 -6.3513 0 -2.6127 -0.2012 -5.6269 -0.7731 -6.3514Z" stroke-width="1"></path>
  <path stroke="#00034a" stroke-linecap="round" stroke-miterlimit="10" d="M36.5561 23.9929c-1.0784 1.0873 -3.0805 1.7355 -6.0183 1.7355 -2.9368 0 -4.94 -0.6482 -6.0174 -1.7345" stroke-width="1"></path>
  <path stroke="#00034a" stroke-linecap="round" stroke-miterlimit="10" d="M36.5561 28.0557c-1.0784 1.0873 -3.0805 1.7355 -6.0183 1.7355 -2.9368 0 -4.94 -0.6859 -6.0174 -1.7345" stroke-width="1"></path>
  <path stroke="#00034a" stroke-linecap="round" stroke-miterlimit="10" d="M36.5561 31.5366c-1.0784 1.0874 -3.0805 1.7356 -6.0183 1.7356 -2.9368 0 -4.94 -0.6482 -6.0174 -1.7356" stroke-width="1"></path>
  <path fill="#ffffff" stroke="#00034a" stroke-miterlimit="10" d="M30.5378 23.5637c1.6959 0 3.0716 -0.5203 3.0716 -1.1636 0 -0.6423 -1.3757 -1.1636 -3.0716 -1.1636 -1.6949 0 -3.0706 0.5213 -3.0706 1.1636 0 0.6433 1.3747 1.1636 3.0706 1.1636Z" stroke-width="1"></path>
  <path fill="#9bff00" stroke="#00034a" stroke-miterlimit="10" d="M34.8295 12.5588c0 -0.6293 -0.6482 -1.1636 -2.4224 -1.345 -0.1813 -1.77412 -0.7057 -2.42242 -1.344 -2.42242 -0.6393 0 -1.1735 0.6483 -1.3549 2.42242 -1.7742 0.1814 -2.4224 0.7157 -2.4224 1.345s0.6492 1.1726 2.4224 1.354c0.1814 1.7742 0.7156 2.4224 1.3539 2.4224 0.6393 0 1.1637 -0.6482 1.345 -2.4224 1.7742 -0.1814 2.4224 -0.7156 2.4224 -1.354Z" stroke-width="1"></path>
  <path fill="#9bff00" stroke="#00034a" stroke-miterlimit="10" d="M28.0678 5.76839c0 -0.5055 -0.5154 -0.9535 -1.907 -1.0774 -0.1427 -1.4213 -0.5719 -1.908 -1.0774 -1.908s-0.9545 0.5154 -1.0784 1.908c-1.4203 0.1427 -1.907 0.5719 -1.907 1.0774s0.5254 0.9535 1.907 1.0774c0.1438 1.4213 0.563 1.908 1.0784 1.908 0.5154 0 0.9535 -0.5254 1.0774 -1.908 1.3639 -0.1328 1.907 -0.562 1.907 -1.0774Z" stroke-width="1"></path>
  <path fill="#9bff00" stroke="#00034a" stroke-linecap="round" stroke-miterlimit="10" d="M34.0762 4.64339c0.8737 0 1.4197 -0.9458 0.9829 -1.7024 -0.2028 -0.3511 -0.5774 -0.5673 -0.9829 -0.5673 -0.8736 0 -1.4196 0.9457 -0.9828 1.7023 0.2027 0.3511 0.5774 0.5674 0.9828 0.5674Z" stroke-width="1"></path>
</svg>