<svg xmlns="http://www.w3.org/2000/svg" fill="none" viewBox="0 0 24 24" id="Spaceship--Streamline-Ultimate">
  <desc>
    Spaceship Streamline Icon: https://streamlinehq.com
  </desc>
  <path fill="#000000" fill-rule="evenodd" d="M12 2.22992c-3.46555 0 -6.23212 2.76657 -6.23212 6.23214v5.59374H18.2322V8.56251c0 -3.57506 -2.7756 -6.33259 -6.2322 -6.33259Zm8.2322 11.82588h0.5066c1.4063 0 2.5112 1.1049 2.5112 2.5112v1.5067c0 0.8035 -0.7031 1.5067 -1.5067 1.5067s-1.5067 -0.7032 -1.5067 -1.5067v-0.8036H18.529c-0.4018 1.0045 -1.1049 1.808 -1.808 2.5112v1.808h0.8036c0.7031 0 1.2053 0.6027 1.2053 1.2054 0 0.6026 -0.6027 1.2053 -1.2053 1.2053H13v-4c0 -0.5523 -0.4477 -1 -1 -1s-1 0.4477 -1 1v4l-4.52455 0c-0.70313 0 -1.20536 -0.6027 -1.20536 -1.2053 0 -0.6027 0.60268 -1.2054 1.20536 -1.2054h0.80357v-1.808c-0.80357 -0.7032 -1.40625 -1.5067 -1.80804 -2.5112H3.76339v0.8036c0 0.8035 -0.70312 1.5067 -1.50669 1.5067 -0.80357 0 -1.5067 -0.7032 -1.5067 -1.5067V16.567c0 -1.4063 1.10491 -2.5112 2.51116 -2.5112h0.50672V8.46206c0 -4.57014 3.662 -8.232141 8.23212 -8.232141 4.5792 0 8.2322 3.671041 8.2322 8.332591v5.49329ZM16 8.2625c0 2.1 -1.8 4.8 -4 4.8s-4 -2.7 -4 -4.8c0 -2.1 1.8 -3.7 4 -3.7s4 1.6 4 3.7Zm-1.5441 0.95558c0.3905 -0.39052 0.4538 -0.96037 0.1414 -1.27279 -0.3124 -0.31241 -0.8822 -0.24909 -1.2728 0.14143 -0.3905 0.39052 -0.4538 0.96036 -0.1414 1.27277 0.3124 0.31242 0.8823 0.24911 1.2728 -0.14141Zm-3.7905 -1.10864c0.3905 0.39052 0.4538 0.96035 0.1414 1.27277 -0.3124 0.31242 -0.88228 0.2491 -1.2728 -0.14142s-0.45383 -0.96036 -0.14141 -1.27278c0.31241 -0.31242 0.88221 -0.24909 1.27281 0.14143Z" clip-rule="evenodd" stroke-width="1"></path>
</svg>