<svg xmlns="http://www.w3.org/2000/svg" fill="none" viewBox="0 0 14 14"><g id="ai-chip-spark--chip-processor-artificial-intelligence-ai"><path id="Vector" fill="#37d7ff" d="M10.5 2.5h-7a1 1 0 0 0-1 1v7a1 1 0 0 0 1 1h7a1 1 0 0 0 1-1v-7a1 1 0 0 0-1-1Z"></path><path id="Vector_2" stroke="#3e3e3e" stroke-linecap="round" stroke-linejoin="round" d="M10.5 2.5h-7a1 1 0 0 0-1 1v7a1 1 0 0 0 1 1h7a1 1 0 0 0 1-1v-7a1 1 0 0 0-1-1Z"></path><path id="Vector 893" stroke="#3e3e3e" stroke-linecap="round" stroke-linejoin="round" d="M2.5 8.833H.679"></path><path id="Vector 896" stroke="#3e3e3e" stroke-linecap="round" stroke-linejoin="round" d="M13.321 8.833H11.5"></path><path id="Vector 895" stroke="#3e3e3e" stroke-linecap="round" stroke-linejoin="round" d="M2.5 5.167H.679"></path><path id="Vector 897" stroke="#3e3e3e" stroke-linecap="round" stroke-linejoin="round" d="M13.321 5.167H11.5"></path><path id="Vector 898" stroke="#3e3e3e" stroke-linecap="round" stroke-linejoin="round" d="M5.167 2.5V.679"></path><path id="Vector 899" stroke="#3e3e3e" stroke-linecap="round" stroke-linejoin="round" d="M5.167 13.321V11.5"></path><path id="Vector 900" stroke="#3e3e3e" stroke-linecap="round" stroke-linejoin="round" d="M8.833 2.5V.679"></path><path id="Vector 901" stroke="#3e3e3e" stroke-linecap="round" stroke-linejoin="round" d="M8.833 13.321V11.5"></path><path id="Vector 2136" fill="#ffffff" d="M4.667 7.25c-.281-.048-.281-.452 0-.5a2.546 2.546 0 0 0 2.05-1.965l.018-.077c.06-.278.457-.28.52-.003l.02.09a2.56 2.56 0 0 0 2.057 1.953c.283.05.283.455 0 .504a2.56 2.56 0 0 0-2.057 1.952l-.02.09c-.063.278-.46.276-.52-.002l-.017-.077a2.546 2.546 0 0 0-2.051-1.964Z"></path><path id="Vector 2137" stroke="#3e3e3e" stroke-linecap="round" stroke-linejoin="round" d="M4.667 7.25c-.281-.048-.281-.452 0-.5a2.546 2.546 0 0 0 2.05-1.965l.018-.077c.06-.278.457-.28.52-.003l.02.09a2.56 2.56 0 0 0 2.057 1.953c.283.05.283.455 0 .504a2.56 2.56 0 0 0-2.057 1.952l-.02.09c-.063.278-.46.276-.52-.002l-.017-.077a2.546 2.546 0 0 0-2.051-1.964Z"></path></g></svg>