<svg xmlns="http://www.w3.org/2000/svg" fill="none" viewBox="0 0 14 14" id="Ai-Cloud-Spark--Streamline-Core">
  <desc>
    Ai Cloud Spark Streamline Icon: https://streamlinehq.com
  </desc>
  <g id="ai-cloud-spark--cloud-internet-server-network-artificial-intelligence-ai">
    <path id="Vector" fill="#d7e0ff" d="M11.2669 4.19366c0.0307 0.03548 0.0708 0.06146 0.1157 0.07486 0.6504 0.15322 1.222 0.53959 1.6066 1.08595 0.3846 0.54636 0.5555 1.21478 0.4804 1.8787 -0.0752 0.66391 -0.3912 1.27723 -0.8881 1.72382 -0.497 0.44659 -1.1405 0.69544 -1.8086 0.69944H3.91966c-0.91966 0 -1.67758 -0.22448 -2.31508 -0.78175C0.967092 8.3174 0.577086 7.52971 0.520362 6.68489c-0.056724 -0.84483 0.224481 -1.67758 0.781758 -2.31508 0.27593 -0.31565 0.61133 -0.57387 0.98706 -0.7599 0.37572 -0.18603 0.78441 -0.29623 1.20272 -0.32432 0.04342 0.00095 0.08619 -0.01054 0.12329 -0.03312 0.03709 -0.02258 0.06695 -0.0553 0.08604 -0.0943 0.28857 -0.83636 0.85515 -1.54852 1.60524 -2.01771 0.7501 -0.469191 1.63837 -0.667053 2.51669 -0.56059 0.87832 0.106463 1.69359 0.51082 2.30984 1.14563 0.6163 0.63481 0.9963 1.46171 1.0767 2.34279 0.0067 0.0464 0.0266 0.0899 0.0572 0.12537Z" stroke-width="1"></path>
    <path id="Vector_2" stroke="#4147d5" stroke-linecap="round" stroke-linejoin="round" d="M3 9.56682c-0.52267 -0.11158 -0.98411 -0.33259 -1.39542 -0.69214C0.967092 8.3174 0.577086 7.52971 0.520362 6.68489c-0.056724 -0.84483 0.224481 -1.67758 0.781758 -2.31508 0.27593 -0.31565 0.61133 -0.57387 0.98706 -0.7599 0.37572 -0.18603 0.78441 -0.29623 1.20272 -0.32432 0.04342 0.00095 0.08619 -0.01054 0.12329 -0.03312 0.03709 -0.02258 0.06695 -0.0553 0.08604 -0.0943 0.28857 -0.83636 0.85515 -1.54852 1.60524 -2.01771 0.7501 -0.469191 1.63837 -0.667053 2.51669 -0.56059 0.87832 0.106463 1.69359 0.51082 2.30984 1.14563 0.6163 0.63481 0.9963 1.46171 1.0767 2.34279 0.0067 0.0464 0.0266 0.0899 0.0572 0.12537 0.0307 0.03548 0.0708 0.06146 0.1157 0.07486 0.6504 0.15322 1.222 0.53959 1.6066 1.08595 0.3846 0.54636 0.5555 1.21478 0.4804 1.8787 -0.0752 0.66391 -0.3912 1.27723 -0.8881 1.72382 -0.3875 0.34816 -0.864 0.57615 -1.3718 0.66162" stroke-width="1"></path>
    <path id="Vector 2136" fill="#ffffff" d="M4.52772 11.0628c-0.29811 -0.0518 -0.29811 -0.4798 0 -0.5317 1.07999 -0.1878 1.93897 -1.01045 2.17339 -2.0813l0.01796 -0.08209c0.0645 -0.29462 0.48401 -0.29646 0.55108 -0.0024l0.02182 0.09565c0.24309 1.06581 1.1023 1.88144 2.1793 2.06884 0.29962 0.0521 0.29962 0.4822 0 0.5344 -1.077 0.1873 -1.93621 1.003 -2.1793 2.0688l-0.02182 0.0957c-0.06707 0.294 -0.48658 0.2922 -0.55108 -0.0025l-0.01796 -0.082c-0.23442 -1.0709 -1.0934 -1.8935 -2.17339 -2.0814Z" stroke-width="1"></path>
    <path id="Vector 2137" stroke="#4147d5" stroke-linecap="round" stroke-linejoin="round" d="M4.52772 11.0628c-0.29811 -0.0518 -0.29811 -0.4798 0 -0.5317 1.07999 -0.1878 1.93897 -1.01045 2.17339 -2.0813l0.01796 -0.08209c0.0645 -0.29462 0.48401 -0.29646 0.55108 -0.0024l0.02182 0.09565c0.24309 1.06581 1.1023 1.88144 2.1793 2.06884 0.29962 0.0521 0.29962 0.4822 0 0.5344 -1.077 0.1873 -1.93621 1.003 -2.1793 2.0688l-0.02182 0.0957c-0.06707 0.294 -0.48658 0.2922 -0.55108 -0.0025l-0.01796 -0.082c-0.23442 -1.0709 -1.0934 -1.8935 -2.17339 -2.0814Z" stroke-width="1"></path>
  </g>
</svg>