<svg xmlns="http://www.w3.org/2000/svg" fill="none" viewBox="0 0 14 14" id="Ai-Generate-Landscape-Image-Spark--Streamline-Core">
  <desc>
    Ai Generate Landscape Image Spark Streamline Icon: https://streamlinehq.com
  </desc>
  <g id="ai-generate-landscape-image-spark--picture-photography-photo-image-artificial-intelligence-ai">
    <path id="Vector" fill="#d7e0ff" d="M10.5764 9.62903c0 0.55227 -0.4478 0.99997 -1.00005 0.99997h-8c-0.26521 0 -0.51957 -0.1053 -0.707102 -0.2929 -0.187536 -0.1875 -0.292893 -0.44186 -0.292893 -0.70707v-8c0 -0.26522 0.105357 -0.51957 0.292893 -0.707108 0.187532 -0.187537 0.441892 -0.292894 0.707102 -0.292894h8c0.26522 0 0.51955 0.105357 0.70715 0.292894 0.1875 0.187538 0.2929 0.441888 0.2929 0.707108v8Z" stroke-width="1"></path>
    <path id="Vector_2" fill="#ffffff" d="M6.32635 5.62903c0.69036 0 1.25 -0.55965 1.25 -1.25 0 -0.69036 -0.55964 -1.25 -1.25 -1.25 -0.69035 0 -1.25 0.55964 -1.25 1.25 0 0.69035 0.55965 1.25 1.25 1.25Z" stroke-width="1"></path>
    <path id="Intersect" fill="#ffffff" d="M7.74205 10.629h-6.1657c-0.26521 0 -0.51957 -0.1054 -0.707102 -0.2929 -0.187536 -0.1876 -0.292893 -0.44193 -0.292893 -0.70715V6.73281c0.377607 -0.06826 0.766565 -0.1039 1.163835 -0.1039 2.70397 0 5.02231 1.65107 6.00186 4.00009Z" stroke-width="1"></path>
    <path id="Intersect_2" stroke="#4147d5" stroke-linecap="round" stroke-linejoin="round" d="M0.576355 6.73293c0.377607 -0.06826 0.766565 -0.1039 1.163835 -0.1039 1.57942 0 3.02726 0.56332 4.15358 1.5" stroke-width="1"></path>
    <path id="Vector_3" stroke="#4147d5" stroke-linecap="round" stroke-linejoin="round" d="M5.07635 10.629h-3.5c-0.26521 0 -0.51957 -0.1053 -0.707102 -0.2929 -0.187536 -0.1875 -0.292893 -0.44186 -0.292893 -0.70707v-8c0 -0.26522 0.105357 -0.51957 0.292893 -0.707108 0.187532 -0.187537 0.441892 -0.292894 0.707102 -0.292894h8c0.26522 0 0.51955 0.105357 0.70715 0.292894 0.1875 0.187538 0.2929 0.441888 0.2929 0.707108v3.5" stroke-width="1"></path>
    <path id="Vector_4" stroke="#4147d5" stroke-linecap="round" stroke-linejoin="round" d="M6.32635 5.62903c0.69036 0 1.25 -0.55965 1.25 -1.25 0 -0.69036 -0.55964 -1.25 -1.25 -1.25 -0.69035 0 -1.25 0.55964 -1.25 1.25 0 0.69035 0.55965 1.25 1.25 1.25Z" stroke-width="1"></path>
    <path id="Vector 2136" fill="#ffffff" d="M7.33955 10.563c-0.35093 -0.0611 -0.35093 -0.56485 0 -0.6259 1.27136 -0.22118 2.28255 -1.18955 2.5585 -2.45015l0.02115 -0.09663c0.07593 -0.34683 0.5698 -0.34899 0.6487 -0.00284l0.0257 0.11261c0.2862 1.25466 1.2976 2.21484 2.5655 2.43541 0.3527 0.06137 0.3527 0.5677 0 0.6291 -1.2679 0.2205 -2.2793 1.1807 -2.5655 2.4354l-0.0257 0.1126c-0.0789 0.3461 -0.57277 0.344 -0.6487 -0.0028l-0.02115 -0.0967c-0.27595 -1.2606 -1.28714 -2.2289 -2.5585 -2.4501Z" stroke-width="1"></path>
    <path id="Vector 2137" stroke="#4147d5" stroke-linecap="round" stroke-linejoin="round" d="M7.33955 10.563c-0.35093 -0.0611 -0.35093 -0.56485 0 -0.6259 1.27136 -0.22118 2.28255 -1.18955 2.5585 -2.45015l0.02115 -0.09663c0.07593 -0.34683 0.5698 -0.34899 0.6487 -0.00284l0.0257 0.11261c0.2862 1.25466 1.2976 2.21484 2.5655 2.43541 0.3527 0.06137 0.3527 0.5677 0 0.6291 -1.2679 0.2205 -2.2793 1.1807 -2.5655 2.4354l-0.0257 0.1126c-0.0789 0.3461 -0.57277 0.344 -0.6487 -0.0028l-0.02115 -0.0967c-0.27595 -1.2606 -1.28714 -2.2289 -2.5585 -2.4501Z" stroke-width="1"></path>
  </g>
</svg>