<svg xmlns="http://www.w3.org/2000/svg" fill="none" viewBox="0 0 14 14" id="Artificial-Intelligence-Spark--Streamline-Core">
  <desc>
    Artificial Intelligence Spark Streamline Icon: https://streamlinehq.com
  </desc>
  <g id="artificial-intelligence-spark--brain-thought-ai-automated-ai">
    <path id="Union" fill="#d7e0ff" d="M9.38 1.553A2.38 2.38 0 0 0 7 3.933l0 6.47a2.724 2.724 0 1 0 5.439 -0.229c0.567 -0.609 0.924 -1.8 0.924 -2.794 0 -1.354 -0.664 -2.671 -1.617 -3.189A2.38 2.38 0 0 0 9.38 1.553Z" stroke-width="1"></path>
    <path id="Union_2" fill="#d7e0ff" d="M4.62 1.553A2.38 2.38 0 0 1 7 3.933l0 6.47a2.724 2.724 0 1 1 -5.439 -0.229C0.994 9.566 0.636 8.374 0.636 7.38c0 -1.354 0.665 -2.671 1.617 -3.189A2.38 2.38 0 0 1 4.62 1.553Z" stroke-width="1"></path>
    <path id="Union_3" stroke="#4147d5" stroke-linecap="round" stroke-linejoin="round" d="m7 6.433 0 3.97a2.724 2.724 0 1 1 -5.439 -0.229C0.994 9.566 0.636 8.374 0.636 7.38c0 -1.354 0.665 -2.671 1.617 -3.189a2.38 2.38 0 0 1 3.902 -2.076" stroke-width="1"></path>
    <path id="Vector 605" stroke="#4147d5" stroke-linecap="round" stroke-linejoin="round" d="M3.511 5.809c-0.35 -0.08 -1.141 -0.6 -1.26 -1.612" stroke-width="1"></path>
    <path id="Vector 606" stroke="#4147d5" stroke-linecap="round" stroke-linejoin="round" d="M2.29 8.746c-0.356 0.281 -0.64 0.917 -0.731 1.427" stroke-width="1"></path>
    <path id="Union_4" stroke="#4147d5" stroke-linecap="round" stroke-linejoin="round" d="M7 10.403a2.724 2.724 0 1 0 5.439 -0.229c0.567 -0.609 0.924 -1.8 0.924 -2.794 0 -0.434 -0.068 -0.864 -0.192 -1.265" stroke-width="1"></path>
    <path id="Vector 613" stroke="#4147d5" stroke-linecap="round" stroke-linejoin="round" d="M11.71 8.746c0.356 0.281 0.64 0.917 0.731 1.427" stroke-width="1"></path>
    <path id="Vector 2136" fill="#ffffff" d="M7.075 4.307c-0.35 -0.062 -0.35 -0.565 0 -0.626a3.176 3.176 0 0 0 2.559 -2.45l0.02 -0.097c0.077 -0.347 0.57 -0.35 0.65 -0.003l0.025 0.113a3.193 3.193 0 0 0 2.566 2.435c0.352 0.061 0.352 0.568 0 0.63a3.193 3.193 0 0 0 -2.566 2.435l-0.026 0.112c-0.079 0.346 -0.572 0.344 -0.648 -0.003l-0.021 -0.096a3.176 3.176 0 0 0 -2.559 -2.45Z" stroke-width="1"></path>
    <path id="Vector 2137" stroke="#4147d5" stroke-linecap="round" stroke-linejoin="round" d="M7.075 4.307c-0.35 -0.062 -0.35 -0.565 0 -0.626a3.176 3.176 0 0 0 2.559 -2.45l0.02 -0.097c0.077 -0.347 0.57 -0.35 0.65 -0.003l0.025 0.113a3.193 3.193 0 0 0 2.566 2.435c0.352 0.061 0.352 0.568 0 0.63a3.193 3.193 0 0 0 -2.566 2.435l-0.026 0.112c-0.079 0.346 -0.572 0.344 -0.648 -0.003l-0.021 -0.096a3.176 3.176 0 0 0 -2.559 -2.45Z" stroke-width="1"></path>
  </g>
</svg>