<svg xmlns="http://www.w3.org/2000/svg" fill="none" viewBox="0 0 24 24" id="Corporate-Social-Media--Streamline-Ultimate">
  <desc>
    Corporate Social Media Streamline Icon: https://streamlinehq.com
  </desc>
  <path stroke="#000000" stroke-linecap="round" stroke-linejoin="round" d="M14.1035 1.96516C8.16826 -1.45453 0.756843 2.83323 0.762943 9.6831c0.005101 5.761 5.400047 9.9986 10.998257 8.639" stroke-width="1"></path>
  <path stroke="#000000" stroke-linecap="round" stroke-linejoin="round" d="M1.25928 12.6372H10.903" stroke-width="1"></path>
  <path stroke="#000000" stroke-linecap="round" stroke-linejoin="round" d="M1.25928 6.70508H10.903" stroke-width="1"></path>
  <path stroke="#000000" stroke-linecap="round" stroke-linejoin="round" d="M7.73137 0.981445C6.13503 6.74333 6.36995 12.8589 8.40362 18.4813" stroke-width="1"></path>
  <path stroke="#000000" stroke-linecap="round" stroke-linejoin="round" d="M11.5704 0.981445c0.3286 1.181995 0.5812 2.383695 0.7563 3.597895" stroke-width="1"></path>
  <path stroke="#000000" stroke-linecap="round" stroke-linejoin="round" d="M22.9987 23.0186H1.00128" stroke-width="1"></path>
  <path stroke="#000000" stroke-linecap="round" stroke-linejoin="round" d="M14.1005 23.0183h8.8982V9.02827c-0.0102 -0.26422 -0.23 -0.47164 -0.4943 -0.46664h-7.9096c-0.2645 -0.0056 -0.4846 0.20222 -0.4943 0.46664V23.0183Z" stroke-width="1"></path>
  <path stroke="#000000" stroke-linecap="round" stroke-linejoin="round" d="M16.326 5.83304c0.0381 -0.37243 0.3687 -0.64485 0.7415 -0.61095h2.9661c0.3729 -0.0339 0.7035 0.23852 0.7415 0.61095v2.72883H16.326V5.83304Z" stroke-width="1"></path>
  <path stroke="#000000" stroke-linecap="round" stroke-linejoin="round" d="M18.5496 5.22189V1.6626" stroke-width="1"></path>
  <path stroke="#000000" stroke-linecap="round" stroke-linejoin="round" d="M20.0327 11.9849h-2.9662" stroke-width="1"></path>
  <path stroke="#000000" stroke-linecap="round" stroke-linejoin="round" d="M20.0327 15.5786h-2.9662" stroke-width="1"></path>
  <path stroke="#000000" stroke-linecap="round" stroke-linejoin="round" d="M20.0327 19.1841h-2.9662" stroke-width="1"></path>
</svg>