<svg xmlns="http://www.w3.org/2000/svg" fill="none" viewBox="0 0 14 14" id="Yin-Yang-Symbol--Streamline-Core">
  <desc>
    Yin Yang Symbol Streamline Icon: https://streamlinehq.com
  </desc>
  <g id="yin-yang-symbol--religion-tao-yin-yang-taoism-culture-symbol">
    <path id="Vector" stroke="#000000" stroke-linecap="round" stroke-linejoin="round" d="M7 13.5c3.5899 0 6.5 -2.9101 6.5 -6.5C13.5 3.41015 10.5899 0.5 7 0.5 3.41015 0.5 0.5 3.41015 0.5 7c0 3.5899 2.91015 6.5 6.5 6.5Z" stroke-width="1"></path>
    <path id="Vector_2" stroke="#000000" stroke-linecap="round" stroke-linejoin="round" d="M7.00005 0.5s-4.07 3.59 0 6.5c3.50005 2.5 0 6.5 0 6.5" stroke-width="1"></path>
    <path id="Vector_3" stroke="#000000" stroke-linecap="round" stroke-linejoin="round" d="M9 5.5c0.55228 0 1 -0.44772 1 -1s-0.44772 -1 -1 -1 -1 0.44772 -1 1 0.44772 1 1 1Z" stroke-width="1"></path>
    <path id="Vector_4" stroke="#000000" stroke-linecap="round" stroke-linejoin="round" d="M5 10.5c0.55228 0 1 -0.4477 1 -1 0 -0.55228 -0.44772 -1 -1 -1s-1 0.44772 -1 1c0 0.5523 0.44772 1 1 1Z" stroke-width="1"></path>
  </g>
</svg>