<svg xmlns="http://www.w3.org/2000/svg" viewBox="0 0 14 14">
  <g>
    <circle cx="6.75" cy="3.75" r="1.25" style="fill: #000001"/>
    <g>
      <path d="M13.92,10.78a.52.52,0,0,0,0-.56C13.83,10.09,11.72,7,9,7s-4.83,3.09-4.92,3.22a.52.52,0,0,0,0,.56C4.17,10.91,6.28,14,9,14S13.83,10.91,13.92,10.78ZM9,11.75a1.25,1.25,0,1,1,1.25-1.25A1.25,1.25,0,0,1,9,11.75Z" style="fill: #000001"/>
      <path d="M2.84,9.38A11.39,11.39,0,0,1,5.3,6.84a.29.29,0,0,0,.11-.18.31.31,0,0,0-.07-.2l-1-1.11a1.13,1.13,0,0,0-1.55-.06L1.5,6.36V1.75a.25.25,0,0,1,.25-.25h7A.25.25,0,0,1,9,1.75V5.26a.25.25,0,0,0,.24.25,4.27,4.27,0,0,1,.95.14.28.28,0,0,0,.22-.05.25.25,0,0,0,.09-.2V1.25A1.25,1.25,0,0,0,9.25,0h-8A1.25,1.25,0,0,0,0,1.25v8A1.25,1.25,0,0,0,1.25,10.5h1a.25.25,0,0,0,.25-.22A2.19,2.19,0,0,1,2.84,9.38Z" style="fill: #000001"/>
    </g>
  </g>
</svg>
