<svg xmlns="http://www.w3.org/2000/svg" viewBox="0 0 14 14">
  <g>
    <circle cx="9" cy="5" r="2" style="fill: #000001"/>
    <path d="M14,1.25A1.25,1.25,0,0,0,12.75,0H1.25A1.25,1.25,0,0,0,0,1.25v11.5A1.25,1.25,0,0,0,1.25,14h11.5A1.25,1.25,0,0,0,14,12.75Zm-1.75.25a.25.25,0,0,1,.25.25V9.28a.23.23,0,0,1-.08.18.26.26,0,0,1-.19.07c-.24,0-.48,0-.73,0A9.15,9.15,0,0,0,9,9.83a.23.23,0,0,0-.17.15.26.26,0,0,0,0,.23,9.77,9.77,0,0,1,1,1.95.31.31,0,0,1,0,.23.26.26,0,0,1-.21.11H8.58a.25.25,0,0,1-.23-.15A8,8,0,0,0,1.73,7.53a.25.25,0,0,1-.23-.25V1.75a.25.25,0,0,1,.25-.25Z" style="fill: #000001"/>
  </g>
</svg>
