<svg xmlns="http://www.w3.org/2000/svg" fill="none" viewBox="0 0 24 24" id="Common-File-Module-1--Streamline-Ultimate">
  <desc>
    Common File Module 1 Streamline Icon: https://streamlinehq.com
  </desc>
  <path stroke="#000000" stroke-linecap="round" stroke-linejoin="round" d="M12.25 18.75h2.5s1 0 1 1v2.5s0 1 -1 1h-2.5s-1 0 -1 -1v-2.5s0 -1 1 -1Z" stroke-width="1.5"></path>
  <path stroke="#000000" stroke-linecap="round" stroke-linejoin="round" d="M16 11.25h2.5s1 0 1 1v2.5s0 1 -1 1H16s-1 0 -1 -1v-2.5s0 -1 1 -1Z" stroke-width="1.5"></path>
  <path stroke="#000000" stroke-linecap="round" stroke-linejoin="round" d="M19.75 18.75h2.5s1 0 1 1v2.5s0 1 -1 1h-2.5s-1 0 -1 -1v-2.5s0 -1 1 -1Z" stroke-width="1.5"></path>
  <path stroke="#000000" stroke-linecap="round" stroke-linejoin="round" d="M8.25 20.25h-6c-0.39782 0 -0.77936 -0.158 -1.06066 -0.4393C0.908035 19.5294 0.75 19.1478 0.75 18.75V2.25c0 -0.39782 0.158035 -0.77936 0.43934 -1.06066C1.47064 0.908035 1.85218 0.75 2.25 0.75h10.629c0.3975 0.000085 0.7788 0.157982 1.06 0.439l2.872 2.872c0.281 0.2812 0.4389 0.66245 0.439 1.06V8.25" stroke-width="1.5"></path>
</svg>