<svg xmlns="http://www.w3.org/2000/svg" fill="none" viewBox="0 0 24 24" id="Common-File-Edit--Streamline-Ultimate">
  <desc>
    Common File Edit Streamline Icon: https://streamlinehq.com
  </desc>
  <path stroke="#000000" stroke-linecap="round" stroke-linejoin="round" d="M22.63 14.87 15 22.5l-3.75 0.75 0.75 -3.75 7.63 -7.63c0.1963 -0.1967 0.4295 -0.3527 0.6862 -0.4591 0.2567 -0.1065 0.5319 -0.1613 0.8098 -0.1613 0.2779 0 0.5531 0.0548 0.8098 0.1613 0.2567 0.1064 0.4899 0.2624 0.6862 0.4591l0.008 0.008c0.1967 0.1963 0.3527 0.4295 0.4591 0.6862 0.1065 0.2567 0.1613 0.5319 0.1613 0.8098 0 0.2779 -0.0548 0.5531 -0.1613 0.8097 -0.1064 0.2567 -0.2624 0.4899 -0.4591 0.6863Z" stroke-width="1"></path>
  <path stroke="#000000" stroke-linecap="round" stroke-linejoin="round" d="M8.25 20.25h-6c-0.39782 0 -0.77936 -0.158 -1.06066 -0.4393C0.908035 19.5294 0.75 19.1478 0.75 18.75V2.25c0 -0.39782 0.158035 -0.77936 0.43934 -1.06066C1.47064 0.908035 1.85218 0.75 2.25 0.75h10.629c0.3975 0.000085 0.7788 0.157982 1.06 0.439l2.872 2.872c0.281 0.2812 0.4389 0.66245 0.439 1.06V8.25" stroke-width="1"></path>
</svg>