<svg xmlns="http://www.w3.org/2000/svg" fill="none" viewBox="0 0 24 24" id="Common-File-Text-Add--Streamline-Ultimate">
  <desc>
    Common File Text Add Streamline Icon: https://streamlinehq.com
  </desc>
  <path stroke="#000000" stroke-linecap="round" stroke-linejoin="round" d="M11.25 17.25c0 1.5913 0.6321 3.1174 1.7574 4.2426 1.1252 1.1253 2.6513 1.7574 4.2426 1.7574 1.5913 0 3.1174 -0.6321 4.2426 -1.7574 1.1253 -1.1252 1.7574 -2.6513 1.7574 -4.2426 0 -1.5913 -0.6321 -3.1174 -1.7574 -4.2426 -1.1252 -1.1253 -2.6513 -1.7574 -4.2426 -1.7574 -1.5913 0 -3.1174 0.6321 -4.2426 1.7574 -1.1253 1.1252 -1.7574 2.6513 -1.7574 4.2426Z" stroke-width="1.5"></path>
  <path stroke="#000000" stroke-linecap="round" stroke-linejoin="round" d="M17.25 14.25v6" stroke-width="1.5"></path>
  <path stroke="#000000" stroke-linecap="round" stroke-linejoin="round" d="M14.25 17.25h6" stroke-width="1.5"></path>
  <path stroke="#000000" stroke-linecap="round" stroke-linejoin="round" d="M3.75 6.75h10.5" stroke-width="1.5"></path>
  <path stroke="#000000" stroke-linecap="round" stroke-linejoin="round" d="M3.75 11.25h6" stroke-width="1.5"></path>
  <path stroke="#000000" stroke-linecap="round" stroke-linejoin="round" d="M3.75 15.75H7.5" stroke-width="1.5"></path>
  <path stroke="#000000" stroke-linecap="round" stroke-linejoin="round" d="M7.5 20.25H2.25c-0.39782 0 -0.77936 -0.158 -1.06066 -0.4393C0.908035 19.5294 0.75 19.1478 0.75 18.75V2.25c0 -0.39782 0.158035 -0.77936 0.43934 -1.06066C1.47064 0.908035 1.85218 0.75 2.25 0.75h10.629c0.3975 0.000085 0.7788 0.157982 1.06 0.439l2.872 2.872c0.281 0.2812 0.4389 0.66245 0.439 1.06V7.5" stroke-width="1.5"></path>
</svg>