<svg xmlns="http://www.w3.org/2000/svg" fill="none" viewBox="0 0 14 14" id="Chat-Bubble-Oval-Smiley-2--Streamline-Core-Neon">
  <desc>
    Chat Bubble Oval Smiley 2 Streamline Icon: https://streamlinehq.com
  </desc>
  <g id="chat-bubble-oval-smiley-2--messages-message-bubble-chat-oval-smiley-smile">
    <path id="Ellipse 1144" stroke="#c71dff" stroke-linecap="round" stroke-linejoin="round" d="M4.14472 12.8409C5.00659 13.263 5.97562 13.5 7 13.5c3.5899 0 6.5 -2.9101 6.5 -6.5C13.5 3.41015 10.5899 0.5 7 0.5 3.41015 0.5 0.5 3.41015 0.5 7c0 1.33261 0.40102 2.57155 1.08896 3.6027m2.55576 2.2382L0.5 13.5l1.08896 -2.8973m2.55576 2.2382L4.15 12.84m-2.56104 -2.2373L1.59 10.6" stroke-width="1"></path>
    <g id="Group 623">
      <path id="Vector" stroke="#000cfe" stroke-linecap="round" stroke-linejoin="round" d="M4.75 5c-0.13807 0 -0.25 -0.11193 -0.25 -0.25s0.11193 -0.25 0.25 -0.25" stroke-width="1"></path>
      <path id="Vector_2" stroke="#000cfe" stroke-linecap="round" stroke-linejoin="round" d="M4.75 5c0.13807 0 0.25 -0.11193 0.25 -0.25s-0.11193 -0.25 -0.25 -0.25" stroke-width="1"></path>
    </g>
    <g id="Group 624">
      <path id="Vector_3" stroke="#000cfe" stroke-linecap="round" stroke-linejoin="round" d="M9.25 5C9.11193 5 9 4.88807 9 4.75s0.11193 -0.25 0.25 -0.25" stroke-width="1"></path>
      <path id="Vector_4" stroke="#000cfe" stroke-linecap="round" stroke-linejoin="round" d="M9.25 5c0.13807 0 0.25 -0.11193 0.25 -0.25s-0.11193 -0.25 -0.25 -0.25" stroke-width="1"></path>
    </g>
    <path id="Ellipse 650" stroke="#000cfe" stroke-linecap="round" stroke-linejoin="round" d="M7 11c1.933 0 3.5 -1.567 3.5 -3.5h-7C3.5 9.433 5.067 11 7 11Z" stroke-width="1"></path>
  </g>
</svg>