<svg xmlns="http://www.w3.org/2000/svg" fill="none" viewBox="0 0 48 48" id="Drakkar--Streamline-Kameleon">
  <desc>
    Drakkar Streamline Icon: https://streamlinehq.com
  </desc>
  <path fill="#25b7d3" d="M24 47.9977c13.255 0 24 -10.7445 24 -23.9988C48 10.7445 37.255 0 24 0S0 10.7445 0 23.9989c0 13.2543 10.745 23.9988 24 23.9988Z" stroke-width="1"></path>
  <path fill="#df2c2c" d="M36.218 21.3803s0.8727 2.6181 -12.2182 2.6181 -12.2182 -2.6181 -12.2182 -2.6181l1.7455 -7.8542h20.9454l1.7455 7.8542Z" stroke-width="1"></path>
  <path fill="#fa5655" d="m13.527 13.5261 -1.7455 7.8542s-0.3181 0.9726 2.3939 1.7323l9.5869 -9.5865H13.527Z" stroke-width="1"></path>
  <path fill="#692e19" d="M23.827 31.068c0.0203 -0.0271 0.0466 -0.0491 0.0769 -0.0643 0.0303 -0.0151 0.0637 -0.023 0.0976 -0.023h0.0044c0.0646 0 0.1252 0.0305 0.1636 0.082 0.4735 0.6324 1.0843 1.1492 1.7864 1.5115 0.7021 0.3622 1.4772 0.5605 2.267 0.5799l3.0179 -5.432c0.0671 -0.1214 0.1044 -0.257 0.1088 -0.3956 0.0043 -0.1387 -0.0244 -0.2764 -0.0838 -0.4017 -0.0594 -0.1253 -0.1477 -0.2348 -0.2578 -0.3192 -0.11 -0.0844 -0.2386 -0.1415 -0.3751 -0.1664 -2.074 -0.3739 -4.148 -1.1126 -6.2216 -2.2166 -0.1264 -0.0672 -0.2673 -0.1024 -0.4104 -0.1025 -0.1431 -0.0001 -0.284 0.035 -0.4104 0.1021 -2.0741 1.1039 -4.1481 1.8431 -6.2221 2.217 -0.1365 0.0249 -0.2652 0.0819 -0.3753 0.1663 -0.1101 0.0844 -0.1985 0.1938 -0.2579 0.3192 -0.0595 0.1253 -0.0882 0.263 -0.0839 0.4017 0.0043 0.1386 0.0416 0.2743 0.1088 0.3957l3.0179 5.432c0.7886 -0.0194 1.5626 -0.2172 2.2638 -0.5785 0.7013 -0.3613 1.3116 -0.8767 1.7852 -1.5076Z" stroke-width="1"></path>
  <path fill="#9ce5f4" d="M37.9634 37.962v-4.6214c-0.0001 -0.0308 -0.0067 -0.0613 -0.0194 -0.0894 -0.0127 -0.0281 -0.0312 -0.0532 -0.0542 -0.0737 -0.0231 -0.0204 -0.0502 -0.0358 -0.0797 -0.0451 -0.0294 -0.0092 -0.0604 -0.0122 -0.0911 -0.0086 -0.9141 0.1118 -1.8416 -0.02 -2.6884 -0.382 -0.8468 -0.362 -1.5829 -0.9413 -2.1338 -1.6793 -0.0192 -0.0254 -0.044 -0.046 -0.0725 -0.0602 -0.0284 -0.0142 -0.0598 -0.0217 -0.0916 -0.0218h-0.0043c-0.0339 0 -0.0673 0.0079 -0.0976 0.023 -0.0303 0.0151 -0.0567 0.0371 -0.077 0.0642 -0.4873 0.6511 -1.1199 1.1794 -1.8474 1.543 -0.7274 0.3636 -1.5297 0.5525 -2.343 0.5515 -0.8144 0.001 -1.6177 -0.1884 -2.346 -0.5529 -0.7282 -0.3646 -1.3611 -0.8942 -1.8483 -1.5468 -0.0191 -0.0254 -0.0438 -0.046 -0.0722 -0.0603 -0.0284 -0.0142 -0.0597 -0.0217 -0.0915 -0.0217h-0.0043c-0.0339 0 -0.0673 0.0079 -0.0976 0.023 -0.0303 0.0151 -0.0566 0.0371 -0.077 0.0642 -0.4873 0.6511 -1.1199 1.1794 -1.8473 1.543 -0.7275 0.3636 -1.5298 0.5525 -2.3431 0.5515 -0.8144 0.001 -1.6177 -0.1884 -2.3459 -0.5529 -0.7283 -0.3646 -1.3612 -0.8942 -1.8484 -1.5468 -0.0191 -0.0254 -0.0438 -0.046 -0.0722 -0.0603 -0.0283 -0.0142 -0.0597 -0.0217 -0.0914 -0.0217h-0.0044c-0.0339 0 -0.0673 0.0079 -0.0976 0.023 -0.0303 0.0151 -0.0566 0.0371 -0.0769 0.0642 -0.5512 0.7364 -1.287 1.3143 -2.133 1.6753 -0.846 0.361 -1.7723 0.4924 -2.6854 0.3808 -0.0306 -0.0037 -0.0618 -0.0009 -0.0913 0.0083 -0.0295 0.0092 -0.0567 0.0246 -0.0798 0.0451 -0.0232 0.0205 -0.0417 0.0456 -0.0544 0.0738 -0.0127 0.0282 -0.0192 0.0587 -0.0193 0.0896v4.6214h27.9273Z" stroke-width="1"></path>
  <path fill="#692e19" d="M35.3454 11.781H24.8726v-0.8727c0 -0.2314 -0.0919 -0.4534 -0.2556 -0.6171 -0.1636 -0.1636 -0.3856 -0.2556 -0.6171 -0.2556 -0.2314 0 -0.4534 0.092 -0.6171 0.2556 -0.1637 0.1637 -0.2556 0.3857 -0.2556 0.6171v0.8727H12.6545c-0.2315 0 -0.4535 0.092 -0.6171 0.2556 -0.1637 0.1637 -0.2557 0.3857 -0.2557 0.6171 0 0.2315 0.092 0.4534 0.2557 0.6171 0.1636 0.1636 0.3856 0.2556 0.6171 0.2556h22.6909c0.2314 0 0.4534 -0.092 0.6171 -0.2556 0.1637 -0.1637 0.2556 -0.3856 0.2556 -0.6171 0 -0.2314 -0.0919 -0.4534 -0.2556 -0.6171 -0.1637 -0.1636 -0.3857 -0.2556 -0.6171 -0.2556Z" stroke-width="1"></path>
  <path fill="#facb1b" d="M23.127 23.9988h0.8736c-0.301 0 -0.5871 -0.0026 -0.8736 -0.0056v0.0056Z" stroke-width="1"></path>
  <path fill="#facb1b" d="M24.8737 23.9988v-0.0056c-0.2866 0.003 -0.5727 0.0056 -0.8737 0.0056h0.8737Z" stroke-width="1"></path>
  <path fill="#facb1b" d="M23.127 13.5261v10.4666c0.2862 0.003 0.572 0.0057 0.8727 0.0057 0.3006 0 0.5865 -0.0027 0.8727 -0.0057V13.5261H23.127Z" stroke-width="1"></path>
  <path fill="#facb1b" d="M26.6182 13.5261v10.4317c0.6187 -0.0197 1.2035 -0.045 1.7454 -0.0773V13.5261h-1.7454Z" stroke-width="1"></path>
  <path fill="#facb1b" d="M30.1089 13.5261V23.744c0.5838 -0.0563 1.1658 -0.1292 1.7454 -0.2186v-9.9993h-1.7454Z" stroke-width="1"></path>
  <path fill="#facb1b" d="M34.4728 13.5261h-0.8727v9.6484c0.8003 -0.2077 1.3558 -0.4337 1.7455 -0.6536v-5.0677l-0.8728 -3.9271Z" stroke-width="1"></path>
  <path fill="#fbe158" d="m13.527 13.5261 -0.8727 3.9271v5.0677c0.3892 0.2199 0.9452 0.4459 1.7455 0.6536v-9.6484h-0.8728Z" stroke-width="1"></path>
  <path fill="#facb1b" d="M16.1455 13.5261v9.9993c0.5188 0.0811 1.097 0.1549 1.7455 0.2186V13.5261h-1.7455Z" stroke-width="1"></path>
  <path fill="#facb1b" d="M19.6362 13.5261v10.3544c0.542 0.0323 1.1267 0.0576 1.7455 0.0773V13.5261h-1.7455Z" stroke-width="1"></path>
  <path fill="#84462d" d="M23.9999 11.7815H12.6545c-0.2315 0 -0.4535 0.0919 -0.6171 0.2556 -0.1637 0.1637 -0.2557 0.3856 -0.2557 0.6171 0 0.2314 0.092 0.4534 0.2557 0.6171 0.1636 0.1636 0.3856 0.2556 0.6171 0.2556h11.3454v-1.7454Z" stroke-width="1"></path>
  <path fill="#84462d" d="M23.9999 24.1201c-0.1409 0 -0.2823 0.0341 -0.4101 0.1021 -2.0741 1.104 -4.1481 1.8431 -6.2226 2.2171 -0.1366 0.0246 -0.2654 0.0815 -0.3756 0.1659 -0.1102 0.0843 -0.1987 0.1938 -0.2581 0.3192 -0.0595 0.1255 -0.0881 0.2633 -0.0836 0.402 0.0045 0.1388 0.042 0.2744 0.1095 0.3957l3.0178 5.4325c0.7887 -0.0193 1.5628 -0.2169 2.2641 -0.5782 0.7014 -0.3612 1.3118 -0.8766 1.7854 -1.5075 0.0202 -0.0269 0.0463 -0.0488 0.0764 -0.064 0.03 -0.0151 0.0632 -0.0231 0.0968 -0.0233v-6.8615Z" stroke-width="1"></path>
  <path fill="#fbe158" d="m16.1455 21.1429 1.7455 -1.7453v-5.8715h-1.7455v7.6168Z" stroke-width="1"></path>
  <path fill="#fbe158" d="M21.3815 15.9066v-2.3805h-1.7453v4.1257l1.7453 -1.7452Z" stroke-width="1"></path>
</svg>