<svg xmlns="http://www.w3.org/2000/svg" fill="none" viewBox="0 0 48 48" id="Luggage-Cart--Streamline-Kameleon">
  <desc>
    Luggage Cart Streamline Icon: https://streamlinehq.com
  </desc>
  <path fill="#25b7d3" d="M24 47.9977c13.2549 0 24 -10.7446 24 -23.9988C48 10.7446 37.2549 0 24 0S0 10.7446 0 23.9989c0 13.2542 10.7451 23.9988 24 23.9988Z" stroke-width="1"></path>
  <path fill="#fbe158" d="M27.9271 16.1447h-3.0545v-5.2361c0 -0.4817 -0.391 -0.8727 -0.8727 -0.8727 -0.4818 0 -0.8728 0.391 -0.8728 0.8727v5.2361h-3.0545c-0.2409 0 -0.4364 0.1955 -0.4364 0.4363 0 0.2409 0.1955 0.8727 0.4364 0.8727h7.8545c0.2409 0 0.4364 -0.6318 0.4364 -0.8727 0 -0.2408 -0.1955 -0.4363 -0.4364 -0.4363Z" stroke-width="1"></path>
  <path fill="#fbe158" d="M37.9639 34.0346c0 0.2409 -0.1955 0.4364 -0.4364 0.4364H10.473c-0.2409 0 -0.4364 -0.1955 -0.4364 -0.4364v-0.8727c0 -0.2408 0.1955 -0.4363 0.4364 -0.4363h27.0545c0.2409 0 0.4364 0.1955 0.4364 0.4363v0.8727Z" stroke-width="1"></path>
  <path fill="#84462d" d="M30.7884 23.272c0.3469 0 0.6301 0.2836 0.6301 0.6301v8.1936c0 0.3469 -0.2837 0.6305 -0.6301 0.6305H16.9216c-0.3465 0 -0.6301 -0.2836 -0.6301 -0.6301v-8.1936c0 -0.3465 0.2836 -0.6301 0.6301 -0.6301l13.8668 -0.0004Z" stroke-width="1"></path>
  <path fill="#9c6144" d="M16.9216 23.272c-0.3469 0 -0.6301 0.2836 -0.6301 0.6301v8.1936c0 0.1684 0.0681 0.3212 0.1767 0.4346l9.2588 -9.2583h-8.8054Z" stroke-width="1"></path>
  <path fill="#692e19" d="M26.7129 23.272h-1.2825l-0.6523 -0.9451h-1.8467l-0.6524 0.9451h-1.2829l1.2606 -1.8907h3.1955l1.2607 1.8907Z" stroke-width="1"></path>
  <path fill="#d4a263" d="M20.0727 23.272H18.812v9.4542h1.2607V23.272Z" stroke-width="1"></path>
  <path fill="#d4a263" d="M28.8969 23.272h-1.2607v9.4542h1.2607V23.272Z" stroke-width="1"></path>
  <path fill="#edbc7c" d="M20.0727 28.9257V23.272H18.812v6.9143l1.2607 -1.2606Z" stroke-width="1"></path>
  <path fill="#f3b607" d="M36.2181 32.7256h-1.7455v-13.963c0 -2.406 -1.9575 -4.3634 -4.3636 -4.3634H17.8908c-2.4061 0 -4.3636 1.9574 -4.3636 4.3634v13.963h-1.7455v-13.963c0 -3.3686 2.7404 -6.1088 6.1091 -6.1088H30.109c3.3687 0 6.1091 2.7402 6.1091 6.1088v13.963Z" stroke-width="1"></path>
  <path fill="#3e3e3f" d="M35.3452 37.9614c1.2048 0 2.1816 -0.9767 2.1816 -2.1815s-0.9768 -2.1815 -2.1816 -2.1815c-1.2049 0 -2.1816 0.9767 -2.1816 2.1815s0.9767 2.1815 2.1816 2.1815Z" stroke-width="1"></path>
  <path fill="#fbe158" d="M35.3457 37.0895c0.723 0 1.3091 -0.5861 1.3091 -1.309 0 -0.723 -0.5861 -1.3091 -1.3091 -1.3091s-1.3091 0.5861 -1.3091 1.3091c0 0.7229 0.5861 1.309 1.3091 1.309Z" stroke-width="1"></path>
  <path fill="#3e3e3f" d="M12.6543 37.9614c1.2048 0 2.1816 -0.9767 2.1816 -2.1815s-0.9768 -2.1815 -2.1816 -2.1815c-1.2049 0 -2.1816 0.9767 -2.1816 2.1815s0.9767 2.1815 2.1816 2.1815Z" stroke-width="1"></path>
  <path fill="#fbe158" d="M12.6548 37.0895c0.723 0 1.3091 -0.5861 1.3091 -1.309 0 -0.723 -0.5861 -1.3091 -1.3091 -1.3091s-1.3091 0.5861 -1.3091 1.3091c0 0.7229 0.5861 1.309 1.3091 1.309Z" stroke-width="1"></path>
</svg>