<svg xmlns="http://www.w3.org/2000/svg" fill="none" viewBox="0 0 48 48" id="Map--Streamline-Kameleon">
  <desc>
    Map Streamline Icon: https://streamlinehq.com
  </desc>
  <path fill="#25b7d3" d="M24 47.9977c13.255 0 24 -10.7445 24 -23.9988C48 10.7445 37.255 0 24 0S0 10.7445 0 23.9989c0 13.2543 10.745 23.9988 24 23.9988Z" stroke-width="1"></path>
  <path fill="#f0f1f1" d="m30.9821 11.7817 -6.9818 3.4908 -6.9819 -3.4908 -6.9818 3.4908v22.6898l6.9818 -3.4907 6.9819 3.4907 6.9818 -3.4907 6.9818 3.4907V15.2725l-6.9818 -3.4908Z" stroke-width="1"></path>
  <path fill="#ffffff" d="m10.0366 37.9623 6.9818 -3.4907V11.7817l-6.9818 3.4908v22.6898Z" stroke-width="1"></path>
  <path fill="#ffffff" d="m24 37.9623 6.9818 -3.4907V11.7817L24 15.2725v22.6898Z" stroke-width="1"></path>
  <path fill="#fa5655" d="M12.09 30.9616c-0.0548 -0.0168 -0.1058 -0.0443 -0.15 -0.0809 -0.0441 -0.0365 -0.0807 -0.0814 -0.1075 -0.132 -0.0268 -0.0507 -0.0434 -0.1061 -0.0488 -0.1632 -0.0054 -0.0571 0.0005 -0.1147 0.0173 -0.1694 0 0 0.0965 -0.3147 0.2768 -0.8402 0.0181 -0.0547 0.0469 -0.1054 0.0847 -0.1489 0.0378 -0.0436 0.0839 -0.0793 0.1356 -0.1049 0.0517 -0.0256 0.1079 -0.0408 0.1655 -0.0446 0.0576 -0.0037 0.1153 0.004 0.1699 0.0227 0.0546 0.0187 0.1049 0.048 0.1481 0.0863 0.0432 0.0382 0.0784 0.0847 0.1035 0.1366 0.0251 0.052 0.0396 0.1084 0.0428 0.166 0.0032 0.0576 -0.0051 0.1153 -0.0244 0.1696 -0.0934 0.2701 -0.1827 0.5416 -0.268 0.8144 -0.0341 0.1106 -0.1107 0.2031 -0.213 0.2572 -0.1023 0.0541 -0.2219 0.0654 -0.3325 0.0313Z" stroke-width="1"></path>
  <path fill="#fa5655" d="M26.5439 28.8612c-0.1005 -0.0575 -0.174 -0.1526 -0.2043 -0.2643 -0.0304 -0.1117 -0.0151 -0.2309 0.0424 -0.3313 0.0575 -0.1005 0.1526 -0.174 0.2643 -0.2043 0.1117 -0.0304 0.2309 -0.0151 0.3313 0.0424 0.4242 0.243 0.8863 0.2958 1.3484 0.2304 0.0567 -0.008 0.1145 -0.0048 0.17 0.0096 0.0555 0.0143 0.1076 0.0394 0.1534 0.0739 0.0458 0.0345 0.0844 0.0777 0.1135 0.127 0.0291 0.0494 0.0482 0.104 0.0562 0.1608s0.0047 0.1145 -0.0096 0.17c-0.0144 0.0555 -0.0395 0.1077 -0.074 0.1534 -0.0345 0.0458 -0.0776 0.0844 -0.127 0.1135s-0.104 0.0482 -0.1608 0.0562c-0.682 0.0964 -1.299 0.0091 -1.9038 -0.3373Zm3.0388 -0.4674c-0.0313 -0.0479 -0.0529 -0.1016 -0.0634 -0.158 -0.0106 -0.0563 -0.01 -0.1141 0.0018 -0.1702s0.0345 -0.1093 0.0669 -0.1566c0.0323 -0.0473 0.0737 -0.0877 0.1217 -0.119 0.3971 -0.2592 0.7929 -0.6092 1.1769 -1.0412 0.038 -0.0428 0.0842 -0.0777 0.1358 -0.1027 0.0515 -0.025 0.1075 -0.0396 0.1647 -0.043 0.0572 -0.0033 0.1146 0.0046 0.1687 0.0234 0.0542 0.0188 0.1041 0.048 0.1469 0.0861 0.0428 0.0381 0.0778 0.0842 0.1028 0.1358 0.025 0.0516 0.0396 0.1076 0.0429 0.1648 0.0034 0.0572 -0.0046 0.1145 -0.0233 0.1686 -0.0188 0.0542 -0.0481 0.1041 -0.0862 0.1469 -0.435 0.4896 -0.8902 0.8906 -1.3523 1.1921 -0.048 0.0313 -0.1017 0.0529 -0.158 0.0635 -0.0563 0.0105 -0.1142 0.0099 -0.1702 -0.0019 -0.0561 -0.0118 -0.1093 -0.0345 -0.1566 -0.0669 -0.0473 -0.0323 -0.0878 -0.0737 -0.1191 -0.1217Zm-16.6721 0.1401c-0.1082 -0.0412 -0.1956 -0.1237 -0.243 -0.2294 -0.0473 -0.1056 -0.0508 -0.2257 -0.0097 -0.3339 0.206 -0.5402 0.4202 -1.0738 0.6367 -1.5865 0.0223 -0.0528 0.0548 -0.1007 0.0956 -0.141 0.0408 -0.0402 0.0892 -0.072 0.1423 -0.0936 0.0531 -0.0215 0.11 -0.0324 0.1673 -0.032 0.0573 0.0004 0.114 0.0121 0.1668 0.0344s0.1007 0.0548 0.141 0.0957c0.0402 0.0408 0.072 0.0891 0.0936 0.1423 0.0215 0.0531 0.0324 0.1099 0.032 0.1673 -0.0004 0.0573 -0.0121 0.114 -0.0344 0.1668 -0.2176 0.5153 -0.4261 1.0345 -0.6253 1.5573 -0.0412 0.1081 -0.1236 0.1955 -0.2292 0.2428 -0.1055 0.0474 -0.2256 0.0509 -0.3337 0.0098Zm12.2845 -0.9503c-0.2968 -0.4041 -0.5944 -0.8967 -0.9099 -1.5072 -0.0263 -0.0509 -0.0423 -0.1065 -0.0472 -0.1636 -0.0048 -0.0571 0.0016 -0.1146 0.019 -0.1692 0.0174 -0.0547 0.0454 -0.1053 0.0823 -0.1491 0.037 -0.0438 0.0822 -0.0799 0.1331 -0.1063 0.051 -0.0263 0.1066 -0.0423 0.1637 -0.0472 0.0571 -0.0048 0.1146 0.0016 0.1692 0.019 0.0547 0.0174 0.1053 0.0454 0.1491 0.0823 0.0438 0.037 0.0799 0.0822 0.1063 0.1331 0.2945 0.5695 0.5686 1.0246 0.8382 1.3911 0.0686 0.0933 0.0973 0.2101 0.0798 0.3246 -0.0175 0.1144 -0.0798 0.2173 -0.1732 0.2858 -0.0933 0.0686 -0.21 0.0973 -0.3245 0.0798 -0.1145 -0.0175 -0.2174 -0.0798 -0.2859 -0.1731Zm6.7946 -1.532c-0.0484 -0.0308 -0.0902 -0.0708 -0.123 -0.1178 -0.0329 -0.0469 -0.0562 -0.0999 -0.0686 -0.1559 -0.0124 -0.0559 -0.0137 -0.1138 -0.0037 -0.1702 0.01 -0.0565 0.0309 -0.1104 0.0618 -0.1587 0.2934 -0.4639 0.5618 -0.9431 0.8042 -1.4356 0.0513 -0.1037 0.1417 -0.1829 0.2514 -0.2199 0.1097 -0.0371 0.2296 -0.0291 0.3333 0.0222 0.1038 0.0514 0.1829 0.1418 0.2199 0.2515 0.0371 0.1096 0.0291 0.2295 -0.0222 0.3332 -0.2561 0.5208 -0.54 1.0274 -0.8505 1.5176 -0.0308 0.0484 -0.0708 0.0902 -0.1178 0.1231 -0.0469 0.0328 -0.0999 0.0561 -0.1558 0.0685 -0.056 0.0124 -0.1139 0.0137 -0.1703 0.0037 -0.0565 -0.0099 -0.1104 -0.0309 -0.1587 -0.0617Zm-17.7875 -0.6489c-0.1045 -0.0497 -0.185 -0.1388 -0.2238 -0.2478 -0.0387 -0.109 -0.0327 -0.2289 0.017 -0.3334 0.2453 -0.5178 0.5053 -1.0285 0.7797 -1.5316 0.0581 -0.0968 0.1515 -0.1673 0.2605 -0.1968 0.1089 -0.0295 0.2251 -0.0157 0.3241 0.0386s0.1731 0.1448 0.2069 0.2526c0.0337 0.1078 0.0243 0.2244 -0.0261 0.3254 -0.2665 0.4882 -0.519 0.984 -0.7571 1.4866 -0.0246 0.0518 -0.0591 0.0981 -0.1016 0.1365 -0.0426 0.0384 -0.0922 0.068 -0.1462 0.0872 -0.054 0.0191 -0.1112 0.0275 -0.1684 0.0245 -0.0572 -0.0029 -0.1133 -0.0171 -0.165 -0.0418Zm9.3417 -0.874c-0.3037 -0.6671 -0.4975 -1.0965 -0.7061 -1.5328 -0.0247 -0.0517 -0.0389 -0.1078 -0.042 -0.165 -0.003 -0.0572 0.0052 -0.1144 0.0243 -0.1684 0.0191 -0.054 0.0486 -0.1038 0.087 -0.1464 0.0383 -0.0426 0.0846 -0.0772 0.1363 -0.1019 0.0516 -0.0247 0.1077 -0.039 0.1649 -0.042 0.0572 -0.003 0.1144 0.0052 0.1685 0.0243 0.054 0.0191 0.1037 0.0486 0.1463 0.0869 0.0426 0.0383 0.0772 0.0846 0.1019 0.1363 0.2121 0.4433 0.4128 0.888 0.7126 1.5473 0.0437 0.1046 0.045 0.222 0.0037 0.3276 -0.0414 0.1055 -0.1222 0.1908 -0.2253 0.2378 -0.1032 0.047 -0.2205 0.052 -0.3273 0.014 -0.1068 -0.038 -0.1946 -0.1161 -0.2448 -0.2177Zm-7.7564 -2.1171c-0.0964 -0.064 -0.1634 -0.1637 -0.1863 -0.2771 -0.0229 -0.1134 0.0001 -0.2313 0.0641 -0.3277 0.3543 -0.5341 0.7117 -1.0036 1.0626 -1.3958 0.077 -0.0864 0.1853 -0.1386 0.3008 -0.1451 0.1156 -0.0065 0.229 0.0331 0.3153 0.1101 0.0863 0.0771 0.1385 0.1853 0.1451 0.3009 0.0065 0.1155 -0.0331 0.2289 -0.1102 0.3153 -0.3229 0.3613 -0.6545 0.7976 -0.9862 1.2972 -0.0641 0.0964 -0.1638 0.1635 -0.2773 0.1864 -0.1135 0.0229 -0.2314 -0.0002 -0.3279 -0.0642Zm6.2788 -0.8758c-0.3242 -0.5358 -0.6371 -0.9433 -0.956 -1.2453 -0.0417 -0.0394 -0.0751 -0.0866 -0.0985 -0.1389 -0.0234 -0.0523 -0.0363 -0.1088 -0.0378 -0.166 -0.0016 -0.0573 0.0081 -0.1144 0.0286 -0.1679 0.0204 -0.0536 0.0513 -0.1025 0.0906 -0.1442 0.0394 -0.0416 0.0867 -0.0751 0.139 -0.0984 0.0523 -0.0234 0.1087 -0.0363 0.166 -0.0379 0.0573 -0.0015 0.1144 0.0082 0.1679 0.0286 0.0536 0.0205 0.1025 0.0513 0.1442 0.0907 0.377 0.3565 0.7379 0.8238 1.1031 1.4277 0.0296 0.0491 0.0494 0.1035 0.058 0.1602 0.0086 0.0566 0.006 0.1144 -0.0077 0.1701 -0.0137 0.0556 -0.0383 0.108 -0.0723 0.1542 -0.0339 0.0462 -0.0767 0.0852 -0.1257 0.1148 -0.0491 0.0297 -0.1035 0.0494 -0.1601 0.058 -0.0567 0.0087 -0.1145 0.006 -0.1702 -0.0077 -0.0556 -0.0137 -0.108 -0.0382 -0.1542 -0.0722 -0.0462 -0.034 -0.0852 -0.0767 -0.1149 -0.1258Zm-4.1118 -1.7122c-0.0295 -0.0491 -0.049 -0.1036 -0.0574 -0.1603 -0.0084 -0.0567 -0.0055 -0.1145 0.0084 -0.1701 0.014 -0.0556 0.0387 -0.1079 0.0729 -0.1539 0.0341 -0.046 0.077 -0.0849 0.1262 -0.1143 0.5934 -0.3556 1.2131 -0.5271 1.8894 -0.4394 0.1149 0.0149 0.219 0.0748 0.2896 0.1666 0.0707 0.0917 0.102 0.2077 0.087 0.3225 -0.0149 0.1148 -0.0748 0.219 -0.1666 0.2896 -0.0917 0.0706 -0.2077 0.1019 -0.3225 0.087 -0.4792 -0.0629 -0.9099 0.072 -1.3283 0.3224 -0.0492 0.0295 -0.1037 0.049 -0.1604 0.0574 -0.0567 0.0084 -0.1145 0.0055 -0.1701 -0.0084s-0.1079 -0.0387 -0.1539 -0.0728c-0.046 -0.0342 -0.0849 -0.0771 -0.1143 -0.1263Z" stroke-width="1"></path>
  <path fill="#fa5655" d="M33.5833 23.0452c-0.0534 -0.0208 -0.1022 -0.0518 -0.1436 -0.0915 -0.0414 -0.0396 -0.0746 -0.087 -0.0976 -0.1394 -0.0231 -0.0525 -0.0356 -0.109 -0.0368 -0.1662 -0.0012 -0.0573 0.0088 -0.1143 0.0296 -0.1677 0.1864 -0.4796 0.2842 -0.7899 0.285 -0.793 0.0355 -0.1092 0.1127 -0.2001 0.2147 -0.2529 0.1021 -0.0528 0.2209 -0.0632 0.3306 -0.0289 0.1096 0.0342 0.2014 0.1103 0.2553 0.2118 0.0539 0.1015 0.0656 0.2201 0.0326 0.3302 -0.0043 0.0135 -0.1065 0.3391 -0.3046 0.8488 -0.0882 0.2252 -0.3413 0.3361 -0.5652 0.2488Z" stroke-width="1"></path>
  <path fill="#fa5655" d="m36.0897 19.7631 -1.0005 -1.0004 1.0005 -1.0004c0.0405 -0.0405 0.0726 -0.0886 0.0946 -0.1415 0.0219 -0.053 0.0332 -0.1097 0.0332 -0.167 0 -0.0573 -0.0113 -0.114 -0.0332 -0.1669 -0.022 -0.053 -0.0541 -0.101 -0.0946 -0.1416 -0.0405 -0.0405 -0.0886 -0.0726 -0.1415 -0.0945 -0.053 -0.0219 -0.1097 -0.0332 -0.167 -0.0332 -0.0573 0 -0.114 0.0113 -0.1669 0.0332 -0.053 0.0219 -0.101 0.054 -0.1416 0.0945l-1.0004 1.0005 -1.0005 -1.0005c-0.0818 -0.0818 -0.1928 -0.1277 -0.3085 -0.1277s-0.2267 0.0459 -0.3085 0.1277c-0.0818 0.0819 -0.1277 0.1928 -0.1277 0.3085s0.0459 0.2267 0.1277 0.3085l1.0005 1.0004 -1.0005 1.0004c-0.0818 0.0819 -0.1277 0.1928 -0.1277 0.3085s0.0459 0.2267 0.1277 0.3085c0.0818 0.0818 0.1928 0.1277 0.3085 0.1277s0.2267 -0.0459 0.3085 -0.1277l1.0005 -1.0005 1.0004 1.0005c0.0406 0.0405 0.0886 0.0726 0.1416 0.0945 0.0529 0.022 0.1096 0.0332 0.1669 0.0332 0.0573 0 0.114 -0.0112 0.167 -0.0332 0.0529 -0.0219 0.101 -0.054 0.1415 -0.0945 0.0405 -0.0405 0.0726 -0.0886 0.0946 -0.1416 0.0219 -0.0529 0.0332 -0.1096 0.0332 -0.1669 0 -0.0573 -0.0113 -0.114 -0.0332 -0.1669 -0.022 -0.053 -0.0541 -0.101 -0.0946 -0.1416Z" stroke-width="1"></path>
</svg>