<svg xmlns="http://www.w3.org/2000/svg" fill="none" viewBox="0 0 48 48" id="Towel--Streamline-Kameleon">
  <desc>
    Towel Streamline Icon: https://streamlinehq.com
  </desc>
  <path fill="#fabc3d" d="M24 47.9977c13.255 0 24 -10.7445 24 -23.9988C48 10.7445 37.255 0 24 0S0 10.7445 0 23.9989c0 13.2543 10.745 23.9988 24 23.9988Z" stroke-width="1"></path>
  <path fill="#3e3e3f" d="m37.0869 22.9291 -12.2165 -7.269 -0.0113 -1.8658 -0.5756 -0.2086c-0.0737 -0.027 -0.7221 -0.2801 -0.7221 -0.9207 0 -0.781 1.5512 -1.4918 2.2739 -0.0458 0.1085 0.1983 0.2897 0.3468 0.5054 0.4143 0.2158 0.0675 0.4493 0.0488 0.6515 -0.0523s0.3573 -0.2766 0.4328 -0.4897c0.0755 -0.213 0.0655 -0.4471 -0.028 -0.6529 -0.6864 -1.3723 -2.0252 -2.04775 -3.4102 -1.7205 -1.2777 0.3015 -2.1705 1.3492 -2.1705 2.5474 0 1.1471 0.6738 1.888 1.3091 2.2864v0.7073l-12.0811 7.1709 -0.1357 0.0995c-0.3941 0.3545 -0.6719 0.8197 -0.7973 1.3346 -0.12534 0.515 -0.0923 1.0559 0.0947 1.5518 0.1908 0.4944 0.5263 0.9198 0.9628 1.2204s0.9535 0.4624 1.4835 0.4643h22.6909c0.5299 -0.002 1.0469 -0.1639 1.4834 -0.4645 0.4364 -0.3006 0.772 -0.7258 0.9628 -1.2202 0.1872 -0.496 0.2202 -1.0369 0.0949 -1.552 -0.1254 -0.5151 -0.4033 -0.9803 -0.7974 -1.3349Zm-0.9282 2.2642c-0.0635 0.1649 -0.1754 0.3067 -0.3209 0.4069 -0.1455 0.1002 -0.3179 0.1541 -0.4946 0.1547H12.6523c-0.1767 -0.0007 -0.349 -0.0547 -0.4945 -0.1548 -0.1455 -0.1002 -0.2574 -0.242 -0.3211 -0.4068 -0.058 -0.1541 -0.0716 -0.3215 -0.0391 -0.483 0.0325 -0.1614 0.1097 -0.3105 0.2228 -0.4302l11.9773 -7.1098 11.9769 7.1098c0.2295 0.2408 0.3037 0.5995 0.1841 0.9132Z" stroke-width="1"></path>
  <path fill="#f0f1f1" d="M33.6021 24.8825c0 -0.2315 -0.092 -0.4535 -0.2556 -0.6171 -0.1637 -0.1637 -0.3857 -0.2556 -0.6171 -0.2556H15.2726c-0.2314 0 -0.4534 0.0919 -0.6171 0.2556 -0.1637 0.1636 -0.2556 0.3856 -0.2556 0.6171v11.3449h19.2022V24.8825Z" stroke-width="1"></path>
  <path fill="#e2e4e5" d="M33.5999 36.2271h-19.2v1.7453h19.2v-1.7453Z" stroke-width="1"></path>
  <path fill="#ffffff" d="M16.5815 36.2271h-0.8725v1.7457h0.8725v-1.7457Z" stroke-width="1"></path>
  <path fill="#ffffff" d="M19.1997 36.2271h-0.8726v1.7457h0.8726v-1.7457Z" stroke-width="1"></path>
  <path fill="#ffffff" d="M21.8178 36.2271h-0.8725v1.7457h0.8725v-1.7457Z" stroke-width="1"></path>
  <path fill="#ffffff" d="M24.436 36.2271h-0.8725v1.7457h0.8725v-1.7457Z" stroke-width="1"></path>
  <path fill="#ffffff" d="M27.0542 36.2271h-0.8726v1.7457h0.8726v-1.7457Z" stroke-width="1"></path>
  <path fill="#ffffff" d="M29.6723 36.2271h-0.8725v1.7457h0.8725v-1.7457Z" stroke-width="1"></path>
  <path fill="#ffffff" d="M32.2905 36.2271h-0.8725v1.7457h0.8725v-1.7457Z" stroke-width="1"></path>
  <path fill="#ffffff" d="M14.3999 24.8825v11.3449h1.7267l12.2182 -12.2176H15.2726c-0.2314 0 -0.4534 0.0919 -0.6171 0.2556 -0.1637 0.1636 -0.2556 0.3856 -0.2556 0.6171Z" stroke-width="1"></path>
</svg>