<svg xmlns="http://www.w3.org/2000/svg" fill="none" viewBox="0 0 48 48" id="Truck-Front--Streamline-Kameleon">
  <desc>
    Truck Front Streamline Icon: https://streamlinehq.com
  </desc>
  <path fill="#32bea6" d="M24 47.9977c13.255 0 24 -10.7445 24 -23.9988C48 10.7445 37.255 0 24 0S0 10.7445 0 23.9989c0 13.2543 10.745 23.9988 24 23.9988Z" stroke-width="1"></path>
  <path fill="#df2c2c" d="M17.0184 13.5269v6.1088h-1.7455v-6.9815c0 -1.4443 1.1739 -2.6181 2.6182 -2.6181h12.2182c1.4444 0 2.6182 1.1738 2.6182 2.6181v6.9815H30.982v-6.1088H17.0184Z" stroke-width="1"></path>
  <path fill="#bf0302" d="M32.7272 23.9991V12.6542c0 -1.4443 -1.1738 -2.6181 -2.6181 -2.6181H17.8909c-1.4444 0 -2.6182 1.1738 -2.6182 2.6181v11.3449c-1.1389 0 -1.9855 0.288 -2.6182 0.7418 -0.377 0.2708 -0.6985 0.6115 -0.9469 1.0036 -0.528 0.8203 -0.7418 1.7977 -0.8116 2.618 -0.096 0.9862 0.0131 1.7454 0.0131 1.7454h26.1818s0.8727 -6.1088 -4.3637 -6.1088Zm-1.7454 -10.4722v5.2361H17.0181v-5.2361h13.9637Z" stroke-width="1"></path>
  <path fill="#df2c2c" d="M17.0184 18.763v-5.2361h7.2755l3.4909 -3.4908h-9.8937c-1.4443 0 -2.6182 1.1734 -2.6182 2.6181v6.9815h1.7455v-0.8727Z" stroke-width="1"></path>
  <path fill="#40c9e7" d="M30.9817 13.5269H17.0181v5.2361h13.9636v-5.2361Z" stroke-width="1"></path>
  <path fill="#e2e4e5" d="M32.7275 19.6359c0 -0.2315 0.092 -0.4535 0.2557 -0.6171 0.1636 -0.1637 0.3856 -0.2556 0.6171 -0.2556h1.7454c0.2315 0 0.4535 0.0919 0.6171 0.2556 0.1637 0.1636 0.2556 0.3856 0.2556 0.6171v6.1088h-3.4909v-6.1088Z" stroke-width="1"></path>
  <path fill="#ffffff" d="M33.6001 18.7623h1.7455v-5.2362h2.6181v-1.7453h-3.4909c-0.2314 0 -0.4534 0.0919 -0.6171 0.2556 -0.1637 0.1636 -0.2556 0.3856 -0.2556 0.617v6.1089Z" stroke-width="1"></path>
  <path fill="#e2e4e5" d="M15.2726 19.6359c0 -0.2315 -0.0919 -0.4535 -0.2556 -0.6171 -0.1636 -0.1637 -0.3856 -0.2556 -0.6171 -0.2556h-1.7454c-0.2315 0 -0.4535 0.0919 -0.6171 0.2556 -0.1637 0.1636 -0.2557 0.3856 -0.2557 0.6171v6.1088h3.4909v-6.1088Z" stroke-width="1"></path>
  <path fill="#f0f1f1" d="M37.9639 33.5987c0 0.2314 -0.092 0.4534 -0.2556 0.617 -0.1637 0.1637 -0.3857 0.2556 -0.6171 0.2556H10.9093c-0.2314 0 -0.4534 -0.0919 -0.6171 -0.2556 -0.1636 -0.1636 -0.2556 -0.3856 -0.2556 -0.617v-2.6181c0 -0.2315 0.092 -0.4534 0.2556 -0.6171 0.1637 -0.1636 0.3857 -0.2556 0.6171 -0.2556h26.1819c0.2314 0 0.4534 0.092 0.6171 0.2556 0.1636 0.1637 0.2556 0.3856 0.2556 0.6171v2.6181Z" stroke-width="1"></path>
  <path fill="#df2c2c" d="M37.0909 30.1081H10.9091s-0.1091 -0.7592 -0.0131 -1.7454c0.2247 -2.639 1.628 -4.3634 4.3767 -4.3634v-4.3634c0 -0.48 0.3927 -0.8727 0.8727 -0.8727h15.7091c0.48 0 0.8727 0.3927 0.8727 0.8727v4.3634c5.2364 0 4.3637 6.1088 4.3637 6.1088Z" stroke-width="1"></path>
  <path fill="#fbe158" d="M32.7275 25.7441v2.6178h4.3763c-0.0698 -0.8202 -0.2836 -1.7975 -0.8115 -2.6178h-3.5648Z" stroke-width="1"></path>
  <path fill="#f3b607" d="M35.3457 25.7441v2.6181h1.7585c-0.0698 -0.8203 -0.2836 -1.7977 -0.8116 -2.6181h-0.9469Z" stroke-width="1"></path>
  <path fill="#ffffff" d="M14.4003 18.7623h-1.7455v-5.2362h-2.6182v-1.7453h3.4909c0.2315 0 0.4535 0.0919 0.6171 0.2556 0.1637 0.1636 0.2557 0.3856 0.2557 0.617v6.1089Z" stroke-width="1"></path>
  <path fill="#3e3e3f" d="M16.1449 34.4717h-4.3632v2.6178c0 0.2314 0.092 0.4534 0.2556 0.617 0.1637 0.1636 0.3856 0.2556 0.6171 0.2556h2.6179c0.2314 0 0.4534 -0.092 0.6171 -0.2556 0.1636 -0.1636 0.2555 -0.3856 0.2555 -0.617v-2.6178Z" stroke-width="1"></path>
  <path fill="#3e3e3f" d="M36.2177 34.4717h-4.3632v2.6178c0 0.2314 0.0919 0.4534 0.2556 0.617 0.1636 0.1636 0.3856 0.2556 0.617 0.2556h2.618c0.2314 0 0.4534 -0.092 0.617 -0.2556 0.1637 -0.1636 0.2556 -0.3856 0.2556 -0.617v-2.6178Z" stroke-width="1"></path>
  <path fill="#ffffff" d="M37.0912 30.1079H10.9093c-0.2314 0 -0.4534 0.092 -0.6171 0.2556 -0.1636 0.1637 -0.2556 0.3856 -0.2556 0.6171v1.309h27.9273v-1.309c0 -0.2315 -0.092 -0.4534 -0.2556 -0.6171 -0.1637 -0.1636 -0.3857 -0.2556 -0.6171 -0.2556Z" stroke-width="1"></path>
  <path fill="#6fdaf1" d="M17.0181 13.5269v5.2361h2.0391l5.2364 -5.2361h-7.2755Z" stroke-width="1"></path>
  <path fill="#fbe158" d="M15.2723 25.7441v2.6178H10.896c0.0698 -0.8202 0.2836 -1.7975 0.8116 -2.6178h3.5647Z" stroke-width="1"></path>
  <path fill="#f3b607" d="M12.6677 25.7441v2.6181h-1.7585c0.0698 -0.8203 0.2836 -1.7977 0.8116 -2.6181h0.9469Z" stroke-width="1"></path>
  <path fill="#e2e4e5" d="M30.5455 30.1078H17.4546V22.69l2.6182 -2.1817h7.8545l2.6182 2.1817v7.4178Z" stroke-width="1"></path>
  <path fill="#9e9fa0" d="M20.945 28.362c0 0.1157 -0.0459 0.2267 -0.1277 0.3085 -0.0818 0.0819 -0.1927 0.1278 -0.3084 0.1278s-0.2266 -0.0459 -0.3084 -0.1278c-0.0818 -0.0818 -0.1277 -0.1928 -0.1277 -0.3085v-3.9267c0 -0.1157 0.0459 -0.2267 0.1277 -0.3085 0.0818 -0.0818 0.1927 -0.1278 0.3084 -0.1278s0.2266 0.046 0.3084 0.1278c0.0818 0.0818 0.1277 0.1928 0.1277 0.3085v3.9267Z" stroke-width="1"></path>
  <path fill="#9e9fa0" d="M22.6907 28.3622c0 0.1157 -0.0459 0.2267 -0.1277 0.3086 -0.0818 0.0818 -0.1928 0.1278 -0.3085 0.1278 -0.1156 0 -0.2266 -0.046 -0.3084 -0.1278 -0.0818 -0.0819 -0.1277 -0.1929 -0.1277 -0.3086v-5.6724c0 -0.1158 0.0459 -0.2268 0.1277 -0.3086 0.0818 -0.0818 0.1928 -0.1278 0.3084 -0.1278 0.1157 0 0.2267 0.046 0.3085 0.1278 0.0818 0.0818 0.1277 0.1928 0.1277 0.3086v5.6724Z" stroke-width="1"></path>
  <path fill="#9e9fa0" d="M24.4358 28.3622c0 0.1157 -0.0459 0.2267 -0.1277 0.3086 -0.0818 0.0818 -0.1928 0.1278 -0.3084 0.1278 -0.1157 0 -0.2267 -0.046 -0.3085 -0.1278 -0.0818 -0.0819 -0.1277 -0.1929 -0.1277 -0.3086v-5.6724c0 -0.1158 0.0459 -0.2268 0.1277 -0.3086 0.0818 -0.0818 0.1928 -0.1278 0.3085 -0.1278 0.1156 0 0.2266 0.046 0.3084 0.1278 0.0818 0.0818 0.1277 0.1928 0.1277 0.3086v5.6724Z" stroke-width="1"></path>
  <path fill="#9e9fa0" d="M26.1814 28.3622c0 0.1157 -0.0459 0.2267 -0.1277 0.3086 -0.0818 0.0818 -0.1928 0.1278 -0.3084 0.1278 -0.1157 0 -0.2267 -0.046 -0.3085 -0.1278 -0.0818 -0.0819 -0.1277 -0.1929 -0.1277 -0.3086v-5.6724c0 -0.1158 0.0459 -0.2268 0.1277 -0.3086 0.0818 -0.0818 0.1928 -0.1278 0.3085 -0.1278 0.1156 0 0.2266 0.046 0.3084 0.1278 0.0818 0.0818 0.1277 0.1928 0.1277 0.3086v5.6724Z" stroke-width="1"></path>
  <path fill="#9e9fa0" d="M27.927 28.362c0 0.1157 -0.046 0.2267 -0.1278 0.3085 -0.0818 0.0819 -0.1927 0.1278 -0.3084 0.1278 -0.1156 0 -0.2266 -0.0459 -0.3084 -0.1278 -0.0818 -0.0818 -0.1277 -0.1928 -0.1277 -0.3085v-3.9267c0 -0.1157 0.0459 -0.2267 0.1277 -0.3085 0.0818 -0.0818 0.1928 -0.1278 0.3084 -0.1278 0.1157 0 0.2266 0.046 0.3084 0.1278 0.0818 0.0818 0.1278 0.1928 0.1278 0.3085v3.9267Z" stroke-width="1"></path>
  <path fill="#fa5655" d="M19.0449 18.7632h-2.8993c-0.48 0 -0.8727 0.3927 -0.8727 0.8726v2.8992l3.772 -3.7718Z" stroke-width="1"></path>
</svg>