<svg xmlns="http://www.w3.org/2000/svg" fill="none" viewBox="0 0 14 14" id="Checkup-Medical-Report-Clipboard--Streamline-Flex-Gradient">
  <desc>
    Checkup Medical Report Clipboard Streamline Icon: https://streamlinehq.com
  </desc>
  <g id="checkup-medical-report-clipboard">
    <path id="Subtract" fill="url(#paint0_linear_9380_3396)" fill-rule="evenodd" d="M3.82334 1.66721c0-.48058.16353-.887715.49577-1.176141.32635-.283308.78485-.4255042 1.32646-.445558.24891-.0092167.44691-.0170334.60944-.0234503C6.62753.00735359 6.81379 0 7.00005 0c.18626 0 .37252.00735359.74503.0220606.16253.006417.36053.0142338.60945.0234506C8.89614.065565 9.35464.207761 9.68098.491069c.33222.288426.49582.695561.49582 1.176141 0 .48059-.1636.88772-.49582 1.17614-.32634.28331-.78485.42551-1.32645.44556-.24891.00922-.44689.01703-.60942.02345-.37252.01471-.5588.02206-.74506.02206-.18625 0-.3725-.00735-.74498-.02206-.16253-.00642-.36059-.01423-.6095-.02345-.54161-.02005-1.00011-.16225-1.32646-.44556-.33224-.28842-.49577-.69555-.49577-1.17614Zm-.35731 2.12622c-.62112-.53921-.9004-1.2651-.92909-1.9987-.72269.09094-1.3053.66314-1.36037 1.39723-.235427 3.13801-.235427 6.10161 0 9.23964.05528.7368.64744 1.3249 1.39717 1.3852 3.03935.2443 5.81317.2443 8.85256 0 .7497-.0603 1.3418-.6484 1.3971-1.3852.2355-3.13803.2355-6.10163 0-9.23964-.055-.73406-.6376-1.30624-1.3602-1.39722-.0287.7336-.308 1.45949-.9291 1.99869-.62146.53947-1.405.73507-2.13107.76195-.24717.00915-.44378.01692-.60622.02333l-.02782.0011c-.34619.01367-.55658.02198-.76894.02198-.21238 0-.42278-.00831-.76901-.02198l-.02775-.0011c-.16244-.00641-.35905-.01418-.60623-.02333-.72606-.02688-1.50961-.22248-2.13103-.76195Zm2.31274 7.36447c.01235.3945.29489.7345.6874.7755.40943.0429.80705.0429 1.21647 0 .39251-.041.67506-.381.6874-.7755.00947-.3024.01703-.6018.02268-.8995.29519-.0056.59213-.0131.89201-.0225.39444-.0124.73447-.29488.77557-.68736.0428-.40946.0428-.8071 0-1.21656-.0411-.39249-.38113-.67501-.77557-.68735-.29987-.00938-.59682-.01689-.892-.02253-.00565-.29784-.01322-.59745-.02269-.90006-.01234-.39445-.29489-.73444-.68739-.77553-.40943-.04286-.80705-.04286-1.21648 0-.39251.04109-.67505.38108-.6874.77553-.00946.3025-.01703.60201-.02268.89973-.30081.00568-.60343.0133-.9091.02286-.39444.01234-.73442.29486-.77552.68735-.04288.40946-.04288.8071 0 1.21656.0411.39248.38108.67496.77552.68736.30567.0096.60829.0172.90911.0228.00565.2976.01321.5969.02267.8992Z" clip-rule="evenodd"></path>
  </g>
  <defs>
    <linearGradient id="paint0_linear_9380_3396" x1="2.962" x2="13.298" y1="2.692" y2="7.601" gradientUnits="userSpaceOnUse">
      <stop stop-color="#ffd600"></stop>
      <stop offset="1" stop-color="#00d078"></stop>
    </linearGradient>
  </defs>
</svg>