<svg xmlns="http://www.w3.org/2000/svg" fill="none" viewBox="0 0 14 14" id="Heart-Cross--Streamline-Flex-Gradient">
  <desc>
    Heart Cross Streamline Icon: https://streamlinehq.com
  </desc>
  <g id="heart-cross--health-sign-medical-symbol-heart-cross">
    <path id="Subtract" fill="url(#paint0_linear_9380_3405)" fill-rule="evenodd" d="M2.38848 1.28768C3.75449.690826 5.42998.971433 6.99999 2.54407 8.57.971432 10.2455.690826 11.6115 1.28768c1.4202.62052 2.3638 2.13961 2.3884 3.70381l.0002.00788c0 2.26758-1.4367 4.26706-2.9444 5.66273-.7627.706-1.56709 1.28-2.26779 1.6803-.35022.2001-.68099.3604-.97314.4722-.28045.1073-.56705.1864-.81478.1864-.24773 0-.53433-.0791-.81478-.1864-.29215-.1118-.62293-.2721-.97314-.4722-.70069-.4003-1.50509-.9743-2.26775-1.6803C1.43658 9.26643 0 7.26695 0 4.99937v-.00788c.0246597-1.5642.96832-3.08329 2.38848-3.70381ZM4.375 7.49994c0-.34518.27982-.625.625-.625h1.375v-1.375c0-.34518.27982-.625.625-.625s.625.27982.625.625v1.375H9c.34518 0 .625.27982.625.625s-.27982.625-.625.625H7.625v1.375c0 .34518-.27982.62496-.625.62496s-.625-.27978-.625-.62496v-1.375H5c-.34518 0-.625-.27982-.625-.625Z" clip-rule="evenodd"></path>
  </g>
  <defs>
    <linearGradient id="paint0_linear_9380_3405" x1="15.213" x2="-1.634" y1="15.543" y2="1.585" gradientUnits="userSpaceOnUse">
      <stop stop-color="#ffd600"></stop>
      <stop offset="1" stop-color="#ff007a"></stop>
    </linearGradient>
  </defs>
</svg>