<svg xmlns="http://www.w3.org/2000/svg" fill="none" viewBox="0 0 14 14" id="Insurance-Hand-1--Streamline-Flex-Gradient">
  <desc>
    Insurance Hand 1 Streamline Icon: https://streamlinehq.com
  </desc>
  <g id="insurance-hand-1--health-medical-insurance-hand-cross">
    <path id="Union" fill="url(#paint0_linear_9380_3414)" fill-rule="evenodd" d="M9.04334 6.33161c.01385.45943.34273.85668.80004.89812.36292.03289.71802.03289 1.08092 0 .4573-.04144.7862-.43868.8-.89812.0053-.17692.01-.5487.0141-.87049.0024-.19239.0046-.36691.0066-.47121.1039-.00199.2788-.0042.4715-.00663.3192-.00404.6872-.00869.8616-.01396.459-.01386.8558-.34304.8972-.80079.0329-.3633.0329-.71878 0-1.08208-.0414-.45775-.4382-.78694-.8972-.80079-.1744-.00527-.5424-.00992-.8615-.01396-.1928-.00243-.3677-.00464-.4716-.00663-.0019-.10432-.0042-.27879-.0066-.47114-.0041-.32197-.0088-.69405-.0141-.871144-.0138-.459436-.3427-.8566781-.8-.8981209-.3629-.03288677-.718-.03288679-1.08092-1e-7-.45731.0414428-.78619.438685-.80004.898121-.00533.177004-.01003.548944-.0141.870824-.00243.19235-.00464.36682-.00662.47112-.10467.00198-.27856.00418-.47045.00662-.32461.00411-.70072.00888-.88032.01431-.45895.01385-.85578.34304-.8972.80079-.03287.3633-.03287.71878 0 1.08208.04142.45775.43825.78693.8972.80079.1796.00542.55569.01019.8803.01431.1919.00243.36581.00464.47048.00661.00198.10429.00419.27883.00662.47124.00407.32168.00877.69331.01409.87013Zm2.66776 2.72878-2.69525.6397-1.59146.39571c-.39279.0976-.80243.1063-1.19901.0254l-2.75314-.56194c-.29327-.05986-.48294-.34558-.42423-.63909.05871-.2935.34369-.48428.63742-.42672l1.21911.23891.04214.00747c.64344.11398 1.25677-.31732 1.36715-.96138.10377-.60546-.27493-1.18908-.87013-1.34099L3.14277 5.8502c-.5168-.13191-1.05137-.1803-1.58346-.14337l-1.093938.07595C.203299 5.80097 0 6.01887 0 6.28158V11.531c0 .2118.133462.4006.33313.4713l3.316 1.174c1.74208.6168 3.64986.5732 5.36197-.1224l3.5197-1.4301c.6295-.2557.9707-.9396.7964-1.5964-.1876-.70705-.9043-1.13593-1.6161-.96701Z" clip-rule="evenodd"></path>
  </g>
  <defs>
    <linearGradient id="paint0_linear_9380_3414" x1=".538" x2="16.273" y1="1.1" y2="10.223" gradientUnits="userSpaceOnUse">
      <stop stop-color="#00d078"></stop>
      <stop offset="1" stop-color="#007df0"></stop>
    </linearGradient>
  </defs>
</svg>