<svg xmlns="http://www.w3.org/2000/svg" fill="none" viewBox="0 0 14 14" id="Nurse-Assistant-Emergency--Streamline-Flex-Gradient">
  <desc>
    Nurse Assistant Emergency Streamline Icon: https://streamlinehq.com
  </desc>
  <g id="nurse-assistant-emergency">
    <path id="Union" fill="url(#paint0_linear_9380_3420)" fill-rule="evenodd" d="M5.10069 0c-.92416 0-1.71677.261468-2.27785.822551-.56108.561079-.82255 1.353689-.82255 2.277849 0 .92417.26147 1.71677.82255 2.27785.56108.56109 1.35369.82256 2.27785.82256.92416 0 1.71677-.26147 2.27785-.82256.56108-.56108.82255-1.35368.82255-2.27785 0-.92416-.26147-1.71677-.82255-2.277849C6.81746.261468 6.02485 0 5.10069 0Zm-.00002 7.02606c-1.57528 0-3.04143.47373-4.261898 1.2866-.404256.26924-.671875.62517-.7823985 1.02932-.109753.40133-.05303624.80842.1162645 1.16132.336143.7007 1.116762 1.2066 2.058492 1.2066h3.34841c-.23584-.4705-.33162-.9852-.33162-1.4596 0-.61261.15972-1.29248.57452-1.85744.37106-.50538.91699-.8723 1.59108-.99243l.00384-.01949c-.73135-.23055-1.5097-.35488-2.31669-.35488Zm5.52543-.49809.0874.00928c.6989.07316 1.166.67097 1.1861 1.31468.0061.19492.0115.47755.0161.74099.2607.00458.54.0099.7323.01591.6437.02014 1.2415.4871 1.3147 1.18601l.0093.08741c.0163.15225.028.26165.028.36805s-.0117.2158-.028.3681l-.0093.0874-.0003.0024c-.0778.7095-.6727 1.1635-1.3144 1.1836-.1923.006-.4716.0113-.7323.0159-.0046.2632-.01.5456-.0161.7404-.0201.6437-.4872 1.2415-1.1861 1.3147l-.0874.0092c-.1522.0163-.2616.028-.368.028-.1063 0-.2157-.0117-.36786-.028l-.08752-.0092c-.69893-.0732-1.16593-.671-1.18608-1.3147-.00609-.1946-.01146-.4769-.01608-.74-.26647-.0047-.55282-.0101-.75069-.0163-.64368-.0202-1.24149-.4871-1.31468-1.186l-.00928-.0874c-.01628-.1523-.02799-.2617-.02799-.3681s.01171-.2158.02799-.36804l.00928-.08742c.07319-.69891.671-1.16587 1.31468-1.18601.19786-.00619.48421-.01164.75068-.0163.00462-.26333.01-.5458.01609-.7406.02015-.64371.48715-1.24152 1.18608-1.31468l.08742-.00928C10.0424 6.5117 10.1518 6.5 10.2581 6.5c.1064 0 .2158.0117.368.02797Z" clip-rule="evenodd"></path>
  </g>
  <defs>
    <linearGradient id="paint0_linear_9380_3420" x1="2.288" x2="13.596" y1="2.692" y2="8.957" gradientUnits="userSpaceOnUse">
      <stop stop-color="#ffd600"></stop>
      <stop offset="1" stop-color="#00d078"></stop>
    </linearGradient>
  </defs>
</svg>