<svg xmlns="http://www.w3.org/2000/svg" fill="none" viewBox="0 0 24 24" id="Design-Process-Drawing-Board--Streamline-Freehand">
  <desc>
    Design Process Drawing Board Streamline Icon: https://streamlinehq.com
  </desc>
  <path fill="#020202" d="m23.1868 16.5284 -0.0599 -0.5984c-0.0797 -0.3781 -0.325 -0.7003 -0.6683 -0.8778 -0.6877 -0.2248 -1.4148 -0.3029 -2.1345 -0.2294 -2.8226 0 -17.12562 -0.0697 -17.12562 -0.0697s0.30918 -2.3141 0.37898 -3.4412c0 -0.4788 0 -0.9974 0.05979 -1.4363 0.0598 -0.43888 0 -0.99735 0 -1.43623 0 -1.08725 -0.10969 -2.16439 -0.17949 -3.24164 1.65388 -0.21632 3.31929 -0.33296 4.98715 -0.34908 1.61579 0 3.26149 0 4.89729 0.08969 2.5035 0.0798 4.9871 0.1596 7.3809 0.27929 0.025 0.40194 0.025 0.805 0 1.20694 0 0.64827 -0.0997 1.30664 -0.1496 1.9948 0 0.45888 -0.0499 0.90765 -0.0499 1.35653 0 0.4489 0 0.9276 0.0599 1.3963 0.0798 1.0773 0.2394 2.1345 0.2992 3.2118 -0.0056 0.1525 0.1166 0.2794 0.2693 0.2793 0.1505 0.0001 0.2739 -0.119 0.2793 -0.2693 0.0697 -0.9277 0.1196 -1.8552 0.1296 -2.7929V6.93324c-0.016 -0.7054 -0.0827 -1.40867 -0.1994 -2.10459 -0.2693 -0.62837 -4.7577 -0.65827 -6.9122 -0.81786 -0.5087 0 -0.9973 -0.0599 -1.5459 -0.07979 0.0897 -0.48878 0.0897 -0.93756 0.0897 -1.39643 0.0134 -0.40858 -0.0234 -0.81725 -0.1097 -1.21684l-0.2195 -0.61837c-0.4588 -0.817858 -0.9974 -0.77796 -1.3065 -0.57847 -0.1753 0.107449 -0.3197 0.258776 -0.419 0.438878 -0.1379 0.282347 -0.2513 0.575922 -0.3391 0.877652l-0.1496 0.99745c-0.0216 0.33215 -0.0216 0.66531 0 0.99745 0 0.15959 0 0.30919 0.0498 0.45878h-0.2892c-2.37998 0.03377 -4.75121 0.29428 -7.08172 0.77796 -0.36898 0.0699 -0.33908 0.50867 -0.48868 3.81021 0 0.47877 0 0.99735 -0.04989 1.42633 -0.0499 0.429 0 0.9973 0 1.4362 0 1.1172 0.09969 3.4112 0.10969 3.4511h-0.22939c-0.39337 0.0067 -0.78469 0.0569 -1.16704 0.1496 -0.22347 0.06 -0.393572 0.2418 -0.438776 0.4688 -0.07551 0.4524 -0.07551 0.9141 0 1.3664 0.06847 0.3979 0.286016 0.7545 0.608366 0.9975 0.1851 0.1196 0.39837 0.1884 0.61837 0.1995h2.92255c0 0.0997 -0.08979 0.1895 -0.11969 0.2893 -0.20949 0.5285 -0.36908 1.0671 -0.54867 1.5958l-0.45878 1.536c-0.15296 0.4725 -0.2501 0.9612 -0.28929 1.4562 -0.02867 0.3451 0.09103 0.6862 0.32919 0.9376 0.23939 0.2195 0.67826 0.3591 1.38643 -0.0598l0.35908 -0.2793 0.54857 -0.6484c0.38796 -0.6357 0.72153 -1.303 0.99745 -1.9948 0.0798 -0.1794 0.12959 -0.349 0.19939 -0.5286l2.87264 0.2295c0.4488 0 0.9077 0.0498 1.3664 0.0598h1.3366c1.0672 0 2.1345 0 3.2117 -0.0598h0.0498c0 0.0598 0 0.1197 0.0499 0.1694 0.2181 0.6818 0.4813 1.3482 0.788 1.9949 0.1627 0.3222 0.3636 0.6235 0.5984 0.8977 0.1664 0.1918 0.3902 0.3248 0.6384 0.379 0.3192 0 0.7281 -0.0498 0.9376 -0.7381l0.1895 -0.9276 -0.0698 -1.1371 -0.3192 -1.516 -0.5287 -1.8053c3.4411 -0.0699 4.3688 0 4.5682 -0.5487 0.0713 -0.2424 0.0984 -0.4959 0.0799 -0.748ZM11.1379 3.40232c0 -0.28918 0.0798 -0.56847 0.1397 -0.86775l0.2593 -0.78796c0.0499 -0.1396 0.1196 -0.42888 0.1994 -0.59837v0.05979l0.1795 0.37898c0.1091 0.32358 0.1827 0.65807 0.2195 0.99745 0.0499 0.42888 0.0598 0.85776 0.0798 1.28674H11.118c-0.0043 -0.15653 0.0024 -0.31327 0.0199 -0.46888ZM5.33287 22.1638l-0.41888 0.4589 -0.17949 0.1495 -0.17959 0.1097v-0.2891c0.035 -0.3359 0.09163 -0.669 0.16959 -0.9975l0.30918 -1.556c0.1197 -0.5386 0.22939 -1.0772 0.37908 -1.5958 0 -0.1696 0.0997 -0.3292 0.1496 -0.4987h1.9549c-0.32041 0.8358 -0.68327 1.6547 -1.08715 2.4536 -0.31796 0.6169 -0.6849 1.2072 -1.09724 1.7654Zm7.73003 -2.6432c-0.4588 0 -0.9176 -0.0598 -1.3765 -0.0798 -0.4588 -0.02 -0.9175 0 -1.3764 0 -0.88764 0 -1.7654 0.0798 -2.65315 0.1497 0.19949 -0.5686 0.39898 -1.1271 0.56857 -1.6857 2.16438 0 4.33878 0 6.50318 -0.0798h0.8777c0.1496 0.6783 0.3092 1.3465 0.4987 1.9949 -1.0173 -0.1097 -2.0248 -0.2195 -3.0421 -0.2993Zm4.9871 -0.9973c0.0798 0.3989 0.1596 0.7979 0.2194 1.1968l0.1796 1.4463v0.9974l-0.1497 0.5984c-0.1075 -0.1972 -0.2041 -0.4004 -0.2892 -0.6083 -0.3997 -0.7481 -0.743 -1.5249 -1.0273 -2.324 -0.2693 -0.6683 -0.5087 -1.3565 -0.7282 -2.0447h1.6956l0.0998 0.7381Zm4.4984 -1.566c0.0041 0.0365 0.0041 0.0733 0 0.1097h-6.2439c-3.1618 -0.02 -6.3037 -0.1097 -9.50541 -0.1097H2.08133c-0.13326 -0.131 -0.20561 -0.3119 -0.19949 -0.4987 -0.0199 -0.1723 -0.0199 -0.3464 0 -0.5187l0.59847 -0.0598c0.86776 0 1.72551 0.0598 2.59327 0.0798h1.14704c2.34062 -0.0997 4.69458 -0.1729 7.06178 -0.2194 2.3672 -0.0465 4.7211 -0.0798 7.0617 -0.0998 0.5404 -0.0567 1.0853 -0.0567 1.6258 0 0.2701 0.0545 0.4841 0.2607 0.5486 0.5287v0.4389c0.0172 0.1156 0.0272 0.2321 0.0299 0.349Z" stroke-width="1"></path>
  <path fill="#0c6fff" d="M10.0008 11.5712c0.2449 0.6131 0.8856 0.971 1.536 0.8578 0.6638 -0.0386 1.3033 -0.2633 1.8452 -0.6483 1.0873 -0.758 1.8552 -2.08456 2.7928 -2.92242 0.2855 -0.26673 0.626 -0.46755 0.9974 -0.58846 0.3262 -0.14133 0.7018 -0.10745 0.9975 0.08969 0.1354 0.1002 0.3261 0.07367 0.4288 -0.0598 0.1037 -0.13602 0.0817 -0.32959 -0.0499 -0.43887 -0.355 -0.27123 -0.8051 -0.38643 -1.2467 -0.31919 -0.5937 0.09521 -1.1513 0.34653 -1.6158 0.72817 -0.8778 0.70816 -1.5959 1.70551 -2.4836 2.38378 -0.4833 0.4399 -1.103 0.7004 -1.7555 0.7381 -0.3 0.0561 -0.5774 -0.1735 -0.5785 -0.4787 0.0143 -0.806 0.0911 -1.60971 0.2294 -2.4038 0.0252 -0.44663 -0.1292 -0.88479 -0.4289 -1.21694 -0.3673 -0.34347 -0.9123 -0.41561 -1.35638 -0.17949l-0.79796 0.38898c-0.20949 0.1197 -0.41898 0.24939 -0.60847 0.37909 -0.19766 0.14244 -0.38745 0.29561 -0.56847 0.45877 -0.23398 0.21551 -0.45072 0.44898 -0.64837 0.69817 -0.19946 0.23938 -0.38898 0.48874 -0.56857 0.74806 -0.09429 0.19316 0.05581 0.41616 0.2703 0.40126 0.06276 -0.0044 0.12215 -0.0298 0.16857 -0.0721 0.18949 -0.23937 0.37909 -0.45875 0.57858 -0.67824 0.20061 -0.21205 0.41377 -0.41194 0.63826 -0.59848 0.165 -0.12765 0.33827 -0.24428 0.51868 -0.34908 0.18418 -0.10949 0.37398 -0.20938 0.56857 -0.29918l0.72806 -0.29929c0.19949 -0.05979 0.34908 -0.06979 0.4389 0 0.1028 0.17419 0.1382 0.38 0.0998 0.57858 0 0.37898 -0.20952 0.99734 -0.28931 1.66559 -0.06827 0.4846 -0.01347 0.9786 0.15961 1.4363Z" stroke-width="1"></path>
</svg>