<svg xmlns="http://www.w3.org/2000/svg" fill="none" viewBox="0 0 24 24" id="Design-Process-Fibonacci--Streamline-Freehand">
  <desc>
    Design Process Fibonacci Streamline Icon: https://streamlinehq.com
  </desc>
  <path fill="#020202" fill-rule="evenodd" d="M12.0766 0.943099c-1.1862 -0.021633 -2.36498 0.191221 -3.46876 0.626121 -0.285 0.15041 -0.55755 0.32327 -0.8151 0.51684 -0.65551 0.51521 -1.2345 1.12092 -1.7195 1.79909 -0.22316 0.31418 -0.41928 0.64673 -0.58643 0.99398C4.8364 5.97291 4.45803 7.20679 4.38354 8.4772c0.06531 1.39796 0.3748 2.7738 0.91439 4.0652 1.44919 3.0639 3.64726 5.7132 6.39107 7.7031 0.9774 0.7942 2.0216 1.5025 3.121 2.117 0.1988 0.0994 0.4076 0.1789 0.6162 0.2585 1.8687 0.7852 2.0575 0.5168 2.2265 0.1093 -0.0207 -0.1443 -0.134 -0.2577 -0.2783 -0.2783 -0.7789 -0.1141 -1.5301 -0.3701 -2.2165 -0.7554 -1.0547 -0.6197 -2.0526 -1.3315 -2.9819 -2.127 -2.6801 -2.0529 -4.74337 -4.8039 -5.96357 -7.9516 1.29204 0.0895 2.58419 0.169 3.88627 0.1889 1.302 0.0199 2.3756 0 3.5583 0l5.1586 -0.1988v-0.994c-0.808 0.1092 -1.6271 0.1092 -2.4352 0 0.5892 -0.3381 1.0926 -0.80751 1.471 -1.37159 0.0378 -0.06388 0.071 -0.13031 0.0994 -0.19878 1.1488 -1.63755 1.1488 -3.81919 0 -5.45675 -0.6142 -0.86143 -1.4436 -1.54684 -2.4053 -1.98786 -1.0947 -0.46857 -2.2786 -0.69245 -3.4689 -0.656021ZM9.37315 10.5247c-1.14306 0 -2.28613 0.1093 -3.42909 0.159 -0.54255 -2.0863 -0.10735 -4.3062 1.18276 -6.03324 0.41959 -0.57082 0.91439 -1.08235 1.47102 -1.52072 0.53521 -0.43653 1.1446 -0.77327 1.79906 -0.99399 0.1491 0 0.328 -0.04969 0.4871 -0.07949 -0.0696 0.81511 -0.1492 1.64001 -0.1989 2.46501v1.7096l0.2486 4.23423 -1.56055 0.0596Zm2.37555 0v-0.76535c0.1387 0.21112 0.2986 0.40755 0.477 0.58645 0.0895 0.0895 0.1989 0.1094 0.2983 0.1889l-0.7753 -0.01Zm3.0414 -7.8919c1.4044 0.45592 2.4677 1.61347 2.803 3.05143 0.1539 1.03552 -0.0644 2.09215 -0.6163 2.98175 -0.5386 0.88857 -1.4865 1.44822 -2.5247 1.49092 -0.2886 0.0228 -0.5789 -0.0109 -0.8547 -0.0994 -0.266 -0.0806 -0.5106 -0.21989 -0.7157 -0.40744 -0.6562 -0.55551 -0.9918 -1.40205 -0.8945 -2.25633 0.1391 -0.66592 0.7653 -1.07348 1.8885 -0.8548 0.2104 0.03684 0.4124 -0.09918 0.4573 -0.30806 0.0367 -0.21041 -0.0993 -0.41235 -0.3082 -0.45725 -0.6894 -0.19633 -1.4297 -0.09163 -2.0376 0.28827V3.98453c0 -0.68581 -0.0795 -1.34184 -0.1391 -1.98786 1.0106 0.00102 2.0108 0.20378 2.942 0.59633v0.0398Z" clip-rule="evenodd" stroke-width="1"></path>
  <path fill="#0c6fff" fill-rule="evenodd" d="M12.0768 0.943086c3.2336 0.039728 5.9405 0.155684 8.1205 0.347854 -0.4572 8.75666 -0.9939 9.37286 -0.7355 18.61656 0 0.8349 0.0497 1.6599 0.1292 2.4848 0.0106 0.213 0.1951 0.3749 0.4075 0.3579 0.2142 -0.0107 0.3791 -0.1934 0.3678 -0.4076v-2.4252c0.0696 -1.9084 0.2385 -3.8167 0.2981 -5.735V9.45117c0 -1.58031 -0.0497 -3.15072 0 -4.72124 0.2088 -5.625624 0.7852 -4.214294 -6.4208 -4.6317438 -0.7256 0 -1.4412 -0.069592 -2.1668 -0.08938799 -0.7257 -0.01979601 -1.4413 0 -2.15689 0C8.24021 0.0981862 5.8249 0.207574 4.13521 0.306962c-0.10062 0.002959 -0.19337 0.054898 -0.24848 0.139082 -0.09071 0.065511 -0.14867 0.166939 -0.15908 0.278368C3.52888 3.37819 3.3201 6.06187 3.23071 8.75545v5.36725c0.07949 2.0476 0.24847 4.0851 0.35776 6.1228 0.04969 0.8746 0.07959 2.2363 0.09939 3.111 -0.00031 0.1892 0.15908 0.3395 0.34796 0.328l8.55778 0.3081c1.3915 0.0497 2.9321 -0.1689 4.4132 -0.149 1.0722 0.0207 2.1447 -0.0292 3.2104 -0.1491 0.2965 -0.0335 0.4456 -0.3754 0.2683 -0.6155 -0.0892 -0.1209 -0.2403 -0.1793 -0.3876 -0.1499 -0.1392 0 0.6958 0 -2.2264 0.1789 -5.6059 0 -7.7329 0.1093 -13.47793 -0.1292 0.0497 -1.0536 0.07959 -2.6041 0.08949 -3.6577v-6.7787c0 -0.0994 -0.17888 -4.37338 -0.16898 -4.10501l0.18888 -7.42471C7.17664 0.943086 9.59195 0.923188 11.7687 0.943086h0.3081Z" clip-rule="evenodd" stroke-width="1"></path>
</svg>