<svg xmlns="http://www.w3.org/2000/svg" fill="none" viewBox="0 0 24 24" id="Design-Process-Pen-Idea--Streamline-Freehand">
  <desc>
    Design Process Pen Idea Streamline Icon: https://streamlinehq.com
  </desc>
  <path fill="#0c6fff" fill-rule="evenodd" d="M2.61224 7.98151c-0.09224 -0.04684 -0.18929 -0.08367 -0.28939 -0.1098 -0.10285 -0.00969 -0.20632 -0.00969 -0.30928 0 -1.10735 -0.16959 -1.167248 -0.04989 -1.237044 0.1098 -0.069796 0.15969 -0.049898 0.40898 0.907854 0.90786 0.09592 0.05163 0.19602 0.095 0.29929 0.12969 0.10928 0.01449 0.22 0.01449 0.32928 0 0.1097 0 1.12735 0 1.19715 -0.31918 0.02 -0.02 0.11979 -0.23949 -0.89786 -0.71837Z" clip-rule="evenodd" stroke-width="1"></path>
  <path fill="#0c6fff" fill-rule="evenodd" d="M4.6075 4.11051s0.78827 0.30928 0.99776 0.12969c0.20949 -0.17959 -0.1098 -0.99775 -0.1198 -0.99775 -0.02816 -0.06102 -0.06898 -0.11541 -0.11969 -0.15959 -0.05704 -0.04143 -0.12133 -0.07184 -0.1896 -0.0898 -0.78816 -0.36918 -0.91785 -0.23949 -0.99765 -0.12969 -0.07979 0.10979 -0.18959 0.21949 0.18959 0.99765 0.02327 0.04755 0.05357 0.09122 0.0898 0.12969 0.03694 0.05388 0.08898 0.09562 0.14959 0.1198Z" clip-rule="evenodd" stroke-width="1"></path>
  <path fill="#0c6fff" fill-rule="evenodd" d="M12.0902 1.99541c0.2694 0 0.5787 -0.71837 0.6087 -0.79817 0.0104 -0.06612 0.0104 -0.13346 0 -0.199587 0.0094 -0.06949 0.0094 -0.14 0 -0.20949C12.4095 0 12.2499 0 12.0902 0s-0.3192 0 -0.5786 0.848061c-0.0103 0.066122 -0.0103 0.133367 0 0.199489 -0.0097 0.06623 -0.0097 0.13337 0 0.19959 0.2993 0.86796 0.5687 0.74827 0.5786 0.74827Z" clip-rule="evenodd" stroke-width="1"></path>
  <path fill="#0c6fff" fill-rule="evenodd" d="M18.0463 3.4021c0.0746 -0.03377 0.1423 -0.08112 0.1996 -0.13969 0.0584 -0.05857 0.1118 -0.12194 0.1596 -0.18959 0.5686 -0.79816 0.4788 -0.90786 0.379 -0.99765 -0.0997 -0.0898 -0.2593 -0.27939 -1.1373 0.13969l-0.2295 0.13969c-0.0641 0.0596 -0.121 0.12653 -0.1696 0.19949 -0.0485 0.07296 -0.4889 0.83806 -0.2893 0.99766 0.1996 0.15959 1.0177 -0.1097 1.0875 -0.1496Z" clip-rule="evenodd" stroke-width="1"></path>
  <path fill="#0c6fff" fill-rule="evenodd" d="M22.1768 7.46276c-0.0761 -0.01 -0.1533 -0.01 -0.2294 0 -0.079 0.00918 -0.1561 0.02929 -0.2295 0.0598 -0.9978 0.40908 -0.8281 0.65847 -0.8281 0.66847 0 0.28928 0.7882 0.48887 0.9977 0.51877 0.0892 0.0149 0.1802 0.0149 0.2694 0 0.0872 -0.01132 0.1717 -0.03837 0.2494 -0.07979 0.8779 -0.40909 0.8679 -0.61858 0.828 -0.78817 -0.0399 -0.16959 -0.1995 -0.30918 -1.0575 -0.37908Z" clip-rule="evenodd" stroke-width="1"></path>
  <path fill="#0c6fff" fill-rule="evenodd" d="M12.5094 12.3513c-0.4889 -1.1374 -0.8181 -0.8281 -1.0975 0v0.7283c-0.0016 0.4632 0.0217 0.9262 0.0698 1.3868 0.0599 0.6984 0.1696 1.3768 0.2095 2.0752 0 0.2842 0.3077 0.4618 0.5538 0.3197 0.1142 -0.0659 0.1846 -0.1878 0.1846 -0.3197 0.1148 -0.6905 0.1947 -1.3865 0.2394 -2.0851v-0.888c-0.0084 -0.2937 -0.0316 -0.5867 -0.0698 -0.8779l-0.0898 -0.3393Z" clip-rule="evenodd" stroke-width="1"></path>
  <path fill="#020202" fill-rule="evenodd" d="M19.1739 8.3706c-0.2776 -1.46766 -0.9701 -2.8249 -1.9954 -3.91092 -1.0282 -1.12796 -2.3927 -1.89418 -3.891 -2.185 -1.6722 -0.20408 -3.36511 0.14643 -4.81878 0.99776 -1.48225 0.77091 -2.69112 1.97969 -3.46204 3.46193 -0.5101 1.14694 -0.74255 2.39796 -0.67837 3.65153 0.04878 1.2428 0.39072 2.4563 0.99765 3.5418 0.55868 0.9977 1.22715 1.6662 1.70602 2.5042 0.29562 0.499 0.48898 1.0518 0.56868 1.6262h-0.0997c-0.25347 0 -0.41183 0.2743 -0.2852 0.4938 0.05888 0.102 0.16755 0.1647 0.2852 0.1647h3.72134l2.4543 0.0898c0.4389 0.0165 0.8758 0.0665 1.307 0.1496 0.2103 0.0219 0.414 0.0864 0.5986 0.1896 0.1297 0.0698 0.2195 0.1297 0.2494 0.2095 0.0299 0.0798 0 0.0798 -0.0798 0.1297 -0.0661 0.0862 -0.1433 0.1633 -0.2295 0.2295 -0.5526 0.4112 -1.2022 0.6724 -1.8856 0.7582 -1.1203 0.1561 -2.2581 0.1358 -3.3722 -0.0599 -0.36762 -0.0695 -0.72364 -0.1904 -1.05752 -0.3591 -0.34622 -0.1683 -0.67969 -0.3617 -0.99765 -0.5786 -0.16071 -0.1307 -0.39837 -0.0988 -0.51888 0.0698 -0.11898 0.1639 -0.08826 0.3922 0.0699 0.5188 0.41337 0.337 0.85765 0.6342 1.32694 0.8879 0.06979 0 0.15959 0.0499 0.23939 0.0898 -0.11204 0.0732 -0.16439 0.21 -0.1297 0.3392 0.12766 0.6266 0.42439 1.2062 0.85802 1.6761 0.4708 0.4841 1.0814 0.8086 1.746 0.9279 0.7462 0.0765 1.4939 -0.13 2.0951 -0.5787 0.5989 -0.454 0.892 -1.2059 0.7582 -1.9455 0.5913 -0.1272 1.1509 -0.3713 1.6463 -0.7183 0.4373 -0.291 0.7281 -0.7564 0.7981 -1.277 0.0122 -0.5918 -0.3349 -1.132 -0.8779 -1.3669 -0.1446 -0.0615 -0.295 -0.1082 -0.449 -0.1397 -0.154 -0.0314 0 -0.0498 0 -0.0897 0.0349 -0.5026 0.2074 -0.9859 0.4988 -1.3968 0.4589 -0.6983 1.0975 -1.307 1.5664 -1.9954 0.5579 -0.8838 0.9532 -1.8603 1.1672 -2.8834 0.2724 -1.0518 0.3302 -2.14781 0.1697 -3.2224Zm-5.6768 13.9676c-0.2132 0.1579 -0.4584 0.2669 -0.7184 0.3192 -0.267 0.0498 -0.541 0.0498 -0.8081 0 -0.4443 -0.0258 -0.8711 -0.1819 -1.2272 -0.449 -0.3695 -0.2767 -0.67 -0.6353 -0.87795 -1.0475 0.08061 0.0393 0.16395 0.0726 0.24935 0.0998 1.2064 0.298 2.4524 0.4023 3.6915 0.3093h0.0599c-0.0145 0.2953 -0.1476 0.5724 -0.3691 0.7682ZM9.99515 9.85713c0.13965 -0.35919 0.27935 -0.70837 0.44895 -1.05755 0.0798 -0.1796 0.1896 -0.34919 0.2794 -0.51878 0.1909 0.10765 0.3913 0.19786 0.5986 0.26939 0.1497 0.0401 0.304 0.0602 0.459 0.0598 0.1577 0.00265 0.3152 -0.01409 0.4688 -0.0498 0.2828 -0.07847 0.552 -0.19959 0.7982 -0.35918 0.2893 0.55867 0.5587 1.11734 0.8381 1.67612 -0.4291 -0.0599 -0.8481 -0.1198 -1.2771 -0.1597h-1.3868c-0.449 0.03 -0.848 0.0898 -1.22715 0.1397Zm1.20725 -2.45429c0.1895 -0.34918 0.3691 -0.69836 0.5587 -0.99765l0.1297 -0.41908c0.0898 0.21949 0.1695 0.43898 0.2094 0.51877 0.1796 0.28939 0.3293 0.58868 0.4989 0.87796h-0.4889c-0.1893 -0.0102 -0.3792 -0.0102 -0.5686 0 -0.1234 -0.00367 -0.2469 0.00296 -0.3692 0.02h0.03Zm2.584 10.29616 -2.4843 0.1197 -0.9977 0.0599v-3.5119c0 -0.3991 0 -0.7881 -0.0698 -1.1872 -0.0799 -0.8481 -0.1896 -1.6761 -0.26935 -2.5142 1.21135 0.3595 2.49745 0.3836 3.72135 0.0698 -0.1292 0.8488 -0.1992 1.7056 -0.2095 2.5641 0 0.5586 0.0599 1.1174 0.1098 1.6661 0.0798 0.8281 0.2195 1.6462 0.2594 2.4743 -0.0082 0.0971 0.0285 0.1926 0.0997 0.2594h-0.1596Zm4.31 -6.3752c-0.1732 0.924 -0.5112 1.8094 -0.9977 2.6138 -0.5188 0.8581 -1.297 1.5864 -1.726 2.4743 -0.1979 0.4086 -0.3099 0.8534 -0.3293 1.3071 -0.186 -0.01 -0.3725 -0.01 -0.5587 0 0.0656 -0.0631 0.1048 -0.1487 0.1098 -0.2395 0.1309 -0.9389 0.1976 -1.8855 0.1995 -2.8335 0 -0.5587 0 -1.1173 -0.0998 -1.6761 -0.1642 -1.7854 -0.4442 -3.55838 -0.838 -5.30767 -0.2294 -0.56867 -0.4689 -1.12735 -0.7383 -1.68612 -0.1881 -0.42572 -0.4152 -0.83327 -0.6784 -1.21714 -0.1458 -0.18868 -0.3434 -0.33082 -0.5686 -0.40909 -0.3253 -0.04295 -0.642 0.12541 -0.7883 0.41909 -0.1496 0.28928 -0.4888 1.05755 -0.4988 1.07744 -0.3492 0.85807 -0.72835 1.72602 -0.99774 2.62398 -0.56867 1.65611 -0.37908 0.91786 -0.49877 4.74901v1.2171c0 0.4091 0.0499 0.7982 0.0898 1.1973 0.08979 0.7781 0.20948 1.5464 0.31918 2.3145l-1.17725 0.0799c-0.07193 -0.6779 -0.2752 -1.3354 -0.59857 -1.9355 -0.44898 -0.858 -1.08755 -1.5963 -1.60632 -2.574 -0.50347 -0.9752 -0.7701 -2.0552 -0.77817 -3.1527 -0.01489 -1.08244 0.22786 -2.15275 0.70837 -3.12275 0.66082 -1.25459 1.69194 -2.2752 2.95316 -2.92326 1.20851 -0.69215 2.60821 -0.97561 3.99071 -0.80817 1.259 0.22511 2.4129 0.84745 3.2924 1.77592 0.9132 0.89908 1.5562 2.03633 1.8557 3.28235 0.1607 0.91224 0.1471 1.84651 -0.0399 2.75371Z" clip-rule="evenodd" stroke-width="1"></path>
</svg>