<svg xmlns="http://www.w3.org/2000/svg" fill="none" viewBox="0 0 24 24" id="Design-Process-Drawing-Board-Education--Streamline-Freehand">
  <desc>
    Design Process Drawing Board Education Streamline Icon: https://streamlinehq.com
  </desc>
  <path fill="#020202" fill-rule="evenodd" d="M3.30039 14.8241c-0.26112 0.0015 -0.42286 0.285 -0.29102 0.5105 0.06051 0.1034 0.17112 0.1673 0.29102 0.1679 4.82888 0.0699 13.30941 -1.0575 15.13521 -0.0997 0.0598 0 0.1596 0.1995 0.2594 0.2494 -0.6785 0.9279 -3.053 0.6186 -4.2802 0.7284 -2.0752 0.1995 -4.1803 0.0698 -6.26563 0.1696 -2.64388 0.1097 -4.82888 0.7482 -6.98388 0.3592 -0.748268 -0.1397 -0.528778 -0.9978 0.17959 -1.1175 0 0 1.21714 -0.3093 1.22714 -0.3492 0.05113 -0.2313 -0.14459 -0.4425 -0.37908 -0.4091 -0.23949 0 -0.85806 0.1197 -0.99775 0.1397 -1.396741 0.2594 -1.706026 2.0952 -0.1896 2.4344 0.71837 0.1506 1.45123 0.2209 2.18501 0.2095 0 0.0998 -0.99766 3.1728 -1.23715 4.4997 -0.31928 1.7759 2.165 2.0852 2.83347 0.5188 0.27378 -0.718 0.50694 -1.4508 0.69847 -2.1949 0.26796 0.0393 0.54021 0.0393 0.80807 0 1.52183 0.1919 3.05796 0.2453 4.58954 0.1596 2.9931 -0.1596 2.2447 0 2.9931 -0.0798 0.7484 -0.0798 0.1895 -0.6685 1.2571 2.0952 0.6585 1.5564 3.1428 1.257 2.8235 -0.5288 -0.1996 -0.9378 -1.1773 -4.4897 -1.3868 -4.8589 0.544 -0.0044 1.0847 -0.085 1.6063 -0.2395 0.9379 -0.2892 1.9455 -1.2071 1.5365 -2.0452 -1.0376 -2.3447 -10.13669 -0.409 -16.41231 -0.3193Zm0.50878 7.5726c-0.15959 0.3692 -0.74827 0.439 -0.69837 0.0998 0.57867 -3.5418 0.68837 -4.3301 0.79816 -4.6992 0.52878 0 1.05756 -0.0599 1.57633 -0.1098 -0.42837 1.6131 -0.98898 3.1882 -1.67612 4.7092Zm9.97703 -2.3945c-2.5242 -0.2195 -0.7482 -0.4889 -8.09132 0 0.1796 -0.7483 0.34919 -1.5265 0.49888 -2.3446 2.99307 -0.2594 4.75894 0.0598 7.62244 -0.0898 0.1596 0.8481 0.3292 1.6561 0.5288 2.4344 -0.1793 0.0354 -0.3646 0.0251 -0.5388 -0.0299l-0.02 0.0299Zm3.1528 2.4943c0 0.3392 -0.5387 0.2594 -0.6984 -0.0998 -0.7098 -1.5823 -1.2871 -3.2209 -1.726 -4.8988h1.5364c-0.0299 0.0699 -0.0299 -0.9976 0.908 4.9986h-0.02Z" clip-rule="evenodd" stroke-width="1"></path>
  <path fill="#0c6fff" fill-rule="evenodd" d="M1.63411 14.6446c0.03847 0.2226 0.30358 0.3203 0.47725 0.1757 0.08061 -0.0671 0.11929 -0.1721 0.10143 -0.2755 -0.06245 -1.141 -0.03582 -2.2853 0.07979 -3.4222 -0.05316 -1.31301 0.00694 -2.62822 0.1796 -3.93087 0.23949 -0.99776 0.09979 -0.80817 2.215 -1.11745 1.79429 -0.335 3.61266 -0.52521 5.43742 -0.56868 0.2612 -0.00153 0.4228 -0.2851 0.2911 -0.51051 -0.0606 -0.10347 -0.1712 -0.16735 -0.2911 -0.16796h-0.39905c0.0997 -0.05755 0.16072 -0.16428 0.15959 -0.27939 0.05337 -0.51408 0.0196 -1.03357 -0.09969 -1.53643C9.13688 0.766413 6.98188 1.88386 7.30116 4.83713c-0.60867 0 -4.05072 0.24939 -4.63939 0.40898 -1.42674 0.37919 -1.18725 1.19725 -1.29704 1.68613 -0.19562 1.39 -0.19562 2.80041 0 4.19036 0.00214 1.179 0.09214 2.3563 0.26938 3.522ZM8.7179 3.01131c0.59857 1.92552 0.54867 1.78592 0.63847 1.84572H8.11922c0.03878 -0.65623 0.2448 -1.29163 0.59868 -1.84572Z" clip-rule="evenodd" stroke-width="1"></path>
  <path fill="#0c6fff" fill-rule="evenodd" d="M18.1861 11.1825c-0.0014 -0.2304 -0.2516 -0.373 -0.4505 -0.2566 -0.0912 0.0533 -0.1475 0.1509 -0.1481 0.2566 -0.4366 0.7953 -0.4366 1.7587 0 2.5541 0.2394 0.5588 0.7483 0.1996 0.7084 0 -0.02 -1.5265 0.2892 -1.0077 -0.1098 -2.5541Z" clip-rule="evenodd" stroke-width="1"></path>
  <path fill="#020202" fill-rule="evenodd" d="M23.843 2.8417c-0.2992 -0.48888 -0.7881 -0.66847 -2.1151 -1.35694C18.3058 0.177822 18.1361 0.018128 17.8867 0.227618c-0.1308 0.12898 -0.1308 0.34 0 0.46898 1.139 0.600302 2.3154 1.126842 3.5219 1.576332 0.0798 0.05989 1.4667 1.06755 1.5465 1.08755 0.0798 0.02 -3.522 1.69612 -3.7115 1.77592 -0.292 0.21459 -0.6369 0.34571 -0.9977 0.37908 -0.0898 0 -4.8888 -1.69602 -5.3078 -1.99541 0.3691 -0.18949 -1.3569 0.88796 3.7115 -2.32459 0.1987 -0.11664 0.1968 -0.404596 -0.0036 -0.518474 -0.0847 -0.048163 -0.1877 -0.052041 -0.2758 -0.010306l-3.053 1.53643c-0.8679 0.39908 -1.9954 0.93786 -1.3468 1.68612 -0.1506 1.4048 -0.1873 2.8195 -0.1098 4.23031 -1.1453 0.3247 -1.5096 1.76746 -0.6557 2.59694 0.0023 0.0024 0.0048 0.0047 0.0072 0.007 0.7982 0.878 2.4344 0.8182 2.7636 -0.399 0.2989 -0.95004 -0.2762 -1.953 -1.2472 -2.17504 0.1928 -1.18051 0.233 -2.38102 0.1198 -3.57174 0.5388 0.29929 1.5066 0.65847 3.7215 1.53644 0.4688 0.15959 1.297 0.77816 1.9156 0.56867 1.8408 -0.74419 3.6078 -1.65949 5.2778 -2.73368 0.2826 -0.305 0.3158 -0.7652 0.0798 -1.10745ZM12.9381 8.99753c0.2693 0.32918 0.1596 1.37687 -0.2994 1.39677 -0.4589 0.0199 -0.9976 -0.7882 -0.8879 -1.20718 0.2096 -0.73837 1.1174 -0.26939 1.1873 -0.18959Z" clip-rule="evenodd" stroke-width="1"></path>
  <path fill="#020202" fill-rule="evenodd" d="M21.758 5.8448c-0.469 0 -0.3393 0.49888 -0.449 0.99766 -0.1097 0.49877 -0.6984 0.48888 -1.3569 0.78826 -0.6584 0.29939 -1.3369 0.76817 -1.9356 0.99766 -0.9948 -0.23704 -1.9638 -0.57123 -2.8933 -0.99766 -0.1397 -0.69847 0 -1.07755 -0.409 -1.07755 -0.1653 0 -0.2994 0.13398 -0.2994 0.29929l0 0.99775c0.0039 0.12041 0.0539 0.2347 0.1397 0.31919 0.5188 0.52888 2.9932 1.82582 3.6316 1.65622 0.7972 -0.29704 1.5441 -0.71418 2.2149 -1.23714 0.5082 -0.22051 0.974 -0.52776 1.3769 -0.90786 0.3293 -0.41908 0.2595 -0.79816 0.2694 -1.33694 0.1307 -0.21724 -0.0229 -0.49439 -0.2763 -0.49888 -0.0044 -0.0001 -0.0086 -0.0001 -0.013 0Z" clip-rule="evenodd" stroke-width="1"></path>
</svg>