<svg xmlns="http://www.w3.org/2000/svg" fill="none" viewBox="0 0 24 24" id="Vectors-Pen-Draw--Streamline-Freehand">
  <desc>
    Vectors Pen Draw Streamline Icon: https://streamlinehq.com
  </desc>
  <path fill="#020202" d="M23.952 22.7733c-0.1896 -0.5888 -0.3393 -1.1876 -0.529 -1.7764 -0.0798 -0.2495 -0.1596 -0.499 -0.2594 -0.7485 -0.0998 -0.2495 -0.1996 -0.489 -0.3094 -0.7285 -0.2794 -0.5688 -0.5988 -1.0977 -0.8982 -1.6466 -0.0267 -0.0653 -0.0764 -0.1185 -0.1397 -0.1497 0.3666 -0.569 0.6999 -1.1588 0.998 -1.7664 0.2224 -0.4206 0.3549 -0.8828 0.3892 -1.3572 -0.3562 -1.1148 -1.0546 -2.0891 -1.9959 -2.7844 -0.6798 -0.6005 -1.4346 -1.1104 -2.2455 -1.5169 -0.3043 -0.1672 -0.6594 -0.217 -0.9979 -0.1397 -0.2743 0.1668 -0.512 0.3875 -0.6986 0.6487 -0.5765 0.7503 -1.0937 1.5445 -1.5468 2.3751 -0.4947 0.7336 -0.7747 1.5908 -0.8084 2.475 0.2456 0.654 0.6585 1.2321 1.1976 1.6766 0.64 0.5769 1.3509 1.0699 2.1156 1.467 -0.0055 0.0229 -0.0055 0.0469 0 0.0698 0.0998 0.6088 0.1298 1.2176 0.2396 1.8263 0.0598 0.3593 0.1497 0.7086 0.2395 1.0579 0.1297 0.5389 0.2794 1.0478 0.3692 1.5867 0.0013 0.0429 0.0111 0.085 0.029 0.1239 0.0179 0.039 0.0434 0.0739 0.0751 0.1028 0.0316 0.0288 0.0688 0.051 0.1092 0.0652 0.0404 0.0143 0.0833 0.0202 0.126 0.0175 0.0429 -0.0013 0.085 -0.0111 0.1239 -0.029 0.039 -0.0179 0.0739 -0.0434 0.1028 -0.075 0.0288 -0.0317 0.051 -0.0689 0.0652 -0.1093 0.0143 -0.0404 0.0202 -0.0832 0.0175 -0.126 0.0499 -0.5611 0.0499 -1.1255 0 -1.6866 -0.013 -0.2386 -0.0464 -0.4756 -0.0998 -0.7085 -0.0386 -0.2346 -0.0987 -0.4651 -0.1796 -0.6886 -0.1356 -0.3954 -0.2956 -0.7821 -0.4791 -1.1577 0.2591 0.0201 0.5194 0.0201 0.7785 0 0.2802 -0.0372 0.553 -0.118 0.8083 -0.2395 0.3047 -0.1468 0.6012 -0.31 0.8882 -0.489h0.0699c0.1197 0.5289 0.2295 1.0579 0.3892 1.5868 0.0798 0.2495 0.1696 0.509 0.2694 0.7485 0.0998 0.2395 0.2096 0.4989 0.3194 0.7385 0.2794 0.5588 0.5888 1.0977 0.8981 1.6466 0.0163 0.0399 0.0405 0.0762 0.0711 0.1065 0.0307 0.0303 0.0672 0.0541 0.1073 0.07 0.0401 0.0158 0.0829 0.0234 0.1261 0.0222 0.0431 -0.0011 0.0855 -0.011 0.1247 -0.029 0.0413 -0.0188 0.0782 -0.0461 0.1082 -0.0803 0.0299 -0.0341 0.0523 -0.0742 0.0655 -0.1177 0.0132 -0.0434 0.017 -0.0892 0.0112 -0.1342 -0.0059 -0.045 -0.0213 -0.0883 -0.0452 -0.1269Zm-5.0697 -7.854c0.7585 -0.3792 1.0578 0.1597 1.0878 0.4291 0.0599 0.499 -0.6088 0.6687 -0.998 0.4791 -0.0894 -0.0324 -0.168 -0.0892 -0.2268 -0.164 -0.0588 -0.0747 -0.0955 -0.1645 -0.1059 -0.259 -0.0104 -0.0946 0.0059 -0.1902 0.0471 -0.2759 0.0412 -0.0858 0.1055 -0.1583 0.1858 -0.2093h0.01Zm1.3373 2.924 -0.3992 0.0799 -0.3693 0.1297c-0.2694 0.1198 -0.489 0.2495 -0.7484 0.3693 -0.7685 -0.4457 -1.4734 -0.9928 -2.0958 -1.6267 -0.4038 -0.3721 -0.7032 -0.8435 -0.8682 -1.3672 0.0085 -0.1374 0.0496 -0.2708 0.1198 -0.3892 0.2077 -0.4622 0.4478 -0.909 0.7185 -1.3373 0.4299 -0.6897 0.8962 -1.356 1.3972 -1.9959 0.0151 0.4112 0.0551 0.8211 0.1197 1.2275 0.0748 0.3539 0.1681 0.7036 0.2794 1.0478l0.0998 0.2994c-0.1283 0.0609 -0.2462 0.1418 -0.3493 0.2395 -0.1189 0.1344 -0.2059 0.2941 -0.2543 0.4669 -0.0484 0.1729 -0.057 0.3544 -0.0251 0.5311 0.0096 0.2345 0.0731 0.4636 0.1856 0.6696 0.1125 0.2059 0.271 0.3832 0.4631 0.518 0.3996 0.1974 0.8582 0.24 1.2874 0.1197 0.1864 -0.0286 0.3645 -0.0973 0.5219 -0.2012 0.1574 -0.104 0.2904 -0.2408 0.39 -0.401 0.0995 -0.1603 0.1632 -0.3401 0.1867 -0.5273 0.0235 -0.1872 0.0061 -0.3772 -0.0508 -0.557 -0.0766 -0.3031 -0.2578 -0.5694 -0.5116 -0.752 -0.2538 -0.1825 -0.5638 -0.2697 -0.8755 -0.246v-0.2994c0 -0.0998 -0.0799 -0.489 -0.1298 -0.7285 -0.0499 -0.2395 -0.1197 -0.4691 -0.1996 -0.6986 -0.0798 -0.2295 -0.2395 -0.6686 -0.3592 -0.998 0.7936 0.4347 1.5338 0.9605 2.2055 1.5668 0.6786 0.6088 1.2873 1.2176 1.3372 1.6866 -0.0565 0.4582 -0.1987 0.9017 -0.4191 1.3073 -0.2794 0.6387 -0.6387 1.3174 -0.8882 1.7565 -0.2595 0.0499 -0.5189 0.0698 -0.7784 0.1097h0.01Z" stroke-width="1"></path>
  <path fill="#0c6fff" d="M17.9643 9.57024c0.0841 0.01011 0.1687 -0.01251 0.2365 -0.06315 0.0678 -0.05065 0.1135 -0.12544 0.1276 -0.20887 0.0141 -0.08342 -0.0044 -0.16908 -0.0518 -0.23921 -0.0473 -0.07013 -0.1198 -0.11934 -0.2025 -0.13744 -0.4468 -0.05383 -0.8997 0.01878 -1.3073 0.20957 -0.7679 0.42046 -1.5574 0.80021 -2.3652 1.13766 -0.2184 0.0584 -0.4427 0.0919 -0.6686 0.0998 -0.1298 0 -0.2695 0 -0.3393 -0.1098 -0.055 -0.1377 -0.055 -0.29133 0 -0.42908 0.0861 -0.32432 0.2136 -0.63624 0.3792 -0.92811 0.3094 -0.64868 0.6586 -1.26742 0.9281 -1.9161 0.1932 -0.46443 0.3306 -0.95019 0.4092 -1.44705 0.073 -0.56565 -0.017 -1.1404 -0.2595 -1.65662 -0.109 -0.21143 -0.2713 -0.39076 -0.4708 -0.52027 -0.1995 -0.12952 -0.4294 -0.20473 -0.6669 -0.21822 -0.4718 -0.00693 -0.9358 0.12119 -1.3373 0.36924 -0.5059 0.28725 -0.9836 0.62137 -1.4271 0.99797 -0.99792 0.88819 -2.45495 2.72445 -3.99182 3.90204 -0.37584 0.39002 -0.84693 0.67525 -1.36674 0.82752 -0.5198 0.15226 -1.07033 0.1663 -1.59721 0.04071 -0.04489 -0.01659 -0.08601 -0.04198 -0.12095 -0.07468 -0.03494 -0.0327 -0.063 -0.07205 -0.08252 -0.11575 -0.01952 -0.04369 -0.03012 -0.09084 -0.03117 -0.13869 -0.00105 -0.04784 0.00747 -0.09541 0.02506 -0.13992 0.10543 -0.381 0.26687 -0.74424 0.47903 -1.0778 0.59878 -1.11772 1.52689 -2.11569 2.27536 -3.20347 0.34206 -0.47896 0.63621 -0.99038 0.87821 -1.52689 0.45906 -1.09776 0.24949 -1.78636 -0.20957 -2.195522C6.75569 0.54922 6.25262 0.395059 5.73436 0.357053 5.21609 0.319046 4.69591 0.398169 4.21238 0.588555c-0.34669 0.103629 -0.68125 0.244148 -0.99797 0.419145 -0.29502 0.15582 -0.5785 0.33258 -0.84827 0.52892 -0.32932 0.21955 -0.64867 0.46905 -0.99796 0.71854 -0.34929 0.24949 -0.838292 0.74847 -1.2873767 1.11772C0.0288858 3.42835 0 3.50148 0 3.57746c0 0.07598 0.0288858 0.14911 0.0808033 0.20458 0.0554707 0.05192 0.1286057 0.08081 0.2045827 0.08081 0.075977 0 0.149112 -0.02889 0.204583 -0.08081 0.449085 -0.36924 0.898171 -0.74847 1.357231 -1.10774 0.30937 -0.22953 0.61874 -0.44908 0.93809 -0.65865 0.31935 -0.20958 0.52892 -0.32933 0.79837 -0.46905 0.26904 -0.13457 0.54959 -0.24479 0.83829 -0.32933 0.64969 -0.20387 1.34624 -0.20387 1.99593 0 0.44909 0.18962 0.57882 0.61874 0.21956 1.39715 -0.24057 0.49123 -0.53155 0.95611 -0.86823 1.38718 -0.77842 1.0778 -1.77638 2.06579 -2.455 3.20347 -0.35949 0.53498 -0.5885 1.14681 -0.66864 1.78635 -0.02457 0.297 0.05307 0.59348 0.22004 0.84031 0.16698 0.24687 0.41328 0.42927 0.69809 0.51697 0.52741 0.1698 1.08666 0.2167 1.63499 0.1371 0.54832 -0.0795 1.07118 -0.2835 1.52856 -0.59621 1.88616 -1.08778 3.62265 -3.47292 4.85015 -4.53076 0.3777 -0.3736 0.7923 -0.70797 1.2374 -0.99797 0.2312 -0.15543 0.5003 -0.24512 0.7785 -0.25947 0.0965 0.01946 0.1848 0.06823 0.2527 0.13967 0.0678 0.07143 0.112 0.16206 0.1265 0.25952 0.1079 0.29323 0.1455 0.60771 0.1098 0.91813 -0.053 0.42447 -0.1603 0.84038 -0.3194 1.23747 -0.2395 0.64868 -0.5589 1.25744 -0.8483 1.88616 -0.184 0.36038 -0.3214 0.74266 -0.4091 1.13768 -0.0752 0.34088 -0.0181 0.69758 0.1596 0.99798 0.1442 0.2146 0.366 0.3648 0.6188 0.4191 0.4318 0.063 0.8724 0.0255 1.2874 -0.1097 0.7085 -0.1996 1.5967 -0.8783 2.445 -1.23752 0.2919 -0.15038 0.6213 -0.21279 0.948 -0.17964Z" stroke-width="1"></path>
</svg>