<svg xmlns="http://www.w3.org/2000/svg" viewBox="0 0 14 14">
  <path d="M13.4,8.48a.23.23,0,0,1-.05-.21A6,6,0,0,0,13.48,7,6.5,6.5,0,0,0,7,.52,6.74,6.74,0,0,0,5.73.65.27.27,0,0,1,5.52.6,2.81,2.81,0,0,0,3.46,0,3.81,3.81,0,0,0,1.14,1.14,3.33,3.33,0,0,0,.59,5.5a.31.31,0,0,1,.05.21A6.45,6.45,0,0,0,7,13.5a5.81,5.81,0,0,0,1.3-.14.31.31,0,0,1,.21.05,3.34,3.34,0,0,0,4.36-.55A3.33,3.33,0,0,0,13.4,8.48ZM7.08,10.4c-.76,0-2.39-.17-2.39-1.1a.65.65,0,0,1,.66-.69c.46,0,1,.38,1.65.38s1-.36,1-.85C8,7,4.72,7.68,4.72,5.4A2.27,2.27,0,0,1,7.16,3.18c.55,0,1.92.2,1.92,1a.67.67,0,0,1-.66.72c-.4,0-.71-.29-1.3-.29-.42,0-.81.23-.81.64,0,1,3.28.36,3.28,2.89A2.33,2.33,0,0,1,7.08,10.4Z" style="fill: #000001"/>
</svg>
