<svg xmlns="http://www.w3.org/2000/svg" viewBox="0 0 14 14">
  <g>
    <path d="M12.69,4.56a.26.26,0,0,1-.19-.25V4.25A1.76,1.76,0,0,0,10.75,2.5h-9A1.76,1.76,0,0,0,0,4.25v5.5A1.76,1.76,0,0,0,1.75,11.5h9A1.76,1.76,0,0,0,12.5,9.75V9.69a.26.26,0,0,1,.19-.25A1.75,1.75,0,0,0,14,7.75V6.25A1.75,1.75,0,0,0,12.69,4.56ZM12.5,7.75a.25.25,0,0,1-.25.25h-.5a.76.76,0,0,0-.75.75v1a.25.25,0,0,1-.25.25h-9a.25.25,0,0,1-.25-.25V4.25A.25.25,0,0,1,1.75,4h9a.25.25,0,0,1,.25.25v1a.76.76,0,0,0,.75.75h.5a.25.25,0,0,1,.25.25Z" style="fill: #000001"/>
    <path d="M3.25,5a.76.76,0,0,0-.75.75v2.5a.75.75,0,0,0,1.5,0V5.75A.76.76,0,0,0,3.25,5Z" style="fill: #000001"/>
    <path d="M6.25,5a.76.76,0,0,0-.75.75v2.5a.75.75,0,0,0,1.5,0V5.75A.76.76,0,0,0,6.25,5Z" style="fill: #000001"/>
  </g>
</svg>
