<svg xmlns="http://www.w3.org/2000/svg" fill="none" viewBox="0 0 48 48" id="Ticket-1--Streamline-Plump">
  <desc>
    Ticket 1 Streamline Icon: https://streamlinehq.com
  </desc>
  <g id="ticket-1--hobby-ticket-event-entertainment-stub-theater-entertainment-culture">
    <path id="Subtract" fill="#8fbffa" d="M7.444 40.543c-2.23 -0.166 -3.913 -1.762 -4.12 -3.99A96.902 96.902 0 0 1 3 31.369c-0.035 -0.925 0.6 -1.718 1.4 -2.181a5.99 5.99 0 0 0 3 -5.187 5.99 5.99 0 0 0 -3 -5.186c-0.8 -0.464 -1.435 -1.257 -1.4 -2.181 0.085 -2.2 0.203 -3.897 0.323 -5.187 0.207 -2.227 1.89 -3.823 4.12 -3.99C10.417 7.235 15.553 7 24 7s13.583 0.234 16.556 0.457c2.23 0.166 3.913 1.762 4.12 3.99 0.12 1.289 0.237 2.986 0.322 5.185 0.036 0.925 -0.6 1.717 -1.4 2.181A5.991 5.991 0 0 0 40.6 24a5.991 5.991 0 0 0 3 5.187c0.8 0.463 1.435 1.256 1.4 2.18a96.896 96.896 0 0 1 -0.323 5.187c-0.207 2.227 -1.89 3.823 -4.12 3.99 -2.973 0.222 -8.11 0.456 -16.556 0.456 -8.447 0 -13.583 -0.234 -16.556 -0.457Z" stroke-width="1"></path>
    <path id="Subtract_2" stroke="#2859c5" stroke-linejoin="round" d="M7.444 40.543c-2.23 -0.166 -3.913 -1.762 -4.12 -3.99A96.902 96.902 0 0 1 3 31.369c-0.035 -0.925 0.6 -1.718 1.4 -2.181a5.99 5.99 0 0 0 3 -5.187 5.99 5.99 0 0 0 -3 -5.186c-0.8 -0.464 -1.435 -1.257 -1.4 -2.181 0.085 -2.2 0.203 -3.897 0.323 -5.187 0.207 -2.227 1.89 -3.823 4.12 -3.99C10.417 7.235 15.553 7 24 7s13.583 0.234 16.556 0.457c2.23 0.166 3.913 1.762 4.12 3.99 0.12 1.289 0.237 2.986 0.322 5.185 0.036 0.925 -0.6 1.717 -1.4 2.181A5.991 5.991 0 0 0 40.6 24a5.991 5.991 0 0 0 3 5.187c0.8 0.463 1.435 1.256 1.4 2.18a96.896 96.896 0 0 1 -0.323 5.187c-0.207 2.227 -1.89 3.823 -4.12 3.99 -2.973 0.222 -8.11 0.456 -16.556 0.456 -8.447 0 -13.583 -0.234 -16.556 -0.457Z" stroke-width="1"></path>
    <g id="Group 2306">
      <path id="Vector 1871" stroke="#2859c5" stroke-linecap="round" stroke-linejoin="round" d="M30 37v3.75" stroke-width="1"></path>
      <path id="Vector 1872" stroke="#2859c5" stroke-linecap="round" stroke-linejoin="round" d="M30 27v4" stroke-width="1"></path>
      <path id="Vector 1873" stroke="#2859c5" stroke-linecap="round" stroke-linejoin="round" d="M30 17v4" stroke-width="1"></path>
      <path id="Vector 1874" stroke="#2859c5" stroke-linecap="round" stroke-linejoin="round" d="M30 7.25V11" stroke-width="1"></path>
    </g>
  </g>
</svg>