<svg xmlns="http://www.w3.org/2000/svg" fill="none" viewBox="0 0 24 24"><path stroke="#000" d="M8.11086 15.8891L15.889 8.11092M2 22L3.84833 20.1517M22 2L20.1516 3.84836M2.10046 9.87869L14.1213 21.8995L13.9445 22.0763L12.2066 21.8677C10.4575 21.6578 8.68514 22.0058 7.1094 22.7936L6.69665 23L1 17.3033L1.20638 16.8906C1.99424 15.3148 2.34212 13.5425 2.13222 11.7933L1.92367 10.0555L2.10046 9.87869ZM9.87863 2.10052L21.8994 14.1213L22.0762 13.9445L21.8677 12.2067C21.6578 10.4575 22.0058 8.6852 22.7936 7.10947L23 6.69671L17.3033 1L16.8905 1.20638C15.3148 1.99424 13.5424 2.34218 11.7933 2.13228L10.0554 1.92373L9.87863 2.10052Z"></path></svg>