<svg xmlns="http://www.w3.org/2000/svg" fill="none" viewBox="0 0 48 48" id="Coding-File-2--Streamline-Kameleon">
  <desc>
    Coding File 2 Streamline Icon: https://streamlinehq.com
  </desc>
  <path fill="#fb983d" d="M24.0006 48.0037c13.2553 0 24.0006 -10.7453 24.0006 -24.0006 0 -13.2554 -10.7453 -24.00065859 -24.0006 -24.00065859C10.7453 0.00244141 0 10.7477 0 24.0031c0 13.2553 10.7453 24.0006 24.0006 24.0006Z" stroke-width="1"></path>
  <path fill="#000000" d="M13.5273 11.7152c0 -0.4444 0.1766 -0.8706 0.4908 -1.1849 0.3143 -0.3142 0.7405 -0.4907 1.1849 -0.4907h12.2883l6.982 5.8648v20.3875c0 0.4444 -0.1765 0.8706 -0.4908 1.1848 -0.3142 0.3143 -0.7404 0.4908 -1.1848 0.4908H15.203c-0.4444 0 -0.8706 -0.1765 -1.1849 -0.4908 -0.3142 -0.3142 -0.4908 -0.7404 -0.4908 -1.1848V11.7152Z" stroke-width="1"></path>
  <path fill="#ffffff" d="M27.4922 10.0396v4.1888c0 0.22 0.0433 0.4379 0.1275 0.6412 0.0842 0.2032 0.2077 0.3879 0.3632 0.5435 0.1556 0.1556 0.3403 0.279 0.5436 0.3632 0.2033 0.0842 0.4212 0.1276 0.6412 0.1276h5.3058" stroke-width="1"></path>
  <path fill="#ffffff" d="M28.2356 29.9451c-0.1702 0.0003 -0.3366 -0.0508 -0.4773 -0.1465 -0.1408 -0.0957 -0.2495 -0.2316 -0.3118 -0.39 -0.0623 -0.1585 -0.0755 -0.332 -0.0377 -0.498 0.0378 -0.166 0.1248 -0.3167 0.2496 -0.4325l2.0952 -1.9504 -2.0861 -1.8828c-0.1667 -0.1505 -0.2667 -0.3611 -0.2781 -0.5855 -0.0115 -0.2243 0.0667 -0.444 0.2173 -0.6107 0.1505 -0.1667 0.3611 -0.2668 0.5855 -0.2782 0.2243 -0.0114 0.444 0.0668 0.6107 0.2173l2.772 2.5024c0.0871 0.0787 0.1569 0.1746 0.205 0.2817 0.048 0.1071 0.0732 0.223 0.074 0.3404 0.0009 0.1173 -0.0227 0.2336 -0.0693 0.3413 -0.0465 0.1078 -0.115 0.2047 -0.201 0.2845l-2.7716 2.5801c-0.1563 0.1461 -0.3624 0.2272 -0.5764 0.2269Z" stroke-width="1"></path>
  <path fill="#ffffff" d="M19.7652 29.9452c-0.2141 0 -0.4202 -0.0811 -0.5769 -0.2269l-2.772 -2.5796c-0.0862 -0.0798 -0.1548 -0.1768 -0.2014 -0.2846s-0.0702 -0.2241 -0.0694 -0.3416c0.0009 -0.1175 0.0262 -0.2335 0.0744 -0.3406 0.0482 -0.1071 0.1182 -0.203 0.2056 -0.2816l2.772 -2.5023c0.168 -0.1409 0.3842 -0.2112 0.603 -0.196 0.2187 0.0151 0.4231 0.1145 0.5701 0.2772 0.1471 0.1628 0.2253 0.3762 0.2182 0.5954 -0.007 0.2191 -0.0988 0.4271 -0.256 0.58l-2.0857 1.8837 2.0949 1.9499c0.1247 0.1158 0.2117 0.2665 0.2495 0.4325 0.0378 0.1659 0.0247 0.3394 -0.0376 0.4978 -0.0622 0.1584 -0.1708 0.2943 -0.3115 0.3901 -0.1407 0.0957 -0.307 0.1468 -0.4772 0.1466Z" stroke-width="1"></path>
  <path fill="#ffffff" d="M22.3058 31.6403c-0.1383 -0.0004 -0.2745 -0.0345 -0.3966 -0.0996 -0.122 -0.065 -0.2264 -0.1589 -0.3038 -0.2735 -0.0775 -0.1146 -0.1257 -0.2464 -0.1406 -0.3839 -0.0148 -0.1376 0.0043 -0.2766 0.0555 -0.4051l3.388 -8.4709c0.0414 -0.1033 0.1027 -0.1974 0.1804 -0.277 0.0777 -0.0795 0.1703 -0.143 0.2726 -0.1868 0.1022 -0.0438 0.2121 -0.067 0.3233 -0.0683 0.1113 -0.0014 0.2217 0.0192 0.3249 0.0606 0.1033 0.0413 0.1974 0.1026 0.277 0.1803 0.0796 0.0777 0.1431 0.1704 0.1868 0.2726 0.0438 0.1023 0.067 0.2122 0.0684 0.3234 0.0013 0.1112 -0.0193 0.2216 -0.0607 0.3249l-3.3884 8.4705c-0.063 0.1571 -0.1716 0.2919 -0.3118 0.3869 -0.1402 0.0949 -0.3057 0.1457 -0.475 0.1459Z" stroke-width="1"></path>
</svg>