<svg xmlns="http://www.w3.org/2000/svg" fill="none" viewBox="0 0 48 48" id="Mac-Signal--Streamline-Kameleon">
  <desc>
    Mac Signal Streamline Icon: https://streamlinehq.com
  </desc>
  <path fill="#52c1ff" d="M24.0006 48.0061c13.2553 0 24.0006 -10.7453 24.0006 -24.0006 0 -13.2553 -10.7453 -24.00061719 -24.0006 -24.00061719C10.7453 0.00488281 0 10.7502 0 24.0055s10.7453 24.0006 24.0006 24.0006Z" stroke-width="1"></path>
  <path fill="#ffffff" d="m24.0083 16.6057 -0.0079 0.0009 -0.0078 -0.0009c-0.2902 0 -0.5685 0.1153 -0.7737 0.3205 -0.2052 0.2052 -0.3205 0.4835 -0.3205 0.7737 0 0.2902 0.1153 0.5685 0.3205 0.7737 0.2052 0.2051 0.4835 0.3204 0.7737 0.3204l0.0078 -0.0008 0.0079 0.0008c0.2902 0 0.5685 -0.1153 0.7737 -0.3204 0.2052 -0.2052 0.3205 -0.4835 0.3205 -0.7737 0 -0.2902 -0.1153 -0.5685 -0.3205 -0.7737 -0.2052 -0.2052 -0.4835 -0.3205 -0.7737 -0.3205Z" stroke-width="1"></path>
  <path fill="#ffffff" d="m24.0084 13.605 -0.0078 0.0004 -0.0079 -0.0004c-1.7804 0 -3.395 0.9779 -4.2525 2.4358l0.9465 0.5525c0.5739 -1.0491 1.8651 -1.8939 3.3056 -1.8939l0.0078 0.0004 0.0079 -0.0004c1.4409 0 2.7317 0.8444 3.3055 1.8939l0.9465 -0.5525c-0.8566 -1.4579 -2.4712 -2.4358 -4.2516 -2.4358Z" stroke-width="1"></path>
  <path fill="#ffffff" d="M24.0083 10.0422h-0.0158c-2.798 0 -5.4909 1.2057 -7.4105 3.6721l0.8702 0.6681c1.4911 -1.989 3.8737 -3.2457 6.5403 -3.2457h0.0158c2.6632 0 5.0475 1.2545 6.5403 3.2457l0.8702 -0.6681c-1.9044 -2.4463 -4.5872 -3.6721 -7.4105 -3.6721Z" stroke-width="1"></path>
  <path fill="#000000" d="M33.6009 33.6061c0 0.2315 -0.092 0.4535 -0.2556 0.6172 -0.1637 0.1636 -0.3857 0.2556 -0.6172 0.2556h-17.455c-0.2314 0 -0.4534 -0.092 -0.6171 -0.2556 -0.1637 -0.1637 -0.2556 -0.3857 -0.2556 -0.6172V21.3876c0 -0.2314 0.0919 -0.4534 0.2556 -0.6171 0.1637 -0.1637 0.3857 -0.2556 0.6171 -0.2556h17.455c0.2315 0 0.4535 0.0919 0.6172 0.2556 0.1636 0.1637 0.2556 0.3857 0.2556 0.6171v12.2185Z" stroke-width="1"></path>
  <path fill="#000000" d="M26.6193 34.479h-5.2365v2.6183h5.2365V34.479Z" stroke-width="1"></path>
  <path fill="#000000" d="M28.3642 37.5335c0 0.1158 -0.046 0.2268 -0.1278 0.3086 -0.0818 0.0818 -0.1928 0.1278 -0.3086 0.1278h-7.8547c-0.1157 0 -0.2267 -0.046 -0.3086 -0.1278 -0.0818 -0.0818 -0.1278 -0.1928 -0.1278 -0.3086 0 -0.1157 0.046 -0.2267 0.1278 -0.3085 0.0819 -0.0819 0.1929 -0.1278 0.3086 -0.1278h7.8547c0.1158 0 0.2268 0.0459 0.3086 0.1278 0.0818 0.0818 0.1278 0.1928 0.1278 0.3085Z" stroke-width="1"></path>
  <path fill="#ffffff" d="M33.6009 33.606v-2.6182H14.4004v2.6182c0 0.2315 0.0919 0.4535 0.2556 0.6172 0.1637 0.1636 0.3857 0.2556 0.6171 0.2556h17.455c0.2315 0 0.4535 -0.092 0.6172 -0.2556 0.1636 -0.1637 0.2556 -0.3857 0.2556 -0.6172Z" stroke-width="1"></path>
</svg>