<svg xmlns="http://www.w3.org/2000/svg" fill="none" viewBox="0 0 48 48" id="Bag-Suitcase-4--Streamline-Plump">
  <desc>
    Bag Suitcase 4 Streamline Icon: https://streamlinehq.com
  </desc>
  <g id="bag-suitcase-4--product-business-briefcase">
    <path id="Union" fill="#2859c5" fill-rule="evenodd" d="M21.183 5.182A20.895 20.895 0 0 1 24 5c1.166 0 2.12 0.087 2.818 0.182 0.313 0.043 0.624 0.247 0.814 0.629 0.26 0.522 0.541 1.125 0.792 1.743a177.859 177.859 0 0 0 -8.847 0c0.25 -0.618 0.531 -1.22 0.792 -1.743 0.19 -0.382 0.5 -0.586 0.814 -0.629Zm-5.91 2.545c0.417 -1.383 1.043 -2.752 1.515 -3.7 0.73 -1.466 2.122 -2.571 3.853 -2.808A24.83 24.83 0 0 1 24.001 1c1.363 0 2.5 0.101 3.359 0.219 1.73 0.237 3.122 1.342 3.853 2.808 0.472 0.948 1.098 2.317 1.515 3.7 3.653 0.208 6.298 0.528 8.145 0.833 2.851 0.47 4.765 2.79 5.034 5.53 0.28 2.839 0.593 7.281 0.593 12.91 0 5.629 -0.314 10.071 -0.593 12.91 -0.27 2.74 -2.183 5.06 -5.034 5.53 -3.08 0.508 -8.381 1.06 -16.873 1.06s-13.793 -0.552 -16.873 -1.06c-2.851 -0.47 -4.765 -2.79 -5.034 -5.53C1.813 37.072 1.5 32.63 1.5 27c0 -5.629 0.314 -10.071 0.593 -12.91 0.27 -2.74 2.183 -5.06 5.034 -5.53 1.847 -0.305 4.493 -0.625 8.146 -0.833Z" clip-rule="evenodd" stroke-width="1"></path>
    <path id="Intersect" fill="#8fbffa" d="M46.479 24.496C42.012 25.933 28.939 30 23.999 30c-4.939 0 -18.012 -4.067 -22.478 -5.504 0.074 -4.45 0.335 -8.003 0.571 -10.406 0.27 -2.74 2.184 -5.06 5.034 -5.53C10.206 8.052 15.508 7.5 24 7.5c8.492 0 13.792 0.552 16.873 1.06 2.85 0.47 4.764 2.79 5.034 5.53 0.236 2.403 0.497 5.957 0.572 10.406Z" stroke-width="1"></path>
  </g>
</svg>