<svg xmlns="http://www.w3.org/2000/svg" fill="none" viewBox="0 0 48 48" id="Calculator-1--Streamline-Plump">
  <desc>
    Calculator 1 Streamline Icon: https://streamlinehq.com
  </desc>
  <g id="calculator-1--shop-shopping-pay-payment-store-cash-calculate-math">
    <path id="Union" fill="#8fbffa" d="M24 1.5c-7.401 0 -12.593 0.278 -15.864 0.544 -3.288 0.267 -5.825 2.804 -6.092 6.092C1.778 11.407 1.5 16.599 1.5 24c0 7.401 0.278 12.593 0.544 15.864 0.267 3.288 2.804 5.825 6.092 6.092 3.271 0.266 8.463 0.544 15.864 0.544 7.401 0 12.593 -0.278 15.864 -0.544 3.288 -0.267 5.825 -2.804 6.092 -6.092 0.266 -3.271 0.544 -8.463 0.544 -15.864 0 -7.401 -0.278 -12.593 -0.544 -15.864 -0.267 -3.288 -2.804 -5.825 -6.092 -6.092C36.593 1.778 31.401 1.5 24 1.5Z" stroke-width="1"></path>
    <path id="Subtract" fill="#2859c5" fill-rule="evenodd" d="M9 38a2 2 0 0 1 2 -2h4a2 2 0 1 1 0 4h-4a2 2 0 0 1 -2 -2Z" clip-rule="evenodd" stroke-width="1"></path>
    <path id="Subtract_2" fill="#2859c5" d="M20 38a2 2 0 0 1 2 -2h4a2 2 0 1 1 0 4h-4a2 2 0 0 1 -2 -2Z" stroke-width="1"></path>
    <path id="Subtract_3" fill="#2859c5" d="M31 38a2 2 0 0 1 2 -2h4a2 2 0 1 1 0 4h-4a2 2 0 0 1 -2 -2Z" stroke-width="1"></path>
    <path id="Subtract_4" fill="#2859c5" d="M11 27a2 2 0 1 0 0 4h4a2 2 0 1 0 0 -4h-4Z" stroke-width="1"></path>
    <path id="Subtract_5" fill="#2859c5" d="M22 27a2 2 0 1 0 0 4h4a2 2 0 1 0 0 -4h-4Z" stroke-width="1"></path>
    <path id="Subtract_6" fill="#2859c5" d="M33 27a2 2 0 1 0 0 4h4a2 2 0 1 0 0 -4h-4Z" stroke-width="1"></path>
    <path id="Subtract_7" fill="#2859c5" d="M36.141 8.815C33.846 8.672 29.866 8.5 24 8.5s-9.846 0.172 -12.141 0.315a3.23 3.23 0 0 0 -3.044 3.044 159.43 159.43 0 0 0 -0.248 6.1 2.487 2.487 0 0 0 2.491 2.541h25.884a2.487 2.487 0 0 0 2.49 -2.541c-0.062 -2.686 -0.16 -4.705 -0.247 -6.1a3.23 3.23 0 0 0 -3.044 -3.044Z" stroke-width="1"></path>
  </g>
</svg>