<svg xmlns="http://www.w3.org/2000/svg" fill="none" viewBox="0 0 48 48" id="Gift--Streamline-Plump">
  <desc>
    Gift Streamline Icon: https://streamlinehq.com
  </desc>
  <g id="gift--reward-box-social-present-gift-media-rating-bow">
    <path id="Union" fill="#8fbffa" d="M24 46.5c7.614 0 12.89 -0.294 16.142 -0.567 3.116 -0.26 5.593 -2.597 5.898 -5.762 0.239 -2.475 0.46 -6.13 0.46 -11.171 0 -5.04 -0.221 -8.696 -0.46 -11.17 -0.304 -3.166 -2.782 -5.502 -5.898 -5.763C36.89 11.794 31.614 11.5 24 11.5c-7.614 0 -12.89 0.294 -16.142 0.567 -3.116 0.26 -5.594 2.597 -5.898 5.762C1.72 20.304 1.5 23.96 1.5 29c0 5.04 0.221 8.696 0.46 11.17 0.304 3.166 2.782 5.502 5.898 5.763 3.252 0.273 8.527 0.567 16.142 0.567Z" stroke-width="1"></path>
    <path id="Subtract" fill="#2859c5" fill-rule="evenodd" d="M14 5c-2.355 0 -4 1.75 -4 4 0 1.108 0.448 2.107 1.177 2.834 -1.28 0.074 -2.383 0.154 -3.319 0.233 -0.399 0.033 -0.788 0.1 -1.162 0.2A7.973 7.973 0 0 1 6 9c0 -4.377 3.355 -8 8 -8 3.64 0 6.624 1.67 8.664 3.71 0.486 0.486 0.935 1.01 1.336 1.559 0.401 -0.548 0.85 -1.073 1.336 -1.558C27.376 2.67 30.36 1 34 1c4.645 0 8 3.623 8 8a7.972 7.972 0 0 1 -0.696 3.267 6.775 6.775 0 0 0 -1.162 -0.2c-0.936 -0.079 -2.04 -0.159 -3.319 -0.233A3.981 3.981 0 0 0 38 9c0 -2.25 -1.645 -4 -4 -4 -2.36 0 -4.376 1.08 -5.836 2.54C26.632 9.07 26 10.716 26 11.5l0 0.007a287.943 287.943 0 0 0 -4 0l0 -0.007c0 -0.783 -0.632 -2.429 -2.164 -3.96C18.376 6.08 16.36 5 14 5Z" clip-rule="evenodd" stroke-width="1"></path>
    <path id="Intersect" fill="#2859c5" d="M22 46.493V11.507a287.921 287.921 0 0 1 4 0v34.986a287.921 287.921 0 0 1 -4 0Z" stroke-width="1"></path>
    <path id="Intersect_2" fill="#2859c5" d="M1.512 31h44.976a164.35 164.35 0 0 0 0 -4H1.512a163.74 163.74 0 0 0 0 4Z" stroke-width="1"></path>
  </g>
</svg>