<svg xmlns="http://www.w3.org/2000/svg" fill="none" viewBox="0 0 48 48" id="Gold--Streamline-Plump">
  <desc>
    Gold Streamline Icon: https://streamlinehq.com
  </desc>
  <g id="gold--gold-money-payment-bars-finance-wealth-bullion-jewelry">
    <path id="Union" fill="#8fbffa" d="M12.5 24.5c-1.68 0 -3.343 0.154 -4.567 0.303 -1.757 0.215 -3.302 1.347 -3.926 3.085 -0.676 1.883 -1.613 5.092 -2.203 9.626 -0.307 2.36 1.362 4.516 3.777 4.721 1.618 0.138 3.924 0.265 6.918 0.265s5.3 -0.127 6.919 -0.264c2.415 -0.206 4.084 -2.363 3.777 -4.722 -0.59 -4.534 -1.527 -7.743 -2.203 -9.626 -0.625 -1.738 -2.17 -2.87 -3.926 -3.085 -1.224 -0.15 -2.886 -0.303 -4.567 -0.303Z" stroke-width="1"></path>
    <path id="Union_2" fill="#8fbffa" d="M35.5 24.5c-1.68 0 -3.343 0.154 -4.567 0.303 -1.757 0.215 -3.302 1.347 -3.926 3.085 -0.676 1.883 -1.613 5.092 -2.203 9.626 -0.307 2.36 1.362 4.516 3.777 4.721 1.618 0.138 3.924 0.265 6.918 0.265s5.3 -0.127 6.919 -0.264c2.415 -0.206 4.084 -2.363 3.777 -4.722 -0.59 -4.534 -1.527 -7.743 -2.203 -9.626 -0.624 -1.738 -2.17 -2.87 -3.926 -3.085 -1.224 -0.15 -2.887 -0.303 -4.567 -0.303Z" stroke-width="1"></path>
    <path id="Union_3" fill="#8fbffa" d="M24 5.5c-1.68 0 -3.343 0.154 -4.567 0.303 -1.757 0.215 -3.302 1.347 -3.926 3.085 -0.676 1.883 -1.613 5.092 -2.203 9.626 -0.307 2.36 1.362 4.516 3.777 4.721 1.618 0.138 3.924 0.265 6.918 0.265s5.3 -0.127 6.919 -0.265c2.415 -0.205 4.084 -2.362 3.777 -4.721 -0.59 -4.534 -1.527 -7.743 -2.203 -9.626 -0.624 -1.738 -2.17 -2.87 -3.926 -3.085 -1.224 -0.15 -2.886 -0.303 -4.567 -0.303Z" stroke-width="1"></path>
  </g>
</svg>