<svg xmlns="http://www.w3.org/2000/svg" fill="none" viewBox="0 0 48 48" id="Piggy-Bank--Streamline-Plump">
  <desc>
    Piggy Bank Streamline Icon: https://streamlinehq.com
  </desc>
  <g id="piggy-bank--institution-saving-bank-payment-finance">
    <path id="Union" fill="#8fbffa" d="M32 1.5c-0.488 0 -0.953 0.005 -1.395 0.014 -4.427 0.088 -7.808 2.981 -8.804 6.986 -1.495 0.002 -2.88 0.022 -4.16 0.057 -4.128 0.113 -7.722 1.564 -10.463 3.943l-0.035 0C5.201 12.5 3.5 10.864 3.5 8.963s1.701 -3.537 3.643 -3.537l0.029 0c2.044 0.01 2.328 0.996 2.328 1.247a1.5 1.5 0 0 0 3 0c0 -2.495 -2.285 -4.247 -5.357 -4.247l-0.037 0C3.629 2.446 0.5 5.314 0.5 8.963c0 2.816 1.863 5.166 4.311 6.102 -2.094 2.841 -3.294 6.43 -3.31 10.39a131.334 131.334 0 0 0 0 1.09c0.016 3.903 1.179 7.462 3.246 10.304a120.848 120.848 0 0 0 -1.34 3.096c-0.733 1.758 -0.265 3.849 1.324 5.05 0.434 0.328 0.93 0.68 1.378 0.937 0.457 0.262 1.028 0.517 1.543 0.729 1.816 0.75 3.832 0.12 4.985 -1.366 0.486 -0.627 1.074 -1.397 1.702 -2.246 1.06 0.23 2.162 0.363 3.302 0.394 1.338 0.037 2.788 0.057 4.359 0.057 1.571 0 3.021 -0.02 4.359 -0.057a17.894 17.894 0 0 0 3.302 -0.394c0.628 0.85 1.216 1.62 1.702 2.246 1.153 1.486 3.169 2.115 4.985 1.366a14.033 14.033 0 0 0 1.544 -0.73c0.448 -0.256 0.943 -0.608 1.377 -0.936 1.59 -1.201 2.057 -3.292 1.325 -5.05 -0.36 -0.86 -0.82 -1.938 -1.341 -3.096a16.59 16.59 0 0 0 2.28 -4.413c0.31 0.023 0.617 0.04 0.918 0.051 2.13 0.076 3.764 -1.55 3.916 -3.564 0.074 -0.971 0.133 -2.267 0.133 -3.923 0 -1.656 -0.06 -2.952 -0.133 -3.923 -0.152 -2.015 -1.786 -3.64 -3.916 -3.564 -0.554 0.02 -1.128 0.061 -1.711 0.12 -1.383 -2.85 -3.528 -5.203 -6.24 -6.801 -0.01 -2.99 -0.262 -5.039 -0.53 -6.376a12.771 12.771 0 0 0 -0.39 -1.524 6.277 6.277 0 0 0 -0.223 -0.572l-0.008 -0.017 -0.004 -0.007 -0.002 -0.004 0 -0.001 -0.001 -0.002A1.5 1.5 0 0 0 32 1.5Z" stroke-width="1"></path>
    <path id="Vector 2497 (Stroke)" fill="#2859c5" fill-rule="evenodd" d="M31 16.25c0.966 0 1.75 0.784 1.75 1.75v1a1.75 1.75 0 1 1 -3.5 0v-1c0 -0.966 0.784 -1.75 1.75 -1.75Z" clip-rule="evenodd" stroke-width="1"></path>
    <path id="Union (Stroke)" fill="#2859c5" fill-rule="evenodd" d="M20.934 13.732a1.5 1.5 0 0 1 -1.481 1.518c-0.5 0.006 -0.977 0.015 -1.434 0.027 -2.586 0.067 -4.72 1.03 -6.206 2.522a1.5 1.5 0 0 1 -2.126 -2.116c2.062 -2.073 4.946 -3.32 8.254 -3.405 0.471 -0.012 0.963 -0.022 1.475 -0.028a1.5 1.5 0 0 1 1.518 1.482Z" clip-rule="evenodd" stroke-width="1"></path>
  </g>
</svg>