<svg xmlns="http://www.w3.org/2000/svg" fill="none" viewBox="0 0 48 48" id="Shopping-Basket-1--Streamline-Plump">
  <desc>
    Shopping Basket 1 Streamline Icon: https://streamlinehq.com
  </desc>
  <g id="shopping-basket-1--shopping-basket">
    <path id="Union" fill="#8fbffa" fill-rule="evenodd" d="M16.187 3.5c-1.867 0 -3.646 0.95 -4.61 2.621 -1.172 2.033 -3.05 5.51 -4.637 9.472 0.88 -0.011 1.964 -0.024 3.26 -0.036a74.794 74.794 0 0 1 3.976 -7.936c0.397 -0.69 1.153 -1.121 2.01 -1.121h2.815a1.5 1.5 0 0 0 0 -3h-2.814Zm20.236 2.621c1.173 2.033 3.051 5.51 4.637 9.472 -0.88 -0.011 -1.963 -0.024 -3.26 -0.036a74.794 74.794 0 0 0 -3.975 -7.936c-0.398 -0.69 -1.154 -1.121 -2.011 -1.121H29a1.5 1.5 0 0 1 0 -3h2.814c1.867 0 3.645 0.95 4.61 2.621ZM24 24.501c-9.678 0 -15.54 -0.069 -18.243 -0.111a5.73 5.73 0 0 1 -0.934 -0.093c0.097 0.864 0.218 1.876 0.366 3 0.483 3.671 1.253 8.557 2.402 13.375a6.881 6.881 0 0 0 5.97 5.269 98.96 98.96 0 0 0 10.44 0.56c4.217 0 7.885 -0.286 10.44 -0.56a6.881 6.881 0 0 0 5.97 -5.27c1.148 -4.817 1.919 -9.703 2.402 -13.375 0.147 -1.123 0.269 -2.135 0.366 -3a5.722 5.722 0 0 1 -0.935 0.094c-2.704 0.042 -8.566 0.11 -18.244 0.11Z" clip-rule="evenodd" stroke-width="1"></path>
    <path id="Union_2" fill="#2859c5" d="M24 24.5c-9.678 0 -15.54 -0.068 -18.243 -0.11 -1.344 -0.021 -3.483 -0.564 -4.046 -2.698A6.61 6.61 0 0 1 1.5 20c0 -0.637 0.081 -1.2 0.21 -1.692 0.564 -2.134 2.703 -2.676 4.047 -2.697C8.46 15.568 14.322 15.5 24 15.5c9.678 0 15.54 0.068 18.243 0.11 1.344 0.022 3.483 0.564 4.046 2.698 0.13 0.491 0.211 1.055 0.211 1.692s-0.081 1.2 -0.21 1.692c-0.564 2.134 -2.703 2.677 -4.047 2.698 -2.704 0.042 -8.565 0.11 -18.243 0.11Z" stroke-width="1"></path>
    <path id="Union_3" fill="#2859c5" d="M24 8.5c1.606 0 2.778 -0.022 3.569 -0.045 1.343 -0.04 2.784 -0.963 2.904 -2.66a11.29 11.29 0 0 0 0 -1.59c-0.12 -1.697 -1.561 -2.62 -2.904 -2.66 -0.79 -0.023 -1.963 -0.045 -3.569 -0.045 -1.606 0 -2.778 0.022 -3.569 0.045 -1.343 0.04 -2.784 0.963 -2.904 2.66a11.29 11.29 0 0 0 0 1.59c0.12 1.697 1.561 2.62 2.904 2.66 0.79 0.023 1.963 0.045 3.569 0.045Z" stroke-width="1"></path>
    <path id="Vector 831 (Stroke)" fill="#2859c5" fill-rule="evenodd" d="M15.814 29.512a1.5 1.5 0 0 1 1.675 1.302l1 8a1.5 1.5 0 0 1 -2.977 0.372l-1 -8a1.5 1.5 0 0 1 1.302 -1.674Z" clip-rule="evenodd" stroke-width="1"></path>
    <path id="Vector 832 (Stroke)" fill="#2859c5" fill-rule="evenodd" d="M32.186 29.512a1.5 1.5 0 0 0 -1.675 1.302l-1 8a1.5 1.5 0 0 0 2.977 0.372l1 -8a1.5 1.5 0 0 0 -1.302 -1.674Z" clip-rule="evenodd" stroke-width="1"></path>
    <path id="Vector 866 (Stroke)" fill="#2859c5" fill-rule="evenodd" d="M24 29.5a1.5 1.5 0 0 1 1.5 1.5l0 8a1.5 1.5 0 0 1 -3 0l0 -8a1.5 1.5 0 0 1 1.5 -1.5Z" clip-rule="evenodd" stroke-width="1"></path>
  </g>
</svg>