<svg xmlns="http://www.w3.org/2000/svg" viewBox="0 0 32 32" id="Design-Pencil--Streamline-Pixel">
  <desc>
    Design Pencil Streamline Icon: https://streamlinehq.com
  </desc>
  <title>design-pencil</title>
  <g>
    <path d="M21.335 9.14h1.52v9.15h-1.52Z" fill="#000000" stroke-width="1"></path>
    <path d="M12.2 3.05V1.52h-1.53v1.53H9.145v21.33h1.52V12.19h7.62v12.19h1.52V9.14h1.53V7.62h-1.53V3.05h-1.52V1.52h-1.52v1.53Zm6.09 1.52V6.1h-7.62V4.57Z" fill="#000000" stroke-width="1"></path>
    <path d="m10.665 24.38 0 3.05 1.53 0 0 -1.52 4.57 0 0 1.52 1.52 0 0 -3.05 -7.62 0z" fill="#000000" stroke-width="1"></path>
    <path d="M15.235 27.43h1.53v1.52h-1.53Z" fill="#000000" stroke-width="1"></path>
    <path d="M12.195 0h4.57v1.52h-4.57Z" fill="#000000" stroke-width="1"></path>
    <path d="M13.715 28.95h1.52V32h-1.52Z" fill="#000000" stroke-width="1"></path>
    <path d="M12.195 27.43h1.52v1.52h-1.52Z" fill="#000000" stroke-width="1"></path>
  </g>
</svg>