<svg xmlns="http://www.w3.org/2000/svg" viewBox="0 0 32 32" id="Design-Color-Brush-Paint--Streamline-Pixel">
  <desc>
    Design Color Brush Paint Streamline Icon: https://streamlinehq.com
  </desc>
  <title>design-color-brush-paint</title>
  <g>
    <path d="M30.48 1.52H32v4.57h-1.52Z" fill="#000000" stroke-width="1"></path>
    <path d="M28.95 6.09h1.53v3.05h-1.53Z" fill="#000000" stroke-width="1"></path>
    <path d="M27.43 0h3.05v1.52h-3.05Z" fill="#000000" stroke-width="1"></path>
    <path d="M27.43 9.14h1.52v3.05h-1.52Z" fill="#000000" stroke-width="1"></path>
    <path d="M25.9 12.19h1.53v3.05H25.9Z" fill="#000000" stroke-width="1"></path>
    <path d="M25.9 1.52h1.53v3.05H25.9Z" fill="#000000" stroke-width="1"></path>
    <path d="M24.38 15.24h1.52v3.04h-1.52Z" fill="#000000" stroke-width="1"></path>
    <path d="M24.38 4.57h1.52v3.05h-1.52Z" fill="#000000" stroke-width="1"></path>
    <path d="M22.86 22.86h1.52v4.57h-1.52Z" fill="#000000" stroke-width="1"></path>
    <path d="M22.86 18.28h1.52v3.05h-1.52Z" fill="#000000" stroke-width="1"></path>
    <path d="M22.86 7.62h1.52v3.05h-1.52Z" fill="#000000" stroke-width="1"></path>
    <path d="M21.33 10.67h1.53v3.04h-1.53Z" fill="#000000" stroke-width="1"></path>
    <path d="m21.33 25.9 -1.52 0 0 1.53 -1.52 0 0 -1.53 -1.53 0 0 -1.52 -1.52 0 0 1.52 -1.53 0 0 -3.04 -1.52 0 0 4.57 -1.52 0 0 1.52 -1.53 0 0 1.52 -7.62 0 0 1.53 16.77 0 0 -1.53 3.04 0 0 -1.52 1.53 0 0 -1.52 -1.53 0 0 -1.53z" fill="#000000" stroke-width="1"></path>
    <path d="M19.81 21.33h3.05v1.53h-3.05Z" fill="#000000" stroke-width="1"></path>
    <path d="M19.81 13.71h1.52v3.05h-1.52Z" fill="#000000" stroke-width="1"></path>
    <path d="m19.81 21.33 0 -4.57 -1.52 0 0 3.05 -3.05 0 0 1.52 4.57 0z" fill="#000000" stroke-width="1"></path>
    <path d="M13.71 21.33h1.53v1.53h-1.53Z" fill="#000000" stroke-width="1"></path>
    <path d="M13.71 12.19h1.53v1.52h-1.53Z" fill="#000000" stroke-width="1"></path>
    <path d="M12.19 13.71h1.52v1.53h-1.52Z" fill="#000000" stroke-width="1"></path>
    <path d="M1.52 10.67h12.19v1.52H1.52Z" fill="#000000" stroke-width="1"></path>
    <path d="M9.14 22.86h1.53v1.52H9.14Z" fill="#000000" stroke-width="1"></path>
    <path d="M7.62 15.24h4.57v1.52H7.62Z" fill="#000000" stroke-width="1"></path>
    <path d="M7.62 24.38h1.52v1.52H7.62Z" fill="#000000" stroke-width="1"></path>
    <path d="M4.57 21.33h4.57v1.53H4.57Z" fill="#000000" stroke-width="1"></path>
    <path d="M4.57 16.76h3.05v1.52H4.57Z" fill="#000000" stroke-width="1"></path>
    <path d="M3.05 25.9h4.57v1.53H3.05Z" fill="#000000" stroke-width="1"></path>
    <path d="M3.05 18.28h1.52v3.05H3.05Z" fill="#000000" stroke-width="1"></path>
    <path d="M1.52 27.43h1.53v1.52H1.52Z" fill="#000000" stroke-width="1"></path>
    <path d="M0 28.95h1.52v1.52H0Z" fill="#000000" stroke-width="1"></path>
  </g>
</svg>