<svg xmlns="http://www.w3.org/2000/svg" viewBox="0 0 32 32" id="Design-Color-Bucket-Brush--Streamline-Pixel">
  <desc>
    Design Color Bucket Brush Streamline Icon: https://streamlinehq.com
  </desc>
  <title>design-color-bucket-brush</title>
  <g>
    <path d="M30.48 22.09H15.24v-1.52h-1.52v7.62h-1.53v3.05h18.29v-1.53H32v-9.14h-1.52Zm-12.19 6.1h-1.53v-4.57h1.53Zm4.57 -1.52h-1.52v-3.05h1.52Zm3.05 0h-1.53v-3.05h1.53Zm3.04 1.52h-1.52v-4.57h1.52Z" fill="#000000" stroke-width="1"></path>
    <path d="M27.43 19.05h3.05v1.52h-3.05Z" fill="#000000" stroke-width="1"></path>
    <path d="M25.91 17.52h1.52v1.53h-1.52Z" fill="#000000" stroke-width="1"></path>
    <path d="M25.91 6.86h1.52v4.57h-1.52Z" fill="#000000" stroke-width="1"></path>
    <path d="M24.38 11.43h1.53v6.09h-1.53Z" fill="#000000" stroke-width="1"></path>
    <path d="M21.34 8.38h3.04v3.05h-3.04Z" fill="#000000" stroke-width="1"></path>
    <path d="M19.81 11.43h1.53v6.09h-1.53Z" fill="#000000" stroke-width="1"></path>
    <path d="m25.91 6.86 0 -1.53 -4.57 0 0 -1.52 -1.53 0 0 3.05 6.1 0z" fill="#000000" stroke-width="1"></path>
    <path d="M18.29 17.52h1.52v1.53h-1.52Z" fill="#000000" stroke-width="1"></path>
    <path d="m19.81 6.86 -1.52 0 0 3.04 -1.53 0 0 1.53 3.05 0 0 -4.57z" fill="#000000" stroke-width="1"></path>
    <path d="M15.24 19.05h3.05v1.52h-3.05Z" fill="#000000" stroke-width="1"></path>
    <path d="m15.24 5.33 0 -1.52 -9.14 0 0 1.52 -3.05 0 0 1.53 1.52 0 0 1.52 1.53 0 0 1.52 9.14 0 0 -1.52 1.52 0 0 -1.52 1.53 0 0 -1.53 -3.05 0z" fill="#000000" stroke-width="1"></path>
    <path d="M16.76 2.29h3.05v1.52h-3.05Z" fill="#000000" stroke-width="1"></path>
    <path d="m4.57 11.43 0 1.52 9.15 0 0 1.53 1.52 0 0 -1.53 1.52 0 0 -1.52 -12.19 0z" fill="#000000" stroke-width="1"></path>
    <path d="M10.67 14.48h3.05V16h-3.05Z" fill="#000000" stroke-width="1"></path>
    <path d="M7.62 16h3.05v1.52H7.62Z" fill="#000000" stroke-width="1"></path>
    <path d="M4.57 0.76h12.19v1.53H4.57Z" fill="#000000" stroke-width="1"></path>
    <path d="M4.57 25.14h7.62v1.53H4.57Z" fill="#000000" stroke-width="1"></path>
    <path d="M3.05 17.52h4.57v1.53H3.05Z" fill="#000000" stroke-width="1"></path>
    <path d="M3.05 23.62h1.52v1.52H3.05Z" fill="#000000" stroke-width="1"></path>
    <path d="M3.05 9.9h1.52v1.53H3.05Z" fill="#000000" stroke-width="1"></path>
    <path d="M1.53 2.29h3.04v1.52H1.53Z" fill="#000000" stroke-width="1"></path>
    <path d="M1.53 22.09h1.52v1.53H1.53Z" fill="#000000" stroke-width="1"></path>
    <path d="m1.53 16 0 -6.1 1.52 0 0 -1.52 -1.52 0 0 -4.57 -1.53 0 0 18.28 1.53 0 0 -4.57 1.52 0 0 -1.52 -1.52 0z" fill="#000000" stroke-width="1"></path>
  </g>
</svg>