<svg xmlns="http://www.w3.org/2000/svg" viewBox="0 0 32 32" id="Design-Hilight--Streamline-Pixel">
  <desc>
    Design Hilight Streamline Icon: https://streamlinehq.com
  </desc>
  <title>design-hilight</title>
  <g>
    <path d="m30.48 4.575 -1.53 0 0 -1.53 -7.61 0 0 1.53 6.09 0 0 1.52 1.52 0 0 1.52 1.53 0 0 6.1 1.52 0 0 -7.62 -1.52 0 0 -1.52z" fill="#000000" stroke-width="1"></path>
    <path d="M28.95 13.715h1.53v1.52h-1.53Z" fill="#000000" stroke-width="1"></path>
    <path d="M27.43 15.235h1.52v1.53h-1.52Z" fill="#000000" stroke-width="1"></path>
    <path d="M25.91 16.765h1.52v1.52h-1.52Z" fill="#000000" stroke-width="1"></path>
    <path d="M24.38 18.285h1.53v1.52h-1.53Z" fill="#000000" stroke-width="1"></path>
    <path d="m25.91 9.145 -1.53 0 0 -1.53 -1.52 0 0 1.53 -1.52 0 0 1.52 -1.53 0 0 1.53 -1.52 0 0 1.52 -1.53 0 0 1.52 -1.52 0 0 1.53 1.52 0 0 1.52 1.53 0 0 1.52 1.52 0 0 -1.52 1.53 0 0 -1.52 1.52 0 0 -1.53 1.52 0 0 -1.52 1.53 0 0 -1.52 1.52 0 0 -1.53 -1.52 0 0 -1.52z" fill="#000000" stroke-width="1"></path>
    <path d="M22.86 19.805h1.52v1.53h-1.52Z" fill="#000000" stroke-width="1"></path>
    <path d="M21.34 21.335h1.52v1.52h-1.52Z" fill="#000000" stroke-width="1"></path>
    <path d="M19.81 4.575h1.53v1.52h-1.53Z" fill="#000000" stroke-width="1"></path>
    <path d="M18.29 22.855h3.05v1.53h-3.05Z" fill="#000000" stroke-width="1"></path>
    <path d="M18.29 6.095h1.52v1.52h-1.52Z" fill="#000000" stroke-width="1"></path>
    <path d="M16.76 21.335h1.53v1.52h-1.53Z" fill="#000000" stroke-width="1"></path>
    <path d="M16.76 7.615h1.53v1.53h-1.53Z" fill="#000000" stroke-width="1"></path>
    <path d="M15.24 24.385h3.05v1.52h-3.05Z" fill="#000000" stroke-width="1"></path>
    <path d="M15.24 19.805h1.52v1.53h-1.52Z" fill="#000000" stroke-width="1"></path>
    <path d="M15.24 9.145h1.52v1.52h-1.52Z" fill="#000000" stroke-width="1"></path>
    <path d="M13.72 25.905h1.52v1.52h-1.52Z" fill="#000000" stroke-width="1"></path>
    <path d="M13.72 18.285h1.52v1.52h-1.52Z" fill="#000000" stroke-width="1"></path>
    <path d="M13.72 10.665h1.52v1.53h-1.52Z" fill="#000000" stroke-width="1"></path>
    <path d="M12.19 24.385h1.53v1.52h-1.53Z" fill="#000000" stroke-width="1"></path>
    <path d="M12.19 16.765h1.53v1.52h-1.53Z" fill="#000000" stroke-width="1"></path>
    <path d="M12.19 12.195h1.53v1.52h-1.53Z" fill="#000000" stroke-width="1"></path>
    <path d="M10.67 22.855h1.52v1.53h-1.52Z" fill="#000000" stroke-width="1"></path>
    <path d="M10.67 13.715h1.52v3.05h-1.52Z" fill="#000000" stroke-width="1"></path>
    <path d="m7.62 25.905 0 -1.52 -1.52 0 0 3.04 6.09 0 0 -1.52 -4.57 0z" fill="#000000" stroke-width="1"></path>
    <path d="M9.15 21.335h1.52v1.52H9.15Z" fill="#000000" stroke-width="1"></path>
    <path d="M9.15 16.765h1.52v3.04H9.15Z" fill="#000000" stroke-width="1"></path>
    <path d="M7.62 22.855h1.53v1.53H7.62Z" fill="#000000" stroke-width="1"></path>
    <path d="M7.62 19.805h1.53v1.53H7.62Z" fill="#000000" stroke-width="1"></path>
    <path d="M0 27.425h6.1v1.53H0Z" fill="#000000" stroke-width="1"></path>
  </g>
</svg>