<svg xmlns="http://www.w3.org/2000/svg" viewBox="0 0 32 32" id="Design-Stamp--Streamline-Pixel">
  <desc>
    Design Stamp Streamline Icon: https://streamlinehq.com
  </desc>
  <title>design-stamp</title>
  <g>
    <path d="M30.48 22.85H32v6.1h-1.52Z" fill="#000000" stroke-width="1"></path>
    <path d="M28.95 28.95h1.53v1.52h-1.53Z" fill="#000000" stroke-width="1"></path>
    <path d="M28.95 21.33h1.53v1.52h-1.53Z" fill="#000000" stroke-width="1"></path>
    <path d="M15.24 30.47h13.71V32H15.24Z" fill="#000000" stroke-width="1"></path>
    <path d="M25.91 25.9h1.52v1.53h-1.52Z" fill="#000000" stroke-width="1"></path>
    <path d="M25.91 22.85h1.52v1.53h-1.52Z" fill="#000000" stroke-width="1"></path>
    <path d="M19.81 27.43h6.1v1.52h-6.1Z" fill="#000000" stroke-width="1"></path>
    <path d="M18.29 25.9h1.52v1.53h-1.52Z" fill="#000000" stroke-width="1"></path>
    <path d="m18.29 15.24 0 1.52 1.52 0 0 9.14 1.53 0 0 -4.57 7.61 0 0 -1.52 -7.61 0 0 -6.1 -1.53 0 0 1.53 -1.52 0z" fill="#000000" stroke-width="1"></path>
    <path d="M18.29 12.19h1.52v1.52h-1.52Z" fill="#000000" stroke-width="1"></path>
    <path d="M3.05 13.71h15.24v1.53H3.05Z" fill="#000000" stroke-width="1"></path>
    <path d="m18.29 28.95 0 -1.52 -15.24 0 0 1.52 10.67 0 0 1.52 1.52 0 0 -1.52 3.05 0z" fill="#000000" stroke-width="1"></path>
    <path d="M7.62 0h6.1v1.52h-6.1Z" fill="#000000" stroke-width="1"></path>
    <path d="M18.29 18.28h-1.53v-1.52H4.57v1.52H3.05v6.1h1.52v1.52h12.19v-1.52h1.53Zm-12.19 0h1.52v1.53H6.1Zm9.14 4.57h-1.52v1.53h-6.1v-1.53H6.1v-1.52h1.52v1.52h6.1v-1.52h1.52Zm0 -3.04h-1.52v-1.53h1.52Z" fill="#000000" stroke-width="1"></path>
    <path d="m18.29 12.19 0 -1.53 -3.05 0 0 -9.14 -1.52 0 0 9.14 -6.1 0 0 -9.14 -1.52 0 0 9.14 -3.05 0 0 1.53 15.24 0z" fill="#000000" stroke-width="1"></path>
    <path d="M1.53 25.9h1.52v1.53H1.53Z" fill="#000000" stroke-width="1"></path>
    <path d="M1.53 12.19h1.52v1.52H1.53Z" fill="#000000" stroke-width="1"></path>
    <path d="m1.53 16.76 1.52 0 0 -1.52 -1.52 0 0 -1.53 -1.53 0L0 25.9l1.53 0 0 -9.14z" fill="#000000" stroke-width="1"></path>
  </g>
</svg>