<svg xmlns="http://www.w3.org/2000/svg" fill="none" viewBox="0 0 24 24" id="Kodi-Logo--Streamline-Logos-Block">
  <desc>
    Kodi Logo Streamline Icon: https://streamlinehq.com
  </desc>
  <path fill="#000000" fill-rule="evenodd" d="M5 1a4 4 0 0 0 -4 4v14a4 4 0 0 0 4 4h14a4 4 0 0 0 4 -4V5a4 4 0 0 0 -4 -4H5Zm7.743 3.808a1.05 1.05 0 0 0 -1.486 0L9.032 7.033a0.34 0.34 0 0 0 -0.1 0.241v6.007a0.34 0.34 0 0 0 0.582 0.241l5.73 -5.73a0.341 0.341 0 0 0 0 -0.483l-2.501 -2.501Zm3.948 3.948a0.34 0.34 0 0 0 -0.482 0l-3.004 3.003a0.34 0.34 0 0 0 0 0.482l3.004 3.004a0.34 0.34 0 0 0 0.482 0l2.501 -2.502a1.05 1.05 0 0 0 0 -1.486l-2.501 -2.501Zm-4.932 4.45a0.34 0.34 0 0 1 0.482 0l3.003 3.003a0.341 0.341 0 0 1 0 0.482l-2.501 2.501a1.05 1.05 0 0 1 -1.486 0l-2.501 -2.501a0.34 0.34 0 0 1 0 -0.482l3.003 -3.004ZM7.569 9.32a0.34 0.34 0 0 0 -0.583 -0.241l-2.178 2.178a1.05 1.05 0 0 0 0 1.486l2.178 2.178a0.34 0.34 0 0 0 0.582 -0.24V9.32Z" clip-rule="evenodd" stroke-width="1"></path>
</svg>