<svg xmlns="http://www.w3.org/2000/svg" fill="none" viewBox="0 0 24 24" id="Osmc-Logo--Streamline-Logos-Block">
  <desc>
    Osmc Logo Streamline Icon: https://streamlinehq.com
  </desc>
  <path fill="#000000" fill-rule="evenodd" d="M5 1a4 4 0 0 0 -4 4v14a4 4 0 0 0 4 4h14a4 4 0 0 0 4 -4V5a4 4 0 0 0 -4 -4H5Zm14.5 11a7.5 7.5 0 1 1 -15 0 7.5 7.5 0 0 1 15 0ZM8.989 7.934l1.067 1.067L12 10.946 13.944 9l1.067 -1.067v6.623a0.625 0.625 0 0 1 -1.25 0v-3.605l-1.32 1.32 -2.385 2.386 -1.067 1.067v-7.79Zm2.127 3.895 -0.877 -0.877v1.755l0.877 -0.878Z" clip-rule="evenodd" stroke-width="1"></path>
</svg>