<svg xmlns="http://www.w3.org/2000/svg" fill="none" viewBox="0 0 24 24" id="Wetv-Logo--Streamline-Logos-Block">
  <desc>
    Wetv Logo Streamline Icon: https://streamlinehq.com
  </desc>
  <path fill="#000000" fill-rule="evenodd" d="M1 5a4 4 0 0 1 4 -4h14a4 4 0 0 1 4 4v14a4 4 0 0 1 -4 4H5a4 4 0 0 1 -4 -4V5Zm7.28 13.065c0.227 0.323 0.498 0.571 0.821 0.733 0.189 0.094 0.508 0.082 0.92 -0.014 1.044 -0.242 2.69 -1.02 4.367 -1.98a40.96 40.96 0 0 0 2.856 -1.79c1.317 -0.907 2.408 -1.793 2.902 -2.425 0.183 -0.235 0.285 -0.436 0.285 -0.589 0 -1.416 -8.63 -6.815 -10.954 -6.862a0.814 0.814 0 0 0 -0.376 0.064c-0.323 0.162 -0.594 0.41 -0.82 0.733 0.13 0.037 0.262 0.078 0.395 0.121 1.124 0.362 2.447 0.927 3.705 1.556 1.257 0.629 2.486 1.34 3.416 2.005 0.461 0.33 0.88 0.672 1.194 1.006 0.157 0.168 0.31 0.356 0.428 0.562 0.113 0.197 0.235 0.48 0.235 0.815 0 0.336 -0.122 0.618 -0.235 0.815a3.088 3.088 0 0 1 -0.428 0.562c-0.314 0.334 -0.733 0.675 -1.194 1.006 -0.93 0.665 -2.16 1.376 -3.416 2.005 -1.258 0.629 -2.58 1.194 -3.705 1.556a11.09 11.09 0 0 1 -0.396 0.121Zm-2.134 -0.75c0.164 0.059 0.397 0.07 0.683 0.04a8.047 8.047 0 0 1 -0.21 -0.732c-0.312 -1.298 -0.406 -2.904 -0.406 -4.623 0 -1.719 0.094 -3.325 0.405 -4.624a8.05 8.05 0 0 1 0.211 -0.732c-0.326 -0.033 -0.583 -0.014 -0.749 0.069 -0.567 0.283 -0.92 1.097 -1.142 2.005 -0.221 0.907 -0.31 1.907 -0.345 2.562 -0.024 0.437 -0.024 0.72 -0.024 0.72s0 2.989 0.81 4.517a2.1 2.1 0 0 0 0.435 0.586c0.083 0.075 0.171 0.137 0.266 0.184a0.6 0.6 0 0 0 0.066 0.028ZM7.819 6.844C7.356 8.099 7.213 9.906 7.213 12s0.143 3.9 0.606 5.156c3.108 -0.845 8.835 -3.955 8.835 -5.156 0 -1.2 -5.727 -4.31 -8.835 -5.156Zm1.66 7.422c-0.378 -0.378 -0.378 -4.154 0 -4.532 0.377 -0.377 4.154 1.889 4.154 2.266 0 0.378 -3.777 2.644 -4.154 2.266Z" clip-rule="evenodd" stroke-width="1"></path>
</svg>