<svg xmlns="http://www.w3.org/2000/svg" viewBox="0 0 32 32" id="Phone-Off-1--Streamline-Pixel">
  <desc>
    Phone Off 1 Streamline Icon: https://streamlinehq.com
  </desc>
  <title>phone-off-1</title>
  <g>
    <path d="M30.48 3.05H32v25.9h-1.52Z" fill="#000000" stroke-width="1"></path>
    <path d="M28.95 28.95h1.53v1.52h-1.53Z" fill="#000000" stroke-width="1"></path>
    <path d="M27.43 19.81h1.52v4.57h-1.52Z" fill="#000000" stroke-width="1"></path>
    <path d="M3.05 30.47h25.9V32H3.05Z" fill="#000000" stroke-width="1"></path>
    <path d="M25.9 18.28h1.53v1.53H25.9Z" fill="#000000" stroke-width="1"></path>
    <path d="M24.38 21.33h1.52v3.05h-1.52Z" fill="#000000" stroke-width="1"></path>
    <path d="M24.38 16.76h1.52v1.52h-1.52Z" fill="#000000" stroke-width="1"></path>
    <path d="M22.86 19.81h1.52v1.52h-1.52Z" fill="#000000" stroke-width="1"></path>
    <path d="M21.33 15.24h3.05v1.52h-3.05Z" fill="#000000" stroke-width="1"></path>
    <path d="M21.33 22.85h1.53v1.53h-1.53Z" fill="#000000" stroke-width="1"></path>
    <path d="M19.81 18.28h3.05v1.53h-3.05Z" fill="#000000" stroke-width="1"></path>
    <path d="M19.81 21.33h1.52v1.52h-1.52Z" fill="#000000" stroke-width="1"></path>
    <path d="M16.76 19.81h1.52v6.09h-1.52Z" fill="#000000" stroke-width="1"></path>
    <path d="M16.76 6.09h1.52v4.57h-1.52Z" fill="#000000" stroke-width="1"></path>
    <path d="M15.24 25.9h1.52v1.53h-1.52Z" fill="#000000" stroke-width="1"></path>
    <path d="M15.24 18.28h1.52v1.53h-1.52Z" fill="#000000" stroke-width="1"></path>
    <path d="M15.24 4.57h1.52v1.52h-1.52Z" fill="#000000" stroke-width="1"></path>
    <path d="M12.19 12.19h3.05v1.52h-3.05Z" fill="#000000" stroke-width="1"></path>
    <path d="M9.14 27.43h6.1v1.52h-6.1Z" fill="#000000" stroke-width="1"></path>
    <path d="m12.19 25.9 1.52 0 0 -1.52 1.53 0 0 -3.05 -3.05 0 0 4.57z" fill="#000000" stroke-width="1"></path>
    <path d="m13.71 6.09 -1.52 0 0 4.57 3.05 0 0 -3.04 -1.53 0 0 -1.53z" fill="#000000" stroke-width="1"></path>
    <path d="M10.67 13.71h1.52v3.05h-1.52Z" fill="#000000" stroke-width="1"></path>
    <path d="M9.14 3.05h6.1v1.52h-6.1Z" fill="#000000" stroke-width="1"></path>
    <path d="M7.62 25.9h1.52v1.53H7.62Z" fill="#000000" stroke-width="1"></path>
    <path d="M7.62 4.57h1.52v1.52H7.62Z" fill="#000000" stroke-width="1"></path>
    <path d="M6.09 6.09h1.53v3.05H6.09Z" fill="#000000" stroke-width="1"></path>
    <path d="M4.57 9.14h1.52v13.71H4.57Z" fill="#000000" stroke-width="1"></path>
    <path d="m4.57 28.95 0 -1.52 1.52 0 0 -1.53 1.53 0 0 -1.52 1.52 0 0 -1.53 1.53 0 0 -1.52 1.52 0 0 -1.52 1.52 0 0 -1.53 1.53 0 0 -1.52 1.52 0 0 -1.52 1.52 0 0 -1.53 1.53 0 0 -1.52 1.52 0 0 -1.53 1.53 0 0 -1.52 1.52 0 0 -1.52 1.52 0 0 -1.53 1.53 0 0 -1.52 1.52 0 0 -1.52 1.53 0 0 -1.53 -1.53 0 0 -1.52 -25.9 0 0 1.52 24.38 0 0 1.53 -1.53 0 0 1.52 -1.52 0 0 1.52 -1.52 0 0 1.53 -1.53 0 0 1.52 -1.52 0 0 1.52 -1.53 0 0 1.53 -1.52 0 0 1.52 -1.52 0 0 1.53 -1.53 0 0 1.52 -1.52 0 0 1.52 -1.52 0 0 1.53 -1.53 0 0 1.52 -1.52 0 0 1.52 -1.53 0 0 1.53 -1.52 0 0 1.52 -1.52 0 0 1.53 -1.53 0 0 -24.38 -1.52 0 0 25.9 1.52 0 0 1.52 1.53 0 0 -1.52 1.52 0z" fill="#000000" stroke-width="1"></path>
    <path d="M1.52 1.52h1.53v1.53H1.52Z" fill="#000000" stroke-width="1"></path>
  </g>
</svg>