<svg xmlns="http://www.w3.org/2000/svg" fill="none" viewBox="0 0 14 14" id="Dog-1--Streamline-Flex-Remix">
  <desc>
    Dog 1 Streamline Icon: https://streamlinehq.com
  </desc>
  <g id="dog-1--nature-head-dog-pet-animals-canine">
    <path id="Union" fill="#000000" fill-rule="evenodd" d="m4.90781 1.79285 -0.81755 2.74246s-0.59807 2.0655 -0.84486 4.08536c-0.03579 0.35709 -0.05636 0.70669 -0.05636 1.03751 0 1.32962 0.42692 1.96332 0.99752 2.31612 0.63974 0.3956 1.59105 0.5257 2.81343 0.5257 1.22238 0 2.1737 -0.1301 2.81343 -0.5257 0.57058 -0.3528 0.99748 -0.9865 0.99748 -2.31612 0 -0.33109 -0.0206 -0.681 -0.0564 -1.03839 -0.2469 -2.01958 -0.84476 -4.08448 -0.84476 -4.08448l-0.81755 -2.74245C8.35652 1.59392 7.59997 1.5 6.99999 1.5c-0.59997 0 -1.35652 0.09391 -2.09218 0.29285Zm7.15309 7.86533c0 -0.2746 -0.0122 -0.55556 -0.0338 -0.83768l-0.0038 -0.0484c0.0304 -0.00593 0.0604 -0.01222 0.0901 -0.01888 0.7064 -0.15834 1.2245 -0.52125 1.5378 -1.04203 0.0499 -0.08312 0.0947 -0.17025 0.1342 -0.26122 0.0359 -0.08274 0.0668 -0.16721 0.093 -0.25296 0.1836 -0.60039 0.1393 -1.26601 -0.0006 -1.87783 -0.1627 -0.71159 -0.4724 -1.42984 -0.8308 -2.04633 -0.3554 -0.61108 -0.7834 -1.16449 -1.2089 -1.52209 -0.648 -0.54453 -1.516 -0.914484 -2.3643 -1.149476C9.21123 0.52855 8.9455 0.46736 8.68218 0.41748 8.08789 0.304905 7.50586 0.25 6.99999 0.25c-0.50586 0 -1.08789 0.054957 -1.68218 0.167529 -0.26333 0.04988 -0.52903 0.111021 -0.7916 0.183755 -0.84834 0.234992 -1.71636 0.604946 -2.36431 1.149476 -0.42552 0.3576 -0.85351 0.91101 -1.208853 1.52209 -0.35849 0.61649 -0.668153 1.33474 -0.830843 2.04633 -0.0746226 0.32639 -0.122059968 0.6681 -0.1222036648 1.00704C-0.000165757 6.71339 0.0613738 7.09695 0.21459 7.44997c0.297271 0.68493 0.89433 1.15264 1.76209 1.32214l-0.00016 0.00195 -0.00349 0.04453 -0.00015 0.00191c-0.02158 0.28211 -0.03384 0.56308 -0.03384 0.83768 0 1.64192 0.55884 2.74162 1.59011 3.37932 0.96214 0.5949 2.2288 0.7125 3.47084 0.7125 1.24204 0 2.5087 -0.1176 3.47081 -0.7125 1.0313 -0.6377 1.5901 -1.7374 1.5901 -3.37932ZM5.27661 5.57495c0.34518 0 0.625 0.27982 0.625 0.625v0.49c0 0.34518 -0.27982 0.625 -0.625 0.625s-0.625 -0.27982 -0.625 -0.625v-0.49c0 -0.34518 0.27982 -0.625 0.625 -0.625Zm3.44702 0c0.34518 0 0.625 0.27982 0.625 0.625v0.49c0 0.34518 -0.27982 0.625 -0.625 0.625 -0.34517 0 -0.625 -0.27982 -0.625 -0.625v-0.49c0 -0.34518 0.27983 -0.625 0.625 -0.625Zm-2.8932 4.0849c0.18215 0.41795 0.55588 0.73675 0.76781 0.87725 0.24126 0.1599 0.56236 0.1599 0.80363 0 0.21192 -0.1405 0.58565 -0.4593 0.7678 -0.87725 0.09168 -0.21036 0.06647 -0.44198 -0.04672 -0.62229 -0.10464 -0.16669 -0.25837 -0.2541 -0.3861 -0.29343 -0.16278 -0.05012 -0.424 -0.10393 -0.7368 -0.10393s-0.57402 0.05381 -0.7368 0.10393c-0.12773 0.03933 -0.28146 0.12674 -0.3861 0.29343 -0.11319 0.18031 -0.1384 0.41193 -0.04672 0.62229Z" clip-rule="evenodd" stroke-width="1"></path>
  </g>
</svg>