<svg xmlns="http://www.w3.org/2000/svg" fill="none" viewBox="0 0 14 14" id="Pine-Tree--Streamline-Flex-Remix">
  <desc>
    Pine Tree Streamline Icon: https://streamlinehq.com
  </desc>
  <g id="pine-tree--nature-plant-tree-farming-christmas-plants-pine-environment">
    <path id="Union" fill="#000000" fill-rule="evenodd" d="M6.8764 1.2921c0.07563 -0.05646 0.1722 -0.05646 0.24783 0 1.00182 0.74798 2.49438 2.22339 3.28997 3.86136 0.0297 0.06102 0.0251 0.11357 0.0071 0.15332 -0.0181 0.04003 -0.0554 0.07942 -0.1223 0.0982 -0.0637 0.0179 -0.1304 0.03588 -0.1998 0.0538 -0.21353 0.05507 -0.38221 0.21854 -0.44394 0.43019 -0.06173 0.21165 -0.00738 0.44017 0.14302 0.60138 0.75352 0.80764 1.44742 1.72169 1.92542 2.66955 0.0333 0.06616 0.0294 0.12547 0.0084 0.1723 -0.0214 0.04755 -0.0656 0.09311 -0.1411 0.11405 -1.002 0.27796 -2.63164 0.58805 -4.59102 0.58805 -1.95938 0 -3.58899 -0.31009 -4.59103 -0.58805 -0.07549 -0.02094 -0.1197 -0.0665 -0.14106 -0.11405 -0.02105 -0.04683 -0.02496 -0.10614 0.0084 -0.1723 0.47802 -0.94791 1.17191 -1.86201 1.92551 -2.66969 0.15041 -0.1612 0.20476 -0.38971 0.14304 -0.60136 -0.06173 -0.21165 -0.23039 -0.37513 -0.44387 -0.4302 -0.06929 -0.01788 -0.13577 -0.03582 -0.19932 -0.05367 -0.06687 -0.01878 -0.1042 -0.05817 -0.12229 -0.0982 -0.01798 -0.03975 -0.02259 -0.09229 0.00706 -0.15332 0.79561 -1.63797 2.28816 -3.11338 3.28998 -3.86136ZM7.87206 0.290478c-0.51919 -0.3876293 -1.2243 -0.3876297 -1.74348 0C5.02593 1.11373 3.37239 2.73313 2.46204 4.60731c-0.2832 0.58304 -0.14149 1.23374 0.28014 1.64494 -0.60305 0.71561 -1.1601 1.50817 -1.582 2.34481 -0.420591 0.83403 0.02915 1.80804 0.91464 2.05374 0.94066 0.2609 2.35527 0.54 4.05373 0.6144 -0.00021 0.0079 -0.00032 0.0159 -0.00032 0.0238v1.8362c0 0.4832 0.39175 0.875 0.875 0.875s0.875 -0.3918 0.875 -0.875V11.289c0 -0.008 -0.00011 -0.0161 -0.00033 -0.0241 1.69558 -0.0748 3.1078 -0.3535 4.0472 -0.6141 0.8855 -0.2457 1.3353 -1.21971 0.9147 -2.05374 -0.4218 -0.8365 -0.9788 -1.62893 -1.5817 -2.34445 0.4219 -0.41118 0.5638 -1.06209 0.2805 -1.6453 -0.9104 -1.87418 -2.56389 -3.49358 -3.66654 -4.316832Z" clip-rule="evenodd" stroke-width="1"></path>
  </g>
</svg>