<svg xmlns="http://www.w3.org/2000/svg" fill="none" viewBox="0 0 14 14" id="Recycle-1--Streamline-Flex-Remix">
  <desc>
    Recycle 1 Streamline Icon: https://streamlinehq.com
  </desc>
  <g id="recycle-1--nature-sign-environment-protect-save-arrows">
    <path id="Union" fill="#000000" fill-rule="evenodd" d="M8.33369 0.109572c0.42138 -0.1832565 0.93495 -0.1476913 1.34622 0.194965C10.3256 0.842532 10.8802 1.51726 11.2506 2.167c0.1853 0.32518 0.3313 0.65585 0.4164 0.97031 0.0832 0.30722 0.1197 0.64056 0.0374 0.94756 -0.082 0.30606 -0.2791 0.57655 -0.5038 0.80167 -0.23 0.23042 -0.5205 0.44501 -0.8424 0.63546 -0.64333 0.38053 -1.45838 0.69184 -2.28486 0.83946 -0.52732 0.0942 -0.99124 -0.12949 -1.26644 -0.49777 -0.25418 -0.34013 -0.34741 -0.79956 -0.21879 -1.24594 -0.52109 -0.0424 -1.24335 -0.00542 -2.03958 0.24572 -0.15241 0.04807 -0.31861 0.0204 -0.44721 -0.07447 -0.12861 -0.09486 -0.20412 -0.24548 -0.20319 -0.40529 0.00164 -0.27972 0.03543 -0.58646 0.09096 -0.89417 0.26785 -1.4839 1.72076 -2.34572 3.09267 -2.343 0.13925 0.00028 0.28198 0.00615 0.42633 0.02135 0.08967 -0.491901 0.41227 -0.878565 0.8256 -1.058318ZM2.36709 6.55593c0.28048 -0.16294 0.61096 -0.29421 0.95579 -0.29421 0.34365 0 0.67376 0.13003 0.95456 0.29178 0.28891 0.16643 0.57487 0.39488 0.84284 0.65724 0.53528 0.52409 1.04647 1.23043 1.40295 1.99048 0.2463 0.52514 0.14194 1.07538 -0.16622 1.46658 -0.25187 0.3197 -0.63601 0.5321 -1.0672 0.5693 0.10323 0.4676 0.31362 1.061 0.70069 1.6684 0.10735 0.1685 0.1277 0.3781 0.05477 0.5641 -0.07293 0.186 -0.23037 0.3259 -0.42362 0.3764 -0.27475 0.072 -0.5819 0.1188 -0.89307 0.1448 -1.55616 0.1298 -2.78848 -1.0898 -3.14599 -2.4347 -0.02616 -0.0984 -0.0501 -0.2 -0.07011 -0.3044 -0.48566 0.0024 -0.925713 -0.2177 -1.205313 -0.5692 -0.30985329 -0.3894 -0.41701 -0.93889 -0.173882 -1.46507 0.352506 -0.76288 0.860253 -1.47285 1.393255 -1.99999 0.26681 -0.26387 0.55196 -0.49386 0.84055 -0.66151Zm0.03843 1.55027c-0.42644 0.42175 -0.84764 1.00822 -1.13751 1.63555 -0.019 0.04111 -0.01956 0.06932 -0.01696 0.08807 0.00293 0.02115 0.01254 0.04714 0.03433 0.07452 0.04481 0.05633 0.13204 0.10576 0.24826 0.09626 0.15721 -0.01287 0.30339 -0.0297 0.44178 -0.05309 0.18625 -0.03148 0.37674 0.02295 0.51823 0.14809 0.14149 0.1251 0.21879 0.3076 0.2103 0.4963 -0.00861 0.1914 0.02231 0.4009 0.08668 0.6431 0.23327 0.8775 0.95255 1.5004 1.69655 1.5145 -0.39617 -0.8718 -0.53248 -1.6741 -0.53248 -2.192 0 -0.1834 0.08052 -0.3575 0.22024 -0.4762 0.13972 -0.11879 0.32454 -0.17019 0.50551 -0.14064 0.13992 0.02286 0.28759 0.03906 0.44626 0.05121 0.11665 0.00893 0.20385 -0.04105 0.24838 -0.09759 0.02164 -0.02746 0.03108 -0.05342 0.03388 -0.07446 0.00248 -0.01863 0.0018 -0.04678 -0.01744 -0.08781 -0.29308 -0.62486 -0.71716 -1.20847 -1.14575 -1.6281 -0.21397 -0.2095 -0.4171 -0.36635 -0.59228 -0.46726 -0.1833 -0.10559 -0.2923 -0.12493 -0.33062 -0.12493 -0.03734 0 -0.14542 0.01906 -0.32789 0.12506 -0.17437 0.1013 -0.37656 0.25886 -0.58947 0.46942Zm9.66578 -1.55879c0.1918 -0.05588 0.3987 -0.01671 0.5568 0.10539 0.2248 0.17359 0.4496 0.38813 0.6602 0.61862 1.0535 1.15269 0.8408 2.87338 -0.0055 3.97808 -0.062 0.0808 -0.1278 0.1618 -0.1982 0.2414 0.2986 0.3831 0.3932 0.8659 0.2858 1.302 -0.1191 0.4832 -0.4886 0.9037 -1.0537 1.0327 -0.8193 0.187 -1.6916 0.2188 -2.43457 0.1188 -0.3719 -0.05 -0.72819 -0.1352 -1.03722 -0.2613 -0.30035 -0.1225 -0.60618 -0.3039 -0.81684 -0.5769 -0.20994 -0.2721 -0.30867 -0.6129 -0.35216 -0.934 -0.04475 -0.3304 -0.03859 -0.6964 0.00542 -1.0688 0.0879 -0.744 0.3348 -1.58018 0.71874 -2.32673 0.26527 -0.51582 0.76468 -0.76937 1.26263 -0.76438 0.407 0.00407 0.8098 0.17844 1.1027 0.4971 0.3071 -0.36739 0.6484 -0.89648 0.8928 -1.57402 0.0678 -0.18791 0.2213 -0.33209 0.4131 -0.38796Zm0.3818 1.67345c-0.4482 0.84627 -1.0001 1.4443 -1.4101 1.76071 -0.1452 0.11203 -0.3322 0.15463 -0.5116 0.11653 -0.1794 -0.038 -0.333 -0.15294 -0.4201 -0.31427 -0.0674 -0.12474 -0.1448 -0.25154 -0.23211 -0.38458 -0.06419 -0.09781 -0.15704 -0.13631 -0.229 -0.13703 -0.03497 -0.00035 -0.06128 0.00804 -0.07965 0.01867 -0.01627 0.00942 -0.03813 0.02716 -0.05886 0.06746 -0.31565 0.61377 -0.51861 1.30605 -0.58899 1.90175 -0.03514 0.2974 -0.03522 0.554 -0.00809 0.7543 0.02839 0.2097 0.07967 0.3078 0.10308 0.3381 0.02281 0.0296 0.10393 0.1035 0.29933 0.1832 0.18672 0.0761 0.43498 0.14 0.73179 0.1799 0.5944 0.0799 1.316 0.0551 1.9897 -0.0987 0.0442 -0.01 0.0669 -0.0268 0.0801 -0.0403 0.015 -0.0153 0.0297 -0.0388 0.0381 -0.0727 0.0172 -0.0699 0.003 -0.1692 -0.0755 -0.2554 -0.1062 -0.1166 -0.2089 -0.222 -0.3119 -0.3173 -0.1387 -0.1282 -0.212 -0.3123 -0.1994 -0.5008 0.0126 -0.1884 0.1098 -0.3611 0.2644 -0.4696 0.1568 -0.1102 0.3038 -0.2626 0.4562 -0.4615 0.5522 -0.72083 0.606 -1.67082 0.1626 -2.26844Z" clip-rule="evenodd" stroke-width="1"></path>
  </g>
</svg>