<svg xmlns="http://www.w3.org/2000/svg" viewBox="0 0 24 24" id="Garbage-Bin--Streamline-Ultimate">
  <desc>
    Garbage Bin Streamline Icon: https://streamlinehq.com
  </desc>
  <g id="Garbage-Bin--Streamline-Ultimate.svg">
    <path d="M17.75 0.5H4.25A1.5 1.5 0 0 0 2.75 2v2a0.5 0.5 0 0 0 0.5 0.5h17.5a0.5 0.5 0 0 0 0.5 -0.5 3.5 3.5 0 0 0 -3.5 -3.5Z" fill="#000000" stroke-width="1"></path>
    <path d="M19.25 6h-15a0.5 0.5 0 0 0 -0.5 0.5V18a0.25 0.25 0 0 0 0.38 0.21 3.74 3.74 0 0 1 5.37 4.9 0.25 0.25 0 0 0 0.21 0.39h4.85a0.5 0.5 0 0 0 0.48 -0.36l4.69 -16.5a0.53 0.53 0 0 0 -0.08 -0.44 0.49 0.49 0 0 0 -0.4 -0.2Z" fill="#000000" stroke-width="1"></path>
    <path d="M4 21.25a2.25 2.25 0 1 0 4.5 0 2.25 2.25 0 1 0 -4.5 0" fill="#000000" stroke-width="1"></path>
  </g>
</svg>