<svg xmlns="http://www.w3.org/2000/svg" viewBox="0 0 24 24" id="Information-Desk-Customer--Streamline-Ultimate">
  <desc>
    Information Desk Customer Streamline Icon: https://streamlinehq.com
  </desc>
  <g id="Information-Desk-Customer--Streamline-Ultimate.svg">
    <path d="M13.88 6.25a2.25 2.25 0 1 0 4.5 0 2.25 2.25 0 1 0 -4.5 0" fill="#000000" stroke-width="1"></path>
    <path d="M11.74 12.66a0.23 0.23 0 0 0 0 0.23 0.23 0.23 0 0 0 0.26 0.11h8.39a0.19 0.19 0 0 0 0.16 -0.08 0.2 0.2 0 0 0 0 -0.17 4.63 4.63 0 0 0 -8.81 -0.09Z" fill="#000000" stroke-width="1"></path>
    <path d="M22.38 16.5a1 1 0 0 0 0 -2H10.12a0.5 0.5 0 0 1 -0.5 -0.5v-1.5a4.5 4.5 0 1 0 -9 0V16a0.5 0.5 0 0 0 0.5 0.5h1a0.49 0.49 0 0 1 0.5 0.46L3.09 23a0.49 0.49 0 0 0 0.5 0.46h3.07a0.5 0.5 0 0 0 0.5 -0.46l0.43 -6a0.49 0.49 0 0 1 0.5 -0.46Z" fill="#000000" stroke-width="1"></path>
    <path d="M2.13 3.5a3 3 0 1 0 6 0 3 3 0 1 0 -6 0" fill="#000000" stroke-width="1"></path>
  </g>
</svg>