<svg xmlns="http://www.w3.org/2000/svg" viewBox="0 0 24 24" id="Safety-Float--Streamline-Ultimate">
  <desc>
    Safety Float Streamline Icon: https://streamlinehq.com
  </desc>
  <path d="M23 10.07a0.24 0.24 0 0 1 -0.16 -0.19 11 11 0 0 0 -8.67 -8.67 0.24 0.24 0 0 1 -0.19 -0.16A1.5 1.5 0 0 0 12.5 0h-1a1.5 1.5 0 0 0 -1.43 1.05 0.24 0.24 0 0 1 -0.19 0.16 11 11 0 0 0 -8.67 8.67 0.24 0.24 0 0 1 -0.16 0.19A1.5 1.5 0 0 0 0 11.5v1a1.5 1.5 0 0 0 1.05 1.43 0.24 0.24 0 0 1 0.16 0.19 11 11 0 0 0 8.67 8.67 0.24 0.24 0 0 1 0.19 0.16A1.5 1.5 0 0 0 11.5 24h1a1.5 1.5 0 0 0 1.43 -1 0.24 0.24 0 0 1 0.19 -0.16 11 11 0 0 0 8.67 -8.67 0.24 0.24 0 0 1 0.16 -0.19A1.5 1.5 0 0 0 24 12.5v-1a1.5 1.5 0 0 0 -1 -1.43Zm-2.26 -0.38a0.25 0.25 0 0 1 -0.24 0.31h-3.21a0.25 0.25 0 0 1 -0.23 -0.15 5.52 5.52 0 0 0 -2.91 -2.91 0.25 0.25 0 0 1 -0.15 -0.23V3.55a0.25 0.25 0 0 1 0.31 -0.24 9 9 0 0 1 6.38 6.38ZM12 15.5a3.5 3.5 0 1 1 3.5 -3.5 3.5 3.5 0 0 1 -3.5 3.5ZM9.73 3.3a0.22 0.22 0 0 1 0.27 0.21v3.2a0.25 0.25 0 0 1 -0.15 0.23 5.52 5.52 0 0 0 -2.91 2.91 0.25 0.25 0 0 1 -0.23 0.15H3.55a0.25 0.25 0 0 1 -0.24 -0.31A9 9 0 0 1 9.73 3.3Zm-6.42 11a0.25 0.25 0 0 1 0.24 -0.3h3.16a0.25 0.25 0 0 1 0.23 0.15 5.52 5.52 0 0 0 2.91 2.91 0.25 0.25 0 0 1 0.15 0.23v3.16a0.25 0.25 0 0 1 -0.31 0.24 9 9 0 0 1 -6.38 -6.38Zm11 6.38a0.25 0.25 0 0 1 -0.31 -0.24v-3.15a0.25 0.25 0 0 1 0.15 -0.23 5.52 5.52 0 0 0 2.91 -2.91 0.25 0.25 0 0 1 0.23 -0.15h3.16a0.25 0.25 0 0 1 0.24 0.31 9 9 0 0 1 -6.38 6.38Z" fill="#000000" stroke-width="1"></path>
</svg>