<svg xmlns="http://www.w3.org/2000/svg" viewBox="0 0 24 24" id="Ticket-Add--Streamline-Ultimate">
  <desc>
    Ticket Add Streamline Icon: https://streamlinehq.com
  </desc>
  <g id="Ticket-Add--Streamline-Ultimate.svg">
    <path d="M14.35 3.34a0.99 0.99 0 1 0 1.98 0 0.99 0.99 0 1 0 -1.98 0" fill="#000000" stroke-width="1"></path>
    <path d="M14.35 6.06a0.99 0.99 0 1 0 1.98 0 0.99 0.99 0 1 0 -1.98 0" fill="#000000" stroke-width="1"></path>
    <path d="M14.35 8.78a0.99 0.99 0 1 0 1.98 0 0.99 0.99 0 1 0 -1.98 0" fill="#000000" stroke-width="1"></path>
    <path d="M9.6 15.46H2.23a0.25 0.25 0 0 1 -0.23 -0.24v-1.9a0.25 0.25 0 0 1 0.18 -0.24 4.45 4.45 0 0 0 0 -8.59 0.25 0.25 0 0 1 -0.18 -0.24v-1.9a0.25 0.25 0 0 1 0.25 -0.25h19.3a0.25 0.25 0 0 1 0.24 0.25v1.9a0.25 0.25 0 0 1 -0.18 0.24 4.46 4.46 0 0 0 -3.28 4.29 4 4 0 0 0 0 0.6 0.25 0.25 0 0 0 0.21 0.21 7.34 7.34 0 0 1 1.57 0.37 0.27 0.27 0 0 0 0.26 -0.06 0.26 0.26 0 0 0 0.06 -0.26 2.27 2.27 0 0 1 -0.16 -0.86 2.47 2.47 0 0 1 2.16 -2.45 1.49 1.49 0 0 0 1.3 -1.47V2.1a2 2 0 0 0 -2 -2H2a2 2 0 0 0 -2 2v2.76a1.49 1.49 0 0 0 1.3 1.47 2.47 2.47 0 0 1 2.16 2.45 2.48 2.48 0 0 1 -2.16 2.46A1.48 1.48 0 0 0 0 12.71v2.75a2 2 0 0 0 2 2h7.41a0.24 0.24 0 0 0 0.24 -0.24 7.67 7.67 0 0 1 0.19 -1.44 0.24 0.24 0 0 0 -0.05 -0.2 0.26 0.26 0 0 0 -0.19 -0.12Z" fill="#000000" stroke-width="1"></path>
    <path d="M17.57 11A6.44 6.44 0 1 0 24 17.44 6.45 6.45 0 0 0 17.57 11ZM20 18.19h-1.44a0.25 0.25 0 0 0 -0.25 0.24v1.49a0.74 0.74 0 0 1 -0.74 0.74 0.75 0.75 0 0 1 -0.75 -0.74v-1.49a0.24 0.24 0 0 0 -0.24 -0.24h-1.49a0.75 0.75 0 0 1 -0.74 -0.75 0.74 0.74 0 0 1 0.74 -0.74h1.49a0.25 0.25 0 0 0 0.24 -0.25V15a0.75 0.75 0 0 1 0.75 -0.74 0.74 0.74 0 0 1 0.74 0.74v1.48a0.25 0.25 0 0 0 0.25 0.25H20a0.74 0.74 0 0 1 0.74 0.74 0.75 0.75 0 0 1 -0.74 0.72Z" fill="#000000" stroke-width="1"></path>
  </g>
</svg>