<svg viewBox="0 0 48 48" xmlns="http://www.w3.org/2000/svg"><path d="M9.070 45.790 A13.53 1.56 0 1 0 36.130 45.790 A13.53 1.56 0 1 0 9.070 45.790 Z" fill="#45413c" opacity=".15"></path><path d="M38.18,19.86C42.12,13.51,40.88,5.6,35.4,2.2s-13.12-1-17.06,5.35a15,15,0,0,0-2.27,8.75c.1,5.35,2,10.21-.44,14.21l-1.76,2.84,3.17,2,1.77-2.84c2.48-4,7.7-4.41,12.54-6.7A15.09,15.09,0,0,0,38.18,19.86ZM18.33,29.7A21,21,0,0,0,19,23.41a11.77,11.77,0,0,0,2.16,1.8,12.12,12.12,0,0,0,2.57,1.14A21.22,21.22,0,0,0,18.33,29.7Zm4.27-6.87c-4.17-2.58-5-8.76-1.88-13.8s9-7,13.21-4.45,5,8.76,1.87,13.8S26.76,25.42,22.6,22.83Z" fill="#ff8a14"></path><path d="M18.45,10.29C22.4,3.93,30,1.54,35.52,4.94a10.89,10.89,0,0,1,4.94,7.86A11.4,11.4,0,0,0,35.4,2.2c-5.48-3.4-13.12-1-17.06,5.35a15,15,0,0,0-2.27,8.75c0,.58,0,1.15.08,1.71A15.3,15.3,0,0,1,18.45,10.29Z" fill="#ffaa54"></path><path d="M38.18,19.86C42.12,13.51,40.88,5.6,35.4,2.2s-13.12-1-17.06,5.35a15,15,0,0,0-2.27,8.75c.1,5.35,2,10.21-.44,14.21l-1.76,2.84,3.17,2,1.77-2.84c2.48-4,7.7-4.41,12.54-6.7A15.09,15.09,0,0,0,38.18,19.86ZM18.33,29.7A21,21,0,0,0,19,23.41a11.77,11.77,0,0,0,2.16,1.8,12.12,12.12,0,0,0,2.57,1.14A21.22,21.22,0,0,0,18.33,29.7Zm4.27-6.87c-4.17-2.58-5-8.76-1.88-13.8s9-7,13.21-4.45,5,8.76,1.87,13.8S26.76,25.42,22.6,22.83Z" fill="none" stroke="#45413c" stroke-linecap="round" stroke-linejoin="round" stroke-width="1.01"></path><path d="M12.21,30.54H15a.93.93,0,0,1,.93.93V44.09a0,0,0,0,1,0,0H11.27a0,0,0,0,1,0,0V31.48a.93.93,0,0,1,.93-.93Z" fill="#87898c" transform="translate(21.72 -1.57) rotate(31.82)"></path><path d="M17.19,31.57,16,30.82a1,1,0,0,0-1.29.3L8.05,41.84l2,1.24Z" fill="#bdbec0"></path><path d="M12.21,30.54H15a.93.93,0,0,1,.93.93V44.09a0,0,0,0,1,0,0H11.27a0,0,0,0,1,0,0V31.48a.93.93,0,0,1,.93-.93Z" fill="none" stroke="#45413c" stroke-linecap="round" stroke-linejoin="round" stroke-width="1.01" transform="translate(21.72 -1.57) rotate(31.82)"></path><path d="M7.360 41.700 L12.960 41.700 L12.960 44.040 L7.360 44.040 Z" fill="#87898c" transform="translate(24.13 1.09) rotate(31.82)"></path><path d="M9.66,43.18l.44-.71A1,1,0,0,1,11,42l-1.76-1.1a.94.94,0,0,0-1.29.31l-.24.39A.93.93,0,0,0,8,42.88l1.57,1A1,1,0,0,1,9.66,43.18Z" fill="#bdbec0"></path><path d="M7.360 41.700 L12.960 41.700 L12.960 44.040 L7.360 44.040 Z" fill="none" stroke="#45413c" stroke-linecap="round" stroke-linejoin="round" stroke-width="1.01" transform="translate(24.13 1.09) rotate(31.82)"></path><path d="M33.93 4.58L22.6 22.83" fill="none" stroke="#45413c" stroke-linecap="round" stroke-linejoin="round" stroke-width="1.01"></path><path d="M29.68 3.45L19.7 19.53" fill="none" stroke="#45413c" stroke-linecap="round" stroke-linejoin="round" stroke-width="1.01"></path><path d="M36.82 7.88L26.84 23.96" fill="none" stroke="#45413c" stroke-linecap="round" stroke-linejoin="round" stroke-width="1.01"></path><path d="M20.97 8.63L36.05 17.99" fill="none" stroke="#45413c" stroke-linecap="round" stroke-linejoin="round" stroke-width="1.01"></path><path d="M24.78 4.95L37.65 12.94" fill="none" stroke="#45413c" stroke-linecap="round" stroke-linejoin="round" stroke-width="1.01"></path><path d="M18.87 14.47L31.74 22.46" fill="none" stroke="#45413c" stroke-linecap="round" stroke-linejoin="round" stroke-width="1.01"></path><path d="M37.55,34a3.74,3.74,0,1,1-4.7-2.42A3.75,3.75,0,0,1,37.55,34Z" fill="#9ceb60"></path><path d="M32.86,33.61A3.73,3.73,0,0,1,37.55,36l0,.1a3.7,3.7,0,0,0,0-2.16,3.74,3.74,0,0,0-7.15,2.18A3.71,3.71,0,0,1,32.86,33.61Z" fill="#c8ffa1"></path><path d="M37.55,34a3.74,3.74,0,1,1-4.7-2.42A3.75,3.75,0,0,1,37.55,34Z" fill="none" stroke="#45413c" stroke-linecap="round" stroke-linejoin="round" stroke-width="1.01"></path><path d="M35.39,31.64a5.81,5.81,0,0,0-.07,3,5.87,5.87,0,0,0,1.81,2.45" fill="none" stroke="#45413c" stroke-linecap="round" stroke-linejoin="round" stroke-width="1.01"></path><path d="M30.84,33.09a5.9,5.9,0,0,1,1.81,2.44,5.91,5.91,0,0,1-.06,3" fill="none" stroke="#45413c" stroke-linecap="round" stroke-linejoin="round" stroke-width="1.01"></path></svg>