<svg viewBox="0 0 48 48" xmlns="http://www.w3.org/2000/svg"><path d="M1.250 45.350 A12.68 1.65 0 1 0 26.610 45.350 A12.68 1.65 0 1 0 1.250 45.350 Z" fill="#45413c" opacity=".15"></path><path d="M19.62,35.39c-1.4-.51-1.21-2.46-.61-3.85s1.74-2.53,2.8-2.34a7.11,7.11,0,0,0,1.73-2.91c1.2-2.8-1.16-6.5-4.8-8.07s-7.95-.74-9.15,2.06a7.1,7.1,0,0,0-.94,3.25c.88.64.89,2.13.23,3.65S7,30.05,5.67,29.38A8.58,8.58,0,0,0,2,33.8C.4,37.43,1,41.2,7.62,44s9.77.71,11.33-2.93A8.59,8.59,0,0,0,19.62,35.39Z" fill="#dea47a"></path><path d="M2.22,36.94a8.58,8.58,0,0,1,3.71-4.42c1.33.67,2.62-.83,3.22-2.2s.63-2.85-.12-3.53a3.12,3.12,0,0,1-.15.39C8.27,28.6,7,30,5.67,29.38A8.58,8.58,0,0,0,2,33.8a6.68,6.68,0,0,0-.34,5.1A9.18,9.18,0,0,1,2.22,36.94Z" fill="#f0c2a1"></path><path d="M9.85,23.42c1.2-2.8,5.52-3.62,9.15-2.06a8.87,8.87,0,0,1,4.68,4.51c.82-2.74-1.48-6.16-4.94-7.65-3.63-1.56-7.95-.74-9.15,2.06a7.1,7.1,0,0,0-.94,3.25,1.72,1.72,0,0,1,.65,1.15C9.48,24.22,9.69,23.79,9.85,23.42Z" fill="#f0c2a1"></path><path d="M19.62,35.39c-1.4-.51-1.21-2.46-.61-3.85s1.74-2.53,2.8-2.34a7.11,7.11,0,0,0,1.73-2.91c1.2-2.8-1.16-6.5-4.8-8.07s-7.95-.74-9.15,2.06a7.1,7.1,0,0,0-.94,3.25c.88.64.89,2.13.23,3.65S7,30.05,5.67,29.38A8.58,8.58,0,0,0,2,33.8C.4,37.43,1,41.2,7.62,44s9.77.71,11.33-2.93A8.59,8.59,0,0,0,19.62,35.39Z" fill="none" stroke="#45413c" stroke-linecap="round" stroke-linejoin="round"></path><path d="M13.28 35.07L10.25 33.76 22.53 6.65 24.55 7.52 13.28 35.07z" fill="#87898c" stroke="#45413c" stroke-linecap="round" stroke-linejoin="round"></path><path d="M20.020 5.390 L26.630 5.390 L26.630 9.800 L20.020 9.800 Z" fill="#f0c2a1" transform="translate(4.91 -8.61) rotate(23.31)"></path><path d="M23.19,6H26a.5.5,0,0,1,.5.5V10a.5.5,0,0,1-.5.5H23.19a0,0,0,0,1,0,0V6a0,0,0,0,1,0,0Z" fill="#dea47a" transform="translate(5.29 -9.16) rotate(23.31)"></path><path d="M20.020 5.390 L26.630 5.390 L26.630 9.800 L20.020 9.800 Z" fill="none" stroke="#45413c" stroke-linecap="round" stroke-linejoin="round" transform="translate(4.91 -8.61) rotate(23.31)"></path><path d="M22.72,3.74h1.2a.5.5,0,0,1,.5.5v7.22a0,0,0,0,1,0,0h-2.2a0,0,0,0,1,0,0V4.24A.5.5,0,0,1,22.72,3.74Z" fill="#dea47a" stroke="#45413c" stroke-linecap="round" stroke-linejoin="round" transform="translate(4.91 -8.61) rotate(23.31)"></path><path d="M8.63 44.47L6.61 43.6 8.07 38.83 11.1 40.13 8.63 44.47z" fill="#87898c" stroke="#45413c" stroke-linecap="round" stroke-linejoin="round"></path><path d="M9.02 34.19H12.33V39.699999999999996H9.02z" fill="#f0c2a1" stroke="#45413c" stroke-linecap="round" stroke-linejoin="round" transform="translate(15.49 -1.21) rotate(23.31)"></path><path d="M46.28,16.33a1.11,1.11,0,0,0-.22-1.55l-1.75-1.33a1.11,1.11,0,0,0-1.55.21l-13,17.12,1.76,1.34L43.19,16.75l1.75,1.33Z" fill="#dea47a"></path><path d="M41.58,17.21l1.33-1.75a1.1,1.1,0,0,1,1.55-.21l.87.66.8.61.15-.19a1.11,1.11,0,0,0-.22-1.55l-.87-.66-.88-.67a1.11,1.11,0,0,0-1.55.21l-1.33,1.76L29.77,30.78l1,.73Z" fill="#f0c2a1"></path><path d="M46.28,16.33a1.11,1.11,0,0,0-.22-1.55l-1.75-1.33a1.11,1.11,0,0,0-1.55.21l-13,17.12,1.76,1.34L43.19,16.75l1.75,1.33Z" fill="none" stroke="#45413c" stroke-linecap="round" stroke-linejoin="round"></path><path d="M29.77,30.78,26.1,35.61a1.1,1.1,0,1,0,1.76,1.33l1.33-1.75.88.67a1.11,1.11,0,0,0,1.55-.22l1.66-2.19Z" fill="#87898c"></path><path d="M29.19,35.19l.11.08.59-.78,1.66-2.2,1.66,1.26.07-.1-3.51-2.67L28.1,33l-.66.88L26.1,35.61a1.1,1.1,0,1,0,1.76,1.33Z" fill="#bdbec0"></path><path d="M29.77,30.78,26.1,35.61a1.1,1.1,0,1,0,1.76,1.33l1.33-1.75.88.67a1.11,1.11,0,0,0,1.55-.22l1.66-2.19Z" fill="none" stroke="#45413c" stroke-linecap="round" stroke-linejoin="round"></path><path d="M44.94 18.08L33.28 33.45" fill="none" stroke="#45413c" stroke-linecap="round" stroke-linejoin="round"></path><path d="M17.47,37.37c-.76-.33-1.55.83-2.06,2S14,41.88,13.07,41.48" fill="none" stroke="#45413c" stroke-linecap="round" stroke-linejoin="round"></path><path d="M5.64,32.33c.76.33.48,1.7,0,2.89S4.8,38,5.72,38.36" fill="none" stroke="#45413c" stroke-linecap="round" stroke-linejoin="round"></path></svg>