<svg xmlns="http://www.w3.org/2000/svg" fill="none" viewBox="0 0 48 48" stroke-width="3" id="Global-Warming-2--Streamline-Plump">
  <desc>
    Global Warming 2 Streamline Icon: https://streamlinehq.com
  </desc>
  <g id="global-warming-2--nature-environment-earth-planet-hot-thermometer-warm">
    <path id="Subtract" fill="#ffffff" d="M26.129 30.13A14.018 14.018 0 0 0 23 25.201c-.003-5.406-.095-9.27-.207-11.987-.087-2.082-.663-4.184-1.84-5.965A13.959 13.959 0 0 1 31 3c7.732 0 14 6.268 14 14s-6.268 14-14 14c-1.713 0-3.354-.308-4.871-.87Z"></path>
    <g id="Subtract_2">
      <path fill="#8fbffa" d="M22.997 23.64c-.019-4.6-.103-7.977-.204-10.425-.087-2.082-.663-4.184-1.84-5.965A13.959 13.959 0 0 1 31 3c.75 0 1.487.06 2.206.173.222 1.94.219 3.711.181 4.818-.027.774-.293 1.53-.84 2.078-1.212 1.215-2.406 1.618-2.875 1.737a2.407 2.407 0 0 1-.419.057c-.82.06-3.778.36-4.202 1.638-.327.984.135 2.96.483 4.184.198.694.266 1.425.058 2.117-.245.814-.675 1.958-1.363 2.932-.306.434-.742.73-1.232.905Z"></path>
      <path fill="#8fbffa" d="M36.216 29.996c4.65-1.868 8.064-6.158 8.683-11.308-3.255-.67-6.543-1.116-8.512-1.353-1.19-.143-2.442.08-3.264.953-.33.35-.609.717-.844 1.083-1.095 1.702-.211 3.79 1.391 5.027l1.445 1.114c.506.39.807.989.843 1.627.04.697.115 1.704.258 2.857Z"></path>
    </g>
    <path id="Union" fill="#ffffff" d="M7.002 26.997A9.985 9.985 0 0 0 3 35c0 5.523 4.477 10 10 10s10-4.477 10-10a9.985 9.985 0 0 0-4.002-8.003L19 25.5c0-5.52-.092-9.419-.204-12.12C18.649 9.843 16.541 7 13 7c-3.541 0-5.65 2.842-5.796 6.38C7.092 16.082 7 19.98 7 25.5c0 .513 0 1.012.002 1.497Z"></path>
    <path id="Ellipse 187" fill="#8fbffa" transform="matrix(-1 0 0 1 16 32)" d="M0 3a3 3 0 1 0 6 0 3 3 0 1 0-6 0"></path>
    <path id="Ellipse 19" stroke="#2859c5" stroke-linecap="round" stroke-linejoin="round" d="M21.5 6.716A13.95 13.95 0 0 1 31 3c7.732 0 14 6.268 14 14s-6.268 14-14 14c-1.39 0-2.733-.203-4-.58"></path>
    <path id="Intersect" stroke="#2859c5" stroke-linecap="round" stroke-linejoin="round" d="M33.206 3.173a33.35 33.35 0 0 1 .18 4.818c-.026.774-.292 1.53-.839 2.078-1.212 1.216-2.407 1.618-2.876 1.737a2.389 2.389 0 0 1-.418.057c-.82.06-3.779.36-4.202 1.638-.327.984.134 2.961.483 4.184.198.694.266 1.425.058 2.117-.245.814-.675 1.958-1.363 2.932a2.314 2.314 0 0 1-.44.468"></path>
    <path id="Intersect_2" stroke="#2859c5" stroke-linecap="round" stroke-linejoin="round" d="M44.9 18.688c-3.256-.67-6.544-1.116-8.513-1.353-1.19-.143-2.442.08-3.264.952a7.47 7.47 0 0 0-.844 1.084c-1.095 1.702-.211 3.79 1.392 5.026l1.444 1.114c.507.39.807.99.843 1.628.04.697.115 1.704.258 2.857"></path>
    <path id="Union_2" stroke="#2859c5" stroke-linecap="round" stroke-linejoin="round" d="M7.002 26.997A9.985 9.985 0 0 0 3 35c0 5.523 4.477 10 10 10s10-4.477 10-10a9.985 9.985 0 0 0-4.002-8.003L19 25.5c0-5.52-.092-9.419-.204-12.12C18.649 9.843 16.541 7 13 7c-3.541 0-5.65 2.842-5.796 6.38C7.092 16.082 7 19.98 7 25.5c0 .513 0 1.012.002 1.497Z"></path>
    <path id="Ellipse 185" stroke="#2859c5" stroke-linecap="round" stroke-linejoin="round" d="M16 35a3 3 0 1 1-6 0 3 3 0 1 1 6 0"></path>
    <path id="Vector 1184" stroke="#2859c5" stroke-linecap="round" stroke-linejoin="round" d="m13 14 0 18"></path>
  </g>
</svg>