<svg xmlns="http://www.w3.org/2000/svg" fill="none" viewBox="0 0 48 48" id="Log--Streamline-Plump">
  <desc>
    Log Streamline Icon: https://streamlinehq.com
  </desc>
  <g id="log--nature-tree-plant-circle-round-log">
    <path id="Vector" fill="#8fbffa" d="M10 41c3.866 0 7 -5.8203 7 -13s-3.134 -13 -7 -13l9 -0.5 -1.765 -6.001c-0.401 -1.36324 0.417 -2.79529 1.831 -2.93541 0.3905 -0.03869 0.7935 -0.06359 1.184 -0.06359 0.5621 0 1.15 0.05158 1.6891 0.12161 1.3299 0.17276 2.4439 1.02952 3.1239 2.18551L29 14.5l9 0.5c3.866 0 7 5.8203 7 13s-3.134 13 -7 13c0 0 -5 0.5 -14 0.5S10 41 10 41Z" stroke-width="1"></path>
    <path id="Ellipse 1202" fill="#ffffff" d="M17 28c0 7.1797 -3.134 13 -7 13 -3.86599 0 -7 -5.8203 -7 -13s3.13401 -13 7 -13c3.866 0 7 5.8203 7 13Z" stroke-width="1"></path>
    <path id="Vector 2385" stroke="#2859c5" stroke-linecap="round" stroke-linejoin="round" d="M44 22H30" stroke-width="1"></path>
    <path id="Vector 2386" stroke="#2859c5" stroke-linecap="round" stroke-linejoin="round" d="M25 35h-9" stroke-width="1"></path>
    <path id="Vector 2387" stroke="#2859c5" stroke-linecap="round" stroke-linejoin="round" d="M44.5 31H39" stroke-width="1"></path>
    <path id="Ellipse 1203" stroke="#2859c5" stroke-linecap="round" stroke-linejoin="round" d="m10 15 9 -0.5 -1.765 -6.001c-0.401 -1.36324 0.417 -2.79529 1.831 -2.93541 0.3905 -0.03869 0.7935 -0.06359 1.184 -0.06359 0.5621 0 1.15 0.05158 1.6891 0.12161 1.3299 0.17276 2.4439 1.02952 3.1239 2.18551L29 14.5l9 0.5c3.866 0 7 5.8203 7 13s-3.134 13 -7 13c0 0 -5 0.5 -14 0.5S10 41 10 41" stroke-width="1"></path>
    <path id="Ellipse 1204" stroke="#2859c5" stroke-linecap="round" stroke-linejoin="round" d="M17 28c0 7.1797 -3.134 13 -7 13 -3.86599 0 -7 -5.8203 -7 -13s3.13401 -13 7 -13c3.866 0 7 5.8203 7 13Z" stroke-width="1"></path>
  </g>
</svg>