<svg xmlns="http://www.w3.org/2000/svg" fill="none" viewBox="0 0 24 24" id="Blueprint-Helmet-1--Streamline-Ultimate">
  <desc>
    Blueprint Helmet 1 Streamline Icon: https://streamlinehq.com
  </desc>
  <path stroke="#000000" stroke-linecap="round" stroke-linejoin="round" stroke-miterlimit="10" d="M19.6001 2.60005v-0.8c0 -0.6 0.4 -1.000001 1 -1.000001h0.8c1 0 1.8 0.800001 1.8 1.800001V15.6001m-3.6 -13.00005V12.8c0 0.6 0.4 1 1 1h0.8c1 0 1.8 0.8001 1.8 1.8001m-3.6 -13.00005H9.20007c-0.6 0 -1 0.4 -1 1v4.08797M23.2001 15.6001c0 1 -0.8 1.7999 -1.8 1.7999h-2.4195" stroke-width="1.5"></path>
  <path stroke="#000000" stroke-linecap="round" stroke-linejoin="round" stroke-miterlimit="10" d="M10.7999 12.9c2.9 0.7 5 3.3 5 6.3v1m-7.99997 0v-8c0 -0.6 0.4 -1 1 -1h1c0.59997 0 0.99997 0.4 0.99997 1v8m-2.99997 -7.3c-2.9 0.7 -5 3.3 -5 6.3v1m14.99997 2c0 0.6 -0.4 1 -1 1H1.79993c-0.6 0 -1.000003 -0.4 -1.000003 -1v-1c0 -0.6 0.400003 -1 1.000003 -1H16.7999c0.6 0 1 0.4 1 1v1Z" stroke-width="1.5"></path>
</svg>