<svg xmlns="http://www.w3.org/2000/svg" fill="none" viewBox="0 0 24 24" id="Monetization-Tablet--Streamline-Ultimate">
  <desc>
    Monetization Tablet Streamline Icon: https://streamlinehq.com
  </desc>
  <path stroke="#000000" stroke-linecap="round" stroke-linejoin="round" d="m22.125 23.25 -3 -4.5V13.5c0 -2 -3.8 -4.14 -5.25 -5.25" stroke-width="1.5"></path>
  <path stroke="#000000" stroke-linecap="round" stroke-linejoin="round" d="m15.8049 14.793 -3.648 -2.923c-0.2443 -0.2444 -0.5758 -0.3817 -0.9215 -0.3817 -0.3456 0 -0.6771 0.1373 -0.9215 0.3817 -0.2443 0.2444 -0.38165 0.5759 -0.38165 0.9215 0 0.1711 0.03371 0.3406 0.09925 0.4987 0.0654 0.1581 0.1614 0.3018 0.2824 0.4228l3.534 3.987v2.5c0 1.181 1.687 3.045 1.687 3.045" stroke-width="1.5"></path>
  <path stroke="#000000" stroke-linecap="round" stroke-linejoin="round" d="M13.836 17.978c-0.1088 0.6357 -0.4389 1.2124 -0.9319 1.6282 -0.493 0.4158 -1.1172 0.6438 -1.7621 0.6438H4.608c-0.72484 0 -1.41999 -0.2879 -1.93252 -0.8005 -0.51254 -0.5125 -0.80048 -1.2077 -0.80048 -1.9325V3.482c0 -0.35886 0.0707 -0.7142 0.20806 -1.04572 0.13736 -0.33153 0.33868 -0.63275 0.59248 -0.88645 0.25379 -0.2537 0.55508 -0.45492 0.88666 -0.592156C3.89378 0.820437 4.24914 0.749869 4.608 0.75h6.267c0.7956 0 1.5587 0.31607 2.1213 0.87868 0.5626 0.56261 0.8787 1.32567 0.8787 2.12132v9.5" stroke-width="1.5"></path>
  <path stroke="#000000" stroke-linecap="round" stroke-linejoin="round" d="M1.875 15.75h6" stroke-width="1.5"></path>
  <path stroke="#000000" stroke-linecap="round" stroke-linejoin="round" d="M6.01699 9.34402c0.21639 0.28464 0.49831 0.51282 0.82179 0.66518 0.32347 0.1523 0.67895 0.2243 1.03621 0.2098 1.139 0 2.063 -0.69298 2.063 -1.54698s-0.924 -1.547 -2.063 -1.547c-1.139 0 -2.062 -0.693 -2.062 -1.548 0 -0.855 0.923 -1.547 2.062 -1.547 0.35722 -0.01423 0.71261 0.05787 1.03605 0.21019 0.32343 0.15232 0.60538 0.38037 0.82195 0.66481" stroke-width="1.5"></path>
  <path stroke="#000000" stroke-linecap="round" stroke-linejoin="round" d="M7.875 10.219v1.031" stroke-width="1.5"></path>
  <path stroke="#000000" stroke-linecap="round" stroke-linejoin="round" d="M7.875 3v1.03" stroke-width="1.5"></path>
</svg>