<svg xmlns="http://www.w3.org/2000/svg" fill="none" viewBox="0 0 24 24" id="Optimization-Graph--Streamline-Ultimate">
  <desc>
    Optimization Graph Streamline Icon: https://streamlinehq.com
  </desc>
  <path stroke="#000000" stroke-linecap="round" stroke-linejoin="round" d="M10.55 2.43999c0.1868 0.19668 0.4117 0.35329 0.661 0.4603 0.2492 0.10702 0.5177 0.16221 0.789 0.16221 0.2712 0 0.5397 -0.05519 0.789 -0.16221 0.2492 -0.10701 0.4741 -0.26362 0.661 -0.4603l0.94 -1c0.2772 -0.2758 0.6292 -0.46428 1.0124 -0.542124 0.3832 -0.077844 0.7809 -0.041635 1.1437 0.104144 0.3629 0.14579 0.6751 0.39475 0.8979 0.71609 0.2229 0.32134 0.3466 0.70096 0.356 1.09189l-0.07 1.4c-0.0123 0.27418 0.0319 0.54796 0.13 0.8043 0.098 0.25633 0.2478 0.48975 0.44 0.6857 0.1959 0.19216 0.4293 0.34194 0.6857 0.44 0.2563 0.09806 0.5301 0.14231 0.8043 0.13l1.4 -0.07c0.3943 0.00166 0.7794 0.11985 1.1067 0.33973 0.3274 0.21987 0.5824 0.53161 0.7331 0.89603 0.1507 0.36442 0.1903 0.76525 0.1138 1.15211 -0.0765 0.38685 -0.2656 0.74247 -0.5436 1.02213l-1 0.94001c-0.1967 0.1868 -0.3533 0.4117 -0.4603 0.661 -0.1071 0.2493 -0.1622 0.5177 -0.1622 0.789s0.0551 0.5397 0.1622 0.789c0.107 0.2493 0.2636 0.4742 0.4603 0.661l1 0.94c0.278 0.2797 0.4671 0.6353 0.5436 1.0221 0.0765 0.3869 0.0369 0.7877 -0.1138 1.1521 -0.1507 0.3645 -0.4057 0.6762 -0.7331 0.8961 -0.3273 0.2198 -0.7124 0.338 -1.1067 0.3397l-1.4 -0.07c-0.2728 -0.0083 -0.5444 0.0393 -0.7981 0.1399 -0.2537 0.1005 -0.4841 0.252 -0.6771 0.445 -0.1929 0.1929 -0.3444 0.4233 -0.445 0.677 -0.1006 0.2537 -0.1482 0.5253 -0.1398 0.7981l0.07 1.4c-0.0017 0.3943 -0.1199 0.7794 -0.3398 1.1067 -0.2198 0.3274 -0.5316 0.5824 -0.896 0.7331 -0.3644 0.1507 -0.7652 0.1903 -1.1521 0.1138 -0.3869 -0.0765 -0.7425 -0.2656 -1.0221 -0.5436l-0.94 -1c-0.1869 -0.1967 -0.4118 -0.3533 -0.661 -0.4603 -0.2493 -0.107 -0.5178 -0.1622 -0.789 -0.1622 -0.2713 0 -0.5398 0.0552 -0.789 0.1622 -0.2493 0.107 -0.4742 0.2636 -0.661 0.4603l-0.94004 1c-0.27966 0.278 -0.63528 0.4671 -1.02213 0.5436 -0.38686 0.0765 -0.78769 0.0369 -1.15211 -0.1138 -0.36442 -0.1507 -0.67616 -0.4057 -0.89603 -0.7331 -0.21988 -0.3273 -0.33807 -0.7124 -0.33973 -1.1067l0.07 -1.4c0.01231 -0.2742 -0.03194 -0.548 -0.13 -0.8043 -0.09807 -0.2563 -0.24784 -0.4897 -0.44 -0.6857 -0.19596 -0.1922 -0.42937 -0.3419 -0.6857 -0.44 -0.25634 -0.0981 -0.53012 -0.1423 -0.8043 -0.13l-1.4 0.07c-0.39434 -0.0017 -0.77939 -0.1199 -1.10674 -0.3397 -0.32736 -0.2199 -0.58241 -0.5316 -0.733091 -0.8961 -0.150684 -0.3644 -0.190274 -0.7652 -0.113795 -1.1521 0.076479 -0.3868 0.265616 -0.7424 0.543626 -1.0221l1 -0.94c0.19668 -0.1868 0.35329 -0.4117 0.4603 -0.661 0.10702 -0.2493 0.16221 -0.5177 0.16221 -0.789s-0.05519 -0.5397 -0.16221 -0.789c-0.10701 -0.2493 -0.26362 -0.4742 -0.4603 -0.661l-1 -0.94001c-0.27801 -0.27966 -0.467147 -0.63528 -0.543626 -1.02213C0.779855 8.201 0.819445 7.80017 0.970129 7.43575c0.150681 -0.36442 0.405731 -0.67616 0.733091 -0.89603 0.32735 -0.21988 0.7124 -0.33807 1.10674 -0.33973l1.4 0.07c0.27418 0.01231 0.54796 -0.03194 0.8043 -0.13 0.25633 -0.09806 0.48974 -0.24784 0.6857 -0.44 0.19216 -0.19595 0.34193 -0.42937 0.44 -0.6857 0.09806 -0.25634 0.14231 -0.53012 0.13 -0.8043l-0.07 -1.4c0.00166 -0.39434 0.11985 -0.77939 0.33973 -1.10674 0.21987 -0.32736 0.53161 -0.58241 0.89603 -0.733091 0.36442 -0.150683 0.76525 -0.190274 1.15211 -0.113795 0.38685 0.076479 0.74247 0.265616 1.02213 0.543626l0.94004 1.04Z" stroke-width="1.5"></path>
  <path stroke="#000000" stroke-linecap="round" stroke-linejoin="round" d="M6.75 15.25H18" stroke-width="1.5"></path>
  <path stroke="#000000" stroke-linecap="round" stroke-linejoin="round" d="M8 7.75h4v7.5H8v-7.5Z" stroke-width="1.5"></path>
  <path stroke="#000000" stroke-linecap="round" stroke-linejoin="round" d="M12 10.5h4v4.75h-4V10.5Z" stroke-width="1.5"></path>
</svg>