<svg xmlns="http://www.w3.org/2000/svg" fill="none" viewBox="0 0 14 14" id="Fragile--Streamline-Flex">
  <desc>
    Fragile Streamline Icon: https://streamlinehq.com
  </desc>
  <g id="fragile--fragile-shipping-glass-delivery-wine-crack-shipment-sign-sticker">
    <path id="Vector" fill="#fddc5c" d="M1.625 5.13554c0 -0.50743 0.07167 -2.31164 0.20306 -3.50693C1.89724 1.03833 2.38172 0.621683 2.96094 0.625l8.01656 0.000021c0.5792 -0.003317 1.1253 0.413309 1.1944 1.003589 0.1314 1.25167 0.2031 2.9995 0.2031 3.50693 0 2.95439 -2.38889 4.51051 -5.375 4.51051S1.625 8.08993 1.625 5.13554Z" stroke-width="1"></path>
    <path id="Union" fill="#0c098c" fill-rule="evenodd" d="M2.96094 0c-0.02737 0 -0.05433 0.00175929 -0.08077 0.00517112C2.07865 0.066055 1.31226 0.660395 1.20731 1.55585l-0.00002 0 -0.00049 0.00447C1.07264 2.78075 1 4.60792 1 5.13554c0 1.66534 0.68251 2.97627 1.80789 3.85563 0.96142 0.75125 2.2117 1.16263 3.56711 1.25813v2.1768c-0.66923 0.0442 -1.34316 0.1593 -2.03685 0.3453 -0.33341 0.0893 -0.53122 0.4321 -0.44183 0.7655 0.08939 0.3334 0.43213 0.5312 0.76553 0.4418 1.60739 -0.4309 3.06757 -0.4309 4.67496 0 0.3334 0.0894 0.67619 -0.1084 0.76549 -0.4418 0.0894 -0.3334 -0.10838 -0.6762 -0.44179 -0.7655 -0.69323 -0.1859 -1.36672 -0.301 -2.03551 -0.3452v-2.1769c1.35541 -0.0955 2.6057 -0.50688 3.5671 -1.25813C12.3175 8.11181 13 6.80088 13 5.13554c0 -0.52918 -0.0728 -2.29878 -0.2065 -3.57218l0.0001 0 -0.0009 -0.00751c-0.1113 -0.9497 -0.9666 -1.56069937 -1.8188 -1.5558190056l-0.0017 0.0000118613L10.9648 0H2.96094Zm0.05798 1.25001L3.02776 1.25h2.82109l-0.87207 1.327c-0.20739 0.31557 -0.14781 0.73613 0.13907 0.98168l1.39263 1.192 -0.61831 1.05846c-0.20893 0.35766 -0.08836 0.81698 0.2693 1.02591 0.35766 0.20893 0.81698 0.08836 1.02591 -0.2693l0.93423 -1.59928c0.18291 -0.31313 0.11559 -0.71227 -0.15991 -0.94808L6.59314 2.8487l1.03852 -1.58027c0.00401 -0.00611 0.00792 -0.01225 0.01174 -0.01843h3.3214l0.0053 -0.00002 0.011 0.00003c0.305 -0.00175 0.541 0.21864 0.5697 0.44845 0.1288 1.22964 0.1992 2.95199 0.1992 3.43708 0 1.28905 -0.5119 2.23337 -1.3275 2.87067C9.58913 8.65738 8.39263 9.02105 7 9.02105s-2.58913 -0.36367 -3.42247 -1.01484C2.76193 7.36891 2.25 6.42459 2.25 5.13554c0 -0.48687 0.07058 -2.26572 0.19901 -3.4359 0.02804 -0.23024 0.26439 -0.45138 0.56991 -0.44963Z" clip-rule="evenodd" stroke-width="1"></path>
  </g>
</svg>