<svg xmlns="http://www.w3.org/2000/svg" fill="none" viewBox="-0.5 -0.5 24 24" id="Alien--Streamline-Sharp-Neon">
  <desc>
    Alien Streamline Icon: https://streamlinehq.com
  </desc>
  <g id="alien--science-extraterristerial-life-form-space-universe-head-astronomy">
    <path id="Rectangle 2008" stroke="#c71dff" d="M2.875 9.583333333333334c0 8.625 8.625 12.372083333333334 8.625 12.372083333333334S20.125 18.208333333333336 20.125 9.583333333333334c0 -4.7634533333333335 -3.8615083333333335 -8.625 -8.625 -8.625 -4.7634533333333335 0 -8.625 3.861546666666667 -8.625 8.625Z" stroke-width="1"></path>
    <path id="Union" stroke="#000cfe" d="M16.544954166666667 9.8092125C16.2242 9.664120833333335 15.868083333333335 9.583333333333334 15.4930875 9.583333333333334 14.081654166666667 9.583333333333334 12.9375 10.7274875 12.9375 12.138920833333334c0 0.3749958333333333 0.0807875 0.7311125 0.22587916666666666 1.0518666666666667 0.3207541666666667 0.14509166666666667 0.6768708333333334 0.22587916666666666 1.0518666666666667 0.22587916666666666 1.4114333333333335 0 2.5555875 -1.1441541666666666 2.5555875 -2.5555875 0 -0.3749958333333333 -0.0807875 -0.7311125 -0.22587916666666666 -1.0518666666666667Z" stroke-width="1"></path>
    <path id="Union_2" stroke="#000cfe" d="M6.455017083333334 9.8092125C6.7758287500000005 9.664120833333335 7.1319550000000005 9.583333333333334 7.506941250000001 9.583333333333334 8.91833625 9.583333333333334 10.0625 10.7274875 10.0625 12.138920833333334c0 0.3749958333333333 -0.0807875 0.7311125 -0.22587916666666666 1.0518666666666667 -0.3207829166666667 0.14509166666666667 -0.6769091666666667 0.22587916666666666 -1.0518954166666667 0.22587916666666666C7.373330416666667 13.416666666666668 6.229166666666667 12.272512500000001 6.229166666666667 10.861079166666666c0 -0.3749958333333333 0.08076833333333333 -0.7311125 0.22585041666666666 -1.0518666666666667Z" stroke-width="1"></path>
  </g>
</svg>