<svg xmlns="http://www.w3.org/2000/svg" fill="none" viewBox="0 0 14 14" id="Cake-Slice--Streamline-Flex-Neon">
  <desc>
    Cake Slice Streamline Icon: https://streamlinehq.com
  </desc>
  <g id="cake-slice--cherry-cake-birthday-event-special-sweet-bake">
    <path id="Intersect" stroke="#000cfe" stroke-linecap="round" stroke-linejoin="round" d="M12.9993 8.7046c-0.1033 0.04783 -0.2129 0.08488 -0.3279 0.10959 -1.924 0.41317 -4.65326 0.41317 -5.67137 0.41317 -1.01812 0 -3.74737 0 -5.67136 -0.41317 -0.11506 -0.02471 -0.22463 -0.06176 -0.32794 -0.1096" stroke-width="1"></path>
    <path id="Subtract" stroke="#c71dff" stroke-linecap="round" stroke-linejoin="round" d="M12.9993 8.70462C13 8.86021 13 9.03281 13 9.22736c0 1.30694 0 1.62314 -0.2179 2.45074 -0.166 0.631 -0.6391 1.1432 -1.2778 1.267C9.93019 13.25 7.80962 13.25 7 13.25c-0.80962 0 -2.93019 0 -4.50432 -0.3049 -0.63869 -0.1238 -1.11173 -0.636 -1.27783 -1.267C1 10.8505 1 10.5343 1 9.22736l0.00076 -0.52277c0.00411 -0.88968 0.03168 -1.22365 0.21711 -1.92808 0.16609 -0.631 0.63913 -1.14321 1.27782 -1.26695 1.57413 -0.30497 3.69471 -0.30497 4.50432 -0.30497 0.80962 0 2.9302 0 4.50429 0.30497 0.6387 0.12374 1.1118 0.63595 1.2779 1.26695 0.1854 0.70443 0.213 1.03843 0.2171 1.92811Z" stroke-width="1"></path>
    <path id="Vector 233" stroke="#000cfe" stroke-linecap="round" stroke-linejoin="round" d="m5.64075 0.75 -0.52 1.16893" stroke-width="1"></path>
    <path id="Vector" stroke="#000cfe" stroke-linecap="round" stroke-linejoin="round" d="M5.12662 5.20465c1.05174 0 1.64334 -0.59143 1.64334 -1.64285 0 -1.05143 -0.5916 -1.64285 -1.64334 -1.64285 -1.05174 0 -1.64334 0.59142 -1.64334 1.64285 0 1.05142 0.5916 1.64285 1.64334 1.64285Z" stroke-width="1"></path>
  </g>
</svg>