<svg xmlns="http://www.w3.org/2000/svg" fill="none" viewBox="0 0 14 14" id="Salad-Vegetable-Diet--Streamline-Flex-Neon">
  <desc>
    Salad Vegetable Diet Streamline Icon: https://streamlinehq.com
  </desc>
  <g id="salad-vegetable-diet">
    <path id="Subtract" stroke="#000cfe" stroke-linecap="round" stroke-linejoin="round" d="M9.20041 8.21048c-0.7337 -0.01685 -1.46705 -0.02529 -2.20039 -0.02529 -1.7527 0 -3.5054 0.04796 -5.26295 0.14388 -0.01701 0.00093 -0.03391 0.00228 -0.05067 0.00405 -0.40447 -1.14684 -0.23753 -2.1054 0.46723 -2.77577 -0.17904 -0.24233 -0.34023 -0.52668 -0.48159 -0.85215 -0.73623 -1.69517 -0.28999 -3.02238 1.23956 -3.68668C4.44115 0.354222 5.71565 0.934088 6.45188 2.62926c0.14136 0.32547 0.23913 0.63738 0.294 0.93364 0.87269 -0.0516 1.61893 0.37319 2.16909 1.2427 -1.07598 0.28325 -1.66668 1.13135 -1.66668 2.43889 0 0.34678 0.04155 0.66123 0.12268 0.94141 0.6097 0.00237 1.21944 0.01058 1.82944 0.02458Zm0 0c0 0.00001 0 0 0 0Z" stroke-width="1"></path>
    <path id="Vector 2131" stroke="#000cfe" stroke-linecap="round" stroke-linejoin="round" d="M4.33801 4.82227c0.97262 1.13911 1.3188 2.28633 1.45918 3.36656" stroke-width="1"></path>
    <path id="Subtract_2" stroke="#000cfe" stroke-linecap="round" stroke-linejoin="round" d="M7.37097 8.1859c1.59782 0.0062 3.19593 0.05244 4.79803 0.1384 0.1102 -0.31375 0.1669 -0.67473 0.1669 -1.07981 0 -1.62804 -0.9158 -2.54381 -2.5438 -2.54381 -1.62804 0 -2.54381 0.91577 -2.54381 2.54381 0 0.34678 0.04155 0.66123 0.12268 0.94141Z" stroke-width="1"></path>
    <path id="Vector_2" stroke="#c71dff" stroke-linecap="round" stroke-linejoin="round" d="M7 13.2536c-5.07732 0 -5.98442 -1.2889 -6.245233 -3.87487 -0.054986 -0.54519 0.372633 -1.01628 0.925603 -1.04614C3.45685 8.23668 5.22842 8.18872 7 8.18872c1.77158 0 3.5432 0.04821 5.3196 0.14421 0.553 0.02988 0.9806 0.50097 0.9256 1.04616C12.9844 11.965 12.0773 13.2536 7 13.2536Z" stroke-width="1"></path>
  </g>
</svg>