<svg xmlns="http://www.w3.org/2000/svg" fill="none" viewBox="0 0 14 14" id="Tea-Cup--Streamline-Flex-Neon">
  <desc>
    Tea Cup Streamline Icon: https://streamlinehq.com
  </desc>
  <g id="tea-cup--herbal-cook-tea-tisane-cup-drink-cooking-nutrition-mug-food">
    <path id="Vector" stroke="#000cfe" stroke-linecap="round" stroke-linejoin="round" d="M0.5 13.5c4.34575 -0.296 8.65425 -0.296 13 0" stroke-width="1"></path>
    <path id="Intersect" stroke="#c71dff" stroke-linecap="round" stroke-linejoin="round" d="M1.8319 8.321c0.07397 1.44693 1.31175 2.6568 2.74092 2.8946 1.00272 0.1669 1.92054 0.1483 2.92348 -0.0146 1.43009 -0.2323 2.6696 -1.43307 2.7435 -2.88 0.0094 -0.18295 0.0147 -0.37663 0.0147 -0.58569 0 -1.24157 0.0208 -2.28683 -0.0795 -3.41756 -2.16759 -0.20049 -5.11051 -0.22241 -7.44759 -0.06576 -0.48186 0.0323 -0.86388 0.41523 -0.88521 0.89771 -0.03673 0.83073 -0.02498 1.65276 -0.02498 2.58561 0 0.20906 0.00533 0.40274 0.01468 0.58569Z" stroke-width="1"></path>
    <path id="Vector_2" stroke="#c71dff" stroke-linecap="round" stroke-linejoin="round" d="M10.2367 8.57494c0.1114 -0.0032 0.2244 -0.00788 0.3382 -0.01369 1.1431 -0.05836 2.1751 -0.96631 2.1751 -2.11083 0 -1.14451 -1.0323 -2.04767 -2.1751 -2.11156 -0.137 -0.00765 -0.2709 -0.01377 -0.3998 -0.01773l-0.0003 -0.00326" stroke-width="1"></path>
    <path id="Vector_3" stroke="#000cfe" stroke-linecap="round" stroke-linejoin="round" d="M3.40576 2.3125c-0.30157 -0.6075 -0.30157 -1.205 0 -1.8125" stroke-width="1"></path>
    <path id="Vector_4" stroke="#000cfe" stroke-linecap="round" stroke-linejoin="round" d="M5.94067 2.3125c-0.30157 -0.6075 -0.30157 -1.205 0 -1.8125" stroke-width="1"></path>
    <path id="Vector_5" stroke="#000cfe" stroke-linecap="round" stroke-linejoin="round" d="M8.47583 2.3125c-0.30158 -0.6075 -0.30158 -1.205 0 -1.8125" stroke-width="1"></path>
  </g>
</svg>