<svg xmlns="http://www.w3.org/2000/svg" fill="none" viewBox="0 0 14 14" id="Toaster--Streamline-Flex-Neon">
  <desc>
    Toaster Streamline Icon: https://streamlinehq.com
  </desc>
  <g id="toaster--bread-toast-cook-cooking-appliances-kitchenware">
    <path id="Subtract" stroke="#000cfe" stroke-linejoin="round" d="M8.61045 5.63046c0.01383 -0.62847 0.00778 -1.2565 -0.02676 -1.7418 1.63271 -0.43349 1.25457 -2.45014 -0.21589 -2.8389 -1.51176 -0.39968 -2.94031 -0.39968 -4.45207 0 -1.47045 0.38876 -1.84858 2.40541 -0.21589 2.8389 -0.03452 0.48506 -0.04058 1.11272 -0.02678 1.74088 0.8043 -0.06066 1.6265 -0.10821 2.4626 -0.10821 0.84032 0 1.66661 0.04803 2.47479 0.10913Z" stroke-width="1"></path>
    <path id="Vector 123" stroke="#000cfe" stroke-linecap="round" stroke-linejoin="round" d="m11.5229 7.38379 1.7271 0" stroke-width="1"></path>
    <path id="Subtract_2" stroke="#000cfe" stroke-linecap="round" stroke-linejoin="round" d="M11.4987 10.0327c-0.2455 0.125 -0.5178 0.2025 -0.8033 0.2209l-0.311 0.0201c-1.44254 0.0937 -2.93637 0.1907 -4.46651 0.1907 -1.53015 0 -3.02397 -0.097 -4.46653 -0.1907l-0.31101 -0.0201c-0.12119 -0.0078 -0.240019 -0.0263 -0.355438 -0.0545" stroke-width="1"></path>
    <path id="Subtract_3" stroke="#c71dff" stroke-linecap="round" stroke-linejoin="round" d="M0.75 9.38584c0 -0.66064 0.076282 -1.30914 0.169115 -1.94165 0.137845 -0.93918 0.925275 -1.66519 1.871265 -1.74374 1.0822 -0.08987 2.20072 -0.17897 3.34528 -0.17897 1.14456 0 2.26308 0.0891 3.34528 0.17897 0.94596 0.07855 1.73346 0.80456 1.87126 1.74374 0.0928 0.63251 0.1691 1.28101 0.1691 1.94165 0 0.21702 -0.0082 0.43273 -0.0226 0.64696 -0.0293 0.438 -0.0842 0.8698 -0.1465 1.2946 -0.1379 0.9391 -0.9253 1.6651 -1.87128 1.7437 -1.08221 0.0899 -2.20072 0.179 -3.34528 0.179 -1.14456 0 -2.26308 -0.0891 -3.34528 -0.179 -0.94599 -0.0786 -1.73343 -0.8046 -1.871267 -1.7437 -0.054429 -0.3709 -0.10314 -0.7471 -0.134151 -1.1282L0.75 9.38584Z" stroke-width="1"></path>
  </g>
</svg>