<svg xmlns="http://www.w3.org/2000/svg" fill="none" viewBox="0 0 48 48" id="Browser-Website-1--Streamline-Plump-Neon">
  <desc>
    Browser Website 1 Streamline Icon: https://streamlinehq.com
  </desc>
  <g id="browser-website-1--app-code-apps-window-website-web">
    <path id="Vector" stroke="#c71dff" stroke-linecap="round" stroke-linejoin="round" d="M3.53896 39.7428c0.20762 2.5553 2.16291 4.5106 4.71821 4.7182C11.4854 44.7233 16.636 45 24 45c7.364 0 12.5146 -0.2767 15.7428 -0.539 2.5553 -0.2076 4.5106 -2.1629 4.7182 -4.7182C44.7233 36.5146 45 31.364 45 24c0 -7.364 -0.2767 -12.5146 -0.539 -15.74283 -0.2076 -2.55529 -2.1629 -4.51059 -4.7182 -4.7182C36.5146 3.27668 31.364 3 24 3c-7.364 0 -12.5146 0.27667 -15.74282 0.53896 -2.5553 0.20761 -4.5106 2.16291 -4.71821 4.71821C3.27668 11.4854 3 16.636 3 24c0 7.364 0.27667 12.5146 0.53896 15.7428Z" stroke-width="3"></path>
    <path id="Vector_2" stroke="#000cfe" stroke-linecap="round" stroke-linejoin="round" d="M23.9996 3c7.3639 0 12.5145 0.27668 15.7428 0.53897 2.5553 0.20761 4.5106 2.16291 4.7182 4.7182 0.1126 1.38573 0.2278 3.12563 0.3227 5.24283l-41.56748 0c0.09487 -2.1172 0.21011 -3.8571 0.3227 -5.24283 0.20761 -2.5553 2.16291 -4.5106 4.71821 -4.71821C11.485 3.27667 16.6356 3 23.9996 3Z" stroke-width="3"></path>
    <path id="Vector_3" stroke="#000cfe" stroke-linecap="round" stroke-linejoin="round" d="M10 8.5h2" stroke-width="3"></path>
    <path id="Vector_4" stroke="#000cfe" stroke-linecap="round" stroke-linejoin="round" d="M18 8.5h2" stroke-width="3"></path>
  </g>
</svg>