<svg xmlns="http://www.w3.org/2000/svg" fill="none" viewBox="0 0 48 48" id="Cloud-Off--Streamline-Plump-Neon">
  <desc>
    Cloud Off Streamline Icon: https://streamlinehq.com
  </desc>
  <g id="cloud-off--cloud-network-internet-disable-server-off">
    <path id="Vector" stroke="#c71dff" stroke-linecap="round" stroke-linejoin="round" d="M12.0527 12.0529c2.2114 -3.69325 6.0977 -6.01438 11.1102 -6.04996C23.4363 6.001 23.7152 6 23.9998 6c0.2846 0 0.5635 0.001 0.8368 0.00294 7.6318 0.05417 12.6529 5.40656 13.1265 12.83336 4.8286 1.5403 8.0367 5.6296 8.0367 11.1637 0 4.6254 -2.2411 8.2415 -5.7963 10.2037" stroke-width="1"></path>
    <path id="Vector_2" stroke="#c71dff" stroke-linecap="round" stroke-linejoin="round" d="M34.1297 41.8209c-2.7118 0.1076 -6.0481 0.1788 -10.1297 0.1788s-7.4179 -0.0712 -10.1297 -0.1788C6.98046 41.5474 2 36.895 2 29.9997c0 -5.5341 3.20813 -9.6234 8.0367 -11.1637 0.0219 -0.3424 0.0534 -0.6804 0.0943 -1.0137" stroke-width="1"></path>
    <path id="Vector_3" stroke="#000cfe" stroke-linecap="round" stroke-linejoin="round" d="m2 2 44 44" stroke-width="1"></path>
  </g>
</svg>