<svg xmlns="http://www.w3.org/2000/svg" fill="none" viewBox="0 0 48 48" id="Html-Five--Streamline-Plump-Neon">
  <desc>
    Html Five Streamline Icon: https://streamlinehq.com
  </desc>
  <g id="html-five--language-five-code-programming-html">
    <path id="Vector" stroke="#c71dff" stroke-linecap="round" stroke-linejoin="round" d="M22.3067 44.3936c-2.9827 -1.1724 -9.33 -4.1366 -14.31745 -9.6799 -0.53267 -0.5921 -0.90696 -1.2975 -1.11588 -2.0661 -0.9227 -3.3942 -3.50507 -13.8844 -3.83809 -26.0726 -0.04045 -1.48016 1.04234 -2.72612 2.51641 -2.8662C8.65832 3.41359 14.6747 3 23.9997 3c9.3251 0 15.3415 0.41359 18.4481 0.7088 1.4741 0.14008 2.5569 1.38604 2.5164 2.8662 -0.333 12.1882 -2.9154 22.6784 -3.8381 26.0726 -0.2089 0.7686 -0.5832 1.474 -1.1159 2.0661 -4.9874 5.5433 -11.3347 8.5075 -14.3174 9.6799 -1.0928 0.4295 -2.2933 0.4295 -3.3861 0Z" stroke-width="3"></path>
    <path id="Vector_2" stroke="#000cfe" stroke-linecap="round" stroke-linejoin="round" d="M15.0001 32c2.853 2.853 6.2147 4.6885 7.9081 5.5066 0.6936 0.3351 1.4903 0.3351 2.1839 0 1.6933 -0.8181 5.0551 -2.6536 7.908 -5.5066 0 0 1.1536 -3.8452 1.7747 -8.838 0.1445 -1.1611 -0.7782 -2.162 -1.9483 -2.162H14.4882c-0.8832 0 -1.6583 -0.5782 -1.8705 -1.4355 -0.4067 -1.6438 -1.0442 -4.5724 -1.435 -8.1173 -0.1191 -1.0802 0.68 -2.02771 1.7642 -2.10152C15.1044 9.19879 18.9559 9 24.0001 9c8 0 13 0.5 13 0.5" stroke-width="3"></path>
  </g>
</svg>