<svg xmlns="http://www.w3.org/2000/svg" fill="none" viewBox="0 0 48 48" id="Script-2--Streamline-Plump-Neon">
  <desc>
    Script 2 Streamline Icon: https://streamlinehq.com
  </desc>
  <g id="script-2--language-programming-code">
    <path id="Vector" stroke="#c71dff" stroke-linecap="round" stroke-linejoin="round" d="M33.5422 11.9987c4.3993 -0.0219 7.398 -0.3069 9.2207 -0.5631 1.3335 -0.1874 2.2369 -1.3427 2.2369 -2.68934v-0.6487c0 -3.90244 -2.9999 -6.09756 -6 -6.09756h-1c-4.4569 0.99985 -4.5702 6.93788 -4.4576 9.9987Zm0 0 0.0001 0.0013" stroke-width="3"></path>
    <path id="Vector_2" stroke="#c71dff" stroke-linecap="round" stroke-linejoin="round" d="M7 37.3529c0.3697 6.1654 -2.5 7.4118 -4 7.4118C3 44.7647 9.5 46 19 46c4.4849 0 8.3011 -0.2753 11.0805 -0.566 2.8661 -0.2997 4.9272 -2.7551 4.853 -5.6359C34.6989 30.701 33.9053 21.8579 33.5424 12c-0.1126 -3.06039 0 -9 4.4576 -10L12 2C8.68629 2 6.0045 4.6807 6.04308 7.99418 6.12288 14.8479 6.35054 26.5222 7 37.3529Z" stroke-width="3"></path>
    <path id="Vector_3" stroke="#000cfe" stroke-linecap="round" stroke-linejoin="round" d="M17 13h10" stroke-width="3"></path>
    <path id="Vector_4" stroke="#000cfe" stroke-linecap="round" stroke-linejoin="round" d="m13 20 14 0" stroke-width="3"></path>
    <path id="Vector_5" stroke="#000cfe" stroke-linecap="round" stroke-linejoin="round" d="m13.5 27 14 0" stroke-width="3"></path>
    <path id="Vector_6" stroke="#000cfe" stroke-linecap="round" stroke-linejoin="round" d="m14 34 14 0" stroke-width="3"></path>
  </g>
</svg>