<svg xmlns="http://www.w3.org/2000/svg" fill="none" viewBox="0 0 48 48" id="Auto-Flash--Streamline-Plump">
  <desc>
    Auto Flash Streamline Icon: https://streamlinehq.com
  </desc>
  <g id="auto-flash">
    <path id="Union" fill="#8fbffa" d="M12.029 25.19a61.52 61.52 0 0 1 -7.47 -1.543c-1.852 -0.512 -2.496 -2.64 -1.341 -4.177C6.004 15.762 11.1 9.234 16.666 3.34c1.54 -1.628 4.14 -0.45 3.97 1.785 -0.352 4.576 -0.798 8.078 -1.107 11.161a47.233 47.233 0 0 1 8.203 1.943c1.749 0.589 2.296 2.64 1.19 4.116 -2.755 3.672 -7.929 10.322 -13.59 16.315 -1.538 1.63 -4.167 0.45 -4.062 -1.789 0.225 -4.776 0.448 -8.575 0.759 -11.68Z" stroke-width="1"></path>
    <path id="Vector 1" stroke="#2859c5" stroke-linecap="round" stroke-linejoin="round" d="m28 45 2.133 -6m0 0 3.761 -10.577C34.196 27.573 35.044 27 36 27s1.804 0.573 2.106 1.423L41.866 39m-11.733 0h11.734m0 0L44 45" stroke-width="1"></path>
    <path id="Union_2" stroke="#2859c5" stroke-linecap="round" stroke-linejoin="round" d="M12.029 25.19a61.52 61.52 0 0 1 -7.47 -1.543c-1.852 -0.512 -2.496 -2.64 -1.341 -4.177C6.004 15.762 11.1 9.234 16.666 3.34c1.54 -1.628 4.14 -0.45 3.97 1.785 -0.352 4.576 -0.798 8.078 -1.107 11.161a47.233 47.233 0 0 1 8.203 1.943c1.749 0.589 2.296 2.64 1.19 4.116 -2.755 3.672 -7.929 10.322 -13.59 16.315 -1.538 1.63 -4.167 0.45 -4.062 -1.789 0.225 -4.776 0.448 -8.575 0.759 -11.68Z" stroke-width="1"></path>
  </g>
</svg>