<svg xmlns="http://www.w3.org/2000/svg" fill="none" viewBox="0 0 48 48" id="Gallery-2--Streamline-Plump">
  <desc>
    Gallery 2 Streamline Icon: https://streamlinehq.com
  </desc>
  <g id="gallery-2--pages-filter-picture-pagination-image">
    <path id="Subtract" fill="#ffffff" d="M8.048 3.354C5.49 3.536 3.536 5.49 3.354 8.048 3.17 10.603 3 14.368 3 19.5c0 5.133 0.171 8.897 0.354 11.453 0.182 2.557 2.136 4.51 4.694 4.693 1.123 0.08 2.48 0.159 4.085 0.221A190.57 190.57 0 0 1 12 28.5c0 -5.133 0.171 -8.897 0.354 -11.452 0.182 -2.558 2.136 -4.512 4.694 -4.694C19.602 12.17 23.367 12 28.5 12c2.876 0 5.322 0.054 7.367 0.133 -0.062 -1.605 -0.14 -2.962 -0.22 -4.085 -0.183 -2.558 -2.137 -4.512 -4.695 -4.694C28.397 3.17 24.632 3 19.5 3c-5.133 0 -8.897 0.171 -11.452 0.354Z" stroke-width="1"></path>
    <path id="Rectangle 1098" fill="#8fbffa" d="M12.354 17.047c0.182 -2.557 2.136 -4.51 4.694 -4.693C19.602 12.17 23.367 12 28.5 12s8.897 0.171 11.452 0.354c2.558 0.182 4.512 2.136 4.694 4.694 0.183 2.555 0.354 6.32 0.354 11.452 0 5.133 -0.171 8.897 -0.354 11.453 -0.182 2.557 -2.136 4.51 -4.694 4.693 -2.555 0.183 -6.32 0.354 -11.452 0.354 -5.133 0 -8.897 -0.171 -11.453 -0.354 -2.557 -0.182 -4.51 -2.136 -4.693 -4.694C12.17 37.398 12 33.633 12 28.5s0.171 -8.897 0.354 -11.453Z" stroke-width="1"></path>
    <path id="Ellipse 36" fill="#ffffff" d="M32 22a3 3 0 1 0 6 0 3 3 0 1 0 -6 0" stroke-width="1"></path>
    <path id="Intersect" fill="#ffffff" d="M44.846 36.389c-0.059 1.38 -0.128 2.564 -0.2 3.563 -0.182 2.558 -2.136 4.512 -4.694 4.694 -2.555 0.183 -6.32 0.354 -11.452 0.354 -5.133 0 -8.897 -0.171 -11.453 -0.354 -2.557 -0.182 -4.51 -2.136 -4.693 -4.694a127.87 127.87 0 0 1 -0.233 -4.4c3.545 -3.327 6.048 -5.238 7.668 -6.319 1.44 -0.96 3.205 -0.802 4.543 0.293 1.339 1.095 3.378 2.874 6.338 5.705 1.99 -1.709 3.515 -2.839 4.625 -3.58 1.44 -0.96 3.205 -0.8 4.543 0.294 1.128 0.922 2.753 2.33 5.008 4.444Z" stroke-width="1"></path>
    <path id="Rectangle 1096" stroke="#2859c5" stroke-linecap="round" stroke-linejoin="round" d="M35.474 7c-0.552 -2.024 -2.29 -3.486 -4.473 -3.643C28.445 3.173 24.665 3 19.5 3c-5.134 0 -8.898 0.171 -11.453 0.354 -2.557 0.182 -4.512 2.136 -4.694 4.694C3.17 10.603 3 14.368 3 19.5c0 5.165 0.174 8.944 0.357 11.5 0.157 2.183 1.62 3.922 3.643 4.473" stroke-width="1"></path>
    <path id="Rectangle 1097" stroke="#2859c5" stroke-linecap="round" stroke-linejoin="round" d="M12.354 17.047c0.182 -2.557 2.136 -4.51 4.694 -4.693C19.602 12.17 23.367 12 28.5 12s8.897 0.171 11.452 0.354c2.558 0.182 4.512 2.136 4.694 4.694 0.183 2.555 0.354 6.32 0.354 11.452 0 5.133 -0.171 8.897 -0.354 11.453 -0.182 2.557 -2.136 4.51 -4.694 4.693 -2.555 0.183 -6.32 0.354 -11.452 0.354 -5.133 0 -8.897 -0.171 -11.453 -0.354 -2.557 -0.182 -4.51 -2.136 -4.693 -4.694C12.17 37.398 12 33.633 12 28.5s0.171 -8.897 0.354 -11.453Z" stroke-width="1"></path>
    <path id="Intersect_2" stroke="#2859c5" stroke-linecap="round" stroke-linejoin="round" d="M44.846 36.389c-2.255 -2.114 -3.88 -3.522 -5.008 -4.444 -1.338 -1.095 -3.102 -1.254 -4.543 -0.293 -1.11 0.74 -2.634 1.87 -4.625 3.579 -2.96 -2.831 -5 -4.61 -6.338 -5.705 -1.338 -1.095 -3.102 -1.253 -4.543 -0.293 -1.62 1.08 -4.123 2.992 -7.668 6.318" stroke-width="1"></path>
    <path id="Ellipse 35" stroke="#2859c5" stroke-linecap="round" stroke-linejoin="round" d="M32 22a3 3 0 1 0 6 0 3 3 0 1 0 -6 0" stroke-width="1"></path>
  </g>
</svg>