<svg xmlns="http://www.w3.org/2000/svg" viewBox="0 0 14 14">
  <g>
    <path d="M4.65,8.29a.25.25,0,0,0,0-.34A10.28,10.28,0,0,1,3.52,6.36,2.15,2.15,0,0,1,4.1,3.9l.31-.31a.67.67,0,0,1,.92-.12l1,1a.67.67,0,0,1-.12.92.67.67,0,0,0-.12.92l.09.09a.24.24,0,0,0,.36,0l4.65-4.65a.23.23,0,0,0,.07-.19.27.27,0,0,0-.1-.19,7,7,0,0,0-9.79,9.79.27.27,0,0,0,.19.1.23.23,0,0,0,.19-.07Z" style="fill: #000001"/>
    <path d="M2.81,12.25a.23.23,0,0,0-.07.19.27.27,0,0,0,.1.19,7,7,0,0,0,9.79-9.79.24.24,0,0,0-.19-.1.23.23,0,0,0-.19.07Zm7.6-2.66-.31.31a2.14,2.14,0,0,1-2.46.58l-.39-.24a.25.25,0,0,1-.12-.18.24.24,0,0,1,.07-.2L9.44,7.62l.09,0,1,1A.67.67,0,0,1,10.41,9.59Z" style="fill: #000001"/>
  </g>
</svg>
