<svg xmlns="http://www.w3.org/2000/svg" fill="none" viewBox="0 0 14 14"><g id="galaxy-1--science-space-universe-astronomy"><path id="Subtract" fill="#3e3e3e" fill-rule="evenodd" d="M7.558.198a.75.75 0 1 0-.75 1.3c1.249.72 1.888 1.977 1.917 3.346-1.714-2.18-4.668-3.269-7.337-1.728a.75.75 0 0 0 .75 1.3c1.251-.723 2.661-.647 3.863.015C3.26 4.83.83 6.84.83 9.918a.75.75 0 1 0 1.5 0c0-1.434.769-2.613 1.939-3.324-1.016 2.57-.489 5.672 2.172 7.208a.75.75 0 1 0 .75-1.3c-1.242-.716-1.878-1.972-1.909-3.34C7 11.326 9.95 12.42 12.611 10.884a.75.75 0 0 0-.75-1.3c-1.24.717-2.644.641-3.844-.014 2.74-.399 5.151-2.412 5.151-5.488a.75.75 0 0 0-1.5 0c0 1.442-.768 2.624-1.94 3.334 1.032-2.575.497-5.677-2.171-7.218ZM7 8.001A1.001 1.001 0 1 0 7 6a1.001 1.001 0 0 0 0 2Z" clip-rule="evenodd"></path></g></svg>