<svg xmlns="http://www.w3.org/2000/svg" fill="none" viewBox="0 0 14 14"><g id="log--nature-tree-plant-circle-round-log"><path id="Subtract" fill="#3e3e3e" fill-rule="evenodd" d="M6.03 1.97a.75.75 0 0 0-1.06 1.06l.97.97H4.145c.152.208.28.424.384.631.467.927.72 2.12.72 3.369 0 .296-.014.588-.042.875H7a.625.625 0 1 1 0 1.25H4.99c-.116.449-.27.868-.46 1.244a4.534 4.534 0 0 1-.384.631H11.5c.81 0 1.444-.57 1.848-1.277C13.761 10 14 9.037 14 8a6.64 6.64 0 0 0-.01-.375H8.5a.625.625 0 1 1 0-1.25h5.292a4.674 4.674 0 0 0-.444-1.098C12.944 4.57 12.31 4 11.5 4H8.059a.756.756 0 0 0-.029-.03l-2-2ZM2 11.969c1.105 0 2-1.777 2-3.969s-.895-3.969-2-3.969S0 5.808 0 8s.895 3.969 2 3.969Z" clip-rule="evenodd"></path></g></svg>