<svg xmlns="http://www.w3.org/2000/svg" fill="none" viewBox="0 0 14 14"><g id="windmill"><path id="Subtract" fill="#3e3e3e" fill-rule="evenodd" d="M6.5 4.531a1.5 1.5 0 0 0-1.5-1.5H3.062a1.5 1.5 0 0 0-1.5 1.5V5H6.5v-.469ZM3.537 9.605C3.232 10.895 3 12.277 3 13.5a.5.5 0 0 0 .5.5h7a.5.5 0 0 0 .5-.5c0-1.426-.316-3.07-.694-4.531H9a2.489 2.489 0 0 1-1.5-.5v2.969a.5.5 0 0 1-.5.5h-.969a2.5 2.5 0 0 1-2.494-2.333ZM9.469 3.5a1.5 1.5 0 0 1-1.5 1.5H7.5V.063h.469a1.5 1.5 0 0 1 1.5 1.5V3.5ZM6.5 6h-.469a1.5 1.5 0 0 0-1.5 1.5v1.938a1.5 1.5 0 0 0 1.5 1.5H6.5V6ZM9 7.969a1.5 1.5 0 0 1-1.5-1.5V6h4.937v.469a1.5 1.5 0 0 1-1.5 1.5H9Z" clip-rule="evenodd"></path></g></svg>