<svg xmlns="http://www.w3.org/2000/svg" viewBox="0 0 14 14">
  <g>
    <path d="M3.24,2.18a.26.26,0,0,0,.17.07h7.18a.26.26,0,0,0,.17-.07L12.63.31a.18.18,0,0,0,0-.2A.18.18,0,0,0,12.5,0H1.5a.18.18,0,0,0-.17.11.18.18,0,0,0,0,.2Z" style="fill: #000001"/>
    <path d="M14,1.5a.18.18,0,0,0-.31-.13L11.82,3.24a.26.26,0,0,0-.07.17v7.18a.26.26,0,0,0,.07.17l1.87,1.87A.18.18,0,0,0,14,12.5Z" style="fill: #000001"/>
    <rect x="3.75" y="3.75" width="6.5" height="2.5" rx="0.25" style="fill: #000001"/>
    <rect x="3.75" y="7.75" width="6.5" height="2.5" rx="0.25" style="fill: #000001"/>
    <path d="M10.76,11.82a.26.26,0,0,0-.17-.07H3.41a.26.26,0,0,0-.17.07L1.37,13.69A.18.18,0,0,0,1.5,14h11a.18.18,0,0,0,.13-.31Z" style="fill: #000001"/>
    <path d="M2.25,3.41a.26.26,0,0,0-.07-.17L.31,1.37a.18.18,0,0,0-.2,0A.18.18,0,0,0,0,1.5v11a.18.18,0,0,0,.11.17.18.18,0,0,0,.2,0l1.87-1.87a.26.26,0,0,0,.07-.17Z" style="fill: #000001"/>
  </g>
</svg>
