<svg xmlns="http://www.w3.org/2000/svg" viewBox="0 0 14 14">
  <path d="M14,1.75A1.71,1.71,0,0,0,13.49.52h0A1.71,1.71,0,0,0,12.25,0H1.75A1.71,1.71,0,0,0,.52.51h0A1.71,1.71,0,0,0,0,1.75v10.5a1.71,1.71,0,0,0,.51,1.23h0A1.71,1.71,0,0,0,1.75,14h10.5a1.71,1.71,0,0,0,1.23-.51h0A1.71,1.71,0,0,0,14,12.25ZM1.5,3.16a.25.25,0,0,1,.15-.23A.26.26,0,0,1,1.93,3l1,1A.26.26,0,0,1,3,4.16V9.84a.26.26,0,0,1-.07.17l-1,1a.26.26,0,0,1-.28.06.25.25,0,0,1-.15-.23ZM9.5,6a.25.25,0,0,1-.25.25H4.75A.25.25,0,0,1,4.5,6V4.75a.25.25,0,0,1,.25-.25h4.5a.25.25,0,0,1,.25.25Zm-5,2a.25.25,0,0,1,.25-.25h4.5A.25.25,0,0,1,9.5,8V9.25a.25.25,0,0,1-.25.25H4.75a.25.25,0,0,1-.25-.25ZM10,2.93A.26.26,0,0,1,9.84,3H4.16A.26.26,0,0,1,4,2.93l-1-1a.26.26,0,0,1-.06-.28.25.25,0,0,1,.23-.15h7.68a.25.25,0,0,1,.23.15.26.26,0,0,1-.06.28ZM4,11.07A.26.26,0,0,1,4.16,11H9.84a.26.26,0,0,1,.17.07l1,1a.26.26,0,0,1,.06.28.25.25,0,0,1-.23.15H3.16a.25.25,0,0,1-.23-.15A.26.26,0,0,1,3,12.07ZM11.07,10A.26.26,0,0,1,11,9.84V4.16A.26.26,0,0,1,11.07,4l1-1a.26.26,0,0,1,.28-.06.25.25,0,0,1,.15.23v7.68a.25.25,0,0,1-.15.23.26.26,0,0,1-.28-.06Z" style="fill: #000001"/>
</svg>
