<svg xmlns="http://www.w3.org/2000/svg" viewBox="0 0 14 14">
  <path d="M12.16,2.71,11.82,1h0a1.26,1.26,0,0,0-1.23-1H7.94a.26.26,0,0,0-.22.13L7.08,1.25a.25.25,0,0,0,0,.25.24.24,0,0,0,.23.12L9,1.5a.72.72,0,0,1,.69.36.73.73,0,0,1,0,.78l-2,3.25A.75.75,0,0,1,7,6.25a.79.79,0,0,1-.39-.11.74.74,0,0,1-.25-1l1-1.59a.24.24,0,0,0,0-.26.25.25,0,0,0-.23-.12l-1.56.11a.75.75,0,0,1-.7-1.12l1-1.76a.28.28,0,0,0,0-.25A.26.26,0,0,0,5.63,0H3.41A1.26,1.26,0,0,0,2.18,1L1.84,2.71A5.27,5.27,0,0,0,2.93,7.08a5.32,5.32,0,0,0,2.93,1.8.49.49,0,0,1,.39.48v2a.5.5,0,0,1-.33.47L4,12.54a.76.76,0,0,0-.48.84.75.75,0,0,0,.74.62h5.5a.75.75,0,0,0,.74-.62.76.76,0,0,0-.48-.84l-1.93-.7a.5.5,0,0,1-.33-.47v-2a.49.49,0,0,1,.39-.48,5.32,5.32,0,0,0,2.93-1.8A5.27,5.27,0,0,0,12.16,2.71Z" style="fill: #000001"/>
</svg>
