<svg xmlns="http://www.w3.org/2000/svg" fill="none" viewBox="0 0 14 14" id="Flash-3--Streamline-Core">
  <desc>
    Flash 3 Streamline Icon: https://streamlinehq.com
  </desc>
  <g id="flash-3--flash-power-connect-charge-electricity-lightning">
    <path id="Vector 2133" fill="#fddc5c" d="M2.2027 5.54475 3.62953 0.97595C3.69473 0.767168 3.88807 0.625 4.1068 0.625h4.00568c0.33635 0 0.57677 0.32543 0.47792 0.64693l-0.80445 2.61658h2.49385c0.3478 0 0.5894 0.34631 0.4693 0.67271L9.05686 9.15878H12L5.97993 13.375 2.03344 9.15878h2.75837l0.83612 -2.96498H2.67997c-0.33729 0 -0.57782 -0.32711 -0.47727 -0.64905Z" stroke-width="1"></path>
    <path id="Union" fill="#0c098c" fill-rule="evenodd" d="M2.84997 5.5688 4.19873 1.25h3.74456l-0.75473 2.45485c-0.05828 0.18956 -0.02313 0.39552 0.09471 0.55503 0.11783 0.15951 0.30438 0.25363 0.5027 0.25363h2.31463L8.47514 8.92986c-0.01461 0.0371 -0.02578 0.07593 -0.03311 0.1161 -0.03145 0.17026 0.01019 0.34222 0.10719 0.4775 0.04834 0.06743 0.11043 0.12574 0.18408 0.17018 0.06796 0.0412 0.14439 0.06982 0.22607 0.08261 0.03698 0.00588 0.07399 0.00834 0.11063 0.00756h0.9481L6.06563 12.552 3.47456 9.78381h1.30488c0.14746 0.00303 0.28919 -0.04669 0.4015 -0.13587 0.06481 -0.05148 0.11983 -0.1161 0.16051 -0.19132 0.02406 -0.04432 0.04292 -0.09187 0.05575 -0.14183l0.83228 -2.95136c0.05313 -0.18839 0.01492 -0.3908 -0.10322 -0.54686 -0.11814 -0.15607 -0.30258 -0.24777 -0.49832 -0.24777H2.84997Zm1.46872 2.96501 0.48363 -1.71501H2.67998c-0.75888 0 -1.30008 -0.73598 -1.07385 -1.46037L3.03296 0.789637C3.17966 0.319879 3.61468 0 4.10681 0h4.00568c0.7568 0 1.29773 0.732218 1.07533 1.4556l-0.55583 1.80791h1.64781c0.7826 0 1.3261 0.77919 1.0558 1.51359L9.95289 8.53381H12c0.2728 0 0.514 0.17689 0.5961 0.43703 0.082 0.26014 -0.0141 0.54343 -0.2375 0.69991L6.33849 13.887c-0.25486 0.1785 -0.60221 0.1423 -0.81484 -0.0849L1.57717 9.58592c-0.17019 -0.18182 -0.21619 -0.44731 -0.1171 -0.67579 0.09908 -0.22847 0.32436 -0.37632 0.57339 -0.37632h2.28523Z" clip-rule="evenodd" stroke-width="1"></path>
  </g>
</svg>