<svg xmlns="http://www.w3.org/2000/svg" fill="none" viewBox="0 0 14 14" id="Flower--Streamline-Core">
  <desc>
    Flower Streamline Icon: https://streamlinehq.com
  </desc>
  <g id="flower--photos-photo-picture-camera-photography-pictures-flower-image">
    <path id="Vector" fill="#79ee8d" d="m1.92308 13 10.15382 0c0.5098 0 0.9231 -0.4133 0.9231 -0.9231l0 -10.15382C13 1.41328 12.5867 1 12.0769 1L1.92308 1C1.41328 1 1 1.41328 1 1.92308L1 12.0769c0 0.5098 0.41328 0.9231 0.92308 0.9231Z" stroke-width="1"></path>
    <path id="Union" fill="#0c098c" fill-rule="evenodd" d="M12.375 12.0769c0 0.1646 -0.1335 0.2981 -0.2981 0.2981H8.50895l1.43299 -1.433c0.24406 -0.2441 0.24406 -0.6398 0 -0.8839 -0.24408 -0.24406 -0.6398 -0.24406 -0.88388 0L7.625 11.4912V9.44257C9.24479 9.14168 10.5 7.69731 10.5 6.00006v-2.19c0.0003 -0.34233 -0.1797 -0.66755 -0.47 -0.849 -0.28904 -0.18065 -0.65825 -0.20057 -0.96501 -0.05242l-0.0086 0.00419L7 3.94103l-2.05639 -1.0282 -0.0086 -0.00419c-0.30676 -0.14815 -0.67597 -0.12823 -0.96501 0.05242 -0.29032 0.18145 -0.47033 0.50667 -0.47 0.849v2.19c0 1.69725 1.25521 3.14162 2.875 3.44251v2.04863l-1.43306 -1.4331c-0.24408 -0.24406 -0.6398 -0.24406 -0.88388 0 -0.24408 0.2441 -0.24408 0.6398 0 0.8839l1.433 1.433H1.92308c-0.16463 0 -0.29808 -0.1335 -0.29808 -0.2981V1.92308c0 -0.16463 0.13345 -0.29808 0.29808 -0.29808H12.0769c0.1646 0 0.2981 0.13345 0.2981 0.29808V12.0769ZM6.9912 13.625H1.92308C1.0681 13.625 0.375 12.9319 0.375 12.0769V1.92308C0.375 1.0681 1.0681 0.375 1.92308 0.375H12.0769c0.855 0 1.5481 0.6931 1.5481 1.54808V12.0769c0 0.855 -0.6931 1.5481 -1.5481 1.5481H7.0088c-0.00587 0.0001 -0.01173 0.0001 -0.0176 0ZM7 4.50006l0 -0.00001 0 0.00001Z" clip-rule="evenodd" stroke-width="1"></path>
  </g>
</svg>