<svg xmlns="http://www.w3.org/2000/svg" viewBox="0 0 24 24" id="Color-Bucket-Brush--Streamline-Ultimate">
  <desc>
    Color Bucket Brush Streamline Icon: https://streamlinehq.com
  </desc>
  <g id="Color-Bucket-Brush--Streamline-Ultimate.svg">
    <path d="M11.12 9.34a1 1 0 0 0 1.23 -0.67l1.32 -4.44a1.51 1.51 0 0 0 -0.12 -1.14 1.47 1.47 0 0 0 -0.89 -0.73L4.94 0.06a1.51 1.51 0 0 0 -1.87 1L1.72 5.58a1 1 0 0 0 0.09 0.76 0.94 0.94 0 0 0 0.59 0.48Z" fill="#000000" stroke-width="1"></path>
    <path d="M17.24 9.5a13.91 13.91 0 0 0 -4 0.54c-1.54 0.52 -2.45 1.33 -2.45 2v9c0 1.38 2.91 2.5 6.5 2.5s6.5 -1.12 6.5 -2.5V12c-0.05 -1.38 -2.96 -2.5 -6.55 -2.5ZM22 17.94a1.49 1.49 0 0 1 -1.47 1.56A1.56 1.56 0 0 1 19 17.94a1 1 0 1 0 -2.08 0 1 1 0 0 1 -2.08 0V14.6a0.57 0.57 0 0 0 -0.41 -0.55c-1.35 -0.36 -2.06 -0.94 -2.06 -1.24 0 -0.45 1.64 -1.55 4.68 -1.55 2.6 0 5 0.84 5 2.35Z" fill="#000000" stroke-width="1"></path>
    <path d="M9.12 10.33 1 8l-0.22 0.75a5.54 5.54 0 0 0 1.49 5.58L0.36 20.77a2.51 2.51 0 0 0 1.7 3.12 2.15 2.15 0 0 0 0.71 0.11 2.49 2.49 0 0 0 2.41 -1.8l1.92 -6.45a5.65 5.65 0 0 0 2.23 -1 1 1 0 0 0 0.41 -0.75v-2a1.47 1.47 0 0 1 0.07 -0.46 1 1 0 0 0 -0.69 -1.21ZM2.76 22.12a0.75 0.75 0 0 1 0 -1.5 0.75 0.75 0 1 1 0 1.5Z" fill="#000000" stroke-width="1"></path>
  </g>
</svg>