<svg xmlns="http://www.w3.org/2000/svg" viewBox="0 0 24 24" id="Design-Tool-Compass--Streamline-Ultimate">
  <desc>
    Design Tool Compass Streamline Icon: https://streamlinehq.com
  </desc>
  <g id="Design-Tool-Compass--Streamline-Ultimate.svg">
    <path d="M4.9178 17.3302H0.5232c-0.1348 0 -0.2441 0.1093 -0.2441 0.2441v1.6993c0.0022 0.0772 0.0188 0.1534 0.0488 0.2246l1.7383 3.4668c0.1982 0.5037 0.8673 0.604 1.2044 0.1805 0.0435 -0.0547 0.0787 -0.1155 0.1042 -0.1805l1.7872 -3.4668c0.0135 -0.0743 0.0135 -0.1504 0 -0.2246v-1.6993c0 -0.1348 -0.1093 -0.2441 -0.2442 -0.2441Z" fill="#000000" stroke-width="1"></path>
    <path d="M0.5232 6.5878h4.3946c0.1349 0 0.2442 -0.1093 0.2442 -0.2442v-0.7129c0 -1.8794 -2.0346 -3.054 -3.6622 -2.1143C0.7444 3.9525 0.2791 4.7585 0.2791 5.6307v0.7129c0 0.1349 0.1093 0.2442 0.2441 0.2442Z" fill="#000000" stroke-width="1"></path>
    <path d="m23.5607 22.1642 -1.25 -1.9531c-0.044 -0.072 -0.044 -0.1625 0 -0.2344 0.2151 -0.4459 0.1818 -0.9716 -0.0879 -1.3868l-7.129 -11.2892c-0.0897 -0.1398 -0.2442 -0.2244 -0.4102 -0.2246H8.8242c-0.2056 0 -0.3891 0.1289 -0.459 0.3222L6.539 12.3398c-0.1578 0.3393 -0.4864 0.5671 -0.8594 0.5957H5.162V8.2968c0 -0.1348 -0.1093 -0.2442 -0.2442 -0.2442H0.5232c-0.1348 0 -0.2441 0.1093 -0.2441 0.2442v7.3243c0 0.1349 0.1093 0.2442 0.2441 0.2442h7.3244c0.7812 -0.03 1.4743 -0.5098 1.7773 -1.2305l2.0606 -5.4982c0.0447 -0.0694 0.1226 -0.1102 0.2051 -0.1074 0.0938 -0.0074 0.184 0.0377 0.2344 0.1172l7.0118 11.4065c0.2787 0.4508 0.7791 0.716 1.3086 0.6934 0.088 -0.0044 0.171 0.0408 0.2149 0.1171l1.2598 1.9532c0.4135 0.6315 1.3555 0.5786 1.6956 -0.0953 0.1579 -0.3127 0.1369 -0.6859 -0.055 -0.9789Z" fill="#000000" stroke-width="1"></path>
    <path d="M8.8241 5.6112h5.8595c0.2697 0 0.4883 -0.2186 0.4883 -0.4883V3.658c0 -2.6312 -2.8483 -4.2757 -5.127 -2.9601 -1.0576 0.6106 -1.709 1.739 -1.709 2.9601v1.4649c0 0.2697 0.2186 0.4883 0.4882 0.4883Zm2.9298 -3.9063c0.7518 0 1.2216 0.8138 0.8457 1.4648 -0.3759 0.6511 -1.3156 0.6511 -1.6915 0 -0.0857 -0.1484 -0.1308 -0.3168 -0.1308 -0.4883 0 -0.5393 0.4372 -0.9765 0.9766 -0.9765Z" fill="#000000" stroke-width="1"></path>
  </g>
</svg>