<svg xmlns="http://www.w3.org/2000/svg" fill="none" viewBox="0 0 24 24" id="Pathfinder-Minus-Back--Streamline-Ultimate">
  <desc>
    Pathfinder Minus Back Streamline Icon: https://streamlinehq.com
  </desc>
  <path fill="#000000" fill-rule="evenodd" d="M17.0039 4.41539V2.32031c0 -1.10457 -0.8954 -1.999998 -2 -1.999998h-1.5854c-0.5523 0 -1 0.447716 -1 0.999998 0 0.55229 0.4477 1 1 1h1.5854v2.09508c0 0.55228 0.4477 1 1 1s1 -0.44772 1 -1Zm-6.7563 -2.09508c0.5522 0 1 -0.44771 1 -1 0 -0.552282 -0.4478 -0.999998 -1 -0.999998H7.07666c-0.55228 0 -1 0.447716 -1 0.999998 0 0.55229 0.44772 1 1 1h3.17094ZM4.41539 17.0039c0.55228 0 1 -0.4477 1 -1s-0.44772 -1 -1 -1H2.32031l0 -1.5854c0 -0.5523 -0.44771 -1 -1 -1 -0.552282 0 -0.999998 0.4477 -0.999998 1v1.5854c0 1.1046 0.895428 2 1.999998 2h2.09508ZM3.90576 2.32031c0.55229 0 1 -0.44771 1 -1 0 -0.552282 -0.44771 -0.999998 -1 -0.999998H2.32031c-1.10457 0 -1.999998 0.895428 -1.999998 1.999998v1.58545c0 0.55229 0.447716 1 0.999998 1 0.55229 0 1 -0.44771 1 -1V2.32031h1.58545ZM2.32031 7.07666c0 -0.55228 -0.44771 -1 -1 -1 -0.552282 0 -0.999998 0.44772 -0.999998 1v3.17094c0 0.5522 0.447716 1 0.999998 1 0.55229 0 1 -0.4478 1 -1l0 -3.17094Zm19.60939 -0.43603c0.9665 0 1.75 0.78351 1.75 1.75001l-0.0001 13.53876c0 0.9665 -0.7835 1.75 -1.75 1.75H8.14185c-0.9665 0 -1.75 -0.7836 -1.75 -1.7501v-5.2031c0 -0.9665 0.7835 -1.75 1.75 -1.75l6.58455 0c0.1381 0 0.25 -0.1119 0.25 -0.25l0.0002 -6.33561c0 -0.96648 0.7835 -1.74997 1.75 -1.74997l5.2031 0.00001Z" clip-rule="evenodd" stroke-width="1"></path>
</svg>