<svg xmlns="http://www.w3.org/2000/svg" fill="none" viewBox="0 0 24 24" id="Pencil-Sketch--Streamline-Ultimate">
  <desc>
    Pencil Sketch Streamline Icon: https://streamlinehq.com
  </desc>
  <path fill="#000000" fill-rule="evenodd" d="M20.2351 11.7224c0.2595 -0.1444 0.3366 -0.482 0.1655 -0.7248l-2.3982 -3.40372c-0.0937 -0.13294 -0.2461 -0.21201 -0.4087 -0.21201H6.41334c-0.16262 0 -0.31507 0.07907 -0.40873 0.21201L3.60402 11.0009c-0.17141 0.2433 -0.09368 0.5815 0.16675 0.7256l0.09182 0.0508 4.30779 2.3244c0.16792 0.0906 0.37278 0.0778 0.52805 -0.0331l2.86577 -2.047c0.2608 -0.1863 0.6111 -0.1863 0.8719 0l2.8657 2.0469c0.1553 0.1109 0.3601 0.1238 0.5281 0.0332l4.3058 -2.3239 0.0994 -0.0554Zm1.012 1.5953c0 -0.1982 -0.2129 -0.3233 -0.386 -0.2269l-0.0086 0.0047 -0.0001 0 -4.3397 2.3422c-0.1618 0.0873 -0.2626 0.2562 -0.2626 0.44l0 7.2542c0 0.2761 0.2239 0.5 0.5 0.5l3.747 0c0.1989 0 0.3897 -0.079 0.5303 -0.2197 0.1407 -0.1406 0.2197 -0.3314 0.2197 -0.5303l0 -9.5642Zm-6.997 10.3142c0.2762 0 0.5 -0.2239 0.5 -0.5l0 -7.3567c0 -0.1615 -0.0779 -0.3131 -0.2093 -0.4069l-2.25 -1.6072c-0.1739 -0.1241 -0.4074 -0.1241 -0.5813 0l-2.24998 1.6072c-0.1314 0.0938 -0.20938 0.2454 -0.20938 0.4069v7.3567c0 0.2761 0.22386 0.5 0.5 0.5h4.49996Zm-6.99996 0c0.27614 0 0.5 -0.2239 0.5 -0.5v-7.2541c0 -0.1838 -0.10083 -0.3528 -0.26256 -0.4401l-4.34067 -2.3422 -0.00682 -0.0037 -0.00001 0c0.00001 0 0.00001 0 0 0l-0.14238 -0.0788c-0.10949 -0.0605 -0.24379 0.0187 -0.24379 0.1438v9.7251c0 0.4142 0.33578 0.75 0.75 0.75l3.74623 0ZM13.4341 1.1102l2.8068 3.98368c0.2334 0.33124 -0.0035 0.78799 -0.4087 0.78799H8.17481c-0.40521 0 -0.64212 -0.45675 -0.40873 -0.78799L10.5729 1.1102c0.6972 -0.98938 2.1641 -0.989383 2.8612 0Z" clip-rule="evenodd" stroke-width="1"></path>
</svg>