<svg xmlns="http://www.w3.org/2000/svg" viewBox="0 0 24 24" id="Shapes--Streamline-Ultimate">
  <desc>
    Shapes Streamline Icon: https://streamlinehq.com
  </desc>
  <g id="Shapes--Streamline-Ultimate.svg">
    <path d="M1.5 0.5h8s1 0 1 1v8s0 1 -1 1h-8s-1 0 -1 -1v-8s0 -1 1 -1" fill="#000000" stroke-width="1"></path>
    <path d="M6.43 13a1.16 1.16 0 0 0 -1.86 0l-3.16 4.33a1.11 1.11 0 0 0 0 1.34L4.57 23a1.16 1.16 0 0 0 1.86 0l3.16 -4.36a1.11 1.11 0 0 0 0 -1.34Z" fill="#000000" stroke-width="1"></path>
    <path d="M13.5 5.5a5 5 0 1 0 10 0 5 5 0 1 0 -10 0" fill="#000000" stroke-width="1"></path>
    <path d="M17.86 14a1 1 0 0 0 -1.72 0l-4.75 8a1 1 0 0 0 0 1 1 1 0 0 0 0.87 0.5h9.5a1 1 0 0 0 0.87 -0.5 1 1 0 0 0 0 -1Z" fill="#000000" stroke-width="1"></path>
  </g>
</svg>