<svg xmlns="http://www.w3.org/2000/svg" fill="none" viewBox="0 0 24 24" id="Spiral-Shape--Streamline-Ultimate">
  <desc>
    Spiral Shape Streamline Icon: https://streamlinehq.com
  </desc>
  <path fill="#000000" fill-rule="evenodd" d="M13.0271 1.97911C7.49272 1.97911 3.00621 6.46562 3.00621 12c0 5.5344 4.48651 10.0209 10.02089 10.0209 4.3999 0 7.9667 -3.5662 7.9667 -7.9658 0 -4.45745 -3.354 -8.08867 -7.6977 -8.08867 -3.34907 0 -6.18028 2.83632 -6.18028 6.18817 0 3.3626 2.57291 5.976 5.91128 5.976 2.3059 0 4.2762 -1.7913 4.2762 -3.916 0 -2.3486 -1.6586 -4.25283 -3.7455 -4.25283 -1.2577 0 -2.4018 1.09963 -2.4018 2.32933 0 1.2437 0.8655 2.0395 2.026 2.0395 0.5465 0 0.9896 0.443 0.9896 0.9895s-0.4431 0.9896 -0.9896 0.9896c-2.21 0 -4.00509 -1.6389 -4.00509 -4.0186 0 -2.3935 2.10229 -4.30844 4.38089 -4.30844 3.4324 0 5.7246 3.06124 5.7246 6.23194 0 3.3945 -3.0419 5.8952 -6.2553 5.8952 -4.45556 0 -7.8904 -3.5239 -7.8904 -7.9552 0 -4.44204 3.71446 -8.16729 8.1594 -8.16729 5.5487 0 9.6768 4.6328 9.6768 10.06779 0 5.4929 -4.4532 9.9449 -9.9458 9.9449 -6.62742 0 -12 -5.3726 -12 -12 0 -6.62742 5.37258 -12 12 -12 0.5465 0 0.9896 0.44304 0.9896 0.989557 0 0.546513 -0.4431 0.989553 -0.9896 0.989553Z" clip-rule="evenodd" stroke-width="1"></path>
</svg>