<svg xmlns="http://www.w3.org/2000/svg" viewBox="0 0 24 24" id="Vectors-Pen-Add-1--Streamline-Ultimate">
  <desc>
    Vectors Pen Add 1 Streamline Icon: https://streamlinehq.com
  </desc>
  <g id="Vectors-Pen-Add-1--Streamline-Ultimate.svg">
    <path d="M23.71 8.55 18 2.79a1 1 0 0 0 -1.52 0.14l-4.5 6.41a1 1 0 0 0 0.02 1.29l3.83 3.83a1 1 0 0 0 1.29 0.11l6.41 -4.5a1 1 0 0 0 0.18 -1.52Z" fill="#000000" stroke-width="1"></path>
    <path d="M10.55 11.16a0.49 0.49 0 0 0 -0.56 -0.1l-5.28 2.39a0.5 0.5 0 0 0 -0.29 0.46c0 0.06 0 6.59 -1.84 9.31a0.51 0.51 0 0 0 0.7 0.7c2.72 -1.82 9.25 -1.84 9.31 -1.84a0.5 0.5 0 0 0 0.46 -0.29l2.39 -5.28a0.49 0.49 0 0 0 -0.1 -0.56Zm0.58 7a2 2 0 1 1 0 -2.83 2 2 0 0 1 0 2.87Z" fill="#000000" stroke-width="1"></path>
    <path d="M3.5 8.25a1.25 1.25 0 0 0 2.5 0v-2A0.25 0.25 0 0 1 6.25 6h2a1.25 1.25 0 0 0 0 -2.5h-2A0.25 0.25 0 0 1 6 3.25v-2a1.25 1.25 0 0 0 -2.5 0v2a0.25 0.25 0 0 1 -0.25 0.25h-2a1.25 1.25 0 0 0 0 2.5h2a0.25 0.25 0 0 1 0.25 0.25Z" fill="#000000" stroke-width="1"></path>
  </g>
</svg>