<svg xmlns="http://www.w3.org/2000/svg" fill="none" viewBox="0 0 48 48" id="Chalkboard--Streamline-Kameleon">
  <desc>
    Chalkboard Streamline Icon: https://streamlinehq.com
  </desc>
  <path fill="#ff78b9" d="M24.0006 48.0025c13.2553 0 24.0006 -10.7453 24.0006 -24.0007 0 -13.2553 -10.7453 -24.0005793 -24.0006 -24.0005793C10.7453 0.0012207 0 10.7465 0 24.0018c0 13.2554 10.7453 24.0007 24.0006 24.0007Z" stroke-width="1"></path>
  <path fill="#000000" d="M36.2192 13.5295h-24.437V32.73h24.437V13.5295Z" stroke-width="1"></path>
  <path fill="#ffffff" d="M37.9651 32.7297h-27.928v2.6183h27.928v-2.6183Z" stroke-width="1"></path>
  <path fill="#ffffff" d="M20.5099 30.1118c0 -0.2315 -0.0919 -0.4535 -0.2556 -0.6172 -0.1637 -0.1636 -0.3856 -0.2556 -0.6171 -0.2556h-3.491c-0.2315 0 -0.4535 0.092 -0.6171 0.2556 -0.1637 0.1637 -0.2557 0.3857 -0.2557 0.6172v1.7455h5.2365v-1.7455Z" stroke-width="1"></path>
  <path fill="#ffffff" d="M32.7274 31.4204c0 0.2399 -0.1963 0.4363 -0.4362 0.4363h-2.6176c-0.24 0 -0.4363 -0.1964 -0.4363 -0.4363 0 -0.2399 0.1963 -0.4363 0.4363 -0.4363h2.6176c0.2399 0 0.4362 0.1964 0.4362 0.4363Z" stroke-width="1"></path>
  <path fill="#ffffff" d="m16.4694 23.289 1.7564 -3.9662c0.1222 -0.2736 0.3456 -0.439 0.6476 -0.439h0.065c0.3024 0 0.5184 0.1654 0.6406 0.439l1.756 3.9662c0.0362 0.079 0.0576 0.151 0.0576 0.223 0 0.295 -0.23 0.5328 -0.5254 0.5328 -0.2592 0 -0.432 -0.1514 -0.5329 -0.3818l-0.3381 -0.7916h-2.2173l-0.3526 0.8278c-0.0933 0.216 -0.2805 0.3456 -0.5109 0.3456 -0.0678 0.0001 -0.1349 -0.0134 -0.1974 -0.0395 -0.0625 -0.0261 -0.1192 -0.0644 -0.1668 -0.1127 -0.0475 -0.0482 -0.085 -0.1054 -0.1102 -0.1683 -0.0252 -0.0629 -0.0377 -0.1302 -0.0366 -0.1979 0 -0.079 0.0292 -0.1584 0.065 -0.2374Zm3.117 -1.3964 -0.6986 -1.6626 -0.6982 1.6626h1.3968Z" stroke-width="1"></path>
  <path fill="#ffffff" d="M22.2637 19.5181c0 -0.3094 0.2448 -0.5542 0.5546 -0.5542h1.7848c0.576 0 1.0294 0.1584 1.3174 0.4464 0.2304 0.2304 0.3456 0.511 0.3456 0.8566v0.0144c0 0.5686 -0.302 0.8854 -0.6624 1.087 0.583 0.223 0.943 0.5616 0.943 1.238v0.0144c0 0.9212 -0.7488 1.382 -1.8856 1.382h-1.8428c-0.073 0.0006 -0.1453 -0.0133 -0.2129 -0.0409 -0.0675 -0.0276 -0.1289 -0.0684 -0.1805 -0.12 -0.0517 -0.0516 -0.0925 -0.1129 -0.1202 -0.1804 -0.0276 -0.0676 -0.0416 -0.1399 -0.041 -0.2129v-3.9304Zm2.1016 1.4828c0.4896 0 0.799 -0.1584 0.799 -0.5328v-0.0144c0 -0.3313 -0.2592 -0.5185 -0.727 -0.5185h-1.094v1.0652h1.022v0.0005Zm0.2954 2.0295c0.4892 0 0.7846 -0.1728 0.7846 -0.5472v-0.0144c0 -0.3382 -0.2522 -0.5472 -0.8208 -0.5472h-1.2812v1.1088h1.3174Z" stroke-width="1"></path>
  <path fill="#ffffff" d="M27.2363 21.4974v-0.0144c0 -1.4326 1.0796 -2.6056 2.6274 -2.6056 0.7558 0 1.2668 0.2016 1.6844 0.511 0.1152 0.0864 0.2161 0.2448 0.2161 0.439 -0.0002 0.0715 -0.0145 0.1422 -0.0422 0.2081 -0.0276 0.0659 -0.0681 0.1257 -0.119 0.1759 -0.0508 0.0502 -0.1111 0.0898 -0.1774 0.1165 -0.0663 0.0268 -0.1372 0.0401 -0.2087 0.0393 -0.1514 0 -0.2517 -0.0576 -0.3312 -0.1078 -0.3094 -0.2304 -0.6336 -0.36 -1.0289 -0.36 -0.8497 0 -1.4615 0.7052 -1.4615 1.5692v0.0144c0 0.8636 0.5974 1.5832 1.4615 1.5832 0.4678 0 0.7771 -0.144 1.094 -0.3958 0.0864 -0.072 0.2016 -0.1222 0.3312 -0.1222 0.281 0 0.5184 0.2304 0.5184 0.511 0 0.1728 -0.0864 0.3094 -0.1872 0.3958 -0.4534 0.3958 -0.9862 0.6332 -1.7922 0.6332 -1.4837 0.0004 -2.5847 -1.1442 -2.5847 -2.5908Z" stroke-width="1"></path>
</svg>