<svg xmlns="http://www.w3.org/2000/svg" fill="none" viewBox="0 0 24 24" id="Phone-Personal-Hotspot--Streamline-Sharp">
  <desc>
    Phone Personal Hotspot Streamline Icon: https://streamlinehq.com
  </desc>
  <g id="phone-personal-hotspot--phone-personal-hotspot-connection-mobile-signal-device-share">
    <path id="Subtract" fill="#fddc5c" fill-rule="evenodd" d="m9.2623 10.363 0.5529 -0.45662c0.8272 2.70292 3.342 4.66862 6.3158 4.66862h1.9452v8.175H2.07617V1.25h5.32352c-0.58548 0.98592 -0.92166 2.13724 -0.92166 3.36708 0 1.59383 0.56874 3.06323 1.51071 4.20383L9.2623 10.363Z" clip-rule="evenodd" stroke-width="1"></path>
    <path id="Union" fill="#0c098c" fill-rule="evenodd" d="M18.5702 14.575c0.2556 0 0.5079 -0.0145 0.756 -0.0428V24H0.826153v-1.25l0.000002 -21.5V0H8.36025C7.6756 0.700052 7.14538 1.55175 6.82466 2.5H3.32615l0 19H16.8262v-6.925h1.744ZM8.07615 19.75h4.00005v-2.5H8.07615v2.5ZM13.0819 2.51318c-1.1619 0 -2.1039 0.94195 -2.1039 2.1039 0 0.50973 0.1797 0.97417 0.4804 1.33833L9.53081 7.54735c-0.65706 -0.79561 -1.0528 -1.81838 -1.0528 -2.93027 0 -2.54266 2.06119 -4.6038964 4.60389 -4.6038964h2.4392c2.5427 0 4.6039 2.0612364 4.6039 4.6038964s-2.0612 4.6039 -4.6039 4.6039v-2.5c1.162 0 2.1039 -0.94195 2.1039 -2.1039s-0.9419 -2.1039 -2.1039 -2.1039h-2.4392Zm0.9452 5.45791c0 -1.16196 0.9419 -2.1039 2.1039 -2.1039v-2.5c-2.5427 0 -4.6039 2.06123 -4.6039 4.6039 0 2.54261 2.0612 4.60391 4.6039 4.60391h2.4392c2.5426 0 4.6039 -2.0613 4.6039 -4.60391 0 -0.98395 -0.3101 -1.8992 -0.8378 -2.64855l-2.044 1.43941c0.2406 0.34178 0.3818 0.75711 0.3818 1.20914 0 1.16195 -0.942 2.10391 -2.1039 2.10391H16.131c-1.162 0 -2.1039 -0.94196 -2.1039 -2.10391Z" clip-rule="evenodd" stroke-width="1"></path>
  </g>
</svg>