<svg xmlns="http://www.w3.org/2000/svg" viewBox="0 0 32 32" id="Interface-Essential-Refresh--Streamline-Pixel">
  <desc>
    Interface Essential Refresh Streamline Icon: https://streamlinehq.com
  </desc>
  <title>interface-essential-refresh</title>
  <g>
    <path d="M27.43 12.19h1.52v7.62h-1.52Z" fill="#000000" stroke-width="1"></path>
    <path d="M25.91 19.81h1.52v3.05h-1.52Z" fill="#000000" stroke-width="1"></path>
    <path d="M25.91 9.14h1.52v3.05h-1.52Z" fill="#000000" stroke-width="1"></path>
    <path d="m27.43 7.62 0 -1.52 1.52 0 0 -1.53 -7.62 0 0 7.62 1.53 0 0 -1.52 1.52 0 0 -1.53 1.53 0 0 -1.52 1.52 0z" fill="#000000" stroke-width="1"></path>
    <path d="M24.38 22.86h1.53v1.52h-1.53Z" fill="#000000" stroke-width="1"></path>
    <path d="M22.86 24.38h1.52v1.53h-1.52Z" fill="#000000" stroke-width="1"></path>
    <path d="M19.81 25.91h3.05v1.52h-3.05Z" fill="#000000" stroke-width="1"></path>
    <path d="M13.71 27.43h6.1v1.52h-6.1Z" fill="#000000" stroke-width="1"></path>
    <path d="M12.19 3.05h6.1v1.52h-6.1Z" fill="#000000" stroke-width="1"></path>
    <path d="M9.14 4.57h3.05V6.1H9.14Z" fill="#000000" stroke-width="1"></path>
    <path d="M7.62 6.1h1.52v1.52H7.62Z" fill="#000000" stroke-width="1"></path>
    <path d="M6.1 7.62h1.52v1.52H6.1Z" fill="#000000" stroke-width="1"></path>
    <path d="m4.57 24.38 0 1.53 -1.52 0 0 1.52 7.62 0 0 -7.62 -1.53 0 0 1.52 -1.52 0 0 1.53 -1.52 0 0 1.52 -1.53 0z" fill="#000000" stroke-width="1"></path>
    <path d="M4.57 19.81H6.1v3.05H4.57Z" fill="#000000" stroke-width="1"></path>
    <path d="M4.57 9.14H6.1v3.05H4.57Z" fill="#000000" stroke-width="1"></path>
    <path d="M3.05 12.19h1.52v7.62H3.05Z" fill="#000000" stroke-width="1"></path>
  </g>
</svg>