<svg xmlns="http://www.w3.org/2000/svg" viewBox="0 0 32 32" id="Interface-Essential-Alert-Circle-1--Streamline-Pixel">
  <desc>
    Interface Essential Alert Circle 1 Streamline Icon: https://streamlinehq.com
  </desc>
  <title>interface-essential-alert-circle-1</title>
  <g>
    <path d="M30.48 9.14h-1.53V6.09h-1.52V4.57H25.9V3.05h-3.04V1.52h-3.05V0h-7.62v1.52H9.14v1.53H6.09v1.52H4.57v1.52H3.05v3.05H1.52v3.05H0v7.62h1.52v3.05h1.53v3.04h1.52v1.53h1.52v1.52h3.05v1.53h3.05V32h7.62v-1.52h3.05v-1.53h3.04v-1.52h1.53V25.9h1.52v-3.04h1.53v-3.05H32v-7.62h-1.52ZM19.81 25.9h-1.52v1.53h-4.58V25.9h-1.52v-4.57h1.52v-1.52h4.58v1.52h1.52Zm1.52 -12.19h-1.52v3.05h-1.52v1.53h-4.58v-1.53h-1.52v-3.05h-1.52V6.09h1.52V4.57h7.62v1.52h1.52Z" fill="#000000" stroke-width="1"></path>
    <path d="M18.29 7.62h1.52v4.57h-1.52Z" fill="#000000" stroke-width="1"></path>
    <path d="M16.76 6.09h1.53v1.53h-1.53Z" fill="#000000" stroke-width="1"></path>
  </g>
</svg>