<svg xmlns="http://www.w3.org/2000/svg" viewBox="0 0 32 32" id="Interface-Essential-Lock-Shield--Streamline-Pixel">
  <desc>
    Interface Essential Lock Shield Streamline Icon: https://streamlinehq.com
  </desc>
  <title>interface-essential-lock-shield</title>
  <g>
    <path d="M27.425 4.57h1.53v16.76h-1.53Z" fill="#000000" stroke-width="1"></path>
    <path d="M25.905 21.33h1.52v3.05h-1.52Z" fill="#000000" stroke-width="1"></path>
    <path d="M24.385 24.38h1.52v1.53h-1.52Z" fill="#000000" stroke-width="1"></path>
    <path d="M24.385 3.05h3.04v1.52h-3.04Z" fill="#000000" stroke-width="1"></path>
    <path d="M22.855 25.91h1.53v1.52h-1.53Z" fill="#000000" stroke-width="1"></path>
    <path d="M22.855 13.71h1.53v9.15h-1.53Z" fill="#000000" stroke-width="1"></path>
    <path d="M21.335 27.43h1.52v1.52h-1.52Z" fill="#000000" stroke-width="1"></path>
    <path d="M21.335 22.86h1.52v1.52h-1.52Z" fill="#000000" stroke-width="1"></path>
    <path d="M21.335 1.52h3.05v1.53h-3.05Z" fill="#000000" stroke-width="1"></path>
    <path d="M18.285 28.95h3.05v1.53h-3.05Z" fill="#000000" stroke-width="1"></path>
    <path d="M10.665 24.38h10.67v1.53h-10.67Z" fill="#000000" stroke-width="1"></path>
    <path d="m18.285 18.29 -1.52 0 0 -1.53 -1.53 0 0 -1.52 -1.52 0 0 1.52 -1.52 0 0 3.05 1.52 0 0 1.52 1.52 0 0 1.53 1.53 0 0 -1.53 1.52 0 0 -1.52 1.53 0 0 -3.05 -1.53 0 0 1.53z" fill="#000000" stroke-width="1"></path>
    <path d="M18.285 4.57h1.53V6.1h-1.53Z" fill="#000000" stroke-width="1"></path>
    <path d="M16.765 15.24h1.52v1.52h-1.52Z" fill="#000000" stroke-width="1"></path>
    <path d="M13.715 30.48h4.57V32h-4.57Z" fill="#000000" stroke-width="1"></path>
    <path d="M13.715 3.05h4.57v1.52h-4.57Z" fill="#000000" stroke-width="1"></path>
    <path d="M10.665 28.95h3.05v1.53h-3.05Z" fill="#000000" stroke-width="1"></path>
    <path d="M12.195 4.57h1.52V6.1h-1.52Z" fill="#000000" stroke-width="1"></path>
    <path d="M10.665 0h10.67v1.52h-10.67Z" fill="#000000" stroke-width="1"></path>
    <path d="m22.855 13.71 0 -1.52 -1.52 0 0 -6.09 -1.52 0 0 6.09 -7.62 0 0 -6.09 -1.53 0 0 6.09 -1.52 0 0 1.52 13.71 0z" fill="#000000" stroke-width="1"></path>
    <path d="M9.145 27.43h1.52v1.52h-1.52Z" fill="#000000" stroke-width="1"></path>
    <path d="M9.145 22.86h1.52v1.52h-1.52Z" fill="#000000" stroke-width="1"></path>
    <path d="M7.625 1.52h3.04v1.53h-3.04Z" fill="#000000" stroke-width="1"></path>
    <path d="M7.625 25.91h1.52v1.52h-1.52Z" fill="#000000" stroke-width="1"></path>
    <path d="M7.625 13.71h1.52v9.15h-1.52Z" fill="#000000" stroke-width="1"></path>
    <path d="M6.095 24.38h1.53v1.53h-1.53Z" fill="#000000" stroke-width="1"></path>
    <path d="M4.575 3.05h3.05v1.52h-3.05Z" fill="#000000" stroke-width="1"></path>
    <path d="M4.575 21.33h1.52v3.05h-1.52Z" fill="#000000" stroke-width="1"></path>
    <path d="M3.045 4.57h1.53v16.76h-1.53Z" fill="#000000" stroke-width="1"></path>
  </g>
</svg>