<svg xmlns="http://www.w3.org/2000/svg" viewBox="0 0 32 32" id="Interface-Essential-Cog-Double--Streamline-Pixel">
  <desc>
    Interface Essential Cog Double Streamline Icon: https://streamlinehq.com
  </desc>
  <title>interface-essential-cog-double</title>
  <g>
    <path d="m28.95 7.62 0 1.52 1.53 0 0 1.53 -1.53 0 0 1.52 3.05 0 0 -4.57 -3.05 0z" fill="#000000" stroke-width="1"></path>
    <path d="M28.95 13.71h1.53v1.53h-1.53Z" fill="#000000" stroke-width="1"></path>
    <path d="M28.95 4.57h1.53v1.52h-1.53Z" fill="#000000" stroke-width="1"></path>
    <path d="M27.43 15.24h1.52v1.52h-1.52Z" fill="#000000" stroke-width="1"></path>
    <path d="M27.43 12.19h1.52v1.52h-1.52Z" fill="#000000" stroke-width="1"></path>
    <path d="M27.43 6.09h1.52v1.53h-1.52Z" fill="#000000" stroke-width="1"></path>
    <path d="M27.43 3.05h1.52v1.52h-1.52Z" fill="#000000" stroke-width="1"></path>
    <path d="M25.91 16.76h1.52v1.52h-1.52Z" fill="#000000" stroke-width="1"></path>
    <path d="M25.91 1.52h1.52v1.53h-1.52Z" fill="#000000" stroke-width="1"></path>
    <path d="M24.38 15.24h1.53v1.52h-1.53Z" fill="#000000" stroke-width="1"></path>
    <path d="M24.38 3.05h1.53v1.52h-1.53Z" fill="#000000" stroke-width="1"></path>
    <path d="m19.81 0 0 3.05 1.53 0 0 -1.53 1.52 0 0 1.53 1.52 0 0 -3.05 -4.57 0z" fill="#000000" stroke-width="1"></path>
    <path d="M21.34 25.9h1.52v1.53h-1.52Z" fill="#000000" stroke-width="1"></path>
    <path d="m19.81 16.76 0 1.52 3.05 0 0 3.05 -3.05 0 0 1.53 4.57 0 0 -6.1 -4.57 0z" fill="#000000" stroke-width="1"></path>
    <path d="M19.81 27.43h1.53v1.52h-1.53Z" fill="#000000" stroke-width="1"></path>
    <path d="M19.81 24.38h1.53v1.52h-1.53Z" fill="#000000" stroke-width="1"></path>
    <path d="M19.81 13.71h1.53v1.53h-1.53Z" fill="#000000" stroke-width="1"></path>
    <path d="m19.81 12.19 1.53 0 0 1.52 3.04 0 0 -1.52 1.53 0 0 -4.57 -1.53 0 0 1.52 -1.52 0 0 -1.52 1.52 0 0 -1.53 -4.57 0 0 1.53 -1.52 0 0 3.05 1.52 0 0 1.52z" fill="#000000" stroke-width="1"></path>
    <path d="M18.29 28.95h1.52v1.53h-1.52Z" fill="#000000" stroke-width="1"></path>
    <path d="M18.29 22.86h1.52v1.52h-1.52Z" fill="#000000" stroke-width="1"></path>
    <path d="M18.29 15.24h1.52v1.52h-1.52Z" fill="#000000" stroke-width="1"></path>
    <path d="M18.29 3.05h1.52v1.52h-1.52Z" fill="#000000" stroke-width="1"></path>
    <path d="M16.76 27.43h1.53v1.52h-1.53Z" fill="#000000" stroke-width="1"></path>
    <path d="M16.76 10.67h1.53v1.52h-1.53Z" fill="#000000" stroke-width="1"></path>
    <path d="M16.76 1.52h1.53v1.53h-1.53Z" fill="#000000" stroke-width="1"></path>
    <path d="M15.24 25.9h1.52v1.53h-1.52Z" fill="#000000" stroke-width="1"></path>
    <path d="M15.24 18.28h1.52v3.05h-1.52Z" fill="#000000" stroke-width="1"></path>
    <path d="M15.24 12.19h1.52v1.52h-1.52Z" fill="#000000" stroke-width="1"></path>
    <path d="M15.24 3.05h1.52v1.52h-1.52Z" fill="#000000" stroke-width="1"></path>
    <path d="m13.72 30.48 -3.05 0 0 -3.05 -1.52 0 0 4.57 6.09 0 0 -4.57 -1.52 0 0 3.05z" fill="#000000" stroke-width="1"></path>
    <path d="M13.72 21.33h1.52v1.53h-1.52Z" fill="#000000" stroke-width="1"></path>
    <path d="M13.72 16.76h1.52v1.52h-1.52Z" fill="#000000" stroke-width="1"></path>
    <path d="M13.72 4.57h1.52v1.52h-1.52Z" fill="#000000" stroke-width="1"></path>
    <path d="M10.67 15.24h3.05v1.52h-3.05Z" fill="#000000" stroke-width="1"></path>
    <path d="M10.67 22.86h3.05v1.52h-3.05Z" fill="#000000" stroke-width="1"></path>
    <path d="M9.15 21.33h1.52v1.53H9.15Z" fill="#000000" stroke-width="1"></path>
    <path d="M9.15 16.76h1.52v1.52H9.15Z" fill="#000000" stroke-width="1"></path>
    <path d="m10.67 9.14 3.05 0 0 3.05 1.52 0 0 -4.57 -6.09 0 0 4.57 1.52 0 0 -3.05z" fill="#000000" stroke-width="1"></path>
    <path d="M7.62 25.9h1.53v1.53H7.62Z" fill="#000000" stroke-width="1"></path>
    <path d="M7.62 18.28h1.53v3.05H7.62Z" fill="#000000" stroke-width="1"></path>
    <path d="M7.62 12.19h1.53v1.52H7.62Z" fill="#000000" stroke-width="1"></path>
    <path d="M6.1 27.43h1.52v1.52H6.1Z" fill="#000000" stroke-width="1"></path>
    <path d="M6.1 10.67h1.52v1.52H6.1Z" fill="#000000" stroke-width="1"></path>
    <path d="M4.57 28.95H6.1v1.53H4.57Z" fill="#000000" stroke-width="1"></path>
    <path d="M4.57 22.86H6.1v1.52H4.57Z" fill="#000000" stroke-width="1"></path>
    <path d="M4.57 15.24H6.1v1.52H4.57Z" fill="#000000" stroke-width="1"></path>
    <path d="M4.57 9.14H6.1v1.53H4.57Z" fill="#000000" stroke-width="1"></path>
    <path d="M3.05 27.43h1.52v1.52H3.05Z" fill="#000000" stroke-width="1"></path>
    <path d="M3.05 24.38h1.52v1.52H3.05Z" fill="#000000" stroke-width="1"></path>
    <path d="m1.53 21.33 0 -3.05 3.04 0 0 -1.52 -4.57 0 0 6.1 4.57 0 0 -1.53 -3.04 0z" fill="#000000" stroke-width="1"></path>
    <path d="M3.05 13.71h1.52v1.53H3.05Z" fill="#000000" stroke-width="1"></path>
    <path d="M3.05 10.67h1.52v1.52H3.05Z" fill="#000000" stroke-width="1"></path>
    <path d="M1.53 25.9h1.52v1.53H1.53Z" fill="#000000" stroke-width="1"></path>
    <path d="M1.53 12.19h1.52v1.52H1.53Z" fill="#000000" stroke-width="1"></path>
  </g>
</svg>