<svg xmlns="http://www.w3.org/2000/svg" viewBox="0 0 32 32" id="Interface-Essential-Zoom-In-Page--Streamline-Pixel">
  <desc>
    Interface Essential Zoom In Page Streamline Icon: https://streamlinehq.com
  </desc>
  <title>interface-essential-zoom-in-page</title>
  <g>
    <path d="M30.48 9.14H32v4.57h-1.52Z" fill="#000000" stroke-width="1"></path>
    <path d="M30.48 1.52H32v4.57h-1.52Z" fill="#000000" stroke-width="1"></path>
    <path d="m30.48 25.9 -1.53 0 0 -1.52 -1.52 0 0 -1.52 -1.52 0 0 3.04 -3.05 0 0 1.53 1.52 0 0 1.52 1.53 0 0 1.53 1.52 0 0 1.52 3.05 0 0 -1.52 1.52 0 0 -3.05 -1.52 0 0 -1.53z" fill="#000000" stroke-width="1"></path>
    <path d="M25.91 0h4.57v1.52h-4.57Z" fill="#000000" stroke-width="1"></path>
    <path d="M27.43 18.28h1.52v4.58h-1.52Z" fill="#000000" stroke-width="1"></path>
    <path d="M25.91 15.24h1.52v3.04h-1.52Z" fill="#000000" stroke-width="1"></path>
    <path d="m24.38 19.81 -3.04 0 0 -3.05 -1.53 0 0 3.05 -3.05 0 0 1.52 3.05 0 0 3.05 1.53 0 0 -3.05 3.04 0 0 -1.52z" fill="#000000" stroke-width="1"></path>
    <path d="M22.86 13.71h3.05v1.53h-3.05Z" fill="#000000" stroke-width="1"></path>
    <path d="M18.29 27.43h4.57v1.52h-4.57Z" fill="#000000" stroke-width="1"></path>
    <path d="M18.29 12.19h4.57v1.52h-4.57Z" fill="#000000" stroke-width="1"></path>
    <path d="M18.29 0h4.57v1.52h-4.57Z" fill="#000000" stroke-width="1"></path>
    <path d="M15.24 25.9h3.05v1.53h-3.05Z" fill="#000000" stroke-width="1"></path>
    <path d="M15.24 13.71h3.05v1.53h-3.05Z" fill="#000000" stroke-width="1"></path>
    <path d="M13.72 22.86h1.52v3.04h-1.52Z" fill="#000000" stroke-width="1"></path>
    <path d="M13.72 15.24h1.52v3.04h-1.52Z" fill="#000000" stroke-width="1"></path>
    <path d="M12.19 18.28h1.53v4.58h-1.53Z" fill="#000000" stroke-width="1"></path>
    <path d="M9.15 30.48h4.57V32H9.15Z" fill="#000000" stroke-width="1"></path>
    <path d="M9.15 0h4.57v1.52H9.15Z" fill="#000000" stroke-width="1"></path>
    <path d="M1.53 30.48H6.1V32H1.53Z" fill="#000000" stroke-width="1"></path>
    <path d="M1.53 0H6.1v1.52H1.53Z" fill="#000000" stroke-width="1"></path>
    <path d="M0 25.9h1.53v4.58H0Z" fill="#000000" stroke-width="1"></path>
    <path d="M0 18.28h1.53v4.58H0Z" fill="#000000" stroke-width="1"></path>
    <path d="M0 9.14h1.53v4.57H0Z" fill="#000000" stroke-width="1"></path>
    <path d="M0 1.52h1.53v4.57H0Z" fill="#000000" stroke-width="1"></path>
  </g>
</svg>