<svg xmlns="http://www.w3.org/2000/svg" viewBox="0 0 32 32" id="Interface-Essential-Loading-50-Percent-1--Streamline-Pixel">
  <desc>
    Interface Essential Loading 50 Percent 1 Streamline Icon: https://streamlinehq.com
  </desc>
  <title>interface-essential-loading-50-percent-1</title>
  <g>
    <path d="M0.765 12.19h1.52v7.62H0.765Z" fill="#000000" stroke-width="1"></path>
    <path d="M2.285 19.81h1.53v3.05h-1.53Z" fill="#000000" stroke-width="1"></path>
    <path d="M2.285 9.14h1.53v3.05h-1.53Z" fill="#000000" stroke-width="1"></path>
    <path d="M3.815 22.86h1.52v3.04h-1.52Z" fill="#000000" stroke-width="1"></path>
    <path d="M3.815 6.09h1.52v3.05h-1.52Z" fill="#000000" stroke-width="1"></path>
    <path d="M5.335 25.9h3.05v1.53h-3.05Z" fill="#000000" stroke-width="1"></path>
    <path d="M5.335 4.57h3.05v1.52h-3.05Z" fill="#000000" stroke-width="1"></path>
    <path d="M8.385 27.43h3.04v1.52h-3.04Z" fill="#000000" stroke-width="1"></path>
    <path d="M8.385 3.05h3.04v1.52h-3.04Z" fill="#000000" stroke-width="1"></path>
    <path d="M11.425 22.86h1.53v1.52h-1.53Z" fill="#000000" stroke-width="1"></path>
    <path d="M11.425 18.29h1.53v1.52h-1.53Z" fill="#000000" stroke-width="1"></path>
    <path d="m14.475 16.76 0 -4.57 -3.05 0 0 -1.52 3.05 0 0 -1.53 -4.57 0 0 4.57 3.05 0 0 1.53 -3.05 0 0 1.52 4.57 0z" fill="#000000" stroke-width="1"></path>
    <path d="M12.955 21.33h1.52v1.53h-1.52Z" fill="#000000" stroke-width="1"></path>
    <path d="M14.475 19.81h1.53v1.52h-1.53Z" fill="#000000" stroke-width="1"></path>
    <path d="M16.005 22.86h1.52v1.52h-1.52Z" fill="#000000" stroke-width="1"></path>
    <path d="M16.005 18.29h1.52v1.52h-1.52Z" fill="#000000" stroke-width="1"></path>
    <path d="M20.575 16.76V9.14h-4.57v7.62Zm-3.05 -6.09h1.52v4.57h-1.52Z" fill="#000000" stroke-width="1"></path>
    <path d="m14.475 30.48 0 1.52 4.57 0 0 -1.52 3.05 0 0 -1.53 3.05 0 0 -1.52 1.52 0 0 -1.53 1.53 0 0 -3.04 1.52 0 0 -3.05 1.52 0 0 -7.62 -1.52 0 0 -3.05 -1.52 0 0 -3.05 -1.53 0 0 -1.52 -1.52 0 0 -1.52 -3.05 0 0 -1.53 -3.05 0 0 -1.52 -4.57 0 0 1.52 -3.05 0 0 1.53 3.05 0 0 1.52 3.05 0 0 1.52 3.05 0 0 1.53 3.05 0 0 3.05 1.52 0 0 3.04 1.52 0 0 4.58 -1.52 0 0 3.04 -1.52 0 0 3.05 -3.05 0 0 1.52 -3.05 0 0 1.53 -3.05 0 0 1.52 -3.05 0 0 1.53 3.05 0z" fill="#000000" stroke-width="1"></path>
  </g>
</svg>