<svg xmlns="http://www.w3.org/2000/svg" viewBox="0 0 32 32" id="Interface-Essential-Shrink-4--Streamline-Pixel">
  <desc>
    Interface Essential Shrink 4 Streamline Icon: https://streamlinehq.com
  </desc>
  <title>interface-essential-shrink-4</title>
  <g>
    <path d="M30.48 30.47H32V32h-1.52Z" fill="#000000" stroke-width="1"></path>
    <path d="M30.48 0H32v1.52h-1.52Z" fill="#000000" stroke-width="1"></path>
    <path d="M28.95 28.95h1.53v1.52h-1.53Z" fill="#000000" stroke-width="1"></path>
    <path d="M28.95 1.52h1.53v1.53h-1.53Z" fill="#000000" stroke-width="1"></path>
    <path d="M27.43 27.43h1.52v1.52h-1.52Z" fill="#000000" stroke-width="1"></path>
    <path d="M27.43 3.05h1.52v1.52h-1.52Z" fill="#000000" stroke-width="1"></path>
    <path d="M25.9 25.9h1.53v1.53H25.9Z" fill="#000000" stroke-width="1"></path>
    <path d="m28.95 24.38 0 -1.53 -6.09 0 0 6.1 1.52 0 0 -3.05 1.52 0 0 -1.52 3.05 0z" fill="#000000" stroke-width="1"></path>
    <path d="M25.9 4.57h1.53v1.52H25.9Z" fill="#000000" stroke-width="1"></path>
    <path d="m24.38 3.05 -1.52 0 0 6.09 6.09 0 0 -1.52 -3.05 0 0 -1.53 -1.52 0 0 -3.04z" fill="#000000" stroke-width="1"></path>
    <path d="M9.14 19.81h1.53v1.52h1.52v1.52h7.62v-1.52h1.52v-1.52h1.53v-7.62h-1.53v-1.53h-1.52V9.14h-7.62v1.52h-1.52v1.53H9.14Zm9.15 -6.1h1.52v1.53h-1.52Zm-6.1 0h1.52v1.53h-1.52Zm0 3.05h1.52v1.52h4.58v-1.52h1.52v1.52h-1.52v1.53h-4.58v-1.53h-1.52Z" fill="#000000" stroke-width="1"></path>
    <path d="m7.62 28.95 1.52 0 0 -6.1 -6.09 0 0 1.53 3.05 0 0 1.52 1.52 0 0 3.05z" fill="#000000" stroke-width="1"></path>
    <path d="M4.57 25.9H6.1v1.53H4.57Z" fill="#000000" stroke-width="1"></path>
    <path d="m3.05 7.62 0 1.52 6.09 0 0 -6.09 -1.52 0 0 3.04 -1.52 0 0 1.53 -3.05 0z" fill="#000000" stroke-width="1"></path>
    <path d="M4.57 4.57H6.1v1.52H4.57Z" fill="#000000" stroke-width="1"></path>
    <path d="M3.05 27.43h1.52v1.52H3.05Z" fill="#000000" stroke-width="1"></path>
    <path d="M3.05 3.05h1.52v1.52H3.05Z" fill="#000000" stroke-width="1"></path>
    <path d="M1.52 28.95h1.53v1.52H1.52Z" fill="#000000" stroke-width="1"></path>
    <path d="M1.52 1.52h1.53v1.53H1.52Z" fill="#000000" stroke-width="1"></path>
    <path d="M0 30.47h1.52V32H0Z" fill="#000000" stroke-width="1"></path>
    <path d="M0 0h1.52v1.52H0Z" fill="#000000" stroke-width="1"></path>
  </g>
</svg>