<svg xmlns="http://www.w3.org/2000/svg" viewBox="0 0 32 32" id="Interface-Essential-Scroll-Horizontal--Streamline-Pixel">
  <desc>
    Interface Essential Scroll Horizontal Streamline Icon: https://streamlinehq.com
  </desc>
  <title>interface-essential-scroll-horizontal</title>
  <g>
    <path d="M7.62 22.855h1.52v1.53H7.62Z" fill="#000000" stroke-width="1"></path>
    <path d="M22.86 22.855h1.52v1.53h-1.52Z" fill="#000000" stroke-width="1"></path>
    <path d="M6.1 21.335h1.52v1.52H6.1Z" fill="#000000" stroke-width="1"></path>
    <path d="M24.38 21.335h1.53v1.52h-1.53Z" fill="#000000" stroke-width="1"></path>
    <path d="M4.57 19.805H6.1v1.53H4.57Z" fill="#000000" stroke-width="1"></path>
    <path d="M21.33 9.145h1.53v13.71h-1.53Z" fill="#000000" stroke-width="1"></path>
    <path d="M25.91 19.805h1.52v1.53h-1.52Z" fill="#000000" stroke-width="1"></path>
    <path d="M3.05 18.285h1.52v1.52H3.05Z" fill="#000000" stroke-width="1"></path>
    <path d="M27.43 18.285h1.52v1.52h-1.52Z" fill="#000000" stroke-width="1"></path>
    <path d="M1.52 16.765h1.53v1.52H1.52Z" fill="#000000" stroke-width="1"></path>
    <path d="m18.29 12.195 -4.58 0 0 1.52 -1.52 0 0 4.57 1.52 0 0 1.52 4.58 0 0 -1.52 1.52 0 0 -4.57 -1.52 0 0 -1.52z" fill="#000000" stroke-width="1"></path>
    <path d="M28.95 16.765h1.53v1.52h-1.53Z" fill="#000000" stroke-width="1"></path>
    <path d="M0 15.235h1.52v1.53H0Z" fill="#000000" stroke-width="1"></path>
    <path d="M30.48 15.235H32v1.53h-1.52Z" fill="#000000" stroke-width="1"></path>
    <path d="M1.52 13.715h1.53v1.52H1.52Z" fill="#000000" stroke-width="1"></path>
    <path d="M28.95 13.715h1.53v1.52h-1.53Z" fill="#000000" stroke-width="1"></path>
    <path d="M3.05 12.195h1.52v1.52H3.05Z" fill="#000000" stroke-width="1"></path>
    <path d="M27.43 12.195h1.52v1.52h-1.52Z" fill="#000000" stroke-width="1"></path>
    <path d="M4.57 10.665H6.1v1.53H4.57Z" fill="#000000" stroke-width="1"></path>
    <path d="M9.14 9.145h1.53v13.71H9.14Z" fill="#000000" stroke-width="1"></path>
    <path d="M25.91 10.665h1.52v1.53h-1.52Z" fill="#000000" stroke-width="1"></path>
    <path d="M6.1 9.145h1.52v1.52H6.1Z" fill="#000000" stroke-width="1"></path>
    <path d="M24.38 9.145h1.53v1.52h-1.53Z" fill="#000000" stroke-width="1"></path>
    <path d="M7.62 7.615h1.52v1.53H7.62Z" fill="#000000" stroke-width="1"></path>
    <path d="M22.86 7.615h1.52v1.53h-1.52Z" fill="#000000" stroke-width="1"></path>
  </g>
</svg>