<svg xmlns="http://www.w3.org/2000/svg" viewBox="0 0 32 32" id="Interface-Essential-Send-Mail--Streamline-Pixel">
  <desc>
    Interface Essential Send Mail Streamline Icon: https://streamlinehq.com
  </desc>
  <title>interface-essential-send-mail</title>
  <g>
    <path d="M25.9 11.43H32v1.52h-6.1Z" fill="#000000" stroke-width="1"></path>
    <path d="M28.95 14.48H32V16h-3.05Z" fill="#000000" stroke-width="1"></path>
    <path d="m9.14 22.1 7.62 0 0 1.52 7.62 0 0 -3.05 4.57 0 0 -3.04 -1.52 0 0 1.52 -25.91 0 0 -1.52 -1.52 0 0 3.04 9.14 0 0 1.53z" fill="#000000" stroke-width="1"></path>
    <path d="M24.38 16h3.05v1.53h-3.05Z" fill="#000000" stroke-width="1"></path>
    <path d="M22.85 8.38h3.05v1.53h-3.05Z" fill="#000000" stroke-width="1"></path>
    <path d="M21.33 14.48h3.05V16h-3.05Z" fill="#000000" stroke-width="1"></path>
    <path d="m18.28 12.95 -1.52 0 0 1.53 4.57 0 0 -1.53 -1.52 0 0 -1.52 -1.53 0 0 1.52z" fill="#000000" stroke-width="1"></path>
    <path d="m19.81 11.43 1.52 0 0 -3.05 -4.57 0 0 1.53 3.05 0 0 1.52z" fill="#000000" stroke-width="1"></path>
    <path d="M13.71 9.91h3.05v1.52h-3.05Z" fill="#000000" stroke-width="1"></path>
    <path d="M12.19 14.48h4.57V16h-4.57Z" fill="#000000" stroke-width="1"></path>
    <path d="M10.66 11.43h3.05v1.52h-3.05Z" fill="#000000" stroke-width="1"></path>
    <path d="M7.62 12.95h3.04v1.53H7.62Z" fill="#000000" stroke-width="1"></path>
    <path d="M4.57 14.48h3.05V16H4.57Z" fill="#000000" stroke-width="1"></path>
    <path d="M1.52 16h3.05v1.53H1.52Z" fill="#000000" stroke-width="1"></path>
  </g>
</svg>