<svg xmlns="http://www.w3.org/2000/svg" viewBox="0 0 32 32" id="Interface-Essential-Scroll-Vertical--Streamline-Pixel">
  <desc>
    Interface Essential Scroll Vertical Streamline Icon: https://streamlinehq.com
  </desc>
  <title>interface-essential-scroll-vertical</title>
  <g>
    <path d="M22.855 22.86h1.53v1.52h-1.53Z" fill="#000000" stroke-width="1"></path>
    <path d="M22.855 7.62h1.53v1.52h-1.53Z" fill="#000000" stroke-width="1"></path>
    <path d="M21.335 24.38h1.52v1.52h-1.52Z" fill="#000000" stroke-width="1"></path>
    <path d="M21.335 6.09h1.52v1.53h-1.52Z" fill="#000000" stroke-width="1"></path>
    <path d="M19.805 25.9h1.53v1.53h-1.53Z" fill="#000000" stroke-width="1"></path>
    <path d="M9.145 9.14h13.71v1.53H9.145Z" fill="#000000" stroke-width="1"></path>
    <path d="M19.805 4.57h1.53v1.52h-1.53Z" fill="#000000" stroke-width="1"></path>
    <path d="M18.285 27.43h1.52v1.52h-1.52Z" fill="#000000" stroke-width="1"></path>
    <path d="M18.285 3.05h1.52v1.52h-1.52Z" fill="#000000" stroke-width="1"></path>
    <path d="M16.765 28.95h1.52v1.53h-1.52Z" fill="#000000" stroke-width="1"></path>
    <path d="m18.285 19.81 0 -1.52 1.52 0 0 -4.58 -1.52 0 0 -1.52 -4.57 0 0 1.52 -1.52 0 0 4.58 1.52 0 0 1.52 4.57 0z" fill="#000000" stroke-width="1"></path>
    <path d="M16.765 1.52h1.52v1.53h-1.52Z" fill="#000000" stroke-width="1"></path>
    <path d="M15.235 30.48h1.53V32h-1.53Z" fill="#000000" stroke-width="1"></path>
    <path d="M15.235 0h1.53v1.52h-1.53Z" fill="#000000" stroke-width="1"></path>
    <path d="M13.715 28.95h1.52v1.53h-1.52Z" fill="#000000" stroke-width="1"></path>
    <path d="M13.715 1.52h1.52v1.53h-1.52Z" fill="#000000" stroke-width="1"></path>
    <path d="M12.195 27.43h1.52v1.52h-1.52Z" fill="#000000" stroke-width="1"></path>
    <path d="M12.195 3.05h1.52v1.52h-1.52Z" fill="#000000" stroke-width="1"></path>
    <path d="M10.665 25.9h1.53v1.53h-1.53Z" fill="#000000" stroke-width="1"></path>
    <path d="M9.145 21.33h13.71v1.53H9.145Z" fill="#000000" stroke-width="1"></path>
    <path d="M10.665 4.57h1.53v1.52h-1.53Z" fill="#000000" stroke-width="1"></path>
    <path d="M9.145 24.38h1.52v1.52h-1.52Z" fill="#000000" stroke-width="1"></path>
    <path d="M9.145 6.09h1.52v1.53h-1.52Z" fill="#000000" stroke-width="1"></path>
    <path d="M7.615 22.86h1.53v1.52h-1.53Z" fill="#000000" stroke-width="1"></path>
    <path d="M7.615 7.62h1.53v1.52h-1.53Z" fill="#000000" stroke-width="1"></path>
  </g>
</svg>