<svg xmlns="http://www.w3.org/2000/svg" viewBox="0 0 32 32" id="Interface-Essential-Finger-Print-Scan--Streamline-Pixel">
  <desc>
    Interface Essential Finger Print Scan Streamline Icon: https://streamlinehq.com
  </desc>
  <title>interface-essential-finger-print-scan</title>
  <g>
    <path d="M27.43 10.67h1.52v13.71h-1.52Z" fill="#000000" stroke-width="1"></path>
    <path d="M27.43 7.62h1.52v1.52h-1.52Z" fill="#000000" stroke-width="1"></path>
    <path d="M25.91 24.38h1.52v3.05h-1.52Z" fill="#000000" stroke-width="1"></path>
    <path d="M25.91 4.57h1.52v3.05h-1.52Z" fill="#000000" stroke-width="1"></path>
    <path d="M24.38 18.29h1.53v4.57h-1.53Z" fill="#000000" stroke-width="1"></path>
    <path d="M24.38 9.14h1.53v4.57h-1.53Z" fill="#000000" stroke-width="1"></path>
    <path d="M22.86 22.86h1.52v3.05h-1.52Z" fill="#000000" stroke-width="1"></path>
    <path d="M22.86 6.1h1.52v3.04h-1.52Z" fill="#000000" stroke-width="1"></path>
    <path d="M21.33 28.95h1.53v1.53h-1.53Z" fill="#000000" stroke-width="1"></path>
    <path d="M21.33 10.67h1.53v10.66h-1.53Z" fill="#000000" stroke-width="1"></path>
    <path d="M19.81 4.57h3.05V6.1h-3.05Z" fill="#000000" stroke-width="1"></path>
    <path d="M21.33 1.52h1.53v1.53h-1.53Z" fill="#000000" stroke-width="1"></path>
    <path d="M19.81 25.91h3.05v1.52h-3.05Z" fill="#000000" stroke-width="1"></path>
    <path d="M19.81 9.14h1.52v1.53h-1.52Z" fill="#000000" stroke-width="1"></path>
    <path d="M18.29 30.48h3.04V32h-3.04Z" fill="#000000" stroke-width="1"></path>
    <path d="M18.29 22.86h1.52v1.52h-1.52Z" fill="#000000" stroke-width="1"></path>
    <path d="M18.29 16.76h1.52v3.05h-1.52Z" fill="#000000" stroke-width="1"></path>
    <path d="M18.29 12.19h1.52v3.05h-1.52Z" fill="#000000" stroke-width="1"></path>
    <path d="M16.76 3.05h3.05v1.52h-3.05Z" fill="#000000" stroke-width="1"></path>
    <path d="M12.19 27.43h7.62v1.52h-7.62Z" fill="#000000" stroke-width="1"></path>
    <path d="M15.24 10.67h3.05v1.52h-3.05Z" fill="#000000" stroke-width="1"></path>
    <path d="M13.71 19.81h4.58v1.52h-4.58Z" fill="#000000" stroke-width="1"></path>
    <path d="M15.24 13.71h1.52v4.58h-1.52Z" fill="#000000" stroke-width="1"></path>
    <path d="M13.71 6.1h4.58v1.52h-4.58Z" fill="#000000" stroke-width="1"></path>
    <path d="M13.71 24.38h4.58v1.53h-4.58Z" fill="#000000" stroke-width="1"></path>
    <path d="M12.19 3.05h3.05v1.52h-3.05Z" fill="#000000" stroke-width="1"></path>
    <path d="M10.67 30.48h4.57V32h-4.57Z" fill="#000000" stroke-width="1"></path>
    <path d="M12.19 22.86h1.52v1.52h-1.52Z" fill="#000000" stroke-width="1"></path>
    <path d="M12.19 13.71h1.52v6.1h-1.52Z" fill="#000000" stroke-width="1"></path>
    <path d="M10.67 0h10.66v1.52H10.67Z" fill="#000000" stroke-width="1"></path>
    <path d="M10.67 9.14h1.52v1.53h-1.52Z" fill="#000000" stroke-width="1"></path>
    <path d="M9.14 4.57h3.05V6.1H9.14Z" fill="#000000" stroke-width="1"></path>
    <path d="M7.62 28.95h3.05v1.53H7.62Z" fill="#000000" stroke-width="1"></path>
    <path d="M9.14 19.81h1.53v1.52H9.14Z" fill="#000000" stroke-width="1"></path>
    <path d="M9.14 15.24h1.53v3.05H9.14Z" fill="#000000" stroke-width="1"></path>
    <path d="M9.14 10.67h1.53v3.04H9.14Z" fill="#000000" stroke-width="1"></path>
    <path d="M7.62 22.86h1.52v3.05H7.62Z" fill="#000000" stroke-width="1"></path>
    <path d="M7.62 6.1h1.52v3.04H7.62Z" fill="#000000" stroke-width="1"></path>
    <path d="M6.1 27.43h1.52v1.52H6.1Z" fill="#000000" stroke-width="1"></path>
    <path d="M6.1 10.67h1.52v12.19H6.1Z" fill="#000000" stroke-width="1"></path>
    <path d="M6.1 3.05h1.52v1.52H6.1Z" fill="#000000" stroke-width="1"></path>
    <path d="M4.57 24.38H6.1v3.05H4.57Z" fill="#000000" stroke-width="1"></path>
    <path d="M4.57 4.57H6.1v3.05H4.57Z" fill="#000000" stroke-width="1"></path>
    <path d="M3.05 19.81h1.52v4.57H3.05Z" fill="#000000" stroke-width="1"></path>
    <path d="M3.05 7.62h1.52v10.67H3.05Z" fill="#000000" stroke-width="1"></path>
  </g>
</svg>