<svg xmlns="http://www.w3.org/2000/svg" viewBox="0 0 32 32" id="Interface-Essential-Pin--Streamline-Pixel">
  <desc>
    Interface Essential Pin Streamline Icon: https://streamlinehq.com
  </desc>
  <title>interface-essential-pin</title>
  <g>
    <path d="M29.715 8.38h1.52v3.05h-1.52Z" fill="#000000" stroke-width="1"></path>
    <path d="M28.195 6.86h1.52v1.52h-1.52Z" fill="#000000" stroke-width="1"></path>
    <path d="M26.665 11.43h3.05v1.52h-3.05Z" fill="#000000" stroke-width="1"></path>
    <path d="M26.665 5.33h1.53v1.53h-1.53Z" fill="#000000" stroke-width="1"></path>
    <path d="M25.145 9.9h1.52v1.53h-1.52Z" fill="#000000" stroke-width="1"></path>
    <path d="M25.145 3.81h1.52v1.52h-1.52Z" fill="#000000" stroke-width="1"></path>
    <path d="M23.615 11.43h1.53v1.52h-1.53Z" fill="#000000" stroke-width="1"></path>
    <path d="M23.615 8.38h1.53V9.9h-1.53Z" fill="#000000" stroke-width="1"></path>
    <path d="M23.615 2.28h1.53v1.53h-1.53Z" fill="#000000" stroke-width="1"></path>
    <path d="M22.095 17.52h1.52v4.57h-1.52Z" fill="#000000" stroke-width="1"></path>
    <path d="M22.095 12.95h1.52v1.52h-1.52Z" fill="#000000" stroke-width="1"></path>
    <path d="M22.095 6.86h1.52v1.52h-1.52Z" fill="#000000" stroke-width="1"></path>
    <path d="M20.575 0.76h3.04v1.52h-3.04Z" fill="#000000" stroke-width="1"></path>
    <path d="M20.575 22.09h1.52v3.05h-1.52Z" fill="#000000" stroke-width="1"></path>
    <path d="M20.575 14.47h1.52v3.05h-1.52Z" fill="#000000" stroke-width="1"></path>
    <path d="M20.575 5.33h1.52v1.53h-1.52Z" fill="#000000" stroke-width="1"></path>
    <path d="M19.045 25.14h1.53v1.52h-1.53Z" fill="#000000" stroke-width="1"></path>
    <path d="M19.045 6.86h1.53v1.52h-1.53Z" fill="#000000" stroke-width="1"></path>
    <path d="M19.045 2.28h1.53v3.05h-1.53Z" fill="#000000" stroke-width="1"></path>
    <path d="M17.525 16h1.52v1.52h-1.52Z" fill="#000000" stroke-width="1"></path>
    <path d="M17.525 8.38h1.52V9.9h-1.52Z" fill="#000000" stroke-width="1"></path>
    <path d="M16.005 26.66h3.04v1.53h-3.04Z" fill="#000000" stroke-width="1"></path>
    <path d="M16.005 14.47h1.52V16h-1.52Z" fill="#000000" stroke-width="1"></path>
    <path d="M14.475 25.14h1.53v1.52h-1.53Z" fill="#000000" stroke-width="1"></path>
    <path d="M14.475 12.95h1.53v1.52h-1.53Z" fill="#000000" stroke-width="1"></path>
    <path d="M14.475 9.9h3.05v1.53h-3.05Z" fill="#000000" stroke-width="1"></path>
    <path d="M12.955 23.62h1.52v1.52h-1.52Z" fill="#000000" stroke-width="1"></path>
    <path d="m3.815 29.71 1.52 0 0 -1.52 1.52 0 0 -1.53 1.53 0 0 -1.52 1.52 0 0 -1.52 3.05 0 0 -1.53 -1.53 0 0 -1.52 -1.52 0 0 -1.52 -1.52 0 0 3.04 -1.53 0 0 1.53 -1.52 0 0 1.52 -1.52 0 0 1.52 -1.53 0 0 1.53 -1.52 0 0 3.05 3.05 0 0 -1.53z" fill="#000000" stroke-width="1"></path>
    <path d="M9.905 8.38h4.57V9.9h-4.57Z" fill="#000000" stroke-width="1"></path>
    <path d="M6.855 9.9h3.05v1.53h-3.05Z" fill="#000000" stroke-width="1"></path>
    <path d="M6.855 17.52h1.53v1.53h-1.53Z" fill="#000000" stroke-width="1"></path>
    <path d="M5.335 16h1.52v1.52h-1.52Z" fill="#000000" stroke-width="1"></path>
    <path d="M5.335 11.43h1.52v1.52h-1.52Z" fill="#000000" stroke-width="1"></path>
    <path d="M3.815 12.95h1.52V16h-1.52Z" fill="#000000" stroke-width="1"></path>
  </g>
</svg>