<svg xmlns="http://www.w3.org/2000/svg" viewBox="0 0 32 32" id="Interface-Essential-Alert--Streamline-Pixel">
  <desc>
    Interface Essential Alert Streamline Icon: https://streamlinehq.com
  </desc>
  <title>interface-essential-alert</title>
  <g>
    <path d="M30.47 3.05H32v4.57h-1.53Z" fill="#000000" stroke-width="1"></path>
    <path d="M28.95 7.62h1.52v1.52h-1.52Z" fill="#000000" stroke-width="1"></path>
    <path d="M28.95 1.52h1.52v1.53h-1.52Z" fill="#000000" stroke-width="1"></path>
    <path d="M27.43 13.71h1.52v7.62h-1.52Z" fill="#000000" stroke-width="1"></path>
    <path d="M27.43 6.1h1.52v1.52h-1.52Z" fill="#000000" stroke-width="1"></path>
    <path d="M25.9 30.48h1.53V32H25.9Z" fill="#000000" stroke-width="1"></path>
    <path d="M25.9 21.33h1.53v3.05H25.9Z" fill="#000000" stroke-width="1"></path>
    <path d="M25.9 10.67h1.53v3.04H25.9Z" fill="#000000" stroke-width="1"></path>
    <path d="M25.9 4.57h1.53V6.1H25.9Z" fill="#000000" stroke-width="1"></path>
    <path d="M24.38 0h4.57v1.52h-4.57Z" fill="#000000" stroke-width="1"></path>
    <path d="M24.38 28.95h1.52v1.53h-1.52Z" fill="#000000" stroke-width="1"></path>
    <path d="M24.38 24.38h1.52v1.52h-1.52Z" fill="#000000" stroke-width="1"></path>
    <path d="M24.38 16.76h1.52v1.53h-1.52Z" fill="#000000" stroke-width="1"></path>
    <path d="M24.38 9.14h1.52v1.53h-1.52Z" fill="#000000" stroke-width="1"></path>
    <path d="M24.38 3.05h1.52v1.52h-1.52Z" fill="#000000" stroke-width="1"></path>
    <path d="m22.85 27.43 -3.04 0 0 1.52 4.57 0 0 -3.05 -1.53 0 0 1.53z" fill="#000000" stroke-width="1"></path>
    <path d="M22.85 7.62h1.53v1.52h-1.53Z" fill="#000000" stroke-width="1"></path>
    <path d="M22.85 1.52h1.53v1.53h-1.53Z" fill="#000000" stroke-width="1"></path>
    <path d="M21.33 22.86h1.52v1.52h-1.52Z" fill="#000000" stroke-width="1"></path>
    <path d="M21.33 10.67h1.52v1.52h-1.52Z" fill="#000000" stroke-width="1"></path>
    <path d="m21.33 16.76 -3.05 0 0 -1.52 -1.52 0 0 -4.57 -1.52 0 0 4.57 -1.53 0 0 4.57 4.57 0 0 -1.52 3.05 0 0 -1.53z" fill="#000000" stroke-width="1"></path>
    <path d="M19.81 6.1h3.04v1.52h-3.04Z" fill="#000000" stroke-width="1"></path>
    <path d="M12.19 28.95h7.62v1.53h-7.62Z" fill="#000000" stroke-width="1"></path>
    <path d="M15.24 25.9h1.52v1.53h-1.52Z" fill="#000000" stroke-width="1"></path>
    <path d="M15.24 7.62h1.52v1.52h-1.52Z" fill="#000000" stroke-width="1"></path>
    <path d="M12.19 4.57h7.62V6.1h-7.62Z" fill="#000000" stroke-width="1"></path>
    <path d="m9.14 27.43 0 -1.53 -1.52 0 0 3.05 4.57 0 0 -1.52 -3.05 0z" fill="#000000" stroke-width="1"></path>
    <path d="M9.14 6.1h3.05v1.52H9.14Z" fill="#000000" stroke-width="1"></path>
    <path d="M9.14 22.86h1.52v1.52H9.14Z" fill="#000000" stroke-width="1"></path>
    <path d="M9.14 10.67h1.52v1.52H9.14Z" fill="#000000" stroke-width="1"></path>
    <path d="M7.62 7.62h1.52v1.52H7.62Z" fill="#000000" stroke-width="1"></path>
    <path d="M7.62 1.52h1.52v1.53H7.62Z" fill="#000000" stroke-width="1"></path>
    <path d="M6.09 28.95h1.53v1.53H6.09Z" fill="#000000" stroke-width="1"></path>
    <path d="M6.09 24.38h1.53v1.52H6.09Z" fill="#000000" stroke-width="1"></path>
    <path d="M6.09 16.76h1.53v1.53H6.09Z" fill="#000000" stroke-width="1"></path>
    <path d="M6.09 9.14h1.53v1.53H6.09Z" fill="#000000" stroke-width="1"></path>
    <path d="M6.09 3.05h1.53v1.52H6.09Z" fill="#000000" stroke-width="1"></path>
    <path d="M4.57 30.48h1.52V32H4.57Z" fill="#000000" stroke-width="1"></path>
    <path d="M4.57 21.33h1.52v3.05H4.57Z" fill="#000000" stroke-width="1"></path>
    <path d="M4.57 10.67h1.52v3.04H4.57Z" fill="#000000" stroke-width="1"></path>
    <path d="M4.57 4.57h1.52V6.1H4.57Z" fill="#000000" stroke-width="1"></path>
    <path d="M3.05 0h4.57v1.52H3.05Z" fill="#000000" stroke-width="1"></path>
    <path d="M3.05 13.71h1.52v7.62H3.05Z" fill="#000000" stroke-width="1"></path>
    <path d="M3.05 6.1h1.52v1.52H3.05Z" fill="#000000" stroke-width="1"></path>
    <path d="M1.52 7.62h1.53v1.52H1.52Z" fill="#000000" stroke-width="1"></path>
    <path d="M1.52 1.52h1.53v1.53H1.52Z" fill="#000000" stroke-width="1"></path>
    <path d="M0 3.05h1.52v4.57H0Z" fill="#000000" stroke-width="1"></path>
  </g>
</svg>