<svg xmlns="http://www.w3.org/2000/svg" viewBox="0 0 32 32" id="Interface-Essential-Touch-Id-Smartphone--Streamline-Pixel">
  <desc>
    Interface Essential Touch Id Smartphone Streamline Icon: https://streamlinehq.com
  </desc>
  <title>interface-essential-touch-id-smartphone</title>
  <g>
    <path d="M6.855 1.52h-1.52v28.96h1.52V32h18.29v-1.52h1.52V1.52h-1.52V0H6.855Zm9.15 0h3.04v1.53h-3.04Zm-3.05 0h1.52v1.53h-1.52Zm7.62 3.05V3.05h4.57v25.9H6.855V3.05h4.57v1.52Z" fill="#000000" stroke-width="1"></path>
    <path d="M22.095 22.86h1.52v3.05h-1.52Z" fill="#000000" stroke-width="1"></path>
    <path d="M22.095 7.62h1.52v3.05h-1.52Z" fill="#000000" stroke-width="1"></path>
    <path d="M20.575 15.24h1.52v4.57h-1.52Z" fill="#000000" stroke-width="1"></path>
    <path d="M20.575 12.19h1.52v1.52h-1.52Z" fill="#000000" stroke-width="1"></path>
    <path d="M19.045 6.1h3.05v1.52h-3.05Z" fill="#000000" stroke-width="1"></path>
    <path d="M19.045 25.91h3.05v1.52h-3.05Z" fill="#000000" stroke-width="1"></path>
    <path d="M19.045 10.67h1.53v1.52h-1.53Z" fill="#000000" stroke-width="1"></path>
    <path d="M17.525 18.29h1.52v4.57h-1.52Z" fill="#000000" stroke-width="1"></path>
    <path d="M17.525 13.71h1.52v3.05h-1.52Z" fill="#000000" stroke-width="1"></path>
    <path d="M16.005 9.14h3.04v1.53h-3.04Z" fill="#000000" stroke-width="1"></path>
    <path d="M12.955 22.86h4.57v1.52h-4.57Z" fill="#000000" stroke-width="1"></path>
    <path d="M14.475 18.29h1.53v1.52h-1.53Z" fill="#000000" stroke-width="1"></path>
    <path d="M14.475 12.19h3.05v1.52h-3.05Z" fill="#000000" stroke-width="1"></path>
    <path d="M12.955 13.71h1.52v4.58h-1.52Z" fill="#000000" stroke-width="1"></path>
    <path d="M12.955 9.14h1.52v1.53h-1.52Z" fill="#000000" stroke-width="1"></path>
    <path d="M11.425 21.33h1.53v1.53h-1.53Z" fill="#000000" stroke-width="1"></path>
    <path d="M11.425 10.67h1.53v1.52h-1.53Z" fill="#000000" stroke-width="1"></path>
    <path d="M9.905 6.1h3.05v1.52h-3.05Z" fill="#000000" stroke-width="1"></path>
    <path d="M9.905 25.91h3.05v1.52h-3.05Z" fill="#000000" stroke-width="1"></path>
    <path d="M9.905 19.81h1.52v1.52h-1.52Z" fill="#000000" stroke-width="1"></path>
    <path d="M9.905 12.19h1.52v6.1h-1.52Z" fill="#000000" stroke-width="1"></path>
    <path d="M8.385 22.86h1.52v3.05h-1.52Z" fill="#000000" stroke-width="1"></path>
    <path d="M8.385 7.62h1.52v3.05h-1.52Z" fill="#000000" stroke-width="1"></path>
  </g>
</svg>