<svg xmlns="http://www.w3.org/2000/svg" viewBox="0 0 32 32" id="Interface-Essential-Stop-Sign-2--Streamline-Pixel">
  <desc>
    Interface Essential Stop Sign 2 Streamline Icon: https://streamlinehq.com
  </desc>
  <title>interface-essential-stop-sign-2</title>
  <g>
    <path d="M30.48 6.09h-1.53V4.57h-1.52V3.05h-1.52V1.52h-1.53V0H7.62v1.52H6.1v1.53H4.57v1.52H3.05v1.52H1.53v1.53H0v16.76h1.53v1.52h1.52v1.53h1.52v1.52H6.1v1.53h1.52V32h16.76v-1.52h1.53v-1.53h1.52v-1.52h1.52V25.9h1.53v-1.52H32V7.62h-1.52Zm-1.53 18.29h-1.52v1.52h-1.52v1.53h-1.53v1.52H7.62v-1.52H6.1V25.9H4.57v-1.52H3.05V7.62h1.52V6.09H6.1V4.57h1.52V3.05h16.76v1.52h1.53v1.52h1.52v1.53h1.52Z" fill="#000000" stroke-width="1"></path>
    <path d="M27.43 7.62h-1.52V6.09h-1.53V4.57H7.62v1.52H6.1v1.53H4.57v16.76H6.1v1.52h1.52v1.53h16.76V25.9h1.53v-1.52h1.52Zm-4.57 16.76h-1.52v1.52h-9.15v-1.52h-1.52v-3.05H9.15v-1.52H7.62v-1.53H6.1v-3.04h3.05v1.52h1.52v1.52h1.52V7.62h1.53v9.14h1.52V6.09h1.52v10.67h1.53V7.62h1.52v9.14h1.53v-6.09h1.52Z" fill="#000000" stroke-width="1"></path>
    <path d="M18.29 21.33h1.52v1.53h-1.52Z" fill="#000000" stroke-width="1"></path>
    <path d="M18.29 18.28h1.52v1.53h-1.52Z" fill="#000000" stroke-width="1"></path>
    <path d="M15.24 22.86h3.05v1.52h-3.05Z" fill="#000000" stroke-width="1"></path>
    <path d="M13.72 21.33h1.52v1.53h-1.52Z" fill="#000000" stroke-width="1"></path>
    <path d="M13.72 18.28h1.52v1.53h-1.52Z" fill="#000000" stroke-width="1"></path>
  </g>
</svg>