<svg xmlns="http://www.w3.org/2000/svg" viewBox="0 0 32 32" id="Interface-Essential-Note-Music--Streamline-Pixel">
  <desc>
    Interface Essential Note Music Streamline Icon: https://streamlinehq.com
  </desc>
  <title>interface-essential-note-music</title>
  <g>
    <path d="m28.185 6.86 -3.05 0 0 1.52 3.05 0 0 12.19 -3.05 0 0 1.53 -1.52 0 0 3.04 1.52 0 0 1.53 3.05 0 0 -1.53 1.53 0 0 -24.38 -4.58 0 0 1.53 3.05 0 0 4.57z" fill="#000000" stroke-width="1"></path>
    <path d="M20.565 8.38h4.57v1.53h-4.57Z" fill="#000000" stroke-width="1"></path>
    <path d="M20.565 2.29h4.57v1.52h-4.57Z" fill="#000000" stroke-width="1"></path>
    <path d="M15.995 9.91h4.57v1.52h-4.57Z" fill="#000000" stroke-width="1"></path>
    <path d="M15.995 3.81h4.57v1.53h-4.57Z" fill="#000000" stroke-width="1"></path>
    <path d="M11.425 11.43h4.57v1.52h-4.57Z" fill="#000000" stroke-width="1"></path>
    <path d="M11.425 5.34h4.57v1.52h-4.57Z" fill="#000000" stroke-width="1"></path>
    <path d="m3.805 31.24 3.05 0 0 -1.52 1.52 0 0 -15.24 3.05 0 0 -1.53 -3.05 0 0 -4.57 3.05 0 0 -1.52 -4.57 0 0 18.28 -3.05 0 0 1.53 -1.52 0 0 3.05 1.52 0 0 1.52z" fill="#000000" stroke-width="1"></path>
  </g>
</svg>