<svg xmlns="http://www.w3.org/2000/svg" viewBox="0 0 32 32" id="Interface-Essential-Synchronize-Arrows-Square-2--Streamline-Pixel">
  <desc>
    Interface Essential Synchronize Arrows Square 2 Streamline Icon: https://streamlinehq.com
  </desc>
  <title>interface-essential-synchronize-arrows-square-2</title>
  <g>
    <path d="M7.62 28.185h12.19v1.53H7.62Z" fill="#000000" stroke-width="1"></path>
    <path d="M6.1 26.665h1.52v1.52H6.1Z" fill="#000000" stroke-width="1"></path>
    <path d="m6.1 20.565 4.57 0 0 -1.52 -1.52 0 0 -1.52 -1.53 0 0 -1.53 -1.52 0 0 -1.52 -1.52 0 0 1.52 -1.53 0 0 1.53 -1.52 0 0 1.52 -1.53 0 0 1.52 4.58 0 0 6.1 1.52 0 0 -6.1z" fill="#000000" stroke-width="1"></path>
    <path d="m27.43 11.425 0 -6.09 -1.52 0 0 6.09 -4.57 0 0 1.52 1.52 0 0 1.53 1.53 0 0 1.52 1.52 0 0 1.53 1.52 0 0 -1.53 1.53 0 0 -1.52 1.52 0 0 -1.53 1.52 0 0 -1.52 -4.57 0z" fill="#000000" stroke-width="1"></path>
    <path d="M24.39 3.805h1.52v1.53h-1.52Z" fill="#000000" stroke-width="1"></path>
    <path d="M12.19 2.285h12.2v1.52h-12.2Z" fill="#000000" stroke-width="1"></path>
  </g>
</svg>