<svg xmlns="http://www.w3.org/2000/svg" viewBox="0 0 32 32" id="Interface-Essential-Lock-Door-Out--Streamline-Pixel">
  <desc>
    Interface Essential Lock Door Out Streamline Icon: https://streamlinehq.com
  </desc>
  <title>interface-essential-lock-door-out</title>
  <g>
    <path d="m5.33 28.95 0 3.05 25.91 0 0 -3.05 -3.05 0 0 -24.38 -1.52 0 0 24.38 -21.34 0z" fill="#000000" stroke-width="1"></path>
    <path d="M25.14 3.05h1.53v1.52h-1.53Z" fill="#000000" stroke-width="1"></path>
    <path d="M23.62 1.52h1.52v1.53h-1.52Z" fill="#000000" stroke-width="1"></path>
    <path d="M22.1 4.57h1.52v1.52H22.1Z" fill="#000000" stroke-width="1"></path>
    <path d="M12.95 0h10.67v1.52H12.95Z" fill="#000000" stroke-width="1"></path>
    <path d="M16 25.9v1.53h9.14V6.09h-1.52v4.58h-4.57v-6.1h3.05V3.05h-7.62v1.52h3.04v6.1h-4.57v1.52h4.57v6.09H16v1.53h1.52v6.09Zm3.05 -13.71h4.57v6.09h-4.57Zm0 7.62h4.57v6.09h-4.57Z" fill="#000000" stroke-width="1"></path>
    <path d="M12.95 16.76h1.53v9.14h-1.53Z" fill="#000000" stroke-width="1"></path>
    <path d="M12.95 4.57h1.53v1.52h-1.53Z" fill="#000000" stroke-width="1"></path>
    <path d="M11.43 6.09h1.52v3.05h-1.52Z" fill="#000000" stroke-width="1"></path>
    <path d="M11.43 1.52h1.52v1.53h-1.52Z" fill="#000000" stroke-width="1"></path>
    <path d="M9.91 3.05h1.52v1.52H9.91Z" fill="#000000" stroke-width="1"></path>
    <path d="M8.38 4.57h1.53v3.05H8.38Z" fill="#000000" stroke-width="1"></path>
    <path d="m5.33 21.33 1.53 0 0 3.05 1.52 0 0 -3.05 1.53 0 0 -3.05 -4.58 0 0 3.05z" fill="#000000" stroke-width="1"></path>
    <path d="M5.33 9.14h4.58v1.53H5.33Z" fill="#000000" stroke-width="1"></path>
    <path d="M2.29 25.9h10.66v1.53H2.29Z" fill="#000000" stroke-width="1"></path>
    <path d="m5.33 15.24 0 -4.57 -1.52 0 0 4.57 -1.52 0 0 1.52 10.66 0 0 -1.52 -1.52 0 0 -4.57 -1.52 0 0 4.57 -4.58 0z" fill="#000000" stroke-width="1"></path>
    <path d="M0.76 16.76h1.53v9.14H0.76Z" fill="#000000" stroke-width="1"></path>
  </g>
</svg>