<svg xmlns="http://www.w3.org/2000/svg" viewBox="0 0 32 32" id="Interface-Essential-Pacman-Loading--Streamline-Pixel">
  <desc>
    Interface Essential Pacman Loading Streamline Icon: https://streamlinehq.com
  </desc>
  <title>interface-essential-pacman-loading</title>
  <g>
    <g>
      <path d="M16.76 19.81h1.52v1.52h3.05v1.53h1.52v1.52h-1.52v1.52h-3.05v1.53h-1.52v1.52h1.52v1.53h3.05V32h4.57v-1.52h3.05v-1.53h1.52V25.9H32v-4.57h-1.53v-3.04h-1.52v-1.53H25.9v-1.52h-4.57v1.52h-3.05v1.53h-1.52Zm7.62 0h1.52v1.52h-1.52Z" fill="#000000" stroke-width="1"></path>
      <path d="M28.95 6.09h1.52v1.53h-1.52Z" fill="#000000" stroke-width="1"></path>
      <path d="M24.38 10.67h1.52v1.52h-1.52Z" fill="#000000" stroke-width="1"></path>
      <path d="M24.38 6.09h1.52v1.53h-1.52Z" fill="#000000" stroke-width="1"></path>
      <path d="M24.38 1.52h1.52v1.53h-1.52Z" fill="#000000" stroke-width="1"></path>
      <path d="M19.8 6.09h1.53v1.53H19.8Z" fill="#000000" stroke-width="1"></path>
      <path d="M15.23 22.86h1.53v1.52h-1.53Z" fill="#000000" stroke-width="1"></path>
      <path d="M15.23 6.09h1.53v7.62h-1.53Z" fill="#000000" stroke-width="1"></path>
      <path d="M13.71 13.71h1.52v1.53h-1.52Z" fill="#000000" stroke-width="1"></path>
      <path d="M13.71 3.05h1.52v3.04h-1.52Z" fill="#000000" stroke-width="1"></path>
      <path d="M12.19 12.19h1.52v1.52h-1.52Z" fill="#000000" stroke-width="1"></path>
      <path d="M12.19 1.52h1.52v1.53h-1.52Z" fill="#000000" stroke-width="1"></path>
      <path d="M10.66 22.86h1.53v1.52h-1.53Z" fill="#000000" stroke-width="1"></path>
      <path d="M10.66 13.71h1.53v1.53h-1.53Z" fill="#000000" stroke-width="1"></path>
      <path d="M10.66 6.09h1.53v1.53h-1.53Z" fill="#000000" stroke-width="1"></path>
      <path d="M9.14 12.19h1.52v1.52H9.14Z" fill="#000000" stroke-width="1"></path>
      <path d="M7.61 13.71h1.53v1.53H7.61Z" fill="#000000" stroke-width="1"></path>
      <path d="M7.61 6.09h1.53v1.53H7.61Z" fill="#000000" stroke-width="1"></path>
      <path d="M6.09 27.43h1.52v1.52H6.09Z" fill="#000000" stroke-width="1"></path>
      <path d="M6.09 22.86h1.52v1.52H6.09Z" fill="#000000" stroke-width="1"></path>
      <path d="M6.09 18.29h1.52v1.52H6.09Z" fill="#000000" stroke-width="1"></path>
      <path d="M6.09 12.19h1.52v1.52H6.09Z" fill="#000000" stroke-width="1"></path>
      <path d="M4.57 0h7.62v1.52H4.57Z" fill="#000000" stroke-width="1"></path>
      <path d="M4.57 13.71h1.52v1.53H4.57Z" fill="#000000" stroke-width="1"></path>
      <path d="M3.04 12.19h1.53v1.52H3.04Z" fill="#000000" stroke-width="1"></path>
      <path d="M3.04 1.52h1.53v1.53H3.04Z" fill="#000000" stroke-width="1"></path>
      <path d="M1.52 22.86h1.52v1.52H1.52Z" fill="#000000" stroke-width="1"></path>
      <path d="M1.52 13.71h1.52v1.53H1.52Z" fill="#000000" stroke-width="1"></path>
      <path d="M1.52 3.05h1.52v3.04H1.52Z" fill="#000000" stroke-width="1"></path>
    </g>
    <path d="M0 6.09h1.52v7.62H0Z" fill="#000000" stroke-width="1"></path>
  </g>
</svg>