<svg xmlns="http://www.w3.org/2000/svg" viewBox="0 0 32 32" id="Interface-Essential-Alarm-Bell-Off--Streamline-Pixel">
  <desc>
    Interface Essential Alarm Bell Off Streamline Icon: https://streamlinehq.com
  </desc>
  <title>interface-essential-alarm-bell-off</title>
  <g>
    <path d="M30.48 3.05H32v25.9h-1.52Z" fill="#000000" stroke-width="1"></path>
    <path d="M28.96 28.95h1.52v1.52h-1.52Z" fill="#000000" stroke-width="1"></path>
    <path d="M27.43 19.81h1.53v3.04h-1.53Z" fill="#000000" stroke-width="1"></path>
    <path d="M3.05 30.47h25.91V32H3.05Z" fill="#000000" stroke-width="1"></path>
    <path d="M25.91 22.85h1.52v1.53h-1.52Z" fill="#000000" stroke-width="1"></path>
    <path d="M25.91 18.28h1.52v1.53h-1.52Z" fill="#000000" stroke-width="1"></path>
    <path d="M24.38 10.66h1.53v7.62h-1.53Z" fill="#000000" stroke-width="1"></path>
    <path d="M22.86 24.38h3.05v1.52h-3.05Z" fill="#000000" stroke-width="1"></path>
    <path d="M22.86 21.33h1.52v1.52h-1.52Z" fill="#000000" stroke-width="1"></path>
    <path d="M9.15 25.9h13.71v1.53H9.15Z" fill="#000000" stroke-width="1"></path>
    <path d="M19.81 4.57h1.53v1.52h-1.53Z" fill="#000000" stroke-width="1"></path>
    <path d="m18.29 24.38 0 -1.53 1.52 0 0 -1.52 3.05 0 0 -1.52 -7.62 0 0 1.52 -1.52 0 0 3.05 4.57 0z" fill="#000000" stroke-width="1"></path>
    <path d="M13.72 3.05h6.09v1.52h-6.09Z" fill="#000000" stroke-width="1"></path>
    <path d="M10.67 4.57h3.05v1.52h-3.05Z" fill="#000000" stroke-width="1"></path>
    <path d="M9.15 6.09h1.52v1.53H9.15Z" fill="#000000" stroke-width="1"></path>
    <path d="M7.62 7.62h1.53v3.04H7.62Z" fill="#000000" stroke-width="1"></path>
    <path d="M6.1 10.66h1.52v7.62H6.1Z" fill="#000000" stroke-width="1"></path>
    <path d="M4.58 18.28H6.1v1.53H4.58Z" fill="#000000" stroke-width="1"></path>
    <path d="m4.58 28.95 0 -1.52 1.52 0 0 -1.53 1.52 0 0 -1.52 1.53 0 0 -1.53 1.52 0 0 -1.52 1.52 0 0 -1.52 1.53 0 0 -1.53 1.52 0 0 -1.52 1.53 0 0 -1.52 1.52 0 0 -1.53 1.52 0 0 -1.52 1.53 0 0 -1.53 1.52 0 0 -1.52 1.52 0 0 -1.52 1.53 0 0 -1.53 1.52 0 0 -1.52 1.53 0 0 -1.52 1.52 0 0 -1.53 -1.52 0 0 -1.52L3.05 0l0 1.52 24.38 0 0 1.53 -1.52 0 0 1.52 -1.53 0 0 1.52 -1.52 0 0 1.53 -1.52 0 0 1.52 -1.53 0 0 1.52 -1.52 0 0 1.53 -1.52 0 0 1.52 -1.53 0 0 1.53 -1.52 0 0 1.52 -1.53 0 0 1.52 -1.52 0 0 1.53 -1.52 0 0 1.52 -1.53 0 0 1.52 -1.52 0 0 1.53 -1.52 0 0 1.52 -1.53 0 0 1.53 -1.52 0 0 -24.38 -1.53 0 0 25.9 1.53 0 0 1.52 1.52 0 0 -1.52 1.53 0z" fill="#000000" stroke-width="1"></path>
    <path d="M3.05 19.81h1.53v3.04H3.05Z" fill="#000000" stroke-width="1"></path>
    <path d="M1.53 1.52h1.52v1.53H1.53Z" fill="#000000" stroke-width="1"></path>
  </g>
</svg>