<svg xmlns="http://www.w3.org/2000/svg" viewBox="0 0 32 32" id="Interface-Essential-Alert-Circle-2--Streamline-Pixel">
  <desc>
    Interface Essential Alert Circle 2 Streamline Icon: https://streamlinehq.com
  </desc>
  <title>interface-essential-alert-circle-2</title>
  <g>
    <path d="M30.48 12.19H32v7.62h-1.52Z" fill="#000000" stroke-width="1"></path>
    <path d="M28.95 19.81h1.53v3.05h-1.53Z" fill="#000000" stroke-width="1"></path>
    <path d="M28.95 9.14h1.53v3.05h-1.53Z" fill="#000000" stroke-width="1"></path>
    <path d="M27.43 22.86h1.52v3.04h-1.52Z" fill="#000000" stroke-width="1"></path>
    <path d="M27.43 6.09h1.52v3.05h-1.52Z" fill="#000000" stroke-width="1"></path>
    <path d="M25.9 25.9h1.53v1.53H25.9Z" fill="#000000" stroke-width="1"></path>
    <path d="M25.9 4.57h1.53v1.52H25.9Z" fill="#000000" stroke-width="1"></path>
    <path d="M22.86 27.43h3.04v1.52h-3.04Z" fill="#000000" stroke-width="1"></path>
    <path d="M22.86 3.05h3.04v1.52h-3.04Z" fill="#000000" stroke-width="1"></path>
    <path d="M19.81 28.95h3.05v1.53h-3.05Z" fill="#000000" stroke-width="1"></path>
    <path d="M19.81 1.52h3.05v1.53h-3.05Z" fill="#000000" stroke-width="1"></path>
    <path d="M12.19 30.48h7.62V32h-7.62Z" fill="#000000" stroke-width="1"></path>
    <path d="m18.29 19.81 -4.58 0 0 1.52 -1.52 0 0 4.57 1.52 0 0 1.53 4.58 0 0 -1.53 1.52 0 0 -4.57 -1.52 0 0 -1.52z" fill="#000000" stroke-width="1"></path>
    <path d="m18.29 4.57 -4.58 0 0 1.52 -1.52 0 0 9.15 1.52 0 0 3.05 4.58 0 0 -3.05 1.52 0 0 -9.15 -1.52 0 0 -1.52z" fill="#000000" stroke-width="1"></path>
    <path d="M12.19 0h7.62v1.52h-7.62Z" fill="#000000" stroke-width="1"></path>
    <path d="M9.14 28.95h3.05v1.53H9.14Z" fill="#000000" stroke-width="1"></path>
    <path d="M9.14 1.52h3.05v1.53H9.14Z" fill="#000000" stroke-width="1"></path>
    <path d="M6.09 27.43h3.05v1.52H6.09Z" fill="#000000" stroke-width="1"></path>
    <path d="M6.09 3.05h3.05v1.52H6.09Z" fill="#000000" stroke-width="1"></path>
    <path d="M4.57 25.9h1.52v1.53H4.57Z" fill="#000000" stroke-width="1"></path>
    <path d="M4.57 4.57h1.52v1.52H4.57Z" fill="#000000" stroke-width="1"></path>
    <path d="M3.05 22.86h1.52v3.04H3.05Z" fill="#000000" stroke-width="1"></path>
    <path d="M3.05 6.09h1.52v3.05H3.05Z" fill="#000000" stroke-width="1"></path>
    <path d="M1.52 19.81h1.53v3.05H1.52Z" fill="#000000" stroke-width="1"></path>
    <path d="M1.52 9.14h1.53v3.05H1.52Z" fill="#000000" stroke-width="1"></path>
    <path d="M0 12.19h1.52v7.62H0Z" fill="#000000" stroke-width="1"></path>
  </g>
</svg>