<svg xmlns="http://www.w3.org/2000/svg" viewBox="0 0 32 32" id="Interface-Essential-Stopwatch--Streamline-Pixel">
  <desc>
    Interface Essential Stopwatch Streamline Icon: https://streamlinehq.com
  </desc>
  <title>interface-essential-stopwatch</title>
  <g>
    <path d="m25.91 11.43 3.04 0 0 -3.05 -1.52 0 0 -1.53 -3.05 0 0 3.05 1.53 0 0 1.53z" fill="#000000" stroke-width="1"></path>
    <path d="M25.91 14.47h1.52v10.67h-1.52Z" fill="#000000" stroke-width="1"></path>
    <path d="M24.38 25.14h1.53v3.05h-1.53Z" fill="#000000" stroke-width="1"></path>
    <path d="M24.38 11.43h1.53v3.04h-1.53Z" fill="#000000" stroke-width="1"></path>
    <path d="M22.86 22.09h1.52v1.53h-1.52Z" fill="#000000" stroke-width="1"></path>
    <path d="M22.86 19.04h1.52v1.53h-1.52Z" fill="#000000" stroke-width="1"></path>
    <path d="M22.86 16h1.52v1.52h-1.52Z" fill="#000000" stroke-width="1"></path>
    <path d="M21.34 28.19h3.04v1.52h-3.04Z" fill="#000000" stroke-width="1"></path>
    <path d="M21.34 25.14h1.52v1.52h-1.52Z" fill="#000000" stroke-width="1"></path>
    <path d="M21.34 12.95h1.52v1.52h-1.52Z" fill="#000000" stroke-width="1"></path>
    <path d="M21.34 9.9h3.04v1.53h-3.04Z" fill="#000000" stroke-width="1"></path>
    <path d="M21.34 2.28h1.52v3.05h-1.52Z" fill="#000000" stroke-width="1"></path>
    <path d="m13.72 20.57 1.52 0 0 1.52 1.52 0 0 -1.52 4.58 0 0 -1.53 -4.58 0 0 -3.04 -1.52 0 0 3.04 -1.52 0 0 1.53z" fill="#000000" stroke-width="1"></path>
    <path d="M10.67 29.71h10.67v1.53H10.67Z" fill="#000000" stroke-width="1"></path>
    <path d="M18.29 26.66h1.52v1.53h-1.52Z" fill="#000000" stroke-width="1"></path>
    <path d="M18.29 11.43h1.52v1.52h-1.52Z" fill="#000000" stroke-width="1"></path>
    <path d="M15.24 26.66h1.52v1.53h-1.52Z" fill="#000000" stroke-width="1"></path>
    <path d="M15.24 11.43h1.52v1.52h-1.52Z" fill="#000000" stroke-width="1"></path>
    <path d="M12.19 26.66h1.53v1.53h-1.53Z" fill="#000000" stroke-width="1"></path>
    <path d="M12.19 11.43h1.53v1.52h-1.53Z" fill="#000000" stroke-width="1"></path>
    <path d="M21.34 9.9V8.38h-3.05V6.85h3.05V5.33h-1.53V2.28h1.53V0.76H10.67v1.52h1.52v3.05h-1.52v1.52h3.05v1.53h-3.05V9.9Zm-4.58 -7.62h1.53v3.05h-1.53Zm0 6.1h-1.52V6.85h1.52Zm-3.04 -6.1h1.52v3.05h-1.52Z" fill="#000000" stroke-width="1"></path>
    <path d="M7.62 28.19h3.05v1.52H7.62Z" fill="#000000" stroke-width="1"></path>
    <path d="M9.15 25.14h1.52v1.52H9.15Z" fill="#000000" stroke-width="1"></path>
    <path d="M9.15 12.95h1.52v1.52H9.15Z" fill="#000000" stroke-width="1"></path>
    <path d="M9.15 2.28h1.52v3.05H9.15Z" fill="#000000" stroke-width="1"></path>
    <path d="M7.62 22.09h1.53v1.53H7.62Z" fill="#000000" stroke-width="1"></path>
    <path d="M7.62 19.04h1.53v1.53H7.62Z" fill="#000000" stroke-width="1"></path>
    <path d="M7.62 16h1.53v1.52H7.62Z" fill="#000000" stroke-width="1"></path>
    <path d="M7.62 9.9h3.05v1.53H7.62Z" fill="#000000" stroke-width="1"></path>
    <path d="M6.1 25.14h1.52v3.05H6.1Z" fill="#000000" stroke-width="1"></path>
    <path d="M6.1 11.43h1.52v3.04H6.1Z" fill="#000000" stroke-width="1"></path>
    <path d="m4.57 6.85 0 1.53 -1.52 0 0 3.05 3.05 0 0 -1.53 1.52 0 0 -3.05 -3.05 0z" fill="#000000" stroke-width="1"></path>
    <path d="M4.57 14.47H6.1v10.67H4.57Z" fill="#000000" stroke-width="1"></path>
  </g>
</svg>