<svg xmlns="http://www.w3.org/2000/svg" viewBox="0 0 32 32" id="Interface-Essential-Navigation-Menu-2--Streamline-Pixel">
  <desc>
    Interface Essential Navigation Menu 2 Streamline Icon: https://streamlinehq.com
  </desc>
  <title>interface-essential-navigation-menu-2</title>
  <g>
    <path d="M29.71 3.81h1.53v24.38h-1.53Z" fill="#000000" stroke-width="1"></path>
    <path d="M28.19 28.19h1.52v1.52h-1.52Z" fill="#000000" stroke-width="1"></path>
    <path d="M28.19 2.28h1.52v1.53h-1.52Z" fill="#000000" stroke-width="1"></path>
    <path d="M3.81 29.71h24.38v1.53H3.81Z" fill="#000000" stroke-width="1"></path>
    <path d="M25.14 14.47h3.05v3.05h-3.05Z" fill="#000000" stroke-width="1"></path>
    <path d="M20.57 14.47h3.05v3.05h-3.05Z" fill="#000000" stroke-width="1"></path>
    <path d="M16 14.47h3.05v3.05H16Z" fill="#000000" stroke-width="1"></path>
    <path d="M5.33 20.57h1.53v1.52h4.57v-1.52h1.52v-1.53h1.53v-1.52h-3.05V16h3.05v-1.53h-1.53v-1.52h-1.52v-1.52H6.86v1.52H5.33v1.52H3.81v4.57h1.52Zm3.05 -6.1h1.53V16H8.38Z" fill="#000000" stroke-width="1"></path>
    <path d="M3.81 0.76h24.38v1.52H3.81Z" fill="#000000" stroke-width="1"></path>
    <path d="M2.29 28.19h1.52v1.52H2.29Z" fill="#000000" stroke-width="1"></path>
    <path d="M2.29 2.28h1.52v1.53H2.29Z" fill="#000000" stroke-width="1"></path>
    <path d="M0.76 3.81h1.53v24.38H0.76Z" fill="#000000" stroke-width="1"></path>
  </g>
</svg>