<svg xmlns="http://www.w3.org/2000/svg" viewBox="0 0 32 32" id="Interface-Essential-Voice-Id--Streamline-Pixel">
  <desc>
    Interface Essential Voice Id Streamline Icon: https://streamlinehq.com
  </desc>
  <title>interface-essential-voice-id</title>
  <g>
    <path d="M30.48 25.9H32v4.58h-1.52Z" fill="#000000" stroke-width="1"></path>
    <path d="M30.48 1.52H32v4.57h-1.52Z" fill="#000000" stroke-width="1"></path>
    <path d="m30.48 13.71 -1.53 0 0 -1.52 -1.52 0 0 3.05 -1.52 0 0 -4.57 -1.53 0 0 -1.53 -1.52 0 0 4.57 -1.52 0 0 1.53 -1.53 0 0 -3.05 -1.52 0 0 -1.52 -1.53 0 0 -3.05 -1.52 0 0 1.52 -1.52 0 0 3.05 -1.53 0 0 3.05 -1.52 0 0 -6.1 -1.52 0 0 1.53 -1.53 0 0 1.52 -1.52 0 0 3.05 -1.53 0 0 -1.53 -1.52 0 0 -1.52 -1.52 0 0 3.05 -1.53 0 0 1.52 1.53 0 0 3.05 1.52 0 0 -1.53 1.52 0 0 -1.52 1.53 0 0 1.52 1.52 0 0 3.05 1.53 0 0 1.53 1.52 0 0 -6.1 1.52 0 0 3.05 1.53 0 0 3.05 1.52 0 0 1.52 1.52 0 0 -3.05 1.53 0 0 -3.05 1.52 0 0 -1.52 1.53 0 0 1.52 1.52 0 0 4.58 1.52 0 0 -1.53 1.53 0 0 -4.57 1.52 0 0 3.05 1.52 0 0 -1.53 1.53 0 0 -1.52 1.52 0 0 -1.52 -1.52 0 0 -1.53z" fill="#000000" stroke-width="1"></path>
    <path d="M25.91 0h4.57v1.52h-4.57Z" fill="#000000" stroke-width="1"></path>
    <path d="M25.91 30.48h4.57V32h-4.57Z" fill="#000000" stroke-width="1"></path>
    <path d="M1.53 30.48H6.1V32H1.53Z" fill="#000000" stroke-width="1"></path>
    <path d="M1.53 0H6.1v1.52H1.53Z" fill="#000000" stroke-width="1"></path>
    <path d="M0 25.9h1.53v4.58H0Z" fill="#000000" stroke-width="1"></path>
    <path d="M0 1.52h1.53v4.57H0Z" fill="#000000" stroke-width="1"></path>
  </g>
</svg>