<svg xmlns="http://www.w3.org/2000/svg" fill="none" viewBox="0 0 24 24" id="Global-Learning--Streamline-Sharp-Gradient-Free">
  <desc>
    Global Learning Streamline Icon: https://streamlinehq.com
  </desc>
  <g id="Gradient/Work Education/global-learning--global-learning-education">
    <path id="Union" fill="url(#paint0_linear_628_20243)" fill-rule="evenodd" d="M.0515295 10.5977C.430817 14.2611 2.87068 17.3127 6.19219 18.5736v-1.9562l-1.88114-6.0197H.0515295Zm19.0923705 0c-.0487.4703-.1314.9306-.2455 1.3782l-1.6967-.6817-1.1185-.4495-1.4594.5864.2604-.8334h4.2597Zm-6.3551 0-.5613 1.7963-4.67293 1.8778-1.14813-3.6741h6.38236Zm6.3551-1.99997c-.4048-3.91052-3.1576-7.12397-6.8244-8.206336l2.5644 8.206336h4.26ZM10.1059.0132238C9.93762.00444445 9.76818 0 9.59771 0c-.17053 0-.34001.00444718-.50835.0132319L6.4067 8.59773h6.3819L10.1059.0132238ZM6.87579.391444 4.31132 8.59773H.0515137C.456322 4.68727 3.20906 1.47386 6.87579.391444ZM16.456 13.1499l-.3729-.1498-.3729.1498-6.89092 2.7691-.62714.252v5.1772h1.99996v-2.5803l1.6234.6523.0046 2.2651.0006.3171.2872.1346 3.7624 1.7636.212.0994.2121-.0993 3.7684-1.7635.2882-.1349-.0001-.3181-.0005-2.2639 2.9965-1.2041.6272-.252V16.171l-.6272-.252-6.8909-2.7691Z" clip-rule="evenodd"></path>
  </g>
  <defs>
    <linearGradient id="paint0_linear_628_20243" x1="26.047" x2="-6.291" y1="29.083" y2="6.186" gradientUnits="userSpaceOnUse">
      <stop stop-color="#ffd600"></stop>
      <stop offset="1" stop-color="#ff007a"></stop>
    </linearGradient>
  </defs>
</svg>