<svg xmlns="http://www.w3.org/2000/svg" fill="none" viewBox="0 0 14 14"><g id="edit-image-photo"><path id="Subtract" fill="#37d7ff" fill-rule="evenodd" d="M13.5 9.01H9.014v4.459H1.8a1.302 1.302 0 0 1-1.3-1.297V1.797A1.295 1.295 0 0 1 1.8.5h10.4a1.301 1.301 0 0 1 1.3 1.297V9.01Z" clip-rule="evenodd"></path><path id="intersect" fill="#ffffff" d="M2.332 6.984c-.626 0-1.238.056-1.832.164V13.5h6.906l2.032-3.305C8.863 9.522 7.572 8.522 7 8.107a10.205 10.205 0 0 0-4.668-1.123Z"></path><path id="vector" fill="#ffffff" d="M13.5 8.481 8.79 13.18l-2.13.289.3-2.125 4.7-4.699 1.84 1.836Z"></path><path id="vector_2" stroke="#3e3e3e" stroke-linecap="round" stroke-linejoin="round" d="m13.5 8.48-4.71 4.7-2.13.289.3-2.125 4.7-4.699 1.84 1.836Z"></path><path id="vector_3" stroke="#3e3e3e" stroke-linecap="round" stroke-linejoin="round" d="M4.281 13.469H1.8a1.302 1.302 0 0 1-1.3-1.297V1.797A1.295 1.295 0 0 1 1.8.5h10.4a1.301 1.301 0 0 1 1.3 1.297V4.74"></path><path id="vector_4" fill="#ffffff" d="M9.014 4.785a1.248 1.248 0 1 0 0-2.494c-.69 0-1.25.558-1.25 1.247 0 .688.56 1.247 1.25 1.247Z"></path><path id="vector_5" stroke="#3e3e3e" stroke-linecap="round" stroke-linejoin="round" d="M9.014 4.785a1.248 1.248 0 1 0 0-2.494c-.69 0-1.25.558-1.25 1.247 0 .688.56 1.247 1.25 1.247Z"></path><path id="intersect_2" stroke="#3e3e3e" stroke-linecap="round" stroke-linejoin="round" d="M.5 7.148a10.313 10.313 0 0 1 1.832-.164C4.013 6.984 5.6 7.39 7 8.107"></path></g></svg>