<svg xmlns="http://www.w3.org/2000/svg" fill="none" viewBox="0 0 14 14"><g id="landscape-2--photos-photo-landscape-picture-photography-camera-pictures-image"><path id="Vector" fill="#37d7ff" d="M1.5 13.5h11a1 1 0 0 0 1-1v-11a1 1 0 0 0-1-1h-11a1 1 0 0 0-1 1v11a1 1 0 0 0 1 1Z"></path><path id="Vector_2" fill="#ffffff" d="m9.05 6.62-7.3 6.88H12.5a1 1 0 0 0 1-1V9.35L9.69 6.62a.5.5 0 0 0-.64 0Z"></path><path id="Vector_3" stroke="#3e3e3e" stroke-linecap="round" stroke-linejoin="round" d="M1.5 13.5h11a1 1 0 0 0 1-1v-11a1 1 0 0 0-1-1h-11a1 1 0 0 0-1 1v11a1 1 0 0 0 1 1Z"></path><path id="Vector_4" fill="#ffffff" d="M4.5 6a1.5 1.5 0 1 0 0-3 1.5 1.5 0 0 0 0 3Z"></path><path id="Vector_5" stroke="#3e3e3e" stroke-linecap="round" stroke-linejoin="round" d="M4.5 6a1.5 1.5 0 1 0 0-3 1.5 1.5 0 0 0 0 3Z"></path><path id="Vector_6" stroke="#3e3e3e" stroke-linecap="round" stroke-linejoin="round" d="m1.75 13.5 7.3-6.88a.5.5 0 0 1 .64 0l3.81 2.73"></path></g></svg>