<svg xmlns="http://www.w3.org/2000/svg" fill="none" viewBox="0 0 14 14"><g id="polaroid-four--photos-camera-polaroid-picture-photography-pictures-four-photo-image"><path id="Vector" fill="#37d7ff" d="M5.25.5H1a.5.5 0 0 0-.5.5v2.5h5.25V1a.5.5 0 0 0-.5-.5Z"></path><path id="Vector_2" fill="#37d7ff" d="M13 .5H8.75a.5.5 0 0 0-.5.5v2.5h5.25V1a.5.5 0 0 0-.5-.5Z"></path><path id="Subtract" fill="#ffffff" fill-rule="evenodd" d="M13.5 3.5H8.25v1.75a.5.5 0 0 0 .5.5H13a.5.5 0 0 0 .5-.5V3.5Z" clip-rule="evenodd"></path><path id="Subtract_2" fill="#ffffff" fill-rule="evenodd" d="M.5 3.5h5.25v1.75a.5.5 0 0 1-.5.5H1a.5.5 0 0 1-.5-.5V3.5Z" clip-rule="evenodd"></path><path id="Vector_3" fill="#37d7ff" d="M5.25 8.25H1a.5.5 0 0 0-.5.5v2.5h5.25v-2.5a.5.5 0 0 0-.5-.5Z"></path><path id="Subtract_3" fill="#ffffff" fill-rule="evenodd" d="M5.75 11.25H.5V13a.5.5 0 0 0 .5.5h4.25a.5.5 0 0 0 .5-.5v-1.75Z" clip-rule="evenodd"></path><path id="Vector_4" fill="#37d7ff" d="M13 8.25H8.75a.5.5 0 0 0-.5.5v2.5h5.25v-2.5a.5.5 0 0 0-.5-.5Z"></path><path id="Subtract_4" fill="#ffffff" fill-rule="evenodd" d="M13.5 11.25H8.25V13a.5.5 0 0 0 .5.5H13a.5.5 0 0 0 .5-.5v-1.75Z" clip-rule="evenodd"></path><path id="Vector_5" stroke="#3e3e3e" stroke-linecap="round" stroke-linejoin="round" d="M5.25.5H1a.5.5 0 0 0-.5.5v4.25a.5.5 0 0 0 .5.5h4.25a.5.5 0 0 0 .5-.5V1a.5.5 0 0 0-.5-.5Z"></path><path id="Vector_6" stroke="#3e3e3e" stroke-linecap="round" stroke-linejoin="round" d="M13 .5H8.75a.5.5 0 0 0-.5.5v4.25a.5.5 0 0 0 .5.5H13a.5.5 0 0 0 .5-.5V1a.5.5 0 0 0-.5-.5Z"></path><path id="Vector_7" stroke="#3e3e3e" stroke-linecap="round" stroke-linejoin="round" d="M5.25 8.25H1a.5.5 0 0 0-.5.5V13a.5.5 0 0 0 .5.5h4.25a.5.5 0 0 0 .5-.5V8.75a.5.5 0 0 0-.5-.5Z"></path><path id="Vector_8" stroke="#3e3e3e" stroke-linecap="round" stroke-linejoin="round" d="M13 8.25H8.75a.5.5 0 0 0-.5.5V13a.5.5 0 0 0 .5.5H13a.5.5 0 0 0 .5-.5V8.75a.5.5 0 0 0-.5-.5Z"></path><path id="Vector_9" stroke="#3e3e3e" stroke-linecap="round" stroke-linejoin="round" d="M.5 3.5h5.25"></path><path id="Vector_10" stroke="#3e3e3e" stroke-linecap="round" stroke-linejoin="round" d="M8.25 3.5h5.25"></path><path id="Vector_11" stroke="#3e3e3e" stroke-linecap="round" stroke-linejoin="round" d="M8.25 11.25h5.25"></path><path id="Vector_12" stroke="#3e3e3e" stroke-linecap="round" stroke-linejoin="round" d="M.5 11.25h5.25"></path></g></svg>