<svg xmlns="http://www.w3.org/2000/svg" fill="none" viewBox="0 0 24 24" id="Carnival-Shop--Streamline-Ultimate">
  <desc>
    Carnival Shop Streamline Icon: https://streamlinehq.com
  </desc>
  <path stroke="#000000" stroke-linecap="round" stroke-linejoin="round" d="M0.754028 6.86902V23.244H23.254V6.86902" stroke-width="1"></path>
  <path stroke="#000000" stroke-linecap="round" stroke-linejoin="round" d="M4.06702 10.023v6.062H19.942v-6.083" stroke-width="1"></path>
  <path stroke="#000000" stroke-linecap="round" stroke-linejoin="round" d="m8.24597 6.86105 1.318 -6.087002" stroke-width="1"></path>
  <path stroke="#000000" stroke-linecap="round" stroke-linejoin="round" d="M3.49197 0.755981H20.516c0.2044 -0.000039 0.4042 0.0612 0.5736 0.175813 0.1693 0.114616 0.3004 0.277346 0.3764 0.467186l1.788 5.47c0 4.21202 -7.508 4.20002 -7.508 -0.008 0 4.21202 -7.50003 4.21002 -7.50003 0 0 4.21202 -7.499998 4.21002 -7.499998 0l1.795998 -5.461c0.0758 -0.19003 0.20683 -0.35297 0.37618 -0.467772 0.16935 -0.1148 0.36923 -0.176186 0.57382 -0.176227Z" stroke-width="1"></path>
  <path stroke="#000000" stroke-linecap="round" stroke-linejoin="round" d="M15.746 6.86105 14.444 0.774048" stroke-width="1"></path>
  <path stroke="#000000" stroke-linecap="round" stroke-linejoin="round" d="M5.58099 16.479v6.575" stroke-width="1"></path>
  <path stroke="#000000" stroke-linecap="round" stroke-linejoin="round" d="M18.427 16.479v6.575" stroke-width="1"></path>
  <path stroke="#000000" stroke-linecap="round" stroke-linejoin="round" d="M12.004 16.479v6.575" stroke-width="1"></path>
  <path stroke="#000000" stroke-linecap="round" stroke-linejoin="round" d="M0.992981 6.11096H23.006" stroke-width="1"></path>
</svg>