<svg xmlns="http://www.w3.org/2000/svg" fill="none" viewBox="0 0 24 24" id="Add-Circle-Bold--Streamline-Ultimate">
  <desc>
    Add Circle Bold Streamline Icon: https://streamlinehq.com
  </desc>
  <path stroke="#000000" stroke-linecap="round" stroke-linejoin="round" d="M0.75 12c0 2.9837 1.18526 5.8452 3.29505 7.955C6.15483 22.0647 9.01631 23.25 12 23.25c2.9837 0 5.8452 -1.1853 7.955 -3.295 2.1097 -2.1098 3.295 -4.9713 3.295 -7.955 0 -2.98369 -1.1853 -5.84517 -3.295 -7.95495C17.8452 1.93526 14.9837 0.75 12 0.75c-2.98369 0 -5.84517 1.18526 -7.95495 3.29505C1.93526 6.15483 0.75 9.01631 0.75 12Z" stroke-width="1"></path>
  <path stroke="#000000" stroke-linecap="round" stroke-linejoin="round" d="M17.25 9.75h-3v-3c0 -0.39782 -0.158 -0.77936 -0.4393 -1.06066 -0.2813 -0.2813 -0.6629 -0.43934 -1.0607 -0.43934h-1.5c-0.3978 0 -0.7794 0.15804 -1.0607 0.43934 -0.28126 0.2813 -0.4393 0.66284 -0.4393 1.06066v3h-3c-0.39782 0 -0.77936 0.15804 -1.06066 0.4393 -0.2813 0.2813 -0.43934 0.6629 -0.43934 1.0607v1.5c0 0.3978 0.15804 0.7794 0.43934 1.0607s0.66284 0.4393 1.06066 0.4393h3v3c0 0.3978 0.15804 0.7794 0.4393 1.0607 0.2813 0.2813 0.6629 0.4393 1.0607 0.4393h1.5c0.3978 0 0.7794 -0.158 1.0607 -0.4393s0.4393 -0.6629 0.4393 -1.0607v-3h3c0.3978 0 0.7794 -0.158 1.0607 -0.4393s0.4393 -0.6629 0.4393 -1.0607v-1.5c0 -0.3978 -0.158 -0.7794 -0.4393 -1.0607 -0.2813 -0.28126 -0.6629 -0.4393 -1.0607 -0.4393Z" stroke-width="1"></path>
</svg>