<svg xmlns="http://www.w3.org/2000/svg" fill="none" viewBox="0 0 24 24" id="Font-Size--Streamline-Ultimate">
  <desc>
    Font Size Streamline Icon: https://streamlinehq.com
  </desc>
  <path stroke="#000000" stroke-linecap="round" stroke-linejoin="round" d="M0.75 12.749h10.5" stroke-width="1.5"></path>
  <path stroke="#000000" stroke-linecap="round" stroke-linejoin="round" d="M15.75 17.249h7.5" stroke-width="1.5"></path>
  <path stroke="#000000" stroke-linecap="round" stroke-linejoin="round" d="M15.75 21.749V13.5c0 -0.9946 0.3951 -1.9484 1.0983 -2.6517 0.7033 -0.7032 1.6571 -1.0983 2.6517 -1.0983 0.9946 0 1.9484 0.3951 2.6517 1.0983 0.7032 0.7033 1.0983 1.6571 1.0983 2.6517v8.25" stroke-width="1.5"></path>
  <path stroke="#000000" stroke-linecap="round" stroke-linejoin="round" d="M0.75 21.749V7.5c0 -1.39239 0.55312 -2.72774 1.53769 -3.71231C3.27226 2.80312 4.60761 2.25 6 2.25c1.39239 0 2.72774 0.55312 3.71231 1.53769C10.6969 4.77226 11.25 6.10761 11.25 7.5v14.25" stroke-width="1.5"></path>
</svg>