<svg xmlns="http://www.w3.org/2000/svg" fill="none" viewBox="0 0 24 24" id="Go-Backward-30-Control--Streamline-Ultimate">
  <desc>
    Go Backward 30 Control Streamline Icon: https://streamlinehq.com
  </desc>
  <path stroke="#000000" stroke-linecap="round" stroke-linejoin="round" d="M7.10996 4.68623C4.21583 6.37208 2.27063 9.50852 2.27063 13.0993c0 5.3734 4.35601 9.7294 9.72947 9.7294 5.3734 0 9.7294 -4.356 9.7294 -9.7294 0 -5.37342 -4.356 -9.72943 -9.7294 -9.72943h-1.9384" stroke-width="1"></path>
  <path stroke="#000000" stroke-linecap="round" stroke-linejoin="round" d="M12 1.17139 9.80151 3.36987 12 5.56836" stroke-width="1"></path>
  <path stroke="#000000" stroke-linecap="round" stroke-linejoin="round" d="M7.1748 15.4327c0.24024 0.6797 0.98804 1.1667 1.75 1.1667 0.9665 0 1.75 -0.7835 1.75 -1.75v-0.2917c0 -0.9665 -0.7835 -1.75 -1.75 -1.75h-0.05832c0.83763 0 1.51662 -0.679 1.51662 -1.5167v-0.2333c0 -0.8054 -0.65289 -1.45833 -1.4583 -1.45833 -0.47711 0 -0.90071 0.22911 -1.16677 0.58333" stroke-width="1"></path>
  <path stroke="#000000" stroke-linecap="round" stroke-linejoin="round" d="M13.3252 11.2765v3.6457c0 0.9263 0.7509 1.6772 1.6771 1.6772h0.1458c0.9262 0 1.6771 -0.7509 1.6771 -1.6772v-3.6457c0 -0.9263 -0.7509 -1.67713 -1.6771 -1.67713h-0.1458c-0.9262 0 -1.6771 0.75083 -1.6771 1.67713Z" stroke-width="1"></path>
</svg>