<svg xmlns="http://www.w3.org/2000/svg" fill="none" viewBox="0 0 24 24" id="Keyhole-Square--Streamline-Ultimate">
  <desc>
    Keyhole Square Streamline Icon: https://streamlinehq.com
  </desc>
  <path stroke="#000000" stroke-linecap="round" stroke-linejoin="round" d="M2.25 0.75h19.5s1.5 0 1.5 1.5v19.5s0 1.5 -1.5 1.5H2.25s-1.5 0 -1.5 -1.5V2.25s0 -1.5 1.5 -1.5Z" stroke-width="1"></path>
  <path stroke="#000000" stroke-linecap="round" stroke-linejoin="round" d="M9.75 9.75c0 0.5967 0.23705 1.169 0.659 1.591 0.422 0.4219 0.9943 0.659 1.591 0.659s1.169 -0.2371 1.591 -0.659c0.4219 -0.422 0.659 -0.9943 0.659 -1.591 0 -0.59674 -0.2371 -1.16903 -0.659 -1.59099C13.169 7.73705 12.5967 7.5 12 7.5s-1.169 0.23705 -1.591 0.65901c-0.42195 0.42196 -0.659 0.99425 -0.659 1.59099Z" stroke-width="1"></path>
  <path stroke="#000000" stroke-linecap="round" stroke-linejoin="round" d="M12 12v4.5" stroke-width="1"></path>
</svg>