<svg xmlns="http://www.w3.org/2000/svg" fill="none" viewBox="0 0 24 24" id="Lock-Unlock-4--Streamline-Ultimate">
  <desc>
    Lock Unlock 4 Streamline Icon: https://streamlinehq.com
  </desc>
  <path stroke="#000000" stroke-linecap="round" stroke-linejoin="round" d="M0.75 9.75V6c0 -1.39239 0.55312 -2.72774 1.53769 -3.71231C3.27226 1.30312 4.60761 0.75 6 0.75c1.39239 0 2.72774 0.55312 3.71231 1.53769C10.6969 3.27226 11.25 4.60761 11.25 6v3.75" stroke-width="1.5"></path>
  <path stroke="#000000" stroke-linecap="round" stroke-linejoin="round" d="M8.25 9.75h13.5s1.5 0 1.5 1.5v10.5s0 1.5 -1.5 1.5H8.25s-1.5 0 -1.5 -1.5v-10.5s0 -1.5 1.5 -1.5Z" stroke-width="1.5"></path>
  <path stroke="#000000" stroke-linecap="round" stroke-linejoin="round" d="M12.75 16.5c0 0.5967 0.2371 1.169 0.659 1.591 0.422 0.4219 0.9943 0.659 1.591 0.659s1.169 -0.2371 1.591 -0.659c0.4219 -0.422 0.659 -0.9943 0.659 -1.591s-0.2371 -1.169 -0.659 -1.591c-0.422 -0.4219 -0.9943 -0.659 -1.591 -0.659s-1.169 0.2371 -1.591 0.659c-0.4219 0.422 -0.659 0.9943 -0.659 1.591Z" stroke-width="1.5"></path>
</svg>