<svg xmlns="http://www.w3.org/2000/svg" fill="none" viewBox="0 0 24 24" id="Navigation-Menu-Horizontal-1--Streamline-Ultimate">
  <desc>
    Navigation Menu Horizontal 1 Streamline Icon: https://streamlinehq.com
  </desc>
  <path stroke="#000000" stroke-miterlimit="10" d="M5.75 10.25c-0.34612 0 -0.68446 0.1026 -0.97225 0.2949 -0.28778 0.1923 -0.51209 0.4656 -0.64454 0.7854 -0.13245 0.3198 -0.16711 0.6716 -0.09958 1.0111 0.06752 0.3395 0.23419 0.6513 0.47893 0.896 0.24475 0.2448 0.55657 0.4115 0.89603 0.479 0.33947 0.0675 0.69134 0.0328 1.01111 -0.0996 0.31977 -0.1325 0.59308 -0.3568 0.78537 -0.6446 0.1923 -0.2877 0.29493 -0.6261 0.29493 -0.9722 0 -0.4641 -0.18437 -0.9092 -0.51256 -1.2374 -0.32819 -0.3282 -0.77331 -0.5126 -1.23744 -0.5126Z" stroke-width="1"></path>
  <path stroke="#000000" stroke-miterlimit="10" d="M18.25 10.25c-0.3461 0 -0.6845 0.1026 -0.9722 0.2949 -0.2878 0.1923 -0.5121 0.4656 -0.6446 0.7854 -0.1324 0.3198 -0.1671 0.6716 -0.0996 1.0111 0.0676 0.3395 0.2342 0.6513 0.479 0.896 0.2447 0.2448 0.5565 0.4115 0.896 0.479s0.6913 0.0328 1.0111 -0.0996c0.3198 -0.1325 0.5931 -0.3568 0.7854 -0.6446 0.1923 -0.2877 0.2949 -0.6261 0.2949 -0.9722 0 -0.4641 -0.1844 -0.9092 -0.5126 -1.2374 -0.3282 -0.3282 -0.7733 -0.5126 -1.2374 -0.5126Z" stroke-width="1"></path>
  <path stroke="#000000" stroke-miterlimit="10" d="M12 10.25c-0.3461 0 -0.6845 0.1026 -0.9722 0.2949 -0.2878 0.1923 -0.5121 0.4656 -0.6446 0.7854 -0.1324 0.3198 -0.1671 0.6716 -0.0996 1.0111 0.0676 0.3395 0.2342 0.6513 0.479 0.896 0.2447 0.2448 0.5565 0.4115 0.896 0.479s0.6913 0.0328 1.0111 -0.0996c0.3198 -0.1325 0.5931 -0.3568 0.7854 -0.6446 0.1923 -0.2877 0.2949 -0.6261 0.2949 -0.9722 0 -0.4641 -0.1844 -0.9092 -0.5126 -1.2374 -0.3282 -0.3282 -0.7733 -0.5126 -1.2374 -0.5126Z" stroke-width="1"></path>
  <path stroke="#000000" stroke-linecap="round" stroke-linejoin="round" d="M0.75 12c0 2.9837 1.18526 5.8452 3.29505 7.955C6.15483 22.0647 9.01631 23.25 12 23.25c2.9837 0 5.8452 -1.1853 7.955 -3.295 2.1097 -2.1098 3.295 -4.9713 3.295 -7.955 0 -2.98369 -1.1853 -5.84517 -3.295 -7.95495C17.8452 1.93526 14.9837 0.75 12 0.75c-2.98369 0 -5.84517 1.18526 -7.95495 3.29505C1.93526 6.15483 0.75 9.01631 0.75 12Z" stroke-width="1"></path>
</svg>