<svg xmlns="http://www.w3.org/2000/svg" fill="none" viewBox="0 0 24 24" id="Pen-Write--Streamline-Ultimate">
  <desc>
    Pen Write Streamline Icon: https://streamlinehq.com
  </desc>
  <path stroke="#000000" stroke-linecap="round" stroke-linejoin="round" d="m8.49201 11.2649 -1.06 4.243 4.24199 -1.061 6.364 -6.36402 -3.182 -3.182 -6.36399 6.36402Z" stroke-width="1"></path>
  <path stroke="#000000" stroke-linecap="round" stroke-linejoin="round" d="m21.751 4.37109 1.06 1.06c0.1394 0.1393 0.25 0.30471 0.3254 0.48676 0.0755 0.18205 0.1143 0.37718 0.1143 0.57424 0 0.19707 -0.0388 0.3922 -0.1143 0.57425 -0.0754 0.18205 -0.186 0.34745 -0.3254 0.48675L19.5 10.8631" stroke-width="1"></path>
  <path stroke="#000000" stroke-linecap="round" stroke-linejoin="round" d="m18.038 8.08294 3.713 -3.712c0.2812 -0.2813 0.4392 -0.66276 0.4392 -1.0605 0 -0.39775 -0.158 -0.77921 -0.4392 -1.0605l-1.061 -1.061c-0.2813 -0.281211 -0.6627 -0.439184 -1.0605 -0.439184 -0.3977 0 -0.7792 0.157973 -1.0605 0.439184l-3.713 3.711" stroke-width="1"></path>
  <path stroke="#000000" stroke-linecap="round" stroke-linejoin="round" d="M18.75 14.25v7.5c0 0.3978 -0.158 0.7794 -0.4393 1.0607s-0.6629 0.4393 -1.0607 0.4393h-15c-0.39782 0 -0.77936 -0.158 -1.06066 -0.4393C0.908035 22.5294 0.75 22.1478 0.75 21.75v-15c0 -0.39782 0.158035 -0.77936 0.43934 -1.06066 0.2813 -0.2813 0.66284 -0.43934 1.06066 -0.43934h7.5" stroke-width="1"></path>
</svg>