<svg xmlns="http://www.w3.org/2000/svg" fill="none" viewBox="0 0 48 48" id="Graph-Arrow-User-Increase--Streamline-Plump">
  <desc>
    Graph Arrow User Increase Streamline Icon: https://streamlinehq.com
  </desc>
  <g id="graph-arrow-user-increase--ascend-growth-up-arrow-stats-graph-right-grow-user">
    <path id="Subtract" fill="#8fbffa" d="M41.874 20.04c1.613 0.978 3.295 -0.063 3.112 -1.94 -0.14 -1.436 -0.381 -3.338 -0.795 -5.791 -0.659 -3.901 -1.455 -6.26 -2.033 -7.587a2.784 2.784 0 0 0 -2.431 -1.694c-1.448 -0.084 -3.943 -0.016 -7.843 0.715 -2.448 0.458 -4.32 0.888 -5.718 1.252 -1.83 0.477 -2.225 2.42 -0.744 3.595 1.025 0.814 2.4 1.863 4.227 3.19 -1.288 2.736 -2.909 5.512 -4.64 7.894 0 0 -4.098 -3.239 -7.918 -5.92a2.712 2.712 0 0 0 -3.563 0.377C7.753 20.427 4.44 26.535 3.267 28.905c-0.333 0.672 -0.403 1.447 0.072 2.026 0.288 0.35 0.718 0.768 1.363 1.219 0.469 0.327 0.883 0.554 1.238 0.711 0.91 0.402 1.821 -0.117 2.409 -0.92 1.767 -2.413 5.69 -7.677 7.98 -10.02 0.987 0.69 2.19 1.641 3.406 2.65 0.247 0.205 0.62 0.13 0.783 -0.146A10.995 10.995 0 0 1 30.002 19c1.756 0 3.417 0.412 4.89 1.144 0.209 0.104 0.463 0.06 0.617 -0.116 0.807 -0.916 1.582 -1.787 2.31 -2.575a120.175 120.175 0 0 0 4.055 2.587Z" stroke-width="3"></path>
    <path id="Union" fill="#ffffff" d="M33.975 35.763a7 7 0 1 0 -7.964 -0.01c-2.708 1.074 -4.841 3.215 -5.833 5.878 -0.528 1.418 0.256 3.043 1.765 3.159l0.101 0.007c1.928 0.11 4.548 0.203 7.936 0.203s6.009 -0.092 7.937 -0.203l0.102 -0.007c1.509 -0.116 2.292 -1.742 1.764 -3.159 -0.988 -2.655 -3.111 -4.79 -5.808 -5.868Z" stroke-width="3"></path>
    <path id="Union_2" stroke="#2859c5" stroke-linecap="round" stroke-linejoin="round" d="M36 19.493c0.635 -0.718 1.248 -1.402 1.83 -2.032a122.435 122.435 0 0 0 3.905 2.495c1.688 1.029 3.448 -0.057 3.25 -2.024a85.127 85.127 0 0 0 -0.778 -5.618c-0.647 -3.834 -1.427 -6.179 -2.003 -7.519a2.884 2.884 0 0 0 -2.542 -1.771c-1.46 -0.077 -3.937 0 -7.771 0.72 -2.35 0.44 -4.17 0.853 -5.55 1.208 -1.92 0.493 -2.33 2.525 -0.774 3.754 1.01 0.798 2.342 1.811 4.088 3.08a50.57 50.57 0 0 1 -4.042 7.047 0.986 0.986 0 0 1 -1.42 0.21c-1.371 -1.066 -4.256 -3.28 -7.013 -5.22a2.837 2.837 0 0 0 -3.734 0.397C7.754 20.446 4.468 26.474 3.278 28.87c-0.35 0.703 -0.423 1.517 0.083 2.118 0.287 0.341 0.71 0.745 1.329 1.178 0.44 0.307 0.831 0.526 1.172 0.681 0.948 0.433 1.906 -0.11 2.522 -0.95 1.79 -2.443 5.669 -7.641 7.94 -9.965 0.796 0.555 1.73 1.28 2.7 2.068" stroke-width="3"></path>
    <path id="Union_3" stroke="#2859c5" stroke-linecap="round" stroke-linejoin="round" d="M33.975 35.763a7 7 0 1 0 -7.964 -0.01c-2.708 1.074 -4.841 3.215 -5.833 5.878 -0.528 1.418 0.256 3.043 1.765 3.159l0.101 0.007c1.928 0.11 4.548 0.203 7.936 0.203s6.009 -0.092 7.937 -0.203l0.102 -0.007c1.509 -0.116 2.292 -1.742 1.764 -3.159 -0.988 -2.655 -3.111 -4.79 -5.808 -5.868Z" stroke-width="3"></path>
  </g>
</svg>