<svg xmlns="http://www.w3.org/2000/svg" fill="none" viewBox="0 0 48 48" id="Shopping-Cart-Add--Streamline-Plump">
  <desc>
    Shopping Cart Add Streamline Icon: https://streamlinehq.com
  </desc>
  <g id="shopping-cart-add--shopping-cart-checkout-add-plus-new">
    <path id="Union" fill="#8fbffa" d="M3.008 5.528C3.055 4.062 4.325 3 5.792 3l4.19 0a5 5 0 0 1 4.766 3.485L16.5 12l23.98 0c2.401 0 4.263 2.104 3.829 4.466 -0.813 4.428 -2.028 9.126 -3.39 12.997 -0.581 1.647 -1.947 2.846 -3.68 3.066 -1.866 0.238 -4.823 0.471 -9.24 0.471 -4.286 0 -7.29 -0.22 -9.262 -0.45 -1.95 -0.227 -3.47 -1.625 -4.062 -3.498C12.496 22.17 11.052 16.06 9 9H5.79C4.326 9 3.056 7.938 3.009 6.472a14.882 14.882 0 0 1 0 -0.944Z" stroke-width="1"></path>
    <path id="Ellipse 42" fill="#ffffff" d="M34 41a4 4 0 1 0 8 0 4 4 0 0 0 -8 0Z" stroke-width="1"></path>
    <path id="Ellipse 43" fill="#ffffff" d="M14 41a4 4 0 1 0 8 0 4 4 0 0 0 -8 0Z" stroke-width="1"></path>
    <path id="Union_2" stroke="#2859c5" stroke-linecap="round" stroke-linejoin="round" d="M3.007 5.528C3.054 4.062 4.324 3 5.791 3l4.19 0a5 5 0 0 1 4.766 3.485L16.5 12l23.98 0c2.402 0 4.263 2.104 3.829 4.466 -0.813 4.428 -2.027 9.126 -3.39 12.997 -0.581 1.647 -1.947 2.846 -3.68 3.066 -1.866 0.238 -4.823 0.471 -9.24 0.471 -4.286 0 -7.29 -0.22 -9.262 -0.45 -1.95 -0.227 -3.47 -1.625 -4.062 -3.498C12.495 22.17 11.05 16.06 9 9H5.79C4.324 9 3.054 7.938 3.007 6.472a14.912 14.912 0 0 1 0 -0.944Z" stroke-width="1"></path>
    <path id="Ellipse 40" stroke="#2859c5" stroke-linecap="round" stroke-linejoin="round" d="M34 41a4 4 0 1 0 8 0 4 4 0 0 0 -8 0Z" stroke-width="1"></path>
    <path id="Ellipse 41" stroke="#2859c5" stroke-linecap="round" stroke-linejoin="round" d="M14 41a4 4 0 1 0 8 0 4 4 0 0 0 -8 0Z" stroke-width="1"></path>
    <path id="Vector 1455" stroke="#2859c5" stroke-linecap="round" stroke-linejoin="round" d="M33 22.5H23" stroke-width="1"></path>
    <path id="Vector 1456" stroke="#2859c5" stroke-linecap="round" stroke-linejoin="round" d="m28 17.5 0 10" stroke-width="1"></path>
  </g>
</svg>