<svg xmlns="http://www.w3.org/2000/svg" fill="none" viewBox="0 0 48 48" id="Store-2--Streamline-Plump">
  <desc>
    Store 2 Streamline Icon: https://streamlinehq.com
  </desc>
  <g id="store-2--store-shop-shops-stores">
    <path id="Union" fill="#8fbffa" d="M6.09 6.916c0.677 -1.804 2.223 -3.11 4.139 -3.322C12.789 3.311 17.155 3 24 3c6.845 0 11.21 0.31 13.771 0.594 1.916 0.213 3.462 1.518 4.138 3.322C45 15.163 45 17.736 45 17.736A5.257 5.257 0 0 1 39.75 23c-2.9 0 -5.25 -2.356 -5.25 -5.263A5.257 5.257 0 0 1 29.25 23c-2.9 0 -5.25 -2.356 -5.25 -5.263A5.257 5.257 0 0 1 18.75 23c-2.9 0 -5.25 -2.356 -5.25 -5.263A5.257 5.257 0 0 1 8.25 23C5.35 23 3 20.644 3 17.737c0 0 0 -2.574 3.09 -10.82Z" stroke-width="1"></path>
    <path id="Subtract" fill="#ffffff" d="M5 21.871v8.13c0 4.446 0.179 7.763 0.378 10.075 0.217 2.536 2.216 4.408 4.756 4.563C13.073 44.82 17.618 45 24 45s10.927 -0.18 13.866 -0.36c2.54 -0.156 4.539 -2.028 4.756 -4.564 0.2 -2.312 0.378 -5.629 0.378 -10.076v-8.129a5.22 5.22 0 0 1 -3.25 1.13c-2.9 0 -5.25 -2.357 -5.25 -5.264a5.257 5.257 0 0 1 -5.25 5.264c-2.9 0 -5.25 -2.357 -5.25 -5.264a5.257 5.257 0 0 1 -5.25 5.264c-2.9 0 -5.25 -2.357 -5.25 -5.264a5.257 5.257 0 0 1 -5.25 5.264A5.22 5.22 0 0 1 5 21.87Z" stroke-width="1"></path>
    <path id="Intersect" fill="#8fbffa" d="M31.94 44.895c0.036 -1.3 0.06 -2.91 0.06 -4.895 0 -3.565 -0.077 -5.924 -0.161 -7.441 -0.088 -1.581 -1.015 -2.894 -2.574 -3.173C28.091 29.176 26.395 29 24 29c-2.394 0 -4.09 0.175 -5.265 0.386 -1.559 0.279 -2.486 1.591 -2.574 3.173C16.077 34.076 16 36.434 16 40c0 1.984 0.024 3.595 0.06 4.895 2.24 0.063 4.879 0.105 7.94 0.105 3.061 0 5.7 -0.042 7.94 -0.105Z" stroke-width="1"></path>
    <path id="Intersect_2" stroke="#2859c5" stroke-linecap="round" stroke-linejoin="round" d="M31.94 44.895c0.036 -1.3 0.06 -2.91 0.06 -4.895 0 -3.565 -0.077 -5.924 -0.161 -7.441 -0.088 -1.581 -1.015 -2.894 -2.574 -3.173C28.091 29.176 26.395 29 24 29c-2.394 0 -4.09 0.175 -5.265 0.386 -1.559 0.279 -2.486 1.591 -2.574 3.173C16.077 34.076 16 36.434 16 40c0 1.984 0.024 3.595 0.06 4.895" stroke-width="1"></path>
    <path id="Union_2" stroke="#2859c5" stroke-linecap="round" stroke-linejoin="round" d="M6.09 6.916c0.677 -1.804 2.223 -3.11 4.139 -3.322C12.789 3.311 17.155 3 24 3c6.845 0 11.21 0.31 13.771 0.594 1.916 0.213 3.462 1.518 4.138 3.322C45 15.163 45 17.736 45 17.736A5.257 5.257 0 0 1 39.75 23c-2.9 0 -5.25 -2.356 -5.25 -5.263A5.257 5.257 0 0 1 29.25 23c-2.9 0 -5.25 -2.356 -5.25 -5.263A5.257 5.257 0 0 1 18.75 23c-2.9 0 -5.25 -2.356 -5.25 -5.263A5.257 5.257 0 0 1 8.25 23C5.35 23 3 20.644 3 17.737c0 0 0 -2.574 3.09 -10.82Z" stroke-width="1"></path>
    <path id="Subtract_2" stroke="#2859c5" stroke-linecap="round" stroke-linejoin="round" d="M5 21.87V30c0 4.446 0.179 7.763 0.378 10.075 0.217 2.536 2.216 4.408 4.756 4.563 2.939 0.18 7.484 0.362 13.866 0.362s10.927 -0.182 13.866 -0.362c2.54 -0.155 4.539 -2.027 4.756 -4.563 0.2 -2.312 0.378 -5.629 0.378 -10.075v-8.13" stroke-width="1"></path>
  </g>
</svg>