<svg xmlns="http://www.w3.org/2000/svg" fill="none" viewBox="0 0 24 24" id="Bank-Notes-Stack--Streamline-Cyber">
  <desc>
    Bank Notes Stack Streamline Icon: https://streamlinehq.com
  </desc>
  <path fill="#ffffff" d="m23.27 8.08 -4.9 -3.92L0.730003 8.08v7.84L5.63 19.84l17.64 -3.92V8.08Z" stroke-width="1"></path>
  <path fill="#bbd8ff" d="M23.27 15.92V8.08l-6.86 1.5249v7.84l6.86 -1.5249Z" stroke-width="1"></path>
  <path fill="#bbd8ff" d="M5.63 12 0.730003 8.08v7.84L5.63 19.84l6.86 -1.5249v-7.84L5.63 12Z" stroke-width="1"></path>
  <path stroke="#092f63" stroke-linecap="round" stroke-linejoin="round" d="M23.27 15.92 5.63 19.84 0.730003 15.92" stroke-width="1"></path>
  <path stroke="#092f63" stroke-linecap="round" stroke-linejoin="round" d="M5.63 12 0.730003 8.08 18.37 4.16l4.9 3.92L5.63 12Z" stroke-width="1"></path>
  <path stroke="#092f63" stroke-linecap="round" stroke-linejoin="round" d="m7.59 9.06 -1.1025 0.245" stroke-width="1"></path>
  <path stroke="#092f63" stroke-linecap="round" stroke-linejoin="round" d="M17.5125 6.855 16.41 7.1" stroke-width="1"></path>
  <path stroke="#092f63" stroke-linecap="round" stroke-linejoin="round" d="M12.49 10.4751 7.8301 6.5002" stroke-width="1"></path>
  <path stroke="#092f63" stroke-linecap="round" stroke-linejoin="round" d="m16.41 9.6049 -4.8481 -3.9318" stroke-width="1"></path>
  <path stroke="#092f63" stroke-linecap="round" stroke-linejoin="round" d="M5.63 12v7.84" stroke-width="1"></path>
  <path stroke="#092f63" stroke-linecap="round" stroke-linejoin="round" d="M23.27 8.08v7.84" stroke-width="1"></path>
  <path stroke="#092f63" stroke-linecap="round" stroke-linejoin="round" d="M0.730003 8.08v7.84" stroke-width="1"></path>
  <path stroke="#092f63" stroke-linecap="round" stroke-linejoin="round" d="M12.49 18.3151v-7.84" stroke-width="1"></path>
  <path stroke="#092f63" stroke-linecap="round" stroke-linejoin="round" d="M16.41 9.6049v7.84" stroke-width="1"></path>
  <path stroke="#092f63" stroke-linecap="round" stroke-linejoin="round" d="m16.41 15.4849 6.86 -1.5249" stroke-width="1"></path>
  <path stroke="#092f63" stroke-linecap="round" stroke-linejoin="round" d="M12.49 16.3551 5.63 17.88 0.730003 13.96" stroke-width="1"></path>
  <path stroke="#092f63" stroke-linecap="round" stroke-linejoin="round" d="M16.41 13.5249 23.27 12" stroke-width="1"></path>
  <path stroke="#092f63" stroke-linecap="round" stroke-linejoin="round" d="M12.49 14.3951 5.63 15.92 0.730003 12" stroke-width="1"></path>
  <path stroke="#092f63" stroke-linecap="round" stroke-linejoin="round" d="M12.49 12.4351 5.63 13.96 0.730003 10.04" stroke-width="1"></path>
  <path stroke="#092f63" stroke-linecap="round" stroke-linejoin="round" d="m23.27 10.04 -6.86 1.5249" stroke-width="1"></path>
</svg>