<svg xmlns="http://www.w3.org/2000/svg" fill="none" viewBox="0 0 24 24" id="Business-Network--Streamline-Cyber">
  <desc>
    Business Network Streamline Icon: https://streamlinehq.com
  </desc>
  <path fill="#ffffff" d="m18.2553 9.2477 -0.5815 0.2902 -2.2819 -5.934 -6.1442 -2.3631 -6.1443 2.3631L0.740398 9.7481 3.1034 15.8923l6.1443 2.363 6.1442 -2.363 0.3453 -0.8978 2.5181 1.2591 3.0026 -1.5013v-4.0034l-3.0026 -1.5012Z" stroke-width="1"></path>
  <path fill="#ffffff" d="M23.2596 22.7591v-4.0034l-5.0043 -1.5012 -5.0042 1.5012v4.0034h10.0085Z" stroke-width="1"></path>
  <path fill="#bbd8ff" d="M15.2528 14.7523v-4.0034l2.421 -1.211 -2.2819 -5.934 -6.1442 -2.3631v17.0145l6.1442 -2.363 0.3453 -0.8978 -0.4844 -0.2422Z" stroke-width="1"></path>
  <path fill="#bbd8ff" d="m18.2553 9.2477 -2.2759 1.1379 -0.026 -0.007 0.016 0.012 1.7855 1.3592h3.503v-1.0009l-3.0026 -1.5012Z" stroke-width="1"></path>
  <path stroke="#092f63" stroke-linecap="round" stroke-linejoin="round" d="M23.2596 22.7591v-4.0034l-5.0043 -1.5012 -5.0042 1.5012v4.0034" stroke-width="1"></path>
  <path stroke="#092f63" stroke-linecap="round" stroke-linejoin="round" d="M18.2553 19.7566v2.0017" stroke-width="1"></path>
  <path stroke="#092f63" stroke-linejoin="round" d="M5.2443 16.716V2.7802" stroke-width="1"></path>
  <path stroke="#092f63" stroke-linejoin="round" d="M13.2511 16.716V2.7802" stroke-width="1"></path>
  <path stroke="#092f63" stroke-linecap="round" stroke-linejoin="round" d="M16.2146 5.7447H2.2797" stroke-width="1"></path>
  <path stroke="#092f63" stroke-linecap="round" stroke-linejoin="round" d="M13.2511 13.7515H2.2797" stroke-width="1"></path>
  <path stroke="#092f63" stroke-linecap="round" stroke-linejoin="round" d="M13.2511 9.7481H0.740398" stroke-width="1"></path>
  <path stroke="#092f63" stroke-linejoin="round" d="M9.2477 18.2553V1.2408" stroke-width="1"></path>
  <path stroke="#092f63" stroke-linecap="round" stroke-linejoin="round" d="m17.0223 7.8435 -1.6304 -4.2396 -6.1442 -2.3631 -6.1443 2.3631L0.740398 9.7481 3.1034 15.8923l6.1443 2.363 4.8591 -1.8686" stroke-width="1"></path>
  <path stroke="#092f63" stroke-miterlimit="10" d="m15.9534 10.3786 1.8015 1.3712h3.503" stroke-width="1"></path>
  <path stroke="#092f63" stroke-linejoin="round" d="m21.2579 14.7523 -3.0026 1.5013 -3.0025 -1.5013v-4.0034l3.0025 -1.5012 3.0026 1.5012v4.0034Z" stroke-width="1"></path>
</svg>