<svg xmlns="http://www.w3.org/2000/svg" fill="none" viewBox="0 0 24 24" id="Business-Startup-Mobile--Streamline-Cyber">
  <desc>
    Business Startup Mobile Streamline Icon: https://streamlinehq.com
  </desc>
  <path fill="#ffffff" d="M1.3409 23.2596H14.352v-9.6082l1.201 -0.9008 -0.6005 -2.1018 5.905 -3.9033L22.6591 0.740402 16.654 2.542l-2.302 3.3028V2.2417H1.3409v21.0179Z" stroke-width="1"></path>
  <path fill="#bbd8ff" d="m19.4563 3.9431 -0.4003 1.7015 -1.7014 0.4003 -5.7049 5.7049 0.7006 0.7006 8.5072 -5.7049L22.6591 0.740402 19.4563 3.9431Z" stroke-width="1"></path>
  <path fill="#bbd8ff" d="M1.3409 19.2562H14.352V2.2417L1.3409 19.2562Zm9.0077 -4.0034 -4.0034 2.0017 2.0017 -4.0034h2.0017v2.0017Z" stroke-width="1"></path>
  <path stroke="#092f63" stroke-linecap="round" stroke-linejoin="round" stroke-miterlimit="10" d="M1.3409 19.2562H14.352" stroke-width="1"></path>
  <path stroke="#092f63" stroke-linecap="round" stroke-linejoin="round" stroke-miterlimit="10" d="M14.352 16.2536v7.006H1.3409V2.2417h12.0103" stroke-width="1"></path>
  <path stroke="#092f63" stroke-linecap="round" stroke-linejoin="round" stroke-miterlimit="10" d="M7.34599 21.2579h1.0009" stroke-width="1"></path>
  <path stroke="#092f63" stroke-linecap="round" stroke-linejoin="round" stroke-miterlimit="10" d="m12.05 9.3477 2.0017 1.9017" stroke-width="1"></path>
  <path stroke="#092f63" stroke-linecap="round" stroke-linejoin="round" stroke-miterlimit="10" d="m19.4563 3.9432 -1.8015 0.3002 -0.3002 1.8015 1.7014 -0.4003 0.4003 -1.7014Z" stroke-width="1"></path>
  <path stroke="#092f63" stroke-linejoin="round" stroke-miterlimit="10" d="m12.6506 8.3469 -2.1018 -0.5005 -2.7023 3.403 3.1026 -0.2002" stroke-width="1"></path>
  <path stroke="#092f63" stroke-linejoin="round" stroke-miterlimit="10" d="m14.9525 10.6489 0.6005 2.1017 -3.2027 2.5022v-2.8024" stroke-width="1"></path>
  <path stroke="#092f63" stroke-linecap="round" stroke-linejoin="round" stroke-miterlimit="10" d="m12.3503 12.4504 -1.4012 -1.4012L16.654 2.542 22.6591 0.740402 20.8575 6.7455l-8.5072 5.7049Z" stroke-width="1"></path>
  <path stroke="#092f63" stroke-linecap="round" stroke-linejoin="round" stroke-miterlimit="10" d="M10.3486 13.2511H8.3469l-2.0017 4.0034 4.0034 -2.0017v-2.0017Z" stroke-width="1"></path>
</svg>