<svg xmlns="http://www.w3.org/2000/svg" fill="none" viewBox="0 0 24 24" id="Business-Male-Megaphone--Streamline-Cyber">
  <desc>
    Business Male Megaphone Streamline Icon: https://streamlinehq.com
  </desc>
  <path fill="#ffffff" d="M10.5 5.5V2L7.5 0.5 4.5 2v3.5l3 1.5 3 -1.5Z" stroke-width="1"></path>
  <path fill="#ffffff" d="M13 10 7.5 8 2 10 0.5 16.5l3 -2.5v9.5l4 -6 4 6V14l3 2.5L13 10Z" stroke-width="1"></path>
  <path fill="#ffffff" d="m23.5 8.93799 -8 -2.5v-2l8 -3v7.5Z" stroke-width="1"></path>
  <path fill="#bbd8ff" d="M11.5 15.5h-8v2h8v-2Z" stroke-width="1"></path>
  <path fill="#bbd8ff" d="m15.5 4.43799 -2 -1v4l2 -1" stroke-width="1"></path>
  <path fill="#bbd8ff" d="M15.5 5.5v0.938l8 2.5V5.5h-8Z" stroke-width="1"></path>
  <path fill="#bbd8ff" d="M10.5 3.5h-4L4.5 2l3 -1.5 3 1.5v1.5Z" stroke-width="1"></path>
  <path stroke="#092f63" stroke-linecap="round" stroke-linejoin="round" d="m15.5 4.43799 -2 -1v4l2 -1" stroke-width="1"></path>
  <path stroke="#092f63" stroke-linecap="round" stroke-linejoin="round" d="m23.5 8.93799 -8 -2.5v-2l8 -3v7.5Z" stroke-width="1"></path>
  <path stroke="#092f63" stroke-linecap="round" stroke-linejoin="round" d="M16.5 6.75v2l4 1.25V8" stroke-width="1"></path>
  <path stroke="#092f63" stroke-linecap="round" stroke-linejoin="round" d="M7.5 10.5v3" stroke-width="1"></path>
  <path stroke="#092f63" stroke-linecap="round" stroke-linejoin="round" d="M10.5 5.5 7.5 7l-3 -1.5V2l3 -1.5 3 1.5v3.5Z" stroke-width="1"></path>
  <path stroke="#092f63" stroke-linecap="round" stroke-linejoin="round" d="m11.5 14 3 2.5L13 10 7.5 8 2 10 0.5 16.5l3 -2.5" stroke-width="1"></path>
  <path stroke="#092f63" stroke-linecap="round" stroke-linejoin="round" d="M11.5 12.5v11l-4 -6 -4 6v-11" stroke-width="1"></path>
  <path stroke="#092f63" stroke-linecap="round" stroke-linejoin="round" d="m4.5 2 2 1.5h4" stroke-width="1"></path>
  <path stroke="#092f63" stroke-linecap="round" stroke-linejoin="round" d="M3.5 15.5h8" stroke-width="1"></path>
</svg>