<svg xmlns="http://www.w3.org/2000/svg" fill="none" viewBox="0 0 24 24" id="Cash-Bag-Give--Streamline-Cyber">
  <desc>
    Cash Bag Give Streamline Icon: https://streamlinehq.com
  </desc>
  <path fill="#ffffff" d="M17.88 13.47h0.49l0.98 -1.47 -0.49 -1.47 0.98 -1.47 -0.98 -1.47 0.98 -1.47 -0.98 -1.47H16.9L18.86 0.730003H12L12.882 2.494 10.53 3.67 9.06 6.61l-3.43 0.98v-0.98H2.69v6.86h2.94v-0.98l6.86 0.98 -2.94 2.94v4.9l5.88 1.96 5.88 -1.96v-4.9l-3.43 -2.94Z" stroke-width="1"></path>
  <path fill="#bbd8ff" d="M9.54999 19.349v1.961L15.43 23.27l5.88 -1.96v-1.961l-5.88 1.96 -5.88001 -1.96Z" stroke-width="1"></path>
  <path fill="#bbd8ff" d="M5.63 8.08H2.69v5.39h2.94V8.08Z" stroke-width="1"></path>
  <path fill="#bbd8ff" d="m13.225 3.18 0.735 1.47h2.94l0.735 -1.47h-4.41Z" stroke-width="1"></path>
  <path stroke="#092f63" stroke-linecap="round" stroke-linejoin="round" d="M16.41 16.41h-1.96l-0.49 0.98 0.49 0.98h1.96l0.49 0.98 -0.49 0.98h-1.96" stroke-width="1"></path>
  <path stroke="#092f63" stroke-linecap="round" stroke-linejoin="round" d="M15.43 16.41v-0.98" stroke-width="1"></path>
  <path stroke="#092f63" stroke-linecap="round" stroke-linejoin="round" d="M15.43 21.31v-0.98" stroke-width="1"></path>
  <path stroke="#092f63" stroke-linecap="round" stroke-linejoin="round" d="M18.37 13.47h-5.88l-6.86 -0.98" stroke-width="1"></path>
  <path stroke="#092f63" stroke-linecap="round" stroke-linejoin="round" d="M13.96 4.65h4.9l0.98 1.47 -0.98 1.47 0.98 1.47 -0.98 1.47 0.49 1.47 -0.98 1.47" stroke-width="1"></path>
  <path stroke="#092f63" stroke-linecap="round" stroke-linejoin="round" d="m5.63 7.59 3.43001 -0.98L10.53 3.67l2.352 -1.176" stroke-width="1"></path>
  <path stroke="#092f63" stroke-linecap="round" stroke-linejoin="round" d="M5.63 6.61H2.69v6.86h2.94V6.61Z" stroke-width="1"></path>
  <path stroke="#092f63" stroke-linejoin="round" d="m17.88 13.47 3.43 2.94v4.9l-5.88 1.96 -5.88001 -1.96v-4.9L12.49 13.47" stroke-width="1"></path>
  <path stroke="#092f63" stroke-linecap="round" stroke-linejoin="round" d="M12 0.730003 13.96 4.65h2.94L18.86 0.730003H12Z" stroke-width="1"></path>
</svg>