<svg xmlns="http://www.w3.org/2000/svg" fill="none" viewBox="0 0 24 24" id="Coin-Hand--Streamline-Cyber">
  <desc>
    Coin Hand Streamline Icon: https://streamlinehq.com
  </desc>
  <path fill="#ffffff" d="m16.7573 4.50909 -8.5032 0.5002 -4.5017 4.0015 -0.8444 2.53201 -2.1678 1.2195v4.5017l4.0015 2.2509 4.0016 -2.2509v-2.2839l0.011 0.033 6.5024 2.501 8.0031 -2.501V8.51069l-6.5025 -4.0016Zm-2.0007 9.00351 -5.002 -1.0004 -1.0113 0.6743v-0.4242l-3.5924 -2.0208h0.014l4.0786 -2.73101h5.5021l1.5115 2.50091 -1.5005 3.0012Z" stroke-width="1"></path>
  <path fill="#bbd8ff" d="M8.7433 12.7623v4.5017l-4.0016 2.2509L0.7402 17.264l8.0031 -4.5017Z" stroke-width="1"></path>
  <path stroke="#092f63" stroke-linecap="round" stroke-linejoin="round" d="M5.7531 12.9885H3.7523l-0.5002 1.0004 0.5002 1.0003h2.0008l0.5002 1.0004 -0.5002 1.0004H3.7523" stroke-width="1"></path>
  <path stroke="#092f63" stroke-linecap="round" stroke-linejoin="round" d="M4.7527 12.9885v-0.5002" stroke-width="1"></path>
  <path stroke="#092f63" stroke-linecap="round" stroke-linejoin="round" d="M4.7527 17.4902V16.99" stroke-width="1"></path>
  <path stroke="#092f63" stroke-linecap="round" stroke-linejoin="round" d="M8.7543 16.9899v0.2501l-4.0016 2.2509L0.7512 17.24l-0.011 -4.4777 4.0015 -2.2509L7.4598 11.96" stroke-width="1"></path>
  <path stroke="#092f63" stroke-linecap="round" stroke-linejoin="round" d="m5.1649 10.7365 4.0786 -2.726h5.5021l1.5115 2.5009 -1.5005 3.0012 -5.0019 -1.0004 -1.5006 1.0004 0.5002 1.5005 6.5025 2.501 8.003 -2.501" stroke-width="1"></path>
  <path stroke="#092f63" stroke-linecap="round" stroke-linejoin="round" d="m23.2598 8.51069 -6.5025 -4.0016 -8.5032 0.5002 -4.5018 4.0016 -0.8443 2.53191" stroke-width="1"></path>
</svg>