<svg xmlns="http://www.w3.org/2000/svg" fill="none" viewBox="0 0 48 48" id="Graduation-Cap--Streamline-Plump-Neon">
  <desc>
    Graduation Cap Streamline Icon: https://streamlinehq.com
  </desc>
  <g id="graduation-cap--graduation-cap-education">
    <path id="Vector" stroke="#000cfe" stroke-linecap="round" stroke-linejoin="round" d="M4.9853 17.857v19.0224" stroke-width="1"></path>
    <path id="Vector_2" stroke="#000cfe" stroke-linecap="round" stroke-linejoin="round" d="M11.0928 20.0162c-0.06 1.1205 -0.1004 2.4538 -0.1004 4.0149 0 3.0977 0.1589 5.0425 0.3158 6.2079 0.1368 1.0168 0.7193 1.8815 1.6283 2.3573 1.7587 0.9204 5.3293 2.2809 11.0713 2.2809 5.7419 0 9.3126 -1.3605 11.0712 -2.2809 0.909 -0.4758 1.4915 -1.3405 1.6284 -2.3573 0.1568 -1.1654 0.3157 -3.1102 0.3157 -6.2079 0 -1.5611 -0.0403 -2.8944 -0.1004 -4.0149" stroke-width="1"></path>
    <path id="Vector_3" stroke="#c71dff" stroke-linecap="round" stroke-linejoin="round" d="M3.0346 16.4098c-1.383 -0.6625 -1.383 -2.4502 0 -3.1127 1.8144 -0.8692 4.5246 -2.1025 8.3583 -3.6999 5.3255 -2.2189 8.9648 -3.5346 10.918 -4.2012 1.1041 -0.3768 2.2897 -0.3768 3.3938 0 1.9532 0.6666 5.5925 1.9823 10.918 4.2012 3.8336 1.5974 6.5439 2.8307 8.3582 3.6999 1.3831 0.6625 1.3831 2.4502 0 3.1127 -1.8143 0.8692 -4.5245 2.1025 -8.3582 3.6998 -5.3255 2.219 -8.9648 3.5346 -10.918 4.2012 -1.1041 0.3769 -2.2897 0.3769 -3.3938 0 -1.9532 -0.6666 -5.5925 -1.9822 -10.918 -4.2012 -3.8337 -1.5973 -6.5439 -2.8306 -8.3583 -3.6998Z" stroke-width="1"></path>
    <path id="Vector_4" stroke="#c71dff" stroke-linecap="round" stroke-linejoin="round" d="M7.9889 39.883c0.0042 2.3121 -2.4961 3.7618 -4.5006 2.6094 -0.9337 -0.5368 -1.5085 -1.5324 -1.5065 -2.6094 -0.0042 -2.3121 2.4961 -3.7618 4.5006 -2.6094 0.9336 0.5368 1.5084 1.5324 1.5065 2.6094" stroke-width="1"></path>
  </g>
</svg>