<svg xmlns="http://www.w3.org/2000/svg" fill="none" viewBox="0 0 48 48" id="Task-List-Edit--Streamline-Plump-Neon">
  <desc>
    Task List Edit Streamline Icon: https://streamlinehq.com
  </desc>
  <g id="task-list-edit--task-list-edit-work">
    <path id="Vector" stroke="#000cfe" stroke-linecap="round" stroke-linejoin="round" d="m9 12 4 4 5 -7" stroke-width="3"></path>
    <path id="Vector_2" stroke="#000cfe" stroke-linecap="round" stroke-linejoin="round" d="m9 23 4 4 5 -7" stroke-width="3"></path>
    <path id="Vector_3" stroke="#000cfe" stroke-linecap="round" stroke-linejoin="round" d="M44.6651 32.5928c1.4538 -1.4538 2.01 -3.5775 0.7938 -5.2353 -0.4519 -0.616 -1.031 -1.3061 -1.7706 -2.0458 -0.7397 -0.7397 -1.4298 -1.3187 -2.0458 -1.7706 -1.6578 -1.2162 -3.7815 -0.66 -5.2353 0.7938L24.0679 36.6742c-0.5439 0.544 -0.9156 1.2333 -0.9798 1.9999 -0.0871 1.0414 -0.1513 2.8105 0.017 5.4278 0.0619 0.9635 0.8295 1.7311 1.793 1.793 2.6173 0.1683 4.3864 0.1041 5.4278 0.017 0.7665 -0.0642 1.4559 -0.4359 1.9998 -0.9798l12.3394 -12.3393Z" stroke-width="3"></path>
    <path id="Vector_4" stroke="#000cfe" stroke-linecap="round" stroke-linejoin="round" d="M42.0001 35.2579s-0.4731 -2.1075 -3.3118 -4.9462C35.8497 27.4731 33.7422 27 33.7422 27" stroke-width="3"></path>
    <path id="Vector_5" stroke="#c71dff" stroke-linecap="round" stroke-linejoin="round" d="M34 8c-3.1852 -3.18517 -6.3703 -4.86727 -7.9597 -5.57832 -0.605 -0.27066 -1.2637 -0.38853 -1.9264 -0.39854C23.1252 2.00821 22.0872 2 21 2c-6.1665 0 -10.7486 0.26407 -13.74627 0.52081 -2.55437 0.21877 -4.50403 2.18425 -4.70665 4.73995C2.28241 10.599 2 16.0286 2 24c0 7.9714 0.28241 13.401 0.54708 16.7392 0.20262 2.5557 2.15228 4.5212 4.70665 4.74 2.39991 0.2055 5.81537 0.4158 10.24627 0.4915M34 8c3.0946 3.0946 4.7705 6.1893 5.5154 7.8204M34 8c-3.2109 -3.21089 -6.4226 -4.89432 -7.9988 -5.59534 0.0245 2.43428 0.2603 5.47321 0.4966 7.95614 0.26 2.7326 2.4082 4.8808 5.1408 5.1408 2.4829 0.2362 5.5218 0.472 7.956 0.4964C38.8936 14.4219 37.2109 11.2109 34 8Z" stroke-width="3"></path>
  </g>
</svg>