<svg xmlns="http://www.w3.org/2000/svg" fill="none" viewBox="0 0 14 14"><g id="affordable-and-clean-energy"><path id="Union" fill="#37d7ff" fill-rule="evenodd" d="M6.862.014a.75.75 0 0 1 .75.75v.653a.75.75 0 1 1-1.5 0V.764a.75.75 0 0 1 .75-.75Zm4.288 6.848a4.289 4.289 0 1 1-8.578 0 4.289 4.289 0 0 1 8.578 0Zm-3.538 5.444a.75.75 0 0 0-1.5 0v.653a.75.75 0 0 0 1.5 0v-.653ZM.015 6.862a.75.75 0 0 1 .75-.75h.652a.75.75 0 1 1 0 1.5H.765a.75.75 0 0 1-.75-.75Zm12.292-.75a.75.75 0 0 0 0 1.5h.652a.75.75 0 0 0 0-1.5h-.652Zm-.56-4.136a.75.75 0 0 1 0 1.06l-.434.435a.75.75 0 1 1-1.061-1.06l.434-.435a.75.75 0 0 1 1.06 0ZM3.47 11.312a.75.75 0 1 0-1.06-1.06l-.434.433a.75.75 0 0 0 1.06 1.061l.434-.434ZM1.977 1.976a.75.75 0 0 1 1.06 0l.434.434a.75.75 0 0 1-1.06 1.06l-.434-.433a.75.75 0 0 1 0-1.06Zm9.336 8.276a.75.75 0 1 0-1.061 1.06l.434.434a.75.75 0 0 0 1.06-1.06l-.433-.434Z" clip-rule="evenodd"></path><path id="Union_2" fill="#3e3e3e" fill-rule="evenodd" d="M7.488 4.171a.625.625 0 1 0-1.25 0v1.766a.625.625 0 0 0 1.25 0V4.171Zm-2.12 1.565a.625.625 0 1 0-.999-.751 3.115 3.115 0 1 0 4.984 0 .625.625 0 0 0-1 .75 1.865 1.865 0 1 1-2.985 0Z" clip-rule="evenodd"></path></g></svg>