<svg xmlns="http://www.w3.org/2000/svg" fill="none" viewBox="0 0 14 14" id="Alien--Streamline-Core">
  <desc>
    Alien Streamline Icon: https://streamlinehq.com
  </desc>
  <g id="alien--science-extraterristerial-life-form-space-universe-head-astronomy">
    <path id="Union" fill="#8fbffa" fill-rule="evenodd" d="M7 0C5.152 0 3.413 0.361 2.122 1.24 0.803 2.14 0 3.548 0 5.5c0 1.92 0.783 4.023 2.021 5.65C3.256 12.77 5.011 14 7 14c1.988 0 3.744 -1.23 4.979 -2.85C13.217 9.522 14 7.42 14 5.5c0 -1.953 -0.803 -3.361 -2.122 -4.26C10.587 0.362 8.848 0 7 0Z" clip-rule="evenodd" stroke-width="1"></path>
    <path id="Union_2" fill="#2859c5" fill-rule="evenodd" d="M2.52 4.169a3.262 3.262 0 0 1 2.552 0.512 0.25 0.25 0 0 1 0.062 0.062 3.262 3.262 0 0 1 0.512 2.551 0.25 0.25 0 0 1 -0.192 0.192 3.262 3.262 0 0 1 -2.55 -0.512 0.25 0.25 0 0 1 -0.063 -0.063 3.261 3.261 0 0 1 -0.512 -2.55 0.25 0.25 0 0 1 0.192 -0.192Zm7.63 -0.01a3.262 3.262 0 0 1 1.33 0.01 0.25 0.25 0 0 1 0.191 0.192 3.262 3.262 0 0 1 -0.512 2.55 0.25 0.25 0 0 1 -0.063 0.063 3.262 3.262 0 0 1 -2.55 0.512 0.25 0.25 0 0 1 -0.192 -0.192 3.261 3.261 0 0 1 0.512 -2.55 0.25 0.25 0 0 1 0.062 -0.063 3.262 3.262 0 0 1 1.222 -0.521Z" clip-rule="evenodd" stroke-width="1"></path>
  </g>
</svg>