<svg xmlns="http://www.w3.org/2000/svg" fill="none" viewBox="0 0 14 14"><g id="good-health-and-well-being"><path id="Union" fill="#3e3e3e" fill-rule="evenodd" d="M8.906 7.682c.485.04.968.256 1.422.657.461-.39.948-.599 1.433-.632a1.994 1.994 0 0 1 1.552.593c.752.748.994 2.124.017 3.066l-.01.01-2.663 2.42a.5.5 0 0 1-.673 0l-2.662-2.42a.449.449 0 0 1-.017-.016c-.97-.965-.717-2.348.042-3.096a1.98 1.98 0 0 1 1.559-.582Z" clip-rule="evenodd"></path><path id="Vector 801 (Stroke)" fill="#37d7ff" fill-rule="evenodd" d="M8.87 1a.75.75 0 0 1 .64.374l2.025 3.5a.75.75 0 1 1-1.299.751l-1.394-2.41L4.943 9.58a.75.75 0 0 1-1.265.022L1.875 6.875H.76a.75.75 0 1 1 0-1.5h1.518a.75.75 0 0 1 .626.336l1.375 2.08 3.942-6.433A.75.75 0 0 1 8.87 1Z" clip-rule="evenodd"></path></g></svg>