<svg xmlns="http://www.w3.org/2000/svg" fill="none" viewBox="0 0 14 14" id="Rainbow--Streamline-Core">
  <desc>
    Rainbow Streamline Icon: https://streamlinehq.com
  </desc>
  <g id="rainbow--nature-arch-rain-colorful-rainbow-curve-half-circle">
    <path id="Union" fill="#8fbffa" fill-rule="evenodd" d="M7 3.132a6.986 6.986 0 0 0 -6.986 6.986 0.75 0.75 0 0 0 0.75 0.75h12.472a0.75 0.75 0 0 0 0.75 -0.75A6.986 6.986 0 0 0 7 3.132Z" clip-rule="evenodd" stroke-width="1"></path>
    <path id="Union_2" fill="#2859c5" fill-rule="evenodd" d="M7 4.632a5.486 5.486 0 0 0 -5.486 5.486 0.75 0.75 0 0 1 -1.5 0 6.986 6.986 0 0 1 13.972 0 0.75 0.75 0 0 1 -1.5 0A5.486 5.486 0 0 0 7 4.632ZM7 7.09a3.028 3.028 0 0 0 -3.028 3.028 0.75 0.75 0 0 1 -1.5 0 4.528 4.528 0 1 1 9.056 0 0.75 0.75 0 0 1 -1.5 0A3.028 3.028 0 0 0 7 7.09Zm-0.403 2.625a0.57 0.57 0 0 1 0.973 0.403 0.75 0.75 0 0 0 1.5 0 2.07 2.07 0 1 0 -4.14 0 0.75 0.75 0 0 0 1.5 0 0.57 0.57 0 0 1 0.167 -0.403Z" clip-rule="evenodd" stroke-width="1"></path>
  </g>
</svg>