<svg xmlns="http://www.w3.org/2000/svg" fill="none" viewBox="0 0 14 14"><g id="rainbow--nature-arch-rain-colorful-rainbow-curve-half-circle"><path id="Union" fill="#37d7ff" fill-rule="evenodd" d="M7 3.132a6.986 6.986 0 0 0-6.986 6.986.75.75 0 0 0 .75.75h12.472a.75.75 0 0 0 .75-.75A6.986 6.986 0 0 0 7 3.132Z" clip-rule="evenodd"></path><path id="Union_2" fill="#3e3e3e" fill-rule="evenodd" d="M7 4.632a5.486 5.486 0 0 0-5.486 5.486.75.75 0 0 1-1.5 0 6.986 6.986 0 0 1 13.972 0 .75.75 0 0 1-1.5 0A5.486 5.486 0 0 0 7 4.632ZM7 7.09a3.028 3.028 0 0 0-3.028 3.028.75.75 0 0 1-1.5 0 4.528 4.528 0 1 1 9.056 0 .75.75 0 0 1-1.5 0A3.028 3.028 0 0 0 7 7.09Zm-.403 2.625a.57.57 0 0 1 .973.403.75.75 0 0 0 1.5 0 2.07 2.07 0 1 0-4.14 0 .75.75 0 0 0 1.5 0 .57.57 0 0 1 .167-.403Z" clip-rule="evenodd"></path></g></svg>