<svg xmlns="http://www.w3.org/2000/svg" fill="none" viewBox="0 0 14 14"><g id="airport-security"><g id="Vector (Stroke)"><path fill="#37d7ff" fill-rule="evenodd" d="M7.54 13.9a1.5 1.5 0 0 1-1.079 0A10.065 10.065 0 0 1 .004 4.498V1.499c0-.397.158-.779.44-1.06" clip-rule="evenodd"></path><path fill="#37d7ff" d="M1.503 0a1.5 1.5 0 0 0-1.5 1.5v2.998A10.065 10.065 0 0 0 6.462 13.9a1.5 1.5 0 0 0 1.078 0 10.067 10.067 0 0 0 6.458-9.402V1.499A1.5 1.5 0 0 0 12.497 0H1.503Z"></path></g><path id="Union" fill="#3e3e3e" fill-rule="evenodd" d="M8.974 3.685a2.308 2.308 0 0 1 2.365 1.48.812.812 0 0 1-.537 1.016l-1.94.57-.091.027-.7 2.051a.547.547 0 0 1-.357.369l-1.189.437-.007.003a.556.556 0 0 1-.715-.657l.4-1.31-1.792.582a.804.804 0 0 1-1.018-.492l-.746-2.296-.003-.01a.53.53 0 0 1 .328-.64l.827-.282a.531.531 0 0 1 .67.263l.472.731 3.099-1.55a2.3 2.3 0 0 1 .934-.292Z" clip-rule="evenodd"></path></g></svg>