<svg xmlns="http://www.w3.org/2000/svg" fill="none" viewBox="0 0 14 14" id="Bus--Streamline-Core">
  <desc>
    Bus Streamline Icon: https://streamlinehq.com
  </desc>
  <g id="bus--transportation-travel-bus-transit-transport-motorcoach-public">
    <path id="Union" fill="#2859c5" d="M2.701 0.04C1.76 0.04 0.996 0.805 0.996 1.747V6h12.008V1.746c0 -0.942 -0.763 -1.705 -1.705 -1.705H2.7Z" stroke-width="1"></path>
    <path id="Subtract" fill="#2859c5" fill-rule="evenodd" d="M2.295 12.478v0.513a1 1 0 1 0 2 0v-0.465H2.701a1.71 1.71 0 0 1 -0.406 -0.048Zm7.41 0.048v0.465a1 1 0 1 0 2 0v-0.513a1.71 1.71 0 0 1 -0.406 0.048H9.705Z" clip-rule="evenodd" stroke-width="1"></path>
    <path id="Union_2" fill="#8fbffa" fill-rule="evenodd" d="M2.701 1.54a0.205 0.205 0 0 0 -0.205 0.206V5.88h9.008V1.746a0.205 0.205 0 0 0 -0.205 -0.205H2.7Zm-1.705 0.206C0.996 0.804 1.76 0.041 2.701 0.041H11.3c0.942 0 1.705 0.763 1.705 1.705v9.075c0 0.942 -0.763 1.705 -1.705 1.705H2.7a1.705 1.705 0 0 1 -1.705 -1.705V1.746Z" clip-rule="evenodd" stroke-width="1"></path>
    <path id="Union_3" fill="#2859c5" fill-rule="evenodd" d="M4 10a1 1 0 1 0 0 -2 1 1 0 0 0 0 2Zm6 0a1 1 0 1 0 0 -2 1 1 0 0 0 0 2Z" clip-rule="evenodd" stroke-width="1"></path>
  </g>
</svg>