<svg xmlns="http://www.w3.org/2000/svg" fill="none" viewBox="0 0 14 14" id="Capitol--Streamline-Core">
  <desc>
    Capitol Streamline Icon: https://streamlinehq.com
  </desc>
  <g id="capitol--capitol-travel-places">
    <path id="Subtract" fill="#2859c5" fill-rule="evenodd" d="M7.06 0.016a0.75 0.75 0 0 1 0.75 0.75v0.702a4.252 4.252 0 0 1 3.5 4.185v1.406a0.505 0.505 0 0 1 -0.007 0.077L7.307 4.853a0.5 0.5 0 0 0 -0.496 0L2.815 7.136a0.504 0.504 0 0 1 -0.006 -0.077V5.653c0 -2.092 1.51 -3.83 3.5 -4.185V0.766a0.75 0.75 0 0 1 0.75 -0.75Z" clip-rule="evenodd" stroke-width="1"></path>
    <path id="Union" fill="#8fbffa" fill-rule="evenodd" d="M6.811 4.853a0.5 0.5 0 0 1 0.496 0l6.203 3.544a0.5 0.5 0 0 1 -0.248 0.934h-0.347v3.148h0.101a0.75 0.75 0 0 1 0 1.5H1.102a0.75 0.75 0 0 1 0 -1.5h0.1V9.33H0.858a0.5 0.5 0 0 1 -0.249 -0.934l6.203 -3.544Zm3.551 4.478h1.053v3.148h-1.053V9.33Zm-7.66 0h1.054v3.148H2.703V9.33Zm2.554 3.148V9.33h1.053v3.148H5.256Zm2.553 0V9.33h1.053v3.148H7.81Z" clip-rule="evenodd" stroke-width="1"></path>
  </g>
</svg>