<svg xmlns="http://www.w3.org/2000/svg" fill="none" viewBox="0 0 14 14" id="Emergency-Exit--Streamline-Core">
  <desc>
    Emergency Exit Streamline Icon: https://streamlinehq.com
  </desc>
  <g id="emergency-exit">
    <path id="Subtract" fill="#2859c5" fill-rule="evenodd" d="M6.13347 0.0657959c-0.78379 0 -1.41918 0.6353891 -1.41918 1.4191841v2.64396c0.28049 0.03395 0.55349 0.10722 0.81126 0.2166 0.36615 -1.16967 1.45831 -2.01839 2.74869 -2.01839 1.59042 0 2.87976 1.28929 2.87976 2.87971 0 0.8308 -0.3519 1.57942 -0.9146 2.10502 0.8315 0.24245 1.4391 1.0104 1.4391 1.92027 0 1.10455 -0.8954 2.00005 -1.99994 2.00005l-1.37138 0c-0.17953 0 -0.35739 -0.0161 -0.53167 -0.0475 0.00677 0.082 0.0102 0.1645 0.0102 0.2474V13.25c0 0.2404 -0.0424 0.4708 -0.12014 0.6843h4.90213c0.7838 0 1.4192 -0.6354 1.4192 -1.4192V1.48498c0 -0.783795 -0.6354 -1.4191841 -1.4192 -1.4191841H6.13347Z" clip-rule="evenodd" stroke-width="1"></path>
    <path id="Union" fill="#8fbffa" fill-rule="evenodd" d="M6.64453 5.20686c0 -0.90007 0.72965 -1.62971 1.62971 -1.62971s1.62971 0.72964 1.62971 1.62971c0 0.90006 -0.72965 1.62971 -1.62971 1.62971s-1.62971 -0.72965 -1.62971 -1.62971Zm0.08214 1.62083 1.4929 1.4929c0.02344 0.02344 0.05524 0.03661 0.08839 0.03661l1.37138 -0.00002c0.48326 -0.00001 0.87496 0.39174 0.87506 0.87498 0 0.48325 -0.3918 0.87504 -0.87503 0.87504l-1.37138 0c-0.49729 0 -0.97422 -0.19754 -1.32586 -0.54918l-0.87418 -0.87417 -0.70942 0.70942 0.71301 0.71303c0.35163 0.3516 0.54917 0.8285 0.54917 1.3258v1.5677c0 0.4832 -0.39175 0.875 -0.875 0.875s-0.875 -0.3918 -0.875 -0.875v-1.5677c0 -0.0331 -0.01317 -0.0649 -0.03661 -0.0884l-0.72526 -0.7252C3.8246 10.8646 3.42686 11 3.01517 11H1c-0.483249 0 -0.875 -0.3918 -0.875 -0.875 0 -0.48327 0.391751 -0.87502 0.875 -0.87502h2.01517c0.03315 0 0.06494 -0.01317 0.08839 -0.03661l1.76696 -1.76696 -0.4276 -0.4276c-0.02344 -0.02344 -0.05523 -0.03661 -0.08839 -0.03661l-1.81804 -0.00002c-0.48325 -0.00001 -0.875 -0.39176 -0.87499 -0.87501 0 -0.48325 0.39176 -0.875 0.87501 -0.87499l1.81805 0.00002c0.49727 0.00001 0.97417 0.19755 1.3258 0.54917l1.04631 1.04632Z" clip-rule="evenodd" stroke-width="1"></path>
  </g>
</svg>