<svg xmlns="http://www.w3.org/2000/svg" fill="none" viewBox="0 0 14 14"><g id="hotel-shower-head--bathe-bath-bathroom-shower-water-head-hotel"><path id="Union" fill="#3e3e3e" fill-rule="evenodd" d="M5 8.488a.75.75 0 0 1 .75.75v1a.75.75 0 1 1-1.5 0v-1a.75.75 0 0 1 .75-.75Zm-1.5 3a.75.75 0 0 1 .75.75v1a.75.75 0 1 1-1.5 0v-1a.75.75 0 0 1 .75-.75Zm4.25.75a.75.75 0 0 0-1.5 0v1a.75.75 0 1 0 1.5 0v-1Zm2.75-.75a.75.75 0 0 1 .75.75v1a.75.75 0 1 1-1.5 0v-1a.75.75 0 0 1 .75-.75Zm-.75-2.25a.75.75 0 0 0-1.5 0v1a.75.75 0 1 0 1.5 0v-1Z" clip-rule="evenodd"></path><path id="Union_2" fill="#37d7ff" fill-rule="evenodd" d="M7.75.762a.75.75 0 0 0-1.5 0v1.315A4.5 4.5 0 0 0 2.5 6.514a.5.5 0 0 0 .5.5h8a.5.5 0 0 0 .5-.5 4.5 4.5 0 0 0-3.75-4.437V.762Z" clip-rule="evenodd"></path></g></svg>