<svg xmlns="http://www.w3.org/2000/svg" fill="none" viewBox="0 0 14 14"><g id="hotel-two-star--two-stars-reviews-review-rating-hotel-star"><path id="Union" fill="#37d7ff" fill-rule="evenodd" d="M7 .046A1.671 1.671 0 0 0 5.584.83l-1.8 2.847-2.274.279a1.652 1.652 0 0 0-1.065 2.72l.002.001L2.38 8.894l-.626 3.084-.001.003a1.662 1.662 0 0 0 .653 1.662l.006.004a1.681 1.681 0 0 0 1.78.1L7 12.208l2.807 1.536a1.682 1.682 0 0 0 1.78-.099l.006-.004a1.662 1.662 0 0 0 .653-1.662v-.003l-.627-3.084 1.933-2.217.002-.002a1.65 1.65 0 0 0-1.065-2.719l-2.274-.279L8.416.831V.83A1.671 1.671 0 0 0 7 .046Z" clip-rule="evenodd"></path><path id="Vector 3 (Stroke)" fill="#3e3e3e" fill-rule="evenodd" d="M5.042 5.757a1.698 1.698 0 0 1 1.6-1.132h.743a1.67 1.67 0 0 1 .67 3.199l-1.592.696a.447.447 0 0 0-.267.394H8.43a.625.625 0 1 1 0 1.25H5.57a.625.625 0 0 1-.625-.625v-.61c0-.674.4-1.284 1.017-1.554l1.591-.696a.42.42 0 0 0-.168-.804h-.742a.448.448 0 0 0-.422.298.625.625 0 1 1-1.179-.416Z" clip-rule="evenodd"></path></g></svg>