<svg xmlns="http://www.w3.org/2000/svg" fill="none" viewBox="0 0 14 14"><g id="iron--laundry-iron-heat-hotel"><path id="Vector (Stroke)" fill="#3e3e3e" fill-rule="evenodd" d="M10.224 1.314a2.586 2.586 0 0 1 1.81.722c.493.465.808 1.1.909 1.78l.216 1.483a.75.75 0 1 1-1.484.217l-.216-1.481a1.562 1.562 0 0 0-.454-.908 1.087 1.087 0 0 0-.764-.313H4.533a.75.75 0 1 1 0-1.5h5.691Z" clip-rule="evenodd"></path><path id="Union" fill="#37d7ff" fill-rule="evenodd" d="M8.851 4.657a9.259 9.259 0 0 0-8.774 6.328.75.75 0 0 0 .71.987h11.456a1.719 1.719 0 0 0 1.656-1.252c.068-.24.083-.493.044-.74v-.006l-.786-4.69a.75.75 0 0 0-.74-.627H8.852Z" clip-rule="evenodd"></path></g></svg>