<svg xmlns="http://www.w3.org/2000/svg" fill="none" viewBox="0 0 14 14"><g id="location-pin-disabled--navigation-map-maps-pin-gps-location-disabled-off"><path id="Subtract" fill="#37d7ff" fill-rule="evenodd" d="M1.063 6.047C1.063 2.72 3.712.004 7 .004c3.288 0 5.938 2.715 5.938 6.043 0 1.988-.986 3.7-2.094 5.004-1.112 1.307-2.39 2.252-3.077 2.714a1.368 1.368 0 0 1-1.534 0c-.686-.462-1.965-1.407-3.077-2.714-1.108-1.303-2.094-3.016-2.094-5.004ZM9 5.502a2 2 0 0 1-2 2l-2-2a2 2 0 1 1 4 0Z" clip-rule="evenodd"></path><path id="Vector (Stroke)" fill="#3e3e3e" fill-rule="evenodd" d="M.22.22a.75.75 0 0 1 1.06 0l12.5 12.5a.75.75 0 1 1-1.06 1.06L.22 1.28a.75.75 0 0 1 0-1.06Z" clip-rule="evenodd"></path></g></svg>