<svg xmlns="http://www.w3.org/2000/svg" fill="none" viewBox="0 0 14 14"><g id="location-target-1--navigation-location-map-services-maps-gps-target"><path id="Union" fill="#3e3e3e" fill-rule="evenodd" d="M7 5.77a1.23 1.23 0 1 0 0 2.46 1.23 1.23 0 0 0 0-2.46Z" clip-rule="evenodd"></path><path id="Union_2" fill="#37d7ff" fill-rule="evenodd" d="M7 .016a.75.75 0 0 1 .75.75v1.223a5.07 5.07 0 0 1 4.26 4.261h1.224a.75.75 0 0 1 0 1.5h-1.223a5.07 5.07 0 0 1-4.261 4.26v1.224a.75.75 0 0 1-1.5 0v-1.223A5.07 5.07 0 0 1 1.99 7.75H.765a.75.75 0 0 1 0-1.5h1.223A5.07 5.07 0 0 1 6.25 1.99V.765A.75.75 0 0 1 7 .016Zm0 3.418a3.566 3.566 0 0 1 3.566 3.56v.012a3.566 3.566 0 0 1-3.56 3.56h-.012A3.566 3.566 0 0 1 7 3.434Z" clip-rule="evenodd"></path></g></svg>