<svg xmlns="http://www.w3.org/2000/svg" fill="none" viewBox="0 0 14 14"><g id="navigation-arrow-off--compass-arrow-map-bearing-navigation-maps-heading-gps-off-disable"><path id="Vector" fill="#37d7ff" d="M6.898 13.724a.5.5 0 0 0 .908-.03l5.02-11.864a.5.5 0 0 0-.656-.656L.305 6.194a.5.5 0 0 0-.029.908l4.266 2.133a.5.5 0 0 1 .223.223l2.133 4.266Z"></path><path id="Vector (Stroke)" fill="#3e3e3e" fill-rule="evenodd" d="M.22.22a.75.75 0 0 0 0 1.06l12.5 12.5a.75.75 0 1 0 1.06-1.06L1.28.22a.75.75 0 0 0-1.06 0Z" clip-rule="evenodd"></path></g></svg>