<svg xmlns="http://www.w3.org/2000/svg" fill="none" viewBox="0 0 14 14" id="Parliament--Streamline-Core">
  <desc>
    Parliament Streamline Icon: https://streamlinehq.com
  </desc>
  <g id="parliament--travel-places-parliament">
    <path id="Vector 1050 (Stroke)" fill="#8fbffa" fill-rule="evenodd" d="M6.46969 0.270275c0.14066 -0.140661 0.33143 -0.2196832 0.53035 -0.2196833l1.37117 0c0.41422 0 0.75 0.3357863 0.75 0.7500003 0 0.414218 -0.33578 0.749998 -0.75 0.749998l-0.62114 0 0.0001 1.98227c0.00002 0.41421 -0.33575 0.75002 -0.74996 0.75004 -0.41422 0.00002 -0.75002 -0.33575 -0.75004 -0.74997L6.25004 0.800629c-0.00001 -0.198919 0.079 -0.389694 0.21965 -0.530354Z" clip-rule="evenodd" stroke-width="1"></path>
    <path id="Union" fill="#2859c5" fill-rule="evenodd" d="M7.41923 2.43353c-0.08644 -0.16434 -0.25683 -0.26724 -0.44252 -0.26724 -0.18568 0 -0.35608 0.1029 -0.44252 0.26724L5.13963 5.08484c-0.03775 0.07178 -0.05748 0.15166 -0.05748 0.23277l0.00002 3.4273c0 0.27614 0.22386 0.5 0.5 0.5h2.78912c0.1326 0 0.25978 -0.05268 0.35355 -0.14645 0.09377 -0.09377 0.14645 -0.22095 0.14645 -0.35356l-0.00002 -3.4273c0 -0.0811 -0.01973 -0.16098 -0.05748 -0.23276L7.41923 2.43353Z" clip-rule="evenodd" stroke-width="1"></path>
    <path id="Union_2" fill="#8fbffa" fill-rule="evenodd" d="M2.22925 8.17926c-0.27614 0 -0.5 0.22386 -0.5 0.5v4.70994c0 0.2762 0.22386 0.5 0.5 0.5h9.54165c0.2761 0 0.5 -0.2238 0.5 -0.5V8.67926c0 -0.27614 -0.2239 -0.5 -0.5 -0.5H2.22925Z" clip-rule="evenodd" stroke-width="1"></path>
    <path id="Union_3" fill="#2859c5" fill-rule="evenodd" d="M1.54103 4.01227c0.19611 0 0.37412 0.11464 0.45523 0.29319l0.99874 2.1984c0.0295 0.06496 0.04477 0.13547 0.04477 0.20681v6.67863c0 0.2762 -0.22386 0.5 -0.5 0.5H0.542297c-0.276142 0 -0.4999996 -0.2238 -0.4999996 -0.5V6.71067c0 -0.07134 0.0152667 -0.14185 0.0447747 -0.20681l0.9987379 -2.1984c0.08111 -0.17855 0.25912 -0.29319 0.45522 -0.29319Zm11.32527 0.29319c-0.0812 -0.17855 -0.2592 -0.29319 -0.4553 -0.29319s-0.3741 0.11464 -0.4552 0.29319l-0.9987 2.1984c-0.0295 0.06496 -0.0448 0.13547 -0.0448 0.20681v6.67863c0 0.2762 0.2239 0.5 0.5 0.5h1.9975c0.2761 0 0.5 -0.2238 0.5 -0.5V6.71067c0 -0.07134 -0.0153 -0.14185 -0.0448 -0.20681l-0.9987 -2.1984Z" clip-rule="evenodd" stroke-width="1"></path>
    <path id="Rectangle 53" fill="#2859c5" d="M6.09821 12.3874c0 -0.498 0.40374 -0.9018 0.90179 -0.9018s0.9018 0.4038 0.9018 0.9018v1.502H6.09821v-1.502Z" stroke-width="1"></path>
  </g>
</svg>