<svg xmlns="http://www.w3.org/2000/svg" fill="none" viewBox="0 0 14 14"><g id="street-sign--crossroad-street-sign-metaphor-directions-travel-places"><path id="Union" fill="#37d7ff" fill-rule="evenodd" d="M2.538.057a.25.25 0 0 0-.176.073L.379 2.113a.25.25 0 0 0 0 .353L2.362 4.45a.25.25 0 0 0 .176.074H6.75V6.5H2.538a.25.25 0 0 0-.176.074L.379 8.558a.25.25 0 0 0 0 .353l1.983 1.983a.25.25 0 0 0 .176.073H7a.25.25 0 0 0 .25-.25v-2.91h4.212a.25.25 0 0 0 .177-.074L13.62 5.75a.25.25 0 0 0 0-.353l-1.98-1.983a.25.25 0 0 0-.177-.073H7.25V.307A.25.25 0 0 0 7 .057H2.538Z" clip-rule="evenodd"></path><path id="Vector (Stroke)" fill="#3e3e3e" fill-rule="evenodd" d="M7 .045a.75.75 0 0 1 .75.75v12.41a.75.75 0 1 1-1.5 0V.795A.75.75 0 0 1 7 .045Z" clip-rule="evenodd"></path></g></svg>