<svg xmlns="http://www.w3.org/2000/svg" fill="none" viewBox="0 0 48 48" id="Beach--Streamline-Plump">
  <desc>
    Beach Streamline Icon: https://streamlinehq.com
  </desc>
  <g id="beach--island-waves-outdoor-recreation-tree-beach-palm-wave-water-travel-places">
    <path id="Union" fill="#000000" fill-rule="evenodd" d="M29.4566 5.58955c1.8124 0.26583 3.5284 1.11347 4.9774 2.4447 0.1868 -1.71148 -0.4743 -3.3248 -1.7954 -4.0875 -0.7174 -0.41421 -0.9632 -1.3316 -0.549 -2.04904 0.4142 -0.71744 1.3316 -0.96325 2.049 -0.54904 3.0657 1.76997 3.8335 5.33177 2.9995 8.37727 4.631 0.98556 8.3611 5.09606 8.3611 10.27436 0 0.8285 -0.6715 1.5 -1.5 1.5 -0.8284 0 -1.5 -0.6715 -1.5 -1.5 0 -3.117 -1.9122 -5.7125 -4.51 -6.8627 1.0358 2.9807 0.5149 6.4407 -1.7494 8.8826 -0.5633 0.6075 -1.5124 0.6433 -2.1198 0.0801 -0.6075 -0.5633 -0.6433 -1.5124 -0.08 -2.1199 1.7756 -1.9149 1.9224 -4.9358 0.4855 -7.155 -1.2472 0.5475 -2.5152 1.8 -3.6138 3.86 -1.0865 2.0371 -1.8973 4.6897 -2.2635 7.7018 -1.5051 -0.2549 -3.0623 -0.3872 -4.649 -0.3872 -2.1409 0 -4.2283 0.2409 -6.2062 0.6988 1.3238 -7.3489 6.9881 -13.1897 14.2435 -14.77306 -0.9505 -0.76664 -1.9912 -1.21775 -3.0153 -1.36795 -1.6695 -0.24489 -3.4455 0.28425 -4.9494 1.82241 -0.5792 0.5923 -1.5289 0.603 -2.1212 0.0238 -0.5924 -0.57916 -0.6031 -1.52884 -0.0239 -2.12118 2.1399 -2.18854 4.8616 -3.08466 7.5299 -2.69327Zm7.4301 24.69975C33.5285 27.9188 28.968 26.5 24.0008 26.5c-4.9671 0 -9.5277 1.4188 -12.8858 3.7893 -3.31113 2.3372 -5.55592 5.6914 -5.61305 9.5594 0.13336 -0.0742 0.26446 -0.1549 0.39292 -0.2421 2.46138 -1.6695 5.75053 -1.6695 8.21193 0 0.8824 0.5986 1.8894 0.8933 2.894 0.8933 1.0046 0 2.0117 -0.2947 2.8941 -0.8933 2.4613 -1.6695 5.7505 -1.6695 8.2119 0 0.8824 0.5986 1.8894 0.8933 2.894 0.8933 1.0046 0 2.0117 -0.2947 2.8941 -0.8933 2.4613 -1.6695 5.7505 -1.6695 8.2119 0 0.1285 0.0872 0.2596 0.1679 0.3929 0.2421 -0.0571 -3.868 -2.3019 -7.2222 -5.613 -9.5594Zm-1.3086 11.8001c1.4446 -0.9799 3.3992 -0.9799 4.8438 0 1.3879 0.9413 2.9834 1.4105 4.5781 1.4105 0.8284 0 1.5 0.6716 1.5 1.5s-0.6716 1.5 -1.5 1.5H3c-0.82843 0 -1.5 -0.6716 -1.5 -1.5s0.67157 -1.5 1.5 -1.5c1.5947 0 3.19022 -0.4692 4.57806 -1.4105 1.4446 -0.9799 3.39924 -0.9799 4.84384 0 1.3879 0.9413 2.9834 1.4105 4.5781 1.4105s3.1902 -0.4692 4.5781 -1.4105c1.4446 -0.9799 3.3992 -0.9799 4.8438 0 1.3879 0.9413 2.9834 1.4105 4.5781 1.4105s3.1902 -0.4692 4.5781 -1.4105Z" clip-rule="evenodd" stroke-width="1"></path>
  </g>
</svg>