<svg xmlns="http://www.w3.org/2000/svg" fill="none" viewBox="0 0 48 48" id="Location-Pin-3--Streamline-Plump">
  <desc>
    Location Pin 3 Streamline Icon: https://streamlinehq.com
  </desc>
  <g id="location-pin-3--navigation-map-maps-pin-gps-location">
    <path id="Subtract" fill="#000000" d="M36.2073 34.1014c-3.4475 3.8908 -7.3051 6.5539 -9.1133 7.7004 -1.8936 1.2007 -4.2944 1.2007 -6.188 0 -1.8082 -1.1465 -5.6658 -3.8096 -9.1133 -7.7004 -0.6341 -0.7157 -1.2666 -1.4869 -1.87631 -2.3113 -0.02699 0.0015 -0.05368 0.003 -0.08008 0.0045 -1.71135 0.0961 -3.29786 1.043 -4.10358 2.6431 -0.74766 1.4849 -1.77531 3.8164 -2.53276 6.671 -0.70334 2.6507 1.27621 5.0372 3.87527 5.1432 2.89263 0.118 8.08826 0.2485 16.92546 0.2485 8.8373 0 14.0329 -0.1305 16.9255 -0.2485 2.5991 -0.106 4.5786 -2.4925 3.8753 -5.1432 -0.7574 -2.8546 -1.7851 -5.1861 -2.5327 -6.671 -0.8058 -1.6001 -2.3923 -2.547 -4.1036 -2.6431 -0.0269 -0.0015 -0.0541 -0.003 -0.0815 -0.0046 -0.6097 0.8244 -1.2422 1.5957 -1.8764 2.3114Z" stroke-width="1"></path>
    <path id="Subtract_2" fill="#000000" fill-rule="evenodd" d="M8 18.0698C8 9.19906 15.1591 2 24 2c8.8409 0 16 7.19906 16 16.0698 0 5.6599 -2.8585 10.4532 -6.038 14.0416 -3.1865 3.5962 -6.7849 6.0851 -8.4745 7.1563 -0.9129 0.5789 -2.0621 0.5789 -2.975 0 -1.6896 -1.0712 -5.288 -3.5601 -8.4745 -7.1563C10.8585 28.523 8 23.7297 8 18.0698ZM24 24c3.3137 0 6 -2.6863 6 -6s-2.6863 -6 -6 -6 -6 2.6863 -6 6 2.6863 6 6 6Z" clip-rule="evenodd" stroke-width="1"></path>
  </g>
</svg>