<svg xmlns="http://www.w3.org/2000/svg" fill="none" viewBox="0 0 48 48" id="Navigation-Arrow-Off--Streamline-Plump">
  <desc>
    Navigation Arrow Off Streamline Icon: https://streamlinehq.com
  </desc>
  <g id="navigation-arrow-off--compass-arrow-map-bearing-navigation-maps-heading-gps-off-disable">
    <g id="Subtract">
      <path fill="#000000" d="m3.59999 21.5872 13.36441 7.3271 4.1643 -4.1643L9.29831 12.9196c-2.41791 1.1459 -4.48114 2.2492 -6.00946 3.2244 -1.04006 0.6638 -1.53183 1.7654 -1.43002 2.8632 0.09902 1.0677 0.7444 2.0335 1.74116 2.58Z" stroke-width="1"></path>
      <path fill="#000000" d="m23.25 26.8713 -4.1642 4.1643 7.3271 13.3645c0.5464 0.9967 1.5123 1.6421 2.58 1.7411 1.0977 0.1018 2.1994 -0.3899 2.8631 -1.43 0.9753 -1.5283 2.0786 -3.5915 3.2244 -6.0095L23.25 26.8713Z" stroke-width="1"></path>
      <path fill="#000000" d="M36.4072 35.7859 25.3713 24.75 45.1202 5.00108c0.1502 0.45671 0.2043 0.95713 0.1382 1.47735 -0.812 6.39817 -3.0624 14.21957 -5.6344 21.26187 -1.0346 2.833 -2.13 5.5635 -3.2168 8.0456Z" stroke-width="1"></path>
      <path fill="#000000" d="M23.25 22.6287 12.2141 11.5928c2.4821 -1.0868 5.2127 -2.18215 8.0456 -3.21678 7.0423 -2.57197 14.8638 -4.82237 21.2619 -5.6344 0.5202 -0.06602 1.0206 -0.012 1.4773 0.13816L23.25 22.6287Z" stroke-width="1"></path>
    </g>
    <path id="Vector 864 (Stroke)" fill="#000000" fill-rule="evenodd" d="M5.23223 1.23223c0.97631 -0.976308 2.55923 -0.976308 3.53554 0L46.7678 39.2322c0.9763 0.9763 0.9763 2.5593 0 3.5356 -0.9763 0.9763 -2.5593 0.9763 -3.5356 0L5.23223 4.76777c-0.97631 -0.97631 -0.97631 -2.55923 0 -3.53554Z" clip-rule="evenodd" stroke-width="1"></path>
  </g>
</svg>