<svg xmlns="http://www.w3.org/2000/svg" fill="none" viewBox="0 0 14 14" id="Graduation-Cap--Streamline-Flex-Remix">
  <desc>
    Graduation Cap Streamline Icon: https://streamlinehq.com
  </desc>
  <g id="graduation-cap--graduation-cap-education">
    <path id="Union" fill="#000000" fill-rule="evenodd" d="M8.31215 1.23315c-0.78498 -0.310832 -1.8611 -0.311428 -2.64576 0.00158 -0.87239 0.34799 -1.80524 0.72021 -2.6699 1.15236 -0.86771 0.43369 -1.6174 0.90299 -2.315207 1.33997 -0.351191 0.21993 -0.680731844 0.58691 -0.681282313 1.09222C-0.00054811 5.32427 0.32782 5.69188 0.677533 5.9125l0.04519 0.02851c0.129477 0.08169 0.260825 0.16456 0.394467 0.24811v4.18598c-0.439888 0.2306 -0.740724 0.6974 -0.740724 1.2357 0 0.7673 0.61103 1.3892 1.364774 1.3892 0.75374 0 1.36478 -0.6219 1.36478 -1.3892 0 -0.5375 -0.29998 -1.0037 -0.73883 -1.2347V6.93205c0.19424 0.10739 0.39449 0.21363 0.60172 0.31771 -0.00075 0.05337 -0.00114 0.10692 -0.00114 0.16064 0 0.51328 0.0356 1.0131 0.08191 1.49161 0.12317 1.27289 1.13167 2.31059 2.39624 2.44029 0.49714 0.0509 1.0186 0.0914 1.55476 0.0914s1.05763 -0.0405 1.55476 -0.0914c1.26457 -0.1297 2.27306 -1.1674 2.39626 -2.44029 0.0463 -0.47851 0.0819 -0.97833 0.0819 -1.49161 0 -0.05395 -0.0004 -0.10772 -0.0012 -0.16132 0.8555 -0.42963 1.5963 -0.89336 2.2863 -1.32548 0.3512 -0.21992 0.6808 -0.5869 0.6813 -1.09222 0.0006 -0.50499 -0.3278 -0.8726 -0.6775 -1.09321l-0.0452 -0.0285c-0.6839 -0.43149 -1.4196 -0.89563 -2.2738 -1.32258 -0.8506 -0.42512 -1.77218 -0.79001 -2.63342 -1.131l-0.05793 -0.02294ZM4.22598 7.82547c0.47189 0.20008 0.94645 0.38797 1.40398 0.56912l0.05789 0.02292c0.78498 0.31084 1.8611 0.31143 2.64577 -0.00157 0.46973 -0.18738 0.95699 -0.38178 1.44171 -0.58878 -0.01221 0.31783 -0.03697 0.63554 -0.06783 0.95445 -0.06739 0.69637 -0.623 1.24989 -1.27952 1.31719 -0.47786 0.049 -0.95189 0.0849 -1.4273 0.0849s-0.94944 -0.0359 -1.4273 -0.0849c-0.65652 -0.0673 -1.21213 -0.62082 -1.27951 -1.31719 -0.03092 -0.31948 -0.05571 -0.63775 -0.06789 -0.95614Z" clip-rule="evenodd" stroke-width="1"></path>
  </g>
</svg>