<svg xmlns="http://www.w3.org/2000/svg" fill="none" viewBox="0 0 48 48" id="Ai-Generate-Portrait-Image-Spark--Streamline-Plump-Gradient">
  <desc>
    Ai Generate Portrait Image Spark Streamline Icon: https://streamlinehq.com
  </desc>
  <g id="ai-generate-portrait-image-spark--picture-photography-photo-image-artificial-intelligence-ai">
    <path id="Union" fill="url(#paint0_linear_7979_3802)" fill-rule="evenodd" d="M7.04363 39.1234c2.82902.2124 7.09477.4186 12.99737.4186.3746 0 .7425-.0008 1.104-.0024-2.301-2.0129-2.6362-5.4321-1.0057-7.8547h-.0986c-3.4684 0-6.1467-.0968-8.1132-.2133-.0312-.0018-.0622-.0039-.0932-.0062-1.92286-.1445-2.80493-2.1746-2.2202-3.8204.9783-2.7537 3.0638-4.9962 5.7318-6.2238-1.6259-1.349-2.6625-3.3858-2.6625-5.6649 0-4.0632 3.2939-7.35713 7.3571-7.35713 4.0633 0 7.3572 3.29393 7.3572 7.35713 0 2.2791-1.0366 4.3159-2.6625 5.6649 1.5084.694 2.8307 1.7126 3.8719 2.9645l1.1697-2.1388c2.0534-3.7545 7.1194-4.1215 9.7618-1.1009.0016-.3615.0024-.7294.0024-1.104 0-5.9026-.2062-10.16837-.4186-12.99739-.2476-3.29634-2.7877-5.83644-6.084-6.083998C30.2093.748149 25.9436.541994 20.041.541992c-5.9026 0-10.16835.206159-12.99736.418618-3.29635.24755-5.83645 2.78766-6.084006 6.084C.747174 9.87363.541016 14.1394.541016 20.042s.206156 10.1684.418616 12.9974c.247548 3.2963 2.787658 5.8364 6.083998 6.084Zm25.80397-15.197c.9483-1.7339 3.4385-1.7339 4.3867 0l1.6788 3.0695c.9636 1.7618 2.4121 3.2103 4.1739 4.1739l3.0695 1.6788c1.7339.9483 1.7339 3.4385 0 4.3867l-3.0695 1.6788c-1.7618.9636-3.2103 2.4121-4.1739 4.1739l-1.6788 3.0695c-.9482 1.7339-3.4385 1.7339-4.3867 0l-1.6788-3.0695c-.9636-1.7618-2.4121-3.2103-4.1739-4.1739l-3.0695-1.6788c-1.7339-.9482-1.7339-3.4385 0-4.3867l3.0695-1.6788c1.7618-.9636 3.2103-2.4121 4.1739-4.1739l1.6788-3.0695Z" clip-rule="evenodd"></path>
  </g>
  <defs>
    <linearGradient id="paint0_linear_7979_3802" x1="2.344" x2="55.815" y1="4.333" y2="34.471" gradientUnits="userSpaceOnUse">
      <stop stop-color="#00d078"></stop>
      <stop offset="1" stop-color="#007df0"></stop>
    </linearGradient>
  </defs>
</svg>