<svg xmlns="http://www.w3.org/2000/svg" fill="none" viewBox="0 0 48 48" id="Deepfake-Technology-1--Streamline-Plump-Gradient">
  <desc>
    Deepfake Technology 1 Streamline Icon: https://streamlinehq.com
  </desc>
  <g id="deepfake-technology-1--automated-face-head-fake-generated-artificial-intelligence-ai">
    <path id="Union" fill="url(#paint0_linear_7979_3835)" fill-rule="evenodd" d="M23.5 2.5c-.8284 0-1.5.67157-1.5 1.5v10.25h-3.2751l-3.555-3.555c.2128-.5232.3301-1.09538.3301-1.695 0-2.48528-2.0147-4.5-4.5-4.5-2.48528 0-4.5 2.01472-4.5 4.5 0 2.4853 2.01472 4.5 4.5 4.5.5996 0 1.1718-.1173 1.695-.3301l4.0676 4.0675c.3282.3282.7733.5126 1.2374.5126h4v4.5H10.147C9.46429 20.634 7.86458 19.5 6 19.5c-2.48528 0-4.5 2.0147-4.5 4.5s2.01472 4.5 4.5 4.5c1.86458 0 3.46429-1.134 4.147-2.75H22v5.5h-5c-.4641 0-.9092.1844-1.2374.5126l-4.0676 4.0675C11.1718 35.6173 10.5996 35.5 10 35.5c-2.48528 0-4.5 2.0147-4.5 4.5s2.01472 4.5 4.5 4.5c2.4853 0 4.5-2.0147 4.5-4.5 0-.5996-.1173-1.1718-.3301-1.695l3.555-3.555H22v10.1167c0 .8284.6716 1.5 1.5 1.5H32c.8284 0 1.5-.6716 1.5-1.5v-3.7553l2.9182.4921c2.5958.4378 5.0115-1.4364 5.2324-4.0596l.4848-5.7559c1.4983-.4484 2.6405-1.0394 3.4516-1.5639 1.6389-1.0597 1.6498-3.0814.7767-4.3738l-3.9182-5.7999C41.7043 10.2336 33.5058 2.5 23.5 2.5Z" clip-rule="evenodd"></path>
  </g>
  <defs>
    <linearGradient id="paint0_linear_7979_3835" x1="8.928" x2="45.01" y1="10.936" y2="31.645" gradientUnits="userSpaceOnUse">
      <stop stop-color="#ffd600"></stop>
      <stop offset="1" stop-color="#00d078"></stop>
    </linearGradient>
  </defs>
</svg>