<svg xmlns="http://www.w3.org/2000/svg" fill="none" viewBox="0 0 14 14"><g id="cloud-block--cloud-network-internet-block-server-deny"><path id="Union" fill="#3e3e3e" fill-rule="evenodd" d="M5.041.748a4.368 4.368 0 0 1 6.645 3.115 3.23 3.23 0 0 1 .208 6.118 4.906 4.906 0 0 0-9.776-.145 3.692 3.692 0 0 1 1.183-7.004A4.368 4.368 0 0 1 5.04.748ZM7 8.198a2.127 2.127 0 0 1 1.938 3.004L6.123 8.386A2.12 2.12 0 0 1 7 8.198Zm-2.517-.485a.758.758 0 0 0-.095.095 3.627 3.627 0 1 0 .095-.095Zm3.395 4.55a2.127 2.127 0 0 1-2.816-2.816l2.816 2.816Z" clip-rule="evenodd"></path></g></svg>