<svg xmlns="http://www.w3.org/2000/svg" fill="none" viewBox="0 0 14 14"><g id="code-monitor-2--code-tags-angle-image-ui-ux-design"><path id="Union" fill="#3e3e3e" fill-rule="evenodd" d="M2 2.5V9h4.397V2.5H2Zm10 4.913L10.407 6.04a1.37 1.37 0 0 0-1.75 0l-.88.71a.22.22 0 0 0-.12.17V9H12V7.413ZM0 1.957C0 1.152.652.5 1.457.5h11.086C13.348.5 14 1.152 14 1.957v7.586c0 .805-.652 1.457-1.457 1.457H8.517l.535 1.495H10a.75.75 0 0 1 0 1.5H4a.75.75 0 0 1 0-1.5h.948L5.483 11H1.457A1.457 1.457 0 0 1 0 9.543V1.957ZM4.776 3.87h-1.75a.63.63 0 1 0 0 1.26h1.75a.63.63 0 0 0 0-1.26Zm-1.75 2.5h1a.63.63 0 1 1 0 1.26h-1a.63.63 0 0 1 0-1.26Z" clip-rule="evenodd"></path></g></svg>