<svg xmlns="http://www.w3.org/2000/svg" fill="none" viewBox="0 0 14 14"><g id="steps-number--interface-number-internet-menu-progress"><path id="Union" fill="#3e3e3e" fill-rule="evenodd" d="M11.561.76h.533a1.728 1.728 0 0 1 1.486 2.611c.262.315.42.72.42 1.162v.178a1.817 1.817 0 0 1-1.817 1.816h-.71a1.817 1.817 0 0 1-1.714-1.21.75.75 0 1 1 1.414-.5.317.317 0 0 0 .3.21h.71a.317.317 0 0 0 .317-.316v-.178a.317.317 0 0 0-.317-.317h-.177a.75.75 0 0 1 0-1.5h.088a.228.228 0 0 0 0-.456h-.533a.228.228 0 0 0-.22.166.75.75 0 1 1-1.443-.408A1.728 1.728 0 0 1 11.561.76Zm-8.67.46a.75.75 0 0 0-1.441.29.317.317 0 0 1-.317.317H.778a.75.75 0 0 0 0 1.5h.355c.108 0 .214-.01.317-.027v1.727H.778a.75.75 0 0 0 0 1.5h2.844a.75.75 0 1 0 0-1.5H2.95V1.511a.748.748 0 0 0-.058-.29ZM6.645.76c-.792 0-1.464.507-1.713 1.212a.75.75 0 0 0 1.415.5.317.317 0 0 1 .298-.211h.74a.29.29 0 0 1 .115.553l-1.583.693A1.817 1.817 0 0 0 4.828 5.17v.606c0 .415.335.75.75.75h2.844a.75.75 0 0 0 0-1.5h-2.06a.317.317 0 0 1 .155-.146L8.1 4.19A1.79 1.79 0 0 0 7.383.76h-.739Zm4.134 7.41a.75.75 0 0 1 .817.163l2.185 2.185a.75.75 0 0 1 0 1.06l-2.185 2.186a.75.75 0 0 1-1.28-.53v-1.186H1a1 1 0 1 1 0-2h9.315V8.863a.75.75 0 0 1 .463-.693Z" clip-rule="evenodd"></path></g></svg>