<svg xmlns="http://www.w3.org/2000/svg" fill="none" viewBox="0 0 24 24" id="Camera-Small--Streamline-Ultimate">
  <desc>
    Camera Small Streamline Icon: https://streamlinehq.com
  </desc>
  <path stroke="#000000" stroke-linecap="round" stroke-linejoin="round" d="M8.25 0.75h-4.5c-0.79565 0 -1.55871 0.31607 -2.12132 0.87868C1.06607 2.19129 0.75 2.95435 0.75 3.75v16.5c0 0.7956 0.31607 1.5587 0.87868 2.1213 0.56261 0.5626 1.32567 0.8787 2.12132 0.8787H7.5c0.19891 0 0.38968 -0.079 0.53033 -0.2197 0.14065 -0.1406 0.21967 -0.3314 0.21967 -0.5303v-9.75h2.25c0.1989 0 0.3897 -0.079 0.5303 -0.2197 0.1407 -0.1406 0.2197 -0.3314 0.2197 -0.5303V3.75c0 -0.79565 -0.3161 -1.55871 -0.8787 -2.12132C9.80871 1.06607 9.04565 0.75 8.25 0.75Z" stroke-width="1"></path>
  <path stroke="#000000" stroke-linecap="round" stroke-linejoin="round" d="M14.25 9.75h6c0.7956 0 1.5587 -0.31607 2.1213 -0.87868 0.5626 -0.56261 0.8787 -1.32567 0.8787 -2.12132v-1.5c0 -0.79565 -0.3161 -1.55871 -0.8787 -2.12132C21.8087 2.56607 21.0456 2.25 20.25 2.25h-6v7.5Z" stroke-width="1"></path>
  <path stroke="#000000" stroke-linecap="round" stroke-linejoin="round" d="M3.75 6c0 0.59674 0.23705 1.16903 0.65901 1.59099C4.83097 8.01295 5.40326 8.25 6 8.25c0.59674 0 1.16903 -0.23705 1.59099 -0.65901C8.01295 7.16903 8.25 6.59674 8.25 6c0 -0.59674 -0.23705 -1.16903 -0.65901 -1.59099C7.16903 3.98705 6.59674 3.75 6 3.75c-0.59674 0 -1.16903 0.23705 -1.59099 0.65901C3.98705 4.83097 3.75 5.40326 3.75 6Z" stroke-width="1"></path>
  <path stroke="#000000" stroke-linecap="round" stroke-linejoin="round" d="M5.25 18.75V12" stroke-width="1"></path>
  <path stroke="#000000" stroke-linecap="round" stroke-linejoin="round" d="M14.25 6.75h-3" stroke-width="1"></path>
</svg>