<svg xmlns="http://www.w3.org/2000/svg" fill="none" viewBox="0 0 24 24" id="Modern-Tv-Curvy-Edge--Streamline-Ultimate">
  <desc>
    Modern Tv Curvy Edge Streamline Icon: https://streamlinehq.com
  </desc>
  <path stroke="#000000" stroke-linecap="round" stroke-linejoin="round" d="M7.5 21.2769h9" stroke-width="1.5"></path>
  <path stroke="#000000" stroke-linecap="round" stroke-linejoin="round" d="M12 16.7769v4.5" stroke-width="1.5"></path>
  <path stroke="#000000" stroke-linecap="round" stroke-linejoin="round" d="M23.25 15.8279c0.0004 0.2115 -0.044 0.4206 -0.1301 0.6137 -0.0862 0.1931 -0.2122 0.3659 -0.3698 0.5068 -0.1576 0.141 -0.3433 0.2471 -0.5447 0.3113 -0.2015 0.0642 -0.4143 0.085 -0.6244 0.0612 -6.3661 -0.7255 -12.79394 -0.7255 -19.16 0 -0.2101 0.0241 -0.42292 0.0035 -0.6245 -0.0604 -0.20159 -0.0639 -0.38737 -0.1698 -0.54516 -0.3106 -0.1578 -0.1408 -0.284039 -0.3133 -0.37044 -0.5064 -0.086401 -0.193 -0.13101 -0.4021 -0.1309 -0.6136V4.22292c0.000031 -0.21139 0.044744 -0.42039 0.131207 -0.61329 0.086463 -0.19291 0.212723 -0.36536 0.370503 -0.50605 0.15778 -0.14068 0.34351 -0.24643 0.54502 -0.31031 0.20152 -0.06388 0.41425 -0.08445 0.62427 -0.06035 6.36542 0.72501 12.7926 0.72501 19.158 0 0.21 -0.0241 0.4228 -0.00353 0.6243 0.06035 0.2015 0.06388 0.3872 0.16963 0.545 0.31031 0.1578 0.14069 0.284 0.31314 0.3705 0.50605 0.0865 0.1929 0.1312 0.4019 0.1312 0.61329V15.8279Z" stroke-width="1.5"></path>
  <path stroke="#000000" stroke-linecap="round" stroke-linejoin="round" d="M7.5 21.2769h9" stroke-width="1.5"></path>
  <path stroke="#000000" stroke-linecap="round" stroke-linejoin="round" d="M12 16.7769v4.5" stroke-width="1.5"></path>
  <path stroke="#000000" stroke-linecap="round" stroke-linejoin="round" d="M23.25 15.8279c0.0004 0.2115 -0.044 0.4206 -0.1301 0.6137 -0.0862 0.1931 -0.2122 0.3659 -0.3698 0.5068 -0.1576 0.141 -0.3433 0.2471 -0.5447 0.3113 -0.2015 0.0642 -0.4143 0.085 -0.6244 0.0612 -6.3661 -0.7255 -12.79394 -0.7255 -19.16 0 -0.2101 0.0241 -0.42292 0.0035 -0.6245 -0.0604 -0.20159 -0.0639 -0.38737 -0.1698 -0.54516 -0.3106 -0.1578 -0.1408 -0.284039 -0.3133 -0.37044 -0.5064 -0.086401 -0.193 -0.13101 -0.4021 -0.1309 -0.6136V4.22292c0.000031 -0.21139 0.044744 -0.42039 0.131207 -0.61329 0.086463 -0.19291 0.212723 -0.36536 0.370503 -0.50605 0.15778 -0.14068 0.34351 -0.24643 0.54502 -0.31031 0.20152 -0.06388 0.41425 -0.08445 0.62427 -0.06035 6.36542 0.72501 12.7926 0.72501 19.158 0 0.21 -0.0241 0.4228 -0.00353 0.6243 0.06035 0.2015 0.06388 0.3872 0.16963 0.545 0.31031 0.1578 0.14069 0.284 0.31314 0.3705 0.50605 0.0865 0.1929 0.1312 0.4019 0.1312 0.61329V15.8279Z" stroke-width="1.5"></path>
</svg>