<svg xmlns="http://www.w3.org/2000/svg" fill="none" viewBox="0 0 24 24" id="Video-Player-Laptop--Streamline-Ultimate">
  <desc>
    Video Player Laptop Streamline Icon: https://streamlinehq.com
  </desc>
  <path stroke="#000000" stroke-linecap="round" stroke-linejoin="round" d="M2.25 16.125V4.875c0 -0.39782 0.15804 -0.77936 0.43934 -1.06066 0.2813 -0.2813 0.66284 -0.43934 1.06066 -0.43934h16.5c0.3978 0 0.7794 0.15804 1.0607 0.43934s0.4393 0.66284 0.4393 1.06066v11.25" stroke-width="1.5"></path>
  <path stroke="#000000" stroke-linecap="round" stroke-linejoin="round" d="M14.584 16.125c-0.2603 0.4556 -0.6364 0.8342 -1.0902 1.0976 -0.4538 0.2634 -0.9691 0.4021 -1.4938 0.4021s-1.04 -0.1387 -1.4938 -0.4021 -0.82992 -0.642 -1.0902 -1.0976H0.75v1.5c0 0.7956 0.31607 1.5587 0.87868 2.1213 0.56261 0.5626 1.32567 0.8787 2.12132 0.8787h16.5c0.7956 0 1.5587 -0.3161 2.1213 -0.8787 0.5626 -0.5626 0.8787 -1.3257 0.8787 -2.1213v-1.5h-8.666Z" stroke-width="1.5"></path>
  <path stroke="#000000" stroke-linecap="round" stroke-linejoin="round" d="M10.924 7.20605c-0.1244 -0.0585 -0.2612 -0.08605 -0.3985 -0.0803 -0.1374 0.00574 -0.2714 0.04461 -0.3905 0.1133 -0.1156 0.06546 -0.21205 0.16014 -0.27961 0.27456 -0.06756 0.11442 -0.1039 0.24457 -0.10539 0.37744V11.609c0.00159 0.1329 0.03797 0.263 0.10552 0.3774s0.16388 0.2091 0.27948 0.2746c0.1191 0.0687 0.2531 0.1076 0.3905 0.1134 0.1373 0.0057 0.2741 -0.0219 0.3985 -0.0804l3.489 -1.647c0.1744 -0.0762 0.3228 -0.2017 0.4271 -0.361 0.1042 -0.1593 0.1597 -0.34558 0.1597 -0.53595 0 -0.19038 -0.0555 -0.37663 -0.1597 -0.53594 -0.1043 -0.15932 -0.2527 -0.28479 -0.4271 -0.36106l-3.489 -1.647Z" stroke-width="1.5"></path>
</svg>