<svg xmlns="http://www.w3.org/2000/svg" fill="none" viewBox="0 0 24 24" id="Vintage-Tv-1--Streamline-Ultimate">
  <desc>
    Vintage Tv 1 Streamline Icon: https://streamlinehq.com
  </desc>
  <path stroke="#000000" stroke-linecap="round" stroke-linejoin="round" d="M23.25 19.9c0.0037 0.2879 -0.107 0.5654 -0.3078 0.7717 -0.2009 0.2063 -0.4754 0.3243 -0.7632 0.3283H1.82097c-0.28786 -0.004 -0.56237 -0.122 -0.7632 -0.3283 -0.200827 -0.2063 -0.311539 -0.4838 -0.3078 -0.7717V5.6c-0.003739 -0.28786 0.106973 -0.56543 0.3078 -0.77169 0.20083 -0.20627 0.47534 -0.32436 0.7632 -0.32831H22.179c0.2878 0.00395 0.5623 0.12204 0.7632 0.32831 0.2008 0.20626 0.3115 0.48383 0.3078 0.77169v14.3Z" stroke-width="1.5"></path>
  <path stroke="#000000" stroke-linecap="round" stroke-linejoin="round" d="M3.75 21v2.25" stroke-width="1.5"></path>
  <path stroke="#000000" stroke-linecap="round" stroke-linejoin="round" d="M20.25 21v2.25" stroke-width="1.5"></path>
  <path stroke="#000000" stroke-linecap="round" stroke-linejoin="round" d="M6.75 0.75 12 4.5 17.25 0.75" stroke-width="1.5"></path>
  <path stroke="#000000" stroke-linecap="round" stroke-linejoin="round" d="M19.505 15.118c-0.0189 0.7766 -0.3442 1.5143 -0.9049 2.0519 -0.5607 0.5377 -1.3113 0.8318 -2.0881 0.8181l-8.99998 0.021c-0.7767 0.0172 -1.52871 -0.2733 -2.09201 -0.8084 -0.56331 -0.535 -0.89222 -1.271 -0.91499 -2.0476l-0.011 -4.772c0.01915 -0.7768 0.34464 -1.51454 0.90549 -2.05235 0.56085 -0.53781 1.31158 -0.83208 2.08851 -0.81865l8.99998 -0.02c0.7767 -0.01748 1.5287 0.27304 2.092 0.80814 0.5632 0.5351 0.8918 1.27131 0.914 2.04786l0.011 4.772Z" stroke-width="1.5"></path>
</svg>