<svg xmlns="http://www.w3.org/2000/svg" viewBox="0 0 14 14">
  <path d="M11.5,0h-9A1.5,1.5,0,0,0,1,1.5v11A1.5,1.5,0,0,0,2.5,14h9A1.5,1.5,0,0,0,13,12.5V1.5A1.5,1.5,0,0,0,11.5,0ZM6.89,7.81,5.4,10.72A1.17,1.17,0,0,1,3.31,9.65a1.36,1.36,0,0,1,.29-.37L6.11,7.19a.51.51,0,0,1,.78.62ZM9.5,12a.5.5,0,0,1-1,0v-.5a.5.5,0,0,1,1,0ZM9.13,8.36a.58.58,0,0,1-.38.13.62.62,0,0,1-.49-.24.63.63,0,0,1,.11-.88,2.3,2.3,0,0,0,.84-1.23,2.38,2.38,0,1,0-4.57-1.3,2.34,2.34,0,0,0,0,1.26.62.62,0,0,1-.44.76.63.63,0,0,1-.77-.44,3.62,3.62,0,0,1,6.67-2.69,3.57,3.57,0,0,1,.32,2.75A3.53,3.53,0,0,1,9.13,8.36ZM11.5,12a.5.5,0,0,1-1,0v-.5a.5.5,0,0,1,1,0Z" style="fill: #000001"/>
</svg>
