<svg xmlns="http://www.w3.org/2000/svg" fill="none" viewBox="0 0 14 14" id="Cloud-Data-Transfer--Streamline-Core">
  <desc>
    Cloud Data Transfer Streamline Icon: https://streamlinehq.com
  </desc>
  <g id="cloud-data-transfer--cloud-data-transfer-internet-server-network">
    <path id="Subtract" fill="#8fbffa" fill-rule="evenodd" d="M7.883 0.115a4.368 4.368 0 0 0 -4.582 2.717 3.693 3.693 0 0 0 -1.706 6.7 1.998 1.998 0 0 1 0.557 -1.753l2 -2A2 2 0 0 1 7 5.799a2 2 0 0 1 3.434 1.394v2a1.994 1.994 0 0 1 1.56 0.748 3.229 3.229 0 0 0 -0.308 -6.078A4.368 4.368 0 0 0 7.883 0.115Z" clip-rule="evenodd" stroke-width="1"></path>
    <path id="Union" fill="#2859c5" fill-rule="evenodd" d="M6.316 7.193a0.75 0.75 0 0 0 -1.28 -0.53l-2 2a0.75 0.75 0 1 0 1.06 1.06l0.72 -0.72v4.19a0.75 0.75 0 0 0 1.5 0v-6Zm2.868 4.19v-4.19a0.75 0.75 0 1 0 -1.5 0v6a0.75 0.75 0 0 0 1.28 0.53l2 -2a0.75 0.75 0 0 0 -1.06 -1.06l-0.72 0.72Z" clip-rule="evenodd" stroke-width="1"></path>
  </g>
</svg>