<svg xmlns="http://www.w3.org/2000/svg" fill="none" viewBox="0 0 14 14" id="Code-Monitor-2--Streamline-Core">
  <desc>
    Code Monitor 2 Streamline Icon: https://streamlinehq.com
  </desc>
  <g id="code-monitor-2--code-tags-angle-image-ui-ux-design">
    <path id="Union" fill="#2859c5" fill-rule="evenodd" d="M6.105 10.245a0.5 0.5 0 0 0 -0.47 0.332l-0.687 1.918H4a0.75 0.75 0 1 0 0 1.5h6a0.75 0.75 0 0 0 0 -1.5h-0.948l-0.686 -1.918a0.5 0.5 0 0 0 -0.471 -0.332h-1.79Z" clip-rule="evenodd" stroke-width="1"></path>
    <path id="Union_2" fill="#8fbffa" fill-rule="evenodd" d="M1.457 0.75C0.79 0.75 0.25 1.29 0.25 1.957v7.586c0 0.667 0.54 1.207 1.207 1.207h11.086c0.667 0 1.207 -0.54 1.207 -1.207V1.957c0 -0.667 -0.54 -1.207 -1.207 -1.207H1.457Z" clip-rule="evenodd" stroke-width="1"></path>
    <path id="Union_3" fill="#2859c5" d="M1.457 0.75C0.79 0.75 0.25 1.29 0.25 1.957v7.586c0 0.667 0.54 1.207 1.207 1.207H6v-10H1.457Z" stroke-width="1"></path>
    <path id="Vector" fill="#2859c5" d="M7.897 9.25h4.13a0.25 0.25 0 0 0 0.28 -0.26v-1.2a0.22 0.22 0 0 0 -0.09 -0.19l-1.81 -1.56a1.37 1.37 0 0 0 -1.75 0l-0.88 0.71a0.22 0.22 0 0 0 -0.12 0.17V9a0.25 0.25 0 0 0 0.24 0.25Z" stroke-width="1"></path>
    <path id="Vector_2" fill="#8fbffa" d="M4.276 3.87h-1.75a0.63 0.63 0 1 0 0 1.26h1.75a0.63 0.63 0 0 0 0 -1.26Z" stroke-width="1"></path>
    <path id="Vector_3" fill="#8fbffa" d="M3.526 6.37h-1a0.63 0.63 0 1 0 0 1.26h1a0.63 0.63 0 0 0 0 -1.26Z" stroke-width="1"></path>
  </g>
</svg>