<svg xmlns="http://www.w3.org/2000/svg" fill="none" viewBox="0 0 14 14" id="Curly-Brackets--Streamline-Core">
  <desc>
    Curly Brackets Streamline Icon: https://streamlinehq.com
  </desc>
  <g id="curly-brackets">
    <path id="Union" fill="#2859c5" fill-rule="evenodd" d="M5.591 0.375c-0.96649 0 -1.75 0.7835 -1.75 1.75v2.76984c0 0.42591 -0.21685 0.8225 -0.57541 1.05235l-0.80364 0.51515c-0.21514 0.13791 -0.34525 0.37587 -0.34525 0.63141 0 0.25554 0.13011 0.4935 0.34525 0.63141l0.80364 0.51515c0.35856 0.22985 0.57541 0.62645 0.57541 1.05235v2.76984c0 0.9665 0.78351 1.75 1.75 1.75h0.38588c0.41422 0 0.75 -0.3358 0.75 -0.75s-0.33578 -0.75 -0.75 -0.75H5.591c-0.13807 0 -0.25 -0.1119 -0.25 -0.25V9.29266c0 -0.86872 -0.41009 -1.68202 -1.09851 -2.19891C4.93091 6.57686 5.341 5.76356 5.341 4.89484V2.125c0 -0.13807 0.11193 -0.25 0.25 -0.25h0.38588c0.41422 0 0.75 -0.33579 0.75 -0.75 0 -0.414214 -0.33578 -0.75 -0.75 -0.75H5.591Zm3.16077 0c0.9665 0 1.75003 0.7835 1.75003 1.75v2.76984c0 0.42591 0.2168 0.8225 0.5754 1.05235l0.8036 0.51515c0.2152 0.13791 0.3453 0.37587 0.3453 0.63141 0 0.25554 -0.1301 0.4935 -0.3453 0.63141l-0.8036 0.51515c-0.3586 0.22985 -0.5754 0.62645 -0.5754 1.05235v2.76984c0 0.9665 -0.78353 1.75 -1.75003 1.75h-0.38588c-0.41421 0 -0.75 -0.3358 -0.75 -0.75s0.33579 -0.75 0.75 -0.75h0.38588c0.13807 0 0.25 -0.1119 0.25 -0.25V9.29266c0 -0.86872 0.41009 -1.68202 1.09853 -2.19891 -0.68844 -0.51689 -1.09853 -1.33019 -1.09853 -2.19891V2.125c0 -0.13807 -0.11193 -0.25 -0.25 -0.25h-0.38588c-0.41421 0 -0.75 -0.33579 -0.75 -0.75 0 -0.414214 0.33579 -0.75 0.75 -0.75h0.38588Z" clip-rule="evenodd" stroke-width="1"></path>
  </g>
</svg>