<svg xmlns="http://www.w3.org/2000/svg" fill="none" viewBox="0 0 14 14" id="Markdown-Circle-Programming--Streamline-Core">
  <desc>
    Markdown Circle Programming Streamline Icon: https://streamlinehq.com
  </desc>
  <g id="markdown-circle-programming">
    <path id="Ellipse 15" fill="#8fbffa" d="M0 7a7 7 0 1 0 14 0A7 7 0 1 0 0 7" stroke-width="1"></path>
    <path id="Union" fill="#2859c5" fill-rule="evenodd" d="M4.53442 4.8868c-0.14015 -0.31148 -0.44994 -0.5118 -0.7915 -0.5118 -0.47934 0 -0.86792 0.38858 -0.86792 0.86792V9c0 0.34518 0.27982 0.625 0.625 0.625s0.625 -0.27982 0.625 -0.625V7.02332l0.02282 0.05072c0.15086 0.33531 0.48436 0.55096 0.85205 0.55096 0.36764 0 0.70111 -0.21561 0.852 -0.55086l0.02311 -0.05134V9c0 0.34518 0.27982 0.625 0.625 0.625 0.34517 0 0.625 -0.27982 0.625 -0.625V5.24293c0 -0.47934 -0.38859 -0.86793 -0.86794 -0.86793 -0.34152 0 -0.6513 0.20029 -0.79146 0.51172L4.99991 5.9214l-0.46549 -1.0346ZM10.125 5c0 -0.34518 -0.27982 -0.625 -0.625 -0.625s-0.625 0.27982 -0.625 0.625v2.5H8.5c-0.20223 0 -0.38455 0.12182 -0.46194 0.30866 -0.07739 0.18684 -0.03461 0.40189 0.10839 0.54489l1 1C9.24021 9.44732 9.36739 9.5 9.5 9.5c0.13261 0 0.25979 -0.05268 0.35355 -0.14645l1.00005 -1c0.143 -0.143 0.1857 -0.35805 0.1083 -0.54489C10.8845 7.62182 10.7022 7.5 10.5 7.5h-0.375V5Z" clip-rule="evenodd" stroke-width="1"></path>
  </g>
</svg>