<svg xmlns="http://www.w3.org/2000/svg" fill="none" viewBox="0 0 14 14"><g id="module-puzzle-1--code-puzzle-module-programming-plugin-piece"><path id="Union" fill="#37d7ff" fill-rule="evenodd" d="M7.02.25a1.142 1.142 0 0 0-.842.37L5.045 1.745a2.416 2.416 0 0 0-.481-.668 2.464 2.464 0 0 0-3.486 3.486c.193.197.416.357.66.477L.62 6.138a1.142 1.142 0 0 0 0 1.684l1.466 1.467a.5.5 0 0 0 .804-.136 1.478 1.478 0 1 1 2.388 1.668 1.59 1.59 0 0 1-.412.29.5.5 0 0 0-.143.795l1.413 1.47a1.143 1.143 0 0 0 1.686.005l1.136-1.13a2.462 2.462 0 0 0 3.957.665 2.463 2.463 0 0 0-.655-3.954l1.119-1.1a1.143 1.143 0 0 0 0-1.685l-1.487-1.468a.5.5 0 0 0-.801.138 1.586 1.586 0 0 1-.28.404 1.473 1.473 0 0 1-2.081-2.08c.12-.114.256-.21.404-.281a.5.5 0 0 0 .143-.797L7.864.623A1.142 1.142 0 0 0 7.02.25Z" clip-rule="evenodd"></path></g></svg>