<svg xmlns="http://www.w3.org/2000/svg" fill="none" viewBox="0 0 24 24" id="Affinity-Publiser-Logo--Streamline-Logos-Block">
  <desc>
    Affinity Publiser Logo Streamline Icon: https://streamlinehq.com
  </desc>
  <path fill="#000000" fill-rule="evenodd" d="M5 1a4 4 0 0 0 -4 4v14a4 4 0 0 0 4 4h14a4 4 0 0 0 4 -4V5a4 4 0 0 0 -4 -4H5Zm14.5 3.84v10.23L13.432 4.5h5.727a0.34 0.34 0 0 1 0.341 0.34Zm-8.182 -0.34h0.673L19.5 17.581v1.578a0.34 0.34 0 0 1 -0.34 0.341h-0.457L10.698 5.555l0.62 -1.055Zm0.795 15h1.926L8.337 9.567l-0.974 1.658 4.75 8.275Zm-5.48 -7.035L4.5 16.09v3.068c0 0.188 0.153 0.341 0.34 0.341h5.832l-4.039 -7.035ZM17.261 19.5h-1.78L9.066 8.327l0.901 -1.532L17.261 19.5Z" clip-rule="evenodd" stroke-width="1"></path>
</svg>