<svg xmlns="http://www.w3.org/2000/svg" fill="none" viewBox="0 0 24 24" id="Inkscape-Logo--Streamline-Logos-Block">
  <desc>
    Inkscape Logo Streamline Icon: https://streamlinehq.com
  </desc>
  <path fill="#000000" fill-rule="evenodd" d="M5 1a4 4 0 0 0 -4 4v14a4 4 0 0 0 4 4h14a4 4 0 0 0 4 -4V5a4 4 0 0 0 -4 -4H5Zm8.345 3.638a1.932 1.932 0 0 0 -2.69 0c-1.013 0.978 -2.64 2.567 -4.017 3.981a49.496 49.496 0 0 0 -1.777 1.905c-0.23 0.264 -0.425 0.503 -0.565 0.7 -0.07 0.097 -0.134 0.195 -0.183 0.287a0.864 0.864 0 0 0 -0.113 0.396c0 0.34 0.218 0.558 0.376 0.67 0.162 0.116 0.36 0.197 0.544 0.258 0.365 0.122 0.836 0.216 1.263 0.302l0.024 0.004c0.334 0.067 0.642 0.13 0.9 0.197l-0.04 0.008c-0.2 0.04 -0.478 0.095 -0.704 0.2a1.087 1.087 0 0 0 -0.39 0.293 0.871 0.871 0 0 0 -0.195 0.557c0 0.328 0.205 0.547 0.35 0.665 0.153 0.125 0.344 0.223 0.527 0.302 0.362 0.157 0.83 0.298 1.26 0.427l0.02 0.006c0.455 0.136 0.866 0.26 1.164 0.39 0.072 0.03 0.129 0.058 0.173 0.083a1.388 1.388 0 0 1 -0.169 0.114l-0.028 0.018a3.192 3.192 0 0 0 -0.145 0.089 1.006 1.006 0 0 0 -0.226 0.196 0.657 0.657 0 0 0 -0.148 0.508c0.027 0.201 0.14 0.342 0.222 0.424 0.29 0.29 0.694 0.408 0.987 0.491l0.121 0.034c0.285 0.08 0.546 0.154 0.809 0.286 0.153 0.076 0.225 0.223 0.391 0.588 0.067 0.148 0.169 0.37 0.333 0.547 0.19 0.206 0.453 0.343 0.79 0.343 0.427 0 0.983 -0.102 1.45 -0.314 0.425 -0.193 1.008 -0.59 1.008 -1.286 0 -0.273 -0.072 -0.517 -0.24 -0.713a1.208 1.208 0 0 0 -0.396 -0.29l-0.015 -0.007 -0.003 -0.002a1.38 1.38 0 0 1 0.108 -0.063c0.227 -0.123 0.544 -0.243 0.91 -0.38l0.023 -0.01c0.339 -0.126 0.723 -0.27 1.022 -0.432a1.89 1.89 0 0 0 0.449 -0.322 0.893 0.893 0 0 0 0.128 -1.137 1 1 0 0 0 -0.34 -0.316c-0.2 -0.117 -0.444 -0.177 -0.602 -0.216l-0.026 -0.007a9.185 9.185 0 0 1 -0.086 -0.022c0.059 -0.032 0.126 -0.066 0.201 -0.103 0.408 -0.2 0.962 -0.412 1.547 -0.638l0.017 -0.006c0.565 -0.217 1.16 -0.446 1.614 -0.667 0.227 -0.111 0.447 -0.233 0.618 -0.366 0.086 -0.067 0.177 -0.15 0.252 -0.254a0.768 0.768 0 0 0 0.152 -0.449 0.864 0.864 0 0 0 -0.113 -0.396 2.63 2.63 0 0 0 -0.183 -0.288 9.805 9.805 0 0 0 -0.565 -0.699 49.48 49.48 0 0 0 -1.777 -1.905 197.334 197.334 0 0 0 -4.017 -3.981Zm-1.949 0.767a0.865 0.865 0 0 1 1.208 0 244.04 244.04 0 0 1 2.252 2.203l-0.923 1.1 -1.942 -1.423 -2.54 1.778 -1.232 -0.53a221.412 221.412 0 0 1 3.177 -3.128ZM9 13.535a0.533 0.533 0 0 1 0.662 -0.362c0.216 0.064 0.617 0.148 1.028 0.218 0.42 0.071 0.79 0.116 0.955 0.116a0.533 0.533 0 1 1 0 1.067c-0.267 0 -0.718 -0.06 -1.133 -0.131a11.505 11.505 0 0 1 -1.15 -0.246 0.533 0.533 0 0 1 -0.362 -0.662Zm9.757 1.217c-0.57 0 -0.949 0.474 -1.067 0.71 0.118 0.238 0.498 0.712 1.067 0.712s0.71 -0.474 0.71 -0.711 -0.142 -0.711 -0.71 -0.711ZM7.259 16.796c-0.221 -0.146 -0.787 -0.367 -1.28 -0.082 -0.492 0.284 -0.378 0.766 -0.26 0.971 0.119 0.206 0.479 0.545 0.971 0.26 0.493 -0.284 0.585 -0.884 0.569 -1.149Zm9.403 1.474a0.711 0.711 0 1 0 0 -1.422 0.711 0.711 0 0 0 0 1.422Z" clip-rule="evenodd" stroke-width="1"></path>
</svg>