<svg xmlns="http://www.w3.org/2000/svg" fill="none" viewBox="0 0 14 14" id="Happy-Face--Streamline-Flex-Gradient">
  <desc>
    Happy Face Streamline Icon: https://streamlinehq.com
  </desc>
  <g id="happy-face--smiley-chat-message-smile-emoji-face-satisfied">
    <path id="Subtract" fill="url(#paint0_linear_9371_12601)" fill-rule="evenodd" d="M1.83645 1.83645C3.06046.612432 4.82797 0 7 0s3.9395.612432 5.1636 1.83645C13.3876 3.06046 14 4.82797 14 7s-.6124 3.9395-1.8364 5.1636C10.9395 13.3876 9.17203 14 7 14s-3.93954-.6124-5.16355-1.8364C.612432 10.9395 0 9.17203 0 7s.612432-3.93954 1.83645-5.16355ZM5.0769 5.10071c0-.34518-.27982-.625-.625-.625-.34517 0-.625.27982-.625.625v.7c0 .34518.27983.625.625.625.34518 0 .625-.27982.625-.625v-.7Zm4.4712-.625c.34517 0 .625.27982.625.625v.7c0 .34518-.27983.625-.625.625-.34518 0-.625-.27982-.625-.625v-.7c0-.34518.27982-.625.625-.625Zm-5.09092 3.7416c-.12505-.32173-.48723-.48118-.80897-.35613-.32173.12505-.48117.48723-.35612.80897.28055.72181.75541 1.29602 1.40645 1.68305.64416.383 1.4264.5628 2.30149.5628.87508 0 1.65733-.1798 2.30148-.5628.65105-.38703 1.12589-.96124 1.40649-1.68305.125-.32174-.0344-.68392-.3562-.80897-.3217-.12505-.68388.0344-.80893.35613-.1844.47446-.48055.82389-.88012 1.06143-.40645.24163-.95442.38728-1.66272.38728-.7083 0-1.25628-.14565-1.66273-.38728-.39957-.23754-.69571-.58697-.88012-1.06143Z" clip-rule="evenodd"></path>
  </g>
  <defs>
    <linearGradient id="paint0_linear_9371_12601" x1="2.288" x2="13.596" y1="2.692" y2="8.957" gradientUnits="userSpaceOnUse">
      <stop stop-color="#ffd600"></stop>
      <stop offset="1" stop-color="#00d078"></stop>
    </linearGradient>
  </defs>
</svg>