<svg xmlns="http://www.w3.org/2000/svg" fill="none" viewBox="0 0 14 14" id="Inbox-Tray-1--Streamline-Flex-Gradient">
  <desc>
    Inbox Tray 1 Streamline Icon: https://streamlinehq.com
  </desc>
  <g id="inbox-tray-1--mail-email-outbox-drawer-empty-open-inbox-arrow-down">
    <path id="Union" fill="url(#paint0_linear_9371_12634)" fill-rule="evenodd" d="M6.9994.25c.41421 0 .75.335786.75.75v3.58036c.30978-.3155.57568-.67169.75056-1.02147.18525-.37048.63575-.52065 1.00624-.33541.37048.18525.5206.63575.33541 1.00623-.50673 1.01345-1.49272 1.99944-2.50613 2.50617-.21115.10557-.45967.10558-.67082.00001-1.01349-.50673-1.99949-1.49272-2.50621-2.50618-.18525-.37048-.03508-.82098.33541-1.00623.37048-.18524.82098-.03507 1.00623.33541.17465.3493.44006.70501.74931 1.02019V1c0-.414213.33579-.75.75-.75ZM.33659 8.7686c.085084-.75471.73604-1.2769 1.45776-1.2769h2.29389c.8324 0 1.38174.68544 1.64227 1.21609.18336.37348.5357.72508 1.26949.72508.73378 0 1.08613-.3516 1.26949-.72508.26053-.53065.80986-1.21609 1.64227-1.21609h2.29394c.7217 0 1.3726.52219 1.4577 1.2769.0926.82119.111 1.631.055 2.4483-.0765 1.1154-.9608 1.9354-2.0017 2.1024l-.6756.1085c-2.67693.4296-5.40527.4296-8.08221 0l-.6756-.1085c-1.04088-.167-1.925187-.987-2.001642-2.1024C.225622 10.3996.24401 9.58979.33659 8.7686Z" clip-rule="evenodd"></path>
  </g>
  <defs>
    <linearGradient id="paint0_linear_9371_12634" x1="13.704" x2="-2.283" y1="13.753" y2="4.76" gradientUnits="userSpaceOnUse">
      <stop stop-color="#ff51e3"></stop>
      <stop offset="1" stop-color="#1b4dff"></stop>
    </linearGradient>
  </defs>
</svg>