<svg xmlns="http://www.w3.org/2000/svg" fill="none" viewBox="0 0 14 14" id="Smiley-Blessed--Streamline-Flex-Gradient">
  <desc>
    Smiley Blessed Streamline Icon: https://streamlinehq.com
  </desc>
  <g id="smiley-blessed">
    <path id="Subtract" fill="url(#paint0_linear_9371_12734)" fill-rule="evenodd" d="M12.1636 1.83645C10.9395.612432 9.17204 0 7 0 4.82797 0 3.06046.612432 1.83645 1.83645.612432 3.06046 0 4.82797 0 7s.612432 3.9395 1.83645 5.1636C3.06046 13.3876 4.82797 14 7 14c2.17204 0 3.9395-.6124 5.1636-1.8364C13.3876 10.9395 14 9.17203 14 7s-.6124-3.93954-1.8364-5.16355ZM4.08247 5.04328c-.12505-.32173-.48723-.48117-.80897-.35613-.32173.12505-.48117.48724-.35612.80897.12246.31507.33516.57523.62899.7499.28693.17058.61689.23976.9536.23976.33671 0 .66667-.06918.9536-.23976.29382-.17467.50653-.43483.62899-.7499.12505-.32173-.0344-.68392-.35613-.80897-.32173-.12504-.68391.0344-.80896.35613-.02632.06771-.06031.10309-.10266.12827-.04923.02927-.14491.06423-.31484.06423s-.26561-.03496-.31484-.06423c-.04235-.02518-.07634-.06056-.10266-.12827Zm-.61953 3.45677c0-.41422.33578-.75.75-.75h5.57424c.41422 0 .75002.33578.75002.75v.10854c0 .02455-.0036.04896-.0108.07246-.225.74299-.64806 1.32905-1.25475 1.72635-.60377.3954-1.37176.5926-2.27159.5926-.89983 0-1.66783-.1972-2.2716-.5926-.60669-.3973-1.02979-.98336-1.25479-1.72635-.00712-.0235-.01073-.04791-.01073-.07246v-.10854Zm4.81069-3.8129c.32173-.12504.68391.0344.80896.35613.02632.06771.06031.10309.10266.12827.04923.02927.14491.06423.31484.06423s.26561-.03496.31484-.06423c.04235-.02518.07634-.06056.10266-.12827.12501-.32173.48721-.48117.80901-.35613.3217.12505.4811.48724.3561.80897-.1225.31507-.3352.57523-.629.7499-.2869.17058-.6169.23976-.95361.23976-.33671 0-.66667-.06918-.9536-.23976-.29382-.17467-.50653-.43483-.62899-.7499-.12505-.32173.0344-.68392.35613-.80897Z" clip-rule="evenodd"></path>
  </g>
  <defs>
    <linearGradient id="paint0_linear_9371_12734" x1="2.288" x2="13.596" y1="2.692" y2="8.957" gradientUnits="userSpaceOnUse">
      <stop stop-color="#ffd600"></stop>
      <stop offset="1" stop-color="#00d078"></stop>
    </linearGradient>
  </defs>
</svg>