<svg xmlns="http://www.w3.org/2000/svg" fill="none" viewBox="0 0 14 14" id="Bill-4--Streamline-Flex">
  <desc>
    Bill 4 Streamline Icon: https://streamlinehq.com
  </desc>
  <g id="bill-4--accounting-billing-payment-finance-cash-currency-money-bill-dollar-stack">
    <path id="Intersect" fill="#2859c5" d="M3.252 11.318c0.101 0.497 0.528 0.877 1.035 0.877h8.26c0.508 0 0.934 -0.38 1.04 -0.877 0.13 -0.615 0.264 -1.19 0.264 -2.992 0 -1.801 -0.135 -2.377 -0.265 -2.992 -0.105 -0.496 -0.531 -0.876 -1.038 -0.876l-8.26 0c-0.508 0 -0.935 0.38 -1.036 0.877 -0.13 0.644 -0.268 1.244 -0.268 2.991 0 1.748 0.137 2.347 0.268 2.992Z" stroke-width="1"></path>
    <path id="Intersect_2" fill="#8fbffa" d="M0.418 8.665c0.1 0.497 0.528 0.877 1.035 0.877h8.26c0.507 0 0.934 -0.38 1.039 -0.877 0.13 -0.614 0.264 -1.19 0.264 -2.991 0 -1.802 -0.134 -2.378 -0.264 -2.992 -0.105 -0.497 -0.532 -0.877 -1.039 -0.877l-8.26 0c-0.507 0 -0.934 0.38 -1.035 0.877 -0.131 0.645 -0.269 1.244 -0.269 2.991 0 1.748 0.138 2.347 0.269 2.992Z" stroke-width="1"></path>
    <path id="Union" fill="#2859c5" fill-rule="evenodd" d="M7.13 5.666c0 0.99 -0.557 1.547 -1.547 1.547 -0.99 0 -1.548 -0.557 -1.548 -1.547 0 -0.99 0.557 -1.548 1.548 -1.548 0.99 0 1.547 0.557 1.547 1.548Zm-6.112 0.016a0.625 0.625 0 0 1 0.617 -0.633l0.632 -0.008a0.625 0.625 0 1 1 0.016 1.25l-0.632 0.008a0.625 0.625 0 0 1 -0.633 -0.617Zm7.248 0a0.625 0.625 0 0 1 0.617 -0.633l0.632 -0.008a0.625 0.625 0 1 1 0.016 1.25l-0.632 0.008a0.625 0.625 0 0 1 -0.633 -0.617Z" clip-rule="evenodd" stroke-width="1"></path>
  </g>
</svg>