<svg xmlns="http://www.w3.org/2000/svg" fill="none" viewBox="0 0 14 14" id="Calculator-1--Streamline-Flex">
  <desc>
    Calculator 1 Streamline Icon: https://streamlinehq.com
  </desc>
  <g id="calculator-1--shop-shopping-pay-payment-store-cash-calculate-math">
    <path id="Vector 5 (Stroke)" fill="#8fbffa" fill-rule="evenodd" d="M7.33008 3.64917c0 -0.41421 0.33578 -0.75 0.75 -0.75h1.37341c0.41421 0 0.75001 0.33579 0.75001 0.75s-0.3358 0.75 -0.75001 0.75H8.08008c-0.41422 0 -0.75 -0.33579 -0.75 -0.75Z" clip-rule="evenodd" stroke-width="1"></path>
    <path id="Subtract" fill="#2859c5" fill-rule="evenodd" d="M10.3101 1.84506c-2.25426 -0.16451 -4.36612 -0.16451 -6.62042 0 -0.58204 0.04248 -1.04391 0.51173 -1.07801 1.1035 -0.03956 0.68669 -0.06937 1.75412 -0.08921 2.62826h8.95494c-0.0199 -0.87414 -0.0497 -1.94157 -0.0893 -2.62826 -0.034 -0.59177 -0.4959 -1.06102 -1.078 -1.1035ZM8.08008 2.89917c-0.41422 0 -0.75 0.33579 -0.75 0.75s0.33578 0.75 0.75 0.75h1.37341c0.41421 0 0.75001 -0.33579 0.75001 -0.75s-0.3358 -0.75 -0.75001 -0.75H8.08008Z" clip-rule="evenodd" stroke-width="1"></path>
    <path id="Union" fill="#8fbffa" fill-rule="evenodd" d="M10.4195 0.349043C9.25598 0.264132 8.128 0.22168 7.00002 0.22168 5.87203 0.221678 4.74405 0.264132 3.58053 0.349042 2.23833 0.446992 1.19106 1.52789 1.11419 2.86228l-0.00596 0.10744c-0.15478 2.75473 -0.152742 5.41073 0.00611 8.16808 0.07688 1.3344 1.12415 2.4153 2.46634 2.5132 2.32699 0.1698 4.51184 0.1698 6.83882 0 1.3422 -0.0979 2.3895 -1.1788 2.4663 -2.5132 0.161 -2.79319 0.161 -5.48236 0 -8.27552C12.809 1.52789 11.7617 0.446992 10.4195 0.349043ZM8.04415 1.73419c-0.62257 -0.01489 -1.24148 -0.01649 -1.86327 -0.0048 -0.82032 0.01542 -1.64566 0.05398 -2.49102 0.11567 -0.58204 0.04248 -1.04391 0.51173 -1.078 1.1035l-0.00593 0.10422c-0.0367 0.6872 -0.06458 1.69298 -0.08344 2.52404h8.95491c-0.0198 -0.87414 -0.0497 -1.94157 -0.0892 -2.62826 -0.0341 -0.59177 -0.496 -1.06102 -1.078 -1.1035 -0.76815 -0.05605 -1.51973 -0.09301 -2.26605 -0.11087Z" clip-rule="evenodd" stroke-width="1"></path>
    <path id="Vector 9 (Stroke)" fill="#2859c5" fill-rule="evenodd" d="M3.23047 10.9412c0 -0.3452 0.27982 -0.625 0.625 -0.625h0.3282c0.34517 0 0.625 0.2798 0.625 0.625 0 0.3451 -0.27983 0.625 -0.625 0.625h-0.3282c-0.34518 0 -0.625 -0.2799 -0.625 -0.625Z" clip-rule="evenodd" stroke-width="1"></path>
    <path id="Vector 10 (Stroke)" fill="#2859c5" fill-rule="evenodd" d="M6.20752 10.9412c0 -0.3452 0.27982 -0.625 0.625 -0.625h0.3282c0.34518 0 0.625 0.2798 0.625 0.625 0 0.3451 -0.27982 0.625 -0.625 0.625h-0.3282c-0.34518 0 -0.625 -0.2799 -0.625 -0.625Z" clip-rule="evenodd" stroke-width="1"></path>
    <path id="Vector 11 (Stroke)" fill="#2859c5" fill-rule="evenodd" d="M9.23096 10.9412c0 -0.3452 0.27982 -0.625 0.625 -0.625h0.32824c0.3451 0 0.625 0.2798 0.625 0.625 0 0.3451 -0.2799 0.625 -0.625 0.625h-0.32824c-0.34518 0 -0.625 -0.2799 -0.625 -0.625Z" clip-rule="evenodd" stroke-width="1"></path>
    <path id="Vector 6 (Stroke)" fill="#2859c5" fill-rule="evenodd" d="M3.23047 8.18335c0 -0.34518 0.27982 -0.625 0.625 -0.625h0.3282c0.34517 0 0.625 0.27982 0.625 0.625s-0.27983 0.625 -0.625 0.625h-0.3282c-0.34518 0 -0.625 -0.27982 -0.625 -0.625Z" clip-rule="evenodd" stroke-width="1"></path>
    <path id="Vector 7 (Stroke)" fill="#2859c5" fill-rule="evenodd" d="M6.20752 8.18335c0 -0.34518 0.27982 -0.625 0.625 -0.625h0.3282c0.34518 0 0.625 0.27982 0.625 0.625s-0.27982 0.625 -0.625 0.625h-0.3282c-0.34518 0 -0.625 -0.27982 -0.625 -0.625Z" clip-rule="evenodd" stroke-width="1"></path>
    <path id="Vector 8 (Stroke)" fill="#2859c5" fill-rule="evenodd" d="M9.23096 8.18335c0 -0.34518 0.27982 -0.625 0.625 -0.625h0.32824c0.3451 0 0.625 0.27982 0.625 0.625s-0.2799 0.625 -0.625 0.625h-0.32824c-0.34518 0 -0.625 -0.27982 -0.625 -0.625Z" clip-rule="evenodd" stroke-width="1"></path>
  </g>
</svg>