<svg xmlns="http://www.w3.org/2000/svg" fill="none" viewBox="0 0 14 14" id="Diamond-1--Streamline-Flex">
  <desc>
    Diamond 1 Streamline Icon: https://streamlinehq.com
  </desc>
  <g id="diamond-1--diamond-money-payment-finance-wealth-jewelry">
    <path id="Vector 273" fill="#2859c5" d="M2.85 1.977C2.044 2.641 0.94 4.07 0.501 5.427c0.64 1.28 3.159 4.72 5.834 7.204a0.974 0.974 0 0 0 1.328 0c2.675 -2.484 5.193 -5.924 5.834 -7.204 -0.44 -1.358 -1.543 -2.786 -2.348 -3.45a0.884 0.884 0 0 0 -0.567 -0.189H3.417a0.884 0.884 0 0 0 -0.568 0.19Z" stroke-width="1"></path>
    <path id="Subtract" fill="#8fbffa" fill-rule="evenodd" d="M0.747 4.802c0.508 -1.116 1.365 -2.194 2.038 -2.77 0.03 0.071 0.075 0.14 0.134 0.198l2.572 2.572H0.747Zm12.506 0H8.509L11.08 2.23a0.625 0.625 0 0 0 0.134 -0.199c0.672 0.577 1.53 1.655 2.038 2.771ZM7 4.543 4.245 1.788h5.51L7 4.543ZM0.857 6.052c0.964 1.562 3.163 4.429 5.479 6.579 0.012 0.012 0.026 0.023 0.039 0.034V6.052H0.857Zm6.768 0v6.614l0.039 -0.035c2.316 -2.15 4.514 -5.017 5.478 -6.579H7.625Z" clip-rule="evenodd" stroke-width="1"></path>
  </g>
</svg>