<svg xmlns="http://www.w3.org/2000/svg" fill="none" viewBox="0 0 14 14" id="Safe-Vault--Streamline-Flex">
  <desc>
    Safe Vault Streamline Icon: https://streamlinehq.com
  </desc>
  <g id="safe-vault--saving-combo-payment-safe-combination-finance">
    <path id="Union" fill="#8fbffa" fill-rule="evenodd" d="M7.02973 0.5h-0.05946C5.4388 0.499989 3.77703 0.499977 2.37606 0.763273 1.55614 0.917368 0.920574 1.54925 0.743841 2.35614 0.499971 3.46955 0.499983 4.49327 0.5 5.96255v0.0749c-0.000017 1.46928 -0.000029 2.493 0.243841 3.60641 0.176733 0.80694 0.812299 1.43874 1.632219 1.59284C3.77703 11.5 5.4388 11.5 6.97027 11.5h0.05946c1.53147 0 3.19327 0 4.59417 -0.2633 0.82 -0.1541 1.4555 -0.7859 1.6323 -1.59284 0.2438 -1.11341 0.2438 -2.13712 0.2438 -3.60639v-0.07494c0 -1.46926 0 -2.49298 -0.2438 -3.60639 -0.1768 -0.80689 -0.8123 -1.438772 -1.6323 -1.592867C10.223 0.499977 8.5612 0.499989 7.02974 0.5h-0.00001Z" clip-rule="evenodd" stroke-width="1"></path>
    <path id="Subtract" fill="#2859c5" fill-rule="evenodd" d="M10.3702 11.404c0.4332 -0.0384 0.8542 -0.092 1.254 -0.1672 0.0804 -0.0151 0.159 -0.0348 0.2356 -0.0588l0.3681 1.4723c0.1005 0.4018 -0.1438 0.809 -0.5457 0.9095 -0.4018 0.1004 -0.809 -0.1439 -0.9095 -0.5457l-0.4025 -1.6101Zm-8.22956 -0.226c0.07661 0.024 0.15525 0.0437 0.23567 0.0588 0.39979 0.0752 0.82081 0.1288 1.25399 0.1672l-0.40252 1.6101c-0.10046 0.4018 -0.50766 0.6461 -0.9095 0.5457 -0.40185 -0.1005 -0.64617 -0.5077 -0.54571 -0.9095l0.36807 -1.4723Z" clip-rule="evenodd" stroke-width="1"></path>
    <path id="Vector 356 (Stroke)" fill="#2859c5" fill-rule="evenodd" d="M3.18115 4.5415c0.34518 0 0.625 0.27983 0.625 0.625l0 1.66675c0 0.34518 -0.27982 0.625 -0.625 0.625s-0.625 -0.27982 -0.625 -0.625l0 -1.66675c0 -0.34517 0.27982 -0.625 0.625 -0.625Z" clip-rule="evenodd" stroke-width="1"></path>
    <path id="Vector (Stroke)" fill="#2859c5" fill-rule="evenodd" d="M8.65388 2.875c0.34517 0.00001 0.62499 0.27984 0.62498 0.62502l-0.00001 0.29462c0.37069 0.10485 0.70319 0.30063 0.97185 0.56173l0.2558 -0.14764c0.2989 -0.17258 0.6811 -0.07016 0.8537 0.22877 0.1726 0.29893 0.0702 0.68118 -0.2287 0.85377l-0.2553 0.14735c0.0453 0.17965 0.0693 0.36773 0.0693 0.56142 0 0.19367 -0.024 0.38172 -0.0692 0.56135l0.2552 0.14734c0.2989 0.17259 0.4013 0.55484 0.2287 0.85377 -0.1726 0.29893 -0.5548 0.40135 -0.8537 0.22877l-0.2557 -0.14761c-0.26871 0.26112 -0.60124 0.45693 -0.97195 0.56178l0.00001 0.2945c0.00001 0.34518 -0.27981 0.62501 -0.62498 0.62502 -0.34518 0.00001 -0.62501 -0.27981 -0.62502 -0.62499l-0.00001 -0.29452c-0.37068 -0.10484 -0.70318 -0.30062 -0.97188 -0.56171l-0.2556 0.14757c-0.29893 0.17259 -0.68117 0.07016 -0.85376 -0.22877 -0.17259 -0.29893 -0.07017 -0.68118 0.22876 -0.85377l0.25508 -0.14727c-0.04524 -0.17966 -0.06928 -0.36775 -0.06928 -0.56146 0 -0.19373 0.02404 -0.38185 0.0693 -0.56153l-0.2551 -0.14728c-0.29893 -0.17259 -0.40135 -0.55484 -0.22876 -0.85377 0.17259 -0.29893 0.55483 -0.40136 0.85376 -0.22877l0.25565 0.1476c0.26869 -0.26106 0.60117 -0.45682 0.97183 -0.56166l0.00001 -0.29465c0.00001 -0.34517 0.27984 -0.62499 0.62502 -0.62498Zm-0.90894 2.61577c0.00233 -0.00384 0.00463 -0.00773 0.00689 -0.01164 0.00212 -0.00368 0.0042 -0.00737 0.00624 -0.01107 0.18164 -0.3052 0.51483 -0.50969 0.89577 -0.50969 0.38242 0 0.7167 0.20608 0.89787 0.51323 0.00141 0.00253 0.00284 0.00505 0.0043 0.00757 0.00157 0.00273 0.00317 0.00544 0.00478 0.00814 0.08576 0.15137 0.13472 0.32633 0.13472 0.51273 0 0.1858 -0.04865 0.36025 -0.1339 0.51128 -0.00189 0.00315 -0.00376 0.00632 -0.0056 0.00951 -0.00173 0.003 -0.00343 0.006 -0.0051 0.009 -0.18135 0.30641 -0.51522 0.51188 -0.89707 0.51188 -0.38054 0 -0.71342 -0.20406 -0.89519 -0.50872 -0.00223 -0.00405 -0.0045 -0.00809 -0.00682 -0.01212 -0.00246 -0.00424 -0.00495 -0.00845 -0.00749 -0.01262 -0.08418 -0.15033 -0.13217 -0.32367 -0.13217 -0.50821 0 -0.18498 0.04822 -0.35869 0.13277 -0.50927Z" clip-rule="evenodd" stroke-width="1"></path>
  </g>
</svg>