<svg xmlns="http://www.w3.org/2000/svg" fill="none" viewBox="0 0 14 14" id="Search-Arrow-Increase--Streamline-Flex">
  <desc>
    Search Arrow Increase Streamline Icon: https://streamlinehq.com
  </desc>
  <g id="search-arrow-increase--ascend-growth-up-arrow-stats-right-grow-search">
    <path id="Vector (Stroke)" fill="#2859c5" fill-rule="evenodd" d="M9.644 9.684a1 1 0 0 1 1.415 0l2.275 2.276a1 1 0 0 1 -1.414 1.414L9.644 11.1a1 1 0 0 1 0 -1.415Z" clip-rule="evenodd" stroke-width="1"></path>
    <path id="Vector" fill="#8fbffa" d="M6.269 12.307c3.838 0 5.997 -2.16 5.997 -5.997 0 -3.839 -2.16 -5.997 -5.997 -5.997C2.43 0.313 0.27 2.47 0.27 6.31c0 3.838 2.16 5.997 5.998 5.997Z" stroke-width="1"></path>
    <path id="Union" fill="#2859c5" fill-rule="evenodd" d="M8.291 3.253c0.436 0 0.929 0.106 1.337 0.35 0.1 0.061 0.185 0.146 0.246 0.246 0.244 0.409 0.35 0.901 0.35 1.337 0 0.405 -0.093 0.943 -0.458 1.308a0.715 0.715 0 0 1 -1.12 -0.137l-0.272 -0.455a67.82 67.82 0 0 1 -0.519 0.457c-0.284 0.247 -0.568 0.49 -0.805 0.682 -0.118 0.095 -0.23 0.182 -0.325 0.25 -0.08 0.058 -0.199 0.141 -0.316 0.19a0.89 0.89 0 0 1 -0.545 0.05 0.914 0.914 0 0 1 -0.423 -0.234 1.858 1.858 0 0 1 -0.333 -0.475l-0.007 -0.014a6.384 6.384 0 0 0 -0.104 -0.19 1.45 1.45 0 0 0 -0.096 0.065c-0.166 0.123 -0.36 0.307 -0.56 0.522 -0.197 0.212 -0.386 0.435 -0.545 0.628l-0.078 0.094a6.307 6.307 0 0 1 -0.309 0.36 0.625 0.625 0 0 1 -0.885 -0.883l0.008 -0.008 0.022 -0.025 0.07 -0.082 0.114 -0.138 0.095 -0.115c0.163 -0.197 0.37 -0.444 0.594 -0.684 0.22 -0.236 0.474 -0.485 0.731 -0.674 0.223 -0.165 0.588 -0.394 0.998 -0.36 0.376 0.03 0.62 0.256 0.758 0.43 0.106 0.132 0.192 0.287 0.252 0.4l0.098 -0.08c0.22 -0.176 0.49 -0.407 0.77 -0.651l0.43 -0.38 -0.343 -0.206a0.715 0.715 0 0 1 -0.138 -1.12c0.365 -0.365 0.904 -0.458 1.308 -0.458Z" clip-rule="evenodd" stroke-width="1"></path>
  </g>
</svg>