<svg viewBox="0 0 14 14" fill="none" xmlns="http://www.w3.org/2000/svg" id="Target--Streamline-Flex">
  <desc>
    Target Streamline Icon: https://streamlinehq.com
  </desc>
  <g id="target--shop-bullseye-arrow-target">
    <path id="Vector" d="M6.995 13.718c4.296 0 6.712 -2.416 6.712 -6.713 0 -4.348 -2.669 -6.712 -6.712 -6.712C2.699 0.293 0.282 2.709 0.282 7.005c0 4.297 2.417 6.713 6.713 6.713Z" fill="#8fbffa" stroke-width="1"></path>
    <path id="Union" fill-rule="evenodd" clip-rule="evenodd" d="M1.75 7.005c0 -1.78 0.498 -3.065 1.339 -3.905 0.84 -0.84 2.125 -1.34 3.906 -1.34a0.75 0.75 0 1 0 0 -1.5c-2.057 0 -3.77 0.581 -4.967 1.779C0.831 3.237 0.25 4.949 0.25 7.005c0 2.057 0.58 3.769 1.778 4.967 1.198 1.197 2.91 1.778 4.967 1.778 2.056 0 3.768 -0.58 4.966 -1.778 1.197 -1.198 1.778 -2.91 1.778 -4.967a0.75 0.75 0 0 0 -1.5 0c0 1.78 -0.498 3.065 -1.339 3.906 -0.84 0.84 -2.125 1.339 -3.905 1.339 -1.78 0 -3.066 -0.498 -3.906 -1.34 -0.84 -0.84 -1.339 -2.125 -1.339 -3.905ZM6.201 4.72a0.75 0.75 0 1 0 -0.332 -1.463c-0.85 0.193 -1.558 0.627 -2.044 1.303 -0.48 0.668 -0.698 1.508 -0.698 2.446 0 1.135 0.322 2.128 1.03 2.837 0.709 0.708 1.702 1.03 2.838 1.03 0.983 0 1.86 -0.24 2.542 -0.77 0.689 -0.536 1.102 -1.308 1.255 -2.224a0.75 0.75 0 1 0 -1.479 -0.247c-0.102 0.608 -0.353 1.02 -0.697 1.286 -0.351 0.274 -0.875 0.455 -1.621 0.455 -0.86 0 -1.425 -0.24 -1.777 -0.59 -0.351 -0.352 -0.59 -0.918 -0.59 -1.777 0 -0.711 0.164 -1.221 0.416 -1.57 0.245 -0.342 0.616 -0.593 1.157 -0.716Z" fill="#2859c5" stroke-width="1"></path>
    <path id="Union_2" fill-rule="evenodd" clip-rule="evenodd" d="M11.443 0.853a0.5 0.5 0 0 0 -0.831 -0.207L9.09 2.168a2.5 2.5 0 0 0 -0.665 2.345l-1.96 1.961a0.75 0.75 0 0 0 1.06 1.061l1.96 -1.96a2.5 2.5 0 0 0 2.347 -0.665l1.521 -1.522a0.5 0.5 0 0 0 -0.206 -0.831l-1.302 -0.402 -0.402 -1.302Z" fill="#2859c5" stroke-width="1"></path>
  </g>
</svg>