<svg xmlns="http://www.w3.org/2000/svg" fill="none" viewBox="0 0 14 14" id="Target-Dollar--Streamline-Flex">
  <desc>
    Target Dollar Streamline Icon: https://streamlinehq.com
  </desc>
  <g id="target-dollar--target-payment-cash-money-finance">
    <path id="Vector (Stroke)" fill="#2859c5" fill-rule="evenodd" d="M7.536 5.838a0.98 0.98 0 0 0 -0.58 -0.133c-0.28 0.024 -0.433 0.116 -0.508 0.19a0.331 0.331 0 0 0 -0.106 0.24 0.37 0.37 0 0 0 0.009 0.089 0.088 0.088 0 0 0 0.009 0.024c0 0.002 0.01 0.017 0.052 0.041 0.122 0.07 0.315 0.111 0.658 0.175l0.035 0.006c0.28 0.052 0.688 0.127 1.019 0.321 0.189 0.111 0.372 0.27 0.505 0.498 0.132 0.228 0.19 0.486 0.19 0.76 0 0.43 -0.233 0.767 -0.493 0.987 -0.262 0.22 -0.596 0.369 -0.941 0.445 -0.687 0.15 -1.564 0.044 -2.235 -0.568a0.625 0.625 0 1 1 0.843 -0.923c0.309 0.281 0.743 0.354 1.123 0.27a0.96 0.96 0 0 0 0.403 -0.18 0.275 0.275 0 0 0 0.05 -0.051c-0.002 -0.079 -0.018 -0.107 -0.02 -0.112 -0.004 -0.005 -0.014 -0.022 -0.058 -0.047 -0.119 -0.07 -0.31 -0.114 -0.649 -0.177a22.276 22.276 0 0 0 -0.048 -0.009c-0.276 -0.05 -0.675 -0.124 -0.998 -0.308a1.368 1.368 0 0 1 -0.509 -0.486 1.449 1.449 0 0 1 -0.195 -0.755c0 -0.874 0.693 -1.584 1.757 -1.676a2.232 2.232 0 0 1 1.312 0.296 2.329 2.329 0 0 1 0.481 0.371l0.01 0.012 0.005 0.004 0.002 0.002 0 0.001 -0.45 0.406 0.451 -0.405a0.625 0.625 0 1 1 -0.93 0.834l0.465 -0.417 -0.465 0.418 0.001 0 0.001 0.002 0.002 0.002 0.002 0.002 -0.004 -0.003a1.08 1.08 0 0 0 -0.196 -0.146Zm0.039 2.182 -0.002 0.003a0.01 0.01 0 0 1 0.002 -0.003Z" clip-rule="evenodd" stroke-width="1"></path>
    <path id="Union" fill="#8fbffa" fill-rule="evenodd" d="M7 0a0.75 0.75 0 0 1 0.75 0.75v0.781c1.332 0.124 2.463 0.588 3.297 1.422 0.834 0.834 1.298 1.965 1.422 3.297h0.78a0.75 0.75 0 0 1 0 1.5h-0.78c-0.124 1.332 -0.588 2.463 -1.422 3.297 -0.834 0.834 -1.965 1.298 -3.297 1.421v0.782a0.75 0.75 0 0 1 -1.5 0v-0.782c-1.332 -0.123 -2.463 -0.587 -3.297 -1.421 -0.834 -0.834 -1.298 -1.965 -1.421 -3.297H0.75a0.75 0.75 0 0 1 0 -1.5h0.782c0.123 -1.332 0.587 -2.463 1.421 -3.297 0.834 -0.834 1.965 -1.298 3.297 -1.421V0.75A0.75 0.75 0 0 1 7 0Zm-0.75 3.04c-0.993 0.115 -1.727 0.465 -2.236 0.974 -0.509 0.509 -0.86 1.243 -0.974 2.237a0.75 0.75 0 0 1 0 1.498c0.115 0.994 0.465 1.728 0.974 2.237 0.509 0.51 1.243 0.86 2.236 0.975a0.75 0.75 0 0 1 1.5 0c0.993 -0.116 1.728 -0.466 2.237 -0.975 0.508 -0.509 0.859 -1.243 0.974 -2.237a0.75 0.75 0 0 1 0 -1.498c-0.115 -0.994 -0.466 -1.728 -0.974 -2.237 -0.51 -0.51 -1.244 -0.86 -2.238 -0.975a0.75 0.75 0 0 1 -1.499 0Z" clip-rule="evenodd" stroke-width="1"></path>
  </g>
</svg>