<svg xmlns="http://www.w3.org/2000/svg" fill="none" viewBox="0 0 24 24" id="Nose-Smell--Streamline-Sharp">
  <desc>
    Nose Smell Streamline Icon: https://streamlinehq.com
  </desc>
  <g id="nose-smell--health-medical-nose-smell">
    <path id="Ellipse 12" fill="#d7e0ff" d="M3.58984 13.0345c0 2.0313 1.64677 3.6781 3.67816 3.6781h9.465c2.0314 0 3.6781 -1.6468 3.6781 -3.6781 0 -2.0314 -1.6467 -3.6782 -3.6781 -3.6782L15.0154 2H8.98559L7.268 9.3563c-2.03139 0 -3.67816 1.6468 -3.67816 3.6782Z" stroke-width="1"></path>
    <path id="Vector" stroke="#4147d5" d="M7.65041 14.2275h1.29635c1.85114 2.0134 4.25964 2.0134 6.11074 0h1.2921" stroke-width="1"></path>
    <path id="Ellipse 4" stroke="#4147d5" d="M16.732 16.7126c2.0314 0 3.6782 -1.6468 3.6782 -3.6781 0 -2.0314 -1.6468 -3.6782 -3.6782 -3.6782L15.0144 2" stroke-width="1"></path>
    <path id="Ellipse 5" stroke="#4147d5" d="M7.268 16.7126c-2.03139 0 -3.67816 -1.6468 -3.67816 -3.6781 0 -2.0314 1.64677 -3.6782 3.67816 -3.6782L8.98559 2" stroke-width="1"></path>
    <path id="Ellipse 7" stroke="#4147d5" d="M10.4385 19.0522c0 1.6494 -1.33701 2.9864 -2.98635 2.9864" stroke-width="1"></path>
    <path id="Ellipse 10" stroke="#4147d5" d="M13.5615 19.0522c0 1.6494 1.337 2.9864 2.9864 2.9864" stroke-width="1"></path>
    <path id="Ellipse 9" stroke="#4147d5" d="M7.17816 18.481c-0.38279 1.0082 -1.58769 1.9537 -2.74261 2.3192" stroke-width="1"></path>
    <path id="Ellipse 11" stroke="#4147d5" d="M16.8218 18.481c0.3828 1.0082 1.5877 1.9537 2.7427 2.3192" stroke-width="1"></path>
  </g>
</svg>