<svg xmlns="http://www.w3.org/2000/svg" fill="none" viewBox="0 0 24 24" id="Alpine-Linux-Logo--Streamline-Logos-Block">
  <desc>
    Alpine Linux Logo Streamline Icon: https://streamlinehq.com
  </desc>
  <path fill="#000000" fill-rule="evenodd" d="M5 1a4 4 0 0 0 -4 4v14a4 4 0 0 0 4 4h14a4 4 0 0 0 4 -4V5a4 4 0 0 0 -4 -4H5ZM4 12l4 -6.91h8L20 12l-4 6.909H8l-4 -6.91Zm6.623 -3.275 -4.541 4.449c0.262 0.27 0.815 0.6 1.268 0.532 0.614 -0.092 3.273 -2.884 3.273 -2.884s2.659 2.792 3.272 2.884c0.454 0.068 1.006 -0.263 1.268 -0.532l-4.54 -4.449Zm7.159 4.517 -3.969 -3.888 -0.994 0.975 0.994 0.994s2.082 2.303 2.619 2.384c0.396 0.06 1.12 -0.23 1.35 -0.465Zm-7.978 0.465v-1.535l-1.084 1.07c0.319 0.277 0.553 0.398 1.084 0.465Z" clip-rule="evenodd" stroke-width="1"></path>
</svg>