<svg xmlns="http://www.w3.org/2000/svg" viewBox="0 0 14 14">
  <g>
    <circle cx="7" cy="7" r="6.5" style="fill: none;stroke: #000001;stroke-linecap: round;stroke-linejoin: round"/>
    <path d="M8.25,11.25a1.78,1.78,0,0,0-1-1.5c-1-.5-2.12.4-2.73.27C4.24,10,3.32,8.4,4.21,7.73,5.55,6.72,5,5.54,6,5c2.19-1.2,3.48,1.14,5.18.84" style="fill: none;stroke: #000001;stroke-linecap: round;stroke-linejoin: round"/>
    <line x1="5.72" y1="5.24" x2="4.25" y2="3" style="fill: none;stroke: #000001;stroke-linecap: round;stroke-linejoin: round"/>
    <line x1="7.5" y1="3.5" x2="7.85" y2="4.73" style="fill: none;stroke: #000001;stroke-linecap: round;stroke-linejoin: round"/>
    <path d="M9,7c.7.82,1.32.3,1.75,1.38" style="fill: none;stroke: #000001;stroke-linecap: round;stroke-linejoin: round"/>
    <path d="M9,9a1.52,1.52,0,0,0,1.25.75" style="fill: none;stroke: #000001;stroke-linecap: round;stroke-linejoin: round"/>
  </g>
</svg>
