<svg xmlns="http://www.w3.org/2000/svg" viewBox="0 0 14 14">
  <g>
    <path d="M10.25,5a4.86,4.86,0,0,1,1.43.22.25.25,0,0,0,.22,0A.26.26,0,0,0,12,5V1.5A1.5,1.5,0,0,0,10.5,0h-9A1.5,1.5,0,0,0,0,1.5v6A1.5,1.5,0,0,0,1.5,9H5a.26.26,0,0,0,.25-.18A5.23,5.23,0,0,1,10.25,5ZM1.61,1.86a.75.75,0,0,1,1-.25L5.87,3.55a.24.24,0,0,0,.26,0L9.36,1.61a.75.75,0,1,1,.78,1.28L6.39,5.14a.75.75,0,0,1-.78,0L1.86,2.89A.75.75,0,0,1,1.61,1.86Z" style="fill: #000001"/>
    <path d="M10.25,6.5A3.75,3.75,0,1,0,14,10.25,3.75,3.75,0,0,0,10.25,6.5ZM12,10.87H8.5a.63.63,0,0,1,0-1.25H12a.63.63,0,0,1,0,1.25Z" style="fill: #000001"/>
  </g>
</svg>
