<svg xmlns="http://www.w3.org/2000/svg" viewBox="0 0 14 14">
  <g>
    <path d="M14,10.5a1,1,0,0,0-1-1H11.75a.25.25,0,0,1-.25-.25V8a1,1,0,0,0-2,0V9.25a.25.25,0,0,1-.25.25H8a1,1,0,0,0,0,2H9.25a.25.25,0,0,1,.25.25V13a1,1,0,0,0,2,0V11.75a.25.25,0,0,1,.25-.25H13A1,1,0,0,0,14,10.5Z" style="fill: #000001"/>
    <path d="M7.78,8A.26.26,0,0,0,8,7.78,2.5,2.5,0,0,1,10.5,5.5a2.39,2.39,0,0,1,1.13.28.25.25,0,0,0,.25,0A.24.24,0,0,0,12,5.56V1.5A1.5,1.5,0,0,0,10.5,0h-9A1.5,1.5,0,0,0,0,1.5v6A1.5,1.5,0,0,0,1.5,9H5.89a.22.22,0,0,0,.19-.09A2.51,2.51,0,0,1,7.78,8ZM1.86,2.89a.75.75,0,1,1,.78-1.28L5.87,3.55a.24.24,0,0,0,.26,0L9.36,1.61a.75.75,0,1,1,.78,1.28L6.39,5.14a.75.75,0,0,1-.78,0Z" style="fill: #000001"/>
  </g>
</svg>
