<svg xmlns="http://www.w3.org/2000/svg" fill="none" viewBox="0 0 40 40" id="Globe-1--Streamline-Stickies">
  <desc>
    Globe 1 Streamline Icon: https://streamlinehq.com
  </desc>
  <path fill="#48eeff" stroke="#231f20" stroke-miterlimit="10" d="M0.5 20c0 5.1717 2.05446 10.1316 5.71142 13.7886C9.86838 37.4455 14.8283 39.5 20 39.5c5.1717 0 10.1316 -2.0545 13.7886 -5.7114C37.4455 30.1316 39.5 25.1717 39.5 20c0 -5.1717 -2.0545 -10.13162 -5.7114 -13.78858C30.1316 2.55446 25.1717 0.5 20 0.5 14.8283 0.5 9.86838 2.55446 6.21142 6.21142 2.55446 9.86838 0.5 14.8283 0.5 20Z" stroke-width="1"></path>
  <path fill="#ffe236" stroke="#231f20" stroke-miterlimit="10" d="M15.82 6.23998c3.15 -0.09 5.4 0.42 6.08 1.26 0.67 0.43 1.35 2.70002 1.35 4.58002 0 1.88 -0.68 4.14 -1.35 4.57 -0.5735 0.4623 -1.2676 0.7503 -2 0.83 -1.25 5.26 -3.95 9.16 -9.42 8.25 -2.16999 -0.36 -5.18999 -2.3 -4.38999 -10.68C6.64001 9.07998 10 6.23998 15.82 6.23998Z" stroke-width="1"></path>
  <path fill="#ffe236" stroke="#231f20" stroke-miterlimit="10" d="M25 24.76c0.48 -0.62 2.26 -0.61 3.54 -0.34 1.28 0.27 2.9 1 3.09 1.75 0.2288 1.2719 0.1811 2.5782 -0.14 3.83 -0.51 2.38 -4 4.13 -5 3.92 -1.28 -0.27 -2.91 -1 -3.09 -1.74 -0.2469 -1.2835 -0.2025 -2.606 0.13 -3.87 0.2232 -1.277 0.7251 -2.4891 1.47 -3.55Z" stroke-width="1"></path>
  <path stroke="#ffffff" stroke-linecap="round" stroke-miterlimit="10" d="M34 10.59c-1.2516 -2.11141 -3.0567 -3.84043 -5.22 -4.99997" stroke-width="1"></path>
  <path stroke="#ffffff" stroke-linecap="round" stroke-miterlimit="10" d="M17 8.52002c0.9724 0.01379 1.9331 0.21408 2.83 0.59" stroke-width="1"></path>
  <path stroke="#ffffff" stroke-linecap="round" stroke-miterlimit="10" d="M28.1 26.53c0.4717 0.0955 0.9201 0.2824 1.32 0.55" stroke-width="1"></path>
</svg>