<svg xmlns="http://www.w3.org/2000/svg" fill="none" viewBox="0 0 40 40" id="Sun-Clound-Weather--Streamline-Stickies">
  <desc>
    Sun Clound Weather Streamline Icon: https://streamlinehq.com
  </desc>
  <path fill="#ffe236" stroke="#231f20" stroke-miterlimit="10" d="M19.37 15.5c0 0.8457 0.1666 1.6831 0.4902 2.4645 0.3237 0.7813 0.798 1.4913 1.396 2.0893 0.598 0.598 1.308 1.0723 2.0893 1.396 0.7813 0.3236 1.6188 0.4902 2.4645 0.4902 0.8457 0 1.6831 -0.1666 2.4645 -0.4902 0.7813 -0.3237 1.4913 -0.798 2.0893 -1.396 0.598 -0.598 1.0723 -1.308 1.396 -2.0893 0.3236 -0.7814 0.4902 -1.6188 0.4902 -2.4645 0 -0.8457 -0.1666 -1.6831 -0.4902 -2.4645 -0.3237 -0.7813 -0.798 -1.4913 -1.396 -2.0893 -0.598 -0.598 -1.308 -1.07235 -2.0893 -1.39599C27.4931 9.22657 26.6557 9.06 25.81 9.06c-0.8457 0 -1.6832 0.16657 -2.4645 0.49021 -0.7813 0.32364 -1.4913 0.79799 -2.0893 1.39599 -0.598 0.598 -1.0723 1.308 -1.396 2.0893 -0.3236 0.7814 -0.4902 1.6188 -0.4902 2.4645Z" stroke-width="1"></path>
  <path fill="#ffe236" stroke="#231f20" stroke-miterlimit="10" d="M28 5.65s0.07 -0.51 -0.83 -2c-0.3236 -0.57277 -0.7165 -1.10344 -1.17 -1.58 -0.1375 -0.12299 -0.3155 -0.19099 -0.5 -0.19099s-0.3625 0.068 -0.5 0.19099c-0.428 0.48417 -0.791 1.02202 -1.08 1.6 -0.3711 0.63806 -0.6188 1.34029 -0.73 2.07 -0.006 0.16962 0.0434 0.33657 0.1409 0.47554 0.0974 0.13896 0.2375 0.24234 0.3991 0.29446 0.6238 0.1351 1.262 0.1922 1.9 0.17 0.6358 -0.00636 1.268 -0.09715 1.88 -0.27 0.1567 -0.05814 0.2902 -0.16568 0.3804 -0.30639s0.1322 -0.30695 0.1196 -0.47361l-0.01 0.02Z" stroke-width="1"></path>
  <path fill="#ffe236" stroke="#231f20" stroke-miterlimit="10" d="M23.65 25.49s-0.07 0.51 0.83 2c0.3238 0.5634 0.7168 1.0842 1.17 1.55 0.1375 0.123 0.3155 0.191 0.5 0.191s0.3625 -0.068 0.5 -0.191c0.4254 -0.4861 0.7882 -1.0236 1.08 -1.6 0.3685 -0.6392 0.616 -1.341 0.73 -2.07 0.0054 -0.1709 -0.0456 -0.3388 -0.1449 -0.4779 -0.0994 -0.1392 -0.2417 -0.2418 -0.4051 -0.2921 -0.6254 -0.1474 -1.2681 -0.2079 -1.91 -0.18 -0.6355 0.0116 -1.267 0.1023 -1.88 0.27 -0.1576 0.061 -0.2917 0.1702 -0.3833 0.3122 -0.0917 0.1419 -0.136 0.3091 -0.1267 0.4778l0.04 0.01Z" stroke-width="1"></path>
  <path fill="#ffe236" stroke="#231f20" stroke-miterlimit="10" d="M20.33 7s-0.31 -0.41 -2 -0.85c-0.6234 -0.16592 -1.265 -0.25326 -1.91 -0.26 -0.1876 0.01014 -0.3642 0.0912 -0.4942 0.22675 -0.13 0.13556 -0.2036 0.31546 -0.2058 0.50325 0.0342 0.64661 0.1553 1.28568 0.36 1.9 0.1928 0.71873 0.5147 1.39641 0.95 2 0.1153 0.1261 0.2692 0.2102 0.4376 0.2392 0.1684 0.0289 0.3416 0.0011 0.4924 -0.0792 0.5379 -0.3372 1.0288 -0.74406 1.46 -1.21 0.4465 -0.45686 0.8299 -0.97143 1.14 -1.53 0.0706 -0.1527 0.0893 -0.32435 0.0532 -0.48868 -0.0361 -0.16434 -0.125 -0.31232 -0.2532 -0.42132L20.33 7Z" stroke-width="1"></path>
  <path fill="#ffe236" stroke="#231f20" stroke-miterlimit="10" d="M31.3 24.11s0.31 0.42 2 0.85c0.6232 0.1677 1.2647 0.2584 1.91 0.27 0.1884 -0.0126 0.3651 -0.0958 0.4949 -0.2329 0.1297 -0.1372 0.203 -0.3183 0.2051 -0.5071 -0.0402 -0.6459 -0.1612 -1.2842 -0.36 -1.9 -0.1949 -0.718 -0.5167 -1.3953 -0.95 -2 -0.1153 -0.1261 -0.2693 -0.2102 -0.4376 -0.2392 -0.1684 -0.0289 -0.3416 -0.0011 -0.4924 0.0792 -0.535 0.3451 -1.0254 0.7548 -1.46 1.22 -0.448 0.4519 -0.8316 0.9634 -1.14 1.52 -0.0707 0.1527 -0.0894 0.3243 -0.0533 0.4887 0.0361 0.1643 0.1251 0.3123 0.2533 0.4213l0.03 0.03Z" stroke-width="1"></path>
  <path fill="#ffe236" stroke="#231f20" stroke-miterlimit="10" d="M15.89 13.41s-0.51 -0.08 -2 0.83c-0.5599 0.3206 -1.0773 0.7103 -1.54 1.16 -0.123 0.1375 -0.191 0.3155 -0.191 0.5s0.068 0.3625 0.191 0.5c0.4895 0.4238 1.0264 0.7895 1.6 1.09 0.6423 0.3599 1.343 0.6036 2.07 0.72 0.17 0.0077 0.3377 -0.0411 0.477 -0.1388 0.1393 -0.0977 0.2423 -0.2388 0.293 -0.4012 0.1457 -0.6223 0.2063 -1.2614 0.18 -1.9 -0.0116 -0.6355 -0.1023 -1.267 -0.27 -1.88 -0.06 -0.1575 -0.1694 -0.2913 -0.3118 -0.3815 -0.1424 -0.0901 -0.3102 -0.1317 -0.4782 -0.1185l-0.02 0.02Z" stroke-width="1"></path>
  <path fill="#ffe236" stroke="#231f20" stroke-miterlimit="10" d="M35.74 17.73s0.5 0.08 2 -0.83c0.5609 -0.3231 1.0784 -0.7163 1.54 -1.17 0.1251 -0.1365 0.1945 -0.3149 0.1945 -0.5s-0.0694 -0.3635 -0.1945 -0.5c-0.4873 -0.4268 -1.0245 -0.7928 -1.6 -1.09 -0.6444 -0.365 -1.3488 -0.6122 -2.08 -0.73 -0.17 -0.0066 -0.3372 0.044 -0.475 0.1437 -0.1378 0.0997 -0.2381 0.2428 -0.285 0.4063 -0.1456 0.6189 -0.2061 1.2547 -0.18 1.89 0.0042 0.636 0.095 1.2685 0.27 1.88 0.0568 0.1603 0.1652 0.2973 0.3081 0.3896 0.1429 0.0923 0.3124 0.1346 0.4819 0.1204l0.02 -0.01Z" stroke-width="1"></path>
  <path fill="#ffe236" stroke="#231f20" stroke-miterlimit="10" d="M17.27 21.06s-0.41 0.3 -0.85 2c-0.17 0.633 -0.2607 1.2846 -0.27 1.94 0.0148 0.1876 0.0987 0.363 0.2354 0.4923 0.1367 0.1293 0.3165 0.2033 0.5046 0.2077 0.6462 -0.0443 1.2844 -0.1686 1.9 -0.37 0.7203 -0.1885 1.3988 -0.5108 2 -0.95 0.1261 -0.1153 0.2102 -0.2693 0.2392 -0.4376 0.0289 -0.1684 0.0011 -0.3416 -0.0792 -0.4924 -0.3452 -0.5377 -0.7624 -1.0255 -1.24 -1.45 -0.4547 -0.4448 -0.9657 -0.828 -1.52 -1.14 -0.1527 -0.0707 -0.3244 -0.0894 -0.4887 -0.0533 -0.1643 0.0362 -0.3123 0.1251 -0.4213 0.2533h-0.01Z" stroke-width="1"></path>
  <path fill="#ffe236" stroke="#231f20" stroke-miterlimit="10" d="M34.36 10.08s0.41 -0.30001 0.85 -2.00001c0.1621 -0.62777 0.2527 -1.27187 0.27 -1.92 -0.0126 -0.18841 -0.0958 -0.36513 -0.2329 -0.4949 -0.1372 -0.12976 -0.3183 -0.203 -0.5071 -0.2051 -0.646 0.03936 -1.2844 0.16032 -1.9 0.36 -0.7223 0.20811 -1.4002 0.54706 -2 1 -0.1246 0.11626 -0.2077 0.27012 -0.2366 0.43806 -0.0289 0.16795 -0.002 0.34073 0.0766 0.49194 0.3358 0.54175 0.7465 1.03328 1.22 1.46 0.4519 0.44799 0.9634 0.83161 1.52 1.14001 0.1513 0.0735 0.3227 0.0947 0.4874 0.0604 0.1647 -0.0344 0.3133 -0.1225 0.4226 -0.2504l0.03 -0.08Z" stroke-width="1"></path>
  <path stroke="#ffffff" stroke-linecap="round" stroke-miterlimit="10" d="M28.12 11.19c0.6908 0.2745 1.2711 0.7704 1.65 1.41" stroke-width="1"></path>
  <path fill="#48eeff" stroke="#231f20" stroke-miterlimit="10" d="M32.93 28.79c0.2722 -0.7342 0.4241 -1.5074 0.45 -2.29 0.13 -3.37 -1.65 -5.7 -5.41 -5.85 -0.2997 -0.0201 -0.6003 -0.0201 -0.9 0 -1 -2.09 -3.08 -3.4 -6.21 -3.53 -4.23 -0.17 -6.7 2 -7.36 5.42 -0.2996 -0.063 -0.604 -0.0998 -0.91 -0.11 -0.541 -0.0786 -1.0927 -0.0354 -1.6148 0.1265 -0.5221 0.162 -1.00145 0.4385 -1.40302 0.8094s-0.71521 0.8268 -0.91801 1.3344c-0.2028 0.5077 -0.28964 1.0542 -0.25416 1.5997 -0.01725 0.3889 0.01297 0.7784 0.09 1.16 -0.81036 0.4128 -1.49278 1.0387 -1.97383 1.8105 -0.48104 0.7718 -0.74248 1.6602 -0.75617 2.5695 -0.07 1.81 0.88 4.26 3 4.82 1 0.51 6.62999 1.21 11.27999 1.39 4.65 0.18 10.29 0 11.37 -0.48 2.12 -0.38 3.27 -2.75 3.34 -4.56 0.0321 -0.7948 -0.1148 -1.5867 -0.4298 -2.3171 -0.315 -0.7304 -0.7901 -1.3807 -1.3902 -1.9029Z" stroke-width="1"></path>
  <path stroke="#ffffff" stroke-linecap="round" stroke-miterlimit="10" d="M28.17 22.52c0.5501 -0.0296 1.0977 0.0929 1.5828 0.3539 0.4851 0.2611 0.8889 0.6507 1.1672 1.1261" stroke-width="1"></path>
  <path fill="#ff52a1" stroke="#231f20" stroke-miterlimit="10" d="M0.503084 25.8287c0.000784 0.3209 0.256499 0.6281 0.710886 0.8539 0.4544 0.2258 1.07024 0.3518 1.71206 0.3502 0.64183 -0.0016 1.25705 -0.1306 1.71033 -0.3586 0.45328 -0.228 0.70749 -0.5364 0.70671 -0.8573 -0.00039 -0.1589 -0.06337 -0.3161 -0.18534 -0.4626 -0.12198 -0.1465 -0.30056 -0.2795 -0.52555 -0.3913 -0.22499 -0.1118 -0.49199 -0.2003 -0.78574 -0.2604 -0.29376 -0.0601 -0.60852 -0.0906 -0.92632 -0.0898 -0.3178 0.0008 -0.63241 0.0328 -0.92587 0.0944 -0.29345 0.0615 -0.56001 0.1513 -0.78446 0.2642 -0.22444 0.1129 -0.402369 0.2467 -0.523626 0.3938 -0.121258 0.1471 -0.183468 0.3046 -0.18308 0.4635Z" stroke-width="1"></path>
  <path fill="#ff52a1" stroke="#231f20" stroke-miterlimit="10" d="M3.97052 21.9357c0.25347 0.1917 0.52334 0.3566 0.7942 0.4852 0.27086 0.1286 0.5374 0.2184 0.78441 0.2644 0.24701 0.0459 0.46964 0.047 0.6552 0.0033 0.18555 -0.0437 0.33039 -0.1315 0.42624 -0.2582 0.09585 -0.1267 0.14083 -0.29 0.13239 -0.4804 -0.00845 -0.1905 -0.07016 -0.4044 -0.18162 -0.6296 -0.11146 -0.2251 -0.27047 -0.4572 -0.46797 -0.6828 -0.1975 -0.2256 -0.42961 -0.4404 -0.68309 -0.6321 -0.25347 -0.1917 -0.52334 -0.3565 -0.7942 -0.4851s-0.5374 -0.2185 -0.78441 -0.2644c-0.24701 -0.0459 -0.46964 -0.0471 -0.6552 -0.0034 -0.18555 0.0438 -0.33039 0.1315 -0.42624 0.2582 -0.09585 0.1268 -0.14083 0.29 -0.13239 0.4805 0.00845 0.1904 0.07016 0.4044 0.18162 0.6295 0.11146 0.2252 0.27048 0.4572 0.46797 0.6828 0.1975 0.2256 0.42962 0.4404 0.68309 0.6321Z" stroke-width="1"></path>
  <path fill="#ff52a1" stroke="#231f20" stroke-miterlimit="10" d="M7.59898 18.152c0.2824 0.5776 0.66797 1.0755 1.07189 1.3841 0.40391 0.3086 0.79309 0.4027 1.08191 0.2615 0.28882 -0.1412 0.45362 -0.5061 0.45812 -1.0144 0.0046 -0.5083 -0.1515 -1.1184 -0.43392 -1.696 -0.2824 -0.5777 -0.66797 -1.0755 -1.07189 -1.3842 -0.40391 -0.3086 -0.79309 -0.4026 -1.08191 -0.2614 -0.28882 0.1412 -0.45363 0.5061 -0.45817 1.0144 -0.00454 0.5083 0.15157 1.1183 0.43397 1.696Z" stroke-width="1"></path>
</svg>