<svg xmlns="http://www.w3.org/2000/svg" fill="none" viewBox="0 0 40 40" id="Sun--Streamline-Stickies">
  <desc>
    Sun Streamline Icon: https://streamlinehq.com
  </desc>
  <path fill="#ffe236" stroke="#231f20" stroke-miterlimit="10" d="M10.82 19.9c0 1.2055 0.2374 2.3993 0.6988 3.513 0.4613 1.1138 1.1375 2.1258 1.9899 2.9782 0.8525 0.8525 1.8645 1.5287 2.9782 1.99 1.1138 0.4614 2.3075 0.6988 3.5131 0.6988 1.2055 0 2.3992 -0.2374 3.513 -0.6988 1.1138 -0.4613 2.1258 -1.1375 2.9782 -1.99 0.8525 -0.8524 1.5287 -1.8644 1.99 -2.9782 0.4613 -1.1137 0.6988 -2.3075 0.6988 -3.513 0 -1.2055 -0.2375 -2.3993 -0.6988 -3.513 -0.4613 -1.1138 -1.1375 -2.1258 -1.99 -2.9782 -0.8524 -0.8525 -1.8644 -1.5287 -2.9782 -1.99 -1.1138 -0.4614 -2.3075 -0.6988 -3.513 -0.6988 -1.2056 0 -2.3993 0.2374 -3.5131 0.6988 -1.1137 0.4613 -2.1257 1.1375 -2.9782 1.99 -0.8524 0.8524 -1.5286 1.8644 -1.9899 2.9782 -0.4614 1.1137 -0.6988 2.3075 -0.6988 3.513Z" stroke-width="1"></path>
  <path fill="#ffe236" stroke="#231f20" stroke-miterlimit="10" d="M23.43 6s0.13 -0.72 -1.1 -2.93c-0.4383 -0.82488 -0.9793 -1.59097 -1.61 -2.279996 -0.1953 -0.186447 -0.455 -0.290477 -0.725 -0.290477 -0.27 0 -0.5297 0.10403 -0.725 0.290477C18.647 1.45742 18.1095 2.19979 17.67 3c-0.5508 0.9235 -0.927 1.94041 -1.11 3 -0.0146 0.24178 0.0509 0.48164 0.1865 0.68234 0.1356 0.20071 0.3337 0.35104 0.5635 0.42766 0.8809 0.20803 1.7854 0.29882 2.69 0.27 0.9035 0.01193 1.8047 -0.09566 2.68 -0.32 0.2222 -0.07287 0.415 -0.21526 0.5501 -0.40613 0.135 -0.19087 0.2051 -0.42011 0.1999 -0.65387Z" stroke-width="1"></path>
  <path fill="#ffe236" stroke="#231f20" stroke-miterlimit="10" d="M16.57 34.05s-0.13 0.72 1.1 2.93c0.4419 0.8074 0.9827 1.5565 1.61 2.23 0.1953 0.1865 0.4549 0.2905 0.725 0.2905 0.27 0 0.5296 -0.104 0.725 -0.2905 0.6218 -0.6684 1.1591 -1.4106 1.6 -2.21 0.5398 -0.9036 0.9155 -1.8955 1.11 -2.93 0.0146 -0.2418 -0.051 -0.4816 -0.1866 -0.6823 -0.1356 -0.2007 -0.3336 -0.3511 -0.5634 -0.4277 -0.8777 -0.2319 -1.7823 -0.3463 -2.69 -0.34 -0.9069 -0.0125 -1.8114 0.0951 -2.69 0.32 -0.229 0.0747 -0.4268 0.2232 -0.5625 0.4222s-0.2016 0.4374 -0.1875 0.6778l0.01 0.01Z" stroke-width="1"></path>
  <path fill="#ffe236" stroke="#231f20" stroke-miterlimit="10" d="M12.49 7.64001s-0.42 -0.64 -2.85002 -1.29c-0.88555 -0.25759 -1.79867 -0.40866 -2.72 -0.45 -0.26054 0.01437 -0.50663 0.12434 -0.69114 0.30886 -0.18451 0.18451 -0.29448 0.4306 -0.30886 0.69114 0.0369 0.92179 0.18806 1.83544 0.45 2.72 0.2427 1.02819 0.66959 2.00389 1.26 2.87999 0.16314 0.195 0.38878 0.3274 0.63854 0.3748 0.24976 0.0474 0.50824 0.0069 0.73146 -0.1148 0.77583 -0.4667 1.48832 -1.0313 2.12002 -1.68 0.6337 -0.6174 1.1819 -1.317 1.63 -2.07999 0.1068 -0.21409 0.1401 -0.45737 0.0949 -0.6923 -0.0451 -0.23494 -0.1664 -0.44848 -0.3449 -0.6077l-0.01 -0.06Z" stroke-width="1"></path>
  <path fill="#ffe236" stroke="#231f20" stroke-miterlimit="10" d="M27.51 32.36s0.42 0.61 2.85 1.29c0.8855 0.2576 1.7987 0.4087 2.72 0.45 0.2605 -0.0144 0.5066 -0.1243 0.6911 -0.3088 0.1845 -0.1846 0.2945 -0.4306 0.3089 -0.6912 -0.0369 -0.9218 -0.1881 -1.8354 -0.45 -2.72 -0.2522 -1.0191 -0.6858 -1.9845 -1.28 -2.85 -0.1602 -0.1833 -0.3768 -0.3083 -0.6156 -0.3553 -0.2389 -0.0471 -0.4866 -0.0135 -0.7044 0.0953 -0.7758 0.4667 -1.4884 1.0314 -2.12 1.68 -0.655 0.6296 -1.2203 1.3464 -1.68 2.13 -0.1068 0.2141 -0.1401 0.4574 -0.095 0.6923 0.0452 0.2349 0.1664 0.4485 0.345 0.6077l0.03 -0.02Z" stroke-width="1"></path>
  <path fill="#ffe236" stroke="#231f20" stroke-miterlimit="10" d="M5.99999 16.57s-0.72 -0.13 -2.93 1.1c-0.82488 0.4383 -1.59097 0.9793 -2.280001 1.61 -0.186447 0.1953 -0.290477 0.455 -0.290477 0.725 0 0.27 0.10403 0.5297 0.290477 0.725 0.667411 0.623 1.409791 1.1604 2.210001 1.6 0.9235 0.5508 1.94041 0.927 3 1.11 0.24178 0.0146 0.48163 -0.0509 0.68234 -0.1865 0.2007 -0.1357 0.35103 -0.3337 0.42766 -0.5635 0.20803 -0.8809 0.29881 -1.7854 0.27 -2.69 0.01193 -0.9035 -0.09567 -1.8047 -0.32 -2.68 -0.07288 -0.2222 -0.21526 -0.415 -0.40613 -0.5501 -0.19087 -0.135 -0.42011 -0.2051 -0.65387 -0.1999Z" stroke-width="1"></path>
  <path fill="#ffe236" stroke="#231f20" stroke-miterlimit="10" d="M34.05 23.43s0.72 0.13 2.93 -1.1c0.8074 -0.4419 1.5565 -0.9827 2.23 -1.61 0.1864 -0.1953 0.2905 -0.455 0.2905 -0.725 0 -0.27 -0.1041 -0.5297 -0.2905 -0.725 -0.6684 -0.6218 -1.4106 -1.1592 -2.21 -1.6 -0.9036 -0.5398 -1.8956 -0.9156 -2.93 -1.11 -0.2418 -0.0146 -0.4816 0.0509 -0.6823 0.1865 -0.2008 0.1356 -0.3511 0.3337 -0.4277 0.5635 -0.232 0.8777 -0.3463 1.7822 -0.34 2.69 -0.0125 0.9069 0.0951 1.8114 0.32 2.69 0.0747 0.229 0.2232 0.4268 0.4222 0.5625 0.199 0.1356 0.4373 0.2016 0.6778 0.1875l0.01 -0.01Z" stroke-width="1"></path>
  <path fill="#ffe236" stroke="#231f20" stroke-miterlimit="10" d="M7.63999 27.51s-0.61 0.42 -1.29 2.85c-0.25759 0.8856 -0.40866 1.7987 -0.45 2.72 0.01438 0.2606 0.12435 0.5066 0.30886 0.6912 0.18451 0.1845 0.4306 0.2944 0.69114 0.3088 0.9218 -0.0369 1.83544 -0.188 2.72 -0.45 1.01911 -0.2522 1.98451 -0.6858 2.85001 -1.28 0.1833 -0.1602 0.3083 -0.3767 0.3553 -0.6156 0.0471 -0.2389 0.0135 -0.4866 -0.0953 -0.7044 -0.4667 -0.7758 -1.0314 -1.4883 -1.68 -2.12 -0.6063 -0.6422 -1.29575 -1.2005 -2.05001 -1.66 -0.21409 -0.1068 -0.45736 -0.1401 -0.6923 -0.0949 -0.23493 0.0451 -0.44848 0.1663 -0.6077 0.3449l-0.06 0.01Z" stroke-width="1"></path>
  <path fill="#ffe236" stroke="#231f20" stroke-miterlimit="10" d="M32.36 12.49s0.61 -0.42 1.29 -2.85c0.2576 -0.88556 0.4086 -1.79867 0.45 -2.72 -0.0144 -0.26055 -0.1244 -0.50663 -0.3089 -0.69114 -0.1845 -0.18452 -0.4306 -0.29449 -0.6911 -0.30886 -0.9218 0.0369 -1.8355 0.18805 -2.72 0.45 -1.0282 0.24269 -2.004 0.66958 -2.88 1.26 -0.195 0.16314 -0.3274 0.38877 -0.3748 0.63854 -0.0474 0.24976 -0.0069 0.50823 0.1148 0.73146 0.4667 0.77583 1.0313 1.4883 1.68 2.12 0.6296 0.655 1.3463 1.2203 2.13 1.68 0.2141 0.1068 0.4573 0.1401 0.6923 0.095 0.2349 -0.0452 0.4485 -0.1664 0.6077 -0.345l0.01 -0.06Z" stroke-width="1"></path>
  <path stroke="#ffffff" stroke-linecap="round" stroke-miterlimit="10" d="M23.44 13.86c0.973 0.414 1.7817 1.1383 2.3 2.06" stroke-width="1"></path>
</svg>