<svg xmlns="http://www.w3.org/2000/svg" fill="none" viewBox="0 0 14 14"><g id="align-left--paragraph-text-alignment-align-left-formatting-right"><path id="Union" fill="#37d7ff" fill-rule="evenodd" d="M0 1A.75.75 0 0 1 .75.25h12.5a.75.75 0 0 1 0 1.5H.75A.75.75 0 0 1 0 1Zm.75 2.25a.75.75 0 0 0 0 1.5h10a.75.75 0 0 0 0-1.5h-10ZM0 7a.75.75 0 0 1 .75-.75h7a.75.75 0 0 1 0 1.5h-7A.75.75 0 0 1 0 7Zm0 3a.75.75 0 0 1 .75-.75h10a.75.75 0 0 1 0 1.5h-10A.75.75 0 0 1 0 10Zm.75 2.25a.75.75 0 0 0 0 1.5h12.5a.75.75 0 0 0 0-1.5H.75Z" clip-rule="evenodd"></path></g></svg>