<svg xmlns="http://www.w3.org/2000/svg" fill="none" viewBox="0 0 14 14"><g id="broken-link-2--break-broken-hyperlink-link-remove-unlink-chain"><path id="Union" fill="#37d7ff" fill-rule="evenodd" d="M7.672 2.779 5.474 4.977a1 1 0 0 1-1.415-1.414l2.199-2.199a4.51 4.51 0 1 1 6.378 6.378l-2.199 2.199a1 1 0 0 1-1.414-1.414l2.198-2.199a2.51 2.51 0 0 0-3.55-3.55ZM2.779 6.258a1 1 0 0 1 0 1.414 2.51 2.51 0 0 0 3.55 3.55 1 1 0 0 1 1.413 1.414 4.51 4.51 0 1 1-6.378-6.378 1 1 0 0 1 1.415 0Zm6.417-.04a1 1 0 0 0-1.414-1.414l-1.24 1.24A1 1 0 0 0 7.954 7.46l1.241-1.24Z" clip-rule="evenodd"></path><path id="Vector (Stroke)" fill="#3e3e3e" fill-rule="evenodd" d="M.268.265a.745.745 0 0 0 0 1.053l12.411 12.41a.745.745 0 1 0 1.053-1.052L1.322.265a.745.745 0 0 0-1.054 0Z" clip-rule="evenodd"></path></g></svg>