<svg xmlns="http://www.w3.org/2000/svg" fill="none" viewBox="0 0 14 14"><g id="calendar-edit--calendar-date-day-compose-edit-note"><path id="Subtract" fill="#3e3e3e" fill-rule="evenodd" d="M3.5 0a1 1 0 0 1 1 1v1h5V1a1 1 0 0 1 2 0v1h1A1.5 1.5 0 0 1 14 3.5v1H0v-1A1.5 1.5 0 0 1 1.5 2h1V1a1 1 0 0 1 1-1Z" clip-rule="evenodd"></path><path id="Rectangle 481" fill="#37d7ff" d="M0 4.5h14v8a1.5 1.5 0 0 1-1.5 1.5h-11A1.5 1.5 0 0 1 0 12.5v-8Z"></path><path id="Union" fill="#3e3e3e" fill-rule="evenodd" d="M8.563 5.823a.25.25 0 0 0-.354 0L4.086 9.955a.25.25 0 0 0-.07.142l-.264 1.868a.25.25 0 0 0 .282.283l1.868-.255a.25.25 0 0 0 .143-.07l4.132-4.132a.25.25 0 0 0 0-.354L8.563 5.823Z" clip-rule="evenodd"></path></g></svg>