<svg xmlns="http://www.w3.org/2000/svg" fill="none" viewBox="0 0 14 14"><g id="clipboard-remove--edit-task-edition-remove-delete-clipboard-form"><path id="Rectangle 659" fill="#37d7ff" d="M1.25 2.5A1.5 1.5 0 0 1 2.75 1h8.5a1.5 1.5 0 0 1 1.5 1.5v10a1.5 1.5 0 0 1-1.5 1.5h-8.5a1.5 1.5 0 0 1-1.5-1.5v-10Z"></path><path id="Union" fill="#3e3e3e" fill-rule="evenodd" d="M5.5 0a1 1 0 0 0-1 1v.5a1 1 0 0 0 1 1h3a1 1 0 0 0 1-1V1a1 1 0 0 0-1-1h-3Zm-1 7.75a.75.75 0 0 0 0 1.5h5a.75.75 0 0 0 0-1.5h-5Z" clip-rule="evenodd"></path></g></svg>