<svg xmlns="http://www.w3.org/2000/svg" fill="none" viewBox="0 0 14 14"><g id="fastforward-clock--time-clock-reset-stopwatch-circle-measure-loading"><path id="Vector 1560 (Stroke)" fill="#3e3e3e" fill-rule="evenodd" d="M7 2.75a.75.75 0 0 1 .75.75v3.575l2.136 1.282a.75.75 0 1 1-.772 1.286l-2.5-1.5A.75.75 0 0 1 6.25 7.5v-4A.75.75 0 0 1 7 2.75Z" clip-rule="evenodd"></path><path id="Union" fill="#37d7ff" fill-rule="evenodd" d="M1.5 7a5.5 5.5 0 0 1 9.82-3.405l-.966.965a.5.5 0 0 0 .353.854H13.5a.5.5 0 0 0 .5-.5V2.12a.5.5 0 0 0-.854-.354l-.76.761a7 7 0 1 0 1.427 6.086.75.75 0 0 0-1.46-.344A5.5 5.5 0 0 1 1.5 7Z" clip-rule="evenodd"></path></g></svg>