<svg xmlns="http://www.w3.org/2000/svg" fill="none" viewBox="0 0 14 14"><g id="paint-palette--color-colors-design-paint-painting-palette"><path id="Union" fill="#37d7ff" d="M8.093.066A7 7 0 0 0 4.35.577a7.055 7.055 0 0 0-4.2 5.94 7.055 7.055 0 0 0 3.343 6.462A7 7 0 0 0 7.129 14a6.8 6.8 0 0 0 1.877-.259 1.43 1.43 0 0 0 1.01-1.524 1.477 1.477 0 0 0-.99-1.292A1.5 1.5 0 0 1 9.5 8h1.871c.803.002 1.582-.4 2.046-1.056a2.526 2.526 0 0 0 .315-2.282A7 7 0 0 0 8.093.066Z"></path><path id="Ellipse 419" fill="#3e3e3e" d="M3 5.5a1.5 1.5 0 1 0 3 0 1.5 1.5 0 1 0-3 0"></path><path id="Ellipse 420" fill="#3e3e3e" d="M7.5 4a1.5 1.5 0 1 0 3 0 1.5 1.5 0 1 0-3 0"></path><path id="Ellipse 418" fill="#3e3e3e" d="M3.5 9.5a1 1 0 1 0 2 0 1 1 0 1 0-2 0"></path></g></svg>