<svg xmlns="http://www.w3.org/2000/svg" fill="none" viewBox="0 0 14 14"><g id="pen-draw"><path id="vector 2055 (Stroke)" fill="#37d7ff" fill-rule="evenodd" d="M8.61 2.66c-.227-.198-.817-.365-1.602.129-2.508 1.58-4.693 4.43-5.432 5.463a.75.75 0 1 1-1.22-.873c.75-1.047 3.078-4.112 5.853-5.86C7.41.763 8.75.795 9.594 1.527c.421.365.684.89.688 1.486.004.591-.246 1.177-.702 1.698-1.427 1.632-3.312 3.845-4.104 4.925-.104.142-.111.25-.102.312.01.07.047.136.11.183a.411.411 0 0 0 .299.067c.14-.017.36-.094.628-.339.226-.208.461-.43.703-.657.745-.701 1.55-1.46 2.356-2.053.838-.616 1.818-.787 2.561-.333.371.227.632.59.723 1.024.09.43.004.878-.213 1.29-.232.442-.434.76-.615 1.046l-.014.023a10.6 10.6 0 0 0-.485.819.506.506 0 0 0-.024.415c.024.06.047.089.06.101.092.007.172-.016.299-.114.178-.139.377-.374.676-.766a.75.75 0 0 1 1.192.911c-.285.373-.594.764-.948 1.04-.392.304-.867.489-1.444.413-.633-.082-1.048-.57-1.231-1.037a2.007 2.007 0 0 1 .09-1.658c.19-.364.37-.647.541-.916l.021-.034c.177-.279.352-.556.555-.942.085-.162.077-.255.071-.284a.068.068 0 0 0-.036-.051c-.043-.027-.347-.138-.89.262-.726.533-1.433 1.2-2.16 1.884-.255.24-.513.483-.775.723-.923.846-2.047.959-2.838.367-.77-.576-.981-1.68-.32-2.582.837-1.142 2.767-3.405 4.185-5.026l.513.448-.513-.448c.271-.31.332-.555.331-.702a.468.468 0 0 0-.171-.362Zm2.863 8.883-.003-.002c.002 0 .003.001.003.002Z" clip-rule="evenodd"></path></g></svg>