<svg xmlns="http://www.w3.org/2000/svg" fill="none" viewBox="0 0 14 14"><g id="recycle-bin-2--remove-delete-empty-bin-trash-garbage"><path id="Union" fill="#37d7ff" fill-rule="evenodd" d="M2.5 2.823a.5.5 0 0 0-.5.5v9.145c0 .4.156.784.437 1.069.28.285.663.447 1.063.447h7c.4 0 .783-.162 1.063-.447.28-.285.437-.67.437-1.07V3.324a.5.5 0 0 0-.5-.5h-9Z" clip-rule="evenodd"></path><path id="Union_2" fill="#3e3e3e" fill-rule="evenodd" d="M5.625 7.124a.625.625 0 1 0-1.25 0v4.002a.625.625 0 0 0 1.25 0V7.124Zm4 0a.625.625 0 1 0-1.25 0v4.002a.625.625 0 0 0 1.25 0V7.124Z" clip-rule="evenodd"></path><path id="Union_3" fill="#3e3e3e" fill-rule="evenodd" d="M7 1.5a1.75 1.75 0 0 0-1.677 1.25h3.354A1.75 1.75 0 0 0 7 1.5Zm3.211 1.25a3.25 3.25 0 0 0-6.422 0H1a.75.75 0 0 0 0 1.5h12a.75.75 0 0 0 0-1.5h-2.789Z" clip-rule="evenodd"></path></g></svg>