<svg xmlns="http://www.w3.org/2000/svg" fill="none" viewBox="0 0 14 14"><g id="user-protection-2--shield-secure-security-profile-person"><path id="Union" fill="#37d7ff" d="M1.75 0A1.75 1.75 0 0 0 0 1.75v3.257a9.307 9.307 0 0 0 6.57 8.895c.28.087.58.087.86 0A9.307 9.307 0 0 0 14 5.007V1.75A1.75 1.75 0 0 0 12.25 0H1.75Z"></path><path id="Union_2" fill="#3e3e3e" fill-rule="evenodd" d="M9.25 4.25a2.25 2.25 0 1 1-4.5 0 2.25 2.25 0 0 1 4.5 0ZM7 7.5c1.657 0 3.143.733 4.152 1.893A7.798 7.798 0 0 1 7 12.465a7.798 7.798 0 0 1-4.152-3.072A5.487 5.487 0 0 1 7 7.5Z" clip-rule="evenodd"></path></g></svg>