<svg xmlns="http://www.w3.org/2000/svg" fill="none" viewBox="0 0 14 14"><g id="wave-signal-square--heart-line-stats-beat-square-graph"><path id="Rectangle 710" fill="#37d7ff" d="M3.5 0h7S14 0 14 3.5v7s0 3.5-3.5 3.5h-7S0 14 0 10.5v-7S0 0 3.5 0"></path><path id="Vector (Stroke)" fill="#3e3e3e" fill-rule="evenodd" d="M6.085 3.89a.625.625 0 0 1 .518.455l1.14 4.178 1.237-1.85a.625.625 0 0 1 .52-.278H14v1.25H9.834L8.02 10.357a.625.625 0 0 1-1.123-.183L5.783 6.091l-.747 1.25a.625.625 0 0 1-.536.304H0v-1.25h4.145l1.319-2.206a.625.625 0 0 1 .62-.298Z" clip-rule="evenodd"></path></g></svg>