<svg xmlns="http://www.w3.org/2000/svg" fill="none" viewBox="0 0 14 14"><g id="wrench--crescent-tool-construction-tools-wrench-setting-edit-adjust"><path id="Union" fill="#37d7ff" fill-rule="evenodd" d="M10.477.086a4.3 4.3 0 0 0-4.884 5.68L.461 10.898a1.5 1.5 0 0 0 .022 2.143l.56.538a1.5 1.5 0 0 0 2.094-.016L8.34 8.417a4.31 4.31 0 0 0 5.56-4.913 1.258 1.258 0 0 0-.579-.844.5.5 0 0 0-.615.073l-2 2-.006.006a.5.5 0 0 1-.72 0 .499.499 0 0 0-.027-.025l-.746-.668a.5.5 0 0 1 .008-.688l1.998-1.998a.5.5 0 0 0 .107-.55 1.26 1.26 0 0 0-.843-.724Z" clip-rule="evenodd"></path></g></svg>