<svg xmlns="http://www.w3.org/2000/svg" fill="none" viewBox="0 0 48 48" id="Fragile--Streamline-Plump">
  <desc>
    Fragile Streamline Icon: https://streamlinehq.com
  </desc>
  <g id="fragile--fragile-shipping-glass-delivery-wine-crack-shipment-sign-sticker">
    <path id="Union" fill="#8fbffa" d="M24.002 1.477c-5.58 0 -9.276 0.163 -11.624 0.335 -2.44 0.18 -4.469 1.724 -4.902 4.205 -0.392 2.248 -0.753 5.78 -0.753 11.165l0 0.503c0.035 8.102 5.333 13.587 12.804 14.898 0.862 0.15 1.48 0.885 1.43 1.694l-0.285 4.557c-0.07 1.123 -0.89 2.074 -2.005 2.366 -2.655 0.695 -5.35 1.605 -6.637 2.055a1.666 1.666 0 0 0 -1.113 1.579c0 0.932 0.755 1.687 1.687 1.687h22.794c0.931 0 1.687 -0.755 1.687 -1.687 0 -0.706 -0.438 -1.342 -1.113 -1.579 -1.287 -0.45 -3.982 -1.36 -6.637 -2.055 -1.116 -0.292 -1.935 -1.243 -2.005 -2.366l-0.285 -4.557c-0.05 -0.809 0.568 -1.543 1.43 -1.694 7.472 -1.31 12.77 -6.795 12.804 -14.898l0.001 -0.503c0 -5.385 -0.36 -8.917 -0.753 -11.165 -0.433 -2.481 -2.462 -4.026 -4.902 -4.205 -2.348 -0.172 -6.044 -0.335 -11.623 -0.335Z" stroke-width="1"></path>
    <path id="Intersect" fill="#2859c5" d="M20.288 1.503a61.201 61.201 0 0 0 -3.43 7.065 0.95 0.95 0 0 0 0.105 0.92c0.557 0.772 1.88 2.512 3.93 4.676 0.236 0.247 0.333 0.595 0.255 0.928a343.46 343.46 0 0 0 -1.772 8.027c-0.17 0.814 0.521 1.232 1.068 0.606 1.231 -1.41 3.28 -4.191 6.327 -9.596a0.976 0.976 0 0 0 0.006 -0.959c-0.492 -0.863 -1.63 -2.77 -3.105 -4.654a0.488 0.488 0 0 1 -0.055 -0.527c0.465 -0.901 2.044 -3.828 4.252 -6.484a250.883 250.883 0 0 0 -7.58 -0.002Z" stroke-width="1"></path>
  </g>
</svg>