<svg xmlns="http://www.w3.org/2000/svg" fill="none" viewBox="0 0 14 14" id="Book-Reading--Streamline-Core-Neon">
  <desc>
    Book Reading Streamline Icon: https://streamlinehq.com
  </desc>
  <g id="book-reading--book-reading-learning">
    <path id="Vector" stroke="#c71dff" stroke-linecap="round" stroke-linejoin="round" d="M5.23804 4.94398V2.91016" stroke-width="1"></path>
    <path id="Vector 107" stroke="#000cfe" stroke-linecap="round" stroke-linejoin="round" d="m13 13 0 -1.427c0 -1.421 -1.1519 -2.57299 -2.573 -2.57299h-0.53806V6.55557c0 -0.61365 -0.49746 -1.11111 -1.11111 -1.11111s-1.11111 0.49746 -1.11111 1.11111l0 3.33333 -0.08612 0.01436c-1.14294 0.19044 -1.64752 1.54974 -0.90574 2.43984L7.22227 13" stroke-width="1"></path>
    <path id="Vector_2" stroke="#c71dff" stroke-linecap="round" stroke-linejoin="round" d="M5.2377 9.13543c-0.30959 0 -0.6536 -0.25696 -0.78691 -0.38543 -0.83092 -0.63945 -1.81939 -1.0554 -2.87054 -1.19797 -0.1602 -0.01772 -0.30815 -0.09416 -0.4153 -0.21456 -0.10716 -0.12039 -0.165916 -0.27622 -0.16494 -0.43739V1.65187c0 -0.09417 0.02039 -0.18722 0.05978 -0.27275 0.03939 -0.08554 0.09684 -0.16152 0.16841 -0.22273 0.0703 -0.0601 0.15258 -0.10455 0.24138 -0.1304 0.0888 -0.02585 0.18208 -0.032517 0.27366 -0.01955 1.34581 0.22336 2.57698 0.89407 3.49446 1.9037 0.91748 -1.00963 2.14859 -1.68034 3.4944 -1.9037 0.09158 -0.012967 0.18486 -0.0063 0.27366 0.01955 0.0888 0.02585 0.17109 0.0703 0.24139 0.1304 0.07156 0.06121 0.12901 0.13719 0.1684 0.22273 0.03939 0.08553 0.05979 0.17858 0.05978 0.27275v1.80022M5.2345 9.13542c0.17862 0 0.3687 -0.08553 0.52316 -0.18258" stroke-width="1"></path>
  </g>
</svg>