<svg xmlns="http://www.w3.org/2000/svg" fill="none" viewBox="0 0 24 24" id="Business-Pick-User--Streamline-Cyber">
  <desc>
    Business Pick User Streamline Icon: https://streamlinehq.com
  </desc>
  <path stroke="#092f63" stroke-linecap="round" stroke-linejoin="round" stroke-miterlimit="10" d="M9.5 20.5v-8l1.5 -1 1.5 1V18l2 -1 1.5 1 1.5 -1 2 1.5v5H8L6.5 21 8 17.5h1.5" stroke-width="1"></path>
  <path stroke="#092f63" stroke-linecap="round" stroke-linejoin="round" stroke-miterlimit="10" d="M14.5 9.5V7l-3 -1 -3 1v2.5h6Z" stroke-width="1"></path>
  <path stroke="#092f63" stroke-linecap="round" stroke-linejoin="round" stroke-miterlimit="10" d="m13.5 4 -2 1 -2 -1V1.5l2 -1 2 1V4Z" stroke-width="1"></path>
  <path stroke="#092f63" stroke-linecap="round" stroke-linejoin="round" stroke-miterlimit="10" d="M22.5 12.5V10l-3 -1 -3 1v2.5h6Z" stroke-width="1"></path>
  <path stroke="#092f63" stroke-linecap="round" stroke-linejoin="round" stroke-miterlimit="10" d="m21.5 7 -2 1 -2 -1V4.5l2 -1 2 1V7Z" stroke-width="1"></path>
  <path stroke="#092f63" stroke-linecap="round" stroke-linejoin="round" stroke-miterlimit="10" d="M6.5 12.5V10l-3 -1 -3 1v2.5h6Z" stroke-width="1"></path>
  <path stroke="#092f63" stroke-linecap="round" stroke-linejoin="round" stroke-miterlimit="10" d="m5.5 7 -2 1 -2 -1V4.5l2 -1 2 1V7Z" stroke-width="1"></path>
  <path stroke="#092f63" stroke-linecap="round" stroke-linejoin="round" stroke-miterlimit="10" d="M7.5 3.5h-1" stroke-width="1"></path>
  <path stroke="#092f63" stroke-linecap="round" stroke-linejoin="round" stroke-miterlimit="10" d="m7.5 1.5 -0.924 -0.383" stroke-width="1"></path>
  <path stroke="#092f63" stroke-linecap="round" stroke-linejoin="round" stroke-miterlimit="10" d="M15.5 3.5h1" stroke-width="1"></path>
  <path stroke="#092f63" stroke-linecap="round" stroke-linejoin="round" stroke-miterlimit="10" d="m15.5 1.5 0.924 -0.383" stroke-width="1"></path>
</svg>