<svg xmlns="http://www.w3.org/2000/svg" fill="none" viewBox="0 0 24 24" id="Coin-Stack--Streamline-Cyber">
  <desc>
    Coin Stack Streamline Icon: https://streamlinehq.com
  </desc>
  <path stroke="#092f63" stroke-linecap="round" stroke-linejoin="round" stroke-miterlimit="10" d="M12.5 8.5v-3L9 7.5H4l-3.5 -2v15" stroke-width="1"></path>
  <path stroke="#092f63" stroke-linecap="round" stroke-linejoin="round" stroke-miterlimit="10" d="m12.5 8.5 -3.5 2H4l-3.5 -2" stroke-width="1"></path>
  <path stroke="#092f63" stroke-linecap="round" stroke-linejoin="round" stroke-miterlimit="10" d="M9.475 13.229 9 13.5H4l-3.5 -2" stroke-width="1"></path>
  <path stroke="#092f63" stroke-linecap="round" stroke-linejoin="round" stroke-miterlimit="10" d="M9.475 16.229 9 16.5H4l-3.5 -2" stroke-width="1"></path>
  <path stroke="#092f63" stroke-linecap="round" stroke-linejoin="round" stroke-miterlimit="10" d="M9.475 19.229 9 19.5H4l-3.5 -2" stroke-width="1"></path>
  <path stroke="#092f63" stroke-linecap="round" stroke-linejoin="round" stroke-miterlimit="10" d="M9.475 22.229 9 22.5H4l-3.5 -2" stroke-width="1"></path>
  <path stroke="#092f63" stroke-linecap="round" stroke-linejoin="round" stroke-miterlimit="10" d="m0.5 5.5 3.5 -2h5l3.5 2" stroke-width="1"></path>
  <path stroke="#092f63" stroke-linecap="round" stroke-linejoin="round" stroke-miterlimit="10" d="M23.5 20.5v-9l-3.5 2h-5l-3.5 -2v9" stroke-width="1"></path>
  <path stroke="#092f63" stroke-linecap="round" stroke-linejoin="round" stroke-miterlimit="10" d="m23.5 14.5 -3.5 2h-5l-3.5 -2" stroke-width="1"></path>
  <path stroke="#092f63" stroke-linecap="round" stroke-linejoin="round" stroke-miterlimit="10" d="m23.5 17.5 -3.5 2h-5l-3.5 -2" stroke-width="1"></path>
  <path stroke="#092f63" stroke-linecap="round" stroke-linejoin="round" stroke-miterlimit="10" d="m23.5 20.5 -3.5 2h-5l-3.5 -2" stroke-width="1"></path>
  <path stroke="#092f63" stroke-linecap="round" stroke-linejoin="round" stroke-miterlimit="10" d="m11.5 11.5 3.5 -2h5l3.5 2" stroke-width="1"></path>
  <path stroke="#092f63" stroke-linecap="round" stroke-linejoin="round" stroke-miterlimit="10" d="M18.5 1.5v1" stroke-width="1"></path>
  <path stroke="#092f63" stroke-linecap="round" stroke-linejoin="round" stroke-miterlimit="10" d="M18.5 6.5v1" stroke-width="1"></path>
  <path stroke="#092f63" stroke-linecap="round" stroke-linejoin="round" stroke-miterlimit="10" d="M21.5 4.5h-1" stroke-width="1"></path>
  <path stroke="#092f63" stroke-linecap="round" stroke-linejoin="round" stroke-miterlimit="10" d="M16.5 4.5h-1" stroke-width="1"></path>
</svg>