<svg xmlns="http://www.w3.org/2000/svg" fill="none" viewBox="0 0 14 14" id="Balloon--Streamline-Flex">
  <desc>
    Balloon Streamline Icon: https://streamlinehq.com
  </desc>
  <g id="balloon--hobby-entertainment-party-balloon">
    <path id="Subtract" fill="#2859c5" fill-rule="evenodd" d="M4.71808 10.9471h1.50821c-0.0437 0.2781 -0.00896 0.6573 0.18577 0.9505 0.17542 0.2642 0.57626 0.6024 1.5877 0.6024 0.66844 0 0.99948 -0.1115 1.18917 -0.2174 0.19256 -0.1075 0.30857 -0.2402 0.52957 -0.4929l0.02934 -0.0336c0.23523 -0.2688 0.55316 -0.6165 1.09666 -0.8722 0.5317 -0.2502 1.2139 -0.3839 2.1553 -0.3839 0.4142 0 0.75 0.3358 0.75 0.75s-0.3358 0.75 -0.75 0.75c-0.8086 0 -1.2514 0.1163 -1.5166 0.2411 -0.2534 0.1193 -0.4042 0.2716 -0.6065 0.5028l-0.0535 0.0616c-0.1951 0.2255 -0.4732 0.5469 -0.90323 0.7869 -0.48219 0.2691 -1.08866 0.4076 -1.92021 0.4076 -1.38856 0 -2.32106 -0.4951 -2.83731 -1.2726 -0.39264 -0.5914 -0.48284 -1.2558 -0.44437 -1.7803Z" clip-rule="evenodd" stroke-width="1"></path>
    <path id="Union" fill="#8fbffa" fill-rule="evenodd" d="M5.50023 0.225586c-0.96071 0 -2.04743 0.331529 -2.90215 1.047554 -0.86832 0.72741 -1.47796 1.83711 -1.47796 3.33255 0 1.47471 0.50054 2.47467 1.17724 3.18727 0.46546 0.49016 1.01175 0.83706 1.47555 1.10458l-0.33992 0.42429c-0.52448 0.65465 -0.05841 1.62527 0.78043 1.62527h2.57361c0.83884 0 1.30491 -0.97063 0.78043 -1.62527l-0.33992 -0.42429c0.4638 -0.26752 1.01009 -0.61442 1.47555 -1.10458 0.6767 -0.7126 1.17724 -1.71256 1.17724 -3.18727 0 -2.99537 -2.47651 -4.380104 -4.3801 -4.380104Z" clip-rule="evenodd" stroke-width="1"></path>
  </g>
</svg>