<svg xmlns="http://www.w3.org/2000/svg" fill="none" viewBox="0 0 14 14" id="Button-Pause-Circle--Streamline-Flex">
  <desc>
    Button Pause Circle Streamline Icon: https://streamlinehq.com
  </desc>
  <g id="button-pause-circle--controls-pause-multi-media-multimedia-button-circle">
    <path id="Union" fill="#8fbffa" fill-rule="evenodd" d="M7 0.25c-2.092 0 -3.797 0.59 -4.979 1.771C0.84 3.203 0.25 4.908 0.25 7s0.59 3.797 1.771 4.979C3.203 13.16 4.908 13.75 7 13.75s3.797 -0.59 4.979 -1.771C13.16 10.797 13.75 9.092 13.75 7s-0.59 -3.797 -1.771 -4.979C10.797 0.84 9.092 0.25 7 0.25Z" clip-rule="evenodd" stroke-width="1"></path>
    <path id="Vector (Stroke)" fill="#2859c5" fill-rule="evenodd" d="M5.146 10.086a0.75 0.75 0 0 1 -0.75 -0.75l0 -4.672a0.75 0.75 0 1 1 1.5 0l0 4.672a0.75 0.75 0 0 1 -0.75 0.75Z" clip-rule="evenodd" stroke-width="1"></path>
    <path id="Vector (Stroke)_2" fill="#2859c5" fill-rule="evenodd" d="M8.854 10.086a0.75 0.75 0 0 1 -0.75 -0.75l0 -4.672a0.75 0.75 0 1 1 1.5 0l0 4.672a0.75 0.75 0 0 1 -0.75 0.75Z" clip-rule="evenodd" stroke-width="1"></path>
  </g>
</svg>