<svg xmlns="http://www.w3.org/2000/svg" fill="none" viewBox="0 0 14 14" id="Button-Record-1--Streamline-Flex">
  <desc>
    Button Record 1 Streamline Icon: https://streamlinehq.com
  </desc>
  <g id="button-record-1--button-multimedia-multi-media-controls-record-circle">
    <path id="Union" fill="#8fbffa" fill-rule="evenodd" d="M7 0.25c-2.092 0 -3.797 0.59 -4.979 1.771C0.84 3.203 0.25 4.908 0.25 7s0.59 3.797 1.771 4.979C3.203 13.16 4.908 13.75 7 13.75s3.797 -0.59 4.979 -1.771C13.16 10.797 13.75 9.092 13.75 7s-0.59 -3.797 -1.771 -4.979C10.797 0.84 9.092 0.25 7 0.25Z" clip-rule="evenodd" stroke-width="1"></path>
    <path id="Vector" fill="#2859c5" d="M7 9.5c1.6 0 2.5 -0.9 2.5 -2.5S8.6 4.5 7 4.5 4.5 5.4 4.5 7 5.4 9.5 7 9.5Z" stroke-width="1"></path>
  </g>
</svg>