<svg viewBox="0 0 14 14" fill="none" xmlns="http://www.w3.org/2000/svg" id="Tune-Adjust-Volume--Streamline-Flex">
  <desc>
    Tune Adjust Volume Streamline Icon: https://streamlinehq.com
  </desc>
  <g id="tune-adjust-volume">
    <path id="Vector" d="M4.10918 10.3344c1.28674 1.5111 4.31481 1.5111 5.60155 0 1.18517 -1.39173 1.09527 -4.11586 -0.33126 -5.30739 -1.27771 -1.06726 -3.66132 -1.06726 -4.93903 0C3.01395 6.21854 2.924 8.94267 4.10918 10.3344Z" fill="#2859c5" stroke-width="1"></path>
    <path id="Subtract" fill-rule="evenodd" clip-rule="evenodd" d="M3.91874 10.0837c0.86769 -1.30329 1.62736 -2.06369 2.47858 -2.73093 0.27166 -0.21294 0.66452 -0.16535 0.87747 0.10632 0.21294 0.27166 0.16535 0.66452 -0.10632 0.87746 -0.75901 0.59497 -1.43694 1.26908 -2.24692 2.49675 -0.02538 0.0384 -0.05428 0.0732 -0.086 0.1041 1.47355 0.8704 3.79169 0.6694 4.87518 -0.603 1.18517 -1.39173 1.09527 -4.11586 -0.33126 -5.30739 -1.27771 -1.06726 -3.66132 -1.06726 -4.93903 0 -1.34508 1.12353 -1.50182 3.60974 -0.5217 5.05669Z" fill="#8fbffa" stroke-width="1"></path>
    <path id="Union" fill-rule="evenodd" clip-rule="evenodd" d="M7.00024 1.00952c0.41422 0 0.75 0.33579 0.75 0.75v0.47997c0 0.41421 -0.33578 0.75 -0.75 0.75 -0.41421 0 -0.75 -0.33579 -0.75 -0.75v-0.47997c0 -0.41421 0.33579 -0.75 0.75 -0.75ZM0.0107422 7.82849c0 -0.41421 0.3357868 -0.75 0.7499998 -0.75h0.479968c0.41421 0 0.75 0.33579 0.75 0.75s-0.33579 0.75 -0.75 0.75H0.760742c-0.414213 0 -0.7499998 -0.33579 -0.7499998 -0.75Zm12.7490578 -0.75c-0.4142 0 -0.75 0.33579 -0.75 0.75s0.3358 0.75 0.75 0.75h0.4799c0.4142 0 0.75 -0.33579 0.75 -0.75s-0.3358 -0.75 -0.75 -0.75h-0.4799ZM2.0578 2.88605c0.2929 -0.29289 0.76777 -0.29289 1.06066 0l0.33939 0.33939c0.29289 0.29289 0.29289 0.76777 0 1.06066s-0.76777 0.29289 -1.06066 0l-0.33939 -0.33939c-0.29289 -0.29289 -0.29289 -0.76776 0 -1.06066Zm9.5453 8.48475c-0.2929 -0.2929 -0.7678 -0.2929 -1.0607 0 -0.2929 0.2929 -0.2929 0.7678 0 1.0607l0.3394 0.3393c0.2929 0.2929 0.7678 0.2929 1.0607 0 0.2929 -0.2929 0.2929 -0.7677 0 -1.0606l-0.3394 -0.3394Zm-8.14525 0c0.29289 0.2929 0.29289 0.7678 0 1.0607l-0.33939 0.3393c-0.29289 0.2929 -0.76776 0.2929 -1.06066 0 -0.29289 -0.2929 -0.29289 -0.7677 0 -1.0606l0.33939 -0.3394c0.29289 -0.2929 0.76777 -0.2929 1.06066 0Zm8.48465 -7.42409c0.2929 -0.29289 0.2929 -0.76776 0 -1.06066 -0.2929 -0.29289 -0.7678 -0.29289 -1.0607 0l-0.3394 0.33939c-0.2929 0.29289 -0.2929 0.76777 0 1.06066s0.7678 0.29289 1.0607 0l0.3394 -0.33939Z" fill="#2859c5" stroke-width="1"></path>
  </g>
</svg>