<svg xmlns="http://www.w3.org/2000/svg" fill="none" viewBox="0 0 48 48" id="Allergens-Gluten--Streamline-Plump-Remix">
  <desc>
    Allergens Gluten Streamline Icon: https://streamlinehq.com
  </desc>
  <g id="allergens-gluten--gluten-produce-food-allergens-allergy-wheat-bread">
    <path id="Union" fill="#000000" fill-rule="evenodd" d="M45.3316 2.66716c-1.1789 -1.1787 -2.7984 -1.57683 -4.2723 -1.65404 -1.5067 -0.078922 -3.1592 0.15904 -4.7556 0.54936 -2.5225 0.61676 -5.1517 1.67618 -7.2575 2.81054 -0.3473 -0.39506 -0.7044 -0.79451 -1.0703 -1.196C25.8862 0.884471 22.3001 0.884254 20.2081 3.1716c-1.8583 2.03197 -3.4848 4.01531 -4.8728 5.8345 -0.728 0.95418 -1.3181 1.9662 -1.7755 3.016 -2.0488 -1.083 -4.69268 -0.7153 -6.29819 1.2693C4.33415 16.91 2.61579 20.5262 1.6096 23.4365c-1.5496681 4.4822 0.04433 9.0153 2.65456 12.3709l1.76709 2.2716 -3.7962 3.7962c-1.07395 1.074 -1.07395 2.8152 0 3.8891 1.07394 1.074 2.81514 1.074 3.88908 0l3.79653 -3.7965 2.27134 1.7668c3.3555 2.6102 7.8886 4.2042 12.3709 2.6545 2.9102 -1.0061 6.5264 -2.7245 10.145 -5.652 1.9852 -1.6059 2.3525 -4.2507 1.2685 -6.2998 1.05 -0.4575 2.0621 -1.0477 3.0165 -1.7758 1.8191 -1.388 3.8024 -3.0144 5.8343 -4.8727 2.2873 -2.0919 2.2871 -5.678 -0.0055 -7.7677 -0.401 -0.3655 -0.7999 -0.7222 -1.1945 -1.069 1.1344 -2.1061 2.1938 -4.7355 2.8103 -7.2582 0.3902 -1.5962 0.6279 -3.24856 0.5488 -4.75508 -0.0774 -1.47375 -0.4758 -3.093 -1.6547 -4.27166ZM12.7711 39.1174l1.8768 1.4599c2.7042 2.1036 5.8343 2.9904 8.6079 2.0314 2.5505 -0.8818 5.7384 -2.3942 8.9363 -4.9813 0.4837 -0.3913 0.5445 -1.1602 -0.0193 -1.6572 -0.3625 -0.3196 -0.7295 -0.636 -1.0985 -0.9481 -0.0298 -0.0237 -0.0588 -0.0482 -0.0872 -0.0736 -0.7692 -0.6485 -1.5468 -1.278 -2.3115 -1.8787 -2.5237 -1.9824 -5.8424 -2.3029 -8.7474 -1.1096l-7.1571 7.1572Zm11.8061 -11.8061c2.3103 0.2069 4.5845 1.0538 6.5693 2.6129 0.5627 0.442 1.1347 0.9011 1.7081 1.3737 1.3071 -0.3421 2.5633 -0.9401 3.712 -1.8165 1.7365 -1.3249 3.6271 -2.8756 5.561 -4.6443 0.5532 -0.5059 0.5518 -1.3564 -0.0005 -1.8598 -0.5324 -0.4853 -1.0622 -0.9554 -1.5835 -1.4075 -2.4898 -2.1599 -5.8969 -2.5625 -8.8849 -1.34l-7.0815 7.0815Zm3.188 -10.9662 -7.0777 7.0777c-0.2068 -2.3105 -1.0537 -4.585 -2.6129 -6.57 -0.4425 -0.5633 -0.9021 -1.1359 -1.3753 -1.7099 0.3422 -1.3065 0.94 -2.5622 1.8161 -3.7105 1.325 -1.73663 2.8757 -3.6273 4.6444 -5.56128 0.5059 -0.55314 1.3565 -0.55175 1.8599 0.00051 0.4853 0.53242 0.9553 1.06228 1.4075 1.58357 0.1776 0.20462 0.3432 0.41545 0.497 0.63173 0.0138 0.0203 0.0279 0.04027 0.0423 0.05991 1.6808 2.40786 1.9138 5.47726 0.7987 8.19826ZM16.0381 28.0722l-7.15643 7.1564 -1.46026 -1.8772c-2.10354 -2.7042 -2.99032 -5.8343 -2.03138 -8.6079 0.88181 -2.5505 2.39424 -5.7384 4.98137 -8.9363 0.3912 -0.4837 1.1602 -0.5445 1.6572 0.0193 1.0102 1.146 1.9885 2.3364 2.9004 3.4973 1.9826 2.524 2.3029 5.8432 1.1091 8.7484Zm24.2635 -11.3884c-2.6012 -1.2148 -5.4889 -1.4317 -8.2105 -0.7775 0.6536 -2.7207 0.4368 -5.6071 -0.7771 -8.20741 1.7402 -0.89872 3.8902 -1.74975 5.9397 -2.25087 1.3814 -0.33774 2.6181 -0.49162 3.5964 -0.44037 1.011 0.05296 1.4721 0.30699 1.6534 0.48822 0.1812 0.18117 0.4352 0.64202 0.4883 1.65274 0.0514 0.97796 -0.1023 2.21445 -0.4399 3.59559 -0.5009 2.0493 -1.3517 4.1992 -2.2503 5.9396Z" clip-rule="evenodd" stroke-width="1"></path>
  </g>
</svg>