<svg xmlns="http://www.w3.org/2000/svg" fill="none" viewBox="0 0 48 48" id="Burger--Streamline-Plump-Remix">
  <desc>
    Burger Streamline Icon: https://streamlinehq.com
  </desc>
  <g id="burger--burger-fast-cook-cooking-nutrition-food">
    <path id="Union" fill="#000000" fill-rule="evenodd" d="M18.6136 6.0734C20.2345 6.02708 22.0263 6 24 6s3.7655 0.02708 5.3865 0.0734C36.5532 6.27819 42 11.8485 42 19c0 1.6767 -0.1411 3.1542 -0.3107 4.3233 -0.1496 1.0313 -0.8965 1.7719 -1.9523 1.9128C37.0833 25.5902 32.2304 26 24 26s-13.0833 -0.4098 -15.73704 -0.7639c-1.0558 -0.1409 -1.80265 -0.8815 -1.95227 -1.9128C6.14107 22.1542 6 20.6767 6 19c0 -7.1515 5.4468 -12.72181 12.6136 -12.9266ZM24 2c-2.0103 0 -3.8401 0.02758 -5.5007 0.07503C9.18702 2.34113 2 9.6657 2 19c0 1.8981 0.15945 3.5695 0.35213 4.8976 0.11467 0.7905 0.36701 1.5246 0.73248 2.1802C1.79117 27.2243 1 28.911 1 30.7596c0 1.6219 0.81358 2.914 1.95526 3.8144C2.3523 35.4835 2 36.5756 2 37.7493c0 4.2509 3.25427 7.8355 7.59483 8.0052 3.27367 0.128 8.01267 0.2448 14.40517 0.2448s11.1315 -0.1168 14.4052 -0.2448C42.7457 45.5848 46 42.0002 46 37.7493c0 -1.1737 -0.3523 -2.2658 -0.9553 -3.1753C46.1864 33.6736 47 32.3814 47 30.7595c0 -1.8486 -0.7911 -3.5352 -2.0846 -4.6818 0.3655 -0.6556 0.6178 -1.3897 0.7325 -2.1801C45.8405 22.5695 46 20.8981 46 19c0 -9.3343 -7.187 -16.65887 -16.4993 -16.92497C27.8401 2.02758 26.0103 2 24 2ZM6.68407 36.3601l0.27107 -0.2087c0.7023 0.1921 1.35294 0.4439 2.04255 0.7122l0.03445 0.0135c1.38056 0.5372 2.88916 1.1242 4.96786 1.1242 2.4667 0 4.0041 -0.6986 5.4001 -1.333l0.0146 -0.0067c1.3508 -0.6138 2.562 -1.1603 4.5862 -1.1603s3.2349 0.5465 4.5852 1.1603l0.0145 0.0066c1.3956 0.6344 2.9326 1.3331 5.3994 1.3331 2.0788 0 3.5873 -0.587 4.9679 -1.1242l0.0344 -0.0135c0.6896 -0.2683 1.3403 -0.5201 2.0426 -0.7122l0.271 0.2087c0.4193 0.3228 0.6841 0.8242 0.6841 1.3892 0 2.1962 -1.6495 3.9261 -3.7511 4.0083 -3.2182 0.1258 -7.905 0.2417 -14.2489 0.2417 -6.3439 0 -11.0307 -0.1159 -14.24892 -0.2417C7.64953 41.6754 6 39.9455 6 37.7493c0 -0.565 0.26478 -1.0664 0.68407 -1.3892ZM29 11c-1.1046 0 -2 0.8954 -2 2s0.8954 2 2 2h0.5c1.1046 0 2 -0.8954 2 -2s-0.8954 -2 -2 -2H29Zm6 4c-1.1046 0 -2 0.8954 -2 2s0.8954 2 2 2h0.5c1.1046 0 2 -0.8954 2 -2s-0.8954 -2 -2 -2H35Zm-7 3c-1.1046 0 -2 0.8954 -2 2s0.8954 2 2 2h0.5c1.1046 0 2 -0.8954 2 -2s-0.8954 -2 -2 -2H28Z" clip-rule="evenodd" stroke-width="1"></path>
  </g>
</svg>