<svg xmlns="http://www.w3.org/2000/svg" fill="none" viewBox="0 0 48 48" id="Strawberry--Streamline-Plump-Remix">
  <desc>
    Strawberry Streamline Icon: https://streamlinehq.com
  </desc>
  <g id="strawberry--fruit-sweet-berries-plant-strawberry">
    <path id="Union" fill="#000000" fill-rule="evenodd" d="M39.7224 11.7966c0.1102 -0.2213 0.2145 -0.4466 0.3126 -0.6757l1.6721 -3.90147c0.8769 -2.04608 -0.0927 -4.5083 -2.3667 -5.12931C37.4023 1.56087 34.715 1 31.9989 1c-3.1521 0 -5.9946 1.32663 -7.999 3.44916C21.9954 2.32663 19.153 1 16.0009 1c-2.7161 0 -5.4035 0.56087 -7.34154 1.09012 -2.27402 0.62101 -3.2436 3.08323 -2.36671 5.12931l1.67208 3.90147c0.0982 0.2292 0.20252 0.4545 0.3127 0.6758C5.0917 14.8756 4 19.0836 4 23.5946c0 5.3304 2.78532 11.1218 6.4672 15.5145C14.1012 43.4446 19.1102 47 24 47c4.8898 0 9.8988 -3.5554 13.5328 -7.8909C41.2147 34.7164 44 28.925 44 23.5946c0 -4.5111 -1.0917 -8.7192 -4.2776 -11.798Zm-5.2552 24.743C37.7853 32.5809 40 27.6696 40 23.5946c0 -3.9927 -0.98 -7.0008 -3.1972 -9.054C34.5495 12.4538 30.6423 11 24 11s-10.5495 1.4538 -12.8028 3.5406C8.97998 16.5938 8 19.6019 8 23.5946c0 4.075 2.2147 8.9863 5.5328 12.945C16.8988 40.5554 20.8898 43 24 43s7.1012 -2.4446 10.4672 -6.4604ZM19 14c1.1046 0 2 0.8954 2 2v2c0 1.1046 -0.8954 2 -2 2s-2 -0.8954 -2 -2v-2c0 -1.1046 0.8954 -2 2 -2Zm3 20c0 -1.1046 -0.8954 -2 -2 -2s-2 0.8954 -2 2v2c0 1.1046 0.8954 2 2 2s2 -0.8954 2 -2v-2Zm-8 -11c1.1046 0 2 0.8954 2 2v2c0 1.1046 -0.8954 2 -2 2s-2 -0.8954 -2 -2v-2c0 -1.1046 0.8954 -2 2 -2Zm17 -7c0 -1.1046 -0.8954 -2 -2 -2s-2 0.8954 -2 2v2c0 1.1046 0.8954 2 2 2s2 -0.8954 2 -2v-2Zm-3 16c1.1046 0 2 0.8954 2 2v2c0 1.1046 -0.8954 2 -2 2s-2 -0.8954 -2 -2v-2c0 -1.1046 0.8954 -2 2 -2Zm8 -7c0 -1.1046 -0.8954 -2 -2 -2s-2 0.8954 -2 2v2c0 1.1046 0.8954 2 2 2s2 -0.8954 2 -2v-2Zm-12 -2c1.1046 0 2 0.8954 2 2v2c0 1.1046 -0.8954 2 -2 2s-2 -0.8954 -2 -2v-2c0 -1.1046 0.8954 -2 2 -2Z" clip-rule="evenodd" stroke-width="1"></path>
  </g>
</svg>