<svg xmlns="http://www.w3.org/2000/svg" fill="none" viewBox="0 0 48 48" id="Wine--Streamline-Plump-Remix">
  <desc>
    Wine Streamline Icon: https://streamlinehq.com
  </desc>
  <g id="wine--drink-cook-glass-cooking-wine-nutrition-food">
    <path id="Union" fill="#000000" fill-rule="evenodd" d="M12.973 1.3118C15.2622 1.14886 18.7805 1 24 1c5.2195 0 8.7378 0.14886 11.027 0.3118 3.0199 0.21494 5.7084 2.17744 6.2611 5.45009C41.6687 9.01526 42 12.4292 42 17.5c0 4.4022 -1.4637 8.1834 -4.0462 11.0229 -2.4644 2.7098 -5.858 4.4651 -9.7266 5.1502l0.5242 6.2902c2.6953 0.8419 5.5364 2.0261 6.8661 2.6002 0.8514 0.3675 1.3835 1.2042 1.3835 2.114 0 1.2827 -1.0398 2.3225 -2.3225 2.3225H13.3234c-1.2826 0 -2.3224 -1.0398 -2.3224 -2.3224 0 -0.9099 0.5321 -1.7466 1.3835 -2.1141 1.3297 -0.574 4.1707 -1.7581 6.8661 -2.6001l0.5241 -6.29c-3.8693 -0.6849 -7.2637 -2.4403 -9.7285 -5.1505C7.46367 25.6834 6 21.9022 6 17.5c0 -5.0708 0.33126 -8.48474 0.71186 -10.7381 0.55277 -3.27266 3.2412 -5.23516 6.26114 -5.4501ZM24 5c-5.1465 0 -8.5678 0.14688 -10.743 0.3017 -1.478 0.10519 -2.4028 0.95279 -2.601 2.12637 -0.2711 1.60484 -0.533 3.99593 -0.6231 7.44883 2.6657 -0.148 7.7165 -0.3769 13.4672 -0.3769 5.9142 0 11.5722 0.2421 14.4673 0.3893 -0.0898 -3.4596 -0.352 -5.85447 -0.6234 -7.46123 -0.1982 -1.17358 -1.123 -2.02117 -2.601 -2.12637C32.5678 5.14688 29.1465 5 24 5Z" clip-rule="evenodd" stroke-width="1"></path>
  </g>
</svg>