<svg xmlns="http://www.w3.org/2000/svg" fill="none" viewBox="0 0 24 24" id="Charger-1--Streamline-Ultimate">
  <desc>
    Charger 1 Streamline Icon: https://streamlinehq.com
  </desc>
  <path stroke="#000000" stroke-linecap="round" stroke-linejoin="round" d="M12 17.25c-1.5913 0 -3.11742 -0.6321 -4.24264 -1.7574C6.63214 14.3674 6 12.8413 6 11.25v-4.5c0 -0.39782 0.15804 -0.77936 0.43934 -1.06066C6.72064 5.40804 7.10218 5.25 7.5 5.25h9c0.3978 0 0.7794 0.15804 1.0607 0.43934S18 6.35218 18 6.75v4.5c0 1.5913 -0.6321 3.1174 -1.7574 4.2426C15.1174 16.6179 13.5913 17.25 12 17.25Z" stroke-width="1.5"></path>
  <path stroke="#000000" stroke-linecap="round" stroke-linejoin="round" d="M9 16.447v2.3c0 0.3978 0.15804 0.7794 0.43934 1.0607s0.66286 0.4393 1.06066 0.4393h3c0.3978 0 0.7794 -0.158 1.0607 -0.4393S15 19.1448 15 18.747v-2.3" stroke-width="1.5"></path>
  <path stroke="#000000" stroke-linecap="round" stroke-linejoin="round" d="M9 5.25V0.75" stroke-width="1.5"></path>
  <path stroke="#000000" stroke-linecap="round" stroke-linejoin="round" d="M15 5.25V0.75" stroke-width="1.5"></path>
  <path stroke="#000000" stroke-linecap="round" stroke-linejoin="round" d="M12 20.25v3" stroke-width="1.5"></path>
</svg>