<svg xmlns="http://www.w3.org/2000/svg" fill="none" viewBox="0 0 24 24" id="Desktop-Computer-1--Streamline-Ultimate">
  <desc>
    Desktop Computer 1 Streamline Icon: https://streamlinehq.com
  </desc>
  <path stroke="#000000" stroke-linecap="round" stroke-linejoin="round" d="M2.25 4.5h12s1.5 0 1.5 1.5v9s0 1.5 -1.5 1.5h-12s-1.5 0 -1.5 -1.5V6s0 -1.5 1.5 -1.5Z" stroke-width="1.5"></path>
  <path stroke="#000000" stroke-linecap="round" stroke-linejoin="round" d="M18.75 7.5h1.5l1.5 -1.5c0.3978 0 0.7794 0.15804 1.0607 0.43934S23.25 7.10218 23.25 7.5V18c0 0.3978 -0.158 0.7794 -0.4393 1.0607s-0.6629 0.4393 -1.0607 0.4393l-1.5 -1.5h-1.5" stroke-width="1.5"></path>
  <path stroke="#000000" stroke-linecap="round" stroke-linejoin="round" d="M8.25 16.5v3" stroke-width="1.5"></path>
  <path stroke="#000000" stroke-linecap="round" stroke-linejoin="round" d="M5.25 19.5h6" stroke-width="1.5"></path>
  <path stroke="#000000" stroke-linecap="round" stroke-linejoin="round" d="M20.25 10.5h-1.5" stroke-width="1.5"></path>
  <path stroke="#000000" stroke-linecap="round" stroke-linejoin="round" d="M20.25 13.5h-1.5" stroke-width="1.5"></path>
</svg>