<svg xmlns="http://www.w3.org/2000/svg" fill="none" viewBox="0 0 24 24" id="Hard-Drive-1--Streamline-Ultimate">
  <desc>
    Hard Drive 1 Streamline Icon: https://streamlinehq.com
  </desc>
  <path stroke="#000000" stroke-linecap="round" stroke-linejoin="round" d="M23.25 11.25H0.75v6c0 0.3978 0.158035 0.7794 0.43934 1.0607 0.2813 0.2813 0.66284 0.4393 1.06066 0.4393h19.5c0.3978 0 0.7794 -0.158 1.0607 -0.4393s0.4393 -0.6629 0.4393 -1.0607v-6Z" stroke-width="1"></path>
  <path stroke="#000000" stroke-linecap="round" stroke-linejoin="round" d="M2.25 18.75v1.5" stroke-width="1"></path>
  <path stroke="#000000" stroke-linecap="round" stroke-linejoin="round" d="M21.75 18.75v1.5" stroke-width="1"></path>
  <path stroke="#000000" stroke-linecap="round" stroke-linejoin="round" d="M18 3.75H6l-5.25 7.5h22.5L18 3.75Z" stroke-width="1"></path>
  <path stroke="#000000" stroke-linecap="round" stroke-linejoin="round" d="M3.75 15h3" stroke-width="1"></path>
  <path stroke="#000000" d="M15 15.375c-0.2071 0 -0.375 -0.1679 -0.375 -0.375s0.1679 -0.375 0.375 -0.375" stroke-width="1"></path>
  <path stroke="#000000" d="M15 15.375c0.2071 0 0.375 -0.1679 0.375 -0.375s-0.1679 -0.375 -0.375 -0.375" stroke-width="1"></path>
  <path stroke="#000000" d="M19.5 15.375c-0.2071 0 -0.375 -0.1679 -0.375 -0.375s0.1679 -0.375 0.375 -0.375" stroke-width="1"></path>
  <path stroke="#000000" d="M19.5 15.375c0.2071 0 0.375 -0.1679 0.375 -0.375s-0.1679 -0.375 -0.375 -0.375" stroke-width="1"></path>
</svg>