<svg xmlns="http://www.w3.org/2000/svg" fill="none" viewBox="0 0 24 24" id="Remote-Access--Streamline-Ultimate">
  <desc>
    Remote Access Streamline Icon: https://streamlinehq.com
  </desc>
  <path stroke="#000000" stroke-linecap="round" stroke-linejoin="round" stroke-miterlimit="10" d="M14.75 6.30005H9.25002c-0.4 0 -0.7 0.2 -0.9 0.5l-2.8 4.69995c-0.2 0.3 -0.2 0.7 0 1l2.8 4.7c0.2 0.3 0.5 0.5 0.9 0.5H14.75c0.4 0 0.7 -0.2 0.9 -0.5l2.8 -4.7c0.2 -0.3 0.2 -0.7 0 -1l-2.8 -4.69995c-0.2 -0.3 -0.5 -0.5 -0.9 -0.5Z" stroke-width="1.5"></path>
  <path stroke="#000000" stroke-linecap="round" stroke-linejoin="round" stroke-miterlimit="10" d="M12.05 13.8c0.9941 0 1.8 -0.8059 1.8 -1.8 0 -0.9941 -0.8059 -1.8 -1.8 -1.8 -0.9941 0 -1.8 0.8059 -1.8 1.8 0 0.9941 0.8059 1.8 1.8 1.8Z" stroke-width="1.5"></path>
  <path stroke="#000000" stroke-linecap="round" stroke-linejoin="round" stroke-miterlimit="10" d="M12.9062 21.7999 15.65 17.2" stroke-width="1.5"></path>
  <path stroke="#000000" stroke-linecap="round" stroke-linejoin="round" stroke-miterlimit="10" d="M2.86621 8.14404 5.55001 12.5" stroke-width="1.5"></path>
  <path stroke="#000000" stroke-linecap="round" stroke-linejoin="round" stroke-miterlimit="10" d="M20.125 6.30005H14.75" stroke-width="1.5"></path>
  <path stroke="#000000" stroke-linecap="round" stroke-linejoin="round" stroke-miterlimit="10" d="M17.1272 2.19995H6.87279c-0.39823 0 -0.69691 0.2 -0.89602 0.5L0.899336 11.5c-0.199115 0.3 -0.199115 0.7 0 1l5.077434 8.7999c0.19911 0.3 0.49779 0.5 0.89602 0.5H17.1272c0.3982 0 0.6969 -0.2 0.896 -0.5L23.1007 12.5c0.1991 -0.3 0.1991 -0.7 0 -1l-5.0775 -8.80005c-0.1991 -0.3 -0.5973 -0.5 -0.896 -0.5Z" stroke-width="1.5"></path>
</svg>