<svg xmlns="http://www.w3.org/2000/svg" fill="none" viewBox="0 0 24 24" id="Webcam-2--Streamline-Ultimate">
  <desc>
    Webcam 2 Streamline Icon: https://streamlinehq.com
  </desc>
  <path stroke="#000000" stroke-linecap="round" stroke-linejoin="round" d="M18.308 17.934C17.25 19.5 18.75 22.5 20.25 23.25H3.75c1.5 -0.75 3 -3.75 1.942 -5.316" stroke-width="1.5"></path>
  <path stroke="#000000" stroke-linecap="round" stroke-linejoin="round" d="M12 15c2.4853 0 4.5 -2.0147 4.5 -4.5C16.5 8.01472 14.4853 6 12 6c-2.48528 0 -4.5 2.01472 -4.5 4.5 0 2.4853 2.01472 4.5 4.5 4.5Z" stroke-width="1.5"></path>
  <path stroke="#000000" d="M12 10.875c-0.2071 0 -0.375 -0.1679 -0.375 -0.375s0.1679 -0.375 0.375 -0.375" stroke-width="1.5"></path>
  <path stroke="#000000" d="M12 10.875c0.2071 0 0.375 -0.1679 0.375 -0.375s-0.1679 -0.375 -0.375 -0.375" stroke-width="1.5"></path>
  <path stroke="#000000" stroke-linecap="round" stroke-linejoin="round" d="M7.58008 1.80701c0.56129 0.61321 1.24424 1.1027 2.00526 1.43724 0.76106 0.33454 1.58346 0.50679 2.41476 0.50576 0.8313 0.00103 1.6537 -0.17122 2.4147 -0.50576 0.761 -0.33454 1.444 -0.82403 2.0053 -1.43724" stroke-width="1.5"></path>
  <path stroke="#000000" stroke-linecap="round" stroke-linejoin="round" d="M12 20.25c5.3848 0 9.75 -4.3652 9.75 -9.75 0 -5.38478 -4.3652 -9.75 -9.75 -9.75 -5.38478 0 -9.75 4.36522 -9.75 9.75 0 5.3848 4.36522 9.75 9.75 9.75Z" stroke-width="1.5"></path>
</svg>