<svg xmlns="http://www.w3.org/2000/svg" viewBox="0 0 32 32" id="Social-Rewards-Trends-Hot-Flame--Streamline-Pixel">
  <desc>
    Social Rewards Trends Hot Flame Streamline Icon: https://streamlinehq.com
  </desc>
  <title>social-rewards-trends-hot-flame</title>
  <g>
    <path d="m20.565 19.81 -3.04 0 0 1.52 -1.53 0 0 -1.52 -3.05 0 0 1.52 -1.52 0 0 3.05 1.52 0 0 1.52 1.53 0 0 1.53 1.52 0 0 1.52 1.53 0 0 -1.52 1.52 0 0 -1.53 1.52 0 0 -1.52 1.53 0 0 -3.05 -1.53 0 0 -1.52z" fill="#000000" stroke-width="1"></path>
    <path d="M28.185 10.66h1.53v12.19h-1.53Z" fill="#000000" stroke-width="1"></path>
    <path d="M26.665 22.85h1.52v3.05h-1.52Z" fill="#000000" stroke-width="1"></path>
    <path d="M26.665 9.14h1.52v1.52h-1.52Z" fill="#000000" stroke-width="1"></path>
    <path d="M25.135 25.9h1.53v1.53h-1.53Z" fill="#000000" stroke-width="1"></path>
    <path d="M25.135 7.62h1.53v1.52h-1.53Z" fill="#000000" stroke-width="1"></path>
    <path d="M23.615 27.43h1.52v1.52h-1.52Z" fill="#000000" stroke-width="1"></path>
    <path d="M23.615 6.09h1.52v1.53h-1.52Z" fill="#000000" stroke-width="1"></path>
    <path d="M22.095 28.95h1.52v1.52h-1.52Z" fill="#000000" stroke-width="1"></path>
    <path d="M22.095 4.57h1.52v1.52h-1.52Z" fill="#000000" stroke-width="1"></path>
    <path d="M20.565 3.04h1.53v1.53h-1.53Z" fill="#000000" stroke-width="1"></path>
    <path d="M9.905 30.47h12.19V32H9.905Z" fill="#000000" stroke-width="1"></path>
    <path d="M17.525 1.52h3.04v1.52h-3.04Z" fill="#000000" stroke-width="1"></path>
    <path d="M14.475 9.14h1.52v6.09h-1.52Z" fill="#000000" stroke-width="1"></path>
    <path d="M12.945 4.57h1.53v4.57h-1.53Z" fill="#000000" stroke-width="1"></path>
    <path d="M11.425 3.04h1.52v1.53h-1.52Z" fill="#000000" stroke-width="1"></path>
    <path d="m17.525 1.52 0 -1.52 -9.15 0 0 1.52 1.53 0 0 1.52 1.52 0 0 -1.52 6.1 0z" fill="#000000" stroke-width="1"></path>
    <path d="M9.905 15.23h4.57v1.53h-4.57Z" fill="#000000" stroke-width="1"></path>
    <path d="M8.375 28.95h1.53v1.52h-1.53Z" fill="#000000" stroke-width="1"></path>
    <path d="M8.375 13.71h1.53v1.52h-1.53Z" fill="#000000" stroke-width="1"></path>
    <path d="M5.335 27.43h3.04v1.52h-3.04Z" fill="#000000" stroke-width="1"></path>
    <path d="m8.375 10.66 -1.52 0 0 1.53 -1.52 0 0 1.52 3.04 0 0 -3.05z" fill="#000000" stroke-width="1"></path>
    <path d="M3.805 25.9h1.53v1.53h-1.53Z" fill="#000000" stroke-width="1"></path>
    <path d="M3.805 13.71h1.53v4.57h-1.53Z" fill="#000000" stroke-width="1"></path>
    <path d="M2.285 18.28h1.52v7.62h-1.52Z" fill="#000000" stroke-width="1"></path>
  </g>
</svg>