<svg xmlns="http://www.w3.org/2000/svg" viewBox="0 0 32 32" id="Social-Rewards-Flag--Streamline-Pixel">
  <desc>
    Social Rewards Flag Streamline Icon: https://streamlinehq.com
  </desc>
  <title>social-rewards-flag</title>
  <g>
    <path d="M28.955 12.19h1.52V25.9h-1.52Z" fill="#000000" stroke-width="1"></path>
    <path d="m3.045 32 1.53 0 0 -7.62 7.62 0 0 1.52 1.52 0 0 1.53 15.24 0 0 -1.53 -12.19 0 0 -1.52 1.52 0 0 -12.19 10.67 0 0 -1.53 -12.19 0 0 -1.52 -1.53 0 0 13.71 -10.66 0 0 -13.71 10.66 0 0 -1.52 -10.66 0 0 -1.53 1.52 0 0 -1.52 -3.05 0 0 27.43z" fill="#000000" stroke-width="1"></path>
    <path d="M6.095 1.52h1.53v3.05h-1.53Z" fill="#000000" stroke-width="1"></path>
    <path d="M3.045 0h3.05v1.52h-3.05Z" fill="#000000" stroke-width="1"></path>
    <path d="M1.525 1.52h1.52v3.05h-1.52Z" fill="#000000" stroke-width="1"></path>
  </g>
</svg>