<svg xmlns="http://www.w3.org/2000/svg" fill="none" viewBox="0 0 24 24" id="Office-Building-Double--Streamline-Ultimate">
  <desc>
    Office Building Double Streamline Icon: https://streamlinehq.com
  </desc>
  <path fill="#000000" fill-rule="evenodd" d="M0 2a2 2 0 0 1 2 -2h12a2 2 0 0 1 2 2v22h-6v-3a2 2 0 1 0 -4 0v3H0V2Zm17.5 8H22a2 2 0 0 1 2 2v12h-6.5V10ZM4 3a1 1 0 0 0 -1 1v2.5a1 1 0 0 0 1 1h1.5a1 1 0 0 0 1 -1V4a1 1 0 0 0 -1 -1H4Zm5.5 1a1 1 0 0 1 1 -1H12a1 1 0 0 1 1 1v2.5a1 1 0 0 1 -1 1h-1.5a1 1 0 0 1 -1 -1V4ZM4 11.5a1 1 0 0 0 -1 1V15a1 1 0 0 0 1 1h1.5a1 1 0 0 0 1 -1v-2.5a1 1 0 0 0 -1 -1H4Zm5.5 1a1 1 0 0 1 1 -1H12a1 1 0 0 1 1 1V15a1 1 0 0 1 -1 1h-1.5a1 1 0 0 1 -1 -1v-2.5Z" clip-rule="evenodd" stroke-width="1"></path>
</svg>