<svg xmlns="http://www.w3.org/2000/svg" fill="none" viewBox="0 0 14 14" id="Computer-Chip-1--Streamline-Flex">
  <desc>
    Computer Chip 1 Streamline Icon: https://streamlinehq.com
  </desc>
  <g id="computer-chip-1--computer-device-chip-electronics-cpu-microprocessor">
    <path id="Vector" stroke="#000000" stroke-linecap="round" stroke-linejoin="round" d="M0.868652 9.04956H2.95309" stroke-width="1"></path>
    <path id="Vector_2" stroke="#000000" stroke-linecap="round" stroke-linejoin="round" d="M11.0405 9.04956h2.0845" stroke-width="1"></path>
    <path id="Vector_3" stroke="#000000" stroke-linecap="round" stroke-linejoin="round" d="m9.13184 2.95312 0 -2.084407" stroke-width="1"></path>
    <path id="Vector_4" stroke="#000000" stroke-linecap="round" stroke-linejoin="round" d="m9.13184 13.1406 0 -2.0844" stroke-width="1"></path>
    <path id="Vector_5" stroke="#000000" stroke-linecap="round" stroke-linejoin="round" d="M0.868652 4.95032H2.95309" stroke-width="1"></path>
    <path id="Vector_6" stroke="#000000" stroke-linecap="round" stroke-linejoin="round" d="m4.86816 2.95312 0 -2.084407" stroke-width="1"></path>
    <path id="Vector_7" stroke="#000000" stroke-linecap="round" stroke-linejoin="round" d="M11.0405 4.95032h2.0845" stroke-width="1"></path>
    <path id="Vector_8" stroke="#000000" stroke-linecap="round" stroke-linejoin="round" d="m4.86816 13.1406 0 -2.0844" stroke-width="1"></path>
    <path id="Intersect" stroke="#000000" stroke-linecap="round" stroke-linejoin="round" d="M3.05725 10.016c0.05332 0.48 0.43499 0.8614 0.91484 0.9161 0.973 0.1109 1.98669 0.2435 3.02819 0.2435 1.0415 0 2.05519 -0.1326 3.02822 -0.2435 0.4798 -0.0547 0.8615 -0.4361 0.9148 -0.9161 0.1077 -0.96911 0.2326 -1.9787 0.2326 -3.01597 0 -1.03726 -0.1249 -2.04685 -0.2326 -3.01597 -0.0533 -0.48 -0.435 -0.86135 -0.9148 -0.91606 -0.97303 -0.11092 -1.98672 -0.24354 -3.02822 -0.24354s-2.05519 0.13262 -3.02819 0.24354c-0.47985 0.05471 -0.86152 0.43606 -0.91484 0.91606 -0.10767 0.96912 -0.23254 1.97871 -0.23254 3.01597 0 1.03727 0.12487 2.04686 0.23254 3.01597Z" stroke-width="1"></path>
    <path id="Vector_9" stroke="#000000" stroke-linecap="round" stroke-linejoin="round" d="M7 8.00879h1.44776" stroke-width="1"></path>
  </g>
</svg>