<svg xmlns="http://www.w3.org/2000/svg" fill="none" viewBox="0 0 14 14" id="Wifi-Antenna--Streamline-Flex">
  <desc>
    Wifi Antenna Streamline Icon: https://streamlinehq.com
  </desc>
  <g id="wifi-antenna--wireless-wifi-internet-server-network-antenna-connection">
    <path id="Vector" stroke="#000000" stroke-linecap="round" stroke-linejoin="round" d="M10.1244 7.01542c0.3589 -0.61614 0.5592 -1.30178 0.5851 -2.00267 -0.0276 -0.69918 -0.2287 -1.38284 -0.5874 -1.99713" stroke-width="1"></path>
    <path id="Vector_2" stroke="#000000" stroke-linecap="round" stroke-linejoin="round" d="M11.7173 1.09082c0.285 0.33593 0.535 0.7019 0.7451 1.09247 0.4671 0.86831 0.7243 1.83401 0.7508 2.81964 -0.0269 0.98667 -0.2852 1.95321 -0.7542 2.82171 -0.2095 0.38785 -0.4583 0.7513 -0.7417 1.085" stroke-width="1"></path>
    <path id="Vector_3" stroke="#000000" stroke-linecap="round" stroke-linejoin="round" d="M3.87558 7.01542c-0.35883 -0.61614 -0.55916 -1.30178 -0.58513 -2.00267 0.02761 -0.69918 0.22872 -1.38284 0.58748 -1.99713" stroke-width="1"></path>
    <path id="Vector_4" stroke="#000000" stroke-linecap="round" stroke-linejoin="round" d="M2.28271 1.09082c-0.28498 0.33593 -0.53496 0.7019 -0.74509 1.09247C1.07048 3.0516 0.81331 4.0173 0.786756 5.00293c0.026906 0.98667 0.285264 1.95321 0.754254 2.82171 0.20944 0.38785 0.45827 0.7513 0.7417 1.085" stroke-width="1"></path>
    <path id="Vector_5" stroke="#000000" stroke-linecap="round" stroke-linejoin="round" d="M6.99986 6.23142c0.77804 0 1.21569 -0.43765 1.21569 -1.21569 0 -0.77803 -0.43765 -1.21568 -1.21569 -1.21568 -0.77803 0 -1.21568 0.43765 -1.21568 1.21568 0 0.77804 0.43765 1.21569 1.21568 1.21569Z" stroke-width="1"></path>
    <path id="Vector_6" stroke="#000000" stroke-linecap="round" stroke-linejoin="round" d="m7 6.23145 0 6.76885" stroke-width="1"></path>
  </g>
</svg>