<svg xmlns="http://www.w3.org/2000/svg" fill="none" viewBox="0 0 14 14" id="Incoming-Call--Streamline-Flex-Gradient">
  <desc>
    Incoming Call Streamline Icon: https://streamlinehq.com
  </desc>
  <g id="incoming-call--android-phone-mobile-device-smartphone-iphone-ringing-incoming-call 1">
    <path id="Union" fill="url(#paint0_linear_9380_3203)" fill-rule="evenodd" d="M5.32435 5.77155c-1.0368.34558-2.30506.43027-3.4465.26792-.43946-.06251-.7302-.38811-.78399-.7685-.05209-.36842.12089-.75196.48041-.96241l.94417-.55268L.256281 1.49372C-.0854272 1.15201-.0854272.59799.256282.256281c.341709-.3417082.895728-.3417081 1.237438.000001L3.72164 2.48421l.45601-.77903c.21045-.35953.59399-.5325.96242-.48041.38039.05379.70599.34453.76849.78398.16235 1.14146.07765 2.40974-.26798 3.44658-.04977.1493-.16693.26646-.31623.31622Zm7.57305-2.05882c-.7745-1.04913-2.2273-1.20251-3.20789-.34812-.3227.28116-.63659.57273-.94067.85693-.63415.5927-.71157 1.61608-.13032 2.28519.04794.05521.219.22986.37311.38722l.0015.00152.13291.13569c-.57426.89017-1.18595 1.50629-2.09082 2.08999l-.00482-.00462-.00035-.00033c-.2105-.20247-.46337-.44569-.51827-.49345-.67012-.58298-1.69369-.50306-2.28915.12385-.30307.31909-.61851.65275-.91759.99874-.833.96366-.65223 2.37766.36668 3.12206.1252.0914.2742.2037.46525.3564 1.29528 1.0355 3.16718 1.0363 4.45961-.0063.82243-.6635 1.66522-1.3693 2.45852-2.1626.7933-.7933 1.4991-1.636 2.1626-2.45844 1.0426-1.29242 1.0417-3.16432.0063-4.4596-.1361-.17015-.2404-.30734-.3266-.42413Z" clip-rule="evenodd"></path>
  </g>
  <defs>
    <linearGradient id="paint0_linear_9380_3203" x1=".538" x2="16.494" y1="1.131" y2="10.125" gradientUnits="userSpaceOnUse">
      <stop stop-color="#00d078"></stop>
      <stop offset="1" stop-color="#007df0"></stop>
    </linearGradient>
  </defs>
</svg>