<svg xmlns="http://www.w3.org/2000/svg" fill="none" viewBox="0 0 24 24" id="User-Feedback-Heart--Streamline-Sharp">
  <desc>
    User Feedback Heart Streamline Icon: https://streamlinehq.com
  </desc>
  <g id="user-feedback-heart">
    <path id="Vector 1260" stroke="#000000" d="m11.668 8.993 0.332 0.334 0.332 -0.334a2.439 2.439 0 0 1 3.461 3.438L12 16.248 8.207 12.43a2.439 2.439 0 0 1 3.461 -3.438Z" stroke-width="1.5"></path>
    <path id="Ellipse 1099" stroke="#000000" d="M19.5 5.385A9.976 9.976 0 0 0 12 2C6.477 2 2 6.477 2 12c0 1.045 0.16 2.053 0.458 3" stroke-width="1.5"></path>
    <path id="Ellipse 1100" stroke="#000000" d="M4.5 18.615A9.976 9.976 0 0 0 12 22c5.523 0 10 -4.477 10 -10a9.98 9.98 0 0 0 -0.458 -3" stroke-width="1.5"></path>
    <path id="Vector 2755" stroke="#000000" d="M19.5 1.5v4h-4" stroke-width="1.5"></path>
    <path id="Vector 2754" stroke="#000000" d="M4.5 22.5v-4h4" stroke-width="1.5"></path>
  </g>
</svg>