<svg xmlns="http://www.w3.org/2000/svg" fill="none" viewBox="0 0 14 14" id="Battery-Alert-1--Streamline-Core">
  <desc>
    Battery Alert 1 Streamline Icon: https://streamlinehq.com
  </desc>
  <g id="battery-alert-1--phone-mobile-charge-device-electricity-power-battery-alert-warning">
    <path id="Vector" stroke="#000000" stroke-linecap="round" stroke-linejoin="round" d="M13.5 5.5c0 -0.13261 -0.0527 -0.25979 -0.1464 -0.35355C13.2598 5.05268 13.1326 5 13 5h-0.5V3.5c0 -0.26522 -0.1054 -0.51957 -0.2929 -0.70711C12.0196 2.60536 11.7652 2.5 11.5 2.5h-10c-0.26522 0 -0.51957 0.10536 -0.707107 0.29289C0.605357 2.98043 0.5 3.23478 0.5 3.5v7c0 0.2652 0.105357 0.5196 0.292893 0.7071 0.187537 0.1875 0.441887 0.2929 0.707107 0.2929h10c0.2652 0 0.5196 -0.1054 0.7071 -0.2929s0.2929 -0.4419 0.2929 -0.7071V9h0.5c0.1326 0 0.2598 -0.05268 0.3536 -0.14645 0.0937 -0.09376 0.1464 -0.22094 0.1464 -0.35355v-3Z" stroke-width="1"></path>
    <path id="Vector_2" stroke="#000000" stroke-linecap="round" stroke-linejoin="round" d="M6.5 4.5V7" stroke-width="1"></path>
    <g id="Group 4500">
      <path id="Vector_3" stroke="#000000" stroke-linecap="round" stroke-linejoin="round" d="M6.5 9.125c-0.13807 0 -0.25 -0.11193 -0.25 -0.25s0.11193 -0.25 0.25 -0.25" stroke-width="1"></path>
      <path id="Vector_4" stroke="#000000" stroke-linecap="round" stroke-linejoin="round" d="M6.5 9.125c0.13807 0 0.25 -0.11193 0.25 -0.25s-0.11193 -0.25 -0.25 -0.25" stroke-width="1"></path>
    </g>
  </g>
</svg>