<svg xmlns="http://www.w3.org/2000/svg" fill="none" viewBox="0 0 14 14" id="Browser-Wifi--Streamline-Core">
  <desc>
    Browser Wifi Streamline Icon: https://streamlinehq.com
  </desc>
  <g id="browser-wifi--wireless-wifi-internet-server-network-browser-connection">
    <path id="Vector" stroke="#000000" stroke-linecap="round" stroke-linejoin="round" d="M1.5 13h11c0.5523 0 1 -0.4477 1 -1V2c0 -0.26522 -0.1054 -0.51957 -0.2929 -0.70711C13.0196 1.10536 12.7652 1 12.5 1h-11c-0.26522 0 -0.51957 0.10536 -0.707107 0.29289C0.605357 1.48043 0.5 1.73478 0.5 2v10c0 0.2652 0.105357 0.5196 0.292893 0.7071C0.98043 12.8946 1.23478 13 1.5 13Z" stroke-width="1"></path>
    <path id="Vector_2" stroke="#000000" stroke-linecap="round" stroke-linejoin="round" d="M0.5 4h13" stroke-width="1"></path>
    <path id="Vector_3" stroke="#000000" stroke-linecap="round" stroke-linejoin="round" d="M3.5498 7.425c1.9 -1.9 5 -1.9 6.9 0" stroke-width="1"></path>
    <path id="Vector_4" stroke="#000000" stroke-linecap="round" stroke-linejoin="round" d="M5.35498 8.95794c0.85863 -0.85863 2.33057 -0.85863 3.1892 0" stroke-width="1"></path>
    <g id="Group 627">
      <path id="Vector_5" stroke="#000000" stroke-linecap="round" stroke-linejoin="round" d="M6.95001 11.2974c-0.13807 0 -0.25 -0.112 -0.25 -0.25 0 -0.1381 0.11193 -0.25 0.25 -0.25" stroke-width="1"></path>
      <path id="Vector_6" stroke="#000000" stroke-linecap="round" stroke-linejoin="round" d="M6.95001 11.2974c0.13807 0 0.25 -0.112 0.25 -0.25 0 -0.1381 -0.11193 -0.25 -0.25 -0.25" stroke-width="1"></path>
    </g>
  </g>
</svg>