<svg xmlns="http://www.w3.org/2000/svg" fill="none" viewBox="0 0 14 14" id="Cyborg--Streamline-Core">
  <desc>
    Cyborg Streamline Icon: https://streamlinehq.com
  </desc>
  <g id="cyborg--artificial-robotics-intelligence-machine-technology-android">
    <path id="Vector" stroke="#000000" stroke-linecap="round" stroke-linejoin="round" d="M12.5 9.08196c0 -3.00002 -2.46 -4.63616 -5.5 -4.63616S1.5 6.08194 1.5 9.08196v3.36394c0 0.5523 0.44772 1 1 1h9c0.5523 0 1 -0.4477 1 -1V9.08196Z" stroke-width="1"></path>
    <path id="Vector_2" stroke="#000000" stroke-linecap="round" stroke-linejoin="round" d="M7 4.44576 7 2.9458" stroke-width="1"></path>
    <path id="Vector_3" stroke="#000000" stroke-linecap="round" stroke-linejoin="round" d="M7.00011 2.69505c0.59118 0 1.07042 -0.47925 1.07042 -1.07043S7.59129 0.554199 7.00011 0.554199c-0.59118 0 -1.07042 0.479241 -1.07042 1.070421s0.47924 1.07043 1.07042 1.07043Z" stroke-width="1"></path>
    <path id="Rectangle 604" stroke="#000000" stroke-linecap="round" stroke-linejoin="round" d="M12.5 9.9458h-0.9507c-0.3348 0 -0.6474 0.1676 -0.8328 0.4465l-0.3003 0.4518c-0.1853 0.2788 -0.49795 0.4464 -0.8328 0.4464H4.4162c-0.33485 0 -0.64747 -0.1676 -0.83282 -0.4464l-0.30029 -0.4518c-0.18535 -0.2789 -0.49798 -0.4465 -0.83283 -0.4465H1.5" stroke-width="1"></path>
    <g id="Group 4536">
      <path id="Ellipse 1121" stroke="#000000" stroke-linecap="round" stroke-linejoin="round" d="M4.75 8c-0.13807 0 -0.25 -0.11193 -0.25 -0.25s0.11193 -0.25 0.25 -0.25" stroke-width="1"></path>
      <path id="Ellipse 1122" stroke="#000000" stroke-linecap="round" stroke-linejoin="round" d="M4.75 8c0.13807 0 0.25 -0.11193 0.25 -0.25s-0.11193 -0.25 -0.25 -0.25" stroke-width="1"></path>
    </g>
    <g id="Group 4537">
      <path id="Ellipse 1121_2" stroke="#000000" stroke-linecap="round" stroke-linejoin="round" d="M9.25 8C9.11193 8 9 7.88807 9 7.75s0.11193 -0.25 0.25 -0.25" stroke-width="1"></path>
      <path id="Ellipse 1122_2" stroke="#000000" stroke-linecap="round" stroke-linejoin="round" d="M9.25 8c0.13807 0 0.25 -0.11193 0.25 -0.25s-0.11193 -0.25 -0.25 -0.25" stroke-width="1"></path>
    </g>
  </g>
</svg>