<svg xmlns="http://www.w3.org/2000/svg" fill="none" viewBox="0 0 14 14"><g id="database-server-2--server-network-internet"><path id="Vector" stroke="#3e3e3e" stroke-linecap="round" stroke-linejoin="round" d="M12.5.5h-11a1 1 0 0 0-1 1v3a1 1 0 0 0 1 1h11a1 1 0 0 0 1-1v-3a1 1 0 0 0-1-1Z"></path><path id="Vector_2" stroke="#3e3e3e" stroke-linecap="round" stroke-linejoin="round" d="M7.5 3H11"></path><path id="Vector_3" stroke="#3e3e3e" stroke-linecap="round" stroke-linejoin="round" d="M1.5 5.5a1 1 0 0 0-1 1v3a1 1 0 0 0 1 1h11a1 1 0 0 0 1-1v-3a1 1 0 0 0-1-1"></path><g id="Group 623"><path id="Vector_4" stroke="#3e3e3e" stroke-linecap="round" stroke-linejoin="round" d="M3.25 8.25a.25.25 0 0 1 0-.5"></path><path id="Vector_5" stroke="#3e3e3e" stroke-linecap="round" stroke-linejoin="round" d="M3.25 8.25a.25.25 0 0 0 0-.5"></path></g><g id="Group 627"><path id="Vector_6" stroke="#3e3e3e" stroke-linecap="round" stroke-linejoin="round" d="M3.25 3.25a.25.25 0 0 1 0-.5"></path><path id="Vector_7" stroke="#3e3e3e" stroke-linecap="round" stroke-linejoin="round" d="M3.25 3.25a.25.25 0 0 0 0-.5"></path></g><path id="Vector_8" stroke="#3e3e3e" stroke-linecap="round" stroke-linejoin="round" d="M7.5 8H11"></path><path id="Vector_9" stroke="#3e3e3e" stroke-linecap="round" stroke-linejoin="round" d="M7 10.5v3"></path><path id="Vector_10" stroke="#3e3e3e" stroke-linecap="round" stroke-linejoin="round" d="M2 13.5h10"></path></g></svg>