<svg xmlns="http://www.w3.org/2000/svg" fill="none" viewBox="0 0 14 14" id="Database-Subtract-2-Raid-Storage-Code-Disk-Programming-Database-Array-Hard-Disc-Minus--Streamline-Core">
  <desc>
    Database Subtract 2 Raid Storage Code Disk Programming Database Array Hard Disc Minus Streamline Icon: https://streamlinehq.com
  </desc>
  <g id="database-subtract-2-raid-storage-code-disk-programming-database-array-hard-disc-minus">
    <path id="Vector" stroke="#000000" stroke-linecap="round" stroke-linejoin="round" d="M10.25 13.5c1.7949 0 3.25 -1.4551 3.25 -3.25C13.5 8.45507 12.0449 7 10.25 7 8.45507 7 7 8.45507 7 10.25c0 1.7949 1.45507 3.25 3.25 3.25Z" stroke-width="1"></path>
    <path id="Vector_2" stroke="#000000" stroke-linecap="round" stroke-linejoin="round" d="M9 10.25h2.5" stroke-width="1"></path>
    <path id="Vector_3" stroke="#000000" stroke-linecap="round" stroke-linejoin="round" d="M6 4.74c3.03757 0 5.5 -0.94916 5.5 -2.12S9.03757 0.5 6 0.5 0.5 1.44916 0.5 2.62 2.96243 4.74 6 4.74Z" stroke-width="1"></path>
    <path id="Vector_4" stroke="#000000" stroke-linecap="round" stroke-linejoin="round" d="M11.5 4.50012v-1.88" stroke-width="1"></path>
    <path id="Vector_5" stroke="#000000" stroke-linecap="round" stroke-linejoin="round" d="M0.5 2.62012v6.76c0 0.92998 1.54 1.70998 3.69 1.99998" stroke-width="1"></path>
    <path id="Vector_6" stroke="#000000" stroke-linecap="round" stroke-linejoin="round" d="M4.49 8C2.19 7.78 0.5 7 0.5 6" stroke-width="1"></path>
  </g>
</svg>