<svg xmlns="http://www.w3.org/2000/svg" fill="none" viewBox="0 0 14 14" id="Database-Server-2--Streamline-Core">
  <desc>
    Database Server 2 Streamline Icon: https://streamlinehq.com
  </desc>
  <g id="database-server-2--server-network-internet">
    <path id="Vector" stroke="#000000" stroke-linecap="round" stroke-linejoin="round" d="M12.5 0.5h-11c-0.552285 0 -1 0.447715 -1 1v3c0 0.55228 0.447715 1 1 1h11c0.5523 0 1 -0.44772 1 -1v-3c0 -0.552285 -0.4477 -1 -1 -1Z" stroke-width="1"></path>
    <path id="Vector_2" stroke="#000000" stroke-linecap="round" stroke-linejoin="round" d="M7.5 3H11" stroke-width="1"></path>
    <path id="Vector_3" stroke="#000000" stroke-linecap="round" stroke-linejoin="round" d="M1.5 5.5c-0.26522 0 -0.51957 0.10536 -0.707107 0.29289C0.605357 5.98043 0.5 6.23478 0.5 6.5v3c0 0.26522 0.105357 0.5196 0.292893 0.7071 0.187537 0.1875 0.441887 0.2929 0.707107 0.2929h11c0.2652 0 0.5196 -0.1054 0.7071 -0.2929S13.5 9.76522 13.5 9.5v-3c0 -0.26522 -0.1054 -0.51957 -0.2929 -0.70711C13.0196 5.60536 12.7652 5.5 12.5 5.5" stroke-width="1"></path>
    <g id="Group 623">
      <path id="Vector_4" stroke="#000000" stroke-linecap="round" stroke-linejoin="round" d="M3.25 8.25C3.11193 8.25 3 8.13807 3 8s0.11193 -0.25 0.25 -0.25" stroke-width="1"></path>
      <path id="Vector_5" stroke="#000000" stroke-linecap="round" stroke-linejoin="round" d="M3.25 8.25c0.13807 0 0.25 -0.11193 0.25 -0.25s-0.11193 -0.25 -0.25 -0.25" stroke-width="1"></path>
    </g>
    <g id="Group 627">
      <path id="Vector_6" stroke="#000000" stroke-linecap="round" stroke-linejoin="round" d="M3.25 3.25C3.11193 3.25 3 3.13807 3 3s0.11193 -0.25 0.25 -0.25" stroke-width="1"></path>
      <path id="Vector_7" stroke="#000000" stroke-linecap="round" stroke-linejoin="round" d="M3.25 3.25c0.13807 0 0.25 -0.11193 0.25 -0.25s-0.11193 -0.25 -0.25 -0.25" stroke-width="1"></path>
    </g>
    <path id="Vector_8" stroke="#000000" stroke-linecap="round" stroke-linejoin="round" d="M7.5 8H11" stroke-width="1"></path>
    <path id="Vector_9" stroke="#000000" stroke-linecap="round" stroke-linejoin="round" d="M7 10.5v3" stroke-width="1"></path>
    <path id="Vector_10" stroke="#000000" stroke-linecap="round" stroke-linejoin="round" d="M2 13.5h10" stroke-width="1"></path>
  </g>
</svg>