<svg xmlns="http://www.w3.org/2000/svg" fill="none" viewBox="0 0 14 14" id="Desktop-Chat--Streamline-Core">
  <desc>
    Desktop Chat Streamline Icon: https://streamlinehq.com
  </desc>
  <g id="desktop-chat--bubble-chat-customer-service-conversation-display-device">
    <path id="Vector" stroke="#000000" stroke-linecap="round" stroke-linejoin="round" d="M13.5 8v2.5c0 0.1326 -0.0527 0.2598 -0.1464 0.3536 -0.0938 0.0937 -0.221 0.1464 -0.3536 0.1464H1c-0.132608 0 -0.259785 -0.0527 -0.353553 -0.1464C0.552678 10.7598 0.5 10.6326 0.5 10.5v-8c0 -0.13261 0.052678 -0.25979 0.146447 -0.35355C0.740215 2.05268 0.867392 2 1 2h2" stroke-width="1"></path>
    <path id="Vector_2" stroke="#000000" stroke-linecap="round" stroke-linejoin="round" d="m6 11 -1 2.5" stroke-width="1"></path>
    <path id="Vector_3" stroke="#000000" stroke-linecap="round" stroke-linejoin="round" d="m8 11 1 2.5" stroke-width="1"></path>
    <path id="Vector_4" stroke="#000000" stroke-linecap="round" stroke-linejoin="round" d="M4 13.5h6" stroke-width="1"></path>
    <path id="Vector_5" stroke="#000000" stroke-linecap="round" stroke-linejoin="round" d="M5.5 5.5h3v2l3 -2h2v-5h-8v5Z" stroke-width="1"></path>
  </g>
</svg>