<svg xmlns="http://www.w3.org/2000/svg" fill="none" viewBox="0 0 14 14" id="Desktop-Emoji--Streamline-Core">
  <desc>
    Desktop Emoji Streamline Icon: https://streamlinehq.com
  </desc>
  <g id="desktop-emoji--device-display-desktop-padlock-smiley">
    <path id="Vector" stroke="#000000" stroke-linecap="round" stroke-linejoin="round" d="M13.5 10.5v-8c0 -0.27614 -0.2239 -0.5 -0.5 -0.5H1c-0.265216 0 -0.5 0.23478 -0.5 0.5v8c0 0.2652 0.234784 0.5 0.5 0.5h12c0.2652 0 0.5 -0.2348 0.5 -0.5Z" stroke-width="1"></path>
    <path id="Vector_2" stroke="#000000" stroke-linecap="round" stroke-linejoin="round" d="m6 11 -1 2.5" stroke-width="1"></path>
    <path id="Vector_3" stroke="#000000" stroke-linecap="round" stroke-linejoin="round" d="m8 11 1 2.5" stroke-width="1"></path>
    <path id="Vector_4" stroke="#000000" stroke-linecap="round" stroke-linejoin="round" d="M4 13.5h6" stroke-width="1"></path>
    <path id="Vector 500" stroke="#000000" stroke-linecap="round" stroke-linejoin="round" d="M4.55682 7.57131c0.47634 0.48447 1.31765 0.92857 2.44318 0.92857s1.96684 -0.4441 2.44318 -0.92857" stroke-width="1"></path>
    <g id="Group 99">
      <path id="Ellipse 81" stroke="#000000" stroke-linecap="round" stroke-linejoin="round" d="M5.25022 5.00044C5.11203 5.00044 5 4.88841 5 4.75022 5 4.61203 5.11203 4.5 5.25022 4.5" stroke-width="1"></path>
      <path id="Ellipse 82" stroke="#000000" stroke-linecap="round" stroke-linejoin="round" d="M5.24988 5.00044c0.13819 0 0.25022 -0.11203 0.25022 -0.25022 0 -0.13819 -0.11203 -0.25022 -0.25022 -0.25022" stroke-width="1"></path>
    </g>
    <g id="Group 100">
      <path id="Ellipse 81_2" stroke="#000000" stroke-linecap="round" stroke-linejoin="round" d="M8.75 5c-0.13807 0 -0.25 -0.11193 -0.25 -0.25s0.11193 -0.25 0.25 -0.25" stroke-width="1"></path>
      <path id="Ellipse 82_2" stroke="#000000" stroke-linecap="round" stroke-linejoin="round" d="M8.74966 5c0.13808 0 0.25001 -0.11193 0.25001 -0.25s-0.11193 -0.25 -0.25001 -0.25" stroke-width="1"></path>
    </g>
  </g>
</svg>