<svg xmlns="http://www.w3.org/2000/svg" fill="none" viewBox="0 0 14 14" id="Figma--Streamline-Core">
  <desc>
    Figma Streamline Icon: https://streamlinehq.com
  </desc>
  <g id="figma">
    <path id="Rectangle 5" stroke="#000000" stroke-linecap="round" stroke-linejoin="round" d="M2.53552 2.75883C2.53552 1.64939 3.43491 0.75 4.54436 0.75H6.9996v4.01767H4.54436c-1.10945 0 -2.00884 -0.89939 -2.00884 -2.00884Z" stroke-width="1"></path>
    <path id="Rectangle 8" stroke="#000000" stroke-linecap="round" stroke-linejoin="round" d="M11.4644 2.75883C11.4644 1.64939 10.5651 0.75 9.45561 0.75H7.00037v4.01767h2.45524c1.10949 0 2.00879 -0.89939 2.00879 -2.00884Z" stroke-width="1"></path>
    <path id="Rectangle 9" stroke="#000000" stroke-linecap="round" stroke-linejoin="round" d="M11.4637 6.99937c0 -1.23272 -0.9993 -2.23204 -2.23203 -2.23204 -1.23272 0 -2.23204 0.99932 -2.23204 2.23204s0.99932 2.23204 2.23204 2.23204c1.23273 0 2.23203 -0.99932 2.23203 -2.23204Z" stroke-width="1"></path>
    <path id="Rectangle 6" stroke="#000000" stroke-linecap="round" stroke-linejoin="round" d="M2.53552 11.2413c0 -1.1095 0.89939 -2.00888 2.00884 -2.00888H6.9996v1.78568c0 1.2327 -0.99932 2.232 -2.23204 2.232h-0.2232c-1.10945 0 -2.00884 -0.8994 -2.00884 -2.0088Z" stroke-width="1"></path>
    <path id="Rectangle 7" stroke="#000000" stroke-linecap="round" stroke-linejoin="round" d="M2.53552 6.99962c0 -1.23272 0.99932 -2.23204 2.23204 -2.23204H6.9996v4.46407H4.76756c-1.23272 0 -2.23204 -0.99931 -2.23204 -2.23203Z" stroke-width="1"></path>
  </g>
</svg>