<svg xmlns="http://www.w3.org/2000/svg" fill="none" viewBox="0 0 14 14" id="Hard-Disk--Streamline-Core">
  <desc>
    Hard Disk Streamline Icon: https://streamlinehq.com
  </desc>
  <g id="hard-disk--device-disc-drive-disk-electronics-platter-turntable-raid-storage">
    <path id="Vector" stroke="#000000" stroke-linecap="round" stroke-linejoin="round" d="M11.5 0.5h-9c-0.55228 0 -1 0.447715 -1 1v11c0 0.5523 0.44772 1 1 1h9c0.5523 0 1 -0.4477 1 -1v-11c0 -0.552285 -0.4477 -1 -1 -1Z" stroke-width="1"></path>
    <path id="Vector_2" stroke="#000000" stroke-linecap="round" stroke-linejoin="round" d="m4.5 10.5 1.75 -2.75" stroke-width="1"></path>
    <path id="Vector_3" stroke="#000000" stroke-linecap="round" stroke-linejoin="round" d="M4.09 7.0001c-0.22705 -0.5877 -0.25861 -1.23294 -0.09 -1.84 0.13734 -0.45383 0.38029 -0.86864 0.70894 -1.21042 0.32864 -0.34178 0.73362 -0.60079 1.18172 -0.75579 0.4481 -0.15501 0.92657 -0.20159 1.39615 -0.13594 0.46959 0.06566 0.91692 0.24169 1.30532 0.51365 0.38841 0.27197 0.70681 0.63213 0.92912 1.05094 0.2223 0.41881 0.34216 0.88435 0.34976 1.35844 0.0076 0.47409 -0.09729 0.94324 -0.30606 1.36896 -0.20876 0.42572 -0.51546 0.79589 -0.89495 1.08016" stroke-width="1"></path>
    <path id="Vector_4" stroke="#000000" stroke-linecap="round" stroke-linejoin="round" d="M7.5 11H10" stroke-width="1"></path>
  </g>
</svg>