<svg xmlns="http://www.w3.org/2000/svg" fill="none" viewBox="0 0 14 14" id="Signal-Loading--Streamline-Core">
  <desc>
    Signal Loading Streamline Icon: https://streamlinehq.com
  </desc>
  <g id="signal-loading--bracket-loading-internet-angle-signal-server-network-connecting-connection">
    <path id="Vector" stroke="#000000" stroke-linecap="round" stroke-linejoin="round" d="M3 9.5 0.5 7 3 4.5" stroke-width="1"></path>
    <path id="Vector_2" stroke="#000000" stroke-linecap="round" stroke-linejoin="round" d="M11 9.5 13.5 7 11 4.5" stroke-width="1"></path>
    <g id="Group 627">
      <path id="Vector_3" stroke="#000000" stroke-linecap="round" stroke-linejoin="round" d="M7 7.25c-0.13807 0 -0.25 -0.11193 -0.25 -0.25s0.11193 -0.25 0.25 -0.25" stroke-width="1"></path>
      <path id="Vector_4" stroke="#000000" stroke-linecap="round" stroke-linejoin="round" d="M7 7.25c0.13807 0 0.25 -0.11193 0.25 -0.25s-0.11193 -0.25 -0.25 -0.25" stroke-width="1"></path>
    </g>
    <g id="Group 4544">
      <path id="Vector_5" stroke="#000000" stroke-linecap="round" stroke-linejoin="round" d="M9.5 7.25c-0.13807 0 -0.25 -0.11193 -0.25 -0.25s0.11193 -0.25 0.25 -0.25" stroke-width="1"></path>
      <path id="Vector_6" stroke="#000000" stroke-linecap="round" stroke-linejoin="round" d="M9.5 7.25c0.13807 0 0.25 -0.11193 0.25 -0.25s-0.11193 -0.25 -0.25 -0.25" stroke-width="1"></path>
    </g>
    <g id="Group 4543">
      <path id="Vector_7" stroke="#000000" stroke-linecap="round" stroke-linejoin="round" d="M4.5 7.25c-0.13807 0 -0.25 -0.11193 -0.25 -0.25s0.11193 -0.25 0.25 -0.25" stroke-width="1"></path>
      <path id="Vector_8" stroke="#000000" stroke-linecap="round" stroke-linejoin="round" d="M4.5 7.25c0.13807 0 0.25 -0.11193 0.25 -0.25s-0.11193 -0.25 -0.25 -0.25" stroke-width="1"></path>
    </g>
  </g>
</svg>