<svg xmlns="http://www.w3.org/2000/svg" fill="none" viewBox="0 0 14 14" id="Webcam-Video-Circle--Streamline-Core">
  <desc>
    Webcam Video Circle Streamline Icon: https://streamlinehq.com
  </desc>
  <g id="webcam-video-circle--work-video-meeting-camera-company-conference-office">
    <path id="Vector" stroke="#000000" stroke-linecap="round" stroke-linejoin="round" d="M7 13.5c3.5899 0 6.5 -2.9101 6.5 -6.5C13.5 3.41015 10.5899 0.5 7 0.5 3.41015 0.5 0.5 3.41015 0.5 7c0 3.5899 2.91015 6.5 6.5 6.5Z" stroke-width="1"></path>
    <path id="Vector_2" stroke="#000000" stroke-linecap="round" stroke-linejoin="round" d="m10.1348 5.24945 -1.51894 0.67327v-0.80793c0 -0.14285 -0.05675 -0.27985 -0.15776 -0.38086 -0.10101 -0.10101 -0.23801 -0.15776 -0.38086 -0.15776H4.03758c-0.14285 0 -0.27985 0.05675 -0.38086 0.15776 -0.10101 0.10101 -0.15776 0.23801 -0.15776 0.38086v3.77035c0 0.14285 0.05675 0.27985 0.15776 0.38086 0.10101 0.10101 0.23801 0.15776 0.38086 0.15776h4.03966c0.14285 0 0.27985 -0.05675 0.38086 -0.15776 0.10101 -0.10101 0.15776 -0.23801 0.15776 -0.38086v-0.80793l1.51894 0.67327c0.0409 0.0158 0.0851 0.02136 0.1287 0.01618 0.0436 -0.00518 0.0852 -0.02093 0.1214 -0.04589 0.0361 -0.02495 0.0655 -0.05836 0.0858 -0.0973 0.0202 -0.03895 0.0306 -0.08225 0.0303 -0.12614V5.5026c0.0003 -0.04389 -0.0101 -0.0872 -0.0303 -0.12614 -0.0203 -0.03894 -0.0497 -0.07235 -0.0858 -0.0973 -0.0362 -0.02496 -0.0778 -0.04071 -0.1214 -0.04589 -0.0436 -0.00518 -0.0878 0.00038 -0.1287 0.01618Z" stroke-width="1"></path>
  </g>
</svg>