<svg xmlns="http://www.w3.org/2000/svg" fill="none" viewBox="0 0 14 14"><g id="whatsapp"><path id="Vector" stroke="#3e3e3e" stroke-linecap="round" stroke-linejoin="round" d="M7 .88C3.665.88.88 3.67.88 7.002a6.14 6.14 0 0 0 1.025 3.39L.877 13.127l3.439-.622A6.13 6.13 0 0 0 7 13.121c3.338.002 6.127-2.784 6.127-6.118 0-3.33-2.79-6.126-6.127-6.124Z"></path><path id="Vector 596" stroke="#3e3e3e" stroke-linecap="round" stroke-linejoin="round" d="M7.337 9.7c.829.531 1.692.144 2.294-.305.415-.31.402-.907.047-1.285l-.7-.745c-.265.265-.783.397-1.142.287-.773-.235-1.097-.637-1.36-1.047-.301-.47.04-1.172.305-1.437l-.78-.712c-.329-.3-.828-.35-1.115-.01-.568.673-.92 1.696-.503 2.347.75 1.169 1.785 2.156 2.954 2.906Z"></path></g></svg>