<svg xmlns="http://www.w3.org/2000/svg" fill="none" viewBox="0 0 24 24" id="Cupcake--Streamline-Sharp">
  <desc>
    Cupcake Streamline Icon: https://streamlinehq.com
  </desc>
  <g id="cupcake--cupcake-bakery-sweet-dessert-food">
    <path id="Vector 3754" stroke="#000000" d="M3.54028 12.7549 5 21.9998h14l1.4584 -9.2367" stroke-width="1.5"></path>
    <path id="Vector 3755" stroke="#000000" d="m9.50001 21.9999 -0.84815 -8.0575" stroke-width="1.5"></path>
    <path id="Vector 3756" stroke="#000000" d="m14.4999 22 0.8421 -8" stroke-width="1.5"></path>
    <path id="Union" stroke="#000000" d="M6.95185 12.4145c-0.52465 0.4499 -1.20651 0.7217 -1.95185 0.7217 -1.65685 0 -3 -1.3431 -3 -3 0 -1.65682 1.34315 -2.99997 3 -2.99997 0.04138 0 0.08256 0.00084 0.12353 0.0025C5.80543 3.96768 8.62514 1.59082 12 1.59082c3.3749 0 6.1946 2.37686 6.8765 5.54791 0.0409 -0.00166 0.0821 -0.0025 0.1235 -0.0025 1.6569 0 3 1.34315 3 2.99997 0 1.6569 -1.3431 3 -3 3 -0.7453 0 -1.4272 -0.2718 -1.9519 -0.7217 -0.4799 1.0176 -1.5151 1.7217 -2.7148 1.7217 -0.9424 0 -1.7833 -0.4345 -2.3333 -1.1142 -0.55 0.6797 -1.3909 1.1142 -2.33334 1.1142 -1.19966 0 -2.23485 -0.7041 -2.71481 -1.7217Z" stroke-width="1.5"></path>
  </g>
</svg>