<svg xmlns="http://www.w3.org/2000/svg" fill="none" viewBox="0 0 24 24" id="Drum-Stick--Streamline-Sharp">
  <desc>
    Drum Stick Streamline Icon: https://streamlinehq.com
  </desc>
  <g id="drum-stick--cook-animal-drumsticks-products-chicken-cooking-nutrition-food">
    <path id="Union" stroke="#000000" d="m12.7322 15.2324 2.5 2.5c-0.4524 0.4524 -0.7323 1.0774 -0.7323 1.7678 0 1.3807 1.1193 2.5 2.5 2.5 1.3808 0 2.5 -1.1193 2.5 -2.5 1.3808 0 2.5 -1.1193 2.5 -2.5s-1.1192 -2.5 -2.5 -2.5c-0.6903 0 -1.3153 0.2798 -1.7677 0.7322l-2.5 -2.5" stroke-width="1.5"></path>
    <path id="Vector 2465" stroke="#000000" d="m7 16 -3.5 -3.5c-2.48528 -2.4853 -2.48528 -6.51472 0 -9 2.48528 -2.48528 6.5147 -2.48528 9 0L16 7l-0.5 6 -2.5 2.5 -6 0.5Z" stroke-width="1.5"></path>
  </g>
</svg>