<svg xmlns="http://www.w3.org/2000/svg" fill="none" viewBox="0 0 14 14"><g id="checkup-medical-report-clipboard"><path id="vector" stroke="#3e3e3e" stroke-linecap="round" stroke-linejoin="round" d="M9.5 1.5H11a1 1 0 0 1 1 1v10a1 1 0 0 1-1 1H3a1 1 0 0 1-1-1v-10a1 1 0 0 1 1-1h1.5"></path><path id="vector_2" stroke="#3e3e3e" stroke-linecap="round" stroke-linejoin="round" d="M8.5.5h-3a1 1 0 0 0-1 1V2a1 1 0 0 0 1 1h3a1 1 0 0 0 1-1v-.5a1 1 0 0 0-1-1Z"></path><path id="union" stroke="#3e3e3e" stroke-linecap="round" stroke-linejoin="round" d="M6.303 5.21a.43.43 0 0 0-.43.43v1.207H4.666a.43.43 0 0 0-.43.43v1.395c0 .237.193.43.43.43h1.207v1.207c0 .237.193.43.43.43h1.395a.43.43 0 0 0 .43-.43V9.1h1.207a.43.43 0 0 0 .43-.43V7.277a.43.43 0 0 0-.43-.429H8.128V5.639a.43.43 0 0 0-.43-.429H6.303Z"></path></g></svg>