<svg xmlns="http://www.w3.org/2000/svg" viewBox="0 0 14 14">
  <path d="M13.25,6.25H10.31a.27.27,0,0,1-.19-.08.25.25,0,0,1-.06-.2A6.13,6.13,0,0,1,12.63,1.4a.75.75,0,0,0,.27-1,.76.76,0,0,0-1-.27A7.72,7.72,0,0,0,8.55,6a.25.25,0,0,1-.25.23H5.7A.25.25,0,0,1,5.45,6,7.72,7.72,0,0,0,2.13.1a.75.75,0,0,0-.76,1.3A6.18,6.18,0,0,1,3.94,6a.25.25,0,0,1-.06.2.27.27,0,0,1-.19.08H.75a.75.75,0,0,0,0,1.5H3.69a.27.27,0,0,1,.19.08.25.25,0,0,1,.06.2A6.13,6.13,0,0,1,1.37,12.6a.75.75,0,0,0,.76,1.3A7.72,7.72,0,0,0,5.45,8a.25.25,0,0,1,.25-.23H8.3A.25.25,0,0,1,8.55,8a7.72,7.72,0,0,0,3.32,5.92.75.75,0,1,0,.76-1.3A6.18,6.18,0,0,1,10.06,8a.25.25,0,0,1,.06-.2.27.27,0,0,1,.19-.08h2.94a.75.75,0,0,0,0-1.5Z" style="fill: #000001"/>
</svg>
