<svg xmlns="http://www.w3.org/2000/svg" viewBox="0 0 14 14">
  <path d="M13.25,9.38a.75.75,0,0,0-.75.75v1a1,1,0,1,1-2,0V10.9a.24.24,0,0,1,.07-.18L13.14,8a2.75,2.75,0,0,0-2-4.63h-.39a.26.26,0,0,1-.25-.24A3,3,0,0,0,5.42,1.21a.25.25,0,0,1-.34,0A3,3,0,0,0,0,3.38v6.75a.76.76,0,0,0,.75.75.76.76,0,0,0,.75-.75V3.38a1.5,1.5,0,0,1,3,0v6.75a.75.75,0,0,0,1.5,0V3.38a1.5,1.5,0,1,1,3,0V10.1a.23.23,0,0,1-.07.17L7,12.36a.75.75,0,0,0,.54,1.27A.71.71,0,0,0,8,13.39l.94-1a.25.25,0,0,1,.4,0A2.49,2.49,0,0,0,14,11.13v-1A.75.75,0,0,0,13.25,9.38ZM10.5,5.13a.25.25,0,0,1,.25-.25h.38A1.25,1.25,0,0,1,12.05,7L10.93,8.16A.25.25,0,0,1,10.5,8Z" style="fill: #000001"/>
</svg>
