<svg xmlns="http://www.w3.org/2000/svg" viewBox="0 0 14 14">
  <g>
    <path d="M2.89,8.76a.26.26,0,0,0-.22-.07.23.23,0,0,0-.18.12L.16,10.92a.59.59,0,0,0-.07.6C.71,12.9,3.37,14,4.56,14A.49.49,0,0,0,5,13.62l.63-3a.25.25,0,0,0-.17-.3A5.66,5.66,0,0,1,2.89,8.76Z" style="fill: #000001"/>
    <path d="M11.11,8.76a.26.26,0,0,1,.22-.07.23.23,0,0,1,.18.12l2.33,2.11a.59.59,0,0,1,.07.6C13.29,12.9,10.63,14,9.44,14A.49.49,0,0,1,9,13.62l-.63-3a.25.25,0,0,1,.17-.3A5.66,5.66,0,0,0,11.11,8.76Z" style="fill: #000001"/>
    <path d="M7,0a4.75,4.75,0,1,0,4.75,4.75A4.75,4.75,0,0,0,7,0ZM7,6.75a2,2,0,1,1,2-2A2,2,0,0,1,7,6.75Z" style="fill: #000001"/>
  </g>
</svg>
