<svg xmlns="http://www.w3.org/2000/svg" fill="none" viewBox="0 0 48 48" id="Pacman--Streamline-Plump">
  <desc>
    Pacman Streamline Icon: https://streamlinehq.com
  </desc>
  <g id="pacman--entertainment-gaming-pacman-video">
    <path id="Subtract" fill="#7af1ff" d="M26.2705 45.5006c-11.8844 0 -21.51855 -9.626 -21.51855 -21.5003S14.3861 2.5 26.2705 2.5c6.5581 0 12.431 2.93123 16.3778 7.554 1.0525 1.2326 0.6409 3.0635 -0.725 3.937l-13.722 8.7746c-0.9017 0.5766 -0.9017 1.8928 0 2.4694l13.722 8.7746c1.3659 0.8735 1.7775 2.7044 0.725 3.937 -3.9468 4.6228 -9.8197 7.554 -16.3778 7.554Z" stroke-width="1"></path>
    <path id="Union" fill="#0c098c" fill-rule="evenodd" d="M6.75195 24.0003C6.75195 13.2322 15.4891 4.5 26.2705 4.5c5.9487 0 11.2739 2.65619 14.8568 6.8526l1.521 -1.2986 -1.521 1.2986c0.1005 0.1177 0.1359 0.2516 0.1031 0.4179 -0.036 0.1831 -0.1591 0.3914 -0.3846 0.5355l-13.7219 8.7746c-2.1318 1.3632 -2.1318 4.4762 0 5.8394l13.7219 8.7746c0.2255 0.1441 0.3486 0.3524 0.3847 0.5355 0.0327 0.1663 -0.0027 0.3002 -0.1032 0.4179 -3.5829 4.1964 -8.9081 6.8526 -14.8568 6.8526 -10.7814 0 -19.51855 -8.7322 -19.51855 -19.5003ZM26.2705 0.5C13.2831 0.5 2.75195 11.0198 2.75195 24.0003S13.2831 47.5006 26.2705 47.5006c7.1675 0 13.588 -3.2063 17.8989 -8.2553 1.9619 -2.2979 1.0559 -5.4981 -1.1686 -6.9206l-13.0179 -8.3244 13.0179 -8.3244c2.2245 -1.4224 3.1305 -4.6227 1.1686 -6.9206C39.8585 3.70627 33.438 0.5 26.2705 0.5Zm-3.4229 15.684c1.3507 0 2.4456 -1.094 2.4456 -2.4435 0 -1.3496 -1.0949 -2.4436 -2.4456 -2.4436 -1.3507 0 -2.4457 1.094 -2.4457 2.4436 0 1.3495 1.095 2.4435 2.4457 2.4435Z" clip-rule="evenodd" stroke-width="1"></path>
  </g>
</svg>