<svg xmlns="http://www.w3.org/2000/svg" fill="none" viewBox="0 0 14 14" id="Tape-Cassette-Record--Streamline-Flex">
  <desc>
    Tape Cassette Record Streamline Icon: https://streamlinehq.com
  </desc>
  <g id="tape-cassette-record--music-entertainment-tape-cassette-record">
    <path id="Intersect" stroke="#000000" stroke-linecap="round" stroke-linejoin="round" d="M7 12.5437c-1.51685 0 -2.99287 -0.1213 -4.41353 -0.2831 -0.82074 -0.0935 -1.50032 -0.6948 -1.620381 -1.512C0.818194 9.7418 0.75 8.63443 0.75 7.40361c0 -1.23081 0.068193 -2.33812 0.216085 -3.34485 0.120065 -0.81727 0.799645 -1.41858 1.620385 -1.51205C4.00713 2.3849 5.48315 2.26367 7 2.26367c1.51686 0 2.99287 0.12123 4.4135 0.28304 0.8208 0.09347 1.5004 0.69478 1.6204 1.51205 0.1479 1.00673 0.2161 2.11404 0.2161 3.34485 0 1.23082 -0.0682 2.33819 -0.2161 3.34499 -0.12 0.8172 -0.7996 1.4185 -1.6204 1.512 -1.42063 0.1618 -2.89664 0.2831 -4.4135 0.2831Z" stroke-width="1"></path>
    <path id="Vector 1164" stroke="#000000" stroke-linecap="round" stroke-linejoin="round" d="m4.08594 12.414 0.42187 -1.8125c1.91516 -0.3336 3.00741 -0.3297 4.98438 0l0.33593 1.8125" stroke-width="1"></path>
    <path id="Vector 588" stroke="#000000" stroke-linecap="round" stroke-linejoin="round" d="M4.24902 7.78638c1.47626 0.47994 4.02479 0.47984 5.51749 0" stroke-width="1"></path>
    <path id="Vector 1165" stroke="#000000" stroke-linecap="round" stroke-linejoin="round" d="M4.1582 5.27029c1.49012 -0.52063 4.19135 -0.52046 5.6995 0" stroke-width="1"></path>
    <path id="Vector" stroke="#000000" stroke-linecap="round" stroke-linejoin="round" d="M4.24897 7.77017c0.79997 0 1.24996 -0.44999 1.24996 -1.24996 0 -0.79996 -0.44999 -1.24995 -1.24996 -1.24995 -0.79996 0 -1.24995 0.44999 -1.24995 1.24995 0 0.79997 0.44999 1.24996 1.24995 1.24996Z" stroke-width="1"></path>
    <path id="Vector_2" stroke="#000000" stroke-linecap="round" stroke-linejoin="round" d="M9.74995 7.77017c0.79995 0 1.24995 -0.44999 1.24995 -1.24996 0 -0.79996 -0.45 -1.24995 -1.24995 -1.24995 -0.79997 0 -1.24995 0.44999 -1.24995 1.24995 0 0.79997 0.44998 1.24996 1.24995 1.24996Z" stroke-width="1"></path>
  </g>
</svg>