<svg xmlns="http://www.w3.org/2000/svg" fill="none" viewBox="0 0 24 24" id="Cellular-Network-5g--Streamline-Sharp-Gradient-Free">
  <desc>
    Cellular Network 5g Streamline Icon: https://streamlinehq.com
  </desc>
  <g id="Gradient/Phone/cellular-network-5g">
    <path id="Union" fill="url(#paint0_linear_628_19134)" fill-rule="evenodd" d="m2.94927 4.08601-.76256.64692 1.29383 1.52511.76256-.64691c.66889-.56745 1.39759-1.0652 2.17527-1.48359 1.72097-.92588 3.63413-1.43749 5.58723-1.49433 1.955.05754 3.8695.57146 5.5906 1.50088.7722.41697 1.4958.91236 2.1602 1.47665l.7621.64737 1.2948-1.52434-.7622-.64738c-.7703-.65426-1.6093-1.22865-2.5046-1.71211C16.5417 1.29168 14.3106.695293 12.033.633184c-.018-.000492-.0361-.000495-.0542-.000009-2.27492.06129-4.50385.654855-6.508 1.733085-.90147.48499-1.74618 1.06197-2.52153 1.71975Zm3.39034 3.99037.81547-.5788C8.61899 6.45852 10.2706 5.86141 11.979 5.77942c.031-.00148.062-.00153.0929-.00014 1.7127.07713 3.3693.67202 4.8378 1.71139l.8162.57771-1.1554 1.63248-.8163-.57772c-1.1664-.82556-2.4409-1.2765-3.7258-1.34362-1.2818.07076-2.55269.5235-3.71572 1.34899l-.81547.5788-1.1576-1.63093Zm3.84119 6.34232H6.20842l-.33726 1.6863h3.17823c1.38071 0 2.50001 1.1193 2.50001 2.5v2.161c0 1.381-1.1195 2.4998-2.50001 2.4998H6.15136c-1.38071 0-2.5-1.1193-2.5-2.5v-.7118h2v.7118c0 .2761.22386.5.5.5h2.89803c.27639 0 .5-.2239.5-.4998v-2.161c0-.2762-.22386-.5-.5-.5H3.43156l.23922-1.1961.73725-3.6863.16078-.8039h6.61199v2h-1Zm5.0951.5c0-.2761.2238-.5.5-.5l2.898 0c.2762 0 .5.2239.5.5v.7118h2v-.7118c0-1.3807-1.1193-2.5-2.5-2.5l-2.898 0c-1.3807 0-2.5 1.1193-2.5 2.5v5.8471c0 1.3807 1.1193 2.5 2.5 2.5h2.898c1.3807 0 2.5-1.1193 2.5-2.5v-3.1863h-3.2117v2h1.2117v1.1863c0 .2761-.2238.5-.5.5h-2.898c-.2762 0-.5-.2239-.5-.5v-5.8471Z" clip-rule="evenodd"></path>
  </g>
  <defs>
    <linearGradient id="paint0_linear_628_19134" x1="21.747" x2="-2.969" y1="23.27" y2="11.214" gradientUnits="userSpaceOnUse">
      <stop stop-color="#ff51e3"></stop>
      <stop offset="1" stop-color="#1b4dff"></stop>
    </linearGradient>
  </defs>
</svg>