<svg xmlns="http://www.w3.org/2000/svg" fill="none" viewBox="0 0 48 48" id="Microphone-2--Streamline-Kameleon">
  <desc>
    Microphone 2 Streamline Icon: https://streamlinehq.com
  </desc>
  <path fill="#32bea6" d="M24 47.9977c13.255 0 24 -10.7445 24 -23.9988C48 10.7445 37.255 0 24 0S0 10.7445 0 23.9989c0 13.2543 10.745 23.9988 24 23.9988Z" stroke-width="1"></path>
  <path fill="#818284" d="M17.5369 19.6353h-0.0061c0.2537 0.6284 0.5978 1.2165 1.0213 1.7457h0.0091c-0.4248 -0.5288 -0.7699 -1.1169 -1.0243 -1.7457Z" stroke-width="1"></path>
  <path fill="#e2e4e5" d="M27.0544 25.7441h-6.1091l1.0948 8.7574c0.0593 0.4734 0.2893 0.9089 0.6469 1.2247 0.3577 0.3157 0.8183 0.49 1.2954 0.4902h0.0349c0.4771 -0.0002 0.9377 -0.1745 1.2954 -0.4902 0.3576 -0.3158 0.5876 -0.7513 0.6469 -1.2247l1.0948 -8.7574Z" stroke-width="1"></path>
  <path fill="#ffffff" d="M23.9999 25.7441h-3.0546l1.0909 8.7269h1.9637" stroke-width="1"></path>
  <path fill="#3e3e3f" d="M23.9997 37.9616c-0.1157 0 -0.2267 -0.0459 -0.3085 -0.1278 -0.0818 -0.0818 -0.1277 -0.1928 -0.1277 -0.3085v-2.1817c0 -0.1158 0.0459 -0.2267 0.1277 -0.3086 0.0818 -0.0818 0.1928 -0.1278 0.3085 -0.1278 0.1156 0 0.2266 0.046 0.3084 0.1278 0.0818 0.0819 0.1277 0.1928 0.1277 0.3086v2.1817c0 0.1157 -0.0459 0.2267 -0.1277 0.3085 -0.0818 0.0819 -0.1928 0.1278 -0.3084 0.1278Z" stroke-width="1"></path>
  <path fill="#cfd3d4" d="M22.0361 34.4712c0.1322 1.0567 0.9953 1.7452 1.946 1.7452 1.0603 0 1.8566 -0.7487 1.9809 -1.7452h-3.9269Z" stroke-width="1"></path>
  <path fill="#3e3e3f" d="M23.9999 23.9986c3.8561 0 6.9818 -3.1255 6.9818 -6.9815 0 -3.8559 -3.1257 -6.9815 -6.9818 -6.9815 -3.8562 0 -6.9818 3.1256 -6.9818 6.9815 0 3.856 3.1256 6.9815 6.9818 6.9815Z" stroke-width="1"></path>
  <path fill="#cfd3d4" d="m20.6182 23.1337 0.3264 2.6106h6.1091l0.3272 -2.6198 -6.7627 0.0092Z" stroke-width="1"></path>
  <path fill="#cfd3d4" d="M18.5607 21.3806h10.8908c0.4246 -0.5287 0.7696 -1.1168 1.0241 -1.7453H17.5361c0.2548 0.6285 0.6 1.2165 1.0246 1.7453Z" stroke-width="1"></path>
  <path fill="#e2e4e5" d="M20.6352 23.1337h-0.017l0.3263 2.6099h3.0551v-2.6152l-3.3644 0.0053Z" stroke-width="1"></path>
  <path fill="#ffffff" d="M18.5608 21.3806H24v-1.7453h-6.4634c0.2545 0.6285 0.5995 1.2166 1.0242 1.7453Z" stroke-width="1"></path>
  <path fill="#3e3e3f" d="M24.5449 31.3074c0 0.1446 -0.0574 0.2833 -0.1596 0.3856 -0.1023 0.1023 -0.241 0.1597 -0.3855 0.1597 -0.1446 0 -0.2833 -0.0574 -0.3855 -0.1597 -0.1023 -0.1023 -0.1597 -0.241 -0.1597 -0.3856v-3.2723c0 -0.1446 0.0574 -0.2833 0.1597 -0.3856 0.1022 -0.1023 0.2409 -0.1598 0.3855 -0.1598 0.1445 0 0.2832 0.0575 0.3855 0.1598 0.1022 0.1023 0.1596 0.241 0.1596 0.3856v3.2723Z" stroke-width="1"></path>
  <path fill="#fa5655" d="M24.5453 29.6719v-1.6366c0 -0.1447 -0.0575 -0.2835 -0.1598 -0.3858 -0.1022 -0.1023 -0.2409 -0.1598 -0.3856 -0.1598 -0.1446 0 -0.2833 0.0575 -0.3856 0.1598s-0.1597 0.2411 -0.1597 0.3858v1.6366h1.0907Z" stroke-width="1"></path>
  <path fill="#5b5c5f" d="M23.9999 19.6352v-9.5996c-3.8557 0 -6.9818 3.126 -6.9818 6.9815 0 0.9268 0.1841 1.8091 0.5118 2.6181h6.47Z" stroke-width="1"></path>
  <path fill="#5b5c5f" d="M18.5518 21.3809c0.5734 0.7146 1.2811 1.3102 2.0832 1.7532l3.3652 -0.0052v-1.748h-5.4484Z" stroke-width="1"></path>
  <path fill="#e2e4e5" d="m22.0361 34.4712 0.004 0.0305c0.0592 0.4735 0.2893 0.9091 0.647 1.2249 0.3577 0.3158 0.8184 0.4902 1.2956 0.4903h0.0175v-1.7457h-1.9641Z" stroke-width="1"></path>
  <path fill="#b6bcbd" d="M18.7643 17.5637c0.1448 0 0.2837 -0.0576 0.3861 -0.16 0.1024 -0.1025 0.1599 -0.2414 0.1599 -0.3863 0 -0.1448 -0.0575 -0.2838 -0.1599 -0.3862 -0.1024 -0.1025 -0.2413 -0.16 -0.3861 -0.16s-0.2837 0.0575 -0.3861 0.16c-0.1024 0.1024 -0.1599 0.2414 -0.1599 0.3862 0 0.1449 0.0575 0.2838 0.1599 0.3863 0.1024 0.1024 0.2413 0.16 0.3861 0.16Z" stroke-width="1"></path>
  <path fill="#b6bcbd" d="M22.255 17.5637c0.1448 0 0.2837 -0.0576 0.3861 -0.16 0.1024 -0.1025 0.1599 -0.2414 0.1599 -0.3863 0 -0.1448 -0.0575 -0.2838 -0.1599 -0.3862 -0.1024 -0.1025 -0.2413 -0.16 -0.3861 -0.16s-0.2837 0.0575 -0.3861 0.16c-0.1024 0.1024 -0.1599 0.2414 -0.1599 0.3862 0 0.1449 0.0575 0.2838 0.1599 0.3863 0.1024 0.1024 0.2413 0.16 0.3861 0.16Z" stroke-width="1"></path>
  <path fill="#b6bcbd" d="M25.7462 17.5637c0.1448 0 0.2837 -0.0576 0.3861 -0.16 0.1024 -0.1025 0.16 -0.2414 0.16 -0.3863 0 -0.1448 -0.0576 -0.2838 -0.16 -0.3862 -0.1024 -0.1025 -0.2413 -0.16 -0.3861 -0.16s-0.2837 0.0575 -0.3861 0.16c-0.1024 0.1024 -0.1599 0.2414 -0.1599 0.3862 0 0.1449 0.0575 0.2838 0.1599 0.3863 0.1024 0.1024 0.2413 0.16 0.3861 0.16Z" stroke-width="1"></path>
  <path fill="#b6bcbd" d="M29.2369 17.5637c0.1449 0 0.2837 -0.0576 0.3862 -0.16 0.1024 -0.1025 0.1599 -0.2414 0.1599 -0.3863 0 -0.1448 -0.0575 -0.2838 -0.1599 -0.3862 -0.1025 -0.1025 -0.2413 -0.16 -0.3862 -0.16 -0.1448 0 -0.2837 0.0575 -0.3861 0.16 -0.1024 0.1024 -0.1599 0.2414 -0.1599 0.3862 0 0.1449 0.0575 0.2838 0.1599 0.3863 0.1024 0.1024 0.2413 0.16 0.3861 0.16Z" stroke-width="1"></path>
  <path fill="#b6bcbd" d="M22.255 14.0734c0.1448 0 0.2837 -0.0575 0.3861 -0.16 0.1024 -0.1024 0.1599 -0.2413 0.1599 -0.3862s-0.0575 -0.2838 -0.1599 -0.3863c-0.1024 -0.1024 -0.2413 -0.1599 -0.3861 -0.1599s-0.2837 0.0575 -0.3861 0.1599c-0.1024 0.1025 -0.1599 0.2414 -0.1599 0.3863 0 0.1449 0.0575 0.2838 0.1599 0.3862 0.1024 0.1025 0.2413 0.16 0.3861 0.16Z" stroke-width="1"></path>
  <path fill="#b6bcbd" d="M25.7462 14.0734c0.1448 0 0.2837 -0.0575 0.3861 -0.16 0.1024 -0.1024 0.16 -0.2413 0.16 -0.3862s-0.0576 -0.2838 -0.16 -0.3863c-0.1024 -0.1024 -0.2413 -0.1599 -0.3861 -0.1599s-0.2837 0.0575 -0.3861 0.1599c-0.1024 0.1025 -0.1599 0.2414 -0.1599 0.3863 0 0.1449 0.0575 0.2838 0.1599 0.3862 0.1024 0.1025 0.2413 0.16 0.3861 0.16Z" stroke-width="1"></path>
  <path fill="#b6bcbd" d="M20.5099 15.8195c0.1448 0 0.2837 -0.0575 0.3861 -0.16 0.1024 -0.1024 0.1599 -0.2413 0.1599 -0.3862s-0.0575 -0.2838 -0.1599 -0.3863c-0.1024 -0.1024 -0.2413 -0.1599 -0.3861 -0.1599s-0.2837 0.0575 -0.3861 0.1599c-0.1024 0.1025 -0.1599 0.2414 -0.1599 0.3863 0 0.1449 0.0575 0.2838 0.1599 0.3862 0.1024 0.1025 0.2413 0.16 0.3861 0.16Z" stroke-width="1"></path>
  <path fill="#b6bcbd" d="M24.0006 15.8195c0.1448 0 0.2837 -0.0575 0.3861 -0.16 0.1024 -0.1024 0.16 -0.2413 0.16 -0.3862s-0.0576 -0.2838 -0.16 -0.3863c-0.1024 -0.1024 -0.2413 -0.1599 -0.3861 -0.1599s-0.2837 0.0575 -0.3861 0.1599c-0.1024 0.1025 -0.1599 0.2414 -0.1599 0.3863 0 0.1449 0.0575 0.2838 0.1599 0.3862 0.1024 0.1025 0.2413 0.16 0.3861 0.16Z" stroke-width="1"></path>
  <path fill="#b6bcbd" d="M24.0006 12.3283c0.1448 0 0.2837 -0.0575 0.3861 -0.16 0.1024 -0.1024 0.16 -0.2414 0.16 -0.3862 0 -0.1449 -0.0576 -0.2838 -0.16 -0.3863 -0.1024 -0.1024 -0.2413 -0.16 -0.3861 -0.16s-0.2837 0.0576 -0.3861 0.16c-0.1024 0.1025 -0.1599 0.2414 -0.1599 0.3863 0 0.1448 0.0575 0.2838 0.1599 0.3862 0.1024 0.1025 0.2413 0.16 0.3861 0.16Z" stroke-width="1"></path>
  <path fill="#b6bcbd" d="M27.4913 15.8195c0.1449 0 0.2837 -0.0575 0.3861 -0.16 0.1024 -0.1024 0.16 -0.2413 0.16 -0.3862s-0.0576 -0.2838 -0.16 -0.3863c-0.1024 -0.1024 -0.2412 -0.1599 -0.3861 -0.1599 -0.1448 0 -0.2837 0.0575 -0.3861 0.1599 -0.1024 0.1025 -0.1599 0.2414 -0.1599 0.3863 0 0.1449 0.0575 0.2838 0.1599 0.3862 0.1024 0.1025 0.2413 0.16 0.3861 0.16Z" stroke-width="1"></path>
</svg>