<svg xmlns="http://www.w3.org/2000/svg" fill="none" viewBox="0 0 48 48" id="Global-Warming-2--Streamline-Plump">
  <desc>
    Global Warming 2 Streamline Icon: https://streamlinehq.com
  </desc>
  <g id="global-warming-2--nature-environment-earth-planet-hot-thermometer-warm">
    <path id="Ellipse 19" stroke="#000000" stroke-linecap="round" stroke-linejoin="round" d="M21.5 6.716A13.95 13.95 0 0 1 31 3c7.732 0 14 6.268 14 14s-6.268 14 -14 14c-1.39 0 -2.733 -0.203 -4 -0.58" stroke-width="3"></path>
    <path id="Intersect" stroke="#000000" stroke-linecap="round" stroke-linejoin="round" d="M33.206 3.173a33.35 33.35 0 0 1 0.18 4.818c-0.026 0.774 -0.292 1.53 -0.839 2.078 -1.212 1.216 -2.407 1.618 -2.876 1.737a2.389 2.389 0 0 1 -0.418 0.057c-0.82 0.06 -3.779 0.36 -4.202 1.638 -0.327 0.984 0.134 2.961 0.483 4.184 0.198 0.694 0.266 1.425 0.058 2.117 -0.245 0.814 -0.675 1.958 -1.363 2.932a2.314 2.314 0 0 1 -0.44 0.468" stroke-width="3"></path>
    <path id="Intersect_2" stroke="#000000" stroke-linecap="round" stroke-linejoin="round" d="M44.9 18.688c-3.256 -0.67 -6.544 -1.116 -8.513 -1.353 -1.19 -0.143 -2.442 0.08 -3.264 0.952a7.47 7.47 0 0 0 -0.844 1.084c-1.095 1.702 -0.211 3.79 1.392 5.026l1.444 1.114c0.507 0.39 0.807 0.99 0.843 1.628 0.04 0.697 0.115 1.704 0.258 2.857" stroke-width="3"></path>
    <path id="Union" stroke="#000000" stroke-linecap="round" stroke-linejoin="round" d="M7.002 26.997A9.985 9.985 0 0 0 3 35c0 5.523 4.477 10 10 10s10 -4.477 10 -10a9.985 9.985 0 0 0 -4.002 -8.003L19 25.5c0 -5.52 -0.092 -9.419 -0.204 -12.12C18.649 9.843 16.541 7 13 7c-3.541 0 -5.65 2.842 -5.796 6.38C7.092 16.082 7 19.98 7 25.5c0 0.513 0 1.012 0.002 1.497Z" stroke-width="3"></path>
    <path id="Ellipse 185" stroke="#000000" stroke-linecap="round" stroke-linejoin="round" d="M16 35a3 3 0 1 1 -6 0 3 3 0 1 1 6 0" stroke-width="3"></path>
    <path id="Vector 1184" stroke="#000000" stroke-linecap="round" stroke-linejoin="round" d="m13 14 0 18" stroke-width="3"></path>
  </g>
</svg>