<svg xmlns="http://www.w3.org/2000/svg" fill="none" viewBox="0 0 16 16" id="Link--Streamline-Block-Free">
  <desc>
    Link Streamline Icon: https://streamlinehq.com
  </desc>
  <path fill="#000000" d="M14.0474 1.95262c2.6035 2.6035 2.6035 6.8246 0 9.42808l-0.803 0.803 -2.7747 -2.7747 0.7123 -0.71231c1.0711 -1.07105 1.0711 -2.80757 0 -3.87864 -1.071 -1.07108 -2.80756 -1.0711 -3.87863 -0.00004l-0.71235 0.71234 -2.77477 -2.77477 0.80292 -0.80296c2.60352 -2.603494 6.82463 -2.603494 9.42823 0Z" stroke-width="1"></path>
  <path fill="#000000" d="M12.1838 13.2444 9.409 10.4697l-0.71235 0.7123c-1.07108 1.0711 -2.80763 1.071 -3.87868 0 -1.07103 -1.0711 -1.07101 -2.80763 0.00005 -3.87868l0.71233 -0.71232 -2.77473 -2.77473 -0.80298 0.80302c-2.60352 2.60349 -2.60352 6.82461 0 9.42811 2.60352 2.6035 6.82467 2.6035 9.42816 0l0.803 -0.803Z" stroke-width="1"></path>
  <path fill="#000000" d="M10.1213 7.63602c0.4853 -0.48527 0.4853 -1.27205 0.0001 -1.75733 -0.48531 -0.48528 -1.2721 -0.48529 -1.75738 -0.00002L5.87867 8.36399c-0.48527 0.48527 -0.48528 1.27205 -0.00002 1.75731 0.48527 0.4853 1.27206 0.4853 1.75734 0l2.48531 -2.48528Z" stroke-width="1"></path>
</svg>