<svg xmlns="http://www.w3.org/2000/svg" fill="none" viewBox="0 0 16 16" id="Lock--Streamline-Block-Free">
  <desc>
    Lock Streamline Icon: https://streamlinehq.com
  </desc>
  <path fill="#000000" fill-rule="evenodd" d="M3 5v1L1 6v10h14V6l-2 0V5c0 -2.76142 -2.2386 -5 -5 -5 -2.76142 0 -5 2.23858 -5 5Zm6.99994 1V4.99998C9.99994 3.89542 9.10452 3 7.99996 3c-1.10457 0 -2 0.89545 -1.99998 2.00002L6 6h3.99994Zm-0.74808 5c0 0.6914 -0.56048 1.2519 -1.25186 1.2519S6.74814 11.6914 6.74814 11 7.30862 9.74814 8 9.74814 9.25186 10.3086 9.25186 11Z" clip-rule="evenodd" stroke-width="1"></path>
</svg>