<svg xmlns="http://www.w3.org/2000/svg" fill="none" viewBox="0 0 16 16" id="Settings-2--Streamline-Block-Free">
  <desc>
    Settings 2 Streamline Icon: https://streamlinehq.com
  </desc>
  <path fill="#000000" fill-rule="evenodd" d="M7.46487 6C6.77325 7.1956 5.48056 8 4 8 1.79086 8 0 6.20914 0 4s1.79086 -4 4 -4c1.48056 0 2.77325 0.804397 3.46487 2H15.5v4H7.46487ZM5.25244 4c0 0.6917 -0.56074 1.25244 -1.25244 1.25244S2.74756 4.6917 2.74756 4 3.3083 2.74756 4 2.74756 5.25244 3.3083 5.25244 4Z" clip-rule="evenodd" stroke-width="1"></path>
  <path fill="#000000" fill-rule="evenodd" d="M8.53513 10H0.5v4h8.03513C9.22675 15.1956 10.5194 16 12 16c2.2091 0 4 -1.7909 4 -4 0 -2.20914 -1.7909 -4 -4 -4 -1.4806 0 -2.77325 0.8044 -3.46487 2Zm4.71697 2c0 0.6915 -0.5606 1.2521 -1.2521 1.2521S10.7479 12.6915 10.7479 12s0.5606 -1.2521 1.2521 -1.2521 1.2521 0.5606 1.2521 1.2521Z" clip-rule="evenodd" stroke-width="1"></path>
</svg>