<svg xmlns="http://www.w3.org/2000/svg" fill="none" viewBox="0 0 16 16" id="Toggle--Streamline-Block-Free">
  <desc>
    Toggle Streamline Icon: https://streamlinehq.com
  </desc>
  <path fill="#000000" fill-rule="evenodd" d="M0 3.5C0 1.567 1.567 0 3.5 0h9C14.433 0 16 1.567 16 3.5S14.433 7 12.5 7h-9C1.567 7 0 5.433 0 3.5Zm4.75 0c0 0.69036 -0.55964 1.25 -1.25 1.25S2.25 4.19036 2.25 3.5s0.55964 -1.25 1.25 -1.25 1.25 0.55964 1.25 1.25Z" clip-rule="evenodd" stroke-width="1"></path>
  <path fill="#000000" fill-rule="evenodd" d="M0 12.5C0 10.567 1.567 9 3.5 9h9c1.933 0 3.5 1.567 3.5 3.5S14.433 16 12.5 16h-9C1.567 16 0 14.433 0 12.5Zm13.7501 0c0 0.6904 -0.5597 1.2501 -1.2501 1.2501s-1.2501 -0.5597 -1.2501 -1.2501 0.5597 -1.2501 1.2501 -1.2501 1.2501 0.5597 1.2501 1.2501Z" clip-rule="evenodd" stroke-width="1"></path>
</svg>