<svg xmlns="http://www.w3.org/2000/svg" fill="none" viewBox="0 0 24 24" id="Adjust-Brightness--Streamline-Cyber">
  <desc>
    Adjust Brightness Streamline Icon: https://streamlinehq.com
  </desc>
  <path fill="#ffffff" d="M6.88696 9.0856 12 6.3757l5.113 2.7099v5.8288L12 17.6243l-5.11304 -2.7099V9.0856Z" stroke-width="1"></path>
  <path fill="#bbd8ff" d="m6.88696 14.9144 1.5339 -1.3805L12 15.5791l3.5791 -1.9808 1.5339 1.3161 -5.113 2.71 -5.11304 -2.71Z" stroke-width="1"></path>
  <path stroke="#092f63" stroke-linecap="round" stroke-linejoin="round" d="M12 0.751301V3.8191" stroke-width="1"></path>
  <path stroke="#092f63" stroke-linecap="round" stroke-linejoin="round" d="M12 20.1809v3.0678" stroke-width="1"></path>
  <path stroke="#092f63" stroke-linecap="round" stroke-linejoin="round" d="M0.751343 12H3.81914" stroke-width="1"></path>
  <path stroke="#092f63" stroke-linecap="round" stroke-linejoin="round" d="M20.1809 12h3.0678" stroke-width="1"></path>
  <path stroke="#092f63" stroke-linecap="round" stroke-linejoin="round" d="m4.04614 19.9539 2.1689 -2.169" stroke-width="1"></path>
  <path stroke="#092f63" stroke-linecap="round" stroke-linejoin="round" d="m17.7849 6.2151 2.1689 -2.1689" stroke-width="1"></path>
  <path stroke="#092f63" stroke-linecap="round" stroke-linejoin="round" d="m4.04614 4.0462 2.1689 2.1689" stroke-width="1"></path>
  <path stroke="#092f63" stroke-linecap="round" stroke-linejoin="round" d="m17.7849 17.7849 2.1689 2.169" stroke-width="1"></path>
  <path stroke="#092f63" stroke-linecap="round" stroke-linejoin="round" d="M6.88696 9.0856 12 6.3757l5.113 2.7099v5.8288L12 17.6243l-5.11304 -2.7099V9.0856Z" stroke-width="1"></path>
</svg>