<svg xmlns="http://www.w3.org/2000/svg" fill="none" viewBox="0 0 24 24" id="Printer-3--Streamline-Cyber">
  <desc>
    Printer 3 Streamline Icon: https://streamlinehq.com
  </desc>
  <path fill="#ffffff" d="M23.27 11.02 20.33 7.1h-2.94V3.67l-2.45 -2.45H6.60998V7.1h-2.94l-2.94 3.92 0.98 7.84h3.675l-1.225 3.92H19.84l-1.225 -3.92h3.675l0.98 -7.84Z" stroke-width="1"></path>
  <path fill="#bbd8ff" d="m1.03577 13.47 0.6742 5.39h3.675l1.225 -3.92H17.39l1.225 3.92h3.675l0.6733 -5.39H1.03577Z" stroke-width="1"></path>
  <path stroke="#092f63" stroke-linecap="round" stroke-linejoin="round" d="M17.39 7.10001h2.94L23.27 11.02H0.72998l2.94 -3.91999h2.94" stroke-width="1"></path>
  <path stroke="#092f63" stroke-linecap="round" stroke-linejoin="round" d="M17.39 9.06H6.60999V1.22H14.94l2.45 2.45v5.39Z" stroke-width="1"></path>
  <path stroke="#092f63" stroke-linecap="round" stroke-linejoin="round" d="M4.65002 9.06H19.35" stroke-width="1"></path>
  <path stroke="#092f63" stroke-linecap="round" stroke-linejoin="round" d="M19.84 22.78H4.16003l2.45 -7.84H17.39l2.45 7.84Z" stroke-width="1"></path>
  <path stroke="#092f63" stroke-linecap="round" stroke-linejoin="round" d="M7.09998 19.84H16.9" stroke-width="1"></path>
  <path stroke="#092f63" stroke-linecap="round" stroke-linejoin="round" d="M8.07996 17.88H15.92" stroke-width="1"></path>
  <path stroke="#092f63" stroke-linecap="round" stroke-linejoin="round" d="M19.35 12.98h0.98" stroke-width="1"></path>
  <path stroke="#092f63" stroke-linecap="round" stroke-linejoin="round" d="M19.35 14.94h0.98" stroke-width="1"></path>
  <path stroke="#092f63" stroke-linecap="round" stroke-linejoin="round" d="M5.38498 18.86h-3.675l-0.98 -7.84H23.27l-0.98 7.84h-3.675" stroke-width="1"></path>
</svg>