<svg xmlns="http://www.w3.org/2000/svg" fill="none" viewBox="0 0 24 24" id="Programming-Bug-2--Streamline-Cyber">
  <desc>
    Programming Bug 2 Streamline Icon: https://streamlinehq.com
  </desc>
  <path fill="#ffffff" d="m19.845 18.8569 -7.8449 4.4128 -7.84495 -4.4128V8.56039l7.84495 -4.903 7.8449 4.903V18.8569Z" stroke-width="1"></path>
  <path fill="#bbd8ff" d="m12 3.65739 7.8449 4.903V18.8569L12 23.2697V3.65739Z" stroke-width="1"></path>
  <path fill="#bbd8ff" d="M6.53725 0.730301 5.08105 2.1864l1.4562 1.4562 1.4561 -1.4562L6.53725 0.730301Z" stroke-width="1"></path>
  <path fill="#bbd8ff" d="M17.324 0.730392 15.8678 2.18659l1.4562 1.4561 1.4561 -1.4561L17.324 0.730392Z" stroke-width="1"></path>
  <path stroke="#092f63" stroke-linecap="round" stroke-linejoin="round" stroke-miterlimit="10" d="M4.15515 10.5217H19.845" stroke-width="1"></path>
  <path stroke="#092f63" stroke-linecap="round" stroke-linejoin="round" stroke-miterlimit="10" d="M12 10.5217v12.748" stroke-width="1"></path>
  <path stroke="#092f63" stroke-linecap="round" stroke-linejoin="round" stroke-miterlimit="10" d="M1.21326 13.4635h2.9419" stroke-width="1"></path>
  <path stroke="#092f63" stroke-linecap="round" stroke-linejoin="round" stroke-miterlimit="10" d="m2.19385 20.3278 1.9613 -1.4709" stroke-width="1"></path>
  <path stroke="#092f63" stroke-linecap="round" stroke-linejoin="round" stroke-miterlimit="10" d="m2.19385 6.5992 1.9613 1.9612" stroke-width="1"></path>
  <path stroke="#092f63" stroke-linecap="round" stroke-linejoin="round" stroke-miterlimit="10" d="M22.7867 13.4635h-2.9419" stroke-width="1"></path>
  <path stroke="#092f63" stroke-linecap="round" stroke-linejoin="round" stroke-miterlimit="10" d="m21.8061 20.3278 -1.9613 -1.4709" stroke-width="1"></path>
  <path stroke="#092f63" stroke-linecap="round" stroke-linejoin="round" stroke-miterlimit="10" d="m21.8061 6.5992 -1.9613 1.9612" stroke-width="1"></path>
  <path stroke="#092f63" stroke-linecap="round" stroke-linejoin="round" stroke-miterlimit="10" d="m7.09692 3.1671 2.1574 2.1573" stroke-width="1"></path>
  <path stroke="#092f63" stroke-linecap="round" stroke-linejoin="round" stroke-miterlimit="10" d="m16.9031 3.1671 -2.1574 2.1573" stroke-width="1"></path>
  <path stroke="#092f63" stroke-linejoin="round" stroke-miterlimit="10" d="m19.845 18.8569 -7.8449 4.4128 -7.84495 -4.4128V8.56039l7.84495 -4.903 7.8449 4.903V18.8569Z" stroke-width="1"></path>
  <path stroke="#092f63" stroke-linecap="round" stroke-linejoin="round" stroke-miterlimit="10" d="M6.53725 0.730301 5.08105 2.1864l1.4562 1.4562 1.4561 -1.4562L6.53725 0.730301Z" stroke-width="1"></path>
  <path stroke="#092f63" stroke-linecap="round" stroke-linejoin="round" stroke-miterlimit="10" d="M17.324 0.730392 15.8678 2.18659l1.4562 1.4561 1.4561 -1.4561L17.324 0.730392Z" stroke-width="1"></path>
</svg>