<svg xmlns="http://www.w3.org/2000/svg" fill="none" viewBox="0 0 14 14" id="Party-Popper--Streamline-Flex-Gradient">
  <desc>
    Party Popper Streamline Icon: https://streamlinehq.com
  </desc>
  <g id="party-popper--hobby-entertainment-party-popper-confetti-event 1">
    <path id="Union" fill="url(#paint0_linear_9380_2975)" fill-rule="evenodd" d="M6.30936.982947c-.12854-.393764.08646-.817176.48023-.9457169.39376-.1285413.81717.0864639.94572.4802279.32204.986542.27966 2.055852-.11945 3.013802-.15931.38236-.59841.56318-.98076.40388-.38236-.1593-.56318-.59841-.40388-.98076.26108-.62663.2888-1.32611.07814-1.971433ZM9.76103 2.23164c-.41027.05704-.69662.43587-.63958.84614.0422.30358-.02802.61211-.19744.86753-.22897.34517-.13476.81061.21042 1.03958.34517.22896.81061.13476 1.03957-.21042.3717-.56035.5257-1.23724.4332-1.90325-.0571-.41026-.4359-.69661-.84617-.63958Zm1.41517 5.79165c.2933-.06659.6008-.02236.8634.12419.3617.20184.8186.07225 1.0204-.28945.2019-.36171.0723-.81856-.2894-1.0204-.586-.32699-1.2722-.42569-1.9265-.2771-.404.09172-.6571.49352-.5653.89745.0917.40394.4935.65703.8974.56531Zm.5818-4.0536c0 .41421.3358.75.75.75h.7421c.4142 0 .75-.33579.75-.75 0-.41422-.3358-.75-.75-.75h-.7421c-.4142 0-.75.33578-.75.75ZM2.37806 4.628c.45434-.78187 1.46634-.99775 2.20549-.49639.86555.58709 2.17812 1.51862 2.93901 2.26933.76085.75067 1.71001 2.05045 2.30877 2.90797.51137.73229.30917 1.74719-.46658 2.21209-2.48834 1.4911-5.28331 2.5909-7.97853 2.4704-.737966-.033-1.3278519-.6149-1.3708341-1.3524C-.14159 9.94572.920618 7.13614 2.37806 4.628Z" clip-rule="evenodd"></path>
  </g>
  <defs>
    <linearGradient id="paint0_linear_9380_2975" x1="2.288" x2="13.596" y1="2.692" y2="8.957" gradientUnits="userSpaceOnUse">
      <stop stop-color="#ffd600"></stop>
      <stop offset="1" stop-color="#00d078"></stop>
    </linearGradient>
  </defs>
</svg>