<svg xmlns="http://www.w3.org/2000/svg" fill="none" viewBox="0 0 14 14" id="Play-List-6--Streamline-Flex-Gradient">
  <desc>
    Play List 6 Streamline Icon: https://streamlinehq.com
  </desc>
  <g id="play-list-6--player-television-movies-slider-media-tv-players-video-entertainment 1">
    <path id="Union" fill="url(#paint0_linear_9380_2981)" fill-rule="evenodd" d="M3.53674 11.6268c.03485.5225.41148.9525.903 1.0446l.17302.0326c.771.1454 1.5694.296 2.38722.296.8178 0 1.61619-.1506 2.38718-.296l.17305-.0326c.49149-.0921.86819-.5221.90299-1.0446.0148-.2221.0303-.4457.0458-.6707.0881-1.27655.1794-2.59986.1794-3.9561 0-1.35624-.0913-2.67955-.1794-3.95609-.0155-.22503-.031-.44861-.0458-.67066-.0348-.52251-.4115-.95255-.90299-1.04469l-.17304-.03257C8.61618 1.15058 7.81778 1 6.99998 1c-.81781 0-1.61621.15058-2.3872.29599l-.17304.03257c-.49152.09214-.86815.52218-.903 1.04469-.01481.22205-.03025.44562-.04578.67066C3.40286 4.32045 3.31152 5.64376 3.31152 7c0 1.35624.09134 2.67955.17944 3.9561.01553.2249.03097.4487.04578.6707ZM7.2207 8.43004V5.61746c.44048.1051.77436.48943.79072.90259.00228.05752.0035.11456.0035.17119 0 .34518.27982.625.625.625s.625-.27982.625-.625c0-.07452-.0016-.1481-.00448-.22064-.04604-1.16298-1.02857-2.05423-2.13039-2.12647-.18296-.02017-.33794-.01855-.45865-.01728-.02695.00028-.05223.00055-.0757.00055-.34518 0-.625.27982-.625.625v2.23498c-.79073.00274-1.23535.44979-1.23535 1.24266 0 .79531.44736 1.24268 1.24268 1.24268.79531 0 1.24267-.44737 1.24267-1.24268Zm4.8394 3.29346c-.1534.0126-.2818-.1149-.2715-.2683l.0093-.1403c.0054-.0831.0109-.1666.0167-.2504.0882-1.27506.1835-2.65423.1835-4.06454 0-1.4103-.0954-2.79019-.1835-4.06526-.0058-.08323-.0112-.16609-.0167-.24846l-.0001-.00157-.0092-.13991c-.0103-.15348.1182-.28091.2715-.26838.1831.01497.3654.02962.5468.04369.4994.03874.9077.43725.9875.95588.0211.13719.0427.27507.0644.41361l.0004.00256.0003.0014C13.8267 4.76043 14 5.86643 14 6.99995c0 1.13353-.1733 2.23953-.3405 3.30645l-.0002.0012c-.0219.1394-.0436.2782-.0649.4164-.0798.5186-.4881.9171-.9875.9558-.1814.0141-.3637.0288-.5468.0437Zm-9.84871-.2684c.01027.1535-.11819.281-.2715.2684-.18312-.0149-.36538-.0296-.54675-.0437-.499426-.0387-.907776-.4372-.987558-.9558-.021305-.1385-.04312-.2777-.06504-.4176C.173335 9.23949 0 8.13348 0 6.99995c0-1.13352.173335-2.23953.340542-3.30644.021919-.13986.043735-.27907.065039-.41756.079782-.51863.488133-.91714.987559-.95588.18137-.01407.36363-.02872.54675-.04369.15331-.01253.28177.1149.2715.26839l-.0093.14037c-.00547.08298-.01097.16643-.01676.25027-.08813 1.27508-.18345 2.65425-.18345 4.06455 0 1.4103.09534 2.78982.18347 4.06494.00579.0838.01128.1671.01675.25l.00929.1402Z" clip-rule="evenodd"></path>
  </g>
  <defs>
    <linearGradient id="paint0_linear_9380_2981" x1=".538" x2="15.216" y1="1.97" y2="11.622" gradientUnits="userSpaceOnUse">
      <stop stop-color="#00d078"></stop>
      <stop offset="1" stop-color="#007df0"></stop>
    </linearGradient>
  </defs>
</svg>