<svg xmlns="http://www.w3.org/2000/svg" fill="none" viewBox="0 0 14 14" id="Tape-Cassette-Record--Streamline-Flex-Gradient">
  <desc>
    Tape Cassette Record Streamline Icon: https://streamlinehq.com
  </desc>
  <g id="tape-cassette-record--music-entertainment-tape-cassette-record 1">
    <path id="Subtract" fill="url(#paint0_linear_9380_2996)" fill-rule="evenodd" d="M7.00021.999023c-1.62264 0-3.19606.134977-4.69943.312357-1.02662.12113-1.900134.88398-2.057157 1.94597-.1672816 1.13136-.243134719 2.371-.243134719 3.74269 0 1.3717.075854019 2.6114.243137719 3.74276.15702 1.062 1.030534 1.8249 2.057154 1.946.26362.0311.52938.0609.79719.0889.00391-.0283.00981-.0567.0178-.085l.68849-2.4399c.06497-.2302.25568-.40317.49117-.44541 2.06561-.37049 3.27409-.36529 5.39675-.0008.24507.04209.44182.22541.50112.46691l.5992 2.4399c.0061.0248.0106.0496.0136.0743.3004-.0309.5983-.0641.8935-.0989 1.0266-.1211 1.9001-.884 2.0571-1.946.1673-1.13136.2432-2.37106.2432-3.74276 0-1.37169-.0759-2.61133-.2431-3.74269-.1571-1.06198-1.0306-1.82484-2.0572-1.94597C10.1962 1.134 8.62284.999023 7.00021.999023Zm0 12.002177c-.89694 0-1.77883-.0413-2.64217-.1081l.54217-1.9214c1.55607-.2548 2.56968-.2528 4.17758.0004L9.55124 12.9c-.83424.0628-1.68564.1012-2.55103.1012Zm-1.1909-8.01763c.37924-.03938.78114-.05976 1.18878-.05974.40509.00002.80544.02018 1.18432.05916-.1764.31735-.25199.68725-.25199 1.07144 0 .37847.07335.74308.24417 1.05724-.37656.03844-.77418.05831-1.17648.05832-.40483 0-.80402-.02011-1.18096-.05897.17057-.31401.24383-.67838.24383-1.05659 0-.38395-.0755-.75364-.25167-1.07086Zm4.21549-.90699c.0231.00743.0454.01606.067.02582.4462.04123.8588.20361 1.1725.52667.366.37692.5144.88713.5144 1.42536 0 .53824-.1484 1.04845-.5144 1.42537-.3246.33423-.755.49648-1.219.53051-.0039.00141-.0078.00279-.0118.00413-.0029.00097-.0058.00193-.0087.00287-.85405.27488-1.95664.40266-3.02667.40268C5.92846 8.42 4.829 8.29233 3.9819 8.01669l-.01447-.0049c-.47214-.03056-.91079-.19262-1.24037-.53199-.36605-.37692-.51442-.88713-.51442-1.42537 0-.53823.14837-1.04844.51442-1.42536.31867-.32813.73931-.4905 1.1936-.52852.01978-.0088.04021-.01665.06125-.0235.8471-.27563 1.94657-.40327 3.01624-.40322 1.07003.00004 2.17261.12786 3.02665.40275ZM3.46264 6.05443c0-.31792.08548-.4766.16115-.55451.07303-.0752.21742-.15825.51302-.15825.2956 0 .43999.08305.51302.15825.07567.07791.16115.23659.16115.55451 0 .31793-.08548.47661-.16115.55452-.07303.0752-.21742.15824-.51302.15824-.2956 0-.43999-.08304-.51302-.15824-.07567-.07791-.16115-.23659-.16115-.55452Zm5.87892-.55451c-.07566.07791-.16114.23659-.16114.55451 0 .31793.08548.47661.16114.55452.07303.0752.21743.15824.51302.15824.29552 0 .43992-.08304.51302-.15824.0756-.07791.1611-.23659.1611-.55452 0-.31792-.0855-.4766-.1611-.55451-.0731-.0752-.2175-.15825-.51302-.15825-.29559 0-.43999.08305-.51302.15825Z" clip-rule="evenodd"></path>
  </g>
  <defs>
    <linearGradient id="paint0_linear_9380_2996" x1="2.289" x2="12.713" y1="3.307" y2="10.044" gradientUnits="userSpaceOnUse">
      <stop stop-color="#ffd600"></stop>
      <stop offset="1" stop-color="#00d078"></stop>
    </linearGradient>
  </defs>
</svg>