<svg xmlns="http://www.w3.org/2000/svg" fill="none" viewBox="0 0 14 14" id="Desktop-Lock--Streamline-Flex-Gradient">
  <desc>
    Desktop Lock Streamline Icon: https://streamlinehq.com
  </desc>
  <g id="desktop-lock--device-secure-display-computer-lock-desktop-padlock-security">
    <path id="Union" fill="url(#paint0_linear_9380_479)" fill-rule="evenodd" d="M10.7994 0c-.291 0-.5792.0573294-.84815.168716-.26891.111386-.51325.274647-.71906.480462-.20582.205814-.36908.450152-.48047.719062-.11138.26891-.16871.55713-.16871.84819v.30628c0 .01717.00069.03419.00205.05101-.42795.07225-.7647.41162-.83519.84145l-.01351.08205c-.06348.38459-.13675.82857-.13675 1.28722 0 .45866.07327.90264.13675 1.28723l.01351.08205c.07552.46046.4566.81711.92802.85276.10802.00817.21796.01687.32957.0257.56451.04467 1.17204.09274 1.79234.09274.6203 0 1.2278-.04807 1.7923-.09274.1116-.00883.2215-.01753.3296-.0257.4714-.03565.8525-.3923.928-.85276l.0135-.08206c.0635-.38459.1367-.82856.1367-1.28722 0-.45865-.0732-.90263-.1367-1.28722l-.0135-.08205c-.0706-.43005-.4076-.76955-.8359-.84156.0014-.01679.0021-.03377.0021-.0509v-.30628c0-.29107-.0574-.57928-.1687-.84819-.1114-.26891-.2747-.513248-.4805-.719062-.2058-.205815-.4502-.369076-.7191-.480462C11.3787.0573294 11.0905 0 10.7994 0Zm.0004 2.44397c.327 0 .6505.01336.9661.03255v-.26009c0-.12691-.025-.25258-.0736-.36984-.0486-.11725-.1198-.22379-.2095-.31353-.0897-.08974-.1963-.16093-.3135-.20949-.1173-.04857-.2429-.07357-.3699-.07357-.1269 0-.2525.025-.3698.07357-.1173.04856-.2238.11975-.3135.20949-.0898.08974-.16096.19628-.20953.31353-.04856.11726-.07356.24293-.07356.36984v.26013c.31569-.01921.63949-.03259.96679-.03259Zm-3.6742-1.1997c.00411.4142-.32833.7533-.74253.7574-1.11868.0111-2.25229.07297-3.51032.1865-.58596.05288-1.0851.52136-1.1728 1.13855-.26725 1.88088-.26725 3.15458 0 5.03546.0877.61718.58684 1.08566 1.1728 1.13854 2.78229.25109 4.97142.25109 7.75375 0 .4109-.03709.7809-.27791.9959-.63806.2124-.35564.6729-.47179 1.0285-.25943.3556.21236.4718.67281.2594 1.02845-.4483.75082-1.2353 1.28052-2.149 1.36292-.6549.0592-1.27901.1048-1.88634.1369l.22157 1.2486c.46301.0319.92717.0734 1.39297.1242.4118.045.7092.4152.6642.827-.045.4118-.4152.7091-.827.6642-1.10386-.1206-2.19678-.1857-3.28881-.1953-.19533-.0017-.39064-.0016-.58597.0002-1.08637.0101-2.17366.0752-3.27182.1951-.41176.0449-.78201-.2524-.82697-.6642s.2524-.782.66416-.827c.46377-.0506.92579-.0919 1.38671-.1238l.2217-1.2489c-.60779-.0322-1.23235-.0778-1.88778-.137C1.44222 10.8777.398134 9.86295.214871 8.57319c-.2871456-2.02085-.2871458-3.43664 0-5.45749C.398134 1.82594 1.44223.811178 2.73793.694245 4.02862.577764 5.20282.513304 6.3682.501747c.41419-.004108.75329.328332.7574.742523Z" clip-rule="evenodd"></path>
  </g>
  <defs>
    <linearGradient id="paint0_linear_9380_479" x1=".537" x2="16.494" y1="1.131" y2="10.125" gradientUnits="userSpaceOnUse">
      <stop stop-color="#00d078"></stop>
      <stop offset="1" stop-color="#007df0"></stop>
    </linearGradient>
  </defs>
</svg>