<svg xmlns="http://www.w3.org/2000/svg" fill="none" viewBox="0 0 14 14" id="Ios-Ipados--Streamline-Flex-Gradient">
  <desc>
    Ios Ipados Streamline Icon: https://streamlinehq.com
  </desc>
  <g id="ios-ipados">
    <path id="Union" fill="url(#paint0_linear_9380_626)" fill-rule="evenodd" d="M10.6866 1.83673c-1.60342-.11564-3.10155-.11564-4.70497 0-.7349.053-1.33874.66129-1.40515 1.44764-.00614.07272-.0121.14539-.01789.21801-.50313-.01506-1.00085-.01382-1.50488.00372.00892-.11588.01829-.23186.02809-.34796C3.20589 1.68886 4.35083.450447 5.87373.340615c1.67526-.12082 3.24551-.12082 4.92077 0 1.5229.109832 2.6678 1.348245 2.7919 2.817525.2179 2.58018.2179 5.10354 0 7.68376-.1241 1.4692-1.269 2.7077-2.7919 2.8175-.99616.0718-1.9552.101-2.92127.0874.34951-.4299.59119-.9459.69503-1.4977.69759-.0052 1.39732-.0338 2.11834-.0858.7349-.053 1.3387-.6613 1.4052-1.4477.2108-2.49615.2108-4.93505 0-7.43123-.0665-.78635-.6703-1.39464-1.4052-1.44764ZM9.12501 11.454h.29857c.34518 0 .62502-.2798.62502-.625s-.27986-.625-.62504-.625h-.29857c-.34518 0-.62499.2798-.62499.625s.27983.625.62501.625ZM5.2875 6.36415c-.97071-.07001-1.87673-.07001-2.84744 0-.29921.02158-.56557.2735-.59522.62457-.12808 1.51657-.12808 2.99788 0 4.51448.02965.351.29601.603.59522.6245.97071.07 1.87673.0701 2.84744 0 .2992-.0215.56557-.2735.59522-.6245.12808-1.5166.12808-2.99791 0-4.51448-.02965-.35107-.29602-.60299-.59522-.62457ZM2.33216 4.86804c1.04255-.07519 2.02069-.07519 3.06324 0 1.0872.07841 1.89468.96045 1.982 1.99445.13517 1.60058.13517 3.16631 0 4.76691-.08733 1.034-.8948 1.916-1.982 1.9945-1.04255.0751-2.02069.0751-3.06324 0-1.0872-.0785-1.894677-.9605-1.982001-1.9945-.135173-1.6006-.135173-3.16633 0-4.76691.087324-1.034.894801-1.91604 1.982001-1.99445ZM3.58691 10.204c-.34517 0-.625.2798-.625.625s.27983.625.625.625h.55373c.34518 0 .625-.2798.625-.625s-.27982-.625-.625-.625h-.55373Z" clip-rule="evenodd"></path>
  </g>
  <defs>
    <linearGradient id="paint0_linear_9380_626" x1="2.456" x2="13.36" y1="2.846" y2="8.888" gradientUnits="userSpaceOnUse">
      <stop stop-color="#ffd600"></stop>
      <stop offset="1" stop-color="#00d078"></stop>
    </linearGradient>
  </defs>
</svg>