<svg xmlns="http://www.w3.org/2000/svg" fill="none" viewBox="0 0 14 14" id="Keyboard--Streamline-Flex-Gradient">
  <desc>
    Keyboard Streamline Icon: https://streamlinehq.com
  </desc>
  <g id="keyboard--keyboard-device-electronics-dvorak-qwerty">
    <path id="Union" fill="url(#paint0_linear_9380_632)" fill-rule="evenodd" d="M8.78808.251621c.41333.026986.72653.383935.69955.797269-.05637.86328-.22554 1.54073-.53834 2.04658-.33294.53842-.79293.82494-1.28666.95106-.45228.11553-.92034.09146-1.27305.06901l-.13287-.00863c-.32689-.02145-.55928-.03669-.76803-.0099-.63032.08089-.92869.37446-1.09201.73271-.12555.27538-.18209.6207-.17668.99217C5.12466 5.7695 6.05433 5.729 7 5.729c1.40232 0 2.76946.08904 4.0721.17388l.1204.00784c1.1622.07562 2.1642.93348 2.3752 2.09479.0996.54832.1823 1.13139.1823 1.73402 0 .60267-.0827 1.18567-.1823 1.73407-.211 1.1613-1.213 2.0191-2.3752 2.0947l-.1204.0079c-1.3026.0848-2.66981.1739-4.0721.1739-1.40228 0-2.76938-.0891-4.07197-.1739l-.12055-.0079c-1.16221-.0756-2.164214-.9334-2.375188-2.0947C.332679 10.9252.25 10.3422.25 9.73953c0-.60263.082679-1.1857.182292-1.73402C.638069 6.8728 1.59638 6.02879 2.7219 5.91773c-.01682-.56564.06207-1.16662.30992-1.71025.37805-.82924 1.11967-1.45117 2.26592-1.59827.36552-.04691.7583-.01992 1.06404.0011.04285.00294.08399.00577.1231.00826.36425.02319.61172.02438.80651-.02537.15334-.03917.27196-.10849.38211-.28662.13029-.21071.26868-.61053.31731-1.355415.02699-.413333.38394-.72653.79727-.699544ZM3.88867 7.9563c-.34518 0-.625.27982-.625.625s.27982.625.625.625h.74121c.34518 0 .625-.27982.625-.625s-.27982-.625-.625-.625h-.74121Zm2.74072 0c-.34517 0-.625.27982-.625.625s.27983.625.625.625h.74122c.34518 0 .625-.27982.625-.625s-.27982-.625-.625-.625h-.74122Zm-3.36572 3.1915c0-.3451.27982-.625.625-.625h6.22293c.3452 0 .625.2799.625.625 0 .3452-.2798.625-.625.625H3.88867c-.34518 0-.625-.2798-.625-.625Zm6.84813-3.1915c.3452 0 .625.27982.625.625s-.2798.625-.625.625h-.7412c-.34518 0-.625-.27982-.625-.625s.27982-.625.625-.625h.7412Z" clip-rule="evenodd"></path>
  </g>
  <defs>
    <linearGradient id="paint0_linear_9380_632" x1="2.457" x2="13.36" y1="2.846" y2="8.887" gradientUnits="userSpaceOnUse">
      <stop stop-color="#ffd600"></stop>
      <stop offset="1" stop-color="#00d078"></stop>
    </linearGradient>
  </defs>
</svg>