<svg xmlns="http://www.w3.org/2000/svg" fill="none" viewBox="0 0 14 14" id="Printer--Streamline-Flex-Gradient">
  <desc>
    Printer Streamline Icon: https://streamlinehq.com
  </desc>
  <g id="printer--scan-device-electronics-printer-print-computer">
    <path id="Union" fill="url(#paint0_linear_9380_866)" fill-rule="evenodd" d="M4.73461.361301C5.46696.302444 6.31067.25 7 .25s1.53304.052444 2.26538.111301C10.5479.464372 11.5 1.54634 11.5 2.81317v.81866c-.241-.03449-.4913-.05187-.75-.05187h-7.5c-.25866 0-.50899.01738-.75.05187v-.81866c0-1.26683.95211-2.348798 2.23461-2.451869ZM2.5 4.89863c-.74435.14552-1.29227.51561-1.660685 1.04613C.379576 6.60678.25 7.44751.25 8.20996v.88c0 .80711.391008 1.51464.9919 1.96904.0469-.2134.10421-.4264.17428-.6334.17184-.50773.49568-1.20799 1.15232-1.69312.23348-.1725.5062-.28421.7936-.32507 2.11302-.30038 5.16431-.30038 7.2773 0 .2874.04086.5602.15257.7936.32507.6567.48513.9805 1.18539 1.1523 1.69312.07.2067.1272.4193.1741.6325.6002-.4545.9906-1.16162.9906-1.96814v-.88c0-.76246-.1296-1.60318-.5893-2.2652-.3684-.53052-.9163-.90061-1.6607-1.04613-.2309-.04514-.4808-.06867-.75-.06867h-7.5c-.26924 0-.51907.02353-.75.06867Zm7.9634 4.74634c-1.99633-.28379-4.92917-.28379-6.92548 0-.08212.01168-.16004.04359-.22675.09288-.35567.26275-.57223.67825-.71108 1.08845-.14246.4209-.22535.9034-.2707 1.3774-.08388.8769.64 1.5463 1.45251 1.5463h6.4375c.8125 0 1.5364-.6694 1.4525-1.5463-.0453-.474-.1282-.9565-.2707-1.3774-.1388-.4102-.3554-.8257-.7111-1.08845-.0667-.04929-.1446-.0812-.2267-.09288Z" clip-rule="evenodd"></path>
  </g>
  <defs>
    <linearGradient id="paint0_linear_9380_866" x1="2.457" x2="13.36" y1="2.846" y2="8.887" gradientUnits="userSpaceOnUse">
      <stop stop-color="#ffd600"></stop>
      <stop offset="1" stop-color="#00d078"></stop>
    </linearGradient>
  </defs>
</svg>