<svg xmlns="http://www.w3.org/2000/svg" fill="none" viewBox="0 0 14 14" id="Usb-Port--Streamline-Flex-Gradient">
  <desc>
    Usb Port Streamline Icon: https://streamlinehq.com
  </desc>
  <g id="usb-port--cables-cable-device-port-electronics-cords-cord-usb-connection">
    <path id="Union" fill="url(#paint0_linear_9380_1016)" fill-rule="evenodd" d="M8.5393 3.32564c.18525.37049.63575.52066 1.00624.33541.37048-.18524.52066-.63574.33541-1.00623C9.36033 1.61359 8.34654.599804 7.30534.0791846c-.21114-.105576-.45967-.1055796-.67082-.00001C5.59325.599795 4.57946 1.61358 4.05884 2.65482c-.18525.37049-.03508.82099.33541 1.00623.37048.18525.82098.03508 1.00623-.33541.18916-.37832.48058-.7636.81925-1.10083v6.88193c-.00027.01143-.00027.02289 0 .03438v.02587c-.43221-.15449-.83177-.38979-1.17708-.69393-.16686-.14696-.31937-.30852-.45589-.48242.28606-.35856.41226-.82041.41226-1.32462 0-.57204-.16243-1.08954-.53644-1.46356-.37402-.37401-.89152-.53644-1.46356-.53644-.57203 0-1.08954.16243-1.46355.53644-.37401.37402-.536447.89152-.536447 1.46356 0 .57203.162437 1.08953.536447 1.46355.37401.37401.89152.53645 1.46355.53645.07342 0 .14594-.00268.21737-.00814.23795.34569.5181.66186.83483.94082.28988.25532.6068.4763.94437.6594-.25283.3908-.36864.8714-.36864 1.3991 0 .6817.19328 1.2849.62557 1.7172C5.68481 13.8067 6.288 14 6.96973 14c.68172 0 1.28492-.1933 1.7172-.6256.43229-.4323.62557-1.0355.62557-1.7172s-.19328-1.2849-.62557-1.71718c-.18664-.18664-.40515-.32873-.64808-.42995.47788-.23063.92352-.5257 1.32406-.87803.31769-.27946.60327-.59166.85239-.93069.2422.08249.5075.12092.7857.12092.572 0 1.0895-.16244 1.4635-.53645.374-.37402.5365-.89152.5365-1.46355 0-.57204-.1625-1.08954-.5365-1.46356-.374-.37401-.8915-.53644-1.4635-.53644-.5721 0-1.08956.16243-1.46358.53644-.37401.37402-.53644.89152-.53644 1.46356 0 .28836.04127.56287.13012.81212-.21264.32196-.46764.61517-.75892.87139-.20293.17851-.42142.33727-.65245.47459v-5.7559c.3388.33731.63035.72273.81957 1.10117Z" clip-rule="evenodd"></path>
  </g>
  <defs>
    <linearGradient id="paint0_linear_9380_1016" x1="14.041" x2="-3.727" y1="16.965" y2="6.145" gradientUnits="userSpaceOnUse">
      <stop stop-color="#ffd600"></stop>
      <stop offset="1" stop-color="#ff007a"></stop>
    </linearGradient>
  </defs>
</svg>