<svg xmlns="http://www.w3.org/2000/svg" fill="none" viewBox="0 0 14 14"><g id="dictionary-language-book"><path id="vector" stroke="#3e3e3e" stroke-linecap="round" stroke-linejoin="round" d="M12.5 13.5H3a1.5 1.5 0 1 1 0-3h8.5a1 1 0 0 0 1-1v-8a1 1 0 0 0-1-1H3a1.5 1.5 0 0 0-1.5 1.46v10"></path><path id="vector_2" stroke="#3e3e3e" stroke-linecap="round" stroke-linejoin="round" d="M11.5 10.5v3"></path><path id="vector 3" stroke="#3e3e3e" stroke-linecap="round" stroke-linejoin="round" d="M8.051 5.002h2.316l-2.46 3.473h2.604"></path><path id="vector 1" stroke="#3e3e3e" stroke-linecap="round" stroke-linejoin="round" d="m3.512 5.986 1.066-3.199a.401.401 0 0 1 .38-.274v0c.173 0 .327.11.382.274l1.066 3.199M3.898 4.828H6.02"></path></g></svg>