<svg xmlns="http://www.w3.org/2000/svg" fill="none" viewBox="0 0 14 14" id="Button-Power-1--Streamline-Flex">
  <desc>
    Button Power 1 Streamline Icon: https://streamlinehq.com
  </desc>
  <g id="button-power-1--power-button-on-off">
    <path id="Union" fill="#000000" fill-rule="evenodd" d="M6.25049 0.896728V5.26847c0 0.41421 0.33579 0.75 0.75 0.75s0.75 -0.33579 0.75 -0.75V0.896729c0 -0.414214 -0.33579 -0.75 -0.75 -0.75s-0.75 0.335786 -0.75 0.749999ZM3.90925 3.22089c0.34729 -0.22575 0.44581 -0.69029 0.22006 -1.03758 -0.22576 -0.34728 -0.6903 -0.4458 -1.03759 -0.22005C1.3856 3.07233 0.544922 4.98596 0.544922 7.39797c0 1.96375 0.554628 3.60383 1.703058 4.75223 1.14842 1.1485 2.78851 1.7031 4.75226 1.7031 1.96376 0 3.60386 -0.5546 4.75226 -1.7031 1.1484 -1.1484 1.7031 -2.78848 1.7031 -4.75223 0 -2.41201 -0.8407 -4.32564 -2.5468 -5.43471 -0.3473 -0.22575 -0.8119 -0.12723 -1.03762 0.22005 -0.22575 0.34729 -0.12723 0.81183 0.22002 1.03758 1.1648 0.75717 1.8644 2.11734 1.8644 4.17708 0 1.68765 -0.4724 2.90023 -1.2637 3.69163 -0.79143 0.7914 -2.004 1.2637 -3.69166 1.2637 -1.68765 0 -2.90022 -0.4723 -3.6916 -1.2637 -0.79139 -0.7914 -1.26372 -2.00398 -1.26372 -3.69163 0 -2.05974 0.69956 -3.41991 1.86433 -4.17708Z" clip-rule="evenodd" stroke-width="1"></path>
  </g>
</svg>