<svg xmlns="http://www.w3.org/2000/svg" fill="none" viewBox="0 0 14 14" id="Button-Record-1--Streamline-Flex">
  <desc>
    Button Record 1 Streamline Icon: https://streamlinehq.com
  </desc>
  <g id="button-record-1--button-multimedia-multi-media-controls-record-circle">
    <path id="Subtract" fill="#000000" fill-rule="evenodd" d="M2.02145 2.02145C3.20296 0.839932 4.90797 0.25 7 0.25c2.09203 0 3.797 0.589932 4.9786 1.77145C13.1601 3.20296 13.75 4.90797 13.75 7c0 2.09203 -0.5899 3.797 -1.7714 4.9786C10.797 13.1601 9.09203 13.75 7 13.75c-2.09203 0 -3.79704 -0.5899 -4.97855 -1.7714C0.839932 10.797 0.25 9.09203 0.25 7c0 -2.09203 0.589932 -3.79704 1.77145 -4.97855ZM9.5 7c0 1.6 -0.9 2.5 -2.5 2.5S4.5 8.6 4.5 7 5.4 4.5 7 4.5s2.5 0.9 2.5 2.5Z" clip-rule="evenodd" stroke-width="1"></path>
  </g>
</svg>