<svg xmlns="http://www.w3.org/2000/svg" fill="none" viewBox="0 0 14 14" id="Button-Pause-Circle--Streamline-Flex">
  <desc>
    Button Pause Circle Streamline Icon: https://streamlinehq.com
  </desc>
  <g id="button-pause-circle--controls-pause-multi-media-multimedia-button-circle">
    <path id="Subtract" fill="#000000" fill-rule="evenodd" d="M7 0.25c-2.09203 0 -3.79704 0.589932 -4.97855 1.77145C0.839932 3.20296 0.25 4.90797 0.25 7c0 2.09203 0.589932 3.797 1.77145 4.9786C3.20296 13.1601 4.90797 13.75 7 13.75c2.09203 0 3.797 -0.5899 4.9786 -1.7714C13.1601 10.797 13.75 9.09203 13.75 7c0 -2.09203 -0.5899 -3.79704 -1.7714 -4.97855C10.797 0.839932 9.09203 0.25 7 0.25Zm-1.85431 9.8357c-0.41421 0 -0.75 -0.33579 -0.75 -0.75001l0 -4.67147c0 -0.41422 0.33579 -0.75 0.75 -0.75 0.41422 0 0.75 0.33578 0.75 0.75l0 4.67147c0 0.41422 -0.33579 0.75001 -0.75 0.75001Zm2.95862 -0.75001c0 0.41422 0.33579 0.75001 0.75 0.75001s0.75 -0.33579 0.75 -0.75001l0 -4.67147c0 -0.41422 -0.33579 -0.75 -0.75 -0.75s-0.75 0.33578 -0.75 0.75l0 4.67147Z" clip-rule="evenodd" stroke-width="1"></path>
  </g>
</svg>