<svg xmlns="http://www.w3.org/2000/svg" fill="none" viewBox="0 0 14 14" id="Esports--Streamline-Flex">
  <desc>
    Esports Streamline Icon: https://streamlinehq.com
  </desc>
  <g id="esports--entertainment-gaming-esports">
    <path id="Union" fill="#000000" fill-rule="evenodd" d="M4.41574 4.57443c-0.092 -0.01006 -0.18364 -0.02008 -0.27491 -0.02993 -0.48005 -0.0518 -0.86386 -0.43102 -0.90982 -0.91166 -0.07483 -0.78243 -0.15871 -1.71884 -0.19924 -2.53272 -0.01907 -0.383116 0.38958 -0.623744 0.72291 -0.43391l1.64907 0.93917L6.67472 0.518445c0.18711 -0.16001 0.46284 -0.16001 0.64994 0L8.59564 1.60538 10.2447 0.66621c0.3333 -0.189834 0.742 0.050793 0.7229 0.43391 -0.0405 0.81388 -0.1244 1.75029 -0.1992 2.53272 -0.046 0.48064 -0.4298 0.85986 -0.90984 0.91166 -0.09127 0.00985 -0.18291 0.01987 -0.27491 0.02993 -0.83454 0.09124 -1.69874 0.18572 -2.58396 0.18572 -0.88521 0 -1.74941 -0.09448 -2.58395 -0.18572Zm-0.40901 1.21282c0.09046 0.00976 0.18239 0.01984 0.27567 0.03006l0.00002 0 0.00001 0c0.82657 0.09057 1.75955 0.1928 2.71727 0.1928 0.95773 0 1.89071 -0.10223 2.71728 -0.1928l0.00002 0c0.09328 -0.01022 0.18521 -0.0203 0.27567 -0.03006 0.50603 -0.0546 0.96753 -0.27528 1.32233 -0.61011 0.0851 -0.08032 0.2128 -0.10424 0.3111 -0.04077 0.7049 0.45507 1.2006 1.19817 1.2897 2.07941 0.1314 1.30159 0.2207 2.73597 0.2158 4.04412 -0.0055 1.4515 -1.347 2.6923 -2.5752 1.9188 -0.77128 -0.4858 -1.18123 -1.2121 -1.335 -1.9263 -0.02612 -0.1213 -0.13038 -0.2125 -0.25446 -0.2125H5.03202c-0.12408 0 -0.22834 0.0912 -0.25446 0.2125 -0.15376 0.7142 -0.56371 1.4405 -1.33499 1.9263 -1.22824 0.7735 -2.569665 -0.4673 -2.575185 -1.9188 -0.004975 -1.30815 0.084341 -2.74253 0.215825 -4.04412 0.08903 -0.88136 0.58489 -1.62454 1.28992 -2.0796 0.09832 -0.06345 0.22602 -0.03952 0.31111 0.0408 0.35478 0.33492 0.8164 0.55566 1.32249 0.61027ZM2.97498 8.32534c0 -0.34518 0.27982 -0.625 0.625 -0.625h0.19677v-0.19678c0 -0.34518 0.27983 -0.625 0.625 -0.625 0.34518 0 0.625 0.27982 0.625 0.625v0.19678h0.19708c0.34518 0 0.625 0.27982 0.625 0.625s-0.27982 0.625 -0.625 0.625h-0.19708v0.19708c0 0.34518 -0.27982 0.625 -0.625 0.625s-0.625 -0.27982 -0.625 -0.625v-0.19708h-0.19677c-0.34518 0 -0.625 -0.27982 -0.625 -0.625Zm6.36511 -0.73365c0.34518 0 0.625 0.27983 0.625 0.625v0.21741c0 0.34518 -0.27982 0.625 -0.625 0.625s-0.625 -0.27982 -0.625 -0.625v-0.21741c0 -0.34517 0.27982 -0.625 0.625 -0.625Z" clip-rule="evenodd" stroke-width="1"></path>
  </g>
</svg>