<svg xmlns="http://www.w3.org/2000/svg" fill="none" viewBox="0 0 14 14" id="Play-List-4--Streamline-Flex">
  <desc>
    Play List 4 Streamline Icon: https://streamlinehq.com
  </desc>
  <g id="play-list-4--screen-television-display-player-movies-players-tv-media-video-entertainment">
    <path id="Subtract" fill="#000000" fill-rule="evenodd" d="M3.65727 0.474686C4.73112 0.35499 5.85168 0.25 7 0.25s2.26888 0.10499 3.3427 0.224686c1.672 0.186363 3.0154 1.528614 3.1946 3.203594 0.1143 1.0683 0.2127 2.18136 0.2127 3.32172 0 1.14035 -0.0984 2.25341 -0.2127 3.3217 -0.1792 1.675 -1.5226 3.0173 -3.1946 3.2036C9.26888 13.645 8.14832 13.75 7 13.75c-1.14832 0 -2.26888 -0.105 -3.34273 -0.2247C1.98532 13.339 0.641908 11.9967 0.462704 10.3217 0.348408 9.25341 0.25 8.14035 0.25 7c0 -1.14036 0.098408 -2.25342 0.212704 -3.32172C0.641907 2.0033 1.98532 0.661049 3.65727 0.474686ZM4.66145 9.34377c-0.11174 -0.73028 -0.2358 -1.68863 -0.2358 -2.34375 0 -0.65514 0.12411 -1.61353 0.23589 -2.3438 0.08694 -0.56799 0.64632 -0.93156 1.19263 -0.75348 1.58616 0.51705 3.07389 1.33151 4.07809 2.57997 0.24364 0.30285 0.24354 0.73176 -0.00004 1.0346 -1.00428 1.24843 -2.49196 2.06292 -4.07813 2.57999 -0.54633 0.1781 -1.10573 -0.18552 -1.19264 -0.75353Z" clip-rule="evenodd" stroke-width="1"></path>
  </g>
</svg>