<svg xmlns="http://www.w3.org/2000/svg" fill="none" viewBox="0 0 48 48" id="Location-Pin-Disabled--Streamline-Plump-Remix">
  <desc>
    Location Pin Disabled Streamline Icon: https://streamlinehq.com
  </desc>
  <g id="location-pin-disabled--navigation-map-maps-pin-gps-location-disabled-off">
    <path id="Union" fill="#000000" fill-rule="evenodd" d="M3.91421 1.08579c-0.78105 -0.781052 -2.04738 -0.781052 -2.82842 0 -0.781053 0.78104 -0.781053 2.04737 0 2.82842L44.0858 46.9142c0.781 0.7811 2.0474 0.7811 2.8284 0 0.7811 -0.781 0.7811 -2.0474 0 -2.8284l-8.0177 -8.0177c3.1466 -3.9518 5.672 -8.9943 5.672 -14.9999C44.5685 9.70869 35.3598 0.5 24.0003 0.5 18.2935 0.5 13.1289 2.82595 9.40471 6.57628l-5.4905 -5.49049ZM18.774 15.9456l10.349 10.349c1.3554 -1.3285 2.1956 -3.1795 2.1956 -5.2264 0 -4.0417 -3.2765 -7.3182 -7.3182 -7.3182 -2.0469 0 -3.8979 0.8402 -5.2264 2.1956ZM7.33403 12.6293c1.03315 0.3908 1.5539 1.5451 1.16315 2.5782 -0.68804 1.8192 -1.06554 3.7932 -1.06554 5.86 0 5.3207 2.45968 9.8712 5.66546 13.5444 3.2072 3.6748 7.0429 6.3302 9.4756 7.804 0.8917 0.5402 1.9625 0.5402 2.8543 0 1.4123 -0.8556 3.3152 -2.12 5.2969 -3.7621 0.8506 -0.7048 2.1114 -0.5866 2.8161 0.264 0.7048 0.8505 0.5866 2.1113 -0.2639 2.816 -2.1672 1.7958 -4.239 3.1718 -5.7766 4.1033 -2.1657 1.3119 -4.8337 1.3119 -6.9994 0 -2.6172 -1.5855 -6.8339 -4.4899 -10.4166 -8.595 -3.58409 -4.1066 -6.65186 -9.556 -6.65186 -16.1746 0 -2.5576 0.46777 -5.0107 1.3242 -7.275 0.39075 -1.0332 1.54505 -1.5539 2.57819 -1.1632Z" clip-rule="evenodd" stroke-width="1"></path>
  </g>
</svg>