<svg xmlns="http://www.w3.org/2000/svg" fill="none" viewBox="0 0 48 48" id="Park--Streamline-Plump-Remix">
  <desc>
    Park Streamline Icon: https://streamlinehq.com
  </desc>
  <g id="park--bench-relax-location-outdoor-recreation-travel-places">
    <path id="Union" fill="#000000" fill-rule="evenodd" d="M8.1713 4.5316c2.5507 -0.212 7.3864 -0.4701 15.8287 -0.4701 8.4424 0 13.278 0.2581 15.8287 0.4701 2.3984 0.1994 4.2974 2.0239 4.4878 4.5378 0.0778 1.0286 0.1357 2.397 0.1357 4.1956s-0.0579 3.167 -0.1357 4.1956c-0.1901 2.5104 -2.0842 4.3334 -4.4778 4.537 0.0075 0.9117 0.0118 1.8093 0.0118 2.5162 0 0.5185 -0.0024 1.3382 -0.0065 2.1883 2.3837 0.049 3.614 0.092 3.6519 0.0935l0.0072 0.0002 0.0017 0.0001c0.8305 0.0315 1.7283 0.2742 2.4856 0.8563 0.7925 0.6092 1.3125 1.5035 1.4418 2.5644 0.1171 0.9608 0.1171 1.9499 0 2.9107 -0.1293 1.0609 -0.6492 1.9553 -1.4418 2.5644 -0.6259 0.4812 -1.3475 0.7304 -2.048 0.8203 0.0008 1.6492 -0.0239 3.3038 -0.1102 4.9571 -0.0707 1.3537 -1.0327 2.4347 -2.4496 2.4642 -0.1577 0.0034 -0.3275 0.0052 -0.5099 0.0052s-0.3521 -0.0018 -0.51 -0.0052c-1.4167 -0.0295 -2.3789 -1.1105 -2.4496 -2.4642 -0.0833 -1.5974 -0.1088 -3.1958 -0.1098 -4.7892 -3.2481 0.0544 -7.8662 0.1051 -13.8033 0.1051 -5.9375 0 -10.5557 -0.0507 -13.8037 -0.1051 -0.0011 1.5934 -0.0265 3.1919 -0.1099 4.7892 -0.0706 1.3537 -1.0328 2.4347 -2.4495 2.4643 -0.1579 0.0032 -0.3276 0.0051 -0.51 0.0051s-0.3522 -0.0019 -0.51 -0.0051c-1.4168 -0.0296 -2.3789 -1.1106 -2.4496 -2.4643 -0.0863 -1.6533 -0.1109 -3.308 -0.1102 -4.9572 -0.7002 -0.0899 -1.4215 -0.3392 -2.0473 -0.82 -0.7925 -0.6092 -1.3127 -1.5036 -1.442 -2.5645 -0.1171 -0.9609 -0.1171 -1.95 0 -2.9108 0.1293 -1.061 0.6495 -1.9553 1.442 -2.5644 0.7574 -0.5821 1.6547 -0.8248 2.4853 -0.8563l0.002 -0.0001 0.0072 -0.0002c0.0379 -0.0015 1.2681 -0.0445 3.6517 -0.0935 -0.0041 -0.8501 -0.0064 -1.6698 -0.0064 -2.1883 0 -0.7069 0.0043 -1.6045 0.0117 -2.5162 -2.3936 -0.2036 -4.2876 -2.0266 -4.4777 -4.537 -0.0779 -1.0286 -0.1358 -2.397 -0.1358 -4.1956s0.0579 -3.167 0.1358 -4.1956C3.8739 6.5555 5.773 4.731 8.1713 4.5316Zm6.1081 22.0768c2.697 -0.0289 5.9417 -0.0495 9.7206 -0.0495 3.779 0 7.0236 0.0206 9.7206 0.0495 -0.0037 -0.8196 -0.0058 -1.6031 -0.0058 -2.0946 0 -0.6031 0.0032 -1.3796 0.0087 -2.1872 -2.5232 0.0838 -5.7172 0.1419 -9.7235 0.1419s-7.2003 -0.0581 -9.7235 -0.1419c0.0057 0.8076 0.0087 1.5841 0.0087 2.1872 0 0.4915 -0.002 1.275 -0.0058 2.0946ZM24 8.152c-8.3658 0 -13.0832 0.256 -15.4898 0.456 -0.432 0.0359 -0.712 0.2969 -0.7479 0.7703 -0.0689 0.91 -0.124 2.174 -0.124 3.8867s0.0551 2.9767 0.124 3.8867c0.0359 0.4734 0.3159 0.7344 0.7478 0.7703 2.4067 0.2 7.1241 0.456 15.4899 0.456s13.0833 -0.256 15.4899 -0.456c0.4319 -0.0359 0.7119 -0.2969 0.7478 -0.7703 0.0689 -0.91 0.1241 -2.174 0.1241 -3.8867s-0.0552 -2.9767 -0.1241 -3.8867c-0.0359 -0.4734 -0.3159 -0.7344 -0.7478 -0.7703 -2.4066 -0.2 -7.124 -0.456 -15.4899 -0.456Zm0 22.4974c-12.6076 0 -19.222 0.2294 -19.3499 0.2339 -0.0146 0.0006 -0.0283 0.0015 -0.0411 0.0026 -0.0514 0.5196 -0.0514 1.0526 0 1.5721 0.0127 0.0012 0.0264 0.002 0.041 0.0026 0.1256 0.0044 6.7401 0.234 19.35 0.234 12.61 0 19.2247 -0.2296 19.3502 -0.234 0.0146 -0.0006 0.0282 -0.0014 0.0408 -0.0026 0.0515 -0.5195 0.0515 -1.0525 0 -1.5722 -0.0126 -0.001 -0.0262 -0.0019 -0.0408 -0.0025 -0.1262 -0.0044 -6.7408 -0.2339 -19.3502 -0.2339Z" clip-rule="evenodd" stroke-width="1"></path>
  </g>
</svg>