<svg xmlns="http://www.w3.org/2000/svg" fill="none" viewBox="0 0 14 14" id="Inbox-Tray-2--Streamline-Core">
  <desc>
    Inbox Tray 2 Streamline Icon: https://streamlinehq.com
  </desc>
  <g id="inbox-tray-2--mail-email-outbox-drawer-empty-open-inbox-arrow-up">
    <path id="Vector 3970" fill="#7af1ff" d="M2 13c-0.55228 0 -1 -0.4477 -1 -1V8h4v0.5c0 1.10457 0.89543 2 2 2s2 -0.89543 2 -2V8h4v4c0 0.5523 -0.4477 1 -1 1H2Z" stroke-width="1"></path>
    <path id="Union" fill="#0c098c" fill-rule="evenodd" d="M7.35355 0.146447c-0.19526 -0.1952625 -0.51184 -0.1952625 -0.7071 0l-2.5 2.500003c-0.143 0.143 -0.18578 0.35805 -0.10839 0.54489S4.29777 3.5 4.5 3.5h1.875v2.875c0 0.34518 0.27982 0.625 0.625 0.625s0.625 -0.27982 0.625 -0.625V3.5H9.5c0.20223 0 0.38455 -0.12182 0.46194 -0.30866 0.07736 -0.18684 0.03461 -0.40189 -0.10839 -0.54489l-2.5 -2.500003ZM1 7.375c-0.345178 0 -0.625 0.27982 -0.625 0.625v4c0 0.8975 0.72754 1.625 1.625 1.625h10c0.8975 0 1.625 -0.7275 1.625 -1.625V8c0 -0.34518 -0.2798 -0.625 -0.625 -0.625H9c-0.34518 0 -0.625 0.27982 -0.625 0.625v0.5c0 0.75939 -0.61561 1.375 -1.375 1.375S5.625 9.25939 5.625 8.5V8c0 -0.34518 -0.27982 -0.625 -0.625 -0.625H1ZM1.625 12V8.625h2.75292c0.06525 1.3917 1.21424 2.5 2.62208 2.5s2.55683 -1.1083 2.62208 -2.5H12.375V12c0 0.2071 -0.1679 0.375 -0.375 0.375H2c-0.20711 0 -0.375 -0.1679 -0.375 -0.375Z" clip-rule="evenodd" stroke-width="1"></path>
  </g>
</svg>