<svg xmlns="http://www.w3.org/2000/svg" fill="none" viewBox="0 0 14 14" id="Smiley-Smirk--Streamline-Core">
  <desc>
    Smiley Smirk Streamline Icon: https://streamlinehq.com
  </desc>
  <g id="smiley-smirk">
    <path id="Vector" fill="#7af1ff" d="M7 13.375c3.5208 0 6.375 -2.8542 6.375 -6.375C13.375 3.47918 10.5208 0.625 7 0.625 3.47918 0.625 0.625 3.47918 0.625 7c0 3.5208 2.85418 6.375 6.375 6.375Z" stroke-width="1"></path>
    <path id="Union" fill="#0c098c" fill-rule="evenodd" d="M1.25 7c0 -3.17564 2.57436 -5.75 5.75 -5.75 3.1756 0 5.75 2.57436 5.75 5.75 0 3.1756 -2.5744 5.75 -5.75 5.75 -3.17564 0 -5.75 -2.5744 -5.75 -5.75ZM7 0C3.13401 0 0 3.13401 0 7c0 3.866 3.13401 7 7 7 3.866 0 7 -3.134 7 -7 0 -3.86599 -3.134 -7 -7 -7ZM3.75 5.25c0 0.55228 0.44772 1 1 1s1 -0.44772 1 -1 -0.44772 -1 -1 -1 -1 0.44772 -1 1Zm5.5 -1c0.55228 0 1 0.44772 1 1s-0.44772 1 -1 1 -1 -0.44772 -1 -1 0.44772 -1 1 -1Zm0.67872 3.51595c0.41078 0.05306 0.70078 0.4291 0.64778 0.8399 -0.0448 0.34654 -0.2155 0.6663 -0.394 0.91554 -0.18704 0.26123 -0.42863 0.50931 -0.69522 0.71321 -0.26658 0.204 -0.56916 0.3723 -0.87021 0.4846 -0.28724 0.1071 -0.6405 0.1883 -0.98669 0.1409 -0.41039 -0.0562 -0.69752 -0.4345 -0.64133 -0.8449 0.05619 -0.41034 0.43442 -0.69747 0.8448 -0.64128l-0.00043 -0.00012c0.00349 0.00013 0.02491 0.00094 0.06715 -0.00606 0.04997 -0.00828 0.11517 -0.02522 0.19248 -0.05404 0.15645 -0.05833 0.3292 -0.15287 0.48272 -0.27034 0.15352 -0.11747 0.28994 -0.25949 0.38715 -0.39524 0.04803 -0.06709 0.08143 -0.12559 0.10249 -0.17166 0.0178 -0.03894 0.02262 -0.05983 0.0234 -0.06323 0.00008 -0.00033 0.00011 -0.0005 0.00012 -0.00049l-0.00011 0.00094c0.05306 -0.4108 0.4291 -0.7008 0.8399 -0.64773Z" clip-rule="evenodd" stroke-width="1"></path>
  </g>
</svg>