<svg xmlns="http://www.w3.org/2000/svg" fill="none" viewBox="0 0 14 14" id="Smiley-Emoji-Kiss-Nervous--Streamline-Core">
  <desc>
    Smiley Emoji Kiss Nervous Streamline Icon: https://streamlinehq.com
  </desc>
  <g id="smiley-emoji-kiss-nervous">
    <path id="Vector" fill="#7af1ff" d="M7 13.375c3.5208 0 6.375 -2.8542 6.375 -6.375C13.375 3.47918 10.5208 0.625 7 0.625 3.47918 0.625 0.625 3.47918 0.625 7c0 3.5208 2.85418 6.375 6.375 6.375Z" stroke-width="1"></path>
    <path id="Union" fill="#0c098c" fill-rule="evenodd" d="M1.25 7c0 -3.17564 2.57436 -5.75 5.75 -5.75 3.1756 0 5.75 2.57436 5.75 5.75 0 3.1756 -2.5744 5.75 -5.75 5.75 -3.17564 0 -5.75 -2.5744 -5.75 -5.75ZM7 0C3.13401 0 0 3.13401 0 7c0 3.866 3.13401 7 7 7 3.866 0 7 -3.134 7 -7 0 -3.86599 -3.134 -7 -7 -7ZM2.9 3.55c0.24853 -0.33137 0.71863 -0.39853 1.05 -0.15l2 1.5c0.20795 0.15596 0.32031 0.40847 0.29697 0.66735 -0.02334 0.25889 -0.17907 0.48722 -0.41156 0.60347l-2 1c-0.37048 0.18524 -0.82099 0.03507 -1.00623 -0.33541 -0.18524 -0.37048 -0.03507 -0.82099 0.33541 -1.00623l0.91459 -0.4573L3.05 4.6c-0.33137 -0.24853 -0.39853 -0.71863 -0.15 -1.05Zm8.05 1.05c0.3314 -0.24853 0.3985 -0.71863 0.15 -1.05 -0.2485 -0.33137 -0.7186 -0.39853 -1.05 -0.15l-2 1.5c-0.20795 0.15596 -0.32031 0.40847 -0.29697 0.66735 0.02334 0.25889 0.17907 0.48722 0.41156 0.60347l2.00001 1c0.3705 0.18524 0.821 0.03507 1.0062 -0.33541 0.1853 -0.37048 0.0351 -0.82099 -0.3354 -1.00623l-0.91458 -0.4573L10.95 4.6ZM7.14014 6.51831c-0.40478 -0.08791 -0.80418 0.16895 -0.8921 0.57373 -0.08791 0.40478 0.16896 0.80418 0.57374 0.89209l0.44657 0.09699c0.0301 0.00654 0.04473 0.01761 0.05386 0.02695 0.0114 0.01166 0.02239 0.02976 0.028 0.05322s0.00401 0.04458 -0.00088 0.06013c-0.00392 0.01246 -0.01195 0.02895 -0.03584 0.04841l-0.36866 0.30025c-0.17488 0.14243 -0.27637 0.35599 -0.27637 0.58153 0 0.22554 0.10149 0.4391 0.27637 0.58153l0.36866 0.30026c0.02389 0.0195 0.03192 0.0359 0.03584 0.0484 0.00489 0.0156 0.00649 0.0367 0.00088 0.0601 -0.00561 0.0235 -0.0166 0.0416 -0.028 0.0533 -0.00913 0.0093 -0.02376 0.0204 -0.05386 0.0269l-0.44657 0.097c-0.40478 0.0879 -0.66165 0.4873 -0.57374 0.8921 0.08792 0.4048 0.48732 0.6616 0.8921 0.5737l0.44657 -0.097c1.18324 -0.257 1.62782 -1.6411 0.94709 -2.53629 0.68073 -0.89515 0.23615 -2.27933 -0.9471 -2.53631l-0.44656 -0.09699Z" clip-rule="evenodd" stroke-width="1"></path>
  </g>
</svg>