<svg xmlns="http://www.w3.org/2000/svg" fill="none" viewBox="0 0 14 14"><g id="code-monitor-2--code-tags-angle-image-ui-ux-design"><path id="Vector" fill="#37d7ff" d="M5 13.5 6 11h2l1 2.5H5Z"></path><path id="Subtract" fill="#ffffff" fill-rule="evenodd" d="M1 2h6.5v5l1.21-1a2 2 0 0 1 2.55 0l2.24 2v2.5a.5.5 0 0 1-.5.5H1a.5.5 0 0 1-.5-.5v-8A.5.5 0 0 1 1 2Z" clip-rule="evenodd"></path><path id="Vector_2" fill="#37d7ff" d="M13.5 2.5A.5.5 0 0 0 13 2H7.5v5l1.21-1a2 2 0 0 1 2.55 0l2.24 2V2.5Z"></path><path id="Vector_3" stroke="#3e3e3e" stroke-linecap="round" stroke-linejoin="round" d="m6 11-1 2.5"></path><path id="Vector_4" stroke="#3e3e3e" stroke-linecap="round" stroke-linejoin="round" d="m8 11 1 2.5"></path><path id="Vector_5" stroke="#3e3e3e" stroke-linecap="round" stroke-linejoin="round" d="M4 13.5h6"></path><path id="Vector_6" stroke="#3e3e3e" stroke-linecap="round" stroke-linejoin="round" d="M3 5h2"></path><path id="Vector_7" stroke="#3e3e3e" stroke-linecap="round" stroke-linejoin="round" d="M3 8h1"></path><path id="Vector_8" stroke="#3e3e3e" stroke-linecap="round" stroke-linejoin="round" d="M13 2H1a.5.5 0 0 0-.5.5v8a.5.5 0 0 0 .5.5h12a.5.5 0 0 0 .5-.5v-8A.5.5 0 0 0 13 2Z"></path><path id="Vector_9" stroke="#3e3e3e" stroke-linecap="round" stroke-linejoin="round" d="M7.5 2v9"></path><path id="Vector_10" stroke="#3e3e3e" stroke-linecap="round" stroke-linejoin="round" d="m7.5 7 1.21-1a2 2 0 0 1 2.55 0l2.24 2"></path></g></svg>