<svg xmlns="http://www.w3.org/2000/svg" fill="none" viewBox="0 0 14 14"><g id="web--server-world-internet-earth-www-globe-worldwide-web-network"><path id="Vector" fill="#37d7ff" d="M7 13.5a6.5 6.5 0 1 0 0-13 6.5 6.5 0 0 0 0 13Z"></path><path id="Vector_2" stroke="#3e3e3e" stroke-linecap="round" stroke-linejoin="round" d="M7 13.5a6.5 6.5 0 1 0 0-13 6.5 6.5 0 0 0 0 13Z"></path><path id="Vector_3" stroke="#3e3e3e" stroke-linecap="round" stroke-linejoin="round" d="M.5 7h13"></path><path id="Vector_4" stroke="#3e3e3e" stroke-linecap="round" stroke-linejoin="round" d="M9.5 7A11.22 11.22 0 0 1 7 13.5 11.22 11.22 0 0 1 4.5 7 11.22 11.22 0 0 1 7 .5 11.22 11.22 0 0 1 9.5 7v0Z"></path></g></svg>