<svg xmlns="http://www.w3.org/2000/svg" viewBox="0 0 14 14">
  <g>
    <path d="M13.05,5.44a3.23,3.23,0,0,0-2.88-.89.25.25,0,0,0-.2.23,5.85,5.85,0,0,1-.19,1,.25.25,0,0,0,.07.26.25.25,0,0,0,.26,0A1.74,1.74,0,0,1,12,9l-.65.65a.28.28,0,0,1-.17.07A.29.29,0,0,1,11,9.61L9.14,7.76A.26.26,0,0,0,9,7.69a.24.24,0,0,0-.18.09,6.29,6.29,0,0,1-.65.71A.25.25,0,0,0,8,8.67a.24.24,0,0,0,.07.18l1.82,1.82a.24.24,0,0,1,0,.35L9,12A1.74,1.74,0,0,1,6.13,10.1a.27.27,0,0,0,0-.26.26.26,0,0,0-.25-.08,5.16,5.16,0,0,1-1,.19.25.25,0,0,0-.22.21A3.23,3.23,0,0,0,10,13l1.66-1.67h0L13.05,10A3.25,3.25,0,0,0,13.05,5.44Z" style="fill: #000001"/>
    <path d="M4.25,0A4.25,4.25,0,1,0,8.5,4.24,4.25,4.25,0,0,0,4.25,0Zm0,1.5A2.75,2.75,0,0,1,6.76,3.14a.27.27,0,0,1,0,.23.27.27,0,0,1-.21.12H2a.27.27,0,0,1-.21-.12.27.27,0,0,1,0-.23A2.75,2.75,0,0,1,4.25,1.49Zm0,5.5A2.75,2.75,0,0,1,1.74,5.34a.29.29,0,0,1,0-.24A.26.26,0,0,1,2,5H6.53a.26.26,0,0,1,.21.11.29.29,0,0,1,0,.24A2.75,2.75,0,0,1,4.25,7Z" style="fill: #000001"/>
  </g>
</svg>
