<svg xmlns="http://www.w3.org/2000/svg" viewBox="0 0 14 14">
  <path d="M13.67,5.63a.53.53,0,0,0,.2-.73L12.25,2.1a.54.54,0,0,0-.32-.25.53.53,0,0,0-.41,0L10,2.8a.52.52,0,0,1-.54,0,.54.54,0,0,1-.27-.46V.54A.54.54,0,0,0,8.62,0H5.38a.54.54,0,0,0-.53.54v1.8a.54.54,0,0,1-.27.46A.52.52,0,0,1,4,2.8L2.48,1.9a.53.53,0,0,0-.41,0,.54.54,0,0,0-.32.25L.13,4.9a.53.53,0,0,0,.2.73l1.55.9a.54.54,0,0,1,0,.94l-1.55.9a.53.53,0,0,0-.2.73l1.62,2.8a.54.54,0,0,0,.32.25.53.53,0,0,0,.41-.05L4,11.2a.52.52,0,0,1,.54,0,.54.54,0,0,1,.27.46v1.8a.54.54,0,0,0,.53.54H8.62a.54.54,0,0,0,.53-.54v-1.8a.54.54,0,0,1,.27-.46.52.52,0,0,1,.54,0l1.56.9a.53.53,0,0,0,.41.05.54.54,0,0,0,.32-.25l1.62-2.8a.53.53,0,0,0-.2-.73l-1.55-.9a.54.54,0,0,1,0-.94Z" style="fill: #000001"/>
</svg>
