<svg xmlns="http://www.w3.org/2000/svg" viewBox="0 0 14 14">
  <g>
    <path d="M11.25,3H10a.25.25,0,0,1-.25-.24,2.74,2.74,0,1,0-5.48,0A.25.25,0,0,1,4,3H2.75A2.75,2.75,0,0,0,0,5.75v5.5A2.75,2.75,0,0,0,2.75,14h8.5A2.75,2.75,0,0,0,14,11.25V5.75A2.75,2.75,0,0,0,11.25,3ZM7,1.5A1.22,1.22,0,0,1,8.24,2.72a.31.31,0,0,1-.07.2A.23.23,0,0,1,8,3H6a.23.23,0,0,1-.18-.08.31.31,0,0,1-.07-.2A1.22,1.22,0,0,1,7,1.5Zm5.5,9.75a1.25,1.25,0,0,1-1.25,1.25H2.75A1.25,1.25,0,0,1,1.5,11.25V5.75A1.25,1.25,0,0,1,2.75,4.5h8.5A1.25,1.25,0,0,1,12.5,5.75Z" style="fill: #000001"/>
    <path d="M9,7.75H8a.25.25,0,0,1-.25-.25v-1a.75.75,0,0,0-1.5,0v1A.25.25,0,0,1,6,7.75H5a.75.75,0,0,0,0,1.5H6a.25.25,0,0,1,.25.25v1a.75.75,0,0,0,1.5,0v-1A.25.25,0,0,1,8,9.25H9a.75.75,0,0,0,0-1.5Z" style="fill: #000001"/>
  </g>
</svg>
