<svg xmlns="http://www.w3.org/2000/svg" viewBox="0 0 14 14">
  <g>
    <path d="M4.77,12.62a.26.26,0,0,0-.22-.12H1.75a.25.25,0,0,1-.25-.25V4.75a.25.25,0,0,1,.25-.25H7.36l.1,0A5.62,5.62,0,0,1,9.75,4a5.69,5.69,0,0,1,3.83,1.47.25.25,0,0,0,.27,0A.25.25,0,0,0,14,5.28v-4A1.25,1.25,0,0,0,12.75,0H1.25A1.25,1.25,0,0,0,0,1.25v11.5A1.25,1.25,0,0,0,1.25,14h4a.25.25,0,0,0,.23-.15.25.25,0,0,0,0-.27A5.63,5.63,0,0,1,4.77,12.62Z" style="fill: #000001"/>
    <path d="M9.75,14A4.25,4.25,0,1,1,14,9.75,4.26,4.26,0,0,1,9.75,14Zm0-7A2.75,2.75,0,1,0,12.5,9.75,2.75,2.75,0,0,0,9.75,7Z" style="fill: #000001"/>
    <path d="M9.75,10.5a.74.74,0,0,1-.53-.22.75.75,0,0,1,0-1.06L10,8.47A.75.75,0,0,1,11,9.53l-.75.75A.74.74,0,0,1,9.75,10.5Z" style="fill: #000001"/>
  </g>
</svg>
