<svg xmlns="http://www.w3.org/2000/svg" fill="none" viewBox="0 0 14 14"><g id="shelf--shelf-drawer-cabinet-prodcut-decoration-furniture"><path id="Vector" fill="#37d7ff" d="M12.5 12.5v-5h-11v5a1 1 0 0 0 1 1h9a1 1 0 0 0 1-1Z"></path><path id="Subtract" fill="#ffffff" fill-rule="evenodd" d="M2.5.5h9a1 1 0 0 1 1 1v6h-11v-6a1 1 0 0 1 1-1Z" clip-rule="evenodd"></path><path id="Vector_2" stroke="#3e3e3e" stroke-linecap="round" stroke-linejoin="round" d="M11.5.5h-9a1 1 0 0 0-1 1v11a1 1 0 0 0 1 1h9a1 1 0 0 0 1-1v-11a1 1 0 0 0-1-1Z"></path><path id="Vector_3" stroke="#3e3e3e" stroke-linecap="round" stroke-linejoin="round" d="M1.5 4h11"></path><path id="Vector_4" stroke="#3e3e3e" stroke-linecap="round" stroke-linejoin="round" d="M1.5 7.5h11"></path><path id="Vector_5" stroke="#3e3e3e" stroke-linecap="round" stroke-linejoin="round" d="M7 7.5v6"></path><path id="Vector_6" stroke="#3e3e3e" stroke-linecap="round" stroke-linejoin="round" d="M9.5 10v1"></path><path id="Vector_7" stroke="#3e3e3e" stroke-linecap="round" stroke-linejoin="round" d="M4.5 10v1"></path></g></svg>