<svg xmlns="http://www.w3.org/2000/svg" fill="none" viewBox="0 0 14 14"><g id="shopping-cart-2--shopping-cart-checkout"><path id="Vector" fill="#37d7ff" d="M12.182 7.5h-8.18l-1-5h10a.5.5 0 0 1 .49.59l-.82 4a.49.49 0 0 1-.49.41Z"></path><path id="Vector_2" stroke="#3e3e3e" stroke-linecap="round" stroke-linejoin="round" d="M12.182 7.5h-8.18l-1-5h10a.5.5 0 0 1 .49.59l-.82 4a.49.49 0 0 1-.49.41v0Z"></path><path id="Vector_3" stroke="#3e3e3e" stroke-linecap="round" stroke-linejoin="round" d="M3.002 2.5 2.582.9a.5.5 0 0 0-.49-.4H.502"></path><path id="Vector_4" stroke="#3e3e3e" stroke-linecap="round" stroke-linejoin="round" d="m4.002 7.5.42 2.1a.5.5 0 0 0 .49.4h6.09"></path><path id="Vector_5" stroke="#3e3e3e" stroke-linecap="round" stroke-linejoin="round" d="M10.502 13.5a.5.5 0 1 1 0-1 .5.5 0 0 1 0 1Z"></path><path id="Vector_6" stroke="#3e3e3e" stroke-linecap="round" stroke-linejoin="round" d="M5.502 13.5a.5.5 0 1 1 0-1 .5.5 0 0 1 0 1Z"></path></g></svg>