<svg xmlns="http://www.w3.org/2000/svg" viewBox="0 0 14 14">
  <g>
    <g>
      <line x1="5.53" y1="10.85" x2="6.37" y2="13.2" style="fill: none;stroke: #000001;stroke-linecap: round;stroke-linejoin: round"/>
      <line x1="1.98" y1="0.97" x2="2.32" y2="1.91" style="fill: none;stroke: #000001;stroke-linecap: round;stroke-linejoin: round"/>
      <line x1="5.53" y1="10.85" x2="3.78" y2="10.42" style="fill: none;stroke: #000001;stroke-linecap: round;stroke-linejoin: round"/>
      <line x1="5.53" y1="10.85" x2="6.6" y2="9.4" style="fill: none;stroke: #000001;stroke-linecap: round;stroke-linejoin: round"/>
      <line x1="4.68" y1="8.5" x2="2.93" y2="8.06" style="fill: none;stroke: #000001;stroke-linecap: round;stroke-linejoin: round"/>
      <line x1="4.68" y1="8.5" x2="5.76" y2="7.05" style="fill: none;stroke: #000001;stroke-linecap: round;stroke-linejoin: round"/>
      <line x1="3.84" y1="6.14" x2="2.09" y2="5.71" style="fill: none;stroke: #000001;stroke-linecap: round;stroke-linejoin: round"/>
      <line x1="3.84" y1="6.14" x2="4.91" y2="4.7" style="fill: none;stroke: #000001;stroke-linecap: round;stroke-linejoin: round"/>
      <line x1="2.99" y1="3.79" x2="1.24" y2="3.36" style="fill: none;stroke: #000001;stroke-linecap: round;stroke-linejoin: round"/>
      <line x1="2.99" y1="3.79" x2="4.07" y2="2.34" style="fill: none;stroke: #000001;stroke-linecap: round;stroke-linejoin: round"/>
    </g>
    <g>
      <line x1="9.51" y1="10.25" x2="8.95" y2="12.5" style="fill: none;stroke: #000001;stroke-linecap: round;stroke-linejoin: round"/>
      <line x1="11.85" y1="0.8" x2="11.63" y2="1.7" style="fill: none;stroke: #000001;stroke-linecap: round;stroke-linejoin: round"/>
      <line x1="9.51" y1="10.25" x2="8.38" y2="9.01" style="fill: none;stroke: #000001;stroke-linecap: round;stroke-linejoin: round"/>
      <line x1="9.51" y1="10.25" x2="11.08" y2="9.69" style="fill: none;stroke: #000001;stroke-linecap: round;stroke-linejoin: round"/>
      <line x1="10.06" y1="8" x2="8.94" y2="6.76" style="fill: none;stroke: #000001;stroke-linecap: round;stroke-linejoin: round"/>
      <line x1="10.06" y1="8" x2="11.64" y2="7.43" style="fill: none;stroke: #000001;stroke-linecap: round;stroke-linejoin: round"/>
      <line x1="10.62" y1="5.75" x2="9.5" y2="4.51" style="fill: none;stroke: #000001;stroke-linecap: round;stroke-linejoin: round"/>
      <line x1="10.62" y1="5.75" x2="12.2" y2="5.18" style="fill: none;stroke: #000001;stroke-linecap: round;stroke-linejoin: round"/>
      <line x1="11.18" y1="3.5" x2="10.06" y2="2.26" style="fill: none;stroke: #000001;stroke-linecap: round;stroke-linejoin: round"/>
      <line x1="11.18" y1="3.5" x2="12.76" y2="2.93" style="fill: none;stroke: #000001;stroke-linecap: round;stroke-linejoin: round"/>
    </g>
  </g>
</svg>
