<svg xmlns="http://www.w3.org/2000/svg" fill="none" viewBox="0 0 24 24" id="Currency-Yuan-Bubble--Streamline-Ultimate">
  <desc>
    Currency Yuan Bubble Streamline Icon: https://streamlinehq.com
  </desc>
  <path stroke="#000000" stroke-linecap="round" stroke-linejoin="round" d="M23.25 11.9999c0.0009 -0.7978 -0.2526 -1.5752 -0.7238 -2.21899 -0.4712 -0.64383 -1.1355 -1.12061 -1.8962 -1.36102 0.3342 -0.69977 0.4432 -1.48594 0.3121 -2.25025 -0.1311 -0.76431 -0.496 -1.46917 -1.0443 -2.01752 -0.5484 -0.54834 -1.2532 -0.9132 -2.0175 -1.04434 -0.7644 -0.13113 -1.5505 -0.02209 -2.2503 0.31211 -0.2434 -0.75815 -0.7212 -1.41945 -1.3646 -1.88861 -0.6434 -0.46916 -1.4191 -0.721954 -2.2154 -0.721954 -0.7963 0 -1.572 0.252794 -2.21537 0.721954 -0.64338 0.46916 -1.12121 1.13046 -1.36463 1.88861 -0.70488 -0.34491 -1.50021 -0.45999 -2.27396 -0.32904 -0.77374 0.13095 -1.4869 0.50134 -2.03904 1.059 -0.55213 0.55765 -0.9154 1.27446 -1.03865 2.04947 -0.12325 0.77501 -0.00025 1.56915 0.35165 2.27057 -0.75815 0.24342 -1.41945 0.72125 -1.88861 1.36463 -0.46916 0.64338 -0.721954 1.41908 -0.721954 2.21538 0 0.7963 0.252794 1.572 0.721954 2.2154 0.46916 0.6433 1.13046 1.1212 1.88861 1.3646 -0.34491 0.7049 -0.45999 1.5002 -0.32904 2.2739 0.13095 0.7738 0.50134 1.487 1.059 2.0391 0.55765 0.5521 1.27446 0.9154 2.04947 1.0386 0.77501 0.1233 1.56915 0.0003 2.27057 -0.3516 0.24342 0.7581 0.72125 1.4194 1.36463 1.8886 0.64337 0.4692 1.41907 0.722 2.21537 0.722s1.572 -0.2528 2.2154 -0.722c0.6434 -0.4692 1.1212 -1.1305 1.3646 -1.8886 0.6998 0.3342 1.4859 0.4432 2.2503 0.3121 0.7643 -0.1311 1.4691 -0.496 2.0175 -1.0443 0.5483 -0.5484 0.9132 -1.2532 1.0443 -2.0176 0.1311 -0.7643 0.0221 -1.5504 -0.3121 -2.2502 0.7596 -0.2517 1.4188 -0.7398 1.8812 -1.3929 0.4625 -0.6531 0.7038 -1.437 0.6888 -2.2371Z" stroke-width="1"></path>
  <path stroke="#000000" stroke-linecap="round" stroke-linejoin="round" d="M9 7.5v2.25c0 0.7956 0.31607 1.5587 0.87868 2.1213 0.56262 0.5626 1.32572 0.8787 2.12132 0.8787 0.7956 0 1.5587 -0.3161 2.1213 -0.8787 0.5626 -0.5626 0.8787 -1.3257 0.8787 -2.1213V7.5" stroke-width="1"></path>
  <path stroke="#000000" stroke-linecap="round" stroke-linejoin="round" d="M12 12.75V18" stroke-width="1"></path>
  <path stroke="#000000" stroke-linecap="round" stroke-linejoin="round" d="M9.75 15h4.5" stroke-width="1"></path>
</svg>