<svg xmlns="http://www.w3.org/2000/svg" fill="none" viewBox="0 0 24 24" id="Camera-Tripod--Streamline-Ultimate">
  <desc>
    Camera Tripod Streamline Icon: https://streamlinehq.com
  </desc>
  <path stroke="#191919" stroke-linecap="round" stroke-linejoin="round" d="M12 17.2608V23" stroke-width="1"></path>
  <path stroke="#191919" stroke-linecap="round" stroke-linejoin="round" d="m6.26074 23 5.73916 -5.2609" stroke-width="1"></path>
  <path stroke="#191919" stroke-linecap="round" stroke-linejoin="round" d="M17.7391 23 12 17.7391" stroke-width="1"></path>
  <path fill="#e3e3e3" d="M12.9565 12.4783v4.3043c0 0.1269 -0.0504 0.2485 -0.14 0.3382 -0.0898 0.0897 -0.2114 0.1401 -0.3383 0.1401h-0.9565c-0.1268 0 -0.2485 -0.0504 -0.3382 -0.1401 -0.0896 -0.0897 -0.14 -0.2113 -0.14 -0.3382v-4.3043" stroke-width="1"></path>
  <path stroke="#191919" stroke-linecap="round" stroke-linejoin="round" d="M9.13037 12.4783h5.73913" stroke-width="1"></path>
  <path fill="#808080" d="M17.739 9.60869c0 0.25369 -0.1008 0.49701 -0.2802 0.67631 -0.1793 0.1794 -0.4226 0.2802 -0.6763 0.2802H7.21726c-0.25368 0 -0.49698 -0.1008 -0.67636 -0.2802 -0.17938 -0.1793 -0.28016 -0.42262 -0.28016 -0.67631V3.86956c0 -0.25369 0.10078 -0.49698 0.28016 -0.67637 0.17938 -0.17938 0.42268 -0.28016 0.67636 -0.28016h3.82614c0.2687 -0.53756 0.4313 -0.95652 1.0693 -0.95652h2.1656c0.638 0 0.8006 0.41896 1.0694 0.95652h1.4348c0.2537 0 0.497 0.10078 0.6763 0.28016 0.1794 0.17939 0.2802 0.42268 0.2802 0.67637v5.73913Z" stroke-width="1"></path>
  <path fill="#b2b2b2" d="M17.739 5.60278V3.86956c0 -0.25369 -0.1008 -0.49698 -0.2802 -0.67637 -0.1793 -0.17938 -0.4226 -0.28016 -0.6763 -0.28016h-1.4348c-0.2688 -0.53756 -0.4314 -0.95652 -1.0694 -0.95652h-2.1656c-0.638 0 -0.8006 0.41896 -1.0693 0.95652H7.21726c-0.25368 0 -0.49698 0.10078 -0.67636 0.28016 -0.17938 0.17939 -0.28016 0.42268 -0.28016 0.67637v1.73322H17.739Z" stroke-width="1"></path>
  <path stroke="#191919" stroke-linecap="round" stroke-linejoin="round" d="M17.739 9.60869c0 0.25369 -0.1008 0.49701 -0.2802 0.67631 -0.1793 0.1794 -0.4226 0.2802 -0.6763 0.2802H7.21726c-0.25368 0 -0.49698 -0.1008 -0.67636 -0.2802 -0.17938 -0.1793 -0.28016 -0.42262 -0.28016 -0.67631V3.86956c0 -0.25369 0.10078 -0.49698 0.28016 -0.67637 0.17938 -0.17938 0.42268 -0.28016 0.67636 -0.28016h3.82614c0.2687 -0.53756 0.4313 -0.95652 1.0693 -0.95652h2.1656c0.638 0 0.8006 0.41896 1.0694 0.95652h1.4348c0.2537 0 0.497 0.10078 0.6763 0.28016 0.1794 0.17939 0.2802 0.42268 0.2802 0.67637v5.73913Z" stroke-width="1"></path>
  <path fill="#66e1ff" d="M12.9565 8.65217c1.0566 0 1.913 -0.8565 1.913 -1.91304 0 -1.05655 -0.8564 -1.91305 -1.913 -1.91305s-1.913 0.8565 -1.913 1.91305c0 1.05654 0.8564 1.91304 1.913 1.91304Z" stroke-width="1"></path>
  <path fill="#c2f3ff" d="M11.6039 8.09164c-0.3485 -0.36081 -0.5413 -0.84404 -0.5369 -1.34564 0.0043 -0.5016 0.2055 -0.98142 0.5602 -1.3361 0.3547 -0.3547 0.8345 -0.5559 1.3361 -0.56025 0.5016 -0.00436 0.9848 0.18847 1.3456 0.53695l-2.705 2.70504Z" stroke-width="1"></path>
  <path stroke="#191919" stroke-linecap="round" stroke-linejoin="round" d="M12.9565 8.65217c1.0566 0 1.913 -0.8565 1.913 -1.91304 0 -1.05655 -0.8564 -1.91305 -1.913 -1.91305s-1.913 0.8565 -1.913 1.91305c0 1.05654 0.8564 1.91304 1.913 1.91304Z" stroke-width="1"></path>
  <path stroke="#191919" stroke-linecap="round" stroke-linejoin="round" d="M7.69531 1h0.95652" stroke-width="1"></path>
  <path stroke="#191919" stroke-linecap="round" stroke-linejoin="round" d="M12.9565 12.4783v4.3043c0 0.1269 -0.0504 0.2485 -0.14 0.3382 -0.0898 0.0897 -0.2114 0.1401 -0.3383 0.1401h-0.9565c-0.1268 0 -0.2485 -0.0504 -0.3382 -0.1401 -0.0896 -0.0897 -0.14 -0.2113 -0.14 -0.3382v-4.3043" stroke-width="1"></path>
</svg>