<svg xmlns="http://www.w3.org/2000/svg" fill="none" viewBox="0 0 24 24" id="Camera-Settings-Flip-1--Streamline-Ultimate">
  <desc>
    Camera Settings Flip 1 Streamline Icon: https://streamlinehq.com
  </desc>
  <path stroke="#191919" stroke-linecap="round" stroke-linejoin="round" d="m19.2788 1 0.4432 4.04197 -3.9412 0.34548" stroke-width="1"></path>
  <path fill="#808080" d="M18.1693 15.4312c0 0.2727 -0.1083 0.5343 -0.3011 0.7271 -0.1929 0.1928 -0.4544 0.3011 -0.7271 0.3011H6.8588c-0.27271 0 -0.53424 -0.1083 -0.72707 -0.3011 -0.19283 -0.1928 -0.30116 -0.4544 -0.30116 -0.7271V9.26184c0 -0.2727 0.10833 -0.53424 0.30116 -0.72707 0.19283 -0.19283 0.45436 -0.30116 0.72707 -0.30116h4.1129l0.2303 -0.46064c0.0855 -0.17058 0.2168 -0.31401 0.3791 -0.41425s0.3494 -0.15333 0.5402 -0.15334h2.3279c0.1908 0.00001 0.3778 0.0531 0.5402 0.15334 0.1623 0.10024 0.2935 0.24367 0.379 0.41425l0.2303 0.46064h1.5424c0.2727 0 0.5342 0.10833 0.7271 0.30116 0.1928 0.19283 0.3011 0.45437 0.3011 0.72707v6.16936Z" stroke-width="1"></path>
  <path fill="#66e1ff" d="M13.0281 14.403c0.5454 0 1.0685 -0.2167 1.4542 -0.6023 0.3856 -0.3857 0.6023 -0.9088 0.6023 -1.4542 0 -0.5454 -0.2167 -1.0684 -0.6023 -1.4541 -0.3857 -0.3857 -0.9088 -0.6023 -1.4542 -0.6023 -0.5454 0 -1.0684 0.2166 -1.4541 0.6023 -0.3857 0.3857 -0.6023 0.9087 -0.6023 1.4541s0.2166 1.0685 0.6023 1.4542c0.3857 0.3856 0.9087 0.6023 1.4541 0.6023Z" stroke-width="1"></path>
  <path stroke="#191919" stroke-linecap="round" stroke-linejoin="round" d="m5.27124 23 -0.65601 -4.0121 3.91653 -0.5563" stroke-width="1"></path>
  <path stroke="#191919" stroke-linecap="round" stroke-linejoin="round" d="M1.71777 11.8324c0.00063 -2.08962 0.63791 -4.12944 1.82696 -5.84778 1.18904 -1.71833 2.8734 -3.0336 4.82873 -3.77062 1.95534 -0.73701 4.08884 -0.86079 6.11624 -0.35484 2.0274 0.50596 3.8526 1.61762 5.2324 3.18692" stroke-width="1"></path>
  <path stroke="#191919" stroke-linecap="round" stroke-linejoin="round" d="M22.2823 11.8324c0.0009 2.0479 -0.6097 4.0495 -1.7536 5.7481 -1.1438 1.6987 -2.7689 3.017 -4.6669 3.7862 -1.898 0.7692 -3.9824 0.954 -5.9861 0.5309 -2.00372 -0.423 -3.83546 -1.4348 -5.26047 -2.9056" stroke-width="1"></path>
  <path fill="#b2b2b2" d="M17.1411 8.23361h-1.5424l-0.2303 -0.46064c-0.0855 -0.17058 -0.2167 -0.31401 -0.379 -0.41425 -0.1624 -0.10024 -0.3494 -0.15333 -0.5402 -0.15334h-2.3279c-0.1908 0.00001 -0.3779 0.0531 -0.5402 0.15334s-0.2936 0.24367 -0.3791 0.41425l-0.2303 0.46064H6.8588c-0.27271 0 -0.53424 0.10833 -0.72707 0.30116 -0.19283 0.19283 -0.30116 0.45437 -0.30116 0.72707v2.22406c0 -0.2727 0.10833 -0.5342 0.30116 -0.7271 0.19283 -0.1928 0.45436 -0.3011 0.72707 -0.3011h4.1129l0.2303 -0.46067c0.0855 -0.17058 0.2168 -0.31401 0.3791 -0.41425s0.3494 -0.15333 0.5402 -0.15334h2.3279c0.1908 0.00001 0.3778 0.0531 0.5402 0.15334 0.1623 0.10024 0.2935 0.24367 0.379 0.41425l0.2303 0.46067h1.5424c0.2727 0 0.5342 0.1083 0.7271 0.3011 0.1928 0.1929 0.3011 0.4544 0.3011 0.7271V9.26184c0 -0.2727 -0.1083 -0.53424 -0.3011 -0.72707 -0.1929 -0.19283 -0.4544 -0.30116 -0.7271 -0.30116Z" stroke-width="1"></path>
  <path stroke="#191919" stroke-linecap="round" stroke-linejoin="round" d="M18.1693 15.4312c0 0.2727 -0.1083 0.5343 -0.3011 0.7271 -0.1929 0.1928 -0.4544 0.3011 -0.7271 0.3011H6.8588c-0.27271 0 -0.53424 -0.1083 -0.72707 -0.3011 -0.19283 -0.1928 -0.30116 -0.4544 -0.30116 -0.7271V9.26184c0 -0.2727 0.10833 -0.53424 0.30116 -0.72707 0.19283 -0.19283 0.45436 -0.30116 0.72707 -0.30116h4.1129l0.2303 -0.46064c0.0855 -0.17058 0.2168 -0.31401 0.3791 -0.41425s0.3494 -0.15333 0.5402 -0.15334h2.3279c0.1908 0.00001 0.3778 0.0531 0.5402 0.15334 0.1623 0.10024 0.2935 0.24367 0.379 0.41425l0.2303 0.46064h1.5424c0.2727 0 0.5342 0.10833 0.7271 0.30116 0.1928 0.19283 0.3011 0.45437 0.3011 0.72707v6.16936Z" stroke-width="1"></path>
  <path fill="#c2f3ff" d="M11.5743 13.8004c-0.3746 -0.3878 -0.5818 -0.9073 -0.5772 -1.4465 0.0047 -0.5392 0.221 -1.055 0.6023 -1.4363 0.3813 -0.3812 0.8971 -0.5975 1.4363 -0.6022 0.5392 -0.0047 1.0586 0.2026 1.4465 0.5772l-2.9079 2.9078Z" stroke-width="1"></path>
  <path stroke="#191919" stroke-linecap="round" stroke-linejoin="round" d="M13.0281 14.403c0.5454 0 1.0685 -0.2167 1.4542 -0.6023 0.3856 -0.3857 0.6023 -0.9088 0.6023 -1.4542 0 -0.5454 -0.2167 -1.0684 -0.6023 -1.4541 -0.3857 -0.3857 -0.9088 -0.6023 -1.4542 -0.6023 -0.5454 0 -1.0684 0.2166 -1.4541 0.6023 -0.3857 0.3857 -0.6023 0.9087 -0.6023 1.4541s0.2166 1.0685 0.6023 1.4542c0.3857 0.3856 0.9087 0.6023 1.4541 0.6023Z" stroke-width="1"></path>
</svg>