<svg xmlns="http://www.w3.org/2000/svg" fill="none" viewBox="0 0 24 24" id="Lens-Shade--Streamline-Ultimate">
  <desc>
    Lens Shade Streamline Icon: https://streamlinehq.com
  </desc>
  <path fill="#808080" d="M4.7462 1.00001c-0.15326 -0.000018 -0.30428 0.03679 -0.44036 0.10733 -0.13606 0.07054 -0.25319 0.17274 -0.34151 0.298 -0.08831 0.12526 -0.14524 0.26991 -0.16598 0.42176 -0.02074 0.15185 -0.00469 0.30647 0.04681 0.45082l1.70835 4.78261c0.06631 0.18589 0.18851 0.34672 0.34982 0.46043 0.16131 0.1137 0.35385 0.17473 0.55122 0.1747H17.5454c0.1974 0.00003 0.3899 -0.061 0.5513 -0.1747 0.1612 -0.11371 0.2835 -0.27454 0.3498 -0.46043l1.7083 -4.78261c0.0517 -0.14473 0.0676 -0.29978 0.0467 -0.45201 -0.0211 -0.15223 -0.0783 -0.29716 -0.1672 -0.42253 -0.0889 -0.12537 -0.2066 -0.22749 -0.3434 -0.2977 -0.1367 -0.07021 -0.2882 -0.106457 -0.4419 -0.10567H4.7462Z" stroke-width="1"></path>
  <path fill="#6b6b6b" d="M16.3016 7.69566H7.69287v3.82604h8.60873V7.69566Z" stroke-width="1"></path>
  <path fill="#6b6b6b" d="M8.64941 21.087v0.9565c0 0.2537 0.10078 0.497 0.28016 0.6763 0.17939 0.1794 0.42268 0.2802 0.67637 0.2802h4.78256c0.2537 0 0.4971 -0.1008 0.6764 -0.2802 0.1793 -0.1793 0.2802 -0.4226 0.2802 -0.6763v-0.9565H8.64941Z" stroke-width="1"></path>
  <path fill="#808080" d="M17.258 11.5218H6.73631c-0.52827 0 -0.95652 0.4282 -0.95652 0.9565v7.6522c0 0.5282 0.42825 0.9565 0.95652 0.9565H17.258c0.5283 0 0.9566 -0.4283 0.9566 -0.9565v-7.6522c0 -0.5283 -0.4283 -0.9565 -0.9566 -0.9565Z" stroke-width="1"></path>
  <path stroke="#191919" stroke-linecap="round" stroke-linejoin="round" d="M16.3016 7.69566H7.69287v3.82604h8.60873V7.69566Z" stroke-width="1"></path>
  <path stroke="#191919" stroke-linecap="round" stroke-linejoin="round" d="M8.64941 21.087v0.9565c0 0.2537 0.10078 0.497 0.28016 0.6763 0.17939 0.1794 0.42268 0.2802 0.67637 0.2802h4.78256c0.2537 0 0.4971 -0.1008 0.6764 -0.2802 0.1793 -0.1793 0.2802 -0.4226 0.2802 -0.6763v-0.9565H8.64941Z" stroke-width="1"></path>
  <path stroke="#191919" stroke-linecap="round" stroke-linejoin="round" d="M17.258 11.5218H6.73631c-0.52827 0 -0.95652 0.4282 -0.95652 0.9565v7.6522c0 0.5282 0.42825 0.9565 0.95652 0.9565H17.258c0.5283 0 0.9566 -0.4283 0.9566 -0.9565v-7.6522c0 -0.5283 -0.4283 -0.9565 -0.9566 -0.9565Z" stroke-width="1"></path>
  <path stroke="#191919" stroke-linecap="round" stroke-linejoin="round" d="M4.7462 1.00001c-0.15326 -0.000018 -0.30428 0.03679 -0.44036 0.10733 -0.13606 0.07054 -0.25319 0.17274 -0.34151 0.298 -0.08831 0.12526 -0.14524 0.26991 -0.16598 0.42176 -0.02074 0.15185 -0.00469 0.30647 0.04681 0.45082l1.70835 4.78261c0.06631 0.18589 0.18851 0.34672 0.34982 0.46043 0.16131 0.1137 0.35385 0.17473 0.55122 0.1747H17.5454c0.1974 0.00003 0.3899 -0.061 0.5513 -0.1747 0.1612 -0.11371 0.2835 -0.27454 0.3498 -0.46043l1.7083 -4.78261c0.0517 -0.14473 0.0676 -0.29978 0.0467 -0.45201 -0.0211 -0.15223 -0.0783 -0.29716 -0.1672 -0.42253 -0.0889 -0.12537 -0.2066 -0.22749 -0.3434 -0.2977 -0.1367 -0.07021 -0.2882 -0.106457 -0.4419 -0.10567H4.7462Z" stroke-width="1"></path>
  <path stroke="#191919" stroke-linecap="round" stroke-linejoin="round" d="M7.69287 13.4348v4.7826" stroke-width="1"></path>
  <path stroke="#191919" stroke-linecap="round" stroke-linejoin="round" d="M10.5625 13.4348v4.7826" stroke-width="1"></path>
  <path stroke="#191919" stroke-linecap="round" stroke-linejoin="round" d="M13.4321 13.4348v4.7826" stroke-width="1"></path>
  <path stroke="#191919" stroke-linecap="round" stroke-linejoin="round" d="M16.3018 13.4348v4.7826" stroke-width="1"></path>
</svg>