<svg xmlns="http://www.w3.org/2000/svg" fill="none" viewBox="0 0 24 24" id="Picture-Sun--Streamline-Ultimate">
  <desc>
    Picture Sun Streamline Icon: https://streamlinehq.com
  </desc>
  <path fill="#66e1ff" d="M23 2.91304V19.413c-0.1689 -0.7812 -0.5407 -1.5041 -1.078 -2.0959 -0.5373 -0.5918 -1.221 -1.0316 -1.9823 -1.275 -0.7614 -0.2435 -1.5734 -0.2819 -2.3544 -0.1117 -0.7809 0.1704 -1.5032 0.5434 -2.094 1.0818 -0.9537 -1.1768 -2.2089 -2.0728 -3.6318 -2.5922 -1.4229 -0.5194 -2.96012 -0.6428 -4.44767 -0.3571 -1.48754 0.2857 -2.86964 0.9699 -3.99885 1.9795C2.28377 17.0521 1.44979 18.3492 1 19.7956V2.91304c0.00151 -0.50691 0.20355 -0.99261 0.56198 -1.35106 0.35845 -0.35843 0.84415 -0.56047 1.35106 -0.56198H21.0869c0.5069 0.00151 0.9926 0.20355 1.3511 0.56198 0.3584 0.35845 0.5605 0.84415 0.562 1.35106Z" stroke-width="1"></path>
  <path fill="#c2f3ff" d="M21.0869 1H2.91304c-0.50691 0.00151 -0.99261 0.20355 -1.35106 0.56198 -0.35843 0.35845 -0.56047 0.84415 -0.56198 1.35106V19.7956c0.51716 -1.6534 1.53428 -3.1058 2.91124 -4.1571 1.37696 -1.0513 3.04601 -1.6498 4.77728 -1.713L21.5509 1.06409c-0.1514 -0.04083 -0.3073 -0.06236 -0.464 -0.06409Z" stroke-width="1"></path>
  <path stroke="#191919" stroke-linecap="round" stroke-linejoin="round" d="M23 2.91304V19.413c-0.1689 -0.7812 -0.5407 -1.5041 -1.078 -2.0959 -0.5373 -0.5918 -1.221 -1.0316 -1.9823 -1.275 -0.7614 -0.2435 -1.5734 -0.2819 -2.3544 -0.1117 -0.7809 0.1704 -1.5032 0.5434 -2.094 1.0818 -0.9537 -1.1768 -2.2089 -2.0728 -3.6318 -2.5922 -1.4229 -0.5194 -2.96012 -0.6428 -4.44767 -0.3571 -1.48754 0.2857 -2.86964 0.9699 -3.99885 1.9795C2.28377 17.0521 1.44979 18.3492 1 19.7956V2.91304c0.00151 -0.50691 0.20355 -0.99261 0.56198 -1.35106 0.35845 -0.35843 0.84415 -0.56047 1.35106 -0.56198H21.0869c0.5069 0.00151 0.9926 0.20355 1.3511 0.56198 0.3584 0.35845 0.5605 0.84415 0.562 1.35106Z" stroke-width="1"></path>
  <path fill="#ffef5e" d="M16.3044 10.087c1.3207 0 2.3913 -1.07067 2.3913 -2.39134 0 -1.32068 -1.0706 -2.39131 -2.3913 -2.39131 -1.3207 0 -2.3913 1.07063 -2.3913 2.39131 0 1.32067 1.0706 2.39134 2.3913 2.39134Z" stroke-width="1"></path>
  <path stroke="#191919" stroke-linecap="round" stroke-linejoin="round" d="M16.3042 3.39132v-0.47826" stroke-width="1"></path>
  <path stroke="#191919" stroke-linecap="round" stroke-linejoin="round" d="m13.26 4.65201 -0.3386 -0.33861" stroke-width="1"></path>
  <path stroke="#191919" stroke-linecap="round" stroke-linejoin="round" d="M11.9993 7.69566h-0.4783" stroke-width="1"></path>
  <path stroke="#191919" stroke-linecap="round" stroke-linejoin="round" d="m13.26 10.7393 -0.3386 0.3386" stroke-width="1"></path>
  <path stroke="#191919" stroke-linecap="round" stroke-linejoin="round" d="M16.3042 12v0.4783" stroke-width="1"></path>
  <path stroke="#191919" stroke-linecap="round" stroke-linejoin="round" d="m19.3477 10.7393 0.3386 0.3386" stroke-width="1"></path>
  <path stroke="#191919" stroke-linecap="round" stroke-linejoin="round" d="M20.6084 7.69566h0.4783" stroke-width="1"></path>
  <path stroke="#191919" stroke-linecap="round" stroke-linejoin="round" d="m19.3477 4.65201 0.3386 -0.33861" stroke-width="1"></path>
  <path fill="#78eb7b" d="M23 19.413v1.674c-0.0015 0.5068 -0.2036 0.9925 -0.562 1.351 -0.3585 0.3585 -0.8442 0.5605 -1.3511 0.562H2.91304c-0.50691 -0.0015 -0.99261 -0.2035 -1.35106 -0.562 -0.35843 -0.3585 -0.56047 -0.8442 -0.56198 -1.351v-1.2913c0.44979 -1.4465 1.28377 -2.7436 2.41298 -3.7532 1.12921 -1.0097 2.51131 -1.6939 3.99885 -1.9796 1.48755 -0.2857 3.02477 -0.1623 4.44767 0.3571 1.4229 0.5194 2.6781 1.4154 3.6318 2.5922 0.5908 -0.5384 1.3131 -0.9114 2.094 -1.0818 0.781 -0.1702 1.593 -0.1318 2.3544 0.1117 0.7613 0.2434 1.445 0.6832 1.9823 1.2749 0.5373 0.5918 0.9091 1.3148 1.078 2.096Z" stroke-width="1"></path>
  <path stroke="#191919" stroke-linecap="round" stroke-linejoin="round" d="M23 19.413v1.674c-0.0015 0.5068 -0.2036 0.9925 -0.562 1.351 -0.3585 0.3585 -0.8442 0.5605 -1.3511 0.562H2.91304c-0.50691 -0.0015 -0.99261 -0.2035 -1.35106 -0.562 -0.35843 -0.3585 -0.56047 -0.8442 -0.56198 -1.351v-1.2913c0.44979 -1.4465 1.28377 -2.7436 2.41298 -3.7532 1.12921 -1.0097 2.51131 -1.6939 3.99885 -1.9796 1.48755 -0.2857 3.02477 -0.1623 4.44767 0.3571 1.4229 0.5194 2.6781 1.4154 3.6318 2.5922 0.5908 -0.5384 1.3131 -0.9114 2.094 -1.0818 0.781 -0.1702 1.593 -0.1318 2.3544 0.1117 0.7613 0.2434 1.445 0.6832 1.9823 1.2749 0.5373 0.5918 0.9091 1.3148 1.078 2.096Z" stroke-width="1"></path>
  <path stroke="#191919" stroke-linecap="round" stroke-linejoin="round" d="M16.7916 19.2504c-0.3096 -0.8116 -0.749 -1.5674 -1.3009 -2.2382" stroke-width="1"></path>
  <path stroke="#191919" stroke-linecap="round" stroke-linejoin="round" d="M16.3044 10.087c1.3207 0 2.3913 -1.07067 2.3913 -2.39134 0 -1.32068 -1.0706 -2.39131 -2.3913 -2.39131 -1.3207 0 -2.3913 1.07063 -2.3913 2.39131 0 1.32067 1.0706 2.39134 2.3913 2.39134Z" stroke-width="1"></path>
</svg>