<svg xmlns="http://www.w3.org/2000/svg" fill="none" viewBox="0 0 14 14"><g id="cloud-wifi--cloud-wifi-internet-server-network"><path id="Union" fill="#3e3e3e" fill-rule="evenodd" d="M6.98.07c-1.32 0-2.624.31-3.832.907a.75.75 0 0 0 .664 1.344A7.128 7.128 0 0 1 6.98 1.57c1.084 0 2.16.254 3.168.752a.75.75 0 1 0 .664-1.344A8.628 8.628 0 0 0 6.98.069Zm2.098 2.748a5.255 5.255 0 0 0-4.156 0 .75.75 0 0 0 .587 1.38 3.755 3.755 0 0 1 2.982 0 .75.75 0 1 0 .587-1.38Z" clip-rule="evenodd"></path><path id="Union_2" fill="#37d7ff" fill-rule="evenodd" d="M7.753 5.336A3.757 3.757 0 0 0 3.83 7.63a3.189 3.189 0 0 0 .593 6.346h5.758a2.8 2.8 0 0 0 .837-5.465 3.757 3.757 0 0 0-3.264-3.175Z" clip-rule="evenodd"></path></g></svg>