<svg xmlns="http://www.w3.org/2000/svg" fill="none" viewBox="0 0 14 14"><g id="steps-number--interface-number-internet-menu-progress"><path id="Union" fill="#3e3e3e" fill-rule="evenodd" d="M11.595 8.333a.75.75 0 0 0-1.28.53v1.185H1a1 1 0 1 0 0 2h9.315v1.185a.75.75 0 0 0 1.28.53l2.185-2.184a.75.75 0 0 0 0-1.061l-2.185-2.185Z" clip-rule="evenodd"></path><path id="Union_2" fill="#37d7ff" fill-rule="evenodd" d="M12.094.76h-.533a1.73 1.73 0 0 0-1.663 1.258.75.75 0 0 0 1.444.408.228.228 0 0 1 .219-.166h.533a.228.228 0 0 1 0 .456h-.088a.75.75 0 1 0 0 1.5h.088a1.763 1.763 0 0 0 .09 0c.174 0 .316.142.316.317v.178a.317.317 0 0 1-.317.316h-.71a.317.317 0 0 1-.3-.21.75.75 0 0 0-1.414.5c.249.704.92 1.21 1.713 1.21h.711A1.817 1.817 0 0 0 14 4.711v-.178a1.81 1.81 0 0 0-.42-1.162 1.728 1.728 0 0 0-1.486-2.61ZM2.2.76a.75.75 0 0 1 .75.75v3.517h.672a.75.75 0 1 1 0 1.5H.778a.75.75 0 1 1 0-1.5h.672V3.3a1.828 1.828 0 0 1-.317.027H.778a.75.75 0 0 1 0-1.5h.355a.317.317 0 0 0 .317-.316.75.75 0 0 1 .75-.75Zm2.731 1.212A1.817 1.817 0 0 1 6.644.76h.74A1.79 1.79 0 0 1 8.1 4.189l-1.583.692a.317.317 0 0 0-.155.146h2.06a.75.75 0 0 1 0 1.5H5.578a.75.75 0 0 1-.75-.75v-.606c0-.721.427-1.375 1.088-1.664L7.5 2.814a.29.29 0 0 0-.116-.553h-.739a.317.317 0 0 0-.298.21.75.75 0 1 1-1.415-.5Z" clip-rule="evenodd"></path></g></svg>