<svg xmlns="http://www.w3.org/2000/svg" fill="none" viewBox="0 0 48 48" id="Flash-1--Streamline-Plump">
  <desc>
    Flash 1 Streamline Icon: https://streamlinehq.com
  </desc>
  <g id="flash-1--flash-power-connect-charge-electricity-lightning">
    <path id="Union" stroke="#000000" stroke-linejoin="round" d="M34.336 6.681c0.314 -1.727 -0.92 -3.34 -2.673 -3.441 -3.633 -0.21 -9.808 -0.423 -15.875 0.02a3.775 3.775 0 0 0 -3.252 2.426c-3.058 8.035 -4.517 15.457 -5.137 19.385 -0.256 1.62 0.91 3.063 2.546 3.176 2.438 0.167 6.2 0.341 10.555 0.253 -0.452 3.222 -0.937 8.17 -1.42 13.617 -0.244 2.75 2.99 4.266 4.874 2.248 7.44 -7.973 14.274 -16.854 18.03 -21.926 1.367 -1.848 0.171 -4.359 -2.127 -4.419A179.18 179.18 0 0 0 32 18c0.867 -3.477 1.635 -7.463 2.336 -11.319Z" stroke-width="3"></path>
  </g>
</svg>