<svg xmlns="http://www.w3.org/2000/svg" fill="none" viewBox="0 0 48 48" id="Lens--Streamline-Plump">
  <desc>
    Lens Streamline Icon: https://streamlinehq.com
  </desc>
  <g id="lens--photos-camera-shutter-picture-photography-pictures-photo-lens">
    <path id="Ellipse 19" stroke="#000000" stroke-linecap="round" stroke-linejoin="round" d="M24 3c11.598 0 21 9.402 21 21s-9.402 21 -21 21S3 35.598 3.00001 24C3.00001 12.402 12.402 3 24 3Z" stroke-width="3"></path>
    <path id="Ellipse 20" stroke="#000000" stroke-linecap="round" stroke-linejoin="round" d="M24 16c4.4183 0 8 3.5817 8 8s-3.5817 8 -8 8 -8 -3.5817 -8 -8 3.5817 -8 8 -8Z" stroke-width="3"></path>
    <path id="Vector 1369" stroke="#000000" stroke-linecap="round" stroke-linejoin="round" d="M16 24c0 -12 4 -20.5 4 -20.5" stroke-width="3"></path>
    <path id="Vector 1370" stroke="#000000" stroke-linecap="round" stroke-linejoin="round" d="M32 24c0 12 -4 20.5 -4 20.5" stroke-width="3"></path>
    <path id="Vector 1369_2" stroke="#000000" stroke-linecap="round" stroke-linejoin="round" d="M20.0004 17.0723c10.3923 -6 19.7535 -6.7859 19.7535 -6.7859" stroke-width="3"></path>
    <path id="Vector 1370_2" stroke="#000000" stroke-linecap="round" stroke-linejoin="round" d="M27.9996 30.9277c-10.3923 6 -19.75351 6.7859 -19.75351 6.7859" stroke-width="3"></path>
    <path id="Vector 1369_3" stroke="#000000" stroke-linecap="round" stroke-linejoin="round" d="M19.9996 30.9277c-10.39229 -6 -15.75351 -13.7141 -15.75351 -13.7141" stroke-width="3"></path>
    <path id="Vector 1370_3" stroke="#000000" stroke-linecap="round" stroke-linejoin="round" d="M28.0004 17.0723c10.3923 6 15.7535 13.7141 15.7535 13.7141" stroke-width="3"></path>
  </g>
</svg>