<svg xmlns="http://www.w3.org/2000/svg" fill="none" viewBox="0 0 24 24" id="Concert-Dj--Streamline-Ultimate">
  <desc>
    Concert Dj Streamline Icon: https://streamlinehq.com
  </desc>
  <path stroke="#000000" stroke-linecap="round" stroke-linejoin="round" d="M9 6.75c0 0.79565 0.31607 1.55871 0.87868 2.12132C10.4413 9.43393 11.2044 9.75 12 9.75c0.7956 0 1.5587 -0.31607 2.1213 -0.87868C14.6839 8.30871 15 7.54565 15 6.75s-0.3161 -1.55871 -0.8787 -2.12132C13.5587 4.06607 12.7956 3.75 12 3.75c-0.7956 0 -1.5587 0.31607 -2.12132 0.87868C9.31607 5.19129 9 5.95435 9 6.75Z" stroke-width="1.5"></path>
  <path stroke="#000000" stroke-linecap="round" stroke-linejoin="round" d="M7.5 15.75c0 -1.1935 0.47411 -2.3381 1.31802 -3.182C9.66193 11.7241 10.8065 11.25 12 11.25c1.1935 0 2.3381 0.4741 3.182 1.318 0.8439 0.8439 1.318 1.9885 1.318 3.182h-9Z" stroke-width="1.5"></path>
  <path stroke="#000000" stroke-linecap="round" stroke-linejoin="round" d="M6 9V6.75c0 -1.5913 0.63214 -3.11742 1.75736 -4.24264C8.88258 1.38214 10.4087 0.75 12 0.75s3.1174 0.63214 4.2426 1.75736C17.3679 3.63258 18 5.1587 18 6.75v1.5" stroke-width="1.5"></path>
  <path stroke="#000000" stroke-linecap="round" stroke-linejoin="round" d="M22.437 21.319c0.0672 0.224 0.0811 0.4606 0.0406 0.6909 -0.0406 0.2303 -0.1344 0.448 -0.274 0.6356 -0.1396 0.1876 -0.3211 0.34 -0.5301 0.4449 -0.209 0.105 -0.4396 0.1596 -0.6735 0.1596H3.00001c-0.23386 0 -0.46449 -0.0546 -0.67347 -0.1596 -0.20898 -0.1049 -0.39053 -0.2573 -0.53014 -0.4449 -0.13962 -0.1876 -0.23343 -0.4053 -0.27395 -0.6356 -0.04053 -0.2303 -0.02664 -0.4669 0.04056 -0.6909l1.35 -4.5c0.0927 -0.309 0.28258 -0.5799 0.54144 -0.7725 0.25887 -0.1926 0.57292 -0.2966 0.89556 -0.2965H19.65c0.3226 -0.0001 0.6367 0.1039 0.8956 0.2965 0.2588 0.1926 0.4487 0.4635 0.5414 0.7725l1.35 4.5Z" stroke-width="1.5"></path>
  <path stroke="#000000" stroke-linecap="round" stroke-linejoin="round" d="M5.25 19.5c0 0.3978 0.23705 0.7794 0.65901 1.0607S6.90326 21 7.5 21c0.59674 0 1.16903 -0.158 1.59099 -0.4393 0.42196 -0.2813 0.65901 -0.6629 0.65901 -1.0607 0 -0.3978 -0.23705 -0.7794 -0.65901 -1.0607S8.09674 18 7.5 18c-0.59674 0 -1.16903 0.158 -1.59099 0.4393 -0.42196 0.2813 -0.65901 0.6629 -0.65901 1.0607Z" stroke-width="1.5"></path>
  <path stroke="#000000" stroke-linecap="round" stroke-linejoin="round" d="M14.25 19.5c0 0.197 0.0582 0.392 0.1713 0.574 0.113 0.182 0.2788 0.3474 0.4877 0.4867 0.2089 0.1392 0.457 0.2497 0.73 0.3251 0.2729 0.0754 0.5655 0.1142 0.861 0.1142s0.5881 -0.0388 0.861 -0.1142c0.273 -0.0754 0.5211 -0.1859 0.73 -0.3251 0.2089 -0.1393 0.3747 -0.3047 0.4877 -0.4867 0.1131 -0.182 0.1713 -0.377 0.1713 -0.574 0 -0.197 -0.0582 -0.392 -0.1713 -0.574 -0.113 -0.182 -0.2788 -0.3474 -0.4877 -0.4867 -0.2089 -0.1392 -0.457 -0.2497 -0.73 -0.3251 -0.2729 -0.0754 -0.5655 -0.1142 -0.861 -0.1142s-0.5881 0.0388 -0.861 0.1142c-0.273 0.0754 -0.5211 0.1859 -0.73 0.3251 -0.2089 0.1393 -0.3747 0.3047 -0.4877 0.4867 -0.1131 0.182 -0.1713 0.377 -0.1713 0.574Z" stroke-width="1.5"></path>
  <path stroke="#000000" stroke-linecap="round" stroke-linejoin="round" d="M21 7.5c0 0.59674 -0.2371 1.16903 -0.659 1.59099 -0.422 0.42196 -0.9943 0.65901 -1.591 0.65901 -0.1989 0 -0.3897 -0.07902 -0.5303 -0.21967C18.079 9.38968 18 9.19891 18 9V5.25h0.75c0.5967 0 1.169 0.23705 1.591 0.65901 0.4219 0.42196 0.659 0.99425 0.659 1.59099Z" stroke-width="1.5"></path>
  <path stroke="#000000" stroke-linecap="round" stroke-linejoin="round" d="M3 7.5c0 0.59674 0.23705 1.16903 0.65901 1.59099 0.42196 0.42196 0.99425 0.65901 1.59099 0.65901 0.19891 0 0.38968 -0.07902 0.53033 -0.21967C5.92098 9.38968 6 9.19891 6 9V5.25h-0.75c-0.59674 0 -1.16903 0.23705 -1.59099 0.65901C3.23705 6.33097 3 6.90326 3 7.5Z" stroke-width="1.5"></path>
</svg>