<svg xmlns="http://www.w3.org/2000/svg" fill="none" viewBox="0 0 24 24" id="Concert-Rock-1--Streamline-Ultimate">
  <desc>
    Concert Rock 1 Streamline Icon: https://streamlinehq.com
  </desc>
  <path stroke="#000000" stroke-linecap="round" stroke-linejoin="round" d="M17.439 9V5.25c0 -0.39782 0.1581 -0.77936 0.4394 -1.06066 0.2813 -0.2813 0.6628 -0.43934 1.0606 -0.43934 0.3979 0 0.7794 0.15804 1.0607 0.43934s0.4393 0.66284 0.4393 1.06066v10.5c0.0146 0.6938 -0.1108 1.3833 -0.3685 2.0276 -0.2577 0.6443 -0.6425 1.2301 -1.1315 1.7224v3.75" stroke-width="1.5"></path>
  <path stroke="#000000" stroke-linecap="round" stroke-linejoin="round" d="M11.439 9V2.25c0 -0.39782 -0.158 -0.77936 -0.4393 -1.06066C10.7184 0.908035 10.3368 0.75 9.93901 0.75c-0.39782 0 -0.77936 0.158035 -1.06066 0.43934 -0.2813 0.2813 -0.43934 0.66284 -0.43934 1.06066V13.5l-2.439 -1.952c-0.16659 -0.1333 -0.35907 -0.2305 -0.56523 -0.2854 -0.20616 -0.0549 -0.42148 -0.0664 -0.63231 -0.0337 -0.21082 0.0327 -0.41254 0.1089 -0.59235 0.2238 -0.1798 0.1148 -0.33376 0.2658 -0.45211 0.4433 -0.16821 0.2529 -0.25795 0.5498 -0.25795 0.8535 0 0.3037 0.08974 0.6006 0.25795 0.8535l4.992 5.897v3.75" stroke-width="1.5"></path>
  <path stroke="#000000" stroke-linecap="round" stroke-linejoin="round" d="M14.439 9c0 -0.39782 -0.158 -0.77936 -0.4393 -1.06066 -0.2813 -0.2813 -0.6628 -0.43934 -1.0607 -0.43934 -0.3978 0 -0.7793 0.15804 -1.0606 0.43934S11.439 8.60218 11.439 9v3c0 0.3978 0.1581 0.7794 0.4394 1.0607s0.6628 0.4393 1.0606 0.4393c0.3979 0 0.7794 -0.158 1.0607 -0.4393s0.4393 -0.6629 0.4393 -1.0607V9Z" stroke-width="1.5"></path>
  <path stroke="#000000" stroke-linecap="round" stroke-linejoin="round" d="M17.439 9c0 -0.39782 -0.158 -0.77936 -0.4393 -1.06066 -0.2813 -0.2813 -0.6628 -0.43934 -1.0607 -0.43934 -0.3978 0 -0.7793 0.15804 -1.0606 0.43934S14.439 8.60218 14.439 9v3c0 0.3978 0.1581 0.7794 0.4394 1.0607s0.6628 0.4393 1.0606 0.4393c0.3979 0 0.7794 -0.158 1.0607 -0.4393s0.4393 -0.6629 0.4393 -1.0607V9Z" stroke-width="1.5"></path>
</svg>