<svg xmlns="http://www.w3.org/2000/svg" fill="none" viewBox="0 0 24 24" id="Party-Decoration--Streamline-Ultimate">
  <desc>
    Party Decoration Streamline Icon: https://streamlinehq.com
  </desc>
  <path stroke="#000000" stroke-linecap="round" stroke-linejoin="round" d="m0.75 1.75 22.5 3.587" stroke-width="1.5"></path>
  <path stroke="#000000" stroke-linecap="round" stroke-linejoin="round" d="m2.293 2 1.014 4.153c0.0608 0.18642 0.17183 0.35246 0.32089 0.47985s0.33037 0.2112 0.52398 0.24221c0.19361 0.03101 0.39203 0.00802 0.57342 -0.06644 0.18139 -0.07447 0.33873 -0.19752 0.45471 -0.35562l2.256 -3.637" stroke-width="1.5"></path>
  <path stroke="#000000" stroke-linecap="round" stroke-linejoin="round" d="m9.49399 3.14404 1.01401 4.156c0.0609 0.18619 0.1719 0.35199 0.3209 0.4792 0.149 0.12721 0.3301 0.21091 0.5236 0.24191 0.1934 0.031 0.3916 0.0081 0.5729 -0.06619 0.1813 -0.07429 0.3385 -0.19709 0.4546 -0.35492l2.257 -3.636" stroke-width="1.5"></path>
  <path stroke="#000000" stroke-linecap="round" stroke-linejoin="round" d="m16.694 4.29199 1.014 4.157c0.0608 0.18642 0.1718 0.35246 0.3209 0.47985s0.3304 0.2112 0.524 0.24222c0.1936 0.03101 0.392 0.00802 0.5734 -0.06645 0.1814 -0.07446 0.3387 -0.19751 0.4547 -0.35562l2.256 -3.636" stroke-width="1.5"></path>
  <path stroke="#000000" stroke-linecap="round" stroke-linejoin="round" d="M0.759003 19.793 23.25 11.098" stroke-width="1.5"></path>
  <path stroke="#000000" stroke-linecap="round" stroke-linejoin="round" d="m2.29999 19.2 3.143 3.266c0.15521 0.1378 0.3454 0.2302 0.54969 0.2671 0.20429 0.0369 0.4148 0.0168 0.6084 -0.0581 0.19361 -0.0749 0.36285 -0.2017 0.48913 -0.3665 0.12629 -0.1648 0.20475 -0.3611 0.22678 -0.5675l0.129 -4.531" stroke-width="1.5"></path>
  <path stroke="#000000" stroke-linecap="round" stroke-linejoin="round" d="M9.50699 16.411 12.65 19.677c0.1551 0.1378 0.3452 0.2303 0.5495 0.2672 0.2042 0.0369 0.4146 0.0169 0.6082 -0.0579 0.1936 -0.0748 0.3628 -0.2015 0.4892 -0.3661 0.1263 -0.1646 0.2049 -0.3609 0.2271 -0.5672l0.129 -4.531" stroke-width="1.5"></path>
  <path stroke="#000000" stroke-linecap="round" stroke-linejoin="round" d="m16.711 13.626 3.144 3.266c0.1551 0.1379 0.3452 0.2304 0.5495 0.2673 0.2042 0.0369 0.4147 0.0168 0.6083 -0.0581 0.1936 -0.0749 0.3627 -0.2018 0.4889 -0.3666 0.1262 -0.1648 0.2045 -0.3612 0.2263 -0.5676l0.129 -4.531" stroke-width="1.5"></path>
</svg>