<svg xmlns="http://www.w3.org/2000/svg" fill="none" viewBox="0 0 24 24" id="Party-Mask--Streamline-Ultimate">
  <desc>
    Party Mask Streamline Icon: https://streamlinehq.com
  </desc>
  <path stroke="#000000" stroke-linecap="round" stroke-linejoin="round" d="M23.25 0.75v22.5" stroke-width="1.5"></path>
  <path stroke="#000000" stroke-linecap="round" stroke-linejoin="round" d="M7.63309 7.45463c0.55546 0.21806 1.15317 0.26165 1.66162 0.12118 0.50846 -0.14047 0.88599 -0.4535 1.04959 -0.87022 0.1636 -0.41673 0.0999 -0.90301 -0.1772 -1.35187 -0.27713 -0.44886 -0.74486 -0.82354 -1.30033 -1.04161 -0.55546 -0.21806 -1.15317 -0.26165 -1.66162 -0.12118 -0.50846 0.14047 -0.88601 0.4535 -1.04961 0.87022 -0.1636 0.41673 -0.09983 0.90301 0.17726 1.35187 0.27709 0.44887 0.74482 0.82354 1.30029 1.04161Z" stroke-width="1.5"></path>
  <path stroke="#000000" stroke-linecap="round" stroke-linejoin="round" d="M13.6542 6.70523c0.081 0.20634 0.2154 0.38939 0.3955 0.53871 0.1801 0.14931 0.4024 0.26196 0.6541 0.33152 0.2518 0.06956 0.5281 0.09465 0.8132 0.07386 0.2851 -0.02079 0.5734 -0.08707 0.8485 -0.19504 0.275 -0.10798 0.5314 -0.25554 0.7545 -0.43426 0.2231 -0.17872 0.4086 -0.3851 0.5458 -0.60735 0.1372 -0.22226 0.2234 -0.45604 0.2538 -0.68799 0.0305 -0.23196 0.0044 -0.45754 -0.0766 -0.66388 -0.081 -0.20635 -0.2154 -0.3894 -0.3955 -0.53872 -0.1801 -0.14931 -0.4023 -0.26196 -0.6541 -0.33152 -0.2518 -0.06955 -0.5281 -0.09465 -0.8132 -0.07386 -0.2851 0.02079 -0.5734 0.08707 -0.8484 0.19505 -0.2751 0.10797 -0.5315 0.25553 -0.7546 0.43425 -0.2231 0.17872 -0.4085 0.3851 -0.5457 0.60736 -0.1372 0.22225 -0.2235 0.45603 -0.2539 0.68798 -0.0304 0.23196 -0.0044 0.45755 0.0766 0.66389Z" stroke-width="1.5"></path>
  <path stroke="#000000" stroke-linecap="round" stroke-linejoin="round" d="M19.717 1.945c-0.4226 0.18114 -0.8854 0.24767 -1.3419 0.1929 -0.4565 -0.05478 -0.8904 -0.22893 -1.2581 -0.5049 -0.689 -0.50886 -1.5303 -0.768846 -2.3863 -0.73742 -0.8559 0.031427 -1.6759 0.3524 -2.3257 0.91042L12 2.154l-0.407 -0.348c-0.6498 -0.55802 -1.4698 -0.878993 -2.32576 -0.91042 -0.85597 -0.031426 -1.69726 0.22856 -2.38625 0.73742 -0.36775 0.27588 -0.80171 0.44997 -1.25815 0.50474 -0.45645 0.05478 -0.91928 -0.0117 -1.34185 -0.19274L0.749987 0.75c-0.022165 1.28092 0.038629 2.56193 0.182 3.835 0.165593 1.20488 0.627393 2.3499 1.344053 3.33253 0.71666 0.98264 1.6658 1.77222 2.76246 2.29807 1.09666 0.5258 2.3066 0.7715 3.5215 0.715 1.2149 -0.0564 2.3968 -0.4133 3.44 -1.0386 1.0431 0.6253 2.2249 0.9822 3.4398 1.0387 1.2148 0.0565 2.4247 -0.1892 3.5213 -0.715 1.0966 -0.5259 2.0457 -1.31551 2.7622 -2.29816 0.7166 -0.98266 1.1783 -2.12768 1.3437 -3.33254 0.1442 -1.273 0.2054 -2.55405 0.183 -3.835l-3.533 1.195Z" stroke-width="1.5"></path>
</svg>