<svg xmlns="http://www.w3.org/2000/svg" fill="none" viewBox="0 0 14 14"><g id="contact-phonebook-2"><path id="vector" stroke="#3e3e3e" stroke-linecap="round" stroke-linejoin="round" d="M12.422 13.424h-9.33a1.473 1.473 0 1 1 0-2.947h8.348a.982.982 0 0 0 .982-.982V1.638a.982.982 0 0 0-.982-.982H3.092A1.473 1.473 0 0 0 1.62 2.09v9.821"></path><path id="vector_2" stroke="#3e3e3e" stroke-linecap="round" stroke-linejoin="round" d="M11.44 10.477v2.947"></path><path id="Vector" stroke="#3e3e3e" stroke-linecap="round" stroke-linejoin="round" d="M7.524 8.236a1.702 1.702 0 0 0 1.957-.461l.246-.247a.533.533 0 0 0 .096-.732l-.796-.795a.533.533 0 0 0-.732.095.533.533 0 0 1-.731.095L6.29 4.92a.533.533 0 0 1 .095-.732.533.533 0 0 0 .096-.732l-.796-.796a.533.533 0 0 0-.732.096L4.708 3a1.71 1.71 0 0 0-.462 1.957 9.546 9.546 0 0 0 3.278 3.278Z"></path></g></svg>