<svg xmlns="http://www.w3.org/2000/svg" fill="none" viewBox="0 0 14 14"><g id="dictionary-language-book"><path id="Subtract" fill="#3e3e3e" fill-rule="evenodd" d="M1.25 11.625V2.25A2.25 2.25 0 0 1 3.5 0h7a2.25 2.25 0 0 1 2.25 2.25V10a.75.75 0 0 1-.75.75h-.25v1.75H12a.75.75 0 0 1 0 1.5H3.625a2.375 2.375 0 0 1-2.375-2.375Zm9-.875H3.625a.875.875 0 0 0 0 1.75h6.625v-1.75Zm.56-5.978a.5.5 0 0 0-.444-.27H8.052a.5.5 0 0 0 0 1H9.4L7.499 8.186a.5.5 0 0 0 .408.789h2.604a.5.5 0 1 0 0-1H8.874l1.9-2.684a.5.5 0 0 0 .037-.519ZM5.815 2.63a.902.902 0 0 0-1.71 0l-.677 2.03a.498.498 0 0 0-.007.022l-.383 1.146a.5.5 0 1 0 .95.317l.27-.816H5.66l.272.816a.5.5 0 0 0 .949-.317l-.382-1.146a.494.494 0 0 0-.008-.022l-.676-2.03ZM4.59 4.328l.368-1.102.367 1.102H4.59Z" clip-rule="evenodd"></path></g></svg>