<svg xmlns="http://www.w3.org/2000/svg" fill="none" viewBox="0 0 14 14" id="Group-Meeting-Call--Streamline-Core">
  <desc>
    Group Meeting Call Streamline Icon: https://streamlinehq.com
  </desc>
  <g id="group-meeting-call--group-meeting-call-work">
    <path id="Subtract" fill="#000000" fill-rule="evenodd" d="M2.218 0C1.545 0 1 0.545 1 1.218v4.57c0 0.674 0.545 1.22 1.218 1.22h9.564c0.673 0 1.218 -0.546 1.218 -1.22v-4.57C13 0.545 12.455 0 11.782 0H2.218Zm2.703 9.441a1.441 1.441 0 1 1 -2.883 0 1.441 1.441 0 0 1 2.883 0Zm5.604 1.442a1.441 1.441 0 1 0 0 -2.883 1.441 1.441 0 0 0 0 2.883Zm-7.046 0.778a2.336 2.336 0 0 0 -2.303 1.947c-0.035 0.212 0.143 0.388 0.358 0.388h3.891c0.215 0 0.393 -0.176 0.358 -0.388a2.336 2.336 0 0 0 -2.304 -1.947Zm4.743 1.947a2.336 2.336 0 0 1 4.607 0c0.035 0.212 -0.143 0.388 -0.358 0.388H8.58c-0.214 0 -0.392 -0.176 -0.357 -0.388ZM8.123 2.121a1.123 1.123 0 1 1 -2.246 0 1.123 1.123 0 0 1 2.246 0ZM5.025 5.657a2.003 2.003 0 0 1 3.95 0c0.03 0.182 -0.122 0.332 -0.306 0.332H5.33c-0.184 0 -0.336 -0.15 -0.306 -0.332Z" clip-rule="evenodd" stroke-width="1"></path>
  </g>
</svg>