<svg xmlns="http://www.w3.org/2000/svg" fill="none" viewBox="0 0 24 24" id="Hearing-Disability--Streamline-Ultimate">
  <desc>
    Hearing Disability Streamline Icon: https://streamlinehq.com
  </desc>
  <path stroke="#000000" stroke-linecap="round" stroke-linejoin="round" stroke-miterlimit="10" d="M5.05267 8.92202c0 -3.8901 3.1216 -7.0021 7.01173 -7.0021 5.606 0 9.1777 7.3609 5.3263 11.55898 -0.2223 0.3335 -0.5558 0.5558 -0.7781 0.7781 -1.1114 0.8891 -1.7783 2.3339 -1.7783 3.7788 0 2.6675 -2.2229 4.8905 -4.89043 4.8905 -1.2635 0 -2.4271 -0.4987 -3.3022 -1.3071" stroke-width="1.5"></path>
  <path stroke="#000000" stroke-linecap="round" stroke-linejoin="round" stroke-miterlimit="10" d="M8.7757 8.92238c0 -1.8169 1.4131 -3.23 3.23 -3.23 0.6138 0 1.1817 0.1728 1.6644 0.4679" stroke-width="1.5"></path>
  <path stroke="#000000" stroke-linecap="round" stroke-linejoin="round" d="M1.07361 22.9265 11.5762 12.4239M22.9264 1.07373l-4.7487 4.7487" stroke-width="1.5"></path>
</svg>