<svg xmlns="http://www.w3.org/2000/svg" fill="none" viewBox="0 0 24 24" id="Lift-1--Streamline-Ultimate">
  <desc>
    Lift 1 Streamline Icon: https://streamlinehq.com
  </desc>
  <path stroke="#000000" stroke-linecap="round" stroke-linejoin="round" d="M22.25 0.75H1.75c-0.55228 0 -1 0.44772 -1 1v20.5c0 0.5523 0.44772 1 1 1h20.5c0.5523 0 1 -0.4477 1 -1V1.75c0 -0.55228 -0.4477 -1 -1 -1Z" stroke-width="1"></path>
  <path stroke="#000000" stroke-linecap="round" stroke-linejoin="round" d="M4.5 23.25V10.5c0 -0.1989 0.07902 -0.3897 0.21967 -0.53033 0.14065 -0.14065 0.33142 -0.21967 0.53033 -0.21967h10.5c0.1989 0 0.3897 0.07902 0.5303 0.21967 0.1407 0.14063 0.2197 0.33143 0.2197 0.53033v12.75" stroke-width="1"></path>
  <path stroke="#000000" stroke-linecap="round" stroke-linejoin="round" d="M10.5 9.75v13.5" stroke-width="1"></path>
  <path stroke="#000000" d="M19.875 14.25c-0.2071 0 -0.375 -0.1679 -0.375 -0.375s0.1679 -0.375 0.375 -0.375" stroke-width="1"></path>
  <path stroke="#000000" d="M19.875 14.25c0.2071 0 0.375 -0.1679 0.375 -0.375s-0.1679 -0.375 -0.375 -0.375" stroke-width="1"></path>
  <path stroke="#000000" d="M19.875 18c-0.2071 0 -0.375 -0.1679 -0.375 -0.375s0.1679 -0.375 0.375 -0.375" stroke-width="1"></path>
  <path stroke="#000000" d="M19.875 18c0.2071 0 0.375 -0.1679 0.375 -0.375s-0.1679 -0.375 -0.375 -0.375" stroke-width="1"></path>
  <path stroke="#000000" stroke-linecap="round" stroke-linejoin="round" d="M7.5 6h6" stroke-width="1"></path>
</svg>