<svg xmlns="http://www.w3.org/2000/svg" fill="none" viewBox="0 0 24 24" id="Safety-911--Streamline-Ultimate">
  <desc>
    Safety 911 Streamline Icon: https://streamlinehq.com
  </desc>
  <path stroke="#000000" stroke-linecap="round" stroke-linejoin="round" d="m9.88 3.34997 -2.13 1.14c-1.93163 1.03047 -3.74561 2.26773 -5.41 3.69 -0.76946 0.67149 -1.28762 1.58475 -1.469346 2.58973C0.688925 11.7746 0.854438 12.8115 1.34 13.71l0.42 0.79c0.18671 0.3437 0.50031 0.6009 0.87392 0.7167 0.37361 0.1158 0.77768 0.0811 1.12608 -0.0967l3.31 -1.77c0.34371 -0.1868 0.60089 -0.5003 0.71671 -0.874 0.11581 -0.3736 0.08111 -0.7776 -0.09671 -1.126 -0.17862 -0.3472 -0.21482 -0.7504 -0.10092 -1.1238 0.11391 -0.37349 0.36894 -0.68782 0.71092 -0.87623l5.3 -2.82c0.3479 -0.18047 0.7529 -0.21659 1.1273 -0.10054 0.3743 0.11605 0.6879 0.37492 0.8727 0.72054 0.1884 0.34197 0.5027 0.597 0.8762 0.71091 0.3735 0.1139 0.7766 0.0777 1.1238 -0.10091l3.34 -1.76c0.3456 -0.18483 0.6045 -0.49838 0.7205 -0.87274 0.1161 -0.37435 0.08 -0.77935 -0.1005 -1.12726l-0.42 -0.79c-0.4661 -0.91158 -1.2304 -1.63601 -2.1656 -2.05267C18.0392 0.740639 16.9895 0.656879 16 0.919967c-2.1245 0.578513 -4.1773 1.393613 -6.12 2.430003Z" stroke-width="1.5"></path>
  <path stroke="#000000" stroke-linecap="round" stroke-linejoin="round" d="M21.74 23.25V16.5c0 -0.1393 -0.0388 -0.2758 -0.112 -0.3943s-0.178 -0.2142 -0.3026 -0.2765c-0.1246 -0.0623 -0.264 -0.0887 -0.4028 -0.0762 -0.1387 0.0125 -0.2712 0.0634 -0.3826 0.147l-1.05 0.6" stroke-width="1.5"></path>
  <path stroke="#000000" stroke-linecap="round" stroke-linejoin="round" d="M20.24 23.25h3" stroke-width="1.5"></path>
  <path stroke="#000000" stroke-linecap="round" stroke-linejoin="round" d="M16.49 23.25V16.5c0 -0.1393 -0.0388 -0.2758 -0.112 -0.3943 -0.0733 -0.1185 -0.178 -0.2142 -0.3026 -0.2765 -0.1246 -0.0623 -0.2641 -0.0887 -0.4028 -0.0762 -0.1387 0.0125 -0.2712 0.0634 -0.3826 0.147l-1 0.6" stroke-width="1.5"></path>
  <path stroke="#000000" stroke-linecap="round" stroke-linejoin="round" d="M14.99 23.25h3" stroke-width="1.5"></path>
  <path stroke="#000000" stroke-linecap="round" stroke-linejoin="round" d="M7.48999 18c0 0.5967 0.23705 1.169 0.65901 1.591 0.42196 0.4219 0.99425 0.659 1.59099 0.659 0.59671 0 1.16901 -0.2371 1.59101 -0.659 0.4219 -0.422 0.659 -0.9943 0.659 -1.591s-0.2371 -1.169 -0.659 -1.591c-0.422 -0.4219 -0.9943 -0.659 -1.59101 -0.659 -0.59674 0 -1.16903 0.2371 -1.59099 0.659 -0.42196 0.422 -0.65901 0.9943 -0.65901 1.591Z" stroke-width="1.5"></path>
  <path stroke="#000000" stroke-linecap="round" stroke-linejoin="round" d="M9 23.25c0.79565 0 1.5587 -0.3161 2.1213 -0.8787 0.5626 -0.5626 0.8787 -1.3257 0.8787 -2.1213V18" stroke-width="1.5"></path>
</svg>