<svg xmlns="http://www.w3.org/2000/svg" fill="none" viewBox="0 0 24 24" id="Safety-Float--Streamline-Ultimate">
  <desc>
    Safety Float Streamline Icon: https://streamlinehq.com
  </desc>
  <path stroke="#000000" stroke-linecap="round" stroke-linejoin="round" d="M14.251 2.51123c1.7582 0.41862 3.3657 1.31696 4.6436 2.59503 1.2779 1.27808 2.176 2.88572 2.5944 4.64397" stroke-width="1.5"></path>
  <path stroke="#000000" stroke-linecap="round" stroke-linejoin="round" d="M2.51099 9.75123c0.41828 -1.75856 1.31649 -3.3665 2.59458 -4.64477 1.27809 -1.27827 2.88591 -2.1767 4.64442 -2.59523" stroke-width="1.5"></path>
  <path stroke="#000000" stroke-linecap="round" stroke-linejoin="round" d="M14.251 21.489c1.7581 -0.4185 3.3656 -1.3166 4.6435 -2.5945 1.2779 -1.2779 2.1761 -2.8854 2.5945 -4.6435" stroke-width="1.5"></path>
  <path stroke="#000000" stroke-linecap="round" stroke-linejoin="round" d="M2.51099 14.25c0.41834 1.7584 1.31658 3.3662 2.59468 4.6443 1.2781 1.2781 2.88589 2.1764 4.64432 2.5947" stroke-width="1.5"></path>
  <path stroke="#000000" stroke-linecap="round" stroke-linejoin="round" d="M8.25 12c0 0.9946 0.39509 1.9484 1.09835 2.6517C10.0516 15.3549 11.0054 15.75 12 15.75c0.9946 0 1.9484 -0.3951 2.6517 -1.0983 0.7032 -0.7033 1.0983 -1.6571 1.0983 -2.6517 0 -0.9946 -0.3951 -1.9484 -1.0983 -2.65165C13.9484 8.64509 12.9946 8.25 12 8.25c-0.9946 0 -1.9484 0.39509 -2.65165 1.09835C8.64509 10.0516 8.25 11.0054 8.25 12Z" stroke-width="1.5"></path>
  <path stroke="#000000" stroke-linecap="round" stroke-linejoin="round" d="M15 9.75h6.75c0.3978 0 0.7794 0.15804 1.0607 0.4393 0.2813 0.2813 0.4393 0.6629 0.4393 1.0607v1.5c0 0.3978 -0.158 0.7794 -0.4393 1.0607s-0.6629 0.4393 -1.0607 0.4393H15" stroke-width="1.5"></path>
  <path stroke="#000000" stroke-linecap="round" stroke-linejoin="round" d="M14.25 15v6.75c0 0.3978 -0.158 0.7794 -0.4393 1.0607s-0.6629 0.4393 -1.0607 0.4393h-1.5c-0.3978 0 -0.7794 -0.158 -1.0607 -0.4393 -0.28126 -0.2813 -0.4393 -0.6629 -0.4393 -1.0607V15" stroke-width="1.5"></path>
  <path stroke="#000000" stroke-linecap="round" stroke-linejoin="round" d="M9 14.25H2.25c-0.39782 0 -0.77936 -0.158 -1.06066 -0.4393C0.908035 13.5294 0.75 13.1478 0.75 12.75v-1.5c0 -0.3978 0.158035 -0.7794 0.43934 -1.0607 0.2813 -0.28126 0.66284 -0.4393 1.06066 -0.4393H9" stroke-width="1.5"></path>
  <path stroke="#000000" stroke-linecap="round" stroke-linejoin="round" d="M9.75 9V2.25c0 -0.39782 0.15804 -0.77936 0.4393 -1.06066C10.4706 0.908035 10.8522 0.75 11.25 0.75h1.5c0.3978 0 0.7794 0.158035 1.0607 0.43934 0.2813 0.2813 0.4393 0.66284 0.4393 1.06066V9" stroke-width="1.5"></path>
</svg>