<svg xmlns="http://www.w3.org/2000/svg" fill="none" viewBox="0 0 24 24" id="Water-Fountain-Jet--Streamline-Ultimate">
  <desc>
    Water Fountain Jet Streamline Icon: https://streamlinehq.com
  </desc>
  <path stroke="#000000" stroke-linecap="round" stroke-linejoin="round" d="M21 9.75c0 -0.39782 -0.158 -0.77936 -0.4393 -1.06066 -0.2813 -0.2813 -0.6629 -0.43934 -1.0607 -0.43934h-18v15H6v-7.5c0 -0.7956 0.31607 -1.5587 0.87868 -2.1213C7.44129 13.0661 8.20435 12.75 9 12.75h10.5c0.3978 0 0.7794 -0.158 1.0607 -0.4393S21 11.6478 21 11.25v-1.5Z" stroke-width="1.5"></path>
  <path stroke="#000000" stroke-linecap="round" stroke-linejoin="round" d="M1.5 8.25c0 -1.98912 0.79018 -3.89678 2.1967 -5.3033S7.01088 0.75 9 0.75h6c0 0.79565 -0.3161 1.55871 -0.8787 2.12132C13.5587 3.43393 12.7956 3.75 12 3.75h-1.5c-1.19347 0 -2.33807 0.47411 -3.18198 1.31802C6.47411 5.91193 6 7.05653 6 8.25H1.5Z" stroke-width="1.5"></path>
  <path stroke="#000000" stroke-linecap="round" stroke-linejoin="round" d="M15.75 15.75h3.75" stroke-width="1.5"></path>
  <path stroke="#000000" stroke-linecap="round" stroke-linejoin="round" d="M18 18.75v4.5" stroke-width="1.5"></path>
  <path stroke="#000000" stroke-linecap="round" stroke-linejoin="round" d="m21 18.75 1.5 3.75" stroke-width="1.5"></path>
  <path stroke="#000000" stroke-linecap="round" stroke-linejoin="round" d="m15 18.75 -1.5 3.75" stroke-width="1.5"></path>
</svg>