<svg xmlns="http://www.w3.org/2000/svg" fill="none" viewBox="0 0 24 24" id="Pets-Allowed--Streamline-Sharp">
  <desc>
    Pets Allowed Streamline Icon: https://streamlinehq.com
  </desc>
  <g id="pets-allowed--travel-wayfinder-pets-allowed">
    <path id="Vector 4103" fill="#79ee8d" d="M11.25 9.5h-8v12l4 0.0002 1 -5.0002h4.5l1 5.0002 4 -0.0002v-10h3c1.1046 0 2 -0.8954 2 -2v-2l-4 -1.5V2.5h-0.5l-7 7Z" stroke-width="1"></path>
    <path id="Union" fill="#0c098c" fill-rule="evenodd" d="M18.25 1.25h-0.5178l-0.3661 0.36612L10.7322 8.25H3.25c-0.41421 0 -0.75 -0.33579 -0.75 -0.75v-2H0v2c0 1.35197 0.825524 2.5111 2 3.0009v12.249l1.24992 0.0001 4 0.0002 1.02483 0.0001 0.20098 -1.0049 0.79904 -3.9954h2.45043l0.7991 3.9954 0.2009 1.0049 1.0249 -0.0001 4 -0.0002L19 22.7499V12.75h1.75c1.7949 0 3.25 -1.4551 3.25 -3.25V6.63375l-0.8111 -0.30416L20 5.13375V1.25h-1.75ZM17.5 6v-0.98223l-5.3661 5.36613 -0.3661 0.3661H4.5v9.5001l1.72525 0.0001 0.79902 -3.9953 0.20096 -1.0049h6.54957l0.2009 1.0049 0.7991 3.9953 1.7252 -0.0001V10.25h4.25c0.4142 0 0.75 -0.33579 0.75 -0.75V8.36625l-3.1889 -1.19584 -0.8111 -0.30416V6Z" clip-rule="evenodd" stroke-width="1"></path>
  </g>
</svg>