<svg xmlns="http://www.w3.org/2000/svg" viewBox="0 0 24 24" id="Bluetooth-Transfer--Streamline-Ultimate">
  <desc>
    Bluetooth Transfer Streamline Icon: https://streamlinehq.com
  </desc>
  <g id="Bluetooth-Transfer--Streamline-Ultimate.svg">
    <path d="M14 12.18a0.27 0.27 0 0 1 -0.08 -0.19 0.25 0.25 0 0 1 0.08 -0.18l4.6 -4.22a1.53 1.53 0 0 0 0.49 -1.08 1.52 1.52 0 0 0 -0.45 -1.09L13.81 0.63a1.5 1.5 0 0 0 -2.56 1.07v7.39a0.25 0.25 0 0 1 -0.15 0.23 0.25 0.25 0 0 1 -0.27 -0.05l-4.9 -4.51a1 1 0 0 0 -1.36 1.48l6.07 5.57a0.25 0.25 0 0 1 0.08 0.18 0.27 0.27 0 0 1 -0.08 0.19l-6.09 5.58a1 1 0 0 0 1.35 1.48l4.93 -4.53a0.26 0.26 0 0 1 0.27 0 0.25 0.25 0 0 1 0.15 0.23v7.4a1.51 1.51 0 0 0 0.92 1.39 1.7 1.7 0 0 0 0.58 0.11 1.52 1.52 0 0 0 1.06 -0.43l4.82 -4.79a1.49 1.49 0 0 0 0 -2.17Zm-0.75 -8.68a0.25 0.25 0 0 1 0.15 -0.23 0.26 0.26 0 0 1 0.28 0l3 3a0.24 0.24 0 0 1 0.07 0.18 0.25 0.25 0 0 1 -0.08 0.18l-3 2.74a0.25 0.25 0 0 1 -0.27 0 0.25 0.25 0 0 1 -0.15 -0.23Zm0.43 17.18a0.26 0.26 0 0 1 -0.28 0.05 0.25 0.25 0 0 1 -0.15 -0.23v-5.72a0.25 0.25 0 0 1 0.15 -0.23 0.25 0.25 0 0 1 0.27 0l3 2.75a0.25 0.25 0 0 1 0.08 0.18 0.24 0.24 0 0 1 -0.07 0.18Z" fill="#000000" stroke-width="1"></path>
    <path d="m18.2960104347 11.5465414946 1.6758430714 -1.6758430714s0.4596194078 -0.4596194077 0.9192388156 0l1.6758430714 1.6758430714s0.4596194077 0.4596194078 0 0.9192388156l-1.6758430714 1.6758430714s-0.4596194078 0.4596194078 -0.9192388156 0l-1.6758430714 -1.6758430714s-0.4596194078 -0.4596194078 0 -0.9192388156" fill="#000000" stroke-width="1"></path>
    <path d="m1.4412611717 11.5412907576 1.6758430714 -1.6758430714s0.4596194078 -0.4596194078 0.9192388156 0L5.71218613 11.5412907576s0.4596194077 0.4596194078 0 0.9192388156l-1.6758430714 1.6758430714s-0.4596194078 0.4596194078 -0.9192388156 0l-1.6758430714 -1.6758430714s-0.4596194078 -0.4596194078 0 -0.9192388156" fill="#000000" stroke-width="1"></path>
  </g>
</svg>