<svg xmlns="http://www.w3.org/2000/svg" viewBox="0 0 24 24" id="Cloud-Data-Transfer--Streamline-Ultimate">
  <desc>
    Cloud Data Transfer Streamline Icon: https://streamlinehq.com
  </desc>
  <g id="Cloud-Data-Transfer--Streamline-Ultimate.svg">
    <path d="M3.8 16.73a1 1 0 0 0 1.2 -1 1 1 0 0 0 -0.8 -1A2.85 2.85 0 0 1 2.64 14 2.35 2.35 0 0 1 2 12.25a2.58 2.58 0 0 1 2.59 -2.59 2.46 2.46 0 0 1 0.53 0.06 1 1 0 0 0 1.2 -1c0.08 -5.75 8.3 -7.36 10.82 -2a1 1 0 0 0 0.94 0.57 3.7 3.7 0 0 1 3 1.3 3.85 3.85 0 0 1 0.91 2.8 3.45 3.45 0 0 1 -1.94 3 1 1 0 0 0 -0.55 0.89 1 1 0 0 0 1.43 0.9A5.49 5.49 0 0 0 24 11.27a5.91 5.91 0 0 0 -1 -3.51 5.8 5.8 0 0 0 -4.2 -2.46 0.25 0.25 0 0 1 -0.19 -0.12 7.69 7.69 0 0 0 -14.1 2.3 0.23 0.23 0 0 1 -0.22 0.19A4.66 4.66 0 0 0 0.62 9.92 4.48 4.48 0 0 0 0 12.37a4.28 4.28 0 0 0 1.24 3.09 4.9 4.9 0 0 0 2.56 1.27Z" fill="#000000" stroke-width="1"></path>
    <path d="M10 11.55a1 1 0 0 0 -2 0v5.75a0.25 0.25 0 0 1 -0.25 0.25H6.5a0.51 0.51 0 0 0 -0.44 0.26 0.49 0.49 0 0 0 0 0.51l0.14 0.23 2.36 3.77a0.5 0.5 0 0 0 0.83 0L12 18.55l0.15 -0.21a0.49 0.49 0 0 0 0 -0.52 0.49 0.49 0 0 0 -0.44 -0.27h-1.5a0.25 0.25 0 0 1 -0.21 -0.25Z" fill="#000000" stroke-width="1"></path>
    <path d="M16 14.55a0.25 0.25 0 0 1 0.25 -0.25h1.5a0.5 0.5 0 0 0 0.45 -0.3 0.51 0.51 0 0 0 0 -0.48l-2.8 -3.76a0.49 0.49 0 0 0 -0.4 -0.21 0.53 0.53 0 0 0 -0.41 0.23l-2.5 3.75a0.49 0.49 0 0 0 0.42 0.75h1.25a0.25 0.25 0 0 1 0.25 0.25v6a1 1 0 0 0 2 0Z" fill="#000000" stroke-width="1"></path>
  </g>
</svg>