<svg xmlns="http://www.w3.org/2000/svg" fill="none" viewBox="0 0 24 24" id="Fiber-Access-1--Streamline-Ultimate">
  <desc>
    Fiber Access 1 Streamline Icon: https://streamlinehq.com
  </desc>
  <path fill="#000000" fill-rule="evenodd" d="M8 5.5a2 2 0 0 1 3.347 -1.479c0.01 0.016 0.019 0.031 0.03 0.046l0.488 0.71A2 2 0 1 1 8 5.5Zm-1.465 -2H1a1 1 0 0 1 0 -2h9a4 4 0 0 1 3.624 2.304L15.825 7H20V5.5a1 1 0 0 1 1.78 -0.625l1.995 2.493a0.996 0.996 0 0 1 0 1.264l-1.994 2.493A1 1 0 0 1 20 10.5V9h-4.7a1 1 0 0 1 -0.824 -0.433l-0.89 -1.293A4 4 0 1 1 6.536 3.5ZM8 18.5a2 2 0 1 1 3.865 0.723l-0.489 0.71 -0.03 0.046A2 2 0 0 1 8 18.5Zm5.624 1.696A4 4 0 0 1 10 22.5H1a1 1 0 1 1 0 -2h5.535a4 4 0 1 1 7.05 -3.774l0.891 -1.293A1 1 0 0 1 15.3 15H20v-1.5a1 1 0 0 1 1.78 -0.625l1.995 2.493a0.996 0.996 0 0 1 0 1.264l-1.994 2.493A1 1 0 0 1 20 18.5V17h-4.175l-2.201 3.196Z" clip-rule="evenodd" stroke-width="1"></path>
</svg>