<svg xmlns="http://www.w3.org/2000/svg" viewBox="0 0 24 24" id="Network-Warning--Streamline-Ultimate">
  <desc>
    Network Warning Streamline Icon: https://streamlinehq.com
  </desc>
  <g id="Network-Warning--Streamline-Ultimate.svg">
    <path d="M10.25 20.45a0.27 0.27 0 0 0 0 -0.26 23 23 0 0 1 -1.48 -2.32 0.25 0.25 0 0 1 0 -0.25 0.24 0.24 0 0 1 0.23 -0.12h2.1a1 1 0 0 0 1 -0.8s0 -0.08 0 -0.11a1 1 0 0 0 -1 -1.09h-3a0.24 0.24 0 0 1 -0.24 -0.19A14.4 14.4 0 0 1 7.49 12a15.92 15.92 0 0 1 0.25 -2.8A0.27 0.27 0 0 1 8 9l14.28 0a0.93 0.93 0 0 0 0.9 -1.33A12 12 0 0 0 11.93 0 12.25 12.25 0 0 0 0 11.8a12 12 0 0 0 9.34 11.9 0.27 0.27 0 0 0 0.24 -0.08 0.25 0.25 0 0 0 0.05 -0.25c-0.2 -0.59 -0.2 -1.37 0.62 -2.92ZM15.93 3a0.24 0.24 0 0 1 0.29 -0.06 9.83 9.83 0 0 1 4.2 3.68 0.25 0.25 0 0 1 -0.21 0.38h-2.28a0.26 0.26 0 0 1 -0.24 -0.17 13.13 13.13 0 0 0 -1.77 -3.52 0.24 0.24 0 0 1 0.01 -0.31ZM8.48 6.65a10.19 10.19 0 0 1 3.36 -4.38 0.26 0.26 0 0 1 0.29 0 10.19 10.19 0 0 1 3.36 4.38 0.23 0.23 0 0 1 0 0.24 0.25 0.25 0 0 1 -0.21 0.11H8.71a0.26 0.26 0 0 1 -0.21 -0.11 0.29 0.29 0 0 1 -0.02 -0.24Zm-4.9 0A10 10 0 0 1 7.72 3 0.24 0.24 0 0 1 8 3a0.24 0.24 0 0 1 0 0.3 13.21 13.21 0 0 0 -1.71 3.53 0.26 0.26 0 0 1 -0.24 0.17H3.79a0.25 0.25 0 0 1 -0.21 -0.38ZM2.8 15.5a0.25 0.25 0 0 1 -0.23 -0.17A9.92 9.92 0 0 1 2 12a9.71 9.71 0 0 1 0.4 -2.82 0.25 0.25 0 0 1 0.24 -0.18h2.8a0.23 0.23 0 0 1 0.19 0.09 0.24 0.24 0 0 1 0.06 0.2 18.1 18.1 0 0 0 0.09 5.91 0.23 0.23 0 0 1 0 0.21 0.25 0.25 0 0 1 -0.19 0.09ZM8.06 21a0.24 0.24 0 0 1 -0.3 0.07 10 10 0 0 1 -3.85 -3.17 0.25 0.25 0 0 1 0 -0.26 0.25 0.25 0 0 1 0.23 -0.14h2.09a0.24 0.24 0 0 1 0.23 0.16 13.45 13.45 0 0 0 1.61 3 0.23 0.23 0 0 1 -0.01 0.34Z" fill="#000000" stroke-width="1"></path>
    <path d="M18.79 12.27a1.45 1.45 0 0 0 -2.56 0l-5.05 9.63a1.42 1.42 0 0 0 0 1.41 1.48 1.48 0 0 0 1.24 0.69h10.15a1.46 1.46 0 0 0 1.23 -0.69 1.45 1.45 0 0 0 0.05 -1.41Zm-1.28 3a0.74 0.74 0 0 1 0.75 0.75v3a0.75 0.75 0 0 1 -1.5 0V16a0.75 0.75 0 0 1 0.75 -0.75Zm0 7a1 1 0 1 1 1 -1 1 1 0 0 1 -1 0.98Z" fill="#000000" stroke-width="1"></path>
  </g>
</svg>