<svg xmlns="http://www.w3.org/2000/svg" fill="none" viewBox="0 0 24 24" id="Lens--Streamline-Sharp">
  <desc>
    Lens Streamline Icon: https://streamlinehq.com
  </desc>
  <g id="lens--photos-camera-shutter-picture-photography-pictures-photo-lens">
    <path id="Ellipse 1" fill="#7af1ff" d="M1.25 12a10.75 10.75 0 1 0 21.5 0 10.75 10.75 0 1 0 -21.5 0" stroke-width="1"></path>
    <path id="Union" fill="#0c098c" fill-rule="evenodd" d="M2.5 12c0 -0.1055 0.00172 -0.2107 0.00514 -0.3154l6.9951 4.0387 -4.56059 2.633C3.42308 16.6729 2.5 14.4442 2.5 12Zm5.02515 -0.3038L2.96296 9.06222c0.76309 -2.34902 2.41658 -4.29658 4.56219 -5.44441v8.07839Zm-0.54661 8.3697 6.99676 -4.0396v5.2681c-0.6372 0.1347 -1.298 0.2056 -1.9753 0.2056 -1.8436 0 -3.56459 -0.5252 -5.02146 -1.4341Zm14.51636 -7.7518c0.0034 -0.1043 0.0051 -0.209 0.0051 -0.3141 0 -2.44434 -0.9232 -4.67306 -2.4398 -6.35654l-4.5596 2.63249 6.9943 4.03815Zm-0.4575 2.6226 -4.5621 -2.6339v8.0791c2.1457 -1.148 3.7992 -3.0959 4.5621 -5.4452ZM17.0212 3.93391l-6.9961 4.03917V2.70554C10.6622 2.57085 11.3228 2.5 12 2.5c1.8435 0 3.5644 0.52511 5.0212 1.43391ZM12 0C5.37258 0 0 5.37258 0 12c0 6.6274 5.37258 12 12 12 6.6274 0 12 -5.3726 12 -12 0 -6.62742 -5.3726 -12 -12 -12Z" clip-rule="evenodd" stroke-width="1"></path>
  </g>
</svg>