<svg xmlns="http://www.w3.org/2000/svg" fill="none" viewBox="0 0 14 14" id="Discussion-Converstion-Reply--Streamline-Flex">
  <desc>
    Discussion Converstion Reply Streamline Icon: https://streamlinehq.com
  </desc>
  <g id="discussion-converstion-reply">
    <path id="Union" fill="#d7e0ff" d="M10.5153 1.39348c-1.13569 -0.15068 -2.38197 -0.26897 -3.5244 -0.26897s-2.38701 0.11825 -3.52272 0.26893c-0.78179 0.10376 -1.39548 0.82901 -1.48101 1.74502 -0.20523 2.19793 -0.24573 4.29104 -0.06212 6.49899l-0.59839 3.22375 2.58186 -0.7199c1.01152 0.1215 2.08611 0.2096 3.08238 0.2096 1.1424 0 2.38863 -0.1158 3.5243 -0.2651 0.7819 -0.1028 1.3956 -0.828 1.4807 -1.7441 0.2272 -2.44541 0.2267 -4.76669 0.0001 -7.2032 -0.0852 -0.91604 -0.6989 -1.64129 -1.4807 -1.74502Z" stroke-width="1"></path>
    <path id="Union_2" stroke="#4147d5" stroke-linecap="round" stroke-linejoin="round" d="M12.1397 5.63304c0.0169 0.37795 0.0264 0.75189 0.0264 1.11556 0 1.2287 -0.1087 2.57686 -0.2418 3.7998 -0.092 0.846 -0.7558 1.5158 -1.6015 1.6107 -2.39084 0.2683 -3.81026 0.2968 -6.2035 0.0512l-2.79264 0.6649 0.64724 -2.97726c-0.01974 -0.20271 -0.03847 -0.40757 -0.05584 -0.61354M11.9738 3.42442c-0.0159 -0.15873 -0.0325 -0.31595 -0.0494 -0.47116 -0.0921 -0.84602 -0.7559 -1.51583 -1.6015 -1.61162 -2.55485 -0.28942 -4.12507 -0.28957 -6.6799 -0.00004 -0.8456 0.09583 -1.5094 0.76564 -1.60191 1.61161 -0.13357 1.22139 -0.24311 2.56698 -0.24311 3.79539 0 0.19679 0.00281 0.39665 0.00808 0.59856" stroke-width="1"></path>
    <path id="Vector" stroke="#4147d5" stroke-linecap="round" stroke-linejoin="round" d="M0.525879 6.0816c0.259412 0.51883 0.778241 1.03765 1.297041 1.29706 0.51884 -0.25941 1.03767 -0.77823 1.29708 -1.29706" stroke-width="1"></path>
    <path id="Vector_2" stroke="#4147d5" stroke-linecap="round" stroke-linejoin="round" d="M10.8691 6.89447c0.2595 -0.51882 0.7783 -1.03765 1.2971 -1.29706 0.5188 0.25941 1.0376 0.77824 1.2971 1.29706" stroke-width="1"></path>
  </g>
</svg>