<svg xmlns="http://www.w3.org/2000/svg" fill="none" viewBox="0 0 14 14" id="Button-Play--Streamline-Core">
  <desc>
    Button Play Streamline Icon: https://streamlinehq.com
  </desc>
  <g id="button-play--button-television-buttons-movies-play-tv-video-controls">
    <path id="Vector" fill="#d7e0ff" d="M1.43588 12.3299c0.00359 0.2084 0.06422 0.4118 0.17529 0.5881 0.11107 0.1763 0.26834 0.3188 0.45471 0.4119 0.18611 0.1052 0.39624 0.1605 0.61 0.1605s0.4239 -0.0553 0.61 -0.1605l8.65002 -5.34996c0.1882 -0.09067 0.347 -0.23262 0.4581 -0.40952 0.1112 -0.1769 0.1701 -0.38157 0.1701 -0.59048 0 -0.20891 -0.0589 -0.41358 -0.1701 -0.59048 -0.1111 -0.1769 -0.2699 -0.31885 -0.4581 -0.40952L3.28588 0.669938c-0.1861 -0.105157 -0.39624 -0.160417 -0.61 -0.160417s-0.42389 0.05526 -0.61 0.160417c-0.18637 0.093189 -0.34364 0.235677 -0.45471 0.411982 -0.11107 0.1763 -0.1717 0.37968 -0.17529 0.58802V12.3299Z" stroke-width="1"></path>
    <path id="Vector_2" stroke="#4147d5" stroke-linecap="round" stroke-linejoin="round" d="M1.43588 12.3299c0.00359 0.2084 0.06422 0.4118 0.17529 0.5881 0.11107 0.1763 0.26834 0.3188 0.45471 0.4119 0.18611 0.1052 0.39624 0.1605 0.61 0.1605s0.4239 -0.0553 0.61 -0.1605l8.65002 -5.34996c0.1882 -0.09067 0.347 -0.23262 0.4581 -0.40952 0.1112 -0.1769 0.1701 -0.38157 0.1701 -0.59048 0 -0.20891 -0.0589 -0.41358 -0.1701 -0.59048 -0.1111 -0.1769 -0.2699 -0.31885 -0.4581 -0.40952L3.28588 0.669938c-0.1861 -0.105157 -0.39624 -0.160417 -0.61 -0.160417s-0.42389 0.05526 -0.61 0.160417c-0.18637 0.093189 -0.34364 0.235677 -0.45471 0.411982 -0.11107 0.1763 -0.1717 0.37968 -0.17529 0.58802V12.3299Z" stroke-width="1"></path>
  </g>
</svg>