<svg xmlns="http://www.w3.org/2000/svg" fill="none" viewBox="0 0 14 14" id="Chess-Pawn--Streamline-Core">
  <desc>
    Chess Pawn Streamline Icon: https://streamlinehq.com
  </desc>
  <g id="chess-pawn">
    <path id="Vector" fill="#d7e0ff" d="M5.60715 5.14282C5.40832 6.59022 4.74576 9.71857 3.75 10.7143l6.5 0c-0.9957 -0.99569 -1.65831 -4.124 -1.85715 -5.57148h-2.7857Z" stroke-width="1"></path>
    <path id="Ellipse 77" stroke="#4147d5" stroke-linecap="round" stroke-linejoin="round" d="M3.75 10.7143c0.99576 -0.99573 1.65832 -4.12408 1.85715 -5.57148" stroke-width="1"></path>
    <path id="Ellipse 78" stroke="#4147d5" stroke-linecap="round" stroke-linejoin="round" d="M10.25 10.7143c-0.99573 -0.99569 -1.65834 -4.124 -1.85718 -5.57148" stroke-width="1"></path>
    <path id="Rectangle 56" fill="#d7e0ff" d="M2.60975 11.3493c0.1264 -0.3792 0.48124 -0.6349 0.88093 -0.6349l7.01862 0c0.3997 0 0.7545 0.2557 0.8809 0.6349l0.7169 2.1508H1.89282l0.71693 -2.1508Z" stroke-width="1"></path>
    <path id="Ellipse 76" fill="#d7e0ff" d="M4.679 2.821a2.321 2.321 0 1 0 4.642 0 2.321 2.321 0 1 0 -4.642 0" stroke-width="1"></path>
    <path id="Rectangle 57" stroke="#4147d5" stroke-linecap="round" stroke-linejoin="round" d="M2.60975 11.3493c0.1264 -0.3792 0.48124 -0.6349 0.88093 -0.6349l7.01862 0c0.3997 0 0.7545 0.2557 0.8809 0.6349l0.7169 2.1508H1.89282l0.71693 -2.1508Z" stroke-width="1"></path>
    <path id="Ellipse 79" stroke="#4147d5" stroke-linecap="round" stroke-linejoin="round" d="M4.679 2.821a2.321 2.321 0 1 0 4.642 0 2.321 2.321 0 1 0 -4.642 0" stroke-width="1"></path>
    <path id="Vector 972" stroke="#4147d5" stroke-linecap="round" stroke-linejoin="round" d="M4.21429 5.14282h5.57146" stroke-width="1"></path>
  </g>
</svg>