<svg xmlns="http://www.w3.org/2000/svg" fill="none" viewBox="0 0 14 14"><g id="music-note-2--music-audio-note-entertainment"><path id="Vector" fill="#37d7ff" d="M13.5 3.42V1.08a.499.499 0 0 0-.63-.48l-8 2.22a.5.5 0 0 0-.37.48v2.62"></path><path id="Vector_2" fill="#37d7ff" d="M11.5 10.92a2 2 0 1 0 0-4 2 2 0 0 0 0 4Z"></path><path id="Vector_3" fill="#37d7ff" d="M2.5 13.42a2 2 0 1 0 0-4 2 2 0 0 0 0 4Z"></path><path id="Vector_4" stroke="#3e3e3e" stroke-linecap="round" stroke-linejoin="round" d="M2.5 13.42a2 2 0 1 0 0-4 2 2 0 0 0 0 4Z"></path><path id="Vector_5" stroke="#3e3e3e" stroke-linecap="round" stroke-linejoin="round" d="M11.5 10.92a2 2 0 1 0 0-4 2 2 0 0 0 0 4Z"></path><path id="Vector_6" stroke="#3e3e3e" stroke-linecap="round" stroke-linejoin="round" d="M13.5 8.92V1.08a.499.499 0 0 0-.63-.48l-8 2.22a.5.5 0 0 0-.37.48v8.12"></path><path id="Vector_7" stroke="#3e3e3e" stroke-linecap="round" stroke-linejoin="round" d="m4.5 5.92 9-2.5"></path></g></svg>