<svg xmlns="http://www.w3.org/2000/svg" fill="none" viewBox="0 0 14 14" id="Play-List-5--Streamline-Core">
  <desc>
    Play List 5 Streamline Icon: https://streamlinehq.com
  </desc>
  <g id="play-list-5--player-television-movies-slider-media-tv-players-video-stack-entertainment">
    <path id="Vector" fill="#ffffff" d="M4.35 8.5a1.35 1.35 0 1 0 0 -2.7 1.35 1.35 0 0 0 0 2.7Z" stroke-width="1"></path>
    <path id="Subtract" fill="#d7e0ff" fill-rule="evenodd" d="M1.5 0.5H10a1 1 0 0 1 1 1V10a1 1 0 0 1 -1 1H1.5a1 1 0 0 1 -1 -1V1.5a1 1 0 0 1 1 -1Zm4.2 6.65a1.35 1.35 0 1 1 -2.7 0 1.35 1.35 0 0 1 2.7 0Z" clip-rule="evenodd" stroke-width="1"></path>
    <path id="Vector_2" stroke="#4147d5" stroke-linecap="round" stroke-linejoin="round" d="M4.35 8.5a1.35 1.35 0 1 0 0 -2.7 1.35 1.35 0 0 0 0 2.7Z" stroke-width="1"></path>
    <path id="Vector_3" stroke="#4147d5" stroke-linecap="round" stroke-linejoin="round" d="M10 0.5H1.5a1 1 0 0 0 -1 1V10a1 1 0 0 0 1 1H10a1 1 0 0 0 1 -1V1.5a1 1 0 0 0 -1 -1Z" stroke-width="1"></path>
    <path id="Vector_4" stroke="#4147d5" stroke-linecap="round" stroke-linejoin="round" d="M8.49 5a3 3 0 0 0 -2.8 -2v4.15" stroke-width="1"></path>
    <path id="Vector_5" stroke="#4147d5" stroke-linecap="round" stroke-linejoin="round" d="M13.5 3.5v9a1 1 0 0 1 -1 1h-9" stroke-width="1"></path>
  </g>
</svg>