<svg xmlns="http://www.w3.org/2000/svg" fill="none" viewBox="0 0 14 14" id="Play-List-9--Streamline-Core">
  <desc>
    Play List 9 Streamline Icon: https://streamlinehq.com
  </desc>
  <g id="play-list-9--player-television-movies-slider-media-tv-players-video-stack-entertainment">
    <path id="Rectangle 1683" fill="#d7e0ff" d="M3.6875 5.65625c0 -0.55228 0.44772 -1 1 -1h7.75c0.5523 0 1 0.44772 1 1v5.99995c0 0.5523 -0.4477 1 -1 1h-7.75c-0.55228 0 -1 -0.4477 -1 -1V5.65625Z" stroke-width="1"></path>
    <path id="Rectangle 1681" stroke="#4147d5" stroke-linecap="round" stroke-linejoin="round" d="M3.6875 5.65625c0 -0.55228 0.44772 -1 1 -1h7.75c0.5523 0 1 0.44772 1 1v5.99995c0 0.5523 -0.4477 1 -1 1h-7.75c-0.55228 0 -1 -0.4477 -1 -1V5.65625Z" stroke-width="1"></path>
    <path id="Rectangle 1682" stroke="#4147d5" stroke-linecap="round" stroke-linejoin="round" d="M10.5 2.875v-0.28125c0 -0.55228 -0.4477 -1 -1 -1H1.75c-0.55228 0 -1 0.44772 -1 1v6c0 0.55228 0.44772 1 1 1h0.1875" stroke-width="1"></path>
    <path id="Vector" fill="#ffffff" d="m7.5 6.78125 3 1.875 -3 1.87495V6.78125Z" stroke-width="1"></path>
    <path id="Vector_2" stroke="#4147d5" stroke-linecap="round" stroke-linejoin="round" d="m7.5 6.78125 3 1.875 -3 1.87495V6.78125Z" stroke-width="1"></path>
  </g>
</svg>