<svg xmlns="http://www.w3.org/2000/svg" fill="none" viewBox="0 0 14 14" id="Stream--Streamline-Core">
  <desc>
    Stream Streamline Icon: https://streamlinehq.com
  </desc>
  <g id="stream--stream-entertainment-gaming">
    <path id="Subtract" fill="#d7e0ff" fill-rule="evenodd" d="M10.8976 6.84622c1.5467-.23293 2.6889-1.61099 2.5973-3.20335-.0972-1.68824-1.5446-2.978054-3.2328-2.880885C8.57386.859153 7.28404 2.30651 7.38121 3.99475c.0101.17538.03476.34646.07275.51213L5.81751 8.07322c-.05453-.00028-.10942.00114-.16462.00431-.56873.03274-1.08389.24697-1.49248.5832l-.00721.01789 1.44569.80447c.46744.26011.68108.81801.50697 1.32381-.20231.5877-.84975.8925-1.43164.6741l-1.43412-.5384-.00621.0154c.15641 1.3502 1.34169 2.3599 2.71606 2.2808 1.42525-.082 2.51414-1.3039 2.43211-2.7292-.01511-.2625-.06888-.51353-.15546-.74799l2.671-2.91539Zm.8841-3.20269c.0418.72747-.514 1.35116-1.2414 1.39303-.72752.04187-1.3512-.51393-1.39307-1.24141-.04188-.72748.51392-1.35116 1.24137-1.39303.7275-.04187 1.3512.51393 1.3931 1.24141Z" clip-rule="evenodd"></path>
    <path id="Union" fill="#ffffff" fill-rule="evenodd" d="M10.5403 5.03656c.7274-.04187 1.2832-.66556 1.2414-1.39303-.0419-.72748-.6656-1.28328-1.3931-1.24141-.72745.04187-1.28325.66555-1.24137 1.39303.04187.72748.66555 1.28328 1.39307 1.24141ZM5.59889 9.48309l-4.5878-2.55295-.451886 3.00597L4.67422 11.481c.58189.2184 1.22933-.0864 1.43164-.6741.17411-.5058-.03953-1.0637-.50697-1.32381Z" clip-rule="evenodd"></path>
    <path id="Union_2" stroke="#4147d5" stroke-linecap="round" stroke-linejoin="round" d="M4.16041 8.66073c.40859-.33623.92375-.55046 1.49248-.5832.0552-.00317.11009-.0046.16462-.00431l1.63645-3.56634c-.03799-.16567-.06265-.33675-.07275-.51213C7.28404 2.30651 8.57386.859153 10.2621.761985c1.6882-.097169 3.1356 1.192645 3.2328 2.880885.0916 1.59236-1.0506 2.97042-2.5973 3.20335l-2.671 2.91539c.08658.23445.14035.48549.15546.74799.08203 1.4253-1.00686 2.6472-2.43211 2.7292-1.37437.0791-2.55965-.9306-2.71606-2.2808"></path>
    <path id="Ellipse 254" stroke="#4147d5" stroke-linecap="round" stroke-linejoin="round" transform="rotate(-3.294 10.464 3.72)" d="M9.145 3.719a1.319 1.319 0 1 0 2.638 0 1.319 1.319 0 1 0-2.638 0"></path>
    <path id="Vector 709" stroke="#4147d5" stroke-linecap="round" stroke-linejoin="round" d="m1.01112 6.93021 4.5878 2.55295c.46744.26011.68108.81794.50697 1.32374v0c-.2023.5877-.84975.8926-1.43163.6741L.559234 9.93617"></path>
  </g>
</svg>