<svg xmlns="http://www.w3.org/2000/svg" fill="none" viewBox="0 0 14 14"><g id="stream--stream-entertainment-gaming"><path id="Subtract" fill="#37d7ff" fill-rule="evenodd" d="M10.898 6.846a3.062 3.062 0 1 0-3.444-2.34L5.818 8.074a2.573 2.573 0 0 0-1.657.588l-.008.018 1.446.804a1.104 1.104 0 0 1-.925 1.998l-1.434-.538-.006.015a2.585 2.585 0 1 0 4.993-1.196l2.67-2.916Zm.884-3.202a1.32 1.32 0 1 1-2.635.151 1.32 1.32 0 0 1 2.635-.151Z" clip-rule="evenodd"></path><path id="Union" fill="#ffffff" fill-rule="evenodd" d="M10.54 5.037a1.32 1.32 0 1 0-.152-2.635 1.32 1.32 0 0 0 .152 2.635ZM5.6 9.483 1.01 6.93.56 9.936l4.115 1.545A1.104 1.104 0 0 0 5.6 9.483Z" clip-rule="evenodd"></path><path id="Union_2" stroke="#3e3e3e" stroke-linecap="round" stroke-linejoin="round" d="M4.16 8.66a2.573 2.573 0 0 1 1.658-.587l1.636-3.566a3.062 3.062 0 1 1 3.444 2.34L8.227 9.761a2.585 2.585 0 1 1-4.993 1.196"></path><path id="Ellipse 254" stroke="#3e3e3e" stroke-linecap="round" stroke-linejoin="round" transform="rotate(-3.294 10.464 3.72)" d="M9.145 3.719a1.319 1.319 0 1 0 2.638 0 1.319 1.319 0 1 0-2.638 0"></path><path id="Vector 709" stroke="#3e3e3e" stroke-linecap="round" stroke-linejoin="round" d="M1.011 6.93 5.6 9.483c.467.26.681.818.507 1.324v0c-.202.588-.85.893-1.432.674L.56 9.936"></path></g></svg>