<svg viewBox="0 0 48 48" xmlns="http://www.w3.org/2000/svg"><path d="M3.570 44.500 A16.5 1.5 0 1 0 36.570 44.500 A16.5 1.5 0 1 0 3.570 44.500 Z" fill="#45413c" opacity=".15"></path><path d="M45.4,12.18,27.72,14.34,29.34,27.6l16.79-2.05a.89.89,0,0,0,.78-1Z" fill="#bf8256" stroke="#45413c" stroke-linecap="round" stroke-linejoin="round"></path><path d="M28.57 18.55H46.379999999999995V23H28.57z" fill="#ffe3cf" stroke="#45413c" stroke-linecap="round" stroke-linejoin="round" transform="translate(-2.24 4.7) rotate(-6.96)"></path><path d="M32.52,16.89a.9.9,0,0,0-1-.77.89.89,0,0,0-.77,1l.11.88a1.34,1.34,0,0,1-2.65.33l-.49-4L33.15,8c7.22-.26,12.8,1.35,13.13,4.05L46.76,16a.44.44,0,0,1-.5.49,1.76,1.76,0,0,1-1.42-1.53.89.89,0,1,0-1.77.22l.11.88a.89.89,0,0,1-1.77.22.89.89,0,0,0-1.77.21l.11.89a1.78,1.78,0,0,1-3.54.43l-.16-1.33a.88.88,0,0,0-1-.77.9.9,0,0,0-.78,1l.06.44a.89.89,0,0,1-1.77.22Z" fill="#ff6242"></path><path d="M32.52,16.89a.9.9,0,0,0-1-.77.89.89,0,0,0-.77,1l.11.88a1.34,1.34,0,0,1-2.65.33l-.49-4L33.15,8c7.22-.26,12.8,1.35,13.13,4.05L46.76,16a.44.44,0,0,1-.5.49,1.76,1.76,0,0,1-1.42-1.53.89.89,0,1,0-1.77.22l.11.88a.89.89,0,0,1-1.77.22.89.89,0,0,0-1.77.21l.11.89a1.78,1.78,0,0,1-3.54.43l-.16-1.33a.88.88,0,0,0-1-.77.9.9,0,0,0-.78,1l.06.44a.89.89,0,0,1-1.77.22Z" fill="none" stroke="#45413c" stroke-linecap="round" stroke-linejoin="round"></path><path d="M30.81 13.96L43.63 12.4" fill="none" stroke="#e04122" stroke-linecap="round" stroke-linejoin="round"></path><path d="M3.2,22.52C2.84,25.7,9.48,29.06,18,30s15.78-.81,16.14-4L32.66,39.31c-.36,3.18-7.59,5-16.14,4S1.33,39,1.69,35.79Z" fill="#bf8256" stroke="#45413c" stroke-linecap="round" stroke-linejoin="round"></path><path d="M2.59,27.83C2.23,31,8.87,34.37,17.43,35.34s15.77-.82,16.13-4l-.5,4.42c-.36,3.18-7.59,5-16.14,4S1.73,35.43,2.09,32.25Z" fill="#ffe3cf" stroke="#45413c" stroke-linecap="round" stroke-linejoin="round"></path><path d="M23.22,19.14c-1.24-.25-2.54-.46-3.88-.61-9-1-16.67.71-17,3.89l-.8,7.08a1.33,1.33,0,1,0,2.65.3,1.34,1.34,0,1,1,2.66.3l-.3,2.66a2.22,2.22,0,0,0,4.42.5,1.33,1.33,0,1,1,2.65.3l-.1.88a1.34,1.34,0,0,0,2.66.31l.05-.45a2.22,2.22,0,1,1,4.42.51l-.15,1.32a1.34,1.34,0,0,0,2.66.31l.35-3.1A.44.44,0,0,1,24,33a.43.43,0,0,1,.39.49,2.23,2.23,0,0,0,4.43.5l.2-1.77a1.33,1.33,0,0,1,2.65.3,1.34,1.34,0,0,0,2.66.31L35,27a.89.89,0,0,0-.78-1l-17.26-2Z" fill="#ff6242"></path><path d="M23.22,19.14c-1.24-.25-2.54-.46-3.88-.61-9-1-16.67.71-17,3.89l-.8,7.08a1.33,1.33,0,1,0,2.65.3,1.34,1.34,0,1,1,2.66.3l-.3,2.66a2.22,2.22,0,0,0,4.42.5,1.34,1.34,0,0,1,1.48-1.18,1.33,1.33,0,0,1,1.17,1.48l-.1.88a1.34,1.34,0,0,0,2.66.31l.05-.45a2.22,2.22,0,1,1,4.42.51l-.15,1.32a1.34,1.34,0,0,0,2.66.31l.35-3.1A.44.44,0,0,1,24,33a.43.43,0,0,1,.39.49,2.23,2.23,0,0,0,4.43.5l.2-1.77a1.33,1.33,0,0,1,2.65.3,1.34,1.34,0,0,0,2.66.31L35,27a.85.85,0,0,0-.19-.65.9.9,0,0,0-.59-.33l-17.26-2Z" fill="none" stroke="#45413c" stroke-linecap="round" stroke-linejoin="round"></path><path d="M22.59 24.72L23.22 19.14 16.91 24.08 22.59 24.72z" fill="#bf8256" stroke="#45413c" stroke-linecap="round" stroke-linejoin="round"></path><path d="M4.08,22.62c-.25,2.2,6.09,4.72,14.15,5.64,5.54.63,10.45.34,13.07-.62" fill="none" stroke="#e04122" stroke-linecap="round" stroke-linejoin="round"></path></svg>