<svg viewBox="0 0 48 48" xmlns="http://www.w3.org/2000/svg"><path d="M15.000 45.500 A9 1.5 0 1 0 33.000 45.500 A9 1.5 0 1 0 15.000 45.500 Z" fill="#45413c" opacity=".15"></path><path d="M22.45,31.83c.93,3.73.62,10,.62,10a.63.63,0,0,1-.58.62c-2.57.17-4.55.77-4.94,1.53a.31.31,0,0,0,.14.4A14.17,14.17,0,0,0,24,45.5a14.17,14.17,0,0,0,6.31-1.12.31.31,0,0,0,.14-.4c-.39-.76-2.37-1.36-4.94-1.53a.63.63,0,0,1-.58-.62s-.31-6.27.62-10Z" fill="#00b8f0" stroke="#45413c" stroke-linecap="round" stroke-linejoin="round"></path><path d="M31.14,25.31c0,3.94-3.19,7.76-7.14,7.76s-7.14-3.82-7.14-7.76L18.1,3.87H29.9Z" fill="#00b8f0"></path><path d="M30.52,14.61,29.9,3.87H18.1L16.86,25.31a7.84,7.84,0,0,0,.51,2.75A39,39,0,0,0,30.52,14.61Z" fill="#4acfff"></path><path d="M31.14,25.31c0,3.94-3.19,7.76-7.14,7.76s-7.14-3.82-7.14-7.76L18.1,3.87H29.9Z" fill="none" stroke="#45413c" stroke-linecap="round" stroke-linejoin="round"></path><path d="M18.100 3.870 A5.9 1.24 0 1 0 29.900 3.870 A5.9 1.24 0 1 0 18.100 3.870 Z" fill="#00b8f0" stroke="#45413c" stroke-linecap="round" stroke-linejoin="round"></path><path d="M19.34,20.65a2.68,2.68,0,0,1,2.49-1.56,4.61,4.61,0,0,1,3.41,1.56Z" fill="#ffe500"></path><path d="M29.59,24.69c0,3.08-2.5,6.83-5.59,6.83s-5.59-3.75-5.59-6.83l.31-5s.62.93,2.79.93,2.8-1.87,5-1.87,2.79.94,2.79.94Z" fill="#ffe500"></path><path d="M27.66,18.89a6.47,6.47,0,0,0-1.17-.11c-2.18,0-2.8,1.87-5,1.87s-2.79-.93-2.79-.93l-.31,5a7.23,7.23,0,0,0,.44,2.38A40.87,40.87,0,0,0,27.66,18.89Z" fill="#fff48c"></path><path d="M26.490 15.990 A0.620 0.620 0 1 0 27.730 15.990 A0.620 0.620 0 1 0 26.490 15.990 Z" fill="#ffe500"></path><path d="M27.110 23.130 A0.620 0.620 0 1 0 28.350 23.130 A0.620 0.620 0 1 0 27.110 23.130 Z" fill="#fff48c"></path><path d="M21.830 28.100 A0.620 0.620 0 1 0 23.070 28.100 A0.620 0.620 0 1 0 21.830 28.100 Z" fill="#fff48c"></path><path d="M23.690 24.690 A0.620 0.620 0 1 0 24.930 24.690 A0.620 0.620 0 1 0 23.690 24.690 Z" fill="#fff48c"></path><path d="M25.870 28.100 A0.620 0.620 0 1 0 27.110 28.100 A0.620 0.620 0 1 0 25.870 28.100 Z" fill="#fff48c"></path><path d="M20.270 17.230 A0.620 0.620 0 1 0 21.510 17.230 A0.620 0.620 0 1 0 20.270 17.230 Z" fill="#ffe500"></path><path d="M20.270 22.820 A0.620 0.620 0 1 0 21.510 22.820 A0.620 0.620 0 1 0 20.270 22.820 Z" fill="#fffacf"></path><path d="M23.380 14.120 A0.620 0.620 0 1 0 24.620 14.120 A0.620 0.620 0 1 0 23.380 14.120 Z" fill="#ffe500"></path><path d="M20.590 8.530 A1.240 1.240 0 1 0 23.070 8.530 A1.240 1.240 0 1 0 20.590 8.530 Z" fill="#e5f8ff"></path><path d="M19.340 10.400 A0.620 0.620 0 1 0 20.580 10.400 A0.620 0.620 0 1 0 19.340 10.400 Z" fill="#e5f8ff"></path></svg>