<svg viewBox="0 0 48 48" xmlns="http://www.w3.org/2000/svg"><path d="M6.090 44.660 A17.91 2.34 0 1 0 41.910 44.660 A17.91 2.34 0 1 0 6.090 44.660 Z" fill="#45413c" opacity=".15"></path><path d="M44.48,22.39C46.77,32,39.29,41.24,28,43.93S5.87,41.76,3.58,32.14C.33,18.53,15,12.87,18.06,5a.76.76,0,0,1,1.21-.29C25.58,10.35,41.26,8.9,44.48,22.39Z" fill="#bf8256"></path><path d="M5.9,24.59a23.38,23.38,0,0,1,30.78-7.34,15.07,15.07,0,0,1,7.8,10.07c.08.35.12.69.18,1a15,15,0,0,0-.18-6c-3.22-13.49-18.9-12-25.21-17.73A.76.76,0,0,0,18.06,5c-3,7.67-16.83,13.23-14.73,26A16.19,16.19,0,0,1,5.9,24.59Z" fill="#dea47a"></path><path d="M44.48,22.39C46.77,32,39.29,41.24,28,43.93S5.87,41.76,3.58,32.14C.33,18.53,15,12.87,18.06,5a.76.76,0,0,1,1.21-.29C25.58,10.35,41.26,8.9,44.48,22.39Z" fill="none" stroke="#45413c" stroke-linecap="round" stroke-linejoin="round"></path><path d="M40.8,33.55a11.4,11.4,0,0,1-9.42,1.35A11.37,11.37,0,0,0,20.9,37.39a11.3,11.3,0,0,1-9.32,2.74l-3.72-.58C12.55,44,20.16,45.8,28,43.93c7.51-1.79,13.31-6.48,15.69-12.24Z" fill="#f7e5c6" stroke="#45413c" stroke-linecap="round" stroke-linejoin="round"></path></svg>