<svg viewBox="0 0 48 48" xmlns="http://www.w3.org/2000/svg"><path d="M2.960 45.500 A9.5 1.5 0 1 0 21.960 45.500 A9.5 1.5 0 1 0 2.960 45.500 Z" fill="#45413c" opacity=".15"></path><path d="M28.460 45.520 A9 1.42 0 1 0 46.460 45.520 A9 1.42 0 1 0 28.460 45.520 Z" fill="#45413c" opacity=".15"></path><path d="M40.160 5.920 A1.010 1.010 0 1 0 42.180 5.920 A1.010 1.010 0 1 0 40.160 5.920 Z" fill="#fff" stroke="#45413c" stroke-linecap="round" stroke-linejoin="round"></path><path d="M2.410 12.120 A0.880 0.880 0 1 0 4.170 12.120 A0.880 0.880 0 1 0 2.410 12.120 Z" fill="#fff" stroke="#45413c" stroke-linecap="round" stroke-linejoin="round"></path><path d="M8.38 2.9L8.38 2.37" fill="none" stroke="#45413c" stroke-linecap="round" stroke-linejoin="round"></path><path d="M9.5 3.36L9.88 2.99" fill="none" stroke="#45413c" stroke-linecap="round" stroke-linejoin="round"></path><path d="M9.97 4.49L10.5 4.49" fill="none" stroke="#45413c" stroke-linecap="round" stroke-linejoin="round"></path><path d="M9.5 5.61L9.88 5.99" fill="none" stroke="#45413c" stroke-linecap="round" stroke-linejoin="round"></path><path d="M8.38 6.08L8.38 6.61" fill="none" stroke="#45413c" stroke-linecap="round" stroke-linejoin="round"></path><path d="M7.25 5.61L6.88 5.99" fill="none" stroke="#45413c" stroke-linecap="round" stroke-linejoin="round"></path><path d="M6.79 4.49L6.25 4.49" fill="none" stroke="#45413c" stroke-linecap="round" stroke-linejoin="round"></path><path d="M7.25 3.36L6.88 2.99" fill="none" stroke="#45413c" stroke-linecap="round" stroke-linejoin="round"></path><path d="M32.99 3.7L32.99 2.28" fill="none" stroke="#45413c" stroke-linecap="round" stroke-linejoin="round"></path><path d="M32.28 2.99L33.7 2.99" fill="none" stroke="#45413c" stroke-linecap="round" stroke-linejoin="round"></path><path d="M21.23,3.55a.26.26,0,0,1,.21.08.29.29,0,0,1,.07.22L21,7.19a.26.26,0,0,1-.23.21.25.25,0,0,1-.26-.17L19.4,4.08a.25.25,0,0,1,0-.22.28.28,0,0,1,.19-.12Z" fill="#fff" stroke="#45413c" stroke-linejoin="round"></path><path d="M27,5a.28.28,0,0,1,.12.18.27.27,0,0,1-.08.22L24.56,7.69a.25.25,0,0,1-.31,0,.26.26,0,0,1-.11-.3l1-3.17a.26.26,0,0,1,.15-.16.24.24,0,0,1,.22,0Z" fill="#fff" stroke="#45413c" stroke-linejoin="round"></path><path d="M14.74,5.75a.25.25,0,0,0,0,.4l2.44,2.34a.26.26,0,0,0,.42-.26l-1-3.17a.22.22,0,0,0-.15-.16.25.25,0,0,0-.22,0Z" fill="#fff" stroke="#45413c" stroke-linejoin="round"></path><path d="M11,10.33a.25.25,0,0,0,.21.34l3.36.39a.25.25,0,0,0,.27-.16.25.25,0,0,0-.1-.3L12,8.7a.25.25,0,0,0-.37.11Z" fill="#fff" stroke="#45413c" stroke-linejoin="round"></path><path d="M8.1,23.86,7.5,26.3l-2.17-.53A1.12,1.12,0,0,0,4,26.59l-.79,3.23A2.25,2.25,0,0,0,4,32.16l1.73,1.26-.73,3L2.29,34.35A4.47,4.47,0,0,1,.63,29.71l1.1-4.53a2.79,2.79,0,0,1,3.38-2.05Z" fill="#e5feff" stroke="#45413c" stroke-linecap="round" stroke-linejoin="round"></path><path d="M19.49,41.88A2.87,2.87,0,0,1,19,39.45l3.57-14.66L8.69,21.41,5.12,36.08A2.85,2.85,0,0,1,3.54,38Z" fill="#ffe500"></path><path d="M11.66,40l4.1-16.84,6.79,1.66L19,39.45a2.86,2.86,0,0,0,.51,2.43Z" fill="#fff48c"></path><path d="M19.49,41.88A2.87,2.87,0,0,1,19,39.45l3.57-14.66L8.69,21.41,5.12,36.08A2.85,2.85,0,0,1,3.54,38Z" fill="none" stroke="#45413c" stroke-linecap="round" stroke-linejoin="round"></path><path d="M17.77,30.24a.84.84,0,1,0,1-.61A.83.83,0,0,0,17.77,30.24Z" fill="#ebcb00"></path><path d="M9.06,25.82a.55.55,0,0,0,.41.67.56.56,0,0,0,.68-.41.56.56,0,0,0-1.09-.26Z" fill="#ebcb00"></path><path d="M22.15,26.44l-.3,0A2.2,2.2,0,0,1,21,26l-.47,1.94a.75.75,0,0,1-.9.55.75.75,0,0,1-.55-.9l.46-1.88a2.76,2.76,0,0,1-.9-.07,2.69,2.69,0,0,1-.56-.21L17.25,29a1.34,1.34,0,0,1-2.61-.63l.85-3.47a3.86,3.86,0,0,1-1.88-1.09,2.93,2.93,0,0,1-3.48-.85,2.08,2.08,0,0,1-1.59.24l-.25-.08.4-1.66,13.86,3.38Z" fill="#45413c" opacity=".15"></path><path d="M7.26,19.62a2.08,2.08,0,0,1,2.52-1.53,2.26,2.26,0,0,1,.49.19,3,3,0,0,1,3.11-1.15,2.38,2.38,0,0,1,.55.19,3.86,3.86,0,0,1,6.38,1.5h0a3,3,0,0,1,2.24,2.46,2.35,2.35,0,0,1,.52,0,2.08,2.08,0,1,1-1,4.05,2.11,2.11,0,0,1-.82-.41l-.47,1.93a.75.75,0,0,1-.9.55.75.75,0,0,1-.55-.9l.46-1.88a2.83,2.83,0,0,1-1.46-.27l-.87,3.53a1.34,1.34,0,1,1-2.6-.63l.85-3.47a3.79,3.79,0,0,1-1.88-1.09,3,3,0,0,1-1.89.17,2.92,2.92,0,0,1-1.59-1,2.13,2.13,0,0,1-1.59.25A2.09,2.09,0,0,1,7.26,19.62Z" fill="#fff" stroke="#45413c" stroke-linecap="round" stroke-linejoin="round"></path><path d="M8.29,33.69a.84.84,0,1,0,1-.62A.85.85,0,0,0,8.29,33.69Z" fill="#ebcb00"></path><path d="M14.69,37a.55.55,0,0,0,.41.67.55.55,0,0,0,.67-.41A.56.56,0,1,0,14.69,37Z" fill="#ebcb00"></path><path d="M18.15,33.41a.55.55,0,0,0,.41.67.55.55,0,0,0,.67-.41.56.56,0,1,0-1.08-.26Z" fill="#ebcb00"></path><path d="M11.45,29a.56.56,0,1,0,.68-.41A.57.57,0,0,0,11.45,29Z" fill="#ebcb00"></path><path d="M13.83,32.74a1.11,1.11,0,1,0,2.16.53,7.09,7.09,0,0,0-.4-2.3.2.2,0,0,0-.15-.14.19.19,0,0,0-.2.06A7.22,7.22,0,0,0,13.83,32.74Z" fill="#fff" stroke="#45413c"></path><path d="M2.06,38.93A1.25,1.25,0,0,0,3,40.44l15.94,3.88a1.26,1.26,0,0,0,.6-2.44L3.55,38A1.25,1.25,0,0,0,2.06,38.93Z" fill="#e5feff" stroke="#45413c" stroke-linecap="round" stroke-linejoin="round"></path><path d="M39.56,14.59,40.28,17l2.14-.64a1.11,1.11,0,0,1,1.39.75l.95,3.19A2.23,2.23,0,0,1,44,22.67L42.37,24,43.24,27l2.65-2.2a4.47,4.47,0,0,0,1.42-4.71L46,15.59a2.8,2.8,0,0,0-3.48-1.88Z" fill="#e5feff" stroke="#45413c" stroke-linecap="round" stroke-linejoin="round"></path><path d="M29.09,33.15a2.9,2.9,0,0,0,.39-2.44L25.17,16.24l13.67-4.07,4.31,14.47a2.83,2.83,0,0,0,1.67,1.84Z" fill="#ffe500"></path><path d="M36.81,30.86,31.87,14.25l-6.7,2,4.31,14.47a2.89,2.89,0,0,1-.4,2.45Z" fill="#fff48c"></path><path d="M29.09,33.15a2.9,2.9,0,0,0,.39-2.44L25.17,16.24l13.67-4.07,4.31,14.47a2.83,2.83,0,0,0,1.67,1.84Z" fill="none" stroke="#45413c" stroke-linecap="round" stroke-linejoin="round"></path><path d="M30.22,21.45a.84.84,0,0,1-.56,1,.84.84,0,1,1-.48-1.61A.84.84,0,0,1,30.22,21.45Z" fill="#ebcb00"></path><path d="M38.7,16.59a.56.56,0,0,1-.38.7.55.55,0,0,1-.69-.38.55.55,0,0,1,.37-.69A.56.56,0,0,1,38.7,16.59Z" fill="#ebcb00"></path><path d="M25.66,17.87l.29-.06a2.1,2.1,0,0,0,.8-.45l.57,1.91a.74.74,0,1,0,1.42-.43L28.19,17a2.78,2.78,0,0,0,.9-.11,2.48,2.48,0,0,0,.55-.24l1,3.49a1.34,1.34,0,1,0,2.57-.76l-1-3.43a3.9,3.9,0,0,0,1.82-1.18,2.91,2.91,0,0,0,3.43-1,2.15,2.15,0,0,0,1.6.17l.25-.11-.49-1.63L25.17,16.24Z" fill="#45413c" opacity=".15"></path><path d="M40.18,10.31a2.08,2.08,0,0,0-2.59-1.4,2.58,2.58,0,0,0-.48.21,3,3,0,0,0-3.17-1,2.27,2.27,0,0,0-.53.22,3.86,3.86,0,0,0-6.3,1.81h0A3,3,0,0,0,25,12.73a2.43,2.43,0,0,0-.52.08,2.09,2.09,0,0,0,1.19,4,2,2,0,0,0,.8-.46L27,18.27a.74.74,0,1,0,1.42-.43L27.89,16a2.79,2.79,0,0,0,.9-.12,2.45,2.45,0,0,0,.55-.23l1,3.49A1.34,1.34,0,0,0,33,18.36l-1-3.42a3.85,3.85,0,0,0,1.82-1.18,2.91,2.91,0,0,0,3.44-1,2,2,0,0,0,1.59.17A2.08,2.08,0,0,0,40.18,10.31Z" fill="#fff" stroke="#45413c" stroke-linecap="round" stroke-linejoin="round"></path><path d="M39.86,24.42a.84.84,0,1,1-1-.57A.84.84,0,0,1,39.86,24.42Z" fill="#ebcb00"></path><path d="M33.64,28a.56.56,0,0,1-1.08.32.57.57,0,0,1,.38-.7A.56.56,0,0,1,33.64,28Z" fill="#ebcb00"></path><path d="M30,24.63a.56.56,0,1,1-.69-.38A.55.55,0,0,1,30,24.63Z" fill="#ebcb00"></path><path d="M36.47,19.88a.57.57,0,0,1-.38.7.56.56,0,1,1,.38-.7Z" fill="#ebcb00"></path><path d="M34.28,23.75a1.11,1.11,0,0,1-2.13.63,7.06,7.06,0,0,1,.28-2.31.21.21,0,0,1,.14-.15.2.2,0,0,1,.21,0A7.2,7.2,0,0,1,34.28,23.75Z" fill="#fff" stroke="#45413c"></path><path d="M46.34,29.33a1.24,1.24,0,0,1-.81,1.56L29.8,35.57a1.26,1.26,0,0,1-.71-2.41l15.72-4.68A1.23,1.23,0,0,1,46.34,29.33Z" fill="#e5feff" stroke="#45413c" stroke-linecap="round" stroke-linejoin="round"></path></svg>