<svg viewBox="0 0 48 48" xmlns="http://www.w3.org/2000/svg"><path d="M6.130 44.860 A17.87 2.14 0 1 0 41.870 44.860 A17.87 2.14 0 1 0 6.130 44.860 Z" fill="#45413c" opacity=".15"></path><path d="M33.49,42.91c0,1.43-4.25,2.59-9.49,2.59s-9.49-1.16-9.49-2.59V39.46h19Z" fill="#ff6242" stroke="#45413c" stroke-linecap="round" stroke-linejoin="round"></path><path d="M3.3,17.89s4.31,6,20.7,6,20.7-6,20.7-6S48.16,42.05,24,42.05,3.3,17.89,3.3,17.89Z" fill="#ff866e"></path><path d="M24,29.41c12.41,0,18.29-3.05,20.65-4.82a27.89,27.89,0,0,0,.05-6.7s-4.31,6-20.7,6-20.7-6-20.7-6a27.89,27.89,0,0,0,.05,6.7C5.71,26.36,11.59,29.41,24,29.41Z" fill="#ffa694"></path><path d="M3.3,17.89s4.31,6,20.7,6,20.7-6,20.7-6S48.16,42.05,24,42.05,3.3,17.89,3.3,17.89Z" fill="none" stroke="#45413c" stroke-linecap="round" stroke-linejoin="round"></path><path d="M3.300 17.460 A20.7 6.47 0 1 0 44.700 17.460 A20.7 6.47 0 1 0 3.300 17.460 Z" fill="#ff6242" stroke="#45413c" stroke-linecap="round" stroke-linejoin="round"></path><path d="M24,3.52C11.18,3.52,6.75,16.13,6.75,16.13S10.46,20.48,24,20.48s17.25-4.35,17.25-4.35S36.82,3.52,24,3.52Z" fill="#f0f0f0"></path><path d="M6.87,16.25A20,20,0,0,1,24,6.94a20,20,0,0,1,17.13,9.31l.12-.12S36.82,3.52,24,3.52,6.75,16.13,6.75,16.13Z" fill="#fff"></path><path d="M24,3.52C11.18,3.52,6.75,16.13,6.75,16.13S10.46,20.48,24,20.48s17.25-4.35,17.25-4.35S36.82,3.52,24,3.52Z" fill="none" stroke="#45413c" stroke-linecap="round" stroke-linejoin="round"></path><path d="M17.77,10.09c.36.7-.62,1.93-2.19,2.75s-3.15.93-3.52.23.62-1.94,2.19-2.76S17.4,9.39,17.77,10.09Z" fill="#fff" stroke="#45413c" stroke-linecap="round" stroke-linejoin="round"></path><path d="M22,13.27c.06.79-1.32,1.54-3.1,1.67s-3.25-.39-3.31-1.18,1.33-1.54,3.1-1.67S21.94,12.49,22,13.27Z" fill="#fff" stroke="#45413c" stroke-linecap="round" stroke-linejoin="round"></path><path d="M33.42,16.62c-.06.79-1.55,1.32-3.32,1.18s-3.16-.88-3.1-1.67,1.55-1.31,3.32-1.18S33.48,15.83,33.42,16.62Z" fill="#fff" stroke="#45413c" stroke-linecap="round" stroke-linejoin="round"></path><path d="M30.45,8.59c-.16.77-1.7,1.1-3.44.74S24,8,24.15,7.27s1.71-1.1,3.45-.74S30.62,7.82,30.45,8.59Z" fill="#fff" stroke="#45413c" stroke-linecap="round" stroke-linejoin="round"></path><path d="M37,13.94c.07.78-1.31,1.55-3.08,1.71s-3.26-.35-3.33-1.14,1.3-1.55,3.07-1.71S36.92,13.15,37,13.94Z" fill="#fff" stroke="#45413c" stroke-linecap="round" stroke-linejoin="round"></path></svg>