<svg viewBox="0 0 48 48" xmlns="http://www.w3.org/2000/svg"><path d="M17.17,18.08c-2.88-.59-6.79-.57-8.24,2-1.86,3.29,1.1,4.89,2.92,3.2s-1.63-6-8-3.85" fill="none" stroke="#45413c" stroke-linecap="round" stroke-linejoin="round"></path><path d="M38.93,36a5.12,5.12,0,1,1-7.1-1.4A5.12,5.12,0,0,1,38.93,36Z" fill="#9f5ae5"></path><path d="M39.44,37a4.44,4.44,0,0,1-.59.46,6.29,6.29,0,0,1-3.58,1.06,6.14,6.14,0,0,1-2.66,4.15,4.86,4.86,0,0,1-.77.43,4.82,4.82,0,0,1-1.41-1.4,5.11,5.11,0,0,1,0-5.66,5.25,5.25,0,0,1,1.42-1.44,5,5,0,0,1,2.32-.84A5.12,5.12,0,0,1,38.93,36,4.3,4.3,0,0,1,39.44,37Z" fill="#803ec2"></path><path d="M38.93,36a5.12,5.12,0,1,1-7.1-1.4A5.12,5.12,0,0,1,38.93,36Z" fill="none" stroke="#45413c" stroke-linecap="round" stroke-linejoin="round"></path><path d="M31.94,15.31a5.68,5.68,0,1,1-7.88-1.56A5.69,5.69,0,0,1,31.94,15.31Z" fill="#803ec2" stroke="#45413c" stroke-linecap="round" stroke-linejoin="round"></path><path d="M13.670 44.290 A13.08 1.71 0 1 0 39.830 44.290 A13.08 1.71 0 1 0 13.670 44.290 Z" fill="#45413c" opacity=".15"></path><path d="M23.44,21a5.68,5.68,0,1,1-7.89-1.56A5.67,5.67,0,0,1,23.44,21Z" fill="#9f5ae5"></path><path d="M15.55,22.42A5.69,5.69,0,0,1,23.44,24a5.57,5.57,0,0,1,.76,1.67,5.68,5.68,0,1,0-11,0A5.72,5.72,0,0,1,15.55,22.42Z" fill="#bf8df2"></path><path d="M23.44,21a5.68,5.68,0,1,1-7.89-1.56A5.67,5.67,0,0,1,23.44,21Z" fill="none" stroke="#45413c" stroke-linecap="round" stroke-linejoin="round"></path><path d="M22.67,29.05a5.69,5.69,0,1,1-7.89-1.56A5.69,5.69,0,0,1,22.67,29.05Z" fill="#9f5ae5"></path><path d="M14.78,30.77a5.69,5.69,0,0,1,7.89,1.56,5.86,5.86,0,0,1,.72,1.52,5.69,5.69,0,1,0-10.89,0A5.71,5.71,0,0,1,14.78,30.77Z" fill="#bf8df2"></path><path d="M22.67,29.05a5.69,5.69,0,1,1-7.89-1.56A5.69,5.69,0,0,1,22.67,29.05Z" fill="none" stroke="#45413c" stroke-linecap="round" stroke-linejoin="round"></path><path d="M38.41,17.82a5.68,5.68,0,1,1-7.88-1.56A5.69,5.69,0,0,1,38.41,17.82Z" fill="#9f5ae5"></path><path d="M30.53,19.44A5.69,5.69,0,0,1,38.41,21a5.61,5.61,0,0,1,.74,1.57,5.69,5.69,0,1,0-10.92,0A5.68,5.68,0,0,1,30.53,19.44Z" fill="#bf8df2"></path><path d="M38.41,17.82a5.68,5.68,0,1,1-7.88-1.56A5.69,5.69,0,0,1,38.41,17.82Z" fill="none" stroke="#45413c" stroke-linecap="round" stroke-linejoin="round"></path><path d="M39.54,26.65a5.68,5.68,0,1,1-7.89-1.56A5.67,5.67,0,0,1,39.54,26.65Z" fill="#9f5ae5"></path><path d="M31.65,27.49A5.68,5.68,0,0,1,40.37,31a5.68,5.68,0,1,0-11.11,0A5.62,5.62,0,0,1,31.65,27.49Z" fill="#bf8df2"></path><path d="M39.54,26.65a5.68,5.68,0,1,1-7.89-1.56A5.67,5.67,0,0,1,39.54,26.65Z" fill="none" stroke="#45413c" stroke-linecap="round" stroke-linejoin="round"></path><path d="M31.2,33.6A5.69,5.69,0,1,1,23.31,32,5.7,5.7,0,0,1,31.2,33.6Z" fill="#9f5ae5"></path><path d="M32,35.27a6.83,6.83,0,0,1-1.13.93c-3,2-6.92,1.48-8.73-1.23a4.62,4.62,0,0,1-.54-1,5.67,5.67,0,0,1,9.65-.34A5.54,5.54,0,0,1,32,35.27Z" fill="#803ec2"></path><path d="M31.2,33.6A5.69,5.69,0,1,1,23.31,32,5.7,5.7,0,0,1,31.2,33.6Z" fill="none" stroke="#45413c" stroke-linecap="round" stroke-linejoin="round"></path><path d="M25.59,22.29a19.49,19.49,0,0,0-6.8-7.08,17.2,17.2,0,0,0-7.17-2.75,1.13,1.13,0,0,0-1.2.69l-.59,1.44a1.13,1.13,0,0,0,1,1.57,14.62,14.62,0,0,1,6.59,2c5.48,3.34,7,6.3,7,6.3Z" fill="#6dd627"></path><path d="M18.13,16.69a20.4,20.4,0,0,1,6.93,6.53l.53-.93a19.49,19.49,0,0,0-6.8-7.08,17.2,17.2,0,0,0-7.17-2.75,1.13,1.13,0,0,0-1.2.69L10,14.1A18.5,18.5,0,0,1,18.13,16.69Z" fill="#9ceb60"></path><path d="M25.59,22.29a19.49,19.49,0,0,0-6.8-7.08,17.2,17.2,0,0,0-7.17-2.75,1.13,1.13,0,0,0-1.2.69l-.59,1.44a1.13,1.13,0,0,0,1,1.57,14.62,14.62,0,0,1,6.59,2c5.48,3.34,7,6.3,7,6.3Z" fill="none" stroke="#45413c" stroke-linecap="round" stroke-linejoin="round"></path><path d="M33.22,23.35a6.82,6.82,0,1,1-9.46-1.87A6.81,6.81,0,0,1,33.22,23.35Z" fill="#9f5ae5"></path><path d="M23.76,25.41a6.83,6.83,0,0,1,10.33,3.7,6.82,6.82,0,1,0-13.07,0A6.8,6.8,0,0,1,23.76,25.41Z" fill="#bf8df2"></path><path d="M33.22,23.35a6.82,6.82,0,1,1-9.46-1.87A6.81,6.81,0,0,1,33.22,23.35Z" fill="none" stroke="#45413c" stroke-linecap="round" stroke-linejoin="round"></path><path d="M16.41,5.31a.66.66,0,0,1,1.08-.37L19.6,6.71a.65.65,0,0,0,1-.17l.14-.23A6.12,6.12,0,0,1,24,3.65l1-.34a.69.69,0,0,1,.84.4l.39.87a7.3,7.3,0,0,1,.61,3.69l0,.27a.75.75,0,0,0,.73.85l2.18-.08a.76.76,0,0,1,.66,1.09l-.32.71a7.94,7.94,0,0,1-6.19,4.73l-3.62.46-2.28-3A9.41,9.41,0,0,1,16.41,5.31Z" fill="#6dd627"></path><path d="M16.41,7.57a.66.66,0,0,1,1.08-.37L19.6,9a.67.67,0,0,0,1-.17l.13-.23A6.12,6.12,0,0,1,24,5.91l1-.35a.71.71,0,0,1,.84.4l.39.88a7.3,7.3,0,0,1,.61,3.69l0,.27a.74.74,0,0,0,.73.84l2.18-.08.09,0,.25-.47.32-.72a.76.76,0,0,0-.66-1.09l-2.18.08a.75.75,0,0,1-.73-.85l0-.27a7.3,7.3,0,0,0-.61-3.69l-.39-.87a.69.69,0,0,0-.84-.4l-1,.34a6.12,6.12,0,0,0-3.28,2.66l-.13.23a.66.66,0,0,1-1,.17L17.49,4.94a.66.66,0,0,0-1.08.37,9.46,9.46,0,0,0-.22,3.43A9.62,9.62,0,0,1,16.41,7.57Z" fill="#9ceb60"></path><path d="M16.41,5.31a.66.66,0,0,1,1.08-.37L19.6,6.71a.65.65,0,0,0,1-.17l.14-.23A6.12,6.12,0,0,1,24,3.65l1-.34a.69.69,0,0,1,.84.4l.39.87a7.3,7.3,0,0,1,.61,3.69l0,.27a.75.75,0,0,0,.73.85l2.18-.08a.76.76,0,0,1,.66,1.09l-.32.71a7.94,7.94,0,0,1-6.19,4.73l-3.62.46-2.28-3A9.41,9.41,0,0,1,16.41,5.31Z" fill="none" stroke="#45413c" stroke-linecap="round" stroke-linejoin="round"></path><path d="M20.3,16.3c-.09-2,.93-4.94,2.86-7.53" fill="none" stroke="#45413c" stroke-linecap="round" stroke-linejoin="round"></path></svg>