<svg viewBox="0 0 48 48" xmlns="http://www.w3.org/2000/svg"><path d="M2.590 44.260 A21.41 1.74 0 1 0 45.410 44.260 A21.41 1.74 0 1 0 2.590 44.260 Z" fill="#45413c" opacity=".15"></path><path d="M44.25,30.77V36c0,4.15-9.07,7.52-20.25,7.52S3.75,40.13,3.75,36V30.77Z" fill="#debb7e"></path><path d="M3.75,33.09c0,4.15,9.07,7.52,20.25,7.52s20.25-3.37,20.25-7.52V30.77H3.75Z" fill="#b89558"></path><path d="M44.25,30.77V36c0,4.15-9.07,7.52-20.25,7.52S3.75,40.13,3.75,36V30.77Z" fill="none" stroke="#45413c" stroke-linecap="round" stroke-linejoin="round"></path><path d="M24,37.71c25,0,24.3-8.1,21.41-12.72-2.9-4-9.59-7.53-21.41-7.53S5.49,20.94,2.59,25C-.3,29.61-.95,37.71,24,37.71Z" fill="#bf8256" stroke="#45413c" stroke-linecap="round" stroke-linejoin="round"></path><path d="M41.94,29.09C38.11,31.15,31.51,32.51,24,32.51S9.89,31.15,6.06,29.09" fill="none" stroke="#915e3a" stroke-linecap="round" stroke-linejoin="round"></path><path d="M44.25,22.09c0,4.16-9.07,7.52-20.25,7.52S3.75,26.25,3.75,22.09c0,0,1.16-13.3,20.25-13.3S44.25,22.09,44.25,22.09Z" fill="#f0d5a8"></path><path d="M24,25.56c-9.56,0-17.57-2.46-19.7-5.77a10.69,10.69,0,0,0-.55,2.3c0,4.16,9.07,7.52,20.25,7.52s20.25-3.36,20.25-7.52a10.69,10.69,0,0,0-.55-2.3C41.57,23.1,33.56,25.56,24,25.56Z" fill="#debb7e"></path><path d="M44.25,22.09c0,4.16-9.07,7.52-20.25,7.52S3.75,26.25,3.75,22.09c0,0,1.16-13.3,20.25-13.3S44.25,22.09,44.25,22.09Z" fill="none" stroke="#45413c" stroke-linecap="round" stroke-linejoin="round"></path><path d="M12.13,14.91a1.16,1.16,0,1,0,.6,2.24l1.12-.3a1.16,1.16,0,0,0-.6-2.24Z" fill="#debb7e" stroke="#45413c" stroke-linecap="round" stroke-linejoin="round"></path><path d="M18.9,18A1.15,1.15,0,1,0,21,19l.48-1.06a1.15,1.15,0,1,0-2.1-1Z" fill="#debb7e" stroke="#45413c" stroke-linecap="round" stroke-linejoin="round"></path><path d="M35.87,14.91a1.16,1.16,0,1,1-.6,2.24l-1.12-.3a1.16,1.16,0,0,1,.6-2.24Z" fill="#debb7e" stroke="#45413c" stroke-linecap="round" stroke-linejoin="round"></path><path d="M29.1,18A1.15,1.15,0,0,1,27,19l-.48-1.06a1.15,1.15,0,1,1,2.1-1Z" fill="#debb7e" stroke="#45413c" stroke-linecap="round" stroke-linejoin="round"></path></svg>