<svg viewBox="0 0 48 48" xmlns="http://www.w3.org/2000/svg"><path d="M9.500 44.390 A14.5 1.61 0 1 0 38.500 44.390 A14.5 1.61 0 1 0 9.500 44.390 Z" fill="#45413c" opacity=".15"></path><path d="M15.49,10.08a4.72,4.72,0,1,0-4.08,2.34l.44,0v0a2.58,2.58,0,1,0,3.65-2.34Z" fill="#fff" stroke="#45413c" stroke-linecap="round" stroke-linejoin="round"></path><path d="M19.500 3.080 A2.580 2.580 0 1 0 24.660 3.080 A2.580 2.580 0 1 0 19.500 3.080 Z" fill="#fff" stroke="#45413c" stroke-linecap="round" stroke-linejoin="round"></path><path d="M40.72,34.22a5.59,5.59,0,1,0,0-11.17H38.57v3.44h2.15a2.15,2.15,0,0,1,0,4.3H36.86v3.43Z" fill="#e5f8ff"></path><path d="M39.86,24.77a5.59,5.59,0,0,1,5.59,5.59A6,6,0,0,1,45.22,32a5.59,5.59,0,0,0-4.5-8.9H38.57v1.72Z" fill="#fff"></path><path d="M40.72,34.22a5.59,5.59,0,1,0,0-11.17H38.57v3.44h2.15a2.15,2.15,0,0,1,0,4.3H36.86v3.43Z" fill="none" stroke="#45413c" stroke-linecap="round" stroke-linejoin="round"></path><path d="M8.5,19.5v9A15.75,15.75,0,0,0,24,44.5a15.75,15.75,0,0,0,15.5-16v-9Z" fill="#fff"></path><path d="M24,39c-6.45,0-12.08-2.79-15.11-6.94A15.62,15.62,0,0,0,24,44.5,15.62,15.62,0,0,0,39.11,32.06C36.08,36.21,30.45,39,24,39Z" fill="#e8f4fa"></path><path d="M8.5,19.5v9A15.75,15.75,0,0,0,24,44.5a15.75,15.75,0,0,0,15.5-16v-9Z" fill="none" stroke="#45413c" stroke-linecap="round" stroke-linejoin="round"></path><path d="M8.500 19.500 A15.5 2 0 1 0 39.500 19.500 A15.5 2 0 1 0 8.500 19.500 Z" fill="#e8f4fa" stroke="#45413c" stroke-linecap="round" stroke-linejoin="round"></path><path d="M27.32,32.94A.86.86,0,0,1,28.16,34a4.3,4.3,0,0,1-8.32,0,.86.86,0,0,1,.84-1.07Z" fill="#ffb0ca" stroke="#45413c" stroke-linecap="round" stroke-linejoin="round"></path><path d="M24,37.23a4.26,4.26,0,0,0,3.38-1.67A6.26,6.26,0,0,0,24,34.65a6.26,6.26,0,0,0-3.38.91A4.26,4.26,0,0,0,24,37.23Z" fill="#ff87af" stroke="#45413c" stroke-linecap="round" stroke-linejoin="round"></path><path d="M15.41,30.79c0,.47.57.86,1.29.86S18,31.26,18,30.79s-.58-.86-1.29-.86S15.41,30.31,15.41,30.79Z" fill="#fcd"></path><path d="M16.27,29.07a1.29,1.29,0,1,1,2.57,0" fill="none" stroke="#45413c" stroke-linecap="round" stroke-linejoin="round"></path><path d="M32.59,30.79c0,.47-.57.86-1.29.86S30,31.26,30,30.79s.58-.86,1.29-.86S32.59,30.31,32.59,30.79Z" fill="#fcd"></path><path d="M31.73,29.07a1.29,1.29,0,1,0-2.57,0" fill="none" stroke="#45413c" stroke-linecap="round" stroke-linejoin="round"></path></svg>