<svg viewBox="0 0 48 48" xmlns="http://www.w3.org/2000/svg"><path d="M12.500 45.500 A11.5 1.5 0 1 0 35.500 45.500 A11.5 1.5 0 1 0 12.500 45.500 Z" fill="#45413c" opacity=".15"></path><path d="M40.63,11.39a37.49,37.49,0,0,0-33.26,0L9.63,16a18,18,0,0,1,1.87,8v4.44a2.07,2.07,0,0,0,1.66,2.08,2,2,0,0,0,2.34-2v-.68L23.11,43.2a1,1,0,0,0,1.78,0l2.61-5.27V40a1.5,1.5,0,0,0,3,0V34.2a9.88,9.88,0,0,1,1-4.43c1.26-2.56,2.61-5.27,4-8V24.5a1.5,1.5,0,0,0,3,0V18a10.05,10.05,0,0,1,1-4.44Z" fill="#ffe500"></path><path d="M24,10.75a37.31,37.31,0,0,1,15.35,3.3c.06-.15.12-.31.19-.45l1.09-2.21a37.49,37.49,0,0,0-33.26,0L8.68,14A37.32,37.32,0,0,1,24,10.75Z" fill="#ebcb00"></path><path d="M30.5,22.5a4.5,4.5,0,0,0,0,9l.19,0c1.11-2.23,2.29-4.62,3.49-7.06A4.47,4.47,0,0,0,30.5,22.5Z" fill="#ff6242" stroke="#45413c" stroke-linecap="round" stroke-linejoin="round"></path><path d="M23.5,33A4.49,4.49,0,0,0,19,28.5a4.44,4.44,0,0,0-2.71.93l3.91,7.89A4.49,4.49,0,0,0,23.5,33Z" fill="#ff6242" stroke="#45413c" stroke-linecap="round" stroke-linejoin="round"></path><path d="M26.000 14.500 A4.500 4.500 0 1 0 35.000 14.500 A4.500 4.500 0 1 0 26.000 14.500 Z" fill="#ff6242" stroke="#45413c" stroke-linecap="round" stroke-linejoin="round"></path><path d="M24,7.5a37.27,37.27,0,0,1,16.63,3.89s2.47.31,2.87-1.89c1-5.5-15.33-7-19.5-7S3.5,4,4.5,9.5c.4,2.2,2.87,1.89,2.87,1.89A37.27,37.27,0,0,1,24,7.5Z" fill="#f0d5a8"></path><path d="M4.54,9.66C8.18,6.07,20.4,5,24,5S39.82,6.07,43.46,9.66c0-.06,0-.1,0-.16,1-5.5-15.33-7-19.5-7S3.5,4,4.5,9.5C4.51,9.56,4.53,9.6,4.54,9.66Z" fill="#f7e5c6"></path><path d="M24,7.5a37.27,37.27,0,0,1,16.63,3.89s2.47.31,2.87-1.89c1-5.5-15.33-7-19.5-7S3.5,4,4.5,9.5c.4,2.2,2.87,1.89,2.87,1.89A37.27,37.27,0,0,1,24,7.5Z" fill="none" stroke="#45413c" stroke-linecap="round" stroke-linejoin="round"></path><path d="M12.500 17.000 A4.500 4.500 0 1 0 21.500 17.000 A4.500 4.500 0 1 0 12.500 17.000 Z" fill="#ff6242" stroke="#45413c" stroke-linecap="round" stroke-linejoin="round"></path><path d="M15.5 27.82L15.5 25.5" fill="none" stroke="#45413c" stroke-linecap="round" stroke-linejoin="round"></path><path d="M40.63,11.39a37.49,37.49,0,0,0-33.26,0L9.63,16a18,18,0,0,1,1.87,8v4.44a2.07,2.07,0,0,0,1.66,2.08,2,2,0,0,0,2.34-2v-.68L23.11,43.2a1,1,0,0,0,1.78,0l2.61-5.27V40a1.5,1.5,0,0,0,3,0V34.2a9.88,9.88,0,0,1,1-4.43c1.26-2.56,2.61-5.27,4-8V24.5a1.5,1.5,0,0,0,3,0V18a10.05,10.05,0,0,1,1-4.44Z" fill="none" stroke="#45413c" stroke-linecap="round" stroke-linejoin="round"></path><path d="M27.5 35.5L27.5 37.93" fill="none" stroke="#45413c" stroke-linecap="round" stroke-linejoin="round"></path><path d="M35.5 20L35.5 21.76" fill="none" stroke="#45413c" stroke-linecap="round" stroke-linejoin="round"></path></svg>