<svg viewBox="0 0 48 48" xmlns="http://www.w3.org/2000/svg"><path d="M25.64,12.68A1.32,1.32,0,0,1,24.22,14c-1.17,0-1.3-1.28-1.3-1.28a15,15,0,0,1,1.36-7.47C26.52.49,29.54-.22,31.07,3.86s-1.05.81-3.4,3.39A9.13,9.13,0,0,0,25.64,12.68Z" fill="#6dd627"></path><path d="M25.48,7.57c1.82-3.83,4.16-5,5.79-3.14l-.2-.57C29.54-.22,26.52.49,24.28,5.21a15,15,0,0,0-1.36,7.47S23,13.86,24.08,14A15.32,15.32,0,0,1,25.48,7.57Z" fill="#9ceb60"></path><path d="M4.320 44.960 A19.68 2.04 0 1 0 43.680 44.960 A19.68 2.04 0 1 0 4.320 44.960 Z" fill="#45413c" opacity=".15"></path><path d="M25.64,12.68A1.32,1.32,0,0,1,24.22,14c-1.17,0-1.3-1.28-1.3-1.28a15,15,0,0,1,1.36-7.47C26.52.49,29.54-.22,31.07,3.86s-1.05.81-3.4,3.39A9.13,9.13,0,0,0,25.64,12.68Z" fill="none" stroke="#45413c" stroke-linecap="round" stroke-linejoin="round"></path><path d="M36.65,10.58a11.26,11.26,0,0,0-9.82,1.23,5,5,0,0,1-5.66,0,11.26,11.26,0,0,0-9.82-1.23C5.06,12.42,2.17,21.5,4.91,30.85S15,46.29,21.26,44.44a7.48,7.48,0,0,0,1.44-.58,2.73,2.73,0,0,1,2.6,0,7.48,7.48,0,0,0,1.44.58C33,46.29,40.35,40.2,43.09,30.85S42.94,12.42,36.65,10.58Z" fill="#ff6242"></path><path d="M11.35,15a12.28,12.28,0,0,1,9.82,1.11,5.48,5.48,0,0,0,5.66,0A12.28,12.28,0,0,1,36.65,15c4.28,1.13,7,5.3,7.41,10.5.52-7.24-2.34-13.43-7.41-14.91a11.26,11.26,0,0,0-9.82,1.23,5,5,0,0,1-5.66,0,11.26,11.26,0,0,0-9.82-1.23c-5.07,1.48-7.93,7.67-7.41,14.91C4.37,20.29,7.07,16.12,11.35,15Z" fill="#ff866e"></path><path d="M36.65,10.58a11.26,11.26,0,0,0-9.82,1.23,5,5,0,0,1-5.66,0,11.26,11.26,0,0,0-9.82-1.23C5.06,12.42,2.17,21.5,4.91,30.85S15,46.29,21.26,44.44a7.48,7.48,0,0,0,1.44-.58,2.73,2.73,0,0,1,2.6,0,7.48,7.48,0,0,0,1.44.58C33,46.29,40.35,40.2,43.09,30.85S42.94,12.42,36.65,10.58Z" fill="none" stroke="#45413c" stroke-linecap="round" stroke-linejoin="round"></path><path d="M22.91,12.56s1.48-5.73-3.39-8.14c-2.74-1.36-6.32-.1-7.63.45a.65.65,0,0,0-.39.77c.38,1.58,1.83,6,6,6.24C22.7,12.18,22.91,12.56,22.91,12.56Z" fill="#6dd627"></path><path d="M12.11,7.48c1.45-.58,4.8-1.65,7.41-.36A6.23,6.23,0,0,1,23,12c.23-1.51.43-5.61-3.5-7.56-2.74-1.36-6.32-.1-7.63.45a.65.65,0,0,0-.39.77A11.41,11.41,0,0,0,12.11,7.48Z" fill="#9ceb60"></path><path d="M22.91,12.56s1.48-5.73-3.39-8.14c-2.74-1.36-6.32-.1-7.63.45a.65.65,0,0,0-.39.77c.38,1.58,1.83,6,6,6.24C22.7,12.18,22.91,12.56,22.91,12.56Z" fill="none" stroke="#45413c" stroke-linecap="round" stroke-linejoin="round"></path><path d="M22.91,12.56a9.84,9.84,0,0,0-4.75-5.43" fill="#6dd627" stroke="#45413c" stroke-linecap="round" stroke-linejoin="round"></path></svg>