<svg viewBox="0 0 48 48" xmlns="http://www.w3.org/2000/svg"><path d="M11.980 45.430 A12.02 1.57 0 1 0 36.020 45.430 A12.02 1.57 0 1 0 11.980 45.430 Z" fill="#45413c" opacity=".15"></path><path d="M7.270 28.270 A16.730 16.730 0 1 0 40.730 28.270 A16.730 16.730 0 1 0 7.270 28.270 Z" fill="#ffaa54"></path><path d="M24,15.72A16.74,16.74,0,0,1,40.59,30.36a18,18,0,0,0,.14-2.09,16.73,16.73,0,0,0-33.46,0,18,18,0,0,0,.14,2.09A16.74,16.74,0,0,1,24,15.72Z" fill="#fc9"></path><path d="M7.270 28.270 A16.730 16.730 0 1 0 40.730 28.270 A16.730 16.730 0 1 0 7.270 28.270 Z" fill="none" stroke="#45413c" stroke-linecap="round" stroke-linejoin="round"></path><path d="M15.57,14.15s-2.66-3.27-.9-6.85,1.66-5.55,1.66-5.55,4.65,1.3,4.44,6S15.57,14.15,15.57,14.15Z" fill="#6dd627"></path><path d="M16.27,8.93A16.31,16.31,0,0,0,18.64,3a7.24,7.24,0,0,0-2.31-1.25s.1,2-1.66,5.55.9,6.85.9,6.85l.14-.05A6,6,0,0,1,16.27,8.93Z" fill="#9ceb60"></path><path d="M15.57,14.15s-2.66-3.27-.9-6.85,1.66-5.55,1.66-5.55,4.65,1.3,4.44,6S15.57,14.15,15.57,14.15Z" fill="none" stroke="#45413c" stroke-linecap="round" stroke-linejoin="round"></path><path d="M14,17.6s.48.26,2.09-.53A2.43,2.43,0,0,0,17.69,15" fill="none" stroke="#45413c" stroke-linecap="round" stroke-linejoin="round"></path><path d="M15.57,14.15S15,10,16.42,8" fill="none" stroke="#45413c" stroke-linecap="round" stroke-linejoin="round"></path><path d="M17,16.47a3.07,3.07,0,0,1-.88.6,8.8,8.8,0,0,1-1,.41,7,7,0,0,0-3.26-2.9c-2.52-.94-3.13,2.21-3.53-1.11S10.29,9.56,13.48,12A11.63,11.63,0,0,1,17,16.47Z" fill="#6dd627"></path><path d="M17,16.47a3.65,3.65,0,0,1-.78.55,11.3,11.3,0,0,0-2.7-3c-2.63-2-4.66-2-5.09,0,0-.16,0-.33-.07-.51C8,10.14,10.29,9.56,13.48,12A11.63,11.63,0,0,1,17,16.47Z" fill="#9ceb60"></path><path d="M17,16.47a3.07,3.07,0,0,1-.88.6,8.8,8.8,0,0,1-1,.41,7,7,0,0,0-3.26-2.9c-2.52-.94-3.13,2.21-3.53-1.11S10.29,9.56,13.48,12A11.63,11.63,0,0,1,17,16.47Z" fill="none" stroke="#45413c" stroke-linecap="round" stroke-linejoin="round"></path></svg>