<svg viewBox="0 0 48 48" xmlns="http://www.w3.org/2000/svg"><path d="M10.810 43.500 A13.5 1.5 0 1 0 37.810 43.500 A13.5 1.5 0 1 0 10.810 43.500 Z" fill="#45413c" opacity=".15"></path><path d="M41.29,25.83l-4.7-1.18a4.8,4.8,0,0,1-4.73,1.47,4.76,4.76,0,0,1-7.57-1.43,4.69,4.69,0,0,1-1.11-.14,4.76,4.76,0,0,1-3.58-4.19L2.77,16.11a1.59,1.59,0,0,0-2,1.27A21.53,21.53,0,0,0,42.42,27.89,1.61,1.61,0,0,0,41.29,25.83Z" fill="#9ceb60"></path><path d="M41.57,30c.31-.68.6-1.39.85-2.12a1.61,1.61,0,0,0-1.13-2.06l-4.7-1.18a4.8,4.8,0,0,1-4.73,1.47,4.64,4.64,0,0,1-1.69,1Z" fill="#c8ffa1"></path><path d="M25.07,25.85a5,5,0,0,1-.78-1.16,4.69,4.69,0,0,1-1.11-.14,4.76,4.76,0,0,1-3.58-4.19L2.77,16.11a1.59,1.59,0,0,0-2,1.27,19.65,19.65,0,0,0-.26,2.28Z" fill="#c8ffa1"></path><path d="M41.29,25.83l-4.7-1.18a4.8,4.8,0,0,1-4.73,1.47,4.76,4.76,0,0,1-7.57-1.43,4.69,4.69,0,0,1-1.11-.14,4.76,4.76,0,0,1-3.58-4.19L2.77,16.11a1.59,1.59,0,0,0-2,1.27A21.53,21.53,0,0,0,42.42,27.89,1.61,1.61,0,0,0,41.29,25.83Z" fill="none" stroke="#45413c" stroke-linecap="round" stroke-linejoin="round"></path><path d="M36.59,24.65a4.8,4.8,0,0,1-4.73,1.47,4.76,4.76,0,0,1-7.57-1.43,4.69,4.69,0,0,1-1.11-.14,4.76,4.76,0,0,1-3.58-4.19l-15.73-4A18.74,18.74,0,1,0,40.2,25.56Z" fill="#fffacf"></path><path d="M38.81,29.32a19.62,19.62,0,0,0,1.39-3.76l-3.61-.91a4.8,4.8,0,0,1-4.73,1.47,4.64,4.64,0,0,1-1.69,1Z" fill="#fff"></path><path d="M25.07,25.85a5,5,0,0,1-.78-1.16,4.69,4.69,0,0,1-1.11-.14,4.76,4.76,0,0,1-3.58-4.19l-15.73-4a18.26,18.26,0,0,0-.56,4Z" fill="#fff"></path><path d="M36.59,24.65a4.8,4.8,0,0,1-4.73,1.47,4.76,4.76,0,0,1-7.57-1.43,4.69,4.69,0,0,1-1.11-.14,4.76,4.76,0,0,1-3.58-4.19l-15.73-4A18.74,18.74,0,1,0,40.2,25.56Z" fill="none" stroke="#45413c" stroke-linecap="round" stroke-linejoin="round"></path><path d="M36.59,24.65a4.8,4.8,0,0,1-4.73,1.47,4.76,4.76,0,0,1-7.57-1.43,4.69,4.69,0,0,1-1.11-.14,4.76,4.76,0,0,1-3.58-4.19L6.18,17a16.35,16.35,0,0,0,31.7,8Z" fill="#ff87af"></path><path d="M36.41,28.71A16.55,16.55,0,0,0,37.88,25l-1.29-.32a4.8,4.8,0,0,1-4.73,1.47,4.64,4.64,0,0,1-1.69,1Z" fill="#ffb0ca"></path><path d="M25.07,25.85a5,5,0,0,1-.78-1.16,4.69,4.69,0,0,1-1.11-.14,4.76,4.76,0,0,1-3.58-4.19L6.18,17a17.13,17.13,0,0,0-.48,4Z" fill="#ffb0ca"></path><path d="M36.59,24.65a4.8,4.8,0,0,1-4.73,1.47,4.76,4.76,0,0,1-7.57-1.43,4.69,4.69,0,0,1-1.11-.14,4.76,4.76,0,0,1-3.58-4.19L6.18,17a16.35,16.35,0,0,0,31.7,8Z" fill="none" stroke="#45413c" stroke-linecap="round" stroke-linejoin="round"></path><path d="M9.07,21.81a.8.8,0,1,0,1.55.39l.2-.77a.81.81,0,0,0-.58-1,.8.8,0,0,0-1,.58Z" fill="#ff6196" stroke="#45413c" stroke-linecap="round" stroke-linejoin="round"></path><path d="M12,26.65a.8.8,0,0,0,1.55.39l.19-.77a.79.79,0,1,0-1.54-.39Z" fill="#ff6196" stroke="#45413c" stroke-linecap="round" stroke-linejoin="round"></path><path d="M16.8,23.76a.81.81,0,0,0,.58,1,.8.8,0,0,0,1-.58l.2-.77a.81.81,0,0,0-.58-1A.8.8,0,0,0,17,23Z" fill="#ff6196" stroke="#45413c" stroke-linecap="round" stroke-linejoin="round"></path><path d="M28.2,30.75a.8.8,0,0,1-1.55-.39l.2-.77a.79.79,0,0,1,1-.58.8.8,0,0,1,.58,1Z" fill="#ff6196" stroke="#45413c" stroke-linecap="round" stroke-linejoin="round"></path><path d="M14.85,31.49a.8.8,0,1,0,1.55.39l.19-.77a.79.79,0,1,0-1.54-.39Z" fill="#ff6196" stroke="#45413c" stroke-linecap="round" stroke-linejoin="round"></path><path d="M23.36,33.64a.8.8,0,0,1-1.55-.39l.19-.77a.8.8,0,1,1,1.55.39Z" fill="#ff6196" stroke="#45413c" stroke-linecap="round" stroke-linejoin="round"></path><path d="M19.31,28.51a.79.79,0,0,0,1.54.39l.2-.78a.8.8,0,0,0-.58-1,.81.81,0,0,0-1,.58Z" fill="#ff6196" stroke="#45413c" stroke-linecap="round" stroke-linejoin="round"></path><path d="M35.68,8.25a1.45,1.45,0,0,0-.6-1.93,1.46,1.46,0,0,0-1.72,1.07,18,18,0,0,0-.28,3.69.23.23,0,0,0,.42.16A18.48,18.48,0,0,0,35.68,8.25Z" fill="#fff"></path><path d="M34.71,7.32a1.29,1.29,0,0,0-1.46.6,2.41,2.41,0,0,1,.11-.53,1.46,1.46,0,0,1,1.72-1.07,1.45,1.45,0,0,1,.6,1.93,2.77,2.77,0,0,1-.25.47A1.31,1.31,0,0,0,34.71,7.32Z" fill="#ffe5ee"></path><path d="M35.68,8.25a1.45,1.45,0,0,0-.6-1.93,1.46,1.46,0,0,0-1.72,1.07,18,18,0,0,0-.28,3.69.23.23,0,0,0,.42.16A18.48,18.48,0,0,0,35.68,8.25Z" fill="none" stroke="#45413c" stroke-linecap="round" stroke-linejoin="round"></path><path d="M42.21,12.87a1.45,1.45,0,0,0,.18-2,1.45,1.45,0,0,0-2,.33,18,18,0,0,0-1.67,3.3c-.1.24.09.43.33.3A17.83,17.83,0,0,0,42.21,12.87Z" fill="#fff"></path><path d="M41.67,11.64a1.3,1.3,0,0,0-1.58,0,2.34,2.34,0,0,1,.3-.44,1.45,1.45,0,0,1,2-.33,1.45,1.45,0,0,1-.18,2,2.35,2.35,0,0,1-.42.34A1.3,1.3,0,0,0,41.67,11.64Z" fill="#ffe5ee"></path><path d="M42.21,12.87a1.45,1.45,0,0,0,.18-2,1.45,1.45,0,0,0-2,.33,18,18,0,0,0-1.67,3.3c-.1.24.09.43.33.3A17.83,17.83,0,0,0,42.21,12.87Z" fill="none" stroke="#45413c" stroke-linecap="round" stroke-linejoin="round"></path><path d="M46.47,19.64a1.44,1.44,0,0,0,.94-1.79,1.45,1.45,0,0,0-2-.46,18,18,0,0,0-2.81,2.41.23.23,0,0,0,.18.41A18.8,18.8,0,0,0,46.47,19.64Z" fill="#fff"></path><path d="M46.44,18.29A1.3,1.3,0,0,0,45,17.68a2.35,2.35,0,0,1,.45-.29,1.45,1.45,0,0,1,2,.46,1.44,1.44,0,0,1-.94,1.79,2.66,2.66,0,0,1-.51.15A1.29,1.29,0,0,0,46.44,18.29Z" fill="#ffe5ee"></path><path d="M46.47,19.64a1.44,1.44,0,0,0,.94-1.79,1.45,1.45,0,0,0-2-.46,18,18,0,0,0-2.81,2.41.23.23,0,0,0,.18.41A18.8,18.8,0,0,0,46.47,19.64Z" fill="none" stroke="#45413c" stroke-linecap="round" stroke-linejoin="round"></path><path d="M25.84,6.82A1.45,1.45,0,0,1,27,5.17c.68,0,1.26.67,1.3,1.55a19.37,19.37,0,0,1-.88,3.6.23.23,0,0,1-.45,0A18.4,18.4,0,0,1,25.84,6.82Z" fill="#fff"></path><path d="M27.06,6.23a1.32,1.32,0,0,1,1.2,1,3,3,0,0,0,.06-.53c0-.88-.62-1.58-1.3-1.55a1.45,1.45,0,0,0-1.18,1.65,2.19,2.19,0,0,0,.1.52A1.3,1.3,0,0,1,27.06,6.23Z" fill="#ffe5ee"></path><path d="M25.84,6.82A1.45,1.45,0,0,1,27,5.17c.68,0,1.26.67,1.3,1.55a19.37,19.37,0,0,1-.88,3.6.23.23,0,0,1-.45,0A18.4,18.4,0,0,1,25.84,6.82Z" fill="none" stroke="#45413c" stroke-linecap="round" stroke-linejoin="round"></path><path d="M18.2,9.18a1.46,1.46,0,0,1,.45-2,1.47,1.47,0,0,1,1.8.94A18.37,18.37,0,0,1,21,11.8a.22.22,0,0,1-.4.19A18.47,18.47,0,0,1,18.2,9.18Z" fill="#fff"></path><path d="M19.1,8.17a1.3,1.3,0,0,1,1.5.49,3.47,3.47,0,0,0-.15-.52,1.47,1.47,0,0,0-1.8-.94,1.46,1.46,0,0,0-.45,2,2.71,2.71,0,0,0,.29.45A1.31,1.31,0,0,1,19.1,8.17Z" fill="#ffe5ee"></path><path d="M18.2,9.18a1.46,1.46,0,0,1,.45-2,1.47,1.47,0,0,1,1.8.94A18.37,18.37,0,0,1,21,11.8a.22.22,0,0,1-.4.19A18.47,18.47,0,0,1,18.2,9.18Z" fill="none" stroke="#45413c" stroke-linecap="round" stroke-linejoin="round"></path></svg>