<svg xmlns="http://www.w3.org/2000/svg" viewBox="0 0 14 14">
  <g>
    <path d="M10.89.93A1,1,0,0,0,10.07.5H3.93a1,1,0,0,0-.82.43L1.51,3.24a1,1,0,0,0,.15,1.28L6.33,9.24a1,1,0,0,0,1.34,0l4.67-4.72a1,1,0,0,0,.15-1.28Z" style="fill: none;stroke: #000001;stroke-linecap: round;stroke-linejoin: round"/>
    <polyline points="7 0.5 4.68 3.94 6.86 9.49" style="fill: none;stroke: #000001;stroke-linecap: round;stroke-linejoin: round"/>
    <polyline points="7 0.5 9.32 3.94 7.14 9.49" style="fill: none;stroke: #000001;stroke-linecap: round;stroke-linejoin: round"/>
    <line x1="1.35" y1="3.94" x2="12.65" y2="3.94" style="fill: none;stroke: #000001;stroke-linecap: round;stroke-linejoin: round"/>
    <path d="M13,13.5h0a2,2,0,0,0-2-2H3a2,2,0,0,0-2,2H1" style="fill: none;stroke: #000001;stroke-linecap: round;stroke-linejoin: round"/>
  </g>
</svg>
