<svg xmlns="http://www.w3.org/2000/svg" fill="none" viewBox="0 0 14 14" id="Cellular-Network-4g--Streamline-Core">
  <desc>
    Cellular Network 4g Streamline Icon: https://streamlinehq.com
  </desc>
  <g id="cellular-network-4g">
    <path id="Vector" stroke="#4147d5" stroke-linecap="round" stroke-linejoin="round" d="M9.527 4.846c-0.773 -0.547 -1.633 -0.852 -2.511 -0.892 -0.877 0.042 -1.734 0.349 -2.505 0.895" stroke-width="1"></path>
    <path id="Vector_2" stroke="#4147d5" stroke-linecap="round" stroke-linejoin="round" d="M2.098 2.828A7.912 7.912 0 0 1 7.003 0.953a7.9 7.9 0 0 1 4.9 1.875" stroke-width="1"></path>
    <path id="Vector 2" stroke="#4147d5" stroke-linecap="round" stroke-linejoin="round" d="M10.214 11.152h1.306v0.87c0 0.722 -0.584 1.307 -1.306 1.307h-0.87a1.306 1.306 0 0 1 -1.306 -1.306V9.41c0 -0.72 0.585 -1.306 1.306 -1.306h0.87c0.569 0 1.053 0.364 1.232 0.871" stroke-width="1"></path>
    <path id="Vector 7" stroke="#4147d5" stroke-linecap="round" stroke-linejoin="round" d="M6.45 12.023H2.414a0.316 0.316 0 0 1 -0.316 -0.316v0c0 -0.077 0.027 -0.151 0.078 -0.209l2.879 -3.29a0.3 0.3 0 0 1 0.225 -0.102v0a0.3 0.3 0 0 1 0.3 0.299v4.924" stroke-width="1"></path>
  </g>
</svg>