<svg xmlns="http://www.w3.org/2000/svg" fill="none" viewBox="0 0 48 48" id="Reduced-Inequalities--Streamline-Plump">
  <desc>
    Reduced Inequalities Streamline Icon: https://streamlinehq.com
  </desc>
  <g id="reduced-inequalities">
    <path id="Union" fill="#000000" fill-rule="evenodd" d="M32.9999 12.5003c0.5689 0 1.0888 -0.3218 1.3425 -0.8309 0.2537 -0.5091 0.1976 -1.118 -0.1448 -1.5722 -1.5684 -2.07991 -5.2425 -5.90403 -8.551 -7.89917 -1.0143 -0.61169 -2.2791 -0.61169 -3.2934 0 -3.3085 1.99514 -6.9826 5.81926 -8.551 7.89917 -0.3425 0.4542 -0.3986 1.0631 -0.1448 1.5722 0.2537 0.5091 0.7736 0.8309 1.3425 0.8309l18 0Zm2.5 20.5001c0 0.5688 0.3218 1.0887 0.8309 1.3425 0.5091 0.2537 1.118 0.1976 1.5722 -0.1449 2.0799 -1.5684 5.904 -5.2424 7.8992 -8.5509 0.6117 -1.0144 0.6117 -2.2791 0 -3.2935 -1.9952 -3.3085 -5.8193 -6.9825 -7.8992 -8.5509 -0.4542 -0.3425 -1.0631 -0.3986 -1.5722 -0.1449 -0.5091 0.2538 -0.8309 0.7737 -0.8309 1.3425l0 18.0001Zm-1.1575 3.3309c-0.2537 -0.5091 -0.7736 -0.8309 -1.3425 -0.8309h-18c-0.5689 0 -1.0888 0.3218 -1.3425 0.8309 -0.2538 0.5091 -0.1977 1.118 0.1448 1.5722 1.5684 2.0799 5.2425 5.904 8.551 7.8992 1.0143 0.6117 2.2791 0.6117 3.2934 0 3.3085 -1.9952 6.9826 -5.8193 8.551 -7.8992 0.3424 -0.4542 0.3985 -1.0631 0.1448 -1.5722Zm-21.8426 -3.3309c0 0.5688 -0.3218 1.0887 -0.8309 1.3425 -0.5091 0.2537 -1.118 0.1976 -1.5722 -0.1449 -2.0799 -1.5684 -5.90402 -5.2424 -7.89916 -8.5509 -0.61169 -1.0144 -0.61169 -2.2791 0 -3.2935 1.99514 -3.3085 5.81926 -6.9825 7.89916 -8.5509 0.4542 -0.3425 1.0631 -0.3986 1.5722 -0.1449 0.5091 0.2538 0.8309 0.7737 0.8309 1.3425v18.0001Zm3.0001 -13.5c0 -0.7449 0.0876 -1.3263 0.1969 -1.7605 0.2839 -1.1276 1.29 -1.6367 2.1297 -1.6636 0.8913 -0.0285 2.8715 -0.0759 6.1734 -0.0759 3.3018 0 5.282 0.0474 6.1734 0.0759 0.8396 0.0269 1.8458 0.536 2.1297 1.6636 0.1093 0.4342 0.1969 1.0156 0.1969 1.7605 0 0.7448 -0.0876 1.3262 -0.1969 1.7604 -0.2839 1.1276 -1.2901 1.6367 -2.1297 1.6636 -0.8914 0.0285 -2.8716 0.076 -6.1734 0.076 -3.3019 0 -5.2821 -0.0475 -6.1734 -0.076 -0.8397 -0.0269 -1.8458 -0.536 -2.1297 -1.6636 -0.1093 -0.4342 -0.1969 -1.0156 -0.1969 -1.7604Zm0.1969 8.2395c-0.1093 0.4342 -0.1969 1.0156 -0.1969 1.7605 0 0.7448 0.0876 1.3262 0.1969 1.7604 0.2839 1.1276 1.29 1.6367 2.1297 1.6636 0.8913 0.0285 2.8715 0.076 6.1734 0.076 3.3018 0 5.282 -0.0475 6.1734 -0.076 0.8396 -0.0269 1.8458 -0.536 2.1297 -1.6636 0.1093 -0.4342 0.1969 -1.0156 0.1969 -1.7604 0 -0.7449 -0.0876 -1.3263 -0.1969 -1.7605 -0.2839 -1.1276 -1.2901 -1.6367 -2.1297 -1.6636 -0.8914 -0.0285 -2.8716 -0.0759 -6.1734 -0.0759 -3.3019 0 -5.2821 0.0474 -6.1734 0.0759 -0.8397 0.0269 -1.8458 0.536 -2.1297 1.6636Z" clip-rule="evenodd" stroke-width="1"></path>
  </g>
</svg>