<svg xmlns="http://www.w3.org/2000/svg" fill="none" viewBox="0 0 24 24" id="Book-Cog-2--Streamline-Ultimate">
  <desc>
    Book Cog 2 Streamline Icon: https://streamlinehq.com
  </desc>
  <path fill="#000000" fill-rule="evenodd" d="M4.423 0.23A2.929 2.929 0 0 0 1.5 3.155v17.788c0 0.132 0.026 0.258 0.072 0.374 0.308 1.394 1.564 2.453 3.043 2.453h15.193l0.003 0h1.343a1 1 0 1 0 0 -2h-0.346v-2.454c0.84 -0.39 1.442 -1.25 1.442 -2.219V2.673c0 -1.321 -1.12 -2.442 -2.442 -2.442H4.423Zm0.192 21.54A1.134 1.134 0 0 1 3.5 20.653c0 -0.602 0.514 -1.116 1.115 -1.116l14.193 0v2.231H4.615Zm8.512 -18.206 0.477 1.431c0.12 0.477 0.716 0.835 1.193 0.716l1.431 -0.358c1.312 -0.239 2.147 1.193 1.312 2.147l-1.073 1.073a0.936 0.936 0 0 0 0 1.312l1.073 1.074c0.835 0.954 0 2.504 -1.312 2.146l-1.43 -0.119c-0.478 -0.12 -1.074 0.12 -1.194 0.716l-0.477 1.431a1.289 1.289 0 0 1 -2.504 0l-0.477 -1.431c-0.12 -0.477 -0.716 -0.835 -1.193 -0.716l-1.431 0.358c-1.312 0.239 -2.147 -1.193 -1.312 -2.147l1.073 -1.073a0.936 0.936 0 0 0 0 -1.312L6.33 7.5c-0.835 -0.954 0 -2.505 1.312 -2.147l1.431 0.358c0.477 0.12 1.074 -0.12 1.193 -0.716l0.477 -1.431c0.238 -1.312 2.027 -1.312 2.385 0Zm0.537 5.784a1.789 1.789 0 1 1 -3.578 0 1.789 1.789 0 0 1 3.578 0Z" clip-rule="evenodd" stroke-width="1"></path>
</svg>