<svg xmlns="http://www.w3.org/2000/svg" viewBox="0 0 24 24" id="Business-Deal-Cash-2--Streamline-Ultimate">
  <desc>
    Business Deal Cash 2 Streamline Icon: https://streamlinehq.com
  </desc>
  <g id="Business-Deal-Cash-2--Streamline-Ultimate.svg">
    <path d="M17.73 10.05a2.49 2.49 0 1 0 4.98 0 2.49 2.49 0 1 0 -4.98 0" fill="#000000" stroke-width="1"></path>
    <path d="M16.73 18.52a0.51 0.51 0 0 0 0.15 0.35 0.47 0.47 0 0 0 0.35 0.15h0.82a0.25 0.25 0 0 1 0.25 0.22l0.43 4.31a0.5 0.5 0 0 0 0.5 0.45h2a0.49 0.49 0 0 0 0.49 -0.45l0.43 -4.31a0.27 0.27 0 0 1 0.25 -0.22h0.82a0.51 0.51 0 0 0 0.5 -0.5v-2a3.49 3.49 0 1 0 -7 0Z" fill="#000000" stroke-width="1"></path>
    <path d="M1.29 10.05a2.49 2.49 0 1 0 4.98 0 2.49 2.49 0 1 0 -4.98 0" fill="#000000" stroke-width="1"></path>
    <path d="M0.29 18.52a0.47 0.47 0 0 0 0.15 0.35 0.47 0.47 0 0 0 0.35 0.13h0.82a0.27 0.27 0 0 1 0.25 0.22l0.43 4.31a0.49 0.49 0 0 0 0.49 0.45h2a0.5 0.5 0 0 0 0.5 -0.45l0.43 -4.31A0.25 0.25 0 0 1 6 19h0.82a0.47 0.47 0 0 0 0.35 -0.15 0.51 0.51 0 0 0 0.15 -0.35v-2a3.49 3.49 0 1 0 -7 0Z" fill="#000000" stroke-width="1"></path>
    <path d="M11.75 0a1.24 1.24 0 0 0 -1.24 1.25v0.42a0.26 0.26 0 0 1 -0.2 0.24A3.19 3.19 0 0 0 9.78 8l3 1.21a0.72 0.72 0 0 1 -0.27 1.38h-3a1.25 1.25 0 1 0 0 2.49h0.7a0.25 0.25 0 0 1 0.25 0.25v0.33a1.25 1.25 0 1 0 2.49 0v-0.42a0.24 0.24 0 0 1 0.19 -0.24 3.21 3.21 0 0 0 2.55 -3.13 3.17 3.17 0 0 0 -2 -3l-3 -1.21a0.71 0.71 0 0 1 -0.43 -0.66 0.71 0.71 0 0 1 0.74 -0.68h3a1.25 1.25 0 1 0 0 -2.49h-0.69a0.25 0.25 0 0 1 -0.31 -0.25v-0.33A1.25 1.25 0 0 0 11.75 0Z" fill="#000000" stroke-width="1"></path>
  </g>
</svg>