<svg xmlns="http://www.w3.org/2000/svg" viewBox="0 0 24 24" id="Business-Pearl--Streamline-Ultimate">
  <desc>
    Business Pearl Streamline Icon: https://streamlinehq.com
  </desc>
  <g id="Business-Pearl--Streamline-Ultimate.svg">
    <path d="M5.23 12.22c-1.9 1 -3.48 2.3 -3.48 4.28C1.75 20.78 6.16 24 12 24s10.25 -3.22 10.25 -7.5c0 -2 -1.58 -3.26 -3.48 -4.28a0.25 0.25 0 0 1 0 -0.44c1.9 -1 3.48 -2.3 3.48 -4.28C22.25 3.22 17.84 0 12 0S1.75 3.22 1.75 7.5c0 2 1.58 3.26 3.48 4.28a0.25 0.25 0 0 1 0 0.44Zm-0.32 -5.9 -0.61 0.37a0.24 0.24 0 0 1 -0.28 0 0.26 0.26 0 0 1 -0.09 -0.27 5.69 5.69 0 0 1 3 -3.27 0.24 0.24 0 0 1 0.28 0 0.25 0.25 0 0 1 0.07 0.27 4.07 4.07 0 0 0 -0.2 0.68 0.75 0.75 0 0 0 1.47 0.29 3.52 3.52 0 0 1 1.82 -2.25 1.1 1.1 0 0 1 0.35 -0.11 0.56 0.56 0 0 1 0.39 0.13 0.52 0.52 0 0 1 0.16 0.37V4.5a0.75 0.75 0 0 0 1.5 0V2.56a0.52 0.52 0 0 1 0.16 -0.37 0.56 0.56 0 0 1 0.39 -0.13 1.1 1.1 0 0 1 0.35 0.11 3.52 3.52 0 0 1 1.82 2.25 0.75 0.75 0 0 0 1.47 -0.29 4.07 4.07 0 0 0 -0.2 -0.68 0.25 0.25 0 0 1 0.07 -0.27 0.24 0.24 0 0 1 0.28 0 5.69 5.69 0 0 1 3 3.27 0.26 0.26 0 0 1 -0.09 0.27 0.24 0.24 0 0 1 -0.28 0l-0.61 -0.37a2.23 2.23 0 0 0 -2.57 0.41 2.24 2.24 0 0 1 -3 0.14 2.38 2.38 0 0 0 -3 0 2.24 2.24 0 0 1 -3 -0.14 2.23 2.23 0 0 0 -2.65 -0.44ZM15 12.25a3 3 0 1 1 -3 -3 3 3 0 0 1 3 3Zm-7.52 5a2.24 2.24 0 0 1 3 -0.14 2.38 2.38 0 0 0 3 0 2.24 2.24 0 0 1 3 0.14 2.23 2.23 0 0 0 2.57 0.41l0.61 -0.37a0.24 0.24 0 0 1 0.28 0 0.26 0.26 0 0 1 0.09 0.27 5.69 5.69 0 0 1 -3 3.27 0.24 0.24 0 0 1 -0.28 0 0.25 0.25 0 0 1 -0.07 -0.27 4.07 4.07 0 0 0 0.2 -0.68 0.75 0.75 0 1 0 -1.47 -0.29 3.52 3.52 0 0 1 -1.82 2.25 1.1 1.1 0 0 1 -0.35 0.11 0.56 0.56 0 0 1 -0.39 -0.13 0.52 0.52 0 0 1 -0.16 -0.37V19.5a0.75 0.75 0 0 0 -1.5 0v1.94a0.52 0.52 0 0 1 -0.16 0.37 0.56 0.56 0 0 1 -0.39 0.13 1.1 1.1 0 0 1 -0.35 -0.11 3.52 3.52 0 0 1 -1.82 -2.25 0.75 0.75 0 1 0 -1.47 0.29 4.07 4.07 0 0 0 0.2 0.68 0.25 0.25 0 0 1 -0.07 0.27 0.24 0.24 0 0 1 -0.28 0 5.69 5.69 0 0 1 -3 -3.27 0.26 0.26 0 0 1 0.15 -0.23 0.24 0.24 0 0 1 0.28 0l0.61 0.37a2.23 2.23 0 0 0 2.59 -0.42Z" fill="#000000" stroke-width="1"></path>
    <path d="M10 12.25a0.5 0.5 0 0 0 1 0 1 1 0 0 1 1 -1 0.5 0.5 0 0 0 0 -1 2 2 0 0 0 -2 2Z" fill="#000000" stroke-width="1"></path>
  </g>
</svg>