<svg xmlns="http://www.w3.org/2000/svg" viewBox="0 0 24 24" id="Business-Lucky-Cat--Streamline-Ultimate">
  <desc>
    Business Lucky Cat Streamline Icon: https://streamlinehq.com
  </desc>
  <g id="Business-Lucky-Cat--Streamline-Ultimate.svg">
    <path d="M0 11.26a4.16 4.16 0 0 0 1.41 3 0.5 0.5 0 0 0 0.35 0.14 0.34 0.34 0 0 0 0.14 0 0.49 0.49 0 0 0 0.35 -0.4 15 15 0 0 1 1.26 -3.7l0.43 -0.82A0.46 0.46 0 0 0 4 9.25v-4a1.05 1.05 0 0 0 -1 -1 2.83 2.83 0 0 0 -1.18 0.17A2.65 2.65 0 0 0 0 6.76Z" fill="#000000" stroke-width="1"></path>
    <path d="M20.6 10.58a0.5 0.5 0 0 0 -0.64 0.65 16 16 0 0 1 1.12 5.55 8.27 8.27 0 0 1 -0.41 2.65 0.5 0.5 0 0 0 0.16 0.55 0.48 0.48 0 0 0 0.56 0 5.24 5.24 0 0 0 -0.79 -9.44Z" fill="#000000" stroke-width="1"></path>
    <path d="M11.5 23.24c4.46 0 8.08 -2 8.08 -6.47a14.67 14.67 0 0 0 -1.2 -5.43 0.52 0.52 0 0 0 -0.32 -0.28 0.5 0.5 0 0 0 -0.43 0.08 6.16 6.16 0 0 1 -3.63 1.1H9a6.16 6.16 0 0 1 -3.63 -1.1 0.49 0.49 0 0 0 -0.37 -0.08 0.52 0.52 0 0 0 -0.33 0.28 14.67 14.67 0 0 0 -1.2 5.43c-0.05 4.46 3.53 6.47 8.03 6.47Zm0 -10a1.49 1.49 0 0 1 0.9 2.69 0.23 0.23 0 0 1 -0.26 0 0.23 0.23 0 0 1 -0.14 -0.22v-0.49a0.5 0.5 0 0 0 -1 0v0.49a0.23 0.23 0 0 1 -0.14 0.22 0.23 0.23 0 0 1 -0.26 0 1.49 1.49 0 0 1 0.9 -2.69Z" fill="#000000" stroke-width="1"></path>
    <path d="M16.75 0.83a0.5 0.5 0 0 0 -0.5 0L13 2.68a0.17 0.17 0 0 1 -0.14 0l-1.32 0 -1.33 0a0.16 0.16 0 0 1 -0.13 0L6.76 0.88a0.47 0.47 0 0 0 -0.5 0A0.49 0.49 0 0 0 6 1.3v2.91a0.27 0.27 0 0 1 0 0.12A4.16 4.16 0 0 0 5 7a3.76 3.76 0 0 0 4 3.73h5A3.76 3.76 0 0 0 18 7a4.16 4.16 0 0 0 -1 -2.7 0.27 0.27 0 0 1 0 -0.12V1.26a0.48 0.48 0 0 0 -0.25 -0.43ZM10 6.67a0.59 0.59 0 0 1 -0.26 0.07 0.5 0.5 0 0 1 -0.43 -0.25A1.52 1.52 0 0 0 8 5.75a0.5 0.5 0 0 1 -0.5 -0.5 0.5 0.5 0 0 1 0.5 -0.5A2.53 2.53 0 0 1 10.15 6a0.51 0.51 0 0 1 -0.15 0.67Zm5 -0.92a1.52 1.52 0 0 0 -1.29 0.74 0.5 0.5 0 0 1 -0.43 0.25 0.59 0.59 0 0 1 -0.28 -0.07 0.51 0.51 0 0 1 -0.15 -0.67A2.53 2.53 0 0 1 15 4.75a0.5 0.5 0 0 1 0.5 0.5 0.5 0.5 0 0 1 -0.5 0.5Z" fill="#000000" stroke-width="1"></path>
  </g>
</svg>