<svg xmlns="http://www.w3.org/2000/svg" viewBox="0 0 24 24" id="Cash-Network--Streamline-Ultimate">
  <desc>
    Cash Network Streamline Icon: https://streamlinehq.com
  </desc>
  <g id="Cash-Network--Streamline-Ultimate.svg">
    <path d="M11.82 7.75h2.68a1.25 1.25 0 0 0 0 -2.5h-1a0.25 0.25 0 0 1 -0.25 -0.25v-0.38a1.25 1.25 0 0 0 -2.5 0v0.61a0.27 0.27 0 0 1 -0.16 0.24 3.57 3.57 0 0 0 -0.37 6.53l2.44 1.22a1.07 1.07 0 0 1 -0.48 2H9.5a1.25 1.25 0 0 0 0 2.5h1a0.25 0.25 0 0 1 0.25 0.25v0.38a1.25 1.25 0 0 0 2.5 0v-0.61a0.27 0.27 0 0 1 0.16 -0.24 3.57 3.57 0 0 0 0.37 -6.5l-2.44 -1.23a1.07 1.07 0 0 1 0.48 -2Z" fill="#000000" stroke-width="1"></path>
    <path d="M17.76 7.25a1 1 0 0 0 0.7 -0.29l2 -2a0.23 0.23 0 0 1 0.25 -0.06 2.55 2.55 0 0 0 0.74 0.11A2.5 2.5 0 1 0 19 2.5a2.63 2.63 0 0 0 0.13 0.8 0.23 0.23 0 0 1 -0.06 0.25l-2 2a1 1 0 0 0 0.71 1.71Z" fill="#000000" stroke-width="1"></path>
    <path d="M19 21.5a2.5 2.5 0 1 0 2.5 -2.5 2.63 2.63 0 0 0 -0.8 0.13 0.23 0.23 0 0 1 -0.25 -0.06l-1.79 -1.8a1 1 0 0 0 -1.42 1.41l1.81 1.82a0.25 0.25 0 0 1 0.06 0.26 2.55 2.55 0 0 0 -0.11 0.74Z" fill="#000000" stroke-width="1"></path>
    <path d="m7 5.57 -2 -2a0.23 0.23 0 0 1 -0.06 -0.25A2.63 2.63 0 0 0 5 2.5 2.5 2.5 0 1 0 2.51 5a2.55 2.55 0 0 0 0.74 -0.11 0.25 0.25 0 0 1 0.26 0.11l2.06 2a1 1 0 0 0 0.7 0.29A1 1 0 0 0 7 5.57Z" fill="#000000" stroke-width="1"></path>
    <path d="M2.5 24A2.5 2.5 0 0 0 5 21.5a2.55 2.55 0 0 0 -0.11 -0.74 0.23 0.23 0 0 1 0.11 -0.25l1.81 -1.83a1 1 0 0 0 -1.42 -1.41l-1.79 1.8a0.23 0.23 0 0 1 -0.25 0.06A2.63 2.63 0 0 0 2.5 19a2.5 2.5 0 0 0 0 5Z" fill="#000000" stroke-width="1"></path>
    <path d="M21.49 9a2.53 2.53 0 0 0 -2.23 1.36 0.23 0.23 0 0 1 -0.22 0.14H18a1 1 0 0 0 0 2h1a0.23 0.23 0 0 1 0.22 0.14A2.5 2.5 0 1 0 21.49 9Z" fill="#000000" stroke-width="1"></path>
    <path d="M6 10.5H5a0.24 0.24 0 0 1 -0.22 -0.14A2.53 2.53 0 0 0 2.51 9a2.5 2.5 0 1 0 2.23 3.64 0.24 0.24 0 0 1 0.26 -0.14h1a1 1 0 0 0 0 -2Z" fill="#000000" stroke-width="1"></path>
  </g>
</svg>