<svg xmlns="http://www.w3.org/2000/svg" viewBox="0 0 24 24" id="Cash-Briefcase--Streamline-Ultimate">
  <desc>
    Cash Briefcase Streamline Icon: https://streamlinehq.com
  </desc>
  <path d="M3.5 22.75h17a3.5 3.5 0 0 0 3.5 -3.5v-10a3.5 3.5 0 0 0 -3.5 -3.5h-3.75a0.25 0.25 0 0 1 -0.25 -0.25V4.25a3 3 0 0 0 -3 -3h-3a3 3 0 0 0 -3 3V5.5a0.25 0.25 0 0 1 -0.25 0.25H3.5A3.5 3.5 0 0 0 0 9.25v10a3.5 3.5 0 0 0 3.5 3.5Zm6 -18.5a1 1 0 0 1 1 -1h3a1 1 0 0 1 1 1V5.5a0.25 0.25 0 0 1 -0.25 0.25h-4.5a0.25 0.25 0 0 1 -0.25 -0.25Zm3.6 11.47 -3 -1.1a2.37 2.37 0 0 1 -1.36 -2.3 2.33 2.33 0 0 1 2 -2.34 0.27 0.27 0 0 0 0.2 -0.25v-0.48a1 1 0 0 1 2 0v0.42a0.25 0.25 0 0 0 0.25 0.25h1a1 1 0 0 1 0 2h-2.75c-0.66 0 -0.66 0.29 -0.66 0.4a0.74 0.74 0 0 0 0.12 0.46l3 1.1a2.37 2.37 0 0 1 1.36 2.3 2.33 2.33 0 0 1 -2 2.34 0.27 0.27 0 0 0 -0.2 0.25v0.48a1 1 0 0 1 -2 0v-0.42a0.25 0.25 0 0 0 -0.25 -0.25h-1a1 1 0 0 1 0 -2h2.78c0.66 0 0.66 -0.29 0.66 -0.4a0.74 0.74 0 0 0 -0.15 -0.46Z" fill="#000000" stroke-width="1"></path>
</svg>