<svg xmlns="http://www.w3.org/2000/svg" viewBox="0 0 24 24" id="Data-File-Bars-Edit--Streamline-Ultimate">
  <desc>
    Data File Bars Edit Streamline Icon: https://streamlinehq.com
  </desc>
  <g id="Data-File-Bars-Edit--Streamline-Ultimate.svg">
    <path d="M11.5 10h1s0.5 0 0.5 0.5V13s0 0.5 -0.5 0.5h-1s-0.5 0 -0.5 -0.5v-2.5s0 -0.5 0.5 -0.5" fill="#000000" stroke-width="1"></path>
    <path d="M15 5.5h1s0.5 0 0.5 0.5v7s0 0.5 -0.5 0.5h-1s-0.5 0 -0.5 -0.5V6s0 -0.5 0.5 -0.5" fill="#000000" stroke-width="1"></path>
    <path d="M18.5 7.5h1s0.5 0 0.5 0.5v5s0 0.5 -0.5 0.5h-1s-0.5 0 -0.5 -0.5V8s0 -0.5 0.5 -0.5" fill="#000000" stroke-width="1"></path>
    <path d="M21 0.59A2 2 0 0 0 19.59 0H8a2 2 0 0 0 -2 2v9.07a0.29 0.29 0 0 0 0.07 0.18l1.5 1.5a0.26 0.26 0 0 0 0.43 -0.18V2.5a0.5 0.5 0 0 1 0.5 -0.5h10.88a0.47 0.47 0 0 1 0.35 0.15l2.12 2.12a0.47 0.47 0 0 1 0.15 0.35V18a0.5 0.5 0 0 1 -0.5 0.5h-7.82a0.25 0.25 0 0 0 -0.24 0.33c0.16 0.44 0.36 1.16 0.45 1.49a0.25 0.25 0 0 0 0.24 0.18H22a2 2 0 0 0 2 -2V4.42A2 2 0 0 0 23.41 3Z" fill="#000000" stroke-width="1"></path>
    <path d="m11.94 20.13 -2.81 2.81a0.25 0.25 0 0 0 0.13 0.42l3.14 0.64h0.1a0.47 0.47 0 0 0 0.35 -0.15 0.49 0.49 0 0 0 0.15 -0.45l-0.63 -3.14a0.25 0.25 0 0 0 -0.43 -0.13Z" fill="#000000" stroke-width="1"></path>
    <path d="m11.15 18.45 -6.58 -6.58A2.72 2.72 0 0 0 1 11.59a2.63 2.63 0 0 0 -0.2 3.88l6.68 6.68a0.25 0.25 0 0 0 0.36 0l3.35 -3.35a0.24 0.24 0 0 0 -0.04 -0.35Z" fill="#000000" stroke-width="1"></path>
  </g>
</svg>