<svg xmlns="http://www.w3.org/2000/svg" viewBox="0 0 24 24" id="Factory-Industrial-Robot-Arm-1--Streamline-Ultimate">
  <desc>
    Factory Industrial Robot Arm 1 Streamline Icon: https://streamlinehq.com
  </desc>
  <g id="Factory-Industrial-Robot-Arm-1--Streamline-Ultimate.svg">
    <path d="M16.65 20.44H16v-2.37a3.07 3.07 0 0 0 -6.14 0v2.37h-0.64a1.5 1.5 0 0 0 -1.5 1.5v1.56a0.5 0.5 0 0 0 0.5 0.5h9.43a0.5 0.5 0 0 0 0.5 -0.5v-1.56a1.5 1.5 0 0 0 -1.5 -1.5ZM13 19.1a1.06 1.06 0 0 1 0 -2.1 1.06 1.06 0 1 1 0 2.11Z" fill="#000000" stroke-width="1"></path>
    <path d="M23.92 8.81a4.32 4.32 0 0 0 -4.13 -3.09A4.19 4.19 0 0 0 18 6.1l-2.26 -2.32A3 3 0 0 0 11.46 0.34 3 3 0 0 0 10 2.17L3.72 7a3.2 3.2 0 0 0 -1.93 0.35 3.29 3.29 0 0 0 1.84 6.19l4.76 4.89V18A4.54 4.54 0 0 1 10 14.52L6.52 11a3.25 3.25 0 0 0 0 -1.55l4.87 -3.85a3 3 0 0 0 2.33 0.27l2.24 2.26a4.19 4.19 0 0 0 -0.45 1.9 4.31 4.31 0 0 0 3.21 4.17 1.17 1.17 0 0 0 0.32 0 1.25 1.25 0 0 0 0.31 -2.46 1.81 1.81 0 1 1 2.2 -2.26 1.25 1.25 0 1 0 2.39 -0.7Zm-20.61 2.5a1.05 1.05 0 1 1 1.06 -1.05 1 1 0 0 1 -1.06 1.05Zm9.54 -7.22A1.1 1.1 0 1 1 14 3a1.09 1.09 0 0 1 -1.15 1.09Z" fill="#000000" stroke-width="1"></path>
  </g>
</svg>