<svg xmlns="http://www.w3.org/2000/svg" viewBox="0 0 24 24" id="Global-Business-Man-User--Streamline-Ultimate">
  <desc>
    Global Business Man User Streamline Icon: https://streamlinehq.com
  </desc>
  <g id="Global-Business-Man-User--Streamline-Ultimate.svg">
    <path d="M12.09 23.88h0.55a1 1 0 0 0 -0.08 -1.94h-0.28a0.23 0.23 0 0 1 -0.2 -0.11 22.43 22.43 0 0 1 -1.89 -3.17 0.26 0.26 0 0 1 0 -0.24 0.27 0.27 0 0 1 0.21 -0.12h0.73a1 1 0 1 0 0 -1.93H9.44a0.25 0.25 0 0 1 -0.24 -0.18 16.4 16.4 0 0 1 -0.72 -3.43 0.26 0.26 0 0 1 0.07 -0.19 0.23 0.23 0 0 1 0.18 -0.08h2.17a1 1 0 0 0 0 -1.94H8.72a0.25 0.25 0 0 1 -0.18 -0.08 0.26 0.26 0 0 1 -0.07 -0.19 14.46 14.46 0 0 1 0.44 -2.45 0.26 0.26 0 0 1 0.24 -0.19h2.72a1 1 0 1 0 0 -1.93H10.1a0.27 0.27 0 0 1 -0.21 -0.12 0.23 0.23 0 0 1 0 -0.24A15.87 15.87 0 0 1 12 2.16a0.28 0.28 0 0 1 0.18 -0.09l0.57 0c0.54 0 0.8 -0.39 0.83 -0.93a1 1 0 0 0 -0.93 -1 2.16 2.16 0 0 0 -0.36 0h-0.15A11.64 11.64 0 0 0 0.26 11.61a12 12 0 0 0 11.83 12.27Zm-2.8 -2.83a0.26 0.26 0 0 1 0 0.29 0.23 0.23 0 0 1 -0.27 0.07 9.85 9.85 0 0 1 -4.11 -2.69 0.24 0.24 0 0 1 0 -0.27 0.24 0.24 0 0 1 0.22 -0.15h2.7a0.27 0.27 0 0 1 0.24 0.16 21.52 21.52 0 0 0 1.22 2.59ZM4.69 5.29a9.63 9.63 0 0 1 4 -2.62 0.24 0.24 0 0 1 0.28 0.07A0.26 0.26 0 0 1 9 3a16.72 16.72 0 0 0 -1.3 2.52 0.25 0.25 0 0 1 -0.23 0.16h-2.6a0.25 0.25 0 0 1 -0.23 -0.15 0.25 0.25 0 0 1 0.05 -0.24ZM3 7.79a0.25 0.25 0 0 1 0.23 -0.15h3.4a0.25 0.25 0 0 1 0.28 0.36 15.75 15.75 0 0 0 -0.35 2.37 0.25 0.25 0 0 1 -0.25 0.23H2.56a0.25 0.25 0 0 1 -0.19 -0.09 0.23 0.23 0 0 1 -0.06 -0.2A10.22 10.22 0 0 1 3 7.79Zm0.16 8.43a10.44 10.44 0 0 1 -1 -3.46 0.22 0.22 0 0 1 0.06 -0.19 0.27 0.27 0 0 1 0.19 -0.08h3.9a0.24 0.24 0 0 1 0.25 0.23 17.92 17.92 0 0 0 0.59 3.33 0.25 0.25 0 0 1 0 0.22 0.26 0.26 0 0 1 -0.2 0.1H3.43a0.25 0.25 0 0 1 -0.23 -0.15Z" fill="#000000" stroke-width="1"></path>
    <path d="M18.41 8.6a5.34 5.34 0 0 0 -5.33 5.33v3.4a0.49 0.49 0 0 0 0.49 0.48h1.74a0.25 0.25 0 0 1 0.25 0.23l0.44 5.14a0.48 0.48 0 0 0 0.48 0.44h3.88a0.48 0.48 0 0 0 0.48 -0.44l0.42 -5.18a0.25 0.25 0 0 1 0.25 -0.23h1.75a0.49 0.49 0 0 0 0.48 -0.48v-3.4a5.34 5.34 0 0 0 -5.33 -5.29Zm0.73 6.25a0.73 0.73 0 1 1 -1.46 0V11a0.73 0.73 0 1 1 1.46 0Z" fill="#000000" stroke-width="1"></path>
    <path d="M18.41 8.12a3.88 3.88 0 1 0 -3.87 -3.88 3.88 3.88 0 0 0 3.87 3.88Zm-2.23 -4.79a0.25 0.25 0 0 1 0.16 -0.14 0.26 0.26 0 0 1 0.21 0 5.18 5.18 0 0 0 2.93 0.9A5.29 5.29 0 0 0 20.54 4a0.23 0.23 0 0 1 0.29 0.23 2.42 2.42 0 1 1 -4.84 0 2.32 2.32 0 0 1 0.19 -0.9Z" fill="#000000" stroke-width="1"></path>
  </g>
</svg>