<svg xmlns="http://www.w3.org/2000/svg" viewBox="0 0 24 24" id="Performance-Increase--Streamline-Ultimate">
  <desc>
    Performance Increase Streamline Icon: https://streamlinehq.com
  </desc>
  <g id="Performance-Increase--Streamline-Ultimate.svg">
    <path d="M2 17.87a1 1 0 0 0 -1 1v1.5a0.25 0.25 0 0 0 0.25 0.25h3.5a0.25 0.25 0 0 0 0.25 -0.25v-1.5a1 1 0 0 0 -1 -1Z" fill="#000000" stroke-width="1"></path>
    <path d="M8 14.87a1 1 0 0 0 -1 1v4.5a0.25 0.25 0 0 0 0.25 0.25h3.5a0.25 0.25 0 0 0 0.25 -0.25v-4.5a1 1 0 0 0 -1 -1Z" fill="#000000" stroke-width="1"></path>
    <path d="M14 11.37a1 1 0 0 0 -1 1v8a0.25 0.25 0 0 0 0.25 0.25h3.5a0.25 0.25 0 0 0 0.25 -0.25v-8a1 1 0 0 0 -1 -1Z" fill="#000000" stroke-width="1"></path>
    <path d="M19.25 20.62h3.5a0.25 0.25 0 0 0 0.25 -0.25v-12a1 1 0 0 0 -1 -1h-2a1 1 0 0 0 -1 1v12a0.25 0.25 0 0 0 0.25 0.25Z" fill="#000000" stroke-width="1"></path>
    <path d="m18.07 4.21 0.31 0.46A0.74 0.74 0 0 0 19 5a0.74 0.74 0 0 0 0.62 -0.38l2 -3.5a0.75 0.75 0 0 0 0 -0.79 0.72 0.72 0 0 0 -0.71 -0.33l-4 0.5a0.75 0.75 0 0 0 -0.53 1.16l0.3 0.46a0.24 0.24 0 0 1 -0.07 0.34L2.45 11.92a1 1 0 0 0 -0.28 1.39 1 1 0 0 0 0.83 0.44 0.94 0.94 0 0 0 0.55 -0.17l14.17 -9.44a0.25 0.25 0 0 1 0.35 0.07Z" fill="#000000" stroke-width="1"></path>
    <path d="M1 24h22a1 1 0 0 0 0.31 -1.95A1.06 1.06 0 0 0 23 22H1a1.06 1.06 0 0 0 -0.31 0.05A1 1 0 0 0 1 24Z" fill="#000000" stroke-width="1"></path>
  </g>
</svg>