<svg xmlns="http://www.w3.org/2000/svg" viewBox="0 0 24 24" id="User-Network--Streamline-Ultimate">
  <desc>
    User Network Streamline Icon: https://streamlinehq.com
  </desc>
  <g id="User-Network--Streamline-Ultimate.svg">
    <path d="M21.49 0A2.5 2.5 0 0 0 19 2.5a2.63 2.63 0 0 0 0.13 0.8 0.23 0.23 0 0 1 -0.06 0.25l-2.28 2.26a1 1 0 0 0 0.7 1.71 1 1 0 0 0 0.71 -0.29L20.5 5a0.23 0.23 0 0 1 0.25 -0.06 2.55 2.55 0 0 0 0.74 0.11 2.5 2.5 0 0 0 0 -5Z" fill="#000000" stroke-width="1"></path>
    <path d="M21.5 19a2.63 2.63 0 0 0 -0.8 0.13 0.23 0.23 0 0 1 -0.25 -0.06l-1.79 -1.8a1 1 0 0 0 -1.42 1.41l1.81 1.82a0.25 0.25 0 0 1 0.06 0.26 2.55 2.55 0 0 0 -0.11 0.74 2.5 2.5 0 1 0 2.5 -2.5Z" fill="#000000" stroke-width="1"></path>
    <path d="M7.21 5.81 4.94 3.55a0.23 0.23 0 0 1 -0.06 -0.25A2.63 2.63 0 0 0 5 2.5 2.5 2.5 0 1 0 2.51 5a2.55 2.55 0 0 0 0.74 -0.11 0.25 0.25 0 0 1 0.26 0.11L5.8 7.23a1 1 0 0 0 0.71 0.29 1 1 0 0 0 0.71 -0.3 1 1 0 0 0 -0.01 -1.41Z" fill="#000000" stroke-width="1"></path>
    <path d="M2.5 24A2.5 2.5 0 0 0 5 21.5a2.55 2.55 0 0 0 -0.11 -0.74 0.23 0.23 0 0 1 0.11 -0.25l1.81 -1.83a1 1 0 0 0 -1.42 -1.41l-1.79 1.8a0.23 0.23 0 0 1 -0.25 0.06A2.63 2.63 0 0 0 2.5 19a2.5 2.5 0 0 0 0 5Z" fill="#000000" stroke-width="1"></path>
    <path d="M21.49 9a2.53 2.53 0 0 0 -2.23 1.36 0.23 0.23 0 0 1 -0.22 0.14H18a1 1 0 0 0 0 2h1a0.23 0.23 0 0 1 0.22 0.14A2.5 2.5 0 1 0 21.49 9Z" fill="#000000" stroke-width="1"></path>
    <path d="M5 10.5a0.24 0.24 0 0 1 -0.22 -0.14A2.53 2.53 0 0 0 2.51 9a2.5 2.5 0 1 0 2.23 3.64 0.24 0.24 0 0 1 0.26 -0.14h1a1 1 0 0 0 0 -2Z" fill="#000000" stroke-width="1"></path>
    <path d="M9.14 7.12A2.86 2.86 0 1 0 12 4.26a2.86 2.86 0 0 0 -2.86 2.86Z" fill="#000000" stroke-width="1"></path>
    <path d="M8.17 16.26h7.66a1.14 1.14 0 0 0 1.1 -1.47 5.15 5.15 0 0 0 -9.86 0 1.14 1.14 0 0 0 1.1 1.47Z" fill="#000000" stroke-width="1"></path>
  </g>
</svg>