<svg xmlns="http://www.w3.org/2000/svg" fill="none" viewBox="0 0 24 24" id="Smartwatch-1--Streamline-Cyber">
  <desc>
    Smartwatch 1 Streamline Icon: https://streamlinehq.com
  </desc>
  <path stroke="#092f63" stroke-linecap="round" stroke-linejoin="round" stroke-miterlimit="10" d="M17.5 21.5h5l1 -2 -1 -2 1 -2 -1.25 -2 1.25 -2 -1 -2h-7l-2.75 2H10.5" stroke-width="1"></path>
  <path stroke="#092f63" stroke-linecap="round" stroke-linejoin="round" stroke-miterlimit="10" d="m20.25 21.5 -1 2h-3.5l-3 -4H10.5" stroke-width="1"></path>
  <path stroke="#092f63" stroke-linecap="round" stroke-linejoin="round" stroke-miterlimit="10" d="M10.5 11.5h-5v8h5v-8Z" stroke-width="1"></path>
  <path stroke="#092f63" stroke-linecap="round" stroke-linejoin="round" stroke-miterlimit="10" d="M5.5 11.5h-5" stroke-width="1"></path>
  <path stroke="#092f63" stroke-linecap="round" stroke-linejoin="round" stroke-miterlimit="10" d="M5.5 19.5h-5" stroke-width="1"></path>
  <path stroke="#092f63" stroke-linecap="round" stroke-linejoin="round" stroke-miterlimit="10" d="m1.5 5.5 4 -4h5l4 4" stroke-width="1"></path>
  <path stroke="#092f63" stroke-linecap="round" stroke-linejoin="round" stroke-miterlimit="10" d="M3.25 7.25 6 4.5h4l2.75 2.75" stroke-width="1"></path>
  <path stroke="#092f63" stroke-linecap="round" stroke-linejoin="round" stroke-miterlimit="10" d="M5.25 9.25 7 7.5h2l1.75 1.75" stroke-width="1"></path>
  <path stroke="#092f63" stroke-linecap="round" stroke-linejoin="round" stroke-miterlimit="10" d="M5.5 17.5h5" stroke-width="1"></path>
  <path stroke="#092f63" stroke-linecap="round" stroke-linejoin="round" stroke-miterlimit="10" d="M5.5 13.5h5" stroke-width="1"></path>
</svg>