<svg xmlns="http://www.w3.org/2000/svg" fill="none" viewBox="0 0 14 14" id="Alien--Streamline-Flex">
  <desc>
    Alien Streamline Icon: https://streamlinehq.com
  </desc>
  <g id="alien--science-extraterristerial-life-form-space-universe-head-astronomy">
    <path id="Vector 467" fill="#ffffff" d="M5.07464 5.45383c-0.73356 -0.77537 -1.78895 -0.59487 -2.22496 -0.4077 -0.13035 0.51024 -0.20767 1.72458 0.52588 2.49996 0.73356 0.77538 1.78895 0.59488 2.22496 0.4077 0.13035 -0.51024 0.20767 -1.72458 -0.52588 -2.49996Z" stroke-width="1"></path>
    <path id="Vector 468" fill="#ffffff" d="M8.87556 5.45383c0.73356 -0.77537 1.78894 -0.59487 2.22494 -0.4077 0.1304 0.51024 0.2077 1.72458 -0.5259 2.49996 -0.73352 0.77538 -1.78892 0.59488 -2.22492 0.4077 -0.13036 -0.51024 -0.20768 -1.72458 0.52588 -2.49996Z" stroke-width="1"></path>
    <path id="Subtract" fill="#d7e0ff" fill-rule="evenodd" d="M0.75 5.75c0 -4.75 4.24995 -5 6.24994 -5 2 0 6.25006 0.25 6.25006 5 0 5.5227 -4.75006 7.5001 -6.25006 7.5001S0.75 11.2727 0.75 5.75Zm4.32445 -0.29617c-0.73355 -0.77537 -1.78895 -0.59487 -2.22495 -0.4077 -0.13036 0.51024 -0.20768 1.72458 0.52588 2.49996 0.73356 0.77538 1.78895 0.59488 2.22495 0.4077 0.13036 -0.51024 0.20768 -1.72458 -0.52588 -2.49996Zm6.02585 -0.4077c-0.436 -0.18717 -1.49137 -0.36767 -2.22492 0.4077 -0.73356 0.77538 -0.65624 1.98972 -0.52589 2.49996 0.43601 0.18718 1.4914 0.36768 2.22491 -0.4077 0.7336 -0.77538 0.6563 -1.98972 0.5259 -2.49996Z" clip-rule="evenodd" stroke-width="1"></path>
    <path id="Vector 464" stroke="#4147d5" stroke-linecap="round" stroke-linejoin="round" d="M0.75 5.75c0 -4.75 4.24995 -5 6.24994 -5 2 0 6.25006 0.25 6.25006 5 0 5.5227 -4.75006 7.5001 -6.25006 7.5001S0.75 11.2727 0.75 5.75Z" stroke-width="1"></path>
    <path id="Vector 465" stroke="#4147d5" stroke-linecap="round" stroke-linejoin="round" d="M5.07464 5.45383c-0.73356 -0.77537 -1.78895 -0.59487 -2.22496 -0.4077 -0.13035 0.51024 -0.20767 1.72458 0.52588 2.49996 0.73356 0.77538 1.78895 0.59488 2.22496 0.4077 0.13035 -0.51024 0.20767 -1.72458 -0.52588 -2.49996Z" stroke-width="1"></path>
    <path id="Vector 466" stroke="#4147d5" stroke-linecap="round" stroke-linejoin="round" d="M8.87556 5.45383c0.73356 -0.77537 1.78894 -0.59487 2.22494 -0.4077 0.1304 0.51024 0.2077 1.72458 -0.5259 2.49996 -0.73352 0.77538 -1.78892 0.59488 -2.22492 0.4077 -0.13036 -0.51024 -0.20768 -1.72458 0.52588 -2.49996Z" stroke-width="1"></path>
  </g>
</svg>