<svg xmlns="http://www.w3.org/2000/svg" fill="none" viewBox="0 0 14 14" id="Reduced-Inequalities--Streamline-Flex">
  <desc>
    Reduced Inequalities Streamline Icon: https://streamlinehq.com
  </desc>
  <g id="reduced-inequalities">
    <path id="Subtract" fill="#d7e0ff" d="M1.03353 7.62629C0.718775 7.26 0.718601 6.71947 1.03325 6.35308c0.50067 -0.58301 1.00322 -1.14328 1.5139 -1.68705 0.1916 -0.20402 0.53173 -0.05324 0.51701 0.22626 -0.07434 1.41209 -0.07473 2.78154 -0.00116 4.19318 0.01456 0.27948 -0.32559 0.43011 -0.51713 0.22607 -0.5095 -0.54275 -1.01138 -1.10226 -1.51234 -1.68525Z" stroke-width="1"></path>
    <path id="Subtract_2" fill="#d7e0ff" d="M4.90108 10.9243c-0.27939 -0.0146 -0.42999 0.3254 -0.22609 0.5169 0.547 0.5139 1.11099 1.02 1.69884 1.5251 0.3663 0.3148 0.90682 0.315 1.27321 0.0003 0.58787 -0.5048 1.15263 -1.0116 1.70066 -1.5266 0.20388 -0.1917 0.05313 -0.5316 -0.22628 -0.5169 -1.42264 0.075 -2.79821 0.0754 -4.22034 0.0012Z" stroke-width="1"></path>
    <path id="Subtract_3" fill="#d7e0ff" d="M10.9354 9.10794c-0.0147 0.2795 0.3255 0.43028 0.5171 0.22627 0.5107 -0.54386 1.0133 -1.10421 1.5141 -1.6873 0.3146 -0.3664 0.3145 -0.90692 -0.0003 -1.27322 -0.501 -0.58307 -1.003 -1.14267 -1.5126 -1.6855 -0.1915 -0.20403 -0.5317 -0.0534 -0.5171 0.22607 0.0736 1.41182 0.0732 2.78142 -0.0012 4.19368Z" stroke-width="1"></path>
    <path id="Subtract_4" fill="#d7e0ff" d="M9.0992 3.07585c0.27939 0.01457 0.42999 -0.32539 0.22609 -0.51694 -0.547 -0.5139 -1.111 -1.01999 -1.69886 -1.52513 -0.3663 -0.314761 -0.90682 -0.314935 -1.27322 -0.00029 -0.58786 0.50485 -1.15261 1.01161 -1.70064 1.52668 -0.20389 0.19162 -0.05313 0.53155 0.22627 0.51683 1.42264 -0.07493 2.79821 -0.07532 4.22036 -0.00115Z" stroke-width="1"></path>
    <path id="Subtract_5" stroke="#4147d5" stroke-linecap="round" stroke-linejoin="round" d="M1.03402 7.62629C0.719263 7.26 0.719089 6.71947 1.03374 6.35308c0.50067 -0.58301 1.00322 -1.14328 1.5139 -1.68705 0.1916 -0.20402 0.53172 -0.05324 0.51701 0.22626 -0.07434 1.41209 -0.07473 2.78154 -0.00116 4.19318 0.01456 0.27948 -0.32559 0.43011 -0.51713 0.22607 -0.50951 -0.54275 -1.01138 -1.10226 -1.51234 -1.68525Z" stroke-width="1"></path>
    <path id="Subtract_6" stroke="#4147d5" stroke-linecap="round" stroke-linejoin="round" d="M4.90108 10.9243c-0.27939 -0.0146 -0.42999 0.3254 -0.22609 0.5169 0.547 0.5139 1.11099 1.02 1.69884 1.5251 0.3663 0.3148 0.90682 0.315 1.27321 0.0003 0.58787 -0.5048 1.15263 -1.0116 1.70066 -1.5266 0.20388 -0.1917 0.05313 -0.5316 -0.22628 -0.5169 -1.42264 0.075 -2.79821 0.0754 -4.22034 0.0012Z" stroke-width="1"></path>
    <path id="Subtract_7" stroke="#4147d5" stroke-linecap="round" stroke-linejoin="round" d="M10.9354 9.10794c-0.0147 0.2795 0.3255 0.43028 0.5171 0.22627 0.5107 -0.54386 1.0133 -1.10421 1.5141 -1.6873 0.3146 -0.3664 0.3145 -0.90692 -0.0003 -1.27322 -0.501 -0.58307 -1.003 -1.14267 -1.5126 -1.6855 -0.1915 -0.20403 -0.5317 -0.0534 -0.5171 0.22607 0.0736 1.41182 0.0732 2.78142 -0.0012 4.19368Z" stroke-width="1"></path>
    <path id="Subtract_8" stroke="#4147d5" stroke-linecap="round" stroke-linejoin="round" d="M9.0992 3.07585c0.27939 0.01457 0.42999 -0.32539 0.22609 -0.51694 -0.547 -0.5139 -1.111 -1.01999 -1.69886 -1.52513 -0.3663 -0.314761 -0.90682 -0.314935 -1.27322 -0.00029 -0.58786 0.50485 -1.15261 1.01161 -1.70064 1.52668 -0.20389 0.19162 -0.05313 0.53155 0.22627 0.51683 1.42264 -0.07493 2.79821 -0.07532 4.22036 -0.00115Z" stroke-width="1"></path>
    <path id="Vector 392" stroke="#4147d5" stroke-linecap="round" stroke-linejoin="round" d="M5.78906 5.79492h2.42187" stroke-width="1"></path>
    <path id="Vector 393" stroke="#4147d5" stroke-linecap="round" stroke-linejoin="round" d="M5.78906 8.20508h2.42187" stroke-width="1"></path>
  </g>
</svg>