<svg xmlns="http://www.w3.org/2000/svg" fill="none" viewBox="0 0 14 14" id="Windmill--Streamline-Flex">
  <desc>
    Windmill Streamline Icon: https://streamlinehq.com
  </desc>
  <g id="windmill">
    <path id="Vector 764" fill="#ffffff" d="M3.97852 3.24998c0 -2.400004 2 -2.66667 3 -2.500004V5.74998c-1 0.49999 -3 -0.1 -3 -2.5Z" stroke-width="1"></path>
    <path id="Vector 765" fill="#ffffff" d="M9.97852 8.29002c0 -2.4 -2 -2.66667 -3 -2.5V10.79c1 0.5 3 -0.1 3 -2.49998Z" stroke-width="1"></path>
    <path id="Vector 766" fill="#ffffff" d="M9.56008 2.83154c2.40002 0 2.66662 2 2.50002 3l-5.00002 0c-0.49999 -1 0.1 -3 2.5 -3Z" stroke-width="1"></path>
    <path id="Vector 767" fill="#ffffff" d="M4.52004 8.83154c2.4 0 2.66667 -2 2.5 -3l-5 0c-0.49999 1 0.1 3 2.5 3Z" stroke-width="1"></path>
    <path id="Vector 768" fill="#ffffff" d="M9.97852 8.29002c0 -2.4 -2 -2.66667 -3 -2.5V10.79c1 0.5 3 -0.1 3 -2.49998Z" stroke-width="1"></path>
    <path id="Vector 769" fill="#ffffff" d="M4.52004 8.83154c2.4 0 2.66667 -2 2.5 -3l-5 0c-0.49999 1 0.1 3 2.5 3Z" stroke-width="1"></path>
    <path id="Subtract" fill="#d7e0ff" d="M3.94155 8.78926c-0.34217 1.53594 -0.46303 3.21414 -0.46303 4.46074h7.49998c-0.0839 -1.5105 -0.3875 -3.6547 -1.02571 -5.41159 0.01686 0.14141 0.02573 0.29177 0.02573 0.4516 0 2.39999 -2 2.99999 -3 2.49999V7.05713c-0.20827 0.88777 -0.86049 1.77441 -2.45848 1.77441 -0.20593 0 -0.39862 -0.01472 -0.57849 -0.04228Z" stroke-width="1"></path>
    <path id="Subtract_2" stroke="#4147d5" stroke-linecap="round" stroke-linejoin="round" d="M3.94155 8.78926c-0.34217 1.53594 -0.46303 3.21414 -0.46303 4.46074h7.49998c-0.0839 -1.5105 -0.3875 -3.6547 -1.02571 -5.41159 0.01686 0.14141 0.02573 0.29177 0.02573 0.4516 0 2.39999 -2 2.99999 -3 2.49999V7.05713c-0.20827 0.88777 -0.86049 1.77441 -2.45848 1.77441 -0.20593 0 -0.39862 -0.01472 -0.57849 -0.04228Z" stroke-width="1"></path>
    <path id="Vector 756" stroke="#4147d5" stroke-linecap="round" stroke-linejoin="round" d="M1.47852 13.25H12.4785" stroke-width="1"></path>
    <path id="Vector 758" stroke="#4147d5" stroke-linecap="round" stroke-linejoin="round" d="M3.97852 3.24998c0 -2.400004 2 -2.66667 3 -2.500004V5.74998c-1 0.49999 -3 -0.1 -3 -2.5Z" stroke-width="1"></path>
    <path id="Vector 760" stroke="#4147d5" stroke-linecap="round" stroke-linejoin="round" d="M9.56008 2.83154c2.40002 0 2.66662 2 2.50002 3l-5.00002 0c-0.49999 -1 0.1 -3 2.5 -3Z" stroke-width="1"></path>
    <path id="Vector 762" stroke="#4147d5" stroke-linecap="round" stroke-linejoin="round" d="M9.97852 8.29002c0 -2.4 -2 -2.66667 -3 -2.5V10.79c1 0.5 3 -0.1 3 -2.49998Z" stroke-width="1"></path>
    <path id="Vector 763" stroke="#4147d5" stroke-linecap="round" stroke-linejoin="round" d="M4.52004 8.83154c2.4 0 2.66667 -2 2.5 -3l-5 0c-0.49999 1 0.1 3 2.5 3Z" stroke-width="1"></path>
  </g>
</svg>