<svg xmlns="http://www.w3.org/2000/svg" fill="none" viewBox="0 0 24 24" id="Box-Waterproof--Streamline-Sharp-Remix">
  <desc>
    Box Waterproof Streamline Icon: https://streamlinehq.com
  </desc>
  <g id="Remix/Shipping/box-waterproof--box-package-label-delivery-shipment-shipping-waterproof-protect-water-wet">
    <path id="Union" fill="#000000" fill-rule="evenodd" d="m12.0397 4.7362 -2.50005 -3L11.4602 0.135742l2.5 2.999998 -1.9205 1.60046Zm-9.50005 -2 2.5 3 1.92056 -1.60046 -2.5 -3L2.53965 2.7362Zm0.60572 8.5189c2.60377 -1.50624 5.62655 -2.36869 8.85453 -2.36869 3.228 0 6.2508 0.86245 8.8546 2.36869l1.2518 -2.16406c-2.974 -1.72038 -6.4272 -2.70463 -10.1064 -2.70463 -3.67919 0 -7.13231 0.98425 -10.10635 2.70463l1.25182 2.16406Zm3.35456 0.245h-1.25v12.5H18.7499v-12.5H6.49993Zm1.25 10v-7.5h8.49997v7.5H7.74993Zm6.74997 -1.5h-2.5v-2.5h2.5v2.5Zm2.5398 -17.2639 2.5 3 1.9205 -1.60046 -2.5 -3 -1.9205 1.60046Z" clip-rule="evenodd" stroke-width="1"></path>
  </g>
</svg>