<svg xmlns="http://www.w3.org/2000/svg" fill="none" viewBox="0 0 24 24" id="Charging-Battery-Flash-Connected--Streamline-Freehand">
  <desc>
    Charging Battery Flash Connected Streamline Icon: https://streamlinehq.com
  </desc>
  <path fill="#000000" fill-rule="evenodd" d="M23.9859 11.7947c-0.0179 -0.9394 -0.1181 -1.87547 -0.2997 -2.79737 -0.0537 -0.34473 -0.2104 -0.66516 -0.4496 -0.91914 -0.2277 -0.17363 -0.49 -0.29629 -0.7693 -0.35967 -0.5116 -0.1046 -1.0286 -0.18131 -1.5485 -0.22979 -0.2414 -0.00692 -0.4762 -0.07945 -0.6794 -0.2098 -0.1099 -0.09991 -0.1099 -0.34968 -0.1399 -0.61942 -0.0344 -0.51529 -0.1283 -1.02486 -0.2797 -1.51859 -0.0972 -0.26733 -0.2709 -0.50014 -0.4996 -0.66938 -0.3186 -0.21267 -0.6802 -0.35253 -1.059 -0.40962 -0.7747 -0.0613 -1.5531 -0.0613 -2.3278 0 -0.0884 -0.00004 -0.1733 0.03437 -0.2367 0.09593 -0.0635 0.06156 -0.1004 0.14542 -0.103 0.23376 0 0.09104 0.0354 0.1785 0.0989 0.24379 0.0634 0.0653 0.1498 0.10329 0.2408 0.10589 0.6333 -0.01171 1.2669 0.0083 1.8982 0.05994 0.3583 0.03268 0.7022 0.1565 0.9991 0.35967 0.1798 0.12988 0.2198 0.40962 0.2697 0.69935 0.0311 0.55983 0.0979 1.11711 0.1999 1.66845 0.0478 0.16996 0.1331 0.32701 0.2497 0.45957 0.2167 0.20075 0.4818 0.34188 0.7693 0.40962 2.138 0.62941 2.0981 0 2.2879 0.99907 0.1608 1.03774 0.2343 2.08704 0.2198 3.13704 0.0096 0.6014 -0.0272 1.2026 -0.1099 1.7984 -0.0109 0.1765 -0.055 0.3493 -0.1299 0.5095 -0.2194 0.1914 -0.4983 0.3008 -0.7893 0.3097 -0.4439 0.0528 -0.882 0.1464 -1.3087 0.2798 -0.2542 0.0784 -0.4914 0.2038 -0.6994 0.3696 -0.2589 0.2159 -0.4237 0.524 -0.4596 0.8592 -0.0799 0.4596 0 1.069 -0.0699 1.5785 0 0.2498 -0.0699 0.4796 -0.2598 0.5895 -0.3669 0.2083 -0.7706 0.344 -1.1889 0.3996 -0.6632 0.0758 -1.3306 0.1091 -1.9981 0.0999 -0.0795 0 -0.1557 0.0316 -0.2119 0.0878s-0.0878 0.1325 -0.0878 0.212c0 0.0794 0.0316 0.1557 0.0878 0.2119s0.1324 0.0878 0.2119 0.0878c0.7088 0.0399 1.4192 0.0399 2.128 0 0.5079 -0.0423 1.003 -0.1813 1.4587 -0.4096 0.286 -0.1454 0.5045 -0.3961 0.6094 -0.6994 0.1428 -0.538 0.2166 -1.0919 0.2198 -1.6485 0 -0.2597 0 -0.4895 0.1798 -0.5994 0.3043 -0.1783 0.6469 -0.281 0.9991 -0.2997 0.4336 -0.0558 0.8615 -0.1494 1.2788 -0.2798 0.2988 -0.0951 0.5652 -0.2715 0.7693 -0.5095 0.1818 -0.2601 0.3045 -0.5567 0.3597 -0.8692 0.1563 -0.9304 0.2132 -1.8749 0.1698 -2.8174Z" clip-rule="evenodd" stroke-width="1"></path>
  <path fill="#000000" fill-rule="evenodd" d="M6.50215 19.3677c-1.3339 0.0307 -2.66844 -0.0193 -3.99629 -0.1499 -0.44842 -0.0178 -0.87485 -0.199 -1.19888 -0.5095 0 0 0 -0.1498 -0.04996 -0.2697 -0.05994 -0.4196 -0.08991 -1.069 -0.10989 -1.7784v-6.6338c0 -0.70603 -0.01999 -1.42536 -0.05995 -2.15801 -0.05439 -0.5014 -0.05439 -1.0072 0 -1.5086 0.02215 -0.26645 0.123 -0.52031 0.28973 -0.72932 0.24395 -0.26397 0.55458 -0.45726 0.89917 -0.55948 0.60077 -0.1502 1.21928 -0.21743 1.83829 -0.19982l2.71747 -0.07992c0.03888 0.00134 0.07764 -0.00516 0.11395 -0.01912 0.03631 -0.01396 0.06944 -0.03509 0.09741 -0.06213 0.02797 -0.02704 0.05021 -0.05943 0.06539 -0.09525 0.01519 -0.03582 0.023 -0.07433 0.02297 -0.11323 0.00135 -0.03888 -0.00516 -0.07764 -0.01912 -0.11395 -0.01395 -0.03631 -0.03508 -0.06944 -0.06212 -0.09741 -0.02704 -0.02797 -0.05944 -0.05021 -0.09525 -0.06539 -0.03582 -0.01519 -0.07433 -0.023 -0.11324 -0.02297l-2.70748 -0.06994c-0.69486 -0.05919 -1.39462 -0.01882 -2.07807 0.11989 -0.51055 0.1194 -0.97765 0.3789 -1.348746 0.7493 -0.301008 0.33139 -0.504947 0.73927 -0.589452 1.17891 -0.0992722 0.56707 -0.1361247 1.1433 -0.10989756 1.7184v5.35504c0 0.6394 0.05994426 2.5776 0.17983256 3.9963 0.011062 0.6592 0.136126 1.3116 0.369657 1.9282 0.237487 0.2575 0.524436 0.4646 0.843706 0.6087 0.31928 0.1442 0.66433 0.2226 1.01457 0.2305 1.36089 0.0799 2.7253 0.0799 4.0862 0 0.09009 0 0.17649 -0.0358 0.24019 -0.0995 0.06371 -0.0637 0.09949 -0.1501 0.09949 -0.2402 -0.00751 -0.0848 -0.04659 -0.1637 -0.10949 -0.221 -0.06291 -0.0574 -0.14506 -0.089 -0.23019 -0.0887Z" clip-rule="evenodd" stroke-width="1"></path>
  <path fill="#000000" fill-rule="evenodd" d="M18.501 10.3261c-0.1285 -0.2098 -0.3033 -0.38737 -0.5112 -0.519 -0.2078 -0.13164 -0.4431 -0.21384 -0.6877 -0.24029 -1.0764 -0.20821 -2.1638 -0.35498 -3.257 -0.43959h-0.4895c-0.0072 -0.13978 -0.0072 -0.27983 0 -0.41961 0 -1.45865 0.1499 -4.83551 0.0799 -6.34411 0.004 -0.281 -0.0365 -0.56086 -0.1199 -0.82923 -0.0599 -0.12987 -0.2297 -0.38963 -0.6194 -0.11988 -0.2482 0.19607 -0.4788 0.41335 -0.6893 0.64939 -1.2689 1.27881 -3.78653 4.33597 -5.71473 6.74373 -1.05902 1.32879 -1.9382 2.46769 -2.32784 2.99719 -0.08993 0.1235 -0.1701 0.2538 -0.23978 0.3897 -0.05112 0.077 -0.07839 0.1673 -0.07839 0.2597 0 0.0924 0.02727 0.1828 0.07839 0.2598 0.07551 0.1018 0.17997 0.1784 0.29972 0.2198 0.35874 0.1013 0.72706 0.1649 1.09898 0.1898 1.22886 0.1199 3.20702 0.1399 3.91636 0.1698v0.3597c0 1.7284 -0.2098 5.7047 -0.29972 7.523v0.8392c-0.01082 0.1317 0.01756 0.2636 0.08157 0.3792 0.064 0.1155 0.16076 0.2096 0.2781 0.2702 0.10866 0.0412 0.22695 0.0499 0.34047 0.0251 0.11352 -0.0249 0.21738 -0.0822 0.29893 -0.1649 0.18074 -0.1693 0.35084 -0.3495 0.50954 -0.5395 0.8092 -0.9492 2.4677 -2.9972 4.0562 -5.1752 1.3501 -1.7479 2.5977 -3.5726 3.7365 -5.4649 0.1969 -0.3017 0.2883 -0.66 0.2598 -1.0191Zm-1.3987 1.059c-1.4087 2.2279 -5.1152 6.9935 -6.9935 9.1915 0 -1.099 0.1199 -2.6076 0.1698 -3.9963 0.05 -1.3887 0.07 -2.7674 0 -3.3869 0.0147 -0.1495 0.0147 -0.3 0 -0.4495 -0.017 -0.089 -0.0561 -0.1722 -0.1137 -0.242 -0.0576 -0.0699 -0.1319 -0.1241 -0.21595 -0.1577 -0.22198 -0.0554 -0.45074 -0.079 -0.67936 -0.0699 -0.99908 0 -3.09713 0 -4.1961 -0.1399l0.39962 -0.5694c1.58853 -2.208 5.24509 -6.99355 6.99349 -8.90177 0.1699 -0.18983 0.3197 -0.40962 0.4496 -0.57947 0.0049 0.03982 0.0049 0.08008 0 0.11989 0.0499 1.1889 -0.1399 3.88639 -0.1898 5.61478 -0.0362 0.49555 -0.0362 0.99307 0 1.48862 0.0162 0.16022 0.0953 0.30748 0.2198 0.40962 0.2043 0.10968 0.4285 0.17761 0.6594 0.19981 0.8492 0.13992 2.5476 0.27972 3.5367 0.55952 0.1217 0.0467 0.236 0.1107 0.3397 0.1898 -0.07 0.1798 -0.2198 0.4596 -0.3797 0.7193Z" clip-rule="evenodd" stroke-width="1"></path>
</svg>