<svg xmlns="http://www.w3.org/2000/svg" fill="none" viewBox="0 0 24 24" id="Connect-Device-Cancel--Streamline-Freehand">
  <desc>
    Connect Device Cancel Streamline Icon: https://streamlinehq.com
  </desc>
  <path fill="#000000" fill-rule="evenodd" d="M12.3708 17.8188c0.0009 -0.0429 -0.0073 -0.0856 -0.0243 -0.125 -0.0169 -0.0395 -0.0422 -0.0748 -0.074 -0.1037 -0.0318 -0.0289 -0.0694 -0.0506 -0.1103 -0.0637 -0.0409 -0.013 -0.0841 -0.0172 -0.1268 -0.0121 -0.0426 0.005 -0.0837 0.0192 -0.1204 0.0415 -0.0367 0.0223 -0.0682 0.0522 -0.0923 0.0877 -0.0242 0.0355 -0.0404 0.0758 -0.0477 0.1181 -0.0072 0.0423 -0.0053 0.0857 0.0057 0.1272 0.06 0.5302 0.12 0.9303 0.16 1.4304 0.04 0.5001 0.05 0.8202 0.06 1.4304 0.0095 0.1647 -0.02 0.3293 -0.0861 0.4805 -0.066 0.1512 -0.1667 0.2847 -0.294 0.3897 -0.4986 0.3182 -1.0701 0.5041 -1.66044 0.5402l-4.21113 0.5901c-0.41011 0.05 -1.1303 0.1801 -1.77047 0.2201 -0.28312 0.0644 -0.57896 0.0435 -0.85023 -0.06 -0.24491 -0.2465 -0.41189 -0.5596 -0.48013 -0.9003 -0.18264 -0.654 -0.30321 -1.3238 -0.3601 -2.0005L1.13779 9.93669c-0.04495 -0.25768 -0.06837 -0.51865 -0.07001 -0.78021 -0.00727 -0.1819 0.04545 -0.36114 0.15004 -0.51014 0.1735 -0.18129 0.38541 -0.32143 0.62016 -0.41011l0.45012 1.08029c0.17358 0.28753 0.3856 0.55002 0.63017 0.78018 0.1415 0.1345 0.30803 0.2398 0.49013 0.3101 0.50117 0.0681 1.00924 0.0681 1.51041 0 0.69815 -0.0524 1.39072 -0.1628 2.07056 -0.3301 0.33009 -0.13001 0.79021 -0.29005 1.1403 -0.4601 0.20751 -0.08857 0.39729 -0.21396 0.56015 -0.3701 0.16802 -0.1849 0.28822 -0.40812 0.3501 -0.65017 0.11003 -0.39011 0.16004 -0.89024 0.22006 -1.22033v-0.42011c0.04617 -0.00972 0.09386 -0.00972 0.14003 0 0.35091 0.24203 0.61129 0.59393 0.74019 1.00026 0.2878 0.6532 0.4831 1.34338 0.5802 2.05055 -0.0016 0.0486 0.0072 0.0969 0.0259 0.1417 0.0186 0.0449 0.0467 0.0852 0.0822 0.1183 0.0356 0.0331 0.0778 0.0582 0.1239 0.0737 0.0461 0.0154 0.0949 0.0207 0.1432 0.0157 0.0483 -0.0051 0.095 -0.0204 0.1369 -0.045 0.0419 -0.0246 0.078 -0.0579 0.106 -0.0976 0.0279 -0.0398 0.047 -0.085 0.056 -0.1328 0.009 -0.0477 0.0076 -0.09684 -0.004 -0.14401 -0.0649 -0.77251 -0.2331 -1.53282 -0.5001 -2.26061 -0.1838 -0.54376 -0.5337 -1.01609 -1.00025 -1.35036 -0.37217 -0.18456 -0.78542 -0.27066 -1.20033 -0.25007 -0.81664 0.0445 -1.62899 0.14813 -2.43065 0.31008l-2.76074 0.42012c-0.62991 0.07445 -1.25019 0.21527 -1.8505 0.42011 -0.46317 0.15302 -0.87972 0.42153 -1.210323 0.78021 -0.213497 0.26042 -0.3487654 0.57604 -0.390105 0.91024 -0.05545228 0.39819 -0.05545228 0.80214 0 1.20029L1.13779 20.1194c0.08807 0.8666 0.27948 1.7196 0.57016 2.5407 0.15129 0.4356 0.42581 0.8178 0.79021 1.1003 0.37018 0.189 0.78649 0.2688 1.20032 0.2301 0.72169 -0.0665 1.4395 -0.17 2.15058 -0.3101l4.22114 -0.7502c0.7201 -0.088 1.4074 -0.3525 2.0005 -0.7702 0.2061 -0.1779 0.3671 -0.4021 0.4697 -0.6542 0.1026 -0.2521 0.1439 -0.525 0.1205 -0.7962 0 -0.6302 -0.06 -1.0803 -0.1 -1.4704 -0.04 -0.3901 -0.1201 -0.8903 -0.1901 -1.4204ZM3.62846 7.7461l2.76075 -0.49013c0.66048 -0.1505 1.32819 -0.26735 2.00053 -0.3501h0.28008l-0.07002 0.31009c-0.08002 0.26007 -0.16004 0.65017 -0.28008 1.00026 -0.03932 0.14235 -0.1074 0.27511 -0.20005 0.39011 -0.1485 0.07957 -0.30646 0.14007 -0.47013 0.18005l-0.97026 0.22006c-0.4055 0.09474 -0.81636 0.16489 -1.23033 0.21005l-1.16031 0.17005c-0.21483 0.03692 -0.43222 0.05699 -0.65017 0.06001 -0.10847 -0.04324 -0.20712 -0.10788 -0.29008 -0.19005 -0.13366 -0.09801 -0.25462 -0.21225 -0.3601 -0.34009l-0.54014 -0.91024c0.38672 -0.11478 0.78117 -0.20169 1.18031 -0.26007Z" clip-rule="evenodd" stroke-width="1"></path>
  <path fill="#000000" fill-rule="evenodd" d="M23.9939 3.00482c0.0059 -0.52334 -0.1553 -1.03491 -0.4601 -1.46039 -0.2749 -0.28666 -0.6196 -0.49693 -1.0003 -0.610162 -0.708 -0.192013 -1.4306 -0.325828 -2.1605 -0.400107L17.8723 0.134053c-0.5571 -0.1046222 -1.1239 -0.1482246 -1.6905 -0.13003455 -0.4174 0.01322835 -0.8256 0.12642655 -1.1903 0.33008855 -0.2515 0.16553 -0.4524 0.397497 -0.5801 0.670183 -0.139 0.31895 -0.2332 0.65555 -0.2801 1.00027L12.991 8.40628c-0.0149 0.07683 0.0008 0.15643 0.0438 0.22183 0.043 0.0654 0.1098 0.11143 0.1862 0.12826 0.0382 0.00875 0.0777 0.00969 0.1162 0.00276 0.0386 -0.00693 0.0753 -0.02158 0.108 -0.04308 0.0327 -0.02149 0.0607 -0.04938 0.0824 -0.08199 0.0216 -0.03261 0.0364 -0.06926 0.0435 -0.10775l1.4204 -6.3217c0.0473 -0.23092 0.1108 -0.45822 0.1901 -0.68018 0.0586 -0.14627 0.1596 -0.27168 0.29 -0.3601 0.163 -0.08265 0.3389 -0.13678 0.5202 -0.16004 -0.0712 0.3829 -0.1113 0.77094 -0.12 1.16031 0.0002 0.29304 0.0723 0.58156 0.21 0.84022 0.102 0.15878 0.2388 0.2922 0.4001 0.39011 0.2728 0.15877 0.5611 0.28947 0.8602 0.3901 0.7212 0.23202 1.466 0.38299 2.2206 0.45013 0.5794 0.09254 1.1729 0.03043 1.7205 -0.18005 0.3062 -0.22571 0.5505 -0.52503 0.7102 -0.87024 0.1699 -0.33965 0.3073 -0.69467 0.4101 -1.06028 0.0721 0.0334 0.1368 0.08103 0.1901 0.14004 0.1884 0.33748 0.2555 0.72935 0.19 1.11029 -0.0373 0.75063 -0.1377 1.49679 -0.3001 2.2306l-0.8302 5.00138c-0.13 0.7402 -0.2501 1.5104 -0.4001 2.2706 -0.1 0.5001 -0.2201 1.0002 -0.3601 1.4804 -0.034 0.1334 -0.0975 0.2574 -0.1857 0.363 -0.0883 0.1056 -0.1992 0.1901 -0.3244 0.2471 -0.5016 0.1323 -1.0289 0.1323 -1.5304 0 -0.09 -0.0115 -0.1809 0.0122 -0.2537 0.0663 -0.0727 0.0541 -0.1216 0.1344 -0.1365 0.2238 -0.0113 0.0888 0.0127 0.1785 0.067 0.2497 0.0543 0.0711 0.1345 0.118 0.2231 0.1304 0.624 0.1555 1.2766 0.1555 1.9005 0 0.2384 -0.0856 0.4532 -0.2262 0.627 -0.4105 0.1738 -0.1842 0.3017 -0.4068 0.3733 -0.6498 0.16 -0.5001 0.3001 -1.0002 0.4301 -1.5304 0.1901 -0.7602 0.3401 -1.5404 0.4902 -2.2906l1.0002 -4.93132c0.2457 -0.92145 0.3867 -1.86769 0.4201 -2.82076Zm-2.5406 -0.4001c-0.1313 0.26198 -0.3276 0.48586 -0.5702 0.65017 -0.0729 0.01112 -0.1471 0.01112 -0.2201 0 -0.25 0 -0.5701 -0.05001 -0.9202 -0.09002 -0.6758 -0.08388 -1.3445 -0.21761 -2.0005 -0.40011 -0.1601 0 -0.3601 -0.07002 -0.5502 -0.13003 -0.1098 -0.02202 -0.2127 -0.07004 -0.3001 -0.14004 -0.1077 -0.1667 -0.1634 -0.36169 -0.16 -0.56015V1.0443c0.3366 0.02583 0.6709 0.07598 1.0003 0.15004l2.4606 0.44012c0.4401 0.07002 1.0703 0.15004 1.6405 0.29007 -0.1247 0.22731 -0.2616 0.4477 -0.4102 0.66018l0.0301 0.02001Z" clip-rule="evenodd" stroke-width="1"></path>
  <path fill="#000000" fill-rule="evenodd" d="m13.8712 14.0078 -0.5701 -0.4501c0.09 -0.1401 0.19 -0.2701 0.28 -0.4001 0.7302 -1.0903 1.3304 -2.0006 1.5905 -2.3807 0.0597 -0.0676 0.09 -0.1562 0.0844 -0.2463 -0.0056 -0.09 -0.0468 -0.1741 -0.1144 -0.2338 -0.0677 -0.0597 -0.1563 -0.0901 -0.2463 -0.0844 -0.0901 0.0056 -0.1742 0.0468 -0.2339 0.1144 -0.3101 0.3201 -1.0903 1.1603 -1.9405 2.1806l-0.3001 0.3901c-0.1 -0.07 -0.19 -0.15 -0.2901 -0.2101 -1.0017 -0.72 -2.04 -1.3878 -3.11079 -2.0005 -0.06655 -0.0416 -0.14676 -0.0555 -0.22342 -0.0387 -0.07666 0.0169 -0.14368 0.0631 -0.18669 0.1287 -0.02194 0.0326 -0.03705 0.0692 -0.0444 0.1078 -0.00736 0.0386 -0.00681 0.0782 0.0016 0.1166 0.00842 0.0383 0.02453 0.0745 0.04736 0.1065 0.02283 0.0319 0.05191 0.0589 0.08547 0.0792 0.36009 0.2701 1.27034 1.1403 2.40067 2.0806 0.2 0.17 0.4201 0.3401 0.6401 0.5001 -0.17 0.2401 -0.3501 0.4702 -0.5001 0.7102 -0.6502 1.0003 -1.1703 1.9205 -1.49039 2.4907 -0.02287 0.0313 -0.03923 0.0669 -0.0481 0.1047 -0.00887 0.0377 -0.01008 0.0769 -0.00355 0.1151 0.00653 0.0383 0.02066 0.0748 0.04156 0.1075 0.0209 0.0327 0.04814 0.0608 0.08011 0.0828 0.03213 0.0231 0.06852 0.0397 0.10707 0.0487 0.03855 0.009 0.0785 0.0103 0.1176 0.0037 0.039 -0.0065 0.0764 -0.0206 0.1099 -0.0417 0.0336 -0.021 0.0626 -0.0484 0.0855 -0.0807 0.4101 -0.5002 1.1303 -1.2804 1.8805 -2.1906l0.5202 -0.6802 0.6702 0.4701c0.8924 0.6092 1.8211 1.1637 2.7807 1.6605 0.0379 0.0231 0.08 0.0384 0.124 0.0449 0.0439 0.0065 0.0886 0.0041 0.1316 -0.0071 0.043 -0.0112 0.0832 -0.031 0.1184 -0.0581 0.0351 -0.0271 0.0644 -0.061 0.0861 -0.0997 0.0446 -0.0787 0.057 -0.1716 0.0347 -0.2593 -0.0224 -0.0876 -0.0778 -0.1632 -0.1547 -0.2109 -0.5902 -0.3701 -1.5204 -1.1603 -2.5607 -1.9705Z" clip-rule="evenodd" stroke-width="1"></path>
</svg>