<svg xmlns="http://www.w3.org/2000/svg" fill="none" viewBox="0 0 24 24" id="Gps-Location-Rectangle--Streamline-Freehand">
  <desc>
    Gps Location Rectangle Streamline Icon: https://streamlinehq.com
  </desc>
  <path fill="#000000" fill-rule="evenodd" d="M23.7979 4.8559c-0.06 -3.295 -0.208 -4.956999 -6.839 -4.707999 -0.559 0.022 -12.00596 -0.2329995 -13.12396 -0.1179995C0.0999405 0.409901 0.29494 3.0329 0.24494 6.4399c-0.2559997 13.686 -0.1 14.791 0.988 15.952 1.5581 1.2037 3.51781 1.7655 5.477 1.57 19.71296 -1.041 17.15196 4.085 16.92396 -17.857 -0.0015 -0.101 -0.0424 -0.19741 -0.1139 -0.26875 -0.0715 -0.07133 -0.1681 -0.11196 -0.2691 -0.11325 -0.769 0 -0.23 1.01 -0.343 9.323 -0.13 10.454 0.143 6.813 -16.25696 7.585 -1.56619 0.1439 -3.13328 -0.2655 -4.429 -1.157 -0.73 -0.784 -0.63 -2.415 -0.643 -3.464 -0.036 -17.009999 -1.47 -16.747 4.936 -16.803C23.0699 1.0529 22.4799 0.693901 22.9249 3.6199c0.142 1.082 -0.03 1.646 0.514 1.633 0.0994 -0.00741 0.1921 -0.05277 0.259 -0.12668 0.0668 -0.07391 0.1026 -0.17071 0.1 -0.27032Z" clip-rule="evenodd" stroke-width="1"></path>
  <path fill="#000000" fill-rule="evenodd" d="M9.28593 15.0999c0.22 1.579 0.74297 3.1 1.53897 4.482 1.63 1.713 4.103 0.303 5.17 -1.746 1.1937 -2.5798 2.2522 -5.22 3.171 -7.90999 0.708 -1.832 1.282 -3.334 -0.177 -4.76 -1.156 -1.256 -3.508 -0.256 -5.072 0.282 -2.025 0.698 -7.36397 2.385 -8.66397 3.877 -2.526 2.89799 0.395 4.56499 4.033 5.77499Zm0.685 -1.205c-0.91 -0.257 -3.898 -1.377 -4.318 -2.308 -0.964 -1.99799 9.96497 -5.90999 11.28297 -6.14099 1.317 -0.231 1.238 0.256 1.494 0.256 1.103 1.19 0.513 2.323 -0.169 3.846 -1.01 2.28799 -1.995 5.12899 -3.4 7.69299 -0.62 1.144 -2.164 2.392 -3.077 1.418 -0.6213 -1.3157 -1.0323 -2.7208 -1.218 -4.164 -0.0164 -0.1527 -0.0842 -0.2952 -0.1924 -0.4042 -0.1081 -0.109 -0.25 -0.1781 -0.40257 -0.1958Z" clip-rule="evenodd" stroke-width="1"></path>
</svg>