<svg xmlns="http://www.w3.org/2000/svg" fill="none" viewBox="0 0 24 24" id="Mobilephone-Action-Navigation-Map--Streamline-Freehand">
  <desc>
    Mobilephone Action Navigation Map Streamline Icon: https://streamlinehq.com
  </desc>
  <path fill="#000000" fill-rule="evenodd" d="M9.02064 20.3079H6.38199c-0.50974 0 -1.42927 0 -2.22886 -0.0799 -0.40214 -0.0153 -0.79254 -0.1397 -1.12942 -0.3599 -0.29209 -0.4025 -0.45897 -0.8823 -0.47976 -1.3793 -0.07327 -0.8479 -0.07327 -1.7007 0 -2.5486 0.07996 -1.4793 0.29985 -4.6876 0.46976 -7.5262 0.12994 -2.29882 0.22989 -4.34777 0.23988 -5.04741 -0.00363 -0.33534 0.02651 -0.67019 0.08996 -0.99949 0.03242 -0.23789 0.14114 -0.45884 0.30984 -0.62968 0.2955 -0.2166 0.63794 -0.36043 0.99949 -0.41978 0.06996 0.46976 0.25986 1.26935 0.42978 1.90902 0.05395 0.37337 0.16168 0.73695 0.31983 1.07945 0.37469 0.20128 0.77987 0.33971 1.19939 0.40979 0.80958 0.16991 1.88903 0.31983 2.40876 0.3798 0.66533 0.05173 1.33366 0.05173 1.99896 0 0.4774 -0.02587 0.9487 -0.12011 1.3993 -0.27985 0.3335 -0.18137 0.5998 -0.46521 0.7596 -0.80959 0.4012 -0.90714 0.7353 -1.84251 0.9995 -2.79857 0.324 0.13127 0.5948 0.36695 0.7696 0.66966 0.1234 0.21337 0.2271 0.43751 0.3099 0.66966 0.0896 0.23286 0.1566 0.47386 0.1999 0.71963 0.138 0.9434 0.2115 1.89513 0.2198 2.84854 0 1.54921 0 3.18837 -0.0899 4.35782 -0.0086 0.0501 -0.0061 0.1016 0.0073 0.1508 0.0133 0.0491 0.0373 0.0947 0.0701 0.1336 0.0329 0.039 0.0738 0.0703 0.12 0.0917 0.0462 0.0215 0.0965 0.0326 0.1474 0.0326s0.1012 -0.0111 0.1474 -0.0326c0.0462 -0.0214 0.0872 -0.0527 0.12 -0.0917 0.0328 -0.0389 0.0568 -0.0845 0.0701 -0.1336 0.0134 -0.0492 0.0159 -0.1007 0.0073 -0.1508 0.11 -1.17945 0.1899 -2.8386 0.1899 -4.41779 0.0101 -1.00186 -0.0433 -2.00335 -0.1599 -2.99846 -0.0462 -0.29835 -0.1164 -0.59249 -0.2099 -0.87955 -0.1008 -0.28599 -0.2245 -0.56341 -0.3698 -0.82958 -0.2262 -0.42525 -0.5742 -0.773277 -0.9995 -0.999488 -0.6135 -0.237658 -1.2745 -0.3267082 -1.929 -0.2598672L6.77179 0.00830576C5.98828 -0.0229443 5.20375 0.0340518 4.43299 0.178219 3.85218 0.27601 3.30357 0.512597 2.83381 0.867866c-0.30536 0.264324 -0.52756 0.611494 -0.63968 0.999484 -0.12404 0.47959 -0.18122 0.97401 -0.16991 1.46925l-0.48975 12.5636c-0.0531 1.0611 0.02071 2.1247 0.21989 3.1684 0.09211 0.5136 0.33174 0.9894 0.68965 1.3693 0.37014 0.2706 0.8114 0.4269 1.26935 0.4497 0.89222 0.0481 1.7864 0.0481 2.67863 0h2.62865c0.04465 0.0081 0.09054 0.0063 0.13442 -0.0052 0.04389 -0.0116 0.08469 -0.0327 0.11954 -0.0617 0.03484 -0.0291 0.06287 -0.0655 0.0821 -0.1066 0.01924 -0.0411 0.02921 -0.0859 0.02921 -0.1313 0 -0.0454 -0.00997 -0.0902 -0.02921 -0.1313 -0.01923 -0.0411 -0.04726 -0.0775 -0.0821 -0.1066 -0.03485 -0.0291 -0.07565 -0.0502 -0.11954 -0.0617 -0.04388 -0.0116 -0.08977 -0.0134 -0.13442 -0.0053v0.03ZM6.74181 1.12773l6.04689 -0.06996h0.6797c-0.16 0.42978 -0.4598 1.15941 -0.7696 1.80907 -0.4898 0.99949 -0.1899 1.10944 -1.7392 1.14941 -0.6107 0.01195 -1.22163 -0.01475 -1.82902 -0.07995l-3.10841 -0.33983c-0.21891 -0.47922 -0.41241 -0.96965 -0.5797 -1.46925 -0.10849 -0.29829 -0.2019 -0.60185 -0.27986 -0.90953 0.52361 -0.06729 1.05133 -0.09735 1.5792 -0.08996Z" clip-rule="evenodd" stroke-width="1"></path>
  <path fill="#000000" fill-rule="evenodd" d="M22.014 11.8522c-0.4557 -0.2646 -0.9913 -0.3568 -1.5092 -0.2598 -0.8797 0.1079 -1.7489 0.2884 -2.5987 0.5397 -1.1564 0.357 -2.2911 0.7808 -3.3983 1.2693 -1.1149 0.4959 -2.1794 1.0984 -3.1784 1.7991 -0.5802 0.4111 -1.0757 0.9304 -1.4592 1.5292 -0.11047 0.1659 -0.18065 0.3554 -0.20494 0.5532 -0.0243 0.1978 -0.00204 0.3986 0.06501 0.5863 0.11195 0.2654 0.30423 0.489 0.54973 0.6396 0.307 0.189 0.6456 0.321 0.9995 0.3898l2.5087 0.5797v0.12c0 0.4198 -0.06 1.1394 -0.06 1.7591 -0.0148 0.4247 0.012 0.8498 0.08 1.2693 0.0673 0.3364 0.2321 0.6456 0.4738 0.8891 0.2416 0.2434 0.5496 0.4104 0.8855 0.4802 0.4713 0.023 0.9422 -0.0542 1.3815 -0.2264 0.4393 -0.1723 0.8371 -0.4358 1.1672 -0.7731 0.7873 -0.7921 1.4601 -1.6903 1.999 -2.6686 0.8044 -1.4304 1.5122 -2.9129 2.1189 -4.4377 0.3684 -0.8275 0.5851 -1.7145 0.6396 -2.6187 0.0244 -0.2554 -0.0039 -0.5131 -0.0829 -0.7572 -0.0791 -0.2441 -0.2073 -0.4694 -0.3768 -0.6621Zm-0.6397 1.6992c-0.0866 0.6471 -0.2615 1.2793 -0.5197 1.879 -0.5606 1.4941 -1.2115 2.9527 -1.949 4.3678 -0.4766 0.9185 -1.0787 1.7663 -1.7891 2.5187 -0.3998 0.4296 -0.9241 0.7232 -1.4992 0.8396 -0.2477 0.0336 -0.499 -0.0267 -0.7044 -0.1692 -0.2053 -0.1424 -0.3499 -0.3567 -0.4051 -0.6005 -0.0501 -0.3308 -0.0768 -0.6648 -0.0799 -0.9994v-1.6992c0.0048 -0.0603 -0.0065 -0.1208 -0.0329 -0.1753 -0.0263 -0.0544 -0.0667 -0.1009 -0.1171 -0.1345 0.0184 -0.0781 0.0058 -0.1603 -0.0353 -0.2293 -0.041 -0.069 -0.1071 -0.1194 -0.1845 -0.1405l-2.6387 -0.7097c-0.2269 -0.0534 -0.4454 -0.1374 -0.6497 -0.2498 -0.1629 -0.0825 -0.2906 -0.2209 -0.3598 -0.3898 -0.0799 -0.1999 0.08 -0.4198 0.2599 -0.6397 0.3197 -0.3923 0.7011 -0.7299 1.1294 -0.9995 0.9769 -0.6262 2.011 -1.1583 3.0884 -1.5892 1.0845 -0.4374 2.1922 -0.8144 3.3183 -1.1294 0.5593 -0.1567 1.1264 -0.2835 1.6992 -0.3798 1.0494 -0.2599 1.5592 -0.6397 1.4392 0.6297h0.03Z" clip-rule="evenodd" stroke-width="1"></path>
</svg>