<svg xmlns="http://www.w3.org/2000/svg" fill="none" viewBox="0 0 24 24" id="Mobile-Phone-Smartphone--Streamline-Freehand">
  <desc>
    Mobile Phone Smartphone Streamline Icon: https://streamlinehq.com
  </desc>
  <path fill="#000000" d="M7.25758 16.4937c0.32955 0.0808 0.67374 0.0808 1.0033 0 0.37048 -0.0821 0.6985 -0.296 0.92303 -0.602 0.13659 -0.2087 0.2199 -0.4477 0.24264 -0.6961 0.02274 -0.2483 -0.01579 -0.4985 -0.11221 -0.7285 -0.14247 -0.3563 -0.40495 -0.6515 -0.74204 -0.8347 -0.3371 -0.1832 -0.72762 -0.2429 -1.10403 -0.1686 -0.27023 0.0399 -0.52392 0.1546 -0.7324 0.3311 -0.20226 0.1737 -0.36177 0.3917 -0.46616 0.637 -0.1044 0.2453 -0.15087 0.5114 -0.13582 0.7776 0.02197 0.3072 0.1436 0.5988 0.34641 0.8306s0.47572 0.3911 0.77728 0.4536Zm0.14046 -2.0668c0.09304 -0.1219 0.22342 -0.21 0.37122 -0.2508 0.17818 -0.0259 0.35937 0.0197 0.50408 0.1268 0.14471 0.1071 0.24121 0.2671 0.26846 0.4451 0.02446 0.0925 0.02534 0.1896 0.00256 0.2825 -0.02279 0.0929 -0.06851 0.1786 -0.13299 0.2492 -0.1042 0.0782 -0.23094 0.1204 -0.36119 0.1204 -0.15495 0.0375 -0.31659 0.0375 -0.47155 0 -0.09735 -0.0188 -0.18493 -0.0714 -0.24732 -0.1485 -0.0624 -0.0771 -0.09561 -0.1737 -0.0938 -0.2729 -0.00657 -0.1963 0.04967 -0.3896 0.16053 -0.5518Z" stroke-width="1"></path>
  <path fill="#000000" d="m11.5818 4.98594 1.6053 -0.71234c0.7524 -0.35115 1.525 -0.68224 2.2875 -1.0033 0.4816 -0.68224 0.2709 -1.00329 -1.1638 -0.53174 -0.5218 0.17056 -1.0033 0.35115 -1.5451 0.54178 -0.5418 0.19062 -1.1036 0.43141 -1.6454 0.66217 -0.5418 0.23076 -1.0836 0.48158 -1.61534 0.75247l-0.37122 0.2107c-1.86613 1.24409 -1.8561 1.60527 -0.81267 1.48488l1.69553 -0.73241 1.5652 -0.67221Z" stroke-width="1"></path>
  <path fill="#000000" d="M22.0562 6.38051c-0.1135 -0.84289 -0.3084 -1.67281 -0.5819 -2.47814 -0.1541 -0.28005 -0.3429 -0.5396 -0.5618 -0.77254 -0.2928 -0.26312 -0.6334 -0.46749 -1.0033 -0.60198l-2.8093 -1.09359c-0.5919 -0.22073 -1.1638 -0.461518 -1.7457 -0.612012 -0.5819 -0.150495 -1.1638 -0.361187 -1.7558 -0.521715 -0.3511 -0.090297 -0.7023 -0.2106923 -1.0735 -0.2708901 -0.2795 -0.03952387 -0.5632 -0.03952387 -0.8428 0 -0.4661 0.0678238 -0.9058 0.2582561 -1.2742 0.5518131 -0.47586 0.35469 -0.90707 0.765684 -1.28418 1.224024 -0.67221 0.83274 -1.30429 1.7056 -1.89624 2.60857 -0.59194 0.90297 -1.15379 1.826 -1.66547 2.75907 -0.7926 1.44475 -1.69557 3.00988 -2.39788 4.61518 -0.41135 0.9331 -1.17386 3.1303 -1.17386 3.1604 0 0.6922 -0.15049 1.6153 -0.13043 2.4781 -0.00358 0.6019 0.12306 1.1974 0.37122 1.7458 0.24387 0.4492 0.587 0.837 1.0033 1.1337 0.56491 0.3924 1.15475 0.7477 1.7658 1.0635 1.06251 0.6237 2.16142 1.1832 3.29082 1.6755 0.77047 0.3396 1.57405 0.5985 2.39792 0.7725 0.5585 0.1324 1.1317 0.193 1.7056 0.1806 0.4232 -0.0153 0.8392 -0.1142 1.224 -0.2909 0.8101 -0.3943 1.5227 -0.9631 2.0868 -1.6655 0.7384 -1.0008 1.4087 -2.0499 2.0066 -3.1403 0.6923 -1.1538 1.3244 -2.3076 1.8862 -3.4915 0.566 -1.1946 1.0716 -2.4168 1.515 -3.662 0.2107 -0.592 0.5217 -1.2341 0.7224 -1.86618 0.0992 -0.28728 0.1731 -0.58271 0.2207 -0.8829 0.1144 -0.86912 0.1144 -1.74949 0 -2.61861ZM6.27435 7.57444c0.10033 -0.17056 3.00989 -4.40448 3.61187 -5.13688 0.33288 -0.40256 0.71358 -0.76306 1.13368 -1.07353 0.2207 -0.1754 0.4837 -0.28959 0.7626 -0.33109 0.1853 -0.00888 0.371 0.00801 0.5518 0.05016 0.3311 0.07024 7.1133 2.50825 7.1133 2.50825 0.2048 0.07786 0.4001 0.17885 0.582 0.30099 0.0502 0.03626 0.0922 0.0827 0.1234 0.13628 0.0311 0.05359 0.0506 0.11313 0.0571 0.17474 0.0431 0.88333 -0.1147 1.76492 -0.4615 2.57847l-0.2709 0.63208c-0.3511 0.81267 -0.7123 1.62534 -1.0936 2.42798 -0.3812 0.80261 -0.7825 1.59521 -1.2139 2.35771 -0.6422 1.1338 -1.2642 2.2675 -1.9163 3.3912 -0.0404 0.0579 -0.0773 0.1182 -0.1104 0.1806 -0.8764 -0.6874 -1.8057 -1.3047 -2.7791 -1.8461 -0.5518 -0.321 -1.1137 -0.622 -1.6856 -0.8929 -0.5719 -0.2709 -1.09357 -0.5117 -1.66545 -0.7525l-3.16038 -1.2742c-0.45701 -0.1338 -0.92309 -0.2343 -1.39459 -0.301 0.59195 -1.05344 1.23406 -2.12697 1.81597 -3.13026ZM3.78617 12.0692c0.1204 -0.2508 0.25083 -0.5016 0.38126 -0.7525 0.60275 0.1342 1.18839 0.3362 1.74573 0.602 0.89294 0.4013 1.74574 0.913 2.55841 1.3444 0.81267 0.4314 1.54513 0.7525 2.38783 1.1237 0.8428 0.3712 1.5852 0.7023 2.3477 1.1037 0.53 0.2782 1.0457 0.5829 1.5451 0.913 -0.2809 0.4615 -0.5719 0.913 -0.8729 1.3644 -0.2801 0.4688 -0.5919 0.918 -0.933 1.3445 -0.1867 0.2296 -0.4332 0.4033 -0.7124 0.5016 -0.1262 0.0203 -0.2549 0.0203 -0.3812 0 -0.2502 -0.0312 -0.4982 -0.0781 -0.7425 -0.1405 -0.4615 -0.1003 -0.9029 -0.2107 -1.33434 -0.3411 -0.43579 -0.1296 -0.86164 -0.2905 -1.27419 -0.4816 -0.42138 -0.2006 -0.84277 -0.4213 -1.25412 -0.6521 -0.41135 -0.2308 -0.81267 -0.4916 -1.19392 -0.7525 -0.67221 -0.4615 -1.52502 -0.9029 -2.25742 -1.4347 -0.33932 -0.284 -0.69438 -0.5486 -1.0635 -0.7926 0.24912 -1.0167 0.60213 -2.0052 1.05346 -2.9497ZM21.2636 8.83859c-0.0589 0.34431 -0.1565 0.68087 -0.2909 1.0033 -0.2107 0.54181 -0.4816 1.07351 -0.6723 1.57521 -0.4815 1.214 -1.0033 2.3778 -1.5952 3.5215 -0.5919 1.1438 -1.214 2.2474 -1.9163 3.3511 -0.6035 1.0453 -1.2738 2.0507 -2.0066 3.0098 -0.4427 0.5835 -1.0077 1.0629 -1.6554 1.4047 -0.3134 0.1486 -0.6565 0.2241 -1.0033 0.2207 -0.4077 -0.0217 -0.8134 -0.072 -1.214 -0.1505 -0.7583 -0.1366 -1.50101 -0.3483 -2.2173 -0.6321 -1.10201 -0.4534 -2.17728 -0.9693 -3.22059 -1.5451 -0.59647 -0.27 -1.17313 -0.5818 -1.72567 -0.933 -0.32863 -0.2147 -0.60606 -0.499 -0.81267 -0.8328 -0.21405 -0.4451 -0.33036 -0.9309 -0.34112 -1.4247 -0.03028 -0.558 -0.03028 -1.1174 0 -1.6755 0.23845 0.2512 0.49681 0.4827 0.77254 0.6923 0.72237 0.5418 1.57518 1.0033 2.23735 1.4849 0.40132 0.2809 0.81267 0.5518 1.23406 0.8127 0.43142 0.2508 0.86283 0.4916 1.30428 0.7123 0.44136 0.2157 0.89731 0.4 1.36449 0.5518 0.46145 0.1508 0.93023 0.278 1.40463 0.3813 0.2805 0.0766 0.5653 0.1369 0.8528 0.1806 0.2386 0.0237 0.4794 0.0067 0.7123 -0.0502 0.4423 -0.1376 0.8381 -0.3945 1.1438 -0.7424 0.3686 -0.4499 0.7039 -0.9261 1.0033 -1.4247 0.5117 -0.7224 1.0033 -1.4548 1.4447 -2.2073 0.6823 -1.1036 1.3244 -2.2373 2.0066 -3.3711 0.3612 -0.622 0.7124 -1.2641 1.0033 -1.9162 0.4916 -1.00334 0.9431 -2.00664 1.3745 -2.94974 0.2717 -0.59579 0.503 -1.20919 0.6923 -1.83603 0 0.14046 0 0.28092 0.0702 0.43141 0.1216 0.78018 0.1385 1.57311 0.0502 2.35775Z" stroke-width="1"></path>
  <path fill="#000000" d="M11.5918 7.99583c-0.5417 0.26086 -1.0735 0.53175 -1.59521 0.81267 -0.98323 0.53175 -1.98653 1.10363 -2.8895 1.7056 -0.53174 0.5518 -0.54178 0.8327 0.90297 0.3411 0.27089 -0.1304 0.53175 -0.2809 0.81267 -0.4113 0.93307 -0.4314 1.88617 -0.8127 2.82927 -1.21402 0.9431 -0.40132 1.8963 -0.8227 2.8494 -1.23405 1.214 -0.56185 2.438 -1.13373 3.6721 -1.66547 0.2809 -0.1204 0.5718 -0.22073 0.8528 -0.33109 1.2039 -0.74244 0.7524 -1.1237 0 -0.85281 -0.3913 0.1204 -0.7926 0.22073 -1.1839 0.36119 -1.2642 0.48158 -2.5283 0.96317 -3.8126 1.48488 -0.7926 0.30099 -1.6253 0.64211 -2.438 1.0033Z" stroke-width="1"></path>
</svg>