<svg xmlns="http://www.w3.org/2000/svg" fill="none" viewBox="0 0 24 24" id="Qr-Code-Scan-1--Streamline-Freehand">
  <desc>
    Qr Code Scan 1 Streamline Icon: https://streamlinehq.com
  </desc>
  <path fill="#000000" fill-rule="evenodd" d="M0.697188 7.77278c0.041021 0.00139 0.081892 -0.00566 0.120074 -0.02073 0.038182 -0.01506 0.07286 -0.03781 0.101884 -0.06683 0.029024 -0.02902 0.051772 -0.0637 0.066834 -0.10189 0.01506 -0.03818 0.02212 -0.07905 0.02072 -0.12007l0.1298 -4.85243c0 -1.10827 -0.589079 -1.3479 1.64743 -1.43776 0.99845 -0.06989 1.99689 -0.10983 2.99533 -0.179719 0.60905 0 1.26802 -0.109829 1.93698 -0.199689 0.08584 -0.012388 0.16334 -0.058123 0.21567 -0.127282 0.05234 -0.069159 0.0753 -0.156164 0.0639 -0.242142 -0.0037 -0.044274 -0.0163 -0.087344 -0.03707 -0.12662 -0.02077 -0.039276 -0.04926 -0.073947 -0.08377 -0.101927C7.84046 0.16771 7.80065 0.146998 7.75793 0.134799 7.71521 0.1226 7.67046 0.119167 7.62638 0.124705H6.16865C5.00048 0.154659 3.8922 0.0947521 2.744 0.0747833 2.19528 0.0421962 1.64467 0.0824848 1.10655 0.194596 0.800527 0.28147 0.524233 0.4507 0.307795 0.683833 0.180363 0.849807 0.0978357 1.04581 0.0681686 1.25295c-0.06120725 0.45656 -0.0812568 0.9177 -0.05990662 1.37785L0.38767 7.47325c0.002593 0.08034 0.036344 0.15653 0.094112 0.21243 0.057767 0.0559 0.135017 0.08714 0.215406 0.0871Z" clip-rule="evenodd" stroke-width="1"></path>
  <path fill="#000000" fill-rule="evenodd" d="M16.6523 1.06322c0.3295 0 0.6989 0 1.0783 -0.04992h1.6375c0.4792 0 1.3279 0.0599 2.0967 0.12979 0.3987 0.00916 0.7933 0.08335 1.1682 0.21966 0.0998 0.05991 0.0898 0.20967 0.0998 0.34946 0.023 0.28576 0.023 0.5729 0 0.85866l0.2396 4.41312c-0.0026 0.04409 0.0035 0.08827 0.0183 0.12992 0.0147 0.04164 0.0376 0.0799 0.0674 0.1125 0.0299 0.03261 0.0659 0.05888 0.1061 0.07727 0.0401 0.01838 0.0836 0.0285 0.1277 0.02976 0.0463 0.00138 0.0924 -0.00671 0.1354 -0.02378 0.043 -0.01708 0.0821 -0.04277 0.1148 -0.0755 0.0328 -0.03273 0.0584 -0.0718 0.0755 -0.11483 0.0171 -0.04302 0.0252 -0.08908 0.0238 -0.13534l0.1997 -4.38317c0.0542 -0.48986 0.0307 -0.98522 -0.0699 -1.46771 -0.0926 -0.321626 -0.3077 -0.594081 -0.5991 -0.758817 -0.5163 -0.213233 -1.0688 -0.3250961 -1.6274 -0.3294866 -0.7365 -0.0143367 -1.4731 0.0123297 -2.2066 0.0798756l-2.7557 0.33947c-0.0395 0.004908 -0.0776 0.01763 -0.1121 0.037426 -0.0345 0.019795 -0.0647 0.046266 -0.0889 0.077869 -0.0241 0.031602 -0.0418 0.067702 -0.0518 0.106191 -0.0101 0.03849 -0.0124 0.078599 -0.0068 0.117985 0.01 0.077793 0.0501 0.14856 0.1117 0.197097 0.0616 0.04854 0.1398 0.07098 0.2178 0.0625Z" clip-rule="evenodd" stroke-width="1"></path>
  <path fill="#000000" fill-rule="evenodd" d="M7.47661 22.7594H4.23167c-0.66485 0.0456 -1.33204 0.0456 -1.99689 0 -1.258035 -0.1198 -1.12824 -0.2796 -1.11825 -0.9984 0 -0.3795 0 -0.9186 -0.08986 -1.5077 -0.089863 -1.1881 -0.269583 -2.6259 -0.329489 -3.3947 0.000022 -0.0402 -0.008044 -0.08 -0.023717 -0.117 -0.015674 -0.037 -0.038634 -0.0705 -0.067515 -0.0984 -0.02888 -0.028 -0.063089 -0.0498 -0.100591 -0.0643 -0.037501 -0.0144 -0.077527 -0.0212 -0.117695 -0.0198 -0.078579 0.005 -0.152269 0.0399 -0.206063 0.0974 -0.053795 0.0575 -0.0836492 0.1333 -0.0834851 0.2121L0.008255 21.751c0.0034411 0.3676 0.0537694 0.7333 0.149766 1.0883 0.062243 0.2523 0.206166 0.477 0.409362 0.639 0.487287 0.3 1.045417 0.4653 1.617477 0.4792 0.7185 0.0109 1.43663 -0.0392 2.14665 -0.1497l3.205 -0.3195c0.09004 -0.008 0.17323 -0.0514 0.23127 -0.1206 0.05805 -0.0693 0.0862 -0.1588 0.07825 -0.2489 -0.00794 -0.09 -0.05133 -0.1732 -0.12061 -0.2312 -0.06928 -0.0581 -0.15878 -0.0862 -0.24881 -0.0783v-0.0499Z" clip-rule="evenodd" stroke-width="1"></path>
  <path fill="#000000" fill-rule="evenodd" d="m23.9709 19.7241 -0.3595 -3.5544c0 -0.0795 -0.0315 -0.1557 -0.0877 -0.2119 -0.0562 -0.0561 -0.1323 -0.0877 -0.2118 -0.0877 -0.0794 0 -0.1556 0.0316 -0.2118 0.0877 -0.0562 0.0562 -0.0877 0.1324 -0.0877 0.2119v3.5344c0 0.3295 -0.0799 1.0784 -0.1698 1.7473 -0.0107 0.3227 -0.0679 0.6421 -0.1697 0.9485 -0.0499 0.0899 -0.1997 0.0899 -0.3395 0.1198 -0.1397 0.03 -0.5791 0.0999 -0.7787 0.1298 -0.4726 0.0799 -0.9493 0.1333 -1.4278 0.1598 -1.268 0.0799 -2.7957 0.1098 -3.5445 0.1697 -0.0909 0.0052 -0.1762 0.0457 -0.2378 0.1128 -0.0615 0.0671 -0.0944 0.1556 -0.0917 0.2467 0.0026 0.0446 0.0139 0.0882 0.0334 0.1285 0.0194 0.0402 0.0466 0.0762 0.08 0.1058 0.0334 0.0297 0.0723 0.0525 0.1145 0.0671 0.0423 0.0146 0.087 0.0208 0.1316 0.0181 0.7488 0 2.2664 0.1098 3.5344 0.1398 0.5297 0.0171 1.06 0.0004 1.5876 -0.05 0.4178 -0.0234 0.8324 -0.087 1.238 -0.1897 0.2788 -0.0961 0.5177 -0.2823 0.679 -0.5291 0.1898 -0.4499 0.298 -0.93 0.3195 -1.4178 0.0388 -0.6285 0.0388 -1.2587 0 -1.8871Z" clip-rule="evenodd" stroke-width="1"></path>
  <path fill="#000000" fill-rule="evenodd" d="m16.183 10.5584 1.7273 -0.2396c0.2477 0.0033 0.495 -0.0168 0.7389 -0.0599 0.1202 -0.0386 0.232 -0.0996 0.3295 -0.1798 0.2059 -0.1898 0.3575 -0.43103 0.4393 -0.69886 0.1101 -0.43499 0.177 -0.87979 0.1997 -1.32793 0.2063 -0.78289 0.2302 -1.60268 0.0699 -2.39627 -0.0935 -0.21438 -0.2411 -0.40075 -0.4285 -0.54079 -0.1873 -0.14005 -0.4078 -0.22894 -0.6399 -0.25796l-0.7887 -0.09984h-1.2481c-0.4892 0 -1.0683 0 -1.6374 0.08986 -0.3351 0.0337 -0.6683 0.08368 -0.9985 0.14976 -0.0341 -0.05048 -0.0833 -0.08891 -0.1405 -0.10982 -0.0572 -0.02091 -0.1196 -0.02323 -0.1782 -0.00664s-0.1105 0.05126 -0.1483 0.09906c-0.0378 0.0478 -0.0595 0.1063 -0.0621 0.16717 -0.0799 0.55913 -0.1398 1.11825 -0.1798 1.68737 -0.0399 0.56911 -0.1298 1.14821 -0.1497 1.67738 0 0.16974 -0.0899 0.54915 -0.0999 0.85866 -0.0117 0.19398 0.019 0.38819 0.0899 0.56911 0.1045 0.18014 0.2488 0.33404 0.4218 0.45004 0.173 0.1159 0.3703 0.1908 0.5766 0.2189 0.701 0.0855 1.4106 0.0687 2.1067 -0.0499Zm-2.2664 -1.04837v-3.844c0.3298 -0.05838 0.6636 -0.09176 0.9984 -0.09985h1.5975l1.1882 0.08986 0.649 0.11982c0.1043 0.01591 0.2 0.06729 0.2709 0.14548 0.071 0.0782 0.1128 0.17843 0.1185 0.28385 -0.0241 0.5783 -0.1179 1.15157 -0.2796 1.70734 -0.1897 1.16817 -0.2396 1.19813 -0.7588 1.25803l-1.7173 0.28955c-0.4255 0.08303 -0.8556 0.13971 -1.288 0.16974 -0.2153 0.03099 -0.4338 0.03099 -0.649 0 -0.0599 -0.05991 -0.0599 -0.06989 -0.1298 -0.11982Z" clip-rule="evenodd" stroke-width="1"></path>
  <path fill="#000000" fill-rule="evenodd" d="M10.8314 14.7419c0.0145 -0.1961 0.0145 -0.393 0 -0.5891 -0.0221 -0.1562 -0.084 -0.304 -0.1797 -0.4293 -0.1508 -0.1905 -0.3512 -0.3356 -0.5791 -0.4194 -0.39096 -0.1213 -0.79893 -0.1787 -1.20816 -0.1697 -0.66838 -0.01 -1.33641 0.0368 -1.99689 0.1398 -0.67775 0.1016 -1.33498 0.3105 -1.94696 0.619 -0.08105 0.0408 -0.14305 0.1116 -0.17286 0.1973 -0.02981 0.0857 -0.02511 0.1797 0.01311 0.262 0.02011 0.0402 0.048 0.076 0.08204 0.1053 0.03405 0.0293 0.07359 0.0516 0.11631 0.0655 0.04272 0.014 0.08779 0.0193 0.13258 0.0157 0.04479 -0.0037 0.08842 -0.0161 0.12835 -0.0367 0.55966 -0.236 1.15239 -0.3842 1.75726 -0.4394 0.62117 -0.0546 1.24593 -0.0546 1.86709 0 0.22499 0.0182 0.44849 0.0515 0.66896 0.0999 0.12306 0.02 0.23759 0.0755 0.32949 0.1597v2.0469c0.0253 0.3489 0.0253 0.6993 0 1.0483 -0.00282 0.1188 -0.02301 0.2365 -0.05991 0.3495 -0.07165 -0.023 -0.14514 -0.0397 -0.21966 -0.05 -0.27956 0 -0.56911 0 -0.84868 0.06l-0.84867 0.1098 -1.39782 0.2696c-1.46771 0.2196 -1.46771 0.1397 -1.46771 -0.3395v-2.6059c0 -0.0795 -0.03156 -0.1557 -0.08773 -0.2118 -0.05618 -0.0562 -0.13237 -0.0878 -0.21181 -0.0878 -0.07944 0 -0.15562 0.0316 -0.2118 0.0878 -0.05617 0.0561 -0.08773 0.1323 -0.08773 0.2118l-0.22964 2.5859c-0.02322 0.2324 -0.02322 0.4665 0 0.6989 0.01826 0.1453 0.08105 0.2813 0.17972 0.3894 0.12821 0.1225 0.28674 0.2087 0.45928 0.2496 0.2751 0.0613 0.55725 0.0848 0.83869 0.0699l0.99845 -0.0699 1.3479 -0.1697 1.55757 -0.1298c0.19585 0.0199 0.39322 0.0199 0.58903 0 0.2138 -0.0466 0.4004 -0.1758 0.5192 -0.3594 0.1368 -0.2257 0.2251 -0.4773 0.2596 -0.7389 0.0451 -0.4715 0.0451 -0.9462 0 -1.4178l-0.0898 -1.5775Z" clip-rule="evenodd" stroke-width="1"></path>
  <path fill="#000000" fill-rule="evenodd" d="M11.3706 7.75279c-0.05 -0.81873 -0.1498 -1.62746 -0.1997 -2.4362 0 -0.08039 -0.0312 -0.15764 -0.0871 -0.21541 -0.0559 -0.05777 -0.1321 -0.09152 -0.2125 -0.09411 -0.0388 -0.00134 -0.0775 0.00516 -0.1138 0.01911 -0.0363 0.01395 -0.0694 0.03506 -0.0974 0.06208 -0.0279 0.02703 -0.0502 0.0594 -0.0653 0.0952 -0.0152 0.03579 -0.023 0.07428 -0.023 0.11316 -0.1098 0.81872 -0.2097 1.62746 -0.2696 2.44618 0 0.34946 0 0.69891 -0.0499 1.04837 0 0.74883 0.1298 0.99844 -0.75882 1.07832 -0.41572 0.0703 -0.83642 0.10703 -1.25803 0.10983 -0.08862 -0.01138 -0.17815 0.01264 -0.24918 0.06688 -0.07103 0.0542 -0.11782 0.1342 -0.13023 0.2227 -0.00703 0.044 -0.00503 0.0891 0.00588 0.1324 0.01091 0.0432 0.03049 0.0839 0.05757 0.1193 0.02708 0.0355 0.06108 0.0651 0.09995 0.0871 0.03886 0.0219 0.08178 0.0357 0.12615 0.0406 0.65834 0.1208 1.32812 0.1677 1.99691 0.1398 0.3821 -0.0125 0.7514 -0.1414 1.0583 -0.3695 0.1358 -0.1493 0.2198 -0.3383 0.2396 -0.53913 0.0247 -0.33236 0.0247 -0.66609 0 -0.99844 -0.0499 -0.42933 -0.0499 -0.77879 -0.0698 -1.12824Z" clip-rule="evenodd" stroke-width="1"></path>
  <path fill="#000000" fill-rule="evenodd" d="M6.72778 6.68446c-0.14293 -0.01027 -0.28641 -0.01027 -0.42933 0 -0.34946 0 -0.65897 0.11981 -0.99844 0.11981 -0.07334 -0.00968 -0.14767 0.00812 -0.20867 0.04997 -0.06099 0.04186 -0.10435 0.1048 -0.1217 0.17671 -0.01736 0.07191 -0.0075 0.1477 0.02769 0.21276 0.03519 0.06507 0.09321 0.11482 0.16289 0.13966 0.39356 0.20772 0.81856 0.34939 1.25804 0.41935 0.24872 0.02982 0.50011 0.02982 0.74883 0 0.35944 0 0.69891 -0.14977 1.05835 -0.18971 0.09104 0.00275 0.17955 -0.03015 0.24668 -0.09169 0.06714 -0.06154 0.1076 -0.14686 0.11276 -0.23779 -0.00749 -0.0821 -0.04549 -0.1584 -0.10648 -0.21385 -0.061 -0.05546 -0.14057 -0.08603 -0.223 -0.08569 -0.35752 -0.09482 -0.72115 -0.16487 -1.08831 -0.20967 -0.14409 -0.04043 -0.29091 -0.07046 -0.43931 -0.08986Z" clip-rule="evenodd" stroke-width="1"></path>
  <path fill="#000000" fill-rule="evenodd" d="M13.627 13.5438c0.649 0 1.3479 0.0699 2.0968 0.0599 0.3993 0 0.8087 -0.0599 1.2181 -0.0999 0.629 -0.0599 1.238 -0.1497 1.8271 -0.1697 0.0446 0.0039 0.0895 -0.001 0.1322 -0.0144 0.0427 -0.0134 0.0823 -0.0351 0.1166 -0.0639 0.0343 -0.0287 0.0626 -0.0639 0.0833 -0.1036 0.0207 -0.0397 0.0334 -0.083 0.0373 -0.1276 0.004 -0.0446 -0.0009 -0.0895 -0.0144 -0.1322 -0.0134 -0.0427 -0.0351 -0.0823 -0.0638 -0.1166 -0.0288 -0.0343 -0.064 -0.0627 -0.1037 -0.0833 -0.0396 -0.0207 -0.083 -0.0334 -0.1276 -0.0374 -0.6099 -0.1173 -1.227 -0.194 -1.8471 -0.2296h-0.8087c-0.2644 0.0152 -0.5278 0.0452 -0.7888 0.0899 -0.649 0.1098 -1.2381 0.2895 -1.7972 0.4293 -0.0805 0.01 -0.1537 0.0512 -0.2042 0.1147 -0.0504 0.0634 -0.0739 0.1442 -0.0654 0.2248 0.0099 0.0741 0.0471 0.1418 0.1044 0.1898 0.0573 0.048 0.1304 0.0729 0.2051 0.0698Z" clip-rule="evenodd" stroke-width="1"></path>
  <path fill="#000000" fill-rule="evenodd" d="M16.9818 17.0483c0.235 -0.0031 0.4692 -0.0299 0.6989 -0.0799 0.2109 -0.0654 0.4005 -0.1861 0.5491 -0.3495 0.116 -0.1586 0.1725 -0.353 0.1598 -0.5491 0 -0.3594 -0.1498 -0.9385 -0.1598 -1.1083 0.0001 -0.0804 -0.0312 -0.1576 -0.0871 -0.2154 -0.0559 -0.0577 -0.132 -0.0915 -0.2124 -0.0941 -0.0393 0 -0.0783 0.0078 -0.1146 0.0228 -0.0364 0.0151 -0.0694 0.0371 -0.0972 0.0649 -0.0278 0.0279 -0.0499 0.0609 -0.0649 0.0972 -0.0151 0.0364 -0.0228 0.0753 -0.0228 0.1146 0 0.1498 -0.0799 0.7688 -0.1398 1.0883h-0.1098c-0.1345 -0.0147 -0.2679 -0.038 -0.3994 -0.0698 -0.4793 0 -1.0883 -0.1199 -1.6574 -0.1199 -0.469 -0.0143 -0.9325 0.1033 -1.3379 0.3395 -0.2428 0.1555 -0.4329 0.3808 -0.5451 0.6464 -0.1123 0.2655 -0.1416 0.5588 -0.084 0.8413l0.1498 0.8886c0.017 0.0894 0.0683 0.1687 0.1429 0.2209 0.0746 0.0522 0.1666 0.0733 0.2565 0.0587 0.044 -0.0084 0.0859 -0.0254 0.1233 -0.05 0.0374 -0.0247 0.0696 -0.0565 0.0946 -0.0936 0.0251 -0.0371 0.0425 -0.0788 0.0514 -0.1227 0.0089 -0.0439 0.009 -0.0892 0.0003 -0.1331v-0.8087c-0.0082 -0.1573 0.0458 -0.3116 0.1505 -0.4293 0.1046 -0.1177 0.2514 -0.1895 0.4086 -0.1998 0.3315 -0.0417 0.6669 -0.0417 0.9984 0 0.4294 0.04 0.8787 0.0599 1.2481 0.04Z" clip-rule="evenodd" stroke-width="1"></path>
</svg>