<svg xmlns="http://www.w3.org/2000/svg" fill="none" viewBox="0 0 48 48" id="Baseball--Streamline-Kameleon">
  <desc>
    Baseball Streamline Icon: https://streamlinehq.com
  </desc>
  <path fill="#25b7d3" d="M24 47.9977c13.2549 0 24 -10.7446 24 -23.9988C48 10.7446 37.2549 0 24 0S0 10.7446 0 23.9989c0 13.2542 10.7451 23.9988 24 23.9988Z" stroke-width="1"></path>
  <path fill="#f0f1f1" d="M23.9998 37.9621c7.7119 0 13.9636 -6.2515 13.9636 -13.963 0 -7.7115 -6.2517 -13.963 -13.9636 -13.963s-13.9637 6.2515 -13.9637 13.963c0 7.7115 6.2518 13.963 13.9637 13.963Z" stroke-width="1"></path>
  <path fill="#ffffff" d="M23.9998 10.0361c-7.7106 0 -13.9637 6.2528 -13.9637 13.963 0 3.7805 1.5059 7.208 3.9469 9.7222l19.7394 -19.7389c-2.5143 -2.4409 -5.9424 -3.9463 -9.7226 -3.9463Z" stroke-width="1"></path>
  <path fill="#fa5655" d="M35.3455 23.5626c-0.5611 0 -1.1127 0.0419 -1.6529 0.1182 -0.0563 -0.0584 -1.4937 -1.2715 -1.5561 -1.3238 -0.1837 -0.1558 -0.459 -0.1327 -0.6148 0.051s-0.1327 0.459 0.051 0.6148l1.0237 0.867c-1.3392 0.3212 -2.5898 0.871 -3.7086 1.6071l-1.687 -0.5996c-0.2273 -0.0811 -0.4765 0.038 -0.5572 0.2649 -0.0808 0.2273 0.0379 0.4765 0.2648 0.5572l1.1224 0.3988c-1.0024 0.7959 -1.8716 1.7511 -2.5706 2.8275l-1.787 -0.1453c-0.2404 -0.0192 -0.4507 0.1593 -0.4704 0.3997 -0.0196 0.2405 0.1593 0.4508 0.3998 0.4704l1.3605 0.1104c-0.6384 1.1864 -1.0778 2.4946 -1.2772 3.88l-1.6359 0.7928c-0.2169 0.1052 -0.3077 0.3661 -0.2025 0.5829 0.1052 0.2169 0.3661 0.3077 0.583 0.2025l1.1533 -0.5589c-0.0127 0.2194 -0.0201 0.4407 -0.0201 0.6636 0 0.8989 0.1004 1.776 0.2967 2.6181h0.1397c0.2487 0 0.5018 -0.0044 0.7505 -0.0218 -0.2051 -0.8334 -0.3142 -1.7018 -0.3142 -2.5963 0 -0.2164 0.0079 -0.4306 0.0206 -0.6436l1.0642 0.5817c0.2134 0.1165 0.4779 0.0358 0.5922 -0.1737 0.1156 -0.2116 0.0375 -0.4765 -0.1737 -0.5921l-1.3867 -0.7575c0.1793 -1.2261 0.5637 -2.3855 1.1162 -3.4441l0.5742 0.9622c0.1244 0.2086 0.3928 0.274 0.5983 0.151 0.2068 -0.1235 0.2745 -0.3914 0.151 -0.5983l-0.8221 -1.3766c0.6785 -1.0529 1.5325 -1.9819 2.5213 -2.7455l0.3552 1.2444c0.0663 0.2322 0.308 0.3657 0.5393 0.2998 0.2317 -0.0663 0.3661 -0.3076 0.2998 -0.5393l-0.439 -1.5381c1.0377 -0.6694 2.1949 -1.1668 3.4333 -1.4539l-0.0951 1.1471c-0.0201 0.24 0.1584 0.4512 0.3988 0.4709 0.2357 0.0205 0.4508 -0.155 0.4709 -0.3989l0.1152 -1.388c0.5149 -0.0755 1.0403 -0.116 1.5752 -0.116 0.8946 0 1.7629 0.109 2.5964 0.3141 0.0218 -0.3124 0.0218 -0.586 0.0218 -0.8901 -0.8422 -0.1964 -1.7193 -0.2967 -2.6182 -0.2967Z" stroke-width="1"></path>
  <path fill="#fa5655" d="M26.1382 12.9618c-0.1052 -0.2168 -0.3662 -0.3076 -0.583 -0.2025l-1.1494 0.5573c0.0122 -0.2191 0.0196 -0.4399 0.0196 -0.6624 0 -0.8989 -0.1038 -1.7759 -0.3006 -2.6181 -0.305 0 -0.5782 0 -0.8902 0.0218 0.2051 0.8335 0.3142 1.7018 0.3142 2.5963 0 0.2164 -0.0079 0.4307 -0.0205 0.6436l-1.0643 -0.5816c-0.2117 -0.1152 -0.4765 -0.0376 -0.5922 0.1736 -0.1156 0.2116 -0.0375 0.4765 0.1737 0.5921l1.3868 0.7575c-0.1794 1.2261 -0.5638 2.3855 -1.1163 3.4441l-0.5742 -0.9622c-0.1235 -0.2068 -0.391 -0.2749 -0.5983 -0.1509 -0.2068 0.1235 -0.2744 0.3914 -0.1509 0.5982l0.8221 1.3767c-0.6786 1.0529 -1.5325 1.9818 -2.5213 2.7454l-0.3552 -1.2435c-0.0664 -0.2317 -0.3081 -0.3661 -0.5394 -0.2998 -0.2317 0.0663 -0.3661 0.3076 -0.2998 0.5393l0.439 1.5381c-1.0377 0.6694 -2.1949 1.1672 -3.4333 1.4539l0.0951 -1.1471c0.0201 -0.24 -0.1584 -0.4512 -0.3988 -0.4709 -0.2378 -0.02 -0.4512 0.1584 -0.4708 0.3989l-0.1152 1.388c-0.5145 0.0746 -1.0403 0.1152 -1.5753 0.1152 -0.8946 0 -1.7555 -0.1091 -2.589 -0.3142 -0.0174 0.2487 -0.0144 0.5018 -0.0144 0.7505v0.1396c0.8728 0.1964 1.7119 0.2968 2.6108 0.2968 0.559 0 1.1084 -0.0419 1.6464 -0.1174 0.0567 0.0584 1.4928 1.2702 1.5552 1.323 0.1833 0.1553 0.4591 0.1331 0.6148 -0.0511 0.1558 -0.1837 0.1327 -0.459 -0.051 -0.6148l-1.0224 -0.8653c1.3405 -0.3207 2.5915 -0.8705 3.7108 -1.6066l1.6831 0.5983c0.2256 0.0807 0.4765 -0.0371 0.5572 -0.2649 0.0807 -0.2273 -0.038 -0.4765 -0.2649 -0.5572l-1.1179 -0.3975c1.0023 -0.7964 1.872 -1.7515 2.571 -2.8284 0.0314 0.0017 1.7878 0.1457 1.8188 0.1457 0.2247 0 0.4158 -0.1728 0.4346 -0.401 0.0196 -0.2404 -0.1593 -0.4507 -0.3997 -0.4703l-1.3562 -0.1104c0.6384 -1.1873 1.0778 -2.4959 1.2768 -3.8822l1.632 -0.7911c0.2169 -0.1047 0.3076 -0.3656 0.2025 -0.5825Z" stroke-width="1"></path>
</svg>