<svg xmlns="http://www.w3.org/2000/svg" fill="none" viewBox="0 0 48 48" id="Oxygen-Tank--Streamline-Kameleon">
  <desc>
    Oxygen Tank Streamline Icon: https://streamlinehq.com
  </desc>
  <path fill="#e04f5f" d="M24 47.9977c13.2549 0 24 -10.7446 24 -23.9988C48 10.7446 37.2549 0 24 0S0 10.7446 0 23.9989c0 13.2542 10.7451 23.9988 24 23.9988Z" stroke-width="1"></path>
  <path fill="#cfd3d4" d="M12.6545 11.7812c-0.4818 0 -0.8728 0.391 -0.8728 0.8727 0 0.4818 0.391 0.8727 0.8728 0.8727h0.4363v1.7755c0.1432 -0.0179 0.2885 -0.0301 0.4364 -0.0301h1.7454c0.148 0 0.2933 0.0122 0.4364 0.0301v-1.7755h7.8546v1.7755c0.1431 -0.0179 0.2884 -0.0301 0.4363 -0.0301h1.7455c0.1479 0 0.2932 0.0122 0.4363 0.0301v-1.7755h1.3091v-1.7454H12.6545Z" stroke-width="1"></path>
  <path fill="#facb1b" d="M18.7639 18.7627c0 -1.9277 -1.5631 -3.4907 -3.4909 -3.4907h-1.7455c-1.9278 0 -3.4909 1.563 -3.4909 3.4907v18.3264c0 0.4822 0.3906 0.8727 0.8727 0.8727h6.9819c0.4821 0 0.8727 -0.3905 0.8727 -0.8727V18.7627Z" stroke-width="1"></path>
  <path fill="#3e3e3f" d="M18.7639 20.5083h-8.7273v3.4907h8.7273v-3.4907Z" stroke-width="1"></path>
  <path fill="#facb1b" d="M29.2365 18.7627c0 -1.9277 -1.563 -3.4907 -3.4909 -3.4907h-1.7454c-1.9279 0 -3.4909 1.563 -3.4909 3.4907v18.3264c0 0.4822 0.3905 0.8727 0.8727 0.8727h6.9818c0.4822 0 0.8727 -0.3905 0.8727 -0.8727V18.7627Z" stroke-width="1"></path>
  <path fill="#3e3e3f" d="M29.2365 20.5083h-8.7272v3.4907h8.7272v-3.4907Z" stroke-width="1"></path>
  <path fill="#3e3e3f" d="M29.2365 29.2349h-8.7272v3.4907h8.7272v-3.4907Z" stroke-width="1"></path>
  <path fill="#cfd3d4" d="M20.5091 19.6353h-1.7454v5.2361h1.7454v-5.2361Z" stroke-width="1"></path>
  <path fill="#cfd3d4" d="M20.5091 28.3623h-1.7454v5.2361h1.7454v-5.2361Z" stroke-width="1"></path>
  <path fill="#e2e4e5" d="M19.6362 15.2718c1.446 0 2.6182 -1.1722 2.6182 -2.6181 0 -1.4459 -1.1722 -2.6181 -2.6182 -2.6181 -1.4459 0 -2.6181 1.1722 -2.6181 2.6181 0 1.4459 1.1722 2.6181 2.6181 2.6181Z" stroke-width="1"></path>
  <path fill="#3e3e3f" d="M34.473 30.98c-2.6059 0 -3.9272 -1.7615 -3.9272 -5.2361V15.2717c0 -0.6122 -0.2091 -0.8142 -0.278 -0.8806 -0.61 -0.5886 -2.2761 -0.4284 -2.7766 -0.4284v-2.6181c0.6991 0 3.0995 -0.2797 4.594 1.1624 0.4923 0.4743 1.0787 1.3392 1.0787 2.7647v10.4722c0 2.6181 0.6956 2.6181 1.3091 2.6181v2.618Z" stroke-width="1"></path>
  <path fill="#ebebec" d="M35.1046 26.0597c-0.1353 -0.0677 -0.2959 -0.0602 -0.4246 0.0192 -0.1287 0.0794 -0.2069 0.2194 -0.2069 0.3709v5.5694c0 0.1515 0.0782 0.2915 0.2069 0.3714 0.1287 0.0794 0.2893 0.0868 0.4246 0.0192l2.6181 -1.3091c0.148 -0.0741 0.2414 -0.2251 0.2414 -0.3905v-2.9514c0 -0.1654 -0.0934 -0.3164 -0.2414 -0.3901l-2.6181 -1.309Z" stroke-width="1"></path>
  <path fill="#ffffff" d="M17.7849 10.7979c-1.0224 1.0223 -1.0224 2.68 0 3.7024 0.4878 0.4878 1.1197 0.74 1.7585 0.7622v-5.2273c-0.6384 0.0231 -1.2707 0.2753 -1.7585 0.7627Z" stroke-width="1"></path>
  <path fill="#fbe158" d="M14.4003 15.272h-0.8728c-1.9278 0 -3.4909 1.563 -3.4909 3.4907v18.3264c0 0.4817 0.391 0.8727 0.8727 0.8727h3.491V15.272Z" stroke-width="1"></path>
  <path fill="#5b5c5f" d="M14.3998 20.5083h-4.3632v3.4904h4.3632v-3.4904Z" stroke-width="1"></path>
  <path fill="#3e3e3f" d="M18.7639 29.2349h-8.7273v3.4907h8.7273v-3.4907Z" stroke-width="1"></path>
  <path fill="#5b5c5f" d="M14.3998 29.2349h-4.3632v3.4904h4.3632v-3.4904Z" stroke-width="1"></path>
  <path fill="#fbe158" d="M24.8729 15.272h-0.8727c-1.9279 0 -3.4909 1.563 -3.4909 3.4907v18.3264c0 0.4817 0.391 0.8727 0.8727 0.8727h3.4909V15.272Z" stroke-width="1"></path>
  <path fill="#5b5c5f" d="M24.8725 20.5083h-4.3632v3.4904h4.3632v-3.4904Z" stroke-width="1"></path>
  <path fill="#5b5c5f" d="M24.8725 29.2349h-4.3632v3.4904h4.3632v-3.4904Z" stroke-width="1"></path>
  <path fill="#df2c2c" d="M20.5091 13.0904c0 0.4822 -0.3905 0.8727 -0.8727 0.8727s-0.8727 -0.3905 -0.8727 -0.8727 0.8727 -2.1817 0.8727 -2.1817 0.8727 1.6995 0.8727 2.1817Z" stroke-width="1"></path>
  <path fill="#ffffff" d="m37.7224 27.3686 -2.6179 -1.3089c-0.1353 -0.0677 -0.2958 -0.0602 -0.4245 0.0192 -0.1288 0.0794 -0.2069 0.2194 -0.2069 0.3708v2.7845h3.4906v-1.4756c0 -0.1653 -0.0934 -0.3163 -0.2413 -0.39Z" stroke-width="1"></path>
</svg>