<svg xmlns="http://www.w3.org/2000/svg" fill="none" viewBox="0 0 48 48" id="Cao-Dai--Streamline-Plump-Neon">
  <desc>
    Cao Dai Streamline Icon: https://streamlinehq.com
  </desc>
  <g id="cao-dai--religion-cao-dai-culture-god-eye">
    <path id="Vector" stroke="#c71dff" stroke-linecap="round" stroke-linejoin="round" d="M5.5075 42.4725c-2.6686 -0.447 -4.203 -2.7802 -3.2396 -5.3087 1.1279 -2.9604 3.2768 -7.6797 7.3707 -14.9169C14.186 14.2081 17.9335 8.9976 20.4588 5.869c1.9006 -2.3546 5.1818 -2.3546 7.0824 0 2.5253 3.1286 6.2728 8.3391 10.8202 16.3779 4.0939 7.2372 6.2428 11.9565 7.3707 14.9169 0.9634 2.5285 -0.571 4.8617 -3.2395 5.3087 -3.9162 0.656 -10.2607 1.4244 -18.4926 1.4244s-14.5763 -0.7684 -18.4925 -1.4244Z" stroke-width="3"></path>
    <path id="Vector_2" stroke="#000cfe" stroke-linecap="round" stroke-linejoin="round" d="M37.6681 29.3136c0.5379 -0.8568 0.5379 -1.9451 0 -2.8018C34.367 21.2532 29.4682 17.9216 24 17.9216s-10.367 3.3315 -13.6681 8.59c-0.5379 0.8568 -0.5379 1.9451 0 2.8018C13.633 34.572 18.5318 37.9036 24 37.9036s10.367 -3.3315 13.6681 -8.59Z" stroke-width="3"></path>
    <path id="Vector_3" stroke="#000cfe" stroke-linecap="round" stroke-linejoin="round" d="M27.9962 27.9121c0 -2.207 -1.7892 -3.9962 -3.9962 -3.9962s-3.9962 1.7892 -3.9962 3.9962S21.793 31.9083 24 31.9083s3.9962 -1.7892 3.9962 -3.9962Z" stroke-width="3"></path>
  </g>
</svg>