<svg xmlns="http://www.w3.org/2000/svg" fill="none" viewBox="0 0 14 14"><g id="gameboy--entertainment-gaming-device-gameboy"><path id="Subtract" fill="#3e3e3e" fill-rule="evenodd" d="M11.558 14a1 1 0 0 0 1-1V1a1 1 0 0 0-1-1H2.442a1 1 0 0 0-1 1v12a1 1 0 0 0 1 1h9.116ZM9.412 7.608a1 1 0 0 0 1-1V2.926a1 1 0 0 0-1-1H4.59a1 1 0 0 0-1 1v3.682a1 1 0 0 0 1 1h4.823Zm-5.138 3.936a.625.625 0 1 0 1.25 0v-.334h.335a.625.625 0 1 0 0-1.25h-.335v-.335a.625.625 0 1 0-1.25 0v.335H3.94a.625.625 0 1 0 0 1.25h.334v.334Zm5.226-.073a1 1 0 1 0 0-2 1 1 0 0 0 0 2Z" clip-rule="evenodd"></path></g></svg>