<svg xmlns="http://www.w3.org/2000/svg" fill="none" viewBox="0 0 14 14"><g id="volume-level-low--volume-speaker-lower-down-control-music-low-audio-entertainment"><path id="Union" fill="#3e3e3e" fill-rule="evenodd" d="M9 3.005A1.454 1.454 0 0 0 6.716 1.78l-.003.002L2.842 4.5H1.5C.68 4.5 0 5.18 0 6v2c0 .82.68 1.5 1.5 1.5h1.339l3.78 2.716.007.005c.97.672 2.348-.024 2.374-1.21V3.005Zm2.414 2.017a.75.75 0 1 0-1.156.956c.228.276.346.628.329.986a.772.772 0 0 0 0 .072c.017.358-.1.71-.33.986a.75.75 0 1 0 1.157.956A2.94 2.94 0 0 0 12.086 7a2.94 2.94 0 0 0-.672-1.978Z" clip-rule="evenodd"></path></g></svg>