<svg xmlns="http://www.w3.org/2000/svg" fill="none" viewBox="0 0 14 14" id="Fragile--Streamline-Flex">
  <desc>
    Fragile Streamline Icon: https://streamlinehq.com
  </desc>
  <g id="fragile--fragile-shipping-glass-delivery-wine-crack-shipment-sign-sticker">
    <path id="Vector (Stroke)" fill="#2859c5" fill-rule="evenodd" d="M11.806 1.766c-0.07 -0.704 -0.637 -1.433 -1.494 -1.429l-6.625 0c-0.856 -0.004 -1.423 0.725 -1.494 1.429l0 0.003a50.559 50.559 0 0 0 -0.172 3.465c0 1.562 0.544 2.801 1.47 3.647 0.917 0.84 2.166 1.25 3.509 1.25s2.59 -0.41 3.509 -1.25c0.925 -0.846 1.469 -2.085 1.469 -3.647 0 -0.51 -0.06 -2.228 -0.171 -3.463l0 -0.005Z" clip-rule="evenodd" stroke-width="1"></path>
    <path id="Union" fill="#8fbffa" fill-rule="evenodd" d="m3.687 0.337 1.54 0 -1.001 1.45a0.625 0.625 0 0 0 0.12 0.84l1.472 1.2 -0.663 1.08a0.625 0.625 0 0 0 1.066 0.654l0.948 -1.546a0.625 0.625 0 0 0 -0.138 -0.811L5.582 2.022 6.677 0.436a0.628 0.628 0 0 0 0.055 -0.099l3.58 0c0.857 -0.004 1.424 0.725 1.494 1.429l0 0.005c0.111 1.235 0.172 2.953 0.172 3.463 0 1.562 -0.544 2.801 -1.469 3.647 -0.745 0.68 -1.706 1.079 -2.76 1.205v2.053c0.582 0.036 1.07 0.123 1.747 0.297a0.75 0.75 0 1 1 -0.374 1.453c-0.82 -0.212 -1.27 -0.269 -2.116 -0.27l-0.006 0 -0.006 0c-0.846 0.001 -1.297 0.058 -2.118 0.27a0.75 0.75 0 1 1 -0.374 -1.453c0.678 -0.174 1.166 -0.261 1.748 -0.296v-2.054c-1.054 -0.126 -2.015 -0.524 -2.76 -1.205 -0.925 -0.846 -1.469 -2.085 -1.469 -3.647 0 -0.509 0.06 -2.283 0.172 -3.465l0 -0.003c0.07 -0.704 0.638 -1.433 1.494 -1.429Z" clip-rule="evenodd" stroke-width="1"></path>
  </g>
</svg>