<svg xmlns="http://www.w3.org/2000/svg" fill="none" viewBox="0 0 14 14" id="Package-Dimension--Streamline-Flex">
  <desc>
    Package Dimension Streamline Icon: https://streamlinehq.com
  </desc>
  <g id="package-dimension--package-dimension-size-measurements-height-width-box-parcel">
    <path id="Union" fill="#8fbffa" fill-rule="evenodd" d="M4.55274 4.92578c-0.7491 0 -1.4781 0.06848 -2.17059 0.14567C1.22363 5.20058 0.293369 6.12968 0.169124 7.29098 0.0953982 7.98008 0.03125 8.70383 0.03125 9.44727c0 0.74343 0.0641483 1.46723 0.137874 2.15633 0.124246 1.1613 1.054506 2.0904 2.213026 2.2195 0.69249 0.0772 1.42149 0.1457 2.17059 0.1457 0.74911 0 1.47811 -0.0685 2.1706 -0.1457 1.15851 -0.1291 2.08878 -1.0582 2.21302 -2.2195 0.07373 -0.6891 0.13788 -1.4129 0.13788 -2.15633 0 -0.74344 -0.06415 -1.46719 -0.13788 -2.15629 -0.12424 -1.1613 -1.05451 -2.0904 -2.21302 -2.21953 -0.69249 -0.07719 -1.42149 -0.14567 -2.1706 -0.14567Z" clip-rule="evenodd" stroke-width="1"></path>
    <path id="Intersect" fill="#2859c5" fill-rule="evenodd" d="m5.25533 8.62159 -0.43729 -0.28729c-0.16084 -0.10567 -0.3691 -0.10567 -0.52994 0l-0.42922 0.28199c-0.32091 0.21082 -0.74755 -0.01937 -0.74755 -0.40334V4.97851c0.46871 -0.04192 0.95085 -0.07128 1.44169 -0.07128 0.5016 0 0.99411 0.03066 1.47249 0.07406l-0.02265 3.24135c-0.00347 0.38198 -0.42828 0.60869 -0.74753 0.39895Z" clip-rule="evenodd" stroke-width="1"></path>
    <path id="Union_2" fill="#2859c5" fill-rule="evenodd" d="M14 5.41357c0 0.41422 -0.3358 0.75 -0.75 0.75h-0.6015l0 6.25623 0.6014 -0.0002c0.4142 0 0.7501 0.3357 0.7501 0.7499 0.0001 0.4142 -0.3356 0.7501 -0.7498 0.7501l-2.7042 0.0005c-0.4142 0.0001 -0.75003 -0.3356 -0.7501 -0.7498 -0.00008 -0.4142 0.3356 -0.7501 0.7499 -0.7502l0.6027 -0.0001 0 -6.25643h-0.6026c-0.4142 0 -0.75 -0.33578 -0.75 -0.75 0 -0.41421 0.3358 -0.75 0.75 -0.75H13.25c0.4142 0 0.75 0.33579 0.75 0.75Z" clip-rule="evenodd" stroke-width="1"></path>
    <path id="Union_3" fill="#2859c5" fill-rule="evenodd" d="M0.813477 -0.0000353312C1.22769 -0.0000353493 1.56348 0.335751 1.56348 0.749965l0 0.601565 6.25618 0L7.81955 0.7501c-0.00007 -0.414214 0.33565 -0.7500612655 0.74986 -0.7501356702C8.98363 -0.000110075 9.31948 0.335616 9.31955 0.749829l0.00049 2.704141c0.00007 0.41421 -0.33565 0.75006 -0.74987 0.75013 -0.41421 0.00008 -0.75006 -0.33565 -0.75013 -0.74986l-0.00011 -0.60271 -6.25645 0 0 0.60257c0 0.41421 -0.33579 0.75 -0.750003 0.75 -0.414214 0 -0.7500005 -0.33579 -0.7500005 -0.75l-1e-7 -2.704135c0 -0.414214 0.3357866 -0.7500003131 0.7500006 -0.7500003312Z" clip-rule="evenodd" stroke-width="1"></path>
  </g>
</svg>