<svg xmlns="http://www.w3.org/2000/svg" fill="none" viewBox="0 0 14 14" id="Happy-Face--Streamline-Flex">
  <desc>
    Happy Face Streamline Icon: https://streamlinehq.com
  </desc>
  <g id="happy-face--smiley-chat-message-smile-emoji-face-satisfied">
    <path id="Union" fill="#8fbffa" d="M7 0.25c-2.092 0 -3.797 0.59 -4.979 1.771C0.84 3.203 0.25 4.908 0.25 7s0.59 3.797 1.771 4.979C3.203 13.16 4.908 13.75 7 13.75s3.797 -0.59 4.979 -1.771C13.16 10.797 13.75 9.092 13.75 7s-0.59 -3.797 -1.771 -4.979C10.797 0.84 9.092 0.25 7 0.25Z" stroke-width="1"></path>
    <path id="Union_2" fill="#2859c5" fill-rule="evenodd" d="M4.452 4.006c0.345 0 0.625 0.28 0.625 0.625v0.7a0.625 0.625 0 1 1 -1.25 0l0 -0.7c0 -0.345 0.28 -0.625 0.625 -0.625ZM3.66 7.36a0.625 0.625 0 0 1 0.769 0.435c0.384 1.382 1.941 2.254 3.342 1.88 0.88 -0.328 1.572 -1.045 1.799 -1.877a0.625 0.625 0 1 1 1.206 0.329c-0.348 1.276 -1.376 2.285 -2.601 2.73a0.625 0.625 0 0 1 -0.046 0.015c-2.055 0.571 -4.329 -0.67 -4.904 -2.742a0.625 0.625 0 0 1 0.435 -0.77Zm6.513 -2.728a0.625 0.625 0 1 0 -1.25 0v0.7a0.625 0.625 0 1 0 1.25 0v-0.7Z" clip-rule="evenodd" stroke-width="1"></path>
  </g>
</svg>