<svg xmlns="http://www.w3.org/2000/svg" fill="none" viewBox="0 0 14 14" id="Mail-Send-Envelope--Streamline-Flex">
  <desc>
    Mail Send Envelope Streamline Icon: https://streamlinehq.com
  </desc>
  <g id="mail-send-envelope--envelope-email-message-unopened-sealed-close">
    <path id="Intersect" fill="#8fbffa" d="M0.822 10.726a2.09 2.09 0 0 0 1.852 1.814c1.395 0.146 2.843 0.302 4.326 0.302 1.484 0 2.93 -0.156 4.326 -0.302a2.09 2.09 0 0 0 1.852 -1.814c0.15 -1.204 0.3 -2.45 0.3 -3.726 0 -1.276 -0.15 -2.522 -0.3 -3.726a2.091 2.091 0 0 0 -1.852 -1.814C9.93 1.314 8.484 1.158 7 1.158c-1.483 0 -2.93 0.156 -4.326 0.302A2.09 2.09 0 0 0 0.822 3.274C0.672 4.478 0.522 5.724 0.522 7c0 1.276 0.15 2.522 0.3 3.726Z" stroke-width="1"></path>
    <path id="Intersect_2" fill="#2859c5" fill-rule="evenodd" d="m0.758 3.795 4.617 3.64a2.625 2.625 0 0 0 3.25 0l4.617 -3.64 -0.064 -0.52a2.065 2.065 0 0 0 -0.276 -0.804l-5.05 3.982c-0.5 0.394 -1.204 0.394 -1.703 0L1.098 2.471c-0.144 0.24 -0.24 0.513 -0.276 0.803l-0.064 0.52Z" clip-rule="evenodd" stroke-width="1"></path>
  </g>
</svg>