<svg xmlns="http://www.w3.org/2000/svg" fill="none" viewBox="0 0 14 14" id="Sign-At--Streamline-Flex">
  <desc>
    Sign At Streamline Icon: https://streamlinehq.com
  </desc>
  <g id="sign-at--mail-email-at-sign-read-address">
    <path id="Union" fill="#8fbffa" fill-rule="evenodd" d="M1.5 7c0 -1.862 0.521 -3.21 1.405 -4.095C3.79 2.021 5.138 1.5 7 1.5c1.862 0 3.21 0.521 4.095 1.405C11.979 3.79 12.5 5.138 12.5 7c0 0.675 -0.126 1.261 -0.335 1.65 -0.198 0.366 -0.417 0.485 -0.665 0.485 -0.38 0 -0.546 -0.09 -0.62 -0.15 -0.076 -0.06 -0.146 -0.164 -0.195 -0.362a3.132 3.132 0 0 1 -0.063 -0.76c0.001 -0.084 0.004 -0.184 0.007 -0.29 0.006 -0.2 0.012 -0.418 0.006 -0.587 -0.003 -1.056 -0.304 -1.985 -0.97 -2.651 -0.669 -0.67 -1.604 -0.97 -2.665 -0.97s-1.996 0.3 -2.665 0.97c-0.67 0.669 -0.97 1.604 -0.97 2.665s0.3 1.996 0.97 2.665c0.669 0.67 1.604 0.97 2.665 0.97 1.011 0 1.908 -0.273 2.57 -0.878 0.098 0.142 0.22 0.276 0.368 0.396 0.411 0.332 0.942 0.482 1.562 0.482 0.952 0 1.608 -0.573 1.985 -1.274C13.851 8.68 14 7.825 14 7c0 -2.138 -0.604 -3.914 -1.845 -5.155C10.915 0.604 9.138 0 7 0 4.862 0 3.086 0.604 1.845 1.845 0.604 3.085 0 4.862 0 7c0 2.138 0.604 3.914 1.845 5.155C3.085 13.396 4.862 14 7 14c0.903 0 1.74 -0.107 2.502 -0.325a0.75 0.75 0 1 0 -0.413 -1.442c-0.607 0.174 -1.303 0.267 -2.089 0.267 -1.862 0 -3.21 -0.521 -4.095 -1.405C2.021 10.21 1.5 8.862 1.5 7Zm7.635 -0.005 0 0.008c0 0.784 -0.219 1.29 -0.53 1.602 -0.312 0.312 -0.82 0.53 -1.605 0.53s-1.293 -0.218 -1.605 -0.53c-0.312 -0.312 -0.53 -0.82 -0.53 -1.605s0.218 -1.293 0.53 -1.605c0.312 -0.312 0.82 -0.53 1.605 -0.53s1.293 0.218 1.605 0.53c0.31 0.312 0.53 0.818 0.53 1.6Z" clip-rule="evenodd" stroke-width="1"></path>
  </g>
</svg>