<svg xmlns="http://www.w3.org/2000/svg" fill="none" viewBox="0 0 14 14" id="Smiley-Blessed--Streamline-Flex">
  <desc>
    Smiley Blessed Streamline Icon: https://streamlinehq.com
  </desc>
  <g id="smiley-blessed">
    <path id="Union" fill="#8fbffa" fill-rule="evenodd" d="M7 0c2.17203 0 3.9395 0.612432 5.1636 1.83645C13.3876 3.06046 14 4.82797 14 7s-0.6124 3.9395 -1.8364 5.1636C10.9395 13.3876 9.17203 14 7 14s-3.93954 -0.6124 -5.16355 -1.8364C0.612432 10.9395 0 9.17203 0 7s0.612432 -3.93954 1.83645 -5.16355C3.06046 0.612432 4.82797 0 7 0Z" clip-rule="evenodd" stroke-width="1"></path>
    <path id="Union_2" fill="#2859c5" fill-rule="evenodd" d="M3.2735 4.68715c0.32174 -0.12504 0.68392 0.0344 0.80897 0.35613 0.02632 0.06771 0.06031 0.10309 0.10266 0.12827 0.04923 0.02927 0.14491 0.06423 0.31484 0.06423s0.26561 -0.03496 0.31484 -0.06423c0.04235 -0.02518 0.07634 -0.06056 0.10266 -0.12827 0.12505 -0.32173 0.48723 -0.48117 0.80896 -0.35613 0.32173 0.12505 0.48118 0.48724 0.35613 0.80897 -0.12246 0.31507 -0.33517 0.57523 -0.62899 0.7499 -0.28693 0.17058 -0.61689 0.23976 -0.9536 0.23976 -0.33671 0 -0.66667 -0.06918 -0.9536 -0.23976 -0.29383 -0.17467 -0.50653 -0.43483 -0.62899 -0.7499 -0.12505 -0.32173 0.03439 -0.68392 0.35612 -0.80897Zm0.93944 3.0629c-0.41422 0 -0.75 0.33578 -0.75 0.75v0.10854c0 0.02455 0.00361 0.04896 0.01073 0.07246 0.225 0.74299 0.6481 1.32905 1.25479 1.72635 0.60377 0.3954 1.37177 0.5926 2.2716 0.5926 0.89983 0 1.66782 -0.1972 2.27159 -0.5926 0.60669 -0.3973 1.02975 -0.98336 1.25475 -1.72635 0.0072 -0.0235 0.0108 -0.04791 0.0108 -0.07246v-0.10854c0 -0.41422 -0.3358 -0.75 -0.75002 -0.75H4.21294Zm4.86965 -2.70677c-0.12505 -0.32173 -0.48723 -0.48117 -0.80896 -0.35613 -0.32173 0.12505 -0.48118 0.48724 -0.35613 0.80897 0.12246 0.31507 0.33517 0.57523 0.62899 0.7499 0.28693 0.17058 0.61689 0.23976 0.9536 0.23976 0.33671 0 0.66671 -0.06918 0.95361 -0.23976 0.2938 -0.17467 0.5065 -0.43483 0.629 -0.7499 0.125 -0.32173 -0.0344 -0.68392 -0.3561 -0.80897 -0.3218 -0.12504 -0.684 0.0344 -0.80901 0.35613 -0.02632 0.06771 -0.06031 0.10309 -0.10266 0.12827 -0.04923 0.02927 -0.14491 0.06423 -0.31484 0.06423s-0.26561 -0.03496 -0.31484 -0.06423c-0.04235 -0.02518 -0.07634 -0.06056 -0.10266 -0.12827Z" clip-rule="evenodd" stroke-width="1"></path>
  </g>
</svg>