<svg xmlns="http://www.w3.org/2000/svg" fill="none" viewBox="0 0 16 16" id="Delete-File--Streamline-Block-Free">
  <desc>
    Delete File Streamline Icon: https://streamlinehq.com
  </desc>
  <path fill="#000000" d="M0 0h8l4 4 0 2.5c-3.03757 0 -5.5 2.46243 -5.5 5.5 0 0.7056 0.13286 1.3801 0.37494 2H0V0Z" stroke-width="1"></path>
  <path fill="#000000" fill-rule="evenodd" d="M11.2518 8.06985C11.4942 8.02399 11.7443 8 12 8c2.2091 0 4 1.79086 4 4 0 2.2091 -1.7909 4 -4 4 -1.4806 0 -2.77325 -0.8044 -3.46487 -2 -0.1339 -0.2315 -0.24527 -0.4776 -0.33111 -0.7354 -0.05578 -0.1675 -0.10078 -0.3399 -0.13418 -0.5165C8.02399 12.5058 8 12.2557 8 12s0.02399 -0.5058 0.06985 -0.7482c0.03341 -0.1765 0.07842 -0.349 0.13421 -0.5165 0.3969 -1.19184 1.3394 -2.13434 2.53124 -2.53124 0.1675 -0.05579 0.34 -0.1008 0.5165 -0.13421ZM12 13.0607l0.9393 0.9393L14 12.9393 13.0606 12l0.9393 -0.9393L12.9393 10 12 10.9393 11.0607 10 10 11.0607l0.9393 0.9393 -0.9393 0.9393 1.0607 1.0606 0.9393 -0.9392Z" clip-rule="evenodd" stroke-width="1"></path>
</svg>