<svg xmlns="http://www.w3.org/2000/svg" fill="none" viewBox="0 0 16 16" id="Remove-File--Streamline-Block-Free">
  <desc>
    Remove File Streamline Icon: https://streamlinehq.com
  </desc>
  <path fill="#000000" d="M0 0h8l4 4 0 2.5c-3.03757 0 -5.5 2.46243 -5.5 5.5 0 0.7056 0.13286 1.3801 0.37494 2H0V0Z" stroke-width="1"></path>
  <path fill="#000000" fill-rule="evenodd" d="M8.69234 9.75C9.41233 8.69361 10.6252 8 12 8c2.2091 0 4 1.79086 4 4 0 2.2091 -1.7909 4 -4 4 -1.4806 0 -2.77325 -0.8044 -3.46487 -2 -0.00336 -0.0058 -0.0067 -0.0116 -0.01003 -0.0174 -0.00768 -0.0135 -0.01529 -0.027 -0.02282 -0.0405L8.5 13.938C8.18142 13.3639 8 12.7031 8 12c0 -0.7031 0.18142 -1.3639 0.5 -1.938 0.05943 -0.10711 0.12364 -0.21121 0.19234 -0.312ZM10 11.25v1.5h4v-1.5h-4Z" clip-rule="evenodd" stroke-width="1"></path>
</svg>