<svg xmlns="http://www.w3.org/2000/svg" fill="none" viewBox="0 0 14 14" id="Ai-Chip-Spark--Streamline-Core-Gradient">
  <desc>
    Ai Chip Spark Streamline Icon: https://streamlinehq.com
  </desc>
  <g id="Free Gradient/Artificial Intelligence/ai-chip-spark--chip-processor-artificial-intelligence-ai">
    <path id="Subtract" fill="url(#paint0_linear_14402_15514)" fill-rule="evenodd" d="M12.375 3.20833v1.05565h.875c.4142 0 .75.33578.75.75 0 .41421-.3358.75-.75.75h-.875v2.47204h.875c.4142 0 .75.33579.75.75 0 .41422-.3358.75-.75.75h-.875v1.05568c0 .8744-.7089 1.5833-1.5833 1.5833H9.73608v.875c0 .4142-.33578.75-.75.75-.41421 0-.75-.3358-.75-.75v-.875H5.76392v.875c0 .4142-.33579.75-.75.75-.41422 0-.75-.3358-.75-.75v-.875H3.20833c-.87445 0-1.58333-.7089-1.58333-1.5833V9.73602H.75c-.414214 0-.75-.33578-.75-.75 0-.41421.335786-.75.75-.75h.875V5.76398H.75c-.414214 0-.75-.33579-.75-.75 0-.41422.335786-.75.75-.75h.875V3.20833c0-.87445.70888-1.58333 1.58333-1.58333h1.05559V.75c0-.414214.33578-.75.75-.75.41421 0 .75.335787.75.75v.875h2.47216V.75c0-.414214.33579-.75.75-.75.41422 0 .75.335787.75.75v.875h1.05562c.8744 0 1.5833.70888 1.5833 1.58333ZM6.25063 4.60407c.17253-.80144 1.30809-.80723 1.48771-.00647l.02023.0902c.18219.81224.82404 1.42706 1.62014 1.5679.82839.14654.82839 1.34206 0 1.48861-.7961.14083-1.43795.75565-1.62014 1.56789l-.02023.0902c-.17962.8008-1.31518.795-1.48771-.00647l-.01666-.0774c-.17549-.81518-.81647-1.43446-1.61374-1.5755-.82697-.1463-.82698-1.33976 0-1.48606.79727-.14104 1.43825-.76032 1.61374-1.57549l.01666-.07741Z" clip-rule="evenodd"></path>
  </g>
  <defs>
    <linearGradient id="paint0_linear_14402_15514" x1="13.953" x2="-2.626" y1="14.003" y2="4.677" gradientUnits="userSpaceOnUse">
      <stop stop-color="#ff51e3"></stop>
      <stop offset="1" stop-color="#1b4dff"></stop>
    </linearGradient>
  </defs>
</svg>