<svg xmlns="http://www.w3.org/2000/svg" fill="none" viewBox="0 0 14 14" id="Ai-Gaming-Spark--Streamline-Core-Gradient">
  <desc>
    Ai Gaming Spark Streamline Icon: https://streamlinehq.com
  </desc>
  <g id="Free Gradient/Artificial Intelligence/ai-gaming-spark--remote-control-controller-technology-artificial-intelligence-ai">
    <path id="Union" fill="url(#paint0_linear_14402_15494)" fill-rule="evenodd" d="M9.56049.6564C9.74797-.214503 10.9808-.220724 11.176.649356l.0252.112754c.2386 1.06349 1.0796 1.87059 2.1254 2.0556.8979.15883.8979 1.45575 0 1.61458-1.0458.18501-1.8868.99211-2.1254 2.0556l-.0252.11276c-.1952.87008-1.42803.86385-1.61551-.00705l-.02083-.09675c-.22983-1.06762-1.06995-1.88082-2.1176-2.06615-.89608-.15853-.89608-1.45287 0-1.61139 1.04765-.18534 1.88777-.99854 2.1176-2.066158L9.56049.6564ZM8.31766 6.75992c-.12504-.58083-.57599-1.00327-1.11335-1.09833-.95345-.16867-1.50686-.8421-1.66022-1.59671h-1.6342c-1.78342 0-3.281645 1.34098-3.478591 3.11349L.0173855 10.9036C-.166146 12.5554 1.12683 14 2.78879 14c1.05618 0 2.02172-.5968 2.49407-1.5414l.22207-.4442h2.36034l.22207.4442C8.55969 13.4032 9.52522 14 10.5814 14c1.662 0 2.9549-1.4446 2.7714-3.0964l-.4139-3.72523c-.0385-.34623-.1266-.67599-.2568-.98251-.1225.16173-.2135.35299-.2612.56562l-.0253.11275c-.489 2.18042-3.58817 2.16077-4.05712-.01755l-.02082-.09676Zm-4.23238-.3223c.34518 0 .625.27982.625.625v.53052h.53052c.34518 0 .625.27982.625.625s-.27982.625-.625.625h-.53052v.53038c0 .34518-.27982.625-.625.625s-.625-.27982-.625-.625v-.53038H2.9299c-.34518 0-.625-.27982-.625-.625s.27982-.625.625-.625h.53038v-.53052c0-.34518.27982-.625.625-.625Z" clip-rule="evenodd"></path>
  </g>
  <defs>
    <linearGradient id="paint0_linear_14402_15494" x1=".538" x2="16.494" y1="1.131" y2="10.125" gradientUnits="userSpaceOnUse">
      <stop stop-color="#00d078"></stop>
      <stop offset="1" stop-color="#007df0"></stop>
    </linearGradient>
  </defs>
</svg>