<svg xmlns="http://www.w3.org/2000/svg" fill="none" viewBox="0 0 14 14" id="Ai-Settings-Spark--Streamline-Core-Gradient">
  <desc>
    Ai Settings Spark Streamline Icon: https://streamlinehq.com
  </desc>
  <g id="Free Gradient/Artificial Intelligence/ai-settings-spark--cog-gear-settings-machine-artificial-intelligence">
    <path id="Union" fill="url(#paint0_linear_14402_15680)" fill-rule="evenodd" d="M9.56049.6564C9.74797-.214503 10.9808-.220724 11.176.649356l.0252.112754c.2386 1.06349 1.0796 1.87059 2.1254 2.0556.8979.15883.8979 1.45575 0 1.61458-1.0458.18501-1.8868.99211-2.1254 2.0556l-.0252.11276c-.1952.87008-1.42803.86385-1.61551-.00705l-.02083-.09675c-.22983-1.06762-1.06995-1.88082-2.1176-2.06615-.89608-.15853-.89608-1.45287 0-1.61139 1.04765-.18534 1.88777-.99854 2.1176-2.066158L9.56049.6564ZM8.31766 6.75992c-.12504-.58083-.57599-1.00327-1.11335-1.09833-1.71572-.30352-2.13605-2.24152-1.26093-3.34584-.06515-.01503-.13211-.02283-.19968-.02303h-.73846c-.18141.00054-.35843.05585-.50787.15869-.14944.10285-.26434.24842-.32965.41767l-.38724.99962-1.33282.75647-1.06266-.1621c-.17694-.02402-.35703.00511-.517385.08368-.160352.07857-.293725.20304-.383171.35759l-.360223.63039c-.0923062.15701-.1348343.33832-.12197206.52.01286226.18168.08051036.35519.19401606.49763l.675418.83752v1.51294l-.657407.83752c-.113506.14244-.1811537.31596-.1940159.49766-.0128623.1816.0296659.363.1219719.52l.360223.6304c.089446.1545.22282.279.383171.3575.160354.0786.340444.1077.517384.0837l1.06266-.1621 1.31481.7565.38724.9996c.06531.1693.18021.3148.32965.4177.14944.1028.32646.1581.50787.1587h.75647c.18141-.0006.35843-.0559.50787-.1587.14944-.1029.26434-.2484.32965-.4177l.38724-.9996 1.31481-.7565 1.06266.1621c.17695.024.35704-.0051.51739-.0837.16037-.0785.29377-.203.38317-.3575l.3602-.6304c.0923-.157.1349-.3384.122-.52-.0129-.1817-.0805-.35522-.194-.49766l-.67544-.83752v-.45903c-.71404-.16538-1.3468-.69536-1.53878-1.58711l-.02082-.09676ZM5.37448 10.0279c1.03913 0 1.88152-.84242 1.88152-1.88155 0-1.03914-.84239-1.88152-1.88152-1.88152-1.03914 0-1.88152.84238-1.88152 1.88152 0 1.03913.84238 1.88155 1.88152 1.88155Z" clip-rule="evenodd"></path>
  </g>
  <defs>
    <linearGradient id="paint0_linear_14402_15680" x1="13.953" x2="-2.626" y1="14.003" y2="4.677" gradientUnits="userSpaceOnUse">
      <stop stop-color="#ff51e3"></stop>
      <stop offset="1" stop-color="#1b4dff"></stop>
    </linearGradient>
  </defs>
</svg>