<svg xmlns="http://www.w3.org/2000/svg" fill="none" viewBox="0 0 14 14" id="Ai-Vehicle-Spark-2--Streamline-Core-Gradient">
  <desc>
    Ai Vehicle Spark 2 Streamline Icon: https://streamlinehq.com
  </desc>
  <g id="Free Gradient/Artificial Intelligence/ai-vehicle-spark-2--car-automated-transportation-artificial-intelligence-ai">
    <path id="Union" fill="url(#paint0_linear_14402_15615)" fill-rule="evenodd" d="M9.56049.6564C9.74797-.214503 10.9808-.220724 11.176.649356l.0252.112754c.2386 1.06349 1.0796 1.87059 2.1254 2.0556.8979.15883.8979 1.45575 0 1.61458-1.0458.18501-1.8868.99211-2.1254 2.0556l-.0252.11276c-.1952.87008-1.42803.86385-1.61551-.00705l-.02083-.09675c-.22983-1.06762-1.06995-1.88082-2.1176-2.06615-.89608-.15853-.89608-1.45287 0-1.61139 1.04765-.18534 1.88777-.99854 2.1176-2.066158L9.56049.6564ZM2.9076 7.85615c.07032-.42191.43536-.73115.86309-.73115h2.45862c.42773 0 .79278.30924.86309.73115L7.26221 8.875H2.73779l.16981-1.01885ZM3.77069 5.875c-1.03878 0-1.92531.751-2.09609 1.77565l-.26664 1.59984C.574464 9.65587 0 10.5108 0 11.5c0 .7432.540572 1.3602 1.25 1.4793v.2707c0 .4142.33579.75.75.75s.75-.3358.75-.75V13h4.5v.25c0 .4142.33579.75.75.75s.75-.3358.75-.75v-.2707C9.45943 12.8602 10 12.2432 10 11.5c0-.9892-.57446-1.84413-1.40796-2.24951L8.3254 7.65065C8.15462 6.626 7.26809 5.875 6.22931 5.875H3.77069Z" clip-rule="evenodd"></path>
  </g>
  <defs>
    <linearGradient id="paint0_linear_14402_15615" x1="13.953" x2="-2.626" y1="14.003" y2="4.677" gradientUnits="userSpaceOnUse">
      <stop stop-color="#ff51e3"></stop>
      <stop offset="1" stop-color="#1b4dff"></stop>
    </linearGradient>
  </defs>
</svg>