<svg xmlns="http://www.w3.org/2000/svg" fill="none" viewBox="0 0 14 14" id="Artificial-Intelligence-Spark--Streamline-Core-Gradient">
  <desc>
    Artificial Intelligence Spark Streamline Icon: https://streamlinehq.com
  </desc>
  <g id="Free Gradient/Artificial Intelligence/artificial-intelligence-spark--brain-thought-ai-automated-ai">
    <path id="Union" fill="url(#paint0_linear_14402_15591)" fill-rule="evenodd" d="M9.56049.6564C9.74797-.214503 10.9808-.220724 11.176.649356l.0252.112754c.2386 1.06349 1.0796 1.87059 2.1254 2.0556.8979.15883.8979 1.45575 0 1.61458-1.0458.18501-1.8868.99211-2.1254 2.0556l-.0252.11276c-.1952.87008-1.42803.86385-1.61551-.00705l-.02083-.09675c-.22983-1.06762-1.06995-1.88082-2.1176-2.06615-.89608-.15853-.89608-1.45287 0-1.61139 1.04765-.18534 1.88777-.99854 2.1176-2.066158L9.56049.6564ZM8.31766 6.75992c-.1029-.47798-.4265-.84869-.83734-1.01797l-.00006 7.45835c.56085.4973 1.29105.7997 2.09586.7997 1.79618 0 3.22058-1.5061 3.22058-3.3242 0-.0231-.0002-.0462-.0007-.0692l.0213-.0284c-.053-.1911-.1256-.3898-.2134-.5748-.1389-.29301-.289-.49527-.4085-.59305-.2671-.21865-.3064-.61243-.0877-.87952.2186-.2671.6124-.30638.8795-.08773.2024.1657.3752.38048.5193.60935.1315-.4952.2042-1.02077.2042-1.51103 0-.62634-.1206-1.26004-.343-1.83446-.4598.14752-.8309.53794-.9468 1.05452l-.0253.11275c-.489 2.18042-3.58817 2.16077-4.05712-.01755l-.02082-.09676Zm-2.0874 6.44058.00007-7.97418c-.97377-.79946-.97378-2.40321.00002-3.20266l.00001-.41057C5.74738 1.2295 5.14137 1 4.47814 1 2.87938 1 1.61316 2.33358 1.6011 3.9444c.0106.03529.01822.07201.02254.10991.04691.41212.22323.71615.41899.92683.09906.1066.2014.18723.29022.24289.04421.02771.08271.04774.11312.06131.01508.00672.02719.01142.03613.01454.0084.00294.01275.00404.0131.00413.33593.0794.54388.41608.46448.752-.0794.33593-.41608.54388-.75201.46448-.33365-.07886-.74241-.32437-1.08074-.68847-.18577-.19993-.359907-.44558-.495031-.73696C.226836 5.8098 0 6.68252 0 7.54142c0 .45263.0619878.93536.174975 1.39649.216268-.43595.50489-.86883.865365-1.16391.26709-.21865.66087-.17938.87952.08772.21864.2671.17937.66087-.08773.87952-.18119.14833-.38676.43313-.56976.81895-.15976.33683-.281968.70771-.351005 1.04201l.003317.0044c-.000458.023-.000688.0461-.000688.0692C.913994 12.4939 2.33847 14 4.1346 14c.80472 0 1.53483-.3023 2.09566-.7995Z" clip-rule="evenodd"></path>
  </g>
  <defs>
    <linearGradient id="paint0_linear_14402_15591" x1="13.953" x2="-2.626" y1="14.003" y2="4.677" gradientUnits="userSpaceOnUse">
      <stop stop-color="#ff51e3"></stop>
      <stop offset="1" stop-color="#1b4dff"></stop>
    </linearGradient>
  </defs>
</svg>