<svg xmlns="http://www.w3.org/2000/svg" fill="none" viewBox="0 0 14 14" id="Planet--Streamline-Core">
  <desc>
    Planet Streamline Icon: https://streamlinehq.com
  </desc>
  <g id="planet--science-solar-system-ring-planet-saturn-space-astronomy-astronomy">
    <path id="Union" fill="#fddc5c" fill-rule="evenodd" d="M7 1.375C3.8934 1.375 1.375 3.8934 1.375 7S3.8934 12.625 7 12.625 12.625 10.1066 12.625 7 10.1066 1.375 7 1.375Z" clip-rule="evenodd" stroke-width="1"></path>
    <path id="Union_2" fill="#0c098c" fill-rule="evenodd" d="M9.91786 2.19096c0.54954 -0.29099 1.04284 -0.49116 1.45934 -0.59907 0.7148 -0.18524 0.9643 -0.04609 1.0208 0.01031 0.0406 0.04067 0.1395 0.18805 0.0888 0.61631 -0.0495 0.41758 -0.2314 0.9773 -0.5684 1.65126 -0.6703 1.34052 -1.8767 2.97956 -3.47254 4.57531C6.85 10.0408 5.21082 11.2471 3.87019 11.9174c-0.67401 0.337 -1.2338 0.5188 -1.65143 0.5683 -0.42832 0.0508 -0.57576 -0.0481 -0.61645 -0.0888 -0.05636 -0.0564 -0.19549 -0.3057 -0.01041 -1.0202 0.10785 -0.4163 0.30797 -0.9095 0.59894 -1.45905 0.09514 0.15685 0.19826 0.30945 0.30917 0.45735 0.2071 0.2761 0.59885 0.3321 0.875 0.125 0.27614 -0.2071 0.3321 -0.59885 0.125 -0.87499 -0.63188 -0.84251 -0.93865 -1.88466 -0.864 -2.93514 0.07466 -1.05048 0.52573 -2.03878 1.2704 -2.78346 0.74468 -0.74467 1.73298 -1.19574 2.78346 -1.2704 1.05048 -0.07465 2.09263 0.23212 2.93514 0.864 0.27614 0.2071 0.66789 0.15114 0.87499 -0.125 0.2071 -0.27615 0.1511 -0.6679 -0.125 -0.875 -0.1478 -0.11086 -0.3004 -0.21394 -0.45714 -0.30905ZM8.14897 1.4936C9.16323 0.839229 10.1444 0.361776 11.0009 0.13984c0.8355 -0.2164755 1.8069 -0.249041 2.4577 0.401661 0.505 0.504959 0.5941 1.209119 0.5178 1.853559 -0.0777 0.65513 -0.3382 1.38926 -0.7164 2.14557 -0.2095 0.41908 -0.4613 0.85695 -0.7512 1.30656 0.1064 0.50815 0.1424 1.03056 0.1052 1.55244 -0.0669 0.94025 -0.3691 1.84861 -0.8787 2.64157 -0.5097 0.793 -1.2104 1.4453 -2.03788 1.8968 -0.82741 0.4514 -1.755 0.6877 -2.69756 0.6872h0.00041l-0.00025 -0.625 -0.0004 0.625c-0.38783 0.0001 -0.77369 -0.0395 -1.15166 -0.1176 -0.44975 0.29 -0.88777 0.5419 -1.30699 0.7514 -0.75636 0.3782 -1.49053 0.6387 -2.14568 0.7163 -0.64446 0.0764 -1.34863 -0.0128 -1.853603 -0.5177 -0.650639 -0.6506 -0.618212 -1.6218 -0.401866 -2.457 0.221859 -0.8565 0.699321 -1.83767 1.353719 -2.8519 -0.1053 -0.50474 -0.14149 -1.02529 -0.10438 -1.54744 0.09598 -1.35062 0.67593 -2.62129 1.63337 -3.57873 0.95744 -0.95744 2.22811 -1.53739 3.57873 -1.63337 0.52224 -0.03712 1.04289 -0.00091 1.54771 0.10444Z" clip-rule="evenodd" stroke-width="1"></path>
  </g>
</svg>