<svg xmlns="http://www.w3.org/2000/svg" fill="none" viewBox="0 0 14 14" id="Recycle-1--Streamline-Core">
  <desc>
    Recycle 1 Streamline Icon: https://streamlinehq.com
  </desc>
  <g id="recycle-1--nature-sign-environment-protect-save-arrows">
    <path id="Union" fill="#ff7972" fill-rule="evenodd" d="M9.9428 4.54814H6.50958l0.80075 -0.70065L4.54774 0.624512h3.92368l0.92929 1.393918 1.03259 -0.90347 -0.4905 3.43318ZM7.28039 11.2347l1.7166 -2.97323 0.20642 1.04379 4.17249 -0.78095 -1.9618 3.39799 -1.67185 0.1078 0.26615 1.3459 -2.72801 -2.1413ZM4.9559 9.80593l-0.88858 -3.31618 -3.443174 0.41482 1.139934 0.76352L0.658159 8.92648 1.67368 12.7164l2.39819 -3.50258 0.88403 0.59211Z" clip-rule="evenodd" stroke-width="1"></path>
    <path id="Union_2" fill="#0c098c" fill-rule="evenodd" d="M4.5613 -0.00059551h3.91012c0.20897 0 0.40411 0.10443651 0.52003 0.27830951l0.534 0.800986 0.49625 -0.434205c0.1967 -0.17212 0.4797 -0.203652 0.7095 -0.079042s0.3577 0.379039 0.3208 0.637797l-0.4905 3.43317c-0.044 0.3079 -0.3077 0.53661 -0.61871 0.53661H6.50958c-0.26038 0 -0.49348 -0.16143 -0.58506 -0.40517 -0.09159 -0.24375 -0.02246 -0.51873 0.1735 -0.69019l0.33515 -0.29326 -1.74736 -2.03857 -0.7709 1.54177 0.4219 0.21095c0.30874 0.15436 0.43388 0.52978 0.27951 0.83852s-0.52979 0.43388 -0.83852 0.27951l-0.98092 -0.49045c-0.14826 -0.07413 -0.261 -0.20412 -0.31342 -0.36137 -0.05242 -0.15726 -0.04022 -0.3289 0.03391 -0.47716L3.98664 0.349096c0.00748 -0.015243 0.01553 -0.030091 0.02412 -0.044523 0.06803 -0.114491 0.16804 -0.20012 0.2827 -0.2511135 0.0414 -0.0184493 0.08497 -0.0324636 0.12998 -0.0415944 0.04512 -0.00918781 0.09135 -0.01343624 0.13786 -0.01246061ZM9.40074 3.92303H8.19845l-0.41359 -0.48252 -0.00664 -0.00763L5.90664 1.2494h2.23029l0.74375 1.11561 0.00519 0.00766 0.6064 0.9096 -0.09153 0.64076Zm2.68386 1.51141 0.0008 0.0011 1.8064 2.73589c0.1356 0.19817 0.1457 0.45692 0.0254 0.66538l-1.9619 3.39799c-0.1044 0.1809 -0.2925 0.2977 -0.501 0.3112l-0.9607 0.0619 0.1279 0.6469c0.0507 0.2564 -0.0635 0.5173 -0.2863 0.654 -0.2228 0.1366 -0.50709 0.1202 -0.7127 -0.0411l-2.72802 -2.1414c-0.24466 -0.192 -0.31088 -0.5348 -0.15536 -0.8041l1.01184 -1.75256c0.00261 -0.00465 0.00528 -0.00927 0.00801 -0.01385l0.69676 -1.20682c0.13019 -0.22549 0.38654 -0.34665 0.64342 -0.30409 0.25688 0.04256 0.46046 0.23991 0.51097 0.49535l0.08639 0.43688 2.63909 -0.49394 -0.9497 -1.43843 -0.3937 0.2599c-0.288 0.19019 -0.6757 0.11085 -0.8659 -0.1772 -0.1902 -0.28806 -0.1109 -0.67575 0.1772 -0.86594l0.9152 -0.60426c0.2881 -0.19019 0.6757 -0.11085 0.8659 0.1772ZM8.69392 10.0364l0.61447 -0.11502c0.00333 -0.00057 0.00666 -0.00117 0.01 -0.00179l2.83681 -0.53095 -1.1151 1.93146 -1.32777 0.0856c-0.00343 0.0002 -0.00687 0.0004 -0.01031 0.0006l-1.10036 0.071 -0.50898 -0.3995 0.60124 -1.0414ZM3.55617 8.8607l0.35893 -0.52421 -0.31119 -1.16139 -0.6423 0.07738 -0.7281 0.82834 -0.00637 0.00715 -0.87871 0.99984 0.57725 2.15429 1.62868 -2.37875 0.00181 -0.00265Zm1.11485 -2.53272 0.52459 1.95778 0.00246 0.00918 0.36153 1.34923c0.06739 0.25151 -0.02821 0.51843 -0.23994 0.67003 -0.21173 0.1515 -0.49524 0.1559 -0.71158 0.011l-0.37002 -0.2478 -1.51699 2.2156 1.68889 0.3456 0.09457 -0.4621c0.0692 -0.3382 0.39944 -0.5563 0.73761 -0.4871 0.33817 0.0692 0.55621 0.3995 0.48701 0.7377l-0.21987 1.0744c-0.0692 0.3381 -0.39944 0.5562 -0.73761 0.487l-3.2233 -0.6596c-0.24532 -0.0502 -0.42742 -0.2378 -0.48251 -0.4661L0.0544538 9.08824c-0.054086695 -0.20185 -0.0037134 -0.41738 0.1342372 -0.57435l0.635487 -0.72309 -0.547844 -0.36694c-0.2171706 -0.14546 -0.3208876 -0.4107 -0.2599932 -0.66489 0.0608944 -0.25419 0.2735372 -0.44364 0.5330442 -0.47491l3.443175 -0.41483c0.30879 -0.0372 0.59796 0.15832 0.67846 0.45875Z" clip-rule="evenodd" stroke-width="1"></path>
  </g>
</svg>