<svg xmlns="http://www.w3.org/2000/svg" fill="none" viewBox="0 0 14 14" id="Bow--Streamline-Core-Gradient">
  <desc>
    Bow Streamline Icon: https://streamlinehq.com
  </desc>
  <g id="Free Gradient/Entertainment/bow--entertainment-gaming-bow-weapon">
    <path id="Union" fill="url(#paint0_linear_14402_14608)" fill-rule="evenodd" d="M9.03746.808658C9.11485.621821 9.29717.5 9.4994.5h3.5c.2761 0 .5.223858.5.5v3.5c0 .20223-.1218.38455-.3087.46194-.1868.07739-.4019.03461-.5449-.10839l-1.2194-1.21949-1.58798 1.58792C11.091 6.75549 11.5529 8.56114 11.7015 9.99754c.0377.36466.0557.70926.0609 1.02456.0011.0166.0016.0332.0016.05 0 .0101-.0002.0201-.0006.03.0035.3547-.0089.6701-.0269.9324-.0175.2562-.0405.4634-.0594.609-.0095.0728-.0181.1303-.0245.1711-.0032.0203-.0058.0365-.0078.0482l-.0025.0144-.0008.0046-.0003.0017-.0002.0007c0 .0003-.0001.0006-.738-.1336l.7379.1342c-.0741.4075-.4645.6778-.872.6037-.4073-.074-.6776-.4641-.6039-.8714l0-.0002.0001-.0004.0008-.0048.0049-.0302c.0045-.0283.0111-.0729.0189-.132.0154-.1184.0351-.2949.0503-.5175.0025-.0355.0048-.0721.007-.1099l-6.56938 0v.929c0 .3034-.18277.5769-.46307.693-.28029.116-.60291.0518-.81738-.1628L.718948 11.6024c-.214428-.2146-.278533-.5371-.162428-.8173.116106-.2803.389562-.463.69288-.463h.92822V3.75302c-.03764.00217-.0742.00448-.10963.00691-.22253.01525-.39903.03495-.51743.0504-.05915.00772-.10367.01436-.13204.01882l-.03019.00492-.00473.0008-.00047.00009-.00034.00006c-.407234.07361-.79722-.19658-.871288-.60384-.074117-.40753.196166-.79798.603698-.8721l.1342.7379c-.1342-.7379-.13392-.73795-.13363-.738l.00069-.00013.00169-.0003.00465-.00083.01433-.00247c.01177-.002.02792-.00467.04828-.00787.0407-.00641.09824-.01494.17107-.02444.14557-.01899.35272-.04194.60894-.0595.26228-.01798.57766-.03043.93234-.02696.00991-.00038.01986-.00058.02986-.00058.01673 0 .03332.00055.04978.00163.3154.00516.66011.02311 1.02488.06083 1.43636.14853 3.24196.61041 4.77548 1.86297L10.3657 2.5734 9.14584 1.35355c-.143-.143-.18577-.358055-.10838-.544892ZM10.2095 10.1519c.0059.0573.0113.1141.0161.1702l-5.48737 0 4.03265-4.03258c.93318 1.20391 1.31142 2.63245 1.43862 3.86238ZM3.67762 3.77426v5.48717l4.03259-4.03256C6.5063 4.29572 5.07783 3.91758 3.848 3.79041c-.05736-.00593-.11417-.01131-.17038-.01615Z" clip-rule="evenodd"></path>
  </g>
  <defs>
    <linearGradient id="paint0_linear_14402_14608" x1="14.626" x2="-2.91" y1="16.255" y2="3.799" gradientUnits="userSpaceOnUse">
      <stop stop-color="#ffd600"></stop>
      <stop offset="1" stop-color="#ff007a"></stop>
    </linearGradient>
  </defs>
</svg>