<svg xmlns="http://www.w3.org/2000/svg" fill="none" viewBox="0 0 14 14" id="Button-Power-1--Streamline-Core-Gradient">
  <desc>
    Button Power 1 Streamline Icon: https://streamlinehq.com
  </desc>
  <g id="Free Gradient/Entertainment/button-power-1--power-button-on-off">
    <path id="Union" fill="url(#paint0_linear_14402_15255)" fill-rule="evenodd" d="M8 1c0-.552285-.44772-1-1-1S6 .447715 6 1v5c0 .55228.44772 1 1 1s1-.44772 1-1V1ZM3.92308 3.05886c.43532-.33987.51271-.96829.17284-1.40361-.33987-.43533-.96829-.51271-1.40361-.17285C1.54339 2.37939.703135 3.61265.288786 5.01012-.125563 6.40758-.0933357 7.89953.38097 9.27781.855276 10.6561 1.748 11.8519 2.93458 12.6984 4.12116 13.545 5.5424 14 7 14c1.4576 0 2.87884-.455 4.0654-1.3016 1.1866-.8465 2.0793-2.0423 2.5536-3.42059.4743-1.37827.5066-2.87023.0922-4.26769-.4143-1.39747-1.2546-2.63073-2.4035-3.52772-.4353-.33986-1.0638-.26248-1.40362.17285-.33987.43532-.26248 1.06374.17282 1.40361.8207.6407 1.4209 1.5216 1.7168 2.51979.296.99819.273 2.06387-.0658 3.04835s-.9765 1.8386-1.82403 2.4433C9.05632 11.675 8.04114 12 7 12s-2.05632-.325-2.90387-.9297c-.84756-.6047-1.48522-1.45882-1.82401-2.4433-.33879-.98448-.36181-2.05016-.06584-3.04835.29596-.99819.89614-1.87909 1.7168-2.51979Z" clip-rule="evenodd"></path>
  </g>
  <defs>
    <linearGradient id="paint0_linear_14402_15255" x1=".538" x2="16.494" y1="1.131" y2="10.125" gradientUnits="userSpaceOnUse">
      <stop stop-color="#00d078"></stop>
      <stop offset="1" stop-color="#007df0"></stop>
    </linearGradient>
  </defs>
</svg>