<svg xmlns="http://www.w3.org/2000/svg" fill="none" viewBox="0 0 14 14" id="Play-List-Folder--Streamline-Core-Gradient">
  <desc>
    Play List Folder Streamline Icon: https://streamlinehq.com
  </desc>
  <g id="Free Gradient/Entertainment/play-list-folder--player-television-movies-slider-media-tv-players-video">
    <path id="Union" fill="url(#paint0_linear_14402_14973)" fill-rule="evenodd" d="M1.5 0C.671573 0 0 .671573 0 1.5v9c0 .8284.671573 1.5 1.5 1.5h4.76027c.09871-1.1966.89964-2.194 1.98973-2.57929V7.74999c0-1.05777.82364-1.93263 1.8795-1.99637.6497-.03922 1.3007.05329 1.9138.27197.613.21869 1.1756.55904 1.6538 1.00061.1057.09754.2067.19957.3029.30576V3.5c0-.82843-.6716-1.5-1.5-1.5H6.39039l-.21595-.8638C6.0075.468445 5.40753 0 4.71922 0H1.5ZM11 8.57722c.0401.01163.0799.02449.1193.03856.2641.09417.5063.24074.7123.4309.2059.19016.3713.41998.4862.67566.1149.25569.1769.53196.1823.81226.0081.4141.3503.7433.7644.7353.4142-.0081.7434-.3503.7354-.7644-.0094-.4824-.1161-.95789-.3139-1.39796-.1977-.44007-.4824-.83564-.8369-1.16293-.3544-.32729-.7714-.57955-1.2258-.74165-.4544-.16209-.9369-.23065-1.4185-.20158-.39594.0239-.7048.35197-.7048.74864v2.76778c-.08165-.0117-.16512-.0178-.25-.0178-.9665 0-1.75.7835-1.75 1.75S8.2835 14 9.25 14 11 13.2165 11 12.25V8.57722Z" clip-rule="evenodd"></path>
  </g>
  <defs>
    <linearGradient id="paint0_linear_14402_14973" x1="2.288" x2="13.596" y1="2.692" y2="8.957" gradientUnits="userSpaceOnUse">
      <stop stop-color="#ffd600"></stop>
      <stop offset="1" stop-color="#00d078"></stop>
    </linearGradient>
  </defs>
</svg>