<svg xmlns="http://www.w3.org/2000/svg" fill="none" viewBox="0 0 14 14" id="Play-List-5--Streamline-Core-Gradient">
  <desc>
    Play List 5 Streamline Icon: https://streamlinehq.com
  </desc>
  <g id="Free Gradient/Entertainment/play-list-5--player-television-movies-slider-media-tv-players-video-stack-entertainment">
    <path id="Subtract" fill="url(#paint0_linear_14402_14952)" fill-rule="evenodd" d="M1.92857.5C1.13959.5.5 1.13959.5 1.92857v7.64286C.5 10.3604 1.13959 11 1.92857 11h7.64286C10.3604 11 11 10.3604 11 9.57143V1.92857C11 1.13959 10.3604.5 9.57143.5H1.92857ZM12.75 3c.4142 0 .75.33579.75.75v8c0 .4641-.1844.9092-.5126 1.2374-.3282.3282-.7733.5126-1.2374.5126h-8c-.41421 0-.75-.3358-.75-.75s.33579-.75.75-.75h8c.0663 0 .1299-.0263.1768-.0732.0469-.0469.0732-.1105.0732-.1768v-8c0-.41421.3358-.75.75-.75Zm-7.8604-.13153c.1185-.11738.27899-.18252.44578-.18094.68779.00653 1.35694.22447 1.91665.62426.55971.3998.98289.96209 1.21214 1.61059.11504.32544-.05552.68253-.38096.79757-.32544.11505-.68253-.05552-.79757-.38096-.14377-.40669-.40915-.75931-.76016-1.01003-.17555-.12539-.36827-.22226-.57104-.28828v3.27651l.00011.01803c0 .81587-.6614 1.47727-1.47727 1.47727C3.6614 8.81249 3 8.15109 3 7.33522c0-.81588.6614-1.47728 1.47728-1.47728.07725 0 .15311.00593.22716.01736V3.3125c0-.16679.06667-.32666.18516-.44403Z" clip-rule="evenodd"></path>
  </g>
  <defs>
    <linearGradient id="paint0_linear_14402_14952" x1="2.625" x2="13.125" y1="3" y2="8.818" gradientUnits="userSpaceOnUse">
      <stop stop-color="#ffd600"></stop>
      <stop offset="1" stop-color="#00d078"></stop>
    </linearGradient>
  </defs>
</svg>