<svg xmlns="http://www.w3.org/2000/svg" fill="none" viewBox="0 0 24 24" id="Bootstrap-Logo--Streamline-Logos">
  <desc>
    Bootstrap Logo Streamline Icon: https://streamlinehq.com
  </desc>
  <path stroke="#000000" stroke-linejoin="round" d="M9 12V7.5h3.75a2.25 2.25 0 0 1 0 4.5H9Z" stroke-width="1"></path>
  <path stroke="#000000" stroke-linejoin="round" d="M9 16.5V12h4.75a2.25 2.25 0 0 1 0 4.5H9Z" stroke-width="1"></path>
  <path stroke="#000000" stroke-linejoin="round" d="M4 8.307V5a1 1 0 0 1 1 -1h14a1 1 0 0 1 1 1v3.307c0 1.627 0.99 3.089 2.5 3.693a3.977 3.977 0 0 0 -2.5 3.693V19a1 1 0 0 1 -1 1H5a1 1 0 0 1 -1 -1v-3.307c0 -1.627 -0.99 -3.089 -2.5 -3.693A3.977 3.977 0 0 0 4 8.307Z" stroke-width="1"></path>
</svg>