<svg xmlns="http://www.w3.org/2000/svg" fill="none" viewBox="0 0 14 14" id="Call-Center-Support-Service--Streamline-Core-Neon">
  <desc>
    Call Center Support Service Streamline Icon: https://streamlinehq.com
  </desc>
  <g id="call-center-support-service">
    <path id="vector" stroke="#c71dff" stroke-linecap="round" stroke-linejoin="round" d="M7.47067 13.0702c0.5184 0.3338 1.13544 0.4801 1.74852 0.4146 0.61309 -0.0655 1.18531 -0.3389 1.62151 -0.7746l0.38 -0.38c0.1685 -0.1704 0.2631 -0.4004 0.2631 -0.64 0 -0.2397 -0.0946 -0.4697 -0.2631 -0.64L9.62067 9.46015c-0.16867 -0.16793 -0.39699 -0.26221 -0.635 -0.26221s-0.46633 0.09428 -0.635 0.26221v0c-0.17037 0.16855 -0.40035 0.26309 -0.64 0.26309 -0.23965 0 -0.46963 -0.09454 -0.64 -0.26309l-2.55 -2.55c-0.16855 -0.17036 -0.26308 -0.40034 -0.26308 -0.64 0 -0.23965 0.09453 -0.46963 0.26308 -0.64v0c0.16793 -0.16866 0.26221 -0.39698 0.26221 -0.635 0 -0.23801 -0.09428 -0.46633 -0.26221 -0.635l-1.54 -1.6c-0.17037 -0.16854 -0.40035 -0.26308 -0.64 -0.26308 -0.23965 0 -0.46963 0.09454 -0.64 0.26308l-0.38 0.38c-0.443593 0.43004 -0.726287 0.9992 -0.800902 1.61251 -0.074616 0.6133 0.063361 1.23364 0.390903 1.75749C2.6544 9.09894 4.88189 11.3264 7.47067 13.0702v0Z" stroke-width="1"></path>
    <path id="vector 7" stroke="#000cfe" stroke-linecap="round" stroke-linejoin="round" d="M12.9073 3.16698H10.752c-0.1189 0 -0.2154 -0.09644 -0.2154 -0.2154 0 -0.05217 0.019 -0.10257 0.0533 -0.14184L12.55 0.569609C12.5887 0.525374 12.6447 0.5 12.7034 0.5c0.1126 0 0.2039 0.091261 0.2039 0.203837V3.16698Zm0 0h0.5926m-0.5926 0v0.88899" stroke-width="1"></path>
    <path id="vector 3" stroke="#000cfe" stroke-linecap="round" stroke-linejoin="round" d="M8.85087 4.05598H6.48022v-0.50514c0 -0.3532 0.20909 -0.67289 0.53267 -0.81446l1.31913 -0.57712c0.31519 -0.13789 0.51885 -0.4493 0.51885 -0.79333C8.85087 0.887691 8.46318 0.5 7.98494 0.5h-0.61572c-0.38707 0 -0.71637 0.24738 -0.83841 0.59266" stroke-width="1"></path>
  </g>
</svg>