<svg xmlns="http://www.w3.org/2000/svg" fill="none" viewBox="0 0 14 14" id="Flu-Mask--Streamline-Core-Neon">
  <desc>
    Flu Mask Streamline Icon: https://streamlinehq.com
  </desc>
  <g id="flu-mask--health-medical-hospital-mask-flu-vaccine-protection">
    <path id="Vector" stroke="#000cfe" stroke-linecap="round" stroke-linejoin="round" d="M6 6.5h2" stroke-width="1"></path>
    <path id="Vector_2" stroke="#000cfe" stroke-linecap="round" stroke-linejoin="round" d="M6 9h2" stroke-width="1"></path>
    <path id="Vector 5" stroke="#000cfe" stroke-linecap="round" stroke-linejoin="round" d="M3.5 10.121 1.32964 7.95069C0.798431 7.41948 0.5 6.699 0.5 5.94775v-0.62414c0 -0.44517 0.197734 -0.86734 0.53972 -1.15233 0.55627 -0.46356 1.36429 -0.46356 1.92056 0L3.5 4.62105" stroke-width="1"></path>
    <path id="Vector 6" stroke="#000cfe" stroke-linecap="round" stroke-linejoin="round" d="m10.5 10.121 2.1704 -2.17031c0.5312 -0.53121 0.8296 -1.25169 0.8296 -2.00294v-0.62414c0 -0.44517 -0.1977 -0.86734 -0.5397 -1.15233 -0.5563 -0.46356 -1.3643 -0.46356 -1.9206 0l-0.5397 0.44977" stroke-width="1"></path>
    <path id="Vector_3" stroke="#c71dff" stroke-linecap="round" stroke-linejoin="round" d="M6.99999 11.6211c2.5 0 3.50001 -1.4982 3.50001 -1.4982V4.63269c-1.5 0 -2.25 -2.25378 -3.49999 -2.25378 -1.25 0 -1.96876 2.25378 -3.50001 2.25378v5.49021s0.99999 1.4982 3.49999 1.4982Z" stroke-width="1"></path>
  </g>
</svg>