<svg xmlns="http://www.w3.org/2000/svg" fill="none" viewBox="0 0 24 24" id="Shipping-Truck-Style-2--Streamline-Ultimate">
  <desc>
    Shipping Truck Style 2 Streamline Icon: https://streamlinehq.com
  </desc>
  <path stroke="#000000" stroke-linecap="round" stroke-linejoin="round" stroke-miterlimit="10" d="M15.75 7.5h2c0.3 0 0.6 0.19999 0.8 0.39999L20.25 10.5l2.3 0.8c0.4 0.1 0.7 0.5 0.7 0.9v4.3c0 0.5 -0.4 1 -1 1h-2.9881" stroke-width="1.5"></path>
  <path stroke="#000000" stroke-linecap="round" stroke-linejoin="round" stroke-miterlimit="10" d="M17.25 19.5c1.1046 0 2 -0.8954 2 -2s-0.8954 -2 -2 -2 -2 0.8954 -2 2 0.8954 2 2 2Z" stroke-width="1.5"></path>
  <path stroke="#000000" stroke-linecap="round" stroke-linejoin="round" stroke-miterlimit="10" d="M15.75 16.191V5.5c0 -0.6 -0.4 -1 -1 -1h-13c-0.6 0 -1 0.4 -1 1v11c0 0.5 0.4 1 1 1h1.49724m11.99696 0h-3.9967" stroke-width="1.5"></path>
  <path stroke="#000000" stroke-linecap="round" stroke-linejoin="round" stroke-miterlimit="10" d="M5.25 19.5c1.10457 0 2 -0.8954 2 -2s-0.89543 -2 -2 -2 -2 0.8954 -2 2 0.89543 2 2 2Z" stroke-width="1.5"></path>
  <path stroke="#000000" stroke-linecap="round" stroke-linejoin="round" stroke-miterlimit="10" d="M9.25 19.5c1.1046 0 2 -0.8954 2 -2s-0.8954 -2 -2 -2c-1.10457 0 -2 0.8954 -2 2s0.89543 2 2 2Z" stroke-width="1.5"></path>
  <path stroke="#000000" stroke-linecap="round" stroke-linejoin="round" stroke-miterlimit="10" d="M5.25 4.5v7" stroke-width="1.5"></path>
  <path stroke="#000000" stroke-linecap="round" stroke-linejoin="round" stroke-miterlimit="10" d="M10.25 4.5v7" stroke-width="1.5"></path>
</svg>