<svg xmlns="http://www.w3.org/2000/svg" fill="none" viewBox="0 0 24 24" id="Warehouse-Cart-Packages-2--Streamline-Ultimate">
  <desc>
    Warehouse Cart Packages 2 Streamline Icon: https://streamlinehq.com
  </desc>
  <path stroke="#000000" stroke-linecap="round" stroke-linejoin="round" d="M0.755981 16.5H16.714c0.3596 0.0006 0.7075 -0.128 0.9803 -0.3624 0.2727 -0.2344 0.4522 -0.559 0.5057 -0.9146l1.864 -12.446c0.0534 -0.35513 0.2324 -0.67933 0.5045 -0.91366 0.2722 -0.23434 0.6194 -0.36326 0.9785 -0.36334h1.709" stroke-width="1.5"></path>
  <path stroke="#000000" stroke-linecap="round" stroke-linejoin="round" d="M3.00598 7.5h4.5s0.75 0 0.75 0.75v4.5s0 0.75 -0.75 0.75h-4.5s-0.75 0 -0.75 -0.75v-4.5s0 -0.75 0.75 -0.75Z" stroke-width="1.5"></path>
  <path stroke="#000000" stroke-linecap="round" stroke-linejoin="round" d="M9.00598 4.5H15.006s0.75 0 0.75 0.75v7.5s0 0.75 -0.75 0.75H9.00598s-0.75 0 -0.75 -0.75v-7.5s0 -0.75 0.75 -0.75Z" stroke-width="1.5"></path>
  <path stroke="#000000" stroke-linecap="round" stroke-linejoin="round" d="M2.25598 20.625c0 0.2462 0.0485 0.49 0.14273 0.7175 0.09422 0.2275 0.23234 0.4342 0.40645 0.6083 0.17411 0.1741 0.3808 0.3122 0.60829 0.4065 0.22749 0.0942 0.4713 0.1427 0.71753 0.1427s0.49005 -0.0485 0.71753 -0.1427c0.22749 -0.0943 0.43419 -0.2324 0.6083 -0.4065 0.17411 -0.1741 0.31222 -0.3808 0.40645 -0.6083 0.09422 -0.2275 0.14272 -0.4713 0.14272 -0.7175 0 -0.4973 -0.19754 -0.9742 -0.54917 -1.3258 -0.35163 -0.3517 -0.82855 -0.5492 -1.32583 -0.5492 -0.49728 0 -0.97419 0.1975 -1.32582 0.5492 -0.35163 0.3516 -0.54918 0.8285 -0.54918 1.3258Z" stroke-width="1.5"></path>
  <path stroke="#000000" stroke-linecap="round" stroke-linejoin="round" d="M12.756 20.625c0 0.4973 0.1975 0.9742 0.5492 1.3258 0.3516 0.3517 0.8285 0.5492 1.3258 0.5492 0.4973 0 0.9742 -0.1975 1.3258 -0.5492 0.3516 -0.3516 0.5492 -0.8285 0.5492 -1.3258 0 -0.4973 -0.1976 -0.9742 -0.5492 -1.3258 -0.3516 -0.3517 -0.8285 -0.5492 -1.3258 -0.5492 -0.4973 0 -0.9742 0.1975 -1.3258 0.5492 -0.3517 0.3516 -0.5492 0.8285 -0.5492 1.3258Z" stroke-width="1.5"></path>
</svg>