<svg xmlns="http://www.w3.org/2000/svg" viewBox="0 0 14 14">
  <g>
    <path d="M6.37,3.1a2,2,0,0,1,1.26,0L10.42,4a.24.24,0,0,0,.33-.24V2a.77.77,0,0,0-.11-.39A4.14,4.14,0,0,0,7,0,4.14,4.14,0,0,0,3.36,1.61.77.77,0,0,0,3.25,2V3.79A.24.24,0,0,0,3.58,4Z" style="fill: #000001"/>
    <path d="M2.11,8.87A.23.23,0,0,0,2.22,9a.28.28,0,0,0,.2,0A2.2,2.2,0,0,1,3,9l.32,0A.23.23,0,0,0,3.53,9a.21.21,0,0,0,.07-.21L3.37,7.22a.25.25,0,0,1,.17-.28l3.13-1a.27.27,0,0,1,.23,0,.28.28,0,0,1,.1.21V8.76A.25.25,0,0,0,7.22,9,2.24,2.24,0,0,1,8.8,9.9a.25.25,0,0,0,.4,0A2.23,2.23,0,0,1,11,9a2.2,2.2,0,0,1,.58.08.28.28,0,0,0,.2,0,.23.23,0,0,0,.11-.17l.35-2.26a.74.74,0,0,0-.5-.82l-4.5-1.5a.79.79,0,0,0-.48,0l-4.5,1.5a.74.74,0,0,0-.5.82Z" style="fill: #000001"/>
    <path d="M13.25,14H13a2.75,2.75,0,0,1-1.83-.7.25.25,0,0,0-.34,0,2.74,2.74,0,0,1-3.66,0,.25.25,0,0,0-.34,0,2.74,2.74,0,0,1-3.66,0,.25.25,0,0,0-.34,0A2.75,2.75,0,0,1,1,14H.75a.75.75,0,0,1,0-1.5H1a1.25,1.25,0,0,0,1.25-1.25.75.75,0,0,1,1.5,0,1.25,1.25,0,0,0,2.5,0,.75.75,0,0,1,1.5,0,1.25,1.25,0,0,0,2.5,0,.75.75,0,0,1,1.5,0A1.25,1.25,0,0,0,13,12.5h.25a.75.75,0,0,1,0,1.5Z" style="fill: #000001"/>
  </g>
</svg>
