<svg xmlns="http://www.w3.org/2000/svg" fill="none" viewBox="0 0 48 48" id="Cigarette--Streamline-Kameleon">
  <desc>
    Cigarette Streamline Icon: https://streamlinehq.com
  </desc>
  <path fill="#deeeff" d="M23.9989 47.9988c13.2548 0 23.9999 -10.7451 23.9999 -23.9999S37.2537 -0.000976562 23.9989 -0.000976562 -0.000976562 10.7441 -0.000976562 23.9989c0 13.2548 10.745076562 23.9999 23.999876562 23.9999Z" stroke-width="1"></path>
  <path fill="#2e3ecd" d="M26.8904 20.7625 13.6748 33.8271l1.7071 1.7263 1.6149 1.6337L30.212 24.1224l-3.3216 -3.3599Z" stroke-width="1"></path>
  <path fill="#2e3ecd" d="m33.5372 14.1953 -6.6456 6.569 3.3216 3.3604 6.6456 -6.569 -3.3216 -3.3604Z" stroke-width="1"></path>
  <path fill="#6bafff" d="M14.7835 10.908s-1.7454 3.4909 -1.7454 6.9817c0 6.1091 3.0545 5.6727 1.7454 12.2182 0.8728 -0.8728 3.4909 -3.9273 3.4909 -6.9818 0 -3.518 -3.4909 -5.2364 -3.4909 -12.2181Z" stroke-width="1"></path>
  <path fill="#6bafff" d="M11.8253 23.1262s-1.3536 2.0068 -1.3536 3.5935c0 2.777 1.2576 3.3883 1.3536 5.1337 0.3966 -0.3966 1.2135 -2.2049 1.2135 -3.5934 -0.0004 -1.6429 -1.2135 -2.5671 -1.2135 -5.1338Z" stroke-width="1"></path>
  <path fill="#6bafff" d="m14.7963 32.71 -1.1303 1.1172 3.3216 3.3604 1.1303 -1.1173 -3.3216 -3.3603Z" stroke-width="1"></path>
  <path fill="#6bafff" d="M31.8682 20.8309c0.2411 0 0.4366 -0.1955 0.4366 -0.4366 0 -0.241 -0.1955 -0.4365 -0.4366 -0.4365 -0.2411 0 -0.4366 0.1955 -0.4366 0.4365 0 0.2411 0.1955 0.4366 0.4366 0.4366Z" stroke-width="1"></path>
  <path fill="#6bafff" d="M30.627 22.0582c0.2411 0 0.4366 -0.1955 0.4366 -0.4366 0 -0.2411 -0.1955 -0.4365 -0.4366 -0.4365 -0.2411 0 -0.4366 0.1954 -0.4366 0.4365s0.1955 0.4366 0.4366 0.4366Z" stroke-width="1"></path>
  <path fill="#6bafff" d="M34.3506 18.377c0.2411 0 0.4366 -0.1954 0.4366 -0.4365s-0.1955 -0.4366 -0.4366 -0.4366c-0.2411 0 -0.4365 0.1955 -0.4365 0.4366 0 0.2411 0.1954 0.4365 0.4365 0.4365Z" stroke-width="1"></path>
  <path fill="#6bafff" d="M33.1094 19.6038c0.2411 0 0.4366 -0.1954 0.4366 -0.4365s-0.1955 -0.4366 -0.4366 -0.4366c-0.2411 0 -0.4365 0.1955 -0.4365 0.4366 0 0.2411 0.1954 0.4365 0.4365 0.4365Z" stroke-width="1"></path>
  <path fill="#6bafff" d="M30.6407 19.5897c0.2411 0 0.4365 -0.1955 0.4365 -0.4366 0 -0.2411 -0.1954 -0.4365 -0.4365 -0.4365s-0.4366 0.1954 -0.4366 0.4365 0.1955 0.4366 0.4366 0.4366Z" stroke-width="1"></path>
  <path fill="#6bafff" d="M29.3995 20.8162c0.2411 0 0.4365 -0.1954 0.4365 -0.4365s-0.1954 -0.4366 -0.4365 -0.4366c-0.2412 0 -0.4366 0.1955 -0.4366 0.4366 0 0.2411 0.1954 0.4365 0.4366 0.4365Z" stroke-width="1"></path>
  <path fill="#6bafff" d="M33.1231 17.1358c0.2411 0 0.4366 -0.1954 0.4366 -0.4365 0 -0.2412 -0.1955 -0.4366 -0.4366 -0.4366 -0.2411 0 -0.4366 0.1954 -0.4366 0.4366 0 0.2411 0.1955 0.4365 0.4366 0.4365Z" stroke-width="1"></path>
  <path fill="#6bafff" d="M31.8829 18.3624c0.241 0 0.4365 -0.1955 0.4365 -0.4366 0 -0.2411 -0.1955 -0.4365 -0.4365 -0.4365 -0.2412 0 -0.4366 0.1954 -0.4366 0.4365s0.1954 0.4366 0.4366 0.4366Z" stroke-width="1"></path>
</svg>