<svg xmlns="http://www.w3.org/2000/svg" fill="none" viewBox="0 0 48 48" id="Keyboard--Streamline-Kameleon">
  <desc>
    Keyboard Streamline Icon: https://streamlinehq.com
  </desc>
  <path fill="#deeeff" d="M23.9979 47.9978c13.2548 0 23.9999 -10.7451 23.9999 -23.9999S37.2527 -0.00195312 23.9979 -0.00195312 -0.00195312 10.7431 -0.00195312 23.9979c0 13.2548 10.74505312 23.9999 23.99985312 23.9999Z" stroke-width="1"></path>
  <path fill="#2e3ecd" d="M36.2155 21.3797H11.7793v-8.7272c0 -0.4822 0.3905 -0.8727 0.8727 -0.8727h22.6908c0.4822 0 0.8727 0.3905 0.8727 0.8727v8.7272Z" stroke-width="1"></path>
  <path fill="#6bafff" d="M36.2155 36.2152c0 0.4822 -0.3905 0.8727 -0.8727 0.8727H12.652c-0.4822 0 -0.8727 -0.3905 -0.8727 -0.8727V21.3789h24.4362v14.8363Z" stroke-width="1"></path>
  <path fill="#6bafff" d="M30.9792 17.8885c0 0.4822 -0.3906 0.8727 -0.8727 0.8727h-6.9818c-0.4822 0 -0.8727 -0.3905 -0.8727 -0.8727v-3.4909c0 -0.4822 0.3905 -0.8727 0.8727 -0.8727h6.9818c0.4821 0 0.8727 0.3905 0.8727 0.8727v3.4909Z" stroke-width="1"></path>
  <path fill="#6bafff" d="M33.5979 15.2695c0.4818 0 0.8723 -0.3905 0.8723 -0.8723 0 -0.4818 -0.3905 -0.8723 -0.8723 -0.8723 -0.4818 0 -0.8723 0.3905 -0.8723 0.8723 0 0.4818 0.3905 0.8723 0.8723 0.8723Z" stroke-width="1"></path>
  <path fill="#6bafff" d="M33.5979 18.7603c0.4818 0 0.8723 -0.3906 0.8723 -0.8724 0 -0.4817 -0.3905 -0.8723 -0.8723 -0.8723 -0.4818 0 -0.8723 0.3906 -0.8723 0.8723 0 0.4818 0.3905 0.8724 0.8723 0.8724Z" stroke-width="1"></path>
  <path fill="#6bafff" d="M17.0163 14.834c0 0.2409 -0.1955 0.4363 -0.4364 0.4363h-2.6181c-0.2409 0 -0.4364 -0.1954 -0.4364 -0.4363v-0.8727c0 -0.2409 0.1955 -0.4364 0.4364 -0.4364h2.6181c0.2409 0 0.4364 0.1955 0.4364 0.4364v0.8727Z" stroke-width="1"></path>
  <path fill="#6bafff" d="M17.0163 18.3247c0 0.2409 -0.1955 0.4364 -0.4364 0.4364h-2.6181c-0.2409 0 -0.4364 -0.1955 -0.4364 -0.4364v-0.8727c0 -0.2409 0.1955 -0.4364 0.4364 -0.4364h2.6181c0.2409 0 0.4364 0.1955 0.4364 0.4364v0.8727Z" stroke-width="1"></path>
  <path fill="#6bafff" d="M20.5072 17.8885c0 0.4822 -0.3906 0.8727 -0.8728 0.8727 -0.4821 0 -0.8727 -0.3905 -0.8727 -0.8727v-3.4909c0 -0.4822 0.3906 -0.8727 0.8727 -0.8727 0.4822 0 0.8728 0.3905 0.8728 0.8727v3.4909Z" stroke-width="1"></path>
  <path fill="#2e3ecd" d="M32.2881 21.3789h-2.6182v11.3454h0.8732v4.3636h0.8727v-4.3636h0.8723V21.3789Z" stroke-width="1"></path>
  <path fill="#2e3ecd" d="M25.3066 21.3789h-2.6181v11.3454h0.8731v4.3636h0.8728v-4.3636h0.8722V21.3789Z" stroke-width="1"></path>
  <path fill="#2e3ecd" d="M18.3252 21.3789H15.707v11.3454h0.8732v4.3636h0.8727v-4.3636h0.8723V21.3789Z" stroke-width="1"></path>
</svg>