<svg xmlns="http://www.w3.org/2000/svg" fill="none" viewBox="0 0 48 48" id="Movie-Film--Streamline-Kameleon">
  <desc>
    Movie Film Streamline Icon: https://streamlinehq.com
  </desc>
  <path fill="#deeeff" d="M23.9999 47.9973c13.2548 0 23.9998 -10.7451 23.9998 -23.9999 0 -13.2547 -10.745 -23.99984141 -23.9998 -23.99984141C10.7451 -0.00244141 0 10.7427 0 23.9974c0 13.2548 10.7451 23.9999 23.9999 23.9999Z" stroke-width="1"></path>
  <path fill="#2e3ecd" d="M10.0361 10.9062v26.1817h27.9272V10.9062H10.0361Zm3.4909 24.4363h-1.7454V33.597h1.7454v1.7455Zm0 -3.4909h-1.7454v-1.7455h1.7454v1.7455Zm0 -3.4909h-1.7454v-1.7454h1.7454v1.7454Zm0 -3.4909h-1.7454v-1.7454h1.7454v1.7454Zm0 -3.4909h-1.7454v-1.7454h1.7454v1.7454Zm0 -3.4909h-1.7454v-1.7454h1.7454v1.7454Zm0 -3.4909h-1.7454v-1.7454h1.7454v1.7454Zm22.6908 20.9454h-1.7454V33.597h1.7454v1.7455Zm0 -3.4909h-1.7454v-1.7455h1.7454v1.7455Zm0 -3.4909h-1.7454v-1.7454h1.7454v1.7454Zm0 -3.4909h-1.7454v-1.7454h1.7454v1.7454Zm0 -3.4909h-1.7454v-1.7454h1.7454v1.7454Zm0 -3.4909h-1.7454v-1.7454h1.7454v1.7454Zm0 -3.4909h-1.7454v-1.7454h1.7454v1.7454Z" stroke-width="1"></path>
  <path fill="#6bafff" d="M32.7269 32.2881H15.2725v4.8h17.4544v-4.8Z" stroke-width="1"></path>
  <path fill="#6bafff" d="M32.7269 10.9062H15.2725v4.8h17.4544v-4.8Z" stroke-width="1"></path>
  <path fill="#6bafff" d="M32.7269 18.3247H15.2725v11.3454h17.4544V18.3247Z" stroke-width="1"></path>
</svg>