<svg xmlns="http://www.w3.org/2000/svg" fill="none" viewBox="0 0 24 24" id="Github-Logo-2--Streamline-Logos-Block">
  <desc>
    Github Logo 2 Streamline Icon: https://streamlinehq.com
  </desc>
  <path fill="#000000" fill-rule="evenodd" d="M5 1a4 4 0 0 0 -4 4v14a4 4 0 0 0 4 4h14a4 4 0 0 0 4 -4V5a4 4 0 0 0 -4 -4H5Zm1.815 5.11a7.99 7.99 0 0 1 5.182 -1.903 7.99 7.99 0 0 1 2.531 15.572c-0.405 0.077 -0.535 -0.159 -0.535 -0.372v-2.212a1.893 1.893 0 0 0 -0.546 -1.473c1.78 -0.197 3.648 -0.871 3.648 -3.942a3.086 3.086 0 0 0 -0.822 -2.146 2.87 2.87 0 0 0 -0.08 -2.114s-0.666 -0.214 -2.194 0.82a7.561 7.561 0 0 0 -4.002 0C8.472 7.306 7.8 7.52 7.8 7.52a2.867 2.867 0 0 0 -0.078 2.114 3.09 3.09 0 0 0 -0.823 2.144c0 3.063 1.866 3.748 3.64 3.95a1.705 1.705 0 0 0 -0.508 1.065 1.702 1.702 0 0 1 -2.325 -0.664 1.678 1.678 0 0 0 -1.224 -0.823s-0.78 -0.01 -0.054 0.487c0.426 0.271 0.74 0.686 0.887 1.168 0 0 0.459 1.535 2.682 1.053 0.003 0.504 0.002 0.929 0 1.19l0 0.2c0 0.21 -0.126 0.445 -0.525 0.375A7.99 7.99 0 0 1 6.815 6.11Z" clip-rule="evenodd" stroke-width="1"></path>
</svg>