<svg xmlns="http://www.w3.org/2000/svg" fill="none" viewBox="0 0 48 48" id="Browser-Website-1--Streamline-Plump">
  <desc>
    Browser Website 1 Streamline Icon: https://streamlinehq.com
  </desc>
  <g id="browser-website-1--app-code-apps-window-website-web">
    <path id="Rectangle 1096" stroke="#000000" stroke-linejoin="round" d="M3.539 39.743c0.208 2.555 2.163 4.51 4.718 4.718C11.485 44.723 16.636 45 24 45c7.364 0 12.515 -0.277 15.743 -0.539 2.555 -0.208 4.51 -2.163 4.718 -4.718C44.723 36.515 45 31.364 45 24c0 -7.364 -0.277 -12.515 -0.539 -15.743 -0.208 -2.555 -2.163 -4.51 -4.718 -4.718C36.515 3.277 31.364 3 24 3c-7.364 0 -12.515 0.277 -15.743 0.539 -2.555 0.208 -4.51 2.163 -4.718 4.718C3.277 11.485 3 16.636 3 24c0 7.364 0.277 12.515 0.539 15.743Z" stroke-width="1"></path>
    <path id="Vector 146" stroke="#000000" stroke-linecap="round" d="m3.5 13.5 41 0" stroke-width="1"></path>
    <path id="Vector 1501" stroke="#000000" stroke-linecap="round" stroke-linejoin="round" d="M10 8.5h2" stroke-width="1"></path>
    <path id="Vector 1502" stroke="#000000" stroke-linecap="round" stroke-linejoin="round" d="M18 8.5h2" stroke-width="1"></path>
  </g>
</svg>