<svg xmlns="http://www.w3.org/2000/svg" fill="none" viewBox="0 0 48 48" id="Threat-Phone--Streamline-Plump">
  <desc>
    Threat Phone Streamline Icon: https://streamlinehq.com
  </desc>
  <g id="threat-phone--bug-phone-file-threat-danger-mobile">
    <path id="Rectangle 1095" stroke="#000000" stroke-linecap="round" stroke-linejoin="round" d="M32.935 31a228.45 228.45 0 0 1 -0.324 8.807c-0.147 2.52 -1.973 4.53 -4.487 4.771C25.809 44.8 22.477 45 18 45s-7.81 -0.2 -10.124 -0.422c-2.514 -0.24 -4.34 -2.25 -4.487 -4.771C3.2 36.583 3 31.413 3 24s0.2 -12.583 0.389 -15.807c0.147 -2.52 1.973 -4.53 4.487 -4.771C10.191 3.2 13.523 3 18 3a117.867 117.867 0 0 1 8.5 0.285" stroke-width="1"></path>
    <path id="Intersect" stroke="#000000" stroke-linecap="round" stroke-linejoin="round" d="m12.266 3.122 0.406 3.25A3 3 0 0 0 15.649 9h4.703a3 3 0 0 0 2.977 -2.627l0.406 -3.25" stroke-width="1"></path>
    <path id="Vector 1363" stroke="#000000" stroke-linecap="round" d="M16 40h4" stroke-width="1"></path>
    <path id="Rectangle 128" stroke="#000000" d="M27.033 25.766c-2.918 -0.203 -4.717 -2.66 -3.653 -5.385 0.667 -1.706 1.655 -3.927 3.12 -6.764 1.53 -2.962 2.886 -5.252 4.01 -6.986 1.762 -2.716 5.218 -2.716 6.98 0 1.124 1.734 2.48 4.024 4.01 6.986 1.466 2.837 2.454 5.058 3.12 6.764 1.065 2.724 -0.735 5.182 -3.653 5.385A100.4 100.4 0 0 1 34 26a100.4 100.4 0 0 1 -6.967 -0.234Z" stroke-width="1"></path>
    <path id="Vector 1479" stroke="#000000" stroke-linecap="round" stroke-linejoin="round" d="m34 11 0 5" stroke-width="1"></path>
    <path id="Vector 1480" stroke="#000000" stroke-linecap="round" stroke-linejoin="round" d="M34 20v1" stroke-width="1"></path>
  </g>
</svg>