<svg xmlns="http://www.w3.org/2000/svg" fill="none" viewBox="0 0 24 24" id="Ai-Edit-Robot--Streamline-Sharp">
  <desc>
    Ai Edit Robot Streamline Icon: https://streamlinehq.com
  </desc>
  <g id="ai-edit-robot--change-edit-modify-pencil-write-writing-artificial-intelligence-ai">
    <path id="Subtract" fill="#fddc5c" fill-rule="evenodd" d="m10.639 11.4999 -5.97848 5.9785 0.00001 5.2715h5.2715L22.2322 10.4497l-5.2715 -5.27148L13 9.13891v2.36099h-2.361Z" clip-rule="evenodd" stroke-width="1"></path>
    <path id="Union" fill="#0c098c" fill-rule="evenodd" d="M6.75 2H11v7.5H0V2h4.25V0h2.5v2Zm2.12126 9.5001 -5.09462 5.0946 -0.36612 0.3661v0.5178l0.00001 5.2715 0.00001 1.25h1.24999l5.2715 0h0.51777l0.3661 -0.3661 12.3002 -12.3002 0.8839 -0.8839 -0.8839 -0.88388 -5.2715 -5.27149 -0.8839 -0.88389 -0.8839 0.88389L13 7.37134v3.53556l3.9607 -3.96072 3.5037 3.50372L9.41426 21.5001l-3.50373 0 -0.00001 -3.5038 6.49628 -6.4962H8.87126Z" clip-rule="evenodd" stroke-width="1"></path>
    <path id="Union_2" fill="#fddc5c" fill-rule="evenodd" d="M2.25 4.5v2h2v-2h-2Zm4.5 0v2h2v-2h-2Z" clip-rule="evenodd" stroke-width="1"></path>
  </g>
</svg>