<svg xmlns="http://www.w3.org/2000/svg" fill="none" viewBox="0 0 24 24" id="Charging-Battery-Medium-1--Streamline-Ultimate">
  <desc>
    Charging Battery Medium 1 Streamline Icon: https://streamlinehq.com
  </desc>
  <path fill="#e3e3e3" d="M20.1304 9.6087V7.69566c0 -0.25369 -0.1008 -0.49698 -0.2801 -0.67637 -0.1794 -0.17938 -0.4227 -0.28015 -0.6764 -0.28015H1.95652c-0.25369 0 -0.49698 0.10077 -0.67636 0.28015C1.10078 7.19868 1 7.44197 1 7.69566v8.60874c0 0.2536 0.10078 0.497 0.28016 0.6763 0.17938 0.1794 0.42267 0.2802 0.67636 0.2802H19.1739c0.2537 0 0.497 -0.1008 0.6764 -0.2802 0.1793 -0.1793 0.2801 -0.4227 0.2801 -0.6763v-1.9131h1.9131c0.2536 0 0.497 -0.1008 0.6763 -0.2802 0.1794 -0.1793 0.2802 -0.4226 0.2802 -0.6763v-2.8696c0 -0.2536 -0.1008 -0.497 -0.2802 -0.67634 -0.1793 -0.17938 -0.4227 -0.28016 -0.6763 -0.28016h-1.9131Z" stroke-width="1"></path>
  <path fill="#ffef5e" d="M10.0865 8.65222H3.39086c-0.26414 0 -0.47826 0.21413 -0.47826 0.47826v5.73912c0 0.2641 0.21412 0.4783 0.47826 0.4783h6.69564c0.2641 0 0.4783 -0.2142 0.4783 -0.4783V9.13048c0 -0.26413 -0.2142 -0.47826 -0.4783 -0.47826Z" stroke-width="1"></path>
  <path fill="#fff9bf" d="M10.0865 8.65222H3.39086c-0.12685 0 -0.2485 0.05039 -0.33818 0.14008 -0.08969 0.08969 -0.14008 0.21134 -0.14008 0.33818v5.73912c0 0.1268 0.05039 0.2485 0.14008 0.3382 0.08968 0.0897 0.21133 0.1401 0.33818 0.1401l6.69564 -6.69568Z" stroke-width="1"></path>
  <path stroke="#191919" stroke-linecap="round" stroke-linejoin="round" d="M19.1739 17.2609H1.95652c-0.25369 0 -0.49698 -0.1008 -0.67636 -0.2802C1.10078 16.8014 1 16.558 1 16.3044V7.69566c0 -0.25369 0.10078 -0.49698 0.28016 -0.67637 0.17938 -0.17938 0.42267 -0.28015 0.67636 -0.28015H19.1739c0.2537 0 0.497 0.10077 0.6764 0.28015 0.1793 0.17939 0.2801 0.42268 0.2801 0.67637V9.6087h1.9131c0.2536 0 0.497 0.10078 0.6763 0.28016 0.1794 0.17934 0.2802 0.42274 0.2802 0.67634v2.8696c0 0.2537 -0.1008 0.497 -0.2802 0.6763 -0.1793 0.1794 -0.4227 0.2802 -0.6763 0.2802h-1.9131v1.9131c0 0.2536 -0.1008 0.497 -0.2801 0.6763 -0.1794 0.1794 -0.4227 0.2802 -0.6764 0.2802Z" stroke-width="1"></path>
  <path stroke="#191919" stroke-linecap="round" stroke-linejoin="round" d="M10.0865 8.65222H3.39086c-0.26414 0 -0.47826 0.21413 -0.47826 0.47826v5.73912c0 0.2641 0.21412 0.4783 0.47826 0.4783h6.69564c0.2641 0 0.4783 -0.2142 0.4783 -0.4783V9.13048c0 -0.26413 -0.2142 -0.47826 -0.4783 -0.47826Z" stroke-width="1"></path>
</svg>