<svg xmlns="http://www.w3.org/2000/svg" fill="none" viewBox="0 0 24 24" id="Charging-Battery-Empty--Streamline-Ultimate">
  <desc>
    Charging Battery Empty Streamline Icon: https://streamlinehq.com
  </desc>
  <path fill="#e3e3e3" d="M20.1304 9.60864V7.6956c0 -0.12562 -0.0247 -0.25 -0.0728 -0.36605 -0.048 -0.11605 -0.1185 -0.2215 -0.2073 -0.31032 -0.0888 -0.08882 -0.1943 -0.15927 -0.3103 -0.20734 -0.1161 -0.04807 -0.2405 -0.07282 -0.3661 -0.07282H1.95652c-0.12561 0 -0.24999 0.02475 -0.36604 0.07282 -0.11605 0.04807 -0.2215 0.11852 -0.31032 0.20734 -0.08882 0.08882 -0.15928 0.19427 -0.20735 0.31032C1.02474 7.4456 1 7.56998 1 7.6956v8.6087c0 0.2537 0.10078 0.497 0.28016 0.6764 0.17938 0.1793 0.42268 0.2801 0.67636 0.2801H19.1739c0.2537 0 0.497 -0.1008 0.6764 -0.2801 0.1794 -0.1794 0.2801 -0.4227 0.2801 -0.6764v-1.9131h1.9131c0.2537 0 0.497 -0.1007 0.6763 -0.2801 0.1794 -0.1794 0.2802 -0.4227 0.2802 -0.6764v-2.8695c0 -0.2537 -0.1008 -0.497 -0.2802 -0.6764 -0.1793 -0.17938 -0.4226 -0.28016 -0.6763 -0.28016h-1.9131Z" stroke-width="1"></path>
  <path fill="#ffef5e" d="M12.4775 6.26086 8.65137 13.4348h2.86953v4.3043l3.8261 -7.1739h-2.8695V6.26086Z" stroke-width="1"></path>
  <path fill="#fff9bf" d="M12.4775 10.5652V6.26086L8.65137 13.4348h1.95993l2.8695 -2.8696h-1.0033Z" stroke-width="1"></path>
  <path stroke="#191919" stroke-linecap="round" stroke-linejoin="round" d="M15.3474 17.2608h3.8261c0.2537 0 0.497 -0.1008 0.6764 -0.2801 0.1793 -0.1794 0.2801 -0.4227 0.2801 -0.6764v-1.9131h1.9131c0.2536 0 0.4969 -0.1007 0.6763 -0.2801s0.2802 -0.4227 0.2802 -0.6764v-2.8695c0 -0.2537 -0.1008 -0.497 -0.2802 -0.6764 -0.1794 -0.17938 -0.4227 -0.28016 -0.6763 -0.28016H20.13V7.6956c0 -0.25369 -0.1008 -0.49698 -0.2801 -0.67637 -0.1794 -0.17938 -0.4227 -0.28016 -0.6764 -0.28016h-4.3044" stroke-width="1"></path>
  <path stroke="#191919" stroke-linecap="round" stroke-linejoin="round" d="M8.65217 6.73907H1.95652c-0.25368 0 -0.49698 0.10078 -0.67636 0.28016C1.10078 7.19862 1 7.44191 1 7.6956v8.6087c0 0.2537 0.10078 0.497 0.28016 0.6764 0.17938 0.1793 0.42268 0.2801 0.67636 0.2801h7.17391" stroke-width="1"></path>
  <path stroke="#191919" stroke-linecap="round" stroke-linejoin="round" d="M12.4775 6.26086 8.65137 13.4348h2.86953v4.3043l3.8261 -7.1739h-2.8695V6.26086Z" stroke-width="1"></path>
</svg>