<svg xmlns="http://www.w3.org/2000/svg" fill="none" viewBox="0 0 24 24" id="Phone-Action-Home--Streamline-Ultimate">
  <desc>
    Phone Action Home Streamline Icon: https://streamlinehq.com
  </desc>
  <path fill="#66e1ff" d="M18.2175 4.82611H5.78271V19.1739H18.2175V4.82611Z" stroke-width="1"></path>
  <path fill="#ffffff" d="M18.2175 2.91304v1.91304H5.78271V2.91304c0.00152 -0.50691 0.20355 -0.99261 0.56199 -1.35106 0.35845 -0.35843 0.84415 -0.56047 1.35105 -0.56198h8.60865c0.5074 0 0.994 0.20155 1.3527 0.56032 0.3588 0.35876 0.5604 0.84535 0.5604 1.35272Z" stroke-width="1"></path>
  <path fill="#ffffff" d="M5.78271 19.174H18.2175v1.913c0 0.5073 -0.2016 0.9939 -0.5604 1.3527 -0.3587 0.3588 -0.8453 0.5603 -1.3527 0.5603H7.69575c-0.5069 -0.0015 -0.9926 -0.2035 -1.35105 -0.5619 -0.35844 -0.3585 -0.56047 -0.8442 -0.56199 -1.3511v-1.913Z" stroke-width="1"></path>
  <path fill="#c2f3ff" d="M18.2175 5.38759v-0.56148H5.78271V17.8223L18.2175 5.38759Z" stroke-width="1"></path>
  <path fill="#ffffff" d="M14.87 10.6894v3.7018c0 0.2537 -0.1008 0.497 -0.2802 0.6764 -0.1793 0.1794 -0.4227 0.2801 -0.6763 0.2801h-0.9566v-1.913c0 -0.2537 -0.1008 -0.497 -0.2801 -0.6764 -0.1794 -0.1793 -0.4227 -0.2802 -0.6764 -0.2802 -0.2536 0 -0.497 0.1009 -0.6763 0.2802 -0.1794 0.1794 -0.2802 0.4227 -0.2802 0.6764v1.913h-0.9565c-0.25371 0 -0.497 -0.1007 -0.67639 -0.2801 -0.17937 -0.1794 -0.28015 -0.4227 -0.28015 -0.6764v-3.7018L11.063 9.00602c0.2613 -0.22742 0.5958 -0.3527 0.9422 -0.3527 0.3464 0 0.6809 0.12528 0.9422 0.3527L14.87 10.6894Z" stroke-width="1"></path>
  <path fill="#c77f67" d="M12.957 13.4348v1.913h-1.9131v-1.913c0 -0.2537 0.1009 -0.497 0.2802 -0.6764 0.1794 -0.1793 0.4227 -0.2801 0.6764 -0.2801 0.2536 0 0.497 0.1008 0.6763 0.2801 0.1794 0.1794 0.2802 0.4227 0.2802 0.6764Z" stroke-width="1"></path>
  <path stroke="#191919" stroke-linecap="round" stroke-linejoin="round" d="M9.13086 10.6915v3.6998c0 0.2537 0.10078 0.4969 0.28015 0.6763 0.17939 0.1794 0.42268 0.2802 0.67639 0.2802h3.8261c0.2536 0 0.497 -0.1008 0.6763 -0.2802 0.1794 -0.1794 0.2802 -0.4226 0.2802 -0.6763v-3.6998" stroke-width="1"></path>
  <path stroke="#191919" stroke-linecap="round" stroke-linejoin="round" d="m8.1748 11.5284 2.881 -2.5214c0.2617 -0.22898 0.5975 -0.35521 0.9451 -0.35521s0.6834 0.12623 0.945 0.35521l2.8811 2.5214" stroke-width="1"></path>
  <path stroke="#191919" stroke-linecap="round" stroke-linejoin="round" d="M12.957 15.3478h-1.9131v-1.913c0 -0.2537 0.1009 -0.497 0.2802 -0.6764 0.1794 -0.1793 0.4227 -0.2801 0.6764 -0.2801 0.2536 0 0.497 0.1008 0.6763 0.2801 0.1794 0.1794 0.2802 0.4227 0.2802 0.6764v1.913Z" stroke-width="1"></path>
  <path stroke="#191919" d="M12.0008 21.3261c-0.132 0 -0.2391 -0.107 -0.2391 -0.2391s0.1071 -0.2392 0.2391 -0.2392" stroke-width="1"></path>
  <path stroke="#191919" d="M12.0005 21.3261c0.1321 0 0.2391 -0.107 0.2391 -0.2391s-0.107 -0.2392 -0.2391 -0.2392" stroke-width="1"></path>
  <path stroke="#191919" stroke-linecap="round" stroke-linejoin="round" d="M16.3044 1H7.69575c-1.05654 0 -1.91304 0.8565 -1.91304 1.91304V21.0869c0 1.0566 0.8565 1.9131 1.91304 1.9131h8.60865c1.0566 0 1.9131 -0.8565 1.9131 -1.9131V2.91304C18.2175 1.8565 17.361 1 16.3044 1Z" stroke-width="1"></path>
  <path stroke="#191919" stroke-linecap="round" stroke-linejoin="round" d="M18.2175 19.174H5.78271" stroke-width="1"></path>
  <path stroke="#191919" stroke-linecap="round" stroke-linejoin="round" d="M18.2175 4.82611H5.78271" stroke-width="1"></path>
  <path stroke="#191919" stroke-linecap="round" stroke-linejoin="round" d="M10.5654 2.91309h2.8696" stroke-width="1"></path>
</svg>