<svg xmlns="http://www.w3.org/2000/svg" viewBox="0 0 32 32" id="Logo-Whatapp--Streamline-Pixel">
  <desc>
    Logo Whatapp Streamline Icon: https://streamlinehq.com
  </desc>
  <title>logo-whatapp</title>
  <g>
    <path d="M30.47 11.43H32v9.14h-1.53Z" fill="#000000" stroke-width="1"></path>
    <path d="M28.95 20.57h1.52v3.05h-1.52Z" fill="#000000" stroke-width="1"></path>
    <path d="M28.95 8.38h1.52v3.05h-1.52Z" fill="#000000" stroke-width="1"></path>
    <path d="M27.42 23.62h1.53v3.04h-1.53Z" fill="#000000" stroke-width="1"></path>
    <path d="M27.42 5.33h1.53v3.05h-1.53Z" fill="#000000" stroke-width="1"></path>
    <path d="M24.38 26.66h3.04v1.53h-3.04Z" fill="#000000" stroke-width="1"></path>
    <path d="M24.38 3.81h3.04v1.52h-3.04Z" fill="#000000" stroke-width="1"></path>
    <path d="m24.38 17.52 -4.57 0 0 1.53 -1.53 0 0 -1.53 -1.52 0 0 -1.52 -1.53 0 0 -1.53 -1.52 0 0 -1.52 1.52 0 0 -4.57 -1.52 0 0 -1.53 -4.57 0 0 1.53 -1.53 0 0 4.57 1.53 0 0 3.05 1.52 0 0 1.52 1.53 0 0 1.53 1.52 0 0 1.52 1.52 0 0 1.52 1.53 0 0 1.53 3.05 0 0 1.52 4.57 0 0 -1.52 1.52 0 0 -4.57 -1.52 0 0 -1.53z" fill="#000000" stroke-width="1"></path>
    <path d="M21.33 28.19h3.05v1.52h-3.05Z" fill="#000000" stroke-width="1"></path>
    <path d="M21.33 2.28h3.05v1.53h-3.05Z" fill="#000000" stroke-width="1"></path>
    <path d="M12.19 29.71h9.14v1.53h-9.14Z" fill="#000000" stroke-width="1"></path>
    <path d="M12.19 0.76h9.14v1.52h-9.14Z" fill="#000000" stroke-width="1"></path>
    <path d="M7.61 28.19h4.58v1.52H7.61Z" fill="#000000" stroke-width="1"></path>
    <path d="M9.14 2.28h3.05v1.53H9.14Z" fill="#000000" stroke-width="1"></path>
    <path d="M6.09 3.81h3.05v1.52H6.09Z" fill="#000000" stroke-width="1"></path>
    <path d="m3.04 29.71 0 -1.52 -1.52 0 0 1.52 -1.52 0 0 1.53 7.61 0 0 -1.53 -4.57 0z" fill="#000000" stroke-width="1"></path>
    <path d="M4.57 23.62h1.52v3.04H4.57Z" fill="#000000" stroke-width="1"></path>
    <path d="M4.57 5.33h1.52v3.05H4.57Z" fill="#000000" stroke-width="1"></path>
    <path d="M3.04 26.66h1.53v1.53H3.04Z" fill="#000000" stroke-width="1"></path>
    <path d="M3.04 20.57h1.53v3.05H3.04Z" fill="#000000" stroke-width="1"></path>
    <path d="M3.04 8.38h1.53v3.05H3.04Z" fill="#000000" stroke-width="1"></path>
    <path d="M1.52 11.43h1.52v9.14H1.52Z" fill="#000000" stroke-width="1"></path>
  </g>
</svg>