<svg xmlns="http://www.w3.org/2000/svg" viewBox="0 0 32 32" id="Logo-Social-Media-Instagram--Streamline-Pixel">
  <desc>
    Logo Social Media Instagram Streamline Icon: https://streamlinehq.com
  </desc>
  <title>logo-social-media-instagram</title>
  <g>
    <path d="M30.47 3.05H32v25.9h-1.53Z" fill="#000000" stroke-width="1"></path>
    <path d="M28.95 28.95h1.52v1.53h-1.52Z" fill="#000000" stroke-width="1"></path>
    <path d="M28.95 1.52h1.52v1.53h-1.52Z" fill="#000000" stroke-width="1"></path>
    <path d="M3.04 30.48h25.91V32H3.04Z" fill="#000000" stroke-width="1"></path>
    <path d="M27.42 4.57H25.9V3.05H6.09v1.52H4.57v1.52H3.04V25.9h1.53v1.53h1.52v1.52H25.9v-1.52h1.52V25.9h1.53V6.09h-1.53ZM25.9 24.38h-1.52v1.52H7.61v-1.52H6.09V7.62h1.52V6.09h16.77v1.53h1.52Z" fill="#000000" stroke-width="1"></path>
    <path d="M21.33 7.62h3.05v3.05h-3.05Z" fill="#000000" stroke-width="1"></path>
    <path d="M21.33 12.19h-1.52v-1.52h-7.62v1.52h-1.53v1.52H9.14v7.62h1.52v1.53h1.53v1.52h7.62v-1.52h1.52v-1.53h1.52v-7.62h-1.52Zm-1.52 7.62h-1.53v1.52h-4.57v-1.52h-1.52v-4.57h1.52v-1.53h4.57v1.53h1.53Z" fill="#000000" stroke-width="1"></path>
    <path d="M3.04 0h25.91v1.52H3.04Z" fill="#000000" stroke-width="1"></path>
    <path d="M1.52 28.95h1.52v1.53H1.52Z" fill="#000000" stroke-width="1"></path>
    <path d="M1.52 1.52h1.52v1.53H1.52Z" fill="#000000" stroke-width="1"></path>
    <path d="M0 3.05h1.52v25.9H0Z" fill="#000000" stroke-width="1"></path>
  </g>
</svg>