<svg xmlns="http://www.w3.org/2000/svg" fill="none" viewBox="0 0 14 14" id="Alien--Streamline-Flex-Neon">
  <desc>
    Alien Streamline Icon: https://streamlinehq.com
  </desc>
  <g id="alien--science-extraterristerial-life-form-space-universe-head-astronomy">
    <path id="Vector 461" stroke="#c71dff" stroke-linecap="round" stroke-linejoin="round" d="M0.75 5.75c0 -4.75 4.24995 -5 6.24994 -5 2 0 6.25006 0.25 6.25006 5 0 5.5227 -4.75006 7.5001 -6.25006 7.5001S0.75 11.2727 0.75 5.75Z" stroke-width="1"></path>
    <path id="Vector 462" stroke="#000cfe" stroke-linecap="round" stroke-linejoin="round" d="M5.07464 5.45383c-0.73356 -0.77537 -1.78895 -0.59487 -2.22496 -0.4077 -0.13035 0.51024 -0.20767 1.72458 0.52588 2.49996 0.73356 0.77538 1.78895 0.59488 2.22496 0.4077 0.13035 -0.51024 0.20767 -1.72458 -0.52588 -2.49996Z" stroke-width="1"></path>
    <path id="Vector 463" stroke="#000cfe" stroke-linecap="round" stroke-linejoin="round" d="M8.87556 5.45383c0.73356 -0.77537 1.78894 -0.59487 2.22494 -0.4077 0.1304 0.51024 0.2077 1.72458 -0.5259 2.49996 -0.73352 0.77538 -1.78892 0.59488 -2.22492 0.4077 -0.13036 -0.51024 -0.20768 -1.72458 0.52588 -2.49996Z" stroke-width="1"></path>
  </g>
</svg>