<svg xmlns="http://www.w3.org/2000/svg" fill="none" viewBox="0 0 14 14" id="Recycle-Bin--Streamline-Flex-Neon">
  <desc>
    Recycle Bin Streamline Icon: https://streamlinehq.com
  </desc>
  <g id="recycle-bin--sign-environment-protect-save-arrows">
    <path id="Vector 651" stroke="#c71dff" stroke-linecap="round" stroke-linejoin="round" d="M2.38292 11.7045c-0.81464 -3.12041 -0.9368 -7.7633 -0.86761 -10.12938 0.01458 -0.49862 0.37192 -0.889536 0.8216 -0.919453 3.11968 -0.207556 6.20625 -0.207556 9.32589 0 0.4497 0.029917 0.8071 0.420833 0.8216 0.919453 0.0692 2.36608 -0.0529 7.00897 -0.8676 10.12938 -0.2617 1.0026 -1.1039 1.6271 -2.0442 1.698 -1.72252 0.13 -3.42292 0.13 -5.14545 0 -0.94028 -0.0709 -1.78247 -0.6954 -2.04423 -1.698Z" stroke-width="1"></path>
    <path id="Ellipse 142" stroke="#000cfe" stroke-linecap="round" stroke-linejoin="round" d="M4.81109 9.75122c-0.06491 -0.48148 -0.07424 -1.40472 -0.04241 -1.86846 0.44702 0.81547 1.31347 1.36835 2.30905 1.36835 1.08109 0 2.00991 -0.65194 2.41477 -1.58412" stroke-width="1"></path>
    <path id="Ellipse 143" stroke="#000cfe" stroke-linecap="round" stroke-linejoin="round" d="M9.43256 3.49975c0.06492 0.48149 0.07424 1.40472 0.04242 1.86847 -0.44703 -0.81548 -1.31348 -1.36835 -2.30905 -1.36835 -1.0811 0 -2.00992 0.65193 -2.41478 1.58411" stroke-width="1"></path>
  </g>
</svg>