<svg xmlns="http://www.w3.org/2000/svg" fill="none" viewBox="0 0 48 48" id="Email-Attachment-Document--Streamline-Plump">
  <desc>
    Email Attachment Document Streamline Icon: https://streamlinehq.com
  </desc>
  <g id="email-attachment-document--mail-send-email-attachment-file-paperclip">
    <path id="Subtract" fill="#8fbffa" d="M13.582 2.137C16.326 1.823 20.685 1.5 27 1.5a165 165 0 0 1 5.13 0.077 1.5 1.5 0 0 1 0.4 0.068c1.098 0.343 4.029 1.564 8.123 5.578 3.862 3.787 5.195 6.563 5.63 7.781a1.5 1.5 0 0 1 0.087 0.45c0.08 2.153 0.13 4.655 0.13 7.546 0 7.57 -0.343 12.478 -0.669 15.432 -0.32 2.9 -2.518 5.1 -5.413 5.431 -2.744 0.314 -7.103 0.637 -13.418 0.637 -1.568 0 -3.016 -0.02 -4.349 -0.055a12.775 12.775 0 0 0 2.85 -8.081v-8.728C25.5 20.134 19.201 14.5 12 14.5a13.83 13.83 0 0 0 -4.361 0.702c0.13 -3.36 0.332 -5.852 0.529 -7.634 0.32 -2.9 2.518 -5.1 5.413 -5.431Z" stroke-width="1"></path>
    <path id="Intersect" fill="#2859c5" d="M46.348 15.25c-2.42 -0.001 -6.57 -0.04 -8.948 -0.268 -2.598 -0.249 -4.641 -2.321 -4.896 -4.975 -0.214 -2.233 -0.253 -5.99 -0.254 -8.421 0.095 0.01 0.188 0.03 0.28 0.059 1.098 0.343 4.029 1.564 8.123 5.578 3.862 3.787 5.195 6.563 5.63 7.781 0.029 0.08 0.05 0.163 0.065 0.246Z" stroke-width="1"></path>
    <path id="Vector 1487 (Stroke)" fill="#2859c5" fill-rule="evenodd" d="M6.792 18.833A10.757 10.757 0 0 1 12 17.5c5.688 0 10.5 4.43 10.5 10.136v8.728C22.5 42.07 17.688 46.5 12 46.5S1.5 42.07 1.5 36.364v-4.768c0 -3.676 3.087 -6.46 6.648 -6.46 3.56 0 6.648 2.784 6.648 6.46v4.677a2.5 2.5 0 0 1 -5 0v-4.677c0 -0.698 -0.627 -1.46 -1.648 -1.46s-1.648 0.762 -1.648 1.46v4.768c0 2.728 2.352 5.136 5.5 5.136s5.5 -2.408 5.5 -5.136v-8.728c0 -2.728 -2.352 -5.136 -5.5 -5.136 -1.028 0 -1.98 0.262 -2.792 0.71a2.5 2.5 0 0 1 -2.416 -4.377Z" clip-rule="evenodd" stroke-width="1"></path>
  </g>
</svg>