<svg xmlns="http://www.w3.org/2000/svg" fill="none" viewBox="0 0 48 48" id="Mail-Outgoing--Streamline-Plump">
  <desc>
    Mail Outgoing Streamline Icon: https://streamlinehq.com
  </desc>
  <g id="mail-outgoing--inbox-envelope-email-message-up-arrow-outbox">
    <path id="Subtract" fill="#8fbffa" d="M35.7 8.72a4.255 4.255 0 0 1 -0.223 2.718c-0.701 1.627 -2.255 2.537 -3.881 2.643 -0.335 0.022 -0.705 0.043 -1.112 0.063 0.023 2.255 0.021 4.506 0.019 6.736l0 0.006 -0.002 1.982c0 2.04 -1.206 4.685 -4.13 5.206a13.605 13.605 0 0 1 -4.739 0c-2.924 -0.521 -4.13 -3.166 -4.13 -5.206L17.5 20.88c-0.002 -2.23 -0.005 -4.48 0.019 -6.736 -0.408 -0.02 -0.778 -0.041 -1.113 -0.063 -1.626 -0.106 -3.18 -1.016 -3.88 -2.643a4.256 4.256 0 0 1 -0.224 -2.718 125.323 125.323 0 0 0 -7.05 4.042c-1.677 1.033 -2.865 2.734 -3.119 4.758 -0.291 2.327 -0.633 6.326 -0.633 12.28 0 4.613 0.205 8.053 0.433 10.45 0.314 3.296 2.958 5.663 6.177 5.854 3.256 0.193 8.454 0.396 15.89 0.396s12.634 -0.203 15.89 -0.396c3.218 -0.19 5.863 -2.558 6.177 -5.854 0.228 -2.397 0.433 -5.837 0.433 -10.45 0 -5.954 -0.342 -9.953 -0.633 -12.28 -0.254 -2.024 -1.442 -3.725 -3.119 -4.758a125.285 125.285 0 0 0 -7.047 -4.041Z" stroke-width="1"></path>
    <path id="Subtract_2" fill="#2859c5" d="M34.33 12.995a4.682 4.682 0 0 1 -2.734 1.086 66.68 66.68 0 0 1 -1.112 0.063c0.023 2.255 0.021 4.506 0.019 6.736l0 0.006 -0.002 1.982c0 2.04 -1.206 4.685 -4.13 5.206a13.6 13.6 0 0 1 -4.739 0c-2.924 -0.521 -4.13 -3.165 -4.13 -5.206l-0.002 -1.987c-0.002 -2.23 -0.005 -4.482 0.019 -6.737a66.71 66.71 0 0 1 -1.113 -0.063 4.68 4.68 0 0 1 -2.736 -1.087 194.075 194.075 0 0 0 -5.505 3.224A3.469 3.469 0 0 0 6.5 19.189v3.034c0 1.658 0.912 3.205 2.43 3.964 1.657 0.826 4.388 2.136 7.18 3.243 2.713 1.076 5.743 2.07 7.89 2.07 2.147 0 5.177 -0.994 7.89 -2.07 2.792 -1.107 5.523 -2.417 7.18 -3.243a4.413 4.413 0 0 0 2.43 -3.965V19.19a3.469 3.469 0 0 0 -1.664 -2.971 193.934 193.934 0 0 0 -5.505 -3.223Z" stroke-width="1"></path>
    <path id="Union" fill="#2859c5" d="M15.586 8.724c-0.853 1.006 -0.3 2.277 1.015 2.363 0.964 0.063 2.256 0.121 3.966 0.155a265.919 265.919 0 0 0 -0.066 6.032l0 5.594c0 1.076 0.598 2.063 1.658 2.252 0.5 0.09 1.115 0.154 1.843 0.154 0.727 0 1.341 -0.065 1.842 -0.154 1.06 -0.189 1.657 -1.176 1.657 -2.252l0 -5.594c0 -2.468 -0.03 -4.506 -0.065 -6.032 1.71 -0.034 3 -0.092 3.965 -0.155 1.316 -0.086 1.868 -1.357 1.015 -2.364a60.62 60.62 0 0 0 -2.96 -3.213c-2.05 -2.09 -3.522 -3.169 -4.416 -3.713a1.966 1.966 0 0 0 -2.077 0c-0.894 0.544 -2.366 1.624 -4.416 3.713a60.46 60.46 0 0 0 -2.96 3.214Z" stroke-width="1"></path>
  </g>
</svg>