<svg xmlns="http://www.w3.org/2000/svg" fill="none" viewBox="0 0 48 48" id="Smiley-Sparks--Streamline-Plump">
  <desc>
    Smiley Sparks Streamline Icon: https://streamlinehq.com
  </desc>
  <g id="smiley-sparks">
    <path id="Union" fill="#8fbffa" d="M24 1.5C11.574 1.5 1.5 11.574 1.5 24S11.574 46.5 24 46.5 46.5 36.426 46.5 24 36.426 1.5 24 1.5Z" stroke-width="1"></path>
    <path id="Subtract" fill="#2859c5" fill-rule="evenodd" d="M12.978 29.203c0.769 -0.678 1.906 -1.01 3.04 -0.807 2.123 0.38 4.935 0.74 7.982 0.74 3.046 0 5.858 -0.36 7.98 -0.74 1.135 -0.203 2.272 0.129 3.041 0.807 0.783 0.691 1.19 1.754 0.783 2.92C34.1 37 29.459 40.5 23.999 40.5S13.9 37 12.197 32.122c-0.407 -1.165 -0.001 -2.228 0.782 -2.919Z" clip-rule="evenodd" stroke-width="1"></path>
    <path id="Star 12" fill="#2859c5" d="M35.929 1.71c0.368 -0.947 1.774 -0.947 2.142 0l2.563 6.6 5.733 2.717c0.844 0.4 0.844 1.546 0 1.946l-5.733 2.717 -2.563 6.6c-0.368 0.947 -1.774 0.947 -2.142 0l-2.563 -6.6 -5.733 -2.717a1.065 1.065 0 0 1 0 -1.946l5.733 -2.718 2.563 -6.599Z" stroke-width="1"></path>
    <path id="Star 13" fill="#2859c5" d="M12.071 1.71c-0.368 -0.947 -1.774 -0.947 -2.142 0l-2.563 6.6 -5.733 2.717a1.065 1.065 0 0 0 0 1.946l5.733 2.717 2.563 6.6c0.368 0.947 1.774 0.947 2.142 0l2.563 -6.6 5.733 -2.717c0.844 -0.4 0.844 -1.546 0 -1.946l-5.733 -2.718 -2.563 -6.599Z" stroke-width="1"></path>
  </g>
</svg>