<svg xmlns="http://www.w3.org/2000/svg" fill="none" viewBox="0 0 14 14" id="Comet--Streamline-Core-Gradient">
  <desc>
    Comet Streamline Icon: https://streamlinehq.com
  </desc>
  <g id="Free Gradient/Nature Ecology/comet--nature-meteor-fall-space-object-danger">
    <path id="Subtract" fill="url(#paint0_linear_14402_10973)" fill-rule="evenodd" d="M8.77828.217624c.29402.291759.29585.766629.0041 1.060656L6.10602 3.97541c-.09117.06883-.15009.17811-.15009.30115 0 .20828.16885.37713.37713.37713.1052 0 .20033-.04307.26874-.11254l.00113.00113L10.9255.21967c.2929-.2928933.7678-.2928933 1.0607 0 .2929.292893.2929.767767 0 1.06066L7.69802 5.56851c-.1339.08716-.22243.23816-.22243.40985 0 .26988.21878.48867.48867.48867.15398 0 .29133-.07122.3809-.18252l.00145.00145 3.33569-3.33573c.2929-.29289.7678-.29289 1.0607 0 .2929.29289.2929.76777 0 1.06066L9.40727 7.34662l.00033.00033c-.07323.07439-.11842.17647-.11842.2891 0 .22761.18452.41212.41213.41212.12516 0 .23729-.05579.31289-.14386l2.7075-2.68669c.294-.29176.7689-.28992 1.0607.0041.2917.29403.2899.7689-.0041 1.06066l-3.2597 3.23454-.0029.0029-3.2605 3.23538-.00111.0011c-1.65982 1.6586-4.34994 1.6583-6.00929-.0011-.15552-.1555-.296467-.3201-.422842-.492-.210726-.2867-.380934-.5939-.510624-.9136-.622398-1.53445-.311603125-3.35887.932386-4.60373l.00003-.00002.00105-.00106L4.48019 3.4843 7.71762.221724c.29176-.2940234.76663-.2958588 1.06066-.0041ZM6 10c0 1.1046-.89543 2-2 2s-2-.8954-2-2c0-1.10457.89543-2 2-2s2 .89543 2 2Z" clip-rule="evenodd"></path>
  </g>
  <defs>
    <linearGradient id="paint0_linear_14402_10973" x1="2.288" x2="13.596" y1="2.692" y2="8.957" gradientUnits="userSpaceOnUse">
      <stop stop-color="#ffd600"></stop>
      <stop offset="1" stop-color="#00d078"></stop>
    </linearGradient>
  </defs>
</svg>