<svg xmlns="http://www.w3.org/2000/svg" fill="none" viewBox="0 0 14 14" id="Transfer-Forwarding-Call--Streamline-Flex">
  <desc>
    Transfer Forwarding Call Streamline Icon: https://streamlinehq.com
  </desc>
  <g id="transfer-forwarding-call">
    <path id="Union" fill="#000000" fill-rule="evenodd" d="M2.21432 1.89414C1.13817 2.0141 0.27221 2.88006 0.157019 3.95673 0.0719833 4.75154 0 6.17432 0 7.00624c0 0.83191 0.0719833 2.25469 0.157019 3.04946 0.115191 1.0767 0.981151 1.9427 2.057301 2.0626 0.24505 0.0273 0.48973 0.0524 0.71446 0.0743 0.57622 0.0561 1.10395 -0.3303 1.17148 -0.9053 0.05942 -0.5059 0.08607 -1.0223 0.08946 -1.52809 0.0021 -0.31492 -0.2569 -0.56556 -0.57097 -0.58871 -0.1983 -0.01461 -0.40246 -0.03539 -0.61008 -0.05972 -0.13637 -0.53575 -0.20576 -1.32404 -0.20629 -2.10001 0.00053 -0.77597 0.06992 -1.57333 0.20629 -2.10908 0.23515 -0.02756 0.46587 -0.05055 0.68864 -0.06521 0.27053 -0.01779 0.49328 -0.23337 0.49275 -0.50447 -0.00114 -0.57728 -0.03207 -1.16983 -0.10704 -1.74624 -0.06428 -0.49422 -0.51833 -0.8265 -1.01448 -0.77931 -0.26098 0.02481 -0.55733 0.05459 -0.85422 0.08768Zm9.81008 0c-1.0762 0.11996 -1.9421 0.98592 -2.05732 2.06259 -0.08504 0.79481 -0.15702 2.21759 -0.15702 3.04951 0 0.83191 0.07198 2.25469 0.15702 3.04946 0.11522 1.0767 0.98112 1.9427 2.05732 2.0626 0.245 0.0273 0.4897 0.0524 0.7144 0.0743 0.5763 0.0561 1.104 -0.3303 1.1715 -0.9053 0.0594 -0.5059 0.0861 -1.0223 0.0895 -1.52809 0.0021 -0.31492 -0.2569 -0.56556 -0.571 -0.58871 -0.1983 -0.01461 -0.4025 -0.03539 -0.6101 -0.05972 -0.1363 -0.53575 -0.2057 -1.32404 -0.2063 -2.10001 0.0006 -0.77597 0.07 -1.57333 0.2063 -2.10908 0.2352 -0.02756 0.4659 -0.05055 0.6887 -0.06521 0.2705 -0.01779 0.4932 -0.23337 0.4927 -0.50447 -0.0011 -0.57728 -0.0321 -1.16983 -0.107 -1.74624 -0.0643 -0.49422 -0.5183 -0.8265 -1.0145 -0.77931 -0.261 0.02481 -0.5573 0.05459 -0.8542 0.08768ZM9.01545 7.18187c0.02986 -0.11943 0.02986 -0.24438 0 -0.36381 -0.1195 -0.47799 -0.40216 -0.91541 -0.72033 -1.23359 -0.29524 -0.29524 -0.75845 -0.62201 -1.29479 -0.62201 -0.23095 0 -0.44902 0.1064 -0.59115 0.28844 -0.14213 0.18204 -0.19247 0.4194 -0.13645 0.64346l0.08491 0.33965H5.24512c-0.41422 0 -0.75 0.33578 -0.75 0.75 0 0.41421 0.33578 0.75 0.75 0.75h1.1205l-0.09289 0.37156c-0.05602 0.22406 -0.00568 0.46143 0.13645 0.64346 0.14213 0.18204 0.3602 0.28844 0.59115 0.28844 0.53634 0 0.99955 -0.32677 1.29479 -0.62201 0.31817 -0.31818 0.60083 -0.7556 0.72033 -1.23359Z" clip-rule="evenodd" stroke-width="1"></path>
  </g>
</svg>