<svg xmlns="http://www.w3.org/2000/svg" fill="none" viewBox="0 0 24 24" id="App-Window-Source-Code--Streamline-Freehand">
  <desc>
    App Window Source Code Streamline Icon: https://streamlinehq.com
  </desc>
  <path fill="#020202" fill-rule="evenodd" d="M14.8118 7.70445c-0.0521 -0.07164 -0.1295 -0.12077 -0.2165 -0.13743 -0.087 -0.01666 -0.1771 0.0004 -0.252 0.04772 -0.3918 0.15047 -0.7745 0.32353 -1.1463 0.51833 -0.1637 0.09472 -0.3203 0.20133 -0.4685 0.31897 -0.1585 0.12238 -0.3053 0.25919 -0.4386 0.40868 -0.0677 0.09462 -0.1121 0.20392 -0.1295 0.31898 -0.0128 0.1224 0.0042 0.24606 0.0493 0.36056 0.0451 0.11449 0.117 0.21647 0.2098 0.29732 0.2504 0.18372 0.5213 0.33762 0.8074 0.45852l0.6679 0.2293c0.0951 0.0315 0.199 0.0241 0.2886 -0.0208 0.0897 -0.0448 0.158 -0.1234 0.1898 -0.2185 0.0316 -0.0951 0.0242 -0.199 -0.0207 -0.28865 -0.0448 -0.08969 -0.1234 -0.15793 -0.2185 -0.18978l-0.6479 -0.309s0.1694 -0.05981 0.0897 -0.10965l1.1463 -1.22605c0.0709 -0.05032 0.1198 -0.12598 0.1365 -0.21133 0.0167 -0.08535 -0.0001 -0.17385 -0.0468 -0.24719Z" clip-rule="evenodd" stroke-width="1"></path>
  <path fill="#020202" fill-rule="evenodd" d="M17.3338 5.96006c-0.0391 -0.01798 -0.0815 -0.02786 -0.1245 -0.02903 -0.0431 -0.00118 -0.0859 0.00638 -0.126 0.02222 -0.04 0.01583 -0.0765 0.03962 -0.1071 0.06991 -0.0306 0.03029 -0.0547 0.06647 -0.071 0.10636 -0.3588 0.5582 -0.7476 1.06656 -1.0765 1.6447 -0.0798 0.14952 -0.1396 0.30901 -0.2093 0.45852 -0.1097 0.29904 -0.2293 0.58811 -0.3091 0.89712 -0.1794 0.68778 -0.2791 1.38554 -0.4684 2.07334 -0.0337 0.0928 -0.0307 0.1948 0.0081 0.2855 0.0389 0.0907 0.1108 0.1633 0.2012 0.2029 0.0457 0.0193 0.0948 0.0292 0.1444 0.029 0.0496 -0.0001 0.0987 -0.0102 0.1443 -0.0298 0.0456 -0.0195 0.0868 -0.0481 0.1211 -0.0839 0.0343 -0.0358 0.0611 -0.0782 0.0786 -0.1246 0.2661 -0.6513 0.4957 -1.3168 0.6878 -1.9936 0.1096 -0.2791 0.4585 -0.5582 0.5682 -0.8373l0.7077 -2.29262c0.0248 -0.07571 0.0213 -0.15786 -0.0098 -0.23119 -0.0312 -0.07334 -0.0879 -0.13286 -0.1597 -0.16753Z" clip-rule="evenodd" stroke-width="1"></path>
  <path fill="#020202" fill-rule="evenodd" d="M19.2376 8.26263c-0.4326 -0.19871 -0.8832 -0.35559 -1.3456 -0.46849 -0.0373 -0.02226 -0.0787 -0.03694 -0.1216 -0.04323 -0.043 -0.00628 -0.0868 -0.00403 -0.1289 0.00661 -0.0851 0.0215 -0.1581 0.0759 -0.2031 0.15125 -0.0449 0.07534 -0.0581 0.16545 -0.0366 0.25051 0.0215 0.08505 0.0759 0.15809 0.1513 0.20303l0.598 0.50836c0.1097 0.09968 0.2094 0.21929 0.309 0.32894l-0.1794 0.20933 -0.608 0.51833c-0.0824 0.05491 -0.1401 0.13993 -0.1606 0.23683 -0.0204 0.0969 -0.0022 0.1979 0.0509 0.2815 0.055 0.0821 0.1392 0.1401 0.2355 0.1623 0.0963 0.0223 0.1974 0.007 0.2829 -0.0427l0.7176 -0.2891c0.1747 -0.0648 0.3418 -0.1484 0.4984 -0.2492 0.1217 -0.08193 0.2352 -0.17539 0.3389 -0.27905 0.0856 -0.11007 0.1622 -0.22672 0.2293 -0.34888 0.0454 -0.10365 0.062 -0.21766 0.048 -0.32995 -0.0141 -0.1123 -0.0582 -0.21871 -0.1277 -0.308 -0.15 -0.19893 -0.336 -0.36798 -0.5483 -0.49839Z" clip-rule="evenodd" stroke-width="1"></path>
  <path fill="#020202" fill-rule="evenodd" d="M23.5238 8.16299c0.2052 -0.5839 0.2052 -1.22029 0 -1.80419 -0.2535 -0.58921 -0.6814 -1.08666 -1.226 -1.42541 -0.2719 -0.15831 -0.5743 -0.25686 -0.8872 -0.28907 -0.3768 -0.01229 -0.7539 0.01107 -1.1264 0.06978 -0.3459 0.03438 -0.6832 0.12883 -0.9968 0.2791 0 0 -0.0797 0.06977 -0.1295 0.08971 -0.0837 -0.51855 -0.2812 -1.01214 -0.5782 -1.44535 -0.3105 -0.45338 -0.719 -0.83119 -1.1952 -1.10552 -0.4762 -0.27432 -1.0079 -0.43815 -1.5559 -0.47937 -0.5889 -0.02855 -1.1771 0.07004 -1.7245 0.28907 -0.7464 0.32229 -1.4234 0.78602 -1.9935 1.3656 -0.615 0.6123 -1.0437 1.38657 -1.2361 2.23281 -0.015 0.20905 -0.015 0.41892 0 0.62798 -0.8649 0.5214 -1.55539 1.28818 -1.98357 2.2029 -0.14268 0.35142 -0.2068 0.72979 -0.18785 1.1086 0.01894 0.37877 0.12047 0.74887 0.2975 1.08437 0.08414 0.1718 0.18426 0.3353 0.29903 0.4884 0.10538 0.1604 0.22552 0.3105 0.35885 0.4486 0.24003 0.2439 0.50014 0.4673 0.77754 0.6678 0.2743 0.1992 0.5643 0.3759 0.8672 0.5283 0.5826 0.2924 1.1984 0.5132 1.8341 0.6579 0.9345 0.1907 1.8872 0.2776 2.8408 0.2591 0.8274 0.0045 1.6539 -0.0555 2.472 -0.1794 0.8235 -0.136 1.6315 -0.3531 2.4123 -0.6479 0.4769 -0.1785 0.9372 -0.3986 1.3755 -0.6579 0.3128 -0.1855 0.6009 -0.4099 0.8573 -0.6678 0.4408 -0.4916 0.7374 -1.0952 0.8572 -1.7444 0.0668 -0.33762 0.0632 -0.68539 -0.0106 -1.02155 -0.0737 -0.33617 -0.216 -0.6535 -0.418 -0.93216Zm-0.4485 1.78425c-0.108 0.47156 -0.3464 0.90326 -0.6878 1.24596 -0.2057 0.191 -0.4372 0.3521 -0.6878 0.4785 -0.394 0.2077 -0.8082 0.3747 -1.236 0.4984 -0.7234 0.2303 -1.4681 0.3873 -2.2229 0.4685 -0.7608 0.089 -1.5266 0.1289 -2.2926 0.1196 -0.7272 -0.0021 -1.4533 -0.0554 -2.173 -0.1595 -0.6876 -0.0961 -1.3586 -0.2874 -1.9936 -0.5682 -0.2539 -0.1136 -0.5003 -0.2435 -0.7376 -0.3887 -0.2371 -0.1458 -0.4606 -0.3126 -0.6679 -0.4984l-0.51828 -0.6479c-0.15643 -0.2749 -0.23868 -0.58581 -0.23868 -0.90212 0 -0.3163 0.08225 -0.62717 0.23868 -0.90209 0.25248 -0.47622 0.59038 -0.90196 0.99678 -1.25596 0.0705 0.34796 0.1914 0.68376 0.3588 0.99679 0.02 0.03893 0.0475 0.07348 0.081 0.10163 0.0335 0.02816 0.0723 0.04935 0.114 0.06235 0.0418 0.01299 0.0857 0.01752 0.1293 0.01333 0.0435 -0.00419 0.0858 -0.01703 0.1243 -0.03776 0.0767 -0.04225 0.1341 -0.11255 0.1601 -0.19617 0.026 -0.08362 0.0187 -0.17407 -0.0205 -0.25238 -0.2716 -0.61048 -0.3037 -1.30077 -0.0898 -1.93377 0.2078 -0.62945 0.6003 -1.18174 1.1264 -1.5849 0.4267 -0.3709 0.899 -0.68577 1.4055 -0.93698 0.4686 -0.24026 0.9885 -0.36339 1.5151 -0.35885 0.3791 -0.00841 0.7553 0.06877 1.1004 0.22582 0.3452 0.15705 0.6505 0.38991 0.8932 0.68126 0.2468 0.31037 0.4295 0.66673 0.5373 1.04834 0.1078 0.38162 0.1386 0.78086 0.0907 1.1745 -0.0085 0.04793 -0.0072 0.09709 0.0039 0.14448 0.0112 0.04739 0.0318 0.09202 0.0607 0.13118 0.0289 0.03916 0.0655 0.07204 0.1075 0.09662 0.042 0.02458 0.0886 0.04036 0.1369 0.04638 0.0988 0.0147 0.1995 -0.00919 0.2811 -0.06672 0.0817 -0.05754 0.1381 -0.1443 0.1575 -0.24229 0.036 -0.21069 0.0527 -0.42422 0.0498 -0.63795 0.1198 -0.07802 0.2466 -0.14475 0.3788 -0.19935 0.2353 -0.0527 0.4773 -0.0695 0.7177 -0.04984 0.2591 0 0.5183 0 0.7874 0.07974 0.1846 0.02504 0.3597 0.09712 0.5084 0.20933 0.3334 0.21424 0.5994 0.51831 0.7675 0.87717 0.1746 0.34444 0.2307 0.73686 0.1595 1.11641l-0.1096 0.42862c-0.0972 0.15505 -0.2263 0.28759 -0.3788 0.38874 -0.1838 0.11597 -0.3735 0.22243 -0.5682 0.31898 -0.0464 0.01754 -0.0888 0.04427 -0.1246 0.07859 -0.0358 0.03431 -0.0644 0.0755 -0.0839 0.1211 -0.0196 0.0456 -0.0297 0.09467 -0.0299 0.14429 -0.0001 0.04961 0.0098 0.09874 0.0291 0.14444 0.0396 0.09037 0.1122 0.16228 0.2029 0.20115 0.0907 0.03887 0.1927 0.04179 0.2855 0.00818 0.2982 -0.0964 0.5881 -0.2164 0.8672 -0.35884 0.1855 -0.11082 0.3534 -0.24855 0.4984 -0.40869 0.0748 0.30828 0.0714 0.63036 -0.0099 0.93698Z" clip-rule="evenodd" stroke-width="1"></path>
  <path fill="#0c6fff" fill-rule="evenodd" d="M3.65786 12.6087h0.99679c0.31897 0 0.44855 0 0.67782 -0.0498 0.91527 -0.0807 1.83586 -0.0807 2.75114 0 0.04931 -0.0013 0.09787 -0.0124 0.1428 -0.0328 0.04493 -0.0204 0.08532 -0.0495 0.11878 -0.0858 0.03346 -0.0362 0.0593 -0.0788 0.07601 -0.1252 0.01671 -0.0464 0.02393 -0.0957 0.02125 -0.145 -0.00255 -0.0498 -0.01489 -0.0985 -0.03633 -0.1435 -0.02143 -0.045 -0.05152 -0.0853 -0.08856 -0.1186 -0.03704 -0.0334 -0.08029 -0.0591 -0.12728 -0.0757 -0.04699 -0.0166 -0.09679 -0.0237 -0.14655 -0.021l-3.37911 -0.0897c-0.33891 0 -0.68779 0 -1.0566 0.0498 -0.36881 0.0498 -0.47846 0.0598 -0.71769 0.0997 -0.3351 0.0029 -0.66906 0.0397 -0.99679 0.1096 -0.05792 0.0447 -0.10482 0.1021 -0.13709 0.1678 -0.03227 0.0656 -0.04905 0.1378 -0.04905 0.211 0 0.0732 0.01678 0.1454 0.04905 0.211 0.03227 0.0657 0.07917 0.1231 0.13709 0.1678 0.47846 0.2791 1.27589 -0.1495 1.76432 -0.1296Z" clip-rule="evenodd" stroke-width="1"></path>
  <path fill="#020202" fill-rule="evenodd" d="M18.8389 18.0013c-0.0514 -1.2133 -0.1812 -2.4219 -0.3887 -3.6184 -0.0136 -0.0463 -0.0364 -0.0895 -0.0671 -0.1268 -0.0306 -0.0373 -0.0685 -0.068 -0.1113 -0.0904 -0.0428 -0.0223 -0.0897 -0.0358 -0.1378 -0.0396 -0.0482 -0.0038 -0.0966 0.0022 -0.1423 0.0176 -0.0965 0.0278 -0.178 0.0927 -0.2266 0.1806 -0.0486 0.0878 -0.0603 0.1914 -0.0326 0.2879 0.1507 1.1235 0.2306 2.2555 0.2392 3.3891 0.0449 0.6942 -0.002 1.3913 -0.1395 2.0733 0 0 0 0.0598 -0.0499 0.0797 -0.0498 0.02 -0.289 0.0499 -0.4485 0.0897 -2.5338 0.3742 -5.0949 0.5309 -7.65537 0.4685 -2.60162 0 -5.20324 -0.0797 -6.84795 -0.2492 -0.45713 -0.0038 -0.91097 -0.0777 -1.34566 -0.2193 -0.09404 -0.1118 -0.14682 -0.2526 -0.14952 -0.3987 -0.01496 -0.2889 -0.01496 -0.5783 0 -0.8672 0 -0.4186 0 -1.3457 -0.06978 -2.4322 -0.06977 -1.7344 -0.21929 -5.6817 -0.289064 -5.6518 -0.055416 -0.3658 0.018893 -0.7394 0.210044 -1.0562 0.19116 -0.31678 0.48712 -0.55669 0.83658 -0.67817 1.13635 -0.47846 2.82092 -0.32894 3.98716 -0.46849l1.79423 -0.07975c0.04347 0.00555 0.08763 0.00207 0.1297 -0.01021 0.04208 -0.01228 0.08117 -0.0331 0.11484 -0.06115 0.03367 -0.02806 0.0612 -0.06276 0.08087 -0.10193 0.01966 -0.03917 0.03104 -0.08198 0.03343 -0.12574 0.0057 -0.08676 -0.02217 -0.17238 -0.07782 -0.23917 -0.05566 -0.06679 -0.13486 -0.10964 -0.22122 -0.11968l-0.93698 0H5.9305c-1.27589 0.08971 -3.05018 -0.08971 -4.26626 0.36882 -0.54701 0.18559 -1.010931 0.55834 -1.309996 1.05252 -0.2990657 0.49419 -0.4140694 1.07805 -0.3247386 1.64875L0.139152 18.998c-0.0414085 0.5006 -0.007811 1.0046 0.099679 1.4952 0.085244 0.2893 0.255404 0.5463 0.488427 0.7377 0.739572 0.3597 1.549952 0.5504 2.372362 0.5582 2.79385 0.1864 5.59608 0.213 8.39298 0.0797 2.1256 -0.0298 4.2429 -0.2735 6.3196 -0.7277 0.1828 -0.0354 0.3562 -0.1088 0.5089 -0.2152 0.1528 -0.1064 0.2816 -0.2436 0.3783 -0.4028 0.177 -0.8283 0.2241 -1.6791 0.1395 -2.5218Z" clip-rule="evenodd" stroke-width="1"></path>
  <path fill="#020202" d="M3.08967 9.87747c-0.08463 -0.02421 -0.17361 -0.0291 -0.26039 -0.01434 -0.08677 0.01477 -0.16913 0.04883 -0.24099 0.09967 -0.07185 0.0508 -0.13139 0.1172 -0.1742 0.1941 -0.04281 0.0769 -0.06781 0.1624 -0.07316 0.2503 -0.00535 0.0878 0.00909 0.1758 0.04226 0.2573 0.03317 0.0815 0.08422 0.1546 0.14938 0.2138 0.06516 0.0591 0.14278 0.1029 0.22712 0.1281 0.08434 0.0252 0.17326 0.0311 0.2602 0.0174 0.67782 0.0698 0.99679 -1.07656 0.06978 -1.14633Z" stroke-width="1"></path>
  <path fill="#020202" d="M5.72121 9.83758c-0.07788 -0.00523 -0.15604 0.00492 -0.23 0.02989s-0.14228 0.06426 -0.20105 0.11563c-0.05878 0.0514 -0.10686 0.1138 -0.1415 0.1838 -0.03465 0.0699 -0.05517 0.146 -0.06041 0.2239 -0.00523 0.0779 0.00492 0.156 0.02989 0.23 0.02497 0.074 0.06426 0.1423 0.11563 0.2011 0.05137 0.0587 0.11382 0.1068 0.18377 0.1415 0.06995 0.0346 0.14605 0.0551 0.22393 0.0604 0.68779 0 0.99679 -1.10648 0.07974 -1.18622Z" stroke-width="1"></path>
</svg>