<svg xmlns="http://www.w3.org/2000/svg" fill="none" viewBox="0 0 24 24" id="Database-Hand--Streamline-Freehand">
  <desc>
    Database Hand Streamline Icon: https://streamlinehq.com
  </desc>
  <path fill="#020202" fill-rule="evenodd" d="M18.9224 17.7022c0.0507 -0.3256 0.0125 -0.6589 -0.1105 -0.9646 -0.1231 -0.3057 -0.3264 -0.5724 -0.5885 -0.7721 -0.2622 -0.1997 -0.5734 -0.3249 -0.9008 -0.3623 -0.3274 -0.0374 -0.6588 0.0143 -0.9593 0.1497 -0.8894 0.4387 -1.6921 1.0347 -2.3692 1.7594 -0.4198 0.3498 -1.8593 1.4095 -1.8893 1.4395 -0.7619 -0.005 -1.5156 -0.1578 -2.21922 -0.4499l-0.05998 0c-0.05998 0 0.06997 -0.1799 0.1799 -0.3299 1.1896 -1.6494 2.7191 -2.2192 1.6395 -3.8886 -0.1716 -0.2375 -0.4138 -0.4146 -0.6921 -0.5062 -0.2783 -0.0916 -0.5784 -0.0928 -0.8574 -0.0036 -1.76938 0.3299 -3.48878 2.0992 -5.1682 2.739 -0.06997 0 -0.14994 0 -0.16994 0.05 -0.28989 -1.8893 -2.06927 -1.3995 -2.74904 -1.3995 -0.67976 0 -2.239218 -0.16 -1.9593157 0.5098 0.0310555 0.0751 0.0903687 0.135 0.1651607 0.1668 0.074793 0.0318 0.159079 0.0329 0.2347 0.0031 0.492394 -0.068 0.992805 -0.0511 1.479485 0.05 0.91968 0.1 1.62943 -0.1599 1.73939 0.6898v5.628c0 0.6698 -0.05998 0.8497 -1.11961 0.9397 -0.65107 0.0446 -1.30512 0.0144 -1.949317 -0.09 -0.083766 -0.0034 -0.165968 0.0234 -0.231645 0.0755 -0.065677 0.0521 -0.110462 0.1261 -0.126204 0.2084 -0.015742 0.0824 -0.001395 0.1676 0.040431 0.2403 0.041826 0.0726 0.10835 0.1279 0.187463 0.1556 0.688342 0.1621 1.392192 0.2492 2.099272 0.2599 0.99965 0 1.62943 -0.1499 1.9993 -0.9996l2.25921 -0.4999c3.55876 0.9197 8.45706 1.1196 11.59596 -0.8797 1.1896 -0.7697 2.5191 -1.7294 1.8594 -2.9989 -0.1168 -0.2659 -0.3064 -0.4934 -0.547 -0.6562 -0.2406 -0.1627 -0.5223 -0.2541 -0.8126 -0.2635Zm-4.3684 0.6498c0.9996 -0.6098 2.2592 -1.9394 2.9989 -1.6395 0.2149 0.0714 0.3949 0.2212 0.5042 0.4194 0.1094 0.1983 0.1399 0.4305 0.0856 0.6503 -1.8594 0.3998 -2.779 0.7997 -4.4385 0.9996l0.8498 -0.4298Zm3.2088 2.3492c-4.2585 2.9289 -10.84619 0.8597 -10.99614 0.9096l-2.06928 0.3899c0.2899 -2.2592 0 -4.5584 0.10997 -4.5784 0.10996 -0.02 0.33988 -0.1899 0.65977 -0.3299 1.83936 -0.7897 3.19888 -2.0893 4.40846 -2.4391 0.41982 -0.12 0.79972 -0.23 0.99962 0.0599 0.6398 0.9997 -0.5098 1.2596 -1.68938 2.7891 -0.60979 0.7797 -0.46983 1.3095 -0.09996 1.6794 0.52974 0.3909 1.14784 0.645 1.79934 0.7397 2.2492 0.5598 6.0679 -0.7097 6.9376 -0.8797 0.6598 -0.1399 1.1296 -0.4498 1.4195 0.1 0.2899 0.5498 -1.0296 1.2596 -1.4795 1.5595Z" clip-rule="evenodd" stroke-width="1"></path>
  <path fill="#0c6fff" fill-rule="evenodd" d="M19.0624 11.0045c1.2111 -0.1421 2.3737 -0.5592 3.3988 -1.21956 0.0678 -0.05176 0.1143 -0.12651 0.1309 -0.21018 0.0166 -0.08368 0.002 -0.17052 -0.041 -0.24419 -0.043 -0.07368 -0.1114 -0.12912 -0.1924 -0.1559 -0.081 -0.02678 -0.1689 -0.02305 -0.2474 0.01048 -0.9607 0.51479 -2.0292 0.79563 -3.1189 0.81975 -3.5887 0.1399 -4.6884 -0.12999 -6.4577 -0.79975 -0.6298 -0.12996 -0.6298 0.44984 -0.13 0.85965 2.6991 1.3796 4.0086 1.1796 6.6577 0.9397Z" clip-rule="evenodd" stroke-width="1"></path>
  <path fill="#020202" fill-rule="evenodd" d="M23.9007 9.0652c-0.3099 -6.68767 -0.2699 -6.15785 -0.3298 -6.27781 0.4198 -1.22957 -1.3596 -2.469142 -2.4592 -2.449149 -0.0814 0.013908 -0.1552 0.056158 -0.2085 0.119274 -0.0532 0.063116 -0.0824 0.14303 -0.0824 0.225606 0 0.082576 0.0292 0.162491 0.0824 0.225607 0.0533 0.063116 0.1271 0.105362 0.2085 0.119272 0.7597 0 2.1892 1.07963 1.4895 1.7194 -0.9997 0.90969 -3.0989 0.99965 -4.4285 1.07963 -1.7893 0.09996 -4.7783 0.13995 -5.9979 -1.21958 -0.1399 -0.15994 -0.1699 -0.34988 0.06 -0.5798C14.1941 0.608147 16.7932 0.798081 19.3523 0.848064c0.8297 0.049982 1.0896 0.129955 1.1596 -0.189934 0.0088 -0.038742 0.0099 -0.078851 0.0031 -0.117995 -0.0069 -0.039145 -0.0214 -0.076545 -0.0428 -0.110029 -0.0214 -0.033483 -0.0492 -0.062381 -0.0819 -0.085016 -0.0326 -0.022635 -0.0694 -0.038555 -0.1083 -0.046835 -2.1592 -0.239916 -4.8983 -0.529815 -6.9976 0 -0.6522 0.188894 -1.2651 0.493649 -1.8093 0.899685 -0.227 0.1751 -0.3948 0.41569 -0.4806 0.68923 -0.0858 0.27355 -0.0856 0.56685 0.0007 0.84024 -0.1599 1.38952 0 2.88899 -0.0799 3.68871 -0.05 0.63978 -0.07 1.60944 -0.06 2.55911 0 1.99927 0 3.22887 0.8397 4.13857 1.3095 1.4195 6.4477 2.1692 10.5363 0.1599 2.1393 -1.0596 1.7594 -2.6191 1.6694 -4.2085Zm-0.9096 1.8394c-0.0625 0.3202 -0.2094 0.6179 -0.4256 0.8622 -0.2162 0.2443 -0.4938 0.4263 -0.804 0.5273 -1.471 0.5913 -3.0265 0.9456 -4.6084 1.0496 -1.0092 0.0555 -2.0208 -0.0457 -2.999 -0.2999 -0.6991 -0.1762 -1.3715 -0.4452 -1.9993 -0.7997 -0.7697 -0.5398 -0.5698 -7.74731 -0.5798 -8.66699 0.9631 0.81157 2.1618 1.29174 3.4188 1.36953 2.1079 0.14048 4.2249 -0.04155 6.2779 -0.53982 0.5986 -0.1645 1.1613 -0.43909 1.6594 -0.80971 0.06 7.90729 0.1099 6.90759 0.06 7.30749Z" clip-rule="evenodd" stroke-width="1"></path>
  <path fill="#0c6fff" fill-rule="evenodd" d="M17.113 7.94565c1.7318 0.06695 3.4566 -0.25411 5.0483 -0.93968 0.0808 -0.04242 0.1415 -0.11522 0.1687 -0.2024 0.0272 -0.08717 0.0187 -0.18157 -0.0238 -0.26244 -0.0424 -0.08086 -0.1152 -0.14156 -0.2024 -0.16874 -0.0871 -0.02718 -0.1815 -0.01863 -0.2624 0.02379 -0.8837 0.28893 -1.8095 0.42747 -2.7391 0.40986 -2.2731 -0.04502 -4.5407 -0.24206 -6.7876 -0.58979 -0.4798 0 -0.6498 0.79972 0.2099 0.99965 1.4531 0.59276 3.0232 0.84247 4.5884 0.72975Z" clip-rule="evenodd" stroke-width="1"></path>
</svg>