<svg xmlns="http://www.w3.org/2000/svg" fill="none" viewBox="0 0 24 24" id="File-Code-C-Plus-Plus--Streamline-Freehand">
  <desc>
    File Code C Plus Plus Streamline Icon: https://streamlinehq.com
  </desc>
  <path fill="#020202" fill-rule="evenodd" d="M15.706 5.61013c-0.2209 0.00102 -0.4417 -0.0157 -0.66 -0.05 0.06 -0.22 0.15 -0.48 0.24 -0.76 0.43 -1.42 0.64 -2.91 -0.5 -3.869996 -0.0529 -0.041438 -0.1193 -0.061663 -0.1863 -0.056722 -0.067 0.004941 -0.1298 0.034691 -0.176 0.083439 -0.0463 0.048749 -0.0727 0.112989 -0.0741 0.180169 -0.0014 0.06718 0.0223 0.13247 0.0664 0.18311 1.18 1.28 -0.27 3.05 -0.42 4.39 -0.15 1.34 3.07 0.9 4.18 0.39l1.69 -0.71c0.07 -0.03661 0.1255 -0.09579 0.1576 -0.16793 0.032 -0.07214 0.0387 -0.153 0.0191 -0.22945 -0.0197 -0.07645 -0.0647 -0.144 -0.1276 -0.19167 -0.0629 -0.04768 -0.1401 -0.07268 -0.2191 -0.07095 -2.12 0.77 -2.21 0.92 -3.99 0.88Z" clip-rule="evenodd" stroke-width="1"></path>
  <path fill="#020202" fill-rule="evenodd" d="M15.8763 0.0600086C14.4961 0 15.1262 0 5.99493 0c-0.08621 0 -0.16889 0.0342459 -0.22985 0.0952039 -0.06095 0.0609581 -0.0952 0.1436351 -0.0952 0.2298431 0 0.086207 0.03425 0.168884 0.0952 0.229842 0.06096 0.060958 0.14364 0.095204 0.22985 0.095204 8.51117 0.07001 8.76127 0 9.82137 0.160023C16.8765 0.970139 19.5669 3.4605 20.247 4.51065c0.1432 0.17334 0.2304 0.38609 0.25 0.61008 -0.1 1.54022 -0.7401 6.00087 -1.0001 7.08097 -0.2601 1.0802 -0.4501 1.8003 -0.6301 2.7104 -0.07 0.3601 -0.5201 4.6007 -1.6503 5.1508 -1.5902 0.7701 -3.3704 0.26 -5.0007 0.4 -1.5224 0.1469 -3.0512 0.217 -4.58064 0.2101 -5.40077 -0.1901 -5.15074 -0.1101 -6.61095 -0.8102 1.33019 -1.8102 2.22032 -6.0008 2.69039 -8.4512 0.53008 -2.70035 0.35005 -5.45075 0.56008 -8.17114 0 -0.47006 0.47007 -3.000426 -0.30004 -2.620371 -0.31005 0.14002 -0.21003 0.600081 -0.21003 0.810111 0 1.3502 -0.33005 6.59095 -0.41006 7.46107C2.95829 12.1587 2.12402 15.3578 0.874193 18.4026c-0.160023 0.3001 -0.35005 0.5901 -0.530076 0.8702 -0.144309 0.1697 -0.2592405 0.3624 -0.34004859 0.57 -0.01514841 0.1556 0.01801329 0.312 0.09496899 0.448 0.0769556 0.136 0.1939646 0.245 0.3350926 0.3121 0.62454 0.353 1.29896 0.6093 2.00029 0.7602 3.27082 0.3228 6.5632 0.3663 9.84138 0.13 1.6903 -0.15 3.5705 0.39 5.4108 -0.5101 1.6802 -0.8201 2.0603 -5.2507 2.1803 -5.8808 0.17 -0.9102 0.4101 -1.8003 0.5901 -2.7004 0.18 -0.9002 0.7901 -5.50081 0.8801 -7.24106 0.08 -1.51022 -4.0706 -4.990716 -5.4608 -5.1007314Z" clip-rule="evenodd" stroke-width="1"></path>
  <path fill="#0c6fff" fill-rule="evenodd" d="M23.0873 5.81082c-0.1 1.54022 -0.9401 7.71108 -1.1601 8.75128 -0.2201 1.0401 -0.4501 1.8002 -0.6301 2.7104 -0.07 0.36 -0.5201 4.6006 -1.6503 5.1507 -1.5902 0.7601 -3.3705 0.26 -5.0007 0.4001 -1.0001 0.09 -3.2405 0.25 -4.5806 0.21 -5.15078 -0.19 -5.14078 0 -6.40096 -0.5701 -0.7301 -0.29 -0.91013 0.4101 -0.46006 0.7201 0.51588 0.3043 1.0935 0.4889 1.69024 0.5401 3.26756 0.323 6.55688 0.3632 9.83138 0.12 1.6903 -0.14 3.5705 0.4001 5.4108 -0.5001 1.6802 -0.8201 2.0703 -5.2507 2.1803 -5.8808 0.17 -0.9101 0.4101 -1.8003 0.5901 -2.7004 0.18 -0.9001 1.0101 -7.08101 1.0902 -8.76125 0.05 -0.94014 -0.8002 -1.08016 -0.9102 -0.19003Z" clip-rule="evenodd" stroke-width="1"></path>
  <path fill="#020202" fill-rule="evenodd" d="M8.61489 9.0012c0.03075 0.03267 0.07075 0.05516 0.11464 0.06444 0.04389 0.00929 0.08958 0.00494 0.13092 -0.01247 0.04135 -0.01741 0.07639 -0.04704 0.10042 -0.08493 0.02402 -0.03789 0.0359 -0.08221 0.03402 -0.12704 -0.41 -1.4 -4.12 0.3 -3.35 3 0.11993 0.5167 0.43096 0.9689 0.8706 1.2657 0.43964 0.2968 0.97532 0.4162 1.4994 0.3343 0.35777 -0.0136 0.70441 -0.128 1 -0.33 0.13128 -0.1011 0.24892 -0.2187 0.35 -0.35 0.02035 -0.041 0.02994 -0.0865 0.02785 -0.1323 -0.00208 -0.0457 -0.01577 -0.0902 -0.03977 -0.1292 -0.024 -0.039 -0.05753 -0.0713 -0.09743 -0.0937 -0.0399 -0.0225 -0.08486 -0.0345 -0.13065 -0.0348 -0.24 0 -0.21 0.31 -0.74 0.43 -0.48419 0.0664 -0.9763 -0.0398 -1.39 -0.3 -0.28381 -0.2752 -0.47628 -0.6308 -0.5514 -1.0189 -0.07511 -0.3881 -0.02925 -0.7899 0.1314 -1.1511 0.52 -1.33 1.88 -1.74 2.04 -1.33Z" clip-rule="evenodd" stroke-width="1"></path>
  <path fill="#020202" fill-rule="evenodd" d="M10.6454 11.2113c0 0.16 0 -0.18 0.07 1.33 0.0118 0.059 0.0436 0.1121 0.0901 0.1502 0.0465 0.0382 0.1048 0.059 0.1649 0.059 0.0602 0 0.1185 -0.0208 0.165 -0.059 0.0465 -0.0381 0.0783 -0.0912 0.09 -0.1502 0.1234 -0.4417 0.2071 -0.8935 0.25 -1.35 0.39 0 0.78 -0.06 1.19 -0.1 0.0663 0 0.1299 -0.0264 0.1768 -0.0732 0.0469 -0.0469 0.0732 -0.1105 0.0732 -0.1768 0 -0.0663 -0.0263 -0.1299 -0.0732 -0.1768 -0.0469 -0.0469 -0.1105 -0.0732 -0.1768 -0.0732 -0.42 -0.07 -0.82 -0.15 -1.21 -0.2 -0.05 -0.35 -0.13 -0.70002 -0.16 -1.05002 0 -0.05835 -0.0232 -0.11431 -0.0644 -0.15557 -0.0413 -0.04125 -0.0972 -0.06443 -0.1556 -0.06443 -0.0583 0 -0.1143 0.02318 -0.1555 0.06443 -0.0413 0.04126 -0.0645 0.09722 -0.0645 0.15557 -0.0812 0.32969 -0.1446 0.66352 -0.19 1.00002 -0.435 0.0114 -0.86609 0.0855 -1.27997 0.22 -0.05157 0.0109 -0.09782 0.0392 -0.13101 0.0802 -0.03319 0.0409 -0.0513 0.0921 -0.0513 0.1448 0 0.0527 0.01811 0.1038 0.0513 0.1448 0.03319 0.0409 0.07944 0.0692 0.13101 0.0802 0.66997 0.07 0.5 0.15 1.25997 0.2Z" clip-rule="evenodd" stroke-width="1"></path>
  <path fill="#020202" fill-rule="evenodd" d="M14.826 11.2113c0 0.16 0 -0.18 0.07 1.33 0 0.0663 0.0263 0.1299 0.0732 0.1768 0.0469 0.0468 0.1105 0.0732 0.1768 0.0732 0.0663 0 0.1299 -0.0264 0.1767 -0.0732 0.0469 -0.0469 0.0733 -0.1105 0.0733 -0.1768 0.1287 -0.4409 0.2158 -0.8929 0.26 -1.35 0.39 0 0.77 -0.06 1.19 -0.1 0.0663 0 0.1299 -0.0264 0.1767 -0.0732 0.0469 -0.0469 0.0733 -0.1105 0.0733 -0.1768 0 -0.0663 -0.0264 -0.1299 -0.0733 -0.1768 -0.0468 -0.0469 -0.1104 -0.0732 -0.1767 -0.0732 -0.42 -0.07 -0.82 -0.15 -1.22 -0.2 0 -0.35 -0.12 -0.70002 -0.15 -1.05002 0 -0.05835 -0.0232 -0.11431 -0.0645 -0.15557 -0.0412 -0.04125 -0.0972 -0.06443 -0.1555 -0.06443 -0.0584 0 -0.1143 0.02318 -0.1556 0.06443 -0.0413 0.04126 -0.0644 0.09722 -0.0644 0.15557 -0.0812 0.32969 -0.1447 0.66352 -0.19 1.00002 -0.435 0.0114 -0.8661 0.0855 -1.28 0.22 -0.0516 0.0109 -0.0979 0.0392 -0.131 0.0802 -0.0332 0.0409 -0.0513 0.0921 -0.0513 0.1448 0 0.0527 0.0181 0.1038 0.0513 0.1448 0.0331 0.0409 0.0794 0.0692 0.131 0.0802 0.66 0.07 0.49 0.15 1.26 0.2Z" clip-rule="evenodd" stroke-width="1"></path>
</svg>