<svg xmlns="http://www.w3.org/2000/svg" fill="none" viewBox="0 0 24 24" id="Programming-Language-Bookmark-Javascript--Streamline-Freehand">
  <desc>
    Programming Language Bookmark Javascript Streamline Icon: https://streamlinehq.com
  </desc>
  <path fill="#020202" fill-rule="evenodd" d="M18.2822 22.7507c-0.6626 0.0885 -1.3304 0.1319 -1.9989 0.13 -1.599 0 -3.2081 -0.13 -4.7872 -0.12H7.3985l-2.4086 -0.0199c-0.46243 -0.0144 -0.92329 -0.0612 -1.37919 -0.14 -0.43636 -0.0685 -0.86052 -0.1997 -1.25927 -0.3897l-0.48971 -0.2099c-0.24109 -0.6833 -0.38901 -1.396 -0.43975 -2.1188 -0.09994 -1.2692 0 -2.5985 -0.07995 -3.7578 0 -0.7496 -0.05997 -1.5091 -0.05997 -2.2687v-2.2587c0.05997 -1.1993 0.08995 -2.43853 0.1799 -3.66782 0.29983 0 0.58966 -0.07995 0.87949 -0.09994h2.08878c0.6896 0 1.33922 -0.09994 1.99884 -0.14991 0.65961 -0.04997 1.32922 -0.13992 1.99883 -0.13992 0.56531 -0.0052 1.13012 0.03491 1.689 0.11993 0.0983 0.01627 0.1991 -0.00569 0.2816 -0.06137 0.0826 -0.05569 0.1407 -0.14088 0.1625 -0.23808 0.0217 -0.0972 0.0054 -0.19904 -0.0456 -0.2846 -0.0509 -0.08557 -0.1327 -0.14837 -0.2286 -0.17551 -0.97591 -0.2824 -1.98291 -0.44352 -2.99823 -0.47972H6.08926c-0.60964 0 -1.20929 0.09994 -1.78895 0.15991 -0.57967 0.05996 -1.39919 0.23986 -2.09878 0.39976l-0.67961 0.19989c0.08241 -0.95361 0.23947 -1.8993 0.46973 -2.82835 0.0121 -0.04332 0.01547 -0.0886 0.00994 -0.13323 -0.00554 -0.04463 -0.01988 -0.08771 -0.04219 -0.12675 -0.02231 -0.03905 -0.05215 -0.07328 -0.08779 -0.1007 -0.03564 -0.02743 -0.07636 -0.04751 -0.11982 -0.05908 -0.04331 -0.01209 -0.08859 -0.01547 -0.13322 -0.00994 -0.04463 0.00554 -0.08771 0.01988 -0.12676 0.04219 -0.03904 0.02231 -0.07327 0.05215 -0.1007 0.08779 -0.02743 0.03564 -0.04751 0.07636 -0.05907 0.11982C0.726825 6.58329 0.378422 9.05226 0.292641 11.5373c-0.059965 0.7695 -0.109936 1.5391 -0.139919 2.3186 -0.029982 0.7796 0 1.5391 0 2.3087 0 1.1793 -0.0799531 2.5285 0 3.8377 0.049648 0.9115 0.245361 1.8091 0.579663 2.6585 0.080791 0.1723 0.209079 0.3179 0.369785 0.4198 0.22694 0.1239 0.46439 0.2276 0.70959 0.3098 0.40239 0.1874 0.82489 0.3282 1.25926 0.4197 0.63224 0.1235 1.27471 0.1871 1.91888 0.1899h2.49855l4.07765 -0.1899c1.589 -0.0599 3.1981 0 4.7972 -0.0499 0.7 -0.0254 1.3977 -0.0955 2.0888 -0.2099 0.1001 -0.0172 0.1895 -0.0728 0.2492 -0.1549s0.0851 -0.1843 0.0706 -0.2849c-0.0025 -0.0582 -0.0181 -0.1152 -0.0456 -0.1666 -0.0274 -0.0515 -0.0661 -0.0961 -0.1131 -0.1306 -0.0469 -0.0345 -0.1011 -0.0581 -0.1584 -0.0689 -0.0573 -0.0108 -0.1163 -0.0087 -0.1726 0.0063Z" clip-rule="evenodd" stroke-width="1"></path>
  <path fill="#0c6fff" fill-rule="evenodd" d="M11.4561 14.3156c0.0971 0.0097 0.1944 -0.0164 0.2736 -0.0735 0.0792 -0.057 0.1347 -0.1411 0.1562 -0.2363 0.0083 -0.1018 -0.0236 -0.2029 -0.089 -0.2814 -0.0655 -0.0785 -0.1591 -0.1282 -0.2608 -0.1383 -1.0195 -0.1752 -2.05654 -0.2255 -3.08821 -0.15 -0.60528 0.0527 -1.2063 0.1461 -1.79896 0.2799 -0.88948 0.2099 -1.73898 0.4997 -2.58849 0.7096 -0.04474 0.0049 -0.08806 0.0187 -0.12743 0.0405 -0.03937 0.0219 -0.07401 0.0513 -0.10191 0.0867 -0.02789 0.0353 -0.04849 0.0758 -0.06059 0.1192 -0.0121 0.0433 -0.01546 0.0887 -0.00989 0.1333 0.01244 0.0913 0.06034 0.1739 0.13331 0.23 0.07296 0.0561 0.16511 0.0812 0.25646 0.0699 0.99942 0 1.99884 -0.06 2.99825 -0.1799l0.64962 -0.1c0.33014 0.8343 0.45026 1.7369 0.3498 2.6285 -0.05263 0.4252 -0.19576 0.8341 -0.41975 1.1993 -0.22054 0.3631 -0.52141 0.6708 -0.87949 0.8995 -0.16234 0.1205 -0.33646 0.2243 -0.5197 0.3098 -0.15262 0.0797 -0.31864 0.1305 -0.48971 0.1499 -0.18031 -0.0006 -0.35928 -0.031 -0.5297 -0.0899 -0.34108 -0.124 -0.67477 -0.2675 -0.99941 -0.4298 -0.0916 -0.0455 -0.19742 -0.0532 -0.29464 -0.0214 -0.09722 0.0317 -0.17806 0.1005 -0.22506 0.1913 -0.02391 0.0451 -0.03849 0.0945 -0.04286 0.1454 -0.00438 0.0508 0.00154 0.1021 0.0174 0.1506 0.01586 0.0485 0.04133 0.0933 0.0749 0.1317 0.03356 0.0385 0.07453 0.0698 0.12046 0.092 0.30982 0.1899 0.61964 0.4198 0.99942 0.5897 0.27145 0.1391 0.56618 0.2272 0.86949 0.2598 0.24528 0.0114 0.49093 -0.0121 0.72958 -0.0699 0.31844 -0.0868 0.62668 -0.2075 0.91946 -0.3598 0.44565 -0.2363 0.83631 -0.5641 1.14634 -0.962 0.31003 -0.3979 0.53243 -0.8568 0.65261 -1.3467 0.20236 -1.2424 -0.04955 -2.5161 -0.70958 -3.5879l0.31981 -0.05c0.84494 -0.1861 1.70427 -0.2998 2.56847 -0.3398Z" clip-rule="evenodd" stroke-width="1"></path>
  <path fill="#0c6fff" fill-rule="evenodd" d="M16.1333 19.5126c-0.5289 0.3533 -1.1436 0.5571 -1.7789 0.5896 -0.6343 0.0292 -1.2602 -0.1537 -1.779 -0.5197 -0.0815 -0.052 -0.1795 -0.0719 -0.2749 -0.0557 -0.0953 0.0162 -0.1813 0.0672 -0.2411 0.1433 -0.0598 0.076 -0.0892 0.1715 -0.0825 0.268 0.0067 0.0965 0.049 0.1871 0.1188 0.2541 0.6401 0.5192 1.4347 0.811 2.2587 0.8295 0.8173 0.0308 1.627 -0.1665 2.3386 -0.5697 0.5545 -0.3023 1.004 -0.7658 1.2893 -1.3292 0.2079 -0.4365 0.2505 -0.9336 0.1199 -1.3992 -0.0783 -0.2766 -0.2203 -0.5309 -0.4147 -0.7427 -0.1944 -0.2117 -0.4358 -0.375 -0.7046 -0.4766 -0.7926 -0.2267 -1.6064 -0.3707 -2.4286 -0.4297 -0.5197 -0.08 -0.9994 -0.2099 -0.9994 -0.8595 0 -0.11 0.0799 -0.1799 0.1699 -0.2499 0.1286 -0.1014 0.2657 -0.1917 0.4097 -0.2698 0.4982 -0.2747 1.0512 -0.4351 1.6191 -0.4697 0.5699 -0.0291 1.1368 0.0988 1.639 0.3697 0.038 0.0238 0.0804 0.0399 0.1246 0.0472 0.0442 0.0074 0.0895 0.0059 0.1332 -0.0043 0.0436 -0.0102 0.0849 -0.029 0.1212 -0.0552 0.0364 -0.0262 0.0672 -0.0594 0.0907 -0.0976 0.0455 -0.0774 0.0595 -0.1694 0.039 -0.2568 -0.0205 -0.0875 -0.0738 -0.1637 -0.1489 -0.2129 -0.595 -0.3913 -1.287 -0.6093 -1.9988 -0.6297 -0.7105 -0.0318 -1.4187 0.1016 -2.0688 0.3898 -0.3342 0.1306 -0.6423 0.3202 -0.9095 0.5597 -0.1232 0.1209 -0.2204 0.2658 -0.2857 0.4256s-0.0973 0.3312 -0.0941 0.5038c-0.0136 0.2778 0.034 0.5551 0.1393 0.8124 0.1054 0.2573 0.2659 0.4883 0.4704 0.6768 0.7611 0.4949 1.6507 0.7555 2.5585 0.7495 0.3411 0.0171 0.6779 0.0844 0.9994 0.1999 0.0976 0.029 0.1872 0.0801 0.2618 0.1495 0.0745 0.0693 0.132 0.155 0.1679 0.2503 0.0327 0.1183 0.0415 0.242 0.0261 0.3638 -0.0155 0.1218 -0.0549 0.2393 -0.116 0.3458 -0.1934 0.2943 -0.4582 0.535 -0.7696 0.6996Z" clip-rule="evenodd" stroke-width="1"></path>
  <path fill="#0c6fff" fill-rule="evenodd" d="M13.7947 2.54246c-0.5796 0 -0.8795 -0.1599 -1.2792 0.08995 -0.2521 0.31551 -0.3927 0.70558 -0.3998 1.10936v0.20987c-0.1299 0.52969 -0.1299 1.05939 -0.1299 1.59907l-0.1299 1.45915V9.0087c-0.0092 0.12642 -0.0092 0.25335 0 0.37978 0.0404 0.14193 0.1287 0.26551 0.2498 0.34979 0.0799 0.05753 0.1726 0.09485 0.27 0.10878 0.0975 0.01392 0.1969 0.00403 0.2897 -0.02882 0.3479 -0.1307 0.6548 -0.35143 0.8895 -0.63963 0.3824 -0.51121 0.7169 -1.05652 0.9994 -1.62905 0.0138 -0.07158 0.0339 -0.14181 0.06 -0.20988l0.9994 1.29924c0.1499 0.19989 0.4997 0.74957 0.5597 0.80953 0.0935 0.11942 0.2296 0.19817 0.3797 0.21987 0.1111 0.02769 0.228 0.01938 0.334 -0.02373 0.106 -0.04312 0.1955 -0.1188 0.2557 -0.21613 0.1104 -0.14763 0.1856 -0.31855 0.2199 -0.49971 0.0569 -0.27965 0.0871 -0.56411 0.0899 -0.8495l-0.1699 -2.60848 -0.1899 -1.57908c0 -0.61964 -0.1299 -0.82952 -0.3098 -0.99942 -0.3498 -0.38977 -1.8689 -0.25985 -2.9883 -0.3498Zm2.6085 4.99709c-0.1499 -0.20987 -0.2798 -0.42975 -0.4397 -0.63962 -0.1659 -0.23102 -0.3461 -0.45133 -0.5397 -0.65962 -0.1305 -0.15586 -0.278 -0.29666 -0.4398 -0.41976 -0.1162 -0.07845 -0.2502 -0.12655 -0.3897 -0.13991 -0.1324 -0.01287 -0.2657 0.01226 -0.3843 0.07245 -0.1186 0.06018 -0.2176 0.15292 -0.2853 0.26735 -0.1703 0.27539 -0.3206 0.56262 -0.4498 0.8595 -0.1299 0.24985 -0.3098 0.61964 -0.5097 0.99941l-0.1099 -0.86949V3.73177h0.8795l2.5485 0.07995 0.0999 1.69901 0.05 1.49913 -0.03 0.52969Z" clip-rule="evenodd" stroke-width="1"></path>
  <path fill="#020202" fill-rule="evenodd" d="M23.8289 9.51844c-0.4697 -10.004176 -0.05 -8.654962 -7.7655 -9.284595 -1.4491 -0.11993 -2.9882 -0.2198718 -4.4874 -0.2198718C9.05648 -0.0606946 6.53697 0.164082 4.07041 0.683583c-0.0419 0.009743 -0.08131 0.028104 -0.11572 0.053914 -0.03441 0.02581 -0.06308 0.058504 -0.08416 0.095999 -0.04136 0.027237 -0.07682 0.062503 -0.10429 0.103706 -0.02747 0.041203 -0.04638 0.087508 -0.05562 0.136158 -0.12699 0.24648 -0.22107 0.50857 -0.27983 0.77954 -0.01966 0.10906 -0.01966 0.22075 0 0.32981 0.00121 0.10845 0.01804 0.21616 0.04997 0.31981 0.0389 0.17802 0.10283 0.34963 0.18989 0.50971l-0.81953 0.10993c-0.08768 0.01928 -0.1646 0.07153 -0.21483 0.14594 -0.05023 0.07442 -0.06993 0.1653 -0.05501 0.25383 0.00789 0.04471 0.02521 0.08723 0.05081 0.12472 0.02559 0.0375 0.05888 0.06912 0.09764 0.09275 0.03876 0.02364 0.08211 0.03875 0.12717 0.04433 0.04505 0.00559 0.09078 0.00151 0.13414 -0.01195l2.29866 -0.09994c1.46915 -0.06996 2.9183 0 4.37745 0 0.77955 0 0.85955 -0.04997 1.63905 0 0.5397 0 0.4098 -1.24927 -0.1499 -1.25926H8.76768c-1.18931 0.05996 -2.37862 0.18989 -3.55793 0.35979l-0.64962 0.08994c0.07596 -0.17512 0.12644 -0.36023 0.14991 -0.54968 0.01981 -0.14925 0.01981 -0.30048 0 -0.44973 -0.04275 -0.18614 -0.09614 -0.36966 -0.15991 -0.54968 1.12015 -0.14136 2.24936 -0.19815 3.37804 -0.1699 0.90947 0 1.90888 0.07995 2.99823 0.11993l2.9483 0.10993c3.458 0.10994 6.806 0.25985 8.3152 0.44974 0.2498 1.89889 0.3697 3.79779 0.4297 5.69668v13.672l-0.3998 -0.0799c-0.1264 -0.0099 -0.2533 -0.0099 -0.3797 0 -0.1231 -0.0099 -0.2468 -0.0099 -0.3698 0 -0.2998 0.05 -0.5497 0.1499 -0.8295 0.2199 0 -0.2699 0.0899 -0.5497 0.1199 -0.8196 0.1599 -1.4391 0.1899 -2.9183 0.2598 -4.2875 0.05 -1.719 0.09 -3.428 0 -5.137 -0.0999 -2.56848 -0.3897 -5.117 -0.6696 -7.67551 -0.0168 -0.08375 -0.0637 -0.15845 -0.1318 -0.21 -0.0681 -0.05155 -0.1528 -0.07639 -0.238 -0.06983 -0.0599 0 -0.0899 0 -0.1299 0.05996l-2.0888 -0.23986c-0.5996 -0.06996 -0.4297 0.70959 0 0.87949 0.7996 0 1.1294 0.10994 1.9289 0.13992 0 0.89947 0.02 1.79895 0.06 2.69843 -0.1899 0 -0.3798 -0.10994 -0.5897 -0.14992 -0.1597 -0.0103 -0.32 -0.0103 -0.4797 0 -0.1596 -0.01485 -0.3202 -0.01485 -0.4797 0h-0.1699c-0.0786 0.0747 -0.1412 0.1646 -0.184 0.26425 -0.0428 0.09966 -0.0649 0.20697 -0.0649 0.31542 0 0.10844 0.0221 0.21576 0.0649 0.31541 0.0428 0.09965 0.1054 0.18956 0.184 0.26425h0.6496c0.1531 0.01032 0.3067 0.01032 0.4597 0l0.6297 -0.09994v8.57503c0 1.4491 0.0899 2.8083 0 4.2375 -0.0333 0.92 -0.1605 1.8343 -0.3798 2.7284 -0.0292 0.0994 -0.0176 0.2063 0.032 0.2972 0.0497 0.0909 0.1334 0.1584 0.2328 0.1875 0.0994 0.0292 0.2063 0.0177 0.2972 -0.032 0.0909 -0.0497 0.1584 -0.1334 0.1876 -0.2328 0.1399 -0.4398 0.2498 -0.8895 0.3497 -1.3492 0.2963 0.1366 0.604 0.2469 0.9195 0.3298 0.1331 0.0099 0.2667 0.0099 0.3998 0 0.1343 -0.0068 0.2679 -0.0235 0.3997 -0.05 1.5092 -0.3098 1.3493 0.3498 1.6291 -7.9254 0.05 -1.5391 0.07 -3.1881 -0.01 -4.82716Z" clip-rule="evenodd" stroke-width="1"></path>
</svg>