<svg xmlns="http://www.w3.org/2000/svg" fill="none" viewBox="0 0 24 24" id="Responsive-Design-Hand--Streamline-Freehand">
  <desc>
    Responsive Design Hand Streamline Icon: https://streamlinehq.com
  </desc>
  <path fill="#020202" fill-rule="evenodd" d="M2.50762 2.71494c2.93878 0.19713 5.8884 0.16706 8.82258 -0.08993 0.0432 0.008 0.0877 0.00638 0.1302 -0.00474 0.0426 -0.01112 0.0822 -0.03146 0.116 -0.05959 0.0338 -0.02813 0.061 -0.06336 0.0797 -0.10318 0.0186 -0.03982 0.0283 -0.08326 0.0283 -0.12724 0 -0.04398 -0.0097 -0.08742 -0.0283 -0.12724 -0.0187 -0.03982 -0.0459 -0.07505 -0.0797 -0.10318 -0.0338 -0.02813 -0.0734 -0.04847 -0.116 -0.05959 -0.0425 -0.01112 -0.087 -0.01274 -0.1302 -0.00474 -5.21562 -0.53954 -3.71689 -0.37968 -8.86254 0 -0.0901 0.0053 -0.1744 0.04617 -0.23436 0.11363 -0.05997 0.06746 -0.09067 0.15597 -0.08537 0.24607 0.0053 0.09009 0.04617 0.1744 0.11363 0.23436 0.06745 0.05996 0.15597 0.09067 0.24606 0.08537Z" clip-rule="evenodd" stroke-width="1"></path>
  <path fill="#020202" fill-rule="evenodd" d="M6.60417 9.35933c-1.75831 -0.28024 -3.55307 -0.23621 -5.29553 0.12989 -0.20982 -2.17816 -0.15986 -1.84843 0.08993 -6.56445 0.05962 -0.053 0.09575 -0.12752 0.10043 -0.20715 0.00469 -0.07964 -0.02246 -0.15787 -0.07546 -0.21749 -0.05299 -0.05963 -0.12751 -0.09576 -0.20714 -0.10044 -0.07964 -0.00469 -0.15787 0.02246 -0.217497 0.07546 -0.31973 0.25978 -0.279764 0.99915 -0.349705 1.27892C0.188447 5.73717 0.033454 7.77903 0.189586 9.80896c0.046436 0.77984 0.21153 1.54804 0.489587 2.27804 0.569517 0.7994 2.997467 0.7794 3.996627 0.7694 -0.22639 0.2853 -0.38975 0.6154 -0.47931 0.9684 -0.08955 0.3531 -0.10327 0.7211 -0.04025 1.0799 -0.36171 0.0403 -0.71533 0.1346 -1.04912 0.2797 -0.06887 0.0128 -0.13112 0.0492 -0.17592 0.103 -0.0448 0.0539 -0.06933 0.1217 -0.06933 0.1918 0 0.07 0.02453 0.1378 0.06933 0.1917 0.0448 0.0538 0.10705 0.0903 0.17592 0.103 0.37262 0.1662 0.77603 0.252 1.184 0.252 0.40798 0 0.81139 -0.0858 1.184 -0.252 0.0901 0 0.17651 -0.0358 0.24022 -0.0995 0.06371 -0.0637 0.0995 -0.1501 0.0995 -0.2402 0 -0.0901 -0.03579 -0.1765 -0.0995 -0.2402s-0.15012 -0.0995 -0.24022 -0.0995l-0.47959 -0.0999c0.34526 -0.6488 0.47475 -1.3908 0.36969 -2.1182 0 0 -0.10991 0 0.73937 -0.05 0.0901 0 0.17651 -0.0358 0.24022 -0.0995 0.06371 -0.0637 0.0995 -0.1501 0.0995 -0.2402 0 -0.0901 -0.03579 -0.1765 -0.0995 -0.2402s-0.15012 -0.0995 -0.24022 -0.0995c-1.44892 -0.0015 -2.89207 -0.1827 -4.29637 -0.5396 -0.29975 -0.1099 -0.21981 -0.0599 -0.28976 -0.4296 -0.06994 -0.3697 -0.09991 -0.6095 -0.13988 -0.9992 2.17816 0.2598 2.11821 0.1999 5.24557 -0.1398 0.04462 -0.0014 0.08853 -0.0114 0.12925 -0.0297 0.04071 -0.01831 0.07742 -0.04443 0.10804 -0.0769 0.03062 -0.03248 0.05454 -0.07066 0.0704 -0.11238 0.01586 -0.04172 0.02335 -0.08615 0.02204 -0.13076 -0.00132 -0.04462 -0.0114 -0.08853 -0.02969 -0.12925 -0.01828 -0.04071 -0.04441 -0.07742 -0.07688 -0.10804 -0.03247 -0.03062 -0.07066 -0.05454 -0.11238 -0.0704 -0.04171 -0.01586 -0.08615 -0.02335 -0.13076 -0.02204Z" clip-rule="evenodd" stroke-width="1"></path>
  <path fill="#020202" fill-rule="evenodd" d="M19.853 10.2485c-0.9513 0.2088 -1.9237 0.3061 -2.8975 0.2898 -0.7678 0.006 -1.5342 -0.0643 -2.2881 -0.2098 -0.3797 -0.0899 -0.5395 -0.07 -0.5395 -0.1999 0 -0.12984 -0.3497 -7.72343 0.0899 -8.93241 0.2848 -0.16194 0.6024 -0.257571 0.9292 -0.279764 -0.0264 0.514624 0.0803 1.027374 0.3098 1.488744 0.4107 0.44981 0.9578 0.75215 1.5572 0.86048 0.5994 0.10832 1.2178 0.01662 1.76 -0.26099 0.5149 -0.5418 0.8165 -1.25155 0.8492 -1.99831 0.1385 0.02508 0.2753 0.05845 0.4097 0.09992 0.0821 0.01951 0.1685 0.00778 0.2424 -0.0329 0.0739 -0.04067 0.13 -0.107394 0.1574 -0.187173 0.0274 -0.079779 0.0242 -0.166907 -0.0091 -0.244428 -0.0332 -0.077521 -0.0942 -0.139888 -0.1709 -0.174963 -1.3289 -0.3896713 -6.2647 -0.949199 -6.8442 0.309738 -0.5296 1.099076 -0.6695 8.802566 -0.3098 9.831656 0.5096 1.3989 5.1657 1.1291 6.6245 0.6795 0.3931 -0.0824 0.746 -0.2976 0.9991 -0.6095 0.3297 -0.5496 0 -8.27303 0 -8.75263 0 -0.07949 -0.0316 -0.15574 -0.0878 -0.21195 -0.0562 -0.05621 -0.1324 -0.08779 -0.2119 -0.08779 -0.0795 0 -0.1558 0.03158 -0.212 0.08779 -0.0562 0.05621 -0.0878 0.13246 -0.0878 0.21195 0 2.97749 -0.1399 8.35293 -0.2698 8.32293Zm-0.8692 -9.24215c-0.1193 0.45671 -0.3571 0.87379 -0.6894 1.20898 -0.353 0.07 -0.7162 0.07 -1.0691 0 -1.239 -0.20982 -1.1691 -0.44962 -1.4089 -1.20898V0.856477c1.0582 -0.056265 2.1193 -0.006055 3.1674 0.149873Z" clip-rule="evenodd" stroke-width="1"></path>
  <path fill="#020202" fill-rule="evenodd" d="M23.5098 19.191c-0.8692 -1.5987 -2.9175 -1.7585 -4.5761 -0.9992 -0.8992 -7.124 -4.2564 -6.5444 -4.3763 -3.3671 -0.0463 1.4511 0.0474 2.9032 0.2797 4.3363 -1.2889 -0.7993 -3.2572 -0.3597 -3.1773 1.259 0.05 1.069 1.8385 3.2072 3.6969 3.5569 0.0344 0.0152 0.0715 0.0231 0.1091 0.0231 0.0376 0 0.0747 -0.0079 0.1091 -0.0231 0.0344 -0.0152 0.0652 -0.0374 0.0905 -0.0652 0.0253 -0.0278 0.0445 -0.0605 0.0563 -0.0962 0.0119 -0.0356 0.0162 -0.0734 0.0127 -0.1108 -0.0036 -0.0374 -0.0149 -0.0736 -0.0333 -0.1064 -0.0183 -0.0328 -0.0434 -0.0614 -0.0734 -0.0839 -0.0301 -0.0225 -0.0645 -0.0386 -0.1011 -0.047 -0.3397 -0.1799 -2.8276 -2.1282 -2.8676 -3.0974 0 -0.6994 0.9991 -0.7194 1.6486 -0.3697 0.3395 0.2372 0.697 0.4477 1.0691 0.6295 0.0739 0.022 0.152 0.0263 0.2279 0.0125 0.0759 -0.0139 0.1474 -0.0455 0.2088 -0.0922 0.0614 -0.0468 0.1108 -0.1074 0.1443 -0.1769 0.0335 -0.0695 0.0501 -0.1459 0.0485 -0.223 -0.0686 -0.5508 -0.1653 -1.0977 -0.2898 -1.6386 -0.0899 -0.7894 -0.5096 -4.776 0.2598 -4.9159 0.3097 -0.0699 0.5595 0.2798 0.7194 0.5595 0.9392 1.6786 0.9492 4.6861 1.179 5.2356 0.0341 0.0883 0.088 0.1675 0.1575 0.2317 0.0695 0.0642 0.1528 0.1116 0.2434 0.1386 0.0907 0.0271 0.1864 0.0329 0.2797 0.0172s0.1817 -0.0525 0.2586 -0.1077c0.446 -0.3424 0.9662 -0.5751 1.5187 -0.6794 0.4772 -0.0857 0.9691 0.0105 1.3788 0.2697 0.9992 0.7694 0.6895 2.1582 0.4796 3.617 -0.0091 0.1837 0.0525 0.364 0.1722 0.5038 0.1196 0.1397 0.2883 0.2283 0.4713 0.2475 0.183 0.0192 0.3664 -0.0325 0.5124 -0.1444 0.1461 -0.1118 0.2438 -0.2754 0.2729 -0.4571 0.2498 -1.099 0.4497 -2.8376 -0.1099 -3.8367Z" clip-rule="evenodd" stroke-width="1"></path>
  <path fill="#0c6fff" fill-rule="evenodd" d="M12.3793 17.3925c0 -0.5095 -0.6694 -0.1299 -2.48791 -0.3896 -0.15987 0 -0.87926 -0.1599 -0.92922 -0.2998 -0.30742 -2.2591 -0.34097 -4.5471 -0.09992 -6.81424 0 -0.18984 0.18984 -0.36969 0.12989 -0.42964 0.60272 -0.17512 1.22236 -0.28565 1.84846 -0.32972 -0.0799 0.50957 -0.07 1.4688 -0.2998 2.9975 -0.0984 1.4657 -0.0616 2.9373 0.1099 4.3963 0 0.3896 0.6695 0.3896 0.6695 0 0.0799 -0.8793 0.2198 -1.7486 0.2797 -2.6278 0.0719 -1.6201 0.0218 -3.2433 -0.1498 -4.85592h0.6694c0.0901 0 0.1765 -0.03579 0.2402 -0.0995s0.0995 -0.15012 0.0995 -0.24021c0 -0.0901 -0.0358 -0.17651 -0.0995 -0.24022 -0.0637 -0.06371 -0.1501 -0.0995 -0.2402 -0.0995 -1.2037 -0.06018 -2.40998 0.04063 -3.58697 0.29975 -1.22896 0.49958 -1.13904 6.8342 -0.41964 8.4129 0.47959 0.9992 2.82761 0.7194 3.99661 0.6395 0.0778 -0.0077 0.1495 -0.0453 0.1999 -0.1051 0.0504 -0.0597 0.0755 -0.1367 0.0699 -0.2147Z" clip-rule="evenodd" stroke-width="1"></path>
  <path fill="#0c6fff" fill-rule="evenodd" d="M19.7132 12.5566c-0.2545 0.922 -0.2545 1.8956 0 2.8176 0 0.0901 0.0358 0.1765 0.0995 0.2402s0.1501 0.0995 0.2402 0.0995c0.0901 0 0.1765 -0.0358 0.2402 -0.0995s0.0995 -0.1501 0.0995 -0.2402c0.3897 -1.6486 0.3797 -1.5487 -0.1099 -2.9075 -0.0274 -0.0592 -0.0734 -0.1078 -0.1309 -0.1384 -0.0575 -0.0307 -0.1234 -0.0418 -0.1878 -0.0317 -0.0644 0.0102 -0.1237 0.0411 -0.169 0.088 -0.0452 0.0469 -0.074 0.1073 -0.0818 0.172Z" clip-rule="evenodd" stroke-width="1"></path>
</svg>