<svg xmlns="http://www.w3.org/2000/svg" fill="none" viewBox="0 0 14 14" id="Archive-Box--Streamline-Flex-Remix">
  <desc>
    Archive Box Streamline Icon: https://streamlinehq.com
  </desc>
  <g id="archive-box--box-content-banker-archive-file">
    <path id="Union" fill="#000000" fill-rule="evenodd" d="M2.51449 1.09007c1.44606 -0.04391 2.94797 -0.08952 4.48541 -0.08952 1.53745 0 3.0394 0.04561 4.4854 0.08952 0.4101 0.01246 0.8158 0.02478 1.2165 0.03588 0.515 0.01427 0.9946 0.34382 1.1368 0.86373 0.2166 0.79139 0.2166 1.35262 0 2.14401 -0.1296 0.47379 -0.5394 0.7895 -1.0008 0.85258 0.0543 0.62396 0.0925 1.26571 0.0925 1.92013 0 1.13984 -0.1161 2.3572 -0.233 3.4759 -0.1331 1.2737 -1.1496 2.282 -2.4159 2.4275 -2.19991 0.2528 -4.31153 0.2528 -6.51144 0 -1.26625 -0.1455 -2.28276 -1.1538 -2.41588 -2.4275 -0.11693 -1.1187 -0.23299 -2.33606 -0.23299 -3.4759 0 -0.65235 0.03791 -1.29211 0.09198 -1.9142 -0.481988 -0.04603 -0.917497 -0.36731 -1.051893 -0.85851 -0.2165302 -0.79139 -0.2165303 -1.35262 0 -2.14401 0.142251 -0.51991 0.621847 -0.84946 1.136833 -0.86373 0.40068 -0.0111 0.80635 -0.02342 1.21648 -0.03588Zm-0.05008 3.94171c-0.0554 0.62215 -0.09332 1.24647 -0.09332 1.87462 0 1.06728 0.10913 2.22573 0.22621 3.3459 0.07124 0.6816 0.62178 1.236 1.31538 1.3157 2.10508 0.2419 4.12093 0.2419 6.22602 0 0.6936 -0.0797 1.2441 -0.6341 1.3154 -1.3157 0.117 -1.12017 0.2262 -2.27862 0.2262 -3.3459 0 -0.62867 -0.038 -1.25351 -0.0935 -1.87618 -0.0338 0.00102 -0.0676 0.00205 -0.1014 0.00308 -1.446 0.04392 -2.94809 0.08952 -4.4855 0.08952 -1.53742 0 -3.03929 -0.0456 -4.48533 -0.08952 -0.0167 -0.00051 -0.03347 -0.00101 -0.05016 -0.00152Zm2.33637 3.11468c0 0.41422 0.33579 0.75 0.75 0.75h2.94588c0.41421 0 0.75 -0.33578 0.75 -0.75 0 -0.41421 -0.33579 -0.75 -0.75 -0.75H5.55078c-0.41421 0 -0.75 0.33579 -0.75 0.75Z" clip-rule="evenodd" stroke-width="1"></path>
  </g>
</svg>