<svg xmlns="http://www.w3.org/2000/svg" fill="none" viewBox="0 0 14 14" id="Brightness-4--Streamline-Flex-Remix">
  <desc>
    Brightness 4 Streamline Icon: https://streamlinehq.com
  </desc>
  <g id="brightness-4--bright-adjust-brightness-adjustment-sun-raise-controls-dot">
    <path id="Union" fill="#000000" fill-rule="evenodd" d="M7 0c0.41421 0 0.75 0.335786 0.75 0.75v0.52084c0 0.41421 -0.33579 0.75 -0.75 0.75s-0.75 -0.33579 -0.75 -0.75V0.75C6.25 0.335786 6.58579 0 7 0ZM2.05013 2.05025c0.29289 -0.2929 0.76776 -0.2929 1.06066 0l0.36828 0.36828c0.2929 0.2929 0.2929 0.76777 0 1.06066 -0.29289 0.2929 -0.76776 0.2929 -1.06066 0l-0.36828 -0.36828c-0.2929 -0.2929 -0.2929 -0.76777 0 -1.06066Zm2.5555 2.95748C5.09942 4.37285 5.89574 4.03528 7 4.03528c1.10426 0 1.90057 0.33757 2.39437 0.97245 0.46908 0.6031 0.57035 1.35879 0.57035 1.99227 0 0.63347 -0.10127 1.38917 -0.57035 1.99227 -0.4938 0.63488 -1.29011 0.97245 -2.39437 0.97245 -1.10426 0 -1.90058 -0.33757 -2.39437 -0.97245 -0.46908 -0.6031 -0.57035 -1.3588 -0.57035 -1.99227 0 -0.63348 0.10127 -1.38917 0.57035 -1.99227Zm0.98669 0.76742c-0.21334 0.2743 -0.30704 0.68846 -0.30704 1.22485 0 0.53638 0.0937 0.95055 0.30704 1.22484 0.18863 0.24252 0.56217 0.48988 1.40768 0.48988 0.84551 0 1.21905 -0.24736 1.40768 -0.48988 0.21333 -0.27429 0.30704 -0.68846 0.30704 -1.22484 0 -0.53639 -0.09371 -0.95055 -0.30704 -1.22485C8.21905 5.53264 7.84551 5.28528 7 5.28528c-0.84551 0 -1.21905 0.24736 -1.40768 0.48987ZM11.5814 10.521c-0.2929 -0.2929 -0.7678 -0.2929 -1.0607 0 -0.2929 0.2929 -0.2929 0.7678 0 1.0607l0.3683 0.3683c0.2929 0.2929 0.7678 0.2929 1.0607 0 0.2929 -0.2929 0.2929 -0.7678 0 -1.0607l-0.3683 -0.3683ZM7.75 12.7292c0 -0.4142 -0.33579 -0.75 -0.75 -0.75s-0.75 0.3358 -0.75 0.75v0.5208c0 0.4142 0.33579 0.75 0.75 0.75s0.75 -0.3358 0.75 -0.75v-0.5208ZM14 7c0 0.41421 -0.3358 0.75 -0.75 0.75h-0.5208c-0.4142 0 -0.75 -0.33579 -0.75 -0.75s0.3358 -0.75 0.75 -0.75h0.5208c0.4142 0 0.75 0.33579 0.75 0.75Zm-12.72917 0.75c0.41422 0 0.75 -0.33579 0.75 -0.75s-0.33578 -0.75 -0.75 -0.75H0.750001C0.335787 6.25 4.4e-8 6.58579 0 7c-4.4e-8 0.41421 0.335787 0.75 0.75 0.75h0.52083ZM11.9498 2.05025c0.2928 0.29289 0.2928 0.76776 0 1.06066l-0.3683 0.36828c-0.2929 0.2929 -0.7678 0.2929 -1.0607 0 -0.2929 -0.29289 -0.2929 -0.76776 0 -1.06066l0.3683 -0.36828c0.2929 -0.2929 0.7678 -0.2929 1.0607 0ZM3.47915 11.5817c0.29289 -0.2929 0.29289 -0.7678 0 -1.0607 -0.29289 -0.2929 -0.76777 -0.2929 -1.06066 0l-0.36829 0.3683c-0.29289 0.2929 -0.29289 0.7678 0 1.0607 0.2929 0.2929 0.76777 0.2929 1.06067 0l0.36828 -0.3683Z" clip-rule="evenodd" stroke-width="1"></path>
  </g>
</svg>