<svg xmlns="http://www.w3.org/2000/svg" fill="none" viewBox="0 0 14 14" id="Countdown-Timer--Streamline-Flex-Remix">
  <desc>
    Countdown Timer Streamline Icon: https://streamlinehq.com
  </desc>
  <g id="countdown-timer--timer-countdown-clock">
    <path id="Union" fill="#000000" fill-rule="evenodd" d="M7.78762 0.531155c0.05187 -0.341257 0.37057 -0.5758466 0.71183 -0.52396956C9.24719 0.120855 9.93451 0.324503 10.5528 0.619792c0.3115 0.148751 0.4434 0.521848 0.2947 0.833328 -0.1488 0.31148 -0.5218 0.4434 -0.8333 0.29465 -0.49448 -0.23613 -1.06151 -0.40732 -1.70261 -0.50478 -0.34126 -0.05188 -0.57585 -0.370577 -0.52397 -0.711835ZM12.8248 2.56225c-0.1935 -0.28588 -0.582 -0.36082 -0.8679 -0.16738 -0.2859 0.19344 -0.3608 0.58201 -0.1674 0.86789 0.2583 0.38182 0.4688 0.81874 0.6263 1.31229 0.1049 0.32885 0.4565 0.51038 0.7854 0.40546 0.3288 -0.10491 0.5103 -0.45655 0.4054 -0.7854 -0.1908 -0.59796 -0.4513 -1.14437 -0.7818 -1.63286ZM0.625 6.32437c0.345178 0 0.625 0.27982 0.625 0.625 0 1.94253 0.54026 3.37143 1.47621 4.31483 0.93523 0.9427 2.35024 1.4859 4.27387 1.4859 0.34517 0 0.625 0.2798 0.625 0.625s-0.27983 0.625 -0.625 0.625c-2.15643 0 -3.92895 -0.6134 -5.16125 -1.8555C0.607256 10.9032 0 9.11931 0 6.94937c0 -0.34518 0.279822 -0.625 0.625 -0.625Zm12.75 0c0.3452 0 0.625 0.27982 0.625 0.625 0 1.2318 -0.195 2.33814 -0.5904 3.29403 0.3076 0.3818 0.4386 0.8696 0.4386 1.3887 0 0.5855 -0.1666 1.1311 -0.5652 1.5297 -0.3987 0.3986 -0.9443 0.5652 -1.5297 0.5652s-1.131 -0.1666 -1.5296 -0.5652c-0.39867 -0.3986 -0.56525 -0.9442 -0.56525 -1.5297 0 -0.5854 0.16658 -1.131 0.56525 -1.5296 0.3986 -0.39866 0.9442 -0.56524 1.5296 -0.56524 0.1952 0 0.386 0.01852 0.5683 0.05798 0.278 -0.74119 0.4284 -1.62275 0.4284 -2.64587 0 -0.34518 0.2798 -0.625 0.625 -0.625ZM5.68847 1.24299c0.34126 -0.05188 0.57585 -0.370577 0.52397 -0.711835 -0.05187 -0.341257 -0.37057 -0.5758466 -0.71183 -0.52396956C4.75287 0.120855 4.06555 0.324503 3.44722 0.619792c-0.31149 0.148751 -0.44341 0.521848 -0.29465 0.833328 0.14875 0.31148 0.52184 0.4434 0.83332 0.29465 0.49445 -0.23613 1.06148 -0.40732 1.70258 -0.50478ZM2.04308 2.39511c0.28589 0.19345 0.36082 0.58201 0.16738 0.8679 -0.25835 0.38181 -0.46879 0.81874 -0.62626 1.31229 -0.10492 0.32884 -0.45655 0.51037 -0.7854 0.40546 -0.328847 -0.10492 -0.510378 -0.45656 -0.40546 -0.7854 0.190778 -0.59796 0.451317 -1.14438 0.78185 -1.63287 0.19344 -0.28588 0.58201 -0.36082 0.86789 -0.16738Zm5.86366 1.72998c0 -0.48325 -0.39175 -0.875 -0.875 -0.875s-0.875 0.39175 -0.875 0.875v2.84193c0 0.23086 0.09124 0.45237 0.25384 0.61626l1.68146 1.69483c0.34035 0.34306 0.89437 0.34525 1.23743 0.0049 0.34306 -0.34036 0.34525 -0.89437 0.00489 -1.23743L7.90674 6.60661V4.12509Z" clip-rule="evenodd" stroke-width="1"></path>
  </g>
</svg>