<svg xmlns="http://www.w3.org/2000/svg" fill="none" viewBox="0 0 14 14" id="Cube--Streamline-Flex-Remix">
  <desc>
    Cube Streamline Icon: https://streamlinehq.com
  </desc>
  <g id="cube">
    <path id="Union" fill="#000000" fill-rule="evenodd" d="m7.625 6.9521 4.7685 -2.29084c0.1485 1.77328 0.145 3.25757 -0.0313 5.06205 -0.0104 0.10616 -0.0687 0.20272 -0.1592 0.26177 -1.5707 1.02432 -2.92255 1.72702 -4.578 2.31952V6.9521Zm-1.25 0.0001L1.60638 4.65935c-0.14854 1.774 -0.14475 3.25877 0.03173 5.06395 0.01038 0.10616 0.06867 0.20273 0.15925 0.26181C3.36824 11.0097 4.71942 11.7124 6.375 12.305V6.9522ZM7.50381 0.331525c-0.32722 -0.1087 -0.68158 -0.108701 -1.0088 0.000002C4.48274 0.99999 2.9232 1.78825 1.11759 2.96559c-0.410955 0.26796 -0.676379 0.70875 -0.721948 1.19605C0.206784 6.18124 0.196743 7.82678 0.39404 9.84492c0.047384 0.48468 0.312786 0.92128 0.72045 1.18718 1.80696 1.1785 3.36705 1.9675 5.38058 2.6364 0.32723 0.1087 0.68158 0.1087 1.0088 0 2.01356 -0.6689 3.57473 -1.4578 5.38193 -2.6364 0.4077 -0.2659 0.6731 -0.7025 0.7204 -1.1872 0.1973 -2.01822 0.1868 -3.66365 -0.0021 -5.68313 -0.0456 -0.48728 -0.311 -0.92807 -0.722 -1.19603C11.0763 1.78836 9.51611 0.999989 7.50381 0.331525Z" clip-rule="evenodd" stroke-width="1"></path>
  </g>
</svg>