<svg xmlns="http://www.w3.org/2000/svg" fill="none" viewBox="0 0 14 14" id="Give-Star--Streamline-Flex-Remix">
  <desc>
    Give Star Streamline Icon: https://streamlinehq.com
  </desc>
  <g id="give-star--reward-social-rating-media-hand-star">
    <path id="Union" fill="#000000" fill-rule="evenodd" d="M9.35122 0.61257c0.48526 -0.816696 1.64638 -0.817047 2.13128 0.000668 0.191 0.32207 0.3408 0.661382 0.457 1.024432 0.3608 0.00847 0.7122 0.04758 1.0603 0.1215 0.9272 0.19689 1.3336 1.30387 0.6855 2.03774 -0.2425 0.27455 -0.514 0.51599 -0.8194 0.73216 0.0977 0.3316 0.164 0.66316 0.2007 1.00012 0.1043 0.95739 -0.8415 1.70183 -1.7536 1.29551 -0.3152 -0.14044 -0.6122 -0.31287 -0.8975 -0.52018 -0.2848 0.20711 -0.58122 0.37944 -0.89594 0.51984 -0.91218 0.40692 -1.85804 -0.33792 -1.75374 -1.29517 0.03672 -0.33696 0.10302 -0.66852 0.20066 -1.00012 -0.30537 -0.21617 -0.57688 -0.45761 -0.81935 -0.73216 -0.64813 -0.73387 -0.24169 -1.84084 0.68551 -2.03774 0.3481 -0.07393 0.69954 -0.11303 1.06032 -0.1215 0.11649 -0.36341 0.26684 -0.702926 0.45826 -1.0251ZM3.73995 7.44788c-0.72189 -0.18175 -1.46755 -0.25086 -2.21056 -0.20491l-0.699505 0.04327c-0.344519 0.0213 -0.641082 -0.24071 -0.662391 -0.58523 -0.021308 -0.34452 0.240706 -0.64108 0.585225 -0.66239l0.699501 -0.04326c0.87153 -0.05391 1.74615 0.02716 2.59291 0.24035l1.16145 0.29241c0.93181 0.2346 1.55036 1.11752 1.45199 2.07347 -0.03002 0.2917 -0.12304 0.56068 -0.26378 0.79547l0.85889 0.15396 3.87502 -0.91936c0.9767 -0.23172 1.9606 0.35652 2.2181 1.32687 0.2393 0.90137 -0.2292 1.83977 -1.0932 2.19067l-3.20082 1.3c-1.69871 0.69 -3.59155 0.7332 -5.31998 0.1215L0.414211 12.3962c-0.3254004 -0.1152 -0.4958336 -0.4723 -0.3806726 -0.7977 0.1151606 -0.3254 0.4723066 -0.4959 0.7977076 -0.3807l3.318584 1.1745c1.44012 0.5096 3.01723 0.4736 4.43257 -0.1012l3.2008 -1.3c0.2811 -0.1142 0.4331 -0.4192 0.3555 -0.7119 -0.0837 -0.31519 -0.4035 -0.50672 -0.7214 -0.4313l-4.00161 0.9494c-0.08346 0.0198 -0.17011 0.0222 -0.25455 0.0071l-3.86295 -0.6925c-0.33968 -0.0609 -0.56612 -0.38565 -0.50534 -0.72536 0.06079 -0.3397 0.3854 -0.56585 0.72512 -0.50518l1.09572 0.19571c0.39216 0.07004 0.76074 -0.20792 0.80145 -0.60344 0.03476 -0.33786 -0.18384 -0.65028 -0.51374 -0.73334l-1.16145 -0.29241Z" clip-rule="evenodd" stroke-width="1"></path>
  </g>
</svg>