<svg xmlns="http://www.w3.org/2000/svg" fill="none" viewBox="0 0 14 14" id="Help-Chat-1--Streamline-Flex-Remix">
  <desc>
    Help Chat 1 Streamline Icon: https://streamlinehq.com
  </desc>
  <g id="help-chat-1--bubble-help-mark-message-query-question-speech-square">
    <path id="Union" fill="#000000" fill-rule="evenodd" d="M7 1.5c-1.45383 0 -2.87511 0.07706 -4.23476 0.21987 -0.54524 0.05727 -0.97107 0.46282 -1.04595 0.98145C1.57511 3.69978 1.5 4.74447 1.5 5.80739c0 1.02419 0.07487 2.02007 0.2099 2.99006 0.07735 0.55562 0.55557 0.99958 1.17177 1.05692l0.21226 0.0198c0.22085 0.02062 0.44201 0.04126 0.6643 0.06137 0.32204 0.02913 0.56869 0.29906 0.56869 0.62246v1.5573c0.78874 -0.4453 1.37151 -0.9515 2.09677 -1.7858 0.11937 -0.1373 0.29265 -0.2158 0.47459 -0.215L7 10.1148c1.43256 0 2.82253 -0.0866 4.1751 -0.22402 0.5689 -0.05778 1.0191 -0.48768 1.0969 -1.03873 0.14 -0.99145 0.228 -2.00583 0.228 -3.04466 0 -1.05078 -0.0808 -2.0838 -0.2226 -3.07776 -0.076 -0.5328 -0.5132 -0.94946 -1.0705 -1.00708C9.8435 1.58158 8.44749 1.5 7 1.5ZM2.63467 0.476706C4.03749 0.329364 5.50235 0.25 7 0.25c1.49483 0 2.93397 0.084265 4.3355 0.229181 1.1058 0.114345 2.0193 0.951519 2.1794 2.073919 0.1495 1.0477 0.2351 2.13985 0.2351 3.25429 0 1.10924 -0.0939 2.18323 -0.2402 3.2194 -0.1604 1.13571 -1.0825 1.99321 -2.2084 2.10761 -1.3303 0.1351 -2.70432 0.2232 -4.12428 0.23 -0.99979 1.11 -1.84353 1.7129 -3.21912 2.3307 -0.19339 0.0869 -0.41763 0.0698 -0.59562 -0.0454 -0.17799 -0.1151 -0.28546 -0.3127 -0.28546 -0.5247v-1.997l-0.09919 -0.0092 -0.21189 -0.0198C1.63071 10.9934 0.637012 10.1563 0.471842 8.9698 0.329365 7.94634 0.25 6.89279 0.25 5.80739c0 -1.12119 0.079185 -2.22561 0.232117 -3.28472C0.642213 1.41396 1.54469 0.59119 2.63467 0.476706ZM7.11449 3.89394c-0.34807 -0.06924 -0.69701 0.21713 -0.69701 0.57201 0 0.41421 -0.33579 0.75 -0.75 0.75s-0.75 -0.33579 -0.75 -0.75c0 -1.30082 1.21384 -2.29696 2.48964 -2.04319 0.81477 0.16207 1.47473 0.82203 1.6368 1.63679 0.08151 0.40981 0.03469 0.80709 -0.14744 1.16541 -0.17547 0.34521 -0.44957 0.60185 -0.73839 0.79483 -0.11703 0.0782 -0.20819 0.14065 -0.28264 0.19633 -0.06355 0.04754 -0.10366 0.0819 -0.12884 0.10629 -0.03937 0.37718 -0.3583 0.67122 -0.74591 0.67122 -0.41421 0 -0.75 -0.33579 -0.75 -0.75 0 -0.4098 0.18233 -0.7196 0.40232 -0.94851 0.19216 -0.19994 0.44792 -0.373 0.67171 -0.52253 0.14969 -0.10001 0.21048 -0.17991 0.23457 -0.2273 0.01742 -0.03428 0.03481 -0.08567 0.01344 -0.1931 -0.04371 -0.21973 -0.23852 -0.41455 -0.45825 -0.45825ZM7.75 8.28003c0 -0.41421 -0.33579 -0.75 -0.75 -0.75s-0.75 0.33579 -0.75 0.75v0.245c0 0.41421 0.33579 0.75 0.75 0.75s0.75 -0.33579 0.75 -0.75v-0.245Z" clip-rule="evenodd" stroke-width="1"></path>
  </g>
</svg>