<svg xmlns="http://www.w3.org/2000/svg" fill="none" viewBox="0 0 14 14" id="Hierarchy-1--Streamline-Flex-Remix">
  <desc>
    Hierarchy 1 Streamline Icon: https://streamlinehq.com
  </desc>
  <g id="hierarchy-1--node-organization-links-structure-link-nodes-network-hierarchy">
    <path id="Union" fill="#000000" fill-rule="evenodd" d="M9.52893 1.63362c-0.22158 0.22195 -0.38342 0.58919 -0.38342 1.17233 0 0.58314 0.16184 0.95038 0.38342 1.17233 0.22143 0.2218 0.58747 0.38362 1.16897 0.38362 0.5814 0 0.9475 -0.16182 1.1689 -0.38362 0.2216 -0.22195 0.3834 -0.58919 0.3834 -1.17233 0 -0.58314 -0.1618 -0.95038 -0.3834 -1.17233 -0.2214 -0.22179 -0.5875 -0.38362 -1.1689 -0.38362 -0.5815 0 -0.94754 0.16183 -1.16897 0.38362ZM8.64431 0.750471C9.16319 0.230743 9.88578 0 10.6979 0c0.812 0 1.5346 0.230743 2.0535 0.750471 0.5187 0.519579 0.7488 1.242819 0.7488 2.055479 0 0.81267 -0.2301 1.53591 -0.7488 2.05548 -0.5189 0.51973 -1.2415 0.75047 -2.0535 0.75047 -0.81212 0 -1.53471 -0.23074 -2.05359 -0.75047 -0.21345 -0.21381 -0.37803 -0.4621 -0.49782 -0.73693l-0.0096 0.00282c-0.76277 0.22392 -1.15836 0.34005 -1.5279 0.49078 -0.30437 0.12414 -0.59571 0.27402 -1.06338 0.54168 0.38552 0.49608 0.5591 1.13447 0.5591 1.84032 0 0.71004 -0.17564 1.35181 -0.56598 1.84912 0.45861 0.26118 0.75388 0.41188 1.06213 0.53759 0.37846 0.15433 0.78296 0.27415 1.54204 0.497 0.12008 -0.27812 0.28581 -0.52926 0.50141 -0.74522 0.51888 -0.51972 1.24147 -0.75047 2.05359 -0.75047 0.812 0 1.5346 0.23075 2.0535 0.75047 0.5187 0.51958 0.7488 1.24281 0.7488 2.05551 0 0.8126 -0.2301 1.5359 -0.7488 2.0555 -0.5189 0.5197 -1.2415 0.7504 -2.0535 0.7504 -0.81212 0 -1.53471 -0.2307 -2.05359 -0.7504 -0.51872 -0.5196 -0.7488 -1.2429 -0.7488 -2.0555 0 -0.0268 0.00025 -0.0534 0.00075 -0.0799l-0.07437 -0.0218c-0.76265 -0.2237 -1.24295 -0.3646 -1.69304 -0.5481 -0.49987 -0.2039 -0.95496 -0.4566 -1.72328 -0.90698 -0.33815 0.11469 -0.7102 0.16874 -1.10321 0.16874 -0.81208 0 -1.53468 -0.23075 -2.05355 -0.75047C0.730086 8.53601 0.5 7.81277 0.5 7.0001c0 -0.81266 0.230086 -1.5359 0.74881 -2.05548 0.51887 -0.51972 1.24147 -0.75047 2.05355 -0.75047 0.39972 0 0.77777 0.05591 1.12052 0.17467 0.01358 -0.00948 0.02763 -0.0185 0.04216 -0.02702 0.74723 -0.43828 1.18754 -0.68359 1.67187 -0.88113 0.43163 -0.17605 0.89212 -0.31111 1.62056 -0.52475l0.13897 -0.04079c-0.00062 -0.0296 -0.00093 -0.05933 -0.00093 -0.08918 0 -0.81266 0.23008 -1.5359 0.7488 -2.055479Zm0.5012 10.443629c0 -0.5832 0.16184 -0.9504 0.38342 -1.1724 0.22143 -0.22175 0.58747 -0.38358 1.16897 -0.38358 0.5814 0 0.9475 0.16183 1.1689 0.38358 0.2216 0.222 0.3834 0.5892 0.3834 1.1724 0 0.5831 -0.1618 0.9504 -0.3834 1.1723 -0.2214 0.2218 -0.5875 0.3836 -1.1689 0.3836 -0.5815 0 -0.94754 -0.1618 -1.16897 -0.3836 -0.22158 -0.2219 -0.38342 -0.5892 -0.38342 -1.1723Z" clip-rule="evenodd" stroke-width="1"></path>
  </g>
</svg>