<svg xmlns="http://www.w3.org/2000/svg" fill="none" viewBox="0 0 14 14" id="Horizontal-Toggle-Button--Streamline-Flex-Remix">
  <desc>
    Horizontal Toggle Button Streamline Icon: https://streamlinehq.com
  </desc>
  <g id="horizontal-toggle-button--toggle-adjustment-adjust-button-off-on-horizontal-settings-controls">
    <path id="Union" fill="#000000" fill-rule="evenodd" d="M0 3.15046c0 0.86616 0.24093 1.63121 0.772803 2.1918 0.532487 0.56122 1.281577 0.83847 2.140247 0.87707 2.42051 0.10881 5.7533 0.10881 8.17385 0 0.8586 -0.0386 1.6077 -0.31585 2.1402 -0.87707 0.5319 -0.56059 0.7728 -1.32564 0.7728 -2.1918 0 -0.86616 -0.2409 -1.63121 -0.7728 -2.191788 -0.5325 -0.561226 -1.2816 -0.838464 -2.1402 -0.8770644 -2.42055 -0.1088103 -5.75334 -0.1088101 -8.17385 4e-7C2.05438 0.120209 1.30529 0.397447 0.772804 0.958673 0.240929 1.51925 0 2.2843 0 3.15046Zm2.96918 1.82013c-0.62627 -0.02816 -1.03524 -0.22063 -1.28958 -0.48869 -0.25495 -0.26871 -0.4296 -0.69253 -0.4296 -1.33144 0 -0.6389 0.17465 -1.06272 0.4296 -1.33143 0.25433 -0.26806 0.6633 -0.46053 1.28958 -0.48868 2.38311 -0.10713 5.67844 -0.10713 8.06152 0 0.6263 0.02815 1.0353 0.22062 1.2896 0.48868 0.255 0.26871 0.4296 0.69253 0.4296 1.33143 0 0.63891 -0.1746 1.06273 -0.4296 1.33144 -0.2543 0.26806 -0.6633 0.46053 -1.2896 0.48869 -2.38308 0.10713 -5.67841 0.10713 -8.06152 0Zm7.72492 -0.57011c-0.80001 0 -1.25001 -0.45 -1.25001 -1.25s0.45 -1.25 1.25001 -1.25c0.8 0 1.25 0.45 1.25 1.25s-0.45 1.25 -1.25 1.25Zm2.5331 4.25726c0.5319 0.56059 0.7728 1.32564 0.7728 2.19186 0 0.8661 -0.2409 1.6312 -0.7728 2.1918 -0.5325 0.5612 -1.2816 0.8384 -2.1402 0.877 -2.42056 0.1088 -5.75335 0.1088 -8.17387 0 -0.85867 -0.0386 -1.60776 -0.3158 -2.140243 -0.877 -0.531874 -0.5606 -0.7728038821 -1.3257 -0.7728039199 -2.1918C0.0000830422 9.98338 0.241013 9.21833 0.772885 8.65774c0.532485 -0.56122 1.281575 -0.83846 2.140245 -0.87707 2.42052 -0.10881 5.75331 -0.10881 8.17387 0 0.8586 0.0386 1.6077 0.31585 2.1402 0.87707Zm-0.9068 0.86036c-0.2543 -0.26806 -0.6633 -0.46053 -1.2896 -0.48869 -2.38309 -0.10713 -5.67842 -0.10713 -8.06154 0 -0.62627 0.02816 -1.03524 0.22063 -1.28958 0.48869 -0.25494 0.26871 -0.4296 0.6926 -0.4296 1.3315 0 0.6389 0.17466 1.0627 0.4296 1.3314 0.25434 0.2681 0.66331 0.4605 1.28958 0.4887 2.38312 0.1071 5.67845 0.1071 8.06154 0 0.6263 -0.0282 1.0353 -0.2206 1.2896 -0.4887 0.2549 -0.2687 0.4296 -0.6925 0.4296 -1.3314 0 -0.6389 -0.1747 -1.06279 -0.4296 -1.3315Zm-9.01449 2.5814c-0.8 0 -1.25 -0.45 -1.25 -1.25s0.45 -1.24998 1.25 -1.24998 1.25 0.44998 1.25 1.24998 -0.45 1.25 -1.25 1.25Z" clip-rule="evenodd" stroke-width="1"></path>
  </g>
</svg>