<svg xmlns="http://www.w3.org/2000/svg" fill="none" viewBox="0 0 14 14" id="Hourglass--Streamline-Flex-Remix">
  <desc>
    Hourglass Streamline Icon: https://streamlinehq.com
  </desc>
  <g id="hourglass--hourglass-loading-measure-clock-time">
    <path id="Union" fill="#000000" fill-rule="evenodd" d="M1 0.875C1 0.391751 1.39175 0 1.875 0h10.25c0.4832 0 0.875 0.391751 0.875 0.875 0 0.48325 -0.3918 0.875 -0.875 0.875h-0.8096l0.0291 0.09205c0.1503 0.48114 0.287 0.9948 0.3367 1.51549 0.0503 0.52603 0.0137 1.07451 -0.1945 1.61803 -0.2093 0.54618 -0.5769 1.04839 -1.1302 1.50224 -0.2423 0.19881 -0.50618 0.37326 -0.78637 0.52219 0.28019 0.14893 0.54407 0.32338 0.78637 0.52219 0.5533 0.45385 0.9209 0.95606 1.1302 1.50224 0.2082 0.54352 0.2448 1.09197 0.1945 1.61807 -0.0497 0.5206 -0.1864 1.0343 -0.3367 1.5154 -0.0096 0.0307 -0.0193 0.0614 -0.0291 0.0921h0.8096c0.4832 0 0.875 0.3918 0.875 0.875s-0.3918 0.875 -0.875 0.875H1.875C1.39175 14 1 13.6082 1 13.125s0.39175 -0.875 0.875 -0.875h0.81175c-0.00977 -0.0307 -0.01946 -0.0614 -0.02905 -0.0921 -0.15035 -0.4811 -0.287 -0.9948 -0.33679 -1.5154 -0.0503 -0.5261 -0.01365 -1.07455 0.19457 -1.61807 0.20925 -0.54618 0.57686 -1.04839 1.13014 -1.50224 0.24236 -0.19881 0.50621 -0.37326 0.7864 -0.52219 -0.28019 -0.14893 -0.54404 -0.32338 -0.7864 -0.52219 -0.55328 -0.45385 -0.92089 -0.95606 -1.13014 -1.50224 -0.20822 -0.54352 -0.24487 -1.092 -0.19457 -1.61803 0.04979 -0.52069 0.18644 -1.03435 0.33679 -1.51549L2.68675 1.75H1.875C1.39175 1.75 1 1.35825 1 0.875ZM9.99997 12.25H4.00218c-0.05256 -0.1572 -0.10339 -0.3113 -0.15138 -0.4649 -0.14182 -0.4538 -0.24814 -0.8702 -0.28557 -1.2616 -0.03692 -0.3861 -0.00505 -0.73192 0.11753 -1.05189 0.12156 -0.3173 0.34702 -0.64779 0.75563 -0.98297 0.66236 -0.54333 1.58293 -0.86364 2.56269 -0.86364 0.97975 0 1.90032 0.32031 2.56268 0.86364 0.40861 0.33518 0.63404 0.66567 0.75564 0.98297 0.1226 0.31997 0.1544 0.66579 0.1175 1.05189 -0.0374 0.3914 -0.1437 0.8078 -0.2856 1.2616 -0.0479 0.1536 -0.0988 0.3077 -0.15133 0.4649Zm0 -10.5H4.00218c-0.05256 0.15717 -0.10339 0.31133 -0.15138 0.46489 -0.14182 0.45384 -0.24814 0.87019 -0.28557 1.26164 -0.03692 0.38611 -0.00505 0.73189 0.11753 1.05186 0.12156 0.3173 0.34702 0.64779 0.75563 0.98297 0.66236 0.54333 1.58293 0.86364 2.56269 0.86364 0.97975 0 1.90032 -0.32031 2.56268 -0.86364 0.40861 -0.33518 0.63404 -0.66567 0.75564 -0.98297 0.1226 -0.31997 0.1544 -0.66575 0.1175 -1.05186 -0.0374 -0.39145 -0.1437 -0.8078 -0.2856 -1.26164 -0.0479 -0.15356 -0.0988 -0.30772 -0.15133 -0.46489Z" clip-rule="evenodd" stroke-width="1"></path>
  </g>
</svg>