<svg xmlns="http://www.w3.org/2000/svg" fill="none" viewBox="0 0 14 14" id="Key-Frame--Streamline-Flex-Remix">
  <desc>
    Key Frame Streamline Icon: https://streamlinehq.com
  </desc>
  <g id="key-frame--key-frame-entry-lock-login-pass-unlock-access">
    <path id="Union" fill="#000000" fill-rule="evenodd" d="M4.07917 1.49722c0.34362 -0.03278 0.59561 -0.3379 0.56283 -0.681523 -0.03278 -0.343618 -0.3379 -0.595606 -0.68152 -0.56283 -0.44702 0.042639 -0.88715 0.091361 -1.31773 0.143176C1.45859 0.538544 0.528407 1.47559 0.388999 2.6578c-0.048756 0.41347 -0.095134 0.83669 -0.136135 1.26677 -0.032759 0.34362 0.219244 0.64873 0.562864 0.68149 0.343622 0.03276 0.648732 -0.21924 0.681492 -0.56286 0.03992 -0.41868 0.08523 -0.83239 0.13318 -1.23901 0.07208 -0.61123 0.55292 -1.09384 1.1617 -1.1671 0.42265 -0.05086 0.85233 -0.0984 1.28707 -0.13987Zm5.28734 3.92776c-0.09763 -0.09763 -0.25592 -0.09763 -0.35356 0l-0.25597 0.25596 0.60138 0.60138c0.2929 0.2929 0.2929 0.76777 0 1.06066 -0.29289 0.2929 -0.76776 0.2929 -1.06066 0l-0.60138 -0.60138 -0.29728 0.29727c0.15427 0.34246 0.22457 0.73111 0.22457 1.14186 0 0.68176 -0.19368 1.30265 -0.64352 1.75249 -0.44984 0.44988 -1.07072 0.64348 -1.75249 0.64348 -0.68177 0 -1.30265 -0.1936 -1.75249 -0.64348 -0.44984 -0.44984 -0.64352 -1.07073 -0.64352 -1.75249 0 -0.68177 0.19368 -1.30266 0.64352 -1.7525s1.07072 -0.64352 1.75249 -0.64352c0.39356 0 0.76684 0.06454 1.09863 0.20565l0.8002 -0.80018c0.0121 -0.01403 0.0248 -0.02771 0.03811 -0.04102 0.01331 -0.01331 0.02699 -0.02602 0.04102 -0.03812l0.74674 -0.74673c0.68342 -0.68341 1.79145 -0.68341 2.4749 0.00001l0.6019 0.6019c0.2929 0.2929 0.2929 0.76777 0 1.06066 -0.2929 0.2929 -0.7678 0.2929 -1.06068 0l-0.60191 -0.6019ZM4.08159 8.18073c0 -0.45169 0.1251 -0.71631 0.2774 -0.86861 0.15231 -0.15231 0.41693 -0.27741 0.86861 -0.27741 0.45168 0 0.7163 0.1251 0.86861 0.27741 0.1523 0.1523 0.2774 0.41692 0.2774 0.86861 0 0.45168 -0.1251 0.7163 -0.2774 0.8686 -0.15231 0.15231 -0.41693 0.27741 -0.86861 0.27741 -0.45168 0 -0.7163 -0.1251 -0.86861 -0.27741 -0.1523 -0.1523 -0.2774 -0.41692 -0.2774 -0.8686Zm9.10301 1.21325c0.3436 0.03276 0.5956 0.33787 0.5629 0.68152 -0.041 0.43 -0.0874 0.8533 -0.1362 1.2667 -0.1394 1.1822 -1.0696 2.1193 -2.2537 2.2618 -0.4306 0.0518 -0.8707 0.1005 -1.3177 0.1432 -0.34366 0.0327 -0.64879 -0.2192 -0.68156 -0.5629 -0.03278 -0.3436 0.21921 -0.6487 0.56283 -0.6815 0.43473 -0.0414 0.86443 -0.089 1.28703 -0.1399 0.6088 -0.0732 1.0897 -0.5558 1.1617 -1.1671 0.048 -0.4066 0.0933 -0.8203 0.1332 -1.23896 0.0328 -0.34362 0.3379 -0.59562 0.6815 -0.56286ZM9.35834 0.815697c0.03277 -0.343618 0.3379 -0.595606 0.68156 -0.56283 0.447 0.042639 0.8871 0.091361 1.3177 0.143176 1.1841 0.142501 2.1143 1.079547 2.2537 2.261757 0.0488 0.41347 0.0952 0.83669 0.1362 1.26677 0.0327 0.34362 -0.2193 0.64873 -0.5629 0.68149 -0.3436 0.03276 -0.6487 -0.21924 -0.6815 -0.56286 -0.0399 -0.41868 -0.0852 -0.83239 -0.1332 -1.23901 -0.072 -0.61123 -0.5529 -1.09384 -1.1617 -1.1671 -0.4226 -0.05086 -0.8523 -0.0984 -1.28703 -0.13987 -0.34362 -0.03278 -0.59561 -0.3379 -0.56283 -0.681523ZM1.49722 9.95684c-0.03276 -0.34362 -0.33787 -0.59562 -0.681492 -0.56286 -0.34362 0.03276 -0.595623 0.33787 -0.562864 0.68152 0.041001 0.43 0.087379 0.8533 0.136135 1.2667 0.139408 1.1822 1.069591 2.1193 2.253751 2.2618 0.43058 0.0518 0.87071 0.1005 1.31773 0.1432 0.34362 0.0327 0.64874 -0.2192 0.68152 -0.5629 0.03278 -0.3436 -0.21921 -0.6487 -0.56283 -0.6815 -0.43474 -0.0414 -0.86442 -0.089 -1.28707 -0.1399 -0.60878 -0.0732 -1.08962 -0.5558 -1.1617 -1.1671 -0.04795 -0.4066 -0.09326 -0.8203 -0.13318 -1.23896Z" clip-rule="evenodd" stroke-width="1"></path>
  </g>
</svg>