<svg xmlns="http://www.w3.org/2000/svg" fill="none" viewBox="0 0 14 14" id="Line-Arrow-Rotate-Right-Circle--Streamline-Flex-Remix">
  <desc>
    Line Arrow Rotate Right Circle Streamline Icon: https://streamlinehq.com
  </desc>
  <g id="line-arrow-rotate-right-circle">
    <path id="Union" fill="#000000" fill-rule="evenodd" d="M1.25 7c0 -1.92496 0.53946 -3.34058 1.47444 -4.27556C3.65942 1.78946 5.07504 1.25 7 1.25c1.92496 0 3.3406 0.53946 4.2756 1.47444C12.2105 3.65942 12.75 5.07504 12.75 7c0 1.92496 -0.5395 3.3406 -1.4744 4.2756C10.3406 12.2105 8.92496 12.75 7 12.75s-3.34058 -0.5395 -4.27556 -1.4744C1.78946 10.3406 1.25 8.92496 1.25 7ZM7 0C4.84496 0 3.07308 0.60804 1.84056 1.84056S0 4.84496 0 7s0.60804 3.9269 1.84056 5.1594C3.07308 13.392 4.84496 14 7 14s3.9269 -0.608 5.1594 -1.8406C13.392 10.9269 14 9.15504 14 7c0 -2.15504 -0.608 -3.92692 -1.8406 -5.15944C10.9269 0.60804 9.15504 0 7 0Zm-0.25 4.625C5.43832 4.625 4.375 5.68832 4.375 7S5.43832 9.375 6.75 9.375c0.70334 0 1.33463 -0.30494 1.7704 -0.79182 0.2302 -0.2572 0.62532 -0.27909 0.88253 -0.04889 0.2572 0.2302 0.27909 0.62533 0.04889 0.88253C8.78895 10.1574 7.82366 10.625 6.75 10.625c-2.00203 0 -3.625 -1.62297 -3.625 -3.625S4.74797 3.375 6.75 3.375c1.27378 0 2.39355 0.65667 3.04003 1.64992 0.01594 -0.14763 0.01269 -0.30298 -0.00933 -0.46732 -0.04583 -0.34213 0.19436 -0.65663 0.5365 -0.70246 0.3421 -0.04583 0.6566 0.19436 0.7024 0.53648 0.1302 0.97138 -0.1607 1.83071 -0.8528 2.52056 -0.0903 0.09837 -0.21266 0.16867 -0.35444 0.19299 -0.03561 0.00611 -0.07104 0.00908 -0.10599 0.0091 -0.94387 0.10256 -1.7788 -0.19739 -2.45098 -0.88141 -0.24194 -0.24619 -0.23848 -0.64191 0.00771 -0.88385 0.2462 -0.24193 0.64191 -0.23848 0.88385 0.00772 0.20034 0.20386 0.4138 0.34731 0.64691 0.4326C8.37994 5.09227 7.6192 4.625 6.75 4.625Z" clip-rule="evenodd" stroke-width="1"></path>
  </g>
</svg>