<svg xmlns="http://www.w3.org/2000/svg" fill="none" viewBox="0 0 14 14" id="Maximize-2--Streamline-Flex-Remix">
  <desc>
    Maximize 2 Streamline Icon: https://streamlinehq.com
  </desc>
  <g id="maximize-2">
    <path id="Union" fill="#000000" fill-rule="evenodd" d="M5.44868 0.186418C6.3352 0.0876032 7.26792 0 8.22619 0c0.95826 0 1.89101 0.0876032 2.77751 0.186418C12.48 0.350973 13.6655 1.535 13.8238 3.01478c0.0944 0.88217 0.1764 1.80819 0.1764 2.75926 0 0.95106 -0.082 1.87709 -0.1764 2.75925 -0.1583 1.47981 -1.3438 2.66381 -2.8201 2.82841 -0.8865 0.0988 -1.81925 0.1864 -2.77751 0.1864 -0.20916 0 -0.41683 -0.0042 -0.62286 -0.0117 -0.34495 -0.0126 -0.61437 -0.3025 -0.60177 -0.6474 0.0126 -0.345 0.30245 -0.6144 0.6474 -0.6018 0.19224 0.007 0.38464 0.0109 0.57723 0.0109 0.88655 0 1.76326 -0.0811 2.63901 -0.1787 0.8963 -0.1 1.62 -0.82513 1.7157 -1.71908 0.0931 -0.87018 0.1693 -1.74321 0.1693 -2.62628s-0.0762 -1.7561 -0.1693 -2.62628c-0.0957 -0.89396 -0.8194 -1.61913 -1.7157 -1.71904C9.98945 1.33111 9.11274 1.25 8.22619 1.25s-1.76326 0.08111 -2.63903 0.17872c-0.89631 0.09991 -1.62002 0.82508 -1.71566 1.71904 -0.0931 0.87018 -0.16935 1.74321 -0.16935 2.62628 0 0.21227 0.00441 0.42425 0.01243 0.63598 0.01306 0.34493 -0.25597 0.63514 -0.60091 0.6482 -0.34493 0.01306 -0.63514 -0.25598 -0.6482 -0.60091 -0.00855 -0.22588 -0.01332 -0.4537 -0.01332 -0.68327 0 -0.95107 0.08206 -1.87709 0.17644 -2.75926C2.78691 1.535 3.97239 0.350973 5.44868 0.186418ZM10.9117 3.41757c-0.033 -0.09881 -0.0895 -0.18636 -0.1631 -0.2561 -0.0915 -0.0896 -0.2037 -0.14546 -0.3209 -0.16757 -0.92651 -0.2844 -2.10007 -0.27493 -3.01011 0.02842 -0.20549 0.0685 -0.36087 0.23851 -0.41064 0.44933 -0.04976 0.21081 0.01318 0.43237 0.16634 0.58554l0.90248 0.90248 -1.42591 1.42591c-0.24408 0.24408 -0.24408 0.63981 0 0.88389 0.24407 0.24407 0.6398 0.24407 0.88388 0l1.42592 -1.42592 0.91717 0.91718c0.15317 0.15316 0.37477 0.2161 0.58557 0.16634 0.2108 -0.04977 0.3808 -0.20515 0.4493 -0.41064 0.3131 -0.93936 0.3131 -2.15948 0 -3.09886ZM1.62967 8.09172C2.06179 8.04356 2.52346 8 3 8c0.47654 0 0.93821 0.04356 1.37033 0.09172 0.80797 0.09006 1.45616 0.73709 1.54289 1.54768C5.95924 10.0696 6 10.5275 6 11c0 0.4725 -0.04076 0.9304 -0.08678 1.3606 -0.08673 0.8106 -0.73492 1.4576 -1.54289 1.5477C3.93821 13.9564 3.47654 14 3 14c-0.47654 0 -0.93821 -0.0436 -1.37033 -0.0917 -0.807973 -0.0901 -1.456162 -0.7371 -1.5428859 -1.5477C0.0407578 11.9304 0 11.4725 0 11c0 -0.4725 0.0407577 -0.9304 0.0867839 -1.3606C0.173508 8.82881 0.821697 8.18178 1.62967 8.09172Z" clip-rule="evenodd" stroke-width="1"></path>
  </g>
</svg>