<svg xmlns="http://www.w3.org/2000/svg" fill="none" viewBox="0 0 14 14" id="Notepad-Text--Streamline-Flex-Remix">
  <desc>
    Notepad Text Streamline Icon: https://streamlinehq.com
  </desc>
  <g id="notepad-text--content-notes-book-notepad-notebook">
    <path id="Union" fill="#000000" fill-rule="evenodd" d="M5.05688 0.75c0 -0.414214 -0.33578 -0.75 -0.75 -0.75 -0.41421 0 -0.75 0.335786 -0.75 0.75v0.65164C1.91654 1.60572 0.637706 2.94217 0.453389 4.58562 0.343069 5.56929 0.25 6.59742 0.25 7.6521c0 1.05468 0.093069 2.08281 0.20339 3.0665 0.194139 1.731 1.60257 3.1215 3.36874 3.2068C4.8381 13.9745 5.87528 14 7 14s2.1619 -0.0255 3.1779 -0.0746c1.7661 -0.0853 3.1746 -1.4758 3.3687 -3.2068 0.1103 -0.98369 0.2034 -2.01182 0.2034 -3.0665 0 -1.05468 -0.0931 -2.08281 -0.2034 -3.06648 -0.1843 -1.64345 -1.4631 -2.9799 -3.1035 -3.18398V0.75c0 -0.414214 -0.3358 -0.75 -0.74998 -0.75 -0.41422 0 -0.75 0.335786 -0.75 0.75v0.58129c-0.38989 -0.01117 -0.78644 -0.01894 -1.19312 -0.02321V0.75C7.75 0.335786 7.41421 0 7 0s-0.75 0.335786 -0.75 0.75v0.55808c-0.40668 0.00427 -0.80323 0.01204 -1.19312 0.02321V0.75Zm-1.5 1.91709v0.21122c0 0.41421 0.33579 0.75 0.75 0.75 0.41422 0 0.75 -0.33579 0.75 -0.75v-0.2965c0.38956 -0.01138 0.78604 -0.0193 1.19312 -0.02366v0.32016c0 0.41421 0.33579 0.75 0.75 0.75s0.75 -0.33579 0.75 -0.75v-0.32016c0.40708 0.00436 0.80356 0.01228 1.19312 0.02366v0.2965c0 0.41421 0.33578 0.75 0.75 0.75 0.41418 0 0.74998 -0.33579 0.74998 -0.75v-0.21122c0.9767 0.19286 1.7452 1.02274 1.8613 2.05785 0.1086 0.96871 0.1956 1.94244 0.1956 2.92716 0 0.98471 -0.087 1.95845 -0.1956 2.9272 -0.1287 1.1477 -1.0596 2.0431 -2.1869 2.0976 -0.99516 0.0481 -2.01221 0.0731 -3.1175 0.0731s-2.12234 -0.025 -3.11753 -0.0731c-1.12727 -0.0545 -2.05815 -0.9499 -2.18687 -2.0976C1.58696 9.61055 1.5 8.63681 1.5 7.6521c0 -0.98472 0.08696 -1.95845 0.1956 -2.92716 0.11609 -1.03511 0.88464 -1.86499 1.86128 -2.05785Zm-0.25219 3.83523c0 -0.41421 0.33578 -0.75 0.75 -0.75h5.89062c0.41419 0 0.74999 0.33579 0.74999 0.75s-0.3358 0.75 -0.74999 0.75H4.05469c-0.41422 0 -0.75 -0.33579 -0.75 -0.75Zm0.75 2.21875c-0.41422 0 -0.75 0.33579 -0.75 0.75s0.33578 0.75003 0.75 0.75003h2.82404c0.41421 0 0.75 -0.33582 0.75 -0.75003 0 -0.41421 -0.33579 -0.75 -0.75 -0.75H4.05469Z" clip-rule="evenodd" stroke-width="1"></path>
  </g>
</svg>