<svg xmlns="http://www.w3.org/2000/svg" fill="none" viewBox="0 0 14 14" id="One-Finger-Tap--Streamline-Flex-Remix">
  <desc>
    One Finger Tap Streamline Icon: https://streamlinehq.com
  </desc>
  <g id="one-finger-tap">
    <path id="Union" fill="#000000" fill-rule="evenodd" d="M6.47496 0C5.06547 0 3.86087 0.413615 3.01212 1.29229c-0.84503 0.87482 -1.23771 2.10766 -1.23771 3.54754 0 0.20448 0.00787 0.40437 0.02374 0.59939 0.03362 0.41284 0.39554 0.72027 0.80839 0.68666 0.41285 -0.03361 0.72028 -0.39553 0.68667 -0.80838 -0.01241 -0.15237 -0.0188 -0.31159 -0.0188 -0.47767 0 -1.17761 0.31842 -1.98969 0.81658 -2.50541C4.58543 1.82255 5.3561 1.5 6.47496 1.5c1.11886 0 1.88954 0.32255 2.38397 0.83442 0.49816 0.51572 0.81658 1.3278 0.81658 2.50541 0 0.16608 -0.00639 0.3253 -0.0188 0.47767 -0.03361 0.41285 0.27382 0.77477 0.68669 0.80838 0.4128 0.03362 0.7748 -0.27382 0.8084 -0.68666 0.0158 -0.19502 0.0237 -0.39491 0.0237 -0.59939 0 -1.43988 -0.3927 -2.67272 -1.2377 -3.54754C9.08905 0.413615 7.88445 0 6.47496 0Zm-0.64181 5.0068c0 -0.42777 0.32955 -0.73727 0.69087 -0.73727s0.69087 0.3095 0.69087 0.73726v2.55129c0 0.31931 0.24069 0.58727 0.55817 0.62142 0.76037 0.08176 1.58717 0.25882 2.20912 0.644 0.58172 0.36023 0.99232 0.90138 0.99232 1.827 0 1.0358 -0.2508 1.6991 -0.6662 2.4087 -0.1745 0.2979 -0.0744 0.6807 0.2235 0.8551 0.2979 0.1745 0.6807 0.0744 0.8552 -0.2235 0.5044 -0.8616 0.8375 -1.7408 0.8375 -3.0403 0 -1.40976 -0.6804 -2.32999 -1.5842 -2.88971 -0.67697 -0.41927 -1.47046 -0.63367 -2.17541 -0.74908V5.0068c0 -1.07695 -0.84872 -1.98727 -1.94087 -1.98727 -1.09215 0 -1.94087 0.91032 -1.94087 1.98727v3.73035l-0.10705 0.06333c-1.47098 0.87019 -1.72788 2.92742 -0.54293 4.15422l0.82545 0.8545c0.23981 0.2483 0.63548 0.2551 0.88375 0.0153 0.24827 -0.2398 0.25512 -0.6355 0.01531 -0.8837l-0.82545 -0.8546c-0.63445 -0.6568 -0.48271 -1.7585 0.28032 -2.20988l0.41382 -0.24481c0.19014 -0.11248 0.30678 -0.31699 0.30678 -0.53792V5.0068Z" clip-rule="evenodd" stroke-width="1"></path>
  </g>
</svg>