<svg xmlns="http://www.w3.org/2000/svg" fill="none" viewBox="0 0 14 14" id="Panoramic-Screen--Streamline-Flex-Remix">
  <desc>
    Panoramic Screen Streamline Icon: https://streamlinehq.com
  </desc>
  <g id="panoramic-screen">
    <path id="Union" fill="#000000" fill-rule="evenodd" d="M3.19251 1.53899C1.71756 1.28358 0.272603 2.31235 0.136648 3.8772c-0.1821974 2.09709 -0.1821973 4.14854 0 6.2456 0.135955 1.5649 1.580912 2.5936 3.055862 2.3382 1.26317 -0.2187 2.78684 -0.4365 3.80749 -0.4365 1.02066 0 2.54432 0.2178 3.8075 0.4365 1.4749 0.2555 2.9199 -0.7733 3.0559 -2.3382 0.1821 -2.09706 0.1821 -4.14851 0 -6.24561 -0.136 -1.56484 -1.581 -2.59361 -3.0559 -2.3382 -1.26318 0.21873 -2.78684 0.43654 -3.8075 0.43654 -1.02065 0 -2.54432 -0.21781 -3.80749 -0.43654Zm-1.81055 2.4464c0.06983 -0.8038 0.812 -1.35071 1.59727 -1.21473 0.58844 0.1019 1.25493 0.20773 1.91432 0.29165v7.87539c-0.65939 0.0839 -1.32588 0.1898 -1.91432 0.2917 -0.78527 0.136 -1.52744 -0.411 -1.59727 -1.2148 -0.17595 -2.02506 -0.17595 -4.00411 0 -6.02921Zm7.72449 6.95231c0.65939 0.0839 1.32585 0.1898 1.91435 0.2917 0.7852 0.136 1.5274 -0.411 1.5972 -1.2148 0.176 -2.02506 0.176 -4.00411 0 -6.02921 -0.0698 -0.8038 -0.812 -1.35071 -1.5972 -1.21473 -0.5885 0.1019 -1.25496 0.20773 -1.91435 0.29165v7.87539Z" clip-rule="evenodd" stroke-width="1"></path>
  </g>
</svg>