<svg xmlns="http://www.w3.org/2000/svg" fill="none" viewBox="0 0 14 14" id="Sigma--Streamline-Flex-Remix">
  <desc>
    Sigma Streamline Icon: https://streamlinehq.com
  </desc>
  <g id="sigma--formula-text-format-sigma-formatting-sum">
    <path id="Union" fill="#000000" fill-rule="evenodd" d="M2.61315 1.34737c3.38694 -0.15534 5.82046 -0.12861 9.72395 0.10753 0.3445 0.02084 0.6407 -0.24157 0.6616 -0.586118 0.0208 -0.344548 -0.2416 -0.640757 -0.5862 -0.6616C8.47135 -0.0312407 5.99309 -0.0589581 2.55588 0.0986816 1.18974 0.161336 0.513858 1.7754 1.40922 2.79874c1.25626 1.43584 2.27714 2.51393 3.79582 3.79855 0.20024 0.16938 0.20331 0.48082 0.01178 0.65259 -1.50258 1.34759 -2.51655 2.43808 -3.78805 3.83572 -0.89693 0.9858 -0.30855 2.6108 1.05417 2.7266 3.45379 0.2936 5.95615 0.2535 9.96146 -0.1952 0.343 -0.0384 0.59 -0.3477 0.5515 -0.6907 -0.0384 -0.343 -0.3477 -0.59 -0.6907 -0.5515 -3.93329 0.4406 -6.3531 0.4778 -9.71641 0.1919 -0.29445 -0.025 -0.45989 -0.3932 -0.23541 -0.64C3.61769 10.537 4.59735 9.48452 6.0514 8.18045c0.76 -0.6816 0.73642 -1.88154 -0.03908 -2.53752C4.5581 4.41284 3.58263 3.3845 2.34997 1.97565c-0.21216 -0.24249 -0.04743 -0.61404 0.26318 -0.62828Z" clip-rule="evenodd" stroke-width="1"></path>
  </g>
</svg>