<svg xmlns="http://www.w3.org/2000/svg" fill="none" viewBox="0 0 14 14" id="Wave-Signal-Circle--Streamline-Flex-Remix">
  <desc>
    Wave Signal Circle Streamline Icon: https://streamlinehq.com
  </desc>
  <g id="wave-signal-circle--circle-stats-graph-line-beat-heart">
    <path id="Union" fill="#000000" fill-rule="evenodd" d="M3.05245 2.51408C4.03771 1.6911 5.49493 1.25 7.00004 1.25c1.5051 0 2.96232 0.4411 3.94756 1.26408 1.0842 0.9056 1.706 2.44224 1.7926 4.09343 0.0866 1.6505 -0.3692 3.29207 -1.2845 4.36679 -0.98 1.1509 -2.67952 1.7757 -4.45566 1.7757 -1.77614 0 -3.47564 -0.6248 -4.45569 -1.7757 -0.91524 -1.07472 -1.37107 -2.71629 -1.28451 -4.36679 0.08659 -1.65119 0.70844 -3.18783 1.79261 -4.09343Zm8.69655 -0.95935C10.4845 0.498503 8.71831 0 7.00004 0 5.28177 0 3.51561 0.498503 2.25111 1.55473 0.823564 2.74715 0.11037 4.65779 0.0115513 6.54204 -0.0873029 8.42697 0.42108 10.409 1.59266 11.7848 2.87827 13.2945 4.97748 14 7.00004 14s4.12176 -0.7055 5.40736 -2.2152c1.1716 -1.3758 1.68 -3.35783 1.5811 -5.24276 -0.0988 -1.88425 -0.812 -3.79489 -2.2395 -4.98731ZM6.28736 3.99658c-0.30322 0 -0.53859 0.13326 -0.69437 0.26393 -0.15148 0.12708 -0.26445 0.28084 -0.34753 0.41388 -0.16553 0.26506 -0.29964 0.5925 -0.40641 0.87452 -0.06003 0.15855 -0.10669 0.28867 -0.14997 0.40936 -0.0483 0.13468 -0.0924 0.25768 -0.14616 0.39529 -0.03541 0.09067 -0.06592 0.16275 -0.09216 0.2183 -0.07492 0.00379 -0.1773 -0.00145 -0.30423 -0.0181 -0.14466 -0.01898 -0.28973 -0.04826 -0.42237 -0.07645l-0.04391 -0.00938c-0.04882 -0.01044 -0.09969 -0.02133 -0.14161 -0.02959l-0.00553 -0.0011c-0.03701 -0.00738 -0.14151 -0.0282 -0.24311 -0.0282 -0.41421 0 -0.75 0.33579 -0.75 0.75 0 0.3946 0.30475 0.71803 0.69173 0.74777l0.01674 0.0032c0.02905 0.00572 0.06251 0.01288 0.10699 0.02239l0.05684 0.01213c0.13857 0.02946 0.33223 0.06935 0.53916 0.09649 0.20188 0.02648 0.45078 0.04577 0.69683 0.01939 0.23119 -0.02478 0.57499 -0.10161 0.84442 -0.37104 0.13123 -0.13124 0.22011 -0.28868 0.2767 -0.39997 0.06262 -0.12316 0.11964 -0.25934 0.1707 -0.39006 0.04035 -0.1033 0.08934 -0.23706 0.13865 -0.37302 0.02304 0.11317 0.04649 0.2298 0.07045 0.34898l0.05511 0.27351c0.11291 0.5579 0.23839 1.15571 0.37793 1.61744 0.06827 0.22591 0.15267 0.46365 0.26107 0.65838 0.05366 0.09639 0.1338 0.22039 0.25072 0.32862 0.11887 0.11004 0.32866 0.25025 0.61865 0.25025 0.30322 0 0.53858 -0.13326 0.69436 -0.26394 0.15148 -0.12707 0.26445 -0.28083 0.34753 -0.41386 0.16553 -0.26507 0.29965 -0.59251 0.40642 -0.87453 0.06003 -0.15854 0.10669 -0.28866 0.14997 -0.40934 0.0483 -0.13469 0.09241 -0.25769 0.14616 -0.39531 0.04042 -0.10345 0.07443 -0.1827 0.10302 -0.24081 0.07089 -0.01079 0.17366 -0.01325 0.30043 -0.00188 0.12921 0.01159 0.25822 0.03523 0.36332 0.06144 0.0729 0.01819 0.1149 0.03272 0.131 0.03829 0.0051 0.00176 0.0076 0.00263 0.0077 0.00243 0.0001 -0.00023 -0.0033 -0.00197 -0.0098 -0.00551 0.3642 0.19731 0.8194 0.06201 1.0167 -0.30219 0.1973 -0.3642 0.062 -0.8194 -0.3022 -1.0167 -0.1422 -0.07702 -0.3268 -0.13342 -0.4804 -0.17173 -0.172 -0.0429 -0.3778 -0.08079 -0.59232 -0.10003 -0.21065 -0.0189 -0.4567 -0.02233 -0.69854 0.01917 -0.23158 0.03974 -0.5418 0.13483 -0.78868 0.38171 -0.13124 0.13123 -0.22011 0.28868 -0.2767 0.39996 -0.06263 0.12316 -0.11964 0.25934 -0.17071 0.39006 -0.05028 0.12872 -0.11398 0.30476 -0.17499 0.47338l-0.0361 0.09966c-0.05797 -0.25461 -0.11584 -0.5334 -0.17435 -0.8225l-0.05254 -0.26091c-0.09441 -0.46998 -0.19055 -0.94858 -0.28617 -1.32448 -0.05578 -0.21927 -0.12097 -0.44336 -0.19935 -0.62407 -0.03758 -0.08664 -0.09642 -0.20697 -0.18626 -0.31755 -0.0745 -0.0917 -0.29356 -0.32768 -0.66283 -0.32768ZM3.21584 7.90413c-0.00006 -0.00003 0.00121 0.00014 0.00399 0.0006l-0.00399 -0.0006Zm2.53602 -2.68348c0.00001 -0.00004 0.0005 0.00084 0.00145 0.00275l-0.00145 -0.00275Zm3.7512 2.19809c-0.00004 -0.00004 0.0009 -0.00046 0.00296 -0.00117l-0.00296 0.00117ZM8.16034 8.70575c-0.00001 0.00004 -0.00066 -0.0009 -0.00191 -0.00294l0.00191 0.00294Z" clip-rule="evenodd" stroke-width="1"></path>
  </g>
</svg>