<svg xmlns="http://www.w3.org/2000/svg" fill="none" viewBox="0 0 14 14" id="Wrench-Hand--Streamline-Flex-Remix">
  <desc>
    Wrench Hand Streamline Icon: https://streamlinehq.com
  </desc>
  <g id="wrench-hand--crescent-tool-construction-tools-wrench-setting-edit-adjust">
    <path id="Union" fill="#000000" fill-rule="evenodd" d="M8.126 0.279461c0.47908 -0.2612501 1.04651 -0.33551 1.66983 -0.2379511 0.07663 0.011993 0.14335 0.0588691 0.18061 0.1268911 0.03726 0.068021 0.04086 0.149483 0.00968 0.22051 -0.01542 0.035166 -0.03077 0.070902 -0.04606 0.107207 -0.29332 0.696722 -0.35488 1.116532 -0.30013 1.378092 0.04803 0.22943 0.19616 0.37891 0.49797 0.50624 0.3019 0.12733 0.512 0.12899 0.7094 0.00331 0.2251 -0.14336 0.4823 -0.48056 0.7756 -1.17732 0.0105 -0.02482 0.0207 -0.04948 0.0307 -0.07398 0.0301 -0.0734 0.0932 -0.12819 0.17 -0.147664 0.0769 -0.019473 0.1585 -0.001314 0.2198 0.048934 0.4586 0.37556 0.7652 0.82372 0.8911 1.33191 0.1259 0.50821 0.0652 1.05263 -0.1697 1.61042 -0.2247 0.5338 -0.5521 0.94512 -0.9761 1.21177 -0.3759 0.23638 -0.8132 0.34994 -1.294 0.34688 -0.1306 0.35076 -0.2686 0.70698 -0.419 1.06436 -0.14875 0.35328 -0.46718 1.05662 -0.71542 1.5925 0.36427 0.36537 0.64952 0.88339 0.64952 1.54718 0 0.69775 -0.32757 1.71315 -0.78005 2.53435 -0.23123 0.4197 -0.51697 0.8298 -0.84907 1.1434 -0.32439 0.3064 -0.76098 0.5832 -1.28217 0.5832 -0.80745 0 -2.04096 -0.0951 -3.14003 -0.2108 -1.07729 -0.1135 -2.11864 -0.2561 -2.5042 -0.3663 -0.33187 -0.0949 -0.523965 -0.4409 -0.42905 -0.7728 0.09492 -0.3319 0.4409 -0.524 0.77277 -0.429 0.259 0.074 1.18036 0.208 2.29138 0.3249 1.08924 0.1148 2.26963 0.204 3.00913 0.204 0.06642 0 0.20942 -0.0394 0.42388 -0.242 0.20675 -0.1952 0.41912 -0.4867 0.61255 -0.8378 0.39683 -0.7202 0.62481 -1.5228 0.62481 -1.93115 0 -0.32095 -0.1535 -0.56932 -0.38721 -0.75647 -0.25354 -0.20304 -0.53369 -0.27763 -0.64522 -0.27763H5.7179c-0.21038 0 -0.40664 -0.10584 -0.52222 -0.28162 -0.11558 -0.17577 -0.13498 -0.39791 -0.05161 -0.59106l0.1784 -0.41332c0.27672 -0.64111 -0.11136 -1.37361 -0.79722 -1.50475 -0.09562 -0.01828 -0.19254 0.02473 -0.24314 0.10791L2.16012 9.5105c-0.17938 0.29491 -0.56387 0.38856 -0.85878 0.20918 -0.2949 -0.17937 -0.38856 -0.56386 -0.20918 -0.85877l2.122 -3.48869c0.32166 -0.52883 0.93788 -0.80232 1.54584 -0.68608 0.94718 0.1811 1.62961 0.89687 1.83721 1.75078 0.13675 -0.36859 0.28125 -0.74344 0.43955 -1.11945 0.15049 -0.35745 0.30889 -0.70512 0.46847 -1.04376 -0.33798 -0.34229 -0.56222 -0.73493 -0.6557 -1.1693 -0.10542 -0.48989 -0.03998 -1.01162 0.18475 -1.54541C7.27933 0.976938 7.64632 0.541037 8.126 0.279461Z" clip-rule="evenodd" stroke-width="1"></path>
  </g>
</svg>