<svg xmlns="http://www.w3.org/2000/svg" viewBox="0 0 14 14">
  <g>
    <path d="M7.84,13.72a1.4,1.4,0,0,1-1.68,0L1.92,10.6a1.42,1.42,0,0,1-.56-.91L0,1.65A1.42,1.42,0,0,1,.34.5,1.4,1.4,0,0,1,1.42,0H12.58a1.4,1.4,0,0,1,1.08.5A1.42,1.42,0,0,1,14,1.65h0l-1.34,8a1.42,1.42,0,0,1-.56.91ZM1.81,1.5a.23.23,0,0,0-.19.09.24.24,0,0,0-.06.2L2.82,9.34a.25.25,0,0,0,.1.16l4,2.91a.26.26,0,0,0,.3,0l3.91-3a.25.25,0,0,0,.1-.16l1.23-7.53a.29.29,0,0,0,0-.2.28.28,0,0,0-.19-.09Z" style="fill: #000001"/>
    <path d="M7,10.75a.74.74,0,0,1-.45-.15l-2-1.5a.75.75,0,1,1,.9-1.2l1.4,1a.24.24,0,0,0,.3,0l1-.79A.23.23,0,0,0,8.3,8l.08-.71a.25.25,0,0,0-.06-.2A.27.27,0,0,0,8.13,7H5a.76.76,0,0,1-.74-.62l-.5-2.75A.75.75,0,0,1,3.92,3a.78.78,0,0,1,.58-.27h5a.75.75,0,0,1,0,1.5H5.7a.22.22,0,0,0-.19.09.25.25,0,0,0-.06.2l.14.75a.25.25,0,0,0,.24.21H9.25a.75.75,0,0,1,.56.25.77.77,0,0,1,.19.58L9.75,8.58a.75.75,0,0,1-.3.52l-2,1.5A.74.74,0,0,1,7,10.75Z" style="fill: #000001"/>
  </g>
</svg>
