<svg xmlns="http://www.w3.org/2000/svg" viewBox="0 0 14 14">
  <g>
    <path d="M14,3.75a.75.75,0,0,0-.22-.53l-3-3A.75.75,0,0,0,10.25,0h-6A1.25,1.25,0,0,0,3,1.25v4.5a.75.75,0,0,0,1.5,0v-4a.25.25,0,0,1,.25-.25h4.5a.25.25,0,0,1,.25.25v2a.76.76,0,0,0,.75.75h2a.25.25,0,0,1,.25.25v7.5a.25.25,0,0,1-.25.25H9.75a.75.75,0,0,0,0,1.5h3A1.25,1.25,0,0,0,14,12.75Z" style="fill: #000001"/>
    <path d="M3,14a.74.74,0,0,1-.53-.22L.22,11.53a.75.75,0,0,1,0-1.06L2.47,8.22A.75.75,0,0,1,3.53,9.28L2,10.82a.25.25,0,0,0,0,.36l1.54,1.54a.75.75,0,0,1,0,1.06A.74.74,0,0,1,3,14Z" style="fill: #000001"/>
    <path d="M6,14a.74.74,0,0,1-.53-.22.75.75,0,0,1,0-1.06L7,11.18a.25.25,0,0,0,0-.36L5.47,9.28A.75.75,0,0,1,6.53,8.22l2.25,2.25a.75.75,0,0,1,0,1.06L6.53,13.78A.74.74,0,0,1,6,14Z" style="fill: #000001"/>
  </g>
</svg>
