<svg xmlns="http://www.w3.org/2000/svg" viewBox="0 0 32 32" id="Content-Files-Book-Library--Streamline-Pixel">
  <desc>
    Content Files Book Library Streamline Icon: https://streamlinehq.com
  </desc>
  <title>content-files-book-library</title>
  <g>
    <path d="M1.53 30.48h7.62V32h1.52v-1.52h10.67V32h1.52v-1.52h7.62V32H32V0H0v32h1.53Zm21.33 -18.29h1.53v-1.52h1.52V9.14h1.52v1.53h1.53v1.52h1.52v6.1h-7.62Zm-1.52 16.76H12.2v-7.62h9.14Zm-6.1 -9.14v-3.05h1.53v3.05Zm6.1 0h-1.53v-4.57h-1.52v-1.52h3.05ZM19.81 1.52h1.53V6.1h-1.53Zm0 6.1h1.53v4.57h-1.53Zm-3.04 -6.1h1.52v1.53h-1.52Zm0 3.05h1.52V6.1h-1.52Zm0 3.05h1.52v4.57h-1.52Zm0 7.62h-1.53v-1.52h1.53ZM13.72 1.52h1.52V6.1h-1.52Zm0 6.1h1.52v4.57h-1.52Zm-3.05 -6.1h1.53V6.1h-1.53Zm-9.14 0H6.1v1.53h1.52V6.1H4.58V4.57H3.05V6.1H1.53Zm0 6.1h9.14v1.52h1.53v3.05H9.15v-1.52H7.62v1.52H1.53Zm0 6.1h12.19v6.09H9.15v-1.52H7.62v-1.53h4.58v-1.52H4.58v1.52H1.53Zm0 4.57h1.52v1.52H1.53Zm0 3.04h9.14v7.62H1.53Z" fill="#000000" stroke-width="1"></path>
    <path d="m28.96 13.72 0 -1.53 -1.53 0 0 -1.52 -1.52 0 0 1.52 -1.52 0 0 1.53 4.57 0z" fill="#000000" stroke-width="1"></path>
    <path d="M13.72 22.86h1.52v4.57h-1.52Z" fill="#000000" stroke-width="1"></path>
    <path d="M9.15 9.14h1.52v1.53H9.15Z" fill="#000000" stroke-width="1"></path>
    <path d="M7.62 22.86h1.53v4.57H7.62Z" fill="#000000" stroke-width="1"></path>
    <path d="M4.58 3.05H6.1v1.52H4.58Z" fill="#000000" stroke-width="1"></path>
  </g>
</svg>