<svg xmlns="http://www.w3.org/2000/svg" fill="none" viewBox="0 0 24 24" id="Amusement-Park-Balloon--Streamline-Ultimate">
  <desc>
    Amusement Park Balloon Streamline Icon: https://streamlinehq.com
  </desc>
  <path fill="#ff808c" d="M7.41805 8.26495c1.0798 0 1.95515 -1.53144 1.95515 -3.42057 0 -1.88912 -0.87535 -3.42056 -1.95515 -3.42056S5.46289 2.95526 5.46289 4.84438c0 1.88913 0.87536 3.42057 1.95516 3.42057Z" stroke-width="1"></path>
  <path fill="#ffbfc5" d="M7.41846 1.42382c1.08008 0 1.95515 1.53184 1.95515 3.41676s-0.87507 3.42153 -1.95515 3.42153V1.42382Z" stroke-width="1"></path>
  <path fill="#ff808c" d="M3.93273 11.0506c1.6197 0 2.93273 -0.8754 2.93273 -1.95518 0 -1.07979 -1.31303 -1.95515 -2.93273 -1.95515S1 8.01563 1 9.09542c0 1.07978 1.31303 1.95518 2.93273 1.95518Z" stroke-width="1"></path>
  <path fill="#ffbfc5" d="M1.00098 9.09541c0 -1.08198 1.30881 -1.95421 2.93178 -1.95421 1.62296 0 2.93273 0.87223 2.93273 1.95421H1.00098Z" stroke-width="1"></path>
  <path fill="#ff808c" d="M14.7497 16.7072c2.1591 0 3.9093 -0.8753 3.9093 -1.9551s-1.7502 -1.9552 -3.9093 -1.9552 -3.9094 0.8754 -3.9094 1.9552 1.7503 1.9551 3.9094 1.9551Z" stroke-width="1"></path>
  <path fill="#ffbfc5" d="M10.8403 14.7521c0 -1.0801 1.7502 -1.9552 3.9094 -1.9552 2.1592 0 3.9103 0.8751 3.9103 1.9552h-7.8197Z" stroke-width="1"></path>
  <path fill="#ff808c" d="M10.0998 15.185c1.0317 -0.3186 1.3824 -2.1504 0.7831 -4.0918 -0.5992 -1.9413 -1.92137 -3.25688 -2.95314 -2.93839 -1.03178 0.31848 -1.38241 2.15039 -0.78318 4.09169 0.59924 1.9413 1.92143 3.257 2.95322 2.9385Z" stroke-width="1"></path>
  <path fill="#ffbfc5" d="M7.93018 8.15486c1.03167 -0.31889 2.35382 0.99656 2.95262 2.94224 0.5989 1.9456 0.2535 3.7689 -0.783 4.0878L7.93018 8.15486Z" stroke-width="1"></path>
  <path fill="#ff808c" d="M11.0803 19.6069c0.821 -2.007 0.6765 -3.9655 -0.3229 -4.3744 -0.99948 -0.4088 -2.47525 0.8869 -3.29628 2.8939 -0.82104 2.0071 -0.67643 3.9656 0.32298 4.3744 0.99941 0.4088 2.4752 -0.8868 3.2962 -2.8939Z" stroke-width="1"></path>
  <path fill="#ff808c" d="M22.1751 22.5011c0.9994 -0.4088 1.1054 -2.4617 0.2367 -4.5852 -0.8686 -2.1235 -2.383 -3.5136 -3.3824 -3.1047 -0.9994 0.4089 -1.1054 2.4617 -0.2367 4.5852 0.8686 2.1235 2.383 3.5135 3.3824 3.1047Z" stroke-width="1"></path>
  <path fill="#ff808c" d="M22.2855 12.2019c0.8397 -1.8021 0.727 -3.63282 -0.2518 -4.08885 -0.9788 -0.45604 -2.453 0.63523 -3.2926 2.43745 -0.8397 1.8022 -0.727 3.6328 0.2518 4.0888 0.9788 0.4561 2.4529 -0.6352 3.2926 -2.4374Z" stroke-width="1"></path>
  <path fill="#ffbfc5" d="M22.0338 8.11309c-0.9786 -0.45652 -2.4535 0.63495 -3.2925 2.43731 -0.839 1.8023 -0.727 3.6322 0.2515 4.0887l3.041 -6.52601Z" stroke-width="1"></path>
  <path stroke="#191919" stroke-linecap="round" stroke-linejoin="round" d="M7.41805 8.26495c1.0798 0 1.95515 -1.53144 1.95515 -3.42057 0 -1.88912 -0.87535 -3.42056 -1.95515 -3.42056S5.46289 2.95526 5.46289 4.84438c0 1.88913 0.87536 3.42057 1.95516 3.42057Z" stroke-width="1"></path>
  <path stroke="#191919" stroke-linecap="round" stroke-linejoin="round" d="M4.10314 10.9414c1.6197 0 2.93273 -0.8753 2.93273 -1.95512 0 -1.07979 -1.31303 -1.95515 -2.93273 -1.95515s-2.93273 0.87536 -2.93273 1.95515c0 1.07982 1.31303 1.95512 2.93273 1.95512Z" stroke-width="1"></path>
  <path stroke="#191919" stroke-linecap="round" stroke-linejoin="round" d="M14.7497 16.7072c2.1591 0 3.9093 -0.8753 3.9093 -1.9551s-1.7502 -1.9552 -3.9093 -1.9552 -3.9094 0.8754 -3.9094 1.9552 1.7503 1.9551 3.9094 1.9551Z" stroke-width="1"></path>
  <path stroke="#191919" stroke-linecap="round" stroke-linejoin="round" d="M10.0998 15.185c1.0317 -0.3186 1.3824 -2.1504 0.7831 -4.0918 -0.5992 -1.9413 -1.92137 -3.25688 -2.95314 -2.93839 -1.03178 0.31848 -1.38241 2.15039 -0.78318 4.09169 0.59924 1.9413 1.92143 3.257 2.95322 2.9385Z" stroke-width="1"></path>
  <path stroke="#191919" stroke-linecap="round" stroke-linejoin="round" d="M11.0803 19.6069c0.821 -2.007 0.6765 -3.9655 -0.3229 -4.3744 -0.99948 -0.4088 -2.47525 0.8869 -3.29628 2.8939 -0.82104 2.0071 -0.67643 3.9656 0.32298 4.3744 0.99941 0.4088 2.4752 -0.8868 3.2962 -2.8939Z" stroke-width="1"></path>
  <path stroke="#191919" stroke-linecap="round" stroke-linejoin="round" d="M22.1751 22.5011c0.9994 -0.4088 1.1054 -2.4617 0.2367 -4.5852 -0.8686 -2.1235 -2.383 -3.5136 -3.3824 -3.1047 -0.9994 0.4089 -1.1054 2.4617 -0.2367 4.5852 0.8686 2.1235 2.383 3.5135 3.3824 3.1047Z" stroke-width="1"></path>
  <path stroke="#191919" stroke-linecap="round" stroke-linejoin="round" d="M22.2855 12.2019c0.8397 -1.8021 0.727 -3.63282 -0.2518 -4.08885 -0.9788 -0.45604 -2.453 0.63523 -3.2926 2.43745 -0.8397 1.8022 -0.727 3.6328 0.2518 4.0888 0.9788 0.4561 2.4529 -0.6352 3.2926 -2.4374Z" stroke-width="1"></path>
</svg>