<svg xmlns="http://www.w3.org/2000/svg" fill="none" viewBox="0 0 24 24" id="Amusement-Park-Electric-Cars--Streamline-Ultimate">
  <desc>
    Amusement Park Electric Cars Streamline Icon: https://streamlinehq.com
  </desc>
  <path fill="#ffef5e" d="M3.87238 1.00191 1.29027 2.03576c-0.08358 0.0357 -0.15526 0.09445 -0.2066 0.1695 -0.05135 0.07496 -0.0803 0.16303 -0.08339 0.25383 -0.003095 0.09079 0.01977 0.18065 0.06587 0.25898 0.0461 0.07823 0.11356 0.14185 0.19451 0.18317l2.61172 1.25667v-3.156Z" stroke-width="1"></path>
  <path fill="#808080" d="M21.0874 19.1726H2.91664c-1.05643 0 -1.91273 0.8564 -1.91273 1.9128 0 1.0563 0.8563 1.9127 1.91273 1.9127H21.0874c1.0563 0 1.9127 -0.8563 1.9127 -1.9127 0 -1.0565 -0.8564 -1.9128 -1.9127 -1.9128Z" stroke-width="1"></path>
  <path fill="#b2b2b2" d="M23.0001 21.0854c-0.0016 -0.5068 -0.2035 -0.9925 -0.5619 -1.3509 -0.3584 -0.3584 -0.8441 -0.5603 -1.3508 -0.5619H2.91664c-0.50681 0.0016 -0.99244 0.2035 -1.35083 0.5619 -0.35839 0.3584 -0.5604 0.8441 -0.5619 1.3509H23.0001Z" stroke-width="1"></path>
  <path stroke="#191919" stroke-linecap="round" stroke-linejoin="round" d="M21.0874 19.1726H2.91664c-1.05643 0 -1.91273 0.8564 -1.91273 1.9128 0 1.0563 0.8563 1.9127 1.91273 1.9127H21.0874c1.0563 0 1.9127 -0.8563 1.9127 -1.9127 0 -1.0565 -0.8564 -1.9128 -1.9127 -1.9128Z" stroke-width="1"></path>
  <path fill="#ffbfc5" d="M2.91602 19.1726V12c0 -0.1268 0.05031 -0.2485 0.13998 -0.3382 0.08967 -0.0896 0.21138 -0.1399 0.33815 -0.1399h1.43451c0.50728 0 0.99385 0.2014 1.35252 0.5602 0.35867 0.3586 0.56021 0.8452 0.56021 1.3524v0.9564c0 0.2536 0.10073 0.4969 0.28016 0.6762 0.17934 0.1793 0.42257 0.2801 0.67621 0.2801h5.73814c0.2536 0 0.4969 -0.1008 0.6762 -0.2801 0.1792 -0.1794 0.2801 -0.4226 0.2801 -0.6762v-1.4345c0 -0.1269 0.0505 -0.2485 0.14 -0.3382 0.0898 -0.0897 0.2114 -0.1401 0.3382 -0.1401 1.6487 0 3.2298 0.655 4.3956 1.8208 1.1658 1.1657 1.8207 2.7469 1.8207 4.3956v0.4781H2.91602Z" stroke-width="1"></path>
  <path fill="#ff808c" d="M2.91602 17.26v1.9126H21.0867v-0.4781c0.0004 -0.4831 -0.0554 -0.9644 -0.1664 -1.4345H2.91602Z" stroke-width="1"></path>
  <path stroke="#191919" stroke-linecap="round" stroke-linejoin="round" d="M2.91602 19.1726V12c0 -0.1268 0.05031 -0.2485 0.13998 -0.3382 0.08967 -0.0896 0.21138 -0.1399 0.33815 -0.1399h1.43451c0.50728 0 0.99385 0.2014 1.35252 0.5602 0.35867 0.3586 0.56021 0.8452 0.56021 1.3524v0.9564c0 0.2536 0.10073 0.4969 0.28016 0.6762 0.17934 0.1793 0.42257 0.2801 0.67621 0.2801h5.73814c0.2536 0 0.4969 -0.1008 0.6762 -0.2801 0.1792 -0.1794 0.2801 -0.4226 0.2801 -0.6762v-1.4345c0 -0.1269 0.0505 -0.2485 0.14 -0.3382 0.0898 -0.0897 0.2114 -0.1401 0.3382 -0.1401 1.6487 0 3.2298 0.655 4.3956 1.8208 1.1658 1.1657 1.8207 2.7469 1.8207 4.3956v0.4781H2.91602Z" stroke-width="1"></path>
  <path stroke="#191919" stroke-linecap="round" stroke-linejoin="round" d="M3.87238 11.5219V1.00191L1.29027 2.03576c-0.08358 0.0357 -0.15526 0.09445 -0.2066 0.1695 -0.05135 0.07496 -0.0803 0.16303 -0.08339 0.25383 -0.003095 0.09079 0.01977 0.18065 0.06587 0.25898 0.0461 0.07823 0.11356 0.14185 0.19451 0.18317l2.61172 1.25667" stroke-width="1"></path>
  <path stroke="#191919" stroke-linecap="round" stroke-linejoin="round" d="M13.7101 15.307 11.103 12.7" stroke-width="1"></path>
  <path stroke="#191919" stroke-linecap="round" stroke-linejoin="round" d="m10.0894 13.7147 2.0284 -2.0284" stroke-width="1"></path>
</svg>