<svg xmlns="http://www.w3.org/2000/svg" fill="none" viewBox="0 0 24 24" id="Board-Game-Dice-2--Streamline-Ultimate">
  <desc>
    Board Game Dice 2 Streamline Icon: https://streamlinehq.com
  </desc>
  <path fill="#e3e3e3" d="M9.60889 15.3478H22.0437c0.2536 0 0.497 -0.1008 0.6763 -0.2801 0.1794 -0.1794 0.2802 -0.4227 0.2802 -0.6764V2.91304c0 -0.25369 -0.1008 -0.49698 -0.2802 -0.67636 -0.1793 -0.17938 -0.4227 -0.28016 -0.6763 -0.28016H10.5654c-0.2537 0 -0.497 0.10078 -0.67636 0.28016 -0.17937 0.17938 -0.28015 0.42267 -0.28015 0.67636V15.3478Z" stroke-width="1"></path>
  <path fill="#b2b2b2" d="M22.0437 12.4783H9.60889v2.8695H22.0437c0.2536 0 0.497 -0.1008 0.6763 -0.2801 0.1794 -0.1794 0.2802 -0.4227 0.2802 -0.6764v-2.8696c0 0.2537 -0.1008 0.497 -0.2802 0.6764 -0.1793 0.1793 -0.4227 0.2802 -0.6763 0.2802Z" stroke-width="1"></path>
  <path stroke="#191919" stroke-linecap="round" stroke-linejoin="round" d="M16.3045 15.3478h5.7392c0.2536 0 0.497 -0.1008 0.6763 -0.2801 0.1794 -0.1794 0.2802 -0.4227 0.2802 -0.6764V2.91304c0 -0.25369 -0.1008 -0.49698 -0.2802 -0.67636 -0.1793 -0.17938 -0.4227 -0.28016 -0.6763 -0.28016H10.5654c-0.2537 0 -0.497 0.10078 -0.67636 0.28016 -0.17937 0.17938 -0.28015 0.42267 -0.28015 0.67636v3.82609" stroke-width="1"></path>
  <path fill="#ffffff" d="M13.4348 8.65218H1.95652C1.42825 8.65218 1 9.08043 1 9.6087V21.087c0 0.5282 0.42825 0.9565 0.95652 0.9565H13.4348c0.5283 0 0.9565 -0.4283 0.9565 -0.9565V9.6087c0 -0.52827 -0.4282 -0.95652 -0.9565 -0.95652Z" stroke-width="1"></path>
  <path fill="#e3e3e3" d="M13.4348 19.6522H1.95652c-0.25369 0 -0.49698 -0.1008 -0.67636 -0.2802C1.10078 19.1927 1 18.9493 1 18.6956v2.3914c0 0.2536 0.10078 0.497 0.28016 0.6763 0.17938 0.1794 0.42267 0.2802 0.67636 0.2802H13.4348c0.2537 0 0.497 -0.1008 0.6763 -0.2802 0.1794 -0.1793 0.2802 -0.4227 0.2802 -0.6763v-2.3914c0 0.2537 -0.1008 0.4971 -0.2802 0.6764 -0.1793 0.1794 -0.4226 0.2802 -0.6763 0.2802Z" stroke-width="1"></path>
  <path stroke="#191919" stroke-linecap="round" stroke-linejoin="round" d="M13.4348 8.65218H1.95652C1.42825 8.65218 1 9.08043 1 9.6087V21.087c0 0.5282 0.42825 0.9565 0.95652 0.9565H13.4348c0.5283 0 0.9565 -0.4283 0.9565 -0.9565V9.6087c0 -0.52827 -0.4282 -0.95652 -0.9565 -0.95652Z" stroke-width="1"></path>
  <path stroke="#191919" stroke-linecap="round" stroke-linejoin="round" d="M18.6958 11.7609c0.0634 0 0.1243 0.0251 0.1691 0.07 0.0449 0.0448 0.07 0.1057 0.07 0.1691" stroke-width="1"></path>
  <path stroke="#191919" stroke-linecap="round" stroke-linejoin="round" d="M18.4565 12c0 -0.0634 0.0252 -0.1243 0.0701 -0.1691 0.0448 -0.0449 0.1057 -0.07 0.1691 -0.07" stroke-width="1"></path>
  <path stroke="#191919" stroke-linecap="round" stroke-linejoin="round" d="M18.6957 12.2391c-0.0634 0 -0.1243 -0.0251 -0.1691 -0.07 -0.0449 -0.0448 -0.0701 -0.1057 -0.0701 -0.1691" stroke-width="1"></path>
  <path stroke="#191919" stroke-linecap="round" stroke-linejoin="round" d="M18.9349 12c0 0.0634 -0.0251 0.1243 -0.07 0.1691 -0.0448 0.0449 -0.1057 0.07 -0.1691 0.07" stroke-width="1"></path>
  <path stroke="#191919" stroke-linecap="round" stroke-linejoin="round" d="M18.6958 5.06522c0.0634 0 0.1243 0.02519 0.1691 0.07003 0.0449 0.04485 0.07 0.10568 0.07 0.1691" stroke-width="1"></path>
  <path stroke="#191919" stroke-linecap="round" stroke-linejoin="round" d="M18.4565 5.30435c0 -0.06342 0.0252 -0.12425 0.0701 -0.1691 0.0448 -0.04484 0.1057 -0.07003 0.1691 -0.07003" stroke-width="1"></path>
  <path stroke="#191919" stroke-linecap="round" stroke-linejoin="round" d="M18.6957 5.54347c-0.0634 0 -0.1243 -0.02519 -0.1691 -0.07003 -0.0449 -0.04485 -0.0701 -0.10568 -0.0701 -0.1691" stroke-width="1"></path>
  <path stroke="#191919" stroke-linecap="round" stroke-linejoin="round" d="M18.9349 5.30434c0 0.06342 -0.0251 0.12425 -0.07 0.1691 -0.0448 0.04484 -0.1057 0.07003 -0.1691 0.07003" stroke-width="1"></path>
  <path stroke="#191919" stroke-linecap="round" stroke-linejoin="round" d="M13.9131 5.06522c0.0634 0 0.1242 0.02519 0.1691 0.07003 0.0449 0.04485 0.07 0.10568 0.07 0.1691" stroke-width="1"></path>
  <path stroke="#191919" stroke-linecap="round" stroke-linejoin="round" d="M13.6738 5.30435c0 -0.06342 0.0252 -0.12425 0.07 -0.1691 0.0449 -0.04484 0.1057 -0.07003 0.1692 -0.07003" stroke-width="1"></path>
  <path stroke="#191919" stroke-linecap="round" stroke-linejoin="round" d="M13.913 5.54347c-0.0635 0 -0.1243 -0.02519 -0.1692 -0.07003 -0.0448 -0.04485 -0.07 -0.10568 -0.07 -0.1691" stroke-width="1"></path>
  <path stroke="#191919" stroke-linecap="round" stroke-linejoin="round" d="M14.1522 5.30434c0 0.06342 -0.0251 0.12425 -0.07 0.1691 -0.0449 0.04484 -0.1057 0.07003 -0.1691 0.07003" stroke-width="1"></path>
  <path stroke="#191919" stroke-linecap="round" stroke-linejoin="round" d="M11.0435 12.7174c0.0634 0 0.1242 0.0251 0.1691 0.07 0.0448 0.0449 0.07 0.1057 0.07 0.1691" stroke-width="1"></path>
  <path stroke="#191919" stroke-linecap="round" stroke-linejoin="round" d="M10.8042 12.9565c0 -0.0634 0.0252 -0.1242 0.07 -0.1691 0.0449 -0.0449 0.1057 -0.07 0.1691 -0.07" stroke-width="1"></path>
  <path stroke="#191919" stroke-linecap="round" stroke-linejoin="round" d="M11.0433 13.1957c-0.0634 0 -0.1242 -0.0252 -0.1691 -0.0701 -0.0448 -0.0448 -0.07 -0.1057 -0.07 -0.1691" stroke-width="1"></path>
  <path stroke="#191919" stroke-linecap="round" stroke-linejoin="round" d="M11.2826 12.9565c0 0.0634 -0.0252 0.1243 -0.07 0.1691 -0.0449 0.0449 -0.1057 0.0701 -0.1691 0.0701" stroke-width="1"></path>
  <path stroke="#191919" stroke-linecap="round" stroke-linejoin="round" d="M7.6958 12.7174c0.06342 0 0.12424 0.0251 0.16909 0.07 0.04485 0.0449 0.07004 0.1057 0.07004 0.1691" stroke-width="1"></path>
  <path stroke="#191919" stroke-linecap="round" stroke-linejoin="round" d="M7.45654 12.9565c0 -0.0634 0.0252 -0.1242 0.07004 -0.1691 0.04485 -0.0449 0.10568 -0.07 0.16909 -0.07" stroke-width="1"></path>
  <path stroke="#191919" stroke-linecap="round" stroke-linejoin="round" d="M7.69567 13.1957c-0.06341 0 -0.12424 -0.0252 -0.16909 -0.0701 -0.04484 -0.0448 -0.07004 -0.1057 -0.07004 -0.1691" stroke-width="1"></path>
  <path stroke="#191919" stroke-linecap="round" stroke-linejoin="round" d="M7.93493 12.9565c0 0.0634 -0.02519 0.1243 -0.07004 0.1691 -0.04485 0.0449 -0.10567 0.0701 -0.16909 0.0701" stroke-width="1"></path>
  <path stroke="#191919" stroke-linecap="round" stroke-linejoin="round" d="M4.34766 12.7174c0.06341 0 0.12424 0.0251 0.16909 0.07 0.04484 0.0449 0.07004 0.1057 0.07004 0.1691" stroke-width="1"></path>
  <path stroke="#191919" stroke-linecap="round" stroke-linejoin="round" d="M4.10889 12.9565c0 -0.0634 0.02519 -0.1242 0.07003 -0.1691 0.04485 -0.0449 0.10568 -0.07 0.1691 -0.07" stroke-width="1"></path>
  <path stroke="#191919" stroke-linecap="round" stroke-linejoin="round" d="M4.34802 13.1957c-0.06342 0 -0.12425 -0.0252 -0.1691 -0.0701 -0.04484 -0.0448 -0.07003 -0.1057 -0.07003 -0.1691" stroke-width="1"></path>
  <path stroke="#191919" stroke-linecap="round" stroke-linejoin="round" d="M4.58679 12.9565c0 0.0634 -0.0252 0.1243 -0.07004 0.1691 -0.04485 0.0449 -0.10568 0.0701 -0.16909 0.0701" stroke-width="1"></path>
  <path stroke="#191919" stroke-linecap="round" stroke-linejoin="round" d="M4.34766 17.5c0.06341 0 0.12424 0.0252 0.16909 0.07 0.04484 0.0449 0.07004 0.1057 0.07004 0.1691" stroke-width="1"></path>
  <path stroke="#191919" stroke-linecap="round" stroke-linejoin="round" d="M4.10889 17.7391c0 -0.0634 0.02519 -0.1242 0.07003 -0.1691 0.04485 -0.0448 0.10568 -0.07 0.1691 -0.07" stroke-width="1"></path>
  <path stroke="#191919" stroke-linecap="round" stroke-linejoin="round" d="M4.34802 17.9783c-0.06342 0 -0.12425 -0.0252 -0.1691 -0.0701 -0.04484 -0.0448 -0.07003 -0.1057 -0.07003 -0.1691" stroke-width="1"></path>
  <path stroke="#191919" stroke-linecap="round" stroke-linejoin="round" d="M4.58679 17.7391c0 0.0634 -0.0252 0.1243 -0.07004 0.1691 -0.04485 0.0449 -0.10568 0.0701 -0.16909 0.0701" stroke-width="1"></path>
  <path stroke="#191919" stroke-linecap="round" stroke-linejoin="round" d="M7.6958 17.5c0.06342 0 0.12424 0.0252 0.16909 0.07 0.04485 0.0449 0.07004 0.1057 0.07004 0.1691" stroke-width="1"></path>
  <path stroke="#191919" stroke-linecap="round" stroke-linejoin="round" d="M7.45654 17.7391c0 -0.0634 0.0252 -0.1242 0.07004 -0.1691 0.04485 -0.0448 0.10568 -0.07 0.16909 -0.07" stroke-width="1"></path>
  <path stroke="#191919" stroke-linecap="round" stroke-linejoin="round" d="M7.69567 17.9783c-0.06341 0 -0.12424 -0.0252 -0.16909 -0.0701 -0.04484 -0.0448 -0.07004 -0.1057 -0.07004 -0.1691" stroke-width="1"></path>
  <path stroke="#191919" stroke-linecap="round" stroke-linejoin="round" d="M7.93493 17.7391c0 0.0634 -0.02519 0.1243 -0.07004 0.1691 -0.04485 0.0449 -0.10567 0.0701 -0.16909 0.0701" stroke-width="1"></path>
  <path stroke="#191919" stroke-linecap="round" stroke-linejoin="round" d="M11.0435 17.5c0.0634 0 0.1242 0.0252 0.1691 0.07 0.0448 0.0449 0.07 0.1057 0.07 0.1691" stroke-width="1"></path>
  <path stroke="#191919" stroke-linecap="round" stroke-linejoin="round" d="M10.8042 17.7391c0 -0.0634 0.0252 -0.1242 0.07 -0.1691 0.0449 -0.0448 0.1057 -0.07 0.1691 -0.07" stroke-width="1"></path>
  <path stroke="#191919" stroke-linecap="round" stroke-linejoin="round" d="M11.0433 17.9783c-0.0634 0 -0.1242 -0.0252 -0.1691 -0.0701 -0.0448 -0.0448 -0.07 -0.1057 -0.07 -0.1691" stroke-width="1"></path>
  <path stroke="#191919" stroke-linecap="round" stroke-linejoin="round" d="M11.2826 17.7391c0 0.0634 -0.0252 0.1243 -0.07 0.1691 -0.0449 0.0449 -0.1057 0.0701 -0.1691 0.0701" stroke-width="1"></path>
</svg>