<svg xmlns="http://www.w3.org/2000/svg" fill="none" viewBox="0 0 24 24" id="Card-Game-Cards--Streamline-Ultimate">
  <desc>
    Card Game Cards Streamline Icon: https://streamlinehq.com
  </desc>
  <path fill="#e3e3e3" d="m10.7078 18.7206 -3.92181 1.6262c-0.1172 0.0484 -0.24885 0.0483 -0.36598 -0.0003 -0.11714 -0.0486 -0.21017 -0.1418 -0.25864 -0.259L1.03625 7.71379c-0.04843 -0.11721 -0.048331 -0.24885 0.00028 -0.36598 0.04861 -0.11714 0.14175 -0.21017 0.25895 -0.25864l5.44364 -2.25551" stroke-width="1"></path>
  <path stroke="#191919" stroke-linecap="round" stroke-linejoin="round" d="m10.7078 18.7206 -3.92181 1.6262c-0.1172 0.0484 -0.24885 0.0483 -0.36598 -0.0003 -0.11714 -0.0486 -0.21017 -0.1418 -0.25864 -0.259L1.03625 7.71379c-0.04843 -0.11721 -0.048331 -0.24885 0.00028 -0.36598 0.04861 -0.11714 0.14175 -0.21017 0.25895 -0.25864l5.44364 -2.25551" stroke-width="1"></path>
  <path fill="#e3e3e3" d="M8.21424 16.8965h-0.99671c-0.12685 0 -0.2485 -0.0504 -0.33819 -0.14 -0.08969 -0.0897 -0.14008 -0.2114 -0.14008 -0.3382V3.02676c0 -0.12684 0.05039 -0.2485 0.14008 -0.33818 0.08969 -0.0897 0.21134 -0.14009 0.33819 -0.14009h9.56537c0.1268 0 0.2485 0.05039 0.3382 0.14009 0.0896 0.08968 0.14 0.21134 0.14 0.33818v2.87726" stroke-width="1"></path>
  <path stroke="#191919" stroke-linecap="round" stroke-linejoin="round" d="M8.21424 16.8965h-0.99671c-0.12685 0 -0.2485 -0.0504 -0.33819 -0.14 -0.08969 -0.0897 -0.14008 -0.2114 -0.14008 -0.3382V3.02676c0 -0.12684 0.05039 -0.2485 0.14008 -0.33818 0.08969 -0.0897 0.21134 -0.14009 0.33819 -0.14009h9.56537c0.1268 0 0.2485 0.05039 0.3382 0.14009 0.0896 0.08968 0.14 0.21134 0.14 0.33818v2.87726" stroke-width="1"></path>
  <path fill="#ffffff" stroke="#191919" stroke-linecap="round" stroke-linejoin="round" d="M13.2418 4.75716 8.11854 17.1309c-0.10105 0.2441 0.01488 0.5238 0.25892 0.6249l8.83774 3.6592c0.2441 0.101 0.5238 -0.0148 0.6249 -0.2589l5.1233 -12.37374c0.1011 -0.24405 -0.0148 -0.52381 -0.2589 -0.62486l-8.8378 -3.65926c-0.244 -0.10105 -0.5238 0.01487 -0.6249 0.25892Z" stroke-width="1"></path>
  <path fill="#ff808c" stroke="#191919" stroke-linecap="round" stroke-linejoin="round" d="m14.3036 14.905 -0.4687 -2.3674c-0.0185 -0.0927 -0.0091 -0.1887 0.0271 -0.2761 0.036 -0.0873 0.0972 -0.162 0.1757 -0.2146l2.0087 -1.3392c0.0654 -0.0436 0.1405 -0.0705 0.2188 -0.0782 0.0782 -0.0077 0.1571 0.004 0.2297 0.0341 0.0727 0.0301 0.1368 0.0776 0.1868 0.1384 0.0498 0.0607 0.0839 0.1328 0.0993 0.2099l0.4697 2.3674c0.0184 0.0928 0.0088 0.189 -0.0275 0.2763 -0.0362 0.0873 -0.0976 0.1619 -0.1762 0.2145l-2.0088 1.3391c-0.0654 0.0436 -0.1405 0.0705 -0.2187 0.0782 -0.0783 0.0077 -0.1572 -0.004 -0.2298 -0.0341 -0.0727 -0.03 -0.1368 -0.0776 -0.1867 -0.1383 -0.0498 -0.0608 -0.084 -0.1329 -0.0994 -0.21Z" stroke-width="1"></path>
  <path stroke="#191919" stroke-linecap="round" stroke-linejoin="round" d="M3.66553 8.19779c0.06342 0 0.12424 0.0252 0.16909 0.07005 0.04485 0.04484 0.07004 0.10567 0.07004 0.16909" stroke-width="1"></path>
  <path stroke="#191919" stroke-linecap="round" stroke-linejoin="round" d="M3.42627 8.43693c0 -0.06342 0.02519 -0.12425 0.07004 -0.16909 0.04485 -0.04485 0.10567 -0.07005 0.16909 -0.07005" stroke-width="1"></path>
  <path stroke="#191919" stroke-linecap="round" stroke-linejoin="round" d="M3.6654 8.67606c-0.06342 0 -0.12424 -0.02519 -0.16909 -0.07004 -0.04485 -0.04485 -0.07004 -0.10566 -0.07004 -0.16909" stroke-width="1"></path>
  <path stroke="#191919" stroke-linecap="round" stroke-linejoin="round" d="M3.90466 8.43693c0 0.06343 -0.02519 0.12424 -0.07004 0.16909 -0.04485 0.04485 -0.10567 0.07004 -0.16909 0.07004" stroke-width="1"></path>
  <path stroke="#191919" stroke-linecap="round" stroke-linejoin="round" d="M8.8916 4.46157c0.06342 0 0.12425 0.02519 0.1691 0.07003 0.04484 0.04486 0.07004 0.10568 0.07004 0.1691" stroke-width="1"></path>
  <path stroke="#191919" stroke-linecap="round" stroke-linejoin="round" d="M8.65234 4.7007c0 -0.06342 0.0252 -0.12424 0.07004 -0.1691 0.04485 -0.04484 0.10568 -0.07003 0.1691 -0.07003" stroke-width="1"></path>
  <path stroke="#191919" stroke-linecap="round" stroke-linejoin="round" d="M8.89148 4.93983c-0.06342 0 -0.12425 -0.02519 -0.1691 -0.07003 -0.04484 -0.04486 -0.07004 -0.10568 -0.07004 -0.1691" stroke-width="1"></path>
  <path stroke="#191919" stroke-linecap="round" stroke-linejoin="round" d="M9.13074 4.7007c0 0.06342 -0.0252 0.12424 -0.07004 0.1691 -0.04485 0.04484 -0.10568 0.07003 -0.1691 0.07003" stroke-width="1"></path>
  <path stroke="#191919" stroke-linecap="round" stroke-linejoin="round" d="M14.5903 6.88829c0.0635 0 0.1243 0.0252 0.1691 0.07004 0.0449 0.04485 0.0701 0.10567 0.0701 0.1691" stroke-width="1"></path>
  <path stroke="#191919" stroke-linecap="round" stroke-linejoin="round" d="M14.3511 7.12743c0 -0.06343 0.0251 -0.12425 0.07 -0.1691 0.0449 -0.04484 0.1057 -0.07004 0.1691 -0.07004" stroke-width="1"></path>
  <path stroke="#191919" stroke-linecap="round" stroke-linejoin="round" d="M14.5902 7.36656c-0.0634 0 -0.1242 -0.02519 -0.1691 -0.07004 -0.0449 -0.04485 -0.07 -0.10567 -0.07 -0.16909" stroke-width="1"></path>
  <path stroke="#191919" stroke-linecap="round" stroke-linejoin="round" d="M14.8295 7.12743c0 0.06342 -0.0252 0.12424 -0.0701 0.16909 -0.0448 0.04485 -0.1056 0.07004 -0.1691 0.07004" stroke-width="1"></path>
  <path stroke="#191919" stroke-linecap="round" stroke-linejoin="round" d="M16.4961 18.5466c0.0634 0 0.1242 0.0251 0.1691 0.07 0.0449 0.0448 0.07 0.1057 0.07 0.1691" stroke-width="1"></path>
  <path stroke="#191919" stroke-linecap="round" stroke-linejoin="round" d="M16.2524 18.7857c0 -0.0634 0.0252 -0.1243 0.0701 -0.1691 0.0448 -0.0449 0.1057 -0.07 0.1691 -0.07" stroke-width="1"></path>
  <path stroke="#191919" stroke-linecap="round" stroke-linejoin="round" d="M16.496 19.0248c-0.0634 0 -0.1243 -0.0251 -0.1691 -0.07 -0.0449 -0.0449 -0.0701 -0.1057 -0.0701 -0.1691" stroke-width="1"></path>
  <path stroke="#191919" stroke-linecap="round" stroke-linejoin="round" d="M16.7303 18.7857c0 0.0634 -0.0251 0.1242 -0.07 0.1691 -0.0448 0.0449 -0.1057 0.07 -0.1691 0.07" stroke-width="1"></path>
</svg>