<svg xmlns="http://www.w3.org/2000/svg" fill="none" viewBox="0 0 24 24" id="Concert-Rock-1--Streamline-Ultimate">
  <desc>
    Concert Rock 1 Streamline Icon: https://streamlinehq.com
  </desc>
  <path fill="#ffdda1" d="M18.6825 3.86957c-0.3805 0 -0.7455 0.15116 -1.0146 0.42023 -0.2691 0.26907 -0.4202 0.63402 -0.4202 1.01455v3.34782c0 -0.25368 -0.1008 -0.49698 -0.2802 -0.67636 -0.1793 -0.17938 -0.4227 -0.28016 -0.6763 -0.28016h-0.9566c-0.2536 0 -0.497 0.10078 -0.6763 0.28016 -0.1794 0.17938 -0.2802 0.42268 -0.2802 0.67636 0 -0.25368 -0.1008 -0.49698 -0.2801 -0.67636 -0.1794 -0.17938 -0.4227 -0.28016 -0.6764 -0.28016h-0.9565c-0.2537 0 -0.497 0.10078 -0.6764 0.28016 -0.1793 0.17938 -0.2801 0.42268 -0.2801 0.67636V2.43478c0 -0.38052 -0.1512 -0.74547 -0.4202 -1.01454C10.8193 1.15116 10.4543 1 10.0738 1c-0.38055 0 -0.7455 0.15116 -1.01457 0.42024 -0.26907 0.26907 -0.42023 0.63402 -0.42023 1.01454V12L5.76943 9.03478c-0.21269 -0.17888 -0.48306 -0.27451 -0.76092 -0.26915 -0.27786 0.00536 -0.54435 0.11135 -0.74998 0.29829 -0.20564 0.18694 -0.33647 0.44215 -0.36821 0.71824 -0.03173 0.27614 0.03778 0.55434 0.19563 0.78304 0 0 2.37313 3.7965 4.01739 6.3886 0.29929 0.4663 0.67807 0.8766 1.11913 1.2119 0.11644 0.0895 0.21075 0.2044 0.2756 0.3362 0.06485 0.1317 0.09853 0.2765 0.0984 0.4233v0.2487h8.60873v-0.5031c0.0001 -0.1351 0.0288 -0.2685 0.0841 -0.3917 0.0554 -0.1231 0.1363 -0.2332 0.2373 -0.3228 0.5031 -0.4472 0.9052 -0.9964 1.1794 -1.6111 0.2744 -0.6147 0.4145 -1.2808 0.4113 -1.9539V5.30435c0 -0.38053 -0.1512 -0.74548 -0.4202 -1.01455 -0.2691 -0.26907 -0.6341 -0.42023 -1.0146 -0.42023Z" stroke-width="1"></path>
  <path stroke="#191919" stroke-linecap="round" stroke-linejoin="round" d="M12.4648 7.69565c-0.2536 0 -0.497 0.10078 -0.6763 0.28016 -0.1794 0.17938 -0.2802 0.42268 -0.2802 0.67636V12c0 0.3805 0.1511 0.7455 0.4202 1.0146 0.2691 0.2691 0.6341 0.4202 1.0146 0.4202 0.3805 0 0.7455 -0.1511 1.0146 -0.4202 0.269 -0.2691 0.4202 -0.6341 0.4202 -1.0146V8.65217c0 -0.25368 -0.1009 -0.49698 -0.2802 -0.67636 -0.1793 -0.17938 -0.4227 -0.28016 -0.6764 -0.28016h-0.9565Z" stroke-width="1"></path>
  <path stroke="#191919" stroke-linecap="round" stroke-linejoin="round" d="M15.334 7.69565c-0.2537 0 -0.497 0.10078 -0.6764 0.28016 -0.1793 0.17938 -0.2802 0.42268 -0.2802 0.67636V12c0 0.3805 0.1512 0.7455 0.4202 1.0146 0.2691 0.2691 0.6341 0.4202 1.0146 0.4202 0.3805 0 0.7455 -0.1511 1.0146 -0.4202 0.2691 -0.2691 0.4202 -0.6341 0.4202 -1.0146V8.65217c0 -0.25368 -0.1008 -0.49698 -0.2802 -0.67636 -0.1793 -0.17938 -0.4226 -0.28016 -0.6763 -0.28016h-0.9565Z" stroke-width="1"></path>
  <path stroke="#191919" stroke-linecap="round" stroke-linejoin="round" d="M18.2036 19.1739v-0.5031c0.0001 -0.1351 0.0288 -0.2685 0.0842 -0.3917 0.0553 -0.1231 0.1362 -0.2332 0.2372 -0.3228 0.5033 -0.4471 0.9055 -0.9963 1.18 -1.611 0.2745 -0.6147 0.4148 -1.2808 0.4116 -1.954V5.30435c0 -0.38052 -0.1511 -0.74548 -0.4202 -1.01455 -0.269 -0.26907 -0.634 -0.42023 -1.0145 -0.42023 -0.3806 0 -0.7456 0.15116 -1.0146 0.42023 -0.2691 0.26907 -0.4202 0.63403 -0.4202 1.01455V9.6087" stroke-width="1"></path>
  <path stroke="#191919" stroke-linecap="round" stroke-linejoin="round" d="M11.5086 8.65217V2.43478c0 -0.38052 -0.1512 -0.74547 -0.4202 -1.01454C10.8193 1.15116 10.4543 1 10.0738 1c-0.38055 0 -0.7455 0.15116 -1.01457 0.42024 -0.26907 0.26907 -0.42023 0.63402 -0.42023 1.01454V12L5.76943 9.03478c-0.21269 -0.17888 -0.48306 -0.27451 -0.76092 -0.26915 -0.27786 0.00536 -0.54435 0.11135 -0.74998 0.29829 -0.20564 0.18694 -0.33647 0.44215 -0.36821 0.71824 -0.03173 0.27614 0.03778 0.55434 0.19563 0.78304 0 0 2.37313 3.7965 4.01739 6.3886 0.29905 0.4662 0.67788 0.8762 1.11913 1.211 0.11658 0.0895 0.21095 0.2047 0.27581 0.3365 0.06486 0.1319 0.09846 0.277 0.09819 0.4239v0.2487" stroke-width="1"></path>
  <path fill="#808080" d="M18.2039 19.1739H9.59519c-0.52827 0 -0.95652 0.4282 -0.95652 0.9565v1.9131c0 0.5283 0.42825 0.9565 0.95652 0.9565h8.60871c0.5283 0 0.9565 -0.4282 0.9565 -0.9565v-1.9131c0 -0.5283 -0.4282 -0.9565 -0.9565 -0.9565Z" stroke-width="1"></path>
  <path fill="#b2b2b2" d="M13.9091 19.1739H9.59519c-0.25369 0 -0.49698 0.1008 -0.67636 0.2802 -0.17939 0.1793 -0.28016 0.4227 -0.28016 0.6763v1.9131c0 0.2536 0.10077 0.497 0.28016 0.6763 0.17938 0.1794 0.42267 0.2802 0.67636 0.2802h4.31391v-3.8261Z" stroke-width="1"></path>
  <path stroke="#191919" stroke-linecap="round" stroke-linejoin="round" d="M18.2039 19.1739H9.59519c-0.52827 0 -0.95652 0.4282 -0.95652 0.9565v1.9131c0 0.5283 0.42825 0.9565 0.95652 0.9565h8.60871c0.5283 0 0.9565 -0.4282 0.9565 -0.9565v-1.9131c0 -0.5283 -0.4282 -0.9565 -0.9565 -0.9565Z" stroke-width="1"></path>
  <path stroke="#191919" stroke-linecap="round" stroke-linejoin="round" d="M10.7905 20.8478c0.0634 0 0.1243 0.0252 0.1691 0.07 0.0449 0.0449 0.0701 0.1057 0.0701 0.1692" stroke-width="1"></path>
  <path stroke="#191919" stroke-linecap="round" stroke-linejoin="round" d="M10.5518 21.087c0 -0.0635 0.0251 -0.1243 0.07 -0.1692 0.0448 -0.0448 0.1057 -0.07 0.1691 -0.07" stroke-width="1"></path>
  <path stroke="#191919" stroke-linecap="round" stroke-linejoin="round" d="M10.7909 21.3261c-0.0634 0 -0.1243 -0.0252 -0.1691 -0.07 -0.0449 -0.0449 -0.07 -0.1057 -0.07 -0.1691" stroke-width="1"></path>
  <path stroke="#191919" stroke-linecap="round" stroke-linejoin="round" d="M11.0297 21.087c0 0.0634 -0.0252 0.1242 -0.0701 0.1691 -0.0448 0.0448 -0.1057 0.07 -0.1691 0.07" stroke-width="1"></path>
  <path stroke="#191919" stroke-linecap="round" stroke-linejoin="round" d="M13.8994 20.8478c0.0634 0 0.1243 0.0252 0.1691 0.07 0.0449 0.0449 0.07 0.1057 0.07 0.1692" stroke-width="1"></path>
  <path stroke="#191919" stroke-linecap="round" stroke-linejoin="round" d="M13.6602 21.087c0 -0.0635 0.0251 -0.1243 0.07 -0.1692 0.0448 -0.0448 0.1057 -0.07 0.1691 -0.07" stroke-width="1"></path>
  <path stroke="#191919" stroke-linecap="round" stroke-linejoin="round" d="M13.8993 21.3261c-0.0634 0 -0.1243 -0.0252 -0.1691 -0.07 -0.0449 -0.0449 -0.07 -0.1057 -0.07 -0.1691" stroke-width="1"></path>
  <path stroke="#191919" stroke-linecap="round" stroke-linejoin="round" d="M14.1385 21.087c0 0.0634 -0.0251 0.1242 -0.07 0.1691 -0.0448 0.0448 -0.1057 0.07 -0.1691 0.07" stroke-width="1"></path>
  <path stroke="#191919" stroke-linecap="round" stroke-linejoin="round" d="M17.0083 20.8478c0.0634 0 0.1243 0.0252 0.1691 0.07 0.0449 0.0449 0.07 0.1057 0.07 0.1692" stroke-width="1"></path>
  <path stroke="#191919" stroke-linecap="round" stroke-linejoin="round" d="M16.769 21.087c0 -0.0635 0.0252 -0.1243 0.0701 -0.1692 0.0448 -0.0448 0.1057 -0.07 0.1691 -0.07" stroke-width="1"></path>
  <path stroke="#191919" stroke-linecap="round" stroke-linejoin="round" d="M17.0082 21.3261c-0.0634 0 -0.1243 -0.0252 -0.1691 -0.07 -0.0449 -0.0449 -0.0701 -0.1057 -0.0701 -0.1691" stroke-width="1"></path>
  <path stroke="#191919" stroke-linecap="round" stroke-linejoin="round" d="M17.2474 21.087c0 0.0634 -0.0251 0.1242 -0.07 0.1691 -0.0448 0.0448 -0.1057 0.07 -0.1691 0.07" stroke-width="1"></path>
</svg>