<svg xmlns="http://www.w3.org/2000/svg" fill="none" viewBox="0 0 24 24" id="Show-Theater-Masks--Streamline-Ultimate">
  <desc>
    Show Theater Masks Streamline Icon: https://streamlinehq.com
  </desc>
  <path fill="#ffdda1" d="M17.2608 8.40928V1.95661c0.001 -0.15673 -0.0368 -0.31126 -0.11 -0.44985 -0.0732 -0.13859 -0.1795 -0.25693 -0.3095 -0.34451 -0.13 -0.08757 -0.2796 -0.14165 -0.4356 -0.15742 -0.1559 -0.015777 -0.3133 0.00724 -0.4582 0.067 -3.2866 1.33147 -10.34761 1.33243 -13.6342 0 -0.14495 -0.05827 -0.30197 -0.080152 -0.45733 -0.06373 -0.15536 0.01642 -0.30433 0.07065 -0.4339 0.15793 -0.12956 0.08729 -0.23577 0.20499 -0.30935 0.3428 -0.07358 0.13782 -0.11228 0.29156 -0.11272 0.44778v6.45267c0 5.26082 6.21736 9.56512 8.1304 9.56512 1.913 0 8.1304 -4.3062 8.1304 -9.56512Z" stroke-width="1"></path>
  <path fill="#ffbc44" d="M17.2606 5.2805c-3.9045 0.25922 -8.26721 -0.1253 -10.80868 -1.15451 -0.17851 -0.07286 -0.37222 -0.10064 -0.56402 -0.08091 -0.19179 0.01973 -0.37579 0.08637 -0.53573 0.19404 -0.15995 0.10767 -0.29093 0.25306 -0.38139 0.42333 -0.09045 0.17028 -0.1376 0.3602 -0.13728 0.55301v7.96684c0.01043 0.968 0.17843 1.9278 0.49739 2.8418 1.06229 0.9881 2.3772 1.6631 3.79928 1.9503 1.91303 0 8.13043 -4.3043 8.13043 -9.56513V5.2805Z" stroke-width="1"></path>
  <path fill="#ffef5e" d="M23.0001 13.4348V6.98024c0.0006 -0.15657 -0.0374 -0.31087 -0.1108 -0.4492 -0.0733 -0.13834 -0.1796 -0.25642 -0.3096 -0.34377 -0.1299 -0.08735 -0.2794 -0.14126 -0.4352 -0.15695 -0.1558 -0.01568 -0.313 0.00735 -0.4577 0.06705 -3.2866 1.33147 -10.3477 1.33243 -13.63424 0 -0.14488 -0.05824 -0.30181 -0.08013 -0.45709 -0.06376 -0.15529 0.01638 -0.3042 0.07052 -0.43374 0.15769 -0.12955 0.08718 -0.23578 0.20475 -0.30942 0.34244 -0.07364 0.13769 -0.11245 0.29131 -0.11305 0.44745v6.45361C6.73926 18.6957 12.9566 23 14.8697 23c1.913 0 8.1304 -4.3043 8.1304 -9.5652Z" stroke-width="1"></path>
  <path fill="#fff9bf" d="M14.8697 7.09695c-2.3132 0.06651 -4.6202 -0.27143 -6.81714 -0.9986 -0.1448 -0.05822 -0.30165 -0.08012 -0.45686 -0.06379 -0.15521 0.01633 -0.30406 0.07038 -0.43358 0.15745 -0.12952 0.08707 -0.23577 0.20451 -0.30947 0.34207 -0.07371 0.13756 -0.11264 0.29107 -0.11339 0.44713v6.45359C6.73926 18.6957 12.9566 23 14.8697 23V7.09695Z" stroke-width="1"></path>
  <path stroke="#191919" stroke-linecap="round" stroke-linejoin="round" d="M23.0001 13.4348V6.98024c0.0006 -0.15657 -0.0374 -0.31087 -0.1108 -0.4492 -0.0733 -0.13834 -0.1796 -0.25642 -0.3096 -0.34377 -0.1299 -0.08735 -0.2794 -0.14126 -0.4352 -0.15695 -0.1558 -0.01568 -0.313 0.00735 -0.4577 0.06705 -3.2866 1.33147 -10.3477 1.33243 -13.63424 0 -0.14488 -0.05824 -0.30181 -0.08013 -0.45709 -0.06376 -0.15529 0.01638 -0.3042 0.07052 -0.43374 0.15769 -0.12955 0.08718 -0.23578 0.20475 -0.30942 0.34244 -0.07364 0.13769 -0.11245 0.29131 -0.11305 0.44745v6.45361C6.73926 18.6957 12.9566 23 14.8697 23c1.913 0 8.1304 -4.3043 8.1304 -9.5652Z" stroke-width="1"></path>
  <path stroke="#191919" stroke-linecap="round" stroke-linejoin="round" d="M17.2608 5.08729V1.95661c0.001 -0.15673 -0.0368 -0.31126 -0.11 -0.44985 -0.0732 -0.13859 -0.1795 -0.25693 -0.3095 -0.34451 -0.13 -0.08757 -0.2796 -0.14165 -0.4356 -0.15742 -0.1559 -0.015777 -0.3133 0.00724 -0.4582 0.067 -3.2866 1.33147 -10.34761 1.33243 -13.6342 0 -0.14495 -0.05827 -0.30197 -0.080152 -0.45733 -0.06373 -0.15536 0.01642 -0.30433 0.07065 -0.4339 0.15793 -0.12956 0.08729 -0.23577 0.20499 -0.30935 0.3428 -0.07358 0.13782 -0.11228 0.29156 -0.11272 0.44778v6.45267C1 11.4405 3.06608 14.156 5.18285 15.9122" stroke-width="1"></path>
  <path stroke="#191919" stroke-linecap="round" stroke-linejoin="round" d="M17.7391 16.3044c0 0.761 -0.3023 1.4909 -0.8405 2.029 -0.5381 0.5382 -1.268 0.8405 -2.029 0.8405 -0.7611 0 -1.491 -0.3023 -2.0291 -0.8405 -0.5382 -0.5381 -0.8405 -1.268 -0.8405 -2.029" stroke-width="1"></path>
  <path stroke="#191919" stroke-linecap="round" stroke-linejoin="round" d="M16.7827 12c0 -0.3805 0.1512 -0.7454 0.4203 -1.0145 0.269 -0.2691 0.634 -0.4202 1.0145 -0.4202 0.3805 0 0.7455 0.1511 1.0145 0.4202 0.2691 0.2691 0.4203 0.634 0.4203 1.0145" stroke-width="1"></path>
  <path stroke="#191919" stroke-linecap="round" stroke-linejoin="round" d="M10.0869 12c0 -0.1884 0.0371 -0.375 0.1092 -0.549 0.0721 -0.1741 0.1778 -0.3323 0.311 -0.4655 0.1333 -0.1332 0.2915 -0.2389 0.4655 -0.311 0.1741 -0.0721 0.3607 -0.1092 0.5491 -0.1092s0.375 0.0371 0.5491 0.1092c0.174 0.0721 0.3322 0.1778 0.4654 0.311 0.1333 0.1332 0.2389 0.2914 0.3111 0.4655 0.0721 0.174 0.1092 0.3606 0.1092 0.549" stroke-width="1"></path>
</svg>