<svg xmlns="http://www.w3.org/2000/svg" fill="none" viewBox="0 0 48 48" id="Cable-Split--Streamline-Plump">
  <desc>
    Cable Split Streamline Icon: https://streamlinehq.com
  </desc>
  <g id="cable-split--cables-cable-split-device-electronics-cords-cord-splitter-connection">
    <path id="Ellipse 22" fill="#7af1ff" d="M24 0.5C11.0213 0.499999 0.500001 11.0213 0.5 24 0.499999 36.9787 11.0213 47.5 24 47.5S47.5 36.9787 47.5 24 36.9787 0.500001 24 0.5Z" stroke-width="1"></path>
    <path id="Rectangle 1100" fill="#7af1ff" d="M42.3387 10.3747c0.8585 -0.9443 0.8914 -2.31359 0.0426 -3.26665 -0.4625 -0.51935 -1.0609 -1.15969 -1.82 -1.91877 -0.7591 -0.75908 -1.3994 -1.35751 -1.9188 -1.82005 -0.9531 -0.84878 -2.3223 -0.81587 -3.2667 0.04261 -0.6593 0.59937 -1.5223 1.41417 -2.5927 2.48454 -1.0704 1.07038 -1.8852 1.9334 -2.4845 2.59272 -0.8585 0.94434 -0.8914 2.3136 -0.0426 3.2667 0.4625 0.5193 1.0609 1.1597 1.82 1.9188 0.7591 0.759 1.3994 1.3575 1.9188 1.82 0.953 0.8488 2.3223 0.8159 3.2667 -0.0426 0.6593 -0.5994 1.5223 -1.4142 2.5927 -2.4845 1.0703 -1.0704 1.8851 -1.9334 2.4845 -2.5928Z" stroke-width="1"></path>
    <path id="Rectangle 1101" fill="#7af1ff" d="M19.0143 43.0701c0.0449 1.2368 1.0355 2.1059 2.2724 2.1429 0.7051 0.0212 1.6037 0.037 2.7133 0.037s2.0082 -0.0158 2.7133 -0.037c1.2369 -0.037 2.2275 -0.9061 2.2724 -2.1429 0.009 -0.2485 0.0143 -0.5216 0.0143 -0.8201 0 -0.2985 -0.0053 -0.5716 -0.0143 -0.8201 -0.0449 -1.2368 -1.0355 -2.1059 -2.2724 -2.1429 -0.7051 -0.0212 -1.6037 -0.037 -2.7133 -0.037s-2.0082 0.0158 -2.7133 0.037c-1.2369 0.037 -2.2275 0.9061 -2.2724 2.1429 -0.009 0.2485 -0.0143 0.5216 -0.0143 0.8201 0 0.2985 0.0053 0.5716 0.0143 0.8201Z" stroke-width="1"></path>
    <path id="Rectangle 1102" fill="#7af1ff" d="M19.0143 37.0701c0.0449 1.2368 1.0355 2.1059 2.2724 2.1429 0.7051 0.0212 1.6037 0.037 2.7133 0.037s2.0082 -0.0158 2.7133 -0.037c1.2369 -0.037 2.2275 -0.9061 2.2724 -2.1429 0.009 -0.2485 0.0143 -0.5216 0.0143 -0.8201 0 -0.2985 -0.0053 -0.5716 -0.0143 -0.8201 -0.0449 -1.2368 -1.0355 -2.1059 -2.2724 -2.1429 -0.7051 -0.0212 -1.6037 -0.037 -2.7133 -0.037s-2.0082 0.0158 -2.7133 0.037c-1.2369 0.037 -2.2275 0.9061 -2.2724 2.1429 -0.009 0.2485 -0.0143 0.5216 -0.0143 0.8201 0 0.2985 0.0053 0.5716 0.0143 0.8201Z" stroke-width="1"></path>
    <path id="Rectangle 1095" fill="#7af1ff" d="M16.8832 7.58235c-0.9063 -0.84274 -2.2213 -0.75691 -3.1222 0.09157 -0.5134 0.48361 -1.16 1.10779 -1.9447 1.89243 -0.7846 0.78465 -1.4088 1.43125 -1.89238 1.94465 -0.84848 0.9009 -0.93431 2.2159 -0.09157 3.1222 0.16935 0.1821 0.35875 0.3789 0.56975 0.59 0.2111 0.2111 0.408 0.4004 0.5901 0.5698 0.9062 0.8427 2.2212 0.7569 3.1221 -0.0916 0.5135 -0.4836 1.1601 -1.1078 1.9447 -1.8924 0.7846 -0.7846 1.4088 -1.4312 1.8924 -1.9447 0.8485 -0.9009 0.9343 -2.21586 0.0916 -3.12212 -0.1694 -0.18213 -0.3587 -0.37896 -0.5698 -0.59004 -0.2111 -0.21109 -0.4079 -0.40042 -0.59 -0.56979Z" stroke-width="1"></path>
    <path id="Rectangle 1096" fill="#7af1ff" d="M12.641 3.34017c-0.9063 -0.84275 -2.2213 -0.75692 -3.12215 0.09156 -0.51348 0.48361 -1.16005 1.1078 -1.94469 1.89243 -0.78463 0.78464 -1.40882 1.43121 -1.89243 1.94469 -0.84848 0.90089 -0.93431 2.21586 -0.09156 3.12215 0.16936 0.1821 0.35869 0.3789 0.56978 0.59 0.21108 0.2111 0.40792 0.4004 0.59005 0.5698 0.90625 0.8427 2.22123 0.7569 3.12211 -0.0916 0.51349 -0.4836 1.16009 -1.1078 1.94469 -1.8924 0.7846 -0.78463 1.4088 -1.43121 1.8924 -1.94469 0.8485 -0.90088 0.9343 -2.21586 0.0916 -3.12211 -0.1694 -0.18214 -0.3587 -0.37897 -0.5698 -0.59005 -0.2111 -0.21109 -0.4079 -0.40042 -0.59 -0.56978Z" stroke-width="1"></path>
    <path id="Union" fill="#0c098c" fill-rule="evenodd" d="M37.0386 4.75014c-0.0824 0.00135 -0.1969 0.03216 -0.3174 0.14169 -0.6345 0.57688 -1.4746 1.36968 -2.5238 2.41886 -1.0492 1.04918 -1.842 1.88926 -2.4189 2.52384 -0.1095 0.12048 -0.1403 0.23497 -0.1416 0.31727 -0.0013 0.0787 0.0225 0.1727 0.1127 0.2739 0.4358 0.4893 1.0076 1.1017 1.7407 1.8347 0.7331 0.7331 1.3454 1.305 1.8347 1.7407 0.1013 0.0902 0.1953 0.1141 0.2739 0.1128 0.0824 -0.0014 0.1968 -0.0322 0.3173 -0.1417 0.6346 -0.5769 1.4747 -1.3697 2.5239 -2.4189 1.0491 -1.0491 1.8419 -1.88922 2.4188 -2.5238 0.1095 -0.12048 0.1404 -0.23495 0.1417 -0.31732 0.0013 -0.07862 -0.0225 -0.17261 -0.1127 -0.27389 -0.4358 -0.48928 -1.0077 -1.10162 -1.7407 -1.8347 -0.7331 -0.73308 -1.3455 -1.30496 -1.8347 -1.7407 -0.1013 -0.0902 -0.1953 -0.11403 -0.2739 -0.11275Zm-3.008 -2.81809c1.6715 -1.519552 4.1953 -1.612024 5.9421 -0.05628 0.5495 0.48932 1.2178 1.11431 2.0029 1.89939 0.7851 0.78508 1.4101 1.45341 1.8994 2.00284 1.5557 1.74687 1.4632 4.2706 -0.0563 5.9422 -0.6219 0.684 -1.4586 1.57 -2.5502 2.6616 -1.0916 1.0915 -1.9776 1.9283 -2.6616 2.5502 -1.6715 1.5195 -4.1953 1.612 -5.9422 0.0563 -0.5494 -0.4894 -1.2177 -1.1144 -2.0028 -1.8994 -0.7851 -0.7851 -1.4101 -1.4534 -1.8994 -2.0029 -1.5558 -1.7468 -1.4633 -4.27061 0.0563 -5.94214 0.6218 -0.68406 1.4586 -1.57002 2.5502 -2.66159 1.0916 -1.09158 1.9775 -1.92837 2.6616 -2.55022ZM16.5 22c0 -4.1421 3.3579 -7.5 7.5 -7.5s7.5 3.3579 7.5 7.5 -3.3579 7.5 -7.5 7.5 -7.5 -3.3579 -7.5 -7.5ZM14.0038 1.87639C12.2298 0.22678 9.7163 0.499981 8.14845 1.97663c-0.52871 0.49795 -1.18961 1.13608 -1.98768 1.93414 -0.79806 0.79807 -1.43619 1.45897 -1.93414 1.98767 -1.47665 1.56786 -1.74985 4.08139 -0.10024 5.85536 0.18619 0.2002 0.39233 0.4144 0.62017 0.6423 0.22784 0.2278 0.44208 0.4339 0.6423 0.6201 0.58812 0.5469 1.25754 0.8825 1.94684 1.0329 0.15042 0.6893 0.48597 1.3587 1.03288 1.9468 0.18618 0.2003 0.39233 0.4145 0.62017 0.6423 0.22783 0.2279 0.44208 0.434 0.6423 0.6202 1.77395 1.6496 4.28745 1.3764 5.85535 -0.1002 0.5287 -0.498 1.1896 -1.1361 1.9876 -1.9342 0.7981 -0.798 1.4362 -1.4589 1.9342 -1.9876 1.4766 -1.5679 1.7498 -4.08143 0.1002 -5.85535 -0.1862 -0.20023 -0.3923 -0.41447 -0.6202 -0.6423 -0.2278 -0.22784 -0.442 -0.43398 -0.6423 -0.62017 -0.5881 -0.54691 -1.2575 -0.88246 -1.9468 -1.03288 -0.1504 -0.6893 -0.486 -1.35872 -1.0329 -1.94684 -0.1862 -0.20022 -0.3923 -0.41447 -0.6201 -0.6423 -0.2279 -0.22784 -0.4421 -0.43398 -0.6423 -0.62017Zm-0.9643 9.29731c0.0632 -0.0629 0.1273 -0.1268 0.1923 -0.1919 0.0651 -0.065 0.129 -0.1291 0.1919 -0.1923 0.6847 -0.6813 1.2532 -1.22918 1.7094 -1.65883 0.1213 -0.11421 0.2239 -0.13576 0.2677 -0.13751 0.0224 -0.0009 0.038 0.0024 0.0505 0.00697 0.0113 0.00416 0.0356 0.01499 0.0707 0.04765 0.1641 0.15255 0.3435 0.32506 0.5378 0.51939 0.1943 0.19434 0.3669 0.37376 0.5194 0.53783 0.0327 0.0351 0.0435 0.0594 0.0477 0.0707 0.0045 0.0124 0.0078 0.0281 0.0069 0.0505 -0.0017 0.0437 -0.0233 0.1464 -0.1375 0.2677 -0.4692 0.4982 -1.0795 1.1305 -1.8507 1.9017 -0.7712 0.7712 -1.4035 1.3815 -1.9017 1.8507 -0.1213 0.1142 -0.224 0.1358 -0.2677 0.1375 -0.0224 0.0009 -0.0381 -0.0024 -0.0505 -0.0069 -0.0113 -0.0042 -0.0356 -0.015 -0.0707 -0.0477 -0.1641 -0.1525 -0.3435 -0.3251 -0.5378 -0.5194 -0.1944 -0.1943 -0.3669 -0.3737 -0.5194 -0.5378 -0.0327 -0.0351 -0.0435 -0.0594 -0.0477 -0.0707 -0.0045 -0.0125 -0.0078 -0.0281 -0.0069 -0.0505 0.0017 -0.0438 0.0233 -0.1464 0.1375 -0.2677 0.4296 -0.4562 0.9775 -1.0247 1.6588 -1.7094Zm-2.4442 -3.21267c0.6814 -0.68464 1.2292 -1.25314 1.6588 -1.70932 0.1142 -0.12127 0.1358 -0.22395 0.1375 -0.26772 0.0009 -0.02237 -0.0024 -0.03804 -0.0069 -0.05048 -0.0042 -0.01134 -0.015 -0.0356 -0.0477 -0.07073 -0.1525 -0.16404 -0.325 -0.34346 -0.5194 -0.53779 -0.1943 -0.19434 -0.3737 -0.36685 -0.5378 -0.5194 -0.0351 -0.03266 -0.0594 -0.04349 -0.0707 -0.04765 -0.0124 -0.00457 -0.0281 -0.00786 -0.0505 -0.00697 -0.0437 0.00175 -0.1464 0.0233 -0.2677 0.13752 -0.4982 0.46926 -1.13049 1.0795 -1.9017 1.85071 -0.77121 0.77121 -1.38145 1.40345 -1.85071 1.90171 -0.11422 0.12126 -0.13577 0.22395 -0.13752 0.26771 -0.00089 0.02237 0.0024 0.03804 0.00697 0.05048 0.00416 0.01134 0.01499 0.0356 0.04765 0.07073 0.15255 0.16404 0.32506 0.34346 0.5194 0.5378 0.19433 0.19433 0.37375 0.36684 0.5378 0.51937 0.03512 0.0327 0.05939 0.0435 0.07072 0.0477 0.01245 0.0045 0.02811 0.0078 0.05049 0.0069 0.04376 -0.0017 0.14644 -0.0233 0.26771 -0.1375 0.45618 -0.42961 1.02468 -0.97742 1.70929 -1.65875 0.0629 -0.06322 0.1269 -0.12735 0.192 -0.19239 0.065 -0.06504 0.1291 -0.12901 0.1923 -0.19193ZM21.2269 31.2878c0.7259 -0.0217 1.6445 -0.0378 2.7731 -0.0378 1.1286 0 2.0472 0.0161 2.7731 0.0378 2.1528 0.0645 4.1233 1.6487 4.2113 4.0695 0.0099 0.2732 0.0156 0.5705 0.0156 0.8927 0 0.3222 -0.0057 0.6195 -0.0156 0.8927 -0.0292 0.8027 -0.2654 1.5135 -0.6465 2.1073 0.3811 0.5938 0.6173 1.3046 0.6465 2.1073 0.0099 0.2732 0.0156 0.5705 0.0156 0.8927 0 0.3222 -0.0057 0.6195 -0.0156 0.8927 -0.088 2.4208 -2.0585 4.005 -4.2113 4.0695 -0.7259 0.0217 -1.6445 0.0378 -2.7731 0.0378 -1.1286 0 -2.0472 -0.0161 -2.7731 -0.0378 -2.1528 -0.0645 -4.1233 -1.6487 -4.2113 -4.0695 -0.0099 -0.2732 -0.0156 -0.5705 -0.0156 -0.8927 0 -0.3222 0.0057 -0.6195 0.0156 -0.8927 0.0292 -0.8027 0.2653 -1.5135 0.6465 -2.1073 -0.3812 -0.5938 -0.6173 -1.3046 -0.6465 -2.1073 -0.0099 -0.2732 -0.0156 -0.5705 -0.0156 -0.8927 0 -0.3222 0.0057 -0.6195 0.0156 -0.8927 0.088 -2.4208 2.0585 -4.005 4.2113 -4.0695Zm0.1197 9.9983c0.6842 -0.0205 1.5627 -0.0361 2.6534 -0.0361s1.9692 0.0156 2.6534 0.0361c0.1665 0.0049 0.2543 0.0623 0.2865 0.092 0.0165 0.0152 0.0252 0.0286 0.0308 0.0406 0.005 0.011 0.0145 0.0358 0.0163 0.0838 0.0081 0.2238 0.013 0.4727 0.013 0.7475 0 0.2748 -0.0049 0.5237 -0.013 0.7476 -0.0018 0.0479 -0.0113 0.0727 -0.0163 0.0837 -0.0056 0.012 -0.0143 0.0254 -0.0308 0.0406 -0.0322 0.0297 -0.12 0.0871 -0.2865 0.092 -0.6842 0.0205 -1.5627 0.0361 -2.6534 0.0361s-1.9692 -0.0156 -2.6534 -0.0361c-0.1665 -0.0049 -0.2543 -0.0623 -0.2865 -0.092 -0.0165 -0.0152 -0.0252 -0.0286 -0.0308 -0.0406 -0.005 -0.011 -0.0145 -0.0358 -0.0163 -0.0838 -0.0081 -0.2238 -0.013 -0.4727 -0.013 -0.7475 0 -0.2748 0.0049 -0.5237 0.013 -0.7475 0.0018 -0.048 0.0113 -0.0728 0.0163 -0.0838 0.0056 -0.012 0.0143 -0.0254 0.0308 -0.0406 0.0322 -0.0297 0.12 -0.0871 0.2865 -0.092Zm5.3068 -4.0722c-0.6842 0.0205 -1.5627 0.0361 -2.6534 0.0361s-1.9692 -0.0156 -2.6534 -0.0361c-0.1665 -0.0049 -0.2543 -0.0623 -0.2865 -0.092 -0.0165 -0.0152 -0.0252 -0.0286 -0.0308 -0.0406 -0.005 -0.011 -0.0145 -0.0358 -0.0163 -0.0838 -0.0081 -0.2238 -0.013 -0.4727 -0.013 -0.7475 0 -0.2748 0.0049 -0.5237 0.013 -0.7475 0.0018 -0.048 0.0113 -0.0728 0.0163 -0.0838 0.0056 -0.012 0.0143 -0.0254 0.0308 -0.0406 0.0322 -0.0297 0.12 -0.0871 0.2865 -0.092 0.6842 -0.0205 1.5627 -0.0361 2.6534 -0.0361s1.9692 0.0156 2.6534 0.0361c0.1665 0.0049 0.2543 0.0623 0.2865 0.092 0.0165 0.0152 0.0252 0.0286 0.0308 0.0406 0.005 0.011 0.0145 0.0358 0.0163 0.0838 0.0081 0.2238 0.013 0.4727 0.013 0.7475 0 0.2748 -0.0049 0.5237 -0.013 0.7475 -0.0018 0.048 -0.0113 0.0728 -0.0163 0.0838 -0.0056 0.012 -0.0143 0.0254 -0.0308 0.0406 -0.0322 0.0297 -0.12 0.0871 -0.2865 0.092Z" clip-rule="evenodd" stroke-width="1"></path>
  </g>
</svg>