<svg xmlns="http://www.w3.org/2000/svg" fill="none" viewBox="0 0 48 48" id="Change-Background-Transparent--Streamline-Plump">
  <desc>
    Change Background Transparent Streamline Icon: https://streamlinehq.com
  </desc>
  <g id="change-background-transparent">
    <path id="Union" fill="#7af1ff" d="M28.5679 30.9108c3.4532 -1.7418 5.8216 -5.3204 5.8216 -9.452 0 -5.8431 -4.7368 -10.5799 -10.5799 -10.5799 -5.8431 0 -10.5799 4.7368 -10.5799 10.5799 0 4.1316 2.3684 7.7102 5.8216 9.452 -4.8249 1.6696 -8.4812 5.807 -9.42818 10.8856 -0.30599 1.641 0.64948 2.9828 2.30488 3.197 2.0156 0.2608 5.5887 0.5105 11.8816 0.5105 6.293 0 9.866 -0.2497 11.8816 -0.5105 1.6554 -0.2142 2.6109 -1.556 2.3049 -3.1969 -0.947 -5.0787 -4.6033 -9.2161 -9.4282 -10.8857Z" stroke-width="1"></path>
    <path id="Union_2" fill="#0c098c" fill-rule="evenodd" d="M7.82389 1.08579c0.78105 0.78104 0.78105 2.04737 0 2.82842L3.91421 7.82389c-0.78105 0.78105 -2.04738 0.78105 -2.82842 0 -0.781052 -0.78104 -0.781052 -2.04737 0 -2.82842l3.90968 -3.90968c0.78105 -0.781052 2.04738 -0.781052 2.82842 0Zm9.77191 -0.00001c0.7811 0.78105 0.7811 2.04738 0 2.82843L3.91422 17.5959c-0.78105 0.7811 -2.04738 0.7811 -2.82843 0 -0.78105 -0.781 -0.781055 -2.0473 -0.00001 -2.8284L14.7674 1.08579c0.781 -0.78105 2.0474 -0.781055 2.8284 -0.00001ZM8.80131 22.4806c0.78105 -0.781 0.78105 -2.0474 0 -2.8284 -0.78104 -0.7811 -2.04737 -0.7811 -2.82842 0l-4.8871 4.8871c-0.781052 0.781 -0.781052 2.0474 0 2.8284 0.78104 0.7811 2.04737 0.7811 2.82842 0l4.8871 -4.8871ZM27.368 1.08579c0.781 0.78104 0.781 2.04737 0 2.82842l-2.9323 2.93226c-0.7811 0.78105 -2.0474 0.78105 -2.8284 0 -0.7811 -0.78105 -0.7811 -2.04737 0 -2.82842l2.9322 -2.93226c0.7811 -0.781052 2.0474 -0.781052 2.8285 0Zm9.7743 2.82842c0.781 -0.78105 0.781 -2.04738 0 -2.82842 -0.7811 -0.781052 -2.0474 -0.781052 -2.8285 0l-3.9097 3.90968c-0.781 0.78105 -0.781 2.04738 0 2.82842 0.7811 0.78105 2.0474 0.78105 2.8285 0l3.9097 -3.90968ZM10.755 27.4725c0.7811 0.781 0.7811 2.0474 0 2.8284l-6.84078 6.8409c-0.78105 0.781 -2.04738 0.781 -2.82843 0s-0.781055 -2.0474 -0.00001 -2.8284l6.8408 -6.8409c0.78105 -0.781 2.04738 -0.781 2.82842 0Zm29.4211 6.8398c-0.781 0.7811 -0.781 2.0474 0 2.8285 0.7811 0.781 2.0474 0.781 2.8284 0l3.9097 -3.9097c0.7811 -0.7811 0.7811 -2.0474 0 -2.8284 -0.781 -0.7811 -2.0474 -0.7811 -2.8284 0l-3.9097 3.9096Zm-3.9084 -3.0368c-0.781 -0.781 -0.781 -2.0473 0 -2.8284l7.8181 -7.8181c0.781 -0.7811 2.0474 -0.7811 2.8284 0 0.7811 0.781 0.7811 2.0474 0 2.8284l-7.818 7.8181c-0.7811 0.7811 -2.0474 0.7811 -2.8285 0Zm1.9536 -14.5549c-0.7811 0.781 -0.7811 2.0473 0 2.8284 0.781 0.781 2.0473 0.781 2.8284 0l5.8645 -5.8645c0.7811 -0.7811 0.7811 -2.0474 0 -2.8285 -0.781 -0.781 -2.0474 -0.781 -2.8284 0l-5.8645 5.8646Zm8.6933 -15.63482c0.7811 0.78105 0.7811 2.04738 0 2.82843l-8.7953 8.79539c-0.781 0.781 -2.0474 0.7811 -2.8284 0 -0.7811 -0.781 -0.7811 -2.0474 0 -2.82842l8.7953 -8.79539c0.781 -0.78105 2.0474 -0.781055 2.8284 -0.00001Zm-23.105 7.79313c-6.9477 0 -12.5799 5.63219 -12.5799 12.57989 0 3.5866 1.5012 6.8208 3.906 9.1109 -3.8393 2.3722 -6.62361 6.2744 -7.47869 10.8601 -0.24172 1.2963 -0.00142 2.6089 0.75868 3.667 0.76213 1.061 1.93451 1.7091 3.25571 1.8801l0.2566 -1.9835 -0.2566 1.9835c2.1362 0.2764 5.8048 0.527 12.1382 0.527 6.3334 0 10.002 -0.2506 12.1382 -0.527 1.3212 -0.171 2.4936 -0.8191 3.2557 -1.8801 0.7601 -1.0581 1.0004 -2.3707 0.7587 -3.667 -0.8551 -4.5857 -3.6394 -8.4879 -7.4787 -10.8601 2.4048 -2.2901 3.906 -5.5243 3.906 -9.1109 0 -6.9477 -5.6322 -12.57989 -12.5799 -12.57989ZM15.2297 21.4588c0 -4.7386 3.8414 -8.5799 8.5799 -8.5799s8.5799 3.8413 8.5799 8.5799c0 3.3477 -1.917 6.2513 -4.7223 7.6663 -0.7174 0.3618 -1.1486 1.1179 -1.0948 1.9196 0.0538 0.8017 0.5822 1.4934 1.3415 1.7561 4.1617 1.4401 7.304 5.007 8.1161 9.3623 0.0643 0.3446 -0.0202 0.5235 -0.0752 0.6 -0.0529 0.0738 -0.186 0.2036 -0.5203 0.2469 -1.895 0.2451 -5.3724 0.4939 -11.6249 0.4939s-9.7299 -0.2488 -11.6249 -0.4939c-0.3342 -0.0433 -0.4673 -0.1731 -0.5203 -0.2469 -0.055 -0.0765 -0.1394 -0.2554 -0.0752 -0.6 0.8121 -4.3553 3.9544 -7.9222 8.1161 -9.3623 0.7594 -0.2627 1.2877 -0.9544 1.3415 -1.7561 0.0538 -0.8017 -0.3774 -1.5578 -1.0948 -1.9196 -2.8053 -1.415 -4.7223 -4.3186 -4.7223 -7.6663Z" clip-rule="evenodd" stroke-width="1"></path>
  </g>
</svg>