<svg xmlns="http://www.w3.org/2000/svg" fill="none" viewBox="0 0 48 48" id="Computer-Pc-Desktop--Streamline-Plump">
  <desc>
    Computer Pc Desktop Streamline Icon: https://streamlinehq.com
  </desc>
  <g id="computer-pc-desktop--screen-desktop-monitor-device-electronics-display-pc-computer">
    <path id="Subtract" fill="#fddc5c" fill-rule="evenodd" d="M35.5329 17.5h8.9678c-0.0642 -4.1073 -0.1812 -8.01516 -0.2907 -10.15675 -0.119 -2.32958 -1.7834 -4.2225 -4.1539 -4.47096C38.1436 2.67184 35.4873 2.5 32.0007 2.5s-6.1429 0.17184 -8.0554 0.37229c-2.3706 0.24846 -4.0349 2.14139 -4.154 4.47096 -0.0655 1.28212 -0.1337 3.19735 -0.1917 5.40935 4.5146 0.0175 7.561 0.1218 9.5403 0.2299 2.9059 0.1587 5.3497 1.9459 6.393 4.5175Z" clip-rule="evenodd" stroke-width="1"></path>
    <path id="Rectangle 59" fill="#fddc5c" d="M3.18175 21.3466c0.0997 -1.7281 1.41807 -3.0256 3.14651 -3.12C8.41037 18.1129 11.7894 18 17 18c5.2106 0 8.5896 0.1129 10.6717 0.2266 1.7285 0.0944 3.0469 1.3919 3.1465 3.12C30.914 23.0064 31 25.4776 31 29s-0.086 5.9936 -0.1818 7.6534c-0.0996 1.7281 -1.418 3.0256 -3.1465 3.12C25.5896 39.8871 22.2106 40 17 40c-5.2106 0 -8.58963 -0.1129 -10.67174 -0.2266 -1.72844 -0.0944 -3.04681 -1.3919 -3.14651 -3.12C3.08601 34.9936 3 32.5224 3 29s0.08601 -5.9936 0.18175 -7.6534Z" stroke-width="1"></path>
    <path id="Union" fill="#0c098c" fill-rule="evenodd" d="M32.0007 0.5c-3.5411 0 -6.2594 0.181308 -8.2402 0.396986 -0.0006 0.000057 -0.0011 0.000113 -0.0016 0.00017l-0.0001 -0.000639c-3.4551 0.376203 -5.7577 3.245203 -5.9186 6.516343 -0.0462 0.93862 -0.0936 2.04654 -0.1378 3.33134 -0.038 1.1039 0.826 2.0296 1.93 2.0676 1.1039 0.038 2.0296 -0.8261 2.0676 -1.93 0.0436 -1.26541 0.0901 -2.35355 0.1353 -3.272l0.0017 0.00008c0.0762 -1.54996 1.0892 -2.59841 2.3564 -2.7364C26.0226 4.67432 28.596 4.5 32.0007 4.5s5.9781 0.17432 7.8073 0.37348c1.2672 0.13799 2.2802 1.18643 2.3564 2.73639 0.1105 2.24554 0.2293 5.50523 0.2919 9.89013h-6.894c0.3757 0.8318 0.6267 1.7347 0.7311 2.686 0.0307 0.2318 0.053 0.4656 0.0665 0.701 0.1002 1.7364 0.1856 4.2402 0.1856 7.738 0 3.4978 -0.0854 6.0016 -0.1856 7.738 -0.0135 0.2354 -0.0358 0.4692 -0.0665 0.701 -0.3402 3.101 -2.239 5.6879 -4.9319 6.9722 -0.3119 0.1579 -0.6332 0.2981 -0.9626 0.42 0.0816 0.3768 0.1245 0.768 0.1245 1.1692 0 0.6522 -0.1135 1.278 -0.3219 1.8585 0.5744 0.0104 1.174 0.0161 1.7992 0.0161 3.5411 0 6.2594 -0.1813 8.2402 -0.397 3.4551 -0.3762 5.7578 -3.2452 5.9187 -6.5163 0.1629 -3.311 0.3411 -8.7288 0.3411 -16.5867 0 -7.8579 -0.1782 -13.2757 -0.3411 -16.58668 -0.1609 -3.27114 -2.4636 -6.14013 -5.9187 -6.516333C38.2601 0.681308 35.5418 0.5 32.0007 0.5Zm-6.8874 10.3164c0 -1.10456 0.8954 -1.99999 2 -1.99999h0.9773c1.1045 0 2 0.89543 2 1.99999 0 1.1046 -0.8955 2 -2 2h-0.9773c-1.1046 0 -2 -0.8954 -2 -2Zm8.7969 0c0 -1.10456 0.8954 -1.99999 2 -1.99999h0.9772c1.1046 0 2 0.89543 2 1.99999 0 1.1046 -0.8954 2 -2 2h-0.9772c-1.1046 0 -2 -0.8954 -2 -2ZM17.0227 20.375c-5.0054 0 -8.23188 0.1085 -10.19883 0.2159 -0.6667 0.0364 -1.11474 0.4924 -1.15163 1.1318C5.58232 23.2815 5.5 25.6295 5.5 29c0 2.0138 0.02939 3.6626 0.07222 4.9961H28.4732c0.0429 -1.3335 0.0723 -2.9823 0.0723 -4.9961 0 -3.3705 -0.0824 -5.7185 -0.1723 -7.2773 -0.0369 -0.6394 -0.4849 -1.0954 -1.1516 -1.1318 -1.967 -0.1074 -5.1935 -0.2159 -10.1989 -0.2159ZM6.60573 16.5968c2.0553 -0.1122 5.35647 -0.2218 10.41697 -0.2218 5.0606 0 8.3617 0.1096 10.417 0.2218 0.7793 0.0426 1.5099 0.2471 2.1577 0.5825 1.4928 0.6943 2.5488 2.1185 2.7245 3.8628 0.0209 0.1479 0.0359 0.298 0.0447 0.4503 0.095 1.6475 0.1789 4.0734 0.1789 7.5076 0 3.4342 -0.0839 5.8601 -0.1789 7.5076 -0.0088 0.1523 -0.0238 0.3024 -0.0447 0.4503 -0.1757 1.7443 -1.2317 3.1685 -2.7245 3.8628 -0.6478 0.3354 -1.3784 0.5399 -2.1577 0.5825 -1.2877 0.0703 -3.0644 0.1396 -5.4565 0.1815l0.0907 0.7258c0.1564 1.2511 1.2199 2.1899 2.4807 2.1899h0.4688c0.8285 0 1.5 0.6716 1.5 1.5 0 0.8285 -0.6715 1.5 -1.5 1.5H9.02344c-0.82843 0 -1.5 -0.6715 -1.5 -1.5 0 -0.8284 0.67157 -1.5 1.5 -1.5h0.46887c1.26079 0 2.32429 -0.9388 2.48069 -2.1899l0.0907 -0.7258c-2.39279 -0.0419 -4.17001 -0.1112 -5.45797 -0.1815 -0.7844 -0.0429 -1.51939 -0.2498 -2.17032 -0.5891 -1.47535 -0.6919 -2.5211 -2.0982 -2.7068 -3.821 -0.02357 -0.1592 -0.04026 -0.3211 -0.04973 -0.4855C1.58383 34.8601 1.5 32.4342 1.5 29c0 -3.4342 0.08383 -5.8601 0.17888 -7.5076 0.00947 -0.1644 0.02616 -0.3263 0.04973 -0.4855 0.1857 -1.7228 1.23144 -3.129 2.70679 -3.821 0.65093 -0.3393 1.38592 -0.5462 2.17033 -0.5891Z" clip-rule="evenodd" stroke-width="1"></path>
  </g>
</svg>