<svg xmlns="http://www.w3.org/2000/svg" fill="none" viewBox="0 0 48 48" id="One-Handed-Holding-Tablet-Handheld--Streamline-Plump">
  <desc>
    One Handed Holding Tablet Handheld Streamline Icon: https://streamlinehq.com
  </desc>
  <g id="one-handed-holding-tablet-handheld">
    <path id="Rectangle 1097" fill="#fddc5c" d="M3.40631 38.8582c0.1557 2.5045 1.99114 4.4862 4.48939 4.7183 2.4476 0.2275 6.0363 0.4393 10.9154 0.4393s8.4678 -0.2118 10.9154 -0.4393c2.4983 -0.2321 4.3337 -2.2138 4.4894 -4.7183 0.1982 -3.1885 0.4083 -8.2915 0.4083 -15.6003 0 -7.3088 -0.2101 -12.4118 -0.4083 -15.60033 -0.1557 -2.50456 -1.9911 -4.48618 -4.4894 -4.71836C27.2789 2.71173 23.6902 2.5 18.8111 2.5s-8.4678 0.21173 -10.9154 0.43921c-2.49825 0.23218 -4.33369 2.2138 -4.48939 4.71836 -0.19822 3.18853 -0.40826 8.29153 -0.40826 15.60033s0.21004 12.4118 0.40826 15.6003Z" stroke-width="1"></path>
    <path id="Union" fill="#0c098c" fill-rule="evenodd" d="M7.71062 0.947791C10.2237 0.714236 13.8743 0.5 18.8111 0.5c4.9368 0 8.5874 0.214236 11.1005 0.447791 3.5264 0.327729 6.0866 3.145159 6.3005 6.585689 0.0145 0.23336 0.029 0.47669 0.0436 0.73008 0.9202 -0.08508 1.7714 -0.05661 2.481 0.01182 2.5167 0.2427 3.8705 2.04212 4.3521 3.87462 0.8316 3.165 2.3754 9.7055 3.3232 17.818 0.1207 1.0327 0.1138 2.0713 -0.008 3.0912 -0.7498 6.282 -1.6241 11.6914 -1.7287 12.2874 -0.1743 0.9923 -1.0522 1.6844 -2.0308 1.6534H30.5397c-0.8164 0.0284 -1.6004 -0.4489 -1.9241 -1.2502l-0.0281 -0.0697c-2.4167 0.1857 -5.6465 0.3357 -9.7764 0.3357 -4.9368 0 -8.5874 -0.2143 -11.10048 -0.4478 -3.52639 -0.3278 -6.08657 -3.1452 -6.30046 -6.5857 -0.20098 -3.2329 -0.412113 -8.3775 -0.412113 -15.7244 0 -7.347 0.211133 -12.4915 0.412113 -15.72442 0.21389 -3.44053 2.77407 -6.25796 6.30046 -6.585689ZM27.0122 41.7803l-0.717 -1.7748c-0.4523 -1.1196 -1.1054 -2.1477 -1.9275 -3.0336l-3.7003 -3.9876c-0.9712 -1.0465 -1.6389 -2.7075 -1.0275 -4.4309 0.2666 -0.7515 0.7916 -1.3824 1.1637 -1.7879 0.4093 -0.4461 0.8631 -0.8584 1.1808 -1.1466 0.7081 -0.6424 1.5581 -1.0078 2.5221 -1.0367 0.8748 -0.0262 1.6995 0.2307 2.4098 0.5262 1.2665 0.5269 3.2002 1.4191 5.4169 2.7454 0.0147 -0.8068 0.0304 -1.7284 0.0462 -2.7438 0.0477 -3.0821 0.0955 -7.0261 0.1127 -11.2429 -0.0763 -2.5181 -0.1759 -4.53493 -0.2723 -6.08543 -0.0976 -1.5686 -1.2083 -2.71442 -2.6784 -2.85104C27.1592 4.70923 23.6324 4.5 18.8111 4.5s-8.3481 0.20923 -10.73033 0.43063c-1.47011 0.13662 -2.5808 1.28244 -2.67832 2.85104 -0.19545 3.14403 -0.4044 8.20553 -0.4044 15.47623 0 7.2706 0.20895 12.3321 0.4044 15.4762 0.09752 1.5686 1.20822 2.7144 2.67832 2.851 2.38223 0.2214 5.90903 0.4307 10.73033 0.4307 3.3374 0 6.0545 -0.1003 8.2011 -0.2355Z" clip-rule="evenodd" stroke-width="1"></path>
  </g>
</svg>