<svg xmlns="http://www.w3.org/2000/svg" fill="none" viewBox="0 0 48 48" id="Printer--Streamline-Plump">
  <desc>
    Printer Streamline Icon: https://streamlinehq.com
  </desc>
  <g id="printer--scan-device-electronics-printer-print-computer">
    <path id="Subtract" fill="#79ee8d" fill-rule="evenodd" d="M3.20505 31.4374c0.13515 2.3691 2.01634 4.1877 4.38731 4.2855 1.21644 0.0502 2.72504 0.1018 4.55144 0.1466 -0.0563 -2.1832 -0.104 -4.8662 -0.1282 -8.1136 2.9301 0.1405 6.8362 0.2441 11.9849 0.2441 5.1465 0 9.0514 -0.1035 11.9811 -0.244 -0.024 3.2474 -0.0713 5.9303 -0.1272 8.1135 1.8272 -0.0448 3.3364 -0.0964 4.5532 -0.1466 2.371 -0.0978 4.2522 -1.9164 4.3873 -4.2855C44.9045 29.5171 45 26.9865 45 24c0 -3.262 -0.2279 -5.981 -0.4713 -7.9549 -0.263 -2.1322 -2.0168 -3.6646 -4.163 -3.7594C37.2975 12.1503 32.0743 12 24 12c-7.8581 0 -13.1657 0.1423 -16.40423 0.2748 -2.37245 0.0971 -4.25561 1.9165 -4.39077 4.2871C3.09548 18.4829 3 21.014 3 24c0 2.9865 0.09551 5.5171 0.20505 7.4374Z" clip-rule="evenodd" stroke-width="1"></path>
    <path id="Subtract_2" fill="#79ee8d" d="M12.0156 28.2598c2.9301 0.1405 6.8362 0.2441 11.9849 0.2441 5.1465 0 9.0514 -0.1035 11.9811 -0.244 -0.0441 5.962 -0.1666 10.0216 -0.2769 12.5787 -0.0921 2.1349 -1.6047 3.8926 -3.7238 4.1675 -1.9762 0.2563 -4.7052 0.4973 -7.9824 0.4973 -3.2778 0 -6.0065 -0.2411 -7.9818 -0.4975 -2.1175 -0.2748 -3.6291 -2.0308 -3.7219 -4.164 -0.1112 -2.5569 -0.2347 -6.6175 -0.2792 -12.5821Z" stroke-width="1"></path>
    <path id="Union" fill="#0c098c" fill-rule="evenodd" d="M24.0011 1c-3.5331 0 -6.329 0.2671 -8.2661 0.5407 -2.5133 0.35497 -4.3885 2.31864 -4.6799 4.81681 -0.018 0.15432 -0.036 0.31456 -0.054 0.48077 -0.0894 0.8236 0.5059 1.56366 1.3295 1.65298 0.0722 0.00783 0.1438 0.0104 0.2144 0.00801l0 0.00073h22.9434c0.0605 0.00079 0.1216 -0.00206 0.1832 -0.00874 0.8236 -0.08932 1.4188 -0.82939 1.3295 -1.65299 -0.018 -0.16619 -0.0361 -0.32643 -0.0541 -0.48076 -0.2914 -2.49817 -2.1666 -4.46184 -4.6798 -4.81681C30.33 1.2671 27.5342 1 24.0011 1ZM24 10c-7.8819 0 -13.2171 0.1427 -16.48598 0.2765 -3.38071 0.1383 -6.11093 2.7541 -6.30577 6.1716C1.09682 18.4025 1 20.9717 1 24c0 3.0287 0.09685 5.5976 0.2083 7.5513 0.19483 3.4155 2.92242 6.0305 6.30164 6.1699 0.89855 0.0371 1.95327 0.0748 3.17416 0.1101 0.0364 1.2003 0.0749 2.2207 0.1121 3.0758 0.1224 2.8124 2.1391 5.2114 5.0274 5.5863 2.0305 0.2636 4.8242 0.51 8.1749 0.51 3.35 0 6.1441 -0.2463 8.1754 -0.5098 2.8902 -0.3749 4.908 -2.7762 5.0294 -5.5904 0.0369 -0.8543 0.075 -1.8734 0.1111 -3.0719 1.2215 -0.0353 2.2767 -0.073 3.1757 -0.1101 3.3792 -0.1394 6.1068 -2.7544 6.3016 -6.1699C46.9031 29.5976 47 27.0287 47 24c0 -3.3543 -0.2343 -6.1557 -0.4864 -8.1997 -0.3894 -3.1576 -2.9958 -5.3774 -6.0597 -5.5126C37.3515 10.1507 32.0985 10 24 10Zm13.4108 23.8268c1.1159 -0.033 2.0846 -0.068 2.9144 -0.1022 1.3627 -0.0562 2.3975 -1.0783 2.473 -2.4011C42.9058 29.4366 43 26.9442 43 24c0 -3.1697 -0.2215 -5.8063 -0.4563 -7.7101 -0.1365 -1.1068 -1.0376 -1.9519 -2.2662 -2.0061C37.2434 14.1498 32.05 14 24 14c-7.8342 0 -13.1144 0.1419 -16.32248 0.2731 -1.36419 0.0558 -2.40029 1.0789 -2.47576 2.4026C5.09414 18.5634 5 21.0562 5 24c0 2.9442 0.09417 5.4366 0.2018 7.3235 0.07546 1.3228 1.11026 2.3449 2.47298 2.4011 0.82927 0.0342 1.7972 0.0691 2.91212 0.1021 -0.0307 -1.6341 -0.0558 -3.4804 -0.0712 -5.5558 -0.0031 -0.4122 0.1636 -0.8075 0.4609 -1.093 0.2974 -0.2856 0.6991 -0.4362 1.1109 -0.4164 2.9021 0.1392 6.7839 0.2424 11.913 0.2424 5.1269 0 9.0075 -0.1031 11.9093 -0.2422 0.4117 -0.0198 0.8134 0.1308 1.1107 0.4163 0.2974 0.2855 0.4641 0.6808 0.461 1.093 -0.0153 2.0754 -0.0401 3.9217 -0.0707 5.5558ZM16.625 33.5c0 -0.7594 0.6156 -1.375 1.375 -1.375h12c0.7594 0 1.375 0.6156 1.375 1.375s-0.6156 1.375 -1.375 1.375H18c-0.7594 0 -1.375 -0.6156 -1.375 -1.375ZM18 39.1289c-0.7594 0 -1.375 0.6156 -1.375 1.375s0.6156 1.375 1.375 1.375h12c0.7594 0 1.375 -0.6156 1.375 -1.375s-0.6156 -1.375 -1.375 -1.375H18ZM35 18c-1.1046 0 -2 0.8954 -2 2s0.8954 2 2 2h1c1.1046 0 2 -0.8954 2 -2s-0.8954 -2 -2 -2h-1Z" clip-rule="evenodd" stroke-width="1"></path>
  </g>
</svg>