<svg xmlns="http://www.w3.org/2000/svg" fill="none" viewBox="0 0 48 48" id="Slack-Logo--Streamline-Plump">
  <desc>
    Slack Logo Streamline Icon: https://streamlinehq.com
  </desc>
  <g id="slack-logo">
    <path id="Rectangle 840" fill="#79ee8d" d="M2.5 18.8808c0 -2.6536 1.93737 -4.8578 4.58798 -4.9849 1.59717 -0.0766 3.63772 -0.1342 6.16212 -0.1342l5.6339 0c2.8272 0 5.1162 2.2919 5.1162 5.1191 0 2.8272 -2.289 5.1191 -5.1162 5.1191l-5.6339 0c-2.5244 0 -4.56495 -0.0576 -6.16212 -0.1341C4.43737 23.7387 2.5 21.5345 2.5 18.8808Z" stroke-width="1"></path>
    <path id="Rectangle 842" fill="#79ee8d" d="M29.1191 2.5c2.6537 0 4.8579 1.93737 4.9849 4.58798 0.0766 1.59717 0.1342 3.63772 0.1342 6.16212l0 5.6339c0 2.8272 -2.2919 5.1162 -5.1191 5.1162 -2.8272 0 -5.1191 -2.289 -5.1191 -5.1162l0 -5.6339c0 -2.5244 0.0576 -4.56495 0.1342 -6.16212C24.2612 4.43737 26.4655 2.5 29.1191 2.5Z" stroke-width="1"></path>
    <path id="Rectangle 844" fill="#79ee8d" d="M45.5002 29.1191c0 2.6537 -1.9373 4.8579 -4.5879 4.9849 -1.5972 0.0766 -3.6377 0.1342 -6.1622 0.1342l-5.6338 0c-2.8272 0 -5.1163 -2.2919 -5.1163 -5.1191C24 26.2919 26.2891 24 29.1163 24l5.6338 0c2.5245 0 4.565 0.0576 6.1622 0.1342 2.6506 0.1271 4.5879 2.3313 4.5879 4.9849Z" stroke-width="1"></path>
    <path id="Rectangle 846" fill="#79ee8d" d="M18.8808 45.5002c-2.6536 0 -4.8578 -1.9373 -4.9849 -4.5879 -0.0766 -1.5972 -0.1342 -3.6377 -0.1342 -6.1622l0 -5.6338c0 -2.8272 2.2919 -5.1163 5.1191 -5.1163 2.8272 0 5.1191 2.2891 5.1191 5.1163l0 5.6338c0 2.5245 -0.0576 4.565 -0.1342 6.1622 -0.127 2.6506 -2.3312 4.5879 -4.9849 4.5879Z" stroke-width="1"></path>
    <path id="Union" fill="#0c098c" fill-rule="evenodd" d="M23.2885 3.51722C24.5613 1.65262 26.7416 0.5 29.1191 0.5c3.6299 0 6.8002 2.68682 6.9826 6.49221 0.0724 1.50928 0.1277 3.39719 0.1356 5.69569 1.0141 -0.6075 2.2079 -0.9496 3.4557 -0.9496 3.7306 0 6.8054 3.0227 6.8054 6.7694 0 1.8578 -0.7607 3.5783 -2.0165 4.7801 1.8653 1.2726 3.0183 3.4533 3.0183 5.8313 0 3.6299 -2.6868 6.8002 -6.4922 6.9826 -1.5092 0.0724 -3.3971 0.1277 -5.6956 0.1356 0.6075 1.0141 0.9496 2.2079 0.9496 3.4557 0 3.7306 -3.0227 6.8054 -6.7694 6.8054 -1.8579 0 -3.5785 -0.7608 -4.7803 -2.0167 -1.2726 1.8654 -3.4534 3.0185 -5.8315 3.0185 -3.6299 0 -6.8002 -2.6868 -6.9826 -6.4922 -0.0724 -1.5094 -0.1277 -3.3976 -0.1355 -5.6965 -1.0145 0.6081 -2.20894 0.9505 -3.45735 0.9505C4.57481 36.262 1.5 33.2393 1.5 29.4926c0 -1.8583 0.76108 -3.5792 2.01746 -4.781C1.65272 23.4388 0.5 21.2584 0.5 18.8808c0 -3.6299 2.68682 -6.8002 6.49221 -6.9826 1.50948 -0.0724 3.39769 -0.1277 5.69669 -0.1355 -0.6081 -1.0145 -0.9506 -2.20894 -0.9506 -3.45735C11.7383 4.5748 14.761 1.5 18.5077 1.5c1.8582 0 3.579 0.76099 4.7808 2.01722ZM29.1589 22h-0.0426l-0.0312 0.0001c-1.6977 -0.0181 -3.0678 -1.3889 -3.0849 -3.084l0 -0.0353 -0.0002 -0.06v-5.5707c0 -2.494 0.0569 -4.50259 0.1319 -6.06635C26.2036 5.68792 27.4417 4.5 29.1191 4.5s2.9155 1.18792 2.9872 2.68375c0.075 1.56376 0.1319 3.57235 0.1319 6.06635v5.6339c0 1.7079 -1.3736 3.0947 -3.0793 3.116Zm-0.0749 4.0002C27.3777 26.0175 26 27.4058 26 29.1191c0 1.7241 1.3951 3.1191 3.1163 3.1191l5.6338 0c2.4941 0 4.5026 -0.0569 6.0664 -0.1319 1.4958 -0.0717 2.6837 -1.3098 2.6837 -2.9872s-1.1879 -2.9155 -2.6837 -2.9872C39.2527 26.0569 37.2442 26 34.7501 26h-5.5709l-0.0601 0.0002 -0.0351 0ZM22 18.884v-0.043c-0.0213 -1.7057 -1.4081 -3.0793 -3.116 -3.0793h-5.6339c-2.494 0 -4.50259 0.0569 -6.06635 0.1319C5.68792 15.9653 4.5 17.2034 4.5 18.8808s1.18792 2.9155 2.68375 2.9872c1.56376 0.075 3.57235 0.1319 6.06635 0.1319h5.6339c1.7098 0 3.0978 -1.3766 3.1161 -3.085L22 18.884ZM18.8808 26c-1.7241 0 -3.1191 1.3951 -3.1191 3.1163v5.6338c0 2.4941 0.0569 4.5026 0.1319 6.0664 0.0717 1.4958 1.3098 2.6837 2.9872 2.6837s2.9155 -1.1879 2.9872 -2.6837c0.075 -1.5638 0.1319 -3.5723 0.1319 -6.0664v-5.6338c0 -1.7212 -1.395 -3.1163 -3.1191 -3.1163Z" clip-rule="evenodd" stroke-width="1"></path>
  </g>
</svg>