<svg xmlns="http://www.w3.org/2000/svg" fill="none" viewBox="0 0 14 14" id="Chat-Two-Bubbles-Oval--Streamline-Core-Remix">
  <desc>
    Chat Two Bubbles Oval Streamline Icon: https://streamlinehq.com
  </desc>
  <g id="Free Remix/Mail/Mail/Chat Bubble/chat-two-bubbles-oval--messages-message-bubble-chat-oval-conversation">
    <path id="Union" fill="#000000" fill-rule="evenodd" d="M11.4284 4.8285C10.9799 2.09624 8.55318 -0.00158337 5.74985 8.967e-7h-0.00014C4.70966 0.000350925 3.68919 0.282783 2.79695 0.817221 1.90468 1.35168 1.17409 2.11816 0.682982 3.03501c-0.491105 0.91685 -0.7243263 1.94974 -0.67482483 2.98865C0.053522 6.97576 0.334776 7.90025 0.824835 8.71464L0.0319752 10.8241c-0.0633144 0.1684 -0.031222331 0.3579 0.0840308 0.4961 0.115252 0.1382 0.295884 0.2038 0.472969 0.1718l2.790855 -0.5046c0.46093 0.2088 0.94642 0.3555 1.4437 0.437 0.14135 0.2642 0.30719 0.5157 0.49584 0.7509 0.45897 0.5722 1.04114 1.0334 1.70313 1.3493 0.662 0.316 1.38676 0.4785 2.12028 0.4754 0.66326 -0.0028 1.31822 -0.1409 1.92502 -0.4051l2.1965 0.3952c0.2211 0.0398 0.4466 -0.0421 0.5905 -0.2146 0.144 -0.1724 0.1843 -0.4089 0.1057 -0.6193l-0.6027 -1.6127c0.4223 -0.7343 0.6448 -1.5687 0.6422 -2.41959V9.125h-0.625L14 9.12302l0 0.00089c-0.0003 -1.29254 -0.5139 -2.53207 -1.4278 -3.44605 -0.3407 -0.34071 -0.7267 -0.62578 -1.1438 -0.84936ZM7.54926 5.85904c0.49141 -0.23667 1.0299 -0.3594 1.57534 -0.35904h0.00042c0.96138 0 1.88348 0.38192 2.56328 1.06174 0.6798 0.67982 1.0617 1.60185 1.0617 2.56326l0 0.00198c0.0023 0.71208 -0.2082 1.40862 -0.6043 2.00032 -0.112 0.1672 -0.1366 0.378 -0.0661 0.5665l0.3257 0.8717 -1.3096 -0.2356c-0.1306 -0.0235 -0.2653 -0.0048 -0.3846 0.0533 -0.4903 0.2391 -1.02816 0.3645 -1.5736 0.3668 -0.54543 0.0023 -1.08436 -0.1185 -1.57661 -0.3535 -0.49226 -0.2349 -0.92515 -0.5779 -1.26643 -1.0033 -0.34128 -0.4255 -0.58215 -0.9225 -0.70465 -1.45404 -0.1225 -0.53151 -0.12349 -1.08381 -0.00287 -1.61574 0.12061 -0.53194 0.3597 -1.0298 0.69947 -1.45649 0.33976 -0.42669 0.77143 -0.77121 1.26285 -1.00789Z" clip-rule="evenodd" stroke-width="1"></path>
  </g>
</svg>