<svg xmlns="http://www.w3.org/2000/svg" fill="none" viewBox="0 0 14 14" id="Chat-Bubble-Square-Question--Streamline-Core-Remix">
  <desc>
    Chat Bubble Square Question Streamline Icon: https://streamlinehq.com
  </desc>
  <g id="Free Remix/Mail/Mail/Chat Bubble/chat-bubble-square-question--bubble-square-messages-notification-chat-message-question-help">
    <path id="Union" fill="#000000" fill-rule="evenodd" d="M2.35985 1.35983c0.07032 -0.07032 0.16571 -0.10983 0.26516 -0.10983H12.375c0.0995 0 0.1949 0.03951 0.2652 0.10983 0.0703 0.07033 0.1098 0.16571 0.1098 0.26517v9.75c0 0.0995 -0.0395 0.1948 -0.1098 0.2652 -0.0703 0.0703 -0.1657 0.1098 -0.2652 0.1098H4.62501c-0.0511 0 -0.10201 0.0063 -0.15158 0.0187l-2.89545 0.7238 0.63996 -1.9199c0.02124 -0.0637 0.03207 -0.1304 0.03207 -0.1976v-8.75c0 -0.09946 0.03951 -0.19484 0.10984 -0.26517ZM2.62501 0c-0.43097 0 -0.8443 0.171205 -1.14905 0.475951 -0.30474 0.304747 -0.47595 0.718069 -0.47595 1.149049v8.6486l-0.9679241 2.9038c-0.0721358 0.2164 -0.0206409 0.4549 0.1343511 0.6223 0.154991 0.1673 0.388858 0.237 0.610161 0.1816L4.70196 13H12.375c0.431 0 0.8443 -0.1712 1.1491 -0.476 0.3047 -0.3047 0.4759 -0.718 0.4759 -1.149v-9.75c0 -0.43098 -0.1712 -0.844302 -0.4759 -1.149049C13.2193 0.171205 12.806 0 12.375 0H2.62501Zm4.54015 4.19161c0.15989 -0.06623 0.33582 -0.08356 0.50556 -0.0498 0.16973 0.03377 0.32564 0.1171 0.44801 0.23947 0.12237 0.12237 0.20571 0.27828 0.23947 0.44802 0.03376 0.16973 0.01643 0.34566 -0.04979 0.50555 -0.06623 0.15988 -0.17838 0.29654 -0.32227 0.39269 -0.1439 0.09614 -0.31307 0.14746 -0.48613 0.14746 -0.34518 0 -0.625 0.27982 -0.625 0.625v1c0 0.34518 0.27982 0.625 0.625 0.625s0.625 -0.27982 0.625 -0.625v-0.46899c0.19598 -0.06031 0.38325 -0.14898 0.55559 -0.26414 0.34945 -0.23349 0.62182 -0.56537 0.78266 -0.95367 0.16083 -0.38829 0.20292 -0.81556 0.12092 -1.22777 -0.08199 -0.41221 -0.28438 -0.79084 -0.58157 -1.08803 -0.29718 -0.29719 -0.67582 -0.49957 -1.08803 -0.58157 -0.41221 -0.08199 -0.83948 -0.03991 -1.22777 0.12093 -0.38829 0.16083 -0.72017 0.4332 -0.95367 0.78265 -0.2335 0.34946 -0.35813 0.76031 -0.35813 1.18059 0 0.34518 0.27982 0.625 0.625 0.625s0.625 -0.27982 0.625 -0.625c0 -0.17306 0.05132 -0.34223 0.14747 -0.48612 0.09614 -0.1439 0.2328 -0.25605 0.39268 -0.32227Zm0.33485 6.43339c-0.48325 0 -0.875 -0.3918 -0.875 -0.875 0 -0.48325 0.39175 -0.875 0.875 -0.875s0.875 0.39175 0.875 0.875c0 0.4832 -0.39175 0.875 -0.875 0.875Z" clip-rule="evenodd" stroke-width="1"></path>
  </g>
</svg>