<svg xmlns="http://www.w3.org/2000/svg" fill="none" viewBox="0 0 14 14" id="Chat-Bubble-Oval-Notification--Streamline-Core-Remix">
  <desc>
    Chat Bubble Oval Notification Streamline Icon: https://streamlinehq.com
  </desc>
  <g id="Free Remix/Mail/Mail/Chat Bubble/chat-bubble-oval-notification--messages-message-bubble-chat-oval-notify-ping">
    <path id="Union" fill="#000000" fill-rule="evenodd" d="M7.75001 3.125C7.75001 1.39911 9.14912 0 10.875 0 12.6009 0 14 1.39911 14 3.125S12.6009 6.25 10.875 6.25c-1.72588 0 -3.12499 -1.39911 -3.12499 -3.125ZM6.54834 1.26632c0.34415 -0.0267 0.60149 -0.327321 0.5748 -0.671466 -0.0267 -0.344144 -0.32732 -0.60148794 -0.67147 -0.5747938C2.84111 0.30012 -0.00096784 3.31779 -0.00096784 6.99987c0 1.31778 0.36465084 2.552 0.99864284 3.60543L0.0389919 13.156c-0.0791424 0.2105 -0.0390268676 0.4474 0.1050391 0.6201 0.144066 0.1728 0.369856 0.2548 0.591212 0.2148L4.11376 13.38c0.88072 0.399 1.85833 0.6209 2.88622 0.6209 3.68202 0 6.69962 -2.8421 6.97972 -6.45258 0.0267 -0.34415 -0.2306 -0.64477 -0.5747 -0.67147 -0.3442 -0.02671 -0.6448 0.23063 -0.6715 0.57478 -0.23 2.96467 -2.7095 5.29927 -5.73352 5.29927 -0.88497 0 -1.72167 -0.1995 -2.46908 -0.5554 -0.12632 -0.0775 -0.28051 -0.1105 -0.4378 -0.0821l-0.00511 0.0009 -0.00006 0.0001 -2.49139 0.4505 0.68071 -1.8111 0.00002 -0.0001 0.00101 -0.0027c0.08014 -0.2132 0.03617 -0.4427 -0.09588 -0.609 -0.59024 -0.90293 -0.93337 -1.98154 -0.93337 -3.14213 0 -3.02413 2.33457 -5.50359 5.29931 -5.73355Z" clip-rule="evenodd" stroke-width="1"></path>
  </g>
</svg>