<svg xmlns="http://www.w3.org/2000/svg" fill="none" viewBox="0 0 14 14" id="Mail-Search--Streamline-Core-Remix">
  <desc>
    Mail Search Streamline Icon: https://streamlinehq.com
  </desc>
  <g id="Free Remix/Mail/Mail/Inbox/mail-search--inbox-envelope-email-message-search">
    <path id="Union" fill="#000000" fill-rule="evenodd" d="M1.25 3.10093V8.5c0 0.20711 0.16789 0.375 0.375 0.375H5c0.34518 0 0.625 0.27982 0.625 0.625s-0.27982 0.625 -0.625 0.625H1.625C0.727537 10.125 0 9.39746 0 8.5V1.625C0 0.727538 0.727537 0 1.625 0h9.75C12.2725 0 13 0.727537 13 1.625v4c0 0.34518 -0.2798 0.625 -0.625 0.625s-0.625 -0.27982 -0.625 -0.625V3.10093l-4.97265 3.3151c-0.16795 0.11196 -0.38675 0.11196 -0.5547 0L1.25 3.10093ZM9.875 8C8.83947 8 8 8.83947 8 9.875c0 1.0355 0.83947 1.875 1.875 1.875 0.5143 0 0.9803 -0.2071 1.319 -0.5424l0.0066 -0.0067 0.0068 -0.0067c0.3355 -0.3388 0.5426 -0.8048 0.5426 -1.3192C11.75 8.83947 10.9105 8 9.875 8Zm0 5c0.6369 0 1.2292 -0.1905 1.7232 -0.5177l1.3347 1.3347c0.244 0.2441 0.6398 0.2441 0.8839 0 0.244 -0.2441 0.244 -0.6398 0 -0.8839l-1.3346 -1.3346c0.3272 -0.494 0.5178 -1.0865 0.5178 -1.7235 0 -1.72589 -1.3991 -3.125 -3.125 -3.125 -1.72589 0 -3.125 1.39911 -3.125 3.125C6.75 11.6009 8.14911 13 9.875 13Z" clip-rule="evenodd" stroke-width="1"></path>
  </g>
</svg>