<svg xmlns="http://www.w3.org/2000/svg" fill="none" viewBox="0 0 14 14" id="Smiley-Crying-1--Streamline-Core-Remix">
  <desc>
    Smiley Crying 1 Streamline Icon: https://streamlinehq.com
  </desc>
  <g id="Free Remix/Mail/Mail/Smiley/smiley-crying-1">
    <path id="Union" fill="#000000" fill-rule="evenodd" d="M1.25 7c0 -3.17564 2.57436 -5.75 5.75 -5.75 3.1756 0 5.75 2.57436 5.75 5.75 0 3.1756 -2.5744 5.75 -5.75 5.75 -3.17564 0 -5.75 -2.5744 -5.75 -5.75ZM7 0C3.13401 0 0 3.13401 0 7c0 3.866 3.13401 7 7 7 3.866 0 7 -3.134 7 -7 0 -3.86599 -3.134 -7 -7 -7Zm1.5753 5.16248c0.0143 0.00109 0.08342 0.00636 0.19642 0.03623 0.1219 0.03223 0.24568 0.0804 0.34328 0.13675 0.09759 0.05635 0.2012 0.13946 0.29007 0.22892 0.08236 0.08291 0.12149 0.14014 0.12958 0.15198 0.00142 0.00207 0.00188 0.00275 0.00147 0.00195 0.18928 0.36843 0.64138 0.51367 1.00988 0.32438 0.3684 -0.18928 0.5136 -0.6414 0.3243 -1.00983 -0.0947 -0.18447 -0.2475 -0.37108 -0.4011 -0.52562 -0.1614 -0.16247 -0.3684 -0.33466 -0.6042 -0.47081 -0.23582 -0.13616 -0.48846 -0.22935 -0.70986 -0.28789 -0.21059 -0.05568 -0.44862 -0.09472 -0.65575 -0.08456 -0.41372 0.0203 -0.73265 0.37213 -0.71236 0.78585 0.0203 0.41371 0.37213 0.73265 0.78585 0.71235 -0.00091 0.00005 -0.00008 0.00011 0.00242 0.0003ZM5.5006 3.66545c-0.20714 -0.01016 -0.44516 0.02888 -0.65576 0.08456 -0.2214 0.05854 -0.47403 0.15173 -0.70985 0.28788 -0.23582 0.13615 -0.44284 0.30834 -0.60424 0.47081 -0.15352 0.15454 -0.30634 0.34116 -0.40111 0.52562 -0.18928 0.36844 -0.04405 0.82056 0.32439 1.00984 0.36843 0.18928 0.82055 0.04405 1.00983 -0.32439 -0.00041 0.00081 0.00006 0.00012 0.00147 -0.00194 0.0081 -0.01184 0.04722 -0.06907 0.12959 -0.15199 0.08887 -0.08946 0.19247 -0.17256 0.29007 -0.22891 0.0976 -0.05635 0.22137 -0.10452 0.34328 -0.13675 0.11299 -0.02988 0.18212 -0.03515 0.19642 -0.03624 0.00249 -0.00019 0.00332 -0.00025 0.00242 -0.00029 0.41371 0.02029 0.76555 -0.29864 0.78584 -0.71236 0.02029 -0.41371 -0.29864 -0.76555 -0.71235 -0.78584ZM3.35761 8.80914C4.10011 7.57687 5.45313 6.75 7 6.75c1.54688 0 2.8999 0.82687 3.6424 2.05914 0.2138 0.35478 0.0995 0.81569 -0.2553 1.02947 -0.3548 0.21379 -0.81571 0.09947 -1.02949 -0.25532C8.87522 8.78272 7.99946 8.25 7 8.25c-0.99945 0 -1.87522 0.53272 -2.35761 1.33329 -0.21377 0.35479 -0.67468 0.46911 -1.02947 0.25532 -0.35478 -0.21378 -0.46909 -0.67469 -0.25531 -1.02947Z" clip-rule="evenodd" stroke-width="1"></path>
  </g>
</svg>