<svg xmlns="http://www.w3.org/2000/svg" fill="none" viewBox="0 0 48 48" id="Galaxy-2--Streamline-Plump-Neon">
  <desc>
    Galaxy 2 Streamline Icon: https://streamlinehq.com
  </desc>
  <g id="galaxy-2--science-space-universe-astronomy">
    <path id="Vector" stroke="#000cfe" stroke-linecap="round" stroke-linejoin="round" d="M24 19c-2.7614 0 -5 2.2386 -5 5s2.2386 5 5 5 5 -2.2386 5 -5 -2.2386 -5 -5 -5Z" stroke-width="3"></path>
    <path id="Vector_2" stroke="#c71dff" stroke-linecap="round" stroke-linejoin="round" d="M25.4475 14.4967c-6.2297 -1.6692 -12.6331 2.0278 -14.3023 8.2574 -1.97275 7.3624 2.3964 14.93 9.7588 16.9027 10.194 2.7315 20.6722 -3.3181 23.4037 -13.5121C46.918 16.403 41.9313 6.41557 32.9793 2.47235c-0.8896 -0.39188 -1.6608 0.69055 -1.1744 1.53225 2.8039 4.85225 3.5585 10.4014 3.5585 10.4014" stroke-width="3"></path>
    <path id="Vector_3" stroke="#c71dff" stroke-linecap="round" stroke-linejoin="round" d="M22.5526 33.5035c6.2297 1.6692 12.633 -2.0278 14.3022 -8.2575 1.9728 -7.3623 -2.3964 -14.9299 -9.7587 -16.90263C16.902 5.61188 6.42382 11.6615 3.69234 21.8555 1.08207 31.5971 6.06873 41.5846 15.0207 45.5278c0.8897 0.3919 1.6608 -0.6905 1.1745 -1.5322 -2.804 -4.8523 -3.5585 -10.4014 -3.5585 -10.4014" stroke-width="3"></path>
  </g>
</svg>