<svg xmlns="http://www.w3.org/2000/svg" fill="none" viewBox="0 0 48 48" id="Potted-Flower--Streamline-Plump-Neon">
  <desc>
    Potted Flower Streamline Icon: https://streamlinehq.com
  </desc>
  <g id="potted-flower--nature-flower-plant-tree-pot">
    <path id="Vector" stroke="#c71dff" stroke-linecap="round" stroke-linejoin="round" d="M21.1653 34.0045c0.0942 -2.1064 0.2177 -4.302 0.3407 -6.2962 -0.6355 0.1898 -1.3088 0.2917 -2.006 0.2917 -3.866 0 -7 -3.134 -7 -7 0 -0.7872 0.1299 -1.544 0.3695 -2.2502C11.4165 17.4671 10.5 15.5906 10.5 13.5c0 -3.85251 3.1122 -6.97813 6.9596 -6.99989C18.466 3.86868 21.0148 2 24 2s5.534 1.86869 6.5404 4.50012C34.3878 6.52187 37.5 9.64749 37.5 13.5c0 2.0906 -0.9165 3.9671 -2.3695 5.2498 0.2396 0.7062 0.3695 1.463 0.3695 2.2502 0 3.866 -3.134 7 -7 7 -0.6972 0 -1.3706 -0.1019 -2.006 -0.2917 0.123 1.9942 0.2465 4.1898 0.3407 6.2962" stroke-width="3"></path>
    <path id="Vector_2" stroke="#000cfe" stroke-linecap="round" stroke-linejoin="round" d="M24 11c2.7614 0 5 2.2386 5 5s-2.2386 5 -5 5 -5 -2.2386 -5 -5 2.2386 -5 5 -5Z" stroke-width="3"></path>
    <path id="Vector_3" stroke="#000cfe" stroke-linecap="round" stroke-linejoin="round" d="M11.0075 36.1877c0.0677 -1.3926 1.4023 -2.0926 2.7964 -2.1162C15.7587 34.0383 19.082 34 24 34c4.918 0 8.2413 0.0383 10.1961 0.0715 1.3941 0.0236 2.7287 0.7236 2.7964 2.1162 0.0049 0.1001 0.0075 0.2042 0.0075 0.3123 0 0.1081 -0.0026 0.2122 -0.0075 0.3123 -0.0511 1.0516 -0.8246 1.7082 -1.8006 1.9769 -0.2244 1.2321 -0.5535 2.906 -0.9263 4.379 -0.4242 1.6762 -1.9038 2.7205 -3.6323 2.7645C29.1946 45.9694 27.0733 46 24 46s-5.1946 -0.0306 -6.6333 -0.0673c-1.7285 -0.044 -3.2081 -1.0883 -3.6323 -2.7645 -0.3728 -1.473 -0.7019 -3.1469 -0.9263 -4.379 -0.976 -0.2687 -1.7495 -0.9253 -1.8006 -1.9769C11.0026 36.7122 11 36.6081 11 36.5c0 -0.1081 0.0026 -0.2122 0.0075 -0.3123Z" stroke-width="3"></path>
  </g>
</svg>