<svg xmlns="http://www.w3.org/2000/svg" fill="none" viewBox="0 0 48 48" id="Recycle-Bin--Streamline-Plump-Neon">
  <desc>
    Recycle Bin Streamline Icon: https://streamlinehq.com
  </desc>
  <g id="recycle-bin--remove-delete-empty-bin-trash-garbage">
    <path id="Vector" stroke="#c71dff" stroke-linecap="round" stroke-linejoin="round" d="M7.01855 14.5547c0.08668 10.72 0.45688 20.0682 0.71691 25.4855 0.13828 2.8808 2.33674 5.2147 5.21084 5.4551 3.0063 0.2516 7.0307 0.5046 11.0545 0.5046 4.0234 0 8.0471 -0.253 11.0528 -0.5045 2.8741 -0.2405 5.0725 -2.5744 5.2107 -5.4551 0.2601 -5.4173 0.6303 -14.7655 0.717 -25.4856" stroke-width="3"></path>
    <path id="Vector_2" stroke="#000cfe" stroke-linecap="round" stroke-linejoin="round" d="M31.4785 7.08049c3.8832 0.08425 6.8745 0.21706 8.658 0.31063 1.2047 0.06321 2.3622 0.57242 2.9472 1.62747 0.3251 0.58639 0.6498 1.32931 0.8561 2.20511 0.0431 0.1828 0.0602 0.3709 0.0602 0.5587 0 1.4383 -1.0721 2.6358 -2.5068 2.7374 -2.899 0.2053 -8.4667 0.4802 -17.4924 0.4802 -9.0262 0 -14.59468 -0.275 -17.49405 -0.4802C5.07206 14.4182 4 13.2207 4 11.7824c0 -0.1878 0.01709 -0.3759 0.06017 -0.5587 0.20638 -0.8758 0.53105 -1.61872 0.85617 -2.20511 0.58496 -1.05505 1.74245 -1.56426 2.94714 -1.62747 1.7836 -0.09358 4.77512 -0.22639 8.65862 -0.31064C17.7266 4.03652 20.6792 2 24.0003 2c3.321 0 6.2736 2.0365 7.4782 5.08049Z" stroke-width="3"></path>
    <path id="Vector_3" stroke="#000cfe" stroke-linecap="round" stroke-linejoin="round" d="M20.5 36.5c-1.0236 0 -1.9308 -0.0582 -2.6819 -0.1349 -1.2253 -0.1251 -1.8772 -1.392 -1.3465 -2.5034C17.741 31.2033 19 29 19 29l-4.5 1" stroke-width="3"></path>
    <path id="Vector_4" stroke="#000cfe" stroke-linecap="round" stroke-linejoin="round" d="M21.5049 25.1962c0.5118 -0.8865 1.0158 -1.6431 1.4578 -2.2552 0.721 -0.9985 2.144 -0.9297 2.8412 0.0857 1.6676 2.4285 2.9462 4.6204 2.9462 4.6204L30.134 23.25" stroke-width="3"></path>
    <path id="Vector_5" stroke="#000cfe" stroke-linecap="round" stroke-linejoin="round" d="M30.4952 31.5537c0.5118 0.8865 0.915 1.7013 1.2241 2.3901 0.5043 1.1236 -0.2669 2.3216 -1.4948 2.4177 -2.9369 0.2299 -5.4745 0.2412 -5.4745 0.2412l3.116 3.3972" stroke-width="3"></path>
  </g>
</svg>