<svg xmlns="http://www.w3.org/2000/svg" fill="none" viewBox="0 0 24 24" id="Shipment-Search--Streamline-Ultimate">
  <desc>
    Shipment Search Streamline Icon: https://streamlinehq.com
  </desc>
  <path stroke="#000000" stroke-linecap="round" stroke-linejoin="round" d="M10.5 15.75c0 1.3924 0.5531 2.7277 1.5377 3.7123C13.0223 20.4469 14.3576 21 15.75 21c1.3924 0 2.7277 -0.5531 3.7123 -1.5377C20.4469 18.4777 21 17.1424 21 15.75c0 -1.3924 -0.5531 -2.7277 -1.5377 -3.7123 -0.9846 -0.9846 -2.3199 -1.5377 -3.7123 -1.5377 -1.3924 0 -2.7277 0.5531 -3.7123 1.5377 -0.9846 0.9846 -1.5377 2.3199 -1.5377 3.7123Z" stroke-width="1"></path>
  <path stroke="#000000" stroke-linecap="round" stroke-linejoin="round" d="m23.25 23.2499 -3.788 -3.788" stroke-width="1"></path>
  <path stroke="#000000" stroke-linecap="round" stroke-linejoin="round" d="M8.25 18.75h-6c-0.39782 0 -0.77936 -0.158 -1.06066 -0.4393C0.908035 18.0294 0.75 17.6478 0.75 17.25V6.75c0 -0.39782 0.158035 -0.77936 0.43934 -1.06066 0.2813 -0.2813 0.66284 -0.43934 1.06066 -0.43934h15c0.3978 0 0.7794 0.15804 1.0607 0.43934s0.4393 0.66284 0.4393 1.06066v1.5" stroke-width="1"></path>
  <path stroke="#000000" stroke-linecap="round" stroke-linejoin="round" d="m18.266 5.647 -2.821 -4.229c-0.1367 -0.20505 -0.3218 -0.37326 -0.5389 -0.489765C14.6889 0.811727 14.4464 0.750511 14.2 0.75H5.30001c-0.24693 0.000018 -0.49005 0.060998 -0.70775 0.177528 -0.21771 0.116532 -0.40329 0.285002 -0.54025 0.490472l-2.818 4.229" stroke-width="1"></path>
  <path stroke="#000000" stroke-linecap="round" stroke-linejoin="round" d="M9.75 0.75v4.5" stroke-width="1"></path>
</svg>