<svg xmlns="http://www.w3.org/2000/svg" fill="none" viewBox="0 0 14 14" id="Record-Player--Streamline-Flex-Remix">
  <desc>
    Record Player Streamline Icon: https://streamlinehq.com
  </desc>
  <g id="record-player--music-audio-note-record-player-vinyl-disc-entertainment">
    <path id="Union" fill="#000000" fill-rule="evenodd" d="M10.6846 0.293213c-0.2762 0 -0.5 0.223858 -0.5 0.5V4.63952c0 0.27614 0.2238 0.5 0.5 0.5h0.6569v1.8866c0 0.57907 -0.3628 1.09607 -0.9074 1.29302l-2.74238 0.99192c-0.3246 0.1174 -0.49256 0.47571 -0.37516 0.80034 0.1174 0.3246 0.47572 0.4925 0.80032 0.3751l2.74242 -0.99188c1.0396 -0.37601 1.7322 -1.36301 1.7322 -2.4685v-1.8866h0.6573c0.2761 0 0.5 -0.22386 0.5 -0.5V0.793213c0 -0.276142 -0.2239 -0.5 -0.5 -0.5h-2.5642ZM5.51367 9.79663c-0.48325 0 -0.875 -0.39175 -0.875 -0.875v-0.5c0 -0.48325 0.39175 -0.875 0.875 -0.875s0.875 0.39175 0.875 0.875v0.5c0 0.48325 -0.39175 0.875 -0.875 0.875ZM1.47852 8.66577c0 -1.33808 0.3744 -2.2952 0.9976 -2.91841 0.62321 -0.6232 1.58033 -0.9976 2.91841 -0.9976 1.9202 0 3.08471 0.76163 3.59845 2.04916 0.12792 0.3206 0.49152 0.47679 0.81212 0.34886 0.3206 -0.12792 0.4768 -0.49152 0.3489 -0.81212 -0.74887 -1.87671 -2.4628 -2.8359 -4.75947 -2.8359 -1.56817 0 -2.88155 0.44298 -3.80229 1.36372C0.671497 5.78422 0.228516 7.0976 0.228516 8.66577c0 1.56813 0.442981 2.88153 1.363724 3.80233 0.92074 0.9207 2.23412 1.3637 3.80229 1.3637 1.49666 0 2.76163 -0.4032 3.67585 -1.2426 0.25426 -0.2334 0.27113 -0.6288 0.03768 -0.8831 -0.23345 -0.2542 -0.62882 -0.2711 -0.88308 -0.0376 -0.62245 0.5715 -1.55258 0.9133 -2.83045 0.9133 -1.33808 0 -2.2952 -0.3744 -2.91841 -0.9976 -0.6232 -0.6232 -0.9976 -1.5803 -0.9976 -2.91843Z" clip-rule="evenodd" stroke-width="1"></path>
  </g>
</svg>