<svg xmlns="http://www.w3.org/2000/svg" fill="none" viewBox="0 0 14 14" id="Recording-Tape-Bubble-Circle--Streamline-Flex-Remix">
  <desc>
    Recording Tape Bubble Circle Streamline Icon: https://streamlinehq.com
  </desc>
  <g id="recording-tape-bubble-circle--phone-device-mail-mobile-voice-machine-answering-chat-entertainment">
    <path id="Union" fill="#000000" fill-rule="evenodd" d="M3.10779 2.6677C2.21 3.56614 1.6902 4.92812 1.6902 6.78446c0 1.13368 0.19466 2.08383 0.54846 2.85344 0.0687 0.14944 0.07573 0.31993 0.01956 0.4745l-0.93331 2.5685 2.67863 -0.8935c0.14695 -0.0491 0.30686 -0.0418 0.44873 0.0204 0.754 0.3306 1.67606 0.5118 2.76866 0.5118 1.85466 0 3.21537 -0.52 4.11307 -1.4184 0.8978 -0.8984 1.4176 -2.2604 1.4176 -4.11674 0 -1.85634 -0.5198 -3.21832 -1.4176 -4.11676 -0.8977 -0.89838 -2.25841 -1.41843 -4.11307 -1.41843 -1.85467 0 -3.21541 0.52005 -4.11314 1.41843Zm-0.8842 -0.88356C3.41881 0.588048 5.13593 -0.000732422 7.22093 -0.000732422c2.085 0 3.80207 0.588780422 4.99727 1.784872422 1.1952 1.19602 1.7834 2.91414 1.7834 5.00032s-0.5882 3.80434 -1.7834 5.00034c-1.1952 1.1961 -2.91227 1.7848 -4.99727 1.7848 -1.13053 0 -2.15218 -0.1724 -3.04337 -0.5226l-2.67693 0.893c-0.904132 0.3016 -1.754324 -0.5749 -1.4294942 -1.4688L0.998395 9.91938C0.624333 9.00675 0.440202 7.95376 0.440202 6.78446c0 -2.08618 0.588228 -3.8043 1.783388 -5.00032Zm4.45304 6.00239c0.12348 -0.27713 0.17806 -0.5872 0.17806 -0.90762 0 -0.5359 -0.15266 -1.04283 -0.52501 -1.41518 -0.37235 -0.37235 -0.87928 -0.52501 -1.41518 -0.52501 -0.5359 0 -1.04283 0.15266 -1.41518 0.52501 -0.37235 0.37235 -0.52501 0.87928 -0.52501 1.41518 0 0.5359 0.15266 1.04283 0.52501 1.41518 0.29698 0.29698 0.67957 0.45421 1.0942 0.50569l0.01912 0.00302c0.04722 0.00736 0.11534 0.0178 0.20012 0.03029 0.1694 0.02496 0.40609 0.05821 0.67594 0.0915 0.5325 0.06568 1.22078 0.13492 1.77651 0.13492 0.55573 0 1.24401 -0.06924 1.77651 -0.13492 0.26985 -0.03329 0.50654 -0.06654 0.67594 -0.0915 0.06574 -0.00968 0.12146 -0.01814 0.16518 -0.02488 0.44456 -0.04077 0.85686 -0.19855 1.17236 -0.51412 0.3724 -0.37235 0.525 -0.87928 0.525 -1.41518 0 -0.5359 -0.1526 -1.04283 -0.525 -1.41518 -0.3723 -0.37235 -0.8793 -0.52501 -1.41511 -0.52501 -0.53591 0 -1.04284 0.15266 -1.41519 0.52501 -0.37235 0.37235 -0.525 0.87928 -0.525 1.41518 0 0.3198 0.05436 0.62927 0.17733 0.90599 -0.21692 0.01526 -0.42597 0.02461 -0.61202 0.02461 -0.17934 0 -0.38005 -0.00869 -0.58858 -0.02298Z" clip-rule="evenodd" stroke-width="1"></path>
  </g>
</svg>