<svg xmlns="http://www.w3.org/2000/svg" fill="none" viewBox="0 0 14 14" id="Speaker-1--Streamline-Flex-Remix">
  <desc>
    Speaker 1 Streamline Icon: https://streamlinehq.com
  </desc>
  <g id="speaker-1--speaker-music-audio-subwoofer-entertainment">
    <path id="Union" fill="#000000" fill-rule="evenodd" d="M7 0.488101c-0.8462 0 -1.65587 0.161711 -2.39887 0.456266C3.58662 -0.00213832 1.9966 0.0190066 1.0078 1.0078 0.0190067 1.9966 -0.00213844 3.58662 0.944367 4.60113 0.649812 5.34413 0.488101 6.1538 0.488101 7c0 0.8462 0.161712 1.65587 0.456268 2.39888 -0.94643883 1.01452 -0.9252704 2.60452 0.063501 3.59322 0.98877 0.9888 2.57874 1.01 3.59325 0.0635 0.74301 0.2946 1.55268 0.4563 2.39888 0.4563 0.8462 0 1.65587 -0.1617 2.39888 -0.4563 1.01452 0.9465 2.60452 0.9253 3.59322 -0.0635 0.9888 -0.9887 1.01 -2.5787 0.0635 -3.59322 0.2946 -0.74301 0.4563 -1.55268 0.4563 -2.39888 0 -0.8462 -0.1617 -1.65587 -0.4563 -2.39887 0.9465 -1.01451 0.9254 -2.60453 -0.0634 -3.59333 -0.9888 -0.9887939 -2.5788 -1.00993844 -3.59333 -0.063431C8.65587 0.649814 7.8462 0.488101 7 0.488101ZM1.89169 1.89169c0.52224 -0.52225 1.36898 -0.52225 1.89122 0l0.23708 0.23707c0.18741 0.18742 0.47266 0.23624 0.71174 0.12183C5.4178 1.92227 6.18652 1.7381 7 1.7381c0.81348 0 1.5822 0.18417 2.26827 0.51249 0.23908 0.11441 0.52433 0.06559 0.71174 -0.12183l0.23709 -0.23707c0.5222 -0.52225 1.369 -0.52225 1.8912 0 0.5223 0.52224 0.5223 1.36897 0 1.89122l-0.2371 0.23708c-0.1874 0.18741 -0.2362 0.47266 -0.1218 0.71174 0.3283 0.68607 0.5125 1.45479 0.5125 2.26827 0 0.81348 -0.1842 1.5822 -0.5125 2.26827 -0.1144 0.23908 -0.0656 0.52433 0.1218 0.71174l0.237 0.23699c0.5223 0.5223 0.5223 1.369 0 1.8912 -0.5222 0.5223 -1.3689 0.5223 -1.8912 0l-0.23699 -0.237c-0.18741 -0.1874 -0.47266 -0.2362 -0.71174 -0.1218 -0.68607 0.3283 -1.45479 0.5125 -2.26827 0.5125 -0.81348 0 -1.5822 -0.1842 -2.26827 -0.5125 -0.23908 -0.1144 -0.52433 -0.0656 -0.71174 0.1218l-0.23701 0.237c-0.52225 0.5223 -1.36898 0.5223 -1.89123 0 -0.52224 -0.5222 -0.52224 -1.3689 0 -1.8912l0.23701 -0.23699c0.18742 -0.18741 0.23624 -0.47266 0.12183 -0.71174C1.92227 8.5822 1.7381 7.81348 1.7381 7c0 -0.81348 0.18417 -1.5822 0.51249 -2.26827 0.11441 -0.23908 0.06559 -0.52433 -0.12183 -0.71174l-0.23707 -0.23708c-0.52225 -0.52225 -0.52225 -1.36898 0 -1.89122Zm5.10884 1.91886c-0.98681 0 -1.79306 0.27831 -2.35236 0.83762 -0.55931 0.5593 -0.83762 1.36555 -0.83762 2.35236s0.27831 1.79306 0.83762 2.35236c0.5593 0.55931 1.36555 0.83761 2.35236 0.83761s1.79306 -0.2783 2.35236 -0.83761c0.55931 -0.5593 0.83761 -1.36555 0.83761 -2.35236s-0.2783 -1.79306 -0.83761 -2.35236c-0.5593 -0.55931 -1.36555 -0.83762 -2.35236 -0.83762Zm0.8608 3.19043c0 0.4757 -0.38563 0.86132 -0.86133 0.86132 -0.4757 0 -0.86133 -0.38562 -0.86133 -0.86132 0 -0.4757 0.38563 -0.86133 0.86133 -0.86133 0.4757 0 0.86133 0.38563 0.86133 0.86133Z" clip-rule="evenodd" stroke-width="1"></path>
  </g>
</svg>