<svg xmlns="http://www.w3.org/2000/svg" fill="none" viewBox="0 0 14 14" id="Volume-Mute--Streamline-Flex-Remix">
  <desc>
    Volume Mute Streamline Icon: https://streamlinehq.com
  </desc>
  <g id="volume-mute--speaker-remove-volume-control-audio-music-mute-off-cross-entertainment">
    <path id="Union" fill="#000000" fill-rule="evenodd" d="M6.12703 2.50422c0.23198 -0.28995 0.43472 -0.27432 0.54761 -0.22696 0.1441 0.06046 0.34054 0.25971 0.35788 0.65824 0.04317 0.99205 0.07806 2.33024 0.07806 4.06448 0 1.73425 -0.03489 3.07242 -0.07806 4.06452 -0.01734 0.3985 -0.21378 0.5978 -0.35788 0.6582 -0.11289 0.0474 -0.31563 0.063 -0.54761 -0.227 -0.16008 -0.2 -0.31569 -0.4119 -0.46342 -0.6297 -0.50813 -0.7494 -1.35533 -1.23979 -2.29014 -1.29668 -0.29785 -0.01812 -0.54668 -0.04279 -0.75683 -0.0709 -0.63235 -0.08459 -1.11981 -0.58109 -1.23283 -1.18982C1.30542 7.88637 1.25 7.42963 1.25 6.99998c0 -0.42964 0.05542 -0.88638 0.13381 -1.30861 0.11302 -0.60873 0.60048 -1.10523 1.23283 -1.18982 0.21015 -0.02811 0.45898 -0.05278 0.75683 -0.0709 0.93481 -0.05689 1.78201 -0.54725 2.29014 -1.29665 0.14773 -0.21788 0.30334 -0.42969 0.46342 -0.62978Zm2.15431 0.37693c-0.03489 -0.80171 -0.46335 -1.47978 -1.12313 -1.75656 -0.69098 -0.289885 -1.47109 -0.0714 -2.00724 0.59873 -0.18179 0.22722 -0.35683 0.46565 -0.52196 0.70917 -0.29046 0.42837 -0.78343 0.71712 -1.33146 0.75047 -0.32423 0.01973 -0.60325 0.04707 -0.84664 0.07963 -1.20139 0.1607 -2.090712 1.09439 -2.296093 2.2006C0.0674056 5.934 0 6.47076 0 6.99998c0 0.52923 0.0674056 1.06599 0.154817 1.5368 0.20538 1.10621 1.094703 2.03992 2.296093 2.20062 0.24338 0.0325 0.52241 0.0599 0.84664 0.0796 0.54803 0.0334 1.041 0.3221 1.33146 0.7505 0.16513 0.2435 0.34017 0.4819 0.52196 0.7091 0.53615 0.6702 1.31626 0.8887 2.00724 0.5988 0.65978 -0.2768 1.08824 -0.9549 1.12313 -1.7566 0.04402 -1.0115 0.07924 -2.36788 0.07924 -4.11882 0 -1.75093 -0.03522 -3.1073 -0.07924 -4.11883Zm5.49806 2.12369c0.2934 0.29234 0.2934 0.76631 0 1.05865l-0.9394 0.93584 0.9403 0.93671c0.2934 0.29234 0.2934 0.76632 0 1.05866 -0.2935 0.29234 -0.7693 0.29234 -1.0627 0l-0.9403 -0.93671 -0.9402 0.93671c-0.2935 0.29234 -0.7692 0.29234 -1.06267 0 -0.29344 -0.29234 -0.29344 -0.76632 0 -1.05866l0.94027 -0.93671 -0.93939 -0.93584c-0.29344 -0.29234 -0.29344 -0.76631 0 -1.05865 0.29349 -0.29235 0.76919 -0.29235 1.06269 0l0.9393 0.93583 0.9394 -0.93583c0.2935 -0.29235 0.7692 -0.29235 1.0627 0Z" clip-rule="evenodd" stroke-width="1"></path>
  </g>
</svg>