<svg xmlns="http://www.w3.org/2000/svg" fill="none" viewBox="0 0 48 48" id="Dices-Entertainment-Gaming-Dices--Streamline-Plump">
  <desc>
    Dices Entertainment Gaming Dices Streamline Icon: https://streamlinehq.com
  </desc>
  <g id="dices-entertainment-gaming-dices">
    <path id="Union" fill="#000000" fill-rule="evenodd" d="M11.2697 2.9622c-2.08058 0.55749 -3.77348 1.06202 -5.11667 1.49172C2.97502 5.47058 1.16295 8.60917 1.8715 11.8697c0.29947 1.3781 0.70899 3.0965 1.26648 5.1771 0.5575 2.0806 1.06203 3.7735 1.49172 5.1167 1.01666 3.178 4.15525 4.99 7.4158 4.2815 1.3781 -0.2995 3.0965 -0.709 5.177 -1.2665 2.0806 -0.5575 3.7735 -1.062 5.1167 -1.4917 3.178 -1.0167 4.9901 -4.1553 4.2816 -7.4158 -0.2995 -1.3781 -0.709 -3.0965 -1.2665 -5.1771 -0.5575 -2.08056 -1.0621 -3.77347 -1.4917 -5.11666 -1.0167 -3.17801 -4.1553 -4.990069 -7.4159 -4.28152 -1.378 0.29947 -3.0964 0.70899 -5.177 1.26648Zm3.8109 13.7295c1.3929 -0.4419 2.2047 -1.9065 1.8226 -3.3325 -0.3931 -1.467 -1.901 -2.3376 -3.368 -1.9445 -0.0413 0.0111 -0.082 0.0234 -0.122 0.0368 -1.393 0.4419 -2.2048 1.9065 -1.8227 3.3324 0.3931 1.4671 1.901 2.3377 3.368 1.9446 0.0414 -0.0111 0.082 -0.0234 0.1221 -0.0368Zm16.0153 28.6645c2.0806 0.5575 3.7989 0.967 5.177 1.2665 3.2606 0.7086 6.3992 -1.1035 7.4158 -4.2815 0.4297 -1.3432 0.9343 -3.0361 1.4917 -5.1167 0.5575 -2.0806 0.9671 -3.7989 1.2665 -5.177 0.7086 -3.2606 -1.1035 -6.3992 -4.2815 -7.4158 -1.3432 -0.4297 -3.0361 -0.9343 -5.1167 -1.4918s-3.7989 -0.967 -5.177 -1.2664c-3.2606 -0.7086 -6.3992 1.1035 -7.4158 4.2815 -0.4297 1.3432 -0.9343 3.0361 -1.4917 5.1167 -0.5575 2.0806 -0.9671 3.7989 -1.2665 5.177 -0.7086 3.2606 1.1035 6.3992 4.2815 7.4158 1.3432 0.4297 3.0361 0.9342 5.1167 1.4917Zm7.5625 -16.0888c-1.4335 -0.3258 -2.8801 0.538 -3.2639 1.9704 -0.393 1.467 0.4776 2.9749 1.9446 3.368 0.02 0.0054 0.04 0.0104 0.06 0.0151 0.0148 0.0035 0.0295 0.0068 0.0443 0.0099 1.4336 0.3258 2.8801 -0.538 3.2639 -1.9703 0.3931 -1.467 -0.4775 -2.9749 -1.9445 -3.368 -0.0348 -0.0093 -0.0696 -0.0177 -0.1044 -0.0251Zm-9.1759 9.9603c-0.0348 -0.0074 -0.0695 -0.0157 -0.1043 -0.025 -1.467 -0.3931 -2.3376 -1.901 -1.9445 -3.3681 0.3838 -1.4323 1.8303 -2.2961 3.2639 -1.9703 0.0348 0.0074 0.0695 0.0157 0.1043 0.025 1.467 0.3931 2.3376 1.9011 1.9445 3.3681 -0.3838 1.4323 -1.8303 2.2961 -3.2639 1.9703Z" clip-rule="evenodd" stroke-width="1"></path>
  </g>
</svg>