<svg xmlns="http://www.w3.org/2000/svg" fill="none" viewBox="0 0 48 48" id="Music-Note-Trebble-Clef--Streamline-Plump">
  <desc>
    Music Note Trebble Clef Streamline Icon: https://streamlinehq.com
  </desc>
  <g id="music-note-trebble-clef--music-audio-note-trebble-clef-entertainment">
    <path id="Union" fill="#000000" d="M28.5098 7.55763C28.5445 5.96214 29.5474 5 31 5c1.3081 0 2.4038 1.01912 2.4721 2.61566 0.0175 0.41087 0.0279 0.85163 0.0279 1.31982 0 2.15562 -2.0996 4.05632 -4.8958 3.97362 -0.8086 -0.0238 -1.6789 -0.0381 -2.6042 -0.0381 -0.2373 0 -0.4735 0.0009 -0.7084 0.0027C18.4639 12.926 13 18.3323 13 25.1935c0 6.5977 5.3032 11.5909 11.745 11.7559 0.0847 0.0022 0.1698 0.0043 0.255 0.0064V38.5c0 1.2699 -0.5918 2.4016 -1.5146 3.1344C23.2993 39.3201 21.3622 37.5 19 37.5c-2.4853 0 -4.5 2.0147 -4.5 4.5s2.0147 4.5 4.5 4.5h2c4.4183 0 8 -3.5817 8 -8v-1.501c1.1274 -0.0046 2.1626 -0.0243 3.1028 -0.0538C36.9974 36.7919 41 33.1266 41 28.0323c0 -4.8867 -3.8811 -8.2186 -8.4391 -8.4358C31.3705 19.5398 30.1338 19.5 29 19.5c-1.3471 0 -2.5338 0.0561 -3.526 0.1326 -2.6412 0.2037 -5.512 2.1607 -5.5399 5.4563 -0.0278 3.2723 2.8824 5.0532 5.3076 5.2757 0.8388 0.0769 1.7917 0.1354 2.7583 0.1354h4c1.1046 0 2 -0.8954 2 -2s-0.8963 -2 -2.0009 -2H28c-0.8125 0 -1.6387 -0.0495 -2.3928 -0.1187 -0.5396 -0.0495 -1.0063 -0.2593 -1.3027 -0.519 -0.2734 -0.2396 -0.3727 -0.4835 -0.3706 -0.7395 0.0052 -0.6037 0.6009 -1.4059 1.8477 -1.502 0.8982 -0.0693 1.982 -0.1208 3.2184 -0.1208 1.0482 0 2.2167 0.037 3.3705 0.092C35.1264 23.7233 37 25.5967 37 28.0323c0 2.7392 -2.0872 4.8229 -5.0224 4.9149C30.9411 32.9796 29.7805 33 28.5 33c-1.2301 0 -2.4628 -0.0188 -3.6526 -0.0493C20.4188 32.8373 17 29.4698 17 25.1935c0 -4.6307 3.6583 -8.2842 8.3222 -8.3199 0.225 -0.0017 0.451 -0.0026 0.6778 -0.0026 0.8842 0 1.7151 0.0136 2.4861 0.0364 4.3829 0.1295 9.0139 -2.9452 9.0139 -7.97192 0 -0.52711 -0.0117 -1.02487 -0.0316 -1.49067C37.3213 4.00306 34.7348 1 31 1c-3.7698 0 -6.4105 2.84518 -6.4893 6.47076 -0.0069 0.32102 -0.0107 0.66362 -0.0107 1.02924 0 1.10457 0.8954 2 2 2s2 -0.89543 2 -2c0 -0.33815 0.0035 -0.65175 0.0098 -0.94237Z" stroke-width="1"></path>
  </g>
</svg>