<svg xmlns="http://www.w3.org/2000/svg" fill="none" viewBox="0 0 48 48" id="Pacman--Streamline-Plump">
  <desc>
    Pacman Streamline Icon: https://streamlinehq.com
  </desc>
  <g id="pacman--entertainment-gaming-pacman-video">
    <path id="Subtract" fill="#000000" fill-rule="evenodd" d="M1.5 24C1.5 11.5736 11.5736 1.5 24 1.5c7.2117 0 13.6314 3.39458 17.7466 8.667 1.2837 1.6448 0.6849 3.8818 -0.9111 4.8975L26.7939 24l14.0416 8.9355c1.596 1.0157 2.1948 3.2527 0.9111 4.8975C37.6314 43.1054 31.2117 46.5 24 46.5 11.5736 46.5 1.5 36.4264 1.5 24ZM23 13.5c0 -1.3807 -1.1193 -2.5 -2.5 -2.5S18 12.1193 18 13.5s1.1193 2.5 2.5 2.5 2.5 -1.1193 2.5 -2.5Z" clip-rule="evenodd" stroke-width="1"></path>
  </g>
</svg>