<svg xmlns="http://www.w3.org/2000/svg" fill="none" viewBox="0 0 24 24" id="Github-Logo-1--Streamline-Logos">
  <desc>
    Github Logo 1 Streamline Icon: https://streamlinehq.com
  </desc>
  <path stroke="#000000" stroke-linejoin="round" d="M9.136 5.795s0.883 -0.477 2.864 -0.477c1.981 0 2.864 0.477 2.864 0.477 1.856 -1.64 3.033 -2.204 5.25 -2.863 0.86 2.04 1.002 3.187 0.954 5.25 0 0 1.432 1.115 1.432 4.772 0 6.322 -5.239 8.114 -10.5 8.114S1.5 19.276 1.5 12.954c0 -3.657 1.432 -4.772 1.432 -4.772 -0.049 -2.063 0.094 -3.21 0.954 -5.25 2.217 0.66 3.394 1.222 5.25 2.863Z" stroke-width="1"></path>
  <path stroke="#000000" stroke-linejoin="round" d="M4.524 13.78C4.9 9.254 9.21 10.978 12 10.979c2.791 0 7.1 -1.725 7.476 2.803 0.428 5.156 -4.866 4.672 -7.476 4.672 -2.61 0 -7.904 0.484 -7.476 -4.672Z" stroke-width="1"></path>
  <path stroke="#000000" stroke-linejoin="round" d="M7.75 14.5a1 1.5 0 1 0 2 0 1 1.5 0 1 0 -2 0" stroke-width="1"></path>
  <path stroke="#000000" stroke-linejoin="round" d="M14.25 14.5a1 1.5 0 1 0 2 0 1 1.5 0 1 0 -2 0" stroke-width="1"></path>
</svg>