<svg xmlns="http://www.w3.org/2000/svg" fill="none" viewBox="0 0 14 14" id="Camera-Setting-Gear--Streamline-Flex">
  <desc>
    Camera Setting Gear Streamline Icon: https://streamlinehq.com
  </desc>
  <g id="camera-setting-gear">
    <path id="Subtract" stroke="#000000" stroke-linecap="round" stroke-linejoin="round" d="M6.10715 3.68905c-0.47241 0.00771 -0.94557 0.04419 -1.42504 0.10944 -0.27828 0.03787 -0.51641 0.21491 -0.6445 0.46485l-0.55239 1.07785c-0.31602 0.0244 -0.62943 0.05037 -0.94001 0.07611l-0.13338 0.01104c-0.85276 0.07057 -1.554522 0.70538 -1.681089 1.5243C0.610266 7.73215 0.5 8.53556 0.5 9.35644c0 0.82086 0.110267 1.62426 0.230742 2.40376 0.126566 0.819 0.828328 1.4538 1.681088 1.5243l0.13337 0.0111c1.21177 0.1004 2.4666 0.2044 3.75194 0.2044 1.28536 0 2.54021 -0.104 3.75196 -0.2044l0.1333 -0.0111c0.8528 -0.0705 1.5546 -0.7053 1.6811 -1.5243 0.1205 -0.7795 0.2308 -1.5829 0.2308 -2.40376 0 -0.31343 -0.0161 -0.62431 -0.0427 -0.93228" stroke-width="1"></path>
    <path id="Vector" stroke="#000000" stroke-linecap="round" stroke-linejoin="round" d="M8.30393 9.17539c0 1.28431 -0.72241 2.00671 -2.0067 2.00671s-2.0067 -0.7224 -2.0067 -2.00671c0 -1.28428 0.72241 -2.0067 2.0067 -2.0067" stroke-width="1"></path>
    <path id="Vector_2" stroke="#000000" stroke-linecap="round" stroke-linejoin="round" d="M13.0563 3.8315c0 0.02413 0.0081 0.04758 0.0231 0.06651l0.3184 0.40119c0.0577 0.07211 0.0922 0.15992 0.0991 0.25195 0.0069 0.09204 -0.0141 0.18402 -0.0603 0.26393l-0.1867 0.32318c-0.0461 0.07998 -0.1152 0.14421 -0.1983 0.18429 -0.0831 0.04009 -0.1764 0.05416 -0.2677 0.04039l-0.5074 -0.07717c-0.0239 -0.00336 -0.0484 0.00128 -0.0694 0.01322l-0.6012 0.34705c-0.0209 0.0123 -0.0371 0.0312 -0.046 0.05372l-0.1872 0.47751c-0.0335 0.08583 -0.0921 0.15957 -0.1682 0.21159 -0.076 0.05203 -0.166 0.07992 -0.2582 0.08003h-0.3734c-0.0922 -0.00011 -0.1822 -0.028 -0.2582 -0.08003 -0.0761 -0.05202 -0.1347 -0.12576 -0.1682 -0.21159l-0.18716 -0.47751c-0.00896 -0.02252 -0.02516 -0.04142 -0.04605 -0.05372l-0.60115 -0.34705c-0.02107 -0.01197 -0.04551 -0.01661 -0.0695 -0.01322l-0.50735 0.07717c-0.09127 0.01377 -0.18456 -0.0003 -0.2677 -0.04039 -0.08313 -0.04008 -0.15225 -0.10431 -0.1983 -0.18429l-0.18674 -0.32318c-0.04618 -0.07991 -0.06718 -0.17189 -0.06026 -0.26393 0.00692 -0.09203 0.04144 -0.17984 0.09905 -0.25195l0.32019 -0.40119c0.01499 -0.01893 0.0231 -0.04238 0.02302 -0.06651v-0.6941c0.00008 -0.02414 -0.00803 -0.04759 -0.02302 -0.06651l-0.32019 -0.4012c-0.05761 -0.0721 -0.09213 -0.15991 -0.09905 -0.25195 -0.00692 -0.09203 0.01408 -0.18402 0.06026 -0.26393l0.18674 -0.32317c0.04605 -0.07999 0.11517 -0.14421 0.1983 -0.1843 0.08314 -0.04008 0.17643 -0.05416 0.2677 -0.04039l0.50607 0.07717c0.02399 0.0034 0.04843 -0.00125 0.0695 -0.01322l0.60243 -0.34875c0.02089 -0.0123 0.03709 -0.0312 0.04605 -0.05372l0.18806 -0.475807c0.0335 -0.085834 0.0921 -0.159572 0.1681 -0.211594 0.0761 -0.052022 0.1661 -0.079911 0.2582 -0.080029h0.3743c0.0922 0.000118 0.1822 0.028007 0.2582 0.080029 0.0761 0.052022 0.1347 0.12576 0.1682 0.211594l0.1872 0.475807c0.0086 0.02315 0.0248 0.04269 0.046 0.05542l0.6012 0.34705c0.021 0.01194 0.0455 0.01659 0.0695 0.01322l0.5073 -0.07717c0.0913 -0.01377 0.1846 0.00031 0.2677 0.04039 0.0831 0.04009 0.1522 0.10431 0.1983 0.1843l0.1867 0.32317c0.0462 0.07991 0.0672 0.1719 0.0603 0.26393 -0.0069 0.09204 -0.0414 0.17985 -0.099 0.25195l-0.3202 0.4012c-0.015 0.01892 -0.0231 0.04237 -0.0231 0.06651v0.6941Z" stroke-width="1"></path>
    <path id="Union" stroke="#000000" stroke-linecap="round" stroke-linejoin="round" d="M10.7583 3.9845c-0.32 0 -0.5 -0.18 -0.5 -0.5s0.18 -0.5 0.5 -0.5" stroke-width="1"></path>
    <path id="Union_2" stroke="#000000" stroke-linecap="round" stroke-linejoin="round" d="M10.7615 3.9845c0.32 0 0.5 -0.18 0.5 -0.5s-0.18 -0.5 -0.5 -0.5" stroke-width="1"></path>
  </g>
</svg>