<svg xmlns="http://www.w3.org/2000/svg" fill="none" viewBox="0 0 14 14" id="Flash-Warning--Streamline-Flex">
  <desc>
    Flash Warning Streamline Icon: https://streamlinehq.com
  </desc>
  <g id="flash-warning--flash-warning-alert-camera-light">
    <g id="Group 5504">
      <g id="Group 5359">
        <path id="Vector" stroke="#000000" stroke-linecap="round" stroke-linejoin="round" d="M8.008 13.25H6.886c0.505 -2.539 1.192 -4.2 3.096 -6.083 1.84 1.909 2.506 3.508 3.096 6.083h-1.011" stroke-width="1"></path>
        <path id="Vector 2321" stroke="#000000" stroke-linecap="round" stroke-linejoin="round" d="m9.982 10.208 0 1.155" stroke-width="1"></path>
        <path id="Vector 2322" stroke="#000000" stroke-linecap="round" stroke-linejoin="round" d="m9.982 13.036 0 0.214" stroke-width="1"></path>
      </g>
      <path id="Vector_2" stroke="#000000" stroke-linecap="round" stroke-linejoin="round" d="M3.235 9.117v-3.26H1.25a0.493 0.493 0 0 1 -0.405 -0.78C1.947 3.542 3.075 2.175 4.476 0.924c0.313 -0.28 0.796 -0.051 0.796 0.368v3.26h1.984c0.403 0 0.64 0.452 0.405 0.78 -1.101 1.535 -2.23 2.902 -3.63 4.153 -0.314 0.28 -0.796 0.051 -0.796 -0.368Z" stroke-width="1"></path>
    </g>
  </g>
</svg>