<svg xmlns="http://www.w3.org/2000/svg" fill="none" viewBox="0 0 14 14" id="Polaroid-Four--Streamline-Flex">
  <desc>
    Polaroid Four Streamline Icon: https://streamlinehq.com
  </desc>
  <g id="polaroid-four--photos-camera-polaroid-picture-photography-pictures-four-photo-image">
    <path id="Rectangle 49" stroke="#000000" stroke-linecap="round" stroke-linejoin="round" d="M0.75 1.75c0 -0.55228 0.44772 -1 1 -1h3c0.55228 0 1 0.44772 1 1v3c0 0.55228 -0.44772 1 -1 1h-3c-0.55228 0 -1 -0.44772 -1 -1v-3Z" stroke-width="1"></path>
    <path id="Rectangle 51" stroke="#000000" stroke-linecap="round" stroke-linejoin="round" d="M0.75 9.25c0 -0.55228 0.44772 -1 1 -1h3c0.55228 0 1 0.44772 1 1v3c0 0.5523 -0.44772 1 -1 1h-3c-0.55228 0 -1 -0.4477 -1 -1v-3Z" stroke-width="1"></path>
    <path id="Rectangle 50" stroke="#000000" stroke-linecap="round" stroke-linejoin="round" d="M8.25 1.75c0 -0.55228 0.44772 -1 1 -1h3c0.5523 0 1 0.44772 1 1v3c0 0.55228 -0.4477 1 -1 1h-3c-0.55228 0 -1 -0.44772 -1 -1v-3Z" stroke-width="1"></path>
    <path id="Rectangle 52" stroke="#000000" stroke-linecap="round" stroke-linejoin="round" d="M8.25 9.25c0 -0.55228 0.44772 -1 1 -1h3c0.5523 0 1 0.44772 1 1v3c0 0.5523 -0.4477 1 -1 1h-3c-0.55228 0 -1 -0.4477 -1 -1v-3Z" stroke-width="1"></path>
    <path id="Intersect" stroke="#000000" stroke-linecap="round" stroke-linejoin="round" d="M5.75 3.5v1.25c0 0.55228 -0.44772 1 -1 1h-3c-0.55228 0 -1 -0.44772 -1 -1V3.5h5Z" stroke-width="1"></path>
    <path id="Intersect_2" stroke="#000000" stroke-linecap="round" stroke-linejoin="round" d="M5.75 11v1.25c0 0.5523 -0.44772 1 -1 1h-3c-0.55228 0 -1 -0.4477 -1 -1V11h5Z" stroke-width="1"></path>
    <path id="Intersect_3" stroke="#000000" stroke-linecap="round" stroke-linejoin="round" d="M13.25 3.5v1.25c0 0.55228 -0.4477 1 -1 1h-3c-0.55228 0 -1 -0.44772 -1 -1V3.5h5Z" stroke-width="1"></path>
    <path id="Intersect_4" stroke="#000000" stroke-linecap="round" stroke-linejoin="round" d="M13.25 11v1.25c0 0.5523 -0.4477 1 -1 1h-3c-0.55228 0 -1 -0.4477 -1 -1V11h5Z" stroke-width="1"></path>
  </g>
</svg>