<svg xmlns="http://www.w3.org/2000/svg" fill="none" viewBox="0 0 14 14" id="Align-Selection--Streamline-Flex-Gradient">
  <desc>
    Align Selection Streamline Icon: https://streamlinehq.com
  </desc>
  <g id="align-selection">
    <path id="Union" fill="url(#paint0_linear_9371_4609)" fill-rule="evenodd" d="M.729846.733427C1.06733.394183 1.53162.25 2.03584.25c.50421 0 .9685.144183 1.30599.483427.15857.159405.27414.346793.35207.553123.15539-.04135.31427-.07165.47552-.09036l.00236-.00028c.89965-.10151 1.85001-.19103 2.82825-.19103.97836 0 1.92815.09041 2.82678.19003l.00383.00043c.1613.01872.32026.04904.47566.09041.0779-.20602.1934-.393123.3518-.552323C10.9956.394183 11.4598.25 11.9641.25c.5042 0 .9685.144183 1.3059.483427.3372.338863.4799.804173.4799 1.309113 0 .50494-.1427.97025-.4799 1.30911-.1626.16349-.3547.28168-.5665.36026.0385.15081.0668.30479.0843.46093l.0005.00421c.0959.9002.1795 1.84823.1795 2.82283 0 .97461-.0836 1.92264-.1795 2.82207l-.0005.00414c-.0175.15647-.0459.31081-.0846.46191.212.0786.4041.1968.5668.3603.3372.3389.4799.8042.4799 1.3092 0 .5049-.1427.9702-.4799 1.3091-.3374.3392-.8017.4834-1.3059.4834-.5043 0-.9685-.1442-1.306-.4834-.1587-.1595-.2742-.3469-.3522-.5533-.1553.0413-.31409.0716-.47526.0903l-.00237.0003c-.89965.1015-1.85.191-2.82824.191-.97826 0-1.9278-.0895-2.82817-.191l-.00244-.0003c-.16123-.0187-.32008-.049-.47544-.0904-.07793.2065-.19352.3939-.35215.5534-.33749.3392-.80178.4834-1.30599.4834-.50422 0-.96851-.1442-1.305994-.4834C.39274 12.9277.25 12.4624.25 11.9575c0-.505.14274-.9703.479846-1.3092.162745-.1635.354984-.2818.566954-.3604-.03865-.1511-.067-.30536-.08457-.46181l-.00045-.00414c-.09596-.89941-.17955-1.84661-.17955-2.82207 0-.97544.08359-1.92345.17955-2.82214l.00044-.00406c.01756-.15639.04591-.31061.08453-.46165-.21196-.07857-.404173-.1968-.566904-.36038C.39274 3.01279.25 2.54748.25 2.04254c0-.50494.14274-.97025.479846-1.309113ZM11.1159 10.3328c-.1691.0764-.3235.1805-.4578.3155-.1364.1371-.2409.2948-.3171.4675-.0453.0108-.0904.0261-.1345.046-.1726.0779-.3571.1294-.54751.1516-.88489.0999-1.76751.1815-2.65896.1815-.89141 0-1.77314-.0816-2.65895-.1815-.19042-.0222-.37492-.0737-.54756-.1516-.04416-.0199-.08924-.0352-.13468-.0461-.07616-.1726-.1807-.3303-.31701-.4674-.13429-.1349-.28865-.239-.45762-.3155-.00961-.0519-.02488-.1035-.04613-.1542-.06885-.1641-.11465-.33842-.13501-.51801-.09428-.88398-.17084-1.76718-.17084-2.66071 0-.89355.07657-1.77763.17084-2.66067.02217-.19562.07453-.38499.15399-.56176.01725-.03838.031-.07743.0414-.11682.1634-.07578.31286-.1778.44337-.30898.13661-.13732.2413-.29541.3175-.46848.04613-.01084.0919-.02622.13673-.04637.17196-.07728.35565-.12838.5452-.15049.88482-.09983 1.76738-.18143 2.65877-.18143.891 0 1.77218.08234 2.65943.18067.18932.02216.37274.07323.54454.15043.0447.02006.0902.0354.1361.04622.0763.17345.1811.33187.318.46945.1306.13134.2803.23345.4439.30926.0104.03921.0241.07808.0413.11629.0793.1766.1315.36574.1537.56113.0943.88485.1708 1.76888.1708 2.66155 0 .8927-.0765 1.77676-.1708 2.66072-.0204.17959-.0662.3539-.135.518-.0213.0507-.0365.1023-.0461.1542Z" clip-rule="evenodd"></path>
  </g>
  <defs>
    <linearGradient id="paint0_linear_9371_4609" x1="14.92" x2="-3.29" y1="16.609" y2="3.674" gradientUnits="userSpaceOnUse">
      <stop stop-color="#ffd600"></stop>
      <stop offset="1" stop-color="#ff007a"></stop>
    </linearGradient>
  </defs>
</svg>