<svg xmlns="http://www.w3.org/2000/svg" fill="none" viewBox="0 0 14 14" id="Align-Top-1--Streamline-Flex-Gradient">
  <desc>
    Align Top 1 Streamline Icon: https://streamlinehq.com
  </desc>
  <g id="align-top-1--align-design-top-vertical">
    <path id="Union" fill="url(#paint0_linear_9371_4633)" fill-rule="evenodd" d="M.25 1c0 .41421.335786.75.75.75h12c.4142 0 .75-.33579.75-.75 0-.414214-.3358-.75-.75-.75L1 .250001C.585786.250001.25.585787.25 1Zm1.14651 2.89052C1.31305 4.53139 1.25 5.49267 1.25 6.42858c0 .93591.06307 1.8972.14653 2.53807.08505.65305.55262 1.15765 1.20276 1.28485.31401.0615.69758.1057 1.15071.1057.45312 0 .83666-.0442 1.15065-.1057.65015-.1272 1.11771-.63182 1.20274-1.28487.08345-.64086.14651-1.60214.14655-2.53803.00004-.93593-.06303-1.89722-.14649-2.53809-.08506-.65305-.55263-1.15763-1.20277-1.28489C4.58667 2.54415 4.20311 2.5 3.74997 2.5c-.45314 0-.8367.04415-1.15071.10562-.65015.12726-1.11772.63184-1.20275 1.2849Zm6.52013.03059C7.82365 4.7943 7.75 6.35109 7.75 8.125c0 1.77391.07367 3.3307.16667 4.2039.06948.6524.51881 1.1767 1.18029 1.3112.31488.064.69924.1099 1.15304.1099.4538 0 .8381-.0459 1.153-.1099.6615-.1345 1.1108-.6588 1.1803-1.3112.093-.8732.1666-2.42999.1666-4.2039 0-1.77391-.0736-3.3307-.1666-4.20389-.0695-.65237-.5188-1.17674-1.1803-1.3112-.3149-.064-.6992-.10991-1.153-.10991-.45384 0-.8382.04591-1.15308.10991-.66148.13446-1.11081.65883-1.18028 1.3112Z" clip-rule="evenodd"></path>
  </g>
  <defs>
    <linearGradient id="paint0_linear_9371_4633" x1=".769" x2="16.155" y1="1.341" y2="10.013" gradientUnits="userSpaceOnUse">
      <stop stop-color="#00d078"></stop>
      <stop offset="1" stop-color="#007df0"></stop>
    </linearGradient>
  </defs>
</svg>