<svg xmlns="http://www.w3.org/2000/svg" fill="none" viewBox="0 0 14 14" id="Cloud--Streamline-Flex-Gradient">
  <desc>
    Cloud Streamline Icon: https://streamlinehq.com
  </desc>
  <g id="cloud--cloud-meteorology-cloudy-overcast-cover-weather">
    <path id="Subtract" fill="url(#paint0_linear_9371_5139)" fill-rule="evenodd" d="M4.69402 2.22727C5.40069 1.73692 6.29194 1.5 7.3154 1.5c1.24864 0 2.29924.35352 3.0538 1.08188.663.64005 1.0494 1.52309 1.1735 2.57964.6801.08993 1.2627.35931 1.6949.82499.5217.5622.7624 1.34402.7624 2.25109 0 1.01876-.3141 1.8243-.8379 2.4431-.5162.6097-1.2093 1.0072-1.9241 1.2694-1.41841.5202-3.04493.5499-3.9226.5499-.88168 0-2.66341-.0384-4.23772-.6149-.79191-.29-1.56275-.7271-2.137938-1.393C.356212 9.81657 0 8.93483 0 7.81422c0-1.15433.310968-2.12848.967634-2.81591.586356-.61382 1.395876-.94421 2.354026-1.01024.48763.05424.9563.24048 1.35712.50289.48626.31835.82495.7171.97247 1.04673.141.31507.51071.45618.82578.31518.31507-.141.45618-.51072.31518-.82578-.26604-.59448-.78964-1.16352-1.42875-1.58194-.39531-.2588-.85281-.47191-1.34914-.59823.19699-.23459.42368-.442.6797-.61965Z" clip-rule="evenodd"></path>
  </g>
  <defs>
    <linearGradient id="paint0_linear_9371_5139" x1=".538" x2="14.42" y1="2.389" y2="12.347" gradientUnits="userSpaceOnUse">
      <stop stop-color="#00d078"></stop>
      <stop offset="1" stop-color="#007df0"></stop>
    </linearGradient>
  </defs>
</svg>