<svg xmlns="http://www.w3.org/2000/svg" fill="none" viewBox="0 0 14 14" id="Customer-Support-7--Streamline-Flex-Gradient">
  <desc>
    Customer Support 7 Streamline Icon: https://streamlinehq.com
  </desc>
  <g id="customer-support-7--customer-headphones-help-microphone-person-profile-support">
    <path id="Subtract" fill="url(#paint0_linear_9371_5292)" fill-rule="evenodd" d="M5.43945.265214c-.77498.068443-1.4931.261827-2.1304.576854C1.48246 1.74498.404297 3.57882.404297 5.91332c0 1.216.159784 2.06085.433012 2.76921.228111.59139.533131 1.07556.839111 1.56127.05305.0842.10612.1685.15884.2533.34914.5622.50561 1.2342.50365 1.9345-.0004.1423-.00074.3448-.00099.5115l-.00028.2115-.00008.0634-.00002.0172-.00001.0044v.0012c-.00015.1327.05247.2604.14625.3542.09379.0939.22105.1467.35375.1467h5.91549c.27614 0 .5-.2239.5-.5V12.066c.02883-.136.16485-.2677.38562-.2677h.45916c1.1046 0 2-.8955 2-2.00003v-.83403l.2785-.00696c.2458-.00159.5027-.08075.7141-.21795.2137-.1387.4314-.37233.4901-.70598.067-.38112-.0979-.7626-.2525-1.04655-.167-.3069-.3996-.63302-.6193-.93598l-.0785-.10806c-.1989-.27373-.3863-.53151-.5382-.77614-.1778-.28615-.2654-.49096-.2839-.62377-.1297-.92627-.4438-1.69457-.9092-2.3131C9.88633.883814 8.20599.365565 6.68945.258789V4.16948c.44252.09269.83138.28531 1.13768.59161.45318.45319.65753 1.08712.65753 1.80818 0 .72107-.20435 1.355-.65753 1.80819-.0037.0037-.00741.00738-.01113.01104.56092.44566 1.35961.8848 2.3387 1.16947.3315.09636.5221.44313.4257.77463-.0964.3315-.4432.522-.77464.4257-1.37263-.3991-2.4866-1.0745-3.20192-1.77266-.18671.03323-.38237.04935-.5849.04935-.72106 0-1.355-.20434-1.80818-.65753-.45319-.45319-.65754-1.08712-.65754-1.80819 0-.72106.20435-1.35499.65754-1.80818.32712-.32713.74842-.5246 1.22869-.60914V.265214Z" clip-rule="evenodd"></path>
  </g>
  <defs>
    <linearGradient id="paint0_linear_9371_5292" x1="13.551" x2="-2.233" y1="13.745" y2="5.058" gradientUnits="userSpaceOnUse">
      <stop stop-color="#ff51e3"></stop>
      <stop offset="1" stop-color="#1b4dff"></stop>
    </linearGradient>
  </defs>
</svg>