<svg xmlns="http://www.w3.org/2000/svg" fill="none" viewBox="0 0 14 14" id="Delete-Tag--Streamline-Flex-Gradient">
  <desc>
    Delete Tag Streamline Icon: https://streamlinehq.com
  </desc>
  <g id="delete-tag--delete-tag-remove-cross-x-button-mathematics-math">
    <path id="Subtract" fill="url(#paint0_linear_9371_5719)" fill-rule="evenodd" d="M9.72777 1.92102c-2.09721-.18796-4.90644-.2203-7.33443-.10041C1.16826 1.88111.204897 2.85218.122957 4.06536.0613388 4.97765 0 6.10843 0 7.00333c0 .8949.061339 2.02568.122957 2.93798C.204889 11.1544 1.16831 12.1259 2.39411 12.1848c2.42867.1165 5.2374.0755 7.33353-.1123.39956-.0336.78606-.1935 1.11166-.4994.4682-.44 1.239-1.3408 1.8882-2.21159.3264-.43778.6315-.88057.8576-1.26576.1127-.19214.2111-.37889.2827-.54932.0661-.15735.1322-.35235.1322-.54398 0-.19163-.0661-.38663-.1322-.54398-.0716-.17043-.17-.35718-.2827-.54932-.2261-.38519-.5312-.82798-.8576-1.26576-.6492-.87077-1.42-1.77157-1.8882-2.21158-.3165-.29743-.6999-.47622-1.11153-.51079ZM6.18855 8.94246c-.24408.24408-.6398.24407-.88388 0L4.24615 7.88394l-1.0586 1.05861c-.24408.24408-.63981.24408-.88389 0-.24407-.24408-.24407-.63981 0-.88389l1.05861-1.0586-1.05861-1.05861c-.24407-.24407-.24407-.6398 0-.88388.24408-.24408.63981-.24408.88389 0l1.0586 1.05861 1.05852-1.05852c.24408-.24408.6398-.24408.88388 0 .24408.24408.24408.63981 0 .88388L5.13004 7.00006l1.05851 1.05851c.24408.24408.24408.63981 0 .88389Z" clip-rule="evenodd"></path>
  </g>
  <defs>
    <linearGradient id="paint0_linear_9371_5719" x1="2.288" x2="11.849" y1="3.769" y2="10.832" gradientUnits="userSpaceOnUse">
      <stop stop-color="#ffd600"></stop>
      <stop offset="1" stop-color="#00d078"></stop>
    </linearGradient>
  </defs>
</svg>