<svg xmlns="http://www.w3.org/2000/svg" fill="none" viewBox="0 0 14 14" id="Download-Tray--Streamline-Flex-Gradient">
  <desc>
    Download Tray Streamline Icon: https://streamlinehq.com
  </desc>
  <g id="download-tray--arrow-bottom-down-download-internet-network-server-upload">
    <path id="Union" fill="url(#paint0_linear_9371_5913)" fill-rule="evenodd" d="M6.07098 1.25c0-.552285.44772-1 1-1 .55229 0 1 .447715 1 1v3.96399c.61005-.03056 1.22247-.08907 1.84161-.17551.27581-.03851.55031.07902.71281.30523.1625.22621.1863.52385.0617.77298-.6615 1.32304-1.95709 2.61862-3.28008 3.28014-.21114.10557-.45967.10558-.67082.00001-1.32309-.66152-2.61868-1.95711-3.2802-3.28015-.12456-.24913-.10081-.54677.0617-.77298.1625-.22621.43697-.34374.71283-.30523.61875.08639 1.23079.14487 1.84045.17545V1.25ZM2.23229 9.94574c-.10403-.5424-.62806-.89777-1.17046-.79375-.542398.10403-.897771.62806-.793747 1.17041.149859.7814.531711 1.5022 1.098687 2.0675.6388.637 1.47486 1.0391 2.37154 1.1421l.00323.0004c1.03403.1153 2.12905.2176 3.25864.2176 1.12958 0 2.22552-.1023 3.25872-.2176l.0032-.0004c.8966-.103 1.7327-.5051 2.3715-1.1421.567-.5653.9488-1.2861 1.0987-2.0675.104-.54235-.2514-1.06638-.7938-1.17041-.5424-.10402-1.0664.25135-1.1704.79375-.0743.38746-.2639.74596-.5467 1.02796-.3184.3175-.7363.5192-1.1861.5712-1.01363.1131-2.02012.2051-3.03512.2051-1.01493 0-2.02041-.092-3.03514-.2051-.44974-.052-.86767-.2537-1.1861-.5712-.28281-.282-.47235-.6405-.54665-1.02796Z" clip-rule="evenodd"></path>
  </g>
  <defs>
    <linearGradient id="paint0_linear_9371_5913" x1="2.457" x2="13.361" y1="2.846" y2="8.888" gradientUnits="userSpaceOnUse">
      <stop stop-color="#ffd600"></stop>
      <stop offset="1" stop-color="#00d078"></stop>
    </linearGradient>
  </defs>
</svg>