<svg xmlns="http://www.w3.org/2000/svg" fill="none" viewBox="0 0 14 14" id="Fingerprint-1--Streamline-Flex-Gradient">
  <desc>
    Fingerprint 1 Streamline Icon: https://streamlinehq.com
  </desc>
  <g id="fingerprint-1--identification-password-touch-id-secure-fingerprint-finger-security">
    <path id="Union" fill="url(#paint0_linear_9371_6090)" fill-rule="evenodd" d="M5.06942 1.76257c.60574-.17586 1.25592-.26287 1.91628-.26287 2.42623 0 4.6003 1.13982 5.2035 3.52139.1017.40153.5096.6446.9112.5429.4015-.10169.6446-.50964.5429-.91118-.8302-3.2779-3.81575-4.653115176-6.6576-4.653115176-.78995 0-1.58186.103847176-2.33449.322352176-.39779.115486-.62664.531578-.51116.929373.11549.39778.53158.62664.92937.51115Zm-3.42649.39008c.27689-.30807.75109-.33335 1.05916-.05647.30807.27688.33336.75108.05648 1.05915-.93341 1.03856-1.26671 2.68208-1.2574 4.58925.00834 1.70858.28761 3.47682.5196 4.94572.02388.1512.0473.2995.06983.444.06383.4092-.2162.7928-.62547.8566-.40927.0638-.792786-.2162-.856614-.6255-.022361-.1434-.045889-.292-.070166-.4454C.307995 11.4644.0101213 9.5821.0011852 7.7519-.00858329 5.75125.321685 3.62274 1.64293 2.15265Zm6.47429 2.56858c-.36151-.12969-.75511-.18235-1.13147-.18235-.64579 0-1.31254.15338-1.80522.55704-.46444.38052-.88788 1.07674-.88788 2.41633 0 .41421-.33578.75-.75.75-.41421 0-.75-.33579-.75-.75 0-1.68653.5528-2.85199 1.43725-3.57663.8562-.70149 1.911-.89674 2.75585-.89674.50754 0 1.07904.06993 1.63799.27046.38988.13987.59255.56932.45268.9592-.13987.38989-.56932.59256-.9592.45269Zm1.38887 1.49139c-.12197-.39585.10004-.81563.49591-.9376.3958-.12198.8156.10004.9376.49589.1566.50824.2391 1.0868.2391 1.74114 0 1.57799-.2187 3.06415-.4347 4.15015-.1084.5447-.2169.9928-.2989 1.3064-.041.157-.0755.2805-.1.3659-.0123.0427-.0221.0759-.029.0991l-.0081.027-.0024.0077-.0007.0024-.0003.0011c-.0001.0001-.0001.0002-.7165-.2218l.7165.2218c-.1227.3957-.54291.6172-.93855.4946-.39558-.1226-.61689-.5427-.49438-.9383l.00137-.0044.00591-.0197c.0054-.018.01367-.046.02439-.0834.02145-.0747.05269-.1867.09048-.3313.07562-.2893.17721-.7083.27899-1.2198.20423-1.0265.40587-2.40931.40587-3.85745l-.00003-.01923c-.0016-.52028-.06802-.94093-.17256-1.2802ZM3.06872 10.7766c-.06569-.409.21259-.79376.62157-.85945.40897-.06569.79376.21255.85944.62155.11924.7424.25834 1.3698.36721 1.8101.05439.22.10109.3927.13378.509.01634.0582.02916.1022.03767.131l.00944.0315.0021.0069.0003.001c.12239.3956-.09883.8157-.49436.9383-.39564.1226-.81579-.0987-.93842-.4943l.71637-.2221c-.71637.2221-.71635.2222-.71637.2221l-.00059-.0019-.00105-.0034-.00349-.0115-.01225-.0409c-.0104-.0352-.02516-.0859-.04345-.151-.03657-.1302-.08734-.3181-.14582-.5546-.11686-.4726-.26506-1.1414-.39208-1.9323Zm3.91724-.0915c.41421 0 .75.3358.75.75v1.0035c0 .4142-.33579.75-.75.75s-.75-.3358-.75-.75v-1.0035c0-.4142.33579-.75.75-.75Zm1.1514-1.41575c-.41421 0-.75-.33579-.75-.75 0-.33692-.09139-.51447-.15926-.59448-.06133-.0723-.1375-.1089-.24243-.1089-.10494 0-.18111.0366-.24243.1089-.06787.08001-.15926.25756-.15926.59448 0 .41421-.33579.75-.75.75-.41422 0-.75-.33579-.75-.75 0-.60431.16642-1.15345.51538-1.56482.3555-.41908.85518-.63856 1.38631-.63856.53113 0 1.0308.21948 1.38631.63856.34896.41138.51538.96051.51538 1.56482 0 .41421-.33579.75-.75.75Zm5.10754-2.43932c.4142-.00222.7518.33176.754.74597.0101 1.8863-.2991 3.8416-.5365 5.3428-.0243.1539-.0479.3029-.0703.4466-.0637.4093-.4472.6894-.8565.6256-.4093-.0638-.6893-.4472-.6256-.8565.0225-.1441.0458-.2917.0696-.4425.2392-1.5161.5287-3.35128.5193-5.10796-.0022-.41421.3318-.75179.746-.75401Z" clip-rule="evenodd"></path>
  </g>
  <defs>
    <linearGradient id="paint0_linear_9371_6090" x1="13.952" x2="-2.627" y1="14.003" y2="4.679" gradientUnits="userSpaceOnUse">
      <stop stop-color="#ff51e3"></stop>
      <stop offset="1" stop-color="#1b4dff"></stop>
    </linearGradient>
  </defs>
</svg>