<svg xmlns="http://www.w3.org/2000/svg" fill="none" viewBox="0 0 14 14" id="Hierarchy-1--Streamline-Flex-Gradient">
  <desc>
    Hierarchy 1 Streamline Icon: https://streamlinehq.com
  </desc>
  <g id="hierarchy-1--node-organization-links-structure-link-nodes-network-hierarchy">
    <path id="Union" fill="url(#paint0_linear_9371_6389)" fill-rule="evenodd" d="M8.77735.724612C9.27439.227566 9.97282 0 10.7764 0c.8037 0 1.5021.227566 1.9991.724612.4971.497048.7247 1.195478.7247 1.999098s-.2276 1.50206-.7247 1.9991c-.497.49705-1.1954.72461-1.9991.72461-.80358 0-1.50201-.22756-1.99905-.72461-.18411-.1841-.33124-.39583-.44353-.6303-.82947.24331-1.2873.38071-1.71688.55563-.3483.14183-.68271.31061-1.18505.5944.35219.47134.51553 1.07669.51553 1.75754 0 .68094-.16338 1.28635-.51566 1.75771.50259.28394.83709.45276 1.18555.59462.42946.17485.88725.31223 1.71641.55545.1123-.23456.25947-.44636.44363-.63051.49704-.49705 1.19547-.72462 1.99905-.72462.8037 0 1.5021.22757 1.9991.72462.4971.49704.7247 1.19545.7247 1.99905 0 .8037-.2276 1.5021-.7247 1.9991-.497.4971-1.1954.7247-1.9991.7247-.80358 0-1.50201-.2276-1.99905-.7247-.47368-.4736-.70262-1.1302-.7231-1.8864-.90092-.2638-1.46958-.4304-2.00255-.6474-.59878-.2438-1.14332-.5465-2.06971-1.08898-.00204-.00119-.00406-.00239-.00607-.0036-.23721.05027-.48907.07467-.75221.07467-.80362 0-1.50205-.22757-1.9991-.72461C.727566 8.50213.5 7.8037.5 7.00008s.227566-1.50206.72461-1.9991c.49705-.49705 1.19548-.72461 1.9991-.72461.26325 0 .5152.02442.75249.07473l.00431-.00255c.92706-.54286 1.47183-.84578 2.07074-1.08965.53311-.21708 1.10183-.38373 2.00299-.6476.02044-.75631.24938-1.41296.72311-1.886688Z" clip-rule="evenodd"></path>
  </g>
  <defs>
    <linearGradient id="paint0_linear_9371_6389" x1="2.625" x2="13.476" y1="2.692" y2="8.275" gradientUnits="userSpaceOnUse">
      <stop stop-color="#ffd600"></stop>
      <stop offset="1" stop-color="#00d078"></stop>
    </linearGradient>
  </defs>
</svg>