<svg xmlns="http://www.w3.org/2000/svg" fill="none" viewBox="0 0 14 14" id="Hierarchy-16--Streamline-Flex-Gradient">
  <desc>
    Hierarchy 16 Streamline Icon: https://streamlinehq.com
  </desc>
  <g id="hierarchy-16">
    <path id="Union" fill="url(#paint0_linear_9371_6436)" fill-rule="evenodd" d="M1.80942.0818503C2.37207.0240751 2.99009 0 3.63685 0s1.26478.0240751 1.82743.0818503C6.1684.154151 6.92473.585482 7.14738 1.3906c.08874.32093.12621.66952.12621 1.10939 0 .43992-.0375.78853-.12629 1.10948-.22271.80506-.979 1.23639-1.68313 1.30869-.38198.03922-.78948.06291-1.21417.07408v1.26411h1.84203c.01684-.05866.03623-.11617.05836-.17284.28139-.72075 1.02899-.99097 1.59888-1.03877.67917-.05696 1.44315-.08038 2.25083-.08038.8076 0 1.5716.02342 2.2508.08038.5698.0478 1.3175.31802 1.5988 1.03886.1075.27536.1503.5702.1503.92287 0 .35274-.0429.64761-.1504.92299-.2814.72074-1.029.99097-1.5989 1.03876-.6791.05696-1.443.08038-2.2507.08038-.80759 0-1.57156-.02341-2.25073-.08036-.56989-.0478-1.31749-.31802-1.59888-1.03877-.02216-.05676-.04158-.11436-.05844-.17312H4.25V8c0 1.64461.34131 2.4073.69255 2.772.26856.2788.63527.4207 1.14081.4669.01876-.0695.041-.1373.06703-.204.28139-.7207 1.02899-.9909 1.59888-1.03874.67917-.05697 1.44315-.08039 2.25083-.08039.8076 0 1.5716.02342 2.2508.08039.5698.04784 1.3175.31804 1.5988 1.03884.1075.2754.1503.5702.1503.9229s-.0429.6476-.1504.923c-.2814.7207-1.029.9909-1.5989 1.0387-.6791.057-1.443.0804-2.2507.0804-.80759 0-1.57156-.0234-2.25073-.0803-.56989-.0478-1.31749-.3181-1.59888-1.0388-.01752-.0449-.03332-.0903-.04749-.1363-.76508-.0477-1.59096-.2574-2.24077-.9321C3.11182 11.0334 2.75 9.79289 2.75 8V4.98318c-.32651-.0131-.64137-.03429-.94058-.06501C1.10529 4.84588.348999 4.41455.126286 3.60949.037499 3.28854 0 2.93993 0 2.50001c0-.43991.037499-.78852.126286-1.10947C.348999.585478 1.10529.154152 1.80942.0818503Z" clip-rule="evenodd"></path>
  </g>
  <defs>
    <linearGradient id="paint0_linear_9371_6436" x1="13.953" x2="-2.626" y1="14.003" y2="4.677" gradientUnits="userSpaceOnUse">
      <stop stop-color="#ff51e3"></stop>
      <stop offset="1" stop-color="#1b4dff"></stop>
    </linearGradient>
  </defs>
</svg>