<svg xmlns="http://www.w3.org/2000/svg" fill="none" viewBox="0 0 14 14" id="Horizontal-Toggle-Button--Streamline-Flex-Gradient">
  <desc>
    Horizontal Toggle Button Streamline Icon: https://streamlinehq.com
  </desc>
  <g id="horizontal-toggle-button--toggle-adjustment-adjust-button-off-on-horizontal-settings-controls">
    <path id="Union" fill="url(#paint0_linear_9371_6523)" fill-rule="evenodd" d="M0 3.075c0 .85819.238378 1.60078.750274 2.1403.512386.54005 1.238816.81342 2.088816.85163 2.46388.11076 5.85793.11076 8.32181 0 .85-.03821 1.5764-.31158 2.0888-.85163C13.7616 4.67578 14 3.93319 14 3.075c0-.8582-.2384-1.60078-.7503-2.14031-.5124-.540042-1.2388-.81341-2.0888-.85162-2.46388-.1107601-5.85793-.11076-8.32181 3e-7C1.98909.121281 1.26266.394648.750275.934691.238378 1.47422 0 2.2168 0 3.075Zm9.60889-1.15141c.30229-.3023.71431-.42676 1.15141-.42676l.0031.00001.0032-.00001c.437 0 .849.12446 1.1513.42676.3023.30229.4268.71433.4268 1.15136 0 .43704-.1245.84907-.4268 1.15137-.3023.30229-.7143.42676-1.1513.42676l-.0032-.00001-.0031.00001c-.4371 0-.84912-.12447-1.15141-.42676-.3023-.3023-.42676-.71433-.42676-1.15137 0-.43703.12446-.84907.42676-1.15136ZM14 10.9251c0-.8582-.2384-1.60078-.7503-2.14031-.5124-.54004-1.2388-.81341-2.0888-.85162-2.46388-.11076-5.85793-.11076-8.32181 0-.85.03821-1.57643.31158-2.088815.85162C.238378 9.32432 0 10.0669 0 10.9251c0 .8582.238378 1.6008.750276 2.1403.512384.54 1.238814.8134 2.088814.8516 2.46388.1108 5.85793.1108 8.32181 0 .85-.0382 1.5764-.3116 2.0888-.8516.5119-.5395.7503-1.2821.7503-2.1403ZM3.23339 12.5033c-.43704 0-.84907-.1245-1.15137-.4268-.30229-.3023-.42676-.7143-.42676-1.1514 0-.437.12447-.849.42676-1.15132.3023-.30229.71433-.42676 1.15137-.42676l.00316.00001.00316-.00001c.43703 0 .84907.12447 1.15136.42676.3023.30232.42676.71432.42676 1.15132 0 .4371-.12446.8491-.42676 1.1514-.30229.3023-.71433.4268-1.15136.4268h-.00632Z" clip-rule="evenodd"></path>
  </g>
  <defs>
    <linearGradient id="paint0_linear_9371_6523" x1=".538" x2="16.494" y1="1.131" y2="10.125" gradientUnits="userSpaceOnUse">
      <stop stop-color="#00d078"></stop>
      <stop offset="1" stop-color="#007df0"></stop>
    </linearGradient>
  </defs>
</svg>