<svg xmlns="http://www.w3.org/2000/svg" fill="none" viewBox="0 0 14 14" id="Humidity-None--Streamline-Flex-Gradient">
  <desc>
    Humidity None Streamline Icon: https://streamlinehq.com
  </desc>
  <g id="humidity-none--humidity-drop-weather">
    <path id="Union" fill="url(#paint0_linear_9371_6535)" fill-rule="evenodd" d="M.158846 1.21155C-.0960424.885046-.0379866.413734.288517.158846c.326505-.2548884.797813-.1968324 1.052703.129672.84207 1.078672 1.607 2.033442 2.33427 2.904452C4.59776 2.0488 5.59502 1.2192 6.1867.773835c.48501-.365069 1.14167-.365068 1.62668 0C8.47254 1.26998 9.63504 2.243 10.6364 3.59656 11.6375 4.94971 12.5 6.71413 12.5 8.7807c0 .83183-.2544 1.6326-.7168 2.3317.6004.4901 1.2412 1.0032 1.9319 1.5492.325.2569.3801.7286.1233 1.0535-.2569.325-.7286.3801-1.0535.1233C6.97973 9.24905 4.60156 6.90253.158846 1.21155ZM1.50004 8.7807c0-1.16086.27214-2.22637.68813-3.1772 2.36381 2.77684 4.42092 4.7558 7.50462 7.2935-.81875.3937-1.74591.603-2.69275.603-1.43384 0-2.82256-.4799-3.858-1.3537-1.03798-.8759-1.642-2.0839-1.642-3.3656Z" clip-rule="evenodd"></path>
  </g>
  <defs>
    <linearGradient id="paint0_linear_9371_6535" x1=".538" x2="16.494" y1="1.131" y2="10.125" gradientUnits="userSpaceOnUse">
      <stop stop-color="#00d078"></stop>
      <stop offset="1" stop-color="#007df0"></stop>
    </linearGradient>
  </defs>
</svg>