<svg xmlns="http://www.w3.org/2000/svg" fill="none" viewBox="0 0 14 14" id="Increase-Indent--Streamline-Flex-Gradient">
  <desc>
    Increase Indent Streamline Icon: https://streamlinehq.com
  </desc>
  <g id="increase-indent--alignment-align-indent-paragraph-increase-formatting-text">
    <path id="Union" fill="url(#paint0_linear_9371_6568)" fill-rule="evenodd" d="M13.9995.75c0-.414214-.3358-.75-.75-.75H.750153C.335939 0 .000152555.335786.000152555.75c0 .41421.335786445.75.750000445.75H13.2495c.4142 0 .75-.33579.75-.75Zm0 4.1665c0-.41421-.3358-.75-.75-.75H5.63462c-.41421 0-.75.33579-.75.75 0 .41422.33579.75.75.75h7.61488c.4142 0 .75-.33578.75-.75Zm0 8.333c0-.4142-.3358-.75-.75-.75H.750153c-.414214 0-.750000445.3358-.750000445.75s.335786445.75.750000445.75H13.2495c.4142 0 .75-.3358.75-.75Zm0-4.16649c0-.41422-.3358-.75-.75-.75H5.63462c-.41421 0-.75.33578-.75.75 0 .41421.33579.75.75.75h7.61488c.4142 0 .75-.33579.75-.75ZM.0793439 4.97603c-.1852419.37049-.0350736.82099.3354101 1.00623.418642.20932.854396.60103 1.149756 1.0176-.29535.41658-.731112.80829-1.149756 1.01761-.3704837.18524-.520652.63575-.3354101 1.00623.1852421.37049.6357471.52066 1.0062261.33541.82052-.41025 1.61359-1.20332 2.02384-2.02387.10557-.21114.10557-.45967-.00001-.67082-.41025-.82048-1.20331-1.61354-2.02383-2.0238-.370479-.18524-.820984-.03507-1.0062261.33541Z" clip-rule="evenodd"></path>
  </g>
  <defs>
    <linearGradient id="paint0_linear_9371_6568" x1="2.288" x2="13.595" y1="2.692" y2="8.957" gradientUnits="userSpaceOnUse">
      <stop stop-color="#ffd600"></stop>
      <stop offset="1" stop-color="#00d078"></stop>
    </linearGradient>
  </defs>
</svg>