<svg xmlns="http://www.w3.org/2000/svg" fill="none" viewBox="0 0 14 14" id="Layers-1--Streamline-Flex-Gradient">
  <desc>
    Layers 1 Streamline Icon: https://streamlinehq.com
  </desc>
  <g id="layers-1--design-layer-layers-pile-stack-align">
    <path id="Union" fill="url(#paint0_linear_9371_6734)" fill-rule="evenodd" d="M8.55386.513471c-.92136-.351399-2.20824-.351856-3.12824.002-.78707.302728-1.60695.625239-2.37363.993549-.76865.36925-1.44335.76505-2.075673 1.14445-.397139.23829-.725565.60908-.726313 1.09382-.000746.48454.326313.85616.7216 1.09535.631946.38239 1.306696.78293 2.080416 1.15462.77151.37063 1.60081.69301 2.39412.99557.92137.3514 2.20824.35185 3.12825-.002.78707-.30273 1.60691-.62524 2.37361-.99355.7687-.36926 1.4434-.76505 2.0757-1.14445.3971-.23829.7256-.60908.7263-1.09382.0007-.48455-.3263-.85616-.7216-1.09535-.6319-.38239-1.3067-.78294-2.0804-1.15463-.7715-.37063-1.60083-.692998-2.39414-.995559ZM.842554 6.22391c-.334514.23764-.591888.57743-.592553 1.00647-.000743.48455.326316.85617.721603 1.09535.631946.3824 1.306696.78294 2.080416 1.15463.77151.37063 1.60081.69304 2.39412.99554.92137.3514 2.20825.3519 3.12825-.002.78707-.3027 1.60691-.62521 2.37361-.99352.7687-.36926 1.4434-.76505 2.0757-1.14445.3971-.23829.7256-.60908.7263-1.09382.0007-.43158-.2587-.77356-.5947-1.01218-.5044.29526-1.0559.6025-1.6666.89588-.8168.39238-1.67886.73067-2.46611 1.03347-1.20916.46507-2.81406.46371-4.02136.00326-.79176-.30197-1.66584-.64088-2.48989-1.03675-.61385-.29489-1.16596-.60495-1.668786-.90188ZM.250001 10.241c.000424-.27331.105008-.51039.267343-.70792.587826.3536 1.244946.73602 1.993996 1.09582.82405.3959 1.69813.7348 2.48989 1.0368 1.2073.4604 2.8122.4618 4.02136-.0033.78725-.3028 1.64931-.6411 2.46611-1.0334.7452-.358 1.4022-.73662 1.993-1.08894.1634.19876.2687.4375.2683.71264-.0007.4848-.3292.8555-.7263 1.0938-.6323.3794-1.307.7752-2.0757 1.1445-.7667.3683-1.58654.6908-2.37361.9935-.92.3539-2.20688.3534-3.12825.002-.79331-.3025-1.62261-.6249-2.39412-.9955-.77372-.3717-1.44847-.7723-2.080416-1.1547-.395287-.2391-.722346-.6108-.721603-1.0953Z" clip-rule="evenodd"></path>
  </g>
  <defs>
    <linearGradient id="paint0_linear_9371_6734" x1="2.457" x2="13.36" y1="2.846" y2="8.887" gradientUnits="userSpaceOnUse">
      <stop stop-color="#ffd600"></stop>
      <stop offset="1" stop-color="#00d078"></stop>
    </linearGradient>
  </defs>
</svg>