<svg xmlns="http://www.w3.org/2000/svg" fill="none" viewBox="0 0 14 14" id="Number-Sign--Streamline-Flex-Gradient">
  <desc>
    Number Sign Streamline Icon: https://streamlinehq.com
  </desc>
  <g id="number-sign--number-sign-text-formatting-numeral">
    <path id="Union" fill="url(#paint0_linear_9371_7344)" fill-rule="evenodd" d="M.517372 1.03664c.308825-.100527.647258.00914.838438.27169C3.19665 3.8364 4.84042 6.43874 6.31349 9.15369V1.74981c0-.41422.33579-.750003.75-.750003.41422 0 .75.335783.75.750003V12.2506c0 .3493-.2411.6523-.58144.7308-.34033.0785-.68981-.0883-.84279-.4023-1.43562-2.94653-3.05448-5.74965-4.88975-8.45777v8.12927c0 .4142-.33578.75-.749998.75-.414214 0-.750000281-.3358-.750000281-.75V1.74981c0-.32478.209035281-.61265.517860281-.71317ZM10.3914 2.7845c-.1513.15026-.2845.41893-.2845.89777 0 .47884.1332.74751.2845.89777.1522.15105.4258.2847.9121.2847.4864 0 .7599-.13365.9121-.2847.1514-.15026.2845-.41893.2845-.89777 0-.47884-.1331-.74751-.2845-.89777-.1522-.15105-.4257-.28469-.9121-.28469-.4863 0-.7599.13364-.9121.28469ZM9.33465 1.71999C9.84434 1.214 10.544.999807 11.3035.999807c.7595 0 1.4592.214193 1.9689.720183.5105.50678.7277 1.20434.7277 1.96228 0 .75794-.2172 1.4555-.7277 1.96228-.5097.50599-1.2094.72019-1.9689.72019-.7595 0-1.45916-.2142-1.96885-.72019-.51049-.50678-.72772-1.20434-.72772-1.96228 0-.75794.21723-1.4555.72772-1.96228ZM12.964 8.62686c-1.1344-.24857-2.185-.24857-3.31942 0-.40462.08866-.80449-.16747-.89315-.57208-.08866-.40462.16747-.8045.57208-.89316 1.34599-.29492 2.61559-.29492 3.96159 0 .4046.08866.6607.48854.5721.89316-.0887.40461-.4886.66074-.8932.57208Z" clip-rule="evenodd"></path>
  </g>
  <defs>
    <linearGradient id="paint0_linear_9371_7344" x1=".537" x2="15.217" y1="1.97" y2="11.622" gradientUnits="userSpaceOnUse">
      <stop stop-color="#00d078"></stop>
      <stop offset="1" stop-color="#007df0"></stop>
    </linearGradient>
  </defs>
</svg>