<svg xmlns="http://www.w3.org/2000/svg" fill="none" viewBox="0 0 14 14" id="Pen-1--Streamline-Flex-Gradient">
  <desc>
    Pen 1 Streamline Icon: https://streamlinehq.com
  </desc>
  <g id="pen-1--content-creation-edit-pen-write">
    <path id="Union" fill="url(#paint0_linear_9371_7657)" fill-rule="evenodd" d="M13.2016.798765c-1.2525-1.252434-3.1892-.906441-4.35815.17156l-.28774.265645-.32724-.327238C7.17895-.14079 5.48595-.168103 4.40312.847017L2.60483 2.53286c-.30219.28329-.31751.75792-.03421 1.0601.28329.30219.75792.31751 1.06011.03422l1.79828-1.68584c.4922-.46142 1.26174-.449 1.7388.02805l.69128.69128c.02107.02108.04309.04063.06591.05868l3.8191 3.8191c.4382-.46436.8662-.92638 1.2859-1.38154 1.078-1.16899 1.424-3.10571.1716-4.358145Zm-2.322 6.643005L6.55859 3.1207c-.21917.21304-.4382.42867-.65663.6471-1.12387 1.12387-2.17477 2.26508-3.18093 3.35769l-.21402.23238c-.73915.8023-.95342 2.05618-.36362 3.03573.04934.082.10127.1643.15634.246L.21967 12.7197c-.2928933.2929-.2928932.7678 0 1.0607.292894.2929.767767.2929 1.06066 0l2.08-2.08c.08191.0551.16433.1072.24639.1566.97958.5898 2.23347.3755 3.03577-.3636l.23237-.2141c1.09261-1.0061 2.23383-2.05704 3.35764-3.1809.2185-.21843.4341-.43747.6471-.65663Z" clip-rule="evenodd"></path>
  </g>
  <defs>
    <linearGradient id="paint0_linear_9371_7657" x1=".538" x2="16.494" y1="1.131" y2="10.125" gradientUnits="userSpaceOnUse">
      <stop stop-color="#00d078"></stop>
      <stop offset="1" stop-color="#007df0"></stop>
    </linearGradient>
  </defs>
</svg>