<svg xmlns="http://www.w3.org/2000/svg" fill="none" viewBox="0 0 14 14" id="Round-Anchor-Point--Streamline-Flex-Gradient">
  <desc>
    Round Anchor Point Streamline Icon: https://streamlinehq.com
  </desc>
  <g id="round-anchor-point">
    <path id="Union" fill="url(#paint0_linear_9371_8003)" fill-rule="evenodd" d="M8.75696 2.76766c-.04482.41889-.38173.75581-.80042.80248-.31098.03466-.63029.06443-.95584.06443s-.64486-.02977-.95585-.06443c-.41869-.04667-.7556-.38359-.80042-.80248-.0071-.06643-.01397-.13324-.02038-.20041H3.52201c-.23288.69011-.82241 1.06694-1.70504 1.06694C.65411 3.63419 0 2.98008 0 1.81722 0 .654363.65411.000253523 1.81697.000253523c.88265 0 1.4722.376855477 1.70506 1.066996477h1.70203c.0064-.06714.01327-.133932.02037-.200341.04482-.418891.38173-.755804.80042-.8024727C6.35584.0297722 6.67515 0 7.0007 0s.64486.0297722.95585.0644363c.41868.0466687.75559.3835817.80041.8024727.00711.066409.01398.133201.02038.200341H10.478c.2328-.690147.8224-1.067005859 1.705-1.067005859C13.3459.000244141 14 .654353 14 1.81721c0 1.16287-.6541 1.81697-1.817 1.81697-.8826 0-1.4721-.37683-1.705-1.06693H8.77734c-.0064.06717-.01327.13398-.02038.20041ZM1.83645 8.33645C3.06046 7.11243 4.82797 6.5 7 6.5s3.9395.61243 5.1636 1.83645C13.3876 9.56046 14 11.328 14 13.5c0 .2761-.2239.5-.5.5H.5c-.276142 0-.5-.2239-.5-.5 0-2.172.612432-3.93954 1.83645-5.16355Z" clip-rule="evenodd"></path>
  </g>
  <defs>
    <linearGradient id="paint0_linear_9371_8003" x1="2.288" x2="13.596" y1="2.692" y2="8.957" gradientUnits="userSpaceOnUse">
      <stop stop-color="#ffd600"></stop>
      <stop offset="1" stop-color="#00d078"></stop>
    </linearGradient>
  </defs>
</svg>