<svg xmlns="http://www.w3.org/2000/svg" fill="none" viewBox="0 0 14 14" id="Text-Style--Streamline-Flex-Gradient">
  <desc>
    Text Style Streamline Icon: https://streamlinehq.com
  </desc>
  <g id="text-style--text-style-formatting-format">
    <path id="Union" fill="url(#paint0_linear_9371_8486)" fill-rule="evenodd" d="M2.99805 2.33812v1.58709c0 .55228-.44772 1-1 1-.55229 0-1.000003-.44772-1.000003-1V2.32549c0-.94687.671353-1.791468 1.640633-1.955016 2.94005-.496081 5.78289-.496081 8.72292 0 .9693.163548 1.6407 1.008146 1.6407 1.955016v1.59972c0 .55228-.4478 1-1 1-.5523 0-1-.44772-1-1V2.33812C9.991 2.16856 8.99374 2.06248 8 2.01987v9.81453c.46449.0359.93116.097 1.40306.183.54332.0991.90344.6199.80434 1.1632-.099.5433-.61981.9035-1.16314.8044-.6885-.1256-1.3603-.1887-2.03201-.1894l-.01225 0-.01216 0c-.67141.0007-1.34291.0639-2.0311.1894-.54332.0991-1.06409-.2611-1.16317-.8044-.09908-.5433.26105-1.0641.80438-1.1632.47155-.086.93789-.147 1.40205-.183V2.01988c-.99364.04262-1.9908.1487-3.00195.31824Z" clip-rule="evenodd"></path>
  </g>
  <defs>
    <linearGradient id="paint0_linear_9371_8486" x1="12.962" x2="-2.222" y1="14.004" y2="6.683" gradientUnits="userSpaceOnUse">
      <stop stop-color="#ff51e3"></stop>
      <stop offset="1" stop-color="#1b4dff"></stop>
    </linearGradient>
  </defs>
</svg>