<svg xmlns="http://www.w3.org/2000/svg" fill="none" viewBox="0 0 14 14" id="Track-Select-Right-Tool--Streamline-Flex-Gradient">
  <desc>
    Track Select Right Tool Streamline Icon: https://streamlinehq.com
  </desc>
  <g id="track-select-right-tool">
    <path id="Union" fill="url(#paint0_linear_9371_8566)" fill-rule="evenodd" d="M5.53176 3.51041c-.35583-.01095-.70806-.01095-1.06389 0-.41401.01273-.75996-.31258-.7727-.72659-.01273-.41402.31257-.75997.72659-.77271.38656-.01189.76955-.01189 1.15611 0 .41402.01274.73932.35869.72659.77271-.01274.41401-.35869.73932-.7727.72659Zm-2.39272-.64277c.04437.41183-.25353.78164-.66536.82601-.06045.00651-.12094.01321-.18156.02004-.30512.0344-.55293.28393-.58563.58584-.00643.05939-.01273.11869-.01885.17797-.04255.41202-.41104.71154-.823066.669-.412023-.04254-.711547-.41104-.669005-.82306.006426-.06224.013-.12408.019645-.18543C.323896 3.1346 1.12454 2.3358 2.12411 2.22313c.06248-.00704.12549-.01402.18892-.02085.41183-.04437.78165.25352.82601.66536ZM.78162 5.69331c.41402.01273.73932.35868.72659.7727-.01095.35582-.01095.70806 0 1.06388.01273.41402-.31257.75998-.72659.77271-.414018.01274-.7599688-.31258-.77270291-.7266-.01188945-.38655-.01188945-.76955 0-1.1561C.0216512 6.00588.367602 5.68057.78162 5.69331Zm.085606 3.15868c.412024-.04254.780524.25699.823064.66901.00612.05927.01242.11858.01885.17797.0327.30193.28051.55143.58563.58583.06061.0068.12111.0135.18156.02.41184.0444.70973.4142.66537.8261-.04437.4118-.41419.7097-.82602.6653-.06343-.0068-.12644-.0138-.18892-.0208-.99957-.1127-1.800212-.9115-1.908894-1.91491-.006645-.06136-.013219-.12319-.019645-.18542-.042542-.41203.256982-.78053.669005-.82308ZM3.69119 11.2161c.01274-.414.35869-.7393.77271-.7266.35582.0109.70806.0109 1.06388 0 .41401-.0127.75997.3126.7727.7266.01273.414-.31257.76-.72659.7727-.38656.0119-.76955.0119-1.15611 0-.41402-.0127-.73932-.3587-.72659-.7727Zm3.16953-8.34943c.04436-.41183.41418-.70973.82601-.66536.06344.00683.12644.01381.18892.02085.50909.05739.96396.29253 1.30175.63677.29012.29565.28563.77051-.01002 1.06062-.29565.29011-.7705.28562-1.06062-.01003-.10701-.10906-.24729-.17968-.39912-.1968-.06061-.00683-.1211-.01353-.18156-.02004-.41183-.04436-.70972-.41418-.66536-.82601Zm2.30807 7.21263c.29488.2909.29812.7657.00723 1.0606-.33736.342-.79065.5755-1.29771.6327-.06249.007-.12549.014-.18893.0208-.41183.0444-.78165-.2535-.82601-.6653-.04436-.4119.25353-.7817.66536-.826.06046-.0066.12095-.0133.18157-.0201.15122-.017.29099-.0872.39785-.1955.29089-.29488.76575-.29812 1.06064-.0072Zm1.62371-5.20166c-.1852.37049-.035.82099.3354 1.00624.1856.0928.3742.21875.5538.3661H6.77539c-.41421 0-.75.33579-.75.75 0 .41422.33579.75.75.75h4.90631c-.1796.14736-.3682.27331-.5538.36611-.3704.18524-.5206.63575-.3354 1.00623.1853.37048.6358.52066 1.0063.33542.8547-.42737 1.6823-1.25241 2.1145-2.10683.0555-.10471.087-.22414.087-.35093 0-.12636-.0313-.24541-.0865-.34988-.432-.85474-1.2599-1.68031-2.115-2.10787-.3705-.18524-.821-.03507-1.0063.33541Z" clip-rule="evenodd"></path>
  </g>
  <defs>
    <linearGradient id="paint0_linear_9371_8566" x1="2.289" x2="11.512" y1="3.924" y2="11.083" gradientUnits="userSpaceOnUse">
      <stop stop-color="#ffd600"></stop>
      <stop offset="1" stop-color="#00d078"></stop>
    </linearGradient>
  </defs>
</svg>