<svg xmlns="http://www.w3.org/2000/svg" fill="none" viewBox="0 0 14 14" id="Typewriter--Streamline-Flex-Gradient">
  <desc>
    Typewriter Streamline Icon: https://streamlinehq.com
  </desc>
  <g id="typewriter--typewriter-company-office-supplies-work">
    <path id="Subtract" fill="url(#paint0_linear_9371_8611)" fill-rule="evenodd" d="M6.39923.25c-.87163 0-1.72111.095587-2.51095.184462l-.22009.024685c-.7141.079565-1.28384.647993-1.36697 1.368103l-.01525.13185c-.02927.25266-.05929.5118-.08649.77613.20478-.00866.41146-.01775.62119-.02696.1004-.00442.14786-.00803.16768-.00985l.0073-.00072.02061-.00325c.15785-.02464.30164-.03913.60788-.04982.83842-.02925 1.5646.53894 1.76451 1.33193.37073.01341.81092.02377 1.01125.02377.20034 0 .64052-.01036 1.01125-.02377.19991-.79299.92609-1.36118 1.76452-1.33193.30622.01069.45002.02518.60787.04982l.0022.00034.0184.00291.00729.00072c.01981.00182.06727.00543.16767.00984.2093.0092.4155.01827.6199.02692-.0272-.26421-.0572-.52324-.0865-.7758l-.0153-.13213C10.4141 1.10714 9.84437.538712 9.13027.459147l-.2201-.024685C8.12034.345587 7.27086.25 6.39923.25Zm5.82917 1.83241c-.3451 0-.625.27982-.625.625v1.68133c-.2569-.23204-.5935-.37068-.9457-.38537-.242-.01009-.4862-.02082-.73289-.03167-.22082-.0097-.27734-.01868-.32357-.02602l-.00958-.00151c-.09407-.01469-.18545-.02611-.45902-.03565-.26884-.00938-.49728.19623-.51814.46634-.00907.11755-.02059.23535-.03344.35412-.02663.24607-.22996.45041-.47947.47643-.29771.03105-1.36246.05956-1.70124.05956-.33878 0-1.40353-.02851-1.70124-.05956-.24951-.02602-.45284-.23036-.47947-.47643-.01285-.11877-.02437-.23657-.03344-.35412-.02086-.27011-.2493-.47572-.51814-.46634-.27357.00954-.36496.02096-.45903.03565l-.00958.00151c-.04624.00734-.10277.01632-.32359.02603-.24671.01084-.49088.02157-.73289.03166-.66343.02766-1.271704.49527-1.395862 1.19834-.10255.58071-.138318 1.09094-.102191 1.63397.028404.42693.183488.8052.418763 1.11524-.03769.09703-.070508.19643-.098146.29778-.071648.26274-.145736.51089-.219429.75765l-.00555.01858c-.210654.7053-.41822 1.40027-.483101 2.23557-.102348 1.3177 1.025266 2.2179 2.168926 2.3005l.04078.0029c1.25634.0907 2.57736.1861 3.93319.1861 1.35581 0 2.67683-.0954 3.93315-.1861l.0408-.0029c1.1437-.0826 2.2713-.9828 2.1689-2.3005-.0648-.8353-.2724-1.53027-.4831-2.23557l-.0055-.01858c-.0737-.24675-.1478-.49491-.2194-.75765-.0277-.10135-.0605-.20075-.0982-.29777.2353-.31005.3904-.68831.4188-1.11525.0205-.30786.0178-.60517-.007-.91076h.0796c.3452 0 .625-.27982.625-.625V3.33241h.2697c.3452 0 .625-.27982.625-.625s-.2798-.625-.625-.625h-.8947ZM3.95801 10.9688c.34518 0 .625-.2799.625-.625 0-.34523-.27982-.62505-.625-.62505h-.78945c-.34518 0-.625.27982-.625.62505 0 .3451.27982.625.625.625h.78945Zm2.82812 0c.34518 0 .625-.2799.625-.625 0-.34523-.27982-.62505-.625-.62505h-.78945c-.34518 0-.625.27982-.625.62505 0 .3451.27982.625.625.625h.78945Zm3.46877-.625c0 .3451-.27984.625-.62502.625h-.78945c-.34518 0-.625-.2799-.625-.625 0-.34523.27982-.62505.625-.62505h.78945c.34518 0 .62502.27982.62502.62505Z" clip-rule="evenodd"></path>
  </g>
  <defs>
    <linearGradient id="paint0_linear_9371_8611" x1="14.918" x2="-3.29" y1="16.609" y2="3.678" gradientUnits="userSpaceOnUse">
      <stop stop-color="#ffd600"></stop>
      <stop offset="1" stop-color="#ff007a"></stop>
    </linearGradient>
  </defs>
</svg>