<svg xmlns="http://www.w3.org/2000/svg" fill="none" viewBox="0 0 14 14" id="User-Full-Body--Streamline-Flex-Gradient">
  <desc>
    User Full Body Streamline Icon: https://streamlinehq.com
  </desc>
  <g id="user-full-body--geometric-human-person-single-up-user-full-body">
    <path id="Union" fill="url(#paint0_linear_9371_8710)" fill-rule="evenodd" d="M5.47357.554814C5.8557.172686 6.39058 0 7 0c.60941 0 1.14429.172686 1.52642.554814.38213.382127.55482.917006.55482 1.526426 0 .60941-.17269 1.1443-.55482 1.52642-.38213.38213-.91701.55482-1.52642.55482-.60942 0-1.1443-.17269-1.52643-.55482-.38212-.38212-.55481-.91701-.55481-1.52642 0-.60942.17269-1.144299.55481-1.526426ZM4.22172 5.98949c.72927-.63806 1.73629-1.00518 2.76149-1.00518 1.03255 0 2.04907.37201 2.7852 1.01574.74309.64983 1.21259 1.59238 1.07779 2.69266-.0172.14048-.0376.28592-.0612.43855-.11.71235-.7302 1.21374-1.4312 1.21374h-.13323l-.32897 2.0423C8.74191 13.3167 7.93975 14 6.99839 14c-.94135 0-1.74351-.6833-1.8932-1.6127l-.32897-2.0423h-.12626c-.70641 0-1.32714-.50863-1.43405-1.22408-.02406-.16107-.04497-.31374-.06259-.46026-.13136-1.0923.33197-2.02686 1.0684-2.67117Z" clip-rule="evenodd"></path>
  </g>
  <defs>
    <linearGradient id="paint0_linear_9371_8710" x1="11.54" x2="-2.067" y1="16.965" y2="11.623" gradientUnits="userSpaceOnUse">
      <stop stop-color="#ffd600"></stop>
      <stop offset="1" stop-color="#ff007a"></stop>
    </linearGradient>
  </defs>
</svg>