<svg xmlns="http://www.w3.org/2000/svg" fill="none" viewBox="0 0 14 14" id="User-Queen-Crown--Streamline-Flex-Gradient">
  <desc>
    User Queen Crown Streamline Icon: https://streamlinehq.com
  </desc>
  <g id="user-queen-crown--actions-crown-geometric-human-person-single-up-user">
    <path id="Subtract" fill="url(#paint0_linear_9371_8809)" fill-rule="evenodd" d="M6.64645.396447c.19526-.195263.51184-.195263.7071 0L9.14683 2.18972l1.73457-1.04074c.1718-.10305.3884-.09366.5506.02386.1622.11752.2386.32049.1942.5158l-.7946 3.493H3.1684l-.79459-3.493c-.04443-.19531.03198-.39828.19417-.5158.16219-.11752.37887-.12691.55062-.02386l1.73457 1.04074L6.64645.396447ZM2.19503 6.43164c-.46921.55912-.77345 1.13535-.96854 1.71238-.318848.94312-.33607 1.86538-.350364 2.63078l-.000449.024c-.009503.5077-.018759.9265-.089361 1.2899-.068333.3517-.187511.6108-.389571.8114-.144934.144-.186822.3581-.106306.5435.080516.1853.267755.3059.475194.3059H13.2344c.2074 0 .3946-.1206.4752-.3059.0805-.1854.0386-.3995-.1063-.5435-.2021-.2006-.3213-.4597-.3896-.8114-.0706-.3634-.0799-.7822-.0894-1.2899l-.0004-.0221c-.0143-.7659-.0315-1.6889-.3509-2.63279-.1953-.577-.4996-1.15319-.9689-1.71227H2.19503Zm7.86887 3.71466c.0474.3371-.0048.6973-.10651 1.044-.36027 1.2281-1.67762 1.7958-2.9574 1.7958-1.27977 0-2.59712-.5677-2.9574-1.7958-.10173-.3467-.15386-.7069-.10646-1.044.06384-.45396.19427-.88756.36282-1.29424C5.32549 8.69722 6.29593 8.20739 7 7.604c.70407.60338 1.6745 1.09321 2.70103 1.24806.16855.40668.29897.84028.36287 1.29424Z" clip-rule="evenodd"></path>
  </g>
  <defs>
    <linearGradient id="paint0_linear_9371_8809" x1="2.457" x2="13.36" y1="2.846" y2="8.887" gradientUnits="userSpaceOnUse">
      <stop stop-color="#ffd600"></stop>
      <stop offset="1" stop-color="#00d078"></stop>
    </linearGradient>
  </defs>
</svg>