<svg xmlns="http://www.w3.org/2000/svg" fill="none" viewBox="0 0 14 14" id="Video-Close-Captioning--Streamline-Flex-Gradient">
  <desc>
    Video Close Captioning Streamline Icon: https://streamlinehq.com
  </desc>
  <g id="video-close-captioning">
    <path id="Subtract" fill="url(#paint0_linear_9371_8930)" fill-rule="evenodd" d="M3.55574.188577C4.6655.0870795 5.81824.000244141 7 .000244141c1.18175 0 2.33552.086833159 3.4443.188336859l.0023.000214c.8255.079476 1.606.395775 2.211.910445.6063.51574 1.0045 1.2049 1.107 1.96189l.0002.00183C13.8904 4.0166 14 5.01659 14 6.04355c0 1.02705-.1107 2.02637-.234 2.97946l-.0004.00296c-.1024.75698-.5007 1.44613-1.1069 1.96193-.6051.5146-1.3855.8309-2.211.9104l-.0024.0002C9.33449 12 8.18071 12.0869 7 12.0869c-.13839 0-.27636-.0012-.41389-.0035-1.20401 1.2378-2.89883 1.7176-3.78595 1.8962-.68923.1388-1.21834-.462-1.12639-1.0905.05747-.3927.1359-.9337.21805-1.5148-.19491-.1124-.37908-.2415-.54944-.3864C.736094 10.4721.337885 9.78296.2354 9.02596l-.000245-.00182C.10963 8.0705 0 7.07051 0 6.04355c0-1.02697.109636-2.0261.235148-2.98053l.000248-.00189c.102486-.75699.500698-1.44615 1.106984-1.96189C1.94741.58457 2.72789.26827 3.55337.1888l.00237-.000223ZM3.28055 8.08721c.39262.39823.92473.57136 1.50073.57136.81844 0 1.50933-.35454 1.85853-1.08546.1488-.31145.01694-.68457-.29452-.83337-.31146-.1488-.68457-.01694-.83337.29452-.1036.21685-.29885.37431-.73064.37431-.32592 0-.50624-.09311-.61058-.19895-.10792-.10945-.21194-.31133-.22929-.67383v-.99944c.01735-.3625.12137-.56438.22928-.67383.10435-.10584.28467-.19895.61059-.19895.43222 0 .62727.1574.73069.37376.14887.31143.52201.44321.83344.29435.31143-.14887.44321-.52201.29434-.83344-.34937-.73089-1.04046-1.08467-1.85847-1.08467-.576 0-1.10811.17314-1.50072.57137-.38784.39338-.56417.93008-.5886 1.51117-.00037.00875-.00055.0175-.00055.02626v1.02741c0 .00875.00018.01751.00055.02625.02443.58109.20076 1.11779.58859 1.51118Zm4.60743 0c.39261.39823.92473.57136 1.50072.57136.8184 0 1.5093-.35454 1.8585-1.08546.1488-.31145.017-.68457-.2945-.83337-.3114-.1488-.6846-.01694-.8334.29452-.1036.21685-.29881.37431-.7306.37431-.32592 0-.50624-.09311-.61058-.19895-.10791-.10945-.21194-.31133-.22929-.67383v-.99944c.01735-.3625.12138-.56438.22929-.67383.10434-.10584.28466-.19895.61058-.19895.43223 0 .6273.1574.7307.37376.1489.31143.522.44321.8334.29435.3115-.14887.4432-.52201.2944-.83344-.3494-.73089-1.0405-1.08467-1.8585-1.08467-.57599 0-1.10811.17314-1.50072.57137-.38784.39338-.56417.93008-.5886 1.51117-.00037.00875-.00055.0175-.00055.02626v1.02741c0 .00875.00018.01751.00055.02625.02443.58109.20076 1.11779.5886 1.51118Z" clip-rule="evenodd"></path>
  </g>
  <defs>
    <linearGradient id="paint0_linear_9371_8930" x1="15.213" x2="-3.67" y1="16.965" y2="3.551" gradientUnits="userSpaceOnUse">
      <stop stop-color="#ffd600"></stop>
      <stop offset="1" stop-color="#ff007a"></stop>
    </linearGradient>
  </defs>
</svg>