<svg xmlns="http://www.w3.org/2000/svg" fill="none" viewBox="0 0 14 14" id="Voice-Scan-2--Streamline-Flex-Gradient">
  <desc>
    Voice Scan 2 Streamline Icon: https://streamlinehq.com
  </desc>
  <g id="voice-scan-2--identification-secure-id-soundwave-sound-voice-brackets-security">
    <path id="Union" fill="url(#paint0_linear_9371_8981)" fill-rule="evenodd" d="M3.94304.254138c.41183-.044391.78167.253475.82606.665303.04439.411829-.25348.781669-.6653.826059-.34023.03667-.67792.07585-1.01598.11507l-.05242.00608c-.61427.07125-1.10532.56371-1.17391 1.17506-.03964.35332-.07916.70664-.11588 1.06251-.04251.41202-.41099.71157-.823017.66906-.412027-.04252-.711575-.41099-.669061-.82302.0375-.36343.077738-.72306.117309-1.07578C.517632 1.56604 1.55788.527979 2.86257.376643l.05412-.006279c.33663-.039056.67987-.078878 1.02635-.116226Zm5.28755.665303c.04439-.411828.41423-.709694.82601-.665303.3465.037346.6897.077167 1.0264.116221l.0541.006284c1.3047.151336 2.345 1.189397 2.4917 2.497837.0396.35272.0799.71235.1174 1.07578.0425.41203-.2571.7805-.6691.82302-.412.04251-.7805-.25704-.823-.66906-.0367-.35587-.0763-.70919-.1159-1.06251-.0686-.61135-.5596-1.10381-1.1739-1.17506l-.0524-.00608c-.3381-.03922-.6758-.0784-1.01601-.11507-.41183-.04439-.70969-.41423-.6653-.826059Zm0 12.161159c.04439.4118.41423.7097.82601.6653.3465-.0374.6897-.0772 1.0264-.1163l.0541-.0062c1.3047-.1514 2.345-1.1894 2.4917-2.4979.0396-.3527.0799-.7123.1174-1.0758.0425-.41198-.2571-.78046-.6691-.82298-.412-.04251-.7805.25704-.823.66907-.0367.35591-.0763.70921-.1159 1.06251-.0686.6113-.5596 1.1038-1.1739 1.1751l-.0524.006c-.3381.0393-.6758.0784-1.01601.1151-.41183.0444-.70969.4142-.6653.8261Zm-4.46149 0c-.04439.4118-.41423.7097-.82606.6653-.34645-.0374-.68967-.0772-1.02629-.1163l-.05418-.0062C1.55788 13.472.517632 12.434.370841 11.1255c-.039571-.3527-.079809-.7123-.117309-1.0758-.042514-.41198.257034-.78046.669061-.82298.412027-.04251.780507.25704.823017.66907.03672.35591.07624.70921.11588 1.06251.06859.6113.55964 1.1038 1.17391 1.1751l.05242.006c.33806.0393.67575.0784 1.01598.1151.41182.0444.70969.4142.6653.8261ZM7.75 3.48096c0-.41422-.33579-.75-.75-.75s-.75.33578-.75.75v7.03774c0 .4142.33579.75.75.75s.75-.3358.75-.75V3.48096ZM4.80444 5.41455c0-.41421-.33578-.75-.75-.75-.41421 0-.75.33579-.75.75v3.17086c0 .41422.33579.75.75.75.41422 0 .75-.33578.75-.75V5.41455Zm5.14112-.75c.41424 0 .75004.33579.75004.75v3.17086c0 .41422-.3358.75-.75004.75-.41422 0-.75-.33578-.75-.75V5.41455c0-.41421.33578-.75.75-.75Z" clip-rule="evenodd"></path>
  </g>
  <defs>
    <linearGradient id="paint0_linear_9371_8981" x1=".768" x2="16.155" y1="1.341" y2="10.013" gradientUnits="userSpaceOnUse">
      <stop stop-color="#00d078"></stop>
      <stop offset="1" stop-color="#007df0"></stop>
    </linearGradient>
  </defs>
</svg>