<svg xmlns="http://www.w3.org/2000/svg" fill="none" viewBox="0 0 14 14" id="Wave-Signal-Circle--Streamline-Flex-Gradient">
  <desc>
    Wave Signal Circle Streamline Icon: https://streamlinehq.com
  </desc>
  <g id="wave-signal-circle--circle-stats-graph-line-beat-heart">
    <path id="Subtract" fill="url(#paint0_linear_9371_9062)" fill-rule="evenodd" d="M1.83706 1.83706C3.06233.611781 4.83048 0 7 0s3.9377.611781 5.1629 1.83706C13.3882 3.06233 14 4.83048 14 7s-.6118 3.9377-1.8371 5.1629C10.9377 13.3882 9.16952 14 7 14c-2.16952 0-3.93767-.6118-5.16294-1.8371C.611781 10.9377 0 9.16952 0 7c0-2.16952.611781-3.93767 1.83706-5.16294ZM6.2874 4.12158c-.26506 0-.47297.11637-.61403.2347-.13748.11533-.24235.25701-.32184.38432-.15848.25377-.28899.57113-.39554.85257-.05796.1531-.10467.28322-.14835.40492-.04932.13743-.09479.2641-.14824.40095-.04463.11424-.08278.20258-.1156.26713-.00948.01863-.02085.02459-.04372.02702-.0925.00984-.22106.00467-.37606-.01555-.1507-.01966-.30033-.04984-.43173-.07792l-.05488-.0118c-.0443-.00956-.08876-.01915-.12473-.02641l-.0057-.00116c-.03433-.00701-.12876-.02631-.21694-.02631-.34518 0-.625.27982-.625.625 0 .32879.25389.59829.57631.62313l.02418.00466c.02748.00555.05824.01219.09715.02059l.06838.0147c.13835.02957.32843.06856.53127.09502.19854.0259.43737.04378.66999.01904.21925-.02333.53128-.09444.77204-.3352.11705-.11705.19878-.2603.25366-.36824.05992-.11783.11522-.24966.1657-.37888.05055-.12943.1123-.30019.17224-.46592.04606-.12738.09105-.25181.12905-.35219l.003-.0079c.07415.31033.15071.66554.23034 1.03497l.01486.06895c.12015.55726.24758 1.14357.37689 1.59103.06356.21996.13647.43858.22168.61228.04143.08447.10192.19236.18879.288.07842.08634.26379.25541.55216.25541.29047 0 .49759-.1545.60956-.26134.11812-.1127.21107-.24849.28272-.36868.14462-.24258.27622-.54952.38912-.82806.04722-.11647.09081-.22697.13244-.33247.06597-.16721.12699-.32189.18964-.46795.04904-.11433.09138-.20467.12768-.27167.01122-.02072.02039-.03641.02741-.04789.01323-.00376.03273-.00837.05996-.01266.0938-.01479.22166-.01632.36794-.00275.1431.01327.2814.03884.3872.06537.0524.01315.0904.02492.1129.03295.274.15746.6282.08555.8174-.17624.2022-.27977.1392-.67047-.1405-.87264-.0953-.06886-.202-.10875-.2542-.12749-.0705-.02528-.1497-.04851-.2316-.06904-.164-.04112-.3653-.07806-.5758-.09757-.20721-.01922-.44672-.02381-.67801.01266-.21859.03446-.51311.11838-.74081.34608-.11129.11129-.19357.24784-.25099.35383-.06249.11537-.12199.24521-.17737.37434-.06843.15954-.14288.34797-.21486.53014-.03951.10002-.07828.19814-.1149.28855-.09028-.36873-.16911-.74043-.24795-1.11214-.11011-.51916-.22023-1.03835-.36155-1.54956-.06042-.21857-.1286-.43406-.20667-.60441-.03769-.08224-.09305-.18867-.17302-.2841-.06594-.07868-.25264-.27417-.56107-.27417Z" clip-rule="evenodd"></path>
  </g>
  <defs>
    <linearGradient id="paint0_linear_9371_9062" x1=".538" x2="16.494" y1="1.131" y2="10.125" gradientUnits="userSpaceOnUse">
      <stop stop-color="#00d078"></stop>
      <stop offset="1" stop-color="#007df0"></stop>
    </linearGradient>
  </defs>
</svg>