<svg xmlns="http://www.w3.org/2000/svg" fill="none" viewBox="0 0 14 14" id="Wrench-Hand--Streamline-Flex-Gradient">
  <desc>
    Wrench Hand Streamline Icon: https://streamlinehq.com
  </desc>
  <g id="wrench-hand--crescent-tool-construction-tools-wrench-setting-edit-adjust">
    <path id="Union" fill="url(#paint0_linear_9371_9121)" fill-rule="evenodd" d="M9.14413.590474C8.53577.495351 7.98145.567688 7.51319.822777c-.46887.255423-.82736.680983-1.06661 1.248693-.2194.52062-.28347 1.02991-.18039 1.50838.07963.36966.2563.70823.51879 1.01014.06877.0791.08876.19094.04449.28594-.05402.11592-.10777.23293-.16097.35106-.03889.08634-.0242.18667.03217.26276.2868.3872.4767.84242.54724 1.32325.01912.13038.12712.23293.2589.23293h.16787c.40977 0 .85417.12277 1.26062.33383.13503.07012.30594.01992.36702-.11943.04027-.09189.08012-.18444.1194-.27766.12272-.29118.23688-.58156.34549-.86867.03708-.09803.13108-.16183.23569-.16785.3994-.02297.7652-.13295 1.0854-.33411.4144-.26038.7342-.6619.9536-1.18253.2293-.54403.2888-1.07549.1657-1.57186-.1231-.49635-.4229-.93376-.8705-1.30002-.0613-.0502-.1429-.06832-.2197-.04885-.0769.01947-.1399.07422-.17.14758-.0097.02382-.0197.0478-.0299.07194-.0809.19198-.1599.39448-.233.58171-.0534.13688-.1037.26573-.1491.37619-.117.28437-.2237.50467-.3432.66108-.1148.15033-.22905.22579-.36348.24918-.14331.02494-.35145-.00187-.66467-.14656-.31628-.14611-.46895-.282-.54002-.39882-.06496-.10679-.08072-.22916-.04205-.40424.04069-.1842.13568-.39981.26881-.67366.02742-.05639.05629-.11496.08619-.17559.11092-.22495.23596-.47858.3526-.75536.01488-.03531.02983-.070066.04484-.104264.03119-.071036.02763-.152526-.00963-.220571-.03727-.068046-.10401-.114936-.18066-.126921ZM5.85108 7.98513l-.13428.3108h1.95788c.53831 0 1.61493.5383 1.61493 1.61492 0 1.07665-1.08252 3.53915-2.22761 3.53915-1.17605 0-3.38065-.2185-4.59108-.3998-.44155-.0661-.74094-.4464-.74094-.8928V9.65301c0-.18345.05046-.36336.14587-.52005L3.79764 5.9766c.18132-.29781.52843-.45181.87091-.38639.75131.1435 1.26938.75808 1.3487 1.45572.03164.27825-.00652.56971-.12752.84976l-.03865.08944c.00003-.00007-.00003.00007 0 0Z" clip-rule="evenodd"></path>
  </g>
  <defs>
    <linearGradient id="paint0_linear_9371_9121" x1="13.184" x2="-2.817" y1="16.182" y2="6.895" gradientUnits="userSpaceOnUse">
      <stop stop-color="#ffd600"></stop>
      <stop offset="1" stop-color="#ff007a"></stop>
    </linearGradient>
  </defs>
</svg>