<svg xmlns="http://www.w3.org/2000/svg" fill="none" viewBox="0 0 14 14" id="Zip-Folder--Streamline-Flex-Gradient">
  <desc>
    Zip Folder Streamline Icon: https://streamlinehq.com
  </desc>
  <g id="zip-folder--zip-folder-compact">
    <path id="Subtract" fill="url(#paint0_linear_9371_9130)" fill-rule="evenodd" d="M1.95233.328644C3.13011.241595 4.02089.222829 5.48136.292443c.6086.029009 1.13243.4269 1.33302.995537l.21685.6147c.06895.19547.25175.3278.45813.33238.20913.00464.40714.00881.59627.01279.19366.00407.37807.00795.55553.01194V5.4185c-.10444-.02418-.2105-.05431-.31898-.09036-.32756-.10887-.68136.06841-.79023.39597-.10887.32756.06841.68135.39597.79022.2417.08034.4786.13945.71324.17735v1.46535c-.10444-.02419-.2105-.05431-.31898-.09037-.32756-.10887-.68136.06841-.79023.39597-.10887.32756.06841.68136.39597.79023.91504.30413 1.76125.30413 2.67628 0 .3276-.10887.5049-.46267.396-.79023-.1089-.32756-.4627-.50484-.7902-.39597-.1085.03604-.21447.06615-.31884.09033V6.69165c.23454-.0379.47144-.097.71304-.17732.3276-.10887.5049-.46266.396-.79022s-.4627-.50484-.7902-.39597c-.1085.03603-.21447.06614-.31884.09032V2.29713c.51024.02109 1.01214.0515 1.58694.10163 1.194.10415 2.1238 1.07168 2.193 2.26388.1441 2.48061.0869 4.50237-.1377 6.47746-.1397 1.2278-1.0835 2.226-2.2947 2.3644-2.81334.3216-5.58833.3299-8.40382.0081C1.62811 13.3747.616655 12.433.469584 11.1401.110804 7.98585.226069 4.83707.567715 1.7154.646426.996204 1.20202.384099 1.95233.328644Z" clip-rule="evenodd"></path>
  </g>
  <defs>
    <linearGradient id="paint0_linear_9371_9130" x1="13.704" x2="-2.283" y1="13.753" y2="4.76" gradientUnits="userSpaceOnUse">
      <stop stop-color="#ff51e3"></stop>
      <stop offset="1" stop-color="#1b4dff"></stop>
    </linearGradient>
  </defs>
</svg>