<svg xmlns="http://www.w3.org/2000/svg" fill="none" viewBox="0 0 48 48" id="Task-List-Edit--Streamline-Plump">
  <desc>
    Task List Edit Streamline Icon: https://streamlinehq.com
  </desc>
  <g id="task-list-edit--task-list-edit-work">
    <path id="Union" fill="#000000" fill-rule="evenodd" d="M40.474 19.473c-0.011 -0.684 -0.024 -1.341 -0.04 -1.973 -0.704 0 -1.593 -0.002 -2.56 -0.012 -2.271 -0.023 -5.043 -0.088 -6.867 -0.263 -3.333 -0.32 -5.925 -2.976 -6.246 -6.325 -0.175 -1.825 -0.235 -4.575 -0.254 -6.823 -0.008 -0.962 -0.008 -1.845 -0.006 -2.542C23.408 1.513 22.241 1.5 21 1.5c-6.315 0 -10.674 0.323 -13.418 0.637 -2.895 0.33 -5.094 2.531 -5.413 5.431C1.843 10.522 1.5 15.43 1.5 23s0.343 12.478 0.669 15.432c0.32 2.9 2.518 5.1 5.413 5.431 2.552 0.292 6.501 0.592 12.121 0.632l0 -0.115c0.003 -2.227 0.134 -3.881 0.277 -5.025 0.23 -1.835 1.15 -3.34 2.25 -4.44l13.582 -13.583c1.082 -1.082 2.797 -1.985 4.662 -1.86Zm-21.05 -9.456a1.75 1.75 0 0 0 -2.848 -2.034l-3.8 5.319 -2.539 -2.54a1.75 1.75 0 1 0 -2.474 2.475l4 4a1.75 1.75 0 0 0 2.661 -0.22l5 -7Zm-0.407 8.559a1.75 1.75 0 0 1 0.407 2.441l-5 7a1.75 1.75 0 0 1 -2.661 0.22l-4 -4a1.75 1.75 0 1 1 2.474 -2.474l2.54 2.539 3.799 -5.32a1.75 1.75 0 0 1 2.441 -0.406Zm8.49 -14.524c0.019 2.255 0.08 4.883 0.24 6.562 0.188 1.958 1.684 3.446 3.546 3.625 1.68 0.161 4.333 0.226 6.611 0.25 0.803 0.008 1.55 0.01 2.181 0.01 -0.593 -1.393 -2.033 -3.943 -5.432 -7.276 -3.203 -3.14 -5.694 -4.571 -7.153 -5.21 0 0.598 0.001 1.295 0.007 2.04Zm18.04 27.014c0.912 -0.912 1.31 -2.225 0.667 -3.344 -0.441 -0.768 -1.123 -1.722 -2.169 -2.767 -1.045 -1.046 -2 -1.728 -2.767 -2.17 -1.119 -0.643 -2.432 -0.244 -3.344 0.669l-1.882 1.881c1.058 0.59 2.439 1.55 3.982 3.092 1.632 1.632 2.611 3.082 3.19 4.16 0.102 0.19 0.19 0.368 0.269 0.533l2.053 -2.054Zm-11.091 -3.185a8.186 8.186 0 0 0 -0.64 -0.31l-9.464 9.465c-0.738 0.737 -1.266 1.656 -1.395 2.69 -0.127 1.016 -0.252 2.548 -0.255 4.659a1.908 1.908 0 0 0 1.913 1.913c2.111 -0.004 3.643 -0.128 4.658 -0.255 1.035 -0.13 1.954 -0.657 2.691 -1.395l9.21 -9.21a1.508 1.508 0 0 1 -0.103 -0.307 3.36 3.36 0 0 0 -0.068 -0.204 7.269 7.269 0 0 0 -0.422 -0.921c-0.44 -0.82 -1.244 -2.033 -2.668 -3.457 -1.425 -1.425 -2.638 -2.228 -3.457 -2.668Z" clip-rule="evenodd" stroke-width="1"></path>
  </g>
</svg>