<svg xmlns="http://www.w3.org/2000/svg" fill="none" viewBox="0 0 14 14" id="Color-Swatches--Streamline-Core">
  <desc>
    Color Swatches Streamline Icon: https://streamlinehq.com
  </desc>
  <g id="color-swatches--color-colors-design-painting-palette-sample-swatch">
    <path id="Vector" stroke="#000000" stroke-linecap="round" stroke-linejoin="round" d="M1.5 0.5h3c0.26522 0 0.51957 0.105357 0.70711 0.292893C5.39464 0.98043 5.5 1.23478 5.5 1.5V11c0 0.663 -0.26339 1.2989 -0.73223 1.7678C4.29893 13.2366 3.66304 13.5 3 13.5v0c-0.3283 0 -0.65339 -0.0647 -0.95671 -0.1903 -0.30331 -0.1256 -0.57891 -0.3098 -0.81106 -0.5419C0.763392 12.2989 0.5 11.663 0.5 11V1.5c0 -0.26522 0.105357 -0.51957 0.292893 -0.707107C0.98043 0.605357 1.23478 0.5 1.5 0.5v0Z" stroke-width="1"></path>
    <path id="Vector_2" stroke="#000000" stroke-linecap="round" stroke-linejoin="round" d="m5.50002 5 3.5 -3.52c0.18736 -0.18625 0.44081 -0.29079 0.705 -0.29079s0.51768 0.10454 0.70498 0.29079l2.11 2.12c0.1863 0.18736 0.2908 0.44082 0.2908 0.705 0 0.26419 -0.1045 0.51764 -0.2908 0.705l-7.74998 7.76" stroke-width="1"></path>
    <path id="Vector_3" stroke="#000000" stroke-linecap="round" stroke-linejoin="round" d="M9 8.5h3.5c0.2652 0 0.5196 0.10536 0.7071 0.29289 0.1875 0.18754 0.2929 0.44189 0.2929 0.70711v3c0 0.2652 -0.1054 0.5196 -0.2929 0.7071s-0.4419 0.2929 -0.7071 0.2929H3" stroke-width="1"></path>
    <path id="Vector_4" stroke="#000000" stroke-linecap="round" stroke-linejoin="round" d="M0.5 4.5h5" stroke-width="1"></path>
    <path id="Vector_5" stroke="#000000" stroke-linecap="round" stroke-linejoin="round" d="M0.5 8.5h5" stroke-width="1"></path>
  </g>
</svg>