<svg xmlns="http://www.w3.org/2000/svg" fill="none" viewBox="0 0 14 14" id="Customer-Support-1--Streamline-Core">
  <desc>
    Customer Support 1 Streamline Icon: https://streamlinehq.com
  </desc>
  <g id="customer-support-1--customer-headset-help-microphone-phone-support">
    <path id="Vector" stroke="#000000" stroke-linecap="round" stroke-linejoin="round" d="M3 7.00002v-2.63c0.00781 -0.51697 0.11755 -1.02731 0.32294 -1.5018 0.20538 -0.47448 0.50238 -0.90377 0.87396 -1.26328 0.37158 -0.3595 0.81045 -0.642155 1.29146 -0.831758C5.96936 0.58358 6.48306 0.490753 7 0.500021 7.51694 0.490753 8.03064 0.58358 8.51164 0.773182c0.48101 0.189603 0.91988 0.472258 1.29146 0.831758 0.3716 0.35951 0.6686 0.7888 0.874 1.26328 0.2053 0.47449 0.3151 0.98483 0.3229 1.5018v2.63" stroke-width="1"></path>
    <path id="Vector_2" stroke="#000000" stroke-linecap="round" stroke-linejoin="round" d="M1.5 5.5h1c0.13261 0 0.25979 0.05268 0.35355 0.14645C2.94732 5.74021 3 5.86739 3 6v3c0 0.13261 -0.05268 0.25979 -0.14645 0.35355C2.75979 9.44732 2.63261 9.5 2.5 9.5h-1c-0.26522 0 -0.51957 -0.10536 -0.707107 -0.29289C0.605357 9.01957 0.5 8.76522 0.5 8.5v-2c0 -0.26522 0.105357 -0.51957 0.292893 -0.70711C0.98043 5.60536 1.23478 5.5 1.5 5.5v0Z" stroke-width="1"></path>
    <path id="Vector_3" stroke="#000000" stroke-linecap="round" stroke-linejoin="round" d="M12.5 9.5h-1c-0.1326 0 -0.2598 -0.05268 -0.3536 -0.14645C11.0527 9.25979 11 9.13261 11 9V6c0 -0.13261 0.0527 -0.25979 0.1464 -0.35355 0.0938 -0.09377 0.221 -0.14645 0.3536 -0.14645h1c0.2652 0 0.5196 0.10536 0.7071 0.29289 0.1875 0.18754 0.2929 0.44189 0.2929 0.70711v2c0 0.26522 -0.1054 0.51957 -0.2929 0.70711 -0.1875 0.18753 -0.4419 0.29289 -0.7071 0.29289v0Z" stroke-width="1"></path>
    <path id="Vector_4" stroke="#000000" stroke-linecap="round" stroke-linejoin="round" d="M9 12.25c0.53043 0 1.0391 -0.2107 1.4142 -0.5858S11 10.7804 11 10.25V8" stroke-width="1"></path>
    <path id="Vector_5" stroke="#000000" stroke-linecap="round" stroke-linejoin="round" d="M9 12.25c0 0.3315 -0.1317 0.6495 -0.36612 0.8839 -0.23442 0.2344 -0.55236 0.3661 -0.88388 0.3661h-1.5c-0.33152 0 -0.64946 -0.1317 -0.88388 -0.3661C5.1317 12.8995 5 12.5815 5 12.25s0.1317 -0.6495 0.36612 -0.8839C5.60054 11.1317 5.91848 11 6.25 11h1.5c0.33152 0 0.64946 0.1317 0.88388 0.3661 0.23442 0.2344 0.36612 0.5524 0.36612 0.8839Z" stroke-width="1"></path>
  </g>
</svg>