<svg xmlns="http://www.w3.org/2000/svg" fill="none" viewBox="0 0 14 14"><g id="dashboard-circle--app-application-dashboard-home-layout-circle"><path id="Vector" stroke="#3e3e3e" stroke-linecap="round" stroke-linejoin="round" d="M3.25 6a2.75 2.75 0 1 0 0-5.5 2.75 2.75 0 0 0 0 5.5Z"></path><path id="Vector_2" stroke="#3e3e3e" stroke-linecap="round" stroke-linejoin="round" d="M10.75 6a2.75 2.75 0 1 0 0-5.5 2.75 2.75 0 0 0 0 5.5Z"></path><path id="Vector_3" stroke="#3e3e3e" stroke-linecap="round" stroke-linejoin="round" d="M3.25 13.5a2.75 2.75 0 1 0 0-5.5 2.75 2.75 0 0 0 0 5.5Z"></path><path id="Vector_4" stroke="#3e3e3e" stroke-linecap="round" stroke-linejoin="round" d="M10.75 13.5a2.75 2.75 0 1 0 0-5.5 2.75 2.75 0 0 0 0 5.5Z"></path></g></svg>