<svg xmlns="http://www.w3.org/2000/svg" fill="none" viewBox="0 0 14 14" id="Fist--Streamline-Core">
  <desc>
    Fist Streamline Icon: https://streamlinehq.com
  </desc>
  <g id="fist">
    <path id="Vector 1200" stroke="#000000" stroke-linecap="round" stroke-linejoin="round" d="M3.9012 13.4072v-2.4639c-1.30397 -0.4525 -2.17964 -1.97107 -2.17964 -3.75417 0 -1.06331 0.2391 -2.17448 1.41974 -2.17448l2.99233 0c0.61368 0 1.11094 0.49748 1.11094 1.11117 0 0.48946 -0.32028 0.92128 -0.78868 1.06334L4.74512 7.708c0.87526 0 1.94885 0.83012 1.9258 1.90532" stroke-width="1"></path>
    <path id="Vector 1999" stroke="#000000" stroke-linecap="round" stroke-linejoin="round" d="M9.81458 13.4076v-2.4644s0.58712 -0.2935 1.20052 -0.8806c1.1814 -1.13062 1.3354 -2.91861 1.0158 -4.52232 -0.1066 -0.53475 -0.259 -1.07658 -0.477 -1.53247" stroke-width="1"></path>
    <path id="Rectangle 745" stroke="#000000" stroke-linecap="round" stroke-linejoin="round" d="M2.66821 4.94203V3.05649c0 -0.81648 0.66189 -1.47837 1.47837 -1.47837s1.47837 0.66189 1.47837 1.47837v1.88554" stroke-width="1"></path>
    <path id="Rectangle 746" stroke="#000000" stroke-linecap="round" stroke-linejoin="round" d="M5.625 4.55357V2.07206c0 -0.81699 0.6623 -1.479287 1.47929 -1.479287 0.81698 0 1.47928 0.662297 1.47928 1.479287v2.48151c0 0.77825 -0.60097 1.41613 -1.36415 1.47487" stroke-width="1"></path>
    <path id="Rectangle 747" stroke="#000000" stroke-linecap="round" stroke-linejoin="round" d="M8.58362 3.05704c0 -0.81678 0.66213 -1.47892 1.47888 -1.47892 0.8168 0 1.4789 0.66214 1.4789 1.47892v1.26929c0 0.81678 -0.6621 1.47891 -1.4789 1.47891 -0.81675 0 -1.47888 -0.66213 -1.47888 -1.47891V3.05704Z" stroke-width="1"></path>
  </g>
</svg>