<svg xmlns="http://www.w3.org/2000/svg" fill="none" viewBox="0 0 14 14" id="Logout-1--Streamline-Core">
  <desc>
    Logout 1 Streamline Icon: https://streamlinehq.com
  </desc>
  <g id="logout-1--arrow-exit-frame-leave-logout-rectangle-right">
    <path id="Vector" stroke="#000000" stroke-linecap="round" stroke-linejoin="round" d="M9.5 10.5v2c0 0.2652 -0.10536 0.5196 -0.29289 0.7071 -0.18754 0.1875 -0.44189 0.2929 -0.70711 0.2929h-7c-0.26522 0 -0.51957 -0.1054 -0.707107 -0.2929C0.605357 13.0196 0.5 12.7652 0.5 12.5v-11c0 -0.26522 0.105357 -0.51957 0.292893 -0.707107C0.98043 0.605357 1.23478 0.5 1.5 0.5h7c0.26522 0 0.51957 0.105357 0.70711 0.292893C9.39464 0.98043 9.5 1.23478 9.5 1.5v2" stroke-width="1"></path>
    <path id="Vector_2" stroke="#000000" stroke-linecap="round" stroke-linejoin="round" d="M6.5 7h7" stroke-width="1"></path>
    <path id="Vector_3" stroke="#000000" stroke-linecap="round" stroke-linejoin="round" d="m11.5 5 2 2 -2 2" stroke-width="1"></path>
  </g>
</svg>