<svg xmlns="http://www.w3.org/2000/svg" fill="none" viewBox="0 0 14 14" id="Padlock-Square-1--Streamline-Core">
  <desc>
    Padlock Square 1 Streamline Icon: https://streamlinehq.com
  </desc>
  <g id="padlock-square-1--combination-combo-lock-locked-padlock-secure-security-shield-keyhole">
    <path id="Vector" stroke="#000000" stroke-linecap="round" stroke-linejoin="round" d="M11 5.5H3c-0.55228 0 -1 0.44772 -1 1v6c0 0.5523 0.44772 1 1 1h8c0.5523 0 1 -0.4477 1 -1v-6c0 -0.55228 -0.4477 -1 -1 -1Z" stroke-width="1"></path>
    <path id="Vector_2" stroke="#000000" stroke-linecap="round" stroke-linejoin="round" d="M10.5 5.5V4c0 -0.92826 -0.3687 -1.8185 -1.02513 -2.47487C8.8185 0.868749 7.92826 0.5 7 0.5c-0.92826 0 -1.8185 0.368749 -2.47487 1.02513C3.86875 2.1815 3.5 3.07174 3.5 4v1.5" stroke-width="1"></path>
    <path id="Vector_3" stroke="#000000" stroke-linecap="round" stroke-linejoin="round" d="M7 10c0.27614 0 0.5 -0.22386 0.5 -0.5S7.27614 9 7 9s-0.5 0.22386 -0.5 0.5 0.22386 0.5 0.5 0.5Z" stroke-width="1"></path>
  </g>
</svg>