<svg xmlns="http://www.w3.org/2000/svg" fill="none" viewBox="0 0 14 14" id="Paintbrush-2--Streamline-Core">
  <desc>
    Paintbrush 2 Streamline Icon: https://streamlinehq.com
  </desc>
  <g id="paintbrush-2--brush-color-colors-design-paint-painting">
    <path id="Vector" stroke="#000000" stroke-linecap="round" stroke-linejoin="round" d="M6.13293 12.0564c-1.53 1.54 -4.13 2.05 -5.63 0.51 2 -2.07 0 -3.06999 1.5 -4.56999 0.26339 -0.29339 0.58383 -0.53 0.94176 -0.69535 0.35792 -0.16536 0.7458 -0.25599 1.13994 -0.26636 0.39414 -0.01038 0.78626 0.05973 1.15238 0.20603 0.36613 0.1463 0.69858 0.36572 0.97703 0.64486 0.27845 0.27913 0.49706 0.61211 0.64247 0.9786 0.14541 0.36648 0.21455 0.75876 0.20322 1.15291 -0.01134 0.3941 -0.10292 0.7817 -0.26915 1.1393 -0.16623 0.3575 -0.40361 0.6773 -0.69765 0.94l0.04 -0.04Z" stroke-width="1"></path>
    <path id="Vector_2" stroke="#000000" stroke-linecap="round" stroke-linejoin="round" d="m4.698 7.08246 5.3049 -5.91627c0.7541 -0.847693 2.1152 -0.889659 2.92 -0.09 0.8001 0.80485 0.758 2.16603 -0.09 2.92L6.97627 9.24051" stroke-width="1"></path>
  </g>
</svg>