<svg xmlns="http://www.w3.org/2000/svg" fill="none" viewBox="0 0 14 14" id="Radioactive-2--Streamline-Core">
  <desc>
    Radioactive 2 Streamline Icon: https://streamlinehq.com
  </desc>
  <g id="radioactive-2--warning-radioactive-radiation-emergency-danger-safety">
    <path id="Vector" stroke="#000000" stroke-linecap="round" stroke-linejoin="round" d="M7 10.99c1.933 0 3.5 -1.56701 3.5 -3.50001s-1.567 -3.5 -3.5 -3.5 -3.5 1.567 -3.5 3.5S5.067 10.99 7 10.99Z" stroke-width="1"></path>
    <path id="Vector_2" stroke="#000000" stroke-linecap="round" stroke-linejoin="round" d="M9.35006 1.31006c0.46363 0.46458 0.77914 1.05616 0.90674 1.69999 0.1275 0.64383 0.0614 1.31102 -0.1901 1.91728 -0.2515 0.60625 -0.67704 1.12436 -1.22286 1.48887 -0.54582 0.3645 -1.18744 0.55904 -1.84378 0.55904 -0.65635 0 -1.29797 -0.19454 -1.84379 -0.55904 -0.54582 -0.36451 -0.97136 -0.88262 -1.22284 -1.48887 -0.25149 -0.60626 -0.31763 -1.27345 -0.19008 -1.91728 0.12755 -0.64383 0.44308 -1.23541 0.90671 -1.69999" stroke-width="1"></path>
    <path id="Vector_3" stroke="#000000" stroke-linecap="round" stroke-linejoin="round" d="M0.5 8.49997c0.17047 -0.63384 0.52499 -1.20292 1.01877 -1.63535 0.49377 -0.43243 1.10465 -0.70879 1.75543 -0.79417 0.65079 -0.08538 1.31228 0.02405 1.90089 0.31448 0.58861 0.29042 1.07793 0.7488 1.40613 1.31721 0.3282 0.56842 0.48055 1.22136 0.4378 1.87632 -0.04275 0.65494 -0.27867 1.28254 -0.67797 1.80354 -0.3993 0.5209 -0.94405 0.9118 -1.56541 1.1232 -0.62137 0.2115 -1.29147 0.234 -1.92564 0.0648" stroke-width="1"></path>
    <path id="Vector_4" stroke="#000000" stroke-linecap="round" stroke-linejoin="round" d="M11.1499 12.57c-0.6341 0.1692 -1.30422 0.1467 -1.92559 -0.0648 -0.62136 -0.2114 -1.16611 -0.6023 -1.56541 -1.1232 -0.3993 -0.521 -0.63523 -1.1486 -0.67797 -1.80354 -0.04275 -0.65496 0.1096 -1.3079 0.4378 -1.87632 0.3282 -0.56841 0.81752 -1.02679 1.40613 -1.31721 0.58861 -0.29043 1.25014 -0.39986 1.90084 -0.31448 0.6508 0.08538 1.2617 0.36174 1.7555 0.79417 0.4938 0.43243 0.8483 1.00151 1.0187 1.63535" stroke-width="1"></path>
  </g>
</svg>