<svg xmlns="http://www.w3.org/2000/svg" fill="none" viewBox="0 0 14 14" id="Two-Finger-Drag-Hotizontal--Streamline-Core">
  <desc>
    Two Finger Drag Hotizontal Streamline Icon: https://streamlinehq.com
  </desc>
  <g id="two-finger-drag-hotizontal">
    <path id="Vector 108" stroke="#000000" stroke-linecap="round" stroke-linejoin="round" d="m6.9497 7.57352 -0.9565 -4.28239c-0.13085 -0.58582 0.1929 -1.17787 0.75672 -1.38383v0c0.67835 -0.2478 1.41988 0.15768 1.57731 0.86252l0.88808 3.97607 0.26633 -0.09729c1.11226 -0.40633 2.34336 0.16598 2.74976 1.27828l0.9267 2.53702" stroke-width="1"></path>
    <path id="Vector 107" stroke="#000000" stroke-linecap="round" stroke-linejoin="round" d="M6.94989 7.58129 5.38064 4.84147c-0.29478 -0.51469 -0.91749 -0.74214 -1.4746 -0.53862v0c-0.69047 0.25223 -1.00177 1.05403 -0.6624 1.7061L5.12995 9.6333l-0.36075 0.21441c-1.0662 0.63369 -1.12815 2.15459 -0.11703 2.87289l0.24164 0.1717 0.56563 0.4023" stroke-width="1"></path>
    <path id="Vector 2512" stroke="#000000" stroke-linecap="round" stroke-linejoin="round" d="M1.75 0.5 0.5 1.75 1.75 3" stroke-width="1"></path>
    <path id="Vector 2513" stroke="#000000" stroke-linecap="round" stroke-linejoin="round" d="M0.5 1.75h3" stroke-width="1"></path>
    <path id="Vector 2514" stroke="#000000" stroke-linecap="round" stroke-linejoin="round" d="m12.25 0.5 1.25 1.25L12.25 3" stroke-width="1"></path>
    <path id="Vector 2515" stroke="#000000" stroke-linecap="round" stroke-linejoin="round" d="M13.5 1.75h-3" stroke-width="1"></path>
  </g>
</svg>