<svg xmlns="http://www.w3.org/2000/svg" fill="none" viewBox="0 0 14 14" id="User-Identifier-Card--Streamline-Core">
  <desc>
    User Identifier Card Streamline Icon: https://streamlinehq.com
  </desc>
  <g id="user-identifier-card">
    <path id="Rectangle 56" stroke="#000000" stroke-linecap="round" stroke-linejoin="round" d="M1.358 2.266h11.284s0.858 0 0.858 0.858v7.752s0 0.858 -0.858 0.858H1.358s-0.858 0 -0.858 -0.858V3.124s0 -0.858 0.858 -0.858" stroke-width="1"></path>
    <path id="Rectangle 433" stroke="#000000" stroke-linecap="round" stroke-linejoin="round" d="m9.35938 5.87939 1.98682 0" stroke-width="1"></path>
    <path id="Rectangle 434" stroke="#000000" stroke-linecap="round" stroke-linejoin="round" d="m9.35938 7.84851 1.98682 0" stroke-width="1"></path>
    <path id="Vector" stroke="#000000" stroke-linecap="round" stroke-linejoin="round" d="M3.5072 6.20769c0 0.90619 0.73461 1.6408 1.6408 1.6408 0.22909 0 0.44721 -0.04695 0.64527 -0.13175 0.58539 -0.25065 0.99552 -0.83195 0.99552 -1.50905 0 -0.90619 -0.7346 -1.6408 -1.64079 -1.6408 -0.90619 0 -1.6408 0.73461 -1.6408 1.6408Z" stroke-width="1"></path>
    <path id="Vector_2" stroke="#000000" stroke-linecap="round" stroke-linejoin="round" d="M2.65381 9.47328c0.26072 -0.4959 0.62715 -0.90575 1.06406 -1.19014 0.43691 -0.2844 0.92961 -0.43377 1.43073 -0.43377 0.50113 0 0.99383 0.14937 1.43074 0.43377 0.43691 0.28439 0.80334 0.69424 1.06406 1.19014" stroke-width="1"></path>
  </g>
</svg>