<svg xmlns="http://www.w3.org/2000/svg" fill="none" viewBox="0 0 24 24" id="Code-Barcode-Scan--Streamline-Freehand">
  <desc>
    Code Barcode Scan Streamline Icon: https://streamlinehq.com
  </desc>
  <path fill="#000000" fill-rule="evenodd" d="M23.6601 12.585c-0.86 0 -1.72 -0.07 -2.57 -0.11v-2.8c-0.05 -1.52 -0.17 -3 -0.25 -4.55 0.0079 -0.04189 0.0065 -0.08501 -0.0042 -0.12627 -0.0107 -0.04127 -0.0303 -0.07967 -0.0575 -0.11248 -0.0273 -0.03281 -0.0614 -0.05922 -0.0999 -0.07735 -0.0386 -0.01812 -0.0807 -0.02752 -0.1234 -0.02752 -0.0426 0 -0.0847 0.0094 -0.1233 0.02752 -0.0385 0.01813 -0.0727 0.04454 -0.0999 0.07735 -0.0272 0.03281 -0.0468 0.07121 -0.0575 0.11248 -0.0107 0.04126 -0.0121 0.08438 -0.0043 0.12627 -0.07 1.52 -0.18 3 -0.22 4.56v2.71l-1.91 -0.1c0.05 -0.7 0.1 -1.41 0.14 -2.12 0 -0.41 0.06 -0.81 0.07 -1.21 0.01 -0.4 0 -0.81 0 -1.22v-2.84c0.0032 -0.0748 -0.0217 -0.14807 -0.0698 -0.20543 -0.0481 -0.05735 -0.116 -0.09466 -0.1902 -0.10457 -0.0375 -0.00413 -0.0756 -0.00061 -0.1117 0.01035 -0.0362 0.01097 -0.0698 0.02914 -0.0988 0.05344 -0.029 0.02429 -0.0527 0.05421 -0.0698 0.08793 -0.0171 0.03372 -0.0272 0.07055 -0.0297 0.10828 -0.16 0.93 -0.34 1.87 -0.44 2.84 0 0.4 -0.08 0.81 -0.09 1.22 -0.01 0.41 0 0.83 0 1.23 0 0.71 0.07 1.41 0.13 2.11l-2.06 -0.12v-0.54c0 -0.49 0.06 -1 0.07 -1.46 0.01 -0.46 0 -1 0 -1.46v-3.4c-0.0024 -0.07347 -0.0327 -0.14325 -0.0847 -0.19523s-0.1218 -0.08228 -0.1953 -0.08477c-0.0763 -0.00292 -0.1509 0.02338 -0.2085 0.07356 -0.0576 0.05017 -0.0939 0.12043 -0.1015 0.19644 -0.15 1.13 -0.31 2.26 -0.41 3.4 0 0.49 -0.06 1 -0.07 1.47 -0.01 0.47 0 1 0 1.47v0.51l-1.7 -0.08v-1.47l-0.21 -5.47c0.0079 -0.04189 0.0065 -0.08501 -0.0042 -0.12627 -0.0107 -0.04127 -0.0303 -0.07968 -0.0575 -0.11248 -0.0273 -0.03281 -0.0614 -0.05922 -0.0999 -0.07735 -0.0386 -0.01812 -0.0807 -0.02752 -0.1234 -0.02752 -0.0426 0 -0.0847 0.0094 -0.1233 0.02752 -0.0385 0.01813 -0.0727 0.04454 -0.0999 0.07735 -0.0272 0.0328 -0.0468 0.07121 -0.0575 0.11248 -0.0107 0.04126 -0.0121 0.08438 -0.0043 0.12627l-0.29 5.48v1.45l-1.55 -0.03c0 -0.34 0.05 -0.68 0.06 -1v-2.28c-0.06 -1.16 -0.22996 -2.28 -0.27996 -3.41 0.00789 -0.04189 0.00644 -0.08501 -0.00424 -0.12627 -0.01068 -0.04127 -0.03033 -0.07967 -0.05754 -0.11248 -0.02721 -0.03281 -0.06132 -0.05922 -0.09991 -0.07735 -0.03858 -0.01812 -0.08068 -0.02752 -0.12331 -0.02752 -0.04262 0 -0.08472 0.0094 -0.12331 0.02752 -0.03858 0.01813 -0.07269 0.04454 -0.0999 0.07735 -0.02721 0.03281 -0.04686 0.07121 -0.05754 0.11248 -0.01068 0.04126 -0.01213 0.08438 -0.00425 0.12627 -0.12 1.24 -0.21 2.5 -0.21 3.78v2.87h-1.73l0.06 -0.66c0.06 -0.87 0.06 -1.73 0.08 -2.6 0.02 -0.87 -0.1 -1.7 -0.14 -2.6v-1.08c0.00789 -0.04189 0.00644 -0.08501 -0.00424 -0.12627 -0.01068 -0.04127 -0.03033 -0.07967 -0.05754 -0.11248 -0.02721 -0.03281 -0.06132 -0.05922 -0.09991 -0.07735 -0.03858 -0.01812 -0.08068 -0.02752 -0.12331 -0.02752 -0.04262 0 -0.08472 0.0094 -0.12331 0.02752 -0.03858 0.01813 -0.07269 0.04454 -0.0999 0.07735 -0.02721 0.03281 -0.04686 0.07121 -0.05754 0.11248 -0.01068 0.04126 -0.01213 0.08438 -0.00425 0.12627l-0.31 3.63c0 0.85 -0.07 1.71 -0.09 2.56v0.7h-1.67v-1.86c0 -1.6 -0.06 -3.19 0 -4.78 0 -0.03677 -0.00724 -0.07318 -0.02131 -0.10715s-0.0347 -0.06484 -0.0607 -0.09084c-0.026 -0.026 -0.05686 -0.04662 -0.09083 -0.0607 -0.03398 -0.01407 -0.07039 -0.02131 -0.10716 -0.02131 -0.03677 0 -0.07318 0.00724 -0.10715 0.02131 -0.03397 0.01408 -0.06484 0.0347 -0.09084 0.0607 -0.026 0.026 -0.04662 0.05687 -0.06069 0.09084 -0.01407 0.03397 -0.02132 0.07038 -0.02132 0.10715 -0.27533 1.77172 -0.44563 3.55817 -0.51 5.35v1.33h-0.49c-0.93689 -0.0329 -1.87486 -0.0162 -2.809995 0.05 -0.074203 0.0099 -0.142017 0.0472 -0.1901243 0.1046 -0.0481072 0.0573 -0.07303094 0.1306 -0.069876033 0.2054 0.002474083 0.0377 0.012562833 0.0746 0.029658033 0.1083 0.0170952 0.0337 0.0408426 0.0636 0.0698104 0.0879 0.0289679 0.0243 0.0625559 0.0425 0.0987389 0.0534 0.036183 0.011 0.074212 0.0145 0.111793 0.0104H2.37014l1.19 0.07v1.13c0.07 1.61 0.21 3.21 0.32 4.81 0.0013 0.042 0.01086 0.0834 0.02815 0.1217 0.01729 0.0384 0.04196 0.0729 0.07261 0.1017 0.03064 0.0288 0.06667 0.0512 0.106 0.0661 0.03934 0.0149 0.08122 0.0218 0.12324 0.0205 0.04245 0.0001 0.08447 -0.0085 0.12344 -0.0254 0.03898 -0.0168 0.07409 -0.0414 0.10315 -0.0724 0.02907 -0.0309 0.05147 -0.0675 0.06581 -0.1074 0.01435 -0.04 0.02034 -0.0824 0.0176 -0.1248 0 -1.78 0.07 -3.56 0.08 -5.34v-0.51l1.68 0.11v2.27c-0.00133 0.042 0.00563 0.0839 0.02049 0.1232 0.01486 0.0394 0.03733 0.0754 0.06612 0.106 0.02879 0.0307 0.06334 0.0554 0.10167 0.0727 0.03833 0.0172 0.0797 0.0268 0.12172 0.0281 0.04795 0.0141 0.09852 0.0167 0.14766 0.0077 0.04915 -0.009 0.0955 -0.0294 0.13535 -0.0595 0.03985 -0.0302 0.0721 -0.0692 0.09415 -0.114 0.02205 -0.0449 0.0333 -0.0942 0.03284 -0.1442 0.06 -0.74 0.14 -1.48 0.22 -2.22l1.85 0.11v1.74c-0.00394 0.042 0.00044 0.0844 0.01288 0.1247 0.01244 0.0404 0.03271 0.0779 0.05964 0.1104 0.02693 0.0325 0.05999 0.0593 0.09731 0.0791 0.03732 0.0197 0.07815 0.0319 0.12017 0.0358 0.04203 0.0039 0.08442 -0.0004 0.12475 -0.0129 0.04033 -0.0124 0.07782 -0.0327 0.11032 -0.0596s0.05937 -0.06 0.0791 -0.0973c0.01972 -0.0373 0.0319 -0.0782 0.03583 -0.1202 0.09001 -0.59 0.15001 -1.18 0.21001 -1.76l1.38995 0.06h0.22v0.85c0 1.71 -0.05 3.41 -0.06 5.12 -0.0027 0.0415 0.003 0.0832 0.0168 0.1225 0.0137 0.0393 0.0352 0.0754 0.0632 0.1062 0.028 0.0308 0.0619 0.0556 0.0997 0.073s0.0787 0.027 0.1203 0.0283c0.087 0.0029 0.1717 -0.0276 0.2368 -0.0853 0.0651 -0.0577 0.1056 -0.1381 0.1132 -0.2247 0.14 -1.7 0.34 -3.38 0.46 -5.08v-0.88l1.78 0.06c0 0.62 0.06 1.24 0.08 1.86 0.0026 0.0841 0.0371 0.164 0.0966 0.2235 0.0594 0.0595 0.1394 0.094 0.2234 0.0965 0.0488 0.0057 0.0981 -0.0002 0.1441 -0.0172 0.046 -0.0171 0.0873 -0.0448 0.1205 -0.0809 0.0332 -0.0361 0.0573 -0.0796 0.0704 -0.1269 0.0132 -0.0472 0.0149 -0.0969 0.005 -0.145 0 -0.61 0.09 -1.22 0.13 -1.83h4.81v0.36c0 1.53 0.12 3 0.18 4.56 -0.0083 0.0475 -0.0062 0.0962 0.0063 0.1427s0.035 0.0898 0.066 0.1267 0.0696 0.0666 0.1133 0.0869c0.0437 0.0204 0.0913 0.0309 0.1394 0.0309 0.0482 0 0.0958 -0.0105 0.1395 -0.0309 0.0437 -0.0203 0.0823 -0.05 0.1133 -0.0869s0.0535 -0.0802 0.066 -0.1267c0.0125 -0.0465 0.0146 -0.0952 0.0062 -0.1427 0.07 -1.51 0.15 -3 0.19 -4.56v-0.37h2.57c0.0876 0 0.1715 -0.0348 0.2334 -0.0967 0.0619 -0.0618 0.0966 -0.1458 0.0966 -0.2333 -0.0186 -0.0663 -0.0576 -0.1251 -0.1114 -0.1682 -0.0538 -0.043 -0.1198 -0.0681 -0.1886 -0.0718Z" clip-rule="evenodd" stroke-width="1"></path>
  <path fill="#000000" fill-rule="evenodd" d="M0.440158 7.375c0.073468 -0.00249 0.143248 -0.03279 0.195228 -0.08477 0.05198 -0.05198 0.08228 -0.12176 0.084772 -0.19523 0 -0.34 0.06 -0.67 0.1 -1 0.04 -0.33 0.1 -0.67 0.16 -1 0.060002 -0.33 0.180002 -0.88 0.270002 -1.27 0.06217 -0.3544 0.19113 -0.69375 0.38 -1 0.12396 -0.16766 0.29013 -0.29948 0.4816 -0.38204 0.19146 -0.08256 0.40139 -0.11291 0.6084 -0.08796h3.15c0.04286 0.00134 0.08554 -0.00595 0.12553 -0.02143s0.07645 -0.03884 0.10723 -0.06869c0.03079 -0.02985 0.05526 -0.06558 0.07196 -0.10507s0.0253 -0.08193 0.02528 -0.12481c0.00274 -0.04236 -0.00325 -0.08483 -0.0176 -0.12478 -0.01435 -0.03995 -0.03675 -0.07653 -0.06581 -0.10747 -0.02907 -0.03094 -0.06417 -0.05558 -0.10315 -0.07239 -0.03898 -0.01682 -0.08099 -0.02545 -0.12344 -0.02536l-1.89 -0.22 -1.25 -0.16c-0.37933 -0.05647 -0.76688 -0.00696 -1.11983 0.14304 -0.35296 0.15001 -0.657567 0.39467 -0.880172 0.70696 -0.283785 0.44083 -0.464912 0.93978 -0.53 1.46 -0.05 0.41 -0.07 0.87 -0.09 1.36v2.09c-0.000095 0.03983 0.008015 0.07924 0.023823 0.1158 0.015809 0.03655 0.038977 0.06946 0.068061 0.09667 0.029084 0.02721 0.063461 0.04813 0.100987 0.06147 0.037526 0.01334 0.077398 0.01881 0.117129 0.01606Z" clip-rule="evenodd" stroke-width="1"></path>
  <path fill="#000000" fill-rule="evenodd" d="M23.9101 3.635c-0.0541 -0.5197 -0.2287 -1.01961 -0.51 -1.46 -0.2226 -0.31229 -0.5272 -0.55695 -0.8801 -0.70696 -0.353 -0.15 -0.7405 -0.19951 -1.1199 -0.14304l-1.21 0.16 -1.93 0.23c-0.042 0.00129 -0.0833 0.01086 -0.1217 0.02814 -0.0383 0.01729 -0.0729 0.04196 -0.1017 0.07261 -0.0287 0.03065 -0.0512 0.06667 -0.0661 0.10601 -0.0148 0.03933 -0.0218 0.08121 -0.0205 0.12324 0 0.04288 0.0086 0.08532 0.0253 0.12481 0.0167 0.03949 0.0412 0.07522 0.072 0.10507 0.0308 0.02985 0.0672 0.05321 0.1072 0.06869 0.04 0.01548 0.0827 0.02277 0.1255 0.02143h3.15c0.2071 -0.02495 0.417 0.0054 0.6084 0.08796 0.1915 0.08256 0.3577 0.21438 0.4816 0.38204 0.1891 0.30718 0.3212 0.64593 0.39 1 0.09 0.39 0.18 0.81 0.26 1.27 0.08 0.46 0.12 0.66 0.16 1 0.04 0.34 0.08 0.66 0.1 1 0.0125 0.06644 0.0479 0.12643 0.0999 0.16959 0.052 0.04317 0.1175 0.06679 0.1851 0.06679 0.0677 0 0.1331 -0.02362 0.1852 -0.06679 0.052 -0.04316 0.0873 -0.10315 0.0998 -0.16959v-2.11c-0.0074 -0.45455 -0.0374 -0.90844 -0.09 -1.36Z" clip-rule="evenodd" stroke-width="1"></path>
  <path fill="#000000" fill-rule="evenodd" d="M6.00014 21.625h-3.15c-0.19705 0.0223 -0.39655 -0.0054 -0.58007 -0.0805 -0.18353 -0.0752 -0.34514 -0.1954 -0.46993 -0.3495 -0.18887 -0.3063 -0.31782 -0.6456 -0.38 -1 -0.09 -0.39 -0.18 -0.81 -0.27 -1.27 -0.09 -0.46 -0.15 -0.69 -0.15 -1.03 0 -0.34 -0.08 -0.66 -0.1 -1 -0.0125 -0.0664 -0.047824 -0.1264 -0.099864 -0.1696 -0.05204 -0.0432 -0.117525 -0.0668 -0.185136 -0.0668 -0.06761 0 -0.133095 0.0236 -0.185135 0.0668s-0.087364 0.1032 -0.099865 0.1696l-0.03 2.1c0 0.5 0 1 0.09 1.37 0.060458 0.5152 0.234658 1.0104 0.51 1.45 0.22261 0.3123 0.52722 0.557 0.88017 0.707 0.35295 0.15 0.7405 0.1995 1.11983 0.143l1.21 -0.16 1.93 -0.23c0.08066 0.0056 0.1603 -0.0206 0.22195 -0.0729 0.06165 -0.0523 0.10042 -0.1266 0.10805 -0.2071 0.00877 -0.0505 0.00526 -0.1025 -0.01023 -0.1514 -0.01549 -0.0489 -0.04251 -0.0933 -0.07878 -0.1296 -0.03628 -0.0363 -0.08074 -0.0633 -0.12964 -0.0788s-0.10081 -0.019 -0.15135 -0.0102Z" clip-rule="evenodd" stroke-width="1"></path>
  <path fill="#000000" fill-rule="evenodd" d="M23.5301 16.615c-0.0752 0 -0.1475 0.0291 -0.2016 0.0814 -0.0541 0.0522 -0.0858 0.1234 -0.0884 0.1986 0 0.34 -0.06 0.67 -0.1 1 -0.04 0.33 -0.1 0.67 -0.16 1 -0.06 0.33 -0.17 0.88 -0.26 1.27 -0.0688 0.3541 -0.2009 0.6928 -0.39 1 -0.1239 0.1677 -0.2901 0.2995 -0.4816 0.382 -0.1914 0.0826 -0.4013 0.1129 -0.6084 0.088h-3.15c-0.0428 -0.0013 -0.0855 0.0059 -0.1255 0.0214 -0.04 0.0155 -0.0764 0.0389 -0.1072 0.0687 -0.0308 0.0299 -0.0553 0.0656 -0.072 0.1051 -0.0167 0.0395 -0.0253 0.0819 -0.0253 0.1248 -0.0013 0.042 0.0057 0.0839 0.0205 0.1232 0.0149 0.0394 0.0374 0.0754 0.0661 0.106 0.0288 0.0307 0.0634 0.0554 0.1017 0.0727 0.0383 0.0172 0.0797 0.0268 0.1217 0.0281l1.93 0.23 1.21 0.16c0.3794 0.0565 0.7669 0.007 1.1199 -0.143 0.3529 -0.15 0.6575 -0.3947 0.8801 -0.707 0.2812 -0.4404 0.4559 -0.9403 0.51 -1.46 0.0596 -0.4545 0.0963 -0.9118 0.11 -1.37v-2.09c0.0001 -0.0389 -0.0078 -0.0775 -0.023 -0.1133 -0.0151 -0.0359 -0.0374 -0.0683 -0.0654 -0.0954 -0.028 -0.027 -0.0612 -0.0482 -0.0975 -0.0622 -0.0364 -0.0139 -0.0751 -0.0204 -0.1141 -0.0191Z" clip-rule="evenodd" stroke-width="1"></path>
</svg>