<svg xmlns="http://www.w3.org/2000/svg" fill="none" viewBox="0 0 24 24" id="Code-Qr--Streamline-Freehand">
  <desc>
    Code Qr Streamline Icon: https://streamlinehq.com
  </desc>
  <path fill="#000000" fill-rule="evenodd" d="M0.623446 7.17712c0.323132 0.23561 0.701724 0.3836 1.098984 0.4296 0.75841 0.04892 1.51907 0.05226 2.27788 0.00999 0.66455 0.06315 1.33359 0.06315 1.99814 0 0.38399 -0.09337 0.73167 -0.2985 0.99907 -0.58945 0.77041 -1.18296 1.12216 -2.58997 0.99908 -3.99629 0.01092 -0.48846 -0.09167 -0.97279 -0.29971 -1.41487 -0.20803 -0.44208 -0.51584 -0.829841 -0.89918 -1.132763C6.15321 0.162936 5.43895 0.00840835 4.71964 0.0337542 3.73737 0.0994948 2.76187 0.243147 1.80235 0.463355c-0.08406 0.014722 -0.15914 0.061468 -0.20945 0.130407 -0.05031 0.06894 -0.07192 0.154702 -0.0603 0.23925 0.00607 0.042207 0.02052 0.082773 0.0425 0.119312 0.02198 0.036538 0.05105 0.068306 0.0855 0.093446 0.03444 0.02514 0.07357 0.04313 0.11507 0.05291 0.0415 0.00979 0.08454 0.01118 0.12659 0.00408 0.9306 -0.161031 1.87296 -0.244574 2.81738 -0.249767 0.57326 -0.008426 1.13965 0.12545 1.64847 0.389637 0.24512 0.19755 0.40875 0.47858 0.45957 0.78927 0.1484 0.54636 0.20578 1.11343 0.16984 1.67844 -0.00061 0.93105 -0.27509 1.84136 -0.78926 2.61757 -0.1901 0.14179 -0.4223 0.21567 -0.65939 0.2098 -0.51576 0.02951 -1.0328 0.02951 -1.54856 0 -0.45957 0 -1.1889 0.11989 -1.85827 0.09991 -0.32352 0.02184 -0.6464 -0.05107 -0.92914 -0.20981 -0.319704 -0.2098 -0.369658 -0.83922 -0.38964 -1.51859 -0.020599 -1.00164 0.03283 -2.00344 0.159852 -2.99721L1.15295 0.753086c0.00726 -0.037395 0.00706 -0.075853 -0.00057 -0.113173 -0.00762 -0.03732 -0.02254 -0.072769 -0.04388 -0.10432 -0.02134 -0.03155 -0.0487 -0.058582 -0.0805 -0.07955C0.996199 0.435076 0.960575 0.420586 0.923168 0.413402 0.886374 0.406224 0.848514 0.406515 0.811835 0.414257 0.775156 0.421998 0.740408 0.437033 0.709654 0.458468 0.678899 0.479903 0.652767 0.5073 0.632809 0.539032 0.612851 0.570765 0.599474 0.606185 0.593474 0.643188L0.353697 1.87205C0.122476 3.05027 0.00537645 4.24803 0.00402151 5.44872c-0.01590871 0.31472 0.03063439 0.62947 0.13694649 0.92612 0.106311 0.29664 0.270288 0.56931 0.482478 0.80228Z" clip-rule="evenodd" stroke-width="1"></path>
  <path fill="#000000" fill-rule="evenodd" d="M23.9817 3.09091c0.0228 -0.49677 -0.0721 -0.99189 -0.277 -1.44503 -0.2049 -0.45314 -0.5139 -0.851468 -0.9019 -1.162544 -0.6412 -0.319574 -1.352 -0.47410183 -2.068 -0.4495822 -0.9846 0.0519768 -1.9635 0.1822682 -2.9273 0.3896382 -0.0835 0.014631 -0.1577 0.061778 -0.2064 0.131086 -0.0487 0.069309 -0.0679 0.155113 -0.0534 0.23857 0.0047 0.042807 0.0183 0.084165 0.0398 0.121434 0.0216 0.037268 0.0507 0.069628 0.0855 0.095008 0.0348 0.02539 0.0745 0.04324 0.1166 0.05242 0.042 0.00918 0.0856 0.00948 0.1278 0.00089 0.9283 -0.148106 1.8673 -0.218286 2.8074 -0.209807 0.5732 -0.008426 1.1396 0.125449 1.6484 0.389637 0.241 0.19261 0.4042 0.46582 0.4596 0.76929 0.1439 0.55389 0.1945 1.12788 0.1499 1.69842 0.0112 0.92698 -0.2493 1.83696 -0.7493 2.61757 -0.1901 0.14179 -0.4223 0.21567 -0.6594 0.2098 -0.5224 0.03023 -1.0462 0.03023 -1.5686 0 -0.4595 0 -1.1889 0.11989 -1.8582 0.09991 -0.3236 0.02184 -0.6464 -0.05107 -0.9292 -0.20981 -0.2997 -0.2098 -0.3397 -0.83922 -0.3696 -1.51859 -0.0154 -1.00155 0.038 -2.00297 0.1598 -2.99721l0.1699 -1.198887c0.0154 -0.039503 0.022 -0.081922 0.0193 -0.124258 -0.0027 -0.042337 -0.0147 -0.083559 -0.0351 -0.120753 -0.0204 -0.037194 -0.0487 -0.069454 -0.083 -0.094499 -0.0342 -0.025044 -0.0736 -0.042264 -0.1152 -0.050441 -0.0416 -0.008177 -0.0845 -0.007112 -0.1257 0.003119s-0.0796 0.029379 -0.1126 0.056091c-0.0329 0.026713 -0.0596 0.060337 -0.0781 0.098497 -0.0186 0.038161 -0.0285 0.079926 -0.0291 0.122346l-0.2398 1.228855c-0.242 1.19081 -0.3725 2.4016 -0.3896 3.61664 -0.0173 0.31404 0.0277 0.62839 0.1323 0.925 0.1045 0.29661 0.2667 0.56963 0.4771 0.8034 0.3231 0.23561 0.7017 0.3836 1.099 0.4296 0.7519 0.0448 1.5059 0.0448 2.2579 0 0.6646 0.0625 1.3335 0.0625 1.9981 0 0.3936 -0.08506 0.7523 -0.28704 1.0291 -0.57946 0.7533 -1.16809 1.1041 -2.5504 0.999 -3.93635Z" clip-rule="evenodd" stroke-width="1"></path>
  <path fill="#000000" fill-rule="evenodd" d="M6.79772 16.7982c-0.64804 -0.3066 -1.36214 -0.4474 -2.07807 -0.4096 -0.98119 0.0525 -1.95668 0.1828 -2.91729 0.3896 -0.08293 0.0169 -0.15656 0.0642 -0.20646 0.1326 -0.04989 0.0684 -0.07246 0.1529 -0.06329 0.2371 0.00607 0.0422 0.02052 0.0827 0.0425 0.1193 0.02199 0.0365 0.05105 0.0683 0.0855 0.0934 0.03444 0.0251 0.07357 0.0431 0.11507 0.0529 0.0415 0.0098 0.08455 0.0112 0.12659 0.0041 0.9306 -0.161 1.87296 -0.2446 2.81738 -0.2498 0.57326 -0.0084 1.13965 0.1255 1.64847 0.3897 0.24096 0.1926 0.40418 0.4658 0.45958 0.7693 0.14841 0.5497 0.20578 1.1201 0.16984 1.6884 0.01165 0.9239 -0.24895 1.8308 -0.74931 2.6076 -0.1901 0.1418 -0.4223 0.2156 -0.65938 0.2098 -0.52241 0.0302 -1.04614 0.0302 -1.56855 0 -0.45957 0 -1.18889 0.1199 -1.85827 0.0999 -0.32218 0.0199 -0.64364 -0.0492 -0.92914 -0.1998 -0.299718 -0.2198 -0.349672 -0.8492 -0.369653 -1.5286 -0.0206 -1.0017 0.03283 -2.0035 0.159853 -2.9972l0.16984 -1.1989c0.00725 -0.0374 0.00706 -0.0759 -0.00057 -0.1132 -0.00763 -0.0373 -0.02254 -0.0728 -0.04388 -0.1043 -0.02135 -0.0316 -0.0487 -0.0586 -0.0805 -0.0796 -0.0318 -0.0209 -0.06743 -0.0354 -0.104836 -0.0426 -0.036793 -0.0072 -0.074654 -0.0069 -0.111333 0.0009 -0.036678 0.0077 -0.071427 0.0227 -0.102181 0.0442 -0.030754 0.0214 -0.056886 0.0488 -0.076844 0.0805 -0.019958 0.0318 -0.033335 0.0672 -0.039336 0.1042l-0.27974 1.2888c-0.23122 1.1782 -0.34831987 2.376 -0.3496748 3.5767 -0.018363 0.3141 0.0260742 0.6287 0.1307138 0.9255 0.10464 0.2968 0.267384 0.5697 0.47872 0.8029 0.323132 0.2356 0.701731 0.3836 1.098981 0.4296 0.75181 0.0497 1.50609 0.0497 2.2579 0 0.66455 0.0631 1.33359 0.0631 1.99814 0 0.37818 -0.061 0.72765 -0.2393 0.99908 -0.5096 0.7704 -1.1829 1.12215 -2.5899 0.99907 -3.9963 0.02553 -0.4975 -0.06707 -0.9941 -0.27023 -1.4491 -0.20316 -0.4549 -0.51112 -0.8553 -0.89869 -1.1684Z" clip-rule="evenodd" stroke-width="1"></path>
  <path fill="#000000" fill-rule="evenodd" d="M11.2536 5.02911c0 0.08479 0.0337 0.16611 0.0936 0.22607 0.06 0.05995 0.1413 0.09364 0.2261 0.09364 0.0848 0 0.1661 -0.03369 0.226 -0.09364 0.06 -0.05996 0.0937 -0.14128 0.0937 -0.22607 0.0699 -0.50952 0.1498 -0.99907 0.1998 -1.51859v-0.64939c0.0151 -0.2162 0.0151 -0.4332 0 -0.6494 0 -0.51952 -0.1399 -0.99907 -0.2098 -1.518588 -0.0049 -0.068983 -0.0352 -0.133705 -0.085 -0.181675 -0.0498 -0.047971 -0.1156 -0.075788 -0.1848 -0.078084 -0.0375 -0.001342 -0.075 0.004901 -0.1101 0.018357 -0.0351 0.013455 -0.0671 0.033848 -0.0942 0.059959 -0.027 0.026112 -0.0485 0.057406 -0.0632 0.092013 -0.0147 0.034608 -0.0222 0.071819 -0.0222 0.109411 -0.0899 0.509527 -0.1998 0.999077 -0.2597 1.518587v1.2988c0.0499 0.49953 0.1198 1.00906 0.1898 1.4986Z" clip-rule="evenodd" stroke-width="1"></path>
  <path fill="#000000" fill-rule="evenodd" d="M11.903 11.5231c-0.0027 0.0428 0.0032 0.0857 0.0175 0.1262 0.0142 0.0404 0.0364 0.0776 0.0653 0.1093 0.0289 0.0317 0.0639 0.0572 0.1029 0.0751 0.0389 0.0179 0.0811 0.0278 0.124 0.0291 0.0842 0.0029 0.1663 -0.0266 0.2295 -0.0823 0.0631 -0.0558 0.1026 -0.1336 0.1102 -0.2175 0.0899 -0.5494 0.1898 -1.079 0.2497 -1.62844 0.0146 -0.23623 0.0146 -0.47312 0 -0.70935 0.0152 -0.2362 0.0152 -0.47313 0 -0.70934 -0.0699 -0.55596 -0.1767 -1.10666 -0.3197 -1.64846 -0.0024 -0.0377 -0.0125 -0.0745 -0.0296 -0.10819s-0.0408 -0.06357 -0.0697 -0.08784c-0.029 -0.02428 -0.0625 -0.04244 -0.0987 -0.05339 -0.0361 -0.01095 -0.0741 -0.01447 -0.1117 -0.01034 -0.0377 0.00247 -0.0745 0.01255 -0.1081 0.02963 -0.0337 0.01708 -0.0636 0.0408 -0.0879 0.06974 -0.0243 0.02894 -0.0424 0.0625 -0.0534 0.09865 -0.0109 0.03615 -0.0145 0.07414 -0.0103 0.11169 0 0.5395 -0.1099 1.05902 -0.1499 1.6085v0.85921c-0.6993 -0.08992 -1.3887 -0.15986 -2.09804 -0.19982H7.80679c-0.71933 0 -1.42867 0.1099 -2.158 0.1099 -0.07419 -0.00927 -0.14902 0.0113 -0.20804 0.05721 -0.05902 0.0459 -0.09739 0.11337 -0.10666 0.18756 -0.00928 0.07419 0.0113 0.14903 0.05721 0.20805 0.0459 0.05902 0.11337 0.09739 0.18756 0.10666 0.83144 0.19387 1.67643 0.32407 2.52765 0.38967 0.50242 0.0299 1.00618 0.0299 1.5086 0 0.71929 0 1.43869 -0.1199 2.16799 -0.1599 0.04 0.4596 0.0899 0.9391 0.1199 1.4387Z" clip-rule="evenodd" stroke-width="1"></path>
  <path fill="#000000" fill-rule="evenodd" d="M13.7812 22.8825c-0.5395 -0.0699 -1.0889 -0.1299 -1.6484 -0.1598 -0.3761 -0.02 -0.7529 -0.02 -1.129 0h-0.2497v-0.4296l-0.2198 -2.9173c-0.0025 -0.0761 -0.0339 -0.1483 -0.0877 -0.2021 -0.0538 -0.0538 -0.126 -0.0852 -0.2021 -0.0876 -0.0768 0 -0.1505 0.0305 -0.2048 0.0848 -0.05437 0.0543 -0.0849 0.128 -0.0849 0.2049l-0.26975 2.8873v0.7693c-0.01647 0.1227 -0.01647 0.247 0 0.3696 0.03759 0.1088 0.09939 0.2075 0.18073 0.2889 0.08135 0.0813 0.18012 0.1431 0.28882 0.1807 0.1933 0.0504 0.3962 0.0504 0.5895 0 0.146 -0.0376 0.2894 -0.0843 0.4296 -0.1399 0.4181 -0.09 0.8421 -0.1501 1.2688 -0.1798 0.4396 0 0.8792 -0.05 1.3088 -0.05 0.0858 0.0056 0.1705 -0.0226 0.2358 -0.0786 0.0654 -0.056 0.1062 -0.1354 0.1139 -0.2211 -0.0026 -0.084 -0.037 -0.1638 -0.0965 -0.2233 -0.0594 -0.0594 -0.1393 -0.0939 -0.2233 -0.0964Z" clip-rule="evenodd" stroke-width="1"></path>
  <path fill="#000000" fill-rule="evenodd" d="M16.219 13.811c0.3532 0.1117 0.7191 0.1788 1.089 0.1998 0.389 0.0299 0.7798 0.0299 1.1689 0 0.8592 -0.07 1.7084 -0.2298 2.5576 -0.2898 0.0848 0 0.1661 -0.0336 0.2261 -0.0936 0.0599 -0.06 0.0936 -0.1413 0.0936 -0.2261 0.0013 -0.0428 -0.0059 -0.0854 -0.0214 -0.1254 -0.0155 -0.0399 -0.0388 -0.0764 -0.0686 -0.1071 -0.0299 -0.0308 -0.0655 -0.0552 -0.105 -0.0719 -0.0395 -0.0167 -0.0819 -0.0253 -0.1247 -0.0253 -0.8592 -0.0499 -1.7184 0 -2.5776 0 -0.3347 -0.0141 -0.6682 -0.0475 -0.9991 -0.0999 -0.9991 -0.1298 -0.8392 0 -0.8991 -0.7193 -0.06 -0.5295 -0.1199 -1.069 -0.1499 -1.6085V9.57489c0.0041 -0.03755 0.0006 -0.07554 -0.0103 -0.11169 -0.011 -0.03615 -0.0292 -0.06971 -0.0534 -0.09865 -0.0243 -0.02894 -0.0542 -0.05266 -0.0879 -0.06974 -0.0337 -0.01708 -0.0705 -0.02716 -0.1082 -0.02963 -0.0762 -0.00292 -0.1507 0.02336 -0.2083 0.07348 -0.0575 0.05013 -0.0938 0.12032 -0.1014 0.19627 -0.1184 0.91537 -0.1984 1.83537 -0.2398 2.75747v0.6993c0.0048 0.149 0.0497 0.294 0.1299 0.4196 0.1266 0.1727 0.2951 0.3102 0.4896 0.3997Z" clip-rule="evenodd" stroke-width="1"></path>
  <path fill="#000000" fill-rule="evenodd" d="M20.8946 9.43502c-0.2749 -0.04004 -0.5542 -0.04004 -0.8292 0 -1.3787 0.2098 -1.2289 0.52951 -1.2289 0.55948 0 0.03 0 0.2797 1.2289 0.4796h0.3996c0.1364 0.0099 0.2733 0.0099 0.4096 0 1.159 -0.1399 1.2689 -0.2398 1.2789 -0.4796 0.0099 -0.23978 -0.1699 -0.37965 -1.2589 -0.55948Z" clip-rule="evenodd" stroke-width="1"></path>
  <path fill="#000000" fill-rule="evenodd" d="M17.6776 19.4257c-0.7187 0.0412 -1.4392 0.0412 -2.158 0 -0.1201 0.0043 -0.2397 -0.0164 -0.3514 -0.0607 -0.1117 -0.0443 -0.213 -0.1113 -0.2975 -0.1967 -0.0845 -0.0854 -0.1504 -0.1875 -0.1934 -0.2996 -0.0431 -0.1122 -0.0625 -0.2321 -0.0569 -0.3521l-0.2997 -1.9982c0.6155 -0.0394 1.2328 -0.0394 1.8483 0 0.0414 0.0088 0.084 0.0093 0.1255 0.0014 0.0416 -0.0078 0.0811 -0.0238 0.1164 -0.047 0.0353 -0.0233 0.0657 -0.0533 0.0893 -0.0883 0.0237 -0.035 0.0401 -0.0744 0.0485 -0.1158 0.0087 -0.0414 0.0092 -0.084 0.0013 -0.1256 -0.0078 -0.0415 -0.0238 -0.0811 -0.047 -0.1164 -0.0233 -0.0353 -0.0533 -0.0656 -0.0883 -0.0893 -0.035 -0.0236 -0.0744 -0.04 -0.1158 -0.0484 -0.5005 -0.1721 -1.0154 -0.2992 -1.5386 -0.3796 -0.2295 -0.0149 -0.4598 -0.0149 -0.6893 0 -0.2278 0.0084 -0.4547 0.0318 -0.6794 0.0699 -0.5296 0.1055 -1.0412 0.2872 -1.5186 0.5395 -0.0358 0.0113 -0.0689 0.0296 -0.0975 0.054 -0.0285 0.0243 -0.0519 0.0542 -0.0687 0.0877 -0.0167 0.0336 -0.0266 0.0702 -0.0289 0.1076 -0.0024 0.0375 0.0028 0.075 0.0153 0.1104 0.025 0.0707 0.0764 0.1289 0.1435 0.1624 0.0671 0.0336 0.1446 0.0398 0.2161 0.0174 0.2709 -0.0444 0.5448 -0.0678 0.8193 -0.0699h0.7593l-0.06 1.9981c-0.0135 0.2463 -0.0135 0.4931 0 0.7393 0.0133 0.1754 0.0795 0.3426 0.1898 0.4796 0.3492 0.3577 0.8197 0.5716 1.3188 0.5994 0.9067 -0.007 1.8092 -0.1244 2.6875 -0.3496 0.0857 -0.0077 0.1651 -0.0485 0.2211 -0.1139 0.056 -0.0653 0.0842 -0.15 0.0786 -0.2358 -0.0059 -0.0445 -0.021 -0.0874 -0.0441 -0.1259 -0.0231 -0.0385 -0.0538 -0.0718 -0.0903 -0.098 -0.0365 -0.0262 -0.078 -0.0447 -0.1219 -0.0543 -0.0438 -0.0096 -0.0892 -0.0101 -0.1333 -0.0016Z" clip-rule="evenodd" stroke-width="1"></path>
  <path fill="#000000" fill-rule="evenodd" d="M21.564 16.3985c-0.0611 -0.0751 -0.137 -0.1368 -0.2229 -0.1815 -0.0859 -0.0447 -0.18 -0.0713 -0.2766 -0.0782 -0.2375 0.0057 -0.4743 0.0257 -0.7094 0.0599l-2.5076 -0.0999c-0.037 -0.0071 -0.075 -0.0064 -0.1117 0.002 -0.0367 0.0085 -0.0712 0.0245 -0.1013 0.0471 -0.0301 0.0226 -0.0552 0.0512 -0.0736 0.0841 -0.0183 0.0328 -0.0296 0.0691 -0.0331 0.1066 -0.0088 0.0739 0.0113 0.1483 0.0559 0.2078 0.0446 0.0595 0.1105 0.0996 0.1838 0.1119l2.5177 0.4796c0.4696 0.0599 0.5095 0 0.4895 0.3996 -0.0199 0.3996 0 0.6194 -0.0499 0.8292v4.2361c-0.0001 0.0857 0.0333 0.1681 0.093 0.2297 0.0597 0.0615 0.141 0.0974 0.2267 0.1 0.0428 0.0013 0.0855 -0.006 0.1254 -0.0214 0.04 -0.0155 0.0764 -0.0388 0.1071 -0.0687 0.0308 -0.0298 0.0552 -0.0655 0.0719 -0.1049 0.0167 -0.0395 0.0253 -0.0819 0.0253 -0.1247l0.4296 -4.1761c0.041 -0.432 0.041 -0.8669 0 -1.2988 -0.0121 -0.2635 -0.0949 -0.5189 -0.2398 -0.7394Z" clip-rule="evenodd" stroke-width="1"></path>
  <path fill="#000000" fill-rule="evenodd" d="M2.31188 5.35881c0.06015 -0.00118 0.11843 -0.02106 0.16677 -0.05686 0.04833 -0.03581 0.08433 -0.08577 0.10298 -0.14296 0.02078 0.07471 0.06723 0.1397 0.13119 0.18356 0.06395 0.04385 0.14131 0.06376 0.21849 0.05622 0.59944 0 1.15892 0.17983 1.68843 0.12988 0.32068 -0.02168 0.62723 -0.14012 0.87918 -0.33968 0.12994 -0.11205 0.22091 -0.26249 0.25976 -0.42961 0.0711 -0.32832 0.10793 -0.66314 0.1099 -0.99907 0.06537 -0.44051 0.06537 -0.88825 0 -1.32876 -0.05522 -0.2661 -0.18318 -0.51165 -0.36966 -0.70934 -0.11664 -0.10721 -0.26285 -0.17684 -0.41961 -0.19982 -0.21933 -0.02013 -0.44005 -0.02013 -0.65938 0 -0.35374 -0.00782 -0.70759 0.00887 -1.05902 0.04996 -0.24786 0.03868 -0.49189 0.09885 -0.72932 0.17983 -0.18809 0.06241 -0.36388 0.15707 -0.51952 0.27974 -0.11298 0.07787 -0.20275 0.1849 -0.25976 0.30971 -0.05907 0.12462 -0.08652 0.26188 -0.07993 0.39963 0.00694 0.19428 0.02697 0.38787 0.05995 0.57946l0.16984 1.76836c0.00115 0.03855 0.01027 0.07645 0.02677 0.11131s0.04003 0.06594 0.06912 0.09127c0.02908 0.02533 0.06309 0.04437 0.09989 0.05593 0.0368 0.01156 0.07559 0.01539 0.11393 0.01124Zm0.30972 -2.05809c0 -0.55948 -0.05995 -0.50953 0.28973 -0.58945 0.24067 -0.04404 0.48466 -0.06744 0.72932 -0.06994h0.78927c0.24976 0 0.4296 0 0.44958 0.30971 0.01998 0.30972 0 0.56948 0 0.78927 0 0.2198 0 0.99907 -0.55948 0.99907 -0.48909 -0.02981 -0.97955 -0.02981 -1.46864 0 -0.05802 0.0045 -0.11348 0.02578 -0.1596 0.06126 -0.04613 0.03549 -0.08093 0.08363 -0.10016 0.13856l0.02998 -1.63848Z" clip-rule="evenodd" stroke-width="1"></path>
  <path fill="#000000" fill-rule="evenodd" d="M2.31191 22.0133c0.06052 0.0004 0.11954 -0.0189 0.16817 -0.0549 0.04864 -0.036 0.08428 -0.0869 0.10158 -0.1449 0.01893 0.0758 0.06495 0.142 0.12937 0.1862 0.06442 0.0442 0.14279 0.0632 0.2203 0.0536 0.59944 0 1.15892 0.1798 1.68843 0.1399 0.31851 -0.0311 0.6225 -0.1486 0.87919 -0.3397 0.12993 -0.1121 0.2209 -0.2625 0.25975 -0.4296 0.07054 -0.3284 0.10736 -0.6632 0.1099 -0.9991 0.06538 -0.4405 0.06538 -0.8882 0 -1.3288 -0.05521 -0.2661 -0.18318 -0.5116 -0.36965 -0.7093 -0.11665 -0.1072 -0.26286 -0.1768 -0.41961 -0.1998 -0.21954 -0.0151 -0.43986 -0.0151 -0.65939 0 -0.35397 -0.0044 -0.70781 0.0156 -1.05902 0.0599 -0.24844 0.0306 -0.49293 0.0875 -0.72932 0.1699 -0.19441 0.0572 -0.37709 0.1485 -0.5395 0.2697 -0.11298 0.0779 -0.20275 0.1849 -0.25976 0.3097 -0.05907 0.1247 -0.08652 0.2619 -0.07992 0.3997 0.00699 0.1976 0.02702 0.3945 0.05994 0.5894l0.18982 1.7084c-0.00874 0.043 -0.00688 0.0874 0.00542 0.1295s0.03467 0.0805 0.06517 0.112c0.0305 0.0315 0.06822 0.0551 0.10989 0.0687 0.04166 0.0136 0.08602 0.0169 0.12924 0.0095Zm0.30971 -2.0581c0 -0.5395 -0.05995 -0.5095 0.28973 -0.5894 0.24067 -0.044 0.48467 -0.0674 0.72932 -0.0699h0.78927c0.24977 0 0.45957 0 0.44958 0.3097 -0.00999 0.3097 0 0.5595 0 0.7792 0 0.2198 0 0.9991 -0.55948 0.9991 -0.48892 -0.035 -0.97971 -0.035 -1.46863 0 -0.05664 0.0087 -0.11016 0.0316 -0.15557 0.0665 -0.04542 0.035 -0.08126 0.0808 -0.10419 0.1333l0.02997 -1.6285Z" clip-rule="evenodd" stroke-width="1"></path>
  <path fill="#000000" fill-rule="evenodd" d="M18.1672 5.35881c0.0588 -0.00176 0.1155 -0.02202 0.1622 -0.05789 0.0466 -0.03587 0.0807 -0.08554 0.0975 -0.14193 0.0208 0.07471 0.0673 0.1397 0.1312 0.18355 0.064 0.04386 0.1413 0.06377 0.2185 0.05623 0.5994 0 1.1589 0.17983 1.6984 0.12988 0.3176 -0.02179 0.621 -0.14034 0.8692 -0.33969 0.1299 -0.11204 0.2209 -0.26248 0.2598 -0.4296 0.0735 -0.32814 0.1136 -0.66286 0.1199 -0.99907 0.0653 -0.44051 0.0653 -0.88825 0 -1.32876 -0.0549 -0.26833 -0.1869 -0.51483 -0.3797 -0.70934 -0.1151 -0.1094 -0.2621 -0.17937 -0.4196 -0.19982 -0.216 -0.02014 -0.4334 -0.02014 -0.6494 0 -0.3537 -0.00804 -0.7076 0.00865 -1.059 0.04995 -0.2481 0.03748 -0.4922 0.09768 -0.7293 0.17984 -0.1808 0.06516 -0.3496 0.15968 -0.4996 0.27974 -0.1102 0.08082 -0.1993 0.18707 -0.2597 0.30971 -0.0497 0.12756 -0.0767 0.26279 -0.08 0.39963 0.0098 0.19454 0.0332 0.38817 0.07 0.57946l0.1798 1.74838c-0.0002 0.0735 0.0276 0.14432 0.0777 0.19811 0.0501 0.0538 0.1187 0.08655 0.1921 0.09162Zm0.5994 -2.64754c0.2407 -0.04404 0.4847 -0.06744 0.7293 -0.06994h0.7793c0.2498 0 0.4296 0 0.4496 0.30971 0.015 0.26288 0.015 0.5264 0 0.78927 0 0.33969 0 0.99907 -0.5495 0.99907 -0.4891 -0.02986 -0.9796 -0.02986 -1.4686 0 -0.0584 0.00319 -0.1145 0.02399 -0.1609 0.05965 -0.0463 0.03567 -0.0808 0.08453 -0.0989 0.14017V3.28074c0.03 -0.5395 -0.04 -0.48955 0.3197 -0.56947Z" clip-rule="evenodd" stroke-width="1"></path>
  <path fill="#000000" fill-rule="evenodd" d="M9.3054 13.0217c-0.08271 -0.0861 -0.19164 -0.1423 -0.30972 -0.1599 -0.13492 -0.0279 -0.27193 -0.0446 -0.40961 -0.0499l-1.1889 -0.0799 -1.94819 -0.08H3.45084c-0.2495 0.0166 -0.49981 0.0166 -0.74931 0 -0.12988 0 -0.26975 0 -0.34967 -0.0999 -0.02294 -0.0714 -0.02294 -0.1483 0 -0.2198v-0.4695L2.202 9.41504c0.0014 -0.03711 -0.00488 -0.07412 -0.01844 -0.10869 -0.01356 -0.03457 -0.03412 -0.06598 -0.06038 -0.09224 -0.02626 -0.02626 -0.05766 -0.04681 -0.09223 -0.06038 -0.03458 -0.01356 -0.07158 -0.01983 -0.10869 -0.01843 -0.03757 -0.00135 -0.07502 0.0049 -0.11013 0.01835 -0.0351 0.01346 -0.06713 0.03385 -0.09417 0.05996 -0.02704 0.02612 -0.04855 0.05741 -0.06323 0.09202 -0.01467 0.0346 -0.02223 0.07182 -0.0222 0.10941l-0.14986 2.47766c-0.0162 0.2495 -0.0162 0.4998 0 0.7493 0.01493 0.1702 0.06969 0.3345 0.15985 0.4796 0.14071 0.2222 0.35172 0.3911 0.59944 0.4795 0.41654 0.1114 0.84883 0.1519 1.27881 0.1199h5.04531c0.05322 0.0037 0.10663 0.0037 0.15986 0 -0.00514 0.0732 -0.00514 0.1467 0 0.2198v1.6685c-0.00835 0.0474 -0.00622 0.0961 0.00625 0.1425 0.01247 0.0465 0.03496 0.0897 0.06591 0.1266 0.03094 0.0369 0.06959 0.0665 0.11322 0.0869 0.04362 0.0203 0.09118 0.0309 0.13931 0.0309 0.04814 0 0.09569 -0.0106 0.13932 -0.0309 0.04363 -0.0204 0.08227 -0.05 0.11322 -0.0869 0.03094 -0.0369 0.05344 -0.0801 0.06591 -0.1266 0.01247 -0.0464 0.0146 -0.0951 0.00625 -0.1425l0.08992 -1.6685c0.00905 -0.1697 0.00905 -0.3398 0 -0.5095 -0.01051 -0.1496 -0.06626 -0.2924 -0.15985 -0.4096Z" clip-rule="evenodd" stroke-width="1"></path>
</svg>