<svg xmlns="http://www.w3.org/2000/svg" fill="none" viewBox="0 0 24 24" id="Coupon-Cut--Streamline-Freehand">
  <desc>
    Coupon Cut Streamline Icon: https://streamlinehq.com
  </desc>
  <path fill="#000000" fill-rule="evenodd" d="M8.21642 8.99028c-0.09582 0.02162 -0.17955 0.07951 -0.2336 0.16153 -0.05406 0.08201 -0.07425 0.18178 -0.05633 0.27836 0.00834 0.04769 0.02621 0.0932 0.05255 0.13382 0.02634 0.04062 0.0606 0.07551 0.10074 0.10257 0.04013 0.02707 0.08532 0.04576 0.13285 0.05496 0.04752 0.0092 0.09642 0.00872 0.14376 -0.00142 0.49642 -0.10118 0.93593 -0.38704 1.2297 -0.7998 0.06999 -0.08998 0.10998 -0.19996 0.17996 -0.28994l0.41985 0.15997c0.0889 0.04242 0.1909 0.04782 0.2837 0.01501 0.046 -0.01625 0.0883 -0.04138 0.1245 -0.07398 0.0363 -0.0326 0.0657 -0.07201 0.0867 -0.11599 0.021 -0.04398 0.0332 -0.09167 0.0357 -0.14035 0.0026 -0.04867 -0.0044 -0.09737 -0.0207 -0.14333 -0.0162 -0.04595 -0.0413 -0.08825 -0.0739 -0.12449 -0.0326 -0.03624 -0.072 -0.06571 -0.116 -0.08671l-0.3399 -0.21995c0.1094 -0.26551 0.1963 -0.53974 0.2599 -0.8198 0.0877 -0.41334 0.0422 -0.84384 -0.13 -1.22971 -0.0874 -0.16331 -0.2098 -0.30532 -0.35843 -0.41592 -0.14862 -0.1106 -0.3198 -0.18706 -0.50134 -0.22393 -0.30126 -0.07311 -0.61708 -0.05933 -0.91082 0.03977 -0.29375 0.09909 -0.55338 0.27943 -0.74878 0.5201 -0.13582 0.15821 -0.25633 0.32893 -0.35992 0.50988 -0.27993 -0.11997 -0.56986 -0.21995 -0.85979 -0.31993 0 -0.08997 0.06998 -0.18995 0.11997 -0.28993 0.04999 -0.09997 0.25994 -0.44989 0.4099 -0.67983 0.02448 -0.03605 0.04157 -0.07658 0.0503 -0.11926 0.00873 -0.04269 0.00891 -0.08668 0.00055 -0.12944 -0.00837 -0.04275 -0.02512 -0.08343 -0.04929 -0.11968 -0.02417 -0.03625 -0.05528 -0.06735 -0.09154 -0.09151 -0.07119 -0.04898 -0.15836 -0.069 -0.24379 -0.056 -0.08543 0.013 -0.1627 0.05805 -0.2161 0.12598 -0.17995 0.22661 -0.34991 0.45656 -0.50987 0.68984 -0.08998 0.13996 -0.16996 0.28993 -0.24994 0.43989l-0.40991 -0.13997c-0.07963 -0.03364 -0.16929 -0.03468 -0.24969 -0.0029 -0.08039 0.03179 -0.1451 0.09386 -0.1802 0.17286 -0.01834 0.03864 -0.02874 0.08055 -0.0306 0.12327 -0.00185 0.04273 0.00487 0.08539 0.01979 0.12546 0.01491 0.04008 0.0377 0.07676 0.06704 0.10788 0.02933 0.03112 0.0646 0.05604 0.10373 0.07329l0.36991 0.24994c-0.12628 0.26881 -0.22348 0.55034 -0.28993 0.8398 -0.06369 0.33021 -0.06369 0.66955 0 0.99976 0.03308 0.18554 0.10551 0.36185 0.21243 0.51705 0.10692 0.15521 0.24584 0.28571 0.40742 0.38273 0.19151 0.09516 0.40626 0.13349 0.61886 0.11046 0.21261 -0.02303 0.41417 -0.10646 0.58085 -0.24043 0.38796 -0.27632 0.70628 -0.63914 0.92978 -1.05974l0.32992 0.15996 0.73982 0.16996c-0.0761 0.15985 -0.18478 0.30201 -0.31908 0.41737 -0.1343 0.11536 -0.29123 0.20135 -0.46073 0.25247ZM6.33687 8.0605s-0.10997 -0.06998 -0.11997 -0.06998c-0.07559 -0.23892 -0.0961 -0.49185 -0.05999 -0.73982 0 -0.09998 0 -0.19996 0.06999 -0.29993l0.53987 0.34991h0.07998c-0.10587 0.29086 -0.28085 0.55162 -0.50988 0.75982Zm2.18948 -1.19971c0.0521 -0.09277 0.10882 -0.18286 0.16995 -0.26994 0.05706 -0.08553 0.13695 -0.15335 0.23062 -0.19577 0.09366 -0.04241 0.19734 -0.05771 0.29926 -0.04417 0.04029 0.00599 0.07759 0.02477 0.10639 0.05357 0.0288 0.02881 0.04758 0.0661 0.05357 0.10639 0.02972 0.13839 0.02972 0.28151 0 0.4199 -0.03215 0.13553 -0.07221 0.26906 -0.11997 0.39991 -0.13997 -0.10998 -0.26994 -0.22995 -0.47989 -0.33992l-0.25993 -0.12997Z" clip-rule="evenodd" stroke-width="1"></path>
  <path fill="#000000" fill-rule="evenodd" d="M16.9943 5.07138c0 0.12 -0.06 0.31 1.22 0.58 0.1232 0.00906 0.2469 0.00906 0.37 0 0.1298 0.00995 0.2602 0.00995 0.39 0 1.25 -0.1 1.28 -0.19 1.32 -0.42 0.04 -0.23 0 -0.44 -1.23 -0.74 -0.1338 -0.03752 -0.2712 -0.06098 -0.41 -0.07 -0.1329 -0.01495 -0.267 -0.01495 -0.4 0 -0.13 0.06 -1.26 0.28 -1.26 0.65Z" clip-rule="evenodd" stroke-width="1"></path>
  <path fill="#000000" fill-rule="evenodd" d="M16.1245 5.93101c-0.0999 -0.60985 -0.5098 -2.43941 -1.0597 -2.15948 -0.223 -0.09599 -0.4538 -0.17292 -0.6898 -0.22994 -0.1298 -0.00992 -0.2602 -0.00992 -0.3899 0 -0.1254 0.00455 -0.2496 0.0247 -0.37 0.05998 -0.281 0.10539 -0.5521 0.23589 -0.8098 0.38991 -0.0842 0.01697 -0.1586 0.06617 -0.2071 0.13713 -0.0486 0.07096 -0.0675 0.15807 -0.0528 0.24278 0.0061 0.04223 0.0205 0.08283 0.0425 0.11939 0.022 0.03657 0.0511 0.06836 0.0856 0.09351 0.0345 0.02515 0.0736 0.04316 0.1151 0.05295 0.0416 0.0098 0.0846 0.01118 0.1267 0.00408 0.3299 0 0.6099 0.13997 0.9298 0.15996 0.1698 0.00986 0.3401 0.00986 0.5099 0l0.3299 -0.06998c-0.5899 0.99976 -1.2797 1.99952 -1.9995 3.21923 -0.33 0.53987 -0.6599 1.09974 -0.9998 1.6696 -0.3399 0.56987 -0.6398 1.13977 -0.9498 1.70957 -0.1099 0.2 -0.6198 1.2897 -0.7298 1.4897 -0.84145 -0.9865 -1.86264 -1.8041 -3.00926 -2.4095 -1.27921 -0.59509 -2.69548 -0.83344 -4.09902 -0.6898 0.09997 -0.76981 0.64984 -2.43941 0.74982 -3.19923 0.05998 -0.42989 0.09997 -0.85979 0.15996 -1.28969 0.05999 -0.4299 0.04999 -0.8398 0.18995 -1.2397 0.07738 -0.39304 0.18092 -0.78048 0.30993 -1.15972 1.0163 0.12156 2.01993 0.33232 2.99928 0.62985 0.45989 0.13996 0.90978 0.27993 1.35968 0.44989 0.44989 0.16996 0.87978 0.34991 1.30968 0.55986 1.01778 0.47648 1.94748 1.12215 2.74938 1.90955 0.0304 0.04159 0.0692 0.07636 0.1139 0.10207 0.0447 0.02572 0.0943 0.0418 0.1456 0.04723 0.0512 0.00543 0.1031 0.00008 0.1522 -0.0157 0.049 -0.01579 0.0943 -0.04166 0.1328 -0.07596 0.0385 -0.03429 0.0694 -0.07626 0.0907 -0.1232 0.0213 -0.04694 0.0326 -0.09782 0.0331 -0.14938 0.0005 -0.05155 -0.0098 -0.10264 -0.0302 -0.14999 -0.0204 -0.04735 -0.0505 -0.08991 -0.0883 -0.12496 -0.7551 -0.97761 -1.6837 -1.80791 -2.7393 -2.44941 -0.455 -0.27505 -0.93338 -0.50925 -1.42967 -0.69983 -0.48894 -0.19181 -0.9942 -0.33904 -1.50964 -0.4399 -1.19416 -0.21059 -2.40997 -0.27105 -3.61913 -0.17995 -0.29993 0 -0.99976 1.6496 -1.2597 2.58938 -0.08975 0.32821 -0.15656 0.66227 -0.19995 0.99976 -0.04662 0.33121 -0.07001 0.66528 -0.06998 0.99976 0 0.8098 -0.30993 2.50939 -0.21995 3.30917 0.08998 0.7998 -0.32992 -0.63981 4.24898 1.4697l0.75982 0.3599c-0.18877 0.3636 -0.3299 0.75 -0.4199 1.1497 -0.07968 0.4161 -0.07968 0.8436 0 1.2597 0.11911 0.6182 0.44315 1.1783 0.91978 1.5896 -0.38991 0.3599 -0.77981 0.7199 -1.17972 0.9998 -0.31929 0.2618 -0.65307 0.5055 -0.99976 0.7298 -0.34992 0.23 -0.68983 0.4699 -0.99976 0.6799 -0.21365 0.1342 -0.43764 0.2512 -0.66984 0.3499 -0.41647 0.1614 -0.8658 0.2197 -1.30968 0.1699 -0.38787 -0.0377 -0.7461 -0.224 -0.99976 -0.5198 -0.13949 -0.1685 -0.21991 -0.378 -0.22894 -0.5965 -0.00903 -0.2185 0.05383 -0.4339 0.17895 -0.6133 0.11983 -0.2424 0.28954 -0.4568 0.49801 -0.6291 0.20848 -0.1723 0.45101 -0.2986 0.7117 -0.3706 0.17721 -0.0397 0.35826 -0.0598 0.53987 -0.06 0.18297 -0.0153 0.36689 -0.0153 0.54987 0 0.25544 0.0496 0.50389 0.1302 0.73982 0.2399 0.23555 0.1057 0.45717 0.24 0.65984 0.3999 0.02983 0.0309 0.06556 0.0554 0.10507 0.0722 0.0395 0.0167 0.08197 0.0253 0.12488 0.0253 0.0429 0 0.08537 -0.0086 0.12487 -0.0253 0.03951 -0.0168 0.07524 -0.0413 0.10507 -0.0722 0.05985 -0.0615 0.09333 -0.144 0.09333 -0.2299s-0.03348 -0.1684 -0.09333 -0.2299c-0.23085 -0.2182 -0.48576 -0.4094 -0.75982 -0.5699 -0.27803 -0.1593 -0.57317 -0.2868 -0.87979 -0.3799 -0.23136 -0.0683 -0.4693 -0.1118 -0.70983 -0.13 -0.23929 -0.0249 -0.48053 -0.0249 -0.71982 0 -0.54508 0.0559 -1.06356 0.2635 -1.49654 0.5993 -0.432988 0.3358 -0.763115 0.7862 -0.952877 1.3003 -0.1508377 0.3488 -0.2017344 0.7326 -0.1470047 1.1087 0.0547297 0.376 0.2129307 0.7294 0.4569307 1.0208 0.221807 0.2837 0.499541 0.5188 0.815981 0.6908 0.31644 0.172 0.66483 0.2771 1.02358 0.3089 0.65981 0.0613 1.32379 -0.0597 1.91954 -0.3499 0.26716 -0.1368 0.52146 -0.2974 0.75982 -0.4799 0.35991 -0.2499 0.68983 -0.5299 0.99976 -0.7998 0.30992 -0.2699 0.66983 -0.5699 0.99976 -0.8698 0.32992 -0.2999 0.86979 -0.9098 1.30968 -1.3797 0.06838 -0.0692 0.10673 -0.1626 0.10673 -0.2599 0 -0.0973 -0.03835 -0.1907 -0.10673 -0.2599 -0.21572 -0.3401 -0.32374 -0.7373 -0.30992 -1.1398v-1.1097c-0.02616 -0.3728 -0.02616 -0.7469 0 -1.1197 0.57506 0.3108 1.12346 0.6686 1.6396 1.0697 -0.51987 0.9998 -0.59985 0.9998 -1.04975 1.8396 -0.02566 0.0413 -0.04292 0.0873 -0.05078 0.1353 -0.00786 0.048 -0.00616 0.0971 0.00498 0.1445 0.01114 0.0474 0.03152 0.0921 0.05997 0.1315 0.02845 0.0395 0.0644 0.073 0.10581 0.0986 0.06248 0.0145 0.12746 0.0145 0.18995 0 -0.06394 0.0181 -0.12141 0.054 -0.16567 0.1036 -0.04426 0.0496 -0.07349 0.1107 -0.08427 0.1763l0 0.11c-0.07366 -0.0024 -0.14617 0.0186 -0.20721 0.0599 -0.06104 0.0413 -0.10748 0.1008 -0.13271 0.17 -0.17996 0.4999 -0.35991 0.9998 -0.50988 1.4996 -0.09132 0.3622 -0.16142 0.7294 -0.20995 1.0998 -0.06138 0.367 -0.09812 0.7378 -0.10997 1.1097 -0.00491 0.2613 0.01518 0.5224 0.05999 0.7798 0.0787 0.5407 0.31122 1.0474 0.66984 1.4597 0.38548 0.4302 0.90857 0.7129 1.47964 0.7998 0.51291 0.0776 1.03701 0.0269 1.52551 -0.1476 0.4885 -0.1744 0.9261 -0.4672 1.2738 -0.8522 0.239 -0.2879 0.3951 -0.6354 0.4515 -1.0053 0.0563 -0.3699 0.0109 -0.7482 -0.1316 -1.0942 -0.0698 -0.1713 -0.1499 -0.3382 -0.2399 -0.4998 -0.0976 -0.153 -0.2045 -0.2999 -0.3199 -0.4399 -0.1638 -0.1922 -0.3408 -0.3726 -0.5299 -0.5399 -0.1967 -0.1677 -0.4074 -0.3182 -0.6298 -0.4499 -0.2743 -0.1528 -0.5622 -0.28 -0.8598 -0.3799 -0.29203 -0.1005 -0.59352 -0.1708 -0.89982 -0.21 -0.07815 -0.0016 -0.15436 0.0245 -0.21504 0.0738 -0.06068 0.0492 -0.1019 0.1185 -0.1163 0.1953 -0.01441 0.0768 -0.00107 0.1563 0.03764 0.2242 0.03871 0.0679 0.10028 0.1198 0.17373 0.1466 0.25974 0.0621 0.51389 0.1457 0.75981 0.2499 0.23728 0.1104 0.46478 0.2409 0.67988 0.3899 0.1616 0.1232 0.3122 0.2604 0.4499 0.4099 0.1375 0.1511 0.2644 0.3114 0.3799 0.4799l0.3099 0.6898c0.0705 0.216 0.0653 0.4495 -0.0147 0.6621 -0.0799 0.2126 -0.2299 0.3917 -0.4252 0.5077 -0.4264 0.3104 -0.9583 0.4398 -1.47965 0.3599 -0.29708 -0.0363 -0.57252 -0.174 -0.77982 -0.3899 -0.23552 -0.2374 -0.4015 -0.5348 -0.47988 -0.8598 -0.05846 -0.2426 -0.09196 -0.4905 -0.09998 -0.7398 -0.02015 -0.2663 -0.02015 -0.5336 0 -0.7998 0.02038 -0.3365 0.06718 -0.6707 0.13997 -0.9998 0.10997 -0.4999 0.23994 -0.9998 0.37991 -1.4897 0.0097 -0.0495 0.0097 -0.1004 0 -0.1499 0.20552 0.0301 0.41433 0.0301 0.61985 0 0.30442 -0.0588 0.6001 -0.1562 0.8798 -0.2899 0.5285 -0.24 1.0228 -0.5494 1.4696 -0.9198 0.4474 -0.3557 0.8653 -0.7469 1.2497 -1.1697 0.6841 -0.7419 1.3029 -1.5413 1.8496 -2.3895 0.368 -0.5951 0.6697 -1.2287 0.8998 -1.88952 0.0772 -0.24424 0.1308 -0.49533 0.1599 -0.74982 0 -0.34992 0.06 -0.70983 0.08 -1.05974 0.0382 -0.69511 0.0013 -1.3923 -0.11 -2.07951Zm-0.9397 1.99952c0 0.31993 -0.09 0.63985 -0.16 0.99976 -0.0381 0.18739 -0.0916 0.3713 -0.16 0.54987 -0.2213 0.56924 -0.4922 1.11794 -0.8098 1.63964 -0.4962 0.8067 -1.0474 1.5783 -1.6496 2.3094 -0.3015 0.4097 -0.6359 0.7942 -0.9997 1.1497 -0.3658 0.3517 -0.7758 0.6542 -1.2197 0.8998 -0.1781 0.1012 -0.36563 0.1849 -0.5599 0.25 -0.16487 0.0661 -0.34274 0.0935 -0.51987 0.0799 0.0583 -0.0187 0.11022 -0.0533 0.14996 -0.0999 0.74981 -1.0998 1.64961 -2.4095 2.52941 -3.8091 0.3499 -0.5499 0.6898 -1.1098 0.9997 -1.6696 0.31 -0.55988 0.6499 -1.14974 0.9398 -1.7196 0.5699 -1.10974 0.9998 -2.13949 1.4797 -3.08926 0 0.21994 0.07 0.43989 0.0799 0.66983 0.0327 0.60836 -0.0008 1.21846 -0.0999 1.81957v0.01999Z" clip-rule="evenodd" stroke-width="1"></path>
  <path fill="#000000" fill-rule="evenodd" d="M23.7027 11.4897c-0.2448 -0.2883 -0.5196 -0.5497 -0.8198 -0.7798 -0.3598 -0.2755 -0.7447 -0.5165 -1.1497 -0.71986 -0.8598 -0.44989 -1.8096 -0.76982 -2.6494 -1.22971 -0.0364 -0.02335 -0.0773 -0.03905 -0.12 -0.04616 -0.0427 -0.00711 -0.0864 -0.00548 -0.1285 0.0048 -0.042 0.01029 -0.0816 0.029 -0.1162 0.05501 -0.0346 0.02602 -0.0636 0.05879 -0.0852 0.09633 -0.0453 0.0732 -0.0602 0.16123 -0.0415 0.24529 0.0186 0.08406 0.0694 0.15749 0.1415 0.2046 0.7898 0.54987 1.6796 0.9998 2.4894 1.5296 0.3229 0.2094 0.6214 0.4542 0.8898 0.7299 0.12 0.1199 0.2999 0.2799 0.4599 0.4698 0.0816 0.0634 0.1411 0.1508 0.17 0.25 0.0167 0.2558 -0.0243 0.512 -0.12 0.7498 -0.1413 0.4556 -0.3082 0.9029 -0.4999 1.3397 -0.11 0.2899 -0.2199 0.5798 -0.3499 0.8698 -0.13 0.2899 -0.2599 0.5598 -0.4099 0.8198 -0.2249 0.409 -0.4859 0.7971 -0.7798 1.1597 -0.3053 0.3601 -0.6396 0.6945 -0.9998 0.9998 -0.0423 0.0439 -0.0702 0.0997 -0.08 0.1599 -0.2999 -0.1199 -0.5998 -0.2599 -0.8898 -0.4099 -0.8298 -0.4499 -1.5996 -0.9997 -2.4394 -1.3697l-0.3599 -0.2099c0.2637 -0.1193 0.5207 -0.2528 0.7698 -0.3999 0.3079 -0.1791 0.605 -0.3761 0.8898 -0.5899 0.2008 -0.1387 0.3853 -0.2997 0.5499 -0.4798 0.1031 -0.1234 0.172 -0.2716 0.1999 -0.4299 0.0113 -0.1248 -0.0115 -0.2502 -0.0661 -0.363 -0.0546 -0.1127 -0.1389 -0.2084 -0.2438 -0.2769 -0.1253 -0.0812 -0.2556 -0.1546 -0.3899 -0.2199 -0.2154 -0.1411 -0.4223 -0.2947 -0.6198 -0.4599l-0.16 -0.14 0.13 -0.1 1.5196 -0.8398c0.1738 -0.1049 0.3378 -0.2254 0.4899 -0.3599 0.1038 -0.0883 0.183 -0.2019 0.2299 -0.3299 0.041 -0.0642 0.0627 -0.1388 0.0627 -0.215 0 -0.0761 -0.0217 -0.1507 -0.0627 -0.2149 -0.05 -0.07 -0.1899 -0.2199 -0.2099 -0.2499l-0.6199 -0.74986 -0.6998 -0.88979c-0.0543 -0.06292 -0.1303 -0.10304 -0.2128 -0.11236 -0.0826 -0.00931 -0.1657 0.01287 -0.2326 0.06211 -0.0669 0.04925 -0.1128 0.12193 -0.1284 0.20353 -0.0157 0.0816 0 0.1661 0.0439 0.23663l0.6199 0.91974 0.4999 0.8198 -0.24 0.14 -1.4896 0.6199c-0.1 0 -0.4799 0.1499 -0.6999 0.2599 -0.1644 0.0822 -0.2977 0.2155 -0.3799 0.3799 -0.042 0.13 -0.042 0.2699 0 0.3999 0.0798 0.2233 0.1945 0.4325 0.3399 0.6199 0.1724 0.2161 0.3668 0.4138 0.5799 0.5898 0.13 0.11 0.2499 0.21 0.3899 0.3099 -0.2183 0.1591 -0.4453 0.306 -0.6798 0.4399 -0.27 0.17 -0.5399 0.32 -0.8198 0.4599l-0.7399 0.3799c-0.1177 0.0625 -0.2118 0.1618 -0.2677 0.2828 -0.056 0.1209 -0.0708 0.2569 -0.0422 0.3871 0.0297 0.1028 0.0808 0.1982 0.15 0.2799 0.1157 0.1045 0.2432 0.1951 0.3799 0.2699 0.1488 0.1001 0.306 0.1871 0.4699 0.26 0.2199 0.11 0.4599 0.1999 0.6898 0.2899 0.8498 0.3199 1.6396 0.7898 2.4694 1.1597 0.3765 0.1749 0.7638 0.3252 1.1597 0.4499 0.19 0.06 1.1498 -0.7198 1.7996 -1.3896 0.3651 -0.3688 0.6994 -0.7666 0.9998 -1.1898 0.1933 -0.2799 0.3732 -0.5698 0.5398 -0.8697 0.1679 -0.2907 0.3181 -0.5912 0.4499 -0.8998 0.2313 -0.471 0.435 -0.955 0.6099 -1.4497 0.1268 -0.4003 0.1777 -0.8207 0.15 -1.2397 -0.0354 -0.2481 -0.1354 -0.4825 -0.29 -0.6798Z" clip-rule="evenodd" stroke-width="1"></path>
  <path fill="#000000" fill-rule="evenodd" d="M12.1257 2.63213c0.0606 0.04932 0.128 0.08973 0.2 0.12 0.93 0.45 1 0.28 1.06 0.22 0.27 -0.25 -0.28 -1.11 -0.29 -1.13 -0.0606 -0.08224 -0.135 -0.1533 -0.22 -0.21 -0.0811 -0.06216 -0.1725 -0.10955 -0.27 -0.14 -0.93 -0.35 -1.11 -0.17 -1.19 0 -0.08 0.17 -0.29 0.24 0.71 1.14Z" clip-rule="evenodd" stroke-width="1"></path>
  <path fill="#000000" fill-rule="evenodd" d="M16.7647 2.35223c0.0893 -0.11144 0.1664 -0.23213 0.23 -0.36 0.54 -0.78 0.6 -0.82 0.47 -0.999995 -0.26 -0.46 -1.26 0.190005 -1.28 0.200005 -0.103 0.05996 -0.1944 0.13785 -0.27 0.22999 -0.0843 0.08706 -0.1521 0.18871 -0.2 0.3 -0.09 0.2 -0.35 1.08 0 1.24 0 0.03 0.18 0.23 1.05 -0.61Z" clip-rule="evenodd" stroke-width="1"></path>
</svg>