<svg xmlns="http://www.w3.org/2000/svg" fill="none" viewBox="0 0 24 24" id="Customer-Action-Complaint--Streamline-Freehand">
  <desc>
    Customer Action Complaint Streamline Icon: https://streamlinehq.com
  </desc>
  <path fill="#000000" fill-rule="evenodd" d="M6.43928 4.29985c-0.17371 -0.01421 -0.34676 0.03436 -0.48772 0.13687 -0.14095 0.10252 -0.24047 0.25218 -0.28048 0.42182 -0.14965 0.39907 0.07981 0.92783 0.77818 0.8979 0.69837 -0.02993 0.8979 -1.41669 -0.00998 -1.45659Z" clip-rule="evenodd" stroke-width="1"></path>
  <path fill="#000000" fill-rule="evenodd" d="M19.409 5.69658c-0.1867 -0.01483 -0.3725 0.03726 -0.5242 0.14695 -0.1517 0.10968 -0.2595 0.26979 -0.3039 0.45166 -0.1696 0.42899 0.0898 0.99766 0.848 0.99766s0.9677 -1.55636 -0.0199 -1.59627Z" clip-rule="evenodd" stroke-width="1"></path>
  <path fill="#000000" fill-rule="evenodd" d="M15.7076 5.91607c-0.1866 -0.01483 -0.3724 0.03726 -0.5241 0.14694 -0.1518 0.10968 -0.2595 0.26979 -0.3039 0.45166 -0.1597 0.429 0.0898 0.99767 0.848 0.99767s0.9677 -1.55636 -0.02 -1.59627Z" clip-rule="evenodd" stroke-width="1"></path>
  <path fill="#000000" fill-rule="evenodd" d="M22.0628 2.16484c-0.5904 -0.64497 -1.3185 -1.14855 -2.1304 -1.47328 -0.8118 -0.324728 -1.6864 -0.46225 -2.5587 -0.402338 -1.485 0.187515 -2.8862 0.792978 -4.0405 1.745918 -1.1831 0.96495 -1.9683 2.33276 -2.2049 3.84102 -0.1019 0.90348 0.0278 1.81803 0.3768 2.65755 0.3491 0.83952 0.9061 1.57639 1.6186 2.14119 3.6714 3.1327 7.9813 0.4789 8.8792 -0.3292 1.094 -0.88156 1.8082 -2.14921 1.9953 -3.5417 0.0207 -0.86576 -0.1409 -1.72619 -0.4743 -2.52542 -0.3335 -0.79923 -0.8313 -1.5194 -1.4611 -2.11374Zm-0.7084 7.48251c-1.1074 0.99765 -4.5493 3.22245 -7.6321 0.32923 -0.5554 -0.4823 -0.9786 -1.0981 -1.23 -1.78933 -0.2514 -0.69123 -0.3225 -1.4351 -0.2067 -2.16143 0.2478 -1.1921 0.9173 -2.2548 1.8856 -2.99301 0.9651 -0.77272 2.1254 -1.26307 3.3522 -1.41669 0.6769 -0.04798 1.3561 0.05413 1.9891 0.29902 0.6329 0.2449 1.2039 0.62654 1.6723 1.11767 0.5141 0.46604 0.9279 1.03193 1.216 1.66316 0.2882 0.63122 0.4447 1.31454 0.4601 2.00826 -0.1105 1.13667 -0.649 2.18881 -1.5065 2.94312Z" clip-rule="evenodd" stroke-width="1"></path>
  <path fill="#000000" fill-rule="evenodd" d="M19.5885 3.65136c-0.1361 0.03593 -0.2669 0.0896 -0.3891 0.15963 -0.1199 0.07269 -0.2305 0.1598 -0.3292 0.2594 -0.1796 0.18955 -0.848 0.99766 -0.5687 1.31692 0 0 0.0799 0.3392 1.3968 -0.30928 0.1569 -0.0847 0.307 -0.18143 0.4489 -0.28932 0.888 -0.63851 0.9977 -0.65846 0.9378 -0.99767 -0.1297 -0.48886 -1.2371 -0.21949 -1.4965 -0.13968Z" clip-rule="evenodd" stroke-width="1"></path>
  <path fill="#000000" fill-rule="evenodd" d="M15.4981 5.02815c1.2371 0.64848 1.3269 0.34918 1.3468 0.32923 0.2694 -0.27935 -0.3093 -1.10741 -0.4789 -1.30695 -0.087 -0.10126 -0.1918 -0.18579 -0.3092 -0.24941 -0.1136 -0.07759 -0.238 -0.1381 -0.3692 -0.17959 -0.3392 -0.10974 -1.3369 -0.3392 -1.4466 0.16961 -0.0599 0.26937 0 0.26937 0.858 0.99767 0.1277 0.08835 0.261 0.16833 0.3991 0.23944Z" clip-rule="evenodd" stroke-width="1"></path>
  <path fill="#000000" fill-rule="evenodd" d="M18.3315 8.12092c-0.2697 -0.0735 -0.5487 -0.10711 -0.8281 -0.09977 -0.2872 -0.00506 -0.5734 0.03534 -0.848 0.11972 -0.3258 0.09303 -0.6296 0.25044 -0.8935 0.46293 -0.2639 0.21248 -0.4825 0.47574 -0.6429 0.77418 -0.0362 0.03493 -0.0644 0.07726 -0.0827 0.1241 -0.0184 0.04685 -0.0264 0.0971 -0.0235 0.14731 0.0029 0.05022 0.0167 0.09921 0.0403 0.14364 0.0235 0.04442 0.0565 0.08322 0.0964 0.11375 0.04 0.03053 0.0861 0.05206 0.1352 0.06312 0.049 0.01106 0.0999 0.01139 0.1491 0.00096 0.0492 -0.01042 0.0956 -0.03135 0.136 -0.06136 0.0403 -0.03001 0.0737 -0.06838 0.0979 -0.1125 0.3726 -0.2832 0.829 -0.43415 1.297 -0.429 0.1927 -0.01019 0.3859 -0.01019 0.5786 0 0.1961 -0.00995 0.3926 -0.00995 0.5886 0 0.4665 0.00551 0.9224 0.14019 1.317 0.38909 0.0746 0.07312 0.1749 0.11408 0.2793 0.11408 0.1045 0 0.2048 -0.04096 0.2794 -0.11408 0.0389 -0.0364 0.07 -0.08042 0.0912 -0.12933 0.0213 -0.04892 0.0323 -0.10167 0.0323 -0.155s-0.011 -0.10609 -0.0323 -0.155c-0.0212 -0.04891 -0.0523 -0.09293 -0.0912 -0.12934 -0.4271 -0.5294 -1.0158 -0.90435 -1.6761 -1.0675Z" clip-rule="evenodd" stroke-width="1"></path>
  <path fill="#000000" fill-rule="evenodd" d="M18.2217 15.6533c-0.1097 -0.2893 -0.2095 -0.5687 -0.3392 -0.838 -0.3192 -0.6585 -0.6983 -1.2471 -0.9976 -1.8457 -0.0356 -0.0864 -0.1033 -0.1556 -0.189 -0.1929 -0.0857 -0.0372 -0.1825 -0.0396 -0.27 -0.0066 -0.0857 0.0334 -0.1547 0.0993 -0.192 0.1834 -0.0374 0.0841 -0.0401 0.1795 -0.0075 0.2655 0.1796 0.7582 0.3292 1.5464 0.5687 2.3345 0.1396 0.439 0.3192 0.878 0.4888 1.317 0.2594 0.6584 0.5587 1.2969 0.7583 1.9454 -0.0575 -0.0674 -0.1357 -0.1138 -0.2224 -0.1318 -0.0867 -0.0181 -0.1769 -0.0068 -0.2565 0.0321 -1.4239 0.8083 -2.8929 1.5345 -4.3997 2.1749 -1.4919 0.6282 -3.0426 1.1061 -4.62922 1.4266 -0.6568 0.1398 -1.32434 0.2233 -1.99534 0.2495 -0.34675 0.0243 -0.69317 -0.0519 -0.99767 -0.2195l-0.66844 -1.5464c-0.41129 -0.799 -0.77442 -1.6219 -1.08745 -2.4643 -0.46891 -1.2869 -0.84802 -2.6039 -1.21716 -3.9208 -0.25939 -0.9278 -0.51879 -1.8656 -0.73827 -2.8134 -0.1297 -0.6186 -0.2594 -1.2471 -0.34919 -1.87563 -0.08238 -0.3868 -0.11922 -0.7819 -0.10974 -1.17725 -0.02445 -0.17709 -0.01084 -0.35736 0.03991 -0.52877 0.08767 -0.11431 0.19905 -0.20828 0.3265 -0.27544 0.12744 -0.06717 0.26792 -0.10594 0.41177 -0.11365 0.4689 -0.09976 0.99767 -0.13967 1.39674 -0.25939 0.3169 -0.08425 0.60817 -0.2453 0.84801 -0.46891 0.1095 -0.12165 0.17609 -0.27585 0.18956 -0.43897 0 -0.28932 -0.09977 -0.99767 -0.05986 -1.15729 0.07272 -0.5394 0.334 -1.03565 0.73755 -1.40086 0.40356 -0.3652 0.92335 -0.5758 1.4673 -0.59448 0.23752 -0.03543 0.48005 0.01026 0.68839 0.1297 0.26441 0.22337 0.49318 0.48578 0.67841 0.77818 0.27198 0.3994 0.67965 0.68655 1.14732 0.80811 0.15587 0.04901 0.32302 0.04901 0.47888 0 0.18956 -0.05986 0.4689 -0.19954 1.0575 -0.37912 0.0462 -0.01625 0.0884 -0.042 0.1239 -0.0756 0.0355 -0.0336 0.0636 -0.0743 0.0824 -0.11944 0.0189 -0.04515 0.028 -0.09374 0.0268 -0.14264 -0.0012 -0.0489 -0.0126 -0.097 -0.0335 -0.1412 -0.0115 -0.04449 -0.0319 -0.08619 -0.0599 -0.12257 -0.0281 -0.03639 -0.0632 -0.06669 -0.1033 -0.08908 -0.0401 -0.02239 -0.0844 -0.0364 -0.1301 -0.04118 -0.0457 -0.00477 -0.0919 -0.00022 -0.1357 0.01339l-1.14735 0.34919c-0.36351 -0.11223 -0.66817 -0.36313 -0.84802 -0.69837 -0.18606 -0.30645 -0.42212 -0.5796 -0.69837 -0.80811 -0.34666 -0.22469 -0.75451 -0.33624 -1.16727 -0.31926 -0.72749 0.02362 -1.42767 0.28269 -1.99534 0.73828 -0.5979 0.47415 -1.01375 1.14022 -1.17724 1.88559 0 0.15963 -0.24942 0.93781 -0.08979 1.16727 -0.25414 0.06871 -0.51515 0.10886 -0.77819 0.11972 -0.52302 0.0353 -1.03768 0.14967 -1.52643 0.33921 -0.318168 0.1442 -0.585768 0.38052 -0.768203 0.67842 -0.198105 0.3346 -0.3175115 0.70987 -0.34918359 1.09743C-0.0127181 8.96444 0.0207177 9.44926 0.10408 9.9267c0.079814 0.6585 0.199534 1.3269 0.339207 1.9953 0.209511 0.9977 0.468905 1.9355 0.728303 2.8833 0.37911 1.3568 0.7682 2.7137 1.27701 3.9907 0.34582 0.8914 0.74563 1.761 1.1972 2.6039 0.17958 0.2893 0.40905 0.9977 0.66844 1.4267 0.10592 0.1919 0.24825 0.3613 0.41902 0.4988 0.40496 0.2516 0.87021 0.3894 1.34685 0.3991 0.89542 0.0001 1.78721 -0.1139 2.6538 -0.3393 1.31979 -0.3019 2.61149 -0.7158 3.86099 -1.2371 1.8524 -0.7736 3.6462 -1.6806 5.3674 -2.7136 0.0791 -0.0479 0.1379 -0.123 0.1654 -0.2112 0.0276 -0.0881 0.022 -0.1834 -0.0157 -0.2677 0.0394 0.063 0.0961 0.1134 0.1633 0.1453 0.0672 0.0318 0.1421 0.0437 0.2158 0.0343 0.0525 -0.0083 0.1028 -0.0272 0.1477 -0.0557 0.0449 -0.0284 0.0835 -0.0658 0.1134 -0.1097 0.0299 -0.0439 0.0505 -0.0935 0.0605 -0.1457 0.01 -0.0522 0.0092 -0.1059 -0.0023 -0.1578 -0.0443 -0.7196 -0.1511 -1.434 -0.3193 -2.135 -0.0898 -0.2894 -0.1696 -0.5887 -0.2694 -0.878Z" clip-rule="evenodd" stroke-width="1"></path>
  <path fill="#000000" fill-rule="evenodd" d="M3.20686 8.81929c-0.19911 0.2298 -0.34307 0.50208 -0.42088 0.79602 -0.07781 0.29395 -0.08741 0.60179 -0.02807 0.89999l0.15963 1.1074 0.429 1.5963 0.78815 2.6638 1.37679 3.5517c0.10468 0.3404 0.23131 0.6736 0.37911 0.9976 0.09194 0.1745 0.24453 0.3094 0.429 0.3792 0.17992 0.0594 0.36969 0.0831 0.55869 0.0698 0.28734 -0.0244 0.57146 -0.0779 0.84802 -0.1596 0.42534 -0.0964 0.84501 -0.2163 1.25706 -0.3592 0.5587 -0.2295 1.12734 -0.4988 1.67604 -0.7482 0.5488 -0.2495 0.9977 -0.4091 1.5065 -0.5887 0.5088 -0.1795 1.0476 -0.3392 1.5664 -0.4988 0.3615 -0.0548 0.716 -0.1485 1.0575 -0.2794 0.1927 -0.0895 0.3429 -0.2505 0.419 -0.4489 0.1143 -0.3773 0.1143 -0.78 0 -1.1573 -0.1277 -0.4523 -0.3016 -0.8902 -0.5188 -1.3069l-0.7183 -1.4267 -0.9478 -1.9953c-0.0417 -0.096 -0.1195 -0.1718 -0.2165 -0.2109 -0.097 -0.0392 -0.2056 -0.0387 -0.3023 0.0013 -0.0967 0.0438 -0.1726 0.1234 -0.2117 0.2221 -0.0391 0.0986 -0.0383 0.2086 0.0022 0.3067l0.868 2.0752 0.6285 1.4466c0.7782 1.8756 0.7183 1.3867 -1.9953 2.2048 -0.5487 0.1696 -1.0974 0.3492 -1.6262 0.5587 -0.52878 0.2095 -1.10742 0.4589 -1.67609 0.6685 -0.35273 0.1325 -0.71243 0.2458 -1.07749 0.3392l-0.3392 0.0598c-0.07982 -0.2294 -0.28933 -0.5387 -0.30928 -0.6086l-1.37678 -3.5117 -0.88793 -2.6239 -0.50881 -1.4965 -0.18956 -0.9179c-0.05986 -0.46887 -0.06983 -0.72827 0.07982 -0.90785 0.33568 -0.23232 0.71098 -0.40137 1.10741 -0.49883l1.99534 -0.84802 2.38442 -0.8979c0.04487 -0.01258 0.08677 -0.03402 0.12322 -0.06304 0.03646 -0.02903 0.06674 -0.06506 0.08905 -0.10597 0.02231 -0.04091 0.03621 -0.08587 0.04088 -0.13223 0.00467 -0.04637 0.00001 -0.0932 -0.01371 -0.13773 -0.02771 -0.08913 -0.08903 -0.16397 -0.17097 -0.20866 -0.08194 -0.0447 -0.17806 -0.05574 -0.268 -0.03078l-2.46424 0.80811 -1.99534 0.74825c-0.54257 0.11749 -1.05529 0.34498 -1.50648 0.66844Z" clip-rule="evenodd" stroke-width="1"></path>
  <path fill="#000000" fill-rule="evenodd" d="M8.17519 9.1984c-0.20854 0.0886 -0.40885 0.19543 -0.5986 0.31925 -0.43177 0.29123 -0.83289 0.62545 -1.1972 0.99765 -0.03951 0.0235 -0.07384 0.0547 -0.10091 0.0918 -0.02708 0.0371 -0.04633 0.0794 -0.05659 0.1241 -0.01026 0.0448 -0.01132 0.0912 -0.00311 0.1364 0.00821 0.0452 0.02551 0.0883 0.05086 0.1266 0.05113 0.0784 0.13083 0.1337 0.22214 0.1542 0.0913 0.0205 0.187 0.0045 0.26672 -0.0445 0.45893 -0.1895 0.91786 -0.2993 1.38676 -0.4589l0.56867 -0.2294c0.18956 -0.0799 0.36914 -0.1796 0.54872 -0.2694 0.43897 -0.2195 0.84805 -0.44897 1.30695 -0.63852 0.1006 -0.02815 0.1871 -0.09286 0.2424 -0.18145 0.0554 -0.08859 0.0757 -0.19467 0.0569 -0.29743 -0.026 -0.104 -0.0918 -0.19363 -0.1832 -0.2496 -0.0915 -0.05598 -0.2012 -0.07382 -0.3057 -0.0497 -0.52552 0.0556 -1.0459 0.15233 -1.55633 0.28932 -0.21948 0 -0.43897 0.09977 -0.64848 0.17958Z" clip-rule="evenodd" stroke-width="1"></path>
  <path fill="#000000" fill-rule="evenodd" d="M10.6694 11.3434c-0.6532 0.0757 -1.29789 0.2127 -1.92549 0.409 -0.25682 0.0741 -0.50987 0.1606 -0.75823 0.2594 -0.2465 0.1125 -0.48634 0.2391 -0.71832 0.3791 -0.55869 0.3293 -0.99767 0.7283 -1.55636 1.0775 -0.04503 0.0172 -0.086 0.0435 -0.12035 0.0773 -0.03436 0.0339 -0.06134 0.0744 -0.07925 0.1192 -0.01791 0.0447 -0.02637 0.0927 -0.02483 0.1408 0.00153 0.0482 0.01302 0.0955 0.03374 0.1391 0.02072 0.0435 0.05022 0.0822 0.08666 0.1138 0.03643 0.0315 0.079 0.0552 0.12502 0.0695 0.04603 0.0143 0.09452 0.0189 0.14242 0.0135 0.04789 -0.0053 0.09416 -0.0205 0.13589 -0.0446 0.67841 -0.2096 1.36681 -0.3792 2.0552 -0.6485 0.38909 -0.1597 0.75822 -0.3492 1.13734 -0.5388 0.54462 -0.3006 1.10406 -0.5736 1.67606 -0.8181 0.1032 -0.0251 0.1922 -0.0902 0.2474 -0.1809 0.0552 -0.0908 0.0721 -0.1997 0.0469 -0.3029 -0.0251 -0.1032 -0.0902 -0.1922 -0.1809 -0.2474 -0.0908 -0.0552 -0.1997 -0.0721 -0.3029 -0.0469l-0.02 0.0299Z" clip-rule="evenodd" stroke-width="1"></path>
  <path fill="#000000" fill-rule="evenodd" d="M11.8666 13.8475c-0.6151 0.0836 -1.2223 0.2171 -1.8157 0.3991 -0.25419 0.0799 -0.50395 0.1732 -0.7483 0.2793 -0.23674 0.1127 -0.4666 0.2393 -0.68839 0.3792 -0.51181 0.3582 -0.99544 0.7551 -1.44662 1.1872 -0.07805 0.0516 -0.13242 0.1321 -0.15113 0.2238 -0.0187 0.0916 -0.00023 0.187 0.05137 0.265 0.05159 0.0781 0.13208 0.1325 0.22376 0.1512 0.09168 0.0187 0.18704 0.0002 0.26509 -0.0514 0.58863 -0.2793 1.23711 -0.4589 1.87562 -0.7283 0.35916 -0.1596 0.7083 -0.3392 1.0575 -0.5188 0.5587 -0.2893 1.0675 -0.5986 1.5963 -0.8181 0.0504 -0.0144 0.0975 -0.0386 0.1386 -0.0712s0.0754 -0.073 0.1009 -0.1189c0.0254 -0.0458 0.0416 -0.0962 0.0476 -0.1484 0.006 -0.0521 0.0017 -0.1049 -0.0127 -0.1553 -0.0145 -0.0504 -0.0387 -0.0976 -0.0713 -0.1386 -0.0326 -0.0411 -0.073 -0.0754 -0.1188 -0.1009 -0.0459 -0.0254 -0.0963 -0.0416 -0.1484 -0.0476 -0.0522 -0.006 -0.1049 -0.0017 -0.1554 0.0127Z" clip-rule="evenodd" stroke-width="1"></path>
</svg>