<svg xmlns="http://www.w3.org/2000/svg" fill="none" viewBox="0 0 24 24" id="Shop-Close--Streamline-Freehand">
  <desc>
    Shop Close Streamline Icon: https://streamlinehq.com
  </desc>
  <path fill="#000000" fill-rule="evenodd" d="M5.62538 20.3248c0 0.3302 -0.37024 0.2701 -0.69045 0.2101 -0.87056 -0.1701 -1.29083 -0.5904 -1.21078 -1.7211 0.09006 -1.2808 0.82053 -2.2314 1.8512 -1.501 0.06103 0.0558 0.14171 0.085 0.22428 0.0812 0.08257 -0.0038 0.16027 -0.0402 0.216 -0.1012s0.08493 -0.1417 0.08118 -0.2243c-0.00376 -0.0825 -0.04016 -0.1602 -0.10119 -0.216 -2.15139 -2.1313 -4.4929 1.8812 -2.80181 3.8625 0.5588 0.4686 1.27265 0.7113 2.00129 0.6804 0.66043 -0.06 1.17075 -0.3602 1.13073 -1.0706 0 -0.0929 -0.0369 -0.182 -0.10258 -0.2477 -0.06568 -0.0657 -0.15476 -0.1026 -0.24765 -0.1026 -0.09288 0 -0.18196 0.0369 -0.24764 0.1026 -0.06568 0.0657 -0.10258 0.1548 -0.10258 0.2477Z" clip-rule="evenodd" stroke-width="1"></path>
  <path fill="#000000" fill-rule="evenodd" d="M7.99691 20.3948v-2.3115c-0.21013 -1.631 -0.1601 -1.3508 -0.17011 -1.3909 -0.04471 -0.0507 -0.10313 -0.0873 -0.16821 -0.1055 -0.06509 -0.0183 -0.13405 -0.0173 -0.19858 0.0028s-0.12187 0.0585 -0.16509 0.1104c-0.04322 0.052 -0.07049 0.1153 -0.07851 0.1824 0 0.0901 -0.34022 2.5117 -0.34022 2.7618 0 0.4403 0.08005 1.3509 0.49032 1.541 0.52706 0.1643 1.08286 0.2154 1.63105 0.1501 0.55035 -0.1201 0.65041 -0.4803 0.44028 -0.6904 -0.46429 -0.1582 -0.9505 -0.2426 -1.44093 -0.2502Z" clip-rule="evenodd" stroke-width="1"></path>
  <path fill="#000000" fill-rule="evenodd" d="M12.86 17.3128c-2.0613 -2.6317 -3.48222 1.2508 -2.3515 3.082 0.1026 0.192 0.2445 0.3602 0.4165 0.4938 0.1719 0.1335 0.3701 0.2294 0.5815 0.2813 0.2114 0.0519 0.4314 0.0587 0.6456 0.02 0.2143 -0.0387 0.418 -0.1221 0.5979 -0.2447 0.4308 -0.5017 0.6768 -1.1358 0.6968 -1.7968 0.02 -0.6609 -0.1871 -1.3088 -0.5868 -1.8356Zm-0.9306 2.7918c-0.6804 -0.09 -0.9306 -1.3809 -0.8205 -2.0913 0.1301 -0.9106 0.4403 -1.3909 1.1207 -0.3002 0.6805 1.0907 0.1001 2.4416 -0.3002 2.3915Z" clip-rule="evenodd" stroke-width="1"></path>
  <path fill="#000000" fill-rule="evenodd" d="M15.0715 17.6731c-0.0226 -0.0756 -0.028 -0.1552 -0.0158 -0.2331 0.0121 -0.0779 0.0414 -0.1521 0.0858 -0.2172 0.4203 -0.5404 0.9506 0.1501 1.2708 0.05 0.3202 -0.1001 0.2902 -0.7905 -0.7705 -1.0006 -0.2916 -0.0382 -0.588 0.0151 -0.8481 0.1525s-0.4711 0.3521 -0.604 0.6145c-0.1329 0.2625 -0.181 0.5597 -0.1378 0.8507 0.0433 0.2909 0.1757 0.5613 0.3792 0.7738 0.5103 0.6104 1.541 0.9506 1.4509 1.4109 -0.0901 0.4603 -0.5504 0.7005 -0.8005 0.6004 -0.0801 0 -0.4503 -0.3803 -0.6404 -0.3803 -0.0886 0 -0.1736 0.0345 -0.2371 0.0961 -0.0636 0.0617 -0.1006 0.1457 -0.1032 0.2342 0 0.3302 0.3803 0.5903 0.6705 0.7504 0.2066 0.0745 0.4263 0.1058 0.6454 0.0923 0.2192 -0.0136 0.4333 -0.0718 0.6292 -0.1712 0.1959 -0.0993 0.3693 -0.2377 0.5098 -0.4065 0.1404 -0.1688 0.2449 -0.3646 0.3069 -0.5752 0.4903 -1.521 -1.7011 -2.0914 -1.7911 -2.6417Z" clip-rule="evenodd" stroke-width="1"></path>
  <path fill="#000000" fill-rule="evenodd" d="m20.6651 16.3422 -1.5711 -0.2101c-0.2354 -0.0005 -0.4651 0.0725 -0.657 0.2088 -0.192 0.1364 -0.3366 0.3292 -0.4136 0.5517 -0.2013 0.7089 -0.249 1.4525 -0.1401 2.1814 -0.052 0.6026 -0.052 1.2085 0 1.8111 0.0176 0.1209 0.0757 0.2322 0.1648 0.3157 0.089 0.0836 0.2038 0.1346 0.3255 0.1446 0.2342 -0.0337 0.4652 -0.0873 0.6904 -0.1601 0.1701 -0.05 0.6504 0 0.9406 -0.09 0.5604 -0.1001 0.6605 -0.4403 0.5104 -0.7005s-1.501 -0.05 -1.6311 -0.06l0.1001 -1.1308c0.3802 0 1.4709 -0.1901 1.4709 -0.5603 0 -0.3703 -1.1707 -0.6204 -1.541 -0.5504 -0.015 -0.2199 -0.015 -0.4405 0 -0.6604 0 -0.2101 0 -0.4203 0.2302 -0.4603 1.611 -0.08 1.621 0 1.6911 -0.2602 0.0259 -0.0716 0.0227 -0.1507 -0.0092 -0.22 -0.0318 -0.0692 -0.0896 -0.1232 -0.1609 -0.1502Z" clip-rule="evenodd" stroke-width="1"></path>
  <path fill="#000000" fill-rule="evenodd" d="M20.4549 1.2725c0.4103 0.10006 0.7605 0.67043 1.1107 1.29083 0.4726 0.8961 0.8612 1.83404 1.1608 2.8018 0.193 0.99698 0.1485 2.0254 -0.1301 3.00194 -0.1601 0.3202 -0.4703 0.46029 -1.0006 0.43027 -0.3007 -0.01096 -0.5993 -0.05458 -0.8906 -0.13008 -0.3063 -0.04404 -0.5992 -0.15489 -0.858 -0.32469 -0.2587 -0.16979 -0.4769 -0.39439 -0.6392 -0.65789 -0.1623 -0.2635 -0.2647 -0.55945 -0.3 -0.86691 -0.0352 -0.30746 -0.0024 -0.61891 0.0961 -0.91229l3.2121 -0.06004c0.0789 -0.01369 0.1505 -0.05483 0.2021 -0.11616 0.0516 -0.06132 0.0799 -0.1389 0.0799 -0.21905s-0.0283 -0.15773 -0.0799 -0.21906c-0.0516 -0.06133 -0.1232 -0.10246 -0.2021 -0.11616L19.074 5.0049C17.443 0.512009 17.6631 1.10239 17.5831 0.942286c0.9648 0.030182 1.9254 0.140634 2.8718 0.330214Zm-3.5823 7.28469c-0.2658 0.08614 -0.5463 0.11813 -0.8247 0.09407 -0.2784 -0.02407 -0.5492 -0.10369 -0.7963 -0.23416 -0.4447 -0.21981 -0.8016 -0.58396 -1.0124 -1.03291 -0.2109 -0.44895 -0.2632 -0.95615 -0.1484 -1.43868h4.0026c0.117 0.50912 0.0604 1.04275 -0.1608 1.51599 -0.2212 0.47325 -0.5943 0.85893 -1.06 1.09569Zm-0.08 -7.614904c0 0.120074 0.1 0.250164 0.1401 0.380244 0.1208 1.26878 0.4381 2.51107 0.9406 3.68237l-3.7424 -0.13008c-0.0501 -1.36581 -0.31 -2.71578 -0.7705 -4.002579 0.1801 -0.030019 3.4021 -0.020013 3.4322 0.070045Zm-4.673 7.504834c-0.3957 0.16134 -0.8255 0.22114 -1.2502 0.17395 -0.4247 -0.04718 -0.8308 -0.19986 -1.18141 -0.44413 -0.4703 -2.44157 -0.41026 -1.8712 -0.3102 -2.30148 0.80051 0 3.33211 0.06004 3.77241 0.07005 0.0601 0.87056 0.2602 1.77114 -1.0306 2.50161ZM11.8794 0.842222c1.501 0 0.4803 -0.230148 1.1507 4.002578 -1.0006 0 -2.0713 -0.05003 -3.09195 -0.05003L11.239 2.2031c0.2857 -0.41598 0.502 -0.87559 0.6404 -1.360878Zm-4.14267 0.790508c0.47031 -0.6204 0.4603 -0.53034 0.33022 -0.750482 3.37215 -0.060039 3.10195 -0.060039 3.00195 0C10.124 2.09281 9.30586 3.39714 8.62731 4.77475c-1.21078 0 -2.36152 0 -3.37217 0.06004 1.01065 -1.16074 1.82117 -2.34151 2.48159 -3.20206ZM4.48464 5.69535l3.83247 0.15009c0 0.33022 0 -0.19012 0.11007 1.52098 -0.29019 0.18012 -0.29019 0.85055 -0.79051 1.20078 -0.3707 0.19669 -0.7811 0.30696 -1.20046 0.32256 -0.41936 0.01559 -0.83681 -0.06389 -1.2211 -0.23251 -1.02066 -0.4703 -0.90058 -2.27146 -0.73047 -2.9619ZM21.2054 9.87804c2.1514 0.19016 2.6717 -0.9306 2.7318 -3.07198l-0.1701 -1.64105c-0.4015 -1.2507 -0.949 -2.44974 -1.6311 -3.5723 -0.3228 -0.57737 -0.8407 -1.020831 -1.4609 -1.25081C17.6231 -0.378564 6.15572 0.261848 5.12505 0.271854c-0.04887 -0.008474 -0.099 -0.006162 -0.14688 0.006777 -0.04788 0.012939 -0.09236 0.03619 -0.13031 0.068125 -0.03795 0.031936 -0.06845 0.071782 -0.08938 0.116749 -0.02093 0.044967 -0.03178 0.093966 -0.03178 0.143565 0 0.049599 0.01085 0.098599 0.03178 0.143565 0.02093 0.044967 0.05143 0.084814 0.08938 0.116749 0.03795 0.031936 0.08243 0.055187 0.13031 0.068126 0.04788 0.012938 0.09801 0.015251 0.14688 0.006776h2.29148C6.09827 2.16587 4.89265 3.50545 3.81421 4.94486c-1.32085 -0.01 -2.24144 0.06004 -2.4816 0.06004 -0.07366 0.01807 -0.13774 0.06336 -0.17938 0.12675 -0.04163 0.06339 -0.05773 0.14019 -0.04506 0.21496 0.01268 0.07478 0.05318 0.14198 0.11338 0.18811 0.0602 0.04613 0.13563 0.06777 0.21113 0.06056h2.11135c0.08006 2.41156 0.3102 1.00065 -0.26016 2.81181C2.28322 9.68792 -0.0782976 7.51652 0.922347 5.40516 1.78729 3.8848 2.76745 2.43295 3.85423 1.06236c0.04084 -0.06081 0.05803 -0.134452 0.04833 -0.207057 -0.00969 -0.072605 -0.04559 -0.139161 -0.10094 -0.187134 -0.05536 -0.047973 -0.12634 -0.074052 -0.19959 -0.073326 -0.07324 0.000726 -0.14369 0.028208 -0.19809 0.077269C3.07373 1.05236 2.4033 1.93292 1.76289 2.85352 -0.298439 5.7854 0.101818 5.53524 0.0818055 7.34641c0.0171637 0.48725 0.1866465 0.95687 0.4846075 1.34278 0.297962 0.38591 0.709407 0.66871 1.176457 0.8086l0.73048 0.11008c0.301 0.02816 0.60415 -0.02254 0.87962 -0.14711 0.27546 -0.12458 0.51374 -0.31873 0.69139 -0.56335C5.045 10.1182 7.72673 10.2983 8.7674 8.80735c0.52379 0.46104 1.16809 0.76331 1.8575 0.87141 0.6893 0.10811 1.3952 0.01756 2.035 -0.26102 0.3711 -0.23605 0.7079 -0.52228 1.0006 -0.85054 0.4226 0.52272 0.998 0.90023 1.6457 1.07966 0.6478 0.17943 1.3354 0.1518 1.9667 -0.07902 0.4983 -0.21665 0.93 -0.56202 1.2508 -1.00064 0.4799 0.58807 1.1416 0.99992 1.8812 1.17075l0.8005 0.14009Z" clip-rule="evenodd" stroke-width="1"></path>
  <path fill="#000000" fill-rule="evenodd" d="M23.0066 14.5911c-0.7465 -0.3097 -1.5437 -0.4793 -2.3516 -0.5004 0.271 -0.954 0.4453 -1.9329 0.5204 -2.9218 0 -0.9106 -0.9306 -1.0907 -1.1007 -0.1301 -0.0972 0.9875 -0.1207 1.9809 -0.0701 2.9719 -5.6883 -0.3854 -11.39707 -0.3553 -17.08097 0.0901 0.14953 -1.1513 0.09533 -2.3198 -0.1601 -3.4523 -0.26017 -1.06065 -1.05068 -0.77046 -1.05068 0 0.02656 0.5777 0.09343 1.1528 0.20013 1.7211 0 0.0901 0.33021 1.7412 0.35022 1.8212 -1.771135 0.2602 -1.931239 0.4503 -1.891213 1.2408 0.060039 1.4109 0.470303 6.194 1.000643 7.5048 0.06004 0.1501 0.39025 0.4003 1.00065 0.5204 3.22207 0.6404 17.39122 0.8505 19.54262 -0.1301 0.8605 -0.3903 1.1607 -2.5016 1.3008 -3.4522 0.1401 -0.9506 0.5503 -4.683 -0.2101 -5.2834Zm-1.431 7.2446c-0.08 0.2302 -0.1501 0.5904 -0.2301 0.5004 -1.9513 0.7905 -17.14105 0.8905 -19.37248 0.2401 -0.55036 -1.561 -0.980633 -7.0145 -1.070691 -7.3347 0.470301 -0.6204 7.744991 -0.6204 8.515481 -0.6204 3.97729 -0.0114 7.95239 0.1923 11.90769 0.6104 1.2308 0.1801 1.0006 0.1601 1.0006 0.7405 0.0372 1.9781 -0.202 3.9517 -0.7104 5.8637h-0.0401Z" clip-rule="evenodd" stroke-width="1"></path>
</svg>