<svg xmlns="http://www.w3.org/2000/svg" fill="none" viewBox="0 0 24 24" id="Shopping-Basket-Arrow-In--Streamline-Freehand">
  <desc>
    Shopping Basket Arrow In Streamline Icon: https://streamlinehq.com
  </desc>
  <path fill="#000000" fill-rule="evenodd" d="M9.75302 9.4056c0.43248 0.28486 0.84978 0.59201 1.25028 0.9202l0.6602 0.5002c0.0756 0.0656 0.1559 0.1258 0.2401 0.18 0.0661 0.0378 0.1392 0.0618 0.2149 0.0704 0.0756 0.0086 0.1523 0.0016 0.2252 -0.0204 0.161 -0.0533 0.308 -0.1422 0.4301 -0.2601 0.1219 -0.1241 0.2293 -0.2616 0.3201 -0.4101l0.7201 -1.41031 0.7302 -1.23031c0.0478 -0.06807 0.0672 -0.15208 0.0542 -0.23424 -0.0131 -0.08215 -0.0576 -0.15599 -0.1242 -0.20587 -0.0333 -0.02496 -0.0712 -0.04298 -0.1115 -0.05299 -0.0404 -0.01001 -0.0823 -0.0118 -0.1234 -0.00527 -0.0411 0.00654 -0.0804 0.02126 -0.1156 0.0433 -0.0353 0.02203 -0.0658 0.05093 -0.0896 0.08498l-0.9102 1.16029 -0.8603 1.24031c-0.4512 -0.84995 -0.7267 -1.78202 -0.8102 -2.74068 -0.0935 -0.96933 0.094 -1.9451 0.5402 -2.8107 0.0457 -0.08048 0.0858 -0.16404 0.12 -0.25007 0.1001 0.08552 0.2071 0.16247 0.3201 0.23006 0.2168 0.12075 0.449 0.21159 0.6902 0.27007 0.2338 0.07095 0.4795 0.09357 0.7224 0.06649 0.2428 -0.02708 0.4775 -0.10329 0.69 -0.22401 0.2124 -0.12071 0.398 -0.2834 0.5455 -0.47815 0.1476 -0.19475 0.2539 -0.41749 0.3126 -0.65465 0.07 -0.60015 -0.24 -1.27032 -1.3403 -1.44036 -0.5576 -0.08207 -1.1251 0.05801 -1.5804 0.3901l-0.14 0.10002c0.0522 -0.32793 0.1951 -0.63471 0.4125 -0.8857 0.2174 -0.25099 0.5006 -0.436184 0.8178 -0.534654 0.8006 -0.261586 1.6712 -0.20426 2.4306 0.16004 0.0324 0.023432 0.0695 0.039634 0.1088 0.047524 0.0392 0.00789 0.0797 0.00727 0.1187 -0.00181 0.0389 -0.00907 0.0755 -0.026399 0.1072 -0.050808 0.0318 -0.024408 0.0579 -0.055333 0.0766 -0.090688 0.0188 -0.035356 0.0298 -0.074322 0.0322 -0.114273 0.0024 -0.039951 -0.0037 -0.079958 -0.0181 -0.117327 -0.0143 -0.037369 -0.0365 -0.07123 -0.065 -0.099303 -0.0286 -0.028072 -0.0628 -0.049704 -0.1004 -0.063437 -0.5325 -0.295366 -1.1274 -0.4602472 -1.736 -0.4811123 -0.6085 -0.0208651 -1.2134 0.1028813 -1.7648 0.3610823 -0.3943 0.203908 -0.7277 0.508308 -0.9666 0.882416 -0.2388 0.37411 -0.3747 0.80466 -0.3938 1.24811 -0.009 0.22854 0.0284 0.45653 0.1101 0.67017 -0.1351 0.20457 -0.2555 0.41849 -0.3601 0.64016 -0.48 1.04015 -0.6468 2.19749 -0.4802 3.33083 0.1043 0.74811 0.3201 1.47638 0.6402 2.16054 -0.2801 -0.16004 -0.5501 -0.32008 -0.8502 -0.47012 -0.59015 -0.29007 -1.20031 -0.54013 -1.80046 -0.78019 -0.06764 -0.03316 -0.14569 -0.03809 -0.21697 -0.01371 -0.07129 0.02439 -0.12996 0.07609 -0.16312 0.14374 -0.03316 0.06765 -0.03809 0.1457 -0.0137 0.21698 0.02438 0.07128 0.07608 0.12996 0.14373 0.16312 0.45011 0.26006 0.90023 0.55013 1.35034 0.85021Zm3.10078 -6.26156c0.1305 -0.12862 0.2879 -0.22672 0.4608 -0.28725 0.173 -0.06054 0.3572 -0.082 0.5394 -0.06284 0.3501 0.05001 0.5102 0.20005 0.4101 0.3901 -0.104 0.14467 -0.25 0.25391 -0.4181 0.31294 -0.1682 0.05904 -0.3504 0.06502 -0.5221 0.01714 -0.1472 -0.03224 -0.2888 -0.08617 -0.4201 -0.16004 -0.0666 -0.03069 -0.1303 -0.06753 -0.19 -0.11003l0.14 -0.10002Z" clip-rule="evenodd" stroke-width="1"></path>
  <path fill="#000000" fill-rule="evenodd" d="M16.9948 7.45511c0.2697 -0.08856 0.5606 -0.08856 0.8302 0 0.2801 0.15004 0.4701 0.51013 0.8302 1.12028 0.3841 0.90286 0.6368 1.85611 0.7502 2.83071 0.0416 0.2986 0.0416 0.6016 0 0.9002 -0.05 0.1901 -0.13 0.3401 -0.3201 0.3701 -0.19 0.03 -0.7001 0 -1.3403 0h-5.7014c-1.3704 0.06 -3.05078 0 -4.47114 0 -1.00025 0 -1.82045 -0.09 -2.35058 -0.16H4.9218c-0.03253 -0.0977 -0.05597 -0.1981 -0.07002 -0.3001 0.04877 -0.8535 0.20677 -1.6973 0.47012 -2.51063 0.09528 -0.64356 0.37694 -1.24512 0.8102 -1.73043 0.17144 -0.10169 0.36223 -0.16642 0.56014 -0.19005 0.22303 -0.01793 0.44714 -0.01793 0.67017 0 0.03678 0.00394 0.07397 0.0006 0.10946 -0.00983 0.03549 -0.01044 0.06858 -0.02776 0.09737 -0.05098 0.02879 -0.02322 0.05273 -0.05188 0.07045 -0.08436 0.01771 -0.03247 0.02886 -0.06811 0.0328 -0.10489 0.00394 -0.03678 0.0006 -0.07398 -0.00984 -0.10946 -0.01043 -0.03549 -0.02775 -0.06858 -0.05097 -0.09737 -0.02322 -0.02879 -0.05189 -0.05273 -0.08436 -0.07045 -0.03247 -0.01771 -0.06812 -0.02886 -0.10489 -0.0328 -0.31197 -0.04264 -0.62828 -0.04264 -0.94024 0 -0.21982 0.03632 -0.43251 0.10721 -0.63016 0.21005 -0.60015 0.29008 -1.28032 1.78045 -1.64041 3.1508 -0.20412 0.7008 -0.2787 1.433 -0.22005 2.1605 0.03407 0.1824 0.13368 0.3461 0.28007 0.4601 1.03669 0.3238 2.11483 0.4956 3.2008 0.5102 1.45036 0.1 3.16076 0.13 4.56116 0.09 0.5401 0 3.0607 0 5.0012 -0.08 0.7356 -0.0053 1.4703 -0.052 2.2006 -0.1401 0.7201 -0.15 1.0602 -0.7902 1.0602 -1.6904 -0.1056 -1.281 -0.4446 -2.53186 -1.0002 -3.6909 -0.4901 -0.75019 -0.7902 -1.16029 -1.1503 -1.33034 -0.4062 -0.15274 -0.8541 -0.15274 -1.2603 0 -0.0413 0.00822 -0.0804 0.02473 -0.1151 0.04855 -0.0346 0.02381 -0.0641 0.05443 -0.0865 0.08998 -0.0225 0.03555 -0.0375 0.07531 -0.0441 0.11683 -0.0066 0.04153 -0.0047 0.08397 0.0056 0.12474 0.0249 0.06961 0.0739 0.12802 0.1381 0.1647 0.0642 0.03668 0.1394 0.04922 0.212 0.03535Z" clip-rule="evenodd" stroke-width="1"></path>
  <path fill="#000000" fill-rule="evenodd" d="M8.38262 17.2975c-0.34008 -1.0802 -0.84021 -0.8802 -0.8102 0v0.5702c0.02679 0.5132 -0.01356 1.0276 -0.12003 1.5304l-0.13003 0.4701 -0.20005 0.2901c0 -0.0601 -0.08002 -0.1501 -0.12003 -0.2101 -0.15071 -0.2729 -0.27144 -0.5613 -0.36009 -0.8602l-0.3901 -1.3804c0 -0.15 -0.06001 -0.29 -0.10002 -0.4401 -0.3701 -1.0902 -0.77019 -0.6701 -0.8002 0 0 0.2001 0 0.4001 0.06001 0.5902l0.26007 1.4904c0.08388 0.3627 0.20801 0.715 0.37009 1.0502 0.13807 0.2916 0.35233 0.5404 0.62015 0.7202 0.21274 0.1326 0.46752 0.1805 0.71389 0.1342 0.24638 -0.0463 0.46638 -0.1835 0.61645 -0.3843l0.20005 -0.27c0.06624 -0.1014 0.12316 -0.2085 0.17004 -0.3201 0.03942 -0.0979 0.07282 -0.1981 0.10002 -0.3001 0 -0.11 0 -0.21 0.06002 -0.4001 0.07479 -0.5911 0.07479 -1.1893 0 -1.7804 -0.08002 -0.1701 -0.11003 -0.3301 -0.14004 -0.5002Z" clip-rule="evenodd" stroke-width="1"></path>
  <path fill="#000000" fill-rule="evenodd" d="M12.5537 17.2976v0.7201c-0.0493 0.5847 -0.1771 1.16 -0.3801 1.7105 -0.0801 0.2339 -0.244 0.4299 -0.4601 0.5501 -0.09 0 -0.16 0 -0.22 -0.18 -0.1231 -0.2541 -0.1977 -0.5289 -0.2201 -0.8102 -0.07 -0.5102 -0.07 -1.0003 -0.1 -1.5004v-0.4901c-0.1401 -1.0003 -0.7202 -1.0003 -0.7802 0v0.5101c0 0.4801 -0.08 1.0002 -0.06 1.5604 0.0143 0.4017 0.099 0.7978 0.25 1.1703 0.0826 0.2554 0.249 0.4754 0.4724 0.6243 0.2233 0.1489 0.4904 0.2179 0.7579 0.1959 0.325 -0.0698 0.6254 -0.2253 0.8699 -0.4505 0.2445 -0.2251 0.4242 -0.5117 0.5205 -0.8299 0.1905 -0.6498 0.2882 -1.3233 0.2901 -2.0005v-0.7701c-0.2101 -1.0803 -0.8703 -0.9603 -0.9403 -0.01Z" clip-rule="evenodd" stroke-width="1"></path>
  <path fill="#000000" fill-rule="evenodd" d="M16.9948 17.2976c-0.06 0.23 -0.11 0.4501 -0.18 0.6701 -0.1555 0.5469 -0.3879 1.0689 -0.6902 1.5504l-0.3101 0.4001 -0.2701 0.2401c0.0052 -0.0967 0.0052 -0.1935 0 -0.2901 -0.0308 -0.3127 -0.0308 -0.6276 0 -0.9402l0.1601 -1.3904v-0.25c0 -1.0803 -0.6702 -1.1003 -0.8002 0v0.15l-0.3101 1.3303c-0.0858 0.4548 -0.1127 0.9187 -0.08 1.3804 0.0184 0.2641 0.1045 0.519 0.2501 0.7402 0.26 0.38 0.7001 0.6101 1.3903 0.15l0.4701 -0.4101 0.4201 -0.6002c0.2314 -0.4383 0.4126 -0.9013 0.5402 -1.3803 0.1159 -0.4479 0.206 -0.9021 0.27 -1.3603 0.1401 -1.0803 -0.5401 -0.9503 -0.8602 0.01Z" clip-rule="evenodd" stroke-width="1"></path>
  <path fill="#000000" fill-rule="evenodd" d="M22.8563 13.7267c-0.1065 -1.0331 -0.3074 -2.0543 -0.6002 -3.0508 -0.19 -0.8102 -0.4301 -1.78044 -0.7002 -2.71067 -0.1565 -0.60583 -0.3435 -1.2034 -0.5601 -1.79045 -0.1047 -0.34873 -0.249 -0.68433 -0.4301 -1.00024 -0.0568 -0.11168 -0.1388 -0.20864 -0.2395 -0.28327 -0.1007 -0.07463 -0.2173 -0.1249 -0.3406 -0.14684 -0.6602 -0.06002 -1.1303 -0.12003 -1.6405 -0.15004h-1.1202c-0.0421 0 -0.0837 0.00828 -0.1225 0.02437 -0.0389 0.01608 -0.0741 0.03966 -0.1039 0.06938 -0.0297 0.02972 -0.0533 0.06501 -0.0693 0.10384 -0.0161 0.03884 -0.0244 0.08046 -0.0244 0.12249 0.0023 0.08245 0.0355 0.16103 0.0929 0.22027 0.0574 0.05924 0.1348 0.09485 0.2172 0.09981 0.4101 0 0.7502 0 1.0702 0.06002l1.5904 0.18004c0.1801 0.37009 0.3801 0.8102 0.4501 1.00025 0.1901 0.52013 0.3701 1.12028 0.5402 1.74043 0.25 0.92023 0.4601 1.88051 0.6301 2.69071 0.05 0.24 0.2601 1.0002 0.3901 1.8204 0.0783 0.3885 0.1152 0.7841 0.1101 1.1803 0.0064 0.0599 0.0064 0.1202 0 0.1801 -0.5386 0.2937 -1.1302 0.4774 -1.7405 0.5401 -1.0185 0.1266 -2.0445 0.1834 -3.0707 0.17h-4.6012c-2.3206 0 -4.65114 -0.08 -6.93171 -0.16 -0.79423 0.004 -1.58628 -0.0833 -2.36059 -0.2601 -0.44419 -0.095 -0.84281 -0.3384 -1.13028 -0.6901 -0.15004 -0.2001 -0.07002 -0.5802 0 -1.0003 0.16004 -0.7402 0.49012 -1.5404 0.60015 -1.9205 0.25542 -1.1258 0.59992 -2.22956 1.03025 -3.30079 0.251 -0.65932 0.75003 -1.19425 1.39035 -1.49038 0.32438 -0.10089 0.66076 -0.15807 1.00025 -0.17004 0.55086 -0.02269 1.10265 -0.00263 1.65041 0.06002 0.03627 0.00562 0.0733 0.00378 0.10883 -0.00539 0.03553 -0.00917 0.06883 -0.02548 0.09784 -0.04795 0.02902 -0.02246 0.05316 -0.05061 0.07094 -0.08271 0.01777 -0.03211 0.02882 -0.0675 0.03247 -0.10401 0.00853 -0.07282 -0.01182 -0.14609 -0.05671 -0.20407 -0.04488 -0.05797 -0.11071 -0.09603 -0.18335 -0.10601 -0.5659 -0.09176 -1.13734 -0.14523 -1.71043 -0.16004 -0.40612 -0.00027 -0.81023 0.05698 -1.2003 0.17004 -0.63345 0.23989 -1.16384 0.69248 -1.50037 1.28032 -0.68241 1.26343 -1.20329 2.60764 -1.55039 4.00101 -0.31108 0.7603 -0.56518 1.5426 -0.76019 2.3406 -0.10938 0.4472 -0.0562 0.9187 0.15004 1.3303 0.36586 0.4825 0.87824 0.8335 1.46036 1.0003 0 0.7902 0.06002 1.5703 0.13004 2.3505 0.09002 1.0003 0.22005 2.0505 0.38009 3.0608 0.08002 0.4601 0.09002 1.0003 0.22006 1.4604 0.06876 0.2507 0.18044 0.4876 0.33008 0.7001 0.21686 0.2652 0.50487 0.463 0.83021 0.5702 0.39049 0.1222 0.79284 0.2026 1.20029 0.24 0.42011 0.0601 0.84021 0.1001 1.26032 0.1201 1.00025 0.06 1.91047 0.06 2.88074 0.11 1.4303 0.06 2.8207 0.14 4.221 0.1 0.9529 -0.0311 1.9023 -0.1314 2.8407 -0.3001 0.5235 -0.0371 1.0445 -0.1039 1.5604 -0.2 0.3062 -0.0715 0.5845 -0.2315 0.8002 -0.4601 0.2606 -0.3378 0.448 -0.7261 0.5502 -1.1403 0.131 -0.53 0.2279 -1.068 0.29 -1.6104 0.1201 -0.9202 0.2601 -1.8405 0.3801 -2.7607 0.08 -0.6201 0.1601 -1.2403 0.2101 -1.8605 0.0031 -0.0576 -0.0147 -0.1144 -0.05 -0.16 0.5951 -0.1231 1.1639 -0.35 1.6804 -0.6702 0.1425 -0.1417 0.2487 -0.3157 0.3096 -0.5073 0.061 -0.1915 0.0749 -0.3949 0.0405 -0.5929Zm-2.8607 3.6909c-0.1501 0.9102 -0.3201 1.8304 -0.4802 2.7307 -0.077 0.506 -0.1839 1.007 -0.32 1.5003 -0.0787 0.2828 -0.2111 0.5477 -0.3901 0.7802 -0.15 0.1218 -0.337 0.1888 -0.5302 0.1901 -0.4801 0.07 -1.0002 0.06 -1.3103 0.1 -0.9011 0.1305 -1.8102 0.1974 -2.7207 0.2001 -1.3703 0 -2.7307 -0.0501 -4.151 -0.1101 -1.00026 0 -1.91048 0 -2.87072 -0.08 -0.4001 0 -0.8002 0 -1.2003 -0.07 -0.33773 -0.015 -0.67297 -0.0653 -1.00025 -0.15 -0.15963 -0.0449 -0.30457 -0.1312 -0.4201 -0.2501 -0.12684 -0.1641 -0.21258 -0.3562 -0.25007 -0.5601 -0.10002 -0.3801 -0.14003 -0.8102 -0.21005 -1.1803 -0.21005 -1.0003 -0.38009 -2.0005 -0.51013 -3.0008 -0.10002 -0.7002 -0.16004 -1.4003 -0.21005 -2.1105 2.47062 0.5701 14.31357 0.5901 16.83417 0.18 -0.11 0.6202 -0.2 1.2303 -0.26 1.8305Z" clip-rule="evenodd" stroke-width="1"></path>
</svg>