<svg xmlns="http://www.w3.org/2000/svg" fill="none" viewBox="0 0 24 24" id="Shopping-Cart-Trolley-Check--Streamline-Freehand">
  <desc>
    Shopping Cart Trolley Check Streamline Icon: https://streamlinehq.com
  </desc>
  <path fill="#000000" fill-rule="evenodd" d="M10.4982 2.07791C9.90487 1.37923 9.15673 0.828635 8.31326 0.469909 7.46978 0.111183 6.55424 -0.0457744 5.63944 0.0115217c-0.9148 0.0572962 -1.8036 0.3272643 -2.59573 0.7884333 -0.79212 0.461165 -1.4657 1.100815 -1.96717 1.868055 -1.67029 2.47042 -0.810143 6.08104 0.85014 7.14123 0.03301 0.03008 0.07213 0.05267 0.11468 0.06623 0.04255 0.01357 0.08753 0.01778 0.13186 0.01235 0.04433 -0.00543 0.08696 -0.02037 0.12498 -0.04381 0.03802 -0.02343 0.07053 -0.0548 0.0953 -0.09196s0.04123 -0.07923 0.04823 -0.12334c0.00701 -0.0441 0.00441 -0.08921 -0.00763 -0.13221 -0.01204 -0.04301 -0.03322 -0.08291 -0.06211 -0.11697 -0.02888 -0.03406 -0.06479 -0.06148 -0.10525 -0.08038 -1.270218 -0.92016 -1.910327 -4.0907 -0.42007 -6.07104 0.43866 -0.59863 1.00506 -1.09211 1.65812 -1.44466 0.65305 -0.35255 1.37639 -0.55533 2.11754 -0.59364 0.74115 -0.0383 1.48154 0.08884 2.16746 0.37219 0.68592 0.28336 1.30017 0.71582 1.79821 1.26604 2.4504 2.9005 1.0002 7.29126 -3.31057 7.80136 -0.78652 0.1147 -1.58859 0.0567 -2.35041 -0.1701 -0.08886 -0.0291 -0.18567 -0.0218 -0.26914 0.0204 -0.08347 0.0422 -0.14675 0.1158 -0.17593 0.2047 -0.02918 0.0888 -0.02186 0.1857 0.02034 0.2691 0.0422 0.0835 0.11583 0.1468 0.2047 0.176 0.85426 0.2773 1.75643 0.376 2.65045 0.29 1.0704 -0.026 2.11139 -0.3555 3.00173 -0.9503 0.89033 -0.59473 1.59343 -1.43019 2.02733 -2.40905 0.4338 -0.97886 0.5807 -2.06085 0.4234 -3.11996 -0.1572 -1.0591 -0.6122 -2.05173 -1.3117 -2.86228Z" clip-rule="evenodd" stroke-width="1"></path>
  <path fill="#000000" fill-rule="evenodd" d="M4.60682 8.10807c1.16 0.06 2.53 -3.16 3 -4.21 0.15673 -0.15979 0.25532 -0.36754 0.28 -0.59 -0.00872 -0.07441 -0.03982 -0.14443 -0.08919 -0.20078 -0.04937 -0.05635 -0.11468 -0.09639 -0.1873 -0.11482 -0.07262 -0.01842 -0.14913 -0.01437 -0.21939 0.01163 -0.07027 0.026 -0.13098 0.07271 -0.17412 0.13397 -0.24 0.28 -2.76 3.94 -2.69 4 -0.2 0 -1.22 -1.18 -1.37 -1.28 -0.15 -0.1 -0.59 0.18 -0.36 0.52 0.43 0.62 1.13 1.69 1.81 1.73Z" clip-rule="evenodd" stroke-width="1"></path>
  <path fill="#000000" d="m9.90806 14.4 2.21034 -0.14c0.0363 0.5886 0.1335 1.1718 0.2901 1.7403 0.0054 0.0465 0.0054 0.0935 0 0.14 0.3601 0.5501 0.6801 0.6001 1.0002 0 0 -0.32 -0.06 -0.7601 -0.1001 -1.3602 0 -0.22 0 -0.4501 -0.07 -0.6701 0.8102 0 1.5403 -0.09 2.9105 -0.2301 0.0064 0.9825 0.0631 1.9639 0.1701 2.9405 -0.0085 0.0489 -0.0062 0.099 0.0067 0.1469 0.013 0.0478 0.0362 0.0923 0.0681 0.1302 0.0319 0.0379 0.0718 0.0684 0.1167 0.0893 0.045 0.021 0.0939 0.0318 0.1435 0.0318 0.0496 0 0.0986 -0.0108 0.1435 -0.0318 0.045 -0.0209 0.0848 -0.0514 0.1167 -0.0893s0.0552 -0.0824 0.0681 -0.1302c0.0129 -0.0479 0.0152 -0.098 0.0068 -0.1469 0.09 -1.1302 0.22 -1.9003 0.28 -3.0605l1.6703 -0.16c0.8402 -0.2301 0.8101 -0.5001 0.06 -0.8001h-1.6903c0.031 -0.5289 -0.0026 -1.0596 -0.1 -1.5803 -0.18 -1.0002 -0.8001 -0.7001 -0.8301 0 -0.1701 1.6303 -0.1301 0.9001 -0.1801 1.6003 -1.0469 0.0121 -2.0922 0.0856 -3.1305 0.22 -0.12 -0.5201 -0.25 -1.0002 -0.3601 -1.4203 -0.0186 -0.0718 -0.0633 -0.1342 -0.1253 -0.175 -0.062 -0.0409 -0.1369 -0.0573 -0.2103 -0.0461 -0.0734 0.0112 -0.14 0.0492 -0.187 0.1067 -0.047 0.0575 -0.0711 0.1303 -0.0675 0.2045v1.4902c-1.0001 0.18 -1.7403 0.2401 -2.39037 0.4101 -0.55009 0.3901 -0.96016 0.7301 0.18003 0.7901Z" stroke-width="1"></path>
  <path fill="#000000" d="M23.7904 5.80855c-0.37 -0.81014 -2.4704 1.1902 -3.3105 3.63062 -2.3505 -0.3682 -4.7413 -0.40187 -7.1013 -0.10002 -0.0488 -0.00847 -0.0989 -0.00616 -0.1468 0.00678 -0.0478 0.01293 -0.0923 0.03617 -0.1302 0.06809 -0.0379 0.03192 -0.0684 0.07175 -0.0894 0.11669 -0.0209 0.04495 -0.0317 0.09392 -0.0317 0.1435 0 0.04957 0.0108 0.09855 0.0317 0.1435 0.021 0.04494 0.0515 0.08477 0.0894 0.11669 0.0379 0.03192 0.0824 0.05516 0.1302 0.0681 0.0479 0.0129 0.098 0.0152 0.1468 0.0068 2.269 0.2889 4.5623 0.3359 6.8412 0.14 -0.3607 1.7162 -0.5815 3.4589 -0.6601 5.2109 -0.07 0.5801 -0.06 1.2502 -0.12 1.9003 -0.5601 0 -2.0004 0.11 -2.3704 0.13 -2.4414 -0.1027 -4.8735 -0.3633 -7.28127 -0.7801 -0.50009 -0.3401 -0.81014 -1.1002 -1.13019 -2.8205 -0.01807 -0.0736 -0.06333 -0.1377 -0.12669 -0.1793s-0.14012 -0.0577 -0.21486 -0.045c-0.07474 0.0127 -0.14192 0.0531 -0.18803 0.1133 -0.0461 0.0602 -0.06773 0.1356 -0.06053 0.211 0.27005 2.0004 0.43008 3.2706 1.63028 3.7907 0.75759 0.2246 1.54069 0.3523 2.33039 0.38 2.4255 0.3768 4.897 0.343 7.3113 -0.1 -0.0341 0.2784 -0.146 0.5416 -0.3229 0.7592 -0.177 0.2176 -0.4117 0.3809 -0.6773 0.471 -0.5882 0.2041 -1.2079 0.3023 -1.8303 0.2901 -1.2502 0 -2.5205 0.11 -3.7807 0.09 -1.3025 -0.0346 -2.6018 -0.1481 -3.89063 -0.3401 -0.0756 -0.0252 -0.15812 -0.0193 -0.22939 0.0164 -0.07128 0.0356 -0.12548 0.0981 -0.15068 0.1737 -0.0252 0.0756 -0.01933 0.1581 0.0163 0.2294 0.03564 0.0712 0.09813 0.1254 0.17373 0.1506 0.49113 0.1118 0.9889 0.1919 1.49027 0.2401 0.34 0.07 0.33 0 0.14 0.08 -0.39709 0.1587 -0.7329 0.4404 -0.95814 0.8039 -0.22524 0.3635 -0.32807 0.7896 -0.29339 1.2159 0.03468 0.4262 0.20504 0.8301 0.48608 1.1524 0.28105 0.3223 0.65795 0.5461 1.07555 0.6385 1.5602 0.39 3.2805 -0.9502 2.7504 -2.4805 -0.1326 -0.4186 -0.4136 -0.7743 -0.7901 -1.0001 -0.1052 -0.0599 -0.2157 -0.1102 -0.3301 -0.1501 1.6403 0.1401 2.4305 0.1201 4.2908 0.1701 1.5102 0 0.9201 -0.2901 0.4401 0.6901 -1.2603 2.5704 2.7504 3.6106 3.6606 2.1003 0.2531 -0.609 0.2554 -1.2934 0.0062 -1.9041 -0.2491 -0.6107 -0.7295 -1.0983 -1.3364 -1.3564 2.0003 -1.2202 1.1101 -3.9407 1.6902 -8.5315 0.1172 -1.4546 0.6176 -2.85223 1.4503 -4.05068 0.3137 -0.46793 0.7269 -0.8607 1.2102 -1.15019 0.0411 -0.01925 0.078 -0.04653 0.1084 -0.08024 0.0304 -0.03371 0.0537 -0.07317 0.0687 -0.11605 0.0149 -0.04288 0.021 -0.08831 0.0181 -0.13362 -0.0029 -0.04531 -0.0149 -0.08957 -0.0352 -0.13017ZM10.8982 22.8115c-0.5501 -0.1301 -0.8801 -0.4401 -0.93014 -0.8202 -0.14002 -1.0702 1.11024 -1.5002 2.00034 -1.0001 1.2302 0.8201 0.14 2.1203 -1.0702 1.8303v-0.01Zm8.4715 -1.8103c2.1703 2.2503 -2.2504 2.5304 -1.5503 0.5801 0.0623 -0.2634 0.2139 -0.4971 0.4291 -0.6612 0.2152 -0.1641 0.4806 -0.2486 0.7511 -0.239 0.141 0.0845 0.2662 0.1928 0.3701 0.3201Z" stroke-width="1"></path>
</svg>