<svg xmlns="http://www.w3.org/2000/svg" fill="none" viewBox="0 0 14 14" id="Flash-3--Streamline-Flex">
  <desc>
    Flash 3 Streamline Icon: https://streamlinehq.com
  </desc>
  <g id="flash-3--flash-power-connect-charge-electricity-lightning">
    <path id="Vector 383 (Stroke)" fill="#fddc5c" d="m9.28538 2.04525 -0.33635 1.11376c0.05173 -0.00065 0.10493 -0.00114 0.15936 -0.00144 0.83452 -0.0046 1.50871 0.40736 1.86331 1.04429 0.3482 0.62539 0.3581 1.41026 0.0111 2.11958L9.70922 8.925h0.83188c0.3726 0 0.7152 0.18017 0.9142 0.47803 0.2079 0.31127 0.2401 0.73127 0.0118 1.09447 -0.5464 0.8693 -1.4741 1.6827 -2.44698 2.2986 -0.9712 0.6149 -2.07016 1.0853 -3.00353 1.1993 -0.11417 0.0139 -0.22998 -0.0039 -0.33466 -0.0516 -0.83069 -0.378 -1.49439 -1.0272 -1.98611 -1.6939 -0.49306 -0.6684 -0.84202 -1.3931 -1.02743 -1.9786 -0.24443 -0.77181 0.41074 -1.3463 1.03252 -1.3463h1.23761l0.45919 -1.3h-0.44308c-1.56699 0 -2.86186 -1.37489 -2.5276 -2.97458 0.06481 -0.31016 0.13567 -0.6193 0.21033 -0.89651 0.24762 -0.91942 0.7159 -2.14764 0.95577 -2.757127 0.16703 -0.424438 0.5377 -0.791529 1.0624 -0.873306C5.03938 0.063651 5.44789 0 6.48755 0c0.7031 0 1.17988 0.0192381 1.53073 0.0519145C9.0612 0.149047 9.5366 1.21337 9.28538 2.04525Z" stroke-width="1"></path>
    <path id="Vector 383 (Stroke)_2" fill="#0c098c" fill-rule="evenodd" d="M4.87016 1.35511c-0.00739 0.00116 -0.01477 0.00231 -0.02214 0.00346 -0.01536 0.00239 -0.02795 0.00802 -0.04147 0.01968 -0.01516 0.01308 -0.0349 0.03728 -0.05026 0.0763 -0.2408 0.61187 -0.68468 1.78062 -0.91194 2.62443 -0.06635 0.24636 -0.13179 0.53057 -0.19375 0.82711 -0.15342 0.73422 0.43665 1.46891 1.30403 1.46891h1.32668c0.20286 0 0.39311 0.09846 0.51026 0.26408 0.11714 0.16562 0.14662 0.3778 0.07906 0.56908l-0.90071 2.55c-0.08823 0.24984 -0.32438 0.41684 -0.58932 0.41684H3.9603c0.16008 0.4064 0.41023 0.8839 0.74146 1.3329 0.37437 0.5075 0.82871 0.947 1.33938 1.2198 0.66026 -0.1199 1.50062 -0.475 2.31032 -0.9877 0.72947 -0.4618 1.3775 -1.0158 1.81324 -1.565H8.70772c-0.21564 0 -0.41605 -0.1112 -0.53022 -0.29411 -0.11417 -0.18294 -0.12596 -0.41181 -0.03121 -0.60552l1.71365 -3.50319c0.18296 -0.37413 0.15186 -0.72476 0.01961 -0.96232 -0.12582 -0.22602 -0.37135 -0.40448 -0.76428 -0.40231 -0.28058 0.00154 -0.52687 0.00858 -0.70275 0.01523 -0.08784 0.00332 -0.15785 0.00653 -0.20549 0.00888l-0.05404 0.0028 -0.01333 0.00074 -0.00305 0.00018c-0.20391 0.01206 -0.40146 -0.07626 -0.52804 -0.23658 -0.12659 -0.16034 -0.16683 -0.37242 -0.10777 -0.56798l0.58796 -1.94694c0.02976 -0.09857 0.01392 -0.2035 -0.03092 -0.28026 -0.04105 -0.07026 -0.09429 -0.10139 -0.15548 -0.10709C7.60618 1.26894 7.1725 1.25 6.48755 1.25c-0.944 0 -1.2934 0.05454 -1.61739 0.10511Zm4.07887 1.8039 0.33635 -1.11376C9.5366 1.21337 9.0612 0.149047 8.01828 0.0519145 7.66743 0.0192381 7.19065 0 6.48755 0 5.44789 0 5.03938 0.063651 4.65553 0.123477c-0.5247 0.081777 -0.89537 0.448868 -1.0624 0.873306 -0.23987 0.609487 -0.70815 1.837707 -0.95577 2.757127 -0.07466 0.27721 -0.14552 0.58635 -0.21033 0.89651 -0.33426 1.59969 0.96061 2.97458 2.5276 2.97458h0.44308l-0.45919 1.3H3.70091c-0.62178 0 -1.27695 0.57449 -1.03252 1.3463 0.18541 0.5855 0.53437 1.3102 1.02743 1.9786 0.49172 0.6667 1.15542 1.3159 1.98611 1.6939 0.10468 0.0477 0.22049 0.0655 0.33466 0.0516 0.93337 -0.114 2.03233 -0.5844 3.00353 -1.1993 0.97288 -0.6159 1.90058 -1.4293 2.44698 -2.2986 0.2283 -0.3632 0.1961 -0.7832 -0.0118 -1.09447 -0.199 -0.29786 -0.5416 -0.47803 -0.9142 -0.47803h-0.83188l1.27358 -2.60356c0.347 -0.70932 0.3371 -1.49419 -0.0111 -2.11958 -0.3546 -0.63693 -1.02879 -1.04889 -1.86331 -1.04429 -0.05443 0.0003 -0.10763 0.00079 -0.15936 0.00144Z" clip-rule="evenodd" stroke-width="1"></path>
  </g>
</svg>