<svg xmlns="http://www.w3.org/2000/svg" fill="none" viewBox="0 0 14 14" id="Flash-Warning--Streamline-Flex">
  <desc>
    Flash Warning Streamline Icon: https://streamlinehq.com
  </desc>
  <g id="flash-warning--flash-warning-alert-camera-light">
    <path id="Vector (Stroke)" fill="#7af1ff" d="M11.3637 7.14171c1.3965 1.50608 2.0997 2.96709 2.5852 4.82759 0.2451 0.939 -0.421 1.8536 -1.3754 1.9333 -1.5554 0.1299 -3.09159 0.1299 -4.64697 0 -0.95441 -0.0797 -1.62053 -0.9943 -1.37547 -1.9333 0.48549 -1.8605 1.18871 -3.32151 2.5852 -4.82759 0.60207 -0.64931 1.62544 -0.64931 2.22744 0Z" stroke-width="1"></path>
    <path id="Vector 382" fill="#7af1ff" d="M3.05785 6.19585H1.38627c-0.565354 0 -0.938004 -0.57615 -0.664931 -1.06471C1.74561 3.29861 3.2228 1.50372 4.90554 0.666957c0.25041 -0.124523 0.52507 0.076115 0.50695 0.352273l-0.16884 2.57392c0.6931 0.02536 1.43075 0.08141 2.05952 0.18929 0.43365 0.0744 0.65463 0.52138 0.45194 0.90699 -0.67873 1.29121 -2.14918 3.34283 -4.56577 5.22081 -0.25483 0.19806 -0.61842 0.00645 -0.59848 -0.31304 0.07241 -1.1604 0.20472 -2.33275 0.46699 -3.40135Z" stroke-width="1"></path>
    <path id="Union" fill="#0c098c" fill-rule="evenodd" d="M6.03615 1.06015C6.08271 0.350469 5.35126 -0.25269 4.62726 0.107328 2.78085 1.02548 1.22612 2.94703 0.175776 4.82621c-0.532422 0.95256 0.223242 1.99464 1.210494 1.99464h0.89837c-0.16682 0.89397 -0.26072 1.82649 -0.31757 2.73742 -0.05386 0.86313 0.93111 1.36973 1.60577 0.84543 2.48983 -1.93485 4.01701 -4.05662 4.7355 -5.42347 0.40207 -0.76491 -0.05127 -1.66826 -0.89948 -1.81379 -0.46905 -0.08048 -0.98794 -0.13279 -1.50001 -0.16575l0.1273 -1.94054ZM1.2669 5.43608c0.90395 -1.61726 2.13711 -3.13803 3.49005 -3.97178l-0.13696 2.08794c-0.01106 0.16853 0.04656 0.33436 0.15974 0.45973 0.11318 0.12536 0.27228 0.19958 0.44106 0.20576 0.68004 0.02488 1.38675 0.07949 1.97669 0.18071l0.00408 0.00079c-0.59707 1.13566 -1.87009 2.93936 -3.94528 4.65628 0.07703 -0.94318 0.20126 -1.86608 0.40855 -2.71069 0.04576 -0.18645 0.00329 -0.38359 -0.11518 -0.53466 -0.11848 -0.15107 -0.29982 -0.23931 -0.4918 -0.23931H1.38627c-0.06203 0 -0.10006 -0.02881 -0.11863 -0.05818 -0.00938 -0.01483 -0.01232 -0.0276 -0.01271 -0.03637 -0.00029 -0.0067 0.00027 -0.01928 0.01197 -0.04022Zm10.0968 1.70563c1.3965 1.50608 2.0997 2.96709 2.5852 4.82759 0.2451 0.939 -0.421 1.8536 -1.3754 1.9333 -1.5554 0.1299 -3.09159 0.1299 -4.64697 0 -0.95441 -0.0797 -1.62053 -0.9943 -1.37547 -1.9333 0.48549 -1.8605 1.18871 -3.32151 2.5852 -4.82759 0.60207 -0.64931 1.62544 -0.64931 2.22744 0Zm-0.489 2.11584c0 -0.34518 -0.2798 -0.625 -0.625 -0.625 -0.34515 0 -0.62497 0.27982 -0.62497 0.625v0.90415c0 0.3452 0.27982 0.625 0.62497 0.625 0.3452 0 0.625 -0.2798 0.625 -0.625v-0.90415Zm0.0827 2.55775c0 0.4535 -0.2552 0.7086 -0.7087 0.7086 -0.45351 0 -0.70862 -0.2551 -0.70862 -0.7086 0 -0.4536 0.25511 -0.7087 0.70862 -0.7087 0.4535 0 0.7087 0.2551 0.7087 0.7087Z" clip-rule="evenodd" stroke-width="1"></path>
  </g>
</svg>