<svg xmlns="http://www.w3.org/2000/svg" fill="none" viewBox="0 0 14 14" id="Landscape-Lock--Streamline-Flex">
  <desc>
    Landscape Lock Streamline Icon: https://streamlinehq.com
  </desc>
  <g id="landscape-lock--photos-photo-picture-photography-pictures-lock-private-image">
    <path id="Subtract" fill="#79ee8d" fill-rule="evenodd" d="M0.835082 2.74054C0.726095 3.72372 0.625 4.73769 0.625 5.77407c0 1.03638 0.101095 2.05035 0.210082 3.03353 0.109637 0.98902 0.901488 1.7806 1.890058 1.8943 0.98808 0.1136 2.0072 0.2212 3.04887 0.2212 0.15532 0 0.31013 -0.0024 0.46441 -0.0069 0.031 -0.309 0.07689 -0.5867 0.11289 -0.8045l0.0044 -0.0267 0.01229 -0.0746c0.10586 -0.64359 0.46625 -1.2023 0.97644 -1.5655 0.04346 -0.24237 0.11294 -0.47996 0.20762 -0.70855 0.17267 -0.41685 0.42575 -0.79561 0.7448 -1.11466 0.31905 -0.31905 0.69781 -0.57213 1.11466 -0.7448 0.41686 -0.17266 0.86368 -0.26153 1.31488 -0.26153 0.0654 0 0.1307 0.00187 0.1959 0.00559 -0.0093 -0.98316 -0.1057 -1.9457 -0.2094 -2.88041 -0.1096 -0.98902 -0.90144 -1.780576 -1.89001 -1.894265C7.8348 0.732642 6.81569 0.625061 5.77401 0.625061c-1.04167 0 -2.06079 0.107581 -3.04887 0.221214C1.73657 0.959964 0.944719 1.75152 0.835082 2.74054Z" clip-rule="evenodd" stroke-width="1"></path>
    <path id="Union" fill="#0c098c" fill-rule="evenodd" d="M5.77401 0.0000610352c-1.08108 0 -2.13185 0.1116339648 -3.12028 0.2253059648C1.37699 0.372197 0.355793 1.39156 0.213887 2.67168 0.10473 3.65639 0 4.70022 0 5.77407c0 1.07385 0.10473 2.11768 0.213887 3.10239C0.355793 10.1566 1.37699 11.1759 2.65373 11.3228c0.4621 0.0531 0.93754 0.1057 1.42098 0.1466 0.03564 0.003 0.07084 0.003 0.10533 0.0001 0.61631 0.0469 1.24862 0.0785 1.82394 0.0785 0.06991 0 0.13714 -0.0115 0.1999 -0.0326 0.00536 -0.5441 0.0893 -1.052 0.14743 -1.4037l0.0044 -0.0267 0.01229 -0.0746c0.10586 -0.64359 0.46625 -1.2023 0.97644 -1.5655 0.0115 -0.06414 0.02482 -0.12794 0.03995 -0.19133 -0.47728 -0.76415 -1.04581 -1.52359 -1.67555 -2.10426 -0.64439 -0.59417 -1.41472 -1.05757 -2.26155 -1.05757 -0.62656 0 -1.20979 0.2545 -1.72441 0.6194 -0.16048 0.11379 -0.31719 0.24032 -0.46976 0.37694C1.25107 5.98356 1.25 5.8789 1.25 5.77407c0 -0.9989 0.09746 -1.98302 0.20628 -2.96466 0.07736 -0.69793 0.63986 -1.26168 1.34026 -1.34223 0.98775 -0.11359 1.9752 -0.21712 2.97747 -0.21712 1.00227 0 1.98973 0.10353 2.97747 0.21712 0.7004 0.08055 1.26292 0.6443 1.34022 1.34223 0.0854 0.77013 0.1639 1.54195 0.1937 2.32364 0.0132 0.34493 0.3034 0.61388 0.6484 0.60073 0.3449 -0.01315 0.6138 -0.30344 0.6007 -0.64836 -0.0317 -0.82999 -0.1146 -1.64001 -0.2004 -2.41374C11.1922 1.39156 10.171 0.372197 8.89429 0.225367 7.90587 0.111695 6.85509 0.0000610352 5.77401 0.0000610352ZM6.59171 3.02207c0.26682 -0.26682 0.64295 -0.3903 1.07921 -0.3903s0.81238 0.12348 1.07921 0.3903c0.26682 0.26682 0.39029 0.64295 0.39029 1.0792 0 0.43626 -0.12347 0.81239 -0.39029 1.07921 -0.26683 0.26682 -0.64295 0.39029 -1.07921 0.39029s-0.81239 -0.12347 -1.07921 -0.39029c-0.26682 -0.26682 -0.39029 -0.64295 -0.39029 -1.07921 0 -0.43625 0.12347 -0.81238 0.39029 -1.0792Zm4.13519 6.11776c-0.3171 0 -0.6308 0.0127 -0.93637 0.03101v-0.11965c0 -0.12289 0.0242 -0.24459 0.07123 -0.35813s0.11597 -0.2167 0.20284 -0.3036c0.0869 -0.0869 0.1901 -0.15584 0.3036 -0.20287 0.1136 -0.04703 0.2353 -0.07123 0.3582 -0.07123 0.1229 0 0.2445 0.0242 0.3581 0.07123 0.1135 0.04703 0.2167 0.11597 0.3036 0.20287 0.0869 0.0869 0.1558 0.19006 0.2029 0.3036 0.047 0.11354 0.0712 0.23524 0.0712 0.35813v0.11959c-0.3052 -0.01828 -0.6186 -0.03095 -0.9353 -0.03095Zm-2.18637 -0.08864v0.21708c-0.4813 0.0807 -0.8598 0.46189 -0.93904 0.94463l-0.01241 0.0754c-0.06196 0.3752 -0.13547 0.8204 -0.13547 1.2816 0 0.4612 0.07351 0.9064 0.13547 1.2817l0.01241 0.0753c0.08481 0.5167 0.51239 0.917 1.04192 0.9572 0.10164 0.0077 0.20529 0.0159 0.31069 0.0242l0.0028 0.0002 0.00049 0.0001c0.55349 0.0438 1.15531 0.0914 1.76951 0.0914 0.6141 0 1.216 -0.0476 1.7694 -0.0914l0.0006 -0.0001 0.0019 -0.0001 0.0006 -0.0001c0.1055 -0.0083 0.2092 -0.0165 0.3109 -0.0242 0.5295 -0.0402 0.9571 -0.4405 1.0419 -0.9572l0.0124 -0.0753c0.062 -0.3753 0.1355 -0.8205 0.1355 -1.2817 0 -0.4612 -0.0735 -0.9063 -0.1354 -1.2816l-0.0001 0 -0.0124 -0.0754c-0.0793 -0.48307 -0.4582 -0.86446 -0.94 -0.94479v-0.21692c0 -0.28705 -0.0565 -0.57128 -0.1664 -0.83648 -0.1098 -0.2652 -0.2708 -0.50616 -0.4738 -0.70914 -0.203 -0.20297 -0.444 -0.36398 -0.7092 -0.47383 -0.2652 -0.10985 -0.5494 -0.16638 -0.8364 -0.16638 -0.2871 0 -0.5713 0.05653 -0.83652 0.16638 -0.2652 0.10985 -0.50616 0.27086 -0.70914 0.47383 -0.20297 0.20298 -0.36398 0.44394 -0.47383 0.70914 -0.10985 0.2652 -0.16638 0.54943 -0.16638 0.83648Z" clip-rule="evenodd" stroke-width="1"></path>
  </g>
</svg>