<svg xmlns="http://www.w3.org/2000/svg" fill="none" viewBox="0 0 24 24" id="Beer-Glass--Streamline-Ultimate">
  <desc>
    Beer Glass Streamline Icon: https://streamlinehq.com
  </desc>
  <path fill="#ffef5e" d="M8.5127 20.1302v2.8696h6.9746v-2.8696" stroke-width="1"></path>
  <path stroke="#191919" stroke-linecap="round" stroke-linejoin="round" d="M8.5127 20.1302v2.8696h6.9746v-2.8696" stroke-width="1"></path>
  <path fill="#fff9bf" d="M17.8783 4.82623 15.487 20.1305H8.51239L6.12109 4.82623H17.8783Z" stroke-width="1"></path>
  <path fill="#ffef5e" d="M11.9994 15.1525c-1.581 0.0011 -3.12971 -0.4483 -4.46473 -1.2953l0.98043 6.2771h6.9746l0.9814 -6.2771c-1.3372 0.848 -2.8883 1.2973 -4.4717 1.2953Z" stroke-width="1"></path>
  <path stroke="#191919" stroke-linecap="round" stroke-linejoin="round" d="M17.8783 4.82623 15.487 20.1305H8.51239L6.12109 4.82623H17.8783Z" stroke-width="1"></path>
  <path fill="#c2f3ff" stroke="#191919" stroke-linecap="round" stroke-linejoin="round" d="m18.3864 1.54812 -0.5082 3.27807H6.12103l-0.51811 -3.27807c-0.01111 -0.06806 -0.00608 -0.13778 0.01469 -0.20355s0.05669 -0.12573 0.10487 -0.17507c0.04662 -0.05452 0.10478 -0.09799 0.17025 -0.12728 0.06549 -0.0293 0.13666 -0.043677 0.20838 -0.0421H17.8882c0.073 -0.000636 0.1454 0.01412 0.2123 0.0433 0.067 0.02918 0.1271 0.07215 0.1763 0.12608 0.0468 0.05 0.0812 0.11036 0.1002 0.17616 0.0191 0.06581 0.0222 0.13518 0.0094 0.20246Z" stroke-width="1"></path>
  <path fill="#78eb7b" stroke="#191919" stroke-linecap="round" stroke-linejoin="round" d="M11.9997 11.5219c0.6474 0.013 1.2735 -0.2315 1.7406 -0.68 0.4671 -0.4483 0.737 -1.06393 0.7504 -1.71132 0 -0.66063 -0.2625 -1.29422 -0.7296 -1.76136 -0.4672 -0.46714 -1.1008 -0.72957 -1.7614 -0.72957 -0.6606 0 -1.2942 0.26243 -1.7614 0.72957 -0.46708 0.46714 -0.72951 1.10073 -0.72951 1.76136 0.01334 0.64739 0.28324 1.26302 0.75041 1.71132 0.4671 0.4485 1.0932 0.693 1.7405 0.68Z" stroke-width="1"></path>
  <path stroke="#191919" stroke-linecap="round" stroke-linejoin="round" d="M5.52344 23H18.4763" stroke-width="1"></path>
</svg>