<svg xmlns="http://www.w3.org/2000/svg" fill="none" viewBox="0 0 24 24" id="Fast-Food-French-Fries--Streamline-Ultimate">
  <desc>
    Fast Food French Fries Streamline Icon: https://streamlinehq.com
  </desc>
  <path fill="#ffef5e" d="m20.0336 4.67164 -0.6954 -1.48055c-0.0386 -0.08219 -0.0999 -0.15168 -0.1767 -0.20029 -0.0767 -0.0486 -0.1657 -0.07437 -0.2566 -0.07427h-0.7718c-0.1035 0 -0.2042 0.03357 -0.2869 0.09565 -0.0826 0.06208 -0.1431 0.14933 -0.1721 0.24869l-2.4007 8.26183h-0.1177l0.7872 -9.84184c0.01 -0.126 -0.0302 -0.25084 -0.1119 -0.34727 -0.0817 -0.09643 -0.1983 -0.15656 -0.3242 -0.16729l-1.9062 -0.16457c-0.0628 -0.005363 -0.126 0.00176 -0.1861 0.02089 -0.06 0.01913 -0.1156 0.04998 -0.1637 0.09068 -0.0482 0.0407 -0.0876 0.09047 -0.1164 0.1465 -0.0288 0.05602 -0.0463 0.11722 -0.0513 0.17998l-0.8426 10.08292h-0.4869l-0.8435 -10.08097c-0.0048 -0.06285 -0.022 -0.12415 -0.0507 -0.18037 -0.0286 -0.05622 -0.0681 -0.10619 -0.116 -0.14709 -0.048 -0.04089 -0.1036 -0.07183 -0.1637 -0.09116 -0.06 -0.01933 -0.1232 -0.026548 -0.1861 -0.02138l-1.90621 0.16457c-0.1261 0.01044 -0.24293 0.07056 -0.32482 0.167 -0.08199 0.09643 -0.1223 0.22146 -0.11225 0.34756l0.79284 9.84184h-0.1224L6.31717 3.26087c-0.02889 -0.09936 -0.08931 -0.18652 -0.17207 -0.24869 -0.08287 -0.06208 -0.1835 -0.09555 -0.28696 -0.09555h-0.77185c-0.09087 -0.0002 -0.17988 0.02557 -0.2566 0.07417 -0.07672 0.04861 -0.13801 0.1181 -0.17666 0.20029L3.9577 4.67164c-0.04832 0.10317 -0.05818 0.22019 -0.02782 0.33l1.7924 6.52106 1.735 5.1169h9.11392l1.7006 -5.1169 1.7934 -6.52301c0.0281 -0.10961 0.0168 -0.22576 -0.0316 -0.32805Z" stroke-width="1"></path>
  <path fill="#fff9bf" d="m19.1724 8.24014 0.8896 -3.2385c0.0305 -0.10971 0.021 -0.22664 -0.0269 -0.33l-0.6953 -1.48055c-0.0388 -0.08218 -0.1 -0.15168 -0.1768 -0.20028 -0.0767 -0.04861 -0.1656 -0.07438 -0.2565 -0.07418h-0.7718c-0.1035 0 -0.2042 0.03348 -0.287 0.09555 -0.0827 0.06208 -0.1432 0.14943 -0.1722 0.2487l-0.9821 3.38392c0.8938 0.41872 1.7275 0.95525 2.479 1.59534Z" stroke-width="1"></path>
  <path fill="#fff9bf" d="m15.5797 6.18958 0.3625 -4.50872c0.0101 -0.126 -0.0301 -0.25084 -0.1118 -0.34727 -0.0817 -0.09643 -0.1984 -0.15656 -0.3243 -0.16729l-1.9062 -0.16457c-0.0627 -0.005363 -0.126 0.00176 -0.186 0.02089 -0.06 0.01913 -0.1157 0.04998 -0.1638 0.09068 -0.0481 0.0407 -0.0875 0.09047 -0.1163 0.1465 -0.0288 0.05602 -0.0463 0.11722 -0.0514 0.17998l-0.349 4.17969c0.9697 0.06383 1.9268 0.25553 2.8463 0.57011Z" stroke-width="1"></path>
  <path fill="#fff9bf" d="M4.81944 8.24209c0.75204 -0.64067 1.58645 -1.17788 2.48099 -1.59729l-0.98326 -3.38392c-0.02889 -0.09936 -0.08931 -0.18653 -0.17207 -0.2487 -0.08287 -0.06207 -0.1835 -0.09555 -0.28696 -0.09555h-0.77185c-0.09087 -0.0002 -0.17988 0.02557 -0.2566 0.07418 -0.07672 0.0486 -0.13801 0.1181 -0.17666 0.20028L3.9577 4.67164c-0.04832 0.10317 -0.05818 0.2202 -0.02782 0.33l0.88956 3.24045Z" stroke-width="1"></path>
  <path fill="#fff9bf" d="m11.2597 5.62247 -0.3502 -4.18067c-0.0047 -0.06285 -0.0219 -0.12415 -0.0506 -0.18037 -0.0286 -0.05622 -0.068 -0.10619 -0.1161 -0.14709 -0.0479 -0.04089 -0.1035 -0.07183 -0.1635 -0.09116 -0.0601 -0.01933 -0.1233 -0.026548 -0.1862 -0.02138l-1.90618 0.16457c-0.1261 0.01044 -0.24293 0.07056 -0.32482 0.167 -0.08199 0.09643 -0.1223 0.22136 -0.11225 0.34756l0.36338 4.50959c0.91943 -0.31477 1.87667 -0.50578 2.84647 -0.56805Z" stroke-width="1"></path>
  <path stroke="#191919" stroke-linecap="round" stroke-linejoin="round" d="m20.0336 4.67164 -0.6954 -1.48055c-0.0386 -0.08219 -0.0999 -0.15168 -0.1767 -0.20029 -0.0767 -0.0486 -0.1657 -0.07437 -0.2566 -0.07427h-0.7718c-0.1035 0 -0.2042 0.03357 -0.2869 0.09565 -0.0826 0.06208 -0.1431 0.14933 -0.1721 0.24869l-2.4007 8.26183h-0.1177l0.7872 -9.84184c0.01 -0.126 -0.0302 -0.25084 -0.1119 -0.34727 -0.0817 -0.09643 -0.1983 -0.15656 -0.3242 -0.16729l-1.9062 -0.16457c-0.0628 -0.005363 -0.126 0.00176 -0.1861 0.02089 -0.06 0.01913 -0.1156 0.04998 -0.1637 0.09068 -0.0482 0.0407 -0.0876 0.09047 -0.1164 0.1465 -0.0288 0.05602 -0.0463 0.11722 -0.0513 0.17998l-0.8426 10.08292h-0.4869l-0.8435 -10.08097c-0.0048 -0.06285 -0.022 -0.12415 -0.0507 -0.18037 -0.0286 -0.05622 -0.0681 -0.10619 -0.116 -0.14709 -0.048 -0.04089 -0.1036 -0.07183 -0.1637 -0.09116 -0.06 -0.01933 -0.1232 -0.026548 -0.1861 -0.02138l-1.90621 0.16457c-0.1261 0.01044 -0.24293 0.07056 -0.32482 0.167 -0.08199 0.09643 -0.1223 0.22146 -0.11225 0.34756l0.79284 9.84184h-0.1224L6.31717 3.26087c-0.02889 -0.09936 -0.08931 -0.18652 -0.17207 -0.24869 -0.08287 -0.06208 -0.1835 -0.09555 -0.28696 -0.09555h-0.77185c-0.09087 -0.0002 -0.17988 0.02557 -0.2566 0.07417 -0.07672 0.04861 -0.13801 0.1181 -0.17666 0.20029L3.9577 4.67164c-0.04832 0.10317 -0.05818 0.22019 -0.02782 0.33l1.7924 6.52106 1.735 5.1169h9.11392l1.7006 -5.1169 1.7934 -6.52301c0.0281 -0.10961 0.0168 -0.22576 -0.0316 -0.32805Z" stroke-width="1"></path>
  <path stroke="#191919" stroke-linecap="round" stroke-linejoin="round" d="M11.999 14.4341 10.9095 1.4418c-0.0047 -0.06285 -0.0219 -0.12415 -0.0506 -0.18037 -0.0286 -0.05622 -0.068 -0.10619 -0.1161 -0.14709 -0.0479 -0.04089 -0.1035 -0.07183 -0.1635 -0.09116 -0.0601 -0.01933 -0.1233 -0.026548 -0.1862 -0.02138l-1.90618 0.16457c-0.1261 0.01044 -0.24293 0.07056 -0.32482 0.167 -0.08199 0.09643 -0.1223 0.22136 -0.11225 0.34756L9.03399 13.867" stroke-width="1"></path>
  <path stroke="#191919" stroke-linecap="round" stroke-linejoin="round" d="m11.999 14.4341 1.0846 -12.99234c0.0047 -0.06276 0.022 -0.12396 0.0508 -0.17998 0.0287 -0.05603 0.0683 -0.10571 0.1166 -0.14612 0.0478 -0.04109 0.1033 -0.07222 0.1632 -0.09175 0.0599 -0.01961 0.1231 -0.027032 0.1859 -0.02215l1.9062 0.16261c0.1261 0.01054 0.243 0.07056 0.3249 0.167 0.0818 0.09643 0.1222 0.22146 0.1122 0.34756L14.964 13.8669" stroke-width="1"></path>
  <path fill="#ffef5e" stroke="#191919" stroke-linecap="round" stroke-linejoin="round" d="m18.8236 17.2632 -0.7174 2.8694H5.88194l-0.71739 -2.8694H18.8236Z" stroke-width="1"></path>
  <path fill="#ff808c" stroke="#191919" stroke-linecap="round" stroke-linejoin="round" d="M5.87744 20.1307H18.1055l-0.5356 2.1424c-0.0512 0.2075 -0.1706 0.3919 -0.3389 0.5237 -0.1684 0.1317 -0.3761 0.2033 -0.5898 0.2032H7.3455c-0.21375 0.0001 -0.42135 -0.0715 -0.58972 -0.2032 -0.16827 -0.1318 -0.28764 -0.3162 -0.33898 -0.5237l-0.53936 -2.1424Z" stroke-width="1"></path>
  <path fill="#ff808c" stroke="#191919" stroke-linecap="round" stroke-linejoin="round" d="m20.1148 12.1176 -1.2912 5.1456H5.1645l-1.28066 -5.1456c-0.01981 -0.0704 -0.02254 -0.1444 -0.00771 -0.216 0.01484 -0.0716 0.04666 -0.1385 0.09282 -0.1952 0.045 -0.0575 0.10249 -0.1039 0.16808 -0.1358 0.06568 -0.0318 0.13772 -0.0482 0.21072 -0.0479h2.43893c0.11176 -0.0007 0.22019 0.0383 0.30589 0.1102 0.0856 0.0718 0.14299 0.1717 0.16183 0.2819 0.60251 3.3571 8.8768 3.3571 9.4793 0 0.019 -0.1103 0.0766 -0.2102 0.1624 -0.282 0.0858 -0.0719 0.1943 -0.1108 0.3063 -0.1101h2.4485c0.0729 -0.0007 0.145 0.0153 0.2108 0.0469 0.0659 0.0314 0.1236 0.0775 0.1687 0.1347 0.0453 0.0573 0.0769 0.1241 0.0923 0.1954 0.0153 0.0713 0.0143 0.1452 -0.0032 0.216l-0.0047 0.0019Z" stroke-width="1"></path>
</svg>