<svg xmlns="http://www.w3.org/2000/svg" fill="none" viewBox="0 0 24 24" id="Knives-Set--Streamline-Ultimate">
  <desc>
    Knives Set Streamline Icon: https://streamlinehq.com
  </desc>
  <path fill="#e3e3e3" d="M12.4592 11.7257c0.573 -0.482 1.143 -0.9854 1.7102 -1.5106 0.0473 -0.0436 0.0852 -0.0964 0.1116 -0.155 0.0263 -0.0588 0.0406 -0.12213 0.0418 -0.1864 0.0012 -0.06436 -0.0105 -0.12826 -0.0346 -0.18785 -0.0241 -0.05968 -0.0598 -0.11383 -0.1054 -0.15927l-3.0261 -3.02707 -2.60397 2.63553" stroke-width="1"></path>
  <path stroke="#191919" stroke-linecap="round" stroke-linejoin="round" d="M12.4592 11.7257c0.573 -0.482 1.143 -0.9854 1.7102 -1.5106 0.0473 -0.0436 0.0852 -0.0964 0.1116 -0.155 0.0263 -0.0588 0.0406 -0.12213 0.0418 -0.1864 0.0012 -0.06436 -0.0105 -0.12826 -0.0346 -0.18785 -0.0241 -0.05968 -0.0598 -0.11383 -0.1054 -0.15927l-3.0261 -3.02707 -2.60397 2.63553" stroke-width="1"></path>
  <path fill="#c77f67" d="M18.2479 3.46401c0.2686 -0.26871 0.4195 -0.63307 0.4194 -1.01299 -0.0001 -0.37992 -0.1512 -0.74428 -0.4199 -1.0128 -0.2687 -0.26861 -0.633 -0.41945 -1.0129 -0.41936 -0.38 0.00009 -0.7442 0.15112 -1.0129 0.41983l-5.061 5.061 2.0255 2.02626 5.0618 -5.06194Z" stroke-width="1"></path>
  <path fill="#e3bfb3" d="m16.2216 1.43859 -5.061 5.06101 0.9674 0.96726 6.0608 -6.06649c-0.2699 -0.24772 -0.6249 -0.38207 -0.9913 -0.37495 -0.3662 0.00712 -0.7158 0.15505 -0.9759 0.41317Z" stroke-width="1"></path>
  <path stroke="#191919" stroke-linecap="round" stroke-linejoin="round" d="M18.2479 3.46401c0.2686 -0.26871 0.4195 -0.63307 0.4194 -1.01299 -0.0001 -0.37992 -0.1512 -0.74428 -0.4199 -1.0128 -0.2687 -0.26861 -0.633 -0.41945 -1.0129 -0.41936 -0.38 0.00009 -0.7442 0.15112 -1.0129 0.41983l-5.061 5.061 2.0255 2.02626 5.0618 -5.06194Z" stroke-width="1"></path>
  <path fill="#e3e3e3" d="M16.2789 17.5228c0.7372 -0.6016 1.4687 -1.2413 2.1876 -1.9021 0.0474 -0.0437 0.0852 -0.0965 0.1116 -0.1552 0.0263 -0.0586 0.0406 -0.122 0.0418 -0.1863 0.0012 -0.0643 -0.0105 -0.1282 -0.0346 -0.1878 -0.024 -0.0597 -0.0598 -0.1138 -0.1054 -0.1593l-3.0261 -3.028 -1.5622 1.5632" stroke-width="1"></path>
  <path stroke="#191919" stroke-linecap="round" stroke-linejoin="round" d="M16.2789 17.5228c0.7372 -0.6016 1.4687 -1.2413 2.1876 -1.9021 0.0474 -0.0437 0.0852 -0.0965 0.1116 -0.1552 0.0263 -0.0586 0.0406 -0.122 0.0418 -0.1863 0.0012 -0.0643 -0.0105 -0.1282 -0.0346 -0.1878 -0.024 -0.0597 -0.0598 -0.1138 -0.1054 -0.1593l-3.0261 -3.028 -1.5622 1.5632" stroke-width="1"></path>
  <path fill="#c77f67" d="M22.5454 8.86579c0.1405 -0.13127 0.2532 -0.28951 0.3313 -0.46527 0.0782 -0.17577 0.1201 -0.36549 0.1233 -0.55775 0.0032 -0.19235 -0.0323 -0.38338 -0.1045 -0.56167 -0.0722 -0.1783 -0.1796 -0.3402 -0.3158 -0.47605 -0.1361 -0.13585 -0.2982 -0.24294 -0.4767 -0.3148 -0.1783 -0.07186 -0.3695 -0.10709 -0.5617 -0.10353 -0.1924 0.00356 -0.382 0.04581 -0.5576 0.12433 -0.1757 0.07842 -0.3337 0.19141 -0.4647 0.33232l-5.061 5.06093 2.0254 2.0254 5.062 -5.06391Z" stroke-width="1"></path>
  <path fill="#e3bfb3" d="M21.9131 6.45065c-0.2462 -0.06437 -0.5052 -0.06193 -0.7502 0.00712 -0.2451 0.06896 -0.4673 0.202 -0.6439 0.38535l-5.061 5.06098 1.0122 1.0055 6.0914 -6.09131c-0.1797 -0.17782 -0.4035 -0.30468 -0.6485 -0.36764Z" stroke-width="1"></path>
  <path stroke="#191919" stroke-linecap="round" stroke-linejoin="round" d="M22.5454 8.86579c0.1405 -0.13127 0.2532 -0.28951 0.3313 -0.46527 0.0782 -0.17577 0.1201 -0.36549 0.1233 -0.55775 0.0032 -0.19235 -0.0323 -0.38338 -0.1045 -0.56167 -0.0722 -0.1783 -0.1796 -0.3402 -0.3158 -0.47605 -0.1361 -0.13585 -0.2982 -0.24294 -0.4767 -0.3148 -0.1783 -0.07186 -0.3695 -0.10709 -0.5617 -0.10353 -0.1924 0.00356 -0.382 0.04581 -0.5576 0.12433 -0.1757 0.07842 -0.3337 0.19141 -0.4647 0.33232l-5.061 5.06093 2.0254 2.0254 5.062 -5.06391Z" stroke-width="1"></path>
  <path fill="#ffbc44" d="M1 22.0263c0 0.2532 0.10062 0.4962 0.27967 0.6752 0.17914 0.1791 0.42198 0.2797 0.67523 0.2797h14.292c0.131 0.0003 0.2607 -0.0264 0.3809 -0.0783 0.1202 -0.0519 0.2285 -0.1281 0.318 -0.2237 0.0896 -0.0955 0.1586 -0.2084 0.2025 -0.3318 0.044 -0.1233 0.0623 -0.2545 0.0535 -0.3851 -0.2585 -3.8676 -1.9772 -7.4923 -4.8083 -10.1399C9.56252 9.17477 5.83109 7.70214 1.9549 7.7027c-0.25325 0 -0.49609 0.10062 -0.67523 0.27967C1.10062 8.1615 1 8.40435 1 8.6576v13.3687Z" stroke-width="1"></path>
  <path fill="#ffdda1" d="M1.9549 11.5223c3.36304 -0.0008 6.63239 1.1082 9.301 3.1548 2.6687 2.0465 4.5875 4.9165 5.4589 8.1647 0.1622 -0.0784 0.2961 -0.2048 0.3832 -0.3624 0.0872 -0.1575 0.1235 -0.3382 0.1038 -0.5171 -0.2585 -3.8676 -1.9772 -7.4923 -4.8083 -10.1399C9.56252 9.17477 5.83109 7.70214 1.9549 7.7027c-0.25325 0 -0.49609 0.10062 -0.67523 0.27967C1.10062 8.1615 1 8.40435 1 8.6576v3.8196c0 -0.2532 0.10062 -0.4961 0.27967 -0.6751 0.17914 -0.1791 0.42198 -0.2798 0.67523 -0.2798Z" stroke-width="1"></path>
  <path stroke="#191919" stroke-linecap="round" stroke-linejoin="round" d="M1 22.0263c0 0.2532 0.10062 0.4962 0.27967 0.6752 0.17914 0.1791 0.42198 0.2797 0.67523 0.2797h14.292c0.131 0.0003 0.2607 -0.0264 0.3809 -0.0783 0.1202 -0.0519 0.2285 -0.1281 0.318 -0.2237 0.0896 -0.0955 0.1586 -0.2084 0.2025 -0.3318 0.044 -0.1233 0.0623 -0.2545 0.0535 -0.3851 -0.2585 -3.8676 -1.9772 -7.4923 -4.8083 -10.1399C9.56252 9.17477 5.83109 7.70214 1.9549 7.7027c-0.25325 0 -0.49609 0.10062 -0.67523 0.27967C1.10062 8.1615 1 8.40435 1 8.6576v13.3687Z" stroke-width="1"></path>
  <path stroke="#191919" stroke-linecap="round" stroke-linejoin="round" d="m4.34277 15.8194 3.8196 -3.8197" stroke-width="1"></path>
  <path stroke="#191919" stroke-linecap="round" stroke-linejoin="round" d="m8.63965 20.1164 3.81955 -3.8196" stroke-width="1"></path>
</svg>