<svg xmlns="http://www.w3.org/2000/svg" fill="none" viewBox="0 0 24 24" id="Tools-Kitchen-Scale--Streamline-Ultimate">
  <desc>
    Tools Kitchen Scale Streamline Icon: https://streamlinehq.com
  </desc>
  <path fill="#fff9bf" d="M5.00088 10.9028c0.03008 -0.0977 0.09072 -0.1833 0.17301 -0.2441 0.0823 -0.0607 0.18191 -0.0935 0.28421 -0.0935h13.0833c0.1023 0 0.2019 0.0328 0.2842 0.0935 0.0823 0.0608 0.1429 0.1464 0.173 0.2441l2.9604 9.6217c0.0881 0.2861 0.1077 0.5889 0.0574 0.8841 -0.0504 0.2951 -0.1693 0.5743 -0.3472 0.8151 -0.1779 0.2408 -0.4098 0.4365 -0.6771 0.5713 -0.2673 0.1348 -0.5625 0.205 -0.8619 0.205H3.86932c-0.29945 0.0002 -0.59478 -0.0699 -0.86219 -0.2046 -0.26742 -0.1348 -0.49944 -0.3305 -0.67738 -0.5713 -0.17794 -0.2409 -0.29682 -0.5202 -0.34707 -0.8154 -0.05025 -0.2952 -0.03046 -0.5981 0.05777 -0.8842l2.96043 -9.6217Z" stroke-width="1"></path>
  <path fill="#ffef5e" d="M21.5273 19.1213c-0.1768 0.1953 -0.3922 0.3517 -0.6326 0.4594 -0.2404 0.1077 -0.5005 0.1643 -0.7639 0.1662H3.86996c-0.26357 -0.0017 -0.52391 -0.0582 -0.76448 -0.1659 -0.24058 -0.1077 -0.45614 -0.2642 -0.633 -0.4597l-0.43139 1.4033c-0.08802 0.2861 -0.10765 0.5889 -0.05731 0.884 0.05034 0.2952 0.16924 0.5744 0.34714 0.8151 0.17789 0.2408 0.40982 0.4365 0.67713 0.5714 0.26731 0.1348 0.56252 0.205 0.86191 0.2049H20.1308c0.2994 0.0001 0.5946 -0.0701 0.8619 -0.2049 0.2673 -0.1349 0.4993 -0.3306 0.6772 -0.5714 0.1779 -0.2407 0.2968 -0.5199 0.3471 -0.8151 0.0503 -0.2951 0.0307 -0.5979 -0.0573 -0.884l-0.4324 -1.4033Z" stroke-width="1"></path>
  <path stroke="#191919" stroke-linecap="round" stroke-linejoin="round" d="M5.00088 10.9028c0.03008 -0.0977 0.09072 -0.1833 0.17301 -0.2441 0.0823 -0.0607 0.18191 -0.0935 0.28421 -0.0935h13.0833c0.1023 0 0.2019 0.0328 0.2842 0.0935 0.0823 0.0608 0.1429 0.1464 0.173 0.2441l2.9604 9.6217c0.0881 0.2861 0.1077 0.5889 0.0574 0.8841 -0.0504 0.2951 -0.1693 0.5743 -0.3472 0.8151 -0.1779 0.2408 -0.4098 0.4365 -0.6771 0.5713 -0.2673 0.1348 -0.5625 0.205 -0.8619 0.205H3.86932c-0.29945 0.0002 -0.59478 -0.0699 -0.86219 -0.2046 -0.26742 -0.1348 -0.49944 -0.3305 -0.67738 -0.5713 -0.17794 -0.2409 -0.29682 -0.5202 -0.34707 -0.8154 -0.05025 -0.2952 -0.03046 -0.5981 0.05777 -0.8842l2.96043 -9.6217Z" stroke-width="1"></path>
  <path stroke="#191919" stroke-linecap="round" stroke-linejoin="round" d="M8.17383 10.5652V7.45654" stroke-width="1"></path>
  <path stroke="#191919" stroke-linecap="round" stroke-linejoin="round" d="M15.8257 10.5652V7.45654" stroke-width="1"></path>
  <path fill="#ffffff" d="M11.9997 21.087c1.1415 0 2.2364 -0.4535 3.0436 -1.2608 0.8072 -0.8072 1.2607 -1.902 1.2607 -3.0436 0 -1.1416 -0.4535 -2.2364 -1.2607 -3.0436 -0.8072 -0.8072 -1.9021 -1.2607 -3.0436 -1.2607 -1.1416 0 -2.23645 0.4535 -3.04367 1.2607 -0.80723 0.8072 -1.26072 1.902 -1.26072 3.0436 0 1.1416 0.45349 2.2364 1.26072 3.0436 0.80722 0.8073 1.90207 1.2608 3.04367 1.2608Z" stroke-width="1"></path>
  <path fill="#e3e3e3" d="M12.0002 14.6687c0.9487 0.002 1.8699 0.318 2.6201 0.8987 0.7501 0.5808 1.2868 1.3935 1.5264 2.3114 0.268 -0.9645 0.1915 -1.9922 -0.2163 -2.9063 -0.4078 -0.9142 -1.1213 -1.6577 -2.018 -2.1027 -0.8966 -0.445 -1.9203 -0.5636 -2.8949 -0.3355 -0.9747 0.2281 -1.83941 0.7887 -2.44546 1.5854 -0.40138 0.5288 -0.675 1.1433 -0.79945 1.7954 -0.12445 0.6521 -0.09637 1.3242 0.08206 1.9637 0.23925 -0.9179 0.77578 -1.7307 1.52577 -2.3115 0.74998 -0.5807 1.67118 -0.8967 2.61978 -0.8986Z" stroke-width="1"></path>
  <path stroke="#191919" stroke-linecap="round" stroke-linejoin="round" d="M11.9997 21.087c1.1415 0 2.2364 -0.4535 3.0436 -1.2608 0.8072 -0.8072 1.2607 -1.902 1.2607 -3.0436 0 -1.1416 -0.4535 -2.2364 -1.2607 -3.0436 -0.8072 -0.8072 -1.9021 -1.2607 -3.0436 -1.2607 -1.1416 0 -2.23645 0.4535 -3.04367 1.2607 -0.80723 0.8072 -1.26072 1.902 -1.26072 3.0436 0 1.1416 0.45349 2.2364 1.26072 3.0436 0.80722 0.8073 1.90207 1.2608 3.04367 1.2608Z" stroke-width="1"></path>
  <path fill="#e3e3e3" d="M2.72135 1c-0.07862 0.00001 -0.15602 0.0194 -0.22535 0.05646 -0.06933 0.03705 -0.12846 0.09063 -0.17216 0.15598 -0.04369 0.06535 -0.0706 0.14047 -0.07835 0.2187 -0.00774 0.07823 0.00391 0.15716 0.03394 0.22982 0.79285 1.92633 2.13999 3.57376 3.87054 4.73331 1.73055 1.15954 3.76652 1.77895 5.84963 1.77964 2.0831 -0.00139 4.1189 -0.62106 5.8494 -1.78051 1.7306 -1.15945 3.0781 -2.80649 3.8717 -4.73244 0.0301 -0.07273 0.0417 -0.15175 0.0339 -0.23006 -0.0078 -0.07831 -0.0347 -0.15348 -0.0786 -0.21886 -0.0438 -0.06537 -0.103 -0.11893 -0.1725 -0.15592 -0.0694 -0.03699 -0.147 -0.056264 -0.2256 -0.05612H2.72135Z" stroke-width="1"></path>
  <path fill="#ffffff" d="M11.9996 1H2.72135c-0.07862 0.00001 -0.15602 0.0194 -0.22535 0.05646 -0.06933 0.03705 -0.12846 0.09063 -0.17216 0.15598 -0.04369 0.06535 -0.0706 0.14047 -0.07835 0.2187 -0.00774 0.07823 0.00391 0.15716 0.03394 0.22982 0.79285 1.92633 2.13999 3.57376 3.87054 4.7333 1.73055 1.15955 3.76652 1.77896 5.84963 1.77965V1Z" stroke-width="1"></path>
  <path stroke="#191919" stroke-linecap="round" stroke-linejoin="round" d="M2.72135 1c-0.07862 0.00001 -0.15602 0.0194 -0.22535 0.05646 -0.06933 0.03705 -0.12846 0.09063 -0.17216 0.15598 -0.04369 0.06535 -0.0706 0.14047 -0.07835 0.2187 -0.00774 0.07823 0.00391 0.15716 0.03394 0.22982 0.79285 1.92633 2.13999 3.57376 3.87054 4.73331 1.73055 1.15954 3.76652 1.77895 5.84963 1.77964 2.0831 -0.00139 4.1189 -0.62106 5.8494 -1.78051 1.7306 -1.15945 3.0781 -2.80649 3.8717 -4.73244 0.0301 -0.07273 0.0417 -0.15175 0.0339 -0.23006 -0.0078 -0.07831 -0.0347 -0.15348 -0.0786 -0.21886 -0.0438 -0.06537 -0.103 -0.11893 -0.1725 -0.15592 -0.0694 -0.03699 -0.147 -0.056264 -0.2256 -0.05612H2.72135Z" stroke-width="1"></path>
  <path stroke="#191919" stroke-linecap="round" stroke-linejoin="round" d="M12 16.7826v-2.3913" stroke-width="1"></path>
</svg>