<svg xmlns="http://www.w3.org/2000/svg" fill="none" viewBox="0 0 48 48" id="Ai-Technology-Spark--Streamline-Plump">
  <desc>
    Ai Technology Spark Streamline Icon: https://streamlinehq.com
  </desc>
  <g id="ai-technology-spark--lightbulb-idea-bright-lighting-artificial-intelligence-ai">
    <path id="Subtract" stroke="#000000" stroke-linecap="round" stroke-linejoin="round" d="M11.488 39.67c0.203 1.31 0.414 2.502 0.59 3.444 0.25 1.325 1.192 2.389 2.525 2.59 1.046 0.159 2.499 0.296 4.397 0.296 1.805 0 3.288 -0.124 4.417 -0.272 1.584 -0.208 2.694 -1.526 2.866 -3.114l0.321 -2.962" stroke-width="1"></path>
    <path id="Star 12" stroke="#000000" d="M35.623 2.604a1 1 0 0 1 1.754 0l1.992 3.642a6 6 0 0 0 2.385 2.385l3.642 1.992a1 1 0 0 1 0 1.754l-3.642 1.992a6 6 0 0 0 -2.385 2.385l-1.992 3.642a1 1 0 0 1 -1.754 0l-1.992 -3.642a6 6 0 0 0 -2.385 -2.385l-3.642 -1.992a1 1 0 0 1 0 -1.754l3.642 -1.992a6 6 0 0 0 2.385 -2.385l1.992 -3.642Z" stroke-width="1"></path>
    <path id="Union" stroke="#000000" stroke-linecap="round" stroke-linejoin="round" d="M25.5 5.287A16.95 16.95 0 0 0 19 4C9.611 4 2 11.611 2 21c0 5.433 2.549 10.271 6.516 13.383a66.7 66.7 0 0 0 0.971 3.48c0.307 0.998 1.136 1.723 2.175 1.832C13.055 39.84 15.404 40 19 40s5.945 -0.16 7.338 -0.305c1.039 -0.109 1.868 -0.834 2.174 -1.833 0.287 -0.933 0.65 -2.18 0.972 -3.479a17.043 17.043 0 0 0 5.524 -7.646" stroke-width="1"></path>
  </g>
</svg>