<svg xmlns="http://www.w3.org/2000/svg" fill="none" viewBox="0 0 48 48" id="Gold--Streamline-Plump-Remix">
  <desc>
    Gold Streamline Icon: https://streamlinehq.com
  </desc>
  <g id="gold--gold-money-payment-bars-finance-wealth-bullion-jewelry">
    <path id="Union" fill="#000000" fill-rule="evenodd" d="M19.1906 4.5207c1.2664 -0.1586 3.0249 -0.327 4.8075 -0.327s3.5411 0.1684 4.8075 0.327c1.8846 0.236 3.5539 1.4551 4.2318 3.3331 0.7112 1.9707 1.7166 5.3982 2.332 10.2806 0.3233 2.5655 -1.4985 4.9065 -4.1273 5.1385 -1.6687 0.1473 -4.0834 0.2868 -7.244 0.2868 -3.1607 0 -5.5754 -0.1395 -7.244 -0.2868 -2.6288 -0.232 -4.4505 -2.573 -4.1272 -5.1385 0.6153 -4.8824 1.6207 -8.3099 2.332 -10.2806 0.6778 -1.878 2.3471 -3.0971 4.2317 -3.3331Zm-7.3022 23.8808c-1.5563 0 -3.1366 0.1487 -4.3153 0.2963 -0.5097 0.0638 -0.8605 0.3664 -0.998 0.7474 -0.6175 1.7109 -1.551 4.854 -2.1279 9.4311 -0.0482 0.3826 0.1986 0.6669 0.5455 0.6975 1.5533 0.1371 3.8518 0.2714 6.8957 0.2714s5.3423 -0.1343 6.8957 -0.2714c0.3469 -0.0306 0.5937 -0.3149 0.5455 -0.6975 -0.5769 -4.5771 -1.5104 -7.7202 -2.1279 -9.4311 -0.1375 -0.381 -0.4883 -0.6836 -0.998 -0.7474 -1.1788 -0.1476 -2.7591 -0.2963 -4.3153 -0.2963Zm-4.8075 -3.6342c1.2664 -0.1585 3.0249 -0.327 4.8075 -0.327s3.5411 0.1685 4.8074 0.327c1.8846 0.236 3.554 1.4551 4.2318 3.3332 0.7112 1.9707 1.7167 5.3982 2.332 10.2806 0.3233 2.5655 -1.4984 4.9064 -4.1272 5.1384 -1.6687 0.1474 -4.0835 0.2868 -7.244 0.2868 -3.1606 0 -5.5754 -0.1394 -7.244 -0.2868 -2.6288 -0.232 -4.4506 -2.5729 -4.1273 -5.1384 0.6154 -4.8824 1.6208 -8.3099 2.332 -10.2806 0.6778 -1.878 2.3472 -3.0972 4.2318 -3.3332Zm29.0307 3.6342c-1.5562 0 -3.1365 0.1487 -4.3153 0.2963 -0.5097 0.0638 -0.8604 0.3664 -0.998 0.7474 -0.6174 1.7109 -1.5509 4.854 -2.1278 9.4311 -0.0482 0.3826 0.1986 0.6669 0.5455 0.6975 1.5532 0.1371 3.8518 0.2714 6.8956 0.2714 3.0439 0 5.3425 -0.1343 6.8957 -0.2714 0.3469 -0.0306 0.5937 -0.3149 0.5455 -0.6975 -0.5768 -4.5771 -1.5104 -7.7202 -2.1278 -9.4311 -0.1376 -0.381 -0.4883 -0.6836 -0.998 -0.7474 -1.1789 -0.1476 -2.7592 -0.2963 -4.3154 -0.2963Zm-4.8074 -3.6342c1.2664 -0.1585 3.0249 -0.327 4.8074 -0.327 1.7826 0 3.5412 0.1685 4.8075 0.327 1.8846 0.236 3.554 1.4551 4.2318 3.3332 0.7112 1.9707 1.7167 5.3982 2.3319 10.2806 0.3235 2.5655 -1.4984 4.9064 -4.1272 5.1384 -1.6686 0.1474 -4.0833 0.2868 -7.244 0.2868 -3.1606 0 -5.5753 -0.1394 -7.2439 -0.2868 -2.6288 -0.232 -4.4507 -2.5729 -4.1273 -5.1384 0.6153 -4.8824 1.6208 -8.3099 2.332 -10.2806 0.6778 -1.878 2.3471 -3.0972 4.2318 -3.3332Z" clip-rule="evenodd" stroke-width="1"></path>
  </g>
</svg>