<svg xmlns="http://www.w3.org/2000/svg" viewBox="0 0 14 14">
  <g>
    <path d="M4.8,14H1.7A1.7,1.7,0,0,1,0,12.3V9.2A1.7,1.7,0,0,1,1.7,7.5H4.8A1.7,1.7,0,0,1,6.5,9.2v3.1A1.7,1.7,0,0,1,4.8,14ZM1.7,9a.2.2,0,0,0-.2.2v3.1a.2.2,0,0,0,.2.2H4.8a.2.2,0,0,0,.2-.2V9.2A.2.2,0,0,0,4.8,9Z" style="fill: #000001"/>
    <path d="M12.3,14H9.2a1.7,1.7,0,0,1-1.7-1.7V9.2A1.7,1.7,0,0,1,9.2,7.5h3.1A1.7,1.7,0,0,1,14,9.2v3.1A1.7,1.7,0,0,1,12.3,14ZM9.2,9a.2.2,0,0,0-.2.2v3.1a.2.2,0,0,0,.2.2h3.1a.2.2,0,0,0,.2-.2V9.2a.2.2,0,0,0-.2-.2Z" style="fill: #000001"/>
    <path d="M4.8,6.5H1.7A1.7,1.7,0,0,1,0,4.8V1.7A1.7,1.7,0,0,1,1.7,0H4.8A1.7,1.7,0,0,1,6.5,1.7V4.8A1.7,1.7,0,0,1,4.8,6.5Zm-3.1-5a.2.2,0,0,0-.2.2V4.8a.2.2,0,0,0,.2.2H4.8A.2.2,0,0,0,5,4.8V1.7a.2.2,0,0,0-.2-.2Z" style="fill: #000001"/>
    <path d="M12.3,6.5H9.2A1.7,1.7,0,0,1,7.5,4.8V1.7A1.7,1.7,0,0,1,9.2,0h3.1A1.7,1.7,0,0,1,14,1.7V4.8A1.7,1.7,0,0,1,12.3,6.5Zm-3.1-5a.2.2,0,0,0-.2.2V4.8a.2.2,0,0,0,.2.2h3.1a.2.2,0,0,0,.2-.2V1.7a.2.2,0,0,0-.2-.2Z" style="fill: #000001"/>
  </g>
</svg>
