<svg xmlns="http://www.w3.org/2000/svg" viewBox="0 0 14 14">
  <g>
    <path d="M5,0H1.25A1.25,1.25,0,0,0,0,1.25V5A1.25,1.25,0,0,0,1.25,6.25H5A1.25,1.25,0,0,0,6.25,5V1.25A1.25,1.25,0,0,0,5,0ZM4.75,3.75A.25.25,0,0,1,4.5,4H1.75a.25.25,0,0,1-.25-.25v-2a.25.25,0,0,1,.25-.25H4.5a.25.25,0,0,1,.25.25Z" style="fill: #000001"/>
    <path d="M12.75,0H9A1.25,1.25,0,0,0,7.75,1.25V5A1.25,1.25,0,0,0,9,6.25h3.75A1.25,1.25,0,0,0,14,5V1.25A1.25,1.25,0,0,0,12.75,0ZM12.5,3.75a.25.25,0,0,1-.25.25H9.5a.25.25,0,0,1-.25-.25v-2A.25.25,0,0,1,9.5,1.5h2.75a.25.25,0,0,1,.25.25Z" style="fill: #000001"/>
    <path d="M5,7.75H1.25A1.25,1.25,0,0,0,0,9v3.75A1.25,1.25,0,0,0,1.25,14H5a1.25,1.25,0,0,0,1.25-1.25V9A1.25,1.25,0,0,0,5,7.75ZM4.75,11.5a.25.25,0,0,1-.25.25H1.75a.25.25,0,0,1-.25-.25v-2a.25.25,0,0,1,.25-.25H4.5a.25.25,0,0,1,.25.25Z" style="fill: #000001"/>
    <path d="M12.75,7.75H9A1.25,1.25,0,0,0,7.75,9v3.75A1.25,1.25,0,0,0,9,14h3.75A1.25,1.25,0,0,0,14,12.75V9A1.25,1.25,0,0,0,12.75,7.75ZM12.5,11.5a.25.25,0,0,1-.25.25H9.5a.25.25,0,0,1-.25-.25v-2a.25.25,0,0,1,.25-.25h2.75a.25.25,0,0,1,.25.25Z" style="fill: #000001"/>
  </g>
</svg>
