<svg xmlns="http://www.w3.org/2000/svg" fill="none" viewBox="0 0 24 24" id="Database-1--Streamline-Ultimate">
  <desc>
    Database 1 Streamline Icon: https://streamlinehq.com
  </desc>
  <path stroke="#000000" stroke-linecap="round" stroke-linejoin="round" d="M12 15.751v7.5" stroke-width="1"></path>
  <path stroke="#000000" stroke-linecap="round" stroke-linejoin="round" d="M4.5 23.251h15" stroke-width="1"></path>
  <path stroke="#000000" d="M1.125 23.25c-0.207107 0 -0.375 -0.1679 -0.375 -0.375s0.167893 -0.375 0.375 -0.375" stroke-width="1"></path>
  <path stroke="#000000" d="M1.125 23.25c0.20711 0 0.375 -0.1679 0.375 -0.375s-0.16789 -0.375 -0.375 -0.375" stroke-width="1"></path>
  <path stroke="#000000" d="M22.875 23.25c-0.2071 0 -0.375 -0.1679 -0.375 -0.375s0.1679 -0.375 0.375 -0.375" stroke-width="1"></path>
  <path stroke="#000000" d="M22.875 23.25c0.2071 0 0.375 -0.1679 0.375 -0.375s-0.1679 -0.375 -0.375 -0.375" stroke-width="1"></path>
  <path stroke="#000000" stroke-linecap="round" stroke-linejoin="round" d="M12 6.75098c3.7279 0 6.75 -1.34315 6.75 -3 0 -1.65686 -3.0221 -3.000003 -6.75 -3.000003 -3.72792 0 -6.75 1.343143 -6.75 3.000003 0 1.65685 3.02208 3 6.75 3Z" stroke-width="1"></path>
  <path stroke="#000000" stroke-linecap="round" stroke-linejoin="round" d="M5.25 3.75098v4.5c0 1.657 3.022 3.00002 6.75 3.00002s6.75 -1.34302 6.75 -3.00002v-4.5" stroke-width="1"></path>
  <path stroke="#000000" stroke-linecap="round" stroke-linejoin="round" d="M5.25 8.25098V12.751c0 1.657 3.022 3 6.75 3s6.75 -1.343 6.75 -3V8.25098" stroke-width="1"></path>
</svg>