<svg xmlns="http://www.w3.org/2000/svg" fill="none" viewBox="0 0 24 24" id="Shopping-Basket-Remove--Streamline-Sharp">
  <desc>
    Shopping Basket Remove Streamline Icon: https://streamlinehq.com
  </desc>
  <g id="shopping-basket-remove--shopping-basket">
    <path id="Union" fill="#2859c5" fill-rule="evenodd" d="M15.5 4.5 12 1 8.5 4.5v1H11V12h2V5.5h2.5v-1ZM2.07 6.425l-0.495 -0.868 1.736 -0.993 0.496 0.869L6.44 10.04l0.496 0.868L5.2 11.9l-0.497 -0.868 -2.632 -4.607Zm19.86 0 0.495 -0.868 -1.736 -0.993 -0.496 0.869 -2.633 4.607 -0.496 0.868 1.737 0.992 0.496 -0.868 2.632 -4.607Z" clip-rule="evenodd" stroke-width="1"></path>
    <path id="Subtract" fill="#8fbffa" fill-rule="evenodd" d="M9.5 10.25H1.06l2.841 12.5H20.1l2.84 -12.5H14.5v3.25h-5v-3.25Z" clip-rule="evenodd" stroke-width="1"></path>
    <path id="Union_2" fill="#2859c5" fill-rule="evenodd" d="M8.25 15v4h1.5v-4h-1.5Zm6 0v4h1.5v-4h-1.5Z" clip-rule="evenodd" stroke-width="1"></path>
  </g>
</svg>