<svg xmlns="http://www.w3.org/2000/svg" fill="none" viewBox="0 0 24 24" id="Target-3--Streamline-Sharp">
  <desc>
    Target 3 Streamline Icon: https://streamlinehq.com
  </desc>
  <g id="target-3--shop-bullseye-shooting-target">
    <path id="Union" fill="#8fbffa" fill-rule="evenodd" d="M3.05539 11C3.51642 6.82848 6.82855 3.5162 11 3.05496V6h2V3.05491c4.1717 0.46106 7.484 3.77342 7.9451 7.94509H18v2h2.945c-0.4613 4.1714 -3.7735 7.4835 -7.945 7.9446V18h-2v2.9445C6.82872 20.4833 3.5167 17.1713 3.05545 13H6v-2H3.05539Zm-2.0549 0.9997C1.00049 5.92475 5.92524 1 12.0002 1 18.0752 1 23 5.92475 23 11.9997c0 6.075 -4.9248 10.9998 -10.9998 10.9998 -6.07496 0 -10.99971 -4.9248 -10.99971 -10.9998Z" clip-rule="evenodd" stroke-width="1"></path>
    <path id="Union_2" fill="#2859c5" fill-rule="evenodd" d="M11 13v2h2v-2h2v-2l-2 0V9h-2v2l-2 0v2h2Z" clip-rule="evenodd" stroke-width="1"></path>
  </g>
</svg>