<svg xmlns="http://www.w3.org/2000/svg" fill="none" viewBox="0 0 14 14" id="Business-Idea-Money--Streamline-Core">
  <desc>
    Business Idea Money Streamline Icon: https://streamlinehq.com
  </desc>
  <g id="business-idea-money">
    <path id="Vector 2494" stroke="#000000" stroke-linecap="round" stroke-linejoin="round" d="M8.2764 3.97868c-0.0439 -0.12421 -0.11164 -0.23715 -0.19773 -0.33333 -0.1831 -0.20459 -0.4492 -0.33334 -0.74537 -0.33334h-0.77404c-0.49299 0 -0.89263 0.39965 -0.89263 0.89264 0 0.41948 0.29208 0.78237 0.70188 0.87202l1.17849 0.25779c0.45908 0.10043 0.78631 0.50726 0.78631 0.9772 0 0.55229 -0.44772 1.00037 -1.00001 1.00037h-0.66667c-0.43541 0 -0.80582 -0.27827 -0.9431 -0.66667" stroke-width="1"></path>
    <path id="Vector 2495" stroke="#000000" stroke-linecap="round" stroke-linejoin="round" d="M7 3.31202V2.31201" stroke-width="1"></path>
    <path id="Vector 2496" stroke="#000000" stroke-linecap="round" stroke-linejoin="round" d="M7 8.31202V7.31201" stroke-width="1"></path>
    <path id="Vector" stroke="#000000" stroke-linecap="round" stroke-linejoin="round" d="M11.4999 5.03108c0.0055 -0.80324 -0.204 -1.59332 -0.6069 -2.28823 -0.4029 -0.6949 -0.98449 -1.26929 -1.68434 -1.66354S7.71619 0.485325 6.91309 0.50084c-0.80311 0.015514 -1.58743 0.245713 -2.27153 0.6667 -0.6841 0.42098 -1.24304 1.01741 -1.61881 1.72735 -0.37576 0.70995 -0.55465 1.50753 -0.51808 2.30996 0.03656 0.80242 0.28724 1.58043 0.72602 2.25326s1.04965 1.21594 1.7692 1.57297v1.50002c0 0.1326 0.05268 0.2598 0.14645 0.3535 0.09377 0.0938 0.22095 0.1465 0.35355 0.1465h3c0.13261 0 0.25979 -0.0527 0.35356 -0.1465 0.09377 -0.0937 0.14644 -0.2209 0.14644 -0.3535V9.03108c0.74748 -0.36828 1.37741 -0.93772 1.81911 -1.64433 0.4416 -0.70662 0.6774 -1.52241 0.6809 -2.35567v0Z" stroke-width="1"></path>
    <path id="Vector_2" stroke="#000000" stroke-linecap="round" stroke-linejoin="round" d="M4.99988 13.5h4" stroke-width="1"></path>
  </g>
</svg>