<svg xmlns="http://www.w3.org/2000/svg" fill="none" viewBox="0 0 14 14" id="Discount-Percent-Fire--Streamline-Core">
  <desc>
    Discount Percent Fire Streamline Icon: https://streamlinehq.com
  </desc>
  <g id="discount-percent-fire--shop-shops-stores-discount-coupon-hot-trending">
    <path id="Vector 2217" stroke="#000000" stroke-linecap="round" stroke-linejoin="round" d="M12.2473 8.46235c0 -5.00872 -4.42327 -7.32599 -6.50665 -7.8686 0.77962 1.94966 0.73723 3.39292 -0.26918 5.17149 -0.16294 0.28794 -0.55914 0.31653 -0.77794 0.06837L3.41326 4.38159C0.0645322 7.9399 1.99246 13.6634 7.29511 13.3973c4.05709 -0.2505 4.95219 -2.9525 4.95219 -4.93495Z" stroke-width="1"></path>
    <path id="Vector" stroke="#000000" stroke-linecap="round" stroke-linejoin="round" d="m5.66748 10.9237 3.28333 -3.28332" stroke-width="1"></path>
    <g id="Group 4470">
      <path id="Ellipse 1" stroke="#000000" stroke-linecap="round" stroke-linejoin="round" d="M6.06519 8.11768c-0.13808 0 -0.25 -0.11193 -0.25 -0.25 0 -0.13808 0.11192 -0.25 0.25 -0.25" stroke-width="1"></path>
      <path id="Ellipse 2" stroke="#000000" stroke-linecap="round" stroke-linejoin="round" d="M6.06519 8.11768c0.13807 0 0.25 -0.11193 0.25 -0.25 0 -0.13808 -0.11193 -0.25 -0.25 -0.25" stroke-width="1"></path>
    </g>
    <g id="Group 4471">
      <path id="Ellipse 1_2" stroke="#000000" stroke-linecap="round" stroke-linejoin="round" d="M8.72412 10.9468c-0.13807 0 -0.25 -0.112 -0.25 -0.25 0 -0.1381 0.11193 -0.25 0.25 -0.25" stroke-width="1"></path>
      <path id="Ellipse 2_2" stroke="#000000" stroke-linecap="round" stroke-linejoin="round" d="M8.72412 10.9468c0.13807 0 0.25 -0.112 0.25 -0.25 0 -0.1381 -0.11193 -0.25 -0.25 -0.25" stroke-width="1"></path>
    </g>
  </g>
</svg>