<svg xmlns="http://www.w3.org/2000/svg" fill="none" viewBox="0 0 14 14" id="Justice-Scale-2--Streamline-Core">
  <desc>
    Justice Scale 2 Streamline Icon: https://streamlinehq.com
  </desc>
  <g id="justice-scale-2--office-work-scale-justice-unequal-company-arbitration-unbalance-court">
    <path id="Vector" stroke="#000000" stroke-linecap="round" stroke-linejoin="round" d="M5.5 11.0001 3 4.82007 0.5 11.0001m5 0c0 0.663 -0.26339 1.2989 -0.73223 1.7677 -0.46884 0.4689 -1.10473 0.7323 -1.76777 0.7323 -0.66304 0 -1.29893 -0.2634 -1.76777 -0.7323C0.763392 12.299 0.5 11.6631 0.5 11.0001m5 0h-5" stroke-width="1"></path>
    <path id="Vector_2" stroke="#000000" stroke-linecap="round" stroke-linejoin="round" d="m13.5 6.99993 -2.5 -5.82 -2.5 5.82m5 0c0 0.66304 -0.2634 1.29893 -0.7322 1.76777 -0.4689 0.46884 -1.1048 0.73223 -1.7678 0.73223s-1.29893 -0.26339 -1.76777 -0.73223C8.76339 8.29886 8.5 7.66297 8.5 6.99993m5 0h-5" stroke-width="1"></path>
    <path id="Vector_3" stroke="#000000" stroke-linecap="round" stroke-linejoin="round" d="m1.5 5.5 11 -5" stroke-width="1"></path>
    <path id="Vector_4" stroke="#000000" stroke-linecap="round" stroke-linejoin="round" d="M7 3V0.5" stroke-width="1"></path>
  </g>
</svg>