<svg xmlns="http://www.w3.org/2000/svg" fill="none" viewBox="0 0 14 14" id="Receipt--Streamline-Core">
  <desc>
    Receipt Streamline Icon: https://streamlinehq.com
  </desc>
  <g id="receipt--shop-shopping-pay-payment-store-cash-bill-receipt">
    <path id="Vector 3" stroke="#000000" stroke-linecap="round" stroke-linejoin="round" d="M7.20185 4.72238c-0.05853 -0.1656 -0.14885 -0.3162 -0.26363 -0.44444 -0.24415 -0.27278 -0.59894 -0.44444 -0.99383 -0.44444H4.91235c-0.65732 0 -1.19018 0.53286 -1.19018 1.19017 0 0.55931 0.38945 1.04316 0.93584 1.16269l1.57131 0.34372c0.61211 0.1339 1.0484 0.67634 1.0484 1.30293 0 0.73638 -0.59695 1.33382 -1.33333 1.33382H5.0555c-0.58054 0 -1.07442 -0.37103 -1.25746 -0.88889" stroke-width="1"></path>
    <path id="Vector 2489" stroke="#000000" stroke-linecap="round" stroke-linejoin="round" d="M5.5 3.83333V2.5" stroke-width="1"></path>
    <path id="Vector 2490" stroke="#000000" stroke-linecap="round" stroke-linejoin="round" d="M5.5 10.5001V9.16675" stroke-width="1"></path>
    <path id="Vector" stroke="#000000" stroke-linecap="round" stroke-linejoin="round" d="M12 0.5H2.5c-0.53043 0 -1.03914 0.210714 -1.41421 0.58579C0.710714 1.46086 0.5 1.96957 0.5 2.5v11L3 12l2.5 1.5L8 12l2.5 1.5V2c0 -0.39782 0.158 -0.77936 0.4393 -1.06066C11.2206 0.658035 11.6022 0.5 12 0.5c0.3978 0 0.7794 0.158035 1.0607 0.43934 0.2813 0.2813 0.4393 0.66284 0.4393 1.06066v3.5h-3" stroke-width="1"></path>
  </g>
</svg>