<svg xmlns="http://www.w3.org/2000/svg" fill="none" viewBox="0 0 14 14"><g id="safe-vault--saving-combo-payment-safe-combination-finance"><path id="Vector" stroke="#3e3e3e" stroke-linecap="round" stroke-linejoin="round" d="M12.5.5h-11a1 1 0 0 0-1 1V11a1 1 0 0 0 1 1h11a1 1 0 0 0 1-1V1.5a1 1 0 0 0-1-1Z"></path><path id="Vector_2" stroke="#3e3e3e" stroke-linecap="round" stroke-linejoin="round" d="M8.5 8a1.75 1.75 0 1 0 0-3.5 1.75 1.75 0 0 0 0 3.5Z"></path><path id="Vector_3" stroke="#3e3e3e" stroke-linecap="round" stroke-linejoin="round" d="M8.5 3.25V4.5"></path><path id="Vector_4" stroke="#3e3e3e" stroke-linecap="round" stroke-linejoin="round" d="M8.5 8v1.25"></path><path id="Vector_5" stroke="#3e3e3e" stroke-linecap="round" stroke-linejoin="round" d="M11.5 6.25h-1.25"></path><path id="Vector_6" stroke="#3e3e3e" stroke-linecap="round" stroke-linejoin="round" d="M6.75 6.25H5.5"></path><path id="Vector_7" stroke="#3e3e3e" stroke-linecap="round" stroke-linejoin="round" d="m10.62 4.13-.88.88"></path><path id="Vector_8" stroke="#3e3e3e" stroke-linecap="round" stroke-linejoin="round" d="m7.26 7.49-.88.88"></path><path id="Vector_9" stroke="#3e3e3e" stroke-linecap="round" stroke-linejoin="round" d="m10.62 8.37-.88-.88"></path><path id="Vector_10" stroke="#3e3e3e" stroke-linecap="round" stroke-linejoin="round" d="m7.26 5.01-.88-.88"></path><path id="Vector_11" stroke="#3e3e3e" stroke-linecap="round" stroke-linejoin="round" d="M3 4.5V8"></path><path id="Vector_12" stroke="#3e3e3e" stroke-linecap="round" stroke-linejoin="round" d="M2 12v1.5"></path><path id="Vector_13" stroke="#3e3e3e" stroke-linecap="round" stroke-linejoin="round" d="M11.5 12v1.5"></path></g></svg>