<svg xmlns="http://www.w3.org/2000/svg" fill="none" viewBox="0 0 24 24" id="3d-Rotate-Y-Axis--Streamline-Sharp">
  <desc>
    3d Rotate Y Axis Streamline Icon: https://streamlinehq.com
  </desc>
  <g id="3d-rotate-y-axis">
    <path id="Union" fill="#000000" fill-rule="evenodd" d="M11.0001 23h2v-5.0235c2.4947 -0.1179 4.7732 -0.674 6.5182 -1.5465 1.916 -0.958 3.4818 -2.4664 3.4818 -4.43 0 -1.316 -0.7183 -2.43782 -1.7323 -3.29793 -0.8299 -0.70391 -1.9106 -1.2832 -3.1435 -1.72165l0.5235 -1.95396 -0.9659 -0.25882 -2.7083 2.38014 1.1554 3.41542 0.9659 0.2588 0.5098 -1.90253c0.9916 0.36784 1.7937 0.81951 2.3694 1.30783 0.7387 0.6266 1.026 1.2381 1.026 1.7727 0 0.7979 -0.6728 1.7895 -2.3762 2.6411 -1.4327 0.7164 -3.3952 1.2165 -5.6238 1.333l0 -14.9741h-2l0 22Zm-7.415 -12.342C3.16957 11.1335 3 11.5849 3 12c0 0.4151 0.16957 0.8665 0.5851 1.342l-1.50602 1.316C1.42422 13.9086 1 13.0071 1 12c0 -1.0071 0.42422 -1.9086 1.07908 -2.65801L3.5851 10.658Zm1.85509 -1.33081c0.77977 -0.38221 1.71684 -0.70342 2.77329 -0.93422l-0.42685 -1.95391c-1.18847 0.25963 -2.28146 0.62894 -3.2267 1.09226l0.88026 1.79587Zm0 5.34521c0.77977 0.3822 1.71684 0.7034 2.77329 0.9342l-0.42685 1.9539c-1.18847 -0.2596 -2.28146 -0.6289 -3.2267 -1.0923l0.88026 -1.7958Z" clip-rule="evenodd" stroke-width="1"></path>
  </g>
</svg>