<svg xmlns="http://www.w3.org/2000/svg" fill="none" viewBox="0 0 24 24" id="Cut--Streamline-Sharp">
  <desc>
    Cut Streamline Icon: https://streamlinehq.com
  </desc>
  <g id="cut--coupon-cut-discount-price-prices-scissors">
    <path id="Union" fill="#000000" fill-rule="evenodd" d="M3 6c0 -1.65685 1.34315 -3 3 -3s3 1.34315 3 3 -1.34315 3 -3 3 -3 -1.34315 -3 -3Zm3 -5C3.23858 1 1 3.23858 1 6c0 2.45457 1.76871 4.496 4.10116 4.9194L7.19874 12l-2.09758 1.0806C2.76871 13.504 1 15.5454 1 18c0 2.7614 2.23858 5 5 5s5 -2.2386 5 -5c0 -1.8847 -1.04274 -3.5258 -2.58277 -4.3779l0.96512 -0.4972 3.15965 1.6277 0.916 -1.7779L11.566 12l10.892 -5.61103 -0.916 -1.77794L9.38235 10.8751l-0.96512 -0.4972C9.95726 9.52579 11 7.88467 11 6c0 -2.76142 -2.23858 -5 -5 -5ZM3 18c0 -1.6569 1.34315 -3 3 -3s3 1.3431 3 3 -1.34315 3 -3 3 -3 -1.3431 -3 -3Zm16 -2h4v2h-4v-2Zm-2 0h-4v2h4v-2Z" clip-rule="evenodd" stroke-width="1"></path>
  </g>
</svg>