<svg xmlns="http://www.w3.org/2000/svg" fill="none" viewBox="0 0 24 24" id="Iris-Scan--Streamline-Sharp">
  <desc>
    Iris Scan Streamline Icon: https://streamlinehq.com
  </desc>
  <g id="iris-scan--identification-retina-secure-security-iris-scan-eye-brackets">
    <path id="Union" fill="#000000" fill-rule="evenodd" d="M1 1h7v2H3v5H1V1Zm20 2h-5V1h7v7h-2V3Zm0 13v5h-5v2h7v-7h-2ZM3 21v-5H1v7h7v-2H3Zm9.0001 -15c-1.7728 0 -3.09227 0.77009 -4.25053 1.85291 -0.57422 0.53683 -1.11598 1.15693 -1.65623 1.80291 -0.17357 0.20753 -0.34626 0.41678 -0.52018 0.62758l-0.00009 0.0001 -0.00009 0.0002c-0.37397 0.4532 -0.75362 0.9133 -1.15995 1.3777l-0.29633 0.3387 0.29633 0.3386c0.40633 0.4644 0.78599 0.9245 1.15995 1.3778l0.00005 0 0.00004 0.0001 0.00005 0 0.00001 0.0001c0.17393 0.2108 0.34663 0.4201 0.52021 0.6276 0.54025 0.646 1.08201 1.2661 1.65623 1.8029 1.15826 1.0828 2.47773 1.8529 4.25053 1.8529 1.7729 0 3.0923 -0.7701 4.2506 -1.8529 0.5742 -0.5368 1.116 -1.1569 1.6562 -1.8029 0.1736 -0.2075 0.3463 -0.4168 0.5202 -0.6276l0 -0.0001 0.0001 0c0.374 -0.4533 0.7537 -0.9135 1.16 -1.3779l0.2964 -0.3386 -0.2964 -0.3387c-0.4063 -0.4644 -0.786 -0.9245 -1.1599 -1.3777l-0.0001 -0.0001 0 -0.0001 -0.0003 -0.0003 -0.0001 -0.0001c-0.1738 -0.2107 -0.3464 -0.41987 -0.5199 -0.62728 -0.5402 -0.64598 -1.082 -1.26608 -1.6562 -1.80291C15.0924 6.77009 13.773 6 12.0001 6Zm2.2499 6c0 1.2426 -1.0074 2.25 -2.25 2.25S9.75 13.2426 9.75 12 10.7574 9.75 12 9.75s2.25 1.0074 2.25 2.25Z" clip-rule="evenodd" stroke-width="1"></path>
  </g>
</svg>