<svg xmlns="http://www.w3.org/2000/svg" fill="none" viewBox="0 0 24 24" id="Remove-Alert-Clock--Streamline-Sharp">
  <desc>
    Remove Alert Clock Streamline Icon: https://streamlinehq.com
  </desc>
  <g id="remove-alert-clock">
    <path id="Union" fill="#000000" fill-rule="evenodd" d="M2.591 6.721 6.85 2.463 5.435 1.05 1.177 5.307 2.591 6.72Zm14.697 -4.258 4.258 4.258 1.415 -1.414 -4.258 -4.258 -1.415 1.414Zm4.046 9.95a9.229 9.229 0 0 1 -2.2 5.995l1.604 1.778 0.67 0.742 -1.485 1.34 -0.67 -0.742 -1.57 -1.74a9.225 9.225 0 0 1 -6.495 1.852l0.101 -0.102 -2.65 -2.65 2.65 -2.65 -3.535 -3.535 -2.65 2.65 -2.278 -2.277a9.266 9.266 0 1 1 18.508 -0.66ZM6.518 18.888l2.65 -2.65 -1.414 -1.415 -2.65 2.65 -2.65 -2.65 -1.415 1.415 0.708 0.707 1.942 1.943 -1.942 1.942 -0.708 0.708 1.415 1.414 2.65 -2.65 1.943 1.943 0.707 0.707 1.414 -1.415 -2.65 -2.65Zm6.55 -11.166v4.434h4.377v2h-6.376V7.72h2Z" clip-rule="evenodd" stroke-width="1"></path>
  </g>
</svg>