<svg xmlns="http://www.w3.org/2000/svg" fill="none" viewBox="0 0 24 24" id="Synchronize-Disable--Streamline-Sharp">
  <desc>
    Synchronize Disable Streamline Icon: https://streamlinehq.com
  </desc>
  <g id="synchronize-disable--arrows-loading-load-sync-synchronize-arrow-reload">
    <path id="Union" fill="#000000" fill-rule="evenodd" d="M0.292847 1.70711 22.2928 23.7071l1.4143 -1.4142 -3.0764 -3.0764c1.635 -1.9533 2.6193 -4.47 2.6193 -7.2166 0 -3.29849 -1.4195 -6.26402 -3.679 -8.32099L21 2.24994l-1 -1h-4.5v2.72641l-0.0005 0.00107 0.0005 0.0002v1.77232l1 1 1.301 -1.30107c1.8097 1.60376 2.949 3.94508 2.949 6.55103 0 2.056 -0.7091 3.9463 -1.8961 5.4398L6.56017 5.146C8.05368 3.95907 9.94401 3.25 12 3.25V0.749999c-2.7466 0 -5.26327 0.984231 -7.21659 2.619241L1.70706 0.292892 0.292847 1.70711ZM3.24995 12c0 -1.5126 0.38384 -2.93565 1.05942 -4.17691L2.48353 5.99725C1.38549 7.73438 0.749953 9.79297 0.749953 12c0 3.2985 1.419457 6.264 3.678967 8.321l-1.42897 1.4289 1 1h4.5l0 -2.7264 0.00047 -0.001 -0.00047 -0.0002v-1.7724l-1 -1 -1.30107 1.3011C4.38925 16.9473 3.24995 14.6059 3.24995 12ZM12 20.7499c1.5126 0 2.9355 -0.3838 4.1768 -1.0594l1.8258 1.8259c-1.7371 1.098 -3.7956 1.7335 -6.0026 1.7335v-2.5Z" clip-rule="evenodd" stroke-width="1"></path>
  </g>
</svg>