<svg xmlns="http://www.w3.org/2000/svg" fill="none" viewBox="0 0 24 24" id="Text-Tracking--Streamline-Sharp">
  <desc>
    Text Tracking Streamline Icon: https://streamlinehq.com
  </desc>
  <g id="text-tracking">
    <path id="Union" fill="#000000" fill-rule="evenodd" d="M16 2h-0.7208l-0.2279 0.68377 -3.5 10.50003 1.8973 0.6324L14.3874 11h5.2251l0.9388 2.8162 1.8973 -0.6324 -3.5 -10.50003L18.7207 2H16Zm2.9459 7 -1.6667 -5h-0.5585L15.054 9h3.8919ZM5.55127 13.3162l-3.5 -10.49997 1.89737 -0.63246 3.05131 9.15393 3.05135 -9.15393 1.8973 0.63246L8.44864 13.3162 8.22071 14H5.77919l-0.22792 -0.6838ZM1 19l3 -3h1v2h14v-2h1l3 3 -3 3h-1v-2H5v2H4l-3 -3Z" clip-rule="evenodd" stroke-width="1"></path>
  </g>
</svg>