<svg xmlns="http://www.w3.org/2000/svg" fill="none" viewBox="0 0 24 24" id="User-Multiple-Circle--Streamline-Sharp">
  <desc>
    User Multiple Circle Streamline Icon: https://streamlinehq.com
  </desc>
  <g id="user-multiple-circle--close-geometric-human-multiple-person-up-user-circle">
    <path id="Subtract" fill="#000000" fill-rule="evenodd" d="M12 1C5.92487 1 1 5.92487 1 12c0 6.0751 4.92487 11 11 11 6.0751 0 11 -4.9249 11 -11 0 -6.07513 -4.9249 -11 -11 -11ZM4.86426 9.60072C4.86426 7.88824 6.2525 6.5 7.96498 6.5s3.10072 1.38824 3.10072 3.10072 -1.38824 3.10068 -3.10072 3.10068 -3.10072 -1.3882 -3.10072 -3.10068ZM16.25 9.21875c-1.5188 0 -2.75 1.23125 -2.75 2.75005 0 1.5187 1.2312 2.75 2.75 2.75s2.75 -1.2313 2.75 -2.75c0 -1.5188 -1.2312 -2.75005 -2.75 -2.75005Zm-0.7277 7.41725c1.3124 0 2.565 0.256 3.7106 0.7208 -1.2846 1.7316 -3.1763 2.9859 -5.3603 3.4481v-4.0317c0.5364 -0.0902 1.0876 -0.1372 1.6497 -0.1372Zm-3.1497 -1.2545v5.6109C12.249 20.9975 12.1248 21 12 21c-3.86829 0 -7.16659 -2.4405 -8.43921 -5.8657 1.27307 -0.519 2.66593 -0.805 4.12558 -0.805 1.67702 0 3.26583 0.3775 4.68623 1.0522Z" clip-rule="evenodd" stroke-width="1"></path>
  </g>
</svg>