<svg xmlns="http://www.w3.org/2000/svg" fill="none" viewBox="0 0 14 14"><g id="chat-bubble-text-square--messages-message-bubble-text-square-chat"><path id="Subtract" fill="#3e3e3e" fill-rule="evenodd" d="M2.5 0A1.5 1.5 0 0 0 1 1.5v8.919l-.974 2.923a.5.5 0 0 0 .595.643L4.561 13H12.5a1.5 1.5 0 0 0 1.5-1.5v-10A1.5 1.5 0 0 0 12.5 0h-10Zm1.375 4.846c0-.346.28-.625.625-.625h6a.625.625 0 1 1 0 1.25h-6a.625.625 0 0 1-.625-.625ZM4.5 7.529a.625.625 0 1 0 0 1.25h4a.625.625 0 1 0 0-1.25h-4Z" clip-rule="evenodd"></path></g></svg>