<svg xmlns="http://www.w3.org/2000/svg" fill="none" viewBox="0 0 14 14"><g id="inbox-tray-1--mail-email-outbox-drawer-empty-open-inbox-arrow-down"><path id="Union" fill="#3e3e3e" fill-rule="evenodd" d="M7.75.76a.75.75 0 0 0-1.5 0v2.75H4.5a.75.75 0 0 0-.53 1.28l2.5 2.5a.748.748 0 0 0 1.06 0l2.5-2.5a.75.75 0 0 0-.53-1.28H7.75V.76ZM.5 8.33a.5.5 0 0 0-.5.5v3.67A1.5 1.5 0 0 0 1.5 14h11a1.5 1.5 0 0 0 1.5-1.5V8.83a.5.5 0 0 0-.5-.5h-2.973a1.5 1.5 0 0 0-1.5 1.5c0 .974-.976 1.732-2.03 1.725-1.024-.007-1.97-.768-1.97-1.725a1.5 1.5 0 0 0-1.5-1.5H.5Z" clip-rule="evenodd"></path></g></svg>