<svg xmlns="http://www.w3.org/2000/svg" fill="none" viewBox="0 0 14 14"><g id="smiley-grumpy"><path id="Subtract" fill="#3e3e3e" fill-rule="evenodd" d="M0 7a7 7 0 1 1 14 0A7 7 0 0 1 0 7Zm9.331 2.582a.625.625 0 0 0 1.208-.325 3.665 3.665 0 0 0-7.077 0 .625.625 0 1 0 1.207.325 2.415 2.415 0 0 1 4.662 0Zm-6.39-5.174c0-.345.28-.625.625-.625h1.303c.346 0 .625.28.625.625v.595a.625.625 0 0 1-1.249.03h-.68a.625.625 0 0 1-.624-.625Zm6.19-.625a.625.625 0 0 0 0 1.25h.679a.625.625 0 0 0 1.25-.03v-.595a.625.625 0 0 0-.626-.625H9.131Z" clip-rule="evenodd"></path></g></svg>