<svg xmlns="http://www.w3.org/2000/svg" fill="none" viewBox="0 0 14 14" id="Flash-2--Streamline-Core-Gradient">
  <desc>
    Flash 2 Streamline Icon: https://streamlinehq.com
  </desc>
  <g id="Free Gradient/Images Photography/flash-2--flash-power-connect-charge-electricity-lightning">
    <path id="Union" fill="url(#paint0_linear_14402_12045)" fill-rule="evenodd" d="M8.50001.500027c0-.211649-.13326-.4003703-.33272-.4711836-.19945-.0708133-.42188-.0083762-.55534.1558876l-6.5 7.999999c-.121635.1497-.146311.35602-.06341.53018.08289.17417.25858.28512.45147.28512h4V13.5c0 .2117.13325.4004.33271.4712.19945.0708.42188.0084.55534-.1559l6.50004-7.99998c.1216-.1497.1463-.35601.0634-.53018-.0829-.17416-.2586-.28511-.4515-.28511H8.50001V.500027Z" clip-rule="evenodd"></path>
  </g>
  <defs>
    <linearGradient id="paint0_linear_14402_12045" x1="1.461" x2="16.073" y1="1.131" y2="8.19" gradientUnits="userSpaceOnUse">
      <stop stop-color="#00d078"></stop>
      <stop offset="1" stop-color="#007df0"></stop>
    </linearGradient>
  </defs>
</svg>