<svg xmlns="http://www.w3.org/2000/svg" fill="none" viewBox="0 0 14 14" id="Flower--Streamline-Core-Gradient">
  <desc>
    Flower Streamline Icon: https://streamlinehq.com
  </desc>
  <g id="Free Gradient/Images Photography/flower--photos-photo-picture-camera-photography-pictures-flower-image">
    <path id="Subtract" fill="url(#paint0_linear_14402_12085)" fill-rule="evenodd" d="M13.5 12.0769c0 .786-.6371 1.4231-1.4231 1.4231H1.92308C1.13713 13.5.5 12.8629.5 12.0769V1.92308C.5 1.13713 1.13713.5 1.92308.5H12.0769c.786 0 1.4231.63713 1.4231 1.42308V12.0769ZM9.12132 7.7192C9.68393 7.15659 10 6.39353 10 5.59788v-2.19c.0002-.08498-.02132-.16859-.06243-.24295-.04112-.07436-.10051-.13702-.17257-.18205-.07205-.04504-.1544-.07097-.23926-.07534-.08486-.00438-.16943.01295-.24574.05034L7 4.09788l-2.28-1.14c-.0763-.03739-.16088-.05472-.24574-.05034-.08486.00437-.1672.0303-.23926.07534-.07205.04503-.13145.10769-.17256.18205-.04112.07436-.06261.15797-.06244.24295v2.19c0 .79565.31607 1.55871.87868 2.12132.41292.41292.93381.69303 1.49632.81286v1.55214L5.32552 9.03476c-.24408-.24408-.63981-.24408-.88389 0-.24407.24408-.24407.6398 0 .88388l2.11643 2.11646c.12057.1205.27815.1815.43617.183l.00577 0 .00577 0c.08264-.0007.16145-.0175.23347-.0474.07372-.0305.14278-.0757.2027-.1356l2.11643-2.11646c.24408-.24408.24408-.6398 0-.88388-.24408-.24408-.63981-.24408-.88389 0L7.625 10.0842V8.53206c.56251-.11983 1.0834-.39994 1.49632-.81286Z" clip-rule="evenodd"></path>
  </g>
  <defs>
    <linearGradient id="paint0_linear_14402_12085" x1="2.625" x2="13.125" y1="3" y2="8.818" gradientUnits="userSpaceOnUse">
      <stop stop-color="#ffd600"></stop>
      <stop offset="1" stop-color="#00d078"></stop>
    </linearGradient>
  </defs>
</svg>