<svg xmlns="http://www.w3.org/2000/svg" fill="none" viewBox="0 0 14 14" id="Campfire--Streamline-Flex">
  <desc>
    Campfire Streamline Icon: https://streamlinehq.com
  </desc>
  <g id="campfire--campfire-burn-leisure-outdoor-activity">
    <path id="Subtract" fill="#ff7972" d="M2.89673 5.10177c-0.01056 -0.48875 0.09238 -0.97157 0.29764 -1.39606 0.10994 -0.22736 0.24699 -0.43333 0.40614 -0.61207 0.20861 -0.2343 0.56384 -0.11827 0.71654 0.15603 0.17054 0.30634 0.37825 0.58282 0.61725 0.82016 0 0 0.67017 -3.44483 2.06536 -3.44483 1.39518 0 2.06535 3.44486 2.06535 3.44486 0.239 -0.23734 0.44671 -0.51382 0.61726 -0.82016 0.1527 -0.2743 0.50793 -0.39033 0.71653 -0.15603 0.1592 0.17874 0.2962 0.38471 0.4061 0.61207 0.2053 0.42449 0.3082 0.90731 0.2977 1.39606 -0.1469 4.28489 -8.05904 4.28481 -8.20587 -0.00003Z" stroke-width="1"></path>
    <path id="Union" fill="#0c098c" fill-rule="evenodd" d="M6.99966 0C6.37299 0 5.90921 0.387682 5.6008 0.77221c-0.31545 0.3933 -0.55729 0.88968 -0.7379 1.34457 -0.07567 0.19058 -0.14306 0.38026 -0.20233 0.56106 -0.14477 -0.14436 -0.32598 -0.25166 -0.52706 -0.3027 -0.33066 -0.08393 -0.72113 -0.01009 -0.99979 0.30289 -0.19914 0.22365 -0.36794 0.47832 -0.50202 0.7556 -0.24987 0.51675 -0.37243 1.09788 -0.35982 1.68164l-0.00005 0 0.00027 0.0079c0.04419 1.28947 0.68297 2.26578 1.58954 2.90075 0.89012 0.62346 2.02963 0.9165 3.13801 0.91651 1.10838 0.00001 2.2479 -0.29303 3.13805 -0.91647 0.9065 -0.63497 1.5453 -1.61128 1.5895 -2.90076l0.0001 0 0.0001 -0.0079c0.0126 -0.58376 -0.1099 -1.16489 -0.3598 -1.68164 -0.1341 -0.27728 -0.3029 -0.53195 -0.502 -0.7556 -0.2787 -0.31298 -0.6691 -0.38682 -0.9998 -0.30289 -0.20107 0.05104 -0.38229 0.15834 -0.52705 0.3027 -0.05928 -0.18081 -0.12666 -0.37049 -0.20233 -0.56108 -0.18061 -0.45488 -0.42246 -0.95127 -0.7379 -1.344573C8.09011 0.387687 7.62633 0 6.99966 0ZM5.11803 4.66722c0.22044 -0.0678 0.38562 -0.25148 0.42973 -0.47784l0.00004 -0.0002 0.00012 -0.00059 0.00108 -0.00543 0.00507 -0.02471c0.00466 -0.02243 0.0119 -0.05642 0.02171 -0.10033 0.01964 -0.0879 0.0495 -0.215 0.08962 -0.36811 0.08074 -0.30812 0.20075 -0.71269 0.35927 -1.11195 0.16134 -0.40633 0.34863 -0.77115 0.55124 -1.02376 0.20964 -0.26138 0.35283 -0.3043 0.42375 -0.3043 0.07092 0 0.21411 0.04292 0.42375 0.3043 0.2026 0.25261 0.3899 0.61744 0.55123 1.02377 0.15853 0.39927 0.27853 0.80384 0.35927 1.11196 0.04012 0.15311 0.06998 0.28021 0.08963 0.36812 0.00981 0.0439 0.01704 0.0779 0.02171 0.10032l0.00506 0.02472 0.00108 0.00542 0.00012 0.0006 0.00004 0.0002 0.00001 0.00003c0.04412 0.22635 0.2093 0.41001 0.42973 0.47781 0.2205 0.06781 0.46043 0.00865 0.62412 -0.15391 0.23011 -0.22851 0.43373 -0.48572 0.60809 -0.76498 0.0466 0.0721 0.0897 0.14869 0.1288 0.22946 0.1601 0.33112 0.2434 0.71419 0.2355 1.10655 -0.0303 0.85095 -0.4354 1.48018 -1.05723 1.91574 -0.6393 0.44777 -1.51454 0.69033 -2.42091 0.69032 -0.90637 0 -1.78161 -0.24258 -2.42091 -0.69035 -0.62188 -0.43557 -1.02689 -1.0648 -1.05724 -1.91574 -0.00787 -0.39236 0.07542 -0.77543 0.23553 -1.10655 0.03906 -0.08077 0.08216 -0.15736 0.12876 -0.22946 0.17438 0.27926 0.378 0.53647 0.6081 0.76498 0.1637 0.16256 0.40362 0.22172 0.62413 0.15391ZM1.00516 9.60881c0.05672 -0.47991 0.49174 -0.82297 0.97165 -0.76625 1.76597 0.20872 3.4263 0.57529 5.02309 1.0852 1.59679 -0.50991 3.2571 -0.87648 5.0231 -1.0852 0.4799 -0.05672 0.9149 0.28634 0.9716 0.76625 0.0568 0.47989 -0.2863 0.91489 -0.7662 0.97169 -0.8345 0.0986 -1.6443 0.2349 -2.43489 0.4075 0.92949 0.4087 1.84499 0.8668 2.75559 1.371 0.4228 0.234 0.5758 0.7665 0.3417 1.1893 -0.234 0.4228 -0.7665 0.5758 -1.1893 0.3417 -1.5467 -0.8563 -3.09583 -1.5667 -4.7016 -2.1187 -1.60578 0.552 -3.15494 1.2624 -4.70162 2.1187 -0.42278 0.2341 -0.95526 0.0811 -1.18932 -0.3417 -0.234064 -0.4228 -0.08108 -0.9553 0.3417 -1.1893 0.91069 -0.5042 1.82612 -0.9623 2.75563 -1.371 -0.79061 -0.1726 -1.60038 -0.3089 -2.43488 -0.4075 -0.47991 -0.0568 -0.822974 -0.4918 -0.76625 -0.97169Z" clip-rule="evenodd" stroke-width="1"></path>
  </g>
</svg>