<svg xmlns="http://www.w3.org/2000/svg" fill="none" viewBox="0 0 14 14" id="Toilet-Man-Woman-1--Streamline-Flex">
  <desc>
    Toilet Man Woman 1 Streamline Icon: https://streamlinehq.com
  </desc>
  <g id="toilet-man-woman-1--travel-wayfinder-toilet-man-women">
    <path id="Vector" fill="#ff7972" d="M10.4099 4.855c1.1142 0 1.741 -0.6264 1.741 -1.74s-0.6268 -1.74 -1.741 -1.74c-1.11421 0 -1.74095 0.6264 -1.74095 1.74s0.62674 1.74 1.74095 1.74Z" stroke-width="1"></path>
    <path id="Union" fill="#ff7972" d="M10.4098 4.92407c-1.12749 0 -1.78139 0.67908 -2.24618 1.61112 -0.24345 0.48818 -0.53335 2.02342 -0.70797 3.12184 -0.08061 0.50707 0.29948 0.95597 0.79467 0.95597h0.49482c0.29774 0.905 0.50955 2.0111 1.66296 2.0111 1.1534 0 1.3652 -1.1061 1.6629 -2.0111h0.4983c0.4952 0 0.8753 -0.4489 0.7947 -0.95597 -0.1746 -1.09842 -0.4645 -2.63366 -0.708 -3.12184 -0.4648 -0.93204 -1.1187 -1.61112 -2.2462 -1.61112Z" stroke-width="1"></path>
    <path id="Union_2" fill="#ff7972" d="M10.4098 4.92407c-1.12749 0 -1.78139 0.67908 -2.24618 1.61112 -0.24345 0.48818 -0.53335 2.02342 -0.70797 3.12184 -0.08061 0.50707 0.29948 0.95597 0.79467 0.95597h0.49482c0.29774 0.905 0.50955 2.0111 1.66296 2.0111 1.1534 0 1.3652 -1.1061 1.6629 -2.0111h0.4983c0.4952 0 0.8753 -0.4489 0.7947 -0.95597 -0.1746 -1.09842 -0.4645 -2.63366 -0.708 -3.12184 -0.4648 -0.93204 -1.1187 -1.61112 -2.2462 -1.61112Z" stroke-width="1"></path>
    <path id="Vector_2" fill="#ff7972" d="M3.16577 4.855c1.11422 0 1.74096 -0.6264 1.74096 -1.74s-0.62674 -1.74 -1.74096 -1.74 -1.74097 0.6264 -1.74097 1.74 0.62675 1.74 1.74097 1.74Z" stroke-width="1"></path>
    <path id="Rectangle 35" fill="#ff7972" d="M5.67229 7.77197c0.25222 -1.44992 -0.95795 -2.7312 -2.50646 -2.7312 -1.54852 0 -2.75869 1.28128 -2.506468 2.7312 0.064797 0.3725 0.134323 0.73735 0.206074 1.0605 0.184134 0.82929 0.497534 1.89993 0.741084 2.69193 0.20182 0.6563 0.8389 1.0998 1.55931 1.0998s1.35748 -0.4435 1.5593 -1.0998c0.24356 -0.792 0.55695 -1.86264 0.74109 -2.69193 0.07175 -0.32315 0.14127 -0.688 0.20607 -1.0605Z" stroke-width="1"></path>
    <path id="Union_3" fill="#0c098c" fill-rule="evenodd" d="M2.31936 2.26946c-0.14713 0.14705 -0.26947 0.40388 -0.26947 0.84554 0 0.44166 0.12234 0.69849 0.26947 0.84554 0.14718 0.14709 0.40434 0.26946 0.8465 0.26946 0.44216 0 0.69931 -0.12237 0.84649 -0.26946 0.14713 -0.14705 0.26947 -0.40388 0.26947 -0.84554 0 -0.44166 -0.12234 -0.69849 -0.26947 -0.84554C3.86517 2.12237 3.60802 2 3.16586 2c-0.44216 0 -0.69932 0.12237 -0.8465 0.26946Zm-0.88364 -0.88412C1.88047 0.940834 2.4938 0.75 3.16586 0.75c0.67205 0 1.28538 0.190834 1.73013 0.63534 0.4448 0.44455 0.63583 1.05772 0.63583 1.72966s-0.19103 1.28511 -0.63583 1.72966c-0.01205 0.01204 -0.02422 0.0239 -0.03651 0.03556 1.01078 0.60263 1.64964 1.72846 1.42865 2.99886 -0.06577 0.37807 -0.13713 0.75309 -0.21169 1.08886 -0.18992 0.85536 -0.50969 1.94626 -0.75383 2.74026 -0.28961 0.9417 -1.18689 1.541 -2.1567 1.541 -0.9698 0 -1.86709 -0.5993 -2.15669 -1.541 -0.24414 -0.794 -0.563912 -1.8849 -0.753838 -2.74026 -0.074555 -0.33577 -0.145921 -0.71079 -0.2116874 -1.08886C-0.177293 6.60871 0.461541 5.4829 1.47227 4.88027c-0.0123 -0.01169 -0.02449 -0.02355 -0.03655 -0.03561C0.990924 4.40011 0.799891 3.78694 0.799891 3.115s0.191033 -1.28511 0.635829 -1.72966Zm8.12778 0.88412c-0.14713 0.14705 -0.26947 0.40388 -0.26947 0.84554 0 0.44166 0.12234 0.69849 0.26947 0.84554 0.14718 0.14709 0.40434 0.26946 0.8465 0.26946 0.4422 0 0.6993 -0.12237 0.8465 -0.26946 0.1471 -0.14705 0.2695 -0.40388 0.2695 -0.84554 0 -0.44166 -0.1224 -0.69849 -0.2695 -0.84554C11.1093 2.12237 10.8522 2 10.41 2c-0.44216 0 -0.69932 0.12237 -0.8465 0.26946Zm-0.88364 -0.88412C9.12461 0.940834 9.73794 0.75 10.41 0.75c0.6721 0 1.2854 0.190834 1.7301 0.63534 0.4448 0.44455 0.6359 1.05772 0.6359 1.72966s-0.1911 1.28511 -0.6359 1.72966l-0.0128 0.01273c0.013 0.00992 0.026 0.01995 0.0389 0.03011l0.0027 0.00212c0.4617 0.36461 0.7919 0.85597 1.0465 1.36665 0.1632 0.32716 0.3102 0.91316 0.4316 1.48005 0.1279 0.59661 0.246 1.26672 0.3343 1.82258 0.1389 0.8737 -0.5194 1.6791 -1.4119 1.6791h-0.0397c-0.1068 0.3363 -0.2419 0.7232 -0.4336 1.042 -0.152 0.2527 -0.3584 0.5017 -0.6498 0.6856 -0.2965 0.1872 -0.6441 0.2835 -1.0381 0.2835 -0.3941 0 -0.74167 -0.0963 -1.03817 -0.2835 -0.2914 -0.1839 -0.49785 -0.4329 -0.6498 -0.6856 -0.19174 -0.3188 -0.32686 -0.7057 -0.43362 -1.042H8.2504c-0.89245 0 -1.55082 -0.8054 -1.41192 -1.6791 0.08837 -0.55586 0.20647 -1.22597 0.3343 -1.82258 0.12147 -0.56689 0.26847 -1.15289 0.43161 -1.48005 0.25467 -0.51068 0.58483 -1.00204 1.04655 -1.36665 0.01381 -0.01091 0.02771 -0.02167 0.0417 -0.0323l-0.01278 -0.01266c-0.4448 -0.44455 -0.63583 -1.05772 -0.63583 -1.72966s0.19103 -1.28511 0.63583 -1.72966Zm0.74577 4.48528c-0.26331 0.20793 -0.49249 0.52213 -0.70261 0.94349 -0.0803 0.16102 -0.19998 0.58673 -0.32798 1.18411 -0.12164 0.56766 -0.23581 1.21438 -0.32206 1.75694 -0.02232 0.1404 0.07949 0.23282 0.17742 0.23282h0.49483c0.26992 0 0.50934 0.17332 0.5937 0.42972 0.03935 0.1196 0.07469 0.2323 0.10806 0.3387 0.11142 0.3554 0.2009 0.6407 0.34443 0.8794 0.08239 0.137 0.16376 0.221 0.24578 0.2728 0.0769 0.0485 0.1883 0.0905 0.371 0.0905 0.1826 0 0.294 -0.042 0.3709 -0.0905 0.082 -0.0518 0.1634 -0.1358 0.2458 -0.2728 0.1435 -0.2387 0.233 -0.524 0.3444 -0.8794l0.0001 -0.0001 0 -0.0002c0.0334 -0.1063 0.0687 -0.2189 0.108 -0.3384 0.0843 -0.2564 0.3238 -0.42972 0.5937 -0.42972h0.4983c0.0979 0 0.1998 -0.09242 0.1774 -0.23282 -0.0862 -0.54256 -0.2004 -1.18928 -0.322 -1.75694 -0.128 -0.59738 -0.2477 -1.02309 -0.328 -1.18411 -0.2101 -0.42137 -0.4393 -0.73556 -0.7026 -0.94349 -0.2505 -0.19779 -0.5589 -0.32155 -0.9843 -0.32155s-0.73381 0.12376 -0.98427 0.32155ZM1.2752 7.66486c-0.17532 -1.00787 0.66702 -1.99909 1.89071 -1.99909 1.2237 0 2.06604 0.99122 1.89072 1.99909 -0.06383 0.36692 -0.13152 0.72162 -0.20047 1.03213 -0.17835 0.80322 -0.48536 1.85361 -0.72834 2.64371 -0.11404 0.3709 -0.49089 0.6585 -0.96191 0.6585 -0.47101 0 -0.84787 -0.2876 -0.96191 -0.6585 -0.24297 -0.7901 -0.54999 -1.84049 -0.72834 -2.64371 -0.06895 -0.31052 -0.13663 -0.66521 -0.20046 -1.03213Z" clip-rule="evenodd" stroke-width="1"></path>
  </g>
</svg>