<svg xmlns="http://www.w3.org/2000/svg" fill="none" viewBox="0 0 100 100"><path fill="#000" fill-rule="evenodd" d="M49.4511 26.3639C49.4511 29.2398 49.7706 31.4767 48.1729 32.7549C47.5338 33.0745 48.1729 34.0331 48.4924 33.7135C50.4098 33.0744 51.0488 31.157 51.0488 29.2397C51.0488 28.2811 50.7293 27.3225 50.4098 26.3639C50.4098 25.7247 49.4511 25.7247 49.4511 26.3639Z" clip-rule="evenodd"></path><path fill="#000" fill-rule="evenodd" d="M53.6049 32.4351C52.9658 32.1155 51.0484 29.8787 50.7289 28.9201C50.7289 28.281 49.7703 28.6005 49.7703 28.9201C49.7703 31.1569 50.7289 32.7548 53.2854 33.3939C53.9245 33.3939 54.244 32.4351 53.6049 32.4351Z" clip-rule="evenodd"></path><path fill="#000" fill-rule="evenodd" d="M52.9657 27.3232C56.8004 34.6729 63.8305 28.6014 67.3456 31.4773C67.6652 31.7969 68.3043 31.1577 67.9848 30.8382C65.1088 27.9622 58.7177 30.5187 55.8417 28.9209C55.2026 28.6014 54.5635 27.9624 53.9244 27.0037C53.2853 26.3646 52.6462 27.0036 52.9657 27.3232Z" clip-rule="evenodd"></path><path fill="#000" fill-rule="evenodd" d="M46.8943 28.2809C44.977 31.1569 39.5446 31.4765 37.3077 33.3939C36.6686 34.033 35.3904 35.311 36.0295 35.6306C36.6686 35.9501 36.349 34.9916 37.9468 34.3525C39.8641 33.3938 46.2552 33.3939 47.8529 28.6006C48.1725 28.281 47.2139 27.9613 46.8943 28.2809Z" clip-rule="evenodd"></path><path fill="#000" fill-rule="evenodd" d="M49.1312 36.9094C48.4921 41.7027 49.1313 41.7027 48.8118 43.3004C48.4922 43.9395 49.4508 44.259 49.7704 43.6199C51.0486 41.0635 51.0486 39.4658 50.4095 36.9094C50.09 35.9507 49.1312 36.2703 49.1312 36.9094Z" clip-rule="evenodd"></path><path fill="#000" fill-rule="evenodd" d="M48.8118 49.0515C50.4096 49.6906 52.0073 49.0515 52.9659 48.0929C53.2855 48.732 53.605 49.0516 53.9246 48.732C54.5637 48.4125 54.2442 48.0928 53.6051 46.8146C53.2855 46.495 52.9659 46.495 52.6464 46.8146C51.6877 47.7732 49.7704 48.0929 48.4922 47.1343C48.1727 46.8147 47.5336 46.8147 47.214 47.1343C46.5749 46.1756 47.214 45.5365 46.5749 45.5365C45.6162 45.2169 45.6162 47.1343 45.9357 47.7734C46.8944 48.7321 48.1727 49.6906 48.8118 49.0515Z" clip-rule="evenodd"></path><path fill="#000" fill-rule="evenodd" d="M55.5224 44.5789C55.842 45.218 55.842 46.1765 55.842 46.8156C55.842 47.7743 55.842 48.4135 54.8834 48.733C54.2443 48.733 54.2443 49.6917 54.8834 49.6917C57.7594 49.6917 58.3984 46.1765 56.1616 44.2592C56.1616 43.6201 55.2029 44.2593 55.5224 44.5789Z" clip-rule="evenodd"></path><path fill="#000" fill-rule="evenodd" d="M59.6766 57.3606C58.0789 56.7215 56.4811 55.7627 54.8833 55.4432C53.9247 55.4432 53.6051 55.7628 52.966 55.7628C52.6464 55.7628 52.0073 55.1237 51.0487 55.7628C50.7291 55.7628 51.6878 55.4432 48.4923 57.0409C47.2141 57.68 46.8945 61.1952 52.6464 60.8756C55.2028 60.8756 58.3984 60.8755 59.9962 59.5973C60.9549 58.9582 60.9548 58.3192 60.9548 57.6801C60.6353 57.6801 60.3157 57.6802 59.6766 57.3606ZM54.5638 57.0409C53.9247 57.3605 53.6051 57.6801 52.6464 57.6801C51.3682 57.6801 52.966 57.0409 49.4509 58.6387C49.4509 59.2778 51.0487 59.2779 54.8833 59.2779C55.842 59.2779 59.3571 59.5974 59.6766 58.3192C58.0789 57.9997 55.5224 56.7214 54.5638 57.0409Z" clip-rule="evenodd"></path><path fill="#000" fill-rule="evenodd" d="M57.4398 36.9089C58.3984 36.2698 59.0376 35.9502 59.6767 35.6306C62.8722 36.5893 67.0263 35.6307 66.7068 34.672C66.3872 34.0329 66.0677 34.672 63.5113 34.672C58.0789 34.3525 60.6354 32.4351 56.8007 36.2698C56.4812 36.5893 57.1202 37.2285 57.4398 36.9089Z" clip-rule="evenodd"></path><path fill="#000" fill-rule="evenodd" d="M61.9135 35.631C61.594 36.2701 61.594 36.9093 62.2331 37.5484C63.1917 38.5071 64.7896 37.5483 64.7896 36.2701C64.7896 34.6724 62.5526 34.3528 61.9135 35.631Z" clip-rule="evenodd"></path><path fill="#000" fill-rule="evenodd" d="M59.3569 37.5489C61.9134 40.1054 66.0676 38.5076 66.3871 35.312C66.7067 34.6729 65.748 34.3535 65.4284 34.9926C65.1089 35.6317 64.1502 36.5902 62.872 36.9098C60.6352 37.5489 59.3569 36.2707 59.0374 36.9098C59.0374 36.9098 59.0374 37.2294 59.3569 37.5489Z" clip-rule="evenodd"></path><path fill="#000" fill-rule="evenodd" d="M66.7066 38.1876C67.0261 37.5485 66.0675 37.2289 65.748 37.5485C65.1089 38.5071 63.8306 39.1462 62.5524 39.1462C59.3569 39.4658 58.7178 37.5485 58.3983 38.1876C57.1201 39.7854 64.1502 43.9396 66.7066 38.1876Z" clip-rule="evenodd"></path><path fill="#000" fill-rule="evenodd" d="M66.9448 64.63C61.5257 72.4051 54.4575 76.8817 47.3892 70.5202C44.5618 67.9285 42.677 64.1587 40.7921 60.8602C42.4414 61.3314 43.3838 58.7397 43.855 57.7972C45.7399 54.9699 48.096 52.6139 51.3946 51.6714C51.3946 52.1426 51.6301 52.8494 51.6301 53.3207C48.3316 54.4987 44.3262 58.7397 44.7974 61.567C45.2686 64.1587 48.5672 66.0436 50.9233 66.7505C53.9862 67.6929 52.3369 63.4519 53.9862 63.9231C54.6931 64.1587 55.1643 65.1012 55.6355 65.808C57.0492 68.1641 61.5257 65.5724 62.4681 63.2163C63.4106 60.6246 62.2326 56.6192 59.8765 55.2056C58.6984 54.2631 57.0492 54.0275 55.6355 53.5563C53.2794 52.6138 53.515 51.4358 54.693 51.2002C56.3423 50.9646 61.2901 52.8494 63.6462 56.8548C64.8242 58.9753 64.8243 62.2739 66.9448 64.63Z" clip-rule="evenodd"></path><path fill="#000" fill-rule="evenodd" d="M67.1806 64.1586C64.3533 61.0957 65.7669 56.8547 61.2903 53.0849C59.6411 51.6713 57.285 50.4933 55.8713 50.2576C53.5152 49.7864 52.1017 51.4357 53.7509 52.8494C55.8714 54.7343 59.8768 53.5562 61.526 58.504C62.4685 61.3313 61.7616 62.9806 60.1123 64.1586C59.4055 64.8655 57.7563 65.5723 56.8138 65.3367C55.8714 65.1011 55.8714 63.923 55.1645 63.2162C54.4577 62.5094 53.5153 62.2737 52.8084 62.9806C51.866 63.6874 52.1015 65.3367 51.8659 65.5723C51.3947 65.8079 46.2113 63.6874 45.7401 61.0957C45.2689 58.9752 48.803 54.9698 51.8659 53.7918C52.5728 53.5562 52.5728 53.085 52.3372 51.2001C52.3372 50.7289 51.6304 50.2577 51.1591 50.4933C47.8606 51.4357 45.0334 53.5562 43.1485 57.0903C42.6773 57.7972 41.9704 60.1533 41.0279 59.9177C40.3211 59.6821 39.6142 60.3889 40.0854 61.0957C43.6196 66.5148 44.5621 70.2845 50.2168 73.1118C57.0495 76.4103 63.1753 71.2269 67.4163 64.8654C67.4163 64.6298 67.4162 64.3942 67.1806 64.1586ZM66.4738 64.6299C63.1752 60.8601 65.0602 54.9698 57.2851 52.1425C56.5782 51.9069 55.1646 51.2001 54.4577 51.6713C54.929 52.3782 57.0494 52.8493 58.9342 53.5562C63.4108 55.4411 65.5313 62.0382 61.2903 65.5723C60.1123 66.5147 58.2274 67.6927 56.5781 67.2215C54.9289 66.7503 54.6933 65.5723 54.222 64.8654C53.5152 63.6874 54.2221 66.2791 52.8084 67.2215C50.6879 68.6352 37.965 62.9806 47.625 54.4986C44.0908 57.3259 43.8553 60.6244 41.9704 61.3313C42.9129 62.9805 43.8552 64.6298 44.7976 66.2791C50.2167 74.7611 58.2274 75.9392 66.4738 64.6299Z" clip-rule="evenodd"></path><path fill="#000" fill-rule="evenodd" d="M39.5446 38.5065C40.5032 37.8674 41.7814 37.2283 42.7401 36.9087C44.977 35.9501 44.0184 36.2696 45.6161 37.2282C46.2553 37.5478 47.2138 38.187 47.5334 37.5479C47.8529 36.9088 47.2139 37.2283 46.2552 36.2696C45.2965 34.9914 45.2965 34.3524 44.3379 34.3524C41.7814 34.6719 40.5033 35.6306 38.5859 37.5479C38.5859 38.187 39.225 38.8261 39.5446 38.5065Z" clip-rule="evenodd"></path><path fill="#000" fill-rule="evenodd" d="M45.6162 37.5478C46.8944 35.9501 43.6988 34.3524 43.0597 36.5892C42.7401 38.187 44.6575 38.5065 45.6162 37.5478Z" clip-rule="evenodd"></path><path fill="#000" fill-rule="evenodd" d="M45.9359 38.5076C46.575 38.188 45.936 37.2294 45.6164 37.5489C44.9773 37.8685 43.699 37.8684 43.0599 37.8684C40.5035 37.5489 40.8231 36.5902 40.184 37.2293C38.9058 37.8684 42.1012 41.3835 45.9359 38.5076Z" clip-rule="evenodd"></path><path fill="#000" fill-rule="evenodd" d="M43.699 40.7433C42.7403 41.3824 42.4208 41.3824 42.4208 41.7019C42.7403 42.341 44.3381 41.7019 44.9772 41.7019C47.214 41.0628 48.1727 38.8259 47.5335 38.5064C47.214 38.1868 47.2141 38.5064 43.699 40.7433Z" clip-rule="evenodd"></path><path fill="#000" fill-rule="evenodd" d="M76.2931 35.9505C76.2931 31.4768 75.3346 27.6421 71.1804 25.7248C72.4586 21.8902 71.4999 15.8186 68.9435 12.9427C65.4284 8.78847 61.2742 10.0666 56.4809 12.3035C51.6876 14.5404 50.4094 15.1795 46.5747 13.9013C43.6988 12.9426 41.4619 11.6644 38.5859 13.2621C34.7513 15.499 34.4317 21.2511 33.7926 25.4053C31.8753 37.2288 34.1121 38.507 35.0708 42.9807C36.349 49.6914 34.4318 50.0108 40.8228 60.8756C41.1424 61.5147 42.101 60.8756 41.7814 60.2365C35.7099 49.6912 37.6272 49.3717 36.6686 42.6611C36.0295 37.8678 33.7926 36.9091 35.71 25.7248C36.3491 22.2097 36.6686 16.4577 39.5445 14.8599C41.7814 13.5817 44.0183 14.5404 46.2552 15.499C55.2027 18.6946 61.9133 7.51022 67.9848 13.9013C70.5413 16.4577 71.1803 22.8488 69.9021 25.7248C68.9434 28.2812 76.9322 24.4466 74.6954 40.7438C74.6954 41.7025 75.6541 41.7024 75.9737 41.0633C76.9323 37.8678 78.8496 32.1158 80.767 31.4767C81.4061 31.1572 81.7256 32.1159 82.0452 32.755C83.0038 35.9505 80.1278 43.6197 77.2519 45.8566C75.9736 46.8153 75.3345 46.1761 75.3345 46.8152C75.3345 48.0934 79.8082 47.4544 82.6842 39.1461C83.3233 37.2287 83.9625 34.3526 83.3234 32.4353C83.0038 31.1571 82.0452 29.879 80.4474 30.5181C78.2105 31.1572 76.9322 34.0332 76.2931 35.9505Z" clip-rule="evenodd"></path><path fill="#000" fill-rule="evenodd" d="M67.346 65.0304C76.2935 54.8047 77.5716 54.8046 76.2934 46.8158C76.2934 46.4963 75.9739 46.4963 75.6544 46.4963C74.3762 46.8159 76.9326 50.6506 73.4175 55.1243C71.8197 57.0416 71.1806 57.3611 69.2633 60.2371C68.3047 61.5153 67.6655 62.7935 66.7068 64.3912C66.3873 65.0303 67.0264 65.6695 67.346 65.0304Z" clip-rule="evenodd"></path><path fill="#000" fill-rule="evenodd" d="M71.4998 43.2997C71.1802 43.6192 70.2217 44.5778 69.5826 45.2169C68.6239 46.1756 67.6652 47.4539 67.0261 48.093C66.387 48.4125 67.0261 49.3712 67.6652 48.7321C70.5412 47.4539 71.4998 45.856 72.1389 43.6192C72.4585 42.9801 71.8193 42.6606 71.4998 43.2997Z" clip-rule="evenodd"></path><path fill="#000" fill-rule="evenodd" d="M42.1012 24.1273C44.0185 23.8077 45.2967 23.1686 47.214 23.1686C48.8118 23.1686 50.4096 23.4881 52.0073 23.4881C54.2442 23.1686 56.8006 22.5295 59.0374 23.4881C59.6766 23.8077 59.9961 22.8491 59.357 22.5295C56.8006 21.2513 54.5637 21.5708 51.6878 21.8904C50.09 21.8904 48.4922 21.5708 46.8945 21.8904C44.9771 22.2099 43.3793 22.849 41.462 23.4881C41.1425 23.1686 41.4621 24.1273 42.1012 24.1273Z" clip-rule="evenodd"></path><path fill="#000" fill-rule="evenodd" d="M45.6164 25.7251C48.812 26.0447 48.1728 25.7251 50.0901 25.7251C50.7293 25.7251 50.7293 24.7665 50.0901 24.7665C47.5337 24.1274 46.8946 24.447 45.2968 24.7665C44.6577 24.7665 44.9773 25.7251 45.6164 25.7251Z" clip-rule="evenodd"></path><path fill="#000" fill-rule="evenodd" d="M50.729 63.4327C52.3268 64.7109 54.2441 65.0305 55.8419 64.0718C56.481 63.7522 57.4397 63.1132 58.0788 63.7523C58.3984 64.0719 59.0374 63.4327 58.7178 63.1132C57.1201 61.1959 54.5637 63.7522 51.0486 62.474C50.729 62.1545 50.0899 63.1131 50.729 63.4327Z" clip-rule="evenodd"></path><path fill="#000" fill-rule="evenodd" d="M5.99161 87.7184C6.95027 85.4815 15.5783 88.9966 18.1347 84.5229C18.7738 83.2447 18.4542 81.9663 17.176 81.0077C14.9391 79.7295 8.22854 80.0491 6.95033 80.0491C5.67212 80.3686 4.07431 81.0077 3.11565 81.6468C-1.67764 84.8424 0.239655 89.6356 1.19831 94.7484C1.19831 95.068 1.51791 95.0681 1.83746 95.0681C2.79612 95.0681 1.19833 91.2335 1.51789 87.7184C1.51789 85.162 2.47653 83.8838 4.39385 82.9251C6.31116 81.9665 6.95029 81.6468 7.90895 81.6468C10.4654 81.6468 18.1347 81.3272 16.8565 83.5641C15.8978 85.4814 11.424 85.4815 9.18714 85.4815C7.26982 85.4815 5.6721 85.4815 5.03299 87.0793C5.03299 88.0379 5.67206 88.3575 5.99161 87.7184Z" clip-rule="evenodd"></path><path fill="#000" fill-rule="evenodd" d="M6.63073 81.6469C13.3413 71.1017 28.9994 81.0079 25.4843 82.9252C22.9279 84.2034 20.1888 81.9665 17.3128 81.6469C16.6737 81.6469 16.6737 82.6055 17.3128 82.6055C20.1888 82.9251 22.928 85.8011 26.1235 84.2033C33.1537 81.0078 13.9805 67.5865 5.67211 81.0078C5.35255 81.6469 6.31117 82.286 6.63073 81.6469Z" clip-rule="evenodd"></path><path fill="#000" fill-rule="evenodd" d="M10.7848 80.6884C10.7848 81.3275 11.7435 81.0078 11.7435 80.3687C11.7435 79.41 12.3826 78.1318 13.0217 77.1732C13.9803 74.6167 12.0631 73.9777 10.4653 75.8951C9.18709 77.4928 9.18705 79.0905 9.82616 80.3687C9.82616 81.3274 10.4652 81.3275 10.7848 80.6884ZM11.4239 76.5342C11.4239 76.2147 11.4239 76.2147 11.4239 76.5342C11.4239 76.2147 11.1044 76.2147 11.4239 76.5342Z" clip-rule="evenodd"></path><path fill="#000" fill-rule="evenodd" d="M10.4653 78.1313C11.7435 76.214 13.0217 73.977 14.939 73.0184C18.7737 71.1011 26.1234 73.6575 29.3189 76.2139C30.2776 77.1726 35.3904 78.4509 33.7926 79.7291C33.1535 80.3682 31.8753 80.3681 30.9167 80.3681C28.6798 80.3681 27.4015 79.0899 27.082 80.0486C27.082 80.3681 27.082 80.6877 27.4016 80.6877C28.6516 81.4022 29.6053 81.5637 30.5971 81.6463C34.4317 81.9659 36.9882 79.4094 34.1122 77.1725C32.834 76.2139 31.2362 75.8945 30.2775 74.9358C28.0407 73.338 24.5256 71.4206 21.0105 70.7815C13.6608 69.5033 11.7434 73.6576 9.50657 77.4922C9.18702 78.1313 10.1457 78.7704 10.4653 78.1313Z" clip-rule="evenodd"></path><path fill="#000" fill-rule="evenodd" d="M16.5372 72.3797C21.65 70.4624 25.8042 70.7821 30.9171 72.6994C31.5562 73.0189 35.3908 73.658 34.7517 74.2971C33.4735 75.5754 30.652 74.8578 29.6933 74.8578C29.0542 74.8578 29.0542 75.8164 29.6933 75.8164C31.6106 76.1359 32.1953 76.8535 34.4322 76.2144C35.7104 75.8948 36.9885 74.9362 36.3494 73.658C35.7103 71.7407 32.8343 71.7406 31.5561 71.4211C25.4846 68.8647 21.65 69.1843 16.2176 71.7408C15.5785 71.7408 15.8981 72.6993 16.5372 72.3797Z" clip-rule="evenodd"></path><path fill="#000" fill-rule="evenodd" d="M23.8866 87.3988C23.2475 88.9966 21.3302 93.1509 19.4129 95.0682C18.7738 95.3877 19.413 96.3464 20.0521 95.7073C23.2476 93.4705 24.5258 90.9139 24.8454 87.3988C25.1649 86.7597 24.2062 86.7597 23.8866 87.3988Z" clip-rule="evenodd"></path><path fill="#000" fill-rule="evenodd" d="M23.8867 83.8834C23.5672 85.8008 23.8867 88.0376 25.1649 89.6354C27.0823 92.5113 30.2779 91.5526 31.2365 94.7481C31.8756 96.985 31.2365 97.9437 32.1951 97.9437C32.5147 97.9437 32.8343 97.6242 32.8343 97.6242C33.7929 87.3985 25.8041 93.47 25.4845 83.8834C24.8454 83.2443 23.8867 83.2443 23.8867 83.8834Z" clip-rule="evenodd"></path><path fill="#000" fill-rule="evenodd" d="M43.9211 77.7579C39.7669 79.3557 36.2518 77.758 35.9323 79.0362C35.9323 79.3558 35.9323 79.6753 36.2518 79.6753C37.53 79.9949 39.1278 79.9947 40.406 80.3143C47.1166 80.6338 48.7144 75.521 37.2104 75.521C36.5713 75.521 36.5713 76.4798 37.2104 76.4798C41.6842 76.7994 41.0451 76.4797 43.9211 77.7579Z" clip-rule="evenodd"></path><path fill="#000" fill-rule="evenodd" d="M35.7102 73.6574C37.9471 73.6574 44.9772 74.9356 46.2554 77.1724C46.8945 78.1311 45.9359 79.4094 45.6164 80.6876C44.6577 83.8832 43.3795 87.7177 40.8231 89.9546C38.5862 92.1914 35.3906 92.1915 34.7515 96.0261C34.7515 96.6653 35.7102 96.6653 35.7102 96.0261C36.3493 92.1915 40.823 93.7892 44.6576 87.3982C46.2554 84.8417 47.8532 79.7289 47.8532 78.7702C48.4923 73.9769 40.1839 73.0183 35.3906 73.0183C35.0711 72.6987 35.0711 73.6574 35.7102 73.6574Z" clip-rule="evenodd"></path><path fill="#000" fill-rule="evenodd" d="M34.1124 35.9508C32.5146 33.714 32.5146 31.4771 32.195 28.6012C31.8755 27.0034 31.2364 25.7251 31.2364 24.1273C31.2364 22.5296 32.1951 20.6123 32.8342 19.0146C35.0711 10.3866 35.7101 5.91288 52.966 3.0369C65.4286 1.11958 66.7068 2.0782 74.3761 8.78882C76.613 10.7061 79.1694 12.3038 80.4476 14.8602C83.004 19.6535 82.3648 24.7665 82.6844 30.1989C82.6844 31.7967 83.3235 33.3943 83.3235 34.6726C83.3235 36.2703 83.004 37.8681 83.3235 39.4659C83.6431 41.7027 85.2409 43.9397 85.2409 46.1766C85.2409 48.0939 83.6431 49.6915 83.6431 51.6088C83.3236 53.2066 84.2822 54.1654 84.6017 55.7632C84.6017 56.4023 85.5605 56.4023 85.5605 55.7632C85.5605 54.485 84.6018 53.2067 84.9213 51.9285C85.2409 50.0112 86.8387 48.7329 86.8387 46.4961C86.8387 43.9396 84.9213 42.0224 84.9213 39.7855C84.9213 38.1878 85.2409 36.59 84.9213 34.9922C84.9213 33.3945 84.2822 31.7967 84.2822 30.1989C83.9626 24.7665 84.6018 19.3341 82.0454 14.2213C80.4476 11.3453 78.2107 9.7474 75.6543 7.51053C67.3459 0.48036 65.7481 -0.797853 52.6464 1.11947C46.8945 2.07813 41.7817 3.03682 37.3079 6.55191C32.8342 10.067 32.5146 13.582 31.5559 18.6949C31.2364 20.6122 29.7605 22.8258 30.0801 24.7431C30.0801 26.3409 31.2364 27.8051 31.2364 29.4029C31.8755 32.2789 30.9169 33.7855 32.8342 36.342C33.1537 36.9811 34.7515 36.2704 34.1124 35.9508Z" clip-rule="evenodd"></path><path fill="#000" fill-rule="evenodd" d="M81.0865 48.0944C81.7256 50.6509 78.8496 53.8464 83.0038 57.0419C83.3234 57.3615 84.2821 56.7223 83.643 56.4028C81.4061 53.5268 83.0038 52.2486 82.6842 49.6922C82.0451 46.4967 80.7669 47.4553 81.0865 48.0944Z" clip-rule="evenodd"></path><path fill="#000" fill-rule="evenodd" d="M77.8911 49.6921C78.2107 51.6094 77.2521 55.4441 80.4476 57.6809C80.7672 58.0005 81.4062 57.3613 81.0866 57.0418C80.4475 56.0831 80.128 55.1245 79.8085 53.8462C79.8085 53.2071 79.1693 48.4139 78.2107 48.7335C77.8911 49.3726 77.8911 49.3725 77.8911 49.6921Z" clip-rule="evenodd"></path><path fill="#000" fill-rule="evenodd" d="M75.974 54.4852C75.6545 56.4025 75.974 57.6808 77.5718 58.959C77.8913 59.5981 78.8499 58.959 78.2108 58.3199C77.8913 57.6808 77.8913 56.7221 77.5718 55.7635C77.2522 55.1244 76.9326 54.4853 76.9326 54.1657C76.9326 53.5266 75.974 53.8461 75.974 54.4852Z" clip-rule="evenodd"></path><path fill="#000" fill-rule="evenodd" d="M35.8035 43.0971C36.4426 47.2513 37.4013 48.5295 39.6381 52.0446C39.9577 52.6837 40.9163 52.0446 40.5968 51.7251C36.123 41.8189 37.4013 44.6949 36.7622 43.0971C36.4426 42.1384 35.8035 42.458 35.8035 43.0971Z" clip-rule="evenodd"></path><path fill="#000" fill-rule="evenodd" d="M74.376 55.4437C75.0152 59.9175 72.4587 62.7935 69.5828 66.3086C63.8308 72.6997 63.8308 73.9778 61.2744 77.1733C56.8006 82.2862 52.966 81.9666 50.09 78.7711C45.9358 74.2973 48.1727 70.7823 46.8945 70.4628C45.6162 70.4628 46.2554 77.4929 50.4096 81.008C54.5638 84.2035 59.0375 82.2862 62.5525 78.4516C64.4699 76.2147 66.0676 73.6584 67.6654 71.7411C71.5001 66.6282 76.6129 62.474 75.3347 55.7634C75.3347 54.4852 74.376 54.8046 74.376 55.4437Z" clip-rule="evenodd"></path><path fill="#000" fill-rule="evenodd" d="M83.3236 95.0682C83.9627 90.914 81.7258 88.0381 81.4062 83.8839C81.0867 79.0906 85.5604 77.1733 79.8085 60.5565C84.6018 63.113 89.3951 64.3911 94.5079 65.0302C95.147 65.0302 95.147 64.0715 94.5079 64.0715C88.1169 63.1129 83.3236 61.1956 78.5303 58.3196C77.8912 58.0001 77.2521 58.6391 77.2521 59.2782C83.6431 77.4928 79.1693 79.0905 79.4889 84.2033C79.8084 88.038 82.3649 91.5531 81.7258 95.0682C82.3649 95.3878 83.3236 95.7073 83.3236 95.0682Z" clip-rule="evenodd"></path><path fill="#000" fill-rule="evenodd" d="M41.7817 63.7522C28.0409 72.3802 30.5973 70.7824 29.9581 71.1019C29.319 71.4215 29.9582 72.3801 30.2777 72.0605C36.3492 69.8237 38.5862 67.9064 42.4208 64.7109C42.7404 64.3913 42.1012 63.4327 41.7817 63.7522Z" clip-rule="evenodd"></path><path fill="#000" fill-rule="evenodd" d="M43.3794 67.2662C42.1012 69.1835 41.1425 70.4618 41.1425 73.3377C41.1425 73.9768 42.1012 73.9768 42.1012 73.3377C42.4207 72.3791 43.3793 71.1007 44.338 67.5856C44.6575 67.2661 43.6989 66.627 43.3794 67.2662Z" clip-rule="evenodd"></path><path fill="#000" fill-rule="evenodd" d="M48.1728 81.9669C52.327 91.873 61.2745 83.5648 65.7482 84.5234C67.6656 85.1625 64.1505 89.3167 59.0376 89.3167C55.203 89.3167 52.0074 87.3993 49.451 88.3579C47.2141 88.997 46.8946 91.5534 48.4924 93.1512C53.6052 99.2227 67.6655 89.9558 65.4287 94.4295C63.5114 98.2641 57.4399 96.0273 53.2857 95.7078C52.327 95.7078 49.451 95.7076 49.7706 96.3467C50.0901 96.9859 50.4097 96.3469 53.2857 96.6664C56.1617 96.986 59.3572 97.9446 62.2331 97.625C67.346 96.9859 68.6242 91.873 65.1091 91.5534C62.5527 91.2339 53.9248 95.7077 50.0902 92.1926C49.1315 91.2339 48.812 89.9558 50.4097 89.6362C52.3271 89.3167 55.8421 90.9145 59.3572 90.9145C67.346 90.9145 71.5002 82.9256 65.4287 82.606C60.3158 82.606 52.9661 89.6363 49.451 81.3279C48.8119 81.0084 47.8533 81.3277 48.1728 81.9669Z" clip-rule="evenodd"></path><path fill="#000" fill-rule="evenodd" d="M44.6574 84.2033C44.6574 87.3988 43.6987 89.9553 44.9769 95.7073C44.9769 96.3464 45.9356 96.3464 45.9356 95.7073C45.9356 91.5531 46.5747 89.6357 45.6161 84.2033C45.6161 83.5642 44.6574 83.5642 44.6574 84.2033Z" clip-rule="evenodd"></path><path fill="#000" fill-rule="evenodd" d="M68.6239 94.7483C70.8608 88.6768 77.5714 82.6053 80.1278 75.2556C81.7256 71.421 81.7256 64.7103 80.4474 65.0299C79.1692 65.3494 81.7256 67.9059 78.5301 74.6165C75.6541 81.6466 70.5412 85.8009 67.3457 94.4288C67.6653 95.0679 68.3043 95.3874 68.6239 94.7483Z" clip-rule="evenodd"></path><path fill="#000" fill-rule="evenodd" d="M85.2409 85.4812C81.7259 86.4398 82.3649 89.9549 84.2822 91.2331C83.6431 93.47 86.1996 95.7068 88.756 93.7895C88.756 93.7895 89.0755 93.4699 89.3951 93.1503C89.7146 93.7894 90.3538 94.1091 90.9929 94.1091C91.632 94.1092 91.9515 93.4699 91.3124 93.1503C90.3538 92.8308 90.6733 91.8722 89.7147 91.8722C88.756 91.8722 87.1582 93.7896 86.1996 92.5114C85.88 92.1918 85.88 91.233 85.88 91.5526C85.88 91.5526 85.88 91.2332 86.1996 90.9136C86.5191 90.2745 86.1996 89.9548 86.1996 89.9548C85.5605 89.3157 84.9213 89.9549 84.6018 88.6767C84.2822 87.718 85.2409 87.0788 86.1996 86.7593C86.8387 86.4397 86.8387 86.1203 86.8387 85.4812C87.1583 83.5639 88.4365 82.6052 89.7147 83.2443C90.3538 83.5638 90.6733 82.6052 90.0342 82.2856C87.7974 81.327 85.2409 83.2443 85.2409 85.4812Z" clip-rule="evenodd"></path><path fill="#000" fill-rule="evenodd" d="M97.0642 87.0793C98.9815 88.9966 95.786 89.6356 95.4665 89.9551C94.8274 90.5943 95.147 91.2334 95.147 91.5529C94.8274 92.5116 93.5492 92.8312 92.5905 92.8312C91.9514 92.8312 91.9514 93.7898 92.2709 93.7898C95.786 94.7485 96.4252 91.5531 96.4252 90.914C96.4252 90.914 97.0555 90.735 97.3838 90.5943C99.6207 89.6356 100.26 87.0793 98.3425 85.4815C99.9403 83.8838 98.3425 79.7295 94.8274 81.0077C93.5492 78.7708 90.0341 81.3272 90.9927 81.9663C91.3123 82.2859 91.6318 81.9665 92.2709 81.3274C93.5491 80.6883 93.5491 81.9664 93.8687 82.286C94.1883 82.9251 95.4665 82.286 95.786 82.286C96.4251 82.286 97.3839 83.2447 96.7448 84.5229C96.4252 85.4816 95.786 86.1206 97.0642 87.0793Z" clip-rule="evenodd"></path><path fill="#000" fill-rule="evenodd" d="M93.5494 86.4398C93.1255 86.5044 92.9904 86.3596 92.5907 86.7592C92.2711 87.0788 92.2711 87.3984 92.5907 88.0375C92.5907 88.9962 91.9516 89.3158 91.6321 89.3158C90.3539 88.9963 91.3125 87.718 89.3952 88.0375C88.756 87.718 89.3952 87.0788 89.7147 86.7592C90.3538 86.4397 89.7147 85.4811 89.0756 85.8006C87.1583 86.7593 87.4779 89.3158 89.7147 89.3158C90.9929 92.5114 94.8276 90.594 94.508 88.0375C97.7036 86.1202 94.8275 81.6465 92.2711 83.8834C91.632 84.2029 92.2712 85.1616 92.9103 84.5225C93.8689 83.5639 95.1472 85.8007 93.5494 86.4398Z" clip-rule="evenodd"></path><path fill="#000" fill-rule="evenodd" d="M86.8387 93.7896C86.9782 94.3731 87.2697 95.2892 87.7974 96.0265C88.1169 96.6657 89.0756 96.3462 88.7561 95.7071C88.5814 94.8936 88.3107 94.04 87.7974 93.4702C87.4778 92.8311 86.8387 93.1505 86.8387 93.7896Z" clip-rule="evenodd"></path><path fill="#000" fill-rule="evenodd" d="M97.0644 89.955C96.1057 92.1919 96.4253 92.1919 96.7449 94.7483C96.7449 95.3875 97.7035 95.3875 97.7035 94.7483C98.6622 92.1919 98.3426 91.8724 98.0231 89.955C98.0231 89.6355 97.0644 89.3159 97.0644 89.955Z" clip-rule="evenodd"></path></svg>