<svg xmlns="http://www.w3.org/2000/svg" fill="none" viewBox="0 0 100 100"><path fill="#000" fill-rule="evenodd" d="M64.5727 46.2035C56.3433 38.9616 45.1513 50.812 54.6974 51.4703C58.3184 51.7995 62.2685 50.1536 64.5727 48.1786C65.2311 47.8494 64.5727 46.8619 63.9143 47.5203C59.9642 50.4829 53.3807 50.1537 52.7223 48.837C52.3932 47.8494 58.6475 42.5826 63.9143 46.8619C64.2435 47.5202 64.9019 46.5327 64.5727 46.2035Z" clip-rule="evenodd"></path><path fill="#000" fill-rule="evenodd" d="M56.8164 45.322C54.1865 46.6369 56.1589 49.2668 57.8026 48.6093C59.775 47.9519 59.1175 44.6646 56.1589 45.322H56.8164Z" clip-rule="evenodd"></path><path fill="#000" fill-rule="evenodd" d="M56.4877 44.993C52.8717 46.3079 55.1728 50.9101 58.1314 49.5951C61.09 48.2802 59.1176 44.0068 56.4877 44.993ZM56.8165 45.9792C55.5015 46.9654 56.8165 48.2802 57.4739 47.9515C58.4601 47.6227 58.1314 45.9792 56.8165 45.9792Z" clip-rule="evenodd"></path><path fill="#000" fill-rule="evenodd" d="M83.6651 38.9606C80.3733 36.3272 76.4232 37.9731 75.4357 40.6065C74.4482 43.2399 76.094 44.8857 78.3982 44.5566C80.0441 44.5566 83.6651 43.2399 84.3235 40.9357C84.3235 40.2774 83.6651 39.9482 83.3359 40.6065C83.0067 42.2524 78.0691 43.2399 77.0816 42.2524C76.094 41.2649 79.0566 36.6564 83.0067 39.2898C83.6651 39.9482 84.3234 39.2898 83.6651 38.9606Z" clip-rule="evenodd"></path><path fill="#000" fill-rule="evenodd" d="M79.365 41.7653C80.7572 42.2439 81.24 40.3862 80.0828 39.677C79.3911 38.9722 77.0419 41.278 79.365 41.7653Z" clip-rule="evenodd"></path><path fill="#000" fill-rule="evenodd" d="M80.3208 38.9818C79.8603 38.5125 78.6961 38.734 77.7576 39.655C77.0538 40.3458 77.2709 41.9752 78.8958 42.2229C81.6763 43.1787 82.1716 39.9289 80.3208 38.9818ZM79.8474 39.907C79.3826 39.9026 78.9089 40.8282 79.3738 40.8325C79.8343 41.3017 80.308 40.3762 79.8474 39.907Z" clip-rule="evenodd"></path><path fill="#000" fill-rule="evenodd" d="M76.0941 40.6074C74.1191 44.5575 76.4233 47.8492 79.0567 51.141C79.3859 51.7993 80.3733 51.141 79.715 50.4827C78.3983 47.8493 76.0941 43.57 77.0816 40.6074C77.0816 40.2782 76.0941 39.949 76.0941 40.6074Z" clip-rule="evenodd"></path><path fill="#000" fill-rule="evenodd" d="M82.3484 57.0663C84.3234 56.7371 85.6402 54.4329 84.3234 52.4578C83.6651 51.4703 80.7025 48.8368 80.3733 50.1535C80.0441 51.1411 82.0192 51.1411 83.3359 53.1161C84.3234 55.0912 81.3608 56.0787 82.3484 55.4204C82.0192 55.4204 81.3609 55.4203 81.0317 56.0787C80.3733 57.3954 80.3733 58.0538 79.0566 58.7122C78.3983 59.0413 78.0691 58.7122 77.4107 58.7122C74.7773 58.0538 71.4855 61.0164 69.1813 59.0413C67.5354 57.7246 69.8396 56.0788 68.8521 55.7496C67.8646 55.0912 66.8771 58.0537 67.8646 59.3704C68.8522 61.3455 71.8147 61.6747 74.4482 61.0163C77.0816 60.358 76.4232 60.358 77.7399 60.358C78.7274 60.6872 79.3858 60.6872 80.3733 60.0288C81.69 59.3705 81.69 58.383 82.3484 57.0663Z" clip-rule="evenodd"></path><path fill="#000" fill-rule="evenodd" d="M76.0939 40.9362C77.0814 38.6319 79.7149 35.0109 82.6774 33.365C83.3358 33.0359 83.0066 32.0484 82.3482 32.3775C78.069 34.0234 75.7647 36.6568 75.1063 40.607C75.1063 41.5945 76.0939 41.5945 76.0939 40.9362Z" clip-rule="evenodd"></path><path fill="#000" fill-rule="evenodd" d="M65.5604 39.2904C59.3061 37.6445 54.0392 38.3028 50.0891 42.9112C49.7599 43.2404 50.4183 44.228 50.7475 43.5696C54.6976 40.2779 60.6228 39.6195 65.5604 39.9487C66.0139 39.9487 66.2239 39.465 65.5604 39.2904Z" clip-rule="evenodd"></path><path fill="#000" fill-rule="evenodd" d="M77.5984 59.7801C73.9824 61.4237 69.7089 64.3824 68.3939 65.0399C67.079 65.3686 65.7641 65.6972 64.4492 66.3547C63.1342 67.3409 64.1204 68.6558 69.0514 67.3409C73.6536 66.0259 76.9409 63.0674 78.2559 62.4099C79.8995 61.7524 81.5432 61.7525 83.1868 61.4237C84.173 61.095 84.8305 60.1088 84.8305 59.1226C84.8305 58.4651 81.2145 58.4652 80.8857 58.7939C79.8995 59.4514 78.5846 60.4375 77.5984 59.7801Z" clip-rule="evenodd"></path><path fill="#000" fill-rule="evenodd" d="M77.9271 59.4509C77.2696 58.7934 70.695 62.7383 69.3801 63.3957C67.7364 64.3819 66.7502 64.3818 65.1066 64.7105C59.8469 66.6829 64.1204 72.2713 75.9547 64.7105C76.9409 64.0531 77.5984 63.3956 78.5845 63.0669C79.8995 62.4094 81.5431 62.4094 83.1868 62.0807C84.5017 61.752 85.4879 60.437 85.1592 59.122C84.8304 58.1359 83.8442 58.1359 82.858 58.1359C82.2006 58.1359 81.2144 58.136 80.2282 58.4647C79.5707 58.7935 78.9133 59.7796 77.9271 59.4509ZM65.1066 67.0117C64.7778 67.0117 64.7778 67.0117 65.1066 67.0117ZM84.173 59.4509C83.5155 59.4509 81.5431 59.1222 80.8857 59.4509C79.5707 59.7796 78.9133 60.7658 77.5983 60.4371C76.9409 60.4371 70.695 64.7105 70.0375 64.7105C67.7364 66.0254 66.0928 66.0255 64.7778 67.0117C69.0513 67.9979 76.9409 62.0808 77.5983 61.7521C80.5569 60.4371 84.173 61.752 84.173 59.4509ZM65.1066 67.0117C65.1066 66.6829 64.7778 66.6829 65.1066 67.0117C64.7778 67.0117 64.7778 67.0117 65.1066 67.0117ZM84.173 59.4509C84.5017 59.7796 84.173 59.7796 84.173 59.4509C84.5017 59.7796 84.5017 59.7796 84.173 59.4509Z" clip-rule="evenodd"></path><path fill="#000" fill-rule="evenodd" d="M83.665 61.6737C84.3233 64.9655 77.7398 67.9281 74.7772 68.9156C68.1936 70.8907 64.9019 69.5739 63.256 69.9031C62.5976 70.2323 61.6102 71.2198 62.2685 71.549C62.9269 71.8782 62.9268 71.2198 63.5852 70.8906C64.9019 70.5614 68.5228 72.2074 75.1064 70.5615C79.3857 69.2448 85.6401 65.953 84.3234 61.3445C84.6526 60.6862 83.665 61.0154 83.665 61.6737Z" clip-rule="evenodd"></path><path fill="#000" fill-rule="evenodd" d="M82.3484 67.5993C82.6775 72.8662 73.7898 76.1579 68.8521 74.1829C68.1938 73.8537 67.8646 74.8413 68.5229 75.1705C74.7773 78.4622 84.6526 74.512 83.3359 67.5993C83.3359 66.6118 82.3484 66.941 82.3484 67.5993Z" clip-rule="evenodd"></path><path fill="#000" fill-rule="evenodd" d="M73.7896 15.5899C79.7147 29.0862 84.9815 30.732 83.3356 36.6572C83.0065 37.3155 83.9941 37.6447 84.3232 36.9864C86.2983 31.0612 82.019 26.7819 77.0813 18.8817C74.4479 14.9316 74.7771 14.6024 74.1187 14.9315C73.7896 14.9315 73.7896 15.2607 73.7896 15.5899Z" clip-rule="evenodd"></path><path fill="#000" fill-rule="evenodd" d="M83.6648 45.8737C85.6399 50.153 85.3107 55.4197 83.994 59.3698C83.6649 60.0282 84.6523 60.3574 84.9815 59.699C87.2858 54.4322 87.9441 50.1529 84.6523 45.2153C83.994 44.8861 83.3357 45.2153 83.6648 45.8737Z" clip-rule="evenodd"></path><path fill="#000" fill-rule="evenodd" d="M81.0317 71.8784C78.3983 80.7661 74.4481 87.3496 65.2312 86.3621C57.9893 85.7038 53.2116 79.8333 52.8824 81.4792C52.8824 81.8083 53.0516 82.7412 53.3808 82.7412C55.685 83.7287 57.331 85.0454 59.6352 86.0329C64.5729 88.6663 72.1439 88.9955 76.7523 84.0578C80.0441 80.7661 81.3608 76.1576 82.3484 71.5492C82.3484 71.5492 81.3609 71.22 81.0317 71.8784Z" clip-rule="evenodd"></path><path fill="#000" fill-rule="evenodd" d="M63.9144 59.3697C64.2435 59.0406 64.9019 57.3947 65.2311 57.0656C65.5602 56.4072 66.2186 55.4197 65.5603 55.0905C64.9019 54.7613 64.9019 55.4196 64.2436 56.4072C63.256 57.7239 62.2685 58.3823 62.2685 59.0406C61.9393 60.0282 63.256 62.0032 61.6101 64.9658C60.2934 67.27 58.9767 67.27 59.3059 67.9283C59.9643 69.2451 65.8894 63.9782 63.9144 59.3697ZM63.9144 59.3697C63.9144 59.6989 63.5852 59.6989 63.9144 59.3697Z" clip-rule="evenodd"></path><path fill="#000" fill-rule="evenodd" d="M20.4629 42.253C22.1088 41.9238 23.7548 42.2529 25.0715 42.9113C28.0341 39.9487 31.655 35.9986 36.2635 36.3277C36.2635 34.6819 36.5927 34.0236 36.5927 34.0236C36.5927 33.036 36.2634 30.7318 35.6051 29.0859C33.9592 25.1358 29.6799 28.7567 27.0465 29.0859C21.1213 29.4151 19.1462 24.4774 22.1088 25.465C23.0963 25.7941 24.0839 26.4525 25.4006 26.4525C28.6923 26.7816 31.655 25.7942 33.3009 22.8316C38.8969 13.6147 49.7597 16.248 58.9766 15.9189C62.2684 15.5897 67.8644 15.9189 70.1686 12.9563C71.8145 10.6521 69.5103 7.68945 67.8644 6.04357C60.9517 -0.210781 39.2261 -3.50257 26.7174 5.71438C15.5254 14.273 13.2211 30.7318 20.1338 42.5822V42.253H20.4629Z" clip-rule="evenodd"></path><path fill="#000" fill-rule="evenodd" d="M20.7923 41.5948C17.5006 42.9115 16.5131 46.5324 18.1589 48.5075C18.4881 49.1658 19.4756 48.5075 19.1464 47.8491C18.4881 45.874 20.134 42.9115 21.1215 42.2532C22.109 42.2532 21.4507 41.2656 20.7923 41.5948Z" clip-rule="evenodd"></path><path fill="#000" fill-rule="evenodd" d="M72.1439 86.0332C71.8147 87.6791 71.4855 88.6667 71.8147 90.3126C72.8022 93.2752 74.7773 94.9211 76.4231 96.8961C76.7523 97.5545 77.7399 96.8961 77.0815 96.2377C76.094 94.5918 75.1065 93.2752 74.119 91.6293C71.8147 87.35 73.7898 85.3749 72.4731 85.3749C72.4731 85.3749 72.1439 85.7041 72.1439 86.0332Z" clip-rule="evenodd"></path><path fill="#000" fill-rule="evenodd" d="M75.1063 84.7166C80.044 94.2628 79.3856 94.2627 80.044 93.9335C80.3732 93.9335 80.3732 93.6044 80.3732 93.2752C79.7148 88.6668 78.069 86.6917 76.0939 84.0582C75.4356 83.7291 74.7772 84.3875 75.1063 84.7166Z" clip-rule="evenodd"></path><path fill="#000" fill-rule="evenodd" d="M79.0564 81.0953C83.0065 84.7162 82.6773 84.7162 89.59 86.0329C95.186 87.0205 98.807 88.9955 99.1362 88.008C99.4654 87.3497 98.4778 87.0205 95.5152 86.0329C84.9816 82.0828 86.9566 85.3746 79.7147 80.437C79.3855 80.1078 78.7272 80.7661 79.0564 81.0953Z" clip-rule="evenodd"></path><path fill="#000" fill-rule="evenodd" d="M95.1865 95.5788C92.2239 92.6162 90.578 89.9828 86.6279 86.6911C84.6528 85.0452 81.032 82.4118 79.3861 80.4367C79.0569 79.7784 78.0693 80.4367 78.7277 81.095C80.7027 84.0576 92.5531 94.5913 94.5281 96.5664C95.1865 96.5664 95.8449 95.908 95.1865 95.5788Z" clip-rule="evenodd"></path><path fill="#000" fill-rule="evenodd" d="M27.7053 95.5803C20.4634 85.0467 19.8051 84.7175 16.8425 73.1964C16.5133 71.5505 15.5257 69.5754 15.5257 67.9295C15.5257 63.9794 19.1467 63.6502 19.1467 50.154C19.1467 47.5206 23.426 45.8747 25.7302 43.5705C27.3761 41.5954 30.0095 39.9495 32.3137 38.3036C32.9721 37.6453 33.9597 36.6578 34.618 36.9869C36.9223 36.9869 36.2639 43.5705 29.6804 45.2164C29.022 45.5455 29.022 48.179 25.7302 50.8124C25.0719 51.4708 26.3886 54.1041 24.7427 59.7001C24.7427 60.3585 25.401 60.6877 25.7302 60.0293C26.3886 57.3959 26.7178 54.7625 26.7178 51.4707C28.3637 50.154 30.0095 48.5081 30.6679 46.2038C38.8973 43.8996 39.2265 35.3411 34.9472 35.3411C33.6305 35.3411 32.3138 36.3286 31.3263 36.9869C29.022 38.6328 26.3886 39.9496 24.4135 42.2538C22.1093 44.8872 17.5008 46.2039 17.5008 50.154C17.5008 63.6502 13.5507 63.321 13.8798 67.9295C13.8798 69.9046 14.8674 71.8797 15.1966 73.5256C18.4884 86.0343 19.4759 86.0342 26.7178 96.2387C27.3762 96.5679 28.0345 95.9095 27.7053 95.5803Z" clip-rule="evenodd"></path><path fill="#000" fill-rule="evenodd" d="M21.1215 64.9664C22.109 62.333 24.4133 62.0039 26.3883 60.6872C28.6926 59.3705 30.3384 57.7245 32.6427 56.4078C36.2636 54.4328 40.5429 54.4328 41.5305 58.0537C41.5305 58.3829 41.8596 58.3829 42.1888 58.3829C43.1763 58.0537 42.1888 55.0912 39.8846 54.1036C34.6178 51.4702 28.6925 57.0662 25.7299 59.0413C23.0965 60.6872 21.1215 61.3454 20.134 64.308C19.8048 65.2956 20.7923 65.6248 21.1215 64.9664Z" clip-rule="evenodd"></path><path fill="#000" fill-rule="evenodd" d="M30.6678 64.9663C32.3137 62.6621 34.6179 62.9913 36.9222 62.0038C40.2139 60.6871 47.1267 54.1036 48.7726 60.6871C49.1017 61.3454 48.7726 62.0038 49.4309 62.0038C50.7477 62.0038 49.7601 56.4077 45.81 56.0785C43.1766 56.0785 39.8848 58.0536 37.9098 59.3703C34.618 61.3454 33.9596 61.0162 32.3137 62.0038C31.3262 62.6621 29.3512 64.308 30.0096 64.9663C30.0096 65.2955 30.3387 65.2955 30.6678 64.9663Z" clip-rule="evenodd"></path><path fill="#000" fill-rule="evenodd" d="M40.8721 67.9282C41.8596 66.2823 43.5055 65.9532 45.1513 65.2948C47.4556 64.3073 52.0641 58.053 53.7099 65.624C54.6975 69.5742 54.0392 72.5367 51.0766 75.8284C50.7474 76.1576 51.4057 76.816 51.7349 76.4868C55.0266 73.1951 56.0142 69.9033 55.3558 65.2948C55.0266 62.6614 53.3808 60.3572 51.0766 60.3572C49.1015 60.3572 47.4556 61.6739 46.1389 62.9906C43.8347 64.9656 43.8346 64.3073 41.8596 65.624C38.5678 67.9283 40.2137 68.5866 40.8721 67.9282Z" clip-rule="evenodd"></path><path fill="#000" fill-rule="evenodd" d="M49.4308 73.1955C49.4308 74.183 49.1017 74.8414 49.4308 74.8414C50.0892 75.1706 50.7476 73.1955 51.0767 72.5371C51.7351 70.5621 50.4184 67.9287 49.76 68.2579C49.1017 68.587 49.76 69.9038 49.4308 73.1955Z" clip-rule="evenodd"></path><path fill="#000" fill-rule="evenodd" d="M51.7347 67.5991C51.0382 68.2957 50.6899 69.0929 50.4181 70.2325C50.0889 70.8909 51.0765 71.2201 51.4056 70.5617C52.3932 69.5742 52.7223 69.245 52.7223 67.5991C52.7223 67.2699 52.1098 67.224 51.7347 67.5991Z" clip-rule="evenodd"></path><path fill="#000" fill-rule="evenodd" d="M50.4181 72.5372C50.9965 72.7146 51.6679 72.8664 52.0639 72.8664C52.7223 72.8664 52.7223 71.8789 52.0639 71.8789C51.8799 71.7606 50.9612 71.5496 50.4181 71.5497C50.0889 71.5497 49.7597 72.5372 50.4181 72.5372Z" clip-rule="evenodd"></path><path fill="#000" fill-rule="evenodd" d="M49.1014 74.5126C51.7348 79.7794 52.7223 88.0088 52.3931 92.6173C52.0639 95.2507 51.7348 95.5799 52.3931 95.9091C54.039 96.5674 54.039 87.3505 53.7098 84.7171C53.3806 81.0961 52.3932 77.8044 49.7597 73.8543C49.7597 73.5251 48.7722 73.8542 49.1014 74.5126Z" clip-rule="evenodd"></path><path fill="#000" fill-rule="evenodd" d="M16.8422 77.1461C14.538 79.4503 14.2087 81.0962 12.5629 83.4004C11.9045 84.7171 5.65022 85.3754 0.383393 95.9091C0.0542161 96.5674 1.04171 96.8966 1.37088 96.2383C2.68759 93.934 5.65016 90.6422 9.2711 87.6797C10.2586 86.6921 13.5504 85.7046 14.5379 84.0587C15.5255 81.7545 16.1838 79.4502 17.8297 77.4752C18.1589 77.4752 17.5006 76.8169 16.8422 77.1461Z" clip-rule="evenodd"></path><path fill="#000" fill-rule="evenodd" d="M27.7051 49.494C29.3509 50.4815 30.6676 53.4442 30.6676 55.4192C30.6676 56.0776 31.6552 56.4068 31.6552 55.7484C32.6427 52.7858 31.326 49.494 28.3635 48.8357C27.7051 48.1773 27.3759 49.1648 27.7051 49.494Z" clip-rule="evenodd"></path></svg>