<svg xmlns="http://www.w3.org/2000/svg" fill="none" viewBox="0 0 14 14" id="Shipment-Remove--Streamline-Core">
  <desc>
    Shipment Remove Streamline Icon: https://streamlinehq.com
  </desc>
  <g id="shipment-remove--shipping-parcel-shipment-remove-subtract">
    <path id="Union" fill="#fddc5c" fill-rule="evenodd" d="M3.38268 0.5c-0.57955 0 -1.10725 0.333862 -1.35547 0.85757L0.54818 4.47816c-0.073416 0.1549 -0.062364 0.33661 0.029286 0.48147 0.091649 0.14486 0.251118 0.23268 0.422534 0.23268h0.125v6.75959c0 0.2448 0.09725 0.4796 0.27036 0.6527 0.17311 0.1732 0.4079 0.2704 0.65272 0.2704h9.90382c0.2448 0 0.4796 -0.0972 0.6527 -0.2704 0.1731 -0.1731 0.2704 -0.4079 0.2704 -0.6527V5.19231H13c0.1714 0 0.3309 -0.08782 0.4225 -0.23268 0.0917 -0.14486 0.1027 -0.32657 0.0293 -0.48147l-1.479 -3.12059C11.7246 0.833862 11.1969 0.5 10.6173 0.5H3.38268Z" clip-rule="evenodd" stroke-width="1"></path>
    <path id="Union_2" fill="#0c098c" fill-rule="evenodd" d="M6.375 0.5H3.38268c-0.57955 0 -1.10725 0.333862 -1.35547 0.85757L0.54818 4.47816c-0.038832 0.08193 -0.054032 0.17136 -0.046175 0.25887C0.500677 4.75367 0.5 4.77049 0.5 4.78747v7.16443c0 0.4106 0.1631 0.8044 0.453421 1.0947 0.290319 0.2903 0.684079 0.4534 1.094659 0.4534h9.90382c0.4106 0 0.8044 -0.1631 1.0947 -0.4534s0.4534 -0.6841 0.4534 -1.0947V4.78747c0 -0.01698 -0.0007 -0.03379 -0.002 -0.05043 0.0079 -0.08751 -0.0073 -0.17694 -0.0462 -0.25888l-1.479 -3.12059C11.7246 0.833862 11.1969 0.5 10.6173 0.5H7.625l0 4.69231h4.625v6.75959c0 0.0791 -0.0314 0.1549 -0.0873 0.2108 -0.0559 0.0559 -0.1317 0.0873 -0.2108 0.0873H2.04808c-0.07906 0 -0.15488 -0.0314 -0.21078 -0.0873 -0.0559 -0.0559 -0.0873 -0.1317 -0.0873 -0.2108V5.19231h4.625L6.375 0.5ZM5 8.22119c-0.34518 0 -0.625 0.27982 -0.625 0.625s0.27982 0.625 0.625 0.625h4c0.34518 0 0.625 -0.27982 0.625 -0.625s-0.27982 -0.625 -0.625 -0.625H5Z" clip-rule="evenodd" stroke-width="1"></path>
  </g>
</svg>