<svg xmlns="http://www.w3.org/2000/svg" fill="none" viewBox="0 0 14 14" id="Shipping-Box-1--Streamline-Core">
  <desc>
    Shipping Box 1 Streamline Icon: https://streamlinehq.com
  </desc>
  <g id="shipping-box-1--box-package-label-delivery-shipment-shipping">
    <path id="Vector" fill="#fddc5c" d="M12 1H2c-0.26522 0 -0.51957 0.10536 -0.70711 0.29289C1.10536 1.48043 1 1.73478 1 2l0 10c0 0.2652 0.10536 0.5196 0.29289 0.7071C1.48043 12.8946 1.73478 13 2 13h10c0.2652 0 0.5196 -0.1054 0.7071 -0.2929S13 12.2652 13 12V2c0 -0.26522 -0.1054 -0.51957 -0.2929 -0.70711C12.5196 1.10536 12.2652 1 12 1Z" stroke-width="1"></path>
    <path id="Union" fill="#0c098c" fill-rule="evenodd" d="M0.850951 0.850951C1.1557 0.546205 1.56902 0.375 2 0.375h10c0.431 0 0.8443 0.171205 1.149 0.475951 0.3048 0.304749 0.476 0.718069 0.476 1.149049v10c0 0.431 -0.1712 0.8443 -0.476 1.149 -0.3047 0.3048 -0.718 0.476 -1.149 0.476H2c-0.43098 0 -0.8443 -0.1712 -1.149049 -0.476C0.546205 12.8443 0.375 12.431 0.375 12V2c0 -0.43098 0.171205 -0.8443 0.475951 -1.149049ZM2 1.625c-0.09946 0 -0.19484 0.03951 -0.26517 0.10983C1.66451 1.80516 1.625 1.90054 1.625 2v10c0 0.0995 0.03951 0.1948 0.10983 0.2652 0.07033 0.0703 0.16571 0.1098 0.26517 0.1098h10c0.0995 0 0.1948 -0.0395 0.2652 -0.1098 0.0703 -0.0704 0.1098 -0.1657 0.1098 -0.2652V2c0 -0.09946 -0.0395 -0.19484 -0.1098 -0.26517 -0.0704 -0.07032 -0.1657 -0.10983 -0.2652 -0.10983H9.5V6c0 0.18939 -0.107 0.36252 -0.27639 0.44721 -0.1694 0.0847 -0.3721 0.06642 -0.52361 -0.04721L7 5.125 5.3 6.4c-0.15151 0.11363 -0.35421 0.13191 -0.52361 0.04721C4.607 6.36252 4.5 6.18939 4.5 6V1.625H2Z" clip-rule="evenodd" stroke-width="1"></path>
  </g>
</svg>