<svg xmlns="http://www.w3.org/2000/svg" fill="none" viewBox="0 0 24 24" id="Share-Code--Streamline-Sharp-Remix">
  <desc>
    Share Code Streamline Icon: https://streamlinehq.com
  </desc>
  <g id="Remix/Programming/share-code--code-angle-programming-share">
    <path id="Union" fill="#000000" fill-rule="evenodd" d="m14.8839 2.88398 -3.1161 3.11611 3.1161 3.11612 -1.7678 1.76779 -3.99998 -4.00002 -0.88389 -0.88389 0.88389 -0.88388 3.99998 -4 1.7678 1.76777Zm8 2.23223 -4 -4 -1.7678 1.76777 3.1161 3.11611 -3.1161 3.11612 1.7678 1.76779 4 -4.00002 0.8839 -0.88389 -0.8839 -0.88388ZM17.5076 15.6707c0.3676 -0.1131 0.75 -0.1706 1.1345 -0.1706 2.1307 0 3.8579 1.7272 3.8579 3.8579v1.3082l-0.8736 0.2759 -9.5 3 -0.1837 0.058H0v-2.5h11.5573l8.3498 -2.6368c-0.1978 -0.5053 -0.6896 -0.8632 -1.265 -0.8632 -0.1353 0 -0.2699 0.0202 -0.3993 0.06l-5.9527 1.8317c-0.2335 0.0718 -0.4763 0.1083 -0.7206 0.1083l-4.81951 0v-2.5l3.75001 0v-0.7395l-5.68409 -1.218c-0.13186 -0.0283 -0.26634 -0.0425 -0.40119 -0.0425 -1.05747 0 -1.91472 0.8572 -1.91472 1.9147v0.3353H0v-0.3353c0 -2.4382 1.97654 -4.4147 4.41472 -4.4147 0.31093 0 0.62099 0.0328 0.92501 0.098l6.67217 1.4297 0.9881 0.2118v2.318l4.5076 -1.3869Z" clip-rule="evenodd" stroke-width="1"></path>
  </g>
</svg>