<svg xmlns="http://www.w3.org/2000/svg" fill="none" viewBox="0 0 14 14" id="Battery-Alert-1--Streamline-Core-Remix">
  <desc>
    Battery Alert 1 Streamline Icon: https://streamlinehq.com
  </desc>
  <g id="Free Remix/Computer Devices/battery-alert-1--phone-mobile-charge-device-electricity-power-battery-alert-warning">
    <path id="Union" fill="#000000" fill-rule="evenodd" d="M1.625 1.875c-0.43098 0 -0.844302 0.1712 -1.149049 0.47595C0.171205 2.6557 0 3.06902 0 3.5v7c0 0.431 0.171205 0.8443 0.475951 1.149 0.304747 0.3048 0.718069 0.476 1.149049 0.476h8.75c0.431 0 0.8443 -0.1712 1.149 -0.476 0.3048 -0.3047 0.476 -0.718 0.476 -1.149v-0.625h0.875c0.2984 0 0.5845 -0.11853 0.7955 -0.3295 0.211 -0.21098 0.3295 -0.49713 0.3295 -0.7955v-3.5c0 -0.29837 -0.1185 -0.58452 -0.3295 -0.7955 -0.211 -0.21097 -0.4971 -0.3295 -0.7955 -0.3295H12V3.5c0 -0.43098 -0.1712 -0.8443 -0.476 -1.14905 -0.3047 -0.30475 -0.718 -0.47595 -1.149 -0.47595h-8.75Zm-0.26517 1.35983c0.07033 -0.07032 0.16571 -0.10983 0.26517 -0.10983h8.75c0.0995 0 0.1948 0.03951 0.2652 0.10983 0.0703 0.07033 0.1098 0.16571 0.1098 0.26517v1.25c0 0.34518 0.2798 0.625 0.625 0.625h1.375v3.25h-1.375c-0.3452 0 -0.625 0.27982 -0.625 0.625v1.25c0 0.0995 -0.0395 0.1948 -0.1098 0.2652 -0.0704 0.0703 -0.1657 0.1098 -0.2652 0.1098h-8.75c-0.09946 0 -0.19484 -0.0395 -0.26517 -0.1098 -0.07032 -0.0704 -0.10983 -0.1657 -0.10983 -0.2652v-7c0 -0.09946 0.03951 -0.19484 0.10983 -0.26517ZM6.5 4.625c0 -0.41421 -0.33579 -0.75 -0.75 -0.75s-0.75 0.33579 -0.75 0.75v2c0 0.41421 0.33579 0.75 0.75 0.75s0.75 -0.33579 0.75 -0.75v-2Zm-0.75 5.5c-0.55228 0 -1 -0.44772 -1 -1s0.44772 -1 1 -1 1 0.44772 1 1 -0.44772 1 -1 1Z" clip-rule="evenodd" stroke-width="1"></path>
  </g>
</svg>