<svg xmlns="http://www.w3.org/2000/svg" fill="none" viewBox="0 0 14 14" id="Bluetooth-Searching--Streamline-Core-Remix">
  <desc>
    Bluetooth Searching Streamline Icon: https://streamlinehq.com
  </desc>
  <g id="Free Remix/Computer Devices/bluetooth-searching--bluetooth-internet-server-network-wireless-searching-connecting-connection">
    <path id="Union" fill="#000000" fill-rule="evenodd" d="M3.83901 0.0553344c0.22396 -0.1010671 0.48635 -0.06154138 0.67059 0.1010146L8.47652 3.65635c0.14243 0.12567 0.21999 0.30929 0.21076 0.49902 -0.00922 0.18972 -0.10423 0.36496 -0.25819 0.47621L5.15164 7.00001l3.27745 2.36843c0.15396 0.11125 0.24897 0.28649 0.25819 0.47621 0.00923 0.18975 -0.06833 0.37335 -0.21076 0.49905l-3.96692 3.5c-0.18424 0.1625 -0.44663 0.2021 -0.67059 0.101 -0.22395 -0.1011 -0.36791 -0.324 -0.36791 -0.5697V8.21444L0.991117 10.0066c-0.279772 0.2022 -0.670469 0.1393 -0.872645 -0.14052 -0.2021755 -0.27977 -0.1392707 -0.67047 0.140502 -0.87264L3.0175 7.00001 0.258974 5.00658c-0.2797727 -0.20217 -0.3426775 -0.59287 -0.140502 -0.87264 0.202176 -0.27977 0.592873 -0.34268 0.872645 -0.1405L3.4711 5.78558V0.625011c0 -0.245702 0.14396 -0.46861 0.36791 -0.5696766ZM4.7211 8.23111l2.34213 1.69252L4.7211 11.9901V8.23111Zm0 -2.4622V2.00994l2.34213 2.06645L4.7211 5.76891Zm7.0122 4.29899c1.689 -1.68898 1.689 -4.44676 0 -6.13578 -0.1953 -0.19527 -0.1953 -0.51185 0 -0.70711 0.1952 -0.19526 0.5118 -0.19526 0.7071 0 2.0795 2.07955 2.0795 5.47049 0 7.55009 -0.1953 0.1952 -0.5119 0.1952 -0.7071 0 -0.1953 -0.1953 -0.1953 -0.5119 0 -0.7072Zm-1.5199 -4.29588c0.6563 0.65627 0.6563 1.79945 0 2.45571 -0.1952 0.19527 -0.1952 0.51185 0 0.70711 0.1953 0.19526 0.5119 0.19526 0.7071 0 1.0468 -1.04679 1.0468 -2.82314 0 -3.86993 -0.1952 -0.19526 -0.5118 -0.19526 -0.7071 0 -0.1952 0.19527 -0.1952 0.51185 0 0.70711Z" clip-rule="evenodd" stroke-width="1"></path>
  </g>
</svg>