<svg xmlns="http://www.w3.org/2000/svg" fill="none" viewBox="0 0 14 14" id="Command--Streamline-Core-Remix">
  <desc>
    Command Streamline Icon: https://streamlinehq.com
  </desc>
  <g id="Free Remix/Computer Devices/command--mac-command-apple-keyboard">
    <path id="Vector" stroke="#000000" stroke-linecap="round" stroke-linejoin="round" stroke-width="1.25" d="M11.3846 9.76923c0.3195 0 0.6318 0.09474 0.8975 0.27227 0.2656 0.1775 0.4727 0.4298 0.5949 0.7249 0.1223 0.2952 0.1543 0.62 0.092 0.9334 -0.0624 0.3133 -0.2162 0.6011 -0.4421 0.8271 -0.226 0.2259 -0.5138 0.3797 -0.8271 0.4421 -0.3134 0.0623 -0.6382 0.0303 -0.9334 -0.092 -0.2951 -0.1222 -0.5474 -0.3293 -0.7249 -0.5949 -0.17753 -0.2657 -0.27227 -0.578 -0.27227 -0.8975V2.61539c0 -0.3195 0.09474 -0.63182 0.27227 -0.89746 0.1775 -0.26565 0.4298 -0.4727 0.7249 -0.59497 0.2952 -0.12226 0.62 -0.15425 0.9334 -0.09192 0.3133 0.06233 0.6011 0.21618 0.8271 0.4421 0.2259 0.22591 0.3797 0.51375 0.4421 0.8271 0.0623 0.31335 0.0303 0.63815 -0.092 0.93333 -0.1222 0.29517 -0.3293 0.54746 -0.5949 0.72496 -0.2657 0.1775 -0.578 0.27224 -0.8975 0.27224H2.61539c-0.3195 0 -0.63182 -0.09474 -0.89746 -0.27224 -0.26565 -0.1775 -0.4727 -0.42979 -0.59497 -0.72496 -0.12226 -0.29518 -0.15425 -0.61998 -0.09192 -0.93333 0.06233 -0.31335 0.21618 -0.60119 0.4421 -0.8271 0.22591 -0.22592 0.51375 -0.37977 0.8271 -0.4421 0.31335 -0.06233 0.63815 -0.03034 0.93333 0.09192 0.29517 0.12227 0.54746 0.32932 0.72496 0.59497 0.1775 0.26564 0.27224 0.57796 0.27224 0.89746v8.76921c0 0.3195 -0.09474 0.6318 -0.27224 0.8975 -0.1775 0.2656 -0.42979 0.4727 -0.72496 0.5949 -0.29518 0.1223 -0.61998 0.1543 -0.93333 0.092 -0.31335 -0.0624 -0.60119 -0.2162 -0.8271 -0.4421 -0.22592 -0.226 -0.37977 -0.5138 -0.4421 -0.8271 -0.06233 -0.3134 -0.03034 -0.6382 0.09192 -0.9334 0.12227 -0.2951 0.32932 -0.5474 0.59497 -0.7249 0.26564 -0.17753 0.57796 -0.27227 0.89746 -0.27227h8.76921Z"></path>
  </g>
</svg>