<svg xmlns="http://www.w3.org/2000/svg" fill="none" viewBox="0 0 14 14" id="Desktop-Favorite-Star--Streamline-Core-Remix">
  <desc>
    Desktop Favorite Star Streamline Icon: https://streamlinehq.com
  </desc>
  <g id="Free Remix/Computer Devices/desktop-favorite-star--desktop-device-display-like-favorite-star">
    <path id="Union" fill="#000000" fill-rule="evenodd" d="M10.007 0.00124321c0.1459 -0.00280499 0.2896 0.03525359 0.415 0.10987479 0.1253 0.07462 0.2273 0.182825 0.2944 0.312379l0.0038 0.007281 -0.0001 0.00003 0.7864 1.581882 1.7432 0.26469c0.1448 0.02009 0.2811 0.08037 0.3934 0.17405 0.114 0.0951 0.1986 0.2207 0.2438 0.3621 0.0453 0.1414 0.0493 0.29276 0.0117 0.43639 -0.0373 0.14249 -0.1141 0.27153 -0.2215 0.37225l-1.2138 1.15352 0.2561 1.80203c0.0259 0.14184 0.012 0.28823 -0.0402 0.42292 -0.0546 0.14107 -0.149 0.26325 -0.2718 0.35172 -0.1227 0.08848 -0.2684 0.13945 -0.4196 0.14673 -0.1468 0.00708 -0.2925 -0.02737 -0.4205 -0.09926l-1.5476 -0.81934 -1.54768 0.81934c-0.128 0.07189 -0.27375 0.10634 -0.42055 0.09926 -0.15112 -0.00728 -0.29687 -0.05825 -0.4196 -0.14673 -0.12272 -0.08847 -0.21714 -0.21065 -0.2718 -0.35172 -0.05317 -0.13719 -0.06651 -0.28651 -0.03864 -0.43081l0.29572 -1.75585 -1.25776 -1.20424 -0.01018 -0.00975 0.00014 -0.00014c-0.10084 -0.10215 -0.17161 -0.23008 -0.20456 -0.36978 -0.03296 -0.1397 -0.02682 -0.28577 0.01773 -0.42221 0.04455 -0.13644 0.1258 -0.25799 0.23485 -0.35132 0.10904 -0.09333 0.24168 -0.15484 0.38336 -0.17779l0.00743 -0.00121 0.00001 0.00006 1.74498 -0.25581 0.78422 -1.577558c0.06217 -0.129335 0.15875 -0.239108 0.27922 -0.317242 0.1224 -0.0793847 0.26457 -0.12294176 0.41041 -0.12574679ZM12.875 11.5H8.78852l0.5 1.25H10c0.3452 0 0.625 0.2798 0.625 0.625S10.3452 14 10 14H4c-0.34518 0 -0.625 -0.2798 -0.625 -0.625s0.27982 -0.625 0.625 -0.625h0.71148l0.5 -1.25H1.125C0.50368 11.5 0 10.9963 0 10.375v-7.5C0 2.25368 0.50368 1.75 1.125 1.75h3.25c0.34518 0 0.625 0.27982 0.625 0.625S4.72018 3 4.375 3H1.25v7.25h11.5V8.875c0 -0.34518 0.2798 -0.625 0.625 -0.625s0.625 0.27982 0.625 0.625v1.5c0 0.6213 -0.5037 1.125 -1.125 1.125Z" clip-rule="evenodd" stroke-width="1"></path>
  </g>
</svg>