<svg xmlns="http://www.w3.org/2000/svg" fill="none" viewBox="0 0 14 14" id="Desktop-Help--Streamline-Core-Remix">
  <desc>
    Desktop Help Streamline Icon: https://streamlinehq.com
  </desc>
  <g id="Free Remix/Computer Devices/desktop-help--device-help-information-display-desktop-question-info">
    <path id="Union" fill="#000000" fill-rule="evenodd" d="M10.8438 1.35577c0.2513 -0.10408 0.5277 -0.1313 0.7944 -0.07825 0.2668 0.05305 0.5118 0.18401 0.7041 0.37631 0.1923 0.1923 0.3232 0.4373 0.3763 0.70402 0.053 0.26672 0.0258 0.54319 -0.0783 0.79444 -0.104 0.25125 -0.2803 0.46599 -0.5064 0.61708 -0.2261 0.15109 -0.492 0.23173 -0.7639 0.23173 -0.3452 0 -0.625 0.27982 -0.625 0.625v1.08333c0 0.34518 0.2798 0.625 0.625 0.625s0.625 -0.27982 0.625 -0.625v-0.53382c0.2955 -0.07244 0.5777 -0.19609 0.8334 -0.3669 0.4316 -0.28844 0.7681 -0.69841 0.9668 -1.17807 0.1987 -0.47965 0.2506 -1.00745 0.1494 -1.51665 -0.1013 -0.5092 -0.3513 -0.97693 -0.7184 -1.344046 -0.3672 -0.367113 -0.8349 -0.617119 -1.3441 -0.7184055 -0.5092 -0.1012863 -1.037 -0.04930244 -1.5166 0.1493775 -0.4797 0.19868 -0.88967 0.535133 -1.17811 0.966814 -0.28844 0.43168 -0.44239 0.93919 -0.44239 1.45837 0 0.34518 0.27982 0.625 0.625 0.625s0.625 -0.27982 0.625 -0.625c0 -0.27195 0.0806 -0.53779 0.2317 -0.76391 0.1511 -0.22612 0.3659 -0.40235 0.6171 -0.50642Zm0.5262 7.2287c0.4832 0 0.875 -0.39175 0.875 -0.875s-0.3918 -0.875 -0.875 -0.875 -0.875 0.39175 -0.875 0.875 0.3918 0.875 0.875 0.875ZM12.875 11.5H8.78852l0.5 1.25H10c0.3452 0 0.625 0.2798 0.625 0.625S10.3452 14 10 14H4c-0.34518 0 -0.625 -0.2798 -0.625 -0.625s0.27982 -0.625 0.625 -0.625h0.71148l0.5 -1.25H1.125C0.50368 11.5 0 10.9963 0 10.375v-7.5C0 2.25368 0.50368 1.75 1.125 1.75H7c0.34518 0 0.625 0.27982 0.625 0.625S7.34518 3 7 3H1.25v7.25h11.5v-0.875c0 -0.34518 0.2798 -0.625 0.625 -0.625s0.625 0.27982 0.625 0.625v1c0 0.6213 -0.5037 1.125 -1.125 1.125Z" clip-rule="evenodd" stroke-width="1"></path>
  </g>
</svg>