<svg xmlns="http://www.w3.org/2000/svg" fill="none" viewBox="0 0 14 14" id="Dropbox--Streamline-Core-Remix">
  <desc>
    Dropbox Streamline Icon: https://streamlinehq.com
  </desc>
  <g id="Free Remix/Computer Devices/dropbox">
    <path id="Union" fill="#000000" fill-rule="evenodd" d="M9.83904 1.08694c0.21106 -0.142246 0.48736 -0.142246 0.69846 0l3.1874 2.14764c0.1723 0.11616 0.2757 0.31044 0.2757 0.51832s-0.1034 0.40215 -0.2757 0.51831L11.304 5.90239l2.4209 1.63117c0.1723 0.11616 0.2757 0.31044 0.2757 0.51832s-0.1034 0.40215 -0.2757 0.51831l-3.1874 2.14761c-0.0159 0.0108 -0.0323 0.0207 -0.0489 0.0299l-3.13759 2.1141c-0.2111 0.1422 -0.48738 0.1422 -0.69849 0l-3.12351 -2.1047c-0.0229 -0.0116 -0.04525 -0.0247 -0.06692 -0.0393L0.274777 8.57019c-0.172396 -0.11616 -0.275753562 -0.31043 -0.275753562 -0.51831 0 -0.20788 0.103357562 -0.40216 0.275753562 -0.51832L2.6956 5.90239 0.274777 4.27121c-0.172396 -0.11616 -0.275753562 -0.31043 -0.275753562 -0.51831 0 -0.20788 0.103357562 -0.40216 0.275753562 -0.51832L3.46209 1.08694c0.21111 -0.142246 0.48739 -0.142246 0.69849 0l2.83923 1.9131 2.83923 -1.9131ZM4.93411 10.1966l2.0657 -1.39186 2.06766 1.39316 -2.0657 1.3919 -2.06766 -1.3932Zm0.94488 -2.14552 -2.06765 -1.3932 -2.06884 1.394 2.06766 1.3932 2.06883 -1.394ZM8.11946 3.7529l2.06884 1.394 2.0688 -1.394 -2.0688 -1.394 -2.06884 1.394Zm2.07194 5.69087 2.0657 -1.39189 -2.0688 -1.394 -2.06571 1.39189 2.06881 1.394ZM1.7425 3.7529l2.06884 1.394 2.06883 -1.394 -2.06883 -1.394 -2.06884 1.394Z" clip-rule="evenodd" stroke-width="1"></path>
  </g>
</svg>