<svg xmlns="http://www.w3.org/2000/svg" fill="none" viewBox="0 0 14 14" id="Linkedin--Streamline-Core-Remix">
  <desc>
    Linkedin Streamline Icon: https://streamlinehq.com
  </desc>
  <g id="Free Remix/Computer Devices/linkedin--network-linkedin-professional">
    <path id="Union" fill="#000000" fill-rule="evenodd" d="M2.18261 0.000119461c-0.00721 -0.0001575946 -0.01442 -0.0001592635 -0.02163 -0.000005007C1.69754 0.0100322 1.25521 0.1958 0.923661 0.519758 0.592109 0.843717 0.396146 1.28163 0.375496 1.74471c-0.000435 0.00976 -0.000584 0.01953 -0.000447 0.02929 0.006644 0.47339 0.194897 0.92614 0.525856 1.26467 0.330955 0.33854 0.779325 0.53699 1.252445 0.55435 0.00986 0.00037 0.01973 0.00044 0.02959 0.00021 0.477 -0.01074 0.93062 -0.20873 1.26284 -0.55118 0.33222 -0.34244 0.51637 -0.80185 0.51267 -1.27895l-0.00034 -0.01479c-0.0173 -0.46283 -0.21074 -0.901563 -0.54076 -1.226509 -0.33002 -0.324946 -0.7717 -0.5115578 -1.23474 -0.521681539ZM2.59012 5.4392c-0.11226 -0.00811 -0.24403 -0.00843 -0.41834 -0.00843 -0.17421 0 -0.30681 0.00032 -0.42019 0.00845 -0.04805 0.00345 -0.08497 0.0079 -0.11292 0.0124v7.26478c0.02913 0.0044 0.06688 0.0088 0.11518 0.0121 0.11409 0.0078 0.24655 0.0081 0.41793 0.0081 0.17147 0 0.30311 -0.0003 0.41609 -0.0081 0.04442 -0.0031 0.07959 -0.007 0.10711 -0.0111V5.45051c-0.02643 -0.00409 -0.06079 -0.00813 -0.10486 -0.01131Zm1.17902 -0.68691c0.13327 0.219 0.17584 0.46353 0.17584 0.69687v7.29874c0 0.2327 -0.04585 0.4771 -0.18639 0.6943 -0.14475 0.2237 -0.34793 0.354 -0.54418 0.4277 -0.18523 0.0696 -0.37788 0.0944 -0.54035 0.1056 -0.16045 0.0111 -0.33344 0.0111 -0.49046 0.0111h-0.02342c-0.15719 0 -0.3307 0 -0.49195 -0.0111 -0.16324 -0.0112 -0.35621 -0.0358 -0.54173 -0.1047 -0.195876 -0.0727 -0.400553 -0.2015 -0.547316 -0.4247 -0.143147 -0.2176 -0.190512 -0.4634 -0.190512 -0.6982V5.44916c0 -0.23537 0.043965 -0.48128 0.179827 -0.70084 0.141305 -0.22835 0.342937 -0.3654 0.543931 -0.4441 0.18853 -0.07382 0.38477 -0.09996 0.54971 -0.11179 0.16268 -0.01168 0.33827 -0.01167 0.49741 -0.01166h0.02461c0.15897 -0.00001 0.33409 -0.00002 0.496 0.01168 0.16419 0.01185 0.36014 0.0381 0.54841 0.11272 0.20138 0.07981 0.40136 0.21837 0.54057 0.44712Zm4.48917 1.28805c0.36089 -0.48435 0.92031 -0.73826 1.7163 -0.73826 1.37509 0 2.52249 1.09029 2.52249 2.47317v4.91315c-0.0267 0.0038 -0.0605 0.0075 -0.1028 0.0104 -0.1135 0.0078 -0.2464 0.0081 -0.4204 0.0081s-0.3069 -0.0003 -0.4204 -0.0081c-0.0423 -0.0029 -0.0761 -0.0066 -0.1028 -0.0104V8.88386c0 -1.17424 -0.8793 -2.22887 -2.1398 -2.16945 -1.24837 -0.01711 -2.07943 1.01234 -2.07945 2.19915L7.23112 12.717c-0.02833 0.0042 -0.0647 0.0083 -0.11087 0.0115 -0.11461 0.0078 -0.2483 0.0081 -0.42224 0.0081 -0.17404 0 -0.30692 -0.0003 -0.42041 -0.0081 -0.04232 -0.0029 -0.0761 -0.0066 -0.1028 -0.0104V5.44915c0 -0.00974 0.00014 -0.01885 0.00037 -0.02735 0.02189 -0.00089 0.04634 -0.00162 0.07333 -0.00214 0.10638 -0.00207 0.23523 -0.00074 0.37264 0.00228 0.10298 0.00227 0.21699 0.00577 0.32647 0.00914l0.00016 0 0.16778 0.00502c0.00208 0.01108 0.00405 0.02275 0.00587 0.03499 0.00898 0.06058 0.01244 0.12322 0.01094 0.17893 -0.00736 0.2724 0.1626 0.51816 0.42006 0.60741 0.25746 0.08925 0.54307 0.00141 0.70589 -0.21709Zm1.7163 -1.98826c-0.69882 0 -1.35592 0.15113 -1.9102 0.49519 -0.14565 -0.18492 -0.3731 -0.35662 -0.71311 -0.35662 -0.07858 0 -0.1909 -0.00355 -0.32758 -0.00787l-0.00004 0c-0.11069 -0.0035 -0.23736 -0.0075 -0.37501 -0.01053 -0.14344 -0.00316 -0.29238 -0.00493 -0.42448 -0.00236 -0.11853 0.00231 -0.26865 0.00841 -0.39113 0.0329 -0.22893 0.04579 -0.49314 0.16061 -0.68215 0.42589 -0.17619 0.24728 -0.22611 0.54181 -0.22611 0.82047v7.29875c0 0.2304 0.04435 0.4738 0.18286 0.6909 0.14332 0.2247 0.34577 0.3562 0.54283 0.4307 0.18538 0.0701 0.37843 0.0948 0.5412 0.106 0.16087 0.0111 0.33507 0.0111 0.49437 0.0111h0.02376c0.15945 0 0.33413 0 0.49577 -0.0111 0.16355 -0.0112 0.3569 -0.0358 0.54256 -0.1051 0.19666 -0.0735 0.40063 -0.2035 0.54599 -0.4276 0.14113 -0.2175 0.18697 -0.4623 0.18697 -0.6949l0.00034 -3.83434c0 -0.62431 0.38873 -0.96009 0.82408 -0.94904 0.01762 0.00045 0.03526 0.00015 0.05286 -0.00089 0.43405 -0.02573 0.84231 0.32844 0.84231 0.92023v3.83434c0 0.2305 0.0443 0.4738 0.1828 0.6909 0.1434 0.2247 0.3458 0.3562 0.5429 0.4307 0.1854 0.0701 0.3784 0.0948 0.5412 0.106 0.1608 0.0111 0.335 0.0111 0.4943 0.0111h0.0239c0.1593 0 0.3335 0 0.4944 -0.0111 0.1628 -0.0112 0.3558 -0.0359 0.5412 -0.106 0.1971 -0.0745 0.3995 -0.206 0.5428 -0.4307 0.1386 -0.2171 0.1829 -0.4604 0.1829 -0.6909V7.77525c0 -2.11046 -1.7449 -3.72317 -3.77249 -3.72317Z" clip-rule="evenodd" stroke-width="1"></path>
  </g>
</svg>