<svg xmlns="http://www.w3.org/2000/svg" fill="none" viewBox="0 0 14 14" id="Screen-Curve--Streamline-Core-Remix">
  <desc>
    Screen Curve Streamline Icon: https://streamlinehq.com
  </desc>
  <g id="Free Remix/Computer Devices/screen-curve--screen-curved-device-electronics-monitor-diplay-computer">
    <path id="Union" fill="#000000" fill-rule="evenodd" d="M1.2875 0.638233c3.87251 0.540857 7.55217 0.540877 11.4247 0.000067 0.3173 -0.049757 0.6452 0.041616 0.8911 0.248637 0.2462 0.207323 0.3921 0.515543 0.3966 0.837183l0.0002 0.01227v8.36001l0 0.0013c0.001 0.3234 -0.1399 0.6359 -0.3832 0.8493 -0.2451 0.2151 -0.5765 0.3139 -0.8994 0.2682l-0.0026 -0.0003c-1.6378 -0.2332 -3.24151 -0.3677 -4.8399 -0.4037v1.0638H9.5c0.48325 0 0.875 0.3918 0.875 0.875 0 0.4833 -0.39175 0.875 -0.875 0.875h-5c-0.48325 0 -0.875 -0.3917 -0.875 -0.875 0 -0.4832 0.39175 -0.875 0.875 -0.875h1.625v-1.0638c-1.59902 0.036 -3.20332 0.1707 -4.84183 0.4039l-0.0023 0.0004c-0.318514 0.0445 -0.645313 -0.0514 -0.889225 -0.2611 -0.244348 -0.21 -0.38830165 -0.5195 -0.3915703713 -0.8417l-0.0000135302 -0.0114V1.75164C-0.00339448 1.42436 0.139893 1.10769 0.388145 0.894285 0.634725 0.682313 0.966476 0.588012 1.2875 0.638233ZM1.25006 1.89493v8.06256c3.89211 -0.54151 7.60789 -0.54151 11.50004 0V1.89493c-3.89287 0.53195 -7.60721 0.53195 -11.50004 0Z" clip-rule="evenodd" stroke-width="1"></path>
  </g>
</svg>