<svg xmlns="http://www.w3.org/2000/svg" fill="none" viewBox="0 0 14 14" id="Slack--Streamline-Core-Remix">
  <desc>
    Slack Streamline Icon: https://streamlinehq.com
  </desc>
  <g id="Free Remix/Computer Devices/slack">
    <path id="Union" fill="#000000" fill-rule="evenodd" d="M3.39258 2.49999c0 -1.16394 0.94356 -2.107503 2.1075 -2.107503 0.58696 0 1.11787 0.23995 1.5 0.627113 0.38213 -0.387163 0.91304 -0.627113 1.5 -0.627113 1.16394 0 2.10752 0.943563 2.10752 2.107503v1.09025c0.271 -0.12687 0.5735 -0.19775 0.8925 -0.19775 1.1639 0 2.1075 0.94356 2.1075 2.1075 0 0.58696 -0.24 1.11787 -0.6271 1.5 0.3871 0.38212 0.6271 0.91304 0.6271 1.5 0 1.16394 -0.9436 2.10751 -2.1075 2.10751h-1.0903c0.1269 0.271 0.1978 0.5735 0.1978 0.8925 0 1.1639 -0.94358 2.1075 -2.10752 2.1075 -0.58696 0 -1.11787 -0.24 -1.5 -0.6271 -0.38213 0.3871 -0.91304 0.6271 -1.5 0.6271 -1.16394 0 -2.1075 -0.9436 -2.1075 -2.1075l0 -1.0903c-0.27102 0.1269 -0.57348 0.1978 -0.8925 0.1978 -1.16394 0 -2.107502 -0.94357 -2.107502 -2.10751 0 -0.58696 0.239951 -1.11787 0.627112 -1.5 -0.387162 -0.38213 -0.627112 -0.91305 -0.627112 -1.5 0 -1.16394 0.943562 -2.1075 2.107502 -2.1075h1.09026c-0.12688 -0.27102 -0.19776 -0.57348 -0.19776 -0.8925Zm-0.8925 3.8925 1.5 0 1.5 0c0.49291 0 0.8925 -0.39959 0.8925 -0.8925 0 -0.49292 -0.39959 -0.8925 -0.8925 -0.8925h-3c-0.49292 0 -0.8925 0.39958 -0.8925 0.8925 0 0.49291 0.39958 0.8925 0.8925 0.8925Zm2.1075 2.10656 0 0.00094 0 0.00143 0 2.99858c0 0.4929 0.39958 0.8925 0.8925 0.8925 0.49291 0 0.8925 -0.3996 0.8925 -0.8925l0 -1.50001 0 -1.5c0 -0.49292 -0.39959 -0.8925 -0.8925 -0.8925 -0.49261 0 -0.892 0.39908 -0.8925 0.89156Zm7.78502 0.00094c0 0.49291 -0.3996 0.8925 -0.8925 0.8925H8.50008c-0.49292 0 -0.8925 -0.39959 -0.8925 -0.8925 0 -0.49292 0.39958 -0.8925 0.8925 -0.8925l0.00143 0h1.49802l0.00057 0h1.5c0.4929 0 0.8925 0.39958 0.8925 0.8925Zm-3.00002 -6c0 -0.49292 -0.39959 -0.8925 -0.8925 -0.8925 -0.49292 0 -0.8925 0.39958 -0.8925 0.8925v3c0 0.49291 0.39958 0.8925 0.8925 0.8925 0.49291 0 0.8925 -0.39959 0.8925 -0.8925v-3Zm-2.37289 4.5 -0.01961 0.01961 -0.01961 -0.01961 0.01961 -0.01961 0.01961 0.01961Z" clip-rule="evenodd" stroke-width="1"></path>
  </g>
</svg>