<svg xmlns="http://www.w3.org/2000/svg" fill="none" viewBox="0 0 14 14" id="Virtual-Reality--Streamline-Core-Remix">
  <desc>
    Virtual Reality Streamline Icon: https://streamlinehq.com
  </desc>
  <g id="Free Remix/Computer Devices/virtual-reality--gaming-virtual-gear-controller-reality-games-headset-technology-vr-eyewear">
    <path id="Union" fill="#000000" fill-rule="evenodd" d="M4.19485 0.875c-0.28211 0.000049 -0.55933 0.073585 -0.80438 0.21334 -0.24506 0.13975 -0.44948 0.34088 -0.59325 0.58357l-0.0011 0.00188L0.0948738 6.16333C0.0347537 6.25936 0 6.37289 0 6.49454c0 0.34517 0.279822 0.625 0.625 0.625h12.75c0.3451 0 0.625 -0.27983 0.625 -0.625 0 -0.11993 -0.0338 -0.23197 -0.0924 -0.32712l-2.7048 -4.49546 0.0001 -0.00005c-0.1437 -0.24269 -0.3482 -0.44382 -0.5932 -0.58357 -0.2451 -0.139755 -0.5223 -0.213291 -0.80442 -0.21334H4.19485Zm4.99592 10.8574c-0.21388 -0.2709 -0.6069 -0.3172 -0.87782 -0.1033 -0.27093 0.2139 -0.31717 0.6069 -0.10328 0.8778 0.15128 0.1917 0.34379 0.3468 0.56326 0.4538 0.21947 0.107 0.46023 0.1632 0.70441 0.1643 0.34517 0.0016 0.62626 -0.2769 0.62786 -0.6221 0.0016 -0.3452 -0.27692 -0.6263 -0.6221 -0.6279 -0.05623 -0.0003 -0.1117 -0.0132 -0.16231 -0.0379 -0.0506 -0.0246 -0.09505 -0.0604 -0.13002 -0.1047Z" clip-rule="evenodd" stroke-width="1"></path>
  </g>
</svg>