<svg xmlns="http://www.w3.org/2000/svg" fill="none" viewBox="0 0 14 14" id="Voice-Mail--Streamline-Core-Remix">
  <desc>
    Voice Mail Streamline Icon: https://streamlinehq.com
  </desc>
  <g id="Free Remix/Computer Devices/voice-mail--mic-audio-mike-music-microphone">
    <path id="Union" fill="#000000" fill-rule="evenodd" d="M7 1.25c-1.31168 0 -2.37502 1.06333 -2.37502 2.37502v2.24996C4.62498 7.18667 5.68832 8.25 7 8.25c1.31168 0 2.37502 -1.06333 2.37502 -2.37502V3.62502C9.37502 2.31333 8.31168 1.25 7 1.25ZM3.37498 3.62502C3.37498 1.62297 4.99796 0 7 0s3.625 1.62297 3.625 3.62502v2.24996C10.625 7.87703 9.00204 9.5 7 9.5S3.37498 7.87703 3.37498 5.87498V3.62502Zm4.37504 8.45548C10.8482 11.7099 13.25 9.07296 13.25 5.875c0 -0.41421 -0.3358 -0.75 -0.75 -0.75s-0.75 0.33579 -0.75 0.75c0 2.62335 -2.12663 4.75 -4.74998 4.75 -2.62336 0 -4.75002 -2.12665 -4.75002 -4.75 0 -0.41421 -0.33579 -0.75 -0.75 -0.75s-0.75 0.33579 -0.75 0.75c0 3.19796 2.40185 5.8349 5.50002 6.2055V13.25c0 0.4142 0.33578 0.75 0.75 0.75 0.41421 0 0.75 -0.3358 0.75 -0.75v-1.1695Z" clip-rule="evenodd" stroke-width="1"></path>
  </g>
</svg>