<svg xmlns="http://www.w3.org/2000/svg" fill="none" viewBox="0 0 24 24" id="Cog--Streamline-Sharp-Neon">
  <desc>
    Cog Streamline Icon: https://streamlinehq.com
  </desc>
  <g id="cog--work-loading-cog-gear-settings-machine">
    <path id="Subtract" fill-rule="evenodd" stroke="#c71dff" d="M4.2217 19.7782c-0.67108 -0.6711 -1.24651 -1.42 -1.71748 -2.2255l-0.06068 -0.105c-0.49214 -0.8634 -0.86529 -1.79 -1.10882 -2.7542l1.8153 -1.0481C3.05146 13.112 2.99995 12.562 2.99995 12s0.05151 -1.112 0.15007 -1.6455l-1.8153 -1.04803c0.24365 -0.96462 0.61703 -1.89162 1.10952 -2.75536l0.05926 -0.10264c0.47111 -0.80593 1.04678 -1.55522 1.7182 -2.22664 0.03746 -0.03746 0.07516 -0.07462 0.11309 -0.11147l1.81658 1.0488c0.83192 -0.71193 1.79525 -1.27475 2.84858 -1.64704V1.41695C9.9675 1.14265 10.9763 1 11.9999 1s2.0325 0.14267 3 0.41699v2.09513c1.0534 0.37231 2.0168 0.93514 2.8487 1.6471l1.8165 -1.04875c0.0379 0.03682 0.0755 0.07394 0.113 0.11136 1.4152 1.41524 2.405 3.17643 2.887 5.0848l-1.8152 1.04797c0.0985 0.5335 0.15 1.0834 0.15 1.6454s-0.0515 1.1119 -0.15 1.6454l1.8152 1.048c-0.482 1.9083 -1.4718 3.6695 -2.887 5.0848 -0.0375 0.0374 -0.0751 0.0745 -0.113 0.1113l-1.8165 -1.0487c-0.8319 0.7119 -1.7953 1.2748 -2.8487 1.6471v2.0951c-0.9675 0.2743 -1.9764 0.417 -3 0.417s-2.0324 -0.1427 -2.99995 -0.417v-2.0951c-1.05333 -0.3723 -2.01666 -0.9351 -2.84859 -1.6471l-1.81658 1.0488c-0.03793 -0.0368 -0.07562 -0.074 -0.11308 -0.1114Z" clip-rule="evenodd" stroke-width="1"></path>
    <path id="Subtract_2" stroke="#000cfe" d="M12 15c1.6569 0 3 -1.3431 3 -3s-1.3431 -3 -3 -3 -3 1.3431 -3 3 1.3431 3 3 3Z" stroke-width="1"></path>
  </g>
</svg>