<svg xmlns="http://www.w3.org/2000/svg" fill="none" viewBox="0 0 24 24" id="Fingerprint-2--Streamline-Sharp-Neon">
  <desc>
    Fingerprint 2 Streamline Icon: https://streamlinehq.com
  </desc>
  <g id="fingerprint-2--identification-password-touch-id-secure-fingerprint-finger-security">
    <path id="Rectangle 919" stroke="#c71dff" d="M20.777 16c-0.9095 4.008 -4.4938 7 -8.777 7 -4.97056 0 -9 -4.0294 -9 -9l0 -2" stroke-width="1"></path>
    <path id="Rectangle 921" stroke="#c71dff" d="M21 14v-4c0 -4.97056 -4.0294 -9 -9 -9" stroke-width="1"></path>
    <path id="Rectangle 920" stroke="#c71dff" d="M3 9.99964c0 -4.28318 2.99202 -7.86753 7 -8.77698" stroke-width="1"></path>
    <path id="Rectangle 919_2" stroke="#000cfe" d="M16.5 10c0 -2.48528 -2.0147 -4.5 -4.5 -4.5 -1.7668 0 -3.29588 1.01828 -4.03223 2.5" stroke-width="1"></path>
    <path id="Rectangle 923" stroke="#000cfe" d="M12 18.5c2.4853 0 4.5 -2.0147 4.5 -4.5v-2" stroke-width="1"></path>
    <path id="Rectangle 922" stroke="#000cfe" d="m7.5 10 0 4c0 1.7669 1.01828 3.2959 2.5 4.0322" stroke-width="1"></path>
    <path id="Vector 2264" stroke="#c71dff" d="M12 9v6" stroke-width="1"></path>
  </g>
</svg>