<svg xmlns="http://www.w3.org/2000/svg" fill="none" viewBox="0 0 24 24" id="Horizontal-Slider-2--Streamline-Sharp-Neon">
  <desc>
    Horizontal Slider 2 Streamline Icon: https://streamlinehq.com
  </desc>
  <g id="horizontal-slider-2--adjustment-adjust-controls-fader-horizontal-settings-slider">
    <path id="Vector 2003" stroke="#c71dff" d="M1 12h8.5" stroke-width="1"></path>
    <path id="Vector 2008" stroke="#c71dff" d="M14.5 12H23" stroke-width="1"></path>
    <path id="Ellipse 611" stroke="#000cfe" d="M9.5 12a2.5 2.5 0 1 0 5 0 2.5 2.5 0 1 0 -5 0" stroke-width="1"></path>
    <path id="Vector 2006" stroke="#c71dff" d="m7 4 16 0" stroke-width="1"></path>
    <path id="Ellipse 612" stroke="#000cfe" d="M7 4c0 1.38071 -1.11929 2.5 -2.5 2.5S2 5.38071 2 4s1.11929 -2.5 2.5 -2.5S7 2.61929 7 4Z" stroke-width="1"></path>
    <path id="Vector 2007" stroke="#c71dff" d="M1 20h16" stroke-width="1"></path>
    <path id="Ellipse 613" stroke="#000cfe" d="M22 20c0 1.3807 -1.1193 2.5 -2.5 2.5S17 21.3807 17 20s1.1193 -2.5 2.5 -2.5S22 18.6193 22 20Z" stroke-width="1"></path>
  </g>
</svg>