<svg xmlns="http://www.w3.org/2000/svg" fill="none" viewBox="0 0 24 24" id="Iris-Scan--Streamline-Sharp-Neon">
  <desc>
    Iris Scan Streamline Icon: https://streamlinehq.com
  </desc>
  <g id="iris-scan--identification-retina-secure-security-iris-scan-eye-brackets">
    <path id="Intersect" stroke="#000cfe" d="M11.9997 6c-3.75084 0 -5.11477 2.66667 -7.50165 6 2.38688 3.3333 3.75081 6 7.50165 6 3.7508 0 5.1147 -2.6667 7.5016 -6 -2.3869 -3.33333 -3.7508 -6 -7.5016 -6Z" stroke-width="1"></path>
    <path id="Vector 2866" stroke="#000cfe" d="M12 11c0.5523 0 1 0.4477 1 1s-0.4477 1 -1 1 -1 -0.4477 -1 -1 0.4477 -1 1 -1Z" stroke-width="1"></path>
    <path id="Vector 2214" stroke="#c71dff" d="M8 22H2v-6" stroke-width="1"></path>
    <path id="Vector 2818" stroke="#c71dff" d="M22 16v6h-6" stroke-width="1"></path>
    <path id="Vector 2816" stroke="#c71dff" d="M2 8V2h6" stroke-width="1"></path>
    <path id="Vector 2817" stroke="#c71dff" d="M16 2h6v6" stroke-width="1"></path>
  </g>
</svg>