<svg xmlns="http://www.w3.org/2000/svg" fill="none" viewBox="-0.5 -0.5 24 24" id="Memes-Comment-Reply--Streamline-Sharp-Neon">
  <desc>
    Memes Comment Reply Streamline Icon: https://streamlinehq.com
  </desc>
  <g id="memes-comment-reply">
    <path id="Rectangle 19" stroke="#c71dff" d="M19.340029166666667 8.070029166666666V1.2099916666666666l-3.9200625 2.939975H5.619954166666667L1.6999875000000002 1.2099916666666666v11.759995833333335c0 4.871208333333334 3.9489083333333332 8.820020833333334 8.820020833333334 8.820020833333334 4.871208333333334 0 8.820020833333334 -3.9488125 8.820020833333334 -8.820020833333334" stroke-width="1"></path>
    <path id="Vector 2105" stroke="#000cfe" d="M5.619954166666667 9.540016666666668V8.070029166666666h7.840029166666667v1.4699875c0 2.164875 -1.7550916666666667 3.919966666666667 -3.919966666666667 3.919966666666667 -2.1649708333333337 0 -3.919966666666667 -1.7550916666666667 -3.919966666666667 -3.919966666666667Z" stroke-width="1"></path>
    <path id="Vector 2106" stroke="#000cfe" d="M13.459983333333334 9.540016666666668V8.070029166666666h7.840029166666667v1.4699875c0 2.164875 -1.7550916666666667 3.919966666666667 -3.919966666666667 3.919966666666667 -2.1649708333333337 0 -3.9200625 -1.7550916666666667 -3.9200625 -3.919966666666667Z" stroke-width="1"></path>
    <path id="Vector 3994" stroke="#000cfe" d="M1.6999875000000002 8.070029166666666h3.919966666666667" stroke-width="1"></path>
    <path id="Rectangle 2024" stroke="#000cfe" d="M6.600041666666667 15.909962500000002c0.8939333333333334 1.1901541666666666 2.31725 1.9600791666666668 3.92035 1.9600791666666668 0.6967083333333334 0 1.3594916666666668 -0.145475 1.9596 -0.4075791666666667" stroke-width="1"></path>
  </g>
</svg>