<svg xmlns="http://www.w3.org/2000/svg" fill="none" viewBox="-0.75 -0.75 24 24" id="Pen-Draw--Streamline-Sharp-Neon">
  <desc>
    Pen Draw Streamline Icon: https://streamlinehq.com
  </desc>
  <g id="pen-draw">
    <path id="Vector 2802" stroke="#c71dff" d="m20.784187499999998 16.17759375 -3.0860624999999997 3.0860624999999997c-0.83746875 0.83746875 -2.157375 0.8754375 -2.94815625 0.08474999999999999 -0.7905937500000001 -0.7906875 -0.752625 -2.11059375 0.0849375 -2.94815625l2.56096875 -2.56096875c0.8435625 -0.8435625 0.8874375 -2.1714374999999997 0.09825 -2.97496875 -0.79875 -0.8133750000000001 -2.1459375 -0.78046875 -2.9998125 0.07340624999999999l-4.58315625 4.58325c-0.84665625 0.8465625 -2.1837187499999997 0.8747812500000001 -2.9699062499999997 0.062625 -0.76940625 -0.79471875 -0.721875 -2.09746875 0.10659375 -2.9260312500000003l6.46415625 -6.4640625c0.85978125 -0.8598750000000001 0.89878125 -2.21503125 0.087 -3.0268125 -0.80878125 -0.80878125 -2.15775 -0.7734375 -3.0187500000000003 0.079125l-8.8644375 8.7868125" stroke-width="1.5"></path>
  </g>
</svg>