<svg xmlns="http://www.w3.org/2000/svg" fill="none" viewBox="-0.75 -0.75 24 24" id="Rotate-Right--Streamline-Sharp-Neon">
  <desc>
    Rotate Right Streamline Icon: https://streamlinehq.com
  </desc>
  <g id="rotate-right">
    <path id="Ellipse 9" stroke="#c71dff" d="M21.5625 7.5c-2.34375 -2.578125 -4.6875 -6.5625 -10.3125 -6.5625 -2.73504375 0 -5.358065625 1.086496875 -7.292034375 3.0204656250000004S0.9375 8.514956250000001 0.9375 11.25c0 2.7350625 1.086496875 5.35809375 3.0204656250000004 7.2920625C4.469062500000001 19.0531875 5.028300000000001 19.505062499999998 5.625 19.893375" stroke-width="1.5"></path>
    <path id="Ellipse 10" stroke="#c71dff" d="M21.5625 3.75v3.75h-3.75" stroke-width="1.5"></path>
    <path id="Ellipse 11" stroke="#000cfe" d="M21.5625 11.25c0 0.9596250000000001 -0.13378125 1.905375 -0.3909375 2.8125" stroke-width="1.5"></path>
    <path id="Ellipse 13" stroke="#000cfe" d="M20.435624999999998 15.9375c-0.48646875 0.9532499999999999 -1.12275 1.83365625 -1.8935625 2.6045625 -0.511125 0.511125 -1.07034375 0.9629999999999999 -1.6670625000000001 1.3513125" stroke-width="1.5"></path>
    <path id="Ellipse 12" stroke="#000cfe" d="M15 20.85665625c-1.18396875 0.4621875 -2.4543749999999998 0.7059375 -3.75 0.7059375 -1.2956249999999998 0 -2.5660218749999997 -0.24375000000000002 -3.75 -0.7059375" stroke-width="1.5"></path>
  </g>
</svg>