<svg xmlns="http://www.w3.org/2000/svg" fill="none" viewBox="-0.75 -0.75 24 24" id="Round-Anchor-Point--Streamline-Sharp-Neon">
  <desc>
    Round Anchor Point Streamline Icon: https://streamlinehq.com
  </desc>
  <g id="round-anchor-point">
    <path id="Vector 1780" stroke="#000cfe" d="M14.0625 5.625h8.4375" stroke-width="1.5"></path>
    <path id="Vector 4002" stroke="#000cfe" d="M8.4375 5.625H0" stroke-width="1.5"></path>
    <path id="Vector 4001" stroke="#000cfe" d="M18.75 14.0625v-1.48265625C18.75 9.432281249999999 16.8110625 6.737596875 14.0625 5.625" stroke-width="1.5"></path>
    <path id="Vector 4003" stroke="#000cfe" d="M3.75 14.0625v-1.48265625C3.75 9.432281249999999 5.688909375000001 6.737596875 8.4375 5.625" stroke-width="1.5"></path>
    <path id="Rectangle 792" stroke="#c71dff" d="M8.4375 2.8125h5.625v5.625H8.4375V2.8125Z" stroke-width="1.5"></path>
    <path id="Ellipse 523" stroke="#c71dff" d="M15.9375 16.875a2.8125 2.8125 0 1 0 5.625 0 2.8125 2.8125 0 1 0 -5.625 0" stroke-width="1.5"></path>
    <path id="Ellipse 545" stroke="#c71dff" d="M0.9375 16.875a2.8125 2.8125 0 1 0 5.625 0 2.8125 2.8125 0 1 0 -5.625 0" stroke-width="1.5"></path>
  </g>
</svg>