<svg xmlns="http://www.w3.org/2000/svg" fill="none" viewBox="-0.5 -0.5 24 24" id="Snooze--Streamline-Sharp-Neon">
  <desc>
    Snooze Streamline Icon: https://streamlinehq.com
  </desc>
  <g id="snooze--nap-sleep-rest-break-clock-bed-time-moon">
    <path id="Subtract" stroke="#c71dff" d="M19.358333333333334 18.526595833333335c-0.13042916666666668 0.14585833333333334 -0.26517083333333336 0.2884583333333333 -0.404225 0.4275125C16.9771625 20.93105416666667 14.295841666666668 22.041666666666668 11.5 22.041666666666668c-2.7958225000000003 0 -5.47713375 -1.1106125 -7.454079583333334 -3.0875583333333334C2.0689650000000004 16.9771625 0.9583333333333334 14.295841666666668 0.9583333333333334 11.5c0 -2.7958225000000003 1.1106316666666667 -5.47713375 3.0875870833333336 -7.454079583333334C6.02286625 2.068974583333333 8.7041775 0.9583333333333334 11.5 0.9583333333333334c2.795841666666667 0 5.4771625 1.11064125 7.454108333333334 3.0875870833333336 0.13905416666666667 0.13905416666666667 0.27379583333333335 0.28160625 0.404225 0.4274358333333334C18.400191666666665 4.055197083333334 17.35742916666667 3.8333333333333335 16.2917625 3.8333333333333335c-2.0333916666666667 0 -3.9834083333333337 0.80773125 -5.421195833333334 2.24551875C9.432798333333333 7.51663 8.625067083333333 9.466675416666668 8.625067083333333 11.5c0 2.0332958333333337 0.80773125 3.9834083333333337 2.2454995833333333 5.421195833333334C12.308354166666668 18.3588875 14.258370833333334 19.166666666666668 16.2917625 19.166666666666668c1.0656666666666668 0 2.108429166666667 -0.22185416666666669 3.0665708333333335 -0.6400708333333334Z" stroke-width="1"></path>
    <path id="Vector 2995" stroke="#000cfe" d="M16.291666666666668 8.625h4.791666666666667v0.37268625000000005l-3.8333333333333335 5.004617916666667V14.375h4.791666666666667" stroke-width="1"></path>
  </g>
</svg>