<svg xmlns="http://www.w3.org/2000/svg" fill="none" viewBox="-0.75 -0.75 24 24" id="Snooze--Streamline-Sharp-Neon">
  <desc>
    Snooze Streamline Icon: https://streamlinehq.com
  </desc>
  <g id="snooze--nap-sleep-rest-break-clock-bed-time-moon">
    <path id="Subtract" stroke="#c71dff" d="M18.9375 18.12384375c-0.12759375 0.1426875 -0.25940625 0.2821875 -0.3954375 0.41821875C16.60809375 20.476031250000002 13.985062500000002 21.5625 11.25 21.5625c-2.73504375 0 -5.358065625 -1.08646875 -7.292034375 -3.0204375C2.0239875 16.60809375 0.9375 13.985062500000002 0.9375 11.25c0 -2.73504375 1.0864875 -5.358065625 3.0204656250000004 -7.292034375C5.891934375 2.023996875 8.514956250000001 0.9375 11.25 0.9375c2.7350625 0 5.35809375 1.086496875 7.2920625 3.0204656250000004 0.13603125 0.13603125 0.26784375 0.275484375 0.3954375 0.41814375000000004C18.0001875 3.967040625 16.98009375 3.75 15.93759375 3.75c-1.9891874999999999 0 -3.8968125000000002 0.790171875 -5.30334375 2.196703125C9.2277375 7.353225 8.437565625 9.260878125000001 8.437565625 11.25c0 1.98909375 0.790171875 3.8968125000000002 2.196684375 5.30334375C12.04078125 17.95978125 13.94840625 18.75 15.93759375 18.75c1.0425 0 2.06259375 -0.21703125 2.99990625 -0.6261562500000001Z" stroke-width="1.5"></path>
    <path id="Vector 2995" stroke="#000cfe" d="M15.9375 8.4375h4.6875v0.364584375l-3.75 4.895821874999999V14.0625h4.6875" stroke-width="1.5"></path>
  </g>
</svg>