<svg xmlns="http://www.w3.org/2000/svg" fill="none" viewBox="-0.5 -0.5 24 24" id="Star-Circle--Streamline-Sharp-Neon">
  <desc>
    Star Circle Streamline Icon: https://streamlinehq.com
  </desc>
  <g id="star-circle--reward-social-rating-media-rate-it-star">
    <path id="Ellipse 7" stroke="#c71dff" d="M0.9583333333333334 11.5c0 2.795841666666667 1.11064125 5.4771625 3.0875870833333336 7.454108333333334S8.7041775 22.041666666666668 11.5 22.041666666666668c2.795841666666667 0 5.4771625 -1.1106125 7.454108333333334 -3.0875583333333334S22.041666666666668 14.295841666666668 22.041666666666668 11.5c0 -2.7958225000000003 -1.1106125 -5.47713375 -3.0875583333333334 -7.454079583333334S14.295841666666668 0.9583333333333334 11.5 0.9583333333333334C8.7041775 0.9583333333333334 6.02286625 2.068974583333333 4.045920416666666 4.045920416666666S0.9583333333333334 8.7041775 0.9583333333333334 11.5Z" stroke-width="1"></path>
    <path id="Star 4" stroke="#000cfe" d="M13.344791666666667 9.152083333333334 11.5 5.989583333333334l-1.8447916666666668 3.1625 -3.426041666666667 1.0541666666666667 2.371875 2.371875 -0.790625 3.953125L11.5 14.866816666666667l3.6895833333333337 1.6644333333333332 -0.790625 -3.953125L16.770833333333336 10.20625l-3.426041666666667 -1.0541666666666667Z" stroke-width="1"></path>
  </g>
</svg>