<svg xmlns="http://www.w3.org/2000/svg" fill="none" viewBox="-0.75 -0.75 24 24" id="Stopwatch--Streamline-Sharp-Neon">
  <desc>
    Stopwatch Streamline Icon: https://streamlinehq.com
  </desc>
  <g id="stopwatch--notification-alert-bell-wake-clock-alarm">
    <path id="Ellipse 9" stroke="#000cfe" d="M1.19578125 4.3051875c0.31106249999999996 -0.3950625 0.6466875 -0.77334375 1.00584375 -1.1325 0.79771875 -0.79771875 1.68984375 -1.47928125 2.65021875 -2.033625m16.452375 3.166125c-0.31106249999999996 -0.3950625 -0.6466875 -0.77334375 -1.00584375 -1.1325 -0.79771875 -0.79771875 -1.68984375 -1.47928125 -2.65021875 -2.033625" stroke-width="1.5"></path>
    <path id="Vector 68" stroke="#000cfe" d="M11.25 6.7365v5.4841875h3.65615625" stroke-width="1.5"></path>
    <path id="Vector 3981" stroke="#000cfe" d="M11.25 3.0804375V0.33834375" stroke-width="1.5"></path>
    <path id="Ellipse 7" stroke="#c71dff" d="M2.10975 12.220687499999999c0 2.4241875 0.9629999999999999 4.749 2.6771249999999998 6.46321875C6.501 20.3979375 8.825906250000001 21.3609375 11.25 21.3609375c2.4241875 0 4.74909375 -0.9629999999999999 6.46321875 -2.67703125 1.7140312500000001 -1.7142187500000001 2.6771249999999998 -4.03903125 2.6771249999999998 -6.46321875s-0.9630937500000001 -4.749 -2.6771249999999998 -6.463125C15.99909375 4.0434375 13.6741875 3.0804375 11.25 3.0804375c-2.42409375 0 -4.749 0.9629999999999999 -6.463125 2.6771249999999998 -1.7141250000000001 1.7141250000000001 -2.6771249999999998 4.0389375 -2.6771249999999998 6.463125Z" stroke-width="1.5"></path>
  </g>
</svg>