<svg xmlns="http://www.w3.org/2000/svg" fill="none" viewBox="-0.75 -0.75 24 24" id="Two-Finger-Tap--Streamline-Sharp-Neon">
  <desc>
    Two Finger Tap Streamline Icon: https://streamlinehq.com
  </desc>
  <g id="two-finger-tap">
    <path id="Vector 58" stroke="#c71dff" d="M12.168750000000001 13.08778125V6.65625c0 -1.01484375 -0.82265625 -1.8375 -1.8375 -1.8375H8.49375v10.10615625l-3.0939375 -1.03125c-1.1897812499999998 -0.39665625 -2.4185625 0.48890625 -2.4185625 1.7431875V15.843749999999998l4.59375 4.59375m10.10615625 0.91875v-7.350093749999999l-1.83675 -0.918375V6.65625c0 -1.01484375 -0.82265625 -1.8375 -1.8375 -1.8375H9.4125" stroke-width="1.5"></path>
    <path id="Ellipse 549" stroke="#000cfe" d="M19.51875 6.65625c0 -3.0444375 -2.4680625000000003 -5.5125 -5.5125 -5.5125 -0.64434375 0 -1.26271875 0.11053125 -1.8375 0.3136875 -0.57478125 -0.20315625 -1.19315625 -0.3136875 -1.8375 -0.3136875 -3.0444375 0 -5.5125 2.4680625000000003 -5.5125 5.5125" stroke-width="1.5"></path>
  </g>
</svg>