<svg xmlns="http://www.w3.org/2000/svg" fill="none" viewBox="0 0 24 24" id="Graphic-Tablet-Intous-Draw--Streamline-Freehand">
  <desc>
    Graphic Tablet Intous Draw Streamline Icon: https://streamlinehq.com
  </desc>
  <path fill="#000000" fill-rule="evenodd" d="M22.9828 20.204c-0.0689 -0.0583 -0.1582 -0.0868 -0.2481 -0.0793 -0.09 0.0075 -0.1732 0.0504 -0.2316 0.1193 -0.0583 0.0689 -0.0868 0.1581 -0.0793 0.2481 0.0075 0.0899 0.0504 0.1732 0.1193 0.2315 0.1543 0.1467 0.2738 0.326 0.3499 0.5248 0.076 0.1988 0.1067 0.4121 0.0898 0.6243 -0.08 0.5796 -0.8893 1.4789 -1.5588 1.1991 -0.9993 -0.4297 -8.6933 -8.1437 -8.7433 -8.2437 -0.1389 -0.582 -0.1794 -1.1832 -0.1199 -1.7786 0.5496 0 1.4988 0.1499 1.9385 0.1899 0 0.1099 -0.8194 -0.9993 7.3244 6.7648 0.3397 0.4496 0.7594 0 0.4996 -0.3098 -0.3398 -0.4896 -5.246 -5.5158 -6.535 -6.7148 -0.3797 -0.3598 -0.7194 -0.7095 -0.9992 -0.7295 -0.8694 0 -2.4981 -0.5096 -2.9378 -0.1399 -0.6095 0.5096 -0.3797 2.7579 -0.1598 3.2275 0.2198 0.4697 8.1037 7.9939 9.4627 8.5435 0.2439 0.094 0.5072 0.1268 0.7668 0.0955 0.2596 -0.0314 0.5075 -0.1259 0.722 -0.2754 0.2886 -0.2 0.5338 -0.4562 0.721 -0.7532 0.1871 -0.2971 0.3124 -0.6288 0.3682 -0.9754 0.0217 -0.3329 -0.0348 -0.6662 -0.1649 -0.9733 -0.1302 -0.3071 -0.3303 -0.5795 -0.5845 -0.7954Z" clip-rule="evenodd" stroke-width="1"></path>
  <path fill="#000000" fill-rule="evenodd" d="M23.9221 10.5115c-0.07 -5.06612 0.1798 -7.99387 -0.6595 -8.82323C22.0335 0.439231 19.9851 0.419247 18.9059 0.249377c-4.3566 -0.669485 -8.7333 0.279785 -12.99 0.359724 -0.09011 0 -0.17652 0.035794 -0.24023 0.099507 -0.06372 0.063713 -0.09951 0.150127 -0.09951 0.240232 0 0.0901 0.03579 0.17652 0.09951 0.24023 0.06371 0.06371 0.15012 0.09951 0.24023 0.09951 0.87932 0 1.76864 0 2.65796 -0.04996 -0.37472 0.97631 -0.50507 2.02943 -0.37971 3.06764 0.00696 0.10647 0.00696 0.21328 0 0.31975 -1.14912 0.05996 -6.19524 0.35973 -7.0346 0.56957 0.24981 -1.86857 0.99923 -4.06688 2.88778 -3.78709 0.03871 0.00721 0.07847 0.00674 0.11699 -0.00141 0.03853 -0.00815 0.07507 -0.0238 0.10755 -0.04607 0.03247 -0.02227 0.06024 -0.05072 0.08172 -0.08372 0.02149 -0.033 0.03626 -0.06991 0.04347 -0.10862 0.00722 -0.03871 0.00674 -0.07846 -0.0014 -0.11699 -0.00815 -0.03852 -0.0238 -0.075067 -0.04607 -0.107542 -0.02227 -0.032476 -0.05072 -0.060247 -0.08372 -0.081729 -0.033 -0.021481 -0.06991 -0.036252 -0.10862 -0.04347C1.47931 0.309331 0.320197 3.67674 0.150327 6.5945c-0.009992 0.10992 -0.149884357 6.2352 -0.149884357 6.3851C-0.0047226 13.7175 0.0353217 14.4549 0.12035 15.1879c0.259801 2.0584 -0.549577 4.5965 3.56726 5.226 3.23672 0.2047 6.48179 0.2447 9.72249 0.1199 0.7195 0 1.369 0.0799 1.409 -0.3398 0.0084 -0.0504 0.0047 -0.1021 -0.011 -0.1508 -0.0156 -0.0487 -0.0427 -0.0929 -0.079 -0.1289 -0.1399 -0.1399 -0.1499 -0.09 -1.319 -0.09 -13.869304 -0.1598 -11.67099 -0.8493 -12.15062 -4.8462 -0.13563 -1.7552 -0.17566 -3.5165 -0.11991 -5.27599 0 -1.46887 -0.139895 -2.52805 0 -3.91699 0.2598 0 -0.519604 0 1.67871 -0.08993 4.21676 -0.09992 17.86622 0.13989 19.98462 -0.27978 0.09 6.80479 0.8993 10.48199 -0.1499 12.34049 -0.041 0.0689 -0.0531 0.1513 -0.0334 0.2291 0.0197 0.0778 0.0695 0.1445 0.1384 0.1856 0.0689 0.0411 0.1513 0.0531 0.229 0.0334 0.0778 -0.0196 0.1446 -0.0694 0.1856 -0.1383 0.4479 -0.9708 0.7025 -2.0195 0.7495 -3.0876 0.1039 -1.4871 0.1039 -2.9796 0 -4.4666ZM9.12343 4.58604c0 -0.49961 0.37971 -2.99769 0 -3.36741 2.47947 -0.19995 4.96897 -0.246669 7.45427 -0.13989 -0.3094 1.15312 -0.3707 2.35873 -0.1799 3.53728 -2.4081 -0.13989 -4.8862 -0.11991 -7.27437 -0.02998Zm13.63957 0.16987c-1.8449 0.10179 -3.6946 0.07508 -5.5358 -0.07993 0.2498 -1.16587 0.2498 -2.37142 0 -3.53729 0.4863 0.0533 0.9759 0.12324 1.4689 0.20984 1.6587 0.28978 2.3682 0.14989 3.5972 0.99923 0.07 0.04997 0.1499 0.08994 0.1699 0.15988 0.1772 0.73708 0.2776 1.49052 0.2998 2.24827Z" clip-rule="evenodd" stroke-width="1"></path>
  <path fill="#000000" fill-rule="evenodd" d="M3.59768 9.40234c0.2598 -0.7894 2.49808 -0.41968 3.39738 -0.53959 3.30744 -0.32975 6.48504 0.11991 9.84244 -0.30976 0.9309 -0.09794 1.8714 -0.05075 2.7879 0.13989 0.257 0.02493 0.5075 0.09601 0.7394 0.20984 0.3397 0.32975 0.3897 1.50888 0.3897 1.99848 0.0818 1.5652 0.0584 3.1342 -0.07 4.6964 -0.0099 0.0451 -0.0106 0.0917 -0.002 0.1371 0.0087 0.0454 0.0265 0.0885 0.0524 0.1267 0.0259 0.0383 0.0593 0.0709 0.0983 0.0958 0.0389 0.0248 0.0824 0.0415 0.128 0.049s0.0922 0.0056 0.137 -0.0055c0.0449 -0.0112 0.087 -0.0313 0.1237 -0.0593 0.0368 -0.028 0.0675 -0.0631 0.0902 -0.1033 0.0227 -0.0403 0.037 -0.0847 0.0419 -0.1306 0.1748 -1.5958 0.2449 -3.2014 0.2099 -4.8063 0 -2.7579 -0.7195 -2.85782 -1.7587 -3.08764 -1.0072 -0.23888 -2.0455 -0.31978 -3.0776 -0.23982 -3.0677 0.30976 -6.6049 -0.11991 -9.84245 0.14989 -1.14912 0.10991 -3.74712 -0.38971 -4.30669 1.33897 -0.55957 1.7287 -0.23982 3.847 -0.19985 5.7556 0 1.1991 0 2.2482 0.99923 2.9077 0.71945 0.4697 6.99466 -0.0799 7.58416 0.11 0.0374 0.0124 0.0769 0.0174 0.1162 0.0146 0.0393 -0.0028 0.0777 -0.0133 0.113 -0.0309 0.0352 -0.0177 0.0667 -0.0421 0.0925 -0.0718 0.0258 -0.0298 0.0456 -0.0644 0.058 -0.1018 0.0125 -0.0374 0.0175 -0.0769 0.0147 -0.1162 -0.0028 -0.0393 -0.0133 -0.0777 -0.031 -0.113 -0.0176 -0.0352 -0.042 -0.0667 -0.0718 -0.0925 -0.0298 -0.0258 -0.0643 -0.0455 -0.1017 -0.058 -0.3797 -0.1299 -6.99465 -0.05 -7.29442 -0.2498 -0.67948 -0.4697 -0.55957 -1.349 -0.53959 -2.1983 0 -1.8386 -0.2598 -3.8371 0.27979 -5.41586Z" clip-rule="evenodd" stroke-width="1"></path>
</svg>