<svg xmlns="http://www.w3.org/2000/svg" fill="none" viewBox="0 0 48 48" id="Box-Waterproof--Streamline-Plump-Gradient">
  <desc>
    Box Waterproof Streamline Icon: https://streamlinehq.com
  </desc>
  <g id="box-waterproof--box-package-label-delivery-shipment-shipping-waterproof-protect-water-wet">
    <path id="Union" fill="url(#paint0_linear_7979_3973)" fill-rule="evenodd" d="M21.586.585786c.7811-.781048 2.0474-.781048 2.8284 0l3 3.000004c.7811.78105.7811 2.04737 0 2.82842-.781.78105-2.0473.78105-2.8284 0l-3-3c-.781-.78105-.781-2.04738 0-2.828424Zm13 3.000004c.7811-.78105 2.0474-.78105 2.8284 0l3 3c.7811.78105.7811 2.04738 0 2.82842-.781.78109-2.0473.78109-2.8284 0l-3-3c-.781-.78105-.781-2.04737 0-2.82842Zm-23.1716 0c-.781-.78105-2.04734-.78105-2.82839 0-.78104.78105-.78104 2.04737 0 2.82842l2.99999 3c.7811.78109 2.0474.78109 2.8284 0 .7811-.78104.7811-2.04737 0-2.82842l-3-3ZM5.70152 14.2755C9.43235 12.084 15.2857 10 24.0002 10c8.7145 0 14.5679 2.084 18.2987 4.2755 1.8583 1.0916 3.1691 2.1977 4.0324 3.0575.4312.4295.7501.797.9695 1.0697.1097.1363.1945.249.256.3339.0308.0425.0558.0781.0752.1062l.0248.0366.0094.014.0039.0059.0017.0026s.0017.0025-1.6716 1.0981l1.6733-1.0956c.605.9241.3464 2.1638-.5777 2.7688-.9192.6019-2.1507.3492-2.7592-.5631l-.0033-.0047-.0155-.0217c-.0234-.0323-.0675-.0915-.1338-.1739-.1325-.1648-.3538-.4223-.6755-.7428-.6428-.6402-1.689-1.5341-3.2355-2.4425C37.1943 15.916 32.0477 14 24.0002 14c-8.0474 0-13.194 1.916-16.27271 3.7245-1.54651.9084-2.59278 1.8023-3.2355 2.4425-.32171.3205-.54299.578-.67558.7428-.06629.0824-.11038.1416-.13374.1739-.00999.0138-.01618.0226-.01868.0262-.60846.9124-1.84003 1.1653-2.759332.5633-.9241038-.605-1.182735-1.8447-.577669-2.7688L2.00023 20C.326989 18.9044.328622 18.9019.328622 18.9019l.001759-.0026.0039-.0059.009335-.014.024877-.0366c.019369-.0281.044344-.0637.075126-.1062.06156-.0849.146373-.1976.256049-.3339.219349-.2727.538242-.6402.969502-1.0697.86324-.8598 2.17411-1.9659 4.03235-3.0575ZM24 47.5c-4.2793 0-7.4641-.1642-9.5621-.3257-2.4875-.1915-4.4207-2.1247-4.61222-4.6122C9.66416 40.4641 9.5 37.2793 9.5 33c0-4.2793.16416-7.4641.32568-9.5621.19152-2.4875 2.12472-4.4207 4.61222-4.6122C16.5359 18.6642 19.7207 18.5 24 18.5c4.2793 0 7.4641.1642 9.5621.3257 2.4875.1915 4.4207 2.1246 4.6122 4.6122.1615 2.0979.3257 5.2828.3257 9.5621 0 4.2793-.1642 7.4642-.3257 9.5621-.1915 2.4876-2.1247 4.4207-4.6122 4.6122-2.098.1615-5.2828.3257-9.5621.3257Zm6-13c.8284 0 1.5-.6716 1.5-1.5s-.6716-1.5-1.5-1.5h-4c-.8284 0-1.5.6716-1.5 1.5s.6716 1.5 1.5 1.5h4Zm0 6c.8284 0 1.5-.6716 1.5-1.5s-.6716-1.5-1.5-1.5h-6c-.8284 0-1.5.6716-1.5 1.5s.6716 1.5 1.5 1.5h6Z" clip-rule="evenodd"></path>
  </g>
  <defs>
    <linearGradient id="paint0_linear_7979_3973" x1="1.844" x2="56.274" y1="3.838" y2="34.84" gradientUnits="userSpaceOnUse">
      <stop stop-color="#00d078"></stop>
      <stop offset="1" stop-color="#007df0"></stop>
    </linearGradient>
  </defs>
</svg>