<svg xmlns="http://www.w3.org/2000/svg" fill="none" viewBox="0 0 48 48" id="Chat-Bubble-Square-Lock--Streamline-Plump-Neon">
  <desc>
    Chat Bubble Square Lock Streamline Icon: https://streamlinehq.com
  </desc>
  <g id="chat-bubble-square-lock--message-bubble-chat-square-secure-password-lock-encryption">
    <path id="Vector" stroke="#c71dff" stroke-linecap="round" stroke-linejoin="round" d="M7.2906 38.5102c-2.54734 -0.1781 -4.53956 -2.0775 -4.77088 -4.6206C2.25918 31.0255 2 26.6345 2 20.5s0.25918 -10.52547 0.51972 -13.38964C2.75104 4.5673 4.74326 2.66791 7.2906 2.48979 10.6568 2.25441 16.1183 2 24 2c7.8817 0 13.3432 0.25441 16.7094 0.48979 2.5473 0.17813 4.5396 2.07752 4.7709 4.62057C45.7408 9.97453 46 14.3655 46 20.5s-0.2592 10.5255 -0.5197 13.3896c-0.2313 2.5431 -2.2236 4.4425 -4.7709 4.6206 -3.1478 0.2201 -8.1278 0.4569 -15.2057 0.4867l-7.2021 6.1732C17.0042 46.2821 15 45.3603 15 43.6516v-4.7753c-3.2687 -0.0958 -5.81931 -0.2339 -7.7094 -0.3661Z" stroke-width="3"></path>
    <path id="Vector_2" stroke="#000cfe" stroke-linecap="round" stroke-linejoin="round" d="M15.0913 20.3196c0.102 -1.7509 1.3187 -2.9906 3.067 -3.1308C19.4622 17.0843 21.3388 17 24 17c2.7994 0 4.7192 0.0933 6.0152 0.2053 1.6053 0.1387 2.7383 1.2549 2.8601 2.8615 0.0716 0.9446 0.1247 2.222 0.1247 3.9332 0 1.7112 -0.0531 2.9886 -0.1247 3.9332 -0.1218 1.6066 -1.2548 2.7228 -2.8601 2.8615C28.7192 30.9067 26.7994 31 24 31s-4.7192 -0.0933 -6.0152 -0.2053c-1.6053 -0.1387 -2.7383 -1.2549 -2.8601 -2.8615C15.0531 26.9886 15 25.7112 15 24c0 -1.5631 0.038 -2.7642 0.0913 -3.6804Z" stroke-width="3"></path>
    <path id="Vector_3" stroke="#000cfe" stroke-linecap="round" stroke-linejoin="round" d="M24 23v2" stroke-width="3"></path>
    <path id="Vector_4" stroke="#000cfe" stroke-linecap="round" stroke-linejoin="round" d="m28.8915 17.1241 -0.1343 -3.5441C28.6604 11.023 26.5593 9 24.0004 9s-4.66 2.023 -4.7568 4.5801l-0.1342 3.5431" stroke-width="3"></path>
    <path id="Vector_5" stroke="#000cfe" stroke-linecap="round" stroke-linejoin="round" d="m28.8915 17.1241 -0.1343 -3.5441C28.6604 11.023 26.5593 9 24.0004 9s-4.66 2.023 -4.7568 4.5801l-0.1342 3.5431" stroke-width="3"></path>
  </g>
</svg>