<svg xmlns="http://www.w3.org/2000/svg" fill="none" viewBox="0 0 48 48" id="Smiley-Laughing-1--Streamline-Plump-Neon">
  <desc>
    Smiley Laughing 1 Streamline Icon: https://streamlinehq.com
  </desc>
  <g id="smiley-laughing-1">
    <path id="Vector" stroke="#000cfe" stroke-linecap="round" stroke-linejoin="round" d="M29 15s0.875 -2 3.5 -2 3.5 2 3.5 2" stroke-width="1"></path>
    <path id="Vector_2" stroke="#000cfe" stroke-linecap="round" stroke-linejoin="round" d="M19 15s-0.875 -2 -3.5 -2 -3.5 2 -3.5 2" stroke-width="1"></path>
    <path id="Vector_3" stroke="#000cfe" stroke-linecap="round" stroke-linejoin="round" d="M24 39c5.2406 0 9.6966 -3.3594 11.332 -8.0421 0.6626 -1.8973 -1.2845 -3.4237 -3.2626 -3.0691 -2.1432 0.3842 -4.9852 0.7476 -8.0694 0.7476s-5.9262 -0.3634 -8.0694 -0.7476c-1.9781 -0.3546 -3.9252 1.1718 -3.2626 3.0691C14.3034 35.6406 18.7594 39 24 39Z" stroke-width="1"></path>
    <path id="Vector_4" stroke="#000cfe" stroke-linecap="round" stroke-linejoin="round" d="M44.8926 21.5387c1.2998 1.2999 1.0991 3.6081 -0.4483 5.1556 -1.5475 1.5474 -3.8557 1.7481 -5.1556 0.4483 -1.6169 -1.6169 -2.2622 -4.2054 -2.5196 -6.0605 -0.1711 -1.2337 0.8293 -2.2341 2.063 -2.063 1.8551 0.2574 4.4436 0.9027 6.0605 2.5196Z" stroke-width="1"></path>
    <path id="Vector_5" stroke="#000cfe" stroke-linecap="round" stroke-linejoin="round" d="M2.60743 21.5387c-1.29986 1.2999 -1.09915 3.6081 0.44831 5.1556 1.54745 1.5474 3.85565 1.7481 5.15551 0.4483 1.61691 -1.6169 2.26225 -4.2054 2.51965 -6.0605 0.1711 -1.2337 -0.82927 -2.2341 -2.06296 -2.063 -1.85515 0.2574 -4.4436 0.9027 -6.06051 2.5196Z" stroke-width="1"></path>
    <path id="Vector_6" stroke="#c71dff" stroke-linecap="round" stroke-linejoin="round" d="M3.50148 32C6.70176 40.1947 14.6738 46 24.0017 46s17.3 -5.8053 20.5003 -14M3.50148 16C6.70176 7.80528 14.6738 2 24.0017 2s17.3 5.80529 20.5003 14" stroke-width="1"></path>
  </g>
</svg>