<svg viewBox="0 0 14 14" fill="none" xmlns="http://www.w3.org/2000/svg" id="Shipment-Add--Streamline-Core">
  <desc>
    Shipment Add Streamline Icon: https://streamlinehq.com
  </desc>
  <g id="shipment-add--shipping-parcel-shipment-add">
    <path id="Vector" d="M0.5 4.5h13v8a1 1 0 0 1 -1 1h-11a1 1 0 0 1 -1 -1v-8Z" fill="#d7e0ff" stroke-width="1"></path>
    <path id="Vector_2" d="M0.5 4.5 2 1.61A2 2 0 0 1 3.74 0.5h6.52a2 2 0 0 1 1.79 1.11L13.5 4.5" fill="#ffffff" stroke-width="1"></path>
    <path id="Vector_3" d="M7 0.5v4" stroke="#4147d5" stroke-linecap="round" stroke-linejoin="round" stroke-width="1"></path>
    <path id="Vector_4" d="M0.5 4.5h13v8a1 1 0 0 1 -1 1h-11a1 1 0 0 1 -1 -1v-8Z" stroke="#4147d5" stroke-linecap="round" stroke-linejoin="round" stroke-width="1"></path>
    <path id="Vector_5" d="M0.5 4.5 2 1.61A2 2 0 0 1 3.74 0.5h6.52a2 2 0 0 1 1.79 1.11L13.5 4.5" stroke="#4147d5" stroke-linecap="round" stroke-linejoin="round" stroke-width="1"></path>
    <path id="Vector_6" d="M9.5 9h-5" stroke="#4147d5" stroke-linecap="round" stroke-linejoin="round" stroke-width="1"></path>
    <path id="Vector_7" d="M7 6.5v5" stroke="#4147d5" stroke-linecap="round" stroke-linejoin="round" stroke-width="1"></path>
  </g>
</svg>