<svg xmlns="http://www.w3.org/2000/svg" fill="none" viewBox="0 0 24 24" id="Amazon-Prime-Video-Logo-2--Streamline-Logos">
  <desc>
    Amazon Prime Video Logo 2 Streamline Icon: https://streamlinehq.com
  </desc>
  <path fill="#000000" fill-rule="evenodd" d="M11.5 1.5a1 1 0 1 1 -2 0 1 1 0 0 1 2 0Zm10.803 1.254c0.41 0.16 0.947 0.545 0.947 1.246 0 0.703 -0.315 1.232 -0.817 1.55 -0.448 0.283 -0.981 0.361 -1.408 0.375a5.208 5.208 0 0 1 -0.511 -0.01c0.144 0.211 0.321 0.32 0.542 0.337 0.371 0.028 0.601 -0.06 0.725 -0.129a0.693 0.693 0 0 0 0.129 -0.09l0.015 -0.015 -0.004 0.006 -0.006 0.006 -0.003 0.005 -0.002 0.002 -0.001 0.002s-0.001 0.001 0.591 0.461l0.592 0.46 -0.002 0.003 -0.002 0.003 -0.006 0.007 -0.013 0.016a1.423 1.423 0 0 1 -0.152 0.156 2.188 2.188 0 0 1 -0.41 0.29c-0.364 0.202 -0.883 0.363 -1.563 0.313 -0.786 -0.059 -1.355 -0.503 -1.703 -1.038A3.191 3.191 0 0 1 18.75 5c0 -0.708 0.274 -1.28 0.704 -1.686 0.413 -0.39 0.937 -0.598 1.423 -0.679 0.48 -0.08 0.996 -0.048 1.426 0.12ZM20.48 4.408c0.16 0.016 0.33 0.023 0.495 0.018 0.323 -0.01 0.54 -0.07 0.655 -0.143a0.21 0.21 0 0 0 0.105 -0.14 1.33 1.33 0 0 0 -0.612 -0.028c-0.264 0.044 -0.49 0.15 -0.64 0.29l-0.003 0.003ZM8.5 9.5a1 1 0 1 1 -2 0 1 1 0 0 1 2 0Zm2.5 3.25c-0.31 0 -0.75 0.335 -0.75 1s0.44 1 0.75 1 0.75 -0.335 0.75 -1 -0.44 -1 -0.75 -1Zm0 -1.5c0.269 0 0.52 0.05 0.75 0.138V9.5h1.5v6.75h-1.5v-0.138c-0.23 0.089 -0.481 0.138 -0.75 0.138 -1.347 0 -2.25 -1.232 -2.25 -2.5s0.903 -2.5 2.25 -2.5Zm9.25 2.5c0 -0.665 0.44 -1 0.75 -1s0.75 0.335 0.75 1 -0.44 1 -0.75 1 -0.75 -0.335 -0.75 -1Zm0.75 -2.5c-1.347 0 -2.25 1.232 -2.25 2.5s0.903 2.5 2.25 2.5 2.25 -1.232 2.25 -2.5 -0.903 -2.5 -2.25 -2.5Zm-20.185 0.555 2 4.5h1.37l2 -4.5 -1.37 -0.61L3.5 14.153l-1.315 -2.958 -1.37 0.61ZM6.75 16.25V11.5h1.5v4.75h-1.5Zm11.5 -3.593c0 -0.7 -0.537 -1.087 -0.947 -1.246 -0.43 -0.167 -0.945 -0.2 -1.426 -0.119 -0.486 0.081 -1.01 0.288 -1.423 0.679 -0.43 0.406 -0.704 0.978 -0.704 1.686 0 0.563 0.152 1.19 0.49 1.71 0.35 0.535 0.918 0.98 1.704 1.038 0.68 0.05 1.2 -0.111 1.563 -0.313a2.183 2.183 0 0 0 0.525 -0.404l0.037 -0.042 0.013 -0.016 0.006 -0.007 0.002 -0.003 0.002 -0.002 -0.592 -0.461c-0.592 -0.46 -0.591 -0.462 -0.591 -0.462l0 -0.001 0.003 -0.003 0.003 -0.004 0.006 -0.006 0.004 -0.006 -0.015 0.015a0.693 0.693 0 0 1 -0.129 0.09c-0.123 0.068 -0.354 0.156 -0.725 0.129 -0.23 -0.017 -0.41 -0.134 -0.558 -0.36a1.283 1.283 0 0 1 -0.076 -0.133c0.324 -0.005 0.68 -0.024 1.008 -0.076 0.365 -0.058 0.792 -0.169 1.144 -0.412 0.391 -0.27 0.676 -0.697 0.676 -1.271Zm-2.055 0.202a4.62 4.62 0 0 1 -0.49 0.048c0.121 -0.063 0.263 -0.11 0.418 -0.135a1.49 1.49 0 0 1 0.457 -0.008 2.004 2.004 0 0 1 -0.385 0.095ZM12 21c-4.016 0 -7.829 -1.697 -9.737 -2.547C1.513 18.12 1.057 17.916 1 18c-0.202 0.296 4.36 4.5 11 4.5 5.5 0 9.596 -2.404 9 -3 -0.26 -0.26 -1.15 -0.008 -2.444 0.36C16.884 20.334 14.536 21 12 21Zm10.944 -3.125c0.732 0.733 -0.895 4.063 -1.417 3.863 -0.262 -0.1 -0.067 -0.684 0.143 -1.311 0.214 -0.64 0.443 -1.326 0.215 -1.586 -0.24 -0.273 -1.014 -0.203 -1.7 -0.14 -0.603 0.055 -1.137 0.103 -1.181 -0.093 -0.136 -0.61 3.208 -1.465 3.94 -0.733ZM9.75 3v4.5h1.5V3h-1.5Zm-3.5 1.5V2.75h1.5v0.073c0.407 -0.074 0.843 -0.073 1.189 -0.073l0.061 0v1.5c-0.543 0 -0.903 0.008 -1.138 0.087a0.323 0.323 0 0 0 -0.097 0.045 0.338 0.338 0 0 0 -0.015 0.118v3h-1.5v-3Zm1.518 -0.124s0 0.002 -0.003 0.004l0.003 -0.004Zm-0.005 0.008 -0.001 0.001 0 -0.001ZM3.5 4.25c-0.31 0 -0.75 0.335 -0.75 1s0.44 1 0.75 1 0.75 -0.335 0.75 -1 -0.44 -1 -0.75 -1ZM2.25 3.165A2.06 2.06 0 0 1 3.5 2.75c1.347 0 2.25 1.232 2.25 2.5s-0.903 2.5 -2.25 2.5a2.06 2.06 0 0 1 -1.25 -0.415V9H0.75V2.75h1.5v0.415Zm9.5 -0.415V7.5h1.5V4.437l0.01 -0.004c0.223 -0.101 0.488 -0.183 0.74 -0.183a0.7 0.7 0 0 1 0.25 0.038V7.5h1.5V4.438l0.01 -0.005a1.86 1.86 0 0 1 0.74 -0.183 0.7 0.7 0 0 1 0.25 0.038V7.5h1.5V4a0.749 0.749 0 0 0 -0.093 -0.365 1.564 1.564 0 0 0 -0.377 -0.462c-0.288 -0.24 -0.71 -0.423 -1.28 -0.423 -0.547 0 -1.033 0.168 -1.36 0.317l-0.002 0c-0.279 -0.185 -0.655 -0.317 -1.138 -0.317 -0.269 0 -0.523 0.04 -0.75 0.1v-0.1h-1.5Z" clip-rule="evenodd" stroke-width="1"></path>
</svg>