<svg xmlns="http://www.w3.org/2000/svg" fill="none" viewBox="0 0 24 24" id="Mubi-Logo--Streamline-Logos">
  <desc>
    Mubi Logo Streamline Icon: https://streamlinehq.com
  </desc>
  <path fill="#000000" fill-rule="evenodd" d="M7 4a3 3 0 1 1 -6 0 3 3 0 0 1 6 0Zm8 0a3 3 0 1 1 -6 0 3 3 0 0 1 6 0ZM4 15a3 3 0 1 0 0 -6 3 3 0 0 0 0 6Zm3 5a3 3 0 1 1 -6 0 3 3 0 0 1 6 0Zm5 -5a3 3 0 1 0 0 -6 3 3 0 0 0 0 6Zm3 5a3 3 0 1 1 -6 0 3 3 0 0 1 6 0Zm5 -5a3 3 0 1 0 0 -6 3 3 0 0 0 0 6Z" clip-rule="evenodd" stroke-width="1"></path>
</svg>