<svg xmlns="http://www.w3.org/2000/svg" fill="none" viewBox="0 0 24 24" id="Youtube-Studio-Logo--Streamline-Logos">
  <desc>
    Youtube Studio Logo Streamline Icon: https://streamlinehq.com
  </desc>
  <path fill="#000000" fill-rule="evenodd" d="m11.486 0.809 -9 5.4A1 1 0 0 0 2 7.066v9.868a1 1 0 0 0 0.486 0.857l9 5.4a1 1 0 0 0 1.028 0l9 -5.4a1 1 0 0 0 0.486 -0.857V7.066a1 1 0 0 0 -0.485 -0.857l-9 -5.4a1 1 0 0 0 -1.03 0Zm0.262 3.76a0.5 0.5 0 0 1 0.504 0l6 3.5a0.5 0.5 0 0 1 0.248 0.431v7a0.5 0.5 0 0 1 -0.248 0.432l-6 3.5a0.5 0.5 0 0 1 -0.504 0l-6 -3.5A0.5 0.5 0 0 1 5.5 15.5v-7a0.5 0.5 0 0 1 0.248 -0.432l6 -3.5ZM6.5 8.786v6.426L12 18.42l5.5 -3.208V8.787L12 5.58 6.5 8.787Zm9 3.213L10 9v6l5.5 -3Z" clip-rule="evenodd" stroke-width="1"></path>
</svg>