<svg xmlns="http://www.w3.org/2000/svg" fill="none" viewBox="0 0 24 24" id="Google-Photos-Logo--Streamline-Logos-Block">
  <desc>
    Google Photos Logo Streamline Icon: https://streamlinehq.com
  </desc>
  <path fill="#000000" fill-rule="evenodd" d="M5 1a4 4 0 0 0 -4 4v14a4 4 0 0 0 4 4h14a4 4 0 0 0 4 -4V5a4 4 0 0 0 -4 -4H5Zm3 6.636a4 4 0 0 1 4 4V4.364c0 -0.201 0.163 -0.364 0.364 -0.364a4 4 0 1 1 0 8h7.272c0.201 0 0.364 0.163 0.364 0.364a4 4 0 1 1 -8 0v7.272a0.364 0.364 0 0 1 -0.364 0.364 4 4 0 1 1 0 -8H4.364A0.364 0.364 0 0 1 4 11.636a4 4 0 0 1 4 -4Z" clip-rule="evenodd" stroke-width="1"></path>
</svg>