<svg xmlns="http://www.w3.org/2000/svg" fill="none" viewBox="0 0 24 24" id="Imgur-Logo--Streamline-Logos-Block">
  <desc>
    Imgur Logo Streamline Icon: https://streamlinehq.com
  </desc>
  <path fill="#000000" fill-rule="evenodd" d="M5 1a4 4 0 0 0 -4 4v14a4 4 0 0 0 4 4h14a4 4 0 0 0 4 -4V5a4 4 0 0 0 -4 -4H5Zm5.008 4.134c3.04 -0.566 4.895 -0.686 8.297 -0.616a1.167 1.167 0 0 1 1.141 1.117c0.143 3.39 0.024 5.259 -0.62 8.346a1.17 1.17 0 0 1 -0.403 0.664l-4.737 4.71a0.5 0.5 0 0 1 -0.353 0.145h-5A3.833 3.833 0 0 1 4.5 15.667v-5a0.5 0.5 0 0 1 0.144 -0.351L9.25 5.635c0.172 -0.259 0.443 -0.442 0.758 -0.5Zm8.439 0.543c0.134 3.175 0.034 4.946 -0.521 7.713a48.23 48.23 0 0 1 -0.08 0.387 0.167 0.167 0 0 1 -0.28 0.084l-1.637 -1.637a0.5 0.5 0 0 0 -0.692 -0.014l-3.41 3.147a0.14 0.14 0 0 1 -0.08 0.037 0.487 0.487 0 0 1 -0.185 -0.016 1.837 1.837 0 0 1 -0.37 -0.143c-0.318 -0.16 -0.78 -0.47 -1.386 -1.076 -0.606 -0.606 -0.917 -1.068 -1.076 -1.386a1.83 1.83 0 0 1 -0.143 -0.37 0.465 0.465 0 0 1 -0.014 -0.193 0.136 0.136 0 0 1 0.044 -0.082l3.37 -3.11A0.5 0.5 0 0 0 12 8.295L10.104 6.4a0.167 0.167 0 0 1 0.088 -0.281l0.262 -0.049c2.806 -0.51 4.584 -0.618 7.83 -0.551 0.088 0.002 0.16 0.072 0.163 0.16ZM8.521 9.145a0.5 0.5 0 0 0 0.958 0 0.5 0.5 0 0 0 0 -0.957 0.5 0.5 0 0 0 -0.958 0 0.5 0.5 0 0 0 0 0.957Zm-1.854 1.022a0.5 0.5 0 0 1 0.5 0.5v0.166h0.166a0.5 0.5 0 0 1 0 1h-0.166V12a0.5 0.5 0 1 1 -1 0v-0.167H6a0.5 0.5 0 1 1 0 -1h0.167v-0.166a0.5 0.5 0 0 1 0.5 -0.5Zm0.333 4a0.5 0.5 0 0 1 0.5 0.5v0.166h0.167a0.5 0.5 0 1 1 0 1H7.5V16a0.5 0.5 0 1 1 -1 0v-0.167h-0.167a0.5 0.5 0 0 1 0 -1H6.5v-0.166a0.5 0.5 0 0 1 0.5 -0.5Zm6.333 1.333a0.5 0.5 0 0 1 0.5 0.5v0.167H14a0.5 0.5 0 1 1 0 1h-0.167v0.166a0.5 0.5 0 1 1 -1 0v-0.166h-0.166a0.5 0.5 0 1 1 0 -1h0.166V16a0.5 0.5 0 0 1 0.5 -0.5Zm2 0a0.5 0.5 0 0 1 -0.478 -0.355 0.5 0.5 0 0 1 0 -0.957 0.5 0.5 0 0 1 0.957 0 0.5 0.5 0 0 1 0 0.957 0.5 0.5 0 0 1 -0.479 0.355Zm-6.478 2.312a0.5 0.5 0 0 0 0.957 0 0.5 0.5 0 0 0 0 -0.957 0.5 0.5 0 0 0 -0.957 0 0.5 0.5 0 0 0 0 0.957Z" clip-rule="evenodd" stroke-width="1"></path>
</svg>