<svg xmlns="http://www.w3.org/2000/svg" fill="none" viewBox="0 0 14 14" id="3d-Rotate-1--Streamline-Flex">
  <desc>
    3d Rotate 1 Streamline Icon: https://streamlinehq.com
  </desc>
  <g id="3d-rotate-1">
    <path id="Vector" fill="#d7e0ff" d="M7 13.25c4 0 6.25 -2.25 6.25 -6.25S11 0.75 7 0.75 0.75 3 0.75 7 3 13.25 7 13.25Z" stroke-width="1"></path>
    <path id="Vector_2" stroke="#4147d5" stroke-linecap="round" stroke-linejoin="round" d="M6.578 0.763c-1.025 1.522 -1.65 3.552 -1.65 5.781 0 2.704 0.92 5.115 2.356 6.68" stroke-width="1"></path>
    <path id="Vector_3" stroke="#4147d5" stroke-linecap="round" stroke-linejoin="round" d="M0.77 6.511c1.51 1.053 3.4 1.705 5.737 1.695 2.757 -0.011 5.078 -0.945 6.633 -2.42" stroke-width="1"></path>
    <path id="Vector_4" stroke="#4147d5" stroke-linecap="round" stroke-linejoin="round" d="M7 13.25c4 0 6.25 -2.25 6.25 -6.25S11 0.75 7 0.75 0.75 3 0.75 7 3 13.25 7 13.25Z" stroke-width="1"></path>
  </g>
</svg>