<svg xmlns="http://www.w3.org/2000/svg" fill="none" viewBox="0 0 14 14" id="Align-Top-1--Streamline-Flex">
  <desc>
    Align Top 1 Streamline Icon: https://streamlinehq.com
  </desc>
  <g id="align-top-1--align-design-top-vertical">
    <path id="Vector 165" stroke="#4147d5" stroke-linecap="round" stroke-linejoin="round" d="m0.75 0.75 12.5 0" stroke-width="1"></path>
    <path id="Intersect" fill="#d7e0ff" d="M1.75 6.42858c0 0.91774 0.06208 1.85718 0.14234 2.4735 0.05754 0.44177 0.3658 0.77319 0.803 0.85877 0.2828 0.05536 0.6342 0.09631 1.05466 0.09631 0.42045 0 0.77182 -0.04094 1.0546 -0.0963 0.4372 -0.08559 0.74545 -0.41701 0.80298 -0.85879 0.08025 -0.61631 0.14232 -1.55575 0.14236 -2.47349 0.00004 -0.91774 -0.06204 -1.85718 -0.14231 -2.4735 -0.05753 -0.44178 -0.36579 -0.77319 -0.803 -0.85878C4.52183 3.04094 4.17043 3 3.74997 3c-0.42046 0 -0.77186 0.04094 -1.05466 0.0963 -0.43721 0.08559 -0.74546 0.41701 -0.80299 0.85878C1.81206 4.5714 1.75 5.51084 1.75 6.42858Z" stroke-width="1"></path>
    <path id="Intersect_2" fill="#d7e0ff" d="M8.25 7.92858c0 1.68164 0.07212 3.14872 0.16141 3.96952 0.04817 0.4429 0.34673 0.7772 0.78393 0.8628 0.2828 0.0553 0.6342 0.0963 1.05466 0.0963 0.4204 0 0.7718 -0.041 1.0546 -0.0963 0.4372 -0.0856 0.7358 -0.4199 0.7839 -0.8628 0.0893 -0.8208 0.1614 -2.28788 0.1614 -3.96952 0 -1.68164 -0.0721 -3.14876 -0.1613 -3.96954 -0.0482 -0.4429 -0.3468 -0.77715 -0.784 -0.86274C11.0218 3.04094 10.6704 3 10.25 3c-0.42049 0 -0.77189 0.04094 -1.05469 0.0963 -0.43721 0.08559 -0.73576 0.41984 -0.78393 0.86273C8.32211 4.77982 8.25 6.24694 8.25 7.92858Z" stroke-width="1"></path>
    <path id="Intersect_3" stroke="#4147d5" stroke-linecap="round" stroke-linejoin="round" d="M1.75 6.42858c0 0.91774 0.06208 1.85718 0.14234 2.4735 0.05754 0.44177 0.3658 0.77319 0.803 0.85877 0.2828 0.05536 0.6342 0.09631 1.05466 0.09631 0.42045 0 0.77182 -0.04094 1.0546 -0.0963 0.4372 -0.08559 0.74545 -0.41701 0.80298 -0.85879 0.08025 -0.61631 0.14232 -1.55575 0.14236 -2.47349 0.00004 -0.91774 -0.06204 -1.85718 -0.14231 -2.4735 -0.05753 -0.44178 -0.36579 -0.77319 -0.803 -0.85878C4.52183 3.04094 4.17043 3 3.74997 3c-0.42046 0 -0.77186 0.04094 -1.05466 0.0963 -0.43721 0.08559 -0.74546 0.41701 -0.80299 0.85878C1.81206 4.5714 1.75 5.51084 1.75 6.42858Z" stroke-width="1"></path>
    <path id="Intersect_4" stroke="#4147d5" stroke-linecap="round" stroke-linejoin="round" d="M8.25 7.92858c0 1.68164 0.07212 3.14872 0.16141 3.96952 0.04817 0.4429 0.34673 0.7772 0.78393 0.8628 0.2828 0.0553 0.6342 0.0963 1.05466 0.0963 0.4204 0 0.7718 -0.041 1.0546 -0.0963 0.4372 -0.0856 0.7358 -0.4199 0.7839 -0.8628 0.0893 -0.8208 0.1614 -2.28788 0.1614 -3.96952 0 -1.68164 -0.0721 -3.14876 -0.1613 -3.96954 -0.0482 -0.4429 -0.3468 -0.77715 -0.784 -0.86274C11.0218 3.04094 10.6704 3 10.25 3c-0.42049 0 -0.77189 0.04094 -1.05469 0.0963 -0.43721 0.08559 -0.73576 0.41984 -0.78393 0.86273C8.32211 4.77982 8.25 6.24694 8.25 7.92858Z" stroke-width="1"></path>
  </g>
</svg>