<svg xmlns="http://www.w3.org/2000/svg" fill="none" viewBox="0 0 14 14" id="Brightness-4--Streamline-Flex">
  <desc>
    Brightness 4 Streamline Icon: https://streamlinehq.com
  </desc>
  <g id="brightness-4--bright-adjust-brightness-adjustment-sun-raise-controls-dot">
    <path id="Vector" stroke="#4147d5" stroke-linecap="round" stroke-linejoin="round" d="m2.58058 2.58057 0.36829 0.36828" stroke-width="1"></path>
    <path id="Vector_2" stroke="#4147d5" stroke-linecap="round" stroke-linejoin="round" d="m11.0511 11.0512 0.3683 0.3683" stroke-width="1"></path>
    <path id="Vector_3" stroke="#4147d5" stroke-linecap="round" stroke-linejoin="round" d="m7 0.75 0 0.52083" stroke-width="1"></path>
    <path id="Vector_4" stroke="#4147d5" stroke-linecap="round" stroke-linejoin="round" d="m7 12.7292 0 0.5208" stroke-width="1"></path>
    <path id="Vector_5" stroke="#4147d5" stroke-linecap="round" stroke-linejoin="round" d="m13.25 7 -0.5208 0" stroke-width="1"></path>
    <path id="Vector_6" stroke="#4147d5" stroke-linecap="round" stroke-linejoin="round" d="M1.27084 7 0.750003 7" stroke-width="1"></path>
    <path id="Vector_7" stroke="#4147d5" stroke-linecap="round" stroke-linejoin="round" d="m11.4194 2.58057 -0.3683 0.36828" stroke-width="1"></path>
    <path id="Vector_8" stroke="#4147d5" stroke-linecap="round" stroke-linejoin="round" d="m2.94885 11.0512 -0.36828 0.3683" stroke-width="1"></path>
    <path id="Vector 82" fill="#d7e0ff" d="M7.00002 9.24969c-1.87477 0 -2.24972 -1.12486 -2.24972 -2.24972s0.37495 -2.24973 2.24972 -2.24973c1.87477 0 2.24973 1.12487 2.24973 2.24973s-0.37496 2.24972 -2.24973 2.24972Z" stroke-width="1"></path>
    <path id="Vector 83" stroke="#4147d5" stroke-linecap="round" stroke-linejoin="round" d="M7.00002 9.24969c-1.87477 0 -2.24972 -1.12486 -2.24972 -2.24972s0.37495 -2.24973 2.24972 -2.24973c1.87477 0 2.24973 1.12487 2.24973 2.24973s-0.37496 2.24972 -2.24973 2.24972Z" stroke-width="1"></path>
  </g>
</svg>