<svg xmlns="http://www.w3.org/2000/svg" fill="none" viewBox="0 0 14 14" id="Cog--Streamline-Flex">
  <desc>
    Cog Streamline Icon: https://streamlinehq.com
  </desc>
  <g id="cog--work-loading-cog-gear-settings-machine">
    <path id="Vector" fill="#d7e0ff" d="M11.808 7.727c0 0.05 0.017 0.1 0.048 0.14l0.667 0.84a0.96 0.96 0 0 1 0.082 1.08l-0.392 0.676a0.96 0.96 0 0 1 -0.975 0.47l-1.063 -0.16a0.23 0.23 0 0 0 -0.145 0.027l-1.26 0.727a0.228 0.228 0 0 0 -0.096 0.112l-0.392 1a0.96 0.96 0 0 1 -0.893 0.611h-0.782a0.96 0.96 0 0 1 -0.893 -0.61l-0.392 -1a0.228 0.228 0 0 0 -0.096 -0.113L3.967 10.8a0.23 0.23 0 0 0 -0.145 -0.028l-1.063 0.162a0.96 0.96 0 0 1 -0.976 -0.47l-0.39 -0.677a0.96 0.96 0 0 1 0.08 -1.08l0.67 -0.84a0.223 0.223 0 0 0 0.05 -0.14V6.273c0 -0.05 -0.018 -0.1 -0.05 -0.14l-0.67 -0.84a0.96 0.96 0 0 1 -0.08 -1.08l0.39 -0.676a0.96 0.96 0 0 1 0.976 -0.47l1.06 0.16a0.23 0.23 0 0 0 0.145 -0.027l1.262 -0.73a0.229 0.229 0 0 0 0.096 -0.113l0.394 -0.996A0.96 0.96 0 0 1 6.61 0.75h0.784a0.96 0.96 0 0 1 0.893 0.61l0.392 0.997c0.018 0.049 0.052 0.09 0.096 0.116l1.26 0.727a0.23 0.23 0 0 0 0.145 0.028l1.062 -0.162a0.96 0.96 0 0 1 0.976 0.47l0.391 0.677a0.96 0.96 0 0 1 -0.081 1.08l-0.67 0.84a0.223 0.223 0 0 0 -0.049 0.14v1.454Z" stroke-width="1"></path>
    <path id="Vector_2" fill="#ffffff" d="M7 8.996c1.277 0 1.996 -0.719 1.996 -1.996 0 -1.277 -0.719 -1.996 -1.996 -1.996 -1.277 0 -1.996 0.719 -1.996 1.996 0 1.277 0.719 1.996 1.996 1.996Z" stroke-width="1"></path>
    <path id="Vector_3" stroke="#4147d5" stroke-linecap="round" stroke-linejoin="round" d="M11.808 7.727c0 0.05 0.017 0.1 0.048 0.14l0.667 0.84a0.96 0.96 0 0 1 0.082 1.08l-0.392 0.676a0.96 0.96 0 0 1 -0.975 0.47l-1.063 -0.16a0.23 0.23 0 0 0 -0.146 0.027l-1.258 0.727a0.228 0.228 0 0 0 -0.097 0.112l-0.392 1a0.96 0.96 0 0 1 -0.893 0.611h-0.782a0.96 0.96 0 0 1 -0.893 -0.61l-0.392 -1a0.228 0.228 0 0 0 -0.096 -0.113L3.967 10.8a0.23 0.23 0 0 0 -0.146 -0.028l-1.062 0.162a0.96 0.96 0 0 1 -0.976 -0.47l-0.391 -0.677a0.96 0.96 0 0 1 0.081 -1.08l0.67 -0.84a0.223 0.223 0 0 0 0.049 -0.14V6.273a0.23 0.23 0 0 0 -0.048 -0.14l-0.67 -0.84a0.96 0.96 0 0 1 -0.082 -1.08l0.391 -0.676a0.96 0.96 0 0 1 0.976 -0.47l1.06 0.16a0.23 0.23 0 0 0 0.145 -0.027l1.262 -0.73a0.229 0.229 0 0 0 0.096 -0.113l0.394 -0.996A0.96 0.96 0 0 1 6.61 0.75h0.784a0.96 0.96 0 0 1 0.893 0.61l0.392 0.997c0.018 0.049 0.052 0.09 0.096 0.116l1.259 0.727a0.23 0.23 0 0 0 0.146 0.028l1.062 -0.162a0.96 0.96 0 0 1 0.976 0.47l0.391 0.677a0.96 0.96 0 0 1 -0.081 1.08l-0.67 0.84a0.224 0.224 0 0 0 -0.049 0.14v1.454Z" stroke-width="1"></path>
    <path id="Vector_4" stroke="#4147d5" stroke-linecap="round" stroke-linejoin="round" d="M7 8.996c1.277 0 1.996 -0.719 1.996 -1.996 0 -1.277 -0.719 -1.996 -1.996 -1.996 -1.277 0 -1.996 0.719 -1.996 1.996 0 1.277 0.719 1.996 1.996 1.996Z" stroke-width="1"></path>
  </g>
</svg>