<svg xmlns="http://www.w3.org/2000/svg" fill="none" viewBox="0 0 14 14" id="Customer-Support-7--Streamline-Flex">
  <desc>
    Customer Support 7 Streamline Icon: https://streamlinehq.com
  </desc>
  <g id="customer-support-7--customer-headphones-help-microphone-person-profile-support">
    <path id="Vector" fill="#d7e0ff" d="M12.7855 8.50969c0.1146 -0.05961 0.2131 -0.14592 0.2873 -0.25165 0.5155 -0.73494 -1.5836 -2.51714 -1.7328 -3.58828C10.9365 1.77268 8.66176 0.75 6.12956 0.75 2.71695 0.75 0.75 2.5 0.75 6c0 2.39369 0.62514 3.19578 1.3811 4.419 0.41444 0.6706 0.59017 1.4542 0.58817 2.2425 -0.00123 0.4846 -0.00232 1.0055 -0.00232 1.3315h6.01853v-1.7433c0.05499 -0.4454 0.45234 -0.745 0.90107 -0.745h0.49335c0.8284 0 1.5 -0.6716 1.5 -1.5V8.62022l0.7847 -0.01973c0.1291 -0.00005 0.2564 -0.0312 0.3709 -0.0908Z" stroke-width="1"></path>
    <path id="Vector_2" stroke="#4147d5" stroke-linecap="round" stroke-linejoin="round" d="M6.502 5.00391V0.75" stroke-width="1"></path>
    <path id="Vector 182" stroke="#4147d5" stroke-linecap="round" stroke-linejoin="round" d="M7 8.96484C8 9.96484 10 11 12.5 11" stroke-width="1"></path>
    <path id="Vector_3" stroke="#4147d5" stroke-linecap="round" stroke-linejoin="round" d="M2.71695 13.4914c0 -0.2409 0.00059 -0.5364 0.0014 -0.8266 0.0022 -0.7905 -0.17337 -1.5763 -0.58901 -2.2487C1.37417 9.1945 0.75 8.39179 0.75 5.99996c0 -2.22154 0.79244 -3.73805 2.24403 -4.54952" stroke-width="1"></path>
    <path id="Vector_4" stroke="#4147d5" stroke-linecap="round" stroke-linejoin="round" d="M11.6299 9.22524v-0.60495l0.7847 -0.01973c0.1291 -0.00005 0.2564 -0.0312 0.3709 -0.09081 0.1146 -0.0596 0.2131 -0.14592 0.2873 -0.25164 0.5155 -0.73494 -1.5836 -2.51714 -1.7328 -3.58829 -0.2348 -1.68604 -1.1035 -2.73722 -2.28777 -3.32143" stroke-width="1"></path>
    <path id="Vector_5" stroke="#4147d5" stroke-linecap="round" stroke-linejoin="round" d="M8.73547 12.2498v1.2416" stroke-width="1"></path>
    <path id="Vector_6" fill="#ffffff" d="M6.502 9c1.28 0 2 -0.72 2 -2s-0.72 -2 -2 -2 -2 0.72 -2 2 0.72 2 2 2Z" stroke-width="1"></path>
    <path id="Vector_7" stroke="#4147d5" stroke-linecap="round" stroke-linejoin="round" d="M6.50195 9c1.28 0 2 -0.72 2 -2s-0.72 -2 -2 -2 -2 0.72 -2 2 0.72 2 2 2Z" stroke-width="1"></path>
  </g>
</svg>