<svg xmlns="http://www.w3.org/2000/svg" fill="none" viewBox="0 0 14 14" id="Face-Scan-1--Streamline-Flex">
  <desc>
    Face Scan 1 Streamline Icon: https://streamlinehq.com
  </desc>
  <g id="face-scan-1--identification-angle-secure-human-id-person-face-security-brackets">
    <path id="Vector" fill="#d7e0ff" d="M0.959867 10.2685C1.114 11.7092 2.2727 12.8679 3.71266 13.0284 4.78221 13.1476 5.88037 13.25 7 13.25s2.21779 -0.1024 3.2873 -0.2216c1.44 -0.1605 2.5987 -1.3192 2.7528 -2.7599 0.1138 -1.06348 0.2099 -2.15534 0.2099 -3.2685 0 -1.11316 -0.0961 -2.20502 -0.2099 -3.26853 -0.1541 -1.44065 -1.3128 -2.59936 -2.7528 -2.759861C9.21779 0.852392 8.11963 0.75 7 0.75S4.78221 0.852393 3.71266 0.971609C2.2727 1.13211 1.114 2.29082 0.959867 3.73147 0.846083 4.79498 0.75 5.88684 0.75 7c0 1.11316 0.096084 2.20502 0.209867 3.2685Z" stroke-width="1"></path>
    <path id="Vector_2" stroke="#4147d5" stroke-linecap="round" stroke-linejoin="round" d="M4 3.98828v1" stroke-width="1"></path>
    <path id="Vector_3" stroke="#4147d5" stroke-linecap="round" stroke-linejoin="round" d="M10 3.98828v1" stroke-width="1"></path>
    <path id="Vector_4" stroke="#4147d5" stroke-linecap="round" stroke-linejoin="round" d="M7 5.48828v1.25c0 0.55229 -0.44772 1 -1 1h-0.5" stroke-width="1"></path>
    <path id="Vector_5" stroke="#4147d5" stroke-linecap="round" stroke-linejoin="round" d="M5.286 10.3021c0.46252 0.4393 1.07608 0.6843 1.714 0.6843s1.25148 -0.245 1.714 -0.6843" stroke-width="1"></path>
    <path id="Intersect" stroke="#4147d5" stroke-linecap="round" stroke-linejoin="round" d="M10.0135 0.929871c0.3709 0.039947 0.7384 0.082769 1.1022 0.124939 0.9595 0.11121 1.7251 0.8763 1.8329 1.83618 0.0406 0.36154 0.0815 0.72668 0.1196 1.09511" stroke-width="1"></path>
    <path id="Intersect_2" stroke="#4147d5" stroke-linecap="round" stroke-linejoin="round" d="M10.0135 13.0445c0.3709 -0.04 0.7384 -0.0828 1.1022 -0.1249 0.9595 -0.1113 1.7251 -0.8763 1.8329 -1.8362 0.0406 -0.3616 0.0815 -0.7267 0.1196 -1.09514" stroke-width="1"></path>
    <path id="Intersect_3" stroke="#4147d5" stroke-linecap="round" stroke-linejoin="round" d="M4 0.929871c-0.37085 0.039947 -0.73836 0.082769 -1.10224 0.124939 -0.95949 0.11121 -1.72509 0.8763 -1.83285 1.83618 -0.04059 0.36154 -0.081517 0.72668 -0.119558 1.09511" stroke-width="1"></path>
    <path id="Intersect_4" stroke="#4147d5" stroke-linecap="round" stroke-linejoin="round" d="M4 13.0445c-0.37085 -0.04 -0.73836 -0.0828 -1.10224 -0.1249 -0.95949 -0.1113 -1.72509 -0.8763 -1.83285 -1.8362 -0.04059 -0.3616 -0.081517 -0.7267 -0.119558 -1.09514" stroke-width="1"></path>
  </g>
</svg>