<svg xmlns="http://www.w3.org/2000/svg" fill="none" viewBox="0 0 14 14" id="Home-2--Streamline-Flex">
  <desc>
    Home 2 Streamline Icon: https://streamlinehq.com
  </desc>
  <g id="home-2--door-entrance-home-house-roof-round-shelter">
    <path id="Rectangle 15" fill="#d7e0ff" d="M3.837 12.796h6.326c0.67 0 1.24 -0.488 1.341 -1.15 0.162 -1.051 0.2 -2.117 0.112 -3.176h1.224a0.5 0.5 0 0 0 0.422 -0.768l-0.212 -0.333a20 20 0 0 0 -4.785 -5.205l-0.66 -0.501a1 1 0 0 0 -1.21 0l-0.66 0.501A20 20 0 0 0 0.949 7.37l-0.211 0.333a0.5 0.5 0 0 0 0.422 0.768h1.224a13.565 13.565 0 0 0 0.112 3.176c0.102 0.662 0.671 1.15 1.34 1.15Z" stroke-width="1"></path>
    <path id="Rectangle 16" stroke="#4147d5" stroke-linecap="round" stroke-linejoin="round" d="M3.837 12.796h6.326c0.67 0 1.24 -0.488 1.341 -1.15 0.162 -1.051 0.2 -2.117 0.113 -3.176h1.223a0.5 0.5 0 0 0 0.422 -0.768l-0.212 -0.333a20 20 0 0 0 -4.785 -5.205l-0.66 -0.5a1 1 0 0 0 -1.21 0l-0.66 0.5A20 20 0 0 0 0.95 7.37l-0.212 0.333a0.5 0.5 0 0 0 0.422 0.768h1.224a13.566 13.566 0 0 0 0.112 3.176c0.102 0.662 0.671 1.15 1.34 1.15Z" stroke-width="1"></path>
    <path id="Vector (Stroke)" fill="#ffffff" d="M7 8.089c0.921 0 1.668 0.746 1.668 1.667v3.04H5.332v-3.04c0 -0.92 0.747 -1.667 1.668 -1.667Z" stroke-width="1"></path>
    <path id="Vector (Stroke)_2" stroke="#4147d5" stroke-linecap="round" stroke-linejoin="round" d="M7 8.089c0.92 0 1.667 0.746 1.667 1.667v3.04H5.332v-3.04c0 -0.92 0.747 -1.667 1.668 -1.667Z" stroke-width="1"></path>
  </g>
</svg>