<svg xmlns="http://www.w3.org/2000/svg" fill="none" viewBox="0 0 14 14" id="Horizontal-Toggle-Button--Streamline-Flex">
  <desc>
    Horizontal Toggle Button Streamline Icon: https://streamlinehq.com
  </desc>
  <g id="horizontal-toggle-button--toggle-adjustment-adjust-button-off-on-horizontal-settings-controls">
    <path id="Vector" fill="#ffffff" d="M4.94846 10.7512c0 1.1593 -0.93986 2.0991 -2.09923 2.0991S0.75 11.9105 0.75 10.7512s0.93986 -2.0991 2.09923 -2.0991 2.09923 0.9398 2.09923 2.0991Z" stroke-width="1"></path>
    <path id="Subtract" fill="#d7e0ff" fill-rule="evenodd" d="m11.3946 5.33369 -0.4066 0.06164c-2.64355 0.40075 -5.33245 0.40075 -7.97604 0l-0.4785 -0.07254C1.50797 5.16733 0.75 4.2858 0.75 3.24858c0 -1.03721 0.75797 -1.91874 1.78346 -2.0742l0.4785 -0.07254c2.64359 -0.40076 5.33249 -0.40076 7.97604 0l0.4069 0.06168c-0.0801 -0.00928 -0.1615 -0.01405 -0.2441 -0.01405 -1.1594 0 -2.09926 0.93981 -2.09926 2.09912 0 1.1593 0.93986 2.09911 2.09926 2.09911 0.0825 0 0.1638 -0.00476 0.2438 -0.01401Z" clip-rule="evenodd" stroke-width="1"></path>
    <path id="Subtract_2" fill="#d7e0ff" fill-rule="evenodd" d="m2.60536 12.8361 0.4066 0.0617c2.64359 0.4007 5.33249 0.4007 7.97604 0l0.4785 -0.0726c1.0255 -0.1554 1.7835 -1.037 1.7835 -2.0742 0 -1.03719 -0.758 -1.91872 -1.7835 -2.07418l-0.4785 -0.07254c-2.64355 -0.40076 -5.33245 -0.40076 -7.97604 0l-0.4069 0.06168c0.0801 -0.00927 0.16158 -0.01404 0.24417 -0.01404 1.15937 0 2.09923 0.9398 2.09923 2.09908 0 1.1593 -0.93986 2.0991 -2.09923 2.0991 -0.08249 0 -0.16387 -0.0047 -0.24387 -0.014Z" clip-rule="evenodd" stroke-width="1"></path>
    <path id="Vector_2" fill="#ffffff" d="M9.05154 3.24877c0 1.15931 0.93986 2.09911 2.09926 2.09911 1.1593 0 2.0992 -0.9398 2.0992 -2.09911s-0.9399 -2.09911 -2.0992 -2.09911c-1.1594 0 -2.09926 0.9398 -2.09926 2.09911Z" stroke-width="1"></path>
    <path id="Subtract_3" stroke="#4147d5" stroke-linecap="round" stroke-linejoin="round" d="m11.3946 5.33381 -0.4066 0.06164c-2.64355 0.40076 -5.33245 0.40075 -7.97604 0l-0.4785 -0.07254C1.50797 5.16745 0.75 4.28592 0.75 3.2487c0 -1.03721 0.75797 -1.91874 1.78346 -2.0742l0.4785 -0.07254c2.64359 -0.400758 5.33249 -0.400757 7.97604 0l0.4069 0.06168" stroke-width="1"></path>
    <path id="Vector_3" stroke="#4147d5" stroke-linecap="round" stroke-linejoin="round" d="M9.05154 3.24877c0 1.15931 0.93986 2.09911 2.09926 2.09911 1.1593 0 2.0992 -0.9398 2.0992 -2.09911s-0.9399 -2.09911 -2.0992 -2.09911c-1.1594 0 -2.09926 0.9398 -2.09926 2.09911Z" stroke-width="1"></path>
    <path id="Subtract_4" stroke="#4147d5" stroke-linecap="round" stroke-linejoin="round" d="m2.60536 12.8364 0.4066 0.0616c2.64359 0.4008 5.33249 0.4008 7.97604 0l0.4785 -0.0725c1.0255 -0.1555 1.7835 -1.037 1.7835 -2.0742 0 -1.03725 -0.758 -1.91878 -1.7835 -2.07424l-0.4785 -0.07254c-2.64355 -0.40075 -5.33245 -0.40075 -7.97604 0l-0.4069 0.06169" stroke-width="1"></path>
    <path id="Vector_4" stroke="#4147d5" stroke-linecap="round" stroke-linejoin="round" d="M4.94846 10.7512c0 1.1593 -0.93986 2.0991 -2.09923 2.0991S0.75 11.9105 0.75 10.7512s0.93986 -2.0991 2.09923 -2.0991 2.09923 0.9398 2.09923 2.0991Z" stroke-width="1"></path>
  </g>
</svg>