<svg xmlns="http://www.w3.org/2000/svg" fill="none" viewBox="0 0 14 14" id="Incorrect-Password--Streamline-Flex">
  <desc>
    Incorrect Password Streamline Icon: https://streamlinehq.com
  </desc>
  <g id="incorrect-password--login-password-delete-textbox-touch-type-cross-wrong-incorrect">
    <path id="Intersect" fill="#d7e0ff" d="M0.941675 6.97613C1.07838 7.97 1.94086 8.71118 2.9441 8.71118h7.1926c1.0033 0 1.8658 -0.74118 2.0025 -1.73505 0.1042 -0.75762 0.1916 -1.54277 0.1916 -2.24554 0 -0.70277 -0.0874 -1.48792 -0.1916 -2.24553C12.0025 1.49118 11.14 0.75 10.1367 0.75H2.9441c-1.00324 0 -1.86572 0.74118 -2.002426 1.73505C0.837469 3.24266 0.75 4.02782 0.75 4.73059c0 0.70277 0.087469 1.48792 0.191675 2.24554Z" stroke-width="1"></path>
    <path id="Intersect_2" stroke="#4147d5" stroke-linecap="round" stroke-linejoin="round" d="M12.3308 4.73059c0 -0.70277 -0.0874 -1.48792 -0.1916 -2.24553C12.0025 1.49118 11.14 0.75 10.1367 0.75H2.9441c-1.00324 0 -1.86572 0.74118 -2.002426 1.73505C0.837469 3.24266 0.75 4.02782 0.75 4.73059c0 0.70277 0.087469 1.48793 0.191675 2.24554C1.07838 7.97 1.94086 8.71118 2.9441 8.71118h2.14783" stroke-width="1"></path>
    <path id="Vector" stroke="#4147d5" stroke-linecap="round" stroke-linejoin="round" d="M13.2498 8.25017 8.25002 13.25m-0.00002 -5 4.9998 4.9998" stroke-width="1"></path>
    <path id="Vector 1174" stroke="#4147d5" stroke-linecap="round" stroke-linejoin="round" d="m3.78662 4.60254 0 0.2561" stroke-width="1"></path>
    <path id="Vector 1175" stroke="#4147d5" stroke-linecap="round" stroke-linejoin="round" d="m6.54053 4.60254 0 0.2561" stroke-width="1"></path>
    <path id="Vector 1176" stroke="#4147d5" stroke-linecap="round" stroke-linejoin="round" d="m9.29443 4.60254 0 0.2561" stroke-width="1"></path>
  </g>
</svg>