<svg xmlns="http://www.w3.org/2000/svg" fill="none" viewBox="0 0 14 14" id="Open-Umbrella--Streamline-Flex">
  <desc>
    Open Umbrella Streamline Icon: https://streamlinehq.com
  </desc>
  <g id="open-umbrella--storm-rain-umbrella-open-weather">
    <path id="Vector" fill="#d7e0ff" d="M1.93432 3.42288c-0.29686 -0.64135 -0.10302 -1.38799 0.49586 -1.76322 1.0195 -0.63875 2.23557 -0.948776 3.49513 -0.875231C7.58098 0.881102 9.17618 1.63261 10.36 2.87363c1.1838 1.24102 1.8592 2.86989 1.8776 4.52828 0.0141 1.26163 -0.353 2.46172 -1.0391 3.44999 -0.4031 0.5805 -1.158 0.7389 -1.78466 0.4121 -0.95853 -0.4999 -2.50029 -1.49748 -4.30099 -3.38523C3.31216 5.99103 2.3884 4.40391 1.93432 3.42288Z" stroke-width="1"></path>
    <path id="Vector_2" stroke="#4147d5" stroke-linecap="round" stroke-linejoin="round" d="M1.93428 3.42276c-0.29685 -0.64135 -0.10302 -1.38799 0.49586 -1.76322 1.0195 -0.63876 2.23557 -0.948778 3.49513 -0.875233C7.58095 0.88098 9.17614 1.63249 10.3599 2.87351c1.1838 1.24101 1.8592 2.86988 1.8777 4.52828 0.014 1.26162 -0.353 2.46172 -1.0392 3.44991 -0.403 0.5805 -1.158 0.7389 -1.7846 0.4122 -0.95852 -0.4999 -2.50029 -1.4975 -4.30098 -3.38525 -1.8007 -1.88775 -2.72446 -3.47486 -3.17854 -4.45589Z" stroke-width="1"></path>
    <path id="Vector_3" stroke="#4147d5" stroke-linecap="round" stroke-linejoin="round" d="m10.3601 2.87263 0.9957 -0.94978" stroke-width="1"></path>
    <path id="Vector_4" stroke="#4147d5" stroke-linecap="round" stroke-linejoin="round" d="M4.77579 12.7723c-0.31747 0.3029 -0.74225 0.4672 -1.18088 0.4568 -0.43862 -0.0103 -0.85517 -0.1945 -1.15801 -0.512 -0.30284 -0.3174 -0.46715 -0.7422 -0.4568 -1.1809 0.01035 -0.4386 0.19452 -0.8551 0.512 -1.158l2.62522 -2.49091" stroke-width="1"></path>
  </g>
</svg>