<svg xmlns="http://www.w3.org/2000/svg" fill="none" viewBox="0 0 14 14" id="Paintbrush-2--Streamline-Flex">
  <desc>
    Paintbrush 2 Streamline Icon: https://streamlinehq.com
  </desc>
  <g id="paintbrush-2--brush-color-colors-design-paint-painting">
    <path id="Subtract" fill="#d7e0ff" fill-rule="evenodd" d="m5.49698 6.65129 3.91548 -4.89436C10.1623 0.819673 11.5603 0.742244 12.409 1.59097c0.8487 0.84872 0.7713 2.24674 -0.1659 2.99655L7.18496 8.63399c-0.15034 -0.50977 -0.43858 -0.97773 -0.81669 -1.35583 -0.25458 -0.25459 -0.5499 -0.46843 -0.87129 -0.62687Z" clip-rule="evenodd" stroke-width="1"></path>
    <path id="Vector 92" fill="#ffffff" d="M2.12563 7.27818c1.41421 -1.41421 3.18198 -1.06066 4.24264 0s1.41421 2.82842 0 4.24262c-1.41421 1.4142 -3.49196 1.574 -5.3033 1.0607 1.39222 -1.3922 -0.479513 -3.76315 1.06066 -5.30332Z" stroke-width="1"></path>
    <path id="Vector 93" stroke="#4147d5" stroke-linecap="round" stroke-linejoin="round" d="M2.12563 7.27806c1.41421 -1.41421 3.18198 -1.06066 4.24264 0s1.41421 2.82844 0 4.24264c-1.41421 1.4142 -3.49196 1.574 -5.3033 1.0607 1.39222 -1.3923 -0.479513 -3.76317 1.06066 -5.30334Z" stroke-width="1"></path>
    <path id="Vector 94" stroke="#4147d5" stroke-linecap="round" stroke-linejoin="round" d="m5.49386 6.65532 3.91869 -4.89836C10.1624 0.819698 11.5604 0.742268 12.4091 1.59099v0c0.8487 0.84872 0.7713 2.24675 -0.166 2.99655L7.18508 8.63399" stroke-width="1"></path>
  </g>
</svg>