<svg xmlns="http://www.w3.org/2000/svg" fill="none" viewBox="0 0 14 14" id="Pathfinder-Minus-Front-2--Streamline-Flex">
  <desc>
    Pathfinder Minus Front 2 Streamline Icon: https://streamlinehq.com
  </desc>
  <g id="pathfinder-minus-front-2">
    <path id="Intersect" fill="#d7e0ff" d="M0.892288 7.32075c0.106653 0.99686 0.908422 1.79863 1.904802 1.9097 0.74008 0.08249 1.49995 0.15334 2.27469 0.15334 0.77473 0 1.53461 -0.07085 2.27468 -0.15334 0.99638 -0.11106 1.79815 -0.91284 1.90481 -1.9097 0.07873 -0.7359 0.14521 -1.49142 0.14521 -2.26167 0 -0.77025 -0.06648 -1.52577 -0.14521 -2.26167C9.14461 1.80055 8.34284 0.998779 7.34646 0.887718 6.60639 0.805226 5.84651 0.734375 5.07178 0.734375c-0.77474 0 -1.53461 0.070851 -2.27469 0.153343C1.80071 0.998779 0.998941 1.80055 0.892288 2.79741 0.813556 3.53331 0.74707 4.28883 0.74707 5.05908c0 0.77025 0.066486 1.52577 0.145218 2.26167Z" stroke-width="1"></path>
    <path id="Intersect_2" stroke="#4147d5" stroke-linecap="round" stroke-linejoin="round" d="M9.70156 13.2438c-0.25751 0.0138 -0.51689 0.0218 -0.77795 0.0218 -0.26107 0 -0.52045 -0.008 -0.77796 -0.0218" stroke-width="1"></path>
    <path id="Intersect_3" stroke="#4147d5" stroke-linecap="round" stroke-linejoin="round" d="M12.8029 12.0903c-0.1913 0.3111 -0.4594 0.571 -0.777 0.7526" stroke-width="1"></path>
    <path id="Intersect_4" stroke="#4147d5" stroke-linecap="round" stroke-linejoin="round" d="M12.8029 5.78234c-0.1913 -0.31107 -0.4594 -0.57096 -0.777 -0.75255" stroke-width="1"></path>
    <path id="Intersect_5" stroke="#4147d5" stroke-linecap="round" stroke-linejoin="round" d="M13.2311 9.71423c0.0138 -0.2575 0.0218 -0.51688 0.0218 -0.77795s-0.008 -0.52045 -0.0218 -0.77796" stroke-width="1"></path>
    <path id="Intersect_6" stroke="#4147d5" stroke-linecap="round" stroke-linejoin="round" d="M9.70166 4.62823c-0.11232 -0.00602 -0.194 0.00377 -0.30702 0.00013" stroke-width="1"></path>
    <path id="Intersect_7" stroke="#4147d5" stroke-linecap="round" stroke-linejoin="round" d="M4.61633 9.71408c-0.00611 -0.11393 0.00364 -0.21675 -0.00001 -0.33139" stroke-width="1"></path>
    <path id="Intersect_8" stroke="#4147d5" stroke-linecap="round" stroke-linejoin="round" d="M5.07538 12.0903c0.19128 0.3111 0.45941 0.571 0.77705 0.7526" stroke-width="1"></path>
    <path id="Intersect_9" stroke="#4147d5" stroke-linecap="round" stroke-linejoin="round" d="M0.892288 7.32075c0.106653 0.99686 0.908422 1.79863 1.904802 1.9097 0.74008 0.08249 1.49995 0.15334 2.27469 0.15334 0.77473 0 1.53461 -0.07085 2.27468 -0.15334 0.99638 -0.11106 1.79815 -0.91284 1.90481 -1.9097 0.07873 -0.7359 0.14521 -1.49142 0.14521 -2.26167 0 -0.77025 -0.06648 -1.52577 -0.14521 -2.26167C9.14461 1.80055 8.34284 0.998779 7.34646 0.887718 6.60639 0.805226 5.84651 0.734375 5.07178 0.734375c-0.77474 0 -1.53461 0.070851 -2.27469 0.153343C1.80071 0.998779 0.998941 1.80055 0.892288 2.79741 0.813556 3.53331 0.74707 4.28883 0.74707 5.05908c0 0.77025 0.066486 1.52577 0.145218 2.26167Z" stroke-width="1"></path>
  </g>
</svg>