<svg xmlns="http://www.w3.org/2000/svg" fill="none" viewBox="0 0 14 14" id="Pencil-Square--Streamline-Flex">
  <desc>
    Pencil Square Streamline Icon: https://streamlinehq.com
  </desc>
  <g id="pencil-square--change-document-edit-modify-paper-pencil-write-writing">
    <path id="Intersect" fill="#d7e0ff" d="M1.00245 11.148c0.10723 0.96 0.87459 1.727 1.8341 1.838 1.08422 0.1254 2.20457 0.2491 3.35086 0.2491s2.26663 -0.1237 3.35085 -0.2491c0.95954 -0.111 1.72684 -0.878 1.83414 -1.838 0.1205 -1.079 0.2368 -2.19398 0.2368 -3.33471 0 -1.14072 -0.1163 -2.25567 -0.2368 -3.33475 -0.1073 -0.95994 -0.8746 -1.72693 -1.83414 -1.83792 -1.08422 -0.12542 -2.20456 -0.24914 -3.35085 -0.24914s-2.26664 0.12372 -3.35086 0.24914c-0.95951 0.11099 -1.72687 0.87798 -1.8341 1.83792C0.881909 5.55762 0.765594 6.67257 0.765594 7.81329c0 1.14073 0.116315 2.25571 0.236856 3.33471Z" stroke-width="1"></path>
    <path id="Intersect_2" stroke="#4147d5" stroke-linecap="round" stroke-linejoin="round" d="M5.38991 2.41016c-0.8693 0.03915 -1.72195 0.13433 -2.55335 0.2305 -0.95952 0.11099 -1.72688 0.87798 -1.83411 1.83792C0.881909 5.55766 0.765594 6.67261 0.765594 7.81333c0 1.14073 0.116315 2.25567 0.236856 3.33477 0.10723 0.9599 0.87459 1.7269 1.8341 1.8379 1.08422 0.1254 2.20457 0.2492 3.35086 0.2492s2.26663 -0.1238 3.35085 -0.2492c0.95954 -0.111 1.72684 -0.8779 1.83414 -1.8379 0.0867 -0.7762 0.1712 -1.57099 0.2118 -2.38058" stroke-width="1"></path>
    <path id="Vector" fill="#ffffff" d="M10.1084 1.30268 6.42353 5.48384l-0.50482 2.37432c-0.08123 0.38204 0.317 0.74353 0.68994 0.62629l2.3628 -0.74281 3.80615 -4.00491c0.6321 -0.66517 0.5218 -1.77771 -0.2434 -2.45452 -0.7472 -0.66096 -1.8333 -0.651794 -2.4258 0.02047Z" stroke-width="1"></path>
    <path id="Vector_2" stroke="#4147d5" stroke-linecap="round" stroke-linejoin="round" d="M10.1084 1.30268 6.42353 5.48384l-0.50482 2.37432c-0.08123 0.38204 0.317 0.74353 0.68994 0.62629l2.3628 -0.74281 3.80615 -4.00491c0.6321 -0.66517 0.5218 -1.77771 -0.2434 -2.45452 -0.7472 -0.66096 -1.8333 -0.651794 -2.4258 0.02047Z" stroke-width="1"></path>
  </g>
</svg>