<svg xmlns="http://www.w3.org/2000/svg" fill="none" viewBox="0 0 14 14" id="Projector--Streamline-Flex">
  <desc>
    Projector Streamline Icon: https://streamlinehq.com
  </desc>
  <g id="projector--work-meeting-presentation-projection">
    <path id="Vector" fill="#ffffff" d="M8.01855 8.16724c1.87961 0 2.93685 -1.05728 2.93685 -2.93689S9.89816 2.29346 8.01855 2.29346c-1.8796 0 -2.93688 1.05728 -2.93688 2.93689s1.05728 2.93689 2.93688 2.93689Z" stroke-width="1"></path>
    <path id="Vector 174" stroke="#4147d5" stroke-linecap="round" stroke-linejoin="round" d="M2.26791 11v2.1298" stroke-width="1"></path>
    <path id="Vector 175" stroke="#4147d5" stroke-linecap="round" stroke-linejoin="round" d="M11.7321 11v2.1298" stroke-width="1"></path>
    <path id="Subtract" fill="#d7e0ff" fill-rule="evenodd" d="M10.9543 5.33749c-0.0397 1.81262 -1.09214 2.82978 -2.93575 2.82978 -1.87326 0 -2.92974 -1.05015 -2.93685 -2.91788 -1.02427 0.02764 -2.02599 0.07697 -2.99499 0.14563 -0.49316 0.03495 -0.89524 0.2628 -0.98222 0.56672 -0.203546 0.71117 -0.309934 1.46369 -0.309934 2.23055 0 0.75973 0.111883 1.49353 0.308774 2.20351 0.0879 0.317 0.51343 0.5523 1.0282 0.5834 1.50788 0.0911 3.20225 0.1818 4.86844 0.1818 1.68408 0 3.30723 -0.0689 4.87523 -0.1737 0.5116 -0.0342 0.9268 -0.2735 1.0117 -0.5891 0.191 -0.71013 0.3185 -1.44559 0.3185 -2.20591 0 -0.76328 -0.1157 -1.51004 -0.3132 -2.21922 -0.0861 -0.30936 -0.4949 -0.54212 -0.9967 -0.57659 -0.312 -0.02144 -0.6257 -0.04115 -0.9412 -0.05899Z" clip-rule="evenodd" stroke-width="1"></path>
    <path id="Vector_2" stroke="#4147d5" stroke-linecap="round" stroke-linejoin="round" d="M8.01855 8.16724c1.87961 0 2.93685 -1.05728 2.93685 -2.93689S9.89816 2.29346 8.01855 2.29346c-1.8796 0 -2.93688 1.05728 -2.93688 2.93689s1.05728 2.93689 2.93688 2.93689Z" stroke-width="1"></path>
    <path id="Intersect" stroke="#4147d5" stroke-linecap="round" stroke-linejoin="round" d="M5.08335 5.24927c-1.02485 0.02763 -2.02713 0.07698 -2.99664 0.14568 -0.49316 0.03494 -0.89524 0.26279 -0.98222 0.56672 -0.203546 0.71116 -0.309934 1.46369 -0.309934 2.23055 0 0.75972 0.111883 1.49352 0.308774 2.20358 0.0879 0.317 0.51343 0.5522 1.0282 0.5833 1.50788 0.0911 3.20225 0.1819 4.86844 0.1819 1.68408 0 3.30723 -0.069 4.87523 -0.1738 0.5116 -0.0341 0.9268 -0.2735 1.0117 -0.5891 0.191 -0.7101 0.3185 -1.44557 0.3185 -2.20588 0 -0.76329 -0.1157 -1.51004 -0.3132 -2.21923 -0.0861 -0.30936 -0.4949 -0.54212 -0.9967 -0.57659 -0.3102 -0.02131 -0.622 -0.04092 -0.9357 -0.05867" stroke-width="1"></path>
  </g>
</svg>