<svg xmlns="http://www.w3.org/2000/svg" fill="none" viewBox="0 0 14 14" id="Satellite-Dish--Streamline-Flex">
  <desc>
    Satellite Dish Streamline Icon: https://streamlinehq.com
  </desc>
  <g id="satellite-dish--broadcast-satellite-share-transmit-satellite">
    <path id="Vector" fill="#ffffff" d="m2.17855 11.6622 1.89683 -2.69186 2.21484 1.29296 0.82027 1.4983c0.36508 0.6668 -0.11802 1.481 -0.87825 1.4802l-3.23736 -0.0036c-0.80994 -0.0009 -1.28287 -0.9139 -0.81633 -1.576Z" stroke-width="1"></path>
    <path id="Vector_2" stroke="#4147d5" stroke-linecap="round" stroke-linejoin="round" d="M4.07539 8.97021 2.17856 11.6621c-0.46653 0.6621 0.0064 1.5751 0.81634 1.576l3.23735 0.0036c0.76024 0.0008 1.24333 -0.8134 0.87825 -1.4803l-0.82026 -1.4982" stroke-width="1"></path>
    <path id="Vector_3" fill="#d7e0ff" d="M12.2344 6.68308c0.901 0.63891 1.1256 1.9201 0.2477 2.59036 -0.845 0.64508 -1.8409 1.08346 -2.90814 1.26516 -1.73189 0.2948 -3.50996 -0.1105 -4.94306 -1.12665 -1.43309 -1.01617 -2.40382 -2.56002 -2.69863 -4.29191 -0.18168 -1.06727 -0.0975 -2.15208 0.23167 -3.16288C2.50597 0.906878 3.78932 0.69492 4.69036 1.33382l7.54404 5.34926Z" stroke-width="1"></path>
    <path id="Vector_4" stroke="#4147d5" stroke-linecap="round" stroke-linejoin="round" d="M12.2344 6.68308c0.901 0.63891 1.1256 1.9201 0.2476 2.59036 -0.8449 0.64508 -1.8408 1.08346 -2.90806 1.26516 -1.73189 0.2948 -3.50996 -0.1105 -4.94305 -1.12665 -1.4331 -1.01617 -2.40383 -2.56002 -2.69864 -4.29191 -0.18167 -1.06727 -0.09749 -2.15208 0.23168 -3.16288C2.50596 0.906878 3.7893 0.69492 4.69034 1.33382l7.54406 5.34926Z" stroke-width="1"></path>
    <path id="Ellipse 34" stroke="#4147d5" stroke-linecap="round" stroke-linejoin="round" d="M11.1698 3.10196c0.4039 -0.56927 0.1394 -1.45082 -0.5909 -1.96901 -0.73028 -0.518178 -1.64974 -0.476765 -2.05368 0.0925" stroke-width="1"></path>
  </g>
</svg>