<svg xmlns="http://www.w3.org/2000/svg" fill="none" viewBox="0 0 14 14" id="Shuffle--Streamline-Flex">
  <desc>
    Shuffle Streamline Icon: https://streamlinehq.com
  </desc>
  <g id="shuffle--multimedia-shuffle-multi-button-controls-media">
    <path id="Vector" stroke="#4147d5" stroke-linecap="round" stroke-linejoin="round" d="M1.0047 4h1.49531c0.94427 0 1.83344 0.44458 2.4 1.2l2.7 3.6C8.16657 9.55542 9.05574 10 10 10h3" stroke-width="1"></path>
    <path id="Vector 1213" stroke="#4147d5" stroke-linecap="round" stroke-linejoin="round" d="M7.59998 5.2c0.56656 -0.75542 1.45572 -1.2 2.4 -1.2H13" stroke-width="1"></path>
    <path id="Vector 1214" stroke="#4147d5" stroke-linecap="round" stroke-linejoin="round" d="M1 10h1.5c0.94427 0 1.83344 -0.44453 2.4 -1.19995" stroke-width="1"></path>
    <path id="Vector_2" stroke="#4147d5" stroke-linecap="round" stroke-linejoin="round" d="M11 2c0.75 0 1.75 1 2 2 -0.25 1 -1.25 2 -2 2" stroke-width="1"></path>
    <path id="Vector_3" stroke="#4147d5" stroke-linecap="round" stroke-linejoin="round" d="M11 8c0.75 0 1.75 1 2 2 -0.25 1 -1.25 2 -2 2" stroke-width="1"></path>
  </g>
</svg>