<svg xmlns="http://www.w3.org/2000/svg" fill="none" viewBox="0 0 14 14" id="Sun--Streamline-Flex">
  <desc>
    Sun Streamline Icon: https://streamlinehq.com
  </desc>
  <g id="sun--photos-light-camera-mode-brightness-sun-photo-full">
    <path id="Vector" fill="#d7e0ff" d="M12.815 6.22a0.967 0.967 0 0 1 0 1.56 2.906 2.906 0 0 0 -1.15 2.778 0.973 0.973 0 0 1 -1.107 1.108 2.906 2.906 0 0 0 -2.779 1.149 0.967 0.967 0 0 1 -1.558 0 2.906 2.906 0 0 0 -2.78 -1.15 0.973 0.973 0 0 1 -1.107 -1.107A2.906 2.906 0 0 0 1.185 7.78a0.967 0.967 0 0 1 0 -1.558 2.906 2.906 0 0 0 1.15 -2.78 0.973 0.973 0 0 1 1.107 -1.107 2.906 2.906 0 0 0 2.778 -1.15 0.967 0.967 0 0 1 1.558 0 2.906 2.906 0 0 0 2.78 1.15 0.973 0.973 0 0 1 1.107 1.107 2.906 2.906 0 0 0 1.149 2.779Z" stroke-width="1"></path>
    <path id="Vector_2" stroke="#4147d5" stroke-linecap="round" stroke-linejoin="round" d="M12.815 6.22a0.967 0.967 0 0 1 0 1.56v0a2.906 2.906 0 0 0 -1.15 2.778v0a0.973 0.973 0 0 1 -1.107 1.108v0a2.906 2.906 0 0 0 -2.779 1.149v0a0.967 0.967 0 0 1 -1.558 0v0a2.906 2.906 0 0 0 -2.78 -1.15v0a0.973 0.973 0 0 1 -1.107 -1.107v0A2.906 2.906 0 0 0 1.185 7.78v0a0.967 0.967 0 0 1 0 -1.558v0a2.906 2.906 0 0 0 1.15 -2.78v0a0.973 0.973 0 0 1 1.107 -1.107v0a2.906 2.906 0 0 0 2.778 -1.15v0a0.967 0.967 0 0 1 1.558 0v0a2.906 2.906 0 0 0 2.78 1.15v0a0.973 0.973 0 0 1 1.107 1.107v0a2.906 2.906 0 0 0 1.149 2.779v0Z" stroke-width="1"></path>
    <path id="Vector_3" fill="#ffffff" d="M7 9.54c1.626 0 2.54 -0.914 2.54 -2.54S8.627 4.46 7 4.46 4.46 5.373 4.46 7 5.373 9.54 7 9.54Z" stroke-width="1"></path>
    <path id="Vector_4" stroke="#4147d5" stroke-linecap="round" stroke-linejoin="round" d="M7 9.54c1.626 0 2.54 -0.914 2.54 -2.54S8.627 4.46 7 4.46 4.46 5.373 4.46 7 5.373 9.54 7 9.54Z" stroke-width="1"></path>
  </g>
</svg>