<svg xmlns="http://www.w3.org/2000/svg" fill="none" viewBox="0 0 14 14" id="Tag--Streamline-Flex">
  <desc>
    Tag Streamline Icon: https://streamlinehq.com
  </desc>
  <g id="tag--tags-bookmark-favorite">
    <path id="Subtract" fill="#d7e0ff" d="M7.291 12.697a2.03 2.03 0 0 0 2.562 0.122c0.557 -0.409 1.116 -0.842 1.621 -1.347 0.506 -0.505 0.938 -1.064 1.347 -1.621 0.567 -0.773 0.525 -1.854 -0.122 -2.562a76.96 76.96 0 0 0 -5.798 -5.713 1.853 1.853 0 0 0 -0.876 -0.438C4.84 0.908 1.882 0.422 1.153 1.151 0.424 1.88 0.91 4.837 1.14 6.023c0.064 0.327 0.217 0.627 0.439 0.876a76.94 76.94 0 0 0 5.712 5.798Z" stroke-width="1"></path>
    <path id="Intersect" stroke="#4147d5" stroke-linecap="round" stroke-linejoin="round" d="M7.291 12.697a2.03 2.03 0 0 0 2.562 0.122c0.557 -0.409 1.116 -0.842 1.621 -1.347 0.506 -0.505 0.938 -1.064 1.347 -1.621 0.567 -0.773 0.525 -1.854 -0.122 -2.562a76.94 76.94 0 0 0 -5.798 -5.712 1.853 1.853 0 0 0 -0.876 -0.439C4.84 0.908 1.882 0.422 1.153 1.151 0.424 1.88 0.91 4.838 1.14 6.023c0.064 0.327 0.217 0.627 0.439 0.876a76.96 76.96 0 0 0 5.712 5.798Z" stroke-width="1"></path>
    <path id="Vector" fill="#ffffff" d="M4.662 5.81c0.736 0 1.15 -0.414 1.15 -1.15 0 -0.737 -0.414 -1.151 -1.15 -1.151 -0.737 0 -1.15 0.414 -1.15 1.15 0 0.737 0.413 1.151 1.15 1.151Z" stroke-width="1"></path>
    <path id="Vector_2" stroke="#4147d5" stroke-linecap="round" stroke-linejoin="round" d="M4.662 5.81c0.736 0 1.15 -0.414 1.15 -1.15 0 -0.737 -0.414 -1.151 -1.15 -1.151 -0.737 0 -1.15 0.414 -1.15 1.15 0 0.737 0.413 1.151 1.15 1.151Z" stroke-width="1"></path>
  </g>
</svg>