<svg xmlns="http://www.w3.org/2000/svg" fill="none" viewBox="0 0 14 14" id="Track-Select-Right-Tool--Streamline-Flex">
  <desc>
    Track Select Right Tool Streamline Icon: https://streamlinehq.com
  </desc>
  <g id="track-select-right-tool">
    <path id="Vector" fill="#d7e0ff" d="M1.7627 11.25c-0.55228 0 -1.000005 -0.4477 -1.000005 -1v-6.5c0 -0.55228 0.447725 -1 1.000005 -1H7.75c0.5523 0 1 0.44772 1 1v6.5c0 0.5523 -0.4477 1 -1 1H1.7627Z" stroke-width="1"></path>
    <path id="Vector 1027" stroke="#4147d5" stroke-linecap="round" stroke-linejoin="round" d="M0.75 4v-0.25c0 -0.55228 0.44772 -1 1 -1H2" stroke-width="1"></path>
    <path id="Vector 1036" stroke="#4147d5" stroke-linecap="round" stroke-linejoin="round" d="M8.75 4v-0.25c0 -0.55228 -0.44772 -1 -1 -1H7.5" stroke-width="1"></path>
    <path id="Vector 1070" stroke="#4147d5" stroke-linecap="round" stroke-linejoin="round" d="M0.75 6.5v1" stroke-width="1"></path>
    <path id="Vector 1072" stroke="#4147d5" stroke-linecap="round" stroke-linejoin="round" d="m5.25 2.75 -1 0" stroke-width="1"></path>
    <path id="Vector 1078" stroke="#4147d5" stroke-linecap="round" stroke-linejoin="round" d="M8.75 10v0.25c0 0.5523 -0.44772 1 -1 1H7.5" stroke-width="1"></path>
    <path id="Vector 1079" stroke="#4147d5" stroke-linecap="round" stroke-linejoin="round" d="M0.75 10v0.25c0 0.5523 0.44772 1 1 1H2" stroke-width="1"></path>
    <path id="Vector 1080" stroke="#4147d5" stroke-linecap="round" stroke-linejoin="round" d="m4.25 11.25 1 0" stroke-width="1"></path>
    <path id="Vector_2" stroke="#4147d5" stroke-linecap="round" stroke-linejoin="round" d="m6 7 7 0" stroke-width="1"></path>
    <path id="Vector_3" stroke="#4147d5" stroke-linecap="round" stroke-linejoin="round" d="M11 5c0.75 0 1.75 1 2 2 -0.25 1 -1.25 2 -2 2" stroke-width="1"></path>
  </g>
</svg>