<svg xmlns="http://www.w3.org/2000/svg" fill="none" viewBox="0 0 14 14" id="Wrench-Hand--Streamline-Flex">
  <desc>
    Wrench Hand Streamline Icon: https://streamlinehq.com
  </desc>
  <g id="wrench-hand--crescent-tool-construction-tools-wrench-setting-edit-adjust">
    <path id="Subtract" fill="#ffffff" d="M9.28256 3.1165c-0.66839 -0.28168 -0.90126 -0.77968 -0.3226 -2.152781 0.01535 -0.036424 0.03079 -0.072313 0.04631 -0.107666C7.87395 0.679006 7.02085 1.13565 6.57772 2.18714c-0.40664 0.9649 -0.21366 1.82707 0.52986 2.49325 -0.1801 0.37804 -0.35912 0.76572 -0.52745 1.16515 -0.19879 0.47168 -0.37543 0.94259 -0.54348 1.40382 -0.08487 0.23296 -0.12043 0.48756 -0.10507 0.73461l0.70501 0.08052h0.93885c0.18133 0 0.42373 0.06108 0.6655 0.18324l0.22593 0.0258c0.21276 -0.44239 0.42645 -0.89768 0.62523 -1.36937 0.16833 -0.39942 0.32079 -0.79829 0.46559 -1.1912 0.99611 0.06694 1.74791 -0.39705 2.15461 -1.36196 0.4248 -1.00797 0.1952 -1.90386 -0.6328 -2.5813 -0.01 0.02461 -0.0203 0.04937 -0.0308 0.07427 -0.5787 1.3731 -1.09775 1.55421 -1.76614 1.27253Z" stroke-width="1"></path>
    <path id="Union" stroke="#4147d5" stroke-linecap="round" stroke-linejoin="round" d="M8.46687 8.27353c0.21276 -0.44239 0.42645 -0.89768 0.62523 -1.36937 0.16833 -0.39942 0.32079 -0.79829 0.46559 -1.1912 0.99611 0.06694 1.74791 -0.39705 2.15461 -1.36196 0.4248 -1.00797 0.1952 -1.90386 -0.6328 -2.5813 -0.01 0.02461 -0.0203 0.04937 -0.0308 0.07427 -0.5787 1.3731 -1.09775 1.55421 -1.76614 1.27253 -0.66839 -0.28168 -0.90126 -0.77968 -0.3226 -2.152781 0.01535 -0.036424 0.03079 -0.072313 0.04631 -0.107666C7.87395 0.679006 7.02085 1.13565 6.57772 2.18714c-0.40664 0.9649 -0.21366 1.82707 0.52986 2.49325 -0.1801 0.37804 -0.35912 0.76572 -0.52745 1.16515 -0.19879 0.47168 -0.37543 0.94259 -0.54348 1.40382 -0.08487 0.23296 -0.12043 0.48756 -0.10507 0.73461" stroke-width="1"></path>
    <path id="Vector 108" fill="#d7e0ff" d="M6.96279 13.2186c-1.50727 0 -4.704 -0.3589 -5.33202 -0.5384V9.14109l2.06765 -3.39593c0.18133 -0.29781 0.52844 -0.45181 0.87092 -0.38639 1.05096 0.20074 1.64555 1.32327 1.22117 2.30548l-0.17292 0.40024h1.95788c0.53831 0 1.61493 0.53831 1.61493 1.61492 0 1.07659 -1.08252 3.53919 -2.22761 3.53919Z" stroke-width="1"></path>
    <path id="Vector 109" stroke="#4147d5" stroke-linecap="round" stroke-linejoin="round" d="M1.63074 12.6802c0.62802 0.1795 3.82475 0.5384 5.33202 0.5384 1.14509 0 2.2276 -2.4626 2.2276 -3.53919 0 -1.07661 -1.07661 -1.61492 -1.61492 -1.61492l-1.95788 0 0.17292 -0.40024c0.42438 -0.98221 -0.17021 -2.10474 -1.22118 -2.30548v0c-0.34247 -0.06542 -0.68958 0.08858 -0.87091 0.38639L1.63074 9.14109" stroke-width="1"></path>
  </g>
</svg>