<svg xmlns="http://www.w3.org/2000/svg" fill="none" viewBox="0 0 48 48" id="Clipboard-2--Streamline-Kameleon">
  <desc>
    Clipboard 2 Streamline Icon: https://streamlinehq.com
  </desc>
  <path fill="#fabc3d" d="M24 47.9955c13.255 0 24 -10.7445 24 -23.9988C48 10.7423 37.255 -0.00219727 24 -0.00219727S0 10.7423 0 23.9967C0 37.251 10.745 47.9955 24 47.9955Z" stroke-width="1"></path>
  <path fill="#84462d" d="M11.8545 12.6513c0 -0.6944 0.2758 -1.3603 0.7668 -1.8513 0.491 -0.491 1.157 -0.7668 1.8514 -0.7668h19.2c0.6944 0 1.3603 0.2758 1.8513 0.7668 0.491 0.491 0.7669 1.1569 0.7669 1.8513v22.6898c0 0.6944 -0.2759 1.3603 -0.7669 1.8512 -0.491 0.491 -1.1569 0.7669 -1.8513 0.7669h-19.2c-0.6944 0 -1.3604 -0.2759 -1.8514 -0.7669 -0.491 -0.4909 -0.7668 -1.1568 -0.7668 -1.8512V12.6513Z" stroke-width="1"></path>
  <path fill="#cfd3d4" d="M14.4727 15.2697c0 -0.2315 0.0919 -0.4535 0.2556 -0.6171 0.1636 -0.1637 0.3856 -0.2556 0.6171 -0.2556h17.4545c0.2315 0 0.4535 0.0919 0.6171 0.2556 0.1637 0.1636 0.2557 0.3856 0.2557 0.6171v18.3264c0 0.4629 -0.1839 0.9068 -0.5113 1.2341 -0.3273 0.3274 -0.7713 0.5112 -1.2342 0.5112H16.2181c-0.4629 0 -0.9069 -0.1838 -1.2342 -0.5112 -0.3273 -0.3273 -0.5112 -0.7712 -0.5112 -1.2341V15.2697Z" stroke-width="1"></path>
  <path fill="#ffffff" d="M32.7999 14.397c0.2315 0 0.4535 0.0919 0.6171 0.2556 0.1637 0.1636 0.2557 0.3856 0.2557 0.6171v17.89c0 0.2315 -0.092 0.4534 -0.2557 0.6171 -0.1636 0.1637 -0.3856 0.2556 -0.6171 0.2556H15.3454c-0.48 0 -0.8727 -0.3927 -0.8727 -0.8727v-17.89c0 -0.2315 0.0919 -0.4535 0.2556 -0.6171 0.1636 -0.1637 0.3856 -0.2556 0.6171 -0.2556h17.4545Z" stroke-width="1"></path>
  <path fill="#facb1b" d="M26.691 12.6513c0 -0.6944 -0.2759 -1.3603 -0.7669 -1.8513 -0.491 -0.491 -1.1569 -0.7668 -1.8513 -0.7668 -0.6944 0 -1.3603 0.2758 -1.8513 0.7668 -0.491 0.491 -0.7669 1.1569 -0.7669 1.8513h-1.7454c-0.2315 0 -0.4535 0.0919 -0.6172 0.2556 -0.1636 0.1636 -0.2556 0.3856 -0.2556 0.617v2.1818c0 0.2314 0.092 0.4534 0.2556 0.617 0.1637 0.1637 0.3857 0.2556 0.6172 0.2556h8.7272c0.2315 0 0.4535 -0.0919 0.6171 -0.2556 0.1637 -0.1636 0.2557 -0.3856 0.2557 -0.617v-2.1818c0 -0.2314 -0.092 -0.4534 -0.2557 -0.617 -0.1636 -0.1637 -0.3856 -0.2556 -0.6171 -0.2556H26.691Z" stroke-width="1"></path>
  <path fill="#e2e4e5" d="M31.0549 19.6328H17.0913v0.8727h13.9636v-0.8727Z" stroke-width="1"></path>
  <path fill="#e2e4e5" d="M31.0549 22.2507H17.0913v0.8727h13.9636v-0.8727Z" stroke-width="1"></path>
  <path fill="#e2e4e5" d="M31.0549 24.8687H17.0913v0.8726h13.9636v-0.8726Z" stroke-width="1"></path>
  <path fill="#e2e4e5" d="M25.8186 27.4871h-8.7273v0.8726h8.7273v-0.8726Z" stroke-width="1"></path>
  <path fill="#fbe158" d="M28.4364 12.6513H26.691c0 -0.6944 -0.2759 -1.3603 -0.7669 -1.8513 -0.491 -0.491 -1.1569 -0.7668 -1.8513 -0.7668 -0.6944 0 -1.3603 0.2758 -1.8513 0.7668 -0.491 0.491 -0.7669 1.1569 -0.7669 1.8513h-1.7454c-0.2315 0 -0.4535 0.0919 -0.6172 0.2556 -0.1636 0.1636 -0.2556 0.3856 -0.2556 0.617v0.8727h10.4728v-0.8727c0 -0.2314 -0.092 -0.4534 -0.2557 -0.617 -0.1636 -0.1637 -0.3856 -0.2556 -0.6171 -0.2556Z" stroke-width="1"></path>
</svg>