<svg xmlns="http://www.w3.org/2000/svg" fill="none" viewBox="0 0 14 14" id="Workspace-Desk--Streamline-Flex">
  <desc>
    Workspace Desk Streamline Icon: https://streamlinehq.com
  </desc>
  <g id="workspace-desk--workspace-desk-work">
    <path id="Intersect" fill="#d7e0ff" fill-rule="evenodd" d="M12.3096 10.6282c-0.0027 -0.2763 -0.015 -0.5496 -0.0323 -0.81927 -0.0614 -0.9596 -0.8259 -1.70748 -1.7864 -1.75214 -1.34487 -0.06253 -3.04799 -0.12222 -3.49042 -0.12222 -0.44243 0 -2.14555 0.05969 -3.49038 0.12222 -0.96053 0.04466 -1.72501 0.79254 -1.78648 1.75214 -0.01727 0.26967 -0.02956 0.54297 -0.03221 0.81927 1.06614 0.0663 4.13919 0.1983 5.30906 0.1983 1.16989 0 4.24293 -0.132 5.30913 -0.1983Z" clip-rule="evenodd" stroke-width="1"></path>
    <path id="Vector 1285" stroke="#4147d5" stroke-linecap="round" stroke-linejoin="round" d="m7 6.052 0 1.88251" stroke-width="1"></path>
    <path id="Intersect_2" fill="#ffffff" d="M7.00197 0.678223c-0.75607 0 -1.54097 0 -2.23991 0.087852 -0.62453 0.078499 -1.12969 0.556315 -1.21584 1.179835 -0.05208 0.377 -0.05208 0.76797 -0.05208 1.41916 0 0.65118 0 1.04216 0.05208 1.41916 0.08615 0.62352 0.59131 1.10133 1.21584 1.17983 0.69894 0.08786 1.48384 0.08786 2.23991 0.08786s1.54096 0 2.23991 -0.08786c0.62452 -0.0785 1.12972 -0.55631 1.21582 -1.17983 0.0521 -0.377 0.0521 -0.76798 0.0521 -1.41916 0 -0.65119 0 -1.04216 -0.0521 -1.41916 -0.0861 -0.62352 -0.5913 -1.101336 -1.21582 -1.179835C8.54293 0.678223 7.75804 0.678223 7.00197 0.678223Z" stroke-width="1"></path>
    <path id="Intersect_3" stroke="#4147d5" stroke-linecap="round" stroke-linejoin="round" d="M7.00197 0.678223c-0.75607 0 -1.54097 0 -2.23991 0.087852 -0.62453 0.078499 -1.12969 0.556315 -1.21584 1.179835 -0.05208 0.377 -0.05208 0.76797 -0.05208 1.41916 0 0.65118 0 1.04216 0.05208 1.41916 0.08615 0.62352 0.59131 1.10133 1.21584 1.17983 0.69894 0.08786 1.48384 0.08786 2.23991 0.08786s1.54096 0 2.23991 -0.08786c0.62452 -0.0785 1.12972 -0.55631 1.21582 -1.17983 0.0521 -0.377 0.0521 -0.76798 0.0521 -1.41916 0 -0.65119 0 -1.04216 -0.0521 -1.41916 -0.0861 -0.62352 -0.5913 -1.101336 -1.21582 -1.179835C8.54293 0.678223 7.75804 0.678223 7.00197 0.678223Z" stroke-width="1"></path>
    <path id="Intersect_4" stroke="#4147d5" stroke-linecap="round" stroke-linejoin="round" d="M1.8555 13.3217c-0.05743 -0.8177 -0.16507 -1.6848 -0.16507 -2.5827 0 -0.314 0.01317 -0.6243 0.03275 -0.93007 0.06147 -0.9596 0.82595 -1.70748 1.78648 -1.75214 1.34483 -0.06253 3.04795 -0.12222 3.49038 -0.12222 0.44243 0 2.14555 0.05969 3.49036 0.12222 0.9606 0.04466 1.725 0.79254 1.7865 1.75214 0.0196 0.30577 0.0328 0.61607 0.0328 0.93007 0 0.8979 -0.1077 1.765 -0.1651 2.5827" stroke-width="1"></path>
    <path id="Intersect_5" stroke="#4147d5" stroke-linecap="round" stroke-linejoin="round" d="M1.69033 10.6281c1.06563 0.0662 4.13954 0.1983 5.30962 0.1983 1.17008 0 4.24395 -0.1321 5.30965 -0.1983" stroke-width="1"></path>
  </g>
</svg>