<svg xmlns="http://www.w3.org/2000/svg" fill="none" viewBox="0 0 24 24" id="Tooth--Streamline-Sharp">
  <desc>
    Tooth Streamline Icon: https://streamlinehq.com
  </desc>
  <g id="tooth--health-medical-tooth">
    <path id="Vector 2404" stroke="#000000" d="m5.5 22 -1.635 -3.971A24.758 24.758 0 0 1 2 8.602v-1.05a5.552 5.552 0 0 1 9.02 -4.335l0.425 0.34a0.89 0.89 0 0 0 1.11 0l0.424 -0.34A5.553 5.553 0 0 1 22 7.552v1.05c0 3.234 -0.634 6.437 -1.865 9.427L18.5 22h-2.058a2 2 0 0 1 -1.898 -1.367L13.5 17.5h-3l-1.044 3.133A2 2 0 0 1 7.558 22H5.5Z" stroke-width="1"></path>
    <path id="Vector 2405" stroke="#000000" d="m9 7 3 1 3 -1" stroke-width="1"></path>
  </g>
</svg>