<svg xmlns="http://www.w3.org/2000/svg" fill="none" viewBox="0 0 14 14" id="Warehouse-1--Streamline-Flex-Remix">
  <desc>
    Warehouse 1 Streamline Icon: https://streamlinehq.com
  </desc>
  <g id="warehouse-1--delivery-warehouse-shipping-fulfillment">
    <path id="Union" fill="#000000" fill-rule="evenodd" d="M6.90564 1.51625c0.06116 -0.02167 0.12765 -0.02167 0.1888 0 1.99925 0.70843 3.87806 1.90381 4.78236 2.57182 0.0496 0.03663 0.0844 0.08819 0.0997 0.14784 0.5915 2.30768 0.5776 5.62093 0.4564 7.59019 -0.0093 0.151 -0.1216 0.2713 -0.273 0.2907 -1.1203 0.1436 -3.2756 0.3832 -5.15986 0.3832 -1.88426 0 -4.03953 -0.2396 -5.15981 -0.3832 -0.15149 -0.0194 -0.26379 -0.1397 -0.27308 -0.2907 -0.12121 -1.96926 -0.13504 -5.28251 0.45646 -7.59019 0.01529 -0.05965 0.05005 -0.11121 0.09964 -0.14784 0.90436 -0.66801 2.78315 -1.86339 4.78239 -2.57182Zm0.6063 -1.178215c-0.33125 -0.11738 -0.69254 -0.11738 -1.02379 0C4.33447 1.10119 2.34538 2.36996 1.38057 3.08262c-0.28052 0.20721 -0.480955 0.50406 -0.567813 0.84292 -0.642639 2.5072 -0.615902 5.98458 -0.49325 7.97736 0.046345 0.7529 0.618622 1.3585 1.361783 1.4537 1.13212 0.1452 3.35187 0.3934 5.31875 0.3934 1.96689 0 4.18666 -0.2482 5.31876 -0.3934 0.7432 -0.0952 1.3154 -0.7008 1.3618 -1.4537 0.1226 -1.99278 0.1494 -5.47016 -0.4933 -7.97736 -0.0868 -0.33886 -0.2873 -0.63571 -0.5678 -0.84292 -0.9648 -0.71266 -2.95388 -1.98143 -5.10756 -2.744585ZM5.25004 5v1.5c0 0.55228 0.44772 1 1 1h1.5c0.55229 0 1 -0.44772 1 -1V5c0 -0.55228 -0.44771 -1 -1 -1h-1.5c-0.55228 0 -1 0.44772 -1 1Zm-2.25 4v1.5c0 0.5523 0.44772 1 1 1h1.5c0.55229 0 1 -0.4477 1 -1V9c0 -0.55228 -0.44771 -1 -1 -1h-1.5c-0.55228 0 -1 0.44772 -1 1Zm4.5 1.5V9c0 -0.55228 0.44772 -1 1 -1H10c0.5523 0 1 0.44772 1 1v1.5c0 0.5523 -0.4477 1 -1 1H8.50004c-0.55228 0 -1 -0.4477 -1 -1Z" clip-rule="evenodd" stroke-width="1"></path>
  </g>
</svg>