<svg xmlns="http://www.w3.org/2000/svg" fill="none" viewBox="0 0 24 24" id="Drum-Stick--Streamline-Sharp-Neon">
  <desc>
    Drum Stick Streamline Icon: https://streamlinehq.com
  </desc>
  <g id="drum-stick--cook-animal-drumsticks-products-chicken-cooking-nutrition-food">
    <path id="Union" stroke="#000cfe" d="m10.5 16 -2.73223 2.7322C8.22018 19.1846 8.5 19.8096 8.5 20.5 8.5 21.8807 7.38071 23 6 23s-2.5 -1.1193 -2.5 -2.5C2.11929 20.5 1 19.3807 1 18s1.11929 -2.5 2.5 -2.5c0.69036 0 1.31536 0.2798 1.76777 0.7322L8 13.5l2.5 2.5Z" stroke-width="1"></path>
    <path id="Vector 2465" stroke="#c71dff" d="m17 16 4.136 -4.136C22.3295 10.6705 23 9.05179 23 7.36396 23 3.84924 20.1508 1 16.636 1c-1.6878 0 -3.3065 0.67049 -4.5 1.86396L8 7v6.5l2.5 2.5H17Z" stroke-width="1"></path>
  </g>
</svg>