<svg xmlns="http://www.w3.org/2000/svg" viewBox="0 0 14 14">
  <g>
    <path d="M8.25,13.5H5.75a.75.75,0,0,1,0-1.5h2.5a.75.75,0,0,1,0,1.5Z" style="fill: #000001"/>
    <path d="M12.25,9a1,1,0,0,1-1-1V5.81l-1.5,1.5V8A2.39,2.39,0,0,0,10,9H8.06l-1.5,1.5h5.69a.75.75,0,0,0,0-1.5Z" style="fill: #000001"/>
    <path d="M13.78.22a.75.75,0,0,0-1.06,0l-2.2,2.2a.24.24,0,0,1-.18.07.23.23,0,0,1-.18-.08A4.25,4.25,0,0,0,2.75,5.25V8a1,1,0,0,1-1,1,.75.75,0,0,0,0,1.5h.09a.25.25,0,0,1,.23.15.26.26,0,0,1-.06.28L.22,12.72a.75.75,0,0,0,0,1.06.75.75,0,0,0,1.06,0l12.5-12.5A.75.75,0,0,0,13.78.22ZM4.25,8.08V5.25A2.75,2.75,0,0,1,9.12,3.5a.26.26,0,0,1,0,.34L4.68,8.26a.25.25,0,0,1-.28.06A.27.27,0,0,1,4.25,8.08Z" style="fill: #000001"/>
  </g>
</svg>
