<svg xmlns="http://www.w3.org/2000/svg" viewBox="0 0 14 14">
  <path d="M14,8.88a4,4,0,0,0-3-3.37.26.26,0,0,1-.19-.31A4,4,0,0,0,11,4.05,4,4,0,0,0,9.37.89a1,1,0,0,0-1.2,1.6A1.92,1.92,0,0,1,9,4.05a1.95,1.95,0,1,1-3.9,0,1.92,1.92,0,0,1,.78-1.56A1,1,0,0,0,4.63.89,4,4,0,0,0,3.05,4.05a3.88,3.88,0,0,0,.17,1.14.24.24,0,0,1,0,.2A.22.22,0,0,1,3,5.51,4,4,0,0,0,0,8.88a1,1,0,1,0,2,.25,1.95,1.95,0,1,1,1.17,2A1,1,0,0,0,2.38,13a4,4,0,0,0,1.56.32,4,4,0,0,0,2-.53,4.25,4.25,0,0,0,.91-.72.24.24,0,0,1,.36,0,4.25,4.25,0,0,0,.91.72,4,4,0,0,0,2,.53A4,4,0,0,0,11.62,13a1,1,0,0,0-.78-1.84,1.95,1.95,0,1,1,1.17-2,1,1,0,1,0,2-.25Z" style="fill: #000001"/>
</svg>
