<svg xmlns="http://www.w3.org/2000/svg" fill="none" viewBox="0 0 48 48" id="Balloon--Streamline-Plump-Remix">
  <desc>
    Balloon Streamline Icon: https://streamlinehq.com
  </desc>
  <g id="balloon--hobby-entertainment-party-balloon">
    <path id="Union" fill="#000000" fill-rule="evenodd" d="M5 16.2974c0 -3.7756 1.41683 -6.67322 3.62405 -8.64609C10.8567 5.65574 14.0224 4.5 17.6511 4.5c3.6288 0 6.7945 1.15574 9.0271 3.15131 2.2072 1.97287 3.6241 4.87049 3.6241 8.64609 0 3.8366 -1.4677 7.7678 -3.8484 10.7218 -2.3826 2.9562 -5.519 4.7548 -8.8028 4.7548 -3.2837 0 -6.4201 -1.7986 -8.80268 -4.7548C6.46765 24.0652 5 20.134 5 16.2974ZM17.6511 0.5C13.1883 0.5 9.02843 1.9249 5.95838 4.66899 2.86294 7.43578 1 11.4368 1 16.2974c0 4.7995 1.81212 9.6065 4.73402 13.2319 1.95958 2.4313 4.49068 4.4117 7.39678 5.4515 -0.2149 0.2649 -0.4372 0.548 -0.6665 0.8503 -0.1562 0.206 -0.3026 0.4037 -0.4399 0.5935 -0.9895 1.3687 -1.2658 3.0809 -0.4547 4.5686 0.781 1.4326 2.3061 2.1674 3.8965 2.2524 0.4358 0.0233 0.9034 0.0409 1.4009 0.0501 1.3461 1.9121 3.8593 4.2056 7.6223 4.2056 2.4424 0 4.2217 -0.4118 5.7388 -1.0908 1.1109 -0.4971 2.0864 -1.1547 2.927 -1.7213 0.2316 -0.1561 0.4533 -0.3056 0.6644 -0.4426 1.0284 -0.6676 2.1435 -1.2949 3.7936 -1.7723 1.6744 -0.4845 3.9817 -0.8376 7.3878 -0.8376 1.1046 0 2 -0.8954 2 -2 0 -1.1045 -0.8954 -2 -2 -2 -3.6753 0 -6.3738 0.3801 -8.4996 0.9952 -2.15 0.6221 -3.6294 1.461 -4.8597 2.2595 -0.3356 0.2179 -0.6331 0.4179 -0.9082 0.6027 -0.775 0.5209 -1.3716 0.9218 -2.1392 1.2653 -0.94 0.4207 -2.152 0.7419 -4.1049 0.7419 -0.9961 0 -1.8637 -0.3104 -2.592 -0.778 0.7593 -0.374 1.4074 -0.9481 1.8337 -1.7301 0.8111 -1.4877 0.5348 -3.1999 -0.4548 -4.5686 -0.1372 -0.1898 -0.2836 -0.3875 -0.4398 -0.5935 -0.2291 -0.3021 -0.4514 -0.5851 -0.6661 -0.8499 2.9065 -1.0397 5.438 -3.0202 7.3979 -5.4519 2.9219 -3.6254 4.734 -8.4324 4.734 -13.2319 0 -4.8606 -1.863 -8.86162 -4.9584 -11.62841C26.2738 1.9249 22.114 0.5 17.6511 0.5Zm-0.0554 6.79688c-1.1046 0 -2 0.89543 -2 2 0 1.10452 0.8954 2.00002 2 2.00002 1.7433 0 3.212 0.5761 4.2266 1.5208 0.9954 0.9268 1.678 2.3213 1.678 4.2333 0 1.1046 0.8955 2 2 2 1.1046 0 2 -0.8954 2 -2 0 -2.9415 -1.0868 -5.424 -2.9523 -7.16087 -1.8464 -1.7191 -4.33 -2.59325 -6.9523 -2.59325Zm0.0547 28.85782c-0.1125 0 -0.2803 0.0429 -0.4585 0.2368 -0.4398 0.4787 -0.959 1.09 -1.5405 1.8567 -0.1386 0.1827 -0.2668 0.356 -0.3855 0.5201 -0.1181 0.1634 -0.1543 0.2732 -0.1652 0.3221 0.0584 0.0472 0.2184 0.1417 0.5789 0.1609 0.5899 0.0316 1.249 0.0517 1.9708 0.0517s1.3809 -0.0201 1.9707 -0.0517c0.3606 -0.0192 0.5206 -0.1137 0.579 -0.1609 -0.0109 -0.0489 -0.0471 -0.1587 -0.1653 -0.3221 -0.1186 -0.1641 -0.2469 -0.3374 -0.3854 -0.5201 -0.5815 -0.7668 -1.1007 -1.378 -1.5406 -1.8567 -0.1781 -0.1939 -0.3459 -0.2368 -0.4584 -0.2368Z" clip-rule="evenodd" stroke-width="1"></path>
  </g>
</svg>