<svg xmlns="http://www.w3.org/2000/svg" fill="none" viewBox="0 0 48 48" id="Dices-Entertainment-Gaming-Dices--Streamline-Plump-Remix">
  <desc>
    Dices Entertainment Gaming Dices Streamline Icon: https://streamlinehq.com
  </desc>
  <g id="dices-entertainment-gaming-dices">
    <path id="Union" fill="#000000" fill-rule="evenodd" d="M24.8385 5.49733C23.6937 1.91886 20.1517 -0.12609 16.4803 0.671739c-1.4722 0.319919 -3.306 0.756971 -5.5247 1.351461 -2.21864 0.59448 -4.02526 1.13286 -5.46018 1.59189C1.91694 4.75985 -0.128056 8.30184 0.669789 11.9733c0.319922 1.4722 0.756981 3.3059 1.351471 5.5246 0.59449 2.2186 1.13287 4.0252 1.59191 5.4601 1.14478 3.5785 4.6868 5.6235 8.35823 4.8256 1.4722 -0.3199 3.306 -0.7569 5.5246 -1.3514 2.2187 -0.5945 4.0253 -1.1329 5.4602 -1.5919 0.1043 -0.0334 0.2073 -0.0688 0.309 -0.1062 -0.037 0.1008 -0.0721 0.2029 -0.1052 0.3062 -0.459 1.4349 -0.9974 3.2415 -1.5919 5.4602 -0.5945 2.2186 -1.0315 4.0524 -1.3514 5.5246 -0.7979 3.6714 1.2471 7.2134 4.8256 8.3581 1.4349 0.4591 3.2415 0.9975 5.4602 1.5919 2.2187 0.5945 4.0524 1.0316 5.5246 1.3515 3.6715 0.7978 7.2135 -1.2471 8.3583 -4.8256 0.459 -1.4349 0.9974 -3.2415 1.5919 -5.4602 0.5945 -2.2186 1.0315 -4.0524 1.3515 -5.5245 0.7978 -3.6715 -1.2472 -7.2135 -4.8257 -8.3582 -1.4349 -0.4591 -3.2415 -0.9974 -5.4602 -1.5919 -2.2187 -0.5945 -4.0524 -1.0316 -5.5246 -1.3515 -1.3838 -0.3007 -2.7491 -0.1976 -3.9747 0.2393 0.436 -1.2249 0.5388 -2.5892 0.2383 -3.9719 -0.3199 -1.4722 -0.757 -3.3059 -1.3515 -5.5246 -0.5945 -2.21865 -1.1329 -4.02526 -1.5919 -5.46017Zm-7.5088 -0.91682c1.6573 -0.36014 3.1823 0.52033 3.699 2.1356 0.4387 1.37145 0.9593 3.11677 1.538 5.27669 0.5788 2.1599 1.0006 3.9316 1.3064 5.3387 0.3601 1.6572 -0.5203 3.1822 -2.1356 3.699 -1.3715 0.4387 -3.1168 0.9592 -5.2767 1.538 -2.16 0.5787 -3.9317 1.0006 -5.3388 1.3064 -1.65729 0.3601 -3.18229 -0.5204 -3.69903 -2.1356 -0.43873 -1.3715 -0.95926 -3.1168 -1.53801 -5.2767 -0.57875 -2.1599 -1.00063 -3.9317 -1.3064 -5.3387 -0.36014 -1.65727 0.52031 -3.18226 2.13563 -3.699 1.37145 -0.43873 3.11678 -0.95925 5.27671 -1.538 2.1599 -0.57874 3.9317 -1.00062 5.3388 -1.30639ZM16.092 14.9886c0.5524 -0.9565 0.2247 -2.1797 -0.7319 -2.7321 -0.9566 -0.5523 -2.1798 -0.2246 -2.7321 0.732l-0.266 0.4607c-0.5523 0.9565 -0.2246 2.1797 0.7319 2.7321 0.9566 0.5523 2.1798 0.2246 2.7321 -0.732l0.266 -0.4607Zm15.24 22.7789c0.9566 -0.5522 1.2845 -1.7754 0.7322 -2.732 -0.5522 -0.9566 -1.7754 -1.2844 -2.732 -0.7322l-0.4608 0.266c-0.9566 0.5523 -1.2844 1.7754 -0.7321 2.732 0.5522 0.9566 1.7754 1.2845 2.732 0.7322l0.4607 -0.266Zm8.074 -7.525c0.5522 0.9566 0.2244 2.1798 -0.7322 2.732l-0.4607 0.266c-0.9566 0.5523 -2.1798 0.2245 -2.732 -0.7321 -0.5523 -0.9566 -0.2245 -2.1798 0.7321 -2.732l0.4608 -0.266c0.9566 -0.5523 2.1798 -0.2245 2.732 0.7321Z" clip-rule="evenodd" stroke-width="1"></path>
  </g>
</svg>