<svg xmlns="http://www.w3.org/2000/svg" fill="none" viewBox="0 0 48 48" id="Earpods--Streamline-Plump-Remix">
  <desc>
    Earpods Streamline Icon: https://streamlinehq.com
  </desc>
  <g id="earpods--airpods-audio-earpods-music-earbuds-true-wireless-entertainment">
    <path id="Union" fill="#000000" fill-rule="evenodd" d="M18.2172 5.62758c-0.0956 -0.0604 -0.3124 -0.14298 -0.67 -0.12587 -2.966 0.14192 -5.5746 0.57217 -7.56445 1.00965 -2.30088 0.50586 -3.85114 1.89783 -4.16736 3.69034 -0.16457 0.9329 -0.2819 2.0889 -0.28263 3.4914 -0.00006 0.122 -0.01106 0.2416 -0.03207 0.3576 0.02472 6.4954 0.71098 14.8966 1.33094 21.1987 0.86942 -0.01 1.81332 -0.0156 2.83725 -0.0156 0.39492 0 0.77802 0.0009 1.14952 0.0025v-11.921c0 -0.5874 0.2582 -1.1451 0.706 -1.5251 0.4479 -0.38 1.0402 -0.5439 1.6198 -0.4482 1.4599 0.241 2.9866 0.4408 4.4498 0.5434 0.3421 0.024 0.5454 -0.054 0.6308 -0.1075 0.0397 -0.0249 0.061 -0.0477 0.075 -0.0676 0.0136 -0.0192 0.0385 -0.0613 0.057 -0.1466 0.2771 -1.2788 0.5737 -3.6466 0.5737 -7.8575 0 -4.21082 -0.2966 -6.57868 -0.5737 -7.85748 -0.0184 -0.08471 -0.0432 -0.12687 -0.0573 -0.14696 -0.0149 -0.02103 -0.0382 -0.04628 -0.0823 -0.07418ZM1.53539 13.3155c0.01985 -1.4649 0.15041 -2.7293 0.34082 -3.80866 0.68571 -3.88705 3.92556 -6.17181 7.24764 -6.90218 2.16295 -0.47552 4.99845 -0.94365 8.23215 -1.09838 2.01 -0.09617 4.3486 0.90451 4.91 3.49529 0.3597 1.65967 0.6645 4.33764 0.6645 8.70463 0 4.367 -0.3048 7.045 -0.6645 8.7047 -0.561 2.5889 -2.9035 3.6083 -4.9516 3.4647 -0.8297 -0.0581 -1.6682 -0.1437 -2.496 -0.2475V41.577c0 2.7158 -2.1984 4.9237 -4.91824 4.9237H8.40737c-2.47772 0 -4.58307 -1.8449 -4.86562 -4.3333C2.91313 36.6315 1.49997 23.1522 1.5 13.692c0 -0.1287 0.01216 -0.2546 0.03539 -0.3765ZM41.1692 35.2494c-0.87 -0.01 -1.8146 -0.0156 -2.8394 -0.0156 -0.3942 0 -0.7765 0.0009 -1.1473 0.0025v-11.921c0 -0.5874 -0.2582 -1.1451 -0.7061 -1.5251 -0.4479 -0.38 -1.0402 -0.5439 -1.6197 -0.4482 -1.46 0.241 -2.9867 0.4408 -4.4499 0.5434 -0.3421 0.024 -0.5454 -0.054 -0.6308 -0.1075 -0.0397 -0.0249 -0.061 -0.0477 -0.075 -0.0676 -0.0135 -0.0192 -0.0385 -0.0613 -0.057 -0.1466 -0.2771 -1.2788 -0.5737 -3.6466 -0.5737 -7.8575 0 -4.21082 0.2966 -6.57868 0.5737 -7.85748 0.0184 -0.08471 0.0432 -0.12687 0.0574 -0.14696 0.0148 -0.02103 0.0381 -0.04628 0.0822 -0.07418 0.0956 -0.0604 0.3124 -0.14298 0.67 -0.12587 2.966 0.14192 5.5746 0.57217 7.5645 1.00965 2.3009 0.50586 3.8511 1.89783 4.1673 3.69034 0.1646 0.9329 0.2819 2.0889 0.2827 3.4914 0 0.122 0.011 0.2416 0.032 0.3576 -0.0247 6.4954 -0.711 14.8966 -1.3309 21.1987ZM30.6448 1.50628c-2.01 -0.09617 -4.3486 0.90451 -4.91 3.49529 -0.3597 1.65967 -0.6645 4.33764 -0.6645 8.70463 0 4.367 0.3048 7.045 0.6645 8.7047 0.561 2.5889 2.9035 3.6083 4.9517 3.4647 0.8296 -0.0581 1.6681 -0.1437 2.496 -0.2475V41.577c0 2.7158 2.1984 4.9237 4.9182 4.9237h1.4927c2.4778 0 4.5831 -1.8449 4.8657 -4.3333 0.6286 -5.5359 2.0417 -19.0152 2.0417 -28.4754 0 -0.1287 -0.0121 -0.2546 -0.0354 -0.3765 -0.0198 -1.4649 -0.1504 -2.7293 -0.3408 -3.80866 -0.6857 -3.88705 -3.9255 -6.17181 -7.2476 -6.90218 -2.163 -0.47552 -4.9984 -0.94365 -8.2322 -1.09838Z" clip-rule="evenodd" stroke-width="1"></path>
  </g>
</svg>