<svg xmlns="http://www.w3.org/2000/svg" fill="none" viewBox="0 0 48 48" id="Volume-Level-High--Streamline-Plump-Remix">
  <desc>
    Volume Level High Streamline Icon: https://streamlinehq.com
  </desc>
  <g id="volume-level-high--speaker-high-volume-control-audio-music-entertainment">
    <path id="Union" fill="#000000" fill-rule="evenodd" d="M28.373 5.52732c-0.2232 -2.80807 -2.9784 -5.199394 -6.0299 -3.92618 -3.8146 1.59157 -7.2142 4.03757 -9.626 6.0388 -1.2147 1.00797 -2.1991 1.92009 -2.88285 2.58336 -0.29694 0.2881 -0.53791 0.5299 -0.71721 0.7132 -0.22565 0.0734 -0.52088 0.1703 -0.86698 0.2854 -0.81494 0.2713 -1.91726 0.6461 -3.0597 1.0583 -1.80564 0.6514 -3.04006 2.2449 -3.34074 4.0967C1.57362 18.0767 1.25 20.7587 1.25 24c0 3.2412 0.32324 5.9231 0.59927 7.6231 0.30068 1.8518 1.5351 3.4453 3.34074 4.0967 1.14244 0.4122 2.24476 0.787 3.0597 1.0583 0.3461 0.1151 0.64133 0.212 0.86699 0.2854 0.17929 0.1833 0.42026 0.4251 0.7172 0.7132 0.6838 0.6633 1.6681 1.5754 2.8829 2.5834 2.4118 2.0012 5.8113 4.4472 9.6259 6.0388 3.0516 1.2732 5.8068 -1.1182 6.03 -3.9262C28.6479 39.0087 29 32.8511 29 24c0 -8.8511 -0.3517 -15.00867 -0.627 -18.47268ZM11.2655 33.6202c-0.8202 -6.3284 -0.8201 -12.9118 0.0002 -19.2401 0.2251 -0.1865 0.4399 -0.3696 0.6439 -0.5797 0.1595 -0.1641 0.3993 -0.4065 0.7108 -0.7087 0.6236 -0.605 1.5307 -1.4458 2.652 -2.3762 2.2604 -1.87562 5.3117 -4.04857 8.6118 -5.42545 0.0716 -0.02988 0.1128 -0.02842 0.1334 -0.02596 0.0249 0.00298 0.0628 0.01358 0.1104 0.0468 0.0961 0.06708 0.2338 0.23417 0.2576 0.53311 0.2669 3.35906 0.6144 9.4111 0.6144 18.1562 0 8.7451 -0.3475 14.7972 -0.6144 18.1562 -0.0238 0.299 -0.1615 0.4661 -0.2576 0.5331 -0.0476 0.0333 -0.0855 0.0439 -0.1104 0.0468 -0.0206 0.0025 -0.0618 0.004 -0.1334 -0.0259 -3.3001 -1.3769 -6.3514 -3.5499 -8.6118 -5.4255 -1.1213 -0.9304 -2.0284 -1.7712 -2.652 -2.3762 -0.3115 -0.3021 -0.5513 -0.5445 -0.7108 -0.7087 -0.2041 -0.2102 -0.419 -0.3933 -0.6441 -0.5798ZM38.3317 37.41c-0.7788 -0.7833 -0.775 -2.0496 0.0083 -2.8284 5.8801 -5.8454 5.8801 -15.3178 0 -21.1632 -0.7833 -0.7788 -0.7871 -2.0451 -0.0083 -2.8284 0.7787 -0.78338 2.045 -0.78712 2.8284 -0.0084 7.4533 7.4094 7.4533 19.4274 0 26.8368 -0.7834 0.7787 -2.0497 0.775 -2.8284 -0.0084Zm-5.424 -3.9273c-0.8188 -0.7414 -0.8817 -2.0061 -0.1403 -2.825 3.3102 -3.6563 3.3102 -9.6591 0 -13.3154 -0.7414 -0.8189 -0.6785 -2.0836 0.1403 -2.825 0.8189 -0.7413 2.0836 -0.6784 2.825 0.1404 4.6898 5.1802 4.6898 13.5044 0 18.6846 -0.7414 0.8188 -2.0061 0.8817 -2.825 0.1404Z" clip-rule="evenodd" stroke-width="1"></path>
  </g>
</svg>