<svg xmlns="http://www.w3.org/2000/svg" fill="none" viewBox="0 0 14 14"><g id="affordable-and-clean-energy"><path id="Ellipse 227" fill="#37d7ff" d="M3 6.862a3.861 3.861 0 1 0 7.722 0 3.861 3.861 0 1 0-7.722 0"></path><path id="Ellipse 229" stroke="#3e3e3e" stroke-linecap="round" stroke-linejoin="round" d="M3 6.862a3.861 3.861 0 1 0 7.722 0 3.861 3.861 0 1 0-7.722 0"></path><path id="Vector 436" stroke="#3e3e3e" stroke-linecap="round" stroke-linejoin="round" d="M6.862.858v.644"></path><path id="Vector 444" stroke="#3e3e3e" stroke-linecap="round" stroke-linejoin="round" d="M6.862 4.696v1.535"></path><path id="Vector 437" stroke="#3e3e3e" stroke-linecap="round" stroke-linejoin="round" d="M6.862 12.222v.644"></path><path id="Vector 438" stroke="#3e3e3e" stroke-linecap="round" stroke-linejoin="round" d="M.859 6.862h.643"></path><path id="Vector 439" stroke="#3e3e3e" stroke-linecap="round" stroke-linejoin="round" d="M12.223 6.862h.643"></path><path id="Vector 440" stroke="#3e3e3e" stroke-linecap="round" stroke-linejoin="round" d="m11.15 2.574-.428.428"></path><path id="Vector 441" stroke="#3e3e3e" stroke-linecap="round" stroke-linejoin="round" d="m3.002 10.722-.428.427"></path><path id="Vector 442" stroke="#3e3e3e" stroke-linecap="round" stroke-linejoin="round" d="m2.574 2.574.428.428"></path><path id="Vector 443" stroke="#3e3e3e" stroke-linecap="round" stroke-linejoin="round" d="m10.722 10.722.428.427"></path><path id="Ellipse 228" stroke="#3e3e3e" stroke-linecap="round" stroke-linejoin="round" d="M5.45 5.779a1.764 1.764 0 1 0 2.823 0"></path></g></svg>