<svg xmlns="http://www.w3.org/2000/svg" fill="none" viewBox="0 0 14 14"><g id="rose--nature-flower-rose-plant-tree"><path id="Subtract" fill="#ffffff" d="M9.907 2.759A2.997 2.997 0 0 0 7 .5a3.002 3.002 0 0 0-2.91 2.266 8.955 8.955 0 0 1 2.917 1.35L7 4.109a8.623 8.623 0 0 1 2.907-1.35Z"></path><path id="Vector" stroke="#3e3e3e" stroke-linecap="round" stroke-linejoin="round" d="M9.91 2.769A2.997 2.997 0 0 0 7 .5a3.002 3.002 0 0 0-2.91 2.269"></path><path id="Vector_2" fill="#37d7ff" d="M7 4.108a8.625 8.625 0 0 1 5.5-1.599v3.497c0 1.458-.58 2.855-1.61 3.886A5.502 5.502 0 0 1 1.5 6.006V2.51s6.56-.79 9.56 7.204"></path><path id="Vector_3" stroke="#3e3e3e" stroke-linecap="round" stroke-linejoin="round" d="M7 4.108a8.625 8.625 0 0 1 5.5-1.599v3.497c0 1.458-.58 2.855-1.61 3.886A5.502 5.502 0 0 1 1.5 6.006V2.51s6.56-.79 9.56 7.204"></path><path id="Vector_4" stroke="#3e3e3e" stroke-linecap="round" stroke-linejoin="round" d="M7 11.502V13.5"></path></g></svg>