<svg xmlns="http://www.w3.org/2000/svg" fill="none" viewBox="0 0 24 24" id="Cutter--Streamline-Sharp-Remix">
  <desc>
    Cutter Streamline Icon: https://streamlinehq.com
  </desc>
  <g id="Remix/Interface Essential/cutter--cutter-company-office-supplies-work">
    <path id="Union" fill="#000000" fill-rule="evenodd" d="M11.9163 1.81586C13.1267 0.605533 14.7155 0 16.3002 0c1.5847 0 3.1736 0.605532 4.3839 1.81586 2.4212 2.42116 2.4212 6.34662 0 8.76774l-8.3002 8.3003 -0.8839 0.8838 -0.8839 -0.8838 -0.79291 -0.793 -5.61608 5.6161 -0.2929 0.2929H1.5v-8.4142l0.29289 -0.2929 2.61608 -2.6161 -0.79285 -0.7928L2.73223 11l0.88389 -0.8839 8.30018 -8.30024ZM16.3002 2.5c-0.9488 0 -1.8934 0.36097 -2.6161 1.08363L6.26777 11 11.5 16.2322l7.4163 -7.41633c1.4449 -1.44485 1.4449 -3.7874 0 -5.23224C18.1937 2.86097 17.249 2.5 16.3002 2.5Zm-0.1841 2.11612 -3 3 1.7678 1.76776 3 -3 -1.7678 -1.76776Z" clip-rule="evenodd" stroke-width="1"></path>
  </g>
</svg>