<svg xmlns="http://www.w3.org/2000/svg" fill="none" viewBox="0 0 24 24" id="Dashboard-Gauge-2--Streamline-Sharp-Remix">
  <desc>
    Dashboard Gauge 2 Streamline Icon: https://streamlinehq.com
  </desc>
  <g id="Remix/Interface Essential/dashboard-gauge-2--bar-speed-test-loading-dashboard-internet-gauge-progress">
    <path id="Union" fill="#000000" fill-rule="evenodd" d="M12 2.75c-3.1826 0 -6.23484 1.26428 -8.48528 3.51472C1.26428 8.51516 0 11.5674 0 14.75c0 1.5076 0.283708 2.986 0.821511 4.3636l0.310519 0.7955H22.868l0.3105 -0.7955C23.7163 17.736 24 16.2576 24 14.75c0 -3.1826 -1.2643 -6.23484 -3.5147 -8.48528C18.2348 4.01428 15.1826 2.75 12 2.75ZM5.28249 8.03249C7.06408 6.25089 9.48044 5.25 12 5.25c2.5196 0 4.9359 1.00089 6.7175 2.78249C20.4991 9.81408 21.5 12.2304 21.5 14.75c0 0.9081 -0.13 1.8027 -0.3797 2.6591h-6.1956l2.5947 -4.5409 -3.0388 -1.7364 -3.5871 6.2773H2.87971C2.63 16.5527 2.5 15.6581 2.5 14.75c0 -2.5196 1.00089 -4.93592 2.78249 -6.71751Z" clip-rule="evenodd" stroke-width="1"></path>
  </g>
</svg>