<svg xmlns="http://www.w3.org/2000/svg" fill="none" viewBox="0 0 24 24" id="Drawing-Compass--Streamline-Sharp-Remix">
  <desc>
    Drawing Compass Streamline Icon: https://streamlinehq.com
  </desc>
  <g id="Remix/Interface Essential/drawing-compass">
    <path id="Union" fill="#000000" fill-rule="evenodd" d="M13.2508 2.19919c1.597 0.5249 2.75 2.0282 2.75 3.80081 0 0.45672 -0.0765 0.89557 -0.2175 1.30441L18.9039 14.25h2.0969v2.5h-0.9737l2.6139 5.8177 -2.2804 1.0246 -3.0742 -6.8423h-4.0356v1.75h-2.5v-1.75H6.7152L3.641 23.5923l-2.2804 -1.0246L3.97446 16.75H3.0008v-2.5h2.09689l3.12062 -6.94559C8.07734 6.89557 8.0008 6.45672 8.0008 6c0 -1.77261 1.15303 -3.27591 2.75 -3.80081V0h2.5v2.19919Zm0 12.05081V12.5h-2.5v1.75H7.83843l2.15251 -4.79085C10.5815 9.80303 11.2681 10 12.0008 10c0.7326 0 1.4193 -0.19697 2.0099 -0.54085L16.1632 14.25h-2.9124Z" clip-rule="evenodd" stroke-width="1"></path>
  </g>
</svg>