<svg xmlns="http://www.w3.org/2000/svg" fill="none" viewBox="0 0 24 24" id="Fingerprint-2--Streamline-Sharp-Remix">
  <desc>
    Fingerprint 2 Streamline Icon: https://streamlinehq.com
  </desc>
  <g id="Remix/Interface Essential/fingerprint-2--identification-password-touch-id-secure-fingerprint-finger-security">
    <path id="Union" fill="#000000" fill-rule="evenodd" d="M19.751 10.25c0 -4.28021 -3.4698 -7.75 -7.75 -7.75V0c5.6609 0 10.25 4.58908 10.25 10.25v3.5h-2.5v-3.5Zm-15.50002 2v1.5c0 4.2802 3.46979 7.75 7.75002 7.75 3.6867 0 6.7748 -2.5755 7.5579 -6.0266l2.4381 0.5532C20.9612 20.5914 16.8806 24 12.001 24 6.34006 24 1.75098 19.4109 1.75098 13.75v-1.5h2.5ZM9.72437 0.254133C5.15954 1.28995 1.75098 5.37049 1.75098 10.2501h2.5c0 -3.68668 2.57548 -6.77484 6.02662 -7.55794L9.72437 0.254133ZM6.84936 7.44371C7.78874 5.55343 9.7415 4.25 12.001 4.25c3.1756 0 5.75 2.57436 5.75 5.75h-2.5c0 -1.79493 -1.4551 -3.25 -3.25 -3.25 -1.2742 0 -2.37954 0.73313 -2.91286 1.80629L6.84936 7.44371ZM15.251 12v2c0 1.7949 -1.4551 3.25 -3.25 3.25v2.5c3.1756 0 5.75 -2.5744 5.75 -5.75v-2h-2.5Zm-6.50002 -2v4c0 1.2742 0.73313 2.3795 1.80632 2.9128l-1.11261 2.2388C7.55441 18.2122 6.25098 16.2595 6.25098 14v-4h2.5ZM10.751 9v6h2.5V9h-2.5Z" clip-rule="evenodd" stroke-width="1"></path>
  </g>
</svg>