<svg xmlns="http://www.w3.org/2000/svg" fill="none" viewBox="0 0 24 24" id="Flip-Vertical-Arrow-2--Streamline-Sharp-Remix">
  <desc>
    Flip Vertical Arrow 2 Streamline Icon: https://streamlinehq.com
  </desc>
  <g id="Remix/Interface Essential/flip-vertical-arrow-2--arrow-design-flip-reflect-up-down">
    <path id="Union" fill="#000000" fill-rule="evenodd" d="m24.0007 13.25 -4 0 0 -2.5 4 0 0 2.5ZM19.9149 23l-1.7071 -1.7071 -5.5 -5.5 -0.7071 -0.7071 -0.7071 0.7071 -5.5 5.5L4.08649 23l2.41421 0 11 0 2.4142 0Zm0 -21.99991L18.2078 2.7072l-5.5 5.5 -0.7071 0.70711 -0.7071 -0.70711 -5.5 -5.5 -1.70711 -1.70711 2.41421 0 11 0 2.4142 0ZM0.000732538 13.25l3.999997462 0 0 -2.5 -3.999997432 0 -3e-8 2.5ZM10.6677 13.25l-3.99998 0 0 -2.5 3.99998 0 0 2.5Zm2.667 0 4 0 0 -2.5 -4 0 0 2.5Z" clip-rule="evenodd" stroke-width="1"></path>
  </g>
</svg>