<svg xmlns="http://www.w3.org/2000/svg" fill="none" viewBox="0 0 24 24" id="Non-Commercial-Dollars--Streamline-Sharp-Remix">
  <desc>
    Non Commercial Dollars Streamline Icon: https://streamlinehq.com
  </desc>
  <g id="Remix/Interface Essential/non-commercial-dollars">
    <path id="Union" fill="#000000" fill-rule="evenodd" d="M12.001 0C8.81838 0 5.76613 1.26428 3.5157 3.51472 1.26526 5.76516 0.000976562 8.8174 0.000976562 12S1.26526 18.2348 3.5157 20.4853C5.76613 22.7357 8.81838 24 12.001 24c3.1826 0 6.2348 -1.2643 8.4853 -3.5147C22.7367 18.2348 24.001 15.1826 24.001 12c0 -3.1826 -1.2643 -6.23484 -3.5147 -8.48528C18.2358 1.26428 15.1836 0 12.001 0ZM5.28346 5.28249C7.06506 3.50089 9.48142 2.5 12.001 2.5c2.5195 0 4.9359 1.00089 6.7175 2.78249C20.5001 7.06408 21.501 9.48044 21.501 12c0 1.2564 -0.2489 2.4872 -0.7194 3.6264l-2.1556 -1.2446 -1.25 2.1651 2.1556 1.2445c-0.2494 0.3243 -0.5207 0.6337 -0.8131 0.9261 -1.7816 1.7816 -4.198 2.7825 -6.7175 2.7825 -2.51958 0 -4.93594 -1.0009 -6.71754 -2.7825C3.50187 16.9359 2.50098 14.5196 2.50098 12c0 -1.2563 0.24885 -2.48701 0.71927 -3.62613l2.15573 1.24461 1.25 -2.16506 -2.15577 -1.24464c0.2494 -0.3243 0.52081 -0.63385 0.81325 -0.92629ZM13.251 4.5v1.25h0.2916c1.4958 0 2.7083 1.21256 2.7083 2.70833V9.5h-2.5V8.45833c0 -0.11506 -0.0932 -0.20833 -0.2083 -0.20833h-3.0833c-0.1152 0 -0.2083 0.09329 -0.2083 0.20819l0 1.1321c0 0.08091 0.0467 0.15377 0.1188 0.18801l3.9886 1.1078 0.0394 0.0109 0.0386 0.0135c1.0867 0.3799 1.8146 1.4052 1.8146 2.5566l0 2.0747c-0.0001 1.4958 -1.2127 2.7082 -2.7084 2.7082h-0.2867v1.25h-2.5v-1.25h-0.2966c-1.49575 0 -2.70832 -1.2126 -2.70832 -2.7083V14.5H10.251v1.0417c0 0.115 0.0933 0.2083 0.2083 0.2083h3.0833c0.1152 0 0.2084 -0.0933 0.2084 -0.2082l0 -2.0747c0 -0.081 -0.0468 -0.1538 -0.1188 -0.1881l-3.98864 -1.1078 -0.0394 -0.0109 -0.0386 -0.0135c-1.08666 -0.3799 -1.81457 -1.4051 -1.81458 -2.5565l0 -1.13209C7.75097 6.96227 8.96369 5.75 10.4593 5.75h0.2917V4.5h2.5Z" clip-rule="evenodd" stroke-width="1"></path>
  </g>
</svg>