<svg xmlns="http://www.w3.org/2000/svg" fill="none" viewBox="0 0 24 24" id="One-Finger-Short-Tap--Streamline-Sharp-Remix">
  <desc>
    One Finger Short Tap Streamline Icon: https://streamlinehq.com
  </desc>
  <g id="Remix/Interface Essential/one-finger-short-tap">
    <path id="Union" fill="#000000" fill-rule="evenodd" d="M13.2507 0.5V3h-2.5V0.5h2.5ZM7.00073 6.75h-2.5v2.5h2.5v-2.5Zm12.49997 0h-2.5v2.5h2.5v-2.5Zm-9.25 -1H9.00073v9.5157l-1.72226 -0.5741c-2.10447 -0.7015 -4.27774 0.8649 -4.27774 3.0833v0.743l0.36613 0.3661 5 4.9999 1.76774 -1.7678 -4.59153 -4.5914c0.13068 -0.3712 0.54318 -0.5952 0.94483 -0.4614l3.36755 1.1226 1.64525 0.5484V8.25h0.75c0.4142 0 0.75 0.33579 0.75 0.75v5.242l0.6515 0.3554 4.8485 2.6446v6.7581h2.5V15.758l-0.6515 -0.3554 -4.8485 -2.6446V9c0 -1.79493 -1.455 -3.25 -3.25 -3.25h-2Zm4.4017 -2.16958 1.7677 -1.76777 1.7678 1.76777 -1.7678 1.76776 -1.7677 -1.76776Zm-8.8389 0 1.76777 1.76776 1.76777 -1.76776 -1.76777 -1.76777L5.8135 3.58042Z" clip-rule="evenodd" stroke-width="1"></path>
  </g>
</svg>