<svg xmlns="http://www.w3.org/2000/svg" fill="none" viewBox="0 0 24 24" id="Pin-1--Streamline-Sharp-Remix">
  <desc>
    Pin 1 Streamline Icon: https://streamlinehq.com
  </desc>
  <g id="Remix/Interface Essential/pin-1--pin-push-thumbtack">
    <path id="Union" fill="#000000" fill-rule="evenodd" d="m13.2049 22.2955 1.5866 1.5867 0.514 -2.1842 1.8884 -8.0254 5.4964 -3.72632 1.2521 -0.84887 -1.0696 -1.06965 -6.9 -6.9L14.9031 0.0581055 14.0542 1.31019l-3.7263 5.49638L2.30255 8.695l-2.184244 0.51397L1.70499 10.7957l4.51254 4.5125 -6.1589362 6.1589L2.53347 23.942l6.15894 -6.1589 4.51249 4.5124Zm1.6672 -9.6702 -1.4862 6.3158 -8.32647 -8.3265 6.31577 -1.48619 0.4747 -0.1117 0.2736 -0.40362 3.1511 -4.64792 4.7607 4.76071 -4.6479 3.15112 -0.4036 0.2737 -0.1117 0.4746Z" clip-rule="evenodd" stroke-width="1"></path>
  </g>
</svg>