<svg xmlns="http://www.w3.org/2000/svg" fill="none" viewBox="0 0 24 24" id="Ruler--Streamline-Sharp-Remix">
  <desc>
    Ruler Streamline Icon: https://streamlinehq.com
  </desc>
  <g id="Remix/Interface Essential/ruler--ruler-company-office-supplies-work-measure">
    <path id="Union" fill="#000000" fill-rule="evenodd" d="m15.8841 1.11631 -0.8839 -0.883888 -0.8839 0.883888L1.11631 14.1163l-0.883888 0.8839 0.883888 0.8839 7 7 0.88388 0.8839 0.88388 -0.8839L22.8841 9.88407l0.8839 -0.88388 -0.8839 -0.88388 -7 -7ZM9.00019 20.2324l-5.23223 -5.2322 0.87868 -0.8787 2.11611 2.1161 2.47488 -2.4748 -2.11612 -2.1162 1.02513 -1.0251 2.11616 2.1161 2.4748 -2.4748 -2.1161 -2.11616 1.0251 -1.02513 2.1162 2.11612 2.4748 -2.47488 -2.1161 -2.11611 0.8787 -0.87868 5.2322 5.23223L9.00019 20.2324Z" clip-rule="evenodd" stroke-width="1"></path>
  </g>
</svg>