<svg xmlns="http://www.w3.org/2000/svg" fill="none" viewBox="0 0 24 24" id="User-Identifier-Card--Streamline-Sharp-Remix">
  <desc>
    User Identifier Card Streamline Icon: https://streamlinehq.com
  </desc>
  <g id="Remix/Interface Essential/user-identifier-card">
    <path id="Union" fill="#000000" fill-rule="evenodd" d="M13.25 5.5v2h-2.5v-2l-8.25 0 0 10.1531C3.92664 15.228 5.43739 15 7 15c2.07434 0 4.0573 0.4019 5.8734 1.1329l0.6266 0.2523V18.5h8v-13l-8.25 0Zm0 -2.5 9.5 0L24 3v18h-1.25l-21.5 0L0 21V3l1.25 0 9.5 0V1h2.5v2ZM7.00098 6.75c-2.07107 0 -3.75 1.67893 -3.75 3.75 0 2.0711 1.67893 3.75 3.75 3.75 2.07106 0 3.75002 -1.6789 3.75002 -3.75 0 -2.07107 -1.67896 -3.75 -3.75002 -3.75Zm-1.25 3.75c0 -0.69036 0.55964 -1.25 1.25 -1.25 0.69035 0 1.25 0.55964 1.25 1.25 0 0.6904 -0.55965 1.25 -1.25 1.25 -0.69036 0 -1.25 -0.5596 -1.25 -1.25ZM19.5 10.25h-5v-2.5h5v2.5Zm-5 4h5v-2.5h-5v2.5Z" clip-rule="evenodd" stroke-width="1"></path>
  </g>
</svg>