<svg xmlns="http://www.w3.org/2000/svg" fill="none" viewBox="0 0 24 24" id="Voice-Typing-Word-Convert--Streamline-Sharp-Remix">
  <desc>
    Voice Typing Word Convert Streamline Icon: https://streamlinehq.com
  </desc>
  <g id="Remix/Interface Essential/voice-typing-word-convert">
    <path id="Union" fill="#000000" fill-rule="evenodd" d="M3.75 0h7.9373v7.03137C11.6873 9.22318 9.91044 11 7.71863 11S3.75 9.22318 3.75 7.03137V0ZM0 7.03125c0 3.84395 2.83145 7.02135 6.5 7.61795V16.5H9v-1.8509c1.0605 -0.1725 2.0513 -0.5607 2.923 -1.1176l-1.346 -2.1068c-0.81786 0.5226 -1.78758 0.8252 -2.827 0.8252 -2.89005 0 -5.25 -2.34434 -5.25 -5.21865H0ZM14.8691 8h3.7618l0.2963 0.82958 5 14.00002 -2.3544 0.8408 -1.5609 -4.3706h-6.5238l-1.5609 4.3706 -2.35438 -0.8408L14.5728 8.82958 14.8691 8Zm2 2.5 2.2499 6.2998h-4.738L16.6309 10.5h0.2382ZM20.25 2.75l-3.75 0V0.25l5 0 1.25 0V4H24v1.5L21.5 8 19 5.5V4h1.25V2.75Z" clip-rule="evenodd" stroke-width="1"></path>
  </g>
</svg>