<svg xmlns="http://www.w3.org/2000/svg" viewBox="0 0 14 14">
  <g>
    <rect x="4.5" width="5" height="2" rx="0.5" style="fill: #000001"/>
    <path d="M11,1h-.25a.25.25,0,0,0-.25.25V1.5A1.5,1.5,0,0,1,9,3H5A1.5,1.5,0,0,1,3.5,1.5V1.25A.25.25,0,0,0,3.25,1H3A1.5,1.5,0,0,0,1.5,2.5v10A1.5,1.5,0,0,0,3,14h8a1.5,1.5,0,0,0,1.5-1.5V2.5A1.5,1.5,0,0,0,11,1ZM9.53,10a.75.75,0,0,1,0,1.06.75.75,0,0,1-1.06,0L7.18,9.74a.25.25,0,0,0-.36,0L5.53,11a.75.75,0,0,1-1.06,0,.75.75,0,0,1,0-1.06L5.76,8.68a.25.25,0,0,0,0-.36L4.47,7A.75.75,0,0,1,5.53,6L6.82,7.26a.25.25,0,0,0,.36,0L8.47,6A.75.75,0,0,1,9.53,7L8.24,8.32a.25.25,0,0,0,0,.36Z" style="fill: #000001"/>
  </g>
</svg>
