<svg xmlns="http://www.w3.org/2000/svg" viewBox="0 0 14 14">
  <g>
    <path d="M14,11a2.52,2.52,0,0,1-.73,1.77,2.49,2.49,0,0,1-1.77.73h-9A2.5,2.5,0,0,1,0,11V3A2.5,2.5,0,0,1,2.5.5H4.69A2.5,2.5,0,0,1,7.12,2.39a.14.14,0,0,0,.13.11H11.5A2.51,2.51,0,0,1,14,5h0ZM2.5,2.5A.5.5,0,0,0,2,3v8a.5.5,0,0,0,.5.5h9a.48.48,0,0,0,.35-.14A.49.49,0,0,0,12,11V5a.5.5,0,0,0-.5-.49H6.36a1,1,0,0,1-1-.76l-.21-.86a.5.5,0,0,0-.49-.38Z" style="fill: #000001"/>
    <path d="M6.5,10.13A.66.66,0,0,1,6.15,10L4.65,9a.63.63,0,0,1,.7-1l.84.57a.25.25,0,0,0,.33-.05l2-2.4A.63.63,0,0,1,9.4,6a.62.62,0,0,1,.08.88L7,9.9A.62.62,0,0,1,6.5,10.13Z" style="fill: #000001"/>
  </g>
</svg>
