<svg xmlns="http://www.w3.org/2000/svg" viewBox="0 0 14 14">
  <g>
    <path d="M8.75,7.25H8A.25.25,0,0,1,7.75,7V6.25a.75.75,0,0,0-1.5,0V7A.25.25,0,0,1,6,7.25H5.25a.75.75,0,0,0,0,1.5H6A.25.25,0,0,1,6.25,9v.75a.75.75,0,0,0,1.5,0V9A.25.25,0,0,1,8,8.75h.75a.75.75,0,0,0,0-1.5Z" style="fill: #000001"/>
    <path d="M14,5A2.51,2.51,0,0,0,11.5,2.5H7.25a.14.14,0,0,1-.13-.11A2.5,2.5,0,0,0,4.69.5H2.5A2.5,2.5,0,0,0,0,3v8a2.5,2.5,0,0,0,2.5,2.5h9a2.49,2.49,0,0,0,1.77-.73A2.52,2.52,0,0,0,14,11Zm-2,6a.49.49,0,0,1-.15.36.48.48,0,0,1-.35.14h-9A.5.5,0,0,1,2,11V3a.5.5,0,0,1,.5-.5H4.69a.5.5,0,0,1,.49.38l.21.86a1,1,0,0,0,1,.76H11.5A.5.5,0,0,1,12,5Z" style="fill: #000001"/>
  </g>
</svg>
