<svg xmlns="http://www.w3.org/2000/svg" fill="none" viewBox="0 0 14 14" id="Politics-Compaign--Streamline-Core-Neon">
  <desc>
    Politics Compaign Streamline Icon: https://streamlinehq.com
  </desc>
  <g id="politics-compaign">
    <path id="Vector 1188" stroke="#000cfe" stroke-linecap="round" stroke-linejoin="round" d="M1.44531 3.64294H12.5625" stroke-width="1"></path>
    <path id="Vector 1189" stroke="#000cfe" stroke-linecap="round" stroke-linejoin="round" d="m1.44531 10.3571 11.11719 0" stroke-width="1"></path>
    <path id="Vector 1018" stroke="#000cfe" stroke-linecap="round" stroke-linejoin="round" d="M3.44849 5.85474v1.0625m0 0 -0.70834 1.0625m0.70834 -1.0625 0.70833 1.0625m-0.70833 -1.0625 -1.0625 -0.35417m1.0625 0.35417 1.0625 -0.35417" stroke-width="1"></path>
    <path id="Vector 1190" stroke="#000cfe" stroke-linecap="round" stroke-linejoin="round" d="M6.96045 5.85474v1.0625m0 0 -0.70833 1.0625m0.70833 -1.0625 0.70833 1.0625m-0.70833 -1.0625 -1.0625 -0.35417m1.0625 0.35417 1.0625 -0.35417" stroke-width="1"></path>
    <path id="Vector 1191" stroke="#000cfe" stroke-linecap="round" stroke-linejoin="round" d="M10.4724 5.85474v1.0625m0 0 -0.70832 1.0625m0.70832 -1.0625 0.7083 1.0625m-0.7083 -1.0625 -1.06249 -0.35417m1.06249 0.35417 1.0625 -0.35417" stroke-width="1"></path>
    <path id="Ellipse 50" stroke="#c71dff" stroke-linecap="round" stroke-linejoin="round" d="M0.5 7a6.5 6.5 0 1 0 13 0 6.5 6.5 0 1 0 -13 0" stroke-width="1"></path>
  </g>
</svg>