<svg xmlns="http://www.w3.org/2000/svg" fill="none" viewBox="0 0 14 14" id="Politics-Speech--Streamline-Core-Neon">
  <desc>
    Politics Speech Streamline Icon: https://streamlinehq.com
  </desc>
  <g id="politics-speech">
    <path id="Vector" stroke="#c71dff" stroke-linecap="round" stroke-linejoin="round" d="M7 4c0.9665 0 1.75 -0.7835 1.75 -1.75S7.9665 0.5 7 0.5s-1.75 0.7835 -1.75 1.75S6.0335 4 7 4Z" stroke-width="1"></path>
    <path id="Vector_2" stroke="#c71dff" stroke-linecap="round" stroke-linejoin="round" d="M7 12.5095c0.55228 0 1 -0.4477 1 -1s-0.44772 -1 -1 -1 -1 0.4477 -1 1 0.44772 1 1 1Z" stroke-width="1"></path>
    <path id="Vector 1238" stroke="#c71dff" stroke-linecap="round" stroke-linejoin="round" d="M10.1973 8.72852c0 -1.76581 -1.4315 -3.19727 -3.1973 -3.19727 -1.7658 0 -3.19727 1.43146 -3.19727 3.19727" stroke-width="1"></path>
    <path id="Vector 1069" stroke="#000cfe" stroke-linecap="round" stroke-linejoin="round" d="M1.5 8.72852h11.0001" stroke-width="1"></path>
    <path id="Vector 1070" stroke="#000cfe" stroke-linecap="round" stroke-linejoin="round" d="M2.87549 8.72852 3.33378 13.5" stroke-width="1"></path>
    <path id="Vector 1071" stroke="#000cfe" stroke-linecap="round" stroke-linejoin="round" d="M11.1246 8.72852 10.6663 13.5" stroke-width="1"></path>
  </g>
</svg>