<svg xmlns="http://www.w3.org/2000/svg" fill="none" viewBox="0 0 14 14" id="Zodiac-1--Streamline-Core-Neon">
  <desc>
    Zodiac 1 Streamline Icon: https://streamlinehq.com
  </desc>
  <g id="zodiac-1--sign-astrology-stars-space-scorpio">
    <path id="Vector" stroke="#c71dff" stroke-linecap="round" stroke-linejoin="round" d="M0.5 9.54571V3.51143c0 -0.53347 0.210714 -1.04508 0.58579 -1.4223C1.46086 1.71192 1.96957 1.5 2.5 1.5s1.03914 0.21192 1.41421 0.58913c0.37508 0.37722 0.58579 0.88883 0.58579 1.4223 0 -0.53347 0.21071 -1.04508 0.58579 -1.4223C5.46086 1.71192 5.96957 1.5 6.5 1.5s1.03914 0.21192 1.41421 0.58913c0.37508 0.37722 0.58579 0.88883 0.58579 1.4223V10.75c0 0.9665 0.7835 1.75 1.75 1.75S12 11.7165 12 10.75V7.28429" stroke-width="1"></path>
    <path id="Vector_2" stroke="#c71dff" stroke-linecap="round" stroke-linejoin="round" d="m10.5 8.77344 1.5 -1.5 1.5 1.5" stroke-width="1"></path>
    <path id="Vector_3" stroke="#c71dff" stroke-linecap="round" stroke-linejoin="round" d="M4.5 3.5v6" stroke-width="1"></path>
  </g>
</svg>