<svg xmlns="http://www.w3.org/2000/svg" fill="none" viewBox="0 0 14 14" id="Zodiac-3--Streamline-Core-Neon">
  <desc>
    Zodiac 3 Streamline Icon: https://streamlinehq.com
  </desc>
  <g id="zodiac-3--sign-astrology-stars-space-leo">
    <path id="Vector" stroke="#c71dff" stroke-linecap="round" stroke-linejoin="round" d="M3.5 12c1.10457 0 2 -0.8954 2 -2 0 -1.10457 -0.89543 -2 -2 -2s-2 0.89543 -2 2c0 1.1046 0.89543 2 2 2Z" stroke-width="1"></path>
    <path id="Vector_2" stroke="#c71dff" stroke-linecap="round" stroke-linejoin="round" d="M12.5 12c0 0.3978 -0.158 0.7794 -0.4393 1.0607 -0.2814 0.2813 -0.6629 0.4393 -1.0607 0.4393 -0.3978 0 -0.7794 -0.158 -1.06067 -0.4393 -0.2813 -0.2813 -0.43934 -0.6629 -0.43934 -1.0607l1.32851 -7.63868C11.1791 2.34514 9.62716 0.5 7.58072 0.5 5.48105 0.5 3.91648 2.43679 4.3579 4.48953l1.13037 5.25656" stroke-width="1"></path>
  </g>
</svg>