<svg xmlns="http://www.w3.org/2000/svg" fill="none" viewBox="0 0 24 24" id="Watch-Circle-Disable--Streamline-Sharp">
  <desc>
    Watch Circle Disable Streamline Icon: https://streamlinehq.com
  </desc>
  <g id="watch-circle-disable--watch-circle-disable-device-timepiece-deny-cross">
    <path id="Ellipse 1826" fill="#79ee8d" d="M19.5001 12c0 -4.14214 -3.3578 -7.5 -7.5 -7.5 -2.07679 0 -3.95644 0.84413 -5.31455 2.208L17.2921 17.3146c1.3639 -1.3581 2.208 -3.2378 2.208 -5.3146Z" stroke-width="1"></path>
    <path id="Union" fill="#0c098c" fill-rule="evenodd" d="M6.00009 0H18.0001v5.63114C19.6931 7.22674 20.75 9.48994 20.75 12c0 1.9649 -0.6487 3.7798 -1.742 5.2401l4.876 4.876 -1.7678 1.7678L0.116211 1.88388 1.88398 0.116117 6.00009 4.23223V0ZM18.25 12c0 1.2744 -0.3805 2.4586 -1.0353 3.4468L8.55336 6.7855c0.93877 -0.62177 2.05524 -0.99681 3.25684 -1.03267 0.0564 -0.00168 0.1129 -0.00262 0.1697 -0.0028l0.0202 -0.00003c0.3553 0 0.7036 0.02964 1.0427 0.08659C15.9982 6.33295 18.25 8.90351 18.25 12ZM3.25012 12c0 -1.2227 0.25149 -2.38898 0.70593 -3.448l1.96966 1.9697c-0.11475 0.4734 -0.17559 0.9684 -0.17559 1.4783 0 3.4518 2.79822 6.25 6.24998 6.25 0.0994 0 0.1982 -0.0023 0.2964 -0.0068 0.2885 -0.0135 0.5719 -0.0465 0.849 -0.0978l0.0009 0c0.1118 -0.0207 0.2225 -0.0444 0.3321 -0.0709l4.5216 4.5216v1.404H6.00012v-5.6312c-1.69308 -1.5956 -2.75 -3.8588 -2.75 -6.3689Z" clip-rule="evenodd" stroke-width="1"></path>
  </g>
</svg>