<svg xmlns="http://www.w3.org/2000/svg" fill="none" viewBox="0 0 24 24" id="Fortune-Telling-Sphere--Streamline-Sharp">
  <desc>
    Fortune Telling Sphere Streamline Icon: https://streamlinehq.com
  </desc>
  <g id="fortune-telling-sphere--religion-fortune-telling-sphere-culture">
    <path id="Ellipse 891" fill="#fddc5c" d="M11.9999 2c-4.52449 0 -8.19228 3.7148 -8.19228 8.2972 0 2.7371 1.30847 5.1645 3.32643 6.6758L16.8295 17c2.0385 -1.5093 3.3626 -3.9494 3.3626 -6.7028C20.1921 5.7148 16.5243 2 11.9999 2Z" stroke-width="1"></path>
    <path id="Subtract" fill="#0c098c" fill-rule="evenodd" d="M5.05768 10.2972c0 -3.9071 3.12311 -7.0472 6.94222 -7.0472 3.8192 0 6.9423 3.1401 6.9423 7.0472 0 2.2001 -0.9916 4.1608 -2.544 5.4528H7.60168c-1.55245 -1.292 -2.544 -3.2527 -2.544 -5.4528ZM4.2484 15.75c-1.06593 -1.5466 -1.69072 -3.4269 -1.69072 -5.4528C2.55768 5.0395 6.77016 0.75 11.9999 0.75c5.2298 0 9.4423 4.2895 9.4423 9.5472 0 2.0259 -0.6248 3.9062 -1.6907 5.4528h0.2041l0.3067 0.8048 1.9056 5 0.6461 1.6952h-1.8141l-17.99999 0H1.18579l0.64608 -1.6952 1.90563 -5 0.30674 -0.8048h0.20416Zm7.7588 -9.74878c-1.2668 0 -2.21254 0.50742 -3.03757 1.21605 -0.40685 0.34945 -0.78895 0.75158 -1.16569 1.16544 -0.12221 0.13426 -0.24308 0.26885 -0.36441 0.40395l-0.00011 0.00012 -0.00001 0.00001 -0.00004 0.00005 -0.00007 0.00007c-0.25921 0.28864 -0.52052 0.57961 -0.80144 0.87459l-0.32841 0.3448 0.32841 0.3449c0.28096 0.295 0.54231 0.586 0.80156 0.8747l0.00003 0 0.00018 0.0002 0.00064 0.0007c0.12108 0.1348 0.24171 0.2692 0.36367 0.4031 0.37674 0.4139 0.75884 0.816 1.16569 1.1655 0.82503 0.7086 1.77077 1.216 3.03757 1.216 1.2668 0 2.2126 -0.5074 3.0376 -1.216 0.4068 -0.3495 0.7889 -0.7516 1.1657 -1.1655 0.1222 -0.1343 0.2431 -0.2689 0.3645 -0.4041 0.2593 -0.2886 0.5206 -0.5796 0.8016 -0.8746l0.3284 -0.3449 -0.3284 -0.3448c-0.281 -0.29503 -0.5424 -0.58604 -0.8016 -0.87473 -0.1214 -0.13514 -0.2423 -0.26977 -0.3645 -0.40406 -0.3768 -0.41386 -0.7589 -0.81599 -1.1657 -1.16544 -0.825 -0.70863 -1.7708 -1.21605 -3.0376 -1.21605ZM13.25 11.25v-2.5h-2.5v2.5h2.5Z" clip-rule="evenodd" stroke-width="1"></path>
  </g>
</svg>