<svg xmlns="http://www.w3.org/2000/svg" fill="none" viewBox="0 0 24 24" id="Politics-Vote-2--Streamline-Sharp">
  <desc>
    Politics Vote 2 Streamline Icon: https://streamlinehq.com
  </desc>
  <g id="politics-vote-2">
    <path id="Union" fill="#ff7972" fill-rule="evenodd" d="M11.7071 1.75008 11 1.04297l-0.7071 0.70711 -4.99998 5 -0.7071 0.7071 0.7071 0.70711 6.49998 6.50001 0.7071 0.7071 0.7071 -0.7071 5 -5.00001 0.7071 -0.70711 -0.7071 -0.7071 -6.5 -6.5Z" clip-rule="evenodd" stroke-width="1"></path>
    <path id="Vector" fill="#ff7972" d="M3 12.207v10.75h18v-10.75H3Z" stroke-width="1"></path>
    <path id="Union_2" fill="#0c098c" fill-rule="evenodd" d="m11 1.04297 -0.7071 0.70711 -1.06064 1.06066 -2.87868 2.87867 -1.06066 1.06067 -0.7071 0.7071 0.7071 0.70711 1.06066 1.06066 4.37872 4.37865 0.3534 0.3534H7.5v2.5h9v-2.5h-2.5856l0.3534 -0.3534 2.8787 -2.8787 1.0606 -1.06061 0.7071 -0.70711 -0.7071 -0.7071 -1.0606 -1.06066 -4.3787 -4.37868 -1.0607 -1.06066L11 1.04297ZM8.12135 7.45718 11 4.5785l4.3787 4.37868L12.5 11.8359 8.12135 7.45718ZM3 9.70703h1.00742l2.5 2.49997H4.25v6.25h15.5v-6.25h-1.2574l2.5 -2.49997H22.25V22.957H1.75V9.70703H3Z" clip-rule="evenodd" stroke-width="1"></path>
  </g>
</svg>