<svg xmlns="http://www.w3.org/2000/svg" viewBox="0 0 32 32" id="Video-Movies-Square-Off--Streamline-Pixel">
  <desc>
    Video Movies Square Off Streamline Icon: https://streamlinehq.com
  </desc>
  <title>video-movies-square-off</title>
  <g>
    <path d="M30.48 3.383H32v25.9h-1.52Z" fill="#000000" stroke-width="1"></path>
    <path d="M28.95 29.283h1.53v1.52h-1.53Z" fill="#000000" stroke-width="1"></path>
    <path d="M3.05 30.802h25.9v1.53H3.05Z" fill="#000000" stroke-width="1"></path>
    <path d="m25.9 12.523 1.53 0 0 7.62 -1.53 0 0 1.52 3.05 0 0 -10.67 -3.05 0 0 1.53z" fill="#000000" stroke-width="1"></path>
    <path d="M24.38 18.613h1.52v1.53h-1.52Z" fill="#000000" stroke-width="1"></path>
    <path d="M24.38 12.523h1.52v1.52h-1.52Z" fill="#000000" stroke-width="1"></path>
    <path d="m22.86 17.092 0 -1.52 1.52 0 0 -1.529 -3.05 0 0 9.14 1.53 0 0 -4.57 1.52 0 0 -1.521 -1.52 0z" fill="#000000" stroke-width="1"></path>
    <path d="M12.19 23.183h9.14v1.53h-9.14Z" fill="#000000" stroke-width="1"></path>
    <path d="M4.57 7.953h15.24v1.52H4.57Z" fill="#000000" stroke-width="1"></path>
    <path d="m18.29 18.613 -1.53 0 0 1.53 -1.52 0 0 1.52 3.05 0 0 -3.05z" fill="#000000" stroke-width="1"></path>
    <path d="M9.14 10.993h1.53v1.53H9.14Z" fill="#000000" stroke-width="1"></path>
    <path d="m7.62 18.613 1.52 0 0 -1.521 1.53 0 0 -1.52 1.52 0 0 -1.529 -6.1 0 0 6.1 1.53 0 0 -1.53z" fill="#000000" stroke-width="1"></path>
    <path d="M6.09 10.993h1.53v1.53H6.09Z" fill="#000000" stroke-width="1"></path>
    <path d="m4.57 29.283 0 -1.52 1.52 0 0 -1.53 1.53 0 0 -1.52 1.52 0 0 -1.53 1.53 0 0 -1.52 1.52 0 0 -1.52 1.52 0 0 -1.53 1.53 0 0 -1.521 1.52 0 0 -1.52 1.53 0 0 -1.529 1.52 0 0 -1.52 1.52 0 0 -1.53 1.53 0 0 -1.52 1.52 0 0 -1.52 1.52 0 0 -1.53 1.53 0 0 -1.52 1.52 0 0 -1.52 1.53 0 0 -1.53 -1.53 0 0 -1.521 -25.9 0 0 1.521 24.38 0 0 1.53 -1.53 0 0 1.52 -1.52 0 0 1.52 -1.52 0 0 1.53 -1.53 0 0 1.52 -1.52 0 0 1.52 -1.52 0 0 1.53 -1.53 0 0 1.52 -1.52 0 0 1.529 -1.53 0 0 1.52 -1.52 0 0 1.521 -1.52 0 0 1.53 -1.53 0 0 1.52 -1.52 0 0 1.52 -1.53 0 0 1.53 -1.52 0 0 1.52 -1.52 0 0 1.53 -1.53 0 0 -24.38 -1.52 0 0 25.9 1.52 0 0 1.519 1.53 0 0 -1.519 1.52 0z" fill="#000000" stroke-width="1"></path>
    <path d="M3.05 9.473h1.52v13.71H3.05Z" fill="#000000" stroke-width="1"></path>
    <path d="M1.52 1.853h1.53v1.53H1.52Z" fill="#000000" stroke-width="1"></path>
  </g>
</svg>