<svg xmlns="http://www.w3.org/2000/svg" fill="none" viewBox="0 0 24 24" id="Android-Logo--Streamline-Logos">
  <desc>
    Android Logo Streamline Icon: https://streamlinehq.com
  </desc>
  <path stroke="#000000" stroke-linecap="round" stroke-linejoin="round" d="m14.5 3.5 1 -2" stroke-width="1"></path>
  <path stroke="#000000" stroke-linecap="round" stroke-linejoin="round" d="m9.5 3.5 -1 -2" stroke-width="1"></path>
  <path stroke="#000000" stroke-linejoin="round" d="M12 3a5.5 5.5 0 0 0 -5.5 5.5V9h11v-0.5A5.5 5.5 0 0 0 12 3Z" stroke-width="1"></path>
  <path stroke="#000000" d="M3.5 10.5a1.5 1.5 0 1 1 3 0V15a1.5 1.5 0 0 1 -3 0v-4.5Z" stroke-width="1"></path>
  <path stroke="#000000" stroke-linejoin="round" d="M6.5 17.5V9h11v8.5a1 1 0 0 1 -1 1H16V21a1.5 1.5 0 0 1 -3 0v-2.5h-2V21a1.5 1.5 0 0 1 -3 0v-2.5h-0.5a1 1 0 0 1 -1 -1Z" stroke-width="1"></path>
  <path stroke="#000000" d="M17.5 10.5a1.5 1.5 0 0 1 3 0V15a1.5 1.5 0 0 1 -3 0v-4.5Z" stroke-width="1"></path>
</svg>