<svg xmlns="http://www.w3.org/2000/svg" fill="none" viewBox="0 0 24 24" id="Apple-Logo--Streamline-Logos">
  <desc>
    Apple Logo Streamline Icon: https://streamlinehq.com
  </desc>
  <path stroke="#000000" stroke-linejoin="round" d="M8.5 7c1.6 0 2.537 1 3.5 1 0.963 0 2.4 -1 4 -1 1.135 0 2.592 0.644 3.64 1.933 -0.58 0.382 -1.742 1.524 -1.742 4.067 0 1.97 1.657 3.523 2.486 3.823 -0.901 2.986 -2.66 5.677 -4.384 5.677 -1.5 0 -2.5 -1 -4 -1s-2 1 -3.5 1c-2.465 0 -5 -5.5 -5 -9.5s3 -6 5 -6Z" stroke-width="1"></path>
  <path stroke="#000000" stroke-linejoin="round" d="M12 6c0 -3 1.5 -4.5 4.5 -4.5C16.5 4.5 15 6 12 6Z" stroke-width="1"></path>
</svg>