<svg xmlns="http://www.w3.org/2000/svg" fill="none" viewBox="0 0 24 24" id="Apple-Ios-Logo-1--Streamline-Logos">
  <desc>
    Apple Ios Logo 1 Streamline Icon: https://streamlinehq.com
  </desc>
  <path stroke="#000000" stroke-linejoin="round" d="M5.5 9.336a0.25 0.25 0 0 1 0 -0.5" stroke-width="1"></path>
  <path stroke="#000000" stroke-linejoin="round" d="M5.5 9.336a0.25 0.25 0 0 0 0 -0.5" stroke-width="1"></path>
  <path stroke="#000000" d="M19 11c0 -0.5 -1 -1.5 -2 -1.5 -1.5 0 -2 1 -2 1.5 0 1.5 4 1 4 2.5 0 0.5 -0.5 1.5 -2 1.5s-2 -1 -2 -1.5" stroke-width="1"></path>
  <path stroke="#000000" stroke-linejoin="round" d="M8 12.25a2.5 2.75 0 1 0 5 0 2.5 2.75 0 1 0 -5 0" stroke-width="1"></path>
  <path stroke="#000000" d="M5.5 10.5v5" stroke-width="1"></path>
  <path stroke="#000000" stroke-linecap="round" d="M17.5 1.5h-11a5 5 0 0 0 -5 5v11a5 5 0 0 0 5 5h11a5 5 0 0 0 5 -5v-11a5 5 0 0 0 -5 -5Z" stroke-width="1"></path>
</svg>