<svg xmlns="http://www.w3.org/2000/svg" fill="none" viewBox="0 0 24 24" id="Apple-Ios-Logo-3--Streamline-Logos">
  <desc>
    Apple Ios Logo 3 Streamline Icon: https://streamlinehq.com
  </desc>
  <path stroke="#000000" stroke-linejoin="round" d="M5.5 16.836a0.25 0.25 0 1 1 0 -0.5" stroke-width="1"></path>
  <path stroke="#000000" stroke-linejoin="round" d="M5.5 16.836a0.25 0.25 0 1 0 0 -0.5" stroke-width="1"></path>
  <path stroke="#000000" d="M19 18.5c0 -0.5 -1 -1.5 -2 -1.5 -1.5 0 -2 1 -2 1.5 0 1.5 4 1 4 2.5 0 0.5 -0.5 1.5 -2 1.5s-2 -1 -2 -1.5" stroke-width="1"></path>
  <path stroke="#000000" stroke-linejoin="round" d="M8 19.75a2.5 2.75 0 1 0 5 0 2.5 2.75 0 1 0 -5 0" stroke-width="1"></path>
  <path stroke="#000000" d="M5.5 18v5" stroke-width="1"></path>
  <path stroke="#000000" stroke-linejoin="round" d="M9.802 4.92c0.995 0 1.578 0.622 2.176 0.622 0.599 0 1.492 -0.622 2.487 -0.622 0.706 0 1.612 0.4 2.264 1.202 -0.361 0.237 -1.084 0.948 -1.084 2.529 0 1.225 1.03 2.19 1.546 2.377 -0.56 1.856 -1.654 3.53 -2.726 3.53 -0.932 0 -1.554 -0.622 -2.487 -0.622s-1.243 0.622 -2.176 0.622c-1.533 0 -3.11 -3.42 -3.11 -5.907 0 -2.488 1.866 -3.731 3.11 -3.731Z" stroke-width="1"></path>
  <path stroke="#000000" stroke-linecap="round" d="m13 3 1 -1" stroke-width="1"></path>
</svg>