<svg xmlns="http://www.w3.org/2000/svg" fill="none" viewBox="0 0 24 24" id="Mac-Finder-Logo--Streamline-Logos">
  <desc>
    Mac Finder Logo Streamline Icon: https://streamlinehq.com
  </desc>
  <path stroke="#000000" stroke-linecap="round" stroke-linejoin="round" d="M12.5 1.5c-0.833 2 -2.5 7.2 -2.5 12h3c0 2.537 0.2 6.6 1 9" stroke-width="1"></path>
  <path stroke="#000000" stroke-linecap="round" stroke-linejoin="round" d="M6.5 7.5v2" stroke-width="1"></path>
  <path stroke="#000000" stroke-linecap="round" stroke-linejoin="round" d="M16.5 7.5v2" stroke-width="1"></path>
  <path stroke="#000000" stroke-linecap="round" stroke-linejoin="round" d="M5.5 15.5c0.667 1 2.9 3 6.5 3s5.667 -2 6.5 -3" stroke-width="1"></path>
  <path stroke="#000000" stroke-linecap="round" stroke-linejoin="round" d="M1.5 18.5v-13a4 4 0 0 1 4 -4h13a4 4 0 0 1 4 4v13a4 4 0 0 1 -4 4h-13a4 4 0 0 1 -4 -4Z" stroke-width="1"></path>
</svg>