<svg xmlns="http://www.w3.org/2000/svg" fill="none" viewBox="0 0 14 14" id="Chat-Bubble-Oval-Smiley-2--Streamline-Core">
  <desc>
    Chat Bubble Oval Smiley 2 Streamline Icon: https://streamlinehq.com
  </desc>
  <g id="chat-bubble-oval-smiley-2--messages-message-bubble-chat-oval-smiley-smile">
    <path id="Union" fill="#8fbffa" fill-rule="evenodd" d="M10.014 0.748a6.94 6.94 0 0 0 -8.932 9.876l-0.991 2.64a0.5 0.5 0 0 0 0.557 0.668l3.458 -0.626A6.94 6.94 0 0 0 10.014 0.748Z" clip-rule="evenodd" stroke-width="1"></path>
    <path id="Ellipse 1067" fill="#2859c5" d="M4 4.563a0.75 0.75 0 1 0 1.5 0 0.75 0.75 0 1 0 -1.5 0" stroke-width="1"></path>
    <path id="Ellipse 1068" fill="#2859c5" d="M8.469 4.563a0.75 0.75 0 1 0 1.5 0 0.75 0.75 0 1 0 -1.5 0" stroke-width="1"></path>
    <path id="Ellipse 650" fill="#2859c5" d="M7 11a3.5 3.5 0 0 0 3.5 -3.5h-7A3.5 3.5 0 0 0 7 11Z" stroke-width="1"></path>
  </g>
</svg>