<svg xmlns="http://www.w3.org/2000/svg" fill="none" viewBox="0 0 14 14" id="Sad-Face--Streamline-Core">
  <desc>
    Sad Face Streamline Icon: https://streamlinehq.com
  </desc>
  <g id="sad-face--smiley-chat-message-emoji-sad-face-unsatisfied">
    <path id="Union" fill="#8fbffa" fill-rule="evenodd" d="M7 0C3.13401 0 0 3.13401 0 7c0 3.866 3.13401 7 7 7 3.866 0 7 -3.134 7 -7 0 -3.86599 -3.134 -7 -7 -7Z" clip-rule="evenodd" stroke-width="1"></path>
    <path id="Union_2" fill="#2859c5" fill-rule="evenodd" d="M4.58559 3.927c0.56526 0.00066 1.02328 0.45909 1.02328 1.0245 0 0.56582 -0.45868 1.02451 -1.0245 1.02451L4.58195 5.976c-0.5647 -0.00131 -1.02207 -0.45949 -1.02207 -1.0245 0 -0.56581 0.45868 -1.0245 1.0245 -1.0245h0.00121Zm-1.16157 7.2146c0.33332 0.0897 0.67624 -0.1078 0.76594 -0.4411 0.3338 -1.24044 1.46707 -2.15263 2.81179 -2.15263 1.34472 0 2.47798 0.91219 2.81179 2.15263 0.08969 0.3333 0.43266 0.5308 0.76596 0.4411 0.3333 -0.0897 0.5308 -0.4326 0.4411 -0.766 -0.477 -1.77237 -2.09467 -3.07773 -4.01885 -3.07773 -1.92418 0 -3.54189 1.30536 -4.01885 3.07773 -0.0897 0.3334 0.1078 0.6763 0.44112 0.766ZM9.41563 3.927l-0.00001 0c-0.56582 0 -1.0245 0.45869 -1.0245 1.0245 0 0.56501 0.45737 1.0232 1.02208 1.0245 0.00081 0.00001 0.00162 0.00001 0.00243 0.00001 0.56582 0 1.02447 -0.45869 1.02447 -1.02451 0 -0.56581 -0.45865 -1.0245 -1.02447 -1.0245Z" clip-rule="evenodd" stroke-width="1"></path>
  </g>
</svg>