<svg xmlns="http://www.w3.org/2000/svg" fill="none" viewBox="0 0 14 14" id="Smiley-Sparks--Streamline-Core">
  <desc>
    Smiley Sparks Streamline Icon: https://streamlinehq.com
  </desc>
  <g id="smiley-sparks">
    <path id="Union" fill="#8fbffa" fill-rule="evenodd" d="M7 0a7 7 0 1 1 0 14A7 7 0 0 1 7 0Z" clip-rule="evenodd" stroke-width="1"></path>
    <path id="Union_2" fill="#2859c5" fill-rule="evenodd" d="M4.515 3.078c0.345 0 0.625 0.28 0.625 0.625v0.492h0.49a0.625 0.625 0 0 1 0 1.25h-0.49v0.49a0.625 0.625 0 1 1 -1.25 0v-0.49h-0.492a0.625 0.625 0 1 1 0 -1.25h0.492v-0.492c0 -0.345 0.28 -0.625 0.625 -0.625Zm4.97 0a0.625 0.625 0 0 0 -0.625 0.626v0.491h-0.49a0.625 0.625 0 0 0 0 1.25h0.49v0.49a0.625 0.625 0 0 0 1.25 0v-0.49h0.492a0.625 0.625 0 1 0 0 -1.25h-0.492v-0.491a0.625 0.625 0 0 0 -0.625 -0.625Zm0.906 4.69a0.5 0.5 0 0 1 0.5 0.5c0 0.62 -0.297 1.463 -0.916 2.15 -0.635 0.707 -1.616 1.256 -2.975 1.256 -1.36 0 -2.34 -0.55 -2.975 -1.255 -0.619 -0.688 -0.916 -1.53 -0.916 -2.151a0.5 0.5 0 0 1 0.5 -0.5h6.782Z" clip-rule="evenodd" stroke-width="1"></path>
  </g>
</svg>