<svg xmlns="http://www.w3.org/2000/svg" fill="none" viewBox="0 0 14 14" id="Smiley-Very-Shocked--Streamline-Core">
  <desc>
    Smiley Very Shocked Streamline Icon: https://streamlinehq.com
  </desc>
  <g id="smiley-very-shocked">
    <path id="Union" fill="#8fbffa" fill-rule="evenodd" d="M2.15 1.522C3.421 0.53 5.144 0.048 7 0.048c1.854 0 3.578 0.483 4.85 1.474 1.287 1.002 2.075 2.498 2.075 4.423 0 0.578 -0.05 1.055 -0.147 1.46a1.771 1.771 0 0 0 -1.262 -0.286c-0.843 0.122 -1.545 0.785 -2.141 1.778 -0.974 1.623 -1.17 3.344 -1.12 4.468 -0.568 0.344 -1.292 0.534 -2.255 0.534 -0.963 0 -1.687 -0.19 -2.256 -0.534 0.052 -1.123 -0.145 -2.844 -1.119 -4.468 -0.596 -0.993 -1.298 -1.656 -2.14 -1.778a1.771 1.771 0 0 0 -1.263 0.285C0.125 7 0.075 6.524 0.075 5.945c0 -1.925 0.788 -3.421 2.074 -4.423ZM0.047 13.952c0.302 -0.455 0.817 -1.727 0.454 -3.18C0.138 9.316 0.35 8.65 0.502 8.498c0.303 -0.454 1.181 -0.908 2.272 0.91 1.09 1.816 1.06 3.785 0.908 4.543l-3.634 0Zm13.45 -3.18c-0.363 1.453 0.152 2.725 0.454 3.18l-3.634 0c-0.152 -0.758 -0.182 -2.726 0.908 -4.544 1.09 -1.817 1.97 -1.363 2.272 -0.909 0.152 0.152 0.364 0.818 0 2.272Z" clip-rule="evenodd" stroke-width="1"></path>
    <path id="Union_2" fill="#2859c5" fill-rule="evenodd" d="M6 4.5C6 5.88 5.105 7 4 7S2 5.88 2 4.5 2.895 2 4 2s2 1.12 2 2.5Zm1 2.843a0.75 0.75 0 0 1 0.75 0.75v1.751a0.75 0.75 0 1 1 -1.5 0V8.093a0.75 0.75 0 0 1 0.75 -0.75ZM10 7C8.895 7 8 5.88 8 4.5S8.895 2 10 2s2 1.12 2 2.5S11.105 7 10 7Z" clip-rule="evenodd" stroke-width="1"></path>
  </g>
</svg>