<svg xmlns="http://www.w3.org/2000/svg" fill="none" viewBox="0 0 14 14"><g id="smiley-mask"><path id="Union" fill="#37d7ff" d="M7 0a7 7 0 1 0 0 14A7 7 0 0 0 7 0Z"></path><path id="Intersect" fill="#3e3e3e" fill-rule="evenodd" d="M13.945 6.116c-.39.229-1.214.618-2.325.977-1.312.424-2.954.782-4.62.782s-3.308-.358-4.62-.782C1.269 6.733.444 6.345.055 6.116a7.068 7.068 0 0 0-.037 1.39c.521.25 1.202.526 1.977.776.464.15.97.293 1.505.418v4.364A6.961 6.961 0 0 0 7 14h.036a6.962 6.962 0 0 0 3.464-.936V8.7a18.655 18.655 0 0 0 1.505-.418c.775-.25 1.456-.526 1.977-.776a7.13 7.13 0 0 0-.037-1.39ZM9.137 4.544c-.045-.007-.068-.007-.07-.007a.625.625 0 0 1-.061-1.248c.189-.01.413.026.617.08.213.057.455.146.68.276.224.13.422.294.578.45.148.15.291.326.378.495a.625.625 0 0 1-1.112.571 1.424 1.424 0 0 0-.153-.185 1.578 1.578 0 0 0-.316-.249 1.578 1.578 0 0 0-.54-.183ZM4.377 3.37c.204-.054.428-.09.617-.08a.625.625 0 1 1-.06 1.248h-.001c-.002 0-.025 0-.07.006a1.579 1.579 0 0 0-.54.184 1.578 1.578 0 0 0-.43.375.446.446 0 0 0-.04.058.625.625 0 0 1-1.112-.57c.086-.17.23-.346.378-.495.156-.157.354-.321.578-.451.225-.13.467-.219.68-.275Z" clip-rule="evenodd"></path></g></svg>