<svg xmlns="http://www.w3.org/2000/svg" fill="none" viewBox="0 0 14 14" id="Smiley-In-Love--Streamline-Core">
  <desc>
    Smiley In Love Streamline Icon: https://streamlinehq.com
  </desc>
  <g id="smiley-in-love">
    <path id="Union" fill="#8fbffa" fill-rule="evenodd" d="M7 0a7 7 0 1 1 0 14A7 7 0 0 1 7 0Z" clip-rule="evenodd" stroke-width="1"></path>
    <path id="Union_2" fill="#2859c5" fill-rule="evenodd" d="M1.893 4.473c0.014 -0.933 1.061 -1.798 2.053 -0.58 0.993 -1.218 2.04 -0.353 2.054 0.58C6 5.86 4.34 7 3.946 7c-0.392 0 -2.053 -1.14 -2.053 -2.527Zm8.16 -0.58c0.993 -1.218 2.04 -0.353 2.054 0.58C12.107 5.86 10.447 7 10.054 7S8 5.86 8 4.473c0.014 -0.933 1.061 -1.798 2.053 -0.58Zm0.222 4.503a0.625 0.625 0 0 0 -0.766 0.441 2.6 2.6 0 0 1 -5.017 0 0.625 0.625 0 0 0 -1.207 0.325 3.85 3.85 0 0 0 7.431 0 0.625 0.625 0 0 0 -0.441 -0.766Z" clip-rule="evenodd" stroke-width="1"></path>
  </g>
</svg>