<svg xmlns="http://www.w3.org/2000/svg" fill="none" viewBox="0 0 14 14" id="Smiley-Crying-1--Streamline-Core">
  <desc>
    Smiley Crying 1 Streamline Icon: https://streamlinehq.com
  </desc>
  <g id="smiley-crying-1">
    <path id="Union" fill="#8fbffa" fill-rule="evenodd" d="M7 0a7 7 0 1 1 0 14A7 7 0 0 1 7 0Z" clip-rule="evenodd" stroke-width="1"></path>
    <path id="Union_2" fill="#2859c5" fill-rule="evenodd" d="M4.377 3.907c0.204 -0.054 0.428 -0.09 0.617 -0.08a0.625 0.625 0 1 1 -0.061 1.248c-0.002 0 -0.025 0 -0.07 0.006a1.578 1.578 0 0 0 -0.54 0.184 1.578 1.578 0 0 0 -0.43 0.376 0.378 0.378 0 0 0 -0.04 0.058 0.625 0.625 0 1 1 -1.112 -0.571c0.086 -0.17 0.23 -0.345 0.378 -0.495 0.156 -0.156 0.354 -0.321 0.578 -0.45 0.225 -0.13 0.467 -0.22 0.68 -0.276Zm-0.474 6.228a0.625 0.625 0 0 0 0.766 -0.44 2.415 2.415 0 0 1 4.662 0 0.625 0.625 0 0 0 1.208 -0.326 3.665 3.665 0 0 0 -7.077 0 0.625 0.625 0 0 0 0.44 0.766Zm5.164 -5.06a1.433 1.433 0 0 1 0.237 0.04 1.6 1.6 0 0 1 0.373 0.15 1.579 1.579 0 0 1 0.47 0.434 0.625 0.625 0 0 0 1.112 -0.571 2.138 2.138 0 0 0 -0.378 -0.495 2.825 2.825 0 0 0 -0.579 -0.45 2.824 2.824 0 0 0 -0.679 -0.276 2.137 2.137 0 0 0 -0.617 -0.08 0.625 0.625 0 1 0 0.061 1.248Z" clip-rule="evenodd" stroke-width="1"></path>
  </g>
</svg>