<svg xmlns="http://www.w3.org/2000/svg" fill="none" viewBox="0 0 14 14"><g id="straight-face--smiley-chat-message-indifferent-emoji-face-poker"><path id="Union" fill="#37d7ff" fill-rule="evenodd" d="M7 0a7 7 0 1 1 0 14A7 7 0 0 1 7 0Z" clip-rule="evenodd"></path><path id="Union_2" fill="#3e3e3e" fill-rule="evenodd" d="M3.56 4.952c0-.565.456-1.023 1.02-1.025h.004a1.025 1.025 0 0 1 .004 2.049h-.004A1.025 1.025 0 0 1 3.56 4.952Zm5.856 1.024h.002a1.024 1.024 0 0 0-.002-2.049h-.003a1.025 1.025 0 0 0 .003 2.049ZM9.452 8.7a.625.625 0 1 1 0 1.25H4.548a.625.625 0 0 1 0-1.25h4.904Z" clip-rule="evenodd"></path></g></svg>