<svg xmlns="http://www.w3.org/2000/svg" viewBox="0 0 14 14">
  <g>
    <path d="M1.75,6.75h4.5a.5.5,0,0,0,.17-1,.26.26,0,0,1-.17-.24v-3A.5.5,0,0,0,5.87,2a.31.31,0,0,0-.19,0l-.76.46a.26.26,0,0,1-.28,0L4.13,2.1a.24.24,0,0,0-.27,0l-.66.35a.28.28,0,0,1-.25,0L2.32,2a.31.31,0,0,0-.19,0,.5.5,0,0,0-.38.49v3a.26.26,0,0,1-.17.24.5.5,0,0,0,.17,1Z" style="fill: #000001"/>
    <path d="M14,9.77,12.69,5.29a1.26,1.26,0,0,0-1.24-1h-.7v-1A.25.25,0,0,1,11,3a1.5,1.5,0,0,0,0-3H9A1.5,1.5,0,0,0,9,3a.25.25,0,0,1,.25.25V4A.25.25,0,0,1,9,4.25H8.32a.75.75,0,0,0,0,1.5h2.75a.25.25,0,0,1,.24.18l.79,2.75a.24.24,0,0,1,0,.22.26.26,0,0,1-.2.1H2.14a.26.26,0,0,1-.2-.1.24.24,0,0,1,0-.22l0-.06a.76.76,0,0,0-.52-.93.74.74,0,0,0-.92.52L0,9.77a4.55,4.55,0,0,0,0,.73v2A1.5,1.5,0,0,0,1.5,14h11A1.5,1.5,0,0,0,14,12.5v-2A4.55,4.55,0,0,0,14,9.77ZM7.75,12.25H6.25a.75.75,0,0,1,0-1.5h1.5a.75.75,0,0,1,0,1.5Z" style="fill: #000001"/>
  </g>
</svg>
