<svg xmlns="http://www.w3.org/2000/svg" fill="none" viewBox="0 0 24 24" id="Ai-Upscale-Spark--Streamline-Sharp-Remix">
  <desc>
    Ai Upscale Spark Streamline Icon: https://streamlinehq.com
  </desc>
  <g id="Remix/Artificial Intelligence/ai-upscale-spark--magnifier-zoom-view-find-search-ai">
    <path id="Union" fill="#000000" fill-rule="evenodd" d="M3.22183 3.22183C5.28473 1.15893 8.08262 0 11 0c2.9174 0 5.7153 1.15893 7.7782 3.22183S22 8.08262 22 11c0 2.3274 -0.7376 4.5788 -2.0833 6.4416l4.0836 4.0836L21.5254 24l-4.0835 -4.0835C15.579 21.2623 13.3275 22 11 22c-2.91738 0 -5.71527 -1.1589 -7.77817 -3.2218S0 13.9174 0 11c0 -2.91738 1.15893 -5.71527 3.22183 -7.77817ZM11 2.5c-2.25434 0 -4.41635 0.89553 -6.01041 2.48959C3.39553 6.58365 2.5 8.74566 2.5 11c0 2.2543 0.89553 4.4163 2.48959 6.0104C6.58365 18.6045 8.74566 19.5 11 19.5c2.2543 0 4.4163 -0.8955 6.0104 -2.4896C18.6045 15.4163 19.5 13.2543 19.5 11c0 -2.25434 -0.8955 -4.41635 -2.4896 -6.01041C15.4163 3.39553 13.2543 2.5 11 2.5ZM5.75 9.75c0.70059 0 1.71335 -0.48112 2.61612 -1.38388C9.26888 7.46335 9.75 6.45059 9.75 5.75h2.5c0 0.70059 0.4811 1.71335 1.3839 2.61612C14.5366 9.26888 15.5494 9.75 16.25 9.75v2.5c-0.7006 0 -1.7134 0.4811 -2.6161 1.3839 -0.9028 0.9027 -1.3839 1.9155 -1.3839 2.6161h-2.5c0 -0.7006 -0.48112 -1.7134 -1.38388 -2.6161C7.46335 12.7311 6.45059 12.25 5.75 12.25v-2.5Z" clip-rule="evenodd" stroke-width="1"></path>
  </g>
</svg>