<svg xmlns="http://www.w3.org/2000/svg" fill="none" viewBox="0 0 24 24" id="Gowalla-Logo-1--Streamline-Logos-Block">
  <desc>
    Gowalla Logo 1 Streamline Icon: https://streamlinehq.com
  </desc>
  <path fill="#000000" fill-rule="evenodd" d="M5 1a4 4 0 0 0 -4 4v14a4 4 0 0 0 4 4h14a4 4 0 0 0 4 -4V5a4 4 0 0 0 -4 -4H5Zm7 3.703a6.5 6.5 0 0 0 -2.405 12.54l1.802 2.73a0.722 0.722 0 0 0 1.206 0l1.802 -2.73A6.502 6.502 0 0 0 12 4.703Zm2.889 6.5a2.889 2.889 0 1 1 -5.778 0 2.889 2.889 0 0 1 5.778 0Z" clip-rule="evenodd" stroke-width="1"></path>
</svg>