<svg xmlns="http://www.w3.org/2000/svg" fill="none" viewBox="0 0 24 24" id="Iwiw-Logo-2--Streamline-Logos-Block">
  <desc>
    Iwiw Logo 2 Streamline Icon: https://streamlinehq.com
  </desc>
  <path fill="#000000" fill-rule="evenodd" d="M5 1a4 4 0 0 0 -4 4v14a4 4 0 0 0 4 4h14a4 4 0 0 0 4 -4V5a4 4 0 0 0 -4 -4H5Zm13.989 4.578a0.756 0.756 0 1 1 1.511 0 0.756 0.756 0 0 1 -1.511 0Zm-0.653 1.657a0.567 0.567 0 0 0 -0.583 -0.972l-1.22 0.732 -1.597 -0.959a0.567 0.567 0 0 0 -0.583 0L12.464 7.17a0.567 0.567 0 0 0 -0.275 0.486V9.6l-1.322 0.794 -1.598 -0.959a0.567 0.567 0 0 0 -0.583 0l-1.622 0.974 -0.855 -0.428a0.567 0.567 0 1 0 -0.507 1.014l0.82 0.41v1.916c0 0.2 0.105 0.384 0.275 0.486l1.89 1.133a0.563 0.563 0 0 0 0.582 0l1.598 -0.958 1.322 0.793v1.19a0.567 0.567 0 1 0 1.133 0v-1.19l1.614 -0.968a0.567 0.567 0 0 0 0.275 -0.486v-1.946l1.614 -0.968a0.567 0.567 0 0 0 0.275 -0.486V7.976l1.236 -0.741Zm-3.692 3.16L13.322 9.6V7.976l1.322 -0.793 1.323 0.793v1.625l-1.323 0.794Zm-3.21 0.981 1.322 -0.793 1.322 0.793v1.625l-1.322 0.794L11.433 13v-1.625Zm-1.134 0 -1.322 -0.793 -1.322 0.793v1.625l1.322 0.794L10.3 13v-1.625ZM3.5 9.733a0.756 0.756 0 1 1 1.511 0 0.756 0.756 0 0 1 -1.511 0Zm9.256 7.934a0.756 0.756 0 1 0 0 1.51 0.756 0.756 0 0 0 0 -1.51Z" clip-rule="evenodd" stroke-width="1"></path>
</svg>