<svg xmlns="http://www.w3.org/2000/svg" fill="none" viewBox="0 0 24 24" id="Memori-Logo--Streamline-Logos-Block">
  <desc>
    Memori Logo Streamline Icon: https://streamlinehq.com
  </desc>
  <path fill="#000000" fill-rule="evenodd" d="M5 1a4 4 0 0 0 -4 4v14a4 4 0 0 0 4 4h14a4 4 0 0 0 4 -4V5a4 4 0 0 0 -4 -4H5Zm7 3a8 8 0 1 0 0 16 8 8 0 0 0 0 -16Zm0.327 2.711a0.364 0.364 0 0 0 -0.646 0l-1.4 2.716 -3.021 0.493a0.364 0.364 0 0 0 -0.2 0.614l2.152 2.18 -0.46 3.021a0.364 0.364 0 0 0 0.523 0.38l2.73 -1.367 2.737 1.367a0.364 0.364 0 0 0 0.522 -0.38l-0.46 -3.021 2.146 -2.18a0.364 0.364 0 0 0 -0.2 -0.614l-3.016 -0.493 -1.407 -2.716Z" clip-rule="evenodd" stroke-width="1"></path>
</svg>