<svg xmlns="http://www.w3.org/2000/svg" fill="none" viewBox="0 0 24 24" id="Tinder-Logo--Streamline-Logos-Block">
  <desc>
    Tinder Logo Streamline Icon: https://streamlinehq.com
  </desc>
  <path fill="#000000" fill-rule="evenodd" d="M5 1a4 4 0 0 0 -4 4v14a4 4 0 0 0 4 4h14a4 4 0 0 0 4 -4V5a4 4 0 0 0 -4 -4H5Zm7.004 3.888a0.341 0.341 0 0 1 0.126 -0.32c0.128 -0.1 0.278 -0.076 0.414 -0.015 0.136 0.06 0.452 0.207 0.871 0.445 0.558 0.317 1.303 0.8 2.05 1.458 1.49 1.316 3.012 3.362 3.012 6.224 0 4.292 -3.233 6.82 -6.477 6.82 -3.218 0 -6.477 -2.503 -6.477 -6.138 0 -1.45 0.543 -2.712 1.214 -3.651 0.662 -0.927 1.481 -1.586 2.087 -1.788a0.34 0.34 0 0 1 0.449 0.311c0.006 0.172 0.009 0.324 0.012 0.46 0.006 0.342 0.011 0.59 0.058 0.823 0.05 0.25 0.149 0.475 0.39 0.747 0.4 -0.1 1.049 -0.413 1.567 -1.112 0.588 -0.793 1.034 -2.117 0.704 -4.264Z" clip-rule="evenodd" stroke-width="1"></path>
</svg>