<svg xmlns="http://www.w3.org/2000/svg" fill="none" viewBox="0 0 24 24" id="Twitter-Logo-1--Streamline-Logos-Block">
  <desc>
    Twitter Logo 1 Streamline Icon: https://streamlinehq.com
  </desc>
  <path fill="#000000" fill-rule="evenodd" d="M5 1a4 4 0 0 0 -4 4v14a4 4 0 0 0 4 4h14a4 4 0 0 0 4 -4V5a4 4 0 0 0 -4 -4H5Zm13.476 8.421c0.097 3.982 -3.118 12.045 -14.476 7.637 1.506 0 3.962 -0.551 4.571 -1.16 -0.888 -0.127 -2.666 -0.762 -2.666 -2.286h1.524a16.482 16.482 0 0 0 -0.079 -0.04c-0.806 -0.4 -2.588 -1.285 -2.588 -3.389 0.38 0.381 1.004 0.537 1.524 0.381 -0.78 -0.678 -2.513 -2.617 -1.143 -4.571 1.143 1.27 4.038 3.81 6.476 3.81 -0.38 -1.017 0 -3.048 1.905 -3.81s3.267 -0.087 3.81 0.762c0.664 -0.053 1.26 -0.396 1.666 -0.629 0.089 -0.051 0.169 -0.097 0.238 -0.133l0 0.075c0.002 0.545 0.005 1.296 -0.78 1.83 0.382 0.286 0.78 0.4 1.542 0 0 0.644 -0.601 1.272 -1.524 1.523Z" clip-rule="evenodd" stroke-width="1"></path>
</svg>