<svg xmlns="http://www.w3.org/2000/svg" fill="none" viewBox="0 0 14 14" id="Cat-2--Streamline-Flex">
  <desc>
    Cat 2 Streamline Icon: https://streamlinehq.com
  </desc>
  <g id="cat-2--nature-head-cat-pet-animals-felyne">
    <path id="Vector 1345" stroke="#000000" stroke-linecap="round" stroke-linejoin="round" d="m6 8 1 0.5L8 8" stroke-width="1"></path>
    <path id="Vector 1348" stroke="#000000" stroke-linecap="round" stroke-linejoin="round" d="M7 8.5v1.05934" stroke-width="1"></path>
    <path id="Vector 1323" stroke="#000000" stroke-linecap="round" stroke-linejoin="round" d="m5 10 0.13747 0.1375c0.44622 0.4462 1.18911 0.3726 1.53916 -0.15244L7 9.5l0.32337 0.48506c0.35005 0.52504 1.09294 0.59864 1.53916 0.15244L9 10" stroke-width="1"></path>
    <path id="Vector 1350" stroke="#000000" stroke-linecap="round" stroke-linejoin="round" d="M5.5 3 3.75258 1.00295C3.14454 0.308042 2 0.738085 2 1.66145V6L0.5 7c0 3.7222 2.33644 6 6.5 6 4.1636 0 6.5 -2.2778 6.5 -6L12 6V1.66145c0 -0.923365 -1.1445 -1.353408 -1.7526 -0.6585L8.5 3" stroke-width="1"></path>
    <path id="Vector 1351" stroke="#000000" stroke-linecap="round" stroke-linejoin="round" d="M5 6v0.5" stroke-width="1"></path>
    <path id="Vector 1352" stroke="#000000" stroke-linecap="round" stroke-linejoin="round" d="M9 6v0.5" stroke-width="1"></path>
    <path id="Vector 1353" stroke="#000000" stroke-linecap="round" stroke-linejoin="round" d="M4.5 3.35938c0.33333 -0.16667 1 -0.5 2.5 -0.5s2.16667 0.33333 2.5 0.5" stroke-width="1"></path>
  </g>
</svg>