<svg xmlns="http://www.w3.org/2000/svg" fill="none" viewBox="0 0 24 24" id="Mobile-Shopping-Cart-Exchange--Streamline-Ultimate">
  <desc>
    Mobile Shopping Cart Exchange Streamline Icon: https://streamlinehq.com
  </desc>
  <path stroke="#000000" stroke-linecap="round" stroke-linejoin="round" d="M21.75 11.25h-4.5c-0.8284 0 -1.5 0.6716 -1.5 1.5v9c0 0.8284 0.6716 1.5 1.5 1.5h4.5c0.8284 0 1.5 -0.6716 1.5 -1.5v-9c0 -0.8284 -0.6716 -1.5 -1.5 -1.5Z" stroke-width="1.5"></path>
  <path stroke="#000000" stroke-linecap="round" stroke-linejoin="round" d="M15.75 20.25h7.5" stroke-width="1.5"></path>
  <path stroke="#000000" stroke-linecap="round" stroke-linejoin="round" d="M3.75 15.75c0 1.5913 0.63214 3.1174 1.75736 4.2426C6.63258 21.1179 8.1587 21.75 9.75 21.75H12" stroke-width="1.5"></path>
  <path stroke="#000000" stroke-linecap="round" stroke-linejoin="round" d="M23.25 8.25c0 -1.5913 -0.6321 -3.11742 -1.7574 -4.24264C20.3674 2.88214 18.8413 2.25 17.25 2.25h-1.5" stroke-width="1.5"></path>
  <path stroke="#000000" stroke-linecap="round" stroke-linejoin="round" d="m17.25 0.75 -1.5 1.5 1.5 1.5" stroke-width="1.5"></path>
  <path stroke="#000000" stroke-linecap="round" stroke-linejoin="round" d="m10.5 23.25 1.5 -1.5 -1.5 -1.5" stroke-width="1.5"></path>
  <path stroke="#000000" stroke-linecap="round" stroke-linejoin="round" d="m10.5 0.75 -2.25 7.5h-6l-1.5 -4.5H9.6" stroke-width="1.5"></path>
  <path stroke="#000000" d="M2.625 11.25c-0.20711 0 -0.375 -0.1679 -0.375 -0.375s0.16789 -0.375 0.375 -0.375" stroke-width="1.5"></path>
  <path stroke="#000000" d="M2.625 11.25c0.20711 0 0.375 -0.1679 0.375 -0.375s-0.16789 -0.375 -0.375 -0.375" stroke-width="1.5"></path>
  <path stroke="#000000" d="M7.875 11.25c-0.20711 0 -0.375 -0.1679 -0.375 -0.375s0.16789 -0.375 0.375 -0.375" stroke-width="1.5"></path>
  <path stroke="#000000" d="M7.875 11.25c0.20711 0 0.375 -0.1679 0.375 -0.375s-0.16789 -0.375 -0.375 -0.375" stroke-width="1.5"></path>
</svg>