<svg xmlns="http://www.w3.org/2000/svg" fill="none" viewBox="0 0 48 48" id="Hot-Air-Balloon--Streamline-Plump">
  <desc>
    Hot Air Balloon Streamline Icon: https://streamlinehq.com
  </desc>
  <g id="hot-air-balloon">
    <path id="Vector 1437 (Stroke)" fill="#2859c5" fill-rule="evenodd" d="M32.326 26.536a1.5 1.5 0 0 0 -1.79 1.139l-2 9a1.5 1.5 0 0 0 2.928 0.65l2 -9a1.5 1.5 0 0 0 -1.138 -1.789Z" clip-rule="evenodd" stroke-width="1"></path>
    <path id="Vector 1436 (Stroke)" fill="#2859c5" fill-rule="evenodd" d="M15.674 26.536a1.5 1.5 0 0 1 1.79 1.139l2 9a1.5 1.5 0 0 1 -2.928 0.65l-2 -9a1.5 1.5 0 0 1 1.138 -1.789Z" clip-rule="evenodd" stroke-width="1"></path>
    <path id="Union (Stroke)" fill="#2859c5" fill-rule="evenodd" d="M16.53 35.59c1.29 -0.042 3.602 -0.09 7.47 -0.09s6.18 0.048 7.47 0.09c0.687 0.022 1.42 0.233 2.013 0.719a2.763 2.763 0 0 1 1.017 2.16l0 0.003 0 0.025v0.006l0 0.025 0 0.003a2.729 2.729 0 0 1 -1.174 2.277 22.314 22.314 0 0 1 -0.434 2.606c-0.369 1.59 -1.686 2.66 -3.23 2.829 -1.179 0.128 -3.02 0.257 -5.662 0.257s-4.483 -0.129 -5.661 -0.257c-1.545 -0.169 -2.862 -1.24 -3.231 -2.829a22.337 22.337 0 0 1 -0.434 -2.606 2.729 2.729 0 0 1 -1.174 -2.277l0 -0.003 0 -0.03 0 -0.029a2.762 2.762 0 0 1 1.017 -2.16c0.593 -0.486 1.326 -0.697 2.014 -0.72Z" clip-rule="evenodd" stroke-width="1"></path>
    <path id="Union" fill="#8fbffa" d="M24 1.5c-5.25 0 -10.066 1.535 -13.606 4.092C6.856 8.147 4.5 11.807 4.5 16s2.356 7.853 5.894 10.408C13.934 28.965 18.749 30.5 24 30.5c5.25 0 10.066 -1.535 13.606 -4.092C41.144 23.853 43.5 20.193 43.5 16s-2.356 -7.853 -5.894 -10.408C34.066 3.035 29.251 1.5 24 1.5Z" stroke-width="1"></path>
    <path id="Ellipse 484" fill="#2859c5" d="M16 16a8 14.5 0 1 0 16 0 8 14.5 0 1 0 -16 0" stroke-width="1"></path>
  </g>
</svg>