<svg xmlns="http://www.w3.org/2000/svg" fill="none" viewBox="0 0 48 48" id="Lost-And-Found--Streamline-Plump">
  <desc>
    Lost And Found Streamline Icon: https://streamlinehq.com
  </desc>
  <g id="lost-and-found">
    <path id="Vector 993 (Stroke)" fill="#2859c5" fill-rule="evenodd" d="M24.0004 5c-1.1307 0 -2.0585 0.0965 -2.7401 0.20366 -0.2885 0.04537 -0.598 0.25341 -0.7812 0.67756 -0.5426 1.25606 -1.2177 3.01198 -1.5176 4.51098 -0.2166 1.0832 -1.2702 1.7856 -2.3533 1.569 -1.0832 -0.2167 -1.7856 -1.2703 -1.569 -2.35343 0.3848 -1.92382 1.1975 -3.99242 1.7678 -5.31268 0.6581 -1.52364 2.0246 -2.75869 3.832 -3.04288C21.5062 1.11586 22.6424 1 24.0004 1s2.4942 0.11586 3.3613 0.25221c1.8075 0.28419 3.1739 1.51924 3.8321 3.04288 0.5702 1.32027 1.383 3.38887 1.7677 5.31268 0.2167 1.08313 -0.4858 2.13673 -1.5689 2.35343 -1.0831 0.2166 -2.1368 -0.4858 -2.3534 -1.569 -0.2998 -1.499 -0.975 -3.25492 -1.5175 -4.51098 -0.1832 -0.42415 -0.4927 -0.63219 -0.7813 -0.67756C26.0589 5.0965 25.1311 5 24.0004 5Z" clip-rule="evenodd" stroke-width="1"></path>
    <path id="Union" fill="#8fbffa" d="M24 8.5c-8.4681 0 -13.7611 0.53396 -16.84244 1.02584 -2.86064 0.45665 -4.80029 2.77106 -5.07572 5.52766C1.80539 17.8205 1.5 22.099 1.5 27.5c0 5.401 0.30539 9.6795 0.58184 12.4465 0.27543 2.7566 2.21507 5.071 5.07572 5.5277C10.2389 45.966 15.5319 46.5 24 46.5s13.7611 -0.534 16.8424 -1.0258c2.8607 -0.4567 4.8003 -2.7711 5.0758 -5.5277 0.2764 -2.767 0.5818 -7.0455 0.5818 -12.4465 0 -5.401 -0.3054 -9.6795 -0.5818 -12.4465 -0.2755 -2.7566 -2.2151 -5.07101 -5.0758 -5.52766C37.7611 9.03396 32.4681 8.5 24 8.5Z" stroke-width="1"></path>
    <path id="Subtract" fill="#2859c5" fill-rule="evenodd" d="M21.6362 23.481c0.8284 -0.4906 2.1721 -1.2704 3.2555 -1.8192 0.7295 -0.3694 1.6206 -0.0865 2.0033 0.6361 0.3828 0.7227 0.1162 1.6188 -0.5994 2.0146 -0.24 0.1328 -0.4873 0.2659 -0.7382 0.4009 -0.9071 0.488 -1.8622 1.002 -2.6885 1.6181 -1.1036 0.823 -1.4685 1.4661 -1.4685 1.9352l-0.0031 2.2314c-0.0008 0.5529 0.4472 1.0014 1 1.0014h1.1035c0.552 0 0.9995 -0.4475 0.9995 -0.9995 0 -0.5525 0.3038 -1.0603 0.7906 -1.3216 1.8741 -1.006 3.3231 -1.828 4.3291 -2.8048 0.9285 -0.9014 1.4495 -1.9073 1.4495 -3.3736 0 -1.4661 -0.4438 -2.8429 -1.2999 -3.8294 -0.826 -0.9518 -2.146 -1.6706 -4.2001 -1.6706 -1.6948 0 -3.2467 0.505 -4.4265 1.269 -1.1986 0.7763 -1.9046 1.7423 -2.1183 2.5955 -0.2063 0.8237 -0.044 1.4721 0.2362 1.8738 0.2652 0.3803 0.7089 0.6533 1.3767 0.64 0.2113 -0.0042 0.5038 -0.1042 0.9986 -0.3973ZM23 39.5c1.3807 0 2.5 -1.1193 2.5 -2.5s-1.1193 -2.5 -2.5 -2.5 -2.5 1.1193 -2.5 2.5 1.1193 2.5 2.5 2.5Z" clip-rule="evenodd" stroke-width="1"></path>
  </g>
</svg>