<svg xmlns="http://www.w3.org/2000/svg" fill="none" viewBox="0 0 48 48" id="Park--Streamline-Plump">
  <desc>
    Park Streamline Icon: https://streamlinehq.com
  </desc>
  <g id="park--bench-relax-location-outdoor-recreation-travel-places">
    <path id="Union" fill="#2859c5" d="M10.5 37c0 -2.3907 -0.0501 -4.016 -0.1059 -5.0852 -0.0691 -1.3238 -1.00995 -2.3808 -2.39536 -2.4098 -0.1544 -0.0032 -0.32039 -0.005 -0.49874 -0.005 -0.17834 0 -0.34434 0.0018 -0.49874 0.005 -1.38541 0.029 -2.3263 1.086 -2.39538 2.4098C4.55009 32.984 4.5 34.6093 4.5 37c0 2.3907 0.05009 4.016 0.10588 5.0852 0.06908 1.3238 1.00997 2.3808 2.39538 2.4098 0.1544 0.0032 0.3204 0.005 0.49874 0.005s0.34434 -0.0018 0.49874 -0.005c1.38541 -0.029 2.32626 -1.086 2.39536 -2.4098 0.0558 -1.0692 0.1059 -2.6945 0.1059 -5.0852Z" stroke-width="1"></path>
    <path id="Union_2" fill="#2859c5" d="M37.5 37c0 -2.3907 0.0501 -4.016 0.1059 -5.0852 0.0691 -1.3238 1.01 -2.3808 2.3954 -2.4098 0.1544 -0.0032 0.3204 -0.005 0.4987 -0.005 0.1783 0 0.3443 0.0018 0.4987 0.005 1.3854 0.029 2.3263 1.086 2.3954 2.4098 0.0558 1.0692 0.1059 2.6945 0.1059 5.0852 0 2.3907 -0.0501 4.016 -0.1059 5.0852 -0.0691 1.3238 -1.01 2.3808 -2.3954 2.4098 -0.1544 0.0032 -0.3204 0.005 -0.4987 0.005 -0.1783 0 -0.3443 -0.0018 -0.4987 -0.005 -1.3854 -0.029 -2.3263 -1.086 -2.3954 -2.4098C37.5501 41.016 37.5 39.3907 37.5 37Z" stroke-width="1"></path>
    <path id="Union_3" fill="#2859c5" d="M14.5 27c0 -2.05 -0.0368 -3.5372 -0.0825 -4.5934C14.347 20.7768 13.1932 19.5 11.5 19.5c-1.69324 0 -2.84704 1.2768 -2.9175 2.9066C8.53683 23.4628 8.5 24.95 8.5 27s0.03683 3.5372 0.0825 4.5934C8.65296 33.2232 9.80676 34.5 11.5 34.5c1.6932 0 2.847 -1.2768 2.9175 -2.9066C14.4632 30.5372 14.5 29.05 14.5 27Z" stroke-width="1"></path>
    <path id="Union_4" fill="#2859c5" d="M33.5 27c0 -2.05 0.0368 -3.5372 0.0825 -4.5934C33.653 20.7768 34.8068 19.5 36.5 19.5s2.847 1.2768 2.9175 2.9066C39.4632 23.4628 39.5 24.95 39.5 27s-0.0368 3.5372 -0.0825 4.5934C39.347 33.2232 38.1932 34.5 36.5 34.5s-2.847 -1.2768 -2.9175 -2.9066C33.5368 30.5372 33.5 29.05 33.5 27Z" stroke-width="1"></path>
    <path id="Union_5" fill="#8fbffa" d="M24 28.5c10.6091 0 16.1721 0.1537 18.7334 0.2584 1.6069 0.0658 3.4581 1.0343 3.6886 3.1665 0.0484 0.4475 0.078 0.9687 0.078 1.5751 0 0.6064 -0.0296 1.1276 -0.078 1.575 -0.2305 2.1322 -2.0817 3.1008 -3.6886 3.1665 -2.5613 0.1048 -8.1243 0.2585 -18.7334 0.2585s-16.17212 -0.1537 -18.73336 -0.2585c-1.60692 -0.0657 -3.45811 -1.0343 -3.68868 -3.1664C1.52958 34.6276 1.5 34.1064 1.5 33.5c0 -0.6064 0.02958 -1.1276 0.07796 -1.5751 0.23057 -2.1321 2.08175 -3.1007 3.68868 -3.1664C7.82788 28.6537 13.3909 28.5 24 28.5Z" stroke-width="1"></path>
    <path id="Union_6" fill="#8fbffa" d="M24 7.5c8.0889 0 12.7793 0.2426 15.2927 0.44614 2.1425 0.17349 3.9074 1.74179 4.0777 4.01146 0.0742 0.9887 0.1296 2.3073 0.1296 4.0424 0 1.7351 -0.0554 3.0536 -0.1296 4.0424 -0.1703 2.2697 -1.9352 3.838 -4.0777 4.0115 -2.5134 0.2035 -7.2038 0.4461 -15.2927 0.4461 -8.0889 0 -12.7792 -0.2426 -15.29274 -0.4461 -2.14247 -0.1735 -3.90733 -1.7418 -4.07767 -4.0115C4.55539 19.0536 4.5 17.7351 4.5 16c0 -1.7351 0.05539 -3.0536 0.12959 -4.0424 0.17034 -2.26967 1.9352 -3.83796 4.07767 -4.01146C11.2207 7.7426 15.9111 7.5 24 7.5Z" stroke-width="1"></path>
  </g>
</svg>