<svg xmlns="http://www.w3.org/2000/svg" fill="none" viewBox="0 0 48 48" id="Pool-Ladder--Streamline-Plump">
  <desc>
    Pool Ladder Streamline Icon: https://streamlinehq.com
  </desc>
  <g id="pool-ladder--pool-stairs-swim-swimming-water-ladder-hotel">
    <path id="Subtract" fill="#8fbffa" fill-rule="evenodd" d="M3.5 11.5a9 9 0 1 1 18 0v8h19v-8a3 3 0 1 0 -6 0v1.955c0 1.11 -0.651 2.27 -1.905 2.462a7.232 7.232 0 0 1 -2.19 0c-1.254 -0.192 -1.905 -1.352 -1.905 -2.462V11.5a9 9 0 1 1 18 0v29.256A4.49 4.49 0 0 0 45 40.5a5.142 5.142 0 0 1 -2.894 -0.893 7.218 7.218 0 0 0 -1.606 -0.817V35.5h-19v3.29c-0.56 0.202 -1.1 0.474 -1.606 0.817a5.142 5.142 0 0 1 -4.394 0.669V11.5a3 3 0 1 0 -6 0v1.955c0 1.11 -0.651 2.27 -1.905 2.462a7.23 7.23 0 0 1 -2.19 0C4.151 15.725 3.5 14.565 3.5 13.455V11.5Zm18 19v-6h19v6h-19Z" clip-rule="evenodd" stroke-width="1"></path>
    <path id="Vector (Stroke)" fill="#2859c5" fill-rule="evenodd" d="M7.578 42.09c1.445 -0.98 3.4 -0.98 4.844 0A8.143 8.143 0 0 0 17 43.5c1.595 0 3.19 -0.47 4.578 -1.41 1.445 -0.98 3.4 -0.98 4.844 0A8.143 8.143 0 0 0 31 43.5c1.595 0 3.19 -0.47 4.578 -1.41 1.445 -0.98 3.4 -0.98 4.844 0A8.143 8.143 0 0 0 45 43.5a1.5 1.5 0 0 1 0 3H3a1.5 1.5 0 0 1 0 -3c1.595 0 3.19 -0.47 4.578 -1.41Z" clip-rule="evenodd" stroke-width="1"></path>
  </g>
</svg>