<svg xmlns="http://www.w3.org/2000/svg" fill="none" viewBox="0 0 48 48" id="Toilet-Sign-Man--Streamline-Plump">
  <desc>
    Toilet Sign Man Streamline Icon: https://streamlinehq.com
  </desc>
  <g id="toilet-sign-man--toilet-sign-restroom-bathroom-user-human-person-man-male">
    <path id="Ellipse 135" fill="#8fbffa" d="M17.5 8.5a6.5 6.5 0 1 0 13 0 6.5 6.5 0 1 0 -13 0" stroke-width="1"></path>
    <path id="Union" fill="#8fbffa" d="M24 16.5c-2.628 0 -4.592 0.102 -5.975 0.217 -1.82 0.151 -3.318 1.355 -3.89 3.08a54.766 54.766 0 0 0 -2.386 10.785c-0.218 1.888 1.201 3.518 3.08 3.636 0.547 0.034 1.164 0.07 1.842 0.103l0.657 8.866c0.119 1.605 1.325 2.945 2.959 3.11 0.301 0.03 0.622 0.06 0.957 0.086a1.48 1.48 0 0 0 1.591 -1.422l0.375 -8.982a0.5 0.5 0 0 1 0.5 -0.479h0.58a0.5 0.5 0 0 1 0.5 0.48l0.375 8.982a1.48 1.48 0 0 0 1.59 1.42c0.336 -0.026 0.657 -0.055 0.959 -0.086 1.634 -0.164 2.84 -1.504 2.96 -3.11l0.656 -8.865c0.678 -0.034 1.294 -0.069 1.842 -0.103 1.879 -0.118 3.297 -1.748 3.08 -3.636a54.76 54.76 0 0 0 -2.386 -10.784c-0.573 -1.726 -2.07 -2.93 -3.89 -3.081C28.593 16.6 26.629 16.5 24 16.5Z" stroke-width="1"></path>
  </g>
</svg>