<svg xmlns="http://www.w3.org/2000/svg" fill="none" viewBox="0 0 48 48" id="Wheelchair-2--Streamline-Plump">
  <desc>
    Wheelchair 2 Streamline Icon: https://streamlinehq.com
  </desc>
  <g id="wheelchair-2--person-access-wheelchair-accomodation-human-disability-disabled-user">
    <path id="Subtract" fill="#8fbffa" d="M31.133 13.011a2.972 2.972 0 0 1 1.573 3.631l-2.165 6.596a0.51 0.51 0 0 0 0.404 0.66c2.689 0.44 6.33 1.487 8.685 2.212a2.894 2.894 0 0 1 2.008 3.217c-0.467 3.06 -1.348 8.502 -2.431 13.612 -0.23 1.081 -1.053 1.938 -2.155 2.022 -0.632 0.047 -1.408 0.061 -2.283 -0.012 -1.015 -0.084 -1.696 -1.024 -1.6 -2.038l0.843 -8.928a0.5 0.5 0 0 0 -0.45 -0.545l-9.97 -0.968a8.008 8.008 0 0 0 -6.652 -5.415 151.553 151.553 0 0 1 3.354 -10.377l-2.333 -1.347a0.5 0.5 0 0 0 -0.583 0.06l-6.289 5.618c-0.55 0.49 -1.284 0.806 -1.966 0.524 -0.706 -0.293 -1.355 -0.814 -1.875 -1.329 -0.842 -0.832 -0.839 -2.128 -0.149 -3.09 1.527 -2.128 4.526 -5.985 8.233 -9.107a2.77 2.77 0 0 1 2.765 -0.457c2.307 0.862 7.076 2.72 13.036 5.461Z" stroke-width="1"></path>
    <path id="Ellipse 136" fill="#8fbffa" d="M29 6.5a5.5 5.5 0 1 0 11 0 5.5 5.5 0 1 0 -11 0" stroke-width="1"></path>
    <path id="Subtract_2" fill="#2859c5" fill-rule="evenodd" d="M28.002 35c0 -6.627 -5.373 -12 -12 -12s-12 5.373 -12 12 5.373 12 12 12 12 -5.373 12 -12Zm-6.5 0a5.5 5.5 0 1 0 -11 0 5.5 5.5 0 0 0 11 0Z" clip-rule="evenodd" stroke-width="1"></path>
  </g>
</svg>