<svg xmlns="http://www.w3.org/2000/svg" fill="none" viewBox="0 0 16 16" id="Flower--Streamline-Block-Free">
  <desc>
    Flower Streamline Icon: https://streamlinehq.com
  </desc>
  <path fill="#000000" fill-rule="evenodd" d="M0 8c0 -2.16357 1.37419 -4.00618 3.29737 -4.70262C3.99382 1.37419 5.83643 0 8 0c2.1636 0 4.0062 1.3742 4.7026 3.29738C14.6258 3.99382 16 5.83643 16 8c0 2.1636 -1.3742 4.0062 -3.2974 4.7026C12.0062 14.6258 10.1636 16 8 16c-2.16357 0 -4.00618 -1.3742 -4.70263 -3.2974C1.37419 12.0062 0 10.1636 0 8Zm8 3c1.65685 0 3 -1.34315 3 -3S9.65685 5 8 5 5 6.34315 5 8s1.34315 3 3 3Z" clip-rule="evenodd" stroke-width="1"></path>
</svg>