<svg xmlns="http://www.w3.org/2000/svg" fill="none" viewBox="0 0 48 48" id="Application-Add--Streamline-Plump-Remix">
  <desc>
    Application Add Streamline Icon: https://streamlinehq.com
  </desc>
  <g id="application-add--application-new-add-square">
    <path id="Union" fill="#000000" fill-rule="evenodd" d="M6.33122 5.29926C7.55101 5.14006 9.37264 5 12 5c2.6274 0 4.449 0.14006 5.6688 0.29926 0.6619 0.08638 1.1474 0.54917 1.2003 1.41932C18.941 7.90272 19 9.60506 19 12c0 2.3949 -0.059 4.0973 -0.1309 5.2814 -0.0529 0.8702 -0.5384 1.333 -1.2003 1.4193C16.449 18.8599 14.6274 19 12 19c-2.62736 0 -4.44899 -0.1401 -5.66878 -0.2993 -0.66187 -0.0863 -1.14746 -0.5491 -1.20031 -1.4193C5.05898 16.0973 5 14.3949 5 12c0 -2.39494 0.05898 -4.09728 0.13091 -5.28143 0.05285 -0.87014 0.53844 -1.33293 1.20031 -1.41931ZM12 1c-2.76512 0 -4.76321 0.14714 -6.18645 0.3329 -2.76184 0.36046 -4.5188 2.56689 -4.67528 5.14316C1.06047 7.75685 1 9.54184 1 12c0 2.4582 0.06047 4.2432 0.13827 5.5239 0.15648 2.5763 1.91343 4.7827 4.67528 5.1432C7.23679 22.8529 9.23488 23 12 23c2.7651 0 4.7632 -0.1471 6.1865 -0.3329 2.7618 -0.3605 4.5187 -2.5669 4.6752 -5.1432C22.9395 16.2432 23 14.4582 23 12c0 -2.45816 -0.0605 -4.24315 -0.1383 -5.52394 -0.1565 -2.57627 -1.9134 -4.7827 -4.6752 -5.14316C16.7632 1.14714 14.7651 1 12 1Zm0 24c-2.76512 0 -4.76321 0.1471 -6.18645 0.3329 -2.76185 0.3605 -4.5188 2.5669 -4.67528 5.1432C1.06047 31.7568 1 33.5418 1 36s0.06047 4.2432 0.13827 5.5239c0.15648 2.5763 1.91344 4.7827 4.67528 5.1432C7.23679 46.8529 9.23488 47 12 47c2.7651 0 4.7632 -0.1471 6.1865 -0.3329 2.7618 -0.3605 4.5187 -2.5669 4.6752 -5.1432C22.9395 40.2431 23 38.4582 23 36s-0.0605 -4.2432 -0.1383 -5.5239c-0.1565 -2.5763 -1.9134 -4.7827 -4.6752 -5.1432C16.7632 25.1471 14.7651 25 12 25Zm-5.66878 4.2993C7.55101 29.1401 9.37264 29 12 29c2.6274 0 4.449 0.1401 5.6688 0.2993 0.6619 0.0863 1.1474 0.5491 1.2003 1.4193C18.941 31.9027 19 33.6051 19 36s-0.059 4.0973 -0.1309 5.2814c-0.0529 0.8702 -0.5384 1.333 -1.2003 1.4193C16.449 42.8599 14.6274 43 12 43c-2.62736 0 -4.44899 -0.1401 -5.66878 -0.2993 -0.66187 -0.0863 -1.14746 -0.5491 -1.20031 -1.4193C5.05898 40.0973 5 38.3949 5 36s0.05898 -4.0973 0.13091 -5.2814c0.05285 -0.8702 0.53844 -1.333 1.20031 -1.4193Zm24.14488 -4.161C31.7568 25.0605 33.5418 25 36 25s4.2432 0.0605 5.5239 0.1383c2.5763 0.1565 4.7827 1.9134 5.1432 4.6752C46.8529 31.2368 47 33.2349 47 36c0 2.7651 -0.1471 4.7632 -0.3329 6.1865 -0.3605 2.7618 -2.5669 4.5187 -5.1432 4.6752C40.2432 46.9395 38.4582 47 36 47s-4.2432 -0.0605 -5.5239 -0.1383c-2.5763 -0.1565 -4.7827 -1.9134 -5.1432 -4.6752C25.1471 40.7632 25 38.7651 25 36c0 -2.7651 0.1471 -4.7632 0.3329 -6.1865 0.3605 -2.7618 2.5669 -4.5187 5.1432 -4.6752ZM36 29c-2.3949 0 -4.0973 0.059 -5.2814 0.1309 -0.8702 0.0529 -1.333 0.5384 -1.4193 1.2003C29.1401 31.551 29 33.3726 29 36s0.1401 4.449 0.2993 5.6688c0.0863 0.6619 0.5491 1.1474 1.4193 1.2003C31.9027 42.941 33.6051 43 36 43s4.0973 -0.059 5.2814 -0.1309c0.8702 -0.0529 1.333 -0.5384 1.4193 -1.2003C42.8599 40.449 43 38.6274 43 36s-0.1401 -4.449 -0.2993 -5.6688c-0.0863 -0.6619 -0.5491 -1.1474 -1.4193 -1.2003C40.0973 29.059 38.3949 29 36 29ZM34.7363 2.55926C35.0961 2.52319 35.5158 2.5 36 2.5c0.4842 0 0.9039 0.02319 1.2637 0.05926 1.3269 0.13302 2.0897 1.26244 2.1356 2.46668 0.0304 0.7983 0.0615 1.93081 0.0809 3.49388 1.5631 0.01941 2.6956 0.05044 3.4939 0.08088 1.2042 0.04592 2.3336 0.80866 2.4666 2.1356 0.0361 0.3598 0.0593 0.7795 0.0593 1.2637 0 0.4842 -0.0232 0.9039 -0.0593 1.2637 -0.133 1.3269 -1.2624 2.0897 -2.4666 2.1356 -0.7983 0.0304 -1.9309 0.0615 -3.4939 0.0809 -0.0194 1.5631 -0.0505 2.6956 -0.0809 3.4939 -0.0459 1.2042 -0.8087 2.3336 -2.1356 2.4666 -0.3598 0.0361 -0.7795 0.0593 -1.2637 0.0593 -0.4842 0 -0.9039 -0.0232 -1.2637 -0.0593 -1.3269 -0.133 -2.0897 -1.2624 -2.1356 -2.4666 -0.0304 -0.7983 -0.0615 -1.9308 -0.0809 -3.4939 -1.563 -0.0194 -2.6956 -0.0505 -3.4939 -0.0809 -1.2042 -0.0459 -2.3336 -0.8087 -2.4666 -2.1356 -0.0361 -0.3598 -0.0593 -0.7795 -0.0593 -1.2637 0 -0.4842 0.0232 -0.9039 0.0593 -1.2637 0.133 -1.32694 1.2624 -2.08968 2.4666 -2.1356 0.7983 -0.03044 1.9308 -0.06147 3.4939 -0.08088 0.0194 -1.56307 0.0505 -2.69558 0.0809 -3.49388 0.0459 -1.20424 0.8087 -2.33366 2.1356 -2.46668Z" clip-rule="evenodd" stroke-width="1"></path>
  </g>
</svg>