<svg xmlns="http://www.w3.org/2000/svg" fill="none" viewBox="0 0 48 48" id="Code-Monitor-2--Streamline-Plump-Remix">
  <desc>
    Code Monitor 2 Streamline Icon: https://streamlinehq.com
  </desc>
  <g id="code-monitor-2--code-tags-angle-image-ui-ux-design">
    <path id="Union" fill="#000000" fill-rule="evenodd" d="M15.7705 1.59897c-3.3686 0.08426 -5.97761 0.21158 -7.89096 0.33339 -3.40731 0.21693 -6.09991 2.83523 -6.42451 6.31735C1.218 10.7924 1 14.4925 1 19.502c0 5.0094 0.218 8.7095 0.45503 11.2522 0.3246 3.4821 3.0172 6.1004 6.42451 6.3173 1.9107 0.1217 4.51516 0.2488 7.87696 0.3331 0.0798 0.0097 0.1611 0.0147 0.2435 0.0147 0.0489 0 0.0973 -0.0018 0.1453 -0.0052 0.9568 0.0226 1.973 0.0417 3.0501 0.0563l-0.3646 1.823c-0.1402 0.7011 -0.7558 1.2058 -1.4709 1.2058h-0.9009c-1.6684 0 -3.1049 1.1776 -3.4321 2.8136l-0.0392 0.1961c-0.3094 1.547 0.8738 2.9903 2.4515 2.9903h17.1207c1.5777 0 2.7609 -1.4433 2.4515 -2.9903l-0.0392 -0.1961c-0.3272 -1.636 -1.7637 -2.8136 -3.4321 -2.8136h-0.9009c-0.7151 0 -1.3307 -0.5047 -1.4709 -1.2058l-0.3646 -1.823c5.0746 -0.0686 8.7983 -0.2385 11.3168 -0.3989 3.4073 -0.2169 6.0999 -2.8352 6.4245 -6.3173 0.237 -2.5427 0.455 -6.2428 0.455 -11.2522s-0.218 -8.7096 -0.455 -11.25228c-0.3246 -3.48213 -3.0172 -6.10042 -6.4245 -6.31736 -3.2552 -0.20724 -8.524 -0.43041 -16.1205 -0.43041 -2.9732 0 -5.5898 0.03419 -7.8687 0.08823 -0.0434 -0.00281 -0.0872 -0.00424 -0.1313 -0.00424 -0.0776 0 -0.1542 0.00442 -0.2295 0.01303ZM14 5.65122c-2.4279 0.07848 -4.37226 0.17794 -5.86631 0.27306 -1.41256 0.08993 -2.55119 1.14408 -2.69593 2.6967C5.21297 11.0324 5 14.6084 5 19.502c0 4.8935 0.21297 8.4695 0.43776 10.8809 0.14473 1.5527 1.28337 2.6068 2.69593 2.6967 1.49405 0.0951 3.43841 0.1946 5.86631 0.2731V5.65122Zm4 16.97898c3.8765 -3.7299 6.6815 -5.9669 8.5695 -7.2917 1.8843 -1.3221 4.2154 -1.1125 5.9731 0.3737 1.9142 1.6184 4.9231 4.3428 9.4161 8.8358 0.3167 0.3167 0.6246 0.626 0.9239 0.9281 0.0716 -1.7181 0.1174 -3.7044 0.1174 -5.9741 0 -4.8936 -0.213 -8.4696 -0.4378 -10.88102 -0.1447 -1.55262 -1.2833 -2.60676 -2.6959 -2.6967 -3.164 -0.20144 -8.3478 -0.42233 -15.8663 -0.42233 -2.1967 0 -4.1941 0.01886 -6 0.05058V22.6302ZM8.5 9.50195c-1.10457 0 -2 0.89545 -2 2.00005 0 1.1045 0.89543 2 2 2h2c1.1046 0 2 -0.8955 2 -2 0 -1.1046 -0.8954 -2.00005 -2 -2.00005h-2Zm-2 9.00005c0 -1.1046 0.89543 -2 2 -2h2c1.1046 0 2 0.8954 2 2 0 1.1045 -0.8954 2 -2 2h-2c-1.10457 0 -2 -0.8955 -2 -2Z" clip-rule="evenodd" stroke-width="1"></path>
  </g>
</svg>