<svg xmlns="http://www.w3.org/2000/svg" viewBox="0 0 14 14">
  <g>
    <path d="M13.5,2.5v-1a1,1,0,0,0-1-1H1.5a1,1,0,0,0-1,1v1" style="fill: none;stroke: #000001;stroke-linecap: round;stroke-linejoin: round"/>
    <path d="M.5,11.5v1a1,1,0,0,0,1,1h11a1,1,0,0,0,1-1v-.75" style="fill: none;stroke: #000001;stroke-linecap: round;stroke-linejoin: round"/>
    <line x1="10.5" y1="5" x2="13.5" y2="5" style="fill: none;stroke: #000001;stroke-linecap: round;stroke-linejoin: round"/>
    <line x1="12" y1="5" x2="12" y2="9" style="fill: none;stroke: #000001;stroke-linecap: round;stroke-linejoin: round"/>
    <polyline points="6.5 5 6.5 9 8.5 9" style="fill: none;stroke: #000001;stroke-linecap: round;stroke-linejoin: round"/>
    <path d="M3.5,9V6.5a1.5,1.5,0,0,0-3,0V9" style="fill: none;stroke: #000001;stroke-linecap: round;stroke-linejoin: round"/>
    <line x1="0.5" y1="7.5" x2="3.5" y2="7.5" style="fill: none;stroke: #000001;stroke-linecap: round;stroke-linejoin: round"/>
  </g>
</svg>
