<svg xmlns="http://www.w3.org/2000/svg" fill="none" viewBox="0 0 14 14"><g id="dice-3"><path id="Union" fill="#37d7ff" fill-rule="evenodd" d="M2.5 0A2.5 2.5 0 0 0 0 2.5v9A2.5 2.5 0 0 0 2.5 14h9a2.5 2.5 0 0 0 2.5-2.5v-9A2.5 2.5 0 0 0 11.5 0h-9Z" clip-rule="evenodd"></path><path id="Union_2" fill="#3e3e3e" fill-rule="evenodd" d="M9.788 5.412a1.2 1.2 0 1 0 0-2.4 1.2 1.2 0 0 0 0 2.4ZM8.198 7a1.2 1.2 0 1 1-2.4 0 1.2 1.2 0 0 1 2.4 0ZM5.412 9.788a1.2 1.2 0 1 1-2.4 0 1.2 1.2 0 0 1 2.4 0Z" clip-rule="evenodd"></path></g></svg>