<svg xmlns="http://www.w3.org/2000/svg" fill="none" viewBox="0 0 14 14" id="Play-List-4--Streamline-Core">
  <desc>
    Play List 4 Streamline Icon: https://streamlinehq.com
  </desc>
  <g id="play-list-4--screen-television-display-player-movies-players-tv-media-video-entertainment">
    <path id="Union" fill="#8fbffa" fill-rule="evenodd" d="M1.5 0A1.5 1.5 0 0 0 0 1.5v11A1.5 1.5 0 0 0 1.5 14h11a1.5 1.5 0 0 0 1.5 -1.5v-11A1.5 1.5 0 0 0 12.5 0h-11Z" clip-rule="evenodd" stroke-width="1"></path>
    <path id="Vector" fill="#2859c5" d="M4.954 9.494V4.646a0.46 0.46 0 0 1 0.696 -0.392L9.8 6.666a0.46 0.46 0 0 1 0 0.797L5.65 9.886a0.46 0.46 0 0 1 -0.696 -0.392Z" stroke-width="1"></path>
  </g>
</svg>