<svg xmlns="http://www.w3.org/2000/svg" fill="none" viewBox="0 0 14 14" id="Recording-Tape-Bubble-Circle--Streamline-Core">
  <desc>
    Recording Tape Bubble Circle Streamline Icon: https://streamlinehq.com
  </desc>
  <g id="recording-tape-bubble-circle--phone-device-mail-mobile-voice-machine-answering-chat-entertainment">
    <path id="Union" fill="#8fbffa" fill-rule="evenodd" d="M10.02 0.736a6.954 6.954 0 0 0 -8.95 9.897l-0.993 2.645a0.5 0.5 0 0 0 0.557 0.667L4.1 13.32A6.953 6.953 0 0 0 10.02 0.736Z" clip-rule="evenodd" stroke-width="1"></path>
    <path id="Union_2" fill="#2859c5" fill-rule="evenodd" d="M4.278 6.013a1.037 1.037 0 1 0 0 2.074 1.037 1.037 0 0 0 0 -2.074ZM1.992 7.05a2.287 2.287 0 1 1 4.325 1.037H7.78a2.287 2.287 0 1 1 2.039 1.25h-5.54l-0.007 0A2.287 2.287 0 0 1 1.99 7.05Zm7.826 -1.037a1.037 1.037 0 1 0 0 2.074 1.037 1.037 0 0 0 0 -2.074Z" clip-rule="evenodd" stroke-width="1"></path>
  </g>
</svg>