<svg xmlns="http://www.w3.org/2000/svg" fill="none" viewBox="0 0 14 14" id="Tape-Cassette-Record--Streamline-Core">
  <desc>
    Tape Cassette Record Streamline Icon: https://streamlinehq.com
  </desc>
  <g id="tape-cassette-record--music-entertainment-tape-cassette-record">
    <path id="Subtract" fill="#8fbffa" fill-rule="evenodd" d="M1.49994 1.5C0.671512 1.5 -0.0000610352 2.17157 -0.0000610352 3v8c0 0.8284 0.6715730352 1.5 1.5000010352 1.5H12.4999c0.8285 0 1.5 -0.6716 1.5 -1.5V3c0 -0.82843 -0.6715 -1.5 -1.5 -1.5H1.49994Z" clip-rule="evenodd" stroke-width="1"></path>
    <path id="Union" fill="#2859c5" fill-rule="evenodd" d="M3.74994 4c-0.9665 0 -1.75 0.7835 -1.75 1.75s0.7835 1.75 1.75 1.75h6.49996c0.9665 0 1.75 -0.7835 1.75 -1.75S11.2164 4 10.2499 4H3.74994Zm-0.75 1.75c0 -0.41421 0.33579 -0.75 0.75 -0.75h0.91478c0.1909 0.16898 0.3161 0.4088 0.33522 0.67779v0.14431c-0.01912 0.26905 -0.14437 0.50891 -0.33534 0.6779h-0.91466c-0.41421 0 -0.75 -0.33579 -0.75 -0.75Zm6 0.0721c0.01912 0.26905 0.14437 0.50891 0.33534 0.6779h0.91462c0.4143 0 0.75 -0.33579 0.75 -0.75s-0.3357 -0.75 -0.75 -0.75h-0.91474c-0.19091 0.16898 -0.31611 0.4088 -0.33522 0.67779v0.14431Z" clip-rule="evenodd" stroke-width="1"></path>
    <path id="Union_2" fill="#2859c5" d="M4.86021 9.50439c-0.17499 0 -0.33235 0.10654 -0.39734 0.26902l-0.8559 2.13979c-0.05274 0.1318 -0.03665 0.2812 0.04297 0.3988 0.07961 0.1176 0.21236 0.1881 0.35437 0.1881h5.99133c0.14196 0 0.27476 -0.0705 0.35436 -0.1881s0.0957 -0.267 0.043 -0.3988l-0.85592 -2.13979c-0.06499 -0.16248 -0.22235 -0.26902 -0.39734 -0.26902H4.86021Z" stroke-width="1"></path>
  </g>
</svg>