<svg xmlns="http://www.w3.org/2000/svg" fill="none" viewBox="0 0 14 14" id="Volume-Off--Streamline-Core">
  <desc>
    Volume Off Streamline Icon: https://streamlinehq.com
  </desc>
  <g id="volume-off--speaker-music-mute-volume-control-audio-off-mute-entertainment">
    <path id="Union" fill="#8fbffa" fill-rule="evenodd" d="M8.716 1.578A1.454 1.454 0 0 1 11 2.805v8.005c-0.027 1.186 -1.403 1.883 -2.374 1.21l-0.008 -0.005L4.84 9.3H3.5C2.68 9.3 2 8.62 2 7.8v-2c0 -0.82 0.68 -1.5 1.5 -1.5h1.342l3.87 -2.719 0.004 -0.002Z" clip-rule="evenodd" stroke-width="1"></path>
    <path id="Vector (Stroke)" fill="#2859c5" fill-rule="evenodd" d="M0.22 0.22a0.75 0.75 0 0 0 0 1.06l12.5 12.5a0.75 0.75 0 1 0 1.06 -1.06L1.28 0.22a0.75 0.75 0 0 0 -1.06 0Z" clip-rule="evenodd" stroke-width="1"></path>
  </g>
</svg>