<svg xmlns="http://www.w3.org/2000/svg" fill="none" viewBox="0 0 14 14" id="Volume-Level-Low--Streamline-Core">
  <desc>
    Volume Level Low Streamline Icon: https://streamlinehq.com
  </desc>
  <g id="volume-level-low--volume-speaker-lower-down-control-music-low-audio-entertainment">
    <path id="Vector (Stroke)" fill="#2859c5" fill-rule="evenodd" d="M10.3577 4.9221c0.3191 -0.26401 0.7919 -0.21928 1.0559 0.09989 0.4591 0.55505 0.6982 1.25899 0.6727 1.97803 0.0255 0.71904 -0.2136 1.42298 -0.6727 1.97803 -0.264 0.31917 -0.7368 0.3639 -1.0559 0.09989 -0.3192 -0.26401 -0.36394 -0.73677 -0.0999 -1.05595 0.2286 -0.27635 0.3458 -0.62806 0.3287 -0.9863 -0.0011 -0.02377 -0.0011 -0.04757 0 -0.07134 0.0171 -0.35824 -0.1001 -0.70995 -0.3287 -0.9863 -0.26404 -0.31918 -0.2193 -0.79194 0.0999 -1.05595Z" clip-rule="evenodd" stroke-width="1"></path>
    <path id="Union" fill="#8fbffa" fill-rule="evenodd" d="M6.71551 1.77885C7.69756 1.09936 9.02347 1.81466 9 3.0054v8.0057l-0.00012 0c-0.02634 1.1862 -1.40299 1.8822 -2.37437 1.2101l-0.00735 -0.0051 0.00004 -0.0001 -3.77923 -2.71596H1.5c-0.820809 0 -1.5 -0.67919 -1.5 -1.5v-2c0 -0.82081 0.679191 -1.5 1.5 -1.5h1.34193l3.87065 -2.71915 0.00292 -0.00205 0.00001 0.00001Z" clip-rule="evenodd" stroke-width="1"></path>
  </g>
</svg>