<svg xmlns="http://www.w3.org/2000/svg" fill="none" viewBox="0 0 14 14" id="Volume-Mute--Streamline-Core">
  <desc>
    Volume Mute Streamline Icon: https://streamlinehq.com
  </desc>
  <g id="volume-mute--speaker-remove-volume-control-audio-music-mute-off-cross-entertainment">
    <path id="Union" fill="#2859c5" fill-rule="evenodd" d="M13.78 6.155a0.75 0.75 0 0 0 -1.06 -1.06l-0.845 0.844 -0.845 -0.844a0.75 0.75 0 1 0 -1.06 1.06l0.844 0.845 -0.844 0.845a0.75 0.75 0 0 0 1.06 1.06l0.845 -0.844 0.845 0.844a0.75 0.75 0 1 0 1.06 -1.06L12.936 7l0.844 -0.845Z" clip-rule="evenodd" stroke-width="1"></path>
    <path id="Union_2" fill="#8fbffa" fill-rule="evenodd" d="M6.716 1.779A1.454 1.454 0 0 1 9 3.005v8.006c-0.026 1.186 -1.403 1.882 -2.374 1.21l-0.008 -0.005L2.84 9.5H1.5C0.68 9.5 0 8.82 0 8V6c0 -0.82 0.68 -1.5 1.5 -1.5h1.342l3.87 -2.72 0.003 -0.001Z" clip-rule="evenodd" stroke-width="1"></path>
  </g>
</svg>