<svg xmlns="http://www.w3.org/2000/svg" fill="none" viewBox="0 0 14 14"><g id="vr-headset-1--entertainment-gaming-vr-headset"><path id="Union" fill="#37d7ff" fill-rule="evenodd" d="M6.071 0a6.071 6.071 0 0 0-3.285 11.178V13.5a.5.5 0 0 0 .5.5h5.571a.5.5 0 0 0 .5-.5v-1.821h1.357c.79 0 1.429-.64 1.429-1.429V7.929a.5.5 0 0 0-.007-.08l-.745-4.643a.5.5 0 0 0-.06-.17A6.07 6.07 0 0 0 6.07 0Z" clip-rule="evenodd"></path><path id="Union_2" fill="#3e3e3e" fill-rule="evenodd" d="M12.5 7.813H9.946V3.401H12.5a1 1 0 0 1 1 1v2.412a1 1 0 0 1-1 1ZM8.206 3.401h.49v4.412h-.49a2.207 2.207 0 0 1-2.117-1.58H.002a6.186 6.186 0 0 1 .095-1.25H6.09A2.207 2.207 0 0 1 8.206 3.4Z" clip-rule="evenodd"></path></g></svg>