<svg xmlns="http://www.w3.org/2000/svg" fill="none" viewBox="0 0 24 24" id="Customer-Support-Setting--Streamline-Sharp-Remix">
  <desc>
    Customer Support Setting Streamline Icon: https://streamlinehq.com
  </desc>
  <g id="Remix/Interface Essential/customer-support-setting--customer-phone-help-microphone-phone-support">
    <path id="Union" fill="#000000" fill-rule="evenodd" d="M9.99981 0.75h-1.25v2.58744c-0.19562 0.07343 -0.38808 0.15327 -0.5771 0.23928l-0.94583 -0.94583 -0.88389 -0.88389 -0.88388 0.88389 -2.82843 2.82842 -0.88388 0.88389 0.88388 0.88388 0.94585 0.94585c-0.086 0.18902 -0.16583 0.38146 -0.23925 0.57707H0.749847v6.5h0.501143c1.23684 -0.9026 2.59267 -1.6542 4.04028 -2.2266l-0.07038 -0.2734H3.24985v-1.5h1.97104l0.24154 -0.9384c0.15914 -0.61832 0.40388 -1.20259 0.7212 -1.7396l0.49307 -0.83444 -0.68535 -0.68535 -0.70902 -0.70901 1.06066 -1.06066 0.70901 0.709 0.68535 0.68535 0.83444 -0.49307c0.53702 -0.31734 1.1213 -0.56209 1.73961 -0.72123l0.9384 -0.24154V3.25h1.5v1.97104l0.9384 0.24153c0.6184 0.15914 1.2026 0.40389 1.7397 0.72122l0.8344 0.49307 0.6853 -0.68535 0.7091 -0.70903 1.0606 1.06066 -0.709 0.70902 -0.6853 0.68535 0.493 0.83444c0.3174 0.53703 0.5621 1.12131 0.7213 1.73965l0.2415 0.9384h1.971v1.5h-1.971l-0.0704 0.2734c1.4476 0.5725 2.8034 1.324 4.0403 2.2266h0.5011v-6.5h-2.5874c-0.0734 -0.19563 -0.1533 -0.38809 -0.2393 -0.57713l0.9459 -0.94585 0.8839 -0.88388 -0.8839 -0.88388 -2.8284 -2.82843 -0.8839 -0.88388 -0.8839 0.88388 -0.9459 0.94586c-0.189 -0.08601 -0.3815 -0.16585 -0.5771 -0.23927V0.75H9.99981ZM16.2498 12c0 0.0828 -0.0023 0.165 -0.007 0.2466 -0.8148 -0.1942 -1.6499 -0.3335 -2.5009 -0.4143 -0.0844 -0.8878 -0.8321 -1.5823 -1.7421 -1.5823 -0.9099 0 -1.6576 0.6945 -1.742 1.5823 -0.85097 0.0808 -1.68608 0.2201 -2.50092 0.4143 -0.00467 -0.0816 -0.00703 -0.1638 -0.00703 -0.2466 0 -2.34721 1.90279 -4.25 4.24995 -4.25 2.3473 0 4.25 1.90279 4.25 4.25Zm-6.72522 4.472 0.68722 2.722 0.2353 0.9319 -0.84019 0.4668 -4.5 2.5 -0.93138 0.5174 -0.65842 -0.8376 -2.5 -3.1806 -0.72463 -0.9218 0.87373 -0.7821c1.83731 -1.6444 4.05263 -2.8779 6.50108 -3.5537 1.38074 -0.3811 2.83391 -0.5843 4.33261 -0.5843 1.4986 0 2.9518 0.2032 4.3325 0.5843 2.4485 0.6758 4.6638 1.9093 6.5011 3.5537l0.8737 0.7821 -0.7246 0.9218 -2.5 3.1806 -0.6584 0.8376 -0.9314 -0.5174 -4.5 -2.5 -0.8402 -0.4668 0.2353 -0.9319 0.6872 -2.722c-0.8022 -0.1458 -1.6294 -0.222 -2.4752 -0.222 -0.8459 0 -1.6731 0.0762 -2.47532 0.222Z" clip-rule="evenodd" stroke-width="1"></path>
  </g>
</svg>