<svg xmlns="http://www.w3.org/2000/svg" fill="none" viewBox="0 0 24 24" id="Feather-Pen--Streamline-Sharp-Remix">
  <desc>
    Feather Pen Streamline Icon: https://streamlinehq.com
  </desc>
  <g id="Remix/Interface Essential/feather-pen--change-edit-feather-modify-quill-write-writing">
    <path id="Union" fill="#000000" fill-rule="evenodd" d="M17.094 2.5c-1.1688 0 -2.2897 0.46429 -3.1162 1.29074L6.25083 11.5178v4.4643L17.1168 5.11612l1.7678 1.76776L13.7685 12h4.4646l1.977 -1.977c0.8264 -0.82647 1.2907 -1.94738 1.2907 -3.11615 0 -2.43383 -1.973 -4.40685 -4.4068 -4.40685ZM3.75083 11v7.4821l-3.74399406 3.744L1.7746 23.9939 5.51848 20.25h8.00012l0.3661 -0.3661 8.0931 -8.0932c1.2953 -1.2952 2.023 -3.05204 2.023 -4.88385C24.0008 3.09231 20.9085 0 17.094 0c-1.8319 0 -3.5886 0.727686 -4.8839 2.02297L4.11694 10.1161l-0.36611 0.3661V11Z" clip-rule="evenodd" stroke-width="1"></path>
  </g>
</svg>