<svg xmlns="http://www.w3.org/2000/svg" fill="none" viewBox="0 0 24 24" id="Search-Bar--Streamline-Sharp-Remix">
  <desc>
    Search Bar Streamline Icon: https://streamlinehq.com
  </desc>
  <g id="Remix/Interface Essential/search-bar--search-bar-input-magnifier-text">
    <path id="Union" fill="#000000" fill-rule="evenodd" d="M0 3h24v18H0V3Zm2.5 2.5v13h19v-13h-19Zm12.2 4.25c-1.077 0 -1.95 0.873 -1.95 1.95 0 1.0769 0.873 1.95 1.95 1.95s1.95 -0.8731 1.95 -1.95c0 -1.077 -0.873 -1.95 -1.95 -1.95Zm-4.45 1.95c0 -2.45767 1.9923 -4.45 4.45 -4.45s4.45 1.99233 4.45 4.45c0 0.7743 -0.1978 1.5025 -0.5456 2.1367l1.7796 1.7796 -1.7677 1.7677 -1.7796 -1.7796c-0.6342 0.3478 -1.3624 0.5456 -2.1367 0.5456 -2.4577 0 -4.45 -1.9923 -4.45 -4.45Z" clip-rule="evenodd" stroke-width="1"></path>
  </g>
</svg>