<svg xmlns="http://www.w3.org/2000/svg" fill="none" viewBox="0 0 24 24" id="Smart-Key--Streamline-Sharp-Remix">
  <desc>
    Smart Key Streamline Icon: https://streamlinehq.com
  </desc>
  <g id="Remix/Interface Essential/smart-key--smart-key-entry-lock-login-pass-unlock-access-signal-wifi">
    <path id="Union" fill="#000000" fill-rule="evenodd" d="m18.3841 0.186035 3 2.999995 0.8839 0.88389 -0.8839 0.88388 -3 3 -5.1339 5.1339v6l-0.3661 0.3661 -3.50001 3.5 -0.88388 0.8839 -0.88389 -0.8839 -6 -6 -0.883881 -0.8839 0.883881 -0.8839 3.5 -3.5 0.36612 -0.3661h5.99996l4.25 -4.24998 -2.1161 -2.11612 1.7678 -1.76777 2.1161 2.11612 1.2322 -1.23223 -2.1161 -2.11612L18.3841 0.186035ZM1.92277 5.10868c1.06568 -1.16567 2.5083 -1.85883 4.07744 -1.85883 1.56913 0 3.01175 0.69316 4.07739 1.85883l1.8452 -1.68685C10.4292 1.78814 8.33631 0.74985 6.00021 0.74985c-2.33611 0 -4.42902 1.03829 -5.9225733 2.67198L1.92277 5.10868Zm2.5 2.73449c0.42587 -0.46583 0.98461 -0.72613 1.57744 -0.72613 0.59282 0 1.15156 0.2603 1.57743 0.72613l1.84514 -1.68685C8.56903 5.22246 7.36 4.61704 6.00021 4.61704c-1.3598 0 -2.56883 0.60542 -3.42257 1.53928l1.84513 1.68685Zm-0.1548 8.22673 2.25 -2.25h4.23223v4.2323l-2.24999 2.25 -4.23224 -4.2323Z" clip-rule="evenodd" stroke-width="1"></path>
  </g>
</svg>