<svg xmlns="http://www.w3.org/2000/svg" fill="none" viewBox="0 0 24 24" id="User-Single-Neutral-Female--Streamline-Sharp-Remix">
  <desc>
    User Single Neutral Female Streamline Icon: https://streamlinehq.com
  </desc>
  <g id="Remix/Interface Essential/user-single-neutral-female--close-geometric-human-person-single-up-user-female">
    <path id="Union" fill="#000000" fill-rule="evenodd" d="M6.25 12.25h11.5V6.5c0 -3.17564 -2.5744 -5.75 -5.75 -5.75 -3.17564 0 -5.75 2.57436 -5.75 5.75v5.75Zm2.5 -2.5V6.5c0 -1.79493 1.4551 -3.25 3.25 -3.25s3.25 1.45507 3.25 3.25v3.25h-6.5ZM1.5 18c-0.650791 -0.7593 -0.650411 -0.7596 -0.650018 -0.7599l0.000856 -0.0008 0.001957 -0.0016 0.004898 -0.0042 0.013729 -0.0115c0.010901 -0.009 0.025302 -0.0208 0.043203 -0.0352 0.035799 -0.0288 0.085605 -0.0678 0.149435 -0.1157 0.12764 -0.0957 0.31144 -0.2267 0.55143 -0.381 0.47995 -0.3086 1.18512 -0.7105 2.11559 -1.1092C5.59451 14.7822 8.35305 14 12 14c3.647 0 6.4055 0.7822 8.2689 1.5809 0.9305 0.3987 1.6357 0.8006 2.1156 1.1092 0.24 0.1543 0.4238 0.2853 0.5514 0.381 0.0639 0.0479 0.1137 0.0869 0.1495 0.1157 0.0179 0.0144 0.0323 0.0262 0.0432 0.0352l0.0137 0.0115 0.0049 0.0042 0.002 0.0016 0.0008 0.0008c0.0004 0.0003 0.0008 0.0006 -0.65 0.7599l0.6508 -0.7593 0.3492 0.2994V23.5H0.5v-5.9599l0.349209 -0.2994L1.5 18Z" clip-rule="evenodd" stroke-width="1"></path>
  </g>
</svg>