<svg xmlns="http://www.w3.org/2000/svg" fill="none" viewBox="0 0 48 48" id="Document-Certificate--Streamline-Plump">
  <desc>
    Document Certificate Streamline Icon: https://streamlinehq.com
  </desc>
  <g id="document-certificate--document-contract-license-permission-award">
    <path id="Union" fill="#000000" fill-rule="evenodd" d="M24 1.5c7.4033 0 12.5917 0.23865 15.8566 0.46626 3.2657 0.22767 5.8619 2.69241 6.152 5.99265C46.2578 10.7943 46.5 15.0741 46.5 21s-0.2422 10.2057 -0.4914 13.0411c-0.2887 3.2849 -2.8621 5.742 -6.1064 5.9893 0.9049 -1.0784 1.4333 -2.3663 1.5864 -3.6859C42.4329 35.1523 43 33.6418 43 32s-0.5672 -3.1523 -1.5114 -4.3445c-0.1753 -1.5107 -0.8424 -2.9799 -2.0033 -4.1408 -1.1609 -1.1609 -2.6301 -1.828 -4.1408 -2.0033C34.1523 20.5672 32.6418 20 31 20s-3.1523 0.5672 -4.3445 1.5114c-1.5107 0.1753 -2.9799 0.8424 -4.1408 2.0033 -1.1609 1.1609 -1.8279 2.6301 -2.0032 4.1408C19.5672 28.8477 19 30.3582 19 32s0.5672 3.1523 1.5115 4.3445c0.1753 1.5107 0.8423 2.9799 2.0032 4.1408l0.0116 0.0115c-6.6235 -0.0291 -11.3391 -0.2509 -14.3829 -0.4631 -3.26575 -0.2276 -5.86192 -2.6924 -6.152 -5.9926C1.74218 31.2057 1.5 26.9259 1.5 21s0.24218 -10.2057 0.49141 -13.0411c0.29008 -3.30024 2.88625 -5.76497 6.15199 -5.99264C11.4083 1.73864 16.5967 1.5 24 1.5ZM12 10c-1.1046 0 -2 0.8954 -2 2s0.8954 2 2 2h21c1.1046 0 2 -0.8954 2 -2s-0.8954 -2 -2 -2H12Zm-2 10c0 -1.1046 0.8954 -2 2 -2h6c1.1046 0 2 0.8954 2 2s-0.8954 2 -2 2h-6c-1.1046 0 -2 -0.8954 -2 -2Zm12 12.043c0 1.2571 0.5799 2.3788 1.4868 3.112 -0.1227 1.1598 0.2603 2.363 1.1493 3.2519 0.6628 0.6629 1.5005 1.0445 2.3646 1.1448 0.0063 1.8891 0.0585 4.0744 0.1995 6.3961 0.0511 0.8403 1.058 1.2244 1.6656 0.6417l1.6151 -1.5488c0.2901 -0.2782 0.7481 -0.2782 1.0382 0l1.6151 1.5488c0.6076 0.5827 1.6145 0.1986 1.6656 -0.6417 0.141 -2.3217 0.1932 -4.507 0.1995 -6.3961 0.8641 -0.1003 1.7018 -0.4819 2.3647 -1.1448 0.8889 -0.8889 1.272 -2.0921 1.1492 -3.2519C39.4201 34.4217 40 33.3001 40 32.043s-0.5799 -2.3788 -1.4868 -3.1121c0.1228 -1.1598 -0.2603 -2.363 -1.1492 -3.2519s-2.0921 -1.272 -3.2519 -1.1492c-0.7333 -0.9069 -1.855 -1.4868 -3.1121 -1.4868 -1.2571 0 -2.3788 0.5799 -3.1121 1.4868 -1.1598 -0.1228 -2.3629 0.2603 -3.2518 1.1492 -0.889 0.8889 -1.272 2.0921 -1.1493 3.2519C22.5799 29.6642 22 30.7859 22 32.043ZM33.5 32c0 1.3807 -1.1193 2.5 -2.5 2.5s-2.5 -1.1193 -2.5 -2.5 1.1193 -2.5 2.5 -2.5 2.5 1.1193 2.5 2.5Z" clip-rule="evenodd" stroke-width="1"></path>
  </g>
</svg>