<svg xmlns="http://www.w3.org/2000/svg" fill="none" viewBox="0 0 48 48" id="Gold--Streamline-Plump">
  <desc>
    Gold Streamline Icon: https://streamlinehq.com
  </desc>
  <g id="gold--gold-money-payment-bars-finance-wealth-bullion-jewelry">
    <g id="Union">
      <path fill="#000000" d="M23.9994 5.5c-1.6801 0 -3.3427 0.15375 -4.5665 0.30323 -1.7569 0.21462 -3.3016 1.34698 -3.9259 3.08502 -0.6763 1.88305 -1.6132 5.09205 -2.2031 9.62575 -0.3069 2.3592 1.3617 4.5164 3.7773 4.7215 1.618 0.1374 3.9242 0.2645 6.9182 0.2645 2.994 0 5.3001 -0.1271 6.9182 -0.2645 2.4155 -0.2051 4.0842 -2.3623 3.7772 -4.7215 -0.5898 -4.5337 -1.5267 -7.7427 -2.203 -9.62575 -0.6243 -1.73804 -2.169 -2.8704 -3.9259 -3.08502C27.3421 5.65375 25.6795 5.5 23.9994 5.5Z" stroke-width="1"></path>
      <path fill="#000000" d="M12.4994 24.5c-1.6801 0 -3.34267 0.1537 -4.56648 0.3032 -1.75696 0.2146 -3.30161 1.347 -3.92588 3.0851 -0.67636 1.883 -1.61323 5.092 -2.20309 9.6257 -0.30696 2.3592 1.3617 4.5164 3.77721 4.7215 1.61808 0.1374 3.92419 0.2645 6.91824 0.2645 2.994 0 5.3001 -0.1271 6.9182 -0.2645 2.4155 -0.2051 4.0842 -2.3623 3.7772 -4.7215 -0.5898 -4.5337 -1.5267 -7.7427 -2.203 -9.6257 -0.6243 -1.7381 -2.169 -2.8705 -3.9259 -3.0851 -1.2238 -0.1495 -2.8864 -0.3032 -4.5665 -0.3032Z" stroke-width="1"></path>
      <path fill="#000000" d="M35.4994 24.5c-1.6801 0 -3.3427 0.1537 -4.5665 0.3032 -1.7569 0.2146 -3.3016 1.347 -3.9259 3.0851 -0.6763 1.883 -1.6132 5.092 -2.2031 9.6257 -0.3069 2.3592 1.3617 4.5164 3.7773 4.7215 1.618 0.1374 3.9242 0.2645 6.9182 0.2645 2.994 0 5.3001 -0.1271 6.9182 -0.2645 2.4155 -0.2051 4.0842 -2.3623 3.7772 -4.7215 -0.5898 -4.5337 -1.5267 -7.7427 -2.203 -9.6257 -0.6243 -1.7381 -2.169 -2.8705 -3.9259 -3.0851 -1.2238 -0.1495 -2.8864 -0.3032 -4.5665 -0.3032Z" stroke-width="1"></path>
    </g>
  </g>
</svg>