<svg xmlns="http://www.w3.org/2000/svg" fill="none" viewBox="0 0 48 48" id="Shopping-Basket-1--Streamline-Plump">
  <desc>
    Shopping Basket 1 Streamline Icon: https://streamlinehq.com
  </desc>
  <g id="shopping-basket-1--shopping-basket">
    <path id="Union" fill="#000000" fill-rule="evenodd" d="M42.2433 15.6105c-0.3431 -0.0054 -0.7371 -0.0111 -1.1833 -0.0172 -1.5864 -3.9631 -3.4641 -7.43964 -4.6369 -9.47197C35.459 4.45077 33.6806 3.5 31.8136 3.5h-1.4772c-0.41 -1.24726 -1.6242 -1.92143 -2.7677 -1.95493C26.7781 1.52191 25.6058 1.5 24 1.5c-1.6058 0 -2.7781 0.02192 -3.5687 0.04507 -1.1435 0.0335 -2.3577 0.70767 -2.7677 1.95493h-1.4772c-1.867 0 -3.6454 0.95077 -4.6095 2.62133 -1.1728 2.03233 -3.05049 5.50887 -4.63687 9.47197 -0.4462 0.0061 -0.8402 0.0118 -1.18335 0.0172 -1.34396 0.021 -3.48267 0.5638 -4.04588 2.6979C1.58126 18.7992 1.5 19.3626 1.5 20s0.08126 1.2008 0.2108 1.6916c0.5632 2.1341 2.70192 2.6769 4.04588 2.6979C8.46058 24.4318 14.322 24.5 24 24.5s15.5394 -0.0682 18.2433 -0.1105c1.344 -0.021 3.4827 -0.5638 4.0459 -2.6979 0.1295 -0.4908 0.2108 -1.0542 0.2108 -1.6916s-0.0813 -1.2008 -0.2108 -1.6916c-0.5632 -2.1341 -2.7019 -2.6769 -4.0459 -2.6979ZM27.5687 8.45493C26.7781 8.47809 25.6058 8.5 24 8.5c-1.6058 0 -2.7781 -0.02191 -3.5687 -0.04507 -1.1435 -0.0335 -2.3577 -0.70767 -2.7677 -1.95493h-1.4772c-0.8575 0 -1.6134 0.43166 -2.0111 1.12085 -1.0177 1.7634 -2.5732 4.63415 -3.9751 7.93575C13.4261 15.5265 17.973 15.5 24 15.5c6.027 0 10.5739 0.0265 13.7998 0.0566 -1.4019 -3.3016 -2.9574 -6.17235 -3.9751 -7.93575C33.427 6.93166 32.6711 6.5 31.8136 6.5h-1.4772c-0.41 1.24726 -1.6242 1.92143 -2.7677 1.95493ZM5.13086 26.8555c0.01862 0.1446 0.0377 0.2913 0.05725 0.4399 0.48299 3.672 1.25333 8.5582 2.40196 13.3752 0.6789 2.8471 3.04873 4.9551 5.96983 5.2691 2.5553 0.2746 6.2231 0.5599 10.44 0.5599s7.8846 -0.2853 10.4399 -0.5599c2.9212 -0.314 5.291 -2.422 5.9699 -5.2691 1.1486 -4.817 1.9189 -9.7032 2.4019 -13.3752 0.0196 -0.1486 0.0386 -0.2952 0.0573 -0.4398 -0.2146 0.0203 -0.4119 0.0305 -0.5862 0.0332 -2.7182 0.0425 -8.5927 0.1108 -18.2824 0.1108 -9.6897 0 -15.56417 -0.0683 -18.28242 -0.1108 -0.17455 -0.0027 -0.37208 -0.0129 -0.58702 -0.0333Zm10.65724 3.6598c0.8201 -0.1172 1.5799 0.4527 1.697 1.2728l1 7c0.1172 0.8201 -0.4527 1.5799 -1.2728 1.697 -0.8201 0.1172 -1.5799 -0.4527 -1.697 -1.2728l-1 -7c-0.1172 -0.8201 0.4527 -1.5799 1.2728 -1.697Zm14.7268 1.2728c0.1171 -0.8201 0.8769 -1.39 1.697 -1.2728 0.8201 0.1171 1.39 0.8769 1.2728 1.697l-1 7c-0.1171 0.8201 -0.8769 1.39 -1.697 1.2728 -0.8201 -0.1171 -1.39 -0.8769 -1.2728 -1.697l1 -7ZM24 30.5c0.8284 0 1.5 0.6716 1.5 1.5v7c0 0.8284 -0.6716 1.5 -1.5 1.5s-1.5 -0.6716 -1.5 -1.5v-7c0 -0.8284 0.6716 -1.5 1.5 -1.5Z" clip-rule="evenodd" stroke-width="1"></path>
  </g>
</svg>