<svg xmlns="http://www.w3.org/2000/svg" fill="none" viewBox="0 0 48 48" id="Wallet--Streamline-Plump">
  <desc>
    Wallet Streamline Icon: https://streamlinehq.com
  </desc>
  <g id="wallet--money-payment-finance-wallet">
    <path id="Union" fill="#000000" fill-rule="evenodd" d="M27.5596 2.3549c2.6385 -0.64927 5.4929 0.31521 6.9461 2.79827 0.3733 0.6378 0.7823 1.3814 1.2156 2.23739C32.6827 7.18991 28.1758 7 21.9996 7c-3.4833 0 -6.4357 0.06041 -8.8932 0.14908 4.6214 -1.92817 9.651 -3.61247 14.4532 -4.79418ZM8.05744 46.0888C11.0337 46.2947 15.6048 46.5 22 46.5c6.3951 0 10.9663 -0.2053 13.9426 -0.4112 3.2784 -0.2268 5.8645 -2.7169 6.1336 -6.022 0.0514 -0.6314 0.1021 -1.3342 0.1496 -2.1109C41.2973 37.9828 40.2249 38 39 38c-1.6743 0 -3.0636 -0.0321 -4.1898 -0.0773 -3.6392 -0.1459 -6.5774 -2.9324 -6.7428 -6.6666C28.0269 30.3432 28 29.2617 28 28s0.0269 -2.3432 0.0674 -3.2561c0.1654 -3.7342 3.1036 -6.5207 6.7428 -6.6666C35.9364 18.0321 37.3257 18 39 18c1.2249 0 2.2973 0.0172 3.2258 0.0441 -0.0475 -0.7767 -0.0982 -1.4795 -0.1496 -2.1109 -0.2691 -3.3051 -2.8552 -5.7952 -6.1336 -6.022C32.9663 9.70532 28.3952 9.5 22 9.5c-6.3952 0 -10.9663 0.20532 -13.94256 0.4112 -3.27844 0.2268 -5.8645 2.7169 -6.1336 6.022C1.70583 18.6109 1.5 22.5753 1.5 28c0 5.4247 0.20583 9.3891 0.42384 12.0668 0.2691 3.3051 2.85516 5.7952 6.1336 6.022ZM31.0644 31.1233c0.0944 2.1293 1.7363 3.7165 3.866 3.8019C36.0148 34.9686 37.364 35 39 35c1.636 0 2.9852 -0.0314 4.0696 -0.0748 2.1297 -0.0854 3.7716 -1.6726 3.866 -3.8019C46.974 30.2563 47 29.2191 47 28s-0.026 -2.2563 -0.0644 -3.1233c-0.0944 -2.1293 -1.7363 -3.7165 -3.866 -3.8018C41.9852 21.0314 40.636 21 39 21c-1.636 0 -2.9852 0.0314 -4.0696 0.0748 -2.1297 0.0854 -3.7716 1.6726 -3.866 3.8019C31.026 25.7437 31 26.7809 31 28s0.026 2.2563 0.0644 3.1233ZM38 25.5c0.8284 0 1.5 0.6716 1.5 1.5v2c0 0.8284 -0.6716 1.5 -1.5 1.5s-1.5 -0.6716 -1.5 -1.5v-2c0 -0.8284 0.6716 -1.5 1.5 -1.5Z" clip-rule="evenodd" stroke-width="1"></path>
  </g>
</svg>