<svg xmlns="http://www.w3.org/2000/svg" fill="none" viewBox="0 0 14 14" id="Button-Previous--Streamline-Core">
  <desc>
    Button Previous Streamline Icon: https://streamlinehq.com
  </desc>
  <g id="button-previous--button-television-buttons-movies-skip-previous-video-controls">
    <path id="Rectangle 2024" fill="#fddc5c" d="M12.9999 1.99303V12.007c0 0.8073 -0.9215 1.2761 -1.5832 0.8052L4.38139 7.80524c-0.55572 -0.3955 -0.55572 -1.21498 0 -1.61048l7.03531 -5.00697c0.6617 -0.470865 1.5832 -0.00214 1.5832 0.80524Z" stroke-width="1"></path>
    <path id="Union" fill="#0c098c" fill-rule="evenodd" d="M13.6249 1.99299c0 -1.325448 -1.5035 -2.073862 -2.5706 -1.314449L4.019 5.68551c-0.90587 0.64469 -0.90587 1.9842 0 2.6289l7.0353 5.00699c1.0671 0.7594 2.5706 0.011 2.5706 -1.3145V1.99299Zm-1.8458 -0.29603c0.2562 -0.18233 0.5958 0.00672 0.5958 0.29603V12.0069c0 0.2893 -0.3396 0.4784 -0.5958 0.2961L4.74379 7.29599c-0.20559 -0.14632 -0.20559 -0.44575 0 -0.59207l7.03531 -5.00696Zm-9.9041 -0.447c0 -0.483253 -0.39175 -0.875003 -0.875 -0.875003 -0.483249 0 -0.875 0.39175 -0.875 0.875003V12.75c0 0.4832 0.391751 0.875 0.875 0.875 0.48325 0 0.875 -0.3918 0.875 -0.875V1.24996Z" clip-rule="evenodd" stroke-width="1"></path>
  </g>
</svg>