<svg xmlns="http://www.w3.org/2000/svg" fill="none" viewBox="0 0 14 14" id="Button-Fast-Forward-1--Streamline-Core">
  <desc>
    Button Fast Forward 1 Streamline Icon: https://streamlinehq.com
  </desc>
  <g id="button-fast-forward-1--button-controls-fast-forward-movies-television-video-tv">
    <path id="Rectangle 2020" fill="#79ee8d" d="M0.625 2.47824v8.83186c0 0.8783 1.097 1.3099 1.72269 0.6779l4.37155 -4.41597c0.37443 -0.37823 0.37443 -0.97747 0 -1.3557L2.34769 1.8004C1.722 1.16836 0.625 1.60001 0.625 2.47824Z" stroke-width="1"></path>
    <path id="Rectangle 2021" fill="#79ee8d" d="M7 2.47824v8.83186c0 0.8783 1.097 1.3099 1.72269 0.6779l4.37151 -4.41597c0.3745 -0.37823 0.3745 -0.97747 0 -1.3557L8.72269 1.8004C8.097 1.16836 7 1.60001 7 2.47824Z" stroke-width="1"></path>
    <path id="Union" fill="#0c098c" fill-rule="evenodd" d="M1.25 2.47834c0 -0.14964 0.08523 -0.2665 0.23056 -0.32368 0.14644 -0.05762 0.30513 -0.03349 0.42296 0.08554l4.37155 4.41593c0.06503 0.06569 0.09834 0.14857 0.09993 0.23187v0.01255c-0.00159 0.0833 -0.0349 0.16619 -0.09993 0.23187L1.90352 11.5484c-0.11783 0.119 -0.27652 0.1431 -0.42296 0.0855 -0.14533 -0.0572 -0.23056 -0.174 -0.23056 -0.3237V2.47834Zm5.125 6.3299L2.79186 12.4278C1.79702 13.4327 0 12.7802 0 11.3102V2.47834C0 1.00836 1.79702 0.355849 2.79186 1.36079L6.375 4.98031V2.47834c0 -1.46998 1.79702 -2.122491 2.79186 -1.11755l4.37154 4.41593c0.6155 0.62179 0.6155 1.61332 0 2.23511L9.16686 12.4278c-0.99484 1.0049 -2.79186 0.3524 -2.79186 -1.1176V8.80824Zm1.25 -1.90013v4.40209c0 0.1497 0.08523 0.2665 0.23056 0.3237 0.14644 0.0576 0.30513 0.0335 0.42296 -0.0855l4.37158 -4.41598c0.1333 -0.13467 0.1333 -0.34161 0 -0.47629L8.27852 2.2402c-0.11783 -0.11903 -0.27652 -0.14316 -0.42296 -0.08554 -0.14533 0.05718 -0.23056 0.17404 -0.23056 0.32368v4.40211c0.00008 0.00922 0.00008 0.01844 0 0.02766Z" clip-rule="evenodd" stroke-width="1"></path>
  </g>
</svg>