<svg xmlns="http://www.w3.org/2000/svg" fill="none" viewBox="0 0 14 14" id="Chess-Bishop--Streamline-Core">
  <desc>
    Chess Bishop Streamline Icon: https://streamlinehq.com
  </desc>
  <g id="chess-bishop">
    <path id="Union" fill="#79ee8d" fill-rule="evenodd" d="M6.99993 2.85825c-0.6167 0 -1.11663 -0.49993 -1.11663 -1.11662 0 -0.6167 0.49993 -1.11663 1.11663 -1.11663 0.61669 0 1.11655 0.49993 1.11655 1.11663 0 0.61669 -0.49986 1.11662 -1.11655 1.11662ZM9.40585 5.8473c0 0.67446 -0.25416 1.14802 -0.67837 1.45393C9.16964 8.54465 9.8108 10.383 9.83093 10.643H4.16797c0.02013 -0.26 0.66133 -2.09845 1.10349 -3.34187 -0.42413 -0.30591 -0.67823 -0.77944 -0.67823 -1.45383 0 -1.90203 2.40631 -2.9889 2.40631 -2.9889s2.40631 1.08687 2.40631 2.9889Z" clip-rule="evenodd" stroke-width="1"></path>
    <path id="Union_2" fill="#0c098c" fill-rule="evenodd" d="M6.99993 1.25c-0.27152 0 -0.49163 0.22011 -0.49163 0.49163 0 0.27151 0.22011 0.49162 0.49163 0.49162 0.27147 0 0.49156 -0.22006 0.49156 -0.49162 0 -0.27157 -0.22009 -0.49163 -0.49156 -0.49163Zm-1.74163 0.49163C5.2583 0.779752 6.03806 0 6.99993 0c0.96192 0 1.74156 0.779801 1.74156 1.74163 0 0.45058 -0.1711 0.86122 -0.4519 1.17045 0.1036 0.07651 0.21016 0.16006 0.31703 0.25057 0.65205 0.55221 1.42428 1.4581 1.42428 2.68465 0 0.66399 -0.20204 1.21776 -0.57578 1.63595 0.18993 0.53747 0.39904 1.1367 0.57468 1.65814 0.1097 0.32575 0.2077 0.62517 0.2801 0.86181 0.036 0.1178 0.0672 0.2249 0.0906 0.3141 0.0143 0.0547 0.0331 0.1292 0.0447 0.2035h0.7039c0.5842 0 1.1415 0.3483 1.3475 0.9219l0.6178 1.7211c0.0687 0.1915 0.04 0.4044 -0.0771 0.5708 -0.117 0.1664 -0.3077 0.2654 -0.5112 0.2654H1.47364c-0.20343 0 -0.39413 -0.099 -0.51118 -0.2654 -0.117049 -0.1664 -0.145801 -0.3793 -0.07707 -0.5708l0.61784 -1.7211c0.20591 -0.5736 0.7633 -0.9219 1.34741 -0.9219h0.70308c0.01164 -0.0743 0.03039 -0.1488 0.04471 -0.2035 0.02338 -0.0892 0.05455 -0.1963 0.09061 -0.3142 0.07238 -0.23657 0.17039 -0.536 0.28011 -0.86176 0.17563 -0.52148 0.38476 -1.12074 0.57469 -1.65823 -0.37366 -0.41817 -0.57561 -0.9719 -0.57561 -1.63581 0 -1.22655 0.77219 -2.13244 1.42424 -2.68465 0.10702 -0.09064 0.21372 -0.17429 0.31746 -0.25089 -0.28062 -0.30919 -0.45163 -0.71969 -0.45163 -1.17013Zm3.85625 8.62717c0.01722 0.0563 0.03234 0.107 0.04531 0.152H4.83905c0.01297 -0.045 0.02809 -0.0957 0.04532 -0.152 0.06732 -0.2201 0.16102 -0.50672 0.26939 -0.82848 0.2164 -0.64251 0.48585 -1.40906 0.70658 -2.02978 0.09311 -0.26185 0.00214 -0.55373 -0.22326 -0.71631 -0.24461 -0.17643 -0.41885 -0.45193 -0.41885 -0.94693 0 -0.67548 0.43097 -1.26404 0.98207 -1.73077 0.26576 -0.22507 0.53459 -0.39995 0.73821 -0.51875 0.02115 -0.01234 0.04152 -0.02403 0.06103 -0.03506 0.01951 0.01103 0.03988 0.02272 0.06104 0.03506 0.20362 0.1188 0.47244 0.29368 0.7382 0.51875l0.0341 0.02917 -0.89787 0.91601c-0.24162 0.24651 -0.23766 0.64221 0.00884 0.88384 0.24651 0.24162 0.64222 0.23766 0.88384 -0.00884l0.78998 -0.80595c0.10344 0.2256 0.16319 0.46504 0.16319 0.71654 0 0.49504 -0.17428 0.77056 -0.41894 0.947 -0.22544 0.16256 -0.31643 0.45447 -0.22331 0.71634 0.22073 0.62072 0.49017 1.38725 0.70655 2.02973 0.10837 0.32175 0.20207 0.60833 0.26939 0.82843Z" clip-rule="evenodd" stroke-width="1"></path>
  </g>
</svg>