<svg xmlns="http://www.w3.org/2000/svg" fill="none" viewBox="0 0 14 14" id="Cloud-Gaming-1--Streamline-Core">
  <desc>
    Cloud Gaming 1 Streamline Icon: https://streamlinehq.com
  </desc>
  <g id="cloud-gaming-1--entertainment-cloud-gaming">
    <path id="Ellipse 267" fill="#79ee8d" d="M0.625 7.00003c0 2.51874 2.0387 4.56057 4.55357 4.56057h4.55357c2.01186 0 3.64286 -1.63346 3.64286 -3.64845s-1.631 -3.64847 -3.64286 -3.64847c-0.28888 0 -0.5699 0.03368 -0.83937 0.09733 -0.82521 -1.16289 -2.18124 -1.92156 -3.7142 -1.92156C2.6637 2.43945 0.625 4.48129 0.625 7.00003Z" stroke-width="1"></path>
    <path id="Union" fill="#0c098c" fill-rule="evenodd" d="M5.17857 3.06445C3.00979 3.06445 1.25 4.82556 1.25 7.00003s1.75979 3.93557 3.92857 3.93557h4.55357c1.66586 0 3.01786 -1.35274 3.01786 -3.02345 0 -1.67072 -1.352 -3.02347 -3.01786 -3.02347 -0.24015 0 -0.47296 0.02798 -0.6957 0.08059 -0.24768 0.0585 -0.50609 -0.03902 -0.65337 -0.24656 -0.71319 -1.00503 -1.88286 -1.65826 -3.2045 -1.65826ZM0 7.00003c0 -2.86301 2.31762 -5.18558 5.17857 -5.18558 1.5983 0 3.02709 0.72552 3.97612 1.86309 0.18907 -0.02564 0.38185 -0.03886 0.57745 -0.03886C12.0901 3.63868 14 5.55288 14 7.91215c0 2.35925 -1.9099 4.27345 -4.26786 4.27345H5.17857C2.31762 12.1856 0 9.86304 0 7.00003Zm4.62535 -1.60745c0.41421 0 0.75 0.33578 0.75 0.75v0.61607h0.61607c0.41421 0 0.75 0.33579 0.75 0.75s-0.33579 0.75 -0.75 0.75h-0.61607v0.61607c0 0.41421 -0.33579 0.75 -0.75 0.75 -0.41422 0 -0.75 -0.33579 -0.75 -0.75v-0.61607h-0.61607c-0.41422 0 -0.75 -0.33579 -0.75 -0.75s0.33578 -0.75 0.75 -0.75h0.61607v-0.61607c0 -0.41422 0.33578 -0.75 0.75 -0.75Zm4.78969 1.04935c0 0.40379 0.32012 0.73281 0.72046 0.74711 0.009 0.00039 0.018 0.00058 0.0271 0.00058 0.4129 0 0.7476 -0.33471 0.7476 -0.74759 0 -0.40379 -0.3201 -0.73281 -0.7204 -0.74712 -0.009 -0.00038 -0.0181 -0.00057 -0.0272 -0.00057 -0.41285 0 -0.74756 0.33471 -0.74756 0.74759Zm-0.57028 0.52389c0.00768 0 0.01532 0.00014 0.02293 0.00041 0.40224 0.01216 0.7246 0.34206 0.7246 0.74725 0 0.41289 -0.33471 0.7476 -0.7476 0.7476 -0.00767 0 -0.01532 -0.00014 -0.02292 -0.00041 -0.40225 -0.01216 -0.7246 -0.34206 -0.7246 -0.74725 0 -0.41289 0.33471 -0.7476 0.74759 -0.7476Zm1.83984 0.7476c0 0.40529 0.3225 0.73525 0.7249 0.74725 0.0075 0.00027 0.015 0.00041 0.0226 0.00041 0.4129 0 0.7476 -0.33471 0.7476 -0.7476 0 -0.40529 -0.3225 -0.73525 -0.7249 -0.74726 -0.0075 -0.00026 -0.015 -0.0004 -0.0226 -0.0004 -0.4129 0 -0.7476 0.33471 -0.7476 0.7476Zm-0.522 2.06351c0.0096 0 0.0191 -0.00021 0.0285 -0.00064 0.3997 -0.01499 0.7191 -0.34372 0.7191 -0.74706 0 -0.41289 -0.3347 -0.7476 -0.7476 -0.7476 -0.0095 0 -0.019 0.00022 -0.0285 0.00064 -0.39966 0.01499 -0.71906 0.34373 -0.71906 0.74706 0 0.41289 0.33471 0.7476 0.74756 0.7476Z" clip-rule="evenodd" stroke-width="1"></path>
  </g>
</svg>