<svg xmlns="http://www.w3.org/2000/svg" fill="none" viewBox="0 0 14 14" id="Music-Note-2--Streamline-Core">
  <desc>
    Music Note 2 Streamline Icon: https://streamlinehq.com
  </desc>
  <g id="music-note-2--music-audio-note-entertainment">
    <path id="Union" fill="#79ee8d" fill-rule="evenodd" d="M13 3.76929V1.46584c-0.0004 -0.07168 -0.017 -0.14231 -0.0485 -0.20646 -0.0315 -0.06415 -0.0771 -0.1201 -0.1333 -0.16355 -0.0562 -0.04344 -0.1214 -0.07322 -0.1907 -0.08704 -0.0693 -0.013821 -0.1408 -0.011316 -0.209 0.00732L5.03386 3.09612c-0.09759 0.02667 -0.18385 0.08511 -0.24555 0.16636 -0.0617 0.08124 -0.09542 0.18079 -0.09599 0.28337v2.53113L13 3.76929ZM2.97232 12.7476c0.94993 0 1.72 -0.7701 1.72 -1.72s-0.77007 -1.71998 -1.72 -1.71998c-0.94993 0 -1.72 0.77008 -1.72 1.71998 0 0.9499 0.77007 1.72 1.72 1.72ZM13 8.68655c0 0.94993 -0.7701 1.72005 -1.72 1.72005s-1.72 -0.77012 -1.72 -1.72005 0.7701 -1.72 1.72 -1.72 1.72 0.77007 1.72 1.72Z" clip-rule="evenodd" stroke-width="1"></path>
    <path id="Union_2" fill="#0c098c" fill-rule="evenodd" d="M12.2537 0.413227c0.1617 -0.044209 0.3315 -0.050174 0.496 -0.017366 0.1645 0.032805 0.3187 0.103362 0.4508 0.205568 0.1322 0.102174 0.2386 0.23314 0.3119 0.38231 0.0733 0.149131 0.1117 0.312861 0.1126 0.478651l0 0.00345 0 2.29007c0.0002 0.00917 0.0002 0.01832 0 0.02744l0 4.90311 0 0.00527c-0.0028 1.29273 -1.0516 2.33987 -2.345 2.33987 -1.29511 0 -2.345 -1.04994 -2.345 -2.34505 0 -1.2951 1.04989 -2.345 2.345 -2.345 0.3955 0 0.7682 0.09792 1.095 0.27084V4.59156L5.31732 6.55203v4.47677l0 0.002c-0.00173 1.2937 -1.05096 2.3418 -2.345 2.3418 -1.29511 0 -2.345001 -1.0499 -2.345001 -2.345 0 -1.29509 1.049891 -2.34498 2.345001 -2.34498 0.39551 0 0.76815 0.09791 1.095 0.27082V6.09065c-0.00021 -0.00937 -0.00021 -0.01872 0 -0.02803V3.5424h0.00001c0.00131 -0.23711 0.07921 -0.46826 0.22324 -0.65792 0.14356 -0.18904 0.34536 -0.32685 0.57569 -0.39047L12.249 0.414522l0.0047 -0.001313 0 0.000018ZM5.31732 5.2547 12.375 3.29423V1.67767L5.31732 3.6656v1.5891ZM10.185 8.68655c0 -0.60475 0.4902 -1.095 1.095 -1.095 0.6047 0 1.095 0.49025 1.095 1.095 0 0.60475 -0.4903 1.095 -1.095 1.095 -0.6048 0 -1.095 -0.49025 -1.095 -1.095ZM1.87732 11.0276c0 -0.6047 0.49025 -1.09498 1.095 -1.09498 0.60475 0 1.095 0.49028 1.095 1.09498 0 0.6048 -0.49025 1.095 -1.095 1.095 -0.60475 0 -1.095 -0.4902 -1.095 -1.095Z" clip-rule="evenodd" stroke-width="1"></path>
  </g>
</svg>