<svg xmlns="http://www.w3.org/2000/svg" fill="none" viewBox="0 0 14 14" id="Music-Note-1--Streamline-Core">
  <desc>
    Music Note 1 Streamline Icon: https://streamlinehq.com
  </desc>
  <g id="music-note-1--music-audio-note-entertainment">
    <path id="Vector" fill="#7af1ff" d="M4.18462 13.1212c1.28406 0 2.325 -1.0409 2.325 -2.325 0 -1.28407 -1.04094 -2.32501 -2.325 -2.32501 -1.28406 0 -2.325 1.04094 -2.325 2.32501 0 1.2841 1.04094 2.325 2.325 2.325Z" stroke-width="1"></path>
    <path id="Union" fill="#0c098c" fill-rule="evenodd" d="M6.50964 0c-0.34517 0 -0.625 0.279822 -0.625 0.625v7.76c-0.48051 -0.33941 -1.06698 -0.53881 -1.70002 -0.53881 -1.62924 0 -2.95 1.32076 -2.95 2.95001 0 1.6292 1.32076 2.95 2.95 2.95 1.62632 0 2.94526 -1.316 2.94999 -2.9412 0.00002 -0.0023 0.00003 -0.0046 0.00003 -0.0069V1.28382c0.48265 0.05243 0.95557 0.16541 1.40509 0.33609 0.64219 0.24384 1.22236 0.59999 1.70867 1.04574 0.4861 0.44566 0.8686 0.97174 1.1284 1.54666 0.2597 0.57473 0.3925 1.18855 0.3925 1.80692 0 0.34518 0.2798 0.625 0.625 0.625 0.3451 0 0.625 -0.27982 0.625 -0.625 0 -0.79839 -0.1717 -1.58746 -0.5034 -2.32165 -0.3317 -0.734 -0.8162 -1.39722 -1.4229 -1.95337 -0.6066 -0.55605 -1.32383 -0.994562 -2.10956 -1.292897C8.19776 0.152992 7.35731 0 6.50964 0ZM2.48462 10.7962c0 -0.93889 0.76112 -1.70001 1.7 -1.70001 0.93888 0 1.7 0.76112 1.7 1.70001 0 0.9389 -0.76112 1.7 -1.7 1.7 -0.93888 0 -1.7 -0.7611 -1.7 -1.7Z" clip-rule="evenodd" stroke-width="1"></path>
  </g>
</svg>