<svg xmlns="http://www.w3.org/2000/svg" fill="none" viewBox="0 0 14 14" id="Volume-Down--Streamline-Core">
  <desc>
    Volume Down Streamline Icon: https://streamlinehq.com
  </desc>
  <g id="volume-down--speaker-down-volume-control-audio-music-decrease-entertainment">
    <path id="Vector" fill="#fddc5c" d="M3.07692 5.03276H1.60577c-0.53419 0 -0.98077 0.44794 -0.98077 0.98375v1.9675c0 0.53582 0.44658 0.98375 0.98077 0.98375h1.47115L6.42135 12.224c0.63288 0.4392 1.5423 -0.0233 1.55942 -0.7969V2.57337c0.01838 -0.77406 -0.8365 -1.23729 -1.47115 -0.79684l-3.4327 3.25623Z" stroke-width="1"></path>
    <path id="Union" fill="#0c098c" fill-rule="evenodd" d="M6.15327 1.26319c1.05626 -0.733052 2.47661 0.0413 2.4525 1.31689v8.86102l-0.00015 0C8.5775 12.7115 7.1082 13.4615 6.065 12.7375c-0.02832 -0.0196 -0.05496 -0.0416 -0.07965 -0.0656L2.82292 9.59288H1.60577C0.724612 9.59288 0 8.86334 0 7.98413v-1.9675c0 -0.8792 0.724612 -1.60875 1.60577 -1.60875h1.22187l3.25184 -3.08467c0.02304 -0.02185 0.0477 -0.04191 0.07379 -0.06002Zm1.20268 1.29546c0.00605 -0.25498 -0.25291 -0.40066 -0.45969 -0.2873l-3.3892 3.21497c-0.11613 0.11016 -0.27008 0.17156 -0.43014 0.17156H1.60577c-0.18723 0 -0.35577 0.16632 -0.35577 0.35875v1.9675c0 0.19243 0.16854 0.35875 0.35577 0.35875h1.47115c0.16287 0 0.3193 0.06358 0.436 0.17719l3.2976 3.21063c0.09811 0.0523 0.21972 0.0531 0.33746 -0.007 0.12923 -0.0659 0.20311 -0.1793 0.20779 -0.3051V2.57349l0.00018 -0.01484ZM9.8208 6.25012c-0.41421 0 -0.75 0.33579 -0.75 0.75s0.33579 0.75 0.75 0.75h3.4327c0.4142 0 0.75 -0.33579 0.75 -0.75s-0.3358 -0.75 -0.75 -0.75H9.8208Z" clip-rule="evenodd" stroke-width="1"></path>
  </g>
</svg>