<svg xmlns="http://www.w3.org/2000/svg" fill="none" viewBox="0 0 14 14" id="Volume-Level-High--Streamline-Core">
  <desc>
    Volume Level High Streamline Icon: https://streamlinehq.com
  </desc>
  <g id="volume-level-high--speaker-high-volume-control-audio-music-entertainment">
    <path id="Vector" fill="#ff7972" d="M3.07692 5.03276H1.60577c-0.53419 0 -0.98077 0.44794 -0.98077 0.98375v1.9675c0 0.53582 0.44658 0.98375 0.98077 0.98375h1.47115L6.42135 12.224c0.63288 0.4392 1.5423 -0.0233 1.55942 -0.7969V2.57337c0.01838 -0.77406 -0.8365 -1.23729 -1.47115 -0.79684l-3.4327 3.25623Z" stroke-width="1"></path>
    <path id="Union" fill="#0c098c" fill-rule="evenodd" d="M6.15548 1.2613c1.0565 -0.733217 2.47717 0.04131 2.45305 1.31719v8.86431l-0.00015 0c-0.02813 1.2707 -1.49777 2.0209 -2.5412 1.2968 -0.02832 -0.0197 -0.05496 -0.0416 -0.07965 -0.0657L2.82384 9.59369h-1.2177C0.72478 9.59369 0 8.86398 0 7.98457V6.01634c0 -0.87941 0.72478 -1.60912 1.60614 -1.60912h1.22243l3.25312 -3.0859c0.02304 -0.02185 0.04771 -0.04191 0.07379 -0.06002Zm1.20323 1.29576c0.00606 -0.25527 -0.25322 -0.40112 -0.46023 -0.28761l-3.3905 3.21621c-0.11612 0.11015 -0.27008 0.17156 -0.43014 0.17156h-1.4717c-0.18743 0 -0.35614 0.16649 -0.35614 0.35912v1.96823c0 0.19263 0.16871 0.35912 0.35614 0.35912h1.4717c0.16287 0 0.31931 0.06358 0.436 0.17719L6.8127 11.7327c0.09823 0.0525 0.21998 0.0532 0.33783 -0.0069 0.12935 -0.066 0.20332 -0.1795 0.208 -0.3055V2.5719l0.00018 -0.01484Zm4.52069 0.36741c0.3543 -0.21453 0.8154 -0.10121 1.03 0.25311 0.697 1.1511 1.0731 2.46776 1.0895 3.81332v0.01824c-0.0164 1.34556 -0.3925 2.66222 -1.0895 3.81336 -0.2146 0.3543 -0.6757 0.4676 -1.03 0.2531 -0.3544 -0.2146 -0.4677 -0.6757 -0.2531 -1.0301 0.5567 -0.91944 0.8579 -1.9708 0.8726 -3.04548 -0.0147 -1.07469 -0.3159 -2.12604 -0.8726 -3.04553 -0.2146 -0.35432 -0.1013 -0.81548 0.2531 -1.03002ZM9.83228 4.95052c0.31922 -0.26401 0.79192 -0.21928 1.05592 0.09989 0.4526 0.54712 0.6883 1.24097 0.6633 1.94974 0.025 0.70876 -0.2107 1.40261 -0.6633 1.94973 -0.264 0.31918 -0.7367 0.3639 -1.05592 0.09989 -0.31918 -0.26401 -0.3639 -0.73677 -0.0999 -1.05594 0.22204 -0.26843 0.33592 -0.61005 0.31932 -0.95801 -0.0011 -0.02377 -0.0011 -0.04758 0 -0.07134 0.0166 -0.34796 -0.09728 -0.68959 -0.31932 -0.95801 -0.264 -0.31918 -0.21928 -0.79194 0.0999 -1.05595Z" clip-rule="evenodd" stroke-width="1"></path>
  </g>
</svg>