<svg xmlns="http://www.w3.org/2000/svg" viewBox="0 0 14 14">
  <g>
    <path d="M2.7,2A2.19,2.19,0,0,0,.5,4.2V10a2,2,0,0,0,2,2,1.6,1.6,0,0,0,1.59-1.5A1.61,1.61,0,0,1,5.69,9H8.31a1.61,1.61,0,0,1,1.6,1.5A1.6,1.6,0,0,0,11.5,12a2,2,0,0,0,2-2V4.2A2.19,2.19,0,0,0,11.3,2Z" style="fill: none;stroke: #000001;stroke-linecap: round;stroke-linejoin: round"/>
    <line x1="2.5" y1="5.5" x2="5" y2="5.5" style="fill: none;stroke: #000001;stroke-linecap: round;stroke-linejoin: round"/>
    <line x1="3.75" y1="4.25" x2="3.75" y2="6.75" style="fill: none;stroke: #000001;stroke-linecap: round;stroke-linejoin: round"/>
    <circle cx="10" cy="5.5" r="0.5" style="fill: none;stroke: #000001;stroke-linecap: round;stroke-linejoin: round"/>
  </g>
</svg>
