<svg xmlns="http://www.w3.org/2000/svg" fill="none" viewBox="0 0 24 24" id="Rain-Umbrella-Sun--Streamline-Ultimate">
  <desc>
    Rain Umbrella Sun Streamline Icon: https://streamlinehq.com
  </desc>
  <path stroke="#000000" stroke-linejoin="round" d="M8.26041 17.1813c0.45368 -1.8198 3.62849 -1.8198 4.08319 0 0.014 -1.8338 3.4146 -1.8198 3.3976 0 0.0838 -1.0367 -0.0469 -2.0795 -0.384 -3.0634 -0.3371 -0.9839 -0.8734 -1.8878 -1.5753 -2.6553 -0.7019 -0.7674 -1.5545 -1.382 -2.5045 -1.80538 -0.9499 -0.42337 -1.97698 -0.64643 -3.01699 -0.65527 -1.04044 0.00816 -2.06802 0.23072 -3.01859 0.65378 -0.95058 0.42307 -1.80373 1.03757 -2.50619 1.80507 -0.70246 0.7676 -1.23915 1.6717 -1.57656 2.6559 -0.337406 0.9843 -0.468285 2.0275 -0.384467 3.0646 -0.011991 -1.8198 3.388647 -1.8338 3.403637 0 0.45369 -1.8198 3.63248 -1.8198 4.08217 0Z" stroke-width="1.5"></path>
  <path stroke="#000000" stroke-linecap="round" stroke-linejoin="round" d="M8.26044 9.01788V7.50293" stroke-width="1.5"></path>
  <path stroke="#000000" stroke-linecap="round" stroke-linejoin="round" d="M12.5695 6.55391c0.1701 -0.70525 0.5268 -1.35179 1.0325 -1.87195 0.5057 -0.52015 1.142 -0.89481 1.8422 -1.08474 0.7001 -0.18994 1.4385 -0.18817 2.1378 0.00511 0.6992 0.19328 1.3337 0.57098 1.8369 1.09355 0.5033 0.52257 0.8568 1.1708 1.0236 1.87686 0.1668 0.70605 0.1407 1.44396 -0.0754 2.13649 -0.2162 0.69253 -0.6146 1.31417 -1.1534 1.79997 -0.5389 0.4858 -1.1984 0.8178 -1.9095 0.9613" stroke-width="1.5"></path>
  <path stroke="#000000" stroke-linecap="round" stroke-linejoin="round" d="M16.5047 3.45594V0.757812" stroke-width="1.5"></path>
  <path stroke="#000000" stroke-linecap="round" stroke-linejoin="round" d="M13.6427 4.64107 11.735 2.7334" stroke-width="1.5"></path>
  <path stroke="#000000" stroke-linecap="round" stroke-linejoin="round" d="M20.5519 7.50293H23.25" stroke-width="1.5"></path>
  <path stroke="#000000" stroke-linecap="round" stroke-linejoin="round" d="m19.3667 4.64107 1.9077 -1.90767" stroke-width="1.5"></path>
  <path stroke="#000000" stroke-linecap="round" stroke-linejoin="round" d="m19.3667 10.3647 1.9077 1.9077" stroke-width="1.5"></path>
  <path stroke="#000000" stroke-linecap="round" stroke-linejoin="round" d="M8.26044 17.1816v4.5619c0 0.3975 0.15792 0.7788 0.43903 1.0599 0.28111 0.2811 0.66238 0.439 1.05993 0.439 0.3975 0 0.7788 -0.1579 1.0599 -0.439s0.4391 -0.6624 0.4391 -1.0599" stroke-width="1.5"></path>
</svg>