<svg xmlns="http://www.w3.org/2000/svg" fill="none" viewBox="0 0 24 24" id="Temperature-Thermometer-Medium--Streamline-Ultimate">
  <desc>
    Temperature Thermometer Medium Streamline Icon: https://streamlinehq.com
  </desc>
  <path stroke="#000000" stroke-linecap="round" stroke-linejoin="round" d="M11.2492 15.4036V3.74706c0 -0.79487 -0.3157 -1.55719 -0.8778 -2.11924C9.80936 1.06576 9.04705 0.75 8.25218 0.75s-1.55718 0.31576 -2.11924 0.87782c-0.56206 0.56205 -0.87782 1.32437 -0.87782 2.11924V15.4036c-0.67862 0.607 -1.15695 1.4057 -1.37169 2.2905 -0.21475 0.8848 -0.15578 1.8139 0.1691 2.6644 0.32487 0.8506 0.90034 1.5824 1.65025 2.0987 0.74992 0.5164 1.63893 0.7928 2.5494 0.7928 0.91047 0 1.79952 -0.2764 2.54942 -0.7928 0.7499 -0.5163 1.3254 -1.2481 1.6502 -2.0987 0.3249 -0.8505 0.3839 -1.7796 0.1691 -2.6644 -0.2147 -0.8848 -0.693 -1.6835 -1.3717 -2.2905Z" stroke-width="1.5"></path>
  <path stroke="#000000" stroke-linecap="round" stroke-linejoin="round" d="M8.25516 10.4902v6.7434" stroke-width="1.5"></path>
  <path stroke="#000000" stroke-linecap="round" stroke-linejoin="round" d="M6.75662 18.7324c0 0.3974 0.15788 0.7786 0.43891 1.0596 0.28103 0.2811 0.66219 0.4389 1.05962 0.4389 0.39743 0 0.77859 -0.1578 1.05962 -0.4389 0.28103 -0.281 0.43891 -0.6622 0.43891 -1.0596 0 -0.3974 -0.15788 -0.7786 -0.43891 -1.0596 -0.28103 -0.281 -0.66219 -0.4389 -1.05962 -0.4389 -0.39743 0 -0.77859 0.1579 -1.05962 0.4389s-0.43891 0.6622 -0.43891 1.0596Z" stroke-width="1.5"></path>
  <path stroke="#000000" stroke-linecap="round" stroke-linejoin="round" d="M14.9985 3.74707h5.2449" stroke-width="1.5"></path>
  <path stroke="#000000" stroke-linecap="round" stroke-linejoin="round" d="M14.9985 8.24268h2.2478" stroke-width="1.5"></path>
  <path stroke="#000000" stroke-linecap="round" stroke-linejoin="round" d="M14.9985 12.7383h5.2449" stroke-width="1.5"></path>
</svg>