<svg xmlns="http://www.w3.org/2000/svg" fill="none" viewBox="0 0 24 24" id="Weather-Sun--Streamline-Ultimate">
  <desc>
    Weather Sun Streamline Icon: https://streamlinehq.com
  </desc>
  <path stroke="#000000" stroke-linecap="round" stroke-linejoin="round" d="M5.25 12c0 1.7902 0.71116 3.5071 1.97703 4.773C8.4929 18.0388 10.2098 18.75 12 18.75s3.5071 -0.7112 4.773 -1.977c1.2658 -1.2659 1.977 -2.9828 1.977 -4.773 0 -1.7902 -0.7112 -3.5071 -1.977 -4.77297C15.5071 5.96116 13.7902 5.25 12 5.25c-1.7902 0 -3.5071 0.71116 -4.77297 1.97703S5.25 10.2098 5.25 12Z" stroke-width="1.5"></path>
  <path stroke="#000000" stroke-linecap="round" stroke-linejoin="round" d="M12 2.25V0.75" stroke-width="1.5"></path>
  <path stroke="#000000" stroke-linecap="round" stroke-linejoin="round" d="m18.894 5.10592 1.061 -1.061" stroke-width="1.5"></path>
  <path stroke="#000000" stroke-linecap="round" stroke-linejoin="round" d="M21.75 12h1.5" stroke-width="1.5"></path>
  <path stroke="#000000" stroke-linecap="round" stroke-linejoin="round" d="m18.894 18.894 1.061 1.061" stroke-width="1.5"></path>
  <path stroke="#000000" stroke-linecap="round" stroke-linejoin="round" d="M12 21.75v1.5" stroke-width="1.5"></path>
  <path stroke="#000000" stroke-linecap="round" stroke-linejoin="round" d="m5.10598 18.894 -1.061 1.061" stroke-width="1.5"></path>
  <path stroke="#000000" stroke-linecap="round" stroke-linejoin="round" d="M2.25 12H0.75" stroke-width="1.5"></path>
  <path stroke="#000000" stroke-linecap="round" stroke-linejoin="round" d="m5.10598 5.10592 -1.061 -1.061" stroke-width="1.5"></path>
</svg>