<svg xmlns="http://www.w3.org/2000/svg" viewBox="0 0 14 14">
  <path d="M13,6.5A1.5,1.5,0,0,0,11.5,5H10a.5.5,0,0,1-.5-.5v-2a2.5,2.5,0,0,0-5,0v2A.5.5,0,0,1,4,5H2.5A1.5,1.5,0,0,0,1,6.5V8.25a.5.5,0,0,0,.5.5.2.2,0,0,1,.15.06A.17.17,0,0,1,1.7,9l-.2,4.25a.77.77,0,0,0,.21.56.73.73,0,0,0,.54.23h9.5a.73.73,0,0,0,.54-.23.77.77,0,0,0,.21-.56L12.3,9a.17.17,0,0,1,0-.15.2.2,0,0,1,.15-.06.5.5,0,0,0,.5-.5ZM11,12.24a.24.24,0,0,1-.07.18.25.25,0,0,1-.18.08H9.25A.25.25,0,0,1,9,12.25v-1a.75.75,0,0,0-1.5,0v1a.25.25,0,0,1-.25.25H3.3a.25.25,0,0,1-.18-.08.24.24,0,0,1-.07-.18L3.2,9a.25.25,0,0,1,.25-.24h7.1A.25.25,0,0,1,10.8,9Z" style="fill: #000001"/>
</svg>
