<svg xmlns="http://www.w3.org/2000/svg" viewBox="0 0 14 14">
  <g>
    <path d="M11.29,3.2A.747.747,0,0,1,10.775,3,5.5,5.5,0,0,0,9.75,2.237a5.6,5.6,0,0,0-.762-.365.75.75,0,0,1,.543-1.4A7.047,7.047,0,0,1,10.5.938a6.96,6.96,0,0,1,1.306.97.75.75,0,0,1-.515,1.3Z" style="fill: #000001"/>
    <path d="M9.26,13.578a.751.751,0,0,1-.272-1.45,5.669,5.669,0,0,0,.763-.365A5.527,5.527,0,0,0,10.775,11a.75.75,0,1,1,1.03,1.091,6.986,6.986,0,0,1-1.3.97,7.115,7.115,0,0,1-.969.465A.735.735,0,0,1,9.26,13.578Z" style="fill: #000001"/>
    <path d="M13.083,9.192a.748.748,0,0,1-.73-.922,5.56,5.56,0,0,0,0-2.54.75.75,0,1,1,1.459-.345,7.031,7.031,0,0,1,0,3.23A.75.75,0,0,1,13.083,9.192Z" style="fill: #000001"/>
    <path d="M6.5,13.98l-.06,0A7,7,0,0,1,6.44.022.75.75,0,0,1,7.25.77V13.23a.75.75,0,0,1-.75.75ZM5.75,1.969a.249.249,0,0,0-.322-.239,5.5,5.5,0,0,0,0,10.54.249.249,0,0,0,.322-.239Z" style="fill: #000001"/>
  </g>
</svg>
