<svg xmlns="http://www.w3.org/2000/svg" viewBox="0 0 14 14">
  <g>
    <path d="M13.25,6a.76.76,0,0,1-.75-.75A.25.25,0,0,0,12.25,5a.75.75,0,0,1,0-1.5A1.76,1.76,0,0,1,14,5.25.76.76,0,0,1,13.25,6Z" style="fill: #000001"/>
    <path d="M12.25,14a.75.75,0,0,1,0-1.5.25.25,0,0,0,.25-.25.75.75,0,0,1,1.5,0A1.76,1.76,0,0,1,12.25,14Z" style="fill: #000001"/>
    <path d="M5.25,14A1.76,1.76,0,0,1,3.5,12.25a.75.75,0,0,1,1.5,0,.25.25,0,0,0,.25.25.75.75,0,0,1,0,1.5Z" style="fill: #000001"/>
    <path d="M9.5,14H8a.75.75,0,0,1,0-1.5H9.5a.75.75,0,0,1,0,1.5Z" style="fill: #000001"/>
    <path d="M13.25,10.25a.76.76,0,0,1-.75-.75V8A.75.75,0,0,1,14,8V9.5A.76.76,0,0,1,13.25,10.25Z" style="fill: #000001"/>
    <path d="M8.25,10H1.75A1.76,1.76,0,0,1,0,8.25V1.75A1.76,1.76,0,0,1,1.75,0h6.5A1.76,1.76,0,0,1,10,1.75v6.5A1.76,1.76,0,0,1,8.25,10ZM1.75,1.5a.25.25,0,0,0-.25.25v6.5a.25.25,0,0,0,.25.25h6.5a.25.25,0,0,0,.25-.25V1.75a.25.25,0,0,0-.25-.25Z" style="fill: #000001"/>
  </g>
</svg>
