<svg xmlns="http://www.w3.org/2000/svg" viewBox="0 0 14 14">
  <g>
    <path d="M8.443,1.667a.735.735,0,0,1-.173-.02,5.587,5.587,0,0,0-2.54,0A.75.75,0,0,1,5.385.188a7.049,7.049,0,0,1,3.23,0,.75.75,0,0,1-.172,1.479Z" style="fill: #000001"/>
    <path d="M1.012,5.958A.734.734,0,0,1,.8,5.926a.75.75,0,0,1-.5-.934,7.062,7.062,0,0,1,1.615-2.8A.75.75,0,1,1,3,3.224a5.529,5.529,0,0,0-1.27,2.2A.749.749,0,0,1,1.012,5.958Z" style="fill: #000001"/>
    <path d="M2.454,12.04a.748.748,0,0,1-.546-.236,7.036,7.036,0,0,1-1.615-2.8A.75.75,0,0,1,1.73,8.576,5.516,5.516,0,0,0,3,10.776a.749.749,0,0,1-.546,1.264Z" style="fill: #000001"/>
    <path d="M7,14a7,7,0,0,1-1.615-.188.75.75,0,0,1,.345-1.459,5.587,5.587,0,0,0,2.54,0,.75.75,0,0,1,.345,1.459A7,7,0,0,1,7,14Z" style="fill: #000001"/>
    <path d="M11.546,12.041A.75.75,0,0,1,11,10.776a5.529,5.529,0,0,0,1.27-2.2.75.75,0,0,1,1.437.432,7.062,7.062,0,0,1-1.615,2.8A.752.752,0,0,1,11.546,12.041Z" style="fill: #000001"/>
    <path d="M12.988,5.958a.749.749,0,0,1-.718-.534A5.516,5.516,0,0,0,11,3.224.75.75,0,1,1,12.092,2.2a7.036,7.036,0,0,1,1.615,2.8.75.75,0,0,1-.5.934A.734.734,0,0,1,12.988,5.958Z" style="fill: #000001"/>
  </g>
</svg>
