<svg xmlns="http://www.w3.org/2000/svg" viewBox="0 0 14 14">
  <g>
    <path d="M7,4.5a1,1,0,0,1-.7-.278L3.232,1.293A.75.75,0,1,1,4.268.207L6.827,2.648a.251.251,0,0,0,.346,0L9.732.207a.75.75,0,1,1,1.036,1.086L7.694,4.223A1,1,0,0,1,7,4.5Z" style="fill: #000001"/>
    <path d="M10.25,14a.75.75,0,0,1-.518-.207L7.173,11.352a.251.251,0,0,0-.346,0L4.268,13.793a.75.75,0,0,1-1.036-1.086l3.074-2.93a1,1,0,0,1,1.389,0l3.073,2.93A.75.75,0,0,1,10.25,14Z" style="fill: #000001"/>
    <path d="M13.25,7.75h-2a.75.75,0,0,1,0-1.5h2a.75.75,0,0,1,0,1.5Z" style="fill: #000001"/>
    <path d="M8,7.75H6a.75.75,0,0,1,0-1.5H8a.75.75,0,0,1,0,1.5Z" style="fill: #000001"/>
    <path d="M2.75,7.75h-2a.75.75,0,0,1,0-1.5h2a.75.75,0,0,1,0,1.5Z" style="fill: #000001"/>
  </g>
</svg>
