<svg xmlns="http://www.w3.org/2000/svg" fill="none" viewBox="0 0 48 48" id="Parachute-Drop--Streamline-Plump">
  <desc>
    Parachute Drop Streamline Icon: https://streamlinehq.com
  </desc>
  <g id="parachute-drop--package-box-fulfillment-cart-warehouse-shipping-delivery-drop-parachute">
    <path id="Rectangle 1096" fill="#fddc5c" d="M11.4689 41.6463c0.1549 2.0671 1.783 3.5848 3.853 3.6953 1.9673 0.1051 4.8223 0.2014 8.6788 0.2014 3.8564 0 6.7114 -0.0963 8.6787 -0.2014 2.07 -0.1105 3.6981 -1.6282 3.853 -3.6953 0.1092 -1.4564 0.1974 -3.4042 0.1974 -5.895 0 -2.4908 -0.0882 -4.4386 -0.1974 -5.895 -0.1549 -2.0671 -1.783 -3.5848 -3.853 -3.6953 -1.9673 -0.1051 -4.8223 -0.2014 -8.6787 -0.2014 -3.8565 0 -6.7115 0.0963 -8.6788 0.2014 -2.07 0.1105 -3.6981 1.6282 -3.853 3.6953 -0.1092 1.4564 -0.1974 3.4042 -0.1974 5.895 0 2.4908 0.0882 4.4386 0.1974 5.895Z" stroke-width="1"></path>
    <path id="Union" fill="#0c098c" fill-rule="evenodd" d="M1.4388 17.1458C1.4388 9.88813 9.48874 0.458334 24.0013 0.458334c14.4717 0 22.5171 9.376766 22.5623 16.626166 0.0182 0.5937 -0.2271 1.1894 -0.7187 1.5991 -2.7808 2.3173 -7.194 4.3417 -11.1708 5.8731 2.1137 0.7973 3.67 2.7108 3.8527 5.1488 0.1131 1.5088 0.203 3.5065 0.203 6.0445 0 2.538 -0.0899 4.5357 -0.203 6.0445 -0.2339 3.1204 -2.7177 5.3815 -5.7407 5.543 -2.0052 0.107 -4.8958 0.2042 -8.7855 0.2042 -3.8896 0 -6.7802 -0.0972 -8.7854 -0.2042 -3.023 -0.1615 -5.50684 -2.4226 -5.74071 -5.543 -0.11308 -1.5088 -0.20301 -3.5065 -0.20301 -6.0445 0 -2.538 0.08993 -4.5357 0.20301 -6.0445 0.18277 -2.4385 1.73961 -4.3523 3.85411 -5.1493 -3.97645 -1.5314 -8.38898 -3.5556 -11.16947 -5.8726 -0.47472 -0.3956 -0.71974 -0.9646 -0.71968 -1.5378H1.4388Zm22.4779 10.8125c-3.7806 0.0014 -6.5728 0.0963 -8.4881 0.1985 -1.117 0.0597 -1.8893 0.8339 -1.9653 1.8477 -0.1052 1.4041 -0.1918 3.3018 -0.1918 5.7455 0 2.4437 0.0866 4.3414 0.1918 5.7455 0.076 1.0138 0.8483 1.788 1.9653 1.8477 1.9295 0.103 4.7488 0.1985 8.572 0.1985 3.8233 0 6.6426 -0.0955 8.5721 -0.1985 1.1169 -0.0597 1.8893 -0.8339 1.9653 -1.8477 0.1052 -1.4041 0.1918 -3.3018 0.1918 -5.7455 0 -2.4437 -0.0866 -4.3414 -0.1918 -5.7455 -0.076 -1.0138 -0.8483 -1.788 -1.9653 -1.8477 -1.9149 -0.1022 -4.7062 -0.197 -8.4854 -0.1985 -0.0282 0.0012 -0.0565 0.0018 -0.0848 0.0018 -0.0287 0.0001 -0.0573 -0.0005 -0.0858 -0.0018Zm18.5744 -11.7355c-0.0123 -0.0816 -0.0262 -0.164 -0.0418 -0.2472 -1.8184 -0.8187 -4.7634 -1.766 -8.6556 -1.766 -3.6701 0 -6.2172 0.8422 -7.7917 1.6247v7.4642c1.426 -0.4335 3.3315 -1.0437 5.3988 -1.7903 4.0029 -1.4455 8.3484 -3.3113 11.0903 -5.2854Zm-36.93797 -0.2465c-0.01541 0.0826 -0.02925 0.1645 -0.04153 0.2456 2.74191 1.9744 7.0881 3.8406 11.0916 5.2863 2.0673 0.7466 3.9728 1.3568 5.3988 1.7903v-7.4642c-1.5745 -0.7825 -4.1216 -1.6247 -7.7917 -1.6247 -3.8933 0 -6.83887 0.9478 -8.65717 1.7667ZM27.9173 32.2812c-1.1046 0 -2 0.8955 -2 2 0 1.1046 0.8954 2 2 2h2.9375c1.1046 0 2 -0.8954 2 -2 0 -1.1045 -0.8954 -2 -2 -2h-2.9375Zm-2.9375 5.3855c-1.1046 0 -2 0.8954 -2 2 0 1.1045 0.8954 2 2 2h5.875c1.1046 0 2 -0.8955 2 -2 0 -1.1046 -0.8954 -2 -2 -2h-5.875Z" clip-rule="evenodd" stroke-width="1"></path>
  </g>
</svg>