<svg xmlns="http://www.w3.org/2000/svg" viewBox="0 0 24 24" id="Alert-Bell-Notification-2--Streamline-Ultimate">
  <desc>
    Alert Bell Notification 2 Streamline Icon: https://streamlinehq.com
  </desc>
  <g id="Alert-Bell-Notification-2--Streamline-Ultimate.svg">
    <path d="M13.714 20.82H9.3138c-0.1208 0.004 -0.2207 0.0955 -0.2352 0.2156 -0.0048 0.0914 -0.0048 0.183 0 0.2744 0 1.886 2.0417 3.0648 3.675 2.1218 0.7581 -0.4377 1.225 -1.2465 1.225 -2.1218 0.0049 -0.0914 0.0049 -0.183 0 -0.2744 -0.0154 -0.1316 -0.1326 -0.2271 -0.2646 -0.2156Z" fill="#000000" stroke-width="1"></path>
    <path d="M14.449 5.14c-0.0027 -0.5826 0.114 -1.1596 0.343 -1.6954 -0.5687 -0.2984 -1.1803 -0.5067 -1.813 -0.6174V1.71c0 -1.1316 -1.225 -1.8389 -2.205 -1.2731 -0.4548 0.2626 -0.735 0.7479 -0.735 1.2731v1.127c-1.0168 0.1922 -1.9738 0.622 -2.793 1.2544 -2.12 1.7442 -3.3287 4.3601 -3.283 7.105v0.7448c-0.0008 2.4989 -0.5882 4.9627 -1.715 7.1932 -0.1139 0.2439 -0.0142 0.5341 0.2254 0.6566 0.0677 0.0313 0.1411 0.048 0.2156 0.049h17.64c0.2706 0 0.49 -0.2194 0.49 -0.49 0 -0.0746 -0.0167 -0.1483 -0.049 -0.2156 -1.1267 -2.2305 -1.7142 -4.6943 -1.715 -7.1932v-0.7448c0.0035 -0.555 -0.0425 -1.1093 -0.1372 -1.6562h-0.0588c-2.434 0.0054 -4.41 -1.9662 -4.41 -4.4002Z" fill="#000000" stroke-width="1"></path>
    <path d="M15.919 5.14c0 2.2632 2.45 3.6777 4.41 2.5461 0.9097 -0.5252 1.47 -1.4957 1.47 -2.5461 0 -2.2632 -2.45 -3.6777 -4.41 -2.5461 -0.9096 0.5252 -1.47 1.4957 -1.47 2.5461" fill="#000000" stroke-width="1"></path>
  </g>
</svg>