<svg xmlns="http://www.w3.org/2000/svg" fill="none" viewBox="0 0 24 24" id="Arrange-List-Descending-1--Streamline-Ultimate">
  <desc>
    Arrange List Descending 1 Streamline Icon: https://streamlinehq.com
  </desc>
  <path fill="#000000" fill-rule="evenodd" d="M9 10.9062c0 -0.5522 0.44772 -0.99995 1 -0.99995h11c0.5523 0 1 0.44775 1 0.99995 0 0.5523 -0.4477 1 -1 1H10c-0.55228 0 -1 -0.4477 -1 -1Z" clip-rule="evenodd" stroke-width="1"></path>
  <path fill="#000000" fill-rule="evenodd" d="M9 14.9062c0 -0.5522 0.44772 -1 1 -1h13c0.5523 0 1 0.4478 1 1 0 0.5523 -0.4477 1 -1 1H10c-0.55228 0 -1 -0.4477 -1 -1Z" clip-rule="evenodd" stroke-width="1"></path>
  <path fill="#000000" fill-rule="evenodd" d="M9 6.90625c0 -0.55228 0.44772 -1 1 -1h8c0.5523 0 1 0.44772 1 1s-0.4477 1 -1 1h-8c-0.55228 0 -1 -0.44772 -1 -1Z" clip-rule="evenodd" stroke-width="1"></path>
  <path fill="#000000" fill-rule="evenodd" d="M9 2.90625c0 -0.55228 0.44772 -1 1 -1h5c0.5523 0 1 0.44772 1 1s-0.4477 1 -1 1h-5c-0.55228 0 -1 -0.44772 -1 -1Z" clip-rule="evenodd" stroke-width="1"></path>
  <path fill="#000000" fill-rule="evenodd" d="M5.81211 23.7803c-0.2929 0.2929 -0.76777 0.2929 -1.06066 0l-4.500002 -4.5c-0.2144988 -0.2145 -0.2786659 -0.5371 -0.1625799 -0.8173C0.204953 18.1827 0.478431 18 0.781777 18H4.28178l0 -16.5625c0 -0.552286 0.44771 -1 1 -1 0.55228 0 1 0.447714 1 1l0 16.5625h3.5c0.30332 0 0.57682 0.1827 0.69292 0.463 0.1161 0.2802 0.0519 0.6028 -0.1626 0.8173l-4.49999 4.5Z" clip-rule="evenodd" stroke-width="1"></path>
</svg>