<svg xmlns="http://www.w3.org/2000/svg" viewBox="0 0 24 24" id="Button-Fast-Forward-1--Streamline-Ultimate">
  <desc>
    Button Fast Forward 1 Streamline Icon: https://streamlinehq.com
  </desc>
  <path d="M12 0a12 12 0 1 0 12 12A12 12 0 0 0 12 0Zm6.34 12.77 -4.21 3.45a1 1 0 0 1 -1.63 -0.78v-0.54a0.25 0.25 0 0 0 -0.13 -0.22 0.27 0.27 0 0 0 -0.26 0L9.55 16.4A1 1 0 0 1 8 15.56V8.43a1 1 0 0 1 1.55 -0.83l2.56 1.71a0.27 0.27 0 0 0 0.26 0 0.26 0.26 0 0 0 0.13 -0.22v-0.54a1 1 0 0 1 1.63 -0.77l4.21 3.44a1 1 0 0 1 0 1.55Z" fill="#000000" stroke-width="1"></path>
</svg>