<svg xmlns="http://www.w3.org/2000/svg" viewBox="0 0 24 24" id="Button-Zigzag-1--Streamline-Ultimate">
  <desc>
    Button Zigzag 1 Streamline Icon: https://streamlinehq.com
  </desc>
  <path d="M8.53 2a4.75 4.75 0 0 0 -4.75 4.75V16a0.25 0.25 0 0 1 -0.25 0.25h-2A1 1 0 0 0 0.81 18l3.52 3.5a1 1 0 0 0 0.7 0.29 1 1 0 0 0 0.71 -0.29L9.26 18a1 1 0 0 0 0.22 -1.09 1 1 0 0 0 -0.93 -0.62h-2a0.25 0.25 0 0 1 -0.27 -0.29V6.75a2.25 2.25 0 0 1 4.5 0v10.5a4.75 4.75 0 1 0 9.5 0l0 -9.24a0.24 0.24 0 0 1 0.07 -0.18 0.29 0.29 0 0 1 0.18 -0.07h2a1 1 0 0 0 0.71 -1.7l-3.46 -3.5a1 1 0 0 0 -1.41 0L14.75 6a1 1 0 0 0 0.7 1.72h2.05a0.25 0.25 0 0 1 0.25 0.25l0 9.25a2.25 2.25 0 0 1 -4.5 0V6.75A4.75 4.75 0 0 0 8.53 2Z" fill="#000000" stroke-width="1"></path>
</svg>