<svg xmlns="http://www.w3.org/2000/svg" fill="none" viewBox="0 0 24 24" id="Division-Math-Symbol-Circle--Streamline-Ultimate">
  <desc>
    Division Math Symbol Circle Streamline Icon: https://streamlinehq.com
  </desc>
  <path fill="#000000" fill-rule="evenodd" d="M0 12.0001C0 5.37266 5.37257 0 12 0c6.6274 0 12 5.37266 12 12.0001C24 18.6275 18.6274 24 12 24 5.37258 24 0 18.6275 0 12.0001Zm5.95912 -0.7999c-0.41421 0 -0.75 0.3358 -0.75 0.75s0.33579 0.75 0.75 0.75H18.0409c0.4142 0 0.75 -0.3358 0.75 -0.75s-0.3358 -0.75 -0.75 -0.75H5.95912Zm5.98738 -2.67356c0.7925 0 1.435 -0.64245 1.435 -1.43495s-0.6425 -1.43495 -1.435 -1.43495c-0.7925 0 -1.4349 0.64245 -1.4349 1.43495s0.6424 1.43495 1.4349 1.43495Zm1.435 8.28236c0 0.7925 -0.6425 1.4349 -1.435 1.4349 -0.7925 0 -1.4349 -0.6424 -1.4349 -1.4349 0 -0.7925 0.6424 -1.435 1.4349 -1.435 0.7925 0 1.435 0.6425 1.435 1.435Z" clip-rule="evenodd" stroke-width="1"></path>
</svg>