<svg xmlns="http://www.w3.org/2000/svg" viewBox="0 0 24 24" id="Flip-Vertical-Down--Streamline-Ultimate">
  <desc>
    Flip Vertical Down Streamline Icon: https://streamlinehq.com
  </desc>
  <g id="Flip-Vertical-Down--Streamline-Ultimate.svg">
    <path d="M0.75 14.75a1.25 1.25 0 1 0 2.5 0 1.25 1.25 0 1 0 -2.5 0" fill="#000000" stroke-width="1"></path>
    <path d="M0.75 18.75a1.25 1.25 0 1 0 2.5 0 1.25 1.25 0 1 0 -2.5 0" fill="#000000" stroke-width="1"></path>
    <path d="M0.75 22.75a1.25 1.25 0 1 0 2.5 0 1.25 1.25 0 1 0 -2.5 0" fill="#000000" stroke-width="1"></path>
    <path d="M5.75 22.75a1.25 1.25 0 1 0 2.5 0 1.25 1.25 0 1 0 -2.5 0" fill="#000000" stroke-width="1"></path>
    <path d="M10.75 22.75a1.25 1.25 0 1 0 2.5 0 1.25 1.25 0 1 0 -2.5 0" fill="#000000" stroke-width="1"></path>
    <path d="M15.75 22.75a1.25 1.25 0 1 0 2.5 0 1.25 1.25 0 1 0 -2.5 0" fill="#000000" stroke-width="1"></path>
    <path d="M20.75 14.75a1.25 1.25 0 1 0 2.5 0 1.25 1.25 0 1 0 -2.5 0" fill="#000000" stroke-width="1"></path>
    <path d="M20.75 18.75a1.25 1.25 0 1 0 2.5 0 1.25 1.25 0 1 0 -2.5 0" fill="#000000" stroke-width="1"></path>
    <path d="M20.75 22.75a1.25 1.25 0 1 0 2.5 0 1.25 1.25 0 1 0 -2.5 0" fill="#000000" stroke-width="1"></path>
    <path d="M0 11.5a0.76 0.76 0 0 0 0.75 0.75h7.74a0.25 0.25 0 0 0 0.18 -0.08 0.26 0.26 0 0 0 0.07 -0.17l0 -0.48a12 12 0 0 1 2.95 -7.88 2 2 0 1 1 3 2.63 8 8 0 0 0 -2 5.25l0 0.52a0.25 0.25 0 0 0 0.25 0.23h10.31a0.75 0.75 0 0 0 0 -1.5 0.25 0.25 0 0 1 -0.25 -0.27V1.75A1.75 1.75 0 0 0 21.25 0H2.75A1.75 1.75 0 0 0 1 1.75v8.75a0.25 0.25 0 0 1 -0.25 0.25 0.75 0.75 0 0 0 -0.75 0.75Z" fill="#000000" stroke-width="1"></path>
    <path d="M11.47 11.5a9.27 9.27 0 0 1 2.28 -6.08 0.74 0.74 0 0 0 -0.08 -1 0.75 0.75 0 0 0 -1.06 0.07 10.74 10.74 0 0 0 -2 10.76 0.25 0.25 0 0 1 -0.1 0.3l-0.9 0.55 -0.77 0.46a0.75 0.75 0 0 0 0.21 1.37l1.79 0.43 2.2 0.54a0.78 0.78 0 0 0 0.9 -0.55l0.47 -1.88 0.59 -2.17a0.75 0.75 0 0 0 -1.12 -0.82l-0.73 0.44 -0.82 0.51a0.25 0.25 0 0 1 -0.22 0 0.26 0.26 0 0 1 -0.15 -0.16 9 9 0 0 1 -0.49 -2.77Z" fill="#000000" stroke-width="1"></path>
  </g>
</svg>