<svg xmlns="http://www.w3.org/2000/svg" fill="none" viewBox="0 0 24 24" id="Flow-Chart-Hierachy--Streamline-Ultimate">
  <desc>
    Flow Chart Hierachy Streamline Icon: https://streamlinehq.com
  </desc>
  <path fill="#000000" fill-rule="evenodd" d="M16.1501 7.15002H13.05v2.29993h7.9c0.3204 0 0.6457 0.11009 0.8928 0.35717s0.3572 0.57238 0.3572 0.89288v4.7c0 0.3205 -0.1101 0.6458 -0.3572 0.8929 -0.2471 0.247 -0.5724 0.3571 -0.8928 0.3571h-7.9v2.6h2.1c0.3012 0 0.5732 0.1802 0.6906 0.4575 0.1175 0.2773 0.0577 0.598 -0.1519 0.8143l-3.1 3.2c-0.1398 0.1443 -0.3317 0.2265 -0.5327 0.2281 -0.201 0.0016 -0.3942 -0.0775 -0.5363 -0.2196l-3.19999 -3.2c-0.2145 -0.2145 -0.27867 -0.5371 -0.16258 -0.8173 0.11608 -0.2803 0.38956 -0.463 0.69291 -0.463H11.05v-2.6H3.04999c-0.32044 0 -0.64575 -0.1101 -0.89283 -0.3571 -0.24709 -0.2471 -0.35717 -0.5724 -0.35717 -0.8929v-4.7c0 -0.3205 0.11008 -0.6458 0.35717 -0.89288 0.24708 -0.24708 0.57239 -0.35717 0.89283 -0.35717H11.05V7.15002H7.9501c-2.03157 0 -3.55001 -1.65341 -3.55001 -3.55004 0 -2.0316 1.6534 -3.5499312 3.55001 -3.5499312h8.2c2.0315 0 3.55 1.6532512 3.55 3.5499312 0 1.9142 -1.6358 3.55004 -3.55 3.55004Z" clip-rule="evenodd" stroke-width="1"></path>
</svg>