<svg xmlns="http://www.w3.org/2000/svg" viewBox="0 0 24 24" id="Font-Size--Streamline-Ultimate">
  <desc>
    Font Size Streamline Icon: https://streamlinehq.com
  </desc>
  <g id="Font-Size--Streamline-Ultimate.svg">
    <path d="M17.57 20.51H17a0.24 0.24 0 0 1 -0.23 -0.17L10.64 2.52a1.46 1.46 0 0 0 -1.38 -1 1.49 1.49 0 0 0 -1.39 1L1.8 20.34a0.25 0.25 0 0 1 -0.23 0.17H1a1 1 0 1 0 0 2h3a1 1 0 0 0 1 -1 0.94 0.94 0 0 0 -0.81 -0.95 0.3 0.3 0 0 1 -0.17 -0.12 0.28 0.28 0 0 1 0 -0.2l1.5 -4.42a0.25 0.25 0 0 1 0.24 -0.16h7.23a0.25 0.25 0 0 1 0.23 0.16l1.5 4.42a0.23 0.23 0 0 1 0 0.2 0.3 0.3 0 0 1 -0.17 0.12 1 1 0 0 0 -0.79 0.95 1 1 0 0 0 1 1h3a1 1 0 0 0 0 -2ZM6.48 13.68a0.26 0.26 0 0 1 -0.2 -0.1 0.24 0.24 0 0 1 0 -0.23L9 5.2a0.26 0.26 0 0 1 0.26 -0.2 0.26 0.26 0 0 1 0.23 0.17l2.78 8.15a0.27 0.27 0 0 1 0 0.23 0.26 0.26 0 0 1 -0.2 0.1Z" fill="#000000" stroke-width="1"></path>
    <path d="M23 20.51h-0.2a0.24 0.24 0 0 1 -0.23 -0.17L18.31 7.89a1.53 1.53 0 0 0 -2.89 0l-1.16 3.39a1 1 0 0 0 1.86 0.63l0.51 -1.51a0.26 0.26 0 0 1 0.23 -0.17 0.26 0.26 0 0 1 0.24 0.17l1.46 4.29a0.22 0.22 0 0 1 0 0.22 0.24 0.24 0 0 1 -0.2 0.11H17a1 1 0 0 0 0 2h2.2a0.25 0.25 0 0 1 0.23 0.16l1.1 3.21a0.27 0.27 0 0 1 -0.12 0.3 1 1 0 0 0 -0.52 0.85 1 1 0 0 0 1 1H23a1 1 0 0 0 0 -2Z" fill="#000000" stroke-width="1"></path>
  </g>
</svg>