<svg xmlns="http://www.w3.org/2000/svg" viewBox="0 0 24 24" id="House-4--Streamline-Ultimate">
  <desc>
    House 4 Streamline Icon: https://streamlinehq.com
  </desc>
  <g id="House-4--Streamline-Ultimate.svg">
    <path d="m2.64 10.59 9 -7.48a0.48 0.48 0 0 1 0.62 0l9 7.48a1.45 1.45 0 0 0 2.06 -0.22 1.52 1.52 0 0 0 -0.21 -2.11l-9 -7.49a3.41 3.41 0 0 0 -4.32 0l-9 7.49a1.52 1.52 0 0 0 -0.21 2.11 1.45 1.45 0 0 0 2.06 0.22Z" fill="#000000" stroke-width="1"></path>
    <path d="M22.28 22v-7a2.22 2.22 0 0 0 -0.73 -1.59l-8.3 -7a1.94 1.94 0 0 0 -2.5 0l-8.3 7A2.22 2.22 0 0 0 1.72 15v7a2 2 0 0 0 2 2h5.34a1 1 0 0 0 1 -1v-5.5a1 1 0 0 1 1 -1h2a1 1 0 0 1 1 1V23a1 1 0 0 0 1 1h5.38a2 2 0 0 0 1.84 -2Z" fill="#000000" stroke-width="1"></path>
  </g>
</svg>