<svg xmlns="http://www.w3.org/2000/svg" viewBox="0 0 24 24" id="Keyboard-Asterisk-1--Streamline-Ultimate">
  <desc>
    Keyboard Asterisk 1 Streamline Icon: https://streamlinehq.com
  </desc>
  <path d="M0.69 16.7a1.33 1.33 0 0 0 0.64 2.5A1.4 1.4 0 0 0 2 19l8.32 -4.57a0.23 0.23 0 0 1 0.24 0 0.26 0.26 0 0 1 0.13 0.22v8a1.33 1.33 0 1 0 2.66 0v-8a0.26 0.26 0 0 1 0.13 -0.22 0.23 0.23 0 0 1 0.24 0L22 19a1.4 1.4 0 0 0 0.65 0.17 1.33 1.33 0 0 0 0.64 -2.5l-8.15 -4.48A0.27 0.27 0 0 1 15 12a0.26 0.26 0 0 1 0.12 -0.22l8.19 -4.48A1.34 1.34 0 0 0 22 5l-8.3 4.54a0.23 0.23 0 0 1 -0.24 0 0.23 0.23 0 0 1 -0.13 -0.21v-8a1.33 1.33 0 1 0 -2.66 0v8a0.23 0.23 0 0 1 -0.13 0.21 0.23 0.23 0 0 1 -0.24 0L2 5A1.34 1.34 0 0 0 0.69 7.3l8.15 4.48A0.26 0.26 0 0 1 9 12a0.27 0.27 0 0 1 -0.12 0.22Z" fill="#000000" stroke-width="1"></path>
</svg>