<svg xmlns="http://www.w3.org/2000/svg" viewBox="0 0 24 24" id="Loading-Circle--Streamline-Ultimate">
  <desc>
    Loading Circle Streamline Icon: https://streamlinehq.com
  </desc>
  <g id="Loading-Circle--Streamline-Ultimate.svg">
    <path d="M12 6.38a1.22 1.22 0 0 0 1.22 -1.23V1.24a1.22 1.22 0 0 0 -2.44 0v3.91A1.22 1.22 0 0 0 12 6.38Z" fill="#000000" stroke-width="1"></path>
    <path d="M6.79 6.39A1.21 1.21 0 0 0 7.85 7a1.26 1.26 0 0 0 0.61 -0.16 1.22 1.22 0 0 0 0.44 -1.67L8.17 3.9a1.22 1.22 0 0 0 -1.67 -0.45 1.23 1.23 0 0 0 -0.45 1.67Z" fill="#000000" stroke-width="1"></path>
    <path d="m2.92 9.15 1.27 0.73a1.21 1.21 0 0 0 0.61 0.12 1.23 1.23 0 0 0 1.06 -0.61 1.22 1.22 0 0 0 -0.45 -1.67L4.14 7a1.22 1.22 0 0 0 -1.67 0.45 1.24 1.24 0 0 0 0.45 1.7Z" fill="#000000" stroke-width="1"></path>
    <path d="M2.22 14.2h1.47a1.23 1.23 0 0 0 0 -2.45H2.22a1.23 1.23 0 0 0 0 2.45Z" fill="#000000" stroke-width="1"></path>
    <path d="m4.19 16.07 -1.27 0.74a1.22 1.22 0 1 0 1.22 2.11l1.27 -0.73a1.22 1.22 0 0 0 0.45 -1.67 1.24 1.24 0 0 0 -1.67 -0.45Z" fill="#000000" stroke-width="1"></path>
    <path d="M6.5 22.5a1.2 1.2 0 0 0 1.67 -0.45l0.73 -1.27a1.22 1.22 0 1 0 -2.11 -1.22l-0.74 1.27a1.23 1.23 0 0 0 0.45 1.67Z" fill="#000000" stroke-width="1"></path>
    <path d="M12 24a1.22 1.22 0 0 0 1.22 -1.23v-1.48a1.22 1.22 0 1 0 -2.44 0v1.46A1.22 1.22 0 0 0 12 24Z" fill="#000000" stroke-width="1"></path>
    <path d="M15.83 22.05A1.22 1.22 0 0 0 18 20.83l-0.74 -1.27a1.22 1.22 0 1 0 -2.11 1.22Z" fill="#000000" stroke-width="1"></path>
    <path d="m21.08 16.81 -1.27 -0.74a1.24 1.24 0 0 0 -1.67 0.45 1.22 1.22 0 0 0 0.45 1.67l1.27 0.73a1.22 1.22 0 1 0 1.22 -2.11Z" fill="#000000" stroke-width="1"></path>
    <path d="M19.09 13a1.22 1.22 0 0 0 1.22 1.22h1.47a1.23 1.23 0 0 0 0 -2.45h-1.47A1.23 1.23 0 0 0 19.09 13Z" fill="#000000" stroke-width="1"></path>
    <path d="M18.14 9.43a1.23 1.23 0 0 0 1.06 0.57 1.21 1.21 0 0 0 0.61 -0.16l1.27 -0.73a1.24 1.24 0 0 0 0.45 -1.67A1.22 1.22 0 0 0 19.86 7l-1.27 0.73a1.22 1.22 0 0 0 -0.45 1.7Z" fill="#000000" stroke-width="1"></path>
    <path d="M15.54 6.84a1.26 1.26 0 0 0 0.61 0.16 1.21 1.21 0 0 0 1.06 -0.61L18 5.12a1.23 1.23 0 0 0 -0.45 -1.67 1.22 1.22 0 0 0 -1.67 0.45l-0.78 1.27a1.22 1.22 0 0 0 0.44 1.67Z" fill="#000000" stroke-width="1"></path>
  </g>
</svg>