<svg xmlns="http://www.w3.org/2000/svg" viewBox="0 0 24 24" id="Login-Key--Streamline-Ultimate">
  <desc>
    Login Key Streamline Icon: https://streamlinehq.com
  </desc>
  <path d="M23.5 0h-3a0.47 0.47 0 0 0 -0.35 0.15l-9.53 9.53a7.5 7.5 0 1 0 3.7 3.7l2.32 -2.31 1.93 0.65a1 1 0 0 0 1 -0.19 1 1 0 0 0 0.34 -0.91l-0.4 -2.42 0.72 -0.73 1.46 0.67A1 1 0 0 0 23.07 7l-0.51 -1.81 1.29 -1.3A0.47 0.47 0 0 0 24 3.5v-3a0.5 0.5 0 0 0 -0.5 -0.5ZM7 18.5A1.5 1.5 0 1 1 5.5 17 1.5 1.5 0 0 1 7 18.5Z" fill="#000000" stroke-width="1"></path>
</svg>