<svg xmlns="http://www.w3.org/2000/svg" fill="none" viewBox="0 0 24 24" id="Navigation-Direction-Left-Forward--Streamline-Ultimate">
  <desc>
    Navigation Direction Left Forward Streamline Icon: https://streamlinehq.com
  </desc>
  <path fill="#000000" fill-rule="evenodd" d="M9.218 5.485a1 1 0 1 0 -1.388 -1.44L0.414 11.186a1 1 0 0 0 0 1.44L7.83 19.77a1 1 0 0 0 1.388 -1.44l-6.67 -6.422 6.67 -6.422Zm4.675 -1.534a0.75 0.75 0 0 1 0.456 0.69V7.99h1.207c4.606 0 8.388 3.782 8.388 8.388v2.516c0 0.31 -0.107 0.627 -0.348 0.868a1.215 1.215 0 0 1 -0.868 0.347h-0.093c-0.337 0 -0.611 -0.16 -0.786 -0.336a1.128 1.128 0 0 1 -0.336 -0.743c-0.164 -1.771 -1.629 -3.206 -3.442 -3.206h-3.722v3.349a0.75 0.75 0 0 1 -1.27 0.54l-7.545 -7.266a0.75 0.75 0 0 1 0 -1.08L13.079 4.1a0.75 0.75 0 0 1 0.814 -0.15Z" clip-rule="evenodd" stroke-width="1"></path>
</svg>