<svg xmlns="http://www.w3.org/2000/svg" viewBox="0 0 24 24" id="Pen-Write--Streamline-Ultimate">
  <desc>
    Pen Write Streamline Icon: https://streamlinehq.com
  </desc>
  <g id="Pen-Write--Streamline-Ultimate.svg">
    <path d="M19 13a1 1 0 0 0 -1 1v7a1 1 0 0 1 -1 1H3a1 1 0 0 1 -1 -1V3a1 1 0 0 1 1 -1h7a1 1 0 0 0 0 -2H3a3 3 0 0 0 -3 3v18a3 3 0 0 0 3 3h14a3 3 0 0 0 3 -3v-7a1 1 0 0 0 -1 -1Z" fill="#000000" stroke-width="1"></path>
    <path d="M8.73 12.52a0.51 0.51 0 0 0 -0.35 0.36l-0.56 2.24 -1.25 1.25a0.74 0.74 0 0 0 0 1.06 0.75 0.75 0 0 0 1.06 0l1.26 -1.26 2.21 -0.55a0.52 0.52 0 0 0 0.36 -0.36 0.48 0.48 0 0 0 -0.13 -0.48l-2.11 -2.13a0.5 0.5 0 0 0 -0.49 -0.13Z" fill="#000000" stroke-width="1"></path>
    <path d="M23.71 0.29a1 1 0 0 0 -1.42 0l-0.89 0.9a2 2 0 0 0 -1.54 0.21l-0.05 0a3 3 0 0 0 -4.23 0L12 5a1 1 0 1 0 1.41 1.42L17 2.76a1 1 0 0 1 1.4 0l-0.7 0.7a0.5 0.5 0 0 0 0 0.71l2.12 2.13a0.49 0.49 0 0 0 0.35 0.15 0.47 0.47 0 0 0 0.35 -0.15l1.77 -1.76a2 2 0 0 0 0.52 -1.94l0.9 -0.89a1 1 0 0 0 0 -1.42Z" fill="#000000" stroke-width="1"></path>
    <path d="M12.4 14.22a0.51 0.51 0 0 0 0.36 -0.15l6.35 -6.35a0.5 0.5 0 0 0 0 -0.71L17 4.89a0.51 0.51 0 0 0 -0.71 0l-6.36 6.36a0.48 0.48 0 0 0 0 0.7l2.12 2.12a0.49 0.49 0 0 0 0.35 0.15Z" fill="#000000" stroke-width="1"></path>
  </g>
</svg>