<svg xmlns="http://www.w3.org/2000/svg" viewBox="0 0 24 24" id="Power-Button--Streamline-Ultimate">
  <desc>
    Power Button Streamline Icon: https://streamlinehq.com
  </desc>
  <g id="Power-Button--Streamline-Ultimate.svg">
    <path d="M10.5 10.92a1.5 1.5 0 1 0 3 0V1.5a1.5 1.5 0 0 0 -3 0Z" fill="#000000" stroke-width="1"></path>
    <path d="M1.2 11.53a10.92 10.92 0 0 0 18.52 9.28 10.83 10.83 0 0 0 3.08 -9.28 11 11 0 0 0 -5.73 -8.13A1.5 1.5 0 1 0 15.63 6a8 8 0 0 1 4.2 6 7.84 7.84 0 0 1 -2.23 6.73 7.92 7.92 0 0 1 -11.2 0A7.83 7.83 0 0 1 4.17 12a8 8 0 0 1 4.19 -6 1.5 1.5 0 0 0 -1.44 -2.6 11 11 0 0 0 -5.72 8.13Z" fill="#000000" stroke-width="1"></path>
  </g>
</svg>