<svg xmlns="http://www.w3.org/2000/svg" viewBox="0 0 24 24" id="Rss-Feed--Streamline-Ultimate">
  <desc>
    Rss Feed Streamline Icon: https://streamlinehq.com
  </desc>
  <g id="Rss-Feed--Streamline-Ultimate.svg">
    <path d="M1.5 8.27a1.5 1.5 0 0 0 0 3 11.11 11.11 0 0 1 11.44 11 1.5 1.5 0 0 0 3 0c0 -7.86 -6.34 -14 -14.44 -14Z" fill="#000000" stroke-width="1"></path>
    <path d="M1.53 0.24a1.5 1.5 0 0 0 0 3c10.92 0 19.47 8.35 19.47 19a1.5 1.5 0 1 0 3 0c0 -12.33 -9.87 -22 -22.47 -22Z" fill="#000000" stroke-width="1"></path>
    <path d="M0 20.25a3.5 3.5 0 1 0 7 0 3.5 3.5 0 1 0 -7 0" fill="#000000" stroke-width="1"></path>
  </g>
</svg>