<svg xmlns="http://www.w3.org/2000/svg" viewBox="0 0 24 24" id="Scroll-Vertical--Streamline-Ultimate">
  <desc>
    Scroll Vertical Streamline Icon: https://streamlinehq.com
  </desc>
  <g id="Scroll-Vertical--Streamline-Ultimate.svg">
    <path d="M9 11.99a3 3 0 1 0 6 0 3 3 0 1 0 -6 0" fill="#000000" stroke-width="1"></path>
    <path d="m7.38 7.21 4.44 -4.44a0.24 0.24 0 0 1 0.36 0l4.44 4.44a1.25 1.25 0 0 0 1.76 -1.77L13.59 0.65a2.3 2.3 0 0 0 -3.18 0L5.62 5.44a1.25 1.25 0 0 0 1.76 1.77Z" fill="#000000" stroke-width="1"></path>
    <path d="m16.62 16.77 -4.44 4.44a0.27 0.27 0 0 1 -0.36 0l-4.44 -4.44a1.25 1.25 0 0 0 -1.76 1.77l4.79 4.79a2.25 2.25 0 0 0 3.18 0l4.79 -4.79a1.25 1.25 0 0 0 -1.76 -1.77Z" fill="#000000" stroke-width="1"></path>
  </g>
</svg>