<svg xmlns="http://www.w3.org/2000/svg" viewBox="0 0 24 24" id="Share-2--Streamline-Ultimate">
  <desc>
    Share 2 Streamline Icon: https://streamlinehq.com
  </desc>
  <g id="Share-2--Streamline-Ultimate.svg">
    <path d="M11.5 9.5v2a3 3 0 0 1 -6 0v-2a8.33 8.33 0 0 1 0.29 -2.19 0.23 0.23 0 0 0 0 -0.21 0.24 0.24 0 0 0 -0.24 -0.1H2a2 2 0 0 0 -2 2v13a2 2 0 0 0 2 2h13a2 2 0 0 0 2 -2V9a2 2 0 0 0 -2 -2h-1a2.5 2.5 0 0 0 -2.5 2.5Z" fill="#000000" stroke-width="1"></path>
    <path d="m23.71 3.29 -3 -3a1 1 0 0 0 -1.09 -0.21A1 1 0 0 0 19 1v1.75a0.25 0.25 0 0 1 -0.25 0.25H14a6.51 6.51 0 0 0 -6.5 6.5v2a1 1 0 0 0 2 0v-2A4.51 4.51 0 0 1 14 5h4.75a0.25 0.25 0 0 1 0.25 0.25V7a1 1 0 0 0 0.62 0.92 1 1 0 0 0 1.09 -0.21l3 -3a1 1 0 0 0 0 -1.42Z" fill="#000000" stroke-width="1"></path>
  </g>
</svg>