<svg xmlns="http://www.w3.org/2000/svg" viewBox="0 0 24 24" id="Skull-1--Streamline-Ultimate">
  <desc>
    Skull 1 Streamline Icon: https://streamlinehq.com
  </desc>
  <path d="M12 0A10.26 10.26 0 0 0 1.75 10.25a10.15 10.15 0 0 0 3 7.24v3.76a2.75 2.75 0 0 0 5 1.58 2.75 2.75 0 0 0 4.5 0 2.75 2.75 0 0 0 5 -1.58v-3.76a10.15 10.15 0 0 0 3 -7.24A10.26 10.26 0 0 0 12 0Zm2.25 10.25a2.25 2.25 0 1 1 2.25 2.25 2.25 2.25 0 0 1 -2.25 -2.25Zm-0.5 6.87a0.25 0.25 0 0 1 -0.22 0.13h-3.06a0.25 0.25 0 0 1 -0.22 -0.13 0.24 0.24 0 0 1 0 -0.26l1.53 -2.3a0.26 0.26 0 0 1 0.42 0l1.53 2.3a0.24 0.24 0 0 1 0.02 0.26Zm-8.5 -6.87A2.25 2.25 0 1 1 7.5 12.5a2.25 2.25 0 0 1 -2.25 -2.25Z" fill="#000000" stroke-width="1"></path>
</svg>