<svg xmlns="http://www.w3.org/2000/svg" viewBox="0 0 24 24" id="Synchronize-Refresh-Arrow--Streamline-Ultimate">
  <desc>
    Synchronize Refresh Arrow Streamline Icon: https://streamlinehq.com
  </desc>
  <path d="M12.57 1.25a10.83 10.83 0 0 0 -9.75 7.14 0.25 0.25 0 0 1 -0.27 0.16L0.86 8.31a0.5 0.5 0 0 0 -0.49 0.21 0.51 0.51 0 0 0 0 0.53L3 13.75a0.5 0.5 0 0 0 0.4 0.25 0.46 0.46 0 0 0 0.42 -0.14l3.77 -3.74a0.51 0.51 0 0 0 0.12 -0.51 0.48 0.48 0 0 0 -0.4 -0.34L5.59 9a0.25 0.25 0 0 1 -0.18 -0.12 0.26 0.26 0 0 1 0 -0.23 8.34 8.34 0 0 1 7.26 -4.9 8.25 8.25 0 1 1 -6.36 13.13 1.25 1.25 0 1 0 -2 1.48 10.75 10.75 0 1 0 8.26 -17.11Z" fill="#000000" stroke-width="1"></path>
</svg>