<svg xmlns="http://www.w3.org/2000/svg" viewBox="0 0 24 24" id="Synchronize-Arrows-Three--Streamline-Ultimate">
  <desc>
    Synchronize Arrows Three Streamline Icon: https://streamlinehq.com
  </desc>
  <g id="Synchronize-Arrows-Three--Streamline-Ultimate.svg">
    <path d="M13 20.57a1.25 1.25 0 0 0 0.6 2.43 10.47 10.47 0 0 0 7.66 -8.21 0.25 0.25 0 0 1 0.22 -0.21l1.69 -0.15a0.49 0.49 0 0 0 0.42 -0.31 0.51 0.51 0 0 0 -0.09 -0.52L20.3 10a0.51 0.51 0 0 0 -0.42 -0.16 0.48 0.48 0 0 0 -0.38 0.23L17 14.18a0.5 0.5 0 0 0 0.42 0.76l0.89 -0.08a0.25 0.25 0 0 1 0.26 0.32A7.92 7.92 0 0 1 13 20.57Z" fill="#000000" stroke-width="1"></path>
    <path d="M8.23 2.75A0.24 0.24 0 0 1 8 2.64L7.08 1.2a0.51 0.51 0 0 0 -0.47 -0.2 0.5 0.5 0 0 0 -0.42 0.32L4.4 5.71a0.52 0.52 0 0 0 0 0.44 0.47 0.47 0 0 0 0.38 0.24l4.8 0.48a0.51 0.51 0 0 0 0.43 -0.76l-0.46 -0.76a0.24 0.24 0 0 1 0 -0.23 0.22 0.22 0 0 1 0.22 -0.12 7.89 7.89 0 0 1 7.3 2.67 1.24 1.24 0 0 0 1 0.45 1.27 1.27 0 0 0 0.81 -0.3A1.25 1.25 0 0 0 19 6 10.44 10.44 0 0 0 8.23 2.75Z" fill="#000000" stroke-width="1"></path>
    <path d="M2.56 8.75A1.24 1.24 0 0 0 1 9.51a10.5 10.5 0 0 0 2.59 11 0.26 0.26 0 0 1 0 0.29l-0.8 1.47a0.5 0.5 0 0 0 0.44 0.74S3 23 8 22.27a0.53 0.53 0 0 0 0.4 -0.27 0.51 0.51 0 0 0 0 -0.45l-2 -4.34a0.5 0.5 0 0 0 -0.4 -0.28 0.48 0.48 0 0 0 -0.45 0.26L5.1 18a0.26 0.26 0 0 1 -0.19 0.13 0.25 0.25 0 0 1 -0.22 -0.13 8 8 0 0 1 -1.37 -7.67 1.24 1.24 0 0 0 -0.76 -1.58Z" fill="#000000" stroke-width="1"></path>
  </g>
</svg>