<svg xmlns="http://www.w3.org/2000/svg" fill="none" viewBox="0 0 24 24" id="Mine-Cart-2--Streamline-Sharp-Remix">
  <desc>
    Mine Cart 2 Streamline Icon: https://streamlinehq.com
  </desc>
  <g id="Remix/Map Travel/mine-cart-2--outdoor-construction-cart-travel-places">
    <path id="Union" fill="#000000" fill-rule="evenodd" d="m14.4906 0.777832 0.5781 0.399648 4.5 3.11111 0.4313 0.2982v2.41325H4.00002V4.59207l0.4245 -0.29873 3 -2.11111 0.48847 -0.34374 0.53424 0.26712 2.46147 1.23074 3.0101 -2.15005 0.5718 -0.408468ZM8.7702 21.25c-0.50321 1.3157 -1.77759 2.25 -3.27018 2.25 -1.933 0 -3.5 -1.567 -3.5 -3.5 0 -0.9379 0.36891 -1.7896 0.96955 -2.418L0.802732 10.3592 0.319977 8.75H23.6801l-0.4828 1.6092 -2.1668 7.2228C21.6311 18.2104 22 19.0621 22 20c0 1.933 -1.567 3.5 -3.5 3.5 -1.4926 0 -2.767 -0.9343 -3.2702 -2.25H8.7702Zm0 -2.5c-0.50321 -1.3157 -1.77759 -2.25 -3.27018 -2.25 -0.08151 0 -0.16237 0.0028 -0.24249 0.0083L3.68005 11.25H20.32l-1.5775 5.2583c-0.0801 -0.0055 -0.161 -0.0083 -0.2425 -0.0083 -1.4926 0 -2.767 0.9343 -3.2702 2.25H8.7702Z" clip-rule="evenodd" stroke-width="1"></path>
  </g>
</svg>