<svg xmlns="http://www.w3.org/2000/svg" fill="none" viewBox="0 0 24 24" id="Toilet-Paper--Streamline-Sharp-Remix">
  <desc>
    Toilet Paper Streamline Icon: https://streamlinehq.com
  </desc>
  <g id="Remix/Map Travel/toilet-paper--tussie-roll-bathroom-restroom-toilet">
    <path id="Union" fill="#000000" fill-rule="evenodd" d="M0.75 8C0.75 3.99594 3.99594 0.75 8 0.75h10c1.603 0 2.9449 0.89588 3.8393 2.1257C22.7346 4.10674 23.25 5.74572 23.25 7.5s-0.5154 3.3933 -1.4107 4.6243C20.9449 13.3541 19.603 14.25 18 14.25c-1.0448 0 -1.9787 -0.3806 -2.75 -0.9861V23.25H0.75V8Zm12 -0.5c0 -1.58196 0.4191 -3.07016 1.1579 -4.25H8C5.37665 3.25 3.25 5.37665 3.25 8v6.75H5v2.5H3.25v3.5h9.5v-3.5H11v-2.5h1.75V7.5ZM6.5 14.75v2.5h3v-2.5h-3Zm10.25 -6v-2.5h2.5v2.5h-2.5Z" clip-rule="evenodd" stroke-width="1"></path>
  </g>
</svg>