<svg xmlns="http://www.w3.org/2000/svg" viewBox="0 0 32 32" id="Hand-Zombie--Streamline-Pixel">
  <desc>
    Hand Zombie Streamline Icon: https://streamlinehq.com
  </desc>
  <title>hand-zombie</title>
  <g>
    <path d="M30.48 16.77H32v3.04h-1.52Z" fill="#000000" stroke-width="1"></path>
    <path d="m30.48 24.39 0 1.52 -1.53 0 0 -1.52 -3.04 0 0 1.52 1.52 0 0 1.52 1.52 0 0 1.53 3.05 0 0 -6.1 -3.05 0 0 1.53 1.53 0z" fill="#000000" stroke-width="1"></path>
    <path d="M28.95 19.81h1.53v1.53h-1.53Z" fill="#000000" stroke-width="1"></path>
    <path d="M27.43 30.48H32V32h-4.57Z" fill="#000000" stroke-width="1"></path>
    <path d="M27.43 15.24h3.05v1.53h-3.05Z" fill="#000000" stroke-width="1"></path>
    <path d="M27.43 6.1h1.52v7.62h-1.52Z" fill="#000000" stroke-width="1"></path>
    <path d="M25.91 21.34h3.04v1.52h-3.04Z" fill="#000000" stroke-width="1"></path>
    <path d="M25.91 16.77h1.52v1.52h-1.52Z" fill="#000000" stroke-width="1"></path>
    <path d="M25.91 13.72h1.52v1.52h-1.52Z" fill="#000000" stroke-width="1"></path>
    <path d="M24.38 4.58h3.05V6.1h-3.05Z" fill="#000000" stroke-width="1"></path>
    <path d="m25.91 25.91 -3.05 0 0 3.05 -1.52 0 0 1.52 -4.58 0 0 1.52 6.1 0 0 -1.52 1.52 0 0 1.52 1.53 0 0 -1.52 1.52 0 0 -3.05 -1.52 0 0 -1.52z" fill="#000000" stroke-width="1"></path>
    <path d="M22.86 22.86h3.05v1.53h-3.05Z" fill="#000000" stroke-width="1"></path>
    <path d="M24.38 15.24h1.53v1.53h-1.53Z" fill="#000000" stroke-width="1"></path>
    <path d="m24.38 16.77 -1.52 0 0 1.52 -1.52 0 0 1.52 4.57 0 0 -1.52 -1.53 0 0 -1.52z" fill="#000000" stroke-width="1"></path>
    <path d="M22.86 6.1h1.52v4.57h-1.52Z" fill="#000000" stroke-width="1"></path>
    <path d="M21.34 24.39h1.52v1.52h-1.52Z" fill="#000000" stroke-width="1"></path>
    <path d="M21.34 10.67h1.52v1.52h-1.52Z" fill="#000000" stroke-width="1"></path>
    <path d="M19.81 25.91h1.53v3.05h-1.53Z" fill="#000000" stroke-width="1"></path>
    <path d="M19.81 4.58h1.53v6.09h-1.53Z" fill="#000000" stroke-width="1"></path>
    <path d="M18.29 3.05h1.52v1.53h-1.52Z" fill="#000000" stroke-width="1"></path>
    <path d="m18.29 28.96 0 -1.53 -6.1 0 0 1.53 1.53 0 0 1.52 3.04 0 0 -1.52 1.53 0z" fill="#000000" stroke-width="1"></path>
    <path d="M15.24 15.24h4.57v1.53h-4.57Z" fill="#000000" stroke-width="1"></path>
    <path d="M16.76 1.53h1.53v1.52h-1.53Z" fill="#000000" stroke-width="1"></path>
    <path d="M15.24 6.1h1.52v4.57h-1.52Z" fill="#000000" stroke-width="1"></path>
    <path d="M13.72 0h3.04v1.53h-3.04Z" fill="#000000" stroke-width="1"></path>
    <path d="M13.72 16.77h1.52v1.52h-1.52Z" fill="#000000" stroke-width="1"></path>
    <path d="M13.72 10.67h1.52v1.52h-1.52Z" fill="#000000" stroke-width="1"></path>
    <path d="M13.72 4.58h1.52V6.1h-1.52Z" fill="#000000" stroke-width="1"></path>
    <path d="M12.19 7.62h1.53v3.05h-1.53Z" fill="#000000" stroke-width="1"></path>
    <path d="M12.19 1.53h1.53v3.05h-1.53Z" fill="#000000" stroke-width="1"></path>
    <path d="M9.14 30.48v-1.52H7.62v-4.57H4.57v-1.53H1.53v1.53H0v4.57h3.05v1.52h1.52V32H6.1v-1.52h1.52V32h6.1v-1.52Zm-6.09 -3.05H1.53v-1.52h1.52Z" fill="#000000" stroke-width="1"></path>
    <path d="M10.67 6.1h1.52v1.52h-1.52Z" fill="#000000" stroke-width="1"></path>
    <path d="M9.14 24.39h1.53v4.57H9.14Z" fill="#000000" stroke-width="1"></path>
    <path d="M9.14 10.67h1.53v4.57H9.14Z" fill="#000000" stroke-width="1"></path>
    <path d="M9.14 4.58h1.53V6.1H9.14Z" fill="#000000" stroke-width="1"></path>
    <path d="M7.62 22.86h1.52v1.53H7.62Z" fill="#000000" stroke-width="1"></path>
    <path d="M7.62 9.15h1.52v1.52H7.62Z" fill="#000000" stroke-width="1"></path>
    <path d="M6.1 3.05h3.04v1.53H6.1Z" fill="#000000" stroke-width="1"></path>
    <path d="M4.57 21.34h3.05v1.52H4.57Z" fill="#000000" stroke-width="1"></path>
    <path d="M6.1 15.24h3.04v1.53H6.1Z" fill="#000000" stroke-width="1"></path>
    <path d="M6.1 7.62h1.52v1.53H6.1Z" fill="#000000" stroke-width="1"></path>
    <path d="M4.57 12.19H6.1v3.05H4.57Z" fill="#000000" stroke-width="1"></path>
    <path d="M4.57 4.58H6.1v3.04H4.57Z" fill="#000000" stroke-width="1"></path>
    <path d="M3.05 19.81h1.52v1.53H3.05Z" fill="#000000" stroke-width="1"></path>
    <path d="M1.53 10.67h3.04v1.52H1.53Z" fill="#000000" stroke-width="1"></path>
    <path d="M1.53 18.29h1.52v1.52H1.53Z" fill="#000000" stroke-width="1"></path>
    <path d="M0 30.48h3.05V32H0Z" fill="#000000" stroke-width="1"></path>
    <path d="M0 21.34h1.53v1.52H0Z" fill="#000000" stroke-width="1"></path>
    <path d="M0 12.19h1.53v6.1H0Z" fill="#000000" stroke-width="1"></path>
  </g>
</svg>