<svg xmlns="http://www.w3.org/2000/svg" viewBox="0 0 32 32" id="Hand-Zoom--Streamline-Pixel">
  <desc>
    Hand Zoom Streamline Icon: https://streamlinehq.com
  </desc>
  <title>hand-zoom</title>
  <g>
    <path d="M29.71 13.72h1.53v6.09h-1.53Z" fill="#000000" stroke-width="1"></path>
    <path d="M28.19 19.81h1.52v4.58h-1.52Z" fill="#000000" stroke-width="1"></path>
    <path d="M28.19 12.19h1.52v1.53h-1.52Z" fill="#000000" stroke-width="1"></path>
    <path d="M26.67 27.43H12.95v-3.04h-1.52v3.04H9.9V32h19.81v-4.57h-1.52v-3.04h-1.52Zm0 3.05h-3.05v-1.52h3.05Z" fill="#000000" stroke-width="1"></path>
    <path d="M26.67 10.67h1.52v1.52h-1.52Z" fill="#000000" stroke-width="1"></path>
    <path d="M25.14 13.72h1.53v3.05h-1.53Z" fill="#000000" stroke-width="1"></path>
    <path d="M20.57 13.72h1.53v3.05h-1.53Z" fill="#000000" stroke-width="1"></path>
    <path d="M16 13.72h1.52v3.05H16Z" fill="#000000" stroke-width="1"></path>
    <path d="m16 10.67 10.67 0 0 -1.52 -9.15 0 0 -7.62 -1.52 0 0 9.14z" fill="#000000" stroke-width="1"></path>
    <path d="M12.95 0H16v1.53h-3.05Z" fill="#000000" stroke-width="1"></path>
    <path d="M9.9 21.34h1.53v3.05H9.9Z" fill="#000000" stroke-width="1"></path>
    <path d="m11.43 15.24 0 3.05 1.52 0 0 -16.76 -1.52 0 0 12.19 -1.53 0 0 1.52 1.53 0z" fill="#000000" stroke-width="1"></path>
    <path d="M8.38 19.81H9.9v1.53H8.38Z" fill="#000000" stroke-width="1"></path>
    <path d="M8.38 12.19H9.9v1.53H8.38Z" fill="#000000" stroke-width="1"></path>
    <path d="m8.38 4.58 1.52 0L9.9 0 5.33 0l0 1.53 1.53 0 0 1.52 1.52 0 0 1.53z" fill="#000000" stroke-width="1"></path>
    <path d="M6.86 18.29h1.52v1.52H6.86Z" fill="#000000" stroke-width="1"></path>
    <path d="M5.33 10.67h3.05v1.52H5.33Z" fill="#000000" stroke-width="1"></path>
    <path d="M5.33 16.77h1.53v1.52H5.33Z" fill="#000000" stroke-width="1"></path>
    <path d="M5.33 3.05h1.53v1.53H5.33Z" fill="#000000" stroke-width="1"></path>
    <path d="M3.81 12.19h1.52v4.58H3.81Z" fill="#000000" stroke-width="1"></path>
    <path d="m5.33 7.62 -1.52 0 0 -1.52 -1.52 0 0 -1.52 -1.53 0 0 4.57 4.57 0 0 -1.53z" fill="#000000" stroke-width="1"></path>
    <path d="M3.81 4.58h1.52V6.1H3.81Z" fill="#000000" stroke-width="1"></path>
  </g>
</svg>