<svg xmlns="http://www.w3.org/2000/svg" viewBox="0 0 32 32" id="Hand-Writing--Streamline-Pixel">
  <desc>
    Hand Writing Streamline Icon: https://streamlinehq.com
  </desc>
  <title>hand-writing</title>
  <g>
    <path d="M28.19 13.71h1.52v10.67h-1.52Z" fill="#000000" stroke-width="1"></path>
    <path d="M26.67 27.43H11.43v-1.52H9.9v1.52H8.38V32h21.33v-4.57h-1.52v-3.05h-1.52Zm0 3.05h-3.05v-1.53h3.05Z" fill="#000000" stroke-width="1"></path>
    <path d="M26.67 12.19h1.52v1.52h-1.52Z" fill="#000000" stroke-width="1"></path>
    <path d="M23.62 13.71h1.52v4.58h-1.52Z" fill="#000000" stroke-width="1"></path>
    <path d="M23.62 10.67h3.05v1.52h-3.05Z" fill="#000000" stroke-width="1"></path>
    <path d="M20.57 4.57h1.52V6.1h-1.52Z" fill="#000000" stroke-width="1"></path>
    <path d="m22.09 4.57 1.53 0 0 -4.57 -4.57 0 0 1.52 3.04 0 0 3.05z" fill="#000000" stroke-width="1"></path>
    <path d="M19.05 13.71h1.52v4.58h-1.52Z" fill="#000000" stroke-width="1"></path>
    <path d="M19.05 6.1h1.52v1.52h-1.52Z" fill="#000000" stroke-width="1"></path>
    <path d="M19.05 3.05h1.52v1.52h-1.52Z" fill="#000000" stroke-width="1"></path>
    <path d="M17.52 1.52h1.53v1.53h-1.53Z" fill="#000000" stroke-width="1"></path>
    <path d="M16 3.05h1.52v1.52H16Z" fill="#000000" stroke-width="1"></path>
    <path d="M14.48 13.71H16v4.58h-1.52Z" fill="#000000" stroke-width="1"></path>
    <path d="m14.48 10.67 9.14 0 0 -1.53 -4.57 0 0 -1.52 -1.53 0 0 1.52 -1.52 0 0 -4.57 -4.57 0 0 1.53 3.05 0 0 4.57z" fill="#000000" stroke-width="1"></path>
    <path d="m9.9 15.24 -1.52 0 0 1.52 1.52 0 0 3.05 1.53 0 0 -13.71 -1.53 0 0 3.04 -1.52 0 0 1.53 1.52 0 0 4.57z" fill="#000000" stroke-width="1"></path>
    <path d="M8.38 24.38H9.9v1.53H8.38Z" fill="#000000" stroke-width="1"></path>
    <path d="M6.86 21.33h1.52v3.05H6.86Z" fill="#000000" stroke-width="1"></path>
    <path d="M6.86 16.76h1.52v1.53H6.86Z" fill="#000000" stroke-width="1"></path>
    <path d="M6.86 10.67h1.52v1.52H6.86Z" fill="#000000" stroke-width="1"></path>
    <path d="M5.33 18.29h1.53v3.04H5.33Z" fill="#000000" stroke-width="1"></path>
    <path d="M5.33 12.19h1.53v1.52H5.33Z" fill="#000000" stroke-width="1"></path>
    <path d="M3.81 16.76h1.52v1.53H3.81Z" fill="#000000" stroke-width="1"></path>
    <path d="M3.81 13.71h1.52v1.53H3.81Z" fill="#000000" stroke-width="1"></path>
    <path d="M2.29 15.24h1.52v1.52H2.29Z" fill="#000000" stroke-width="1"></path>
  </g>
</svg>