<svg xmlns="http://www.w3.org/2000/svg" viewBox="0 0 32 32" id="Hand-Gesture-Finger-Click--Streamline-Pixel">
  <desc>
    Hand Gesture Finger Click Streamline Icon: https://streamlinehq.com
  </desc>
  <title>hand-gesture-finger-click</title>
  <g>
    <path d="M25.135 21.33h1.53v7.62h-1.53Z" fill="#000000" stroke-width="1"></path>
    <path d="M23.615 28.95h1.52v1.53h-1.52Z" fill="#000000" stroke-width="1"></path>
    <path d="M23.615 19.81h1.52v1.52h-1.52Z" fill="#000000" stroke-width="1"></path>
    <path d="M22.095 30.48h1.52V32h-1.52Z" fill="#000000" stroke-width="1"></path>
    <path d="M22.095 18.29h1.52v1.52h-1.52Z" fill="#000000" stroke-width="1"></path>
    <path d="m22.095 18.29 0 -1.53 -6.1 0 0 -6.09 -1.52 0 0 7.62 7.62 0z" fill="#000000" stroke-width="1"></path>
    <path d="M20.565 3.05h1.53v1.52h-1.53Z" fill="#000000" stroke-width="1"></path>
    <path d="M19.045 19.81h1.52v4.57h-1.52Z" fill="#000000" stroke-width="1"></path>
    <path d="M19.045 4.57h1.52V6.1h-1.52Z" fill="#000000" stroke-width="1"></path>
    <path d="M17.525 6.1h1.52v1.52h-1.52Z" fill="#000000" stroke-width="1"></path>
    <path d="M14.475 19.81h1.52v4.57h-1.52Z" fill="#000000" stroke-width="1"></path>
    <path d="M11.425 9.14h3.05v1.53h-3.05Z" fill="#000000" stroke-width="1"></path>
    <path d="M12.945 0h1.53v4.57h-1.53Z" fill="#000000" stroke-width="1"></path>
    <path d="M9.905 28.95h1.52V32h-1.52Z" fill="#000000" stroke-width="1"></path>
    <path d="m9.905 22.86 1.52 0 0 -12.19 -1.52 0 0 7.62 -3.05 0 0 1.52 3.05 0 0 3.05z" fill="#000000" stroke-width="1"></path>
    <path d="M8.375 27.43h1.53v1.52h-1.53Z" fill="#000000" stroke-width="1"></path>
    <path d="M8.375 6.1h1.53v1.52h-1.53Z" fill="#000000" stroke-width="1"></path>
    <path d="M6.855 25.91h1.52v1.52h-1.52Z" fill="#000000" stroke-width="1"></path>
    <path d="M6.855 4.57h1.52V6.1h-1.52Z" fill="#000000" stroke-width="1"></path>
    <path d="M5.335 19.81h1.52v6.1h-1.52Z" fill="#000000" stroke-width="1"></path>
    <path d="M5.335 3.05h1.52v1.52h-1.52Z" fill="#000000" stroke-width="1"></path>
  </g>
</svg>