<svg xmlns="http://www.w3.org/2000/svg" viewBox="0 0 24 24" id="Focus-Auto-1--Streamline-Ultimate">
  <desc>
    Focus Auto 1 Streamline Icon: https://streamlinehq.com
  </desc>
  <g id="Focus-Auto-1--Streamline-Ultimate.svg">
    <path d="M12 5.75a3.5 3.5 0 0 0 -3.5 3.5v8a1 1 0 0 0 2 0v-3.5a0.25 0.25 0 0 1 0.25 -0.25h2.5a0.25 0.25 0 0 1 0.25 0.25v3.5a1 1 0 0 0 2 0v-8a3.5 3.5 0 0 0 -3.5 -3.5Zm-1.25 5.75a0.25 0.25 0 0 1 -0.25 -0.25v-2a1.5 1.5 0 0 1 3 0v2a0.25 0.25 0 0 1 -0.25 0.25Z" fill="#000000" stroke-width="1"></path>
    <path d="M5 2.5a1 1 0 0 0 -1 -1H2a2 2 0 0 0 -2 2v2a1 1 0 0 0 2 0V4a0.5 0.5 0 0 1 0.5 -0.5H4a1 1 0 0 0 1 -1Z" fill="#000000" stroke-width="1"></path>
    <path d="M4 20.5H2.5A0.5 0.5 0 0 1 2 20v-1.5a1 1 0 0 0 -2 0v2a2 2 0 0 0 2 2h2a1 1 0 0 0 0 -2Z" fill="#000000" stroke-width="1"></path>
    <path d="M22 1.5h-2a1 1 0 0 0 0 2h1.5a0.5 0.5 0 0 1 0.5 0.5v1.5a1 1 0 0 0 2 0v-2a2 2 0 0 0 -2 -2Z" fill="#000000" stroke-width="1"></path>
    <path d="M23 17.5a1 1 0 0 0 -1 1V20a0.5 0.5 0 0 1 -0.5 0.5H20a1 1 0 0 0 0 2h2a2 2 0 0 0 2 -2v-2a1 1 0 0 0 -1 -1Z" fill="#000000" stroke-width="1"></path>
  </g>
</svg>