<svg xmlns="http://www.w3.org/2000/svg" viewBox="0 0 24 24" id="Photo-Frame--Streamline-Ultimate">
  <desc>
    Photo Frame Streamline Icon: https://streamlinehq.com
  </desc>
  <path d="M23 5.25A3 3 0 1 0 18.75 1a3 3 0 0 0 -4.5 0 3 3 0 0 0 -4.5 0 3 3 0 0 0 -4.5 0A3 3 0 1 0 1 5.25a3 3 0 0 0 0 4.5 3 3 0 0 0 0 4.5 3 3 0 0 0 0 4.5A3 3 0 1 0 5.25 23a3 3 0 0 0 4.5 0 3 3 0 0 0 4.5 0 3 3 0 0 0 4.5 0A3 3 0 1 0 23 18.75a3 3 0 0 0 0 -4.5 3 3 0 0 0 0 -4.5 3 3 0 0 0 0 -4.5ZM19.5 18.5a1 1 0 0 1 -1 1h-13a1 1 0 0 1 -1 -1v-13a1 1 0 0 1 1 -1h13a1 1 0 0 1 1 1Z" fill="#000000" stroke-width="1"></path>
</svg>