<svg xmlns="http://www.w3.org/2000/svg" viewBox="0 0 24 24" id="Picture-Stack-Landscape--Streamline-Ultimate">
  <desc>
    Picture Stack Landscape Streamline Icon: https://streamlinehq.com
  </desc>
  <g id="Picture-Stack-Landscape--Streamline-Ultimate.svg">
    <path d="M14.33 9.7a0.87 0.87 0 0 0 -1.7 0L11 13.17a0.27 0.27 0 0 1 -0.2 0.14 0.24 0.24 0 0 1 -0.22 -0.09l-1.1 -1.31a1.16 1.16 0 0 0 -2 0.15L5.07 16.2a0.5 0.5 0 0 0 0.43 0.8h11a0.5 0.5 0 0 0 0.46 -0.69Z" fill="#000000" stroke-width="1"></path>
    <path d="M20.5 18.5V2a2 2 0 0 0 -2 -2H2a2 2 0 0 0 -2 2v16.5a2 2 0 0 0 2 2h16.5a2 2 0 0 0 2 -2ZM2 2.5a0.5 0.5 0 0 1 0.5 -0.5H18a0.5 0.5 0 0 1 0.5 0.5V18a0.5 0.5 0 0 1 -0.5 0.5H2.5A0.5 0.5 0 0 1 2 18Z" fill="#000000" stroke-width="1"></path>
    <path d="M4 6a2 2 0 1 0 4 0 2 2 0 1 0 -4 0" fill="#000000" stroke-width="1"></path>
    <path d="M23 6a1 1 0 0 0 -1 1v14.5a0.5 0.5 0 0 1 -0.5 0.5H7a1 1 0 0 0 0 2h15a2 2 0 0 0 2 -2V7a1 1 0 0 0 -1 -1Z" fill="#000000" stroke-width="1"></path>
  </g>
</svg>