<svg xmlns="http://www.w3.org/2000/svg" fill="none" viewBox="0 0 24 24" id="Swap-Camera--Streamline-Ultimate">
  <desc>
    Swap Camera Streamline Icon: https://streamlinehq.com
  </desc>
  <path fill="#000000" fill-rule="evenodd" d="M8.64848 2.72832c0.09302 -0.08888 0.21673 -0.13848 0.3454 -0.13848h5.98072c0.1287 0 0.2524 0.0496 0.3454 0.13848l2.3457 2.24113h2.2902c0.0071 0 0.0142 0.00015 0.0213 0.00046 1.7543 0.07465 3.1484 1.49161 3.2228 3.23863 0.0003 0.00709 0.0004 0.01417 0.0004 0.02126v10.2165c0 0.0092 -0.0002 0.0185 -0.0007 0.0277 -0.0944 1.6978 -1.5588 3.0176 -3.257 2.9312H4.05489C2.3647 21.4741 0.89523 20.1778 0.800575 18.474c-0.000514 -0.0092 -0.00077 -0.0185 -0.00077 -0.0277V8.2298c0 -0.00709 0.00015 -0.01417 0.000452 -0.02126C0.874598 6.46152 2.26874 5.04456 4.02303 4.96991c0.00708 -0.00031 0.01417 -0.00046 0.02126 -0.00046h2.25847l2.34572 -2.24113Zm1.19157 6.4733c0.63365 -0.37134 1.37125 -0.58443 2.16095 -0.58443 2.0438 0 3.7531 1.43211 4.1791 3.34761h-1.0014c-0.3033 0 -0.5768 0.1828 -0.6929 0.463 -0.1161 0.2803 -0.0519 0.6029 0.1626 0.8174l1.8535 1.8535c0.2929 0.2929 0.7678 0.2929 1.0607 0l1.8535 -1.8535c0.2145 -0.2145 0.2786 -0.5371 0.1626 -0.8174 -0.1161 -0.2802 -0.3896 -0.463 -0.693 -0.463h-1.1785c-0.4463 -2.74893 -2.8312 -4.84761 -5.7062 -4.84761 -1.0634 0 -2.06193 0.28781 -2.91934 0.79028 -0.35737 0.20942 -0.47731 0.6689 -0.26788 1.02627 0.20942 0.35737 0.6689 0.4773 1.02627 0.26788ZM8.82324 13.834H7.82225c0.42675 1.9145 2.1356 3.3457 4.17875 3.3457 0.7315 0 1.4182 -0.1829 2.0189 -0.5048 0.365 -0.1957 0.8196 -0.0583 1.0153 0.3068 0.1956 0.3651 0.0583 0.8197 -0.3068 1.0153 -0.8132 0.4358 -1.7426 0.6827 -2.7274 0.6827 -2.8744 0 -5.25883 -2.0977 -5.70597 -4.8457H5.11621c-0.30335 0 -0.57682 -0.1827 -0.69291 -0.463 -0.11608 -0.2803 -0.05192 -0.6028 0.16258 -0.8173l1.85352 -1.8536c0.29289 -0.2929 0.76776 -0.2929 1.06066 0l1.85351 1.8536c0.2145 0.2145 0.27867 0.537 0.16258 0.8173 -0.11608 0.2803 -0.38956 0.463 -0.69291 0.463Z" clip-rule="evenodd" stroke-width="1"></path>
</svg>