<svg xmlns="http://www.w3.org/2000/svg" fill="none" viewBox="0 0 24 24" id="Dollar-Increase--Streamline-Sharp">
  <desc>
    Dollar Increase Streamline Icon: https://streamlinehq.com
  </desc>
  <g id="dollar-increase--dollar-increase-arrow-up-fluctuate-investment">
    <path id="Ellipse 1829" fill="#7af1ff" d="M0 9.252a9.25 9.25 0 1 0 18.5 0 9.25 9.25 0 1 0 -18.5 0" stroke-width="1"></path>
    <path id="Union" fill="#0c098c" fill-rule="evenodd" d="M9.25 2.50244c-3.72792 0 -6.75 3.02208 -6.75 6.75 0 3.19286 2.21679 5.86796 5.19522 6.57006l-1.98037 1.9804C2.36013 16.4143 0 13.109 0 9.25244 0 4.14381 4.14137 0.00244141 9.25 0.00244141c5.1086 0 9.25 4.14136859 9.25 9.24999859 0 0.57016 -0.0516 1.12826 -0.1503 1.66996h-2.5579c0.136 -0.5341 0.2082 -1.09359 0.2082 -1.66996 0 -3.72792 -3.0221 -6.75 -6.75 -6.75ZM8 5.25244h0.25v-1.5h2v1.5h0.25c1.1046 0 2 0.89543 2 2v0.5h-2v-0.5H8v0.44783l2.9339 0.65197c0.915 0.20335 1.5661 1.01498 1.5661 1.95236v0.9478c0 1.1046 -0.8954 2 -2 2h-0.25v1.5h-2v-1.5H8c-1.10457 0 -2 -0.8954 -2 -2v-0.5h2v0.5h2.5v-0.9478l-2.93386 -0.65196C6.65106 9.44929 6 8.63767 6 7.70027v-0.44783c0 -1.10457 0.89543 -2 2 -2Zm2.4161 10.67766 -6.29998 6.3 1.76776 1.7678L11.3 18.5818l3.6161 3.6161 0.8839 0.8839 0.8839 -0.8839 4.0458 -4.0458L23 20.4224l0.9999 -1v-6.5H17.5l-1 1 2.4619 2.4619L15.8 19.5462l-3.6161 -3.6161 -0.8839 -0.8839 -0.8839 0.8839Z" clip-rule="evenodd" stroke-width="1"></path>
  </g>
</svg>