<svg xmlns="http://www.w3.org/2000/svg" fill="none" viewBox="0 0 24 24" id="Shirt--Streamline-Sharp">
  <desc>
    Shirt Streamline Icon: https://streamlinehq.com
  </desc>
  <g id="shirt--clothing-t-shirt-men-top-shopping-fashion">
    <path id="Vector 2716" fill="#ff7972" d="M9 2.95367v-0.5l-7 2 1 5.5h3V21.9537l12 -0.0001V9.95361h3l1 -5.5 -7 -2v0.5c0 1.65686 -1.3431 3.00002 -3 3.00003 -1.6568 0.00002 -3 -1.34312 -3 -2.99997Z" stroke-width="1"></path>
    <path id="Union" fill="#0c098c" fill-rule="evenodd" d="m13.7498 0.796387 1.5934 0.455253 7 2 1.0891 0.31116 -0.2026 1.11436 -1 5.50004 -0.1866 1.0263h-2.7933v12l-1.25 0 -11.99996 0.0001 -1.25001 0v-12H1.95661l-0.18662 -1.0264 -0.999997 -5.49998 -0.20261 -1.11436L1.65643 3.2517l7 -1.99999L10.2498 0.796448V2.95361c0 0.96649 0.7835 1.74998 1.75 1.74997 0.9665 -0.00001 1.75 -0.78352 1.75 -1.75003V0.796387ZM16.1021 4.0685c-0.4898 1.80638 -2.1409 3.13506 -4.1023 3.13508 -1.9614 0.00002 -3.61243 -1.32864 -4.10222 -3.13502l-4.4653 1.2758 0.61077 3.35925h3.20678V20.7036l9.49997 0V8.70355h3.2068l0.6108 -3.35925 -4.4653 -1.2758Z" clip-rule="evenodd" stroke-width="1"></path>
  </g>
</svg>