<svg xmlns="http://www.w3.org/2000/svg" fill="none" viewBox="0 0 24 24" id="Summit--Streamline-Sharp">
  <desc>
    Summit Streamline Icon: https://streamlinehq.com
  </desc>
  <g id="summit--shop-target-flag-summit-mountain-goal">
    <path id="Vector" fill="#7af1ff" d="m9.70911 18.625 -2.44706 -2.447 4.44705 -5.9639 4.5862 5.8247 -2.5862 2.5862 -2 -2 -1.99999 2Z" stroke-width="1"></path>
    <path id="Vector 2790" fill="#7af1ff" d="M18.7091 1.625h-7v5h7v-5Z" stroke-width="1"></path>
    <path id="Union" fill="#0c098c" fill-rule="evenodd" d="M11.7091 0.375h-1.25v9.34024L6.25472 15.4379l-4.55295 6.197L0.239697 23.625l-0.000042 0H23.7603l-1.5634 -2.016 -4.9138 -6.3362 -4.324 -5.57566V7.875h7v-7.5h-8.25Zm3.5984 16.4298 -3.5714 -4.6052 -3.46668 4.7185 -0.11319 0.154 1.5529 1.5529 1.99997 -2 2 2 1.6953 -1.6953 -0.0969 -0.1249ZM17.4591 5.375h-4.5v-2.5h4.5v2.5Z" clip-rule="evenodd" stroke-width="1"></path>
  </g>
</svg>