<svg xmlns="http://www.w3.org/2000/svg" fill="none" viewBox="0 0 24 24" id="Wallet-Purse--Streamline-Sharp">
  <desc>
    Wallet Purse Streamline Icon: https://streamlinehq.com
  </desc>
  <g id="wallet-purse--money-payment-finance-wallet-purse">
    <path id="Vector 1290" fill="#ff7972" d="M22 21.875H2v-2.5c0 -5.5228 4.47715 -10 10 -10 5.5228 0 10 4.4772 10 10v2.5Z" stroke-width="1"></path>
    <path id="Union" fill="#0c098c" fill-rule="evenodd" d="M10.75 1.875v-1h-3.5v1c0 0.64861 0.13 1.26686 0.36537 1.83011 -2.37425 0.64244 -4.53999 1.79372 -6.37103 3.32884l2.24863 2.6821C5.79537 7.78575 8.75979 6.625 11.9999 6.625c3.2401 0 6.2045 1.16075 8.5069 3.09105l2.2486 -2.6821c-1.831 -1.53508 -3.9966 -2.68633 -6.3708 -3.32879 0.2354 -0.56326 0.3654 -1.18153 0.3654 -1.83016v-1h-3.5v1c0 0.69036 -0.5596 1.25 -1.25 1.25s-1.25 -0.55964 -1.25 -1.25Zm-10 17.5c0 -6.2132 5.0368 -11.25 11.25 -11.25s11.25 5.0368 11.25 11.25v3.75H0.75v-3.75ZM12 10.625c-4.83249 0 -8.75 3.9175 -8.75 8.75v1.25h17.5v-1.25c0 -4.8325 -3.9175 -8.75 -8.75 -8.75Z" clip-rule="evenodd" stroke-width="1"></path>
  </g>
</svg>