<svg xmlns="http://www.w3.org/2000/svg" fill="none" viewBox="0 0 24 24" id="Hand-Washing--Streamline-Sharp-Neon">
  <desc>
    Hand Washing Streamline Icon: https://streamlinehq.com
  </desc>
  <g id="hand-washing--hand-washing-clean-sanitize-washroom">
    <path id="Rectangle 2008" stroke="#000cfe" d="M15 7.86207C15 5.10345 19 2 19 2s4 3.10345 4 5.86207C23 10.1474 21.2091 12 19 12c-2.2091 0 -4 -1.8526 -4 -4.13793Z" stroke-width="1"></path>
    <path id="Vector 172" stroke="#c71dff" d="M0.25 22H11.5l9.5 -3v-0.3921C21 17.1676 19.8324 16 18.3921 16c-0.2599 0 -0.5184 0.0389 -0.7669 0.1153l-5.9527 1.8316c-0.1144 0.0352 -0.2333 0.0531 -0.353 0.0531l-4.81951 0" stroke-width="1"></path>
    <path id="Vector 173" stroke="#c71dff" d="M11.5 18v-3l-6.67218 -1.4298c-0.21794 -0.0467 -0.44021 -0.0702 -0.6631 -0.0702C2.41689 13.5 1 14.9169 1 16.6647V17" stroke-width="1"></path>
  </g>
</svg>