<svg viewBox="0 0 24 24" fill="none" xmlns="http://www.w3.org/2000/svg" id="Pet-Friendly-Hotel--Streamline-Sharp-Neon">
  <desc>
    Pet Friendly Hotel Streamline Icon: https://streamlinehq.com
  </desc>
  <g id="pet-friendly-hotel--pet-friendly-hotel-animals-canine-feline-cat-dog">
    <path id="Vector 1" d="M22 22.0001H2v-11.65l10 -9 10 9v11.65Z" stroke="#c71dff" stroke-width="1"></path>
    <path id="Vector 3609" d="m12 12 -3 3c0 1.6569 1.3431 3 3 3s3 -1.3431 3 -3l-3 -3Z" stroke="#000cfe" stroke-width="1"></path>
    <g id="Group 176929">
      <path id="Rectangle 456" d="M7.37421 12.2484c-0.20667 0 -0.37421 -0.1675 -0.37421 -0.3742 0 -0.2067 0.16754 -0.3742 0.37421 -0.3742" stroke="#000cfe" stroke-width="1"></path>
      <path id="Rectangle 457" d="M7.37383 11.5001c0.20668 0 0.37422 0.1675 0.37422 0.3742 0 0.2067 -0.16754 0.3742 -0.37422 0.3742" stroke="#000cfe" stroke-width="1"></path>
    </g>
    <g id="Group 176930">
      <path id="Rectangle 456_2" d="M10.0004 9.25221c-0.20774 0 -0.37613 -0.16839 -0.37613 -0.3761 0 -0.20772 0.16839 -0.37611 0.37613 -0.37611" stroke="#000cfe" stroke-width="1"></path>
      <path id="Rectangle 457_2" d="M9.99963 8.50023c0.20767 0 0.37607 0.16839 0.37607 0.37611 0 0.20771 -0.1684 0.3761 -0.37607 0.3761" stroke="#000cfe" stroke-width="1"></path>
    </g>
    <g id="Group 176931">
      <path id="Rectangle 456_3" d="M14.0004 9.25221c-0.2077 0 -0.3761 -0.16839 -0.3761 -0.3761 0 -0.20772 0.1684 -0.37611 0.3761 -0.37611" stroke="#000cfe" stroke-width="1"></path>
      <path id="Rectangle 457_3" d="M13.9996 8.50023c0.2077 0 0.3761 0.16839 0.3761 0.37611 0 0.20771 -0.1684 0.3761 -0.3761 0.3761" stroke="#000cfe" stroke-width="1"></path>
    </g>
    <g id="Group 176932">
      <path id="Rectangle 456_4" d="M16.6242 12.2484c-0.2067 0 -0.3742 -0.1675 -0.3742 -0.3742 0 -0.2067 0.1675 -0.3742 0.3742 -0.3742" stroke="#000cfe" stroke-width="1"></path>
      <path id="Rectangle 457_4" d="M16.6238 11.5001c0.2067 0 0.3742 0.1676 0.3742 0.3742 0 0.2067 -0.1675 0.3742 -0.3742 0.3742" stroke="#000cfe" stroke-width="1"></path>
    </g>
  </g>
</svg>