<svg xmlns="http://www.w3.org/2000/svg" fill="none" viewBox="0 0 24 24" id="Flu-Mask--Streamline-Sharp">
  <desc>
    Flu Mask Streamline Icon: https://streamlinehq.com
  </desc>
  <g id="flu-mask--health-medical-hospital-mask-flu-vaccine-protection">
    <path id="Ellipse 4" fill="#fddc5c" d="M5.87549 15.9836c3.38253 3.3846 8.86671 3.3846 12.24921 0l0 -10.50557H5.8755L5.87549 15.9836Z" stroke-width="1"></path>
    <path id="Union" fill="#0c098c" fill-rule="evenodd" d="M4.6255 4.22803H0v7.57957l0.360139 0.365 4.265351 4.3237v0.0048l0.36584 0.3661c3.87075 3.8732 10.14677 3.8732 14.01757 0l0.3658 -0.3661v-0.005l4.2652 -4.3235 0.3601 -0.365V4.22803H4.6255Zm0 2.5 -0.00001 6.20847L2.5 10.782V6.72803l2.1255 0ZM21.5 10.782l-2.1253 2.1543 0 -6.20827 2.1253 0V10.782ZM7.1255 6.72803l-0.00001 8.71447c2.78643 2.4394 6.96281 2.4394 9.74921 0l0 -8.71447H7.1255Zm2.46044 5.30517h4.82746v-2.5H9.58594v2.5Z" clip-rule="evenodd" stroke-width="1"></path>
  </g>
</svg>