<svg xmlns="http://www.w3.org/2000/svg" fill="none" viewBox="0 0 24 24" id="Medical-Ribbon-1--Streamline-Sharp">
  <desc>
    Medical Ribbon 1 Streamline Icon: https://streamlinehq.com
  </desc>
  <g id="medical-ribbon-1--ribbon-medical-cancer-health-beauty-symbol">
    <path id="Subtract" fill="#79ee8d" fill-rule="evenodd" d="M7.06096 13.2666c-2.72918 -2.7292 -2.72918 -7.15411 0 -9.88329 2.72918 -2.72918 7.15404 -2.72918 9.88324 0 2.7292 2.72918 2.7292 7.15409 0 9.88329l-1.6429 1.6429 3.9223 3.9223 -3.2988 3.2987 -3.9224 -3.9224 -3.93791 3.938 -3.28788 -3.2879 3.93801 -3.938 -1.65366 -1.6536Zm3.27164 -3.31214c-0.91473 -0.9147 -0.91473 -2.39772 0 -3.31241 0.9147 -0.9147 2.3977 -0.9147 3.3124 0 0.9147 0.91469 0.9147 2.39771 0 3.31241l-1.6562 1.65624 -1.6562 -1.65624Z" clip-rule="evenodd" stroke-width="1"></path>
    <path id="Union" fill="#0c098c" fill-rule="evenodd" d="M7.94479 4.2672c2.24101 -2.24103 5.87441 -2.24103 8.11551 0 2.241 2.24102 2.241 5.8744 0 8.1155l-0.766 0.7659 -1.5379 -1.5378 0.7724 -0.7725c1.4029 -1.40281 1.4029 -3.67729 0 -5.08014 -1.4028 -1.40285 -3.6773 -1.40285 -5.08017 0 -1.40286 1.40285 -1.40286 3.67733 0 5.08014l1.65617 1.6562 0.0001 0.0001 -0.0001 0.0001 3.5323 3.5323 0.007 -0.0069 2.8116 2.8117 -1.5309 1.531 -2.8118 -2.8119 0.0016 -0.0016 -3.53229 -3.5323 -0.0016 0.0016 -1.63592 -1.6359c-2.24103 -2.2411 -2.24103 -5.87448 0 -8.1155Zm0.77137 12.4192 -2.17184 2.1718 1.52012 1.5201 2.17186 -2.1718 -1.52014 -1.5201ZM17.828 2.49943c-3.2173 -3.217339 -8.43365 -3.217339 -11.65098 0 -3.21734 3.21734 -3.21734 8.43367 0 11.65097l0.76977 0.7698 -3.05412 3.0541 -0.88388 0.8839 0.88388 0.8839L7.18056 23.03l0.88388 0.8839 0.88388 -0.8839 3.05408 -3.0541 3.0385 3.0385 0.8839 0.8839 0.8839 -0.8839 3.2987 -3.2987 0.8839 -0.8839 -0.8839 -0.8839 -3.0384 -3.0384 0.759 -0.7591c3.2174 -3.2173 3.2174 -8.43363 0 -11.65097Zm-6.6116 5.0265c0.4265 -0.42654 1.1181 -0.42654 1.5446 0 0.4266 0.42654 0.4266 1.1181 0 1.54464l-0.7723 0.77233 -0.7723 -0.77233c-0.4265 -0.42654 -0.4265 -1.1181 0 -1.54464Z" clip-rule="evenodd" stroke-width="1"></path>
  </g>
</svg>