<svg xmlns="http://www.w3.org/2000/svg" fill="none" viewBox="0 0 24 24" id="Medical-Search-Diagnosis--Streamline-Sharp">
  <desc>
    Medical Search Diagnosis Streamline Icon: https://streamlinehq.com
  </desc>
  <g id="medical-search-diagnosis">
    <path id="Ellipse 423" fill="#ff7972" d="M1.25 11c0 2.5859 1.02723 5.0658 2.85571 6.8943S8.41414 20.75 11 20.75c2.5859 0 5.0658 -1.0272 6.8943 -2.8557C19.7228 16.0658 20.75 13.5859 20.75 11c0 -2.58586 -1.0272 -5.06581 -2.8557 -6.89429C16.0658 2.27723 13.5859 1.25 11 1.25c-2.58586 0 -5.06581 1.02723 -6.89429 2.85571C2.27723 5.93419 1.25 8.41414 1.25 11Z" stroke-width="1"></path>
    <path id="Union" fill="#0c098c" fill-rule="evenodd" d="M3.22183 3.22183C5.28473 1.15893 8.08262 0 11 0c2.9174 0 5.7153 1.15893 7.7782 3.22183S22 8.08262 22 11c0 2.3274 -0.7376 4.5788 -2.0833 6.4416l4.0836 4.0836L21.5254 24l-4.0835 -4.0835C15.579 21.2623 13.3275 22 11 22c-2.91738 0 -5.71527 -1.1589 -7.77817 -3.2218S0 13.9174 0 11c0 -2.91738 1.15893 -5.71527 3.22183 -7.77817ZM11 2.5c-2.25434 0 -4.41635 0.89553 -6.01041 2.48959C3.39553 6.58365 2.5 8.74566 2.5 11c0 2.2543 0.89553 4.4163 2.48959 6.0104C6.58365 18.6045 8.74566 19.5 11 19.5c2.2543 0 4.4163 -0.8955 6.0104 -2.4896C18.6045 15.4163 19.5 13.2543 19.5 11c0 -2.25434 -0.8955 -4.41635 -2.4896 -6.01041C15.4163 3.39553 13.2543 2.5 11 2.5Zm2.5 3.25V8.5h2.75v5H13.5v2.75h-5V13.5H5.75v-5H8.5V5.75h5Z" clip-rule="evenodd" stroke-width="1"></path>
  </g>
</svg>