<svg xmlns="http://www.w3.org/2000/svg" fill="none" viewBox="0 0 48 48" id="Mail-Send-Reply-All--Streamline-Plump">
  <desc>
    Mail Send Reply All Streamline Icon: https://streamlinehq.com
  </desc>
  <g id="mail-send-reply-all--email-message-reply-all-actions-action-arrow">
    <path id="Rectangle 129" stroke="#000000" stroke-linecap="round" stroke-linejoin="round" d="M15.5 8.75c-0.652 -0.271 -1.464 -0.17 -2.197 0.411 -1.12 0.886 -2.566 2.102 -4.373 3.748 -2.699 2.46 -4.194 4.278 -5.008 5.458a2.817 2.817 0 0 0 0 3.266c0.814 1.18 2.31 3 5.008 5.458 1.807 1.647 3.254 2.864 4.373 3.75 0.734 0.58 1.545 0.682 2.197 0.412" stroke-width="3"></path>
    <path id="Union" stroke="#000000" stroke-linejoin="round" d="M23.341 31.228c1.498 1.012 3.214 0.203 3.359 -1.599a91.73 91.73 0 0 0 0.238 -4.738c1.39 -0.097 2.624 -0.12 3.667 -0.103 2.268 0.035 4.113 1.626 4.79 3.79l2.698 8.61c0.327 1.046 1.085 1.913 2.17 2.064 0.44 0.062 0.966 0.104 1.58 0.104 0.59 0 1.099 -0.04 1.527 -0.097 1.082 -0.145 1.748 -1.108 1.769 -2.2 0.079 -4.145 -0.235 -8.467 -0.65 -12.208 -0.663 -5.986 -6.064 -10.061 -12.086 -10.15a99.557 99.557 0 0 1 -5.484 -0.224 86.76 86.76 0 0 0 -0.219 -4.106c-0.145 -1.801 -1.861 -2.61 -3.36 -1.598 -1.343 0.908 -3.18 2.235 -5.563 4.136 -2.95 2.352 -4.643 4.119 -5.598 5.3 -0.874 1.082 -0.874 2.5 0 3.581 0.956 1.182 2.648 2.949 5.598 5.3 2.384 1.902 4.22 3.23 5.564 4.138Z" stroke-width="3"></path>
  </g>
</svg>