<svg xmlns="http://www.w3.org/2000/svg" fill="none" viewBox="0 0 48 48" id="Smiley-Laughing-1--Streamline-Plump">
  <desc>
    Smiley Laughing 1 Streamline Icon: https://streamlinehq.com
  </desc>
  <g id="smiley-laughing-1">
    <path id="Ellipse 18" stroke="#000000" stroke-linecap="round" stroke-linejoin="round" d="M42.979 15c-3.37 -7.095 -10.602 -12 -18.98 -12C15.623 3 8.392 7.905 5.02 15m38.402 17C40.276 39.63 32.765 45 24 45c-8.766 0 -16.277 -5.37 -19.423 -13" stroke-width="1"></path>
    <path id="Ellipse 147" stroke="#000000" stroke-linejoin="round" d="M45.25 21.351c1.136 1.137 0.961 3.154 -0.392 4.507 -1.353 1.353 -3.37 1.529 -4.507 0.392 -1.413 -1.413 -1.977 -3.676 -2.202 -5.298a1.574 1.574 0 0 1 1.803 -1.803c1.622 0.224 3.885 0.789 5.298 2.202Z" stroke-width="1"></path>
    <path id="Ellipse 148" stroke="#000000" stroke-linejoin="round" d="M2.75 21.351c-1.137 1.137 -0.961 3.154 0.391 4.507 1.353 1.353 3.371 1.529 4.507 0.392 1.414 -1.413 1.978 -3.676 2.203 -5.298a1.574 1.574 0 0 0 -1.803 -1.803c-1.622 0.224 -3.885 0.789 -5.298 2.202Z" stroke-width="1"></path>
    <path id="Vector 1488" stroke="#000000" stroke-linecap="round" stroke-linejoin="round" d="M29 15s0.875 -2 3.5 -2 3.5 2 3.5 2" stroke-width="1"></path>
    <path id="Vector 1489" stroke="#000000" stroke-linecap="round" stroke-linejoin="round" d="M19 15s-0.875 -2 -3.5 -2 -3.5 2 -3.5 2" stroke-width="1"></path>
    <path id="Ellipse 25" stroke="#000000" stroke-linecap="round" stroke-linejoin="round" d="M24 39c5.24 0 9.697 -3.36 11.332 -8.043 0.663 -1.897 -1.284 -3.423 -3.262 -3.069 -2.144 0.385 -4.986 0.748 -8.07 0.748 -3.084 0 -5.926 -0.363 -8.07 -0.748 -1.977 -0.354 -3.924 1.172 -3.262 3.07C14.304 35.64 18.76 39 24 39Z" stroke-width="1"></path>
  </g>
</svg>