<svg xmlns="http://www.w3.org/2000/svg" fill="none" viewBox="0 0 48 48" id="Cloud-Off--Streamline-Plump">
  <desc>
    Cloud Off Streamline Icon: https://streamlinehq.com
  </desc>
  <g id="cloud-off--cloud-network-internet-disable-server-off">
    <path id="Union" fill="#ffffff" d="M11.05 18.693C6.228 20.08 3 24.063 3 29.5c0 6.607 4.768 11.069 11.37 11.33 2.582 0.102 5.754 0.17 9.63 0.17 3.876 0 7.048 -0.068 9.63 -0.17C40.232 40.57 45 36.107 45 29.5c0 -5.437 -3.228 -9.42 -8.05 -10.807 -0.527 -6.779 -5.164 -11.64 -12.173 -11.69a109.576 109.576 0 0 0 -1.554 0c-7.009 0.05 -11.646 4.912 -12.173 11.69Z" stroke-width="3"></path>
    <path id="Intersect" fill="#8fbffa" d="M12.8 12.8c2.035 -3.533 5.688 -5.764 10.423 -5.797a109.576 109.576 0 0 1 1.554 0c7.01 0.05 11.647 4.912 12.173 11.69C41.772 20.08 45 24.063 45 29.5c0 4.48 -2.191 7.973 -5.66 9.84L12.8 12.8Z" stroke-width="3"></path>
    <path id="Union_2" stroke="#2859c5" stroke-linecap="round" stroke-linejoin="round" d="M11.05 18.693C6.228 20.08 3 24.063 3 29.5c0 6.607 4.768 11.069 11.37 11.33 2.582 0.102 5.754 0.17 9.63 0.17 3.876 0 7.048 -0.068 9.63 -0.17 0.124 -0.005 0.247 -0.011 0.37 -0.019M12.802 12.798c2.035 -3.533 5.687 -5.762 10.42 -5.795a109.576 109.576 0 0 1 1.555 0c7.009 0.05 11.646 4.912 12.173 11.69C41.772 20.08 45 24.063 45 29.5c0 4.41 -2.124 7.864 -5.5 9.751" stroke-width="3"></path>
    <path id="Vector 864" stroke="#2859c5" stroke-linecap="round" stroke-linejoin="round" d="m5 5 40 40" stroke-width="3"></path>
  </g>
</svg>