<svg xmlns="http://www.w3.org/2000/svg" fill="none" viewBox="0 0 48 48" id="Drop-Down-Menu--Streamline-Plump">
  <desc>
    Drop Down Menu Streamline Icon: https://streamlinehq.com
  </desc>
  <g id="drop-down-menu--input-select-menu-drop-down-internet-form">
    <path id="Rectangle 1096" fill="#ffffff" d="M3.37248 32.3075c0.25121 2.4729 2.26079 4.2248 4.74318 4.3517C11.334 36.8236 16.5275 37 24 37s12.666 -0.1764 15.8843 -0.3408c2.4824 -0.1269 4.492 -1.8788 4.7432 -4.3517C44.8285 30.3291 45 27.5893 45 24c0 -3.5893 -0.1715 -6.3291 -0.3725 -8.3075 -0.2512 -2.4729 -2.2608 -4.2248 -4.7432 -4.3517C36.666 11.1764 31.4725 11 24 11s-12.666 0.1764 -15.88434 0.3408c-2.48239 0.1269 -4.49197 1.8788 -4.74318 4.3517C3.17152 17.6709 3 20.4107 3 24c0 3.5893 0.17152 6.3291 0.37248 8.3075Z" stroke-width="3"></path>
    <path id="Intersect" fill="#8fbffa" d="m24 37 0 -26c7.4726 0 12.666 0.1764 15.8843 0.3408 2.4824 0.1269 4.492 1.8788 4.7432 4.3517C44.8285 17.6709 45 20.4107 45 24c0 3.5893 -0.1715 6.3291 -0.3725 8.3075 -0.2512 2.4729 -2.2608 4.2248 -4.7432 4.3517C36.666 36.8236 31.4725 37 24 37Z" stroke-width="3"></path>
    <path id="Rectangle 1095" stroke="#2859c5" stroke-linejoin="round" d="M3.37248 32.3075c0.25121 2.4729 2.26079 4.2248 4.74318 4.3517C11.334 36.8236 16.5275 37 24 37s12.666 -0.1764 15.8843 -0.3408c2.4824 -0.1269 4.492 -1.8788 4.7432 -4.3517C44.8285 30.3291 45 27.5893 45 24c0 -3.5893 -0.1715 -6.3291 -0.3725 -8.3075 -0.2512 -2.4729 -2.2608 -4.2248 -4.7432 -4.3517C36.666 11.1764 31.4725 11 24 11s-12.666 0.1764 -15.88434 0.3408c-2.48239 0.1269 -4.49197 1.8788 -4.74318 4.3517C3.17152 17.6709 3 20.4107 3 24c0 3.5893 0.17152 6.3291 0.37248 8.3075Z" stroke-width="3"></path>
    <path id="Vector 1674" stroke="#2859c5" stroke-linecap="round" stroke-linejoin="round" d="M24 11v26" stroke-width="3"></path>
    <path id="Intersect_2" stroke="#2859c5" stroke-linecap="round" stroke-linejoin="round" d="M30 23s3.2671 4 4.5 4c1.2328 0 4.5 -4 4.5 -4" stroke-width="3"></path>
  </g>
</svg>