<svg xmlns="http://www.w3.org/2000/svg" fill="none" viewBox="0 0 48 48" stroke-width="3" id="Incognito-Mode--Streamline-Plump">
  <desc>
    Incognito Mode Streamline Icon: https://streamlinehq.com
  </desc>
  <g id="incognito-mode--internet-safe-mode-browser">
    <path id="Rectangle 237" fill="#8fbffa" d="M3.04951 23.0629c.11016 1.0888 1.06378 1.674 2.15738 1.713C7.70036 24.8648 13.2588 25 24 25s16.2996-.1352 18.7931-.2241c1.0936-.039 2.0472-.6242 2.1574-1.713C44.981 22.7611 45 22.409 45 22c0-.409-.019-.7611-.0495-1.0629-.1102-1.0888-1.0638-1.674-2.1574-1.713C40.2996 19.1352 34.7412 19 24 19s-16.29963.1352-18.79311.2241c-1.0936.039-2.04722.6242-2.15738 1.713C3.01896 21.2389 3 21.591 3 22c0 .409.01896.7611.04951 1.0629Z"></path>
    <path id="Subtract" fill="#8fbffa" d="M8.21484 19.1392c.31921-2.4984 1.02088-7.1667 2.27996-11.84884.5843-2.17287 2.4604-3.71122 4.702-3.90656C17.413 3.19068 20.4899 3 24.0001 3c3.5101 0 6.5871.19068 8.8032.3838 2.2416.19534 4.1177 1.73369 4.702 3.90655 1.2591 4.68215 1.9608 9.35045 2.28 11.84885C36.6255 19.068 31.6154 19 24.0001 19c-7.6153 0-12.6255.068-15.78526.1392Z"></path>
    <path id="Ellipse 536" fill="#ffffff" d="M7 38a7 7 0 1 0 14 0 7 7 0 1 0-14 0"></path>
    <path id="Ellipse 537" fill="#ffffff" transform="matrix(-1 0 0 1 41 31)" d="M0 7a7 7 0 1 0 14 0A7 7 0 1 0 0 7"></path>
    <path id="Ellipse 533" stroke="#2859c5" stroke-linejoin="round" d="M7 38a7 7 0 1 0 14 0 7 7 0 1 0-14 0"></path>
    <path id="Ellipse 534" stroke="#2859c5" stroke-linejoin="round" d="M41 38a7 7 0 1 1-14 0 7 7 0 1 1 14 0"></path>
    <path id="Ellipse 535" stroke="#2859c5" stroke-linecap="round" stroke-linejoin="round" d="M21 38c1.6569-1.3333 4.3431-1.3333 6 0"></path>
    <path id="Rectangle 56" stroke="#2859c5" stroke-linejoin="round" d="M3.04951 23.0629c.11016 1.0888 1.06378 1.674 2.15738 1.713C7.70036 24.8648 13.2588 25 24 25s16.2996-.1352 18.7931-.2241c1.0936-.039 2.0472-.6242 2.1574-1.713C44.981 22.7611 45 22.409 45 22c0-.409-.019-.7611-.0495-1.0629-.1102-1.0888-1.0638-1.674-2.1574-1.713C40.2996 19.1352 34.7412 19 24 19s-16.29963.1352-18.79311.2241c-1.0936.039-2.04722.6242-2.15738 1.713C3.01896 21.2389 3 21.591 3 22c0 .409.01896.7611.04951 1.0629Z"></path>
    <path id="Subtract_2" stroke="#2859c5" stroke-linejoin="round" d="M8.21484 19.1392c.31921-2.4984 1.02088-7.1667 2.27996-11.84884.5843-2.17287 2.4604-3.71122 4.702-3.90656C17.413 3.19068 20.4899 3 24.0001 3c3.5101 0 6.5871.19068 8.8032.3838 2.2416.19534 4.1177 1.73369 4.702 3.90655 1.2591 4.68215 1.9608 9.35045 2.28 11.84885"></path>
  </g>
</svg>