<svg xmlns="http://www.w3.org/2000/svg" fill="none" viewBox="0 0 48 48" id="Threat-Phone--Streamline-Plump">
  <desc>
    Threat Phone Streamline Icon: https://streamlinehq.com
  </desc>
  <g id="threat-phone--bug-phone-file-threat-danger-mobile">
    <path id="Subtract" fill="#8fbffa" d="M24.5 3.159v4.164a6.196 6.196 0 0 1 -0.749 2.929c-0.263 0.49 -0.532 1 -0.805 1.53 -1.519 2.94 -2.567 5.288 -3.292 7.143 -0.988 2.528 -0.714 5.237 0.775 7.377 1.454 2.092 3.806 3.279 6.325 3.455 1.712 0.12 3.795 0.216 6.199 0.238 -0.07 4.305 -0.209 7.541 -0.342 9.812 -0.147 2.52 -1.973 4.53 -4.487 4.771C25.809 44.8 22.477 45 18 45s-7.81 -0.2 -10.124 -0.422c-2.514 -0.24 -4.34 -2.25 -4.487 -4.771C3.2 36.583 3 31.413 3 24s0.2 -12.583 0.389 -15.807c0.147 -2.52 1.973 -4.53 4.487 -4.771C10.191 3.2 13.523 3 18 3c2.523 0 4.682 0.064 6.5 0.159Z" stroke-width="3"></path>
    <path id="Rectangle 1097" fill="#ffffff" d="M27.033 25.766c-2.918 -0.203 -4.717 -2.66 -3.653 -5.385 0.667 -1.706 1.655 -3.927 3.12 -6.764 1.53 -2.962 2.886 -5.252 4.01 -6.986 1.762 -2.716 5.218 -2.716 6.98 0 1.124 1.734 2.48 4.024 4.01 6.986 1.466 2.837 2.454 5.058 3.12 6.764 1.065 2.724 -0.735 5.182 -3.653 5.385A100.4 100.4 0 0 1 34 26a100.4 100.4 0 0 1 -6.967 -0.234Z" stroke-width="3"></path>
    <path id="Intersect" fill="#ffffff" d="m12.266 3.122 0.406 3.25A3 3 0 0 0 15.649 9h4.703a3 3 0 0 0 2.977 -2.628l0.406 -3.25C22.085 3.047 20.178 3 18 3c-2.177 0 -4.084 0.047 -5.734 0.122Z" stroke-width="3"></path>
    <path id="Rectangle 1095" stroke="#2859c5" stroke-linecap="round" stroke-linejoin="round" d="M32.935 31a228.45 228.45 0 0 1 -0.324 8.807c-0.147 2.52 -1.973 4.53 -4.487 4.771C25.809 44.8 22.477 45 18 45s-7.81 -0.2 -10.124 -0.422c-2.514 -0.24 -4.34 -2.25 -4.487 -4.771C3.2 36.583 3 31.413 3 24s0.2 -12.583 0.389 -15.807c0.147 -2.52 1.973 -4.53 4.487 -4.771C10.191 3.2 13.523 3 18 3a117.867 117.867 0 0 1 8.5 0.285" stroke-width="3"></path>
    <path id="Intersect_2" stroke="#2859c5" stroke-linecap="round" stroke-linejoin="round" d="m12.266 3.122 0.406 3.25A3 3 0 0 0 15.649 9h4.703a3 3 0 0 0 2.977 -2.627l0.406 -3.25" stroke-width="3"></path>
    <path id="Vector 1363" stroke="#2859c5" stroke-linecap="round" stroke-linejoin="round" d="M16 40h4" stroke-width="3"></path>
    <path id="Rectangle 128" stroke="#2859c5" stroke-linejoin="round" d="M27.033 25.766c-2.918 -0.203 -4.717 -2.66 -3.653 -5.385 0.667 -1.706 1.655 -3.927 3.12 -6.764 1.53 -2.962 2.886 -5.252 4.01 -6.986 1.762 -2.716 5.218 -2.716 6.98 0 1.124 1.734 2.48 4.024 4.01 6.986 1.466 2.837 2.454 5.058 3.12 6.764 1.065 2.724 -0.735 5.182 -3.653 5.385A100.4 100.4 0 0 1 34 26a100.4 100.4 0 0 1 -6.967 -0.234Z" stroke-width="3"></path>
    <path id="Vector 1479" stroke="#2859c5" stroke-linecap="round" stroke-linejoin="round" d="m34 11 0 5" stroke-width="3"></path>
    <path id="Vector 1480" stroke="#2859c5" stroke-linecap="round" stroke-linejoin="round" d="M34 20v1" stroke-width="3"></path>
  </g>
</svg>