<svg xmlns="http://www.w3.org/2000/svg" fill="none" viewBox="0 0 48 48" id="Ai-Generate-Voice-Robot-2--Streamline-Plump">
  <desc>
    Ai Generate Voice Robot 2 Streamline Icon: https://streamlinehq.com
  </desc>
  <g id="ai-generate-voice-robot-2--mic-audio-mike-microphone-artificial-intelligence-ai">
    <path id="Subtract" fill="#2859c5" fill-rule="evenodd" d="M5.001 26.659C5.086 34.042 11.097 40 18.501 40c7.4 0 13.41 -5.955 13.498 -13.334a8.74 8.74 0 0 1 3.118 0.416c0.915 0.3 1.404 1.189 1.344 2.084 -0.551 8.13 -6.817 14.691 -14.813 15.7a49.68 49.68 0 0 1 -0.114 0.784c-0.144 0.943 -0.855 1.744 -1.881 1.814 -0.32 0.021 -0.702 0.036 -1.152 0.036 -0.451 0 -0.834 -0.015 -1.153 -0.036 -1.026 -0.07 -1.738 -0.871 -1.88 -1.816a44.34 44.34 0 0 1 -0.11 -0.782C7.394 43.865 1.146 37.356 0.548 29.273c-0.073 -0.97 0.494 -1.895 1.462 -2.188a9.657 9.657 0 0 1 2.991 -0.426Z" clip-rule="evenodd" stroke-width="1"></path>
    <path id="Subtract_2" fill="#8fbffa" fill-rule="evenodd" d="M24.866 7.921A11.447 11.447 0 0 0 18.5 6C12.149 6 7 11.149 7 17.5v9C7 32.851 12.149 38 18.5 38S30 32.851 30 26.5V25c-3.567 -0.765 -6.055 -3.82 -6.316 -7.33 -0.094 -1.262 -0.184 -2.808 -0.184 -4.17 0 -2.04 0.495 -3.93 1.366 -5.579Z" clip-rule="evenodd" stroke-width="1"></path>
    <path id="Union" fill="#2859c5" fill-rule="evenodd" d="M38.5 2a1.5 1.5 0 0 0 -3 0v2.508c-4.954 0.079 -9 3.951 -9 8.992 0 1.25 0.083 2.711 0.175 3.947 0.179 2.395 1.964 4.403 4.425 4.698 1.538 0.185 3.584 0.355 5.9 0.355 2.316 0 4.361 -0.17 5.9 -0.355 2.461 -0.295 4.246 -2.303 4.425 -4.698 0.092 -1.236 0.175 -2.696 0.175 -3.947 0 -5.041 -4.046 -8.913 -9 -8.992V2Z" clip-rule="evenodd" stroke-width="1"></path>
    <path id="Union_2" fill="#8fbffa" fill-rule="evenodd" d="M35 13a1.5 1.5 0 0 0 -3 0v1a1.5 1.5 0 0 0 3 0v-1Zm7 0a1.5 1.5 0 0 0 -3 0v1a1.5 1.5 0 0 0 3 0v-1Z" clip-rule="evenodd" stroke-width="1"></path>
  </g>
</svg>