<svg xmlns="http://www.w3.org/2000/svg" fill="none" viewBox="0 0 24 24" id="Dribbble-Logo--Streamline-Logos">
  <desc>
    Dribbble Logo Streamline Icon: https://streamlinehq.com
  </desc>
  <path fill="#000000" fill-rule="evenodd" d="M16.457 22.06c-0.623 -3.072 -1.435 -5.923 -2.496 -8.63 -3.412 0.865 -5.972 3.14 -8.886 7.117A10.954 10.954 0 0 0 12 23c1.587 0 3.095 -0.336 4.457 -0.94Zm1.38 -0.735a11.004 11.004 0 0 0 5.044 -7.7c-2.978 -0.588 -5.379 -0.742 -7.421 -0.478 0.994 2.583 1.77 5.29 2.377 8.178ZM23 12.12l0 -0.12c0 -2.651 -0.938 -5.083 -2.5 -6.983 -1.833 2.115 -3.915 3.574 -6.585 4.575 0.34 0.7 0.662 1.406 0.966 2.122 2.31 -0.359 4.95 -0.207 8.118 0.406Zm-3.534 -8.2A10.96 10.96 0 0 0 12 1a11 11 0 0 0 -3.175 0.465 46.817 46.817 0 0 1 4.405 6.781c2.56 -0.932 4.505 -2.295 6.235 -4.326ZM7.358 2.025a11.016 11.016 0 0 0 -6.193 8.064c4.467 -0.214 7.875 -0.61 10.613 -1.378a45.71 45.71 0 0 0 -4.42 -6.686Zm-6.35 9.573c4.758 -0.22 8.46 -0.641 11.47 -1.528 0.32 0.646 0.62 1.3 0.906 1.96 -3.754 1.017 -6.51 3.552 -9.414 7.488a10.962 10.962 0 0 1 -2.963 -7.92Z" clip-rule="evenodd" stroke-width="1"></path>
</svg>