<svg xmlns="http://www.w3.org/2000/svg" fill="none" viewBox="0 0 24 24" id="Path-Logo--Streamline-Logos">
  <desc>
    Path Logo Streamline Icon: https://streamlinehq.com
  </desc>
  <path fill="#000000" d="M12 1c-2.442 0 -4.99 0.912 -6.948 2.413C3.094 4.913 1.5 7.194 1.5 10a9.597 9.597 0 0 0 1.608 5.3l0.28 0.414 3.315 -2.237 -0.28 -0.415A5.597 5.597 0 0 1 5.5 10c0.001 -1.194 0.683 -2.413 1.986 -3.412C8.789 5.588 10.491 5 12 5c3.875 0 6.5 2.293 6.5 5 0 1.611 -0.547 2.557 -1.155 3.114 -0.649 0.594 -1.524 0.886 -2.345 0.886 -0.945 0 -1.811 -0.078 -2.5 -0.17V7.5h-4v11.507l-2.675 -0.595v4.098l1.807 0.401a4 4 0 0 0 4.868 -3.904v-1.148c0.726 0.08 1.578 0.141 2.5 0.141 1.7 0 3.576 -0.59 5.047 -1.936C21.558 14.679 22.5 12.624 22.5 10c0 -2.868 -1.347 -5.132 -3.334 -6.666C17.19 1.807 14.58 1 12 1Z" stroke-width="1"></path>
</svg>