<svg xmlns="http://www.w3.org/2000/svg" fill="none" viewBox="0 0 48 48" id="Businesswoman-3--Streamline-Kameleon">
  <desc>
    Businesswoman 3 Streamline Icon: https://streamlinehq.com
  </desc>
  <path fill="#fb983d" d="M24.0045 48.0025c13.2553 0 24.0006 -10.7453 24.0006 -24.0007 0 -13.2553 -10.7453 -24.0005793 -24.0006 -24.0005793C10.7492 0.0012207 0.00390625 10.7465 0.00390625 24.0018c0 13.2554 10.74529375 24.0007 24.00059375 24.0007Z" stroke-width="1"></path>
  <path fill="#000000" d="m24.005 30.5477 -3.0546 -0.4364 -7.0872 1.6897c-0.5105 0.1531 -0.9793 0.4212 -1.3702 0.7836 -0.3909 0.3624 -0.6936 0.8095 -0.885 1.307l-1.567 4.0745h13.964v-7.4184Z" stroke-width="1"></path>
  <path fill="#000000" d="m24.0049 30.5477 3.0546 -0.4364 7.0872 1.6897c0.5105 0.1531 0.9793 0.4212 1.3702 0.7836 0.3909 0.3624 0.6936 0.8095 0.885 1.307l1.567 4.0745h-13.964v-7.4184Z" stroke-width="1"></path>
  <path fill="#ffffff" fill-rule="evenodd" d="M24.0044 37.9662h0.4363l3.9274 -4.3638v-6.7599c-1.2397 1.9183 -2.9307 2.8247 -4.3637 3.3025 -1.4331 -0.4778 -3.124 -1.3842 -4.3638 -3.3025v6.7599l3.9274 4.3638h0.4364Z" clip-rule="evenodd" stroke-width="1"></path>
  <path fill="#ffffff" d="M30.5499 19.6722h-0.4363v-0.0091c-0.0079 -3.9309 -0.4469 -7.4097 -6.1093 -7.4097s-6.1014 3.4788 -6.1092 7.4097v0.0087h-0.4364c-0.4364 0 -0.8728 0.4852 -0.8728 0.9701 0 1.3484 0.3771 3.1113 1.8232 3.3613 1.0656 3.9711 3.5861 5.4722 5.5952 6.142 2.0091 -0.6698 4.5296 -2.1701 5.5952 -6.142 1.4462 -0.25 1.8232 -2.0125 1.8232 -3.3613 0 -0.4849 -0.4364 -0.9697 -0.8728 -0.9697Z" stroke-width="1"></path>
  <path fill="#000000" fill-rule="evenodd" d="M24.0046 34.431c0.7433 -0.5078 1.4541 -1.0617 2.1282 -1.6582 0.535 -0.4787 1.0513 -1.0037 1.43 -1.5217 0.3875 -0.5302 0.5874 -0.9932 0.5874 -1.3575h0.8728c0 0.6467 -0.3352 1.2973 -0.7559 1.8724 -0.4293 0.5874 -0.9949 1.1586 -1.5521 1.6574 -0.7422 0.6573 -1.5273 1.2644 -2.3504 1.8171l-0.36 0.2369 -0.36 -0.2369c-0.823 -0.5528 -1.6081 -1.1598 -2.3503 -1.8171 -0.5572 -0.4988 -1.1228 -1.0704 -1.5522 -1.6574 -0.4206 -0.5751 -0.7558 -1.2257 -0.7558 -1.8724h0.8728c0 0.3643 0.1998 0.8273 0.5873 1.3571 0.3788 0.5184 0.8946 1.0434 1.43 1.5225 0.6742 0.5966 1.385 1.15 2.1282 1.6578Z" clip-rule="evenodd" stroke-width="1"></path>
  <path fill="#000000" d="M24.8769 35.7842c0 0.2314 -0.0919 0.4533 -0.2556 0.6169 -0.1636 0.1637 -0.3855 0.2556 -0.6169 0.2556s-0.4534 -0.0919 -0.617 -0.2556c-0.1636 -0.1636 -0.2556 -0.3855 -0.2556 -0.6169 0 -0.4821 0.3905 -1.4541 0.8726 -1.4541 0.482 0 0.8725 0.972 0.8725 1.4541Z" stroke-width="1"></path>
  <path fill="#000000" d="m19.6363 27.9297 0.8775 4.8001 3.491 5.2365h-0.8727l-5.6729 -3.491 1.7455 -2.1819 -3.9274 -0.8727 4.359 -3.491Z" stroke-width="1"></path>
  <path fill="#000000" d="m28.3734 27.9297 -0.8775 4.8001 -3.491 5.2365h0.8727l5.6729 -3.491 -1.7455 -2.1819 3.9274 -0.8727 -4.359 -3.491Z" stroke-width="1"></path>
  <path fill="#000000" d="m28.3734 27.9297 -0.8775 4.8001 -3.491 5.2365h0.8727l5.6729 -3.491 -1.7455 -2.1819 3.9274 -0.8727 -4.359 -3.491Z" stroke-width="1"></path>
  <path fill="#000000" d="M33.4133 17.139c0.6349 -0.3814 1.0647 -1.07 1.0647 -1.8647 0 -1.3715 -1.265 -2.4362 -2.6571 -2.1269 -0.2609 -1.4749 -1.9213 -2.2909 -3.2641 -1.4819 -0.5424 -1.0564 -1.8345 -1.5269 -2.9568 -0.9255 -0.2038 -0.2199 -0.4505 -0.3961 -0.725 -0.5168 -0.2744 -0.1207 -0.5706 -0.1838 -0.8704 -0.1854 -0.6109 0 -1.187 0.2649 -1.595 0.7022 -1.1223 -0.6009 -2.4144 -0.1309 -2.9568 0.9255 -1.3432 -0.809 -3.0032 0.007 -3.2641 1.4819 -1.3916 -0.3093 -2.6571 0.7554 -2.6571 2.1269 0 0.7947 0.4294 1.4833 1.0647 1.8647 -2.4166 0.799 -1.7354 4.3742 0.8047 4.2319 -0.4787 1.3218 0.5149 2.6309 1.8398 2.6309 1.7459 0 1.5273 -2.6182 1.5273 -4.3637 3.4129 0.1449 5.2365 -3.3461 5.2365 -3.2728 0 -0.0733 1.824 3.4177 5.2365 3.2728 0 1.7455 -0.2182 4.3637 1.5273 4.3637 1.3253 0 2.3185 -1.3091 1.8397 -2.6309 2.5402 0.1427 3.2214 -3.4329 0.8052 -4.2319Z" stroke-width="1"></path>
  <path fill="#000000" d="M22.6954 20.5451c0 -0.2316 -0.092 -0.4536 -0.2557 -0.6173 -0.1637 -0.1637 -0.3857 -0.2557 -0.6172 -0.2557h-0.0026c0 0.0087 0.0026 0.0175 0.0026 0.0271 0 0.231 -0.0916 0.4527 -0.2548 0.6163 -0.1631 0.1637 -0.3845 0.2559 -0.6156 0.2566 0.0036 0.2312 0.0989 0.4515 0.2649 0.6124 0.166 0.1609 0.3891 0.2493 0.6203 0.2457 0.2312 -0.0036 0.4515 -0.0988 0.6124 -0.2648 0.1609 -0.166 0.2493 -0.3892 0.2457 -0.6203Z" stroke-width="1"></path>
  <path fill="#000000" d="M27.0567 20.5451c0 -0.2316 -0.0919 -0.4536 -0.2556 -0.6173 -0.1637 -0.1637 -0.3858 -0.2557 -0.6173 -0.2557h-0.0026c0.0004 0.0087 0.0026 0.0175 0.0026 0.0271 0 0.231 -0.0916 0.4527 -0.2548 0.6163 -0.1631 0.1637 -0.3845 0.2559 -0.6155 0.2566 0.0036 0.2312 0.0988 0.4515 0.2648 0.6124 0.166 0.1609 0.3892 0.2493 0.6203 0.2457 0.2312 -0.0036 0.4515 -0.0988 0.6124 -0.2648 0.1609 -0.166 0.2493 -0.3892 0.2457 -0.6203Z" stroke-width="1"></path>
  <path fill="#000000" d="M21.8223 25.3445h4.3637s0 1.3091 -2.1819 1.3091c-2.1818 0 -2.1818 -1.3091 -2.1818 -1.3091Z" stroke-width="1"></path>
  <path fill="#000000" fill-rule="evenodd" d="M28.3681 28.2376c-1.2829 1.5596 -2.8561 2.3626 -4.2127 2.8146l-0.1379 0.0463 -0.1384 -0.0463c-1.3536 -0.4512 -2.9438 -1.255 -4.2385 -2.8425v-1.3571c0.7299 1.1359 1.743 2.0623 2.9394 2.688 0.4602 0.2528 0.9411 0.466 1.4375 0.6371 0.6798 -0.2373 1.4112 -0.5699 2.1207 -1.0617 0.8922 -0.5959 1.6514 -1.3699 2.2299 -2.2735v1.3951Z" clip-rule="evenodd" stroke-width="1"></path>
  <path fill="#ffffff" fill-rule="evenodd" d="M24.874 37.9663h1.6652l5.3063 -3.2654 -1.488 -1.8589 4.129 -0.9177c-0.1123 -0.047 -0.2269 -0.0881 -0.3434 -0.1231l-1.5081 -0.3595 -3.8336 0.8518 1.7455 2.1818 -5.6729 3.491Z" clip-rule="evenodd" stroke-width="1"></path>
  <path fill="#ffffff" fill-rule="evenodd" d="M23.1349 37.9663h-1.6652l-5.3063 -3.2654 1.488 -1.8589 -4.1289 -0.9177c0.1112 -0.0467 0.226 -0.0877 0.3434 -0.1231l1.5081 -0.3595 3.8336 0.8518 -1.7455 2.1818 5.6728 3.491Z" clip-rule="evenodd" stroke-width="1"></path>
</svg>