<svg xmlns="http://www.w3.org/2000/svg" fill="none" viewBox="0 0 48 48" id="Fireman-2--Streamline-Kameleon">
  <desc>
    Fireman 2 Streamline Icon: https://streamlinehq.com
  </desc>
  <path fill="#ff78b9" d="M24.0006 48.0049c13.2553 0 24.0006 -10.7453 24.0006 -24.0006C48.0012 10.749 37.2559 0.00366211 24.0006 0.00366211 10.7453 0.00366211 0 10.749 0 24.0043s10.7453 24.0006 24.0006 24.0006Z" stroke-width="1"></path>
  <path fill="#000000" d="M18.7636 29.2415s-5.3844 1.1166 -6.982 2.1818c-1.3091 0.8728 -1.7455 6.5457 -1.7455 6.5457h27.928s-0.4364 -5.6729 -1.7455 -6.5457c-1.5975 -1.0652 -6.982 -2.1818 -6.982 -2.1818h-10.473Z" stroke-width="1"></path>
  <path fill="#ffffff" d="m26.1832 29.6752 -0.0755 0.1515c-0.1088 0.2174 -0.2759 0.4002 -0.4827 0.528 -0.2067 0.1278 -0.445 0.1955 -0.6881 0.1955H23.064c-0.2431 0 -0.4814 -0.0677 -0.6882 -0.1955 -0.2068 -0.1278 -0.3739 -0.3106 -0.4826 -0.528l-0.0755 -0.151c-1.4095 -0.6136 -2.3787 -1.8276 -3.0538 -3.2881v2.8534c-0.0131 0.021 0.0026 4.2128 4.1456 4.3568v4.3707h2.1819v-4.3707c4.1425 -0.1449 4.1455 -4.3568 4.1455 -4.3568v-2.8543c-0.6746 1.4606 -1.6442 2.675 -3.0537 3.2885Z" stroke-width="1"></path>
  <path fill="#ffffff" d="M18.3277 18.3315c-0.0017 0.144 -0.003 4.8002 -0.003 4.8002 -0.3548 1.3156 3.0297 6.5011 4.8032 6.5456h1.7455c1.7389 -0.0022 4.8001 -4.8001 4.8001 -6.5456 0 0 -0.0013 -4.6562 -0.0031 -4.8002H18.3277Z" stroke-width="1"></path>
  <path fill="#ffffff" d="m17.0886 31.1702 0.8025 -0.1832 -0.5455 -1.7455 -3.8183 0.8727 0.5455 1.7455 0.7519 -0.1719 0.8845 6.2812c0.909 0.1117 1.7817 -0.0681 2.6183 0l-1.2389 -6.7988Z" stroke-width="1"></path>
  <path fill="#ffffff" d="m34.474 30.1142 -3.8183 -0.8727 -0.5455 1.7455 0.8025 0.1832 -1.2389 6.7988c0.8366 -0.0681 1.7093 0.1117 2.6183 0l0.8845 -6.2812 0.7519 0.1719 0.5455 -1.7455Z" stroke-width="1"></path>
  <path fill="#000000" d="M21.8184 24.8772h4.3637s0 1.3091 -2.1819 1.3091c-2.1818 0 -2.1818 -1.3091 -2.1818 -1.3091Z" stroke-width="1"></path>
  <path fill="#000000" d="M24.0009 10.4771h-0.0048c-7.4131 0.0034 -6.9776 7.8547 -6.9776 7.8547h13.9601s0.4359 -7.8513 -6.9777 -7.8547Z" stroke-width="1"></path>
  <path fill="#ffffff" d="M27.4909 11.7857c0 -1.309 -3.4906 -3.05425 -3.4906 -3.05425s-3.4905 1.74525 -3.4905 3.05425c0 1.309 0.8726 1.7453 0.8726 3.0543h-0.8726v1.7452h6.9811V14.84h-0.8726c0 -1.309 0.8726 -1.7453 0.8726 -3.0543Z" stroke-width="1"></path>
  <path fill="#000000" d="m24.0639 10.375 0.6546 1.3266 1.4636 0.2121 -1.0591 1.0324 0.25 1.4579 -1.3091 -0.6881 -1.3091 0.6881 0.25 -1.4574 -1.0595 -1.0329 1.464 -0.2126 0.6546 -1.3261Z" stroke-width="1"></path>
  <path fill="#000000" d="M31.4312 18.332c-0.4364 -0.0175 -7.4184 0 -7.4184 0h-7.4314c-3.419 0 -1.3951 3.7659 1.1498 4.7408 0.5577 2.7836 1.6888 5.5589 4.0862 6.6023l0.0755 0.1514c0.1087 0.2175 0.2758 0.4004 0.4826 0.5283 0.2068 0.1279 0.4451 0.1956 0.6882 0.1957h1.8729c0.2431 0 0.4814 -0.0677 0.6882 -0.1955 0.2068 -0.1278 0.3739 -0.3106 0.4826 -0.528l0.0755 -0.1515c2.3935 -1.042 3.5251 -3.8104 4.0832 -6.5892 2.2578 -0.71 4.0316 -4.6422 1.1651 -4.7543Zm-2.195 4.3637c-0.4717 2.833 -1.4548 4.3873 -2.5344 5.2365h-5.4032c-1.0796 -0.8492 -2.0628 -2.4035 -2.5354 -5.2365h10.473Z" stroke-width="1"></path>
  <path fill="#ffffff" fill-rule="evenodd" d="M16.8479 20.368c0.087 -0.0904 0.1924 -0.1611 0.3091 -0.2071 0.1167 -0.046 0.242 -0.0663 0.3673 -0.0595 1.0106 0.0545 2.0911 0.2474 3.107 0.4285l0.2836 0.0506c1.128 0.2003 2.1653 0.3696 3.0861 0.3696 0.9207 0 1.958 -0.1693 3.086 -0.3696l0.2836 -0.0506c1.0155 -0.1811 2.096 -0.374 3.107 -0.4285 0.1253 -0.0068 0.2506 0.0135 0.3673 0.0596 0.1167 0.046 0.2221 0.1166 0.309 0.2071 0.0869 0.0904 0.1533 0.1986 0.1947 0.317 0.0414 0.1185 0.0567 0.2444 0.045 0.3693 -0.0742 0.7855 -0.3544 1.7926 -1.2786 2.5855 -0.9107 0.7812 -2.3102 1.2376 -4.3685 1.2376 -0.8859 0 -1.451 -0.6615 -1.7071 -0.9688 -0.0129 -0.0155 -0.0257 -0.031 -0.0384 -0.0466l-0.0389 0.0466c-0.2561 0.3073 -0.8208 0.9688 -1.7066 0.9688 -2.0584 0 -3.4583 -0.4564 -4.3686 -1.2376 -0.9242 -0.7929 -1.2048 -1.8 -1.2786 -2.5855 -0.0117 -0.1249 0.0036 -0.2509 0.0449 -0.3693 0.0414 -0.1185 0.1078 -0.2266 0.1947 -0.3171Z" clip-rule="evenodd" stroke-width="1"></path>
  <path fill="#000000" d="M24.0004 21.823c-2.0178 0 -4.4441 -0.738 -6.5238 -0.8501 0.1221 1.3035 0.8928 3.0319 4.7783 3.0319 0.8727 0 1.3091 -1.3091 1.7455 -1.3091 0.4363 0 0.8727 1.3091 1.7455 1.3091 3.8854 0 4.6556 -1.7284 4.7783 -3.0319 -2.0798 0.1121 -4.506 0.8501 -6.5238 0.8501Z" stroke-width="1"></path>
  <path fill="#ffffff" fill-rule="evenodd" d="M30.9826 18.332h-13.964v-0.8728h13.964v0.8728Z" clip-rule="evenodd" stroke-width="1"></path>
</svg>