<svg xmlns="http://www.w3.org/2000/svg" fill="none" viewBox="0 0 48 48" id="Rapper--Streamline-Kameleon">
  <desc>
    Rapper Streamline Icon: https://streamlinehq.com
  </desc>
  <path fill="#fb983d" d="M24.0006 48.0012c13.2553 0 24.0006 -10.7453 24.0006 -24.0006C48.0012 10.7453 37.2559 0 24.0006 0 10.7453 0 0 10.7453 0 24.0006c0 13.2553 10.7453 24.0006 24.0006 24.0006Z" stroke-width="1"></path>
  <path fill="#ffffff" fill-rule="evenodd" d="m19.6374 27.4917 2.2277 1.7438c0.1228 0.1378 0.2733 0.2481 0.4418 0.3236 0.1685 0.0755 0.351 0.1145 0.5356 0.1145h2.3172c0.3735 0 0.7292 -0.1593 0.9775 -0.4381l2.2277 -1.7438v2.6182l6.5268 1.753c0.587 0.2568 1.0594 0.72 1.3279 1.3017l1.7455 4.8001h-27.928l1.7455 -4.8001c0.2685 -0.5817 0.741 -1.0449 1.3279 -1.3017l6.5269 -1.753v-2.6182Z" clip-rule="evenodd" stroke-width="1"></path>
  <path fill="#ffffff" fill-rule="evenodd" d="M17.4548 19.6531c0.4364 0 0.4364 0.4848 0.4364 0.4848v-0.4844c0.0078 -3.9273 0.4468 -6.5456 6.1092 -6.5456 5.6624 0 6.1014 2.6183 6.1093 6.5456v0.4848s0 -0.4843 0.4363 -0.4843c0.4364 0 0.8728 0.4843 0.8728 0.9692 0 1.4225 -0.4194 3.3024 -1.6613 3.3862l-1.3933 3.4827 -2.2277 1.7438c-0.1229 0.1378 -0.2734 0.2481 -0.4419 0.3236 -0.1685 0.0755 -0.351 0.1146 -0.5356 0.1145h-2.3172c-0.1846 0.0001 -0.3671 -0.039 -0.5356 -0.1145 -0.1685 -0.0755 -0.319 -0.1858 -0.4419 -0.3236l-2.2276 -1.7438 -1.3934 -3.4831c-1.2419 -0.0838 -1.6613 -1.9637 -1.6613 -3.3863 0 -0.4844 0.4364 -0.9696 0.8728 -0.9696Z" clip-rule="evenodd" stroke-width="1"></path>
  <path fill="#000000" d="M32.2919 30.9832s-1.2594 -0.267 -1.7455 -0.4363c-0.514 4.4833 -1.6063 5.2369 -6.5456 5.2369s-6.0316 -0.7536 -6.5456 -5.2369c-0.4862 0.1693 -1.7455 0.4363 -1.7455 0.4363l-0.8728 6.982h18.3278l-0.8728 -6.982Z" stroke-width="1"></path>
  <path fill="#000000" d="M11.9187 36.5187c-0.2995 -0.0436 -0.5974 -0.0973 -0.8933 -0.161 -0.0087 -0.1558 -0.0131 -0.2365 -0.0205 -0.4002 0.3042 -0.4032 0.4844 -0.641 0.9024 -1.1127 0.0192 -0.5115 0.0393 -0.7654 0.1375 -1.2258 -0.1318 -0.2121 -0.1885 -0.3142 -0.2474 -0.4691l-0.0157 0.0148 -1.3266 3.6481c0.4804 0.213 0.8016 0.3085 1.4823 0.4718 -0.0021 -0.2889 -0.0082 -0.4447 -0.0187 -0.7659Z" stroke-width="1"></path>
  <path fill="#000000" d="M12.8652 33.0043c-0.2217 0.2501 -0.3365 0.3692 -0.556 0.6062 -0.0532 0.288 -0.0711 0.4394 -0.096 0.7475 0.3343 0.0083 0.5114 0.0117 0.8566 0.0061 0.0127 -0.2335 0.0201 -0.35 0.041 -0.5787 0.0703 -0.0039 0.1048 -0.0061 0.1741 -0.0113 -0.0255 0.3233 -0.0426 0.6472 -0.051 0.9714 -0.1225 0.0011 -0.245 0.0005 -0.3674 -0.0018 -0.0119 0.2928 -0.0183 0.5858 -0.0192 0.8789 0.147 0.0083 0.2212 0.0113 0.3687 0.0166 -0.0044 0.418 -0.0039 0.6279 -0.0048 1.0381 -0.0598 -0.0054 -0.1196 -0.0112 -0.1794 -0.0175v-0.631c-0.293 -0.0175 -0.5856 -0.0421 -0.8775 -0.0737 0.0057 0.3329 0.0109 0.4988 0.0183 0.8147 0.192 0.2653 0.2876 0.398 0.4779 0.6685 0.3617 0.0712 0.5498 0.1035 0.9303 0.1632 0.2099 -0.2269 0.3155 -0.3508 0.5223 -0.6126v-1.2834c-0.1771 -0.2082 -0.2661 -0.3103 -0.4442 -0.5145 0.1837 -0.2182 0.2749 -0.3312 0.4442 -0.569v-1.194c-0.1714 -0.2382 -0.2561 -0.3552 -0.408 -0.572 -0.3159 0.0781 -0.4913 0.1034 -0.8299 0.1483Z" stroke-width="1"></path>
  <path fill="#000000" d="M27.0571 25.762c-0.0384 -1.0635 0.2016 -2.1819 -3.0546 -2.1819s-3.0162 1.1184 -3.0546 2.1819c-0.055 1.5303 1.3091 2.1818 3.0546 3.491 1.7455 -1.3092 3.1096 -1.9607 3.0546 -3.491Zm-3.0546 1.3091c-2.1801 0.0131 -2.1068 -2.1784 -2.1801 -2.1959h4.3602c-0.0733 0.0179 0 2.2085 -2.1801 2.1959Z" stroke-width="1"></path>
  <path fill="#000000" d="M27.0268 19.4204h-6.0512c-0.5201 0 -2.6475 0.1654 -2.6475 1.5129s0.5437 2.6475 1.8908 2.6475c1.2441 0 2.8727 -1.0403 3.0119 -2.7862 0.1885 -0.1475 0.4599 -0.2392 0.7698 -0.2392h0.0021c0.3094 0 0.5813 0.0925 0.7685 0.24 0.1396 1.7455 1.7682 2.7858 3.0119 2.7858 1.3475 0 1.8908 -1.3004 1.8908 -2.6474 0 -1.3476 -2.1274 -1.5134 -2.6471 -1.5134Zm-3.8047 0.9347c-0.055 -0.2435 -0.2112 -0.4233 -0.419 -0.5564h2.3957c-0.2064 0.1323 -0.3613 0.3107 -0.4176 0.5512 -0.2427 -0.1168 -0.5091 -0.1761 -0.7785 -0.1733 -0.291 0.0083 -0.5581 0.0699 -0.7806 0.1785Z" stroke-width="1"></path>
  <path fill="#000000" d="m28.7362 16.2085 3.693 1.3833c1.0054 0.4381 0.9762 1.0792 -0.065 1.4239l-2.6326 0.8727c-3.7852 1.2071 -8.6656 0.679 -11.6613 -1.4025l10.6659 -2.2774Z" stroke-width="1"></path>
  <path fill="#000000" d="M17.0205 14.4172c-0.0773 -0.7611 4.8573 -3.0791 6.0381 -3.1991 1.1808 -0.12 6.0874 1.1974 6.1647 1.9585l0.754 3.5027c0.0772 0.7611 -2.7679 1.6735 -6.3549 2.0384 -3.587 0.3648 -6.5579 0.0436 -6.6351 -0.7174l0.0332 -3.5831Z" stroke-width="1"></path>
  <path fill="#ffffff" fill-rule="evenodd" d="M29.9805 16.6753c-0.0711 0.0864 -0.2099 0.2077 -0.4604 0.3508 -0.3342 0.192 -0.8038 0.3875 -1.3964 0.5739 -1.1843 0.3726 -2.8059 0.6925 -4.6954 0.8893 -1.9026 0.1977 -3.4866 0.2797 -4.6347 0.2138 -0.2552 -0.0136 -0.5096 -0.0391 -0.7624 -0.0763 0.1122 0.0261 0.2322 0.0501 0.3592 0.072 0.5669 0.3543 1.1667 0.6533 1.7909 0.8928 0.97 -0.0227 2.0954 -0.1052 3.3374 -0.2343 1.9287 -0.2008 3.6114 -0.5298 4.8664 -0.9247 0.6266 -0.1973 1.1608 -0.4146 1.5692 -0.6494 0.3661 -0.2094 0.6978 -0.4695 0.8597 -0.7959l-0.8335 -0.312Z" clip-rule="evenodd" stroke-width="1"></path>
  <path fill="#ffffff" d="M25.9762 14.103s1.2206 0.2736 1.3005 1.0606c0.0798 0.787 -0.9807 2.0875 -0.9807 2.0875s-1.3001 -1.0601 -1.3808 -1.8476c-0.0803 -0.787 1.061 -1.3005 1.061 -1.3005Z" stroke-width="1"></path>
</svg>