<svg xmlns="http://www.w3.org/2000/svg" fill="none" viewBox="0 0 48 48" id="Woman-15--Streamline-Kameleon">
  <desc>
    Woman 15 Streamline Icon: https://streamlinehq.com
  </desc>
  <path fill="#52c1ff" d="M24.0006 48.0012c13.2553 0 24.0006 -10.7453 24.0006 -24.0006C48.0012 10.7453 37.2559 0 24.0006 0 10.7453 0 0 10.7453 0 24.0006c0 13.2553 10.7453 24.0006 24.0006 24.0006Z" stroke-width="1"></path>
  <path fill="#ffffff" d="M17.9413 20.5417c-0.1627 0.0011 -0.3253 -0.0094 -0.4865 -0.0314 -0.4364 0 -0.8728 0.4848 -0.8728 0.9696 0 1.2742 0.3378 2.9167 1.595 3.3051l-0.2357 -4.2433Z" stroke-width="1"></path>
  <path fill="#ffffff" d="M30.5464 20.5103c-0.1612 0.022 -0.3238 0.0325 -0.4865 0.0314l-0.2357 4.2433c1.2572 -0.3884 1.595 -2.0305 1.595 -3.3051 0 -0.4848 -0.4364 -0.9696 -0.8728 -0.9696Z" stroke-width="1"></path>
  <path fill="#ffffff" d="M28.8004 20.3477c-2.4999 -0.741 -4.8001 -3.3287 -4.8001 -3.3287s-2.3001 2.5877 -4.8001 3.3287v6.5797c1.255 2.4459 3.1908 3.5189 4.8001 4.0556 1.6089 -0.5363 3.5451 -1.6097 4.8001 -4.0556v-6.5797Z" stroke-width="1"></path>
  <path fill="#000000" d="M36.3981 34.7639c-0.1914 -0.4976 -0.4941 -0.9447 -0.885 -1.3071 -0.3909 -0.3624 -0.8596 -0.6304 -1.3702 -0.7836l-5.778 -1.2533h-8.7275l-5.7781 1.2533c-0.5106 0.1532 -0.9793 0.4212 -1.3702 0.7836 -0.3909 0.3624 -0.6936 0.8095 -0.885 1.3071l-1.567 3.2016h27.928l-1.567 -3.2016Z" stroke-width="1"></path>
  <path fill="#000000" d="M28.364 30.9175v-1.2437c1.1355 0.2697 2.1549 0.868 2.9163 1.7124l1.4475 1.6041h-3.0546l0.0611 0.1156c1.0686 2.0305 -0.3099 4.8591 -4.8613 4.8591l3.491 -7.0475Z" stroke-width="1"></path>
  <path fill="#ffffff" fill-rule="evenodd" d="M19.6367 29.6743v-1.9829c1.2402 1.9144 2.932 2.8146 4.3638 3.292 1.4317 -0.4769 3.1235 -1.3776 4.3637 -3.292v3.2266l-3.491 7.0474h-1.7455l-3.491 -7.0474v-1.2437Z" clip-rule="evenodd" stroke-width="1"></path>
  <path fill="#000000" d="M19.6372 30.9175v-1.2437c-1.1355 0.2697 -2.1548 0.868 -2.9163 1.7124l-1.4475 1.6041h3.0547l-0.0611 0.1156c-1.0687 2.0305 0.3098 4.8591 4.8612 4.8591l-3.491 -7.0475Z" stroke-width="1"></path>
  <path fill="#000000" d="M21.8184 26.1831h4.3637s0 1.3091 -2.1819 1.3091c-2.1818 0 -2.1818 -1.3091 -2.1818 -1.3091Z" stroke-width="1"></path>
  <path fill="#000000" d="M22.6944 21.3832c0 -0.2315 -0.0919 -0.4536 -0.2556 -0.6173 -0.1638 -0.1637 -0.3858 -0.2556 -0.6173 -0.2556h-0.0026c0.0004 0.0091 0.0026 0.0178 0.0026 0.027 0 0.2311 -0.0916 0.4527 -0.2548 0.6164 -0.1631 0.1636 -0.3845 0.2559 -0.6155 0.2566 0.0098 0.2269 0.1077 0.441 0.2729 0.5968 0.1653 0.1559 0.3848 0.2411 0.6119 0.2375 0.2271 -0.0035 0.4438 -0.0955 0.6041 -0.2563 0.1604 -0.1609 0.2516 -0.378 0.2543 -0.6051Z" stroke-width="1"></path>
  <path fill="#000000" d="M27.0558 21.3832c0 -0.2315 -0.092 -0.4536 -0.2557 -0.6173 -0.1637 -0.1637 -0.3858 -0.2556 -0.6173 -0.2556h-0.0026c0 0.0091 0.0026 0.0183 0.0026 0.027 0 0.2311 -0.0916 0.4527 -0.2547 0.6164 -0.1632 0.1636 -0.3845 0.2559 -0.6156 0.2566 0.0098 0.2269 0.1077 0.441 0.2729 0.5968 0.1653 0.1559 0.3848 0.2411 0.6119 0.2375 0.2271 -0.0035 0.4439 -0.0955 0.6042 -0.2563 0.1603 -0.1609 0.2515 -0.378 0.2543 -0.6051Z" stroke-width="1"></path>
  <path fill="#000000" d="M26.5665 13.1819c0.0776 -0.3803 0.0696 -0.7732 -0.0234 -1.1501 -0.0929 -0.3769 -0.2685 -0.7285 -0.5141 -1.0291 -0.2456 -0.3007 -0.5549 -0.543 -0.9056 -0.7094 -0.3508 -0.1664 -0.7341 -0.2528 -1.1223 -0.2528 -0.3882 0 -0.7716 0.0864 -1.1223 0.2528 -0.3508 0.1664 -0.6601 0.4087 -0.9057 0.7094 -0.2455 0.3006 -0.4211 0.6522 -0.5141 1.0291 -0.093 0.3769 -0.1009 0.7698 -0.0234 1.1501 -3.0974 0.5695 -5.6951 2.8705 -3.9802 7.329 0.1613 0.022 0.3239 0.0325 0.4866 0.0314l0.2762 4.972c0.0825 1.4824 0.172 2.6427 0.9827 3.7241v-8.8899c2.5 -0.7409 4.8002 -3.3286 4.8002 -3.3286s2.2997 2.5877 4.8001 3.3286v8.8899c0.8108 -1.0814 0.9002 -2.2417 0.9827 -3.7245l0.2762 -4.9721c0.1628 0.0012 0.3254 -0.0093 0.4866 -0.0314 1.7149 -4.458 -0.8828 -6.759 -3.9802 -7.3285Z" stroke-width="1"></path>
  <path fill="#ffffff" fill-rule="evenodd" d="m14.5067 32.5321 1.4619 -0.3168 -0.4067 0.4504h3.0105l-0.3386 0.6401 -0.065 0.1231c-0.4931 0.9365 -0.4224 2.0466 0.2985 2.9346 0.6523 0.8043 1.8834 1.475 3.8357 1.6015h-3.2554c-0.5131 -0.2941 -0.9325 -0.6502 -1.258 -1.0517 -0.8191 -1.0089 -1.0015 -2.2573 -0.6166 -3.3749h-3.5744l0.6576 -0.7287 0.2505 -0.2776Z" clip-rule="evenodd" stroke-width="1"></path>
  <path fill="#ffffff" fill-rule="evenodd" d="m33.4889 32.5309 -1.4615 -0.3168 -0.483 -0.5354 0.8902 0.9871h-3.0097l0.3386 0.6402 0.0651 0.123c0.4926 0.9365 0.4224 2.0466 -0.2985 2.9346 -0.6528 0.8043 -1.8839 1.475 -3.8358 1.6015h3.255c0.5136 -0.2941 0.9329 -0.6502 1.2585 -1.0516 0.819 -1.0089 1.0014 -2.2574 0.6161 -3.375h3.5739l-0.6576 -0.7287 -0.2513 -0.2789Z" clip-rule="evenodd" stroke-width="1"></path>
  <path fill="#000000" fill-rule="evenodd" d="M28.3642 29.0865c-1.2825 1.5597 -2.8556 2.3626 -4.2127 2.8147l-0.1379 0.0462 -0.1379 -0.0462c-1.3545 -0.4508 -2.9443 -1.255 -4.239 -2.8421v-1.3572c0.7298 1.1359 1.7427 2.0623 2.939 2.6881 0.4602 0.2528 0.9411 0.466 1.4374 0.6371 0.6803 -0.2374 1.4117 -0.5699 2.1208 -1.0617 0.8922 -0.5959 1.6514 -1.37 2.2299 -2.2735v1.3951l0.0004 -0.0005Z" clip-rule="evenodd" stroke-width="1"></path>
</svg>