<svg xmlns="http://www.w3.org/2000/svg" fill="none" viewBox="0 0 14 14" id="Chat-Bubble-Typing-Oval--Streamline-Core">
  <desc>
    Chat Bubble Typing Oval Streamline Icon: https://streamlinehq.com
  </desc>
  <g id="chat-bubble-typing-oval--messages-message-bubble-typing-chat">
    <path id="Subtract" fill="#000000" fill-rule="evenodd" d="M6.998 0.046A6.954 6.954 0 1 1 4.099 13.32l-3.466 0.627a0.5 0.5 0 0 1 -0.556 -0.668l0.994 -2.646A6.954 6.954 0 0 1 6.998 0.046ZM5 7a1 1 0 1 1 -2 0 1 1 0 0 1 2 0Zm2 1a1 1 0 1 0 0 -2 1 1 0 0 0 0 2Zm3 0a1 1 0 1 0 0 -2 1 1 0 0 0 0 2Z" clip-rule="evenodd" stroke-width="1"></path>
  </g>
</svg>