<svg xmlns="http://www.w3.org/2000/svg" fill="none" viewBox="0 0 14 14"><g id="chat-bubble-oval-smiley-1--messages-message-bubble-chat-oval-smiley-smile"><path id="Subtract" fill="#3e3e3e" fill-rule="evenodd" d="M6.998.06a6.94 6.94 0 1 1-2.892 13.246l-3.458.626a.5.5 0 0 1-.557-.668l.991-2.64A6.94 6.94 0 0 1 6.998.06ZM4.302 7.833a.625.625 0 0 0-1.204.334c.594 2.141 2.945 3.425 5.07 2.835a.626.626 0 0 0 .046-.015c1.267-.46 2.33-1.504 2.689-2.823a.625.625 0 1 0-1.206-.328c-.238.874-.966 1.625-1.888 1.968-1.47.394-3.104-.52-3.507-1.971Zm1.136-2.864a.75.75 0 1 1-1.5 0 .75.75 0 0 1 1.5 0Zm3.875.75a.75.75 0 1 0 0-1.5.75.75 0 0 0 0 1.5Z" clip-rule="evenodd"></path></g></svg>