<svg xmlns="http://www.w3.org/2000/svg" fill="none" viewBox="0 0 14 14" id="Inbox-Tray-2--Streamline-Core">
  <desc>
    Inbox Tray 2 Streamline Icon: https://streamlinehq.com
  </desc>
  <g id="inbox-tray-2--mail-email-outbox-drawer-empty-open-inbox-arrow-up">
    <path id="Union" fill="#000000" fill-rule="evenodd" d="M10.193 3.546a0.75 0.75 0 0 1 -0.693 0.463l-1.75 0 0 2.75a0.75 0.75 0 0 1 -1.5 0l0 -2.75 -1.75 0a0.75 0.75 0 0 1 -0.53 -1.28l2.5 -2.5a0.75 0.75 0 0 1 1.06 0l2.5 2.5a0.75 0.75 0 0 1 0.163 0.817ZM0.5 8.33a0.5 0.5 0 0 0 -0.5 0.5v3.67A1.5 1.5 0 0 0 1.5 14h11a1.5 1.5 0 0 0 1.5 -1.5V8.83a0.5 0.5 0 0 0 -0.5 -0.5h-2.973a1.5 1.5 0 0 0 -1.5 1.5c0 0.974 -0.976 1.732 -2.03 1.725 -1.024 -0.007 -1.97 -0.768 -1.97 -1.725a1.5 1.5 0 0 0 -1.5 -1.5H0.5Z" clip-rule="evenodd" stroke-width="1"></path>
  </g>
</svg>