<svg xmlns="http://www.w3.org/2000/svg" fill="none" viewBox="0 0 14 14"><g id="mail-send-envelope--envelope-email-message-unopened-sealed-close"><path id="Subtract" fill="#3e3e3e" fill-rule="evenodd" d="M0 2.75a1.5 1.5 0 0 1 1.5-1.5h11a1.5 1.5 0 0 1 1.5 1.5v.342L7.383 7.504A.72.72 0 0 1 7 7.607a.72.72 0 0 1-.383-.103L0 3.092V2.75Zm0 1.844v6.656a1.5 1.5 0 0 0 1.5 1.5h11a1.5 1.5 0 0 0 1.5-1.5V4.594L8.073 8.546l-.005.004A1.966 1.966 0 0 1 7 8.857c-.375 0-.753-.102-1.068-.307l-.005-.004L0 4.594Z" clip-rule="evenodd"></path></g></svg>