<svg xmlns="http://www.w3.org/2000/svg" fill="none" viewBox="0 0 14 14" id="Smiley-Very-Shocked--Streamline-Core">
  <desc>
    Smiley Very Shocked Streamline Icon: https://streamlinehq.com
  </desc>
  <g id="smiley-very-shocked">
    <path id="Union" fill="#000000" fill-rule="evenodd" d="M6.99978 0.0482178c-1.85444 0 -3.57823 0.4823542 -4.85051 1.4734122C0.862553 2.52393 0.07465 4.01994 0.07465 5.94533c0 0.57801 0.050008 1.05448 0.147111 1.45899 0.323845 -0.21647 0.74956 -0.35919 1.262469 -0.28521 0.84236 0.12149 1.545 0.78502 2.14088 1.77816 0.97399 1.62333 1.17062 3.34433 1.1193 4.46813 0.56879 0.3435 1.29226 0.5331 2.25537 0.5331 0.96335 0 1.68695 -0.1897 2.2558 -0.5334 -0.05127 -1.1238 0.14539 -2.8446 1.11932 -4.46783 0.5959 -0.99315 1.2985 -1.65667 2.1409 -1.77817 0.5127 -0.07395 0.9383 0.06862 1.2621 0.28496 0.097 -0.40445 0.147 -0.88085 0.147 -1.45873 0 -1.92539 -0.7879 -3.4214 -2.0746 -4.4237C10.578 0.530572 8.85421 0.0482178 6.99978 0.0482178ZM5.99999 4.50002c0 1.38071 -0.89543 2.5 -2 2.5s-2 -1.11929 -2 -2.5c0 -1.38072 0.89543 -2.5 2 -2.5s2 1.11928 2 2.5Zm4 2.5c-1.10457 0 -2 -1.11929 -2 -2.5 0 -1.38072 0.89543 -2.5 2 -2.5C11.1046 2.00002 12 3.1193 12 4.50002c0 1.38071 -0.8954 2.5 -2.00001 2.5Zm-3 0.34295c0.41421 0 0.75 0.33579 0.75 0.75V9.844c0 0.4142 -0.33579 0.75 -0.75 0.75 -0.41422 0 -0.75 -0.3358 -0.75 -0.75V8.09297c0 -0.41421 0.33578 -0.75 0.75 -0.75ZM0.501918 10.7712c0.363491 1.4539 -0.151455 2.7262 -0.454364 3.1805l3.634906 0.0001c0.15146 -0.7573 0.18175 -2.7263 -0.90872 -4.54372C1.68326 7.59063 0.804827 8.04499 0.501918 8.49935c-0.151455 0.15146 -0.363491 0.81786 0 2.27185Zm12.996182 0c-0.3635 1.454 0.1514 2.7262 0.4543 3.1805l-3.6349 0.0001c-0.1514 -0.7573 -0.1817 -2.7262 0.9088 -4.5437 1.0904 -1.81746 1.9689 -1.36309 2.2718 -0.90873 0.1514 0.15145 0.3635 0.81785 0 2.27183Z" clip-rule="evenodd" stroke-width="1"></path>
  </g>
</svg>