<svg xmlns="http://www.w3.org/2000/svg" fill="none" viewBox="0 0 14 14"><g id="smiley-crying-1"><path id="Subtract" fill="#3e3e3e" fill-rule="evenodd" d="M14 7A7 7 0 1 0 0 7a7 7 0 0 0 14 0ZM4.994 3.826a2.143 2.143 0 0 0-.617.081 2.823 2.823 0 0 0-.68.275c-.224.13-.422.295-.578.451-.148.15-.292.326-.378.495a.625.625 0 1 0 1.112.57 1.432 1.432 0 0 1 .153-.185c.095-.095.207-.185.316-.248a1.579 1.579 0 0 1 .54-.184c.046-.006.069-.006.071-.006a.625.625 0 1 0 .061-1.249ZM4.67 9.694a.625.625 0 1 1-1.21-.324 3.665 3.665 0 0 1 7.078 0 .625.625 0 0 1-1.208.325 2.415 2.415 0 0 0-4.662 0Zm4.468-4.613c-.045-.006-.068-.006-.07-.006a.625.625 0 0 1-.062-1.249c.19-.009.414.027.618.081.213.056.455.146.68.275.224.13.422.295.577.451.15.15.292.326.38.495a.625.625 0 1 1-1.113.57 1.454 1.454 0 0 0-.153-.185 1.578 1.578 0 0 0-.317-.248 1.579 1.579 0 0 0-.54-.184Z" clip-rule="evenodd"></path></g></svg>