<svg xmlns="http://www.w3.org/2000/svg" fill="none" viewBox="0 0 14 14"><g id="smiley-drool"><path id="Union" fill="#3e3e3e" fill-rule="evenodd" d="M7.637 10.862a5.175 5.175 0 0 1 1.846-.707 4.48 4.48 0 0 1 .297-.04v1.354a1.231 1.231 0 0 1-2.462 0v-.38a3.19 3.19 0 0 1 .319-.227Zm2.587-1.643a1 1 0 0 0-.543-.099c-1.234.123-2.361.681-2.992 1.19a1 1 0 0 0-.369.712 3.493 3.493 0 0 1-2.097-1.115c-.573-.638-.85-1.42-.85-2a.5.5 0 0 1 .5-.5h6.218a.5.5 0 0 1 .5.5c0 .38-.12.851-.367 1.312ZM0 7a7 7 0 1 1 14 0A7 7 0 0 1 0 7Zm8.89-2.266a2.22 2.22 0 0 1 .558-1.165c.223.059.475.152.708.287.234.134.44.306.603.47.155.156.304.339.393.513a.625.625 0 1 1-1.112.57l-.011-.017a1.543 1.543 0 0 0-.157-.185 1.698 1.698 0 0 0-.34-.269 1.698 1.698 0 0 0-.642-.204Zm-4.919.658a2.22 2.22 0 0 1-.73-1.066 2.93 2.93 0 0 1 .603-.47c.233-.135.485-.228.708-.287a2.22 2.22 0 0 1 .64-.084.625.625 0 1 1-.06 1.248l-.022.001a1.544 1.544 0 0 0-.239.043c-.14.037-.284.093-.402.161a1.698 1.698 0 0 0-.498.454Z" clip-rule="evenodd"></path></g></svg>