<svg xmlns="http://www.w3.org/2000/svg" fill="none" viewBox="0 0 14 14"><g id="smiley-emoji-terrified"><path id="Subtract" fill="#3e3e3e" fill-rule="evenodd" d="M0 7a7 7 0 1 1 14 0A7 7 0 0 1 0 7Zm10.875-2.5a.625.625 0 0 0-.75-1l-2 1.5a.625.625 0 0 0 .095 1.059l2 1a.625.625 0 0 0 .56-1.118l-1.096-.548 1.191-.893ZM3 3.625a.625.625 0 0 1 .875-.125l2 1.5a.625.625 0 0 1-.095 1.059l-2 1a.625.625 0 1 1-.56-1.118l1.096-.548L3.125 4.5A.625.625 0 0 1 3 3.625Zm2.037 6.694a.625.625 0 0 1-1.074-.638L4.5 10l-.537-.32.002-.003.004-.006.014-.024a9.41 9.41 0 0 1 .246-.386c.162-.246.392-.577.656-.91.262-.33.573-.682.9-.958.302-.253.73-.54 1.215-.54.484 0 .913.287 1.215.54.327.276.638.627.9.958a13.255 13.255 0 0 1 .902 1.296l.014.024.004.006.002.002v.001L9.5 10l.537-.32a.625.625 0 0 1-1.074.64v-.001l-.003-.004-.011-.019a10.319 10.319 0 0 0-.22-.346c-.15-.227-.358-.526-.594-.823-.238-.3-.49-.579-.725-.777a1.614 1.614 0 0 0-.297-.206A.352.352 0 0 0 7 8.103a.352.352 0 0 0-.113.041c-.08.04-.18.108-.297.206a5.543 5.543 0 0 0-.725.777 12.005 12.005 0 0 0-.814 1.17l-.011.018-.002.004Z" clip-rule="evenodd"></path></g></svg>