<svg xmlns="http://www.w3.org/2000/svg" fill="none" viewBox="0 0 24 24" id="Gift-Box-1--Streamline-Ultimate">
  <desc>
    Gift Box 1 Streamline Icon: https://streamlinehq.com
  </desc>
  <path fill="#78eb7b" d="M17.2609 11.0435H6.73967c-0.25367 0 -0.49695 0.1008 -0.67632 0.2802 -0.17938 0.1793 -0.28015 0.4226 -0.28015 0.6763v0.9565c0 0.2536 0.10077 0.4969 0.28015 0.6763 0.17937 0.1794 0.42265 0.2801 0.67632 0.2801h0.47824l0.41511 5.8068c0.0172 0.2417 0.12552 0.4679 0.30306 0.6328 0.17755 0.1649 0.41108 0.2563 0.65341 0.2557h6.82731c0.2423 0.0006 0.4759 -0.0908 0.6534 -0.2557s0.2859 -0.3911 0.3031 -0.6328l0.4093 -5.8068h0.4783c0.2536 0 0.4969 -0.1007 0.6763 -0.2801s0.2801 -0.4227 0.2801 -0.6763V12c0 -0.2537 -0.1007 -0.497 -0.2801 -0.6763 -0.1794 -0.1794 -0.4227 -0.2802 -0.6763 -0.2802Z" stroke-width="1"></path>
  <path fill="#ff808c" d="M13.4348 11.0435h-2.8694v9.5647h2.8694v-9.5647Z" stroke-width="1"></path>
  <path stroke="#191919" stroke-linecap="round" stroke-linejoin="round" d="M10.5656 13.9129H6.73967c-0.25367 0 -0.49695 -0.1007 -0.67632 -0.2801 -0.17938 -0.1794 -0.28015 -0.4227 -0.28015 -0.6763V12c0 -0.2537 0.10077 -0.497 0.28015 -0.6763 0.17937 -0.1794 0.42265 -0.2802 0.67632 -0.2802H17.2609c0.2536 0 0.4969 0.1008 0.6763 0.2802 0.1794 0.1793 0.2801 0.4226 0.2801 0.6763v0.9565c0 0.2536 -0.1007 0.4969 -0.2801 0.6763s-0.4227 0.2801 -0.6763 0.2801H13.435" stroke-width="1"></path>
  <path stroke="#191919" stroke-linecap="round" stroke-linejoin="round" d="M13.4348 13.913h3.3477l-0.4151 5.8067c-0.0172 0.2417 -0.1255 0.4679 -0.3031 0.6328 -0.1775 0.165 -0.4111 0.2564 -0.6534 0.2558H8.58648c-0.24233 0.0006 -0.47586 -0.0908 -0.6534 -0.2558 -0.17755 -0.1649 -0.28586 -0.3911 -0.30307 -0.6328l-0.41224 -5.8067h3.34763" stroke-width="1"></path>
  <path stroke="#191919" stroke-linecap="round" stroke-linejoin="round" d="M10.5654 11.0435v9.5647" stroke-width="1"></path>
  <path stroke="#191919" stroke-linecap="round" stroke-linejoin="round" d="M13.4346 20.6082v-9.5647" stroke-width="1"></path>
  <path stroke="#191919" stroke-linecap="round" stroke-linejoin="round" d="M8.65217 9.78864c0.57389 0.57766 3.34763 1.25486 3.34763 1.25486s-0.6781 -2.77374 -1.2549 -3.34762c-0.2775 -0.27752 -0.6539 -0.43343 -1.04635 -0.43343 -0.39246 0 -0.76886 0.15591 -1.04638 0.43343 -0.27751 0.27751 -0.43342 0.65391 -0.43342 1.04638 0 0.39246 0.15591 0.76886 0.43342 1.04638Z" stroke-width="1"></path>
  <path stroke="#191919" stroke-linecap="round" stroke-linejoin="round" d="M15.3477 9.78869C14.7738 10.3664 12 11.0436 12 11.0436s0.6781 -2.77379 1.2549 -3.34767c0.2805 -0.26251 0.6521 -0.40571 1.0362 -0.39934 0.3841 0.00637 0.7508 0.1618 1.0224 0.43346 0.2717 0.27166 0.4271 0.63828 0.4335 1.02242 0.0064 0.38413 -0.1368 0.7557 -0.3993 1.03622Z" stroke-width="1"></path>
  <path stroke="#191919" stroke-linecap="round" stroke-linejoin="round" d="M12 4.82649V3.39178" stroke-width="1"></path>
  <path stroke="#191919" stroke-linecap="round" stroke-linejoin="round" d="m18.7627 7.628 1.0148 -1.01386" stroke-width="1"></path>
  <path stroke="#191919" stroke-linecap="round" stroke-linejoin="round" d="M21.5654 13.913h1.4347" stroke-width="1"></path>
  <path stroke="#191919" stroke-linecap="round" stroke-linejoin="round" d="M5.2365 7.628 4.22168 6.61414" stroke-width="1"></path>
  <path stroke="#191919" stroke-linecap="round" stroke-linejoin="round" d="M2.43471 13.913H1" stroke-width="1"></path>
</svg>