<svg xmlns="http://www.w3.org/2000/svg" fill="none" viewBox="0 0 24 24" id="Love-It-Break--Streamline-Ultimate">
  <desc>
    Love It Break Streamline Icon: https://streamlinehq.com
  </desc>
  <path fill="#ffbfc5" d="m8.65802 12.0264 3.35078 -6.62008 -1.5318 -1.39678c-0.62452 -0.6148 -1.38483 -1.07414 -2.21957 -1.34098 -0.83474 -0.26683 -1.72052 -0.33367 -2.58584 -0.19512 -0.86533 0.13856 -1.68595 0.47862 -2.39565 0.99274 -0.7097 0.51412 -1.28857 1.1879 -1.6899 1.96694 -0.52103 1.02805 -0.701132 2.19532 -0.5142 3.3326 0.18694 1.13728 0.7312 2.18548 1.55388 2.99268L11.7149 21.6l3.1707 -9.5736H8.65802Z" stroke-width="1"></path>
  <path fill="#ff808c" d="M22.4375 5.43316c-0.4015 -0.7789 -0.9804 -1.45251 -1.6901 -1.9665 -0.7097 -0.51401 -1.5303 -0.85398 -2.3956 -0.99253 -0.8652 -0.13854 -1.7509 -0.07177 -2.5856 0.19495 -0.8347 0.26671 -1.595 0.7259 -2.2196 1.34049l-1.5318 1.39678 -3.35074 6.62015h6.22284L11.7161 21.6l9.3821 -9.6626c0.9176 -0.7788 1.5481 -1.8424 1.7908 -3.02124 0.2428 -1.17884 0.0838 -2.40501 -0.4515 -3.483Z" stroke-width="1"></path>
  <path stroke="#191919" stroke-linecap="round" stroke-linejoin="round" d="m11.7149 21.6 -9.08918 -9.8416c-0.82268 -0.8072 -1.36694 -1.85541 -1.55388 -2.99269 -0.186932 -1.13728 -0.00683 -2.30453 0.5142 -3.33258 0.40133 -0.77905 0.9802 -1.45282 1.6899 -1.96695 0.7097 -0.51412 1.53032 -0.85418 2.39565 -0.99273 0.86532 -0.13856 1.7511 -0.07172 2.58584 0.19512 0.83474 0.26682 1.59505 0.72618 2.21957 1.34097l1.5318 1.39679 1.5317 -1.39679c0.6246 -0.61577 1.3853 -1.07594 2.2206 -1.34335 0.8354 -0.2674 1.7219 -0.33452 2.5879 -0.19594 0.8662 0.13859 1.6875 0.47899 2.3976 0.99369 0.7102 0.5147 1.2894 1.18927 1.6906 1.96919 0.5352 1.07809 0.694 2.30433 0.4511 3.48318 -0.2429 1.17889 -0.8736 2.24239 -1.7914 3.02109L11.7149 21.6Z" stroke-width="1"></path>
  <path stroke="#191919" stroke-linecap="round" stroke-linejoin="round" d="M12.0089 5.40631 8.6582 12.0264h6.2228L11.7103 21.6" stroke-width="1"></path>
</svg>