<svg xmlns="http://www.w3.org/2000/svg" viewBox="0 0 32 32" id="Weather-Meteor--Streamline-Pixel">
  <desc>
    Weather Meteor Streamline Icon: https://streamlinehq.com
  </desc>
  <title>weather-meteor</title>
  <g>
    <path d="M30.47 9.15H32v1.52h-1.53Z" fill="#000000" stroke-width="1"></path>
    <path d="M30.47 4.57H32V6.1h-1.53Z" fill="#000000" stroke-width="1"></path>
    <path d="M30.47 0H32v1.53h-1.53Z" fill="#000000" stroke-width="1"></path>
    <path d="M28.95 13.72h1.52v1.52h-1.52Z" fill="#000000" stroke-width="1"></path>
    <path d="M28.95 6.1h1.52v1.52h-1.52Z" fill="#000000" stroke-width="1"></path>
    <path d="M28.95 1.53h1.52v1.52h-1.52Z" fill="#000000" stroke-width="1"></path>
    <path d="M27.43 15.24h1.52v1.53h-1.52Z" fill="#000000" stroke-width="1"></path>
    <path d="M27.43 7.62h1.52v1.53h-1.52Z" fill="#000000" stroke-width="1"></path>
    <path d="M27.43 3.05h1.52v1.52h-1.52Z" fill="#000000" stroke-width="1"></path>
    <path d="M25.9 16.77h1.53v3.04H25.9Z" fill="#000000" stroke-width="1"></path>
    <path d="M25.9 10.67h1.53v1.52H25.9Z" fill="#000000" stroke-width="1"></path>
    <path d="M25.9 4.57h1.53V6.1H25.9Z" fill="#000000" stroke-width="1"></path>
    <path d="M25.9 0h1.53v1.53H25.9Z" fill="#000000" stroke-width="1"></path>
    <path d="M24.38 19.81h1.52v3.05h-1.52Z" fill="#000000" stroke-width="1"></path>
    <path d="M24.38 12.19h1.52v1.53h-1.52Z" fill="#000000" stroke-width="1"></path>
    <path d="M24.38 6.1h1.52v1.52h-1.52Z" fill="#000000" stroke-width="1"></path>
    <path d="M24.38 1.53h1.52v1.52h-1.52Z" fill="#000000" stroke-width="1"></path>
    <path d="M22.85 22.86h1.53v3.05h-1.53Z" fill="#000000" stroke-width="1"></path>
    <path d="M22.85 3.05h1.53v1.52h-1.53Z" fill="#000000" stroke-width="1"></path>
    <path d="M21.33 15.24h1.52v1.53h-1.52Z" fill="#000000" stroke-width="1"></path>
    <path d="M21.33 9.15h1.52v1.52h-1.52Z" fill="#000000" stroke-width="1"></path>
    <path d="M21.33 0h1.52v1.53h-1.52Z" fill="#000000" stroke-width="1"></path>
    <path d="M19.81 25.91h3.04v1.52h-3.04Z" fill="#000000" stroke-width="1"></path>
    <path d="M19.81 4.57h1.52V6.1h-1.52Z" fill="#000000" stroke-width="1"></path>
    <path d="M19.81 1.53h1.52v1.52h-1.52Z" fill="#000000" stroke-width="1"></path>
    <path d="M18.28 27.43h1.53v1.53h-1.53Z" fill="#000000" stroke-width="1"></path>
    <path d="M18.28 12.19h1.53v1.53h-1.53Z" fill="#000000" stroke-width="1"></path>
    <path d="M16.76 7.62h1.52v1.53h-1.52Z" fill="#000000" stroke-width="1"></path>
    <path d="M16.76 1.53h1.52v1.52h-1.52Z" fill="#000000" stroke-width="1"></path>
    <path d="M15.24 28.96h3.04v1.52h-3.04Z" fill="#000000" stroke-width="1"></path>
    <path d="M15.24 9.15h1.52v1.52h-1.52Z" fill="#000000" stroke-width="1"></path>
    <path d="M13.71 3.05h3.05v1.52h-3.05Z" fill="#000000" stroke-width="1"></path>
    <path d="M9.14 30.48h6.1V32h-6.1Z" fill="#000000" stroke-width="1"></path>
    <path d="M12.19 4.57h1.52V6.1h-1.52Z" fill="#000000" stroke-width="1"></path>
    <path d="M9.14 6.1h3.05v1.52H9.14Z" fill="#000000" stroke-width="1"></path>
    <path d="M15.24 27.43v-1.52h1.52v-1.53h1.52v-1.52h1.53v-6.09h-1.53v-1.53h-1.52v-1.52h-1.52v-1.53h-6.1v1.53H7.62v1.52H6.09v1.53H4.57v6.09h1.52v1.52h1.53v1.53h1.52v1.52Zm-3.05 -12.19h3.05v1.53h1.52v1.52h1.52v3.05h-1.52v-3.05h-1.52v-1.52h-3.05Z" fill="#000000" stroke-width="1"></path>
    <path d="M4.57 28.96h4.57v1.52H4.57Z" fill="#000000" stroke-width="1"></path>
    <path d="M6.09 7.62h3.05v1.53H6.09Z" fill="#000000" stroke-width="1"></path>
    <path d="M4.57 9.15h1.52v1.52H4.57Z" fill="#000000" stroke-width="1"></path>
    <path d="M3.05 27.43h1.52v1.53H3.05Z" fill="#000000" stroke-width="1"></path>
    <path d="M3.05 10.67h1.52v1.52H3.05Z" fill="#000000" stroke-width="1"></path>
    <path d="M1.52 24.38h1.53v3.05H1.52Z" fill="#000000" stroke-width="1"></path>
    <path d="M1.52 12.19h1.53v3.05H1.52Z" fill="#000000" stroke-width="1"></path>
    <path d="M0 15.24h1.52v9.14H0Z" fill="#000000" stroke-width="1"></path>
  </g>
</svg>