<svg xmlns="http://www.w3.org/2000/svg" fill="none" viewBox="0 0 24 24" id="Brightness-1--Streamline-Sharp">
  <desc>
    Brightness 1 Streamline Icon: https://streamlinehq.com
  </desc>
  <g id="brightness-1--bright-adjust-brightness-adjustment-sun-raise-controls">
    <path id="Vector 2040" stroke="#4147d5" d="m4.5 4.5 2 2" stroke-width="1"></path>
    <path id="Vector 2041" stroke="#4147d5" d="m17.5 6.5 2 -2" stroke-width="1"></path>
    <path id="Vector 2042" stroke="#4147d5" d="m19.5 19.5 -2 -2" stroke-width="1"></path>
    <path id="Vector 2043" stroke="#4147d5" d="m6.5 17.5 -2 2" stroke-width="1"></path>
    <path id="Vector 2032" stroke="#4147d5" d="M12 1v3" stroke-width="1"></path>
    <path id="Vector 2033" stroke="#4147d5" d="M12 20v3" stroke-width="1"></path>
    <path id="Vector 2034" stroke="#4147d5" d="M1 12h3" stroke-width="1"></path>
    <path id="Vector 2035" stroke="#4147d5" d="M20 12h3" stroke-width="1"></path>
    <path id="Ellipse 7" fill="#d7e0ff" d="M8.5 12a3.5 3.5 0 1 0 7 0 3.5 3.5 0 1 0 -7 0" stroke-width="1"></path>
    <path id="Ellipse 8" stroke="#4147d5" d="M8.5 12a3.5 3.5 0 1 0 7 0 3.5 3.5 0 1 0 -7 0" stroke-width="1"></path>
  </g>
</svg>