<svg xmlns="http://www.w3.org/2000/svg" fill="none" viewBox="0 0 24 24" id="Iris-Scan--Streamline-Sharp">
  <desc>
    Iris Scan Streamline Icon: https://streamlinehq.com
  </desc>
  <g id="iris-scan--identification-retina-secure-security-iris-scan-eye-brackets">
    <path id="Intersect" fill="#d7e0ff" d="M12 6c-3.554 0 -5.333 3 -8 6 2.667 3 4.446 6 8 6 3.553 0 5.333 -3 8 -6 -2.667 -3 -4.447 -6 -8 -6Z" stroke-width="1.5"></path>
    <path id="Intersect_2" stroke="#4147d5" d="M12 6c-3.554 0 -5.333 3 -8 6 2.667 3 4.446 6 8 6 3.553 0 5.333 -3 8 -6 -2.667 -3 -4.447 -6 -8 -6Z" stroke-width="1.5"></path>
    <path id="Vector 1145" stroke="#4147d5" d="m2 8 0 -6 6 0" stroke-width="1.5"></path>
    <path id="Vector 1146" stroke="#4147d5" d="M16 2h6v6" stroke-width="1.5"></path>
    <path id="Vector 1147" stroke="#4147d5" d="M22 16v6h-6" stroke-width="1.5"></path>
    <path id="Vector 1148" stroke="#4147d5" d="M8 22H2v-6" stroke-width="1.5"></path>
    <path id="Ellipse 20" fill="#ffffff" d="M10 12a2 2 0 1 0 4 0 2 2 0 1 0 -4 0" stroke-width="1.5"></path>
    <path id="Ellipse 21" stroke="#4147d5" d="M10 12a2 2 0 1 0 4 0 2 2 0 1 0 -4 0" stroke-width="1.5"></path>
  </g>
</svg>