<svg xmlns="http://www.w3.org/2000/svg" fill="none" viewBox="0 0 24 24" id="User-Head-Focus--Streamline-Sharp">
  <desc>
    User Head Focus Streamline Icon: https://streamlinehq.com
  </desc>
  <g id="user-head-focus--actions-head-focus-geometric-human-person-single-up-user-target">
    <path id="Ellipse 420" fill="#d7e0ff" d="M2.5 22v-3.604A19.862 19.862 0 0 1 9 16.224s1.246 -0.247 3 -0.247 3 0.247 3 0.247a19.863 19.863 0 0 1 6.5 2.172V22h-19Z" stroke-width="1.5"></path>
    <path id="Ellipse 419" fill="#ffffff" d="M7 8a5 5 0 1 0 10 0A5 5 0 1 0 7 8" stroke-width="1.5"></path>
    <path id="Ellipse 421" stroke="#4147d5" d="M7 8a5 5 0 1 0 10 0A5 5 0 1 0 7 8" stroke-width="1.5"></path>
    <path id="Vector 1149" stroke="#4147d5" d="M12 1v5" stroke-width="1.5"></path>
    <path id="Vector 1150" stroke="#4147d5" d="M12 10v5" stroke-width="1.5"></path>
    <path id="Vector 1151" stroke="#4147d5" d="M14 8h5" stroke-width="1.5"></path>
    <path id="Vector 1152" stroke="#4147d5" d="M10 8H5" stroke-width="1.5"></path>
    <path id="Ellipse 414" stroke="#4147d5" d="M9 16.223a19.862 19.862 0 0 0 -6.5 2.173V22h19v-3.604a19.863 19.863 0 0 0 -6.5 -2.173" stroke-width="1.5"></path>
  </g>
</svg>