<svg xmlns="http://www.w3.org/2000/svg" fill="none" viewBox="0 0 24 24" id="User-Single-Neutral-Male--Streamline-Sharp">
  <desc>
    User Single Neutral Male Streamline Icon: https://streamlinehq.com
  </desc>
  <g id="user-single-neutral-male--close-geometric-human-person-single-up-user-male">
    <path id="Ellipse 414" fill="#d7e0ff" d="M12 16a19.91 19.91 0 0 0 -9.5 2.396V22h19v-3.604A19.91 19.91 0 0 0 12 16Z" stroke-width="1.5"></path>
    <path id="Vector 1259" fill="#d7e0ff" d="M7 8V3h10v5A5 5 0 0 1 7 8Z" stroke-width="1.5"></path>
    <path id="Ellipse 415" stroke="#4147d5" d="M12 16a19.91 19.91 0 0 0 -9.5 2.396V22h19v-3.604A19.91 19.91 0 0 0 12 16Z" stroke-width="1.5"></path>
    <path id="Vector 1260" stroke="#4147d5" d="M7 8V3h10v5A5 5 0 0 1 7 8Z" stroke-width="1.5"></path>
  </g>
</svg>