<svg xmlns="http://www.w3.org/2000/svg" fill="none" viewBox="0 0 24 24" id="Consellation--Streamline-Sharp">
  <desc>
    Consellation Streamline Icon: https://streamlinehq.com
  </desc>
  <g id="consellation--science-space-universe-star">
    <path id="Union" fill="#8fbffa" fill-rule="evenodd" d="M20.5 1v6h-2V1h2Zm-9.192 18.574L6.5 17.803l0.691 -1.877L12 17.697l-0.691 1.877Zm4.773 -1.783 3.09 -5.618 -1.752 -0.964 -3.09 5.618 1.752 0.964ZM4.426 13.308 6.197 8.5l1.877 0.691L6.303 14l-1.877 -0.691ZM17.333 7.9l-6.66 -1.738 -0.506 1.936 6.661 1.737 0.505 -1.935Z" clip-rule="evenodd" stroke-width="1"></path>
    <path id="Union_2" fill="#2859c5" fill-rule="evenodd" d="M8 9.5a3 3 0 1 0 0 -6 3 3 0 0 0 0 6Zm11.5 3a3 3 0 1 0 0 -6 3 3 0 0 0 0 6Zm-5.5 10a3 3 0 1 0 0 -6 3 3 0 0 0 0 6ZM7.5 16a3 3 0 1 1 -6 0 3 3 0 0 1 6 0Z" clip-rule="evenodd" stroke-width="1"></path>
  </g>
</svg>