<svg xmlns="http://www.w3.org/2000/svg" fill="none" viewBox="0 0 24 24" id="Androidauto-Logo--Streamline-Logos">
  <desc>
    Androidauto Logo Streamline Icon: https://streamlinehq.com
  </desc>
  <path fill="#000000" fill-rule="evenodd" d="M13.522 1.662c-0.67 -1.182 -2.373 -1.182 -3.044 0L1.695 17.136c-0.662 1.167 0.181 2.614 1.522 2.614h0.672l-0.838 1.361 1.754 1.755L12 20.296l7.195 2.57 1.754 -1.755 -0.838 -1.361h0.672a1.75 1.75 0 0 0 1.521 -2.614L13.523 1.662ZM5.65 19.75l1.91 -3.103L12 9.43l4.448 7.228 1.902 3.091 0.7 1.138 -0.245 0.246L12 18.704l-6.805 2.43 -0.246 -0.246 0.7 -1.138Z" clip-rule="evenodd" stroke-width="1"></path>
</svg>