<svg xmlns="http://www.w3.org/2000/svg" fill="none" viewBox="0 0 24 24" id="Broadcom-Logo--Streamline-Logos">
  <desc>
    Broadcom Logo Streamline Icon: https://streamlinehq.com
  </desc>
  <path fill="#000000" fill-rule="evenodd" d="M22.503 15.279C22.826 14.243 23 13.142 23 12c0 -6.075 -4.925 -11 -11 -11S1 5.925 1 12c0 1.142 0.174 2.243 0.497 3.28 0.536 -0.353 1.367 -0.78 2.503 -0.78 0.555 0 1.006 0.185 1.368 0.399 0.265 0.156 0.53 0.36 0.742 0.524l0.144 0.11c0.491 0.372 0.913 0.629 1.584 0.629 0.196 0 0.53 -0.128 0.926 -1.002 0.376 -0.828 0.643 -1.988 0.867 -3.254 0.085 -0.476 0.165 -0.981 0.244 -1.478 0.119 -0.745 0.234 -1.47 0.355 -2.046 0.103 -0.489 0.23 -0.978 0.407 -1.364 0.089 -0.192 0.218 -0.422 0.414 -0.615 0.21 -0.207 0.53 -0.403 0.949 -0.403 0.419 0 0.74 0.196 0.95 0.403a2.1 2.1 0 0 1 0.413 0.615c0.177 0.386 0.304 0.875 0.407 1.364 0.12 0.577 0.236 1.302 0.355 2.046 0.079 0.497 0.16 1.002 0.244 1.478 0.224 1.266 0.49 2.426 0.867 3.254 0.397 0.874 0.73 1.002 0.926 1.002 0.67 0 1.093 -0.257 1.585 -0.629l0.143 -0.11c0.212 -0.163 0.477 -0.368 0.742 -0.524 0.362 -0.214 0.813 -0.399 1.368 -0.399 1.136 0 1.967 0.427 2.503 0.779Zm-0.792 1.892 -0.052 -0.037c-0.476 -0.337 -0.898 -0.634 -1.659 -0.634 -0.087 0 -0.186 0.023 -0.351 0.12a4.781 4.781 0 0 0 -0.476 0.34l-0.22 0.168c-0.607 0.46 -1.463 1.034 -2.791 1.034 -1.449 0 -2.279 -1.143 -2.747 -2.175 -0.49 -1.077 -0.79 -2.457 -1.016 -3.732 -0.1 -0.567 -0.185 -1.103 -0.264 -1.604 -0.046 -0.291 -0.09 -0.571 -0.135 -0.838l-0.135 0.838c-0.079 0.5 -0.164 1.037 -0.264 1.604 -0.227 1.275 -0.527 2.655 -1.016 3.732 -0.468 1.031 -1.298 2.175 -2.747 2.175 -1.328 0 -2.184 -0.575 -2.79 -1.034l-0.221 -0.168c-0.193 -0.148 -0.328 -0.252 -0.476 -0.34 -0.165 -0.097 -0.264 -0.12 -0.351 -0.12 -0.761 0 -1.182 0.297 -1.66 0.634l-0.051 0.037A10.998 10.998 0 0 0 12 23c4.206 0 7.86 -2.36 9.711 -5.83Z" clip-rule="evenodd" stroke-width="1"></path>
</svg>