<svg xmlns="http://www.w3.org/2000/svg" fill="none" viewBox="0 0 24 24" id="Google-Fit-Logo--Streamline-Logos">
  <desc>
    Google Fit Logo Streamline Icon: https://streamlinehq.com
  </desc>
  <path fill="#000000" fill-rule="evenodd" d="M10.928 4.112a5.89 5.89 0 0 0 -8.316 8.316l2.842 -2.842a1.89 1.89 0 0 1 2.632 -2.632l2.842 -2.842Zm-4.433 6.554 0.005 0.006 2.67 -2.67L12 10.83l-2.147 2.146 -0.002 -0.002 -3.353 3.352 -2.83 -2.831 2.828 -2.829Zm1.063 6.72L12 21.83l7.444 -7.445 -2.828 -2.828L12 16.172l-1.614 -1.614 -2.828 2.829Zm10.119 -6.89 2.828 2.828 0.66 -0.66a5.89 5.89 0 0 0 -8.33 -8.328L12 5.172l-0.005 -0.005 -1.77 1.768L13.06 9.77l2.604 -2.604a1.89 1.89 0 0 1 2.672 2.671l-0.66 0.66Z" clip-rule="evenodd" stroke-width="1"></path>
</svg>