<svg xmlns="http://www.w3.org/2000/svg" fill="none" viewBox="0 0 24 24" id="Snapdragon-Logo--Streamline-Logos">
  <desc>
    Snapdragon Logo Streamline Icon: https://streamlinehq.com
  </desc>
  <path fill="#000000" fill-rule="evenodd" d="M9.907 5.081c0.058 -0.935 0.726 -1.867 2.03 -2.83L12 2.25A9.75 9.75 0 0 1 21.75 12c0 4.981 -3.736 9.09 -8.558 9.678 1.234 -0.67 2.282 -1.639 2.915 -2.856 0.678 -1.306 0.854 -2.861 0.292 -4.547 -0.556 -1.668 -1.818 -3.422 -3.939 -5.204 -2.038 -1.719 -2.614 -3.021 -2.553 -3.99ZM12 0.75c-0.112 0 -0.223 0.002 -0.334 0.005L11.44 0.76l-0.002 0.002C7.59 0.785 5.17 5.908 5.17 5.908c-0.262 -1.014 -0.437 -2.085 -0.099 -3.076C3.624 3.859 2.66 5.22 1.843 6.793c-1.53 4.13 1.644 5.831 3.848 7.012 0.163 0.087 0.32 0.171 0.47 0.254l0.268 0.146c2.085 1.136 4.05 2.207 2.435 6.129 -0.185 -1.187 -0.534 -2.433 -2.1 -2.852 -1.945 -0.515 -4.94 -1.624 -5.962 -3.394a11.195 11.195 0 0 0 2.61 5.278c1.326 1.494 3.198 2.711 5.099 3.326l0.018 0.001 -0.002 0.01c1.095 0.355 2.262 0.547 3.473 0.547 6.213 0 11.25 -5.037 11.25 -11.25S18.213 0.75 12 0.75Z" clip-rule="evenodd" stroke-width="1"></path>
</svg>