<svg xmlns="http://www.w3.org/2000/svg" fill="none" viewBox="0 0 24 24" id="Steinberg-Logo--Streamline-Logos">
  <desc>
    Steinberg Logo Streamline Icon: https://streamlinehq.com
  </desc>
  <path fill="#000000" fill-rule="evenodd" d="M3.25 12a8.75 8.75 0 1 1 17.5 0 8.75 8.75 0 0 1 -17.5 0ZM12 0.75C5.787 0.75 0.75 5.787 0.75 12S5.787 23.25 12 23.25 23.25 18.213 23.25 12 18.213 0.75 12 0.75Zm1.5 8.184v6.132a0.5 0.5 0 0 0 0.777 0.416l4.599 -3.066a0.5 0.5 0 0 0 0 -0.832l-4.599 -3.066a0.5 0.5 0 0 0 -0.777 0.416Z" clip-rule="evenodd" stroke-width="1"></path>
</svg>