<svg xmlns="http://www.w3.org/2000/svg" fill="none" viewBox="0 0 48 48" id="Film-Slate--Streamline-Plump">
  <desc>
    Film Slate Streamline Icon: https://streamlinehq.com
  </desc>
  <g id="film-slate--pictures-photo-film-slate">
    <path id="Union" fill="#8fbffa" d="M6.76503 18.082c-2.06826 0 -3.87282 1.4272 -4.12585 3.5309 -0.26709 2.2205 -0.53957 5.6503 -0.53957 10.4023 0 4.1447 0.20729 7.1176 0.43804 9.1433 0.27746 2.4356 2.18377 4.1485 4.59933 4.3269 3.03342 0.224 8.33682 0.463 17.16242 0.463 8.8256 0 14.129 -0.239 17.1624 -0.463 2.4156 -0.1784 4.3219 -1.8913 4.5993 -4.3269 0.2308 -2.0257 0.4381 -4.9986 0.4381 -9.1433 0 -4.752 -0.2725 -8.1818 -0.5396 -10.4023 -0.253 -2.1037 -2.0576 -3.5309 -4.1258 -3.5309H6.76503Z" stroke-width="1"></path>
    <path id="Union_2" fill="#2859c5" d="M22.2839 3.9787C12.6101 5.68445 7.26141 6.74327 4.50969 7.32265c-1.75398 0.36931 -3.35885 1.61844 -3.34653 3.60625 0.00426 0.6884 0.07076 1.513 0.24219 2.4853 0.22941 1.301 0.55183 2.3282 0.87344 3.1129 0.63418 1.5475 2.28192 2.0847 3.77597 1.8213L42.449 11.9311c1.494 -0.2634 2.8586 -1.3319 2.9253 -3.00287 0.0338 -0.84741 -0.0145 -1.92292 -0.2439 -3.22398 -0.1714 -0.97224 -0.391 -1.76985 -0.6224 -2.41816 -0.6683 -1.87219 -2.6036 -2.497096 -4.3782 -2.24423 -2.7839 0.3967 -8.1721 1.23109 -17.8459 2.93684Z" stroke-width="1"></path>
    <g id="Intersect">
      <path fill="#8fbffa" d="M9.74316 17.7002 12.2284 5.8053c0.9754 -0.18325 2.0361 -0.38017 3.1884 -0.59137L12.9252 17.1391l-3.18204 0.5611Z" stroke-width="1"></path>
      <path fill="#8fbffa" d="M20.4286 15.8161 22.925 3.86799c1.1183 -0.1966 2.1776 -0.38122 3.1806 -0.55456L23.6106 15.255l-3.182 0.5611Z" stroke-width="1"></path>
      <path fill="#8fbffa" d="m34.2964 13.3708 -3.182 0.5611 2.4819 -11.87881c1.1949 -0.19438 2.247 -0.36158 3.1704 -0.50524L34.2964 13.3708Z" stroke-width="1"></path>
    </g>
    <path id="Rectangle 723" fill="#2859c5" d="M9.89089 30.586c0.07379 -1.473 1.14571 -2.5493 2.61851 -2.626 0.8636 -0.0451 2.0129 -0.0782 3.5255 -0.0782s2.6619 0.0331 3.5255 0.0782c1.4728 0.0767 2.5447 1.153 2.6185 2.626 0.033 0.6595 0.0559 1.4733 0.0559 2.4624 0 0.9892 -0.0229 1.803 -0.0559 2.4625 -0.0738 1.473 -1.1457 2.5493 -2.6185 2.626 -0.8636 0.0451 -2.013 0.0782 -3.5255 0.0782 -1.5125 0 -2.6619 -0.0331 -3.5255 -0.0782 -1.4728 -0.0767 -2.54472 -1.153 -2.61851 -2.626 -0.03303 -0.6595 -0.05593 -1.4733 -0.05593 -2.4625 0 -0.9891 0.02289 -1.8029 0.05593 -2.4624Z" stroke-width="1"></path>
  </g>
</svg>