<svg xmlns="http://www.w3.org/2000/svg" fill="none" viewBox="0 0 48 48" id="Focus-Points--Streamline-Plump">
  <desc>
    Focus Points Streamline Icon: https://streamlinehq.com
  </desc>
  <g id="focus-points--camera-frame-photography-pictures-photo-focus-position">
    <path id="Union" fill="#2859c5" fill-rule="evenodd" d="M26.5 10.5a2.5 2.5 0 0 0 -5 0v2a2.5 2.5 0 0 0 5 0v-2Zm0 9.5a2.5 2.5 0 0 0 -5 0v1.5H20a2.5 2.5 0 0 0 0 5h1.5V28a2.5 2.5 0 0 0 5 0v-1.5H28a2.5 2.5 0 0 0 0 -5h-1.5V20ZM24 33a2.5 2.5 0 0 1 2.5 2.5v2a2.5 2.5 0 0 1 -5 0v-2A2.5 2.5 0 0 1 24 33Zm-9.5 -9a2.5 2.5 0 0 1 -2.5 2.5h-2a2.5 2.5 0 0 1 0 -5h2a2.5 2.5 0 0 1 2.5 2.5Zm26 0a2.5 2.5 0 0 1 -2.5 2.5h-2a2.5 2.5 0 0 1 0 -5h2a2.5 2.5 0 0 1 2.5 2.5Z" clip-rule="evenodd" stroke-width="1"></path>
    <path id="Union_2" fill="#8fbffa" fill-rule="evenodd" d="M14.076 9.499a2.5 2.5 0 0 0 -0.152 -4.998l-6.356 0.194 -0.072 0.003a6.16 6.16 0 0 0 -5.801 5.87L1.5 16.923a2.5 2.5 0 0 0 4.998 0.152l0.192 -6.311A1.159 1.159 0 0 1 7.765 9.69l6.311 -0.192Zm19.848 0a2.5 2.5 0 1 1 0.152 -4.998l6.356 0.194 0.072 0.003a6.16 6.16 0 0 1 5.801 5.87l0.194 6.356a2.5 2.5 0 0 1 -4.998 0.152l-0.192 -6.311a1.158 1.158 0 0 0 -1.074 -1.074l-6.311 -0.192ZM44.076 28.5a2.5 2.5 0 0 1 2.423 2.575l-0.194 6.357 -0.003 0.072a6.16 6.16 0 0 1 -5.87 5.8l-6.356 0.194a2.5 2.5 0 0 1 -0.152 -4.998l6.31 -0.192a1.158 1.158 0 0 0 1.075 -1.074l0.192 -6.311a2.5 2.5 0 0 1 2.575 -2.423ZM1.501 31.076a2.5 2.5 0 0 1 4.998 -0.152l0.192 6.311a1.159 1.159 0 0 0 1.074 1.074l6.311 0.192a2.5 2.5 0 0 1 -0.152 4.998l-6.356 -0.194 -0.072 -0.003a6.16 6.16 0 0 1 -5.801 -5.87L1.5 31.077Z" clip-rule="evenodd" stroke-width="1"></path>
  </g>
</svg>