<svg xmlns="http://www.w3.org/2000/svg" fill="none" viewBox="0 0 48 48" id="Lens--Streamline-Plump">
  <desc>
    Lens Streamline Icon: https://streamlinehq.com
  </desc>
  <g id="lens--photos-camera-shutter-picture-photography-pictures-photo-lens">
    <path id="Subtract" fill="#8fbffa" fill-rule="evenodd" d="M1.5 24c0 12.426 10.074 22.5 22.5 22.5S46.5 36.426 46.5 24 36.426 1.5 24 1.5 1.5 11.574 1.5 24ZM32 24a8 8 0 1 0 -16 0 8 8 0 0 0 16 0Z" clip-rule="evenodd" stroke-width="1"></path>
    <path id="Intersect" fill="#2859c5" fill-rule="evenodd" d="M3.772 14.136a43.958 43.958 0 0 0 4.245 5.331A55.613 55.613 0 0 0 14.5 25.41c0 -6.233 0.728 -12.418 2.567 -18.4a47.335 47.335 0 0 1 1.814 -4.925 22.474 22.474 0 0 1 3.545 -0.53 43.962 43.962 0 0 0 -2.492 6.337 55.626 55.626 0 0 0 -1.905 8.587c5.403 -3.12 11.116 -5.579 17.218 -6.978a47.324 47.324 0 0 1 5.167 -0.89c0.818 0.872 1.567 1.81 2.24 2.803 -2.271 0.162 -4.504 0.5 -6.736 1.011a55.615 55.615 0 0 0 -8.39 2.643c5.404 3.12 10.39 6.838 14.652 11.422a47.33 47.33 0 0 1 3.36 4.036 22.35 22.35 0 0 1 -1.312 3.338 43.961 43.961 0 0 0 -4.245 -5.33A55.608 55.608 0 0 0 33.5 22.59c0 6.248 -0.725 12.41 -2.566 18.398a47.321 47.321 0 0 1 -1.815 4.927 22.48 22.48 0 0 1 -3.545 0.53 43.964 43.964 0 0 0 2.492 -6.338 55.62 55.62 0 0 0 1.905 -8.586C24.57 34.642 18.856 37.1 12.755 38.5a47.108 47.108 0 0 1 -5.17 0.89 22.6 22.6 0 0 1 -2.239 -2.803 43.963 43.963 0 0 0 6.738 -1.01 55.619 55.619 0 0 0 8.387 -2.644C15.07 29.812 10.082 26.094 5.82 21.51a47.326 47.326 0 0 1 -3.36 -4.036c0.35 -1.154 0.79 -2.27 1.312 -3.338ZM17.5 24a6.5 6.5 0 1 0 13 0 6.5 6.5 0 0 0 -13 0Z" clip-rule="evenodd" stroke-width="1"></path>
  </g>
</svg>