<svg xmlns="http://www.w3.org/2000/svg" fill="none" viewBox="0 0 48 48" stroke-width="3" id="Graduation-Cap--Streamline-Plump">
  <desc>
    Graduation Cap Streamline Icon: https://streamlinehq.com
  </desc>
  <g id="graduation-cap--graduation-cap-education">
    <path id="Rectangle 1096" fill="#8fbffa" d="M3.052 16.555c-1.382-.662-1.382-2.448 0-3.11 1.812-.868 4.519-2.1 8.348-3.695 5.32-2.216 8.954-3.53 10.905-4.196a5.23 5.23 0 0 1 3.39 0c1.95.666 5.586 1.98 10.905 4.196 3.83 1.595 6.536 2.827 8.349 3.695 1.38.662 1.38 2.448 0 3.11-1.813.868-4.52 2.1-8.349 3.695-5.32 2.216-8.954 3.53-10.905 4.196a5.23 5.23 0 0 1-3.39 0c-1.95-.666-5.586-1.98-10.905-4.196-3.83-1.596-6.536-2.827-8.348-3.695Z"></path>
    <path id="Subtract" fill="#8fbffa" d="M11.102 20.126A74.846 74.846 0 0 0 11 24.167c0 3.094.159 5.037.315 6.2.137 1.016.719 1.88 1.627 2.355C14.698 33.642 18.265 35 24 35c5.735 0 9.302-1.358 11.058-2.278.908-.475 1.49-1.339 1.627-2.354.156-1.164.315-3.107.315-6.2a74.95 74.95 0 0 0-.102-4.042l-.298.124c-5.32 2.217-8.954 3.53-10.905 4.197a5.23 5.23 0 0 1-3.39 0c-1.95-.666-5.586-1.98-10.905-4.197l-.298-.124Z"></path>
    <path id="Ellipse 19" fill="#ffffff" transform="matrix(-1 0 0 1 8 37)" d="M0 3a3 3 0 1 0 6 0 3 3 0 1 0-6 0"></path>
    <path id="Vector 2536" stroke="#2859c5" stroke-linecap="round" stroke-linejoin="round" d="m5 18 0 19"></path>
    <path id="Rectangle 1097" stroke="#2859c5" stroke-linecap="round" stroke-linejoin="round" d="M3.052 16.555c-1.382-.662-1.382-2.448 0-3.11 1.812-.868 4.519-2.1 8.348-3.695 5.32-2.216 8.954-3.53 10.905-4.196a5.23 5.23 0 0 1 3.39 0c1.95.666 5.586 1.98 10.905 4.196 3.83 1.595 6.536 2.827 8.349 3.695 1.38.662 1.38 2.448 0 3.11-1.813.868-4.52 2.1-8.349 3.695-5.32 2.216-8.954 3.53-10.905 4.196a5.23 5.23 0 0 1-3.39 0c-1.95-.666-5.586-1.98-10.905-4.196-3.83-1.596-6.536-2.827-8.348-3.695Z"></path>
    <path id="Subtract_2" stroke="#2859c5" stroke-linecap="round" stroke-linejoin="round" d="M11.102 20.125A74.846 74.846 0 0 0 11 24.166c0 3.094.159 5.037.315 6.2.137 1.016.719 1.88 1.627 2.355C14.698 33.641 18.265 35 24 35c5.735 0 9.302-1.358 11.058-2.278.908-.475 1.49-1.339 1.627-2.354.156-1.164.315-3.107.315-6.2a74.83 74.83 0 0 0-.102-4.042"></path>
    <path id="Ellipse 20" stroke="#2859c5" stroke-linecap="round" stroke-linejoin="round" d="M8 40a3 3 0 1 1-6 0 3 3 0 1 1 6 0"></path>
  </g>
</svg>