<svg xmlns="http://www.w3.org/2000/svg" fill="none" viewBox="0 0 24 24" id="Cog-Hand-Give-1--Streamline-Ultimate">
  <desc>
    Cog Hand Give 1 Streamline Icon: https://streamlinehq.com
  </desc>
  <path stroke="#000000" stroke-linecap="round" stroke-linejoin="round" d="M0.75 14.25v9" stroke-width="1"></path>
  <path stroke="#000000" stroke-linecap="round" stroke-linejoin="round" d="M0.75 21.75h16.5c0 -0.7956 -0.3161 -1.5587 -0.8787 -2.1213 -0.5626 -0.5626 -1.3257 -0.8787 -2.1213 -0.8787H10.5c0 -0.7956 -0.3161 -1.5587 -0.87868 -2.1213C9.05871 16.0661 8.29565 15.75 7.5 15.75H0.75" stroke-width="1"></path>
  <path stroke="#000000" stroke-linecap="round" stroke-linejoin="round" d="M6.75 18.75h3.75" stroke-width="1"></path>
  <path stroke="#000000" stroke-linecap="round" stroke-linejoin="round" d="M15.8694 1.72995c0.1068 0.11639 0.2366 0.20932 0.3812 0.27289 0.1446 0.06357 0.3008 0.0964 0.4588 0.0964 0.1579 0 0.3142 -0.03283 0.4588 -0.0964s0.2744 -0.1565 0.3812 -0.27289l0.54 -0.61c0.1578 -0.173879 0.3659 -0.294277 0.5953 -0.344457 0.2294 -0.05018 0.4687 -0.02765 0.6847 0.064459 0.2159 0.087701 0.3988 0.241148 0.5226 0.438578 0.1239 0.19744 0.1824 0.42884 0.1674 0.66142v0.81c-0.0049 0.15809 0.0217 0.31556 0.0784 0.46323 0.0567 0.14766 0.1422 0.28255 0.2516 0.39677 0.1142 0.1094 0.2491 0.19493 0.3968 0.25159 0.1476 0.05666 0.3051 0.08332 0.4632 0.07841h0.81c0.2326 -0.01503 0.464 0.04353 0.6614 0.16738 0.1974 0.12384 0.3509 0.30669 0.4386 0.52262 0.0921 0.216 0.1146 0.45533 0.0644 0.68473 -0.0501 0.22939 -0.1705 0.43746 -0.3444 0.59527l-0.61 0.54c-0.1164 0.10679 -0.2093 0.23661 -0.2729 0.38121 -0.0636 0.1446 -0.0964 0.30083 -0.0964 0.45879s0.0328 0.3142 0.0964 0.4588c0.0636 0.1446 0.1565 0.27441 0.2729 0.3812l0.61 0.54c0.1739 0.15782 0.2943 0.36588 0.3444 0.59528 0.0502 0.22939 0.0277 0.46872 -0.0644 0.68472 -0.0877 0.21595 -0.2412 0.39875 -0.4386 0.52265 -0.1974 0.1238 -0.4288 0.1824 -0.6614 0.1674h-0.81c-0.1586 -0.0087 -0.3172 0.0161 -0.4655 0.0729 -0.1483 0.0567 -0.283 0.1441 -0.3952 0.2563 -0.1123 0.1123 -0.1997 0.247 -0.2564 0.3953 -0.0567 0.1483 -0.0816 0.3069 -0.0729 0.4655v0.81c0.015 0.2325 -0.0435 0.4639 -0.1674 0.6614 -0.1238 0.1974 -0.3067 0.3509 -0.5226 0.4386 -0.216 0.0921 -0.4553 0.1146 -0.6847 0.0644 -0.2294 -0.0502 -0.4375 -0.1706 -0.5953 -0.3444l-0.54 -0.61c-0.1068 -0.1164 -0.2366 -0.2094 -0.3812 -0.2729 -0.1446 -0.0636 -0.3009 -0.0964 -0.4588 -0.0964 -0.158 0 -0.3142 0.0328 -0.4588 0.0964 -0.1446 0.0635 -0.2744 0.1565 -0.3812 0.2729l-0.54 0.61c-0.1578 0.1738 -0.3659 0.2942 -0.5953 0.3444 -0.2294 0.0502 -0.4687 0.0277 -0.6847 -0.0644 -0.2159 -0.0877 -0.3988 -0.2412 -0.5226 -0.4386 -0.1239 -0.1975 -0.1824 -0.4289 -0.1674 -0.6614v-0.81c0.0087 -0.1586 -0.0162 -0.3172 -0.0729 -0.4655 -0.0568 -0.1483 -0.1441 -0.283 -0.2564 -0.3953 -0.1123 -0.1122 -0.247 -0.1996 -0.3953 -0.2563 -0.1483 -0.0568 -0.3069 -0.0816 -0.4654 -0.0729h-0.81c-0.2326 0.015 -0.464 -0.0436 -0.6614 -0.1674 -0.1975 -0.1239 -0.3509 -0.3067 -0.4386 -0.52265 -0.0921 -0.216 -0.1147 -0.45533 -0.0645 -0.68472 0.0502 -0.2294 0.1706 -0.43746 0.3445 -0.59528l0.61 -0.54c0.1164 -0.10679 0.2093 -0.2366 0.2729 -0.3812 0.0635 -0.1446 0.0964 -0.30084 0.0964 -0.4588s-0.0329 -0.31419 -0.0964 -0.45879c-0.0636 -0.1446 -0.1565 -0.27442 -0.2729 -0.38121l-0.61 -0.54c-0.1739 -0.15781 -0.2943 -0.36588 -0.3445 -0.59527 -0.0502 -0.2294 -0.0276 -0.46873 0.0645 -0.68473 0.0877 -0.21593 0.2411 -0.39878 0.4386 -0.52262 0.1974 -0.12385 0.4288 -0.18241 0.6614 -0.16738h0.81c0.1581 0.00491 0.3155 -0.02175 0.4632 -0.07841 0.1477 -0.05666 0.2826 -0.14219 0.3968 -0.25159 0.1094 -0.11422 0.1949 -0.24911 0.2516 -0.39677 0.0566 -0.14767 0.0833 -0.30514 0.0784 -0.46323v-0.81c-0.015 -0.23258 0.0435 -0.46398 0.1674 -0.66142 0.1238 -0.19743 0.3067 -0.350877 0.5226 -0.438578 0.216 -0.092109 0.4553 -0.114639 0.6847 -0.064459s0.4375 0.170578 0.5953 0.344457l0.54 0.61Z" stroke-width="1"></path>
  <path stroke="#000000" stroke-linecap="round" stroke-linejoin="round" d="M14.9594 7.25c0 0.46413 0.1843 0.90925 0.5125 1.23744 0.3282 0.32819 0.7733 0.51256 1.2375 0.51256 0.4641 0 0.9092 -0.18437 1.2374 -0.51256 0.3282 -0.32819 0.5126 -0.77331 0.5126 -1.23744 0 -0.46413 -0.1844 -0.90925 -0.5126 -1.23744 -0.3282 -0.32819 -0.7733 -0.51256 -1.2374 -0.51256 -0.4642 0 -0.9093 0.18437 -1.2375 0.51256 -0.3282 0.32819 -0.5125 0.77331 -0.5125 1.23744Z" stroke-width="1"></path>
</svg>