<svg xmlns="http://www.w3.org/2000/svg" fill="none" viewBox="0 0 24 24" id="Hierarchy-5-Organize--Streamline-Ultimate">
  <desc>
    Hierarchy 5 Organize Streamline Icon: https://streamlinehq.com
  </desc>
  <path stroke="#000000" stroke-linecap="round" stroke-linejoin="round" d="M18.25 0.75H5.75c-0.41421 0 -0.75 0.33579 -0.75 0.75v5c0 0.41421 0.33579 0.75 0.75 0.75h12.5c0.4142 0 0.75 -0.33579 0.75 -0.75v-5c0 -0.41421 -0.3358 -0.75 -0.75 -0.75Z" stroke-width="1"></path>
  <path stroke="#000000" stroke-linecap="round" stroke-linejoin="round" d="M12 7.25v11.5" stroke-width="1"></path>
  <path stroke="#000000" stroke-linecap="round" stroke-linejoin="round" d="M3 18.75v-4c0 -0.3978 0.15804 -0.7794 0.43934 -1.0607S4.10218 13.25 4.5 13.25h15c0.3978 0 0.7794 0.158 1.0607 0.4393S21 14.3522 21 14.75v4" stroke-width="1"></path>
  <path stroke="#000000" stroke-linecap="round" stroke-linejoin="round" d="M3 23.25c1.24264 0 2.25 -1.0074 2.25 -2.25S4.24264 18.75 3 18.75 0.75 19.7574 0.75 21 1.75736 23.25 3 23.25Z" stroke-width="1"></path>
  <path stroke="#000000" stroke-linecap="round" stroke-linejoin="round" d="M12 23.25c1.2426 0 2.25 -1.0074 2.25 -2.25s-1.0074 -2.25 -2.25 -2.25S9.75 19.7574 9.75 21s1.0074 2.25 2.25 2.25Z" stroke-width="1"></path>
  <path stroke="#000000" stroke-linecap="round" stroke-linejoin="round" d="M21 23.25c1.2426 0 2.25 -1.0074 2.25 -2.25s-1.0074 -2.25 -2.25 -2.25 -2.25 1.0074 -2.25 2.25 1.0074 2.25 2.25 2.25Z" stroke-width="1"></path>
</svg>