<svg xmlns="http://www.w3.org/2000/svg" fill="none" viewBox="0 0 24 24" id="Time-Clock-Fire--Streamline-Ultimate">
  <desc>
    Time Clock Fire Streamline Icon: https://streamlinehq.com
  </desc>
  <path stroke="#000000" stroke-linecap="round" stroke-linejoin="round" d="M4.91895 16.5c0 0.8864 0.17459 1.7642 0.51381 2.5831 0.33922 0.819 0.83642 1.5631 1.46321 2.1899 0.6268 0.6268 1.37091 1.124 2.18986 1.4632 0.81895 0.3392 1.69667 0.5138 2.58307 0.5138 0.8865 0 1.7642 -0.1746 2.5832 -0.5138 0.8189 -0.3392 1.563 -0.8364 2.1898 -1.4632s1.124 -1.3709 1.4632 -2.1899c0.3393 -0.8189 0.5138 -1.6967 0.5138 -2.5831 0 -0.8864 -0.1745 -1.7642 -0.5138 -2.5831 -0.3392 -0.819 -0.8364 -1.5631 -1.4632 -2.1899 -0.6268 -0.6268 -1.3709 -1.124 -2.1898 -1.4632 -0.819 -0.33921 -1.6967 -0.5138 -2.5832 -0.5138 -0.8864 0 -1.76412 0.17459 -2.58307 0.5138 -0.81895 0.3392 -1.56306 0.8364 -2.18986 1.4632 -0.62679 0.6268 -1.12399 1.3709 -1.46321 2.1899 -0.33922 0.8189 -0.51381 1.6967 -0.51381 2.5831Z" stroke-width="1"></path>
  <path stroke="#000000" stroke-linecap="round" stroke-linejoin="round" d="M10.75 12.75v3.75l3 2.25" stroke-width="1"></path>
  <path stroke="#000000" stroke-linecap="round" stroke-linejoin="round" d="M18.379 15.764c1.1098 -0.3597 2.0758 -1.0643 2.7575 -2.011 0.6816 -0.9468 1.0433 -2.0864 1.0325 -3.253 -0.0344 -1.97694 -0.8422 -3.86168 -2.25 -5.25 -0.0426 0.34762 -0.1549 0.68307 -0.3303 0.9862 -0.1754 0.30313 -0.4103 0.5677 -0.6905 0.77783 -0.2801 0.21013 -0.5999 0.36149 -0.94 0.445 -0.3401 0.08351 -0.6936 0.09745 -1.0392 0.04097 -0.9566 -0.80422 -1.6219 -1.90102 -1.893 -3.12101 -0.2711 -1.21999 -0.133 -2.49531 0.393 -3.62899 -4.688 0 -7.68803 2.766 -8.25003 6.75 -0.69159 0.07222 -1.38495 -0.11947 -1.94123 -0.53669C4.67145 6.5461 4.29329 5.93415 4.16897 5.25c-3.763996 3.2 -2.853 9.043 0.789 10.517" stroke-width="1"></path>
</svg>