<svg xmlns="http://www.w3.org/2000/svg" fill="none" viewBox="-0.5 -0.5 24 24" id="Discount-Percent-Fire--Streamline-Sharp-Neon">
  <desc>
    Discount Percent Fire Streamline Icon: https://streamlinehq.com
  </desc>
  <g id="discount-percent-fire--shop-shops-stores-discount-coupon-hot-trending">
    <path id="Vector 2649" stroke="#000cfe" d="m8.145833333333334 17.25 5.75 -5.75" stroke-width="1"></path>
    <path id="Vector 3028" stroke="#000cfe" d="m8.385416666666668 11.979166666666668 0.23958333333333334 -0.23958333333333334 0.23958333333333334 0.23958333333333334 -0.23958333333333334 0.23958333333333334 -0.23958333333333334 -0.23958333333333334Z" stroke-width="1"></path>
    <path id="Vector 3030" stroke="#000cfe" d="m13.177083333333334 16.770833333333336 0.23958333333333334 -0.23958333333333334 0.23958333333333334 0.23958333333333334 -0.23958333333333334 0.23958333333333334 -0.23958333333333334 -0.23958333333333334Z" stroke-width="1"></path>
    <path id="Subtract" stroke="#c71dff" d="M11.5 0.9583333333333334h-0.21437916666666668L5.401214583333333 6.97840125c-3.368282916666667 3.4459654166666667 -3.368282916666667 9.032857083333333 0 12.478832083333334 3.368282916666667 3.445879166666667 8.829364583333334 3.445879166666667 12.19761875 0 2.7779208333333334 -2.8419375000000002 3.26485 -7.140158333333333 1.4606916666666667 -10.492619166666667 -0.8010708333333333 0.706215 -1.8439291666666666 1.1331525 -2.9843458333333337 1.1331525 -2.5261666666666667 0 -4.5741249999999996 -2.095146666666667 -4.5741249999999996 -4.679589583333334L11.5 0.9583333333333334Z" stroke-width="1"></path>
  </g>
</svg>