<svg xmlns="http://www.w3.org/2000/svg" fill="none" viewBox="0 0 48 48" id="Align-Object-Left--Streamline-Plump">
  <desc>
    Align Object Left Streamline Icon: https://streamlinehq.com
  </desc>
  <g id="align-object-left">
    <path id="Rectangle 1097" stroke="#000000" stroke-linecap="round" stroke-linejoin="round" d="M8.257 3.539c-2.555 0.208 -4.51 2.163 -4.718 4.718C3.277 11.485 3 16.636 3 24c0 7.364 0.277 12.515 0.539 15.743 0.208 2.555 2.163 4.51 4.718 4.718C11.485 44.723 16.636 45 24 45c7.364 0 12.515 -0.277 15.743 -0.539 2.555 -0.208 4.51 -2.163 4.718 -4.718C44.723 36.515 45 31.364 45 24c0 -7.364 -0.277 -12.515 -0.539 -15.743 -0.208 -2.555 -2.163 -4.51 -4.718 -4.718C36.515 3.277 31.364 3 24 3c-7.364 0 -12.515 0.277 -15.743 0.539Z" stroke-width="1"></path>
    <path id="Rectangle 57" stroke="#000000" stroke-linecap="round" stroke-linejoin="round" d="M12.885 37.911c-1.601 -0.102 -2.696 -1.372 -2.75 -2.975C10.069 32.904 10 29.49 10 24s0.068 -8.904 0.136 -10.935c0.053 -1.604 1.148 -2.874 2.75 -2.976A50.04 50.04 0 0 1 16.043 10c1.257 0 2.266 0.034 3.066 0.083 1.647 0.1 2.764 1.426 2.8 3.075C21.956 15.2 22 18.593 22 24c0 5.407 -0.045 8.8 -0.09 10.842 -0.037 1.649 -1.154 2.974 -2.8 3.075 -0.8 0.049 -1.81 0.083 -3.067 0.083a49.86 49.86 0 0 1 -3.158 -0.089Z" stroke-width="1"></path>
  </g>
</svg>