<svg xmlns="http://www.w3.org/2000/svg" fill="none" viewBox="0 0 48 48" id="Broken-Link-2--Streamline-Plump">
  <desc>
    Broken Link 2 Streamline Icon: https://streamlinehq.com
  </desc>
  <g id="broken-link-2--break-broken-hyperlink-link-remove-unlink-chain">
    <path id="Union" stroke="#000000" stroke-linecap="round" stroke-linejoin="round" d="m31.454 38.83 -1.522 1.523c-6.167 6.166 -16.164 6.166 -22.33 0 -6.167 -6.166 -6.167 -16.164 0 -22.33L9.124 16.5m14.887 14.887 -1.523 1.523a5.263 5.263 0 0 1 -7.443 -7.444l1.522 -1.523" stroke-width="3"></path>
    <path id="Vector 864" stroke="#000000" stroke-linecap="round" stroke-linejoin="round" d="m4 4 40 40" stroke-width="3"></path>
    <path id="Union_2" stroke="#000000" stroke-linecap="round" stroke-linejoin="round" d="M40.4 7.648c-6.167 -6.166 -16.164 -6.166 -22.33 0l-2.382 2.382a4 4 0 0 0 0 5.657l1.786 1.786a4 4 0 0 0 5.657 0l2.382 -2.381a5.263 5.263 0 0 1 7.443 7.443l-2.382 2.382a4 4 0 0 0 0 5.657l1.787 1.786a4 4 0 0 0 5.657 0l2.382 -2.382c6.166 -6.166 6.166 -16.164 0 -22.33Z" stroke-width="3"></path>
    <path id="Rectangle 1672" stroke="#000000" stroke-linecap="round" stroke-linejoin="round" d="m20.301 20.3 5.21 -5.21a5.263 5.263 0 0 1 7.444 7.444l-5.21 5.21" stroke-width="3"></path>
  </g>
</svg>