<svg xmlns="http://www.w3.org/2000/svg" fill="none" viewBox="0 0 48 48" id="Calendar-Heart--Streamline-Plump">
  <desc>
    Calendar Heart Streamline Icon: https://streamlinehq.com
  </desc>
  <g id="calendar-heart--calendar-date-day-favorite-heart-like-month">
    <path id="Vector 9" stroke="#000000" stroke-linecap="round" stroke-linejoin="round" d="M34.306 24.942c-0.957 -4.163 -6.255 -5.864 -9.555 -3.074 -0.261 0.22 -0.494 0.473 -0.75 0.725 -0.258 -0.253 -0.49 -0.506 -0.752 -0.725 -3.3 -2.79 -8.598 -1.089 -9.555 3.074 -1.32 5.387 4.235 9.337 8.035 11.994 1.361 0.95 3.181 0.95 4.542 0 3.8 -2.657 9.355 -6.607 8.035 -11.994Z" stroke-width="1"></path>
    <path id="Subtract" stroke="#000000" stroke-linecap="round" stroke-linejoin="round" d="M11.003 8.562a82.2 82.2 0 0 0 -2.952 0.336c-2.199 0.293 -3.877 1.948 -4.192 4.144C3.451 15.886 3 20.411 3 26.5c0 6.09 0.451 10.614 0.859 13.458 0.315 2.196 1.993 3.85 4.192 4.144 3.13 0.417 8.38 0.898 15.949 0.898 7.568 0 12.818 -0.481 15.949 -0.898 2.199 -0.294 3.877 -1.948 4.192 -4.144 0.408 -2.844 0.859 -7.369 0.859 -13.458 0 -6.09 -0.451 -10.614 -0.859 -13.458 -0.315 -2.196 -1.993 -3.85 -4.192 -4.144a82.219 82.219 0 0 0 -2.952 -0.336" stroke-width="1"></path>
    <path id="Subtract_2" stroke="#000000" stroke-linecap="round" stroke-linejoin="round" d="M29 8.074A164.037 164.037 0 0 0 24 8c-1.796 0 -3.462 0.027 -5 0.074" stroke-width="1"></path>
    <path id="Vector" stroke="#000000" stroke-linecap="round" stroke-linejoin="round" d="M29.013 9.27c0.043 2.08 1.409 3.694 3.489 3.726a32.976 32.976 0 0 0 0.996 0c2.08 -0.032 3.446 -1.646 3.489 -3.726a61.262 61.262 0 0 0 0 -2.54c-0.043 -2.08 -1.409 -3.694 -3.489 -3.726a32.444 32.444 0 0 0 -0.996 0c-2.08 0.032 -3.446 1.646 -3.489 3.726a61.262 61.262 0 0 0 0 2.54Z" stroke-width="1"></path>
    <path id="Vector_2" stroke="#000000" stroke-linecap="round" stroke-linejoin="round" d="M11.013 9.27c0.043 2.08 1.409 3.694 3.489 3.726a32.976 32.976 0 0 0 0.996 0c2.08 -0.032 3.446 -1.646 3.489 -3.726a61.262 61.262 0 0 0 0 -2.54c-0.043 -2.08 -1.409 -3.694 -3.489 -3.726a32.444 32.444 0 0 0 -0.996 0c-2.08 0.032 -3.446 1.646 -3.489 3.726a61.262 61.262 0 0 0 0 2.54Z" stroke-width="1"></path>
  </g>
</svg>