<svg xmlns="http://www.w3.org/2000/svg" fill="none" viewBox="0 0 48 48" id="Disable-Protection--Streamline-Plump">
  <desc>
    Disable Protection Streamline Icon: https://streamlinehq.com
  </desc>
  <g id="disable-protection--shield-protection-security-defend-cover-disabled-off">
    <path id="Rectangle 112" stroke="#000000" stroke-linecap="round" stroke-linejoin="round" d="M37.5 37.585c4.685 -4.539 7.34 -10.955 7.34 -17.694a101.1 101.1 0 0 0 -0.654 -11.427c-0.191 -1.647 -1.19 -3.007 -2.81 -3.365C38.85 4.54 33.954 3.89 24.84 3.89c-9.115 0 -14.01 0.65 -16.536 1.208A3.395 3.395 0 0 0 6.5 6.138" stroke-width="3"></path>
    <path id="Rectangle 113" stroke="#000000" stroke-linecap="round" stroke-linejoin="round" d="M5.152 12a101.592 101.592 0 0 0 -0.312 7.891c0 9.029 4.765 17.477 12.792 21.608 2.682 1.38 5.3 2.392 7.208 2.392 1.909 0 4.526 -1.012 7.207 -2.392 0.412 -0.212 0.816 -0.435 1.21 -0.67" stroke-width="3"></path>
    <path id="Vector 864" stroke="#000000" stroke-linecap="round" stroke-linejoin="round" d="m3 3 40 40" stroke-width="3"></path>
  </g>
</svg>