<svg xmlns="http://www.w3.org/2000/svg" fill="none" viewBox="0 0 48 48" id="File-Folder--Streamline-Plump">
  <desc>
    File Folder Streamline Icon: https://streamlinehq.com
  </desc>
  <g id="file-folder--work-office-company-folder-supplies-file">
    <path id="Subtract" stroke="#000000" stroke-linecap="round" stroke-linejoin="round" d="M38.984 17a156.615 156.615 0 0 0 -0.067 -2.97c-0.27 -0.783 -1.292 -3.094 -4.723 -6.398 -3.668 -3.532 -6.157 -4.413 -6.79 -4.592A140.02 140.02 0 0 0 24 3c-4.778 0 -8.186 0.222 -10.443 0.453 -2.204 0.226 -3.852 1.87 -4.073 4.074A86.924 86.924 0 0 0 9.164 12" stroke-width="3"></path>
    <path id="Intersect" stroke="#000000" stroke-linecap="round" stroke-linejoin="round" d="M28.133 3.5c-0.24 1.433 -0.116 3.957 0.065 6.097a4.596 4.596 0 0 0 4.206 4.205c2.14 0.18 4.663 0.305 6.096 0.066" stroke-width="3"></path>
    <path id="Subtract_2" stroke="#000000" stroke-linecap="round" stroke-linejoin="round" d="M12.037 15.241c1.83 -0.195 3.623 0.562 4.848 1.938l1.922 2.16a4 4 0 0 0 2.988 1.34h16.278c3.117 0 5.716 2.388 5.83 5.503 0.06 1.633 0.097 3.401 0.097 5.199 0 3.444 -0.264 6.525 -0.514 8.67 -0.227 1.95 -1.534 3.521 -3.465 3.875C37.261 44.432 32.311 45 24 45c-8.312 0 -13.26 -0.568 -16.021 -1.074 -1.93 -0.354 -3.237 -1.925 -3.465 -3.875A76.135 76.135 0 0 1 4 31.381c0 -5.191 0.287 -9.11 0.546 -11.588 0.204 -1.952 1.495 -3.549 3.418 -3.94a43.674 43.674 0 0 1 4.072 -0.612Z" stroke-width="3"></path>
  </g>
</svg>