<svg xmlns="http://www.w3.org/2000/svg" fill="none" viewBox="0 0 48 48" id="Graphic-Template-Website-Ui--Streamline-Plump">
  <desc>
    Graphic Template Website Ui Streamline Icon: https://streamlinehq.com
  </desc>
  <g id="graphic-template-website-ui">
    <path id="Rectangle 1098" stroke="#000000" stroke-linecap="round" stroke-linejoin="round" d="M36.9098 3.48564c2.5458 0.22377 4.4498 2.21259 4.6276 4.76208C41.7624 11.4754 42 16.6288 42 24s-0.2376 12.5246 -0.4626 15.7523c-0.1778 2.5495 -2.0818 4.5383 -4.6276 4.7621C34.121 44.7595 29.8851 45 24 45s-10.121 -0.2405 -12.9098 -0.4856c-2.54582 -0.2238 -4.44984 -2.2126 -4.62757 -4.7621C6.23761 36.5246 6 31.3712 6 24s0.23761 -12.5246 0.46263 -15.75228c0.17774 -2.54949 2.08175 -4.53831 4.62757 -4.76208C13.879 3.24052 18.1149 3 24 3s10.121 0.24052 12.9098 0.48564Z" stroke-width="3"></path>
    <path id="Vector 2602" stroke="#000000" stroke-linecap="round" stroke-linejoin="round" d="M42 24H6" stroke-width="3"></path>
    <path id="Intersect" stroke="#000000" stroke-linecap="round" stroke-linejoin="round" d="M41.4498 40.4179c-4.0768 -4.0692 -6.8868 -6.309 -8.6437 -7.5212 -1.421 -0.9804 -3.1723 -0.8198 -4.4952 0.2894 -1.5434 1.2941 -4.0296 3.5321 -7.8111 7.3135 -1.6992 1.6993 -3.0868 3.137 -4.2171 4.3451" stroke-width="3"></path>
    <path id="Ellipse 35" stroke="#000000" stroke-linecap="round" stroke-linejoin="round" d="M18 33c0 1.6569 -1.3431 3 -3 3s-3 -1.3431 -3 -3 1.3431 -3 3 -3 3 1.3431 3 3Z" stroke-width="3"></path>
    <path id="Vector" stroke="#000000" stroke-linecap="round" stroke-linejoin="round" d="M13 17h22" stroke-width="3"></path>
    <path id="Vector_2" stroke="#000000" stroke-linecap="round" stroke-linejoin="round" d="M13 10.5h12" stroke-width="3"></path>
  </g>
</svg>