<svg xmlns="http://www.w3.org/2000/svg" fill="none" viewBox="0 0 48 48" id="Heater--Streamline-Plump">
  <desc>
    Heater Streamline Icon: https://streamlinehq.com
  </desc>
  <g id="heater--travel-hotel-heater">
    <path id="Rectangle 1096" stroke="#000000" stroke-linecap="round" stroke-linejoin="round" d="M39.9112 20.329c2.4693 0.1217 4.4762 1.8528 4.7298 4.3121 0.1951 1.8917 0.359 4.4851 0.359 7.8589 0 3.3739 -0.1639 5.9672 -0.359 7.8589 -0.2536 2.4593 -2.2605 4.1904 -4.7298 4.3121C36.6949 44.8295 31.4934 45 24 45c-7.4934 0 -12.6949 -0.1705 -15.91118 -0.329 -2.46929 -0.1217 -4.47618 -1.8528 -4.7298 -4.3121C3.16391 38.4672 3 35.8738 3 32.5c0 -3.3739 0.16391 -5.9672 0.35902 -7.8589 0.25362 -2.4593 2.26051 -4.1904 4.7298 -4.3121C11.3051 20.1705 16.5066 20 24 20c7.4934 0 12.6949 0.1705 15.9112 0.329Z" stroke-width="3"></path>
    <path id="Rectangle 1097" stroke="#000000" stroke-linecap="round" stroke-linejoin="round" d="M36.9446 26.025c1.1782 0.0653 1.9637 1.0404 1.9992 2.2199 0.03 0.9962 0.0562 2.3984 0.0562 4.2551 0 1.8567 -0.0262 3.2589 -0.0562 4.2551 -0.0355 1.1795 -0.821 2.1546 -1.9992 2.2199 -0.2811 0.0156 -0.5954 0.025 -0.9446 0.025 -0.3492 0 -0.6635 -0.0094 -0.9446 -0.025 -1.1782 -0.0653 -1.9637 -1.0404 -1.9992 -2.2199C33.0262 35.7589 33 34.3567 33 32.5c0 -1.8567 0.0262 -3.2589 0.0562 -4.2551 0.0355 -1.1795 0.821 -2.1546 1.9992 -2.2199 0.2811 -0.0156 0.5954 -0.025 0.9446 -0.025 0.3492 0 0.6635 0.0094 0.9446 0.025Z" stroke-width="3"></path>
    <path id="Rectangle 1098" stroke="#000000" stroke-linecap="round" stroke-linejoin="round" d="M24.9446 26.025c1.1782 0.0653 1.9637 1.0404 1.9992 2.2199 0.03 0.9962 0.0562 2.3984 0.0562 4.2551 0 1.8567 -0.0262 3.2589 -0.0562 4.2551 -0.0355 1.1795 -0.821 2.1546 -1.9992 2.2199 -0.2811 0.0156 -0.5954 0.025 -0.9446 0.025 -0.3492 0 -0.6635 -0.0094 -0.9446 -0.025 -1.1782 -0.0653 -1.9637 -1.0404 -1.9992 -2.2199C21.0262 35.7589 21 34.3567 21 32.5c0 -1.8567 0.0262 -3.2589 0.0562 -4.2551 0.0355 -1.1795 0.821 -2.1546 1.9992 -2.2199 0.2811 -0.0156 0.5954 -0.025 0.9446 -0.025 0.3492 0 0.6635 0.0094 0.9446 0.025Z" stroke-width="3"></path>
    <path id="Vector" stroke="#000000" stroke-linecap="round" stroke-linejoin="round" d="M24 3c-1.2533 1.65685 -1.4112 3.69231 0 6 1.4112 2.3077 1.2533 4.3431 0 6" stroke-width="3"></path>
    <path id="Vector_2" stroke="#000000" stroke-linecap="round" stroke-linejoin="round" d="M14.0001 3c-1.2533 1.65685 -1.4113 3.69231 0 6 1.4112 2.3077 1.2532 4.3431 0 6" stroke-width="3"></path>
    <path id="Vector_3" stroke="#000000" stroke-linecap="round" stroke-linejoin="round" d="M34 3c-1.2533 1.65685 -1.4112 3.69231 0 6 1.4112 2.3077 1.2533 4.3431 0 6" stroke-width="3"></path>
    <path id="Ellipse 541" stroke="#000000" stroke-linecap="round" stroke-linejoin="round" d="M15 29c0 1.6569 -1.3431 3 -3 3s-3 -1.3431 -3 -3 1.3431 -3 3 -3 3 1.3431 3 3Z" stroke-width="3"></path>
  </g>
</svg>