<svg xmlns="http://www.w3.org/2000/svg" fill="none" viewBox="0 0 48 48" id="Hierarchy-15--Streamline-Plump">
  <desc>
    Hierarchy 15 Streamline Icon: https://streamlinehq.com
  </desc>
  <g id="hierarchy-15--node-organization-links-structure-link-nodes-network-hierarchy">
    <path id="Vector 978" stroke="#000000" stroke-linecap="round" stroke-linejoin="round" d="m23 24 12 0" stroke-width="1"></path>
    <path id="Rectangle 56" stroke="#000000" stroke-linecap="round" stroke-linejoin="round" d="M19.305 33.8313c1.7226 -0.1147 3.0605 -1.2363 3.303 -2.9455C22.8173 29.4114 23 27.206 23 24c0 -3.206 -0.1827 -5.4114 -0.392 -6.8858 -0.2425 -1.7092 -1.5804 -2.8309 -3.303 -2.9455C17.9232 14.0768 15.9008 14 13 14s-4.92325 0.0768 -6.30501 0.1687c-1.72257 0.1147 -3.06045 1.2363 -3.30302 2.9455C3.18273 18.5886 3 20.794 3 24c0 3.206 0.18273 5.4114 0.39197 6.8858 0.24257 1.7092 1.58045 2.8308 3.30302 2.9455C8.07675 33.9232 10.0992 34 13 34c2.9008 0 4.9233 -0.0768 6.305 -0.1687Z" stroke-width="1"></path>
    <path id="Rectangle 58" stroke="#000000" stroke-linecap="round" stroke-linejoin="round" d="M42.2482 12.962c1.4376 -0.0551 2.5335 -0.9863 2.6563 -2.4197C44.9609 9.88395 45 9.04913 45 8s-0.0391 -1.88396 -0.0955 -2.54226c-0.1228 -1.43341 -1.2187 -2.36467 -2.6563 -2.41971C41.6533 3.01525 40.9138 3 40 3c-0.9138 0 -1.6533 0.01525 -2.2482 0.03803 -1.4376 0.05504 -2.5335 0.98631 -2.6563 2.41971C35.0391 6.11605 35 6.95087 35 8c0 1.04913 0.0391 1.88395 0.0955 2.5423 0.1228 1.4334 1.2187 2.3646 2.6563 2.4197 0.5949 0.0228 1.3344 0.038 2.2482 0.038 0.9138 0 1.6533 -0.0152 2.2482 -0.038Z" stroke-width="1"></path>
    <path id="Rectangle 60" stroke="#000000" stroke-linecap="round" stroke-linejoin="round" d="M42.2482 28.962c1.4376 -0.0551 2.5335 -0.9863 2.6563 -2.4197C44.9609 25.884 45 25.0491 45 24s-0.0391 -1.884 -0.0955 -2.5423c-0.1228 -1.4334 -1.2187 -2.3646 -2.6563 -2.4197C41.6533 19.0152 40.9138 19 40 19c-0.9138 0 -1.6533 0.0152 -2.2482 0.038 -1.4376 0.0551 -2.5335 0.9863 -2.6563 2.4197C35.0391 22.116 35 22.9509 35 24s0.0391 1.884 0.0955 2.5423c0.1228 1.4334 1.2187 2.3646 2.6563 2.4197 0.5949 0.0228 1.3344 0.038 2.2482 0.038 0.9138 0 1.6533 -0.0152 2.2482 -0.038Z" stroke-width="1"></path>
    <path id="Rectangle 61" stroke="#000000" stroke-linecap="round" stroke-linejoin="round" d="M42.2482 44.962c1.4376 -0.0551 2.5335 -0.9863 2.6563 -2.4197C44.9609 41.884 45 41.0491 45 40s-0.0391 -1.884 -0.0955 -2.5423c-0.1228 -1.4334 -1.2187 -2.3646 -2.6563 -2.4197C41.6533 35.0152 40.9138 35 40 35c-0.9138 0 -1.6533 0.0152 -2.2482 0.038 -1.4376 0.0551 -2.5335 0.9863 -2.6563 2.4197C35.0391 38.116 35 38.9509 35 40s0.0391 1.884 0.0955 2.5423c0.1228 1.4334 1.2187 2.3646 2.6563 2.4197 0.5949 0.0228 1.3344 0.038 2.2482 0.038 0.9138 0 1.6533 -0.0152 2.2482 -0.038Z" stroke-width="1"></path>
    <path id="Subtract" stroke="#000000" stroke-linecap="round" stroke-linejoin="round" d="m35.0025 39.5459 -2.3646 -0.215C30.5775 39.1436 29 37.4162 29 35.3474l0 -22.6943c0 -2.0688 1.5775 -3.7963 3.6379 -3.9836l2.3646 -0.21497" stroke-width="1"></path>
  </g>
</svg>