<svg xmlns="http://www.w3.org/2000/svg" fill="none" viewBox="0 0 48 48" id="Hierarchy-1--Streamline-Plump">
  <desc>
    Hierarchy 1 Streamline Icon: https://streamlinehq.com
  </desc>
  <g id="hierarchy-1--node-organization-links-structure-link-nodes-network-hierarchy">
    <path id="Rectangle 125" stroke="#000000" stroke-linecap="round" stroke-linejoin="round" d="M16.876 19.496c-0.08 -1.148 -0.829 -2.041 -1.968 -2.209C13.877 17.135 12.31 17 10 17c-2.31 0 -3.877 0.135 -4.908 0.287 -1.14 0.168 -1.888 1.06 -1.968 2.209C3.057 20.464 3 21.905 3 24c0 2.095 0.057 3.536 0.124 4.504 0.08 1.148 0.829 2.041 1.968 2.209C6.123 30.865 7.69 31 10 31c2.31 0 3.877 -0.135 4.908 -0.287 1.14 -0.168 1.888 -1.06 1.968 -2.209 0.067 -0.968 0.124 -2.409 0.124 -4.504 0 -2.095 -0.057 -3.536 -0.124 -4.504Z" stroke-width="3"></path>
    <path id="Rectangle 1097" stroke="#000000" stroke-linecap="round" stroke-linejoin="round" d="M31.124 5.496c0.08 -1.149 0.829 -2.041 1.968 -2.209C34.123 3.135 35.69 3 38 3c2.31 0 3.877 0.135 4.908 0.287 1.14 0.168 1.888 1.06 1.968 2.209 0.067 0.968 0.124 2.409 0.124 4.504 0 2.095 -0.057 3.536 -0.124 4.504 -0.08 1.149 -0.829 2.041 -1.968 2.209C41.877 16.865 40.31 17 38 17c-2.31 0 -3.877 -0.135 -4.908 -0.287 -1.14 -0.168 -1.888 -1.06 -1.968 -2.209C31.057 13.536 31 12.095 31 10c0 -2.095 0.057 -3.536 0.124 -4.504Z" stroke-width="3"></path>
    <path id="Rectangle 1099" stroke="#000000" stroke-linecap="round" stroke-linejoin="round" d="M31.124 42.504c0.08 1.149 0.829 2.041 1.968 2.209C34.123 44.865 35.69 45 38 45c2.31 0 3.877 -0.135 4.908 -0.287 1.14 -0.168 1.888 -1.06 1.968 -2.209 0.067 -0.968 0.124 -2.409 0.124 -4.504 0 -2.095 -0.057 -3.536 -0.124 -4.504 -0.08 -1.149 -0.829 -2.041 -1.968 -2.209C41.877 31.135 40.31 31 38 31c-2.31 0 -3.877 0.135 -4.908 0.287 -1.14 0.168 -1.888 1.06 -1.968 2.209C31.057 34.464 31 35.905 31 38c0 2.095 0.057 3.536 0.124 4.504Z" stroke-width="3"></path>
    <path id="Subtract" stroke="#000000" stroke-linecap="round" stroke-linejoin="round" d="m31.066 34.533 -14.132 -7.066" stroke-width="3"></path>
    <path id="Subtract_2" stroke="#000000" stroke-linecap="round" stroke-linejoin="round" d="m31.066 13.467 -14.132 7.066" stroke-width="3"></path>
  </g>
</svg>