<svg xmlns="http://www.w3.org/2000/svg" fill="none" viewBox="0 0 48 48" id="Invisible-1--Streamline-Plump">
  <desc>
    Invisible 1 Streamline Icon: https://streamlinehq.com
  </desc>
  <g id="invisible-1--disable-eye-eyeball-hide-off-view">
    <path id="Intersect" stroke="#000000" stroke-linecap="round" stroke-linejoin="round" d="M37 36.75a22.03 22.03 0 0 0 8.2 -11.85 3.366 3.366 0 0 0 0 -1.801C42.62 13.814 34.106 7 24 7a21.9 21.9 0 0 0 -12.652 4M32 39.5c-2.48 0.968 -5.178 1.5 -8 1.5 -10.107 0 -18.622 -6.814 -21.2 -16.099a3.366 3.366 0 0 1 0 -1.802A21.94 21.94 0 0 1 7.028 15" stroke-width="1"></path>
    <path id="Ellipse 18" stroke="#000000" stroke-linecap="round" stroke-linejoin="round" d="M31.142 31A9.967 9.967 0 0 0 34 24c0 -5.523 -4.477 -10 -10 -10a9.97 9.97 0 0 0 -7.141 3" stroke-width="1"></path>
    <path id="Vector 864" stroke="#000000" stroke-linecap="round" stroke-linejoin="round" d="m3 3 42 42" stroke-width="1"></path>
  </g>
</svg>