<svg xmlns="http://www.w3.org/2000/svg" fill="none" viewBox="0 0 48 48" id="Rotate-Left--Streamline-Plump">
  <desc>
    Rotate Left Streamline Icon: https://streamlinehq.com
  </desc>
  <g id="rotate-left">
    <path id="Union" stroke="#000000" stroke-linecap="round" stroke-linejoin="round" d="M23.8407 3c11.6855 0 21.1585 9.8049 21.1585 21.3155 0 4.9064 -1.7212 9.4168 -4.6012 12.9774 -0.7754 0.9586 -2.2264 0.8299 -2.9403 -0.1753l-1.6827 -2.3694c-0.5315 -0.7483 -0.4725 -1.7543 0.0451 -2.5123 1.5452 -2.2631 2.4469 -4.9881 2.4469 -7.9204 0 -7.8482 -6.4589 -13.7367 -14.4263 -13.7367 -3.474 0 -6.445 1.3982 -8.7741 3.5535 0.648 0.4074 1.191 0.7609 1.6448 1.0652 1.1149 0.7477 0.9534 2.2294 -0.2788 2.7643 -4.3769 1.9002 -7.738 2.4334 -9.37262 2.5821 -0.68193 0.062 -1.3053 -0.2982 -1.59225 -0.9199 -0.68865 -1.4921 -1.90899 -4.6757 -2.45563 -9.4257 -0.1538 -1.33643 1.05043 -2.21759 2.25594 -1.62265 0.59675 0.29451 1.32235 0.66737 2.19838 1.13862C11.5234 5.50985 17.5307 3 23.8407 3Z" stroke-width="3"></path>
    <path id="Union_2" stroke="#000000" stroke-linecap="round" stroke-linejoin="round" d="M33.6201 40.348c0.6738 0.9488 0.4009 2.2788 -0.6516 2.7753 -1.9816 0.9348 -4.1338 1.5746 -6.3983 1.8618 -1.2221 0.155 -2.1834 -0.9377 -2.0083 -2.1572l0.4022 -2.7999c0.1317 -0.9168 0.8793 -1.6087 1.7872 -1.7918 0.9095 -0.1836 1.7879 -0.4514 2.6262 -0.7949 0.9477 -0.3882 2.071 -0.1509 2.664 0.684l1.5786 2.2227Z" stroke-width="3"></path>
    <path id="Union_3" stroke="#000000" stroke-linecap="round" stroke-linejoin="round" d="M19.5566 42.5078c-0.166 1.1558 -1.2875 1.9329 -2.3909 1.5513 -1.9275 -0.6665 -3.6987 -1.6184 -5.2814 -2.8064 -0.9479 -0.7115 -0.9128 -2.1002 -0.0156 -2.8745l1.8301 -1.5792c0.6692 -0.5775 1.6331 -0.6366 2.4163 -0.2266 0.7453 0.3901 1.5219 0.728 2.3193 1.0079 0.9777 0.3433 1.6433 1.3002 1.496 2.3259l-0.3738 2.6016Z" stroke-width="3"></path>
    <path id="Union_4" stroke="#000000" stroke-linecap="round" stroke-linejoin="round" d="M9.94548 30.894c0.54882 0.9289 0.45552 2.1468 -0.36127 2.8517l-0.82504 0.7119c-0.92281 0.7964 -2.34381 0.5902 -2.88421 -0.5024 -0.55131 -1.1146 -1.01224 -2.2885 -1.37533 -3.5103 -0.35652 -1.1996 0.59248 -2.3394 1.84395 -2.3394h0.88468c0.89675 0 1.66814 0.6049 2.02367 1.4281 0.20124 0.4661 0.43337 0.92 0.69355 1.3604Z" stroke-width="3"></path>
  </g>
</svg>