<svg xmlns="http://www.w3.org/2000/svg" fill="none" viewBox="0 0 48 48" id="Spiral-Shape--Streamline-Plump">
  <desc>
    Spiral Shape Streamline Icon: https://streamlinehq.com
  </desc>
  <g id="spiral-shape">
    <path id="Spiral 1" stroke="#000000" stroke-linecap="round" stroke-linejoin="round" d="M21.5401 26.5085c-0.6856 -0.5818 0.1819 -2.1695 1.7811 -1.8187 1.5366 0.1832 3.0303 2.7273 1.6448 5.3169 -1.1658 2.5812 -5.3953 4.2303 -8.7693 1.9582 -3.4238 -2.0015 -4.8456 -7.9661 -1.5089 -12.4531 3.0177 -4.5674 10.6054 -6.298 15.7579 -2.0971 5.3072 3.8119 6.66 13.2164 1.3725 19.5887 -4.8723 6.5679 -15.8129 8.3553 -22.74604 2.2366C1.88551 33.6111 0.589051 20.7812 7.83575 12.5153 14.5613 3.9485 28.8616 2.09971 37.5702 10.1396c9.0722 7.4483 10.3 23.6976 1.1001 33.8604" stroke-width="3"></path>
  </g>
</svg>