<svg xmlns="http://www.w3.org/2000/svg" fill="none" viewBox="0 0 48 48" id="Synchronize--Streamline-Plump">
  <desc>
    Synchronize Streamline Icon: https://streamlinehq.com
  </desc>
  <g id="synchronize--arrows-loading-load-sync-synchronize-arrow-reload">
    <path id="Union" stroke="#000000" stroke-linecap="round" stroke-linejoin="round" d="M21.8399 3.11316c1.2851 -0.13367 2.4341 0.73444 2.4234 2.02646 -0.0068 0.82963 -0.1269 1.85537 -0.5002 2.99496 -0.3297 1.00663 -1.3114 1.59335 -2.3531 1.78511 -3.9823 0.73301 -7.6302 3.14171 -9.8135 6.92331 -3.10161 5.3722 -2.32595 11.9188 1.4587 16.3994 0.8591 -0.6612 1.6017 -1.2003 2.2336 -1.6376 1.3739 -0.9509 3.014 -0.0623 2.9902 1.6084 -0.0372 2.614 -0.3397 5.4548 -0.671 7.8372 -0.2038 1.4655 -1.4784 2.5351 -2.9571 2.4814 -2.4226 -0.0881 -5.29873 -0.2859 -7.8955 -0.7099 -1.63074 -0.2664 -2.21506 -2.0009 -1.05403 -3.1766 0.58593 -0.5934 1.3176 -1.298 2.22502 -2.1186 -5.53017 -6.5708 -6.65798 -16.1562 -2.11552 -24.024C9.30994 7.44214 15.3739 3.78575 21.8399 3.11316Z" stroke-width="3"></path>
    <path id="Union_2" stroke="#000000" stroke-linecap="round" stroke-linejoin="round" d="M26.1601 44.8864c-1.2851 0.1336 -2.4342 -0.7345 -2.4235 -2.0265 0.0069 -0.8296 0.127 -1.8554 0.5003 -2.995 0.3297 -1.0066 1.3114 -1.5933 2.3531 -1.7851 3.9823 -0.733 7.6302 -3.1417 9.8135 -6.9233 3.1016 -5.3721 2.3259 -11.9188 -1.4588 -16.3994 -0.8591 0.6612 -1.6016 1.2004 -2.2335 1.6377 -1.3739 0.9508 -3.014 0.0622 -2.9902 -1.6085 0.0372 -2.614 0.3396 -5.45482 0.6709 -7.83715 0.2038 -1.46553 1.4785 -2.53513 2.9571 -2.48139 2.4227 0.08804 5.2988 0.28583 7.8956 0.70991 1.6307 0.26632 2.215 2.0009 1.054 3.1766 -0.5859 0.59334 -1.3176 1.29791 -2.225 2.11853 5.5302 6.5708 6.658 16.1563 2.1155 24.024 -3.4991 6.0606 -9.5631 9.717 -16.029 10.3896Z" stroke-width="3"></path>
  </g>
</svg>