<svg xmlns="http://www.w3.org/2000/svg" fill="none" viewBox="0 0 48 48" id="Text-Box-1--Streamline-Plump">
  <desc>
    Text Box 1 Streamline Icon: https://streamlinehq.com
  </desc>
  <g id="text-box-1">
    <path id="Union" stroke="#000000" stroke-linecap="round" stroke-linejoin="round" d="M34.293 13.5c0.983 0 1.818 0.715 1.908 1.694 0.145 1.567 0.262 3.968 -0.07 6.093a0.927 0.927 0 0 1 -0.853 0.777c-0.902 0.069 -2.468 0.156 -3.611 0.04 -0.406 -0.04 -0.708 -0.368 -0.77 -0.771L30.61 19.5H27V30h2.279c0.43 0 0.81 0.275 0.905 0.695 0.204 0.91 0.452 2.575 0.028 4.162 -0.105 0.395 -0.48 0.643 -0.89 0.643H18.678c-0.41 0 -0.784 -0.248 -0.89 -0.643 -0.424 -1.587 -0.176 -3.252 0.028 -4.162 0.094 -0.42 0.475 -0.695 0.905 -0.695H21V19.5h-3.5l-0.285 1.833c-0.062 0.403 -0.364 0.73 -0.77 0.771 -1.167 0.117 -2.793 0.028 -3.72 -0.042a0.928 0.928 0 0 1 -0.857 -0.777c-0.331 -2.125 -0.214 -4.525 -0.07 -6.091 0.091 -0.98 0.925 -1.694 1.908 -1.694h20.587Z" stroke-width="1"></path>
    <path id="Ellipse 18" stroke="#000000" stroke-linecap="round" stroke-linejoin="round" d="M7 37a4 4 0 1 1 0 8 4 4 0 0 1 0 -8Z" stroke-width="1"></path>
    <path id="Ellipse 19" stroke="#000000" stroke-linecap="round" stroke-linejoin="round" d="M41 37a4 4 0 1 1 0 8 4 4 0 0 1 0 -8Z" stroke-width="1"></path>
    <path id="Ellipse 20" stroke="#000000" stroke-linecap="round" stroke-linejoin="round" d="M41 3a4 4 0 1 1 0 8 4 4 0 0 1 0 -8Z" stroke-width="1"></path>
    <path id="Ellipse 22" stroke="#000000" stroke-linecap="round" stroke-linejoin="round" d="M7 3a4 4 0 1 1 0 8 4 4 0 0 1 0 -8Z" stroke-width="1"></path>
    <path id="Subtract" stroke="#000000" stroke-linecap="round" stroke-linejoin="round" d="M6.426 10.96C6.213 13.745 6 18.021 6 24c0 5.978 0.213 10.254 0.426 13.04m4.533 4.534C13.746 41.787 18.022 42 24 42c5.978 0 10.254 -0.213 13.04 -0.426m4.534 -4.533C41.787 34.254 42 29.978 42 24c0 -5.978 -0.213 -10.254 -0.426 -13.04M37.04 6.425C34.254 6.213 29.978 6 24 6c-5.978 0 -10.254 0.213 -13.04 0.426" stroke-width="1"></path>
  </g>
</svg>