<svg xmlns="http://www.w3.org/2000/svg" fill="none" viewBox="0 0 48 48" id="Warp-Squeeze--Streamline-Plump">
  <desc>
    Warp Squeeze Streamline Icon: https://streamlinehq.com
  </desc>
  <g id="warp-squeeze">
    <path id="Vector" stroke="#000000" stroke-linecap="round" stroke-linejoin="round" d="M15.0001 24c0 -6.3611 -5.99451 -10.2244 -9.50989 -11.9431 -1.20968 -0.5914 -1.62548 -2.11509 -0.60358 -2.99192C7.64588 6.69742 13.6171 3 24.0001 3s16.3542 3.69742 19.1135 6.06498c1.0219 0.87683 0.6061 2.40052 -0.6036 2.99192 -3.5154 1.7187 -9.5099 5.582 -9.5099 11.9431 0 6.3611 5.9945 10.2244 9.5099 11.9431 1.2097 0.5914 1.6255 2.1151 0.6036 2.9919C40.3543 41.3026 34.3831 45 24.0001 45S7.64588 41.3026 4.88662 38.935c-1.02189 -0.8768 -0.60609 -2.4005 0.60359 -2.9919C9.00559 34.2244 15.0001 30.3611 15.0001 24Z" stroke-width="1"></path>
  </g>
</svg>