<svg viewBox="0 0 48 48" xmlns="http://www.w3.org/2000/svg"><path d="M3.07,32.35h8.71a5.47,5.47,0,1,1,0,10.93H8.13a1.83,1.83,0,0,1,0-3.65H5.39a1.82,1.82,0,1,1,0-3.64H3.07a1.82,1.82,0,0,1,0-3.64Z" fill="#fff"></path><path d="M8.13,41.31h3.65a5.46,5.46,0,0,0,5.37-4.48,5.25,5.25,0,0,1,.1,1,5.47,5.47,0,0,1-5.47,5.47H8.13a1.83,1.83,0,0,1-1.82-1.82,1.85,1.85,0,0,1,.29-1A1.8,1.8,0,0,0,8.13,41.31Z" fill="#e5feff"></path><path d="M3.07,32.35h8.71a5.47,5.47,0,1,1,0,10.93H8.13a1.83,1.83,0,0,1,0-3.65H5.39a1.82,1.82,0,1,1,0-3.64H3.07a1.82,1.82,0,0,1,0-3.64Z" fill="none" stroke="#45413c" stroke-linecap="round" stroke-linejoin="round"></path><path d="M9.54 35.99L5.39 35.99" fill="none" stroke="#45413c" stroke-linecap="round" stroke-linejoin="round"></path><path d="M8.13 39.63L11.25 39.63" fill="none" stroke="#45413c" stroke-linecap="round" stroke-linejoin="round"></path><path d="M44.93,32.35H36.22a5.47,5.47,0,1,0,0,10.93h3.65a1.83,1.83,0,0,0,0-3.65h2.74a1.82,1.82,0,0,0,0-3.64h2.32a1.82,1.82,0,1,0,0-3.64Z" fill="#fff"></path><path d="M39.87,41.31H36.22a5.46,5.46,0,0,1-5.37-4.48,5.25,5.25,0,0,0-.1,1,5.47,5.47,0,0,0,5.47,5.47h3.65a1.83,1.83,0,0,0,1.82-1.82,1.85,1.85,0,0,0-.29-1A1.8,1.8,0,0,1,39.87,41.31Z" fill="#e5feff"></path><path d="M44.93,32.35H36.22a5.47,5.47,0,1,0,0,10.93h3.65a1.83,1.83,0,0,0,0-3.65h2.74a1.82,1.82,0,0,0,0-3.64h2.32a1.82,1.82,0,1,0,0-3.64Z" fill="none" stroke="#45413c" stroke-linecap="round" stroke-linejoin="round"></path><path d="M38.46 35.99L42.61 35.99" fill="none" stroke="#45413c" stroke-linecap="round" stroke-linejoin="round"></path><path d="M39.87 39.63L36.75 39.63" fill="none" stroke="#45413c" stroke-linecap="round" stroke-linejoin="round"></path><path d="M5.990 25.930 A2.94 3.25 0 1 0 11.870 25.930 A2.94 3.25 0 1 0 5.990 25.930 Z" fill="#ffcebf" stroke="#45413c" stroke-linecap="round" stroke-linejoin="round"></path><path d="M36.130 25.930 A2.94 3.25 0 1 0 42.010 25.930 A2.94 3.25 0 1 0 36.130 25.930 Z" fill="#ffcebf" stroke="#45413c" stroke-linecap="round" stroke-linejoin="round"></path><path d="M8.930 25.930 A15.070 15.070 0 1 0 39.070 25.930 A15.070 15.070 0 1 0 8.930 25.930 Z" fill="#ffcebf"></path><path d="M24,10.87A15.07,15.07,0,1,0,39.07,25.93,15.07,15.07,0,0,0,24,10.87Zm0,27.87A13.75,13.75,0,1,1,37.75,25,13.75,13.75,0,0,1,24,38.74Z" fill="#ffb59e"></path><path d="M8.000 45.500 A16 1.5 0 1 0 40.000 45.500 A16 1.5 0 1 0 8.000 45.500 Z" fill="#45413c" opacity=".15"></path><path d="M8.930 25.930 A15.070 15.070 0 1 0 39.070 25.930 A15.070 15.070 0 1 0 8.930 25.930 Z" fill="none" stroke="#45413c" stroke-linecap="round" stroke-linejoin="round"></path><path d="M16.84,25.86a.75.75,0,1,1-.75-.76A.75.75,0,0,1,16.84,25.86Z" fill="#45413c" stroke="#45413c" stroke-linecap="round" stroke-linejoin="round"></path><path d="M31.16,25.86a.75.75,0,1,0,.75-.76A.75.75,0,0,0,31.16,25.86Z" fill="#45413c" stroke="#45413c" stroke-linecap="round" stroke-linejoin="round"></path><path d="M34.92,30.38c0,.62-.84,1.13-1.88,1.13s-1.88-.51-1.88-1.13S32,29.25,33,29.25,34.92,29.75,34.92,30.38Z" fill="#ffb59e"></path><path d="M13.08,30.38c0,.62.84,1.13,1.88,1.13s1.88-.51,1.88-1.13S16,29.25,15,29.25,13.08,29.75,13.08,30.38Z" fill="#ffb59e"></path><path d="M39.75,22.43S39.25,7.62,24,7.62C9.38,7.62,8.19,20.56,8.13,22.25a3.77,3.77,0,0,1,.58,0,6,6,0,0,0,5.11-1.61h0l.25,1.69,5.25-2.69a11.22,11.22,0,0,0,6.18,3,16,16,0,0,0,5.66,0L31.63,20l1.88,1.29A7.83,7.83,0,0,0,39.75,22.43Z" fill="#a86c4d"></path><path d="M24,10.57c11,0,14.3,7.64,15.31,12,.15,0,.3-.05.44-.09S39.25,7.62,24,7.62C9.38,7.62,8.19,20.56,8.13,22.25a3.11,3.11,0,0,1,.43,0C9.58,17.94,13,10.57,24,10.57Z" fill="#de926a"></path><path d="M39.75,22.43S39.25,7.62,24,7.62C9.38,7.62,8.19,20.56,8.13,22.25a3.77,3.77,0,0,1,.58,0,6,6,0,0,0,5.11-1.61h0l.25,1.69,5.25-2.69a11.22,11.22,0,0,0,6.18,3,16,16,0,0,0,5.66,0L31.63,20l1.88,1.29A7.83,7.83,0,0,0,39.75,22.43Z" fill="none" stroke="#45413c" stroke-linecap="round" stroke-linejoin="round"></path><path d="M24,2.5C15.47,2.5,8.56,5.21,8.56,8.56S15.47,14.63,24,14.63s15.44-2.72,15.44-6.07S32.53,2.5,24,2.5Zm0,9.07c-6,0-10.92-1.35-10.92-3s4.89-3,10.92-3,10.92,1.35,10.92,3S30,11.57,24,11.57Z" fill="#ffe500"></path><path d="M24,4.38c7.71,0,14.09,2.22,15.24,5.12a2.56,2.56,0,0,0,.2-.94C39.44,5.21,32.53,2.5,24,2.5S8.56,5.21,8.56,8.56a2.56,2.56,0,0,0,.2.94C9.91,6.6,16.29,4.38,24,4.38Z" fill="#fff48c"></path><path d="M24,2.5C15.47,2.5,8.56,5.21,8.56,8.56S15.47,14.63,24,14.63s15.44-2.72,15.44-6.07S32.53,2.5,24,2.5Zm0,9.07c-6,0-10.92-1.35-10.92-3s4.89-3,10.92-3,10.92,1.35,10.92,3S30,11.57,24,11.57Z" fill="none" stroke="#45413c" stroke-linecap="round" stroke-linejoin="round"></path><path d="M19.85,33.5A5.12,5.12,0,0,0,24,35.25a5.12,5.12,0,0,0,4.15-1.75" fill="none" stroke="#45413c" stroke-linecap="round" stroke-linejoin="round"></path></svg>