<svg viewBox="0 0 48 48" xmlns="http://www.w3.org/2000/svg"><path d="M13.000 45.500 A11 1.5 0 1 0 35.000 45.500 A11 1.5 0 1 0 13.000 45.500 Z" fill="#45413c" opacity=".15"></path><path d="M33.23,20a2.61,2.61,0,0,0-2.61,2.61V20a2.78,2.78,0,0,0-5.56,0,2.78,2.78,0,0,0-5.56,0V7.57a2.42,2.42,0,1,0-4.83,0V26a8.14,8.14,0,0,0-1.55-4.77,3.94,3.94,0,0,0-5-1.32,1.58,1.58,0,0,0-.67,2.17l2.21,4A27.22,27.22,0,0,1,12,32a12.27,12.27,0,0,0,5.31,7.13,12.59,12.59,0,0,0,6.75,2h4.14a7.61,7.61,0,0,0,7.6-7.6V22.58A2.61,2.61,0,0,0,33.23,20Z" fill="#ffcebf"></path><path d="M7.79,22.76a1.53,1.53,0,0,1,.3-.19,4.42,4.42,0,0,1,5.45,1.16A7.07,7.07,0,0,1,14.67,26a8.14,8.14,0,0,0-1.55-4.77,3.94,3.94,0,0,0-5-1.32,1.58,1.58,0,0,0-.67,2.17Z" fill="#ffdcd1"></path><path d="M17.08,7.78a2.41,2.41,0,0,1,2.42,2.41V7.57a2.42,2.42,0,1,0-4.83,0v2.62A2.41,2.41,0,0,1,17.08,7.78Z" fill="#ffdcd1"></path><path d="M33.23,20a2.61,2.61,0,0,0-2.61,2.61V20a2.78,2.78,0,0,0-5.56,0,2.78,2.78,0,0,0-5.56,0v2.38a2.78,2.78,0,1,1,5.56,0,2.78,2.78,0,0,1,2.78-2.78,3,3,0,0,1,2.78,3v.34c0-1.44,1.34-2,2.61-1.8a3.42,3.42,0,0,1,2.61,3.24h0v-1.8A2.61,2.61,0,0,0,33.23,20Z" fill="#ffdcd1"></path><path d="M33.23,20a2.61,2.61,0,0,0-2.61,2.61V20a2.78,2.78,0,0,0-5.56,0,2.78,2.78,0,0,0-5.56,0V7.57a2.42,2.42,0,1,0-4.83,0V26a8.14,8.14,0,0,0-1.55-4.77,3.94,3.94,0,0,0-5-1.32,1.58,1.58,0,0,0-.67,2.17l2.21,4A27.22,27.22,0,0,1,12,32a12.27,12.27,0,0,0,5.31,7.13,12.59,12.59,0,0,0,6.75,2h4.14a7.61,7.61,0,0,0,7.6-7.6V22.58A2.61,2.61,0,0,0,33.23,20Z" fill="none" stroke="#45413c" stroke-linecap="round" stroke-linejoin="round"></path><path d="M25.06 19.97L25.06 22.07" fill="none" stroke="#45413c" stroke-linecap="round" stroke-linejoin="round"></path><path d="M19.5 19.97L19.5 22.07" fill="none" stroke="#45413c" stroke-linecap="round" stroke-linejoin="round"></path><path d="M14.67 26.03L14.67 27.89" fill="none" stroke="#45413c" stroke-linecap="round" stroke-linejoin="round"></path></svg>