<svg viewBox="0 0 48 48" xmlns="http://www.w3.org/2000/svg"><path d="M10.500 44.500 A13.5 1.5 0 1 0 37.500 44.500 A13.5 1.5 0 1 0 10.500 44.500 Z" fill="#45413c" opacity=".15"></path><path d="M40.88,22.75a3.27,3.27,0,0,0-2.8-3.23C36.71,12.37,30.93,7,24,7S11.29,12.37,9.92,19.52a3.27,3.27,0,0,0,0,6.47C11.29,33.13,17.07,38.5,24,38.5S36.71,33.13,38.08,26A3.28,3.28,0,0,0,40.88,22.75Z" fill="#d18660" stroke="#45413c"></path><path d="M15.55,21.9a1.2,1.2,0,1,0,1.2-1.2A1.2,1.2,0,0,0,15.55,21.9Z" fill="#45413c" stroke="#45413c" stroke-linecap="round" stroke-linejoin="round"></path><path d="M32.45,21.9a1.2,1.2,0,1,1-1.2-1.2A1.2,1.2,0,0,1,32.45,21.9Z" fill="#45413c" stroke="#45413c" stroke-linecap="round" stroke-linejoin="round"></path><path d="M19.59,29.2a.69.69,0,0,0-.52.24.68.68,0,0,0-.16.55,5.16,5.16,0,0,0,10.18,0,.68.68,0,0,0-.16-.55.69.69,0,0,0-.52-.24Z" fill="#ff6242"></path><path d="M24,31.32a6.29,6.29,0,0,0-3.92,1.2,5.21,5.21,0,0,0,7.84,0A6.29,6.29,0,0,0,24,31.32Z" fill="#ffa694"></path><path d="M19.59,29.2a.69.69,0,0,0-.52.24.68.68,0,0,0-.16.55,5.16,5.16,0,0,0,10.18,0,.68.68,0,0,0-.16-.55.69.69,0,0,0-.52-.24Z" fill="none" stroke="#45413c" stroke-linecap="round" stroke-linejoin="round"></path><path d="M13.210 27.010 A1.55 0.93 0 1 0 16.310 27.010 A1.55 0.93 0 1 0 13.210 27.010 Z" fill="#bd704a"></path><path d="M31.690 27.010 A1.55 0.93 0 1 0 34.790 27.010 A1.55 0.93 0 1 0 31.690 27.010 Z" fill="#bd704a"></path><path d="M9.62,19.58a16.41,16.41,0,0,0,5.65-1.75,12.83,12.83,0,0,0,3.63-3v2.72a11.89,11.89,0,0,0,5.51-1.36,8.36,8.36,0,0,0,3.11-2.79,9.87,9.87,0,0,0,4.16,4.21,14.9,14.9,0,0,0,6.4,1.89V17.93a14.23,14.23,0,0,0-28.46,0Z" fill="#614b44"></path><path d="M23.85,3.71A14.23,14.23,0,0,0,9.62,17.93v1.65h.13A14.23,14.23,0,0,1,38,19.51h.13V17.93A14.23,14.23,0,0,0,23.85,3.71Z" fill="#947063"></path><path d="M9.62,19.58a16.41,16.41,0,0,0,5.65-1.75,12.83,12.83,0,0,0,3.63-3v2.72a11.89,11.89,0,0,0,5.51-1.36,8.36,8.36,0,0,0,3.11-2.79,9.87,9.87,0,0,0,4.16,4.21,14.9,14.9,0,0,0,6.4,1.89V17.93a14.23,14.23,0,0,0-28.46,0Z" fill="none" stroke="#45413c" stroke-linecap="round" stroke-linejoin="round"></path></svg>