<svg viewBox="0 0 48 48" xmlns="http://www.w3.org/2000/svg"><path d="M7.89,45V27.86a18.51,18.51,0,0,1,2.38-9.08h0A10.29,10.29,0,0,1,20.55,8.49h6.9A10.29,10.29,0,0,1,37.73,18.78h0a18.51,18.51,0,0,1,2.38,9.08V45Z" fill="#e0e0e0"></path><path d="M37.73,18.78A10.29,10.29,0,0,0,27.45,8.49h-6.9A10.29,10.29,0,0,0,10.27,18.78a18.51,18.51,0,0,0-2.38,9.08V45H9.58V31.91c0-5.39,1.34-7.84,3.38-9.08h0c0-5.68,4.12-10.29,9.2-10.29h3.68c5.08,0,9.2,4.61,9.2,10.29h0c2.21,1.24,3.38,2.94,3.38,9.08V45h1.69V27.86A18.51,18.51,0,0,0,37.73,18.78Z" fill="#fff"></path><path d="M7.89,45V27.86a18.51,18.51,0,0,1,2.38-9.08h0A10.29,10.29,0,0,1,20.55,8.49h6.9A10.29,10.29,0,0,1,37.73,18.78h0a18.51,18.51,0,0,1,2.38,9.08V45Z" fill="none" stroke="#45413c" stroke-linecap="round" stroke-linejoin="round"></path><path d="M6.000 45.500 A18 1.5 0 1 0 42.000 45.500 A18 1.5 0 1 0 6.000 45.500 Z" fill="#45413c" opacity=".15"></path><path d="M24,6.32A10.88,10.88,0,0,1,34.89,17.19v21a1.22,1.22,0,0,1-.77,1.14h0a27.09,27.09,0,0,1-20.22,0h0a1.22,1.22,0,0,1-.77-1.14v-21A10.88,10.88,0,0,1,24,6.32Z" fill="#a86c4d"></path><path d="M24,6.32A10.88,10.88,0,0,0,13.13,17.19v3a10.88,10.88,0,0,1,21.76,0v-3A10.88,10.88,0,0,0,24,6.32Z" fill="#de926a"></path><path d="M24,6.32A10.88,10.88,0,0,1,34.89,17.19v21a1.22,1.22,0,0,1-.77,1.14h0a27.09,27.09,0,0,1-20.22,0h0a1.22,1.22,0,0,1-.77-1.14v-21A10.88,10.88,0,0,1,24,6.32Z" fill="none" stroke="#45413c" stroke-linecap="round" stroke-linejoin="round"></path><path d="M26.54,31.5V29.72a2.54,2.54,0,1,0-5.08,0V31.5a11.87,11.87,0,0,0-9.34,11.6V45H35.88V43.1A11.87,11.87,0,0,0,26.54,31.5Z" fill="#ffcebf"></path><path d="M24,33A12,12,0,0,1,35.88,43.29V43.1a11.87,11.87,0,0,0-9.34-11.6V29.72a2.54,2.54,0,1,0-5.08,0V31.5a11.87,11.87,0,0,0-9.34,11.6v.19A12,12,0,0,1,24,33Z" fill="#ffb59e"></path><path d="M26.54,31.5V29.72a2.54,2.54,0,1,0-5.08,0V31.5a11.87,11.87,0,0,0-9.34,11.6V45H35.88V43.1A11.87,11.87,0,0,0,26.54,31.5Z" fill="none" stroke="#45413c" stroke-linecap="round" stroke-linejoin="round"></path><path d="M36.08,39.67a13.47,13.47,0,0,0-1.21-3.19,9,9,0,0,0-1.23-1.76,1,1,0,0,0-1.15-.21,7.42,7.42,0,0,0-2,1.45A5,5,0,0,0,29.13,38s-1.25-.75-5.13-.75-5.13.75-5.13.75A5,5,0,0,0,17.55,36a7.42,7.42,0,0,0-2-1.45,1,1,0,0,0-1.15.21,9,9,0,0,0-1.23,1.76,13.47,13.47,0,0,0-1.21,3.19,1,1,0,0,0,.84,1.24,10.79,10.79,0,0,1,4.31,1.68V45H30.93V42.59a10.79,10.79,0,0,1,4.31-1.68A1,1,0,0,0,36.08,39.67Z" fill="#fff"></path><path d="M13.22,41a11.54,11.54,0,0,1,4-5.31,7.9,7.9,0,0,0-1.75-1.17,1,1,0,0,0-1.15.21,9,9,0,0,0-1.23,1.76,13.47,13.47,0,0,0-1.21,3.19,1,1,0,0,0,.84,1.24Z" fill="#f0f0f0"></path><path d="M36.08,39.67a13.47,13.47,0,0,0-1.21-3.19,9,9,0,0,0-1.23-1.76,1,1,0,0,0-1.15-.21,7.9,7.9,0,0,0-1.75,1.17,11.54,11.54,0,0,1,4,5.31l.46-.08A1,1,0,0,0,36.08,39.67Z" fill="#f0f0f0"></path><path d="M36.08,39.67a13.47,13.47,0,0,0-1.21-3.19,9,9,0,0,0-1.23-1.76,1,1,0,0,0-1.15-.21,7.42,7.42,0,0,0-2,1.45A5,5,0,0,0,29.13,38s-1.25-.75-5.13-.75-5.13.75-5.13.75A5,5,0,0,0,17.55,36a7.42,7.42,0,0,0-2-1.45,1,1,0,0,0-1.15.21,9,9,0,0,0-1.23,1.76,13.47,13.47,0,0,0-1.21,3.19,1,1,0,0,0,.84,1.24,10.79,10.79,0,0,1,4.31,1.68V45H30.93V42.59a10.79,10.79,0,0,1,4.31-1.68A1,1,0,0,0,36.08,39.67Z" fill="none" stroke="#45413c" stroke-linecap="round" stroke-linejoin="round"></path><path d="M20.11 31.88L24 33.87 27.89 31.88" fill="none" stroke="#45413c" stroke-linecap="round" stroke-linejoin="round"></path><path d="M23.020 34.850 A0.980 0.980 0 1 0 24.980 34.850 A0.980 0.980 0 1 0 23.020 34.850 Z" fill="#ffe500" stroke="#45413c" stroke-linecap="round" stroke-linejoin="round"></path><path d="M33.07,19.47a8.77,8.77,0,0,1-5.67-5L26.78,13a15.92,15.92,0,0,1-10,6.18l-1.89.34a1.81,1.81,0,1,0,0,3.62h.12a9,9,0,0,0,17.9,0h.11a1.81,1.81,0,1,0,0-3.62Z" fill="#ffcebf" stroke="#45413c" stroke-linecap="round" stroke-linejoin="round"></path><path d="M18.58,20.91a.77.77,0,1,0,.77-.77A.76.76,0,0,0,18.58,20.91Z" fill="#45413c" stroke="#45413c" stroke-linecap="round" stroke-linejoin="round"></path><path d="M29.44,20.91a.77.77,0,1,1-.77-.77A.76.76,0,0,1,29.44,20.91Z" fill="#45413c" stroke="#45413c" stroke-linecap="round" stroke-linejoin="round"></path><path d="M21.17,25.6a.42.42,0,0,0-.33.16.42.42,0,0,0-.1.35,3.32,3.32,0,0,0,6.54,0,.42.42,0,0,0-.1-.35.44.44,0,0,0-.33-.16Z" fill="#ff6242"></path><path d="M24,27a4,4,0,0,0-2.52.77,3.36,3.36,0,0,0,5,0A4,4,0,0,0,24,27Z" fill="#ffa694"></path><path d="M21.17,25.6a.42.42,0,0,0-.33.16.42.42,0,0,0-.1.35,3.32,3.32,0,0,0,6.54,0,.42.42,0,0,0-.1-.35.44.44,0,0,0-.33-.16Z" fill="none" stroke="#45413c" stroke-linecap="round" stroke-linejoin="round"></path><path d="M17.070 24.190 A1 0.6 0 1 0 19.070 24.190 A1 0.6 0 1 0 17.070 24.190 Z" fill="#ffb59e"></path><path d="M28.950 24.190 A1 0.6 0 1 0 30.950 24.190 A1 0.6 0 1 0 28.950 24.190 Z" fill="#ffb59e"></path><path d="M15,11.09a10.17,10.17,0,0,0-1.13,2.17A31.62,31.62,0,0,0,24,14.68a31.66,31.66,0,0,0,10.13-1.42A10.64,10.64,0,0,0,33,11.09a30.58,30.58,0,0,1-9,1.22A30.58,30.58,0,0,1,15,11.09Z" fill="#fff" stroke="#45413c" stroke-linecap="round" stroke-linejoin="round"></path></svg>