<svg viewBox="0 0 48 48" xmlns="http://www.w3.org/2000/svg"><path d="M1.370 45.580 A22.63 1.62 0 1 0 46.630 45.580 A22.63 1.62 0 1 0 1.370 45.580 Z" fill="#45413c" opacity=".15"></path><path d="M40,34.74l-3.89-1.28V32a8.09,8.09,0,0,0,5.71-6.55H42a1.62,1.62,0,0,0,1.61-1.75,1.57,1.57,0,0,0-.94-1.24V19.82a8.75,8.75,0,1,0-17.5,0v2.61a1.59,1.59,0,0,0,.67,3.05h.1A8.09,8.09,0,0,0,31.61,32v1.44l-3.89,1.28a6.42,6.42,0,0,0-4.42,6.11V45H44.46V40.85A6.42,6.42,0,0,0,40,34.74Z" fill="#627b8c"></path><path d="M27.72,37.8l1-.32a4.22,4.22,0,0,0,2.91-4h0l-3.89,1.28a6.42,6.42,0,0,0-4.42,6.11v3.06A6.43,6.43,0,0,1,27.72,37.8Z" fill="#adc4d9"></path><path d="M25.13,22.88a8.75,8.75,0,1,1,17.5,0V19.82a8.75,8.75,0,1,0-17.5,0v3.06Z" fill="#8ca4b8"></path><path d="M40,34.74l-3.89-1.28h0a4.22,4.22,0,0,0,2.91,4l1,.32a6.43,6.43,0,0,1,4.42,6.11V40.85A6.42,6.42,0,0,0,40,34.74Z" fill="#8ca4b8"></path><path d="M40,34.74l-3.89-1.28V32a8.09,8.09,0,0,0,5.71-6.55H42a1.62,1.62,0,0,0,1.61-1.75,1.57,1.57,0,0,0-.94-1.24V19.82a8.75,8.75,0,1,0-17.5,0v2.61a1.59,1.59,0,0,0,.67,3.05h.1A8.09,8.09,0,0,0,31.61,32v1.44l-3.89,1.28a6.42,6.42,0,0,0-4.42,6.11V45H44.46V40.85A6.42,6.42,0,0,0,40,34.74Z" fill="none" stroke="#45413c" stroke-linecap="round" stroke-linejoin="round"></path><path d="M23,32.54,18.28,31V29.24a9.82,9.82,0,0,0,6.94-7.95h.12a2,2,0,0,0,1.95-2.13,1.91,1.91,0,0,0-1.14-1.51V14.42a10.63,10.63,0,0,0-21.25,0v3.17A1.92,1.92,0,0,0,3.79,19,2,2,0,0,0,5.72,21.3h.12a9.82,9.82,0,0,0,6.94,8V31L8.05,32.54A7.81,7.81,0,0,0,2.68,40v5h25.7V40A7.8,7.8,0,0,0,23,32.54Z" fill="#8ca4b8"></path><path d="M8.05,36.26l1.19-.39A5.14,5.14,0,0,0,12.78,31h0L8.05,32.54A7.81,7.81,0,0,0,2.68,40v3.71A7.8,7.8,0,0,1,8.05,36.26Z" fill="#adc4d9"></path><path d="M4.9,18.14a10.63,10.63,0,1,1,21.25,0V14.42a10.63,10.63,0,0,0-21.25,0v3.72Z" fill="#adc4d9"></path><path d="M23,32.54,18.28,31h0a5.14,5.14,0,0,0,3.54,4.88l1.18.39a7.8,7.8,0,0,1,5.38,7.41V40A7.8,7.8,0,0,0,23,32.54Z" fill="#adc4d9"></path><path d="M23,32.54,18.28,31V29.24a9.82,9.82,0,0,0,6.94-7.95h.12a2,2,0,0,0,1.95-2.13,1.91,1.91,0,0,0-1.14-1.51V14.42a10.63,10.63,0,0,0-21.25,0v3.17A1.92,1.92,0,0,0,3.79,19,2,2,0,0,0,5.72,21.3h.12a9.82,9.82,0,0,0,6.94,8V31L8.05,32.54A7.81,7.81,0,0,0,2.68,40v5h25.7V40A7.8,7.8,0,0,0,23,32.54Z" fill="none" stroke="#45413c" stroke-linecap="round" stroke-linejoin="round"></path></svg>