<svg viewBox="0 0 48 48" xmlns="http://www.w3.org/2000/svg"><path d="M12.500 45.500 A11.5 1.5 0 1 0 35.500 45.500 A11.5 1.5 0 1 0 12.500 45.500 Z" fill="#45413c" opacity=".15"></path><path d="M29,21.24c.24-2.88,2.61-8,4.39-11.49a2.22,2.22,0,1,0-4-2C27.66,11.42,24,19.1,24,21.24Z" fill="#ffcebf"></path><path d="M24,22.66c1.18-3.61,4.37-9.47,6-12.8a2.22,2.22,0,0,1,3-1,2.15,2.15,0,0,1,.61.45,2.22,2.22,0,0,0-4.13-1.56C27.66,11.42,24,19.1,24,21.24Z" fill="#ffdcd1"></path><path d="M29,21.24c.24-2.88,2.61-8,4.39-11.49a2.22,2.22,0,1,0-4-2C27.66,11.42,24,19.1,24,21.24Z" fill="none" stroke="#45413c" stroke-linecap="round" stroke-linejoin="round"></path><path d="M26,15.11c-1.13,2.63-2,5.07-2,6.13v3.09l-10.63,0v7.07a10.18,10.18,0,0,0,9.3,10.28,10,10,0,0,0,10.64-9.94V21.9c0-3.67-3.23-10.15-5.59-14.35A2.48,2.48,0,0,0,23.39,10C24.14,11.32,25.13,13.19,26,15.11Z" fill="#ffcebf"></path><path d="M26,15.11c-1.13,2.63-2,5.07-2,6.13v1.42a52.89,52.89,0,0,1,2.67-6.18C26.47,16,26.26,15.56,26,15.11Z" fill="#ffdcd1"></path><path d="M24.35,11.75a2.49,2.49,0,0,1,4.36-2.41c-.32-.59-.65-1.19-1-1.79A2.48,2.48,0,0,0,23.39,10C23.68,10.48,24.35,11.75,24.35,11.75Z" fill="#ffdcd1"></path><path d="M26,15.11c-1.13,2.63-2,5.07-2,6.13v3.09l-10.63,0v7.07a10.18,10.18,0,0,0,9.3,10.28,10,10,0,0,0,10.64-9.94V21.9c0-3.67-3.23-10.15-5.59-14.35A2.48,2.48,0,0,0,23.39,10C24.14,11.32,25.13,13.19,26,15.11Z" fill="none" stroke="#45413c" stroke-linecap="round" stroke-linejoin="round"></path><path d="M26,15.11c-1.13,2.63-2,5.07-2,6.13v.84" fill="none" stroke="#45413c" stroke-linecap="round" stroke-linejoin="round"></path><path d="M18.68,24.21a2.66,2.66,0,1,0-5.31,0v3.24a2.66,2.66,0,1,0,5.31,0Z" fill="#ffcebf"></path><path d="M18.68,24.21a2.66,2.66,0,1,0-5.31,0v2.4A2.66,2.66,0,0,1,16,24h0a2.66,2.66,0,0,1,2.65,2.66Z" fill="#ffdcd1"></path><path d="M24,21.81a2.66,2.66,0,0,0-5.32,0v5.64a2.66,2.66,0,0,0,5.32,0Z" fill="#ffcebf"></path><path d="M24,21.81a2.66,2.66,0,0,0-5.32,0v2.4a2.66,2.66,0,0,1,2.66-2.66h0A2.66,2.66,0,0,1,24,24.21Z" fill="#ffdcd1"></path><path d="M18.68,24.21a2.66,2.66,0,1,0-5.31,0v3.24a2.66,2.66,0,1,0,5.31,0Z" fill="none" stroke="#45413c" stroke-linecap="round" stroke-linejoin="round"></path><path d="M24,21.81a2.66,2.66,0,0,0-5.32,0v5.64a2.66,2.66,0,0,0,5.32,0Z" fill="none" stroke="#45413c" stroke-linecap="round" stroke-linejoin="round"></path><path d="M33.31,31.48h0a5.19,5.19,0,0,0-5.19-5.19H20a1.37,1.37,0,0,0-1.37,1.37h0a3.81,3.81,0,0,0,3.81,3.82h4.08" fill="#ffcebf"></path><path d="M20,28.37h8.08a5.17,5.17,0,0,1,4.74,3.11h.45a5.19,5.19,0,0,0-5.19-5.19H20a1.37,1.37,0,0,0-1.37,1.37A3.81,3.81,0,0,0,18.91,29,1.37,1.37,0,0,1,20,28.37Z" fill="#ffdcd1"></path><path d="M33.31,31.48a5.19,5.19,0,0,0-5.19-5.19H20a1.37,1.37,0,0,0-1.37,1.37h0a3.81,3.81,0,0,0,3.81,3.82h4.08" fill="none" stroke="#45413c" stroke-linecap="round" stroke-linejoin="round"></path><path d="M28.56,22.39c0-1.55-1.18-4.47-2.52-7.28" fill="none" stroke="#45413c" stroke-linecap="round" stroke-linejoin="round"></path><path d="M26.56,31.48a4.43,4.43,0,0,0-4.44,4.43v1.32" fill="none" stroke="#45413c" stroke-linecap="round" stroke-linejoin="round"></path></svg>