<svg viewBox="0 0 48 48" xmlns="http://www.w3.org/2000/svg"><path d="M10.370 42.140 A13.63 1.86 0 1 0 37.630 42.140 A13.63 1.86 0 1 0 10.370 42.140 Z" fill="#45413c" opacity=".15"></path><path d="M2.170 24.000 A21.83 12.08 0 1 0 45.830 24.000 A21.83 12.08 0 1 0 2.170 24.000 Z" fill="#fff"></path><path d="M24,17.81c10.85,0,18.1,5.12,20.73,9.13A5.7,5.7,0,0,0,45.83,24c0-3.71-8-12.08-21.83-12.08S2.17,20.29,2.17,24a5.7,5.7,0,0,0,1.1,2.94C5.9,22.93,13.15,17.81,24,17.81Z" fill="#e0e0e0"></path><path d="M2.170 24.000 A21.83 12.08 0 1 0 45.830 24.000 A21.83 12.08 0 1 0 2.170 24.000 Z" fill="none" stroke="#45413c" stroke-linecap="round" stroke-linejoin="round"></path><path d="M24,14.79c13.13,0,20.72,8.25,20.83,12a5.58,5.58,0,0,0,1-2.79c0-3.71-8-12.08-21.83-12.08S2.17,20.29,2.17,24a5.58,5.58,0,0,0,1,2.79C3.28,23,10.87,14.79,24,14.79Z" fill="#656769" stroke="#45413c" stroke-linecap="round" stroke-linejoin="round"></path><path d="M15.020 24.000 A8.980 8.980 0 1 0 32.980 24.000 A8.980 8.980 0 1 0 15.020 24.000 Z" fill="#b89558"></path><path d="M30.23,17.53a8.05,8.05,0,1,1-12.46,0,9,9,0,1,0,12.46,0Z" fill="#947746"></path><path d="M15.020 24.000 A8.980 8.980 0 1 0 32.980 24.000 A8.980 8.980 0 1 0 15.020 24.000 Z" fill="none" stroke="#45413c" stroke-linecap="round" stroke-linejoin="round"></path><path d="M19.970 24.000 A4.030 4.030 0 1 0 28.030 24.000 A4.030 4.030 0 1 0 19.970 24.000 Z" fill="#525252" stroke="#45413c" stroke-linecap="round" stroke-linejoin="round"></path><path d="M17.550 19.800 A3.070 3.070 0 1 0 23.690 19.800 A3.070 3.070 0 1 0 17.550 19.800 Z" fill="#fff" stroke="#45413c" stroke-linecap="round" stroke-linejoin="round"></path></svg>