<svg viewBox="0 0 48 48" xmlns="http://www.w3.org/2000/svg"><path d="M4.510 21.250 A20.000 20.000 0 1 0 44.510 21.250 A20.000 20.000 0 1 0 4.510 21.250 Z" fill="#ffe500"></path><path d="M18.510 5.250 A6 1.5 0 1 0 30.510 5.250 A6 1.5 0 1 0 18.510 5.250 Z" fill="#fff48c"></path><path d="M24.51,1.25a20,20,0,1,0,20,20A20,20,0,0,0,24.51,1.25Zm0,37A18.25,18.25,0,1,1,42.76,20,18.25,18.25,0,0,1,24.51,38.25Z" fill="#ebcb00"></path><path d="M8.510 45.250 A16 1.5 0 1 0 40.510 45.250 A16 1.5 0 1 0 8.510 45.250 Z" fill="#45413c" opacity=".15"></path><path d="M4.510 21.250 A20.000 20.000 0 1 0 44.510 21.250 A20.000 20.000 0 1 0 4.510 21.250 Z" fill="none" stroke="#45413c" stroke-linecap="round" stroke-linejoin="round"></path><path d="M39,26.25c0,.83-1.12,1.5-2.5,1.5s-2.5-.67-2.5-1.5,1.12-1.5,2.5-1.5S39,25.42,39,26.25Z" fill="#ffaa54"></path><path d="M10,26.25c0,.83,1.12,1.5,2.5,1.5s2.5-.67,2.5-1.5-1.12-1.5-2.5-1.5S10,25.42,10,26.25Z" fill="#ffaa54"></path><path d="M15,21.25a1,1,0,1,1-1-1A1,1,0,0,1,15,21.25Z" fill="#45413c" stroke="#45413c" stroke-linecap="round" stroke-linejoin="round"></path><path d="M34,21.25a1,1,0,1,0,1-1A1,1,0,0,0,34,21.25Z" fill="#45413c" stroke="#45413c" stroke-linecap="round" stroke-linejoin="round"></path><path d="M35.39,16.91A11.43,11.43,0,0,1,32,15.81a11.18,11.18,0,0,1-2.88-2.06" fill="none" stroke="#45413c" stroke-linecap="round" stroke-linejoin="round"></path><path d="M19.51,33.75a9,9,0,0,1,10,0" fill="none" stroke="#45413c" stroke-linecap="round"></path><path d="M3.49,21.72a1,1,0,0,0,.45.83,1,1,0,0,0,.95.08L38.72,7.81a1,1,0,0,0,.59-.75,1,1,0,0,0-.31-.9,25.77,25.77,0,0,0-4.24-3.27,1,1,0,0,0-.9-.05L4.53,15.69a1,1,0,0,0-.57.69A25.4,25.4,0,0,0,3.49,21.72Z" fill="#f0f0f0"></path><path d="M26.9,7.75l6.66-2.92a1,1,0,0,1,.9,0,25,25,0,0,1,3.78,2.87h.59a1,1,0,0,0,.48-.69,1,1,0,0,0-.31-.9,25.77,25.77,0,0,0-4.24-3.27,1,1,0,0,0-.9-.05L22.66,7.75Z" fill="#fff"></path><path d="M19.45,16.25l4.57-2H7.82L4.53,15.69a1,1,0,0,0-.51.56Z" fill="#e0e0e0"></path><path d="M4.54,16.14a.78.78,0,0,0-.18.11" fill="#e0e0e0"></path><path d="M3.49,21.72a1,1,0,0,0,.45.83,1,1,0,0,0,.95.08L38.72,7.81a1,1,0,0,0,.59-.75,1,1,0,0,0-.31-.9,25.77,25.77,0,0,0-4.24-3.27,1,1,0,0,0-.9-.05L4.53,15.69a1,1,0,0,0-.57.69A25.4,25.4,0,0,0,3.49,21.72Z" fill="none" stroke="#45413c" stroke-linecap="round" stroke-linejoin="round"></path><path d="M39.31,7.07a1,1,0,0,1-.59.74L24.51,14,20.06,16,4.89,22.63a1,1,0,0,1-1.4-.92A25.43,25.43,0,0,1,4,16.38a1,1,0,0,1,.37-.58.52.52,0,0,1,.18-.1h0l4.19-1.84,25.14-11a1,1,0,0,1,.91.05A27.17,27.17,0,0,1,39,6.16,1,1,0,0,1,39.31,7.07Z" fill="none" stroke="#45413c" stroke-linecap="round" stroke-linejoin="round"></path><path d="M5.13,12.85a1,1,0,0,0,.92,1.4H43a1,1,0,0,0,.84-.45,1,1,0,0,0,.08-1,25.55,25.55,0,0,0-2.57-4.69,1,1,0,0,0-.81-.41H8.5a1,1,0,0,0-.8.41A25.55,25.55,0,0,0,5.13,12.85Z" fill="#f0f0f0"></path><path d="M42.63,10.25a18,18,0,0,0-1.3-2.09,1,1,0,0,0-.81-.41H8.5a1,1,0,0,0-.8.41,18,18,0,0,0-1.3,2.09Z" fill="#fff"></path><path d="M5.13,12.85a1,1,0,0,0,.92,1.4H43a1,1,0,0,0,.84-.45,1,1,0,0,0,.08-1,25.55,25.55,0,0,0-2.57-4.69,1,1,0,0,0-.81-.41H8.5a1,1,0,0,0-.8.41A25.55,25.55,0,0,0,5.13,12.85Z" fill="none" stroke="#45413c" stroke-linecap="round" stroke-linejoin="round"></path></svg>