<svg viewBox="0 0 48 48" xmlns="http://www.w3.org/2000/svg"><path d="M4.000 21.500 A20.000 20.000 0 1 0 44.000 21.500 A20.000 20.000 0 1 0 4.000 21.500 Z" fill="#ffe500"></path><path d="M24,1.5a20,20,0,1,0,20,20A20,20,0,0,0,24,1.5Zm0,37A18.25,18.25,0,1,1,42.25,20.25,18.25,18.25,0,0,1,24,38.5Z" fill="#ebcb00"></path><path d="M18.000 5.500 A6 1.5 0 1 0 30.000 5.500 A6 1.5 0 1 0 18.000 5.500 Z" fill="#fff48c"></path><path d="M8.000 45.500 A16 1.5 0 1 0 40.000 45.500 A16 1.5 0 1 0 8.000 45.500 Z" fill="#45413c" opacity=".15"></path><path d="M4.000 21.500 A20.000 20.000 0 1 0 44.000 21.500 A20.000 20.000 0 1 0 4.000 21.500 Z" fill="none" stroke="#45413c" stroke-linecap="round" stroke-linejoin="round"></path><path d="M38.5,26.5c0,.83-1.12,1.5-2.5,1.5s-2.5-.67-2.5-1.5S34.62,25,36,25,38.5,25.67,38.5,26.5Z" fill="#ffaa54"></path><path d="M9.500 26.500 A2.5 1.5 0 1 0 14.500 26.500 A2.5 1.5 0 1 0 9.500 26.500 Z" fill="#ffaa54"></path><path d="M19.000 31.500 A5 8 0 1 0 29.000 31.500 A5 8 0 1 0 19.000 31.500 Z" fill="#ffb0ca" stroke="#45413c" stroke-linecap="round" stroke-linejoin="round"></path><path d="M37.41,16.54c1.54,2.48,1.32,5.39-.48,6.51s-4.5,0-6-2.47-1.32-5.38.48-6.5S35.88,14.06,37.41,16.54Z" fill="#fff" stroke="#45413c" stroke-linecap="round" stroke-linejoin="round"></path><path d="M10.59,16.54c-1.54,2.48-1.32,5.39.48,6.51s4.5,0,6-2.47,1.32-5.38-.48-6.5S12.12,14.06,10.59,16.54Z" fill="#fff" stroke="#45413c" stroke-linecap="round" stroke-linejoin="round"></path><path d="M14.76,45.15a1,1,0,0,1-1,.85H8a1,1,0,0,1-.8-.4,1,1,0,0,1-.16-.88c1.32-4.63-.33-12-3-16.6-1.5-2.62,1.73-2.56,3-1.82C16,32.37,15.21,42.22,14.76,45.15Z" fill="#ffe500" stroke="#45413c" stroke-linecap="round" stroke-linejoin="round"></path><path d="M33.24,45.15a1,1,0,0,0,1,.85H40a1,1,0,0,0,.8-.4,1,1,0,0,0,.16-.88c-1.32-4.63.33-12,3-16.6,1.5-2.62-1.73-2.56-3-1.82C32,32.37,32.79,42.22,33.24,45.15Z" fill="#ffe500" stroke="#45413c" stroke-linecap="round" stroke-linejoin="round"></path><path d="M24,39.5c1.79,0,3.35-1.5,4.24-3.75C27.35,33.5,25.79,32,24,32s-3.35,1.5-4.24,3.75C20.65,38,22.21,39.5,24,39.5Z" fill="#ff866e" stroke="#45413c" stroke-linecap="round" stroke-linejoin="round"></path></svg>