<svg viewBox="0 0 48 48" xmlns="http://www.w3.org/2000/svg"><path d="M1.500 21.250 A20.000 20.000 0 1 0 41.500 21.250 A20.000 20.000 0 1 0 1.500 21.250 Z" fill="#ffe500"></path><path d="M21.5,1.25a20,20,0,1,0,20,20A20,20,0,0,0,21.5,1.25Zm0,37A18.25,18.25,0,1,1,39.75,20,18.25,18.25,0,0,1,21.5,38.25Z" fill="#ebcb00"></path><path d="M15.500 5.250 A6 1.5 0 1 0 27.500 5.250 A6 1.5 0 1 0 15.500 5.250 Z" fill="#fff48c"></path><path d="M39.39,30.19h0a20,20,0,0,1-8.19,8.53l-1.12-2.62-.55-1.29A7.39,7.39,0,0,1,29.69,29a5.71,5.71,0,0,1,3.9-3.32,4.46,4.46,0,0,1,4.62,1.69A4.89,4.89,0,0,1,39,28.82Z" fill="#ebcb00"></path><path d="M5.500 45.250 A16 1.5 0 1 0 37.500 45.250 A16 1.5 0 1 0 5.500 45.250 Z" fill="#45413c" opacity=".15"></path><path d="M1.500 21.250 A20.000 20.000 0 1 0 41.500 21.250 A20.000 20.000 0 1 0 1.500 21.250 Z" fill="none" stroke="#45413c" stroke-linecap="round" stroke-linejoin="round"></path><path d="M46,29.63a4.64,4.64,0,0,1,.09,4.13A6,6,0,0,1,42.61,37l-8.25,2.77-3.41-8A6,6,0,0,1,31.07,27a4.65,4.65,0,0,1,3.15-2.68,3.65,3.65,0,0,1,4.34,2.57L39.2,29l2-.89A3.65,3.65,0,0,1,46,29.63Z" fill="#ff6242"></path><path d="M32.51,28.16a3.64,3.64,0,0,1,4.34,2.56l.64,2.06,2-.89a3.64,3.64,0,0,1,4.8,1.55,4.3,4.3,0,0,1,.52,2.15,6.27,6.27,0,0,0,1.28-1.83A4.64,4.64,0,0,0,46,29.63a3.65,3.65,0,0,0-4.8-1.55l-2,.89-.64-2.06a3.65,3.65,0,0,0-4.34-2.57A4.65,4.65,0,0,0,31.07,27a6,6,0,0,0-.52,2.19A4.22,4.22,0,0,1,32.51,28.16Z" fill="#ff866e"></path><path d="M46,29.63a4.64,4.64,0,0,1,.09,4.13A6,6,0,0,1,42.61,37l-8.25,2.77-3.41-8A6,6,0,0,1,31.07,27a4.65,4.65,0,0,1,3.15-2.68,3.65,3.65,0,0,1,4.34,2.57L39.2,29l2-.89A3.65,3.65,0,0,1,46,29.63Z" fill="none" stroke="#45413c" stroke-linecap="round" stroke-linejoin="round"></path><path d="M7,26.25c0,.83,1.12,1.5,2.5,1.5s2.5-.67,2.5-1.5-1.12-1.5-2.5-1.5S7,25.42,7,26.25Z" fill="#ffaa54"></path><path d="M30,21.5a1.75,1.75,0,0,1,3.5,0" fill="none" stroke="#45413c" stroke-linecap="round" stroke-linejoin="round"></path><path d="M9.5,20.25a1,1,0,1,0,1-1A1,1,0,0,0,9.5,20.25Z" fill="#45413c" stroke="#45413c" stroke-linecap="round" stroke-linejoin="round"></path><path d="M21.51,28a2,2,0,0,1,1-.27,2,2,0,1,1,0,4,2,2,0,1,1,0,4,2,2,0,0,1-1-.27" fill="none" stroke="#45413c" stroke-linecap="round" stroke-linejoin="round"></path></svg>