<svg viewBox="0 0 48 48" xmlns="http://www.w3.org/2000/svg"><path d="M4.000 21.250 A20.000 20.000 0 1 0 44.000 21.250 A20.000 20.000 0 1 0 4.000 21.250 Z" fill="#ffe500"></path><path d="M24,1.25a20,20,0,1,0,20,20A20,20,0,0,0,24,1.25Zm0,37A18.25,18.25,0,1,1,42.25,20,18.25,18.25,0,0,1,24,38.25Z" fill="#ebcb00"></path><path d="M18.000 5.250 A6 1.5 0 1 0 30.000 5.250 A6 1.5 0 1 0 18.000 5.250 Z" fill="#fff48c"></path><path d="M8.000 45.250 A16 1.5 0 1 0 40.000 45.250 A16 1.5 0 1 0 8.000 45.250 Z" fill="#45413c" opacity=".15"></path><path d="M38.5,26.25c0,.83-1.12,1.5-2.5,1.5s-2.5-.67-2.5-1.5,1.12-1.5,2.5-1.5S38.5,25.42,38.5,26.25Z" fill="#ffaa54"></path><path d="M9.5,26.25c0,.83,1.12,1.5,2.5,1.5s2.5-.67,2.5-1.5-1.12-1.5-2.5-1.5S9.5,25.42,9.5,26.25Z" fill="#ffaa54"></path><path d="M13,38a20,20,0,0,0,22,0v-8.7s-6-2.5-11-2.5-11,2.5-11,2.5Z" fill="#8cffe4" stroke="#45413c" stroke-linecap="round" stroke-linejoin="round"></path><path d="M24,26.75c-5,0-11,2.5-11,2.5v2.5s6-2.5,11-2.5,11,2.5,11,2.5v-2.5S29,26.75,24,26.75Z" fill="#e5fff9"></path><path d="M13,38a20,20,0,0,0,22,0v-8.7s-6-2.5-11-2.5-11,2.5-11,2.5Z" fill="none" stroke="#45413c" stroke-linecap="round" stroke-linejoin="round"></path><path d="M4.000 21.250 A20.000 20.000 0 1 0 44.000 21.250 A20.000 20.000 0 1 0 4.000 21.250 Z" fill="none" stroke="#45413c" stroke-linecap="round" stroke-linejoin="round"></path><path d="M13 29.25L4 22.25" fill="none" stroke="#45413c" stroke-linecap="round" stroke-linejoin="round"></path><path d="M35 29.25L44 22.25" fill="none" stroke="#45413c" stroke-linecap="round" stroke-linejoin="round"></path><path d="M35,33.25a7.69,7.69,0,0,0,4,1" fill="none" stroke="#45413c" stroke-linecap="round" stroke-linejoin="round"></path><path d="M13,33.25a7.69,7.69,0,0,1-4,1" fill="none" stroke="#45413c" stroke-linecap="round" stroke-linejoin="round"></path><path d="M16.5 20.75L11 20.75" fill="none" stroke="#45413c" stroke-linecap="round" stroke-linejoin="round"></path><path d="M37 20.75L31.5 20.75" fill="none" stroke="#45413c" stroke-linecap="round" stroke-linejoin="round"></path><path d="M13,15.91a11.43,11.43,0,0,0,3.37-1.1,11.18,11.18,0,0,0,2.88-2.06" fill="none" stroke="#45413c" stroke-linecap="round" stroke-linejoin="round"></path><path d="M35,15.91a11.43,11.43,0,0,1-3.37-1.1,11.18,11.18,0,0,1-2.88-2.06" fill="none" stroke="#45413c" stroke-linecap="round" stroke-linejoin="round"></path></svg>