<svg viewBox="0 0 48 48" xmlns="http://www.w3.org/2000/svg"><path d="M13.000 45.500 A11 1.5 0 1 0 35.000 45.500 A11 1.5 0 1 0 13.000 45.500 Z" fill="#45413c" opacity=".15"></path><path d="M34.13,26.33V9a2.3,2.3,0,0,0-4.6,0V19.89a2.71,2.71,0,0,0-5.42,0v0a2.68,2.68,0,0,0-5.36,0v3.26a2.52,2.52,0,0,0-5,0v8.09a9.22,9.22,0,0,0,9.22,9.22h1.28A11.06,11.06,0,0,0,35.27,29.37,4.59,4.59,0,0,0,34.13,26.33Z" fill="#ffcebf"></path><path d="M31.83,9.22a2.3,2.3,0,0,1,2.3,2.3V9a2.3,2.3,0,0,0-4.6,0v2.5A2.3,2.3,0,0,1,31.83,9.22Z" fill="#ffdcd1"></path><path d="M16.23,23.1a2.52,2.52,0,0,1,2.52,2.52v-2.5a2.52,2.52,0,0,0-5,0v2.5A2.52,2.52,0,0,1,16.23,23.1Z" fill="#ffdcd1"></path><path d="M21.43,19.68a2.68,2.68,0,0,1,2.68,2.68v0a2.71,2.71,0,0,1,5.42,0v-2.5a2.71,2.71,0,0,0-5.42,0v0a2.68,2.68,0,0,0-5.36,0v2.5A2.68,2.68,0,0,1,21.43,19.68Z" fill="#ffdcd1"></path><path d="M34.13,26.33V9a2.3,2.3,0,0,0-4.6,0V19.89a2.71,2.71,0,0,0-5.42,0v0a2.68,2.68,0,0,0-5.36,0v3.26a2.52,2.52,0,0,0-5,0v8.09a9.22,9.22,0,0,0,9.22,9.22h1.28A11.06,11.06,0,0,0,35.27,29.37,4.59,4.59,0,0,0,34.13,26.33Z" fill="none" stroke="#45413c" stroke-linecap="round" stroke-linejoin="round"></path><path d="M13.710 20.600 L18.750 20.600 L18.750 28.930 L13.710 28.930 Z" fill="none" stroke="#45413c" stroke-linecap="round" stroke-linejoin="round"></path><path d="M35.27,29.37a4.6,4.6,0,0,0-4.6-4.6H20A1.23,1.23,0,0,0,18.75,26,4.38,4.38,0,0,0,19,27.3a1.21,1.21,0,0,1,1-.56H31.1A4.55,4.55,0,0,1,35.27,29.37Z" fill="#ffdcd1"></path><path d="M35.27,29.37a4.6,4.6,0,0,0-4.6-4.6H20A1.23,1.23,0,0,0,18.75,26h0A4.22,4.22,0,0,0,23,30.22h5.24" fill="none" stroke="#45413c" stroke-linecap="round" stroke-linejoin="round"></path><path d="M24.11 19.89L24.11 24.77" fill="#ffcebf" stroke="#45413c" stroke-linecap="round" stroke-linejoin="round"></path><path d="M29.53 19.89L29.53 24.77" fill="#ffcebf" stroke="#45413c" stroke-linecap="round" stroke-linejoin="round"></path><path d="M28.15,30.22h0a4.44,4.44,0,0,0-4.44,4.44V36" fill="none" stroke="#45413c" stroke-linecap="round" stroke-linejoin="round"></path></svg>