<svg viewBox="0 0 48 48" xmlns="http://www.w3.org/2000/svg"><path d="M6.370 45.040 A17.63 1.96 0 1 0 41.630 45.040 A17.63 1.96 0 1 0 6.370 45.040 Z" fill="#45413c" opacity=".15"></path><path d="M37.38,4.18H10.62a.66.66,0,0,0-.66.65V42H21.72V20.82a2.28,2.28,0,0,1,4.56,0V42H38V4.83A.66.66,0,0,0,37.38,4.18Z" fill="#00b8f0"></path><path d="M37.38,4.18H10.62a.66.66,0,0,0-.66.65v6.53a.66.66,0,0,1,.66-.65H37.38a.66.66,0,0,1,.66.65V4.83A.66.66,0,0,0,37.38,4.18Z" fill="#4acfff"></path><path d="M37.38,4.18H10.62a.66.66,0,0,0-.66.65V42H21.72V20.82a2.28,2.28,0,0,1,4.56,0V42H38V4.83A.66.66,0,0,0,37.38,4.18Z" fill="none" stroke="#45413c" stroke-linecap="round" stroke-linejoin="round"></path><path d="M9.310 38.780 L22.370 38.780 L22.370 44.000 L9.310 44.000 Z" fill="#4acfff"></path><path d="M25.630 38.780 L38.690 38.780 L38.690 44.000 L25.630 44.000 Z" fill="#4acfff"></path><path d="M21.06,38.78H10.62a1.31,1.31,0,0,0-1.31,1.3V42.2a1.31,1.31,0,0,1,1.31-1.3H21.06a1.31,1.31,0,0,1,1.31,1.3V40.08A1.31,1.31,0,0,0,21.06,38.78Z" fill="#80ddff"></path><path d="M37.38,38.78H26.94a1.31,1.31,0,0,0-1.31,1.3V42.2a1.31,1.31,0,0,1,1.31-1.3H37.38a1.31,1.31,0,0,1,1.31,1.3V40.08A1.31,1.31,0,0,0,37.38,38.78Z" fill="#80ddff"></path><path d="M9.310 38.780 L22.370 38.780 L22.370 44.000 L9.310 44.000 Z" fill="none" stroke="#45413c" stroke-linecap="round" stroke-linejoin="round"></path><path d="M25.630 38.780 L38.690 38.780 L38.690 44.000 L25.630 44.000 Z" fill="none" stroke="#45413c" stroke-linecap="round" stroke-linejoin="round"></path><path d="M21.72,4.18v8.07A1.72,1.72,0,0,0,23.44,14h2.19V4.18Z" fill="#4acfff"></path><path d="M21.72 4.18H25.64V9.08H21.72z" fill="#80ddff"></path><path d="M21.72,4.18v8.07A1.72,1.72,0,0,0,23.44,14h2.19V4.18Z" fill="none" stroke="#45413c" stroke-linecap="round" stroke-linejoin="round"></path><path d="M33.47,4.18h3.92a.65.65,0,0,1,.65.65v8.49a0,0,0,0,1,0,0H35.86a2.4,2.4,0,0,1-2.4-2.4V4.18A0,0,0,0,1,33.47,4.18Z" fill="#009fd9" stroke="#45413c" stroke-linecap="round" stroke-linejoin="round"></path><path d="M12.36,4.18h2.17a0,0,0,0,1,0,0v8.49a.65.65,0,0,1-.65.65H10a0,0,0,0,1,0,0V6.58A2.4,2.4,0,0,1,12.36,4.18Z" fill="#009fd9" stroke="#45413c" stroke-linecap="round" stroke-linejoin="round" transform="translate(24.5 17.49) rotate(-180)"></path><path d="M33.47,4.18h3.92a.65.65,0,0,1,.65.65v8.49a0,0,0,0,1,0,0H35.86a2.4,2.4,0,0,1-2.4-2.4V4.18A0,0,0,0,1,33.47,4.18Z" fill="#009fd9"></path><path d="M12.36,4.18h2.17a0,0,0,0,1,0,0v8.49a.65.65,0,0,1-.65.65H10a0,0,0,0,1,0,0V6.58A2.4,2.4,0,0,1,12.36,4.18Z" fill="#009fd9" transform="translate(24.5 17.49) rotate(-180)"></path><path d="M37.38,4.18H33.47V7.44h3.91a.66.66,0,0,1,.66.65V4.83A.66.66,0,0,0,37.38,4.18Z" fill="#00b8f0"></path><path d="M10.62,4.18a.66.66,0,0,0-.66.65V8.09a.66.66,0,0,1,.66-.65h3.91V4.18Z" fill="#00b8f0"></path><path d="M33.47,4.18h3.92a.65.65,0,0,1,.65.65v8.49a0,0,0,0,1,0,0H35.86a2.4,2.4,0,0,1-2.4-2.4V4.18A0,0,0,0,1,33.47,4.18Z" fill="none" stroke="#45413c" stroke-linecap="round" stroke-linejoin="round"></path><path d="M12.36,4.18h2.17a0,0,0,0,1,0,0v8.49a.65.65,0,0,1-.65.65H10a0,0,0,0,1,0,0V6.58A2.4,2.4,0,0,1,12.36,4.18Z" fill="none" stroke="#45413c" stroke-linecap="round" stroke-linejoin="round" transform="translate(24.5 17.49) rotate(-180)"></path><path d="M14.53 7.44L21.72 7.44" fill="none" stroke="#45413c" stroke-linecap="round" stroke-linejoin="round"></path><path d="M25.63 7.44L33.47 7.44" fill="none" stroke="#45413c" stroke-linecap="round" stroke-linejoin="round"></path></svg>