<svg viewBox="0 0 48 48" xmlns="http://www.w3.org/2000/svg"><path d="M27.12,8.68s8.43-5.74,11.57-3.15-1.21,13.21-1.21,13.21Z" fill="#ffe500"></path><path d="M28.49,10.87s6-4.35,8.14-2.6-1.12,9.41-1.12,9.41Z" fill="#ffa694"></path><path d="M20.88,8.68S12.45,2.94,9.31,5.53s1.21,13.21,1.21,13.21Z" fill="#ffe500"></path><path d="M38.69,7.72a3.51,3.51,0,0,1,1.09,2.38c.18-2,0-3.71-1.09-4.57C35.55,2.94,27.12,8.68,27.12,8.68L28.49,10C31,8.52,36.34,5.78,38.69,7.72Z" fill="#fff48c"></path><path d="M9.31,7.72c2.35-1.94,7.68.8,10.2,2.29l1.37-1.33S12.45,2.94,9.31,5.53C8.26,6.39,8,8.14,8.22,10.1A3.51,3.51,0,0,1,9.31,7.72Z" fill="#fff48c"></path><path d="M27.12,8.68s8.43-5.74,11.57-3.15-1.21,13.21-1.21,13.21Z" fill="none" stroke="#45413c" stroke-linecap="round" stroke-linejoin="round"></path><path d="M20.88,8.68S12.45,2.94,9.31,5.53s1.21,13.21,1.21,13.21Z" fill="none" stroke="#45413c" stroke-linecap="round" stroke-linejoin="round"></path><path d="M19.51,10.87s-6-4.35-8.14-2.6,1.12,9.41,1.12,9.41Z" fill="#ffa694"></path><path d="M36.63,10.52a2,2,0,0,1,.63,1.17c.2-1.48.11-2.81-.63-3.42-2.13-1.75-8.14,2.6-8.14,2.6l1.38,1.34C31.77,11,35.14,9.29,36.63,10.52Z" fill="#ff866e"></path><path d="M11.37,10.52c1.49-1.23,4.86.52,6.76,1.69l1.38-1.34s-6-4.35-8.14-2.6c-.74.61-.83,1.94-.63,3.42A2,2,0,0,1,11.37,10.52Z" fill="#ff866e"></path><path d="M28.49,10.87s6-4.35,8.14-2.6-1.12,9.41-1.12,9.41Z" fill="none" stroke="#45413c" stroke-linecap="round" stroke-linejoin="round"></path><path d="M19.51,10.87s-6-4.35-8.14-2.6,1.12,9.41,1.12,9.41Z" fill="none" stroke="#45413c" stroke-linecap="round" stroke-linejoin="round"></path><path d="M13.000 43.500 A11 1.5 0 1 0 35.000 43.500 A11 1.5 0 1 0 13.000 43.500 Z" fill="#45413c" opacity=".15"></path><path d="M39.33,28.91l-.94-8.71A14.26,14.26,0,0,0,24,7.75,14.26,14.26,0,0,0,9.61,20.2l-.94,8.71a8.09,8.09,0,0,0,8.25,8.77h.46c1.25,1.55,3.74,2.61,6.62,2.61s5.37-1.06,6.62-2.61h.46A8.09,8.09,0,0,0,39.33,28.91Z" fill="#ffe500"></path><path d="M9.61,23.88A14.26,14.26,0,0,1,24,11.44,14.26,14.26,0,0,1,38.39,23.88l.81,7.49a7.74,7.74,0,0,0,.13-2.46l-.94-8.71A14.27,14.27,0,0,0,24,7.75,14.27,14.27,0,0,0,9.61,20.2l-.94,8.71a7.74,7.74,0,0,0,.13,2.46Z" fill="#fff48c"></path><path d="M39.33,28.91l-.94-8.71A14.26,14.26,0,0,0,24,7.75,14.26,14.26,0,0,0,9.61,20.2l-.94,8.71a8.09,8.09,0,0,0,8.25,8.77h.46c1.25,1.55,3.74,2.61,6.62,2.61s5.37-1.06,6.62-2.61h.46A8.09,8.09,0,0,0,39.33,28.91Z" fill="none" stroke="#45413c" stroke-linecap="round" stroke-linejoin="round"></path><path d="M32 30.09L35.43 29.27" fill="none" stroke="#45413c" stroke-linecap="round" stroke-linejoin="round"></path><path d="M32 32.55L35.43 33.3" fill="none" stroke="#45413c" stroke-linecap="round" stroke-linejoin="round"></path><path d="M24.22,33.12a1.39,1.39,0,0,1,.72-.2,1.44,1.44,0,0,1,0,2.88" fill="none" stroke="#45413c" stroke-linecap="round"></path><path d="M24.94,35.8a1.44,1.44,0,1,1,0,2.87,1.46,1.46,0,0,1-.72-.19" fill="none" stroke="#45413c" stroke-linecap="round"></path><path d="M43.57,32.38a3,3,0,0,0-4-1.29l-1.64.75-.53-1.73A3.05,3.05,0,0,0,33.77,28a3.83,3.83,0,0,0-2.62,2.23,4.92,4.92,0,0,0-.1,3.94l2.84,6.68,6.88-2.31a5,5,0,0,0,2.88-2.69A3.87,3.87,0,0,0,43.57,32.38Z" fill="#ff6242"></path><path d="M32.35,31.16A3,3,0,0,1,36,33.29L36.5,35l1.65-.74a3,3,0,0,1,4,1.29,3.58,3.58,0,0,1,.43,1.8,5.33,5.33,0,0,0,1.07-1.53,3.87,3.87,0,0,0-.08-3.45,3,3,0,0,0-4-1.29l-1.64.75-.53-1.73A3.05,3.05,0,0,0,33.77,28a3.83,3.83,0,0,0-2.62,2.23A5.16,5.16,0,0,0,30.71,32,3.54,3.54,0,0,1,32.35,31.16Z" fill="#ff866e"></path><path d="M43.57,32.38a3,3,0,0,0-4-1.29l-1.64.75-.53-1.73A3.05,3.05,0,0,0,33.77,28a3.83,3.83,0,0,0-2.62,2.23,4.92,4.92,0,0,0-.1,3.94l2.84,6.68,6.88-2.31a5,5,0,0,0,2.88-2.69A3.87,3.87,0,0,0,43.57,32.38Z" fill="none" stroke="#45413c" stroke-linecap="round" stroke-linejoin="round"></path><path d="M32.37,24.48a1.75,1.75,0,1,1-3.5,0" fill="none" stroke="#45413c" stroke-linecap="round" stroke-linejoin="round"></path><path d="M19.13,24.48a1.75,1.75,0,0,1-3.5,0" fill="none" stroke="#45413c" stroke-linecap="round" stroke-linejoin="round"></path><path d="M16.89 30.18L11.47 29.35" fill="none" stroke="#45413c" stroke-linecap="round" stroke-linejoin="round"></path><path d="M16.89 32.64L11.47 33.39" fill="none" stroke="#45413c" stroke-linecap="round" stroke-linejoin="round"></path><path d="M26.68,30.88A3,3,0,0,1,24,33.1a3,3,0,0,1-2.68-2.22c0-.69,1.2-1.24,2.68-1.24S26.68,30.19,26.68,30.88Z" fill="#ff866e"></path><path d="M24,31.14a4,4,0,0,1,2.32.61,1.69,1.69,0,0,0,.36-.87c0-.69-1.2-1.24-2.68-1.24s-2.68.55-2.68,1.24a1.69,1.69,0,0,0,.36.87A4,4,0,0,1,24,31.14Z" fill="#ffa694"></path><path d="M26.68,30.88A3,3,0,0,1,24,33.1a3,3,0,0,1-2.68-2.22c0-.69,1.2-1.24,2.68-1.24S26.68,30.19,26.68,30.88Z" fill="none" stroke="#45413c" stroke-linecap="round" stroke-linejoin="round"></path></svg>