<svg viewBox="0 0 48 48" xmlns="http://www.w3.org/2000/svg"><path d="M1.500 24.830 A15.330 15.330 0 1 0 32.160 24.830 A15.330 15.330 0 1 0 1.500 24.830 Z" fill="#ffe500"></path><path d="M16.83,9.5A15.33,15.33,0,1,0,32.16,24.83,15.33,15.33,0,0,0,16.83,9.5Zm0,28.36a14,14,0,1,1,14-14A14,14,0,0,1,16.83,37.86Z" fill="#ebcb00"></path><path d="M12.230 12.570 A4.6 1.15 0 1 0 21.430 12.570 A4.6 1.15 0 1 0 12.230 12.570 Z" fill="#fff48c"></path><path d="M4.570 45.500 A12.26 1.5 0 1 0 29.090 45.500 A12.26 1.5 0 1 0 4.570 45.500 Z" fill="#45413c" opacity=".15"></path><path d="M1.500 24.830 A15.330 15.330 0 1 0 32.160 24.830 A15.330 15.330 0 1 0 1.500 24.830 Z" fill="none" stroke="#45413c" stroke-linecap="round" stroke-linejoin="round"></path><path d="M16.83,29.63a1.53,1.53,0,1,1,.77,2.86,1.54,1.54,0,0,1,0,3.07,1.57,1.57,0,0,1-.78-.21" fill="none" stroke="#45413c" stroke-linecap="round" stroke-linejoin="round"></path><path d="M5.72,28.66c0,.64.85,1.15,1.91,1.15s1.92-.51,1.92-1.15-.86-1.15-1.92-1.15S5.72,28,5.72,28.66Z" fill="#ffaa54"></path><path d="M27.94,28.66c0,.64-.86,1.15-1.91,1.15s-1.92-.51-1.92-1.15S25,27.51,26,27.51,27.94,28,27.94,28.66Z" fill="#ffaa54"></path><path d="M9.55,24.45a.77.77,0,1,1-.77-.77A.77.77,0,0,1,9.55,24.45Z" fill="#45413c" stroke="#45413c" stroke-linecap="round" stroke-linejoin="round"></path><path d="M24.11,24.45a.77.77,0,1,0,.77-.77A.76.76,0,0,0,24.11,24.45Z" fill="#45413c" stroke="#45413c" stroke-linecap="round" stroke-linejoin="round"></path><path d="M37.88,17a1.65,1.65,0,1,1-1.64-1.64A1.65,1.65,0,0,1,37.88,17Z" fill="none" stroke="#48cf3e" stroke-linecap="round" stroke-linejoin="round"></path><path d="M46.09,15.31a1.65,1.65,0,1,1-1.64-1.65A1.65,1.65,0,0,1,46.09,15.31Z" fill="none" stroke="#48cf3e" stroke-linecap="round" stroke-linejoin="round"></path><path d="M37.88 16.95L37.88 9.56 46.09 6.27 46.09 15.3" fill="none" stroke="#48cf3e" stroke-linecap="round" stroke-linejoin="round"></path><path d="M36.11,40.55a1.62,1.62,0,1,1-1.61-1.61A1.62,1.62,0,0,1,36.11,40.55Z" fill="none" stroke="#ff4064" stroke-linecap="round" stroke-linejoin="round"></path><path d="M36.11 40.55L36.11 33.28 38.53 34.9" fill="none" stroke="#ff4064" stroke-linecap="round" stroke-linejoin="round"></path><path d="M27.1,7.36a1,1,0,1,1-1.05-1A1,1,0,0,1,27.1,7.36Z" fill="none" stroke="#ffb700" stroke-linecap="round" stroke-linejoin="round"></path><path d="M27.1 7.36L27.1 2.66 28.67 3.7" fill="none" stroke="#ffb700" stroke-linecap="round" stroke-linejoin="round"></path><path d="M38.81 23.83L38.81 23.25" fill="none" stroke="#00aed9" stroke-linecap="round" stroke-linejoin="round"></path><path d="M40.03 24.33L40.43 23.93" fill="none" stroke="#00aed9" stroke-linecap="round" stroke-linejoin="round"></path><path d="M40.53 25.55L41.11 25.55" fill="none" stroke="#00aed9" stroke-linecap="round" stroke-linejoin="round"></path><path d="M40.03 26.77L40.43 27.18" fill="none" stroke="#00aed9" stroke-linecap="round" stroke-linejoin="round"></path><path d="M38.81 27.28L38.81 27.85" fill="none" stroke="#00aed9" stroke-linecap="round" stroke-linejoin="round"></path><path d="M37.59 26.77L37.18 27.18" fill="none" stroke="#00aed9" stroke-linecap="round" stroke-linejoin="round"></path><path d="M37.08 25.55L36.51 25.55" fill="none" stroke="#00aed9" stroke-linecap="round" stroke-linejoin="round"></path><path d="M37.59 24.33L37.18 23.93" fill="none" stroke="#00aed9" stroke-linecap="round" stroke-linejoin="round"></path><path d="M44.47 32L44.47 28.94" fill="none" stroke="#00aed9" stroke-linecap="round" stroke-linejoin="round"></path><path d="M42.94 30.47L46.01 30.47" fill="none" stroke="#00aed9" stroke-linecap="round" stroke-linejoin="round"></path><path d="M41.11 4.19L41.11 2.66" fill="none" stroke="#00aed9" stroke-linecap="round" stroke-linejoin="round"></path><path d="M40.34 3.43L41.87 3.43" fill="none" stroke="#00aed9" stroke-linecap="round" stroke-linejoin="round"></path><path d="M42.15 39.26L42.15 37.72" fill="none" stroke="#00aed9" stroke-linecap="round" stroke-linejoin="round"></path><path d="M41.38 38.49L42.91 38.49" fill="none" stroke="#00aed9" stroke-linecap="round" stroke-linejoin="round"></path><path d="M31.23 9.37L31.23 7.83" fill="none" stroke="#00aed9" stroke-linecap="round" stroke-linejoin="round"></path><path d="M30.46 8.6L31.99 8.6" fill="none" stroke="#00aed9" stroke-linecap="round" stroke-linejoin="round"></path></svg>