<svg viewBox="0 0 48 48" xmlns="http://www.w3.org/2000/svg"><path d="M11.38,14.91A10.88,10.88,0,0,1,22.26,25.79V40a1.23,1.23,0,0,1-.77,1.14h0a27.09,27.09,0,0,1-20.22,0h0A1.23,1.23,0,0,1,.5,40V25.79A10.88,10.88,0,0,1,11.38,14.91Z" fill="#724f3d"></path><path d="M11.38,14.91A10.88,10.88,0,0,0,.5,25.79v2.86a10.88,10.88,0,0,1,21.76,0V25.79A10.88,10.88,0,0,0,11.38,14.91Z" fill="#a86c4d"></path><path d="M11.38,14.91A10.88,10.88,0,0,1,22.26,25.79V40a1.23,1.23,0,0,1-.77,1.14h0a27.09,27.09,0,0,1-20.22,0h0A1.23,1.23,0,0,1,.5,40V25.79A10.88,10.88,0,0,1,11.38,14.91Z" fill="none" stroke="#45413c" stroke-linecap="round" stroke-linejoin="round"></path><path d="M20.44,28.06a8.77,8.77,0,0,1-5.67-5l-.62-1.49A15.92,15.92,0,0,1,4.2,27.72l-1.89.34a1.81,1.81,0,1,0,0,3.62h.11a9.05,9.05,0,0,0,17.91,0h.11a1.81,1.81,0,1,0,0-3.62Z" fill="#ffe500" stroke="#45413c" stroke-linecap="round" stroke-linejoin="round"></path><path d="M4.440 32.790 A1 0.6 0 1 0 6.440 32.790 A1 0.6 0 1 0 4.440 32.790 Z" fill="#ffaa54"></path><path d="M16.570 32.790 A1 0.6 0 1 0 18.570 32.790 A1 0.6 0 1 0 16.570 32.790 Z" fill="#ffaa54"></path><path d="M12.63,33.15a1.12,1.12,0,0,1,.55-.14,1.11,1.11,0,1,1,0,2.21" fill="none" stroke="#45413c" stroke-linecap="round"></path><path d="M13.18,35.22a1.11,1.11,0,1,1,0,2.21,1,1,0,0,1-.55-.15" fill="none" stroke="#45413c" stroke-linecap="round"></path><path d="M6.75,29.13a1,1,0,1,0,1.93,0" fill="none" stroke="#45413c" stroke-linecap="round" stroke-linejoin="round"></path><path d="M15.57,29.13a1,1,0,1,0,1.94,0" fill="none" stroke="#45413c" stroke-linecap="round" stroke-linejoin="round"></path><path d="M36.62,14.91A10.88,10.88,0,0,0,25.74,25.79V40a1.23,1.23,0,0,0,.77,1.14h0a27.09,27.09,0,0,0,20.22,0h0A1.23,1.23,0,0,0,47.5,40V25.79A10.88,10.88,0,0,0,36.62,14.91Z" fill="#724f3d"></path><path d="M36.62,14.91A10.88,10.88,0,0,1,47.5,25.79v2.86a10.88,10.88,0,0,0-21.76,0V25.79A10.88,10.88,0,0,1,36.62,14.91Z" fill="#a86c4d"></path><path d="M36.62,14.91A10.88,10.88,0,0,0,25.74,25.79V40a1.23,1.23,0,0,0,.77,1.14h0a27.09,27.09,0,0,0,20.22,0h0A1.23,1.23,0,0,0,47.5,40V25.79A10.88,10.88,0,0,0,36.62,14.91Z" fill="none" stroke="#45413c" stroke-linecap="round" stroke-linejoin="round"></path><path d="M27.56,28.06a8.77,8.77,0,0,0,5.67-5l.62-1.49a15.92,15.92,0,0,0,9.95,6.18l1.89.34a1.81,1.81,0,1,1,0,3.62h-.11a9.05,9.05,0,0,1-17.91,0h-.11a1.81,1.81,0,1,1,0-3.62Z" fill="#ffe500" stroke="#45413c" stroke-linecap="round" stroke-linejoin="round"></path><path d="M41.560 32.790 A1 0.6 0 1 0 43.560 32.790 A1 0.6 0 1 0 41.560 32.790 Z" fill="#ffaa54"></path><path d="M29.430 32.790 A1 0.6 0 1 0 31.430 32.790 A1 0.6 0 1 0 29.430 32.790 Z" fill="#ffaa54"></path><path d="M35.37,33.15a1.12,1.12,0,0,0-.55-.14,1.11,1.11,0,1,0,0,2.21" fill="none" stroke="#45413c" stroke-linecap="round"></path><path d="M34.82,35.22a1.11,1.11,0,1,0,0,2.21,1,1,0,0,0,.55-.15" fill="none" stroke="#45413c" stroke-linecap="round"></path><path d="M41.25,29.13a1,1,0,1,1-1.93,0" fill="none" stroke="#45413c" stroke-linecap="round" stroke-linejoin="round"></path><path d="M32.43,29.13a1,1,0,1,1-1.94,0" fill="none" stroke="#45413c" stroke-linecap="round" stroke-linejoin="round"></path><path d="M33.16,5.07a5.17,5.17,0,0,0-7.1.78L24,8.14,21.94,5.85a5.17,5.17,0,0,0-7.1-.78,6.53,6.53,0,0,0-2.51,5.29,8.41,8.41,0,0,0,2.6,6.17L24,24.89l9.07-8.36a8.41,8.41,0,0,0,2.6-6.17A6.53,6.53,0,0,0,33.16,5.07Z" fill="#ff6196"></path><path d="M14.84,11a5.17,5.17,0,0,1,7.1.77l1.2,1.34a1.16,1.16,0,0,0,1.72,0l1.2-1.34a5.17,5.17,0,0,1,7.1-.77,6,6,0,0,1,2,2.5,8.92,8.92,0,0,0,.56-3.1,6.53,6.53,0,0,0-2.51-5.29,5.17,5.17,0,0,0-7.1.78L24,8.14,21.94,5.85a5.17,5.17,0,0,0-7.1-.78,6.53,6.53,0,0,0-2.51,5.29,8.92,8.92,0,0,0,.56,3.1A6,6,0,0,1,14.84,11Z" fill="#ff87af"></path><path d="M33.16,5.07a5.17,5.17,0,0,0-7.1.78L24,8.14,21.94,5.85a5.17,5.17,0,0,0-7.1-.78,6.53,6.53,0,0,0-2.51,5.29,8.41,8.41,0,0,0,2.6,6.17L24,24.89l9.07-8.36a8.41,8.41,0,0,0,2.6-6.17A6.53,6.53,0,0,0,33.16,5.07Z" fill="none" stroke="#45413c" stroke-linecap="round" stroke-linejoin="round"></path></svg>