<svg viewBox="0 0 48 48" xmlns="http://www.w3.org/2000/svg"><path d="M4.000 21.500 A20.000 20.000 0 1 0 44.000 21.500 A20.000 20.000 0 1 0 4.000 21.500 Z" fill="#ffe500"></path><path d="M24,1.5a20,20,0,1,0,20,20A20,20,0,0,0,24,1.5Zm0,37A18.25,18.25,0,1,1,42.25,20.25,18.25,18.25,0,0,1,24,38.5Z" fill="#ebcb00"></path><path d="M18.000 5.500 A6 1.5 0 1 0 30.000 5.500 A6 1.5 0 1 0 18.000 5.500 Z" fill="#fff48c"></path><path d="M8.000 45.500 A16 1.5 0 1 0 40.000 45.500 A16 1.5 0 1 0 8.000 45.500 Z" fill="#45413c" opacity=".15"></path><path d="M4.000 21.500 A20.000 20.000 0 1 0 44.000 21.500 A20.000 20.000 0 1 0 4.000 21.500 Z" fill="none" stroke="#45413c" stroke-linecap="round" stroke-linejoin="round"></path><path d="M9.5,26.5c0,.83,1.12,1.5,2.5,1.5s2.5-.67,2.5-1.5S13.38,25,12,25,9.5,25.67,9.5,26.5Z" fill="#ffaa54"></path><path d="M15.5,19.5a1,1,0,1,1-1-1A1,1,0,0,1,15.5,19.5Z" fill="#45413c" stroke="#45413c" stroke-linecap="round" stroke-linejoin="round"></path><path d="M32.5,19.5a1,1,0,1,0,1-1A1,1,0,0,0,32.5,19.5Z" fill="#45413c" stroke="#45413c" stroke-linecap="round" stroke-linejoin="round"></path><path d="M19.5,34.5a14.09,14.09,0,0,1,4.5-1,14.09,14.09,0,0,1,4.5,1" fill="#ffe500" stroke="#45413c" stroke-linecap="round" stroke-linejoin="round"></path><path d="M25.5,25H45a2,2,0,0,1,0,4H25.5" fill="#ffe500" stroke="#45413c" stroke-linecap="round" stroke-linejoin="round"></path></svg>