<svg viewBox="0 0 48 48" xmlns="http://www.w3.org/2000/svg"><path d="M9.000 45.500 A15 1.5 0 1 0 39.000 45.500 A15 1.5 0 1 0 9.000 45.500 Z" fill="#45413c" opacity=".15"></path><path d="M24,31.22h0A11.88,11.88,0,0,1,35.88,43.1V45a0,0,0,0,1,0,0H12.12a0,0,0,0,1,0,0V43.1A11.88,11.88,0,0,1,24,31.22Z" fill="#fff"></path><path d="M24,31.22A11.88,11.88,0,0,0,12.12,43.1V45h.06a11.87,11.87,0,0,1,23.64,0h.06V43.1A11.88,11.88,0,0,0,24,31.22Z" fill="#e0e0e0"></path><path d="M24,31.22h0A11.88,11.88,0,0,1,35.88,43.1V45a0,0,0,0,1,0,0H12.12a0,0,0,0,1,0,0V43.1A11.88,11.88,0,0,1,24,31.22Z" fill="none" stroke="#45413c" stroke-linecap="round" stroke-linejoin="round"></path><path d="M30.67,33.26S28.76,30.41,24,30.41s-6.67,2.85-6.67,2.85l2,1.85-.77,2.83L24,42.33l5.43-4.39-.77-2.83Z" fill="#f0f0f0" stroke="#45413c" stroke-linecap="round" stroke-linejoin="round"></path><path d="M26.54,32.57v1.82A5.49,5.49,0,0,1,24,39h0a5.49,5.49,0,0,1-2.54-4.65V32.57Z" fill="#00dba8" stroke="#45413c" stroke-linecap="round" stroke-linejoin="round"></path><path d="M21.460 27.170 L26.550 27.170 L26.550 35.110 L21.460 35.110 Z" fill="#ffcebf"></path><path d="M24,27.17a2.54,2.54,0,0,0-2.54,2.54v.6a2.54,2.54,0,0,0,5.08,0v-.59A2.54,2.54,0,0,0,24,27.17Z" fill="#ffb59e"></path><path d="M21.460 27.170 L26.550 27.170 L26.550 35.110 L21.460 35.110 Z" fill="none" stroke="#45413c" stroke-linecap="round" stroke-linejoin="round"></path><path d="M17.06 45L17.06 42.59" fill="none" stroke="#45413c" stroke-linecap="round" stroke-linejoin="round"></path><path d="M30.94 45L30.94 42.59" fill="none" stroke="#45413c" stroke-linecap="round" stroke-linejoin="round"></path><path d="M24 39.04L24 45" fill="none" stroke="#45413c" stroke-linecap="round" stroke-linejoin="round"></path><path d="M35.8,28.65h4.73a0,0,0,0,1,0,0V44.33a2.36,2.36,0,0,1-2.36,2.36h0a2.36,2.36,0,0,1-2.36-2.36V28.65a0,0,0,0,1,0,0Z" fill="#80ddff"></path><path d="M40.53,29.13,35.8,35.91v8.42a2.37,2.37,0,0,0,4.73,0Z" fill="#b8ecff"></path><path d="M35.8,28.65h4.73a0,0,0,0,1,0,0V44.33a2.36,2.36,0,0,1-2.36,2.36h0a2.36,2.36,0,0,1-2.36-2.36V28.65a0,0,0,0,1,0,0Z" fill="none" stroke="#45413c" stroke-linecap="round" stroke-linejoin="round"></path><path d="M35.8,32.39h4.73a0,0,0,0,1,0,0V44.33a2.36,2.36,0,0,1-2.36,2.36h0a2.36,2.36,0,0,1-2.36-2.36V32.39A0,0,0,0,1,35.8,32.39Z" fill="#ff6196"></path><path d="M35.8,35.91v8.42a2.37,2.37,0,0,0,4.73,0V32.39H38.26Z" fill="#ff87af"></path><path d="M35.8,32.39h4.73a0,0,0,0,1,0,0V44.33a2.36,2.36,0,0,1-2.36,2.36h0a2.36,2.36,0,0,1-2.36-2.36V32.39A0,0,0,0,1,35.8,32.39Z" fill="none" stroke="#45413c" stroke-linecap="round" stroke-linejoin="round"></path><path d="M35.030 26.720 L41.300 26.720 L41.300 28.640 L35.030 28.640 Z" fill="#80ddff" stroke="#45413c" stroke-linecap="round" stroke-linejoin="round"></path><path d="M38.360 34.970 L42.690 34.970 L42.690 37.280 L38.360 37.280 Z" fill="#00dba8"></path><path d="M39.52,36.12h2a1.16,1.16,0,0,1,1,.58,1.15,1.15,0,0,0,.16-.58A1.16,1.16,0,0,0,41.54,35h-2a1.16,1.16,0,0,0-1.16,1.15,1.15,1.15,0,0,0,.16.58A1.16,1.16,0,0,1,39.52,36.12Z" fill="#00f5bc"></path><path d="M38.360 34.970 L42.690 34.970 L42.690 37.280 L38.360 37.280 Z" fill="none" stroke="#45413c" stroke-linecap="round" stroke-linejoin="round"></path><path d="M38.360 37.280 L42.690 37.280 L42.690 39.590 L38.360 39.590 Z" fill="#00dba8" stroke="#45413c" stroke-linecap="round" stroke-linejoin="round"></path><path d="M38.360 39.580 L42.690 39.580 L42.690 41.890 L38.360 41.890 Z" fill="#00dba8" stroke="#45413c" stroke-linecap="round" stroke-linejoin="round"></path><path d="M34.26,33.53h0a1.54,1.54,0,0,1,1.54,1.54V41.8a0,0,0,0,1,0,0h0a2.34,2.34,0,0,1-2.34-2.34V34.33A.79.79,0,0,1,34.26,33.53Z" fill="#00dba8"></path><path d="M34.26,33.53a.79.79,0,0,0-.79.8v1.91a.79.79,0,0,1,.79-.79A1.54,1.54,0,0,1,35.8,37V35.08A1.54,1.54,0,0,0,34.26,33.53Z" fill="#00f5bc"></path><path d="M34.26,33.53h0a1.54,1.54,0,0,1,1.54,1.54V41.8a0,0,0,0,1,0,0h0a2.34,2.34,0,0,1-2.34-2.34V34.33A.79.79,0,0,1,34.26,33.53Z" fill="none" stroke="#45413c" stroke-linecap="round" stroke-linejoin="round"></path><path d="M36.740 23.860 A0.940 0.940 0 1 0 38.620 23.860 A0.940 0.940 0 1 0 36.740 23.860 Z" fill="#e5feff" stroke="#45413c" stroke-linecap="round" stroke-linejoin="round"></path><path d="M36.490 16.330 A0.940 0.940 0 1 0 38.370 16.330 A0.940 0.940 0 1 0 36.490 16.330 Z" fill="#e5feff" stroke="#45413c" stroke-linecap="round" stroke-linejoin="round"></path><path d="M39.030 19.190 A1.500 1.500 0 1 0 42.030 19.190 A1.500 1.500 0 1 0 39.030 19.190 Z" fill="#e5feff" stroke="#45413c" stroke-linecap="round" stroke-linejoin="round"></path><path d="M24,6.91a9.83,9.83,0,0,0-2.44.31c-1.86.42-4.28,1.12-6.47.7a4.2,4.2,0,0,0,.84,3.21,9.81,9.81,0,0,0-1.75,5.6v5.14H33.82V16.73A9.82,9.82,0,0,0,24,6.91Z" fill="#a86c4d"></path><path d="M24,6.91a9.83,9.83,0,0,0-2.44.31c-1.86.42-4.28,1.12-6.47.7a4.47,4.47,0,0,0,.68,3,19.4,19.4,0,0,0,5.79-.79,9.81,9.81,0,0,1,12.26,9.51V16.73A9.82,9.82,0,0,0,24,6.91Z" fill="#de926a"></path><path d="M24,6.91a9.83,9.83,0,0,0-2.44.31c-1.86.42-4.28,1.12-6.47.7a4.2,4.2,0,0,0,.84,3.21,9.81,9.81,0,0,0-1.75,5.6v5.14H33.82V16.73A9.82,9.82,0,0,0,24,6.91Z" fill="none" stroke="#45413c" stroke-linecap="round" stroke-linejoin="round"></path><path d="M34.87,21.12a1.83,1.83,0,0,0-1.39-1.54l-.59-.16a2.06,2.06,0,0,1-1.5-2V15.38A1.88,1.88,0,0,0,30,13.57a15.34,15.34,0,0,1-6,1.09,15.34,15.34,0,0,1-6-1.09,1.88,1.88,0,0,0-1.4,1.81v2.06a2.06,2.06,0,0,1-1.5,2l-.59.16a1.83,1.83,0,0,0-1.39,1.54,1.81,1.81,0,0,0,1.81,2h.11a9,9,0,0,0,17.9,0h.11A1.81,1.81,0,0,0,34.87,21.12Z" fill="#ffcebf" stroke="#45413c" stroke-linecap="round" stroke-linejoin="round"></path><path d="M21.16,25.6a.44.44,0,0,0-.33.16.42.42,0,0,0-.1.35,3.32,3.32,0,0,0,6.54,0,.42.42,0,0,0-.1-.35.44.44,0,0,0-.33-.16Z" fill="#ff6242"></path><path d="M24,27a4,4,0,0,0-2.52.77,3.36,3.36,0,0,0,5,0A4,4,0,0,0,24,27Z" fill="#ffa694"></path><path d="M21.16,25.6a.44.44,0,0,0-.33.16.42.42,0,0,0-.1.35,3.32,3.32,0,0,0,6.54,0,.42.42,0,0,0-.1-.35.44.44,0,0,0-.33-.16Z" fill="none" stroke="#45413c" stroke-linecap="round" stroke-linejoin="round"></path><path d="M17.060 24.790 A1 0.6 0 1 0 19.060 24.790 A1 0.6 0 1 0 17.060 24.790 Z" fill="#ffb59e"></path><path d="M28.940 24.790 A1 0.6 0 1 0 30.940 24.790 A1 0.6 0 1 0 28.940 24.790 Z" fill="#ffb59e"></path><path d="M16,19v3.55a1,1,0,0,0,.88,1l4.07.51a2.07,2.07,0,0,0,1.53-.42l.88-.67a1.14,1.14,0,0,1,1.38,0l.88.67a2.07,2.07,0,0,0,1.53.42l4.07-.51a1,1,0,0,0,.88-1V19a1,1,0,0,0-1-1H17A1,1,0,0,0,16,19Z" fill="#00b8f0"></path><path d="M32.05,19a1,1,0,0,0-1-1H24.46l-4.17,6,.61.08a2.07,2.07,0,0,0,1.53-.42l.88-.67a1.14,1.14,0,0,1,1.38,0l.88.67a2.07,2.07,0,0,0,1.53.42l4.07-.51a1,1,0,0,0,.88-1Z" fill="#4acfff"></path><path d="M16,19v3.55a1,1,0,0,0,.88,1l4.07.51a2.07,2.07,0,0,0,1.53-.42l.88-.67a1.14,1.14,0,0,1,1.38,0l.88.67a2.07,2.07,0,0,0,1.53.42l4.07-.51a1,1,0,0,0,.88-1V19a1,1,0,0,0-1-1H17A1,1,0,0,0,16,19Z" fill="none" stroke="#45413c" stroke-linecap="round" stroke-linejoin="round"></path><path d="M18.82,20.91a.77.77,0,1,0,.77-.77A.76.76,0,0,0,18.82,20.91Z" fill="#45413c" stroke="#45413c" stroke-linecap="round" stroke-linejoin="round"></path><path d="M29.18,20.91a.77.77,0,1,1-.77-.77A.76.76,0,0,1,29.18,20.91Z" fill="#45413c" stroke="#45413c" stroke-linecap="round" stroke-linejoin="round"></path></svg>