<svg viewBox="0 0 48 48" xmlns="http://www.w3.org/2000/svg"><path d="M9.000 45.500 A15 1.5 0 1 0 39.000 45.500 A15 1.5 0 1 0 9.000 45.500 Z" fill="#45413c" opacity=".15"></path><path d="M24,31.22h0A11.88,11.88,0,0,1,35.88,43.1V45a0,0,0,0,1,0,0H12.12a0,0,0,0,1,0,0V43.1A11.88,11.88,0,0,1,24,31.22Z" fill="#6dd627"></path><path d="M24,31.22A11.88,11.88,0,0,0,12.12,43.1V45h.15a11.87,11.87,0,0,1,23.46,0h.15V43.1A11.88,11.88,0,0,0,24,31.22Z" fill="#46b000"></path><path d="M24,31.22h0A11.88,11.88,0,0,1,35.88,43.1V45a0,0,0,0,1,0,0H12.12a0,0,0,0,1,0,0V43.1A11.88,11.88,0,0,1,24,31.22Z" fill="none" stroke="#45413c" stroke-linecap="round" stroke-linejoin="round"></path><path d="M29.94,32.81v6.36a1,1,0,0,1-1,1H19.06a1,1,0,0,1-1-1V32.81a12.41,12.41,0,0,0-2.19,1.62V45H32.13V34.43A12.41,12.41,0,0,0,29.94,32.81Z" fill="#00b8f0"></path><path d="M29.94,36.52a12,12,0,0,1,2.19,1.63V34.43a12.41,12.41,0,0,0-2.19-1.62Z" fill="#009fd9"></path><path d="M18.06,36.52V32.81a12.41,12.41,0,0,0-2.19,1.62v3.72A12,12,0,0,1,18.06,36.52Z" fill="#009fd9"></path><path d="M29.94,32.81v6.36a1,1,0,0,1-1,1H19.06a1,1,0,0,1-1-1V32.81a12.41,12.41,0,0,0-2.19,1.62V45H32.13V34.43A12.41,12.41,0,0,0,29.94,32.81Z" fill="none" stroke="#45413c" stroke-linecap="round" stroke-linejoin="round"></path><path d="M24,30S19,29.94,19,32.79a10,10,0,0,0,2.16,5.77L24,36.13l2.89,2.43a10,10,0,0,0,2.16-5.77C29.05,29.94,24,30,24,30Z" fill="#46b000" stroke="#45413c" stroke-linecap="round" stroke-linejoin="round"></path><path d="M24,36.13h0l-2.25-2.25a1,1,0,0,1-.29-.71v-3A2.54,2.54,0,0,1,24,27.63h0a2.54,2.54,0,0,1,2.54,2.55v3a1,1,0,0,1-.29.71Z" fill="#ffcebf"></path><path d="M24,27.63a2.54,2.54,0,0,0-2.54,2.55v.59a2.54,2.54,0,0,0,5.08,0v-.59A2.54,2.54,0,0,0,24,27.63Z" fill="#ffb59e"></path><path d="M24,36.13h0l-2.25-2.25a1,1,0,0,1-.29-.71v-3A2.54,2.54,0,0,1,24,27.63h0a2.54,2.54,0,0,1,2.54,2.55v3a1,1,0,0,1-.29.71Z" fill="none" stroke="#45413c" stroke-linecap="round" stroke-linejoin="round"></path><path d="M24 36.13L24 40.17" fill="none" stroke="#45413c" stroke-linecap="round" stroke-linejoin="round"></path><path d="M24,6.91h0a9.82,9.82,0,0,1,9.82,9.82v5.14a0,0,0,0,1,0,0H14.18a0,0,0,0,1,0,0V16.73A9.82,9.82,0,0,1,24,6.91Z" fill="#a86c4d" stroke="#45413c" stroke-linecap="round" stroke-linejoin="round"></path><path d="M34.87,21.12a1.83,1.83,0,0,0-1.39-1.54l-.59-.16a2.06,2.06,0,0,1-1.5-2V15.38A1.88,1.88,0,0,0,30,13.57a15.34,15.34,0,0,1-6,1.09,15.34,15.34,0,0,1-6-1.09,1.88,1.88,0,0,0-1.4,1.81v2.06a2.06,2.06,0,0,1-1.5,2l-.59.16a1.83,1.83,0,0,0-1.39,1.54,1.81,1.81,0,0,0,1.81,2h.11a9,9,0,0,0,17.9,0h.11A1.81,1.81,0,0,0,34.87,21.12Z" fill="#ffcebf" stroke="#45413c" stroke-linecap="round" stroke-linejoin="round"></path><path d="M18.57,20.91a.77.77,0,1,0,.77-.77A.76.76,0,0,0,18.57,20.91Z" fill="#45413c" stroke="#45413c" stroke-linecap="round" stroke-linejoin="round"></path><path d="M29.43,20.91a.77.77,0,1,1-.77-.77A.76.76,0,0,1,29.43,20.91Z" fill="#45413c" stroke="#45413c" stroke-linecap="round" stroke-linejoin="round"></path><path d="M21.16,25.6a.42.42,0,0,0-.33.16.42.42,0,0,0-.1.35,3.32,3.32,0,0,0,6.54,0,.42.42,0,0,0-.1-.35.44.44,0,0,0-.33-.16Z" fill="#ff6242"></path><path d="M24,27a4,4,0,0,0-2.52.77,3.36,3.36,0,0,0,5,0A4,4,0,0,0,24,27Z" fill="#ffa694"></path><path d="M21.16,25.6a.42.42,0,0,0-.33.16.42.42,0,0,0-.1.35,3.32,3.32,0,0,0,6.54,0,.42.42,0,0,0-.1-.35.44.44,0,0,0-.33-.16Z" fill="none" stroke="#45413c" stroke-linecap="round" stroke-linejoin="round"></path><path d="M17.060 24.190 A1 0.6 0 1 0 19.060 24.190 A1 0.6 0 1 0 17.060 24.190 Z" fill="#ffb59e"></path><path d="M28.940 24.190 A1 0.6 0 1 0 30.940 24.190 A1 0.6 0 1 0 28.940 24.190 Z" fill="#ffb59e"></path><path d="M24,4.36h0a9.82,9.82,0,0,1,9.82,9.82v.19a0,0,0,0,1,0,0H14.18a0,0,0,0,1,0,0v-.19A9.82,9.82,0,0,1,24,4.36Z" fill="#debb7e"></path><path d="M24,4.36h0a9.83,9.83,0,0,0-9.82,9.83v.18h.3A9.81,9.81,0,0,1,24,6.91h0a9.81,9.81,0,0,1,9.52,7.46h.3v-.18A9.83,9.83,0,0,0,24,4.36Z" fill="#f0d5a8"></path><path d="M24,4.36h0a9.82,9.82,0,0,1,9.82,9.82v.19a0,0,0,0,1,0,0H14.18a0,0,0,0,1,0,0v-.19A9.82,9.82,0,0,1,24,4.36Z" fill="none" stroke="#45413c" stroke-linecap="round" stroke-linejoin="round"></path><path d="M24,9.37c-10,0-18.13,3.14-18.13,7,0,2.33,2.94,4.38,7.43,5.66a1.77,1.77,0,0,1,.88-2.39V18.12h0c0-1.91,4.4-3.46,9.82-3.46s9.82,1.55,9.82,3.46v1.61a1.75,1.75,0,0,1,1,1.39,1.8,1.8,0,0,1-.17.93c4.49-1.28,7.43-3.33,7.43-5.66C42.13,12.51,34,9.37,24,9.37Z" fill="#debb7e"></path><path d="M24,9.37c-10,0-18.13,3.14-18.13,7,0,1.89,1.93,3.59,5.05,4.85a3.4,3.4,0,0,1-1.63-2.6c0-3.15,6.59-5.7,14.71-5.7s14.71,2.55,14.71,5.7a3.4,3.4,0,0,1-1.63,2.6c3.12-1.26,5.05-3,5.05-4.85C42.13,12.51,34,9.37,24,9.37Z" fill="#f0d5a8"></path><path d="M24,9.37c-10,0-18.13,3.14-18.13,7,0,2.33,2.94,4.38,7.43,5.66a1.77,1.77,0,0,1,.88-2.39V18.12h0c0-1.91,4.4-3.46,9.82-3.46s9.82,1.55,9.82,3.46v1.61a1.75,1.75,0,0,1,1,1.39,1.8,1.8,0,0,1-.17.93c4.49-1.28,7.43-3.33,7.43-5.66C42.13,12.51,34,9.37,24,9.37Z" fill="none" stroke="#45413c" stroke-linecap="round" stroke-linejoin="round"></path><path d="M38.09 34.21H40.42V45H38.09z" fill="#bf8256" stroke="#45413c" stroke-linecap="round" stroke-linejoin="round"></path><path d="M43.93,18.37h0a.93.93,0,0,0-.93.93v7.82a1.82,1.82,0,0,1-1.81,1.82h-1V19.3a.93.93,0,1,0-1.86,0v9.64h-1a1.82,1.82,0,0,1-1.81-1.82V19.3a.93.93,0,0,0-.93-.93h0a.93.93,0,0,0-.93.93v7.5a4,4,0,0,0,4,4h.69v3.41h1.86V30.8h.67a4,4,0,0,0,4-4V19.3A.93.93,0,0,0,43.93,18.37Z" fill="#adc4d9" stroke="#45413c" stroke-linecap="round" stroke-linejoin="round"></path><path d="M36.55,36.73h0a1.54,1.54,0,0,1,1.54,1.54V45a0,0,0,0,1,0,0h0a2.34,2.34,0,0,1-2.34-2.34V37.52a.79.79,0,0,1,.79-.79Z" fill="#ffcebf"></path><path d="M36.55,36.73a.79.79,0,0,0-.79.79v1.92a.79.79,0,0,1,.79-.79,1.54,1.54,0,0,1,1.54,1.54V38.27A1.54,1.54,0,0,0,36.55,36.73Z" fill="#ffdcd1"></path><path d="M36.55,36.73h0a1.54,1.54,0,0,1,1.54,1.54V45a0,0,0,0,1,0,0h0a2.34,2.34,0,0,1-2.34-2.34V37.52a.79.79,0,0,1,.79-.79Z" fill="none" stroke="#45413c" stroke-linecap="round" stroke-linejoin="round"></path><path d="M40.68,38.11h-2a1.15,1.15,0,0,0-.06,2.29,1.15,1.15,0,0,0,.06,2.29,1.16,1.16,0,0,0,0,2.31h2a2.19,2.19,0,0,0,2.19-2.19V40.3a2.19,2.19,0,0,0-2.19-2.19Z" fill="#ffcebf"></path><path d="M40.68,38.11h-2a1.15,1.15,0,0,0-1.15,1.15,1.13,1.13,0,0,0,.18.57,1.13,1.13,0,0,1,1-.58h2a2.19,2.19,0,0,1,2.19,2.19V40.3A2.19,2.19,0,0,0,40.68,38.11Z" fill="#ffdcd1"></path><path d="M40.68,38.11h-2a1.15,1.15,0,0,0-.06,2.29,1.15,1.15,0,0,0,.06,2.29,1.16,1.16,0,0,0,0,2.31h2a2.19,2.19,0,0,0,2.19-2.19V40.3a2.19,2.19,0,0,0-2.19-2.19Z" fill="none" stroke="#45413c" stroke-linecap="round" stroke-linejoin="round"></path><path d="M38.62 40.4L40.2 40.4" fill="none" stroke="#45413c" stroke-linecap="round" stroke-linejoin="round"></path><path d="M38.68 42.69L40.2 42.69" fill="none" stroke="#45413c" stroke-linecap="round" stroke-linejoin="round"></path></svg>