<svg viewBox="0 0 48 48" xmlns="http://www.w3.org/2000/svg"><path d="M9.000 45.500 A15 1.5 0 1 0 39.000 45.500 A15 1.5 0 1 0 9.000 45.500 Z" fill="#45413c" opacity=".15"></path><path d="M24,31.22h0A11.88,11.88,0,0,1,35.88,43.1V45a0,0,0,0,1,0,0H12.12a0,0,0,0,1,0,0V43.1A11.88,11.88,0,0,1,24,31.22Z" fill="#fff"></path><path d="M24,31.22h0A11.88,11.88,0,0,0,12.12,43.1V45h.05A11.87,11.87,0,0,1,24,34h0A11.88,11.88,0,0,1,35.84,45h0V43.1A11.88,11.88,0,0,0,24,31.22Z" fill="#e0e0e0"></path><path d="M24,31.22h0A11.88,11.88,0,0,1,35.88,43.1V45a0,0,0,0,1,0,0H12.12a0,0,0,0,1,0,0V43.1A11.88,11.88,0,0,1,24,31.22Z" fill="none" stroke="#45413c" stroke-linecap="round" stroke-linejoin="round"></path><path d="M20.25,45l-2-5.29,1.21-1.6-1.11-.53a13.06,13.06,0,0,1,.06-3.75C18.6,32.34,19.29,30,24,30s5.41,2.3,5.63,3.79a13,13,0,0,1,.06,3.75l-1.11.53,1.21,1.6-2,5.29Z" fill="#f0f0f0" stroke="#45413c" stroke-linecap="round" stroke-linejoin="round"></path><path d="M26.54,31.5a11.66,11.66,0,0,0-5.08,0v1.07c0,7.84.16,12.43.16,12.43h4.76s.16-4.59.16-12.43Z" fill="#00dfeb" stroke="#45413c" stroke-linecap="round" stroke-linejoin="round"></path><path d="M24,35.86h0c-1.41,0-2.54-1.89-2.54-3.29V29.72A2.54,2.54,0,0,1,24,27.17h0a2.54,2.54,0,0,1,2.54,2.55v2.85C26.54,34,25.41,35.86,24,35.86Z" fill="#ffcebf"></path><path d="M24,27.69a2.54,2.54,0,0,0-2.54,2.55v.59a2.54,2.54,0,1,0,5.08,0v-.59A2.54,2.54,0,0,0,24,27.69Z" fill="#ffb59e"></path><path d="M24,35.86h0c-1.41,0-2.54-1.89-2.54-3.29V29.72A2.54,2.54,0,0,1,24,27.17h0a2.54,2.54,0,0,1,2.54,2.55v2.85C26.54,34,25.41,35.86,24,35.86Z" fill="none" stroke="#45413c" stroke-linecap="round" stroke-linejoin="round"></path><path d="M17.06 45L17.06 42.59" fill="none" stroke="#45413c" stroke-linecap="round" stroke-linejoin="round"></path><path d="M30.94 45L30.94 42.59" fill="none" stroke="#45413c" stroke-linecap="round" stroke-linejoin="round"></path><path d="M24,6.91a9.83,9.83,0,0,0-2.44.31c-1.86.42-4.28,1.12-6.47.7a4.2,4.2,0,0,0,.84,3.21,9.81,9.81,0,0,0-1.75,5.6v5.14H33.82V16.73A9.82,9.82,0,0,0,24,6.91Z" fill="#a86c4d"></path><path d="M24,6.91a9.83,9.83,0,0,0-2.44.31c-1.86.42-4.28,1.12-6.47.7a4.47,4.47,0,0,0,.68,3,19.4,19.4,0,0,0,5.79-.79,9.81,9.81,0,0,1,12.26,9.51V16.73A9.82,9.82,0,0,0,24,6.91Z" fill="#de926a"></path><path d="M24,6.91a9.83,9.83,0,0,0-2.44.31c-1.86.42-4.28,1.12-6.47.7a4.2,4.2,0,0,0,.84,3.21,9.81,9.81,0,0,0-1.75,5.6v5.14H33.82V16.73A9.82,9.82,0,0,0,24,6.91Z" fill="none" stroke="#45413c" stroke-linecap="round" stroke-linejoin="round"></path><path d="M34.87,21.12a1.83,1.83,0,0,0-1.39-1.54l-.59-.16a2.06,2.06,0,0,1-1.5-2V15.38A1.88,1.88,0,0,0,30,13.57a15.34,15.34,0,0,1-6,1.09,15.34,15.34,0,0,1-6-1.09,1.88,1.88,0,0,0-1.4,1.81v2.06a2.06,2.06,0,0,1-1.5,2l-.59.16a1.83,1.83,0,0,0-1.39,1.54,1.81,1.81,0,0,0,1.81,2h.11a9,9,0,0,0,17.9,0h.12A1.81,1.81,0,0,0,34.87,21.12Z" fill="#ffcebf" stroke="#45413c" stroke-linecap="round" stroke-linejoin="round"></path><path d="M18.57,20.91a.77.77,0,1,0,.77-.77A.76.76,0,0,0,18.57,20.91Z" fill="#45413c" stroke="#45413c" stroke-linecap="round" stroke-linejoin="round"></path><path d="M29.43,20.91a.77.77,0,1,1-.77-.77A.76.76,0,0,1,29.43,20.91Z" fill="#45413c" stroke="#45413c" stroke-linecap="round" stroke-linejoin="round"></path><path d="M21.16,25.6a.44.44,0,0,0-.33.16.42.42,0,0,0-.1.35,3.32,3.32,0,0,0,6.54,0,.42.42,0,0,0-.1-.35.42.42,0,0,0-.33-.16Z" fill="#ff6242"></path><path d="M24,27a4,4,0,0,0-2.52.77,3.36,3.36,0,0,0,5,0A4,4,0,0,0,24,27Z" fill="#ffa694"></path><path d="M21.16,25.6a.44.44,0,0,0-.33.16.42.42,0,0,0-.1.35,3.32,3.32,0,0,0,6.54,0,.42.42,0,0,0-.1-.35.42.42,0,0,0-.33-.16Z" fill="none" stroke="#45413c" stroke-linecap="round" stroke-linejoin="round"></path><path d="M17.060 24.190 A1 0.6 0 1 0 19.060 24.190 A1 0.6 0 1 0 17.060 24.190 Z" fill="#ffb59e"></path><path d="M28.940 24.190 A1 0.6 0 1 0 30.940 24.190 A1 0.6 0 1 0 28.940 24.190 Z" fill="#ffb59e"></path><path d="M34.69,22.07c1.43,0,1.88,1.1.6,7.59-1.58,8-4.73,8.67-11.29,8.67s-9.71-.65-11.29-8.67c-1.28-6.49-.83-7.59.6-7.59" fill="none" stroke="#45413c" stroke-linecap="round" stroke-linejoin="round"></path><path d="M13.18 21.09H15.02V23.05H13.18z" fill="#87898c" stroke="#45413c" stroke-linecap="round" stroke-linejoin="round"></path><path d="M32.99 21.09H34.830000000000005V23.05H32.99z" fill="#87898c" stroke="#45413c" stroke-linecap="round" stroke-linejoin="round" transform="translate(67.81 44.14) rotate(-180)"></path><path d="M26.31,37.39H21.69a.5.5,0,0,0-.5.5v.88a.5.5,0,0,0,.5.5h1.39V45h1.84V39.27h1.39a.5.5,0,0,0,.5-.5v-.88A.5.5,0,0,0,26.31,37.39Z" fill="#87898c" stroke="#45413c" stroke-linecap="round" stroke-linejoin="round"></path><path d="M37.34,38.08a1.54,1.54,0,0,0-1.53-1.35.79.79,0,0,0-.79.79v5.14A2.34,2.34,0,0,0,37.36,45h1.69V38.08Z" fill="#ffcebf"></path><path d="M35.81,36.73a.79.79,0,0,0-.79.79v1.92a.79.79,0,0,1,.79-.79,1.55,1.55,0,0,1,1.55,1.54V38.27A1.55,1.55,0,0,0,35.81,36.73Z" fill="#ffdcd1"></path><path d="M37.34,38.08a1.54,1.54,0,0,0-1.53-1.35.79.79,0,0,0-.79.79v5.14A2.34,2.34,0,0,0,37.36,45h1.69V38.08Z" fill="none" stroke="#45413c" stroke-linecap="round" stroke-linejoin="round"></path><path d="M36.880 38.080 L41.210 38.080 L41.210 40.390 L36.880 40.390 Z" fill="#ffcebf"></path><path d="M38,39.24h2a1.12,1.12,0,0,1,1,.57,1.13,1.13,0,0,0,.18-.57,1.16,1.16,0,0,0-1.16-1.16H38a1.16,1.16,0,0,0-1.16,1.16,1.13,1.13,0,0,0,.18.57A1.12,1.12,0,0,1,38,39.24Z" fill="#ffdcd1"></path><path d="M36.880 38.080 L41.210 38.080 L41.210 40.390 L36.880 40.390 Z" fill="none" stroke="#45413c" stroke-linecap="round" stroke-linejoin="round"></path><path d="M36.880 40.390 L41.210 40.390 L41.210 42.700 L36.880 42.700 Z" fill="#ffcebf" stroke="#45413c" stroke-linecap="round" stroke-linejoin="round"></path><path d="M36.880 42.690 L41.210 42.690 L41.210 45.000 L36.880 45.000 Z" fill="#ffcebf" stroke="#45413c" stroke-linecap="round" stroke-linejoin="round"></path><path d="M35.450 35.000 A2.870 2.870 0 1 0 41.190 35.000 A2.870 2.870 0 1 0 35.450 35.000 Z" fill="#c0dceb" stroke="#45413c" stroke-linecap="round" stroke-linejoin="round"></path><path d="M36.880 35.000 A1.440 1.440 0 1 0 39.760 35.000 A1.440 1.440 0 1 0 36.880 35.000 Z" fill="#e8f4fa"></path></svg>