<svg viewBox="0 0 48 48" xmlns="http://www.w3.org/2000/svg"><path d="M27.94,32.84,20.39,30l-7.54,2.87A6.76,6.76,0,0,0,8.5,39.15V45H32.28V39.15A6.76,6.76,0,0,0,27.94,32.84Z" fill="#656769"></path><path d="M27.94,32.84,20.39,30l-7.54,2.87A6.76,6.76,0,0,0,8.5,39.15v3a6.76,6.76,0,0,1,4.35-6.31L20.39,33l7.55,2.87a6.76,6.76,0,0,1,4.34,6.31v-3A6.76,6.76,0,0,0,27.94,32.84Z" fill="#525252"></path><path d="M27.94,32.84,20.39,30l-7.54,2.87A6.76,6.76,0,0,0,8.5,39.15V45H32.28V39.15A6.76,6.76,0,0,0,27.94,32.84Z" fill="none" stroke="#45413c" stroke-linecap="round" stroke-linejoin="round"></path><path d="M6.910 45.500 A13.5 1.5 0 1 0 33.910 45.500 A13.5 1.5 0 1 0 6.910 45.500 Z" fill="#45413c" opacity=".15"></path><path d="M20.39,30s-5,0-5,2.82a10,10,0,0,0,2.15,5.78l2.89-2.44,2.89,2.44a10,10,0,0,0,2.16-5.78C25.44,30,20.39,30,20.39,30Z" fill="#f0f0f0" stroke="#45413c" stroke-linecap="round" stroke-linejoin="round"></path><path d="M11.87 45L11.37 42.59" fill="none" stroke="#45413c" stroke-linecap="round" stroke-linejoin="round"></path><path d="M28.92 45L29.42 42.59" fill="none" stroke="#45413c" stroke-linecap="round" stroke-linejoin="round"></path><path d="M17.5 38.59L20.39 42.12 23.28 38.59 20.39 36.15 17.5 38.59z" fill="#fff" stroke="#45413c" stroke-linecap="round" stroke-linejoin="round"></path><path d="M21.87 37.4L20.39 36.15 18.92 37.4 19.69 38.85 19.27 40.75 20.39 42.12 21.51 40.75 21.09 38.85 21.87 37.4z" fill="#ff6242" stroke="#45413c" stroke-linecap="round" stroke-linejoin="round"></path><path d="M10.86,34a6.82,6.82,0,0,0,1.35,4.57C13.89,41.06,16.77,45,16.77,45" fill="none" stroke="#45413c" stroke-linecap="round" stroke-linejoin="round"></path><path d="M29.92,34a6.77,6.77,0,0,1-1.34,4.57C26.89,41.06,24,45,24,45" fill="none" stroke="#45413c" stroke-linecap="round" stroke-linejoin="round"></path><path d="M31.280 25.380 L33.220 25.380 L33.220 33.130 L31.280 33.130 Z" fill="#f0d5a8" transform="translate(8.16 -7.01) rotate(14.19)"></path><path d="M33.2,25.5a1,1,0,0,0-1.18.7l-.35,1.41a1.13,1.13,0,0,1,.85-.14l.25.07a1.07,1.07,0,0,1,.75.66l.39-1.52A1,1,0,0,0,33.2,25.5Z" fill="#f7e5c6"></path><path d="M31.280 25.380 L33.220 25.380 L33.220 33.130 L31.280 33.130 Z" fill="none" stroke="#45413c" stroke-linecap="round" stroke-linejoin="round" transform="translate(8.16 -7.01) rotate(14.19)"></path><path d="M41.890 28.060 L43.830 28.060 L43.830 35.810 L41.890 35.810 Z" fill="#f0d5a8" transform="translate(9.14 -9.53) rotate(14.19)"></path><path d="M43.81,28.18a1,1,0,0,0-1.18.7l-.35,1.41a1,1,0,0,1,.85-.14l.25.06a1.08,1.08,0,0,1,.75.67l.39-1.53A1,1,0,0,0,43.81,28.18Z" fill="#f7e5c6"></path><path d="M41.890 28.060 L43.830 28.060 L43.830 35.810 L41.890 35.810 Z" fill="none" stroke="#45413c" stroke-linecap="round" stroke-linejoin="round" transform="translate(9.14 -9.53) rotate(14.19)"></path><path d="M33.06 27.17H42.06V34.02H33.06z" fill="#debb7e" transform="translate(8.65 -8.27) rotate(14.19)"></path><path d="M36.91 23.94H39.309999999999995V32.94H36.91z" fill="#f0d5a8" transform="translate(1.19 58.41) rotate(-75.81)"></path><path d="M33.06 27.17H42.06V34.02H33.06z" fill="none" stroke="#45413c" stroke-linecap="round" stroke-linejoin="round" transform="translate(8.65 -8.27) rotate(14.19)"></path><path d="M34.22 33.74H36.33V45.49H34.22z" fill="#debb7e" transform="translate(10.79 -7.44) rotate(14.19)"></path><path d="M35.5 33.81H37.46V35.92H35.5z" fill="#b89558" transform="translate(-6.27 61.69) rotate(-75.81)"></path><path d="M34.22 33.74H36.33V45.49H34.22z" fill="none" stroke="#45413c" stroke-linecap="round" stroke-linejoin="round" transform="translate(10.79 -7.44) rotate(14.19)"></path><path d="M32.33,36.62h0a1.54,1.54,0,0,1,1.54,1.54v6.73a0,0,0,0,1,0,0h0a2.34,2.34,0,0,1-2.34-2.34V37.41a.79.79,0,0,1,.79-.79Z" fill="#ffe500" transform="translate(10.99 -6.77) rotate(14.19)"></path><path d="M33.35,36.65a.8.8,0,0,0-1,.58l-.47,1.86a.79.79,0,0,1,1-.58A1.55,1.55,0,0,1,34,40.39l.47-1.86A1.55,1.55,0,0,0,33.35,36.65Z" fill="#fff48c"></path><path d="M32.33,36.62h0a1.54,1.54,0,0,1,1.54,1.54v6.73a0,0,0,0,1,0,0h0a2.34,2.34,0,0,1-2.34-2.34V37.41a.79.79,0,0,1,.79-.79Z" fill="none" stroke="#45413c" stroke-linecap="round" stroke-linejoin="round" transform="translate(10.99 -6.77) rotate(14.19)"></path><path d="M37,39l-1.94-.49a1.16,1.16,0,0,0-1.4.84,1.15,1.15,0,0,0,.78,1.37A1.15,1.15,0,0,0,34,43a1.15,1.15,0,0,0-.57,2.23l1.94.49h0A2.17,2.17,0,0,0,38,44.1l.62-2.44A2.19,2.19,0,0,0,37,39Z" fill="#ffe500"></path><path d="M37,39l-1.94-.49a1.16,1.16,0,0,0-1.4.84,1.18,1.18,0,0,0,0,.59,1.15,1.15,0,0,1,1.09-.32l1.94.49a2.17,2.17,0,0,1,1.58,2.65l.28-1.1A2.19,2.19,0,0,0,37,39Z" fill="#fff48c"></path><path d="M37,39l-1.94-.49a1.16,1.16,0,0,0-1.4.84,1.15,1.15,0,0,0,.78,1.37A1.15,1.15,0,0,0,34,43a1.15,1.15,0,0,0-.57,2.23l1.94.49h0A2.17,2.17,0,0,0,38,44.1l.62-2.44A2.19,2.19,0,0,0,37,39Z" fill="none" stroke="#45413c" stroke-linecap="round" stroke-linejoin="round"></path><path d="M20.39,27.16a2.55,2.55,0,0,0-2.54,2.55v2.85c0,1.4,2.54,3.59,2.54,3.59s2.55-2.19,2.55-3.59V29.71A2.55,2.55,0,0,0,20.39,27.16Z" fill="#ffe500"></path><path d="M20.39,27.16a2.55,2.55,0,0,0-2.54,2.55v.59a2.55,2.55,0,0,0,5.09,0v-.59A2.55,2.55,0,0,0,20.39,27.16Z" fill="#ebcb00"></path><path d="M20.39,27.16a2.55,2.55,0,0,0-2.54,2.55v2.85c0,1.4,2.54,3.59,2.54,3.59s2.55-2.19,2.55-3.59V29.71A2.55,2.55,0,0,0,20.39,27.16Z" fill="none" stroke="#45413c" stroke-linecap="round" stroke-linejoin="round"></path><path d="M20.39,6.91A9.83,9.83,0,0,0,18,7.22c-1.86.42-4.27,1.12-6.46.7a4.17,4.17,0,0,0,.83,3.21,9.81,9.81,0,0,0-1.75,5.6v5.14H30.21V16.73A9.82,9.82,0,0,0,20.39,6.91Z" fill="#724f3d"></path><path d="M20.39,6.91A9.83,9.83,0,0,0,18,7.22c-1.86.42-4.27,1.12-6.46.7a4.42,4.42,0,0,0,.67,3A19.4,19.4,0,0,0,18,10.14a9.81,9.81,0,0,1,12.26,9.51V16.73A9.82,9.82,0,0,0,20.39,6.91Z" fill="#a86c4d"></path><path d="M20.39,6.91A9.83,9.83,0,0,0,18,7.22c-1.86.42-4.27,1.12-6.46.7a4.17,4.17,0,0,0,.83,3.21,9.81,9.81,0,0,0-1.75,5.6v5.14H30.21V16.73A9.82,9.82,0,0,0,20.39,6.91Z" fill="none" stroke="#45413c" stroke-linecap="round" stroke-linejoin="round"></path><path d="M31.26,21.12a1.83,1.83,0,0,0-1.39-1.54l-.59-.16a2.07,2.07,0,0,1-1.5-2V15.38a1.87,1.87,0,0,0-1.4-1.81,15.34,15.34,0,0,1-6,1.09,15.37,15.37,0,0,1-6-1.09A1.88,1.88,0,0,0,13,15.38v2.06a2.06,2.06,0,0,1-1.5,2l-.59.16a1.83,1.83,0,0,0-1.39,1.54,1.81,1.81,0,0,0,1.81,2h.11a9.05,9.05,0,0,0,17.91,0h.11A1.81,1.81,0,0,0,31.26,21.12Z" fill="#ffe500" stroke="#45413c" stroke-linecap="round" stroke-linejoin="round"></path><path d="M15,20.91a.77.77,0,1,0,.77-.77A.76.76,0,0,0,15,20.91Z" fill="#45413c" stroke="#45413c" stroke-linecap="round" stroke-linejoin="round"></path><path d="M25.83,20.91a.78.78,0,1,1-.78-.77A.77.77,0,0,1,25.83,20.91Z" fill="#45413c" stroke="#45413c" stroke-linecap="round" stroke-linejoin="round"></path><path d="M17.56,25.6a.44.44,0,0,0-.34.16.45.45,0,0,0-.1.35,3.32,3.32,0,0,0,6.55,0,.46.46,0,0,0-.11-.35.42.42,0,0,0-.33-.16Z" fill="#ff6242"></path><path d="M20.39,27a4,4,0,0,0-2.52.77,3.36,3.36,0,0,0,5,0A4,4,0,0,0,20.39,27Z" fill="#ffa694"></path><path d="M17.56,25.6a.44.44,0,0,0-.34.16.45.45,0,0,0-.1.35,3.32,3.32,0,0,0,6.55,0,.46.46,0,0,0-.44-.51Z" fill="none" stroke="#45413c" stroke-linecap="round" stroke-linejoin="round"></path><path d="M13.450 24.190 A1 0.6 0 1 0 15.450 24.190 A1 0.6 0 1 0 13.450 24.190 Z" fill="#ffaa54"></path><path d="M25.330 24.190 A1 0.6 0 1 0 27.330 24.190 A1 0.6 0 1 0 25.330 24.190 Z" fill="#ffaa54"></path></svg>