<svg viewBox="0 0 48 48" xmlns="http://www.w3.org/2000/svg"><path d="M6.380 45.000 A18 1.5 0 1 0 42.380 45.000 A18 1.5 0 1 0 6.380 45.000 Z" fill="#45413c" opacity=".15"></path><path d="M18.950 41.020 A1.89 3.01 0 1 0 22.730 41.020 A1.89 3.01 0 1 0 18.950 41.020 Z" fill="#656769" stroke="#45413c" stroke-linecap="round" stroke-linejoin="round" transform="translate(-20.4 20.63) rotate(-36.75)"></path><path d="M9.15,23.21,6.33,26.1a4,4,0,0,0-.67,4.66l.42.78a1.45,1.45,0,1,0,2.56-1.37L8.55,30a2,2,0,0,1,.33-2.35l2.36-2.42Z" fill="#ffcebf" stroke="#45413c" stroke-linecap="round" stroke-linejoin="round"></path><path d="M18.85,23.21l2.82,2.89a4,4,0,0,1,.67,4.66l-.41.78a1.46,1.46,0,1,1-2.57-1.37l.09-.16a2,2,0,0,0-.33-2.35l-2.35-2.42Z" fill="#ffcebf" stroke="#45413c" stroke-linecap="round" stroke-linejoin="round"></path><path d="M10.42 31.75H13.969999999999999V45H10.42z" fill="#ffcebf" stroke="#45413c" stroke-linecap="round" stroke-linejoin="round"></path><path d="M13.86,45H10.52a.5.5,0,0,1-.49-.6l.05-.21a2.14,2.14,0,0,1,2.11-1.74h0a2.16,2.16,0,0,1,2.12,1.74l0,.21A.5.5,0,0,1,13.86,45Z" fill="#656769" stroke="#45413c" stroke-linecap="round" stroke-linejoin="round"></path><path d="M13.13,32.59a34.91,34.91,0,0,0,3.69,6.21,27,27,0,0,0,2.07,2.54A1.75,1.75,0,0,0,21.44,39c-.52-.56-1.21-1.36-2.07-2.48a21.75,21.75,0,0,1-3.21-6.28Z" fill="#ffcebf" stroke="#45413c" stroke-linecap="round" stroke-linejoin="round"></path><path d="M10.42,28.33v8.85H14v-2a1.24,1.24,0,0,0,.45-.11c.27.48.59,1,.95,1.57l2.87-1.87a8.54,8.54,0,0,1-.66-2.71V28.33a11.69,11.69,0,0,1,1.27-5.12H9.15A11.6,11.6,0,0,1,10.42,28.33Z" fill="#656769"></path><path d="M9.89,25h8.22c.24-.72.52-1.32.74-1.83H9.15C9.36,23.7,9.64,24.3,9.89,25Z" fill="#87898c"></path><path d="M10.42,28.33v8.85H14v-2a1.24,1.24,0,0,0,.45-.11c.27.48.59,1,.95,1.57l2.87-1.87a8.54,8.54,0,0,1-.66-2.71V28.33a11.69,11.69,0,0,1,1.27-5.12H9.15A11.6,11.6,0,0,1,10.42,28.33Z" fill="none" stroke="#45413c" stroke-linecap="round" stroke-linejoin="round"></path><path d="M14,25.71a2.5,2.5,0,0,0,2.5-2.5h-5A2.5,2.5,0,0,0,14,25.71Z" fill="#ffcebf" stroke="#45413c" stroke-linecap="round" stroke-linejoin="round"></path><path d="M9.270 16.630 A4.730 4.730 0 1 0 18.730 16.630 A4.730 4.730 0 1 0 9.270 16.630 Z" fill="#ffcebf" stroke="#45413c" stroke-linecap="round" stroke-linejoin="round"></path><path d="M9.510 10.080 A1.46 4.38 0 1 0 12.430 10.080 A1.46 4.38 0 1 0 9.510 10.080 Z" fill="#656769" transform="translate(-1.53 1.97) rotate(-9.61)"></path><path d="M12.660 10.080 A4.37 1.46 0 1 0 21.400 10.080 A4.37 1.46 0 1 0 12.660 10.080 Z" fill="#656769" transform="translate(4.25 25.19) rotate(-80.39)"></path><path d="M10.24,7.94C11,7.8,12,9.62,12.41,12c.05.27.08.54.11.81a10.28,10.28,0,0,0-.11-3C12,7.46,11,5.64,10.24,5.77s-1,1.73-.82,3.74C9.54,8.61,9.82,8,10.24,7.94Z" fill="#525252"></path><path d="M15.59,12C16,9.62,17,7.8,17.76,7.94c.42.07.7.67.82,1.57.21-2-.12-3.62-.82-3.74S16,7.46,15.59,9.84a10.64,10.64,0,0,0-.11,3C15.51,12.55,15.55,12.28,15.59,12Z" fill="#525252"></path><path d="M9.510 10.080 A1.46 4.38 0 1 0 12.430 10.080 A1.46 4.38 0 1 0 9.510 10.080 Z" fill="none" stroke="#45413c" stroke-linecap="round" stroke-linejoin="round" transform="translate(-1.53 1.97) rotate(-9.61)"></path><path d="M12.660 10.080 A4.37 1.46 0 1 0 21.400 10.080 A4.37 1.46 0 1 0 12.660 10.080 Z" fill="none" stroke="#45413c" stroke-linecap="round" stroke-linejoin="round" transform="translate(4.25 25.19) rotate(-80.39)"></path><path d="M11.500 17.460 A0.660 0.660 0 1 0 12.820 17.460 A0.660 0.660 0 1 0 11.500 17.460 Z" fill="#45413c"></path><path d="M15.180 17.460 A0.660 0.660 0 1 0 16.500 17.460 A0.660 0.660 0 1 0 15.180 17.460 Z" fill="#45413c"></path><path d="M18.43,14.4a4.66,4.66,0,0,1,.06,3.72A7.17,7.17,0,0,1,16.8,15a5.09,5.09,0,0,1-2.8.7,5.09,5.09,0,0,1-2.8-.7,7.19,7.19,0,0,1-1.68,3.16A4.64,4.64,0,0,1,9.36,15C10,13,11.24,11.8,14,11.8c3.24,0,4.2.37,5.22,0A2.84,2.84,0,0,1,18.43,14.4Z" fill="#a86c4d"></path><path d="M9.36,16.54c.61-2,1.88-3.21,4.64-3.21,3.12,0,4.12.34,5.1,0a2.75,2.75,0,0,0,.12-1.57c-1,.37-2,0-5.22,0C11.24,11.8,10,13,9.36,15a4.57,4.57,0,0,0-.13,2.1A3.9,3.9,0,0,1,9.36,16.54Z" fill="#de926a"></path><path d="M18.43,14.4a4.66,4.66,0,0,1,.06,3.72A7.17,7.17,0,0,1,16.8,15a5.09,5.09,0,0,1-2.8.7,5.09,5.09,0,0,1-2.8-.7,7.19,7.19,0,0,1-1.68,3.16A4.64,4.64,0,0,1,9.36,15C10,13,11.24,11.8,14,11.8c3.24,0,4.2.37,5.22,0A2.84,2.84,0,0,1,18.43,14.4Z" fill="none" stroke="#45413c" stroke-linecap="round" stroke-linejoin="round"></path><path d="M38.560 41.040 A1.89 3.01 0 1 0 42.340 41.040 A1.89 3.01 0 1 0 38.560 41.040 Z" fill="#656769" stroke="#45413c" stroke-linecap="round" stroke-linejoin="round" transform="translate(-16.52 32.36) rotate(-36.75)"></path><path d="M28.75,23.23l-2.81,2.89a4,4,0,0,0-.67,4.66l.41.78a1.45,1.45,0,1,0,2.56-1.36L28.16,30a2,2,0,0,1,.32-2.34l2.36-2.42Z" fill="#ffcebf" stroke="#45413c" stroke-linecap="round" stroke-linejoin="round"></path><path d="M38.46,23.23l2.81,2.89A4,4,0,0,1,42,30.78l-.42.78A1.45,1.45,0,1,1,39,30.2l.09-.17a2,2,0,0,0-.33-2.34l-2.36-2.42Z" fill="#ffcebf" stroke="#45413c" stroke-linecap="round" stroke-linejoin="round"></path><path d="M30.02 31.77H33.57V45.019999999999996H30.02z" fill="#ffcebf" stroke="#45413c" stroke-linecap="round" stroke-linejoin="round"></path><path d="M33.47,45H30.13a.5.5,0,0,1-.49-.59l0-.22a2.16,2.16,0,0,1,2.12-1.74h0a2.14,2.14,0,0,1,2.11,1.74l.05.22A.5.5,0,0,1,33.47,45Z" fill="#656769" stroke="#45413c" stroke-linecap="round" stroke-linejoin="round"></path><path d="M32.73,32.61a34.89,34.89,0,0,0,3.7,6.22,28.08,28.08,0,0,0,2.07,2.54A1.75,1.75,0,0,0,41.05,39c-.52-.55-1.21-1.35-2.08-2.47a22,22,0,0,1-3.21-6.29Z" fill="#ffcebf" stroke="#45413c" stroke-linecap="round" stroke-linejoin="round"></path><path d="M30,28.35V37.2h3.55v-2a1.14,1.14,0,0,0,.45-.1L35,36.7l2.87-1.88a8.76,8.76,0,0,1-.65-2.71V28.35a11.63,11.63,0,0,1,1.27-5.12H28.75A11.64,11.64,0,0,1,30,28.35Z" fill="#656769"></path><path d="M29.49,25.06h8.23c.24-.72.52-1.32.74-1.83H28.75A18.06,18.06,0,0,1,29.49,25.06Z" fill="#87898c"></path><path d="M30,28.35V37.2h3.55v-2a1.14,1.14,0,0,0,.45-.1L35,36.7l2.87-1.88a8.76,8.76,0,0,1-.65-2.71V28.35a11.63,11.63,0,0,1,1.27-5.12H28.75A11.64,11.64,0,0,1,30,28.35Z" fill="none" stroke="#45413c" stroke-linecap="round" stroke-linejoin="round"></path><path d="M33.61,25.73a2.5,2.5,0,0,0,2.5-2.5h-5A2.5,2.5,0,0,0,33.61,25.73Z" fill="#ffcebf" stroke="#45413c" stroke-linecap="round" stroke-linejoin="round"></path><path d="M28.880 16.650 A4.730 4.730 0 1 0 38.340 16.650 A4.730 4.730 0 1 0 28.880 16.650 Z" fill="#ffcebf" stroke="#45413c" stroke-linecap="round" stroke-linejoin="round"></path><path d="M29.120 10.110 A1.46 4.38 0 1 0 32.040 10.110 A1.46 4.38 0 1 0 29.120 10.110 Z" fill="#656769" transform="translate(-1.26 5.25) rotate(-9.61)"></path><path d="M32.270 10.110 A4.37 1.46 0 1 0 41.010 10.110 A4.37 1.46 0 1 0 32.270 10.110 Z" fill="#656769" transform="translate(20.55 44.54) rotate(-80.39)"></path><path d="M29.85,8C30.64,7.83,31.61,9.65,32,12c0,.28.08.55.11.81a10.64,10.64,0,0,0-.11-3c-.41-2.38-1.38-4.2-2.17-4.07s-1,1.73-.82,3.75C29.15,8.64,29.43,8,29.85,8Z" fill="#525252"></path><path d="M35.2,12c.4-2.38,1.37-4.2,2.17-4.07.41.07.69.68.81,1.58.21-2-.11-3.63-.81-3.75S35.6,7.48,35.2,9.86a10.28,10.28,0,0,0-.11,3C35.12,12.58,35.15,12.31,35.2,12Z" fill="#525252"></path><path d="M29.120 10.110 A1.46 4.38 0 1 0 32.040 10.110 A1.46 4.38 0 1 0 29.120 10.110 Z" fill="none" stroke="#45413c" stroke-linecap="round" stroke-linejoin="round" transform="translate(-1.26 5.25) rotate(-9.61)"></path><path d="M32.270 10.110 A4.37 1.46 0 1 0 41.010 10.110 A4.37 1.46 0 1 0 32.270 10.110 Z" fill="none" stroke="#45413c" stroke-linecap="round" stroke-linejoin="round" transform="translate(20.55 44.54) rotate(-80.39)"></path><path d="M31.100 17.490 A0.660 0.660 0 1 0 32.420 17.490 A0.660 0.660 0 1 0 31.100 17.490 Z" fill="#45413c"></path><path d="M34.790 17.490 A0.660 0.660 0 1 0 36.110 17.490 A0.660 0.660 0 1 0 34.790 17.490 Z" fill="#45413c"></path><path d="M38,14.43a4.61,4.61,0,0,1,.05,3.71A7.2,7.2,0,0,1,36.41,15a5.13,5.13,0,0,1-2.8.7,5.09,5.09,0,0,1-2.8-.7,7.17,7.17,0,0,1-1.69,3.15A4.63,4.63,0,0,1,29,15c.6-2,1.87-3.21,4.64-3.21,3.24,0,4.19.37,5.21,0A2.83,2.83,0,0,1,38,14.43Z" fill="#a86c4d"></path><path d="M29,16.57c.6-2,1.87-3.21,4.64-3.21,3.11,0,4.11.33,5.09,0a2.72,2.72,0,0,0,.12-1.56c-1,.37-2,0-5.21,0-2.77,0-4,1.23-4.64,3.21a4.53,4.53,0,0,0-.13,2.09A4.09,4.09,0,0,1,29,16.57Z" fill="#de926a"></path><path d="M38,14.43a4.61,4.61,0,0,1,.05,3.71A7.2,7.2,0,0,1,36.41,15a5.13,5.13,0,0,1-2.8.7,5.09,5.09,0,0,1-2.8-.7,7.17,7.17,0,0,1-1.69,3.15A4.63,4.63,0,0,1,29,15c.6-2,1.87-3.21,4.64-3.21,3.24,0,4.19.37,5.21,0A2.83,2.83,0,0,1,38,14.43Z" fill="none" stroke="#45413c" stroke-linecap="round" stroke-linejoin="round"></path></svg>