<svg viewBox="0 0 48 48" xmlns="http://www.w3.org/2000/svg"><path d="M4.000 21.500 A20.000 20.000 0 1 0 44.000 21.500 A20.000 20.000 0 1 0 4.000 21.500 Z" fill="#6dd627"></path><path d="M24,1.5a20,20,0,1,0,20,20A20,20,0,0,0,24,1.5Zm0,37A18.25,18.25,0,1,1,42.25,20.25,18.25,18.25,0,0,1,24,38.5Z" fill="#46b000"></path><path d="M18.000 5.500 A6 1.5 0 1 0 30.000 5.500 A6 1.5 0 1 0 18.000 5.500 Z" fill="#9ceb60"></path><path d="M8.000 45.500 A16 1.5 0 1 0 40.000 45.500 A16 1.5 0 1 0 8.000 45.500 Z" fill="#45413c" opacity=".15"></path><path d="M4.000 21.500 A20.000 20.000 0 1 0 44.000 21.500 A20.000 20.000 0 1 0 4.000 21.500 Z" fill="none" stroke="#45413c" stroke-linecap="round" stroke-linejoin="round"></path><path d="M38.5,27c0,.83-1.12,1.5-2.5,1.5s-2.5-.67-2.5-1.5,1.12-1.5,2.5-1.5S38.5,26.17,38.5,27Z" fill="#46b000"></path><path d="M9.5,27c0,.83,1.12,1.5,2.5,1.5s2.5-.67,2.5-1.5-1.12-1.5-2.5-1.5S9.5,26.17,9.5,27Z" fill="#46b000"></path><path d="M14.5,21.5a1,1,0,1,1-1-1A1,1,0,0,1,14.5,21.5Z" fill="#45413c" stroke="#45413c" stroke-linecap="round" stroke-linejoin="round"></path><path d="M33.5,21.5a1,1,0,1,0,1-1A1,1,0,0,0,33.5,21.5Z" fill="#45413c" stroke="#45413c" stroke-linecap="round" stroke-linejoin="round"></path><path d="M33.5,15s1.58,3.5,5,3.5" fill="none" stroke="#45413c" stroke-linecap="round" stroke-linejoin="round"></path><path d="M14.5,15s-1.58,3.5-5,3.5" fill="none" stroke="#45413c" stroke-linecap="round" stroke-linejoin="round"></path><path d="M18.5 29.02L29.5 29.02" fill="none" stroke="#45413c" stroke-linecap="round" stroke-linejoin="round"></path><path d="M30.54,31.54a3.57,3.57,0,0,1,0-5" fill="none" stroke="#45413c" stroke-linecap="round" stroke-linejoin="round"></path><path d="M17.46,26.5a3.57,3.57,0,0,1,0,5" fill="none" stroke="#45413c" stroke-linecap="round" stroke-linejoin="round"></path></svg>