<svg viewBox="0 0 48 48" xmlns="http://www.w3.org/2000/svg"><path d="M4.000 21.500 A20.000 20.000 0 1 0 44.000 21.500 A20.000 20.000 0 1 0 4.000 21.500 Z" fill="#ffe500"></path><path d="M24,1.5a20,20,0,1,0,20,20A20,20,0,0,0,24,1.5Zm0,37A18.25,18.25,0,1,1,42.25,20.25,18.25,18.25,0,0,1,24,38.5Z" fill="#ebcb00"></path><path d="M18.000 5.500 A6 1.5 0 1 0 30.000 5.500 A6 1.5 0 1 0 18.000 5.500 Z" fill="#fff48c"></path><path d="M8.000 45.500 A16 1.5 0 1 0 40.000 45.500 A16 1.5 0 1 0 8.000 45.500 Z" fill="#45413c" opacity=".15"></path><path d="M4.000 21.500 A20.000 20.000 0 1 0 44.000 21.500 A20.000 20.000 0 1 0 4.000 21.500 Z" fill="none" stroke="#45413c" stroke-linecap="round" stroke-linejoin="round"></path><path d="M16.5,29s2.31,2,7.5,2,7.5-2,7.5-2" fill="none" stroke="#45413c" stroke-linecap="round" stroke-linejoin="round"></path><path d="M20.21,32.34a1.79,1.79,0,0,0,1.48,1.33l1.52.22A.69.69,0,0,0,24,33.2V31a16.81,16.81,0,0,1-4.26-.52Z" fill="#fff" stroke="#45413c" stroke-linecap="round" stroke-linejoin="round"></path><path d="M24,31v2.2a.69.69,0,0,0,.79.69l1.52-.22a1.79,1.79,0,0,0,1.48-1.33l.47-1.86A16.81,16.81,0,0,1,24,31Z" fill="#fff" stroke="#45413c" stroke-linecap="round" stroke-linejoin="round"></path><path d="M7.500 20.000 A7.500 7.500 0 1 0 22.500 20.000 A7.500 7.500 0 1 0 7.500 20.000 Z" fill="#b89558" stroke="#45413c" stroke-linecap="round" stroke-linejoin="round"></path><path d="M9.500 20.000 A5.500 5.500 0 1 0 20.500 20.000 A5.500 5.500 0 1 0 9.500 20.000 Z" fill="#00b8f0"></path><path d="M15,14.5A5.5,5.5,0,0,0,11.19,24L19,16.19A5.47,5.47,0,0,0,15,14.5Z" fill="#4acfff"></path><path d="M9.500 20.000 A5.500 5.500 0 1 0 20.500 20.000 A5.500 5.500 0 1 0 9.500 20.000 Z" fill="none" stroke="#45413c" stroke-linecap="round" stroke-linejoin="round"></path><path d="M25.500 20.000 A7.500 7.500 0 1 0 40.500 20.000 A7.500 7.500 0 1 0 25.500 20.000 Z" fill="#b89558" stroke="#45413c" stroke-linecap="round" stroke-linejoin="round"></path><path d="M27.500 20.000 A5.500 5.500 0 1 0 38.500 20.000 A5.500 5.500 0 1 0 27.500 20.000 Z" fill="#00b8f0"></path><path d="M33,14.5A5.5,5.5,0,0,0,29.19,24L37,16.19A5.47,5.47,0,0,0,33,14.5Z" fill="#4acfff"></path><path d="M27.500 20.000 A5.500 5.500 0 1 0 38.500 20.000 A5.500 5.500 0 1 0 27.500 20.000 Z" fill="none" stroke="#45413c" stroke-linecap="round" stroke-linejoin="round"></path><path d="M40.5 20L45 20" fill="none" stroke="#45413c" stroke-linecap="round" stroke-linejoin="round"></path><path d="M7.5 20L3 20" fill="none" stroke="#45413c" stroke-linecap="round" stroke-linejoin="round"></path><path d="M25.5 20L22.5 20" fill="none" stroke="#45413c" stroke-linecap="round" stroke-linejoin="round"></path><path d="M24,40.61a24.7,24.7,0,0,1,5.53-2.09,1,1,0,0,1,1.2.74,13.8,13.8,0,0,1,0,5.33,1.08,1.08,0,0,1-1.5.82A39.92,39.92,0,0,1,24,42.75Z" fill="#ff6242" stroke="#45413c" stroke-linecap="round" stroke-linejoin="round"></path><path d="M24,40.61a24.7,24.7,0,0,0-5.53-2.09,1,1,0,0,0-1.2.74,13.8,13.8,0,0,0,0,5.33,1.08,1.08,0,0,0,1.5.82A39.92,39.92,0,0,0,24,42.75Z" fill="#ff6242" stroke="#45413c" stroke-linecap="round" stroke-linejoin="round"></path><path d="M20.25 42L27.75 42" fill="none" stroke="#45413c" stroke-linecap="round" stroke-linejoin="round"></path><path d="M23.000 40.000 L25.000 40.000 L25.000 44.000 L23.000 44.000 Z" fill="#ff6242" stroke="#45413c" stroke-linecap="round" stroke-linejoin="round"></path></svg>