<svg viewBox="0 0 48 48" xmlns="http://www.w3.org/2000/svg"><path d="M9.000 45.500 A15 1.5 0 1 0 39.000 45.500 A15 1.5 0 1 0 9.000 45.500 Z" fill="#45413c" opacity=".15"></path><path d="M32.44,20.92a3.77,3.77,0,0,0-3.77,3.77v7H25a5.74,5.74,0,0,0-5.74,5.74h0A1.59,1.59,0,0,0,20.8,39H32.58a9,9,0,0,0,9-8.95h0A9.1,9.1,0,0,0,32.44,20.92Z" fill="#ffe500"></path><path d="M41.53,29.64a9.1,9.1,0,0,0-9.09-8.72,3.77,3.77,0,0,0-3.77,3.77v7H25a5.72,5.72,0,0,0-4.49,2.16A3.64,3.64,0,0,0,24,36.67H33.9A7.66,7.66,0,0,0,41.53,29.64Z" fill="#ebcb00"></path><path d="M32.44,20.92a3.77,3.77,0,0,0-3.77,3.77v7H25a5.74,5.74,0,0,0-5.74,5.74h0A1.59,1.59,0,0,0,20.8,39H32.58a9,9,0,0,0,9-8.95h0A9.1,9.1,0,0,0,32.44,20.92Z" fill="none" stroke="#45413c" stroke-linecap="round" stroke-linejoin="round"></path><path d="M39.14,15.68a4.06,4.06,0,0,0-3.88-4.12,5.13,5.13,0,0,0-3.77,1.65,1,1,0,0,1-1.55-.32,5,5,0,0,0-9.21,0,.91.91,0,0,1-1.43.38,4.9,4.9,0,0,0-4.83-.85,4.29,4.29,0,0,0-3.11,4.42.77.77,0,0,1-1.23.66,3.24,3.24,0,0,0-2-.7,3.42,3.42,0,0,0-3.23,3.43v11a3.37,3.37,0,0,0,3.07,3.42,3.24,3.24,0,0,0,3.42-3.24v-.84A4.52,4.52,0,0,0,16.85,35a4.58,4.58,0,0,0,3.53-4.52v0a5,5,0,0,0,10,0v.09a4.52,4.52,0,0,0,4,4.55,4.38,4.38,0,0,0,4.81-4.36Z" fill="#ffe500"></path><path d="M39.14,15.68a4.06,4.06,0,0,0-3.88-4.12,5.13,5.13,0,0,0-3.77,1.65,1,1,0,0,1-1.55-.32,5,5,0,0,0-9.21,0,.91.91,0,0,1-1.43.38,4.9,4.9,0,0,0-4.83-.85,4.29,4.29,0,0,0-3.11,4.42.77.77,0,0,1-1.23.66,3.24,3.24,0,0,0-2-.7,3.42,3.42,0,0,0-3.23,3.43v3.54A3.41,3.41,0,0,1,8.1,20.39a3.18,3.18,0,0,1,2,.7.77.77,0,0,0,1.23-.67A4.29,4.29,0,0,1,14.47,16a4.87,4.87,0,0,1,4.83.85.91.91,0,0,0,1.43-.38,5,5,0,0,1,9.21-.05,1,1,0,0,0,1.55.32,5.1,5.1,0,0,1,3.77-1.65,4.06,4.06,0,0,1,3.88,4.12Z" fill="#fff48c"></path><path d="M39.14,15.68a4.06,4.06,0,0,0-3.88-4.12,5.13,5.13,0,0,0-3.77,1.65,1,1,0,0,1-1.55-.32,5,5,0,0,0-9.21,0,.91.91,0,0,1-1.43.38,4.9,4.9,0,0,0-4.83-.85,4.29,4.29,0,0,0-3.11,4.42.77.77,0,0,1-1.23.66,3.24,3.24,0,0,0-2-.7,3.42,3.42,0,0,0-3.23,3.43v11a3.37,3.37,0,0,0,3.07,3.42,3.24,3.24,0,0,0,3.42-3.24v-.84A4.52,4.52,0,0,0,16.85,35a4.58,4.58,0,0,0,3.53-4.52v0a5,5,0,0,0,10,0v.09a4.52,4.52,0,0,0,4,4.55,4.38,4.38,0,0,0,4.81-4.36Z" fill="none" stroke="#45413c" stroke-linecap="round" stroke-linejoin="round"></path><path d="M11.36 30.61L11.36 26.16" fill="none" stroke="#45413c" stroke-linecap="round" stroke-linejoin="round"></path><path d="M20.38 30.46L20.38 24.79" fill="none" stroke="#45413c" stroke-linecap="round" stroke-linejoin="round"></path><path d="M30.38 30.46L30.38 22.63" fill="none" stroke="#45413c" stroke-linecap="round" stroke-linejoin="round"></path></svg>