<svg viewBox="0 0 48 48" xmlns="http://www.w3.org/2000/svg"><path d="M4.000 21.500 A20.000 20.000 0 1 0 44.000 21.500 A20.000 20.000 0 1 0 4.000 21.500 Z" fill="#ffe500"></path><path d="M24,1.5a20,20,0,1,0,20,20A20,20,0,0,0,24,1.5Zm0,37A18.25,18.25,0,1,1,42.25,20.25,18.25,18.25,0,0,1,24,38.5Z" fill="#ebcb00"></path><path d="M18.000 5.500 A6 1.5 0 1 0 30.000 5.500 A6 1.5 0 1 0 18.000 5.500 Z" fill="#fff48c"></path><path d="M8.000 45.500 A16 1.5 0 1 0 40.000 45.500 A16 1.5 0 1 0 8.000 45.500 Z" fill="#45413c" opacity=".15"></path><path d="M4.000 21.500 A20.000 20.000 0 1 0 44.000 21.500 A20.000 20.000 0 1 0 4.000 21.500 Z" fill="none" stroke="#45413c" stroke-linecap="round" stroke-linejoin="round"></path><path d="M38.5,24.5c0,.83-1.12,1.5-2.5,1.5s-2.5-.67-2.5-1.5S34.62,23,36,23,38.5,23.67,38.5,24.5Z" fill="#ffaa54"></path><path d="M9.5,24.5c0,.83,1.12,1.5,2.5,1.5s2.5-.67,2.5-1.5S13.38,23,12,23,9.5,23.67,9.5,24.5Z" fill="#ffaa54"></path><path d="M14.5,18.5a1,1,0,1,1-1-1A1,1,0,0,1,14.5,18.5Z" fill="#45413c" stroke="#45413c" stroke-linecap="round" stroke-linejoin="round"></path><path d="M33.5,18.5a1,1,0,1,0,1-1A1,1,0,0,0,33.5,18.5Z" fill="#45413c" stroke="#45413c" stroke-linecap="round" stroke-linejoin="round"></path><path d="M18.5,27A19,19,0,0,0,24,28a19,19,0,0,0,5.5-1" fill="none" stroke="#45413c" stroke-linecap="round" stroke-linejoin="round"></path><path d="M24,22.5a2,2,0,0,0-2,2V36h4V24.5A2,2,0,0,0,24,22.5Z" fill="#ffe500" stroke="#45413c" stroke-linecap="round" stroke-linejoin="round"></path><path d="M20.4,45.5a6,6,0,0,0,3.73-1.32L29.23,40a2,2,0,0,0-1.88-3.52L26,36.92v-3A3.89,3.89,0,0,0,22.11,30H20a2.5,2.5,0,0,0-2.5,2.5,3,3,0,0,0-3,3v4.1A5.9,5.9,0,0,0,20.4,45.5Z" fill="#ffe500"></path><path d="M29.23,38l-5.1,4.15A6,6,0,0,1,20.4,43.5a5.9,5.9,0,0,1-5.9-5.9v2a5.9,5.9,0,0,0,5.9,5.9,6,6,0,0,0,3.73-1.32L29.23,40a2,2,0,0,0,.54-2.49S29.44,37.86,29.23,38Z" fill="#ebcb00"></path><path d="M20.4,45.5a6,6,0,0,0,3.73-1.32L29.23,40a2,2,0,0,0-1.88-3.52L26,36.92v-3A3.89,3.89,0,0,0,22.11,30H20a2.5,2.5,0,0,0-2.5,2.5,3,3,0,0,0-3,3v4.1A5.9,5.9,0,0,0,20.4,45.5Z" fill="none" stroke="#45413c" stroke-linecap="round" stroke-linejoin="round"></path><path d="M18.5,36v3.5a2,2,0,0,0,4,0V37.75" fill="none" stroke="#45413c" stroke-linecap="round" stroke-linejoin="round"></path><path d="M26,33.89v3.86a1.75,1.75,0,0,1-3.5,0V35.53a3,3,0,0,0-3-3h-2" fill="none" stroke="#45413c" stroke-linecap="round" stroke-linejoin="round"></path></svg>