<svg viewBox="0 0 48 48" xmlns="http://www.w3.org/2000/svg"><path d="M31.58,11.1a2.16,2.16,0,0,0-2.71,1.51l.37-1.38A2.39,2.39,0,0,0,27.57,8.3a2.33,2.33,0,0,0-2.88,1.64l-3,10.79a.44.44,0,0,1-.85,0l-2.14-9.13A2.13,2.13,0,0,0,16.17,10a2.11,2.11,0,0,0-1.61,2.41l.56,3.49a2,2,0,0,0-2.51-1.63,2,2,0,0,0-1.36,2.12l1.24,8.86a7.67,7.67,0,0,1,.08,1.17v5.13a9.22,9.22,0,0,0,9.22,9.22,13.72,13.72,0,0,0,10-4.26L39.9,28a.88.88,0,0,0-.07-1.27,4.68,4.68,0,0,0-5.9-.16L30.17,29.4l2.94-15.8A2.2,2.2,0,0,0,31.58,11.1Z" fill="#ffe500"></path><path d="M14.92,14.64a2.36,2.36,0,0,1,4.29-1l-.48-2.06A2.13,2.13,0,0,0,16.17,10a2.11,2.11,0,0,0-1.61,2.41Z" fill="#fff48c"></path><path d="M26.37,10.28a2.68,2.68,0,0,1,2.59,2l.28-1A2.39,2.39,0,0,0,27.57,8.3a2.33,2.33,0,0,0-2.88,1.64l-.35,1.27A2.67,2.67,0,0,1,26.37,10.28Z" fill="#fff48c"></path><path d="M13.68,16.55a2.34,2.34,0,0,1,1.66.68l-.22-1.33a2,2,0,0,0-2.51-1.63,2,2,0,0,0-1.36,2.12L11.48,18A2.36,2.36,0,0,1,13.68,16.55Z" fill="#fff48c"></path><path d="M28.87,12.61l-.26,1a2.69,2.69,0,0,1,4.35.82l.15-.79a2.2,2.2,0,0,0-1.53-2.5A2.16,2.16,0,0,0,28.87,12.61Z" fill="#fff48c"></path><path d="M39.83,26.68a4.68,4.68,0,0,0-5.9-.16L30.17,29.4h-5a4.61,4.61,0,0,0-3.69,1.85l3.95.35a12.12,12.12,0,0,0,8.48-2.45,4.67,4.67,0,0,1,5.17-.35l.8-.85A.88.88,0,0,0,39.83,26.68Z" fill="#fff48c"></path><path d="M31.58,11.1a2.16,2.16,0,0,0-2.71,1.51l.37-1.38A2.39,2.39,0,0,0,27.57,8.3a2.33,2.33,0,0,0-2.88,1.64l-3,10.79a.44.44,0,0,1-.85,0l-2.14-9.13A2.13,2.13,0,0,0,16.17,10a2.11,2.11,0,0,0-1.61,2.41l.56,3.49a2,2,0,0,0-2.51-1.63,2,2,0,0,0-1.36,2.12l1.24,8.86a7.67,7.67,0,0,1,.08,1.17v5.13a9.22,9.22,0,0,0,9.22,9.22,13.72,13.72,0,0,0,10-4.26L39.9,28a.88.88,0,0,0-.07-1.27,4.68,4.68,0,0,0-5.9-.16L30.17,29.4l2.94-15.8A2.2,2.2,0,0,0,31.58,11.1Z" fill="none" stroke="#45413c" stroke-linecap="round" stroke-linejoin="round"></path><path d="M16.39 23.65L15.12 15.9" fill="none" stroke="#45413c" stroke-linecap="round" stroke-linejoin="round"></path><path d="M26.2 22.58L28.87 12.61" fill="none" stroke="#45413c" stroke-linecap="round" stroke-linejoin="round"></path><path d="M30.17,29.4h-5a4.62,4.62,0,0,0-4,2.31" fill="none" stroke="#45413c" stroke-linecap="round" stroke-linejoin="round"></path><path d="M13.000 45.500 A11 1.5 0 1 0 35.000 45.500 A11 1.5 0 1 0 13.000 45.500 Z" fill="#45413c" opacity=".15"></path></svg>