<svg viewBox="0 0 48 48" xmlns="http://www.w3.org/2000/svg"><path d="M7.000 45.500 A17 1.5 0 1 0 41.000 45.500 A17 1.5 0 1 0 7.000 45.500 Z" fill="#45413c" opacity=".15"></path><path d="M30.24,28.83H17.76a8.65,8.65,0,0,0-8,5.72L8.3,38.35C7.1,41.48,9.24,45,12.48,45h23c3.24,0,5.38-3.52,4.18-6.65l-1.47-3.8A8.65,8.65,0,0,0,30.24,28.83Z" fill="#ff6196"></path><path d="M39.7,38.35l-1.47-3.8a8.65,8.65,0,0,0-8-5.72H17.76a8.65,8.65,0,0,0-8,5.72L8.3,38.35A5,5,0,0,0,9.77,44a4.5,4.5,0,0,1,.25-.94l1.3-3.39a7.73,7.73,0,0,1,7.12-5.1H29.56a7.73,7.73,0,0,1,7.12,5.1L38,43.09a4.5,4.5,0,0,1,.25.94A5,5,0,0,0,39.7,38.35Z" fill="#ff87af"></path><path d="M30.24,28.83H17.76a8.65,8.65,0,0,0-8,5.72L8.3,38.35C7.1,41.48,9.24,45,12.48,45h23c3.24,0,5.38-3.52,4.18-6.65l-1.47-3.8A8.65,8.65,0,0,0,30.24,28.83Z" fill="none" stroke="#45413c" stroke-linecap="round" stroke-linejoin="round"></path><path d="M24,43.83A1.18,1.18,0,0,0,25.17,45h5.77V41.59l-2.37-.2a4.17,4.17,0,0,0-2.41.53l-1.56.88A1.18,1.18,0,0,0,24,43.83Z" fill="#ffcebf" stroke="#45413c" stroke-linecap="round" stroke-linejoin="round"></path><path d="M30.94 41.59L33.49 40.23" fill="none" stroke="#45413c" stroke-linecap="round" stroke-linejoin="round"></path><path d="M24,43.83A1.18,1.18,0,0,1,22.83,45H17.06V41.59l2.37-.2a4.17,4.17,0,0,1,2.41.53l1.56.88A1.18,1.18,0,0,1,24,43.83Z" fill="#ffcebf" stroke="#45413c" stroke-linecap="round" stroke-linejoin="round"></path><path d="M17.06 41.59L14.51 40.23" fill="none" stroke="#45413c" stroke-linecap="round" stroke-linejoin="round"></path><path d="M34.88,34.43A1.39,1.39,0,0,1,33,35.72h0a25,25,0,0,0-18,0h0a1.39,1.39,0,0,1-1.89-1.29V24.56a10.88,10.88,0,0,1,21.76,0Z" fill="#a86c4d"></path><path d="M24,13.68A10.88,10.88,0,0,0,13.12,24.56v4.91a10.88,10.88,0,0,1,21.76,0V24.56A10.88,10.88,0,0,0,24,13.68Z" fill="#de926a"></path><path d="M34.88,34.43A1.39,1.39,0,0,1,33,35.72h0a25,25,0,0,0-18,0h0a1.39,1.39,0,0,1-1.89-1.29V24.56a10.88,10.88,0,0,1,21.76,0Z" fill="none" stroke="#45413c" stroke-linecap="round" stroke-linejoin="round"></path><path d="M33.06,26.83a8,8,0,0,1-5.67-2.28l-.62-.73c-4,2.9-5.55,2.51-9.95,2.67l-1.89.34a1.82,1.82,0,0,0,0,3.63h.12a9,9,0,0,0,17.9,0h.11a1.82,1.82,0,1,0,0-3.63Z" fill="#ffcebf" stroke="#45413c" stroke-linecap="round" stroke-linejoin="round"></path><path d="M18.57,31.23a.77.77,0,1,0,.77-.77A.77.77,0,0,0,18.57,31.23Z" fill="#45413c" stroke="#45413c" stroke-linecap="round" stroke-linejoin="round"></path><path d="M29.43,31.23a.77.77,0,1,1-.77-.77A.77.77,0,0,1,29.43,31.23Z" fill="#45413c" stroke="#45413c" stroke-linecap="round" stroke-linejoin="round"></path><path d="M17.060 33.720 A1 0.6 0 1 0 19.060 33.720 A1 0.6 0 1 0 17.060 33.720 Z" fill="#ffb59e"></path><path d="M28.940 33.720 A1 0.6 0 1 0 30.940 33.720 A1 0.6 0 1 0 28.940 33.720 Z" fill="#ffb59e"></path><path d="M22.8 35.48L25.2 35.48" fill="none" stroke="#45413c" stroke-linecap="round" stroke-linejoin="round"></path><path d="M27.89,9.6l2-3.07a.51.51,0,0,0-.29-.76l-2.23-.58a.51.51,0,0,0-.63.52L27,9.36A.5.5,0,0,0,27.89,9.6Z" fill="#ffe500" stroke="#45413c" stroke-linecap="round" stroke-linejoin="round"></path><path d="M34.46,12.46l2.86-2.27a.5.5,0,0,0,0-.81L35.36,8.11a.51.51,0,0,0-.76.29l-.94,3.54A.5.5,0,0,0,34.46,12.46Z" fill="#ffe500" stroke="#45413c" stroke-linecap="round" stroke-linejoin="round"></path><path d="M20.11,9.6l-2-3.07a.5.5,0,0,1,.29-.76l2.23-.58a.51.51,0,0,1,.63.52L21,9.36A.5.5,0,0,1,20.11,9.6Z" fill="#ffe500" stroke="#45413c" stroke-linecap="round" stroke-linejoin="round"></path><path d="M13.54,12.46l-2.86-2.27a.5.5,0,0,1,0-.81l1.92-1.27a.51.51,0,0,1,.76.29l.94,3.54A.5.5,0,0,1,13.54,12.46Z" fill="#ffe500" stroke="#45413c" stroke-linecap="round" stroke-linejoin="round"></path></svg>