<svg viewBox="0 0 48 48" xmlns="http://www.w3.org/2000/svg"><path d="M24,6.32A10.88,10.88,0,0,1,34.88,17.19V31.38a1.24,1.24,0,0,1-.77,1.14h0a27.09,27.09,0,0,1-20.22,0h0a1.24,1.24,0,0,1-.77-1.14V17.19A10.88,10.88,0,0,1,24,6.32Z" fill="#724f3d" stroke="#45413c" stroke-linecap="round" stroke-linejoin="round"></path><path d="M10.500 45.510 A13.5 1.5 0 1 0 37.500 45.510 A13.5 1.5 0 1 0 10.500 45.510 Z" fill="#45413c" opacity=".15"></path><path d="M24,31.22h0A11.88,11.88,0,0,1,35.88,43.1V45a0,0,0,0,1,0,0H12.12a0,0,0,0,1,0,0V43.1A11.88,11.88,0,0,1,24,31.22Z" fill="#fff"></path><path d="M24,31.22h0A11.88,11.88,0,0,0,12.12,43.1V45h.1A11.88,11.88,0,0,1,24,34.62h0A11.88,11.88,0,0,1,35.78,45h.1V43.1A11.88,11.88,0,0,0,24,31.22Z" fill="#f0f0f0"></path><path d="M24,31.22h0A11.88,11.88,0,0,1,35.88,43.1V45a0,0,0,0,1,0,0H12.12a0,0,0,0,1,0,0V43.1A11.88,11.88,0,0,1,24,31.22Z" fill="none" stroke="#45413c" stroke-linecap="round" stroke-linejoin="round"></path><path d="M24,27.18a2.54,2.54,0,0,0-2.54,2.54v2.85a2.54,2.54,0,1,0,5.08,0V29.72A2.54,2.54,0,0,0,24,27.18Z" fill="#ebcb00" stroke="#45413c" stroke-linecap="round" stroke-linejoin="round"></path><path d="M17.06 45L17.06 42.59" fill="none" stroke="#45413c" stroke-linecap="round" stroke-linejoin="round"></path><path d="M30.94 45L30.94 42.59" fill="none" stroke="#45413c" stroke-linecap="round" stroke-linejoin="round"></path><path d="M21.46,31.22c0,1.1.73,2,2.54,2s2.54-.89,2.54-2a2.77,2.77,0,0,1,.74,1.91c0,1.27-1.47,2-3.28,2s-3.28-.77-3.28-2A2.71,2.71,0,0,1,21.46,31.22Z" fill="#00dfeb" stroke="#45413c" stroke-linecap="round" stroke-linejoin="round"></path><path d="M24,35.12h2.78a1.5,1.5,0,0,1,1.51,1.5V45" fill="#fff" stroke="#45413c" stroke-linecap="round" stroke-linejoin="round"></path><path d="M24 35.12L24 33.21" fill="none" stroke="#45413c" stroke-linecap="round" stroke-linejoin="round"></path><path d="M21.84,37.4a.75.75,0,1,0,0,1.5.75.75,0,0,0,0-1.5Z" fill="#45413c"></path><path d="M26.15,37.4a.75.75,0,1,0,.75.75.75.75,0,0,0-.75-.75Z" fill="#45413c"></path><path d="M21.84,40.81a.75.75,0,1,0,.75.75.75.75,0,0,0-.75-.75Z" fill="#45413c"></path><path d="M26.15,40.81a.75.75,0,0,0,0,1.5.75.75,0,1,0,0-1.5Z" fill="#45413c"></path><path d="M33.07,19.47a8.77,8.77,0,0,1-5.68-5L26.77,13a15.92,15.92,0,0,1-9.95,6.18l-1.89.34a1.81,1.81,0,0,0,0,3.62h.12a9,9,0,0,0,17.9,0h.12a1.81,1.81,0,1,0,0-3.62Z" fill="#ffe500" stroke="#45413c" stroke-linecap="round" stroke-linejoin="round"></path><path d="M18.57,20.91a.77.77,0,1,0,.77-.77A.76.76,0,0,0,18.57,20.91Z" fill="#45413c" stroke="#45413c" stroke-linecap="round" stroke-linejoin="round"></path><path d="M29.43,20.91a.77.77,0,1,1-.77-.77A.76.76,0,0,1,29.43,20.91Z" fill="#45413c" stroke="#45413c" stroke-linecap="round" stroke-linejoin="round"></path><path d="M21.16,25.6a.44.44,0,0,0-.33.16.42.42,0,0,0-.1.35,3.32,3.32,0,0,0,6.54,0,.42.42,0,0,0-.1-.35.42.42,0,0,0-.33-.16Z" fill="#ff6242"></path><path d="M24,27a4,4,0,0,0-2.52.77,3.36,3.36,0,0,0,5,0A4,4,0,0,0,24,27Z" fill="#ffa694"></path><path d="M21.16,25.6a.44.44,0,0,0-.33.16.42.42,0,0,0-.1.35,3.32,3.32,0,0,0,6.54,0,.42.42,0,0,0-.1-.35.42.42,0,0,0-.33-.16Z" fill="none" stroke="#45413c" stroke-linecap="round" stroke-linejoin="round"></path><path d="M17.060 24.190 A1 0.6 0 1 0 19.060 24.190 A1 0.6 0 1 0 17.060 24.190 Z" fill="#ffaa54"></path><path d="M28.940 24.190 A1 0.6 0 1 0 30.940 24.190 A1 0.6 0 1 0 28.940 24.190 Z" fill="#ffaa54"></path><path d="M29.94,5.21A7.47,7.47,0,0,0,24,2.58a7.47,7.47,0,0,0-5.94,2.63c-2.62-1.27-7.18.3-7.18,4.54,0,3.95,2.79,4.83,2.79,4.83H34.33s2.79-.88,2.79-4.83C37.12,5.51,32.56,3.94,29.94,5.21Z" fill="#f0f0f0"></path><path d="M18.06,9.92A7.47,7.47,0,0,1,24,7.29a7.47,7.47,0,0,1,5.94,2.63,5.29,5.29,0,0,1,6.71,2.35,6.32,6.32,0,0,0,.47-2.52c0-4.24-4.56-5.81-7.18-4.54A7.47,7.47,0,0,0,24,2.58a7.47,7.47,0,0,0-5.94,2.63c-2.62-1.27-7.18.3-7.18,4.54a6.32,6.32,0,0,0,.47,2.52A5.29,5.29,0,0,1,18.06,9.92Z" fill="#fff"></path><path d="M29.94,5.21A7.47,7.47,0,0,0,24,2.58a7.47,7.47,0,0,0-5.94,2.63c-2.62-1.27-7.18.3-7.18,4.54,0,3.95,2.79,4.83,2.79,4.83H34.33s2.79-.88,2.79-4.83C37.12,5.51,32.56,3.94,29.94,5.21Z" fill="none" stroke="#45413c" stroke-linecap="round" stroke-linejoin="round"></path><path d="M30,9.08c0,2.67-2.69,4.83-6,4.83s-6-2.16-6-4.83" fill="none" stroke="#45413c" stroke-linecap="round" stroke-linejoin="round"></path><path d="M24,12.83c-5.71,0-10.88.78-10.88,1.75v2.79c0-1,5.17-1.75,10.88-1.75s10.88.79,10.88,1.75V14.58C34.88,13.61,29.71,12.83,24,12.83Z" fill="#f0f0f0" stroke="#45413c" stroke-linecap="round" stroke-linejoin="round"></path></svg>