<svg viewBox="0 0 48 48" xmlns="http://www.w3.org/2000/svg"><path d="M24,6.31A10.88,10.88,0,0,1,34.88,17.19V31.38a1.24,1.24,0,0,1-.77,1.14h0a27.18,27.18,0,0,1-20.22,0h0a1.24,1.24,0,0,1-.77-1.14V17.19A10.88,10.88,0,0,1,24,6.31Z" fill="#724f3d"></path><path d="M24,6.31A10.88,10.88,0,0,0,13.12,17.19v3a10.88,10.88,0,0,1,21.76,0v-3A10.88,10.88,0,0,0,24,6.31Z" fill="#a86c4d"></path><path d="M24,6.31A10.88,10.88,0,0,1,34.88,17.19V31.38a1.24,1.24,0,0,1-.77,1.14h0a27.18,27.18,0,0,1-20.22,0h0a1.24,1.24,0,0,1-.77-1.14V17.19A10.88,10.88,0,0,1,24,6.31Z" fill="none" stroke="#45413c" stroke-linecap="round" stroke-linejoin="round"></path><path d="M10.480 45.500 A13.5 1.5 0 1 0 37.480 45.500 A13.5 1.5 0 1 0 10.480 45.500 Z" fill="#45413c" opacity=".15"></path><path d="M31.54,32.84,24,30l-7.54,2.87a6.76,6.76,0,0,0-4.35,6.31V45H35.89V39.15A6.76,6.76,0,0,0,31.54,32.84Z" fill="#4acfff"></path><path d="M31.54,32.84,24,30l-7.54,2.87a6.76,6.76,0,0,0-4.35,6.31v3a6.76,6.76,0,0,1,4.35-6.31L24,33l7.54,2.87a6.76,6.76,0,0,1,4.35,6.31v-3A6.76,6.76,0,0,0,31.54,32.84Z" fill="#00b8f0"></path><path d="M31.54,32.84,24,30l-7.54,2.87a6.76,6.76,0,0,0-4.35,6.31V45H35.89V39.15A6.76,6.76,0,0,0,31.54,32.84Z" fill="none" stroke="#45413c" stroke-linecap="round" stroke-linejoin="round"></path><path d="M17.43 32.47L15.53 36.84 17.96 37.78 16.46 39.09 18.96 45 21.28 45 18.63 32.01 17.43 32.47z" fill="#009fd9" stroke="#45413c" stroke-linecap="round" stroke-linejoin="round"></path><path d="M24 29.97L18.63 32.01 21.28 45 26.72 45 29.37 32.01 24 29.97z" fill="#fff" stroke="#45413c" stroke-linecap="round" stroke-linejoin="round"></path><path d="M17.43 32.47L15.53 36.84 17.96 37.78 16.46 39.09 18.96 45 21.74 45 20.4 31.34 17.43 32.47z" fill="#009fd9" stroke="#45413c" stroke-linecap="round" stroke-linejoin="round"></path><path d="M30.57 32.47L32.47 36.84 30.04 37.78 31.54 39.09 29.04 45 26.26 45 27.6 31.34 30.57 32.47z" fill="#009fd9" stroke="#45413c" stroke-linecap="round" stroke-linejoin="round"></path><path d="M24,30S19,30,19,32.82a9.94,9.94,0,0,0,2.16,5.77L24,36.16l2.89,2.43a9.94,9.94,0,0,0,2.16-5.77C29.05,30,24,30,24,30Z" fill="#f0f0f0" stroke="#45413c" stroke-linecap="round" stroke-linejoin="round"></path><path d="M24,27.17a2.54,2.54,0,0,0-2.54,2.55v2.85c0,1.4,2.54,3.59,2.54,3.59s2.54-2.19,2.54-3.59V29.72A2.54,2.54,0,0,0,24,27.17Z" fill="#ffe500"></path><path d="M24,27.17a2.54,2.54,0,0,0-2.54,2.54v.6a2.54,2.54,0,0,0,5.08,0v-.59A2.54,2.54,0,0,0,24,27.17Z" fill="#ebcb00"></path><path d="M24,27.17a2.54,2.54,0,0,0-2.54,2.55v2.85c0,1.4,2.54,3.59,2.54,3.59s2.54-2.19,2.54-3.59V29.72A2.54,2.54,0,0,0,24,27.17Z" fill="none" stroke="#45413c" stroke-linecap="round" stroke-linejoin="round"></path><path d="M33.07,19.46a8.72,8.72,0,0,1-5.68-5L26.77,13a15.9,15.9,0,0,1-9.95,6.17l-1.89.34a1.82,1.82,0,0,0,0,3.63h.12a9,9,0,0,0,17.9,0h.12a1.82,1.82,0,0,0,0-3.63Z" fill="#ffe500" stroke="#45413c" stroke-linecap="round" stroke-linejoin="round"></path><path d="M18.57,20.91a.77.77,0,0,0,1.54,0,.77.77,0,1,0-1.54,0Z" fill="#45413c" stroke="#45413c" stroke-linecap="round" stroke-linejoin="round"></path><path d="M29.43,20.91a.77.77,0,0,1-1.54,0,.77.77,0,1,1,1.54,0Z" fill="#45413c" stroke="#45413c" stroke-linecap="round" stroke-linejoin="round"></path><path d="M21.16,25.6a.46.46,0,0,0-.33.15.43.43,0,0,0-.1.36,3.32,3.32,0,0,0,6.54,0,.43.43,0,0,0-.1-.36.45.45,0,0,0-.33-.15Z" fill="#ff6242"></path><path d="M24,27a4.11,4.11,0,0,0-2.52.77,3.34,3.34,0,0,0,5,0A4.11,4.11,0,0,0,24,27Z" fill="#ffa694"></path><path d="M21.16,25.6a.46.46,0,0,0-.33.15.43.43,0,0,0-.1.36,3.32,3.32,0,0,0,6.54,0,.43.43,0,0,0-.1-.36.45.45,0,0,0-.33-.15Z" fill="none" stroke="#45413c" stroke-linecap="round" stroke-linejoin="round"></path><path d="M17.060 24.190 A1 0.6 0 1 0 19.060 24.190 A1 0.6 0 1 0 17.060 24.190 Z" fill="#ffaa54"></path><path d="M28.940 24.190 A1 0.6 0 1 0 30.940 24.190 A1 0.6 0 1 0 28.940 24.190 Z" fill="#ffaa54"></path></svg>