<svg viewBox="0 0 48 48" xmlns="http://www.w3.org/2000/svg"><path d="M17.38,7.24c5.54,0,10,4.87,10,10.88V32.31a1.24,1.24,0,0,1-.71,1.14h0a23.27,23.27,0,0,1-18.65,0h0a1.24,1.24,0,0,1-.71-1.14V18.12C7.34,12.11,11.84,7.24,17.38,7.24Z" fill="#724f3d" stroke="#45413c" stroke-linecap="round" stroke-linejoin="round"></path><path d="M3.000 45.500 A16.5 1.5 0 1 0 36.000 45.500 A16.5 1.5 0 1 0 3.000 45.500 Z" fill="#45413c" opacity=".15"></path><path d="M17.38,31.22h0A11.88,11.88,0,0,1,29.26,43.1V45a0,0,0,0,1,0,0H5.5a0,0,0,0,1,0,0V43.1A11.88,11.88,0,0,1,17.38,31.22Z" fill="#ff6242"></path><path d="M17.38,31.22A11.88,11.88,0,0,0,5.5,43.1V45h.11a11.86,11.86,0,0,1,23.54,0h.11V43.1A11.88,11.88,0,0,0,17.38,31.22Z" fill="#e04122"></path><path d="M17.38,31.22h0A11.88,11.88,0,0,1,29.26,43.1V45a0,0,0,0,1,0,0H5.5a0,0,0,0,1,0,0V43.1A11.88,11.88,0,0,1,17.38,31.22Z" fill="none" stroke="#45413c" stroke-linecap="round" stroke-linejoin="round"></path><path d="M17.38,27.17a2.55,2.55,0,0,0-2.55,2.55v2.85a2.55,2.55,0,0,0,5.09,0V29.72A2.55,2.55,0,0,0,17.38,27.17Z" fill="#ebcb00" stroke="#45413c" stroke-linecap="round" stroke-linejoin="round"></path><path d="M14.83,31.21c0,1.1.74,2,2.55,2s2.54-.89,2.54-2a2.77,2.77,0,0,1,.74,1.91c0,1.28-1.47,2-3.28,2s-3.28-.76-3.28-2A2.76,2.76,0,0,1,14.83,31.21Z" fill="#ebcb00" stroke="#45413c" stroke-linecap="round" stroke-linejoin="round"></path><path d="M17.38 35.11L17.38 33.2" fill="none" stroke="#45413c" stroke-linecap="round" stroke-linejoin="round"></path><path d="M26.44,19.47a8.77,8.77,0,0,1-5.67-5L20.15,13a15.92,15.92,0,0,1-9.95,6.18l-1.89.34a1.81,1.81,0,0,0,0,3.62h.11a9.05,9.05,0,0,0,17.91,0h.11a1.81,1.81,0,1,0,0-3.62Z" fill="#ffe500" stroke="#45413c" stroke-linecap="round" stroke-linejoin="round"></path><path d="M11.94,20.91a.78.78,0,1,0,.78-.77A.77.77,0,0,0,11.94,20.91Z" fill="#45413c" stroke="#45413c" stroke-linecap="round" stroke-linejoin="round"></path><path d="M22.81,20.91a.77.77,0,1,1-.77-.77A.76.76,0,0,1,22.81,20.91Z" fill="#45413c" stroke="#45413c" stroke-linecap="round" stroke-linejoin="round"></path><path d="M14.54,25.6a.42.42,0,0,0-.33.16.46.46,0,0,0-.11.35,3.32,3.32,0,0,0,6.55,0,.45.45,0,0,0-.1-.35.44.44,0,0,0-.34-.16Z" fill="#ff6242"></path><path d="M17.38,27a4,4,0,0,0-2.52.77,3.36,3.36,0,0,0,5,0A4,4,0,0,0,17.38,27Z" fill="#ffa694"></path><path d="M14.54,25.6a.42.42,0,0,0-.33.16.46.46,0,0,0-.11.35,3.32,3.32,0,0,0,6.55,0,.45.45,0,0,0-.1-.35.44.44,0,0,0-.34-.16Z" fill="none" stroke="#45413c" stroke-linecap="round" stroke-linejoin="round"></path><path d="M10.440 24.190 A1 0.6 0 1 0 12.440 24.190 A1 0.6 0 1 0 10.440 24.190 Z" fill="#ffaa54"></path><path d="M22.320 24.190 A1 0.6 0 1 0 24.320 24.190 A1 0.6 0 1 0 22.320 24.190 Z" fill="#ffaa54"></path><path d="M10.44 41.07H24.32V42.99H10.44z" fill="#ffe500" stroke="#45413c" stroke-linecap="round" stroke-linejoin="round"></path><path d="M11.74,11.55a22.23,22.23,0,0,1,11.28,0,7.83,7.83,0,0,1,4.39,3,10,10,0,0,0-20.07,0A7.88,7.88,0,0,1,11.74,11.55Z" fill="#ff6242"></path><path d="M17.38,7.24a10,10,0,0,1,9.41,6.56,6.43,6.43,0,0,1,.62.76,10,10,0,0,0-20.07,0A7.6,7.6,0,0,1,8,13.8,10,10,0,0,1,17.38,7.24Z" fill="#ff866e"></path><path d="M11.74,11.55a22.23,22.23,0,0,1,11.28,0,7.83,7.83,0,0,1,4.39,3,10,10,0,0,0-20.07,0A7.88,7.88,0,0,1,11.74,11.55Z" fill="none" stroke="#45413c" stroke-linecap="round" stroke-linejoin="round"></path><path d="M19.39,4.24a1,1,0,0,0-.94-1c-.72,0-1.42,0-2.15,0a1,1,0,0,0-.94,1V10.6h4Z" fill="#ff6242"></path><path d="M18.45,3.24c-.72,0-1.42,0-2.15,0a1,1,0,0,0-.94,1V5.91a1,1,0,0,1,.94-1c.73,0,1.43,0,2.15,0a1,1,0,0,1,.94,1V4.24A1,1,0,0,0,18.45,3.24Z" fill="#ff866e"></path><path d="M19.39,4.24a1,1,0,0,0-.94-1c-.72,0-1.42,0-2.15,0a1,1,0,0,0-.94,1V10.6h4Z" fill="none" stroke="#45413c" stroke-linecap="round" stroke-linejoin="round"></path><path d="M17.38 45L17.38 35.11" fill="none" stroke="#45413c" stroke-linecap="round" stroke-linejoin="round"></path><path d="M10.44 45L10.44 39.78" fill="none" stroke="#45413c" stroke-linecap="round" stroke-linejoin="round"></path><path d="M24.32 45L24.32 39.78" fill="none" stroke="#45413c" stroke-linecap="round" stroke-linejoin="round"></path><path d="M15.16,6.18h4.43a.22.22,0,0,1,.22.22V8.93a2.43,2.43,0,0,1-2.43,2.43h0a2.43,2.43,0,0,1-2.43-2.43V6.4a.22.22,0,0,1,.22-.22Z" fill="#ffe500" stroke="#45413c" stroke-linecap="round" stroke-linejoin="round"></path><path d="M29.5,25.88l-.63-7.39A7.87,7.87,0,0,0,23,11.55a22.23,22.23,0,0,0-11.28,0,7.86,7.86,0,0,0-5.85,6.94l-.64,7.39a5.59,5.59,0,0,0,2.09,4.83v-5c0-.2,0-.4,0-.61l.53-6a6.44,6.44,0,0,1,4.84-5.67,18.62,18.62,0,0,1,9.32,0,6.47,6.47,0,0,1,4.84,5.67l.52,6a4.16,4.16,0,0,1,0,.61v5A5.54,5.54,0,0,0,29.5,25.88Z" fill="#ff6242" stroke="#45413c" stroke-linecap="round" stroke-linejoin="round"></path><path d="M32.93,23.05h0a1.54,1.54,0,0,1,1.54,1.54v6.73a0,0,0,0,1,0,0h0A2.34,2.34,0,0,1,32.13,29V23.85a.79.79,0,0,1,.79-.79Z" fill="#ffe500" transform="translate(4.55 -4.78) rotate(8.8)"></path><path d="M33.57,23a.8.8,0,0,0-.91.67l-.3,1.89a.8.8,0,0,1,.91-.66,1.55,1.55,0,0,1,1.29,1.76l.29-1.9A1.54,1.54,0,0,0,33.57,23Z" fill="#fff48c"></path><path d="M32.93,23.05h0a1.54,1.54,0,0,1,1.54,1.54v6.73a0,0,0,0,1,0,0h0A2.34,2.34,0,0,1,32.13,29V23.85a.79.79,0,0,1,.79-.79Z" fill="none" stroke="#45413c" stroke-linecap="round" stroke-linejoin="round" transform="translate(4.55 -4.78) rotate(8.8)"></path><path d="M37.02 35.32L31.32 33.45 37.44 19.65 40.29 20.59 37.02 35.32z" fill="#c0dceb"></path><path d="M39.16 20.21L37.44 19.65 31.32 33.45 33.05 34.01 39.16 20.21z" fill="#daedf7"></path><path d="M37.02 35.32L31.32 33.45 37.44 19.65 40.29 20.59 37.02 35.32z" fill="none" stroke="#45413c" stroke-linecap="round" stroke-linejoin="round"></path><path d="M37.110 18.180 L41.240 18.180 L41.240 20.170 L37.110 20.170 Z" fill="#c0dceb" transform="translate(7.94 -11.27) rotate(18.19)"></path><path d="M38.63,19a1.07,1.07,0,0,1,.92-.74l-1.09-.35a1,1,0,1,0-.62,1.88l1.11.37A1.09,1.09,0,0,1,38.63,19Z" fill="#daedf7"></path><path d="M37.110 18.180 L41.240 18.180 L41.240 20.170 L37.110 20.170 Z" fill="none" stroke="#45413c" stroke-linecap="round" stroke-linejoin="round" transform="translate(7.94 -11.27) rotate(18.19)"></path><path d="M29.370 34.330 L38.370 34.330 L38.370 36.300 L29.370 36.300 Z" fill="#c0dceb" transform="translate(12.72 -8.81) rotate(18.19)"></path><path d="M31.84,33.61l-1-.33a1,1,0,0,0-.61,1.88l1,.33A2.66,2.66,0,0,1,31.84,33.61Z" fill="#daedf7"></path><path d="M29.370 34.330 L38.370 34.330 L38.370 36.300 L29.370 36.300 Z" fill="none" stroke="#45413c" stroke-linecap="round" stroke-linejoin="round" transform="translate(12.72 -8.81) rotate(18.19)"></path><path d="M31.09,35.44h0a22.57,22.57,0,0,0-2,9.56h4.82a17.79,17.79,0,0,1,1.93-8Z" fill="#656769"></path><path d="M30.18,37.76l4.66,1.54a23.58,23.58,0,0,1,1-2.31l-4.71-1.55A21.41,21.41,0,0,0,30.18,37.76Z" fill="#525252"></path><path d="M31.09,35.44h0a22.57,22.57,0,0,0-2,9.56h4.82a17.79,17.79,0,0,1,1.93-8Z" fill="none" stroke="#45413c" stroke-linecap="round" stroke-linejoin="round"></path><path d="M36.820 26.090 L41.150 26.090 L41.150 28.400 L36.820 28.400 Z" fill="#ffe500" transform="translate(7.58 -8.47) rotate(13.73)"></path><path d="M38,27l2,.48a1.13,1.13,0,0,1,.81.79,1.1,1.1,0,0,0,.31-.52,1.16,1.16,0,0,0-.84-1.39l-2-.48a1.16,1.16,0,0,0-1.4.85,1.11,1.11,0,0,0,0,.6A1.13,1.13,0,0,1,38,27Z" fill="#fff48c"></path><path d="M36.820 26.090 L41.150 26.090 L41.150 28.400 L36.820 28.400 Z" fill="none" stroke="#45413c" stroke-linecap="round" stroke-linejoin="round" transform="translate(7.58 -8.47) rotate(13.73)"></path><path d="M36.270 28.330 L40.600 28.330 L40.600 30.640 L36.270 30.640 Z" fill="#ffe500" stroke="#45413c" stroke-linecap="round" stroke-linejoin="round" transform="translate(8.09 -8.28) rotate(13.73)"></path><path d="M35.730 30.570 L40.060 30.570 L40.060 32.880 L35.730 32.880 Z" fill="#ffe500" stroke="#45413c" stroke-linecap="round" stroke-linejoin="round" transform="translate(8.61 -8.08) rotate(13.73)"></path><path d="M40.7,12.27a5.1,5.1,0,0,0-1.13-3.64c-1.34-1.35-2-3.4-.61-4.51s3.53-.32,3.44,3A8.81,8.81,0,0,1,40.7,12.27Z" fill="#00b8f0"></path><path d="M39,6.12c1.25-1,3-.49,3.37,1.81,0-.27.06-.54.07-.84.09-3.29-2-4.08-3.44-3a2.21,2.21,0,0,0-.57,2.71A2,2,0,0,1,39,6.12Z" fill="#4acfff"></path><path d="M40.7,12.27a5.1,5.1,0,0,0-1.13-3.64c-1.34-1.35-2-3.4-.61-4.51s3.53-.32,3.44,3A8.81,8.81,0,0,1,40.7,12.27Z" fill="none" stroke="#45413c" stroke-linecap="round" stroke-linejoin="round"></path><path d="M40.58,16.52a3.79,3.79,0,0,1,2.67-1c1.42.16,3-.37,3-1.73s-1.45-2.24-3.35-.66A6.55,6.55,0,0,0,40.58,16.52Z" fill="#00b8f0"></path><path d="M42.85,14.44c1.55-1.29,2.79-.94,3.21,0a1.63,1.63,0,0,0,.14-.64c0-1.36-1.45-2.24-3.35-.66a6.55,6.55,0,0,0-2.27,3.41,4.93,4.93,0,0,1,1-.65A7.14,7.14,0,0,1,42.85,14.44Z" fill="#4acfff"></path><path d="M40.58,16.52a3.79,3.79,0,0,1,2.67-1c1.42.16,3-.37,3-1.73s-1.45-2.24-3.35-.66A6.55,6.55,0,0,0,40.58,16.52Z" fill="none" stroke="#45413c" stroke-linecap="round" stroke-linejoin="round"></path></svg>