<svg viewBox="0 0 48 48" xmlns="http://www.w3.org/2000/svg"><path d="M11.500 44.500 A12.5 1.5 0 1 0 36.500 44.500 A12.5 1.5 0 1 0 11.500 44.500 Z" fill="#45413c" opacity=".15"></path><path d="M24,1.5A16.16,16.16,0,0,1,40.16,17.66V38.74A1.81,1.81,0,0,1,39,40.43h0a40.31,40.31,0,0,1-30,0H9a1.81,1.81,0,0,1-1.14-1.69V17.66A16.16,16.16,0,0,1,24,1.5Z" fill="#724f3d"></path><path d="M24,1.5A16.16,16.16,0,0,0,7.84,17.66v4.47a16.16,16.16,0,0,1,32.32,0V17.66A16.16,16.16,0,0,0,24,1.5Z" fill="#a86c4d"></path><path d="M24,1.5A16.16,16.16,0,0,1,40.16,17.66V38.74A1.81,1.81,0,0,1,39,40.43h0a40.31,40.31,0,0,1-30,0H9a1.81,1.81,0,0,1-1.14-1.69V17.66A16.16,16.16,0,0,1,24,1.5Z" fill="none" stroke="#45413c" stroke-linecap="round" stroke-linejoin="round"></path><path d="M37.47,21A13,13,0,0,1,29,13.57l-.93-2.21a23.56,23.56,0,0,1-14.78,9.17l-2.8.51a2.7,2.7,0,0,0,0,5.39l.17,0a13.45,13.45,0,0,0,26.6,0l.17,0a2.7,2.7,0,0,0,0-5.39Z" fill="#ffe500" stroke="#45413c" stroke-linecap="round" stroke-linejoin="round"></path><path d="M15.93,23.18A1.15,1.15,0,1,0,17.07,22,1.14,1.14,0,0,0,15.93,23.18Z" fill="#45413c" stroke="#45413c" stroke-linecap="round" stroke-linejoin="round"></path><path d="M32.07,23.18A1.15,1.15,0,1,1,30.93,22,1.14,1.14,0,0,1,32.07,23.18Z" fill="#45413c" stroke="#45413c" stroke-linecap="round" stroke-linejoin="round"></path><path d="M20.31,30.47a.57.57,0,0,0-.44.2.54.54,0,0,0-.13.46,4.32,4.32,0,0,0,8.52,0,.54.54,0,0,0-.13-.46.57.57,0,0,0-.44-.2Z" fill="#ff6242"></path><path d="M24,32.24a5.37,5.37,0,0,0-3.29,1,4.36,4.36,0,0,0,6.58,0A5.37,5.37,0,0,0,24,32.24Z" fill="#ffa694"></path><path d="M20.31,30.47a.57.57,0,0,0-.44.2.54.54,0,0,0-.13.46,4.32,4.32,0,0,0,8.52,0,.54.54,0,0,0-.13-.46.57.57,0,0,0-.44-.2Z" fill="none" stroke="#45413c" stroke-linecap="round" stroke-linejoin="round"></path><path d="M13.690 28.060 A1.49 0.89 0 1 0 16.670 28.060 A1.49 0.89 0 1 0 13.690 28.060 Z" fill="#ffaa54"></path><path d="M31.330 28.060 A1.49 0.89 0 1 0 34.310 28.060 A1.49 0.89 0 1 0 31.330 28.060 Z" fill="#ffaa54"></path></svg>