<svg xmlns="http://www.w3.org/2000/svg" fill="none" viewBox="0 0 48 48" id="Button-Power-1--Streamline-Plump-Gradient">
  <desc>
    Button Power 1 Streamline Icon: https://streamlinehq.com
  </desc>
  <g id="button-power-1--power-button-on-off">
    <path id="Union" fill="url(#paint0_linear_7979_4321)" fill-rule="evenodd" d="M22.4595 26.616c.4453.0479.9581.0783 1.5421.0783.5841 0 1.0969-.0304 1.5422-.0783 1.7045-.1832 2.6439-1.6842 2.6848-3.2403.0502-1.9127.1067-5.1029.1067-9.7766 0-4.67376-.0565-7.86389-.1067-9.77668-.0409-1.5561-.9803-3.057069-2.6848-3.24026-.4453-.047858-.9581-.078254-1.5422-.078254-.584 0-1.0968.030396-1.5421.078253C20.755.76535 19.8156 2.26632 19.7747 3.82242c-.0502 1.91279-.1067 5.10292-.1067 9.77668 0 4.6737.0565 7.8639.1067 9.7766.0409 1.5561.9803 3.0571 2.6848 3.2403ZM8.96932 6.23333c1.08738-.89912 2.72458-.96624 3.72658.17091.7943.90134 1.6689 2.25597 1.9933 4.07086.197 1.1017-.3611 2.1004-1.0618 2.784-2.8083 2.7396-5.00967 6.6742-5.00967 10.9139 0 8.3177 6.89237 15.2163 15.38237 15.2163s15.3824-6.8986 15.3824-15.2163c0-4.2397-2.2014-8.1743-5.0096-10.9139-.7008-.6836-1.2588-1.6823-1.0619-2.784.3245-1.81489 1.199-3.16951 1.9933-4.07086 1.0021-1.13715 2.6393-1.07003 3.7266-.17091C44.206 10.5125 47.5022 16.9604 47.5022 24.173c0 12.8912-10.5257 23.3353-23.5021 23.3353C11.0237 47.5083.498047 37.0642.498047 24.173c0-7.2126 3.296213-13.6605 8.471273-17.93967Z" clip-rule="evenodd"></path>
  </g>
  <defs>
    <linearGradient id="paint0_linear_7979_4321" x1="2.304" x2="55.877" y1="4.302" y2="34.497" gradientUnits="userSpaceOnUse">
      <stop stop-color="#00d078"></stop>
      <stop offset="1" stop-color="#007df0"></stop>
    </linearGradient>
  </defs>
</svg>