<svg xmlns="http://www.w3.org/2000/svg" fill="none" viewBox="0 0 48 48" id="Earpods--Streamline-Plump-Gradient">
  <desc>
    Earpods Streamline Icon: https://streamlinehq.com
  </desc>
  <g id="earpods--airpods-audio-earpods-music-earbuds-true-wireless-entertainment">
    <path id="Union" fill="url(#paint0_linear_7979_4351)" fill-rule="evenodd" d="M1.8561 8.83494c-.18453 1.09133-.31006 2.38476-.32027 3.89816-.02311.0576-.03583.1204-.03583.1862-.00002 7.0782.74445 16.295 1.4242 23.2358 1.686-.0509 3.7733-.0848 6.34339-.0848 1.20571 0 2.30511.0075 3.30671.0206V23.7745c1.8341.2863 3.7681.5286 5.5922.6464 1.5709.1014 3.0918-.6444 3.4713-2.3292.3645-1.6177.7065-4.3991.7065-9.1585 0-4.75936-.342-7.54082-.7064-9.15848-.3797-1.68521-1.9012-2.4254-3.4645-2.35624-3.6666.16222-7.0219.69785-9.56314 1.22441-3.25003.67343-6.1753 2.76851-6.75416 6.19205ZM12.5743 43.1646v-4.0734c-.9977-.0133-2.097-.0209-3.30671-.0209-2.43772 0-4.42711.0308-6.04069.0772.18318 1.7555.35104 3.2707.48473 4.4426.20067 1.759 1.69157 3.0745 3.45698 3.0745h1.9057c1.93299 0 3.49999-1.5671 3.49999-3.5ZM46.1435 8.83494c.1845 1.09133.31 2.38476.3202 3.89816.0232.0576.0359.1204.0359.1862 0 7.0782-.7445 16.295-1.4242 23.2359-1.6863-.051-3.7741-.0849-6.3449-.0849-1.2051 0-2.3041.0075-3.3052.0206V23.7745c-1.8342.2863-3.7682.5286-5.5922.6464-1.571.1014-3.0918-.6444-3.4714-2.3292-.3644-1.6177-.7064-4.3991-.7064-9.1585 0-4.75936.342-7.54082.7064-9.15848.3797-1.68521 1.9012-2.4254 3.4645-2.35624 3.6665.16222 7.0219.69785 9.5631 1.22441 3.25.67343 6.1753 2.76851 6.7542 6.19205Zm-7.413 30.23536c2.4384 0 4.4283.0308 6.0422.0772-.1832 1.7556-.3511 3.2707-.4848 4.4426-.2006 1.759-1.6915 3.0745-3.4569 3.0745h-1.9057c-1.933 0-3.5-1.5671-3.5-3.5v-4.0734c.9973-.0133 2.0961-.0209 3.3052-.0209Z" clip-rule="evenodd"></path>
  </g>
  <defs>
    <linearGradient id="paint0_linear_7979_4351" x1="8.856" x2="45.295" y1="10.116" y2="30.194" gradientUnits="userSpaceOnUse">
      <stop stop-color="#ffd600"></stop>
      <stop offset="1" stop-color="#00d078"></stop>
    </linearGradient>
  </defs>
</svg>