<svg xmlns="http://www.w3.org/2000/svg" fill="none" viewBox="0 0 48 48" id="Music-Note-Trebble-Clef--Streamline-Plump-Gradient">
  <desc>
    Music Note Trebble Clef Streamline Icon: https://streamlinehq.com
  </desc>
  <g id="music-note-trebble-clef--music-audio-note-trebble-clef-entertainment">
    <path id="Subtract" fill="url(#paint0_linear_7979_4366)" fill-rule="evenodd" d="M18.7033 3.54198C20.237 1.69238 22.5383.5 25.502.5c2.8056 0 5.1347.85072 6.7446 2.61266 1.5895 1.73963 2.2799 4.15197 2.2799 6.88629 0 2.67065-1.0877 5.00755-2.1958 6.70645-1.4012-.2539-2.8999-.3166-4.4445-.1981-5.6083.4305-9.3852 4.5621-9.3852 8.4956 0 3.4484 2.7968 5.5 5.4988 5.5 1.263 0 2.3099-.3203 3.1456-.8778.8263-.5512 1.3583-1.2753 1.6973-1.9537.336-.6725.4965-1.3268.5754-1.8003.04-.2404.0606-.4439.0713-.5932.0053-.075.0082-.137.0098-.184.0008-.0235.0012-.0433.0015-.0592l.0002-.0209.0001-.0081v-.0052c0-.0007 0-.0015-1.5-.0015h1.5c0-.8284-.6716-1.5-1.5-1.5-.8247 0-1.4939.6655-1.5 1.4887l-.0002.0064c-.0004.0116-.0014.0356-.0038.0702-.005.0696-.0157.1789-.0382.3139-.0461.2772-.1357.6239-.2998.9523-.1612.3227-.3794.5995-.6785.799-.2896.1932-.7431.3734-1.4807.3734-1.2956 0-2.4988-.9483-2.4988-2.5 0-2.0664 2.2524-5.1695 6.6148-5.5044 3.016-.2315 5.516.3642 7.215 1.5483 1.2505.8716 2.1439 2.1112 2.4997 3.7684.1121.5474.1705 1.112.1705 1.6887 0 3.7761-2.292 7.0999-5.8327 9.0797.8701 2.3513.5934 5.1349-.6711 7.398-1.44 2.5772-4.178 4.5184-7.9957 4.5184-3.022 0-5.2862-.8278-6.8139-2.1946-1.437-1.2855-2.1075-2.949-2.1808-4.5154.0518-.92.4451-1.5548.9937-1.9937.6276-.502 1.5301-.7963 2.5005-.7963 1.9518 0 2.8782.834 3.3769 1.5821.2709.4063.4342.8222.5286 1.1409.0466.1571.0744.2837.0897.3643.0077.0401.0121.0681.0141.082l.0012.0083c.0973.8171.8357 1.4043 1.6551 1.3132.8234-.0915 1.4167-.8331 1.3252-1.6564L23.501 41c1.4908-.1656 1.4907-.1665 1.4906-.1673l-.0002-.0018-.0004-.0038-.0011-.009-.0028-.023-.0031-.0227-.0061-.0428c-.0077-.052-.0189-.1207-.0347-.2036-.0315-.1655-.0818-.3904-.1603-.6553-.1555-.525-.4297-1.2341-.9088-1.9528-.0967-.1449-.2009-.289-.3132-.4311-3.3812-.1237-6.7909-.9222-9.4748-2.5847C11.0915 33.0472 9.00098 30.0986 9.00098 26c0-2.8476.87894-4.9514 2.31742-6.594 1.3833-1.5795 3.2217-2.6538 4.9483-3.59.094-.051.1878-.1016.2813-.1521.8698-.3971 1.763-.7584 2.6616-1.1122.2193-.0864.4401-.1727.6612-.2592.8162-.3192 1.6371-.6402 2.404-.9699 1.8909-.8127 3.8548-1.832 4.9703-3.48845.4628-.68713.2809-1.6193-.4062-2.08206-.6872-.46276-1.6193-.28087-2.0821.40626-.5767.85636-1.7715 1.59351-3.6667 2.40815-.7166.308-1.4757.6049-2.2845.9212l-.0022.0009c-.227.0888-.4579.1791-.6929.2717-.4853.191-.9831.3897-1.486.5993-.0758-.6852-.1225-1.4692-.1225-2.36065 0-2.28739.6976-4.64374 2.2013-6.45697Z" clip-rule="evenodd"></path>
  </g>
  <defs>
    <linearGradient id="paint0_linear_7979_4366" x1="10.115" x2="48.968" y1="4.298" y2="17.81" gradientUnits="userSpaceOnUse">
      <stop stop-color="#00d078"></stop>
      <stop offset="1" stop-color="#007df0"></stop>
    </linearGradient>
  </defs>
</svg>