<svg xmlns="http://www.w3.org/2000/svg" fill="none" viewBox="0 0 48 48" id="Recording-Tape-1--Streamline-Plump-Gradient">
  <desc>
    Recording Tape 1 Streamline Icon: https://streamlinehq.com
  </desc>
  <g id="recording-tape-1--film-television-tv-movies-reel-video-entertainment">
    <path id="Subtract" fill="url(#paint0_linear_7979_4399)" fill-rule="evenodd" d="M21.8203.5C9.94619.5.320312 10.1259.320312 22S9.94619 43.5 21.8203 43.5c5.8965 0 11.2385-2.3737 15.1227-6.2176-.3508 1.3399-.6227 2.6397-.6227 3.7176 0 2.1429.6508 3.7983 1.7531 4.9243 1.0872 1.1106 2.4885 1.5757 3.7469 1.5757.8918 0 1.7511-.1911 2.5219-.6423.7718-.4519 1.3651-1.1121 1.8046-1.9102.8489-1.5417 1.1735-3.6867 1.1735-6.2808 0-.8285-.6716-1.5-1.5-1.5s-1.5.6715-1.5 1.5c0 2.4475-.3254 3.9692-.8015 4.8337-.223.405-.461.6329-.6923.7683-.2323.136-.548.2313-1.0062.2313-.5416 0-1.1403-.2015-1.6031-.6743-.4477-.4573-.8969-1.3019-.8969-2.8257 0-.7018.2004-1.7425.5744-3.1448.249-.934.551-1.9454.8781-3.0411.1576-.5277.321-1.0751.4871-1.6428.7983-2.7275 1.6372-5.8447 1.9414-8.8958.0787-.7478.119-1.5069.119-2.2755 0-11.8741-9.6259-21.5-21.5-21.5Zm-4.4998 9.9996C17.3205 8.01453 19.335 6 21.8201 6c2.485 0 4.4995 2.01453 4.4995 4.4996 0 2.485-2.0145 4.4996-4.4995 4.4996-2.4851 0-4.4996-2.0146-4.4996-4.4996Zm4.4996 18.5043c-2.4851 0-4.4996 2.0145-4.4996 4.4996 0 2.485 2.0145 4.4996 4.4996 4.4996 2.485 0 4.4995-2.0146 4.4995-4.4996 0-2.4851-2.0145-4.4996-4.4995-4.4996ZM33.3228 17.5c2.4851 0 4.4996 2.0145 4.4996 4.4996 0 2.485-2.0145 4.4996-4.4996 4.4996-2.485 0-4.4996-2.0146-4.4996-4.4996 0-2.4851 2.0146-4.4996 4.4996-4.4996Zm-18.5043 4.4996c0-2.4851-2.0145-4.4996-4.4996-4.4996-2.48503 0-4.49956 2.0145-4.49956 4.4996 0 2.485 2.01453 4.4996 4.49956 4.4996 2.4851 0 4.4996-2.0146 4.4996-4.4996Zm6.9922 2.0022.0086.0001.0076-.0001c1.1001-.0046 1.9904-.8978 1.9904-1.9989 0-1.1012-.8903-1.9944-1.9904-1.999h-.0151c-1.1006.0041-1.9915.8975-1.9915 1.999 0 1.1011.8904 1.9943 1.9904 1.9989Z" clip-rule="evenodd"></path>
  </g>
  <defs>
    <linearGradient id="paint0_linear_7979_4399" x1="8.003" x2="45.964" y1="9.538" y2="30.571" gradientUnits="userSpaceOnUse">
      <stop stop-color="#ffd600"></stop>
      <stop offset="1" stop-color="#00d078"></stop>
    </linearGradient>
  </defs>
</svg>