<svg xmlns="http://www.w3.org/2000/svg" fill="none" viewBox="0 0 48 48" id="Tune-Adjust-Volume--Streamline-Plump-Gradient">
  <desc>
    Tune Adjust Volume Streamline Icon: https://streamlinehq.com
  </desc>
  <g id="tune-adjust-volume">
    <path id="Union" fill="url(#paint0_linear_7979_4408)" fill-rule="evenodd" d="M22 2c0-1.10457.8954-2 2-2s2 .89543 2 2-.8954 2-2 2-2-.89543-2-2Zm16.1424 5.0311c.7811-.78105 2.0474-.78105 2.8285 0 .781.78105.781 2.04738 0 2.82843-.7811.78107-2.0474.78107-2.8285 0-.781-.78105-.781-2.04738 0-2.82843ZM4 24c0-1.1046-.89543-2-2-2-1.104569 0-2 .8954-2 2s.89543 2 2 2 2-.8954 2-2Zm44 0c0-1.1046-.8954-2-2-2s-2 .8954-2 2 .8954 2 2 2 2-.8954 2-2ZM9.85757 38.1405c-.78105-.7811-2.04738-.7811-2.82842 0-.78105.781-.78105 2.0474 0 2.8284.78104.7811 2.04737.7811 2.82842 0 .78103-.781.78103-2.0474 0-2.8284Zm31.11333 2.8284c.781-.781.781-2.0474 0-2.8284-.7811-.7811-2.0474-.7811-2.8285 0-.781.781-.781 2.0474 0 2.8284.7811.7811 2.0474.7811 2.8285 0ZM9.85757 7.0311c.78103.78105.78103 2.04738 0 2.82843-.78105.78107-2.04738.78107-2.82842 0-.78105-.78105-.78105-2.04738 0-2.82843.78104-.78105 2.04737-.78105 2.82842 0ZM24 5.5C13.7827 5.5 5.5 13.7827 5.5 24c0 4.5696 1.6568 8.7523 4.40247 11.9801L19.9393 25.9432c.5858-.5857 1.5356-.5857 2.1214 0 .5857.5858.5857 1.5356 0 2.1214L12.0241 38.1011C15.2513 40.8446 19.4323 42.5 24 42.5c10.2173 0 18.5-8.2827 18.5-18.5S34.2173 5.5 24 5.5Z" clip-rule="evenodd"></path>
  </g>
  <defs>
    <linearGradient id="paint0_linear_7979_4408" x1="52.16" x2="-7.108" y1="51.502" y2="3.953" gradientUnits="userSpaceOnUse">
      <stop stop-color="#ffd600"></stop>
      <stop offset="1" stop-color="#ff007a"></stop>
    </linearGradient>
  </defs>
</svg>