<svg xmlns="http://www.w3.org/2000/svg" fill="none" viewBox="0 0 48 48" id="Lockers--Streamline-Kameleon">
  <desc>
    Lockers Streamline Icon: https://streamlinehq.com
  </desc>
  <path fill="#ff78b9" d="M24.0006 48.0061c13.2553 0 24.0006 -10.7453 24.0006 -24.0006 0 -13.2553 -10.7453 -24.00061719 -24.0006 -24.00061719C10.7453 0.00488281 0 10.7502 0 24.0055s10.7453 24.0006 24.0006 24.0006Z" stroke-width="1"></path>
  <path fill="#000000" d="M33.6006 24.8784c0.48 0 0.8727 0.3928 0.8727 0.8728v11.3457c0 0.48 -0.3927 0.8728 -0.8727 0.8728H14.4001c-0.48 0 -0.8728 -0.3928 -0.8728 -0.8728V25.7512c0 -0.48 0.3928 -0.8728 0.8728 -0.8728h19.2005Z" stroke-width="1"></path>
  <path fill="#000000" d="M27.9578 24.8779H26.182l-0.9032 -1.3089H22.722l-0.9032 1.3089H20.043l1.7453 -2.6179h4.4243l1.7452 2.6179Z" stroke-width="1"></path>
  <path fill="#ffffff" d="M18.7641 24.8784h-1.7455v13.0913h1.7455V24.8784Z" stroke-width="1"></path>
  <path fill="#ffffff" d="M30.9828 24.8784h-1.7455v13.0913h1.7455V24.8784Z" stroke-width="1"></path>
  <path fill="#000000" d="M23.6963 17.0238h2.0501v-0.8727h1.7455v0.8727h1.0909l0.6546 -0.8727h1.7455v0.8727h1.7455l1.4531 -1.7455H24.0009c0 0.6131 -0.1109 1.1987 -0.3046 1.7455Z" stroke-width="1"></path>
  <path fill="#000000" d="M32.7278 12.6605h-9.4335c-0.9059 -1.5635 -2.5934 -2.6183 -4.5305 -2.6183 -2.8918 0 -5.2365 2.3447 -5.2365 5.2365 0 2.8919 2.3447 5.2365 5.2365 5.2365 2.8919 0 5.2365 -2.3446 5.2365 -5.2365H34.181l0.7287 -0.8727 -2.1819 -1.7455ZM18.3275 17.276c0 0.0725 -0.018 0.1438 -0.0525 0.2076 -0.0344 0.0638 -0.0842 0.118 -0.1448 0.1577 -0.0606 0.0397 -0.1302 0.0637 -0.2024 0.0698 -0.0722 0.0061 -0.1448 -0.0059 -0.2113 -0.0349 -0.4667 -0.2034 -0.8639 -0.5386 -1.1428 -0.9645 -0.279 -0.4258 -0.4276 -0.9239 -0.4276 -1.433s0.1486 -1.0071 0.4276 -1.433c0.2789 -0.4258 0.6761 -0.761 1.1428 -0.9644 0.1349 -0.0589 0.2907 -0.0458 0.4137 0.0345 0.1231 0.0811 0.1973 0.2182 0.1973 0.3652v3.995Z" stroke-width="1"></path>
</svg>