<svg xmlns="http://www.w3.org/2000/svg" fill="none" viewBox="0 0 48 48" id="Receptionist--Streamline-Kameleon">
  <desc>
    Receptionist Streamline Icon: https://streamlinehq.com
  </desc>
  <path fill="#92de46" d="M24.0006 48.0012c13.2553 0 24.0006 -10.7453 24.0006 -24.0006C48.0012 10.7453 37.2559 0 24.0006 0 10.7453 0 0 10.7453 0 24.0006c0 13.2553 10.7453 24.0006 24.0006 24.0006Z" stroke-width="1"></path>
  <path fill="#000000" d="M18.7646 29.2378v-3.0547c0 -2.1818 4.6876 -5.6728 7.8548 -5.6728 3.2043 0 7.8547 3.491 7.8547 5.6728v3.0547H18.7646Z" stroke-width="1"></path>
  <path fill="#000000" d="M32.7283 19.201c-1.2437 1.2437 -2.8801 1.3047 -4.1631 0.1876 0.9889 -0.3796 1.5448 -1.1725 1.5448 -2.3695v-2.6182c-1.5452 0 -2.6348 -0.9112 -3.2684 -2.7339 -0.0188 -0.0546 -0.096 -0.0415 -0.0982 0.0161 -0.0454 1.4178 -1.4217 3.1541 -3.6154 3.1541v2.1819c0 1.2624 0.9116 2.1055 1.5491 2.3608 -1.2829 1.1258 -2.9237 1.0648 -4.1673 -0.1789 0 0 1.7455 0 1.7455 -1.3091v-3.3401c0 -2.3237 1.752 -4.3532 4.0705 -4.5051 2.5414 -0.16625 4.657 1.8485 4.657 4.3542v3.491c0 1.3091 1.7455 1.3091 1.7455 1.3091Z" stroke-width="1"></path>
  <path fill="#ffffff" d="M26.8397 11.6617c-0.0187 -0.0545 -0.0942 -0.044 -0.096 0.0136 -0.0406 1.4191 -1.4182 3.1619 -3.6158 3.1619v2.1819c0 1.2193 0.8745 2.0911 1.5492 2.3608 0.0628 0.0253 0.1313 0.0441 0.1963 0.0663v1.3659l1.7455 4.9345 1.7455 -4.9485v-1.3423c0.0668 -0.0227 0.1366 -0.0419 0.2008 -0.0676 1.1241 -0.4311 1.5447 -1.3755 1.5447 -2.3691v-2.6182c-1.5465 0 -2.6365 -0.9129 -3.2702 -2.7392Z" stroke-width="1"></path>
  <path fill="#000000" d="M35.783 30.9829H12.2188v6.982H35.783v-6.982Z" stroke-width="1"></path>
  <path fill="#ffffff" d="M37.9641 30.9833h-27.928v-0.8728c0 -0.2314 0.092 -0.4534 0.2557 -0.6171 0.1636 -0.1637 0.3856 -0.2556 0.6171 -0.2556h26.1825c0.2314 0 0.4534 0.0919 0.6171 0.2556 0.1637 0.1637 0.2556 0.3857 0.2556 0.6171v0.8728Z" stroke-width="1"></path>
  <path fill="#ffffff" d="M34.0372 32.7285h-8.2911v5.2365h8.2911v-5.2365Z" stroke-width="1"></path>
  <path fill="#ffffff" d="M22.255 32.7285h-8.2911v5.2365h8.2911v-5.2365Z" stroke-width="1"></path>
  <path fill="#000000" d="M15.2734 25.7465c0.1497 0 0.2955 0.0153 0.4365 0.0441V25.31c0 -0.1158 -0.046 -0.2268 -0.1279 -0.3086 -0.0818 -0.0819 -0.1929 -0.1279 -0.3086 -0.1279 -0.1158 0 -0.2268 0.046 -0.3086 0.1279 -0.0819 0.0818 -0.1279 0.1928 -0.1279 0.3086v0.4806c0.1436 -0.0294 0.2899 -0.0442 0.4365 -0.0441Z" stroke-width="1"></path>
  <path fill="#000000" d="M18.1094 29.2381h-5.6729l0.6546 -0.8728v-0.4364c0 -1.2043 0.9775 -2.1818 2.1819 -2.1818 1.2044 0 2.1818 0.9775 2.1818 2.1818v0.4364l0.6546 0.8728Z" stroke-width="1"></path>
  <path fill="#000000" d="M25.3095 15.7103c0.1158 0 0.2268 -0.0459 0.3086 -0.1278 0.0819 -0.0818 0.1279 -0.1929 0.1279 -0.3086 0 -0.1158 -0.046 -0.2268 -0.1279 -0.3087 -0.0818 -0.0818 -0.1928 -0.1278 -0.3086 -0.1278 -0.1157 0 -0.2268 0.046 -0.3086 0.1278 -0.0819 0.0819 -0.1279 0.1929 -0.1279 0.3087 0 0.1157 0.046 0.2268 0.1279 0.3086 0.0818 0.0819 0.1929 0.1278 0.3086 0.1278Z" stroke-width="1"></path>
  <path fill="#000000" d="M27.9287 15.7103c0.1157 0 0.2267 -0.0459 0.3086 -0.1278 0.0818 -0.0818 0.1278 -0.1929 0.1278 -0.3086 0 -0.1158 -0.046 -0.2268 -0.1278 -0.3087 -0.0819 -0.0818 -0.1929 -0.1278 -0.3086 -0.1278 -0.1158 0 -0.2268 0.046 -0.3087 0.1278 -0.0818 0.0819 -0.1278 0.1929 -0.1278 0.3087 0 0.1157 0.046 0.2268 0.1278 0.3086 0.0819 0.0819 0.1929 0.1278 0.3087 0.1278Z" stroke-width="1"></path>
  <path fill="#000000" d="M24.873 17.4551h3.4902s-0.4363 0.8725 -1.7451 0.8725c-1.3088 0 -1.7451 -0.8725 -1.7451 -0.8725Z" stroke-width="1"></path>
  <path fill="#ffffff" d="m26.1158 26.9439 -1.8049 -4.9913 -2.4925 2.4852 2.1447 0.2692 2.1527 2.2369Z" stroke-width="1"></path>
  <path fill="#ffffff" d="m27.1221 26.9439 1.8048 -4.9913 2.4926 2.4852 -2.1448 0.2692 -2.1526 2.2369Z" stroke-width="1"></path>
</svg>