<svg xmlns="http://www.w3.org/2000/svg" fill="none" viewBox="0 0 48 48" id="Towel--Streamline-Kameleon">
  <desc>
    Towel Streamline Icon: https://streamlinehq.com
  </desc>
  <path fill="#ffc42d" d="M24.0006 48.0012c13.2553 0 24.0006 -10.7453 24.0006 -24.0006C48.0012 10.7453 37.2559 0 24.0006 0 10.7453 0 0 10.7453 0 24.0006c0 13.2553 10.7453 24.0006 24.0006 24.0006Z" stroke-width="1"></path>
  <path fill="#ffffff" d="m37.0876 22.9311 -12.2158 -7.2696 -0.0114 -1.866 -0.576 -0.2085c-0.0733 -0.0271 -0.7218 -0.2802 -0.7218 -0.9208 0 -0.7811 1.5513 -1.492 2.2735 -0.0458 0.1086 0.1983 0.2898 0.3468 0.5055 0.4143 0.2158 0.0675 0.4493 0.0488 0.6515 -0.0523s0.3574 -0.2766 0.4329 -0.4897c0.0754 -0.2131 0.0654 -0.4471 -0.0281 -0.653 -0.686 -1.3724 -2.0247 -2.04789 -3.4098 -1.7206 -1.2777 0.3015 -2.1705 1.3493 -2.1705 2.5475 0 1.1473 0.6737 1.8882 1.3091 2.2867v0.7073L11.0448 22.832l-0.1357 0.0995c-0.3941 0.3545 -0.672 0.8197 -0.7973 1.3348 -0.12535 0.515 -0.0923 1.0559 0.0947 1.5518 0.1908 0.4945 0.5263 0.9199 0.9628 1.2205 0.4365 0.3006 0.9535 0.4624 1.4835 0.4644h22.6915c0.53 -0.0021 1.047 -0.164 1.4834 -0.4646 0.4365 -0.3006 0.7721 -0.7259 0.9629 -1.2203 0.1872 -0.496 0.2202 -1.037 0.0949 -1.5521 -0.1254 -0.5151 -0.4037 -0.9804 -0.7979 -1.3349Zm-0.9277 2.2643c-0.0636 0.1649 -0.1755 0.3068 -0.3211 0.407 -0.1457 0.1003 -0.3181 0.1541 -0.4949 0.1546H12.6524c-0.1766 -0.0008 -0.3489 -0.0548 -0.4943 -0.155 -0.1454 -0.1001 -0.2572 -0.2419 -0.3209 -0.4066 -0.0581 -0.1541 -0.0717 -0.3215 -0.0393 -0.4829 0.0324 -0.1615 0.1096 -0.3107 0.2226 -0.4304l11.9785 -7.1103 11.9772 7.1103c0.2295 0.2409 0.3033 0.5996 0.1837 0.9133Z" stroke-width="1"></path>
  <path fill="#000000" d="M33.6031 24.8845c0 -0.2315 -0.092 -0.4535 -0.2557 -0.6172 -0.1636 -0.1636 -0.3856 -0.2556 -0.6171 -0.2556H15.2731c-0.2314 0 -0.4534 0.092 -0.6171 0.2556 -0.1637 0.1637 -0.2556 0.3857 -0.2556 0.6172v11.3457h19.2027V24.8845Z" stroke-width="1"></path>
  <path fill="#000000" d="M33.6009 36.23H14.4004v1.7455h19.2005V36.23Z" stroke-width="1"></path>
  <path fill="#ffffff" d="M16.5829 36.23H15.71v1.7459h0.8729V36.23Z" stroke-width="1"></path>
  <path fill="#ffffff" d="M19.2011 36.23h-0.873v1.7459h0.873V36.23Z" stroke-width="1"></path>
  <path fill="#ffffff" d="M21.8192 36.23h-0.8729v1.7459h0.8729V36.23Z" stroke-width="1"></path>
  <path fill="#ffffff" d="M24.4374 36.23h-0.8729v1.7459h0.8729V36.23Z" stroke-width="1"></path>
  <path fill="#ffffff" d="M27.0556 36.23h-0.873v1.7459h0.873V36.23Z" stroke-width="1"></path>
  <path fill="#ffffff" d="M29.6737 36.23h-0.8729v1.7459h0.8729V36.23Z" stroke-width="1"></path>
  <path fill="#ffffff" d="M32.2919 36.23h-0.873v1.7459h0.873V36.23Z" stroke-width="1"></path>
</svg>