<svg viewBox="0 0 24 24" fill="none" xmlns="http://www.w3.org/2000/svg" id="Cash-Payment-Sign-2--Streamline-Freehand">
  <desc>
    Cash Payment Sign 2 Streamline Icon: https://streamlinehq.com
  </desc>
  <g id="cash-payment-sign-2">
    <g id="Group">
      <path id="Vector" fill-rule="evenodd" clip-rule="evenodd" d="M1.12905 10.9271c0.40966 -0.1699 -0.09991 -0.2498 4.62613 -1.21898 2.37801 -0.48959 6.29472 -1.36886 8.83262 -1.80849 0.0874 -0.01325 0.166 -0.06069 0.2185 -0.1319 0.0525 -0.0712 0.0745 -0.16033 0.0612 -0.24778 -0.0132 -0.08745 -0.0607 -0.16605 -0.1319 -0.21852 -0.0712 -0.05246 -0.1603 -0.0745 -0.2477 -0.06125 -1.9984 0.2498 -11.79016 1.69858 -13.798478 2.57785C0.139883 10.0079 0 10.3076 0 10.6873c0.284932 3.332 0.799052 6.6404 1.53871 9.9017 0.02326 0.073 0.0736 0.1344 0.14068 0.1714 0.06707 0.0371 0.14579 0.047 0.21998 0.0278 0.07419 -0.0192 0.13821 -0.066 0.17892 -0.131 0.0407 -0.0649 0.05499 -0.1429 0.03994 -0.2181 -0.49361 -3.1515 -0.82377 -6.3264 -0.98918 -9.512Z" fill="#000000" stroke-width="1"></path>
      <path id="Vector_2" fill-rule="evenodd" clip-rule="evenodd" d="M21.512 13.0054c-0.0252 -0.0656 -0.0726 -0.1202 -0.134 -0.1543 -0.0613 -0.0342 -0.1327 -0.0457 -0.2016 -0.0326 -0.069 0.013 -0.1312 0.0499 -0.1758 0.1042 -0.0446 0.0542 -0.0687 0.1224 -0.0681 0.1926 0.2298 1.4488 0.4196 2.7577 0.4896 3.3871 -13.20898 2.3381 -17.88506 3.7169 -18.42461 3.617 -0.08246 -0.0069 -0.16462 0.0165 -0.23106 0.0658 -0.06643 0.0494 -0.11256 0.1213 -0.12973 0.2022 -0.01717 0.081 -0.00421 0.1654 0.03647 0.2375s0.10626 0.1268 0.18444 0.154c0.99916 0.2298 18.90419 -3.1474 19.30379 -3.7369 0.2099 -0.2998 -0.1798 -1.7186 -0.6494 -4.0366Z" fill="#000000" stroke-width="1"></path>
      <path id="Vector_3" fill-rule="evenodd" clip-rule="evenodd" d="M22.5411 3.48333c-0.6195 -0.2398 -1.7185 -0.48959 -2.1782 0 -1.149 -0.64945 -2.1482 0 -2.8476 1.15903 -0.1299 0.20983 -0.5595 0.99916 -0.8393 1.53871 -0.2797 0.53955 -0.3797 0.65945 -0.3597 0.8393 -0.006 0.05364 0.0035 0.10788 0.0276 0.1562 0.0241 0.04831 0.0616 0.08863 0.1081 0.11609s0.0999 0.04089 0.1538 0.03867c0.054 -0.00222 0.1061 -0.01999 0.1502 -0.05118 0.0799 0 1.209 -1.39883 1.2689 -1.47876 0.5495 -0.68942 1.3888 -2.09824 1.9983 -1.70857 -0.6367 0.982 -1.185 2.01852 -1.6386 3.09741 0 0.1199 -0.3397 0 1.7685 1.46877l0.2998 0.19983c-0.7794 1.23897 -3.2773 4.81597 -3.5271 5.12567 -0.27 0.2532 -0.5899 0.4472 -0.9392 0.5696 -0.2424 -0.4628 -0.3918 -0.9686 -0.4396 -1.4888l2.5878 -4.36634c0.0398 -0.0689 0.0505 -0.15076 0.0299 -0.22759 -0.0206 -0.07682 -0.0709 -0.14231 -0.1398 -0.18206 -0.0689 -0.03975 -0.1508 -0.0505 -0.2276 -0.02989 -0.0768 0.02061 -0.1423 0.0709 -0.1821 0.1398 -0.5995 0.99916 -2.9275 3.87678 -3.0874 4.41628 -0.089 0.9037 0.1446 1.8098 0.6595 2.5579 0.1343 0.1182 0.2978 0.1981 0.4736 0.2315 0.1758 0.0334 0.3573 0.019 0.5255 -0.0417 0.615 -0.1726 1.1824 -0.4836 1.6587 -0.9092 0.4196 -0.5795 3.2672 -5.3955 3.3072 -5.6353 0.5995 -0.13989 1.0691 -0.90924 2.0483 -2.18817 0.3472 -0.44163 0.6113 -0.94269 0.7793 -1.47876 0.1499 -1.01915 -0.5595 -1.49875 -1.4388 -1.86844Zm0.2598 1.83846c-0.0799 0.2398 -1.6087 3.05744 -2.2082 2.69774l-1.4687 -0.89924c0.0599 -0.18984 -0.1099 0.20982 1.7385 -2.55786 0.2798 -0.41965 -0.1199 -0.43963 0.6595 -0.24979 0.4087 0.10897 0.7992 0.27729 1.159 0.49958 0.0763 0.0576 0.1301 0.14007 0.152 0.23314 0.0219 0.09306 0.0105 0.19085 -0.0321 0.27643Z" fill="#000000" stroke-width="1"></path>
      <path id="Vector_4" fill-rule="evenodd" clip-rule="evenodd" d="M12.7793 16.3226c0.0587 -0.0082 0.1145 -0.0308 0.1623 -0.0657 0.0479 -0.0349 0.0864 -0.0811 0.1121 -0.1345s0.0378 -0.1123 0.0353 -0.1715c-0.0026 -0.0592 -0.0197 -0.1169 -0.0499 -0.1679 -0.1129 -0.1482 -0.2559 -0.2708 -0.4197 -0.3597 -0.428 -0.063 -0.865 0.0104 -1.2489 0.2099 -0.2698 -1.229 -0.8093 -2.1782 -1.99833 -1.8485 -0.46456 0.1674 -0.87609 0.4556 -1.19221 0.835 -0.31612 0.3793 -0.5254 0.8361 -0.60629 1.3232 -0.1199 0.5795 -0.30974 1.5087 0.26978 1.4088 0.0411 -0.0033 0.08101 -0.0154 0.11707 -0.0354 0.03606 -0.02 0.06744 -0.0475 0.09203 -0.0806 0.02459 -0.0331 0.04183 -0.0711 0.05057 -0.1114 0.00874 -0.0403 0.00878 -0.082 0.00011 -0.1223 0.04413 -0.2936 0.10755 -0.584 0.18984 -0.8693 0.11158 -0.3079 0.29338 -0.5857 0.53099 -0.8111 0.2376 -0.2255 0.52448 -0.3925 0.83787 -0.4878 0.37967 -0.0999 0.62947 0.7494 0.74937 1.1391 0 0.1299 0.0799 0.7893 0.5196 0.8692 0.076 0.0218 0.1561 0.026 0.234 0.0121 0.078 -0.0138 0.1517 -0.0453 0.2156 -0.092 0.4546 -0.1812 0.9222 -0.3282 1.3988 -0.4396Z" fill="#000000" stroke-width="1"></path>
      <path id="Vector_5" fill-rule="evenodd" clip-rule="evenodd" d="M6.06492 11.9063c1.45878 -0.2598 0.99917 -0.3098 3.30723 -0.6994 0.08687 -0.017 0.16368 -0.0673 0.21407 -0.1401 0.05038 -0.0727 0.07037 -0.1623 0.05571 -0.2496 -0.03656 -0.0883 -0.09919 -0.1634 -0.17953 -0.2152 -0.08034 -0.0517 -0.17457 -0.0778 -0.2701 -0.0746 -1.31498 0.0053 -2.62647 0.1358 -3.91672 0.3897 -0.93731 0.2709 -1.85529 0.6047 -2.7477 0.9992 -0.03252 0.0489 -0.05046 0.106 -0.05173 0.1648 -0.00127 0.0587 0.01418 0.1166 0.04455 0.1668 0.03038 0.0503 0.07442 0.0909 0.127 0.1171 0.05257 0.0262 0.11151 0.0369 0.16994 0.0309 0.25978 -0.03 3.00748 -0.4497 3.24728 -0.4896Z" fill="#000000" stroke-width="1"></path>
      <path id="Vector_6" fill-rule="evenodd" clip-rule="evenodd" d="M2.99751 14.1844c-0.09991 0.0899 -0.13988 0.4296 0.28976 0.4995 0.90898 0.0925 1.82352 -0.1108 2.60782 -0.5795 0.04273 -0.0083 0.08338 -0.0251 0.11962 -0.0492 0.03623 -0.0242 0.06732 -0.0552 0.09147 -0.0915 0.02415 -0.0362 0.04089 -0.0769 0.04925 -0.1196 0.00835 -0.0427 0.00816 -0.0867 -0.00056 -0.1293 -0.07994 -0.5696 -2.28809 -0.2498 -3.15736 0.4696Z" fill="#000000" stroke-width="1"></path>
      <path id="Vector_7" fill-rule="evenodd" clip-rule="evenodd" d="M14.5978 9.20853c-1.0065 0.07586 -2.0075 0.21267 -2.9975 0.40966 -0.1448 0.03346 -0.2708 0.1222 -0.3511 0.24728 -0.0802 0.12508 -0.1084 0.27653 -0.0785 0.42213 0.6294 2.6578 0.7793 2.6378 2.1382 2.2981 0.0433 -0.0066 0.0849 -0.0216 0.1224 -0.0442 0.0374 -0.0226 0.0701 -0.0524 0.0961 -0.0877 0.026 -0.0353 0.0448 -0.0753 0.0553 -0.1178 0.0105 -0.0425 0.0125 -0.0867 0.0059 -0.13 -0.0065 -0.0433 -0.0215 -0.0849 -0.0442 -0.1224 -0.0226 -0.0375 -0.0524 -0.0701 -0.0877 -0.0961 -0.0352 -0.026 -0.0752 -0.0448 -0.1178 -0.0553 -0.0425 -0.0105 -0.0866 -0.0125 -0.1299 -0.0059 -0.2398 0 -0.4996 -0.05 -0.6195 0 -0.1699 -1.209 -0.1299 -0.9193 -0.1999 -1.309 0.7894 -0.2298 1.3989 -0.4795 2.3181 -0.79928 0.0808 -0.01457 0.1525 -0.06066 0.1994 -0.12812 0.0468 -0.06745 0.065 -0.15076 0.0504 -0.23158 -0.0146 -0.08082 -0.0607 -0.15255 -0.1281 -0.19939 -0.0675 -0.04685 -0.1508 -0.06497 -0.2316 -0.0504Z" fill="#000000" stroke-width="1"></path>
    </g>
  </g>
</svg>