<svg viewBox="0 0 24 24" fill="none" xmlns="http://www.w3.org/2000/svg" id="Credit-Card-Mastercard--Streamline-Freehand">
  <desc>
    Credit Card Mastercard Streamline Icon: https://streamlinehq.com
  </desc>
  <g id="credit-card-mastercard">
    <g id="Group">
      <path id="Vector" fill-rule="evenodd" clip-rule="evenodd" d="M23.7002 9.06554c-0.07 -0.92951 -0.12 -1.84902 -0.1999 -2.77852 -0.05 -0.61967 -0.1 -1.23934 -0.1799 -1.859 0 -0.12994 -0.07 -0.99947 -0.1399 -1.36927 -0.0179 -0.10523 -0.0596 -0.20497 -0.122 -0.29158 -0.0624 -0.08662 -0.1437 -0.15782 -0.2379 -0.20816 -1.1663 -0.3925 -2.3874 -0.59826 -3.618 -0.60967 -1.829 -0.04997 -3.728 0.15991 -5.3172 0.23987 -0.9994 0.04998 -1.9989 0.14992 -2.9184 0.25986 -2.22883 0.25986 -4.44764 0.62967 -6.69644 0.82956 -0.08482 0 -0.16617 0.0337 -0.22615 0.09368 -0.05998 0.05998 -0.09368 0.14132 -0.09368 0.22615 0 0.08482 0.0337 0.16617 0.09368 0.22615 0.05998 0.05998 0.14133 0.09368 0.22615 0.09368 2.25879 -0.14992 4.4876 -0.47975 6.73644 -0.70962 0.9994 -0.08995 1.9989 -0.1899 2.9084 -0.1899 1.5792 -0.04997 3.4482 -0.21988 5.2472 -0.12993 0.9999 0.02711 1.9915 0.18847 2.9484 0.47974 -0.1099 0.27985 0.1899 1.07942 0.1999 1.17937l0.3099 4.59754c0.0499 0.73961 0.2898 1.76901 0.2898 2.69861 0.0568 0.4792 -0.0719 0.9619 -0.3598 1.3492 -0.3951 0.4272 -0.9112 0.7235 -1.4792 0.8496 -0.9899 0.1732 -1.9935 0.2568 -2.9984 0.2498 -2.2388 0.16 -4.4476 0.4198 -6.6764 0.5797 -0.9395 0.07 -1.87904 0.12 -2.83853 0.14 -0.97369 0.0442 -1.94933 0.0141 -2.91844 -0.09 -0.58074 -0.0306 -1.13694 -0.244 -1.58915 -0.6097 -0.12043 -0.1681 -0.1961 -0.3642 -0.21988 -0.5697 -0.06997 -0.4397 -0.05997 -0.9195 -0.09995 -1.2393 -0.09995 -1.0594 -0.21988 -2.4887 -0.28985 -3.85794 -0.06996 -1.36927 -0.12993 -2.81849 -0.09994 -3.85794 0.00017 -0.07617 -0.02866 -0.14956 -0.08064 -0.20525 -0.05198 -0.05569 -0.1232 -0.08951 -0.19921 -0.09459 -0.07517 -0.00004 -0.14742 0.02912 -0.2015 0.08133 -0.05408 0.05222 -0.08576 0.1234 -0.08835 0.19852v3.90791c0 1.42926 0.13993 2.83846 0.22988 3.88796 0.00983 0.5116 0.04988 1.0222 0.11994 1.5291 0.05462 0.2714 0.1747 0.5253 0.34981 0.7397 0.41764 0.4088 0.94568 0.6868 1.51919 0.7995 1.18125 0.2312 2.38526 0.3251 3.58808 0.2799 0.99946 0 1.92894 0 2.89844 -0.07 2.2288 -0.1199 4.4376 -0.3598 6.6764 -0.4797 1.0626 0.0056 2.1233 -0.0881 3.1683 -0.2799 0.769 -0.1794 1.4657 -0.587 1.999 -1.1694 0.3978 -0.4349 0.6372 -0.9912 0.6796 -1.5791 -0.0126 -1.0957 -0.1129 -2.1886 -0.2998 -3.26826Z" fill="#000000" stroke-width="1"></path>
      <path id="Vector_2" fill-rule="evenodd" clip-rule="evenodd" d="M21.0016 16.8814c-0.0407 -0.0106 -0.083 -0.013 -0.1247 -0.0071 -0.0416 0.0059 -0.0816 0.0199 -0.1178 0.0412 -0.0362 0.0214 -0.0679 0.0496 -0.0931 0.0832 -0.0253 0.0336 -0.0437 0.0718 -0.0542 0.1125 -0.2432 0.9326 -0.5402 1.8503 -0.8895 2.7486 -0.196 0.5103 -0.4877 0.9785 -0.8596 1.3792 -0.0699 -0.1199 -0.4997 0 -0.9095 -0.0599 -1.1294 -0.1799 -2.9984 -0.6197 -5.0473 -1.1294 -1.6191 -0.3998 -3.36817 -0.8596 -4.9973 -1.3093 -2.38872 -0.6297 -4.56756 -1.2394 -5.89685 -1.7291 -0.32136 -0.1131 -0.63516 -0.2466 -0.93949 -0.3998 -0.075066 -0.0345 -0.145567 -0.0781 -0.209891 -0.1299 -0.045619 -0.1635 -0.045619 -0.3363 0 -0.4997 0.059968 -0.4098 0.209891 -0.8396 0.269851 -1.1394 0.12993 -0.6497 0.29984 -1.2794 0.45976 -1.8291 0.31983 -1.0494 0.61967 -1.789 0.61967 -1.789 0.01553 -0.0379 0.02258 -0.0787 0.02063 -0.1195 -0.00194 -0.0409 -0.01283 -0.0809 -0.03189 -0.1171 -0.01906 -0.0362 -0.04583 -0.0678 -0.07842 -0.0925 -0.03259 -0.0248 -0.07021 -0.0421 -0.11022 -0.0507 -0.03324 -0.0165 -0.06952 -0.0259 -0.10659 -0.0278 -0.03706 -0.0018 -0.0741 0.004 -0.1088 0.0172 -0.03471 0.0131 -0.06633 0.0332 -0.0929 0.0591 -0.02657 0.026 -0.04751 0.0571 -0.06151 0.0914 0 0 -0.33982 0.7496 -0.709619 1.819 -0.199893 0.5597 -0.399786 1.1994 -0.569695 1.869 -0.151242 0.4537 -0.2681756 0.9181 -0.3498133 1.3893 -0.0341637 0.2707 0.000203 0.5456 0.0999463 0.7996 0.527816 0.5347 1.180421 0.9297 1.898981 1.1494 0.78958 0.3098 1.79904 0.6796 2.9984 0.9994 1.35927 0.4198 2.91844 0.8596 4.47761 1.2594 2.80334 0.74 5.64644 1.3206 8.51544 1.739 0.4271 0.0911 0.8715 0.0564 1.2793 -0.0999 0.4976 -0.5147 0.8763 -1.1322 1.1094 -1.8091 0.3353 -0.9339 0.609 -1.8887 0.8196 -2.8584 0.0138 -0.0752 0.0002 -0.1528 -0.0383 -0.2188s-0.0994 -0.116 -0.1716 -0.141Z" fill="#000000" stroke-width="1"></path>
      <path id="Vector_3" fill-rule="evenodd" clip-rule="evenodd" d="M18.9227 6.76675c-0.4853 -0.80799 -1.2349 -1.42345 -2.1219 -1.74219 -0.887 -0.31874 -1.8569 -0.32117 -2.7455 -0.00688 -0.3754 0.15553 -0.7283 0.36058 -1.0494 0.60968 -0.4812 -0.31948 -1.0274 -0.52775 -1.5992 -0.60968 -0.7408 -0.11276 -1.49814 -0.03215 -2.19861 0.23403 -0.70046 0.26618 -1.32025 0.70888 -1.79921 1.28516 -0.48236 0.56054 -0.80321 1.24169 -0.92821 1.97056 -0.12499 0.72887 -0.04944 1.478 0.21859 2.16727 0.26675 0.6617 0.74458 1.2169 1.35927 1.5791 0.57508 0.3587 1.22468 0.581 1.89899 0.6497 0.07538 0.0085 0.15118 -0.0129 0.21098 -0.0596 0.0598 -0.0468 0.0989 -0.1151 0.1088 -0.1903 0.0056 -0.0376 0.0035 -0.0759 -0.0061 -0.1126 -0.0097 -0.0367 -0.0267 -0.071 -0.0501 -0.101 -0.0234 -0.0299 -0.0526 -0.0547 -0.0859 -0.073 -0.0333 -0.0183 -0.0699 -0.0296 -0.1077 -0.0332 -0.57446 -0.09 -1.12113 -0.3087 -1.59917 -0.6397 -0.46291 -0.3113 -0.81334 -0.7634 -0.99946 -1.2893 -0.16868 -0.5502 -0.18817 -1.13533 -0.05646 -1.69554 0.13171 -0.5602 0.40988 -1.07535 0.80606 -1.49275 0.372 -0.42913 0.84676 -0.7569 1.37988 -0.95267 0.53315 -0.19577 1.10715 -0.25313 1.66845 -0.16673 0.3106 0.04638 0.6113 0.14435 0.8896 0.28984 -0.2191 0.23603 -0.4133 0.49391 -0.5797 0.76959 -0.4096 0.68132 -0.5318 1.49738 -0.3398 2.26879 0.164 0.51712 0.4405 0.99157 0.8095 1.38927 0.3322 0.3726 0.7042 0.7078 1.1094 0.9995v0.0499c-0.2573 0.1985 -0.5515 0.344 -0.8654 0.428 -0.314 0.0841 -0.6415 0.1051 -0.9636 0.0618 -0.0421 -0.0071 -0.0851 -0.0058 -0.1266 0.004 -0.0416 0.0098 -0.0807 0.0278 -0.1152 0.053 -0.0344 0.0251 -0.0635 0.0569 -0.0855 0.0935 -0.022 0.0365 -0.0364 0.0771 -0.0425 0.1193 -0.0071 0.0421 -0.0057 0.0851 0.0041 0.1267 0.0098 0.0415 0.0278 0.0806 0.0529 0.1151 0.0252 0.0344 0.0569 0.0635 0.0935 0.0855 0.0366 0.022 0.0771 0.0364 0.1194 0.0425 0.4096 0.0732 0.8296 0.0649 1.236 -0.0242 0.4064 -0.0892 0.7913 -0.2576 1.1327 -0.4955l0.2798 -0.2499c0.5107 0.2568 1.0779 0.3805 1.6492 0.3598 4.0578 -0.0599 4.8274 -3.62802 3.4381 -5.81685Zm-6.7164 2.38872c-0.0566 -0.32508 -0.0384 -0.6588 0.0534 -0.97575 0.0918 -0.31696 0.2547 -0.60879 0.4763 -0.85327 0.0814 -0.11046 0.1716 -0.21408 0.2699 -0.30983 0.131 0.15477 0.2513 0.3184 0.3598 0.48973 0.4851 0.83087 0.7081 1.78885 0.6397 2.74855 -0.0295 0.3143 -0.1285 0.6182 -0.2899 0.8895 -0.2678 -0.2023 -0.5155 -0.4299 -0.7396 -0.6796 -0.3646 -0.3632 -0.6297 -0.81408 -0.7696 -1.30933Zm3.2683 2.71853c-0.3894 -0.017 -0.7708 -0.1158 -1.1194 -0.2898 0.2492 -0.3718 0.4099 -0.7958 0.4697 -1.2394 0.1586 -1.14378 -0.0478 -2.30847 -0.5897 -3.32818 -0.1246 -0.22199 -0.2684 -0.43268 -0.4297 -0.62967 0.1995 -0.12316 0.4103 -0.22692 0.6296 -0.30983 0.6652 -0.26317 1.4007 -0.2896 2.0831 -0.07487 0.6824 0.21473 1.2703 0.65756 1.6649 1.25424 0.9695 1.38925 1.1194 4.80741 -2.7085 4.61751Z" fill="#000000" stroke-width="1"></path>
    </g>
  </g>
</svg>