<svg viewBox="0 0 24 24" fill="none" xmlns="http://www.w3.org/2000/svg" id="Currency-International-Currency--Streamline-Freehand">
  <desc>
    Currency International Currency Streamline Icon: https://streamlinehq.com
  </desc>
  <g id="currency-international-currency">
    <g id="Group">
      <path id="Vector" fill-rule="evenodd" clip-rule="evenodd" d="M10.2911 14.5393c0.9593 -0.0259 1.9184 0.0613 2.8574 0.2598 0 0.1998 0 0.4196 -0.05 0.6094 -0.0098 0.0466 -0.0104 0.0947 -0.0016 0.1415 0.0087 0.0468 0.0266 0.0914 0.0525 0.1313 0.026 0.0399 0.0596 0.0743 0.0989 0.1012 0.0392 0.0269 0.0834 0.0458 0.13 0.0556 0.0466 0.0099 0.0946 0.0105 0.1414 0.0017 0.0468 -0.0087 0.0914 -0.0266 0.1313 -0.0525 0.0399 -0.026 0.0743 -0.0596 0.1012 -0.0989 0.0269 -0.0392 0.0459 -0.0834 0.0557 -0.13 0 -0.1798 0 -0.3896 0.0899 -0.5695 0.1898 0.0325 0.3768 0.0792 0.5595 0.1399 0.0877 0.0377 0.1866 0.0401 0.276 0.0066 0.0894 -0.0335 0.1623 -0.1003 0.2036 -0.1864 0.0203 -0.0427 0.0321 -0.0889 0.0345 -0.1361 0.0025 -0.0472 -0.0043 -0.0944 -0.0201 -0.1389s-0.0402 -0.0855 -0.0718 -0.1206c-0.0316 -0.0351 -0.0698 -0.0637 -0.1125 -0.084 -0.2298 -0.1199 -0.4895 -0.1898 -0.7293 -0.2897 0.1742 -1.07 0.2544 -2.1532 0.2398 -3.2371 0.1998 0 0.3996 0 0.5894 -0.06 0.8155 -0.1034 1.6187 -0.2875 2.3979 -0.5495 0.0453 -0.0137 0.0874 -0.0362 0.124 -0.0662 0.0366 -0.03 0.0669 -0.067 0.0892 -0.1088 0.0223 -0.0417 0.0361 -0.0875 0.0406 -0.1346 0.0046 -0.04714 -0.0002 -0.09469 -0.0141 -0.13996 -0.0298 -0.09225 -0.0947 -0.16909 -0.1807 -0.21394 -0.0859 -0.04486 -0.1861 -0.05413 -0.2788 -0.02584 -0.7425 0.19169 -1.5023 0.30883 -2.268 0.34968h-0.5195c-0.0511 -0.68675 -0.1378 -1.37038 -0.2598 -2.04814 -0.1182 -0.67538 -0.2783 -1.34274 -0.4795 -1.99819 1.1445 -0.2915 2.256 -0.69995 3.317 -1.2189 0.71 0.84675 1.225 1.83933 1.5086 2.90737 0.1037 0.45422 0.1771 0.91481 0.2198 1.37875 0.0666 0.45992 0.1 0.92403 0.0999 1.38877 -0.0028 0.0964 0.0323 0.19 0.0976 0.2609 0.0653 0.071 0.1558 0.1136 0.2521 0.1187 0.0472 0.0014 0.0943 -0.0066 0.1384 -0.0235 0.0441 -0.0168 0.0845 -0.0422 0.1189 -0.0747 0.0343 -0.0325 0.0619 -0.0714 0.0812 -0.1146 0.0193 -0.0431 0.0298 -0.0896 0.0311 -0.1369 0.0098 -0.49671 -0.0068 -0.99363 -0.0499 -1.48861 -0.0395 -0.50004 -0.1095 -0.99719 -0.2098 -1.48865 -0.4465 -2.02996 -1.6462 -3.81511 -3.357 -4.99547C14.0419 1.30916 12.0039 0.719399 9.9314 0.771797 7.38696 0.7612 4.92572 1.67751 3.00768 3.34946c-0.91954 0.86048 -1.65823 1.89569 -2.172885 3.04507C0.320145 7.54392 0.039878 8.7844 0.0103909 10.0434c-0.0455821 0.9265 0.0590085 1.8544 0.3097191 2.7475 0.255927 0.8893 0.657694 1.73 1.18892 2.4878 0.65412 0.945 1.50651 1.736 2.49774 2.3179 0.97494 0.5901 2.07934 0.9331 3.21709 0.9991 0.08587 0.0055 0.17051 -0.0227 0.23585 -0.0787 0.06533 -0.056 0.10619 -0.1354 0.11383 -0.2211 0.0027 -0.0428 -0.00324 -0.0857 -0.01747 -0.1262 -0.01423 -0.0404 -0.03646 -0.0776 -0.06536 -0.1093 -0.02889 -0.0317 -0.06387 -0.0573 -0.10285 -0.0751 -0.03898 -0.0179 -0.08117 -0.0278 -0.12404 -0.0291 -0.15985 -0.02 -0.25976 -0.02 -0.46957 -0.02v-0.0799c-0.33643 -0.8845 -0.54175 -1.8135 -0.60945 -2.7575 0.51953 -0.1099 0.99909 -0.1998 1.57857 -0.2797 0.83703 -0.1379 1.68078 -0.2313 2.52773 -0.2798ZM9.88145 1.95073h0.69935c0.6948 0.96817 1.2155 2.05007 1.5386 3.1971 -0.8327 0.09197 -1.6699 0.13867 -2.50771 0.13988 -0.59945 0 -1.2089 0 -1.82834 -0.05995 0.17343 -0.58101 0.40437 -1.14329 0.68938 -1.67848 0.38517 -0.60167 0.86026 -1.14078 1.40872 -1.59855ZM7.09397 7.2859c0.08992 -0.35968 0.19982 -0.69937 0.29973 -0.9991h0.20981c0.66064 0.11278 1.32831 0.17955 1.99819 0.19982 0.9505 0.02614 1.9011 -0.04416 2.8374 -0.20981 0.1599 0.59946 0.2998 1.2189 0.4197 1.85832 0.1198 0.59945 0.2098 1.21889 0.2797 1.83833l-1.8783 -0.02997c-1.2589 0 -2.52771 -0.08992 -3.76659 -0.17984l-0.99909 -0.07993c0.15517 -0.80977 0.3553 -1.61029 0.59945 -2.39782Zm9.20163 -3.12717c-1.016 0.35828 -2.0628 0.62249 -3.1271 0.78928 -0.3957 -1.07429 -0.9478 -2.08428 -1.6385 -2.99728 1.3117 0.13987 2.5734 0.58095 3.6866 1.28883 0.3899 0.26906 0.7514 0.57703 1.079 0.91917Zm-12.43869 0.09991c1.34264 -1.17448 2.99896 -1.93146 4.76568 -2.17803 -0.3143 0.31084 -0.60486 0.64481 -0.86921 0.9991 -0.44195 0.63394 -0.8138 1.31397 -1.109 2.02816 -0.86921 -0.15986 -1.71844 -0.35967 -2.57766 -0.49955 -0.04306 -0.01569 -0.08899 -0.02195 -0.13468 -0.01833 -0.04569 0.00361 -0.09007 0.017 -0.13013 0.03927 -0.04006 0.02226 -0.07486 0.05288 -0.10205 0.08977 -0.02719 0.0369 -0.04613 0.07921 -0.05553 0.12406 -0.00941 0.04486 -0.00906 0.09121 0.00102 0.13592 0.01008 0.04471 0.02965 0.08673 0.05739 0.12321 0.02774 0.03648 0.063 0.06657 0.10339 0.08823 0.04039 0.02166 0.08497 0.03439 0.1307 0.03731 0.79928 0.22979 1.57857 0.50954 2.37785 0.74932 -0.11989 0.31971 -0.24977 0.62943 -0.35967 0.9991 -0.26802 0.86498 -0.48158 1.74591 -0.63942 2.63761l-0.30972 -0.06994c-1.24824 -0.15791 -2.48131 -0.41856 -3.68666 -0.77929 0.33449 -1.73757 1.22522 -3.31914 2.5377 -4.50592ZM6.00496 17.6965c-0.56891 -0.185 -1.1126 -0.4401 -1.61853 -0.7593 -0.85928 -0.5693 -1.59079 -1.311 -2.14806 -2.1781 -0.88694 -1.3894 -1.287542 -3.034 -1.13897 -4.6757 0 -0.23982 0.07993 -0.44963 0.1099 -0.66943 1.29369 0.50828 2.63148 0.89623 3.99638 1.15893 -0.06993 0.6294 -0.12988 1.2789 -0.13987 1.9183 -0.00684 0.6276 0.02654 1.255 0.09991 1.8783 -0.48956 0.1998 -0.99909 0.4096 -1.41871 0.6394 -0.03874 0.0164 -0.07387 0.0402 -0.10338 0.0702 -0.02951 0.0299 -0.05283 0.0654 -0.0686 0.1044 -0.01578 0.039 -0.02371 0.0807 -0.02335 0.1227 0.00037 0.0421 0.00903 0.0836 0.02548 0.1223 0.03505 0.0765 0.09804 0.1368 0.17605 0.1683 0.07802 0.0316 0.16516 0.0322 0.24357 0.0016 0.41931 -0.1435 0.84624 -0.2635 1.27884 -0.3597 0.14495 0.8452 0.38978 1.6703 0.72934 2.4578Zm0.14987 -3.6467v-0.4097c0.01121 -0.9478 0.09808 -1.8933 0.25976 -2.8274 0.73933 0.1099 1.48865 0.1998 2.23797 0.2398 0.74932 0.0399 1.77844 0 2.68754 0l1.9183 -0.0899c0.0861 0.9533 0.1028 1.9116 0.0499 2.8674 -0.7645 -0.2515 -1.5558 -0.4125 -2.3578 -0.4796 -0.5788 -0.04 -1.15966 -0.04 -1.73844 0 -0.57164 0.0459 -1.13925 0.1327 -1.69847 0.2598 -0.47815 0.1174 -0.94862 0.2642 -1.40872 0.4396h0.04996Z" fill="#000000" stroke-width="1"></path>
      <path id="Vector_2" fill-rule="evenodd" clip-rule="evenodd" d="M23.9887 16.4975c-0.0179 -0.2383 -0.0513 -0.4753 -0.0999 -0.7093 -0.0999 -0.5095 -0.2498 -0.9991 -0.3597 -1.4787 0.0226 -0.3647 -0.0994 -0.7237 -0.3397 -0.9991 -0.2034 -0.2064 -0.4441 -0.3725 -0.7093 -0.4895 -0.3475 -0.1632 -0.7183 -0.271 -1.0991 -0.3197 -0.094 -0.0159 -0.1905 0.0062 -0.2683 0.0615 -0.0385 0.0273 -0.0712 0.062 -0.0963 0.102 -0.0251 0.0401 -0.0421 0.0846 -0.05 0.1312 -0.0078 0.0466 -0.0065 0.0943 0.0041 0.1403 0.0105 0.046 0.0301 0.0896 0.0574 0.1281 0.0553 0.0777 0.1392 0.1303 0.2333 0.1462 0.249 0.0585 0.4904 0.1457 0.7193 0.2598 0.2107 0.0906 0.3984 0.2271 0.5495 0.3996 0.0811 0.1238 0.1098 0.2747 0.0799 0.4196 -0.0048 0.0671 -0.0244 0.1323 -0.0572 0.191 -0.0327 0.0587 -0.078 0.1095 -0.1326 0.1487 -0.4088 0.2489 -0.8713 0.3962 -1.3488 0.4297 -0.7943 0.0696 -1.5945 0.0293 -2.3778 -0.1199l-0.8492 -0.2298 -0.5396 -0.2498c-0.0796 -0.0399 -0.149 -0.0976 -0.2027 -0.1686 -0.0537 -0.0711 -0.0903 -0.1535 -0.107 -0.241 0.0069 -0.0974 0.0356 -0.192 0.084 -0.2768 0.0484 -0.0847 0.1153 -0.1575 0.1958 -0.2128 0.3896 -0.294 0.8298 -0.5141 1.2988 -0.6494 0.4625 -0.1229 0.9453 -0.1501 1.4187 -0.0799 0.0414 0.0103 0.0844 0.0123 0.1265 0.0058 0.0421 -0.0065 0.0825 -0.0213 0.1188 -0.0437 0.0363 -0.0223 0.0678 -0.0517 0.0926 -0.0864 0.0248 -0.0346 0.0424 -0.0739 0.0518 -0.1155 0.0147 -0.0847 -0.0043 -0.1717 -0.0528 -0.2426 -0.0485 -0.0709 -0.1228 -0.1201 -0.207 -0.1371 -0.5828 -0.1256 -1.1856 -0.1256 -1.7684 0 -0.5922 0.1038 -1.1608 0.3137 -1.6785 0.6195 -0.2236 0.1288 -0.413 0.3095 -0.5521 0.5268 -0.1391 0.2174 -0.2239 0.465 -0.2472 0.722 -0.0189 0.2524 0.033 0.505 0.1499 0.7294 -0.1082 0.4278 -0.1916 0.8614 -0.2498 1.2988v1.3188c-0.3182 -0.1438 -0.6542 -0.2446 -0.9991 -0.2997 -0.0952 -0.0146 -0.1923 0.0086 -0.2707 0.0646 -0.0783 0.056 -0.1318 0.1403 -0.1489 0.2351 -0.012 0.0948 0.0121 0.1907 0.0677 0.2685 0.0556 0.0778 0.1384 0.1318 0.232 0.1511 0.2501 0.0502 0.4921 0.1343 0.7194 0.2498 0.2028 0.0897 0.3836 0.2227 0.5295 0.3896 0 0.1499 0.05 0.2798 0.0699 0.4197v0.1299c-0.0268 0.087 -0.0749 0.1659 -0.1398 0.2297 -0.4098 0.2454 -0.8722 0.3892 -1.3488 0.4197 -0.7793 0.1026 -1.5686 0.1026 -2.3479 0l-0.8492 -0.2398 -0.5395 -0.2498c-0.0785 -0.0389 -0.1471 -0.095 -0.2008 -0.1643 -0.0536 -0.0692 -0.0909 -0.1496 -0.1089 -0.2353 0.0037 -0.0981 0.0311 -0.1939 0.0798 -0.2791 0.0487 -0.0852 0.1173 -0.1575 0.1999 -0.2105 0.3869 -0.2984 0.828 -0.519 1.2988 -0.6494 0.4714 -0.1474 0.9696 -0.1884 1.4587 -0.1199 0.0414 0.0088 0.084 0.0092 0.1255 0.0014 0.0416 -0.0079 0.0811 -0.0239 0.1164 -0.0471 0.0353 -0.0232 0.0657 -0.0532 0.0893 -0.0882 0.0237 -0.0351 0.0401 -0.0744 0.0485 -0.1159 0.0087 -0.0413 0.0092 -0.084 0.0013 -0.1255 -0.0078 -0.0415 -0.0238 -0.0811 -0.047 -0.1164 -0.0233 -0.0353 -0.0532 -0.0657 -0.0883 -0.0893 -0.035 -0.0236 -0.0744 -0.0401 -0.1158 -0.0484 -0.5828 -0.1256 -1.1856 -0.1256 -1.7684 0 -0.5934 0.1051 -1.1623 0.3185 -1.6785 0.6294 -0.22587 0.1261 -0.41705 0.3061 -0.55651 0.524 -0.13945 0.2179 -0.22285 0.4669 -0.24275 0.7249 0.00656 0.1601 0.03686 0.3183 0.08991 0.4696 0 0.1598 -0.06993 0.3197 -0.0999 0.4995 -0.0102 0.153 -0.0102 0.3066 0 0.4596 0.00519 0.158 0.02526 0.3153 0.05994 0.4696 0.05741 0.3052 0.13757 0.6058 0.23978 0.8991 -0.04775 0.068 -0.06715 0.152 -0.0541 0.234 0.01306 0.0821 0.05754 0.1558 0.12404 0.2056 0.24484 0.2322 0.52469 0.4244 0.82929 0.5695 0.2861 0.1493 0.5834 0.2763 0.8892 0.3797 0.3496 0.1051 0.7071 0.1819 1.069 0.2298 0.3652 0.0399 0.7337 0.0399 1.099 0 0.725 -0.1029 1.4237 -0.3437 2.0581 -0.7094 0.044 -0.0184 0.0839 -0.0452 0.1175 -0.079 0.0335 -0.0338 0.0601 -0.0738 0.0782 -0.1179 0.0181 -0.0441 0.0273 -0.0913 0.0272 -0.1389 -0.0002 -0.0477 -0.0097 -0.0948 -0.0281 -0.1388 -0.0183 -0.0439 -0.0452 -0.0838 -0.079 -0.1174 -0.0337 -0.0336 -0.0738 -0.0602 -0.1179 -0.0783 -0.0441 -0.018 -0.0913 -0.0273 -0.1389 -0.0271 -0.0476 0.0001 -0.0948 0.0097 -0.1387 0.028 -0.484 0.1429 -0.9843 0.2235 -1.4887 0.2398 -0.3692 0.0246 -0.7397 0.0246 -1.109 0 -0.3714 -0.0094 -0.7418 -0.0427 -1.109 -0.0999 -0.337 -0.0108 -0.672 -0.0577 -0.9991 -0.1399l-0.2597 -0.1099c0 -0.3397 0.0899 -0.6694 0.1299 -0.9991v-0.3796l0.2797 0.1498c0.1826 0.077 0.3694 0.1438 0.5595 0.1999 0.1906 0.0538 0.3841 0.0972 0.5795 0.1298 0.9005 0.1388 1.817 0.1388 2.7175 0 0.4098 -0.0771 0.8067 -0.2116 1.1789 -0.3996 0.06 0.3597 0.1699 0.6794 0.2598 0.9991 0.0026 0.0473 0.0144 0.0935 0.0349 0.1362 0.0205 0.0427 0.0492 0.0809 0.0844 0.1124 0.0353 0.0316 0.0765 0.0559 0.1211 0.0715 0.0447 0.0156 0.092 0.0223 0.1393 0.0196 0.0963 -0.0052 0.1867 -0.0478 0.252 -0.1187 0.0654 -0.0709 0.1004 -0.1646 0.0976 -0.261 0 -0.2298 0.07 -0.4596 0.1099 -0.6893 0.4979 0.3013 1.0361 0.5301 1.5986 0.6793 0.3646 0.0789 0.736 0.1224 1.109 0.1299 0.3652 0.01 0.7304 -0.0202 1.089 -0.0899 0.8455 -0.1523 1.6552 -0.4606 2.3878 -0.9092 0.0844 -0.0428 0.1485 -0.1172 0.1784 -0.2069 0.03 -0.0898 0.0233 -0.1877 -0.0185 -0.2726 -0.0192 -0.0436 -0.0472 -0.0828 -0.0821 -0.1152 -0.035 -0.0324 -0.0761 -0.0573 -0.121 -0.0732 -0.0449 -0.0159 -0.0926 -0.0225 -0.1402 -0.0193 -0.0475 0.0032 -0.0939 0.0161 -0.1363 0.0378 -0.7054 0.257 -1.4475 0.3986 -2.198 0.4196h-0.9391c-0.3097 0 -0.6295 0 -0.9392 -0.0599 -0.5974 -0.0438 -1.1876 -0.1579 -1.7584 -0.3397 0.0099 -0.1197 0.0099 -0.24 0 -0.3597v-1.4287c0.4871 0.2874 1.0116 0.506 1.5586 0.6494 0.3646 0.0789 0.736 0.1224 1.109 0.1299 0.3652 0.01 0.7304 -0.0202 1.089 -0.0899 0.768 -0.1501 1.5047 -0.4305 2.178 -0.8293 0.0486 0.2973 0.072 0.5981 0.07 0.8992 -0.007 0.0468 -0.0045 0.0944 0.0075 0.1402 0.0119 0.0457 0.033 0.0885 0.0619 0.1259 0.029 0.0373 0.0652 0.0684 0.1065 0.0914 0.0413 0.0229 0.0868 0.0373 0.1338 0.0422 0.0473 0.007 0.0955 0.0045 0.1419 -0.0073 0.0463 -0.0118 0.0898 -0.0328 0.1279 -0.0616 0.0382 -0.0288 0.0702 -0.065 0.0942 -0.1063 0.024 -0.0414 0.0395 -0.0871 0.0456 -0.1346 0.1491 -0.5551 0.2396 -1.1244 0.2698 -1.6984 0.0151 -0.2429 0.0151 -0.4865 0 -0.7294Zm-3.357 1.129h-0.9391c-0.3097 0 -0.6295 0 -0.9392 -0.0599 -0.5983 -0.0501 -1.1885 -0.1708 -1.7584 -0.3597v-1.5786l0.4196 0.2398c0.1828 0.0737 0.3696 0.1371 0.5595 0.1898 0.1895 0.0586 0.3832 0.102 0.5795 0.1299 0.9005 0.1393 1.8171 0.1393 2.7175 0 0.5448 -0.1002 1.0643 -0.3074 1.5287 -0.6094 -0.01 0.1963 -0.01 0.3931 0 0.5894 0 0.3597 0.0599 0.7194 0.0999 1.0691 -0.7356 0.2564 -1.5089 0.3881 -2.288 0.3896h0.02Z" fill="#000000" stroke-width="1"></path>
    </g>
  </g>
</svg>