<svg viewBox="0 0 24 24" fill="none" xmlns="http://www.w3.org/2000/svg" id="Money-Bill-Fly--Streamline-Freehand">
  <desc>
    Money Bill Fly Streamline Icon: https://streamlinehq.com
  </desc>
  <g id="money-bill-fly">
    <g id="Group">
      <path id="Vector" fill-rule="evenodd" clip-rule="evenodd" d="M20.9169 12.1273c0.0451 -0.0034 0.0889 -0.0163 0.1286 -0.0378 0.0398 -0.0216 0.0745 -0.0513 0.1019 -0.0873 0.0274 -0.0359 0.0469 -0.0772 0.0572 -0.1213 0.0104 -0.044 0.0112 -0.0897 0.0026 -0.134 -0.0572 -0.6781 -0.1813 -1.3489 -0.3704 -2.00256 -0.0863 -0.26684 -0.1899 -0.52773 -0.3104 -0.78098 -0.1333 -0.26451 -0.2803 -0.52185 -0.4406 -0.77096 -2.0025 -2.93369 -1.3016 -1.30164 -3.7747 -0.66083 -1.028 0.23241 -2.0802 0.33999 -3.1339 0.3204 -1.0474 0.03547 -2.088 0.18317 -3.1039 0.44055 -1.00449 0.25036 -1.96618 0.64853 -2.85362 1.18149 -0.29696 0.17297 -0.56406 0.39273 -0.791 0.65079 -0.07061 0.0764 -0.12482 0.1665 -0.15926 0.2646 -0.03444 0.0982 -0.04839 0.2024 -0.04099 0.3061 0.03606 0.1458 0.10839 0.2802 0.21027 0.3905 0.17021 0.1702 0.41051 0.3605 0.50062 0.4506 0.06312 0.053 0.14289 0.082 0.22529 0.082s0.16216 -0.029 0.22528 -0.082c0.02794 -0.0253 0.05027 -0.0563 0.06555 -0.0907 0.01528 -0.0345 0.02318 -0.0718 0.02318 -0.1096 0 -0.0377 -0.0079 -0.075 -0.02318 -0.1095 -0.01528 -0.0345 -0.03761 -0.0654 -0.06555 -0.0907l-0.38048 -0.5006v-0.0501c0.07913 -0.0832 0.17025 -0.154 0.27034 -0.2103 0.1602 -0.1001 0.31039 -0.1802 0.41052 -0.2303 0.86723 -0.38418 1.7737 -0.67291 2.70343 -0.86103 0.9342 -0.21669 1.8858 -0.35071 2.8435 -0.40051 -0.5981 0.15856 -1.1092 0.5473 -1.4218 1.08136 -0.1429 0.22588 -0.2246 0.48518 -0.2371 0.75218 -0.0126 0.2671 0.0446 0.5328 0.1657 0.7711 0.1212 0.2383 0.3023 0.441 0.5254 0.5882 0.2232 0.1472 0.4808 0.2339 0.7476 0.2515 0.3003 0 3.1239 0.1602 2.4731 -2.2228 -0.1093 -0.42581 -0.3782 -0.79327 -0.751 -1.02626 -0.3728 -0.23299 -0.8209 -0.31367 -1.2516 -0.22531 1.0605 -0.07074 2.109 -0.26564 3.124 -0.58073 0.6509 -0.23413 1.2596 -0.57227 1.8022 -1.00126 0.3004 0.57072 0.5507 1.13142 0.8111 1.6721 0.2603 0.54068 0.4605 0.89112 0.6708 1.36166 0.2103 0.4706 0.4305 1.0013 0.6208 1.532 0.0147 0.0915 0.0652 0.1735 0.1402 0.2279 0.0751 0.0544 0.1687 0.0769 0.2603 0.0624Zm-6.4181 -2.0025c0 0.1102 0.6508 1.7122 -1.1614 1.3918 -0.1267 -0.0164 -0.2473 -0.0645 -0.3505 -0.1397 -0.1032 -0.0753 -0.1859 -0.1753 -0.2403 -0.2909 -0.0506 -0.1421 -0.0642 -0.2947 -0.0397 -0.4436 0.0245 -0.1488 0.0864 -0.289 0.1799 -0.4074 0.1477 -0.29115 0.4025 -0.51366 0.7109 -0.62082 0.0934 -0.0271 0.1912 -0.03504 0.2878 -0.02333 0.0965 0.01171 0.1896 0.04281 0.2738 0.09145s0.1577 0.1138 0.216 0.19157c0.0584 0.07777 0.1004 0.16653 0.1235 0.26093v-0.01Z" fill="#000000" stroke-width="1"></path>
      <path id="Vector_2" fill-rule="evenodd" clip-rule="evenodd" d="M8.47124 14.7907c-0.0746 0.0422 -0.12988 0.1117 -0.15417 0.1939 -0.02429 0.0822 -0.01568 0.1706 0.024 0.2466l0.14018 0.2904c0.14203 0.3474 0.31284 0.6823 0.51064 1.0012 0.04286 0.0566 0.09705 0.1037 0.15912 0.1382 0.06206 0.0345 0.13063 0.0556 0.20133 0.0621 0.22473 0.0109 0.44766 -0.0448 0.64081 -0.1602 0.30145 -0.1825 0.58925 -0.3866 0.86105 -0.6108 0.372 -0.2883 0.7598 -0.5557 1.1615 -0.801 0.3972 -0.2502 0.8084 -0.4775 1.2315 -0.6808 0.6509 -0.3026 1.3554 -0.4727 2.0726 -0.5007 1.1915 -0.1101 2.4131 -0.07 3.5745 -0.2803 0.526 -0.083 1.0381 -0.238 1.5219 -0.4606 0.0522 -0.013 0.1009 -0.0372 0.1428 -0.071 0.0419 -0.0337 0.0759 -0.0761 0.0997 -0.1243 0.0238 -0.0482 0.0369 -0.101 0.0382 -0.1548 0.0014 -0.0538 -0.009 -0.1072 -0.0303 -0.1565 -0.0214 -0.0493 -0.0532 -0.0934 -0.0934 -0.1292 -0.0401 -0.0358 -0.0875 -0.0625 -0.139 -0.0781 -0.0514 -0.0156 -0.1056 -0.0199 -0.1589 -0.0124 -0.0532 0.0074 -0.1042 0.0263 -0.1494 0.0555 -1.0879 0.3185 -2.2302 0.4071 -3.3542 0.2603 -0.8242 -0.0588 -1.652 -0.0421 -2.4731 0.0501 -0.5509 0.0862 -1.0847 0.2585 -1.582 0.5106 -0.365 0.1909 -0.7193 0.4015 -1.0614 0.6308 -0.503 0.3538 -0.9783 0.7454 -1.4217 1.1715 -0.1102 0.1101 -0.29041 0.3003 -0.49067 0.4706 -0.05798 0.0449 -0.11162 0.0952 -0.1602 0.1501 -0.14232 -0.2225 -0.31035 -0.4275 -0.50063 -0.6107l-0.18022 -0.2904c-0.0436 -0.0705 -0.1128 -0.1213 -0.19307 -0.1418 -0.08028 -0.0206 -0.16539 -0.0092 -0.23747 0.0317Z" fill="#000000" stroke-width="1"></path>
      <path id="Vector_3" fill-rule="evenodd" clip-rule="evenodd" d="M2.79411 16.2926c0.30897 -0.2243 0.6002 -0.472 0.8711 -0.741 0.38048 -0.3704 0.73092 -0.7809 1.08136 -1.1915 0.49128 -0.6708 1.13695 -1.2135 1.88236 -1.5819 0.04058 -0.0104 0.07865 -0.0289 0.1119 -0.0544 0.03326 -0.0254 0.06101 -0.0574 0.08159 -0.0939 0.02058 -0.0365 0.03357 -0.0767 0.03817 -0.1184 0.0046 -0.0416 0.00073 -0.0837 -0.01138 -0.1238 -0.02335 -0.0805 -0.07731 -0.1487 -0.1503 -0.1899 -0.073 -0.0411 -0.15923 -0.0521 -0.24019 -0.0304 -0.5574 0.1099 -1.08797 0.3276 -1.56197 0.6408 -0.355 0.2356 -0.6899 0.5001 -1.00125 0.791 -0.30038 0.2803 -0.58073 0.5907 -0.86108 0.8911l-0.52066 0.4806c-0.52665 0.725 -1.29882 1.2338 -2.172725 1.4318 -0.096518 0.0077 -0.186189 0.0529 -0.2498159 0.1259 -0.0636265 0.0729 -0.09615147 0.1679 -0.090611718 0.2646 0.002557798 0.0474 0.014437118 0.0937 0.034957018 0.1365 0.02052 0.0428 0.0492771 0.0811 0.0846226 0.1127 0.035346 0.0316 0.076586 0.0559 0.121356 0.0716 0.04477 0.0157 0.09219 0.0223 0.139542 0.0196 0.874605 -0.0093 1.722105 -0.3047 2.413025 -0.841Z" fill="#000000" stroke-width="1"></path>
      <path id="Vector_4" fill-rule="evenodd" clip-rule="evenodd" d="M3.64521 18.3351c0.37775 -0.3641 0.7354 -0.7484 1.07134 -1.1514 0.31187 -0.396 0.64618 -0.7737 1.00126 -1.1314 0.2968 -0.299 0.63379 -0.5551 1.00126 -0.761 0.07661 -0.035 0.13637 -0.0987 0.16635 -0.1774 0.02998 -0.0787 0.02777 -0.166 -0.00615 -0.2431 -0.0164 -0.0388 -0.04029 -0.0741 -0.07031 -0.1036 -0.03002 -0.0296 -0.06558 -0.053 -0.10464 -0.0688 -0.03907 -0.0158 -0.08086 -0.0237 -0.123 -0.0234 -0.04214 0.0004 -0.0838 0.0091 -0.12258 0.0256 -0.60957 0.1961 -1.17679 0.5052 -1.6721 0.9111 -0.35413 0.2841 -0.68865 0.5919 -1.00126 0.9212 -0.29036 0.3104 -0.5607 0.6608 -0.86108 1.0012 -0.27009 0.3336 -0.5832 0.6299 -0.93117 0.8811 -0.32845 0.2368 -0.71727 0.3757 -1.121404 0.4005 -0.094978 -0.0028 -0.18743 0.0309 -0.258243 0.0942 -0.070814 0.0634 -0.114574 0.1515 -0.122235 0.2463 -0.002704 0.0473 0.003964 0.0947 0.019621 0.1395 0.015657 0.0448 0.039996 0.086 0.071621 0.1214 0.031625 0.0353 0.069916 0.0641 0.112676 0.0846 0.04276 0.0205 0.089149 0.0324 0.136509 0.0349 0.398875 0.0241 0.798285 -0.0373 1.171475 -0.1802 0.60718 -0.2332 1.16445 -0.5798 1.64206 -1.0213Z" fill="#000000" stroke-width="1"></path>
      <path id="Vector_5" fill-rule="evenodd" clip-rule="evenodd" d="M8.3611 16.7632c-0.01639 -0.0389 -0.04028 -0.0741 -0.07031 -0.1036 -0.03002 -0.0296 -0.06558 -0.053 -0.10464 -0.0688s-0.08086 -0.0238 -0.123 -0.0234c-0.04214 0.0004 -0.08379 0.0091 -0.12258 0.0255 -0.60613 0.2042 -1.17198 0.5125 -1.6721 0.9112 -0.35413 0.2841 -0.68864 0.5919 -1.00125 0.9211 -0.30038 0.3204 -0.56071 0.6609 -0.8711 1.0013 -0.26129 0.3381 -0.5718 0.6351 -0.92115 0.8811 -0.3263 0.2409 -0.71636 0.3802 -1.12141 0.4005 -0.04735 -0.0027 -0.09477 0.004 -0.13954 0.0196 -0.04477 0.0157 -0.08601 0.04 -0.12136 0.0717 -0.03535 0.0316 -0.0641 0.0699 -0.08462 0.1126 -0.02052 0.0428 -0.0324 0.0892 -0.03496 0.1365 -0.00554 0.0967 0.02699 0.1917 0.09061 0.2647 0.06363 0.073 0.1533 0.1181 0.24982 0.1258 0.44374 0.0539 0.89391 -0.0011 1.31164 -0.1602 0.59982 -0.2268 1.15048 -0.5667 1.62204 -1.0012 0.37047 -0.3805 0.74093 -0.761 1.07135 -1.1615 0.3088 -0.3985 0.64326 -0.7764 1.00125 -1.1314 0.29248 -0.3038 0.63023 -0.5605 1.00126 -0.761 0.03363 -0.0271 0.06143 -0.0607 0.08174 -0.0988 0.02032 -0.0381 0.03271 -0.0799 0.03645 -0.1229 0.00375 -0.043 -0.00125 -0.0864 -0.01468 -0.1274 -0.01343 -0.0411 -0.03501 -0.079 -0.06346 -0.1114Z" fill="#000000" stroke-width="1"></path>
      <path id="Vector_6" fill-rule="evenodd" clip-rule="evenodd" d="M4.45621 11.847c0.0164 0.0388 0.04029 0.074 0.07031 0.1036 0.03002 0.0296 0.06558 0.0529 0.10465 0.0687 0.03906 0.0158 0.08086 0.0238 0.123 0.0234 0.04214 -0.0003 0.08379 -0.009 0.12257 -0.0255 0.07131 -0.0402 0.12453 -0.1062 0.14874 -0.1844 0.0242 -0.0782 0.01756 -0.1627 -0.01857 -0.2361 0 -0.1302 -0.30038 -0.5808 -0.46058 -1.0013 -0.0801 -0.2002 -0.17022 -0.3705 -0.14018 -0.4706 0.03661 -0.0955 0.09487 -0.18115 0.17022 -0.25029 0.15971 -0.17101 0.33028 -0.33154 0.51064 -0.48061 0.42031 -0.37277 0.87262 -0.70782 1.35169 -1.00125 0.49672 -0.30652 1.02344 -0.5615 1.57198 -0.76096 1.17658 -0.44554 2.41042 -0.72197 3.66462 -0.82103 0.8911 -0.11014 1.7722 -0.23029 2.6433 -0.42053 0.562 -0.12705 1.1141 -0.29436 1.6521 -0.50063 0.687 -0.27979 1.3335 -0.6502 1.9224 -1.10138 0.5057 -0.40229 0.9657 -0.85893 1.3717 -1.36171 0.2203 0.37046 0.4506 0.74093 0.6408 1.12141 0.1903 0.38048 0.4105 0.91114 0.6108 1.38173 0.2002 0.47059 0.4105 0.92116 0.6107 1.38174 0.6509 1.40176 1.3117 2.80351 2.0026 4.17521 0.0177 0.0441 0.044 0.0842 0.0772 0.1181 0.0333 0.0339 0.0729 0.0609 0.1166 0.0795 0.0437 0.0186 0.0906 0.0284 0.1381 0.0289 0.0475 0.0004 0.0946 -0.0085 0.1387 -0.0262 0.044 -0.0178 0.0841 -0.044 0.118 -0.0773 0.0339 -0.0332 0.0609 -0.0728 0.0795 -0.1165s0.0284 -0.0907 0.0289 -0.1382c0.0005 -0.0474 -0.0084 -0.0946 -0.0262 -0.1386 -0.4606 -1.0914 -0.771 -2.25284 -1.1715 -3.2541 -0.2604 -0.73836 -0.5647 -1.46055 -0.9111 -2.16271 -2.6734 -5.126437 -2.4431 -3.00377 -4.3755 -1.65208 -0.5512 0.3429 -1.1432 0.61536 -1.7622 0.81102 -0.8855 0.25719 -1.7945 0.42491 -2.7134 0.50063 -1.0013 0.11014 -1.9325 0.18023 -2.87363 0.35044 -0.85819 0.14927 -1.69527 0.4014 -2.49313 0.75094 -0.56543 0.28063 -1.102 0.61598 -1.60202 1.00126 -0.50406 0.35902 -0.97037 0.7683 -1.39174 1.22154 -0.22251 0.21722 -0.42368 0.45527 -0.60076 0.71089 -0.11515 0.13757 -0.19123 0.30356 -0.22027 0.4806 -0.01619 0.25707 0.03927 0.51357 0.1602 0.74097 0.1602 0.4505 0.54068 0.9912 0.61076 1.1314Z" fill="#000000" stroke-width="1"></path>
      <path id="Vector_7" fill-rule="evenodd" clip-rule="evenodd" d="M23.7705 12.2775c-0.0929 -0.0249 -0.1919 -0.0127 -0.276 0.034 -0.0841 0.0467 -0.1467 0.1243 -0.1746 0.2163 -0.0569 0.1898 -0.1306 0.3741 -0.2203 0.5507 -0.0809 0.1715 -0.1817 0.3328 -0.3004 0.4806 -0.5594 0.6863 -1.3495 1.1454 -2.2228 1.2917 -1.0941 0.1303 -2.1999 0.1303 -3.2941 0 -1.2243 -0.1122 -2.4585 0.031 -3.6245 0.4205 -0.6544 0.2711 -1.2625 0.6427 -1.8023 1.1014 -0.7546 0.6687 -1.4268 1.425 -2.00252 2.2528l-0.99124 1.3517v0.1001l-0.05007 -0.05 -0.66083 -1.0514c-0.04629 -0.0644 -0.1142 -0.11 -0.19132 -0.1284 -0.07713 -0.0185 -0.15834 -0.0086 -0.22878 0.0278 -0.07045 0.0364 -0.12544 0.097 -0.15493 0.1706 -0.02949 0.0736 -0.03151 0.1554 -0.0057 0.2304l0.56071 1.1615c0.10318 0.1929 0.21682 0.3801 0.34042 0.5607 0.05717 0.0857 0.14257 0.1486 0.24135 0.1779 0.09879 0.0293 0.2047 0.023 0.29933 -0.0177 0.07957 -0.0481 0.15062 -0.109 0.21027 -0.1802 0.12015 -0.1402 0.23029 -0.3605 0.3204 -0.4706l1.00121 -1.2716c0.5014 -0.5915 1.0506 -1.1407 1.6421 -1.6421 0.5594 -0.4906 1.1952 -0.8863 1.8824 -1.1715 1.0103 -0.3275 2.0751 -0.4533 3.1339 -0.3704 1.1869 0.0738 2.3784 -0.0069 3.5445 -0.2403 1.0713 -0.2404 2.0162 -0.868 2.6533 -1.7622 0.1419 -0.1989 0.2596 -0.414 0.3504 -0.6409 0.0917 -0.2182 0.1686 -0.4423 0.2303 -0.6708 0.03 -0.0891 0.0249 -0.1863 -0.0142 -0.2718 -0.039 -0.0855 -0.1091 -0.153 -0.196 -0.1888Z" fill="#000000" stroke-width="1"></path>
    </g>
  </g>
</svg>