<svg viewBox="0 0 24 24" fill="none" xmlns="http://www.w3.org/2000/svg" id="Money-Coin-Purse--Streamline-Freehand">
  <desc>
    Money Coin Purse Streamline Icon: https://streamlinehq.com
  </desc>
  <g id="money-coin-purse">
    <g id="Group">
      <path id="Vector" fill-rule="evenodd" clip-rule="evenodd" d="M23.4447 17.6029c-0.2998 -1.999 -1.8191 -3.9981 -2.7487 -5.9972 -0.2799 -0.7796 -0.4498 -1.0895 -0.5298 -1.3394 -0.0154 -0.0599 -0.0503 -0.1129 -0.0991 -0.1509 -0.0488 -0.038 -0.1089 -0.0587 -0.1707 -0.059 0.0369 -0.0396 0.0635 -0.08762 0.0774 -0.13991 0.014 -0.0523 0.0148 -0.10722 0.0025 -0.15992 -0.1488 -0.60011 -0.3426 -1.18817 -0.5797 -1.75919 -0.1883 -0.41986 -0.4684 -0.79216 -0.8196 -1.0895 -0.4382 -0.35409 -0.9454 -0.61282 -1.4893 -0.75965 -0.7529 -0.18562 -1.5177 -0.31921 -2.289 -0.39982 -1.3242 -0.19774 -2.6596 -0.31125 -3.9981 -0.33984 -0.91611 0.00253 -1.82868 0.11325 -2.71878 0.32985 -0.77389 0.14835 -1.50019 0.48236 -2.11652 0.97333 -0.61633 0.49098 -1.10425 1.12423 -1.42185 1.84537 -0.0229 0.06875 -0.0192 0.14359 0.01034 0.20976 0.02955 0.06617 0.08281 0.11887 0.14929 0.14772 0.06647 0.02884 0.14134 0.03175 0.20985 0.00813 0.06851 -0.02361 0.12569 -0.07204 0.16027 -0.13572 0.31579 -0.60085 0.77455 -1.1148 1.33582 -1.49654 0.56128 -0.38173 1.20784 -0.61954 1.8827 -0.69245 0.82892 -0.13597 1.66963 -0.18621 2.50888 -0.14993 1.4093 0 2.7987 0.18991 3.8782 0.31985 0.7302 0.03324 1.4579 0.11001 2.179 0.2299 0.435 0.08696 0.847 0.26401 1.2094 0.51976 0.2804 0.20886 0.5094 0.47892 0.6697 0.78963 0.2581 0.54394 0.4687 1.1091 0.6297 1.68922 0.021 0.05105 0.0552 0.09555 0.0991 0.12895 0.044 0.0334 0.096 0.0544 0.1508 0.061 -0.0318 0.0384 -0.0538 0.0838 -0.0642 0.1326 -0.0105 0.0487 -0.009 0.0992 0.0042 0.1472 0.4898 2.1191 1.9991 4.1881 2.6688 6.2771 0.2337 0.6447 0.3067 1.3367 0.2126 2.016 -0.0941 0.6792 -0.3523 1.3253 -0.7524 1.8822 -0.484 0.7137 -1.1548 1.2808 -1.9391 1.6393 -1.2754 0.5059 -2.6271 0.7932 -3.9981 0.8496L12 23.4103l-3.71828 -0.3199c-1.371 -0.0564 -2.72267 -0.3436 -3.99815 -0.8496 -0.78431 -0.3585 -1.45507 -0.9255 -1.93911 -1.6392 -0.40006 -0.557 -0.6583 -1.2031 -0.75235 -1.8823 -0.09406 -0.6793 -0.02108 -1.3712 0.2126 -2.0159 0.59972 -2.0891 2.19899 -4.1581 2.63878 -6.2771 0.01934 -0.0425 0.02918 -0.0886 0.02882 -0.1352 -0.00036 -0.0466 -0.01091 -0.0926 -0.0309 -0.1347 -0.01999 -0.0421 -0.04895 -0.0794 -0.08484 -0.1091 -0.0359 -0.0298 -0.07786 -0.0513 -0.12295 -0.06313 -0.0451 -0.01183 -0.09223 -0.01365 -0.1381 -0.00535 -0.04588 0.0083 -0.08938 0.02648 -0.12747 0.05338 -0.03809 0.0269 -0.06985 0.0618 -0.09304 0.1022 -0.02319 0.0405 -0.03727 0.0855 -0.04124 0.1319 -0.35983 1.7292 -2.978623 5.2576 -3.278485 7.3366 -0.184074 1.2699 0.127286 2.5618 0.869595 3.6084 0.59313 0.8849 1.42977 1.5792 2.40889 1.9991 1.4123 0.4936 2.90236 0.7273 4.39798 0.6896l3.64835 0.1h0.2399l3.6483 -0.1c1.4956 0.0377 2.9856 -0.196 4.3979 -0.6896 0.9792 -0.4199 1.8158 -1.1142 2.4089 -1.9991 0.7423 -1.0466 1.0537 -2.3385 0.8696 -3.6084Z" fill="#000000" stroke-width="1"></path>
      <path id="Vector_2" fill-rule="evenodd" clip-rule="evenodd" d="M3.00415 10.3763c-0.18669 -0.2069 -0.30836 -0.46413 -0.34984 -0.73968 -0.08409 -0.61054 -0.02589 -1.23225 0.17004 -1.81657 0.19593 -0.58433 0.52429 -1.11545 0.95944 -1.55188C5.25822 5.06463 7.0982 4.39843 9.00138 4.37904h4.39802c1.7791 0 3.5883 0 4.4079 0.10995 1.0432 0.08721 2.0326 0.49977 2.8287 1.17946 0.4022 0.31253 0.7319 0.70842 0.9666 1.16048 0.2346 0.45205 0.3687 0.94955 0.3928 1.45831 -0.0103 0.56106 -0.1689 1.10939 -0.4598 1.58927 -0.2099 0.36979 -0.09 0.29989 -0.4198 0.54979 -0.2799 0.4497 -0.1 0.9395 0.2799 0.6197 0.3232 -0.1837 0.5816 -0.4631 0.7396 -0.7997 0.3707 -0.58259 0.5874 -1.24981 0.6297 -1.93907 -0.0093 -0.62873 -0.1512 -1.24842 -0.4165 -1.81854 -0.2652 -0.57012 -0.6478 -1.07783 -1.1228 -1.48993 -0.9176 -0.83542 -2.0753 -1.36008 -3.3084 -1.49931 -0.3299 0 -0.8196 -0.07996 -1.3994 -0.10995 0.0735 -0.00875 0.1411 -0.04435 0.1899 -0.09995 0.1971 -0.17555 0.3519 -0.3934 0.4528 -0.63725 0.1009 -0.24384 0.1453 -0.50736 0.1299 -0.77082 -0.0154 -0.26345 -0.0902 -0.52001 -0.2188 -0.75045 -0.1286 -0.23045 -0.3077 -0.428808 -0.5238 -0.580222 -0.4112 -0.320919 -0.9095 -0.5106541 -1.4301 -0.54452473 -0.5205 -0.03387057 -1.0392 0.08969123 -1.4886 0.35461273 -0.3783 0.269003 -0.6449 0.667244 -0.7496 1.119484 -0.125 -0.36731 -0.3543 -0.690302 -0.6597 -0.929572 -0.4091 -0.321336 -0.9058 -0.5114339 -1.4249 -0.54532735C10.2759 -0.0284129 9.75865 0.0954824 9.31124 0.360896c-0.31634 0.21577 -0.56007 0.522129 -0.6992 0.878884 -0.13914 0.35675 -0.16717 0.74722 -0.08044 1.12019 0.07321 0.37222 0.24592 0.71765 0.49977 0.99954h-0.10995c-1.79917 0.17992 -4.28802 0.78964 -5.73736 2.36891 -0.49018 0.52921 -0.85163 1.1644 -1.0562 1.85613 -0.20457 0.69173 -0.24675 1.42134 -0.12325 2.13203 0.04155 0.30732 0.16594 0.59762 0.35983 0.83962 0.49977 0.5897 0.77964 -0.04 0.63971 -0.1799ZM14.229 1.26048c0.2612 -0.17661 0.5693 -0.270991 0.8846 -0.270991s0.6234 0.094381 0.8846 0.270991c0.1366 0.07498 0.2539 0.18089 0.3423 0.30927 0.0885 0.12838 0.1457 0.27567 0.1671 0.43009 0.0213 0.15443 0.0063 0.31172 -0.044 0.45929 -0.0503 0.14758 -0.1344 0.28134 -0.2455 0.39062 -0.0593 0.05988 -0.0925 0.14069 -0.0925 0.22489 0 0.08421 0.0332 0.16502 0.0925 0.2249 0.0541 0.0345 0.1159 0.0551 0.1799 0.05997 -0.4298 0 -0.8996 0 -1.3994 -0.05997 -0.1988 -0.04021 -0.3931 -0.10049 -0.5797 -0.17992 -0.1851 -0.09362 -0.3409 -0.23643 -0.4502 -0.41274 -0.1093 -0.17632 -0.168 -0.37934 -0.1695 -0.5868 -0.0158 -0.16912 0.0161 -0.33927 0.0921 -0.4912 0.0759 -0.15192 0.1929 -0.27954 0.3377 -0.3684Zm-1.3394 1.18945c0.0835 0.30863 0.2336 0.59522 0.4398 0.83962h-0.9496c0.2352 -0.23465 0.4101 -0.52272 0.5098 -0.83962ZM9.89097 1.26048c0.26123 -0.17661 0.56933 -0.270991 0.88463 -0.270991s0.6234 0.094381 0.8846 0.270991c0.1366 0.07498 0.2539 0.18089 0.3423 0.30927 0.0885 0.12838 0.1457 0.27567 0.1671 0.43009 0.0213 0.15443 0.0063 0.31172 -0.044 0.45929 -0.0503 0.14758 -0.1344 0.28134 -0.2455 0.39062 -0.048 0.0575 -0.0743 0.13002 -0.0743 0.2049 0 0.07489 0.0263 0.14741 0.0743 0.20491h-1.3294c-0.1498 -0.03606 -0.2968 -0.08283 -0.4398 -0.13994 -0.18775 -0.09132 -0.34619 -0.23332 -0.45746 -0.40994 -0.11128 -0.17663 -0.17095 -0.38085 -0.17228 -0.5896 -0.01677 -0.16813 0.01362 -0.33761 0.08777 -0.48944 0.07415 -0.15184 0.18913 -0.28001 0.33204 -0.37016h-0.01Z" fill="#000000" stroke-width="1"></path>
    </g>
  </g>
</svg>