<svg viewBox="0 0 24 24" fill="none" xmlns="http://www.w3.org/2000/svg" id="Saving-Piggy-Bank--Streamline-Freehand">
  <desc>
    Saving Piggy Bank Streamline Icon: https://streamlinehq.com
  </desc>
  <g id="saving-piggy-bank">
    <g id="Group">
      <path id="Vector" fill-rule="evenodd" clip-rule="evenodd" d="M11.9932 3.81094h1.1603c0.14 0 0.2901 0 0.3501 0.15004s0 0.10003 -0.07 0.14004c-0.0972 0.09577 -0.2129 0.17066 -0.3401 0.22005 -0.2924 0.12974 -0.6105 0.19131 -0.9302 0.18004 -0.3137 -0.01968 -0.6139 -0.13486 -0.8603 -0.33008 -0.073 -0.07268 -0.1719 -0.11348 -0.275 -0.11348 -0.1031 0 -0.202 0.0408 -0.2751 0.11348 -0.071 0.07597 -0.1105 0.17608 -0.1105 0.28007 0 0.104 0.0395 0.20411 0.1105 0.28007 0.3335 0.35299 0.7658 0.59704 1.2403 0.70017l0 0.12003c0.0128 0.06676 0.0364 0.13097 0.07 0.19005 0.4001 0.78019 0.5702 0.77019 0.7202 0.74018 0.3601 0 0.5401 -1.00024 0.5401 -1.06026h0.1301c0.3918 -0.10995 0.7407 -0.33675 1.0002 -0.65016 0.1218 -0.15056 0.2046 -0.32876 0.2413 -0.51889 0.0366 -0.19014 0.0259 -0.38636 -0.0312 -0.57138 -0.0463 -0.19915 -0.1369 -0.38531 -0.265 -0.54462 -0.1282 -0.15932 -0.2906 -0.28771 -0.4752 -0.37561 -0.5929 -0.16051 -1.2066 -0.23132 -1.8205 -0.21005 -0.1132 0.00821 -0.2268 0.00821 -0.34 0 0.0154 -0.05963 0.0389 -0.11685 0.07 -0.17004 0.1095 -0.12725 0.2444 -0.23032 0.3959 -0.30264 0.1515 -0.07233 0.3165 -0.11233 0.4843 -0.11746 0.3966 -0.00593 0.785 0.11305 1.1103 0.34008 0.0742 0.05571 0.1676 0.07963 0.2595 0.0665 0.0919 -0.01313 0.1749 -0.06224 0.2306 -0.13652 0.0278 -0.03536 0.0484 -0.07589 0.0605 -0.11925 0.012 -0.04336 0.0154 -0.08868 0.0098 -0.13334 -0.0056 -0.04466 -0.02 -0.08777 -0.0424 -0.12683 -0.0223 -0.03905 -0.0522 -0.07328 -0.0879 -0.1007 -0.3472 -0.35607 -0.7818 -0.61475 -1.2603 -0.75018V0.89022c0.0141 -0.049008 0.0141 -0.101028 0 -0.150037 0 0 -0.3201 -0.740183 -0.5702 -0.740183 -0.25 0 -0.6501 0.620154 -0.6801 0.680168 -0.014 0.05582 -0.014 0.114223 0 0.170042 -0.014 0.05582 -0.014 0.114223 0 0.17004v0.07002c-0.2743 0.08682 -0.5291 0.2261 -0.7502 0.4101 -0.1623 0.12851 -0.3011 0.28419 -0.4101 0.46012 -0.1192 0.17417 -0.1852 0.37918 -0.1901 0.59014 -0.002 0.15112 0.0303 0.30072 0.0944 0.43758 0.0641 0.13686 0.1583 0.25742 0.2757 0.35262 0.3512 0.28093 0.7813 0.44527 1.2303 0.47011Z" fill="#000000" stroke-width="1"></path>
      <path id="Vector_2" fill-rule="evenodd" clip-rule="evenodd" d="M22.4058 4.18103c0.0496 -0.02899 0.0965 -0.06247 0.14 -0.10002 0.0268 -0.04242 0.0439 -0.09024 0.05 -0.14004 0 0 0.07 -0.79019 -0.14 -0.93023 -0.2101 -0.14003 -0.8602 0.21005 -0.9302 0.25006 -0.0465 0.02986 -0.0844 0.07121 -0.1101 0.12003 -0.0328 0.05061 -0.0502 0.1097 -0.05 0.17004 -0.0049 0.02645 -0.0049 0.05358 0 0.08002 -0.2841 -0.0553 -0.5761 -0.0553 -0.8602 0 -0.2054 0.0323 -0.4045 0.09642 -0.5901 0.19005 -0.1884 0.09705 -0.3447 0.2464 -0.4502 0.43011 -0.0752 0.12702 -0.1214 0.26914 -0.1353 0.41613 -0.0138 0.147 0.0051 0.29524 0.0553 0.43408 0.1524 0.39936 0.4162 0.74655 0.7602 1.00025 0.2901 0.21005 0.6902 0.39009 1.0003 0.60014 0.12 0.08002 0.26 0.14004 0.23 0.31008 -0.03 0.17004 -0.07 0.08002 -0.13 0.09002 -0.1322 0.02515 -0.2679 0.02515 -0.4001 0 -0.317 -0.02478 -0.6229 -0.12789 -0.8902 -0.30007 -0.2646 -0.1683 -0.4681 -0.4173 -0.5802 -0.71018 -0.0437 -0.0849 -0.1163 -0.15137 -0.2048 -0.1874 -0.0884 -0.03602 -0.1868 -0.03922 -0.2774 -0.00902 -0.0906 0.03019 -0.1674 0.0918 -0.2166 0.17369 -0.0491 0.08188 -0.0673 0.17864 -0.0514 0.2728 0.1267 0.44087 0.3766 0.83645 0.7202 1.14028 -0.0258 0.02951 -0.0461 0.06338 -0.06 0.10002 -0.015 0.06584 -0.015 0.13421 0 0.20005 0 0.87022 0.11 0.94023 0.2501 1.00025 0.3401 0.14003 1.0002 -0.64016 1.0002 -0.65016 0 -0.01 0.07 0.05001 0.12 0.06001 0.4 0.12924 0.8304 0.12924 1.2303 0 0.1806 -0.07067 0.3413 -0.18402 0.4684 -0.33034 0.1272 -0.14632 0.217 -0.32126 0.2618 -0.50986 0.0602 -0.19603 0.0752 -0.40311 0.044 -0.60577 -0.0312 -0.20265 -0.1077 -0.39564 -0.224 -0.56452 -0.44 -0.47267 -0.9534 -0.87122 -1.5204 -1.1803 -0.0971 -0.05762 -0.1906 -0.12109 -0.2801 -0.19004 0.0389 -0.04564 0.0865 -0.08305 0.1401 -0.11003 0.1613 -0.06387 0.3349 -0.09074 0.5081 -0.07862 0.1731 0.01212 0.3412 0.06291 0.4921 0.14864 0.352 0.18904 0.6328 0.48747 0.8002 0.85021 0.0374 0.08246 0.1045 0.14782 0.1879 0.18304 0.0834 0.03522 0.1771 0.03772 0.2622 0.007 0.0434 -0.01547 0.0832 -0.0396 0.117 -0.07092 0.0337 -0.03132 0.0608 -0.06917 0.0795 -0.11126s0.0287 -0.08754 0.0293 -0.1336c0.0006 -0.04605 -0.0081 -0.09175 -0.0257 -0.13433 -0.1685 -0.45682 -0.4508 -0.86307 -0.8202 -1.18029Z" fill="#000000" stroke-width="1"></path>
      <path id="Vector_3" fill-rule="evenodd" clip-rule="evenodd" d="M9.35215 15.9337c0 -0.26 0.00001 -0.86 -0.89999 -0.81 -0.9 0.05 -0.76 1.46 0 1.48 0.59 0.02 0.90999 -0.17 0.89999 -0.67Z" fill="#000000" stroke-width="1"></path>
      <path id="Vector_4" fill-rule="evenodd" clip-rule="evenodd" d="M11.8028 15.9337c0 -0.26 0 -0.86 -0.91 -0.81 -0.91003 0.05 -0.76 1.46 0 1.48 0.6 0.02 0.92 -0.17 0.91 -0.67Z" fill="#000000" stroke-width="1"></path>
      <path id="Vector_5" fill-rule="evenodd" clip-rule="evenodd" d="M12.8534 13.8334c-0.5966 -0.3993 -1.285 -0.6403 -2.0005 -0.7001 -1.02614 -0.0631 -2.05303 0.1114 -3.00071 0.5101 -0.08536 0.0316 -0.15505 0.0953 -0.19426 0.1774 -0.03921 0.0822 -0.04488 0.1764 -0.01579 0.2627 0.01456 0.0431 0.03761 0.0828 0.06779 0.1168 0.03017 0.034 0.06686 0.0616 0.10789 0.0812 0.04103 0.0196 0.08558 0.0307 0.13099 0.0328 0.04542 0.0021 0.09079 -0.005 0.13344 -0.0208 0.70716 -0.2259 1.44893 -0.3242 2.19055 -0.29 0.6971 0.0476 1.3633 0.3057 1.9105 0.7402 0.2232 0.1566 0.3864 0.3846 0.4628 0.6464 0.0764 0.2618 0.0613 0.5418 -0.0427 0.7939 -0.1033 0.2837 -0.2642 0.543 -0.4724 0.7616 -0.2083 0.2186 -0.4595 0.3918 -0.7379 0.5087 -0.6354 0.254 -1.3166 0.3732 -2.00053 0.3501 -0.66676 0.0123 -1.32185 -0.1759 -1.88046 -0.5401 -0.17211 -0.1387 -0.30895 -0.3161 -0.39935 -0.5177 -0.0904 -0.2017 -0.13179 -0.4219 -0.12078 -0.6426 -0.00346 -0.484 0.17504 -0.9517 0.50012 -1.3103 0.03751 -0.0364 0.06733 -0.0799 0.0877 -0.128 0.02036 -0.0481 0.03085 -0.0999 0.03085 -0.1521 0 -0.0522 -0.01049 -0.104 -0.03085 -0.1521 -0.02037 -0.0481 -0.05019 -0.0916 -0.0877 -0.128 -0.07479 -0.0733 -0.17534 -0.1143 -0.28007 -0.1143 -0.10472 0 -0.20528 0.041 -0.28007 0.1143 -0.52249 0.4792 -0.83814 1.1428 -0.88021 1.8505 -0.04166 0.3664 0.00164 0.7374 0.12653 1.0843 0.1249 0.3469 0.32803 0.6604 0.59364 0.9162 0.70544 0.5787 1.57105 0.9277 2.48062 1.0002 0.87776 0.0683 1.76016 -0.0475 2.59066 -0.3401 0.4632 -0.1884 0.881 -0.4732 1.2259 -0.8353 0.3449 -0.3621 0.6089 -0.7934 0.7746 -1.2652 0.1911 -0.5102 0.1967 -1.0714 0.0156 -1.5853 -0.181 -0.5139 -0.5371 -0.9477 -1.0059 -1.2254Z" fill="#000000" stroke-width="1"></path>
      <path id="Vector_6" fill-rule="evenodd" clip-rule="evenodd" d="M7.23146 11.8227c0.09498 0.0127 0.19139 -0.0091 0.27166 -0.0614 0.08028 -0.0524 0.13909 -0.1318 0.16574 -0.2239 0.02665 -0.092 0.01936 -0.1906 -0.02054 -0.2777 -0.0399 -0.0872 -0.10976 -0.1571 -0.19686 -0.197 -0.3234 -0.1798 -0.69034 -0.2664 -1.06 -0.25 -0.1572 0.0048 -0.31256 0.0352 -0.46 0.09 -0.14944 0.0444 -0.28642 0.1232 -0.4 0.23 -0.28086 0.2483 -0.47964 0.5761 -0.57 0.94 -0.02381 0.038 -0.03986 0.0804 -0.04722 0.1246 -0.00736 0.0443 -0.00588 0.0896 0.00434 0.1333 0.01023 0.0437 0.029 0.0849 0.05524 0.1213 0.02624 0.0364 0.05942 0.0672 0.09764 0.0908 0.03792 0.0269 0.0811 0.0454 0.12671 0.0545 0.0456 0.009 0.09261 0.0083 0.13792 -0.002 0.04532 -0.0104 0.08794 -0.0303 0.12505 -0.0583 0.03712 -0.028 0.06789 -0.0635 0.09032 -0.1042 0 0 1.6 -0.61 1.68 -0.61Z" fill="#000000" stroke-width="1"></path>
      <path id="Vector_7" fill-rule="evenodd" clip-rule="evenodd" d="M13.5431 11.1726c-0.0806 -0.0976 -0.179 -0.179 -0.29 -0.24 -0.1068 -0.0637 -0.221 -0.1141 -0.34 -0.15 -0.2717 -0.065 -0.5506 -0.0952 -0.83 -0.09 -0.0492 -0.0154 -0.101 -0.0209 -0.1524 -0.0161 -0.0514 0.0047 -0.1013 0.0196 -0.1469 0.0438s-0.0859 0.0572 -0.1186 0.0971c-0.0328 0.0399 -0.0573 0.0858 -0.0721 0.1352 -0.0167 0.0499 -0.0229 0.1027 -0.0182 0.1551 0.0047 0.0523 0.0203 0.1031 0.0456 0.1492 0.0254 0.0461 0.0601 0.0863 0.1018 0.1183 0.0418 0.032 0.0897 0.0549 0.1408 0.0674l1.5 0.94c0.0249 0.0384 0.0576 0.0712 0.0959 0.0962 0.0383 0.0251 0.0814 0.0419 0.1265 0.0494 0.0451 0.0076 0.0914 0.0056 0.1357 -0.0057 0.0443 -0.0113 0.0859 -0.0317 0.1219 -0.0599 0.038 -0.0251 0.0706 -0.0576 0.0957 -0.0955 0.0252 -0.038 0.0425 -0.0806 0.0509 -0.1254 0.0084 -0.0448 0.0077 -0.0908 -0.002 -0.1353s-0.0283 -0.0866 -0.0546 -0.1238c-0.0668 -0.2961 -0.2002 -0.5731 -0.39 -0.81Z" fill="#000000" stroke-width="1"></path>
      <path id="Vector_8" fill-rule="evenodd" clip-rule="evenodd" d="M16.7644 10.0925c0.08 -0.45012 0.14 -0.89023 0.2401 -1.33034 0.07 -0.28007 0.15 -0.56013 0.24 -0.8302 0.5101 -1.29032 0.6102 -1.14028 0.4501 -1.53038 -0.0448 -0.10214 -0.1137 -0.19189 -0.2008 -0.26158 -0.0871 -0.06968 -0.1898 -0.11721 -0.2993 -0.13852 -0.3077 -0.04223 -0.6207 -0.02332 -0.9211 0.05563 -0.3003 0.07896 -0.5822 0.21641 -0.8293 0.40448 -0.6128 0.45688 -1.1467 1.01101 -1.5804 1.64041 -0.8021 -0.596 -1.7027 -1.0463 -2.6607 -1.33033 -0.4242 -0.12187 -0.86 -0.19898 -1.30031 -0.23006 -0.44253 -0.04009 -0.88779 -0.04009 -1.33033 0 -1.02543 0.17938 -1.99082 0.60882 -2.81069 1.25031l0 0.06002c-0.40975 -0.5467 -0.9025 -1.02594 -1.46036 -1.42035 -0.50808 -0.36787 -1.13997 -0.52225 -1.76044 -0.43011 -0.11154 0.01971 -0.21613 0.06779 -0.30372 0.13961 -0.08759 0.07182 -0.15523 0.16497 -0.1964 0.27049 -0.25006 0.58015 0.20005 0.35009 0.68017 2.36059 0.10002 0.44011 0.17004 0.88021 0.25006 1.33033 -1.08769 1.0158 -1.8234 2.3518 -2.100382 3.814 -0.276984 1.4623 -0.08083 2.9748 0.560002 4.318 0.12926 0.2514 0.27287 0.4952 0.4301 0.7302 0.17459 0.239 0.36863 0.4631 0.58015 0.6702l0.63015 0.4501 1.77044 2.7707c0.13003 0.19 0.27007 0.5301 0.43011 0.7601 0.06413 0.103 0.14531 0.1943 0.24006 0.2701 0.11724 0.0779 0.25953 0.1089 0.39855 0.0866 0.13901 -0.0222 0.26455 -0.096 0.35163 -0.2066 0.07002 -0.1301 0.28007 -0.4501 0.29007 -0.4701l0.94024 -1.8705c0.02005 -0.0652 0.02005 -0.1349 0 -0.2001 0.30007 0.0601 0.58014 0.1401 0.89022 0.1801 0.45108 0.0568 0.9063 0.0735 1.36033 0.05 0.45665 -0.0143 0.91155 -0.0644 1.36035 -0.15 0.4101 -0.07 0.7902 -0.1701 1.1803 -0.2701 -0.0475 0.0517 -0.0792 0.1158 -0.0916 0.1849 -0.0124 0.0691 -0.0049 0.1402 0.0216 0.2052l0.9402 1.8705 0.3001 0.4701 0.08 0.09c0.0421 0.0454 0.0932 0.0817 0.15 0.1065 0.0568 0.0248 0.1181 0.0376 0.1801 0.0376 0.0619 0 0.1233 -0.0128 0.1801 -0.0376 0.0568 -0.0248 0.1078 -0.0611 0.15 -0.1065 0.0972 -0.0731 0.1788 -0.1649 0.24 -0.2701 0.1601 -0.23 0.3101 -0.5701 0.4301 -0.7602l1.7705 -2.7706 0.6301 -0.4502c0.2143 -0.2044 0.4086 -0.4288 0.5802 -0.6701 0.1572 -0.235 0.3008 -0.4788 0.4301 -0.7302 0.642 -1.3422 0.8398 -2.8541 0.5646 -4.3163 -0.2752 -1.4622 -1.009 -2.7987 -2.095 -3.8157l0.02 0.02Zm0.3401 7.5419c-0.0928 0.1963 -0.2033 0.3838 -0.3301 0.5601 -0.1168 0.1731 -0.2509 0.334 -0.4001 0.4801 -0.16 0.1601 -0.4301 0.3001 -0.6002 0.4701 -0.0882 0.0906 -0.1655 0.1913 -0.23 0.3001l-1.5504 2.8207 -0.15 0.3301 -0.8502 -1.5204c-0.0426 -0.0764 -0.1095 -0.1362 -0.1901 -0.17 0.4816 -0.1426 0.9557 -0.3095 1.4204 -0.5002 0.0493 -0.0147 0.0951 -0.0392 0.1346 -0.0721 0.0395 -0.0329 0.072 -0.0735 0.0953 -0.1194 0.0234 -0.0458 0.0373 -0.0959 0.0407 -0.1472 0.0035 -0.0513 -0.0035 -0.1028 -0.0206 -0.1514 -0.032 -0.098 -0.1016 -0.1793 -0.1934 -0.2261 -0.0919 -0.0469 -0.1985 -0.0555 -0.2967 -0.0239 -0.972 0.2079 -1.9584 0.3417 -2.9507 0.4001 -0.4101 0 -0.8302 0 -1.25034 0.06H8.47234c-0.97921 0.0282 -1.95787 -0.0727 -2.91072 -0.3001 -0.0864 -0.0301 -0.18101 -0.0261 -0.26461 0.011 -0.0836 0.0372 -0.14993 0.1048 -0.1855 0.1891 -0.03267 0.0862 -0.02998 0.1819 0.00747 0.2661 0.03746 0.0843 0.10666 0.1504 0.19258 0.184 0.47975 0.2345 0.97828 0.4286 1.49037 0.5801l-0.91023 1.5204 -0.15004 -0.3301 -1.55038 -2.8007c-0.06096 -0.1085 -0.13485 -0.2093 -0.22005 -0.3001 -0.18005 -0.17 -0.44011 -0.31 -0.61016 -0.4701 -0.14924 -0.1461 -0.28329 -0.307 -0.40009 -0.4801 -0.12322 -0.1786 -0.23352 -0.3658 -0.33009 -0.5601 -0.62402 -1.1989 -0.83163 -2.5712 -0.59014 -3.901 0.23396 -1.3801 0.9201 -2.6433 1.95048 -3.5909 0.06415 -0.0654 0.10007 -0.15342 0.10007 -0.24505 0 -0.09164 -0.03592 -0.17962 -0.10007 -0.24507 -0.0417 -0.04657 -0.09613 -0.07992 -0.15657 -0.09592 -0.06043 -0.016 -0.12423 -0.01394 -0.18351 0.0059v-0.93023c0 -0.31007 0 -0.64016 -0.06002 -1.00025v-0.15003c0.2498 0.15478 0.48723 0.32868 0.71018 0.52013 0.56453 0.4226 1.07809 0.90931 1.53038 1.45035 0.02566 0.04535 0.06037 0.08493 0.10197 0.11629 0.0416 0.03136 0.0892 0.05384 0.13985 0.06604 0.05065 0.01219 0.10327 0.01384 0.15459 0.00485 0.05132 -0.009 0.10023 -0.02845 0.14372 -0.05714 0.04771 -0.02857 0.08912 -0.06654 0.1217 -0.11161s0.05565 -0.09629 0.06781 -0.15056c0.01217 -0.05427 0.01317 -0.11044 0.00294 -0.1651s-0.03146 -0.10668 -0.06242 -0.15288c-0.10002 -0.17004 -0.24006 -0.4001 -0.4101 -0.65016 0.81019 -0.36818 1.69073 -0.55589 2.58064 -0.55013 0.36982 -0.02 0.74045 -0.02 1.11027 0 0.38754 0.04021 0.77194 0.10705 1.15024 0.20005 0.8645 0.13988 1.7037 0.40613 2.4907 0.79019 -0.06 0.10003 -0.1401 0.22006 -0.1801 0.30008 -0.0534 0.08815 -0.0707 0.19353 -0.0484 0.29416 0.0224 0.10062 0.0827 0.18874 0.1684 0.24597 0.0435 0.02869 0.0925 0.04814 0.1438 0.05714 0.0513 0.00899 0.1039 0.00734 0.1546 -0.00485 0.0506 -0.0122 0.0982 -0.03467 0.1398 -0.06604 0.0416 -0.03136 0.0763 -0.07094 0.102 -0.11628 0.4532 -0.55842 0.9702 -1.06196 1.5404 -1.50037 0.2215 -0.17064 0.4556 -0.32444 0.7001 -0.46012v0.15004c0 0.33008 -0.05 0.65016 -0.06 1.00025 -0.01 0.35008 0 0.62015 0 0.93023 -0.0591 -0.02122 -0.1233 -0.02397 -0.184 -0.00789 -0.0608 0.01608 -0.1152 0.05022 -0.1561 0.09791 -0.0329 0.03173 -0.0592 0.06979 -0.0771 0.1119 -0.0179 0.04211 -0.0271 0.0874 -0.0271 0.13316 0 0.04574 0.0092 0.09104 0.0271 0.13314 0.0179 0.0421 0.0442 0.0802 0.0771 0.1119 1.023 0.9491 1.6991 2.2132 1.9205 3.5909 0.2439 1.307 0.0469 2.658 -0.5601 3.841Z" fill="#000000" stroke-width="1"></path>
    </g>
  </g>
</svg>