<svg viewBox="0 0 24 24" fill="none" xmlns="http://www.w3.org/2000/svg" id="Saving-Money-Seedling--Streamline-Freehand">
  <desc>
    Saving Money Seedling Streamline Icon: https://streamlinehq.com
  </desc>
  <g id="saving-money-seedling">
    <g id="Group">
      <path id="Vector" fill-rule="evenodd" clip-rule="evenodd" d="M19.7902 13.5873c-1.0032 0 -0.7825 1.5147 0 1.5347 0.6018 0 0.9329 -0.1705 0.9228 -0.6921 0.0101 -0.2709 0.0301 -0.9028 -0.9228 -0.8426Z" fill="#000000" stroke-width="1"></path>
      <path id="Vector_2" fill-rule="evenodd" clip-rule="evenodd" d="M19.3287 5.99355c0 -0.27085 0 -0.89279 -0.9329 -0.84263 -0.9329 0.05016 -0.7924 1.52476 0 1.54482 0.632 0.05016 0.943 -0.14044 0.9329 -0.70219Z" fill="#000000" stroke-width="1"></path>
      <path id="Vector_3" fill-rule="evenodd" clip-rule="evenodd" d="M7.7125 2.7434c-1.00313 0.29091 -0.42132 1.6652 0.36112 1.50469 0.59185 -0.12037 0.87273 -0.39122 0.74232 -0.89278 -0.07022 -0.26082 -0.19059 -0.88276 -1.10344 -0.61191Z" fill="#000000" stroke-width="1"></path>
      <path id="Vector_4" fill-rule="evenodd" clip-rule="evenodd" d="M4.71313 10.4876c-1.00313 0 -0.79247 1.5147 0 1.5448 0.60188 0 0.94294 -0.1806 0.92288 -0.7022 0.01003 -0.2708 0.03009 -0.9028 -0.92288 -0.8426Z" fill="#000000" stroke-width="1"></path>
      <path id="Vector_5" fill-rule="evenodd" clip-rule="evenodd" d="M11.2636 5.69261c0.4413 -0.40125 0.8426 -0.82257 1.284 -1.25392 0.0415 -0.02977 0.0766 -0.06759 0.1032 -0.1112 0.0266 -0.04361 0.0441 -0.09211 0.0516 -0.14264 0.0075 -0.05053 0.0048 -0.10205 -0.0081 -0.1515 -0.0128 -0.04945 -0.0354 -0.09581 -0.0665 -0.13635 0 0 -0.0702 0 -0.1103 -0.07021 -0.6521 -0.65204 -1.3041 -1.33417 -2.0063 -1.95611 -0.4697 -0.44062 -0.9765 -0.84001 -1.51472 -1.193723 -0.40065 -0.254441 -0.83214 -0.456701 -1.284 -0.6018779 -0.37122 -0.1001055 -0.76233 -0.1001055 -1.13354 0 -0.2132 0.0450569 -0.41473 0.1338669 -0.59185 0.2608139 -0.27084 0.200626 -0.52163 0.501565 -0.73228 0.682127 -0.31901 0.27511 -0.62369 0.5664 -0.91285 0.87272 -0.2099 0.22586 -0.39798 0.47105 -0.56175 0.73229 -0.12233 0.20738 -0.21677 0.42999 -0.28088 0.66207 -0.06161 0.19589 -0.06161 0.40598 0 0.60187 0.05014 0.12668 0.1376 0.23513 0.25078 0.31097 0.16907 0.08735 0.34327 0.16439 0.52163 0.23072l1.11347 0.46144c0.3843 0.1941 0.75617 0.41186 1.11348 0.65204 0.79247 0.51159 1.49466 1.09341 2.25704 1.62507 0.34107 0.27084 0.87272 -0.08025 0.87272 -0.08025 0.28088 -0.27085 1.57495 -1.3442 1.63515 -1.39435Zm-1.51477 -0.39122c-0.30636 0.34157 -0.55995 0.72702 -0.75235 1.14357 -0.61191 -0.56176 -1.23385 -1.1536 -1.88588 -1.68526 -0.35327 -0.30813 -0.72879 -0.58977 -1.12351 -0.84263l-1.1235 -0.57179c0.12541 -0.18862 0.26633 -0.36646 0.42131 -0.53166 0.25078 -0.27084 0.54169 -0.53165 0.81254 -0.77241l0.79247 -0.73228c0.21128 -0.07261 0.44075 -0.07261 0.65203 0 0.29167 0.09762 0.57373 0.22186 0.84263 0.37116 0.52815 0.28747 1.02851 0.62329 1.49467 1.00313 0.59186 0.45141 1.14356 1.00313 1.70536 1.4445 -0.321 0.17054 -0.6621 0.32101 -1.0032 0.52163 -0.303 0.18271 -0.58256 0.40167 -0.83257 0.65204Z" fill="#000000" stroke-width="1"></path>
      <path id="Vector_6" fill-rule="evenodd" clip-rule="evenodd" d="M16.1187 9.33397c0.0401 0.09588 0.1159 0.17245 0.2113 0.21362 0.0954 0.04116 0.2031 0.04369 0.3003 0.00707 0.0516 -0.02054 0.0983 -0.05155 0.1373 -0.09108 0.039 -0.03953 0.0693 -0.08671 0.0891 -0.13856 0.0198 -0.05186 0.0286 -0.10725 0.0259 -0.16269 -0.0027 -0.05544 -0.0169 -0.10971 -0.0416 -0.15939 -0.0877 -0.44438 -0.2016 -0.88318 -0.3411 -1.3141 -0.058 -0.18507 -0.1284 -0.36604 -0.2106 -0.54169 -0.0872 -0.17266 -0.1844 -0.34013 -0.2909 -0.50157 -0.2169 -0.28231 -0.448 -0.5535 -0.6922 -0.81253 0.652 -0.30094 1.294 -0.61191 1.9561 -0.89279 0.6621 -0.28088 1.4646 -0.62194 2.2169 -0.89279l0.7624 -0.22068v0.05015c0.1134 0.25561 0.2138 0.51675 0.3009 0.78244l0.622 1.33417c-0.0827 0.06911 -0.1699 0.13278 -0.2608 0.19059 -0.3941 0.20319 -0.7994 0.38404 -1.2138 0.54169 -0.5024 0.2077 -0.9885 0.45247 -1.4546 0.73229 -0.4771 0.28895 -0.924 0.62501 -1.3341 1.00313 -0.0667 0.06888 -0.1057 0.15983 -0.1097 0.25559 -0.0041 0.09576 0.0272 0.18967 0.0878 0.2639 0.0606 0.07424 0.1464 0.12364 0.241 0.13882 0.0947 0.01519 0.1916 -0.00489 0.2724 -0.05643 0.3944 -0.30445 0.8217 -0.56355 1.274 -0.77242 0.4493 -0.22082 0.9156 -0.40532 1.3943 -0.55172 0.4767 -0.12791 0.9429 -0.29223 1.3944 -0.49153 0.3678 -0.17521 0.6904 -0.43262 0.9429 -0.75235 0.1104 -0.14252 0.1607 -0.32247 0.1405 -0.50156 -0.0561 -0.21103 -0.1404 -0.4135 -0.2508 -0.60188l-0.5016 -1.14357c-0.1103 -0.27084 -0.2106 -0.57178 -0.341 -0.85266 -0.1113 -0.23262 -0.2493 -0.45145 -0.4113 -0.65203 -0.0717 -0.09864 -0.1707 -0.17404 -0.2849 -0.21684 -0.1141 -0.0428 -0.2383 -0.05112 -0.3571 -0.02392 -0.1058 0.018 -0.2098 0.04485 -0.311 0.08025l-1.0533 0.40126c-0.5918 0.2909 -1.1737 0.59184 -1.7454 0.91285 -0.8527 0.4815 -1.6853 1.00313 -2.5179 1.48463 -0.0903 0.05015 -0.3411 0.39122 -0.2207 0.60188 0.1104 0.44137 1.3542 3.01942 1.5749 3.35045Z" fill="#000000" stroke-width="1"></path>
      <path id="Vector_7" fill-rule="evenodd" clip-rule="evenodd" d="M15.1156 14.2794c-0.2338 0.0811 -0.4589 0.1853 -0.6721 0.311 -0.2144 0.1274 -0.4159 0.2752 -0.6019 0.4413 -0.0782 0.0729 -0.1488 0.1536 -0.2106 0.2408 0.0177 -1.2697 -0.0763 -2.5386 -0.2809 -3.7918 -0.0903 -0.4414 -0.2006 -0.8828 -0.321 -1.3242l0.9028 -0.66203 0.5216 -0.38119c0.2577 -0.20582 0.4901 -0.44153 0.6922 -0.70219 0.2006 -0.62194 -0.1806 -1.00313 -0.4715 -0.90282 -0.1411 0.04661 -0.2786 0.10361 -0.4113 0.17053 -0.2171 0.11245 -0.4222 0.24691 -0.6119 0.40126 -0.1867 0.15329 -0.3642 0.31742 -0.5316 0.49153 -0.1605 0.17053 -0.2809 0.37116 -0.4214 0.55172 -0.308 -0.94023 -0.7291 -1.83959 -1.2539 -2.67836 -0.4012 -0.2909 -0.8526 0.29091 -0.5417 0.82257 0.6374 1.39805 1.0342 2.89368 1.1737 4.42378 0.1104 0.7724 0.1404 1.5549 0.2006 2.3473 -0.1003 -0.1203 -0.1705 -0.2507 -0.2708 -0.3711 -0.2301 -0.2518 -0.4782 -0.4865 -0.7423 -0.7022 -0.2714 -0.2081 -0.56 -0.3927 -0.8627 -0.5517 -0.379 -0.2179 -0.7992 -0.3546 -1.23387 -0.4013 -0.55172 -0.1404 -0.79247 0.1505 -0.38119 0.8126 0.39122 0.3109 0.55172 0.341 1.00313 0.6721 0.45143 0.331 0.75233 0.5517 1.11343 0.8426 0.5582 0.4355 1.0543 0.9451 1.4746 1.5147v5.6175c-0.0028 0.1032 0.0341 0.2034 0.1033 0.28 0.0691 0.0766 0.165 0.1236 0.2679 0.1313 0.0509 0.0027 0.1018 -0.0048 0.1497 -0.0221 0.048 -0.0173 0.0919 -0.0441 0.1293 -0.0787 0.0374 -0.0346 0.0675 -0.0764 0.0885 -0.1228 0.021 -0.0464 0.0325 -0.0966 0.0338 -0.1475 0.1605 -1.6351 0.321 -3.2702 0.4012 -4.9053l0.4113 -0.2909c0.2407 -0.1505 0.5016 -0.2609 0.7523 -0.4013l0.7223 -0.4213 0.6219 -0.3611c0.311 -0.2308 0 -0.642 -0.3611 -0.9029 -0.1934 -0.0559 -0.4008 -0.038 -0.5818 0.0502Z" fill="#000000" stroke-width="1"></path>
      <path id="Vector_8" fill-rule="evenodd" clip-rule="evenodd" d="M23.2109 13.0957c0 -0.2809 -2.0765 -1.3743 -2.4978 -1.5147 -0.3091 -0.1045 -0.6287 -0.1752 -0.953 -0.2107 -0.3336 -0.0326 -0.6696 -0.0326 -1.0031 0 -0.7315 0.0948 -1.4448 0.2977 -2.1167 0.6019 -0.0547 0.0139 -0.1044 0.0429 -0.1434 0.0837 -0.039 0.0408 -0.0658 0.0917 -0.0772 0.147 -0.074 0.0269 -0.1364 0.0786 -0.1766 0.1462 -0.0402 0.0677 -0.0558 0.1472 -0.0441 0.225 0 0.4915 0.1605 2.4376 0.1605 2.4476 0.0903 0.4514 0.2307 0.8727 0.2808 1.3141 0.0005 0.0733 0.0227 0.1448 0.0638 0.2055 0.041 0.0607 0.0991 0.1079 0.167 0.1356 0.0296 0.0258 0.0635 0.0462 0.1003 0.0602l0.0802 0c0.633 -0.0256 1.2661 0.0488 1.8759 0.2207 0.4577 0.132 0.9067 0.2928 1.3442 0.4815 0.4514 0.1805 0.9028 0.3511 1.3442 0.5517 0.1337 0.0605 0.2835 0.0757 0.4266 0.0431 0.1431 -0.0326 0.2716 -0.1112 0.3658 -0.2237 0.1576 -0.2196 0.2921 -0.4549 0.4013 -0.7022 0.1186 -0.3039 0.2027 -0.6202 0.2508 -0.9429 0.0564 -0.4492 0.0832 -0.9016 0.0802 -1.3542l0.0703 -1.7154Zm-1.0032 1.6451c-0.027 0.4016 -0.084 0.8007 -0.1705 1.1938 -0.0677 0.231 -0.1549 0.4559 -0.2608 0.6721 -0.2307 -0.1003 -0.4715 -0.1906 -0.7122 -0.2709 -0.429 -0.1388 -0.8685 -0.2428 -1.3141 -0.3109 -0.7476 -0.1204 -1.5096 -0.1204 -2.2571 0 0.0792 -0.3628 0.1229 -0.7323 0.1304 -1.1035 0.0199 -0.2035 0.0199 -0.4084 0 -0.6119 -0.0234 -0.2012 -0.0671 -0.3995 -0.1304 -0.5918 -0.1363 -0.3797 -0.2937 -0.7514 -0.4715 -1.1135 0.6277 -0.0501 1.2583 -0.0501 1.8859 0 0.4267 0.0147 0.8521 0.0549 1.274 0.1204 0.7089 0.0585 1.3951 0.2781 2.0063 0.642 0.0731 0.043 0.1559 0.0671 0.2407 0.0702l-0.2207 1.304Z" fill="#000000" stroke-width="1"></path>
      <path id="Vector_9" fill-rule="evenodd" clip-rule="evenodd" d="M8.76578 10.6581c0.01392 -0.0421 0.01922 -0.0866 0.01559 -0.1309 -0.00362 -0.0442 -0.0161 -0.0872 -0.03668 -0.1265 -0.02059 -0.0393 -0.04887 -0.0741 -0.08316 -0.1022 -0.03428 -0.0282 -0.07388 -0.0492 -0.11644 -0.0617 -0.0412 -0.0177 -0.08557 -0.0268 -0.1304 -0.0268 -0.04484 0 -0.0892 0.0091 -0.13041 0.0268 -0.63009 -0.4067 -1.30286 -0.74309 -2.00626 -1.00315 -0.73292 -0.29553 -1.50849 -0.47164 -2.29717 -0.52163 -0.42013 -0.0275 -0.84205 0.00288 -1.25391 0.09028 -0.35914 0.08068 -0.68481 0.26978 -0.93291 0.54169 -0.09751 0.12506 -0.16912 0.26828 -0.21066 0.42132 -0.05016 0.18056 -0.06019 0.39119 -0.10031 0.56179l-0.30094 1.284c-0.09028 0.331 -0.220689 0.6821 -0.30094 1.0031 -0.069647 0.2854 -0.100021 0.5791 -0.090281 0.8727 -0.004448 0.1454 0.043903 0.2875 0.136109 0.4 0.092202 0.1125 0.222032 0.1878 0.365452 0.2119 0.13626 0.0215 0.27503 0.0215 0.41129 0 0.52162 0 1.74544 -0.1906 2.17679 -0.1605 0.43135 0.0301 0.85266 0 1.26394 0.0903 0.40968 0.0369 0.81564 0.1073 1.21379 0.2107 0.28591 0.0974 0.58213 0.1613 0.88275 0.1906 0.18023 0.0153 0.35955 -0.0385 0.50157 -0.1505 0.11152 -0.0819 0.1983 -0.193 0.25078 -0.321 0.06377 -0.2682 0.11399 -0.5393 0.15047 -0.8125l0.62194 -2.4878Zm-1.49466 2.257c-0.09028 0.2809 0.17053 0.6621 -0.62194 0.3913 -0.35452 -0.1201 -0.71639 -0.2173 -1.08338 -0.2909 -0.52305 -0.1141 -1.05225 -0.1978 -1.58495 -0.2508 -0.59933 -0.0066 -1.19861 0.0168 -1.7956 0.0702 0.07022 -0.301 0.17053 -0.6019 0.25078 -0.8828l0.27085 -1.4244c0.08025 -0.5718 0.09028 -0.58183 0.47147 -0.66208 0.26321 -0.05946 0.53273 -0.08641 0.8025 -0.08025 0.7009 -0.01765 1.39969 0.08412 2.06645 0.30093 0.68168 0.2326 1.33459 0.5423 1.94607 0.9229l-0.72225 1.9059Z" fill="#000000" stroke-width="1"></path>
      <path id="Vector_10" fill-rule="evenodd" clip-rule="evenodd" d="M15.7175 19.4656c-0.5003 -0.1916 -1.0294 -0.2968 -1.5649 -0.311 -0.0559 -0.009 -0.1132 -0.0058 -0.1677 0.0094 -0.0546 0.0153 -0.1052 0.0422 -0.1484 0.0789 -0.0431 0.0367 -0.0777 0.0824 -0.1015 0.1338 -0.0238 0.0515 -0.0361 0.1075 -0.0361 0.1641 0 0.0567 0.0123 0.1127 0.0361 0.1641s0.0584 0.0971 0.1015 0.1338c0.0432 0.0367 0.0938 0.0637 0.1484 0.0789 0.0545 0.0153 0.1118 0.0185 0.1677 0.0094 0.4434 0.0449 0.8768 0.16 1.284 0.3411 0.4025 0.1775 0.7721 0.4217 1.0934 0.7222 0.0892 0.0895 0.1607 0.195 0.2107 0.311 0.026 0.0347 0.0401 0.077 0.0401 0.1204 0 0.0434 -0.0141 0.0856 -0.0401 0.1204 -0.4021 0.3926 -0.9002 0.6728 -1.4445 0.8125 -0.8834 0.2725 -1.8042 0.4045 -2.7286 0.3912 -0.6746 0.0066 -1.3477 -0.0641 -2.0062 -0.2106 -0.4207 -0.0821 -0.8201 -0.2493 -1.17368 -0.4916l-0.34106 -0.3912c-0.05705 -0.0776 -0.09728 -0.1662 -0.11814 -0.2601 -0.02086 -0.094 -0.02188 -0.1913 -0.003 -0.2858 0.01888 -0.0944 0.05725 -0.1838 0.11265 -0.2625 0.05541 -0.0788 0.12663 -0.1451 0.20912 -0.1947 0.6957 -0.4715 1.50781 -0.7422 2.34731 -0.7825 0.0905 0 0.1772 -0.0359 0.2412 -0.0999 0.0639 -0.0639 0.0999 -0.1507 0.0999 -0.2411 0 -0.0905 -0.036 -0.1772 -0.0999 -0.2412 -0.064 -0.064 -0.1507 -0.0999 -0.2412 -0.0999 -1.0106 -0.025 -2.00907 0.2246 -2.889 0.7223 -0.1916 0.1021 -0.36033 0.2423 -0.49584 0.412 -0.13551 0.1696 -0.23496 0.3651 -0.29225 0.5746 -0.05729 0.2094 -0.07121 0.4283 -0.04092 0.6433 0.0303 0.215 0.10417 0.4216 0.2171 0.607 0.06347 0.1348 0.14079 0.2625 0.23072 0.3812 0.09326 0.1319 0.20093 0.2531 0.321 0.3612 0.43881 0.3792 0.95607 0.6567 1.51469 0.8125 0.7619 0.2059 1.5482 0.3071 2.3373 0.3009 1.0704 -0.0043 2.1321 -0.1909 3.1398 -0.5517 0.7341 -0.2427 1.3868 -0.6836 1.8859 -1.274 0.1126 -0.1385 0.1927 -0.3006 0.2343 -0.4742 0.0417 -0.1736 0.0439 -0.3543 0.0065 -0.5289 -0.091 -0.3963 -0.3139 -0.7499 -0.632 -1.0031 -0.4254 -0.3172 -0.9046 -0.5551 -1.4144 -0.7022Z" fill="#000000" stroke-width="1"></path>
    </g>
  </g>
</svg>