<svg xmlns="http://www.w3.org/2000/svg" fill="none" viewBox="0 0 24 24" id="Compass-Directions--Streamline-Ultimate">
  <desc>
    Compass Directions Streamline Icon: https://streamlinehq.com
  </desc>
  <g clip-path="url(#a)">
    <path fill="#66e1ff" d="M11.9998 22.9999c6.0748 0 10.9998 -4.9251 10.9998 -10.9998 0 -6.07481 -4.925 -10.99986 -10.9998 -10.99986C5.92505 1.00024 1 5.92529 1 12.0001c0 6.0747 4.92505 10.9998 10.9998 10.9998Z" stroke-width="1"></path>
    <path fill="#c2f3ff" d="M4.22188 19.7785C2.15894 17.7155 1 14.9176 1 12.0002c0 -2.91745 1.15894 -5.71539 3.22188 -7.77832C6.28481 2.15894 9.08275 1 12.0002 1c2.9174 0 5.7153 1.15894 7.7783 3.22188L4.22188 19.7785Z" stroke-width="1"></path>
    <path fill="#ff808c" d="M14.3905 14.3915 9.60799 9.60892 6.69735 16.6775c-0.03608 0.0873 -0.04546 0.1834 -0.02698 0.2761 0.01849 0.0927 0.06401 0.1778 0.13084 0.2446 0.06682 0.0669 0.15195 0.1124 0.24463 0.1309 0.09268 0.0185 0.18876 0.0091 0.27611 -0.027l7.06855 -2.9106Z" stroke-width="1"></path>
    <path fill="#ffbfc5" d="M9.60776 9.60892 6.69712 16.6775c-0.03594 0.0873 -0.04522 0.1834 -0.02667 0.276 0.01856 0.0926 0.06411 0.1776 0.13093 0.2443l5.19762 -5.1976 -2.39124 -2.39128Z" stroke-width="1"></path>
    <path stroke="#191919" stroke-linecap="round" stroke-linejoin="round" d="M11.9998 22.9999c6.0748 0 10.9998 -4.9251 10.9998 -10.9998 0 -6.07481 -4.925 -10.99986 -10.9998 -10.99986C5.92505 1.00024 1 5.92529 1 12.0001c0 6.0747 4.92505 10.9998 10.9998 10.9998Z" stroke-width="1"></path>
    <path fill="#ffffff" d="m9.6084 9.60893 7.0686 -2.91065c0.0873 -0.03608 0.1834 -0.04546 0.2761 -0.02698 0.0927 0.01849 0.1778 0.06402 0.2446 0.13084 0.0668 0.06683 0.1124 0.15195 0.1308 0.24463 0.0185 0.09268 0.0091 0.18876 -0.0269 0.27611l-2.9107 7.06862 -4.7825 -4.78257Z" stroke-width="1"></path>
    <path stroke="#191919" stroke-linecap="round" stroke-linejoin="round" d="m9.6084 9.60893 7.0686 -2.91065c0.0873 -0.03608 0.1834 -0.04546 0.2761 -0.02698 0.0927 0.01849 0.1778 0.06402 0.2446 0.13084 0.0668 0.06683 0.1124 0.15195 0.1308 0.24463 0.0185 0.09268 0.0091 0.18876 -0.0269 0.27611l-2.9107 7.06862 -4.7825 -4.78257Z" stroke-width="1"></path>
    <path stroke="#191919" stroke-linecap="round" stroke-linejoin="round" d="M14.3905 14.3915 9.60799 9.60892 6.69735 16.6775c-0.03608 0.0873 -0.04546 0.1834 -0.02698 0.2761 0.01849 0.0927 0.06401 0.1778 0.13084 0.2446 0.06682 0.0669 0.15195 0.1124 0.24463 0.1309 0.09268 0.0185 0.18876 0.0091 0.27611 -0.027l7.06855 -2.9106Z" stroke-width="1"></path>
  </g>
  <defs>
    <clipPath id="a">
      <path fill="#ffffff" d="M0 0h24v24H0z" stroke-width="1"></path>
    </clipPath>
  </defs>
</svg>