<svg xmlns="http://www.w3.org/2000/svg" fill="none" viewBox="0 0 24 24" id="Style-One-Pin-Check--Streamline-Ultimate">
  <desc>
    Style One Pin Check Streamline Icon: https://streamlinehq.com
  </desc>
  <path fill="#e3e3e3" d="M20.8017 9.80989c0.0016 -1.54568 -0.4041 -3.06452 -1.1759 -4.40369 -0.7719 -1.33917 -1.8828 -2.45146 -3.2211 -3.22494C15.0665 1.40777 13.5482 1.00035 12.0025 1c-1.5457 -0.000355 -3.06424 0.40636 -4.40282 1.17924 -1.33859 0.77287 -2.45004 1.88465 -3.22252 3.22346 -0.77249 1.33882 -1.17875 2.85747 -1.17794 4.40315 0.0008 1.54565 0.40867 3.06395 1.18255 4.40185 0.77388 1.3381 1.88648 2.4487 3.22589 3.2201 1.65072 0.9525 2.09567 2.0038 3.96744 5.3228 0.0425 0.0755 0.1044 0.1383 0.1792 0.182 0.0749 0.0437 0.16 0.0668 0.2466 0.0668 0.0867 0 0.1718 -0.0231 0.2467 -0.0668 0.0748 -0.0437 0.1367 -0.1065 0.1792 -0.182 1.8913 -3.3552 2.3196 -4.3722 3.9665 -5.3228 1.3399 -0.7698 2.4531 -1.8794 3.2271 -3.217 0.774 -1.3375 1.1815 -2.8555 1.1813 -4.40091Z" stroke-width="1"></path>
  <path fill="#ffffff" d="M12.0006 1.0086c-1.938 -0.00153 -3.82214 0.63702 -5.35984 1.81644S3.99793 5.65872 3.49707 7.53081c-0.50085 1.87208 -0.3694 3.85719 0.37394 5.64689 0.74334 1.7897 2.05696 3.2838 3.73676 4.2501 1.65072 0.9525 2.09567 2.0038 3.96743 5.3228 0.0424 0.0755 0.1042 0.1384 0.1789 0.1822 0.0747 0.0438 0.1598 0.067 0.2465 0.0672V1.0086Z" stroke-width="1"></path>
  <path stroke="#191919" stroke-linecap="round" stroke-linejoin="round" d="M20.8017 9.80989c0.0016 -1.54568 -0.4041 -3.06452 -1.1759 -4.40369 -0.7719 -1.33917 -1.8828 -2.45146 -3.2211 -3.22494C15.0665 1.40777 13.5482 1.00035 12.0025 1c-1.5457 -0.000355 -3.06424 0.40636 -4.40282 1.17924 -1.33859 0.77287 -2.45004 1.88465 -3.22252 3.22346 -0.77249 1.33882 -1.17875 2.85747 -1.17794 4.40315 0.0008 1.54565 0.40867 3.06395 1.18255 4.40185 0.77388 1.3381 1.88648 2.4487 3.22589 3.2201 1.65072 0.9525 2.09567 2.0038 3.96744 5.3228 0.0425 0.0755 0.1044 0.1383 0.1792 0.182 0.0749 0.0437 0.16 0.0668 0.2466 0.0668 0.0867 0 0.1718 -0.0231 0.2467 -0.0668 0.0748 -0.0437 0.1367 -0.1065 0.1792 -0.182 1.8913 -3.3552 2.3196 -4.3722 3.9665 -5.3228 1.3399 -0.7698 2.4531 -1.8794 3.2271 -3.217 0.774 -1.3375 1.1815 -2.8555 1.1813 -4.40091Z" stroke-width="1"></path>
  <path fill="#78eb7b" d="M12.0004 14.6994c2.7004 0 4.8896 -2.1891 4.8896 -4.88956 0 -2.70043 -2.1892 -4.88958 -4.8896 -4.88958 -2.70042 0 -4.88956 2.18915 -4.88956 4.88958 0 2.70046 2.18914 4.88956 4.88956 4.88956Z" stroke-width="1"></path>
  <path fill="#c9f7ca" d="M8.54281 13.2678c-0.91696 -0.9171 -1.43206 -2.1609 -1.43197 -3.45776 0.0001 -1.29688 0.51537 -2.54061 1.43246 -3.45757 0.9171 -0.91696 2.1609 -1.43206 3.4578 -1.43196 1.2968 0.00008 2.5405 0.51536 3.4575 1.43245L8.54281 13.2678Z" stroke-width="1"></path>
  <path stroke="#191919" stroke-linecap="round" stroke-linejoin="round" d="M12.0004 14.6994c2.7004 0 4.8896 -2.1891 4.8896 -4.88956 0 -2.70043 -2.1892 -4.88958 -4.8896 -4.88958 -2.70042 0 -4.88956 2.18915 -4.88956 4.88958 0 2.70046 2.18914 4.88956 4.88956 4.88956Z" stroke-width="1"></path>
  <path stroke="#191919" stroke-linecap="round" stroke-linejoin="round" d="m10.0444 10.2988 1.0591 1.0591c0.0502 0.0502 0.1107 0.0887 0.1774 0.1131 0.0666 0.0244 0.1378 0.034 0.2085 0.0281 0.0707 -0.0058 0.1393 -0.027 0.201 -0.062 0.0617 -0.0351 0.1151 -0.0831 0.1563 -0.1408l2.1094 -2.95333" stroke-width="1"></path>
</svg>