<svg xmlns="http://www.w3.org/2000/svg" fill="none" viewBox="0 0 24 24" id="Trip-Pin-Multiple--Streamline-Ultimate">
  <desc>
    Trip Pin Multiple Streamline Icon: https://streamlinehq.com
  </desc>
  <g clip-path="url(#a)">
    <path fill="#ffef5e" d="M22.8729 6.57484c-0.4231 2.5185 -4.6827 6.81156 -4.6827 9.36636 0 -2.5548 -4.1472 -6.43618 -4.6827 -9.36636 -0.7026 -2.94856 1.6592 -5.731308 4.6827 -5.5175 3.025 -0.217501 5.3891 2.56804 4.6827 5.5175Z" stroke-width="1"></path>
    <path fill="#fff7ae" d="M18.1902 15.9412c0 -2.5548 -4.1472 -6.43618 -4.6827 -9.36636 -0.7026 -2.94856 1.6592 -5.731306 4.6827 -5.5175V15.9412Z" stroke-width="1"></path>
    <path stroke="#191919" stroke-linecap="round" stroke-linejoin="round" d="M18.1924 15.9612v1.276" stroke-width="1"></path>
    <path stroke="#191919" stroke-linecap="round" stroke-linejoin="round" d="M13.5765 6.89402c-0.0257 -0.09898 -0.0479 -0.19877 -0.0667 -0.29919 -0.7051 -2.94837 1.6569 -5.732654 4.6808 -5.5175 3.0254 -0.218126 5.3901 2.5676 4.6836 5.5175 -0.4211 2.5186 -4.6836 6.81147 -4.6836 9.36637 -0.128 -1.1058 -0.5361 -2.1606 -1.1855 -3.0647" stroke-width="1"></path>
    <path fill="#ffffff" stroke="#191919" stroke-linecap="round" stroke-linejoin="round" d="M20.3366 5.55038c0 1.65057 -1.7868 2.68215 -3.2162 1.8569 -0.6634 -0.38303 -1.0721 -1.09083 -1.0721 -1.8569 0 -1.65049 1.7868 -2.68207 3.2162 -1.85682 0.6634 0.38303 1.0721 1.09083 1.0721 1.85682Z" stroke-width="1"></path>
    <path fill="#ff808c" d="M10.4957 6.57484c-0.4221 2.5185 -4.68357 6.81156 -4.68357 9.36636 0 -2.5548 -4.1462 -6.43618 -4.67892 -9.36636C0.43027 3.62772 2.78982 0.845331 5.81213 1.05734c3.02538 -0.218133 5.39017 2.56759 4.68357 5.5175Z" stroke-width="1"></path>
    <path fill="#ffbfc5" d="M5.81213 15.9412c0 -2.5548 -4.1462 -6.43617 -4.67892 -9.36636C0.43027 3.62773 2.78982 0.845339 5.81213 1.05735V15.9412Z" stroke-width="1"></path>
    <path stroke="#191919" stroke-linecap="round" stroke-linejoin="round" d="M5.80957 15.9612v1.276" stroke-width="1"></path>
    <path stroke="#191919" stroke-linecap="round" stroke-linejoin="round" d="M7.71384 11.6987c-1.0187 1.5743 -1.90582 3.0827 -1.90582 4.2625 0 -2.5548 -4.14719 -6.43609 -4.6827 -9.36636C0.420486 3.64502 2.78481 0.860288 5.80991 1.07734 8.83529 0.858938 11.2 3.64511 10.4926 6.59484c-0.0372 0.2084 -0.0917 0.41338 -0.163 0.61269" stroke-width="1"></path>
    <path fill="#ffffff" stroke="#191919" stroke-linecap="round" stroke-linejoin="round" d="M7.95367 5.55038c0 1.65057 -1.78666 2.68215 -3.21613 1.8569 -0.66331 -0.38303 -1.07201 -1.09083 -1.07201 -1.8569 0 -1.65049 1.78675 -2.68207 3.21613 -1.85682 0.6634 0.38303 1.07201 1.09083 1.07201 1.85682Z" stroke-width="1"></path>
    <path fill="#78eb7b" d="M17.1581 12.3124c-0.4232 2.5186 -4.6837 6.8116 -4.6837 9.3664 0 -2.5548 -4.14715 -6.4362 -4.68266 -9.3664 -0.7042 -2.94815 1.65724 -5.73171 4.68076 -5.51745 3.0262 -0.21958 5.3924 2.56678 4.6856 5.51745Z" stroke-width="1"></path>
    <path fill="#bbf5bd" d="M12.473 21.6788c0 -2.5548 -4.1471 -6.4362 -4.68271 -9.3664C7.08583 9.36345 9.4488 6.57926 12.473 6.79496V21.6788Z" stroke-width="1"></path>
    <path stroke="#191919" stroke-linecap="round" stroke-linejoin="round" d="M12.4751 21.6788v1.2759" stroke-width="1"></path>
    <path stroke="#191919" stroke-linecap="round" stroke-linejoin="round" d="M17.1581 12.3124c-0.4232 2.5186 -4.6837 6.8116 -4.6837 9.3664 0 -2.5548 -4.14715 -6.4362 -4.68266 -9.3664 -0.7042 -2.94815 1.65724 -5.73171 4.68076 -5.51745 3.0262 -0.21958 5.3924 2.56678 4.6856 5.51745Z" stroke-width="1"></path>
    <path fill="#ffffff" stroke="#191919" stroke-linecap="round" stroke-linejoin="round" d="M14.6192 11.268c0 1.6508 -1.7871 2.6827 -3.2168 1.8573 -0.6635 -0.3832 -1.0723 -1.0912 -1.0723 -1.8573 0 -1.65095 1.7872 -2.6827 3.2168 -1.85728 0.6636 0.38313 1.0723 1.09108 1.0723 1.85728Z" stroke-width="1"></path>
  </g>
  <defs>
    <clipPath id="a">
      <path fill="#ffffff" d="M0 0h24v24H0z" stroke-width="1"></path>
    </clipPath>
  </defs>
</svg>