<svg xmlns="http://www.w3.org/2000/svg" fill="none" viewBox="0 0 24 24" id="Ai-Upscale-Spark--Streamline-Sharp">
  <desc>
    Ai Upscale Spark Streamline Icon: https://streamlinehq.com
  </desc>
  <g id="ai-upscale-spark--magnifier-zoom-view-find-search-ai">
    <path id="Ellipse 344" fill="#d7e0ff" d="M2.313 11.313a9 9 0 1 0 18 0 9 9 0 1 0 -18 0" stroke-width="1.5"></path>
    <path id="Vector 3018" fill="#ffffff" d="M6 11.313c2.361 0 5.313 -2.952 5.313 -5.313 0 2.361 2.95 5.313 5.312 5.313 -2.361 0 -5.313 2.95 -5.313 5.312 0 -2.361 -2.95 -5.313 -5.312 -5.313Z" stroke-width="1.5"></path>
    <path id="Vector 3017" stroke="#4147d5" d="M6 11.313c2.361 0 5.313 -2.952 5.313 -5.313 0 2.361 2.95 5.313 5.312 5.313 -2.361 0 -5.313 2.95 -5.313 5.312 0 -2.361 -2.95 -5.313 -5.312 -5.313Z" stroke-width="1.5"></path>
    <path id="Vector 195" stroke="#4147d5" d="m17.72 17.72 4.593 4.593" stroke-width="1.5"></path>
    <path id="Ellipse 343" stroke="#4147d5" stroke-linejoin="round" d="M2.313 11.313a9 9 0 1 0 18 0 9 9 0 1 0 -18 0" stroke-width="1.5"></path>
  </g>
</svg>