<svg xmlns="http://www.w3.org/2000/svg" fill="none" viewBox="-0.5 -0.5 24 24" id="Light-Dark-Mode--Streamline-Sharp-Neon">
  <desc>
    Light Dark Mode Streamline Icon: https://streamlinehq.com
  </desc>
  <g id="light-dark-mode--light-dark-mode-setting-camera-picture-photo-image-brightness">
    <path id="Vector" stroke="#000cfe" d="M11.500191666666666 17.986958333333334c3.582825 0 6.487245833333334 -2.9044208333333335 6.487245833333334 -6.487245833333334 0 -3.5827579166666665 -2.9044208333333335 -6.487178750000001 -6.487245833333334 -6.487178750000001 -3.5827675 0 -6.487188333333333 2.9044208333333335 -6.487188333333333 6.487178750000001 0 3.582825 2.9044208333333335 6.487245833333334 6.487188333333333 6.487245833333334Z" stroke-width="1"></path>
    <path id="Vector_2" stroke="#000cfe" d="M11.5 0v5.013003333333333" stroke-width="1"></path>
    <path id="Vector_3" stroke="#000cfe" d="m19.6319375 3.36820625 -3.544779166666667 3.5447216666666668" stroke-width="1"></path>
    <path id="Vector_4" stroke="#000cfe" d="M23 11.5h-5.013041666666667" stroke-width="1"></path>
    <path id="Vector_5" stroke="#000cfe" d="m16.087158333333335 16.0876375 3.5443958333333336 3.5443958333333336" stroke-width="1"></path>
    <path id="Vector_6" stroke="#000cfe" d="M11.5 17.987437500000002V23" stroke-width="1"></path>
    <path id="Vector_7" stroke="#000cfe" d="m6.912860833333334 16.0876375 -3.5444245833333334 3.5443958333333336" stroke-width="1"></path>
    <path id="Vector_8" stroke="#000cfe" d="M5.012572083333334 11.5H0" stroke-width="1"></path>
    <path id="Vector_9" stroke="#000cfe" d="m3.36820625 3.36820625 3.5447216666666668 3.5447216666666668" stroke-width="1"></path>
    <path id="Subtract" stroke="#c71dff" d="M17.643491666666666 13.589550000000001c-0.6555000000000001 0.22281250000000002 -1.3582458333333334 0.34365833333333334 -2.0890708333333334 0.34365833333333334 -3.582825 0 -6.4872362500000005 -2.9044208333333335 -6.4872362500000005 -6.487197916666667 0 -0.7308920833333333 0.12087458333333333 -1.4335516666666668 0.34371583333333333 -2.0890804166666666 -2.5578491666666667 0.8695245833333334 -4.398136666666667 3.2916066666666666 -4.398136666666667 6.143549166666667 0 3.5827291666666667 2.904430416666667 6.48715 6.4872362500000005 6.48715 2.851904166666667 0 5.273995833333334 -1.8402875 6.143491666666667 -4.398079166666666Z" stroke-width="1"></path>
  </g>
</svg>