<svg xmlns="http://www.w3.org/2000/svg" fill="none" viewBox="0 0 24 24" id="Startup--Streamline-Sharp-Remix">
  <desc>
    Startup Streamline Icon: https://streamlinehq.com
  </desc>
  <g id="startup--shop-rocket-launch-startup">
    <path id="Union" fill="#000000" fill-rule="evenodd" d="m11.9998 20.7678 -0.8839 -0.8839 -6.99995 -7L3.23206 12l0.00006 -0.0001 -2.11606 -2.11602 -0.883882 -0.88389 0.883882 -0.88388 3 -3 0.36612 -0.36612h5.99992l3.6338 -3.63387L14.4821 0.75h8.7677v8.76777l-0.3661 0.36611 -3.6338 3.63372 0 5.4824v0.5178l-0.3661 0.3661 -3 3 -0.8839 0.8839 -0.8838 -0.8839 -2.1162 -2.1162 -0.0001 0.0001Zm0 -3.5356 -5.23215 -5.2321 5.11615 -5.11622 2.1339 -2.13389h-0.0001l1.5 -1.49999 5.2322 0v5.23223l-8.75 8.74997Zm-10.88374 3.884 4.5 -4.5 1.76777 1.7678 -4.5 4.5 -1.76777 -1.7678Zm7.50006 -1.5001 -2 2 1.76777 1.7678 2.00001 -2 -1.76778 -1.7678ZM0.616061 15.6162l1.999999 -2 1.76777 1.7678 -2 2 -1.767769 -1.7678ZM15.6317 6.60049l-2.0313 2.03125 1.7678 1.76776 2.0313 -2.03125 -1.7678 -1.76776Z" clip-rule="evenodd" stroke-width="1"></path>
  </g>
</svg>