<svg xmlns="http://www.w3.org/2000/svg" fill="none" viewBox="0 0 24 24" id="Tag-Free-Circle--Streamline-Sharp-Remix">
  <desc>
    Tag Free Circle Streamline Icon: https://streamlinehq.com
  </desc>
  <g id="tag-free-circle--store-shop-shops-stores-tag-free-circle">
    <path id="Union" fill="#000000" fill-rule="evenodd" d="M12 2.5C9.02879 2.5 6.37617 3.86401 4.63415 6H1.60538C3.68023 2.41319 7.5583 0 12 0s8.3197 2.41319 10.3946 6h-3.0288C17.6238 3.86401 14.9712 2.5 12 2.5ZM1.60538 18h3.02877C6.37617 20.136 9.02879 21.5 12 21.5c2.9712 0 5.6238 -1.364 7.3658 -3.5h3.0288C20.3197 21.5868 16.4417 24 12 24c-4.4417 0 -8.31977 -2.4132 -10.39462 -6ZM14 8h-1v8h5v-2h-3v-1h2v-2h-2v-1h3V8h-4Zm5 0h5v2h-3v1h2v2h-2v1h3v2h-5V8ZM1 8H0v8h2v-3h2.5v-2H2v-1h3V8H1Zm6 0H6v8h2v-2.5h0.96482l1.70308 2.5547 1.6642 -1.1094 -1.1415 -1.7122c0.4864 -0.3072 0.8094 -0.8496 0.8094 -1.4674V9.73427C12 8.77646 11.2235 8 10.2657 8H7Zm1 3.5V10h2v1.5H8Z" clip-rule="evenodd" stroke-width="1"></path>
  </g>
</svg>