<svg xmlns="http://www.w3.org/2000/svg" fill="none" viewBox="0 0 24 24" id="Aircraft-Chopper-2--Streamline-Ultimate">
  <desc>
    Aircraft Chopper 2 Streamline Icon: https://streamlinehq.com
  </desc>
  <path stroke="#000000" stroke-linecap="round" stroke-linejoin="round" d="M5.31602 7.49984H14.7c1.8919 -0.00057 3.7308 0.62512 5.2297 1.77943 1.4989 1.15433 2.5736 2.77233 3.0563 4.60153 0.169 0.609 0.2584 1.2372 0.266 1.869 0.0069 0.2976 -0.0467 0.5934 -0.1575 0.8696 -0.1108 0.2762 -0.2764 0.5271 -0.487 0.7374 -0.2105 0.2103 -0.4615 0.3758 -0.7378 0.4863 -0.2763 0.1105 -0.5722 0.1639 -0.8697 0.1567h-8.25c-0.4382 -0.0006 -0.8655 -0.1366 -1.2235 -0.3894 -0.358 -0.2527 -0.6292 -0.6098 -0.7765 -1.0226l-1.21999 -3.416c-0.12835 -0.3586 -0.34557 -0.6788 -0.63134 -0.9306 -0.28576 -0.2519 -0.63074 -0.4271 -1.00265 -0.5094l-4.383 -0.969c-0.36696 -0.08 -0.70802 -0.2508 -0.99205 -0.4965 -0.28402 -0.2458 -0.50197 -0.55881 -0.63395 -0.91046l-1.039005 -2.77C0.717781 6.23798 0.717316 5.85483 0.846704 5.50665c0.129388 -0.34817 0.379956 -0.63804 0.705756 -0.81643 0.3258 -0.17839 0.70499 -0.23336 1.06803 -0.15481 0.36304 0.07854 0.6856 0.28533 0.90853 0.58243l1.787 2.382Z" stroke-width="1"></path>
  <path stroke="#000000" stroke-linecap="round" stroke-linejoin="round" d="M14.25 7.5v-6" stroke-width="1"></path>
  <path stroke="#000000" stroke-linecap="round" stroke-linejoin="round" d="M23.25 3h-18" stroke-width="1"></path>
  <path stroke="#000000" stroke-linecap="round" stroke-linejoin="round" d="M15.75 10.5V7.56396c1.6316 0.20186 3.1707 0.86884 4.4337 1.92136 1.263 1.05248 2.1966 2.44618 2.6893 4.01468H18.75c-0.7956 0 -1.5587 -0.3161 -2.1213 -0.8787 -0.5626 -0.5626 -0.8787 -1.3257 -0.8787 -2.1213Z" stroke-width="1"></path>
  <path stroke="#000000" stroke-linecap="round" stroke-linejoin="round" d="M23.25 21c0 0.3978 -0.158 0.7794 -0.4393 1.0607s-0.6629 0.4393 -1.0607 0.4393h-10.5c-0.3978 0 -0.7794 -0.158 -1.0607 -0.4393C9.90804 21.7794 9.75 21.3978 9.75 21" stroke-width="1"></path>
  <path stroke="#000000" stroke-linecap="round" stroke-linejoin="round" d="M21 22.5 18.75 18" stroke-width="1"></path>
  <path stroke="#000000" stroke-linecap="round" stroke-linejoin="round" d="m12 22.5 2.25 -4.5" stroke-width="1"></path>
</svg>