<svg xmlns="http://www.w3.org/2000/svg" fill="none" viewBox="0 0 24 24" id="Autopilot-Car-1--Streamline-Ultimate">
  <desc>
    Autopilot Car 1 Streamline Icon: https://streamlinehq.com
  </desc>
  <path stroke="#000000" stroke-linecap="round" stroke-linejoin="round" d="m20.142 16.8351 -1.806 -1.505 -1.223 -3.669c-0.105 -0.3149 -0.3063 -0.5889 -0.5755 -0.7832 -0.2691 -0.1944 -0.5926 -0.2992 -0.9245 -0.2998H8.38996c-0.33197 0.0006 -0.65539 0.1054 -0.92454 0.2998 -0.26916 0.1943 -0.47046 0.4683 -0.57546 0.7832l-1.226 3.669 -1.806 1.505c-0.17836 0.1487 -0.32186 0.3348 -0.42036 0.5451 -0.0985 0.2103 -0.14958 0.4397 -0.14964 0.6719v2.03c0.00027 0.21 0.0838 0.4113 0.23227 0.5598 0.14847 0.1484 0.34976 0.232 0.55973 0.2322h1.584v1.584c0.00027 0.21 0.0838 0.4113 0.23227 0.5598 0.14847 0.1484 0.34976 0.232 0.55973 0.2322h1.584c0.20997 -0.0002 0.41127 -0.0838 0.55974 -0.2322 0.14847 -0.1485 0.232 -0.3498 0.23226 -0.5598v-1.584H15.168v1.584c0.0002 0.21 0.0838 0.4113 0.2322 0.5598 0.1485 0.1484 0.3498 0.232 0.5598 0.2322h1.584c0.2099 -0.0002 0.4112 -0.0838 0.5597 -0.2322 0.1485 -0.1485 0.232 -0.3498 0.2323 -0.5598v-1.584h1.584c0.2099 -0.0002 0.4112 -0.0838 0.5597 -0.2322 0.1485 -0.1485 0.232 -0.3498 0.2323 -0.5598v-2.03c-0.0001 -0.2322 -0.0512 -0.4616 -0.1497 -0.6719 -0.0985 -0.2103 -0.242 -0.3964 -0.4203 -0.5451Z" stroke-width="1"></path>
  <path stroke="#000000" stroke-linecap="round" stroke-linejoin="round" d="M5.73901 15.104H18.261" stroke-width="1"></path>
  <path stroke="#000000" stroke-linecap="round" stroke-linejoin="round" d="M5.39999 7.449V2.541c0 -0.475 -0.18869 -0.93055 -0.52457 -1.26643C4.53954 0.938694 4.084 0.75 3.60899 0.75c-0.475 0 -0.93055 0.188694 -1.26643 0.52457 -0.33587 0.33588 -0.52457 0.79143 -0.52457 1.26643v4.908" stroke-width="1"></path>
  <path stroke="#000000" stroke-linecap="round" stroke-linejoin="round" d="M7.84204 0.75v4.908c0 0.475 0.18869 0.93055 0.52457 1.26643 0.33588 0.33588 0.79143 0.52457 1.26643 0.52457 0.47496 0 0.93056 -0.18869 1.26646 -0.52457 0.3358 -0.33588 0.5245 -0.79143 0.5245 -1.26643V0.75" stroke-width="1"></path>
  <path stroke="#000000" stroke-linecap="round" stroke-linejoin="round" d="M13.696 0.75h3.582" stroke-width="1"></path>
  <path stroke="#000000" stroke-linecap="round" stroke-linejoin="round" d="M15.4871 7.449V0.75" stroke-width="1"></path>
  <path stroke="#000000" stroke-linecap="round" stroke-linejoin="round" d="M18.6 2.541c0 -0.475 0.1887 -0.93055 0.5245 -1.26643C19.4604 0.938694 19.916 0.75 20.391 0.75s0.9305 0.188694 1.2664 0.52457c0.3359 0.33588 0.5246 0.79143 0.5246 1.26643v3.117c0 0.475 -0.1887 0.93055 -0.5246 1.26643 -0.3359 0.33588 -0.7914 0.52457 -1.2664 0.52457s-0.9306 -0.18869 -1.2665 -0.52457C18.7887 6.58855 18.6 6.133 18.6 5.658V2.541Z" stroke-width="1"></path>
  <path stroke="#000000" stroke-linecap="round" stroke-linejoin="round" d="M1.81494 4.44482h3.582" stroke-width="1"></path>
</svg>