<svg xmlns="http://www.w3.org/2000/svg" fill="none" viewBox="0 0 24 24" id="Road-Tunnel--Streamline-Ultimate">
  <desc>
    Road Tunnel Streamline Icon: https://streamlinehq.com
  </desc>
  <path stroke="#000000" stroke-linecap="round" stroke-linejoin="round" d="M12 0.75c-2.78477 0 -5.45549 1.10625 -7.42462 3.07538C2.60625 5.79451 1.5 8.46523 1.5 11.25v10.5c0 0.3978 0.15804 0.7794 0.43934 1.0607S2.60218 23.25 3 23.25h18c0.3978 0 0.7794 -0.158 1.0607 -0.4393s0.4393 -0.6629 0.4393 -1.0607v-10.5c0 -2.78477 -1.1062 -5.45549 -3.0754 -7.42462C17.4555 1.85625 14.7848 0.75 12 0.75Z" stroke-width="1.5"></path>
  <path stroke="#000000" stroke-linecap="round" stroke-linejoin="round" d="M12 8.25c-0.7956 0 -1.5587 0.31607 -2.12132 0.87868C9.31607 9.69129 9 10.4544 9 11.25v4.5h6v-4.5c0 -0.7956 -0.3161 -1.55871 -0.8787 -2.12132C13.5587 8.56607 12.7956 8.25 12 8.25Z" stroke-width="1.5"></path>
  <path stroke="#000000" stroke-linecap="round" stroke-linejoin="round" d="m8.99996 15.75 -7.061 7.061" stroke-width="1.5"></path>
  <path stroke="#000000" stroke-linecap="round" stroke-linejoin="round" d="m15 15.75 7.061 7.061" stroke-width="1.5"></path>
  <path stroke="#000000" stroke-linecap="round" stroke-linejoin="round" d="M12 23.25v-3" stroke-width="1.5"></path>
  <path stroke="#000000" stroke-linecap="round" stroke-linejoin="round" d="M12 15.75v1.5" stroke-width="1.5"></path>
</svg>