<svg xmlns="http://www.w3.org/2000/svg" fill="none" viewBox="0 0 24 24" id="Road-Sign-Hairpin-Turn-Left--Streamline-Ultimate">
  <desc>
    Road Sign Hairpin Turn Left Streamline Icon: https://streamlinehq.com
  </desc>
  <path stroke="#000000" stroke-linecap="round" stroke-linejoin="round" d="M1.03453 11.3601 11.3594 1.03458s0.6402 -0.640274 1.2805 -0.00005L22.9654 11.3594s0.6403 0.6402 0.0001 1.2805L12.6406 22.9654s-0.6402 0.6403 -1.2805 0.0001L1.03458 12.6406s-0.640274 -0.6402 -0.00005 -1.2805Z" stroke-width="1"></path>
  <path stroke="#000000" stroke-linecap="round" stroke-linejoin="round" d="M15.75 15.75V10.5c0 -0.99456 -0.3951 -1.94839 -1.0983 -2.65165C13.9484 7.14509 12.9946 6.75 12 6.75c-0.9946 0 -1.9484 0.39509 -2.65165 1.09835C8.64509 8.55161 8.25 9.50544 8.25 10.5v3" stroke-width="1"></path>
  <path stroke="#000000" stroke-linecap="round" stroke-linejoin="round" d="M10.5 11.25 8.25 13.5 6 11.25" stroke-width="1"></path>
</svg>