<svg xmlns="http://www.w3.org/2000/svg" fill="none" viewBox="0 0 24 24" id="Scooter-Fast--Streamline-Ultimate">
  <desc>
    Scooter Fast Streamline Icon: https://streamlinehq.com
  </desc>
  <path stroke="#000000" stroke-linecap="round" stroke-linejoin="round" d="M19.822 19.592c0 0.193 0.038 0.384 0.1118 0.5622 0.0739 0.1782 0.1821 0.3402 0.3185 0.4766 0.1364 0.1364 0.2983 0.2446 0.4766 0.3184 0.1782 0.0739 0.3692 0.1118 0.5621 0.1118 0.1929 0 0.384 -0.0379 0.5622 -0.1118 0.1782 -0.0738 0.3402 -0.182 0.4766 -0.3184 0.1364 -0.1364 0.2446 -0.2984 0.3184 -0.4766 0.0738 -0.1782 0.1118 -0.3692 0.1118 -0.5622 0 -0.1929 -0.038 -0.3839 -0.1118 -0.5621 -0.0738 -0.1782 -0.182 -0.3402 -0.3184 -0.4766 -0.1364 -0.1364 -0.2984 -0.2446 -0.4766 -0.3184 -0.1782 -0.0739 -0.3693 -0.1119 -0.5622 -0.1119 -0.1929 0 -0.3839 0.038 -0.5621 0.1119 -0.1783 0.0738 -0.3402 0.182 -0.4766 0.3184 -0.1364 0.1364 -0.2446 0.2984 -0.3185 0.4766 -0.0738 0.1782 -0.1118 0.3692 -0.1118 0.5621Z" stroke-width="1.5"></path>
  <path stroke="#000000" stroke-linecap="round" stroke-linejoin="round" d="M1.21002 19.592c0 0.3896 0.15477 0.7633 0.43026 1.0388 0.27549 0.2755 0.64914 0.4302 1.03874 0.4302 0.3896 0 0.76325 -0.1547 1.03874 -0.4302s0.43026 -0.6492 0.43026 -1.0388c0 -0.3896 -0.15477 -0.7632 -0.43026 -1.0387 -0.27549 -0.2755 -0.64914 -0.4303 -1.03874 -0.4303 -0.3896 0 -0.76325 0.1548 -1.03874 0.4303s-0.43026 0.6491 -0.43026 1.0387Z" stroke-width="1.5"></path>
  <path stroke="#000000" stroke-linecap="round" stroke-linejoin="round" d="M0.75 16.2c0.55947 -0.3239 1.19039 -0.5043 1.8365 -0.5251 0.64612 -0.0209 1.28735 0.1185 1.86654 0.4056 0.57919 0.2871 1.07834 0.7131 1.45294 1.2399 0.37461 0.5269 0.61303 1.1382 0.69402 1.7796h10.8c0.0812 -0.6409 0.3196 -1.2518 0.6941 -1.7783 0.3744 -0.5265 0.8732 -0.9522 1.4519 -1.2392 0.5788 -0.2871 1.2196 -0.4266 1.8653 -0.4061 0.6457 0.0205 1.2763 0.2004 1.8357 0.5236" stroke-width="1.5"></path>
  <path stroke="#000000" stroke-linecap="round" stroke-linejoin="round" d="M19.332 16.163 17.806 2.93896" stroke-width="1.5"></path>
  <path stroke="#000000" stroke-linecap="round" stroke-linejoin="round" d="M15.413 2.93896h4.898" stroke-width="1.5"></path>
  <path stroke="#000000" stroke-linecap="round" stroke-linejoin="round" d="M8.849 16.1768h6.272" stroke-width="1.5"></path>
  <path stroke="#000000" stroke-linecap="round" stroke-linejoin="round" d="M11.495 2.93896H7.08704" stroke-width="1.5"></path>
  <path stroke="#000000" stroke-linecap="round" stroke-linejoin="round" d="M11.4949 7.34717H4.14795" stroke-width="1.5"></path>
  <path stroke="#000000" stroke-linecap="round" stroke-linejoin="round" d="M11.495 11.7549H1.21002" stroke-width="1.5"></path>
</svg>