<svg xmlns="http://www.w3.org/2000/svg" fill="none" viewBox="0 0 24 24" id="Truck-2--Streamline-Ultimate">
  <desc>
    Truck 2 Streamline Icon: https://streamlinehq.com
  </desc>
  <path stroke="#000000" stroke-linecap="round" stroke-linejoin="round" d="M15.75 18c0 0.5967 0.2371 1.169 0.659 1.591 0.422 0.4219 0.9943 0.659 1.591 0.659s1.169 -0.2371 1.591 -0.659c0.4219 -0.422 0.659 -0.9943 0.659 -1.591s-0.2371 -1.169 -0.659 -1.591c-0.422 -0.4219 -0.9943 -0.659 -1.591 -0.659s-1.169 0.2371 -1.591 0.659c-0.4219 0.422 -0.659 0.9943 -0.659 1.591Z" stroke-width="1.5"></path>
  <path stroke="#000000" stroke-linecap="round" stroke-linejoin="round" d="M3 18c0 0.2955 0.0582 0.5881 0.17127 0.861 0.11307 0.273 0.27881 0.5211 0.48774 0.73 0.20893 0.2089 0.45697 0.3747 0.72995 0.4877 0.27298 0.1131 0.56557 0.1713 0.86104 0.1713s0.58806 -0.0582 0.86104 -0.1713c0.27298 -0.113 0.52102 -0.2788 0.72995 -0.4877 0.20893 -0.2089 0.37467 -0.457 0.48774 -0.73C7.4418 18.5881 7.5 18.2955 7.5 18s-0.0582 -0.5881 -0.17127 -0.861c-0.11307 -0.273 -0.27881 -0.5211 -0.48774 -0.73 -0.20893 -0.2089 -0.45697 -0.3747 -0.72995 -0.4877 -0.27298 -0.1131 -0.56557 -0.1713 -0.86104 -0.1713s-0.58806 0.0582 -0.86104 0.1713c-0.27298 0.113 -0.52102 0.2788 -0.72995 0.4877 -0.20893 0.2089 -0.37467 0.457 -0.48774 0.73C3.0582 17.4119 3 17.7045 3 18Z" stroke-width="1.5"></path>
  <path stroke="#000000" stroke-linecap="round" stroke-linejoin="round" d="M15.75 18H7.5" stroke-width="1.5"></path>
  <path stroke="#000000" stroke-linecap="round" stroke-linejoin="round" d="M3 18h-0.75c-0.39782 0 -0.77936 -0.158 -1.06066 -0.4393C0.908035 17.2794 0.75 16.8978 0.75 16.5V5.25c0 -0.39782 0.158035 -0.77936 0.43934 -1.06066 0.2813 -0.2813 0.66284 -0.43934 1.06066 -0.43934h15.485c0.5349 0.00008 1.0601 0.14318 1.5211 0.41448 0.461 0.2713 0.8411 0.66092 1.1009 1.12852l2.232 4.018c0.4337 0.7796 0.6612 1.6569 0.661 2.549v4.64c0 0.3978 -0.158 0.7794 -0.4393 1.0607S22.1478 18 21.75 18h-1.5" stroke-width="1.5"></path>
  <path stroke="#000000" stroke-linecap="round" stroke-linejoin="round" d="M0.75 13.5h18.8c0.4522 0.0005 0.8985 0.1031 1.3054 0.3004 0.407 0.1972 0.7641 0.4839 1.0446 0.8386l1.349 1.706" stroke-width="1.5"></path>
  <path stroke="#000000" stroke-linecap="round" stroke-linejoin="round" d="M0.75 6.75h20.416" stroke-width="1.5"></path>
  <path stroke="#000000" stroke-linecap="round" stroke-linejoin="round" d="M16.5 6.75v3.75" stroke-width="1.5"></path>
  <path stroke="#000000" stroke-linecap="round" stroke-linejoin="round" d="M9 6.75v3.75" stroke-width="1.5"></path>
  <path stroke="#000000" stroke-linecap="round" stroke-linejoin="round" d="M0.75 10.5h22.321" stroke-width="1.5"></path>
</svg>