<svg xmlns="http://www.w3.org/2000/svg" fill="none" viewBox="0 0 24 24" id="Stream-Logo--Streamline-Logos">
  <desc>
    Stream Logo Streamline Icon: https://streamlinehq.com
  </desc>
  <path stroke="#000000" stroke-linejoin="round" d="M14 9.25a1.5 1.5 0 1 0 3 0 1.5 1.5 0 1 0 -3 0" stroke-width="1"></path>
  <path stroke="#000000" stroke-linejoin="round" d="M8.25 17.116a1 1 0 1 0 1 -1.732l-7.747 -3.627C1.632 6.07 6.283 1.5 12 1.5c5.799 0 10.5 4.701 10.5 10.5S17.799 22.5 12 22.5c-4.971 0 -9.136 -3.455 -10.223 -8.095l6.473 2.711Z" stroke-width="1"></path>
  <path stroke="#000000" stroke-linejoin="round" d="M6.851 14.261a2.74 2.74 0 0 1 2.144 -0.75l3.013 -4.029a3.5 3.5 0 1 1 3.947 3.238l-4.466 3.287a2.75 2.75 0 1 1 -5.488 0.167" stroke-width="1"></path>
</svg>