<svg xmlns="http://www.w3.org/2000/svg" fill="none" viewBox="0 0 48 48" id="Antenna--Streamline-Kameleon">
  <desc>
    Antenna Streamline Icon: https://streamlinehq.com
  </desc>
  <path fill="#deeeff" d="M23.9989 47.9997c13.2548 0 23.9999 -10.745 23.9999 -23.9998C47.9988 10.7451 37.2537 0 23.9989 0S-0.000976562 10.7451 -0.000976562 23.9999 10.7441 47.9997 23.9989 47.9997Z" stroke-width="1"></path>
  <path fill="#2e3ecd" d="M29.2576 37.9636h4.341c-3.0384 -4.7747 -6.5777 -11.5139 -9.1344 -18.8286 -0.0589 -0.1684 -0.2286 -0.2727 -0.4071 -0.271 -0.1785 0.0022 -0.3421 0.1113 -0.401 0.2797 -2.4633 7.0992 -6.1183 14.0452 -9.1571 18.8199h4.3409c0.4656 -0.8326 0.899 -1.7071 1.3148 -2.6047h7.7877c0.4163 0.8976 0.8501 1.7721 1.3152 2.6047Zm-5.2088 -13.8903c0.4316 1.6342 0.895 3.2269 1.3924 4.7747h-2.7844c0.497 -1.5482 0.9604 -3.1405 1.392 -4.7747Zm-3.1313 9.5493c0.408 -0.9831 0.792 -1.9976 1.1563 -3.0383h3.95c0.3643 1.0407 0.7483 2.0552 1.1563 3.0383h-6.2626Z" stroke-width="1"></path>
  <path fill="#6bafff" d="M27.7432 14.8153c0 0.2042 0.0855 0.4071 0.2517 0.5506 0.4809 0.415 0.7567 1.0172 0.7567 1.6521 0 0.6253 -0.2688 1.2214 -0.7383 1.6359 -0.3011 0.2658 -0.3295 0.7257 -0.0637 1.0263 0.2657 0.3011 0.7252 0.3295 1.0263 0.0638 0.7815 -0.6904 1.2296 -1.6835 1.2296 -2.726 0 -1.0577 -0.4594 -2.0614 -1.2606 -2.753 -0.3041 -0.2623 -0.7632 -0.2287 -1.0254 0.0755 -0.1183 0.137 -0.1763 0.3063 -0.1763 0.4748Z" stroke-width="1"></path>
  <path fill="#6bafff" d="M31.1514 20.8928c0 0.1998 0.082 0.3988 0.2426 0.5424 0.2993 0.2675 0.7593 0.2417 1.0267 -0.0576 1.0726 -1.2 1.6635 -2.7482 1.6635 -4.3593 0 -1.5931 -0.5791 -3.1282 -1.6307 -4.3226 -0.2653 -0.3015 -0.7248 -0.3307 -1.0264 -0.0654 -0.3015 0.2653 -0.3307 0.7248 -0.0654 1.0263 0.8177 0.9286 1.2681 2.1225 1.2681 3.3617 0 1.2528 -0.4595 2.4568 -1.2934 3.3901 -0.1239 0.1388 -0.185 0.3116 -0.185 0.4844Z" stroke-width="1"></path>
  <path fill="#6bafff" d="M33.9209 11.1803c0 0.1982 0.0807 0.3958 0.2391 0.5394 1.4924 1.3514 2.3481 3.281 2.3481 5.293 0 2.0077 -0.8527 3.9343 -2.3398 5.2853 -0.2971 0.2701 -0.3194 0.73 -0.0493 1.0272 0.2701 0.2971 0.73 0.3189 1.0272 0.0493 1.79 -1.6264 2.8163 -3.9452 2.8163 -6.3618 0 -2.4222 -1.0303 -4.7441 -2.8263 -6.3708 -0.2976 -0.2697 -0.7576 -0.247 -1.0272 0.051 -0.1261 0.1388 -0.1881 0.3133 -0.1881 0.4874Z" stroke-width="1"></path>
  <path fill="#6bafff" d="M20.2544 14.8153c0 0.2042 -0.0855 0.4071 -0.2518 0.5506 -0.4809 0.415 -0.7567 1.0172 -0.7567 1.6521 0 0.6253 0.2688 1.2214 0.7384 1.6359 0.3011 0.2658 0.3294 0.7257 0.0637 1.0263 -0.2658 0.3011 -0.7253 0.3295 -1.0263 0.0638 -0.7816 -0.6904 -1.2297 -1.6835 -1.2297 -2.726 0 -1.0577 0.4595 -2.0614 1.2606 -2.753 0.3042 -0.2623 0.7632 -0.2287 1.0255 0.0755 0.1182 0.137 0.1763 0.3063 0.1763 0.4748Z" stroke-width="1"></path>
  <path fill="#6bafff" d="M16.8459 20.8928c0 0.1998 -0.0821 0.3988 -0.2426 0.5424 -0.2994 0.2675 -0.7593 0.2417 -1.0268 -0.0576 -1.0726 -1.2 -1.6634 -2.7482 -1.6634 -4.3593 0 -1.5931 0.579 -3.1282 1.6307 -4.3226 0.2653 -0.3015 0.7248 -0.3307 1.0263 -0.0654s0.3308 0.7248 0.0654 1.0263c-0.8177 0.9286 -1.268 2.1225 -1.268 3.3617 0 1.2528 0.4595 2.4568 1.2934 3.3901 0.1239 0.1388 0.185 0.3116 0.185 0.4844Z" stroke-width="1"></path>
  <path fill="#6bafff" d="M14.0767 11.1803c0 0.1982 -0.0807 0.3958 -0.2391 0.5394 -1.4923 1.3514 -2.3481 3.281 -2.3481 5.293 0 2.0077 0.8527 3.9343 2.3398 5.2853 0.2972 0.2701 0.3194 0.73 0.0493 1.0272 -0.2701 0.2971 -0.73 0.3189 -1.0272 0.0493 -1.7899 -1.6264 -2.8162 -3.9452 -2.8162 -6.3618 0 -2.4222 1.0302 -4.7441 2.8263 -6.3708 0.2976 -0.2697 0.7575 -0.247 1.0272 0.051 0.1261 0.1388 0.188 0.3133 0.188 0.4874Z" stroke-width="1"></path>
</svg>