<svg xmlns="http://www.w3.org/2000/svg" fill="none" viewBox="0 0 48 48" id="Newspaper--Streamline-Kameleon">
  <desc>
    Newspaper Streamline Icon: https://streamlinehq.com
  </desc>
  <path fill="#deeeff" d="M23.9989 47.9973c13.2548 0 23.9999 -10.7451 23.9999 -23.9999 0 -13.2547 -10.7451 -23.99984141 -23.9999 -23.99984141S-0.000976562 10.7427 -0.000976562 23.9974c0 13.2548 10.745076562 23.9999 23.999876562 23.9999Z" stroke-width="1"></path>
  <path fill="#2e3ecd" d="M30.9805 12.6519h-20.509c-0.2409 0 -0.4363 0.1954 -0.4363 0.4363v24.4363c0 0.2408 0.1954 0.4363 0.4363 0.4363h25.309c0.2408 0 0.4363 -0.1955 0.4363 -0.4363V17.8882l-5.2363 -5.2363Z" stroke-width="1"></path>
  <path fill="#6bafff" d="M22.2539 23.9971H11.7812v8.7272h10.4727v-8.7272Z" stroke-width="1"></path>
  <path fill="#6bafff" d="M34.4717 24.4334c0 0.2409 -0.1955 0.4364 -0.4364 0.4364h-9.5999c-0.2409 0 -0.4364 -0.1955 -0.4364 -0.4364 0 -0.2408 0.1955 -0.4363 0.4364 -0.4363h9.5999c0.2409 0 0.4364 0.1955 0.4364 0.4363Z" stroke-width="1"></path>
  <path fill="#6bafff" d="M34.4717 27.0516c0 0.2409 -0.1955 0.4364 -0.4364 0.4364h-9.5999c-0.2409 0 -0.4364 -0.1955 -0.4364 -0.4364s0.1955 -0.4364 0.4364 -0.4364h9.5999c0.2409 0 0.4364 0.1955 0.4364 0.4364Z" stroke-width="1"></path>
  <path fill="#6bafff" d="M34.4717 29.6698c0 0.2408 -0.1955 0.4363 -0.4364 0.4363h-9.5999c-0.2409 0 -0.4364 -0.1955 -0.4364 -0.4363 0 -0.2409 0.1955 -0.4364 0.4364 -0.4364h9.5999c0.2409 0 0.4364 0.1955 0.4364 0.4364Z" stroke-width="1"></path>
  <path fill="#6bafff" d="M34.4717 32.2879c0 0.2409 -0.1955 0.4364 -0.4364 0.4364h-9.5999c-0.2409 0 -0.4364 -0.1955 -0.4364 -0.4364 0 -0.2408 0.1955 -0.4363 0.4364 -0.4363h9.5999c0.2409 0 0.4364 0.1955 0.4364 0.4363Z" stroke-width="1"></path>
  <path fill="#6bafff" d="M34.4717 34.9066c0 0.2408 -0.1955 0.4363 -0.4364 0.4363h-9.5999c-0.2409 0 -0.4364 -0.1955 -0.4364 -0.4363 0 -0.2409 0.1955 -0.4364 0.4364 -0.4364h9.5999c0.2409 0 0.4364 0.1955 0.4364 0.4364Z" stroke-width="1"></path>
  <path fill="#6bafff" d="M22.2539 34.9066c0 0.2408 -0.1955 0.4363 -0.4363 0.4363h-9.6c-0.2409 0 -0.4364 -0.1955 -0.4364 -0.4363 0 -0.2409 0.1955 -0.4364 0.4364 -0.4364h9.6c0.2408 0 0.4363 0.1955 0.4363 0.4364Z" stroke-width="1"></path>
  <path fill="#6bafff" d="M34.472 21.3787c0 0.2409 -0.1955 0.4364 -0.4363 0.4364H12.2176c-0.2409 0 -0.4364 -0.1955 -0.4364 -0.4364 0 -0.2408 0.1955 -0.4363 0.4364 -0.4363h21.8181c0.2408 0 0.4363 0.1955 0.4363 0.4363Z" stroke-width="1"></path>
  <path fill="#6bafff" d="M30.9805 12.6519v5.2363h5.2363l-5.2363 -5.2363Z" stroke-width="1"></path>
  <path fill="#6bafff" d="M12.3032 15.4379h1.0075l1.0133 1.7896 0.3556 0.8413 0.0297 -0.0061c-0.0061 0 -0.1126 -0.7231 -0.1187 -0.7231v-1.9021h1.0547v4.1961h-1.0726l-0.9482 -1.6534 -0.3674 -0.8413 -0.0297 0.0061 0.1361 0.8116v1.677h-1.0608v-4.1957h0.0005Z" stroke-width="1"></path>
  <path fill="#6bafff" d="M17.3831 17.0853h1.7005v0.9185h-1.7005v0.6279h1.8489v1.0019h-2.9215V15.438h2.9215v0.9953h-1.8489v0.652Z" stroke-width="1"></path>
  <path fill="#6bafff" d="M23.7895 15.438h1.0962l-1.2088 4.1956h-0.9835l-0.3735 -1.1616 -0.148 -0.96h-0.0179l-0.1601 0.9543 -0.3316 1.1673h-0.9836l-1.2148 -4.1956h1.1022l0.4979 2.009 0.1065 0.8889h0.0296l0.1008 -0.8828 0.4683 -1.4697h0.8059l0.4325 1.4758 0.1361 0.8771h0.0179l0.1182 -0.8771 0.5097 -2.0212Z" stroke-width="1"></path>
  <path fill="#6bafff" d="M25.6284 18.306c0.4206 0.5097 1.3453 0.5333 1.3749 0.0829 0.0118 -0.2369 -0.3731 -0.3735 -0.7169 -0.4206 -0.6755 -0.1065 -1.2921 -0.5333 -1.2921 -1.3331 0 -0.8239 0.7466 -1.2563 1.5173 -1.2563 0.5096 0 1.0014 0.1423 1.4343 0.6698l-0.6934 0.5333c-0.4385 -0.4683 -1.1913 -0.4504 -1.2092 0.0357 0.0118 0.2016 0.2313 0.3199 0.5573 0.391 0.7466 0.1362 1.4932 0.3971 1.4456 1.4282 -0.0353 0.8117 -0.8888 1.2563 -1.659 1.2563 -0.5036 0 -1.0368 -0.2548 -1.4282 -0.7584l0.6694 -0.6288Z" stroke-width="1"></path>
</svg>