<svg xmlns="http://www.w3.org/2000/svg" fill="none" viewBox="0 0 48 48" id="Earth-1--Streamline-Plump">
  <desc>
    Earth 1 Streamline Icon: https://streamlinehq.com
  </desc>
  <g id="earth-1--planet-earth-globe-world">
    <path id="Ellipse 19" fill="#8fbffa" d="M24 3c11.598 0 21 9.402 21 21s-9.402 21 -21 21S3 35.598 3 24 12.402 3 24 3Z" stroke-width="1"></path>
    <path id="Intersect" fill="#ffffff" d="M15.575 43C8.822 40.097 3.899 33.782 3 26.24c3.789 -0.2 7.335 0.167 8.528 0.31 0.285 0.035 0.564 0.092 0.833 0.191 3.157 1.158 4.987 4.388 5.796 6.205 0.369 0.828 0.42 1.748 0.199 2.626A36.729 36.729 0 0 1 15.576 43Z" stroke-width="1"></path>
    <path id="Intersect_2" fill="#ffffff" d="M39.837 10A20.82 20.82 0 0 1 45 23.747c0 5.111 -1.839 9.795 -4.894 13.433 -3.754 -3.208 -6.892 -9.106 -8.146 -11.671a3.016 3.016 0 0 0 -1.924 -1.601l-2.412 -0.64c-2.676 -0.71 -4.894 -2.869 -4.411 -5.582 0.104 -0.582 0.261 -1.19 0.493 -1.803 0.577 -1.527 2.04 -2.465 3.617 -2.91 2.817 -0.796 7.698 -2.091 12.514 -2.973Z" stroke-width="1"></path>
    <path id="Ellipse 18" stroke="#2859c5" stroke-linecap="round" stroke-linejoin="round" d="M24 3c11.598 0 21 9.402 21 21s-9.402 21 -21 21S3 35.598 3 24 12.402 3 24 3Z" stroke-width="1"></path>
    <path id="Intersect_3" stroke="#2859c5" stroke-linecap="round" stroke-linejoin="round" d="M15.575 43a36.723 36.723 0 0 0 2.78 -7.428c0.223 -0.878 0.17 -1.798 -0.198 -2.627 -0.809 -1.816 -2.64 -5.046 -5.796 -6.204a3.688 3.688 0 0 0 -0.833 -0.19c-1.17 -0.141 -4.605 -0.496 -8.312 -0.322" stroke-width="1"></path>
    <path id="Intersect_4" stroke="#2859c5" stroke-linecap="round" stroke-linejoin="round" d="M40.106 37.18c-3.754 -3.208 -6.892 -9.106 -8.146 -11.671a3.016 3.016 0 0 0 -1.924 -1.601l-2.412 -0.64c-2.676 -0.71 -4.894 -2.869 -4.411 -5.582 0.104 -0.582 0.261 -1.19 0.493 -1.803 0.577 -1.527 2.04 -2.465 3.617 -2.911 2.786 -0.787 7.59 -2.062 12.354 -2.943" stroke-width="1"></path>
  </g>
</svg>