<svg xmlns="http://www.w3.org/2000/svg" fill="none" viewBox="0 0 48 48" id="Electric-Charging-Station--Streamline-Plump">
  <desc>
    Electric Charging Station Streamline Icon: https://streamlinehq.com
  </desc>
  <g id="electric-charging-station">
    <path id="Rectangle 1101" fill="#8fbffa" d="M37.0334 9.03607c-1.02 0.03531 -1.8635 0.62108 -1.9705 1.63603C35.0249 11.0329 35 11.471 35 12c0 0.19 0.0032 0.3682 0.0091 0.5354 0.0537 1.5298 1.2879 2.4196 2.8184 2.4497 0.4679 0.0092 1.0209 0.0149 1.6725 0.0149 0.6515 0 1.2046 -0.0057 1.6725 -0.0149 1.5305 -0.0301 2.7647 -0.9199 2.8184 -2.4497C43.9968 12.3682 44 12.19 44 12c0 -0.529 -0.0249 -0.9671 -0.0629 -1.3279 -0.107 -1.01495 -0.9505 -1.60072 -1.9705 -1.63603C41.3695 9.01539 40.5667 9 39.5 9c-1.0667 0 -1.8695 0.01539 -2.4666 0.03607Z" stroke-width="3"></path>
    <path id="Union" fill="#8fbffa" d="M6 39V24.4634c0 -6.7795 0.12828 -11.7235 0.26328 -15.04948 0.13241 -3.26236 2.39089 -5.91944 5.64512 -6.18546C13.5328 3.09567 15.5525 3 18 3s4.4672 0.09566 6.0916 0.22846c3.2542 0.26602 5.5127 2.9231 5.6451 6.18546C29.8717 12.7399 30 17.6839 30 24.4634V39h0.9366c0.9505 0 1.8102 0.494 1.9551 1.4334 0.0638 0.4134 0.1083 0.93 0.1083 1.5666 0 0.6366 -0.0445 1.1532 -0.1083 1.5666C32.7468 44.506 31.8871 45 30.9366 45H5.06342c-0.95055 0 -1.81023 -0.494 -1.95516 -1.4334C3.04448 43.1532 3 42.6366 3 42c0 -0.6366 0.04448 -1.1532 0.10826 -1.5666C3.25319 39.494 4.11287 39 5.06342 39H6Z" stroke-width="3"></path>
    <path id="Rectangle 1100" fill="#ffffff" d="M22.6708 17.9027c1.0472 -0.0557 1.9197 -0.666 2.0993 -1.6991C24.8971 15.4735 25 14.4381 25 13c0 -1.4381 -0.1029 -2.4735 -0.2299 -3.2036 -0.1796 -1.03315 -1.0521 -1.6434 -2.0993 -1.69909C21.7032 8.04585 20.2186 8 18 8s-3.7032 0.04585 -4.6708 0.09731c-1.0472 0.05569 -1.9197 0.66594 -2.0993 1.69909C11.1029 10.5265 11 11.5619 11 13c0 1.4381 0.1029 2.4735 0.2299 3.2036 0.1796 1.0331 1.0521 1.6434 2.0993 1.6991C14.2968 17.9541 15.7814 18 18 18s3.7032 -0.0459 4.6708 -0.0973Z" stroke-width="3"></path>
    <path id="Union_2" fill="#ffffff" d="M16.2478 32.5717c-1.582 -0.2019 -2.8618 -0.4342 -3.7614 -0.6201 -0.7057 -0.1458 -0.9749 -0.9652 -0.5065 -1.5127 1.339 -1.5652 3.8912 -4.4369 6.649 -6.9555 0.6409 -0.5854 1.6331 -0.0931 1.5769 0.7731 -0.1378 2.1232 -0.3011 3.8433 -0.4531 5.1722 1.582 0.202 2.8618 0.4342 3.7614 0.6201 0.7057 0.1458 0.9749 0.9652 0.5065 1.5128 -1.339 1.5651 -3.8912 4.4368 -6.649 6.9555 -0.6409 0.5854 -1.6331 0.0931 -1.5769 -0.7732 0.1377 -2.1232 0.3011 -3.8433 0.4531 -5.1722Z" stroke-width="3"></path>
    <path id="Union_3" stroke="#2859c5" stroke-linecap="round" stroke-linejoin="round" d="M6 39V24.4634c0 -6.7795 0.12828 -11.7235 0.26328 -15.04948 0.13241 -3.26236 2.39089 -5.91944 5.64512 -6.18546C13.5328 3.09567 15.5525 3 18 3s4.4672 0.09566 6.0916 0.22846c3.2542 0.26602 5.5127 2.9231 5.6451 6.18546C29.8717 12.7399 30 17.6839 30 24.4634V39h0.9366c0.9505 0 1.8102 0.494 1.9551 1.4334 0.0638 0.4134 0.1083 0.93 0.1083 1.5666 0 0.6366 -0.0445 1.1532 -0.1083 1.5666C32.7468 44.506 31.8871 45 30.9366 45H5.06342c-0.95055 0 -1.81023 -0.494 -1.95516 -1.4334C3.04448 43.1532 3 42.6366 3 42c0 -0.6366 0.04448 -1.1532 0.10826 -1.5666C3.25319 39.494 4.11287 39 5.06342 39H6Z" stroke-width="3"></path>
    <path id="Rectangle 1099" stroke="#2859c5" stroke-linecap="round" stroke-linejoin="round" d="M22.6708 17.9027c1.0472 -0.0557 1.9197 -0.666 2.0993 -1.6991C24.8971 15.4735 25 14.4381 25 13c0 -1.4381 -0.1029 -2.4735 -0.2299 -3.2036 -0.1796 -1.03315 -1.0521 -1.6434 -2.0993 -1.69909C21.7032 8.04585 20.2186 8 18 8s-3.7032 0.04585 -4.6708 0.09731c-1.0472 0.05569 -1.9197 0.66594 -2.0993 1.69909C11.1029 10.5265 11 11.5619 11 13c0 1.4381 0.1029 2.4735 0.2299 3.2036 0.1796 1.0331 1.0521 1.6434 2.0993 1.6991C14.2968 17.9541 15.7814 18 18 18s3.7032 -0.0459 4.6708 -0.0973Z" stroke-width="3"></path>
    <path id="Union_4" stroke="#2859c5" stroke-linecap="round" stroke-linejoin="round" d="M16.2478 32.5717c-1.582 -0.2019 -2.8618 -0.4342 -3.7614 -0.6201 -0.7057 -0.1458 -0.9749 -0.9652 -0.5065 -1.5127 1.339 -1.5652 3.8912 -4.4369 6.649 -6.9555 0.6409 -0.5854 1.6331 -0.0931 1.5769 0.7731 -0.1378 2.1232 -0.3011 3.8433 -0.4531 5.1722 1.582 0.202 2.8618 0.4342 3.7614 0.6201 0.7057 0.1458 0.9749 0.9652 0.5065 1.5128 -1.339 1.5651 -3.8912 4.4368 -6.649 6.9555 -0.6409 0.5854 -1.6331 0.0931 -1.5769 -0.7732 0.1377 -2.1232 0.3011 -3.8433 0.4531 -5.1722Z" stroke-width="3"></path>
    <path id="Vector 347" stroke="#2859c5" stroke-linecap="round" stroke-linejoin="round" d="M30 34h10.3619C42.9234 34 45 31.9234 45 29.3619c0 -1.484 -0.71 -2.8783 -1.9101 -3.7511l-1.9426 -1.4128c-1.035 -0.7527 -1.6473 -1.9552 -1.6473 -3.2349V15" stroke-width="3"></path>
    <path id="Rectangle 57" stroke="#2859c5" stroke-linecap="round" stroke-linejoin="round" d="M37.0334 9.03607c-1.02 0.03531 -1.8635 0.62108 -1.9705 1.63603C35.0249 11.0329 35 11.471 35 12c0 0.19 0.0032 0.3682 0.0091 0.5354 0.0537 1.5298 1.2879 2.4196 2.8184 2.4497 0.4679 0.0092 1.0209 0.0149 1.6725 0.0149 0.6515 0 1.2046 -0.0057 1.6725 -0.0149 1.5305 -0.0301 2.7647 -0.9199 2.8184 -2.4497C43.9968 12.3682 44 12.19 44 12c0 -0.529 -0.0249 -0.9671 -0.0629 -1.3279 -0.107 -1.01495 -0.9505 -1.60072 -1.9705 -1.63603C41.3695 9.01539 40.5667 9 39.5 9c-1.0667 0 -1.8695 0.01539 -2.4666 0.03607Z" stroke-width="3"></path>
    <path id="Vector 1457" stroke="#2859c5" stroke-linecap="round" stroke-linejoin="round" d="M42 9V5" stroke-width="3"></path>
    <path id="Vector 1458" stroke="#2859c5" stroke-linecap="round" stroke-linejoin="round" d="M37 9V5" stroke-width="3"></path>
  </g>
</svg>