<svg xmlns="http://www.w3.org/2000/svg" fill="none" viewBox="0 0 48 48" id="Traffic-Light--Streamline-Plump">
  <desc>
    Traffic Light Streamline Icon: https://streamlinehq.com
  </desc>
  <g id="traffic-light">
    <g id="Rectangle 1097">
      <path fill="#8fbffa" d="M35.6827 8.05871c-0.1165 -2.45452 -1.8209 -4.457 -4.2648 -4.71314C29.6133 3.15644 27.1642 3 24 3s-5.6133 0.15644 -7.4179 0.34557c-2.4439 0.25613 -4.1483 2.25862 -4.2648 4.71314C12.1647 11.2726 12 16.4832 12 24s0.1647 12.7274 0.3173 15.9413c0.1165 2.4545 1.8209 4.457 4.2648 4.7131C18.3867 44.8436 20.8358 45 24 45s5.6133 -0.1564 7.4179 -0.3456c2.4439 -0.2561 4.1483 -2.2586 4.2648 -4.7131C35.8353 36.7274 36 31.5168 36 24s-0.1647 -12.7274 -0.3173 -15.94129Z" stroke-width="3"></path>
    </g>
    <path id="Subtract" fill="#ffffff" d="M12.4705 7.00214C12.2764 7.00075 12.0762 7 11.8701 7c-1.2824 0 -2.51537 0.02894 -3.51742 0.0627 -1.32252 0.04455 -2.36422 1.14904 -2.06314 2.4376 0.29574 1.2657 0.76324 2.4029 1.13862 3.1944 0.35236 0.743 1.05799 1.212 1.87924 1.2529 0.58528 0.0291 1.4127 0.0524 2.5627 0.0524 0.0812 0 0.1615 -0.0001 0.2408 -0.0003 0.059 -2.4499 0.1339 -4.41925 0.2062 -5.94099 0.0172 -0.36351 0.0693 -0.7171 0.1534 -1.05657Z" stroke-width="3"></path>
    <path id="Subtract_2" fill="#ffffff" d="M12.0161 20.0001C11.9678 20 11.9191 20 11.8701 20c-1.2824 0 -2.51537 0.0289 -3.51742 0.0627 -1.32252 0.0446 -2.36422 1.149 -2.06314 2.4376 0.29574 1.2657 0.76324 2.4029 1.13862 3.1944 0.35236 0.743 1.05799 1.212 1.87924 1.2529 0.58528 0.0291 1.4127 0.0524 2.5627 0.0524 0.0466 0 0.0928 0 0.1387 -0.0001 -0.0059 -0.956 -0.009 -1.9557 -0.009 -2.9999 0 -1.4142 0.0058 -2.7468 0.0163 -3.9999Z" stroke-width="3"></path>
    <path id="Subtract_3" fill="#ffffff" d="M12.0884 33.0003c-0.072 -0.0002 -0.1448 -0.0003 -0.2183 -0.0003 -1.2824 0 -2.51537 0.0289 -3.51742 0.0627 -1.32252 0.0446 -2.36422 1.149 -2.06314 2.4376 0.29574 1.2657 0.76324 2.4029 1.13862 3.1944 0.35236 0.743 1.05799 1.212 1.87924 1.2529 0.58528 0.0291 1.4127 0.0524 2.5627 0.0524 0.1533 0 0.3033 -0.0004 0.45 -0.0012 -0.0011 -0.0191 -0.0021 -0.0383 -0.003 -0.0575 -0.0819 -1.7235 -0.1672 -4.0213 -0.2287 -6.941Z" stroke-width="3"></path>
    <path id="Subtract_4" fill="#ffffff" d="M35.6797 39.9988c0.1466 0.0008 0.2966 0.0012 0.4497 0.0012 1.1501 0 1.9775 -0.0233 2.5628 -0.0524 0.8212 -0.0409 1.5268 -0.5099 1.8792 -1.2529 0.3754 -0.7915 0.8429 -1.9287 1.1386 -3.1944 0.3011 -1.2886 -0.7406 -2.393 -2.0631 -2.4376 -1.0021 -0.0338 -2.235 -0.0627 -3.5175 -0.0627 -0.0734 0 -0.1461 0.0001 -0.218 0.0003 -0.0616 2.9197 -0.1469 5.2175 -0.2287 6.941 -0.0009 0.0192 -0.0019 0.0384 -0.003 0.0575Z" stroke-width="3"></path>
    <path id="Subtract_5" fill="#ffffff" d="M35.9907 26.9999c0.0458 0.0001 0.092 0.0001 0.1385 0.0001 1.15 0 1.9774 -0.0233 2.5627 -0.0524 0.8212 -0.0409 1.5269 -0.5099 1.8792 -1.2529 0.3754 -0.7915 0.8429 -1.9287 1.1386 -3.1944 0.3011 -1.2886 -0.7406 -2.393 -2.0631 -2.4376 -1.0021 -0.0338 -2.235 -0.0627 -3.5174 -0.0627 -0.049 0 -0.0975 0 -0.1458 0.0001 0.0105 1.2531 0.0163 2.5857 0.0163 3.9999 0 1.0442 -0.0032 2.0439 -0.009 2.9999Z" stroke-width="3"></path>
    <path id="Subtract_6" fill="#ffffff" d="M35.5293 7.00214c0.0841 0.33947 0.1362 0.69306 0.1535 1.05657 0.0722 1.52174 0.1472 3.49109 0.2061 5.94099 0.0793 0.0002 0.1595 0.0003 0.2406 0.0003 1.1501 0 1.9775 -0.0233 2.5627 -0.0524 0.8213 -0.0409 1.5269 -0.5099 1.8793 -1.2529 0.3754 -0.7915 0.8429 -1.9287 1.1386 -3.1944 0.3011 -1.28856 -0.7406 -2.39305 -2.0631 -2.4376C38.6449 7.02894 37.412 7 36.1295 7c-0.206 0 -0.4061 0.00075 -0.6002 0.00214Z" stroke-width="3"></path>
    <path id="Ellipse 98" fill="#ffffff" d="M20.5 36.5c0 1.933 1.567 3.5 3.5 3.5s3.5 -1.567 3.5 -3.5S25.933 33 24 33s-3.5 1.567 -3.5 3.5Z" stroke-width="3"></path>
    <path id="Ellipse 99" fill="#ffffff" d="M20.5 24c0 1.933 1.567 3.5 3.5 3.5s3.5 -1.567 3.5 -3.5 -1.567 -3.5 -3.5 -3.5 -3.5 1.567 -3.5 3.5Z" stroke-width="3"></path>
    <path id="Ellipse 100" fill="#ffffff" d="M20.5 11.5c0 1.933 1.567 3.5 3.5 3.5s3.5 -1.567 3.5 -3.5S25.933 8 24 8s-3.5 1.567 -3.5 3.5Z" stroke-width="3"></path>
    <path id="Rectangle 1098" stroke="#2859c5" stroke-linecap="round" stroke-linejoin="round" d="M35.6827 8.05871c-0.1165 -2.45452 -1.8209 -4.457 -4.2648 -4.71314C29.6133 3.15644 27.1642 3 24 3s-5.6133 0.15644 -7.4179 0.34557c-2.4439 0.25613 -4.1483 2.25862 -4.2648 4.71314C12.1647 11.2726 12 16.4832 12 24s0.1647 12.7274 0.3173 15.9413c0.1165 2.4545 1.8209 4.457 4.2648 4.7131C18.3867 44.8436 20.8358 45 24 45s5.6133 -0.1564 7.4179 -0.3456c2.4439 -0.2561 4.1483 -2.2586 4.2648 -4.7131C35.8353 36.7274 36 31.5168 36 24s-0.1647 -12.7274 -0.3173 -15.94129Z" stroke-width="3"></path>
    <path id="Subtract_7" stroke="#2859c5" stroke-linecap="round" stroke-linejoin="round" d="M12.0884 33.0003c-0.072 -0.0002 -0.1448 -0.0003 -0.2183 -0.0003 -1.2824 0 -2.51537 0.0289 -3.51742 0.0627 -1.32252 0.0446 -2.36422 1.149 -2.06314 2.4376 0.29574 1.2657 0.76324 2.4029 1.13862 3.1944 0.35236 0.743 1.05799 1.212 1.87924 1.2529 0.58528 0.0291 1.4127 0.0524 2.5627 0.0524 0.1533 0 0.3033 -0.0004 0.45 -0.0012 -0.0011 -0.0191 -0.0021 -0.0383 -0.003 -0.0575" stroke-width="3"></path>
    <path id="Subtract_8" stroke="#2859c5" stroke-linecap="round" stroke-linejoin="round" d="M12.0161 20.0001C11.9678 20 11.9191 20 11.8701 20c-1.2824 0 -2.51537 0.0289 -3.51742 0.0627 -1.32252 0.0446 -2.36422 1.149 -2.06314 2.4376 0.29574 1.2657 0.76324 2.4029 1.13862 3.1944 0.35236 0.743 1.05799 1.212 1.87924 1.2529 0.58528 0.0291 1.4127 0.0524 2.5627 0.0524 0.0466 0 0.0928 0 0.1387 -0.0001" stroke-width="3"></path>
    <path id="Subtract_9" stroke="#2859c5" stroke-linecap="round" stroke-linejoin="round" d="M12.4705 7.00214C12.2764 7.00075 12.0762 7 11.8701 7c-1.2824 0 -2.51537 0.02894 -3.51742 0.0627 -1.32252 0.04455 -2.36422 1.14904 -2.06314 2.4376 0.29574 1.2657 0.76324 2.4029 1.13862 3.1944 0.35236 0.743 1.05799 1.212 1.87924 1.2529 0.58528 0.0291 1.4127 0.0524 2.5627 0.0524 0.0812 0 0.1615 -0.0001 0.2408 -0.0003" stroke-width="3"></path>
    <path id="Subtract_10" stroke="#2859c5" stroke-linecap="round" stroke-linejoin="round" d="M35.9114 33.0003c0.0719 -0.0002 0.1446 -0.0003 0.218 -0.0003 1.2825 0 2.5154 0.0289 3.5175 0.0627 1.3225 0.0446 2.3642 1.149 2.0631 2.4376 -0.2957 1.2657 -0.7632 2.4029 -1.1386 3.1944 -0.3524 0.743 -1.058 1.212 -1.8792 1.2529 -0.5853 0.0291 -1.4127 0.0524 -2.5628 0.0524 -0.1531 0 -0.3031 -0.0004 -0.4497 -0.0012 0.0011 -0.0191 0.0021 -0.0383 0.003 -0.0575" stroke-width="3"></path>
    <path id="Subtract_11" stroke="#2859c5" stroke-linecap="round" stroke-linejoin="round" d="M35.9907 26.9999c0.0458 0.0001 0.092 0.0001 0.1385 0.0001 1.15 0 1.9774 -0.0233 2.5627 -0.0524 0.8212 -0.0409 1.5269 -0.5099 1.8792 -1.2529 0.3754 -0.7915 0.8429 -1.9287 1.1386 -3.1944 0.3011 -1.2886 -0.7406 -2.393 -2.0631 -2.4376 -1.0021 -0.0338 -2.235 -0.0627 -3.5174 -0.0627 -0.049 0 -0.0975 0 -0.1458 0.0001" stroke-width="3"></path>
    <path id="Subtract_12" stroke="#2859c5" stroke-linecap="round" stroke-linejoin="round" d="M35.5293 7.00214C35.7234 7.00075 35.9235 7 36.1295 7c1.2825 0 2.5154 0.02894 3.5175 0.0627 1.3225 0.04455 2.3642 1.14904 2.0631 2.4376 -0.2957 1.2657 -0.7632 2.4029 -1.1386 3.1944 -0.3524 0.743 -1.058 1.212 -1.8793 1.2529 -0.5852 0.0291 -1.4126 0.0524 -2.5627 0.0524 -0.0811 0 -0.1613 -0.0001 -0.2406 -0.0003" stroke-width="3"></path>
    <path id="Ellipse 101" stroke="#2859c5" stroke-linecap="round" stroke-linejoin="round" d="M27 37a3 3 0 1 1 -6 0 3 3 0 1 1 6 0" stroke-width="3"></path>
    <path id="Ellipse 102" stroke="#2859c5" stroke-linecap="round" stroke-linejoin="round" d="M27 24a3 3 0 1 1 -6 0 3 3 0 1 1 6 0" stroke-width="3"></path>
    <path id="Ellipse 103" stroke="#2859c5" stroke-linecap="round" stroke-linejoin="round" d="M27 11a3 3 0 1 1 -6 0 3 3 0 1 1 6 0" stroke-width="3"></path>
  </g>
</svg>