<svg xmlns="http://www.w3.org/2000/svg" fill="none" viewBox="0 0 48 48" id="Auto-Flash--Streamline-Plump-Gradient">
  <desc>
    Auto Flash Streamline Icon: https://streamlinehq.com
  </desc>
  <g id="auto-flash">
    <path id="Union" fill="url(#paint0_linear_7979_4693)" fill-rule="evenodd" d="M9.19343.731884C14.7237.334009 20.3494.530734 23.5684.712697c2.3487.132773 4.0565 2.261483 3.6209 4.575163-.4946 2.62703-1.0322 5.35394-1.6257 7.88374 2.0609-.0143 3.8057.0089 5.2202.0465 3.1094.0829 4.8352 3.5141 2.9156 6.017-3.3293 4.3408-9.5343 12.1287-16.2869 19.0694-2.5498 2.6208-6.9693.6348-6.634-3.024.3525-3.8461.7085-7.4451 1.0512-10.1791-3.20396.0105-5.93534-.1215-7.77572-.2457-2.19234-.1479-3.870624-2.0749-3.505972-4.3195C1.09645 17.1604 2.4068 10.6707 5.19335 3.63713 5.85073 1.97784 7.41547.859801 9.19343.731884ZM37.7796 30.0916l-.0006.0014L34.9676 38h6.0658l-2.8113-7.907s-.0011-.0035-.0067-.0106c-.006-.0075-.0175-.0195-.0366-.0324-.0394-.0266-.1005-.05-.1783-.05-.0777 0-.1388.0234-.1782.05-.0191.0129-.0306.0249-.0366.0324-.0035.0045-.0061.0092-.0061.0092ZM28.1161 45.33l2.1118-5.9394c.0131-.0409.0274-.0812.043-.1208l3.7393-10.5168c.6075-1.7089 2.256-2.753 3.9903-2.753 1.7344 0 3.3828 1.0441 3.9904 2.753l3.7558 10.5631.0098.0275L47.885 45.33c.37 1.0407-.1737 2.1844-1.2144 2.5544-1.0408.3701-2.1844-.1736-2.5545-1.2144L42.4557 42h-8.9103l-1.6604 4.67c-.3701 1.0408-1.5137 1.5845-2.5545 1.2144-1.0407-.37-1.5844-1.5137-1.2144-2.5544Z" clip-rule="evenodd"></path>
  </g>
  <defs>
    <linearGradient id="paint0_linear_7979_4693" x1="8.263" x2="46.629" y1="9.635" y2="30.893" gradientUnits="userSpaceOnUse">
      <stop stop-color="#ffd600"></stop>
      <stop offset="1" stop-color="#00d078"></stop>
    </linearGradient>
  </defs>
</svg>