<svg xmlns="http://www.w3.org/2000/svg" fill="none" viewBox="0 0 48 48" id="Camera-1--Streamline-Plump-Gradient">
  <desc>
    Camera 1 Streamline Icon: https://streamlinehq.com
  </desc>
  <g id="camera-1--photos-picture-camera-photography-photo-pictures">
    <path id="Subtract" fill="url(#paint0_linear_7979_4705)" fill-rule="evenodd" d="M19.1363 1.67465C20.3825 1.58067 22.0268 1.5 24 1.5c1.9732 0 3.6175.08067 4.8637.17465 2.2077.16648 4.0324 1.55445 4.9539 3.45318l1.2417 2.55881c2.1383.07694 3.9349.16899 5.3907.25874 3.4469.2125 6.1942 2.85652 6.5072 6.30692.2691 2.9649.5428 7.1178.5428 11.7477s-.2737 8.7828-.5428 11.7477c-.313 3.4504-3.0603 6.0944-6.5072 6.3069-3.5046.2161-8.9832.4454-16.45.4454-7.4668 0-12.9454-.2293-16.45004-.4454-3.44692-.2125-6.19415-2.8565-6.50722-6.3069C.773725 34.7828.5 30.6299.5 26s.273726-8.7828.54275-11.7477c.31306-3.4504 3.0603-6.09443 6.50721-6.30692 1.45589-.08975 3.25244-.1818 5.39074-.25874l1.2417-2.5588c.9215-1.89874 2.7462-3.28671 4.9539-3.45319ZM14.5 25c0-5.2467 4.2533-9.5 9.5-9.5s9.5 4.2533 9.5 9.5-4.2533 9.5-9.5 9.5-9.5-4.2533-9.5-9.5Z" clip-rule="evenodd"></path>
  </g>
  <defs>
    <linearGradient id="paint0_linear_7979_4705" x1="8.183" x2="44.483" y1="9.769" y2="31.753" gradientUnits="userSpaceOnUse">
      <stop stop-color="#ffd600"></stop>
      <stop offset="1" stop-color="#00d078"></stop>
    </linearGradient>
  </defs>
</svg>