<svg xmlns="http://www.w3.org/2000/svg" fill="none" viewBox="0 0 48 48" id="Drop-Down-Menu--Streamline-Plump">
  <desc>
    Drop Down Menu Streamline Icon: https://streamlinehq.com
  </desc>
  <g id="drop-down-menu--input-select-menu-drop-down-internet-form">
    <path id="Rectangle 1098" fill="#7af1ff" d="M3.17955 33.8126c0.24316 2.4179 2.18339 4.1607 4.60771 4.2993C11.0325 38.2976 16.3297 38.5 24 38.5c7.6703 0 12.9675 -0.2024 16.2127 -0.3881 2.4244 -0.1386 4.3646 -1.8814 4.6077 -4.2993 0.2251 -2.2384 0.4296 -5.4675 0.4296 -9.8126 0 -4.3451 -0.2045 -7.5742 -0.4296 -9.8126 -0.2431 -2.4179 -2.1833 -4.1607 -4.6077 -4.29935C36.9675 9.70241 31.6703 9.5 24 9.5c-7.6703 0 -12.9674 0.20241 -16.21274 0.38805 -2.42432 0.13865 -4.36455 1.88145 -4.60771 4.29935C2.95445 16.4258 2.75 19.6549 2.75 24c0 4.3451 0.20445 7.5742 0.42955 9.8126Z" stroke-width="1"></path>
    <path id="Union" fill="#0c098c" fill-rule="evenodd" d="M7.67304 7.89131C10.9593 7.70333 16.2947 7.5 24 7.5c7.7053 0 13.0407 0.20333 16.327 0.39132 3.3404 0.19108 6.1354 2.63518 6.4834 6.09598 0.2322 2.3089 0.4396 5.6049 0.4396 10.0127 0 4.4078 -0.2074 7.7038 -0.4396 10.0127 -0.348 3.4608 -3.143 5.9049 -6.4834 6.096 -3.2863 0.188 -8.6217 0.3913 -16.327 0.3913 -7.7053 0 -13.0407 -0.2033 -16.32696 -0.3913 -3.34041 -0.1911 -6.13542 -2.6352 -6.48345 -6.096C0.957396 31.7038 0.75 28.4078 0.75 24c0 -4.4078 0.207397 -7.7038 0.43959 -10.0127 0.34803 -3.4608 3.14304 -5.90491 6.48345 -6.09599l0.11422 1.99674 -0.11422 -1.99674ZM24 36.5l0 -25c7.6352 0 12.8942 0.2015 16.0985 0.3848 1.5082 0.0863 2.5937 1.1276 2.732 2.5027 0.218 2.1679 0.4195 5.33 0.4195 9.6125 0 4.2825 -0.2015 7.4446 -0.4195 9.6125 -0.1383 1.3751 -1.2238 2.4164 -2.732 2.5027 -3.2043 0.1833 -8.4633 0.3848 -16.0985 0.3848ZM37.5095 21l-7.0191 0c-1.8048 0 -2.9457 2.0795 -1.7911 3.601 0.3951 0.5205 1.1481 1.4847 1.9368 2.3338 0.3899 0.4197 0.8344 0.8616 1.2812 1.2138 0.223 0.1757 0.4905 0.3644 0.7877 0.517 0.271 0.1391 0.73 0.3344 1.295 0.3344 0.5649 0 1.024 -0.1953 1.295 -0.3344 0.2972 -0.1526 0.5647 -0.3413 0.7877 -0.517 0.4467 -0.3522 0.8913 -0.7941 1.2811 -1.2138 0.7887 -0.8492 1.5418 -1.8133 1.9368 -2.3338 1.1547 -1.5215 0.0138 -3.601 -1.7911 -3.601Z" clip-rule="evenodd" stroke-width="1"></path>
  </g>
</svg>