<svg viewBox="0 0 48 48" xmlns="http://www.w3.org/2000/svg"><path d="M9.520 9.520 L38.480 9.520 L38.480 38.480 L9.520 38.480 Z" fill="#ffe500" stroke="#45413c" stroke-linecap="round" stroke-linejoin="round" transform="translate(24 -9.94) rotate(45)"></path><path d="M11.740 45.400 A12.26 1.6 0 1 0 36.260 45.400 A12.26 1.6 0 1 0 11.740 45.400 Z" fill="#45413c" opacity=".15"></path><path d="M17.910 16.940 A2.320 2.320 0 1 0 22.550 16.940 A2.320 2.320 0 1 0 17.910 16.940 Z" fill="#45413c"></path><path d="M26.860 14.070 A2.320 2.320 0 1 0 31.500 14.070 A2.320 2.320 0 1 0 26.860 14.070 Z" fill="#45413c"></path><path d="M21.48,33.19a.69.69,0,0,0,.65-.7L22,28.77a.94.94,0,0,0-.21-.52l-1.56-1.68a2.41,2.41,0,0,0,.16-.43l.18-.85,1.18.84A.73.73,0,1,0,22.6,25l-1.68-1.22.41-1.89A1.73,1.73,0,0,0,20,19.79l-.29-.06a1.75,1.75,0,0,0-1.11.12l-2.85,1.56a.79.79,0,0,0-.33.42l-.87,2.47a.69.69,0,0,0,1.3.45l.76-2.18.81-.44-.71,3.21a1.78,1.78,0,0,0,0,.83l-.31,2.46c-.08.18-1.38,3.38-1.45,3.56a.72.72,0,1,0,1.34.55l1.44-3.56.07-.24.2-1.55a2.05,2.05,0,0,0,.92.08c.15.17,1.56,1.69,1.72,1.85l.11,3.22A.67.67,0,0,0,21.48,33.19Z" fill="#45413c"></path><path d="M32.88,22.86,30.23,21l.37-1.71A1.89,1.89,0,0,0,29.15,17c-1-.22-1.48.29-4.28,1.83a.93.93,0,0,0-.44.59l-1,2.78a.87.87,0,0,0,1.64.58l.85-2.45.6-.33L26,22.34,23.81,27a.68.68,0,0,0,.7,1l.69-.05-.11.81c0,.05,0,.17,0,.2l-1.28,3.16a.82.82,0,1,0,1.53.61l1.27-3.15s.15-.61.15-.61l.15-1.15,2.41-.18,1.48,1.59.11,3.27a.77.77,0,0,0,.8.75.79.79,0,0,0,.75-.81l-.12-3.62a1.11,1.11,0,0,0-.26-.58l-.7-.76a.68.68,0,0,0,.62-.94l-1.37-3.05,1.24.89a.9.9,0,0,0,1.25-.2A.91.91,0,0,0,32.88,22.86Z" fill="#45413c"></path></svg>