<svg viewBox="0 0 48 48" xmlns="http://www.w3.org/2000/svg"><path d="M9.760 45.140 A14.24 1.86 0 1 0 38.240 45.140 A14.24 1.86 0 1 0 9.760 45.140 Z" fill="#45413c" opacity=".15"></path><path d="M40.06,12.76,35.24,7.94a1.24,1.24,0,0,0-1.75,0L24,17.43,14.51,7.94a1.24,1.24,0,0,0-1.75,0L7.94,12.76a1.24,1.24,0,0,0,0,1.75L17.43,24,7.94,33.49a1.24,1.24,0,0,0,0,1.75l4.82,4.82a1.24,1.24,0,0,0,1.75,0L24,30.57l9.49,9.49a1.24,1.24,0,0,0,1.75,0l4.82-4.82a1.24,1.24,0,0,0,0-1.75L30.57,24l9.49-9.49A1.24,1.24,0,0,0,40.06,12.76Z" fill="#ff6242"></path><path d="M9,15.6l3.73-3.73a1.23,1.23,0,0,1,1.75,0L24,21.35l9.49-9.48a1.23,1.23,0,0,1,1.75,0L39,15.6l1.09-1.09a1.24,1.24,0,0,0,0-1.75L35.24,7.94a1.24,1.24,0,0,0-1.75,0L24,17.43,14.51,7.94a1.24,1.24,0,0,0-1.75,0L7.94,12.76a1.24,1.24,0,0,0,0,1.75Z" fill="#ff866e"></path><path d="M40.06,12.76,35.24,7.94a1.24,1.24,0,0,0-1.75,0L24,17.43,14.51,7.94a1.24,1.24,0,0,0-1.75,0L7.94,12.76a1.24,1.24,0,0,0,0,1.75L17.43,24,7.94,33.49a1.24,1.24,0,0,0,0,1.75l4.82,4.82a1.24,1.24,0,0,0,1.75,0L24,30.57l9.49,9.49a1.24,1.24,0,0,0,1.75,0l4.82-4.82a1.24,1.24,0,0,0,0-1.75L30.57,24l9.49-9.49A1.24,1.24,0,0,0,40.06,12.76Z" fill="none" stroke="#45413c" stroke-linecap="round" stroke-linejoin="round"></path></svg>