<svg viewBox="0 0 48 48" xmlns="http://www.w3.org/2000/svg"><path d="M15.500 45.500 A9.5 1.5 0 1 0 34.500 45.500 A9.5 1.5 0 1 0 15.500 45.500 Z" fill="#45413c" opacity=".15"></path><path d="M34.25 9.19H44.17V12.5H34.25z" fill="#bf8256" stroke="#45413c" stroke-linecap="round" stroke-linejoin="round" transform="translate(3.56 30.45) rotate(-44.28)"></path><path d="M41.15,3.93a.83.83,0,0,0-1.4-.53L37.23,5.85a3.66,3.66,0,0,0-.36,5L41.61,6.2A11.44,11.44,0,0,1,41.15,3.93Z" fill="#00b8f0" stroke="#45413c" stroke-linecap="round" stroke-linejoin="round"></path><path d="M46.17,9.08a.83.83,0,0,1,.5,1.42L44.15,13a3.63,3.63,0,0,1-5,.23l4.73-4.61A12,12,0,0,0,46.17,9.08Z" fill="#00b8f0" stroke="#45413c" stroke-linecap="round" stroke-linejoin="round"></path><path d="M21.19,18a8.25,8.25,0,0,0-9.8-6.36C5.74,12.81,4.51,19,5.45,23.43,8,35.19,20.74,40.39,25,41.81a2.45,2.45,0,0,0,2.44-.52c3.29-3,12.87-13,10.37-24.73C36.85,12.1,33.22,7,27.56,8.17A8.28,8.28,0,0,0,21.19,18Z" fill="#ff6242"></path><path d="M28.83,12.13a8.68,8.68,0,0,0-6.69,6.69.82.82,0,0,1-1.46.31,8.69,8.69,0,0,0-8.83-3.4c-4,.86-5.93,4.13-6.42,7.6-.91-4.45.34-10.53,6-11.72A8.25,8.25,0,0,1,21.19,18a8.28,8.28,0,0,1,6.37-9.8C33.18,7,36.79,12,37.77,16.47,35.92,13.49,32.87,11.27,28.83,12.13Z" fill="#ff866e"></path><path d="M21.19,18a8.25,8.25,0,0,0-9.8-6.36C5.74,12.81,4.51,19,5.45,23.43,8,35.19,20.74,40.39,25,41.81a2.45,2.45,0,0,0,2.44-.52c3.29-3,12.87-13,10.37-24.73C36.85,12.1,33.22,7,27.56,8.17A8.28,8.28,0,0,0,21.19,18Z" fill="none" stroke="#45413c" stroke-linecap="round" stroke-linejoin="round"></path><path d="M8.37,41.84l4.34-1.39a1.23,1.23,0,0,0,.51-2L11.4,36.55A1.23,1.23,0,0,0,9.35,37l-1.5,4.31A.42.42,0,0,0,8.37,41.84Z" fill="#c0dceb" stroke="#45413c" stroke-linecap="round" stroke-linejoin="round"></path><path d="M21.7,28.15a4.62,4.62,0,0,1-2-.22l-8.57,8.36,2.31,2.37,8.77-8.56A3.93,3.93,0,0,1,21.7,28.15Z" fill="#bf8256" stroke="#45413c" stroke-linecap="round" stroke-linejoin="round"></path><path d="M18.39,26.57c0,1,1.55,1.74,3.31,1.58,0,2.12,2.24,4.48,3.51,3.73" fill="none" stroke="#45413c" stroke-linecap="round" stroke-linejoin="round"></path><path d="M6.45,10.37a6.62,6.62,0,0,0-5.14,7.82" fill="none" stroke="#45413c" stroke-linecap="round" stroke-linejoin="round"></path><path d="M7.22,7.51A3.72,3.72,0,0,0,2.38,9.58" fill="none" stroke="#45413c" stroke-linecap="round" stroke-linejoin="round"></path></svg>