<svg xmlns="http://www.w3.org/2000/svg" viewBox="0 0 14 14">
  <path d="M12.06,7.12a.26.26,0,0,1,0-.27L13.85,4a1,1,0,0,0,0-1A1,1,0,0,0,13,2.48H9.27a.24.24,0,0,1-.21-.11L7.85.45a1,1,0,0,0-1.7,0L4.94,2.37a.24.24,0,0,1-.21.11H1A1,1,0,0,0,.12,3a1,1,0,0,0,0,1L1.94,6.85a.26.26,0,0,1,0,.27L.15,10a1,1,0,0,0,0,1,1,1,0,0,0,.88.51H4.73a.24.24,0,0,1,.21.12l1.21,1.92a1,1,0,0,0,1.7,0L9.06,11.6a.24.24,0,0,1,.21-.12H13a1,1,0,0,0,.88-.51,1,1,0,0,0,0-1ZM6.11,9.48a.24.24,0,0,1-.21-.11L4.48,7.12a.26.26,0,0,1,0-.27L5.9,4.6a.24.24,0,0,1,.21-.12H7.89a.24.24,0,0,1,.21.12L9.52,6.85a.26.26,0,0,1,0,.27L8.1,9.37a.24.24,0,0,1-.21.11Z" style="fill: #000001"/>
</svg>
