<svg xmlns="http://www.w3.org/2000/svg" viewBox="0 0 32 32" id="Ecology-Windmill-1--Streamline-Pixel">
  <desc>
    Ecology Windmill 1 Streamline Icon: https://streamlinehq.com
  </desc>
  <title>ecology-windmill-1</title>
  <g>
    <path d="M30.48 24.38H32v1.53h-1.52Z" fill="#000000" stroke-width="1"></path>
    <path d="M30.48 4.57H32V6.1h-1.52Z" fill="#000000" stroke-width="1"></path>
    <path d="M28.95 25.91h1.53v1.52h-1.53Z" fill="#000000" stroke-width="1"></path>
    <path d="M28.95 22.86h1.53v1.52h-1.53Z" fill="#000000" stroke-width="1"></path>
    <path d="M28.95 6.1h1.53v1.52h-1.53Z" fill="#000000" stroke-width="1"></path>
    <path d="M28.95 3.05h1.53v1.52h-1.53Z" fill="#000000" stroke-width="1"></path>
    <path d="M27.43 27.43h1.52v1.53h-1.52Z" fill="#000000" stroke-width="1"></path>
    <path d="M27.43 21.34h1.52v1.52h-1.52Z" fill="#000000" stroke-width="1"></path>
    <path d="M27.43 7.62h1.52v1.53h-1.52Z" fill="#000000" stroke-width="1"></path>
    <path d="M27.43 1.53h1.52v1.52h-1.52Z" fill="#000000" stroke-width="1"></path>
    <path d="M25.91 22.86h1.52v1.52h-1.52Z" fill="#000000" stroke-width="1"></path>
    <path d="M25.91 19.81h1.52v1.53h-1.52Z" fill="#000000" stroke-width="1"></path>
    <path d="M25.91 9.15h1.52v1.52h-1.52Z" fill="#000000" stroke-width="1"></path>
    <path d="M25.91 6.1h1.52v1.52h-1.52Z" fill="#000000" stroke-width="1"></path>
    <path d="M25.91 0h1.52v1.53h-1.52Z" fill="#000000" stroke-width="1"></path>
    <path d="m25.91 24.38 -1.53 0 0 7.62 1.53 0 0 -1.52 1.52 0 0 -1.52 -1.52 0 0 -4.58z" fill="#000000" stroke-width="1"></path>
    <path d="M24.38 10.67h1.53v1.52h-1.53Z" fill="#000000" stroke-width="1"></path>
    <path d="M24.38 4.57h1.53V6.1h-1.53Z" fill="#000000" stroke-width="1"></path>
    <path d="M24.38 1.53h1.53v1.52h-1.53Z" fill="#000000" stroke-width="1"></path>
    <path d="M22.86 10.67h-1.53V9.15h-1.52V7.62h-1.52V6.1h-1.53V4.57h-1.52V6.1h-1.52v1.52h-1.53v1.53h-1.52v1.52H9.14v1.52H7.62v1.53H6.1v1.52H4.57v1.53h3.05v1.52H6.1v1.52h1.52v4.57h1.52v-1.52h13.72v1.52h1.52v-4.57h1.53v-1.52h-1.53v-1.52h3.05v-1.53h-1.52v-1.52h-1.53v-1.53h-1.52ZM10.67 21.34H9.14v-1.53h1.53Zm3.05 0h-1.53v-1.53h1.53Zm3.04 0h-1.52v-1.53h1.52Zm3.05 0h-1.52v-1.53h1.52Zm3.05 0h-1.53v-1.53h1.53Zm0 -3.05H9.14v-1.52h13.72Z" fill="#000000" stroke-width="1"></path>
    <path d="M22.86 9.15h1.52v1.52h-1.52Z" fill="#000000" stroke-width="1"></path>
    <path d="M22.86 3.05h1.52v1.52h-1.52Z" fill="#000000" stroke-width="1"></path>
    <path d="M21.33 7.62h1.53v1.53h-1.53Z" fill="#000000" stroke-width="1"></path>
    <path d="M21.33 4.57h1.53V6.1h-1.53Z" fill="#000000" stroke-width="1"></path>
    <path d="M19.81 6.1h1.52v1.52h-1.52Z" fill="#000000" stroke-width="1"></path>
    <path d="M13.72 24.38v1.53h-1.53V32h7.62v-6.09h-1.52v-1.53Zm1.52 6.1h-1.52v-1.52h1.52Z" fill="#000000" stroke-width="1"></path>
    <path d="M10.67 6.1h1.52v1.52h-1.52Z" fill="#000000" stroke-width="1"></path>
    <path d="M9.14 7.62h1.53v1.53H9.14Z" fill="#000000" stroke-width="1"></path>
    <path d="M9.14 4.57h1.53V6.1H9.14Z" fill="#000000" stroke-width="1"></path>
    <path d="M7.62 9.15h1.52v1.52H7.62Z" fill="#000000" stroke-width="1"></path>
    <path d="M7.62 3.05h1.52v1.52H7.62Z" fill="#000000" stroke-width="1"></path>
    <path d="m6.1 28.96 -1.53 0 0 1.52 1.53 0 0 1.52 1.52 0 0 -7.62 -1.52 0 0 4.58z" fill="#000000" stroke-width="1"></path>
    <path d="M6.1 10.67h1.52v1.52H6.1Z" fill="#000000" stroke-width="1"></path>
    <path d="M6.1 4.57h1.52V6.1H6.1Z" fill="#000000" stroke-width="1"></path>
    <path d="M6.1 1.53h1.52v1.52H6.1Z" fill="#000000" stroke-width="1"></path>
    <path d="M4.57 22.86H6.1v1.52H4.57Z" fill="#000000" stroke-width="1"></path>
    <path d="M4.57 19.81H6.1v1.53H4.57Z" fill="#000000" stroke-width="1"></path>
    <path d="M4.57 9.15H6.1v1.52H4.57Z" fill="#000000" stroke-width="1"></path>
    <path d="M4.57 6.1H6.1v1.52H4.57Z" fill="#000000" stroke-width="1"></path>
    <path d="M4.57 0H6.1v1.53H4.57Z" fill="#000000" stroke-width="1"></path>
    <path d="M3.05 27.43h1.52v1.53H3.05Z" fill="#000000" stroke-width="1"></path>
    <path d="M3.05 21.34h1.52v1.52H3.05Z" fill="#000000" stroke-width="1"></path>
    <path d="M3.05 7.62h1.52v1.53H3.05Z" fill="#000000" stroke-width="1"></path>
    <path d="M3.05 1.53h1.52v1.52H3.05Z" fill="#000000" stroke-width="1"></path>
    <path d="M1.52 25.91h1.53v1.52H1.52Z" fill="#000000" stroke-width="1"></path>
    <path d="M1.52 22.86h1.53v1.52H1.52Z" fill="#000000" stroke-width="1"></path>
    <path d="M1.52 6.1h1.53v1.52H1.52Z" fill="#000000" stroke-width="1"></path>
    <path d="M1.52 3.05h1.53v1.52H1.52Z" fill="#000000" stroke-width="1"></path>
    <path d="M0 24.38h1.52v1.53H0Z" fill="#000000" stroke-width="1"></path>
    <path d="M0 4.57h1.52V6.1H0Z" fill="#000000" stroke-width="1"></path>
  </g>
</svg>