<svg xmlns="http://www.w3.org/2000/svg" viewBox="0 0 32 32" id="Ecology-Tree--Streamline-Pixel">
  <desc>
    Ecology Tree Streamline Icon: https://streamlinehq.com
  </desc>
  <title>ecology-tree</title>
  <g>
    <path d="M26.66 19.81h1.53v4.57h-1.53Z" fill="#000000" stroke-width="1"></path>
    <path d="M25.14 18.28h1.52v1.53h-1.52Z" fill="#000000" stroke-width="1"></path>
    <path d="M23.62 24.38h3.04v1.52h-3.04Z" fill="#000000" stroke-width="1"></path>
    <path d="M23.62 13.71h1.52v4.57h-1.52Z" fill="#000000" stroke-width="1"></path>
    <path d="M22.09 19.81h1.53v1.52h-1.53Z" fill="#000000" stroke-width="1"></path>
    <path d="M22.09 9.14h1.53v4.57h-1.53Z" fill="#000000" stroke-width="1"></path>
    <path d="m17.52 25.9 0 -1.52 1.52 0 0 -1.53 -1.52 0 0 -4.57 -3.05 0 0 4.57 -3.04 0 0 1.53 3.04 0 0 1.52 -6.09 0 0 1.53 6.09 0 0 4.57 3.05 0 0 -4.57 6.1 0 0 -1.53 -6.1 0z" fill="#000000" stroke-width="1"></path>
    <path d="M20.57 18.28h1.52v1.53h-1.52Z" fill="#000000" stroke-width="1"></path>
    <path d="M20.57 4.57h1.52v4.57h-1.52Z" fill="#000000" stroke-width="1"></path>
    <path d="M19.04 21.33h1.53v1.52h-1.53Z" fill="#000000" stroke-width="1"></path>
    <path d="M17.52 12.19h3.05v1.52h-3.05Z" fill="#000000" stroke-width="1"></path>
    <path d="M19.04 3.05h1.53v1.52h-1.53Z" fill="#000000" stroke-width="1"></path>
    <path d="M17.52 1.52h1.52v1.53h-1.52Z" fill="#000000" stroke-width="1"></path>
    <path d="M16 10.66h1.52v1.53H16Z" fill="#000000" stroke-width="1"></path>
    <path d="M16 6.09h1.52v1.53H16Z" fill="#000000" stroke-width="1"></path>
    <path d="M14.47 0h3.05v1.52h-3.05Z" fill="#000000" stroke-width="1"></path>
    <path d="M12.95 7.62H16v1.52h-3.05Z" fill="#000000" stroke-width="1"></path>
    <path d="M12.95 13.71h1.52v1.53h-1.52Z" fill="#000000" stroke-width="1"></path>
    <path d="M12.95 1.52h1.52v1.53h-1.52Z" fill="#000000" stroke-width="1"></path>
    <path d="M11.43 3.05h1.52v1.52h-1.52Z" fill="#000000" stroke-width="1"></path>
    <path d="M9.9 21.33h1.53v1.52H9.9Z" fill="#000000" stroke-width="1"></path>
    <path d="M9.9 15.24h3.05v1.52H9.9Z" fill="#000000" stroke-width="1"></path>
    <path d="M9.9 4.57h1.53v4.57H9.9Z" fill="#000000" stroke-width="1"></path>
    <path d="M8.38 9.14H9.9v4.57H8.38Z" fill="#000000" stroke-width="1"></path>
    <path d="M5.33 24.38h3.05v1.52H5.33Z" fill="#000000" stroke-width="1"></path>
    <path d="M6.85 13.71h1.53v4.57H6.85Z" fill="#000000" stroke-width="1"></path>
    <path d="M5.33 18.28h1.52v1.53H5.33Z" fill="#000000" stroke-width="1"></path>
    <path d="M3.81 19.81h1.52v4.57H3.81Z" fill="#000000" stroke-width="1"></path>
  </g>
</svg>