<svg xmlns="http://www.w3.org/2000/svg" viewBox="0 0 32 32" id="Ecology-Global-Warming-Globe--Streamline-Pixel">
  <desc>
    Ecology Global Warming Globe Streamline Icon: https://streamlinehq.com
  </desc>
  <title>ecology-global-warming-globe</title>
  <g>
    <path d="m30.48 21.34 -3.05 0 0 -1.53 -1.52 0 0 3.05 -4.58 0 0 1.52 -1.52 0 0 1.53 -3.05 0 0 3.05 6.1 0 0 -1.53 7.62 0 0 -1.52 1.52 0 0 -3.05 -1.52 0 0 -1.52z" fill="#000000" stroke-width="1"></path>
    <path d="M24.38 4.57h1.53V6.1h-1.53Z" fill="#000000" stroke-width="1"></path>
    <path d="M22.86 28.96h1.52v1.52h-1.52Z" fill="#000000" stroke-width="1"></path>
    <path d="M22.86 18.29h3.05v1.52h-3.05Z" fill="#000000" stroke-width="1"></path>
    <path d="M22.86 9.15h1.52v6.09h-1.52Z" fill="#000000" stroke-width="1"></path>
    <path d="M22.86 6.1h1.52v1.52h-1.52Z" fill="#000000" stroke-width="1"></path>
    <path d="M22.86 3.05h1.52v1.52h-1.52Z" fill="#000000" stroke-width="1"></path>
    <path d="M21.33 15.24h1.53v3.05h-1.53Z" fill="#000000" stroke-width="1"></path>
    <path d="M21.33 7.62h1.53v1.53h-1.53Z" fill="#000000" stroke-width="1"></path>
    <path d="M21.33 4.57h1.53V6.1h-1.53Z" fill="#000000" stroke-width="1"></path>
    <path d="M12.19 30.48h10.67V32H12.19Z" fill="#000000" stroke-width="1"></path>
    <path d="M19.81 9.15h1.52v1.52h-1.52Z" fill="#000000" stroke-width="1"></path>
    <path d="M19.81 6.1h1.52v1.52h-1.52Z" fill="#000000" stroke-width="1"></path>
    <path d="M18.29 10.67h1.52v1.52h-1.52Z" fill="#000000" stroke-width="1"></path>
    <path d="M18.29 7.62h1.52v1.53h-1.52Z" fill="#000000" stroke-width="1"></path>
    <path d="M16.76 12.19h1.53v1.53h-1.53Z" fill="#000000" stroke-width="1"></path>
    <path d="M16.76 9.15h1.53v1.52h-1.53Z" fill="#000000" stroke-width="1"></path>
    <path d="M15.24 13.72h1.52v1.52h-1.52Z" fill="#000000" stroke-width="1"></path>
    <path d="M15.24 10.67h1.52v1.52h-1.52Z" fill="#000000" stroke-width="1"></path>
    <path d="M12.19 12.19h3.05v1.53h-3.05Z" fill="#000000" stroke-width="1"></path>
    <path d="M10.67 28.96h1.52v1.52h-1.52Z" fill="#000000" stroke-width="1"></path>
    <path d="m15.24 22.86 0 -1.52 -1.52 0 0 -1.53 3.04 0 0 -3.04 -4.57 0 0 1.52 -4.57 0 0 1.52 -1.52 0 0 1.53 3.04 0 0 1.52 6.1 0z" fill="#000000" stroke-width="1"></path>
    <path d="M10.67 4.57h1.52V6.1h-1.52Z" fill="#000000" stroke-width="1"></path>
    <path d="m13.72 1.53 0 3.04 1.52 0 0 3.05 3.05 0 0 -1.52 1.52 0 0 -1.53 1.52 0 0 -1.52 -1.52 0 0 -1.52 -3.05 0 0 -1.53 -7.62 0 0 1.53 4.58 0z" fill="#000000" stroke-width="1"></path>
    <path d="M4.57 27.43h6.1v1.53h-6.1Z" fill="#000000" stroke-width="1"></path>
    <path d="M9.14 9.15h1.53v1.52H9.14Z" fill="#000000" stroke-width="1"></path>
    <path d="M7.62 6.1h3.05v1.52H7.62Z" fill="#000000" stroke-width="1"></path>
    <path d="M6.1 1.53h3.04v1.52H6.1Z" fill="#000000" stroke-width="1"></path>
    <path d="M4.57 18.29H6.1v1.52H4.57Z" fill="#000000" stroke-width="1"></path>
    <path d="M4.57 3.05H6.1v1.52H4.57Z" fill="#000000" stroke-width="1"></path>
    <path d="M1.52 25.91h3.05v1.52H1.52Z" fill="#000000" stroke-width="1"></path>
    <path d="M1.52 22.86h7.62v1.52H1.52Z" fill="#000000" stroke-width="1"></path>
    <path d="m6.1 15.24 0 1.53 3.04 0 0 -4.58 -1.52 0 0 -1.52 -1.52 0 0 -3.05 -1.53 0 0 -3.05 -1.52 0 0 3.05 -1.53 0 0 7.62 1.53 0 0 3.05 1.52 0 0 -3.05 1.53 0z" fill="#000000" stroke-width="1"></path>
    <path d="M0 24.38h1.52v1.53H0Z" fill="#000000" stroke-width="1"></path>
  </g>
</svg>