<svg xmlns="http://www.w3.org/2000/svg" viewBox="0 0 32 32" id="Ecology-Gmo-Food-Fruit--Streamline-Pixel">
  <desc>
    Ecology Gmo Food Fruit Streamline Icon: https://streamlinehq.com
  </desc>
  <title>ecology-gmo-food-fruit</title>
  <g>
    <path d="M30.48 3.805H32v1.53h-1.52Z" fill="#000000" stroke-width="1"></path>
    <path d="M28.95 11.425h1.53v1.53h-1.53Z" fill="#000000" stroke-width="1"></path>
    <path d="M28.95 2.285h1.53v1.52h-1.53Z" fill="#000000" stroke-width="1"></path>
    <path d="M27.43 3.805h1.52v1.53h-1.52Z" fill="#000000" stroke-width="1"></path>
    <path d="M27.43 0.765h1.52v1.52h-1.52Z" fill="#000000" stroke-width="1"></path>
    <path d="m28.95 11.425 0 -1.52 -1.52 0 0 -1.52 -1.52 0 0 3.04 3.04 0z" fill="#000000" stroke-width="1"></path>
    <path d="M25.91 5.335h1.52v1.52h-1.52Z" fill="#000000" stroke-width="1"></path>
    <path d="M24.38 11.425h1.53v1.53h-1.53Z" fill="#000000" stroke-width="1"></path>
    <path d="M24.38 6.855h1.53v1.53h-1.53Z" fill="#000000" stroke-width="1"></path>
    <path d="M22.86 17.525h1.52v7.62h-1.52Z" fill="#000000" stroke-width="1"></path>
    <path d="m24.38 5.335 -1.52 0 0 -1.53 -1.53 0 0 3.05 3.05 0 0 -1.52z" fill="#000000" stroke-width="1"></path>
    <path d="M21.33 25.145h1.53v1.52h-1.53Z" fill="#000000" stroke-width="1"></path>
    <path d="m21.33 11.425 -1.52 0 0 1.53 -1.52 0 0 1.52 -1.53 0 0 3.05 -1.52 0 0 -3.05 1.52 0 0 -1.52 1.53 0 0 -1.53 1.52 0 0 -3.04 -1.52 0 0 1.52 -1.53 0 0 1.52 -1.52 0 0 1.53 -1.52 0 0 6.09 6.09 0 0 -1.52 1.52 0 0 -1.52 1.53 0 0 -1.53 1.52 0 0 -1.52 -3.05 0 0 -1.53z" fill="#000000" stroke-width="1"></path>
    <path d="M19.81 26.665h1.52v1.53h-1.52Z" fill="#000000" stroke-width="1"></path>
    <path d="M19.81 6.855h1.52v1.53h-1.52Z" fill="#000000" stroke-width="1"></path>
    <path d="M19.81 2.285h1.52v1.52h-1.52Z" fill="#000000" stroke-width="1"></path>
    <path d="M16.76 28.195h3.05v1.52h-3.05Z" fill="#000000" stroke-width="1"></path>
    <path d="M7.62 29.715h9.14v1.52H7.62Z" fill="#000000" stroke-width="1"></path>
    <path d="m13.72 9.905 0 -4.57 -1.53 0 0 4.57 -3.05 0 0 1.52 6.1 0 0 -1.52 -1.52 0z" fill="#000000" stroke-width="1"></path>
    <path d="M12.19 19.045h1.53v1.53h-1.53Z" fill="#000000" stroke-width="1"></path>
    <path d="M10.67 20.575h1.52v1.52h-1.52Z" fill="#000000" stroke-width="1"></path>
    <path d="M10.67 14.475h1.52v1.53h-1.52Z" fill="#000000" stroke-width="1"></path>
    <path d="M7.62 3.805h4.57v1.53H7.62Z" fill="#000000" stroke-width="1"></path>
    <path d="M9.14 22.095h1.53v1.52H9.14Z" fill="#000000" stroke-width="1"></path>
    <path d="M9.14 12.955h1.53v1.52H9.14Z" fill="#000000" stroke-width="1"></path>
    <path d="M7.62 25.145h4.57v1.52H7.62Z" fill="#000000" stroke-width="1"></path>
    <path d="M4.57 28.195h3.05v1.52H4.57Z" fill="#000000" stroke-width="1"></path>
    <path d="M6.1 20.575h1.52v4.57H6.1Z" fill="#000000" stroke-width="1"></path>
    <path d="m4.57 16.005 4.57 0 0 -1.53 -3.04 0 0 -1.52 -1.53 0 0 -1.53 -3.05 0 0 -1.52 -1.52 0 0 3.05 3.05 0 0 1.52 1.52 0 0 1.53z" fill="#000000" stroke-width="1"></path>
    <path d="M3.05 6.855h7.62v1.53H3.05Z" fill="#000000" stroke-width="1"></path>
    <path d="M3.05 26.665h1.52v1.53H3.05Z" fill="#000000" stroke-width="1"></path>
    <path d="M1.52 25.145h1.53v1.52H1.52Z" fill="#000000" stroke-width="1"></path>
    <path d="M1.52 14.475h1.53v1.53H1.52Z" fill="#000000" stroke-width="1"></path>
    <path d="M1.52 8.385h1.53v1.52H1.52Z" fill="#000000" stroke-width="1"></path>
    <path d="M0 16.005h1.52v9.14H0Z" fill="#000000" stroke-width="1"></path>
  </g>
</svg>