<svg xmlns="http://www.w3.org/2000/svg" fill="none" viewBox="0 0 14 14" id="Zodiac-2--Streamline-Core">
  <desc>
    Zodiac 2 Streamline Icon: https://streamlinehq.com
  </desc>
  <g id="zodiac-2--sign-astrology-stars-space-virgo">
    <path id="Vector" stroke="#4147d5" stroke-linecap="round" stroke-linejoin="round" d="M5 3.25V10" stroke-width="1"></path>
    <path id="Vector_2" stroke="#4147d5" stroke-linecap="round" stroke-linejoin="round" d="M0.5 10V3.25c0 -0.59674 0.237053 -1.16903 0.65901 -1.59099C1.58097 1.23705 2.15326 1 2.75 1c0.59674 0 1.16903 0.23705 1.59099 0.65901C4.76295 2.08097 5 2.65326 5 3.25c0 -0.59674 0.23705 -1.16903 0.65901 -1.59099C6.08097 1.23705 6.65326 1 7.25 1c0.59674 0 1.16903 0.23705 1.59099 0.65901C9.26295 2.08097 9.5 2.65326 9.5 3.25V11c0 0.5304 0.21071 1.0391 0.5858 1.4142 0.3751 0.3751 0.8838 0.5858 1.4142 0.5858 0.5304 0 1.0391 -0.2107 1.4142 -0.5858S13.5 11.5304 13.5 11v-1" stroke-width="1"></path>
    <path id="Vector_3" stroke="#4147d5" stroke-linecap="round" stroke-linejoin="round" d="M9.5 4h1.88c0.3906 -0.00057 0.7728 0.11323 1.0994 0.32736 0.3266 0.21412 0.5834 0.5192 0.7387 0.87758 0.1553 0.35838 0.2022 0.75438 0.135 1.13912 -0.0672 0.38475 -0.2456 0.7414 -0.5131 1.02594L7.5 13" stroke-width="1"></path>
  </g>
</svg>