<svg xmlns="http://www.w3.org/2000/svg" fill="none" viewBox="0 0 14 14"><g id="yin-yang-symbol--religion-tao-yin-yang-taoism-culture-symbol"><path id="Vector" stroke="#3e3e3e" stroke-linecap="round" stroke-linejoin="round" d="M7 13.5a6.5 6.5 0 1 0 0-13 6.5 6.5 0 0 0 0 13Z"></path><path id="Vector_2" stroke="#3e3e3e" stroke-linecap="round" stroke-linejoin="round" d="M7 .5S2.93 4.09 7 7c3.5 2.5 0 6.5 0 6.5"></path><path id="Vector_3" stroke="#3e3e3e" stroke-linecap="round" stroke-linejoin="round" d="M9 5.5a1 1 0 1 0 0-2 1 1 0 0 0 0 2Z"></path><path id="Vector_4" stroke="#3e3e3e" stroke-linecap="round" stroke-linejoin="round" d="M5 10.5a1 1 0 1 0 0-2 1 1 0 0 0 0 2Z"></path></g></svg>