<svg xmlns="http://www.w3.org/2000/svg" fill="none" viewBox="0 0 24 24" id="Glass-Beer-1--Streamline-Cyber">
  <desc>
    Glass Beer 1 Streamline Icon: https://streamlinehq.com
  </desc>
  <path fill="#ffffff" d="M19.35 4.64998H16.9l-1.47 -2.45 -2.94 -1.47 -3.42999 1.47 -1.47 2.45h-2.94l-2.45 1.96 1.47 1.96h1.47V23.27H17.88V9.54998h1.96l1.47 -2.94 -1.96 -1.96Z" stroke-width="1"></path>
  <path fill="#bbd8ff" d="M17.88 8.56995h-6.37V23.2699h6.37V8.56995Z" stroke-width="1"></path>
  <path stroke="#092f63" stroke-linecap="round" stroke-linejoin="round" stroke-miterlimit="10" d="M9.06001 13.47 11.51 8.56998h6.37v0.98h1.96l1.47 -2.94 -1.96 -1.96H16.9l-1.47 -2.45 -2.94 -1.47 -3.42999 1.47 -1.47 2.45h-2.94l-2.45 1.96 1.47 1.96h2.45l2.94 4.90002Z" stroke-width="1"></path>
  <path stroke="#092f63" stroke-linecap="round" stroke-linejoin="round" stroke-miterlimit="10" d="M13.96 4.65002h2.94" stroke-width="1"></path>
  <path stroke="#092f63" stroke-linecap="round" stroke-linejoin="round" stroke-miterlimit="10" d="M17.88 8.56995V23.2699H5.14001V8.56995" stroke-width="1"></path>
  <path stroke="#092f63" stroke-linecap="round" stroke-linejoin="round" stroke-miterlimit="10" d="M17.88 11.51h3.92v5.88l-3.92 2.45" stroke-width="1"></path>
  <path stroke="#092f63" stroke-linecap="round" stroke-linejoin="round" stroke-miterlimit="10" d="M15.92 20.33v-9.8" stroke-width="1"></path>
  <path stroke="#092f63" stroke-linecap="round" stroke-linejoin="round" stroke-miterlimit="10" d="M12.98 20.33v-9.8" stroke-width="1"></path>
  <path stroke="#092f63" stroke-linecap="round" stroke-linejoin="round" stroke-miterlimit="10" d="M10.04 20.3301v-4.9" stroke-width="1"></path>
  <path stroke="#092f63" stroke-linecap="round" stroke-linejoin="round" stroke-miterlimit="10" d="M7.09998 20.3301v-4.9" stroke-width="1"></path>
</svg>