<svg xmlns="http://www.w3.org/2000/svg" fill="none" viewBox="0 0 24 24" id="Wine-Bottle-Glass--Streamline-Cyber">
  <desc>
    Wine Bottle Glass Streamline Icon: https://streamlinehq.com
  </desc>
  <path fill="#ffffff" d="M13.5 23.5v-14l-3 -3v-6h-3v6l-3 3v14h9Z" stroke-width="1"></path>
  <path fill="#ffffff" d="m19.5 15.5 -3 3.5 -3 -3.5v-5h6v5Z" stroke-width="1"></path>
  <path fill="#bbd8ff" d="M10.5 0.5h-3v3h3v-3Z" stroke-width="1"></path>
  <path fill="#bbd8ff" d="M10.5 6.5v-6H9v23h4.5v-14l-3 -3Z" stroke-width="1"></path>
  <path fill="#bbd8ff" d="M16.5 10.5h3v5l-3 3.5v-8.5Z" stroke-width="1"></path>
  <path stroke="#092f63" stroke-linecap="round" stroke-linejoin="round" stroke-miterlimit="10" d="M11.5 23.5h-7v-14l3 -3v-6h3v6l2 2" stroke-width="1"></path>
  <path stroke="#092f63" stroke-linecap="round" stroke-linejoin="round" stroke-miterlimit="10" d="m19.5 15.5 -3 3.5 -3 -3.5v-5h6v5Z" stroke-width="1"></path>
  <path stroke="#092f63" stroke-linecap="round" stroke-linejoin="round" stroke-miterlimit="10" d="M16.5 19v4.5" stroke-width="1"></path>
  <path stroke="#092f63" stroke-linecap="round" stroke-linejoin="round" stroke-miterlimit="10" d="M14.5 23.5h4" stroke-width="1"></path>
  <path stroke="#092f63" stroke-linecap="round" stroke-linejoin="round" stroke-miterlimit="10" d="M7.5 3.5h3" stroke-width="1"></path>
</svg>