<svg xmlns="http://www.w3.org/2000/svg" fill="none" viewBox="0 0 24 24" id="Light-Dark-Mode--Streamline-Sharp-Neon">
  <desc>
    Light Dark Mode Streamline Icon: https://streamlinehq.com
  </desc>
  <g id="light-dark-mode--light-dark-mode-setting-camera-picture-photo-image-brightness">
    <path id="Vector" stroke="#000cfe" d="M12.0002 18.769c3.7386 0 6.7693 -3.0307 6.7693 -6.7693 0 -3.73853 -3.0307 -6.76923 -6.7693 -6.76923 -3.73854 0 -6.76924 3.0307 -6.76924 6.76923 0 3.7386 3.0307 6.7693 6.76924 6.7693Z" stroke-width="1"></path>
    <path id="Vector_2" stroke="#000cfe" d="M12 0v5.23096" stroke-width="1"></path>
    <path id="Vector_3" stroke="#000cfe" d="m20.4855 3.51465 -3.6989 3.69884" stroke-width="1"></path>
    <path id="Vector_4" stroke="#000cfe" d="M24 12h-5.231" stroke-width="1"></path>
    <path id="Vector_5" stroke="#000cfe" d="m16.7866 16.7871 3.6985 3.6985" stroke-width="1"></path>
    <path id="Vector_6" stroke="#000cfe" d="M12 18.7695V24" stroke-width="1"></path>
    <path id="Vector_7" stroke="#000cfe" d="m7.21342 16.7871 -3.69853 3.6985" stroke-width="1"></path>
    <path id="Vector_8" stroke="#000cfe" d="M5.23051 12H0" stroke-width="1"></path>
    <path id="Vector_9" stroke="#000cfe" d="m3.51465 3.51465 3.69884 3.69884" stroke-width="1"></path>
    <path id="Subtract" stroke="#c71dff" d="M18.4106 14.1804c-0.684 0.2325 -1.4173 0.3586 -2.1799 0.3586 -3.7386 0 -6.76929 -3.0307 -6.76929 -6.76925 0 -0.76267 0.12613 -1.49588 0.35866 -2.17991 -2.66906 0.90733 -4.58936 3.43472 -4.58936 6.41066 0 3.7385 3.03071 6.7692 6.76929 6.7692 2.9759 0 5.5033 -1.9203 6.4106 -4.5893Z" stroke-width="1"></path>
  </g>
</svg>