<svg xmlns="http://www.w3.org/2000/svg" fill="none" viewBox="0 0 40 40" id="Face-Id-1--Streamline-Stickies">
  <desc>
    Face Id 1 Streamline Icon: https://streamlinehq.com
  </desc>
  <g clip-path="url(#a)">
    <path fill="#00034a" stroke="#00034a" stroke-miterlimit="10" d="M6.92876 0.834988c1.6883 -0.055793 3.37544 0.142077 5.00504 0.587002 1.733 0.566 3.332 2.545 3.332 4.352 0 1.148 -0.446 2.664 -1.393 2.958 -1.3979 0.40879 -2.8488 0.60697 -4.30504 0.588 0.01684 1.45571 -0.18096 2.90591 -0.587 4.30401 -0.294 0.93 -1.83 1.394 -2.968 1.394 -1.13 0 -4.513 -1.575 -4.886 -2.778C0.677461 10.6108 0.475871 8.9232 0.528759 7.23399v-0.583c-0.005 -2.537 -0.009 -3.871 0.910001 -4.868 0.891 -0.967002 2.282 -0.961002 4.677 -0.950002l0.813 0.002Z" stroke-width="1"></path>
    <path fill="#00034a" stroke="#00034a" stroke-miterlimit="10" d="M1.12676 26.384c-0.444514 1.63 -0.642707 3.3173 -0.587999 5.006 0 0.3 -0.002 0.587 -0.003 0.86 -0.012 2.373 -0.018 3.745 0.949999 4.63 2.125 1.937 4.264 2.334 7.107 2.332h0.312c1.68834 0.0555 3.37544 -0.1427 5.00504 -0.588 0.948 -0.303 1.394 -1.82 1.394 -2.967 0 -1.799 -1.58 -3.791 -3.322 -4.343 -0.8008 -0.2416 -1.6208 -0.4143 -2.45104 -0.516 -0.07473 -1.0257 -0.25604 -2.0408 -0.541 -3.029 -0.395 -1.208 -3.76 -2.769 -4.905 -2.769 -1.148 0 -2.665 0.456 -2.958 1.384Z" stroke-width="1"></path>
    <path fill="#00034a" stroke="#00034a" stroke-miterlimit="10" d="M28.0268 38.587c1.63 0.445 3.317 0.643 5.006 0.587 0.299 0 0.584 0.002 0.856 0.003 2.368 0.012 3.748 0.019 4.633 -0.95 0.95 -1.042 0.95 -2.471 0.948 -5.178v-0.312c0.0555 -1.6887 -0.1427 -3.3761 -0.588 -5.006 -0.473 -1.223 -3.74 -2.73 -4.934 -2.73 -1.185 0 -2.673 0.464 -2.967 1.393 -0.4064 1.3949 -0.6045 2.8422 -0.588 4.295 -1.4554 -0.0206 -2.9057 0.1742 -4.304 0.578 -0.948 0.294 -1.394 1.82 -1.394 2.967 0 1.797 1.596 3.803 3.332 4.352v0.001Z" stroke-width="1"></path>
    <path fill="#00034a" stroke="#00034a" stroke-miterlimit="10" d="M38.4738 3.12c-2.123 -1.938 -4.263 -2.334002 -7.106 -2.333002h-0.311c-1.6892 -0.053931 -3.3769 0.147335 -5.006 0.597002 -0.882 0.332 -1.346 1.859 -1.346 2.996 0 1.8 1.58 3.801 3.322 4.352 0.787 0.23 1.591 0.393 2.404 0.488 0.075 1.021 0.255 2.034 0.54 3.02 0.424 1.367 3.594 2.778 4.896 2.778 1.147 0 2.674 -0.474 2.968 -1.403 0.4451 -1.6299 0.6429 -3.3174 0.587 -5.006 0 -0.299 0.002 -0.584 0.003 -0.856 0.012 -2.368 0.018 -3.749 -0.951 -4.633Z" stroke-width="1"></path>
    <path fill="#00034a" stroke="#00034a" stroke-miterlimit="10" d="M30.8998 20.697c0 5.498 -4.457 9.954 -9.955 9.954 -5.814 0 -11.88305 -5.457 -11.88305 -11.339 0 -5.498 4.45705 -9.954 9.95405 -9.954 5.815 0 11.884 5.457 11.884 11.339Z" stroke-width="1"></path>
    <path fill="#ffffff" stroke="#00034a" stroke-miterlimit="10" d="M11.9338 1.42199C10.3045 0.977166 8.61772 0.779297 6.92975 0.834989c-2.901 0 -4.504 -0.124 -5.49 0.948001 -0.985995 1.07 -0.909995 2.53 -0.909995 5.45C0.476963 8.92253 0.67855 10.6104 1.12775 12.24c0.293 0.948 1.82 1.393 2.958 1.393 1.137 0 2.673 -0.464 2.967 -1.393 0.406 -1.399 0.604 -2.84901 0.588 -4.30501 1.456 0.02 2.90605 -0.179 4.30405 -0.587 0.948 -0.294 1.393 -1.811 1.393 -2.958 0 -1.147 -0.473 -2.664 -1.403 -2.968h-0.001Z" stroke-width="1"></path>
    <path fill="#ffffff" stroke="#00034a" stroke-miterlimit="10" d="M36.9058 12.23c0.445 -1.63 0.643 -3.317 0.588 -5.006 0 -2.9 0.133 -4.503 -0.948 -5.489 -1.081 -0.986 -2.579 -0.948 -5.49 -0.948 -1.6889 -0.05383 -3.3762 0.147435 -5.005 0.597 -0.882 0.332 -1.346 1.859 -1.346 2.996 0 1.138 0.464 2.674 1.393 2.968 1.395 0.406 2.842 0.604 4.295 0.587 -0.0204 1.45563 0.1743 2.9063 0.578 4.305 0.294 0.948 1.82 1.393 2.968 1.393 1.147 0 2.673 -0.474 2.967 -1.403Z" stroke-width="1"></path>
    <path fill="#ffffff" stroke="#00034a" stroke-miterlimit="10" d="M1.12676 26.384c-0.444514 1.63 -0.642707 3.3173 -0.587999 5.006 0 2.91 -0.133 4.504 0.947999 5.49 1.08 0.985 2.579 0.947 5.49 0.947 1.68831 0.0558 3.37544 -0.1421 5.00504 -0.587 0.948 -0.304 1.393 -1.82 1.393 -2.968 0 -1.147 -0.464 -2.664 -1.393 -2.958 -1.4078 -0.425 -2.87155 -0.6357 -4.34204 -0.625 0.01952 -1.4557 -0.17558 -2.9062 -0.579 -4.305 -0.303 -0.928 -1.83 -1.384 -2.976 -1.384 -1.148 0 -2.665 0.455 -2.958 1.384Z" stroke-width="1"></path>
    <path fill="#ffffff" stroke="#00034a" stroke-miterlimit="10" d="M26.0978 37.202c1.63 0.445 3.317 0.643 5.006 0.588 2.901 0 4.503 0.132 5.49 -0.948 0.985 -1.081 0.947 -2.58 0.947 -5.49 0.0554 -1.6884 -0.1428 -3.3755 -0.588 -5.005 -0.34 -0.882 -1.82 -1.347 -3.005 -1.347 -1.185 0 -2.673 0.465 -2.967 1.394 -0.4064 1.3949 -0.6045 2.8422 -0.588 4.295 -1.4554 -0.0206 -2.9057 0.1742 -4.304 0.578 -0.948 0.294 -1.394 1.82 -1.394 2.967 0 1.148 0.474 2.674 1.403 2.968Z" stroke-width="1"></path>
    <path fill="#9bff00" stroke="#00034a" stroke-miterlimit="10" d="M19.0158 29.267c5.498 0 9.955 -4.457 9.955 -9.955s-4.457 -9.954 -9.955 -9.954c-5.497 0 -9.95405 4.456 -9.95405 9.954s4.45705 9.955 9.95405 9.955Z" stroke-width="1"></path>
    <path fill="#00034a" d="M14.6548 19.312c0.2488 0.0058 0.4964 -0.0383 0.728 -0.1295 0.2316 -0.0913 0.4426 -0.2279 0.6207 -0.4019 0.178 -0.174 0.3195 -0.3818 0.4161 -0.6113 0.0966 -0.2294 0.1464 -0.4758 0.1464 -0.7248 0 -0.2489 -0.0498 -0.4954 -0.1464 -0.7248 -0.0966 -0.2295 -0.2381 -0.4373 -0.4161 -0.6113 -0.1781 -0.1739 -0.3891 -0.3106 -0.6207 -0.4018 -0.2316 -0.0913 -0.4792 -0.1354 -0.728 -0.1296 -0.4879 0.0113 -0.9519 0.213 -1.2929 0.562 -0.341 0.349 -0.5319 0.8176 -0.5319 1.3055 0 0.4879 0.1909 0.9565 0.5319 1.3055 0.341 0.349 0.805 0.5507 1.2929 0.562Z" stroke-width="1"></path>
    <path fill="#00034a" d="M23.3678 19.312c0.2488 0.0058 0.4964 -0.0383 0.728 -0.1295 0.2316 -0.0913 0.4426 -0.2279 0.6207 -0.4019 0.178 -0.174 0.3195 -0.3818 0.4161 -0.6113 0.0966 -0.2294 0.1464 -0.4758 0.1464 -0.7248 0 -0.2489 -0.0498 -0.4954 -0.1464 -0.7248 -0.0966 -0.2295 -0.2381 -0.4373 -0.4161 -0.6113 -0.1781 -0.1739 -0.3891 -0.3106 -0.6207 -0.4018 -0.2316 -0.0913 -0.4792 -0.1354 -0.728 -0.1296 -0.4879 0.0113 -0.9519 0.213 -1.2929 0.562 -0.341 0.349 -0.5319 0.8176 -0.5319 1.3055 0 0.4879 0.1909 0.9565 0.5319 1.3055 0.341 0.349 0.805 0.5507 1.2929 0.562Z" stroke-width="1"></path>
    <path stroke="#00034a" stroke-linecap="round" d="M20.8148 20.562c0.006 0.774 -0.7961 1.409 -1.7931 1.417 -0.996 0.009 -1.81 -0.613 -1.816 -1.387" stroke-width="1"></path>
  </g>
  <defs>
    <clipPath id="a">
      <path fill="#ffffff" d="M0 0h40v40H0z" stroke-width="1"></path>
    </clipPath>
  </defs>
</svg>