<svg xmlns="http://www.w3.org/2000/svg" fill="none" viewBox="0 0 40 40" id="View-Mail--Streamline-Stickies">
  <desc>
    View Mail Streamline Icon: https://streamlinehq.com
  </desc>
  <g clip-path="url(#a)">
    <path fill="#00034a" stroke="#00034a" stroke-linecap="round" stroke-linejoin="round" stroke-miterlimit="10" d="M4.588 27.169c-0.57313 0 -1.12279 0.2277 -1.52806 0.6329 -0.40526 0.4053 -0.63294 0.955 -0.63294 1.5281 0 1.328 1.657 2.856 2.976 2.856 0.28379 0 0.5648 -0.0559 0.82698 -0.1645 0.26219 -0.1086 0.50041 -0.2678 0.70108 -0.4684 0.20067 -0.2007 0.35985 -0.4389 0.46845 -0.7011 0.1086 -0.2622 0.16449 -0.5432 0.16449 -0.827 0 -1.328 -1.657 -2.856 -2.976 -2.856Z" stroke-width="1"></path>
    <path fill="#00034a" stroke="#00034a" stroke-linecap="round" stroke-linejoin="round" stroke-miterlimit="10" d="M34.964 9.19199c0 1.04201 1.477 2.31201 2.506 2.31201 0.4376 0 0.8573 -0.1738 1.1667 -0.4833 0.3095 -0.3094 0.4833 -0.7291 0.4833 -1.16671 0 -1.041 -1.477 -2.312 -2.506 -2.312 -0.4376 0 -0.8573 0.17384 -1.1667 0.48328 -0.3095 0.30943 -0.4833 0.72912 -0.4833 1.16672Z" stroke-width="1"></path>
    <path fill="#00034a" stroke="#00034a" stroke-linecap="round" stroke-linejoin="round" stroke-miterlimit="10" d="M28.557 10.36c0.826 0 2.168 1.137 2.168 1.974 0 0.725 -0.587 1.313 -1.312 1.313 -0.826 0 -2.168 -1.138 -2.168 -1.975 0 -0.725 0.587 -1.312 1.312 -1.312Z" stroke-width="1"></path>
    <path fill="#00034a" stroke="#00034a" stroke-linecap="round" stroke-linejoin="round" stroke-miterlimit="10" d="M28.142 4.83997c0.241 -3.715 1.534 -3.512 2.403 -3.348 2.372 0.427 2.532 2.61 1.907 4.647 -1.1 3.59 -1.978 3.493 -2.402 3.358l-0.042 -0.013c-1.953 -0.602 -1.975 -2.96 -1.866 -4.644Z" stroke-width="1"></path>
    <path fill="#9bff00" stroke="#00034a" stroke-linecap="round" stroke-linejoin="round" stroke-miterlimit="10" d="M36.614 10.842c0.4376 0 0.8573 -0.1738 1.1667 -0.4833 0.3095 -0.3094 0.4833 -0.7291 0.4833 -1.16671 0 -0.4376 -0.1738 -0.85729 -0.4833 -1.16672 -0.3094 -0.30944 -0.7291 -0.48328 -1.1667 -0.48328 -0.4376 0 -0.8573 0.17384 -1.1667 0.48328 -0.3095 0.30943 -0.4833 0.72912 -0.4833 1.16672 0 0.43761 0.1738 0.85731 0.4833 1.16671 0.3094 0.3095 0.7291 0.4833 1.1667 0.4833Z" stroke-width="1"></path>
    <path fill="#9bff00" stroke="#00034a" stroke-linecap="round" stroke-linejoin="round" stroke-miterlimit="10" d="M4.58801 31.492c0.57327 0 1.12305 -0.2277 1.52841 -0.6331 0.40536 -0.4053 0.63309 -0.9551 0.63309 -1.5284s-0.22773 -1.123 -0.63309 -1.5284c-0.40536 -0.4054 -0.95514 -0.6331 -1.52841 -0.6331 -0.57326 0 -1.12305 0.2277 -1.52841 0.6331 -0.40536 0.4054 -0.63309 0.9551 -0.63309 1.5284s0.22773 1.1231 0.63309 1.5284c0.40536 0.4054 0.95515 0.6331 1.52841 0.6331Z" stroke-width="1"></path>
    <path fill="#00034a" stroke="#00034a" stroke-linecap="round" stroke-linejoin="round" stroke-miterlimit="10" d="M35.64 17.78c-0.965 -0.965 -6.302 -1.534 -10.75 -1.785 -4.448 -0.25 -9.833 -0.309 -10.894 0.56 -2.065 0.8 -2.711 5.51 -2.895 9.07 -0.138 2.688 -0.117 6.058 0.744 7.992 0.417 0.936 1.78 2.548 2.672 3.018 0.965 0.965 6.31 1.534 10.759 1.785 4.448 0.251 9.833 0.3 10.884 -0.56 2.065 -0.81 2.712 -5.519 2.895 -9.08 0.146 -2.834 0.12 -6.42 -0.889 -8.286 -0.45 -0.833 -1.72 -2.29 -2.526 -2.714Z" stroke-width="1"></path>
    <path fill="#9bff00" stroke="#00034a" stroke-linecap="round" stroke-linejoin="round" stroke-miterlimit="10" d="M34.617 36.2c2.065 -0.81 2.711 -5.519 2.895 -9.08 0.183 -3.56 0.096 -8.308 -1.873 -9.34 -0.964 -0.965 -6.3 -1.534 -10.749 -1.785 -4.448 -0.251 -9.833 -0.309 -10.894 0.56 -2.065 0.8 -2.711 5.51 -2.895 9.07 -0.183 3.56 -0.087 8.318 1.872 9.35 0.965 0.965 6.31 1.534 10.76 1.785 4.448 0.251 9.832 0.3 10.884 -0.56Z" stroke-width="1"></path>
    <path stroke="#00034a" stroke-linecap="round" stroke-linejoin="round" stroke-miterlimit="10" d="M14.199 21.1c2.0011 2.3664 4.2933 4.4704 6.822 6.262 0.9771 0.5483 2.0664 0.8664 3.1851 0.93 1.1186 0.0636 2.237 -0.129 3.2699 -0.563 2.7189 -1.4936 5.2354 -3.3292 7.488 -5.462" stroke-width="1"></path>
    <path stroke="#00034a" stroke-linecap="round" stroke-linejoin="round" stroke-miterlimit="10" d="m20.49 27.101 -4.989 4.458" stroke-width="1"></path>
    <path stroke="#00034a" stroke-linecap="round" stroke-linejoin="round" stroke-miterlimit="10" d="m28.036 27.535 4.458 4.98" stroke-width="1"></path>
    <path fill="#9bff00" stroke="#00034a" stroke-linecap="round" stroke-linejoin="round" stroke-miterlimit="10" d="M30.545 1.49197c-0.869 -0.164 -2.162 -0.367 -2.403 3.348 -0.241 3.715 0.627 3.86 1.052 3.995 0.424 0.135 1.303 0.232 2.402 -3.358 1.1 -3.59 -0.192 -3.83 -1.051 -3.985Z" stroke-width="1"></path>
    <path fill="#9bff00" stroke="#00034a" stroke-linecap="round" stroke-linejoin="round" stroke-miterlimit="10" d="M28.557 12.984c0.1723 0 0.3429 -0.034 0.5021 -0.0999s0.3038 -0.1626 0.4256 -0.2844c0.1218 -0.1218 0.2185 -0.2665 0.2844 -0.4256 0.066 -0.1592 0.0999 -0.3298 0.0999 -0.5021s-0.0339 -0.3429 -0.0999 -0.5021c-0.0659 -0.1592 -0.1626 -0.3038 -0.2844 -0.4256 -0.1218 -0.1219 -0.2664 -0.2185 -0.4256 -0.2844 -0.1592 -0.066 -0.3298 -0.0999 -0.5021 -0.0999 -0.348 0 -0.6817 0.1382 -0.9277 0.3843 -0.2461 0.246 -0.3843 0.5797 -0.3843 0.9277 0 0.3479 0.1382 0.6817 0.3843 0.9277 0.246 0.2461 0.5797 0.3843 0.9277 0.3843Z" stroke-width="1"></path>
    <path fill="#00034a" stroke="#00034a" stroke-linecap="round" stroke-linejoin="round" stroke-miterlimit="10" d="M10.574 5.40797C4.20001 6.68997 -0.22299 11.42 0.69401 15.97c1.203 5.973 9.58999 7.79 14.57099 6.786 6.374 -1.284 10.797 -6.014 9.88 -10.564 -1.203 -5.97203 -9.59 -7.78803 -14.571 -6.78403Z" stroke-width="1"></path>
    <path fill="#ffffff" stroke="#00034a" stroke-linecap="round" stroke-linejoin="round" stroke-miterlimit="10" d="M13.893 21.886c6.374 -1.284 10.798 -6.014 9.881 -10.564 -0.917 -4.55002 -6.826 -7.19802 -13.2 -5.91502C4.20001 6.69098 -0.22299 11.421 0.69401 15.971c0.916 4.55 6.826 7.198 13.19999 5.915h-0.001Z" stroke-width="1"></path>
    <path fill="#9bff00" stroke="#00034a" stroke-linecap="round" stroke-linejoin="round" stroke-miterlimit="10" d="M12.23 18.697c0.6687 0.0094 1.3326 -0.1141 1.9531 -0.3635s1.1853 -0.6196 1.6615 -1.0892c0.4762 -0.4695 0.8543 -1.029 1.1124 -1.646 0.2581 -0.6169 0.391 -1.279 0.391 -1.9478 0 -0.6687 -0.1329 -1.3308 -0.391 -1.9478 -0.2581 -0.6169 -0.6362 -1.1764 -1.1124 -1.646 -0.4762 -0.46953 -1.041 -0.83975 -1.6615 -1.08913 -0.6205 -0.24939 -1.2844 -0.37297 -1.9531 -0.36355 -1.3261 0.01866 -2.59158 0.55856 -3.52275 1.50298 -0.93118 0.9443 -1.45321 2.2173 -1.45321 3.5435 0 1.3263 0.52203 2.5992 1.45321 3.5436 0.93117 0.9444 2.19665 1.4842 3.52275 1.5029Z" stroke-width="1"></path>
  </g>
  <defs>
    <clipPath id="a">
      <path fill="#ffffff" d="M0 0h40v40H0z" stroke-width="1"></path>
    </clipPath>
  </defs>
</svg>