<svg xmlns="http://www.w3.org/2000/svg" fill="none" viewBox="0 0 24 24" id="Job-Choose-Candidate--Streamline-Freehand">
  <desc>
    Job Choose Candidate Streamline Icon: https://streamlinehq.com
  </desc>
  <path fill="#020202" fill-rule="evenodd" d="M11.8354 18.6655c-0.5683 -0.483 -1.1761 -0.9172 -1.8172 -1.298h0.0898c0.3472 -0.1459 0.6677 -0.3483 0.9486 -0.5991 0.2886 -0.2507 0.5377 -0.5435 0.7388 -0.8686 0.3696 -0.6227 0.566 -1.3327 0.5691 -2.0568 0.5215 0.0672 1.0511 -0.0269 1.5176 -0.2696 0.8842 -0.5271 1.6411 -1.243 2.2165 -2.0966 0.5016 -0.7572 1.0768 -1.4629 1.7173 -2.10672 0.8405 -0.44979 1.7193 -0.82397 2.6259 -1.11826 0.2475 -0.12847 0.4788 -0.28602 0.6889 -0.46929 0.3917 -0.36132 0.7045 -0.79989 0.9186 -1.28795 0.2115 -0.47796 0.3204 -0.9949 0.3194 -1.51766 0 -0.24591 -0.2662 -0.39959 -0.4791 -0.27663 -0.0989 0.05704 -0.1598 0.16255 -0.1598 0.27663 -0.0199 0.43878 -0.125 0.86949 -0.3095 1.26806 -0.1895 0.38204 -0.4544 0.72164 -0.7788 0.99847 -0.1669 0.13735 -0.3516 0.25153 -0.5492 0.33939 -0.9619 0.28439 -1.8973 0.65184 -2.7956 1.09827 -0.9086 0.63908 -1.9968 2.56599 -3.2948 3.58439 -0.6266 0.6357 -1.629 0.7042 -2.3363 0.1598 -0.5791 -0.3894 -0.3095 -0.9286 0 -1.5177 0.629 -1.12813 1.6574 -2.41619 1.7173 -3.60425 0.0595 -0.68806 -0.2065 -1.36418 -0.7188 -1.82714 -1.278 -1.20816 -2.4063 -1.14827 -3.26494 -0.49929 -1.04215 0.95664 -1.6451 2.2997 -1.66735 3.71419 -0.11979 0 -0.22969 -0.0499 -0.34949 -0.0599 -0.45755 -0.01898 -0.91541 0.03153 -1.35786 0.14979 -0.03877 -0.60816 0.02194 -1.21857 0.1797 -1.80714 0.21888 -1.02092 0.51928 -2.02255 0.89857 -2.9953 0.39918 -1.32347 1.43939 -2.35612 2.76571 -2.74572 0.80956 -0.17795 1.64386 -0.2151 2.46616 -0.10979 1.3478 0.11979 2.7457 0.38939 4.0436 0.39939h1.3079c0.9985 -0.0599 1.9969 -0.1598 2.9953 -0.2197 0.246 0 0.3997 -0.26622 0.2767 -0.479181 -0.057 -0.098877 -0.1625 -0.159795 -0.2767 -0.159795l-2.5859 0.02h-1.6974C15.1302 0.613866 13.7723 0.254376 12.4045 0.0946824c-0.939 -0.1514284 -1.8982 -0.1210203 -2.82565 0.0897956C7.96722 0.677437 6.71314 1.9504 6.24416 3.56917c-0.32204 1.05898 -0.56561 2.1402 -0.72888 3.2349 -0.1402 0.71428 -0.15367 1.44765 -0.04 2.16663 -0.5152 0.20244 -0.98143 0.51214 -1.36775 0.90857 -0.81296 0.87393 -1.29663 2.00343 -1.36786 3.19503 -0.14316 1.5371 0.44929 3.0515 1.59745 4.0835 -0.49612 0.332 -0.95184 0.7206 -1.35786 1.1582 -0.2551 0.2922 -0.47928 0.6101 -0.66898 0.9485 -0.18663 0.3351 -0.34367 0.6859 -0.46928 1.0483 -0.27796 0.8323 -0.46214 1.6929 -0.54908 2.5661 -0.03684 0.1738 0.0753 0.3443 0.24959 0.3793 0.17714 0.0365 0.34918 -0.0812 0.37939 -0.2596 0.21612 -0.7899 0.50357 -1.5584 0.85867 -2.2964 0.1498 -0.3095 0.30949 -0.599 0.47928 -0.8986 0.1698 -0.2995 0.34939 -0.569 0.53909 -0.8586 0.33755 -0.5016 0.71847 -0.9727 1.13826 -1.4078 0.51102 0.2816 1.07592 0.4517 1.65735 0.4992 0.18408 0.0362 0.35949 -0.0931 0.37949 -0.2795 0.01755 -0.1787 -0.11123 -0.3386 -0.2896 -0.3595 -1.74724 -0.2596 -3.0951 -1.9269 -2.8555 -4.2632 0.08479 -1.1337 0.62949 -2.1835 1.50765 -2.9054 0.59143 -0.45749 1.31908 -0.70361 2.06673 -0.69902 0.61765 0.01663 1.23102 0.10714 1.82714 0.26959 0.5151 0.19112 0.98684 0.48303 1.38784 0.85863 -0.1071 0.2076 -0.1941 0.4249 -0.2596 0.649 -0.2738 0.7519 0.0286 1.5921 0.7189 1.9969 0.1988 0.138 0.4133 0.2519 0.639 0.3394 -0.14 0.9197 -0.6301 1.7497 -1.368 2.3164 -0.2245 0.1856 -0.4613 0.3557 -0.70885 0.5093 -0.61541 0.3669 -1.29174 0.6206 -1.99684 0.7487 -0.15459 0.0106 -0.27102 0.145 -0.25959 0.2995 0.00531 0.1586 0.14133 0.281 0.29949 0.2696 0.52592 0.0202 1.05225 -0.0234 1.56755 -0.1298 0.6648 0.5709 1.29804 1.1776 1.89704 1.8172 0.4379 0.4379 0.8417 0.9085 1.2082 1.4078 0.6559 0.7632 1.0109 1.7394 0.9983 2.7456 -0.0299 0.1771 0.092 0.3439 0.2696 0.3695 0.1789 0.0237 0.3437 -0.1009 0.3694 -0.2796 0.2181 -1.1989 -0.0515 -2.4352 -0.7488 -3.4346 -0.3919 -0.6019 -0.8656 -1.1463 -1.4077 -1.6174ZM9.45906 9.13049c-0.36674 -0.15694 -0.74796 -0.27724 -1.13817 -0.35949 0.03245 -1.22857 0.58388 -2.38591 1.51755 -3.18499 0.60906 -0.39939 1.35786 -0.31949 2.18666 0.53918 0.8287 0.85867 0.3794 1.52755 -0.0799 2.32632 -0.3295 0.56908 -0.7289 1.14817 -1.0684 1.68739 -0.4078 -0.41902 -0.88815 -0.76055 -1.41774 -1.00841Z" clip-rule="evenodd" stroke-width="1"></path>
  <path fill="#0c6fff" fill-rule="evenodd" d="M22.2191 20.6423c-0.1099 -0.3141 -0.2468 -0.6181 -0.4094 -0.9085 -0.1621 -0.2935 -0.3563 -0.5681 -0.5791 -0.8187 -0.3177 -0.3636 -0.68 -0.6856 -1.0782 -0.9585 0.2023 -0.1475 0.3867 -0.3184 0.549 -0.5093 0.8094 -1.1183 1.0149 -2.5641 0.5492 -3.8638 -0.52 -1.2289 -1.577 -2.1496 -2.8655 -2.4962 -0.1462 -0.0532 -0.3077 0.0231 -0.3595 0.1698 -0.0601 0.149 0.0176 0.318 0.1698 0.3694 1.0539 0.3975 1.8647 1.26 2.1966 2.3364 0.1049 0.397 0.1353 0.81 0.0898 1.218 -0.0709 0.6206 -0.3014 1.2124 -0.6689 1.7174 -0.2541 0.292 -0.5672 0.5268 -0.9186 0.6888 -0.5405 0.311 -1.1538 0.4729 -1.7772 0.4693 -1.0931 -0.0731 -2.0996 -0.6202 -2.7557 -1.4976 -0.1103 -0.138 -0.3115 -0.1603 -0.4493 -0.0499 -0.1243 0.1278 -0.1243 0.3314 0 0.4593 0.7212 1.106 1.8942 1.8369 3.205 1.9968 0.8503 0.0598 1.6998 -0.1275 2.4461 -0.5392 0.3296 0.3618 0.6301 0.7491 0.8987 1.1583 0.1597 0.2396 0.3094 0.4792 0.4492 0.7189 0.1497 0.2495 0.2795 0.4991 0.4093 0.7587 0.3102 0.6425 0.5641 1.3106 0.7589 1.9969 0.035 0.1742 0.2055 0.2864 0.3794 0.2496 0.1743 -0.035 0.2864 -0.2056 0.2496 -0.3794 -0.073 -0.7787 -0.2372 -1.5461 -0.4892 -2.2865Z" clip-rule="evenodd" stroke-width="1"></path>
</svg>