<svg xmlns="http://www.w3.org/2000/svg" fill="none" viewBox="0 0 24 24" id="Job-Candidate-Target-1--Streamline-Freehand">
  <desc>
    Job Candidate Target 1 Streamline Icon: https://streamlinehq.com
  </desc>
  <path fill="#020202" fill-rule="evenodd" d="M7.30879 19.022c0.03621 -0.7458 0.33726 -1.4541 0.84901 -1.9977 0.30803 -0.4133 0.64163 -0.807 0.99884 -1.1787 0.56933 -0.5993 1.13866 -1.1686 1.65806 -1.6181 0.3993 0.0999 0.8075 0.1601 1.2186 0.1798 0.0418 0.0079 0.0849 0.0064 0.1261 -0.0042 0.0412 -0.0107 0.0796 -0.0303 0.1124 -0.0575 0.0327 -0.0272 0.0591 -0.0612 0.0772 -0.0998 0.0181 -0.0385 0.0275 -0.0806 0.0275 -0.1231 0 -0.0426 -0.0094 -0.0847 -0.0275 -0.1232 -0.0181 -0.0385 -0.0445 -0.0726 -0.0772 -0.0998 -0.0328 -0.0272 -0.0712 -0.0468 -0.1124 -0.0575 -0.0412 -0.0106 -0.0843 -0.0121 -0.1261 -0.0042 -2.20744 -0.2098 -3.23625 -1.5782 -3.2762 -2.9965 0.31155 0.159 0.65053 0.2573 0.99884 0.2896 0.15885 0.0248 0.32056 0.0248 0.47946 0 0.1623 -0.0185 0.3207 -0.0623 0.4694 -0.1298 0.387 -0.1346 0.7315 -0.3689 0.9989 -0.6792 0 0 0 -0.0699 0.0499 -0.1099l0.3796 0.2098c0.3464 0.1537 0.708 0.2708 1.0787 0.3496 0.6956 0.127 1.4068 0.1439 2.1076 0.0499 0.0728 0.7451 -0.1359 1.4905 -0.5851 2.0895 -0.4492 0.5989 -1.1064 1.008 -1.8421 1.1467 -0.0848 0.0106 -0.1619 0.0545 -0.2143 0.1219 -0.0525 0.0674 -0.076 0.1529 -0.0654 0.2377 0.0106 0.0848 0.0544 0.1619 0.1219 0.2143 0.0674 0.0525 0.1529 0.076 0.2377 0.0654 0.4802 -0.044 0.9461 -0.1868 1.3684 -0.4195 0.3364 0.372 0.6437 0.7693 0.9189 1.1886 0.1598 0.2397 0.3097 0.4694 0.4495 0.7192 0.1398 0.2497 0.2797 0.4894 0.3995 0.7491 0.3103 0.6151 0.5643 1.257 0.7592 1.9177 0.0071 0.0424 0.0227 0.0828 0.0459 0.119 0.0231 0.0361 0.0533 0.0672 0.0887 0.0915 0.0354 0.0242 0.0754 0.0411 0.1174 0.0495 0.0421 0.0085 0.0855 0.0084 0.1275 -0.0003 0.0824 -0.0191 0.1542 -0.0692 0.2007 -0.1398 0.0465 -0.0707 0.064 -0.1565 0.049 -0.2397 -0.0768 -0.7384 -0.2377 -1.4656 -0.4794 -2.1675 -0.1065 -0.314 -0.2402 -0.6182 -0.3996 -0.9089 -0.1621 -0.2881 -0.3529 -0.5592 -0.5693 -0.8091 -0.3423 -0.377 -0.7278 -0.7122 -1.1487 -0.9988 0.4569 -0.44 0.8084 -0.9776 1.0281 -1.5727 0.2196 -0.595 0.3019 -1.232 0.2405 -1.8633 -0.0013 -0.51374 -0.104 -1.02215 -0.3021 -1.49614 -0.1981 -0.47398 -0.4878 -0.90422 -0.8524 -1.26608 -0.3646 -0.36186 -0.7971 -0.64822 -1.2726 -0.84269 -0.4755 -0.19446 -0.9846 -0.29321 -1.4984 -0.29058 -1.1088 -0.03849 -2.1888 0.35766 -3.00983 1.10401 -0.82098 0.74634 -1.31796 1.78384 -1.38501 2.89138 -0.03869 0.7381 0.14913 1.4704 0.53831 2.0988 0.38917 0.6284 0.9611 1.1228 1.63913 1.4171 -0.57578 0.3222 -1.12077 0.6967 -1.62808 1.1187 -0.44892 0.3877 -0.8392 0.8386 -1.15865 1.3384 -0.51357 0.6653 -0.75624 1.5004 -0.67921 2.3373 0.12985 0.4195 0.7691 0.4994 0.74913 0.1998ZM12.303 7.62522c0.7066 -0.02385 1.397 0.2152 1.9376 0.67091 0.5406 0.45572 0.893 1.09572 0.989 1.79617 -0.6004 -0.025 -1.1948 -0.12908 -1.768 -0.30959 -0.2935 -0.09415 -0.5804 -0.20759 -0.859 -0.33961 -0.2793 -0.11648 -0.5498 -0.25336 -0.809 -0.40952 -0.4246 -0.27783 -0.8079 -0.61408 -1.1387 -0.99884 0.509 -0.24484 1.0635 -0.38091 1.6281 -0.39953l0.02 -0.00999Zm-2.2774 0.73914c0.2766 0.55566 0.6602 1.05124 1.1287 1.4583l0.0599 0.04994c-0.1311 0.05634 -0.2686 0.09659 -0.4095 0.11986 -0.163 0.01034 -0.3264 0.01034 -0.4894 0l-0.47945 0.06994c-0.32648 0.0896 -0.66108 0.1465 -0.99884 0.1698 0.15597 -0.74641 0.57853 -1.41042 1.18859 -1.86784Z" clip-rule="evenodd" stroke-width="1"></path>
  <path fill="#0c6fff" fill-rule="evenodd" d="M23.6797 11.9202c-0.6231 -0.0733 -1.2511 -0.0967 -1.8779 -0.0699h-0.0998c0.0237 -2.60205 -0.969 -5.11062 -2.7668 -6.99186 -1.5667 -1.42843 -3.6034 -2.23174 -5.7234 -2.25738h-0.849c0.0048 -0.07317 0.0048 -0.14657 0 -0.21974 -0.0499 -0.52938 -0.1398 -0.99884 -0.1897 -1.568174 0.0027 -0.075192 -0.0239 -0.148511 -0.0742 -0.204439 -0.0503 -0.055927 -0.1205 -0.090074 -0.1955 -0.095212 -0.0763 -0.00292 -0.1508 0.023356 -0.2083 0.07347 -0.0575 0.050114 -0.0938 0.12029 -0.1014 0.196216 -0.0999 0.539369 -0.2197 1.058769 -0.2697 1.598139v0.29965c-1.43216 0.16395 -2.82109 0.59418 -4.09519 1.26852C5.09207 5.13006 3.4141 6.99447 2.46436 9.24333c-0.4234 1.03867 -0.65684 2.14497 -0.6892 3.26617 -0.46945 0 -0.918929 0.0799 -1.388383 0.1299 -0.047396 -0.0084 -0.096045 -0.0062 -0.142528 0.0062 -0.046483 0.0125 -0.089673 0.035 -0.126536 0.0659 -0.0368621 0.031 -0.0665026 0.0696 -0.0868387 0.1132C0.0105382 12.8683 0 12.9159 0 12.964c0 0.0481 0.0105382 0.0957 0.0308743 0.1393 0.0203361 0.0436 0.0499766 0.0822 0.0868387 0.1132 0.036863 0.0309 0.080053 0.0534 0.126536 0.0659 0.046483 0.0124 0.095132 0.0146 0.142528 0.0062 0.479442 0.06 0.998833 0.1598 1.418353 0.2098 0.08191 0.9787 0.3249 1.9372 0.71916 2.8367 0.57954 1.1561 1.41206 2.1667 2.43574 2.957 1.02368 0.7902 2.21222 1.3397 3.47737 1.6077 0.97927 0.249 1.9861 0.3731 2.9965 0.3695v0.4395c0.0599 0.4894 0.1399 0.9989 0.1998 1.4383 -0.0013 0.0433 0.0059 0.0865 0.0212 0.127 0.0154 0.0405 0.0385 0.0775 0.0682 0.1091 0.0297 0.0315 0.0653 0.0569 0.1048 0.0747 0.0395 0.0177 0.0821 0.0276 0.1254 0.0288 0.0428 0.0001 0.0852 -0.0085 0.1247 -0.0252 0.0394 -0.0167 0.0751 -0.0411 0.1049 -0.0719 0.0298 -0.0307 0.0532 -0.0671 0.0686 -0.1071 0.0155 -0.0399 0.0228 -0.0826 0.0214 -0.1254 0.0885 -0.4892 0.1518 -0.9826 0.1898 -1.4782 0.01 -0.1564 0.01 -0.3132 0 -0.4695 1.1619 -0.1035 2.2904 -0.4434 3.3162 -0.9988 0.0331 -0.0167 0.0624 -0.0401 0.0861 -0.0686 0.0237 -0.0285 0.0412 -0.0616 0.0515 -0.0973 0.0103 -0.0356 0.0132 -0.073 0.0084 -0.1097 -0.0048 -0.0368 -0.0171 -0.0722 -0.0362 -0.104 -0.0358 -0.0648 -0.0959 -0.1128 -0.167 -0.1334 -0.0712 -0.0206 -0.1476 -0.0122 -0.2125 0.0235 -0.9641 0.4771 -2.013 0.7588 -3.0864 0.8291 0.0049 -0.0499 0.0049 -0.1 0 -0.1499 -0.0848 -0.466 -0.1982 -0.9263 -0.3396 -1.3784 -0.004 -0.0367 -0.0151 -0.0723 -0.0328 -0.1047s-0.0416 -0.061 -0.0703 -0.0842c-0.0288 -0.0232 -0.0618 -0.0405 -0.0973 -0.0509 -0.0354 -0.0105 -0.0726 -0.0138 -0.1093 -0.0099 -0.0367 0.004 -0.0723 0.0151 -0.1047 0.0328 -0.0325 0.0177 -0.0611 0.0416 -0.0843 0.0703 -0.0232 0.0288 -0.0404 0.0618 -0.0509 0.0973 -0.0104 0.0354 -0.0137 0.0725 -0.0098 0.1093 0 0.4894 -0.0999 0.9988 -0.1198 1.4483v0.1398c-0.9476 -0.005 -1.88949 -0.1462 -2.79679 -0.4195 -0.89615 -0.3265 -1.75907 -0.7379 -2.577 -1.2286 -0.62943 -0.2901 -1.19315 -0.7055 -1.65681 -1.2207 -0.46366 -0.5151 -0.81754 -1.1194 -1.04005 -1.7758 -0.31747 -0.7702 -0.50968 -1.5862 -0.56934 -2.4172h0.26969c0.61031 -0.0671 1.21252 -0.1943 1.7979 -0.3795 0.06794 -0.0209 0.12583 -0.066 0.16266 -0.1268 0.03684 -0.0607 0.05005 -0.1329 0.03711 -0.2028 -0.00364 -0.0365 -0.01467 -0.0718 -0.03243 -0.1039 -0.01775 -0.032 -0.04185 -0.0602 -0.07083 -0.0826 -0.02898 -0.0224 -0.06222 -0.0387 -0.0977 -0.0479 -0.03549 -0.0091 -0.07247 -0.011 -0.10868 -0.0053 -0.5194 0 -0.99884 -0.0899 -1.52822 -0.1299h-0.46945c0.0529 -0.9767 0.276 -1.9367 0.65923 -2.83669 0.87838 -2.02771 2.41191 -3.70193 4.35493 -4.75447 1.11926 -0.59721 2.33758 -0.9864 3.59578 -1.14866 0 0.5194 0.1199 0.99884 0.1698 1.55819 -0.0027 0.08577 0.0281 0.16924 0.0859 0.23266 0.0578 0.06342 0.1381 0.10178 0.2238 0.10694 0.0867 0.00015 0.1702 -0.03287 0.2333 -0.0923 0.0632 -0.05943 0.1012 -0.14076 0.1063 -0.22733 0.0699 -0.53937 0.1498 -1.05876 0.1898 -1.58815 -0.0049 -0.02641 -0.0049 -0.05349 0 -0.0799h0.819c1.8711 -0.01136 3.6822 0.65981 5.0941 1.8878 0.8361 0.84035 1.4978 1.83779 1.9469 2.93489 0.4492 1.0971 0.6769 2.27222 0.67 3.45762h-0.1598c-0.5394 0.08 -1.0488 0.2298 -1.5981 0.2697 -0.0763 -0.0029 -0.1508 0.0234 -0.2083 0.0735 -0.0575 0.0501 -0.0938 0.1203 -0.1014 0.1962 -0.0003 0.0746 0.0271 0.1466 0.077 0.202 0.0498 0.0554 0.1185 0.0902 0.1927 0.0977 0.5812 0.1256 1.1734 0.1925 1.768 0.1997 -0.0465 1.2866 -0.3888 2.5451 -1.0002 3.6779 -0.6115 1.1329 -1.4758 2.1097 -2.5257 2.8545 -0.0375 0.0216 -0.0703 0.0505 -0.0963 0.0851 -0.026 0.0346 -0.0447 0.0741 -0.0549 0.1161 -0.0103 0.0421 -0.0119 0.0857 -0.0048 0.1284 0.0071 0.0427 0.0228 0.0835 0.0461 0.1199 0.0471 0.072 0.1204 0.1228 0.2044 0.1414 0.084 0.0187 0.1719 0.0038 0.2451 -0.0415 1.1753 -0.8002 2.1483 -1.863 2.8417 -3.1043 0.6935 -1.2413 1.0885 -2.627 1.1536 -4.0474l0.4295 -0.0599c0.5494 -0.0999 1.0588 -0.2397 1.5982 -0.3196 0.0427 0.0029 0.0856 -0.0033 0.1257 -0.0183 0.0401 -0.0151 0.0765 -0.0385 0.1068 -0.0688 0.0303 -0.0303 0.0538 -0.0667 0.0688 -0.1068 0.015 -0.0402 0.0212 -0.083 0.0183 -0.1258 0.0028 -0.0431 -0.0035 -0.0864 -0.0184 -0.127s-0.0382 -0.0776 -0.0683 -0.1087c-0.0301 -0.031 -0.0664 -0.0554 -0.1065 -0.0716s-0.0832 -0.0238 -0.1264 -0.0223Z" clip-rule="evenodd" stroke-width="1"></path>
</svg>