<svg xmlns="http://www.w3.org/2000/svg" fill="none" viewBox="0 0 24 24" id="Office-Building-Outdoors--Streamline-Freehand">
  <desc>
    Office Building Outdoors Streamline Icon: https://streamlinehq.com
  </desc>
  <path fill="#020202" fill-rule="evenodd" d="M15.9936 20.2789c-2.3876 -0.3078 -4.8049 -0.3078 -7.19254 0 -0.49948 0.04 -0.99896 0.0999 -1.49844 0.1799 -0.07948 0 -0.15571 0.0315 -0.21191 0.0877 -0.05621 0.0562 -0.08778 0.1325 -0.08778 0.2119 0 0.0795 0.03157 0.1558 0.08778 0.212 0.0562 0.0562 0.13243 0.0877 0.21191 0.0877h1.11884c-0.35963 1.6483 0.0899 2.8471 0.52945 2.7672 0.58939 -0.0999 0.32966 -2.1378 0.19979 -2.7172 2.3975 0.1498 0.7692 0.1498 6.3834 0 -0.2997 1.2287 0.0999 2.9969 0.4295 2.887 0.3297 -0.1099 0.5694 -1.0889 0.6194 -1.9979 0 -0.3097 -0.0699 -0.7992 0 -0.8891 0.0699 -0.0899 0 0 1.9979 0.0699 0.4196 0 0.3497 -0.7992 0 -0.7892 -0.929 -0.0699 -0.5894 0.07 -2.5873 -0.1099Z" clip-rule="evenodd" stroke-width="1"></path>
  <path fill="#0c6fff" fill-rule="evenodd" d="M22.7564 9.33034c-1.0988 -1.99793 -3.2466 -3.10678 -5.1946 -1.928 -2.4674 1.46848 -3.816 6.08366 -1.878 8.99066 0.5202 0.7974 1.2006 1.4778 1.9979 1.9979 0.2859 0.148 0.5923 0.2524 0.9091 0.3097 0.3396 0.06 0.4595 -0.3796 0 -0.6293 -0.2018 -0.0529 -0.3963 -0.13 -0.5794 -0.2298 -0.6772 -0.4949 -1.2451 -1.124 -1.6683 -1.8481 -1.3986 -2.3575 -0.2997 -6.05369 1.5184 -7.41228 3.0668 -2.29762 6.0937 3.49638 4.6052 7.80188 -0.6892 1.998 -1.7981 1.998 -1.908 2.3975 -0.0139 0.0506 -0.0158 0.1037 -0.0058 0.1552 0.0101 0.0515 0.032 0.0999 0.0639 0.1415 0.0319 0.0416 0.0731 0.0753 0.1202 0.0983 0.0471 0.0231 0.0989 0.0349 0.1514 0.0346 0.5779 -0.2406 1.0911 -0.6136 1.4984 -1.0889 1.5984 -1.918 1.918 -5.9438 0.3696 -8.79086Z" clip-rule="evenodd" stroke-width="1"></path>
  <path fill="#020202" fill-rule="evenodd" d="M19.3601 23.3458c-0.0132 0.0901 0.0098 0.1817 0.0642 0.2548 0.0543 0.073 0.1354 0.1215 0.2255 0.1348 0.0901 0.0132 0.1817 -0.0099 0.2548 -0.0642 0.0731 -0.0543 0.1216 -0.1354 0.1348 -0.2255 0.2808 -1.5318 0.3447 -3.0956 0.1898 -4.6452 -0.0899 -0.6693 -0.2198 -1.3286 -0.2997 -1.8581 0.4895 -0.2597 0.4995 -0.5894 1.4086 -3.2866 0.0599 -0.3196 0.4195 -1.3186 0.1898 -1.6183 -0.0433 -0.0494 -0.0993 -0.0859 -0.1619 -0.1058 -0.0625 -0.0198 -0.1294 -0.0221 -0.1932 -0.0067 -0.0638 0.0154 -0.1221 0.048 -0.1687 0.0943 -0.0466 0.0462 -0.0797 0.1044 -0.0956 0.1681 -0.2997 1.0673 -0.7291 2.0939 -1.2787 3.0568 0 0.0699 -0.0499 0.2797 -0.0899 0.4495 -0.1798 -0.4295 0.0899 0 -1.2187 -1.9979 -0.3397 -0.6294 -0.5295 -1.1588 -0.8292 -1.1688 -0.056 -0.0059 -0.1126 0.0022 -0.1647 0.0236 -0.0521 0.0215 -0.098 0.0555 -0.1337 0.0991 -0.0357 0.0436 -0.0599 0.0954 -0.0706 0.1507 -0.0107 0.0553 -0.0075 0.1124 0.0094 0.1662 0 0.0998 -0.1798 -0.3797 0.4496 1.0489 0.1898 0.5694 1.0988 2.6272 1.6482 2.9069 0.1199 2.3276 0.2198 4.9349 0.1299 6.4234Z" clip-rule="evenodd" stroke-width="1"></path>
  <path fill="#020202" fill-rule="evenodd" d="M10.1397 6.80294c0.2697 0.32966 0.5994 3.87596 0.7492 5.12466 0.2627 1.9713 0.4161 3.9556 0.4596 5.9439 0 0.09 0.0357 0.1764 0.0994 0.2401s0.1501 0.0995 0.2402 0.0995c0.0901 0 0.1765 -0.0358 0.2402 -0.0995s0.0995 -0.1501 0.0995 -0.2401c0.0157 -2.0016 -0.0777 -4.0025 -0.2798 -5.9938 -0.1698 -1.7682 -0.2996 -4.99484 -0.7891 -5.66414 -0.5324 -0.55133 -1.23747 -0.90385 -1.99796 -0.99897 0.09322 -0.49177 0.09322 -0.99668 0 -1.48845 -0.03406 -0.23435 -0.12584 -0.45655 -0.26708 -0.64662 -0.14125 -0.19007 -0.32753 -0.34205 -0.54209 -0.44226 -0.64553 -0.20666 -1.32017 -0.30786 -1.99792 -0.29968 0.24785 -0.64292 0.24785 -1.355017 0 -1.997932 0 -0.044603 -0.00879 -0.08877 -0.02586 -0.129978 -0.01707 -0.041208 -0.04208 -0.07865 -0.07362 -0.1101895C6.02283 0.0679413 5.98539 0.042923 5.94418 0.0258541 5.90297 0.00878525 5.8588 0 5.8142 0c-0.0446 0 -0.08877 0.00878525 -0.12998 0.0258541 -0.04121 0.0170689 -0.07865 0.0420872 -0.11019 0.0736264C5.54249 0.13102 5.51747 0.168462 5.50041 0.20967c-0.01707 0.041208 -0.02586 0.085375 -0.02586 0.129978 -0.26419 0.639775 -0.26419 1.358152 0 1.997932 -0.3363 0.02456 -0.67025 0.07465 -0.99896 0.14984 -0.81915 0.20978 -1.56838 0.23975 -1.68825 1.08887 -0.02898 0.56401 -0.00221 1.1295 0.07992 1.68825C0.779421 5.76402 0.639566 6.32344 0.489722 7.50222 0.169938 12.5647 0.149923 17.6416 0.429784 22.7064c0 0.0795 0.031574 0.1558 0.087777 0.212 0.056202 0.0562 0.13243 0.0877 0.211912 0.0877 0.079483 0 0.15571 -0.0315 0.211912 -0.0877 0.056203 -0.0562 0.087775 -0.1325 0.087775 -0.212 -0.079915 -3.1866 0.14985 -11.558 0.53944 -14.7047 0.13986 -1.14881 0 -1.13882 1.11884 -1.4485 2.3176 -0.6693 6.78297 -0.54943 7.45226 0.24974Zm-6.51323 -3.0768c1.40157 -0.24612 2.83086 -0.2932 4.2456 -0.13986 0.2797 0.05994 0.45952 1.17878 0.43954 1.49845 -1.61869 -0.18729 -3.25532 -0.15369 -4.86495 0.09989 0.11987 -0.40957 0.45952 -1.23871 0.17981 -1.45848Z" clip-rule="evenodd" stroke-width="1"></path>
  <path fill="#0c6fff" fill-rule="evenodd" d="M5.87408 7.89182c-0.26972 -0.53944 -0.5694 -0.41956 -2.25765 -0.23975 -0.80916 0 -0.99897 0.87909 -1.06889 1.38856 -0.06566 0.47391 -0.06566 0.95461 0 1.42847 0.12986 0.4496 1.20874 0.4895 1.7282 0.4995 0.51946 0.01 1.40854 0.03 1.72821 -0.4295 0.23519 -0.68295 0.23519 -1.42492 0 -2.10784 -0.02253 -0.18419 -0.0661 -0.36518 -0.12987 -0.53944ZM3.31674 9.88975c-0.04017 -0.42194 -0.04017 -0.84675 0 -1.26869 0 -0.06992 0.05994 -0.14984 0 -0.16982 0.01484 -0.03473 0.02249 -0.07211 0.02249 -0.10989 0 -0.03777 -0.00765 -0.07515 -0.02249 -0.10988 0.06774 0.06348 0.1569 0.09914 0.24974 0.09989 1.39855 0 1.09886 0 1.35859 0.07992 0.08489 0.26763 0.11546 0.54953 0.08991 0.82914v0.52945c-0.27971 0.05994 -1.50844 0.11988 -1.69824 0.11988Z" clip-rule="evenodd" stroke-width="1"></path>
  <path fill="#0c6fff" fill-rule="evenodd" d="M9.29073 15.1942c0.46951 -0.1598 0.59938 -0.5794 0.60937 -1.0788 -0.01314 -0.6328 -0.11057 -1.2611 -0.2897 -1.8681 -0.26972 -0.5395 -0.55942 -0.4196 -2.25766 -0.2398 -0.80916 0 -0.99897 0.8791 -1.0589 1.3886 -0.08922 0.4707 -0.10941 0.952 -0.05994 1.4285 0.17981 0.6294 2.44746 0.5694 3.05683 0.3696Zm-2.23768 -0.949c-0.05544 -0.4138 -0.07216 -0.8318 -0.04995 -1.2487 0 -0.0699 0.05994 -0.1498 0 -0.1698 0.01484 -0.0347 0.02249 -0.0721 0.02249 -0.1099s-0.00765 -0.0752 -0.02249 -0.1099c0.12987 0.1399 0.14985 0.0999 1.40854 0.1299 0.06643 -0.0067 0.13336 -0.0067 0.19979 0 0 0.0799 0 0.1698 0.05994 0.1998 0.05994 0.0299 0.04995 1.1088 0.04995 1.1588 -0.55341 0.0762 -1.11013 0.1263 -1.66827 0.1498Z" clip-rule="evenodd" stroke-width="1"></path>
  <path fill="#0c6fff" fill-rule="evenodd" d="M5.47454 16.5728c-0.24974 -0.5294 -0.56941 -0.4295 -2.25766 -0.2397 -0.80916 0 -0.99896 0.8691 -1.0589 1.3885 -0.08406 0.468 -0.10423 0.9452 -0.05994 1.4186 0.13986 0.4495 1.21874 0.4894 1.72821 0.4994 0.50947 0.01 1.46848 0 1.7382 -0.4195 0.25144 -0.6774 0.26902 -1.4194 0.04995 -2.1078 -0.03026 -0.1837 -0.07707 -0.3643 -0.13986 -0.5395Zm-2.55735 1.9979c-0.0711 -0.5569 -0.04064 -1.1221 0.08991 -1.6682 0.02985 0.0343 0.06667 0.0618 0.10802 0.0808 0.04134 0.0189 0.08625 0.0289 0.13173 0.0291 1.35859 0 1.37857 -0.07 1.41853 0.2697 0 0.1199 0.05994 1.1288 0.05994 1.1588 -0.59993 0.0744 -1.20363 0.1144 -1.80813 0.1199v0.0099Z" clip-rule="evenodd" stroke-width="1"></path>
</svg>