<svg xmlns="http://www.w3.org/2000/svg" fill="none" viewBox="0 0 24 24" id="Office-Folder--Streamline-Freehand">
  <desc>
    Office Folder Streamline Icon: https://streamlinehq.com
  </desc>
  <path fill="#020202" fill-rule="evenodd" d="M19.8951 12.3919c-1.6264 -0.2394 -9.5988 0.1197 -10.27725 0.1197 -0.89796 0 -0.79827 0.2794 -0.99776 -0.5088 -0.04061 -0.715 -0.25275 -1.4098 -0.61867 -2.02555 -0.80817 -0.80817 -6.16633 0 -6.82491 1.41685 -0.329181 0.6885 0.38919 2.3748 0.60868 3.0932 0.57724 2.3785 1.32418 4.7127 2.2351 6.9845 0.09602 0.2112 0.3847 0.2393 0.51959 0.0506 0.06266 -0.0877 0.07378 -0.202 0.02919 -0.3 -0.82715 -2.2517 -1.49398 -4.559 -1.99562 -6.9047 -0.30081 -0.8062 -0.4953 -1.6481 -0.57867 -2.5045 0.31929 -0.6386 3.17296 -1.1076 3.99113 -1.0976l1.38694 0.0599c0.23949 0.3492 0.17959 1.9955 0.77826 2.6042 0.59868 0.6087 4.25059 0.0599 8.84039 0.1796 0.1996 0 3.2329 -0.2095 3.622 0.2595s-0.2794 2.9335 -0.429 3.4822c-0.3393 1.2772 -0.7384 4.101 -1.3571 5.1686 -0.1595 0.2794 -0.1296 0.459 -1.8259 0.5987 -2.2051 0.1896 -3.7018 -0.0599 -8.19182 0l-2.1453 -0.1198c-0.54878 0 -1.08756 -0.2594 -1.17735 0.2096 -0.1297 0.7283 1.15745 0.3991 8.89027 0.7981 1.4807 0.1124 2.9697 0.0081 4.4203 -0.3092 1.3569 -0.4989 1.766 -4.1309 2.3248 -6.0866 0.3392 -1.1574 0.9978 -3.562 0.2693 -4.49 -0.4065 -0.3907 -0.9348 -0.6302 -1.4966 -0.6785Z" clip-rule="evenodd" stroke-width="1"></path>
  <path fill="#0c6fff" fill-rule="evenodd" d="M5.59679 8.35082c0.12979 0.42908 0.50888 0.39918 0.61867 0.14969 0.20949 -0.45898 -0.13969 -1.37694 -0.13969 -1.39694 0 -0.02 -0.33929 -4.11082 0.01 -5.19848 0.25939 -0.78816 2.79378 -0.76826 3.62194 -0.77826 1.23729 0 8.26179 0.25949 8.82049 1.05765 0.1596 0.23949 0.0798 0.60868 0 0.99786 -0.2085 2.40143 -0.6021 4.78327 -1.1774 7.12416 -0.0822 0.2479 0.1349 0.4918 0.3906 0.439 0.1419 -0.0294 0.2496 -0.1456 0.268 -0.2893 0.6684 -2.35171 1.1621 -4.74957 1.4767 -7.17417 0.1739 -0.56418 0.1165 -1.17438 -0.1597 -1.69622 -0.5488 -0.887962 -2.1751 -0.977758 -3.183 -1.137452 -2.5842 -0.3691843 -7.50334 -0.848062 -9.93794 0.129694C5.14781 0.997134 5.12791 1.7754 5.10791 2.83305c0.02857 1.84868 0.19194 3.69287 0.48888 5.51777Z" clip-rule="evenodd" stroke-width="1"></path>
  <path fill="#020202" fill-rule="evenodd" d="M22.7885 5.31758c-0.4434 -0.60868 -1.0859 -1.04286 -1.816 -1.22725 -0.2198 -0.06929 -0.4321 0.12541 -0.3822 0.35031 0.0173 0.07806 0.0651 0.14592 0.1327 0.18847 1.6464 0.93796 1.1774 1.26724 0.918 1.83592 -0.4856 1.41867 -1.0828 2.79653 -1.786 4.12087 -0.1306 0.2266 0.033 0.5096 0.2946 0.5093 0.1214 -0.0001 0.2334 -0.0649 0.2941 -0.1701 0.409 -0.7582 3.0532 -4.24048 2.3448 -5.60752Z" clip-rule="evenodd" stroke-width="1"></path>
  <path fill="#0c6fff" fill-rule="evenodd" d="M16.5226 5.25774c0.2846 -0.11581 0.3372 -0.49622 0.0946 -0.68479 0 0 -0.0031 -0.00245 -0.0048 -0.00368 -0.1796 -0.16969 -0.6185 -0.21959 -1.9057 -0.39918 -1.3892 -0.19225 -2.7967 -0.21235 -4.1907 -0.0598 -1.63644 0 -1.71623 0 -1.99562 0.1397 -0.15551 0.15949 -0.0801 0.42744 0.13582 0.48234 0.01112 0.00286 0.02244 0.005 0.03377 0.00653l0.56878 0.0798c1.77445 0.34051 3.58675 0.44122 5.38805 0.29939 0.0698 0.01 1.796 0.17959 1.8758 0.13969Z" clip-rule="evenodd" stroke-width="1"></path>
  <path fill="#0c6fff" fill-rule="evenodd" d="M16.0536 7.812c-0.5955 -0.285 -1.2456 -0.43817 -1.9057 -0.44898 -1.0085 -0.16878 -2.0317 -0.23235 -3.0533 -0.18959 -1.09751 0.07979 -2.90353 -0.1896 -2.67404 0.52887 0.05214 0.15715 0.22214 0.24215 0.37919 0.18949 0.53877 -0.12969 0.73836 0.37919 5.27825 0.43909 0.5376 -0.0798 1.0849 -0.06296 1.6164 0.04989 0.2008 0.16715 0.5071 0.05429 0.5515 -0.20306 0.0261 -0.15132 -0.0528 -0.30132 -0.1923 -0.36571Z" clip-rule="evenodd" stroke-width="1"></path>
  <path fill="#020202" fill-rule="evenodd" d="M1.94486 6.03601c0.28827 0.69183 0.54143 1.39785 0.75827 2.1153 0.02306 0.23041 0.28694 0.34949 0.475 0.21429 0.08724 -0.06265 0.13438 -0.16725 0.12367 -0.27419 -0.07194 -1.04663 -0.23561 -2.085 -0.48888 -3.10316 -0.12969 -0.60857 -0.52888 -0.99776 1.52664 -1.70613 0.2503 -0.07438 0.32632 -0.39183 0.13673 -0.57153 -0.07908 -0.07489 -0.18928 -0.10734 -0.29643 -0.08704 -2.68398 0.36919 -2.97337 1.36694 -2.235 3.41246Z" clip-rule="evenodd" stroke-width="1"></path>
</svg>