<svg xmlns="http://www.w3.org/2000/svg" fill="none" viewBox="0 0 24 24" id="Work-From-Home-User-Pet-Cat--Streamline-Freehand">
  <desc>
    Work From Home User Pet Cat Streamline Icon: https://streamlinehq.com
  </desc>
  <path fill="#020202" fill-rule="evenodd" d="M9.41329 12.6847c-0.94101 -5.07791 -1.73292 -4.74365 -3.20615 -4.88506 -3.54037 -0.3111 -5.14214 -0.48591 -5.656359 0.91276 0.101604 1.4008 0.455239 2.7716 1.043869 4.0468 1.02843 1.7509 3.23181 1.0542 10.76765 0.7714 0.1023 -0.0024 0.1994 -0.0454 0.2701 -0.1194 0.0706 -0.074 0.1089 -0.173 0.1065 -0.2753 -0.0023 -0.1023 -0.0452 -0.1994 -0.1193 -0.2701 -0.074 -0.0706 -0.173 -0.109 -0.2753 -0.1066 -0.977 -0.0026 -1.9514 -0.0385 -2.93101 -0.0745Zm-0.86905 -0.0309c-0.26375 -1.2188 -0.69644 -2.3949 -1.28554 -3.49409 -1.71271 -0.27103 -3.44959 -0.35724 -5.18072 -0.25712 -0.19797 0 -0.25708 0.00003 -0.32907 0.19286 1.08242 4.65625 0.56818 3.34755 6.79533 3.55835Z" clip-rule="evenodd" stroke-width="1"></path>
  <path fill="#0c6fff" fill-rule="evenodd" d="M12.7095 1.25368c0.4294 -0.925587 -4.07258 -2.64566 -5.03417 0.81758 -0.20229 0.65182 -0.18404 1.35216 0.05187 1.99257 0.23591 0.64041 0.67634 1.18514 1.25313 1.54996 0.57679 0.36481 1.25777 0.52931 1.93747 0.46803 0.6797 -0.06128 1.3203 -0.34489 1.8226 -0.80699 1.9591 -1.75862 0.7173 -4.293684 -0.0309 -4.02115Zm-0.2237 0.20047c-0.057 0.01979 -0.1179 0.02593 -0.1777 0.01789 -0.0599 -0.00804 -0.117 -0.02996 -0.1668 -0.0641 -1.5041 -0.923017 -2.9876 -0.3291 -3.29098 0.96415 -0.12369 0.40502 -0.11171 0.8393 0.03409 1.23689s0.41748 0.73669 0.77368 0.96572c0.35621 0.22904 0.77741 0.33546 1.19971 0.30311 0.4222 -0.03236 0.8224 -0.20169 1.1395 -0.48232 0.2021 -0.12874 0.3763 -0.29654 0.5127 -0.49353 0.1363 -0.19699 0.232 -0.41923 0.2813 -0.65367 0.0493 -0.23444 0.0514 -0.47635 0.006 -0.71158 -0.0454 -0.23524 -0.1373 -0.45906 -0.2703 -0.65831 -0.0463 -0.05956 -0.0748 -0.13102 -0.0821 -0.20612 -0.0073 -0.0751 0.0069 -0.15078 0.0409 -0.21813Z" clip-rule="evenodd" stroke-width="1"></path>
  <path fill="#0c6fff" fill-rule="evenodd" d="M9.33374 7.95388C13.031 6.88175 16.2756 11.6613 14.4759 12.5818c-0.0956 0.0431 -0.1707 0.1217 -0.2093 0.2192 -0.0387 0.0975 -0.0379 0.2062 0.0022 0.3031 0.0401 0.0969 0.1163 0.1744 0.2126 0.2161 0.0962 0.0417 0.2049 0.0443 0.303 0.0072 0.2678 -0.1057 0.5063 -0.2741 0.6956 -0.4911 0.1892 -0.217 0.3237 -0.4761 0.392 -0.7558 0.7713 -2.54023 -2.3988 -5.59473 -5.3761 -5.28363 -2.45285 0.33938 -1.64809 1.34213 -1.16216 1.15701Z" clip-rule="evenodd" stroke-width="1"></path>
  <path fill="#0c6fff" fill-rule="evenodd" d="M5.99648 20.2744c0.07885 -0.2427 0.15181 -0.4957 0.22635 -0.7543 0.40702 -1.4115 0.86114 -2.9865 2.57876 -3.9456 0.09374 -0.0489 0.16454 -0.1327 0.19718 -0.2333 0.03263 -0.1005 0.02447 -0.2098 -0.02268 -0.3045 -0.04715 -0.0946 -0.12956 -0.167 -0.22951 -0.2015 -0.09994 -0.0346 -0.20943 -0.0285 -0.30494 0.0169 -0.97347 0.5068 -1.81092 1.24 -2.44181 2.138 -0.63089 0.8981 -1.03676 1.9345 -1.18342 3.0221 -0.34966 1.4707 -1.97973 1.7998 -1.7072 -0.0642 -0.01166 -0.9095 0.18421 -1.8097 0.57271 -2.6322 0.38849 -0.8224 0.9594 -1.5454 1.6693 -2.1141 0.08932 -0.0491 0.15547 -0.1317 0.18391 -0.2295 0.02845 -0.0979 0.01685 -0.2031 -0.03225 -0.2924 -0.04909 -0.0893 -0.13166 -0.1555 -0.22954 -0.1839 -0.09788 -0.0285 -0.20306 -0.0169 -0.29239 0.0322 -3.5198 1.7098 -4.267952 8.6414 -0.9924 7.9446 0.57919 -0.1281 0.98596 -0.3956 1.29068 -0.7575 0.1306 0.3451 0.35538 0.6479 0.65019 0.8732 0.33684 0.2575 0.74735 0.4002 1.17125 0.4071 0.42391 0.007 0.83887 -0.1222 1.18397 -0.3684 1.06496 -0.7258 1.52483 -1.742 1.97306 -2.7326 0.2823 -0.6236 0.5599 -1.2372 0.9811 -1.7617 0.1824 -0.2334 0.5257 -0.2942 0.928 -0.3653 0.9533 -0.1685 2.2374 -0.3956 2.4941 -3.1185 0.0329 -0.2177 -0.1216 -0.4273 -0.3394 -0.4603 -0.2177 -0.0329 -0.4273 0.1217 -0.4602 0.3395 -0.4043 1.9488 -1.1171 2.019 -1.9248 2.0986 -0.2504 0.0247 -0.5099 0.0503 -0.7722 0.133 -0.9397 0.3006 -1.44578 1.3889 -1.96571 2.507 -0.22268 0.4788 -0.4479 0.9631 -0.71081 1.3933 -0.47308 0.7714 -1.26241 1.6044 -2.00802 1.0902 -0.5533 -0.3836 -0.51103 -0.798 -0.47769 -1.1249 0.01373 -0.1346 0.02594 -0.2543 -0.00559 -0.351Z" clip-rule="evenodd" stroke-width="1"></path>
  <path fill="#020202" fill-rule="evenodd" d="M21.5937 15.3757c0.1026 0.7754 -0.0294 1.5638 -0.3792 2.2634 4.4042 4.3091 1.6712 7.2247 -2.7768 6.1294 -0.0345 -0.0085 -0.0682 -0.0175 -0.1011 -0.0267 -2.783 0.2228 -5.6708 0.3124 -6.0511 -1.4696 -0.0458 -0.22 -0.0457 -0.447 0.0003 -0.6669 0.046 -0.2199 0.1368 -0.428 0.2669 -0.6111 0.1301 -0.1832 0.2966 -0.3376 0.489 -0.4535 0.1925 -0.1159 0.4068 -0.1907 0.6296 -0.22 0.1064 -0.014 0.2139 0.0149 0.2991 0.0802 0.0851 0.0653 0.1407 0.1618 0.1547 0.2682 0.014 0.1064 -0.0149 0.2139 -0.0802 0.299 -0.0653 0.0851 -0.1618 0.1408 -0.2682 0.1548 -0.1415 0.047 -0.2631 0.1402 -0.345 0.2648 -0.082 0.1245 -0.1196 0.2731 -0.1069 0.4216 0.0128 0.1486 0.0752 0.2884 0.1773 0.3971 0.102 0.1087 0.2377 0.1799 0.3852 0.2021 0.3899 0.1178 0.9952 0.1378 1.9335 0.1689 0.3744 0.0124 0.8019 0.0265 1.2899 0.0493 -0.111 -0.3832 -0.1257 -0.8452 -0.1257 -1.3778 0.0692 -2.0814 0.0903 -2.4093 -0.0529 -2.5154 -0.1176 -0.0871 -0.3459 -0.0247 -0.7492 -0.6599 -0.5126 -1.0459 -0.6047 -2.2486 -0.2571 -3.3604 0.3702 -1.5298 0.833 -2.206 2.4425 -0.7019 0.242 -0.0231 0.4856 -0.0231 0.7276 0 0.0962 -0.0845 0.1856 -0.1644 0.2691 -0.239 0.6299 -0.5632 0.9217 -0.824 1.2736 -0.4834 0.5197 0.5845 0.8524 1.3113 0.9551 2.0868Zm-0.856 0.5173c0.0311 0.5274 -0.0757 1.0539 -0.31 1.5276 -0.2883 0.2868 -0.1411 0.4441 0.2331 0.8441 0.2498 0.2669 0.6007 0.642 0.9908 1.2358 0.5296 0.8074 1.1184 2.1135 0.3882 2.8282 -0.4175 0.4126 -1.6742 0.357 -2.3216 0.3283 -0.0344 -0.0015 -0.0671 -0.003 -0.0978 -0.0043 -0.6364 -0.0466 -1.0013 -0.0297 -1.2004 -0.2031 -0.3501 -0.3052 -0.1868 -1.1994 -0.0852 -4.0649 0.0232 -0.4658 -0.2163 -0.5362 -0.4983 -0.6191 -0.2503 -0.0735 -0.534 -0.1569 -0.6972 -0.5353 -0.2574 -0.8638 -0.2267 -1.7879 0.0874 -2.6328 0.1896 0.113 0.3235 0.2328 0.4382 0.3354 0.201 0.1797 0.3428 0.3065 0.6211 0.2508 0.5491 -0.1161 0.7773 -0.0729 0.9219 -0.0455 0.2332 0.0441 0.2489 0.0471 1.0424 -0.7258 0.2883 0.4428 0.4563 0.9531 0.4874 1.4806Z" clip-rule="evenodd" stroke-width="1"></path>
</svg>