<svg viewBox="0 0 14 14" fill="none" xmlns="http://www.w3.org/2000/svg" id="Building-1--Streamline-Flex">
  <desc>
    Building 1 Streamline Icon: https://streamlinehq.com
  </desc>
  <g id="building-1--production-shop-shops-stores-building">
    <path id="Vector 218" d="M1.75277 2.42268c-0.5314 2.97687 -0.67077 7.23107 -0.36676 9.98922 0.05355 0.4859 0.47242 0.8381 0.96125 0.8381H11.653c0.4889 0 0.9077 -0.3522 0.9613 -0.8381 0.304 -2.75815 0.1646 -7.01235 -0.3668 -9.98922 -0.1298 -0.72713 -0.6971 -1.27753 -1.4284 -1.38106C9.78376 0.895044 8.31943 0.75 7.00014 0.75s-2.78362 0.145044 -3.81894 0.29162c-0.73133 0.10353 -1.29863 0.65393 -1.42843 1.38106Z" stroke="#000000" stroke-linecap="round" stroke-linejoin="round" stroke-width="1"></path>
    <path id="Vector 219" d="M8.5 7.5h1" stroke="#000000" stroke-linecap="round" stroke-linejoin="round" stroke-width="1"></path>
    <path id="Vector 220" d="M5.5 11.5v1.75h3V11.5c0 -0.8284 -0.67157 -1.5 -1.5 -1.5s-1.5 0.6716 -1.5 1.5Z" stroke="#000000" stroke-linecap="round" stroke-linejoin="round" stroke-width="1"></path>
    <path id="Vector 221" d="M4.5 4.5h1" stroke="#000000" stroke-linecap="round" stroke-linejoin="round" stroke-width="1"></path>
    <path id="Vector 222" d="M8.5 4.5h1" stroke="#000000" stroke-linecap="round" stroke-linejoin="round" stroke-width="1"></path>
    <path id="Vector 223" d="M4.5 7.5h1" stroke="#000000" stroke-linecap="round" stroke-linejoin="round" stroke-width="1"></path>
  </g>
</svg>