<svg xmlns="http://www.w3.org/2000/svg" fill="none" viewBox="0 0 14 14" id="Safe-Vault--Streamline-Flex">
  <desc>
    Safe Vault Streamline Icon: https://streamlinehq.com
  </desc>
  <g id="safe-vault--saving-combo-payment-safe-combination-finance">
    <path id="Vector 351" stroke="#000000" stroke-linecap="round" stroke-linejoin="round" d="m3 10.832 -0.5 2" stroke-width="1"></path>
    <path id="Vector 352" stroke="#000000" stroke-linecap="round" stroke-linejoin="round" d="m11 10.832 0.5 2" stroke-width="1"></path>
    <path id="Intersect" stroke="#000000" stroke-linecap="round" stroke-linejoin="round" d="M7 1c-1.55271 0 -3.17652 0 -4.53158 0.25467 -0.61869 0.11627 -1.10147 0.59351 -1.23616 1.20845C1 3.52353 1 4.49895 1 6c0 1.50105 0 2.47647 0.23226 3.53688 0.13469 0.61492 0.61747 1.09222 1.23616 1.20842C3.82348 11 5.44729 11 7 11c1.55271 0 3.1765 0 4.5316 -0.2547 0.6187 -0.1162 1.1014 -0.5935 1.2361 -1.20842C13 8.47647 13 7.50105 13 6c0 -1.50105 0 -2.47647 -0.2323 -3.53688 -0.1347 -0.61494 -0.6174 -1.09218 -1.2361 -1.20845C10.1765 1 8.55271 1 7 1Z" stroke-width="1"></path>
    <path id="Vector 356" stroke="#000000" stroke-linecap="round" stroke-linejoin="round" d="m3.5 5.1665 0 1.66675" stroke-width="1"></path>
    <path id="Vector" stroke="#000000" stroke-linecap="round" stroke-linejoin="round" d="M8.58049 7.66671c0.92048 0 1.66671 -0.74619 1.66671 -1.66667 0 -0.92047 -0.74623 -1.66667 -1.66671 -1.66667m0 3.33334c-0.92047 0 -1.66666 -0.74619 -1.66666 -1.66667 0 -0.92047 0.74619 -1.66667 1.66666 -1.66667m0 3.33334 0.00002 0.83325m-0.00002 -4.16659L8.58051 3.5m1.44339 1.66667 0.7217 -0.41667M6.41553 7.25004l0.72169 -0.41667m2.88668 -0.00004 0.7217 0.41667M6.41553 4.74996l0.72169 0.41667" stroke-width="1"></path>
  </g>
</svg>