<svg xmlns="http://www.w3.org/2000/svg" fill="none" viewBox="0 0 14 14" id="Scanner-Bar-Code--Streamline-Flex">
  <desc>
    Scanner Bar Code Streamline Icon: https://streamlinehq.com
  </desc>
  <g id="scanner-bar-code--codes-tags-upc-barcode">
    <path id="Vector 1530" stroke="#000000" stroke-linecap="round" stroke-linejoin="round" d="M10.8057 3.7915v6.4167" stroke-width="1"></path>
    <path id="Vector 1533" stroke="#000000" stroke-linecap="round" stroke-linejoin="round" d="M3.19434 3.7915v6.4167" stroke-width="1"></path>
    <path id="Vector 1534" stroke="#000000" stroke-linecap="round" stroke-linejoin="round" d="M8.90283 3.7915v4.66667" stroke-width="1"></path>
    <path id="Vector 1535" stroke="#000000" stroke-linecap="round" stroke-linejoin="round" d="m8.90283 10.2085 0 -0.29167" stroke-width="1"></path>
    <path id="Vector 1536" stroke="#000000" stroke-linecap="round" stroke-linejoin="round" d="M7 3.7915v4.66667" stroke-width="1"></path>
    <path id="Vector 1537" stroke="#000000" stroke-linecap="round" stroke-linejoin="round" d="m7 10.2085 0 -0.29167" stroke-width="1"></path>
    <path id="Vector 1531" stroke="#000000" stroke-linecap="round" stroke-linejoin="round" d="M5.09668 3.7915v4.66667" stroke-width="1"></path>
    <path id="Vector 1532" stroke="#000000" stroke-linecap="round" stroke-linejoin="round" d="m5.09668 10.2085 0 -0.29167" stroke-width="1"></path>
    <path id="Intersect" stroke="#000000" stroke-linecap="round" stroke-linejoin="round" d="M10.0068 0.942383c0.3709 0.039948 0.7384 0.082767 1.1023 0.124947 0.9595 0.1112 1.7251 0.87629 1.8328 1.83618 0.0406 0.36154 0.0815 0.72667 0.1196 1.0951" stroke-width="1"></path>
    <path id="Intersect_2" stroke="#000000" stroke-linecap="round" stroke-linejoin="round" d="M10.0068 13.0576c0.3709 -0.0399 0.7384 -0.0828 1.1023 -0.1249 0.9595 -0.1112 1.7251 -0.8763 1.8328 -1.8362 0.0406 -0.3615 0.0815 -0.7267 0.1196 -1.0951" stroke-width="1"></path>
    <path id="Intersect_3" stroke="#000000" stroke-linecap="round" stroke-linejoin="round" d="M3.99316 0.942383c-0.37084 0.039948 -0.73836 0.082767 -1.10224 0.124947 -0.95949 0.1112 -1.72508 0.87629 -1.83285 1.83618 -0.04059 0.36154 -0.081513 0.72667 -0.119554 1.0951" stroke-width="1"></path>
    <path id="Intersect_4" stroke="#000000" stroke-linecap="round" stroke-linejoin="round" d="M3.99316 13.0576c-0.37084 -0.0399 -0.73836 -0.0828 -1.10224 -0.1249 -0.95949 -0.1112 -1.72508 -0.8763 -1.83285 -1.8362 -0.04059 -0.3615 -0.081513 -0.7267 -0.119554 -1.0951" stroke-width="1"></path>
  </g>
</svg>