<svg xmlns="http://www.w3.org/2000/svg" fill="none" viewBox="0 0 14 14" id="Tag--Streamline-Flex">
  <desc>
    Tag Streamline Icon: https://streamlinehq.com
  </desc>
  <g id="tag--codes-tags-tag-product-label">
    <path id="Intersect" stroke="#000000" stroke-linecap="round" stroke-linejoin="round" d="M6.79455 12.621c-0.71512 0.6478 -1.8035 0.6678 -2.56534 0.0756 -0.53602 -0.4166 -1.07509 -0.8549 -1.57308 -1.3529 -0.49799 -0.498 -0.93626 -1.037 -1.35289 -1.57305 -0.592157 -0.76184 -0.572157 -1.85022 0.07565 -2.56534 1.38565 -1.52965 2.82975 -2.94373 4.40132 -4.31127 0.29175 -0.25388 0.65183 -0.41401 1.03702 -0.44869 1.13524 -0.1022 3.57867 -0.23107 4.27347 0.46376 0.6949 0.69483 0.566 3.13828 0.4638 4.27352 -0.0347 0.38519 -0.1948 0.74527 -0.4487 1.03702C9.73828 9.79122 8.32419 11.2353 6.79455 12.621Z" stroke-width="1"></path>
    <path id="Vector 7" stroke="#000000" stroke-linecap="round" stroke-linejoin="round" d="M13.125 0.875 9.14752 4.85248" stroke-width="1"></path>
  </g>
</svg>