<svg xmlns="http://www.w3.org/2000/svg" fill="none" viewBox="0 0 14 14" id="Auto-Flash--Streamline-Core-Remix">
  <desc>
    Auto Flash Streamline Icon: https://streamlinehq.com
  </desc>
  <g id="Free Remix/Images Photography/auto-flash">
    <path id="Union" fill="#000000" fill-rule="evenodd" d="M6.35479 0.0288434c0.19946 0.0708133 0.33272 0.2595346 0.33272 0.4711836V4.37503H10.125c0.1929 0 0.3686 0.11095 0.4515 0.28511 0.0829 0.17417 0.0582 0.38048 -0.0634 0.53018L4.82556 12.1903c-0.13346 0.1643 -0.35589 0.2267 -0.55534 0.1559 -0.19946 -0.0708 -0.33271 -0.2595 -0.33271 -0.4712V8.00003H0.500005c-0.192886 0 -0.368571 -0.11095 -0.4514686 -0.28512 -0.0828972 -0.17416 -0.05822102 -0.38048 0.0634116 -0.53018L5.79945 0.184731c0.13346 -0.1642638 0.35589 -0.2267009 0.55534 -0.1558876ZM10.9785 8.24872c-0.0172 0 -0.0325 0.011 -0.0379 0.0273l-0.8522 2.55678h1.7802l-0.8522 -2.55678c-0.0055 -0.0163 -0.0207 -0.0273 -0.0379 -0.0273ZM7.98927 13.1772l0.63398 -1.902c0.00312 -0.0102 0.00649 -0.0203 0.01012 -0.0303l1.12138 -3.36416c0.17558 -0.52673 0.66855 -0.88202 1.22375 -0.88202 0.5552 0 1.0481 0.35528 1.2237 0.88202l1.1224 3.36716c0.0029 0.008 0.0056 0.0161 0.0081 0.0243l0.635 1.905c0.1092 0.3274 -0.0678 0.6814 -0.3953 0.7905 -0.3275 0.1092 -0.6814 -0.0678 -0.7906 -0.3953l-0.4965 -1.4896H9.67168l-0.49655 1.4896c-0.10916 0.3275 -0.46311 0.5045 -0.79057 0.3953 -0.32747 -0.1091 -0.50444 -0.4631 -0.39529 -0.7905Z" clip-rule="evenodd" stroke-width="1"></path>
  </g>
</svg>