<svg xmlns="http://www.w3.org/2000/svg" fill="none" viewBox="0 0 14 14" id="Landscape-Setting--Streamline-Core-Remix">
  <desc>
    Landscape Setting Streamline Icon: https://streamlinehq.com
  </desc>
  <g id="Free Remix/Images Photography/landscape-setting--design-composition-horizontal-lanscape">
    <path id="Union" fill="#000000" fill-rule="evenodd" d="M12.75 2.5c0 -0.09946 -0.0395 -0.19484 -0.1098 -0.26516 -0.0704 -0.07033 -0.1657 -0.10984 -0.2652 -0.10984l-10.75 0c-0.09946 0 -0.19484 0.03951 -0.26516 0.10983C1.28951 2.30516 1.25 2.40054 1.25 2.5l0 9c0 0.0995 0.03951 0.1948 0.10983 0.2652 0.07033 0.0703 0.16571 0.1098 0.26517 0.1098l10.75 0c0.0995 0 0.1948 -0.0395 0.2652 -0.1098 0.0703 -0.0704 0.1098 -0.1657 0.1098 -0.2652v-9Zm0.774 -1.14905C13.8288 1.6557 14 2.06902 14 2.5v9c0 0.431 -0.1712 0.8443 -0.476 1.149 -0.3047 0.3048 -0.718 0.476 -1.149 0.476l-10.75 0c-0.43098 0 -0.844303 -0.1712 -1.149048 -0.476C0.171205 12.3443 0 11.931 0 11.5v-9c0 -0.43098 0.171206 -0.8443 0.475951 -1.14905C0.780698 1.0462 1.19402 0.875 1.625 0.875h10.75c0.431 0 0.8443 0.17121 1.149 0.47595ZM6.99987 2.94574c-1.1372 0 -2.05907 0.92188 -2.05907 2.05907 0 1.13719 0.92187 2.05907 2.05907 2.05907 1.13719 0 2.05907 -0.92188 2.05907 -2.05907 0 -1.13719 -0.92188 -2.05907 -2.05907 -2.05907ZM7 7.79572c-1.78169 0 -3.29789 1.13118 -3.87203 2.71298 -0.05564 0.1532 -0.03304 0.324 0.06054 0.4575s0.2464 0.2131 0.40945 0.2131l6.80404 -0.0001c0.1631 0 0.3159 -0.0795 0.4095 -0.213 0.0936 -0.1335 0.1162 -0.3043 0.0605 -0.4576C10.2979 8.9269 8.78167 7.79572 7 7.79572Z" clip-rule="evenodd" stroke-width="1"></path>
  </g>
</svg>