<svg xmlns="http://www.w3.org/2000/svg" fill="none" viewBox="0 0 14 14" id="Orientation-Landscape--Streamline-Core-Remix">
  <desc>
    Orientation Landscape Streamline Icon: https://streamlinehq.com
  </desc>
  <g id="Free Remix/Images Photography/orientation-landscape--photos-photo-orientation-landscape-picture-photography-camera-pictures-image">
    <path id="Union" fill="#000000" fill-rule="evenodd" d="M12.75 11.5c0 0.2071 -0.1679 0.375 -0.375 0.375h-0.5774L4.83634 4.91378c-0.19526 -0.19526 -0.51184 -0.19526 -0.70711 0L1.25 7.79302V2.5c0 -0.20711 0.16789 -0.375 0.375 -0.375h10.75c0.2071 0 0.375 0.16789 0.375 0.375v9Zm-0.375 1.625c0.8975 0 1.625 -0.7275 1.625 -1.625v-9c0 -0.89746 -0.7275 -1.625 -1.625 -1.625H1.625C0.727537 0.875 0 1.60254 0 2.5v9c0 0.8975 0.727537 1.625 1.625 1.625h10.75ZM11.5 5c0 -0.9665 -0.7835 -1.75 -1.75 -1.75S8 4.0335 8 5s0.7835 1.75 1.75 1.75S11.5 5.9665 11.5 5Z" clip-rule="evenodd" stroke-width="1"></path>
  </g>
</svg>