<svg xmlns="http://www.w3.org/2000/svg" viewBox="0 0 32 32" id="Coding-Apps-Websites-Phone-Tablet--Streamline-Pixel">
  <desc>
    Coding Apps Websites Phone Tablet Streamline Icon: https://streamlinehq.com
  </desc>
  <title>coding-apps-websites-phone-tablet</title>
  <g>
    <path d="M29.71 24.38h1.53v1.52h-1.53Z" fill="#000000" stroke-width="1"></path>
    <path d="M28.19 22.85h1.52v1.53h-1.52Z" fill="#000000" stroke-width="1"></path>
    <path d="M28.19 25.9h1.52v1.53h-1.52Z" fill="#000000" stroke-width="1"></path>
    <path d="M26.66 21.33h1.53v1.52h-1.53Z" fill="#000000" stroke-width="1"></path>
    <path d="M26.66 27.43h1.53v1.52h-1.53Z" fill="#000000" stroke-width="1"></path>
    <path d="M25.14 19.81h1.52v1.52h-1.52Z" fill="#000000" stroke-width="1"></path>
    <path d="M25.14 25.9h1.52v1.53h-1.52Z" fill="#000000" stroke-width="1"></path>
    <path d="M23.62 18.28h1.52v1.53h-1.52Z" fill="#000000" stroke-width="1"></path>
    <path d="M23.62 24.38h1.52v1.52h-1.52Z" fill="#000000" stroke-width="1"></path>
    <path d="M22.09 16.76h1.53v1.52h-1.53Z" fill="#000000" stroke-width="1"></path>
    <path d="M22.09 22.85h1.53v1.53h-1.53Z" fill="#000000" stroke-width="1"></path>
    <path d="m20.57 21.33 0 -1.52 -1.52 0 0 1.52 1.51 0 0 1.52 1.53 0 0 -1.52 -1.52 0z" fill="#000000" stroke-width="1"></path>
    <path d="M2.28 1.52H0.76v28.95h1.52V32h18.28v-1.53h1.53V25.9h-1.53v3.05H2.28V3.04h4.57v1.53h9.14V3.04h4.57v9.15h1.53V1.52h-1.53V0H2.28Zm9.14 0h3.05v1.52h-3.05Zm-3.05 0H9.9v1.52H8.37Z" fill="#000000" stroke-width="1"></path>
    <path d="M17.52 18.28h1.53v1.53h-1.53Z" fill="#000000" stroke-width="1"></path>
    <path d="M16 7.62h3.05v3.04H16Z" fill="#000000" stroke-width="1"></path>
    <path d="m20.56 15.23 0 1.53 1.53 0 0 -1.53 -1.52 0 0 -1.52 -4.57 0 0 4.57 1.52 0 0 -3.05 3.04 0z" fill="#000000" stroke-width="1"></path>
    <path d="M9.9 7.62h3.05v3.04H9.9Z" fill="#000000" stroke-width="1"></path>
    <path d="m12.95 24.38 0 -1.53 1.52 0 0 -1.52 -1.52 0 0 -1.52 -1.52 0 0 1.52 -1.53 0 0 1.52 1.53 0 0 1.53 1.52 0z" fill="#000000" stroke-width="1"></path>
    <path d="M9.9 13.71h3.05v3.05H9.9Z" fill="#000000" stroke-width="1"></path>
    <path d="M3.81 7.62h3.05v3.04H3.81Z" fill="#000000" stroke-width="1"></path>
    <path d="M3.81 13.71h3.05v3.05H3.81Z" fill="#000000" stroke-width="1"></path>
    <path d="M3.81 19.81h3.05v3.04H3.81Z" fill="#000000" stroke-width="1"></path>
  </g>
</svg>