<svg xmlns="http://www.w3.org/2000/svg" viewBox="0 0 32 32" id="Coding-Apps-Websites-Module--Streamline-Pixel">
  <desc>
    Coding Apps Websites Module Streamline Icon: https://streamlinehq.com
  </desc>
  <title>coding-apps-websites-module</title>
  <g>
    <path d="M28.185 10.665h1.53v10.67h-1.53Z" fill="#000000" stroke-width="1"></path>
    <path d="M26.665 21.335h1.52v1.52h-1.52Z" fill="#000000" stroke-width="1"></path>
    <path d="M26.665 9.145h1.52v1.52h-1.52Z" fill="#000000" stroke-width="1"></path>
    <path d="M23.615 10.665h3.05v1.52h-3.05Z" fill="#000000" stroke-width="1"></path>
    <path d="M23.615 22.855h3.05v1.53h-3.05Z" fill="#000000" stroke-width="1"></path>
    <path d="m25.145 9.145 0 -1.53 -1.53 0 0 -1.52 -3.04 0 0 1.52 -1.53 0 0 1.53 1.53 0 0 1.52 3.04 0 0 -1.52 1.53 0z" fill="#000000" stroke-width="1"></path>
    <path d="M20.575 12.185h3.04v1.53h-3.04Z" fill="#000000" stroke-width="1"></path>
    <path d="M20.575 24.385h3.04v1.52h-3.04Z" fill="#000000" stroke-width="1"></path>
    <path d="m17.525 28.955 0 -1.53 3.05 0 0 -1.52 -3.05 0 0 -10.67 -3.05 0 0 1.53 1.52 0 0 10.66 -1.52 0 0 1.53 3.05 0z" fill="#000000" stroke-width="1"></path>
    <path d="M17.525 13.715h3.05v1.52h-3.05Z" fill="#000000" stroke-width="1"></path>
    <path d="m17.525 12.185 1.52 0 0 -1.52 -1.52 0 0 -1.52 -3.05 0 0 1.52 -1.52 0 0 1.52 1.52 0 0 1.53 3.05 0 0 -1.53z" fill="#000000" stroke-width="1"></path>
    <path d="m14.475 3.045 0 1.53 -1.52 0 0 1.52 1.52 0 0 1.52 3.05 0 0 -1.52 1.52 0 0 -1.52 -1.52 0 0 -1.53 -3.05 0z" fill="#000000" stroke-width="1"></path>
    <path d="M11.425 25.905h3.05v1.52h-3.05Z" fill="#000000" stroke-width="1"></path>
    <path d="M11.425 13.715h3.05v1.52h-3.05Z" fill="#000000" stroke-width="1"></path>
    <path d="M8.385 24.385h3.04v1.52h-3.04Z" fill="#000000" stroke-width="1"></path>
    <path d="m11.425 9.145 1.53 0 0 -1.53 -1.53 0 0 -1.52 -3.04 0 0 1.52 -1.53 0 0 1.53 1.53 0 0 1.52 3.04 0 0 -1.52z" fill="#000000" stroke-width="1"></path>
    <path d="M8.385 12.185h3.04v1.53h-3.04Z" fill="#000000" stroke-width="1"></path>
    <path d="M5.335 22.855h3.05v1.53h-3.05Z" fill="#000000" stroke-width="1"></path>
    <path d="M5.335 10.665h3.05v1.52h-3.05Z" fill="#000000" stroke-width="1"></path>
    <path d="M3.805 21.335h1.53v1.52h-1.53Z" fill="#000000" stroke-width="1"></path>
    <path d="M3.805 9.145h1.53v1.52h-1.53Z" fill="#000000" stroke-width="1"></path>
    <path d="M2.285 10.665h1.52v10.67h-1.52Z" fill="#000000" stroke-width="1"></path>
  </g>
</svg>