<svg xmlns="http://www.w3.org/2000/svg" viewBox="0 0 32 32" id="Coding-Apps-Websites-Mobile--Streamline-Pixel">
  <desc>
    Coding Apps Websites Mobile Streamline Icon: https://streamlinehq.com
  </desc>
  <title>coding-apps-websites-mobile</title>
  <g>
    <path d="M30.48 0h-9.15v1.53h-1.52v9.14H1.52v1.52h18.29v4.58h1.52v6.09H1.52V12.19H0v13.72h1.52v-1.52h19.81v1.52h1.53v-7.62h7.62v-1.52H32V1.53h-1.52Zm-6.1 1.53h3.05v1.52h-3.05Zm6.1 13.71h-9.15V3.05h1.53v1.53h6.09V3.05h1.53Z" fill="#000000" stroke-width="1"></path>
    <path d="M27.43 9.15h1.52v1.52h-1.52Z" fill="#000000" stroke-width="1"></path>
    <path d="M27.43 6.1h1.52v1.52h-1.52Z" fill="#000000" stroke-width="1"></path>
    <path d="M24.38 10.67h3.05v1.52h-3.05Z" fill="#000000" stroke-width="1"></path>
    <path d="M22.86 9.15h1.52v1.52h-1.52Z" fill="#000000" stroke-width="1"></path>
    <path d="M22.86 6.1h1.52v1.52h-1.52Z" fill="#000000" stroke-width="1"></path>
    <path d="m1.52 25.91 0 1.52 6.1 0 0 1.53 1.52 0 0 -1.53 4.57 0 0 1.53 1.53 0 0 -1.53 6.09 0 0 -1.52 -19.81 0z" fill="#000000" stroke-width="1"></path>
    <path d="M18.29 16.77h1.52v1.52h-1.52Z" fill="#000000" stroke-width="1"></path>
    <path d="M16.76 18.29h1.53v1.52h-1.53Z" fill="#000000" stroke-width="1"></path>
    <path d="M16.76 15.24h1.53v1.53h-1.53Z" fill="#000000" stroke-width="1"></path>
    <path d="M15.24 19.81h1.52v1.53h-1.52Z" fill="#000000" stroke-width="1"></path>
    <path d="M15.24 13.72h1.52v1.52h-1.52Z" fill="#000000" stroke-width="1"></path>
    <path d="m7.62 30.48 0 -1.52 -1.52 0 0 3.04 10.66 0 0 -3.04 -1.52 0 0 1.52 -7.62 0z" fill="#000000" stroke-width="1"></path>
    <path d="M12.19 13.72h1.52v3.05h-1.52Z" fill="#000000" stroke-width="1"></path>
    <path d="M10.67 16.77h1.52v1.52h-1.52Z" fill="#000000" stroke-width="1"></path>
    <path d="M9.14 18.29h1.53v3.05H9.14Z" fill="#000000" stroke-width="1"></path>
    <path d="M6.1 19.81h1.52v1.53H6.1Z" fill="#000000" stroke-width="1"></path>
    <path d="M6.1 13.72h1.52v1.52H6.1Z" fill="#000000" stroke-width="1"></path>
    <path d="M4.57 18.29H6.1v1.52H4.57Z" fill="#000000" stroke-width="1"></path>
    <path d="M4.57 15.24H6.1v1.53H4.57Z" fill="#000000" stroke-width="1"></path>
    <path d="M3.05 16.77h1.52v1.52H3.05Z" fill="#000000" stroke-width="1"></path>
  </g>
</svg>