<svg xmlns="http://www.w3.org/2000/svg" viewBox="0 0 14 14">
  <g>
    <path d="M10,11H4a1.5,1.5,0,0,0,0,3h6a1.5,1.5,0,0,0,0-3Z" style="fill: #000001"/>
    <g>
      <path d="M3.75.75a.76.76,0,0,0,.75.75h.25A.25.25,0,0,1,5,1.75v.7a1,1,0,0,1-.26.68,4.9,4.9,0,0,0-1.1,2.06.23.23,0,0,0,0,.21.24.24,0,0,0,.19.1H5.27a.23.23,0,0,0,.14,0l1.31-.88a.52.52,0,0,1,.56,0l1.31.88a.23.23,0,0,0,.14,0h1.39a.24.24,0,0,0,.19-.1.23.23,0,0,0,0-.21,4.9,4.9,0,0,0-1.1-2.06A1,1,0,0,1,9,2.45v-.7a.25.25,0,0,1,.25-.25H9.5a.76.76,0,0,0,.75-.75A.76.76,0,0,0,9.5,0h-5A.76.76,0,0,0,3.75.75Z" style="fill: #000001"/>
      <path d="M8.5,6.5a.54.54,0,0,1-.28-.08L7.14,5.69a.28.28,0,0,0-.28,0l-1.08.73a.54.54,0,0,1-.28.08H3.78a.25.25,0,0,0-.19.09.22.22,0,0,0-.06.19A3.2,3.2,0,0,0,7,9.5a3.2,3.2,0,0,0,3.47-2.72.22.22,0,0,0-.06-.19.25.25,0,0,0-.19-.09Z" style="fill: #000001"/>
    </g>
  </g>
</svg>
