<svg xmlns="http://www.w3.org/2000/svg" viewBox="0 0 14 14">
  <g>
    <path d="M12.33,2.62A3.47,3.47,0,0,0,10,1.47a3.62,3.62,0,0,0-1.52.2A3.29,3.29,0,0,0,5,.1a.75.75,0,0,0,.29,1.47,1.9,1.9,0,0,1,1.23.19A3.93,3.93,0,0,0,3.83,3.34a.75.75,0,0,0,.12,1,.76.76,0,0,0,.47.16A.77.77,0,0,0,5,4.27a2.61,2.61,0,0,1,1.32-1A7.6,7.6,0,0,0,5.12,7.12,5.44,5.44,0,0,0,2.39,8.58a.24.24,0,0,0-.05.29A.25.25,0,0,0,2.61,9L3,9a2.23,2.23,0,0,1,1.8.9.25.25,0,0,0,.4,0,2.25,2.25,0,0,1,3.6,0,.25.25,0,0,0,.4,0A2.24,2.24,0,0,1,10.51,9a.27.27,0,0,0,.19-.17.28.28,0,0,0-.06-.25A5.72,5.72,0,0,0,6.78,7H6.64A4.62,4.62,0,0,1,8.18,3.55a1.8,1.8,0,0,1,1.05,2.1.75.75,0,0,0,.66.83H10a.75.75,0,0,0,.75-.67A3.5,3.5,0,0,0,9.91,3a1.92,1.92,0,0,1,1.26.61.76.76,0,0,0,.58.27.78.78,0,0,0,.48-.17A.76.76,0,0,0,12.33,2.62Z" style="fill: #000001"/>
    <path d="M13.25,14H13a2.71,2.71,0,0,1-1.83-.71.27.27,0,0,0-.34,0,2.71,2.71,0,0,1-3.66,0,.27.27,0,0,0-.34,0,2.71,2.71,0,0,1-3.66,0,.27.27,0,0,0-.34,0A2.71,2.71,0,0,1,1,14H.75a.75.75,0,0,1,0-1.5H1a1.25,1.25,0,0,0,1.25-1.25.75.75,0,0,1,1.5,0,1.25,1.25,0,0,0,2.5,0,.75.75,0,1,1,1.5,0,1.25,1.25,0,0,0,2.5,0,.75.75,0,1,1,1.5,0A1.25,1.25,0,0,0,13,12.47h.25a.75.75,0,0,1,0,1.5Z" style="fill: #000001"/>
  </g>
</svg>
