<svg xmlns="http://www.w3.org/2000/svg" viewBox="0 0 14 14">
  <g>
    <path d="M14,10a4,4,0,0,1-4,4H8.5a4,4,0,0,1-4-4,1,1,0,0,1,2,0,2,2,0,0,0,2,2H10a2,2,0,0,0,2-2V1a1,1,0,0,1,2,0Z" style="fill: #000001"/>
    <path d="M11,5.75A2.75,2.75,0,0,1,8.25,8.5H7.5a.76.76,0,0,1-.62-.33L5.71,6.41a.27.27,0,0,0-.42,0L4.12,8.17a.76.76,0,0,1-.62.33H2.75A2.75,2.75,0,0,1,0,5.75v-2A2.75,2.75,0,0,1,2.75,1h5.5A2.75,2.75,0,0,1,11,3.75ZM7.83,6.89A.24.24,0,0,0,8,7h.21A1.25,1.25,0,0,0,9.5,5.75v-2A1.25,1.25,0,0,0,8.25,2.5H2.75A1.25,1.25,0,0,0,1.5,3.75v2A1.25,1.25,0,0,0,2.75,7H3a.24.24,0,0,0,.21-.11L4,5.58A1.76,1.76,0,0,1,7,5.58Z" style="fill: #000001"/>
  </g>
</svg>
