<svg xmlns="http://www.w3.org/2000/svg" fill="none" viewBox="0 0 24 24" id="Music-Note-Trebble-Clef--Streamline-Sharp">
  <desc>
    Music Note Trebble Clef Streamline Icon: https://streamlinehq.com
  </desc>
  <g id="music-note-trebble-clef--music-audio-note-trebble-clef-entertainment">
    <path id="Vector 1202" stroke="#4147d5" d="M6.5 20v0.5c0 1.1046 0.89543 2 2 2h1c1.1046 0 2 -0.8954 2 -2v-17c0 -1.10457 0.8954 -2 2 -2h1c1.1046 0 2 0.89543 2 2v1.20683c0 0.78702 -0.4616 1.50088 -1.1793 1.82384L7.67927 9.96933C6.96157 10.2923 6.5 11.0061 6.5 11.7932V15.5c0 1.1046 0.89543 2 2 2h6c1.1046 0 2 -0.8954 2 -2v-3" stroke-width="1.5"></path>
  </g>
</svg>