<svg xmlns="http://www.w3.org/2000/svg" fill="none" viewBox="0 0 24 24" id="Record-Player--Streamline-Sharp">
  <desc>
    Record Player Streamline Icon: https://streamlinehq.com
  </desc>
  <g id="record-player--music-audio-note-record-player-vinyl-disc-entertainment">
    <path id="Vector 1206" fill="#ffffff" d="M22 6h-4V1.5h4V6Z" stroke-width="1.5"></path>
    <path id="Ellipse 315" fill="#d7e0ff" d="M2 13.5c0 4.4183 3.58172 8 8 8 4.4183 0 8 -3.5817 8 -8 0 -4.41828 -3.5817 -8 -8 -8 -4.41828 0 -8 3.58172 -8 8Z" stroke-width="1.5"></path>
    <path id="Vector 1204" stroke="#4147d5" d="m15 14 5 -3V6" stroke-width="1.5"></path>
    <path id="Vector 1205" stroke="#4147d5" d="M22 6h-4V1.5h4V6Z" stroke-width="1.5"></path>
    <path id="Ellipse 313" stroke="#4147d5" d="M15 7.25463C13.6304 6.15672 11.8919 5.5 10 5.5c-4.41828 0 -8 3.58172 -8 8 0 4.4183 3.58172 8 8 8 3.5452 0 6.5518 -2.3061 7.6016 -5.5" stroke-width="1.5"></path>
    <path id="Vector 2949" stroke="#4147d5" d="M9.74951 13.7506v-0.5011h0.50109v0.5011h-0.50109Z" stroke-width="1.5"></path>
  </g>
</svg>