<svg xmlns="http://www.w3.org/2000/svg" fill="none" viewBox="0 0 24 24" id="Tune-Adjust-Volume--Streamline-Sharp">
  <desc>
    Tune Adjust Volume Streamline Icon: https://streamlinehq.com
  </desc>
  <g id="tune-adjust-volume">
    <path id="vector" fill="#d7e0ff" d="M11.9999 19.9217c3.8524 0 6.9755 -3.1231 6.9755 -6.9755 0 -3.85247 -3.1231 -6.9755 -6.9755 -6.9755 -3.85246 0 -6.97549 3.12303 -6.97549 6.9755 0 3.8524 3.12303 6.9755 6.97549 6.9755Z" stroke-width="1.5"></path>
    <path id="vector_2" stroke="#4147d5" d="M11.9999 19.9217c3.8524 0 6.9755 -3.1231 6.9755 -6.9755 0 -3.85247 -3.1231 -6.9755 -6.9755 -6.9755 -3.85246 0 -6.97549 3.12303 -6.97549 6.9755 0 3.8524 3.12303 6.9755 6.97549 6.9755Z" stroke-width="1.5"></path>
    <path id="Vector 2875" stroke="#4147d5" d="m1 12.9463 2 0" stroke-width="1.5"></path>
    <path id="Vector 2877" stroke="#4147d5" d="m4.22168 5.16797 1.41421 1.41421" stroke-width="1.5"></path>
    <path id="Vector 2879" stroke="#4147d5" d="m12 1.94629 0 2" stroke-width="1.5"></path>
    <path id="Vector 2881" stroke="#4147d5" d="m19.7783 5.16797 -1.4142 1.41421" stroke-width="1.5"></path>
    <path id="Vector 2876" stroke="#4147d5" d="m21 12.9463 2 0" stroke-width="1.5"></path>
    <path id="Vector 2878" stroke="#4147d5" d="m18.3638 19.3101 1.4142 1.4142" stroke-width="1.5"></path>
    <path id="Vector 2882" stroke="#4147d5" d="m5.63623 19.3101 -1.41421 1.4142" stroke-width="1.5"></path>
    <path id="vector 2002" stroke="#4147d5" d="m7.4527 17.683 3.537 -3.537" stroke-width="1.5"></path>
  </g>
</svg>