<svg xmlns="http://www.w3.org/2000/svg" fill="none" viewBox="0 0 14 14"><g id="alien--science-extraterristerial-life-form-space-universe-head-astronomy"><path id="Vector" stroke="#3e3e3e" stroke-linecap="round" stroke-linejoin="round" d="M13.5 5.5c0 3.59-2.95 8-6.5 8S.5 9.09.5 5.5 3.41.5 7 .5s6.5 1.41 6.5 5Z"></path><path id="Vector_2" stroke="#3e3e3e" stroke-linecap="round" stroke-linejoin="round" d="M2.75 4.75a3.12 3.12 0 0 0 .49 2.44 3.12 3.12 0 0 0 2.44.49 3.12 3.12 0 0 0-.49-2.44 3.12 3.12 0 0 0-2.44-.49Z"></path><path id="Vector_3" stroke="#3e3e3e" stroke-linecap="round" stroke-linejoin="round" d="M11.25 4.75a3.12 3.12 0 0 1-.49 2.44 3.12 3.12 0 0 1-2.44.49 3.12 3.12 0 0 1 .49-2.44 3.12 3.12 0 0 1 2.44-.49Z"></path></g></svg>