<svg xmlns="http://www.w3.org/2000/svg" fill="none" viewBox="0 0 14 14" id="Cat-1--Streamline-Core">
  <desc>
    Cat 1 Streamline Icon: https://streamlinehq.com
  </desc>
  <g id="cat-1--nature-head-cat-pet-animals-felyne">
    <g id="Group 2631">
      <path id="Vector" stroke="#000000" stroke-linecap="round" stroke-linejoin="round" d="M4.99988 7.25c-0.13807 0 -0.25 -0.11193 -0.25 -0.25s0.11193 -0.25 0.25 -0.25" stroke-width="1"></path>
      <path id="Vector_2" stroke="#000000" stroke-linecap="round" stroke-linejoin="round" d="M4.99988 7.25c0.13807 0 0.25 -0.11193 0.25 -0.25s-0.11193 -0.25 -0.25 -0.25" stroke-width="1"></path>
    </g>
    <g id="Group 4558">
      <path id="Vector_3" stroke="#000000" stroke-linecap="round" stroke-linejoin="round" d="M9.00012 7.25c-0.13807 0 -0.25 -0.11193 -0.25 -0.25s0.11193 -0.25 0.25 -0.25" stroke-width="1"></path>
      <path id="Vector_4" stroke="#000000" stroke-linecap="round" stroke-linejoin="round" d="M9.00012 7.25c0.13807 0 0.25 -0.11193 0.25 -0.25s-0.11193 -0.25 -0.25 -0.25" stroke-width="1"></path>
    </g>
    <path id="Vector 1637" stroke="#000000" stroke-linecap="round" stroke-linejoin="round" d="M4.5 13.2092c0.46322 0.1875 0.96955 0.2908 1.5 0.2908h2c0.53045 0 1.03678 -0.1033 1.5 -0.2908" stroke-width="1"></path>
    <path id="Vector 1642" stroke="#000000" stroke-linecap="round" stroke-linejoin="round" d="M2 7.5v-7l4.15298 3.05633" stroke-width="1"></path>
    <path id="Vector 1643" stroke="#000000" stroke-linecap="round" stroke-linejoin="round" d="M11.9999 7.5v-7L7.86047 3.55633" stroke-width="1"></path>
    <path id="Ellipse 731" stroke="#000000" stroke-linecap="round" stroke-linejoin="round" d="M4.01855 4.5c0.73243 -0.61375 1.79681 -1 2.98148 -1s2.24905 0.38625 2.98148 1" stroke-width="1"></path>
    <path id="Vector 1638" stroke="#000000" stroke-linecap="round" stroke-linejoin="round" d="M0.5 9.5H4" stroke-width="1"></path>
    <path id="Vector 1639" stroke="#000000" stroke-linecap="round" stroke-linejoin="round" d="M4 11.5 1 13" stroke-width="1"></path>
    <path id="Vector 1640" stroke="#000000" stroke-linecap="round" stroke-linejoin="round" d="M10 9.5h3.5" stroke-width="1"></path>
    <path id="Vector 1641" stroke="#000000" stroke-linecap="round" stroke-linejoin="round" d="m10 11.5 3 1.5" stroke-width="1"></path>
    <path id="Vector 1633" stroke="#000000" stroke-linecap="round" stroke-linejoin="round" d="M7.75 9.5h-1.5L7 10l0.75 -0.5Z" stroke-width="1"></path>
  </g>
</svg>