<svg xmlns="http://www.w3.org/2000/svg" fill="none" viewBox="0 0 14 14" id="Flower--Streamline-Core">
  <desc>
    Flower Streamline Icon: https://streamlinehq.com
  </desc>
  <g id="flower--nature-plant-tree-flower-petals-bloom">
    <path id="Vector" stroke="#000000" stroke-linecap="round" stroke-linejoin="round" d="M7 8.75002c0.82843 0 1.5 -0.6671 1.5 -1.49s-0.67157 -1.49 -1.5 -1.49 -1.5 0.6671 -1.5 1.49 0.67157 1.49 1.5 1.49Z" stroke-width="1"></path>
    <path id="Vector_2" stroke="#000000" stroke-linecap="round" stroke-linejoin="round" d="M13.37 5.33996c-0.2127 -0.64678 -0.6733 -1.18273 -1.2808 -1.49021 -0.6074 -0.30748 -1.3121 -0.36135 -1.9592 -0.14979 -0.23101 0.06546 -0.45034 0.16669 -0.65002 0.3 0.06464 -0.23119 0.09826 -0.46995 0.1 -0.71 0 -0.68426 -0.27182 -1.34049 -0.75566 -1.82433C8.34047 0.981782 7.68424 0.709961 6.99998 0.709961c-0.68426 0 -1.34049 0.271821 -1.82433 0.755669 -0.48385 0.48384 -0.75567 1.14007 -0.75567 1.82433 0.00174 0.24005 0.03537 0.47881 0.1 0.71 -0.19904 -0.13682 -0.4184 -0.24144 -0.65 -0.31 -0.31977 -0.1044 -0.65697 -0.1448 -0.99235 -0.11888 -0.33538 0.02592 -0.66237 0.11764 -0.9623 0.26993 -0.29994 0.15228 -0.56694 0.36216 -0.78576 0.61763 -0.218825 0.25548 -0.385186 0.55155 -0.489587 0.87132 -0.104401 0.31977 -0.144797 0.65697 -0.11888 0.99235 0.025916 0.33538 0.117637 0.66237 0.269925 0.96231 0.152288 0.29993 0.362162 0.56693 0.617632 0.78575 0.25548 0.21883 0.55155 0.38519 0.87132 0.48959 0.23422 0.06916 0.47601 0.10946 0.72 0.12 -0.18638 0.14948 -0.35423 0.3207 -0.5 0.51 -0.19909 0.27105 -0.34238 0.57895 -0.42154 0.90584 -0.07916 0.3268 -0.09261 0.6662 -0.03959 0.9983 0.05303 0.3321 0.17148 0.6504 0.34849 0.9363 0.17701 0.286 0.40904 0.534 0.68264 0.7296 0.55289 0.3995 1.24108 0.5648 1.91511 0.4599 0.67404 -0.1048 1.2795 -0.4713 1.68489 -1.0199 0.14068 -0.1961 0.25186 -0.4117 0.33 -0.64 0.08125 0.2289 0.19582 0.4445 0.34 0.64 0.4054 0.5486 1.01086 0.9151 1.68489 1.0199 0.67404 0.1049 1.36223 -0.0604 1.91513 -0.4599 0.2736 -0.1956 0.5056 -0.4436 0.6826 -0.7296 0.177 -0.2859 0.2955 -0.6042 0.3485 -0.9363 0.053 -0.3321 0.0396 -0.6715 -0.0396 -0.9983 -0.0791 -0.32689 -0.2224 -0.63479 -0.4215 -0.90584 -0.1458 -0.1893 -0.3136 -0.36052 -0.5 -0.51 0.2406 -0.01135 0.479 -0.05164 0.71 -0.12 0.3204 -0.10212 0.6174 -0.26662 0.874 -0.48401 0.2566 -0.21739 0.4676 -0.48338 0.621 -0.78267 0.1533 -0.29928 0.246 -0.62594 0.2726 -0.96118 0.0266 -0.33523 -0.0134 -0.67241 -0.1176 -0.99214v0Z" stroke-width="1"></path>
  </g>
</svg>