<svg xmlns="http://www.w3.org/2000/svg" fill="none" viewBox="0 0 14 14"><g id="industry-innovation-and-infrastructure"><path id="Vector 835" stroke="#3e3e3e" stroke-linecap="round" stroke-linejoin="round" d="M.65 11.694v-3.62l3.167-1.357 3.167 1.358v3.619L3.817 13.05.65 11.694Z"></path><path id="Vector 840" stroke="#3e3e3e" stroke-linecap="round" stroke-linejoin="round" d="m.65 8.067 3.167 1.357 3.167-1.357"></path><path id="Vector 841" stroke="#3e3e3e" stroke-linecap="round" stroke-linejoin="round" d="M3.817 3.122 6.983 4.48l3.167-1.357"></path><path id="Vector 842" stroke="#3e3e3e" stroke-linecap="round" stroke-linejoin="round" d="m6.983 8.067 3.167 1.357 3.167-1.357"></path><path id="Vector 839" stroke="#3e3e3e" stroke-linecap="round" stroke-linejoin="round" d="M3.819 6.715v-3.62l3.166-1.357 3.167 1.357v3.62L6.985 8.072 3.82 6.715Z"></path><path id="Vector 837" stroke="#3e3e3e" stroke-linecap="round" stroke-linejoin="round" d="M6.983 11.694v-3.62l3.167-1.357 3.167 1.358v3.619L10.15 13.05l-3.167-1.357Z"></path><path id="Vector 1218" stroke="#3e3e3e" stroke-linecap="round" stroke-linejoin="round" d="M3.817 9.426v3.625"></path><path id="Vector 1219" stroke="#3e3e3e" stroke-linecap="round" stroke-linejoin="round" d="M10.152 9.426v3.625"></path><path id="Vector 1220" stroke="#3e3e3e" stroke-linecap="round" stroke-linejoin="round" d="M6.983 4.48v3.624"></path></g></svg>