<svg xmlns="http://www.w3.org/2000/svg" fill="none" viewBox="0 0 14 14" id="Leaf--Streamline-Core">
  <desc>
    Leaf Streamline Icon: https://streamlinehq.com
  </desc>
  <g id="leaf--nature-environment-leaf-ecology-plant-plants-eco">
    <path id="Vector" stroke="#000000" stroke-linecap="round" stroke-linejoin="round" d="M11.5109 5.39149c2 2.81645 0.47 6.04241 -0.27 7.30081 -0.1085 0.176 -0.2543 0.3262 -0.427 0.4401 -0.1728 0.1138 -0.3683 0.1886 -0.573 0.219 -1.45003 0.2497 -5.06003 0.5294 -7.00003 -2.2871 -1.91 -2.65661 -1.83 -7.33071 -1.66 -9.5579 0.0067 -0.16593 0.05276 -0.3279 0.1344 -0.47258 0.08164 -0.144674 0.19651 -0.267918 0.33516 -0.359585 0.13865 -0.091668 0.29711 -0.149137 0.46235 -0.167678 0.16524 -0.018541 0.33253 0.002376 0.48809 0.06103 2.15 0.619223 6.63 2.167263 8.51003 4.823903Z" stroke-width="1"></path>
    <path id="Vector_2" stroke="#000000" stroke-linecap="round" stroke-linejoin="round" d="M4.77087 4.46265C7.0614 7.15851 9.07173 10.0798 10.7709 13.1816" stroke-width="1"></path>
  </g>
</svg>