<svg xmlns="http://www.w3.org/2000/svg" fill="none" viewBox="0 0 24 24" id="Amazon-Logo--Streamline-Logos">
  <desc>
    Amazon Logo Streamline Icon: https://streamlinehq.com
  </desc>
  <path stroke="#000000" stroke-linecap="round" stroke-linejoin="round" d="M1.5 16.5C3 17.667 7.2 20 12 20c4 0 7.667 -1.333 8.5 -2" stroke-width="1"></path>
  <path stroke="#000000" stroke-linecap="round" stroke-linejoin="round" d="M19.5 16.5h3l-1 3" stroke-width="1"></path>
  <path stroke="#000000" stroke-linecap="round" stroke-linejoin="round" d="M13.87 9.963s0.295 2.723 -0.988 3.7c-0.699 0.531 -1.572 0.457 -2.09 0 -0.624 -0.551 -0.79 -1.623 -0.276 -2.413 0.942 -1.448 3.354 -1.287 3.354 -1.287Z" clip-rule="evenodd" stroke-width="1"></path>
  <path stroke="#000000" stroke-linecap="round" stroke-linejoin="round" d="m17.998 14.772 -1.586 1.467a0.5 0.5 0 0 1 -0.687 -0.007l-1.057 -1.022a0.547 0.547 0 0 0 -0.723 -0.014c-0.721 0.587 -2.021 1.364 -3.43 1.364 -2.122 0 -3.855 -1.187 -3.855 -3.563 0 -2.375 1.48 -4.867 7.204 -4.867V6.747a1.574 1.574 0 0 0 -1.635 -1.343c-0.84 0 -1.39 0.405 -1.727 0.86a0.571 0.571 0 0 1 -0.544 0.242l-2.16 -0.363c-0.3 -0.051 -0.488 -0.36 -0.353 -0.634 0.606 -1.236 1.997 -2.54 4.784 -2.54 3.972 0 4.952 2.052 4.945 3.077v6.128c0 0.46 0.197 1.098 0.852 1.862a0.532 0.532 0 0 1 -0.027 0.736Z" stroke-width="1"></path>
</svg>