<svg xmlns="http://www.w3.org/2000/svg" fill="none" viewBox="0 0 24 24" id="Equalizer-Phone-Application-2--Streamline-Freehand">
  <desc>
    Equalizer Phone Application 2 Streamline Icon: https://streamlinehq.com
  </desc>
  <path fill="#020202" fill-rule="evenodd" d="M23.89 12.0118c0.0399 -0.7845 -0.0205 -1.5708 -0.18 -2.33999 -0.061 -0.37125 -0.1949 -0.72675 -0.394 -1.04599 -0.1991 -0.31923 -0.4594 -0.59589 -0.766 -0.81401 -0.1289 -0.06799 -0.2751 -0.09585 -0.42 -0.08 -0.2687 0.06701 -0.53 0.16081 -0.78 0.28l-2.17 1c-0.234 0.10874 -0.4553 0.24288 -0.66 0.4 -0.1306 0.11932 -0.2272 0.27115 -0.28 0.44 -0.0441 0.20429 -0.0441 0.41569 0 0.61999 0.07 0.26 0.21 0.56 0.25 0.74 0.16 0.66 0.43 1.61 0.65 2.5 -0.0942 -0.0305 -0.1914 -0.0506 -0.29 -0.06 -0.5083 0.1233 -0.9851 0.3515 -1.4 0.67 -0.1956 0.1773 -0.3493 0.3959 -0.45 0.64 -0.1096 0.2684 -0.1319 0.5646 -0.0637 0.8464 0.0682 0.2818 0.2235 0.535 0.4437 0.7236 0.2114 0.182 0.4638 0.3099 0.7356 0.3726 0.2718 0.0627 0.5547 0.0584 0.8244 -0.0126 0.373 -0.1176 0.7011 -0.3462 0.9406 -0.6554 0.2395 -0.3092 0.3788 -0.6841 0.3994 -1.0746 0 -0.3123 -0.0903 -0.6178 -0.26 -0.88l-0.41 -3.25c-0.13 -1.06999 -0.27 -0.67 0.15 -0.9l2.11 -0.99999s0.13 -0.17 0.26 -0.17c0.2945 0.26837 0.5062 0.61534 0.61 1 0.1204 0.41229 0.2073 0.83369 0.26 1.25999 -0.1413 -0.052 -0.2896 -0.0824 -0.44 -0.09 -0.1924 0.0405 -0.38 0.1008 -0.56 0.18 -0.3128 0.1058 -0.6016 0.2724 -0.85 0.49 -0.1943 0.1683 -0.3453 0.381 -0.44 0.62 -0.1034 0.2662 -0.1205 0.5582 -0.0487 0.8346s0.2288 0.5232 0.4487 0.7054c0.2096 0.1851 0.462 0.3149 0.7344 0.3778 0.2724 0.0629 0.5562 0.0567 0.8256 -0.0178 0.3658 -0.1156 0.6883 -0.3386 0.9255 -0.64 0.2372 -0.3014 0.3782 -0.6673 0.4045 -1.05 -0.0015 -0.2114 -0.0387 -0.421 -0.11 -0.62Zm-5.26 3.64c-0.0741 0.0197 -0.1516 0.0236 -0.2274 0.0116 -0.0758 -0.0121 -0.1482 -0.0399 -0.2126 -0.0816 -0.12 -0.09 -0.25 -0.19 -0.22 -0.35 0.0223 -0.1503 0.0845 -0.2919 0.18 -0.41 0.81 -0.94 1.1 0 1.11 0.07 0.0092 0.1826 -0.0504 0.3619 -0.167 0.5026 -0.1167 0.1408 -0.2819 0.2326 -0.463 0.2574Zm3.71 -2.53c-0.0753 0.024 -0.1551 0.0302 -0.2332 0.018 -0.0781 -0.0121 -0.1523 -0.0423 -0.2168 -0.088 -0.11 -0.08 -0.24 -0.18 -0.21 -0.35 0.0198 -0.151 0.0822 -0.2932 0.18 -0.41 0.82 -0.93 1.1 0 1.11 0.07 0.007 0.182 -0.0535 0.3602 -0.1697 0.5004 -0.1163 0.1402 -0.2801 0.2327 -0.4603 0.2596Z" clip-rule="evenodd" stroke-width="1"></path>
  <path fill="#020202" fill-rule="evenodd" d="M17.3901 4.73182c0.14 -0.56 0.21 -1.06 0.43 -1.88 0.06 -0.25 0.11 -0.58 0.18 -0.91l0.84 0.65c0.42 0.38 0.7 0.66 0.74 1 -0.0134 0.45223 -0.1672 0.88908 -0.44 1.25 -0.0277 0.04112 -0.0469 0.08738 -0.0564 0.13605 -0.0094 0.04867 -0.009 0.09874 0.0012 0.14724 0.0103 0.04851 0.0302 0.09446 0.0586 0.13512 0.0283 0.04066 0.0646 0.07521 0.1066 0.10159 0.0406 0.02913 0.0869 0.04948 0.1358 0.05974 0.0489 0.01027 0.0995 0.01022 0.1484 -0.00013 0.0489 -0.01034 0.0952 -0.03077 0.1357 -0.05997 0.0406 -0.02921 0.0747 -0.06655 0.1001 -0.10964 0.412 -0.4846 0.6481 -1.09427 0.67 -1.73 -0.0844 -0.65069 -0.409 -1.24634 -0.91 -1.67l-1.13 -0.990001 -0.32 -0.25c-0.1267 -0.079004 -0.277 -0.111252 -0.4249 -0.091165 -0.1479 0.020087 -0.2841 0.091246 -0.3851 0.201165 -0.1383 0.18877 -0.2463 0.397951 -0.32 0.620001 -0.15 0.39 -0.24 0.87 -0.34 1.18 -0.26 1 -0.33 1.5 -0.53 2.21 -0.07 0.25 -0.14 0.52 -0.25 0.84 0.0033 -0.08121 -0.0234 -0.16081 -0.075 -0.22355 -0.0517 -0.06274 -0.1247 -0.10421 -0.205 -0.11645 -0.1898 -0.01482 -0.3803 -0.01482 -0.57 0 -0.1892 -0.02472 -0.3808 -0.02472 -0.57 0 -0.2103 0.03006 -0.4109 0.10756 -0.5867 0.22662 -0.1759 0.11906 -0.3224 0.27656 -0.4283 0.46058 -0.106 0.18403 -0.1687 0.38975 -0.1835 0.6016 -0.0147 0.21185 0.019 0.42428 0.0985 0.6212 0.0489 0.21213 0.1401 0.41223 0.2681 0.58833 0.128 0.17609 0.2902 0.32458 0.4769 0.43659 0.1867 0.11201 0.394 0.18525 0.6096 0.21533 0.2157 0.03008 0.4351 0.01639 0.6454 -0.04025 0.4209 -0.16535 0.7735 -0.46851 1 -0.86 0.2819 -0.45684 0.5133 -0.94304 0.69 -1.45 0.19 -0.53 0.31 -0.93 0.39 -1.3Zm-2 2.13c-0.083 0.18243 -0.2189 0.33573 -0.39 0.44 -0.35 0.15 -0.65 -0.14 -0.77 -0.45 -0.0462 -0.07954 -0.0739 -0.16849 -0.0808 -0.26021 -0.007 -0.09172 0.0069 -0.18382 0.0405 -0.26942 0.0337 -0.0856 0.0863 -0.16248 0.1539 -0.22489 0.0675 -0.0624 0.1484 -0.10872 0.2364 -0.13548 0.1366 -0.04214 0.2774 -0.06897 0.42 -0.08 0.1465 -0.00988 0.2935 -0.00988 0.44 0 0.0637 0.0113 0.1293 0.00301 0.1882 -0.02377 0.059 -0.02678 0.1084 -0.07079 0.1418 -0.12623 -0.0988 0.39073 -0.2396 0.7696 -0.42 1.13h0.04Z" clip-rule="evenodd" stroke-width="1"></path>
  <path fill="#0c6fff" fill-rule="evenodd" d="M5.17005 9.65182c-0.19638 -0.01501 -0.39362 -0.01501 -0.59 0l-0.58 0.06c-1.69 0.31998 -1.64 0.49998 -1.64 0.66998 0 0.17 -0.14 0.52 1.91 0.55 0.30854 0.0032 0.61665 -0.0236 0.92 -0.08 1.53 -0.23 1.72 -0.32 1.72 -0.63 0 -0.30998 -0.16 -0.46998 -1.74 -0.56998Z" clip-rule="evenodd" stroke-width="1"></path>
  <path fill="#0c6fff" fill-rule="evenodd" d="M5.17005 11.9018c-0.19638 -0.015 -0.39361 -0.015 -0.59 0 -0.19461 0.0047 -0.38854 0.0248 -0.58 0.06 -1.69 0.32 -1.64 0.49 -1.64 0.66 0 0.17 -0.14 0.52 1.91 0.56 0.30808 -0.0068 0.61539 -0.0335 0.92 -0.08 1.53 -0.23 1.72 -0.33 1.72 -0.64s-0.16 -0.5 -1.74 -0.56Z" clip-rule="evenodd" stroke-width="1"></path>
  <path fill="#0c6fff" fill-rule="evenodd" d="M5.17005 14.1418c-0.19638 -0.015 -0.39362 -0.015 -0.59 0l-0.58 0.06c-1.69 0.32 -1.64 0.5 -1.64 0.67 0 0.17 -0.14 0.52 1.91 0.55 0.30854 0.0032 0.61665 -0.0236 0.92 -0.08 1.53 -0.22 1.72 -0.32 1.72 -0.63s-0.16 -0.47 -1.74 -0.57Z" clip-rule="evenodd" stroke-width="1"></path>
  <path fill="#0c6fff" fill-rule="evenodd" d="M11.37 14.1418c-0.193 -0.015 -0.387 -0.015 -0.58 0 -0.1943 0.0096 -0.3879 0.0296 -0.58 0.06 -1.68999 0.32 -1.63999 0.5 -1.63999 0.67 0 0.17 -0.13 0.52 1.91999 0.55 0.3052 0.0032 0.61 -0.0236 0.91 -0.08 1.53 -0.22 1.73 -0.32 1.73 -0.63s-0.13 -0.47 -1.76 -0.57Z" clip-rule="evenodd" stroke-width="1"></path>
  <path fill="#0c6fff" fill-rule="evenodd" d="M5.16994 16.3918c-0.19638 -0.015 -0.39362 -0.015 -0.59 0 -0.19152 0.0085 -0.3821 0.0319 -0.57 0.07 -1.69 0.32 -1.64 0.49 -1.64 0.66 0 0.17 -0.14 0.52 1.91 0.56 0.30807 -0.0068 0.61538 -0.0335 0.92 -0.08 1.53 -0.23 1.72 -0.33 1.72 -0.64s-0.17 -0.48 -1.75 -0.57Z" clip-rule="evenodd" stroke-width="1"></path>
  <path fill="#0c6fff" fill-rule="evenodd" d="M11.37 16.3918c-0.193 -0.0151 -0.387 -0.0151 -0.58 0 -0.1949 0.0079 -0.3888 0.0313 -0.58 0.07 -1.68999 0.32 -1.63999 0.49 -1.63999 0.66 0 0.17 -0.13 0.52 1.91999 0.56 0.3048 -0.0068 0.6087 -0.0335 0.91 -0.08 1.53 -0.23 1.73 -0.33 1.73 -0.64s-0.13 -0.48 -1.76 -0.57Z" clip-rule="evenodd" stroke-width="1"></path>
  <path fill="#020202" fill-rule="evenodd" d="M14.57 9.6718c-0.0434 0.00255 -0.0858 0.01364 -0.1249 0.03262 -0.039 0.01898 -0.074 0.0455 -0.1028 0.07801 -0.0288 0.03252 -0.0509 0.0704 -0.065 0.11148 -0.0141 0.04108 -0.02 0.08454 -0.0173 0.12789l-0.26 6.94c0 1.2 -0.1 2.41 -0.12 3.63 0 0.63 0 1.25 0.06 1.88 -1.45 0.08 -2.9 0.15 -4.35 0.2 -1.45 0.05 -3 0.06 -4.5 0 -0.76857 0.0102 -1.5361 -0.0602 -2.29 -0.21 -0.43465 -0.0858 -0.83854 -0.286 -1.17 -0.58 -0.07693 -0.0975 -0.12228 -0.2161 -0.13 -0.34 0 -0.24 -0.05 -0.5 -0.09 -0.72 -0.07308 -0.507 -0.11648 -1.0179 -0.13 -1.53v-2.38l-0.07 -8.95c0 -1.54 0.09 -3.07 0.1 -4.6v-2c0.36 0 0.73 0.08 1.09 0.09h0.83c-0.04462 0.05418 -0.07243 0.12023 -0.08 0.19 -0.037 0.38287 0.02656 0.76876 0.1844 1.11952 0.15785 0.35077 0.40451 0.65427 0.7156 0.88048 0.92716 0.53382 1.98019 0.81003 3.05 0.8 0.6042 0.01385 1.20868 -0.00953 1.81 -0.07 0.67079 -0.06485 1.3159 -0.29131 1.88 -0.66 0.3416 -0.25981 0.6255 -0.58773 0.8338 -0.96299 0.2083 -0.37525 0.3364 -0.78967 0.3762 -1.21701 0.0347 -0.09011 0.0347 -0.18988 0 -0.28 0.232 -0.03157 0.4658 -0.04828 0.7 -0.05 0.5203 -0.0709 1.0497 0.02725 1.51 0.28 0.1 0.08 0.06 0.28 0.06 0.48 0 0.2 -0.05 0.7 -0.05 0.89 0 0.10079 0.04 0.19744 0.1113 0.2687 0.0713 0.07127 0.1679 0.1113 0.2687 0.1113s0.1974 -0.04003 0.2687 -0.1113c0.0713 -0.07126 0.1113 -0.16791 0.1113 -0.2687 0.0679 -0.42358 0.108 -0.85116 0.12 -1.28 -0.002 -0.29747 -0.1163 -0.583198 -0.32 -0.799996 -0.4605 -0.340138 -1.0088 -0.541392 -1.58 -0.58 -1.1209 -0.058122 -2.2446 -0.024677 -3.36 0.1l-4.71 0.11c-1.13 0.09 -2.13 0.3 -3.24 0.3C0.37 0.711804 0.71 0.0118039 0.57 3.3818c-0.08 1.58 -0.24 3.06 -0.33 4.58 -0.09 1.52 -0.14 3 -0.17 4.48 -0.03 1.48 -0.07 2.98 -0.07 4.52v2.44c0.0264207 0.5593 0.0831707 1.1168 0.17 1.67 0.029651 0.3937 0.103447 0.7828 0.22 1.16 0.080013 0.2366 0.217449 0.4496 0.4 0.62 0.50128 0.4162 1.09996 0.6983 1.74 0.82 0.84553 0.1413 1.70376 0.1916 2.56 0.15 1.22 0 2.42 -0.06 3.64 -0.14 7.33 -0.43 5.8 0.49 6.08 -2.4 0.12 -1.41 0.33 -2.82 0.45 -4.22 0 -0.94 0.05 -1.89 0 -2.82 -0.06 -1.41 -0.22 -2.8 -0.36 -4.2 0.0029 -0.09221 -0.0298 -0.18201 -0.0912 -0.25086 -0.0614 -0.06885 -0.1469 -0.11149 -0.2388 -0.11914Zm-9.41 -8.14c0.94 0 1.88 0.07 2.83 0.08 0.64 0 1.28 0 1.94 -0.07 0.35 0 0.85 -0.13 1.4 -0.21 -0.0502 0.33906 -0.1772 0.66216 -0.3713 0.94466 -0.1941 0.28249 -0.4502 0.5169 -0.7487 0.68534 -0.45622 0.20396 -0.95027 0.30959 -1.45 0.31H5.98c-0.50022 0.00428 -0.99526 -0.10156 -1.45 -0.31 -0.22414 -0.12113 -0.41185 -0.29995 -0.54371 -0.51795 -0.13186 -0.21801 -0.20308 -0.46729 -0.20629 -0.72205 -0.00757 -0.06977 -0.03538 -0.13582 -0.08 -0.19h1.46Z" clip-rule="evenodd" stroke-width="1"></path>
</svg>