<svg xmlns="http://www.w3.org/2000/svg" fill="none" viewBox="0 0 24 24" id="Music-Note-Circle-Block-1--Streamline-Freehand">
  <desc>
    Music Note Circle Block 1 Streamline Icon: https://streamlinehq.com
  </desc>
  <path fill="#020202" d="M15.9965 9.26541c0 0.26984 0 0.53968 0.1199 0.88949 0.0132 0.0739 0.052 0.1407 0.1095 0.1889 0.0576 0.0482 0.1302 0.0746 0.2053 0.0746 0.075 0 0.1477 -0.0264 0.2053 -0.0746 0.0575 -0.0482 0.0963 -0.115 0.1095 -0.1889 0.0704 -0.32907 0.1138 -0.66331 0.1299 -0.99942 0.0008 -0.19412 -0.0437 -0.38574 -0.1299 -0.55967 -0.2099 -0.37978 -0.8295 0.01999 -0.7495 0.6696Z" stroke-width="1"></path>
  <path fill="#0c6fff" d="M22.063 5.68751c-0.4108 -0.58859 -0.8759 -1.13734 -1.3892 -1.63902 -0.0287 -0.03198 -0.0625 -0.05899 -0.0999 -0.07996 -1.0446 -1.00112 -2.2805 -1.78095 -3.6338 -2.29272 -1.3533 -0.51177 -2.796 -0.74494 -4.2416 -0.685512 -0.046 -0.008235 -0.0933 -0.006273 -0.1385 0.005747 -0.0452 0.012025 -0.0872 0.033805 -0.1231 0.063825 -0.0358 0.03001 -0.0647 0.06753 -0.0845 0.1099 -0.0197 0.04238 -0.03 0.08857 -0.03 0.13534 0 0.04677 0.0103 0.09297 0.03 0.13534 0.0198 0.04237 0.0487 0.07989 0.0845 0.1099 0.0359 0.03002 0.0779 0.05181 0.1231 0.06383 0.0452 0.01202 0.0925 0.01398 0.1385 0.00574 2.6173 -0.06634 5.158 0.88687 7.0858 2.65843 -3.7278 2.80257 -7.3009 5.80515 -10.70364 8.99465 -1.27924 1.2293 -2.57847 2.4186 -3.85771 3.6279 -0.73957 0.6996 -1.45914 1.3991 -2.17871 2.1087C1.62555 17.1824 0.871252 14.9265 0.905504 12.6134 0.893391 9.72818 1.96317 6.9432 3.90373 4.80804 5.82133 2.6142 8.48549 1.21088 11.3793 0.870369c0.0733 -0.009982 0.1401 -0.047634 0.1865 -0.10524 0.0465 -0.057605 0.0691 -0.130799 0.0634 -0.204577 -0.01 -0.073327 -0.0477 -0.140059 -0.1053 -0.186515 -0.0576 -0.046456 -0.1308 -0.069117 -0.2046 -0.063337 -3.04719 0.309579 -5.8729 1.73311 -7.93526 3.99763C1.26033 6.56168 0.0555038 9.5274 0.00603662 12.6234 -0.0439701 14.118 0.217155 15.6067 0.772851 16.9951c0.555699 1.3884 1.393839 2.6462 2.461269 3.6935 2.25522 1.9982 5.18287 3.0693 8.19518 2.9983 2.4503 -0.0084 4.8456 -0.727 6.8959 -2.0688 2.063 -1.3056 3.7047 -3.1798 4.7272 -5.3968 0.7638 -1.6906 1.0743 -3.551 0.9008 -5.398 -0.1735 -1.84699 -0.825 -3.617 -1.8902 -5.13579Zm0.1199 10.10399c-0.9773 2.0273 -2.5133 3.7333 -4.4274 4.9171 -1.8796 1.2155 -4.0679 1.8675 -6.3062 1.8789 -2.73961 0.0967 -5.41646 -0.8336 -7.5056 -2.6085 -0.17989 -0.1599 -0.33979 -0.3397 -0.4997 -0.5096 0.55967 -0.4898 1.07936 -1.0095 1.61904 -1.4892 1.57907 -1.3392 3.16812 -2.6484 4.74719 -3.9976C19.1147 5.5476 19.7144 5.17782 20.284 4.71809c0.4138 0.43232 0.7884 0.90055 1.1194 1.39917 0.9583 1.40622 1.5341 3.03767 1.6708 4.73394 0.1367 1.6962 -0.1705 3.3988 -0.8913 4.9403Z" stroke-width="1"></path>
  <path fill="#020202" d="M12.3087 14.3824c0.2322 0.8487 0.3729 1.7198 0.4198 2.5985 0.0468 0.4823 -0.0655 0.9667 -0.3199 1.3792 -0.1341 0.1525 -0.2973 0.2768 -0.48 0.3655 -0.1827 0.0888 -0.3813 0.1403 -0.5842 0.1514 -0.2028 0.0112 -0.4058 -0.0182 -0.5972 -0.0863 -0.1913 -0.0682 -0.3672 -0.1738 -0.5173 -0.3107 -0.1899 -0.0912 -0.3559 -0.2257 -0.48454 -0.3926 -0.12865 -0.1669 -0.21641 -0.3617 -0.25624 -0.5686 -0.03984 -0.207 -0.03064 -0.4204 0.02685 -0.6231 0.05749 -0.2028 0.16168 -0.3892 0.30421 -0.5445 0.23022 -0.2356 0.51522 -0.4107 0.82952 -0.5097 0.3026 -0.1177 0.6344 -0.1387 0.9494 -0.0599 0.0388 0.0193 0.0816 0.0293 0.1249 0.0292 0.0433 0 0.0861 -0.0101 0.1248 -0.0295 0.0388 -0.0194 0.0725 -0.0475 0.0986 -0.0821 0.026 -0.0347 0.0436 -0.0749 0.0515 -0.1175 0.0145 -0.0347 0.0218 -0.072 0.0216 -0.1096 -0.0003 -0.0376 -0.0081 -0.0747 -0.023 -0.1093 -0.0149 -0.0345 -0.0367 -0.0656 -0.0639 -0.0916 -0.0272 -0.0259 -0.0594 -0.0461 -0.0946 -0.0593 -0.4352 -0.1413 -0.904 -0.1413 -1.3392 0 -0.4424 0.1028 -0.85159 0.316 -1.18932 0.6197 -0.25067 0.227 -0.44451 0.5097 -0.56587 0.8254 -0.12136 0.3156 -0.16686 0.6554 -0.13282 0.9919 0.03404 0.3365 0.14666 0.6602 0.32878 0.9452 0.18212 0.285 0.42864 0.5232 0.7197 0.6954 0.2568 0.2196 0.55473 0.386 0.87643 0.4894 0.3217 0.1034 0.6607 0.1418 0.9974 0.113 0.3366 -0.0289 0.6642 -0.1244 0.9636 -0.281 0.2994 -0.1566 0.5647 -0.3711 0.7804 -0.6312 0.3775 -0.6124 0.536 -1.3347 0.4498 -2.0488 -0.1047 -0.9264 -0.3126 -1.8382 -0.6197 -2.7184 -0.1884 -0.5989 -0.412 -1.1863 -0.6696 -1.7589 -0.1399 -0.3598 -0.7295 0 -0.5197 0.4897 0.1672 0.4688 0.2976 0.95 0.3898 1.4391Z" stroke-width="1"></path>
  <path fill="#020202" d="M12.0789 6.24718c0.3398 0 0.6796 0.06996 0.9994 0.12992l1.5491 0.43974c0.0752 0.01277 0.1526 -0.0018 0.218 -0.04108 0.0655 -0.03928 0.1147 -0.10067 0.1389 -0.17309 0.0241 -0.07242 0.0215 -0.15108 -0.0073 -0.22177 -0.0288 -0.0707 -0.0819 -0.12876 -0.1498 -0.1637l-1.569 -0.63962c-0.4298 -0.11993 -0.8695 -0.22987 -1.3092 -0.30982 -0.4398 -0.07995 -0.8895 -0.13992 -1.3293 -0.19988h-0.69955c-0.14765 -0.00077 -0.29102 0.04957 -0.40578 0.14247 -0.11477 0.0929 -0.19385 0.22265 -0.22384 0.36723 0.03456 0.48223 0.13892 0.9569 0.30981 1.40916 0.35979 1.05938 0.99946 2.31863 1.20926 2.8683 0.0255 0.0681 0.0765 0.1236 0.1423 0.15476 0.0657 0.0311 0.1409 0.0355 0.2098 0.0121 0.0688 -0.02341 0.1259 -0.07268 0.159 -0.1374 0.0332 -0.06472 0.0399 -0.1398 0.0186 -0.20935 -0.1299 -0.48971 -0.4397 -1.55908 -0.6896 -2.5385 -0.0899 -0.36978 -0.1799 -0.71957 -0.2298 -0.9994h0.1199c0.5097 0.01998 1.0294 0.05996 1.5391 0.10993Z" stroke-width="1"></path>
</svg>