<svg xmlns="http://www.w3.org/2000/svg" fill="none" viewBox="0 0 24 24" id="Music-Metronome--Streamline-Freehand">
  <desc>
    Music Metronome Streamline Icon: https://streamlinehq.com
  </desc>
  <path fill="#0c6fff" fill-rule="evenodd" d="M8.74723 6.53942c0.4848 -0.099 0.96192 -0.23246 1.42777 -0.39936 0.06 -0.03608 0.1111 -0.08542 0.1492 -0.14426 0.038 -0.05884 0.0621 -0.12561 0.0704 -0.19521 0.0073 -0.06378 -0.0016 -0.12839 -0.0261 -0.18776 -0.0244 -0.05937 -0.0635 -0.11156 -0.1137 -0.1517 -0.1397 -0.13978 0.1198 -0.06989 -1.70726 0 -0.39769 0.00915 -0.79447 0.04249 -1.18811 0.09985 -0.78875 0.09984 -0.7588 0.58906 -0.27956 0.89857 0.53995 0.16798 1.11382 0.19547 1.66736 0.07987Z" clip-rule="evenodd" stroke-width="1"></path>
  <path fill="#0c6fff" fill-rule="evenodd" d="M9.98523 3.45433c0.99847 -0.51917 -0.72884 -1.07829 -1.86703 -0.79873 -0.86862 0.13978 -0.7588 0.84865 -0.27956 0.91854 0.71507 0.1282 1.45023 0.08717 2.14659 -0.11981Z" clip-rule="evenodd" stroke-width="1"></path>
  <path fill="#0c6fff" fill-rule="evenodd" d="M7.71891 9.56465c0.64897 -0.08986 1.26798 -0.29953 1.89699 -0.36942 0.09003 0 0.17637 -0.03576 0.24003 -0.09942s0.09943 -0.15001 0.09943 -0.24004 -0.03577 -0.17637 -0.09943 -0.24003 -0.15 -0.09943 -0.24003 -0.09943c-1.05573 -0.10484 -2.11924 -0.10484 -3.17497 0 -0.80871 0.11981 -0.80871 0.8187 -0.28954 0.92853 0.50526 0.16544 1.04298 0.20654 1.56752 0.11981Z" clip-rule="evenodd" stroke-width="1"></path>
  <path fill="#0c6fff" fill-rule="evenodd" d="M10.8239 11.7711c-0.1498 -0.3294 -0.1598 -0.1697 -1.83713 -0.2895 -1.16784 -0.1949 -2.36646 -0.0778 -3.47448 0.3395 -0.72885 0.2595 -0.80872 0.7787 -0.27956 0.9085 4.80237 -0.3594 5.84077 -0.3594 5.59117 -0.9585Z" clip-rule="evenodd" stroke-width="1"></path>
  <path fill="#020202" fill-rule="evenodd" d="M21.4571 3.50422c-0.3676 -0.55829 -0.8825 -1.00404 -1.4877 -1.28795 -0.0398 -0.02896 -0.0855 -0.04889 -0.1339 -0.05841 -0.0483 -0.00952 -0.0982 -0.00839 -0.1461 0.0033 -0.0478 0.01169 -0.0926 0.03367 -0.1311 0.0644 -0.0386 0.03073 -0.0699 0.06948 -0.092 0.11356 -0.022 0.04408 -0.0342 0.09243 -0.0357 0.14169 -0.0014 0.04926 0.0079 0.09825 0.0272 0.14356 0.0194 0.04532 0.0484 0.08587 0.085 0.11885 0.0367 0.03297 0.08 0.05757 0.1271 0.0721 0.3757 0.21387 0.6943 0.51527 0.9285 0.8786 0.1512 0.18283 0.2526 0.4016 0.2945 0.63512 0.0418 0.23352 0.0226 0.47389 -0.0557 0.69782 -0.0783 0.22394 -0.2132 0.42386 -0.3914 0.5804 -0.1783 0.15654 -0.3939 0.2644 -0.6261 0.31313 -0.3827 0.16328 -0.8069 0.20295 -1.2132 0.11345 -0.4063 -0.08951 -0.7746 -0.3037 -1.0532 -0.61266 -0.1748 -0.11552 -0.3133 -0.27823 -0.3994 -0.46925 -0.3095 -0.89858 0.8087 -2.27639 1.6973 -2.47607 0.0735 -0.01804 0.1374 -0.06322 0.179 -0.12647 0.0415 -0.06325 0.0576 -0.13987 0.045 -0.21448 -0.0127 -0.07461 -0.0531 -0.14167 -0.1132 -0.1877 -0.06 -0.04602 -0.1353 -0.06761 -0.2106 -0.06042 -1.5675 0.22964 -3.5444 2.54596 -2.0967 4.12346 -1.5958 1.72866 -2.9831 3.63873 -4.1334 5.69095 -0.5753 0.9098 -1.0889 1.8571 -1.5376 2.8355 -2.2065 0.0699 -1.72726 0.2396 -6.98891 0.6091 0.15974 -1.3779 2.52599 -9.55489 3.29477 -12.3205C7.98845 0.588851 8.90699 0.878391 10.2648 0.868407c3.4346 -0.059905 2.7656 0.449283 3.2948 1.467673 0.5486 1.23282 0.8862 2.5491 0.9984 3.89382 0.0184 0.06981 0.0615 0.13062 0.1212 0.17123 0.0597 0.04062 0.132 0.0583 0.2037 0.04979 0.0717 -0.00851 0.1379 -0.04263 0.1865 -0.09608 0.0485 -0.05346 0.0761 -0.12264 0.0777 -0.19483 -0.0873 -1.42581 -0.4147 -2.82664 -0.9685 -4.14342 -0.2995 -0.60904 -0.2296 -1.178135 -0.9984 -1.557533 -0.9295 -0.352077 -1.9234 -0.5018431 -2.9154 -0.4393033 -0.78871 0 -1.76716 -0.1597467 -2.37619 0.4293193C6.80033 1.50739 6.59067 3.19472 6.08148 4.44274 5.51238 5.94036 4.9333 7.45795 4.43409 9.0055c-0.05991 0.16973 -1.11823 3.6442 -0.99842 3.7241 -1.26798 5.4414 -2.06672 6.9889 -0.06989 8.0372 0.00788 0.1564 0.00788 0.313 0 0.4693 -0.09984 0.9984 -0.33946 2.2364 0.6989 2.526 0.58906 0.1597 1.74722 0.5291 2.0767 -0.1897 0.07133 -0.2189 0.10179 -0.449 0.08986 -0.6789 0 -0.5092 0.08985 -0.7289 0.13978 -1.5276 2.69411 0.208 5.40188 0.1612 8.08718 -0.1398 -0.0112 0.2029 -0.0112 0.4062 0 0.609 0 0.5891 -0.2696 1.3579 0.4393 1.7972 0.5382 0.1737 1.102 0.2548 1.6673 0.2396 0.1861 0.0074 0.3715 -0.0254 0.5438 -0.096 0.1723 -0.0706 0.3273 -0.1775 0.4547 -0.3133 0.1043 -0.1893 0.1561 -0.403 0.1497 -0.6191 -0.0397 -0.6058 -0.1606 -1.2035 -0.3594 -1.7771 2.3263 -0.0899 1.5076 -1.6075 -0.6789 -8.4666 -0.2696 -0.8387 -0.3095 -1.1582 -0.659 -1.1282 -0.0748 0.0071 -0.1453 0.0382 -0.201 0.0885 -0.0558 0.0504 -0.0938 0.1174 -0.1085 0.191 0.1925 0.9991 0.4664 1.9808 0.8187 2.9354l-4.8024 -0.1498c0.8287 -1.268 -0.5591 0.9984 5.4514 -7.98731l0.4892 0.32948c2.0667 1.23804 5.3016 -0.97845 3.794 -3.37465ZM5.22284 22.7637s-0.05991 0.1298 -0.07988 0.1996c-0.99841 -0.2096 -0.8786 -0.4393 -0.93851 -0.8087 -0.05485 -0.3671 -0.08818 -0.7372 -0.09984 -1.1082 0.49191 0.1202 0.99276 0.2004 1.49763 0.2396 -0.13978 0.619 -0.27956 0.9785 -0.3794 1.4777Zm11.51176 0.0599c-0.1797 0 -1.2281 -0.1398 -1.268 -0.1099 -0.1401 -0.5123 -0.2501 -1.0323 -0.3295 -1.5575 0.5368 -0.0631 1.077 -0.0931 1.6174 -0.0898 -0.1098 0.2396 0.1498 1.4077 -0.0199 1.7572Zm0 -7.5381c0.5097 1.5637 0.8904 3.1665 1.1382 4.7924 -0.4593 -0.2895 -4.7026 0.7888 -11.33205 0.1797 -1.05832 -0.0998 -2.43614 -0.1198 -3.17497 -0.8686 -0.35943 -0.3594 0.3794 -3.155 0.48923 -3.5743 2.22467 0.1966 4.46405 0.1531 6.67939 -0.1298 2.496 -0.2197 5.8308 -0.1198 6.1702 -0.3994h0.03Z" clip-rule="evenodd" stroke-width="1"></path>
</svg>