<svg xmlns="http://www.w3.org/2000/svg" fill="none" viewBox="0 0 24 24" id="Podcast-Microphone-International-1--Streamline-Freehand">
  <desc>
    Podcast Microphone International 1 Streamline Icon: https://streamlinehq.com
  </desc>
  <path fill="#020202" fill-rule="evenodd" d="M10.4298 13.6606c-0.0045 0.5522 -0.0649 1.1025 -0.1803 1.6425 -0.48071 -0.0901 -0.64095 -0.5007 -1.56234 -0.0901 0.15843 -0.6789 0.20913 -1.3785 0.15023 -2.0732 -0.07011 -1.342 -0.2003 -2.5638 -1.22185 -3.43514 -0.06805 -0.04517 -0.15007 -0.06437 -0.2311 -0.05411 -0.08103 0.01027 -0.15567 0.04931 -0.2103 0.11002 -0.05464 0.06071 -0.08564 0.13904 -0.08734 0.2207 -0.0017 0.08163 0.026 0.16123 0.07806 0.22413 0.33788 0.4045 0.58585 0.8762 0.72745 1.3839 0.14159 0.5076 0.17356 1.0396 0.09379 1.5606 0.04721 0.8517 -0.12885 1.7009 -0.51077 2.4637 -0.21055 0.3778 -0.53454 0.68 -0.92617 0.8636 -0.39164 0.1837 -0.83109 0.2396 -1.25625 0.1599 -0.42515 -0.0797 -0.8145 -0.291 -1.11299 -0.6041 -0.29849 -0.3131 -0.49103 -0.712 -0.55039 -1.1405 0.67793 0.2115 1.40885 0.176 2.06311 -0.1002 0.07941 -0.0191 0.14931 -0.0661 0.19694 -0.1324 0.04763 -0.0664 0.06983 -0.1476 0.06255 -0.229 -0.00729 -0.0813 -0.04357 -0.1574 -0.10224 -0.2142 -0.05866 -0.0568 -0.1358 -0.0907 -0.21734 -0.0954 -0.34051 0 -0.65098 -0.1702 -1.00151 -0.2103 -0.2366 -0.0201 -0.47448 -0.0201 -0.71107 0l-0.44067 0.1102c-0.05058 -0.5196 -0.05058 -1.0428 0 -1.5624 0.85129 0.2404 0.93141 0.1803 2.00302 -0.1402 0.07904 -0.0137 0.15071 -0.0549 0.20236 -0.1163 0.05165 -0.0613 0.07997 -0.139 0.07997 -0.2192s-0.02832 -0.1579 -0.07997 -0.2192c-0.05165 -0.0614 -0.12332 -0.1026 -0.20236 -0.1163 -0.58659 -0.1832 -1.20953 -0.2176 -1.81273 -0.1002 0.02273 -0.275 0.10204 -0.5423 0.23297 -0.7853 0.13092 -0.2429 0.31062 -0.4561 0.52784 -0.6263 0.21722 -0.17023 0.46727 -0.29371 0.73445 -0.36273 0.26719 -0.06902 0.54576 -0.08208 0.81823 -0.03837 0.07703 0.02125 0.15934 0.01103 0.22884 -0.02841 0.06949 -0.03944 0.12047 -0.10488 0.14172 -0.1819 0.02125 -0.07703 0.01103 -0.15935 -0.02841 -0.22884 -0.03945 -0.0695 -0.10488 -0.12047 -0.18191 -0.14172 -0.63884 -0.16243 -1.31492 -0.08771 -1.90287 0.21031 -0.59714 0.30663 -1.05022 0.83526 -1.26191 1.47226 -0.49757 1.4023 -0.63531 2.9072 -0.4006 4.3766 -0.90136 -0.3305 -1.00151 -0.0601 -1.652495 0.1302 -0.065438 -0.2539 -0.115603 -0.5114 -0.150227 -0.7712 -0.012765 -0.069 -0.049304 -0.1314 -0.103274 -0.1763 -0.05397 -0.0449 -0.121963 -0.0695 -0.192172 -0.0695 -0.070209 0 -0.138201 0.0246 -0.192171 0.0695 -0.05397 0.0449 -0.09051 0.1073 -0.103275 0.1763 0.200303 3.1247 1.512284 4.8173 4.807254 5.4983 -0.19707 0.9249 -0.16613 1.8839 0.09014 2.7942 -0.75939 0.0085 -1.51665 0.0822 -2.26342 0.2204 -0.18172 0.0036 -0.36273 0.0237 -0.54081 0.06 -0.06144 0.0154 -0.11717 0.0481 -0.16057 0.0942 -0.0434 0.0461 -0.07264 0.1037 -0.08424 0.1659 -0.01161 0.0623 -0.00509 0.1265 0.01878 0.1852 0.02387 0.0586 0.06408 0.1092 0.11586 0.1456 0.09014 0.0802 2.22336 0.2003 2.30348 0.2104 1.49086 0.1334 2.99354 0.0183 4.44671 -0.3406 0.04258 -0.042 0.07331 -0.0946 0.08911 -0.1523 0.01579 -0.0578 0.01609 -0.1186 0.00085 -0.1765 -0.01523 -0.0579 -0.04545 -0.1108 -0.08762 -0.1533 -0.04217 -0.0424 -0.09479 -0.0731 -0.15257 -0.0887 -1.00192 0.0464 -2.00586 0.0229 -3.00453 -0.0701 0.09525 -0.3997 0.1688 -0.8042 0.22033 -1.2119 0 -0.3004 -0.06009 -1.362 -0.08012 -1.5122 3.4452 0.2203 5.45824 -2.9144 5.20784 -6.6 -0.0013 -0.0447 -0.0114 -0.0887 -0.0297 -0.1295 -0.0184 -0.0409 -0.0445 -0.0777 -0.0771 -0.1083 -0.0325 -0.0307 -0.0708 -0.0547 -0.1126 -0.0706 -0.0419 -0.0159 -0.0864 -0.0234 -0.1311 -0.0221 -0.0447 0.0013 -0.0887 0.0114 -0.1296 0.0298 -0.0408 0.0183 -0.0776 0.0445 -0.1083 0.077 -0.0306 0.0326 -0.0546 0.0708 -0.0705 0.1127 -0.0159 0.0418 -0.0234 0.0863 -0.0221 0.131Zm-4.77722 5.4282c-1.10895 -0.1149 -2.18261 -0.4557 -3.15476 -1.0015 -0.52684 -0.381 -0.94185 -0.8963 -1.20182 -1.4922 -0.07719 -0.1865 -0.14406 -0.3771 -0.2003 -0.5709 0.60091 0.1803 0.40061 0.3806 1.68254 0 0.2206 0.5765 0.61342 1.0711 1.12503 1.4165 0.5116 0.3453 1.11717 0.5247 1.73435 0.5138 0.61717 -0.0109 1.216 -0.2117 1.71504 -0.575 0.49905 -0.3633 0.87408 -0.8715 1.07411 -1.4555 0.2248 0.172 0.49388 0.2765 0.77584 0.3014 0.28196 0.0248 0.56516 -0.0311 0.81659 -0.1611 -0.74115 2.3135 -2.39364 3.2549 -4.36662 3.0245Z" clip-rule="evenodd" stroke-width="1"></path>
  <path fill="#0c6fff" fill-rule="evenodd" d="M20.515 9.08376c-0.661 -0.73111 -0.4407 -1.93292 -1.6926 -2.52381 -1.0916 -0.50076 -2.6239 0 -3.3851 -0.5308 -0.1029 -0.08553 -0.1858 -0.19268 -0.2427 -0.31385 -0.0568 -0.12116 -0.0863 -0.25337 -0.0863 -0.38721 0 -0.13385 0.0295 -0.26605 0.0863 -0.38722 0.0569 -0.12116 0.1398 -0.22832 0.2427 -0.31384 0.8065 -0.68885 1.8242 -1.08112 2.8844 -1.11168 0.3806 0 1.6024 0.14021 2.003 -0.28042 0.0328 -0.02758 0.0593 -0.06184 0.0778 -0.1005 0.0184 -0.03866 0.0284 -0.08082 0.0292 -0.12365 0.0008 -0.04284 -0.0075 -0.08535 -0.0245 -0.12469 -0.0169 -0.03935 -0.0421 -0.07461 -0.0738 -0.10343 -0.0317 -0.02881 -0.0692 -0.05052 -0.1099 -0.06365 -0.0408 -0.01314 -0.0839 -0.01741 -0.1265 -0.01252 -0.0425 0.0049 -0.0836 0.01883 -0.1203 0.04088 -0.0367 0.02205 -0.0683 0.05169 -0.0927 0.08695 -0.2003 0.21032 -1.8027 -0.35053 -3.7656 0.28043 -2.8644 0.9314 -2.7141 4.00604 -0.0501 4.29648 0.7865 -0.04538 1.5757 -0.00508 2.3535 0.12018 1.0717 0.43065 0.7512 2.76419 2.8744 2.57389 0.4707 0 0.5007 -0.1302 0.5708 -0.17026 0.3005 -0.25038 0.3005 -0.42063 0.1102 -0.5308 -0.5809 -0.22033 -1.0416 0.1302 -1.4622 -0.32048Z" clip-rule="evenodd" stroke-width="1"></path>
  <path fill="#0c6fff" fill-rule="evenodd" d="M16.1485 12.4488c0.0601 -0.2303 0.2805 -0.3806 0.6811 -0.5308 0.372 -0.151 0.7826 -0.179 1.1717 -0.0801 0.4151 0.0353 0.8069 0.2066 1.1147 0.4873 0.3078 0.2806 0.5145 0.655 0.5879 1.065 0.1102 0.2504 0.5809 0.1102 0.6009 -0.1802 -0.0614 -0.4293 -0.2172 -0.8396 -0.4561 -1.2014s-0.555 -0.6662 -0.9257 -0.8913c-0.3706 -0.225 -0.7865 -0.3652 -1.2177 -0.4103 -0.4313 -0.0451 -0.8672 0.0059 -1.2763 0.1494 -1.4823 0.5809 -1.5324 1.5824 -1.0516 2.8944 0.2103 0.5508 0.5007 1.1016 0.2203 1.6024 -0.0501 0.0801 0.0601 0.3305 0.5508 0.1602 0.0773 -0.0318 0.1463 -0.0808 0.2018 -0.1433 0.0556 -0.0625 0.0962 -0.1367 0.1187 -0.2172 0.2704 -1.0115 -0.5308 -1.983 -0.3205 -2.7041Z" clip-rule="evenodd" stroke-width="1"></path>
  <path fill="#020202" fill-rule="evenodd" d="M23.4494 5.4082c-0.3254 -1.13386 -0.9317 -2.16727 -1.7626 -3.00454C19.824 0.52082 15.4474 -0.420601 12.9936 0.180306 11.4839 0.516994 10.1114 1.3028 9.0567 2.43434 8.00202 3.56589 7.31455 4.99019 7.08473 6.51988c-0.00987 0.04274 -0.01122 0.08701 -0.00397 0.13027 0.00724 0.04327 0.02294 0.08468 0.04619 0.12188 0.02325 0.0372 0.0536 0.06946 0.08931 0.09493 0.03572 0.02547 0.0761 0.04366 0.11884 0.05352 0.04275 0.00986 0.08702 0.01121 0.13028 0.00397 0.04327 -0.00725 0.08468 -0.02294 0.12188 -0.04619 0.0372 -0.02325 0.06946 -0.0536 0.09493 -0.08931 0.02547 -0.03572 0.04366 -0.0761 0.05352 -0.11885 0.34416 -0.93093 0.78384 -1.8237 1.31198 -2.66402 0.4274 -0.52966 0.92235 -1.00105 1.47221 -1.40212C11.932 1.53027 13.6442 0.924521 15.4173 0.871349c1.0366 -0.05548 2.0738 0.098629 3.0494 0.453111 0.9757 0.35448 1.8699 0.90206 2.6292 1.61 1.2039 1.46676 1.783 3.348 1.6124 5.23791 -0.0987 1.39859 -0.5426 2.75093 -1.2919 3.93593 -0.7422 1.1943 -1.7762 2.1801 -3.0046 2.8643 -1.453 0.8081 -3.1412 1.0877 -4.7772 0.7912 -0.0723 -0.006 -0.1444 0.0143 -0.2029 0.0572 -0.0585 0.043 -0.0995 0.1057 -0.1154 0.1765 -0.0158 0.0708 -0.0055 0.145 0.029 0.2088 0.0346 0.0639 0.0911 0.113 0.1591 0.1384 5.939 1.5624 11.8579 -4.3966 9.945 -10.9365Z" clip-rule="evenodd" stroke-width="1"></path>
  <path fill="#0c6fff" fill-rule="evenodd" d="M10.1093 5.72865c0.4507 0.14021 0.651 0.29044 0.7712 0.65098 0.1702 0.54082 0.1402 1.18179 0.3104 1.71259 0.4908 1.42214 1.6425 1.36205 1.3421 2.63398 -0.0445 0.2431 -0.122 0.4789 -0.2304 0.7011 0 0.06 -0.0501 0.1301 -0.1001 0.1402 -0.3105 0 -1.0917 -1.0015 -1.302 -1.2619 -0.0531 -0.0704 -0.132 -0.1168 -0.2194 -0.129 -0.0873 -0.0122 -0.1759 0.0107 -0.2463 0.0639 -0.0704 0.0531 -0.1168 0.132 -0.129 0.2193 -0.0122 0.0874 0.0108 0.176 0.0639 0.2464 0.5008 0.701 1.0716 1.7125 1.8528 1.7326 0.4206 0 0.9214 -0.3205 1.2919 -1.4522 0.6009 -1.88285 -0.9314 -2.31351 -1.2619 -3.26494 -0.2904 -0.76115 -0.1602 -1.87283 -1.0015 -2.48375 -0.6172 -0.32256 -1.30689 -0.48119 -2.003 -0.4607 -0.48072 0 -0.54081 0.52079 -0.13019 0.65099 0.32533 0.11647 0.65623 0.21674 0.99149 0.30045Z" clip-rule="evenodd" stroke-width="1"></path>
</svg>