<svg xmlns="http://www.w3.org/2000/svg" fill="none" viewBox="0 0 24 24" id="Video-Game-Controller-Wifi--Streamline-Freehand">
  <desc>
    Video Game Controller Wifi Streamline Icon: https://streamlinehq.com
  </desc>
  <path fill="#020202" fill-rule="evenodd" d="M23.4012 17.2507c-0.1249 -1.6282 -0.4607 -3.2333 -0.9989 -4.7751 -0.3753 -1.0851 -0.9898 -2.0718 -1.7982 -2.88707 -0.2948 -0.26506 -0.6326 -0.47789 -0.999 -0.62936 -0.4821 -0.18306 -0.9761 -0.33325 -1.4785 -0.44954 -0.9166 -0.22841 -1.8535 -0.36561 -2.7971 -0.40958 -1.3586 -0.06993 -2.7172 0 -4.1258 0 -0.6593 0 -3.99591 0.24974 -4.40549 0.32966 -0.84187 0.12474 -1.66871 0.33564 -2.46748 0.62936 -0.56919 0.2199 -1.08386 0.56074 -1.50846 0.99893 -0.40824 0.4525 -0.74511 0.9645 -0.99898 1.5185 -0.35375 0.7954 -0.63461 1.6213 -0.83914 2.4675l-0.279714 1.938 -0.199796 1.6583v1.1788c-0.029822 1.2932 0.261953 2.5736 0.84913 3.7262 0.23231 0.4598 0.63322 0.812 1.11905 0.9833 0.48583 0.1712 1.01902 0.1482 1.48829 -0.0642 0.37429 -0.1581 0.72149 -0.3738 1.02895 -0.6394 0.57012 -0.5087 1.10109 -1.0597 1.58837 -1.6483 0.38055 0.104 0.77857 0.1278 1.16881 0.0699 0.52473 -0.1189 1.00463 -0.3852 1.38331 -0.7674 0.37869 -0.3822 0.64044 -0.8646 0.7545 -1.3904 0.43955 0.0899 0.84915 0.1998 1.29865 0.2498 0.1829 0.0149 0.3666 0.0149 0.5495 0 0.1863 0.0099 0.3731 0.0099 0.5594 0 0.3996 -0.06 0.7792 -0.1399 1.1788 -0.2198 0.0933 0.3592 0.2525 0.6979 0.4695 0.999 0.3018 0.3944 0.7037 0.7006 1.1641 0.8869 0.4603 0.1862 0.9621 0.2456 1.4532 0.172 0.2518 -0.0487 0.4945 -0.1363 0.7193 -0.2597 0.3322 0.5853 0.7422 1.123 1.2188 1.5983 0.4791 0.4883 1.0361 0.8934 1.6483 1.1988 0.3865 0.215 0.8275 0.3122 1.2687 0.2797 0.3413 -0.0435 0.6562 -0.2063 0.8891 -0.4595 0.5975 -0.6955 0.9702 -1.5559 1.0689 -2.4675 0.1575 -1.2666 0.1676 -2.5472 0.0299 -3.8161ZM11.2537 8.87925c1.3286 0 2.6073 0 3.876 0.15984 -0.1295 0.70429 -0.2962 1.40121 -0.4995 2.08791 -0.1148 0.389 -0.3404 0.7361 -0.6493 0.9989 -0.1523 0.0863 -0.3245 0.1311 -0.4995 0.1299 -0.4396 0 -0.9191 0 -1.2587 0.0599l-1.5085 0.1599c-0.2926 0.0211 -0.5864 0.0211 -0.87909 0 -0.24934 0.0061 -0.49735 -0.0381 -0.72926 -0.1299 -0.18218 -0.1093 -0.34059 -0.254 -0.46586 -0.4256 -0.12526 -0.1716 -0.21482 -0.3665 -0.26339 -0.5734 -0.25003 -0.747 -0.42734 -1.51648 -0.52946 -2.29762 0 -0.05994 0 -0.08991 -0.06993 -0.13986 1.37859 0.07992 1.35861 -0.08991 3.47649 -0.02997ZM8.85611 18.6593c-0.05661 0.3369 -0.21073 0.65 -0.44331 0.9003 -0.23258 0.2503 -0.53343 0.427 -0.86536 0.5082 -0.28777 0.0492 -0.58342 0.0215 -0.85706 -0.0803 -0.27364 -0.1017 -0.51557 -0.2739 -0.70134 -0.4991 -0.21112 -0.2159 -0.35763 -0.4866 -0.42295 -0.7814 -0.06532 -0.2948 -0.04685 -0.602 0.05332 -0.8869 0.15151 -0.3554 0.38013 -0.6728 0.66932 -0.929 0.30371 -0.1931 0.6502 -0.3087 1.00902 -0.3366 0.35882 -0.0278 0.71899 0.0328 1.04888 0.1767 0.27018 0.232 0.46355 0.5405 0.55453 0.8848 0.09097 0.3443 0.07526 0.7081 -0.04505 1.0433Zm7.52229 1.3186c-0.2877 0.0461 -0.5824 0.017 -0.8555 -0.0846 -0.273 -0.1015 -0.5152 -0.272 -0.7029 -0.4948 -0.2094 -0.217 -0.354 -0.4881 -0.4176 -0.7829 -0.0635 -0.2948 -0.0435 -0.6014 0.058 -0.8854 0.8391 -1.9979 3.876 -1.6783 3.2367 0.8392 -0.0598 0.3372 -0.2162 0.6499 -0.4503 0.8999 -0.2341 0.2501 -0.5358 0.4268 -0.8684 0.5086Zm5.9939 0.999c-0.0414 0.7248 -0.2989 1.4207 -0.7392 1.998 -0.058 0.0648 -0.1288 0.1169 -0.2078 0.153 -0.0791 0.0361 -0.1648 0.0554 -0.2518 0.0567 -0.2325 -0.009 -0.4606 -0.0668 -0.6693 -0.1698 -0.54 -0.2519 -1.0359 -0.5892 -1.4685 -0.999 -0.4427 -0.4137 -0.8289 -0.884 -1.1488 -1.3985l-0.06 -0.07c0.4721 -0.4512 0.7931 -1.0374 0.9191 -1.6783 0.1388 -0.5412 0.1067 -1.1121 -0.0918 -1.6343 -0.1986 -0.5223 -0.5538 -0.9703 -1.0171 -1.2827 -0.7257 -0.3182 -1.5462 -0.3442 -2.2906 -0.0725 -0.7443 0.2717 -1.3552 0.8201 -1.7053 1.531 -0.1692 0.3069 -0.2649 0.6489 -0.2797 0.999 -0.3696 -0.0499 -0.7293 -0.1099 -1.1089 -0.1398 -0.183 -0.0103 -0.3664 -0.0103 -0.5494 0 -0.1829 -0.0145 -0.3666 -0.0145 -0.5494 0 -0.4001 0.0597 -0.7969 0.1397 -1.18883 0.2397 0.06803 -0.4848 -0.0017 -0.9789 -0.20133 -1.4259 -0.19963 -0.4469 -0.52107 -0.8287 -0.92751 -1.1015 -0.16532 -0.0931 -0.34385 -0.1605 -0.52946 -0.1998 -0.38062 -0.1195 -0.78393 -0.1484 -1.17769 -0.0842 -0.39375 0.0642 -0.76703 0.2196 -1.08999 0.4538l-0.04995 0.06c-0.47411 0.3106 -0.86507 0.7324 -1.13884 1.2287 -0.21721 0.4388 -0.30441 0.9306 -0.25131 1.4174 0.0531 0.4867 0.24428 0.9481 0.551 1.3298 0.20486 0.2715 0.45904 0.5019 0.74924 0.6793 -0.35963 0.3696 -0.70928 0.7492 -1.09888 1.0789 -0.33647 0.3146 -0.73442 0.5561 -1.1688 0.7093 -0.27065 0.1067 -0.57223 0.1038 -0.84078 -0.0081 -0.26856 -0.1119 -0.48296 -0.324 -0.59775 -0.5913 -0.44311 -1.0009 -0.63515 -2.0948 -0.55943 -3.1868l0.06993 -1.0988 0.19979 -1.5984 0.30968 -1.7782c0.15843 -0.7844 0.38575 -1.5532 0.67931 -2.2976 0.18542 -0.4731 0.43773 -0.9172 0.74923 -1.3187 0.31086 -0.3685 0.69537 -0.668 1.12885 -0.87909 0.71335 -0.31326 1.45631 -0.55422 2.21774 -0.71926l0.23975 -0.05994v0.05994c0.0077 0.99475 0.15567 1.98355 0.43955 2.93695 0.1609 0.4981 0.48915 0.9252 0.92905 1.2088 0.28903 0.1653 0.6084 0.2706 0.93904 0.3097 0.43116 0.0547 0.86749 0.0547 1.29869 0l1.5884 -0.1798c0.3796 -0.0699 0.9989 -0.06 1.4585 -0.1798 0.2877 -0.0641 0.5553 -0.1979 0.7792 -0.3896 0.4162 -0.4082 0.7044 -0.929 0.8291 -1.4985 0.1502 -0.7327 0.2602 -1.47305 0.3297 -2.21774l0 -0.05994c0.7 0.08546 1.3917 0.22915 2.0679 0.42956 0.4422 0.12138 0.876 0.27155 1.2987 0.44954 0.2355 0.10648 0.4516 0.25168 0.6393 0.42958 0.6748 0.6967 1.1836 1.5367 1.4885 2.4575 0.5012 1.45 0.82 2.9567 0.949 4.4854 0.1822 1.1695 0.2291 2.3561 0.1399 3.5364l-0.03 0.0799Z" clip-rule="evenodd" stroke-width="1"></path>
  <path fill="#0c6fff" fill-rule="evenodd" d="M12.5722 3.89441c-0.381 -0.09999 -0.7769 -0.13044 -1.1688 -0.08991 -0.3842 0.04088 -0.759 0.14554 -1.1088 0.30968 -0.76281 0.38842 -1.41296 0.96633 -1.88812 1.67829 -0.02689 0.03083 -0.04745 0.06665 -0.0605 0.10543 -0.01305 0.03877 -0.01833 0.07974 -0.01555 0.12055 0.00279 0.04082 0.01358 0.08069 0.03177 0.11733 0.01819 0.03664 0.04342 0.06935 0.07425 0.09624 0.03083 0.02689 0.06666 0.04745 0.10543 0.0605 0.03877 0.01305 0.07974 0.01833 0.12055 0.01555 0.04082 -0.00278 0.08069 -0.01358 0.11733 -0.03177 0.03665 -0.01819 0.06935 -0.04342 0.09624 -0.07425 0.53115 -0.46504 1.159 -0.80626 1.8381 -0.99898 0.2664 -0.09381 0.5405 -0.16401 0.8192 -0.20978 0.472 -0.077 0.9558 -0.03511 1.4075 0.12187 0.4518 0.15698 0.8573 0.4241 1.1798 0.77721 0.0326 0.03322 0.0715 0.05962 0.1143 0.07764 0.0429 0.01802 0.089 0.0273 0.1355 0.0273 0.0465 0 0.0926 -0.00928 0.1354 -0.0273 0.0429 -0.01802 0.0818 -0.04442 0.1143 -0.07764 0.033 -0.03169 0.0592 -0.0697 0.0771 -0.11176 0.0179 -0.04205 0.0271 -0.08729 0.0271 -0.13299 0 -0.04571 -0.0092 -0.09094 -0.0271 -0.133 -0.0179 -0.04205 -0.0441 -0.08006 -0.0771 -0.11175 -0.4827 -0.72926 -1.2083 -1.26374 -2.0479 -1.50846Z" clip-rule="evenodd" stroke-width="1"></path>
  <path fill="#0c6fff" fill-rule="evenodd" d="M6.34863 4.1941c0.83696 -1.22945 2.04964 -2.15473 3.45647 -2.6373 0.7972 -0.29607 1.6501 -0.41206 2.4974 -0.33966 0.5622 0.03549 1.1136 0.1708 1.6284 0.3996 0.4618 0.20314 0.8897 0.47605 1.2687 0.80917 0.5858 0.55728 1.1207 1.16574 1.5984 1.81814 0.0258 0.03863 0.0594 0.07152 0.0985 0.09666 0.0391 0.02513 0.083 0.04197 0.1289 0.04946 0.0459 0.00749 0.0928 0.00548 0.1379 -0.00591 0.0451 -0.01138 0.0873 -0.0319 0.1242 -0.06029 0.0375 -0.0268 0.0693 -0.06076 0.0936 -0.09991 0.0244 -0.03915 0.0407 -0.08272 0.0481 -0.12822 0.0075 -0.04549 0.0058 -0.092 -0.0048 -0.13686 -0.0106 -0.04486 -0.03 -0.08717 -0.057 -0.12451 -0.4468 -0.73351 -0.9583 -1.42557 -1.5285 -2.06789 -0.4209 -0.43997 -0.9059 -0.813816 -1.4385 -1.108865 -0.6197 -0.335514 -1.2979 -0.549154 -1.998 -0.6293565 -1.0235 -0.09992 -2.0556 0.0652105 -2.99689 0.4795105C7.85573 1.18382 6.58584 2.37259 5.80918 3.87443c-0.02099 0.03542 -0.03479 0.07463 -0.04063 0.11538 -0.00584 0.04076 -0.00359 0.08227 0.00661 0.12216 0.01021 0.03989 0.02817 0.07737 0.05286 0.11032 0.02469 0.03295 0.05563 0.06071 0.09105 0.0817 0.03542 0.02099 0.07463 0.0348 0.11539 0.04064 0.04075 0.00583 0.08226 0.00359 0.12215 -0.00662 0.03989 -0.0102 0.07738 -0.02816 0.11032 -0.05286 0.03295 -0.02469 0.06071 -0.05563 0.0817 -0.09105Z" clip-rule="evenodd" stroke-width="1"></path>
</svg>