<svg xmlns="http://www.w3.org/2000/svg" fill="none" viewBox="0 0 24 24" id="Video-Game-Pacman--Streamline-Freehand">
  <desc>
    Video Game Pacman Streamline Icon: https://streamlinehq.com
  </desc>
  <path fill="#020202" fill-rule="evenodd" d="m22.917 18.169 -2.09 -1.88c-1 -0.77 -2 -1.44 -3.05 -2.18 -0.42 -0.3 -0.82 -0.62 -1.21 -1 -0.2976 -0.2476 -0.5814 -0.5113 -0.85 -0.79 -0.169 -0.167 -0.3198 -0.3513 -0.45 -0.55 -0.0358 -0.0604 -0.066 -0.124 -0.09 -0.19 0.0713 -0.0912 0.1481 -0.1781 0.23 -0.26 0.45 -0.46 1 -0.89 1.4 -1.25 0.83 -0.88998 1.83 -1.84998 2.86 -2.78998 3.33 -3 3.15 -2.52 3.13 -2.82 -0.3034 -0.55943 -0.6691 -1.08275 -1.09 -1.56 -0.2572 -0.3121 -0.5491 -0.59391 -0.87 -0.84 -0.7861 -0.58109 -1.6653 -1.02408 -2.6 -1.309996 -0.9266 -0.298541 -1.8818 -0.499629 -2.85 -0.6 -1.2733 -0.1661934 -2.5609 -0.1930187 -3.84 -0.0799999C10.235 0.190104 8.95686 0.552877 7.77695 1.13902c-2.58355 1.40783 -4.62175 3.63965 -5.79 6.34 -1.22481 2.67788 -1.403173 5.71718 -0.5 8.51998 0.35451 0.9673 0.86085 1.872 1.5 2.68 0.60431 0.7661 1.27344 1.4787 2 2.13 0.72876 0.6594 1.53066 1.2331 2.39 1.71 0.86079 0.4812 1.78239 0.8445 2.74005 1.08 1.0399 0.2615 2.1077 0.3959 3.18 0.4 2.3974 0.0249 4.7406 -0.7141 6.69 -2.11 1.0505 -0.7571 2.0073 -1.6367 2.85 -2.62 0.0625 -0.0682 0.0972 -0.1574 0.0972 -0.25 0 -0.0925 -0.0347 -0.1817 -0.0972 -0.25 0.071 -0.0145 0.1347 -0.0534 0.18 -0.11 0.0274 -0.0381 0.0467 -0.0815 0.0566 -0.1274 0.0099 -0.046 0.0102 -0.0935 0.0008 -0.1395 -0.0094 -0.046 -0.0283 -0.0896 -0.0554 -0.128 -0.0271 -0.0384 -0.0618 -0.0708 -0.102 -0.0951Zm-3.37 3.08c-1.0086 0.6895 -2.1283 1.2003 -3.31 1.51 -0.9594 0.2482 -1.9497 0.356 -2.94 0.32 -0.9942 -0.0195 -1.9819 -0.164 -2.94 -0.43 -0.86776 -0.2208 -1.70188 -0.5571 -2.48005 -1 -0.78181 -0.464 -1.50673 -1.0177 -2.16 -1.65 -0.67733 -0.6079 -1.29666 -1.2774 -1.85 -2 -0.54793 -0.7109 -0.97993 -1.504 -1.28 -2.35 -0.77958 -2.5264 -0.59429 -5.2523 0.52 -7.64998 1.02294 -2.48149 2.8369 -4.5556 5.16 -5.9C9.3138 1.52164 10.4608 1.14835 11.647 0.999024c1.2165 -0.13002 2.4434 -0.13002 3.66 0 0.9141 0.066256 1.819 0.227116 2.7 0.479996 0.8672 0.25936 1.6851 0.66154 2.42 1.19 0.2864 0.21329 0.5511 0.45447 0.79 0.72 0.29 0.33 0.55 0.69 0.81 1 -1.12 0.83 -2.37 1.78 -3.57 2.76 -0.88 0.72 -1.73 1.45 -2.46 2.14 -0.36 0.35 -1 0.76998 -1.42 1.21998 -0.2416 0.2252 -0.4443 0.4888 -0.6 0.78 -0.0864 0.1553 -0.1113 0.3373 -0.07 0.51 0.0875 0.2404 0.216 0.4637 0.38 0.66 0.1736 0.2521 0.3676 0.4895 0.58 0.71 0.3 0.3 0.64 0.57 1 0.84s0.88 0.66 1.34 1c1 0.67 2.12 1.28 3.14 2l2.16 1.74c-0.0625 0.012 -0.121 0.0395 -0.17 0.08 -0.8226 0.9228 -1.7603 1.7361 -2.79 2.42Z" clip-rule="evenodd" stroke-width="1"></path>
</svg>