<svg xmlns="http://www.w3.org/2000/svg" fill="none" viewBox="0 0 24 24" id="Vinyl-Record-Gramophone--Streamline-Freehand">
  <desc>
    Vinyl Record Gramophone Streamline Icon: https://streamlinehq.com
  </desc>
  <path fill="#0c6fff" fill-rule="evenodd" d="M4.86079 9.78199c-0.29984 -0.39424 -0.73932 -0.65864 -1.22809 -0.73885 -0.09984 -0.17972 -0.16974 -0.36943 -0.27957 -0.54915 -0.39937 -0.69891 -0.84868 -1.36787 -1.24806 -2.06679 0 0 -0.17972 -0.17972 -0.3195 -0.33947h0.28955c0.37452 -0.11556 0.76943 -0.14961 1.1582 -0.09984 0.19745 0.0477 0.37321 0.16019 0.49923 0.3195l0.33947 0.49922 0.39938 0.75882c0.01958 0.04596 0.04805 0.0876 0.08377 0.12253 0.03571 0.03493 0.07798 0.06246 0.12436 0.08102 0.04639 0.01855 0.09598 0.02776 0.14593 0.0271 0.04995 -0.00066 0.09928 -0.01118 0.14516 -0.03096 0.09104 -0.04141 0.16204 -0.11709 0.19756 -0.21058 0.03553 -0.09349 0.03271 -0.19722 -0.00785 -0.28864l-0.31951 -0.8387 -0.33947 -0.65897c-0.21252 -0.35716 -0.53986 -0.6317 -0.92856 -0.77879 -0.51548 -0.14731 -1.05497 -0.19142 -1.58753 -0.1298 -0.32024 0.00508 -0.6387 0.04865 -0.94853 0.1298 -0.254944 0.0796 -0.471718 0.25018 -0.60905 0.47925 -0.055147 0.10645 -0.08393 0.22458 -0.08393 0.34447 0 0.11988 0.028783 0.23801 0.08393 0.34446 0.196273 0.34543 0.412989 0.67884 0.64899 0.99845 0.54915 0.68893 1.13823 1.34791 1.6774 1.9969 -0.29954 0.16973 -0.99845 0.24961 -1.32794 1.04833 -0.0789 0.2076 -0.11 0.4303 -0.09099 0.6516 0.01902 0.2212 0.08766 0.4354 0.20082 0.6265 0.10108 0.2761 0.26732 0.5238 0.4846 0.7219 0.21728 0.1982 0.47919 0.341 0.76346 0.4163 0.55504 0.0604 1.11292 -0.0853 1.56756 -0.4094 0.20462 -0.115 0.38229 -0.2725 0.5211 -0.4618 0.13882 -0.1893 0.23558 -0.4061 0.28379 -0.6358 0.04822 -0.2297 0.04678 -0.4671 -0.00421 -0.6963 -0.051 -0.2291 -0.15037 -0.4447 -0.29147 -0.63231ZM3.68262 11.1199c-0.19799 0.1612 -0.44369 0.2525 -0.69891 0.2596 -0.28955 0 -0.41935 -0.2895 -0.49923 -0.4193 -0.07987 -0.1298 -0.20967 -0.3595 -0.11981 -0.5192 0.18765 -0.3045 0.47263 -0.53673 0.80874 -0.65901 0.29954 0 1.40782 0.86861 0.50921 1.33791Z" clip-rule="evenodd" stroke-width="1"></path>
  <path fill="#020202" fill-rule="evenodd" d="M13.0979 14.1353c0.8137 -0.4394 1.5546 -1.0019 2.1966 -1.6674 0.6707 -0.6563 1.2334 -1.4145 1.6674 -2.2465 0.2457 -0.49926 0.4526 -1.01664 0.6191 -1.54759 0.2296 -0.7688 0.3894 -1.54759 0.5691 -2.32638 0.3028 -1.13853 0.3975 -2.32238 0.2795 -3.49457 -0.4692 -3.04527 -2.4661 -2.965394 -3.2549 -2.7756886C13.8532 0.529688 12.6844 1.34234 11.7999 2.42353c-0.639 0.78877 -1.5476 0.99844 -2.29639 1.62747 -0.22892 0.18215 -0.43959 0.38613 -0.62903 0.60905 -0.37036 0.44219 -0.67318 0.93679 -0.8986 1.46772 -0.20204 0.53663 -0.31012 1.10406 -0.3195 1.67739 0 0.40937 0.07987 0.85867 0.08986 1.29799 0.01027 0.14292 0.01027 0.2864 0 0.42933 -0.0208 0.07518 -0.0546 0.14614 -0.09985 0.20967 -0.20967 0.29955 -0.53916 0.58905 -0.69891 0.86865 -0.31719 0.5602 -0.42344 1.2154 -0.29954 1.8471 0.53917 2.7657 3.62436 3.1851 6.44996 1.6774ZM7.75622 11.14c0.16974 -0.2496 0.48924 -0.4793 0.7089 -0.7389v-0.0798c0.28955 -0.1298 0.5791 -0.2497 0.86865 -0.39943 0.28955 -0.14976 0.4493 -0.26958 0.67893 -0.40936 0.3189 -0.23095 0.6525 -0.44106 0.9985 -0.62902 0.0988 -0.02589 0.1835 -0.08961 0.2358 -0.1774 0.0523 -0.08779 0.068 -0.19261 0.0437 -0.29187 -0.0258 -0.09625 -0.0884 -0.17847 -0.1744 -0.22891 -0.0859 -0.05045 -0.1882 -0.06505 -0.2849 -0.04067 -0.4587 0.03387 -0.91141 0.12442 -1.34786 0.26958 -0.18308 0.06012 -0.36022 0.13699 -0.52918 0.22964l-0.14977 0.10983c-0.01509 -0.28602 -0.01509 -0.57264 0 -0.85867 0.027 -0.4345 0.13184 -0.86061 0.30952 -1.25804 0.17874 -0.42989 0.43608 -0.82267 0.75882 -1.1582 0.38057 -0.44187 0.84127 -0.80775 1.35787 -1.07833 -0.01 0.11294 -0.01 0.22654 0 0.33948 0.0197 0.21631 0.0598 0.43027 0.1198 0.639 0.1396 0.47706 0.3482 0.93116 0.6191 1.34791 0.0204 0.04632 0.05 0.08808 0.0868 0.12282 0.0369 0.03473 0.0803 0.06173 0.1278 0.07941 0.0474 0.01768 0.0979 0.02568 0.1485 0.02353 0.0506 -0.00215 0.1003 -0.01441 0.1461 -0.03606 0.0893 -0.04335 0.1586 -0.11917 0.1939 -0.21196 0.0353 -0.09279 0.0338 -0.19554 -0.0042 -0.28726 -0.0619 -0.23639 -0.1086 -0.47651 -0.1398 -0.71888v-0.7089c0 -0.23963 0 -0.45929 -0.0499 -0.68893 -0.0499 -0.22964 -0.0599 -0.53916 -0.0799 -0.79876 0.1173 -0.10569 0.2273 -0.2191 0.3295 -0.33947 0.6758 -0.95847 1.6061 -1.70892 2.6858 -2.166636 0.3115 -0.113387 0.6525 -0.115693 0.9655 -0.006527 0.3129 0.109163 0.5785 0.323103 0.7519 0.605593 0.1969 0.44324 0.3216 0.91516 0.3694 1.39783 0.0307 1.0548 -0.1283 2.10654 -0.4693 3.10518 -0.2196 0.74883 -0.4293 1.49767 -0.6789 2.22654 -0.1561 0.46602 -0.3463 0.91988 -0.5692 1.35789 -0.4538 0.85005 -1.0364 1.62465 -1.7273 2.29645 -0.6809 0.701 -1.4781 1.2786 -2.3563 1.7073 -0.3894 0.1698 -3.91392 1.6175 -4.2534 -1.3279 -0.05682 -0.4433 0.05353 -0.8918 0.30952 -1.2581v0.04Z" clip-rule="evenodd" stroke-width="1"></path>
  <path fill="#0c6fff" fill-rule="evenodd" d="M11.141 12.0485c0.5478 0.0495 1.0939 -0.1111 1.5276 -0.4493 0.7224 -0.5945 1.3547 -1.2907 1.8771 -2.06681 0.5074 -0.80583 0.847 -1.70575 0.9985 -2.64589 0.0473 -0.34925 0.0084 -0.70478 -0.1134 -1.0355 -0.1219 -0.33071 -0.3229 -0.62653 -0.5856 -0.86155 -0.2107 -0.15973 -0.4704 -0.24111 -0.7346 -0.23018 -0.2642 0.01094 -0.5163 0.1135 -0.7131 0.29008 -0.0708 0.05044 -0.1202 0.12543 -0.1387 0.21035 -0.0184 0.08492 -0.0046 0.17368 0.0388 0.24894 0.0491 0.07542 0.126 0.1283 0.214 0.14702 0.088 0.01872 0.1798 0.00176 0.2553 -0.04717 0.0512 -0.03925 0.1104 -0.06674 0.1734 -0.08051 0.0631 -0.01378 0.1283 -0.01352 0.1912 0.00078 0.0629 0.0143 0.1219 0.04227 0.1728 0.08193 0.0509 0.03967 0.0924 0.09005 0.1216 0.14756 0.0752 0.1414 0.121 0.29655 0.1348 0.45612 0.0137 0.15957 -0.005 0.32027 -0.0549 0.47244 -0.0869 0.30237 -0.2005 0.59641 -0.3395 0.87863 -0.2054 0.44373 -0.4389 0.87393 -0.6989 1.288 -0.4257 0.72292 -0.9351 1.39316 -1.5177 1.99686 -0.2035 0.2071 -0.4786 0.3286 -0.7688 0.3395 -0.1345 0.0114 -0.2696 -0.0153 -0.3897 -0.0771 -0.1201 -0.0618 -0.2203 -0.1562 -0.2892 -0.2723 -0.0204 -0.0451 -0.0496 -0.0857 -0.0859 -0.1193 -0.0364 -0.0336 -0.0791 -0.0595 -0.1257 -0.0763 -0.0465 -0.0168 -0.096 -0.024 -0.1454 -0.0213 -0.0494 0.0027 -0.0978 0.0154 -0.1422 0.0371 -0.08933 0.0434 -0.1587 0.1192 -0.19396 0.212 -0.03526 0.0928 -0.03375 0.1955 0.00422 0.2873 0.11681 0.2569 0.30294 0.4762 0.53754 0.6332 0.2346 0.157 0.5083 0.2454 0.7904 0.2554Z" clip-rule="evenodd" stroke-width="1"></path>
  <path fill="#020202" fill-rule="evenodd" d="M23.0625 11.08c-0.3445 -0.7454 -0.8215 -1.42202 -1.4078 -1.99691 -0.9984 -1.04837 -2.0868 -1.91702 -2.2864 -4.30331 0 -0.09003 -0.0358 -0.17638 -0.0995 -0.24004 -0.0636 -0.06367 -0.15 -0.09943 -0.24 -0.09943 -0.0901 0 -0.1764 0.03576 -0.2401 0.09943 -0.0636 0.06366 -0.0994 0.15001 -0.0994 0.24004 -0.0324 0.76507 0.0586 1.53037 0.2696 2.26648 0.4586 1.1426 1.137 2.18404 1.9969 3.06524 0.6245 0.712 1.0666 1.5653 1.288 2.4861 0.1476 0.6321 0.2279 1.2781 0.2396 1.927 0.0247 0.6556 -0.1125 1.3071 -0.3994 1.8971 -0.2399 0.5025 -0.5796 0.9509 -0.9984 1.3179 -0.1616 -0.8356 -0.5522 -1.6099 -1.1283 -2.2365 -0.729 -0.8309 -1.7179 -1.3905 -2.8056 -1.5875 -1.0274 -0.1703 -2.0779 -0.1431 -3.0952 0.0799 -0.0433 0.0039 -0.0853 0.0163 -0.1238 0.0365 -0.0385 0.0202 -0.0726 0.0478 -0.1004 0.0811 -0.0278 0.0334 -0.0488 0.072 -0.0617 0.1134 -0.0129 0.0415 -0.0176 0.0851 -0.0136 0.1284 0.0039 0.0433 0.0163 0.0853 0.0365 0.1238 0.0202 0.0385 0.0478 0.0726 0.0812 0.1004 0.0333 0.0278 0.0719 0.0488 0.1133 0.0617 0.0415 0.0129 0.0851 0.0176 0.1284 0.0136 0.9295 -0.0005 1.8531 0.1478 2.7358 0.4394 0.3428 0.1105 0.6766 0.2473 0.9984 0.4093 0.2667 0.1313 0.5236 0.2814 0.7688 0.4493 0.5849 0.3837 1.0708 0.9003 1.4178 1.5077 0.1101 0.1671 0.188 0.3534 0.2297 0.5491 -0.0101 0.0543 -0.0081 0.1101 0.0057 0.1636 0.0138 0.0535 0.0391 0.1033 0.0741 0.1459 0 0 -0.0898 -0.0599 -0.1398 -0.0599l-4.9922 -0.1497c-1.4877 0 -2.9953 -0.0699 -4.4631 0 -2.23648 0 -4.46302 0.2196 -6.69955 0.3594 -0.0788 0.0137 -0.15024 0.0547 -0.20174 0.1159 -0.05149 0.0612 -0.07973 0.1386 -0.07973 0.2186 0 0.08 0.02824 0.1574 0.07973 0.2186 0.0515 0.0612 0.12294 0.1022 0.20174 0.1159l1.14822 0.0499c-0.14182 0.5033 -0.2091 1.0247 -0.19969 1.5476 0.02984 0.3671 0.08995 0.7311 0.17972 1.0883 0.09984 0.3994 0.21966 0.7788 0.32949 1.1682l-1.46772 0.0898c-0.04413 0 -0.0878 0.0089 -0.12844 0.026 -0.04064 0.0172 -0.07742 0.0424 -0.10815 0.0741 -0.03073 0.0316 -0.05479 0.0691 -0.07075 0.1103 -0.01595 0.0411 -0.02349 0.085 -0.02215 0.1291 -0.00148 0.0445 0.00636 0.0889 0.02304 0.1302 0.01667 0.0413 0.04179 0.0787 0.07376 0.1097 0.03197 0.031 0.07007 0.055 0.11186 0.0705 0.04179 0.0154 0.08635 0.0219 0.13081 0.0191 2.23653 0.0699 4.46307 0.2197 6.69955 0.2496 1.4777 0 2.9954 -0.0499 4.4631 -0.0799 1.1682 -0.0599 2.3464 -0.1597 3.5145 -0.2196h1.4877c0.1007 0 0.1972 -0.04 0.2683 -0.1111 0.0712 -0.0712 0.1111 -0.1677 0.1111 -0.2683 0 -0.1007 -0.0399 -0.1972 -0.1111 -0.2683 -0.0711 -0.0712 -0.1676 -0.1111 -0.2683 -0.1111h-1.3978c0.0599 -0.4094 0.1198 -0.8188 0.1498 -1.2381v-0.6889c-0.009 -0.2276 -0.0323 -0.4544 -0.0699 -0.679 -0.0887 -0.3951 -0.1986 -0.785 -0.3295 -1.1682h1.6075c0.0493 0.0027 0.0987 -0.0045 0.1452 -0.0213 0.0465 -0.0167 0.0892 -0.0426 0.1255 -0.0761s0.0655 -0.074 0.0859 -0.119 0.0315 -0.0936 0.0328 -0.143c0.0047 -0.0841 -0.024 -0.1666 -0.0799 -0.2297l0.0699 0.05h0.0699c0.0247 0.0435 0.058 0.0816 0.0978 0.1119 0.0398 0.0302 0.0854 0.0521 0.134 0.0643 0.0485 0.0121 0.099 0.0142 0.1484 0.0063 0.0495 -0.008 0.0967 -0.0259 0.139 -0.0527 0.7581 -0.4632 1.3813 -1.1174 1.8072 -1.8971 0.4083 -0.7073 0.6443 -1.5009 0.6889 -2.3164 0.0723 -1.1838 -0.1257 -2.3686 -0.5791 -3.4646Zm-5.2918 9.8846c0 0.2197 0 0.4393 0.0799 0.659 0.0499 0.3994 0.1198 0.7788 0.1797 1.1682l-2.7856 -0.0799c-1.4877 0 -2.9954 -0.0599 -4.4631 0 -1.46772 0.0599 -2.91547 0.1098 -4.37321 0.2097 0.03496 -0.492 0.03496 -0.9858 0 -1.4777 0 -0.3495 -0.07988 -0.6889 -0.13978 -0.9985 -0.05991 -0.3095 -0.18971 -0.8087 -0.23963 -1.2181 1.58753 0.0699 3.17507 0.1398 4.76262 0.1598 1.5875 0.02 2.9953 0 4.463 -0.0799 0.8687 0 1.7274 -0.0998 2.596 -0.1498 0 0.3994 -0.0699 0.7988 -0.0898 1.2181 -0.01 0.1698 0 0.3795 0.0099 0.5891Z" clip-rule="evenodd" stroke-width="1"></path>
</svg>