<svg xmlns="http://www.w3.org/2000/svg" fill="none" viewBox="0 0 48 48" id="Crab--Streamline-Kameleon">
  <desc>
    Crab Streamline Icon: https://streamlinehq.com
  </desc>
  <path fill="#ff78b9" d="M24.0006 48.0037c13.2553 0 24.0006 -10.7453 24.0006 -24.0006 0 -13.2554 -10.7453 -24.00065859 -24.0006 -24.00065859C10.7453 0.00244141 0 10.7477 0 24.0031c0 13.2553 10.7453 24.0006 24.0006 24.0006Z" stroke-width="1"></path>
  <path fill="#ffffff" d="M22.6913 18.3311c0.2315 0 0.4536 -0.092 0.6173 -0.2557 0.1637 -0.1637 0.2556 -0.3857 0.2556 -0.6173 0 -0.2315 -0.0919 -0.4535 -0.2556 -0.6172 -0.1637 -0.1637 -0.3858 -0.2557 -0.6173 -0.2557 -0.2315 0 -0.4536 0.092 -0.6173 0.2557 -0.1637 0.1637 -0.2556 0.3857 -0.2556 0.6172 0 0.2316 0.0919 0.4536 0.2556 0.6173 0.1637 0.1637 0.3858 0.2557 0.6173 0.2557Z" stroke-width="1"></path>
  <path fill="#ffffff" d="M25.3095 18.3311c0.2315 0 0.4535 -0.092 0.6172 -0.2557 0.1637 -0.1637 0.2557 -0.3857 0.2557 -0.6173 0 -0.2315 -0.092 -0.4535 -0.2557 -0.6172 -0.1637 -0.1637 -0.3857 -0.2557 -0.6172 -0.2557 -0.2316 0 -0.4536 0.092 -0.6173 0.2557 -0.1637 0.1637 -0.2557 0.3857 -0.2557 0.6172 0 0.2316 0.092 0.4536 0.2557 0.6173 0.1637 0.1637 0.3857 0.2557 0.6173 0.2557Z" stroke-width="1"></path>
  <path fill="#000000" fill-rule="evenodd" d="M20.8093 10.1033c0.0486 -0.0003 0.096 0.0158 0.1345 0.0455 0.0385 0.0298 0.066 0.0715 0.078 0.1187 0.012 0.0471 0.008 0.097 -0.0116 0.1415 -0.0195 0.0446 -0.0534 0.0814 -0.0962 0.1045 -1.3715 0.7392 -2.7247 1.893 -3.5748 3.2296 -0.432 -0.1362 -0.8125 -0.3683 -1.1114 -0.7013 -0.3509 -0.3827 -0.5586 -0.8627 -0.6306 -1.3859 1.9061 -1.0102 3.7869 -1.5435 5.2121 -1.5526ZM15.273 21.3849c-0.8024 0.6438 -1.5608 1.3406 -2.27 2.0858 -0.1649 0.1732 -0.2925 0.3784 -0.3749 0.6029 -0.0823 0.2246 -0.1177 0.4636 -0.1038 0.7023 0.0279 0.4822 0.4407 1.1691 1.087 1.9498 -0.6555 0.6039 -1.3759 1.402 -2.1051 2.4629 -0.5306 0.7724 0.3797 2.7099 0.9155 2.9263 -0.1662 -0.0672 -0.5136 -2.4171 2.1688 -4.3096 0.5756 0.5847 1.1736 1.1468 1.7926 1.6852 -0.7025 0.6206 -1.4889 1.4663 -2.2853 2.6253 -0.5306 0.7724 0.3797 2.7099 0.916 2.9263 -0.1746 -0.0698 -0.5446 -2.6313 2.548 -4.5601 0.6344 0.515 1.2852 1.0094 1.9515 1.4824 -0.8265 0.6371 -1.8206 1.6058 -2.8312 3.0764 -0.5307 0.7724 0.3796 2.7099 0.9155 2.9263 -0.1881 -0.0759 -0.6079 -3.0786 3.4019 -5.0296 0.7057 0.4171 1.266 0.6659 1.571 0.6659h2.8596c0.3155 0 0.8784 -0.247 1.5818 -0.6611 3.9985 1.9514 3.5796 4.9485 3.3906 5.0244 0.5368 -0.2165 1.4466 -2.154 0.9164 -2.9263 -1.0075 -1.4654 -1.9972 -2.4315 -2.8224 -3.0691 0.6658 -0.4736 1.316 -0.969 1.9493 -1.4854 3.0851 1.9279 2.7155 4.4859 2.5418 4.5562 0.5363 -0.2164 1.4462 -2.1539 0.916 -2.9263 -0.7964 -1.1573 -1.581 -2.003 -2.2827 -2.6226 0.6174 -0.5398 1.2138 -1.1031 1.7878 -1.6888 2.6837 1.8925 2.3368 4.2429 2.1701 4.3101 0.5363 -0.216 1.4466 -2.1535 0.916 -2.9259 -0.7305 -1.0622 -1.4514 -1.8612 -2.1077 -2.4655 0.6467 -0.7833 1.0604 -1.4706 1.0883 -1.9472 0.014 -0.2386 -0.0211 -0.4776 -0.1033 -0.7021 -0.0821 -0.2245 -0.2094 -0.4298 -0.3741 -0.6031 -0.7092 -0.7452 -1.4676 -1.442 -2.27 -2.0858 2.2211 -0.8544 3.5032 -1.6308 4.2437 -2.2604 0.3439 -0.1545 0.6153 -0.3827 0.7951 -0.6943 0.9208 -1.6006 -1.4618 -4.6932 -5.363 -6.7743 -0.072 0.5232 -0.2793 1.0032 -0.6302 1.3859 -1.3518 1.5055 -4.3192 0.9557 -6.268 -1.1795 -0.0642 -0.0704 -0.1497 -0.1178 -0.2434 -0.1351 -0.0937 -0.0172 -0.1904 -0.0034 -0.2755 0.0395 -0.085 0.0429 -0.1537 0.1124 -0.1956 0.198 -0.0418 0.0856 -0.0545 0.1825 -0.0361 0.2759 0.5031 2.5764 4.2656 5.2872 7.6549 6.4924 -0.3151 -0.1121 -0.6265 -0.234 -0.9339 -0.3657l-1.1118 1.3903c-1.8298 -1.0612 -3.9964 -1.8637 -6.3637 -1.8637 -2.3673 0 -4.5339 0.8029 -6.3641 1.8633l-1.1084 -1.3855c-0.6087 0.2643 -1.2357 0.4845 -1.876 0.6589 3.5949 -0.994 8.0437 -3.9727 8.594 -6.79 0.0177 -0.0932 0.0045 -0.1897 -0.0375 -0.2748 -0.042 -0.0851 -0.1105 -0.1543 -0.1953 -0.197 -0.0847 -0.0427 -0.1811 -0.0567 -0.2745 -0.0398 -0.0934 0.0168 -0.1788 0.0636 -0.2433 0.1333 -1.9488 2.1352 -4.9157 2.685 -6.2676 1.1795 -0.3509 -0.3827 -0.5586 -0.8627 -0.6306 -1.3859 -3.9012 2.0811 -6.28421 5.1737 -5.3635 6.7743 0.1798 0.3111 0.4508 0.5393 0.7942 0.6934 0.741 0.6301 2.0239 1.4069 4.2451 2.2613Zm11.9187 -11.2816c-0.0487 -0.0004 -0.0961 0.0156 -0.1347 0.0453 -0.0386 0.0297 -0.0661 0.0715 -0.0782 0.1187 -0.0121 0.0471 -0.008 0.097 0.0115 0.1416s0.0534 0.0814 0.0962 0.1046c1.372 0.7392 2.7252 1.893 3.5753 3.2296 0.432 -0.1362 0.8125 -0.3683 1.1114 -0.7013 0.3508 -0.3827 0.5581 -0.8627 0.6306 -1.3859 -1.907 -1.0102 -3.7878 -1.5435 -5.2121 -1.5526Z" clip-rule="evenodd" stroke-width="1"></path>
  <path fill="#ffffff" d="M18.0214 23.6353c-0.1444 -0.1928 -0.7853 -1.047 -0.4363 -1.3088 0.349 -0.2617 0.9899 0.5925 1.1343 0.7853 0.144 0.1928 0.6291 1.1644 0.4363 1.3088 -0.1929 0.1448 -0.9904 -0.5925 -1.1343 -0.7853Z" stroke-width="1"></path>
  <path fill="#ffffff" d="M20.6698 21.8858c-0.0467 -0.2364 -0.2531 -1.2843 0.1753 -1.3685 0.4276 -0.0842 0.6344 0.9637 0.6806 1.2001 0.0463 0.2365 0.0611 1.3219 -0.1754 1.3686 -0.2364 0.0467 -0.6339 -0.9637 -0.6805 -1.2002Z" stroke-width="1"></path>
  <path fill="#ffffff" d="M23.5639 21.8475c0.0013 -0.2408 0.0092 -1.3088 0.4455 -1.3057 0.4362 0.003 0.4284 1.071 0.4266 1.3118 -0.0017 0.2408 -0.2046 1.3075 -0.4458 1.3058 -0.2409 -0.0018 -0.428 -1.0711 -0.4263 -1.3119Z" stroke-width="1"></path>
  <path fill="#ffffff" d="M29.9798 23.6353c0.1444 -0.1928 0.7853 -1.047 0.4362 -1.3088 -0.349 -0.2617 -0.9898 0.5925 -1.1343 0.7853 -0.1444 0.1928 -0.629 1.1644 -0.4362 1.3088 0.1928 0.1448 0.9899 -0.5925 1.1343 -0.7853Z" stroke-width="1"></path>
  <path fill="#ffffff" d="M27.3318 21.8858c0.0467 -0.2364 0.2526 -1.2843 -0.1753 -1.3685 -0.428 -0.0842 -0.6344 0.9637 -0.6806 1.2001 -0.0463 0.2365 -0.0611 1.3219 0.1754 1.3686 0.2364 0.0467 0.6339 -0.9637 0.6805 -1.2002Z" stroke-width="1"></path>
</svg>