<svg xmlns="http://www.w3.org/2000/svg" fill="none" viewBox="0 0 24 24" id="Skype-Logo--Streamline-Ultimate">
  <desc>
    Skype Logo Streamline Icon: https://streamlinehq.com
  </desc>
  <path stroke="#000000" stroke-linecap="round" stroke-linejoin="round" d="M1.51032 12c-0.00908 1.532 0.31783 3.0473 0.95771 4.4393 0.63987 1.3919 1.57714 2.6266 2.7458 3.6172 1.16866 0.9905 2.54029 1.7128 4.01828 2.116 1.47799 0.4031 3.02639 0.4773 4.53619 0.2173 0.1199 -0.0208 0.2434 0.0004 0.3496 0.0599 0.914 0.5179 1.9466 0.7898 2.9971 0.7893 1.0796 -0.0033 2.1393 -0.2906 3.0728 -0.833s1.7078 -1.3209 2.2453 -2.2572c0.5375 -0.9363 0.8192 -1.9975 0.8169 -3.0771 -0.0024 -1.0797 -0.2887 -2.1397 -0.8303 -3.0736 -0.0622 -0.1053 -0.0869 -0.2286 -0.0699 -0.3497 0.086 -0.5452 0.1294 -1.0964 0.1299 -1.6484 0.0068 -1.5281 -0.3206 -3.03921 -0.9594 -4.42743 -0.6387 -1.38823 -1.5734 -2.61997 -2.7384 -3.60889 -1.165 -0.98892 -2.5321 -1.71109 -4.0057 -2.1159 -1.4735 -0.40481 -3.0178 -0.48246 -4.5245 -0.22752 -0.12 0.02082 -0.2435 -0.00035 -0.34964 -0.05994C8.98922 1.0386 7.95642 0.763187 6.90501 0.761108 5.8237 0.760921 4.76143 1.04565 3.82517 1.58662c-0.93626 0.54098 -1.71346 1.31909 -2.25331 2.25599C1.032 4.77952 0.748532 5.84213 0.750006 6.92344c0.001474 1.08131 0.287834 2.14314 0.830244 3.07856 0.05883 0.1065 0.07995 0.2297 0.05994 0.3497 -0.08631 0.5452 -0.12973 1.0963 -0.12987 1.6483ZM12.1099 5.00693c3.1669 0.18981 4.9951 1.58843 5.2049 2.89714 0.0249 0.19928 0.0047 0.40161 -0.0592 0.59201s-0.1698 0.36399 -0.3099 0.5079c-0.14 0.14392 -0.3107 0.25447 -0.4993 0.32347 -0.1886 0.069 -0.3903 0.09469 -0.5902 0.07515 -1.4286 0 -1.5785 -1.91811 -4.046 -1.91811 -1.1089 0 -2.058 0.46954 -2.058 1.46855 0 2.10796 7.9122 0.87914 7.9122 5.52456 0 2.6774 -2.1279 4.4256 -5.3148 4.4256 -2.7972 0 -5.61442 -1.2787 -5.59444 -3.4665 -0.01106 -0.3194 0.10272 -0.6305 0.3172 -0.8673 0.21448 -0.2369 0.51279 -0.3809 0.83166 -0.4015 1.64838 0 1.6284 2.4576 4.25578 2.4576 1.8382 0 2.4676 -0.999 2.4676 -1.7083 0 -2.5375 -7.99213 -0.999 -7.99213 -5.75437 0.03996 -2.58745 2.15788 -4.3657 5.47463 -4.1559Z" stroke-width="1"></path>
</svg>