<svg xmlns="http://www.w3.org/2000/svg" fill="none" viewBox="0 0 14 14" id="Battery-Charging--Streamline-Flex">
  <desc>
    Battery Charging Streamline Icon: https://streamlinehq.com
  </desc>
  <g id="battery-charging--phone-mobile-charge-device-electricity-power-battery-charging">
    <path id="Vector" fill="#ffffff" d="M8.14586 3.82438c0 -0.44281 -0.53313 -0.66707 -0.84966 -0.35741L3.9189 6.77103c-0.32031 0.31337 -0.09845 0.85741 0.34965 0.85741h1.32562V10.323c0 0.4428 0.53313 0.6671 0.84966 0.3574l3.3773 -3.30404c0.32027 -0.31336 0.09845 -0.85741 -0.34965 -0.85741H8.14586V3.82438Z" stroke-width="1"></path>
    <path id="Subtract" fill="#d7e0ff" fill-rule="evenodd" d="M2.55951 2.79703c-0.7191 0.06418 -1.30345 0.62259 -1.40723 1.33705 -0.13447 0.9257 -0.273374 1.8842 -0.273374 2.86594 0 0.98175 0.138904 1.94024 0.273374 2.86594 0.10378 0.71444 0.68813 1.27284 1.40723 1.33704l0.2135 0.0191c1.18299 0.106 2.40934 0.2159 3.6662 0.2159 1.25683 0 2.48315 -0.1099 3.66609 -0.2159l0.0001 0 0.2135 -0.0191c0.7191 -0.0642 1.3034 -0.6226 1.4072 -1.33704 0.0197 -0.13571 0.0396 -0.27213 0.059 -0.40923 0.1257 -0.01211 0.2502 -0.02772 0.3735 -0.04491 0.4751 -0.06627 0.8434 -0.46483 0.8838 -0.94283 0.0402 -0.47607 0.0783 -0.96708 0.0783 -1.46896s-0.0381 -0.9929 -0.0783 -1.46897c-0.0403 -0.47799 -0.4087 -0.87656 -0.8838 -0.94282 -0.1233 -0.0172 -0.2478 -0.03281 -0.3735 -0.04491 -0.0194 -0.1371 -0.0393 -0.27353 -0.059 -0.40925 -0.1038 -0.71446 -0.6881 -1.27287 -1.4072 -1.33705l-0.2135 -0.01911c-1.18301 -0.10601 -2.40935 -0.21591 -3.66619 -0.21591 -1.25685 0 -2.48319 0.1099 -3.66618 0.21591l-0.21352 0.01911Zm4.73642 0.66994c0.31653 -0.30966 0.84965 -0.0854 0.84965 0.35741v2.69457H9.4712c0.4481 0 0.67 0.54405 0.34966 0.85741L6.44355 10.6804c-0.31653 0.3097 -0.84965 0.0854 -0.84965 -0.3574V7.62844H4.26828c-0.4481 0 -0.66997 -0.54404 -0.34966 -0.85741l3.37731 -3.30406Z" clip-rule="evenodd" stroke-width="1"></path>
    <path id="Union" stroke="#4147d5" stroke-linecap="round" stroke-linejoin="round" d="M4.49684 2.63574c-0.58356 0.04001 -1.15863 0.09155 -1.72381 0.14219 -0.07133 0.0064 -0.1425 0.01277 -0.21352 0.01911 -0.7191 0.06419 -1.30345 0.6226 -1.40723 1.33706 -0.13447 0.9257 -0.273374 1.8842 -0.273374 2.86594 0 0.98175 0.138904 1.94024 0.273374 2.86594 0.10378 0.71442 0.68813 1.27282 1.40723 1.33702 0.07101 0.0064 0.14217 0.0128 0.21349 0.0191 0.34826 0.0313 0.70028 0.0628 1.05573 0.0918" stroke-width="1"></path>
    <path id="Union_2" stroke="#4147d5" stroke-linecap="round" stroke-linejoin="round" d="M10.1055 2.77783c0.0713 0.00639 0.1425 0.01277 0.2135 0.01911 0.7191 0.06419 1.3035 0.6226 1.4073 1.33706 0.0197 0.13572 0.0395 0.27214 0.0589 0.40924 0.1257 0.01211 0.2503 0.02772 0.3736 0.04492 0.4751 0.06626 0.8434 0.46483 0.8837 0.94282 0.0402 0.47607 0.0783 0.96709 0.0783 1.46896 0 0.50188 -0.0381 0.9929 -0.0783 1.46897 -0.0403 0.47799 -0.4086 0.87656 -0.8837 0.94282 -0.1233 0.0172 -0.2479 0.03281 -0.3736 0.04492 -0.0194 0.13709 -0.0392 0.27351 -0.0589 0.40923 -0.1038 0.71442 -0.6882 1.27282 -1.4073 1.33702 -0.071 0.0064 -0.1422 0.0128 -0.2135 0.0191 -0.34825 0.0313 -0.70026 0.0628 -1.0557 0.0918" stroke-width="1"></path>
    <path id="Vector_2" stroke="#4147d5" stroke-linecap="round" stroke-linejoin="round" d="M8.14586 3.82438c0 -0.44281 -0.53313 -0.66707 -0.84966 -0.35741L3.9189 6.77103c-0.32031 0.31337 -0.09845 0.85741 0.34965 0.85741h1.32562V10.323c0 0.4428 0.53313 0.6671 0.84966 0.3574l3.3773 -3.30404c0.32027 -0.31336 0.09845 -0.85741 -0.34965 -0.85741H8.14586V3.82438Z" stroke-width="1"></path>
  </g>
</svg>