<svg xmlns="http://www.w3.org/2000/svg" fill="none" viewBox="0 0 14 14" id="Printer-Wireless--Streamline-Flex">
  <desc>
    Printer Wireless Streamline Icon: https://streamlinehq.com
  </desc>
  <g id="printer--wireless-wifi-internet-server-network-smart-control-printer-connection">
    <path id="Vector 142" fill="#ffffff" d="M7.016 10.845c0.36 0.278 0.51 1.128 0.552 1.897 0.016 0.276 -0.21 0.5 -0.486 0.5H2.99a0.479 0.479 0 0 1 -0.486 -0.5c0.042 -0.769 0.191 -1.62 0.552 -1.897h3.96Z" stroke-width="1"></path>
    <path id="Subtract" fill="#d7e0ff" fill-rule="evenodd" d="M0.756 10.702V9.648c0 -1.027 0.343 -2.054 1.712 -2.054h5.135c1.37 0 1.712 1.027 1.712 2.054v1.054a1 1 0 0 1 -1 1h-0.882c-0.088 -0.385 -0.221 -0.706 -0.417 -0.857h-3.96c-0.197 0.151 -0.33 0.472 -0.418 0.857h-0.882a1 1 0 0 1 -1 -1Z" clip-rule="evenodd" stroke-width="1"></path>
    <path id="Vector 141" stroke="#4147d5" stroke-linecap="round" stroke-linejoin="round" d="M7.016 10.845c0.36 0.278 0.51 1.128 0.552 1.897 0.016 0.276 -0.21 0.5 -0.486 0.5H2.99a0.479 0.479 0 0 1 -0.486 -0.5c0.042 -0.769 0.191 -1.62 0.552 -1.897h3.96Z" stroke-width="1"></path>
    <path id="Vector" stroke="#4147d5" stroke-linecap="round" stroke-linejoin="round" d="M8.919 0.758a4.325 4.325 0 0 1 4.325 4.325" stroke-width="1"></path>
    <path id="Vector_2" stroke="#4147d5" stroke-linecap="round" stroke-linejoin="round" d="M8.919 3.583a1.5 1.5 0 0 1 1.5 1.5" stroke-width="1"></path>
    <path id="Vector 139" stroke="#4147d5" stroke-linecap="round" stroke-linejoin="round" d="M7.774 7.593H2.297V5.355a0.5 0.5 0 0 1 0.5 -0.5h3.646" stroke-width="1"></path>
    <path id="Vector 138" stroke="#4147d5" stroke-linecap="round" stroke-linejoin="round" d="M2.644 11.702h-0.888a1 1 0 0 1 -1 -1V9.648c0 -1.027 0.343 -2.054 1.712 -2.054h5.135c1.37 0 1.712 1.027 1.712 2.054v1.054a1 1 0 0 1 -1 1h-0.882" stroke-width="1"></path>
  </g>
</svg>