<svg xmlns="http://www.w3.org/2000/svg" fill="none" viewBox="0 0 24 24" id="Ads-Window--Streamline-Ultimate">
  <desc>
    Ads Window Streamline Icon: https://streamlinehq.com
  </desc>
  <path fill="#66e1ff" d="M1 1.95652c0 -0.25368 0.10078 -0.49698 0.28016 -0.67636C1.45954 1.10078 1.70284 1 1.95652 1H22.0435c0.2537 0 0.497 0.10078 0.6763 0.28016 0.1794 0.17938 0.2802 0.42268 0.2802 0.67636V22.0435c0 0.2537 -0.1008 0.497 -0.2802 0.6763 -0.1793 0.1794 -0.4226 0.2802 -0.6763 0.2802H1.95652c-0.25368 0 -0.49698 -0.1008 -0.67636 -0.2802C1.10078 22.5405 1 22.2972 1 22.0435V1.95652Z" stroke-width="1"></path>
  <path fill="#c2f3ff" d="M22.0435 1H1.95652c-0.25368 0 -0.49698 0.10078 -0.67636 0.28016C1.10078 1.45954 1 1.70284 1 1.95652V22.0435c0.00065 0.1264 0.02635 0.2514 0.0756 0.3678s0.12109 0.2219 0.21136 0.3104L22.7217 1.28696c-0.0883 -0.09061 -0.1937 -0.16267 -0.3102 -0.21195 -0.1164 -0.04928 -0.2416 -0.07478 -0.368 -0.07501Z" stroke-width="1"></path>
  <path stroke="#191919" stroke-linecap="round" stroke-linejoin="round" d="M1 1.95652c0 -0.25368 0.10078 -0.49698 0.28016 -0.67636C1.45954 1.10078 1.70284 1 1.95652 1H22.0435c0.2537 0 0.497 0.10078 0.6763 0.28016 0.1794 0.17938 0.2802 0.42268 0.2802 0.67636V22.0435c0 0.2537 -0.1008 0.497 -0.2802 0.6763 -0.1793 0.1794 -0.4226 0.2802 -0.6763 0.2802H1.95652c-0.25368 0 -0.49698 -0.1008 -0.67636 -0.2802C1.10078 22.5405 1 22.2972 1 22.0435V1.95652Z" stroke-width="1"></path>
  <path stroke="#191919" stroke-linecap="round" stroke-linejoin="round" d="M16.3037 9.6087h-0.9566c-0.2536 0 -0.4969 0.10078 -0.6763 0.28016 -0.1794 0.17934 -0.2802 0.42264 -0.2802 0.67634 0 1.4348 1.9131 1.4348 1.9131 2.8696 0 0.2537 -0.1008 0.497 -0.2802 0.6764 -0.1794 0.1793 -0.4227 0.2801 -0.6764 0.2801h-0.9565" stroke-width="1"></path>
  <path stroke="#191919" stroke-linecap="round" stroke-linejoin="round" d="M6.73926 14.3913v-3.8261c0 -0.2537 0.10077 -0.497 0.28016 -0.67634 0.17938 -0.17938 0.42267 -0.28016 0.67636 -0.28016 0.25368 0 0.49698 0.10078 0.67636 0.28016 0.17939 0.17934 0.28016 0.42264 0.28016 0.67634v3.8261" stroke-width="1"></path>
  <path stroke="#191919" stroke-linecap="round" stroke-linejoin="round" d="M6.73926 12.4783H8.6523" stroke-width="1"></path>
  <path stroke="#191919" stroke-linecap="round" stroke-linejoin="round" d="M10.5649 14.3913c0.2513 0 0.5 -0.0495 0.7321 -0.1456 0.2321 -0.0961 0.443 -0.2371 0.6207 -0.4147 0.1776 -0.1776 0.3185 -0.3885 0.4147 -0.6206 0.0961 -0.2321 0.1456 -0.4809 0.1456 -0.7321v-0.9566c0 -0.5073 -0.2016 -0.9939 -0.5603 -1.3527 -0.3588 -0.35874 -0.8454 -0.5603 -1.3528 -0.5603v4.7826Z" stroke-width="1"></path>
  <path stroke="#191919" stroke-linecap="round" stroke-linejoin="round" d="m21.0869 5.78265 -2.8696 -2.86956" stroke-width="1"></path>
  <path stroke="#191919" stroke-linecap="round" stroke-linejoin="round" d="m21.0869 2.91309 -2.8696 2.86956" stroke-width="1"></path>
</svg>