<svg xmlns="http://www.w3.org/2000/svg" fill="none" viewBox="0 0 24 24" id="Analytics-Pie-2--Streamline-Ultimate">
  <desc>
    Analytics Pie 2 Streamline Icon: https://streamlinehq.com
  </desc>
  <path fill="#ff808c" stroke="#191919" stroke-linecap="round" stroke-linejoin="round" d="M13.4346 10.0869c0 0.1269 0.0504 0.2486 0.14 0.3383 0.0897 0.0896 0.2114 0.14 0.3382 0.14h9.087c0 -2.53684 -1.0078 -4.96979 -2.8016 -6.76362C18.4044 2.00776 15.9715 1 13.4346 1v9.0869Z" stroke-width="1"></path>
  <path fill="#c9f7ca" d="M20.2027 19.2418c0.8888 -0.8875 1.5935 -1.9419 2.0735 -3.1026 0.48 -1.1608 0.7258 -2.4049 0.7234 -3.6609h-9.0869c-0.2631 0 -0.3262 0.1521 -0.1406 0.3376l6.4306 6.4259Z" stroke-width="1"></path>
  <path fill="#78eb7b" d="M20.6083 12.4783c-0.2535 1.8261 -1.0321 3.5391 -2.2411 4.9308l1.8336 1.8327c0.8892 -0.8873 1.5942 -1.9417 2.0744 -3.1024 0.4804 -1.1608 0.7265 -2.4049 0.7244 -3.6611h-2.3913Z" stroke-width="1"></path>
  <path stroke="#191919" stroke-linecap="round" stroke-linejoin="round" d="M20.2027 19.2418c0.8888 -0.8875 1.5935 -1.9419 2.0735 -3.1026 0.48 -1.1608 0.7258 -2.4049 0.7234 -3.6609h-9.0869c-0.2631 0 -0.3262 0.1521 -0.1406 0.3376l6.4306 6.4259Z" stroke-width="1"></path>
  <path fill="#fff9bf" d="M10.5653 3.86951c-1.57298 -0.00002 -3.12172 0.38789 -4.50901 1.1294C4.66901 5.7404 3.486 6.8126 2.61207 8.1205c-0.87393 1.30791 -1.41181 2.8112 -1.566 4.3766 -0.154194 1.5655 0.08007 3.1448 0.68203 4.598 0.60197 1.4534 1.55306 2.7357 2.76901 3.7336 1.21596 0.998 2.65926 1.6805 4.20206 1.9875 1.54273 0.3068 3.13753 0.2285 4.64273 -0.2282 1.5053 -0.4566 2.8748 -1.2774 3.987 -2.3897l-6.4259 -6.4259c-0.202 -0.2257 -0.3211 -0.5135 -0.3377 -0.8159V3.86951Z" stroke-width="1"></path>
  <path fill="#ffef5e" d="M5.78217 17.959c-1.17734 -0.6799 -2.19596 -1.6033 -2.98774 -2.7085 -0.79178 -1.1052 -1.33849 -2.3667 -1.60356 -3.7002 -0.402127 2.0121 -0.14658 4.1002 0.72892 5.9559 0.87549 1.8557 2.32452 3.3807 4.13311 4.3498 1.8086 0.9691 3.88088 1.3309 5.9109 1.0321 2.03 -0.2989 3.91 -1.2426 5.3626 -2.6918l-2.1502 -2.1512c-1.4408 0.7957 -3.0625 1.2059 -4.7083 1.1908 -1.64583 -0.0151 -3.25983 -0.4549 -4.68573 -1.2769Z" stroke-width="1"></path>
  <path stroke="#191919" stroke-linecap="round" stroke-linejoin="round" d="M10.5653 3.86951c-1.57298 -0.00002 -3.12172 0.38789 -4.50901 1.1294C4.66901 5.7404 3.486 6.8126 2.61207 8.1205c-0.87393 1.30791 -1.41181 2.8112 -1.566 4.3766 -0.154194 1.5655 0.08007 3.1448 0.68203 4.598 0.60197 1.4534 1.55306 2.7357 2.76901 3.7336 1.21596 0.998 2.65926 1.6805 4.20206 1.9875 1.54273 0.3068 3.13753 0.2285 4.64273 -0.2282 1.5053 -0.4566 2.8748 -1.2774 3.987 -2.3897l-6.4259 -6.4259c-0.202 -0.2257 -0.3211 -0.5135 -0.3377 -0.8159V3.86951Z" stroke-width="1"></path>
</svg>