<svg xmlns="http://www.w3.org/2000/svg" fill="none" viewBox="0 0 24 24" id="Business-Rabbit-Hat-1--Streamline-Ultimate">
  <desc>
    Business Rabbit Hat 1 Streamline Icon: https://streamlinehq.com
  </desc>
  <path fill="#b2b2b2" d="M18.3111 22.7922c-0.0512 0.0639 -0.1162 0.1158 -0.1898 0.1516 -0.0738 0.036 -0.1546 0.0552 -0.2366 0.0562H5.57243c-0.08208 -0.001 -0.16279 -0.0202 -0.23653 -0.0562 -0.07374 -0.0358 -0.13864 -0.0877 -0.18999 -0.1516 -0.04959 -0.0644 -0.08503 -0.1387 -0.10388 -0.218 -0.01886 -0.0791 -0.02072 -0.1613 -0.0054 -0.2413l1.0716 -4.8002H17.3489l1.0606 4.8002c0.02 0.079 0.0213 0.1615 0.0043 0.2411 -0.0169 0.0797 -0.0522 0.1543 -0.1027 0.2182Z" stroke-width="1"></path>
  <path fill="#808080" d="M17.4418 17.9548c-1.5809 1.3862 -3.6118 2.1504 -5.7144 2.1504 -2.10252 0 -4.13341 -0.7642 -5.71431 -2.1504l-0.97646 4.3738c-0.01532 0.0799 -0.01346 0.1621 0.0054 0.2413 0.01885 0.0792 0.05419 0.1535 0.10388 0.2179 0.05135 0.0641 0.11615 0.1162 0.18989 0.1522 0.07374 0.0361 0.15455 0.0555 0.23663 0.0566H17.8847c0.0821 -0.0011 0.1629 -0.0205 0.2367 -0.0566 0.0736 -0.036 0.1385 -0.0881 0.1897 -0.1522 0.0505 -0.0638 0.0857 -0.1385 0.1027 -0.2182 0.017 -0.0795 0.0157 -0.1621 -0.0043 -0.241l-0.9677 -4.3738Z" stroke-width="1"></path>
  <path fill="#ff808c" stroke="#191919" stroke-linecap="round" stroke-linejoin="round" d="M17.3491 17.5327H6.1084l0.97312 -4.3738h9.29438l0.9732 4.3738Z" stroke-width="1"></path>
  <path stroke="#191919" stroke-linecap="round" stroke-linejoin="round" d="M18.3111 22.7922c-0.0512 0.0639 -0.1162 0.1158 -0.1898 0.1516 -0.0738 0.036 -0.1546 0.0552 -0.2366 0.0562H5.57243c-0.08208 -0.001 -0.16279 -0.0202 -0.23653 -0.0562 -0.07374 -0.0358 -0.13864 -0.0877 -0.18999 -0.1516 -0.04959 -0.0644 -0.08503 -0.1387 -0.10388 -0.218 -0.01886 -0.0791 -0.02072 -0.1613 -0.0054 -0.2413l1.0716 -4.8002H17.3489l1.0606 4.8002c0.02 0.079 0.0213 0.1615 0.0043 0.2411 -0.0169 0.0797 -0.0522 0.1543 -0.1027 0.2182Z" stroke-width="1"></path>
  <path stroke="#191919" stroke-linecap="round" stroke-linejoin="round" d="M3.25244 13.1589H20.7477" stroke-width="1"></path>
  <path fill="#ffffff" stroke="#191919" stroke-linecap="round" stroke-linejoin="round" d="M10.9065 13.1589c-0.2937 -2.9577 -0.8424 -5.88444 -1.64021 -8.74766C8.33578 1.61853 6.99514 0.612605 5.43918 1.13093c-1.6402 0.5467 -1.0935 2.18691 -0.5467 4.37382 0.5468 2.1869 2.73361 7.65415 2.73361 7.65415h3.28041Z" stroke-width="1"></path>
  <path fill="#ffffff" stroke="#191919" stroke-linecap="round" stroke-linejoin="round" d="m15.2798 13.1588 1.1666 -3.47716c0.3272 0.1738 0.6732 0.30949 1.0312 0.40466 1.3066 0.3476 2.4745 -0.42979 1.8588 -1.84034 -0.5415 -1.08034 -1.3107 -2.03049 -2.2546 -2.78506 -0.7086 -0.62761 -1.9114 -1.71011 -2.9262 -1.03763 -1.92 1.27927 -2.703 8.73553 -2.703 8.73553h3.8272Z" stroke-width="1"></path>
</svg>