<svg xmlns="http://www.w3.org/2000/svg" fill="none" viewBox="0 0 24 24" id="Business-Big-Small-Fish--Streamline-Ultimate">
  <desc>
    Business Big Small Fish Streamline Icon: https://streamlinehq.com
  </desc>
  <path fill="#66e1ff" d="M14.9945 8.99523C13.701 6.65314 11.8328 5.9964 9.49669 5.9964c-1.41528 0.00143 -2.78447 0.5033 -3.86541 1.41686S3.82729 9.59321 3.58999 10.9885L1.87366 9.00922c-0.06708 -0.0756 -0.15549 -0.12909 -0.25359 -0.15341 -0.0981 -0.02432 -0.20127 -0.01833 -0.29589 0.01718 -0.09462 0.03551 -0.17626 0.09887 -0.23413 0.18173 -0.05788 0.08286 -0.08927 0.18131 -0.09005 0.28238v5.3139c-0.000145 0.102 0.0309 0.2016 0.08898 0.2854 0.05807 0.0838 0.14039 0.1479 0.23592 0.1835 0.09552 0.0357 0.19967 0.0413 0.29848 0.0161 0.0988 -0.0252 0.18753 -0.08 0.25428 -0.1571l1.70833 -1.9792c0.23741 1.3959 0.96105 2.6628 2.04282 3.5764 1.08177 0.9137 2.45191 1.4151 3.86788 1.4156 1.10611 0.0707 2.20961 -0.1735 3.18261 -0.7043 0.973 -0.5307 1.7758 -1.3263 2.3152 -2.2945l-3.9984 -2.9988 3.9984 -2.99887Z" stroke-width="1"></path>
  <path fill="#c2f3ff" d="M5.26834 14.2192c-0.00025 -1.0865 0.29586 -2.1524 0.85644 -3.0831 0.56057 -0.9306 1.36438 -1.69075 2.32488 -2.19851 0.9605 -0.50775 2.04134 -0.7439 3.12604 -0.68302 1.0848 0.06089 2.1323 0.4165 3.03 1.02855l0.3888 -0.28789C13.701 6.65314 11.8328 5.9964 9.49669 5.9964c-1.41528 0.00143 -2.78447 0.5033 -3.86541 1.41686S3.82729 9.59321 3.58999 10.9885L1.87366 9.00922c-0.06708 -0.0756 -0.15549 -0.12909 -0.25359 -0.15341 -0.0981 -0.02432 -0.20127 -0.01833 -0.29589 0.01718 -0.09462 0.03551 -0.17626 0.09887 -0.23413 0.18173 -0.05788 0.08286 -0.08927 0.18131 -0.09005 0.28238v5.3139c-0.000145 0.102 0.0309 0.2016 0.08898 0.2854 0.05807 0.0838 0.14039 0.1479 0.23592 0.1835 0.09552 0.0357 0.19967 0.0413 0.29848 0.0161 0.0988 -0.0252 0.18753 -0.08 0.25428 -0.1571l1.70833 -1.9792c0.25385 1.4722 1.05028 2.7957 2.23213 3.7095 -0.3617 -0.7803 -0.5493 -1.6299 -0.54978 -2.49Z" stroke-width="1"></path>
  <path stroke="#191919" stroke-linecap="round" stroke-linejoin="round" d="M14.9945 8.99523C13.701 6.65314 11.8328 5.9964 9.49669 5.9964c-1.41528 0.00143 -2.78447 0.5033 -3.86541 1.41686S3.82729 9.59321 3.58999 10.9885L1.87366 9.00922c-0.06708 -0.0756 -0.15549 -0.12909 -0.25359 -0.15341 -0.0981 -0.02432 -0.20127 -0.01833 -0.29589 0.01718 -0.09462 0.03551 -0.17626 0.09887 -0.23413 0.18173 -0.05788 0.08286 -0.08927 0.18131 -0.09005 0.28238v5.3139c-0.000145 0.102 0.0309 0.2016 0.08898 0.2854 0.05807 0.0838 0.14039 0.1479 0.23592 0.1835 0.09552 0.0357 0.19967 0.0413 0.29848 0.0161 0.0988 -0.0252 0.18753 -0.08 0.25428 -0.1571l1.70833 -1.9792c0.23741 1.3959 0.96105 2.6628 2.04282 3.5764 1.08177 0.9137 2.45191 1.4151 3.86788 1.4156 1.10611 0.0707 2.20961 -0.1735 3.18261 -0.7043 0.973 -0.5307 1.7758 -1.3263 2.3152 -2.2945l-3.9984 -2.9988 3.9984 -2.99887Z" stroke-width="1"></path>
  <path stroke="#191919" stroke-linecap="round" stroke-linejoin="round" d="m8.99678 12.9936 -1.2755 0.6378c-0.0762 0.0382 -0.1609 0.0562 -0.24605 0.0525 -0.08515 -0.0038 -0.16791 -0.0293 -0.24044 -0.0741 -0.07252 -0.0447 -0.13238 -0.1073 -0.17391 -0.1818 -0.04152 -0.0744 -0.06332 -0.1582 -0.06332 -0.2434v-2.8839c0 -0.0852 0.0218 -0.1691 0.06332 -0.2435 0.04153 -0.07442 0.10139 -0.137 0.17391 -0.18177 0.07253 -0.04478 0.15529 -0.07026 0.24044 -0.07404 0.08515 -0.00377 0.16985 0.01429 0.24605 0.05248l1.2755 0.64073" stroke-width="1"></path>
  <path fill="#ffef5e" stroke="#191919" stroke-linecap="round" stroke-linejoin="round" d="M20.9931 9.99477c-0.4244 0.00058 -0.8374 0.13663 -1.1791 0.38833 -0.3416 0.2518 -0.5939 0.606 -0.7202 1.0111l-1.3234 -0.8826c-0.0753 -0.0501 -0.1628 -0.0789 -0.2531 -0.0832 -0.0903 -0.0043 -0.18 0.016 -0.2598 0.0586 -0.0797 0.0427 -0.1463 0.1062 -0.1928 0.1837 -0.0464 0.0776 -0.071 0.1663 -0.071 0.2567v2.1312c0 0.0904 0.0246 0.1791 0.071 0.2566 0.0465 0.0776 0.1131 0.1411 0.1928 0.1837 0.0798 0.0427 0.1695 0.063 0.2598 0.0586 0.0903 -0.0043 0.1778 -0.033 0.2531 -0.0831l1.3234 -0.8806c0.111 0.3528 0.3176 0.6679 0.597 0.9102 0.2793 0.2424 0.6204 0.4025 0.9854 0.4626 0.3649 0.0601 0.7393 0.0178 1.0816 -0.1222 0.3423 -0.14 0.6391 -0.3723 0.8573 -0.6709 0.2182 -0.2986 0.3493 -0.6518 0.3788 -1.0205 0.0294 -0.3687 -0.0441 -0.7383 -0.2122 -1.0677 -0.168 -0.3294 -0.4242 -0.6058 -0.74 -0.7983 -0.3158 -0.1925 -0.6788 -0.29369 -1.0486 -0.29223Z" stroke-width="1"></path>
  <path stroke="#191919" d="M11.496 8.74535c-0.0328 0 -0.0653 -0.00646 -0.0956 -0.01902 -0.0304 -0.01256 -0.0579 -0.03097 -0.0811 -0.05418 -0.0232 -0.0232 -0.0416 -0.05075 -0.0542 -0.08107 -0.0125 -0.03032 -0.019 -0.06281 -0.019 -0.09563s0.0065 -0.06532 0.019 -0.09564c0.0126 -0.03032 0.031 -0.05786 0.0542 -0.08107s0.0507 -0.04161 0.0811 -0.05417c0.0303 -0.01256 0.0628 -0.01903 0.0956 -0.01903" stroke-width="1"></path>
  <path stroke="#191919" d="M11.4961 8.74535c0.0328 0 0.0653 -0.00646 0.0956 -0.01902 0.0303 -0.01256 0.0579 -0.03097 0.0811 -0.05418 0.0232 -0.0232 0.0416 -0.05075 0.0542 -0.08107 0.0125 -0.03032 0.019 -0.06281 0.019 -0.09563s-0.0065 -0.06532 -0.019 -0.09564c-0.0126 -0.03032 -0.031 -0.05786 -0.0542 -0.08107s-0.0508 -0.04161 -0.0811 -0.05417c-0.0303 -0.01256 -0.0628 -0.01903 -0.0956 -0.01903" stroke-width="1"></path>
</svg>