<svg xmlns="http://www.w3.org/2000/svg" fill="none" viewBox="0 0 24 24" id="Cash-Search--Streamline-Ultimate">
  <desc>
    Cash Search Streamline Icon: https://streamlinehq.com
  </desc>
  <path fill="#66e1ff" d="M10.5658 20.1307c5.2822 0 9.5644 -4.2821 9.5644 -9.5644 0 -5.28224 -4.2822 -9.56435 -9.5644 -9.56435 -5.28223 0 -9.56434 4.28211 -9.56434 9.56435 0 5.2823 4.28211 9.5644 9.56434 9.5644Z" stroke-width="1"></path>
  <path fill="#c2f3ff" d="M10.5657 1.00001c-1.89141 -0.0001 -3.74037 0.56049 -5.31312 1.61101 -1.57285 1.05052 -2.79885 2.54373 -3.52311 4.29099 -0.72426 1.74716 -0.914177 3.66999 -0.54585 5.52509 0.36833 1.8552 1.27841 3.5595 2.61527 4.8974L17.3249 3.79954c-0.8868 -0.8889 -1.9404 -1.59374 -3.1003 -2.0742 -1.16 -0.48037 -2.4033 -0.726894 -3.6589 -0.72533Z" stroke-width="1"></path>
  <path stroke="#191919" stroke-linecap="round" stroke-linejoin="round" d="M10.5658 20.1307c5.2822 0 9.5644 -4.2821 9.5644 -9.5644 0 -5.28224 -4.2822 -9.56435 -9.5644 -9.56435 -5.28223 0 -9.56434 4.28211 -9.56434 9.56435 0 5.2823 4.28211 9.5644 9.56434 9.5644Z" stroke-width="1"></path>
  <path stroke="#191919" stroke-linecap="round" stroke-linejoin="round" d="M17.3301 17.3312 22.9998 23" stroke-width="1"></path>
  <path stroke="#191919" stroke-linecap="round" stroke-linejoin="round" d="M10.6348 7.76674V6.8103" stroke-width="1"></path>
  <path stroke="#191919" stroke-linecap="round" stroke-linejoin="round" d="M12.0689 7.76672h-1.9445c-0.29847 -0.00029 -0.58764 0.10336 -0.81787 0.29318 -0.23033 0.18983 -0.38726 0.45392 -0.44387 0.7469 -0.0566 0.29298 -0.00937 0.5966 0.13361 0.85855 0.14308 0.26195 0.37282 0.46585 0.64989 0.57665l1.97324 0.7891c0.2763 0.1112 0.5055 0.3152 0.648 0.5769 0.1425 0.2616 0.1896 0.5649 0.133 0.8575 -0.0566 0.2926 -0.2131 0.5564 -0.4429 0.7461 -0.2298 0.1897 -0.5184 0.2936 -0.8164 0.2938H9.19956" stroke-width="1"></path>
  <path stroke="#191919" stroke-linecap="round" stroke-linejoin="round" d="M10.6348 14.4618v-0.9564" stroke-width="1"></path>
</svg>