<svg xmlns="http://www.w3.org/2000/svg" fill="none" viewBox="0 0 24 24" id="Cash-Briefcase--Streamline-Ultimate">
  <desc>
    Cash Briefcase Streamline Icon: https://streamlinehq.com
  </desc>
  <path fill="#ffbc44" d="M20.1304 6.26184H3.86957c-0.76106 0 -1.49095 0.30233 -2.02909 0.84048C1.30233 7.64046 1 8.37035 1 9.13141v9.56519c0 0.7611 0.30233 1.491 0.84048 2.0291 0.53814 0.5382 1.26803 0.8405 2.02909 0.8405H20.1304c0.7611 0 1.491 -0.3023 2.0291 -0.8405 0.5382 -0.5381 0.8405 -1.268 0.8405 -2.0291V9.13141c0 -0.76106 -0.3023 -1.49095 -0.8405 -2.02909 -0.5381 -0.53815 -1.268 -0.84048 -2.0291 -0.84048Z" stroke-width="1"></path>
  <path fill="#ffdda1" d="M20.1304 6.25989H3.86957c-0.76029 0.00252 -1.48871 0.30566 -2.02631 0.84326 -0.5376 0.5376 -0.84074 1.26602 -0.84326 2.0263V11.999c0.00252 -0.7603 0.30566 -1.4887 0.84326 -2.02629 0.5376 -0.5376 1.26602 -0.84074 2.02631 -0.84326H20.1304c0.7603 0.00252 1.4887 0.30566 2.0263 0.84326 0.5376 0.53759 0.8408 1.26599 0.8433 2.02629V9.12945c-0.0025 -0.76028 -0.3057 -1.4887 -0.8433 -2.0263 -0.5376 -0.5376 -1.266 -0.84074 -2.0263 -0.84326Z" stroke-width="1"></path>
  <path stroke="#191919" stroke-linecap="round" stroke-linejoin="round" d="M20.1304 6.26184H3.86957c-0.76106 0 -1.49095 0.30233 -2.02909 0.84048C1.30233 7.64046 1 8.37035 1 9.13141v9.56519c0 0.7611 0.30233 1.491 0.84048 2.0291 0.53814 0.5382 1.26803 0.8405 2.02909 0.8405H20.1304c0.7611 0 1.491 -0.3023 2.0291 -0.8405 0.5382 -0.5381 0.8405 -1.268 0.8405 -2.0291V9.13141c0 -0.76106 -0.3023 -1.49095 -0.8405 -2.02909 -0.5381 -0.53815 -1.268 -0.84048 -2.0291 -0.84048Z" stroke-width="1"></path>
  <path stroke="#191919" stroke-linecap="round" stroke-linejoin="round" d="M8.65137 6.25992V4.34688c0.00126 -0.50698 0.20322 -0.99284 0.56171 -1.35133 0.35849 -0.35849 0.84432 -0.56045 1.35132 -0.56171h2.8696c0.5069 0.00151 0.9926 0.20355 1.351 0.56199 0.3585 0.35844 0.5605 0.84415 0.562 1.35105v1.91304" stroke-width="1"></path>
  <path stroke="#191919" stroke-linecap="round" stroke-linejoin="round" d="M11.9995 11.0443v-0.9565" stroke-width="1"></path>
  <path stroke="#191919" stroke-linecap="round" stroke-linejoin="round" d="M13.4344 11.0425h-1.9446c-0.298 0.0002 -0.5867 0.1041 -0.8165 0.2939 -0.2298 0.1897 -0.3864 0.4535 -0.4429 0.7461 -0.0566 0.2927 -0.0096 0.5958 0.133 0.8575 0.1425 0.2618 0.3716 0.4658 0.6481 0.577l1.9743 0.7891c0.2771 0.1109 0.5069 0.3148 0.6499 0.5768 0.143 0.2619 0.1903 0.5655 0.1337 0.8586 -0.0567 0.293 -0.2136 0.5571 -0.4439 0.747 -0.2303 0.1898 -0.5195 0.2935 -0.818 0.2931h-1.9427" stroke-width="1"></path>
  <path stroke="#191919" stroke-linecap="round" stroke-linejoin="round" d="M11.9995 17.7401v-0.9565" stroke-width="1"></path>
</svg>