<svg xmlns="http://www.w3.org/2000/svg" fill="none" viewBox="0 0 24 24" id="Data-File-Graph--Streamline-Ultimate">
  <desc>
    Data File Graph Streamline Icon: https://streamlinehq.com
  </desc>
  <path fill="#e3e3e3" d="M20.8086 4.82609c0.1794 0.17934 0.2802 0.42259 0.2803 0.67626V22.0435c0 0.2537 -0.1008 0.497 -0.2802 0.6763 -0.1794 0.1794 -0.4227 0.2802 -0.6764 0.2802H3.86765c-0.25368 0 -0.49698 -0.1008 -0.67636 -0.2802 -0.17938 -0.1793 -0.28016 -0.4226 -0.28016 -0.6763V1.95652c0 -0.25368 0.10078 -0.49698 0.28016 -0.67636C3.37067 1.10078 3.61397 1 3.86765 1H16.5894c0.2513 0.00182 0.4919 0.1025 0.6696 0.28026l3.5496 3.54583Z" stroke-width="1"></path>
  <path fill="#ffffff" d="M18.8592 2.8767 17.259 1.28026c-0.1777 -0.17776 -0.4183 -0.27844 -0.6696 -0.28026H3.86765c-0.25368 0 -0.49698 0.10078 -0.67636 0.28016 -0.17938 0.17938 -0.28016 0.42268 -0.28016 0.67636V18.8219L18.8592 2.8767Z" stroke-width="1"></path>
  <path stroke="#191919" stroke-linecap="round" stroke-linejoin="round" d="M20.8086 4.82609c0.1794 0.17934 0.2802 0.42259 0.2803 0.67626V22.0435c0 0.2537 -0.1008 0.497 -0.2802 0.6763 -0.1794 0.1794 -0.4227 0.2802 -0.6764 0.2802H3.86765c-0.25368 0 -0.49698 -0.1008 -0.67636 -0.2802 -0.17938 -0.1793 -0.28016 -0.4226 -0.28016 -0.6763V1.95652c0 -0.25368 0.10078 -0.49698 0.28016 -0.67636C3.37067 1.10078 3.61397 1 3.86765 1H16.5894c0.2513 0.00182 0.4919 0.1025 0.6696 0.28026l3.5496 3.54583Z" stroke-width="1"></path>
  <path stroke="#191919" stroke-linecap="round" stroke-linejoin="round" d="m6.73779 15.3478 3.27131 -3.2713c0.1564 -0.1564 0.3621 -0.2538 0.5822 -0.2756 0.2201 -0.0218 0.4409 0.0334 0.6249 0.1561l1.5477 1.0282c0.1883 0.1256 0.4151 0.1802 0.64 0.1543 0.2249 -0.0259 0.4333 -0.1307 0.5882 -0.2958l3.0321 -3.235" stroke-width="1"></path>
  <path stroke="#191919" stroke-linecap="round" stroke-linejoin="round" d="M6.74121 7.69568V18.2174H17.2629" stroke-width="1"></path>
</svg>