<svg xmlns="http://www.w3.org/2000/svg" fill="none" viewBox="0 0 24 24" id="Monetization-Touch-Coin--Streamline-Ultimate">
  <desc>
    Monetization Touch Coin Streamline Icon: https://streamlinehq.com
  </desc>
  <path fill="#ffef5e" d="M8.70224 15.2054c3.92266 0 7.10266 -3.18 7.10266 -7.10271 0 -3.92268 -3.18 -7.10263 -7.10266 -7.10263 -3.92267 0 -7.10263 3.17995 -7.10263 7.10263 0 3.92271 3.17996 7.10271 7.10263 7.10271Z" stroke-width="1"></path>
  <path fill="#fff9bf" d="M8.70278 1.00001c-1.40269 0.00009 -2.77394 0.4155 -3.94086 1.19387 -1.16691 0.77835 -2.07723 1.8848 -2.61616 3.17982 -0.53893 1.29503 -0.68235 2.72062 -0.41216 4.09705 0.27018 1.37645 0.94188 2.64195 1.93037 3.63715L13.7091 3.06281c-1.3297 -1.32355 -3.1302 -2.065441 -5.00632 -2.0628Z" stroke-width="1"></path>
  <path fill="#ffdda1" d="m10.2244 23 -2.34083 -2.5783c-0.13194 -0.1532 -0.23206 -0.331 -0.2945 -0.5233 -0.06245 -0.1923 -0.08595 -0.395 -0.06916 -0.5965 0.01679 -0.2014 0.07354 -0.3976 0.16695 -0.5769 0.09341 -0.1793 0.22159 -0.3382 0.37707 -0.4673 0.15549 -0.1292 0.33515 -0.2261 0.5285 -0.2851 0.19335 -0.059 0.39653 -0.079 0.59765 -0.0586 0.20113 0.0204 0.39618 0.0807 0.57376 0.1773 0.17759 0.0966 0.33416 0.2276 0.46056 0.3853l2.0293 2.3196v-7.9438c0 -0.4038 0.1603 -0.7909 0.4458 -1.0763 0.2854 -0.2854 0.6726 -0.4457 1.0762 -0.4457 0.4036 0 0.7908 0.1603 1.0763 0.4457 0.2854 0.2854 0.4457 0.6725 0.4457 1.0763v4.566h3.044c1.0764 0 2.1088 0.4275 2.8699 1.1886 0.7612 0.7612 1.1887 1.7935 1.1887 2.87v1.522" stroke-width="1"></path>
  <path stroke="#191919" stroke-linecap="round" stroke-linejoin="round" d="m10.2244 23 -2.34083 -2.5783c-0.13194 -0.1532 -0.23206 -0.331 -0.2945 -0.5233 -0.06245 -0.1923 -0.08595 -0.395 -0.06916 -0.5965 0.01679 -0.2014 0.07354 -0.3976 0.16695 -0.5769 0.09341 -0.1793 0.22159 -0.3382 0.37707 -0.4673 0.15549 -0.1292 0.33515 -0.2261 0.5285 -0.2851 0.19335 -0.059 0.39653 -0.079 0.59765 -0.0586 0.20113 0.0204 0.39618 0.0807 0.57376 0.1773 0.17759 0.0966 0.33416 0.2276 0.46056 0.3853l2.0293 2.3196v-7.9438c0 -0.4038 0.1603 -0.7909 0.4458 -1.0763 0.2854 -0.2854 0.6726 -0.4457 1.0762 -0.4457 0.4036 0 0.7908 0.1603 1.0763 0.4457 0.2854 0.2854 0.4457 0.6725 0.4457 1.0763v4.566h3.044c1.0764 0 2.1088 0.4275 2.8699 1.1886 0.7612 0.7612 1.1887 1.7935 1.1887 2.87v1.522" stroke-width="1"></path>
  <path stroke="#191919" stroke-linecap="round" stroke-linejoin="round" d="M8.70224 15.2054c-1.40477 0 -2.77798 -0.4167 -3.94601 -1.1971 -1.16802 -0.7804 -2.07838 -1.8897 -2.61596 -3.1876 -0.53759 -1.29779 -0.67824 -2.72588 -0.40418 -4.10366 0.27405 -1.37778 0.95051 -2.64334 1.94384 -3.63667 0.99331 -0.99331 2.25888 -1.66977 3.63666 -1.94383 1.37777 -0.274054 2.80591 -0.1334 4.10371 0.40418 1.2979 0.53758 2.4071 1.44795 3.1876 2.61596 0.7804 1.16802 1.197 2.54124 1.197 3.94601" stroke-width="1"></path>
  <path stroke="#191919" stroke-linecap="round" stroke-linejoin="round" d="M8.70264 10.1322v1.0147" stroke-width="1"></path>
  <path stroke="#191919" stroke-linecap="round" stroke-linejoin="round" d="M8.70264 5.05878v1.01466" stroke-width="1"></path>
  <path stroke="#191919" stroke-linecap="round" stroke-linejoin="round" d="M6.67334 10.1322h3.04398c0.26909 0 0.52718 -0.107 0.71748 -0.29726 0.1902 -0.19028 0.2972 -0.44837 0.2972 -0.71747 0 -0.26911 -0.107 -0.52719 -0.2972 -0.71748 -0.1903 -0.19029 -0.44839 -0.29718 -0.71748 -0.29718H7.688c-0.26911 0 -0.52719 -0.10691 -0.71748 -0.2972 -0.19028 -0.19028 -0.29718 -0.44836 -0.29718 -0.71746 0 -0.26911 0.1069 -0.52719 0.29718 -0.71748 0.19029 -0.19029 0.44837 -0.29718 0.71748 -0.29718h3.044" stroke-width="1"></path>
</svg>