<svg xmlns="http://www.w3.org/2000/svg" fill="none" viewBox="0 0 24 24" id="Monetization-Tablet-Dollar--Streamline-Ultimate">
  <desc>
    Monetization Tablet Dollar Streamline Icon: https://streamlinehq.com
  </desc>
  <path fill="#ffffff" d="M14.6507 15.3478v2.8695c0 0.1257 -0.0247 0.25 -0.0728 0.3661 -0.0481 0.116 -0.1185 0.2215 -0.2074 0.3103 -0.0888 0.0888 -0.1942 0.1593 -0.3103 0.2073 -0.116 0.0481 -0.2404 0.0729 -0.366 0.0729H4.10984c-0.25368 0 -0.49698 -0.1008 -0.67636 -0.2802 -0.17938 -0.1794 -0.28016 -0.4227 -0.28016 -0.6764v-2.8695H14.6507Z" stroke-width="1"></path>
  <path stroke="#191919" stroke-linecap="round" stroke-linejoin="round" d="M11.477 19.1739H4.11179c-0.25368 0 -0.49698 -0.1008 -0.67636 -0.2802 -0.17938 -0.1794 -0.28016 -0.4227 -0.28016 -0.6764v-2.8695" stroke-width="1"></path>
  <path fill="#ffef5e" d="M14.6507 1.95652V15.3478H3.15332V1.95652c0 -0.25368 0.10078 -0.49698 0.28016 -0.67636C3.61286 1.10078 3.85616 1 4.10984 1h9.58436c0.2537 0 0.497 0.10078 0.6763 0.28016 0.1794 0.17938 0.2802 0.42268 0.2802 0.67636Z" stroke-width="1"></path>
  <path fill="#fff9bf" d="M14.5187 1.4993c-0.0802 -0.14935 -0.199 -0.27446 -0.3441 -0.36228 -0.145 -0.08782 -0.3109 -0.13513 -0.4804 -0.13702H4.10984c-0.25368 0 -0.49698 0.10078 -0.67636 0.28016 -0.17938 0.17938 -0.28016 0.42268 -0.28016 0.67636V12.8609L14.5187 1.4993Z" stroke-width="1"></path>
  <path stroke="#191919" stroke-linecap="round" stroke-linejoin="round" d="M8.90201 15.3478H3.15332V1.95652c0 -0.25368 0.10078 -0.49698 0.28016 -0.67636C3.61286 1.10078 3.85616 1 4.10984 1h9.58436c0.2537 0 0.497 0.10078 0.6763 0.28016 0.1794 0.17938 0.2802 0.42268 0.2802 0.67636V15.3478" stroke-width="1"></path>
  <path fill="#ffdda1" d="m20.8468 23 -2.3731 -3.2847 -0.0182 -4.3675c0.0402 -1.7006 -1.9742 -3.2167 -3.8098 -4.7826v5.2217l-1.6768 -1.7217c-0.226 -0.2005 -0.5196 -0.308 -0.8216 -0.3008 -0.3021 0.0072 -0.5902 0.1284 -0.8065 0.3394 -0.2163 0.2109 -0.3447 0.496 -0.3594 0.7977 -0.0147 0.3018 0.0854 0.598 0.2802 0.829l3.386 3.4482v1.43c0 0.9192 1.4922 2.3913 1.4922 2.3913" stroke-width="1"></path>
  <path stroke="#191919" stroke-linecap="round" stroke-linejoin="round" d="m20.8468 23 -2.3731 -3.2847 -0.0182 -4.3675c0.0402 -1.7006 -1.9742 -3.2167 -3.8098 -4.7826v5.2217l-1.6768 -1.7217c-0.226 -0.2005 -0.5196 -0.308 -0.8216 -0.3008 -0.3021 0.0072 -0.5902 0.1284 -0.8065 0.3394 -0.2163 0.2109 -0.3447 0.496 -0.3594 0.7977 -0.0147 0.3018 0.0854 0.598 0.2802 0.829l3.386 3.4482v1.43c0 0.9192 1.4922 2.3913 1.4922 2.3913" stroke-width="1"></path>
  <path stroke="#191919" stroke-linecap="round" stroke-linejoin="round" d="m16.0827 17.2608 -1.4348 -1.4778" stroke-width="1"></path>
  <path stroke="#191919" stroke-linecap="round" stroke-linejoin="round" d="M8.89062 10.5652v0.9566" stroke-width="1"></path>
  <path stroke="#191919" stroke-linecap="round" stroke-linejoin="round" d="M8.89062 5.78265v0.95652" stroke-width="1"></path>
  <path stroke="#191919" stroke-linecap="round" stroke-linejoin="round" d="M6.97754 10.5652H9.8471c0.2537 0 0.497 -0.1008 0.6764 -0.2801 0.1793 -0.1794 0.2801 -0.42272 0.2801 -0.6764 0 -0.25369 -0.1008 -0.49698 -0.2801 -0.67637 -0.1794 -0.17938 -0.4227 -0.28015 -0.6764 -0.28015H7.93406c-0.25369 0 -0.49698 -0.10078 -0.67636 -0.28016 -0.17938 -0.17938 -0.28016 -0.42268 -0.28016 -0.67636 0 -0.25369 0.10078 -0.49698 0.28016 -0.67637 0.17938 -0.17938 0.42267 -0.28015 0.67636 -0.28015h2.86954" stroke-width="1"></path>
  <path stroke="#191919" d="M8.65124 17.2609c-0.06342 0 -0.12425 -0.0252 -0.16909 -0.0701 -0.04485 -0.0448 -0.07004 -0.1057 -0.07004 -0.1691s0.02519 -0.1242 0.07004 -0.1691c0.04484 -0.0448 0.10567 -0.07 0.16909 -0.07" stroke-width="1"></path>
  <path stroke="#191919" d="M8.65088 17.2609c0.06342 0 0.12424 -0.0252 0.16909 -0.0701 0.04485 -0.0448 0.07004 -0.1057 0.07004 -0.1691s-0.02519 -0.1242 -0.07004 -0.1691c-0.04485 -0.0448 -0.10567 -0.07 -0.16909 -0.07" stroke-width="1"></path>
</svg>