<svg xmlns="http://www.w3.org/2000/svg" fill="none" viewBox="0 0 24 24" id="User-Network--Streamline-Ultimate">
  <desc>
    User Network Streamline Icon: https://streamlinehq.com
  </desc>
  <path fill="#66e1ff" stroke="#191919" stroke-linecap="round" stroke-linejoin="round" d="M7.70703 16.3047c0 -1.1412 0.45327 -2.2355 1.26015 -3.0423 0.80689 -0.8069 1.90122 -1.2602 3.04232 -1.2602 1.1411 0 2.2355 0.4533 3.0423 1.2602 0.8069 0.8068 1.2602 1.9011 1.2602 3.0423H7.70703Z" stroke-width="1"></path>
  <path fill="#ffdda1" stroke="#191919" stroke-linecap="round" stroke-linejoin="round" d="M12.0087 11.0461c1.4522 0 2.6293 -1.17716 2.6293 -2.6293 0 -1.45215 -1.1771 -2.62932 -2.6293 -2.62932 -1.4521 0 -2.62931 1.17717 -2.62931 2.62932 0 1.45214 1.17721 2.6293 2.62931 2.6293Z" stroke-width="1"></path>
  <path stroke="#191919" stroke-linecap="round" stroke-linejoin="round" d="m16.7754 7.24079 2.9716 -2.95051" stroke-width="1"></path>
  <path stroke="#191919" stroke-linecap="round" stroke-linejoin="round" d="m17.6948 17.7189 2.0212 2.0346" stroke-width="1"></path>
  <path stroke="#191919" stroke-linecap="round" stroke-linejoin="round" d="m7.21474 7.24079 -2.9706 -2.95051" stroke-width="1"></path>
  <path fill="#ffef5e" d="M2.91226 4.83139c1.05609 0 1.91217 -0.85608 1.91217 -1.91217s-0.85608 -1.91226 -1.91217 -1.91226S1 1.86313 1 2.91922c0 1.05609 0.85617 1.91217 1.91226 1.91217Z" stroke-width="1"></path>
  <path fill="#fff9bf" d="M2.91665 2.5368c0.37092 0.00126 0.73346 0.11046 1.04348 0.31416 0.30992 0.2037 0.55399 0.49318 0.70238 0.8331 0.1082 -0.24055 0.16487 -0.5011 0.16631 -0.76481 0.00072 -0.2847 -0.06225 -0.56588 -0.18406 -0.82319 -0.1219 -0.25722 -0.29966 -0.48399 -0.52039 -0.66382 -0.22064 -0.17974 -0.47867 -0.30803 -0.75526 -0.37534 -0.27659 -0.067386 -0.56472 -0.072161 -0.84338 -0.01396 -0.27866 0.0582 -0.54075 0.17785 -0.76724 0.35029 -0.2265 0.17235 -0.41165 0.39317 -0.54201 0.64625 -0.13028 0.25307 -0.20245 0.5321 -0.21118 0.81661 -0.008744 0.28452 0.04621 0.56742 0.16072 0.82797 0.14866 -0.34064 0.39345 -0.63066 0.70436 -0.83445 0.31092 -0.20371 0.67454 -0.31245 1.04627 -0.31281Z" stroke-width="1"></path>
  <path stroke="#191919" stroke-linecap="round" stroke-linejoin="round" d="M2.91226 4.83139c1.05609 0 1.91217 -0.85608 1.91217 -1.91217s-0.85608 -1.91226 -1.91217 -1.91226S1 1.86313 1 2.91922c0 1.05609 0.85617 1.91217 1.91226 1.91217Z" stroke-width="1"></path>
  <path fill="#ffef5e" d="M2.91226 13.4364c1.05609 0 1.91217 -0.8561 1.91217 -1.9122 0 -1.0561 -0.85608 -1.91226 -1.91217 -1.91226S1 10.4681 1 11.5242s0.85617 1.9122 1.91226 1.9122Z" stroke-width="1"></path>
  <path fill="#fff9bf" d="M2.91656 11.1418c0.37173 0.0003 0.73527 0.1091 1.04618 0.3128 0.31092 0.2038 0.55571 0.4937 0.70445 0.8345 0.10658 -0.241 0.16163 -0.5014 0.16154 -0.7649 0.00072 -0.2846 -0.06225 -0.5659 -0.18406 -0.8231 -0.1219 -0.2573 -0.29966 -0.4841 -0.52039 -0.6639 -0.22064 -0.17972 -0.47867 -0.30801 -0.75526 -0.37531 -0.27659 -0.0674 -0.56471 -0.07217 -0.84338 -0.01397 -0.27857 0.0582 -0.54074 0.17785 -0.76724 0.35029 -0.2265 0.17249 -0.41164 0.39319 -0.54192 0.64629 -0.13037 0.2531 -0.20244 0.5321 -0.21118 0.8166 -0.008743 0.2845 0.04612 0.5674 0.16064 0.828 0.14865 -0.3408 0.39344 -0.6307 0.70435 -0.8345 0.31092 -0.2037 0.67454 -0.3125 1.04627 -0.3128Z" stroke-width="1"></path>
  <path stroke="#191919" stroke-linecap="round" stroke-linejoin="round" d="M2.91226 13.4364c1.05609 0 1.91217 -0.8561 1.91217 -1.9122 0 -1.0561 -0.85608 -1.91226 -1.91217 -1.91226S1 10.4681 1 11.5242s0.85617 1.9122 1.91226 1.9122Z" stroke-width="1"></path>
  <path fill="#ffef5e" d="M2.91226 22.9975c1.05609 0 1.91217 -0.8561 1.91217 -1.9122 0 -1.0562 -0.85608 -1.9122 -1.91217 -1.9122S1 20.0292 1 21.0853c0 1.0561 0.85617 1.9122 1.91226 1.9122Z" stroke-width="1"></path>
  <path fill="#fff9bf" d="M2.91656 20.7028c0.37173 0.0005 0.73527 0.1092 1.04618 0.3129 0.31092 0.2038 0.55571 0.4939 0.70445 0.8345 0.10658 -0.2409 0.16163 -0.5015 0.16154 -0.7649 0.00072 -0.2846 -0.06225 -0.5658 -0.18406 -0.8231 -0.1219 -0.2573 -0.29966 -0.4841 -0.52039 -0.6638 -0.22064 -0.1798 -0.47867 -0.3081 -0.75526 -0.3754 -0.27659 -0.0673 -0.56471 -0.0721 -0.84338 -0.0139 -0.27857 0.0582 -0.54074 0.1778 -0.76724 0.3502 -0.2265 0.1725 -0.41164 0.3932 -0.54192 0.6463 -0.13037 0.2531 -0.20244 0.5321 -0.21118 0.8166 -0.008743 0.2846 0.04612 0.5674 0.16064 0.828 0.14865 -0.3406 0.39344 -0.6307 0.70435 -0.8345 0.31092 -0.2037 0.67454 -0.3124 1.04627 -0.3129Z" stroke-width="1"></path>
  <path stroke="#191919" stroke-linecap="round" stroke-linejoin="round" d="M2.91226 22.9975c1.05609 0 1.91217 -0.8561 1.91217 -1.9122 0 -1.0562 -0.85608 -1.9122 -1.91217 -1.9122S1 20.0292 1 21.0853c0 1.0561 0.85617 1.9122 1.91226 1.9122Z" stroke-width="1"></path>
  <path fill="#ffef5e" d="M21.0879 22.9975c1.0562 0 1.9123 -0.8561 1.9123 -1.9122 0 -1.0562 -0.8561 -1.9122 -1.9123 -1.9122 -1.0561 0 -1.9121 0.8561 -1.9121 1.9122 0 1.0561 0.8561 1.9122 1.9121 1.9122Z" stroke-width="1"></path>
  <path fill="#fff9bf" d="M21.088 20.7028c0.3717 0.0005 0.7353 0.1091 1.0463 0.3129 0.311 0.2038 0.5557 0.4937 0.7043 0.8345 0.128 -0.291 0.1812 -0.6094 0.1552 -0.9263 -0.0261 -0.3168 -0.1308 -0.6221 -0.3046 -0.8884 -0.1738 -0.2661 -0.4112 -0.4848 -0.6908 -0.6362 -0.2796 -0.1513 -0.5925 -0.2306 -0.9104 -0.2306 -0.318 0 -0.6309 0.0793 -0.9104 0.2306 -0.2796 0.1514 -0.517 0.3701 -0.6908 0.6362 -0.1738 0.2663 -0.2785 0.5716 -0.3046 0.8884 -0.026 0.3169 0.0272 0.6353 0.1552 0.9263 0.1487 -0.3408 0.3934 -0.6307 0.7043 -0.8345 0.311 -0.2038 0.6746 -0.3124 1.0463 -0.3129Z" stroke-width="1"></path>
  <path stroke="#191919" stroke-linecap="round" stroke-linejoin="round" d="M21.0879 22.9975c1.0562 0 1.9123 -0.8561 1.9123 -1.9122 0 -1.0562 -0.8561 -1.9122 -1.9123 -1.9122 -1.0561 0 -1.9121 0.8561 -1.9121 1.9122 0 1.0561 0.8561 1.9122 1.9121 1.9122Z" stroke-width="1"></path>
  <path fill="#ffef5e" d="M21.0879 13.4364c1.0562 0 1.9123 -0.8561 1.9123 -1.9122 0 -1.0561 -0.8561 -1.91226 -1.9123 -1.91226 -1.0561 0 -1.9121 0.85616 -1.9121 1.91226s0.8561 1.9122 1.9121 1.9122Z" stroke-width="1"></path>
  <path fill="#fff9bf" d="M21.088 11.1418c0.3717 0.0003 0.7353 0.1091 1.0463 0.3128 0.311 0.2039 0.5557 0.4937 0.7043 0.8345 0.128 -0.2911 0.1812 -0.6095 0.1552 -0.9262 -0.0261 -0.3169 -0.1308 -0.6222 -0.3046 -0.8885 -0.1738 -0.2662 -0.4112 -0.48486 -0.6908 -0.63621 -0.2796 -0.15136 -0.5925 -0.23065 -0.9104 -0.23065 -0.318 0 -0.6309 0.07929 -0.9104 0.23065 -0.2796 0.15135 -0.517 0.37001 -0.6908 0.63621 -0.1738 0.2663 -0.2785 0.5716 -0.3046 0.8885 -0.026 0.3167 0.0272 0.6351 0.1552 0.9262 0.1487 -0.3408 0.3934 -0.6306 0.7043 -0.8345 0.311 -0.2037 0.6746 -0.3125 1.0463 -0.3128Z" stroke-width="1"></path>
  <path stroke="#191919" stroke-linecap="round" stroke-linejoin="round" d="M21.0879 13.4364c1.0562 0 1.9123 -0.8561 1.9123 -1.9122 0 -1.0561 -0.8561 -1.91226 -1.9123 -1.91226 -1.0561 0 -1.9121 0.85616 -1.9121 1.91226s0.8561 1.9122 1.9121 1.9122Z" stroke-width="1"></path>
  <path fill="#ffef5e" d="M21.0879 4.83139c1.0562 0 1.9123 -0.85608 1.9123 -1.91217s-0.8561 -1.91226 -1.9123 -1.91226c-1.0561 0 -1.9121 0.85617 -1.9121 1.91226 0 1.05609 0.8561 1.91217 1.9121 1.91217Z" stroke-width="1"></path>
  <path fill="#fff9bf" d="M21.088 2.53679c0.3717 0.00036 0.7353 0.1091 1.0463 0.3128 0.311 0.2038 0.5557 0.49381 0.7043 0.83446 0.128 -0.29101 0.1812 -0.6094 0.1552 -0.92626 -0.0261 -0.31678 -0.1308 -0.62211 -0.3046 -0.88834 -0.1738 -0.26623 -0.4112 -0.48489 -0.6908 -0.63624 -0.2796 -0.15136 -0.5925 -0.23065 -0.9104 -0.23065 -0.318 0 -0.6309 0.07929 -0.9104 0.23065 -0.2796 0.15135 -0.517 0.37001 -0.6908 0.63624 -0.1738 0.26623 -0.2785 0.57156 -0.3046 0.88834 -0.026 0.31686 0.0272 0.63525 0.1552 0.92626 0.1487 -0.34065 0.3934 -0.63066 0.7043 -0.83446 0.311 -0.2037 0.6746 -0.31244 1.0463 -0.3128Z" stroke-width="1"></path>
  <path stroke="#191919" stroke-linecap="round" stroke-linejoin="round" d="M21.0879 4.83139c1.0562 0 1.9123 -0.85608 1.9123 -1.91217s-0.8561 -1.91226 -1.9123 -1.91226c-1.0561 0 -1.9121 0.85617 -1.9121 1.91226 0 1.05609 0.8561 1.91217 1.9121 1.91217Z" stroke-width="1"></path>
  <path stroke="#191919" stroke-linecap="round" stroke-linejoin="round" d="m6.29415 17.7189 -2.02218 2.0346" stroke-width="1"></path>
  <path stroke="#191919" stroke-linecap="round" stroke-linejoin="round" d="M16.2979 11.5243h2.8683" stroke-width="1"></path>
  <path stroke="#191919" stroke-linecap="round" stroke-linejoin="round" d="M7.69207 11.5243H4.82373" stroke-width="1"></path>
</svg>