<svg xmlns="http://www.w3.org/2000/svg" viewBox="0 0 24 24" id="Animal-Products-Egg--Streamline-Ultimate">
  <desc>
    Animal Products Egg Streamline Icon: https://streamlinehq.com
  </desc>
  <g id="Animal-Products-Egg--Streamline-Ultimate.svg">
    <path d="M12 0C7.58 0 4.5 5.69 4.5 11.25a0.71 0.71 0 0 0 0.64 0.75h13.72a0.71 0.71 0 0 0 0.64 -0.75C19.5 5.69 16.42 0 12 0Zm-0.15 3.48c-1 0 -1.92 0.79 -2.64 2.16a0.64 0.64 0 0 1 -0.56 0.36 0.65 0.65 0 0 1 -0.34 -0.11 0.82 0.82 0 0 1 -0.21 -1C9.06 3 10.43 2 11.85 2a0.71 0.71 0 0 1 0.65 0.75 0.7 0.7 0 0 1 -0.65 0.73Z" fill="#000000" stroke-width="1"></path>
    <path d="M20.77 14.72a1 1 0 0 0 -0.2 -0.84 1 1 0 0 0 -0.78 -0.38H4.21a1 1 0 0 0 -0.78 0.38 1 1 0 0 0 -0.2 0.84 12.76 12.76 0 0 0 3.61 6.73A0.49 0.49 0 0 1 7 22c-0.09 0.21 -0.18 0.42 -0.25 0.63A1 1 0 0 0 7.66 24h8.68a1 1 0 0 0 0.94 -1.34c-0.07 -0.21 -0.16 -0.42 -0.25 -0.63a0.49 0.49 0 0 1 0.13 -0.58 12.76 12.76 0 0 0 3.61 -6.73Z" fill="#000000" stroke-width="1"></path>
  </g>
</svg>