<svg xmlns="http://www.w3.org/2000/svg" viewBox="0 0 24 24" id="Bread-Loaf--Streamline-Ultimate">
  <desc>
    Bread Loaf Streamline Icon: https://streamlinehq.com
  </desc>
  <path d="M24 6.31a5 5 0 0 0 -5 -5H5.25A5.26 5.26 0 0 0 0 6.56c0 2.46 0.89 4.2 2.48 4.9a0.5 0.5 0 0 1 0.29 0.54l-0.6 8.12a2.3 2.3 0 0 0 0.53 1.79 2.27 2.27 0 0 0 1.7 0.78h14.45a2 2 0 0 0 2 -2.29l-0.63 -8.78a0.5 0.5 0 0 1 0.34 -0.55A5 5 0 0 0 24 6.31Zm-10.25 3a1.28 1.28 0 0 0 -0.95 0.43 1.25 1.25 0 0 0 -0.29 1l0.7 8.86a0.5 0.5 0 0 1 -0.49 0.58H5.28a0.5 0.5 0 0 1 -0.49 -0.58l0.7 -8.87a1.26 1.26 0 0 0 -1.24 -1.42c-0.48 0 -1.75 0 -1.75 -2.75a2.75 2.75 0 0 1 2.75 -2.75h8.5a2.75 2.75 0 0 1 0 5.5Z" fill="#000000" stroke-width="1"></path>
</svg>