<svg xmlns="http://www.w3.org/2000/svg" viewBox="0 0 24 24" id="Chef-Gear-Gloves--Streamline-Ultimate">
  <desc>
    Chef Gear Gloves Streamline Icon: https://streamlinehq.com
  </desc>
  <g id="Chef-Gear-Gloves--Streamline-Ultimate.svg">
    <g>
      <path d="M9.71 17.13a0.25 0.25 0 0 0 0.13 -0.13 0.25 0.25 0 0 0 0 -0.19l-2.79 -6.1C5.5 7.31 6 4.08 8.31 2.14a0.49 0.49 0 0 0 -0.05 -0.8A5.16 5.16 0 0 0 3.16 1c-3 1.39 -4 4.71 -2.38 8.26l4.29 9.4a0.51 0.51 0 0 0 0.67 0.25Z" fill="#000000" stroke-width="1"></path>
      <path d="M6.36 20.3a0.51 0.51 0 0 0 -0.26 0.28 0.52 0.52 0 0 0 0 0.39l0.43 0.94a1 1 0 0 0 0.56 0.52 1 1 0 0 0 0.76 0l3.3 -1.5a0.55 0.55 0 0 0 0.26 -0.28 0.5 0.5 0 0 0 0 -0.38l-0.74 -1.62a0.24 0.24 0 0 0 -0.33 -0.13Z" fill="#000000" stroke-width="1"></path>
    </g>
    <g>
      <path d="M22.2 15.71a0.49 0.49 0 0 0 0.24 -0.66l-0.23 -0.52a1.54 1.54 0 0 1 -0.1 -1l1.38 -5.9a2.53 2.53 0 0 0 -4.71 -1.6 0.24 0.24 0 0 1 -0.22 0.14 0.26 0.26 0 0 1 -0.22 -0.15l-0.19 -0.41c-1.62 -3.55 -4.76 -5 -7.8 -3.61S6.34 6.74 8 10.29l4.3 9.41a0.5 0.5 0 0 0 0.66 0.25Z" fill="#000000" stroke-width="1"></path>
      <path d="M23.42 19.59a1 1 0 0 0 0.49 -1.33l-0.43 -0.94a0.48 0.48 0 0 0 -0.28 -0.26 0.5 0.5 0 0 0 -0.38 0l-9.28 4.23a0.5 0.5 0 0 0 -0.25 0.66l0.43 0.94a1 1 0 0 0 1.33 0.5Z" fill="#000000" stroke-width="1"></path>
    </g>
  </g>
</svg>