<svg xmlns="http://www.w3.org/2000/svg" viewBox="0 0 24 24" id="Coffee-Espresso-Machine--Streamline-Ultimate">
  <desc>
    Coffee Espresso Machine Streamline Icon: https://streamlinehq.com
  </desc>
  <g id="Coffee-Espresso-Machine--Streamline-Ultimate.svg">
    <path d="M1 16h2.78a0.25 0.25 0 0 1 0.24 0.2A1 1 0 0 0 5 17h0.25a0.25 0.25 0 0 1 0.25 0.25v0.25a1 1 0 0 0 2 0v-0.25a0.25 0.25 0 0 1 0.25 -0.25H8a1 1 0 0 0 1 -1v-2a1 1 0 0 0 -1 -1H5a1 1 0 0 0 -1 0.8 0.25 0.25 0 0 1 -0.24 0.2H1a1 1 0 0 0 0 2Z" fill="#000000" stroke-width="1"></path>
    <path d="M22 0H6.5A3.5 3.5 0 0 0 3 3.5V9a1 1 0 0 0 1 1h0.75a0.25 0.25 0 0 1 0.25 0.25v1.25a0.5 0.5 0 0 0 0.5 0.5h2a0.5 0.5 0 0 0 0.5 -0.5v-1.25a0.25 0.25 0 0 1 0.25 -0.25H10a0.5 0.5 0 0 1 0.5 0.5v9a0.5 0.5 0 0 1 -0.5 0.5H1a1 1 0 0 0 -1 1v2a1 1 0 0 0 1 1h22a1 1 0 0 0 1 -1V2a2 2 0 0 0 -2 -2ZM7 5.5A1.5 1.5 0 1 1 8.5 4 1.5 1.5 0 0 1 7 5.5Zm14.75 3.75h-4a0.75 0.75 0 0 1 0 -1.5h4a0.75 0.75 0 0 1 0 1.5Zm0 -3h-4a0.75 0.75 0 0 1 0 -1.5h4a0.75 0.75 0 0 1 0 1.5Z" fill="#000000" stroke-width="1"></path>
  </g>
</svg>