<svg xmlns="http://www.w3.org/2000/svg" viewBox="0 0 24 24" id="Fast-Food-French-Fries--Streamline-Ultimate">
  <desc>
    Fast Food French Fries Streamline Icon: https://streamlinehq.com
  </desc>
  <g id="Fast-Food-French-Fries--Streamline-Ultimate.svg">
    <path d="M8.7434 10.7116c0.0156 0.1646 0.0727 0.3226 0.166 0.4591 0.1815 0.2748 0.3045 0.5839 0.3614 0.9083 0 0.2246 0.7716 0.6934 2.051 0.8204 0.3049 0.0317 0.5633 -0.222 0.5372 -0.5274L10.8823 0.7691c-0.0207 -0.2701 -0.2574 -0.4717 -0.5274 -0.4493L8.4016 0.4859c-0.2702 0.0207 -0.4718 0.2574 -0.4493 0.5274Z" fill="#000000" stroke-width="1"></path>
    <path d="M14.7011 12.0399c0.0556 -0.3491 0.1855 -0.6821 0.3809 -0.9767 0.0949 -0.1393 0.1521 -0.3008 0.166 -0.4688l0.7814 -9.6593c0.0224 -0.27 -0.1792 -0.5066 -0.4493 -0.5274l-1.9534 -0.166c-0.2699 -0.0225 -0.5066 0.1791 -0.5274 0.4493l-0.9766 11.6028c-0.0121 0.1456 0.0417 0.289 0.1465 0.3907 0.1055 0.0979 0.2471 0.1475 0.3906 0.1367 1.2893 -0.0488 2.0022 -0.5176 2.0413 -0.7813Z" fill="#000000" stroke-width="1"></path>
    <path d="M17.0842 10.0865h1.4259c0.2144 0.0013 0.4045 -0.1373 0.4688 -0.3418l1.8069 -5.7135c0.0769 -0.2586 -0.066 -0.5313 -0.3223 -0.6153l-1.8655 -0.586c-0.1189 -0.0489 -0.2522 -0.0489 -0.3711 0 -0.1155 0.0608 -0.2005 0.1669 -0.2344 0.293L15.834 9.9596c-0.0343 0.0905 -0.0067 0.1929 0.0684 0.2539 0.078 0.0475 0.176 0.0475 0.2539 0 0.2979 -0.1032 0.6132 -0.1464 0.9279 -0.1269Z" fill="#000000" stroke-width="1"></path>
    <path d="M5.0125 9.7447c0.0643 0.2045 0.2544 0.3432 0.4688 0.3419h1.4064c0.3355 -0.0027 0.668 0.0638 0.9767 0.1953 0.0803 0.0515 0.1833 0.0515 0.2637 0 0.084 -0.0729 0.1081 -0.1934 0.0586 -0.293L6.0185 3.1522c-0.034 -0.1261 -0.1189 -0.2322 -0.2344 -0.293 -0.1189 -0.0489 -0.2523 -0.0489 -0.3712 0l-1.8654 0.586c-0.2499 0.0755 -0.3991 0.3312 -0.3419 0.586Z" fill="#000000" stroke-width="1"></path>
    <path d="M20.4146 12.7431c0.1358 -0.6009 -0.312 -1.1759 -0.9278 -1.1915h-2.4026c-0.4746 -0.0087 -0.8866 0.3251 -0.9767 0.7911 -0.2539 1.4161 -2.3342 2.051 -4.1606 2.051s-3.9067 -0.6349 -4.1607 -2.051c-0.0901 -0.466 -0.5021 -0.7998 -0.9766 -0.7911h-2.305c-0.6359 -0.0157 -1.1168 0.571 -0.9766 1.1915l2.5393 9.9328c0.1502 0.6381 0.7215 1.0879 1.3771 1.0841h9.1026c0.6515 0.0013 1.2199 -0.4421 1.3771 -1.0744Z" fill="#000000" stroke-width="1"></path>
  </g>
</svg>