<svg xmlns="http://www.w3.org/2000/svg" viewBox="0 0 24 24" id="Seafood-Sushi--Streamline-Ultimate">
  <desc>
    Seafood Sushi Streamline Icon: https://streamlinehq.com
  </desc>
  <g id="Seafood-Sushi--Streamline-Ultimate.svg">
    <path d="M20.33 17.07a11.5 11.5 0 0 0 -16.66 0 2.43 2.43 0 0 1 -0.38 0.34 0.51 0.51 0 0 0 -0.19 0.51A4.19 4.19 0 0 0 7.5 21h9a4.19 4.19 0 0 0 4.4 -3.08 0.51 0.51 0 0 0 -0.19 -0.51 3 3 0 0 1 -0.38 -0.34Z" fill="#000000" stroke-width="1"></path>
    <path d="M12.38 11.78a0.52 0.52 0 0 0 0.4 0.24 13.24 13.24 0 0 1 2.89 0.5 0.5 0.5 0 0 0 0.59 -0.27l3 -6.33a0.5 0.5 0 0 0 -0.16 -0.61 11.7 11.7 0 0 0 -2.7 -1.48 0.49 0.49 0 0 0 -0.63 0.25l-3.41 7.23a0.52 0.52 0 0 0 0.02 0.47Z" fill="#000000" stroke-width="1"></path>
    <path d="M5.51 13.53a0.26 0.26 0 0 0 0.29 0 12.77 12.77 0 0 1 4.26 -1.43 0.48 0.48 0 0 0 0.38 -0.28l3.78 -8a0.54 0.54 0 0 0 0 -0.45 0.5 0.5 0 0 0 -0.37 -0.26 12.13 12.13 0 0 0 -3.35 -0.05 0.49 0.49 0 0 0 -0.39 0.29l-4.66 9.89a0.26 0.26 0 0 0 0.06 0.29Z" fill="#000000" stroke-width="1"></path>
    <path d="M21.09 7.17a0.48 0.48 0 0 0 -0.45 -0.17 0.5 0.5 0 0 0 -0.38 0.28l-2.58 5.47a0.51 0.51 0 0 0 0.23 0.66 12.87 12.87 0 0 1 3.5 2.59 1.52 1.52 0 0 0 1.64 0.36A1.49 1.49 0 0 0 24 15a11.87 11.87 0 0 0 -2.91 -7.83Z" fill="#000000" stroke-width="1"></path>
    <path d="M8.06 3.82a0.25 0.25 0 0 0 -0.27 -0.06A12 12 0 0 0 0 15a1.49 1.49 0 0 0 1 1.4 1.47 1.47 0 0 0 1.31 -0.11 0.45 0.45 0 0 0 0.2 -0.21C3 14.94 7 6.35 8.1 4.1a0.26 0.26 0 0 0 -0.04 -0.28Z" fill="#000000" stroke-width="1"></path>
  </g>
</svg>