<svg xmlns="http://www.w3.org/2000/svg" fill="none" viewBox="0 0 48 48" id="Bug--Streamline-Plump">
  <desc>
    Bug Streamline Icon: https://streamlinehq.com
  </desc>
  <g id="bug--code-bug-security-programming-secure-computer">
    <g id="Union">
      <path fill="#000000" d="M32.893 1.21061c-0.9879 -0.493981 -2.1893 -0.09353 -2.6833 0.89442L28.2913 5.9419c-1.3653 -0.29232 -2.8017 -0.44288 -4.2923 -0.44288 -1.4906 0 -2.9269 0.15056 -4.2923 0.44288l-1.9184 -3.83687c-0.494 -0.98795 -1.6953 -1.388401 -2.6833 -0.89442 -0.9879 0.49398 -1.3884 1.69532 -0.8944 2.68328l1.6631 3.32612c-1.5761 0.73674 -3.0027 1.7 -4.2426 2.87029 -1.6285 1.5369 -2.90961 3.4075 -3.78023 5.5425 4.40453 1.8271 9.90643 2.8653 16.14833 2.8653 6.2418 0 11.7435 -1.0381 16.148 -2.8652 -0.8706 -2.135 -2.1518 -4.0056 -3.7802 -5.5426 -1.2399 -1.17029 -2.6666 -2.13355 -4.2426 -2.87028l1.663 -3.32613c0.494 -0.98796 0.0936 -2.1893 -0.8944 -2.68328Z" stroke-width="1"></path>
      <path fill="#000000" d="M8.97408 19.2528c3.98202 1.3325 8.55772 2.098 13.52492 2.226l0 24.9684c-4.2913 -0.2994 -8.0589 -1.8881 -10.8679 -4.5394 -1.87863 -1.7731 -3.29507 -3.9902 -4.1522 -6.5451l-3.73665 1.4947c-1.02557 0.4102 -2.18951 -0.0886 -2.59973 -1.1142 -0.410232 -1.0255 0.0886 -2.1895 1.11417 -2.5997l4.37814 -1.7513c-0.05236 -0.52 -0.08466 -1.0494 -0.0963 -1.5877 -0.00571 -0.2641 -0.01084 -0.5325 -0.01537 -0.8055H2.49902c-1.10457 0 -1.999997 -0.8954 -1.999997 -2 0 -1.1045 0.895427 -2 1.999997 -2H6.5016c0.00441 -0.849 0.01441 -1.6594 0.02931 -2.4328l-4.27422 -1.7097c-1.02557 -0.4102 -1.524402 -1.5742 -1.11417 -2.5997 0.41022 -1.0256 1.57416 -1.5244 2.59973 -1.1142l5 2c0.08059 0.0322 0.15793 0.0691 0.23183 0.1102Z" stroke-width="1"></path>
      <path fill="#000000" d="m25.499 21.4789 0 24.9683c4.2913 -0.2994 8.0589 -1.8881 10.868 -4.5394 1.8786 -1.7731 3.295 -3.9902 4.1521 -6.5451l3.7367 1.4947c1.0256 0.4102 2.1895 -0.0886 2.5997 -1.1142 0.4103 -1.0255 -0.0886 -2.1895 -1.1141 -2.5997l-4.3782 -1.7513c0.0524 -0.52 0.0847 -1.0494 0.0963 -1.5877 0.0057 -0.2641 0.0109 -0.5325 0.0154 -0.8055h4.0241c1.1046 0 2 -0.8954 2 -2 0 -1.1045 -0.8954 -2 -2 -2h-4.0026c-0.0044 -0.849 -0.0144 -1.6594 -0.0293 -2.4328l4.2743 -1.7097c1.0255 -0.4102 1.5244 -1.5742 1.1141 -2.5997 -0.4102 -1.0256 -1.5741 -1.5244 -2.5997 -1.1142l-5 2c-0.0808 0.0323 -0.1583 0.0693 -0.2323 0.1105 -3.9819 1.3323 -8.5575 2.0977 -13.5245 2.2258Z" stroke-width="1"></path>
    </g>
  </g>
</svg>