<svg xmlns="http://www.w3.org/2000/svg" fill="none" viewBox="0 0 48 48" id="Rss-Square--Streamline-Plump">
  <desc>
    Rss Square Streamline Icon: https://streamlinehq.com
  </desc>
  <g id="rss-square--wireless-rss-feed-square-transmit-broadcast">
    <path id="Subtract" fill="#000000" fill-rule="evenodd" d="M7.17993 46.9135C10.5916 47.1968 16.0905 47.5 24 47.5c7.9094 0 13.4083 -0.3032 16.8201 -0.5865 3.2853 -0.2728 5.8206 -2.8081 6.0934 -6.0934 0.2833 -3.4117 0.5865 -8.9106 0.5865 -16.8201 0 -7.9095 -0.3032 -13.4084 -0.5865 -16.82007 -0.2728 -3.28536 -2.8081 -5.82065 -6.0934 -6.09345C37.4084 0.803195 31.9095 0.5 24 0.5c-7.9094 -0.000002 -13.4083 0.303193 -16.82006 0.58648 -3.28536 0.2728 -5.82066 2.80809 -6.09345 6.09345C0.803197 10.5916 0.5 16.0905 0.5 24c0 7.9094 0.303195 13.4083 0.58648 16.8201 0.2728 3.2853 2.80809 5.8206 6.09345 6.0934ZM10.5 10.5c0 -1.65685 1.3431 -3 3 -3 14.9117 0 27 12.0883 27 27 0 1.6569 -1.3431 3 -3 3s-3 -1.3431 -3 -3c0 -11.598 -9.402 -21 -21 -21 -1.6569 0 -3 -1.3431 -3 -3Zm0 12c0 -1.6569 1.3431 -3 3 -3 8.2843 0 15 6.7157 15 15 0 1.6569 -1.3431 3 -3 3s-3 -1.3431 -3 -3c0 -4.9706 -4.0294 -9 -9 -9 -1.6569 0 -3 -1.3431 -3 -3Zm-1 12c0 -2.2091 1.7909 -4 4 -4 2.2091 0 4 1.7909 4 4 0 2.2091 -1.7909 4 -4 4 -2.2091 0 -4 -1.7909 -4 -4Z" clip-rule="evenodd" stroke-width="1"></path>
  </g>
</svg>