<svg xmlns="http://www.w3.org/2000/svg" fill="none" viewBox="0 0 14 14" id="Ball--Streamline-Core-Remix">
  <desc>
    Ball Streamline Icon: https://streamlinehq.com
  </desc>
  <g id="Free Remix/Money Shopping/ball--sports-ball-sport-basketball-shopping-catergories">
    <path id="Union" fill="#000000" fill-rule="evenodd" d="M6.375 1.28357c-1.23194 0.13314 -2.34724 0.65533 -3.22054 1.44119 0.5006 0.42784 0.92401 0.94184 1.24895 1.51997 0.47285 0.84128 0.72131 1.79032 0.72147 2.75539 -0.00028 1.64056 -0.73665 3.21608 -1.97204 4.27568 0.87355 0.7867 1.98946 1.3094 3.22216 1.4426V1.28357Zm1.25 11.43483c1.23257 -0.1332 2.34838 -0.6558 3.2219 -1.4423 -0.501 -0.4282 -0.92461 -0.9426 -1.24964 -1.52121 -0.47257 -0.84127 -0.7208 -1.78997 -0.7208 -2.75489s0.24823 -1.91362 0.7208 -2.75489c0.32479 -0.57817 0.74804 -1.09224 1.24854 -1.5202 -0.87339 -0.78595 -1.98877 -1.3082 -3.2208 -1.44134V12.7184Zm4.0543 -9.06149c-0.3985 0.3364 -0.735 0.74256 -0.9922 1.2004 -0.3676 0.65432 -0.5606 1.3922 -0.5606 2.14269 0 0.75049 0.193 1.48837 0.5606 2.14269 0.2574 0.45818 0.5942 0.86461 0.9931 1.20111 0.6741 -0.94202 1.0708 -2.09608 1.0708 -3.3428 0 -1.24727 -0.397 -2.4018 -1.0717 -3.34409ZM2.31959 10.3436c0.97191 -0.82371 1.55507 -2.06138 1.55529 -3.34369 -0.00013 -0.75061 -0.19337 -1.48839 -0.56114 -2.14272 -0.25738 -0.45791 -0.59417 -0.8641 -0.99292 -1.20046 -0.67469 0.94232 -1.0718 2.09692 -1.0718 3.34427 0 1.24659 0.39663 2.40054 1.07057 3.3426ZM7.00002 0C3.13348 0 -0.000976562 3.13445 -0.000976562 7.001c0 3.8665 3.134456562 7.001 7.000996562 7.001 3.86658 0 7.00098 -3.1345 7.00098 -7.001C14.001 3.13445 10.8666 0 7.00002 0Z" clip-rule="evenodd" stroke-width="1"></path>
  </g>
</svg>