<svg xmlns="http://www.w3.org/2000/svg" fill="none" viewBox="0 0 14 14" id="Binance-Circle--Streamline-Core-Remix">
  <desc>
    Binance Circle Streamline Icon: https://streamlinehq.com
  </desc>
  <g id="Free Remix/Money Shopping/binance-circle--crypto-circle-payment-blockchain-finance-binance-currency">
    <path id="Union" fill="#000000" fill-rule="evenodd" d="M1.24902 7.001c0 -3.17619 2.57481 -5.751 5.751 -5.751 3.17618 0 5.75098 2.57481 5.75098 5.751 0 3.1762 -2.5748 5.751 -5.75098 5.751 -3.17619 0 -5.751 -2.5748 -5.751 -5.751ZM7.00002 0C3.13348 0 -0.000976562 3.13445 -0.000976562 7.001c0 3.8665 3.134456562 7.001 7.000996562 7.001 3.86658 0 7.00098 -3.1345 7.00098 -7.001C14.001 3.13445 10.8666 0 7.00002 0Zm-0.3873 2.38445c0.22707 -0.17927 0.54749 -0.17927 0.77456 0l2.375 1.875c0.27092 0.21389 0.31712 0.6069 0.10327 0.87783 -0.21389 0.27092 -0.6069 0.31716 -0.87783 0.10327L7 3.6713 5.01228 5.24055c-0.27093 0.21389 -0.66394 0.16765 -0.87783 -0.10327 -0.21389 -0.27093 -0.16765 -0.66394 0.10327 -0.87783l2.375 -1.875ZM4.13445 8.86272c0.21389 -0.27092 0.6069 -0.31716 0.87783 -0.10327L7 10.3287l1.98772 -1.56925c0.27093 -0.21389 0.66394 -0.16765 0.87783 0.10327 0.21385 0.27093 0.16765 0.66394 -0.10327 0.87783l-2.375 1.87505c-0.22707 0.1792 -0.54749 0.1792 -0.77456 0l-2.375 -1.87505c-0.27092 -0.21389 -0.31716 -0.6069 -0.10327 -0.87783ZM7 7.875c-0.48325 0 -0.875 -0.39175 -0.875 -0.875s0.39175 -0.875 0.875 -0.875 0.875 0.39175 0.875 0.875 -0.39175 0.875 -0.875 0.875Zm-3.19995 0c-0.48325 0 -0.875 -0.39175 -0.875 -0.875s0.39175 -0.875 0.875 -0.875 0.875 0.39175 0.875 0.875 -0.39175 0.875 -0.875 0.875Zm6.39995 0c-0.4833 0 -0.87505 -0.39175 -0.87505 -0.875s0.39175 -0.875 0.87505 -0.875c0.4832 0 0.875 0.39175 0.875 0.875s-0.3918 0.875 -0.875 0.875Z" clip-rule="evenodd" stroke-width="1"></path>
  </g>
</svg>