<svg xmlns="http://www.w3.org/2000/svg" fill="none" viewBox="0 0 14 14" id="Bow-Tie--Streamline-Core-Remix">
  <desc>
    Bow Tie Streamline Icon: https://streamlinehq.com
  </desc>
  <g id="Free Remix/Money Shopping/bow-tie--bow-tie-dress-gentleman-cloth-clothing-accessories">
    <path id="Union" fill="#000000" fill-rule="evenodd" d="M0 3.97808c0 -0.84038 0.661441 -1.6038 1.57269 -1.59002 0.94495 0.0143 1.71044 0.16958 2.50701 0.53333 0.76547 0.34956 1.53937 0.88325 2.51006 1.61211C6.72324 4.51146 6.86028 4.5 7 4.5s0.27676 0.01146 0.41024 0.0335c0.9707 -0.72886 1.74459 -1.26255 2.51006 -1.61211 0.7966 -0.36375 1.5621 -0.51903 2.507 -0.53333C13.3386 2.37428 14 3.1377 14 3.97808v6.02412c0 0.8265 -0.6406 1.584 -1.5389 1.5887 -0.944 0.005 -1.7036 -0.1407 -2.50239 -0.5027 -0.76549 -0.347 -1.54906 -0.8856 -2.5479 -1.62179C7.27715 9.4885 7.13992 9.5 7 9.5s-0.27715 -0.0115 -0.41081 -0.03359c-0.99884 0.73619 -1.78241 1.27479 -2.5479 1.62179 -0.7988 0.362 -1.55839 0.5077 -2.5024 0.5027C0.640558 11.5862 0 10.8287 0 10.0022V3.97808Zm8.68457 4.86916c0.72582 0.51926 1.27633 0.86953 1.79013 1.10241 0.6138 0.27815 1.1916 0.39545 1.9798 0.39125 0.1399 -0.0007 0.2955 -0.127 0.2955 -0.3387V3.97808c0 -0.21465 -0.1601 -0.34233 -0.3038 -0.34016 -0.7974 0.01206 -1.3887 0.13834 -2.0067 0.42053 -0.51238 0.234 -1.05629 0.58075 -1.75911 1.0905C9.18388 5.60629 9.5 6.26623 9.5 7c0 0.73174 -0.31438 1.39005 -0.81543 1.84724ZM3.56046 4.05845c0.51242 0.234 1.05633 0.58075 1.75915 1.0905C4.81612 5.60629 4.5 6.26623 4.5 7c0 0.73174 0.31438 1.39005 0.81543 1.84724 -0.72582 0.51926 -1.27633 0.86953 -1.79015 1.10241 -0.61376 0.27815 -1.19153 0.39545 -1.97979 0.39125 -0.13988 -0.0007 -0.29549 -0.127 -0.29549 -0.3387V3.97808c0 -0.21465 0.16013 -0.34233 0.30378 -0.34016 0.7974 0.01206 1.38874 0.13834 2.00668 0.42053Z" clip-rule="evenodd" stroke-width="1"></path>
  </g>
</svg>