<svg xmlns="http://www.w3.org/2000/svg" fill="none" viewBox="0 0 14 14" id="Cane--Streamline-Core-Remix">
  <desc>
    Cane Streamline Icon: https://streamlinehq.com
  </desc>
  <g id="Free Remix/Money Shopping/cane--walking-stick-cane-accessories-gentleman-accessories">
    <path id="Vector (Stroke) (Stroke)" fill="#000000" fill-rule="evenodd" d="M5.54585 1.18316c1.57882 -1.578828 4.1386 -1.578827 5.71745 0 1.5788 1.57882 1.5788 4.1386 0 5.71743L4.70346 13.4604c-0.72077 0.7208 -1.88937 0.7208 -2.61015 0 -0.72077 -0.7208 -0.72077 -1.8894 0 -2.6102l6.55982 -6.55976c0.13727 -0.13728 0.13727 -0.35985 0 -0.49713 -0.13728 -0.13728 -0.35986 -0.13728 -0.49713 0l-0.17263 0.17262c-0.72077 0.72078 -1.88938 0.72078 -2.61015 0 -0.72077 -0.72077 -0.72077 -1.88937 0 -2.61015l0.17263 -0.17262Zm4.83355 0.88388c-1.09068 -1.090668 -2.859 -1.090669 -3.94967 0l-0.17263 0.17263c-0.23261 0.23261 -0.23261 0.60976 0 0.84238 0.23262 0.23262 0.60977 0.23262 0.84239 0l0.17262 -0.17263c0.62544 -0.62543 1.63947 -0.62543 2.2649 0 0.62539 0.62544 0.62539 1.63947 0 2.2649L2.9772 11.7341c-0.23262 0.2326 -0.23262 0.6098 0 0.8424 0.23262 0.2326 0.60976 0.2326 0.84238 0l6.55982 -6.5598c1.0907 -1.09067 1.0907 -2.85899 0 -3.94966Z" clip-rule="evenodd" stroke-width="1"></path>
  </g>
</svg>