<svg xmlns="http://www.w3.org/2000/svg" fill="none" viewBox="0 0 14 14" id="Credit-Card-2--Streamline-Core-Remix">
  <desc>
    Credit Card 2 Streamline Icon: https://streamlinehq.com
  </desc>
  <g id="Free Remix/Money Shopping/credit-card-2--deposit-payment-finance-atm-withdraw-atm">
    <path id="Union" fill="#000000" fill-rule="evenodd" d="M1 0C0.734784 0 0.48043 0.105357 0.292893 0.292893 0.105357 0.48043 0 0.734784 0 1v3c0 0.26522 0.105357 0.51957 0.292893 0.70711C0.480429 4.89464 0.734783 5 1 5h1.875v7.875c0 0.6641 0.56533 1.125 1.16346 1.125h5.92308c0.59816 0 1.16346 -0.4609 1.16346 -1.125V5H13c0.2652 0 0.5196 -0.10536 0.7071 -0.29289C13.8946 4.51957 14 4.26522 14 4V1c0 -0.265215 -0.1054 -0.51957 -0.2929 -0.707107C13.5196 0.105356 13.2652 0 13 0H1Zm3.125 12.75V3.625h5.75v9.125h-5.75Zm2.87512 -6.3125c-0.9665 0 -1.75 0.7835 -1.75 1.75s0.7835 1.75 1.75 1.75 1.75 -0.7835 1.75 -1.75 -0.7835 -1.75 -1.75 -1.75Zm0 -0.60248c-0.41421 0 -0.75 -0.33578 -0.75 -0.75 0 -0.41421 0.33579 -0.75 0.75 -0.75h0.00003c0.41422 0 0.75 0.33579 0.75 0.75 0 0.41422 -0.33578 0.75 -0.75 0.75h-0.00003Zm0.00006 6.25998c-0.41421 0 -0.75 -0.3358 -0.75 -0.75s0.33579 -0.75 0.75 -0.75l0.00003 0c0.41422 0 0.75 0.3358 0.75 0.75s-0.33578 0.75 -0.75 0.75l-0.00003 0Z" clip-rule="evenodd" stroke-width="1"></path>
  </g>
</svg>