<svg xmlns="http://www.w3.org/2000/svg" fill="none" viewBox="0 0 14 14" id="Lipstick--Streamline-Core-Remix">
  <desc>
    Lipstick Streamline Icon: https://streamlinehq.com
  </desc>
  <g id="Free Remix/Money Shopping/lipstick--fashion-beauty-lip-lipstick-makeup-shopping">
    <path id="Union" fill="#000000" fill-rule="evenodd" d="M11.7831 0.178119c0.266 -0.073612 0.5503 -0.073543 0.8148 0.018001 0.2667 0.090684 0.4925 0.267488 0.6418 0.508452 0.1489 0.240178 0.2072 0.520018 0.1846 0.796558l-0.0002 0.00244 -0.1714 1.98168c-0.015 0.18368 -0.0653 0.36327 -0.1445 0.5297 -0.0793 0.1669 -0.1874 0.31993 -0.3174 0.45168l-0.0047 0.00477 -0.0001 -0.00003 -1.7075 1.68415c0.1022 0.11492 0.1587 0.2639 0.1579 0.41852 -0.0008 0.16633 -0.0679 0.32547 -0.1864 0.44218L8.8991 9.1341c0.12176 0.19281 0.09895 0.45068 -0.06844 0.61911L5.16793 13.4386l-0.00105 0.0011c-0.27842 0.2785 -0.6557 0.4353 -1.04961 0.4353 -0.3939 0 -0.77119 -0.1568 -1.04961 -0.4353l-0.00105 -0.0011 -2.06337 -2.0761 -0.00104 -0.0011c-0.276658 -0.28 -0.431399 -0.6582 -0.431399 -1.0517 0 -0.39356 0.154741 -0.77172 0.431399 -1.05175l0.00104 -0.00106 3.66273 -3.6854c0.09385 -0.09444 0.2215 -0.14754 0.35464 -0.14754 0.11423 0 0.22442 0.03908 0.31269 0.10983l2.11797 -2.13292c0.11725 -0.11808 0.27674 -0.18452 0.44314 -0.18462 0.15284 -0.00008 0.29992 0.05582 0.41384 0.15633L11.0748 0.594832l0.0016 -0.001606c0.1963 -0.195302 0.4403 -0.341379 0.7067 -0.415107ZM7.89527 4.72774 6.30481 6.32943l1.81073 1.82194L9.7252 6.5664 7.89527 4.72774Z" clip-rule="evenodd" stroke-width="1"></path>
  </g>
</svg>