<svg xmlns="http://www.w3.org/2000/svg" fill="none" viewBox="0 0 14 14" id="Qr-Code--Streamline-Core-Remix">
  <desc>
    Qr Code Streamline Icon: https://streamlinehq.com
  </desc>
  <g id="Free Remix/Money Shopping/qr-code--codes-tags-code-qr">
    <path id="Union" fill="#000000" fill-rule="evenodd" d="M1.73483 1.73483C1.80516 1.66451 1.90054 1.625 2 1.625h2c0.34518 0 0.625 -0.27982 0.625 -0.625 0 -0.345178 -0.27982 -0.625 -0.625 -0.625H2c-0.43098 0 -0.8443 0.171205 -1.149049 0.475951C0.546205 1.1557 0.375 1.56902 0.375 2v2c0 0.34518 0.279822 0.625 0.625 0.625 0.34518 0 0.625 -0.27982 0.625 -0.625V2c0 -0.09946 0.03951 -0.19484 0.10983 -0.26517ZM9.375 1c0 -0.345178 0.27982 -0.625 0.625 -0.625h2c0.431 0 0.8443 0.171205 1.149 0.475951 0.3048 0.304749 0.476 0.718069 0.476 1.149049v2c0 0.34518 -0.2798 0.625 -0.625 0.625s-0.625 -0.27982 -0.625 -0.625V2c0 -0.09946 -0.0395 -0.19484 -0.1098 -0.26517 -0.0704 -0.07032 -0.1657 -0.10983 -0.2652 -0.10983h-2c-0.34518 0 -0.625 -0.27982 -0.625 -0.625ZM2.5 4c0 -0.82843 0.67157 -1.5 1.5 -1.5h2c0.82843 0 1.5 0.67157 1.5 1.5v2c0 0.82843 -0.67157 1.5 -1.5 1.5H4c-0.82843 0 -1.5 -0.67157 -1.5 -1.5V4Zm1.25 5.375c0 -0.34518 -0.27982 -0.625 -0.625 -0.625s-0.625 0.27982 -0.625 0.625v1.5c0 0.3452 0.27982 0.625 0.625 0.625h1.5c0.34518 0 0.625 -0.2798 0.625 -0.625s-0.27982 -0.625 -0.625 -0.625H3.75v-0.875ZM5 9.25c0 -0.34518 0.27982 -0.625 0.625 -0.625h1.5c0.34518 0 0.625 0.27982 0.625 0.625v1.5c0 0.3452 -0.27982 0.625 -0.625 0.625s-0.625 -0.2798 -0.625 -0.625v-0.875h-0.875C5.27982 9.875 5 9.59518 5 9.25Zm5 -6.125c0 -0.34518 -0.27982 -0.625 -0.625 -0.625s-0.625 0.27982 -0.625 0.625v1.5c0 0.34518 0.27982 0.625 0.625 0.625h1.5c0.3452 0 0.625 -0.27982 0.625 -0.625S11.2202 4 10.875 4H10v-0.875Zm-1.25 3.5c0 -0.34518 0.27982 -0.625 0.625 -0.625h1.5c0.3452 0 0.625 0.27982 0.625 0.625v1.5c0 0.34518 -0.2798 0.625 -0.625 0.625s-0.625 -0.27982 -0.625 -0.625V7.25h-0.875c-0.34518 0 -0.625 -0.27982 -0.625 -0.625ZM10 9.375c0 -0.34518 -0.27982 -0.625 -0.625 -0.625s-0.625 0.27982 -0.625 0.625v1.5c0 0.3452 0.27982 0.625 0.625 0.625h1.5c0.3452 0 0.625 -0.2798 0.625 -0.625s-0.2798 -0.625 -0.625 -0.625H10v-0.875Zm3 0c0.3452 0 0.625 0.27982 0.625 0.625v2c0 0.431 -0.1712 0.8443 -0.476 1.149 -0.3047 0.3048 -0.718 0.476 -1.149 0.476h-2c-0.34518 0 -0.625 -0.2798 -0.625 -0.625s0.27982 -0.625 0.625 -0.625h2c0.0995 0 0.1948 -0.0395 0.2652 -0.1098 0.0703 -0.0704 0.1098 -0.1657 0.1098 -0.2652v-2c0 -0.34518 0.2798 -0.625 0.625 -0.625ZM1.625 10c0 -0.34518 -0.27982 -0.625 -0.625 -0.625 -0.345178 0 -0.625 0.27982 -0.625 0.625v2c0 0.431 0.171205 0.8443 0.475951 1.149 0.304749 0.3048 0.718069 0.476 1.149049 0.476h2c0.34518 0 0.625 -0.2798 0.625 -0.625s-0.27982 -0.625 -0.625 -0.625H2c-0.09946 0 -0.19484 -0.0395 -0.26517 -0.1098 -0.07032 -0.0704 -0.10983 -0.1657 -0.10983 -0.2652v-2Z" clip-rule="evenodd" stroke-width="1"></path>
  </g>
</svg>