<svg xmlns="http://www.w3.org/2000/svg" fill="none" viewBox="0 0 14 14" id="Stock--Streamline-Core-Remix">
  <desc>
    Stock Streamline Icon: https://streamlinehq.com
  </desc>
  <g id="Free Remix/Money Shopping/stock--price-stock-wallstreet-dollar-money-currency-fluctuate-candlestick-business">
    <path id="Union" fill="#000000" fill-rule="evenodd" d="M11.8767 0.125c0.3452 0 0.625 0.279822 0.625 0.625v0.47869c0.3991 0.06202 0.7527 0.26229 1.0093 0.54897 0.1466 0.16388 0.2625 0.35681 0.3377 0.56965 0.1151 0.32545 -0.0555 0.68253 -0.381 0.79756 -0.3254 0.11503 -0.6825 -0.05555 -0.7975 -0.381 -0.0199 -0.05627 -0.0508 -0.10805 -0.0907 -0.15257 -0.0848 -0.09476 -0.2061 -0.15293 -0.3417 -0.15293h-0.8386c-0.1889 0 -0.342 0.15313 -0.342 0.34202 0 0.16072 0.1119 0.29976 0.2689 0.33411l1.2767 0.27927c0.7845 0.17161 1.3433 0.8666 1.3433 1.66919 0 0.85347 -0.626 1.56148 -1.4444 1.68845v0.47854c0 0.34518 -0.2798 0.625 -0.625 0.625s-0.625 -0.27982 -0.625 -0.625v-0.47851c-0.6275 -0.09725 -1.1411 -0.53588 -1.34711 -1.1187 -0.11503 -0.32544 0.05555 -0.68252 0.38101 -0.79755 0.3254 -0.11503 0.6825 0.05555 0.7975 0.381 0.0633 0.17885 0.2339 0.30549 0.4324 0.30549h0.3528c0.0028 -0.00004 0.0056 -0.00005 0.0084 -0.00005 0.0028 0 0.0056 0.00001 0.0084 0.00005h0.3527c0.2528 0 0.4583 -0.2053 0.4583 -0.45872 0 -0.21561 -0.1502 -0.40208 -0.3604 -0.44806l-1.2767 -0.27928c-0.7308 -0.15987 -1.25178 -0.80708 -1.25178 -1.55523 0 -0.82951 0.63438 -1.51084 1.44448 -1.58527V0.75c0 -0.345178 0.2798 -0.625 0.625 -0.625ZM2.85718 0.893921c0 -0.414214 -0.33579 -0.75 -0.75 -0.75 -0.41422 0 -0.75 0.335786 -0.75 0.75V3.03427c-0.747641 0.12794 -1.3166527 0.77917 -1.3166527 1.5633V8.9225c0 0.78413 0.5690117 1.4354 1.3166527 1.5633v0.8395c0 0.4142 0.33578 0.75 0.75 0.75 0.41421 0 0.75 -0.3358 0.75 -0.75v-0.8395c0.74763 -0.128 1.31663 -0.77918 1.31663 -1.5633V4.59757c0 -0.78412 -0.569 -1.43535 -1.31663 -1.5633V0.893921ZM1.62662 4.26147c-0.18562 0 -0.33609 0.15048 -0.33609 0.3361V8.9225c0 0.18562 0.15047 0.33609 0.33609 0.33609h0.9611c0.18562 0 0.33609 -0.15047 0.33609 -0.33609V4.59757c0 -0.18562 -0.15047 -0.3361 -0.33609 -0.3361h-0.9611Zm5.28601 3.84436c-0.18562 0 -0.33609 0.15048 -0.33609 0.3361v1.44164c0 0.18563 0.15047 0.33613 0.33609 0.33613h0.9611c0.18562 0 0.33609 -0.1505 0.33609 -0.33613V8.44193c0 -0.18562 -0.15047 -0.3361 -0.33609 -0.3361h-0.9611Zm-1.58609 0.3361c0 -0.78413 0.56901 -1.43536 1.31665 -1.5633V4.11707c0 -0.41422 0.33578 -0.75 0.75 -0.75 0.41421 0 0.75 0.33578 0.75 0.75v2.76156c0.74763 0.12795 1.31663 0.77918 1.31663 1.5633v1.44164c0 0.78413 -0.569 1.43533 -1.31663 1.56333v1.6761c0 0.4143 -0.33579 0.75 -0.75 0.75 -0.41422 0 -0.75 -0.3357 -0.75 -0.75v-1.6761c-0.74764 -0.128 -1.31665 -0.7792 -1.31665 -1.56333V8.44193Z" clip-rule="evenodd" stroke-width="1"></path>
  </g>
</svg>