<svg xmlns="http://www.w3.org/2000/svg" fill="none" viewBox="0 0 14 14" id="Target--Streamline-Core-Remix">
  <desc>
    Target Streamline Icon: https://streamlinehq.com
  </desc>
  <g id="Free Remix/Money Shopping/target--shop-bullseye-arrow-target">
    <path id="Union" fill="#000000" fill-rule="evenodd" d="M11.1334 0.0181543c0.1736 0.0480844 0.3079 0.1858317 0.3516 0.3605897l0.4272 1.708956 1.709 0.42724c0.1747 0.04369 0.3125 0.17801 0.3605 0.3516 0.0481 0.1736 -0.0009 0.35965 -0.1283 0.48702l-2 2.00001c-0.1241 0.12419 -0.3044 0.17411 -0.4748 0.13151l-1.58393 -0.39599 -2.35285 2.35285c-0.24408 0.24408 -0.63981 0.24408 -0.88388 0 -0.24408 -0.24408 -0.24408 -0.6398 0 -0.88388L8.9108 4.2052l-0.39598 -1.58392c-0.0426 -0.17039 0.00733 -0.35063 0.13152 -0.47482L10.6463 0.146458c0.1274 -0.127375 0.3135 -0.176388 0.4871 -0.1283037ZM6.60365 1.27755c0.34435 -0.02392 0.6041 -0.322465 0.58018 -0.666813 -0.02392 -0.344348 -0.32247 -0.60410408 -0.66681 -0.5801815C5.18566 0.123048 3.90883 0.595775 2.83823 1.39257 1.76763 2.18937 0.948254 3.27675 0.477456 4.52552 0.00665894 5.77429 -0.0957743 7.13196 0.182327 8.43723c0.2781 1.30527 0.925043 2.50327 1.863973 3.45167 0.93893 0.9484 2.13037 1.6074 3.43278 1.8986 1.30242 0.2912 2.66105 0.2024 3.91448 -0.2558 1.25344 -0.4582 2.34904 -1.2666 3.15654 -2.3292 0.8075 -1.0625 1.293 -2.33453 1.3989 -3.66489 0.0274 -0.34409 -0.2294 -0.64523 -0.5735 -0.67261 -0.344 -0.02739 -0.6452 0.22936 -0.6726 0.57345 -0.0869 1.0918 -0.4853 2.13572 -1.148 3.00775 -0.6627 0.872 -1.56185 1.5354 -2.59052 1.9115 -1.02868 0.376 -2.14368 0.4489 -3.21254 0.2099 -1.06887 -0.239 -2.04666 -0.7798 -2.81722 -1.5581 -0.77057 -0.7784 -1.3015 -1.76154 -1.52973 -2.83275 -0.22824 -1.07121 -0.14417 -2.18543 0.2422 -3.21027 0.38638 -1.02484 1.05882 -1.91723 1.93744 -2.57115 0.87863 -0.65392 1.92649 -1.04187 3.01912 -1.11778Zm-0.09591 2.77061c0.12584 0.32142 -0.03272 0.684 -0.35415 0.80983 -0.35658 0.1396 -0.67274 0.36588 -0.91989 0.65837 -0.24715 0.2925 -0.41749 0.64199 -0.49563 1.01686 -0.07813 0.37488 -0.06159 0.76332 0.04813 1.1302 0.10972 0.36687 0.30916 0.70061 0.58028 0.97104 0.27113 0.27042 0.60538 0.469 0.97254 0.57778 0.36716 0.10878 0.75564 0.12432 1.13031 0.04522 0.37468 -0.0791 0.72373 -0.25034 1.01558 -0.49824 0.29186 -0.24791 0.51733 -0.56465 0.656 -0.92159 0.12501 -0.32175 0.48717 -0.48124 0.80892 -0.35623 0.32177 0.125 0.48127 0.48717 0.35627 0.80892 -0.214 0.5506 -0.56175 1.0392 -1.01196 1.42161 -0.45021 0.38237 -0.98865 0.64657 -1.56661 0.76857s-1.17722 0.098 -1.74359 -0.0698c-0.56637 -0.1677 -1.08198 -0.47407 -1.5002 -0.89122 -0.41823 -0.41715 -0.72588 -0.93197 -0.89513 -1.4979 -0.16925 -0.56594 -0.19477 -1.16513 -0.07424 -1.74341 0.12053 -0.57827 0.38329 -1.11738 0.76454 -1.56858 0.38125 -0.45119 0.86895 -0.80024 1.419 -1.01558 0.32143 -0.12583 0.684 0.03273 0.80983 0.35415Z" clip-rule="evenodd" stroke-width="1"></path>
  </g>
</svg>