<svg xmlns="http://www.w3.org/2000/svg" fill="none" viewBox="0 0 48 48" id="Business-Progress-Bar-2--Streamline-Plump">
  <desc>
    Business Progress Bar 2 Streamline Icon: https://streamlinehq.com
  </desc>
  <g id="business-progress-bar-2--business-production-arrow-workflow-money-flag-timeline">
    <path id="Ellipse 554" stroke="#000000" stroke-linecap="round" stroke-linejoin="round" d="M14 36a6 6 0 1 0 12 0 6 6 0 1 0 -12 0" stroke-width="3"></path>
    <path id="Rectangle 1098" stroke="#000000" stroke-linecap="round" stroke-linejoin="round" d="M36.144 32.351c0.132 -1.398 1.398 -2.045 2.659 -1.427a35.58 35.58 0 0 1 3.21 1.803c1.04 0.65 1.814 1.203 2.388 1.66 1.136 0.902 1.136 2.323 0 3.226a26.134 26.134 0 0 1 -2.387 1.66 35.748 35.748 0 0 1 -3.21 1.802c-1.262 0.618 -2.529 -0.03 -2.66 -1.428C36.06 38.767 36 37.582 36 36c0 -1.583 0.061 -2.768 0.144 -3.649Z" stroke-width="3"></path>
    <path id="Vector 1657" stroke="#000000" stroke-linecap="round" stroke-linejoin="round" d="m36 36 -10 0" stroke-width="3"></path>
    <path id="Vector 1658" stroke="#000000" stroke-linecap="round" stroke-linejoin="round" d="M14 36H3" stroke-width="3"></path>
    <path id="Vector 1659" stroke="#000000" stroke-linecap="round" stroke-linejoin="round" d="m20 30 0 -19" stroke-width="3"></path>
    <path id="Rectangle 1098_2" stroke="#000000" stroke-linecap="round" stroke-linejoin="round" d="M20 8.37c0 -1.24 1.11 -2.15 2.31 -1.834 1.757 0.463 4.484 1.279 8.067 2.646a64.085 64.085 0 0 1 3.765 1.56c2.422 1.107 2.422 3.41 0 4.517 -0.99 0.452 -2.225 0.972 -3.766 1.56C23.706 19.364 20 20 20 20l0 -7 0 -4.63Z" stroke-width="3"></path>
  </g>
</svg>