<svg xmlns="http://www.w3.org/2000/svg" fill="none" viewBox="0 0 48 48" id="Diamond-1--Streamline-Plump">
  <desc>
    Diamond 1 Streamline Icon: https://streamlinehq.com
  </desc>
  <g id="diamond-1--diamond-money-payment-finance-wealth-jewelry">
    <path id="Vector 21" stroke="#000000" stroke-linecap="round" stroke-linejoin="round" d="m44.88 18.016 -5.352 -9.49A3 3 0 0 0 36.915 7h-25.83a3 3 0 0 0 -2.612 1.526l-5.353 9.49a3 3 0 0 0 0.491 3.595l18.975 18.975a2 2 0 0 0 2.828 0L44.39 21.61a3 3 0 0 0 0.492 -3.595Z" stroke-width="3"></path>
    <path id="Intersect" stroke="#000000" stroke-linecap="round" stroke-linejoin="round" d="m18.773 7 -2.956 11.74a4 4 0 0 0 0.167 2.466l8.008 19.966 0.017 0" stroke-width="3"></path>
    <path id="Intersect_2" stroke="#000000" stroke-linecap="round" stroke-linejoin="round" d="m29.227 7 2.955 11.74a4 4 0 0 1 -0.166 2.466l-8.008 19.966" stroke-width="3"></path>
    <path id="Vector 1614" stroke="#000000" stroke-linecap="round" stroke-linejoin="round" d="M3 20h42" stroke-width="3"></path>
  </g>
</svg>