<svg xmlns="http://www.w3.org/2000/svg" fill="none" viewBox="0 0 48 48" id="Sofa--Streamline-Plump">
  <desc>
    Sofa Streamline Icon: https://streamlinehq.com
  </desc>
  <g id="sofa--decoration-furniture-interior-design-couch-sofa-decorate-shopping-catergories">
    <path id="Rectangle 253" stroke="#000000" stroke-linecap="round" stroke-linejoin="round" d="M3.10829 26.4331c-0.1008 -2.7419 1.39943 -5.3169 4.14115 -5.4226 0.82009 -0.0316 1.75708 0.0049 2.80936 0.1519 2.2779 0.3183 3.8627 2.3128 4.1105 4.5994C15.3907 37.0336 14.9052 45 14.9052 45l-5.35713 0 -1.5813 0c-2.07863 0 -3.81303 -1.5969 -3.97335 -3.6693 -0.51923 -6.712 -0.76695 -11.6825 -0.88513 -14.8976Z" stroke-width="1"></path>
    <path id="Rectangle 253_2" stroke="#000000" stroke-linecap="round" stroke-linejoin="round" d="M44.8922 26.4331c0.1008 -2.7419 -1.3995 -5.3169 -4.1412 -5.4226 -0.8201 -0.0316 -1.7571 0.0049 -2.8094 0.1519 -2.2778 0.3183 -3.8626 2.3128 -4.1104 4.5994C32.6097 37.0336 33.0952 45 33.0952 45l5.3572 0 1.5813 0c2.0786 0 3.813 -1.5969 3.9733 -3.6693 0.5193 -6.712 0.767 -11.6825 0.8852 -14.8976Z" stroke-width="1"></path>
    <path id="Subtract" stroke="#000000" stroke-linecap="round" stroke-linejoin="round" d="M14.9053 45h18.19" stroke-width="1"></path>
    <path id="Subtract_2" stroke="#000000" stroke-linecap="round" stroke-linejoin="round" d="M33.3334 31.3807C30.9748 31.1798 27.8018 31 23.9995 31c-3.801 0 -6.9732 0.1797 -9.3315 0.3805" stroke-width="1"></path>
    <path id="Subtract_3" stroke="#000000" stroke-linecap="round" stroke-linejoin="round" d="M40.7294 21.0097c0.1172 -3.077 0.2049 -6.6462 0.2453 -10.7769 0.0308 -3.14692 -1.8779 -5.9075 -4.9845 -6.41022C33.2885 3.38541 29.3807 3 23.9993 3c-5.3815 0 -9.2893 0.38541 -11.9909 0.82258 -3.10666 0.50272 -5.01535 3.26331 -4.9846 6.41022 0.04038 4.1308 0.12817 7.6999 0.24536 10.777" stroke-width="1"></path>
    <path id="Vector 1558" stroke="#000000" stroke-linecap="round" stroke-linejoin="round" d="M18 14v1" stroke-width="1"></path>
    <path id="Vector 1560" stroke="#000000" stroke-linecap="round" stroke-linejoin="round" d="M30 14v1" stroke-width="1"></path>
  </g>
</svg>