<svg xmlns="http://www.w3.org/2000/svg" fill="none" viewBox="0 0 48 48" id="Antenna--Streamline-Kameleon">
  <desc>
    Antenna Streamline Icon: https://streamlinehq.com
  </desc>
  <path fill="#92de46" d="M24.0045 48.0012c13.2552 0 24.0006 -10.7454 24.0006 -24.0006C48.0051 10.7454 37.2597 0 24.0045 0 10.7493 0 0.00390625 10.7454 0.00390625 24.0006c0 13.2552 10.74539375 24.0006 24.00059375 24.0006Z" stroke-width="1"></path>
  <path fill="#000000" d="M29.264 37.9651h4.341c-3.0385 -4.7748 -6.5779 -11.5141 -9.1346 -18.8291 -0.0589 -0.1684 -0.2287 -0.2727 -0.4072 -0.271 -0.1784 0.0022 -0.3421 0.1113 -0.401 0.2797 -2.4633 7.0994 -6.1184 14.0456 -9.1573 18.8204h4.341c0.4657 -0.8326 0.899 -1.7071 1.3148 -2.6047h7.788c0.4163 0.8976 0.8501 1.7721 1.3153 2.6047Zm-5.2091 -13.8906c0.4316 1.6342 0.8951 3.2269 1.3925 4.7748h-2.7845c0.497 -1.5483 0.9605 -3.1406 1.392 -4.7748Zm-3.1314 9.5496c0.408 -0.9832 0.792 -1.9977 1.1564 -3.0385H26.03c0.3644 1.0408 0.7484 2.0553 1.1564 3.0385h-6.2629Z" stroke-width="1"></path>
  <path fill="#ffffff" d="M27.749 14.8162c0 0.2043 0.0856 0.4072 0.2518 0.5508 0.4809 0.4149 0.7567 1.0171 0.7567 1.6521 0 0.6253 -0.2688 1.2214 -0.7384 1.6359 -0.3011 0.2658 -0.3294 0.7257 -0.0637 1.0264 0.2658 0.3011 0.7253 0.3295 1.0264 0.0637 0.7815 -0.6903 1.2297 -1.6835 1.2297 -2.726 0 -1.0578 -0.4595 -2.0615 -1.2607 -2.7531 -0.3042 -0.2623 -0.7632 -0.2287 -1.0255 0.0755 -0.1182 0.137 -0.1763 0.3063 -0.1763 0.4747Z" stroke-width="1"></path>
  <path fill="#ffffff" d="M31.1572 20.894c0 0.1999 0.0821 0.3989 0.2427 0.5424 0.2993 0.2675 0.7592 0.2418 1.0267 -0.0576 1.0727 -1.2 1.6635 -2.7482 1.6635 -4.3593 0 -1.5932 -0.5791 -3.1284 -1.6307 -4.3228 -0.2653 -0.3015 -0.7248 -0.3307 -1.0264 -0.0654 -0.3015 0.2653 -0.3308 0.7248 -0.0654 1.0263 0.8177 0.9286 1.2681 2.1226 1.2681 3.3619 0 1.2528 -0.4595 2.4567 -1.2934 3.3902 -0.124 0.1387 -0.1851 0.3115 -0.1851 0.4843Z" stroke-width="1"></path>
  <path fill="#ffffff" d="M33.9268 11.1811c0 0.1981 0.0807 0.3958 0.2391 0.5394 1.4924 1.3514 2.3481 3.2811 2.3481 5.2932 0 2.0077 -0.8527 3.9343 -2.3398 5.2854 -0.2972 0.2701 -0.3194 0.73 -0.0493 1.0272 0.2701 0.2972 0.73 0.319 1.0272 0.0493 1.79 -1.6264 2.8164 -3.9453 2.8164 -6.3619 0 -2.4223 -1.0303 -4.7443 -2.8264 -6.3711 -0.2976 -0.2697 -0.7576 -0.247 -1.0273 0.0511 -0.1261 0.1387 -0.188 0.3133 -0.188 0.4874Z" stroke-width="1"></path>
  <path fill="#ffffff" d="M20.2603 14.8162c0 0.2043 -0.0855 0.4072 -0.2518 0.5508 -0.4809 0.4149 -0.7566 1.0171 -0.7566 1.6521 0 0.6253 0.2688 1.2214 0.7383 1.6359 0.3011 0.2658 0.3295 0.7257 0.0637 1.0264 -0.2657 0.3011 -0.7252 0.3295 -1.0263 0.0637 -0.7816 -0.6903 -1.2297 -1.6835 -1.2297 -2.726 0 -1.0578 0.4595 -2.0615 1.2606 -2.7531 0.3042 -0.2623 0.7633 -0.2287 1.0255 0.0755 0.1183 0.137 0.1763 0.3063 0.1763 0.4747Z" stroke-width="1"></path>
  <path fill="#ffffff" d="M16.8518 20.894c0 0.1999 -0.082 0.3989 -0.2426 0.5424 -0.2994 0.2675 -0.7593 0.2418 -1.0268 -0.0576 -1.0726 -1.2 -1.6635 -2.7482 -1.6635 -4.3593 0 -1.5932 0.5791 -3.1284 1.6308 -4.3228 0.2653 -0.3015 0.7248 -0.3307 1.0263 -0.0654 0.3016 0.2653 0.3308 0.7248 0.0655 1.0263 -0.8178 0.9286 -1.2681 2.1226 -1.2681 3.3619 0 1.2528 0.4595 2.4567 1.2934 3.3902 0.1239 0.1387 0.185 0.3115 0.185 0.4843Z" stroke-width="1"></path>
  <path fill="#ffffff" d="M14.0827 11.1811c0 0.1981 -0.0807 0.3958 -0.2391 0.5394 -1.4924 1.3514 -2.3481 3.2811 -2.3481 5.2932 0 2.0077 0.8526 3.9343 2.3398 5.2854 0.2972 0.2701 0.3194 0.73 0.0493 1.0272 -0.2701 0.2972 -0.73 0.319 -1.0272 0.0493 -1.79 -1.6264 -2.8164 -3.9453 -2.8164 -6.3619 0 -2.4223 1.0303 -4.7443 2.8264 -6.3711 0.2976 -0.2697 0.7576 -0.247 1.0272 0.0511 0.1262 0.1387 0.1881 0.3133 0.1881 0.4874Z" stroke-width="1"></path>
</svg>