<svg viewBox="0 0 48 48" xmlns="http://www.w3.org/2000/svg"><path d="M46.25,45.7c0,1-10,1.3-22.25,1.3S1.75,46.69,1.75,45.7s10-1.81,22.25-1.81S46.25,44.7,46.25,45.7Z" fill="#45413c" opacity=".15"></path><path d="M2.950 2.950 L45.050 2.950 L45.050 45.050 L2.950 45.050 Z" fill="#fff"></path><path d="M41.44,42H6.56A3.61,3.61,0,0,1,3,38.43v3a3.61,3.61,0,0,0,3.61,3.61H41.44a3.61,3.61,0,0,0,3.61-3.61v-3A3.61,3.61,0,0,1,41.44,42Z" fill="#f0f0f0"></path><path d="M2.950 2.950 L45.050 2.950 L45.050 45.050 L2.950 45.050 Z" fill="none" stroke="#45413c" stroke-linecap="round" stroke-linejoin="round"></path><path d="M5.960 5.960 L42.040 5.960 L42.040 42.040 L5.960 42.040 Z" fill="#00b8f0"></path><path d="M40.84,39H7.16A1.2,1.2,0,0,1,6,37.83v3A1.2,1.2,0,0,0,7.16,42H40.84a1.2,1.2,0,0,0,1.2-1.2v-3A1.2,1.2,0,0,1,40.84,39Z" fill="#009fd9"></path><path d="M5.960 5.960 L42.040 5.960 L42.040 42.040 L5.960 42.040 Z" fill="none" stroke="#45413c" stroke-linecap="round" stroke-linejoin="round"></path><path d="M14.36 29.99L9.58 29.99 10.19 14.35 13.76 14.35 14.36 29.99z" fill="#ff6242" stroke="#45413c" stroke-linecap="round" stroke-linejoin="round"></path><path d="M26.39 29.99L21.61 29.99 22.21 14.35 25.79 14.35 26.39 29.99z" fill="#ff6242" stroke="#45413c" stroke-linecap="round" stroke-linejoin="round"></path><path d="M38.42 29.99L33.64 29.99 34.24 14.35 37.81 14.35 38.42 29.99z" fill="#ff6242" stroke="#45413c" stroke-linecap="round" stroke-linejoin="round"></path><path d="M9.86 22.7L14.08 22.7 13.9 18.09 10.04 18.09 9.86 22.7z" fill="#fff" stroke="#45413c" stroke-linecap="round" stroke-linejoin="round"></path><path d="M21.89 22.7L26.11 22.7 25.93 18.09 22.07 18.09 21.89 22.7z" fill="#fff" stroke="#45413c" stroke-linecap="round" stroke-linejoin="round"></path><path d="M33.92 22.7L38.14 22.7 37.96 18.09 34.1 18.09 33.92 22.7z" fill="#fff" stroke="#45413c" stroke-linecap="round" stroke-linejoin="round"></path><path d="M41.15,23.78,30,29.83V24.31a.59.59,0,0,0-.88-.53L18,29.83V24.31a.6.6,0,0,0-.89-.53L6,29.83v11A1.2,1.2,0,0,0,7.16,42H40.84a1.2,1.2,0,0,0,1.2-1.2V24.31A.6.6,0,0,0,41.15,23.78Z" fill="#b89558"></path><path d="M18,33,29.13,27a.59.59,0,0,1,.88.52V24.31a.59.59,0,0,0-.88-.53L18,29.83Z" fill="#debb7e"></path><path d="M18,27.5V24.31a.6.6,0,0,0-.89-.53L6,29.83V33L17.1,27A.6.6,0,0,1,18,27.5Z" fill="#debb7e"></path><path d="M41.15,23.78,30,29.83V33L41.15,27a.6.6,0,0,1,.89.52V24.31A.6.6,0,0,0,41.15,23.78Z" fill="#debb7e"></path><path d="M41.15,23.78,30,29.83V24.31a.59.59,0,0,0-.88-.53L18,29.83V24.31a.6.6,0,0,0-.89-.53L6,29.83v11A1.2,1.2,0,0,0,7.16,42H40.84a1.2,1.2,0,0,0,1.2-1.2V24.31A.6.6,0,0,0,41.15,23.78Z" fill="none" stroke="#45413c" stroke-linecap="round" stroke-linejoin="round"></path><path d="M9.58 33.44H12.11V42.04H9.58z" fill="#00dfeb" stroke="#45413c" stroke-linecap="round" stroke-linejoin="round"></path><path d="M15.31 33.44H17.84V42.04H15.31z" fill="#00dfeb" stroke="#45413c" stroke-linecap="round" stroke-linejoin="round"></path><path d="M30.16 33.44H32.69V42.04H30.16z" fill="#00dfeb" stroke="#45413c" stroke-linecap="round" stroke-linejoin="round"></path><path d="M35.89 33.44H38.42V42.04H35.89z" fill="#00dfeb" stroke="#45413c" stroke-linecap="round" stroke-linejoin="round"></path><path d="M11,6A4.76,4.76,0,0,0,12,8.13a2,2,0,1,0,2.87,1.64,5,5,0,0,0,.78.07A4.81,4.81,0,0,0,20.38,6Z" fill="#e0e0e0" stroke="#45413c" stroke-linecap="round" stroke-linejoin="round"></path><path d="M22.84,6A4.86,4.86,0,0,0,23.9,8.13a2,2,0,1,0,2.88,1.64,4.92,4.92,0,0,0,.78.07A4.8,4.8,0,0,0,32.27,6Z" fill="#e0e0e0" stroke="#45413c" stroke-linecap="round" stroke-linejoin="round"></path><path d="M40.84,6h-6.1A4.76,4.76,0,0,0,35.8,8.13a2,2,0,1,0,2.87,1.64,5,5,0,0,0,.78.07A4.77,4.77,0,0,0,42,9.08V7.16A1.2,1.2,0,0,0,40.84,6Z" fill="#e0e0e0" stroke="#45413c" stroke-linecap="round" stroke-linejoin="round"></path></svg>