<svg viewBox="0 0 48 48" xmlns="http://www.w3.org/2000/svg"><path d="M3.500 45.500 A20.5 1.5 0 1 0 44.500 45.500 A20.5 1.5 0 1 0 3.500 45.500 Z" fill="#45413c" opacity=".15"></path><path d="M4.000 15.000 L44.000 15.000 L44.000 18.000 L4.000 18.000 Z" fill="#8ca4b8"></path><path d="M43,15H5a1,1,0,0,0-1,1v1a1,1,0,0,0,0,.25,1,1,0,0,1,1-.75H43a1,1,0,0,1,1,.75A1,1,0,0,0,44,17V16A1,1,0,0,0,43,15Z" fill="#adc4d9"></path><path d="M4.000 15.000 L44.000 15.000 L44.000 18.000 L4.000 18.000 Z" fill="none" stroke="#45413c" stroke-linecap="round" stroke-linejoin="round"></path><path d="M5,18H43a0,0,0,0,1,0,0V43.5a1,1,0,0,1-1,1H6a1,1,0,0,1-1-1V18A0,0,0,0,1,5,18Z" fill="#fff"></path><path d="M5 18H43V20.25H5z" fill="#e0e0e0"></path><path d="M5,18H43a0,0,0,0,1,0,0V43.5a1,1,0,0,1-1,1H6a1,1,0,0,1-1-1V18A0,0,0,0,1,5,18Z" fill="none" stroke="#45413c" stroke-linecap="round" stroke-linejoin="round"></path><path d="M13.5 12.5H34.5V44.5H13.5z" fill="#fff"></path><path d="M13.5 12.5H34.5V14.29H13.5z" fill="#e0e0e0"></path><path d="M13.5 12.5H34.5V44.5H13.5z" fill="none" stroke="#45413c" stroke-linecap="round" stroke-linejoin="round"></path><path d="M18 33.5H30V44.5H18z" fill="#00b8f0"></path><path d="M20.44 44.5L25.64 44.5 30 33.93 30 33.5 24.97 33.5 20.44 44.5z" fill="#4acfff"></path><path d="M18 33.5H30V44.5H18z" fill="none" stroke="#45413c" stroke-linecap="round" stroke-linejoin="round"></path><path d="M17.000 30.000 L31.000 30.000 L31.000 33.500 L17.000 33.500 Z" fill="#8ca4b8"></path><path d="M30,30H18a1,1,0,0,0-1,1v1.5a.53.53,0,0,0,0,.12,1,1,0,0,1,1-.87H30a1,1,0,0,1,1,.87.53.53,0,0,0,0-.12V31A1,1,0,0,0,30,30Z" fill="#adc4d9"></path><path d="M17.000 30.000 L31.000 30.000 L31.000 33.500 L17.000 33.500 Z" fill="none" stroke="#45413c" stroke-linecap="round" stroke-linejoin="round"></path><path d="M12.500 9.500 L35.500 9.500 L35.500 12.500 L12.500 12.500 Z" fill="#8ca4b8"></path><path d="M34.5,9.5h-21a1,1,0,0,0-1,1v1a1,1,0,0,0,.05.25A1,1,0,0,1,13.5,11h21a1,1,0,0,1,1,.75,1,1,0,0,0,0-.25v-1A1,1,0,0,0,34.5,9.5Z" fill="#adc4d9"></path><path d="M12.500 9.500 L35.500 9.500 L35.500 12.500 L12.500 12.500 Z" fill="none" stroke="#45413c" stroke-linecap="round" stroke-linejoin="round"></path><path d="M27.5,19H26a.5.5,0,0,1-.5-.5V17a.5.5,0,0,0-.5-.5H23a.5.5,0,0,0-.5.5v1.5a.5.5,0,0,1-.5.5H20.5a.5.5,0,0,0-.5.5v2a.5.5,0,0,0,.5.5H22a.5.5,0,0,1,.5.5V24a.5.5,0,0,0,.5.5h2a.5.5,0,0,0,.5-.5V22.5A.5.5,0,0,1,26,22h1.5a.5.5,0,0,0,.5-.5v-2A.5.5,0,0,0,27.5,19Z" fill="#ff6242" stroke="#45413c" stroke-linecap="round" stroke-linejoin="round"></path><path d="M8.000 20.500 L10.500 20.500 L10.500 25.000 L8.000 25.000 Z" fill="#00b8f0"></path><path d="M8.5,25H10a.5.5,0,0,0,.5-.5V21a.5.5,0,0,0-.11-.3L8.17,24.87A.49.49,0,0,0,8.5,25Z" fill="#4acfff"></path><path d="M8.000 27.500 L10.500 27.500 L10.500 32.000 L8.000 32.000 Z" fill="#00b8f0"></path><path d="M8.5,32H10a.5.5,0,0,0,.5-.5V28a.5.5,0,0,0-.11-.3L8.17,31.87A.49.49,0,0,0,8.5,32Z" fill="#4acfff"></path><path d="M8.000 34.500 L10.500 34.500 L10.500 39.000 L8.000 39.000 Z" fill="#00b8f0"></path><path d="M8.5,39H10a.5.5,0,0,0,.5-.5V35a.5.5,0,0,0-.11-.3L8.17,38.87A.49.49,0,0,0,8.5,39Z" fill="#4acfff"></path><path d="M8.000 20.500 L10.500 20.500 L10.500 25.000 L8.000 25.000 Z" fill="none" stroke="#45413c" stroke-linecap="round" stroke-linejoin="round"></path><path d="M8.000 27.500 L10.500 27.500 L10.500 32.000 L8.000 32.000 Z" fill="none" stroke="#45413c" stroke-linecap="round" stroke-linejoin="round"></path><path d="M8.000 34.500 L10.500 34.500 L10.500 39.000 L8.000 39.000 Z" fill="none" stroke="#45413c" stroke-linecap="round" stroke-linejoin="round"></path><path d="M37.500 20.500 L40.000 20.500 L40.000 25.000 L37.500 25.000 Z" fill="#00b8f0"></path><path d="M38,25h1.5a.5.5,0,0,0,.5-.5V21a.5.5,0,0,0-.11-.3l-2.22,4.17A.49.49,0,0,0,38,25Z" fill="#4acfff"></path><path d="M37.500 27.500 L40.000 27.500 L40.000 32.000 L37.500 32.000 Z" fill="#00b8f0"></path><path d="M38,32h1.5a.5.5,0,0,0,.5-.5V28a.5.5,0,0,0-.11-.3l-2.22,4.17A.49.49,0,0,0,38,32Z" fill="#4acfff"></path><path d="M37.500 34.500 L40.000 34.500 L40.000 39.000 L37.500 39.000 Z" fill="#00b8f0"></path><path d="M38,39h1.5a.5.5,0,0,0,.5-.5V35a.5.5,0,0,0-.11-.3l-2.22,4.17A.49.49,0,0,0,38,39Z" fill="#4acfff"></path><path d="M37.500 20.500 L40.000 20.500 L40.000 25.000 L37.500 25.000 Z" fill="none" stroke="#45413c" stroke-linecap="round" stroke-linejoin="round"></path><path d="M37.500 27.500 L40.000 27.500 L40.000 32.000 L37.500 32.000 Z" fill="none" stroke="#45413c" stroke-linecap="round" stroke-linejoin="round"></path><path d="M37.500 34.500 L40.000 34.500 L40.000 39.000 L37.500 39.000 Z" fill="none" stroke="#45413c" stroke-linecap="round" stroke-linejoin="round"></path><path d="M24 33.5L24 44.5" fill="none" stroke="#45413c" stroke-linecap="round" stroke-linejoin="round"></path></svg>