<svg viewBox="0 0 48 48" xmlns="http://www.w3.org/2000/svg"><path d="M14.05,26.58l5.67-7a19.55,19.55,0,0,0-8.5-.24C8.1,20.11,7.61,26,7.56,28.79a.87.87,0,0,0,1.31.77Z" fill="#ff6242"></path><path d="M11.24,22a18.17,18.17,0,0,1,6.62-.13l1.86-2.28a19.55,19.55,0,0,0-8.5-.24C8.1,20.11,7.61,26,7.56,28.79a.85.85,0,0,0,.14.48C8,26.33,8.79,22.61,11.24,22Z" fill="#ff866e"></path><path d="M14.05,26.58l5.67-7a19.55,19.55,0,0,0-8.5-.24C8.1,20.11,7.61,26,7.56,28.79a.87.87,0,0,0,1.31.77Z" fill="none" stroke="#45413c" stroke-linecap="round" stroke-linejoin="round"></path><path d="M20.86,33.4l7-5.67a19.52,19.52,0,0,1,.24,8.49c-.73,3.12-6.58,3.61-9.41,3.66a.87.87,0,0,1-.77-1.31Z" fill="#ff6242"></path><path d="M25.41,36.21a18,18,0,0,0,.13-6.63l2.28-1.85a19.52,19.52,0,0,1,.24,8.49c-.73,3.12-6.58,3.61-9.41,3.66a.87.87,0,0,1-.48-.14C21.11,39.48,24.83,38.65,25.41,36.21Z" fill="#ff866e"></path><path d="M20.86,33.4l7-5.67a19.52,19.52,0,0,1,.24,8.49c-.73,3.12-6.58,3.61-9.41,3.66a.87.87,0,0,1-.77-1.31Z" fill="none" stroke="#45413c" stroke-linecap="round" stroke-linejoin="round"></path><path d="M39.48,21.56c5.42-5.7,3.71-12.73,2.86-15.2a2,2,0,0,0-.48-.78,2.13,2.13,0,0,0-.77-.48C38.62,4.25,31.58,2.54,25.88,8,18.84,14.66,14,26.5,14,26.5l7,7S32.78,28.6,39.48,21.56Z" fill="#e8f4fa"></path><path d="M28.05,11.87c5.53-5.27,12.31-3.8,15-2.94a17.29,17.29,0,0,0-.66-2.57A2,2,0,0,0,41.09,5.1C38.62,4.25,31.58,2.54,25.88,8,18.84,14.66,14,26.5,14,26.5l2.69,2.69C18.12,26,22.37,17.27,28.05,11.87Z" fill="#fff"></path><path d="M39.48,21.56c5.42-5.7,3.71-12.73,2.86-15.2a2,2,0,0,0-.48-.78,2.13,2.13,0,0,0-.77-.48C38.62,4.25,31.58,2.54,25.88,8,18.84,14.66,14,26.5,14,26.5l7,7S32.78,28.6,39.48,21.56Z" fill="none" stroke="#45413c" stroke-linecap="round" stroke-linejoin="round"></path><path d="M18.220 44.210 A10 1.5 0 1 0 38.220 44.210 A10 1.5 0 1 0 18.220 44.210 Z" fill="#45413c" opacity=".15"></path><path d="M22.7,25.65a.68.68,0,0,0-.92-.93,22.13,22.13,0,0,0-5.31,3.8,17.84,17.84,0,0,0-3.87,5.86.34.34,0,0,0,.44.45A17.84,17.84,0,0,0,18.9,31,21.91,21.91,0,0,0,22.7,25.65Z" fill="#ff6242" stroke="#45413c" stroke-linecap="round" stroke-linejoin="round"></path><path d="M28.240 13.720 A5.490 5.490 0 1 0 39.220 13.720 A5.490 5.490 0 1 0 28.240 13.720 Z" fill="#c0dceb" stroke="#45413c" stroke-linecap="round" stroke-linejoin="round"></path><path d="M29.960 13.690 A3.800 3.800 0 1 0 37.560 13.690 A3.800 3.800 0 1 0 29.960 13.690 Z" fill="#00b8f0"></path><path d="M31.07,11a3.8,3.8,0,0,0,0,5.38,3.94,3.94,0,0,0,.85.62l3.55-6.69A3.77,3.77,0,0,0,31.07,11Z" fill="#4acfff"></path><path d="M29.960 13.690 A3.800 3.800 0 1 0 37.560 13.690 A3.800 3.800 0 1 0 29.960 13.690 Z" fill="none" stroke="#45413c" stroke-linecap="round" stroke-linejoin="round"></path><path d="M11.34,41.47c-.7.7-5.16,2.21-7.42,2.94-.42.14-1-.47-.89-.89.73-2.25,2.24-6.71,3-7.42.95-1,3.43-1,4.91.46S12.29,40.52,11.34,41.47Z" fill="#ff8a14" stroke="#45413c" stroke-linecap="round" stroke-linejoin="round"></path><path d="M10.13,39.79c-.5.49-2.57,1-3,.56s.07-2.54.57-3a1.57,1.57,0,0,1,2.13.34A1.56,1.56,0,0,1,10.13,39.79Z" fill="#ffe500" stroke="#45413c" stroke-linecap="round" stroke-linejoin="round"></path><path d="M43.32,23.69l.8,1.51a.42.42,0,0,0,.32.22l1.69.2a.42.42,0,0,1,.25.71l-1.19,1.22a.39.39,0,0,0-.11.37l.33,1.67a.42.42,0,0,1-.59.46l-1.53-.76a.44.44,0,0,0-.39,0l-1.49.84a.43.43,0,0,1-.62-.43L41,28a.41.41,0,0,0-.13-.36L39.66,26.5a.42.42,0,0,1,.21-.72l1.68-.29a.41.41,0,0,0,.31-.23l.72-1.55A.41.41,0,0,1,43.32,23.69Z" fill="#ffe500"></path><path d="M40.53,27.31l1.06-.19a.4.4,0,0,0,.31-.23l.72-1.55a.42.42,0,0,1,.75,0l.79,1.51a.42.42,0,0,0,.32.22l1.07.13.83-.85a.42.42,0,0,0-.25-.71l-1.69-.2a.42.42,0,0,1-.32-.22l-.8-1.51a.41.41,0,0,0-.74,0l-.72,1.55a.41.41,0,0,1-.31.23l-1.68.29a.42.42,0,0,0-.21.72Z" fill="#fff48c"></path><path d="M43.32,23.69l.8,1.51a.42.42,0,0,0,.32.22l1.69.2a.42.42,0,0,1,.25.71l-1.19,1.22a.39.39,0,0,0-.11.37l.33,1.67a.42.42,0,0,1-.59.46l-1.53-.76a.44.44,0,0,0-.39,0l-1.49.84a.43.43,0,0,1-.62-.43L41,28a.41.41,0,0,0-.13-.36L39.66,26.5a.42.42,0,0,1,.21-.72l1.68-.29a.41.41,0,0,0,.31-.23l.72-1.55A.41.41,0,0,1,43.32,23.69Z" fill="none" stroke="#45413c" stroke-linecap="round" stroke-linejoin="round"></path><path d="M31.74,40.59,32,41.94a.35.35,0,0,0,.2.24l1.27.54a.34.34,0,0,1,0,.6l-1.2.68a.32.32,0,0,0-.17.26L32,45.63a.34.34,0,0,1-.57.22l-1-.93a.3.3,0,0,0-.3-.08l-1.34.3a.34.34,0,0,1-.38-.47L29,43.42a.31.31,0,0,0,0-.31l-.7-1.18a.34.34,0,0,1,.33-.51l1.36.16a.38.38,0,0,0,.3-.11l.9-1A.34.34,0,0,1,31.74,40.59Z" fill="#ffe500"></path><path d="M28.76,42.75l.86.1a.35.35,0,0,0,.3-.11l.9-1a.34.34,0,0,1,.59.15l.27,1.35a.31.31,0,0,0,.19.24l.8.34.84-.47a.34.34,0,0,0,0-.6l-1.27-.54a.35.35,0,0,1-.2-.24l-.27-1.35a.34.34,0,0,0-.58-.16l-.9,1a.38.38,0,0,1-.3.11l-1.36-.16a.34.34,0,0,0-.33.51Z" fill="#fff48c"></path><path d="M31.74,40.59,32,41.94a.35.35,0,0,0,.2.24l1.27.54a.34.34,0,0,1,0,.6l-1.2.68a.32.32,0,0,0-.17.26L32,45.63a.34.34,0,0,1-.57.22l-1-.93a.3.3,0,0,0-.3-.08l-1.34.3a.34.34,0,0,1-.38-.47L29,43.42a.31.31,0,0,0,0-.31l-.7-1.18a.34.34,0,0,1,.33-.51l1.36.16a.38.38,0,0,0,.3-.11l.9-1A.34.34,0,0,1,31.74,40.59Z" fill="none" stroke="#45413c" stroke-linecap="round" stroke-linejoin="round"></path><path d="M11.86,7A3.06,3.06,0,1,1,9.27,3.56,3.06,3.06,0,0,1,11.86,7Z" fill="#9ceb60"></path><path d="M9.27,5.74a3.06,3.06,0,0,1,2.41,2A2.87,2.87,0,0,0,11.86,7,3.06,3.06,0,0,0,5.8,6.15,3.23,3.23,0,0,0,6,7.67,3.08,3.08,0,0,1,9.27,5.74Z" fill="#c8ffa1"></path><path d="M11.86,7A3.06,3.06,0,1,1,9.27,3.56,3.06,3.06,0,0,1,11.86,7Z" fill="none" stroke="#45413c" stroke-linecap="round" stroke-linejoin="round"></path><path d="M5.86,7.3C5.1,7.82,3.57,9,4,9.86s10.49-5.15,10.14-6-2.5.12-3.26.48" fill="none" stroke="#45413c" stroke-linecap="round" stroke-linejoin="round"></path></svg>