<svg viewBox="0 0 48 48" xmlns="http://www.w3.org/2000/svg"><path d="M2.880 45.290 A21.12 1.71 0 1 0 45.120 45.290 A21.12 1.71 0 1 0 2.880 45.290 Z" fill="#45413c" opacity=".15"></path><path d="M4.020 4.020 L43.990 4.020 L43.990 43.990 L4.020 43.990 Z" fill="#fff"></path><path d="M40.56,41.13H7.44A3.43,3.43,0,0,1,4,37.7v2.86A3.42,3.42,0,0,0,7.44,44H40.56A3.42,3.42,0,0,0,44,40.56V37.7A3.43,3.43,0,0,1,40.56,41.13Z" fill="#f0f0f0"></path><path d="M4.020 4.020 L43.990 4.020 L43.990 43.990 L4.020 43.990 Z" fill="none" stroke="#45413c" stroke-linecap="round" stroke-linejoin="round"></path><path d="M6.870 6.870 L41.130 6.870 L41.130 41.130 L6.870 41.130 Z" fill="#00b8f0"></path><path d="M40,38.27H8a1.14,1.14,0,0,1-1.14-1.14V40A1.14,1.14,0,0,0,8,41.13H40A1.14,1.14,0,0,0,41.13,40V37.13A1.14,1.14,0,0,1,40,38.27Z" fill="#009fd9"></path><path d="M6.870 6.870 L41.130 6.870 L41.130 41.130 L6.870 41.130 Z" fill="none" stroke="#45413c" stroke-linecap="round" stroke-linejoin="round"></path><path d="M41.13,30.49H19.08l.68-5.79a.77.77,0,0,1,.76-.68H41.13Z" fill="#fff"></path><path d="M24.52,29l-2.44-2.44a.74.74,0,0,0-.54-.23h-2l-.17,1.52h1.11a.86.86,0,0,1,.57.23l2.56,2.44H41.13V29Z" fill="#e0e0e0"></path><path d="M41.13,30.49H19.08l.68-5.79a.77.77,0,0,1,.76-.68H41.13Z" fill="none" stroke="#45413c" stroke-linecap="round" stroke-linejoin="round"></path><path d="M41.13,24H21.36l.3-2.37a.76.76,0,0,1,.75-.67H41.13Z" fill="#fff"></path><path d="M21.36 24.02L41.13 24.02 41.13 22.73 21.53 22.73 21.36 24.02z" fill="#e0e0e0"></path><path d="M41.13,24H21.36l.3-2.37a.76.76,0,0,1,.75-.67H41.13Z" fill="none" stroke="#45413c" stroke-linecap="round" stroke-linejoin="round"></path><path d="M22.76,32.76,20.2,30.33a.77.77,0,0,0-.56-.23H11.15A13.4,13.4,0,0,0,13.27,36a11.86,11.86,0,0,0,9.79,5.16H40A1.16,1.16,0,0,0,41.13,40V32.76Z" fill="#fff"></path><path d="M40,37.65H23.06a11.86,11.86,0,0,1-9.79-5.16A10.89,10.89,0,0,1,12,30.1h-.86A13.4,13.4,0,0,0,13.27,36a11.86,11.86,0,0,0,9.79,5.16H40A1.16,1.16,0,0,0,41.13,40V36.5A1.15,1.15,0,0,1,40,37.65Z" fill="#e0e0e0"></path><path d="M22.76,32.76,20.2,30.33a.77.77,0,0,0-.56-.23H11.15A13.4,13.4,0,0,0,13.27,36a11.86,11.86,0,0,0,9.79,5.16H40A1.16,1.16,0,0,0,41.13,40V32.76Z" fill="none" stroke="#45413c" stroke-linecap="round" stroke-linejoin="round"></path><path d="M23.64,30.49l-2.43-2.44a.92.92,0,0,0-.54-.23h-9a.77.77,0,0,0-.75.91l.26,1.37h8.49a.77.77,0,0,1,.56.23l2.56,2.43H41.13V30.49Z" fill="#ff6242" stroke="#45413c" stroke-linecap="round" stroke-linejoin="round"></path><path d="M30.27 16.04H37.93V20.98H30.27z" fill="#ff6242"></path><path d="M30.27 18.94H37.93V20.86H30.27z" fill="#e04122"></path><path d="M30.27 16.04H37.93V20.98H30.27z" fill="none" stroke="#45413c" stroke-linecap="round" stroke-linejoin="round"></path><path d="M31.09,13h6a.83.83,0,0,1,.83.83V16a0,0,0,0,1,0,0H30.27a0,0,0,0,1,0,0V13.83a.83.83,0,0,1,.83-.83Z" fill="#656769" stroke="#45413c" stroke-linecap="round" stroke-linejoin="round"></path><path d="M25.92 26.3H28.200000000000003V28.580000000000002H25.92z" fill="#00b8f0" stroke="#45413c" stroke-linecap="round" stroke-linejoin="round"></path><path d="M31.25 26.3H33.53V28.580000000000002H31.25z" fill="#00b8f0" stroke="#45413c" stroke-linecap="round" stroke-linejoin="round"></path><path d="M36.49 26.3H38.77V28.580000000000002H36.49z" fill="#00b8f0" stroke="#45413c" stroke-linecap="round" stroke-linejoin="round"></path><path d="M13.27,36a11.86,11.86,0,0,0,9.79,5.16H40A1.16,1.16,0,0,0,41.13,40V36Z" fill="#ff6242"></path><path d="M40,37.65H23.06A12,12,0,0,1,17,36H13.27a11.86,11.86,0,0,0,9.79,5.16H40A1.16,1.16,0,0,0,41.13,40V36.5A1.15,1.15,0,0,1,40,37.65Z" fill="#e04122"></path><path d="M13.27,36a11.86,11.86,0,0,0,9.79,5.16H40A1.16,1.16,0,0,0,41.13,40V36Z" fill="none" stroke="#45413c" stroke-linecap="round" stroke-linejoin="round"></path></svg>