<svg viewBox="0 0 48 48" xmlns="http://www.w3.org/2000/svg"><path d="M32.62,19.88s3-4.67,3.45-5a2.28,2.28,0,0,1,2.06.31c.35.3-.61,5.22-.61,5.22Z" fill="#ff8a14"></path><path d="M36.07,16.88a2.3,2.3,0,0,1,2,.25,4.74,4.74,0,0,0,.06-2,2.28,2.28,0,0,0-2.06-.31c-.48.35-3.45,5-3.45,5l1.22.13A28.06,28.06,0,0,1,36.07,16.88Z" fill="#ffaa54"></path><path d="M32.62,19.88s3-4.67,3.45-5a2.28,2.28,0,0,1,2.06.31c.35.3-.61,5.22-.61,5.22Z" fill="none" stroke="#45413c" stroke-linecap="round" stroke-linejoin="round"></path><path d="M8.120 32.920 A17.34 1.58 0 1 0 42.800 32.920 A17.34 1.58 0 1 0 8.120 32.920 Z" fill="#45413c" opacity=".15"></path><path d="M21.58,19.06a39.43,39.43,0,0,1,2.94-4.4,1,1,0,0,1,1.1-.34A51.86,51.86,0,0,1,34.45,18a10.73,10.73,0,0,1,1.42,2.14Z" fill="#00b8f0"></path><path d="M24.54,19.28l3.87.29,3.05-3.05c-.88-.39-1.89-.81-2.94-1.21Z" fill="#4acfff"></path><path d="M21.58,19.06a39.43,39.43,0,0,1,2.94-4.4,1,1,0,0,1,1.1-.34A51.86,51.86,0,0,1,34.45,18a10.73,10.73,0,0,1,1.42,2.14Z" fill="none" stroke="#45413c" stroke-linecap="round" stroke-linejoin="round"></path><path d="M43.39 21.82L43.39 16.76" fill="none" stroke="#45413c" stroke-linecap="round" stroke-linejoin="round"></path><path d="M43.39,12.67l3.55,1.56a.53.53,0,0,1,0,1l-3.55,1.57Z" fill="#ff6242" stroke="#45413c" stroke-linecap="round" stroke-linejoin="round"></path><path d="M3.42,19.67a1,1,0,0,0-.84,1.43c.94,2.36,3.46,7.51,8.05,9.57,5.4,2.43,28.95.86,33.87.5a1,1,0,0,0,1-1,17.9,17.9,0,0,0-.07-3.42,24.59,24.59,0,0,0-2-4.95s-6.57-2.56-21.81-2.76C10.85,18.92,5.6,19.39,3.42,19.67Z" fill="#ffe500"></path><path d="M44.46,27.82c-5.11.36-29.53,1.93-35.14-.5a15.57,15.57,0,0,1-6.81-6.5,1,1,0,0,0,.07.28c.94,2.36,3.46,7.51,8.05,9.57,5.4,2.43,28.95.86,33.87.5a1,1,0,0,0,1-1,19.74,19.74,0,0,0,0-3.16A1.07,1.07,0,0,1,44.46,27.82Z" fill="#ebcb00"></path><path d="M3.42,19.67a1,1,0,0,0-.84,1.43c.94,2.36,3.46,7.51,8.05,9.57,5.4,2.43,28.95.86,33.87.5a1,1,0,0,0,1-1,17.9,17.9,0,0,0-.07-3.42,24.59,24.59,0,0,0-2-4.95s-6.57-2.56-21.81-2.76C10.85,18.92,5.6,19.39,3.42,19.67Z" fill="none" stroke="#45413c" stroke-linecap="round" stroke-linejoin="round"></path><path d="M45.19,25.92a23.21,23.21,0,0,0-.91-2.26,144.45,144.45,0,0,0-15-1.31c-12.22-.59-26.45-.53-26.45-.53a22.75,22.75,0,0,0,1.05,2.1c3.49,0,15.15,0,25.4.53A127.56,127.56,0,0,1,45.19,25.92Z" fill="#fff" stroke="#45413c" stroke-linecap="round" stroke-linejoin="round"></path></svg>