<svg viewBox="0 0 48 48" xmlns="http://www.w3.org/2000/svg"><path d="M46.25,45.7c0,1-10,1.3-22.25,1.3S1.75,46.69,1.75,45.7s10-1.81,22.25-1.81S46.25,44.7,46.25,45.7Z" fill="#45413c" opacity=".15"></path><path d="M3.030 3.030 L44.970 3.030 L44.970 44.970 L3.030 44.970 Z" fill="#fff"></path><path d="M41.37,42H6.63A3.6,3.6,0,0,1,3,38.38v3A3.6,3.6,0,0,0,6.63,45H41.37a3.6,3.6,0,0,0,3.6-3.6v-3A3.6,3.6,0,0,1,41.37,42Z" fill="#f0f0f0"></path><path d="M3.030 3.030 L44.970 3.030 L44.970 44.970 L3.030 44.970 Z" fill="none" stroke="#45413c" stroke-linecap="round" stroke-linejoin="round"></path><path d="M6.030 6.030 L41.980 6.030 L41.980 41.980 L6.030 41.980 Z" fill="#bf8df2"></path><path d="M6.030 6.030 L41.980 6.030 L41.980 41.980 L6.030 41.980 Z" fill="none" stroke="#45413c" stroke-linecap="round" stroke-linejoin="round"></path><path d="M6,26.41H42a0,0,0,0,1,0,0V40.77a1.2,1.2,0,0,1-1.2,1.2H7.23A1.2,1.2,0,0,1,6,40.77V26.41A0,0,0,0,1,6,26.41Z" fill="#6dd627"></path><path d="M40.77,39H7.23A1.2,1.2,0,0,1,6,37.78v3A1.19,1.19,0,0,0,7.23,42H40.77a1.19,1.19,0,0,0,1.2-1.2v-3A1.2,1.2,0,0,1,40.77,39Z" fill="#46b000"></path><path d="M35.91,17.63a3.22,3.22,0,1,1,0-6.44,3.11,3.11,0,0,1,.43,0,4.81,4.81,0,0,0-3.05-1.08,4.87,4.87,0,1,0,4.4,7A3.22,3.22,0,0,1,35.91,17.63Z" fill="#ffe500" stroke="#45413c" stroke-linecap="round" stroke-linejoin="round"></path><path d="M6,26.41H42a0,0,0,0,1,0,0V40.77a1.2,1.2,0,0,1-1.2,1.2H7.23A1.2,1.2,0,0,1,6,40.77V26.41A0,0,0,0,1,6,26.41Z" fill="none" stroke="#45413c" stroke-linecap="round" stroke-linejoin="round"></path><path d="M24,22.29,21.38,36.6l8.43-3.77a.59.59,0,0,0,.26-.86Z" fill="#ffaa54" stroke="#45413c" stroke-linecap="round" stroke-linejoin="round"></path><path d="M24,22.29l-10.25-2.4a.6.6,0,0,0-.72.46c-.15.76-.51,2.35-1.31,5.39a34,34,0,0,1-2.54,6.84.59.59,0,0,0,.38.84L21.38,36.6Z" fill="#ff8a14"></path><path d="M23.27,26.28l.73-4-10.24-2.4a.6.6,0,0,0-.73.46c-.12.61-.38,1.76-.89,3.77Z" fill="#ffaa54"></path><path d="M24,22.29l-10.25-2.4a.6.6,0,0,0-.72.46c-.15.76-.51,2.35-1.31,5.39a34,34,0,0,1-2.54,6.84.59.59,0,0,0,.38.84L21.38,36.6Z" fill="none" stroke="#45413c" stroke-linecap="round" stroke-linejoin="round"></path><path d="M24 22.29L26.07 34.5" fill="none" stroke="#45413c" stroke-linecap="round" stroke-linejoin="round"></path></svg>