<svg viewBox="0 0 48 48" xmlns="http://www.w3.org/2000/svg"><path d="M18.5,6.5H17a.5.5,0,0,1-.5-.5V4.5A.5.5,0,0,0,16,4H15a.5.5,0,0,0-.5.5V6a.5.5,0,0,1-.5.5H12.5A.5.5,0,0,0,12,7V8a.5.5,0,0,0,.5.5H14a.5.5,0,0,1,.5.5v4a.5.5,0,0,0,.5.5h1a.5.5,0,0,0,.5-.5V9a.5.5,0,0,1,.5-.5h1.5A.5.5,0,0,0,19,8V7A.5.5,0,0,0,18.5,6.5Z" fill="#debb7e" stroke="#45413c" stroke-linecap="round" stroke-linejoin="round"></path><path d="M3.500 45.500 A20.5 1.5 0 1 0 44.500 45.500 A20.5 1.5 0 1 0 3.500 45.500 Z" fill="#45413c" opacity=".15"></path><path d="M23,45H8.5a.5.5,0,0,1-.5-.5v-24l6.91-5.07a1,1,0,0,1,1.18,0L23,20.5Z" fill="#fff"></path><path d="M14.91,15.43,8,20.5V24l6.91-5.07a1,1,0,0,1,1.18,0L23,24V20.5l-6.91-5.07A1,1,0,0,0,14.91,15.43Z" fill="#f0f0f0"></path><path d="M23,45H8.5a.5.5,0,0,1-.5-.5v-24l6.91-5.07a1,1,0,0,1,1.18,0L23,20.5Z" fill="none" stroke="#45413c" stroke-linecap="round" stroke-linejoin="round"></path><path d="M40,30.5l-17-2V45H39.5a.5.5,0,0,0,.5-.5Z" fill="#fff"></path><path d="M23 28.5L23 31.31 40 34.87 40 30.5 23 28.5z" fill="#f0f0f0"></path><path d="M40,30.5l-17-2V45H39.5a.5.5,0,0,0,.5-.5Z" fill="none" stroke="#45413c" stroke-linecap="round" stroke-linejoin="round"></path><path d="M40.29,32.24,23,28.5V26l17.71,3.83a1,1,0,0,1,.79,1v.45A1,1,0,0,1,40.29,32.24Z" fill="#e04122" stroke="#45413c" stroke-linecap="round" stroke-linejoin="round"></path><path d="M15.5,21.5a3,3,0,0,0-3,3V29a.5.5,0,0,0,.5.5h5a.5.5,0,0,0,.5-.5V24.5A3,3,0,0,0,15.5,21.5Z" fill="#00b8f0"></path><path d="M17.05,21.94A3,3,0,0,0,12.5,24.5v4.1Z" fill="#4acfff"></path><path d="M15.5,21.5a3,3,0,0,0-3,3V29a.5.5,0,0,0,.5.5h5a.5.5,0,0,0,.5-.5V24.5A3,3,0,0,0,15.5,21.5Z" fill="none" stroke="#45413c" stroke-linecap="round" stroke-linejoin="round"></path><path d="M14,37h3a.5.5,0,0,1,.5.5V45a0,0,0,0,1,0,0h-4a0,0,0,0,1,0,0V37.5A.5.5,0,0,1,14,37Z" fill="#e04122" stroke="#45413c" stroke-linecap="round" stroke-linejoin="round"></path><path d="M29.5,42H27a.5.5,0,0,1-.5-.5V35.25a1.75,1.75,0,0,1,1.75-1.75h0A1.75,1.75,0,0,1,30,35.25V41.5A.5.5,0,0,1,29.5,42Z" fill="#00b8f0"></path><path d="M29.72,34.31a1.75,1.75,0,0,0-3.22.94V39Z" fill="#4acfff"></path><path d="M34.75,33.5A1.75,1.75,0,0,0,33,35.25V41.5a.5.5,0,0,0,.5.5H36a.5.5,0,0,0,.5-.5V35.25A1.75,1.75,0,0,0,34.75,33.5Z" fill="#00b8f0"></path><path d="M36.22,34.31a1.75,1.75,0,0,0-3.22.94V39Z" fill="#4acfff"></path><path d="M29.5,42H27a.5.5,0,0,1-.5-.5V35.25a1.75,1.75,0,0,1,1.75-1.75h0A1.75,1.75,0,0,1,30,35.25V41.5A.5.5,0,0,1,29.5,42Z" fill="none" stroke="#45413c" stroke-linecap="round" stroke-linejoin="round"></path><path d="M34.75,33.5A1.75,1.75,0,0,0,33,35.25V41.5a.5.5,0,0,0,.5.5H36a.5.5,0,0,0,.5-.5V35.25A1.75,1.75,0,0,0,34.75,33.5Z" fill="none" stroke="#45413c" stroke-linecap="round" stroke-linejoin="round"></path><path d="M7.29,21l7.62-5.59a1,1,0,0,1,1.18,0L23.71,21a1,1,0,0,0,1.39-.2l.28-.38a1,1,0,0,0-.2-1.41l-9.09-6.66a1,1,0,0,0-1.18,0L5.82,19a1,1,0,0,0-.2,1.41l.28.38A1,1,0,0,0,7.29,21Z" fill="#e04122" stroke="#45413c" stroke-linecap="round" stroke-linejoin="round"></path><path d="M15.5 21.5L15.5 29.5" fill="none" stroke="#45413c" stroke-linecap="round" stroke-linejoin="round"></path><path d="M12.5 24.5L18.5 24.5" fill="none" stroke="#45413c" stroke-linecap="round" stroke-linejoin="round"></path><path d="M12.5 27L18.5 27" fill="none" stroke="#45413c" stroke-linecap="round" stroke-linejoin="round"></path><path d="M36.64,17.82a2,2,0,0,0-2.48-.62l-.89.41-.59-.78a2,2,0,0,0-3.61.73,4.25,4.25,0,0,0,.59,3.38l2,3,3.19-1.69A4.21,4.21,0,0,0,37,19.55,2.06,2.06,0,0,0,36.64,17.82Z" fill="#ff87af"></path><path d="M30.21,18.65a2,2,0,0,1,2.47.62l.59.78.89-.41a2.06,2.06,0,0,1,2.48.63l0,.09a3.74,3.74,0,0,0,.3-.81,2,2,0,0,0-2.83-2.35l-.89.41-.59-.78a2.05,2.05,0,0,0-2.47-.63,2,2,0,0,0-1.13,1.36,4.19,4.19,0,0,0,.07,2.25A2,2,0,0,1,30.21,18.65Z" fill="#ffb0ca"></path><path d="M36.64,17.82a2,2,0,0,0-2.48-.62l-.89.41-.59-.78a2,2,0,0,0-3.61.73,4.25,4.25,0,0,0,.59,3.38l2,3,3.19-1.69A4.21,4.21,0,0,0,37,19.55,2.06,2.06,0,0,0,36.64,17.82Z" fill="none" stroke="#45413c" stroke-linecap="round" stroke-linejoin="round"></path><path d="M43.05,3.85a3.07,3.07,0,0,0-5.44-1.06L36.72,4l-1.35-.6A3.07,3.07,0,0,0,31.15,7a6.34,6.34,0,0,0,3.23,4l4.84,2.5,3-4.55A6.34,6.34,0,0,0,43.05,3.85Z" fill="#ff87af"></path><path d="M31.33,7.46a3.1,3.1,0,0,1,4-1.53l1.35.6.89-1.18A3.07,3.07,0,0,1,43.05,6.4c0,.11.05.23.07.34a6.32,6.32,0,0,0-.07-2.9,3.07,3.07,0,0,0-5.44-1L36.72,4l-1.35-.6A3.07,3.07,0,0,0,31.15,7C31.19,7.14,31.28,7.3,31.33,7.46Z" fill="#ffb0ca"></path><path d="M43.05,3.85a3.07,3.07,0,0,0-5.44-1.06L36.72,4l-1.35-.6A3.07,3.07,0,0,0,31.15,7a6.34,6.34,0,0,0,3.23,4l4.84,2.5,3-4.55A6.34,6.34,0,0,0,43.05,3.85Z" fill="none" stroke="#45413c" stroke-linecap="round" stroke-linejoin="round"></path></svg>