<svg xmlns="http://www.w3.org/2000/svg" fill="none" viewBox="0 0 14 14"><g id="hard-disk--device-disc-drive-disk-electronics-platter-turntable-raid-storage"><path id="Subtract" fill="#37d7ff" fill-rule="evenodd" d="M2.5.5h9a1 1 0 0 1 1 1v11a1 1 0 0 1-1 1h-9a1 1 0 0 1-1-1v-11a1 1 0 0 1 1-1Zm4.381 8.509a2.99 2.99 0 1 0 0-5.98 2.99 2.99 0 0 0 0 5.98Z" clip-rule="evenodd"></path><path id="Ellipse 223" fill="#ffffff" d="M3.891 6.019a2.99 2.99 0 1 0 5.98 0 2.99 2.99 0 1 0-5.98 0"></path><path id="Vector" stroke="#3e3e3e" stroke-linecap="round" stroke-linejoin="round" d="M11.5.5h-9a1 1 0 0 0-1 1v11a1 1 0 0 0 1 1h9a1 1 0 0 0 1-1v-11a1 1 0 0 0-1-1Z"></path><path id="Vector_2" stroke="#3e3e3e" stroke-linecap="round" stroke-linejoin="round" d="m4.5 10.5 1.75-2.75"></path><path id="Vector_3" stroke="#3e3e3e" stroke-linecap="round" stroke-linejoin="round" d="M4.09 7A2.93 2.93 0 0 1 4 5.16a3 3 0 1 1 4.67 3.27"></path><path id="Vector_4" stroke="#3e3e3e" stroke-linecap="round" stroke-linejoin="round" d="M7.5 11H10"></path></g></svg>