<svg xmlns="http://www.w3.org/2000/svg" fill="none" viewBox="0 0 14 14"><g id="shredder--device-electronics-shred-paper-cut-destroy-remove-delete"><path id="Vector" fill="#ffffff" d="M10.5 5.5v-3l-2-2h-5v5"></path><path id="Vector_2" fill="#37d7ff" d="M13.207 10.207a1 1 0 0 1-.707.293h-2v-2h-7v2h-2a1 1 0 0 1-1-1v-3a1 1 0 0 1 1-1h11a1 1 0 0 1 1 1v3a1 1 0 0 1-.293.707Z"></path><path id="Vector_3" stroke="#3e3e3e" stroke-linecap="round" stroke-linejoin="round" d="M12.5 10.5a1 1 0 0 0 1-1v-3a1 1 0 0 0-1-1h-11a1 1 0 0 0-1 1v3a1 1 0 0 0 1 1"></path><path id="Vector_4" stroke="#3e3e3e" stroke-linecap="round" stroke-linejoin="round" d="M3 8.5h8"></path><path id="Vector_5" stroke="#3e3e3e" stroke-linecap="round" stroke-linejoin="round" d="M5.75 8.5v5"></path><path id="Vector_6" stroke="#3e3e3e" stroke-linecap="round" stroke-linejoin="round" d="M3.5 8.5V11A1.5 1.5 0 0 1 2 12.5"></path><path id="Vector_7" stroke="#3e3e3e" stroke-linecap="round" stroke-linejoin="round" d="M8.25 8.5v5"></path><path id="Vector_8" stroke="#3e3e3e" stroke-linecap="round" stroke-linejoin="round" d="M10.5 8.5V11a1.5 1.5 0 0 0 1.5 1.5"></path><path id="Vector_9" stroke="#3e3e3e" stroke-linecap="round" stroke-linejoin="round" d="M10.5 5.5v-3l-2-2h-5v5"></path></g></svg>