<svg xmlns="http://www.w3.org/2000/svg" fill="none" viewBox="0 0 24 24" id="Arrow-Thick-Circle-Left-2--Streamline-Ultimate">
  <desc>
    Arrow Thick Circle Left 2 Streamline Icon: https://streamlinehq.com
  </desc>
  <path stroke="#000000" stroke-linecap="round" stroke-linejoin="round" d="M0.75 12c0 2.9837 1.18526 5.8452 3.29505 7.955C6.15483 22.0647 9.01631 23.25 12 23.25c2.9837 0 5.8452 -1.1853 7.955 -3.295 2.1097 -2.1098 3.295 -4.9713 3.295 -7.955 0 -2.98369 -1.1853 -5.84517 -3.295 -7.95495C17.8452 1.93526 14.9837 0.75 12 0.75c-2.98369 0 -5.84517 1.18526 -7.95495 3.29505C1.93526 6.15483 0.75 9.01631 0.75 12Z" stroke-width="1"></path>
  <path stroke="#000000" stroke-linecap="round" stroke-linejoin="round" d="M18.75 12c0 -0.5967 -0.2371 -1.169 -0.659 -1.591 -0.422 -0.42195 -0.9943 -0.659 -1.591 -0.659h-5.25l1.125 -1.125c0.2981 -0.2985 0.4656 -0.70313 0.4656 -1.125 0 -0.42188 -0.1675 -0.8265 -0.4656 -1.125 -0.2985 -0.29813 -0.7031 -0.46558 -1.125 -0.46558 -0.4219 0 -0.8265 0.16745 -1.125 0.46558L5.03 11.47c-0.06967 0.0696 -0.12493 0.1522 -0.16264 0.2431 -0.03771 0.091 -0.05712 0.1884 -0.05712 0.2869 0 0.0984 0.01941 0.1959 0.05712 0.2869 0.03771 0.0909 0.09297 0.1735 0.16264 0.2431l5.1 5.1c0.2985 0.2981 0.7031 0.4656 1.125 0.4656 0.4219 0 0.8265 -0.1675 1.125 -0.4656 0.2981 -0.2985 0.4656 -0.7031 0.4656 -1.125 0 -0.4219 -0.1675 -0.8265 -0.4656 -1.125l-1.13 -1.13h5.25c0.2955 0 0.5881 -0.0582 0.861 -0.1713 0.273 -0.113 0.5211 -0.2788 0.73 -0.4877 0.2089 -0.2089 0.3747 -0.457 0.4877 -0.73 0.1131 -0.2729 0.1713 -0.5655 0.1713 -0.861Z" stroke-width="1"></path>
</svg>