<svg xmlns="http://www.w3.org/2000/svg" fill="none" viewBox="0 0 48 48" id="Earpods--Streamline-Plump-Neon">
  <desc>
    Earpods Streamline Icon: https://streamlinehq.com
  </desc>
  <g id="earpods--airpods-audio-earpods-music-earbuds-true-wireless-entertainment">
    <path id="Vector" stroke="#000cfe" stroke-linecap="round" stroke-linejoin="round" d="M12.504 35.5902c-0.9809 -0.0127 -2.057 -0.0199 -3.23644 -0.0199 -1.92318 0 -3.57171 0.0191 -4.98045 0.05" stroke-width="3"></path>
    <path id="Vector_2" stroke="#000cfe" stroke-linecap="round" stroke-linejoin="round" d="M35.4961 35.5902c0.9809 -0.0127 2.057 -0.0199 3.2364 -0.0199 1.9232 0 3.5717 0.0191 4.9805 0.05" stroke-width="3"></path>
    <path id="Vector_3" stroke="#c71dff" stroke-linecap="round" stroke-linejoin="round" d="M45.0415 13.4624c-0.0008 -1.5534 -0.1311 -2.8587 -0.3218 -3.93787 -0.515 -2.91389 -2.9772 -4.80022 -5.8675 -5.43446 -2.1346 -0.46842 -4.9329 -0.92933 -8.1196 -1.08152 -1.407 -0.06719 -2.6412 0.59476 -2.94 1.97127 -0.3274 1.50757 -0.6365 4.09631 -0.6365 8.49718 0 4.4008 0.3091 6.9895 0.6365 8.4971 0.2988 1.3765 1.5321 2.0409 2.9373 1.9426 1.5858 -0.1109 3.2216 -0.3255 4.7657 -0.58v18.7382c0 1.6569 1.3432 3 3 3h1.5347c1.5137 0 2.7879 -1.1217 2.959 -2.6257 0.6473 -5.6892 2.0859 -19.4116 2.0859 -28.9868h-0.0337Z" stroke-width="3"></path>
    <path id="Vector_4" stroke="#c71dff" stroke-linecap="round" stroke-linejoin="round" d="M2.95933 13.4624c0.00081 -1.5534 0.13108 -2.8587 0.32181 -3.93787 0.515 -2.91389 2.97719 -4.80022 5.86747 -5.43446 2.13459 -0.46842 4.93299 -0.92933 8.11969 -1.08152 1.407 -0.06719 2.6411 0.59476 2.94 1.97127 0.3273 1.50757 0.6364 4.09631 0.6364 8.49718 0 4.4008 -0.3091 6.9895 -0.6364 8.4971 -0.2989 1.3765 -1.5322 2.0409 -2.9373 1.9426 -1.5859 -0.1109 -3.2217 -0.3255 -4.7658 -0.58v18.7382c0 1.6569 -1.3431 3 -3 3H7.97057c-1.51369 0 -2.78797 -1.1217 -2.95908 -2.6257 -0.64724 -5.6892 -2.08587 -19.4116 -2.08584 -28.9868h0.03368Z" stroke-width="3"></path>
    <path id="Vector_5" stroke="#000cfe" stroke-linecap="round" stroke-linejoin="round" d="M35.4961 35.5902c0.9809 -0.0127 2.0573 -0.0199 3.2367 -0.0199 1.9232 0 3.5714 0.0191 4.9801 0.05 -0.2718 2.7678 -0.5319 5.1487 -0.7231 6.8289 -0.1711 1.504 -1.4454 2.6257 -2.9591 2.6257h-1.5346c-1.6569 0 -3 -1.3431 -3 -3v-6.5046" stroke-width="3"></path>
    <path id="Vector_6" stroke="#000cfe" stroke-linecap="round" stroke-linejoin="round" d="M12.5049 35.5902c-0.9809 -0.0127 -2.0573 -0.0199 -3.23675 -0.0199 -1.92318 0 -3.57133 0.0191 -4.98007 0.05 0.27176 2.7678 0.53194 5.1487 0.7231 6.8289 0.1711 1.504 1.44538 2.6257 2.95907 2.6257h1.53463c1.65682 0 3.00002 -1.3431 3.00002 -3v-6.5046" stroke-width="3"></path>
  </g>
</svg>