<svg xmlns="http://www.w3.org/2000/svg" fill="none" viewBox="0 0 48 48" id="Gameboy--Streamline-Plump-Neon">
  <desc>
    Gameboy Streamline Icon: https://streamlinehq.com
  </desc>
  <g id="gameboy--entertainment-gaming-device-gameboy">
    <path id="Vector" stroke="#c71dff" stroke-linecap="round" stroke-linejoin="round" d="M37.771 45.3973c2.4473 -0.2216 4.3552 -2.0255 4.5928 -4.4714C42.6741 37.7314 43 32.3815 43 24c0 -8.3815 -0.3259 -13.7314 -0.6362 -16.92592 -0.2376 -2.44584 -2.1455 -4.24976 -4.5928 -4.47138C34.6198 2.31733 29.8095 2 24 2c-5.8095 0 -10.6198 0.31733 -13.771 0.6027 -2.44733 0.22162 -4.3552 2.02554 -4.59281 4.47138C5.32587 10.2686 5 15.6185 5 24s0.32587 13.7314 0.63619 16.9259c0.2376 2.4459 2.14547 4.2498 4.59281 4.4714C13.3802 45.6827 18.1905 46 24 46c5.8095 0 10.6198 -0.3173 13.771 -0.6027Z" stroke-width="1"></path>
    <path id="Vector_2" stroke="#000cfe" stroke-linecap="round" stroke-linejoin="round" d="M33.7344 25.7362c1.5071 -0.0849 2.7476 -1.0753 2.9404 -2.5724C36.8476 21.8219 37 19.8348 37 17s-0.1524 -4.8219 -0.3252 -6.1638c-0.1928 -1.49714 -1.4333 -2.48747 -2.9404 -2.5724C31.5907 8.14301 28.1719 8 24 8c-4.1719 0 -7.5907 0.14301 -9.7344 0.2638 -1.5071 0.08493 -2.7476 1.07526 -2.9404 2.5724C11.1524 12.1781 11 14.1652 11 17s0.1524 4.8219 0.3252 6.1638c0.1928 1.4971 1.4333 2.4875 2.9404 2.5724C16.4093 25.857 19.8281 26 24 26c4.1719 0 7.5907 -0.143 9.7344 -0.2638Z" stroke-width="1"></path>
    <path id="Vector_3" stroke="#000cfe" stroke-linecap="round" stroke-linejoin="round" d="M15.5 33v7" stroke-width="1"></path>
    <path id="Vector_4" stroke="#000cfe" stroke-linecap="round" stroke-linejoin="round" d="m19 36.5 -7 0" stroke-width="1"></path>
    <path id="Vector_5" stroke="#000cfe" stroke-linecap="round" stroke-linejoin="round" d="M36 36.5c0 1.933 -1.567 3.5 -3.5 3.5S29 38.433 29 36.5s1.567 -3.5 3.5 -3.5 3.5 1.567 3.5 3.5Z" stroke-width="1"></path>
  </g>
</svg>