<svg xmlns="http://www.w3.org/2000/svg" fill="none" viewBox="0 0 24 24" id="Cloud-Disable--Streamline-Cyber">
  <desc>
    Cloud Disable Streamline Icon: https://streamlinehq.com
  </desc>
  <path fill="#ffffff" d="M21.7148 9.95479h-3.0679l-2.5565 -6.1357h-5.113l-2.55646 4.0905h-4.0905L0.751343 13.5339l3.579097 4.6018H20.6922l2.5565 -3.5792 -1.5339 -4.60171Z" stroke-width="1"></path>
  <path fill="#bbd8ff" d="M23.2487 14.5565h-3.0678l-1.5339 1.0226H6.37574l-2.0453 -2.0452H0.751343l3.579097 4.6018H20.6922l2.5565 -3.5792Z" stroke-width="1"></path>
  <path stroke="#092f63" stroke-linecap="round" stroke-linejoin="round" d="M15.0677 9.95483h3.5792" stroke-width="1"></path>
  <path stroke="#092f63" stroke-linecap="round" stroke-linejoin="round" d="M0.751343 0.751343 23.2487 23.2487" stroke-width="1"></path>
  <path stroke="#092f63" stroke-linecap="round" stroke-linejoin="round" d="M18.1355 18.1357h2.5566l2.5565 -3.5792 -1.5339 -4.60171h-3.0679l-2.5565 -6.1357h-5.113l-2.55645 4.0905h-0.5113" stroke-width="1"></path>
  <path stroke="#092f63" stroke-linecap="round" stroke-linejoin="round" d="M4.84174 7.90955h-0.5113L0.751343 13.5338l3.579097 4.6018H15.0678" stroke-width="1"></path>
</svg>