<svg xmlns="http://www.w3.org/2000/svg" fill="none" viewBox="0 0 24 24" id="Server--Streamline-Cyber">
  <desc>
    Server Streamline Icon: https://streamlinehq.com
  </desc>
  <path fill="#ffffff" d="M19.1583 0.751343H4.84174L0.751343 4.84174V23.2487H23.2487V4.84174L19.1583 0.751343Z" stroke-width="1"></path>
  <path fill="#bbd8ff" d="M23.2487 8.4209H0.751343v2.5565H23.2487V8.4209Z" stroke-width="1"></path>
  <path fill="#bbd8ff" d="M23.2487 14.5565H0.751343v2.5565H23.2487v-2.5565Z" stroke-width="1"></path>
  <path fill="#bbd8ff" d="M23.2487 20.6921H0.751343v2.5565H23.2487v-2.5565Z" stroke-width="1"></path>
  <path stroke="#092f63" stroke-linecap="round" stroke-linejoin="round" d="M23.2487 4.84167H0.751343v6.13573H23.2487V4.84167Z" stroke-width="1"></path>
  <path stroke="#092f63" stroke-linecap="round" stroke-linejoin="round" d="M19.1583 0.751343H4.84174L0.751343 4.84174H23.2487L19.1583 0.751343Z" stroke-width="1"></path>
  <path stroke="#092f63" stroke-linecap="round" stroke-linejoin="round" d="M20.1809 6.88696v2.0452" stroke-width="1"></path>
  <path stroke="#092f63" stroke-linecap="round" stroke-linejoin="round" d="M18.1356 6.88696v2.0452" stroke-width="1"></path>
  <path stroke="#092f63" stroke-linecap="round" stroke-linejoin="round" d="M16.0905 6.88696v2.0452" stroke-width="1"></path>
  <path stroke="#092f63" stroke-linecap="round" stroke-linejoin="round" d="M23.2487 10.9774H0.751343v6.1356H23.2487v-6.1356Z" stroke-width="1"></path>
  <path stroke="#092f63" stroke-linecap="round" stroke-linejoin="round" d="M20.1809 13.0226v2.0452" stroke-width="1"></path>
  <path stroke="#092f63" stroke-linecap="round" stroke-linejoin="round" d="M18.1356 13.0226v2.0452" stroke-width="1"></path>
  <path stroke="#092f63" stroke-linecap="round" stroke-linejoin="round" d="M16.0905 13.0226v2.0452" stroke-width="1"></path>
  <path stroke="#092f63" stroke-linecap="round" stroke-linejoin="round" d="M23.2487 17.113H0.751343v6.1357H23.2487V17.113Z" stroke-width="1"></path>
  <path stroke="#092f63" stroke-linecap="round" stroke-linejoin="round" d="M20.1809 19.1583v2.0452" stroke-width="1"></path>
  <path stroke="#092f63" stroke-linecap="round" stroke-linejoin="round" d="M18.1356 19.1583v2.0452" stroke-width="1"></path>
  <path stroke="#092f63" stroke-linecap="round" stroke-linejoin="round" d="M16.0905 19.1583v2.0452" stroke-width="1"></path>
  <path stroke="#092f63" stroke-linecap="round" stroke-linejoin="round" d="m5.09735 6.63086 -1.2785 1.2783 1.2782 1.2785 1.2786 -1.2783 -1.2783 -1.2785Z" stroke-width="1"></path>
  <path stroke="#092f63" stroke-linecap="round" stroke-linejoin="round" d="m5.09759 12.7664 -1.2785 1.2783 1.2782 1.2786 1.2786 -1.2783 -1.2783 -1.2786Z" stroke-width="1"></path>
  <path stroke="#092f63" stroke-linecap="round" stroke-linejoin="round" d="m5.09781 18.9023 -1.2786 1.2784 1.2783 1.2785 1.2786 -1.2783 -1.2783 -1.2786Z" stroke-width="1"></path>
</svg>