<svg xmlns="http://www.w3.org/2000/svg" fill="none" viewBox="0 0 14 14" id="Cane--Streamline-Core-Neon">
  <desc>
    Cane Streamline Icon: https://streamlinehq.com
  </desc>
  <g id="cane--disability-cane">
    <path id="Vector 4996" stroke="#c71dff" stroke-linecap="round" stroke-linejoin="round" d="M7.50002 7.00002H6.32844c-0.53043 0 -1.03914 -0.21072 -1.41421 -0.58579L3.55811 5.05811" stroke-width="1"></path>
    <path id="Ellipse 239" stroke="#c71dff" stroke-linecap="round" stroke-linejoin="round" d="M3.5 2.25a1.75 1.75 0 1 0 3.5 0 1.75 1.75 0 1 0 -3.5 0" stroke-width="1"></path>
    <path id="Vector 4995" stroke="#c71dff" stroke-linecap="round" stroke-linejoin="round" d="M4 13.5v-2.5858c0 -0.2652 -0.10536 -0.5195 -0.29289 -0.7071L2.09307 8.59309c-0.34304 -0.34304 -0.39038 -0.88281 -0.11229 -1.28033l2.45704 -3.51222" stroke-width="1"></path>
    <path id="Vector 5070" stroke="#000cfe" stroke-linecap="round" stroke-linejoin="round" d="M9.5 9v0c0 -0.82843 0.6716 -1.5 1.5 -1.5v0c0.8284 0 1.5 0.67157 1.5 1.5v4.5" stroke-width="1"></path>
  </g>
</svg>