<svg xmlns="http://www.w3.org/2000/svg" fill="none" viewBox="0 0 14 14" id="High-Speed-Train-Front--Streamline-Core-Neon">
  <desc>
    High Speed Train Front Streamline Icon: https://streamlinehq.com
  </desc>
  <g id="high-speed-train-front">
    <path id="Vector 4670" stroke="#000cfe" stroke-linecap="round" stroke-linejoin="round" d="M9 6.5H5c-0.82843 0 -1.5 -0.67157 -1.5 -1.5S4.17157 3.5 5 3.5h4c0.82843 0 1.5 0.67157 1.5 1.5S9.82843 6.5 9 6.5Z" stroke-width="1"></path>
    <path id="Vector 4668" stroke="#000cfe" stroke-linecap="round" stroke-linejoin="round" d="M0.5 13.5 2 12" stroke-width="1"></path>
    <path id="Vector 4669" stroke="#000cfe" stroke-linecap="round" stroke-linejoin="round" d="M13.5 13.5 12 12" stroke-width="1"></path>
    <path id="Vector" stroke="#c71dff" stroke-linecap="round" stroke-linejoin="round" d="M7 8.5c-1.56763 0 -2.92464 0.90179 -3.58057 2.2149C4.32335 11.7937 5.52924 12.5 7 12.5c1.47077 0 2.67666 -0.7063 3.5806 -1.7851C9.92465 9.40179 8.56764 8.5 7 8.5Z" stroke-width="1"></path>
    <path id="Vector 4667" stroke="#c71dff" stroke-linecap="round" stroke-linejoin="round" d="M1.5 5C1.5 1.5 4.5 0.5 7 0.5s5.5 1 5.5 4.5 -2 7.5 -5.5 7.5 -5.5 -4 -5.5 -7.5Z" stroke-width="1"></path>
  </g>
</svg>