<svg xmlns="http://www.w3.org/2000/svg" fill="none" viewBox="0 0 14 14" id="Lift-Disability--Streamline-Core-Neon">
  <desc>
    Lift Disability Streamline Icon: https://streamlinehq.com
  </desc>
  <g id="lift-disability--arrow-up-human-down-person-user-lift-elevator-disability-wheelchair-accessible">
    <path id="Ellipse 1990" stroke="#c71dff" stroke-linecap="round" stroke-linejoin="round" d="M3.75 4.25a1.75 1.75 0 1 0 3.5 0 1.75 1.75 0 1 0 -3.5 0" stroke-width="1"></path>
    <path id="Vector 4983" stroke="#c71dff" stroke-linecap="round" stroke-linejoin="round" d="M5.5 6v2.5c0 0.55228 0.44772 1 1 1h1.3406c0.40003 0 0.76157 0.2384 0.91915 0.6061L10 13" stroke-width="1"></path>
    <path id="Ellipse 1989" stroke="#000cfe" stroke-linecap="round" stroke-linejoin="round" d="M3.5 7.5c-1.65685 0 -3 1.34315 -3 3 0 1.6569 1.34315 3 3 3 1.30622 0 2.41746 -0.8348 2.82929 -2" stroke-width="1"></path>
    <path id="Vector 4981" stroke="#000cfe" stroke-linecap="round" stroke-linejoin="round" d="m9.5 2.5 2 -2 2 2" stroke-width="1"></path>
    <path id="Vector 4982" stroke="#000cfe" stroke-linecap="round" stroke-linejoin="round" d="m9.5 5.5 2 2 2 -2" stroke-width="1"></path>
  </g>
</svg>