<svg xmlns="http://www.w3.org/2000/svg" fill="none" viewBox="0 0 14 14" id="Location-Pin-Disabled--Streamline-Core-Neon">
  <desc>
    Location Pin Disabled Streamline Icon: https://streamlinehq.com
  </desc>
  <g id="location-pin-disabled--navigation-map-maps-pin-gps-location-disabled-off">
    <path id="Ellipse 1693" stroke="#c71dff" stroke-linecap="round" stroke-linejoin="round" d="M10.524 10.524C11.5879 9.2477 12.5 7.66729 12.5 6c0 -3.03757 -2.4624 -5.5 -5.49999 -5.5 -1.77368 0 -3.35126 0.83958 -4.357 2.143" stroke-width="1"></path>
    <path id="Ellipse 1695" stroke="#c71dff" stroke-linecap="round" stroke-linejoin="round" d="M9 12.1016c-0.66802 0.606 -1.25068 1.0437 -1.54541 1.2554 -0.13242 0.095 -0.29158 0.143 -0.45459 0.143v0c-0.16301 0 -0.32034 -0.0467 -0.45277 -0.1417C5.58207 12.6655 1.5 9.52717 1.5 6.00005c0 -0.43165 0.04972 -0.85168 0.14376 -1.25469" stroke-width="1"></path>
    <path id="Ellipse 1692" stroke="#c71dff" stroke-linecap="round" stroke-linejoin="round" d="M5.05066 5.05067C5.25456 4.16247 6.04991 3.5 6.99999 3.5c1.10457 0 2 0.89543 2 2 0 0.95008 -0.66247 1.74543 -1.55068 1.94933" stroke-width="1"></path>
    <path id="Vector" stroke="#000cfe" stroke-linecap="round" stroke-linejoin="round" d="M0.502521 0.502441 13.4976 13.4975" stroke-width="1"></path>
  </g>
</svg>