<svg xmlns="http://www.w3.org/2000/svg" fill="none" viewBox="0 0 14 14"><g id="battery-medium-1--phone-mobile-charge-medium-device-electricity-power-battery"><path id="Union" fill="#37d7ff" fill-rule="evenodd" d="M1.5 2A1.5 1.5 0 0 0 0 3.5v7A1.5 1.5 0 0 0 1.5 12h10a1.5 1.5 0 0 0 1.5-1.5v-1a1 1 0 0 0 1-1v-3a1 1 0 0 0-1-1v-1A1.5 1.5 0 0 0 11.5 2h-10Z" clip-rule="evenodd"></path><path id="Union_2" fill="#3e3e3e" fill-rule="evenodd" d="M3.375 5a.625.625 0 1 0-1.25 0v4a.625.625 0 1 0 1.25 0V5Zm3.5 0a.625.625 0 1 0-1.25 0v4a.625.625 0 1 0 1.25 0V5Z" clip-rule="evenodd"></path></g></svg>