<svg xmlns="http://www.w3.org/2000/svg" fill="none" viewBox="0 0 14 14" id="Bluetooth-Disabled--Streamline-Core">
  <desc>
    Bluetooth Disabled Streamline Icon: https://streamlinehq.com
  </desc>
  <g id="bluetooth-disabled--bluetooth-internet-server-network-wireless-disabled-off-connection">
    <path id="Vector (Stroke)" fill="#8fbffa" fill-rule="evenodd" d="M6.216 0.16a0.75 0.75 0 0 1 0.804 0.12l3.789 3.315a0.75 0.75 0 0 1 -0.05 1.169L7.709 7l3.05 2.237a0.75 0.75 0 0 1 0.05 1.17L7.02 13.72a0.75 0.75 0 0 1 -1.244 -0.564v-4.74L3.655 9.972a0.75 0.75 0 1 1 -0.887 -1.21L5.172 7 2.768 5.236a0.75 0.75 0 0 1 0.887 -1.21l2.121 1.556V0.843a0.75 0.75 0 0 1 0.44 -0.683Zm1.06 8.383 1.84 1.35 -1.84 1.61v-2.96Zm0 -3.087v-2.96l1.84 1.61 -1.84 1.35Z" clip-rule="evenodd" stroke-width="1"></path>
    <path id="Vector (Stroke)_2" fill="#2859c5" fill-rule="evenodd" d="M0.219 0.219a0.75 0.75 0 0 0 0 1.06L12.72 13.782a0.75 0.75 0 0 0 1.061 -1.06L1.28 0.218a0.75 0.75 0 0 0 -1.061 0Z" clip-rule="evenodd" stroke-width="1"></path>
  </g>
</svg>