<svg xmlns="http://www.w3.org/2000/svg" fill="none" viewBox="0 0 14 14"><g id="chrome"><path id="Ellipse 26" fill="#37d7ff" d="M.25 7a6.75 6.75 0 1 0 13.5 0A6.75 6.75 0 1 0 .25 7"></path><path id="Intersect" fill="#3e3e3e" fill-rule="evenodd" d="M13.502 5.177a.816.816 0 0 1-.32.065h-3.27a3.394 3.394 0 0 1-.063 3.617L7.025 13.75H7a6.773 6.773 0 0 1-1.551-.179.749.749 0 0 1 .09-.246l1.692-2.931A3.404 3.404 0 0 1 4.118 8.81a.755.755 0 0 1-.074-.107L1.133 3.66c.264-.463.582-.893.944-1.279a.75.75 0 0 1 .162.195l1.698 2.94a3.402 3.402 0 0 1 3.3-1.91h5.6c.284.488.509 1.015.665 1.571Zm-4.82 2.708a.761.761 0 0 0-.039.062l-.068.118a1.902 1.902 0 1 1 .108-.18Z" clip-rule="evenodd"></path></g></svg>