<svg xmlns="http://www.w3.org/2000/svg" fill="none" viewBox="0 0 14 14" id="Computer-Chip-2--Streamline-Core">
  <desc>
    Computer Chip 2 Streamline Icon: https://streamlinehq.com
  </desc>
  <g id="computer-chip-2--core-microprocessor-device-electronics-chip-computer">
    <path id="Union" fill="#2859c5" fill-rule="evenodd" d="M10.057 3.085a0.75 0.75 0 0 1 0.75 -0.75h2.38a0.75 0.75 0 0 1 0 1.5h-2.38a0.75 0.75 0 0 1 -0.75 -0.75Zm0.75 3.165a0.75 0.75 0 0 0 0 1.5h2.38a0.75 0.75 0 0 0 0 -1.5h-2.38Zm0 3.915a0.75 0.75 0 0 0 0 1.5h2.38a0.75 0.75 0 0 0 0 -1.5h-2.38Zm-9.994 0a0.75 0.75 0 0 0 0 1.5h2.38a0.75 0.75 0 0 0 0 -1.5H0.813ZM0.063 7a0.75 0.75 0 0 1 0.75 -0.75h2.38a0.75 0.75 0 0 1 0 1.5H0.813A0.75 0.75 0 0 1 0.063 7Zm0.75 -4.665a0.75 0.75 0 1 0 0 1.5h2.38a0.75 0.75 0 0 0 0 -1.5H0.813Z" clip-rule="evenodd" stroke-width="1"></path>
    <path id="Union_2" fill="#8fbffa" fill-rule="evenodd" d="M4 0a1.5 1.5 0 0 0 -1.5 1.5v11A1.5 1.5 0 0 0 4 14h6a1.5 1.5 0 0 0 1.5 -1.5v-11A1.5 1.5 0 0 0 10 0H4Z" clip-rule="evenodd" stroke-width="1"></path>
    <path id="Vector (Stroke)" fill="#2859c5" fill-rule="evenodd" d="M6.723 11.807c0 -0.345 0.28 -0.625 0.625 -0.625h2a0.625 0.625 0 1 1 0 1.25h-2a0.625 0.625 0 0 1 -0.625 -0.625Z" clip-rule="evenodd" stroke-width="1"></path>
  </g>
</svg>