<svg xmlns="http://www.w3.org/2000/svg" fill="none" viewBox="0 0 14 14"><g id="controller-1--remote-quadcopter-drones-flying-drone-control-controller-technology-fly"><path id="Vector 2430" fill="#37d7ff" d="M1.203 5.169.784 8.94a2.305 2.305 0 0 0 4.353 1.286L5.5 9.5h3l.363.726a2.305 2.305 0 0 0 4.353-1.286l-.42-3.771A3 3 0 0 0 9.816 2.5h-5.63a3 3 0 0 0-2.982 2.669Z"></path><path id="Union" fill="#3e3e3e" fill-rule="evenodd" d="M5 5a.625.625 0 1 0-1.25 0v.542h-.542a.625.625 0 0 0 0 1.25h.542v.541a.625.625 0 1 0 1.25 0v-.541h.542a.625.625 0 0 0 0-1.25H5V5Zm4.266 2.417a.625.625 0 1 0 0-1.25.625.625 0 0 0 0 1.25Zm1.875-2.175a.625.625 0 1 1-1.25 0 .625.625 0 0 1 1.25 0Z" clip-rule="evenodd"></path></g></svg>