<svg xmlns="http://www.w3.org/2000/svg" fill="none" viewBox="0 0 14 14"><g id="cyborg--artificial-robotics-intelligence-machine-technology-android"><path id="Subtract" fill="#3e3e3e" fill-rule="evenodd" d="M7.75 1.54a.75.75 0 1 0-1.5 0v2.515a8.567 8.567 0 0 1 1.5 0V1.54Z" clip-rule="evenodd"></path><path id="Union" fill="#37d7ff" fill-rule="evenodd" d="M7 4.022c-1.592 0-3.074.428-4.17 1.291-1.109.874-1.788 2.17-1.788 3.81v3.33a1.5 1.5 0 0 0 1.5 1.5h8.916a1.5 1.5 0 0 0 1.5-1.5v-3.33c0-1.64-.68-2.936-1.788-3.81-1.096-.863-2.578-1.29-4.17-1.29Z" clip-rule="evenodd"></path><path id="Union_2" fill="#37d7ff" fill-rule="evenodd" d="M7 .046a1.562 1.562 0 1 0 0 3.125A1.562 1.562 0 0 0 7 .046Z" clip-rule="evenodd"></path><path id="Union_3" fill="#3e3e3e" fill-rule="evenodd" d="M4 7.75a.75.75 0 1 1 1.5 0 .75.75 0 0 1-1.5 0Zm4.5 0a.75.75 0 1 1 1.5 0 .75.75 0 0 1-1.5 0Zm3.019 1.737h1.44v1.25h-1.44a.375.375 0 0 0-.312.168l-.294.441a1.625 1.625 0 0 1-1.353.726H4.44a1.625 1.625 0 0 1-1.353-.726l-.294-.441a.375.375 0 0 0-.312-.168H1.042v-1.25H2.48c.544 0 1.052.273 1.353.726l.294.441c.07.105.186.168.312.168h5.12a.375.375 0 0 0 .312-.168l.294-.441c.3-.453.809-.726 1.353-.726Z" clip-rule="evenodd"></path></g></svg>