<svg xmlns="http://www.w3.org/2000/svg" fill="none" viewBox="0 0 14 14" id="Database-Server-2--Streamline-Core">
  <desc>
    Database Server 2 Streamline Icon: https://streamlinehq.com
  </desc>
  <g id="database-server-2--server-network-internet">
    <path id="Union" fill="#2859c5" fill-rule="evenodd" d="M7.75 10.237a0.75 0.75 0 0 0 -1.5 0v2.25H2a0.75 0.75 0 0 0 0 1.5h10a0.75 0.75 0 0 0 0 -1.5H7.75v-2.25Z" clip-rule="evenodd" stroke-width="1"></path>
    <path id="Union_2" fill="#8fbffa" fill-rule="evenodd" d="M1.5 0A1.5 1.5 0 0 0 0 1.5V3a1.5 1.5 0 0 0 1.5 1.5h11A1.5 1.5 0 0 0 14 3V1.5A1.5 1.5 0 0 0 12.5 0h-11Zm0 6A1.5 1.5 0 0 0 0 7.5V9a1.5 1.5 0 0 0 1.5 1.5h11A1.5 1.5 0 0 0 14 9V7.5A1.5 1.5 0 0 0 12.5 6h-11Z" clip-rule="evenodd" stroke-width="1"></path>
    <path id="Union_3" fill="#2859c5" fill-rule="evenodd" d="M2.75 3a0.75 0.75 0 1 0 0 -1.5 0.75 0.75 0 0 0 0 1.5Zm4.456 -0.75c0 -0.345 0.28 -0.625 0.625 -0.625H11a0.625 0.625 0 1 1 0 1.25H7.83a0.625 0.625 0 0 1 -0.624 -0.625ZM2.75 9a0.75 0.75 0 1 0 0 -1.5 0.75 0.75 0 0 0 0 1.5Zm5.08 -1.375a0.625 0.625 0 1 0 0 1.25H11a0.625 0.625 0 1 0 0 -1.25H7.83Z" clip-rule="evenodd" stroke-width="1"></path>
  </g>
</svg>