<svg xmlns="http://www.w3.org/2000/svg" fill="none" viewBox="0 0 14 14" id="Desktop-Chat--Streamline-Core">
  <desc>
    Desktop Chat Streamline Icon: https://streamlinehq.com
  </desc>
  <g id="desktop-chat--bubble-chat-customer-service-conversation-display-device">
    <path id="Union" fill="#2859c5" fill-rule="evenodd" d="M5.635 10.577a0.5 0.5 0 0 1 0.47 -0.332h1.79a0.5 0.5 0 0 1 0.47 0.332l0.687 1.918H10a0.75 0.75 0 1 1 0 1.5H4a0.75 0.75 0 0 1 0 -1.5h0.948l0.686 -1.918Z" clip-rule="evenodd" stroke-width="1"></path>
    <path id="Vector" fill="#2859c5" d="M5.429 4.648a1 1 0 0 0 1 1h2.214v1.208a0.5 0.5 0 0 0 0.777 0.416l2.437 -1.624H13a1 1 0 0 0 1 -1V1a1 1 0 0 0 -1 -1H6.429a1 1 0 0 0 -1 1v3.648Z" stroke-width="1"></path>
    <path id="Subtract" fill="#8fbffa" fill-rule="evenodd" d="M6.429 6.898h0.964c0.03 1.372 1.57 2.182 2.72 1.414l2.123 -1.414H13c0.36 0 0.699 -0.085 1 -0.234v2.88c0 0.804 -0.652 1.456 -1.457 1.456H1.457A1.457 1.457 0 0 1 0 9.543V1.957C0 1.152 0.652 0.5 1.457 0.5h2.777a2.28 2.28 0 0 0 -0.055 0.5v3.648a2.25 2.25 0 0 0 2.25 2.25Z" clip-rule="evenodd" stroke-width="1"></path>
  </g>
</svg>