<svg xmlns="http://www.w3.org/2000/svg" fill="none" viewBox="0 0 14 14"><g id="desktop-code--desktop-device-display-computer-code-terminal-html-css-programming-system"><path id="Union" fill="#3e3e3e" fill-rule="evenodd" d="M5.635 10.577a.5.5 0 0 1 .47-.332h1.79a.5.5 0 0 1 .47.332l.687 1.918H10a.75.75 0 1 1 0 1.5H4a.75.75 0 0 1 0-1.5h.948l.686-1.918Z" clip-rule="evenodd"></path><path id="Union_2" fill="#37d7ff" fill-rule="evenodd" d="M1.457.5C.652.5 0 1.152 0 1.957v7.586C0 10.348.652 11 1.457 11h11.086C13.348 11 14 10.348 14 9.543V1.957C14 1.152 13.348.5 12.543.5H1.457Z" clip-rule="evenodd"></path><path id="Union_3" fill="#3e3e3e" fill-rule="evenodd" d="M5.53 4.653a.75.75 0 0 0-1.06-1.06l-1.5 1.5a.75.75 0 0 0 0 1.06l1.5 1.5a.75.75 0 0 0 1.06-1.06l-.97-.97.97-.97Zm4-1.06a.75.75 0 0 0-1.06 1.06l.97.97-.97.97a.75.75 0 0 0 1.06 1.06l1.5-1.5a.75.75 0 0 0 0-1.06l-1.5-1.5Z" clip-rule="evenodd"></path></g></svg>