<svg xmlns="http://www.w3.org/2000/svg" fill="none" viewBox="0 0 14 14" id="Hand-Held-Tablet-Drawing--Streamline-Core">
  <desc>
    Hand Held Tablet Drawing Streamline Icon: https://streamlinehq.com
  </desc>
  <g id="hand-held-tablet-drawing--tablet-kindle-device-electronics-ipad-digital-drawing-canvas">
    <path id="Union" fill="#8fbffa" fill-rule="evenodd" d="M2.887 0.094c-0.944 0 -1.663 0.785 -1.663 1.697v10.418c0 0.912 0.72 1.697 1.663 1.697h8.225c0.944 0 1.664 -0.785 1.664 -1.697V1.844a1.75 1.75 0 0 0 -1.75 -1.75H2.887Z" clip-rule="evenodd" stroke-width="1"></path>
    <path id="Union_2" fill="#2859c5" fill-rule="evenodd" d="M1.974 10.25h-0.75l0 0.75 0 1.21c0 0.911 0.72 1.696 1.663 1.696h8.226c0.944 0 1.663 -0.785 1.663 -1.697l0 -1.209 0 -0.75H1.974Z" clip-rule="evenodd" stroke-width="1"></path>
    <path id="Vector 1498 (Stroke)" fill="#2859c5" fill-rule="evenodd" d="M5.482 3.515c-0.292 0.158 -0.61 0.478 -0.84 0.805a0.625 0.625 0 0 1 -1.021 -0.722c0.294 -0.415 0.744 -0.9 1.266 -1.182 0.264 -0.143 0.585 -0.255 0.934 -0.243 0.368 0.013 0.712 0.162 0.997 0.446 0.493 0.494 0.38 1.141 0.235 1.56 -0.144 0.42 -0.406 0.87 -0.626 1.249l-0.029 0.05c-0.248 0.427 -0.434 0.758 -0.512 1.014a0.939 0.939 0 0 0 -0.02 0.073 0.946 0.946 0 0 0 0.237 -0.123c0.282 -0.19 0.598 -0.51 0.973 -0.896L7.12 5.5c0.336 -0.347 0.726 -0.749 1.11 -1.014 0.382 -0.264 1.015 -0.562 1.635 -0.149 0.228 0.152 0.408 0.355 0.504 0.616 0.093 0.254 0.083 0.502 0.04 0.707 -0.067 0.33 -0.25 0.672 -0.382 0.917l-0.045 0.085c-0.163 0.308 -0.241 0.493 -0.253 0.625 -0.004 0.046 0.004 0.064 0.008 0.072 0.006 0.011 0.03 0.056 0.128 0.121a0.625 0.625 0 1 1 -0.693 1.04 1.576 1.576 0 0 1 -0.554 -0.604 1.37 1.37 0 0 1 -0.134 -0.734c0.036 -0.427 0.25 -0.833 0.393 -1.105l0.026 -0.047c0.16 -0.305 0.253 -0.48 0.282 -0.621a0.353 0.353 0 0 0 0.004 -0.02l-0.003 -0.002a0.79 0.79 0 0 0 -0.246 0.127c-0.276 0.191 -0.588 0.512 -0.966 0.902l-0.011 0.011c-0.346 0.357 -0.754 0.778 -1.163 1.052 -0.401 0.27 -1.03 0.544 -1.655 0.152a1.117 1.117 0 0 1 -0.515 -0.74 1.579 1.579 0 0 1 0.06 -0.763c0.127 -0.416 0.393 -0.875 0.615 -1.256l0.012 -0.022c0.247 -0.425 0.452 -0.78 0.554 -1.077a0.768 0.768 0 0 0 0.055 -0.277c-0.066 -0.064 -0.112 -0.072 -0.148 -0.074a0.614 0.614 0 0 0 -0.296 0.093Zm0.331 3.06 -0.002 -0.001 0.002 0.001Z" clip-rule="evenodd" stroke-width="1"></path>
  </g>
</svg>