<svg xmlns="http://www.w3.org/2000/svg" fill="none" viewBox="0 0 14 14" id="Instagram--Streamline-Core">
  <desc>
    Instagram Streamline Icon: https://streamlinehq.com
  </desc>
  <g id="instagram">
    <path id="Rectangle 2" fill="#8fbffa" d="M0.786499 3.3904c0 -1.43803 1.165751 -2.603779 2.603771 -2.603779h6.94343c1.438 0 2.6037 1.165749 2.6037 2.603779v6.9434c0 1.438 -1.1657 2.6038 -2.6037 2.6038H3.39027c-1.43802 0 -2.603771 -1.1658 -2.603771 -2.6038V3.3904Z" stroke-width="1"></path>
    <path id="Union" fill="#2859c5" d="M10.9673 3.35269c0 0.3493 -0.2831 0.63247 -0.6324 0.63247 -0.34934 0 -0.63251 -0.28317 -0.63251 -0.63247 0 -0.34931 0.28317 -0.63248 0.63251 -0.63248 0.3493 0 0.6324 0.28317 0.6324 0.63248Z" stroke-width="1"></path>
    <path id="Union_2" fill="#2859c5" fill-rule="evenodd" d="M10.3331 4.14417c0.4142 0 0.75 -0.33579 0.75 -0.75 0 -0.41422 -0.3358 -0.75 -0.75 -0.75 -0.41418 0 -0.74997 0.33578 -0.74997 0.75 0 0.41421 0.33579 0.75 0.74997 0.75ZM3.78198 6.86204c0 -1.70107 1.37899 -3.08006 3.08006 -3.08006S9.9421 5.16097 9.9421 6.86204 8.56311 9.9421 6.86204 9.9421 3.78198 8.56311 3.78198 6.86204Z" clip-rule="evenodd" stroke-width="1"></path>
  </g>
</svg>