<svg xmlns="http://www.w3.org/2000/svg" fill="none" viewBox="0 0 14 14" id="Paypal--Streamline-Core">
  <desc>
    Paypal Streamline Icon: https://streamlinehq.com
  </desc>
  <g id="paypal--payment-paypal">
    <path id="Vector" fill="#8fbffa" d="M8.0008 1.09486 2.9808 0.0152523c-0.06373 -0.01628191 -0.13009 -0.01956882 -0.19512 -0.00966473 -0.06503 0.00990413 -0.1274 0.03279643 -0.1834 0.06731213 -0.05599 0.0345153 -0.10445 0.0799483 -0.14251 0.1335883 -0.03805 0.053641 -0.0649 0.114391 -0.07897 0.178629l-1.36 6.407663L0.0108044 11.5011c-0.0268829 0.1258 -0.00313979 0.2572 0.0660968 0.3657 0.0692368 0.1085 0.1784038 0.1854 0.3039028 0.214l1.199996 0.26c0.06304 0.0131 0.12806 0.0137 0.19133 0.0018 0.06328 -0.012 0.12358 -0.0363 0.17744 -0.0716 0.05387 -0.0353 0.10025 -0.0808 0.1365 -0.134 0.03624 -0.0532 0.06164 -0.1131 0.07473 -0.1761l1 -4.6783 3.44 0.73973c0.51241 0.11015 1.04295 0.10452 1.5529 -0.01647 0.50995 -0.12099 0.98643 -0.35429 1.39467 -0.68287 0.40824 -0.32858 0.73793 -0.74414 0.96493 -1.21634 0.2271 -0.47221 0.3458 -0.98915 0.3475 -1.51307 -0.0034 -0.8225 -0.2894 -1.61886 -0.81 -2.25577 -0.52068 -0.6369 -1.24438 -1.07571 -2.05 -1.24295Zm-1.36 4.6583 -3 -0.64976 0.55 -2.59906 3 0.64977c0.34213 0.07423 0.64075 0.28128 0.83016 0.57561 0.18941 0.29432 0.2541 0.65181 0.17984 0.99381 -0.07426 0.34201 -0.28139 0.64052 -0.57582 0.82986 -0.29443 0.18934 -0.65205 0.25401 -0.99418 0.17978l0.01 0.01999Z" stroke-width="1"></path>
    <path id="Subtract" fill="#2859c5" fill-rule="evenodd" d="m4.60147 7.59238 1.99933 0.42993c0.51241 0.11015 1.04295 0.10452 1.5529 -0.01647 0.50995 -0.12099 0.98643 -0.35429 1.39467 -0.68287 0.40824 -0.32857 0.73793 -0.74413 0.96493 -1.21634 0.2271 -0.47221 0.3458 -0.98914 0.3475 -1.51307 -0.0009 -0.20584 -0.0194 -0.41005 -0.0549 -0.61053l0.8216 0.20732c0.3149 0.07948 0.6254 0.18815 0.8885 0.37865 0.2495 0.18065 0.4764 0.39384 0.674 0.63558 0.5206 0.63691 0.8066 1.43326 0.81 2.25576 -0.0017 0.52392 -0.1204 1.04085 -0.3474 1.51306 -0.2271 0.47221 -0.5568 0.88777 -0.965 1.2163 -0.4083 0.3286 -0.8847 0.5619 -1.3947 0.6829 -0.5099 0.121 -1.0405 0.1266 -1.55289 0.0165l-3.43999 -0.7397 -0.82562 3.4604c-0.01309 0.063 -0.03849 0.1228 -0.07473 0.176 -0.03625 0.0533 -0.08263 0.0988 -0.1365 0.1341 -0.05386 0.0353 -0.11416 0.0596 -0.17744 0.0716 -0.06327 0.0119 -0.12829 0.0113 -0.19133 -0.0019l-1.2 -0.2599c-0.1255 -0.0287 -0.23466 -0.1055 -0.3039 -0.214s-0.09298 -0.2399 -0.0661 -0.3658l1.27707 -5.55752Z" clip-rule="evenodd" stroke-width="1"></path>
  </g>
</svg>