<svg xmlns="http://www.w3.org/2000/svg" fill="none" viewBox="0 0 14 14" id="Screensaver-Monitor-Wallpaper--Streamline-Core">
  <desc>
    Screensaver Monitor Wallpaper Streamline Icon: https://streamlinehq.com
  </desc>
  <g id="screensaver-monitor-wallpaper">
    <path id="Union" fill="#2859c5" fill-rule="evenodd" d="M5.635 10.332a0.5 0.5 0 0 1 0.47 -0.332h1.79a0.5 0.5 0 0 1 0.47 0.332l0.687 1.918H10a0.75 0.75 0 0 1 0 1.5H4a0.75 0.75 0 0 1 0 -1.5h0.948l0.686 -1.918Z" clip-rule="evenodd" stroke-width="1"></path>
    <path id="Union_2" fill="#8fbffa" fill-rule="evenodd" d="M1.457 0.25C0.652 0.25 0 0.902 0 1.707v7.586c0 0.805 0.652 1.457 1.457 1.457h11.086c0.805 0 1.457 -0.652 1.457 -1.457V1.707C14 0.902 13.348 0.25 12.543 0.25H1.457Z" clip-rule="evenodd" stroke-width="1"></path>
    <path id="vector" fill="#2859c5" d="M3.945 5.008a1.5 1.5 0 1 0 0 -3 1.5 1.5 0 0 0 0 3Z" stroke-width="1"></path>
    <path id="Subtract" fill="#2859c5" fill-rule="evenodd" d="M12 6.334 9.422 4.48a1.182 1.182 0 0 0 -1.52 0.032L3.377 8.75H12V6.334Z" clip-rule="evenodd" stroke-width="1"></path>
  </g>
</svg>