<svg xmlns="http://www.w3.org/2000/svg" fill="none" viewBox="0 0 14 14" id="Signal-Loading--Streamline-Core">
  <desc>
    Signal Loading Streamline Icon: https://streamlinehq.com
  </desc>
  <g id="signal-loading--bracket-loading-internet-angle-signal-server-network-connecting-connection">
    <path id="Union" fill="#8fbffa" fill-rule="evenodd" d="M3.724 5.018a0.75 0.75 0 1 0 -1.085 -1.036l-2.387 2.5a0.75 0.75 0 0 0 0 1.036l2.387 2.5a0.75 0.75 0 0 0 1.085 -1.036L1.832 7l1.892 -1.982Zm7.637 -1.036a0.75 0.75 0 0 0 -1.085 1.036L12.17 7l-1.893 1.982a0.75 0.75 0 0 0 1.085 1.036l2.387 -2.5a0.75 0.75 0 0 0 0 -1.036l-2.387 -2.5Z" clip-rule="evenodd" stroke-width="1"></path>
    <path id="Union_2" fill="#2859c5" fill-rule="evenodd" d="M5.25 7a0.75 0.75 0 1 0 -1.5 0 0.75 0.75 0 0 0 1.5 0ZM7 6.25a0.75 0.75 0 1 1 0 1.5 0.75 0.75 0 0 1 0 -1.5Zm2.5 0a0.75 0.75 0 1 1 0 1.5 0.75 0.75 0 0 1 0 -1.5Z" clip-rule="evenodd" stroke-width="1"></path>
  </g>
</svg>