<svg xmlns="http://www.w3.org/2000/svg" fill="none" viewBox="0 0 14 14" id="Slack--Streamline-Core">
  <desc>
    Slack Streamline Icon: https://streamlinehq.com
  </desc>
  <g id="slack">
    <path id="Union" fill="#8fbffa" fill-rule="evenodd" d="M9.62995 1.02493C9.62995 0.59695 9.283 0.25 8.85501 0.25c-0.42798 0 -0.77493 0.34695 -0.77493 0.77493v5.10085c0 0.42798 0.34695 0.77493 0.77493 0.77493 0.42799 0 0.77494 -0.34695 0.77494 -0.77493V1.02493ZM5.92072 7.87418c0 -0.42799 -0.34695 -0.77494 -0.77494 -0.77494 -0.42798 0 -0.77493 0.34695 -0.77493 0.77494V12.975c0 0.428 0.34695 0.775 0.77493 0.775 0.42799 0 0.77494 -0.347 0.77494 -0.775V7.87418ZM0.25 5.14578c0 -0.42798 0.34695 -0.77493 0.77493 -0.77493h5.10073c0.42799 0 0.77494 0.34695 0.77494 0.77493 0 0.42799 -0.34695 0.77494 -0.77494 0.77494H1.02493C0.59695 5.92072 0.25 5.57377 0.25 5.14578Zm7.62424 2.9343c-0.42799 0 -0.77494 0.34695 -0.77494 0.77493 0 0.42799 0.34695 0.77494 0.77494 0.77494h5.10096c0.428 0 0.7749 -0.34695 0.7749 -0.77494 0 -0.42798 -0.3469 -0.77493 -0.7749 -0.77493H7.87424Z" clip-rule="evenodd" stroke-width="1"></path>
    <path id="Union_2" fill="#2859c5" fill-rule="evenodd" d="M6 1c-0.55228 0 -1 0.44772 -1 1s0.44772 1 1 1 1 -0.44772 1 -1 -0.44772 -1 -1 -1Zm6 4c-0.5523 0 -1 0.44772 -1 1s0.4477 1 1 1 1 -0.44772 1 -1 -0.4477 -1 -1 -1Zm-5 7c0 -0.5523 0.44772 -1 1 -1s1 0.4477 1 1 -0.44772 1 -1 1 -1 -0.4477 -1 -1ZM2 7c-0.55228 0 -1 0.44772 -1 1s0.44772 1 1 1 1 -0.44772 1 -1 -0.44772 -1 -1 -1Z" clip-rule="evenodd" stroke-width="1"></path>
  </g>
</svg>