<svg xmlns="http://www.w3.org/2000/svg" fill="none" viewBox="0 0 14 14" id="Twitter--Streamline-Core">
  <desc>
    Twitter Streamline Icon: https://streamlinehq.com
  </desc>
  <g id="twitter--media-twitter-social">
    <path id="Union" fill="#8fbffa" fill-rule="evenodd" d="M8.475 1.163c1.302 -0.335 2.873 0.127 3.83 1.146h1.073a0.5 0.5 0 0 1 0.45 0.717l-1.055 2.187c0.3 2.547 -0.697 4.983 -2.702 6.423 -2.05 1.473 -5.067 1.844 -8.645 0.379a1 1 0 0 1 0.051 -1.889 6.271 6.271 0 0 0 1.564 -0.662A6.02 6.02 0 0 1 0.284 2.915a1 1 0 0 1 1.695 -0.593C3.392 3.711 4.627 4.285 5.483 4.52c0.332 0.091 0.61 0.132 0.822 0.149 -0.066 -0.88 0.084 -1.614 0.416 -2.194 0.404 -0.707 1.047 -1.13 1.754 -1.312Z" clip-rule="evenodd" stroke-width="1"></path>
  </g>
</svg>