<svg xmlns="http://www.w3.org/2000/svg" fill="none" viewBox="0 0 14 14" id="Watch-Circle-Time--Streamline-Core">
  <desc>
    Watch Circle Time Streamline Icon: https://streamlinehq.com
  </desc>
  <g id="watch-circle-time--device-timepiece-circle-watch-round-time-clock-analog">
    <path id="Subtract" fill="#2859c5" fill-rule="evenodd" d="M4.44 0.44A1.5 1.5 0 0 1 5.5 0h3A1.5 1.5 0 0 1 10 1.5V3a4.978 4.978 0 0 0 -3 -1 4.978 4.978 0 0 0 -3 1V1.5c0 -0.398 0.158 -0.78 0.44 -1.06ZM4 11v1.5A1.5 1.5 0 0 0 5.5 14h3a1.5 1.5 0 0 0 1.5 -1.5V11c-0.836 0.628 -1.874 1 -3 1a4.978 4.978 0 0 1 -3 -1Z" clip-rule="evenodd" stroke-width="1"></path>
    <path id="Union" fill="#8fbffa" fill-rule="evenodd" d="M7 2a5 5 0 1 0 0 10A5 5 0 0 0 7 2Z" clip-rule="evenodd" stroke-width="1"></path>
    <path id="Vector 975 (Stroke)" fill="#2859c5" fill-rule="evenodd" d="M7.063 4.419c0.345 0 0.625 0.28 0.625 0.625v1.653l0.941 0.942a0.625 0.625 0 1 1 -0.883 0.884L6.62 7.398a0.625 0.625 0 0 1 -0.184 -0.442V5.044c0 -0.345 0.28 -0.625 0.625 -0.625Z" clip-rule="evenodd" stroke-width="1"></path>
  </g>
</svg>