<svg xmlns="http://www.w3.org/2000/svg" fill="none" viewBox="0 0 14 14" id="Watch-2--Streamline-Core">
  <desc>
    Watch 2 Streamline Icon: https://streamlinehq.com
  </desc>
  <g id="watch-2--device-square-timepiece-electronics-face-blank-watch-smart">
    <path id="Subtract" fill="#2859c5" fill-rule="evenodd" d="M4.44 0.44A1.5 1.5 0 0 1 5.5 0h3A1.5 1.5 0 0 1 10 1.5V2H4v-0.5c0 -0.398 0.158 -0.78 0.44 -1.06ZM4 12v0.5A1.5 1.5 0 0 0 5.5 14h3a1.5 1.5 0 0 0 1.5 -1.5V12H4Z" clip-rule="evenodd" stroke-width="1"></path>
    <path id="Union" fill="#8fbffa" fill-rule="evenodd" d="M3.5 2A1.5 1.5 0 0 0 2 3.5v7A1.5 1.5 0 0 0 3.5 12h7a1.5 1.5 0 0 0 1.5 -1.5v-7A1.5 1.5 0 0 0 10.5 2h-7Z" clip-rule="evenodd" stroke-width="1"></path>
  </g>
</svg>