<svg xmlns="http://www.w3.org/2000/svg" fill="none" viewBox="0 0 14 14"><g id="watch-circle-menu--device-timepiece-circle-watch-round-menu-list-option-app"><path id="Subtract" fill="#3e3e3e" fill-rule="evenodd" d="M4.44.44A1.5 1.5 0 0 1 5.5 0h3A1.5 1.5 0 0 1 10 1.5V3a4.978 4.978 0 0 0-3-1 4.978 4.978 0 0 0-3 1V1.5c0-.398.158-.78.44-1.06ZM4 11v1.5A1.5 1.5 0 0 0 5.5 14h3a1.5 1.5 0 0 0 1.5-1.5V11c-.836.628-1.874 1-3 1a4.978 4.978 0 0 1-3-1Z" clip-rule="evenodd"></path><path id="Union" fill="#37d7ff" fill-rule="evenodd" d="M7 2a5 5 0 1 0 0 10A5 5 0 0 0 7 2Z" clip-rule="evenodd"></path><path id="Union_2" fill="#3e3e3e" fill-rule="evenodd" d="M5.867 5.865a.75.75 0 1 1-1.5 0 .75.75 0 0 1 1.5 0ZM7.24 5.24a.625.625 0 0 0 0 1.25h1.75a.625.625 0 1 0 0-1.25H7.24Zm0 2.27a.625.625 0 1 0 0 1.25h1.75a.625.625 0 0 0 0-1.25H7.24ZM5.117 8.885a.75.75 0 1 0 0-1.5.75.75 0 0 0 0 1.5Z" clip-rule="evenodd"></path></g></svg>