<svg xmlns="http://www.w3.org/2000/svg" fill="none" viewBox="0 0 14 14" id="Webcam-Video-Circle--Streamline-Core">
  <desc>
    Webcam Video Circle Streamline Icon: https://streamlinehq.com
  </desc>
  <g id="webcam-video-circle--work-video-meeting-camera-company-conference-office">
    <path id="Union" fill="#8fbffa" fill-rule="evenodd" d="M7 0a7 7 0 1 0 0 14A7 7 0 0 0 7 0Z" clip-rule="evenodd" stroke-width="1"></path>
    <path id="Vector" fill="#2859c5" d="m10.135 5.25 -1.52 0.673v-0.808a0.539 0.539 0 0 0 -0.538 -0.539h-4.04a0.539 0.539 0 0 0 -0.538 0.539v3.77a0.539 0.539 0 0 0 0.539 0.539h4.04a0.539 0.539 0 0 0 0.538 -0.539v-0.808l1.519 0.674a0.269 0.269 0 0 0 0.366 -0.254V5.503a0.27 0.27 0 0 0 -0.366 -0.253Z" stroke-width="1"></path>
  </g>
</svg>