<svg xmlns="http://www.w3.org/2000/svg" fill="none" viewBox="0 0 14 14" id="Webcam-Video-Off--Streamline-Core">
  <desc>
    Webcam Video Off Streamline Icon: https://streamlinehq.com
  </desc>
  <g id="webcam-video-off--work-video-meeting-camera-company-conference-office-off">
    <path id="Union" fill="#8fbffa" fill-rule="evenodd" d="M1.5 2A1.5 1.5 0 0 0 0 3.5v7A1.5 1.5 0 0 0 1.5 12H9a1.5 1.5 0 0 0 1.5 -1.5v-0.742l2.106 0.903A1 1 0 0 0 14 9.74V4.259a1 1 0 0 0 -1.394 -0.919l-2.106 0.903V3.5A1.5 1.5 0 0 0 9 2H1.5Z" clip-rule="evenodd" stroke-width="1"></path>
    <path id="Vector (Stroke)" fill="#2859c5" fill-rule="evenodd" d="M0.22 0.22a0.75 0.75 0 0 0 0 1.06l12.5 12.5a0.75 0.75 0 1 0 1.06 -1.06L1.28 0.22a0.75 0.75 0 0 0 -1.06 0Z" clip-rule="evenodd" stroke-width="1"></path>
  </g>
</svg>