<svg xmlns="http://www.w3.org/2000/svg" fill="none" viewBox="0 0 48 48" id="Bitcoin-Circle-1--Streamline-Plump">
  <desc>
    Bitcoin Circle 1 Streamline Icon: https://streamlinehq.com
  </desc>
  <g id="bitcoin-circle-1--crypto-circle-payment-blockchain-finance-bitcoin-money-currency">
    <path id="Ellipse 19" fill="#79ee8d" d="M24 2c12.1503 0 22 9.8497 22 22s-9.8498 22 -22 22C11.8497 46 2 36.1503 2 24S11.8497 2 24 2Z" stroke-width="1"></path>
    <path id="Union" fill="#0c098c" fill-rule="evenodd" d="M4.5 24.0003C4.5 13.2306 13.2306 4.5 24.0003 4.5c10.7697 0 19.5003 8.7306 19.5003 19.5003 0 10.7697 -8.7306 19.5003 -19.5003 19.5003C13.2306 43.5006 4.5 34.77 4.5 24.0003ZM24.0003 0.5C11.0214 0.5 0.5 11.0214 0.5 24.0003s10.5214 23.5003 23.5003 23.5003 23.5003 -10.5214 23.5003 -23.5003S36.9792 0.5 24.0003 0.5Zm-0.0004 7.86328c8.6358 0 15.6366 7.00072 15.6366 15.63662 0 8.6358 -7.0008 15.6366 -15.6366 15.6366 -8.6359 0 -15.63662 -7.0008 -15.63662 -15.6366 0 -8.6359 7.00072 -15.63662 15.63662 -15.63662ZM23 14c0 -1.1046 -0.8954 -2 -2 -2s-2 0.8954 -2 2v1c-1.1046 0 -2 0.8954 -2 2v13.9749c0 1.1046 0.8954 2 2 2v1.0237c0 1.1045 0.8954 2 2 2s2 -0.8955 2 -2v-1.0107c0.3283 0.0019 0.6634 0.0037 1 0.0054v1.0069c0 1.1046 0.8954 2 2 2s2 -0.8954 2 -2v-1.0548c1.8794 -0.2292 4.1206 -1.2303 4.7733 -3.7265 0.1355 -0.5182 0.2267 -1.1002 0.2267 -1.7286 0 -0.5904 -0.0805 -1.1397 -0.2025 -1.6336 -0.3518 -1.4233 -1.218 -2.3666 -2.2449 -2.9639 0.165 -0.3741 0.2876 -0.7873 0.3576 -1.2422 0.056 -0.3639 0.0898 -0.7524 0.0898 -1.1603 0 -0.3642 -0.0269 -0.7129 -0.0726 -1.0425 -0.2218 -1.6016 -1.1682 -2.7622 -2.3094 -3.4711 -0.1999 -0.1241 -0.4065 -0.2353 -0.618 -0.3342V14c0 -1.1046 -0.8954 -2 -2 -2s-2 0.8954 -2 2v1.0013c-0.3345 0.0007 -0.6697 0.0016 -1 0.0025V14Zm2.6021 5.0522c-0.1924 -0.0336 -0.3991 -0.0522 -0.6157 -0.0521 -1.2706 0.0007 -2.7835 0.0062 -3.9864 0.011v2.9661l0.4481 0.0038c1.1274 0.0092 2.4507 0.0185 3.6264 0.019 0.5947 0.0002 1.1073 -0.15 1.439 -0.3574 0.2975 -0.1861 0.4094 -0.3805 0.4433 -0.6006 0.0277 -0.18 0.0432 -0.3645 0.0432 -0.5517 0 -0.1672 -0.0124 -0.3321 -0.0347 -0.4937 -0.0313 -0.2255 -0.1431 -0.4265 -0.458 -0.6221 -0.216 -0.1341 -0.5044 -0.2449 -0.8399 -0.3103 -0.0219 -0.0037 -0.0436 -0.0077 -0.0653 -0.012ZM21 28.9743v-2.9618c1.7295 -0.0059 4.1512 -0.0141 6.0699 -0.0122 0.5748 0.0005 1.0706 0.1277 1.3993 0.31 0.2976 0.1651 0.4026 0.3339 0.4451 0.506 0.0548 0.2218 0.0857 0.4475 0.0857 0.674 0 0.2411 -0.035 0.4813 -0.0966 0.7167 -0.0442 0.1692 -0.1497 0.3336 -0.4332 0.4922 -0.3126 0.1749 -0.7833 0.2984 -1.3322 0.2999 -1.957 0.0052 -4.3925 -0.0122 -6.138 -0.0248Z" clip-rule="evenodd" stroke-width="1"></path>
  </g>
</svg>