<svg xmlns="http://www.w3.org/2000/svg" fill="none" viewBox="0 0 24 24" id="Ai-Edit-Robot--Streamline-Sharp-Remix">
  <desc>
    Ai Edit Robot Streamline Icon: https://streamlinehq.com
  </desc>
  <g id="Remix/Artificial Intelligence/ai-edit-robot--change-edit-modify-pencil-write-writing-artificial-intelligence-ai">
    <path id="Union" fill="#000000" fill-rule="evenodd" d="M11 2H6.75V0h-2.5v2H0v7.5h11V2ZM2.25 4.5v2h2v-2h-2Zm4.5 2v-2h2v2h-2ZM3.77664 16.5947l5.09462 -5.0946h3.53554l-6.49628 6.4962 0.00001 3.5038 3.50373 0L20.4644 10.4499l-3.5037 -3.50372L13 10.9069V7.37134l3.0768 -3.07681 0.8839 -0.88389 0.8839 0.88389 5.2715 5.27149 0.8839 0.88388 -0.8839 0.8839L10.8159 23.634l-0.3661 0.3661h-0.51777l-5.2715 0H3.41054l-0.00001 -1.25 -0.00001 -5.2715v-0.5178l0.36612 -0.3661Z" clip-rule="evenodd" stroke-width="1"></path>
  </g>
</svg>