<svg xmlns="http://www.w3.org/2000/svg" fill="none" viewBox="0 0 24 24" id="Ai-Vehicle-Robot-1--Streamline-Sharp-Remix">
  <desc>
    Ai Vehicle Robot 1 Streamline Icon: https://streamlinehq.com
  </desc>
  <g id="Remix/Artificial Intelligence/ai-vehicle-robot-1--car-automated-transportation-artificial-intelligence-ai">
    <path id="Union" fill="#000000" fill-rule="evenodd" d="M24 2h-4.25V0h-2.5v2H13v7.5h11V2Zm-8.75 2.5v2h2v-2h-2Zm4.5 2v-2h2v2h-2ZM11 8.75H2.97524l-0.20097 1.00486L1.97525 13.75H0v8.5h1.75V24h2.5v-1.75h9.5V24h2.5v-1.75H18v-8.5h-1.9752l-0.45 -2.25h-2.5496l0.7491 3.7451 0.2009 1.0049H15.5v3.5h-13v-3.5h1.52475l0.20098 -1.0049 0.79903 -3.9951H11v-2.5Zm1 6.75 -0.5 -3h-5l-0.5 3h6Z" clip-rule="evenodd" stroke-width="1"></path>
  </g>
</svg>