<svg xmlns="http://www.w3.org/2000/svg" fill="none" viewBox="0 0 24 24" id="Notification-Alarm-Snooze--Streamline-Sharp">
  <desc>
    Notification Alarm Snooze Streamline Icon: https://streamlinehq.com
  </desc>
  <g id="notification-alarm-snooze--android-phone-mobile-device-smartphone-iphone-alert-bell-alarm">
    <path id="Union" fill="#000000" fill-rule="evenodd" d="M22.6255 1h-5.0124v2h2.1748l-1.9387 2.29457 -0.2361 0.27949v1.67876h5.0124v-2h-2.1227l1.8865 -2.23288 0.2362 -0.2795V1Zm-6.6289 4.98505H11.861v2h1.2059L11.861 9.41229V11h4.1356V8.99997h-1.1689l1.1689 -1.3835V5.98505Zm0.1165 -3.55515v2.05521H10.361V12.5h7.1356V8.75282h2.2502c0.0025 0.08207 0.0038 0.16448 0.0038 0.24718v4.8229l2.4636 4.9271H1.78711l2.46352 -4.9271V9c0 -4.28021 3.4698 -7.75 7.74997 -7.75 1.5108 0 2.9206 0.43228 4.1125 1.1799ZM14.0005 23h-4v-2h4v2Z" clip-rule="evenodd" stroke-width="1"></path>
  </g>
</svg>