<svg xmlns="http://www.w3.org/2000/svg" fill="none" viewBox="0 0 24 24" id="Phone-Vibrate--Streamline-Sharp">
  <desc>
    Phone Vibrate Streamline Icon: https://streamlinehq.com
  </desc>
  <g id="phone-vibrate--android-phone-mobile-device-smartphone-iphone-vibrate-mute">
    <path id="Union" fill="#000000" fill-rule="evenodd" d="m18.0002 4.5 0 -1.5L6.00016 3l0 1.49999 -2 0.00001L4.00015 2l0 -1H20.0001l0.0001 1 0 2.49999 -2 0.00001Zm0 15 0 1.5H6.00015l0.00001 -1.5h-2L4.00015 22v1H20.0002v-1l0 -2.5h-2ZM14.0006 17h-4v2h4v-2ZM3.58594 9l-2.2929 -2.2929 1.41422 -1.41421 3 3L6.41436 9l-0.7071 0.7071L3.41436 12l2.2929 2.2929 0.7071 0.7071 -0.7071 0.7071 -3 3 -1.41422 -1.4142L3.58594 15l-2.2929 -2.2929L0.585938 12l0.707102 -0.7071L3.58594 9ZM22.7073 6.7071 20.4144 9l2.2929 2.2929 0.7071 0.7071 -0.7071 0.7071L20.4144 15l2.2929 2.2929 -1.4143 1.4142 -3 -3L17.5859 15l0.7071 -0.7071L20.5859 12 18.293 9.7071 17.5859 9l0.7071 -0.70711 3 -3 1.4143 1.41421Z" clip-rule="evenodd" stroke-width="1"></path>
  </g>
</svg>