<svg xmlns="http://www.w3.org/2000/svg" fill="none" viewBox="0 0 48 48" id="Archive-Box--Streamline-Plump">
  <desc>
    Archive Box Streamline Icon: https://streamlinehq.com
  </desc>
  <g id="archive-box--box-content-banker-archive-file">
    <path id="Union" fill="#8fbffa" d="M43.5 26.016v-19.5l-39 0v19.5c0 5.902 0.206 10.168 0.419 12.997 0.247 3.296 2.787 5.837 6.084 6.084 2.829 0.212 7.094 0.419 12.997 0.419s10.168 -0.206 12.997 -0.419c3.297 -0.248 5.837 -2.788 6.084 -6.084 0.213 -2.829 0.419 -7.095 0.419 -12.997Z" stroke-width="1"></path>
    <path id="Union_2" fill="#2859c5" d="M24 2.5c-7.59 0 -12.89 0.232 -16.201 0.45 -3.25 0.215 -5.868 2.645 -6.17 5.945 -0.024 0.263 -0.048 0.54 -0.072 0.828C1.342 12.341 3.44 14.5 6.003 14.5h35.992c2.564 0 4.661 -2.16 4.447 -4.777a89.51 89.51 0 0 0 -0.072 -0.828c-0.302 -3.3 -2.92 -5.73 -6.17 -5.945 -3.312 -0.218 -8.61 -0.45 -16.2 -0.45Z" stroke-width="1"></path>
    <path id="Subtract" fill="#2859c5" fill-rule="evenodd" d="M17.748 28.936c-1.435 -0.035 -2.67 -0.916 -2.735 -2.35a12.935 12.935 0 0 1 0 -1.171c0.065 -1.434 1.3 -2.316 2.735 -2.35C19.142 23.03 21.197 23 24 23s4.858 0.031 6.252 0.064c1.435 0.035 2.67 0.916 2.735 2.35a12.935 12.935 0 0 1 0 1.171c-0.065 1.434 -1.3 2.316 -2.735 2.35C28.858 28.97 26.803 29 24 29s-4.858 -0.031 -6.252 -0.064Z" clip-rule="evenodd" stroke-width="1"></path>
  </g>
</svg>