<svg xmlns="http://www.w3.org/2000/svg" fill="none" viewBox="0 0 48 48" id="Ascending-Alphabetical-Order--Streamline-Plump">
  <desc>
    Ascending Alphabetical Order Streamline Icon: https://streamlinehq.com
  </desc>
  <g id="ascending-alphabetical-order">
    <path id="Union" fill="#8fbffa" fill-rule="evenodd" d="M8.776 17.451h6.169c0.203 0.725 0.538 1.811 0.776 2.57 0.18 0.573 0.527 1.104 1.102 1.272 1.04 0.305 2.537 0.264 3.705 -0.077 1.009 -0.294 1.292 -1.41 1 -2.42l-0.203 -0.696c-1.428 -4.924 -2.864 -9.873 -4.676 -14.661 -0.629 -1.708 -3.166 -1.94 -4.703 -1.94 -0.653 0 -1.353 0.052 -2.038 0.181 -1.404 0.263 -2.364 1.44 -2.862 2.777C5.79 7.825 3.335 14.512 2.129 18.45c-0.275 0.899 -0.136 1.876 0.682 2.449 0.915 0.58 2.158 0.672 3.32 0.517 0.99 -0.132 1.711 -0.936 2.005 -1.89l0.2 -0.641c0.14 -0.452 0.285 -0.916 0.44 -1.434Zm3.099 -10.376a0.146 0.146 0 0 1 0.274 0.007l1.808 5.42H9.73l2.145 -5.427Zm-9.63 36.832c0.5 1.233 1.98 1.592 3.31 1.592H19.49c1.613 0 2.51 -0.782 2.51 -2.398 0 -0.526 -0.123 -1.145 -0.324 -1.729 -0.313 -0.913 -1.253 -1.373 -2.218 -1.373h-7.497s6.564 -6.94 8.804 -9.234c0.31 -0.318 0.596 -0.659 0.747 -1.076 0.246 -0.68 0.458 -1.839 -0.293 -2.97 -0.645 -0.968 -1.903 -1.22 -3.067 -1.22H4.84c-1.52 0 -2.55 0.885 -2.55 2.43a4.7 4.7 0 0 0 0.405 1.863c0.358 0.823 1.256 1.206 2.154 1.206h7.114S5.32 37.855 3.035 40.18c-0.388 0.395 -0.737 0.833 -0.884 1.366 -0.164 0.597 -0.269 1.467 0.094 2.362Z" clip-rule="evenodd" stroke-width="1"></path>
    <path id="Union_2" fill="#2859c5" d="M41 36.54c1.44 0.034 2.572 0.083 3.459 0.137 1.406 0.085 2.017 1.54 1.117 2.624 -3.271 3.937 -6.297 6.073 -7.72 6.954a1.61 1.61 0 0 1 -1.71 0c-1.425 -0.88 -4.45 -3.017 -7.721 -6.954 -0.9 -1.083 -0.289 -2.539 1.117 -2.624 0.887 -0.054 2.02 -0.103 3.459 -0.136V19.498c0 -9.083 0.175 -13.833 0.294 -16.005 0.053 -0.972 0.646 -1.775 1.612 -1.889a18.074 18.074 0 0 1 2.094 -0.106c0.885 0 1.57 0.044 2.093 0.106 0.967 0.114 1.56 0.917 1.613 1.889 0.118 2.172 0.294 6.921 0.294 16.005V36.54Z" stroke-width="1"></path>
  </g>
</svg>