<svg xmlns="http://www.w3.org/2000/svg" fill="none" viewBox="0 0 48 48" id="Calendar-Mark--Streamline-Plump">
  <desc>
    Calendar Mark Streamline Icon: https://streamlinehq.com
  </desc>
  <g id="calendar-mark--calendar-date-day-month-mark">
    <path id="Union" fill="#8fbffa" d="M24 46.5c-7.632 0 -12.948 -0.485 -16.147 -0.911 -2.862 -0.382 -5.068 -2.554 -5.479 -5.419 -0.417 -2.91 -0.874 -7.506 -0.874 -13.67s0.457 -10.76 0.874 -13.67c0.41 -2.864 2.617 -5.037 5.48 -5.418C11.051 6.985 16.367 6.5 24 6.5c7.632 0 12.948 0.485 16.147 0.912 2.862 0.381 5.068 2.554 5.479 5.418 0.417 2.91 0.874 7.506 0.874 13.67s-0.457 10.76 -0.874 13.67c-0.41 2.864 -2.617 5.037 -5.48 5.419 -3.198 0.426 -8.514 0.911 -16.146 0.911Z" stroke-width="1"></path>
    <path id="Union_2" fill="#2859c5" d="M33.5 14.518c-0.504 0 -0.947 -0.014 -1.336 -0.037 -2.27 -0.133 -3.547 -2.002 -3.618 -3.918a69.407 69.407 0 0 1 0 -5.091c0.07 -1.916 1.348 -3.785 3.618 -3.918 0.389 -0.023 0.832 -0.036 1.336 -0.036 0.504 0 0.947 0.013 1.336 0.036 2.27 0.133 3.547 2.002 3.618 3.918a69.409 69.409 0 0 1 0 5.091c-0.07 1.916 -1.348 3.785 -3.618 3.918a22.66 22.66 0 0 1 -1.336 0.037Z" stroke-width="1"></path>
    <path id="Union_3" fill="#2859c5" d="M14.5 14.518c-0.504 0 -0.947 -0.014 -1.336 -0.037 -2.27 -0.133 -3.547 -2.002 -3.618 -3.918a69.263 69.263 0 0 1 0 -5.091c0.07 -1.916 1.348 -3.785 3.618 -3.918 0.389 -0.023 0.832 -0.036 1.336 -0.036 0.504 0 0.947 0.013 1.336 0.036 2.27 0.133 3.547 2.002 3.618 3.918a69.409 69.409 0 0 1 0 5.091c-0.07 1.916 -1.348 3.785 -3.618 3.918a22.66 22.66 0 0 1 -1.336 0.037Z" stroke-width="1"></path>
    <path id="Union_4" fill="#2859c5" fill-rule="evenodd" d="M17 25a2 2 0 0 0 -2 -2h-4a2 2 0 1 0 0 4h4a2 2 0 0 0 2 -2Zm5 -2a2 2 0 1 0 0 4h4a2 2 0 1 0 0 -4h-4Zm11 0a2 2 0 1 0 0 4h4a2 2 0 1 0 0 -4h-4ZM22 33a2 2 0 1 0 0 4h4a2 2 0 1 0 0 -4h-4Zm9 2a2 2 0 0 1 2 -2h4a2 2 0 1 1 0 4h-4a2 2 0 0 1 -2 -2Zm-16 -2a2 2 0 1 1 0 4h-4a2 2 0 1 1 0 -4h4Z" clip-rule="evenodd" stroke-width="1"></path>
  </g>
</svg>