<svg xmlns="http://www.w3.org/2000/svg" fill="none" viewBox="0 0 48 48" id="Cog-Automation--Streamline-Plump">
  <desc>
    Cog Automation Streamline Icon: https://streamlinehq.com
  </desc>
  <g id="cog-automation">
    <path id="Union" fill="#8fbffa" fill-rule="evenodd" d="M24.001 1.5c-2.6623 0 -4.2151 0.5355 -5.0218 0.95816 -0.6121 0.32072 -0.97 0.83016 -1.1739 1.2559 -0.2898 0.60516 -0.9256 1.96937 -1.4804 3.44858 -1.0809 0.49356 -2.106 1.08816 -3.0632 1.7717 -1.56 -0.25961 -3.0615 -0.39125 -3.73113 -0.4429 -0.47064 -0.03629 -1.09077 0.01892 -1.67458 0.38868 -0.76939 0.48729 -2.00953 1.56428 -3.34067 3.86988s-1.64376 3.9181 -1.68108 4.828c-0.02831 0.6905 0.23393 1.2552 0.50069 1.6446 0.37954 0.5541 1.24437 1.7887 2.24924 3.01 -0.05513 0.5817 -0.08333 1.1712 -0.08333 1.7674 0 0.5961 0.02819 1.1856 0.08332 1.7673 -1.00492 1.2213 -1.86978 2.456 -2.24934 3.0101 -0.26675 0.3894 -0.529 0.9541 -0.50068 1.6446 0.03731 0.9099 0.34993 2.5224 1.68107 4.828s2.57129 3.3826 3.34067 3.8699c0.58381 0.3697 1.20394 0.425 1.67457 0.3887 0.66965 -0.0517 2.17115 -0.1833 3.73125 -0.443 0.9572 0.6836 1.9823 1.2782 3.0632 1.7718 0.5548 1.4792 1.1906 2.8434 1.4805 3.4486 0.2038 0.4257 0.5617 0.9351 1.1739 1.2558 0.8066 0.4227 2.3594 0.9582 5.0217 0.9582s4.215 -0.5355 5.0217 -0.9582c0.6122 -0.3207 0.9701 -0.8301 1.1739 -1.2559 0.2899 -0.6051 0.9257 -1.9694 1.4806 -3.4487 1.0807 -0.4935 2.1057 -1.0881 3.0628 -1.7716 1.56 0.2597 3.0616 0.3913 3.7312 0.443 0.4706 0.0363 1.0908 -0.019 1.6746 -0.3887 0.7694 -0.4873 2.0095 -1.5643 3.3407 -3.8699 1.3311 -2.3056 1.6437 -3.9181 1.681 -4.828 0.0284 -0.6905 -0.2339 -1.2552 -0.5006 -1.6446 -0.3796 -0.5541 -1.2445 -1.7888 -2.2494 -3.0101 0.0551 -0.5817 0.0833 -1.1712 0.0833 -1.7673 0 -0.5962 -0.0282 -1.1857 -0.0833 -1.7674 1.0049 -1.2213 1.8697 -2.4559 2.2492 -3.01 0.2668 -0.3894 0.529 -0.9541 0.5007 -1.6446 -0.0373 -0.9099 -0.3499 -2.5224 -1.681 -4.828 -1.3312 -2.3056 -2.5713 -3.38259 -3.3407 -3.86988 -0.5838 -0.36976 -1.204 -0.42497 -1.6746 -0.38868 -0.6696 0.05165 -2.1711 0.18329 -3.7311 0.4429 -0.9571 -0.68346 -1.9821 -1.278 -3.0628 -1.77153 -0.5549 -1.47928 -1.1907 -2.84356 -1.4806 -3.44875 -0.2038 -0.42574 -0.5617 -0.93518 -1.1739 -1.2559C28.216 2.0355 26.6633 1.5 24.001 1.5Z" clip-rule="evenodd" stroke-width="1"></path>
    <path id="Subtract" fill="#2859c5" fill-rule="evenodd" d="M21.2582 16.7904c-1.6302 -0.6307 -3.1557 0.3535 -3.4056 2.0835 -0.19 1.3153 -0.3526 3.0479 -0.3526 5.126 0 2.0781 0.1626 3.8107 0.3526 5.126 0.2499 1.73 1.7754 2.7141 3.4056 2.0835 1.1439 -0.4425 2.6857 -1.1328 4.7124 -2.2095 1.9379 -1.0295 3.4324 -1.9412 4.5597 -2.6948 1.7583 -1.1754 1.7583 -3.435 0 -4.6104 -1.1273 -0.7536 -2.6218 -1.6653 -4.5597 -2.6948 -2.0267 -1.0767 -3.5685 -1.767 -4.7124 -2.2095Z" clip-rule="evenodd" stroke-width="1"></path>
  </g>
</svg>