<svg xmlns="http://www.w3.org/2000/svg" fill="none" viewBox="0 0 48 48" id="Delete-Bookmark--Streamline-Plump">
  <desc>
    Delete Bookmark Streamline Icon: https://streamlinehq.com
  </desc>
  <g id="delete-bookmark--bookmarks-double-tags-favorite-cross-delete">
    <path id="Union" fill="#8fbffa" d="M24 2.5c-6.488 0 -10.516 0.577 -12.909 1.14 -2.505 0.591 -3.918 2.759 -4.088 5.061C6.779 11.715 6.5 17.236 6.5 26c0 6.958 0.102 11.522 0.232 14.516 0.085 1.937 0.914 3.613 2.535 4.365 1.584 0.734 3.412 0.343 4.993 -0.695l7.271 -4.772a4.5 4.5 0 0 1 4.938 0l7.27 4.772c1.582 1.038 3.41 1.429 4.994 0.695 1.62 -0.752 2.45 -2.428 2.535 -4.365 0.13 -2.994 0.232 -7.558 0.232 -14.516 0 -8.764 -0.28 -14.285 -0.503 -17.299 -0.17 -2.302 -1.583 -4.47 -4.088 -5.06C34.516 3.077 30.488 2.5 24 2.5Z" stroke-width="1"></path>
    <path id="Union_2" fill="#2859c5" d="M28.242 28.07a2 2 0 1 0 2.828 -2.828L26.828 21l4.242 -4.242a2 2 0 1 0 -2.828 -2.829L24 18.172l-4.242 -4.243a2 2 0 0 0 -2.829 2.828L21.171 21l-4.243 4.243a2 2 0 1 0 2.829 2.828l4.242 -4.242 4.243 4.242Z" stroke-width="1"></path>
  </g>
</svg>