<svg xmlns="http://www.w3.org/2000/svg" fill="none" viewBox="0 0 48 48" id="Door--Streamline-Plump">
  <desc>
    Door Streamline Icon: https://streamlinehq.com
  </desc>
  <g id="door--door-entrance-house-home">
    <path id="Subtract" fill="#8fbffa" fill-rule="evenodd" d="M42.5 24c0 -8.439 -0.294 -13.582 -0.578 -16.584 -0.277 -2.925 -2.486 -5.117 -5.396 -5.406 -2.578 -0.256 -6.62 -0.51 -12.526 -0.51s-9.948 0.254 -12.526 0.51c-2.91 0.29 -5.119 2.481 -5.396 5.406C5.794 10.418 5.5 15.561 5.5 24s0.294 13.582 0.578 16.584c0.277 2.925 2.486 5.117 5.396 5.406 2.578 0.256 6.62 0.51 12.526 0.51s9.948 -0.254 12.526 -0.51c2.91 -0.29 5.119 -2.481 5.396 -5.406 0.284 -3.002 0.578 -8.145 0.578 -16.584Z" clip-rule="evenodd" stroke-width="1"></path>
    <path id="Vector 1514 (Stroke)" fill="#2859c5" fill-rule="evenodd" d="M26 24a3 3 0 0 1 3 -3h4a3 3 0 1 1 0 6h-4a3 3 0 0 1 -3 -3Z" clip-rule="evenodd" stroke-width="1"></path>
  </g>
</svg>