<svg xmlns="http://www.w3.org/2000/svg" fill="none" viewBox="0 0 48 48" id="File-Search--Streamline-Plump">
  <desc>
    File Search Streamline Icon: https://streamlinehq.com
  </desc>
  <g id="file-search">
    <path id="Subtract" fill="#8fbffa" d="M7.582 2.137C10.326 1.823 14.685 1.5 21 1.5a165 165 0 0 1 5.13 0.077 1.5 1.5 0 0 1 0.4 0.068c1.098 0.343 4.029 1.564 8.123 5.578 3.862 3.787 5.195 6.563 5.63 7.781a1.5 1.5 0 0 1 0.087 0.45 204.016 204.016 0 0 1 0.13 7.926A12.94 12.94 0 0 0 33 21c-7.18 0 -13 5.82 -13 13 0 4.281 2.07 8.079 5.262 10.447 -1.308 0.034 -2.727 0.053 -4.262 0.053 -6.315 0 -10.674 -0.323 -13.418 -0.637 -2.895 -0.33 -5.094 -2.531 -5.413 -5.431C1.843 35.478 1.5 30.57 1.5 23s0.343 -12.478 0.669 -15.432c0.32 -2.9 2.518 -5.1 5.413 -5.431Z" stroke-width="1"></path>
    <path id="Intersect" fill="#2859c5" d="M40.348 15.25c-2.42 -0.001 -6.57 -0.04 -8.948 -0.268 -2.598 -0.249 -4.641 -2.321 -4.896 -4.975 -0.214 -2.233 -0.253 -5.99 -0.254 -8.421 0.095 0.01 0.188 0.03 0.28 0.059 1.098 0.343 4.029 1.564 8.123 5.578 3.862 3.787 5.195 6.563 5.63 7.781 0.029 0.08 0.05 0.163 0.065 0.246Z" stroke-width="1"></path>
    <path id="Union" fill="#2859c5" d="M41.885 38.594A9.958 9.958 0 0 0 43 34c0 -5.523 -4.477 -10 -10 -10s-10 4.477 -10 10 4.477 10 10 10c1.69 0 3.281 -0.42 4.677 -1.159 0.93 1.121 1.854 2.226 2.873 3.318 1.081 1.157 2.718 1.3 3.863 0.206 0.32 -0.307 0.71 -0.697 1.017 -1.018 1.095 -1.144 0.952 -2.78 -0.206 -3.862 -1.098 -1.026 -2.21 -1.955 -3.34 -2.891Z" stroke-width="1"></path>
    <path id="Union_2" fill="#8fbffa" d="M33 29a5 5 0 1 0 0 10 5 5 0 0 0 0 -10Z" stroke-width="1"></path>
  </g>
</svg>