<svg xmlns="http://www.w3.org/2000/svg" fill="none" viewBox="0 0 48 48" id="Fill-And-Sign--Streamline-Plump">
  <desc>
    Fill And Sign Streamline Icon: https://streamlinehq.com
  </desc>
  <g id="fill-and-sign--essential-files-folder-fill-and-sign">
    <path id="Union" fill="#8fbffa" d="M32.392 2.797c-2.677 -1.936 -6.045 -1.151 -8.136 0.94L3.158 24.835c-0.81 0.81 -1.38 1.89 -1.488 3.114 -0.147 1.662 -0.299 4.782 0.01 9.182a3.438 3.438 0 0 0 3.189 3.19c4.4 0.307 7.52 0.156 9.182 0.01 1.224 -0.109 2.304 -0.679 3.114 -1.49l21.097 -21.097c2.092 -2.091 2.877 -5.46 0.941 -8.136a30.42 30.42 0 0 0 -3.142 -3.669 30.42 30.42 0 0 0 -3.67 -3.142Z" stroke-width="1"></path>
    <path id="Intersect" fill="#2859c5" d="m37.02 18.985 -0.035 -0.067c-1.09 -2.031 -2.941 -4.774 -6.035 -7.868 -3.095 -3.094 -5.838 -4.946 -7.869 -6.036l-0.067 -0.035 -3.75 3.75c0.373 0.152 0.863 0.375 1.453 0.691 1.6 0.858 3.947 2.416 6.697 5.165 2.75 2.75 4.307 5.098 5.165 6.697 0.316 0.59 0.539 1.08 0.691 1.453l3.75 -3.75Z" stroke-width="1"></path>
    <path id="Intersect_2" fill="#2859c5" d="M15.936 39.76a17.953 17.953 0 0 0 -0.476 -0.95c-0.904 -1.686 -2.52 -4.113 -5.339 -6.931 -2.818 -2.819 -5.245 -4.435 -6.93 -5.34a18.62 18.62 0 0 0 -0.951 -0.475 4.858 4.858 0 0 0 -0.57 1.885c-0.147 1.662 -0.299 4.782 0.01 9.182a3.438 3.438 0 0 0 3.189 3.19c4.4 0.308 7.52 0.156 9.182 0.01a4.859 4.859 0 0 0 1.885 -0.57Z" stroke-width="1"></path>
    <path id="Vector 1315 (Stroke)" fill="#2859c5" fill-rule="evenodd" d="M29 37a6 6 0 1 1 9.6 4.8l-0.267 0.2 0.267 0.2a4 4 0 0 0 2.4 0.8h5a2 2 0 1 1 0 4h-5a8 8 0 0 1 -4.8 -1.6l-1.208 -0.906A14 14 0 0 1 27 47H3a2 2 0 1 1 0 -4h24a10 10 0 0 0 4.544 -1.092L31.4 41.8A6 6 0 0 1 29 37Zm4 0a2 2 0 0 0 0.8 1.6l1.2 0.9 1.2 -0.9A2 2 0 1 0 33 37Z" clip-rule="evenodd" stroke-width="1"></path>
  </g>
</svg>