<svg xmlns="http://www.w3.org/2000/svg" fill="none" viewBox="0 0 48 48" id="Firefighter-Truck--Streamline-Plump">
  <desc>
    Firefighter Truck Streamline Icon: https://streamlinehq.com
  </desc>
  <g id="firefighter-truck">
    <path id="Vector 1445 (Stroke)" fill="#2859c5" fill-rule="evenodd" d="M35.35 2.348a1.5 1.5 0 0 1 -0.698 2.003l-29 14a1.5 1.5 0 1 1 -1.304 -2.702l29 -14a1.5 1.5 0 0 1 2.003 0.699Z" clip-rule="evenodd" stroke-width="1"></path>
    <path id="Rectangle 1498" fill="#2859c5" d="M33 9c1.443 0 2.673 1.043 2.813 2.48 0.1 1.03 0.187 2.275 0.187 3.52h-6c0 -1.245 0.086 -2.49 0.187 -3.52C30.327 10.042 31.557 9 33 9Z" stroke-width="1"></path>
    <path id="Union" fill="#8fbffa" d="M36.293 14.245c-2.652 -0.282 -5.104 -0.186 -6.815 -0.036 -2.21 0.194 -3.754 2.035 -3.824 4.126l-0.005 0.165h-1.285a4.441 4.441 0 0 0 -4.48 -3.974c-2.81 0.038 -7.565 0.132 -13.886 0.365 -2.235 0.082 -4.102 1.812 -4.237 4.103 -0.124 2.1 -0.261 5.402 -0.261 9.741 0 4 0.116 6.748 0.233 8.496 0.146 2.19 1.907 3.81 4.032 3.913 2.633 0.129 7.38 0.306 14.07 0.348 0.054 0.005 0.11 0.008 0.165 0.008h10c0.064 0 0.127 -0.004 0.189 -0.011 5.561 -0.046 9.808 -0.213 12.323 -0.34A4.35 4.35 0 0 0 46.657 37c0.173 -3.889 0.052 -7.425 -0.053 -9.415a8.478 8.478 0 0 0 -1.118 -3.794c-1.976 -3.425 -3.872 -5.904 -5.084 -7.35a6.21 6.21 0 0 0 -4.109 -2.196Z" stroke-width="1"></path>
    <path id="Union_2" fill="#2859c5" fill-rule="evenodd" d="M8 27a1.5 1.5 0 0 0 0 3h10a1.5 1.5 0 0 0 0 -3H8Z" clip-rule="evenodd" stroke-width="1"></path>
    <path id="Union_3" fill="#2859c5" d="M6.5 21.5A1.5 1.5 0 0 1 8 20h10a1.5 1.5 0 0 1 0 3H8a1.5 1.5 0 0 1 -1.5 -1.5Z" stroke-width="1"></path>
    <path id="Union_4" fill="#2859c5" d="M33.563 18.506a15.5 15.5 0 0 1 2.29 0.118c0.408 0.05 0.836 0.183 1.233 0.432 1.167 0.73 2.156 1.836 2.89 2.809a21.68 21.68 0 0 1 1.615 2.493 2.94 2.94 0 0 1 0.36 1.807c-0.036 0.279 -0.09 0.566 -0.145 0.828 -0.324 1.517 -1.643 2.523 -3.104 2.583 -1.348 0.055 -3.536 0.09 -5.29 -0.166 -1.595 -0.233 -2.562 -1.588 -2.651 -2.968 -0.085 -1.308 -0.181 -3.424 -0.057 -5.137 0.106 -1.464 1.248 -2.748 2.86 -2.8Z" stroke-width="1"></path>
    <path id="Ellipse 44" fill="#2859c5" d="M30 41.5a5.5 5.5 0 1 0 11 0 5.5 5.5 0 0 0 -11 0Z" stroke-width="1"></path>
    <path id="Ellipse 45" fill="#2859c5" d="M7 41.5a5.5 5.5 0 1 0 11 0 5.5 5.5 0 0 0 -11 0Z" stroke-width="1"></path>
  </g>
</svg>