<svg xmlns="http://www.w3.org/2000/svg" fill="none" viewBox="0 0 48 48" id="Flashlight--Streamline-Plump">
  <desc>
    Flashlight Streamline Icon: https://streamlinehq.com
  </desc>
  <g id="flashlight">
    <path id="Union" fill="#8fbffa" d="M24 1.5c-5.8396 0 -9.6987 0.25526 -12.0874 0.50745C9.24975 2.2886 7.5 4.55131 7.5 7.06392v5.75428c0 1.3259 0.34336 2.6788 1.11036 3.8488 0.032 0.0488 0.06682 0.0957 0.10428 0.1404l4.90356 5.8577c0.3358 7.3122 0.8858 14.9815 1.1819 18.8807 0.165 2.1732 1.6599 4.1745 4.0197 4.5559 1.32 0.2133 3.0722 0.3983 5.1802 0.3983 2.1079 0 3.8602 -0.185 5.1802 -0.3983 2.3598 -0.3814 3.8547 -2.3827 4.0197 -4.5559 0.2961 -3.8992 0.8461 -11.5685 1.1819 -18.8807l4.9036 -5.8577c0.0374 -0.0447 0.0722 -0.0916 0.1042 -0.1404 0.767 -1.17 1.1104 -2.5229 1.1104 -3.8488V7.06392c0 -2.51261 -1.7498 -4.77532 -4.4126 -5.05647C33.6987 1.75526 29.8396 1.5 24 1.5Z" stroke-width="1"></path>
    <path id="Vector 1098 (Stroke)" fill="#2859c5" fill-rule="evenodd" d="M24 26c1.1046 0 2 0.8954 2 2v4c0 1.1046 -0.8954 2 -2 2s-2 -0.8954 -2 -2v-4c0 -1.1046 0.8954 -2 2 -2Z" clip-rule="evenodd" stroke-width="1"></path>
    <path id="Intersect" fill="#2859c5" d="M7.5 10.7622C9.75748 10.4665 14.7796 10 24 10s14.2425 0.4665 16.5 0.7622V7.06392c0 -2.51261 -1.7498 -4.77532 -4.4126 -5.05647C33.6987 1.75526 29.8396 1.5 24 1.5c-5.8396 0 -9.6987 0.25526 -12.0874 0.50745C9.24975 2.2886 7.5 4.55131 7.5 7.06392v3.69828Z" stroke-width="1"></path>
  </g>
</svg>