<svg xmlns="http://www.w3.org/2000/svg" fill="none" viewBox="0 0 48 48" id="Give-Gift--Streamline-Plump">
  <desc>
    Give Gift Streamline Icon: https://streamlinehq.com
  </desc>
  <g id="give-gift--reward-social-rating-media-queen-vip-gift">
    <path id="Union" fill="#8fbffa" d="M1.364 28.26a2.776 2.776 0 0 1 1.94 -2.388C5.623 25.15 9.81 24 12.925 24c4.677 0 9.89 1.151 12.7 1.874 1.36 0.35 2.599 1.113 3.193 2.386 0.285 0.61 0.57 1.373 0.785 2.29 0.399 1.707 -1.138 3.106 -2.885 2.963l-7.715 -0.629a1.42 1.42 0 0 0 -1.535 1.415c0 0.688 0.493 1.276 1.173 1.38 1.425 0.217 3.86 0.543 5.642 0.543 3.78 0 13.853 -1.692 17.128 -2.26 0.7 -0.122 1.413 -0.206 2.093 0 0.995 0.304 2.437 1.103 3.115 3.213 0.507 1.577 -0.64 3.105 -2.198 3.664C39.636 42.556 29.4 46 24.284 46c-6.758 0 -16.322 -1.404 -20.556 -2.084a2.844 2.844 0 0 1 -2.399 -2.541C1.174 39.733 1 37.366 1 35c0 -2.548 0.201 -5.096 0.364 -6.74Z" stroke-width="1"></path>
    <path id="Vector 867 (Stroke)" fill="#8fbffa" fill-rule="evenodd" d="M28.075 2.669c0.855 -0.75 1.995 -1.169 3.337 -1.169 2.474 0 4.055 1.437 4.94 3.016C37.207 6.04 37.5 7.806 37.5 9h-3c0 -0.806 -0.217 -2.04 -0.764 -3.016 -0.516 -0.92 -1.23 -1.484 -2.324 -1.484 -0.696 0 -1.11 0.206 -1.36 0.425 -0.263 0.23 -0.446 0.566 -0.519 0.968 -0.168 0.926 0.274 1.57 0.637 1.718l-1.131 2.778c-2.096 -0.852 -2.788 -3.208 -2.457 -5.032 0.176 -0.973 0.651 -1.95 1.493 -2.688Z" clip-rule="evenodd" stroke-width="1"></path>
    <path id="Vector 868 (Stroke)" fill="#8fbffa" fill-rule="evenodd" d="M43.925 2.669c-0.856 -0.75 -1.995 -1.169 -3.337 -1.169 -2.474 0 -4.055 1.437 -4.94 3.016C34.792 6.04 34.5 7.806 34.5 9h3c0 -0.806 0.216 -2.04 0.764 -3.016 0.516 -0.921 1.23 -1.484 2.324 -1.484 0.696 0 1.11 0.206 1.36 0.425 0.263 0.23 0.446 0.566 0.518 0.968 0.168 0.926 -0.274 1.57 -0.636 1.718l1.13 2.778c2.096 -0.852 2.789 -3.208 2.458 -5.032 -0.176 -0.973 -0.652 -1.95 -1.493 -2.688Z" clip-rule="evenodd" stroke-width="1"></path>
    <path id="Union_2" fill="#2859c5" d="M36 24.5a90.82 90.82 0 0 0 6.009 -0.177c2.337 -0.156 4.204 -1.922 4.368 -4.316 0.07 -1.026 0.123 -2.35 0.123 -4.007 0 -1.657 -0.053 -2.98 -0.123 -4.007 -0.164 -2.394 -2.031 -4.16 -4.368 -4.316A90.781 90.781 0 0 0 36 7.5c-2.613 0 -4.593 0.082 -6.009 0.177 -2.337 0.156 -4.204 1.922 -4.368 4.316A58.94 58.94 0 0 0 25.5 16c0 1.657 0.053 2.98 0.123 4.007 0.164 2.394 2.031 4.16 4.368 4.316A90.82 90.82 0 0 0 36 24.5Z" stroke-width="1"></path>
    <path id="Intersect" fill="#8fbffa" d="M37.5 24.49a116.809 116.809 0 0 1 -3 0V12a1.5 1.5 0 0 1 3 0v12.49Z" stroke-width="1"></path>
  </g>
</svg>