<svg xmlns="http://www.w3.org/2000/svg" fill="none" viewBox="0 0 48 48" id="Help-Chat-1--Streamline-Plump">
  <desc>
    Help Chat 1 Streamline Icon: https://streamlinehq.com
  </desc>
  <g id="help-chat-1--bubble-help-mark-message-query-question-speech-square">
    <path id="Union" fill="#8fbffa" d="M24 1.5c-7.415 0 -12.608 0.228 -15.873 0.446 -3.255 0.217 -5.866 2.657 -6.163 5.958 -0.244 2.712 -0.476 6.748 -0.476 12.288s0.232 9.576 0.476 12.288c0.297 3.301 2.908 5.741 6.163 5.958 1.505 0.1 3.42 0.203 5.772 0.284v4.197c0 3.022 3.57 4.623 5.827 2.614l7.486 -6.664c5.73 -0.054 9.89 -0.246 12.662 -0.431 3.255 -0.217 5.866 -2.657 6.163 -5.958 0.244 -2.712 0.476 -6.748 0.476 -12.288s-0.232 -9.576 -0.476 -12.288c-0.297 -3.301 -2.908 -5.741 -6.163 -5.958C36.609 1.728 31.416 1.5 24 1.5Z" stroke-width="1"></path>
    <path id="Subtract" fill="#2859c5" fill-rule="evenodd" d="M23.236 27.333a2.583 2.583 0 1 0 0 5.167 2.583 2.583 0 0 0 0 -5.167Zm-5.12 -15.135c0.27 -1.073 1.143 -2.248 2.579 -3.177 1.416 -0.918 3.274 -1.521 5.3 -1.521 2.461 0 4.073 0.865 5.089 2.035 1.046 1.206 1.577 2.874 1.577 4.632 0 1.786 -0.64 3.022 -1.766 4.115 -1.204 1.168 -2.926 2.143 -5.107 3.313a1.5 1.5 0 0 0 -0.79 1.322v0.416a1 1 0 0 1 -1 1h-2.122a1 1 0 0 1 -1 -1.001l0.005 -3.02c0 -0.676 0.516 -1.491 1.814 -2.459 0.98 -0.73 2.115 -1.341 3.175 -1.912 0.291 -0.156 0.576 -0.31 0.85 -0.462a1.5 1.5 0 0 0 -1.403 -2.65c-1.315 0.666 -2.967 1.629 -3.92 2.195 -0.477 0.283 -0.796 0.4 -1.046 0.414 -0.905 0.049 -1.528 -0.307 -1.9 -0.82 -0.387 -0.534 -0.595 -1.379 -0.334 -2.42Z" clip-rule="evenodd" stroke-width="1"></path>
  </g>
</svg>