<svg xmlns="http://www.w3.org/2000/svg" fill="none" viewBox="0 0 48 48" id="Hierarchy-15--Streamline-Plump">
  <desc>
    Hierarchy 15 Streamline Icon: https://streamlinehq.com
  </desc>
  <g id="hierarchy-15--node-organization-links-structure-link-nodes-network-hierarchy">
    <path id="Union" fill="#2859c5" d="M13 22a2 2 0 1 0 0 4l14 0 0 9.347a6 6 0 0 0 5.457 5.975l7.362 0.67a2 2 0 0 0 0.362 -3.984l-7.362 -0.67A2 2 0 0 1 31 35.348L31 26l9 0a2 2 0 1 0 0 -4l-9 0 0 -9.347a2 2 0 0 1 1.819 -1.992l7.362 -0.67a2 2 0 0 0 -0.362 -3.983l-7.362 0.67A6 6 0 0 0 27 12.652L27 22l-14 0Z" stroke-width="1"></path>
    <path id="Union_2" fill="#8fbffa" d="M34.5 39.5c0 1.4 0.075 2.42 0.17 3.158 0.215 1.643 1.536 2.68 3.038 2.772 0.652 0.04 1.555 0.07 2.792 0.07 1.237 0 2.14 -0.03 2.792 -0.07 1.502 -0.091 2.823 -1.129 3.037 -2.772 0.096 -0.737 0.171 -1.758 0.171 -3.158s-0.075 -2.42 -0.17 -3.158c-0.215 -1.643 -1.536 -2.68 -3.038 -2.772a46.68 46.68 0 0 0 -2.792 -0.07c-1.237 0 -2.14 0.03 -2.792 0.07 -1.502 0.091 -2.823 1.129 -3.037 2.772 -0.096 0.737 -0.171 1.758 -0.171 3.158Z" stroke-width="1"></path>
    <path id="Union_3" fill="#8fbffa" d="M34.5 24c0 1.4 0.075 2.42 0.17 3.158 0.215 1.643 1.536 2.68 3.038 2.772 0.652 0.04 1.555 0.07 2.792 0.07 1.237 0 2.14 -0.03 2.792 -0.07 1.502 -0.091 2.823 -1.129 3.037 -2.772 0.096 -0.737 0.171 -1.758 0.171 -3.158s-0.075 -2.42 -0.17 -3.158c-0.215 -1.643 -1.536 -2.68 -3.038 -2.772A46.68 46.68 0 0 0 40.5 18c-1.237 0 -2.14 0.03 -2.792 0.07 -1.502 0.091 -2.823 1.129 -3.037 2.772 -0.096 0.737 -0.171 1.758 -0.171 3.158Z" stroke-width="1"></path>
    <path id="Union_4" fill="#8fbffa" d="M34.5 8.5c0 1.4 0.075 2.42 0.17 3.158 0.215 1.643 1.536 2.68 3.038 2.772 0.652 0.04 1.555 0.07 2.792 0.07 1.237 0 2.14 -0.03 2.792 -0.07 1.502 -0.091 2.823 -1.129 3.037 -2.772 0.096 -0.737 0.171 -1.758 0.171 -3.158s-0.075 -2.42 -0.17 -3.158c-0.215 -1.643 -1.536 -2.68 -3.038 -2.772A46.75 46.75 0 0 0 40.5 2.5c-1.237 0 -2.14 0.03 -2.792 0.07 -1.502 0.091 -2.823 1.129 -3.037 2.772C34.575 6.08 34.5 7.1 34.5 8.5Z" stroke-width="1"></path>
    <path id="Union_5" fill="#8fbffa" d="M1.5 24c0 3.003 0.166 5.13 0.367 6.61 0.34 2.49 2.322 4.085 4.682 4.235 1.347 0.086 3.263 0.155 5.951 0.155 2.688 0 4.604 -0.069 5.951 -0.155 2.36 -0.15 4.342 -1.745 4.682 -4.236 0.201 -1.479 0.367 -3.606 0.367 -6.609s-0.166 -5.13 -0.367 -6.61c-0.34 -2.49 -2.322 -4.085 -4.682 -4.235C17.104 13.069 15.188 13 12.5 13c-2.688 0 -4.604 0.069 -5.951 0.155 -2.36 0.15 -4.342 1.745 -4.682 4.236C1.666 18.87 1.5 20.997 1.5 24Z" stroke-width="1"></path>
  </g>
</svg>