<svg xmlns="http://www.w3.org/2000/svg" fill="none" viewBox="0 0 48 48" id="Home-1--Streamline-Plump">
  <desc>
    Home 1 Streamline Icon: https://streamlinehq.com
  </desc>
  <g id="home-1--home-house-roof-shelter">
    <path id="Subtract" fill="#8fbffa" fill-rule="evenodd" d="M20.5682 2.81246c2.1784 -0.99734 4.6852 -0.99734 6.8636 0 7.7657 3.5554 13.5513 8.64154 16.3373 11.38514 1.5022 1.4793 2.3049 3.4519 2.4175 5.4865 0.1388 2.5072 0.3134 6.5725 0.3134 11.1586 0 3.2363 -0.087 6.2126 -0.1868 8.5643 -0.1601 3.7688 -3.1695 6.7252 -6.9275 6.8541 -3.4773 0.1192 -8.6464 0.2389 -15.3857 0.2389s-11.9084 -0.1197 -15.38569 -0.2389c-3.75796 -0.1289 -6.76743 -3.0853 -6.92748 -6.8541C1.58696 37.0553 1.5 34.079 1.5 30.8427c0 -4.5861 0.17463 -8.6514 0.31339 -11.1586 0.1126 -2.0346 0.91528 -4.0072 2.41753 -5.4865C7.01693 11.454 12.8025 6.36786 20.5682 2.81246Z" clip-rule="evenodd" stroke-width="1"></path>
    <path id="Subtract_2" fill="#2859c5" fill-rule="evenodd" d="M16 36c-1.1046 0 -2 0.8954 -2 2s0.8954 2 2 2h16c1.1046 0 2 -0.8954 2 -2s-0.8954 -2 -2 -2H16Z" clip-rule="evenodd" stroke-width="1"></path>
  </g>
</svg>