<svg xmlns="http://www.w3.org/2000/svg" fill="none" viewBox="0 0 48 48" id="Horizontal-Menu-Circle--Streamline-Plump">
  <desc>
    Horizontal Menu Circle Streamline Icon: https://streamlinehq.com
  </desc>
  <g id="horizontal-menu-circle--navigation-dots-three-circle-button-horizontal-menu">
    <path id="Union" fill="#8fbffa" d="M24 1.5C11.574 1.5 1.5 11.574 1.5 24S11.574 46.5 24 46.5 46.5 36.426 46.5 24 36.426 1.5 24 1.5Z" stroke-width="1"></path>
    <path id="Subtract" fill="#2859c5" fill-rule="evenodd" d="M24 27.5a3.5 3.5 0 1 0 0 -7 3.5 3.5 0 0 0 0 7ZM16 24a3.5 3.5 0 1 1 -7 0 3.5 3.5 0 0 1 7 0Zm19.5 3.5a3.5 3.5 0 1 0 0 -7 3.5 3.5 0 0 0 0 7Z" clip-rule="evenodd" stroke-width="1"></path>
  </g>
</svg>