<svg xmlns="http://www.w3.org/2000/svg" fill="none" viewBox="0 0 48 48" id="Invisible-2--Streamline-Plump">
  <desc>
    Invisible 2 Streamline Icon: https://streamlinehq.com
  </desc>
  <g id="invisible-2">
    <path id="Union" fill="#8fbffa" d="M5.834 16.92c-0.946 -0.015 -2.33 0.34 -3.407 1.96 -0.615 0.924 -0.478 2.048 0.028 2.85a25.904 25.904 0 0 0 3.608 4.518L3.494 28.51c-1.177 1.037 -1.818 2.932 -0.663 4.457 0.352 0.465 0.8 0.959 1.36 1.401 1.53 1.211 3.432 0.434 4.407 -0.694l2.869 -3.313a25.49 25.49 0 0 0 3.617 1.695l-1.376 4.085c-0.501 1.486 -0.108 3.448 1.655 4.191a7.74 7.74 0 0 0 1.877 0.534c1.931 0.284 3.19 -1.34 3.47 -2.804l0.865 -4.496a25.08 25.08 0 0 0 4.284 0.048l0.855 4.447c0.282 1.464 1.54 3.089 3.47 2.805a7.74 7.74 0 0 0 1.878 -0.533c1.763 -0.744 2.156 -2.706 1.655 -4.192l-1.314 -3.898a25.484 25.484 0 0 0 3.741 -1.666l2.682 3.098c0.975 1.127 2.877 1.904 4.407 0.693a7.741 7.741 0 0 0 1.36 -1.4c1.155 -1.526 0.514 -3.421 -0.663 -4.458l-2.266 -1.996a25.875 25.875 0 0 0 3.88 -4.786c0.506 -0.801 0.644 -1.925 0.029 -2.85 -1.078 -1.62 -2.461 -1.974 -3.407 -1.958 -0.894 0.015 -1.496 0.604 -1.823 1.062 -3.96 5.555 -10.129 8.165 -16.343 8.165s-12.383 -2.61 -16.343 -8.165c-0.327 -0.458 -0.93 -1.047 -1.823 -1.062Z" stroke-width="1"></path>
  </g>
</svg>