<svg xmlns="http://www.w3.org/2000/svg" fill="none" viewBox="0 0 48 48" id="Magic-Wand-1--Streamline-Plump">
  <desc>
    Magic Wand 1 Streamline Icon: https://streamlinehq.com
  </desc>
  <g id="magic-wand-1--sselection-wand-object-work">
    <path id="Union" fill="#2859c5" d="M31.9815 12.7485c-1.2642 -0.5989 -2.6174 -0.0954 -3.5422 0.7237L4.30622 34.8468c-1.36829 1.2119 -2.30881 3.0973 -1.58026 4.9716 0.39879 1.026 1.0598 2.2069 2.15406 3.3011 1.09425 1.0943 2.27509 1.7553 3.30109 2.1541 1.87439 0.7285 3.75969 -0.212 4.97159 -1.5803L34.5275 19.56c0.819 -0.9246 1.3225 -2.2776 0.7238 -3.5416 -0.2856 -0.6028 -0.7129 -1.2848 -1.349 -1.9209 -0.6361 -0.6361 -1.318 -1.0634 -1.9208 -1.349Z" stroke-width="1"></path>
    <path id="Vector 1353 (Stroke)" fill="#2859c5" fill-rule="evenodd" d="M19.2322 5.23223c0.9763 -0.97631 2.5593 -0.97631 3.5356 0l3 3c0.9763 0.97631 0.9763 2.55927 0 3.53557 -0.9763 0.9763 -2.5593 0.9763 -3.5356 0l-3 -3.00003c-0.9763 -0.97631 -0.9763 -2.55923 0 -3.53554Z" clip-rule="evenodd" stroke-width="1"></path>
    <path id="Vector 1354 (Stroke)" fill="#2859c5" fill-rule="evenodd" d="M36.2322 22.2322c0.9763 -0.9763 2.5593 -0.9763 3.5356 0l3 3c0.9763 0.9763 0.9763 2.5593 0 3.5356 -0.9763 0.9763 -2.5593 0.9763 -3.5356 0l-3 -3c-0.9763 -0.9763 -0.9763 -2.5593 0 -3.5356Z" clip-rule="evenodd" stroke-width="1"></path>
    <path id="Vector 1353 (Stroke)_2" fill="#2859c5" fill-rule="evenodd" d="M42.7678 5.23223c-0.9763 -0.97631 -2.5593 -0.97631 -3.5356 0l-3 3c-0.9763 0.97631 -0.9763 2.55927 0 3.53557 0.9763 0.9763 2.5593 0.9763 3.5356 0l3 -3.00003c0.9763 -0.97631 0.9763 -2.55923 0 -3.53554Z" clip-rule="evenodd" stroke-width="1"></path>
    <path id="Vector 1353 (Stroke)_3" fill="#2859c5" fill-rule="evenodd" d="M31 0.35791c1.3807 0 2.5 1.11929 2.5 2.5v4.24264c0 1.38071 -1.1193 2.5 -2.5 2.5s-2.5 -1.11929 -2.5 -2.5V2.85791c0 -1.38071 1.1193 -2.5 2.5 -2.5Z" clip-rule="evenodd" stroke-width="1"></path>
    <path id="Vector 1354 (Stroke)_2" fill="#2859c5" fill-rule="evenodd" d="M38.3994 17c0 -1.3807 1.1193 -2.5 2.5 -2.5h4.2427c1.3807 0 2.5 1.1193 2.5 2.5s-1.1193 2.5 -2.5 2.5h-4.2427c-1.3807 0 -2.5 -1.1193 -2.5 -2.5Z" clip-rule="evenodd" stroke-width="1"></path>
    <path id="Intersect" fill="#8fbffa" d="m30.6221 23.9695 3.9055 -4.4095c0.819 -0.9246 1.3225 -2.2776 0.7238 -3.5416 -0.2856 -0.6028 -0.7129 -1.2848 -1.349 -1.9209 -0.6361 -0.6361 -1.318 -1.0634 -1.9208 -1.349 -1.2642 -0.5989 -2.6174 -0.0954 -3.5422 0.7237l-4.4218 3.9164c0.922 0.9688 1.9323 2.0051 3.039 3.1117 1.2814 1.2814 2.4684 2.4336 3.5655 3.4692Z" stroke-width="1"></path>
  </g>
</svg>