<svg xmlns="http://www.w3.org/2000/svg" fill="none" viewBox="0 0 48 48" id="Octagram-Shape--Streamline-Plump">
  <desc>
    Octagram Shape Streamline Icon: https://streamlinehq.com
  </desc>
  <g id="octagram-shape">
    <path id="Union" fill="#8fbffa" d="M26.8603 2.50727c-1.6937 -1.3968 -4.0272 -1.39672 -5.7208 0.00014 -1.0122 0.83485 -2.4482 2.0839 -4.415 3.92418 -2.6927 0.08943 -4.5918 0.22169 -5.8983 0.34711 -2.18579 0.20984 -3.83607 1.8603 -4.0458 4.0461 -0.12536 1.3063 -0.25754 3.2053 -0.34693 5.8977 -1.84097 1.9675 -3.09049 3.404 -3.92566 4.4166 -1.39723 1.694 -1.39709 4.0279 0.00017 5.7218 0.83517 1.0125 2.08467 2.4489 3.92555 4.4162 0.08939 2.6913 0.22153 4.5897 0.34685 5.8957 0.20974 2.1859 1.86013 3.8364 4.04602 4.0463 1.3061 0.1253 3.2047 0.2576 5.8961 0.347 1.9673 1.841 3.4039 3.0905 4.4164 3.9257 1.6939 1.3974 4.028 1.3974 5.722 0.0002 1.0126 -0.8353 2.4493 -2.0848 4.4168 -3.9259 2.6924 -0.0894 4.5913 -0.2217 5.8976 -0.3471 2.1853 -0.2098 3.8355 -1.8598 4.0454 -4.0452 0.1255 -1.3063 0.2578 -3.2055 0.3473 -5.8981 1.8403 -1.9668 3.0895 -3.403 3.9244 -4.4152 1.3969 -1.6937 1.397 -4.0272 0.0001 -5.721 -0.8349 -1.0123 -2.084 -2.4486 -3.9244 -4.4156 -0.0895 -2.6937 -0.2219 -4.5934 -0.3474 -5.9001 -0.2099 -2.1853 -1.86 -3.83522 -4.0453 -4.04506 -1.3065 -0.12545 -3.2061 -0.25775 -5.8997 -0.3472 -1.9669 -1.84033 -3.4031 -3.08941 -4.4154 -3.92427Z" stroke-width="1"></path>
  </g>
</svg>