<svg xmlns="http://www.w3.org/2000/svg" fill="none" viewBox="0 0 48 48" id="Padlock-Key--Streamline-Plump">
  <desc>
    Padlock Key Streamline Icon: https://streamlinehq.com
  </desc>
  <g id="padlock-key--combination-combo-key-keyhole-lock-secure-security-square-unlock-unlocked">
    <path id="Union" fill="#2859c5" d="M26.959 1.5a12.5 12.5 0 0 1 12.456 11.462l0.44 5.283a0.5 0.5 0 0 1 -0.523 0.541 232.595 232.595 0 0 0 -7.808 -0.244 0.5 0.5 0 0 1 -0.491 -0.47l-0.239 -4.051a4.803 4.803 0 0 0 -9.588 0l-0.239 4.05a0.5 0.5 0 0 1 -0.49 0.471c-3.277 0.053 -5.861 0.147 -7.81 0.244a0.5 0.5 0 0 1 -0.522 -0.54l0.44 -5.284A12.5 12.5 0 0 1 25.042 1.5h1.916Z" stroke-width="1"></path>
    <path id="Subtract" fill="#8fbffa" d="M5.523 29.62c0.05 -2.46 0.173 -4.445 0.314 -5.994 0.3 -3.298 2.956 -5.637 6.159 -5.808C14.961 17.66 19.55 17.5 26 17.5c6.45 0 11.039 0.16 14.004 0.318 3.202 0.171 5.86 2.51 6.16 5.808 0.182 2.02 0.336 4.784 0.336 8.374 0 3.59 -0.154 6.353 -0.337 8.374 -0.3 3.298 -2.957 5.636 -6.16 5.808 -1.341 0.071 -3.016 0.143 -5.045 0.2 0.348 -0.72 0.542 -1.528 0.542 -2.382v-5a5.5 5.5 0 0 0 -5.5 -5.5l-12.648 0A9.989 9.989 0 0 0 9 29a9.98 9.98 0 0 0 -3.477 0.62Z" stroke-width="1"></path>
    <path id="Subtract_2" fill="#2859c5" fill-rule="evenodd" d="M2 39a7 7 0 0 0 13.54 2.5H20V44a2.5 2.5 0 0 0 5 0v-2.5h2.5V44a2.5 2.5 0 0 0 5 0v-5a2.5 2.5 0 0 0 -2.5 -2.5l-14.46 0A7.003 7.003 0 0 0 2 39Zm6 1.5a1.5 1.5 0 0 1 0 -3h2a1.5 1.5 0 0 1 0 3H8Z" clip-rule="evenodd" stroke-width="1"></path>
  </g>
</svg>