<svg xmlns="http://www.w3.org/2000/svg" fill="none" viewBox="0 0 48 48" id="Quotation-2--Streamline-Plump">
  <desc>
    Quotation 2 Streamline Icon: https://streamlinehq.com
  </desc>
  <g id="quotation-2--quote-quotation-format-formatting-open-close-marks-text">
    <path id="Union" fill="#8fbffa" fill-rule="evenodd" d="M11.933 3.036c-0.695 -0.39 -1.92 -0.884 -3.825 -1.031a1.685 1.685 0 0 0 -1.66 0.978C5.53 4.951 3.566 9.85 2.04 18.44c-0.167 0.94 0.185 1.884 1.1 2.157 0.724 0.215 1.788 0.4 3.306 0.4 1.892 0 3.079 -0.287 3.781 -0.563 0.614 -0.24 0.925 -0.849 1.002 -1.503A335.966 335.966 0 0 0 12.6 4.435c0.04 -0.567 -0.171 -1.12 -0.667 -1.4Zm11.394 0c-0.694 -0.39 -1.92 -0.884 -3.824 -1.031a1.685 1.685 0 0 0 -1.66 0.978c-0.919 1.968 -2.883 6.867 -4.408 15.457 -0.167 0.94 0.184 1.884 1.1 2.157 0.723 0.215 1.787 0.4 3.306 0.4 1.892 0 3.078 -0.287 3.78 -0.563 0.614 -0.24 0.926 -0.849 1.003 -1.503a336.183 336.183 0 0 0 1.37 -14.496c0.041 -0.567 -0.17 -1.12 -0.667 -1.4Zm2.346 41.927c0.695 0.39 1.92 0.884 3.825 1.03a1.685 1.685 0 0 0 1.66 -0.978c0.918 -1.967 2.882 -6.867 4.408 -15.456 0.167 -0.94 -0.185 -1.885 -1.1 -2.157 -0.724 -0.216 -1.788 -0.402 -3.306 -0.402 -1.892 0 -3.079 0.288 -3.781 0.564 -0.614 0.24 -0.925 0.85 -1.002 1.504a335.859 335.859 0 0 0 -1.371 14.495c-0.04 0.567 0.171 1.12 0.667 1.4Zm11.395 0c0.694 0.39 1.92 0.884 3.824 1.03a1.685 1.685 0 0 0 1.66 -0.978c0.919 -1.967 2.883 -6.867 4.408 -15.456 0.167 -0.94 -0.185 -1.885 -1.1 -2.157 -0.723 -0.216 -1.787 -0.402 -3.306 -0.402 -1.892 0 -3.078 0.288 -3.78 0.564 -0.614 0.24 -0.925 0.85 -1.003 1.504a336.026 336.026 0 0 0 -1.37 14.495c-0.041 0.567 0.17 1.12 0.667 1.4Z" clip-rule="evenodd" stroke-width="1"></path>
  </g>
</svg>