<svg xmlns="http://www.w3.org/2000/svg" fill="none" viewBox="0 0 48 48" id="Reset-Clock--Streamline-Plump">
  <desc>
    Reset Clock Streamline Icon: https://streamlinehq.com
  </desc>
  <g id="reset-clock--timer-countdown-clock">
    <path id="Union" fill="#8fbffa" d="M46.77 24.135c0 -12.5 -10.135 -22.635 -22.636 -22.635C11.634 1.5 1.5 11.634 1.5 24.135c0 7.02 3.196 13.293 8.21 17.444 1.324 1.096 3.222 0.65 4.118 -0.724l0.724 -1.11c0.913 -1.4 0.474 -3.202 -0.694 -4.26a15.27 15.27 0 0 1 -5.033 -11.35c0 -8.456 6.854 -15.31 15.31 -15.31s15.311 6.854 15.311 15.31c0 4.137 -1.64 7.89 -4.307 10.646a53.335 53.335 0 0 0 -2.89 -2.986c-0.608 -0.576 -1.39 -0.734 -2.075 -0.504 -0.682 0.23 -1.212 0.827 -1.365 1.645 -0.562 3.025 -0.805 6.51 -0.904 9.358a3.382 3.382 0 0 0 2.912 3.47c2.808 0.395 6.259 0.76 9.323 0.735 0.842 -0.007 1.528 -0.434 1.874 -1.073 0.347 -0.641 0.327 -1.449 -0.14 -2.154a52.366 52.366 0 0 0 -2.032 -2.838 22.57 22.57 0 0 0 6.928 -16.299Z" stroke-width="1"></path>
    <path id="Vector 1439 (Stroke)" fill="#2859c5" fill-rule="evenodd" d="M24 12.5a2.5 2.5 0 0 1 2.5 2.5v9a2.5 2.5 0 0 1 -0.732 1.768l-6 6a2.5 2.5 0 0 1 -3.536 -3.536l5.268 -5.267V15a2.5 2.5 0 0 1 2.5 -2.5Z" clip-rule="evenodd" stroke-width="1"></path>
  </g>
</svg>