<svg xmlns="http://www.w3.org/2000/svg" fill="none" viewBox="0 0 48 48" id="Select-Circle-Area-1--Streamline-Plump">
  <desc>
    Select Circle Area 1 Streamline Icon: https://streamlinehq.com
  </desc>
  <g id="select-circle-area-1--select-area-object-work">
    <path id="Ellipse 19" fill="#8fbffa" d="M24 45c11.598 0 21 -9.402 21 -21S35.598 3 24 3 3 12.402 3 24s9.402 21 21 21Z" stroke-width="1"></path>
    <path id="Union" fill="#2859c5" fill-rule="evenodd" d="M21.325 5.48a2 2 0 0 0 -0.567 -3.96A22.564 22.564 0 0 0 15.6 2.895a2 2 0 1 0 1.48 3.716 18.563 18.563 0 0 1 4.245 -1.131Zm5.917 -3.96a2 2 0 0 0 -0.567 3.96c1.488 0.212 2.92 0.6 4.272 1.142a2 2 0 1 0 1.486 -3.714 22.566 22.566 0 0 0 -5.191 -1.388ZM12.428 9.297A2 2 0 0 0 9.95 6.156 22.834 22.834 0 0 0 6.157 9.95a2 2 0 1 0 3.14 2.477 18.835 18.835 0 0 1 3.13 -3.13Zm-5.795 7.729a2 2 0 1 0 -3.712 -1.492 22.565 22.565 0 0 0 -1.4 5.224 2 2 0 1 0 3.959 0.566 18.566 18.566 0 0 1 1.153 -4.298ZM45.105 15.6a2 2 0 0 0 -3.716 1.48 18.57 18.57 0 0 1 1.131 4.243 2 2 0 1 0 3.96 -0.566 22.57 22.57 0 0 0 -1.374 -5.157ZM5.48 26.675a2 2 0 0 0 -3.96 0.566c0.259 1.808 0.73 3.547 1.388 5.191a2 2 0 0 0 3.714 -1.486 18.567 18.567 0 0 1 -1.142 -4.27Zm41 0.566a2 2 0 0 0 -3.96 -0.566 18.564 18.564 0 0 1 -1.142 4.271 2 2 0 0 0 3.714 1.486 22.57 22.57 0 0 0 1.388 -5.19ZM9.28 35.55a2 2 0 1 0 -3.146 2.472 22.835 22.835 0 0 0 3.817 3.823 2 2 0 0 0 2.477 -3.142A18.83 18.83 0 0 1 9.28 35.55Zm32.586 2.472a2 2 0 1 0 -3.145 -2.471 18.833 18.833 0 0 1 -3.172 3.17 2 2 0 0 0 2.471 3.146 22.833 22.833 0 0 0 3.846 -3.845Zm-24.84 3.346a2 2 0 0 0 -1.493 3.711 22.565 22.565 0 0 0 5.225 1.402 2 2 0 0 0 0.567 -3.96 18.566 18.566 0 0 1 -4.3 -1.153Zm15.407 3.725a2 2 0 1 0 -1.486 -3.714c-1.353 0.541 -2.784 0.93 -4.272 1.142a2 2 0 0 0 0.567 3.96 22.562 22.562 0 0 0 5.191 -1.388ZM38.02 6.134a2 2 0 0 0 -2.471 3.145 18.82 18.82 0 0 1 3.153 3.148 2 2 0 1 0 3.141 -2.477 22.833 22.833 0 0 0 -3.823 -3.816Z" clip-rule="evenodd" stroke-width="1"></path>
  </g>
</svg>