<svg xmlns="http://www.w3.org/2000/svg" fill="none" viewBox="0 0 48 48" id="Share-Lock--Streamline-Plump">
  <desc>
    Share Lock Streamline Icon: https://streamlinehq.com
  </desc>
  <g id="share-lock--give-hand-lock-padlock-secure-security-transfer">
    <path id="Union" fill="#8fbffa" d="M1.364 28.26a2.776 2.776 0 0 1 1.94 -2.388C5.623 25.15 9.81 24 12.925 24c4.677 0 9.89 1.151 12.7 1.874 1.36 0.35 2.599 1.113 3.193 2.386 0.285 0.61 0.57 1.373 0.785 2.29 0.399 1.707 -1.138 3.106 -2.885 2.963l-7.715 -0.629a1.42 1.42 0 0 0 -1.535 1.415c0 0.688 0.493 1.276 1.173 1.38 1.425 0.217 3.86 0.543 5.642 0.543 3.78 0 13.853 -1.692 17.128 -2.26 0.7 -0.122 1.413 -0.206 2.093 0 0.995 0.304 2.437 1.103 3.115 3.213 0.507 1.577 -0.64 3.105 -2.198 3.664C39.636 42.556 29.4 46 24.284 46c-6.758 0 -16.322 -1.404 -20.556 -2.084a2.844 2.844 0 0 1 -2.399 -2.541C1.174 39.733 1 37.366 1 35c0 -2.548 0.201 -5.096 0.364 -6.74Z" stroke-width="1"></path>
    <path id="Union_2" fill="#2859c5" fill-rule="evenodd" d="M30.184 7.027a6.323 6.323 0 0 1 12.632 0l0.13 2.762c1.906 0.445 3.31 1.966 3.458 4.072 0.057 0.81 0.096 1.838 0.096 3.139 0 1.3 -0.039 2.329 -0.096 3.139 -0.167 2.385 -1.944 4.019 -4.239 4.19 -1.267 0.096 -3.084 0.171 -5.665 0.171s-4.398 -0.075 -5.666 -0.17c-2.294 -0.172 -4.07 -1.806 -4.238 -4.191A45.089 45.089 0 0 1 26.5 17c0 -1.154 0.026 -2.09 0.066 -2.85 0.115 -2.184 1.514 -3.82 3.488 -4.337l0.13 -2.786Zm8.745 2.498a116.812 116.812 0 0 0 -4.858 0l0.109 -2.31a2.323 2.323 0 0 1 4.64 0l0.109 2.31Z" clip-rule="evenodd" stroke-width="1"></path>
    <path id="Vector 1114 (Stroke)" fill="#8fbffa" fill-rule="evenodd" d="M36.5 14a2 2 0 0 1 2 2v2a2 2 0 1 1 -4 0v-2a2 2 0 0 1 2 -2Z" clip-rule="evenodd" stroke-width="1"></path>
  </g>
</svg>