<svg xmlns="http://www.w3.org/2000/svg" fill="none" viewBox="0 0 48 48" id="Star-Circle--Streamline-Plump">
  <desc>
    Star Circle Streamline Icon: https://streamlinehq.com
  </desc>
  <g id="star-circle--reward-social-rating-media-rate-it-star">
    <path id="Subtract" fill="#8fbffa" fill-rule="evenodd" d="M24 1.5C11.574 1.5 1.5 11.574 1.5 24S11.574 46.5 24 46.5 46.5 36.426 46.5 24 36.426 1.5 24 1.5Z" clip-rule="evenodd" stroke-width="1"></path>
    <path id="Subtract_2" fill="#2859c5" fill-rule="evenodd" d="m28.586 17.841 -2.81 -5.418c-0.747 -1.439 -2.805 -1.439 -3.552 0l-2.81 5.418 -5.958 1.174c-1.523 0.3 -2.139 2.145 -1.101 3.3l4.225 4.698 -0.776 6.288c-0.196 1.584 1.45 2.747 2.878 2.035L24 32.68l5.318 2.655c1.427 0.712 3.073 -0.451 2.878 -2.035l-0.776 -6.288 4.225 -4.699c1.038 -1.154 0.422 -3 -1.1 -3.3l-5.96 -1.173Z" clip-rule="evenodd" stroke-width="1"></path>
  </g>
</svg>