<svg xmlns="http://www.w3.org/2000/svg" fill="none" viewBox="0 0 48 48" id="User-Sticker-Square--Streamline-Plump">
  <desc>
    User Sticker Square Streamline Icon: https://streamlinehq.com
  </desc>
  <g id="user-sticker-square">
    <path id="Subtract (Stroke)" fill="#8fbffa" fill-rule="evenodd" d="M7.939 2.06c3.258 -0.27 8.51 -0.56 16.061 -0.56 7.552 0 12.803 0.29 16.061 0.56 3.17 0.263 5.616 2.71 5.879 5.879 0.27 3.258 0.56 8.51 0.56 16.061 0 2.026 -0.02 3.833 -0.057 5.5 -0.036 1.694 -0.544 3.401 -1.64 4.813 -1.014 1.306 -2.628 3.225 -4.947 5.543 -2.318 2.319 -4.237 3.932 -5.543 4.947 -1.412 1.096 -3.119 1.604 -4.813 1.64 -1.667 0.036 -3.474 0.057 -5.5 0.057 -7.552 0 -12.803 -0.29 -16.061 -0.56 -3.17 -0.263 -5.616 -2.71 -5.879 -5.879 -0.27 -3.258 -0.56 -8.51 -0.56 -16.061 0 -7.552 0.29 -12.803 0.56 -16.061 0.263 -3.17 2.71 -5.616 5.879 -5.879Z" clip-rule="evenodd" stroke-width="1"></path>
    <path id="Subtract" fill="#2859c5" fill-rule="evenodd" d="M17.54 26.724a2 2 0 0 0 -3.08 2.552C17.019 32.365 20.463 34 24 34c3.537 0 6.981 -1.635 9.54 -4.724a2 2 0 1 0 -3.08 -2.552C28.6 28.968 26.254 30 24 30c-2.254 0 -4.6 -1.032 -6.46 -3.276ZM16 15a2 2 0 0 1 2 2v2a2 2 0 0 1 -4 0v-2a2 2 0 0 1 2 -2Zm14 2a2 2 0 1 1 4 0v2a2 2 0 0 1 -4 0v-2Z" clip-rule="evenodd" stroke-width="1"></path>
    <path id="Intersect" fill="#2859c5" d="M46.164 31.526a7.71 7.71 0 0 1 -1.361 2.787c-1.014 1.306 -2.628 3.225 -4.947 5.543 -2.318 2.319 -4.237 3.932 -5.543 4.947a7.709 7.709 0 0 1 -2.787 1.361c0.11 -3.217 0.283 -6.508 0.455 -8.332 0.297 -3.142 2.71 -5.555 5.852 -5.851 1.824 -0.173 5.115 -0.345 8.331 -0.455Z" stroke-width="1"></path>
  </g>
</svg>