<svg xmlns="http://www.w3.org/2000/svg" viewBox="0 0 24 24" id="Vinyl-Record-Player--Streamline-Ultimate">
  <desc>
    Vinyl Record Player Streamline Icon: https://streamlinehq.com
  </desc>
  <g id="Vinyl-Record-Player--Streamline-Ultimate.svg">
    <path d="M10 10.75a2.75 2.75 0 1 0 2.75 2.75A2.75 2.75 0 0 0 10 10.75Zm0 4a1.25 1.25 0 1 1 1.25 -1.25A1.25 1.25 0 0 1 10 14.75Z" fill="#000000" stroke-width="1"></path>
    <path d="M22.5 3a2.5 2.5 0 0 0 -5 0v2a1.5 1.5 0 0 0 1.29 1.48 0.26 0.26 0 0 1 0.21 0.25V12a0.27 0.27 0 0 1 -0.06 0.17l-4.25 4.72a1 1 0 0 0 0.14 1.33 1 1 0 0 0 1.41 -0.07l4.5 -5a1 1 0 0 0 0.26 -0.65V6.73a0.26 0.26 0 0 1 0.21 -0.25A1.5 1.5 0 0 0 22.5 5Z" fill="#000000" stroke-width="1"></path>
    <path d="M23.72 6.5a0.26 0.26 0 0 0 -0.19 0.1 3.1 3.1 0 0 1 -0.91 0.93 0.22 0.22 0 0 0 -0.12 0.21v4.76a2.51 2.51 0 0 1 -0.64 1.67l-4.5 5a2.5 2.5 0 0 1 -3 0.57 0.25 0.25 0 0 0 -0.25 0 7.5 7.5 0 1 1 2.89 -8.9 0.25 0.25 0 0 0 0.24 0.16 0.25 0.25 0 0 0 0.25 -0.25v-3a0.22 0.22 0 0 0 -0.12 -0.21A3 3 0 0 1 16 5V3.75a0.25 0.25 0 0 0 -0.25 -0.25H1.5A1.5 1.5 0 0 0 0 5v17a1.5 1.5 0 0 0 1.5 1.5h21A1.5 1.5 0 0 0 24 22V6.78a0.27 0.27 0 0 0 -0.28 -0.28Z" fill="#000000" stroke-width="1"></path>
  </g>
</svg>