<svg xmlns="http://www.w3.org/2000/svg" viewBox="0 0 24 24" id="Volume-Control-Remove-1--Streamline-Ultimate">
  <desc>
    Volume Control Remove 1 Streamline Icon: https://streamlinehq.com
  </desc>
  <g id="Volume-Control-Remove-1--Streamline-Ultimate.svg">
    <path d="M13.86 10.38a0.25 0.25 0 0 0 0.14 -0.23V1a1 1 0 0 0 -1.06 -1A9.71 9.71 0 0 0 5 4.85a0.27 0.27 0 0 1 -0.21 0.15H3a3 3 0 0 0 -3 3v2a3 3 0 0 0 3 3h1.79a0.26 0.26 0 0 1 0.23 0.13A9.15 9.15 0 0 0 9.18 17a0.27 0.27 0 0 0 0.23 0 0.24 0.24 0 0 0 0.12 -0.2 8 8 0 0 1 4.33 -6.42Z" fill="#000000" stroke-width="1"></path>
    <path d="M17.5 11a6.5 6.5 0 1 0 6.5 6.5 6.51 6.51 0 0 0 -6.5 -6.5Zm2.65 8.09a0.75 0.75 0 0 1 -1.06 1.06l-1.41 -1.41a0.25 0.25 0 0 0 -0.36 0l-1.41 1.41a0.75 0.75 0 0 1 -1.06 -1.06l1.41 -1.41a0.25 0.25 0 0 0 0 -0.36l-1.41 -1.41a0.75 0.75 0 1 1 1.06 -1.06l1.41 1.41a0.25 0.25 0 0 0 0.36 0l1.41 -1.41a0.75 0.75 0 0 1 1.06 1.06l-1.41 1.41a0.25 0.25 0 0 0 0 0.36Z" fill="#000000" stroke-width="1"></path>
  </g>
</svg>