<svg xmlns="http://www.w3.org/2000/svg" fill="none" viewBox="0 0 14 14" id="Task-List--Streamline-Core-Gradient">
  <desc>
    Task List Streamline Icon: https://streamlinehq.com
  </desc>
  <g id="Free Gradient/Work Education/task-list--task-list-work">
    <path id="Subtract" fill="url(#paint0_linear_14402_15474)" fill-rule="evenodd" d="M2.5 0c-.39782 0-.77936.158035-1.06066.43934C1.15804.720644 1 1.10218 1 1.5v11c0 .3978.15804.7794.43934 1.0607S2.10217 14 2.5 14h9c.3978 0 .7794-.158 1.0607-.4393S13 12.8978 13 12.5v-8c0-.13261-.0527-.25979-.1464-.35355L8.85355.146447C8.75979.0526784 8.63261 0 8.5 0h-6Zm4.43359 6.375c0-.34518.27983-.625.625-.625h2.50001c.3452 0 .625.27982.625.625s-.2798.625-.625.625H7.55859c-.34517 0-.625-.27982-.625-.625Zm.625 3.09375c-.34517 0-.625.27982-.625.62505 0 .3451.27983.625.625.625h2.50001c.3452 0 .625-.2799.625-.625 0-.34523-.2798-.62505-.625-.62505H7.55859ZM6.28905 8.41134c.28089.20063.34595.59097.14531.87186l-1.39648 1.9551c-.10678.1495-.27394.2444-.45703.2596-.1831.0151-.36359-.051-.49349-.181l-.8379-.8378c-.24407-.2441-.24407-.63986 0-.88393.24408-.24408.63981-.24408.88389 0l.31619.31619.96766-1.35471c.20063-.28088.59097-.34594.87185-.14531Zm.14531-2.90939c.20064-.28089.13558-.67123-.14531-.87186-.28088-.20063-.67122-.13558-.87185.14531l-.96766 1.35471-.31619-.31619c-.24408-.24408-.63981-.24408-.88389 0-.24407.24408-.24407.6398 0 .88388l.8379.83789c.1299.12991.31039.19608.49349.18093.18309-.01515.35025-.1101.45703-.2596l1.39648-1.95507Z" clip-rule="evenodd"></path>
  </g>
  <defs>
    <linearGradient id="paint0_linear_14402_15474" x1="2.962" x2="13.298" y1="2.692" y2="7.601" gradientUnits="userSpaceOnUse">
      <stop stop-color="#ffd600"></stop>
      <stop offset="1" stop-color="#00d078"></stop>
    </linearGradient>
  </defs>
</svg>