<svg xmlns="http://www.w3.org/2000/svg" fill="none" viewBox="0 0 24 24" id="Multiple-Neutral-2--Streamline-Ultimate">
  <desc>
    Multiple Neutral 2 Streamline Icon: https://streamlinehq.com
  </desc>
  <path stroke="#000000" stroke-linecap="round" stroke-linejoin="round" d="M3.375 7.875c0 1.09402 0.4346 2.1432 1.20818 2.9168C5.35677 11.5654 6.40598 12 7.5 12s2.14323 -0.4346 2.9168 -1.2082c0.7736 -0.7736 1.2082 -1.82278 1.2082 -2.9168 0 -1.09402 -0.4346 -2.14323 -1.2082 -2.91682C9.64323 4.1846 8.59402 3.75 7.5 3.75c-1.09402 0 -2.14323 0.4346 -2.91682 1.20818C3.8096 5.73177 3.375 6.78098 3.375 7.875Z" stroke-width="1"></path>
  <path stroke="#000000" stroke-linecap="round" stroke-linejoin="round" d="M0.75 20.25c0 -1.7902 0.71116 -3.5071 1.97703 -4.773C3.9929 14.2112 5.70979 13.5 7.5 13.5s3.5071 0.7112 4.773 1.977c1.2658 1.2659 1.977 2.9828 1.977 4.773" stroke-width="1"></path>
  <path stroke="#000000" stroke-linecap="round" stroke-linejoin="round" d="M14.3521 10.125c0 0.8951 0.3555 1.7535 0.9885 2.3865 0.6329 0.6329 1.4913 0.9885 2.3864 0.9885 0.8952 0 1.7536 -0.3556 2.3865 -0.9885 0.633 -0.633 0.9885 -1.4914 0.9885 -2.3865 0 -0.89511 -0.3555 -1.75355 -0.9885 -2.38649 -0.6329 -0.63293 -1.4913 -0.98851 -2.3865 -0.98851 -0.8951 0 -1.7535 0.35558 -2.3864 0.98851 -0.633 0.63294 -0.9885 1.49138 -0.9885 2.38649Z" stroke-width="1"></path>
  <path stroke="#000000" stroke-linecap="round" stroke-linejoin="round" d="M15.813 15.068c0.8351 -0.3078 1.7321 -0.4093 2.6149 -0.2959 0.8827 0.1133 1.725 0.4382 2.4553 0.947 0.7302 0.5088 1.3267 1.1865 1.7388 1.9753 0.412 0.7889 0.6275 1.6656 0.628 2.5556" stroke-width="1"></path>
</svg>