<svg xmlns="http://www.w3.org/2000/svg" fill="none" viewBox="0 0 24 24" id="Single-Neutral-Actions-Edit-1--Streamline-Ultimate">
  <desc>
    Single Neutral Actions Edit 1 Streamline Icon: https://streamlinehq.com
  </desc>
  <path stroke="#000000" stroke-linecap="round" stroke-linejoin="round" d="M22.63 14.869 15 22.5l-3.75 0.75 0.75 -3.75 7.63 -7.631c0.3968 -0.3966 0.9349 -0.6195 1.496 -0.6195s1.0992 0.2229 1.496 0.6195l0.008 0.009c0.1966 0.1963 0.3526 0.4294 0.4591 0.686 0.1064 0.2566 0.1612 0.5317 0.1612 0.8095 0 0.2778 -0.0548 0.5529 -0.1612 0.8096 -0.1065 0.2566 -0.2625 0.4897 -0.4591 0.6859Z" stroke-width="1.5"></path>
  <path stroke="#000000" stroke-linecap="round" stroke-linejoin="round" d="M3.375 4.875c0 1.09402 0.4346 2.14323 1.20818 2.91682C5.35677 8.5654 6.40598 9 7.5 9s2.14323 -0.4346 2.9168 -1.20818c0.7736 -0.77359 1.2082 -1.8228 1.2082 -2.91682s-0.4346 -2.14323 -1.2082 -2.91682C9.64323 1.1846 8.59402 0.75 7.5 0.75c-1.09402 0 -2.14323 0.4346 -2.91682 1.20818C3.8096 2.73177 3.375 3.78098 3.375 4.875Z" stroke-width="1.5"></path>
  <path stroke="#000000" stroke-linecap="round" stroke-linejoin="round" d="M13.338 13.9188c-0.7321 -1.2962 -1.8733 -2.313 -3.245 -2.8913 -1.37165 -0.5782 -2.89636 -0.6854 -4.33542 -0.3046S3.04634 11.951 2.14022 13.132C1.23409 14.313 0.745163 15.7612 0.749974 17.2498" stroke-width="1.5"></path>
</svg>