<svg xmlns="http://www.w3.org/2000/svg" fill="none" viewBox="0 0 24 24" id="Screen-Curved--Streamline-Freehand">
  <desc>
    Screen Curved Streamline Icon: https://streamlinehq.com
  </desc>
  <path fill="#020202" fill-rule="evenodd" d="M23.5648 3.92087c-0.0185 -0.17636 -0.0779 -0.34596 -0.1734 -0.49535 -0.0956 -0.14939 -0.2246 -0.27445 -0.3769 -0.36525C16.3098 0.838713 7.54364 0.278321 1.6195 3.34046c-0.08626 0.04114 -0.15264 0.11486 -0.18454 0.20494 -0.0319 0.09008 -0.02672 0.18914 0.01442 0.2754 0.04114 0.08625 0.11485 0.15263 0.20494 0.18454 0.09008 0.0319 0.18914 0.02671 0.2754 -0.01442 5.78404 -2.87201 14.20988 -2.15151 20.52438 0 0 0.08005 0.4903 0.56039 0.4102 7.70538 0 1.7112 -0.08 3.3023 -0.1901 4.303 -0.0291 0.1767 -0.0726 0.3507 -0.1301 0.5204 -1.0007 -0.1902 -3.7726 -1.0808 -6.3844 -1.5711 -3.1122 -0.5804 -5.614 -0.6405 -10.42733 0.6504 -1.89132 0.5104 -3.34233 1.0508 -4.25297 1.341 -0.2004 0.0499 -0.40456 0.0834 -0.610425 0.1L0.698856 4.70141c0 -0.08227 -0.032684 -0.16118 -0.090861 -0.21935C0.549818 4.42388 0.470914 4.3912 0.388639 4.3912c-0.082275 0 -0.161179 0.03268 -0.219356 0.09086 -0.058177 0.05817 -0.0908608 0.13708 -0.0908608 0.21935V15.3489c0 0.5403 -0.2401682 1.9313 0.1200838 2.3816 0.650455 0.8206 2.902024 -0.8706 8.586004 -1.7812 0 0.05 0.22015 3.0521 0.22015 3.0521 0 1.0007 0.59041 1.0007 1.66114 0.9006h2.2116c0.395 -0.0197 0.781 -0.1255 1.1308 -0.3102 0.2401 -0.1601 0.3202 -0.2101 0.3802 -1.0507 0.0601 -0.8406 0.1201 -2.2416 0.1301 -2.7419 4.8334 0.6804 8.1057 2.3616 8.8562 1.7212 0.9607 -0.8206 0.6405 -11.45804 0.1901 -13.59953ZM13.4077 18.6912c-0.2802 0.1101 0.4203 0.07 -2.852 0.1101l-0.57035 0.05c-0.36026 -1.6912 -0.52037 -2.5418 -0.61043 -3.0021 1.46868 -0.2713 2.96958 -0.3219 4.45308 -0.1501l-0.4203 2.9921Z" clip-rule="evenodd" stroke-width="1"></path>
  <path fill="#020202" fill-rule="evenodd" d="M16.8601 19.4117c-0.07 -0.1401 -0.5804 -1.1408 -0.6704 -1.2609 -0.3202 -0.4003 -0.7606 -0.2302 -0.7606 0.1101 0.1158 0.3199 0.274 0.6228 0.4704 0.9006 0.3956 0.7163 0.6535 1.5004 0.7605 2.3116 -11.19782 0.2202 -9.25646 0.4103 -10.00699 0.0801v-0.2202c0.70049 -1.8613 0.46033 -1.2609 1.0007 -2.6618 0.20014 -0.3503 -0.34023 -0.6505 -0.52036 -0.3002 -0.75052 1.4009 -0.4303 0.8105 -1.31092 2.7018 -0.12008 0.3303 -0.31021 0.5504 -0.17012 0.9107 0.1401 0.3602 0.62044 0.5003 0.88062 0.6004 1.17082 0.4603 9.78687 0 10.29717 -0.1801 0.7506 -0.2202 0.8606 -0.9307 0.5604 -1.5911 -0.1401 -0.4504 -0.3202 -0.9407 -0.5304 -1.401Z" clip-rule="evenodd" stroke-width="1"></path>
  <path fill="#0c6fff" fill-rule="evenodd" d="M20.9331 6.8129c-0.2102 -2.0014 -1.5211 -2.66186 -3.5025 -2.64185 -0.0796 -0.00796 -0.1591 0.01604 -0.2211 0.06671 -0.0619 0.05067 -0.1012 0.12386 -0.1091 0.20348 -0.008 0.07962 0.016 0.15915 0.0667 0.22108 0.0506 0.06193 0.1238 0.10119 0.2035 0.10915 1.6411 0.32023 2.2415 1.06075 2.4817 2.22156 0.4003 2.0014 0.0901 2.64184 0.6404 2.64184 0.0903 0 0.1768 -0.03584 0.2406 -0.09965s0.0997 -0.15035 0.0997 -0.24058c0.1047 -0.82283 0.1381 -1.65316 0.1001 -2.48174Z" clip-rule="evenodd" stroke-width="1"></path>
  <path fill="#0c6fff" fill-rule="evenodd" d="M20.4126 11.6963c-0.2301 0 -0.6704 0.7805 -0.5904 1.3309 0.0313 0.2708 0.1312 0.5292 0.2902 0.7505 0.1501 0.1702 0.2502 0.2802 0.3803 0.2402 0.3302 0 0.3602 -0.3502 0.4503 -1.0007 0.0201 -0.1293 0.0201 -0.2609 0 -0.3903 -0.02 -0.1301 -0.2502 -0.9306 -0.5304 -0.9306Z" clip-rule="evenodd" stroke-width="1"></path>
</svg>