<svg xmlns="http://www.w3.org/2000/svg" fill="none" viewBox="0 0 24 24" id="Smart-Watch-Wrist--Streamline-Freehand">
  <desc>
    Smart Watch Wrist Streamline Icon: https://streamlinehq.com
  </desc>
  <path fill="#020202" fill-rule="evenodd" d="M7.62111 16.7198c1.10347 -0.3625 2.05 -1.0908 2.68299 -2.0646 0.3967 -0.7332 0.4898 -1.5926 0.2594 -2.3938 -0.1949 -0.9193 -1.06259 -1.5353 -1.99484 -1.4162 -0.47551 0.0574 -0.91448 0.2839 -1.23673 0.6383 -0.31755 -0.2702 -0.71163 -0.4341 -1.12704 -0.4688 -0.90449 -0.1365 -1.74673 0.4907 -1.8751 1.3963 -0.16295 0.8004 -0.00153 1.6327 0.44878 2.314 0.66592 0.9959 1.67959 1.7072 2.84254 1.9948Zm-2.23407 -4.0594c0.05112 -0.3098 0.33643 -0.5248 0.64826 -0.4887 0.3601 0.0723 0.65133 0.3367 0.75796 0.6882 0.10837 0.4714 0.68632 0.6489 1.04051 0.3194 0.10979 -0.1022 0.17938 -0.2402 0.19632 -0.3892 0.03357 -0.3789 0.30745 -0.6931 0.67816 -0.778 0.36174 -0.0525 0.70531 0.175 0.79796 0.5286 0.24021 0.6691 0.1397 1.4133 -0.26928 1.9948 -0.45592 0.637 -1.07174 1.1428 -1.78531 1.4661 -0.65234 -0.3133 -1.22009 -0.7784 -1.65571 -1.3564 -0.44724 -0.5574 -0.59938 -1.2959 -0.40887 -1.9848Z" clip-rule="evenodd" stroke-width="1"></path>
  <path fill="#020202" fill-rule="evenodd" d="M23.9883 12.5507c0.0689 -0.8738 -0.1674 -1.7444 -0.6683 -2.4636 0.1714 -1.05282 -0.1566 -2.12547 -0.8876 -2.9023 -0.8065 -0.69459 -1.8494 -1.05173 -2.9124 -0.99745 -1.2866 0 -2.3538 -0.05979 -3.3811 -0.07979h-1.4861c-0.4888 0 -0.8379 0 -1.2667 0.04989 -0.2037 0.02092 -0.4043 0.06439 -0.5984 0.1297 -0.2845 0.095 -0.5612 0.21163 -0.8279 0.34908 -0.349 0.17949 -0.6782 0.38898 -0.9973 0.59836v-0.36897c0.0551 -0.56317 0.0249 -1.13153 -0.0898 -1.68561 -0.1355 -0.28153 -0.3647 -0.50725 -0.6484 -0.63837 -0.4666 -0.1703 -0.95936 -0.25806 -1.45609 -0.25928 -0.47041 -0.05133 -0.94316 -0.07796 -1.41632 -0.0798 -0.49174 0.00561 -0.98214 0.05225 -1.46612 0.13959 -0.31878 0.05265 -0.63021 0.14306 -0.92755 0.26939 -0.25796 0.10816 -0.48194 0.28388 -0.64837 0.50857 -0.13816 0.17775 -0.23061 0.38663 -0.26928 0.60847 -0.01204 0.33489 0.01806 0.67 0.08979 0.99734l0.1197 0.99745 -0.82786 -0.22939c-0.18765 -0.04296 -0.37745 -0.07622 -0.56847 -0.09979 -0.19602 -0.01031 -0.39245 -0.01031 -0.58847 0 -0.47632 -0.0149 -0.95295 0.0051 -1.426319 0.05989 -0.280203 0.04653 -0.404999 0.37898 -0.224591 0.59837 0.056735 0.06898 0.13653 0.1151 0.224591 0.12969 0.448879 0.0997 0.877749 0.25929 1.326529 0.36898 0.30786 0.07806 0.62132 0.13143 0.93755 0.15959 0.43816 -0.01183 0.87336 -0.07551 1.29663 -0.18949l0.05979 0.49868c-0.78112 0.45673 -1.43591 1.1013 -1.90499 1.8751 -1.08816 1.7055 -1.27796 3.834 -0.50867 5.7051 0.33112 0.6851 0.8455 1.265 1.48611 1.6756 0.1097 0.0698 0.21949 0.1097 0.32919 0.1695 -0.41541 0.0244 -0.82684 0.0946 -1.22684 0.2095 -0.34214 0.103 -0.67571 0.2331 -0.99734 0.3889 -0.45878 0.2194 -0.887652 0.4888 -1.356427 0.6882 -0.1973462 0.0444 -0.3191827 0.2429 -0.2692849 0.4389 0.0489795 0.1987 0.2504079 0.3195 0.4487749 0.2693 0.598057 -0.0615 1.188977 -0.1783 1.765407 -0.3491 0.3403 -0.1005 0.67357 -0.2238 0.99734 -0.369 0.35908 -0.1696 0.69816 -0.3691 1.04724 -0.5387v3.0721c0.01562 0.21 0.09184 0.4109 0.21949 0.5784 0.15653 0.1862 0.3648 0.3215 0.59837 0.389 0.36112 0.0937 0.73469 0.1307 1.10714 0.1097h1.62571c0.53857 0 1.07724 -0.0598 1.61581 -0.0997 0.33643 -0.0108 0.67083 -0.0575 0.99733 -0.1397 0.2363 -0.0723 0.4406 -0.2237 0.5785 -0.4288 0.1396 -0.2114 0.2346 -0.4489 0.2793 -0.6982 0.0297 -0.3051 0.0297 -0.6125 0 -0.9176l-0.2693 -2.5134 0.9076 0.5086c0.5486 0.2893 1.1071 0.6184 1.7055 0.8877 0.4009 0.1823 0.8141 0.3356 1.2368 0.4589 0.7445 0.2146 1.5217 0.2923 2.294 0.2294 0.7925 -0.0696 1.5331 -0.424 2.0845 -0.9975 0.344 -0.433 0.543 -0.9634 0.5685 -1.516h0.5187c0.6394 0.0478 1.2806 -0.0654 1.8651 -0.3291 0.7521 -0.369 1.2796 -1.0785 1.4163 -1.9051 0.0591 -0.6002 -0.0515 -1.2049 -0.3192 -1.7454 0.4128 -0.4245 0.6574 -0.9845 0.6882 -1.5758ZM10.0249 8.14225c-0.0012 0.2651 -0.03129 0.52928 -0.08975 0.78795 -0.05847 0.25868 0 0.0598 0 0.0798 -0.35725 -0.11194 -0.72021 -0.2051 -1.08714 -0.27929 -0.19092 -0.025 -0.36898 0.10092 -0.40898 0.28929 -0.03715 0.2002 0.09061 0.39398 0.28928 0.43877 0.46418 0.08786 0.91857 0.22153 1.35639 0.39898 0.2633 0.12051 0.5056 0.28215 0.7182 0.47875 0.8826 0.9294 1.3443 2.1809 1.2766 3.4609 0.0229 1.2564 -0.4501 2.4712 -1.3165 3.3812 -0.4861 0.4364 -1.08949 0.7207 -1.73551 0.8178 -1.06305 0.1658 -2.14866 0.1149 -3.19162 -0.1496 -0.56888 -0.1051 -1.11337 -0.3147 -1.60581 -0.6184 -0.47357 -0.2819 -0.86021 -0.6892 -1.11704 -1.1769 -0.69582 -1.523 -0.61031 -3.2889 0.22939 -4.7375 0.71601 -1.57074 2.39632 -2.46604 4.09927 -2.18431 0.24184 0.05368 0.45123 -0.17449 0.37684 -0.41081 -0.03459 -0.1097 -0.125 -0.19266 -0.23725 -0.21755 -0.8205 -0.19919 -1.68305 -0.13286 -2.46346 0.18949v-1.9948c-0.04653 -0.21989 -0.07316 -0.44357 -0.0798 -0.66826 -0.00459 -0.09306 0.02368 -0.1848 0.0798 -0.25928 0.09265 -0.08103 0.20714 -0.13307 0.32908 -0.1496 0.19418 -0.03785 0.39082 -0.06122 0.58847 -0.06989 0.40888 0 0.72806 -0.0798 0.99734 -0.0897 0.52919 -0.01041 1.05847 0.00623 1.58592 0.0498 0.28224 -0.01908 0.56551 -0.01908 0.84775 0 0.14959 0 0.29918 0 0.36898 0.12969 0.13235 0.51806 0.19615 1.05122 0.18955 1.58581v0.91766Zm0.2294 13.45475c-0.0279 0.1403 -0.0858 0.273 -0.1696 0.389h-0.80782l-3.18173 0.1296H5.2474v0.0499c-0.18949 0.0997 0 -0.5586 -0.06979 -0.7381 -0.0698 -0.5984 -0.1396 -1.2068 -0.17949 -1.8252v-0.6981c0.18949 0.0598 0.37897 0.1296 0.57846 0.1794 1.20602 0.287 2.45714 0.3311 3.6803 0.1297 0.34255 -0.0854 0.67643 -0.2022 0.99742 -0.349l0.0698 2.1243c-0.0046 0.2041 -0.0246 0.4075 -0.0599 0.6085h-0.0099Zm0.5984 -13.57445 1.1669 -0.58847c0.3181 -0.16928 0.6522 -0.30622 0.9975 -0.40887 0.1954 -0.02398 0.393 -0.02398 0.5884 0h2.0047c1.187 0.05979 2.3738 0.22938 3.8699 0.29918 0.7682 -0.03102 1.5197 0.22898 2.1045 0.72806 0.4914 0.43694 0.6552 1.13571 0.4089 1.7454h-1.0572c-0.6264 0.07041 -1.2586 0.07041 -1.8851 0 -0.1902 -0.06551 -0.3971 0.03796 -0.4587 0.22945 -0.0653 0.1957 0.0425 0.4069 0.2394 0.4688 0.4771 0.2357 0.9836 0.4069 1.506 0.5086 0.2184 0.0258 0.4391 0.0292 0.6582 0.01 0.235 -0.0007 0.4691 -0.0275 0.6982 -0.0798 0.192 -0.0533 0.3789 -0.1234 0.5586 -0.2094 0.3233 0.3706 0.5036 0.8446 0.5086 1.3364 0.036 0.3373 -0.005 0.6783 -0.1196 0.9975 -0.0599 0.1296 -0.1097 0.2493 -0.2294 0.2693 -0.1197 0.02 -0.1696 0.1297 -0.2494 0.2093h-0.768c-0.186 -0.0101 -0.3725 -0.0101 -0.5585 0h-1.9648c-0.199 -0.0359 -0.3885 0.0994 -0.419 0.2993 -0.0306 0.1999 0.101 0.3886 0.2993 0.4289 0.4643 0.1593 0.937 0.2925 1.4162 0.399 0.2135 0.0434 0.4305 0.0667 0.6484 0.0698 0.2154 0.0248 0.4328 0.0248 0.6482 0 0.249 -0.0637 0.4925 -0.1471 0.7281 -0.2494 0.2479 0.3839 0.3827 0.8298 0.389 1.2866 -0.0772 0.521 -0.3949 0.9754 -0.8578 1.2269 -0.4361 0.204 -0.9152 0.2999 -1.3963 0.2791 -0.8025 -0.0037 -1.6021 -0.0974 -2.3838 -0.2791 -0.2559 -0.1234 -0.5493 0.0766 -0.5282 0.3599 0.013 0.1738 0.146 0.315 0.3188 0.3382 0.4145 0.1299 0.8379 0.2299 1.2667 0.2992 -0.0595 0.3564 -0.2307 0.6847 -0.4887 0.9376 -0.4152 0.3479 -0.9448 0.5292 -1.4861 0.5086 -0.6311 0.0157 -1.2604 -0.0683 -1.8651 -0.2494 -0.9881 -0.2797 -1.9603 -0.6126 -2.9125 -0.9973l-0.6482 -0.1995c1.0087 -1.1527 1.5371 -2.6485 1.4761 -4.1791 0.0196 -1.5468 -0.6056 -3.032 -1.7255 -4.09924 -0.2351 -0.19582 -0.4972 -0.35704 -0.778 -0.47867 -0.2808 -0.12164 0.0699 -0.0599 0.0798 -0.0998 0.1059 -0.36418 0.1728 -0.73867 0.1995 -1.11704Z" clip-rule="evenodd" stroke-width="1"></path>
  <path fill="#0c6fff" fill-rule="evenodd" d="M7.44169 3.21512c0.29918 0 0.53857 -0.89765 0.55857 -0.99734 0.00949 -0.09286 0.00949 -0.18643 0 -0.27929 0.00561 -0.09295 0.00561 -0.18622 0 -0.27928 -0.27929 -0.997345 -0.42888 -0.997345 -0.60847 -0.997345 -0.17959 0 -0.36898 0 -0.55847 0.997345 -0.00531 0.09306 -0.00531 0.18633 0 0.27928 -0.00969 0.08949 -0.00969 0.1798 0 0.26929 0.00969 0.08949 0.31908 1.01734 0.60837 1.00734Z" clip-rule="evenodd" stroke-width="1"></path>
  <path fill="#0c6fff" fill-rule="evenodd" d="M2.04582 4.21256c0.05541 0.07347 0.11898 0.14041 0.18949 0.19949 0.07429 0.05275 0.1547 0.09633 0.23939 0.12959 0.08469 0.03327 0.92765 0.31918 1.10714 0.0699 0.17949 -0.24929 -0.40898 -0.99745 -0.41888 -0.99745 -0.03255 -0.07061 -0.07265 -0.13755 -0.11969 -0.19949 -0.07092 -0.04969 -0.14806 -0.08989 -0.22939 -0.11969 -0.90765 -0.38898 -0.99744 -0.28918 -1.11714 -0.14959 -0.11969 0.13959 -0.25928 0.31918 0.34908 1.06724Z" clip-rule="evenodd" stroke-width="1"></path>
  <path fill="#0c6fff" fill-rule="evenodd" d="M12.6081 4.56165c0.0881 -0.03061 0.1695 -0.07796 0.2393 -0.13969 0.0635 -0.05663 0.1204 -0.12021 0.1696 -0.18949 0.6284 -0.75796 0.5286 -0.93755 0.4189 -1.07714 -0.1097 -0.13959 -0.2194 -0.22939 -1.117 0.14959 -0.0819 0.03286 -0.159 0.07653 -0.2294 0.12969 -0.0702 0.04817 -0.1339 0.10521 -0.1895 0.16949 -0.0556 0.06429 -0.5885 0.78796 -0.419 0.99745 0.1695 0.20949 1.1072 -0.0299 1.1271 -0.0399Z" clip-rule="evenodd" stroke-width="1"></path>
</svg>