<svg xmlns="http://www.w3.org/2000/svg" fill="none" viewBox="0 0 24 24" id="Smart-Watch-Circle-Graph-Line--Streamline-Freehand">
  <desc>
    Smart Watch Circle Graph Line Streamline Icon: https://streamlinehq.com
  </desc>
  <path fill="#020202" fill-rule="evenodd" d="M15.4242 12.2674c-0.1633 -0.0134 -0.3274 -0.0134 -0.4907 0 -0.1802 -0.8411 0 -1.8024 -0.5907 -2.32305 -0.0979 -0.0946 -0.2231 -0.15612 -0.3578 -0.17587 -0.1347 -0.01976 -0.2722 0.00323 -0.3932 0.06573 -0.2112 0.14874 -0.3864 0.34279 -0.5129 0.56809 -0.1265 0.2252 -0.201 0.4759 -0.218 0.7336 -0.1696 0.7245 -0.387 1.437 -0.6509 2.1328 -0.1502 -1.6422 -0.3404 -4.42578 -1.0013 -5.00653 -0.6608 -0.58076 -1.21156 -0.07009 -1.54199 0.76099 -0.37048 1.00134 -0.58075 2.94384 -1.10143 3.00394 -0.80952 0.0705 -1.62363 0.0705 -2.43315 0 -0.06903 0.0127 -0.1314 0.0492 -0.1763 0.1032 -0.0449 0.054 -0.06948 0.1219 -0.06948 0.1921s0.02458 0.1382 0.06948 0.1922c0.0449 0.0539 0.10727 0.0905 0.1763 0.1032 0.72093 0 2.74356 0.4606 3.22418 -0.2103 0.49885 -0.9811 0.89479 -2.0113 1.18149 -3.07394 0.1102 -0.24031 0 -1.18153 0.5708 4.43574 0.0601 0.7009 0 1.8324 0.6709 2.1828 0.0746 0.037 0.156 0.0586 0.2392 0.0635 0.0832 0.0048 0.1666 -0.0071 0.2451 -0.0351 0.0784 -0.0281 0.1505 -0.0716 0.2118 -0.1281 0.0613 -0.0565 0.1106 -0.1247 0.1449 -0.2006 0.157 -0.4041 0.2842 -0.8191 0.3805 -1.2417 0.2303 -1.0013 0.6509 -2.0026 0.8011 -3.094l0.0701 -0.2203c0.1201 0.771 0.1602 2.0026 0.8511 2.0827 1.0087 -0.1944 2.0287 -0.3248 3.0539 -0.3905 0.0903 0 0.1769 -0.0358 0.2408 -0.0997 0.0638 -0.0638 0.0997 -0.1504 0.0997 -0.2407 0 -0.0903 -0.0359 -0.1769 -0.0997 -0.2407 -0.0639 -0.0639 -0.1505 -0.0997 -0.2408 -0.0997 -0.7869 0.0041 -1.5728 0.0576 -2.353 0.1602Z" clip-rule="evenodd" stroke-width="1"></path>
  <path fill="#0c6fff" fill-rule="evenodd" d="M16.0049 5.34838c-1.1971 -0.6888 -2.554 -1.05132 -3.9352 -1.05132 -1.3811 0 -2.73797 0.36252 -3.93506 1.05132l-0.78101 0.48062c-0.9495 0.64412 -1.74955 1.4847 -2.346 2.46485 -0.59644 0.98014 -0.97537 2.07695 -1.11114 3.21625 -0.13577 1.1393 -0.0252 2.2945 0.32421 3.3874 0.34942 1.0928 0.92953 2.0979 1.70107 2.9471 3.10403 3.3443 8.43093 3.0039 11.52493 0.5607 0.0388 -0.0216 0.0725 -0.0512 0.0989 -0.0869 0.0264 -0.0358 0.0448 -0.0767 0.0539 -0.1202 0.0092 -0.0434 0.009 -0.0883 -0.0007 -0.1317 -0.0096 -0.0433 -0.0285 -0.0841 -0.0552 -0.1195 -0.0268 -0.0354 -0.0608 -0.0647 -0.0999 -0.0859 -0.039 -0.0211 -0.0821 -0.0337 -0.1264 -0.0367 -0.0443 -0.0031 -0.0888 0.0034 -0.1303 0.019 -0.0416 0.0155 -0.0794 0.0399 -0.1108 0.0713 -2.8837 2.1227 -7.76002 2.4031 -10.50358 -0.6809 -0.7875 -0.9266 -1.3289 -2.0366 -1.57424 -3.2277 -0.24533 -1.191 -0.18669 -2.4246 0.1705 -3.587 0.3572 -1.16239 1.00145 -2.21607 1.87328 -3.0638 0.87183 -0.84772 1.94316 -1.46217 3.11514 -1.78664 1.5859 -0.46248 3.2819 -0.37253 4.8101 0.2551 1.5281 0.62762 2.7977 1.75571 3.6008 3.19938 0.7759 1.48996 1.0929 3.17636 0.9112 4.84626 -0.2404 1.512 -1.0013 1.7223 -0.6309 2.0026 0.0507 0.0502 0.119 0.0783 0.1903 0.0783 0.0712 0 0.1396 -0.0281 0.1902 -0.0783 1.7022 -2.2128 1.1315 -7.40958 -2.2228 -9.85275l-1.0013 -0.67087Z" clip-rule="evenodd" stroke-width="1"></path>
  <path fill="#020202" fill-rule="evenodd" d="M7.75414 4.38713c1.15149 -3.00389 1.44187 -3.07398 1.48192 -3.1641 2.00394 -0.10704 4.01314 -0.05011 6.00784 0.17022 0.5378 1.05062 0.964 2.15475 1.2716 3.29427 0 0 0.8111 0.44057 0.6809 -0.09011 -0.255 -1.19255 -0.5895 -2.3667 -1.0013 -3.51456 -0.0806 -0.211316 -0.2153 -0.397765 -0.3905 -0.540705 -0.5708 -0.380493 -6.58856 -1.001298 -7.29949 0 -0.6839 1.399235 -1.2208 2.865645 -1.60208 4.375675 -0.14018 0.68089 0.53069 0.3805 0.85111 -0.53069Z" clip-rule="evenodd" stroke-width="1"></path>
  <path fill="#020202" fill-rule="evenodd" d="M16.4053 20.468c-0.6007 -0.1702 -0.3504 0.8011 -1.3117 2.2029 -0.3304 0.0901 -5.86756 0.4305 -6.05781 0.1502 -0.43521 -0.7532 -0.81665 -1.5361 -1.14148 -2.3431 -0.03338 -0.0646 -0.08906 -0.1149 -0.15673 -0.1416 -0.06766 -0.0267 -0.1427 -0.0279 -0.2112 -0.0034 -0.06849 0.0245 -0.12578 0.0729 -0.16124 0.1364 -0.03546 0.0635 -0.04667 0.1377 -0.03156 0.2089 0.25033 0.8411 0.81105 2.8237 1.33173 3.0039 1.82239 0.7009 6.50849 0.0701 7.00909 -0.2503 0.5007 -0.3205 0.761 -1.6922 1.0013 -2.5834 0.0074 -0.0852 -0.0158 -0.1702 -0.0653 -0.2399 -0.0495 -0.0697 -0.1222 -0.1195 -0.2051 -0.1406Z" clip-rule="evenodd" stroke-width="1"></path>
</svg>