<svg xmlns="http://www.w3.org/2000/svg" fill="none" viewBox="0 0 24 24" id="Discount-Percent-Increase-Arrow--Streamline-Freehand">
  <desc>
    Discount Percent Increase Arrow Streamline Icon: https://streamlinehq.com
  </desc>
  <path fill="#0c6fff" d="M5.62383 11.2966c2.23683 -0.3694 3.41516 -2.55634 1.9073 -4.86307 -0.01337 -0.05497 -0.03989 -0.10587 -0.07727 -0.14834 -0.03738 -0.04246 -0.08451 -0.07522 -0.13734 -0.09545 -0.05283 -0.02023 -0.10978 -0.02734 -0.16596 -0.02071 -0.05619 0.00663 -0.10992 0.0268 -0.15659 0.05878 -0.04667 0.03197 -0.08488 0.0748 -0.11134 0.1248 -0.02647 0.05 -0.04041 0.10568 -0.04061 0.16225 -0.00021 0.05657 0.01333 0.11235 0.03943 0.16254 0.02611 0.05019 0.064 0.09329 0.11044 0.12561 0.99858 1.69759 0.22968 3.22539 -1.46792 3.41519 -0.47165 0.0689 -0.95315 0.013 -1.39645 -0.1622 -0.4433 -0.17524 -0.83291 -0.46363 -1.12996 -0.83642 -0.72897 -0.93867 0 -3.20545 1.99716 -3.57493 0.99859 -0.15977 1.39802 0.65906 1.67762 0.17974 0.02129 -0.03449 0.03535 -0.07294 0.04134 -0.11303 0.00599 -0.04009 0.00379 -0.08097 -0.00648 -0.12018 -0.01027 -0.03921 -0.02839 -0.07593 -0.05326 -0.10793 -0.02487 -0.03201 -0.05598 -0.05863 -0.09144 -0.07826 -0.48161 -0.32242 -1.04812 -0.49455 -1.62769 -0.49455 -0.57957 0 -1.14609 0.17213 -1.62769 0.49455 -1.30815 0.60913 -2.30673 3.03569 -1.30815 4.49363 0.42 0.54058 0.97945 0.95638 1.61816 1.20268 0.6387 0.2464 1.33249 0.3139 2.0067 0.1953Z" stroke-width="1"></path>
  <path fill="#0c6fff" d="M19.7837 17.398c-0.0504 -0.0781 -0.1297 -0.1331 -0.2205 -0.1528 -0.0908 -0.0196 -0.1857 -0.0024 -0.2639 0.0479 -0.0781 0.0503 -0.133 0.1296 -0.1527 0.2205 -0.0196 0.0908 -0.0024 0.1857 0.0479 0.2638 0.1517 0.2601 0.2692 0.5387 0.3495 0.8289 0.739 2.6762 -2.9958 3.4551 -4.3538 1.5877 -0.6092 -0.8588 0 -2.5863 0.8188 -2.9957 0.9986 -0.5792 1.5578 -0.8189 2.5264 -0.2697 0.0677 0.0268 0.1426 0.0289 0.2117 0.006 0.069 -0.023 0.1278 -0.0696 0.1659 -0.1315 0.0382 -0.062 0.0533 -0.1354 0.0427 -0.2074 -0.0107 -0.072 -0.0463 -0.138 -0.1007 -0.1863 -0.4806 -0.3483 -1.0647 -0.5242 -1.6577 -0.4993 -0.7126 0.0327 -1.3992 0.2773 -1.972 0.7025s-1.0057 1.0115 -1.2434 1.6841c-0.9986 2.6163 1.5378 4.3538 3.8445 3.9943 2.3068 -0.3595 3.4551 -2.5863 1.9573 -4.893Z" stroke-width="1"></path>
  <path fill="#020202" d="M23.9677 2.06972c-0.0415 -0.54294 -0.2878 -1.0498 -0.689 -1.417988 -0.7889 -0.6291074 -2.5065 -0.6291074 -4.4237 -0.23966 -2.3168 0.47932 -9.6863 2.935838 -7.9887 4.553538 0.7989 0.7789 2.9358 0.29958 4.7832 0.37947 -1.428 1.31813 -5.85169 5.99152 -7.24971 7.46942C6.62231 14.7118 0.810555 21.3823 0.0716028 22.99c-0.2596318 0.5792 0.1997162 1.1284 1.1683472 0.729 2.24681 -0.9187 8.80755 -7.1199 9.86605 -7.9887l7.2097 -5.99146c-0.1019 0.78816 -0.0304 1.58906 0.2097 2.34666 0.2197 0.5393 0.5493 0.9986 1.1384 0.9986 2.5264 -0.1897 4.6235 -8.30822 4.3039 -11.01438Zm-3.7946 9.39668c-1.2682 1.5378 -0.5193 -2.77607 -0.5592 -3.19547 -0.0011 -0.08353 -0.0194 -0.16595 -0.0537 -0.24212 -0.0342 -0.07618 -0.0838 -0.14448 -0.1456 -0.20068 -0.0619 -0.05619 -0.1346 -0.09907 -0.2137 -0.12597 -0.079 -0.0269 -0.1628 -0.03724 -0.2461 -0.03038 -0.3395 0 -0.5392 0.29957 -0.7589 0.60913 -1.6377 1.50786 -0.1598 0.25963 -7.8489 6.55069 -0.79884 0.6791 -5.84169 5.4623 -8.5079 7.3296 4.23347 -5.668 8.8653 -11.0274 13.8603 -16.03723 2.4965 -2.47649 -0.8488 -1.15836 -3.9044 -1.51785 -0.1476 -0.04447 -0.2886 -0.10827 -0.4194 -0.18973 0.3794 -0.99858 9.4665 -4.5036097 11.3039 -2.99575 0.9786 0.76891 -0.4393 7.58924 -2.5064 10.04576Z" stroke-width="1"></path>
</svg>