<svg xmlns="http://www.w3.org/2000/svg" fill="none" viewBox="0 0 24 24" id="Discount-Percent-Thin--Streamline-Freehand">
  <desc>
    Discount Percent Thin Streamline Icon: https://streamlinehq.com
  </desc>
  <path fill="#020202" fill-rule="evenodd" d="M6.8695 8.7574c2.28204 -0.42038 3.4631 -2.68241 1.92172 -5.07455 -0.06581 -0.10111 -0.16794 -0.17306 -0.2853 -0.20101 -0.11735 -0.02794 -0.24096 -0.00973 -0.34527 0.05087 -0.50045 0.31028 0 0.70063 0.17016 1.4413 0.83074 3.25291 -4.86437 3.07275 -4.06365 0 0.10503 -0.54689 0.39911 -1.03939 0.83075 -1.39125 0.35415 -0.25228 0.75083 -0.43875 1.17105 -0.5505 0.92082 -0.16014 1.36122 0.68061 1.70152 0.12011 0.61055 -0.96086 -3.72334 -2.171949 -5.06454 1.43128C1.93507 7.26606 4.4273 9.20781 6.8695 8.7574Z" clip-rule="evenodd" stroke-width="1"></path>
  <path fill="#020202" fill-rule="evenodd" d="M20.6617 14.5126c-0.0283 -0.0576 -0.0683 -0.1086 -0.1175 -0.1498 -0.0491 -0.0412 -0.1063 -0.0717 -0.168 -0.0895 -0.0616 -0.0178 -0.1262 -0.0225 -0.1898 -0.0139 -0.0636 0.0087 -0.1246 0.0305 -0.1792 0.0641 -0.0547 0.0336 -0.1017 0.0783 -0.138 0.1311 -0.0364 0.0529 -0.0613 0.1127 -0.0732 0.1758 -0.0119 0.063 -0.0104 0.1278 0.0042 0.1903 0.0146 0.0624 0.0421 0.1211 0.0808 0.1723 0.2854 0.4832 0.418 1.0415 0.3803 1.6014 -0.2402 1.9118 -3.0027 2.0719 -4.0036 0.6506 -0.1366 -0.341 -0.1952 -0.7083 -0.1715 -1.0749 0.0238 -0.3666 0.1292 -0.7232 0.3087 -1.0438 0.1795 -0.3205 0.4284 -0.5968 0.7285 -0.8087 0.3001 -0.2118 0.6439 -0.3538 1.006 -0.4156 0.3979 -0.0521 0.8015 0.0364 1.141 0.2502 0.0916 0.0558 0.2016 0.0729 0.3058 0.0475 0.1042 -0.0253 0.194 -0.091 0.2497 -0.1826 0.0558 -0.0916 0.0729 -0.2015 0.0475 -0.3057 -0.0253 -0.1042 -0.091 -0.194 -0.1826 -0.2498 -0.4397 -0.2618 -0.9336 -0.4193 -1.4438 -0.4601 -0.5101 -0.0409 -1.0228 0.0359 -1.4986 0.2245 -0.4757 0.1886 -0.9018 0.4838 -1.2455 0.8631 -0.3436 0.3792 -0.5956 0.8323 -0.7365 1.3243 -1.0009 2.6924 1.5314 4.6141 4.0036 4.1737 2.252 -0.4103 3.4431 -2.6724 1.8917 -5.0745Z" clip-rule="evenodd" stroke-width="1"></path>
  <path fill="#0c6fff" fill-rule="evenodd" d="M23.3142 0.590072C9.82209 8.98761 2.73572 21.8391 0.283523 22.6799c-0.1022 0.0319 -0.1875602 0.103 -0.237302 0.1978 -0.04974177 0.0948 -0.0597907 0.2054 -0.0279361 0.3076 0.0318545 0.1022 0.1030031 0.1876 0.1977941 0.2374 0.094791 0.0497 0.205459 0.0597 0.307659 0.0279 1.231102 -0.3503 2.111892 -1.5914 2.932632 -2.4022C10.0123 14.5226 15.5973 7.03586 23.8146 1.36076c0.0939 -0.06988 0.1575 -0.17286 0.1782 -0.28801 0.0206 -0.115151 -0.0034 -0.233838 -0.0671 -0.331951 -0.0637 -0.098114 -0.1623 -0.168297 -0.2759 -0.196292 -0.1136 -0.027995 -0.2336 -0.011704 -0.3356 0.045565Z" clip-rule="evenodd" stroke-width="1"></path>
</svg>