<svg xmlns="http://www.w3.org/2000/svg" fill="none" viewBox="0 0 24 24" id="Receipt-View-Pricing--Streamline-Freehand">
  <desc>
    Receipt View Pricing Streamline Icon: https://streamlinehq.com
  </desc>
  <path fill="#0c6fff" fill-rule="evenodd" d="m14.7026 1.0215 2.4145 0.23946c0.1297 0 0.4689 0.18956 0.5987 0.11972 0.0016 0.33352 -0.0183 0.6668 -0.0599 0.99772l-0.0998 4.62941c-0.0001 0.09718 0.0371 0.19071 0.1039 0.26127 0.0669 0.07055 0.1582 0.11274 0.2553 0.11786 0.1015 0.00003 0.199 -0.03959 0.2717 -0.11042 0.0727 -0.07083 0.1148 -0.16725 0.1174 -0.26871 0.0898 -1.09749 0.3592 -2.16505 0.5088 -3.25256 0.0581 -0.49022 0.0914 -0.98305 0.0998 -1.47662 0.0069 -0.47984 -0.0433 -0.95878 -0.1496 -1.426738 -0.0663 -0.23933 -0.2146 -0.447718 -0.4191 -0.588654 -0.1125 -0.070678 -0.238 -0.118167 -0.3691 -0.13968h-0.7483l-2.5143 0.189566c-0.0875 0.002361 -0.1709 0.037514 -0.2338 0.098495 -0.0628 0.06098 -0.1004 0.143337 -0.1054 0.230752 -0.0041 0.046675 0.0013 0.093695 0.0157 0.138259 0.0145 0.044563 0.0378 0.08576 0.0685 0.121136 0.0307 0.035376 0.0683 0.064208 0.1104 0.084779 0.0421 0.020575 0.0879 0.032455 0.1346 0.034955Z" clip-rule="evenodd" stroke-width="1"></path>
  <path fill="#020202" fill-rule="evenodd" d="M23.7221 21.2652c-0.2849 -0.6429 -0.6762 -1.2332 -1.1574 -1.746 -0.6296 -0.6588 -1.2958 -1.2817 -1.9954 -1.8658 0.5065 -0.3971 0.9199 -0.9004 1.2112 -1.4743 0.2912 -0.574 0.4534 -1.2048 0.4749 -1.8481 0.0549 -1.3878 -0.3794 -2.7509 -1.2272 -3.8511 -0.6686 -0.91259 -1.6011 -1.59802 -2.6716 -1.96378 -1.0705 -0.36576 -2.2275 -0.39423 -3.3147 -0.08158 -0.9549 0.27578 -1.8262 0.78503 -2.5352 1.48177 -0.7089 0.69679 -1.2332 1.55909 -1.5255 2.50909 -0.3087 0.9339 -0.3708 1.9317 -0.1802 2.8967 0.1905 0.9649 0.6272 1.8642 1.2677 2.6107 0.9525 1.0031 2.2594 1.5939 3.6417 1.6462 1.0283 0.078 2.0594 -0.111 2.9931 -0.5487 0.3792 0.8381 0.6486 1.766 0.9978 2.634 0.1725 0.4383 0.3863 0.8592 0.6385 1.2571 0.3403 0.4629 0.8136 0.8109 1.3569 0.9977 0.4284 0.1331 0.8911 0.1011 1.297 -0.0898 0.196 -0.094 0.3711 -0.2263 0.515 -0.3891 0.144 -0.1628 0.2538 -0.3527 0.3231 -0.5587 0.1593 -0.5344 0.1203 -1.1084 -0.1097 -1.6163ZM22.425 22.652c-0.0843 0.0393 -0.1763 0.0596 -0.2693 0.0596 -0.0931 0 -0.1851 -0.0203 -0.2694 -0.0596 -0.2416 -0.1034 -0.4565 -0.2604 -0.6286 -0.4589 -0.2529 -0.3114 -0.4767 -0.6454 -0.6685 -0.9978 -0.4689 -0.838 -0.858 -1.7559 -1.3469 -2.5541s-2.0752 0.2394 -3.4621 0.0698c-1.1286 -0.08 -2.1797 -0.6038 -2.9233 -1.4566 -0.4847 -0.6252 -0.8038 -1.3627 -0.9277 -2.144 -0.1238 -0.7814 -0.0484 -1.5814 0.2193 -2.3258 0.246 -0.7427 0.6673 -1.4152 1.2282 -1.9605 0.561 -0.5454 1.2451 -0.94748 1.9945 -1.17235 0.8588 -0.25912 1.7751 -0.25912 2.6339 0 0.8702 0.27402 1.6405 0.79795 2.215 1.50655 0.7429 0.8909 1.1522 2.0128 1.1573 3.1727 0.009 0.5603 -0.1136 1.1148 -0.358 1.6191 -0.2443 0.5042 -0.6035 0.9441 -1.0487 1.2843 -0.2694 0.1896 -0.1098 0.7283 0 0.8181 0.5786 0.6286 1.297 1.337 1.8757 2.1052 0.3562 0.4521 0.6329 0.9616 0.8181 1.5066 0.0773 0.2139 0.098 0.4442 0.0599 0.6684 -0.0167 0.0752 -0.0533 0.1445 -0.1059 0.2007 -0.0527 0.0562 -0.1195 0.0972 -0.1935 0.1186Z" clip-rule="evenodd" stroke-width="1"></path>
  <path fill="#020202" fill-rule="evenodd" d="M18.1646 13.1537c-0.2644 -0.064 -0.5364 -0.0909 -0.8082 -0.0798 0.005 -0.0697 0.005 -0.1397 0 -0.2095v-0.7682c0.2433 0.0211 0.482 0.0783 0.7084 0.1696 0.0386 0.0207 0.0809 0.0336 0.1245 0.0378 0.0436 0.0042 0.0875 -0.0004 0.1293 -0.0134 0.0419 -0.013 0.0806 -0.0342 0.1142 -0.0624 0.0335 -0.0282 0.061 -0.0627 0.081 -0.1017 0.0205 -0.0378 0.0332 -0.0794 0.0373 -0.1222 0.0041 -0.0429 -0.0005 -0.0861 -0.0136 -0.1271 -0.013 -0.041 -0.0342 -0.0789 -0.0623 -0.1115 -0.0281 -0.0326 -0.0625 -0.0592 -0.1011 -0.0782 -0.3267 -0.1794 -0.6806 -0.3041 -1.0476 -0.3692v-0.9977c-0.0075 -0.0873 -0.0476 -0.1686 -0.1123 -0.2278 -0.0647 -0.0591 -0.1492 -0.0918 -0.2369 -0.0914 -0.0868 -0.00574 -0.1725 0.0221 -0.2394 0.0779 -0.0668 0.0557 -0.1097 0.1349 -0.1198 0.2214 -0.0698 0.3093 -0.1097 0.6285 -0.1696 0.9378 -0.2755 -0.0069 -0.5507 0.0233 -0.8181 0.0898 -0.2 0.0357 -0.3907 0.1113 -0.5609 0.2221 -0.1702 0.1109 -0.3164 0.2548 -0.43 0.4232 -0.1135 0.1684 -0.192 0.358 -0.2309 0.5573 -0.0389 0.1994 -0.0373 0.4045 0.0046 0.6033 0.0228 0.2419 0.1136 0.4724 0.2619 0.6648 0.1483 0.1925 0.3481 0.339 0.5762 0.4227 0.2721 0.0965 0.5593 0.1438 0.848 0.1397v0.6485c0 0.2195 0.0599 0.449 0.0798 0.6784 -0.5236 0.0423 -1.0455 -0.0988 -1.4766 -0.399 -0.0749 -0.0498 -0.1651 -0.0712 -0.2545 -0.0606 -0.0893 0.0107 -0.1719 0.0527 -0.2331 0.1187 -0.0612 0.066 -0.0969 0.1515 -0.1008 0.2414 -0.0039 0.0899 0.0243 0.1782 0.0796 0.2492 0.5787 0.5032 1.3183 0.7828 2.0852 0.7882 0 0.3093 0.0599 0.6186 0.0998 0.9279 0.0076 0.097 0.0523 0.1874 0.1247 0.2524 0.0725 0.065 0.1671 0.0996 0.2644 0.0968 0.0494 -0.0013 0.098 -0.0124 0.1429 -0.0328 0.045 -0.0204 0.0854 -0.0496 0.1189 -0.0859 0.0335 -0.0362 0.0594 -0.0789 0.0761 -0.1253 0.0167 -0.0465 0.024 -0.0958 0.0213 -0.1451 0 -0.3093 0 -0.6186 0.0598 -0.9279 0.1787 -0.0137 0.3557 -0.0437 0.5288 -0.0898 0.2496 -0.052 0.4858 -0.1548 0.6939 -0.3021 0.2082 -0.1472 0.3837 -0.3358 0.5157 -0.5539 0.132 -0.2182 0.2176 -0.4611 0.2515 -0.7138 0.034 -0.2527 0.0155 -0.5097 -0.0543 -0.7549 -0.0523 -0.2405 -0.1691 -0.4623 -0.3378 -0.6416 -0.1687 -0.1793 -0.3831 -0.3093 -0.62 -0.3761Zm-2.644 -0.2394c-0.1197 -0.4889 0.2694 -0.7084 0.7184 -0.8082 0 0.2395 -0.1097 0.469 -0.1297 0.7084 -0.02 0.2395 0 0.1996 0 0.2993 -0.1228 0.0103 -0.2463 0.0103 -0.3692 0 -0.0516 -0.0093 -0.0996 -0.0329 -0.1384 -0.0682s-0.0669 -0.0808 -0.0811 -0.1313Zm1.7461 2.624v-1.2172c0.1261 -0.0102 0.2529 -0.0102 0.3791 0 0.0532 -0.0036 0.1061 0.01 0.151 0.0388 0.0448 0.0287 0.0793 0.071 0.0984 0.1208 0.2395 0.5587 -0.1397 0.878 -0.6285 1.0576Z" clip-rule="evenodd" stroke-width="1"></path>
  <path fill="#020202" fill-rule="evenodd" d="M13.1663 19.3097c-0.8481 0.3492 -1.6862 0.6784 -2.5442 0.9977 -0.5622 0.1825 -1.13537 0.3291 -1.7161 0.439 -0.36828 -0.029 -0.73882 0.0013 -1.09749 0.0898 -0.15538 -0.2319 -0.29858 -0.4717 -0.42902 -0.7184 -0.4789 -0.9179 -0.84806 -1.9954 -1.27708 -2.8036 -0.59863 -1.1274 -1.16733 -2.2249 -1.746 -3.3224 -0.57868 -1.0975 -1.16733 -2.1949 -1.7061 -3.3124C2.01177 9.31253 1.35328 7.90575 0.78458 6.47902c1.22597 -0.88825 2.49818 -1.71086 3.81128 -2.46436 1.39862 -0.80596 2.87217 -1.47423 4.39993 -1.99544 0.78665 -0.36792 1.61871 -0.62962 2.47431 -0.77822 0.776 0.59505 1.4014 1.36397 1.8259 2.24487 0.8181 1.5265 1.3369 3.17274 1.9655 4.51965 0.019 0.04717 0.0471 0.09014 0.0827 0.12644 0.0356 0.03631 0.078 0.06525 0.1248 0.08517 0.0467 0.01992 0.097 0.03043 0.1478 0.03093 0.0509 0.00049 0.1013 -0.00903 0.1485 -0.02803 0.0472 -0.01899 0.0901 -0.0471 0.1264 -0.0827 0.0363 -0.0356 0.0653 -0.07801 0.0852 -0.12479 0.0199 -0.04679 0.0304 -0.09704 0.0309 -0.14789 0.0005 -0.05085 -0.009 -0.10129 -0.028 -0.14846 -0.5668 -1.861 -1.2602 -3.68109 -2.0752 -5.44754 -0.4355 -0.80016 -1.0336 -1.500285 -1.756 -2.055296 -0.3189 -0.1867204 -0.6937 -0.2539155 -1.0576 -0.1895661C10.2349 0.217399 9.397 0.484446 8.58673 0.821962 7.31728 1.31127 6.09223 1.90878 4.92511 2.60788 -1.40042 6.38922 -0.682064 5.60103 2.22129 12.2558c0.40907 0.9977 0.84806 1.9156 1.31699 2.8535 0.46893 0.9378 0.96778 1.8757 1.46664 2.7736 0.49886 0.898 0.85804 1.8458 1.36688 2.7437 0.23939 0.4219 0.52373 0.8167 0.84805 1.1774 0.0735 0.0736 0.16318 0.1291 0.26191 0.1621 0.09874 0.0329 0.20379 0.0423 0.30679 0.0274 0.44819 -0.0761 0.89133 -0.1794 1.32697 -0.3093 0.61295 -0.1567 1.21598 -0.3499 1.80588 -0.5787 0.868 -0.3292 1.7061 -0.7183 2.5442 -1.1174 0.0459 -0.0194 0.0874 -0.0479 0.1221 -0.0838 0.0346 -0.0359 0.0615 -0.0785 0.0793 -0.1251 0.0177 -0.0466 0.0258 -0.0964 0.0237 -0.1462 -0.002 -0.0498 -0.0141 -0.0987 -0.0356 -0.1438 -0.0412 -0.0884 -0.1157 -0.157 -0.2073 -0.1907 -0.0917 -0.0336 -0.1929 -0.0296 -0.2815 0.0112Z" clip-rule="evenodd" stroke-width="1"></path>
  <path fill="#0c6fff" fill-rule="evenodd" d="m6.39177 6.75838 1.11745 -0.55872c1.11744 -0.59863 2.2249 -1.20724 3.39228 -1.77594 0.0806 -0.0448 0.1422 -0.11748 0.1731 -0.20441 0.0309 -0.08694 0.029 -0.18216 -0.0052 -0.26783 -0.0343 -0.08566 -0.0986 -0.15589 -0.181 -0.19753 -0.0823 -0.04163 -0.177 -0.05181 -0.2663 -0.02863 -0.91791 0.29931 -1.81585 0.5687 -2.69384 0.9179 -0.38911 0.14966 -0.75827 0.31927 -1.12742 0.49886 -0.3719 0.17948 -0.73183 0.38277 -1.07754 0.6086 -0.79911 0.53589 -1.55022 1.14012 -2.24486 1.80587 -0.06354 0.05432 -0.1048 0.13018 -0.11584 0.21303 -0.01105 0.08286 0.00888 0.16688 0.05598 0.23595 0.05323 0.06835 0.13126 0.11297 0.21718 0.12418 0.08591 0.0112 0.17278 -0.01191 0.24177 -0.06432 0.45894 -0.28934 0.90792 -0.53877 1.37684 -0.77822 0.46893 -0.23945 0.74829 -0.33922 1.1374 -0.52879Z" clip-rule="evenodd" stroke-width="1"></path>
  <path fill="#0c6fff" fill-rule="evenodd" d="M13.1265 6.71847c-0.0212 -0.0442 -0.0511 -0.08373 -0.0878 -0.11627 -0.0367 -0.03253 -0.0796 -0.05742 -0.126 -0.07321 -0.0465 -0.01579 -0.0956 -0.02217 -0.1445 -0.01876 -0.049 0.00342 -0.0967 0.01655 -0.1405 0.03863 -0.9279 0.37913 -1.8558 0.73831 -2.77369 1.14738 -0.38911 0.16961 -0.77821 0.35917 -1.15735 0.54874 -0.37913 0.18957 -0.75826 0.40907 -1.11744 0.63854 -0.85804 0.52879 -1.65621 1.11748 -2.47434 1.71608 -0.04248 0.0192 -0.0804 0.0472 -0.11125 0.0821 -0.03086 0.0349 -0.05395 0.076 -0.06774 0.1205 -0.0138 0.0445 -0.01799 0.0915 -0.01229 0.1377 0.0057 0.0463 0.02116 0.0908 0.04534 0.1306 0.02419 0.0399 0.05656 0.0741 0.09497 0.1005 0.03841 0.0264 0.08199 0.0444 0.12785 0.0527 0.04586 0.0082 0.09296 0.0067 0.13819 -0.0045 0.04522 -0.0113 0.08754 -0.032 0.12415 -0.0609 0.89795 -0.429 1.80587 -0.7982 2.70382 -1.2172l1.1374 -0.57868c0.37913 -0.19954 0.74828 -0.40906 1.10748 -0.61858 0.868 -0.49886 1.7061 -0.99772 2.5641 -1.52651 0.0442 -0.02126 0.0838 -0.05113 0.1163 -0.08784 0.0325 -0.03672 0.0574 -0.07955 0.0732 -0.126 0.0158 -0.04644 0.0222 -0.09557 0.0188 -0.14451 -0.0035 -0.04893 -0.0166 -0.0967 -0.0387 -0.14051Z" clip-rule="evenodd" stroke-width="1"></path>
  <path fill="#0c6fff" fill-rule="evenodd" d="M8.7364 12.3755c-0.19685 0.0736 -0.3871 0.1637 -0.5687 0.2694 -0.18162 0.0979 -0.35221 0.2149 -0.50884 0.3492 -0.36045 0.3035 -0.69424 0.6373 -0.99771 0.9977 -0.03954 0.0241 -0.07357 0.0562 -0.09987 0.0942 -0.0263 0.0381 -0.04428 0.0813 -0.05277 0.1268 -0.00848 0.0455 -0.00728 0.0922 0.00352 0.1372 0.0108 0.045 0.03097 0.0872 0.05918 0.1239 0.02821 0.0367 0.06384 0.067 0.10455 0.089 0.04072 0.022 0.08562 0.0351 0.13176 0.0386 0.04614 0.0035 0.09249 -0.0028 0.13604 -0.0185 0.04354 -0.0157 0.0833 -0.0403 0.11667 -0.0724 0.46893 -0.2394 0.99772 -0.3891 1.42674 -0.6285 0.26938 -0.1397 0.51881 -0.3093 0.76824 -0.4689 0.24943 -0.1597 0.74829 -0.5388 1.14739 -0.7583 0.0926 -0.0331 0.1683 -0.1016 0.2104 -0.1905s0.0471 -0.1908 0.0141 -0.2834c-0.0331 -0.0926 -0.1016 -0.1683 -0.1905 -0.2104s-0.1908 -0.0472 -0.2834 -0.0141c-0.48493 0.0927 -0.95949 0.2331 -1.4168 0.419Z" clip-rule="evenodd" stroke-width="1"></path>
</svg>