<svg xmlns="http://www.w3.org/2000/svg" fill="none" viewBox="0 0 24 24" id="Tag-Sale-Price--Streamline-Freehand">
  <desc>
    Tag Sale Price Streamline Icon: https://streamlinehq.com
  </desc>
  <path fill="#020202" fill-rule="evenodd" d="M22.6766 15.1182c-0.8115 -1.2324 -5.0897 -5.4204 -6.1617 -6.55257 -1.6732 -1.77339 -2.8255 -3.74717 -5.0096 -4.23811 -1.3727 -0.32061 -8.31594 0.54104 -7.21383 1.68322 0.03265 0.03333 0.07162 0.0598 0.11463 0.07787 0.04301 0.01808 0.08919 0.02739 0.13585 0.02739 0.04665 0 0.09283 -0.00931 0.13584 -0.02739 0.04301 -0.01807 0.08198 -0.04454 0.11463 -0.07787 0.48092 -0.4709 3.89746 -0.93178 6.53248 -0.83159 1.2082 0.42441 2.241 1.23862 2.9356 2.31443 1.4528 1.82349 6.6227 7.19372 7.304 8.11552 0.1208 0.1805 0.2247 0.3717 0.3106 0.5711 -1.3685 2.0859 -3.0323 3.9624 -4.9394 5.5707 -0.652 0.5376 -1.4048 0.9396 -2.2143 1.1822 -1.5206 -1.1457 -2.9694 -2.3838 -4.3383 -3.7071 -1.62796 -1.6277 -3.17287 -3.3365 -4.62884 -5.1198 -0.7063 -1.0243 -1.07737 -2.2425 -1.06203 -3.4866 0 -0.0824 -0.03272 -0.1614 -0.09097 -0.2197 -0.05825 -0.0582 -0.13725 -0.0909 -0.21962 -0.0909 -0.08238 0 -0.16138 0.0327 -0.21962 0.0909 -0.05825 0.0583 -0.09098 0.1373 -0.09098 0.2197 0.13025 2.8254 0.7314 3.5267 2.55489 5.7109 2.01862 2.6099 4.34677 4.9649 6.93327 7.0134 0.2016 0.2791 0.4887 0.4849 0.8177 0.5861 0.3291 0.1012 0.6822 0.0925 1.0058 -0.025 2.615 -0.8016 5.5706 -4.5988 7.0735 -6.5125 0.5611 -0.7314 0.9218 -1.1822 0.2204 -2.2743Z" clip-rule="evenodd" stroke-width="1"></path>
  <path fill="#0c6fff" fill-rule="evenodd" d="M8.71987 9.75791c0.38073 -1.06203 0.49094 -1.64315 -0.37071 -2.31443 -0.23229 -0.19497 -0.50233 -0.33991 -0.7932 -0.42575 -0.29088 -0.08584 -0.59633 -0.11073 -0.89727 -0.07311 -0.30093 0.03762 -0.59087 0.13693 -0.85166 0.29173 -0.2608 0.15479 -0.48684 0.36174 -0.664 0.6079 -0.86982 -0.52542 -1.63704 -1.20437 -2.26433 -2.00384C1.71648 4.53792 0.594329 2.36376 1.89682 1.2316c0.55105 -0.490943 1.52291 -0.23044 2.47473 0.33063 2.1942 1.25239 2.11405 2.56491 2.7152 2.20422 0.84161 -0.51098 -1.76337 -2.76529 -2.86548 -3.316349C1.6263 -0.86241 -0.127051 0.900964 0.163504 3.09516c0.36069 2.6651 2.474736 4.46855 4.819216 5.63077 0.46089 2.94567 3.36644 2.10407 3.73715 1.03198Zm-0.40076 -0.87167c-0.03583 0.30302 -0.17771 0.5836 -0.40053 0.79207 -0.22282 0.20846 -0.51221 0.33139 -0.81694 0.34699 -0.30474 0.0156 -0.60517 -0.07715 -0.8481 -0.26177 -0.24294 -0.18463 -0.41273 -0.44926 -0.4793 -0.74704 0.44084 0.16031 0.84161 0.16031 0.88168 -0.10019 0.04008 -0.2605 -0.52099 -0.54104 -0.91174 -0.75144 1.12215 -1.34257 2.81539 -0.10019 2.57493 0.72138Z" clip-rule="evenodd" stroke-width="1"></path>
  <path fill="#020202" fill-rule="evenodd" d="M23.0875 6.63193C19.5307 5.099 20.4925 5.5198 15.523 4.16722c-0.0801 0 -0.5911 -0.25048 -0.8717 -0.06012 -0.0452 0.04314 -0.0778 0.09792 -0.094 0.15833 -0.0162 0.06041 -0.0155 0.12411 0.0021 0.18414 0.0176 0.06002 0.0514 0.11404 0.0976 0.15613 0.0463 0.0421 0.1033 0.07065 0.1647 0.08251 0.6832 0.19955 1.3526 0.44387 2.0038 0.7314 1.863 0.86607 3.7808 1.60909 5.741 2.22426 0.8316 0.37071 -0.5511 3.31633 -0.5411 4.00763 0 0.0461 0.0091 0.0917 0.0267 0.1342 0.0177 0.0426 0.0435 0.0812 0.0761 0.1138 0.0325 0.0326 0.0712 0.0584 0.1137 0.076 0.0426 0.0176 0.0882 0.0267 0.1342 0.0267 0.0461 0 0.0917 -0.0091 0.1342 -0.0267 0.0426 -0.0176 0.0812 -0.0434 0.1138 -0.076 0.0325 -0.0326 0.0584 -0.0712 0.076 -0.1138 0.0176 -0.0425 0.0267 -0.0881 0.0267 -0.1342 0.03 -0.8316 2.2944 -3.95754 0.3607 -5.01957Z" clip-rule="evenodd" stroke-width="1"></path>
  <path fill="#020202" fill-rule="evenodd" d="M9.84196 12.2427c-0.08242 -0.0458 -0.15271 -0.1106 -0.20499 -0.189 -0.05229 -0.0784 -0.08506 -0.1682 -0.09559 -0.2619 0.00882 -0.0531 0.00597 -0.1075 -0.00834 -0.1594 -0.01432 -0.0518 -0.03976 -0.1 -0.07457 -0.141 -0.0348 -0.0411 -0.07812 -0.0741 -0.12695 -0.0967 -0.04884 -0.0226 -0.10201 -0.0344 -0.15584 -0.0344 -0.05382 0 -0.10699 0.0118 -0.15583 0.0344 -0.04883 0.0226 -0.09216 0.0556 -0.12696 0.0967 -0.0348 0.041 -0.06024 0.0892 -0.07456 0.141 -0.01432 0.0519 -0.01716 0.1063 -0.00835 0.1594 -0.03047 0.2858 0.02953 0.5739 0.17154 0.8238 0.14201 0.2498 0.35886 0.4488 0.61998 0.5689 0.15126 0.0687 0.3146 0.1068 0.4807 0.1123 0.166 0.0054 0.3315 -0.022 0.4869 -0.0806 0.1555 -0.0586 0.2978 -0.1474 0.4189 -0.2611 0.1211 -0.1138 0.2185 -0.2504 0.2867 -0.4018 0.1295 -0.23 0.2016 -0.4877 0.2104 -0.7515 0.005 -0.2286 -0.0324 -0.4562 -0.1102 -0.6713 -0.2505 -0.6913 -0.6112 -1.15218 0.4709 -0.2905 0.0567 0.0531 0.1304 0.0846 0.208 0.0889 0.0776 0.0042 0.1543 -0.019 0.2165 -0.0657 0.0622 -0.0466 0.1059 -0.1137 0.1236 -0.1894 0.0176 -0.0757 0.008 -0.1552 -0.0271 -0.2246 -0.6312 -0.79149 -1.3827 -1.49283 -2.1341 -0.67126 -0.1107 0.13973 -0.191 0.30096 -0.23583 0.47346 -0.04485 0.1726 -0.05325 0.3525 -0.02466 0.5285 0 0.3306 0.21039 0.6312 0.26049 1.0019 0.029 0.0981 0.029 0.2024 0 0.3006 -0.1102 0.1402 -0.24045 0.2504 -0.39074 0.1603Z" clip-rule="evenodd" stroke-width="1"></path>
  <path fill="#020202" fill-rule="evenodd" d="M13.8396 11.5413c-0.2324 0.0003 -0.4629 0.041 -0.6813 0.1203 -0.3036 0.1125 -0.5826 0.2826 -0.8216 0.5009 -0.2849 0.2808 -0.5526 0.5786 -0.8015 0.8917l-0.4709 0.541 -0.5311 0.6413c-0.0438 0.0646 -0.0633 0.1427 -0.055 0.2204 0.0082 0.0776 0.0437 0.1498 0.1001 0.2039 0.0564 0.054 0.1301 0.0863 0.2081 0.0911 0.0779 0.0049 0.155 -0.018 0.2177 -0.0646l0.6112 -0.531 0.1403 -0.1102v0.1002c0.0282 0.0672 0.069 0.1285 0.1202 0.1803 0.0465 0.0487 0.1006 0.0893 0.1603 0.1203 0.1603 0.1002 0.3006 0.1302 0.4609 0.2204 -0.2304 0.2304 -0.4709 0.4809 -0.6913 0.6813 -0.0771 0.0624 -0.1262 0.1529 -0.1365 0.2516 -0.0104 0.0986 0.0189 0.1974 0.0814 0.2744 0.0624 0.0771 0.1529 0.1262 0.2516 0.1365 0.0986 0.0103 0.1973 -0.0189 0.2744 -0.0814 0.4508 -0.3206 1.0019 -0.6913 1.4628 -1.1021 0.3409 -0.2953 0.6438 -0.6318 0.9017 -1.0019 0.1983 -0.364 0.2788 -0.7806 0.2304 -1.1923 -0.0123 -0.1764 -0.0593 -0.3487 -0.1384 -0.5069 -0.0791 -0.1581 -0.1887 -0.2991 -0.3224 -0.4149 -0.172 -0.1063 -0.3691 -0.165 -0.5711 -0.1703Zm-0.1403 1.7333c-0.1644 0.3138 -0.3662 0.6065 -0.6012 0.8717 -0.0317 -0.1622 -0.0822 -0.3202 -0.1502 -0.4709 -0.0305 -0.0691 -0.071 -0.1332 -0.1203 -0.1904 -0.046 -0.0546 -0.1 -0.1019 -0.1603 -0.1402 0.1202 -0.1002 0.2405 -0.2004 0.3707 -0.2906 0.1303 -0.0902 1.1823 -0.7614 0.6613 0.2204Z" clip-rule="evenodd" stroke-width="1"></path>
  <path fill="#020202" fill-rule="evenodd" d="m15.3523 14.487 -1.4127 1.0019c-0.2822 0.237 -0.5286 0.5137 -0.7314 0.8215 -0.0843 0.1643 -0.1284 0.3464 -0.1284 0.5311 0 0.1846 0.0441 0.3667 0.1284 0.531l0.2305 0.4007 0.3306 0.3908c0.0643 0.0694 0.1527 0.1117 0.2471 0.118 0.0945 0.0064 0.1878 -0.0236 0.2608 -0.0838 0.073 -0.0603 0.1202 -0.1461 0.132 -0.24 0.0117 -0.0939 -0.0129 -0.1888 -0.0688 -0.2651l-0.1302 -0.3206 -0.1002 -0.3407v-0.1002c0 -0.03 0.1402 -0.1302 0.2104 -0.2004l0.4508 -0.4208 1.0019 -1.3726c0.0399 -0.027 0.0733 -0.0623 0.0981 -0.1036 0.0247 -0.0412 0.0402 -0.0873 0.0453 -0.1352 0.005 -0.0478 -0.0004 -0.0962 -0.0159 -0.1417 -0.0156 -0.0455 -0.0408 -0.0871 -0.0741 -0.1219 -0.0333 -0.0347 -0.0737 -0.0618 -0.1185 -0.0793 -0.0448 -0.0175 -0.0929 -0.025 -0.1409 -0.022 -0.048 0.003 -0.0948 0.0164 -0.1371 0.0394 -0.0423 0.0229 -0.079 0.0548 -0.1077 0.0934l0.03 0.0201Z" clip-rule="evenodd" stroke-width="1"></path>
  <path fill="#020202" fill-rule="evenodd" d="m17.1059 17.3124 0.1503 0.2204c0.062 0.0653 0.129 0.1256 0.2004 0.1803 0.8116 0.6413 0.9418 0.5711 1.0921 0.4609 0.1503 -0.1102 0.3206 -0.1503 -0.1703 -1.1923 -0.0438 -0.0924 -0.0976 -0.1797 -0.1603 -0.2605 -0.0669 -0.0802 -0.1445 -0.151 -0.2305 -0.2104 -0.8115 -0.541 -1.0019 -0.4308 -2.1641 0.501 -0.1303 0.1002 -0.2204 0.2304 -0.3407 0.3406 -0.1302 0.1303 -0.2705 0.2505 -0.3907 0.3908 -0.1229 0.1668 -0.2302 0.3446 -0.3206 0.531 -0.0886 0.1911 -0.1298 0.4007 -0.1202 0.6112 0.0237 0.2479 0.1098 0.4857 0.2504 0.6913 0.1303 0.1803 0.7915 1.0019 1.1623 0.5811 0.3707 -0.4208 -0.1103 -0.521 -0.3106 -0.9518 -0.0312 -0.1046 -0.0312 -0.216 0 -0.3206l0.2003 -0.2205 0.1002 0.0802c0.8116 0.511 0.9418 0.4208 1.0721 0.3006 0.1302 -0.1203 0.2404 -0.2605 -0.2104 -1.1021 -0.0384 -0.0778 -0.0892 -0.1489 -0.1503 -0.2104l0.3807 -0.4609c-0.008 0.0178 -0.0223 0.032 -0.0401 0.0401Z" clip-rule="evenodd" stroke-width="1"></path>
</svg>