<svg xmlns="http://www.w3.org/2000/svg" viewBox="0 0 14 14">
  <path d="M12.25,0H1.75A1.76,1.76,0,0,0,0,1.75v10.5A1.76,1.76,0,0,0,1.75,14h10.5A1.76,1.76,0,0,0,14,12.25V1.75A1.76,1.76,0,0,0,12.25,0ZM7.15,8.13a.27.27,0,0,1-.3,0L4.66,6.54a.26.26,0,0,1,0-.39,3.54,3.54,0,0,1,4.72,0,.24.24,0,0,1,.08.2.23.23,0,0,1-.1.19Zm-3.68.65a3.46,3.46,0,0,1,.12-.92.25.25,0,0,1,.16-.17.24.24,0,0,1,.23,0L6.22,9.33a.28.28,0,0,1,.1.21v2.39a.26.26,0,0,1-.1.2.24.24,0,0,1-.22,0A3.53,3.53,0,0,1,3.47,8.78ZM8,12.17a.24.24,0,0,1-.22,0,.26.26,0,0,1-.1-.2V9.54a.28.28,0,0,1,.1-.21L10,7.72a.24.24,0,0,1,.23,0,.25.25,0,0,1,.16.17,3.46,3.46,0,0,1,.12.92A3.53,3.53,0,0,1,8,12.17Zm4.5-8.92a.25.25,0,0,1-.25.25H1.75a.25.25,0,0,1-.25-.25V1.75a.25.25,0,0,1,.25-.25h10.5a.25.25,0,0,1,.25.25Z" style="fill: #000001"/>
</svg>
