<svg xmlns="http://www.w3.org/2000/svg" fill="none" viewBox="0 0 14 14" id="Class-Lesson--Streamline-Core">
  <desc>
    Class Lesson Streamline Icon: https://streamlinehq.com
  </desc>
  <g id="class-lesson--class-lesson-education-teacher">
    <path id="Union" fill="#fddc5c" fill-rule="evenodd" d="M5.75 2.375c0 0.9665 -0.7835 1.75 -1.75 1.75s-1.75 -0.7835 -1.75 -1.75S3.0335 0.625 4 0.625s1.75 0.7835 1.75 1.75Zm-3.5 7H0.625v-1.75c0 -1.933 1.567 -3.5 3.5 -3.5h4.75c0.62132 0 1.125 0.50368 1.125 1.125s-0.50368 1.125 -1.125 1.125H6.25l-0.875 7h-2.5l-0.625 -4Z" clip-rule="evenodd" stroke-width="1"></path>
    <path id="Union_2" fill="#0c098c" fill-rule="evenodd" d="M4 1.25c-0.62132 0 -1.125 0.50368 -1.125 1.125S3.37868 3.5 4 3.5s1.125 -0.50368 1.125 -1.125S4.62132 1.25 4 1.25ZM1.625 2.375C1.625 1.06332 2.68832 0 4 0s2.375 1.06332 2.375 2.375c0 0.40703 -0.10239 0.79015 -0.28283 1.125H8.875c0.9665 0 1.75 0.7835 1.75 1.75S9.8415 7 8.875 7H6.80174l-0.80657 6.4525C5.95608 13.7653 5.6902 14 5.375 14h-2.5c-0.30793 0 -0.56997 -0.2243 -0.61751 -0.5285L1.71507 10H0.625C0.279822 10 0 9.72018 0 9.375v-1.75c0 -1.59535 0.905659 -2.97918 2.23089 -3.66539C1.85414 3.53928 1.625 2.9839 1.625 2.375ZM6.875 1c0 -0.345178 0.27982 -0.625 0.625 -0.625H12c0.8975 0 1.625 0.72754 1.625 1.625v6c0 0.89746 -0.7275 1.625 -1.625 1.625H7.73334l0.17188 -1.375H8.875c1.6569 0 3 -1.34315 3 -3s-1.3431 -3 -3 -3h-2V1ZM1.25 7.625c0 -1.58782 1.28718 -2.875 2.875 -2.875h4.75c0.27614 0 0.5 0.22386 0.5 0.5s-0.22386 0.5 -0.5 0.5H6.25c-0.3152 0 -0.58108 0.23471 -0.62017 0.54748L4.82326 12.75H3.40993l-0.54242 -3.47149C2.81997 8.97428 2.55793 8.75 2.25 8.75h-1V7.625Z" clip-rule="evenodd" stroke-width="1"></path>
  </g>
</svg>