<svg xmlns="http://www.w3.org/2000/svg" fill="none" viewBox="0 0 14 14" id="Dictionary-Language-Book--Streamline-Core">
  <desc>
    Dictionary Language Book Streamline Icon: https://streamlinehq.com
  </desc>
  <g id="dictionary-language-book">
    <path id="Vector" fill="#7af1ff" d="M1.93934 10.8143c-0.2813 0.2813 -0.43934 0.6229 -0.43934 1.0207v-9.75c0.01043 -0.39085 0.17305 -0.76218 0.45324 -1.0349C2.23342 0.777394 2.60901 0.624861 3 0.625h8.5c0.2652 0 0.5196 0.105357 0.7071 0.292893 0.1875 0.187537 0.2929 0.441887 0.2929 0.707107v7.75c0 0.26522 -0.1054 0.51957 -0.2929 0.7071 -0.1875 0.1875 -0.4419 0.2929 -0.7071 0.2929H3c-0.39782 0 -0.77936 0.158 -1.06066 0.4393Z" stroke-width="1"></path>
    <path id="Union" fill="#0c098c" fill-rule="evenodd" d="M3 0h8.5c0.431 0 0.8443 0.171205 1.149 0.475952 0.3048 0.304746 0.476 0.718068 0.476 1.149048v7.75c0 0.43098 -0.1712 0.8443 -0.476 1.149 -0.1515 0.1516 -0.3299 0.2701 -0.524 0.351v1.875h0.375c0.3452 0 0.625 0.2798 0.625 0.625S12.8452 14 12.5 14H3c-0.56358 0 -1.10409 -0.2239 -1.5026 -0.6224 -0.39852 -0.3985 -0.6224 -0.939 -0.6224 -1.5026l0.000157 -0.0258L0.875 11.835v-9.75l0.000222 -0.01667c0.014771 -0.5537 0.245158 -1.079758 0.642088 -1.466098C1.91418 0.215943 2.44618 -0.000138879 3 0Zm7.875 12.75V11H3c-0.23206 0 -0.45462 0.0922 -0.61872 0.2563 -0.16409 0.1641 -0.25628 0.3866 -0.25628 0.6187 0 0.2321 0.09219 0.4546 0.25628 0.6187 0.1641 0.1641 0.38666 0.2563 0.61872 0.2563h7.875Zm0.625 -3c0.0995 0 0.1948 -0.03951 0.2652 -0.10984 0.0703 -0.07032 0.1098 -0.1657 0.1098 -0.26516v-7.75c0 -0.09946 -0.0395 -0.19484 -0.1098 -0.26516 -0.0704 -0.07033 -0.1657 -0.10984 -0.2652 -0.10984H3l-0.00022 0c-0.22808 -0.00008 -0.44718 0.0889 -0.61062 0.24798 -0.16171 0.1574 -0.25629 0.37112 -0.26416 0.59647v7.84406C2.3974 9.81543 2.69533 9.75 3 9.75h8.5ZM5.65256 5.703l0.16006 0.48017c0.10915 0.32747 0.4631 0.50444 0.79057 0.39529 0.32746 -0.10916 0.50444 -0.46311 0.39528 -0.79057L5.93245 2.58983c-0.13972 -0.41916 -0.53198 -0.70189 -0.97382 -0.70189 -0.44183 0 -0.8341 0.28273 -0.97382 0.70189L2.91879 5.78789c-0.10915 0.32746 0.06782 0.68141 0.39529 0.79057 0.32746 0.10915 0.68141 -0.06782 0.79057 -0.39529L4.2647 5.703h1.38786Zm-0.41667 -1.25 -0.27726 -0.83178 -0.27726 0.83178h0.55452Zm5.68621 0.26187c-0.1074 -0.20757 -0.3215 -0.33792 -0.5552 -0.33792H8.05185c-0.34518 0 -0.625 0.27982 -0.625 0.625s0.27982 0.625 0.625 0.625h1.10644L7.39714 8.11328c-0.13507 0.19068 -0.15248 0.44079 -0.04515 0.64835 0.10734 0.20756 0.32149 0.33791 0.55516 0.33791h2.60445c0.3452 0 0.625 -0.27982 0.625 -0.625s-0.2798 -0.625 -0.625 -0.625H9.11577l1.76113 -2.48633c0.1351 -0.19068 0.1525 -0.44078 0.0452 -0.64834Z" clip-rule="evenodd" stroke-width="1"></path>
  </g>
</svg>