<svg xmlns="http://www.w3.org/2000/svg" fill="none" viewBox="0 0 14 14" id="Office-Building-1--Streamline-Core">
  <desc>
    Office Building 1 Streamline Icon: https://streamlinehq.com
  </desc>
  <g id="office-building-1--office-building-work">
    <path id="Subtract" fill="#79ee8d" fill-rule="evenodd" d="M1.62109 1.65306c0 -0.56778 0.4547 -1.02806 1.01558 -1.02806h4.79048c0.56091 0 1.01558 0.46028 1.01558 1.02806v3.16757c-0.98937 0.60807 -1.64914 1.70043 -1.64914 2.94688 0 0.88409 0.33192 1.69065 0.87794 2.30189 -0.15948 0.0919 -0.31449 0.1926 -0.46427 0.3019 -0.88359 0.6446 -1.53967 1.5531 -1.87366 2.5945 -0.04306 0.1343 -0.06928 0.2717 -0.07914 0.4094H1.62109V1.65306Z" clip-rule="evenodd" stroke-width="1"></path>
    <path id="Union" fill="#0c098c" fill-rule="evenodd" d="M2.63667 1.25c-0.20853 0 -0.39058 0.17324 -0.39058 0.40306v0.98781l1.83513 0c0.34518 0 0.625 0.27982 0.625 0.625s-0.27982 0.625 -0.625 0.625l-1.83513 0v1.3125l3.22266 0c0.34518 0 0.625 0.27982 0.625 0.625s-0.27982 0.625 -0.625 0.625l-3.22266 0v6.29683h2.47266c0.34518 0 0.625 0.2799 0.625 0.625 0 0.3452 -0.27982 0.625 -0.625 0.625H0.625c-0.345178 0 -0.625 -0.2798 -0.625 -0.625 0 -0.3451 0.279822 -0.625 0.625 -0.625h0.371094V1.65306C0.996094 0.747325 1.72343 0 2.63667 0h4.79048c0.91327 0 1.64058 0.747333 1.64058 1.65306V4.25c0 0.34518 -0.27982 0.625 -0.625 0.625s-0.625 -0.27982 -0.625 -0.625V1.65306c0 -0.22983 -0.18204 -0.40306 -0.39058 -0.40306H2.63667Zm5.30725 10.1312c0.66967 -0.4885 1.47716 -0.7517 2.30608 -0.7517 0.8289 0 1.6364 0.2632 2.3061 0.7517 0.6696 0.4885 1.1669 1.177 1.42 1.9664 0.0488 0.152 0.022 0.3183 -0.0722 0.4473 -0.0941 0.129 -0.2442 0.2053 -0.4039 0.2053H7c-0.15971 0 -0.30981 -0.0763 -0.40394 -0.2053 -0.09413 -0.129 -0.12095 -0.2953 -0.07217 -0.4473 0.25312 -0.7894 0.75036 -1.4779 1.42003 -1.9664Zm0.09966 -3.61369c0 -1.2186 0.98787 -2.20647 2.20652 -2.20647 1.2186 0 2.2064 0.98787 2.2064 2.20647s-0.9878 2.20648 -2.2064 2.20648c-1.21865 0 -2.20652 -0.98788 -2.20652 -2.20648Z" clip-rule="evenodd" stroke-width="1"></path>
  </g>
</svg>