<svg xmlns="http://www.w3.org/2000/svg" fill="none" viewBox="0 0 14 14" id="Search-Dollar--Streamline-Core">
  <desc>
    Search Dollar Streamline Icon: https://streamlinehq.com
  </desc>
  <g id="search-dollar--search-pay-product-currency-query-magnifying-cash-business-money-glass">
    <path id="Vector" fill="#ff7972" d="M6.5 12.375c3.24467 0 5.875 -2.63033 5.875 -5.875S9.74467 0.625 6.5 0.625 0.625 3.25533 0.625 6.5s2.63033 5.875 5.875 5.875Z" stroke-width="1"></path>
    <path id="Union" fill="#0c098c" fill-rule="evenodd" d="M6.5 1.25c-2.89949 0 -5.25 2.35051 -5.25 5.25 0 2.8995 2.35051 5.25 5.25 5.25 2.8995 0 5.25 -2.3505 5.25 -5.25 0 -2.89949 -2.3505 -5.25 -5.25 -5.25ZM0 6.5C0 2.91015 2.91015 0 6.5 0 10.0899 0 13 2.91015 13 6.5c0 1.47951 -0.4943 2.84356 -1.3268 3.936l2.0705 2.0705c0.3417 0.3417 0.3417 0.8957 0 1.2375 -0.3417 0.3417 -0.8957 0.3417 -1.2374 0l-2.0705 -2.0706C9.34333 12.5058 7.97938 13 6.5 13 2.91015 13 0 10.0899 0 6.5Zm5.83936 -2.2959c0 -0.20711 0.16789 -0.375 0.375 -0.375h0.57127c0.20711 0 0.375 0.16789 0.375 0.375v0.26001H5.83936V4.2041Zm-1.25 0.26001V4.2041c0 -0.89746 0.72753 -1.625 1.625 -1.625h0.57127c0.89747 0 1.625 0.72754 1.625 1.625v0.26001h0.20474c0.76462 0 1.38446 0.61985 1.38446 1.38446v2.51654c0 0.76462 -0.61984 1.38446 -1.38446 1.38446H4.38465c-0.76462 0 -1.38447 -0.61984 -1.38447 -1.38446V5.84857c0 -0.76461 0.61984 -1.38446 1.38447 -1.38446h0.20471Z" clip-rule="evenodd" stroke-width="1"></path>
  </g>
</svg>