<svg xmlns="http://www.w3.org/2000/svg" fill="none" viewBox="0 0 14 14" id="Cloud-Download--Streamline-Flex-Gradient">
  <desc>
    Cloud Download Streamline Icon: https://streamlinehq.com
  </desc>
  <g id="cloud-download--cloud-down-internet-network-download-server-arrow 1">
    <path id="Union" fill="url(#paint0_linear_9379_20)" fill-rule="evenodd" d="M4.69652.694647C5.40486.225134 6.29498 0 7.31414 0c1.24264 0 2.29354.335564 3.05226 1.03521.6612.60961 1.0503 1.44934 1.1807 2.45131.6686.08839 1.2456.34459 1.6777.78941.5307.54619.7752 1.30702.7752 2.18473 0 .98707-.3194 1.76824-.849 2.36593-.5201.58683-1.2154.96658-1.9276 1.21611-.3639.1275-.7416.2241-1.1167.2972-.29077-.3346-.68161-.55916-1.10656-.64662l-.00001-1.30353c-.00001-1.10457-.89545-1.99999-2.00002-1.99998-1.10457.00001-1.99999.89545-1.99998 2.00002l.00001 1.3034c-.38067.07827-.734.26656-1.01257.54541-.30126-.07-.60255-.1549-.89661-.25778-.78896-.276-1.56154-.69332-2.140241-1.3333C.361725 7.99617 0 7.14245 0 6.05785c0-1.11328.314737-2.05731.979945-2.72252.594465-.59447 1.411615-.90904 2.373225-.96923.41759.09996.81241.27264 1.1612.49077.57108.35715.96963.80472 1.14395 1.17681.14644.31257.51854.44726.83112.30082.31257-.14644.44725-.51854.30082-.83112-.30053-.64147-.89204-1.25538-1.61309-1.70632-.34341-.21476-.72722-.39959-1.1394-.53499.19264-.21428.4124-.404134.65875-.567423ZM6.99965 7.63977c.41421 0 .75.33578.75.74999l.00003 3.10644c.08401-.0976.1721-.203.26721-.3191.26251-.3204.73506-.3674 1.05546-.1048.32041.2625.36734.735.10483 1.0554-.60492.7384-.99081 1.1248-1.70505 1.7046-.27545.2236-.6699.2236-.94535 0-.71424-.5798-1.10013-.9662-1.70505-1.7046-.26251-.3204-.21558-.7929.10483-1.0554.3204-.2626.79295-.2156 1.05546.1048.09528.1163.18352.2218.26766.3196l-.00003-3.10692c0-.41422.33578-.75001.75-.75001Z" clip-rule="evenodd"></path>
  </g>
  <defs>
    <linearGradient id="paint0_linear_9379_20" x1="13.953" x2="-2.626" y1="14.003" y2="4.677" gradientUnits="userSpaceOnUse">
      <stop stop-color="#ff51e3"></stop>
      <stop offset="1" stop-color="#1b4dff"></stop>
    </linearGradient>
  </defs>
</svg>