<svg xmlns="http://www.w3.org/2000/svg" fill="none" viewBox="0 0 14 14" id="Desktop-Code--Streamline-Flex-Gradient">
  <desc>
    Desktop Code Streamline Icon: https://streamlinehq.com
  </desc>
  <g id="desktop-code--desktop-device-display-computer-code-terminal-html-css-programming-system 1">
    <path id="Union" fill="url(#paint0_linear_9379_32)" fill-rule="evenodd" d="M11.0118.444391c-2.87202-.259188-5.15139-.259188-8.02339 0C1.69271.561324.648622 1.57609.465359 2.86584c-.287146 2.02086-.287145 3.43664 0 5.4575C.648622 9.61309 1.69271 10.6279 2.98841 10.7448c.65542.0591 1.27998.1048 1.88776.1369l-.2217 1.2489c-.46092.032-.92293.0732-1.38669.1239-.41176.0449-.70912.4152-.66416.8269.04496.4118.4152.7092.82697.6642 2.39949-.262 4.74713-.262 7.14661 0 .4118.045.782-.2524.827-.6642.0449-.4117-.2524-.782-.6642-.8269-.4658-.0509-.92996-.0923-1.39296-.1243l-.22157-1.2485c.60732-.0322 1.23143-.0778 1.88633-.1369 1.2957-.1169 2.3398-1.13171 2.523-2.42146.2872-2.02086.2872-3.43664 0-5.4575-.1832-1.28975-1.2273-2.304516-2.523-2.421449ZM3.12324 1.93832c2.78229-.25109 4.97142-.25109 7.75376 0 .5859.05288 1.0851.52136 1.1727 1.13854.2673 1.88088.2673 3.15458 0 5.03546-.0876.61719-.5868 1.08566-1.1727 1.13854-2.78234.2511-4.97147.2511-7.75377 0-.58595-.05288-1.08509-.52135-1.17279-1.13854-.26725-1.88088-.26725-3.15458 0-5.03546.0877-.61718.58684-1.08566 1.1728-1.13854Zm4.79445 1.56821c.22266-.26377.61698-.29709.88074-.07444l.00182.00154.00381.00324.01339.01142.04804.04149c.04076.03547.09831.08615.1671.14839.1369.12385.32146.29633.50784.48754.18372.18848.3824.40856.53937.62661.0784.10898.1559.23042.2158.35734.0563.11909.1199.28981.1199.48502 0 .19522-.0636.36593-.1199.48502-.0599.12692-.1374.24836-.2158.35734-.15697.21805-.35565.43813-.53937.62661-.18638.19122-.37094.36369-.50784.48755-.06879.06223-.12634.11291-.1671.14838l-.04804.04149-.01339.01143-.00381.00324-.00116.00098c-.26377.22265-.65874.18988-.8814-.07388-.22263-.26374-.18934-.65801.07435-.88068l1.14715-1.20748c-.01773-.03026-.04197-.06768-.07401-.1122-.10467-.14544-.25479-.31491-.41987-.48427-.16242-.16663-.32665-.3203-.45135-.43312-.06201-.0561-.11346-.10139-.14899-.13231l-.04053-.03501-.00994-.00848-.00217-.00184c-.26369-.22267-.29727-.61719-.07464-.88092Zm-2.71588-.07444c.26377-.22265.65809-.18933.88075.07444.22263.26373.18904.65825-.07465.88092l-.00216.00184-.00995.00848-.04052.03501c-.03554.03092-.08698.07621-.149.13231-.12469.11282-.28893.26649-.45134.43312-.16509.16936-.3152.33883-.41988.48427-.03204.04452-.05627.08194-.074.1122L6.0082 6.80216c.26369.22267.29699.61694.07436.88068-.22266.26376-.61764.29653-.8814.07388L5.2 7.75574l-.00382-.00324-.01339-.01143-.04803-.04149c-.04077-.03547-.09832-.08615-.16711-.14838-.1369-.12386-.32146-.29633-.50784-.48755-.18371-.18848-.38239-.40856-.53932-.62661-.07843-.10898-.15591-.23042-.21587-.35734-.05626-.11909-.11984-.2898-.11984-.48502 0-.19521.06358-.36593.11984-.48502.05996-.12692.13744-.24836.21587-.35734.15693-.21805.35561-.43813.53932-.62661.18638-.19121.37094-.36369.50784-.48754.06879-.06224.12634-.11292.16711-.14839l.04803-.04149.01339-.01142L5.2 3.43363l.00181-.00154Z" clip-rule="evenodd"></path>
  </g>
  <defs>
    <linearGradient id="paint0_linear_9379_32" x1=".769" x2="16.155" y1="1.341" y2="10.013" gradientUnits="userSpaceOnUse">
      <stop stop-color="#00d078"></stop>
      <stop offset="1" stop-color="#007df0"></stop>
    </linearGradient>
  </defs>
</svg>