<svg xmlns="http://www.w3.org/2000/svg" fill="none" viewBox="0 0 14 14" id="Threat-Phone--Streamline-Flex-Gradient">
  <desc>
    Threat Phone Streamline Icon: https://streamlinehq.com
  </desc>
  <g id="threat-phone--bug-phone-file-threat-danger-mobile 1">
    <path id="Union" fill="url(#paint0_linear_9380_56)" fill-rule="evenodd" d="M11.5429.47932c-.5605-.639093-1.54969-.639093-2.11019 0-1.30192 1.48447-1.95804 2.92569-2.414 4.76251-.2144.86369.39558 1.70349 1.27609 1.77951 1.46789.12672 2.9181.12672 4.386 0 .8805-.07602 1.4904-.91582 1.276-1.77951-.4559-1.83682-1.112-3.27804-2.4139-4.76251Zm-.5546 1.98894c0-.27614-.2239-.5-.5-.5-.2762 0-.50002.22386-.50002.5v1.2c0 .27614.22382.5.50002.5.2761 0 .5-.22386.5-.5v-1.2Zm.1211 2.92358c0 .39781-.2238.62158-.6216.62158-.3978 0-.62159-.22377-.62159-.62158s.22379-.62158.62159-.62158.6216.22377.6216.62158ZM6.53011 1.53662c-1.16895-.06319-2.0915-.04491-3.42262.05724-.72227.05543-1.37349.70611-1.44617 1.62183-.21509 2.71021-.21509 4.85841 0 7.56861.07268.9157.7239 1.5664 1.44618 1.6218 1.63074.1252 2.65427.1252 4.285 0 .72228-.0554 1.3735-.7061 1.44618-1.6218.04662-.5874.08306-1.14759.10942-1.69207.02004-.41373.37167-.73289.7854-.71286.4137.02003.7329.37167.7129.7854-.0272.56159-.0647 1.13723-.1124 1.73823-.1213 1.5279-1.25042 2.8778-2.82672 2.9987-1.70714.1311-2.80742.1311-4.51456 0-1.5763-.1209-2.705439-1.4708-2.826698-2.9987-.2213625-2.78922-.2213628-5.01679 0-7.80598C.28728 1.56914 1.41642.219231 2.99272.0982591 4.37623-.00791846 5.36529-.02854 6.61108.0388029c.41361.0223583.73078.3757801.70842.7893901-.02235.413607-.37578.730777-.78939.708427ZM3.59863 10.7251c0-.4142.33579-.75.75-.75h1.80333c.41421 0 .75.3358.75.75s-.33579.75-.75.75H4.34863c-.41421 0-.75-.3358-.75-.75Z" clip-rule="evenodd"></path>
  </g>
  <defs>
    <linearGradient id="paint0_linear_9380_56" x1=".538" x2="16.494" y1="1.131" y2="10.125" gradientUnits="userSpaceOnUse">
      <stop stop-color="#00d078"></stop>
      <stop offset="1" stop-color="#007df0"></stop>
    </linearGradient>
  </defs>
</svg>