<svg xmlns="http://www.w3.org/2000/svg" viewBox="0 0 14 14">
  <g>
    <path d="M13.5,10.5c0,1.66-2.91,3-6.5,3S.5,12.16.5,10.5" style="fill: none;stroke: #000001;stroke-linecap: round;stroke-linejoin: round"/>
    <path d="M9.5,5.5C9.5,6.88,7.5,9,7,9S4.5,6.88,4.5,5.5c0-2,2.5-5,2.5-5S9.5,3.5,9.5,5.5Z" style="fill: none;stroke: #000001;stroke-linecap: round;stroke-linejoin: round"/>
    <path d="M4.88,3.89A15.7,15.7,0,0,0,1,3s.35,3.89,1.77,5.3c1,1,3.89,1.06,4.24.71" style="fill: none;stroke: #000001;stroke-linecap: round;stroke-linejoin: round"/>
    <path d="M9.12,3.89A15.7,15.7,0,0,1,13,3s-.35,3.89-1.77,5.3c-1,1-3.89,1.06-4.24.71" style="fill: none;stroke: #000001;stroke-linecap: round;stroke-linejoin: round"/>
  </g>
</svg>
