<svg xmlns="http://www.w3.org/2000/svg" fill="none" viewBox="0 0 14 14" id="Alien--Streamline-Core-Neon">
  <desc>
    Alien Streamline Icon: https://streamlinehq.com
  </desc>
  <g id="alien--science-extraterristerial-life-form-space-universe-head-astronomy">
    <path id="Vector" stroke="#c71dff" stroke-linecap="round" stroke-linejoin="round" d="M13 6c0 3.59 -2.5 7 -6 7S1 9.59 1 6s2.41 -5 6 -5 6 1.41 6 5Z" stroke-width="1"></path>
    <path id="Vector_2" stroke="#000cfe" stroke-linecap="round" stroke-linejoin="round" d="M3.0683 5.0683c-0.08807 0.40905 -0.091 0.83185 -0.00862 1.24208 0.08239 0.41024 0.24832 0.79912 0.48748 1.14246 0.34334 0.23916 0.73223 0.40509 1.14246 0.48748 0.41023 0.08238 0.83303 0.07945 1.24208 -0.00862 0.08807 -0.40905 0.091 -0.83185 0.00862 -1.24208 -0.08239 -0.41023 -0.24832 -0.79912 -0.48748 -1.14246 -0.34334 -0.23916 -0.73222 -0.40509 -1.14246 -0.48748 -0.41023 -0.08238 -0.83303 -0.07945 -1.24208 0.00862Z" stroke-width="1"></path>
    <path id="Vector_3" stroke="#000cfe" stroke-linecap="round" stroke-linejoin="round" d="M10.9318 5.0683c0.0881 0.40905 0.091 0.83185 0.0086 1.24208 -0.0823 0.41023 -0.2483 0.79912 -0.4874 1.14246 -0.3434 0.23916 -0.73226 0.40509 -1.1425 0.48748 -0.41023 0.08238 -0.83303 0.07945 -1.24208 -0.00862 -0.08806 -0.40905 -0.091 -0.83185 -0.00861 -1.24208 0.08238 -0.41023 0.24831 -0.79912 0.48748 -1.14246 0.34333 -0.23916 0.73222 -0.40509 1.14245 -0.48748 0.41026 -0.08238 0.83306 -0.07945 1.24206 0.00862Z" stroke-width="1"></path>
  </g>
</svg>