<svg xmlns="http://www.w3.org/2000/svg" fill="none" viewBox="0 0 14 14" id="Bone--Streamline-Core-Neon">
  <desc>
    Bone Streamline Icon: https://streamlinehq.com
  </desc>
  <g id="bone--nature-pet-dog-bone-food-snack">
    <path id="Vector" stroke="#c71dff" stroke-linecap="round" stroke-linejoin="round" d="M11.5 2.5c0 -0.53043 -0.2107 -1.03914 -0.5858 -1.41421C10.5391 0.710714 10.0304 0.5 9.5 0.5c-0.53043 0 -1.03914 0.210714 -1.41421 0.58579C7.71071 1.46086 7.5 1.96957 7.5 2.5c0.00223 0.52958 0.21441 1.03665 0.59 1.41L3.91 8.09c-0.37335 -0.37559 -0.88042 -0.58777 -1.41 -0.59 -0.53043 0 -1.03914 0.21071 -1.41421 0.58579C0.710714 8.46086 0.5 8.96957 0.5 9.5c0 0.5304 0.210714 1.0391 0.58579 1.4142 0.37507 0.3751 0.88378 0.5858 1.41421 0.5858 0 0.5304 0.21071 1.0391 0.58579 1.4142 0.37507 0.3751 0.88378 0.5858 1.41421 0.5858s1.03914 -0.2107 1.41421 -0.5858C6.28929 12.5391 6.5 12.0304 6.5 11.5c-0.00223 -0.5296 -0.21441 -1.0366 -0.59 -1.41l4.18 -4.18c0.3734 0.37559 0.8804 0.58777 1.41 0.59 0.5304 0 1.0391 -0.21071 1.4142 -0.58579 0.3751 -0.37507 0.5858 -0.88378 0.5858 -1.41421s-0.2107 -1.03914 -0.5858 -1.41421C12.5391 2.71071 12.0304 2.5 11.5 2.5Z" stroke-width="1"></path>
  </g>
</svg>