<svg xmlns="http://www.w3.org/2000/svg" fill="none" viewBox="0 0 14 14" id="Industry-Innovation-And-Infrastructure--Streamline-Core-Neon">
  <desc>
    Industry Innovation And Infrastructure Streamline Icon: https://streamlinehq.com
  </desc>
  <g id="industry-innovation-and-infrastructure">
    <path id="Vector 4556" stroke="#c71dff" stroke-linecap="round" stroke-linejoin="round" d="M1 11.5V8l3 -1.5L7 8v3.5L4 13l-3 -1.5Z" stroke-width="1"></path>
    <path id="Vector 4557" stroke="#c71dff" stroke-linecap="round" stroke-linejoin="round" d="M7 11.5V8l3 -1.5L13 8v3.5L10 13l-3 -1.5Z" stroke-width="1"></path>
    <path id="Vector 4561" stroke="#000cfe" stroke-linecap="round" stroke-linejoin="round" d="M10 9.5 7 8l3 -1.5L13 8l-3 1.5Z" stroke-width="1"></path>
    <path id="Vector 4563" stroke="#000cfe" stroke-linecap="round" stroke-linejoin="round" d="M4 9.5 1 8l3 -1.5L7 8 4 9.5Z" stroke-width="1"></path>
    <path id="Vector 4558" stroke="#c71dff" stroke-linecap="round" stroke-linejoin="round" d="M4 6.5V3l3 -1.5L10 3v3.5L7 8 4 6.5Z" stroke-width="1"></path>
    <path id="Vector 4559" stroke="#000cfe" stroke-linecap="round" stroke-linejoin="round" d="M7 4.5 4 3l3 -1.5L10 3 7 4.5Z" stroke-width="1"></path>
  </g>
</svg>