<svg xmlns="http://www.w3.org/2000/svg" fill="none" viewBox="0 0 14 14" id="Log--Streamline-Core-Neon">
  <desc>
    Log Streamline Icon: https://streamlinehq.com
  </desc>
  <g id="log--nature-tree-plant-circle-round-log">
    <path id="Vector" stroke="#000cfe" stroke-linecap="round" stroke-linejoin="round" d="M13.4381 7H8.5" stroke-width="1"></path>
    <path id="Ellipse 937" stroke="#c71dff" stroke-linecap="round" stroke-linejoin="round" d="M11 12.5c1.3807 0 2.5 -2.0147 2.5 -4.5 0 -2.48528 -1.1193 -4.5 -2.5 -4.5H3c1.38071 0 2.5 2.01472 2.5 4.5 0 2.4853 -1.11929 4.5 -2.5 4.5h8Z" stroke-width="1"></path>
    <path id="Vector 2249" stroke="#c71dff" stroke-linecap="round" stroke-linejoin="round" d="m7.5 3.5 -2 -2" stroke-width="1"></path>
    <path id="Ellipse 936" stroke="#000cfe" stroke-linecap="round" stroke-linejoin="round" d="M5.5 8c0 2.4853 -1.11929 4.5 -2.5 4.5S0.5 10.4853 0.5 8C0.5 5.51472 1.61929 3.5 3 3.5S5.5 5.51472 5.5 8Z" stroke-width="1"></path>
    <path id="Vector_2" stroke="#000cfe" stroke-linecap="round" stroke-linejoin="round" d="M5.35774 9.5H7.5" stroke-width="1"></path>
  </g>
</svg>