<svg xmlns="http://www.w3.org/2000/svg" fill="none" viewBox="0 0 14 14" id="No-Poverty--Streamline-Core-Neon">
  <desc>
    No Poverty Streamline Icon: https://streamlinehq.com
  </desc>
  <g id="no-poverty">
    <path id="Ellipse 1134" stroke="#c71dff" stroke-linecap="round" stroke-linejoin="round" d="M2.5 2.5a1.5 1.5 0 1 0 3 0 1.5 1.5 0 1 0 -3 0" stroke-width="1"></path>
    <path id="Ellipse 1139" stroke="#c71dff" stroke-linecap="round" stroke-linejoin="round" d="M1 8.5c0 -1.65685 1.34315 -3 3 -3" stroke-width="1"></path>
    <path id="Ellipse 1140" stroke="#c71dff" stroke-linecap="round" stroke-linejoin="round" d="M13 8.5c0 -1.65685 -1.3431 -3 -3 -3" stroke-width="1"></path>
    <path id="Ellipse 1138" stroke="#c71dff" stroke-linecap="round" stroke-linejoin="round" d="M8.5 2.5a1.5 1.5 0 1 0 3 0 1.5 1.5 0 1 0 -3 0" stroke-width="1"></path>
    <path id="Ellipse 1141" stroke="#000cfe" stroke-linecap="round" stroke-linejoin="round" d="M10 13c0 -1.6569 -1.34315 -3 -3 -3s-3 1.3431 -3 3" stroke-width="1"></path>
    <path id="Ellipse 1142" stroke="#000cfe" stroke-linecap="round" stroke-linejoin="round" d="M5.5 7a1.5 1.5 0 1 0 3 0 1.5 1.5 0 1 0 -3 0" stroke-width="1"></path>
  </g>
</svg>