<svg xmlns="http://www.w3.org/2000/svg" fill="none" viewBox="0 0 14 14" id="Rainbow--Streamline-Core-Neon">
  <desc>
    Rainbow Streamline Icon: https://streamlinehq.com
  </desc>
  <g id="rainbow--nature-arch-rain-colorful-rainbow-curve-half-circle">
    <path id="Vector" stroke="#c71dff" stroke-linecap="round" stroke-linejoin="round" d="M0.5 12V8.5c0 -1.72391 0.68482 -3.37721 1.90381 -4.59619C3.62279 2.68482 5.27609 2 7 2s3.3772 0.68482 4.5962 1.90381C12.8152 5.12279 13.5 6.77609 13.5 8.5V12" stroke-width="1"></path>
    <path id="Vector_2" stroke="#000cfe" stroke-linecap="round" stroke-linejoin="round" d="M11 12V8.5c0 -1.06087 -0.4214 -2.07828 -1.17157 -2.82843C9.07828 4.92143 8.06087 4.5 7 4.5s-2.07828 0.42143 -2.82843 1.17157C3.42143 6.42172 3 7.43913 3 8.5V12" stroke-width="1"></path>
    <path id="Vector_3" stroke="#c71dff" stroke-linecap="round" stroke-linejoin="round" d="M5.5 12V8.5c0 -0.39782 0.15804 -0.77936 0.43934 -1.06066C6.22064 7.15804 6.60218 7 7 7c0.39782 0 0.77936 0.15804 1.06066 0.43934 0.2813 0.2813 0.43934 0.66284 0.43934 1.06066V12" stroke-width="1"></path>
  </g>
</svg>