<svg xmlns="http://www.w3.org/2000/svg" fill="none" viewBox="0 0 14 14" id="Rose--Streamline-Core-Neon">
  <desc>
    Rose Streamline Icon: https://streamlinehq.com
  </desc>
  <g id="rose--nature-flower-rose-plant-tree">
    <path id="Vector 3053" stroke="#000cfe" stroke-linecap="round" stroke-linejoin="round" d="M7 11.5v2" stroke-width="1"></path>
    <path id="Vector" stroke="#000cfe" stroke-linecap="round" stroke-linejoin="round" d="M7 0.5c-1.42811 0 -2.62315 0.99788 -2.9259 2.33442 1.05374 0.2799 2.03915 0.72754 2.9259 1.3126 0.88675 -0.58506 1.87217 -1.0327 2.92591 -1.3126C9.62316 1.49788 8.42812 0.5 7 0.5Z" stroke-width="1"></path>
    <path id="Vector 3054" stroke="#c71dff" stroke-linecap="round" stroke-linejoin="round" d="M1.5 6V2.5c4.54075 0 8.37464 3.02643 9.5946 7.1722C10.0876 10.7942 8.62625 11.5 7 11.5c-3.03757 0 -5.5 -2.46243 -5.5 -5.5Z" stroke-width="1"></path>
    <path id="Vector 3055" stroke="#c71dff" stroke-linecap="round" stroke-linejoin="round" d="M12.5 6V2.5c-2.0318 0 -3.9221 0.60596 -5.5 1.64702 1.94842 1.28553 3.4205 3.23449 4.0946 5.52518C11.9684 8.69848 12.5 7.41132 12.5 6Z" stroke-width="1"></path>
  </g>
</svg>