<svg xmlns="http://www.w3.org/2000/svg" fill="none" viewBox="0 0 24 24"><path stroke="#000" d="M15.5002 21.5L15.5002 4.5M15.5002 21.5L15.1667 21.5L14.8091 21.2799C12.9178 20.1162 10.7408 19.5 8.52016 19.5H8.5M15.5002 21.5H15.6766C17.8514 21.5 19.9854 20.909 21.8503 19.7901L22.5002 19.4V2.5L22.2504 2.50001L21.8928 2.72007C20.0016 3.88383 17.8245 4.5 15.6039 4.5H15.25L14.7665 4.20994C12.9016 3.09104 10.7677 2.5 8.59284 2.5H8.50018M8.50018 2.5H8.32366C6.14883 2.5 4.01488 3.09104 2.14995 4.20994L1.5 4.6V21.5L1.74982 21.5L2.10744 21.2799C3.99867 20.1162 6.17572 19.5 8.39633 19.5M8.50018 2.5L8.5 19.5M8.5 19.5H8.39633M8.39633 19.5H8.25"></path></svg>