<svg xmlns="http://www.w3.org/2000/svg" fill="none" viewBox="0 0 24 24" id="Coroflot-Logo--Streamline-Logos">
  <desc>
    Coroflot Logo Streamline Icon: https://streamlinehq.com
  </desc>
  <path stroke="#000000" stroke-linejoin="round" d="m12 13.768 2.116 2.116 1.768 -1.768L13.768 12l2.116 -2.116 -1.768 -1.768L12 10.232 9.884 8.116 8.116 9.884 10.232 12l-2.116 2.116 1.768 1.768L12 13.768Z" stroke-width="1"></path>
  <path stroke="#000000" stroke-linejoin="round" d="M12 4a8 8 0 1 0 6.433 12.756l2.01 1.488A10.487 10.487 0 0 1 12 22.5C6.201 22.5 1.5 17.799 1.5 12S6.201 1.5 12 1.5c3.461 0 6.532 1.676 8.442 4.256l-2.009 1.488A7.987 7.987 0 0 0 12 4Z" clip-rule="evenodd" stroke-width="1"></path>
</svg>