<svg xmlns="http://www.w3.org/2000/svg" fill="none" viewBox="0 0 14 14"><g id="apple--os-system-apple"><path id="Union" fill="#37d7ff" fill-rule="evenodd" d="M9.949 3.79a3.213 3.213 0 0 0-2.555.475.432.432 0 0 1-.411-.004 3.381 3.381 0 0 0-4.811 1.325 5.283 5.283 0 0 0-.557 3.436 7.26 7.26 0 0 0 1.96 4.217 2.448 2.448 0 0 0 3.16.178.73.73 0 0 1 .861-.004 2.42 2.42 0 0 0 3.14-.1 6.634 6.634 0 0 0 1.714-3.026.5.5 0 0 0-.416-.619 1.812 1.812 0 0 1-1.564-1.827v-.008A1.822 1.822 0 0 1 11.743 6.1a.5.5 0 0 0 .289-.716 3.213 3.213 0 0 0-2.083-1.593Z" clip-rule="evenodd"></path><path id="Vector (Stroke)" fill="#3e3e3e" fill-rule="evenodd" d="M10.147.277a.75.75 0 0 1 0 1.06l-1.5 1.5a.75.75 0 0 1-1.06-1.06l1.5-1.5a.75.75 0 0 1 1.06 0Z" clip-rule="evenodd"></path></g></svg>