<svg xmlns="http://www.w3.org/2000/svg" fill="none" viewBox="0 0 14 14"><g id="gmail"><path id="Union" fill="#37d7ff" fill-rule="evenodd" d="M1.008 12.054h2.765V7.686l3.27 2.117 3.27-2.117v4.368h2.765a.92.92 0 0 0 .922-.918V3.754c0-1.453-1.614-2.33-2.84-1.545l-.847.543-3.27 2.1-3.27-2.1-.847-.543C1.7 1.423.086 2.301.086 3.754v7.382a.92.92 0 0 0 .922.918Z" clip-rule="evenodd"></path><path id="Intersect" fill="#3e3e3e" fill-rule="evenodd" d="M3.773 7.686.086 5.3V3.754c0-1.453 1.614-2.33 2.84-1.545l.847.544v4.933ZM14 5.3V3.754c0-1.453-1.614-2.33-2.84-1.545l-.847.544v4.933L14 5.3Z" clip-rule="evenodd"></path></g></svg>