<svg xmlns="http://www.w3.org/2000/svg" fill="none" viewBox="0 0 14 14"><g id="hand-held-tablet-writing--tablet-kindle-device-electronics-ipad-writing-digital-paper-notepad"><path id="Union" fill="#37d7ff" fill-rule="evenodd" d="M1.867.094C.923.094.203.879.203 1.79v10.418c0 .912.72 1.697 1.664 1.697h8.225c.944 0 1.664-.785 1.664-1.697V1.844a1.75 1.75 0 0 0-1.75-1.75H1.867Z" clip-rule="evenodd"></path><path id="Union_2" fill="#3e3e3e" fill-rule="evenodd" d="M.953 10.25h-.75v1.96c0 .911.72 1.696 1.664 1.696h8.225c.944 0 1.664-.785 1.664-1.697V10.25H.953Z" clip-rule="evenodd"></path><path id="Union_3" fill="#3e3e3e" fill-rule="evenodd" d="M2.828 3.007a.625.625 0 0 0 0 1.25h2.495a.625.625 0 1 0 0-1.25H2.828Zm0 2.868a.625.625 0 0 0 0 1.25h1.248a.625.625 0 1 0 0-1.25H2.828Z" clip-rule="evenodd"></path><path id="Vector" fill="#3e3e3e" d="M9.402 7.394a.5.5 0 0 1-.266.14l-2.148.386a.5.5 0 0 1-.582-.573l.359-2.182a.5.5 0 0 1 .14-.273L11.021.796a1 1 0 0 1 1.42 0l1.06 1.06a1 1 0 0 1 0 1.42L9.402 7.394Z"></path></g></svg>