<svg xmlns="http://www.w3.org/2000/svg" fill="none" viewBox="0 0 14 14"><g id="keyboard-virtual--remote-device-electronics-qwerty-keyboard-virtual-interface"><path id="Union" fill="#37d7ff" fill-rule="evenodd" d="M1.5.203c-.79 0-1.5.6-1.5 1.422v5.531c0 .823.71 1.422 1.5 1.422h11c.79 0 1.5-.599 1.5-1.422V1.625c0-.823-.71-1.422-1.5-1.422h-11Z" clip-rule="evenodd"></path><path id="Union_2" fill="#3e3e3e" fill-rule="evenodd" d="M2 3.047a.5.5 0 0 1 .5-.5h1a.5.5 0 1 1 0 1h-1a.5.5 0 0 1-.5-.5Zm.5 2a.5.5 0 1 0 0 1h1a.5.5 0 0 0 0-1h-1Zm8 0a.5.5 0 0 0 0 1h1a.5.5 0 0 0 0-1h-1Zm-5 0a.5.5 0 1 0 0 1h3a.5.5 0 0 0 0-1h-3Zm-.333-2.5a.5.5 0 1 0 0 1h1a.5.5 0 0 0 0-1h-1Zm2.166.5a.5.5 0 0 1 .5-.5h1a.5.5 0 1 1 0 1h-1a.5.5 0 0 1-.5-.5Zm3.167-.5a.5.5 0 0 0 0 1h1a.5.5 0 0 0 0-1h-1Z" clip-rule="evenodd"></path><path id="Union_3" fill="#3e3e3e" fill-rule="evenodd" d="M5 10.797a.5.5 0 0 0-.354.853l2 2a.5.5 0 0 0 .708 0l2-2A.5.5 0 0 0 9 10.797H5Z" clip-rule="evenodd"></path></g></svg>