<svg xmlns="http://www.w3.org/2000/svg" fill="none" viewBox="0 0 14 14"><g id="meta"><g id="Vector 1198 (Stroke)"><path fill="#3e3e3e" d="M7.404 3.909c-.68.723-1.331 1.663-1.919 2.53l-.197.29c-.531.785-1.01 1.493-1.466 2.032-.253.3-.465.504-.636.628a.678.678 0 0 1-.197.11c-.186-.005-.499-.15-.723-.492.15.475.576 1.424 1.465 1.424 1.06 0 2.703-1.831 3.211-2.578l.198-.291c.6-.884 1.167-1.694 1.721-2.283.594-.631.962-.779 1.139-.779.442 0 .9.183 1.272.663.032-.364-.091-1.211-.834-1.69-.742-.48-2.354-.287-3.034.436Z"></path></g><path id="Union" fill="#37d7ff" fill-rule="evenodd" d="M1.147 3.937C1.9 2.967 2.942 2.5 4 2.5c1.074 0 1.955.727 2.596 1.409.136.144.27.298.404.457.133-.16.268-.313.404-.457C8.045 3.227 8.927 2.5 10 2.5c1.058 0 2.1.467 2.853 1.437C13.592 4.889 14 6.254 14 8c0 1.902-1.309 3.5-3 3.5-.543 0-1.006-.235-1.358-.49-.359-.26-.69-.602-.992-.958-.53-.627-1.074-1.432-1.592-2.199l-.198-.292a31.447 31.447 0 0 0-1.093-1.536c-.095.139-.19.277-.282.414l-.197.29c-.531.785-1.01 1.493-1.466 2.032-.253.3-.465.504-.636.628a.678.678 0 0 1-.197.11c-.186-.005-.499-.15-.723-.492.15.475.576 1.424 1.465 1.424 1.059 0 2.697-1.824 3.208-2.573-.517.765-1.06 1.568-1.59 2.194-.3.356-.632.698-.99.957-.353.256-.816.491-1.359.491-1.691 0-3-1.598-3-3.5 0-1.746.408-3.11 1.147-4.063Zm4.62 2.088a10.162 10.162 0 0 0-.628-.746C4.545 4.648 4.176 4.5 4 4.5c-.442 0-.9.183-1.272.663C2.342 5.661 2 6.546 2 8c0 1.085.675 1.49.989 1.5a.678.678 0 0 0 .197-.111c.171-.124.383-.329.636-.628.456-.54.935-1.247 1.466-2.032l.197-.29.282-.414ZM7 4.366c.534.639 1.045 1.38 1.515 2.073l.197.29c.531.785 1.01 1.493 1.466 2.032.253.3.465.504.636.628.12.087.183.107.197.11C11.325 9.49 12 9.086 12 8c0-1.454-.342-2.34-.728-2.837.032-.364-.091-1.211-.834-1.69-.742-.48-2.354-.287-3.034.436-.136.144-.27.298-.404.457Z" clip-rule="evenodd"></path></g></svg>