<svg xmlns="http://www.w3.org/2000/svg" fill="none" viewBox="0 0 14 14"><g id="VPN-connection"><path id="Union" fill="#37d7ff" fill-rule="evenodd" d="M1.536 0C.694 0 0 .697 0 1.538v2.926c0 4.168 2.575 7.941 6.443 9.432l.01.003.012.005c.347.116.766.146 1.11-.016C11.432 12.394 14 8.722 14 4.464V1.538C14 .697 13.306 0 12.464 0H1.536Z" clip-rule="evenodd"></path><path id="Union_2" fill="#3e3e3e" fill-rule="evenodd" d="M6.998 4.221c-1.718 0-2.982.642-3.343.91a.625.625 0 1 1-.744-1.004c.568-.421 2.09-1.156 4.087-1.156 1.996 0 3.518.735 4.086 1.156a.625.625 0 0 1-.744 1.004c-.361-.268-1.625-.91-3.342-.91Zm0 2.584c-.796 0-1.713.384-2.064.579a.625.625 0 0 1-.607-1.093c.438-.243 1.573-.736 2.67-.736 1.099 0 2.233.493 2.671.736a.625.625 0 1 1-.607 1.093c-.351-.195-1.268-.58-2.063-.58Zm-.472 2.82a1.41 1.41 0 0 1 .208-.086.916.916 0 0 1 .264-.05 1.263 1.263 0 0 1 .471.136.625.625 0 0 0 .607-1.092c-.172-.096-.617-.294-1.078-.294-.462 0-.907.198-1.08.294a.625.625 0 1 0 .608 1.092Z" clip-rule="evenodd"></path></g></svg>