<svg xmlns="http://www.w3.org/2000/svg" fill="none" viewBox="0 0 14 14"><g id="watch-circle-time--device-timepiece-circle-watch-round-time-clock-analog"><path id="Subtract" fill="#3e3e3e" fill-rule="evenodd" d="M4.44.44A1.5 1.5 0 0 1 5.5 0h3A1.5 1.5 0 0 1 10 1.5V3a4.978 4.978 0 0 0-3-1 4.978 4.978 0 0 0-3 1V1.5c0-.398.158-.78.44-1.06ZM4 11v1.5A1.5 1.5 0 0 0 5.5 14h3a1.5 1.5 0 0 0 1.5-1.5V11c-.836.628-1.874 1-3 1a4.978 4.978 0 0 1-3-1Z" clip-rule="evenodd"></path><path id="Union" fill="#37d7ff" fill-rule="evenodd" d="M7 2a5 5 0 1 0 0 10A5 5 0 0 0 7 2Z" clip-rule="evenodd"></path><path id="Vector 975 (Stroke)" fill="#3e3e3e" fill-rule="evenodd" d="M7.063 4.419c.345 0 .625.28.625.625v1.653l.941.942a.625.625 0 1 1-.883.884L6.62 7.398a.625.625 0 0 1-.184-.442V5.044c0-.345.28-.625.625-.625Z" clip-rule="evenodd"></path></g></svg>