<svg xmlns="http://www.w3.org/2000/svg" fill="none" viewBox="0 0 48 48" id="Notification-Alarm-Snooze--Streamline-Plump">
  <desc>
    Notification Alarm Snooze Streamline Icon: https://streamlinehq.com
  </desc>
  <g id="notification-alarm-snooze--android-phone-mobile-device-smartphone-iphone-alert-bell-alarm">
    <path id="Subtract" fill="#8fbffa" d="M39.868 24H35a4 4 0 0 1 -4 4h-7.333a4 4 0 0 1 -3.073 -6.56l1.323 -1.588A4.002 4.002 0 0 1 23 12h10a4 4 0 0 1 -2.147 -7.376A15.197 15.197 0 0 0 24 3C16.08 3 9.48 9.06 8.804 16.949l-0.479 5.59a16 16 0 0 1 -2.326 7.036l-1.47 2.384c-1.478 2.393 -0.672 4.866 2.116 5.237C9.833 37.62 15.157 38 24 38c8.842 0 14.166 -0.38 17.355 -0.804 2.788 -0.371 3.594 -2.844 2.116 -5.237l-1.47 -2.384A16 16 0 0 1 39.867 24Z" stroke-width="1"></path>
    <path id="Subtract_2" fill="#ffffff" d="M16.047 37.879a235.7 235.7 0 0 0 7.952 0.122c3.05 0 5.683 -0.045 7.953 -0.122a8.001 8.001 0 0 1 -15.905 0Z" stroke-width="1"></path>
    <path id="Union" stroke="#2859c5" stroke-linecap="round" stroke-linejoin="round" d="M40.08 25A16 16 0 0 0 42 29.575l1.471 2.384c1.478 2.393 0.672 4.866 -2.116 5.237C38.166 37.62 32.842 38 24 38c-8.843 0 -14.167 -0.38 -17.355 -0.804 -2.788 -0.371 -3.594 -2.844 -2.117 -5.237L6 29.575a16 16 0 0 0 2.326 -7.037l0.48 -5.59C9.48 9.06 16.08 3 24 3c1.934 0 3.79 0.362 5.5 1.023" stroke-width="1"></path>
    <path id="Vector 1172" stroke="#2859c5" stroke-linecap="round" stroke-linejoin="round" d="M33 8h11L34 20h11" stroke-width="1"></path>
    <path id="Vector 1173" stroke="#2859c5" stroke-linecap="round" stroke-linejoin="round" d="M23 16h7.333l-6.666 8H31" stroke-width="1"></path>
    <path id="Subtract_3" stroke="#2859c5" stroke-linejoin="round" d="M16.047 37.878a8.001 8.001 0 0 0 15.905 0" stroke-width="1"></path>
  </g>
</svg>