<svg xmlns="http://www.w3.org/2000/svg" fill="none" viewBox="0 0 24 24" id="Cards-2--Streamline-Cyber">
  <desc>
    Cards 2 Streamline Icon: https://streamlinehq.com
  </desc>
  <path fill="#ffffff" d="m23.5 7.647 -6 -2.485V2.5h-11v2.452l-6 2.486 5.74 13.859 5.507 -2.281v-0.001l6.013 2.49L23.5 7.647Z" stroke-width="1"></path>
  <path fill="#bbd8ff" d="m14.4 15.2432 -0.7 -3.537 2.996 -2.006 0.701 3.537 -2.997 2.006Z" stroke-width="1"></path>
  <path fill="#bbd8ff" d="m7.597 17.297 5.74 -13.859L17.5 5.162V2.5h-5.873L6.5 14.878v2.56h1.436l-0.339 -0.141Z" stroke-width="1"></path>
  <path fill="#bbd8ff" d="M6.5 17.5001V4.95215l-2 0.829V17.0951l0.996 2.405h5.082l1.169 -0.484 -3.623 -1.501 -1.624 -0.015Z" stroke-width="1"></path>
  <path stroke="#092f63" stroke-linecap="round" stroke-linejoin="round" d="m14.4 15.2432 -0.7 -3.537 2.996 -2.006 0.701 3.537 -2.997 2.006Z" stroke-width="1"></path>
  <path stroke="#092f63" stroke-linecap="round" stroke-linejoin="round" d="M13.3352 3.43701 7.59656 17.297l10.16324 4.2081 5.7387 -13.85999 -10.1633 -4.2081Z" stroke-width="1"></path>
  <path stroke="#092f63" stroke-linecap="round" stroke-linejoin="round" d="M7.936 17.438H6.5V2.5h11v2.662" stroke-width="1"></path>
  <path stroke="#092f63" stroke-linecap="round" stroke-linejoin="round" d="m11.747 19.0162 -5.507 2.281L0.5 7.4382l6.005 -2.488" stroke-width="1"></path>
</svg>