<svg xmlns="http://www.w3.org/2000/svg" fill="none" viewBox="0 0 24 24" id="Gameboy--Streamline-Cyber">
  <desc>
    Gameboy Streamline Icon: https://streamlinehq.com
  </desc>
  <path fill="#ffffff" d="M18 23.52H3.5V0.52002h17V21.02l-2.5 2.5Z" stroke-width="1"></path>
  <path fill="#bbd8ff" d="M15.5 14.5h-9l11 -11v9l-2 2Z" stroke-width="1"></path>
  <path fill="#bbd8ff" d="m3.5 23.5 2 -2H17l1 -0.5h2.5L18 23.5H3.5Z" stroke-width="1"></path>
  <path stroke="#092f63" stroke-linecap="round" stroke-linejoin="round" d="M18 23.5H3.5V0.5h17V21L18 23.5Z" stroke-width="1"></path>
  <path stroke="#092f63" stroke-linecap="round" stroke-linejoin="round" d="M15.5 14.5h-9v-11h11v9l-2 2Z" stroke-width="1"></path>
  <path stroke="#092f63" stroke-linecap="round" stroke-linejoin="round" d="M6.5 19.5h4" stroke-width="1"></path>
  <path stroke="#092f63" stroke-linecap="round" stroke-linejoin="round" d="M8.5 17.5161v3.968" stroke-width="1"></path>
  <path stroke="#092f63" stroke-linecap="round" stroke-linejoin="round" d="m13.5 20 -0.5 0.5 0.5 0.5" stroke-width="1"></path>
  <path stroke="#092f63" stroke-linecap="round" stroke-linejoin="round" d="m13.5 20 0.5 0.5 -0.5 0.5" stroke-width="1"></path>
  <path stroke="#092f63" stroke-linecap="round" stroke-linejoin="round" d="m16.5 18 -0.5 0.5 0.5 0.5" stroke-width="1"></path>
  <path stroke="#092f63" stroke-linecap="round" stroke-linejoin="round" d="m16.5 18 0.5 0.5 -0.5 0.5" stroke-width="1"></path>
</svg>