<svg xmlns="http://www.w3.org/2000/svg" fill="none" viewBox="0 0 24 24" id="Headset-Pulse--Streamline-Cyber">
  <desc>
    Headset Pulse Streamline Icon: https://streamlinehq.com
  </desc>
  <path fill="#ffffff" d="M19.1583 20.1809h2.0452l2.0452 -2.0453v-4.0904L21.2035 12h-2.0452v8.1809Z" stroke-width="1"></path>
  <path fill="#ffffff" d="M4.84168 20.1809h-2.0452L0.751282 18.1356v-4.0904L2.79648 12h2.0452v8.1809Z" stroke-width="1"></path>
  <path fill="#bbd8ff" d="M4.84171 12h-2.0452v8.1809h2.0452V12Z" stroke-width="1"></path>
  <path fill="#bbd8ff" d="M21.2035 12h-2.0452v8.1809h2.0452V12Z" stroke-width="1"></path>
  <path stroke="#092f63" stroke-linejoin="round" d="M19.1583 20.1809h2.0452l2.0452 -2.0453v-4.0904L21.2035 12h-2.0452v8.1809Z" stroke-width="1"></path>
  <path stroke="#092f63" stroke-linecap="round" stroke-linejoin="round" d="M19.1583 12V6.88701L12 2.79651l-7.15833 4.0905V12" stroke-width="1"></path>
  <path stroke="#092f63" stroke-linecap="round" stroke-linejoin="round" d="M17.113 16.0904h-1.0226l-1.0226 3.0679 -2.0452 -4.0905 -2.0452 6.1357 -2.0452 -7.6696 -1.0227 2.5565H6.8869" stroke-width="1"></path>
  <path stroke="#092f63" stroke-linecap="round" stroke-linejoin="round" d="M21.2035 12v8.1809" stroke-width="1"></path>
  <path stroke="#092f63" stroke-linejoin="round" d="M4.84168 20.1809h-2.0452L0.751282 18.1356v-4.0904L2.79648 12h2.0452v8.1809Z" stroke-width="1"></path>
  <path stroke="#092f63" stroke-linecap="round" stroke-linejoin="round" d="M2.79651 12v8.1809" stroke-width="1"></path>
</svg>