<svg xmlns="http://www.w3.org/2000/svg" fill="none" viewBox="0 0 24 24" id="Play-Button--Streamline-Cyber">
  <desc>
    Play Button Streamline Icon: https://streamlinehq.com
  </desc>
  <path fill="#ffffff" d="M4.84167 7.90959 12 3.81909l7.1583 4.0905v8.18081L12 20.1809l-7.15833 -4.0905V7.90959Z" stroke-width="1"></path>
  <path fill="#bbd8ff" d="M16.6017 15.0677 12 17.6243l-4.60173 -2.5566 -2.5566 1.0227L12 20.1809l7.1583 -4.0905 -2.5566 -1.0227Z" stroke-width="1"></path>
  <path fill="#bbd8ff" d="M9.95477 15.5791 16.0904 12H9.95477v3.5791Z" stroke-width="1"></path>
  <path stroke="#092f63" stroke-linecap="round" stroke-linejoin="round" stroke-miterlimit="10" d="M4.84167 7.90959 12 3.81909l7.1583 4.0905v8.18081L12 20.1809l-7.15833 -4.0905V7.90959Z" stroke-width="1"></path>
  <path stroke="#092f63" stroke-linecap="round" stroke-linejoin="round" stroke-miterlimit="10" d="M1.77393 10.9774v2.0452" stroke-width="1"></path>
  <path stroke="#092f63" stroke-linecap="round" stroke-linejoin="round" stroke-miterlimit="10" d="M22.2261 10.9774v2.0452" stroke-width="1"></path>
  <path stroke="#092f63" stroke-linecap="round" stroke-linejoin="round" stroke-miterlimit="10" d="m7.80731 3.10327 -1.8407 0.9203" stroke-width="1"></path>
  <path stroke="#092f63" stroke-linecap="round" stroke-linejoin="round" stroke-miterlimit="10" d="m3.10333 5.65979 -1.3294 0.7158v1.534" stroke-width="1"></path>
  <path stroke="#092f63" stroke-linecap="round" stroke-linejoin="round" stroke-miterlimit="10" d="m16.1927 3.10327 1.8407 0.9203" stroke-width="1"></path>
  <path stroke="#092f63" stroke-linecap="round" stroke-linejoin="round" stroke-miterlimit="10" d="m20.8967 5.65979 1.3294 0.7158v1.534" stroke-width="1"></path>
  <path stroke="#092f63" stroke-linecap="round" stroke-linejoin="round" stroke-miterlimit="10" d="M13.3294 1.46714 12 0.751343l-1.3294 0.715797" stroke-width="1"></path>
  <path stroke="#092f63" stroke-linecap="round" stroke-linejoin="round" stroke-miterlimit="10" d="m7.80731 20.8968 -1.8407 -0.9204" stroke-width="1"></path>
  <path stroke="#092f63" stroke-linecap="round" stroke-linejoin="round" stroke-miterlimit="10" d="m3.10333 18.3403 -1.3294 -0.7158v-1.534" stroke-width="1"></path>
  <path stroke="#092f63" stroke-linecap="round" stroke-linejoin="round" stroke-miterlimit="10" d="m16.1927 20.8968 1.8407 -0.9204" stroke-width="1"></path>
  <path stroke="#092f63" stroke-linecap="round" stroke-linejoin="round" stroke-miterlimit="10" d="m20.8967 18.3403 1.3294 -0.7159v-1.5339" stroke-width="1"></path>
  <path stroke="#092f63" stroke-linecap="round" stroke-linejoin="round" stroke-miterlimit="10" d="M13.3294 22.533 12 23.2488l-1.3294 -0.7158" stroke-width="1"></path>
  <path stroke="#092f63" stroke-linejoin="round" stroke-miterlimit="10" d="M9.95477 15.5791V8.4209L16.0904 12l-6.13563 3.5791Z" stroke-width="1"></path>
</svg>