<svg xmlns="http://www.w3.org/2000/svg" fill="none" viewBox="0 0 24 24" id="Incognito-Mode--Streamline-Sharp">
  <desc>
    Incognito Mode Streamline Icon: https://streamlinehq.com
  </desc>
  <g id="incognito-mode--internet-safe-mode-browser">
    <path id="Union" fill="#000000" fill-rule="evenodd" d="m4 9 1.5 -8h13L20 9H4Zm2.5 7C5.11929 16 4 17.1193 4 18.5S5.11929 21 6.5 21 9 19.8807 9 18.5 7.88071 16 6.5 16ZM2 18.5C2 16.0147 4.01472 14 6.5 14c1.43865 0 2.71962 0.6751 3.5434 1.7258C10.5687 15.2735 11.2524 15 12 15c0.7476 0 1.4313 0.2735 1.9566 0.7258C14.7804 14.6751 16.0613 14 17.5 14c2.4853 0 4.5 2.0147 4.5 4.5S19.9853 23 17.5 23 13 20.9853 13 18.5c0 -0.169 0.0093 -0.3358 0.0275 -0.5H13c0 -0.5523 -0.4477 -1 -1 -1s-1 0.4477 -1 1h-0.0275c0.0182 0.1642 0.0275 0.331 0.0275 0.5 0 2.4853 -2.01472 4.5 -4.5 4.5S2 20.9853 2 18.5Zm13 0c0 -1.3807 1.1193 -2.5 2.5 -2.5s2.5 1.1193 2.5 2.5 -1.1193 2.5 -2.5 2.5 -2.5 -1.1193 -2.5 -2.5Zm8 -6H1v-2h22v2Z" clip-rule="evenodd" stroke-width="1"></path>
  </g>
</svg>