<svg xmlns="http://www.w3.org/2000/svg" fill="none" viewBox="0 0 24 24" id="Rss-Symbol--Streamline-Sharp">
  <desc>
    Rss Symbol Streamline Icon: https://streamlinehq.com
  </desc>
  <g id="rss-symbol--wireless-feed-rss-transmit-broadcast">
    <path id="Union" fill="#000000" fill-rule="evenodd" d="M5 1H2v2h3c8.8366 0 16 7.1634 16 16v3h2v-3C23 9.05887 14.9411 1 5 1Zm0 10H2v2h3c3.31371 0 6 2.6863 6 6v3h2v-3c0 -4.4183 -3.58172 -8 -8 -8ZM2 6h3c7.1797 0 13 5.8203 13 13v3h-2v-3c0 -6.0751 -4.9249 -11 -11 -11H2V6Zm5.5 10.5H2V22h5.5v-5.5Z" clip-rule="evenodd" stroke-width="1"></path>
  </g>
</svg>