<svg xmlns="http://www.w3.org/2000/svg" viewBox="0 0 32 32" id="Computers-Devices-Electronics-Mouse--Streamline-Pixel">
  <desc>
    Computers Devices Electronics Mouse Streamline Icon: https://streamlinehq.com
  </desc>
  <title>computers-devices-electronics-mouse</title>
  <g>
    <path d="M11.43 16.76v1.53h6.09v-1.53h1.53v1.53h6.09v-1.53h1.53v10.67h1.52V10.67h-1.52V9.15h-1.53V7.62h-1.52V6.1h-4.57V3.05h-1.53V6.1h-4.57v1.52h-1.52v1.53H9.9v1.52H8.38v16.76H9.9V16.76ZM16 9.15h1.52V7.62h1.53v1.53h1.52v3.04h-1.52v1.53h-1.53v-1.53H16Z" fill="#000000" stroke-width="1"></path>
    <path d="M25.14 27.43h1.53v1.53h-1.53Z" fill="#000000" stroke-width="1"></path>
    <path d="M23.62 22.86h1.52v3.05h-1.52Z" fill="#000000" stroke-width="1"></path>
    <path d="M22.09 28.96h3.05v1.52h-3.05Z" fill="#000000" stroke-width="1"></path>
    <path d="M22.09 25.91h1.53v1.52h-1.53Z" fill="#000000" stroke-width="1"></path>
    <path d="M19.05 27.43h3.04v1.53h-3.04Z" fill="#000000" stroke-width="1"></path>
    <path d="M14.47 30.48h7.62V32h-7.62Z" fill="#000000" stroke-width="1"></path>
    <path d="M14.47 1.53h3.05v1.52h-3.05Z" fill="#000000" stroke-width="1"></path>
    <path d="M11.43 28.96h3.04v1.52h-3.04Z" fill="#000000" stroke-width="1"></path>
    <path d="M11.43 3.05h3.04v1.52h-3.04Z" fill="#000000" stroke-width="1"></path>
    <path d="M9.9 27.43h1.53v1.53H9.9Z" fill="#000000" stroke-width="1"></path>
    <path d="M9.9 4.57h1.53V6.1H9.9Z" fill="#000000" stroke-width="1"></path>
    <path d="M5.33 6.1H9.9v1.52H5.33Z" fill="#000000" stroke-width="1"></path>
    <path d="M6.86 0h1.52v1.53H6.86Z" fill="#000000" stroke-width="1"></path>
    <path d="M5.33 1.53h1.53v1.52H5.33Z" fill="#000000" stroke-width="1"></path>
    <path d="M3.81 3.05h1.52V6.1H3.81Z" fill="#000000" stroke-width="1"></path>
  </g>
</svg>