<svg xmlns="http://www.w3.org/2000/svg" viewBox="0 0 32 32" id="Computers-Devices-Electronics-Tablet--Streamline-Pixel">
  <desc>
    Computers Devices Electronics Tablet Streamline Icon: https://streamlinehq.com
  </desc>
  <title>computers-devices-electronics-tablet</title>
  <g>
    <path d="M4.565 0v1.53h-1.52v28.95h1.52V32h22.86v-1.52h1.53V1.53h-1.53V0Zm12.19 30.48h-1.52v-1.52h1.52Zm9.15 -3.05H6.1V3.05h19.81Z" fill="#000000" stroke-width="1"></path>
    <path d="M15.235 12.19h1.52v3.05h7.62V7.62h-7.62v3.05h-1.52V7.62h-7.62v7.62h7.62Zm3.05 -3.04h4.57v4.57h-4.57Zm-4.57 4.57h-4.57V9.15h4.57Z" fill="#000000" stroke-width="1"></path>
    <path d="M19.805 10.67h1.53v1.52h-1.53Z" fill="#000000" stroke-width="1"></path>
    <path d="M18.285 16.76h1.52v1.53h-1.52Z" fill="#000000" stroke-width="1"></path>
    <path d="M15.235 18.29h3.05v1.52h-3.05Z" fill="#000000" stroke-width="1"></path>
    <path d="M10.665 10.67h1.52v1.52h-1.52Z" fill="#000000" stroke-width="1"></path>
  </g>
</svg>