<svg xmlns="http://www.w3.org/2000/svg" viewBox="0 0 32 32" id="Computers-Devices-Electronics-Click-Select-Tablet--Streamline-Pixel">
  <desc>
    Computers Devices Electronics Click Select Tablet Streamline Icon: https://streamlinehq.com
  </desc>
  <title>computers-devices-electronics-click-select-tablet</title>
  <g>
    <path d="M30.48 21.34H32v7.62h-1.52Z" fill="#000000" stroke-width="1"></path>
    <path d="M30.48 0H1.53v1.53H0v18.28h1.53v1.53h7.61v-1.53H3.05V1.53h25.9V6.1h-1.52v9.14h1.52v1.53h1.53v1.52H32V1.53h-1.52Zm0 13.72h-1.53v-3.05h1.53Zm0 -4.57h-1.53V7.62h1.53Z" fill="#000000" stroke-width="1"></path>
    <path d="M28.95 28.96h1.53v1.52h-1.53Z" fill="#000000" stroke-width="1"></path>
    <path d="M28.95 19.81h1.53v1.53h-1.53Z" fill="#000000" stroke-width="1"></path>
    <path d="M27.43 30.48h1.52V32h-1.52Z" fill="#000000" stroke-width="1"></path>
    <path d="M27.43 18.29h1.52v1.52h-1.52Z" fill="#000000" stroke-width="1"></path>
    <path d="m21.33 16.77 0 -6.1 -1.52 0 0 7.62 7.62 0 0 -1.52 -6.1 0z" fill="#000000" stroke-width="1"></path>
    <path d="M24.38 19.81h1.53v4.57h-1.53Z" fill="#000000" stroke-width="1"></path>
    <path d="M22.86 4.58h1.52V6.1h-1.52Z" fill="#000000" stroke-width="1"></path>
    <path d="M21.33 6.1h1.53v1.52h-1.53Z" fill="#000000" stroke-width="1"></path>
    <path d="M19.81 19.81h1.52v4.57h-1.52Z" fill="#000000" stroke-width="1"></path>
    <path d="M16.76 9.15h3.05v1.52h-3.05Z" fill="#000000" stroke-width="1"></path>
    <path d="M16.76 3.05h1.53v4.57h-1.53Z" fill="#000000" stroke-width="1"></path>
    <path d="M15.24 28.96h1.52V32h-1.52Z" fill="#000000" stroke-width="1"></path>
    <path d="m15.24 18.29 -3.05 0 0 1.52 3.05 0 0 3.05 1.52 0 0 -12.19 -1.52 0 0 7.62z" fill="#000000" stroke-width="1"></path>
    <path d="M13.72 27.43h1.52v1.53h-1.52Z" fill="#000000" stroke-width="1"></path>
    <path d="M12.19 25.91h1.53v1.52h-1.53Z" fill="#000000" stroke-width="1"></path>
    <path d="M12.19 6.1h1.53v1.52h-1.53Z" fill="#000000" stroke-width="1"></path>
    <path d="M10.67 19.81h1.52v6.1h-1.52Z" fill="#000000" stroke-width="1"></path>
    <path d="M10.67 4.58h1.52V6.1h-1.52Z" fill="#000000" stroke-width="1"></path>
  </g>
</svg>