<svg xmlns="http://www.w3.org/2000/svg" viewBox="0 0 32 32" id="Computers-Devices-Electronics-Graphic-Tablet-Draw--Streamline-Pixel">
  <desc>
    Computers Devices Electronics Graphic Tablet Draw Streamline Icon: https://streamlinehq.com
  </desc>
  <title>computers-devices-electronics-graphic-tablet-draw</title>
  <g>
    <path d="M30.48 5.335H32v21.33h-1.52Z" fill="#000000" stroke-width="1"></path>
    <path d="M1.52 26.665h28.96v1.53H1.52Z" fill="#000000" stroke-width="1"></path>
    <path d="m28.95 3.805 -3.04 0 0 1.53 -1.53 0 0 1.52 -1.52 0 0 1.53 -1.53 0 0 1.52 -1.52 0 0 1.52 -1.52 0 0 1.53 -1.53 0 0 1.52 -1.52 0 0 3.05 3.05 0 0 -1.53 1.52 0 0 -1.52 1.52 0 0 -1.52 1.53 0 0 -1.53 1.52 0 0 -1.52 1.53 0 0 -1.52 1.52 0 0 -1.53 1.52 0 0 -3.05z" fill="#000000" stroke-width="1"></path>
    <path d="M13.71 17.525h1.53v1.52h-1.53Z" fill="#000000" stroke-width="1"></path>
    <path d="M12.19 11.425h1.52v1.53h-1.52Z" fill="#000000" stroke-width="1"></path>
    <path d="M9.14 19.045h4.57v1.53H9.14Z" fill="#000000" stroke-width="1"></path>
    <path d="M10.67 12.955h1.52v1.52h-1.52Z" fill="#000000" stroke-width="1"></path>
    <path d="M9.14 9.905h3.05v1.52H9.14Z" fill="#000000" stroke-width="1"></path>
    <path d="M9.14 14.475h1.53v1.52H9.14Z" fill="#000000" stroke-width="1"></path>
    <path d="M7.62 15.995h1.52v3.05H7.62Z" fill="#000000" stroke-width="1"></path>
    <path d="M7.62 11.425h1.52v1.53H7.62Z" fill="#000000" stroke-width="1"></path>
    <path d="M6.1 12.955h1.52v1.52H6.1Z" fill="#000000" stroke-width="1"></path>
    <path d="m4.57 8.385 15.24 0 0 -1.53 -16.76 0 0 18.29 25.9 0 0 -15.24 -1.52 0 0 13.71 -22.86 0 0 -15.23z" fill="#000000" stroke-width="1"></path>
    <path d="M1.52 3.805h21.34v1.53H1.52Z" fill="#000000" stroke-width="1"></path>
    <path d="M0 5.335h1.52v21.33H0Z" fill="#000000" stroke-width="1"></path>
  </g>
</svg>