<svg xmlns="http://www.w3.org/2000/svg" viewBox="0 0 32 32" id="Computers-Devices-Electronics-Webcam--Streamline-Pixel">
  <desc>
    Computers Devices Electronics Webcam Streamline Icon: https://streamlinehq.com
  </desc>
  <title>computers-devices-electronics-webcam</title>
  <g>
    <path d="M25.91 7.62h1.52v7.62h-1.52Z" fill="#000000" stroke-width="1"></path>
    <path d="M24.38 28.96h1.53v1.52h-1.53Z" fill="#000000" stroke-width="1"></path>
    <path d="M24.38 15.24h1.53v3.05h-1.53Z" fill="#000000" stroke-width="1"></path>
    <path d="M24.38 4.57h1.53v3.05h-1.53Z" fill="#000000" stroke-width="1"></path>
    <path d="M22.86 27.43h1.52v1.53h-1.52Z" fill="#000000" stroke-width="1"></path>
    <path d="M22.86 18.29h1.52v1.52h-1.52Z" fill="#000000" stroke-width="1"></path>
    <path d="M22.86 3.05h1.52v1.52h-1.52Z" fill="#000000" stroke-width="1"></path>
    <path d="M7.62 30.48h16.76V32H7.62Z" fill="#000000" stroke-width="1"></path>
    <path d="M21.33 7.62h1.53v7.62h-1.53Z" fill="#000000" stroke-width="1"></path>
    <path d="M19.81 25.91h3.05v1.52h-3.05Z" fill="#000000" stroke-width="1"></path>
    <path d="M19.81 19.81h3.05v1.53h-3.05Z" fill="#000000" stroke-width="1"></path>
    <path d="M19.81 15.24h1.52v1.52h-1.52Z" fill="#000000" stroke-width="1"></path>
    <path d="M19.81 6.1h1.52v1.52h-1.52Z" fill="#000000" stroke-width="1"></path>
    <path d="M19.81 1.53h3.05v1.52h-3.05Z" fill="#000000" stroke-width="1"></path>
    <path d="m13.71 7.62 0 1.53 -1.52 0 0 4.57 1.52 0 0 1.52 4.58 0 0 -1.52 1.52 0 0 -4.57 -1.52 0 0 1.52 -1.53 0 0 -1.52 1.53 0 0 -1.53 -4.58 0z" fill="#000000" stroke-width="1"></path>
    <path d="M12.19 21.34v1.52h1.52v1.52h-1.52v1.53h7.62v-1.53h-1.52v-1.52h1.52v-1.52Zm4.57 3.04h-1.52v-1.52h1.52Z" fill="#000000" stroke-width="1"></path>
    <path d="M12.19 16.76h7.62v1.53h-7.62Z" fill="#000000" stroke-width="1"></path>
    <path d="M12.19 4.57h7.62V6.1h-7.62Z" fill="#000000" stroke-width="1"></path>
    <path d="M12.19 0h7.62v1.53h-7.62Z" fill="#000000" stroke-width="1"></path>
    <path d="M9.14 25.91h3.05v1.52H9.14Z" fill="#000000" stroke-width="1"></path>
    <path d="M9.14 19.81h3.05v1.53H9.14Z" fill="#000000" stroke-width="1"></path>
    <path d="M10.67 15.24h1.52v1.52h-1.52Z" fill="#000000" stroke-width="1"></path>
    <path d="M10.67 6.1h1.52v1.52h-1.52Z" fill="#000000" stroke-width="1"></path>
    <path d="M9.14 1.53h3.05v1.52H9.14Z" fill="#000000" stroke-width="1"></path>
    <path d="M9.14 7.62h1.53v7.62H9.14Z" fill="#000000" stroke-width="1"></path>
    <path d="M7.62 27.43h1.52v1.53H7.62Z" fill="#000000" stroke-width="1"></path>
    <path d="M7.62 18.29h1.52v1.52H7.62Z" fill="#000000" stroke-width="1"></path>
    <path d="M7.62 3.05h1.52v1.52H7.62Z" fill="#000000" stroke-width="1"></path>
    <path d="M6.1 28.96h1.52v1.52H6.1Z" fill="#000000" stroke-width="1"></path>
    <path d="M6.1 15.24h1.52v3.05H6.1Z" fill="#000000" stroke-width="1"></path>
    <path d="M6.1 4.57h1.52v3.05H6.1Z" fill="#000000" stroke-width="1"></path>
    <path d="M4.57 7.62H6.1v7.62H4.57Z" fill="#000000" stroke-width="1"></path>
  </g>
</svg>