<svg xmlns="http://www.w3.org/2000/svg" fill="none" viewBox="0 0 14 14" id="Box-Sign--Streamline-Core-Gradient">
  <desc>
    Box Sign Streamline Icon: https://streamlinehq.com
  </desc>
  <g id="Free Gradient/Shipping/box-sign--box-package-label-delivery-shipment-shipping-this-way-up-arrow-sign-sticker">
    <path id="Subtract" fill="url(#paint0_linear_14402_15891)" fill-rule="evenodd" d="M.93934.93934C1.22064.658035 1.60218.5 2 .5h10c.3978 0 .7794.158035 1.0607.43934.2813.2813.4393.66283.4393 1.06066v10c0 .3978-.158.7794-.4393 1.0607S12.3978 13.5 12 13.5H2c-.39783 0-.77936-.158-1.06066-.4393C.658035 12.7794.5 12.3978.5 12V2c0-.39782.158035-.77936.43934-1.06066ZM3.75 9.875c-.34518 0-.625.2798-.625.625s.27982.625.625.625h6.5c.3452 0 .625-.2798.625-.625s-.2798-.625-.625-.625h-6.5Zm1.98918-6.95242c.23354.09673.38582.32463.38582.57742v4.75c0 .34518-.27982.625-.625.625s-.625-.27982-.625-.625V5.00888l-.93306.93306c-.24408.24408-.6398.24408-.88388 0-.24408-.24408-.24408-.6398 0-.88388l2-2c.17875-.17875.44757-.23222.68112-.13548Zm3.20276.13548c-.17875-.17875-.44757-.23222-.68112-.13548-.23354.09673-.38582.32463-.38582.57742v4.75c0 .34518.27982.625.625.625s.625-.27982.625-.625V5.00888l.9331.93306c.244.24408.6398.24408.8838 0 .2441-.24408.2441-.6398 0-.88388l-1.99996-2Z" clip-rule="evenodd"></path>
  </g>
  <defs>
    <linearGradient id="paint0_linear_14402_15891" x1="2.625" x2="13.125" y1="3" y2="8.818" gradientUnits="userSpaceOnUse">
      <stop stop-color="#ffd600"></stop>
      <stop offset="1" stop-color="#00d078"></stop>
    </linearGradient>
  </defs>
</svg>