<svg xmlns="http://www.w3.org/2000/svg" fill="none" viewBox="0 0 14 14" id="Fragile--Streamline-Core-Gradient">
  <desc>
    Fragile Streamline Icon: https://streamlinehq.com
  </desc>
  <g id="Free Gradient/Shipping/fragile--fragile-shipping-glass-delivery-wine-crack-shipment-sign-sticker">
    <path id="Subtract" fill="url(#paint0_linear_14402_15883)" fill-rule="evenodd" d="M6.42401 0H2.5C1.67157 0 1 .671573 1 1.5v2.88423c0 1.74068.67049 3.10768 1.78536 4.03045.87169.7215 1.98923 1.15094 3.21636 1.2994C6.00058 9.73362 6 9.7533 6 9.77312V12H4.75c-.55228 0-1 .4477-1 1s.44772 1 1 1h4.5c.55228 0 1-.4477 1-1s-.44772-1-1-1H8V9.77312c0-.01982-.00058-.0395-.00172-.05904 1.22713-.14846 2.34462-.5779 3.21632-1.2994C12.3295 7.49191 13 6.12491 13 4.38423V1.5c0-.828428-.6716-1.5-1.5-1.5H8.53682c-.00402.00424085-.0081.00844639-.01224.0126156L6.1928 2.36268l2.09625 1.3144c.19348.12132.32114.32418.34682.5511.02568.22691-.05343.45317-.21491.61465L6.65534 6.60845c-.2929.29289-.76777.29289-1.06066 0-.2929-.2929-.2929-.76777 0-1.06066l1.09996-1.09996-2.09307-1.31241c-.19304-.12104-.32059-.32328-.34665-.54964-.02606-.22636.0522-.45229.21268-.61404L6.42401 0Z" clip-rule="evenodd"></path>
  </g>
  <defs>
    <linearGradient id="paint0_linear_14402_15883" x1="14.04" x2="-3.727" y1="16.965" y2="6.148" gradientUnits="userSpaceOnUse">
      <stop stop-color="#ffd600"></stop>
      <stop offset="1" stop-color="#ff007a"></stop>
    </linearGradient>
  </defs>
</svg>