<svg xmlns="http://www.w3.org/2000/svg" fill="none" viewBox="0 0 48 48" id="Ai-Science-Robot--Streamline-Plump">
  <desc>
    Ai Science Robot Streamline Icon: https://streamlinehq.com
  </desc>
  <g id="ai-science-robot--atom-scientific-experiment-artificial-intelligence-ai">
    <path id="Union" fill="#000000" fill-rule="evenodd" d="M37.7498 2c0 -0.9665 -0.7835 -1.75 -1.75 -1.75s-1.75 0.7835 -1.75 1.75v2.51507c-4.839 0.20295 -8.75 4.02897 -8.75 8.98493 0 1.2509 0.0834 2.7111 0.1753 3.9469 0.1783 2.3953 1.9634 4.4027 4.4245 4.6981 1.5386 0.1848 3.5837 0.355 5.9002 0.355 2.3164 0 4.3615 -0.1702 5.9001 -0.355 2.4611 -0.2954 4.2462 -2.3028 4.4245 -4.6981 0.0919 -1.2358 0.1754 -2.696 0.1754 -3.9469 0 -4.95596 -3.911 -8.78198 -8.75 -8.98493V2Zm-4 11c0 -0.9665 -0.7835 -1.75 -1.75 -1.75s-1.75 0.7835 -1.75 1.75v1c0 0.9665 0.7835 1.75 1.75 1.75s1.75 -0.7835 1.75 -1.75v-1Zm8 0c0 -0.9665 -0.7835 -1.75 -1.75 -1.75s-1.75 0.7835 -1.75 1.75v1c0 0.9665 0.7835 1.75 1.75 1.75s1.75 -0.7835 1.75 -1.75v-1ZM11.8944 6.29497c3.2016 0.25567 6.6344 1.58684 10.0116 3.63114 0.5238 0.31709 0.8438 0.88479 0.8438 1.49709 0 0.6123 -0.32 1.18 -0.8438 1.4971 -2.7512 1.6653 -5.5878 3.93 -8.3219 6.6641C11.1493 22.0191 9.08676 24.5353 7.48825 27c1.59851 2.4647 3.66105 4.9809 6.09585 7.4157 2.4348 2.4348 4.951 4.4973 7.4157 6.0958 2.4647 -1.5985 4.9808 -3.661 7.4156 -6.0958 2.7341 -2.7341 4.9988 -5.5708 6.6641 -8.3219 0.3171 -0.5238 0.8848 -0.8438 1.4971 -0.8438 0.6123 0 1.18 0.32 1.4971 0.8438 2.0443 3.3772 3.3754 6.8099 3.6311 10.0116 0.2595 3.2488 -0.5952 6.2988 -2.9481 8.6516 -2.3528 2.3528 -5.4027 3.2075 -8.6515 2.9481 -2.9157 -0.2329 -6.023 -1.3576 -9.1054 -3.1006 -3.0825 1.743 -6.1898 2.8677 -9.1054 3.1006 -3.24885 0.2594 -6.29879 -0.5953 -8.65161 -2.9481C0.889974 42.4042 0.0352826 39.3542 0.294722 36.1054 0.527556 33.1898 1.65232 30.0825 3.39533 27 1.65232 23.9175 0.527557 20.8103 0.294722 17.8946c-0.2594392 -3.2488 0.595252 -6.2988 2.948068 -8.65157 2.35282 -2.35281 5.40276 -3.2075 8.65161 -2.94806ZM5.56658 23.6043c1.5682 -2.2012 3.43717 -4.3893 5.54262 -6.4948 2.1055 -2.1055 4.2936 -3.9745 6.4949 -5.5427 -2.1616 -1.0377 -4.1874 -1.63912 -5.9883 -1.78294 -2.43059 -0.1941 -4.40338 0.43934 -5.89814 1.93404 -1.49475 1.4948 -2.12814 3.4676 -1.93404 5.8981 0.14381 1.801 0.74524 3.8268 1.78296 5.9883Zm0 6.7914c-1.03772 2.1616 -1.63915 4.1874 -1.78297 5.9883 -0.19409 2.4306 0.4393 4.4034 1.93405 5.8981 1.49476 1.4948 3.46755 2.1282 5.89814 1.9341 1.8009 -0.1439 3.8267 -0.7453 5.9883 -1.783 -2.2013 -1.5682 -4.3894 -3.4372 -6.4949 -5.5427 -2.10545 -2.1054 -3.97442 -4.2935 -5.54262 -6.4948ZM24.3954 42.4332c2.1616 1.0377 4.1874 1.6391 5.9884 1.783 2.4305 0.1941 4.4033 -0.4393 5.8981 -1.9341 1.4947 -1.4947 2.1281 -3.4675 1.934 -5.8981 -0.1438 -1.8009 -0.7452 -3.8267 -1.7829 -5.9883 -1.5683 2.2013 -3.4372 4.3894 -5.5427 6.4948 -2.1055 2.1055 -4.2936 3.9745 -6.4949 5.5427ZM20.9998 20.5c-3.5899 0 -6.5 2.9102 -6.5 6.5 0 3.5899 2.9101 6.5 6.5 6.5 3.5898 0 6.5 -2.9101 6.5 -6.5 0 -3.5898 -2.9102 -6.5 -6.5 -6.5Z" clip-rule="evenodd" stroke-width="1"></path>
  </g>
</svg>