<svg xmlns="http://www.w3.org/2000/svg" fill="none" viewBox="0 0 24 24" id="Notification-Alarm-Snooze--Streamline-Sharp">
  <desc>
    Notification Alarm Snooze Streamline Icon: https://streamlinehq.com
  </desc>
  <g id="notification-alarm-snooze--android-phone-mobile-device-smartphone-iphone-alert-bell-alarm">
    <path id="Union" fill="#2859c5" fill-rule="evenodd" d="M21.625 1h1v1.74l-0.236 0.28 -1.887 2.233h2.123v2h-5.013V5.574l0.237 -0.28L19.787 3h-2.175V1h4.013Zm-6.63 4.985h1v1.631l-0.235 0.28L14.827 9h1.169v2H11.86V9.412l0.237 -0.28 0.97 -1.147H11.86v-2h3.136Z" clip-rule="evenodd" stroke-width="1"></path>
    <path id="Subtract" fill="#8fbffa" fill-rule="evenodd" d="M16.113 2.43A7.75 7.75 0 0 0 4.25 9v4.823L1.788 18.75h20.427l-2.463 -4.927V9c0 -0.083 -0.002 -0.165 -0.004 -0.247h-2.25V12.5H10.36V4.485h5.752V2.43ZM14.001 23h-4v-2h4v2Z" clip-rule="evenodd" stroke-width="1"></path>
  </g>
</svg>