<svg xmlns="http://www.w3.org/2000/svg" fill="none" viewBox="0 0 24 24" id="Phone-Personal-Hotspot--Streamline-Sharp">
  <desc>
    Phone Personal Hotspot Streamline Icon: https://streamlinehq.com
  </desc>
  <g id="phone-personal-hotspot--phone-personal-hotspot-connection-mobile-signal-device-share">
    <path id="Subtract" fill="#8fbffa" fill-rule="evenodd" d="M17 13.575V23H1V1h9.24A5.51 5.51 0 0 0 8.5 5.025c0 1.334 0.476 2.563 1.264 3.517l0.955 1.157 0.644 -0.532a5.527 5.527 0 0 0 5.412 4.408H17Z" clip-rule="evenodd" stroke-width="1"></path>
    <path id="Union" fill="#2859c5" fill-rule="evenodd" d="M14.025 3a2.025 2.025 0 0 0 -1.563 3.313L10.92 7.587A4.025 4.025 0 0 1 14.025 1h2.2a4.025 4.025 0 0 1 0 8.05v-2a2.025 2.025 0 1 0 0 -4.05h-2.2Zm2.75 3.025a2.025 2.025 0 1 0 0 4.05h2.2a2.025 2.025 0 0 0 1.657 -3.189l1.636 -1.151a4.025 4.025 0 0 1 -3.293 6.34h-2.2a4.025 4.025 0 0 1 0 -8.05v2ZM7 18h4v2H7v-2Z" clip-rule="evenodd" stroke-width="1"></path>
  </g>
</svg>