<svg xmlns="http://www.w3.org/2000/svg" fill="none" viewBox="0 0 14 14" id="Announcement-Megaphone--Streamline-Core">
  <desc>
    Announcement Megaphone Streamline Icon: https://streamlinehq.com
  </desc>
  <g id="announcement-megaphone">
    <path id="Vector (Stroke)" fill="#ff7972" fill-rule="evenodd" d="m1.44635 11.3287 0.13343 0.2311 8.04067 -1.86703L7.0836 5.29883 1.44635 11.3287Z" clip-rule="evenodd" stroke-width="1"></path>
    <path id="Union" fill="#0c098c" fill-rule="evenodd" d="M7.7496 0.758545c0 -0.414214 -0.33578 -0.75000008 -0.75 -0.75000008 -0.41421 0 -0.75 0.33578608 -0.75 0.75000008V2.0504c0 0.41421 0.33579 0.75 0.75 0.75 0.41422 0 0.75 -0.33579 0.75 -0.75V0.758545ZM7.54444 3.59839c-0.17259 -0.29893 -0.55483 -0.40136 -0.85377 -0.22877 -0.27987 0.16159 -0.38749 0.50694 -0.25844 0.79564L0.216997 10.8134c-0.1878614 0.2009 -0.22225163 0.5011 -0.084709 0.7393l0.596513 1.0332c0.137542 0.2382 0.414679 0.3585 0.682629 0.2963l1.57519 -0.3657 0.28102 0.4867 0.00144 0.0025c0.26957 0.462 0.71165 0.798 1.22898 0.9341s1.06752 0.0611 1.52956 -0.2085c0.46203 -0.2696 0.79805 -0.7116 0.93413 -1.229 0.07939 -0.3018 0.08695 -0.6147 0.02594 -0.9149l3.28901 -0.7637c0.1859 0.2548 0.5378 0.3335 0.8171 0.1723 0.2989 -0.1726 0.4013 -0.5548 0.2287 -0.8538l-0.1823 -0.31579c-0.0098 -0.01929 -0.0206 -0.03793 -0.0323 -0.05587L7.76004 3.97182c-0.00971 -0.01905 -0.02047 -0.0377 -0.03225 -0.05587l-0.18335 -0.31756ZM3.12701 11.2006c0.01858 -0.0052 0.03729 -0.0096 0.05607 -0.013l6.4367 -1.49462 -2.53664 -4.39359 -5.63678 6.02941 0.13343 0.2311 1.54722 -0.3593Zm1.22235 1.1762 -0.08999 -0.1559 1.50949 -0.3505c0.01625 0.1037 0.01122 0.2105 -0.01598 0.3139 -0.05175 0.1967 -0.17952 0.3648 -0.35521 0.4674 -0.17568 0.1025 -0.3849 0.131 -0.58161 0.0792 -0.19632 -0.0516 -0.36413 -0.179 -0.4667 -0.3541Zm6.85024 -5.37631c0 -0.41422 0.3358 -0.75 0.75 -0.75h1.2919c0.4142 0 0.75 0.33578 0.75 0.75 0 0.41421 -0.3358 0.75 -0.75 0.75h-1.2919c-0.4142 0 -0.75 -0.33579 -0.75 -0.75Zm-10.440933 -0.75c-0.414214 0 -0.75000001 0.33578 -0.75000001 0.75 0 0.41421 0.33578601 0.75 0.75000001 0.75H2.05052c0.41422 0 0.75 -0.33579 0.75 -0.75 0 -0.41422 -0.33578 -0.75 -0.75 -0.75H0.758667ZM2.05503 2.05646c0.29289 -0.29289 0.76776 -0.29289 1.06066 0l0.91348 0.91348c0.29289 0.2929 0.29289 0.76777 0 1.06066 -0.2929 0.2929 -0.76777 0.2929 -1.06066 0l-0.91348 -0.91348c-0.2929 -0.29289 -0.2929 -0.76777 0 -1.06066ZM11.9438 3.117c0.2929 -0.29289 0.2929 -0.76777 0 -1.06066s-0.7678 -0.29289 -1.0606 0l-0.91353 0.91348c-0.29289 0.29289 -0.29289 0.76777 0 1.06066 0.29293 0.29289 0.76773 0.29289 1.06063 0l0.9135 -0.91348Z" clip-rule="evenodd" stroke-width="1"></path>
  </g>
</svg>