<svg xmlns="http://www.w3.org/2000/svg" fill="none" viewBox="0 0 14 14" id="Backpack--Streamline-Core">
  <desc>
    Backpack Streamline Icon: https://streamlinehq.com
  </desc>
  <g id="backpack--bag-backpack-school-baggage-cloth-clothing-accessories">
    <path id="Vector" fill="#fddc5c" d="M5.75 3.5h2.5c0.53043 0 1.03914 0.21071 1.41421 0.58579 0.37509 0.37507 0.58579 0.88378 0.58579 1.41421v7.375h-6.5V5.5c0 -0.53043 0.21071 -1.03914 0.58579 -1.41421C4.71086 3.71071 5.21957 3.5 5.75 3.5Z" stroke-width="1"></path>
    <path id="Union" fill="#0c098c" fill-rule="evenodd" d="M6.02773 2.02773C6.28559 1.76987 6.63533 1.625 7 1.625c0.36467 0 0.71441 0.14487 0.97227 0.40273 0.22888 0.22888 0.36874 0.53015 0.39729 0.84999 -0.03974 -0.00181 -0.0796 -0.00272 -0.11956 -0.00272h-2.5c-0.03996 0 -0.07982 0.00091 -0.11956 0.00272 0.02855 -0.31984 0.16841 -0.62111 0.39729 -0.84999ZM4.375 3.26392V3c0 -0.69619 0.27656 -1.36387 0.76884 -1.85616C5.63613 0.651562 6.30381 0.375 7 0.375c0.69619 0 1.36387 0.276562 1.85616 0.76884C9.34844 1.63613 9.625 2.30381 9.625 3v0.26392c0.17329 0.10655 0.33496 0.23373 0.4812 0.37992 0.4922 0.49229 0.7688 1.15997 0.7688 1.85616v2H12c0.3978 0 0.7794 0.15804 1.0607 0.43934S13.5 8.60217 13.5 9v4c0 0.2761 -0.2239 0.5 -0.5 0.5H1c-0.276142 0 -0.5 -0.2239 -0.5 -0.5V9c0 -0.39783 0.158035 -0.77936 0.43934 -1.06066C1.22064 7.65804 1.60217 7.5 2 7.5h1.125v-2c0 -0.69619 0.27656 -1.36387 0.76884 -1.85616 0.1462 -0.14619 0.30787 -0.27337 0.48116 -0.37992ZM5.75 4.125c-0.36467 0 -0.71441 0.14487 -0.97227 0.40273S4.375 5.13533 4.375 5.5v1.125H6.25V6.25c0 -0.41421 0.33579 -0.75 0.75 -0.75s0.75 0.33579 0.75 0.75v0.375h1.875V5.5c0 -0.36467 -0.14487 -0.71441 -0.40273 -0.97227S8.61467 4.125 8.25 4.125h-2.5Zm-1.375 3.75H6.25v0.375c0 0.41421 0.33579 0.75 0.75 0.75s0.75 -0.33579 0.75 -0.75v-0.375h1.875v4.375h-5.25V7.875Z" clip-rule="evenodd" stroke-width="1"></path>
  </g>
</svg>