<svg xmlns="http://www.w3.org/2000/svg" fill="none" viewBox="0 0 14 14" id="Bag-Pound--Streamline-Core">
  <desc>
    Bag Pound Streamline Icon: https://streamlinehq.com
  </desc>
  <g id="bag-pound--bag-payment-cash-money-finance">
    <path id="Vector" fill="#fddc5c" d="M7 13.376c3.1471 0 5.3951 -1.2145 5.3951 -3.91768 0 -2.93824 -1.3488 -4.89706 -4.04633 -6.36618l1.06102 -1.4887c0.05391 -0.09768 0.08314 -0.20914 0.08475 -0.32309 0.00161 -0.11395 -0.02447 -0.22634 -0.07559 -0.325778 -0.05112 -0.099434 -0.12547 -0.18238 -0.21551 -0.24043 -0.09003 -0.058049 -0.19256 -0.089139 -0.29718 -0.090119H5.09375c-0.10462 0.00098 -0.20715 0.03207 -0.29719 0.090119 -0.09003 0.05805 -0.16438 0.140996 -0.2155 0.24043 -0.05113 0.099438 -0.0772 0.211828 -0.0756 0.325778 0.00161 0.11395 0.03085 0.22541 0.08475 0.32309l1.06103 1.4985C2.95371 4.58085 1.60495 6.53967 1.60495 9.47791 1.60495 12.1615 3.85289 13.376 7 13.376Z" stroke-width="1"></path>
    <path id="Union" fill="#0c098c" fill-rule="evenodd" d="M5.09375 -0.000949204v-0.000027358l-0.00585 0.000054717C4.8622 0.00119054 4.64472 0.0684317 4.45789 0.188881c-0.18628 0.120105 -0.3337 0.287444 -0.43268 0.479948 -0.09886 0.1923 -0.14771 0.406091 -0.14468 0.620361 0.00302 0.21428 0.05789 0.42673 0.16248 0.61625 0.01126 0.02041 0.02365 0.04017 0.03712 0.05919l0.66668 0.94156c-1.12415 0.69845 -2.01883 1.51413 -2.65496 2.49689C1.34211 6.56135 0.97995 7.90785 0.97995 9.47794c0 1.54666 0.66299 2.71776 1.79486 3.47486C3.87254 13.6871 5.36083 14.001 7 14.001c1.6391 0 3.128 -0.3139 4.2261 -1.0513 1.1325 -0.7604 1.794 -1.9366 1.794 -3.49135 0 -1.57001 -0.3622 -2.91668 -1.1121 -4.07391 -0.6356 -0.9808 -1.5293 -1.79391 -2.65201 -2.48832l0.66276 -0.92991c0.01391 -0.01951 0.02668 -0.0398 0.03825 -0.06077 0.1046 -0.18952 0.1595 -0.40198 0.1625 -0.61625 0.003 -0.21426 -0.0458 -0.428059 -0.14471 -0.620361C9.87582 0.476324 9.7284 0.308985 9.54211 0.188881c-0.18682 -0.1204493 -0.4043 -0.18769046 -0.63001 -0.189802845l0.00001 -0.000027359H5.09375ZM6.16132 2.7408 5.13229 1.28749c-0.00107 -0.00463 -0.0018 -0.00998 -0.00189 -0.01594 -0.00012 -0.00874 0.0012 -0.0164 0.00305 -0.0225h3.73311c0.00185 0.0061 0.00317 0.01376 0.00304 0.0225 -0.00008 0.00577 -0.00077 0.01097 -0.00178 0.0155L7.83981 2.72942c-0.10381 0.14565 -0.14024 0.32878 -0.10009 0.50307 0.04016 0.17428 0.15305 0.32302 0.31012 0.40856 1.28614 0.70045 2.20686 1.49383 2.80916 2.42319 0.5988 0.92401 0.9111 2.02587 0.9111 3.39411 0 1.14845 -0.4625 1.93105 -1.2408 2.45365 -0.81261 0.5456 -2.02127 0.839 -3.5293 0.839 -1.50794 0 -2.71717 -0.2933 -3.53019 -0.8372 -0.77888 -0.521 -1.23986 -1.2989 -1.23986 -2.43586 0 -1.36816 0.31222 -2.47018 0.91125 -3.39562 0.60256 -0.9309 1.52375 -1.72686 2.8105 -2.43232 0.15627 -0.08567 0.26853 -0.23397 0.30856 -0.40763 0.04004 -0.17365 0.00404 -0.35613 -0.09894 -0.50157Zm2.44285 3.48013c0.25383 -0.57114 0.25364 -0.57122 0.25344 -0.57131l-0.00042 -0.00019 -0.00094 -0.00041 -0.00224 -0.00099 -0.00596 -0.00259 -0.01768 -0.0075c-0.01428 -0.00597 -0.03353 -0.01383 -0.05729 -0.02307 -0.0474 -0.01846 -0.1133 -0.04268 -0.19381 -0.06861 -0.15932 -0.0513 -0.38434 -0.11203 -0.64167 -0.1456 -0.4893 -0.06382 -1.24679 -0.04608 -1.81704 0.52416 -0.39785 0.39784 -0.51163 0.91841 -0.54766 1.35417 -0.01332 0.161 -0.01688 0.33312 -0.01591 0.50448H5.25c-0.34518 0 -0.625 0.27983 -0.625 0.625 0 0.34518 0.27982 0.625 0.625 0.625h0.31321c-0.01445 0.17739 -0.04226 0.32309 -0.08861 0.44278 -0.06411 0.1656 -0.16551 0.29246 -0.41059 0.37699 -0.04412 0.01373 -0.08613 0.03222 -0.12546 0.05487 -0.07625 0.04371 -0.14082 0.10219 -0.19118 0.17049 -0.05566 0.0751 -0.09486 0.1632 -0.11227 0.2589 -0.01277 0.0695 -0.01388 0.1417 -0.00192 0.214 0.01164 0.0714 0.03539 0.1387 0.06908 0.1998 0.04677 0.0853 0.11181 0.1565 0.18839 0.2102 0.06902 0.0486 0.14833 0.0836 0.234 0.101 0.0458 0.0094 0.09293 0.0138 0.14057 0.0126H8.75c0.34518 0 0.625 -0.2798 0.625 -0.625s-0.27982 -0.625 -0.625 -0.625H6.67701c0.08577 -0.25921 0.12387 -0.53134 0.13942 -0.79163h1.35024c0.34517 0 0.625 -0.27982 0.625 -0.625 0 -0.34517 -0.27983 -0.625 -0.625 -0.625H6.80655c-0.00129 -0.13903 0.0013 -0.27094 0.01209 -0.40147 0.02724 -0.32934 0.10039 -0.48789 0.1858 -0.57329 0.15891 -0.15892 0.42226 -0.2141 0.7715 -0.16855 0.16194 0.02113 0.31062 0.06065 0.42018 0.09593 0.05393 0.01737 0.09627 0.03302 0.12349 0.04362 0.01356 0.00528 0.02321 0.00924 0.02851 0.01146l0.0043 0.00181 0.00018 0.00009c0.31493 0.1385 0.68285 -0.00364 0.8227 -0.31831 0.14019 -0.31543 -0.00187 -0.68478 -0.3173 -0.82497l-0.25383 0.57114Z" clip-rule="evenodd" stroke-width="1"></path>
  </g>
</svg>