<svg xmlns="http://www.w3.org/2000/svg" fill="none" viewBox="0 0 14 14" id="Bill-1--Streamline-Core">
  <desc>
    Bill 1 Streamline Icon: https://streamlinehq.com
  </desc>
  <g id="bill-1--billing-bills-payment-finance-cash-currency-money-accounting">
    <path id="Vector" fill="#7af1ff" d="M12 1H2c-0.55228 0 -1 0.44772 -1 1v5.25c0 0.55228 0.44772 1 1 1h10c0.5523 0 1 -0.44772 1 -1V2c0 -0.55228 -0.4477 -1 -1 -1Z" stroke-width="1"></path>
    <path id="Union" fill="#0c098c" fill-rule="evenodd" d="M1.625 2c0 -0.20711 0.16789 -0.375 0.375 -0.375h10c0.2071 0 0.375 0.16789 0.375 0.375v5.25c0 0.20711 -0.1679 0.375 -0.375 0.375H2c-0.20711 0 -0.375 -0.16789 -0.375 -0.375V2ZM2 0.375C1.10254 0.375 0.375 1.10254 0.375 2v5.25c0 0.89746 0.72754 1.625 1.625 1.625h10c0.8975 0 1.625 -0.72754 1.625 -1.625V2c0 -0.89746 -0.7275 -1.625 -1.625 -1.625H2Zm3.25 4.25c0 -0.9665 0.7835 -1.75 1.75 -1.75s1.75 0.7835 1.75 1.75 -0.7835 1.75 -1.75 1.75 -1.75 -0.7835 -1.75 -1.75Zm-2.75 7.75c-0.34518 0 -0.625 0.2798 -0.625 0.625s0.27982 0.625 0.625 0.625h9c0.3452 0 0.625 -0.2798 0.625 -0.625s-0.2798 -0.625 -0.625 -0.625h-9ZM10.7251 5.5c-0.4833 0 -0.875 -0.39175 -0.875 -0.875s0.3917 -0.875 0.875 -0.875 0.875 0.39175 0.875 0.875 -0.3917 0.875 -0.875 0.875Zm-7.4502 0h-0.00003c-0.48325 0 -0.875 -0.39175 -0.875 -0.875s0.39175 -0.875 0.875 -0.875h0.00003c0.48325 0 0.875 0.39175 0.875 0.875s-0.39175 0.875 -0.875 0.875ZM0.875 10.625c0 -0.3452 0.27982 -0.625 0.625 -0.625h11c0.3452 0 0.625 0.2798 0.625 0.625s-0.2798 0.625 -0.625 0.625h-11c-0.34518 0 -0.625 -0.2798 -0.625 -0.625Z" clip-rule="evenodd" stroke-width="1"></path>
  </g>
</svg>