<svg xmlns="http://www.w3.org/2000/svg" fill="none" viewBox="0 0 14 14" id="Building-2--Streamline-Core">
  <desc>
    Building 2 Streamline Icon: https://streamlinehq.com
  </desc>
  <g id="building-2--real-home-tower-building-house-estate">
    <path id="Vector" fill="#fddc5c" d="M8.5 13H1V4l3.75 -3L8.5 4v9Z" stroke-width="1"></path>
    <path id="Union" fill="#0c098c" fill-rule="evenodd" d="M5.14043 0.511957c-0.22826 -0.182609 -0.5526 -0.182609 -0.78086 0L0.609566 3.51196C0.461306 3.63056 0.375 3.81014 0.375 4v9c0 0.3452 0.279822 0.625 0.625 0.625h12c0.3452 0 0.625 -0.2798 0.625 -0.625V6.5c0 -0.34518 -0.2798 -0.625 -0.625 -0.625H9.125V4c0 -0.18986 -0.08631 -0.36944 -0.23457 -0.48804l-3.75 -3.000003ZM7.875 6.5V4.30039l-3.125 -2.5 -3.125 2.5V12.375H3.75V11.25c0 -0.5523 0.44772 -1 1 -1s1 0.4477 1 1v1.125h2.125V6.5ZM2.75 8.25c0 -0.41421 0.33579 -0.75 0.75 -0.75H6c0.41421 0 0.75 0.33579 0.75 0.75S6.41421 9 6 9H3.5c-0.41421 0 -0.75 -0.33579 -0.75 -0.75Zm0.75 -3.5c-0.41421 0 -0.75 0.33579 -0.75 0.75s0.33579 0.75 0.75 0.75H6c0.41421 0 0.75 -0.33579 0.75 -0.75s-0.33579 -0.75 -0.75 -0.75H3.5Z" clip-rule="evenodd" stroke-width="1"></path>
  </g>
</svg>