<svg xmlns="http://www.w3.org/2000/svg" fill="none" viewBox="0 0 14 14" id="Coin-Share--Streamline-Core">
  <desc>
    Coin Share Streamline Icon: https://streamlinehq.com
  </desc>
  <g id="coin-share--payment-cash-money-finance-receive-give-coin-hand">
    <path id="Union" fill="#fddc5c" fill-rule="evenodd" d="M10.625 3.25c0 -0.48325 -0.3917 -0.875 -0.87498 -0.875 -0.48324 0 -0.875 0.39175 -0.875 0.875v2c0 0.48325 0.39176 0.875 0.875 0.875 0.48328 0 0.87498 -0.39175 0.87498 -0.875v-2ZM4.34912 13.375l6.44258 0c0.4602 0 0.8333 -0.3731 0.8333 -0.8333 0 -0.9205 -0.7462 -1.6667 -1.66665 -1.6667H5.47967c0.14437 -0.0511 0.27988 -0.1344 0.39538 -0.2499 0.41421 -0.4142 0.41421 -1.08576 0 -1.49998L4.71083 7.96091c-0.37507 -0.37508 -0.88378 -0.58579 -1.41421 -0.58579H0.000244141l0.000152975 3.47918L3.06875 12.9114c0.35943 0.2996 0.8125 0.4636 1.28037 0.4636Z" clip-rule="evenodd" stroke-width="1"></path>
    <path id="Union_2" fill="#0c098c" fill-rule="evenodd" d="M5.5 4.25C5.5 1.90279 7.40279 0 9.75 0 12.0972 0 14 1.90279 14 4.25S12.0972 8.5 9.75 8.5C7.40279 8.5 5.5 6.59721 5.5 4.25Zm5.125 -1c0 -0.48325 -0.3918 -0.875 -0.875 -0.875 -0.48325 0 -0.875 0.39175 -0.875 0.875v2c0 0.48325 0.39175 0.875 0.875 0.875 0.4832 0 0.875 -0.39175 0.875 -0.875v-2ZM0.144862 10.4749c0.220977 -0.2652 0.61508 -0.301 0.880258 -0.08l2.44373 2.0364c0.2471 0.2059 0.55859 0.3187 0.88025 0.3187l6.4426 0c0.115 0 0.2083 -0.0933 0.2083 -0.2083 0 -0.5753 -0.4664 -1.0417 -1.04167 -1.0417H5.57424c-0.56565 0.1558 -1.19666 0.0115 -1.64118 -0.4331l-0.75 -0.75c-0.24408 -0.244 -0.24408 -0.63976 0 -0.88384 0.24408 -0.24408 0.6398 -0.24408 0.88388 0l0.75 0.75004c0.12181 0.1218 0.29781 0.1564 0.4504 0.1038 0.00223 -0.0008 0.00446 -0.0016 0.0067 -0.0024 0.05803 -0.0211 0.11248 -0.0549 0.15902 -0.1014 0.17013 -0.1702 0.17013 -0.44602 0 -0.61616L4.26884 8.40273C4.01098 8.14487 3.66125 8 3.29657 8H0.625C0.279822 8 0 7.72018 0 7.375s0.279822 -0.625 0.625 -0.625h2.67157c0.6962 0 1.36387 0.27656 1.85616 0.76884l1.16421 1.16422c0.42516 0.42516 0.57573 1.02094 0.45171 1.56694h3.18968c1.26567 0 2.29167 1.026 2.29167 2.2917 0 0.8054 -0.6529 1.4583 -1.4583 1.4583l-6.4426 0c-0.61408 0 -1.20873 -0.2153 -1.68048 -0.6084L0.224885 11.3551c-0.2651733 -0.2209 -0.3010008 -0.615 -0.080023 -0.8802Z" clip-rule="evenodd" stroke-width="1"></path>
  </g>
</svg>