<svg xmlns="http://www.w3.org/2000/svg" fill="none" viewBox="0 0 14 14" id="Discount-Percent-Fire--Streamline-Core">
  <desc>
    Discount Percent Fire Streamline Icon: https://streamlinehq.com
  </desc>
  <g id="discount-percent-fire--shop-shops-stores-discount-coupon-hot-trending">
    <path id="Vector 2217" fill="#79ee8d" d="M12.3942 8.45522c0 -4.98429 -4.54713 -7.29026 -6.68885 -7.83022 0.80146 1.94015 0.75788 3.37637 -0.27672 5.14627 -0.16749 0.28653 -0.57479 0.31498 -0.79972 0.06803L3.31279 4.39437C-0.129714 7.93532 1.8522 13.6309 7.30335 13.3661c4.17065 -0.2492 5.09085 -3.39314 5.09085 -4.91088Z" stroke-width="1"></path>
    <g id="Group 4471">
      <path id="Union" fill="#0c098c" fill-rule="evenodd" d="M5.85809 0.0189846c-0.22903 -0.0577414 -0.47104 0.018558 -0.62554 0.1972124 -0.1545 0.178655 -0.19509 0.429144 -0.10491 0.647445 0.37892 0.917288 0.53768 1.666688 0.50355 2.367978 -0.03173 0.65203 -0.23254 1.30993 -0.65137 2.06488L3.77479 3.97352c-0.11606 -0.12741 -0.27957 -0.20125 -0.4519 -0.20405 -0.17232 -0.0028 -0.33815 0.06568 -0.45829 0.18925C0.978843 5.89841 0.549346 8.46871 1.39404 10.5431c0.85301 2.0949 2.96648 3.5917 5.93958 3.4473l0.00695 -0.0004c2.25907 -0.135 3.70563 -1.0675 4.57303 -2.2298 0.8484 -1.1369 1.1055 -2.4418 1.1055 -3.30496 0 -2.70607 -1.242 -4.68755 -2.7476 -6.0458C8.77908 1.06309 7.01053 0.309534 5.85809 0.0189846ZM6.87971 3.29238c0.02691 -0.5529 -0.03742 -1.10389 -0.18017 -1.67098 0.85903 0.36012 1.85476 0.92239 2.73467 1.71618 1.30339 1.1758 2.33489 2.83945 2.33489 5.11766 0 0.65458 -0.203 1.68056 -0.8573 2.55736 -0.6349 0.8508 -1.73284 1.6145 -3.64229 1.7294 -2.47608 0.1191 -4.07796 -1.099 -4.71777 -2.6703 -0.5822 -1.42977 -0.39916 -3.22682 0.77113 -4.73803l0.84392 0.92652c0.48486 0.53231 1.40338 0.50734 1.80136 -0.17349 0.55378 -0.94736 0.86543 -1.8462 0.91156 -2.79432ZM9.0719 8.08247c0.24408 -0.24408 0.24408 -0.63981 0 -0.88389 -0.24408 -0.24408 -0.63981 -0.24408 -0.88389 0L4.90468 10.4819c-0.24408 0.2441 -0.24408 0.6398 0 0.8839 0.24408 0.2441 0.63981 0.2441 0.88388 0L9.0719 8.08247Zm-4.20257 -0.2149c0 0.48325 0.39175 0.875 0.875 0.875s0.875 -0.39175 0.875 -0.875c0 -0.48324 -0.39175 -0.875 -0.875 -0.875s-0.875 0.39176 -0.875 0.875Zm2.65893 2.82913c0 0.4832 0.39175 0.875 0.875 0.875s0.875 -0.3918 0.875 -0.875c0 -0.4833 -0.39175 -0.87502 -0.875 -0.87502s-0.875 0.39172 -0.875 0.87502Z" clip-rule="evenodd" stroke-width="1"></path>
    </g>
  </g>
</svg>