<svg xmlns="http://www.w3.org/2000/svg" fill="none" viewBox="0 0 14 14" id="Gift-2--Streamline-Core">
  <desc>
    Gift 2 Streamline Icon: https://streamlinehq.com
  </desc>
  <g id="gift-2--reward-box-social-present-gift-media-rating-bow">
    <path id="Union" fill="#79ee8d" fill-rule="evenodd" d="M13 5.89243v-1.1008c0 -0.55229 -0.4477 -1 -1 -1H2c-0.55228 0 -1 0.44771 -1 1v1.1008c0 0.55229 0.44772 1 1 1h10c0.5523 0 1 -0.44771 1 -1Zm-0.7244 1.00003V12c0 0.5523 -0.4477 1 -1 1H2.72412c-0.55228 0 -1 -0.4477 -1 -1V6.89246H12.2756Z" clip-rule="evenodd" stroke-width="1"></path>
    <path id="Union_2" fill="#0c098c" fill-rule="evenodd" d="M2.04732 3.16663c-0.04773 -0.13854 -0.08577 -0.2807 -0.11231 -0.42475 -0.1048 -0.5688 -0.04196 -1.27214 0.46349 -1.832913C2.89625 0.356733 3.66081 0.125 4.55725 0.125c1.11362 0 1.93959 0.71546 2.44273 1.39307C7.50312 0.84046 8.32908 0.125 9.4427 0.125c0.8964 0 1.661 0.231733 2.1588 0.783967 0.5054 0.560773 0.5682 1.264113 0.4634 1.832913 -0.0265 0.14405 -0.0645 0.28621 -0.1123 0.42475H12c0.8975 0 1.625 0.72753 1.625 1.625v1.1008c0 0.56434 -0.2877 1.06148 -0.7244 1.35279V12c0 0.8975 -0.7275 1.625 -1.625 1.625H2.72412c-0.89746 0 -1.625 -0.7275 -1.625 -1.625V7.24506C0.662561 6.95372 0.375 6.45666 0.375 5.89243v-1.1008c0 -0.89747 0.72754 -1.625 1.625 -1.625h0.04732Zm2.00664 0c-0.01948 -0.01948 -0.04047 -0.04191 -0.06285 -0.06774 -0.16604 -0.19163 -0.2933 -0.4474 -0.33507 -0.6741 -0.04106 -0.22287 0.01263 -0.3112 0.04236 -0.34417 0.03742 -0.04152 0.22666 -0.20562 0.85885 -0.20562 0.3234 0 0.70516 0.22438 1.06109 0.71832 0.1405 0.19496 0.24852 0.39335 0.328 0.57331H4.05396Zm3.99965 0h1.89238c0.01948 -0.01948 0.04047 -0.04191 0.06281 -0.06774 0.1661 -0.19163 0.2933 -0.4474 0.3351 -0.6741 0.0411 -0.22287 -0.0126 -0.3112 -0.0423 -0.34417 -0.0375 -0.04152 -0.2267 -0.20562 -0.8589 -0.20562 -0.3234 0 -0.70516 0.22438 -1.06109 0.71832 -0.14049 0.19496 -0.24851 0.39335 -0.328 0.57331ZM11.2756 12.375H8.125l0 -4.85754h3.5256V12c0 0.2071 -0.1679 0.375 -0.375 0.375Zm-5.4006 0 0 -4.85754H2.34912V12c0 0.2071 0.16789 0.375 0.375 0.375H5.875Zm-4.25 -7.58337c0 -0.20711 0.16789 -0.375 0.375 -0.375h10c0.2071 0 0.375 0.16789 0.375 0.375v1.1008c0 0.20711 -0.1679 0.375 -0.375 0.375H2c-0.20711 0 -0.375 -0.16789 -0.375 -0.375v-1.1008Z" clip-rule="evenodd" stroke-width="1"></path>
  </g>
</svg>