<svg xmlns="http://www.w3.org/2000/svg" fill="none" viewBox="0 0 14 14" id="Graph-Arrow-Increase--Streamline-Core">
  <desc>
    Graph Arrow Increase Streamline Icon: https://streamlinehq.com
  </desc>
  <g id="graph-arrow-increase--ascend-growth-up-arrow-stats-graph-right-grow">
    <path id="Vector" fill="#fddc5c" d="M7 14c3.866 0 7 -3.134 7 -7 0 -3.86599 -3.134 -7 -7 -7 -3.86599 0 -7 3.13401 -7 7 0 3.866 3.13401 7 7 7Z" stroke-width="1"></path>
    <path id="Union" fill="#0c098c" fill-rule="evenodd" d="M13.7616 5.86533c0.1736 -0.10656 0.2652 -0.30777 0.2316 -0.50866l-0.6594 -3.93921c-0.0221 -0.13231 -0.0965 -0.25017 -0.2064 -0.3271 -0.1099 -0.07692 -0.2461 -0.106448 -0.378 -0.08195L9.00994 1.703c-0.19581 0.03637 -0.35137 0.18548 -0.39598 0.37958 -0.04462 0.1941 0.03021 0.39617 0.19049 0.51439l1.65185 1.21845 -2.84583 4.06389 -2.59854 -1.8217c-0.13578 -0.09518 -0.30381 -0.13251 -0.46712 -0.10377 -0.1633 0.02875 -0.30849 0.12121 -0.40361 0.25703L0.1131 11.963c-0.1979989 0.2828 -0.1292995 0.6725 0.153444 0.8705 0.282745 0.198 0.672464 0.1293 0.870466 -0.1535l3.66941 -5.23989 2.59853 1.8217c0.13578 0.09518 0.30381 0.13251 0.46712 0.10377 0.1633 -0.02875 0.30849 -0.12121 0.40361 -0.25703l3.18692 -4.55091 1.7406 1.28395c0.164 0.12091 0.3848 0.1303 0.5584 0.02374Z" clip-rule="evenodd" stroke-width="1"></path>
  </g>
</svg>