<svg xmlns="http://www.w3.org/2000/svg" fill="none" viewBox="0 0 14 14" id="Graph-Bar-Increase--Streamline-Core">
  <desc>
    Graph Bar Increase Streamline Icon: https://streamlinehq.com
  </desc>
  <g id="graph-bar-increase--up-product-performance-increase-arrow-graph-business-chart">
    <path id="Union" fill="#fddc5c" fill-rule="evenodd" d="M9.16675 6v7.375H13.375V6H9.16675ZM0.625122 9.75v3.625H4.83341V9.75H0.625122Z" clip-rule="evenodd" stroke-width="1"></path>
    <path id="Union_2" fill="#0c098c" fill-rule="evenodd" d="M0.033218 6.38586c0.111034 0.32683 0.465995 0.50177 0.792827 0.39074L11.3295 3.20829l0.4481 1.30248c0.066 0.19157 0.241 0.32444 0.4432 0.33644 0.2023 0.012 0.3918 -0.09924 0.4799 -0.28167l1.2495 -2.58718c0.1196 -0.24768 0.0167 -0.54546 -0.2303 -0.66647L11.1464 0.0511203c-0.1818 -0.0890303 -0.3993 -0.05973341 -0.551 0.0742127 -0.1516 0.133946 -0.2076 0.346125 -0.1418 0.537484l0.4692 1.363483L0.423955 5.59303c-0.326832 0.11104 -0.501771 0.466 -0.390737 0.79283ZM9.16663 14H13.375c0.3452 0 0.625 -0.2798 0.625 -0.625V6c0 -0.34518 -0.2798 -0.625 -0.625 -0.625H9.16671c-0.34518 0 -0.625 0.27982 -0.625 0.625v1.625H4.83334c-0.34518 0 -0.625 0.27982 -0.625 0.625v0.875H0.625083c-0.345178 0 -0.6249995535 0.27982 -0.6249995535 0.625v3.625c0 0.3452 0.2798215535 0.625 0.6249995535 0.625H9.16663Zm-4.95829 -3.625v2.375H1.25008v-2.375h2.95826ZM12.75 12.75V6.625H9.79171v6.125H12.75Z" clip-rule="evenodd" stroke-width="1"></path>
  </g>
</svg>