<svg xmlns="http://www.w3.org/2000/svg" fill="none" viewBox="0 0 14 14" id="Receipt-Subtract--Streamline-Core">
  <desc>
    Receipt Subtract Streamline Icon: https://streamlinehq.com
  </desc>
  <g id="receipt-subtract--shop-shopping-pay-payment-store-cash-bill-receipt-subtract-minus-remove">
    <path id="Vector" fill="#7af1ff" d="M3 1h8.5c-0.3978 0 -0.7794 0.15804 -1.0607 0.43934S10 2.10218 10 2.5V13l-2.25 -1.5L5.5 13l-2.25 -1.5L1 13V3c0 -0.53043 0.21071 -1.03914 0.58579 -1.41421C1.96086 1.21071 2.46957 1 3 1Z" stroke-width="1"></path>
    <path id="Union" fill="#0c098c" fill-rule="evenodd" d="M1.14384 1.14384C1.63613 0.651562 2.30381 0.375 3 0.375h8.5c0.5636 0 1.1041 0.223883 1.5026 0.622398 0.3985 0.398512 0.6224 0.939022 0.6224 1.502602V5c0 0.34518 -0.2798 0.625 -0.625 0.625h-2.375V13c0 0.2305 -0.1269 0.4423 -0.3301 0.551 -0.2032 0.1088 -0.4498 0.0969 -0.64159 -0.031L7.75 12.2512 5.84669 13.52c-0.20994 0.14 -0.48344 0.14 -0.69338 0L3.25 12.2512 1.34669 13.52c-0.19179 0.1279 -0.438378 0.1398 -0.641601 0.031C0.501865 13.4423 0.375 13.2305 0.375 13V3c0 -0.69619 0.276562 -1.36387 0.76884 -1.85616ZM3 1.625h6.56351c-0.12308 0.2724 -0.18851 0.57033 -0.18851 0.875v9.3322L8.09669 10.98c-0.20994 -0.14 -0.48344 -0.14 -0.69338 0L5.5 12.2488 3.59669 10.98c-0.20994 -0.14 -0.48344 -0.14 -0.69338 0l-1.27831 0.8522V3c0 -0.36467 0.14487 -0.71441 0.40273 -0.97227S2.63533 1.625 3 1.625Zm0.5 4.125c-0.41421 0 -0.75 0.33579 -0.75 0.75s0.33579 0.75 0.75 0.75h4c0.41421 0 0.75 -0.33579 0.75 -0.75s-0.33579 -0.75 -0.75 -0.75h-4Z" clip-rule="evenodd" stroke-width="1"></path>
  </g>
</svg>