<svg xmlns="http://www.w3.org/2000/svg" fill="none" viewBox="0 0 14 14" id="Scanner-Bar-Code--Streamline-Core">
  <desc>
    Scanner Bar Code Streamline Icon: https://streamlinehq.com
  </desc>
  <g id="scanner-bar-code--codes-tags-upc-barcode">
    <path id="Union" fill="#7af1ff" fill-rule="evenodd" d="M2 0.375c-0.43098 0 -0.8443 0.171205 -1.149049 0.475951C0.546205 1.1557 0.375 1.56902 0.375 2v10c0 0.431 0.171205 0.8443 0.475951 1.149 0.304749 0.3048 0.718069 0.476 1.149049 0.476h10c0.431 0 0.8443 -0.1712 1.149 -0.476 0.3048 -0.3047 0.476 -0.718 0.476 -1.149V2c0 -0.43098 -0.1712 -0.8443 -0.476 -1.149049C12.8443 0.546205 12.431 0.375 12 0.375H2Z" clip-rule="evenodd" stroke-width="1"></path>
    <path id="Union_2" fill="#0c098c" fill-rule="evenodd" d="M1.73483 1.73483C1.80516 1.66451 1.90054 1.625 2 1.625h2c0.34518 0 0.625 -0.27982 0.625 -0.625 0 -0.345178 -0.27982 -0.625 -0.625 -0.625H2c-0.43098 0 -0.8443 0.171205 -1.149049 0.475951C0.546205 1.1557 0.375 1.56902 0.375 2v2c0 0.34518 0.279822 0.625 0.625 0.625 0.34518 0 0.625 -0.27982 0.625 -0.625V2c0 -0.09946 0.03951 -0.19484 0.10983 -0.26517ZM10 0.375c-0.34518 0 -0.625 0.279822 -0.625 0.625 0 0.34518 0.27982 0.625 0.625 0.625h2c0.0995 0 0.1948 0.03951 0.2652 0.10983 0.0703 0.07033 0.1098 0.16571 0.1098 0.26517v2c0 0.34518 0.2798 0.625 0.625 0.625s0.625 -0.27982 0.625 -0.625V2c0 -0.43098 -0.1712 -0.8443 -0.476 -1.149049C12.8443 0.546205 12.431 0.375 12 0.375h-2Zm3 9c0.3452 0 0.625 0.27982 0.625 0.625v2c0 0.431 -0.1712 0.8443 -0.476 1.149 -0.3047 0.3048 -0.718 0.476 -1.149 0.476h-2c-0.34518 0 -0.625 -0.2798 -0.625 -0.625s0.27982 -0.625 0.625 -0.625h2c0.0995 0 0.1948 -0.0395 0.2652 -0.1098 0.0703 -0.0704 0.1098 -0.1657 0.1098 -0.2652v-2c0 -0.34518 0.2798 -0.625 0.625 -0.625ZM1.625 10c0 -0.34518 -0.27982 -0.625 -0.625 -0.625 -0.345178 0 -0.625 0.27982 -0.625 0.625v2c0 0.431 0.171205 0.8443 0.475951 1.149 0.304749 0.3048 0.718069 0.476 1.149049 0.476h2c0.34518 0 0.625 -0.2798 0.625 -0.625s-0.27982 -0.625 -0.625 -0.625H2c-0.09946 0 -0.19484 -0.0395 -0.26517 -0.1098 -0.07032 -0.0704 -0.10983 -0.1657 -0.10983 -0.2652v-2Zm9.1809 -6.95825c0.4142 0 0.75 0.33578 0.75 0.75v6.41665c0 0.4142 -0.3358 0.75 -0.75 0.75s-0.75 -0.3358 -0.75 -0.75V3.79175c0 -0.41422 0.3358 -0.75 0.75 -0.75Zm-8.36181 0.75c0 -0.41422 0.33579 -0.75 0.75 -0.75 0.41422 0 0.75 0.33578 0.75 0.75v6.41665c0 0.4142 -0.33578 0.75 -0.75 0.75 -0.41421 0 -0.75 -0.3358 -0.75 -0.75V3.79175Zm5.82471 -0.75c0.41421 0 0.75 0.33578 0.75 0.75v3.79166c0 0.41422 -0.33579 0.75 -0.75 0.75s-0.75 -0.33578 -0.75 -0.75V3.79175c0 -0.41422 0.33579 -0.75 0.75 -0.75Zm-0.75 7.16655c0 0.4142 0.33579 0.75 0.75 0.75s0.75 -0.3358 0.75 -0.75v-0.54172c0 -0.41421 -0.33579 -0.75 -0.75 -0.75s-0.75 0.33579 -0.75 0.75v0.54172ZM5.73145 3.04175c0.41421 0 0.75 0.33578 0.75 0.75v3.79166c0 0.41422 -0.33579 0.75 -0.75 0.75 -0.41422 0 -0.75 -0.33578 -0.75 -0.75V3.79175c0 -0.41422 0.33578 -0.75 0.75 -0.75Zm-0.75 7.16655c0 0.4142 0.33578 0.75 0.75 0.75 0.41421 0 0.75 -0.3358 0.75 -0.75v-0.54172c0 -0.41421 -0.33579 -0.75 -0.75 -0.75 -0.41422 0 -0.75 0.33579 -0.75 0.75v0.54172Z" clip-rule="evenodd" stroke-width="1"></path>
  </g>
</svg>