<svg xmlns="http://www.w3.org/2000/svg" fill="none" viewBox="0 0 14 14" id="Store-Computer--Streamline-Core">
  <desc>
    Store Computer Streamline Icon: https://streamlinehq.com
  </desc>
  <g id="store-computer--store-shop-shops-stores-online-computer-website-desktop-app">
    <path id="Union" fill="#ff7972" fill-rule="evenodd" d="M1.91138 3.375c-0.34518 0 -0.625 0.27982 -0.625 0.625v5.96875c0 0.89745 0.72753 1.62505 1.625 1.62505h8.17672c0.8975 0 1.625 -0.7276 1.625 -1.62505V4c0 -0.34518 -0.2798 -0.625 -0.625 -0.625H1.91138Z" clip-rule="evenodd" stroke-width="1"></path>
    <path id="Union_2" fill="#0c098c" fill-rule="evenodd" d="M2.04712 0.871413C2.29231 0.340187 2.82399 0 3.40906 0h7.18184c0.5851 0 1.1168 0.340187 1.362 0.871413l0.9983 2.163097c0.0186 0.03882 0.0323 0.08042 0.0404 0.124 0.0062 0.03326 0.0089 0.06695 0.0083 0.10054v0.65762c0 1.28866 -1.0447 2.33333 -2.3333 2.33333 -0.74362 0 -1.40598 -0.34785 -1.83327 -0.8897 -0.42728 0.54185 -1.08964 0.8897 -1.83325 0.8897 -0.74368 0 -1.40609 -0.34791 -1.83337 -0.88985 -0.42728 0.54194 -1.0897 0.88985 -1.83338 0.88985C2.04467 6.25 1 5.20533 1 3.91667v-0.66564l0.00009 -0.01042L2.04712 0.871413ZM1.00009 3.24061c0.00138 -0.07516 0.01935 -0.14626 0.05039 -0.2098l-0.00446 0.00966c-0.02945 0.0638 -0.04466 0.13198 -0.04593 0.20014ZM1.91138 7c0.34517 0 0.625 0.27982 0.625 0.625v2.34375c0 0.20715 0.16789 0.37505 0.375 0.37505h8.17672c0.2071 0 0.375 -0.1679 0.375 -0.37505V7.625c0 -0.34518 0.2799 -0.625 0.625 -0.625 0.3452 0 0.625 0.27982 0.625 0.625v2.34375c0 0.89745 -0.7275 1.62505 -1.625 1.62505H8.77577l0.4625 1.1562h0.76149c0.34514 0 0.62504 0.2798 0.62504 0.625s-0.2799 0.625 -0.62504 0.625H9.0114c-0.00767 0.0002 -0.01534 0.0002 -0.02299 0H5.0111c-0.00765 0.0002 -0.01531 0.0002 -0.02299 0h-0.98835c-0.34518 0 -0.625 -0.2798 -0.625 -0.625s0.27982 -0.625 0.625 -0.625h0.76148l0.4625 -1.1562H2.91138c-0.89747 0 -1.625 -0.7276 -1.625 -1.62505V7.625c0 -0.34518 0.27982 -0.625 0.625 -0.625Z" clip-rule="evenodd" stroke-width="1"></path>
  </g>
</svg>