<svg xmlns="http://www.w3.org/2000/svg" fill="none" viewBox="0 0 14 14" id="Yuan-Yen-Circle--Streamline-Core">
  <desc>
    Yuan Yen Circle Streamline Icon: https://streamlinehq.com
  </desc>
  <g id="yuan-yen-circle--exchange-payment-forex-finance-yuan-yen-renmindi-foreign-currency">
    <path id="Vector" fill="#7af1ff" d="M7.00002 13.377c3.52138 0 6.37598 -2.8546 6.37598 -6.376 0 -3.52137 -2.8546 -6.376 -6.37598 -6.376C3.47865 0.625 0.624023 3.47963 0.624023 7.001c0 3.5214 2.854627 6.376 6.375997 6.376Z" stroke-width="1"></path>
    <path id="Union" fill="#0c098c" fill-rule="evenodd" d="M1.24902 7.001c0 -3.17619 2.57481 -5.751 5.751 -5.751 3.17618 0 5.75098 2.57481 5.75098 5.751 0 3.1762 -2.5748 5.751 -5.75098 5.751 -3.17619 0 -5.751 -2.5748 -5.751 -5.751ZM7.00002 0C3.13348 0 -0.000976562 3.13445 -0.000976562 7.001c0 3.8665 3.134456562 7.001 7.000996562 7.001 3.86658 0 7.00098 -3.1345 7.00098 -7.001C14.001 3.13445 10.8666 0 7.00002 0Zm2.52411 3.49935c0.2765 0.20663 0.33315 0.59828 0.12652 0.87478L7.78177 6.875h0.90819c0.34518 0 0.625 0.27982 0.625 0.625s-0.27982 0.625 -0.625 0.625h-0.985v0.56006h0.985c0.34518 0 0.625 0.27982 0.625 0.625s-0.27982 0.625 -0.625 0.625h-0.985V10.25c0 0.3452 -0.27983 0.625 -0.625 0.625 -0.34518 0 -0.625 -0.2798 -0.625 -0.625v-0.31494h-0.995c-0.34518 0 -0.625 -0.27982 -0.625 -0.625s0.27982 -0.625 0.625 -0.625h0.995V8.125h-0.995c-0.34518 0 -0.625 -0.27982 -0.625 -0.625s0.27982 -0.625 0.625 -0.625h0.9173L4.50022 4.37529c-0.20727 -0.27602 -0.15153 -0.66781 0.12449 -0.87507 0.27602 -0.20727 0.66781 -0.15153 0.87507 0.12449l1.57901 2.10282 1.57056 -2.10166c0.20663 -0.2765 0.59828 -0.33315 0.87478 -0.12652Z" clip-rule="evenodd" stroke-width="1"></path>
  </g>
</svg>