<svg xmlns="http://www.w3.org/2000/svg" fill="none" viewBox="0 0 14 14" id="Ai-Generate-Portrait-Image-Spark--Streamline-Flex-Neon">
  <desc>
    Ai Generate Portrait Image Spark Streamline Icon: https://streamlinehq.com
  </desc>
  <g id="ai-generate-portrait-image-spark--picture-photography-photo-image-artificial-intelligence-ai">
    <path id="Intersect" stroke="#000cfe" stroke-linecap="round" stroke-linejoin="round" d="M5.58108 13.4999c-0.90076 0 -1.78424 -0.0824 -2.64471 -0.1783 -0.13448 -0.015 -0.26592 -0.0408 -0.3934 -0.0765 0.14775 -0.6854 0.54354 -1.358 1.08533 -1.8009 0.55104 -0.4504 1.24085 -0.6964 1.95254 -0.6964 0.7117 0 1.40151 0.246 1.95255 0.6964s0.92944 1.0775 1.07106 1.7749c0 0 -0.00038 0.0112 -0.00061 0.0302 -0.12267 0.0336 -0.24896 0.0579 -0.37805 0.0723 -0.86047 0.0959 -1.74395 0.1783 -2.64471 0.1783Z" stroke-width="1"></path>
    <path id="Vector" stroke="#000cfe" stroke-linecap="round" stroke-linejoin="round" d="M5.57364 9.17255c1.03474 0 1.61679 -0.58205 1.61679 -1.61679 0 -1.03475 -0.58205 -1.6168 -1.61679 -1.6168 -1.03475 0 -1.61679 0.58205 -1.61679 1.6168 0 1.03474 0.58204 1.61679 1.61679 1.61679Z" stroke-width="1"></path>
    <path id="Vector 2140" stroke="#000cfe" stroke-linecap="round" stroke-linejoin="round" d="M8.90941 2.15966c0.49037 -0.49037 0.56628 -0.94022 0.92251 -1.393526 0.27888 -0.354845 0.80678 -0.354845 1.08568 0 0.3562 0.453306 0.4321 0.903156 0.9225 1.393526 0.4904 0.49037 0.9402 0.56628 1.3935 0.92251 0.3549 0.27886 0.3549 0.8068 0 1.08566 -0.4533 0.35623 -0.9031 0.43215 -1.3935 0.92251 -0.4903 0.49037 -0.5663 0.94022 -0.9225 1.39353 -0.2788 0.35484 -0.8068 0.35484 -1.08564 0 -0.35624 -0.45331 -0.43214 -0.90316 -0.92251 -1.39353 -0.49037 -0.49037 -0.94022 -0.56628 -1.39353 -0.92251 -0.35485 -0.27886 -0.35485 -0.8068 0 -1.08566 0.45331 -0.35623 0.90313 -0.43215 1.39349 -0.92251Z" stroke-width="1"></path>
    <path id="Intersect_2" stroke="#c71dff" stroke-linecap="round" stroke-linejoin="round" d="M4.99288 3.45288c-0.71594 0.02407 -1.42005 0.09222 -2.10939 0.16905C1.72503 3.75106 0.792842 4.68326 0.66884 5.84228 0.5773 6.69788 0.5 7.5763 0.5 8.47184c0 0.89555 0.0773 1.77396 0.16884 2.62956 0.124002 1.159 1.05619 2.0912 2.21465 2.2204 0.86047 0.0959 1.74395 0.1782 2.64471 0.1782s1.78424 -0.0823 2.6447 -0.1782c1.15846 -0.1292 2.0907 -1.0614 2.2147 -2.2204 0.0786 -0.735 0.1467 -1.4869 0.1644 -2.25201" stroke-width="1"></path>
  </g>
</svg>