<svg xmlns="http://www.w3.org/2000/svg" fill="none" viewBox="0 0 16 16" id="Crown--Streamline-Block-Free">
  <desc>
    Crown Streamline Icon: https://streamlinehq.com
  </desc>
  <path fill="#000000" fill-rule="evenodd" d="M4 5 0 1v7.75c0.690356 0 1.25 0.55964 1.25 1.25 0 0.6904 -0.559644 1.25 -1.25 1.25V15h16v-3.75c-0.6904 0 -1.25 -0.5596 -1.25 -1.25 0 -0.69036 0.5596 -1.25 1.25 -1.25V1l-4 4 -4 -4 -4 4Zm3.99997 6.25c0.69036 0 1.25 -0.5596 1.25 -1.25 0 -0.69036 -0.55964 -1.25 -1.25 -1.25s-1.25 0.55964 -1.25 1.25c0 0.6904 0.55964 1.25 1.25 1.25Z" clip-rule="evenodd" stroke-width="1"></path>
</svg>