<svg xmlns="http://www.w3.org/2000/svg" fill="none" viewBox="0 0 16 16" id="Wi-Fi--Streamline-Block-Free">
  <desc>
    Wi Fi Streamline Icon: https://streamlinehq.com
  </desc>
  <path fill="#000000" d="M0.0000610352 3.35006 2.00006 6.26255C3.71692 5.14914 5.7804 4.5 8.00004 4.5 10.2197 4.5 12.2832 5.14914 14 6.26255l2 -2.91249C13.7109 1.86552 10.9596 1 8.00004 1 5.04051 1 2.28922 1.86552 0.0000610352 3.35006Z" stroke-width="1"></path>
  <path fill="#000000" d="m8.00004 15 -2.28571 -3.3286C6.36838 11.2473 7.15446 11 8.00004 11s1.63166 0.2473 2.28566 0.6714L8.00004 15Z" stroke-width="1"></path>
  <path fill="#000000" d="m13.1429 7.51075 -2 2.91245C10.2436 9.84003 9.16271 9.5 8.00004 9.5c-1.16267 0 -2.24354 0.34003 -3.14285 0.9232L2.8572 7.51075C4.3288 6.55641 6.09749 6 8.00004 6c1.90255 0 3.67126 0.55641 5.14286 1.51075Z" stroke-width="1"></path>
</svg>