<svg xmlns="http://www.w3.org/2000/svg" fill="none" viewBox="0 0 24 24" id="Download-Bottom--Streamline-Ultimate">
  <desc>
    Download Bottom Streamline Icon: https://streamlinehq.com
  </desc>
  <path fill="#c9f7ca" d="M12.0001 21.4996c5.2465 0 9.4998 -4.2532 9.4998 -9.4998 0 -5.2466 -4.2533 -9.4998 -9.4998 -9.4998 -5.24665 0 -9.49986 4.2532 -9.49986 9.4998 0 5.2466 4.25321 9.4998 9.49986 9.4998Z" stroke-width="1"></path>
  <path stroke="#191919" stroke-linecap="round" stroke-linejoin="round" d="M22.9998 18.2183v1.9129c-0.0003 0.7608 -0.3026 1.4904 -0.8406 2.0284s-1.2676 0.8404 -2.0283 0.8406H3.86919c-0.7609 0 -1.49062 -0.3023 -2.02865 -0.8403 -0.53803 -0.538 -0.8403 -1.2678 -0.8403 -2.0287v-1.9129" stroke-width="1"></path>
  <path stroke="#191919" stroke-linecap="round" stroke-linejoin="round" d="M12.0001 18.1077V1" stroke-width="1"></path>
  <path stroke="#191919" stroke-linecap="round" stroke-linejoin="round" d="m19.0001 11.1074 -6.9999 6.9999 -6.99983 -6.9999" stroke-width="1"></path>
</svg>