<svg xmlns="http://www.w3.org/2000/svg" fill="none" viewBox="0 0 24 24" id="Server-Star-1--Streamline-Ultimate">
  <desc>
    Server Star 1 Streamline Icon: https://streamlinehq.com
  </desc>
  <path fill="#e3e3e3" d="M17.2631 12.9585c0 -0.6342 -0.2519 -1.2426 -0.7004 -1.6911 -0.4486 -0.4485 -1.0569 -0.7005 -1.6912 -0.7005H3.39164c-0.6343 0 -1.24263 0.252 -1.69115 0.7005C1.25198 11.7159 1 12.3243 1 12.9585c0 0.6343 0.25198 1.2426 0.70049 1.6912 0.44852 0.4485 1.05685 0.7005 1.69115 0.7005H14.8715c0.6343 0 1.2426 -0.252 1.6912 -0.7005 0.4485 -0.4486 0.7004 -1.0569 0.7004 -1.6912Z" stroke-width="1"></path>
  <path fill="#ffffff" d="M17.2631 12.9585c0 -0.6342 -0.2519 -1.2426 -0.7004 -1.6911 -0.4486 -0.4485 -1.0569 -0.7005 -1.6912 -0.7005H3.39164c-0.31407 0 -0.62507 0.0619 -0.91524 0.182 -0.29017 0.1202 -0.55382 0.2964 -0.77591 0.5185C1.25198 11.7159 1 12.3243 1 12.9585h16.2631Z" stroke-width="1"></path>
  <path fill="#e3e3e3" d="M17.2631 8.17484c0 -0.6343 -0.2519 -1.24263 -0.7004 -1.69115 -0.4486 -0.44851 -1.0569 -0.70049 -1.6912 -0.70049H3.39164c-0.6343 0 -1.24263 0.25198 -1.69115 0.70049C1.25198 6.93221 1 7.54054 1 8.17484c0 0.6343 0.25198 1.24263 0.70049 1.69115 0.44852 0.44851 1.05685 0.70051 1.69115 0.70051H14.8715c0.6343 0 1.2426 -0.252 1.6912 -0.70051 0.4485 -0.44852 0.7004 -1.05685 0.7004 -1.69115Z" stroke-width="1"></path>
  <path fill="#ffffff" d="M17.2631 8.17484c0 -0.6343 -0.2519 -1.24263 -0.7004 -1.69115 -0.4486 -0.44851 -1.0569 -0.70049 -1.6912 -0.70049H3.39164c-0.31407 0 -0.62507 0.06186 -0.91524 0.18205 -0.29017 0.1202 -0.55382 0.29637 -0.77591 0.51844C1.25198 6.93221 1 7.54054 1 8.17484h16.2631Z" stroke-width="1"></path>
  <path fill="#e3e3e3" d="M17.2631 3.39213c0 -0.31407 -0.0619 -0.62507 -0.182 -0.91525 -0.1202 -0.29016 -0.2964 -0.55381 -0.5184 -0.7759 -0.2222 -0.22208 -0.4858 -0.39825 -0.776 -0.51844 -0.2901 -0.12019 -0.6011 -0.18205 -0.9152 -0.18205H3.39164c-0.6343 0 -1.24263 0.25197 -1.69115 0.70049C1.25198 2.1495 1 2.75783 1 3.39213c0 0.6343 0.25198 1.24263 0.70049 1.69114 0.44852 0.44852 1.05685 0.70049 1.69115 0.70049H14.8715c0.6343 0 1.2426 -0.25197 1.6912 -0.70049 0.4485 -0.44851 0.7004 -1.05684 0.7004 -1.69114Z" stroke-width="1"></path>
  <path fill="#ffffff" d="M17.2631 3.39213c0 -0.31407 -0.0619 -0.62507 -0.182 -0.91525 -0.1202 -0.29016 -0.2964 -0.55381 -0.5184 -0.7759 -0.2222 -0.22208 -0.4858 -0.39825 -0.776 -0.51844 -0.2901 -0.12019 -0.6011 -0.18205 -0.9152 -0.18205H3.39164c-0.31407 0 -0.62507 0.06186 -0.91524 0.18205 -0.29017 0.12019 -0.55382 0.29636 -0.77591 0.51844C1.25198 2.1495 1 2.75783 1 3.39213h16.2631Z" stroke-width="1"></path>
  <path stroke="#191919" stroke-linecap="round" stroke-linejoin="round" d="M5.78308 20.1328h2.86997" stroke-width="1"></path>
  <path stroke="#191919" stroke-linecap="round" stroke-linejoin="round" d="M8.65417 15.3501v4.7833" stroke-width="1"></path>
  <path stroke="#191919" stroke-linecap="round" stroke-linejoin="round" d="M12.4799 10.5669H3.39164c-0.6343 0 -1.24263 0.252 -1.69115 0.7005C1.25198 11.7159 1 12.3243 1 12.9585c0 0.6343 0.25198 1.2426 0.70049 1.6912 0.44852 0.4485 1.05685 0.7005 1.69115 0.7005H9.6099" stroke-width="1"></path>
  <path stroke="#191919" stroke-linecap="round" stroke-linejoin="round" d="M17.2631 8.17484c0 -0.6343 -0.2519 -1.24263 -0.7004 -1.69115 -0.4486 -0.44851 -1.0569 -0.70049 -1.6912 -0.70049H3.39164c-0.6343 0 -1.24263 0.25198 -1.69115 0.70049C1.25198 6.93221 1 7.54054 1 8.17484c0 0.6343 0.25198 1.24263 0.70049 1.69115 0.44852 0.44851 1.05685 0.70051 1.69115 0.70051h9.08826" stroke-width="1"></path>
  <path stroke="#191919" stroke-linecap="round" stroke-linejoin="round" d="M17.2631 3.39213c0 -0.31407 -0.0619 -0.62507 -0.182 -0.91525 -0.1202 -0.29016 -0.2964 -0.55381 -0.5184 -0.7759 -0.2222 -0.22208 -0.4858 -0.39825 -0.776 -0.51844 -0.2901 -0.12019 -0.6011 -0.18205 -0.9152 -0.18205H3.39164c-0.6343 0 -1.24263 0.25197 -1.69115 0.70049C1.25198 2.1495 1 2.75783 1 3.39213c0 0.6343 0.25198 1.24263 0.70049 1.69114 0.44852 0.44852 1.05685 0.70049 1.69115 0.70049H14.8715c0.6343 0 1.2426 -0.25197 1.6912 -0.70049 0.4485 -0.44851 0.7004 -1.05684 0.7004 -1.69114Z" stroke-width="1"></path>
  <path fill="#ffef5e" d="m17.9327 11.9316 1.4723 3.4152h2.8643c0.1447 -0.0056 0.2876 0.0335 0.4093 0.1121 0.1216 0.0787 0.216 0.193 0.2703 0.3273 0.0541 0.1343 0.0656 0.2821 0.0327 0.4231 -0.033 0.1411 -0.1087 0.2685 -0.2168 0.3649l-2.4873 2.2156 1.3776 3.1694c0.0604 0.1451 0.0739 0.3053 0.0385 0.4583 -0.0354 0.153 -0.1178 0.2911 -0.2358 0.3948 -0.1179 0.1037 -0.2655 0.1679 -0.4218 0.1834 -0.1563 0.0154 -0.3135 -0.0185 -0.4495 -0.097l-3.3234 -1.876 -3.3292 1.876c-0.136 0.0785 -0.2932 0.1124 -0.4495 0.097 -0.1563 -0.0155 -0.3038 -0.0797 -0.4218 -0.1834 -0.118 -0.1037 -0.2004 -0.2418 -0.2358 -0.3948 -0.0354 -0.153 -0.0219 -0.3132 0.0385 -0.4583l1.3795 -3.1646 -2.4873 -2.2156c-0.1084 -0.096 -0.1844 -0.223 -0.2177 -0.3639 -0.0334 -0.1408 -0.0224 -0.2885 0.0315 -0.423 0.0537 -0.1343 0.1478 -0.2487 0.2692 -0.3276 0.1214 -0.0788 0.2641 -0.1183 0.4087 -0.1129h2.87l1.4742 -3.4153c0.0655 -0.1216 0.1627 -0.2234 0.2815 -0.2943 0.1186 -0.0709 0.2542 -0.1083 0.3925 -0.1083 0.1382 0 0.2739 0.0374 0.3925 0.1083 0.1187 0.0709 0.2159 0.1727 0.2814 0.2943l-0.0086 -0.0047Z" stroke-width="1"></path>
  <path fill="#fff9bf" d="m19.4097 15.3501 -1.477 -3.4191c-0.0656 -0.1217 -0.1628 -0.2235 -0.2815 -0.2944 -0.1186 -0.0709 -0.2543 -0.1083 -0.3925 -0.1083s-0.2739 0.0374 -0.3925 0.1083c-0.1187 0.0709 -0.2159 0.1727 -0.2815 0.2944l-1.4694 3.4191h-2.87c-0.1446 -0.0054 -0.2873 0.034 -0.4087 0.1128 -0.1214 0.079 -0.2155 0.1934 -0.2692 0.3277 -0.0539 0.1344 -0.0649 0.2821 -0.0315 0.4229 0.0333 0.1409 0.1093 0.268 0.2177 0.364l2.4873 2.2156 -1.3747 3.1684c-0.0681 0.1695 -0.0715 0.3582 -0.0096 0.53l7.1463 -7.1414h-0.5932Z" stroke-width="1"></path>
  <path stroke="#191919" stroke-linecap="round" stroke-linejoin="round" d="m17.9327 11.9316 1.4723 3.4152h2.8643c0.1447 -0.0056 0.2876 0.0335 0.4093 0.1121 0.1216 0.0787 0.216 0.193 0.2703 0.3273 0.0541 0.1343 0.0656 0.2821 0.0327 0.4231 -0.033 0.1411 -0.1087 0.2685 -0.2168 0.3649l-2.4873 2.2156 1.3776 3.1694c0.0604 0.1451 0.0739 0.3053 0.0385 0.4583 -0.0354 0.153 -0.1178 0.2911 -0.2358 0.3948 -0.1179 0.1037 -0.2655 0.1679 -0.4218 0.1834 -0.1563 0.0154 -0.3135 -0.0185 -0.4495 -0.097l-3.3234 -1.876 -3.3292 1.876c-0.136 0.0785 -0.2932 0.1124 -0.4495 0.097 -0.1563 -0.0155 -0.3038 -0.0797 -0.4218 -0.1834 -0.118 -0.1037 -0.2004 -0.2418 -0.2358 -0.3948 -0.0354 -0.153 -0.0219 -0.3132 0.0385 -0.4583l1.3795 -3.1646 -2.4873 -2.2156c-0.1084 -0.096 -0.1844 -0.223 -0.2177 -0.3639 -0.0334 -0.1408 -0.0224 -0.2885 0.0315 -0.423 0.0537 -0.1343 0.1478 -0.2487 0.2692 -0.3276 0.1214 -0.0788 0.2641 -0.1183 0.4087 -0.1129h2.87l1.4742 -3.4153c0.0655 -0.1216 0.1627 -0.2234 0.2815 -0.2943 0.1186 -0.0709 0.2542 -0.1083 0.3925 -0.1083 0.1382 0 0.2739 0.0374 0.3925 0.1083 0.1187 0.0709 0.2159 0.1727 0.2814 0.2943l-0.0086 -0.0047Z" stroke-width="1"></path>
  <path stroke="#191919" d="M4.58731 3.63116c-0.13209 0 -0.23917 -0.10708 -0.23917 -0.23916 0 -0.13209 0.10708 -0.23917 0.23917 -0.23917" stroke-width="1"></path>
  <path stroke="#191919" d="M4.5874 3.63116c0.13209 0 0.23917 -0.10708 0.23917 -0.23916 0 -0.13209 -0.10708 -0.23917 -0.23917 -0.23917" stroke-width="1"></path>
  <path stroke="#191919" d="M4.58731 8.41387c-0.13209 0 -0.23917 -0.10707 -0.23917 -0.23916 0 -0.13208 0.10708 -0.23916 0.23917 -0.23916" stroke-width="1"></path>
  <path stroke="#191919" d="M4.5874 8.41387c0.13209 0 0.23917 -0.10707 0.23917 -0.23916 0 -0.13208 -0.10708 -0.23916 -0.23917 -0.23916" stroke-width="1"></path>
  <path stroke="#191919" d="M4.58731 13.1976c-0.13209 0 -0.23917 -0.1071 -0.23917 -0.2392s0.10708 -0.2392 0.23917 -0.2392" stroke-width="1"></path>
  <path stroke="#191919" d="M4.5874 13.1976c0.13209 0 0.23917 -0.1071 0.23917 -0.2392s-0.10708 -0.2392 -0.23917 -0.2392" stroke-width="1"></path>
  <path stroke="#191919" d="M1.23916 20.1336c-0.13208 0 -0.23916 -0.107 -0.23916 -0.2392 0 -0.1321 0.10708 -0.2391 0.23916 -0.2391" stroke-width="1"></path>
  <path stroke="#191919" d="M1.23914 20.1336c0.13208 0 0.23916 -0.107 0.23916 -0.2392 0 -0.1321 -0.10708 -0.2391 -0.23916 -0.2391" stroke-width="1"></path>
  <path stroke="#191919" d="M6.97915 3.63116c-0.13208 0 -0.23916 -0.10708 -0.23916 -0.23916 0 -0.13209 0.10708 -0.23917 0.23916 -0.23917" stroke-width="1"></path>
  <path stroke="#191919" d="M6.979 3.63116c0.13209 0 0.23917 -0.10708 0.23917 -0.23916 0 -0.13209 -0.10708 -0.23917 -0.23917 -0.23917" stroke-width="1"></path>
  <path stroke="#191919" d="M6.97915 8.41387c-0.13208 0 -0.23916 -0.10707 -0.23916 -0.23916 0 -0.13208 0.10708 -0.23916 0.23916 -0.23916" stroke-width="1"></path>
  <path stroke="#191919" d="M6.979 8.41387c0.13209 0 0.23917 -0.10707 0.23917 -0.23916 0 -0.13208 -0.10708 -0.23916 -0.23917 -0.23916" stroke-width="1"></path>
  <path stroke="#191919" d="M6.97915 13.1976c-0.13208 0 -0.23916 -0.1071 -0.23916 -0.2392s0.10708 -0.2392 0.23916 -0.2392" stroke-width="1"></path>
  <path stroke="#191919" d="M6.979 13.1976c0.13209 0 0.23917 -0.1071 0.23917 -0.2392s-0.10708 -0.2392 -0.23917 -0.2392" stroke-width="1"></path>
  <path stroke="#191919" d="M3.63077 20.1336c-0.13209 0 -0.23917 -0.107 -0.23917 -0.2392 0 -0.1321 0.10708 -0.2391 0.23917 -0.2391" stroke-width="1"></path>
  <path stroke="#191919" d="M3.63062 20.1336c0.13208 0 0.23916 -0.107 0.23916 -0.2392 0 -0.1321 -0.10708 -0.2391 -0.23916 -0.2391" stroke-width="1"></path>
</svg>