<svg xmlns="http://www.w3.org/2000/svg" fill="none" viewBox="0 0 24 24" id="Server-Share--Streamline-Ultimate">
  <desc>
    Server Share Streamline Icon: https://streamlinehq.com
  </desc>
  <path fill="#e3e3e3" d="M21.0871 16.3046c0 0.5074 -0.2016 0.994 -0.5603 1.3528 -0.3588 0.3587 -0.8454 0.5603 -1.3528 0.5603H2.91306c-0.50738 0 -0.99397 -0.2016 -1.35274 -0.5603C1.20155 17.2986 1 16.812 1 16.3046v-1.913c0 -0.5074 0.20155 -0.994 0.56032 -1.3528 0.35877 -0.3587 0.84536 -0.5603 1.35274 -0.5603H19.174c0.5074 0 0.994 0.2016 1.3528 0.5603 0.3587 0.3588 0.5603 0.8454 0.5603 1.3528v1.913Z" stroke-width="1"></path>
  <path fill="#ffffff" d="M19.174 12.4785H2.91306c-0.50738 0 -0.99397 0.2016 -1.35274 0.5603C1.20155 13.3976 1 13.8842 1 14.3916v1.913c0 -0.5073 0.20155 -0.9939 0.56032 -1.3527 0.35877 -0.3588 0.84536 -0.5603 1.35274 -0.5603H19.174c0.5074 0 0.994 0.2015 1.3528 0.5603 0.3587 0.3588 0.5603 0.8454 0.5603 1.3527v-1.913c0 -0.5074 -0.2016 -0.994 -0.5603 -1.3528 -0.3588 -0.3587 -0.8454 -0.5603 -1.3528 -0.5603Z" stroke-width="1"></path>
  <path fill="#e3e3e3" d="M21.0871 10.5654c0 0.5073 -0.2016 0.9939 -0.5603 1.3527 -0.3588 0.3588 -0.8454 0.5603 -1.3528 0.5603H2.91306c-0.50738 0 -0.99397 -0.2015 -1.35274 -0.5603C1.20155 11.5593 1 11.0727 1 10.5654V8.65231c0 -0.50737 0.20155 -0.99396 0.56032 -1.35273 0.35877 -0.35877 0.84536 -0.56032 1.35274 -0.56032H19.174c0.5074 0 0.994 0.20155 1.3528 0.56032 0.3587 0.35877 0.5603 0.84536 0.5603 1.35273v1.91309Z" stroke-width="1"></path>
  <path fill="#ffffff" d="M19.174 6.73926H2.91306c-0.50738 0 -0.99397 0.20155 -1.35274 0.56032C1.20155 7.65835 1 8.14494 1 8.65231v1.91309c0 -0.2513 0.04948 -0.5 0.14562 -0.73212 0.09614 -0.23211 0.23706 -0.443 0.4147 -0.62064 0.17764 -0.17765 0.38854 -0.31856 0.62064 -0.4147 0.2321 -0.09614 0.48087 -0.14563 0.7321 -0.14563H19.174c0.2513 0 0.5 0.04949 0.7321 0.14563 0.2321 0.09614 0.443 0.23705 0.6207 0.4147 0.1776 0.17764 0.3185 0.38853 0.4147 0.62064 0.0961 0.23212 0.1456 0.48082 0.1456 0.73212V8.65231c0 -0.50737 -0.2016 -0.99396 -0.5603 -1.35273 -0.3588 -0.35877 -0.8454 -0.56032 -1.3528 -0.56032Z" stroke-width="1"></path>
  <path fill="#e3e3e3" d="M21.0871 4.82611c0 0.50738 -0.2016 0.99397 -0.5603 1.35274 -0.3588 0.35876 -0.8454 0.56032 -1.3528 0.56032H2.91306c-0.50738 0 -0.99397 -0.20156 -1.35274 -0.56032C1.20155 5.82008 1 5.33349 1 4.82611V2.91306c0 -0.50738 0.20155 -0.99397 0.56032 -1.35274C1.91909 1.20155 2.40568 1 2.91306 1H19.174c0.5074 0 0.994 0.20155 1.3528 0.56032 0.3587 0.35877 0.5603 0.84536 0.5603 1.35274v1.91305Z" stroke-width="1"></path>
  <path fill="#ffffff" d="M19.174 1H2.91306c-0.50738 0 -0.99397 0.20155 -1.35274 0.56032C1.20155 1.91909 1 2.40568 1 2.91306v1.91305c0 -0.50737 0.20155 -0.99397 0.56032 -1.35273 0.35877 -0.35877 0.84536 -0.56032 1.35274 -0.56032H19.174c0.5074 0 0.994 0.20155 1.3528 0.56032 0.3587 0.35876 0.5603 0.84536 0.5603 1.35273V2.91306c0 -0.50738 -0.2016 -0.99397 -0.5603 -1.35274C20.168 1.20155 19.6814 1 19.174 1Z" stroke-width="1"></path>
  <path stroke="#191919" stroke-linecap="round" stroke-linejoin="round" d="M21.0871 4.82611c0 0.50738 -0.2016 0.99397 -0.5603 1.35274 -0.3588 0.35876 -0.8454 0.56032 -1.3528 0.56032H2.91306c-0.50738 0 -0.99397 -0.20156 -1.35274 -0.56032C1.20155 5.82008 1 5.33349 1 4.82611V2.91306c0 -0.50738 0.20155 -0.99397 0.56032 -1.35274C1.91909 1.20155 2.40568 1 2.91306 1H19.174c0.5074 0 0.994 0.20155 1.3528 0.56032 0.3587 0.35877 0.5603 0.84536 0.5603 1.35274v1.91305Z" stroke-width="1"></path>
  <path stroke="#191919" stroke-linecap="round" stroke-linejoin="round" d="M2.91306 12.4784c-0.50738 0 -0.99397 -0.2015 -1.35274 -0.5603C1.20155 11.5593 1 11.0727 1 10.5654V8.65231c0 -0.50737 0.20155 -0.99396 0.56032 -1.35273 0.35877 -0.35877 0.84536 -0.56032 1.35274 -0.56032H19.174c0.5074 0 0.994 0.20155 1.3528 0.56032 0.3587 0.35877 0.5603 0.84536 0.5603 1.35273v1.43479" stroke-width="1"></path>
  <path stroke="#191919" stroke-linecap="round" stroke-linejoin="round" d="M9.13049 18.2177H2.91306c-0.50738 0 -0.99397 -0.2016 -1.35274 -0.5603C1.20155 17.2986 1 16.812 1 16.3046v-1.913c0 -0.2513 0.04948 -0.5 0.14562 -0.7321 0.09614 -0.2321 0.23706 -0.443 0.4147 -0.6207 0.17764 -0.1776 0.38854 -0.3185 0.62064 -0.4147 0.2321 -0.0961 0.48087 -0.1456 0.7321 -0.1456H15.3479" stroke-width="1"></path>
  <path fill="#ffef5e" stroke="#191919" stroke-linecap="round" stroke-linejoin="round" d="M13.6738 20.1301c0.5708 0 1.1182 -0.2268 1.5218 -0.6304 0.4036 -0.4036 0.6304 -0.951 0.6304 -1.5218 0 -0.5708 -0.2268 -1.1182 -0.6304 -1.5219 -0.4036 -0.4036 -0.951 -0.6303 -1.5218 -0.6303 -0.5708 0 -1.1182 0.2267 -1.5218 0.6303 -0.4036 0.4037 -0.6304 0.9511 -0.6304 1.5219 0 0.5708 0.2268 1.1182 0.6304 1.5218 0.4036 0.4036 0.951 0.6304 1.5218 0.6304Z" stroke-width="1"></path>
  <path fill="#ffef5e" stroke="#191919" stroke-linecap="round" stroke-linejoin="round" d="M20.8479 22.9997c0.2826 0 0.5625 -0.0557 0.8236 -0.1638 0.2611 -0.1082 0.4983 -0.2667 0.6982 -0.4666 0.1998 -0.1998 0.3584 -0.4371 0.4665 -0.6982 0.1082 -0.2611 0.1639 -0.541 0.1639 -0.8236 0 -0.2826 -0.0557 -0.5625 -0.1639 -0.8236 -0.1081 -0.2611 -0.2667 -0.4984 -0.4665 -0.6982 -0.1999 -0.1999 -0.4371 -0.3584 -0.6982 -0.4666 -0.2611 -0.1081 -0.541 -0.1638 -0.8236 -0.1638 -0.5708 0 -1.1182 0.2268 -1.5219 0.6304 -0.4036 0.4036 -0.6303 0.951 -0.6303 1.5218 0 0.5708 0.2267 1.1182 0.6303 1.5218 0.4037 0.4036 0.9511 0.6304 1.5219 0.6304Z" stroke-width="1"></path>
  <path fill="#ffef5e" stroke="#191919" stroke-linecap="round" stroke-linejoin="round" d="M20.8479 15.8254c0.2826 0 0.5625 -0.0557 0.8236 -0.1639 0.2611 -0.1081 0.4983 -0.2666 0.6982 -0.4665 0.1998 -0.1998 0.3584 -0.4371 0.4665 -0.6982 0.1082 -0.2611 0.1639 -0.541 0.1639 -0.8236 0 -0.2826 -0.0557 -0.5625 -0.1639 -0.8236 -0.1081 -0.2611 -0.2667 -0.4984 -0.4665 -0.6982 -0.1999 -0.1999 -0.4371 -0.3584 -0.6982 -0.4666 -0.2611 -0.1081 -0.541 -0.1638 -0.8236 -0.1638 -0.5708 0 -1.1182 0.2267 -1.5219 0.6304 -0.4036 0.4036 -0.6303 0.951 -0.6303 1.5218 0 0.5708 0.2267 1.1182 0.6303 1.5218 0.4037 0.4036 0.9511 0.6304 1.5219 0.6304Z" stroke-width="1"></path>
  <path stroke="#191919" stroke-linecap="round" stroke-linejoin="round" d="m15.5151 16.8736 3.4914 -2.0948" stroke-width="1"></path>
  <path stroke="#191919" stroke-linecap="round" stroke-linejoin="round" d="m15.671 18.7773 3.1795 1.2722" stroke-width="1"></path>
  <path stroke="#191919" d="M5.06518 4.10815c-0.06342 0 -0.12424 -0.0252 -0.16909 -0.07004 -0.04485 -0.04485 -0.07004 -0.10567 -0.07004 -0.1691 0 -0.06342 0.02519 -0.12424 0.07004 -0.16909 0.04485 -0.04484 0.10567 -0.07004 0.16909 -0.07004" stroke-width="1"></path>
  <path stroke="#191919" d="M5.06506 4.10815c0.06343 0 0.12425 -0.0252 0.1691 -0.07004 0.04484 -0.04485 0.07004 -0.10567 0.07004 -0.1691 0 -0.06342 -0.0252 -0.12424 -0.07004 -0.16909 -0.04485 -0.04484 -0.10567 -0.07004 -0.1691 -0.07004" stroke-width="1"></path>
  <path stroke="#191919" d="M5.06518 9.8474c-0.06342 0 -0.12424 -0.02519 -0.16909 -0.07004 -0.04485 -0.04484 -0.07004 -0.10567 -0.07004 -0.16909 0 -0.06342 0.02519 -0.12424 0.07004 -0.16909 0.04485 -0.04484 0.10567 -0.07004 0.16909 -0.07004" stroke-width="1"></path>
  <path stroke="#191919" d="M5.06506 9.8474c0.06343 0 0.12425 -0.02519 0.1691 -0.07004 0.04484 -0.04484 0.07004 -0.10567 0.07004 -0.16909 0 -0.06342 -0.0252 -0.12424 -0.07004 -0.16909 -0.04485 -0.04484 -0.10567 -0.07004 -0.1691 -0.07004" stroke-width="1"></path>
  <path stroke="#191919" d="M5.06518 15.5867c-0.06342 0 -0.12424 -0.0252 -0.16909 -0.0701 -0.04485 -0.0448 -0.07004 -0.1056 -0.07004 -0.1691 0 -0.0634 0.02519 -0.1242 0.07004 -0.1691 0.04485 -0.0448 0.10567 -0.07 0.16909 -0.07" stroke-width="1"></path>
  <path stroke="#191919" d="M5.06506 15.5867c0.06343 0 0.12425 -0.0252 0.1691 -0.0701 0.04484 -0.0448 0.07004 -0.1056 0.07004 -0.1691 0 -0.0634 -0.0252 -0.1242 -0.07004 -0.1691 -0.04485 -0.0448 -0.10567 -0.07 -0.1691 -0.07" stroke-width="1"></path>
  <path stroke="#191919" d="M8.41308 4.10815c-0.06342 0 -0.12424 -0.0252 -0.16909 -0.07004 -0.04485 -0.04485 -0.07004 -0.10567 -0.07004 -0.1691 0 -0.06342 0.02519 -0.12424 0.07004 -0.16909 0.04485 -0.04484 0.10567 -0.07004 0.16909 -0.07004" stroke-width="1"></path>
  <path stroke="#191919" d="M8.41296 4.10815c0.06343 0 0.12425 -0.0252 0.1691 -0.07004 0.04484 -0.04485 0.07004 -0.10567 0.07004 -0.1691 0 -0.06342 -0.0252 -0.12424 -0.07004 -0.16909 -0.04485 -0.04484 -0.10567 -0.07004 -0.1691 -0.07004" stroke-width="1"></path>
  <path stroke="#191919" d="M8.41308 9.8474c-0.06342 0 -0.12424 -0.02519 -0.16909 -0.07004 -0.04485 -0.04484 -0.07004 -0.10567 -0.07004 -0.16909 0 -0.06342 0.02519 -0.12424 0.07004 -0.16909 0.04485 -0.04484 0.10567 -0.07004 0.16909 -0.07004" stroke-width="1"></path>
  <path stroke="#191919" d="M8.41296 9.8474c0.06343 0 0.12425 -0.02519 0.1691 -0.07004 0.04484 -0.04484 0.07004 -0.10567 0.07004 -0.16909 0 -0.06342 -0.0252 -0.12424 -0.07004 -0.16909 -0.04485 -0.04484 -0.10567 -0.07004 -0.1691 -0.07004" stroke-width="1"></path>
  <path stroke="#191919" d="M8.41308 15.5867c-0.06342 0 -0.12424 -0.0252 -0.16909 -0.0701 -0.04485 -0.0448 -0.07004 -0.1056 -0.07004 -0.1691 0 -0.0634 0.02519 -0.1242 0.07004 -0.1691 0.04485 -0.0448 0.10567 -0.07 0.16909 -0.07" stroke-width="1"></path>
  <path stroke="#191919" d="M8.41296 15.5867c0.06343 0 0.12425 -0.0252 0.1691 -0.0701 0.04484 -0.0448 0.07004 -0.1056 0.07004 -0.1691 0 -0.0634 -0.0252 -0.1242 -0.07004 -0.1691 -0.04485 -0.0448 -0.10567 -0.07 -0.1691 -0.07" stroke-width="1"></path>
</svg>