<svg xmlns="http://www.w3.org/2000/svg" fill="none" viewBox="0 0 14 14"><g id="artificial-intelligence-spark--brain-thought-ai-automated-ai"><path id="Union" stroke="#3e3e3e" stroke-linecap="round" stroke-linejoin="round" d="M7 6.433v3.97a2.724 2.724 0 1 1-5.439-.229C.994 9.565.636 8.374.636 7.38c0-1.354.665-2.671 1.617-3.19a2.38 2.38 0 0 1 3.902-2.076"></path><path id="Vector 605" stroke="#3e3e3e" stroke-linecap="round" stroke-linejoin="round" d="M3.511 5.809c-.35-.08-1.141-.6-1.26-1.612"></path><path id="Vector 606" stroke="#3e3e3e" stroke-linecap="round" stroke-linejoin="round" d="M2.29 8.746c-.356.281-.64.917-.731 1.427"></path><path id="Union_2" stroke="#3e3e3e" stroke-linecap="round" stroke-linejoin="round" d="M7 10.403a2.724 2.724 0 1 0 5.439-.229c.567-.609.924-1.8.924-2.794 0-.434-.068-.864-.192-1.266"></path><path id="Vector 613" stroke="#3e3e3e" stroke-linecap="round" stroke-linejoin="round" d="M11.71 8.746c.356.281.64.917.731 1.427"></path><path id="Vector 2136" stroke="#3e3e3e" stroke-linecap="round" stroke-linejoin="round" d="M7.064 4.307c-.35-.062-.35-.565 0-.626a3.176 3.176 0 0 0 2.559-2.45l.021-.097c.076-.347.57-.35.649-.003l.025.113a3.193 3.193 0 0 0 2.566 2.435c.353.061.353.568 0 .63a3.193 3.193 0 0 0-2.566 2.435l-.025.112c-.08.346-.573.344-.649-.003l-.021-.096a3.176 3.176 0 0 0-2.559-2.45Z"></path></g></svg>