<svg xmlns="http://www.w3.org/2000/svg" fill="none" viewBox="0 0 24 24" id="Delivery-Drone--Streamline-Ultimate">
  <desc>
    Delivery Drone Streamline Icon: https://streamlinehq.com
  </desc>
  <path fill="#ffffff" d="M11.9998 12c0.8879 0 1.7394 -0.3528 2.3673 -0.9806 0.6279 -0.6279 0.9806 -1.47943 0.9806 -2.36735s-0.3527 -1.73947 -0.9806 -2.36733c-0.6279 -0.62786 -1.4794 -0.98058 -2.3673 -0.98058 -0.888 0 -1.7395 0.35272 -2.36736 0.98058 -0.62786 0.62786 -0.98058 1.47941 -0.98058 2.36733s0.35272 1.73945 0.98058 2.36735c0.62786 0.6278 1.47936 0.9806 2.36736 0.9806Z" stroke-width="1"></path>
  <path fill="#e3e3e3" d="M11.9998 9.60859c-0.6766 -0.00098 -1.3369 -0.20724 -1.8937 -0.59153 -0.55674 -0.38429 -0.9838 -0.9285 -1.22467 -1.5607 -0.19828 0.50748 -0.26971 1.05568 -0.20809 1.59703 0.06162 0.54135 0.25443 1.05951 0.56169 1.50941 0.30726 0.4499 0.71969 0.8181 1.20147 1.0725 0.4818 0.2544 1.0184 0.3874 1.5633 0.3874 0.5448 0 1.0814 -0.133 1.5632 -0.3874s0.8942 -0.6226 1.2015 -1.0725c0.3073 -0.4499 0.5001 -0.96806 0.5617 -1.50941 0.0616 -0.54135 -0.0098 -1.08955 -0.2081 -1.59703 -0.2409 0.6322 -0.6679 1.17641 -1.2247 1.5607 -0.5568 0.38429 -1.2171 0.59055 -1.8936 0.59153Z" stroke-width="1"></path>
  <path stroke="#191919" stroke-linecap="round" stroke-linejoin="round" d="M11.9998 12c0.8879 0 1.7394 -0.3528 2.3673 -0.9806 0.6279 -0.6279 0.9806 -1.47943 0.9806 -2.36735s-0.3527 -1.73947 -0.9806 -2.36733c-0.6279 -0.62786 -1.4794 -0.98058 -2.3673 -0.98058 -0.888 0 -1.7395 0.35272 -2.36736 0.98058 -0.62786 0.62786 -0.98058 1.47941 -0.98058 2.36733s0.35272 1.73945 0.98058 2.36735c0.62786 0.6278 1.47936 0.9806 2.36736 0.9806Z" stroke-width="1"></path>
  <path fill="#ffbc44" d="M7.6958 22.522c-0.25369 0 -0.49699 -0.1008 -0.67638 -0.2802 -0.17938 -0.1793 -0.28016 -0.4226 -0.28016 -0.6763v-6.6959c0 -0.2537 0.10078 -0.497 0.28016 -0.6763 0.17939 -0.1794 0.42269 -0.2802 0.67638 -0.2802h8.6089c0.2537 0 0.497 0.1008 0.6764 0.2802 0.1794 0.1793 0.2802 0.4226 0.2802 0.6763v6.6959c0 0.2537 -0.1008 0.497 -0.2802 0.6763 -0.1794 0.1794 -0.4227 0.2802 -0.6764 0.2802H7.6958Z" stroke-width="1"></path>
  <path fill="#ffdda1" d="M16.3047 13.9131H7.6958c-0.25369 0 -0.49699 0.1008 -0.67638 0.2802 -0.17938 0.1793 -0.28016 0.4226 -0.28016 0.6763v2.8697c0 -0.2537 0.10078 -0.497 0.28016 -0.6764 0.17939 -0.1794 0.42269 -0.2802 0.67638 -0.2802h8.6089c0.2537 0 0.497 0.1008 0.6764 0.2802s0.2802 0.4227 0.2802 0.6764v-2.8697c0 -0.2537 -0.1008 -0.497 -0.2802 -0.6763 -0.1794 -0.1794 -0.4227 -0.2802 -0.6764 -0.2802Z" stroke-width="1"></path>
  <path stroke="#191919" stroke-linecap="round" stroke-linejoin="round" d="M7.6958 22.522c-0.25369 0 -0.49699 -0.1008 -0.67638 -0.2802 -0.17938 -0.1793 -0.28016 -0.4226 -0.28016 -0.6763v-6.6959c0 -0.2537 0.10078 -0.497 0.28016 -0.6763 0.17939 -0.1794 0.42269 -0.2802 0.67638 -0.2802h8.6089c0.2537 0 0.497 0.1008 0.6764 0.2802 0.1794 0.1793 0.2802 0.4226 0.2802 0.6763v6.6959c0 0.2537 -0.1008 0.497 -0.2802 0.6763 -0.1794 0.1794 -0.4227 0.2802 -0.6764 0.2802H7.6958Z" stroke-width="1"></path>
  <path stroke="#191919" stroke-linecap="round" stroke-linejoin="round" d="M5.30469 1.47803v3.82618c0 0.41394 0.13425 0.81671 0.38262 1.14786 0.24836 0.33115 0.59743 0.57281 0.9948 0.68871l2.09293 0.61028" stroke-width="1"></path>
  <path stroke="#191919" stroke-linecap="round" stroke-linejoin="round" d="M18.6959 1.47803v3.82618c0 0.41394 -0.1342 0.81671 -0.3826 1.14786 -0.2483 0.33115 -0.5974 0.57281 -0.9948 0.68871l-2.0929 0.61028" stroke-width="1"></path>
  <path stroke="#191919" stroke-linecap="round" stroke-linejoin="round" d="m9.15355 10.416 -2.99399 0.6696c-0.25441 0.0566 -0.49457 0.1646 -0.70574 0.3174 -0.21117 0.1528 -0.38889 0.3471 -0.52226 0.571 -0.13338 0.224 -0.21958 0.4728 -0.25334 0.7312 -0.03375 0.2585 -0.01434 0.5211 0.05704 0.7718l0.39793 1.3927" stroke-width="1"></path>
  <path stroke="#191919" stroke-linecap="round" stroke-linejoin="round" d="m14.8462 10.416 2.994 0.6696c0.2544 0.0566 0.4946 0.1646 0.7057 0.3174 0.2112 0.1528 0.3889 0.3471 0.5223 0.571 0.1334 0.224 0.2196 0.4728 0.2533 0.7312 0.0338 0.2585 0.0144 0.5211 -0.057 0.7718l-0.3979 1.3927" stroke-width="1"></path>
  <path fill="#ff808c" d="M12.0005 9.60865c0.2537 0 0.497 -0.10078 0.6764 -0.28017 0.1794 -0.17938 0.2801 -0.42268 0.2801 -0.67638 0 -0.25369 -0.1007 -0.49699 -0.2801 -0.67638 -0.1794 -0.17938 -0.4227 -0.28016 -0.6764 -0.28016s-0.497 0.10078 -0.6764 0.28016c-0.1794 0.17939 -0.2802 0.42269 -0.2802 0.67638 0 0.2537 0.1008 0.497 0.2802 0.67638 0.1794 0.17939 0.4227 0.28017 0.6764 0.28017Z" stroke-width="1"></path>
  <path fill="#ffffff" d="M13.4346 13.9131v4.3044l-1.4348 -1.4348 -1.4349 1.4348v-4.3044h2.8697Z" stroke-width="1"></path>
  <path stroke="#191919" stroke-linecap="round" stroke-linejoin="round" d="m1 1.47803 4.30446 0.95654" stroke-width="1"></path>
  <path stroke="#191919" stroke-linecap="round" stroke-linejoin="round" d="m5.30469 2.43457 4.30446 -0.95654" stroke-width="1"></path>
  <path stroke="#191919" stroke-linecap="round" stroke-linejoin="round" d="m14.3911 1.47803 4.3045 0.95654" stroke-width="1"></path>
  <path stroke="#191919" stroke-linecap="round" stroke-linejoin="round" d="m18.6953 2.43457 4.3045 -0.95654" stroke-width="1"></path>
  <path stroke="#191919" stroke-linecap="round" stroke-linejoin="round" d="M12.0005 9.60865c0.2537 0 0.497 -0.10078 0.6764 -0.28017 0.1794 -0.17938 0.2801 -0.42268 0.2801 -0.67638 0 -0.25369 -0.1007 -0.49699 -0.2801 -0.67638 -0.1794 -0.17938 -0.4227 -0.28016 -0.6764 -0.28016s-0.497 0.10078 -0.6764 0.28016c-0.1794 0.17939 -0.2802 0.42269 -0.2802 0.67638 0 0.2537 0.1008 0.497 0.2802 0.67638 0.1794 0.17939 0.4227 0.28017 0.6764 0.28017Z" stroke-width="1"></path>
  <path stroke="#191919" stroke-linecap="round" stroke-linejoin="round" d="M13.4346 13.9131v4.3044l-1.4348 -1.4348 -1.4349 1.4348v-4.3044h2.8697Z" stroke-width="1"></path>
</svg>