<svg xmlns="http://www.w3.org/2000/svg" fill="none" viewBox="0 0 24 24" id="Shipment-Tracking--Streamline-Ultimate">
  <desc>
    Shipment Tracking Streamline Icon: https://streamlinehq.com
  </desc>
  <path fill="#ffbc44" d="M1 1.95652c0 -0.25369 0.10078 -0.49698 0.28016 -0.67636C1.45954 1.10078 1.70283 1 1.95652 1H22.0435c0.2536 0 0.497 0.10078 0.6763 0.28016 0.1794 0.17938 0.2802 0.42267 0.2802 0.67636V22.0435c0 0.2536 -0.1008 0.497 -0.2802 0.6763 -0.1793 0.1794 -0.4227 0.2802 -0.6763 0.2802H1.95652c-0.25369 0 -0.49698 -0.1008 -0.67636 -0.2802C1.10078 22.5405 1 22.2971 1 22.0435V1.95652Z" stroke-width="1"></path>
  <path fill="#ffdda1" d="M22.0435 1H1.95652c-0.25369 0 -0.49698 0.10078 -0.67636 0.28016C1.10078 1.45954 1 1.70283 1 1.95652v4.71374c0 -0.25369 0.10078 -0.49698 0.28016 -0.67637 0.17938 -0.17937 0.42267 -0.28015 0.67636 -0.28015H22.0435c0.2536 0 0.497 0.10078 0.6763 0.28015 0.1794 0.17939 0.2802 0.42268 0.2802 0.67637V1.95652c0 -0.25369 -0.1008 -0.49698 -0.2802 -0.67636C22.5405 1.10078 22.2971 1 22.0435 1Z" stroke-width="1"></path>
  <path stroke="#191919" stroke-linecap="round" stroke-linejoin="round" d="M1 1.95652c0 -0.25369 0.10078 -0.49698 0.28016 -0.67636C1.45954 1.10078 1.70283 1 1.95652 1H22.0435c0.2536 0 0.497 0.10078 0.6763 0.28016 0.1794 0.17938 0.2802 0.42267 0.2802 0.67636V22.0435c0 0.2536 -0.1008 0.497 -0.2802 0.6763 -0.1793 0.1794 -0.4227 0.2802 -0.6763 0.2802H1.95652c-0.25369 0 -0.49698 -0.1008 -0.67636 -0.2802C1.10078 22.5405 1 22.2971 1 22.0435V1.95652Z" stroke-width="1"></path>
  <path fill="#ffffff" d="M13.4346 16.7826c0 -0.1268 0.0504 -0.2485 0.14 -0.3382 0.0897 -0.0896 0.2114 -0.14 0.3382 -0.14h5.7392c0.1268 0 0.2485 0.0504 0.3382 0.14 0.0896 0.0897 0.14 0.2114 0.14 0.3382v2.8696c0 0.1268 -0.0504 0.2485 -0.14 0.3382 -0.0897 0.0897 -0.2114 0.1401 -0.3382 0.1401h-5.7392c-0.1268 0 -0.2485 -0.0504 -0.3382 -0.1401 -0.0896 -0.0897 -0.14 -0.2114 -0.14 -0.3382v-2.8696Z" stroke-width="1"></path>
  <path fill="#ffffff" d="M15.347 8.66365c0 0.08462 -0.0224 0.16773 -0.065 0.24084 -0.0426 0.07312 -0.1038 0.13363 -0.1775 0.17535 -0.0735 0.04172 -0.1569 0.06316 -0.2416 0.06214 -0.0845 -0.00103 -0.1674 -0.02449 -0.24 -0.06798l-2.3846 -1.43478 -2.88772 1.50556c-0.07286 0.03796 -0.15427 0.0565 -0.23639 0.05385 -0.08212 -0.00265 -0.16217 -0.02642 -0.23243 -0.06899 -0.07027 -0.04258 -0.12838 -0.10255 -0.16873 -0.17412 -0.04035 -0.07156 -0.06159 -0.15232 -0.06166 -0.23448V1H15.347v7.66365Z" stroke-width="1"></path>
  <path stroke="#191919" stroke-linecap="round" stroke-linejoin="round" d="M13.4346 16.7826c0 -0.1268 0.0504 -0.2485 0.14 -0.3382 0.0897 -0.0896 0.2114 -0.14 0.3382 -0.14h5.7392c0.1268 0 0.2485 0.0504 0.3382 0.14 0.0896 0.0897 0.14 0.2114 0.14 0.3382v2.8696c0 0.1268 -0.0504 0.2485 -0.14 0.3382 -0.0897 0.0897 -0.2114 0.1401 -0.3382 0.1401h-5.7392c-0.1268 0 -0.2485 -0.0504 -0.3382 -0.1401 -0.0896 -0.0897 -0.14 -0.2114 -0.14 -0.3382v-2.8696Z" stroke-width="1"></path>
  <path stroke="#191919" stroke-linecap="round" stroke-linejoin="round" d="M15.347 8.66365c0 0.08462 -0.0224 0.16773 -0.065 0.24084 -0.0426 0.07312 -0.1038 0.13363 -0.1775 0.17535 -0.0735 0.04172 -0.1569 0.06316 -0.2416 0.06214 -0.0845 -0.00103 -0.1674 -0.02449 -0.24 -0.06798l-2.3846 -1.43478 -2.88772 1.50556c-0.07286 0.03796 -0.15427 0.0565 -0.23639 0.05385 -0.08212 -0.00265 -0.16217 -0.02642 -0.23243 -0.06899 -0.07027 -0.04258 -0.12838 -0.10255 -0.16873 -0.17412 -0.04035 -0.07156 -0.06159 -0.15232 -0.06166 -0.23448V1H15.347v7.66365Z" stroke-width="1"></path>
</svg>