<svg xmlns="http://www.w3.org/2000/svg" fill="none" viewBox="0 0 24 24" id="Shipment-Cargo-Boat--Streamline-Ultimate">
  <desc>
    Shipment Cargo Boat Streamline Icon: https://streamlinehq.com
  </desc>
  <path fill="#ff808c" d="M3.5279 21.5887c-0.51384 -0.3806 -0.94179 -0.8651 -1.25598 -1.422 -0.31428 -0.5568 -0.50772 -1.1737 -0.5678 -1.8102 -0.00793 -0.0654 -0.00211 -0.1316 0.01729 -0.1944 0.01929 -0.0629 0.05168 -0.1209 0.09495 -0.1704 0.04069 -0.05 0.09199 -0.0903 0.15026 -0.1178 0.05827 -0.0275 0.12199 -0.0417 0.18647 -0.0412H22.3265c0.0072 0.7857 -0.1838 1.5606 -0.5552 2.253 -0.3714 0.6925 -0.9112 1.28 -1.5696 1.7088v0.7164H3.69535l-0.16745 -0.9222Z" stroke-width="1"></path>
  <path fill="#ffffff" d="M14.2457 14.0917h-3.5914v3.741h3.5914v-3.741Z" stroke-width="1"></path>
  <path fill="#b2ffc0" d="M17.8365 14.0917h-3.5914v3.741h3.5914v-3.741Z" stroke-width="1"></path>
  <path fill="#ffffff" d="M22.3262 6.14208V17.8327H17.837V8.48954h3.1424V5.67439H17.837v-1.4028c-0.0022 -0.12151 0.0436 -0.23891 0.1278 -0.3266 0.0843 -0.0876 0.1997 -0.13842 0.3212 -0.1411h1.7956c0.6072 0.01376 1.1844 0.26748 1.605 0.70565 0.4207 0.43818 0.6506 1.02519 0.6396 1.63254Z" stroke-width="1"></path>
  <path fill="#66e1ff" d="M20.9793 5.67432h-3.1424v2.81515h3.1424V5.67432Z" stroke-width="1"></path>
  <path fill="#ffef5e" d="M10.6543 14.0917H2.57373v3.741h8.08057v-3.741Z" stroke-width="1"></path>
  <path fill="#66e1ff" d="M6.16329 10.3507v3.7411H2.57381v-3.2734c-0.00229 -0.1215 0.04366 -0.2389 0.12782 -0.3265 0.08415 -0.0878 0.19965 -0.1384 0.32106 -0.1412h3.1406Z" stroke-width="1"></path>
  <path fill="#ffffff" d="M10.6547 10.3507H6.16553v3.7411h4.48917v-3.7411Z" stroke-width="1"></path>
  <path fill="#ff808c" d="M17.8371 10.3507h-7.1828v3.7411h7.1828v-3.7411Z" stroke-width="1"></path>
  <path fill="#e3e3e3" d="M17.8366 9.88309v0.46761h-3.5914L8.54022 1.79319c-0.05197 -0.05311 -0.09046 -0.11769 -0.11243 -0.18866 -0.02207 -0.07088 -0.02685 -0.14597 -0.01405 -0.21904 0.0128 -0.07308 0.0428 -0.14215 0.0876 -0.20137 0.04471 -0.05923 0.10288 -0.1069 0.16975 -0.13918 0.0769 -0.03841 0.16354 -0.052639 0.24865 -0.04099 0.08512 0.01166 0.16469 0.04882 0.22831 0.10652l8.68855 8.77262Z" stroke-width="1"></path>
  <path stroke="#191919" stroke-linecap="round" stroke-linejoin="round" d="M3.5279 21.5887c-0.51384 -0.3806 -0.94179 -0.8651 -1.25598 -1.422 -0.31428 -0.5568 -0.50772 -1.1737 -0.5678 -1.8102 -0.00793 -0.0654 -0.00211 -0.1316 0.01729 -0.1944 0.01929 -0.0629 0.05168 -0.1209 0.09495 -0.1704 0.04069 -0.05 0.09199 -0.0903 0.15026 -0.1178 0.05827 -0.0275 0.12199 -0.0417 0.18647 -0.0412H22.3265c0.0072 0.7857 -0.1838 1.5606 -0.5552 2.253 -0.3714 0.6925 -0.9112 1.28 -1.5696 1.7088v0.7164H3.69535l-0.16745 -0.9222Z" stroke-width="1"></path>
  <path stroke="#191919" stroke-linecap="round" stroke-linejoin="round" d="M14.2457 14.0917h-3.5914v3.741h3.5914v-3.741Z" stroke-width="1"></path>
  <path stroke="#191919" stroke-linecap="round" stroke-linejoin="round" d="M17.8365 14.0917h-3.5914v3.741h3.5914v-3.741Z" stroke-width="1"></path>
  <path stroke="#191919" stroke-linecap="round" stroke-linejoin="round" d="M22.3262 6.14208V17.8327H17.837V8.48954h3.1424V5.67439H17.837v-1.4028c-0.0022 -0.12151 0.0436 -0.23891 0.1278 -0.3266 0.0843 -0.0876 0.1997 -0.13842 0.3212 -0.1411h1.7956c0.6072 0.01376 1.1844 0.26748 1.605 0.70565 0.4207 0.43818 0.6506 1.02519 0.6396 1.63254Z" stroke-width="1"></path>
  <path stroke="#191919" stroke-linecap="round" stroke-linejoin="round" d="M20.9793 5.67432h-3.1424v2.81515h3.1424V5.67432Z" stroke-width="1"></path>
  <path stroke="#191919" stroke-linecap="round" stroke-linejoin="round" d="M22.3257 6.14203V1.93335" stroke-width="1"></path>
  <path stroke="#191919" stroke-linecap="round" stroke-linejoin="round" d="m8.40771 1.46759 0.00841 4.49392" stroke-width="1"></path>
  <path stroke="#191919" stroke-linecap="round" stroke-linejoin="round" d="M7.75303 7.54676c-0.15962 -0.18226 -0.2455 -0.41754 -0.24063 -0.65979 0.00488 -0.24216 0.10002 -0.47391 0.26681 -0.64958 0.0811 -0.08502 0.17834 -0.15303 0.2861 -0.19993 0.10775 -0.04691 0.22381 -0.07174 0.34131 -0.07299 0.1175 -0.00133 0.23404 0.02092 0.34284 0.06534 0.10881 0.04452 0.20758 0.11034 0.2905 0.19354 0.17061 0.17233 0.27072 0.40216 0.28056 0.64442 0.00984 0.24225 -0.07117 0.47944 -0.22726 0.66495" stroke-width="1"></path>
  <path stroke="#191919" stroke-linecap="round" stroke-linejoin="round" d="M10.6543 14.0917H2.57373v3.741h8.08057v-3.741Z" stroke-width="1"></path>
  <path stroke="#191919" stroke-linecap="round" stroke-linejoin="round" d="M6.16329 10.3507v3.7411H2.57381v-3.2734c-0.00229 -0.1215 0.04366 -0.2389 0.12782 -0.3265 0.08415 -0.0878 0.19965 -0.1384 0.32106 -0.1412h3.1406Z" stroke-width="1"></path>
  <path stroke="#191919" stroke-linecap="round" stroke-linejoin="round" d="M10.6547 10.3507H6.16553v3.7411h4.48917v-3.7411Z" stroke-width="1"></path>
  <path stroke="#191919" stroke-linecap="round" stroke-linejoin="round" d="M17.8371 10.3507h-7.1828v3.7411h7.1828v-3.7411Z" stroke-width="1"></path>
  <path stroke="#191919" stroke-linecap="round" stroke-linejoin="round" d="M17.8366 9.88309v0.46761h-3.5914L8.54022 1.79319c-0.05197 -0.05311 -0.09046 -0.11769 -0.11243 -0.18866 -0.02207 -0.07088 -0.02685 -0.14597 -0.01405 -0.21904 0.0128 -0.07308 0.0428 -0.14215 0.0876 -0.20137 0.04471 -0.05923 0.10288 -0.1069 0.16975 -0.13918 0.0769 -0.03841 0.16354 -0.052639 0.24865 -0.04099 0.08512 0.01166 0.16469 0.04882 0.22831 0.10652l8.68855 8.77262Z" stroke-width="1"></path>
  <path stroke="#191919" stroke-linecap="round" stroke-linejoin="round" d="M3.6958 21.3446v-0.0093" stroke-width="1"></path>
  <path stroke="#191919" stroke-linecap="round" stroke-linejoin="round" d="M7.73584 21.3446v-0.0093" stroke-width="1"></path>
  <path stroke="#191919" stroke-linecap="round" stroke-linejoin="round" d="m11.7744 21.3446 -0.0066 -0.0027 -0.0027 -0.0066" stroke-width="1"></path>
  <path stroke="#191919" stroke-linecap="round" stroke-linejoin="round" d="M15.8071 21.3446v-0.0093" stroke-width="1"></path>
  <path fill="#66e1ff" d="M21.8754 21.5971V23H1.67383v-1.4029c0.40923 -0.003 0.81063 -0.1123 1.16475 -0.3172 0.35421 -0.205 0.649 -0.4986 0.85543 -0.8518 0.20586 0.3532 0.50065 0.6462 0.85515 0.85 0.35449 0.2036 0.75618 0.3109 1.16494 0.3109 0.40875 0 0.81053 -0.1073 1.16503 -0.3109 0.3544 -0.2038 0.64929 -0.4968 0.85515 -0.85 0.20586 0.3532 0.50075 0.6462 0.85515 0.85 0.35449 0.2036 0.75618 0.3109 1.16503 0.3109 0.40884 0 0.81044 -0.1073 1.16494 -0.3109 0.3544 -0.2038 0.6493 -0.4968 0.8551 -0.85 0.2051 0.3526 0.4994 0.6453 0.853 0.8488 0.3536 0.2034 0.7545 0.3105 1.1625 0.3105 0.4081 0 0.809 -0.1071 1.1626 -0.3105 0.3537 -0.2035 0.6479 -0.4962 0.8529 -0.8488 0.2059 0.3532 0.5008 0.6462 0.8552 0.85 0.3545 0.2036 0.7562 0.3109 1.1649 0.3109 0.4089 0 0.8106 -0.1073 1.1651 -0.3109 0.3544 -0.2038 0.6493 -0.4968 0.8551 -0.85l0.0094 -0.0094c0.2051 0.3552 0.4993 0.6507 0.8536 0.8574 0.3543 0.2068 0.7565 0.3174 1.1666 0.321Z" stroke-width="1"></path>
  <path stroke="#191919" stroke-linecap="round" stroke-linejoin="round" d="M21.8754 21.5971c-0.4101 -0.0027 -0.8124 -0.1123 -1.1672 -0.318 -0.3547 -0.2057 -0.6496 -0.5003 -0.8558 -0.8548v0.0047c-0.2049 0.3546 -0.4996 0.649 -0.8546 0.8536 -0.3547 0.2045 -0.7573 0.3119 -1.1669 0.3114 -0.4096 -0.0004 -0.8119 -0.1088 -1.1663 -0.3142 -0.3544 -0.2053 -0.6484 -0.5004 -0.8526 -0.8555v0.0047c-0.2049 0.3546 -0.4996 0.6491 -0.8544 0.8536 -0.3549 0.2045 -0.7575 0.3119 -1.167 0.3114 -0.4096 -0.0004 -0.8119 -0.1088 -1.1663 -0.3142 -0.3545 -0.2053 -0.6485 -0.5004 -0.8525 -0.8555v0.0047c-0.2049 0.3547 -0.4996 0.6491 -0.8546 0.8536 -0.3548 0.2045 -0.7573 0.3119 -1.16694 0.3114 -0.40962 -0.0004 -0.81188 -0.1087 -1.16628 -0.3142 -0.3544 -0.2053 -0.64843 -0.5003 -0.85247 -0.8555v0.0047c-0.205 0.3547 -0.4997 0.6491 -0.85458 0.8536 -0.35488 0.2045 -0.75733 0.3119 -1.16694 0.3114 -0.40962 -0.0004 -0.81188 -0.1087 -1.16628 -0.3141 -0.3544 -0.2053 -0.64843 -0.5004 -0.85257 -0.8556v0.0047c-0.20605 0.353 -0.50036 0.6462 -0.85409 0.8511 -0.35364 0.2048 -0.75456 0.314 -1.16322 0.3171" stroke-width="1"></path>
</svg>