<svg xmlns="http://www.w3.org/2000/svg" viewBox="0 0 14 14">
  <g>
    <path d="M13.25,2.9,10.72.37A1.22,1.22,0,0,0,9.84,0H4.16a1.22,1.22,0,0,0-.88.37L.75,2.9a.48.48,0,0,0,0,.7L2.4,5.25a.48.48,0,0,0,.7,0l.47-.47a.26.26,0,0,1,.28,0A.24.24,0,0,1,4,5V6.5a.5.5,0,0,0,.5.5h5a.5.5,0,0,0,.5-.5V5a.24.24,0,0,1,.15-.23.26.26,0,0,1,.28,0l.47.47a.48.48,0,0,0,.7,0L13.25,3.6A.48.48,0,0,0,13.25,2.9Z" style="fill: #000001"/>
    <path d="M12,13.2A8.21,8.21,0,0,0,10.5,8.56a.23.23,0,0,0-.16-.06H3.66a.23.23,0,0,0-.16.06A8.21,8.21,0,0,0,2,13.2a.72.72,0,0,0,.2.56.76.76,0,0,0,.55.24h8.46a.76.76,0,0,0,.55-.24A.72.72,0,0,0,12,13.2Z" style="fill: #000001"/>
  </g>
</svg>
