<svg xmlns="http://www.w3.org/2000/svg" fill="none" viewBox="0 0 48 48" id="Yen-Coin--Streamline-Kameleon">
  <desc>
    Yen Coin Streamline Icon: https://streamlinehq.com
  </desc>
  <path fill="#deeeff" d="M23.9999 47.9954c13.2548 0 23.9998 -10.7451 23.9998 -23.9999S37.2547 -0.00439453 23.9999 -0.00439453C10.7451 -0.00439453 0 10.7407 0 23.9955s10.7451 23.9999 23.9999 23.9999Z" stroke-width="1"></path>
  <path fill="#6bafff" d="M23.9997 11.7772c6.737 0 12.2181 5.4811 12.2181 12.2181s-5.4811 12.2181 -12.2181 12.2181 -12.2181 -5.4811 -12.2181 -12.2181 5.4811 -12.2181 12.2181 -12.2181Zm0 -1.7455c-7.7118 0 -13.9636 6.2518 -13.9636 13.9636 0 7.7118 6.2518 13.9636 13.9636 13.9636 7.7118 0 13.9636 -6.2518 13.9636 -13.9636 0 -7.7118 -6.2518 -13.9636 -13.9636 -13.9636Z" stroke-width="1"></path>
  <path fill="#2e3ecd" d="M24.0003 36.2131c-6.7369 0 -12.2181 -5.4811 -12.2181 -12.2181s5.4812 -12.2181 12.2181 -12.2181c6.737 0 12.2182 5.4811 12.2182 12.2181s-5.4812 12.2181 -12.2182 12.2181Z" stroke-width="1"></path>
  <path fill="#6bafff" d="M25.2355 27.3254h3.226c0.5027 0 0.9216 0.4189 0.9216 0.9426 0 0.5027 -0.4189 0.9216 -0.9216 0.9216h-3.226v1.0053c0 0.6912 -0.5446 1.2363 -1.2358 1.2363s-1.2357 -0.5451 -1.2357 -1.2363v-1.0053h-3.2261c-0.5027 0 -0.9216 -0.4189 -0.9216 -0.9216 0 -0.5237 0.4189 -0.9426 0.9216 -0.9426h3.2261v-1.529h-3.2261c-0.5027 0 -0.9216 -0.4189 -0.9216 -0.9216 0 -0.5236 0.4189 -0.9425 0.9216 -0.9425h2.493l-3.8544 -5.2787c-0.2095 -0.2932 -0.3142 -0.5655 -0.3142 -0.8797 0 -0.6493 0.5446 -1.2148 1.2777 -1.2148 0.5445 0 0.9216 0.2723 1.2148 0.7121l3.6659 5.4672 3.7077 -5.4462c0.2514 -0.377 0.6284 -0.7331 1.173 -0.7331 0.6702 0 1.2362 0.4608 1.2362 1.1939 0 0.356 -0.1257 0.6493 -0.3142 0.9006l-3.8963 5.2787h2.5349c0.5026 0 0.9216 0.4189 0.9216 0.9425 0 0.5027 -0.419 0.9216 -0.9216 0.9216h-3.2261l-0.0004 1.529Z" stroke-width="1"></path>
</svg>