<svg xmlns="http://www.w3.org/2000/svg" fill="none" viewBox="0 0 24 24" id="Landing--Streamline-Sharp">
  <desc>
    Landing Streamline Icon: https://streamlinehq.com
  </desc>
  <g id="landing--land-plane-travel-adventure-airplane-airport">
    <path id="Union" fill="#d7e0ff" d="M17.172 8.744a5.255 5.255 0 0 1 3.092 6.76l-0.305 0.82 -5.537 -2.06 -4.925 3.773 -3.284 -1.222 3.065 -4.467 -5.737 -2.136 3.056 -8.209 2.463 0.917 0.481 3.918 7.631 1.906Z" stroke-width="1"></path>
    <path id="Union_2" stroke="#4147d5" d="M17.172 8.744a5.255 5.255 0 0 1 3.092 6.76l-0.305 0.82 -5.537 -2.06 -4.925 3.773 -3.284 -1.222 3.065 -4.467 -5.737 -2.136 3.056 -8.209 2.463 0.917 0.481 3.918 7.631 1.906Z" stroke-width="1"></path>
    <path id="Vector 3419" stroke="#4147d5" d="M1 22h22" stroke-width="1"></path>
  </g>
</svg>