<svg xmlns="http://www.w3.org/2000/svg" fill="none" viewBox="0 0 24 24" id="Toilet-Paper--Streamline-Sharp">
  <desc>
    Toilet Paper Streamline Icon: https://streamlinehq.com
  </desc>
  <g id="toilet-paper--tussie-roll-bathroom-restroom-toilet">
    <path id="Vector 3053" fill="#d7e0ff" d="M8 2h10c-2.2091 0 -4 2.46243 -4 5.5V22H2V8c0 -3.31371 2.68629 -6 6 -6Z" stroke-width="1.5"></path>
    <path id="Vector" fill="#ffffff" d="M18 13c-2.2091 0 -4 -2.4624 -4 -5.5C14 4.46243 15.7909 2 18 2c2.2091 0 4 2.46243 4 5.5 0 3.0376 -1.7909 5.5 -4 5.5Z" stroke-width="1.5"></path>
    <path id="Vector_2" stroke="#4147d5" d="M18 13c-2.2091 0 -4 -2.4624 -4 -5.5C14 4.46243 15.7909 2 18 2c2.2091 0 4 2.46243 4 5.5 0 3.0376 -1.7909 5.5 -4 5.5Z" stroke-width="1.5"></path>
    <path id="Vector 3049" stroke="#4147d5" d="M18 6.75v1.5" stroke-width="1.5"></path>
    <path id="Vector 3048" stroke="#4147d5" d="M18 2H8C4.68629 2 2 4.68629 2 8v14h12V7.5" stroke-width="1.5"></path>
    <path id="Vector 3050" stroke="#4147d5" d="M2 16h3" stroke-width="1.5"></path>
    <path id="Vector 3051" stroke="#4147d5" d="M6.5 16h3" stroke-width="1.5"></path>
    <path id="Vector 3052" stroke="#4147d5" d="M14 16h-3" stroke-width="1.5"></path>
  </g>
</svg>