<svg xmlns="http://www.w3.org/2000/svg" fill="none" viewBox="0 0 24 24" id="Browser-Error-404--Streamline-Sharp">
  <desc>
    Browser Error 404 Streamline Icon: https://streamlinehq.com
  </desc>
  <g id="browser-error-404--browser-error-404-window-apps-code">
    <path id="Rectangle 661" fill="#8fbffa" d="M1 7h22v15H1V7Z" stroke-width="1"></path>
    <path id="Union" fill="#2859c5" fill-rule="evenodd" d="M23 2H1v5h22V2ZM10.64 13.44a1.25 1.25 0 0 1 2.5 0v2a1.25 1.25 0 1 1 -2.5 0v-2Zm1.25 -2.75a2.75 2.75 0 0 0 -2.75 2.75v2a2.75 2.75 0 1 0 5.5 0v-2a2.75 2.75 0 0 0 -2.75 -2.75Zm7.714 0h1.59v4.5h1v1.5h-1v1.5h-1.5v-1.5h-4v-1.53l0.186 -0.212 3.5 -4 0.224 -0.256Zm0.09 4.5v-2.325L17.66 15.19h2.034Zm-13.638 -4.5h-0.34l-0.225 0.257 -3.5 4 -0.185 0.212v1.531h4v1.5h1.5v-1.5h1v-1.5h-1v-4.5h-1.25Zm-0.25 2.175v2.325H3.77l2.035 -2.325Z" clip-rule="evenodd" stroke-width="1"></path>
  </g>
</svg>