<svg xmlns="http://www.w3.org/2000/svg" fill="none" viewBox="0 0 48 48" id="Beach--Streamline-Plump-Gradient">
  <desc>
    Beach Streamline Icon: https://streamlinehq.com
  </desc>
  <g id="beach--island-waves-outdoor-recreation-tree-beach-palm-wave-water-travel-places">
    <path id="Union" fill="url(#paint0_linear_7979_3238)" fill-rule="evenodd" d="M37.742 9.70767c.6671-3.1028-.2063-6.62319-3.352-8.43939-.9566-.552281-2.1798-.22453-2.7321.73205-.5523.95659-.2245 2.17977.7321 2.73205.8583.49558 1.4215 1.45958 1.5505 2.59259-1.3274-.99822-2.8297-1.64617-4.4105-1.87804-2.8349-.41581-5.7142.54147-7.96 2.83842-.7722.78978-.758 2.05605.0318 2.82825.7898.7722 2.056.758 2.8282-.0318 1.3979-1.42972 3.0163-1.89769 4.5195-1.67722.8184.12005 1.6617.45433 2.4578 1.02232-7.6627 1.9575-13.4115 8.6989-13.8768 16.8549-3.3881.836-6.117 2.3177-8.19705 4.3252-2.51433 2.4267-3.97424 5.5195-4.54829 8.9069.76653-.2538 1.47927-.5958 2.0039-.9992 1.86114-1.431 4.60074-1.5063 6.54484.1327 1.0781.9089 2.3757 1.352 3.6662 1.352 1.2906 0 2.5881-.4431 3.6662-1.352 1.922-1.6203 4.7457-1.6203 6.6676 0 1.0781.9089 2.3757 1.352 3.6662 1.352 1.2906 0 2.5881-.4431 3.6662-1.352 1.9442-1.639 4.6838-1.5637 6.5449-.1327.5351.4114 1.2659.7591 2.0498 1.0143-.4827-3.3467-1.7303-6.4352-4.0482-8.8757-2.4686-2.5991-6.008-4.3136-10.7372-4.9145.2044-3.879 1.1356-7.2965 2.4786-9.7792.9577-1.7704 2.0399-2.9326 3.1233-3.5551 1.3528 2.0439 1.2166 4.8409-.4034 6.588-.751.81-.7033 2.0754.1067 2.8264.8099.7511 2.0754.7033 2.8264-.1067 2.1094-2.2749 2.7875-5.3726 2.1791-8.2243C40.6885 15.7244 42 17.8618 42 20.3524c0 1.1045.8954 2 2 2s2-.8955 2-2c0-5.2401-3.6417-9.4321-8.258-10.64473Zm1.9452 31.78893c-.9801-.7536-2.4121-.7787-3.4096.0622-1.5379 1.2966-3.409 1.9406-5.2776 1.9406-1.8686 0-3.7397-.644-5.2776-1.9406-.991-.8354-2.4538-.8354-3.4448 0-1.5379 1.2966-3.409 1.9406-5.2776 1.9406-1.8686 0-3.7397-.644-5.2776-1.9406-.9975-.8409-2.42947-.8158-3.40963-.0622C6.62396 42.7951 3.97116 43.4994 2 43.4994c-.82843 0-1.5.6716-1.5 1.5s.67157 1.5 1.5 1.5h44c.8284 0 1.5-.6716 1.5-1.5s-.6716-1.5-1.5-1.5c-1.9712 0-4.624-.7043-6.3128-2.0028Z" clip-rule="evenodd"></path>
  </g>
  <defs>
    <linearGradient id="paint0_linear_7979_3238" x1="2.306" x2="55.022" y1="4.677" y2="35.368" gradientUnits="userSpaceOnUse">
      <stop stop-color="#00d078"></stop>
      <stop offset="1" stop-color="#007df0"></stop>
    </linearGradient>
  </defs>
</svg>