<svg xmlns="http://www.w3.org/2000/svg" fill="none" viewBox="0 0 48 48" id="Bell--Streamline-Plump-Gradient">
  <desc>
    Bell Streamline Icon: https://streamlinehq.com
  </desc>
  <g id="bell--service-concierge-porter-call-ring-bellhop-bell-reception-hotel">
    <path id="Union" fill="url(#paint0_linear_7979_3244)" fill-rule="evenodd" d="M18 6c0-1.10457.8954-2 2-2h8c1.1046 0 2 .89543 2 2s-.8954 2-2 2h-2v1.58776c10.7839.95024 19.3824 9.50764 20.3985 20.27334.1956 2.073-1.5063 3.6389-3.3987 3.6389H4.99805c-1.89242 0-3.59434-1.5659-3.39869-3.6389C2.61547 19.0946 11.2151 10.5369 22 9.58757V8h-2c-1.1046 0-2-.89543-2-2Zm6.9996 10.5c5.1784 0 9.6783 2.9152 11.9438 7.201.3872.7324 1.2947 1.0123 2.0271.6251.7324-.3871 1.0123-1.2947.6252-2.0271-2.7645-5.2298-8.2623-8.799-14.5961-8.799-.8284 0-1.5.6716-1.5 1.5s.6716 1.5 1.5 1.5ZM39.2391 36H8.7608c-.22347.3597-.49018.6657-.78967.9271-.93845.8191-2.26029 1.2545-3.77411 1.4471-1.48429.1888-2.84939 1.1735-3.231536 2.7021C.657827 42.3069 1.58733 43.5 2.85684 43.5H45.1478c1.2719 0 2.1937-1.1954 1.8866-2.4237-.3821-1.5286-1.7472-2.5133-3.2315-2.7021-1.5138-.1926-2.8357-.628-3.7741-1.4471-.2995-.2614-.5662-.5674-.7897-.9271Z" clip-rule="evenodd"></path>
  </g>
  <defs>
    <linearGradient id="paint0_linear_7979_3244" x1="8.456" x2="42.798" y1="11.596" y2="33.845" gradientUnits="userSpaceOnUse">
      <stop stop-color="#ffd600"></stop>
      <stop offset="1" stop-color="#00d078"></stop>
    </linearGradient>
  </defs>
</svg>