<svg xmlns="http://www.w3.org/2000/svg" fill="none" viewBox="0 0 48 48" id="Building-Office--Streamline-Plump-Gradient">
  <desc>
    Building Office Streamline Icon: https://streamlinehq.com
  </desc>
  <g id="building-office--travel-places-building-office">
    <path id="Union" fill="url(#paint0_linear_7979_3265)" fill-rule="evenodd" d="M35.4973 22.7505c-.0276-6.4298-.2651-11.2167-.4923-14.37161-.2447-3.39828-2.8688-6.06726-6.2573-6.38096C26.0481 1.74801 22.3912 1.5 18.5 1.5c-3.8708 0-7.5099.24542-10.20518.494-3.41453.31491-6.04753 3.01811-6.29114 6.43187C1.75967 11.8453 1.5 17.1041 1.5 24c0 9.2512.23432 16.0526.36782 19.1771C1.94783 45.0498 3.4914 46.5 5.34596 46.5H31.661c.2885 0 .5697-.0351.839-.1015V46.5h9.2925c2.3875 0 4.3714-1.868 4.4665-4.2766.1066-2.7002.241-7.0334.241-11.7234 0-3.6056-.1579-6.8526-.3281-9.3059-.2397-3.456-2.9316-6.1979-6.4093-6.4399-.4492-.0312-.9249-.0614-1.4244-.0893.0962 2.6317.1618 5.7428.1618 9.3351 0 7.0104-.1251 12.4516-.2447 16.0498-.0275.828-.721 1.4769-1.5489 1.4494-.8042-.0267-1.4395-.6817-1.4501-1.4779.1091-3.2925.2226-8.1189.2411-14.2713.0017-.572.0026-1.1553.0026-1.75 0-.4232-.0009-.8397-.0027-1.2495ZM15 12c0-1.1046-.8954-2-2-2s-2 .8954-2 2v2c0 1.1046.8954 2 2 2s2-.8954 2-2v-2Zm-2 9c1.1046 0 2 .8954 2 2v2c0 1.1046-.8954 2-2 2s-2-.8954-2-2v-2c0-1.1046.8954-2 2-2Zm13-9c0-1.1046-.8954-2-2-2s-2 .8954-2 2v2c0 1.1046.8954 2 2 2s2-.8954 2-2v-2Zm-2 9c1.1046 0 2 .8954 2 2v2c0 1.1046-.8954 2-2 2s-2-.8954-2-2v-2c0-1.1046.8954-2 2-2Zm-7.6255 10.6596C17.0606 31.5647 17.9231 31.5 19 31.5c1.0768 0 1.9394.0647 2.6255.1596 1.7856.2467 2.7309 1.7755 2.7958 3.4258.0435 1.1081.0787 2.6911.0787 4.9146 0 1.1734-.0098 2.1684-.0254 3.0093-.0051.2725-.2274.4907-.5.4907h-9.9492c-.2726 0-.4949-.2182-.5-.4907C13.5098 42.1684 13.5 41.1734 13.5 40c0-2.2235.0352-3.8065.0787-4.9146.0649-1.6503 1.0102-3.1791 2.7958-3.4258Z" clip-rule="evenodd"></path>
  </g>
  <defs>
    <linearGradient id="paint0_linear_7979_3265" x1="46.348" x2="-6.942" y1="46.509" y2="16.532" gradientUnits="userSpaceOnUse">
      <stop stop-color="#ff51e3"></stop>
      <stop offset="1" stop-color="#1b4dff"></stop>
    </linearGradient>
  </defs>
</svg>