<svg xmlns="http://www.w3.org/2000/svg" fill="none" viewBox="0 0 48 48" id="Hot-Air-Balloon--Streamline-Plump-Gradient">
  <desc>
    Hot Air Balloon Streamline Icon: https://streamlinehq.com
  </desc>
  <g id="hot-air-balloon">
    <path id="Subtract" fill="url(#paint0_linear_7979_3310)" fill-rule="evenodd" d="M9.72281 4.61817C13.5046 1.82662 18.5959.5 24 .5s10.4954 1.32662 14.2772 4.11817C42.1102 7.44751 44.5 11.7181 44.5 17.3c0 4.1887-1.8256 8.2944-3.9768 11.7058l-.0135.0209c-.009.0139-.0183.0276-.0278.0411-.0062.0117-.013.0233-.0202.0347-.7505 1.182-1.5437 2.287-2.322 3.2912-1.5579 2.01-3.1123 3.6873-4.2765 4.862-.0851.0859-.1682.1692-.2492.2498.5338.5366.8713 1.2655.8835 2.1312.0016.1171.0025.2381.0025.3633s-.0009.2462-.0025.3633c-.0205 1.4617-.9781 2.546-2.2419 2.9558-.1009.7452-.2213 1.3682-.3375 1.8691-.2669 1.1501-1.2171 1.9353-2.3651 2.0603-1.1385.1241-2.9431.2515-5.553.2515s-4.4145-.1274-5.553-.2515c-1.148-.125-2.0982-.9102-2.3651-2.0603-.1162-.5009-.2366-1.1239-.3375-1.8691-1.2638-.4098-2.2214-1.4941-2.2419-2.9558-.0016-.1171-.0025-.2381-.0025-.3633s.0009-.2462.0025-.3633c.0122-.8654.3495-1.5942.883-2.1308-.0811-.0807-.1644-.1641-.2497-.2502-1.1642-1.1747-2.7186-2.852-4.27641-4.862-.7783-1.0042-1.57157-2.1092-2.32199-3.2912-.00839-.0132-.01606-.0266-.02303-.04-.0129-.0186-.02542-.0375-.03754-.0567C5.32558 25.5944 3.5 21.4887 3.5 17.3c0-5.5819 2.38984-9.85249 6.22281-12.68183ZM12.8973 30.1237c1.2108.0916 2.5441.1715 4.008.2339l.2745.0115c2.0215.0822 4.2879.1309 6.8202.1309 2.6476 0 5.0044-.0533 7.0947-.1424 1.4629-.0623 2.7953-.1422 4.0054-.2337-1.0567 1.3983-2.1328 2.648-3.0905 3.6854-1.172 1.2698-2.1542 2.2078-2.6773 2.6907H18.6647c-.5236-.4835-1.5048-1.4207-2.6753-2.6887-.9581-1.038-2.0349-2.2884-3.0921-3.6876Zm6.9359-23.83739c.4342-.70555.2142-1.62946-.4914-2.06361-.7055-.43416-1.6294-.21414-2.0636.49141C15.5133 7.58239 14.5 11.8242 14.5 17.2995c0 3.2752.5004 6.3668 1.1869 9.0699.2039.803 1.0201 1.2886 1.8231 1.0847.8029-.204 1.2885-1.0202 1.0846-1.8231-.6393-2.5175-1.0946-5.3568-1.0946-8.3315 0-5.1667.9659-8.79104 2.3332-11.01319Zm10.8886-1.5722c-.4342-.70555-1.3581-.92557-2.0636-.49141-.7056.43415-.9256 1.35806-.4914 2.06361C29.5341 8.50846 30.5 12.1328 30.5 17.2995c0 2.9747-.4553 5.814-1.0946 8.3315-.2039.8029.2817 1.6191 1.0846 1.8231.803.2039 1.6192-.2817 1.8231-1.0847.6865-2.7031 1.1869-5.7947 1.1869-9.0699 0-5.4753-1.0133-9.71711-2.7782-12.58539Z" clip-rule="evenodd"></path>
  </g>
  <defs>
    <linearGradient id="paint0_linear_7979_3310" x1="44.361" x2="-7.151" y1="47.51" y2="22.232" gradientUnits="userSpaceOnUse">
      <stop stop-color="#ff51e3"></stop>
      <stop offset="1" stop-color="#1b4dff"></stop>
    </linearGradient>
  </defs>
</svg>