<svg xmlns="http://www.w3.org/2000/svg" fill="none" viewBox="0 0 48 48" id="Smoking-Area--Streamline-Plump-Gradient">
  <desc>
    Smoking Area Streamline Icon: https://streamlinehq.com
  </desc>
  <g id="smoking-area">
    <path id="Union" fill="url(#paint0_linear_7979_3460)" fill-rule="evenodd" d="M31.2214 1.10236c1.0483.34795 1.6161 1.47986 1.2681 2.52819-.9869 2.97368-.5643 6.05136 2.0272 9.06625 3.4899 4.0601 4.2282 8.601 2.7901 12.9338-.3479 1.0483-1.4798 1.6161-2.5282 1.2681-1.0483-.3479-1.6161-1.4798-1.2681-2.5282.9869-2.9736.5643-6.0513-2.0272-9.0663-3.4899-4.0601-4.2282-8.60091-2.7901-12.93367.3479-1.04833 1.4798-1.616112 2.5282-1.26817Zm8 0c1.0483.34795 1.6161 1.47986 1.2681 2.52819-.9869 2.97368-.5643 6.05136 2.0272 9.06625 3.4899 4.0601 4.2282 8.601 2.7901 12.9338-.3479 1.0483-1.4798 1.6161-2.5282 1.2681-1.0483-.3479-1.6161-1.4798-1.2681-2.5282.9869-2.9736.5643-6.0513-2.0272-9.0663-3.4899-4.0601-4.2282-8.60091-2.7901-12.93367.3479-1.04833 1.4798-1.616112 2.5282-1.26817ZM41.234 29.7041c-.9836-.0269-2.1562-.0551-3.518-.0817-.0092.1487-.0185.3064-.0279.4733C37.5946 31.7682 37.5 34.3592 37.5 38c0 3.6408.0946 6.2318.1881 7.9043.0094.1669.0187.3246.0279.4733 1.3618-.0266 2.5344-.0548 3.518-.0817 2.961-.0809 5.266-2.5084 5.266-5.4414v-5.7089c0-2.9331-2.305-5.3606-5.266-5.4415Zm-6.5412.224c.0069-.1233.0138-.2421.0207-.3562C31.7698 29.5299 28.1986 29.5 24 29.5c-8.0034 0-13.4025.1088-16.56887.2024-2.68634.0795-5.35017 1.762-5.73024 4.8201C1.58112 35.4862 1.5 36.6407 1.5 38c0 1.3593.08112 2.5138.20089 3.4775.38006 3.0581 3.0439 4.7406 5.73024 4.8201C10.5975 46.3913 15.9966 46.5 24 46.5c4.1986 0 7.7698-.0299 10.7135-.0719-.0069-.1141-.0138-.2329-.0207-.3562C34.5959 44.3396 34.5 41.6926 34.5 38c0-3.6925.0959-6.3396.1928-8.0719Z" clip-rule="evenodd"></path>
  </g>
  <defs>
    <linearGradient id="paint0_linear_7979_3460" x1="46.348" x2="-7.224" y1="46.51" y2="16.705" gradientUnits="userSpaceOnUse">
      <stop stop-color="#ff51e3"></stop>
      <stop offset="1" stop-color="#1b4dff"></stop>
    </linearGradient>
  </defs>
</svg>