<svg xmlns="http://www.w3.org/2000/svg" fill="none" viewBox="0 0 24 24" id="Email-Action-Download--Streamline-Freehand">
  <desc>
    Email Action Download Streamline Icon: https://streamlinehq.com
  </desc>
  <path fill="#000000" fill-rule="evenodd" d="M22.7592 9.34319c-0.481 -0.40078 -3.0059 -2.33454 -4.8895 -3.66713 -0.0651 -0.04783 -0.1466 -0.06784 -0.2264 -0.05563 -0.0799 0.01222 -0.1516 0.05565 -0.1995 0.12076 -0.0478 0.0651 -0.0678 0.14654 -0.0556 0.2264 0.0122 0.07986 0.0557 0.15159 0.1208 0.19943 0.8416 0.64124 1.6632 1.29251 2.3846 1.87364 2.7053 2.16424 2.4748 1.86362 2.6251 2.91564 -1.7198 0.5357 -3.3949 1.2057 -5.0097 2.0039 -1.7935 0.8817 -3.0059 1.6733 -4.2683 2.3646 -0.6398 -0.4282 -1.3585 -0.7245 -2.1141 -0.8717 -0.66 0.1151 -1.28625 0.3752 -1.8336 0.7615 -0.56109 -0.4409 -1.30253 -1.0019 -2.1141 -1.6432 -1.64174 -1.1671 -3.38163 -2.1896 -5.20011 -3.0559 0.10019 -0.73146 0.22043 -0.61122 0.14027 -0.67134 0.86168 -0.83161 2.59505 -2.33454 4.38853 -3.7072 0.07308 -0.05315 0.12205 -0.13315 0.13614 -0.2224 0.01409 -0.08926 -0.00785 -0.18045 -0.06099 -0.25353 -0.05315 -0.07307 -0.13315 -0.12205 -0.2224 -0.13614 -0.08926 -0.01409 -0.18045 0.00785 -0.25353 0.061C4.67403 6.58783 2.53988 8.10077 1.32752 9.1428 0.285499 10.0145 0.26546 20.1141 0.616141 22.4988c0.010033 0.078 0.050285 0.149 0.112109 0.1977 0.061824 0.0488 0.140288 0.0713 0.218534 0.0628 0 0 0.671306 -0.3607 0.691346 -0.3708 2.47576 -2.3124 5.18561 -4.3608 8.08571 -6.1118 1.37266 -0.8016 1.27246 -0.8317 2.52486 -0.1503 3.2383 1.9867 6.3687 4.1439 9.3783 6.4625 0 0.2906 0.2905 0.2405 -2.1141 0.2906 -2.4047 0.0501 -16.46203 0.0902 -17.82468 0 -0.08158 0.0139 -0.1556 0.0563 -0.20897 0.1195 -0.05337 0.0633 -0.08264 0.1434 -0.08264 0.2262 0 0.0827 0.02927 0.1628 0.08264 0.2261s0.12739 0.1056 0.20897 0.1195c1.68328 0.1002 19.68828 0.7315 20.57998 0.2505 0.1256 -0.0678 0.2271 -0.1728 0.2906 -0.3006 0.6112 -1.1722 1.8636 -12.7948 0.2004 -14.17751ZM1.19727 21.8475c0 -2.4748 0.67131 -10.4603 0.68132 -10.5405 2.11858 1.6216 4.35587 3.0818 6.69301 4.3685 -2.66398 1.798 -5.1352 3.8663 -7.37433 6.172Zm20.55993 0.0501c-2.4946 -2.1874 -5.1141 -4.2281 -7.8452 -6.1119 5.2402 -2.0039 7.2441 -3.617 8.6768 -4.1581 0.0523 3.4421 -0.2262 6.8812 -0.8316 10.27Z" clip-rule="evenodd" stroke-width="1"></path>
  <path fill="#000000" fill-rule="evenodd" d="M6.57773 8.34125c0.35068 1.47286 3.94767 4.84945 5.66097 5.00975 1.7134 0.1603 4.7693 -4.52882 4.619 -5.48067 -0.1503 -0.95185 -1.3326 -0.86167 -2.2243 -1.07208h-0.3707c-0.3868 -2.21981 -0.9054 -4.41462 -1.5531 -6.572775 -0.0305 -0.085034 -0.0936 -0.1544466 -0.1753 -0.1929664 -0.0818 -0.03851978 -0.1755 -0.042992 -0.2605 -0.0124327 -0.085 0.0305593 -0.1544 0.0936471 -0.193 0.1753841 -0.0385 0.081737 -0.043 0.175428 -0.0124 0.260463 0.7014 2.074027 1.2625 6.482597 1.3927 6.773167 0.2104 0.46089 0.7314 0.43083 1.002 0.49095 0.3907 0.10019 1.062 0.14027 1.3626 0.24047 -0.0601 0.08015 -0.0701 0.30058 -0.1603 0.47091 -0.6613 1.31255 -2.6652 3.82748 -3.3265 3.76728 -1.2324 -0.1102 -4.34843 -3.13605 -4.62897 -3.93761 0.08718 -0.05594 0.18156 -0.09976 0.28054 -0.13025 2.25443 -0.57111 2.28443 -0.06012 2.61513 -2.0039 0 -0.08015 0.8316 -5.741153 0.8115 -5.821309 -0.1102 -0.400779 -0.4909 -0.30058429 -0.6212 -0.060117 -0.1302 0.240467 -0.2104 1.082106 -0.6512 3.757306 -0.50101 3.10603 -0.60121 2.63512 -0.66132 2.89562 -1.36265 0.27053 -3.21625 0.16031 -2.90565 1.44281Z" clip-rule="evenodd" stroke-width="1"></path>
</svg>