<svg xmlns="http://www.w3.org/2000/svg" fill="none" viewBox="0 0 24 24" id="Envelope-Pigeon--Streamline-Freehand">
  <desc>
    Envelope Pigeon Streamline Icon: https://streamlinehq.com
  </desc>
  <path fill="#000000" d="M10.3055 12.4816c-0.1501 -0.1101 -0.2702 -0.1001 -0.79071 0.1501 -0.52046 0.2503 -1.2411 0.6706 -2.6924 1.4313 -0.04279 0.0202 -0.08105 0.0489 -0.11246 0.0843 -0.03141 0.0354 -0.05532 0.0768 -0.07028 0.1217 -0.01497 0.0449 -0.02068 0.0924 -0.0168 0.1395 0.00389 0.0472 0.01729 0.0931 0.0394 0.1349 0.01917 0.0425 0.04686 0.0806 0.08134 0.1119 0.03449 0.0313 0.07504 0.0552 0.11914 0.0702s0.09081 0.0208 0.13725 0.0171c0.04643 -0.0038 0.09159 -0.0171 0.13269 -0.039 1.00089 -0.4604 1.77158 -0.8107 2.25201 -1.0009 -0.18016 0.5905 -0.48043 1.4413 -0.82074 2.272 -0.27009 0.6869 -0.58436 1.3555 -0.94083 2.0018 -0.098 0.2124 -0.23753 0.4029 -0.41037 0.5605l-0.13012 0 -0.38033 -0.0601c-0.36033 -0.09 -0.72065 -0.2201 -0.92082 -0.2802l-4.1537 -1.3012 1.33118 -0.5705c0.07956 -0.0293 0.14425 -0.0889 0.1799 -0.1659 0.03565 -0.0769 0.03934 -0.1648 0.01027 -0.2444 -0.01444 -0.0382 -0.03625 -0.0731 -0.06419 -0.1028 -0.02795 -0.0297 -0.06147 -0.0536 -0.09865 -0.0703 -0.03718 -0.0167 -0.07729 -0.026 -0.11805 -0.0272 -0.04075 -0.0012 -0.08135 0.0056 -0.11947 0.0201 -0.64057 0.2202 -2.522242 0.9208 -2.54226 0.9308 -0.077202 0.0294 -0.1400855 0.0874 -0.175521 0.162 -0.03543553 0.0746 -0.0406837 0.16 -0.0146487 0.2384 0.1854687 0.5734 0.3325907 1.1586 0.4403927 1.7515 0.18016 0.9109 0.310276 1.8217 0.46041 2.7325 0.035787 0.44 0.095937 0.8778 0.180157 1.3112 0.06019 0.2994 0.22303 0.5684 0.46041 0.7606 0.23613 0.1478 0.51269 0.2179 0.79071 0.2002 0.43349 -0.0529 0.8598 -0.1536 1.27113 -0.3003 0.68061 -0.2001 1.36121 -0.4203 2.00178 -0.6505 0.64057 -0.2302 1.33119 -0.4805 2.00179 -0.7307 1.00089 -0.3803 1.71152 -0.6706 2.50219 -1.0009 0.5005 -0.2202 1.0009 -0.4604 1.6315 -0.7607 0.4952 -0.2195 0.9437 -0.5321 1.3212 -0.9208 0.219 -0.2477 0.3337 -0.5704 0.3203 -0.9008 -0.2559 -1.1176 -0.6705 -2.1928 -1.2311 -3.1928 -0.4756 -1.0472 -1.1029 -2.0185 -1.8617 -2.8826Zm1.7215 6.4658c-0.2375 0.1646 -0.4926 0.3023 -0.7606 0.4103l-4.11371 1.6515 -3.91349 1.4513c-0.20018 0.0701 -0.48043 0.2002 -0.75067 0.2702 -0.27024 0.0701 -0.43038 0.2803 -0.53047 -0.4504 -0.08007 -0.3603 -0.12011 -0.7406 -0.15013 -0.9108 -0.2202 -0.9008 -0.40036 -1.8116 -0.64057 -2.7124 -0.09018 -0.3792 -0.200433 -0.7534 -0.330299 -1.121 0.570509 0.2302 1.571399 0.6406 2.572289 1.0009 0.77069 0.2903 1.52136 0.5705 2.06184 0.7507 0.46956 0.1804 0.95564 0.3145 1.45129 0.4003 0.34202 0.0696 0.69766 0.0127 1.00089 -0.1601 0.68077 -0.7126 1.18174 -1.5773 1.46131 -2.5223 0.4082 -1.0599 0.74262 -2.1468 1.00092 -3.2529 0.3002 0.5105 0.6606 1.2512 1.0009 2.0018 0.4649 0.9066 0.8017 1.8734 1.0009 2.8726 -0.0401 0.1301 -0.2102 0.2202 -0.3604 0.3203Z" stroke-width="1"></path>
  <path fill="#000000" d="M15.4901 1.89216c0.2198 0.35925 0.2949 0.78855 0.2102 1.20107 0 0.12011 -0.4404 0.69062 -0.5405 0.95085 -0.0392 0.08292 -0.0595 0.17351 -0.0595 0.26523 0 0.09173 0.0203 0.18232 0.0595 0.26524 0.0829 0.15161 0.2035 0.27919 0.3503 0.37033 0.1802 0.12011 0.4204 0.18016 0.5705 0.28025 0.2973 0.19907 0.5496 0.45819 0.7407 0.76068 0.0892 0.11075 0.1481 0.24279 0.1709 0.38316 0.0228 0.14036 0.0087 0.28425 -0.0408 0.41755 -0.0637 0.12076 -0.1485 0.22921 -0.2502 0.32029 -0.1142 0.09348 -0.2384 0.17404 -0.3703 0.24021 -0.1495 0.04897 -0.2936 0.11267 -0.4304 0.19017 -0.056 0.03146 -0.1046 0.07453 -0.1426 0.12631 -0.038 0.05179 -0.0644 0.1111 -0.0776 0.17396 -0.008 0.10144 0.0048 0.20343 0.0375 0.29978 0.0327 0.09635 0.0846 0.18506 0.1526 0.26072 0.2102 0.26023 0.6406 0.59052 0.7207 0.80071 0.0575 0.14077 0.0776 0.29404 0.0583 0.44488 -0.0193 0.15084 -0.0773 0.29412 -0.1684 0.41585 -0.4025 0.4293 -0.89 0.7701 -1.4313 1.0009 -0.0371 0.0181 -0.0702 0.0434 -0.0974 0.0745 -0.0272 0.031 -0.0479 0.0671 -0.0609 0.1063 -0.0131 0.0391 -0.0182 0.0805 -0.0151 0.1216 0.0032 0.0412 0.0145 0.0813 0.0333 0.118 0.0385 0.0756 0.1055 0.1328 0.1862 0.1591 0.0807 0.0263 0.1685 0.0195 0.2442 -0.019 0.6327 -0.2483 1.2083 -0.6229 1.6915 -1.101 0.1734 -0.2083 0.2881 -0.4591 0.3321 -0.72658 0.044 -0.26748 0.0157 -0.54185 -0.0819 -0.79473 -0.1058 -0.35893 -0.2716 -0.69735 -0.4904 -1.00089 0.1574 -0.07562 0.3052 -0.1697 0.4404 -0.28025 0.1889 -0.14663 0.3456 -0.33062 0.4604 -0.54048 0.1089 -0.21214 0.1657 -0.44716 0.1657 -0.68561 0 -0.23845 -0.0568 -0.47348 -0.1657 -0.68561 -0.2446 -0.55729 -0.6354 -1.03802 -1.131 -1.39124l-0.2903 -0.16014c0.1624 -0.26854 0.287 -0.55819 0.3703 -0.86077 0.1093 -0.40571 0.1301 -0.83015 0.061 -1.24459 -0.0691 -0.41444 -0.2264 -0.8092 -0.4613 -1.157551 -0.1795 -0.263159 -0.4242 -0.475269 -0.7101 -0.615612 -0.286 -0.140343 -0.6034 -0.20412 -0.9214 -0.185101 -0.3849 0.012896 -0.7597 0.127003 -1.0865 0.330829 -0.3269 0.203826 -0.5942 0.490175 -0.7751 0.830205 -0.3322 0.8496 -0.5574 1.73719 -0.6706 2.64235 -0.1893 0.86588 -0.4816 1.70595 -0.8708 2.50223 -0.3703 0.77583 -0.8829 1.47523 -1.51136 2.06184 -0.18016 0.16014 -0.59052 0.5605 -1.00089 0.92082 -0.19239 0.16465 -0.39644 0.31518 -0.61054 0.4504 -0.43377 -0.45324 -0.91725 -0.85615 -1.44129 -1.20107 0.13011 -0.94304 0.13011 -1.89949 0 -2.84253 -0.11481 -0.72014 -0.39205 -1.4047 -0.81072 -2.00178 -0.31027 -0.42038 -1.00089 -0.95085 -1.40125 -1.54138 -0.09775 -0.09848 -0.17055 -0.21889 -0.21233 -0.35121 -0.04178 -0.13232 -0.05134 -0.27271 -0.02788 -0.40946 0.02152 -0.04791 0.05485 -0.08957 0.09686 -0.12108 0.04202 -0.03151 0.09134 -0.05184 0.14335 -0.05909 0.20995 -0.06773 0.43013 -0.09821 0.65058 -0.09008 0.48006 -0.0022 0.95483 0.10027 1.39124 0.30027 0.13012 0.08007 0.15014 0.23021 0.20018 0.34031 0.05372 0.14141 0.12429 0.27583 0.21019 0.40035 0.04964 0.06963 0.11053 0.13052 0.18016 0.18016 0.11912 0.0907 0.26129 0.14618 0.41036 0.16014 0.26481 0.00267 0.52935 -0.01743 0.79071 -0.06005 0.21242 0.00207 0.4227 0.04277 0.62055 0.12011 0.19209 0.08104 0.36575 0.20022 0.51046 0.35031 0.08039 0.09772 0.14152 0.2098 0.18016 0.33029 0.04427 0.12522 0.06464 0.25762 0.06005 0.39035 0 0.07006 -0.1101 0.34031 -0.12011 0.51046 -0.01231 0.07161 -0.00977 0.14498 0.00744 0.21557 0.01722 0.07059 0.04875 0.13689 0.09265 0.19479 0.03262 0.03329 0.07155 0.05974 0.11452 0.07779 0.04296 0.01806 0.0891 0.02736 0.13571 0.02736 0.0466 0 0.09274 -0.0093 0.1357 -0.02736 0.043 -0.01805 0.0819 -0.0445 0.1145 -0.07779 0 0 0.1802 -0.08007 0.2803 -0.9008 0.0194 -0.22532 -0.001 -0.4523 -0.0601 -0.6706 -0.0879 -0.20208 -0.2136 -0.38553 -0.37032 -0.54048 -0.19722 -0.26879 -0.4542 -0.48808 -0.75066 -0.64057 -0.50076 -0.22157 -1.04394 -0.33089 -1.59142 -0.32028 -0.04608 -0.16647 -0.10983 -0.32753 -0.19017 -0.48043 -0.09109 -0.18303 -0.22928 -0.338488 -0.40036 -0.450404C6.31015 0.33536 5.4881 0.141121 4.66046 0.180637c-0.36242 -0.020773 -0.72213 0.07355 -1.02772 0.269489 -0.30559 0.195938 -0.54143 0.483464 -0.6738 0.821484 -0.07514 0.2473 -0.09526 0.50804 -0.05895 0.76394 0.03631 0.25589 0.12817 0.50075 0.26914 0.71738 0.54584 0.65874 1.14507 1.27136 1.7916 1.83163 0.37121 0.4397 0.64115 0.95567 0.7907 1.51135 0.17671 0.77421 0.24742 1.56885 0.21019 2.3621 -0.10106 -0.03282 -0.20492 -0.05628 -0.31028 -0.07006 -0.57253 -0.06702 -1.15278 0.00508 -1.69151 0.21019 -0.51238 0.16967 -0.96194 0.48942 -1.29034 0.91777 -0.32839 0.42834 -0.52047 0.94549 -0.5513 1.48439 0.00733 0.4757 0.12398 0.9434 0.34092 1.3669s0.52837 0.7914 0.9102 1.0753c-0.00499 0.0733 -0.00499 0.1468 0 0.2201 0.01296 0.2163 0.04647 0.4308 0.10009 0.6406l0.14012 0.5705c0.06206 0.3307 0.23939 0.6286 0.50045 0.8408 0.22019 0.1101 0.53047 0.1501 0.86077 -0.2803l0.21018 -0.3203 0.7807 -1.1109c0.04281 -0.0751 0.05723 -0.163 0.04065 -0.2478 -0.01659 -0.0848 -0.06308 -0.1608 -0.13101 -0.2141 -0.06793 -0.0534 -0.15277 -0.0806 -0.23906 -0.0766 -0.0863 0.0039 -0.16831 0.0387 -0.23108 0.0981l-0.84075 1.191 -0.08007 0.1201c-0.03267 -0.0502 -0.05953 -0.1039 -0.08007 -0.1601l-0.12011 -0.5505c0 -0.1401 0 -0.2903 -0.06005 -0.4404 -0.01997 -0.1193 -0.01997 -0.241 0 -0.3603 0.00597 -0.0677 -0.00456 -0.1359 -0.03071 -0.1987 -0.02615 -0.0627 -0.06713 -0.1182 -0.11943 -0.1616 -0.30436 -0.2116 -0.55391 -0.4926 -0.72798 -0.8199 -0.17406 -0.3272 -0.26761 -0.6912 -0.27291 -1.0618 0.02097 -0.3471 0.14713 -0.6795 0.36169 -0.953 0.21456 -0.27359 0.50734 -0.47532 0.83938 -0.57838 0.39347 -0.14375 0.81627 -0.18843 1.2311 -0.13012 0.38809 0.085 0.73882 0.29193 1.00089 0.5905 0.14012 0.1502 0.49044 0.6206 0.76068 0.8608 0.14799 0.1528 0.34081 0.2545 0.55049 0.2903 0.42272 -0.0279 0.82573 -0.1891 1.15102 -0.4605 0.54296 -0.4024 1.06411 -0.83338 1.56141 -1.29111 0.7349 -0.6982 1.3294 -1.53056 1.7515 -2.45218 0.4455 -0.87639 0.7816 -1.80415 1.0009 -2.76246 0.0797 -0.80283 0.2578 -1.59281 0.5305 -2.3521 0.0888 -0.17221 0.2218 -0.31769 0.3854 -0.42147 0.1635 -0.10379 0.3518 -0.16214 0.5454 -0.16905 0.3203 0 0.5806 0.28025 0.7507 0.60053Z" stroke-width="1"></path>
  <path fill="#000000" d="M23.9777 15.194c-0.1379 -1.0298 -0.4035 -2.0385 -0.7907 -3.0027 -0.1114 -0.3119 -0.2851 -0.598 -0.5105 -0.8407 -0.2218 -0.1833 -0.494 -0.295 -0.7807 -0.3203 -0.4839 0.0027 -0.9652 0.07 -1.4313 0.2002 -0.693 0.1952 -1.3986 0.3424 -2.1119 0.4404 -0.4355 0.0362 -0.8731 -0.0396 -1.2711 -0.2202 -0.0842 -0.0285 -0.176 -0.0247 -0.2577 0.0104 -0.0816 0.0352 -0.1474 0.0993 -0.1847 0.18 -0.0372 0.0807 -0.0433 0.1724 -0.0171 0.2573 0.0262 0.085 0.083 0.1572 0.1592 0.2029 0.4923 0.2516 1.0387 0.3787 1.5915 0.3703 0.7571 -0.0547 1.5096 -0.1617 2.252 -0.3203 0.2872 -0.0616 0.578 -0.105 0.8707 -0.1301 0.5806 0 0.5405 0.2102 0.6106 0.3903 0.2166 0.6221 0.3938 1.2573 0.5305 1.9017 0.4904 2.0018 0 2.162 -0.8808 2.0919 -1.151 -0.0901 -2.3721 -0.7407 -3.4431 -0.6106 -0.2063 0.0235 -0.4012 0.1071 -0.5605 0.2403 -0.181 0.2091 -0.3481 0.4297 -0.5004 0.6606 -0.2395 0.2644 -0.497 0.5118 -0.7707 0.7406 -0.2648 0.2302 -0.5533 0.4315 -0.8608 0.6005l-1.111 0.4905c-0.039 0.0134 -0.075 0.0345 -0.1057 0.062 -0.0308 0.0275 -0.0558 0.0609 -0.0735 0.0982 -0.0177 0.0373 -0.0278 0.0777 -0.0297 0.119 -0.0018 0.0412 0.0045 0.0824 0.0188 0.1211 0.0252 0.0783 0.0805 0.1434 0.1537 0.1809 0.0732 0.0376 0.1583 0.0445 0.2366 0.0193l1.2211 -0.4504c0.3535 -0.169 0.6888 -0.3736 1.0009 -0.6105 0.3232 -0.2291 0.6278 -0.4834 0.9108 -0.7607 0.137 -0.1448 0.264 -0.2986 0.3803 -0.4604 0.032 -0.0439 0.0778 -0.0756 0.1301 -0.0901 0.5107 0.0204 1.013 0.1358 1.4814 0.3403 0.5718 0.2248 1.1655 0.3891 1.7715 0.4904 0.6216 0.0752 1.2508 -0.0549 1.7916 -0.3703 0.1315 -0.0864 0.2444 -0.1982 0.332 -0.3288 0.0877 -0.1306 0.1484 -0.2775 0.1785 -0.4319 0.0917 -0.4137 0.1153 -0.8397 0.0701 -1.2611Z" stroke-width="1"></path>
</svg>