<svg xmlns="http://www.w3.org/2000/svg" fill="none" viewBox="0 0 24 24" id="Mailbox-Full-1--Streamline-Freehand">
  <desc>
    Mailbox Full 1 Streamline Icon: https://streamlinehq.com
  </desc>
  <path fill="#000000" fill-rule="evenodd" d="M11.662 21.3927c-0.1328 -1.2485 -0.3503 -2.4866 -0.6509 -3.7056 -0.0013 -0.0391 -0.0104 -0.0774 -0.0268 -0.1129 -0.0165 -0.0354 -0.0399 -0.0672 -0.0688 -0.0933 -0.029 -0.0262 -0.063 -0.0463 -0.0999 -0.059 -0.0369 -0.0128 -0.076 -0.018 -0.115 -0.0152 -0.5308 0 -0.2904 1.0015 -0.2804 1.2418 -0.0186 0.9685 0.0451 1.9367 0.1903 2.8944 0.3605 1.8728 0.3906 2.1031 0.4907 2.2033 0.1002 0.1002 0.3305 0.2604 0.5308 0.0801 0.1153 -0.8065 0.1254 -1.6245 0.03 -2.4336Z" clip-rule="evenodd" stroke-width="1"></path>
  <path fill="#000000" fill-rule="evenodd" d="M7.79624 14.0216c0.08765 0 0.17172 -0.0348 0.2337 -0.0968 0.06198 -0.062 0.0968 -0.1461 0.0968 -0.2337 0 -0.0877 -0.03482 -0.1717 -0.0968 -0.2337s-0.14605 -0.0968 -0.2337 -0.0968c-1.20111 -0.1939 -2.43224 -0.0625 -3.56536 0.3806 -0.08746 0.0219 -0.16525 0.0721 -0.22136 0.1427 -0.05612 0.0706 -0.08743 0.1577 -0.08911 0.2478 0.35053 0.8914 3.79571 -0.05 3.87583 -0.1101Z" clip-rule="evenodd" stroke-width="1"></path>
  <path fill="#000000" fill-rule="evenodd" d="M6.5644 6.10967c0 0.54081 0.2704 0.5308 0.66099 0 -0.0636 -0.86346 -0.0636 -1.73044 0 -2.5939 0 -0.54082 0.08012 -2.00302 0.08012 -2.14323 0.4607 -0.410614 2.31348 -0.24036 3.36509 -0.22033 0.0801 0.3305 0 -0.250374 0.0601 2.10317 -0.0117 0.10651 -0.0117 0.21397 0 0.32048 -0.5709 0.14021 -2.00305 0 -2.57391 0.09013 -0.04274 0.00855 -0.08338 0.02544 -0.1196 0.04969 -0.03622 0.02426 -0.06731 0.05541 -0.09149 0.09168 -0.02418 0.03627 -0.04098 0.07695 -0.04943 0.11971 -0.00846 0.04276 -0.00842 0.08677 0.00013 0.12951 0.00855 0.04275 0.02543 0.08339 0.04969 0.11961 0.02425 0.03621 0.05541 0.0673 0.09168 0.09148 0.03627 0.02418 0.07694 0.04098 0.1197 0.04944 0.04277 0.00846 0.08677 0.00841 0.12952 -0.00014 0.76114 -0.13019 2.16321 0.34052 3.00451 0 0.3606 -0.17025 0.3706 -0.65098 0.3806 -1.0015 0.1193 -0.92673 0.1361 -1.8638 0.0501 -2.794207 -0.0697 -0.135053 -0.1742 -0.248999 -0.3028 -0.330011 -0.1286 -0.081011 -0.2765 -0.126133 -0.4283 -0.1306819 -1.07348 -0.0807601 -2.15146 -0.0807601 -3.22489 0C5.9034 0.391067 6.3641 1.44265 6.35408 1.82322c-0.05365 1.43221 0.01672 2.86637 0.21032 4.28645Z" clip-rule="evenodd" stroke-width="1"></path>
  <path fill="#000000" fill-rule="evenodd" d="M21.7372 11.0972c-0.5107 -2.30348 -0.711 -3.68556 -2.8142 -4.23639 -1.4722 -0.39059 -10.75618 -1.44217 -15.0226 0.83125 -0.43354 0.25063 -0.81274 0.58522 -1.1154 0.98418 -0.30266 0.39896 -0.5227 0.85428 -0.64726 1.33936 -0.31763 1.0932 -0.47616 2.2266 -0.4707 3.365 0.03679 1.2565 0.14043 2.5102 0.31046 3.7557 0.0097 0.0507 0.03274 0.0979 0.06673 0.1367 0.034 0.0388 0.07773 0.0679 0.12669 0.0842 0.04897 0.0163 0.10139 0.0193 0.15189 0.0086 0.0505 -0.0106 0.09724 -0.0346 0.13542 -0.0693 0.2704 -0.2003 -0.72109 -5.8087 1.08162 -7.95195 0.59585 -0.71923 1.43538 -1.19424 2.35876 -1.33459 0.92338 -0.14036 1.86613 0.06374 2.64878 0.57344 1.66251 1.00151 1.91291 3.5954 2.07311 5.5584 0.1102 1.3921 0.2304 2.1232 -0.91136 2.3134 -0.08012 0 -5.00754 0.4507 -5.68856 0.3105 -0.3305 -0.0701 -0.51077 -0.4306 -0.79119 -0.1502 -0.03119 0.0307 -0.05596 0.0674 -0.07286 0.1078 -0.01691 0.0404 -0.02561 0.0837 -0.02561 0.1275 0 0.0438 0.0087 0.0872 0.02561 0.1276 0.0169 0.0404 0.04167 0.077 0.07286 0.1078 0.21521 0.1705 0.46317 0.2949 0.72849 0.3656 0.26532 0.0706 0.54233 0.0859 0.81383 0.045 1.30196 0 5.00753 -0.1502 5.06762 -0.1602 1.85277 -0.2304 1.88287 -1.5924 1.79267 -3.2649 -0.1602 -3.0046 -0.5208 -5.6886 -3.23484 -6.8203h0.32048c6.26946 0.24036 6.64996 -0.31047 9.92496 0.65098 1.4121 0.41061 1.4922 1.0015 2.003 3.43512 0.3305 1.4222 1.2919 4.4467 -0.2103 4.8974 -1.1017 0.3305 -8.1423 0.4206 -8.4027 0.4307 -0.0876 0 -0.1717 0.0348 -0.2337 0.0968 -0.0619 0.0619 -0.0968 0.146 -0.0968 0.2337 0 0.0876 0.0349 0.1717 0.0968 0.2337 0.062 0.0619 0.1461 0.0968 0.2337 0.0968h2.4938c-0.3922 1.9164 -0.5136 3.8785 -0.3606 5.8287 0 0.3806 0 0.8914 0.3806 0.8413 0.0696 0.0068 0.1393 -0.0117 0.1964 -0.0522 0.057 -0.0405 0.0975 -0.1002 0.1141 -0.1681 0.0601 -0.1302 0.3705 -2.7241 0.4006 -3.275 0.0356 -0.5402 0.0356 -1.0822 0 -1.6224 -0.0375 -0.5168 -0.0375 -1.0356 0 -1.5523 1.0816 0 2.2133 0 3.7056 -0.0601 1.1417 -0.0601 2.3735 0.0801 3.0045 -1.0015 0.7812 -1.5023 0.1202 -3.5554 -0.2304 -5.1678Z" clip-rule="evenodd" stroke-width="1"></path>
</svg>