<svg xmlns="http://www.w3.org/2000/svg" fill="none" viewBox="0 0 24 24" id="Messages-Bubble-Square-Settings--Streamline-Freehand">
  <desc>
    Messages Bubble Square Settings Streamline Icon: https://streamlinehq.com
  </desc>
  <path fill="#000000" d="M23.8243 2.79865c-0.0097 -0.49258 -0.0565 -0.98373 -0.1399 -1.46929 -0.0346 -0.178 -0.1217 -0.341591 -0.2499 -0.469774 -0.134 -0.089217 -0.283 -0.153549 -0.4398 -0.189908 -0.7003 -0.130262 -1.408 -0.217053 -2.119 -0.259875C18.117 0.179913 13.5892 0 11.7701 0c-0.5397 0 -4.63776 0 -7.66631 0.0999519C3.21008 0.130628 2.31896 0.214066 1.43508 0.349832 1.12763 0.388388 0.833362 0.497885 0.575494 0.669678 0.467646 0.774543 0.388495 0.905314 0.345604 1.04949 0.224015 1.60831 0.153757 2.17707 0.135705 2.74868 0.00576782 5.06756 0.00576782 8.99567 0.00576782 9.86525c0 0.86955 0.12993718 4.61775 0.25987518 6.88665 0 0.7297 0.079961 1.2994 0.119942 1.5693 0.008783 0.1375 0.057405 0.2695 0.139933 0.3798 0.285266 0.2325 0.633132 0.3751 0.999522 0.4098 0.71451 0.072 1.43445 0.072 2.14896 0 0.76963 -0.07 1.42931 -0.1299 1.99904 -0.1299 1.53926 0 1.40932 0.3698 1.4593 0.5597 0.11394 0.5506 0.11394 1.1186 0 1.6692 -0.14396 0.805 -0.48763 1.5611 -0.99952 2.1989 -0.03994 0.0596 -0.06219 0.1293 -0.06416 0.201 -0.00197 0.0718 0.0164 0.1426 0.05301 0.2043 0.0366 0.0617 0.08993 0.1117 0.15382 0.1444 0.06388 0.0326 0.13571 0.0465 0.20716 0.04 0.39101 -0.0044 0.78016 -0.0547 1.15944 -0.1499 0.9984 -0.1845 1.92781 -0.6371 2.68871 -1.3094 0.3721 -0.416 0.7066 -0.8642 0.9995 -1.3393 0.4998 -0.7896 0.7996 -1.5193 1.0795 -1.9191 0.09 0 0.3298 -0.0699 0.5697 -0.0699 1.6492 0 5.5174 0.1699 6.8967 0.2798 0.7288 0.0496 1.4601 0.0496 2.1889 0 0.4223 -0.0064 0.8317 -0.1463 1.1695 -0.3998 0.3198 -0.6993 0.4835 -1.4599 0.4798 -2.2289 0.2798 -2.5988 0.2798 -7.00664 0.2798 -7.86623 0 -0.85959 -0.06 -4.23796 -0.1699 -6.19702Zm-0.9995 13.05375c-0.0104 0.7623 -0.0671 1.5234 -0.1699 2.2789 0 0.1199 -0.07 0.2598 -0.08 0.3098 -0.0793 0.0341 -0.1638 0.0543 -0.2499 0.06 -0.2748 0.0403 -0.5519 0.0637 -0.8296 0.07h-1.4593c-1.2094 -0.07 -4.3079 -0.18 -6.197 -0.17 -0.4839 -0.0103 -0.9679 0.0097 -1.4493 0.06 -0.1505 0.0102 -0.2924 0.074 -0.3998 0.1799 -0.3198 0.3698 -0.6397 1.2394 -1.2194 2.179 -0.2692 0.4205 -0.5806 0.8123 -0.92957 1.1694 -0.76583 0.6757 -1.71599 1.1072 -2.72868 1.2394 0.42806 -0.7586 0.68719 -1.6008 0.75963 -2.4688 0.22989 -2.6587 -1.33935 -2.4988 -2.12897 -2.5088 -0.57973 0 -1.26939 0 -2.06901 0.11 -0.56558 0.0429 -1.1336 0.0429 -1.69918 0 -0.30473 0.0095 -0.606 -0.0667 -0.86958 -0.2199L0.905335 9.86525c0 -0.70966 0 -3.15848 0.109945 -5.29745 0 -1.10946 0.10995 -2.13897 0.19991 -2.77866 0.01835 -0.14469 0.04505 -0.28819 0.07996 -0.42979 0.12993 0 0.33983 0 0.50975 -0.04998 1.13858 -0.12445 2.283 -0.18784 3.42835 -0.18991 2.81864 -0.05997 6.05705 0 6.52685 0 1.3594 0 4.258 0.11994 6.7767 0.26987 1.4394 0.08996 2.7487 0.18991 3.5783 0.28986l0.4698 0.07996c0.0066 0.11652 0.0066 0.23332 0 0.34983 0.1599 1.69919 0.2299 5.76723 0.2199 6.87669 0.05 0.75964 0.1199 4.25793 0.03 6.86673h-0.01Z" stroke-width="1"></path>
  <path fill="#000000" d="M18.6568 6.99663c-0.0539 -0.23321 -0.1523 -0.45381 -0.2899 -0.64969 -0.2485 -0.3583 -0.5296 -0.69289 -0.8396 -0.99952 -0.271 -0.27098 -0.581 -0.50005 -0.9195 -0.67967 -0.2078 -0.10102 -0.4415 -0.13591 -0.6697 -0.09996 -0.2325 0.07517 -0.4469 0.19769 -0.6297 0.35983 -0.3698 0.28986 -0.8796 0.73964 -1.2394 0.99952 -0.1057 -0.11748 -0.2193 -0.22767 -0.3398 -0.32984 -0.167 -0.13358 -0.3441 -0.25389 -0.5298 -0.35983V4.08803c-0.0231 -0.26271 -0.0907 -0.51957 -0.1999 -0.75964 -0.0909 -0.11529 -0.2041 -0.21102 -0.333 -0.28145 -0.1288 -0.07042 -0.2705 -0.11408 -0.4166 -0.12835 -0.4912 -0.02027 -0.9832 0.0065 -1.4693 0.07996 -0.3128 0.00548 -0.6242 0.04231 -0.92958 0.10995 -0.17514 0.04238 -0.33673 0.12834 -0.46977 0.24988 -0.08538 0.14082 -0.12061 0.30639 -0.09995 0.46977 0 0.36982 0.12993 1.12946 0.2099 1.62922 -0.27251 0.0862 -0.53677 0.19659 -0.78962 0.32984 -0.13292 0.06805 -0.25709 0.15196 -0.36983 0.24988 -0.30593 -0.33487 -0.64036 -0.64255 -0.99951 -0.91956 -0.19041 -0.09969 -0.40586 -0.14139 -0.61971 -0.11994 -0.16206 0.03279 -0.30926 0.1169 -0.41979 0.23988 -0.15993 0.16992 -0.36983 0.45978 -0.57973 0.67967 -0.24377 0.27355 -0.4428 0.5839 -0.58971 0.91956 -0.10404 0.19248 -0.14594 0.41245 -0.11994 0.6297 0.06263 0.14103 0.16292 0.26207 0.28986 0.34983 0.29985 0.24988 0.99952 0.67967 1.34935 0.99952 -0.0635 0.22085 -0.09382 0.44991 -0.08996 0.67967 0.00947 0.16768 0.0295 0.3346 0.05997 0.49976 -0.42794 0.15412 -0.83438 0.36232 -1.20942 0.61972 -0.16185 0.1113 -0.2939 0.2606 -0.38452 0.4349 -0.09063 0.1743 -0.13706 0.3682 -0.13523 0.5646 0.01585 0.133 0.05653 0.2618 0.11995 0.3798 0.13993 0.2899 0.42979 0.6297 0.53974 0.8396 0.16846 0.3644 0.39085 0.7014 0.65968 0.9995 0.09547 0.103 0.21157 0.1847 0.34074 0.2398 0.12916 0.0551 0.26849 0.0824 0.4089 0.0801 0.25959 -0.017 0.50907 -0.1071 0.71965 -0.2599 0.18555 -0.1246 0.36253 -0.2615 0.52975 -0.4098 0.12853 0.1135 0.26553 0.2171 0.4098 0.3099 0.26325 0.1592 0.54103 0.2931 0.8296 0.3998 -0.06024 0.3874 -0.10027 0.7778 -0.11994 1.1694 -0.0326 0.3395 0.01534 0.682 0.13993 0.9995 0.08235 0.094 0.18378 0.1693 0.29753 0.221 0.11375 0.0517 0.2372 0.0786 0.36216 0.0789 0.757 0.0286 1.5151 0.0053 2.2689 -0.07 0.2264 -0.0137 0.4508 -0.0506 0.6697 -0.1099 0.1274 -0.0345 0.239 -0.1121 0.3156 -0.2197 0.0765 -0.1075 0.1134 -0.2383 0.1042 -0.3701l-0.06 -1.3893c0.1659 -0.0714 0.3262 -0.1549 0.4798 -0.2499 0.2283 -0.1359 0.4455 -0.2897 0.6497 -0.4597 0.3198 0.3298 0.7296 0.6996 0.8396 0.7896 0.1258 0.1097 0.2819 0.1789 0.4477 0.1986 0.1659 0.0196 0.3338 -0.0113 0.4818 -0.0887 0.4475 -0.2925 0.8658 -0.6272 1.2494 -0.9995 0.2678 -0.2337 0.4854 -0.5194 0.6397 -0.8396 0.1585 -0.3335 0.2339 -0.7005 0.2199 -1.0695 -0.0373 -0.3033 -0.1871 -0.5815 -0.4198 -0.7796 -0.4247 -0.357 -0.8685 -0.6907 -1.3294 -0.9995 0.0248 -0.19247 0.0248 -0.3873 0 -0.57974 -0.0009 -0.14376 -0.0109 -0.28731 -0.0299 -0.4298 0.524 -0.34404 1.0279 -0.7178 1.5092 -1.11946 0.1429 -0.10086 0.2617 -0.23198 0.3481 -0.38401 0.0864 -0.15203 0.1382 -0.32123 0.1517 -0.49556ZM15.7182 8.306c-0.1005 0.06849 -0.175 0.16894 -0.2113 0.28506 -0.0363 0.11611 -0.0322 0.24107 0.0114 0.35463 0.0765 0.18191 0.127 0.37371 0.1499 0.56972 0.0108 0.18271 -0.013 0.36581 -0.0699 0.53979 -0.03 0.0955 -0.0328 0.1976 -0.0081 0.2947 0.0247 0.0971 0.0759 0.1854 0.148 0.255 0.3698 0.3598 1.6092 1.2994 1.5992 1.2894 -0.004 0.1572 -0.0451 0.3114 -0.1199 0.4498 -0.0834 0.1759 -0.2025 0.3325 -0.3499 0.4597 -0.3198 0.2699 -0.7896 0.4698 -0.9395 0.6597l-0.7896 -0.7796c-0.0463 -0.0817 -0.1111 -0.1514 -0.1892 -0.2035 -0.0781 -0.0521 -0.1674 -0.0851 -0.2606 -0.0964 -0.0924 -0.0099 -0.1858 0.0021 -0.2726 0.0351 -0.0869 0.033 -0.1647 0.0861 -0.2272 0.1548 -0.2034 0.2256 -0.4353 0.4238 -0.6896 0.5898 -0.2217 0.157 -0.4684 0.2753 -0.7297 0.3498 -0.1349 0.024 -0.2567 0.0958 -0.343 0.2022 -0.0863 0.1065 -0.1313 0.2405 -0.1268 0.3775l0.06 1.3594c-0.6276 0.0641 -1.2582 0.0942 -1.8891 0.0899 -0.0021 -0.5201 0.0481 -1.0392 0.15 -1.5492 0.0197 -0.0663 0.0261 -0.1359 0.0186 -0.2047 -0.0074 -0.0687 -0.0285 -0.1353 -0.062 -0.1958s-0.0788 -0.1137 -0.1331 -0.1565c-0.0544 -0.0428 -0.1167 -0.0743 -0.1834 -0.0927 -0.31041 -0.0873 -0.61168 -0.2045 -0.89954 -0.3499 -0.23056 -0.0944 -0.431 -0.2499 -0.57972 -0.4497 -0.03169 -0.0666 -0.07769 -0.1252 -0.13471 -0.1719 -0.05703 -0.0467 -0.12366 -0.0801 -0.19513 -0.098 -0.07073 -0.0207 -0.14521 -0.0251 -0.2179 -0.013 -0.07268 0.0121 -0.1417 0.0405 -0.2019 0.083 -0.19991 0.1299 -0.48977 0.4197 -0.77963 0.6396 -0.09995 0.08 -0.18991 0.18 -0.27986 0.18 -0.08996 0 -0.05997 -0.05 -0.08996 -0.08 -0.0621 -0.0689 -0.1189 -0.1424 -0.16992 -0.2199 -0.10994 -0.1799 -0.1999 -0.3698 -0.26987 -0.4898l-0.58971 -0.8695s0.04997 -0.08 0.09995 -0.13c0.11718 -0.1025 0.24443 -0.1929 0.37982 -0.2699 0.32554 -0.1633 0.65914 -0.3101 0.99952 -0.4397 0.10811 -0.0405 0.19597 -0.122 0.24459 -0.2267 0.04862 -0.1047 0.05411 -0.2243 0.01528 -0.3331 -0.07291 -0.20955 -0.11663 -0.42816 -0.12994 -0.64966 -0.01658 -0.20184 0.01779 -0.40461 0.09995 -0.58971 0.03368 -0.07528 0.04499 -0.15865 0.03258 -0.24018 -0.0124 -0.08152 -0.048 -0.15775 -0.10254 -0.2196 -0.17795 -0.18154 -0.37577 -0.34248 -0.58972 -0.47977 -0.34983 -0.24988 -0.77962 -0.51975 -0.99952 -0.70966 0 -0.08996 0.05997 -0.29986 0.12994 -0.42979 0.07888 -0.13413 0.16917 -0.2612 0.26987 -0.37982 0.18443 -0.23665 0.39203 -0.45429 0.6197 -0.64969 0.10395 0.07067 0.201 0.15099 0.28986 0.23989 0.33984 0.29985 0.69967 0.67967 0.92956 0.85958 0.08805 0.05894 0.1959 0.08051 0.29985 0.05997 0.05057 -0.01097 0.09818 -0.03273 0.13958 -0.06378 0.0414 -0.03104 0.07561 -0.07066 0.10031 -0.11613 0.08118 -0.12402 0.19084 -0.22684 0.31984 -0.29986 0.28379 -0.15019 0.57769 -0.28044 0.87958 -0.38981 0.07801 -0.01232 0.14799 -0.05492 0.19479 -0.11855 0.0468 -0.06363 0.0666 -0.14315 0.0551 -0.22128 0 0 -0.1299 -1.43931 -0.19992 -1.88909h0.18992c0.2362 -0.01749 0.4734 -0.01749 0.7097 0 0.3998 0 0.7996 -0.10995 1.1494 -0.09996 0.0754 -0.01184 0.1526 -0.00429 0.2243 0.02194 0.0717 0.02623 0.1355 0.07028 0.1855 0.12799v1.64921c-0.0146 0.08441 -0.0009 0.17127 0.0388 0.24715 0.0398 0.07588 0.1034 0.13655 0.1811 0.17265 0.2084 0.10173 0.4032 0.22934 0.5797 0.37981 0.1671 0.15478 0.3148 0.32931 0.4398 0.51975 0.0288 0.04608 0.0667 0.0858 0.1114 0.11673 0.0447 0.03093 0.0952 0.05243 0.1485 0.06319 0.1103 0.02164 0.2248 0.00018 0.3198 -0.05998l1.8391 -1.4493c0.12 0 0.2199 0.06997 0.3299 0.14993 0.1715 0.13354 0.3351 0.27706 0.4897 0.42979 0.1733 0.18809 0.3367 0.38492 0.4898 0.58972 0.0966 0.12447 0.1803 0.25843 0.2499 0.39981 -0.5984 0.45595 -1.2299 0.86688 -1.8891 1.22941Z" stroke-width="1"></path>
  <path fill="#000000" d="M12.5298 8.14608c-0.1041 -0.03603 -0.2111 -0.06279 -0.3199 -0.07997 -1.6192 -0.21989 -2.109 0.38982 -2.34886 1.13946 -0.06964 0.20592 -0.09488 0.42425 -0.07405 0.64063 0.02083 0.2164 0.08726 0.4259 0.1949 0.6147 0.10761 0.1889 0.25411 0.3528 0.42961 0.481 0.1756 0.1282 0.3763 0.2177 0.589 0.2627 0.4571 0.0972 0.9339 0.0225 1.3393 -0.2099 0.3625 -0.2244 0.6617 -0.5374 0.8696 -0.9096 0.0948 -0.16862 0.1551 -0.35445 0.1774 -0.54664 0.0223 -0.19218 0.0062 -0.38689 -0.0474 -0.57278 -0.0545 -0.19401 -0.1574 -0.371 -0.299 -0.51436 -0.1416 -0.14336 -0.3173 -0.2484 -0.5106 -0.30524Zm-0.19 1.38933c-0.1521 0.18831 -0.343 0.3417 -0.5597 0.44978 -0.1686 0.10931 -0.3704 0.15531 -0.5697 0.12991 -0.4798 0 -0.5497 -0.5697 -0.3898 -0.93952 0.2898 -0.68967 0.7696 -0.48976 1.4293 -0.30985 0.0586 0.02916 0.1098 0.07134 0.1496 0.12331 0.0399 0.05197 0.0673 0.11235 0.0803 0.17654 0.0018 0.13654 -0.0482 0.26869 -0.14 0.36983Z" stroke-width="1"></path>
</svg>