<svg xmlns="http://www.w3.org/2000/svg" fill="none" viewBox="0 0 24 24" id="Messages-Bubble-Settings--Streamline-Freehand">
  <desc>
    Messages Bubble Settings Streamline Icon: https://streamlinehq.com
  </desc>
  <path fill="#000000" d="M23.9629 9.60993c-0.09 -2.0005 -1.6104 -4.82119 -4.191 -6.8817C17.6154 0.986405 14.932 0.0272949 12.16 0.00755295 9.20113 -0.0514161 6.31926 0.952978 4.038 2.83825 1.7584 4.74897 0.321381 7.4793 0.0370068 10.4401 -0.143038 13.5009 0.337081 15.2913 1.40735 16.5216c1.07026 1.2303 2.94072 2.0005 5.48135 2.8507 0.09002 0 0.12003 0.1501 0.17004 0.3001 0.11387 0.5105 0.11387 1.0399 0 1.5504 -0.11504 0.7597 -0.42522 1.4766 -0.90022 2.0805 -0.04943 0.065 -0.07935 0.1427 -0.08627 0.224 -0.00691 0.0814 0.00948 0.163 0.04724 0.2354 0.03777 0.0724 0.09535 0.1325 0.16603 0.1734 0.07067 0.0409 0.15152 0.0608 0.23309 0.0574 0.29427 0.0067 0.5886 -0.01 0.88022 -0.05 1.25651 -0.1266 2.47102 -0.5223 3.56087 -1.1603 0.3727 -0.2727 0.7088 -0.592 1.0003 -0.9502 0.6901 -0.8403 1.2803 -1.9005 1.6204 -2.3406 0.4101 0 1.4003 0 2.4406 -0.1301 0.5928 -0.0609 1.1809 -0.1611 1.7604 -0.3 2.007 -0.5407 3.7404 -1.8104 4.8612 -3.5609 1.0364 -1.781 1.4976 -3.8385 1.3203 -5.89147Zm-2.0005 5.48137c-0.9833 1.6127 -2.536 2.7978 -4.351 3.3208 -0.5455 0.1425 -1.1004 0.2461 -1.6605 0.3101 -1.3203 0.16 -2.4006 -0.07 -2.7306 0.17 -0.3301 0.2401 -0.9203 1.3304 -1.5604 2.1606 -0.3061 0.4252 -0.6735 0.8027 -1.0903 1.1202 -0.99684 0.5685 -2.10682 0.91 -3.25079 1.0003 0.37849 -0.729 0.59676 -1.5304 0.64016 -2.3506 0.05971 -0.5369 -0.00182 -1.0804 -0.18005 -1.5904 -0.04898 -0.1564 -0.13169 -0.3002 -0.2423 -0.4212 -0.11061 -0.121 -0.24643 -0.2162 -0.39786 -0.279 -2.33057 -0.8502 -4.00099 -1.4603 -5.00123 -2.6606 -1.00025 -1.2003 -1.250313 -2.6807 -1.00025 -5.3613 0.29547 -2.66161 1.62454 -5.10062 3.70091 -6.79173C6.92361 2.01392 9.54711 1.10633 12.24 1.15784c2.5178 -0.00187 4.963 0.84372 6.9417 2.40059 2.3506 1.82045 3.811 4.30106 3.931 6.10151 0.1694 1.89216 -0.2535 3.79016 -1.2103 5.43136h0.06Z" stroke-width="1"></path>
  <path fill="#000000" d="M18.8617 7.56943c-0.0539 -0.23337 -0.1524 -0.45413 -0.2901 -0.65016 -0.2514 -0.35931 -0.5361 -0.69419 -0.8502 -1.00025 -0.2695 -0.26887 -0.576 -0.4979 -0.9102 -0.68016 -0.2112 -0.1019 -0.4486 -0.1368 -0.6802 -0.10003 -0.2336 0.07299 -0.4486 0.19585 -0.6301 0.36009 -0.3601 0.29007 -0.8703 0.74018 -1.2403 1.00025 -0.0916 -0.10813 -0.192 -0.20849 -0.3001 -0.30008 -0.1722 -0.13144 -0.3526 -0.25172 -0.5402 -0.36009V4.68872c-0.0063 -0.26209 -0.064 -0.52038 -0.17 -0.76019 -0.0901 -0.11624 -0.2033 -0.21265 -0.3324 -0.28321 -0.129 -0.07056 -0.2713 -0.11376 -0.4178 -0.12689 -0.5162 -0.01166 -1.0322 0.02856 -1.5404 0.12003 -0.3096 0.00554 -0.6179 0.04241 -0.9202 0.11003 -0.1739 0.04386 -0.33282 0.13369 -0.4601 0.26006 -0.08544 0.14093 -0.12069 0.30661 -0.10003 0.47012 0 0.37009 0.13004 1.13028 0.20005 1.6304 -0.26939 0.08653 -0.5305 0.19699 -0.78019 0.33008 -0.13445 0.06565 -0.25902 0.14982 -0.37009 0.25006 -0.31095 -0.33029 -0.64523 -0.63783 -1.00025 -0.92022 -0.16778 -0.11986 -0.3647 -0.1924 -0.57014 -0.21006 -0.16297 0.0307 -0.31092 0.11524 -0.4201 0.24006 -0.16004 0.17005 -0.3801 0.46012 -0.59015 0.68017 -0.2406 0.27628 -0.43943 0.58631 -0.59015 0.92023 -0.10351 0.20737 -0.13179 0.44425 -0.08001 0.67017 0.06117 0.13915 0.15773 0.25985 0.28006 0.35008 0.30008 0.25006 1.00025 0.67017 1.35034 1.00025 -0.06169 0.22122 -0.08868 0.45067 -0.08002 0.68021 -0.0153 0.1663 -0.0153 0.3337 0 0.5001 -0.42509 0.1543 -0.82851 0.3627 -1.2003 0.6201 -0.16325 0.1101 -0.29636 0.2593 -0.38721 0.434 -0.09085 0.1747 -0.13654 0.3694 -0.13292 0.5663 0.01599 0.1426 0.0566 0.2814 0.12003 0.4101 0.14004 0.2901 0.44011 0.6301 0.54014 0.8402 0.17206 0.3627 0.39429 0.6994 0.66016 1.0002 0.09554 0.1031 0.21173 0.1849 0.34099 0.24 0.12925 0.0552 0.26868 0.0825 0.40919 0.0801 0.26013 -0.0154 0.51024 -0.1057 0.72018 -0.26 0.18743 -0.1223 0.36471 -0.2594 0.53013 -0.4101 0.134 0.1112 0.27427 0.2148 0.42011 0.31 0.26238 0.1613 0.54056 0.2954 0.8302 0.4001 -0.06557 0.3904 -0.10567 0.7847 -0.12003 1.1803 -0.04243 0.34 0.00589 0.6851 0.14004 1.0003 0.08245 0.0913 0.18258 0.165 0.29433 0.2166 0.11174 0.0516 0.23284 0.08 0.35584 0.0834 0.7576 0.0288 1.5162 0.0055 2.2706 -0.07 0.2298 -0.014 0.4576 -0.0509 0.6801 -0.11 0.1248 -0.0392 0.2333 -0.118 0.3092 -0.2245 0.0758 -0.1066 0.1147 -0.2349 0.1109 -0.3656l-0.06 -1.3904c0.166 -0.0714 0.3265 -0.155 0.4801 -0.2501 0.2252 -0.1362 0.4392 -0.2901 0.6402 -0.4601 0.3201 0.3301 0.7402 0.7002 0.8402 0.7902 0.1288 0.1083 0.2865 0.1765 0.4536 0.196 0.1671 0.0196 0.3363 -0.0103 0.4866 -0.0859 0.4442 -0.2934 0.8596 -0.6283 1.2403 -1.0003 0.2704 -0.2356 0.4884 -0.5252 0.6402 -0.8502 0.1643 -0.3283 0.2402 -0.6937 0.22 -1.0603 -0.0365 -0.3015 -0.1824 -0.5791 -0.4101 -0.7802 -0.34 -0.33 -0.9402 -0.6901 -1.3303 -1.0002 0.0437 -0.2104 0.0572 -0.426 0.04 -0.6402 -0.0111 -0.15971 -0.0413 -0.31754 -0.09 -0.47008 0.5189 -0.33221 1.0166 -0.69633 1.4904 -1.09027 0.1405 -0.1033 0.2577 -0.23509 0.3439 -0.38676s0.1394 -0.31982 0.1562 -0.49346ZM15.961 8.90976c-0.1035 0.06595 -0.1804 0.16638 -0.217 0.28353 -0.0366 0.11715 -0.0306 0.24348 0.0169 0.35663 0.0783 0.18087 0.1256 0.3736 0.1401 0.57018 0.0107 0.1828 -0.0131 0.366 -0.0701 0.5401 -0.0288 0.0966 -0.03 0.1993 -0.0034 0.2965 0.0265 0.0972 0.0796 0.1851 0.1535 0.2536 0.3701 0.3601 1.6004 1.3004 1.6004 1.2904 -0.0145 0.1762 -0.0645 0.3477 -0.147 0.5042 -0.0825 0.1564 -0.1958 0.2945 -0.3331 0.406 -0.3101 0.27 -0.7902 0.4701 -0.9303 0.6601l-0.8002 -0.7802c-0.0444 -0.0813 -0.1077 -0.1508 -0.1846 -0.2027 -0.0768 -0.0518 -0.165 -0.0845 -0.257 -0.0953 -0.0921 -0.0108 -0.1854 0.0007 -0.2722 0.0334 -0.0867 0.0327 -0.1644 0.0857 -0.2264 0.1546 -0.2064 0.22 -0.438 0.4147 -0.6902 0.5802 -0.2193 0.1636 -0.4668 0.2856 -0.7302 0.3601 -0.1359 0.0237 -0.2589 0.0952 -0.3469 0.2015 -0.088 0.1064 -0.1352 0.2406 -0.1332 0.3786l0.02 1.3103c-0.6274 0.073 -1.2588 0.1064 -1.8904 0.1 0.0007 -0.5208 0.0544 -1.0403 0.16 -1.5503 0.0342 -0.1352 0.0147 -0.2784 -0.0543 -0.3996 -0.0689 -0.1211 -0.1821 -0.211 -0.3158 -0.2506 -0.3053 -0.0937 -0.60289 -0.2107 -0.89021 -0.3501 -0.23448 -0.0778 -0.44241 -0.2199 -0.60014 -0.4101 -0.03428 -0.0647 -0.08113 -0.1219 -0.13781 -0.1683 -0.05668 -0.0464 -0.12205 -0.081 -0.19228 -0.1018 -0.07069 -0.0214 -0.14537 -0.0262 -0.21824 -0.0141 -0.07286 0.0122 -0.14194 0.041 -0.20186 0.0842 -0.20005 0.13 -0.49012 0.4201 -0.78019 0.6401 -0.11003 0.08 -0.20005 0.1801 -0.29008 0.1801 -0.09002 0 0 0 -0.08001 -0.0801 -0.03813 -0.071 -0.07155 -0.1445 -0.10003 -0.22 -0.12003 -0.1801 -0.21005 -0.3701 -0.28007 -0.4901l-0.58014 -0.8702s0 -0.0901 0.10002 -0.1301c0.11293 -0.108 0.24097 -0.1989 0.3801 -0.27 0.32202 -0.1714 0.65636 -0.3185 1.00024 -0.4402 0.10661 -0.0425 0.19291 -0.1243 0.24125 -0.2284 0.04834 -0.1041 0.05507 -0.2228 0.01882 -0.3317 -0.08091 -0.2079 -0.12818 -0.4274 -0.14004 -0.6502 -0.01157 -0.20169 0.02263 -0.40344 0.10003 -0.5901 0.02864 -0.07905 0.03348 -0.16477 0.01393 -0.24654 -0.01956 -0.08178 -0.06265 -0.15603 -0.12396 -0.21357 -0.18 -0.18251 -0.37769 -0.34669 -0.59014 -0.49012 -0.35009 -0.24006 -0.7902 -0.51013 -1.00025 -0.70018 0.06001 -0.09002 0.06001 -0.30007 0.14003 -0.4301 0.06936 -0.13313 0.14966 -0.26026 0.24006 -0.3801 0.18106 -0.24282 0.38911 -0.46429 0.62016 -0.66016 0.09002 0.06001 0.19004 0.16004 0.31007 0.26006 0.34009 0.30008 0.69017 0.68017 0.93023 0.85021 0.03985 0.03296 0.08668 0.05639 0.13695 0.06853 0.05026 0.01213 0.10263 0.01264 0.15312 0.00149 0.05241 -0.00964 0.10202 -0.03079 0.14527 -0.06192 0.04324 -0.03114 0.07903 -0.07148 0.1048 -0.11812 0.08409 -0.14622 0.20931 -0.26448 0.36008 -0.34009 0.28007 -0.15129 0.57094 -0.28167 0.87019 -0.39009 0.0781 -0.01233 0.1481 -0.05497 0.195 -0.11864 0.0468 -0.06368 0.0666 -0.14325 0.0551 -0.22145 0 0 -0.2101 -1.44035 -0.2401 -1.89047l0.1901 -0.05001c0.2399 -0.01332 0.4803 -0.01332 0.7202 0 0.3901 0 0.8002 -0.11002 1.1402 -0.10002 0.077 -0.01085 0.1554 -0.00287 0.2286 0.02326 0.0731 0.02614 0.1389 0.06964 0.1915 0.12677v1.62041c-0.0121 0.08547 0.0038 0.17256 0.0453 0.24828 0.0414 0.07571 0.1063 0.13598 0.1848 0.17182 0.2068 0.09949 0.3988 0.22742 0.5701 0.38009 0.1727 0.14959 0.3212 0.32505 0.4401 0.52013 0.0309 0.04642 0.0706 0.08625 0.117 0.11716 0.0464 0.03091 0.0984 0.05229 0.1531 0.06289 0.0537 0.0114 0.1092 0.01105 0.1627 -0.00104 0.0536 -0.01209 0.1038 -0.03562 0.1474 -0.06898l1.8505 -1.43035c0.12 0 0.23 0.07001 0.34 0.15003 0.171 0.13071 0.3315 0.27451 0.4802 0.43011 0.1763 0.18561 0.34 0.38276 0.4901 0.59014 0.0961 0.127 0.183 0.26071 0.26 0.4001 -0.5908 0.48764 -1.2159 0.93223 -1.8704 1.33033Z" stroke-width="1"></path>
  <path fill="#000000" d="M12.7295 8.74968c-0.1076 -0.03597 -0.218 -0.06273 -0.33 -0.08 -1.62 -0.22 -2.11 0.39 -2.35 1.14 -0.06798 0.20672 -0.09163 0.42552 -0.06943 0.64202 0.02223 0.2165 0.08973 0.4259 0.19823 0.6145 0.1085 0.1887 0.2555 0.3524 0.4314 0.4805s0.3769 0.2177 0.5898 0.263c0.4657 0.0672 0.9401 -0.032 1.34 -0.28 0.3597 -0.2248 0.6558 -0.5381 0.86 -0.91 0.0972 -0.1697 0.1589 -0.3574 0.1813 -0.5516 0.0223 -0.19431 0.0049 -0.39111 -0.0513 -0.57842 -0.0641 -0.17857 -0.1702 -0.33906 -0.3095 -0.46788 -0.1393 -0.12882 -0.3075 -0.22216 -0.4905 -0.27212Zm-0.19 1.38002c-0.1506 0.1967 -0.346 0.3544 -0.57 0.46 -0.1687 0.1093 -0.3706 0.1554 -0.57 0.13 -0.48 -0.05 -0.54 -0.57 -0.39 -0.94002 0.29 -0.69 0.77 -0.49 1.43 -0.31 0.0601 0.02717 0.1125 0.06878 0.1526 0.12112 0.0402 0.05234 0.0667 0.11379 0.0774 0.17888 0.0036 0.06566 -0.0061 0.13137 -0.0284 0.19322 -0.0224 0.0618 -0.0569 0.1186 -0.1016 0.1668Z" stroke-width="1"></path>
</svg>