<svg xmlns="http://www.w3.org/2000/svg" fill="none" viewBox="0 0 24 24" id="Smiley-Wink--Streamline-Freehand">
  <desc>
    Smiley Wink Streamline Icon: https://streamlinehq.com
  </desc>
  <path fill="#000000" d="M23.8702 9.99586c-0.1117 -1.02271 -0.3431 -2.02878 -0.6894 -2.99755 -0.6686 -1.7931 -1.8414 -3.3546 -3.3772 -4.49632C18.2958 1.36616 16.5128 0.652269 14.6378 0.433681c-0.0909 -0.008814 -0.1817 0.017252 -0.2541 0.072914 -0.0723 0.055662 -0.1208 0.136755 -0.1356 0.226841 -0.0086 0.08972 0.0178 0.179293 0.0736 0.250034 0.0559 0.07074 0.1369 0.11719 0.2262 0.12966 1.7518 0.24616 3.4069 0.95301 4.796 2.04832 1.3769 1.078 2.417 2.52712 2.9976 4.17658 0.3233 0.90169 0.5445 1.83677 0.6595 2.78777 0.0851 0.9539 0.0851 1.9136 0 2.8676 -0.0927 0.9399 -0.3077 1.8636 -0.6395 2.7478 -0.338 0.8881 -0.7737 1.736 -1.299 2.5279 -1.1145 1.5939 -2.6855 2.8131 -4.5063 3.4971 -1.8193 0.7266 -3.7834 1.0174 -5.7353 0.8493 -1.07968 -0.0927 -2.14183 -0.3313 -3.1574 -0.7094 -1.00673 -0.3717 -1.94272 -0.9124 -2.76774 -1.5987 -2.07394 -1.8397 -3.41493 -4.3656 -3.77691 -7.1142 -0.463675 -2.753 0.17525 -5.57795 1.77854 -7.86352 0.84565 -1.17438 1.90287 -2.18077 3.11745 -2.96758 1.23109 -0.76378 2.62372 -1.22913 4.06666 -1.35888 0.7094 -0.069948 1.4189 -0.129899 2.1183 -0.129899 0.4679 -0.00491 0.9354 0.02515 1.3988 0.089927 0.0407 0.010556 0.083 0.012468 0.1244 0.005611 0.0414 -0.006856 0.0809 -0.022328 0.116 -0.045414 0.035 -0.023086 0.0648 -0.053272 0.0874 -0.088604 0.0227 -0.035332 0.0376 -0.075023 0.044 -0.116506 0.0063 -0.041482 0.0039 -0.08383 -0.0072 -0.124305 -0.0111 -0.040474 -0.0305 -0.078173 -0.0571 -0.110656s-0.0597 -0.059027 -0.0971 -0.077915c-0.0375 -0.018887 -0.0785 -0.029697 -0.1204 -0.031729 -0.4882 -0.094262 -0.9823 -0.154358 -1.4788 -0.179853 -0.7341 -0.011995 -1.4682 0.021374 -2.1982 0.099918C8.46202 0.425806 6.96408 0.914858 5.63515 1.72263c-1.32036 0.81289 -2.47893 1.86305 -3.4172 3.09746C0.425933 7.26729 -0.324827 10.3242 0.129656 13.3231c0.354706 3.0183 1.792594 5.8053 4.046694 7.8436 0.91992 0.7802 1.96786 1.3955 3.09746 1.8185 1.11527 0.415 2.28158 0.6772 3.46719 0.7794 2.1344 0.1707 4.2793 -0.1577 6.2649 -0.9592 2.0184 -0.7953 3.7446 -2.1902 4.9459 -3.9967 0.5609 -0.8671 1.0202 -1.7958 1.3689 -2.7678 0.3485 -0.9659 0.5669 -1.974 0.6495 -2.9975 0.0614 -1.0168 0.0279 -2.037 -0.1 -3.04754Z" stroke-width="1"></path>
  <path fill="#000000" d="M20.2732 9.99585c0.0894 -0.01479 0.1695 -0.06367 0.2235 -0.13635 0.0541 -0.07268 0.0778 -0.1635 0.0663 -0.25333 -0.1162 -0.78998 -0.5311 -1.50526 -1.1591 -1.99837 -0.6308 -0.48667 -1.4119 -0.73761 -2.2082 -0.70942 -0.7837 0.05384 -1.5312 0.35072 -2.1382 0.84931 -0.5676 0.50382 -0.9801 1.15884 -1.1891 1.88845 -0.0143 0.03736 -0.0209 0.07719 -0.0196 0.11716 0.0013 0.03998 0.0107 0.07928 0.0274 0.11559 0.0168 0.03632 0.0406 0.06891 0.0702 0.09586 0.0295 0.02695 0.0642 0.04775 0.1019 0.06105 0.0743 0.0268 0.1561 0.0241 0.2286 -0.0075 0.0724 -0.03159 0.13 -0.08966 0.1611 -0.16234 0.2626 -0.54967 0.6791 -1.01131 1.199 -1.32891 0.1937 -0.11929 0.4019 -0.21331 0.6195 -0.27977 0.3204 -0.1191 0.6576 -0.18656 0.9992 -0.19984 0.5538 -0.06553 1.1135 0.05769 1.5887 0.34971 0.4745 0.29401 0.8287 0.74743 0.9991 1.27896 0.003 0.05095 0.0172 0.10062 0.0414 0.14553 0.0242 0.04492 0.058 0.08398 0.099 0.11445 0.0409 0.03047 0.088 0.0516 0.138 0.06193 0.05 0.01028 0.1016 0.00958 0.1513 -0.00217Z" stroke-width="1"></path>
  <path fill="#000000" d="M4.40618 12.7636c-0.07554 0.0232 -0.13934 0.0744 -0.17835 0.1432 -0.039 0.0687 -0.05027 0.1497 -0.03148 0.2265 0.36124 1.7568 1.26256 3.3568 2.57789 4.5762 1.43882 1.1428 3.23986 1.7313 5.07586 1.6587 1.8439 0.0277 3.6407 -0.583 5.0858 -1.7286 1.339 -1.1922 2.3474 -2.71 2.9276 -4.4064 0.0178 -0.0413 0.0271 -0.0857 0.0277 -0.1307 0.0005 -0.045 -0.0078 -0.0896 -0.0245 -0.1314 -0.0167 -0.0417 -0.0414 -0.0798 -0.0728 -0.1119 -0.0314 -0.0322 -0.0689 -0.0579 -0.1102 -0.0756s-0.0858 -0.0271 -0.1307 -0.0277c-0.045 -0.0005 -0.0896 0.0078 -0.1314 0.0245 -0.0417 0.0167 -0.0798 0.0414 -0.112 0.0728 -0.0322 0.0315 -0.0578 0.0689 -0.0755 0.1102 -0.6201 1.5291 -1.6169 2.8765 -2.8977 3.9168 -1.3046 0.9412 -2.8893 1.4131 -4.4963 1.3389 -1.5834 0.123 -3.15984 -0.3118 -4.45636 -1.229 -1.26182 -1.0303 -2.17298 -2.4267 -2.60786 -3.9967 -0.00818 -0.0399 -0.0244 -0.0777 -0.04768 -0.1112 -0.02328 -0.0334 -0.05314 -0.0617 -0.08773 -0.0832 -0.0346 -0.0215 -0.07322 -0.0358 -0.1135 -0.0419 -0.04029 -0.006 -0.08139 -0.0038 -0.12079 0.0065Z" stroke-width="1"></path>
  <path fill="#000000" d="M8.95243 8.67694c0.18843 -0.40584 0.21697 -0.86779 0.07993 -1.29373 -0.13705 -0.42594 -0.4296 -0.78458 -0.81933 -1.0044 -0.26529 -0.11871 -0.55611 -0.16902 -0.84587 -0.14633 -0.28975 0.02269 -0.5692 0.11766 -0.81277 0.27623 -0.99919 0.59951 -1.60869 2.18821 -0.45963 2.99755 0.24093 0.13806 0.50719 0.2262 0.78291 0.25916 0.27572 0.03295 0.55525 0.01005 0.82193 -0.06734 0.26668 -0.07739 0.51505 -0.20769 0.73029 -0.38313s0.39295 -0.39242 0.52254 -0.63801Z" stroke-width="1"></path>
</svg>