<svg xmlns="http://www.w3.org/2000/svg" fill="none" viewBox="0 0 24 24" id="Smiley-Smile-2--Streamline-Freehand">
  <desc>
    Smiley Smile 2 Streamline Icon: https://streamlinehq.com
  </desc>
  <path fill="#000000" d="M23.8698 9.99487c-0.1117 -1.02269 -0.3431 -2.02874 -0.6894 -2.9975 -0.6721 -1.79115 -1.8442 -3.35171 -3.3772 -4.49624C18.2931 1.3695 16.5113 0.656095 14.6375 0.432854c-0.0908 -0.008813 -0.1816 0.017252 -0.254 0.072913 -0.0724 0.055661 -0.1208 0.136752 -0.1356 0.226837 -0.0086 0.089718 0.0178 0.179289 0.0736 0.25003 0.0559 0.070736 0.1369 0.117186 0.2261 0.129656 1.7518 0.24616 3.4069 0.953 4.796 2.04829 1.3769 1.07798 2.4169 2.52707 2.9975 4.17651 0.3233 0.90167 0.5445 1.83673 0.6595 2.78771 0.0852 0.9539 0.0852 1.9136 0 2.8676 -0.0914 0.941 -0.3098 1.8653 -0.6495 2.7477 -0.3305 0.8896 -0.763 1.7379 -1.2889 2.5279 -1.1146 1.5939 -2.6856 2.8131 -4.5063 3.497 -1.8193 0.7266 -3.7834 1.0174 -5.7352 0.8493 -1.07965 -0.0927 -2.14177 -0.3313 -3.15734 -0.7094 -1.0067 -0.3717 -1.94267 -0.9123 -2.76769 -1.5986 -2.07034 -1.8425 -3.41055 -4.3669 -3.77684 -7.1141 -0.459294 -2.7529 0.17925 -5.57613 1.77851 -7.86343 0.84564 -1.17436 1.90284 -2.18073 3.1174 -2.96753 1.23107 -0.76377 2.62367 -1.22911 4.06656 -1.35886 0.7095 -0.069943 1.4189 -0.129893 2.1183 -0.129893 0.4678 -0.00491 0.9354 0.025149 1.3988 0.089925 0.0406 0.010556 0.083 0.012468 0.1244 0.005611 0.0414 -0.006856 0.0809 -0.022328 0.1159 -0.045413 0.0351 -0.023086 0.0649 -0.053271 0.0875 -0.088603 0.0226 -0.035331 0.0376 -0.075022 0.0439 -0.116503 0.0064 -0.041482 0.0039 -0.08383 -0.0072 -0.124303 -0.011 -0.040474 -0.0305 -0.078172 -0.057 -0.110655 -0.0266 -0.032483 -0.0597 -0.059026 -0.0972 -0.077913 -0.0374 -0.018887 -0.0785 -0.029697 -0.1204 -0.031729 -0.4881 -0.09426 -0.9822 -0.154356 -1.4787 -0.17985 -0.7294 0 -1.4588 0 -2.1882 0.089925C8.4687 0.42182 6.96832 0.913969 5.63506 1.72178c-1.32034 0.81287 -2.47889 1.86302 -3.41715 3.09741C0.425925 7.26635 -0.324821 10.3232 0.129654 13.3221c0.3547 3.0182 1.792556 5.8052 4.046626 7.8434 0.91991 0.7802 1.96782 1.3955 3.09741 1.8185 1.11977 0.4114 2.28886 0.6735 3.47711 0.7794 2.1311 0.1698 4.2725 -0.1586 6.2548 -0.9592 2.0197 -0.7931 3.7465 -2.1884 4.9458 -3.9967 0.5627 -0.8624 1.0222 -1.788 1.3689 -2.7577 0.3485 -0.9659 0.5669 -1.9739 0.6494 -2.9975 0.0621 -1.02 0.0286 -2.0436 -0.0999 -3.05743Z" stroke-width="1"></path>
  <path fill="#000000" d="M6.15462 9.40536c0.23911 0.13921 0.50373 0.22903 0.77817 0.26414 0.27445 0.03511 0.55315 0.0148 0.81961 -0.05973 0.26645 -0.07454 0.51525 -0.20177 0.73165 -0.37418 0.2164 -0.17241 0.396 -0.38649 0.52818 -0.62956 0.18843 -0.40583 0.21697 -0.86776 0.07993 -1.2937 -0.13704 -0.42593 -0.42959 -0.78457 -0.81931 -1.00438 -0.26529 -0.11871 -0.5561 -0.16902 -0.84585 -0.14633 -0.28975 0.02269 -0.56919 0.11766 -0.81276 0.27622 -0.9592 0.55953 -1.59867 2.17818 -0.45962 2.96752Z" stroke-width="1"></path>
  <path fill="#000000" d="M15.7267 9.41537c0.2409 0.14982 0.5156 0.23653 0.7989 0.25212 0.2833 0.01559 0.5659 -0.04043 0.8218 -0.1629s0.4768 -0.30744 0.6423 -0.53783c0.1656 -0.23039 0.2704 -0.49877 0.3048 -0.78036 0.0709 -0.35294 0.0278 -0.71926 -0.1231 -1.04611 -0.1508 -0.32684 -0.4016 -0.59731 -0.7162 -0.77237 -1.7085 -0.7294 -3.3871 1.12905 -2.348 2.52788 0.1625 0.21973 0.3748 0.39779 0.6195 0.51957Z" stroke-width="1"></path>
  <path fill="#000000" d="M9.34202 18.5078c-0.6138 -0.2543 -1.18107 -0.6089 -1.6786 -1.0492 -0.63334 -0.5656 -1.12309 -1.2737 -1.42885 -2.0659 -0.30576 -0.7922 -0.41876 -1.6458 -0.32968 -2.4903 0.00849 -0.078 -0.01397 -0.1562 -0.06254 -0.2179 -0.04858 -0.0616 -0.1194 -0.1018 -0.19725 -0.1118 -0.03941 -0.0056 -0.07955 -0.0033 -0.11807 0.0068 -0.03851 0.01 -0.07464 0.0277 -0.10627 0.0519 -0.03162 0.0241 -0.05811 0.0544 -0.07792 0.0889 -0.01981 0.0346 -0.03254 0.0727 -0.03745 0.1122 -0.16016 0.9581 -0.08863 1.9406 0.20862 2.8653 0.29725 0.9248 0.81156 1.7649 1.49995 2.4503 0.54839 0.5676 1.19493 1.0313 1.90841 1.3688 1.08333 0.4874 2.27403 0.687 3.45713 0.5795 1.9169 -0.2154 3.6913 -1.1168 4.9958 -2.5378 0.6463 -0.6864 1.1481 -1.4955 1.476 -2.3794 0.3278 -0.8839 0.4748 -1.8246 0.4324 -2.7663 0.0001 -0.0451 -0.009 -0.0897 -0.0269 -0.131 -0.0178 -0.0414 -0.0438 -0.0787 -0.0766 -0.1096 -0.0328 -0.0309 -0.0715 -0.0547 -0.1139 -0.0701 -0.0423 -0.0153 -0.0873 -0.0218 -0.1323 -0.0191 -0.0446 0.0013 -0.0885 0.0114 -0.1293 0.0297 -0.0407 0.0182 -0.0774 0.0444 -0.108 0.0768 -0.0306 0.0325 -0.0546 0.0707 -0.0704 0.1124 -0.0159 0.0418 -0.0233 0.0862 -0.022 0.1308 -0.0076 0.834 -0.1822 1.6579 -0.5134 2.4233 -0.3312 0.7653 -0.8123 1.4566 -1.415 2.033 -1.1743 1.2101 -2.7462 1.9553 -4.4263 2.0983 -0.994 0.0845 -1.9934 -0.0803 -2.90758 -0.4796Z" stroke-width="1"></path>
</svg>