<svg xmlns="http://www.w3.org/2000/svg" fill="none" viewBox="0 0 24 24" id="Smiley-Zipped--Streamline-Freehand">
  <desc>
    Smiley Zipped Streamline Icon: https://streamlinehq.com
  </desc>
  <path fill="#000000" d="M23.8698 9.99587c-0.1117 -1.02269 -0.3431 -2.02874 -0.6894 -2.99749 -0.6686 -1.79308 -1.8414 -3.35455 -3.3772 -4.49625C18.2931 1.37051 16.5113 0.657099 14.6375 0.433858c-0.0908 -0.008813 -0.1816 0.017252 -0.254 0.072913 -0.0724 0.055661 -0.1208 0.136752 -0.1356 0.226837 -0.0086 0.089718 0.0178 0.17929 0.0736 0.25003 0.0559 0.070742 0.1369 0.117192 0.2261 0.129652 1.7518 0.24616 3.4069 0.953 4.796 2.04829 1.3769 1.07798 2.4169 2.52708 2.9975 4.17651 0.3233 0.90167 0.5445 1.83673 0.6595 2.78771 0.0852 0.9539 0.0852 1.9136 0 2.8676 -0.0927 0.9398 -0.3077 1.8635 -0.6395 2.7477 -0.338 0.8881 -0.7737 1.7359 -1.2989 2.5279 -1.1146 1.5939 -2.6856 2.8131 -4.5063 3.4971 -1.8193 0.7265 -3.7834 1.0173 -5.7352 0.8492 -1.07965 -0.0927 -2.14177 -0.3313 -3.15734 -0.7094 -1.0067 -0.3717 -1.94267 -0.9123 -2.76769 -1.5986 -2.0739 -1.8397 -3.41487 -4.3656 -3.77684 -7.1141 -0.463666 -2.753 0.17525 -5.5779 1.77851 -7.86343 0.84564 -1.17435 1.90284 -2.18073 3.1174 -2.96752 1.23028 -0.76547 2.62329 -1.23095 4.06656 -1.35887 0.7095 -0.069939 1.4089 -0.129889 2.1183 -0.129889 0.4678 -0.00491 0.9354 0.025149 1.3988 0.089925 0.0406 0.010556 0.083 0.012468 0.1244 0.005611 0.0414 -0.006856 0.0809 -0.022327 0.1159 -0.045413 0.0351 -0.023086 0.0649 -0.053271 0.0875 -0.088603 0.0226 -0.035331 0.0376 -0.075022 0.0439 -0.116503 0.0064 -0.041482 0.0039 -0.083829 -0.0072 -0.124303 -0.011 -0.040474 -0.0305 -0.078172 -0.057 -0.110655 -0.0266 -0.032482 -0.0597 -0.059026 -0.0972 -0.077913 -0.0374 -0.018887 -0.0785 -0.029696 -0.1204 -0.031729 -0.4881 -0.09426 -0.9822 -0.154356 -1.4787 -0.17985 -0.7338 -0.010411 -1.4677 0.019609 -2.1982 0.089925 -1.54926 0.140333 -3.04605 0.63243 -4.37634 1.438797 -1.32231 0.81026 -2.4813 1.86081 -3.41715 3.09742C0.425925 7.26735 -0.324821 10.3242 0.129654 13.3231c0.3547 3.0182 1.792556 5.8052 4.046626 7.8435 0.91991 0.7801 1.96782 1.3954 3.09741 1.8184 1.11977 0.4114 2.28886 0.6735 3.47711 0.7794 2.1311 0.1698 4.2725 -0.1586 6.2548 -0.9592 2.0197 -0.7931 3.7465 -2.1884 4.9458 -3.9967 0.5627 -0.8624 1.0222 -1.788 1.3689 -2.7577 0.3485 -0.9659 0.5669 -1.9739 0.6494 -2.9975 0.0621 -1.02 0.0286 -2.0436 -0.0999 -3.05743Z" stroke-width="1"></path>
  <path fill="#000000" d="M9.01224 8.60704c0.18843 -0.40583 0.21697 -0.86777 0.07993 -1.2937 -0.13704 -0.42594 -0.42959 -0.78457 -0.81931 -1.00438 -0.26529 -0.11872 -0.5561 -0.16903 -0.84585 -0.14633 -0.28975 0.02269 -0.56919 0.11766 -0.81277 0.27622 -0.99916 0.5995 -1.60865 2.17818 -0.45961 2.9975 0.24092 0.13806 0.50718 0.2262 0.78289 0.25915 0.27572 0.03296 0.55524 0.01006 0.82192 -0.06733 0.26667 -0.0774 0.51503 -0.20769 0.73027 -0.38313 0.21524 -0.17543 0.39295 -0.39241 0.52253 -0.638Z" stroke-width="1"></path>
  <path fill="#000000" d="M15.7266 9.41635c0.2409 0.14982 0.5157 0.23652 0.7989 0.25212 0.2833 0.01559 0.5659 -0.04044 0.8218 -0.16291s0.4768 -0.30744 0.6424 -0.53782c0.1655 -0.23039 0.2703 -0.49877 0.3048 -0.78037 0.0708 -0.35293 0.0277 -0.71925 -0.1231 -1.0461 -0.1509 -0.32684 -0.4017 -0.59731 -0.7162 -0.77238 -1.7086 -0.72939 -3.3872 1.12906 -2.3481 2.52789 0.1625 0.21973 0.3748 0.39779 0.6195 0.51957Z" stroke-width="1"></path>
  <path fill="#000000" d="M12.7691 14.4422c0 -0.3897 -0.06 -0.7794 -0.0999 -1.1691 0.0041 -0.0396 0 -0.0797 -0.012 -0.1177 -0.0121 -0.038 -0.0319 -0.0731 -0.0582 -0.1032 -0.0262 -0.03 -0.0584 -0.0542 -0.0945 -0.0712 -0.036 -0.0171 -0.0752 -0.0264 -0.1151 -0.0276 -0.0394 -0.0027 -0.0789 0.0024 -0.1163 0.015s-0.072 0.0325 -0.1017 0.0585c-0.0297 0.026 -0.054 0.0576 -0.0714 0.093 -0.0175 0.0354 -0.0278 0.0739 -0.0303 0.1133 -0.09 0.4096 -0.1999 0.8093 -0.2898 1.219h-0.9992c-1.23892 0 -2.4679 0.1398 -3.68688 0.2897 -0.17975 -0.4985 -0.39686 -0.9829 -0.64946 -1.4488 -0.00621 -0.0472 -0.02358 -0.0922 -0.05068 -0.1314 -0.02709 -0.0392 -0.06313 -0.0713 -0.10513 -0.0938 -0.04199 -0.0225 -0.08874 -0.0346 -0.13636 -0.0354 -0.04762 -0.0008 -0.09474 0.0098 -0.13747 0.0308 -0.03822 0.0112 -0.07373 0.0302 -0.1043 0.0557 -0.03057 0.0256 -0.05554 0.0572 -0.07335 0.0928 -0.01782 0.0356 -0.0281 0.0745 -0.03019 0.1143 -0.0021 0.0398 0.00403 0.0796 0.018 0.1169 0.05995 0.4197 0.07994 0.9192 0.14988 1.4688l-1.15904 0.1898c-0.0395 0.0049 -0.07764 0.0177 -0.11217 0.0375 -0.03454 0.0198 -0.06478 0.0463 -0.08896 0.0779 -0.02418 0.0316 -0.04183 0.0677 -0.0519 0.1063 -0.01007 0.0385 -0.01236 0.0786 -0.00675 0.118 0.01237 0.0787 0.05457 0.1496 0.11783 0.198 0.06326 0.0483 0.14272 0.0705 0.22189 0.0618 0.39966 0 0.80932 -0.0699 1.20899 -0.0799 0 0.1998 0.09991 0.3997 0.15986 0.5995 0.15987 0.5096 0.33972 0.9992 0.49959 1.4588 0.01722 0.0887 0.06901 0.167 0.14396 0.2176 0.07495 0.0506 0.16693 0.0694 0.2557 0.0521 0.08878 -0.0172 0.16707 -0.069 0.21767 -0.1439 0.05059 -0.075 0.06933 -0.167 0.05211 -0.2557 0 -0.4896 -0.04996 -0.9992 -0.10991 -1.5487 0 -0.1399 0 -0.2798 -0.06994 -0.4197h4.35641v2.1682c-0.0094 0.0864 0.0147 0.173 0.0673 0.2422 0.0526 0.0691 0.1296 0.1155 0.2154 0.1295 0.0857 0.0141 0.1735 -0.0052 0.2455 -0.0539 0.0719 -0.0487 0.1224 -0.1231 0.1412 -0.2079 0.1499 -0.5295 0.2997 -0.9991 0.4097 -1.5887 0 -0.2198 0.0799 -0.4496 0.1099 -0.6794h0.9991c0.9992 0 1.9984 -0.0599 2.9975 -0.1299v2.2382c-0.0057 0.0896 0.0233 0.1779 0.081 0.2467 0.0576 0.0689 0.1395 0.1129 0.2288 0.1229 0.0449 0.0056 0.0904 0.0018 0.1338 -0.011 0.0434 -0.0128 0.0837 -0.0344 0.1184 -0.0635 0.0346 -0.029 0.063 -0.0649 0.0832 -0.1054 0.0202 -0.0404 0.0319 -0.0846 0.0343 -0.1298 0.1099 -0.5495 0.2697 -1.0691 0.3796 -1.6087 0 -0.2697 0.1 -0.5295 0.1299 -0.7993 0.5895 -0.0599 1.179 -0.0999 1.7686 -0.1698 0.0892 -0.0101 0.1711 -0.0541 0.2288 -0.123 0.0576 -0.0688 0.0866 -0.1571 0.0809 -0.2467 -0.0038 -0.0447 -0.0163 -0.0882 -0.037 -0.128s-0.049 -0.0751 -0.0833 -0.1039c-0.0344 -0.0288 -0.0741 -0.0505 -0.1169 -0.0639 -0.0428 -0.0133 -0.0879 -0.0181 -0.1325 -0.014h-1.6786c0 -0.4496 0 -0.8992 -0.0699 -1.3588 0 -0.0795 -0.0316 -0.1558 -0.0878 -0.212s-0.1325 -0.0878 -0.212 -0.0878c-0.0795 0 -0.1557 0.0316 -0.2119 0.0878 -0.0563 0.0562 -0.0878 0.1325 -0.0878 0.212 -0.1099 0.4796 -0.2498 0.9292 -0.3697 1.3988h-2.5779l-1.6286 -0.0999Z" stroke-width="1"></path>
</svg>