<svg xmlns="http://www.w3.org/2000/svg" fill="none" viewBox="0 0 24 24" id="Smiley-Cheeky--Streamline-Freehand">
  <desc>
    Smiley Cheeky Streamline Icon: https://streamlinehq.com
  </desc>
  <path fill="#000000" d="M23.8702 9.99604c-0.1117 -1.02271 -0.3431 -2.02877 -0.6894 -2.99754 -0.6686 -1.79311 -1.8414 -3.35461 -3.3772 -4.49633C18.2958 1.36634 16.5128 0.652452 14.6378 0.433864c-0.0909 -0.008813 -0.1817 0.017253 -0.2541 0.072914 -0.0723 0.055662 -0.1208 0.136755 -0.1356 0.226841 -0.0086 0.08972 0.0178 0.179293 0.0736 0.250034 0.0559 0.070747 0.1369 0.117187 0.2262 0.129657 1.7493 0.24413 3.4017 0.9513 4.7861 2.04832 1.3789 1.07605 2.4194 2.52582 2.9975 4.17659 0.3267 0.90128 0.5512 1.83637 0.6695 2.78768 0.0851 0.954 0.0851 1.9137 0 2.8677 -0.0914 0.9411 -0.3099 1.8654 -0.6495 2.7477 -0.3305 0.8897 -0.7631 1.738 -1.289 2.528 -1.1171 1.5937 -2.687 2.8155 -4.5063 3.5071 -1.8214 0.7185 -3.7844 1.0058 -5.7353 0.8393 -1.07968 -0.0927 -2.14183 -0.3313 -3.1574 -0.7094 -1.00673 -0.3717 -1.94272 -0.9124 -2.76774 -1.5987 -2.07394 -1.8397 -3.41493 -4.3656 -3.77691 -7.1142 -0.459303 -2.7529 0.17925 -5.5762 1.77854 -7.86354 0.84565 -1.17437 1.90287 -2.18076 3.11745 -2.96757C7.24593 1.5985 8.63856 1.13315 10.0815 1.0034c0.7094 -0.069944 1.4089 -0.129895 2.1183 -0.129895 0.4677 0.00018 0.9349 0.030217 1.3988 0.089926 0.0407 0.010556 0.083 0.012468 0.1244 0.005611 0.0414 -0.006856 0.0809 -0.022328 0.116 -0.045414 0.035 -0.023086 0.0648 -0.053272 0.0874 -0.088604 0.0227 -0.035332 0.0376 -0.075023 0.044 -0.116505 0.0063 -0.041482 0.0039 -0.083831 -0.0072 -0.124306 -0.0111 -0.040474 -0.0305 -0.078173 -0.0571 -0.110656S13.8464 0.42453 13.809 0.405642c-0.0375 -0.018887 -0.0785 -0.029696 -0.1204 -0.031729 -0.4882 -0.094261 -0.9823 -0.154358 -1.4788 -0.179853 -0.7341 -0.011995 -1.4682 0.021375 -2.1982 0.099918C8.46202 0.42599 6.96408 0.915042 5.63515 1.72281c-1.32232 0.81027 -2.48134 1.86084 -3.4172 3.09747C0.425933 7.26748 -0.324827 10.3244 0.129656 13.3233c0.354706 3.0183 1.792594 5.8053 4.046694 7.8436 0.91992 0.7802 1.96786 1.3955 3.09746 1.8185 1.11979 0.4114 2.2889 0.6735 3.47719 0.7794 2.1311 0.1698 4.2725 -0.1586 6.2549 -0.9592 2.0184 -0.7953 3.7446 -2.1902 4.9459 -3.9968 0.5609 -0.867 1.0202 -1.7957 1.3689 -2.7677 0.3485 -0.9659 0.5669 -1.974 0.6495 -2.9975 0.0614 -1.0168 0.0279 -2.037 -0.1 -3.04756Z" stroke-width="1"></path>
  <path fill="#000000" d="M18.7444 12.3142c-0.1163 1.2466 -0.5763 2.4365 -1.3289 3.4371 -0.3134 0.4208 -0.6682 0.8091 -1.0591 1.1591 -0.3917 0.3417 -0.8168 0.643 -1.269 0.8993 -0.5094 0.3285 -1.0826 0.5456 -1.6819 0.6369 -0.5993 0.0912 -1.2111 0.0546 -1.7952 -0.1074 -0.0744 -0.0303 -0.1576 -0.0306 -0.2322 -0.0008 -0.0745 0.0298 -0.1346 0.0874 -0.1675 0.1607 -0.0297 0.0756 -0.0286 0.1598 0.0032 0.2346 0.0317 0.0747 0.0916 0.134 0.1667 0.1651 0.6654 0.2948 1.3881 0.4379 2.1156 0.4189 0.7276 -0.019 1.4418 -0.1996 2.0909 -0.5288 0.5601 -0.2542 1.0787 -0.591 1.5388 -0.9992 0.4582 -0.4109 0.8553 -0.8854 1.179 -1.4089 0.7559 -1.1941 1.145 -2.5837 1.1191 -3.9967 0.0087 -0.0472 0.007 -0.0957 -0.0049 -0.1422 -0.012 -0.0465 -0.034 -0.0898 -0.0644 -0.1269 -0.0305 -0.0372 -0.0687 -0.0672 -0.1119 -0.088 -0.0433 -0.0208 -0.0906 -0.0319 -0.1385 -0.0326 -0.0895 -0.0029 -0.1767 0.0287 -0.2437 0.0882 -0.0669 0.0595 -0.1084 0.1423 -0.1161 0.2316Z" stroke-width="1"></path>
  <path fill="#000000" d="M9.80177 7.588c-0.75938 0 -1.44882 -0.05995 -2.11827 -0.06994 -0.4758 -0.03006 -0.95303 -0.03006 -1.42883 0 -0.80392 0.09801 -1.599 0.25836 -2.37806 0.47961 -0.03951 0.00491 -0.07764 0.01764 -0.11218 0.03745 -0.03453 0.01981 -0.06477 0.0463 -0.08896 0.07793 -0.02418 0.03162 -0.04182 0.06775 -0.05189 0.10627 -0.01007 0.03851 -0.01237 0.07865 -0.00676 0.11807 0.01001 0.07785 0.05015 0.14867 0.1118 0.19724 0.06166 0.04858 0.1399 0.07104 0.21793 0.06255 0.7394 0 1.39886 0.05995 2.05832 0.07993h0.88927l0.88928 -0.06994c0.66945 -0.06995 1.3389 -0.18985 2.08829 -0.32973 0.09108 -0.01009 0.17459 -0.05552 0.23249 -0.12653 0.0579 -0.071 0.0857 -0.16191 0.0773 -0.25316 -0.0037 -0.04562 -0.0166 -0.09001 -0.0379 -0.13052 -0.0213 -0.04052 -0.0505 -0.07631 -0.086 -0.10524 -0.0355 -0.02893 -0.07641 -0.05039 -0.12037 -0.06311 -0.04396 -0.01271 -0.09004 -0.01641 -0.13546 -0.01088Z" stroke-width="1"></path>
  <path fill="#000000" d="M19.6237 8.29744c0.0056 -0.04489 0.0018 -0.09045 -0.011 -0.13384 -0.0128 -0.04339 -0.0344 -0.08367 -0.0634 -0.11835 -0.0291 -0.03467 -0.065 -0.063 -0.1055 -0.08322 -0.0404 -0.02021 -0.0846 -0.03188 -0.1298 -0.03428 -0.6994 -0.13989 -1.4088 -0.27977 -2.1383 -0.37969 -0.3097 0 -0.6095 -0.06995 -0.9192 -0.08993 -0.3097 -0.01998 -0.6195 0 -0.9292 0 -0.7594 0 -1.4788 0.10991 -2.1683 0.17985 -0.0393 -0.00133 -0.0786 0.00511 -0.1155 0.01895 -0.0368 0.01385 -0.0706 0.03482 -0.0994 0.06173 -0.0288 0.02692 -0.0519 0.05923 -0.0682 0.09511 -0.0163 0.03587 -0.0253 0.07461 -0.0266 0.11398 -0.0014 0.04019 0.0054 0.08025 0.0199 0.11778 0.0144 0.03753 0.0363 0.07176 0.0643 0.10066 0.0279 0.02891 0.0614 0.05188 0.0985 0.06757 0.037 0.01568 0.0768 0.02376 0.117 0.02373 0.6795 0.08993 1.3889 0.22982 2.1283 0.31974l0.9093 0.06994h3.0674c0.046 0.00271 0.092 -0.00369 0.1355 -0.01881 0.0434 -0.01512 0.0835 -0.03867 0.1178 -0.06931 0.0344 -0.03063 0.0624 -0.06774 0.0823 -0.1092 0.02 -0.04146 0.0316 -0.08645 0.0341 -0.13241Z" stroke-width="1"></path>
</svg>