<svg xmlns="http://www.w3.org/2000/svg" fill="none" viewBox="0 0 24 24" id="Browser-Page-Media--Streamline-Ultimate">
  <desc>
    Browser Page Media Streamline Icon: https://streamlinehq.com
  </desc>
  <path fill="#66e1ff" d="M23 7.21738V19.6522c0 0.5073 -0.2016 0.9939 -0.5603 1.3527 -0.3588 0.3588 -0.8454 0.5603 -1.3527 0.5603H2.91304c-0.25122 0 -0.49999 -0.0495 -0.73209 -0.1456 -0.2321 -0.0962 -0.44299 -0.2371 -0.62063 -0.4147C1.20155 20.6461 1 20.1595 1 19.6522V7.21738h22Z" stroke-width="1"></path>
  <path fill="#c2f3ff" d="M5.30435 21.5652 19.6522 7.21738H1V19.6522c0 0.5073 0.20155 0.9939 0.56032 1.3527 0.35876 0.3588 0.84535 0.5603 1.35272 0.5603h2.39131Z" stroke-width="1"></path>
  <path fill="#ffffff" d="M23 7.21739H1V4.34783c0 -0.50737 0.20155 -0.99396 0.56032 -1.35273 0.35876 -0.35876 0.84535 -0.56032 1.35272 -0.56032H21.087c0.5073 0 0.9939 0.20156 1.3527 0.56032 0.3587 0.35877 0.5603 0.84536 0.5603 1.35273v2.86956Z" stroke-width="1"></path>
  <path stroke="#191919" stroke-linecap="round" stroke-linejoin="round" d="M21.087 2.43478H2.91304c-0.25122 0 -0.49999 0.04949 -0.73209 0.14563 -0.2321 0.09614 -0.44299 0.23705 -0.62063 0.41469C1.20155 3.35387 1 3.84046 1 4.34783V19.6522c0 0.5073 0.20155 0.9939 0.56032 1.3527 0.17764 0.1776 0.38853 0.3186 0.62063 0.4147 0.2321 0.0961 0.48087 0.1456 0.73209 0.1456H21.087c0.5073 0 0.9939 -0.2015 1.3527 -0.5603 0.3587 -0.3588 0.5603 -0.8454 0.5603 -1.3527V4.34783c0 -0.50737 -0.2016 -0.99396 -0.5603 -1.35273 -0.3588 -0.35876 -0.8454 -0.56032 -1.3527 -0.56032Z" stroke-width="1"></path>
  <path stroke="#191919" stroke-linecap="round" stroke-linejoin="round" d="M1 7.21738h22" stroke-width="1"></path>
  <path stroke="#191919" d="M4.34753 5.06521c-0.06342 0 -0.12425 -0.0252 -0.16909 -0.07004 -0.04485 -0.04485 -0.07004 -0.10567 -0.07004 -0.16909 0 -0.06343 0.02519 -0.12425 0.07004 -0.1691 0.04484 -0.04484 0.10567 -0.07004 0.16909 -0.07004" stroke-width="1"></path>
  <path stroke="#191919" d="M4.34766 5.06521c0.06342 0 0.12424 -0.0252 0.16909 -0.07004 0.04484 -0.04485 0.07004 -0.10567 0.07004 -0.16909 0 -0.06343 -0.0252 -0.12425 -0.07004 -0.1691 -0.04485 -0.04484 -0.10567 -0.07004 -0.16909 -0.07004" stroke-width="1"></path>
  <path fill="#fff9bf" d="M10.087 11.0435H4.34789c-0.12684 0 -0.24849 0.0504 -0.33818 0.1401 -0.08969 0.0897 -0.14008 0.2113 -0.14008 0.3381v5.7392c0 0.1268 0.05039 0.2485 0.14008 0.3382 0.08969 0.0897 0.21134 0.14 0.33818 0.14H10.087c0.1269 0 0.2485 -0.0503 0.3382 -0.14 0.0897 -0.0897 0.1401 -0.2114 0.1401 -0.3382v-5.7392c0 -0.1268 -0.0504 -0.2484 -0.1401 -0.3381s-0.2113 -0.1401 -0.3382 -0.1401Z" stroke-width="1"></path>
  <path fill="#ffbfc5" d="m3.99512 17.5842 3.3 -4.0662c0.04845 -0.0597 0.11057 -0.1068 0.1811 -0.1374 0.07053 -0.0306 0.14739 -0.0437 0.22407 -0.0382 0.07668 0.0054 0.15092 0.0292 0.21643 0.0695 0.0655 0.0402 0.12034 0.0956 0.15988 0.1616l2.3827 3.9877" stroke-width="1"></path>
  <path stroke="#191919" stroke-linecap="round" stroke-linejoin="round" d="m3.99512 17.5842 3.3 -4.0662c0.04845 -0.0597 0.11057 -0.1068 0.1811 -0.1374 0.07053 -0.0306 0.14739 -0.0437 0.22407 -0.0382 0.07668 0.0054 0.15092 0.0292 0.21643 0.0695 0.0655 0.0402 0.12034 0.0956 0.15988 0.1616l2.3827 3.9877" stroke-width="1"></path>
  <path fill="#ffef5e" d="M19.652 11.0435h-5.7392c-0.1268 0 -0.2485 0.0504 -0.3382 0.1401 -0.0896 0.0897 -0.14 0.2113 -0.14 0.3381v5.7392c0 0.1268 0.0504 0.2485 0.14 0.3382 0.0897 0.0897 0.2114 0.14 0.3382 0.14h5.7392c0.1268 0 0.2485 -0.0503 0.3381 -0.14 0.0897 -0.0897 0.1401 -0.2114 0.1401 -0.3382v-5.7392c0 -0.1268 -0.0504 -0.2484 -0.1401 -0.3381 -0.0896 -0.0897 -0.2113 -0.1401 -0.3381 -0.1401Z" stroke-width="1"></path>
  <path fill="#ff808c" d="m13.5601 17.5842 3.3 -4.0662c0.0484 -0.0597 0.1105 -0.1068 0.1811 -0.1374 0.0705 -0.0306 0.1474 -0.0437 0.224 -0.0382 0.0767 0.0054 0.151 0.0292 0.2165 0.0695 0.0655 0.0402 0.1203 0.0956 0.1598 0.1616l2.3827 3.9877" stroke-width="1"></path>
  <path stroke="#191919" stroke-linecap="round" stroke-linejoin="round" d="m13.5601 17.5842 3.3 -4.0662c0.0484 -0.0597 0.1105 -0.1068 0.1811 -0.1374 0.0705 -0.0306 0.1474 -0.0437 0.224 -0.0382 0.0767 0.0054 0.151 0.0292 0.2165 0.0695 0.0655 0.0402 0.1203 0.0956 0.1598 0.1616l2.3827 3.9877" stroke-width="1"></path>
  <path stroke="#191919" stroke-linecap="round" stroke-linejoin="round" d="M19.652 11.0435h-5.7392c-0.1268 0 -0.2485 0.0504 -0.3382 0.1401 -0.0896 0.0897 -0.14 0.2113 -0.14 0.3381v5.7392c0 0.1268 0.0504 0.2485 0.14 0.3382 0.0897 0.0897 0.2114 0.14 0.3382 0.14h5.7392c0.1268 0 0.2485 -0.0503 0.3381 -0.14 0.0897 -0.0897 0.1401 -0.2114 0.1401 -0.3382v-5.7392c0 -0.1268 -0.0504 -0.2484 -0.1401 -0.3381 -0.0896 -0.0897 -0.2113 -0.1401 -0.3381 -0.1401Z" stroke-width="1"></path>
  <path stroke="#191919" stroke-linecap="round" stroke-linejoin="round" d="M10.087 11.0435H4.34789c-0.12684 0 -0.24849 0.0504 -0.33818 0.1401 -0.08969 0.0897 -0.14008 0.2113 -0.14008 0.3381v5.7392c0 0.1268 0.05039 0.2485 0.14008 0.3382 0.08969 0.0897 0.21134 0.14 0.33818 0.14H10.087c0.1269 0 0.2485 -0.0503 0.3382 -0.14 0.0897 -0.0897 0.1401 -0.2114 0.1401 -0.3382v-5.7392c0 -0.1268 -0.0504 -0.2484 -0.1401 -0.3381s-0.2113 -0.1401 -0.3382 -0.1401Z" stroke-width="1"></path>
  <path stroke="#191919" d="M7.21716 5.06521c-0.06342 0 -0.12425 -0.0252 -0.16909 -0.07004 -0.04485 -0.04485 -0.07004 -0.10567 -0.07004 -0.16909 0 -0.06343 0.02519 -0.12425 0.07004 -0.1691 0.04484 -0.04484 0.10567 -0.07004 0.16909 -0.07004" stroke-width="1"></path>
  <path stroke="#191919" d="M7.21729 5.06521c0.06342 0 0.12424 -0.0252 0.16909 -0.07004 0.04484 -0.04485 0.07004 -0.10567 0.07004 -0.16909 0 -0.06343 -0.0252 -0.12425 -0.07004 -0.1691 -0.04485 -0.04484 -0.10567 -0.07004 -0.16909 -0.07004" stroke-width="1"></path>
  <path stroke="#191919" d="M10.0868 5.06521c-0.0634 0 -0.12426 -0.0252 -0.1691 -0.07004 -0.04485 -0.04485 -0.07004 -0.10567 -0.07004 -0.16909 0 -0.06343 0.02519 -0.12425 0.07004 -0.1691 0.04484 -0.04484 0.1057 -0.07004 0.1691 -0.07004" stroke-width="1"></path>
  <path stroke="#191919" d="M10.0864 5.06521c0.0634 0 0.1243 -0.0252 0.1691 -0.07004 0.0449 -0.04485 0.0701 -0.10567 0.0701 -0.16909 0 -0.06343 -0.0252 -0.12425 -0.0701 -0.1691 -0.0448 -0.04484 -0.1057 -0.07004 -0.1691 -0.07004" stroke-width="1"></path>
</svg>