<svg xmlns="http://www.w3.org/2000/svg" fill="none" viewBox="0 0 24 24" id="Database-Hierarchy--Streamline-Ultimate">
  <desc>
    Database Hierarchy Streamline Icon: https://streamlinehq.com
  </desc>
  <path fill="#e3e3e3" d="M22.9999 2.43433v2.86956c0 0.792 -1.0704 1.43478 -2.3913 1.43478 -1.321 0 -2.3913 -0.64182 -2.3913 -1.43478V2.43433" stroke-width="1"></path>
  <path stroke="#191919" stroke-linecap="round" stroke-linejoin="round" d="M22.9999 2.43433v2.86956c0 0.792 -1.0704 1.43478 -2.3913 1.43478 -1.321 0 -2.3913 -0.64182 -2.3913 -1.43478V2.43433" stroke-width="1"></path>
  <path fill="#e3e3e3" d="M5.78261 2.43433v2.86956c0 0.792 -1.07035 1.43478 -2.39131 1.43478C2.07035 6.73867 1 6.09685 1 5.30389V2.43433" stroke-width="1"></path>
  <path stroke="#191919" stroke-linecap="round" stroke-linejoin="round" d="M5.78261 2.43433v2.86956c0 0.792 -1.07035 1.43478 -2.39131 1.43478C2.07035 6.73867 1 6.09685 1 5.30389V2.43433" stroke-width="1"></path>
  <path fill="#e3e3e3" d="M22.9999 18.6952v2.8695c0 0.792 -1.0704 1.4348 -2.3913 1.4348 -1.321 0 -2.3913 -0.6428 -2.3913 -1.4348v-2.8695" stroke-width="1"></path>
  <path stroke="#191919" stroke-linecap="round" stroke-linejoin="round" d="M22.9999 18.6952v2.8695c0 0.792 -1.0704 1.4348 -2.3913 1.4348 -1.321 0 -2.3913 -0.6428 -2.3913 -1.4348v-2.8695" stroke-width="1"></path>
  <path fill="#e3e3e3" d="M5.78261 18.6952v2.8695c0 0.792 -1.07035 1.4348 -2.39131 1.4348C2.07035 22.9995 1 22.3577 1 21.5647v-2.8695" stroke-width="1"></path>
  <path stroke="#191919" stroke-linecap="round" stroke-linejoin="round" d="M5.78261 18.6952v2.8695c0 0.792 -1.07035 1.4348 -2.39131 1.4348C2.07035 22.9995 1 22.3577 1 21.5647v-2.8695" stroke-width="1"></path>
  <path fill="#b2b2b2" d="M6.73926 8.17346v7.65214c0 1.321 2.35591 2.3913 5.26084 2.3913 2.905 0 5.2609 -1.0703 5.2609 -2.3913V8.17346H6.73926Z" stroke-width="1"></path>
  <path fill="#e3e3e3" d="M12.0001 8.17346H6.73926v7.65214c0 1.321 2.35591 2.3913 5.26084 2.3913V8.17346Z" stroke-width="1"></path>
  <path stroke="#191919" stroke-linecap="round" stroke-linejoin="round" d="M6.73926 8.17346v7.65214c0 1.321 2.35591 2.3913 5.26084 2.3913 2.905 0 5.2609 -1.0703 5.2609 -2.3913V8.17346" stroke-width="1"></path>
  <path fill="#808080" stroke="#191919" stroke-linecap="round" stroke-linejoin="round" d="M12.0001 10.5657c2.9056 0 5.2609 -1.07063 5.2609 -2.39131 0 -1.32068 -2.3553 -2.39131 -5.2609 -2.39131 -2.90547 0 -5.26084 1.07063 -5.26084 2.39131 0 1.32068 2.35537 2.39131 5.26084 2.39131Z" stroke-width="1"></path>
  <path fill="#808080" stroke="#191919" stroke-linecap="round" stroke-linejoin="round" d="M20.6086 3.87003c1.3207 0 2.3913 -0.64238 2.3913 -1.43479 0 -0.79241 -1.0706 -1.43478 -2.3913 -1.43478 -1.3207 0 -2.3913 0.64237 -2.3913 1.43478s1.0706 1.43479 2.3913 1.43479Z" stroke-width="1"></path>
  <path fill="#808080" stroke="#191919" stroke-linecap="round" stroke-linejoin="round" d="M3.3913 3.87003c1.32068 0 2.39131 -0.64238 2.39131 -1.43479 0 -0.79241 -1.07063 -1.43478 -2.39131 -1.43478C2.07063 1.00046 1 1.64283 1 2.43524s1.07063 1.43479 2.3913 1.43479Z" stroke-width="1"></path>
  <path fill="#808080" stroke="#191919" stroke-linecap="round" stroke-linejoin="round" d="M20.6086 20.1309c1.3207 0 2.3913 -0.6424 2.3913 -1.4348 0 -0.7924 -1.0706 -1.4347 -2.3913 -1.4347 -1.3207 0 -2.3913 0.6423 -2.3913 1.4347 0 0.7924 1.0706 1.4348 2.3913 1.4348Z" stroke-width="1"></path>
  <path fill="#808080" stroke="#191919" stroke-linecap="round" stroke-linejoin="round" d="M3.3913 20.1309c1.32068 0 2.39131 -0.6424 2.39131 -1.4348 0 -0.7924 -1.07063 -1.4347 -2.39131 -1.4347 -1.32067 0 -2.3913 0.6423 -2.3913 1.4347 0 0.7924 1.07063 1.4348 2.3913 1.4348Z" stroke-width="1"></path>
  <path stroke="#191919" stroke-linecap="round" stroke-linejoin="round" d="M17.261 11.9995c0 1.321 -2.3559 2.3913 -5.2609 2.3913 -2.90493 0 -5.26084 -1.0694 -5.26084 -2.3913" stroke-width="1"></path>
  <path stroke="#191919" stroke-linecap="round" stroke-linejoin="round" d="m5.6001 5.85672 1.47495 1.47496" stroke-width="1"></path>
  <path stroke="#191919" stroke-linecap="round" stroke-linejoin="round" d="m18.3998 5.85672 -1.475 1.47496" stroke-width="1"></path>
  <path stroke="#191919" stroke-linecap="round" stroke-linejoin="round" d="m5.64355 18.214 1.48357 -1.4845" stroke-width="1"></path>
  <path stroke="#191919" stroke-linecap="round" stroke-linejoin="round" d="m18.3556 18.214 -1.4835 -1.4845" stroke-width="1"></path>
</svg>