<svg xmlns="http://www.w3.org/2000/svg" fill="none" viewBox="0 0 24 24" id="File-Apk--Streamline-Ultimate">
  <desc>
    File Apk Streamline Icon: https://streamlinehq.com
  </desc>
  <path fill="#78eb7b" d="M21.087 6.71044V22.0435c0 0.2537 -0.1008 0.497 -0.2802 0.6763 -0.1793 0.1794 -0.4226 0.2802 -0.6763 0.2802H3.86961c-0.25369 0 -0.49698 -0.1008 -0.67637 -0.2802 -0.17938 -0.1793 -0.28015 -0.4226 -0.28015 -0.6763V1.95652c0 -0.25368 0.10077 -0.49698 0.28015 -0.67636C3.37263 1.10078 3.61592 1 3.86961 1H15.3766c0.3108 0 0.6217 0.0287 0.9278 0.08609v3.74c0 0.25368 0.1008 0.49698 0.2801 0.67636 0.1794 0.17938 0.4227 0.28016 0.6764 0.28016h3.74c0.0574 0.30609 0.0861 0.61696 0.0861 0.92783Z" stroke-width="1"></path>
  <path fill="#c9f7ca" d="M16.6392 5.55304 2.91309 19.2887V1.95652c0 -0.25368 0.10077 -0.49698 0.28015 -0.67636C3.37263 1.10078 3.61592 1 3.86961 1H15.3766c0.3108 0 0.6217 0.0287 0.9278 0.08609v3.74c0.0018 0.13785 0.0326 0.27378 0.0902 0.399 0.0577 0.12522 0.141 0.23695 0.2446 0.32795Z" stroke-width="1"></path>
  <path fill="#e3e3e3" d="M21.0012 5.78261h-3.74c-0.2537 0 -0.497 -0.10077 -0.6764 -0.28016 -0.1793 -0.17938 -0.2801 -0.42267 -0.2801 -0.67636v-3.74c1.1775 0.18891 2.2654 0.74457 3.1087 1.58785 0.8432 0.84328 1.3989 1.93116 1.5878 3.10867Z" stroke-width="1"></path>
  <path stroke="#191919" stroke-linecap="round" stroke-linejoin="round" d="M20.1305 23c0.2537 0 0.497 -0.1008 0.6763 -0.2802 0.1794 -0.1793 0.2802 -0.4226 0.2802 -0.6763V6.71809c0.0004 -0.75078 -0.1472 -1.49427 -0.4342 -2.188 -0.2871 -0.69374 -0.708 -1.32412 -1.2387 -1.85513 -0.5308 -0.53101 -1.1609 -0.95224 -1.8545 -1.23964C16.866 1.14792 16.1226 1 15.3718 1H3.86961c-0.25369 0 -0.49698 0.10078 -0.67637 0.28016 -0.17938 0.17938 -0.28015 0.42268 -0.28015 0.67636V22.0435c0 0.2537 0.10077 0.497 0.28015 0.6763 0.17939 0.1794 0.42268 0.2802 0.67637 0.2802H20.1305Z" stroke-width="1"></path>
  <path stroke="#191919" stroke-linecap="round" stroke-linejoin="round" d="M5.78271 18.2174V13.913c0 -0.3805 0.15117 -0.7454 0.42024 -1.0145 0.26908 -0.2691 0.63402 -0.4202 1.01455 -0.4202 0.38053 0 0.74547 0.1511 1.01454 0.4202 0.26908 0.2691 0.42024 0.634 0.42024 1.0145v4.3044" stroke-width="1"></path>
  <path stroke="#191919" stroke-linecap="round" stroke-linejoin="round" d="M5.78271 15.3517h2.86957" stroke-width="1"></path>
  <path stroke="#191919" stroke-linecap="round" stroke-linejoin="round" d="M13.435 13.913c0 0.3806 -0.1512 0.7455 -0.4202 1.0146 -0.2691 0.2691 -0.6341 0.4202 -1.0146 0.4202h-1.4348v-2.8695h1.4348c0.3805 0 0.7455 0.1511 1.0146 0.4202 0.269 0.2691 0.4202 0.634 0.4202 1.0145Z" stroke-width="1"></path>
  <path stroke="#191919" stroke-linecap="round" stroke-linejoin="round" d="M10.5654 18.2212v-2.8695" stroke-width="1"></path>
  <path stroke="#191919" stroke-linecap="round" stroke-linejoin="round" d="m18.2177 12.4821 -2.8696 2.8696 2.8696 2.8695" stroke-width="1"></path>
  <path stroke="#191919" stroke-linecap="round" stroke-linejoin="round" d="M15.3481 18.2212v-5.7391" stroke-width="1"></path>
  <path stroke="#191919" stroke-linecap="round" stroke-linejoin="round" d="M19.4134 2.67774c-0.844 -0.84407 -1.9311 -1.40267 -3.1087 -1.59739v3.74574c0 0.25369 0.1008 0.49698 0.2801 0.67637 0.1794 0.17938 0.4227 0.28015 0.6764 0.28015h3.7496c-0.1959 -1.17615 -0.7544 -2.2617 -1.5974 -3.10487Z" stroke-width="1"></path>
</svg>