<svg xmlns="http://www.w3.org/2000/svg" fill="none" viewBox="0 0 24 24" id="Monitor-Bug--Streamline-Ultimate">
  <desc>
    Monitor Bug Streamline Icon: https://streamlinehq.com
  </desc>
  <path fill="#66e1ff" d="M20.1304 11.5217V1.95652c0 -0.25368 -0.1008 -0.49698 -0.2802 -0.67636C19.6709 1.10078 19.4276 1 19.1739 1H1.95652c-0.25368 0 -0.49698 0.10078 -0.67636 0.28016C1.10078 1.45954 1 1.70284 1 1.95652v9.56518h19.1304Z" stroke-width="1"></path>
  <path fill="#c2f3ff" d="M16.3043 1H1.95652c-0.25368 0 -0.49698 0.10078 -0.67636 0.28016C1.10078 1.45954 1 1.70284 1 1.95652v9.56518h4.7826L16.3043 1Z" stroke-width="1"></path>
  <path fill="#ffffff" d="M1 11.5218v1.913c0 0.2537 0.10078 0.497 0.28016 0.6764 0.08882 0.0888 0.19427 0.1593 0.31032 0.2073 0.11605 0.0481 0.24043 0.0728 0.36604 0.0728H19.1739c0.2537 0 0.497 -0.1007 0.6763 -0.2801 0.1794 -0.1794 0.2802 -0.4227 0.2802 -0.6764v-1.913H1Z" stroke-width="1"></path>
  <path fill="#b2b2b2" d="M13.4342 17.2609c-0.3806 0 -0.7455 -0.1512 -1.0146 -0.4203 -0.269 -0.2691 -0.4202 -0.634 -0.4202 -1.0145v-1.4348H8.65158v1.4348c0 0.3805 -0.15117 0.7454 -0.42024 1.0145 -0.26907 0.2691 -0.63402 0.4203 -1.01454 0.4203h6.2174Z" stroke-width="1"></path>
  <path stroke="#191919" stroke-linecap="round" stroke-linejoin="round" d="M5.7826 17.2609h3.82608M1 11.5218h8.60868m-0.95652 2.8695v1.4348c0 0.3806 -0.15116 0.7455 -0.42024 1.0146 -0.26907 0.269 -0.63401 0.4202 -1.01454 0.4202" stroke-width="1"></path>
  <path stroke="#191919" stroke-linecap="round" stroke-linejoin="round" d="M20.1304 9.60868V1.95652c0 -0.12561 -0.0247 -0.24999 -0.0728 -0.36604 -0.0481 -0.11605 -0.1185 -0.2215 -0.2074 -0.31032 -0.0888 -0.08882 -0.1942 -0.15928 -0.3103 -0.20735C19.4239 1.02474 19.2995 1 19.1739 1H1.95652c-0.25368 0 -0.49698 0.10078 -0.67636 0.28016C1.10078 1.45954 1 1.70283 1 1.95652V13.4348c0 0.2536 0.10078 0.4969 0.28016 0.6763 0.17938 0.1794 0.42268 0.2802 0.67636 0.2802h8.60868" stroke-width="1"></path>
  <path fill="#78eb7b" d="M21.0867 18.2173c0 0.5025 -0.0989 1 -0.2912 1.4642 -0.1923 0.4642 -0.4741 0.886 -0.8294 1.2413 -0.3553 0.3553 -0.7771 0.6371 -1.2413 0.8294 -0.4642 0.1922 -0.9617 0.2912 -1.4642 0.2912 -0.5024 0 -0.9999 -0.099 -1.4641 -0.2912 -0.4642 -0.1923 -0.886 -0.4741 -1.2413 -0.8294 -0.3553 -0.3553 -0.6371 -0.7771 -0.8294 -1.2413 -0.1923 -0.4642 -0.2912 -0.9617 -0.2912 -1.4642v-1.913c0 -0.5025 0.0989 -1 0.2912 -1.4642 0.1923 -0.4642 0.4741 -0.886 0.8294 -1.2413 0.3553 -0.3552 0.7771 -0.6371 1.2413 -0.8293 0.4642 -0.1923 0.9617 -0.2913 1.4641 -0.2913 0.5025 0 1 0.099 1.4642 0.2913 0.4642 0.1922 0.886 0.4741 1.2413 0.8293 0.3553 0.3553 0.6371 0.7771 0.8294 1.2413 0.1923 0.4642 0.2912 0.9617 0.2912 1.4642v1.913Z" stroke-width="1"></path>
  <path fill="#c9f7ca" d="M17.2606 22.0434c-1.0147 0 -1.9879 -0.4031 -2.7054 -1.1206 -0.7175 -0.7176 -1.1206 -1.6907 -1.1206 -2.7055v-1.913c0 -1.0147 0.4031 -1.9879 1.1206 -2.7055 0.7175 -0.7175 1.6907 -1.1206 2.7054 -1.1206v9.5652Z" stroke-width="1"></path>
  <path stroke="#191919" stroke-linecap="round" stroke-linejoin="round" d="M21.0867 18.2174c0 0.5025 -0.099 1 -0.2913 1.4642 -0.1922 0.4642 -0.4741 0.886 -0.8293 1.2413m1.1206 -2.7055v-1.913m0 1.913h1.913m-3.0336 2.7055c-0.3553 0.3553 -0.7771 0.6371 -1.2413 0.8294 -0.4642 0.1922 -0.9617 0.2912 -1.4642 0.2912 -0.5024 0 -1 -0.099 -1.4642 -0.2912 -0.4642 -0.1923 -0.886 -0.4741 -1.2412 -0.8294m5.4109 0L22.0432 23m-7.488 -2.0771c-0.3553 -0.3553 -0.6372 -0.7771 -0.8294 -1.2413 -0.1923 -0.4642 -0.2913 -0.9617 -0.2913 -1.4642m1.1207 2.7055L12.478 23m0.9565 -4.7826v-1.913m0 1.913h-1.913m1.913 -1.913c0 -0.5025 0.099 -1 0.2913 -1.4642 0.1922 -0.4642 0.4741 -0.886 0.8294 -1.2413 0.3552 -0.3552 0.777 -0.6371 1.2412 -0.8293 0.4642 -0.1923 0.9618 -0.2913 1.4642 -0.2913 0.5025 0 1 0.099 1.4642 0.2913 0.4642 0.1922 0.886 0.4741 1.2413 0.8293 0.3552 0.3553 0.6371 0.7771 0.8293 1.2413 0.1923 0.4642 0.2913 0.9617 0.2913 1.4642m-7.6522 0h7.6522m-9.5652 -4.7826 2.5979 2.5979m8.8803 -2.5979 -2.5979 2.5979" stroke-width="1"></path>
</svg>