<svg xmlns="http://www.w3.org/2000/svg" fill="none" viewBox="0 0 24 24" id="Network--Streamline-Ultimate">
  <desc>
    Network Streamline Icon: https://streamlinehq.com
  </desc>
  <path fill="#66e1ff" d="M12 23c6.0752 0 11 -4.9248 11 -11 0 -6.07518 -4.9248 -11 -11 -11C5.92492 1 1 5.92482 1 12c0 6.0752 4.92492 11 11 11Z" stroke-width="1"></path>
  <path fill="#c2f3ff" d="M4.31337 14.8714c-0.00029 -1.9214 0.50266 -3.8091 1.4587 -5.47562 0.95603 -1.66649 2.33186 -3.05345 3.99055 -4.02295 1.65878 -0.96951 3.54248 -1.48769 5.46358 -1.50291 1.9213 -0.01523 3.8129 0.47299 5.4867 1.41614 -0.9953 -1.29111 -2.2653 -2.34475 -3.7178 -3.08488 -1.4527 -0.74004 -3.0515 -1.14803 -4.6812 -1.19429 -1.6295 -0.046362 -3.24896 0.27017 -4.74123 0.92646 -1.49227 0.65639 -2.82008 1.63624 -3.88719 2.86878 -1.0671 1.23245 -1.84696 2.68666 -2.28306 4.2575 -0.436092 1.57077 -0.517689 3.21897 -0.23874 4.82517 0.27905 1.6062 0.91153 3.1303 1.85175 4.4621 0.94032 1.3317 2.16477 2.4377 3.58501 3.2383 -1.48613 -1.9222 -2.29068 -4.2842 -2.28707 -6.7138Z" stroke-width="1"></path>
  <path stroke="#191919" stroke-linecap="round" stroke-linejoin="round" d="M12 23c6.0752 0 11 -4.9248 11 -11 0 -6.07518 -4.9248 -11 -11 -11C5.92492 1 1 5.92482 1 12c0 6.0752 4.92492 11 11 11Z" stroke-width="1"></path>
  <path fill="#ffef5e" stroke="#191919" stroke-linecap="round" stroke-linejoin="round" d="M8.89143 10.087c1.18867 0 2.15217 -0.96358 2.15217 -2.1522 0 -1.18863 -0.9635 -2.15218 -2.15217 -2.15218 -1.18862 0 -2.15217 0.96355 -2.15217 2.15218 0 1.18862 0.96355 2.1522 2.15217 2.1522Z" stroke-width="1"></path>
  <path fill="#ffef5e" stroke="#191919" stroke-linecap="round" stroke-linejoin="round" d="M14.1527 18.6957c0.6604 0 1.1956 -0.5354 1.1956 -1.1957 0 -0.6604 -0.5352 -1.1956 -1.1956 -1.1956s-1.1957 0.5352 -1.1957 1.1956c0 0.6603 0.5353 1.1957 1.1957 1.1957Z" stroke-width="1"></path>
  <path fill="#ffef5e" stroke="#191919" stroke-linecap="round" stroke-linejoin="round" d="M18.4566 12c0.9245 0 1.6739 -0.7494 1.6739 -1.6739s-0.7494 -1.67391 -1.6739 -1.67391 -1.6739 0.74941 -1.6739 1.67391S17.5321 12 18.4566 12Z" stroke-width="1"></path>
  <path stroke="#191919" stroke-linecap="round" stroke-linejoin="round" d="M11.0435 7.6976c2.1383 0.0814 4.1757 0.93037 5.7391 2.3913" stroke-width="1"></path>
  <path stroke="#191919" stroke-linecap="round" stroke-linejoin="round" d="m18.7915 11.9675 0.3826 0.5108s1.4348 1.915 1.4348 6.2193" stroke-width="1"></path>
  <path stroke="#191919" stroke-linecap="round" stroke-linejoin="round" d="m16.6133 2.01111 0.1693 0.42565c0.6921 2.05037 1.0161 4.20714 0.9565 6.37044" stroke-width="1"></path>
  <path stroke="#191919" stroke-linecap="round" stroke-linejoin="round" d="M17.2609 11.5237c-0.1194 1.976 -0.8314 3.8703 -2.0431 5.4359" stroke-width="1"></path>
  <path stroke="#191919" stroke-linecap="round" stroke-linejoin="round" d="m13.5803 18.5502 -0.1454 0.1474s-2.3913 2.3913 -7.65219 2.3913" stroke-width="1"></path>
  <path stroke="#191919" stroke-linecap="round" stroke-linejoin="round" d="M12.0003 1.00195C10.6917 2.4016 9.63945 4.02037 8.8916 5.78456" stroke-width="1"></path>
  <path stroke="#191919" stroke-linecap="round" stroke-linejoin="round" d="m7.77419 9.77512 -0.07847 0.31378c-0.52121 2.5869 -0.18535 5.2731 0.95652 7.6522 1.62606 3.2579 5.73916 4.7826 5.73916 4.7826l0.3567 0.1329" stroke-width="1"></path>
  <path stroke="#191919" stroke-linecap="round" stroke-linejoin="round" d="M6.73925 7.93478s-3.67402 0.26305 -5.52392 1.88728" stroke-width="1"></path>
  <path stroke="#191919" stroke-linecap="round" stroke-linejoin="round" d="m1.26807 14.4238 0.21043 -0.0305s6.58185 -1.0121 11.9316 2.1713" stroke-width="1"></path>
</svg>