<svg xmlns="http://www.w3.org/2000/svg" fill="none" viewBox="0 0 24 24" id="Programming-Hold-Code-2--Streamline-Ultimate">
  <desc>
    Programming Hold Code 2 Streamline Icon: https://streamlinehq.com
  </desc>
  <path fill="#c9f7ca" d="M12.4754 13.6735c3.4331 0 6.2161 -2.7829 6.2161 -6.21605 0 -3.433 -2.783 -6.21609 -6.2161 -6.21609 -3.43303 0 -6.21612 2.78309 -6.21612 6.21609 0 3.43315 2.78309 6.21605 6.21612 6.21605Z" stroke-width="1"></path>
  <path fill="#ffdda1" d="M7.44844 17.3707 6.3554 15.7335c-0.14511 -0.2448 -0.36447 -0.4368 -0.62619 -0.5485 -0.26172 -0.1118 -0.55213 -0.137 -0.82927 -0.0724 -0.27714 0.0646 -0.52647 0.2157 -0.71188 0.4316 -0.18531 0.2158 -0.29714 0.4852 -0.31909 0.7688v-3.5957c0 -0.3804 -0.15116 -0.7454 -0.4201 -1.0144 -0.26894 -0.2691 -0.63391 -0.4201 -1.01439 -0.4201 -0.38048 0 -0.74534 0.151 -1.01428 0.4201 -0.26904 0.269 -0.4202 0.634 -0.4202 1.0144v4.9461c0 0.9771 0.33257 1.9251 0.94295 2.6881l1.92602 2.4071h4.30344v-2.999c0.00039 -0.8504 -0.25157 -1.6818 -0.72397 -2.3889Z" stroke-width="1"></path>
  <path fill="#ffdda1" d="M21.5608 11.2828c-0.3804 0 -0.7453 0.151 -1.0144 0.4201 -0.269 0.2691 -0.4201 0.634 -0.4201 1.0144v3.5957c-0.0165 -0.2013 -0.0783 -0.3963 -0.1807 -0.5703 -0.1026 -0.1741 -0.2431 -0.3228 -0.4112 -0.4348 -0.1509 -0.1005 -0.3204 -0.1692 -0.4986 -0.2022 -0.1782 -0.0332 -0.3611 -0.0295 -0.5379 0.0102 -0.1767 0.0398 -0.3436 0.115 -0.4904 0.2212 -0.1468 0.1062 -0.2706 0.241 -0.3638 0.3964l-1.0921 1.6372c-0.4727 0.7077 -0.7247 1.5398 -0.724 2.3909v2.997h4.3035l1.926 -2.4071c0.6105 -0.763 0.943 -1.711 0.943 -2.6881v-4.9461c0 -0.1888 -0.0373 -0.3757 -0.1096 -0.5501 -0.0724 -0.1743 -0.1786 -0.3327 -0.3123 -0.466 -0.1337 -0.1333 -0.2924 -0.2389 -0.4669 -0.3106 -0.1746 -0.0718 -0.3617 -0.1084 -0.5505 -0.1078Z" stroke-width="1"></path>
  <path stroke="#191919" stroke-linecap="round" stroke-linejoin="round" d="m3.86897 22.7586 -1.92602 -2.4071C1.33237 19.5882 0.999805 18.6398 1 17.6624v-4.9451c0 -0.3804 0.15116 -0.7454 0.4202 -1.0144 0.26894 -0.2691 0.6338 -0.4201 1.01428 -0.4201 0.38048 0 0.74535 0.151 1.01439 0.4201 0.26894 0.269 0.4201 0.634 0.4201 1.0144v3.5862" stroke-width="1"></path>
  <path stroke="#191919" stroke-linecap="round" stroke-linejoin="round" d="M8.17205 22.7586v-2.999c0.00078 -0.8511 -0.25118 -1.6832 -0.72397 -2.3908l-1.09304 -1.6354c-0.09319 -0.1553 -0.21693 -0.2902 -0.36379 -0.3963 -0.14677 -0.1062 -0.31364 -0.1815 -0.49036 -0.2213 -0.17682 -0.0397 -0.35979 -0.0432 -0.53798 -0.0101 -0.17809 0.033 -0.34769 0.1017 -0.49846 0.2022 -0.27148 0.1811 -0.46743 0.4551 -0.55106 0.7705 -0.08362 0.3154 -0.04927 0.6505 0.09681 0.9423l1.29289 2.1517" stroke-width="1"></path>
  <path stroke="#191919" stroke-linecap="round" stroke-linejoin="round" d="m20.1265 22.7586 1.926 -2.4071c0.6107 -0.7633 0.9431 -1.7117 0.9429 -2.6891v-4.9451c0 -0.3804 -0.151 -0.7454 -0.4201 -1.0144 -0.269 -0.2691 -0.634 -0.4201 -1.0144 -0.4201 -0.3803 0 -0.7453 0.151 -1.0143 0.4201 -0.2691 0.269 -0.4201 0.634 -0.4201 1.0144v3.5862" stroke-width="1"></path>
  <path stroke="#191919" stroke-linecap="round" stroke-linejoin="round" d="M15.8232 22.7586v-2.999c-0.0007 -0.8511 0.2513 -1.6832 0.724 -2.3908l1.0931 -1.6354c0.0931 -0.1553 0.2169 -0.2902 0.3637 -0.3963 0.1468 -0.1062 0.3137 -0.1815 0.4904 -0.2213 0.1768 -0.0397 0.3598 -0.0432 0.538 -0.0101 0.1782 0.033 0.3477 0.1017 0.4985 0.2022 0.2716 0.1809 0.4678 0.4549 0.5515 0.7703 0.0839 0.3154 0.0497 0.6506 -0.0963 0.9425l-1.2939 2.1517" stroke-width="1"></path>
  <path stroke="#191919" stroke-linecap="round" stroke-linejoin="round" d="m16.3008 3.15402 3.8253 3.82529 -3.8253 3.82529" stroke-width="1"></path>
  <path stroke="#191919" stroke-linecap="round" stroke-linejoin="round" d="M8.64999 3.15402 4.82471 6.97931l3.82528 3.82529" stroke-width="1"></path>
  <path stroke="#191919" stroke-linecap="round" stroke-linejoin="round" d="M13.4317 2.67587 11.519 11.2828" stroke-width="1"></path>
</svg>