<svg xmlns="http://www.w3.org/2000/svg" fill="none" viewBox="0 0 24 24" id="Typing--Streamline-Ultimate">
  <desc>
    Typing Streamline Icon: https://streamlinehq.com
  </desc>
  <path fill="#ffffff" d="M22.0435 6.26086H1.95652c-0.52827 0 -0.95652 0.42826 -0.95652 0.95653v9.56521c0 0.5283 0.42825 0.9565 0.95652 0.9565H22.0435c0.5283 0 0.9565 -0.4282 0.9565 -0.9565V7.21739c0 -0.52827 -0.4282 -0.95653 -0.9565 -0.95653Z" stroke-width="1"></path>
  <path fill="#e4f1f5" d="M23 10.0879V7.21836c0 -0.25369 -0.1008 -0.49698 -0.2802 -0.67636 -0.1793 -0.17938 -0.4227 -0.28016 -0.6763 -0.28016H1.95652c-0.25369 0 -0.49698 0.10078 -0.67636 0.28016C1.10078 6.72138 1 6.96467 1 7.21836v2.86954h22Z" stroke-width="1"></path>
  <path stroke="#191919" stroke-linecap="round" stroke-linejoin="round" d="M22.0435 6.26086H1.95652c-0.52827 0 -0.95652 0.42826 -0.95652 0.95653v9.56521c0 0.5283 0.42825 0.9565 0.95652 0.9565H22.0435c0.5283 0 0.9565 -0.4282 0.9565 -0.9565V7.21739c0 -0.52827 -0.4282 -0.95653 -0.9565 -0.95653Z" stroke-width="1"></path>
  <path stroke="#191919" stroke-linecap="round" stroke-linejoin="round" d="M4.34717 9.13043h1.91304" stroke-width="1"></path>
  <path stroke="#191919" stroke-linecap="round" stroke-linejoin="round" d="M4.34717 14.8696h1.91304" stroke-width="1"></path>
  <path stroke="#191919" stroke-linecap="round" stroke-linejoin="round" d="M5.3042 14.8695V9.13043" stroke-width="1"></path>
</svg>