<svg xmlns="http://www.w3.org/2000/svg" fill="none" viewBox="0 0 24 24" id="Microphone-1--Streamline-Ultimate">
  <desc>
    Microphone 1 Streamline Icon: https://streamlinehq.com
  </desc>
  <mask id="a" width="22" height="22" x="1" y="1" maskUnits="userSpaceOnUse" style="mask-type:luminance">
    <path fill="#ffffff" d="M1 1h22v22H1V1Z"></path>
  </mask>
  <g mask="url(#a)">
    <path fill="#e3e3e3" d="m10.625 18.875.4079 3.2652c.0139.1114.0683.2139.1528.2879.0845.0741.1933.1144.3055.1136h1.0249c.1123.0008.221-.0395.3055-.1136.0845-.074.1389-.1765.1528-.2879l.4006-3.2652"></path>
    <path fill="#e3e3e3" d="M15.6663 11.5415v4.5833c-.0002.2962-.1004.5836-.2841.8159l-1.265 1.5766c-.0878.113-.2004.204-.3293.2661-.1288.062-.2702.0933-.4132.0914h-2.75c-.1428.001-.284-.0309-.4126-.0928-.1287-.0619-.24156-.1525-.32993-.2647l-1.265-1.5766c-.18373-.2323-.28384-.5197-.28416-.8159v-4.5833h7.33329Z"></path>
    <path fill="#ff808c" d="M15.6663 9.70825H8.33301v1.83335h7.33329V9.70825Z"></path>
    <path fill="#808080" d="M15.6663 9.70825V3.29159c-.0001-.28318-.0878-.55939-.2509-.7909-.163-.23149-.3937-.407-.6602-.50252-.8822-.33168-1.8135-.51415-2.7555-.53992-.9421.02577-1.8734.20824-2.75553.53992-.26657.09552-.49716.27103-.66024.50252-.16309.23151-.25072.50772-.25092.7909v6.41666h7.33329Z"></path>
    <path fill="#b2b2b2" d="M14.7552 1.99817c-.8822-.33168-1.8135-.51415-2.7555-.53992-.9421.02577-1.8734.20824-2.75553.53992-.26657.09552-.49716.27103-.66024.50252-.16309.23151-.25072.50772-.25092.7909V5.8665c.00058-.28286.08838-.55866.25144-.7898.16306-.23114.39344-.40637.65972-.50178.88203-.3323 1.81323-.5154 2.75553-.54175.942.02577 1.8733.20824 2.7555.53991.2665.09553.4972.27104.6602.50253.1631.23151.2508.50772.2509.79089V3.29159c-.0001-.28318-.0878-.55939-.2509-.7909-.163-.23149-.3937-.407-.6602-.50252Z"></path>
    <path stroke="#191919" stroke-linecap="round" stroke-linejoin="round" d="M15.6663 9.70825V3.29159c-.0001-.28318-.0878-.55939-.2509-.7909-.163-.23149-.3937-.407-.6602-.50252-.8822-.33168-1.8135-.51415-2.7555-.53992-.9421.02577-1.8734.20824-2.75553.53992-.26657.09552-.49716.27103-.66024.50252-.16309.23151-.25072.50772-.25092.7909v6.41666h7.33329Z"></path>
    <path fill="#808080" d="M11.083 11.5415v3.2083c0 .2431.0966.4763.2685.6482s.4051.2685.6482.2685c.2431 0 .4763-.0966.6481-.2685.1719-.1719.2685-.4051.2685-.6482v-3.2083H11.083Z"></path>
    <path stroke="#191919" stroke-linecap="round" stroke-linejoin="round" d="m10.625 18.875.4079 3.2652c.0139.1114.0683.2139.1528.2879.0845.0741.1933.1144.3055.1136h1.0249c.1123.0008.221-.0395.3055-.1136.0845-.074.1389-.1765.1528-.2879l.4006-3.2652"></path>
    <path stroke="#191919" stroke-linecap="round" stroke-linejoin="round" d="M15.6663 11.5415v4.5833c-.0002.2962-.1004.5836-.2841.8159l-1.265 1.5766c-.0878.113-.2004.204-.3293.2661-.1288.062-.2702.0933-.4132.0914h-2.75c-.1428.001-.284-.0309-.4126-.0928-.1287-.0619-.24156-.1525-.32993-.2647l-1.265-1.5766c-.18373-.2323-.28384-.5197-.28416-.8159v-4.5833h7.33329Z"></path>
    <path stroke="#191919" stroke-linecap="round" stroke-linejoin="round" d="M15.6663 9.70825H8.33301v1.83335h7.33329V9.70825Z"></path>
    <path stroke="#191919" stroke-linecap="round" stroke-linejoin="round" d="M11.083 11.5415v3.2083c0 .2431.0966.4763.2685.6482s.4051.2685.6482.2685c.2431 0 .4763-.0966.6481-.2685.1719-.1719.2685-.4051.2685-.6482v-3.2083H11.083Z"></path>
  </g>
</svg>