<svg xmlns="http://www.w3.org/2000/svg" fill="none" viewBox="0 0 24 24" id="Volume-Control-Remove-1--Streamline-Ultimate">
  <desc>
    Volume Control Remove 1 Streamline Icon: https://streamlinehq.com
  </desc>
  <g clip-path="url(#a)">
    <path fill="#808080" d="M13.4305 11.9866c1.5759 0 2.8533 -1.2775 2.8533 -2.85336 0 -1.57585 -1.2774 -2.85333 -2.8533 -2.85333 -1.5759 0 -2.8534 1.27748 -2.8534 2.85333 0 1.57586 1.2775 2.85336 2.8534 2.85336Z" stroke-width="1"></path>
    <path fill="#e3e3e3" d="M13.4315 1.48515c0 -0.12675 -0.0504 -0.24834 -0.1399 -0.33799 -0.0897 -0.08956 -0.2113 -0.13996 -0.338 -0.13996 -1.5622 0.00113 -3.09093 0.45256 -4.40317 1.30015 -1.31224 0.84769 -2.35225 2.05576 -2.99544 3.47929H3.3946c-0.63373 0 -1.2416 0.2518 -1.68976 0.69996 -0.44815 0.44815 -0.69996 1.05602 -0.69996 1.68985v1.91175c0 0.6338 0.25181 1.2416 0.69996 1.6899 0.44816 0.448 1.05603 0.6998 1.68976 0.6998h2.16039c0.68151 1.4947 1.79749 2.7493 3.20247 3.6004 1.40494 0.8512 3.03374 1.2594 4.67404 1.1715V1.48515Z" stroke-width="1"></path>
    <path fill="#ffffff" d="M13.4266 1.48515v7.64718H1v-0.95588c0 -0.63383 0.25181 -1.2417 0.69996 -1.68985 0.44815 -0.44816 1.05603 -0.69996 1.68976 -0.69996h2.16039c0.64497 -1.42231 1.68536 -2.62907 2.99722 -3.47648C9.8591 1.46276 11.387 1.01039 12.9487 1.0072c0.1267 0 0.2483 0.05031 0.338 0.13996 0.0895 0.08965 0.1399 0.21124 0.1399 0.33799Z" stroke-width="1"></path>
    <path stroke="#191919" stroke-linecap="round" stroke-linejoin="round" d="M13.4315 10.636V1.48515c0 -0.12675 -0.0504 -0.24834 -0.1399 -0.33799 -0.0897 -0.08956 -0.2113 -0.13996 -0.338 -0.13996 -1.5622 0.00113 -3.09093 0.45256 -4.40317 1.30015 -1.31224 0.84769 -2.35225 2.05576 -2.99544 3.47929H3.3946c-0.63373 0 -1.2416 0.2518 -1.68976 0.69996 -0.44815 0.44815 -0.69996 1.05602 -0.69996 1.68985v1.91175c0 0.6338 0.25181 1.2416 0.69996 1.6899 0.44816 0.448 1.05603 0.6998 1.68976 0.6998h2.16039c0.82109 1.8046 2.27141 3.2486 4.07976 4.0616" stroke-width="1"></path>
    <path stroke="#191919" stroke-linecap="round" stroke-linejoin="round" d="M16.2353 9.68479c0.0828 -0.41518 0.0726 -0.84347 -0.0302 -1.25415 -0.1027 -0.41069 -0.2953 -0.79345 -0.5639 -1.12067 -0.2686 -0.32722 -0.6064 -0.59073 -0.9892 -0.77144 -0.3828 -0.18079 -0.8008 -0.27438 -1.2243 -0.274" stroke-width="1"></path>
    <path fill="#ff808c" d="M17.2647 22.9927c1.1344 0 2.2431 -0.3364 3.1864 -0.9665 0.9431 -0.6303 1.6783 -1.5259 2.1124 -2.574 0.4341 -1.0481 0.5476 -2.2012 0.3264 -3.3137 -0.2214 -1.1126 -0.7675 -2.1345 -1.5698 -2.9366 -0.8021 -0.8022 -1.824 -1.3484 -2.9366 -1.5697 -1.1124 -0.2213 -2.2656 -0.1078 -3.3137 0.3263 -1.048 0.4342 -1.9437 1.1693 -2.5739 2.1125 -0.6302 0.9432 -0.9666 2.052 -0.9666 3.1863 0 1.5212 0.6042 2.98 1.6799 4.0555 1.0755 1.0757 2.5344 1.6799 4.0555 1.6799Z" stroke-width="1"></path>
    <path fill="#ffbfc5" d="M17.2645 11.5221c-1.1674 -0.0009 -2.3072 0.3547 -3.2669 1.0192 -0.9597 0.6646 -1.6936 1.6062 -2.1034 2.6993 -0.4099 1.093 -0.4762 2.2851 -0.1901 3.4168 0.2862 1.1318 0.9112 2.1491 1.7913 2.9159l8.085 -8.0849c-0.5369 -0.6175 -1.1999 -1.1126 -1.9444 -1.4518 -0.7447 -0.3392 -1.5534 -0.5147 -2.3715 -0.5145Z" stroke-width="1"></path>
    <path stroke="#191919" stroke-linecap="round" stroke-linejoin="round" d="M17.2647 22.9927c1.1344 0 2.2431 -0.3364 3.1864 -0.9665 0.9431 -0.6303 1.6783 -1.5259 2.1124 -2.574 0.4341 -1.0481 0.5476 -2.2012 0.3264 -3.3137 -0.2214 -1.1126 -0.7675 -2.1345 -1.5698 -2.9366 -0.8021 -0.8022 -1.824 -1.3484 -2.9366 -1.5697 -1.1124 -0.2213 -2.2656 -0.1078 -3.3137 0.3263 -1.048 0.4342 -1.9437 1.1693 -2.5739 2.1125 -0.6302 0.9432 -0.9666 2.052 -0.9666 3.1863 0 1.5212 0.6042 2.98 1.6799 4.0555 1.0755 1.0757 2.5344 1.6799 4.0555 1.6799Z" stroke-width="1"></path>
    <path stroke="#191919" stroke-linecap="round" stroke-linejoin="round" d="m19.2921 15.2214 -4.0548 4.0549" stroke-width="1"></path>
    <path stroke="#191919" stroke-linecap="round" stroke-linejoin="round" d="m19.2921 19.2763 -4.0548 -4.0549" stroke-width="1"></path>
  </g>
  <defs>
    <clipPath id="a">
      <path fill="#ffffff" d="M0 0h24v24H0z" stroke-width="1"></path>
    </clipPath>
  </defs>
</svg>