<svg viewBox="0 0 14 14" fill="none" xmlns="http://www.w3.org/2000/svg"><g id="shipment-check--shipping-parcel-shipment-check-approved"><path id="Vector" d="M.5 4.5h13v8a1 1 0 0 1-1 1h-11a1 1 0 0 1-1-1v-8Z" fill="#37d7ff"></path><path id="Vector_2" d="M.5 4.5 2 1.61A2 2 0 0 1 3.74.5h6.52a2 2 0 0 1 1.79 1.11L13.5 4.5" fill="#ffffff"></path><path id="Vector_3" d="M7 .5v4" stroke="#3e3e3e" stroke-linecap="round" stroke-linejoin="round"></path><path id="Vector_4" d="M.5 4.5h13v8a1 1 0 0 1-1 1h-11a1 1 0 0 1-1-1v-8Z" stroke="#3e3e3e" stroke-linecap="round" stroke-linejoin="round"></path><path id="Vector_5" d="M.5 4.5 2 1.61A2 2 0 0 1 3.74.5h6.52a2 2 0 0 1 1.79 1.11L13.5 4.5" stroke="#3e3e3e" stroke-linecap="round" stroke-linejoin="round"></path><path id="Vector_6" d="m9.498 7-2.996 4-2-1.498" stroke="#3e3e3e" stroke-linecap="round" stroke-linejoin="round"></path></g></svg>