<svg xmlns="http://www.w3.org/2000/svg" fill="none" viewBox="0 0 14 14" id="Chef-Toque-Hat--Streamline-Flex">
  <desc>
    Chef Toque Hat Streamline Icon: https://streamlinehq.com
  </desc>
  <g id="chef-toque-hat--cook-gear-chef-cooking-nutrition-tools-clothes-hat-clothing-food-kitchenware">
    <path id="Intersect" fill="#ffffff" d="M10.9123 10.2902c-0.0343 0.4483 -0.0763 0.8907 -0.1176 1.3261 -0.0129 0.1357 -0.0257 0.2707 -0.0382 0.405 -0.0447 0.48 -0.4195 0.8673 -0.89982 0.9086 -1.96088 0.1683 -3.75274 0.1683 -5.71362 0 -0.48029 -0.0413 -0.85511 -0.4286 -0.8998 -0.9086 -0.0125 -0.1343 -0.02532 -0.2693 -0.0382 -0.405 -0.04135 -0.4354 -0.08335 -0.8777 -0.11766 -1.3261 1.26669 -0.0341 2.5747 -0.0673 3.9125 -0.0673 1.33779 0 2.64576 0.0332 3.9124 0.0673Z" stroke-width="1"></path>
    <path id="Subtract" fill="#d7e0ff" d="M0.909668 4.46875c0 1.19996 0.929422 2.20112 2.164972 2.43267 -0.03766 0.52748 -0.06322 1.06309 -0.06322 1.60539 0 0.60345 0.03165 1.19861 0.07639 1.78349 1.26669 -0.0341 2.57468 -0.0673 3.91247 -0.0673 1.33778 0 2.64576 0.0332 3.91242 0.0673 0.0448 -0.58489 0.0764 -1.18003 0.0764 -1.78349 0 -0.54232 -0.0255 -1.07794 -0.0632 -1.60543 1.2355 -0.23161 2.1648 -1.23273 2.1648 -2.43263 0 -1.37138 -1.2139 -2.48311 -2.7114 -2.48311 -0.3561 0 -0.69612 0.06286 -1.00762 0.17711C8.8828 1.43165 8.00253 0.943848 6.99784 0.943848c-1.00406 0 -1.88386 0.487192 -2.37292 1.217522 -0.31047 -0.11338 -0.6492 -0.17573 -1.00383 -0.17573 -1.49748 0 -2.711422 1.11173 -2.711422 2.48311Z" stroke-width="1"></path>
    <path id="Subtract_2" stroke="#4147d5" stroke-linecap="round" stroke-linejoin="round" d="M0.909668 4.46875c0 1.19996 0.929422 2.20112 2.164972 2.43267 -0.03766 0.52748 -0.06322 1.06309 -0.06322 1.60539 0 0.60345 0.03165 1.19861 0.07639 1.78349 1.26669 -0.0341 2.57468 -0.0673 3.91247 -0.0673 1.33778 0 2.64576 0.0332 3.91242 0.0673 0.0448 -0.58489 0.0764 -1.18003 0.0764 -1.78349 0 -0.54232 -0.0255 -1.07794 -0.0632 -1.60543 1.2355 -0.23161 2.1648 -1.23273 2.1648 -2.43263 0 -1.37138 -1.2139 -2.48311 -2.7114 -2.48311 -0.3561 0 -0.69612 0.06286 -1.00762 0.17711C8.8828 1.43165 8.00253 0.943848 6.99784 0.943848c-1.00406 0 -1.88386 0.487192 -2.37292 1.217522 -0.31047 -0.11338 -0.6492 -0.17573 -1.00383 -0.17573 -1.49748 0 -2.711422 1.11173 -2.711422 2.48311Z" stroke-width="1"></path>
    <path id="Intersect_2" stroke="#4147d5" stroke-linecap="round" stroke-linejoin="round" d="M10.9123 10.2902c-0.0343 0.4483 -0.0763 0.8907 -0.1176 1.3261 -0.0129 0.1357 -0.0257 0.2707 -0.0382 0.405 -0.0447 0.48 -0.4195 0.8673 -0.89982 0.9086 -1.96088 0.1683 -3.75274 0.1683 -5.71362 0 -0.48029 -0.0413 -0.85511 -0.4286 -0.8998 -0.9086 -0.0125 -0.1343 -0.02532 -0.2693 -0.0382 -0.405 -0.04135 -0.4354 -0.08335 -0.8777 -0.11766 -1.3261 1.26669 -0.0341 2.5747 -0.0673 3.9125 -0.0673 1.33779 0 2.64576 0.0332 3.9124 0.0673Z" stroke-width="1"></path>
  </g>
</svg>