<svg xmlns="http://www.w3.org/2000/svg" fill="none" viewBox="0 0 14 14" id="Fork-Knife--Streamline-Flex">
  <desc>
    Fork Knife Streamline Icon: https://streamlinehq.com
  </desc>
  <g id="fork-knife--fork-spoon-knife-food-dine-cook-utensils-eat-restaurant-dining-kitchenware">
    <path id="Vector 419" stroke="#4147d5" stroke-linecap="round" stroke-linejoin="round" d="M10.249 0.61v12.882" stroke-width="1"></path>
    <path id="Vector 424" stroke="#4147d5" stroke-linecap="round" stroke-linejoin="round" d="m12.749 0.594 0.258 3.193a2.767 2.767 0 0 1 -2.758 2.99v0a2.767 2.767 0 0 1 -2.758 -2.99L7.749 0.594" stroke-width="1"></path>
    <path id="Vector 441" stroke="#4147d5" stroke-linecap="round" stroke-linejoin="round" d="m4.782 0.5 0 13" stroke-width="1"></path>
    <path id="Vector 442" fill="#d7e0ff" d="m4.773 0.509 0.01 8.807c-1.599 0.187 -2.469 0.1 -3.968 -0.556C0.432 5 1.769 2.384 4.773 0.51Z" stroke-width="1"></path>
    <path id="Vector 443" stroke="#4147d5" stroke-linecap="round" stroke-linejoin="round" d="m4.773 0.509 0.01 8.807c-1.599 0.187 -2.469 0.1 -3.968 -0.556C0.432 5 1.769 2.384 4.773 0.51Z" stroke-width="1"></path>
  </g>
</svg>