<svg xmlns="http://www.w3.org/2000/svg" fill="none" viewBox="0 0 14 14" id="Fried-Egg-Breakfast--Streamline-Flex">
  <desc>
    Fried Egg Breakfast Streamline Icon: https://streamlinehq.com
  </desc>
  <g id="fried-egg-breakfast">
    <path id="Vector 2682" fill="#ffffff" d="M8.5 1c-6.4 0 -8 4.66667 -8 7 0 2.3333 1.5 5 5 5 2 0 3.5 -0.5 4.5 -2s0.5 -2 1 -2.5 2.5 -1 2.5 -3.5c0 -2 -1.5 -4 -5 -4Z" stroke-width="1"></path>
    <path id="Vector 2681" stroke="#4147d5" d="M8.5 1c-6.4 0 -8 4.66667 -8 7 0 2.3333 1.5 5 5 5 2 0 3.5 -0.5 4.5 -2s0.5 -2 1 -2.5 2.5 -1 2.5 -3.5c0 -2 -1.5 -4 -5 -4Z" stroke-width="1"></path>
    <path id="Vector" fill="#d7e0ff" d="M7.19531 7.89062c1.405 0 2.19531 -0.79031 2.19531 -2.19531 0 -1.405 -0.79031 -2.19531 -2.19531 -2.19531C5.79031 3.5 5 4.29031 5 5.69531c0 1.405 0.79031 2.19531 2.19531 2.19531Z" stroke-width="1"></path>
    <path id="Vector_2" stroke="#4147d5" stroke-linecap="round" stroke-linejoin="round" d="M7.19531 7.89062c1.405 0 2.19531 -0.79031 2.19531 -2.19531 0 -1.405 -0.79031 -2.19531 -2.19531 -2.19531C5.79031 3.5 5 4.29031 5 5.69531c0 1.405 0.79031 2.19531 2.19531 2.19531Z" stroke-width="1"></path>
  </g>
</svg>