<svg xmlns="http://www.w3.org/2000/svg" fill="none" viewBox="0 0 48 48" id="Bowl-Chop-Stick--Streamline-Plump-Gradient">
  <desc>
    Bowl Chop Stick Streamline Icon: https://streamlinehq.com
  </desc>
  <g id="bowl-chop-stick--cook-soup-bowl-chopsticks-cooking-nutrition-asian-food-kitchenware">
    <path id="Subtract" fill="url(#paint0_linear_7979_3538)" fill-rule="evenodd" d="M32.1585 1.49791c.2664.18816.5384.41366.8084.68367.2699.26991.4954.54181.6835.80812.5537.7838.614 1.66562.383 2.47826-.2275.80039-.7373 1.54433-1.3512 2.12959-5.0435 4.80855-10.8933 9.52135-13.4394 11.52855-.4629.365-1.04.6378-1.6309.707-.601.0704-1.2365-.0712-1.7307-.5655-.4943-.4942-.6359-1.1298-.5655-1.7308.0692-.5908.342-1.168.707-1.6309 2.0073-2.5461 6.7203-8.39614 11.529-13.43979.5851-.6137 1.3288-1.12342 2.129-1.35095.8125-.231005 1.6941-.170793 2.4778.38275ZM2.70223 29.307c-.35358-2.4733 1.57242-4.4178 3.8632-4.526 2.7444-.1295 7.97467-.2812 17.43397-.2812 9.4593 0 14.6896.1517 17.434.2812 2.2907.1081 4.2167 2.0527 3.8632 4.526-1.4464 10.1177-10.4386 18.1928-21.2972 18.1928-10.8586 0-19.85079-8.0751-21.29717-18.1928ZM46.248 8.59387c.2086.25069.413.53891.6039.86959.1909.33058.3383.65154.4511.95754.3319.9004.1619 1.7677-.2715 2.4929-.427.7142-1.1119 1.3009-1.8563 1.7073-6.1162 3.3394-12.9865 6.3775-15.9653 7.6574-.5416.2327-1.1697.3469-1.7583.2608-.5988-.0876-1.176-.3889-1.5255-.9942-.3495-.6053-.3218-1.2559-.0982-1.8182.2197-.5528.6327-1.0396 1.105-1.3923 2.5979-1.9398 8.6644-6.3707 14.6146-9.99796.7241-.44136 1.5744-.7412 2.4062-.75387.8446-.01286 1.6806.27348 2.2943 1.011ZM30.67 37.702c-.7168.4153-.9613 1.333-.5461 2.0499.4153.7168 1.333.9613 2.0498.5461 3.3867-1.9618 6.0209-5.0894 7.3579-8.7881.2816-.7791-.1216-1.6389-.9007-1.9206-.7791-.2816-1.639.1217-1.9206.9008-1.0948 3.0286-3.259 5.6009-6.0403 7.2119Z" clip-rule="evenodd"></path>
  </g>
  <defs>
    <linearGradient id="paint0_linear_7979_3538" x1="4.382" x2="56.358" y1="4.747" y2="32.975" gradientUnits="userSpaceOnUse">
      <stop stop-color="#00d078"></stop>
      <stop offset="1" stop-color="#007df0"></stop>
    </linearGradient>
  </defs>
</svg>