<svg xmlns="http://www.w3.org/2000/svg" fill="none" viewBox="0 0 14 14" id="Polaroid-Four--Streamline-Core">
  <desc>
    Polaroid Four Streamline Icon: https://streamlinehq.com
  </desc>
  <g id="polaroid-four--photos-camera-polaroid-picture-photography-pictures-four-photo-image">
    <path id="Vector" fill="#d7e0ff" d="M5.25 0.5H1a0.5 0.5 0 0 0 -0.5 0.5v2.5h5.25V1a0.5 0.5 0 0 0 -0.5 -0.5Z" stroke-width="1"></path>
    <path id="Vector_2" fill="#d7e0ff" d="M13 0.5H8.75a0.5 0.5 0 0 0 -0.5 0.5v2.5h5.25V1a0.5 0.5 0 0 0 -0.5 -0.5Z" stroke-width="1"></path>
    <path id="Subtract" fill="#ffffff" fill-rule="evenodd" d="M13.5 3.5H8.25v1.75a0.5 0.5 0 0 0 0.5 0.5H13a0.5 0.5 0 0 0 0.5 -0.5V3.5Z" clip-rule="evenodd" stroke-width="1"></path>
    <path id="Subtract_2" fill="#ffffff" fill-rule="evenodd" d="M0.5 3.5h5.25v1.75a0.5 0.5 0 0 1 -0.5 0.5H1a0.5 0.5 0 0 1 -0.5 -0.5V3.5Z" clip-rule="evenodd" stroke-width="1"></path>
    <path id="Vector_3" fill="#d7e0ff" d="M5.25 8.25H1a0.5 0.5 0 0 0 -0.5 0.5v2.5h5.25v-2.5a0.5 0.5 0 0 0 -0.5 -0.5Z" stroke-width="1"></path>
    <path id="Subtract_3" fill="#ffffff" fill-rule="evenodd" d="M5.75 11.25H0.5V13a0.5 0.5 0 0 0 0.5 0.5h4.25a0.5 0.5 0 0 0 0.5 -0.5v-1.75Z" clip-rule="evenodd" stroke-width="1"></path>
    <path id="Vector_4" fill="#d7e0ff" d="M13 8.25H8.75a0.5 0.5 0 0 0 -0.5 0.5v2.5h5.25v-2.5a0.5 0.5 0 0 0 -0.5 -0.5Z" stroke-width="1"></path>
    <path id="Subtract_4" fill="#ffffff" fill-rule="evenodd" d="M13.5 11.25H8.25V13a0.5 0.5 0 0 0 0.5 0.5H13a0.5 0.5 0 0 0 0.5 -0.5v-1.75Z" clip-rule="evenodd" stroke-width="1"></path>
    <path id="Vector_5" stroke="#4147d5" stroke-linecap="round" stroke-linejoin="round" d="M5.25 0.5H1a0.5 0.5 0 0 0 -0.5 0.5v4.25a0.5 0.5 0 0 0 0.5 0.5h4.25a0.5 0.5 0 0 0 0.5 -0.5V1a0.5 0.5 0 0 0 -0.5 -0.5Z" stroke-width="1"></path>
    <path id="Vector_6" stroke="#4147d5" stroke-linecap="round" stroke-linejoin="round" d="M13 0.5H8.75a0.5 0.5 0 0 0 -0.5 0.5v4.25a0.5 0.5 0 0 0 0.5 0.5H13a0.5 0.5 0 0 0 0.5 -0.5V1a0.5 0.5 0 0 0 -0.5 -0.5Z" stroke-width="1"></path>
    <path id="Vector_7" stroke="#4147d5" stroke-linecap="round" stroke-linejoin="round" d="M5.25 8.25H1a0.5 0.5 0 0 0 -0.5 0.5V13a0.5 0.5 0 0 0 0.5 0.5h4.25a0.5 0.5 0 0 0 0.5 -0.5V8.75a0.5 0.5 0 0 0 -0.5 -0.5Z" stroke-width="1"></path>
    <path id="Vector_8" stroke="#4147d5" stroke-linecap="round" stroke-linejoin="round" d="M13 8.25H8.75a0.5 0.5 0 0 0 -0.5 0.5V13a0.5 0.5 0 0 0 0.5 0.5H13a0.5 0.5 0 0 0 0.5 -0.5V8.75a0.5 0.5 0 0 0 -0.5 -0.5Z" stroke-width="1"></path>
    <path id="Vector_9" stroke="#4147d5" stroke-linecap="round" stroke-linejoin="round" d="M0.5 3.5h5.25" stroke-width="1"></path>
    <path id="Vector_10" stroke="#4147d5" stroke-linecap="round" stroke-linejoin="round" d="M8.25 3.5h5.25" stroke-width="1"></path>
    <path id="Vector_11" stroke="#4147d5" stroke-linecap="round" stroke-linejoin="round" d="M8.25 11.25h5.25" stroke-width="1"></path>
    <path id="Vector_12" stroke="#4147d5" stroke-linecap="round" stroke-linejoin="round" d="M0.5 11.25h5.25" stroke-width="1"></path>
  </g>
</svg>