<svg xmlns="http://www.w3.org/2000/svg" fill="none" viewBox="0 0 48 48" id="Erlenmeyer-Flask--Streamline-Plump">
  <desc>
    Erlenmeyer Flask Streamline Icon: https://streamlinehq.com
  </desc>
  <g id="erlenmeyer-flask--science-experiment-lab-flask-chemistry-solution">
    <path id="Union" fill="#fddc5c" d="M24 2.75c-3.8409 0 -6.9374 0.24921 -9.0254 0.4885 -1.4054 0.16107 -2.044 1.73536 -1.2104 2.87493l1.7823 2.43648c0.0639 0.08736 0.1116 0.17926 0.1432 0.28276 0.3488 1.14017 2.4864 8.40233 0.8682 10.03433 -4.6447 5.0755 -13.22502 11.5969 -12.79212 19.3139 0.17284 3.0812 2.77097 6.3894 5.85782 6.6157 3.1543 0.2312 7.8763 0.4534 14.3764 0.4534 6.5 0 11.222 -0.2222 14.3764 -0.4534 3.0869 -0.2263 5.6851 -3.5347 5.8578 -6.6159 0.4327 -7.7169 -8.1474 -14.2383 -12.792 -19.3137 -1.6181 -1.632 0.5195 -8.89416 0.8682 -10.03433 0.0317 -0.1035 0.0794 -0.1954 0.1433 -0.28276l1.7823 -2.43646c0.8336 -1.13958 0.195 -2.71387 -1.2104 -2.87494C30.9375 2.99922 27.8409 2.75 24 2.75Z" stroke-width="1"></path>
    <path id="Union_2" fill="#0c098c" fill-rule="evenodd" d="M24.0001 0.75c-3.9267 0 -7.0998 0.25472 -9.2532 0.50151 -3.0276 0.34699 -4.2772 3.74549 -2.5968 6.04272l1.6793 2.29571c0.2149 0.71846 0.7379 2.55496 1.0616 4.41786 0.1785 1.0271 0.2809 1.9771 0.2636 2.7164 -0.0086 0.3686 -0.046 0.62 -0.0868 0.7718 -0.006 0.0224 -0.0114 0.0404 -0.0161 0.0544 -0.8618 0.9394 -1.8582 1.9259 -2.9469 3.0036 -0.3183 0.3152 -0.6446 0.6382 -0.9776 0.9701 -1.45859 1.4534 -3.01009 3.0417 -4.41039 4.7344 -2.75676 3.3324 -5.20799 7.3964 -4.94781 12.0344 0.11387 2.03 1.00687 4.0334 2.31071 5.5636 1.30154 1.5274 3.18161 2.7722 5.39774 2.9347 3.20615 0.2351 7.97705 0.4588 14.52265 0.4588 6.5454 0 11.3164 -0.2237 14.5226 -0.4588 2.2162 -0.1625 4.0963 -1.4073 5.3978 -2.9349 1.3039 -1.5302 2.1969 -3.5336 2.3107 -5.5637 0.26 -4.6379 -2.1912 -8.7018 -4.9479 -12.0341 -1.4003 -1.6927 -2.9517 -3.281 -4.4102 -4.7344 -0.3328 -0.3316 -0.6588 -0.6544 -0.9769 -0.9693l-0.0007 -0.0007 -0.0002 -0.0002c-1.0886 -1.0777 -2.085 -2.0642 -2.9467 -3.0035 -0.0046 -0.014 -0.0101 -0.032 -0.0161 -0.0544 -0.0407 -0.1518 -0.0781 -0.4032 -0.0868 -0.7718 -0.0172 -0.7393 0.0851 -1.6893 0.2636 -2.7164 0.3238 -1.8629 0.8467 -3.6994 1.0617 -4.41786l1.6793 -2.29569c1.6804 -2.29724 0.4307 -5.69575 -2.5969 -6.04273C31.0999 1.00473 27.9267 0.75 24.0001 0.75Zm-8.9639 16.8413 0.002 -0.0042c-0.0013 0.0028 -0.002 0.0042 -0.002 0.0042Zm17.9279 0s-0.0007 -0.0013 -0.002 -0.0042l0.002 0.0042ZM17.1608 7.36911l-1.5975 -2.1839c2.0135 -0.21889 4.8988 -0.43521 8.4368 -0.43521 3.538 0 6.4234 0.21633 8.437 0.43522l-1.5975 2.18389c-0.1844 0.25198 -0.339 0.54311 -0.4416 0.87855 -0.182 0.59493 -0.8324 2.78954 -1.2296 5.07534 -0.1973 1.135 -0.3477 2.3777 -0.3216 3.4947 0.0131 0.5596 0.0714 1.1522 0.2222 1.7144 0.1444 0.5384 0.4076 1.1764 0.9188 1.708 0.9376 1.0229 2.0326 2.1068 3.139 3.2019l0.0003 0.0003c0.3076 0.3045 0.6162 0.6099 0.9225 0.9152 1.443 1.4379 2.8804 2.9139 4.1516 4.4506 2.5864 3.1264 4.2089 6.1817 4.0363 9.2606 -0.059 1.0512 -0.5515 2.2426 -1.3616 3.1934 -0.8125 0.9535 -1.7749 1.476 -2.6457 1.5398 -3.1024 0.2275 -7.7756 0.4481 -14.2301 0.4481 -6.4547 0 -11.1278 -0.2206 -14.23019 -0.4481 -0.87071 -0.0638 -1.83314 -0.5862 -2.64558 -1.5397 -0.81016 -0.9508 -1.30264 -2.1421 -1.36161 -3.1933C5.59 34.99 7.21251 31.9346 9.79888 28.8082c1.27122 -1.5367 2.70872 -3.0127 4.15172 -4.4507 0.3061 -0.305 0.6144 -0.6101 0.9218 -0.9144l0.0011 -0.0011c1.1064 -1.0952 2.2014 -2.179 3.139 -3.2019 0.5113 -0.5316 0.7745 -1.1696 0.9188 -1.708 0.1508 -0.5622 0.2091 -1.1548 0.2222 -1.7144 0.0261 -1.1169 -0.1243 -2.3597 -0.3215 -3.4947 -0.3972 -2.2858 -1.0477 -4.48041 -1.2296 -5.07534 -0.1027 -0.33544 -0.2573 -0.62657 -0.4416 -0.87855ZM30.1086 23.4267c-0.8689 -0.8883 -2.2934 -0.9041 -3.1818 -0.0352 -0.8884 0.8689 -0.9041 2.2934 -0.0352 3.1818 2.4963 2.5522 4.759 5.3076 6.8433 8.3108 0.7085 1.0208 2.1105 1.274 3.1313 0.5655 1.0209 -0.7085 1.2741 -2.1104 0.5656 -3.1313 -2.2208 -3.1998 -4.6427 -6.1511 -7.3232 -8.8916Z" clip-rule="evenodd" stroke-width="1"></path>
  </g>
</svg>