<svg xmlns="http://www.w3.org/2000/svg" fill="none" viewBox="0 0 48 48" id="Global-Warming-2--Streamline-Plump">
  <desc>
    Global Warming 2 Streamline Icon: https://streamlinehq.com
  </desc>
  <g id="global-warming-2--nature-environment-earth-planet-hot-thermometer-warm">
    <path id="Union" fill="#fddc5c" d="M5.4957 28.5606c-2.4206 1.8171 -3.9865 4.7111 -3.9865 7.9708 0 5.5009 4.4595 9.9604 9.9605 9.9604 5.5009 0 9.9604 -4.4595 9.9604 -9.9604 0 -3.2597 -1.5659 -6.1537 -3.9865 -7.9708 0.0015 -0.4835 0.0024 -0.9806 0.0024 -1.4916 0 -5.4983 -0.0917 -9.3816 -0.2032 -12.0715 -0.1462 -3.5245 -2.2456 -6.3554 -5.7731 -6.3554 -3.5275 0 -5.627 2.8309 -5.7731 6.3554 -0.1115 2.6899 -0.2032 6.5732 -0.2032 12.0715 0 0.511 0.0008 1.0081 0.0023 1.4916Z" stroke-width="1"></path>
    <path id="Subtract" fill="#fddc5c" fill-rule="evenodd" d="M26.4415 40.5788c10.505 0 19.0212 -8.5161 19.0212 -19.0212S36.9465 2.5364 26.4415 2.5364c-3.8437 0 -7.421 1.14 -10.4124 3.1003 1.0348 0.55 1.9506 1.2899 2.7179 2.1852 1.6975 1.9807 2.5015 4.5101 2.6049 7.0053 0.112 2.7 0.2028 6.5337 0.2066 11.8927 2.4611 2.5311 3.9843 5.9944 3.9843 9.8115 0 1.3864 -0.2005 2.7259 -0.574 3.9913 0.486 0.0372 0.9771 0.0561 1.4727 0.0561Z" clip-rule="evenodd" stroke-width="1"></path>
    <path id="Union_2" fill="#0c098c" fill-rule="evenodd" d="M26.4414 38.5224c-0.3473 0 -0.692 -0.0103 -1.0341 -0.0309 -0.198 1.4212 -0.6083 2.7745 -1.1979 4.0268 0.7334 0.0773 1.4781 0.1168 2.232 0.1168 11.6408 0 21.0775 -9.4368 21.0775 -21.0775C47.5189 9.9167 38.0822 0.48 26.4414 0.48c-4.7916 0 -9.2099 1.5989 -12.7502 4.2923 2.0174 0.4546 3.7513 1.5275 5.0557 3.0496 1.6975 1.9807 2.5015 4.5101 2.6049 7.0052 0.015 0.3602 0.0295 0.7406 0.0436 1.1422 0.0859 0.0249 0.1781 0.0272 0.2671 0.0051 1.0979 -0.2732 2.2194 -0.3799 2.7275 -0.4166 0.192 -0.0138 0.4204 -0.0326 0.6543 -0.0919 0.6998 -0.1768 2.4053 -0.7581 4.1253 -2.4832 0.8494 -0.8518 1.2455 -2.0065 1.2849 -3.1544 0.0399 -1.1591 0.0516 -2.8528 -0.0821 -4.7779 7.4739 1.7732 13.0338 8.4909 13.0338 16.5072 0 0.5318 -0.0244 1.0581 -0.0723 1.5775 -3.7863 -0.7112 -7.414 -1.1984 -9.7127 -1.4747 -1.693 -0.2036 -3.5804 0.1007 -4.8475 1.4454 -0.4699 0.4987 -0.8657 1.0211 -1.1986 1.5385 -1.6885 2.6252 -0.2693 5.7306 1.9992 7.48l1.953 1.5061c0.5598 0.4316 0.8993 1.1002 0.9401 1.822 0.0295 0.523 0.0739 1.1736 0.1403 1.9146 -1.9111 0.746 -3.9909 1.1555 -6.1663 1.1555ZM6.5344 9.8291C7.713 8.4538 9.4045 7.614 11.4697 7.614s3.7566 0.8398 4.9352 2.2151c1.1624 1.3562 1.7844 3.1801 1.8652 5.1257 0.1122 2.7071 0.204 6.6049 0.204 12.1142 0 0.3374 -0.0004 0.6688 -0.001 0.9943 2.4327 2.0141 3.9852 5.0599 3.9852 8.4681 0 6.0688 -4.9198 10.9886 -10.9886 10.9886C5.4008 47.52 0.4811 42.6002 0.4811 36.5314c0 -3.4082 1.5525 -6.454 3.9852 -8.4681 -0.0007 -0.3255 -0.0011 -0.6569 -0.0011 -0.9943 0 -5.5093 0.0919 -9.4071 0.2041 -12.1142 0.0807 -1.9456 0.7028 -3.7694 1.8651 -5.1257Zm4.9353 3.2471c0.8517 0 1.5423 0.6904 1.5423 1.5422v17.6861c1.7246 0.6294 2.956 2.2844 2.956 4.2269 0 2.4843 -2.014 4.4983 -4.4983 4.4983 -2.4844 0 -4.4983 -2.014 -4.4983 -4.4983 0 -1.9425 1.2313 -3.5975 2.956 -4.2269V14.6184c0 -0.8518 0.6905 -1.5422 1.5423 -1.5422Z" clip-rule="evenodd" stroke-width="1"></path>
  </g>
</svg>