<svg xmlns="http://www.w3.org/2000/svg" fill="none" viewBox="0 0 14 14" id="Broken-Link-2--Streamline-Core-Remix">
  <desc>
    Broken Link 2 Streamline Icon: https://streamlinehq.com
  </desc>
  <g id="Free Remix/Interface Essential/broken-link-2--break-broken-hyperlink-link-remove-unlink-chain">
    <path id="Union" fill="#000000" fill-rule="evenodd" d="M0.182747 0.182565c0.244078 -0.2440775 0.639806 -0.2440785 0.883883 -0.000001L6.73501 5.85095l1.55806 -1.55806c0.39053 -0.39053 1.02369 -0.39053 1.41422 0 0.39051 0.39052 0.39051 1.02369 0 1.41421L8.14923 7.26516l5.66867 5.66874c0.2441 0.244 0.2441 0.6398 0 0.8838 -0.2441 0.2441 -0.6398 0.2441 -0.8839 0L0.182748 1.06645C-0.0613293 0.822371 -0.0613302 0.426643 0.182747 0.182565ZM7.10277 12.7814c-1.62479 1.6248 -4.2591 1.6248 -5.88389 0s-1.624788 -4.25909 0 -5.88388l1 -1c0.24408 -0.24408 0.63981 -0.24408 0.88389 0 0.24407 0.24408 0.24407 0.6398 0 0.88388l-1.00001 1c-1.13663 1.13664 -1.13663 2.9795 0 4.1161 1.13664 1.1367 2.97949 1.1367 4.11612 0l1 -1c0.24408 -0.2441 0.63981 -0.2441 0.88388 0 0.24408 0.2441 0.24408 0.6398 0 0.8839l-0.99999 1ZM12.7815 1.21859c-1.6248 -1.624794 -4.25912 -1.624791 -5.88391 0l-1.25 1.25c-0.24408 0.24407 -0.24408 0.6398 0 0.88388 0.24408 0.24408 0.63981 0.24408 0.88389 0l1.24999 -1.25c1.13664 -1.136633 2.97953 -1.136634 4.11613 0 1.1366 1.13663 1.1366 2.97948 0 4.11612l-1.25 1.25c-0.2441 0.24407 -0.2441 0.6398 0 0.88388 0.2441 0.24408 0.6398 0.24408 0.8839 0l1.25 -1.25c1.6248 -1.62479 1.6248 -4.25909 0 -5.88388ZM4.29323 8.29288c-0.39053 0.39052 -0.39054 1.02368 -0.00002 1.41421 0.39052 0.39051 1.02369 0.39051 1.41421 0.00002l0.74107 -0.74104 -1.4142 -1.41423 -0.74106 0.74104Z" clip-rule="evenodd" stroke-width="1"></path>
  </g>
</svg>