<svg xmlns="http://www.w3.org/2000/svg" fill="none" viewBox="0 0 14 14" id="Cloud--Streamline-Core-Remix">
  <desc>
    Cloud Streamline Icon: https://streamlinehq.com
  </desc>
  <g id="Free Remix/Interface Essential/cloud--cloud-meteorology-cloudy-overcast-cover-weather">
    <path id="Vector" stroke="#000000" stroke-linecap="round" stroke-linejoin="round" stroke-width="1.25" d="M10.9237 6.50975c-0.5305 0.0007 -1.04656 0.17273 -1.47137 0.49046 0 -0.87303 -0.25889 -1.72647 -0.74392 -2.45237 -0.48504 -0.7259 -1.17443 -1.29167 -1.98101 -1.62577 -0.80658 -0.3341 -1.69412 -0.42151 -2.55038 -0.25119 -0.85626 0.17032 -1.64279 0.59073 -2.26012 1.20806C1.29957 4.49627 0.879163 5.28279 0.708842 6.13905c-0.170321 0.85627 -0.082906 1.7438 0.251191 2.55038 0.334097 0.80658 0.899867 1.49597 1.625777 1.98097 0.7259 0.4851 1.57933 0.744 2.45237 0.744h5.88552c0.6504 0 1.2742 -0.2584 1.7341 -0.7183 0.4598 -0.4599 0.7182 -1.08365 0.7182 -1.73404 0 -0.6504 -0.2584 -1.27415 -0.7182 -1.73405 -0.4599 -0.45989 -1.0837 -0.71826 -1.7341 -0.71826v0Z"></path>
  </g>
</svg>