<svg xmlns="http://www.w3.org/2000/svg" fill="none" viewBox="0 0 14 14" id="Cog-1--Streamline-Core-Remix">
  <desc>
    Cog 1 Streamline Icon: https://streamlinehq.com
  </desc>
  <g id="Free Remix/Interface Essential/cog-1--work-loading-cog-gear-settings-machine">
    <path id="Union" fill="#000000" fill-rule="evenodd" d="m6.5979 -0.000976562 -0.00184 0.000005483C6.27256 -0.0000154972 5.95689 0.0986183 5.69039 0.282012c-0.26638 0.183318 -0.47122 0.442783 -0.5877 0.744438l-0.00014 0.00037 -0.34101 0.88026 -1.06947 0.607 -0.94323 -0.14388 0.00002 -0.00009 -0.0102 -0.00138c-0.31554 -0.04283 -0.63669 0.00911 -0.92263 0.14923 -0.28595 0.14011 -0.52379 0.36207 -0.68329 0.63767l-0.00001 0 -0.00171 0.00298 -0.390693 0.68372c-0.16309 0.27913 -0.238155 0.60102 -0.21532 0.92356 0.022936 0.32398 0.14357 0.63339 0.34598 0.8874l-0.000009 0.00001 0.00229 0.00283 0.597202 0.74053V7.608l-0.58148 0.74079c-0.201436 0.25362 -0.321489 0.56225 -0.344365 0.88536 -0.022835 0.32255 0.052233 0.64445 0.215328 0.92355l0.390687 0.6837 -0.00001 0 0.00172 0.003c0.15951 0.2756 0.39735 0.4976 0.6833 0.6377 0.28594 0.1401 0.60709 0.192 0.92263 0.1492l0.00001 0.0001 0.01017 -0.0016 0.9412 -0.1435 1.05114 0.6047 0.34175 0.8822 0.00006 0.0002c0.11647 0.3017 0.32134 0.5613 0.58778 0.7446 0.2665 0.1834 0.58217 0.2821 0.90567 0.283l0.00184 0h0.82398l0.00184 0c0.3235 -0.0009 0.63917 -0.0996 0.90566 -0.283 0.26642 -0.1833 0.47127 -0.4428 0.58775 -0.7445l0.0001 -0.0003 0.34175 -0.8822 1.05112 -0.6047 0.9412 0.1435 0 0.0001 0.0102 0.0014c0.3155 0.0428 0.6367 -0.0091 0.9226 -0.1492 0.286 -0.1401 0.5238 -0.3621 0.6833 -0.6377l0.0017 -0.003 0.3907 -0.6836c0.1631 -0.27919 0.2382 -0.60109 0.2154 -0.92365 -0.023 -0.32398 -0.1436 -0.63339 -0.346 -0.88739l0 -0.00001 -0.0023 -0.00284 -0.5972 -0.74053V6.39205l0.5815 -0.74079c0.2014 -0.25362 0.3215 -0.56225 0.3443 -0.88537 0.0229 -0.32254 -0.0522 -0.64443 -0.2153 -0.92356l-0.3907 -0.68372 -0.0017 -0.00298c-0.1595 -0.2756 -0.3973 -0.49756 -0.6833 -0.63767 -0.2859 -0.14012 -0.6071 -0.19206 -0.9226 -0.14923l0 -0.00009 -0.0102 0.00156 -0.9412 0.14357L9.23936 1.909l-0.34175 -0.88218 -0.00009 -0.00025C8.78104 0.724866 8.57619 0.465355 8.30977 0.282012c-0.2665 -0.1833937 -0.58217 -0.2820274972 -0.90567 -0.282985821h-0.00184L6.5979 -0.000976562ZM6.59905 1.24903h0.80206c0.07145 0.00035 0.14115 0.0222 0.20002 0.06271 0.05907 0.04065 0.10448 0.09818 0.13029 0.16507l0.0003 0.00078 0.4218 1.08882c0.0516 0.13321 0.14728 0.24472 0.27111 0.31597l1.43214 0.82397c0.12278 0.07064 0.26593 0.09748 0.40593 0.07612l1.1512 -0.1756c0.0686 -0.00856 0.1384 0.00309 0.2006 0.03357 0.063 0.03087 0.1154 0.07966 0.1508 0.14023l0.0006 0.0011 0.3907 0.68366 -0.0001 0.00003 0.0039 0.00664c0.0365 0.06205 0.0533 0.13371 0.0483 0.20551 -0.0051 0.07181 -0.0319 0.14038 -0.0767 0.19668l-0.0029 0.00359 -0.716 0.91226c-0.0864 0.11008 -0.1334 0.24597 -0.1334 0.38591V7.824c0 0.14276 0.0489 0.28122 0.1385 0.39234l0.7334 0.90941 0.0009 0.00108c0.0443 0.0561 0.0707 0.12425 0.0758 0.1956 0.0051 0.0718 -0.0118 0.14346 -0.0482 0.20552l-0.0001 -0.00003 -0.0038 0.00669 -0.3906 0.68369 -0.0007 0.0011c-0.0353 0.0606 -0.0878 0.1093 -0.1508 0.1402 -0.0622 0.0305 -0.1319 0.0421 -0.2006 0.0336l-1.1512 -0.1756c-0.14 -0.0214 -0.28313 0.0055 -0.40591 0.0761l-1.43214 0.824c-0.12383 0.0712 -0.21951 0.1827 -0.27112 0.3159l-0.42179 1.0889 -0.0003 0.0007c-0.02581 0.0669 -0.07122 0.1245 -0.13029 0.1651 -0.05886 0.0405 -0.12855 0.0624 -0.2 0.0627h-0.82172c-0.07145 -0.0003 -0.14114 -0.0222 -0.2 -0.0627 -0.05907 -0.0406 -0.10448 -0.0982 -0.13029 -0.1651l-0.0003 -0.0007 -0.42179 -1.0889c-0.05161 -0.1332 -0.14729 -0.2447 -0.27112 -0.3159l-1.43215 -0.824c-0.12277 -0.0706 -0.2659 -0.0975 -0.40593 -0.0761l-1.15115 0.1756c-0.06869 0.0085 -0.13842 -0.0031 -0.20064 -0.0336 -0.06298 -0.0309 -0.11544 -0.0796 -0.15078 -0.1402l-0.00065 -0.0011 -0.39066 -0.68369 0.00004 -0.00002 -0.0039 -0.00664c-0.03648 -0.06206 -0.05329 -0.13372 -0.04821 -0.20552 0.00509 -0.07181 0.03182 -0.14038 0.07668 -0.19668l0.00002 0.00001 0.00283 -0.0036 0.71607 -0.91226c0.0864 -0.11008 0.13337 -0.24597 0.13337 -0.3859V6.17605c0 -0.14276 -0.04888 -0.28122 -0.13849 -0.39235l-0.73426 -0.91048c-0.04435 -0.05609 -0.07078 -0.12426 -0.07583 -0.19561 -0.00509 -0.0718 0.01172 -0.14346 0.0482 -0.20551l0.00004 0.00002 0.00382 -0.00669 0.39131 -0.68478c0.03535 -0.06056 0.0878 -0.10934 0.15079 -0.14021 0.06221 -0.03048 0.13194 -0.04213 0.20064 -0.03357l1.15114 0.1756c0.13879 0.02117 0.28066 -0.005 0.40276 -0.0743l1.45176 -0.82398c0.12534 -0.07113 0.22224 -0.1834 0.2743 -0.31778l0.42179 -1.08882 0.0003 -0.00078c0.02581 -0.06689 0.07122 -0.12442 0.13029 -0.16507 0.05887 -0.04051 0.12857 -0.06236 0.20002 -0.06271ZM4.75008 7c0 0.44501 0.13196 0.88002 0.3792 1.25003 0.24723 0.37002 0.59863 0.6584 1.00977 0.8287 0.41113 0.1703 0.86353 0.21486 1.29999 0.12804 0.43645 -0.08682 0.83737 -0.30111 1.15203 -0.61578 0.31467 -0.31467 0.52896 -0.71558 0.61578 -1.15203 0.08682 -0.43646 0.04226 -0.88886 -0.12804 -1.3 -0.17029 -0.41113 -0.45868 -0.76253 -0.82869 -1.00976 -0.37001 -0.24724 -0.80503 -0.3792 -1.25004 -0.3792 -0.59673 0 -1.16903 0.23706 -1.59099 0.65901 -0.42195 0.42196 -0.65901 0.99426 -0.65901 1.59099Z" clip-rule="evenodd" stroke-width="1"></path>
  </g>
</svg>