<svg xmlns="http://www.w3.org/2000/svg" fill="none" viewBox="0 0 14 14" id="Dark-Dislay-Mode--Streamline-Core-Remix">
  <desc>
    Dark Dislay Mode Streamline Icon: https://streamlinehq.com
  </desc>
  <g id="Free Remix/Interface Essential/dark-dislay-mode">
    <path id="Union" fill="#000000" fill-rule="evenodd" d="M7.00018 0.000488281C3.13436 0.000488281 0.000488281 3.13436 0.000488281 7.00018c0 3.86582 3.133871719 6.99972 6.999691719 6.99972 3.86582 0 6.99972 -3.1339 6.99972 -6.99972S10.866 0.000488281 7.00018 0.000488281ZM1.25049 7.00018c0 -3.17547 2.57422 -5.74969 5.74969 -5.74969 3.17542 0 5.74972 2.57422 5.74972 5.74969 0 3.17552 -2.5743 5.74972 -5.74972 5.74972 -3.17547 0 -5.74969 -2.5742 -5.74969 -5.74972Zm5.75027 -0.0187c0 -1.35816 1.101 -2.45916 2.45916 -2.45916 0.25029 0 0.44144 -0.3009 0.25794 -0.47112 -0.71301 -0.66145 -1.66783 -1.06585 -2.7171 -1.06585 -2.207 0 -3.99612 1.78913 -3.99612 3.99613 0 2.20699 1.78912 3.99612 3.99612 3.99612 1.04927 0 2.00409 -0.4044 2.7171 -1.06585 0.1835 -0.17022 -0.00765 -0.47112 -0.25794 -0.47112 -1.35816 0 -2.45916 -1.101 -2.45916 -2.45915Z" clip-rule="evenodd" stroke-width="1"></path>
  </g>
</svg>