<svg xmlns="http://www.w3.org/2000/svg" fill="none" viewBox="0 0 14 14" id="Dashboard-Circle--Streamline-Core-Remix">
  <desc>
    Dashboard Circle Streamline Icon: https://streamlinehq.com
  </desc>
  <g id="Free Remix/Interface Essential/dashboard-circle--app-application-dashboard-home-layout-circle">
    <path id="Union" fill="#000000" fill-rule="evenodd" d="M0.125 3.25C0.125 1.52411 1.52411 0.125 3.25 0.125S6.375 1.52411 6.375 3.25 4.97589 6.375 3.25 6.375 0.125 4.97589 0.125 3.25ZM10.75 0.125c-1.72589 0 -3.125 1.39911 -3.125 3.125s1.39911 3.125 3.125 3.125c1.7259 0 3.125 -1.39911 3.125 -3.125S12.4759 0.125 10.75 0.125ZM8.875 3.25c0 -1.03553 0.83947 -1.875 1.875 -1.875 1.0355 0 1.875 0.83947 1.875 1.875s-0.8395 1.875 -1.875 1.875c-1.03553 0 -1.875 -0.83947 -1.875 -1.875Zm-8.75 7.5c0 -1.72589 1.39911 -3.125 3.125 -3.125s3.125 1.39911 3.125 3.125c0 1.7259 -1.39911 3.125 -3.125 3.125S0.125 12.4759 0.125 10.75ZM3.25 8.875c-1.03553 0 -1.875 0.83947 -1.875 1.875 0 1.0355 0.83947 1.875 1.875 1.875s1.875 -0.8395 1.875 -1.875c0 -1.03553 -0.83947 -1.875 -1.875 -1.875Zm7.5 -1.25c-1.72589 0 -3.125 1.39911 -3.125 3.125 0 1.7259 1.39911 3.125 3.125 3.125 1.7259 0 3.125 -1.3991 3.125 -3.125 0 -1.72589 -1.3991 -3.125 -3.125 -3.125Z" clip-rule="evenodd" stroke-width="1"></path>
  </g>
</svg>