<svg xmlns="http://www.w3.org/2000/svg" fill="none" viewBox="0 0 14 14" id="Hierarchy-14--Streamline-Core-Remix">
  <desc>
    Hierarchy 14 Streamline Icon: https://streamlinehq.com
  </desc>
  <g id="Free Remix/Interface Essential/hierarchy-14--node-organization-links-structure-link-nodes-network-hierarchy">
    <path id="Union" fill="#000000" fill-rule="evenodd" d="M3.625 1.5c0 -0.62132 0.50368 -1.125 1.125 -1.125h4.5c0.62132 0 1.125 0.50368 1.125 1.125v4c0 0.62132 -0.50368 1.125 -1.125 1.125H7.625v0.75h3.25c0.8975 0 1.625 0.72754 1.625 1.625v0.375h0.375c0.6213 0 1.125 0.50368 1.125 1.125v2c0 0.6213 -0.5037 1.125 -1.125 1.125h-2c-0.6213 0 -1.125 -0.5037 -1.125 -1.125v-2c0 -0.62132 0.5037 -1.125 1.125 -1.125h0.375V9c0 -0.20711 -0.1679 -0.375 -0.375 -0.375h-3.25v0.75H8c0.62132 0 1.125 0.50368 1.125 1.125v2c0 0.6213 -0.50368 1.125 -1.125 1.125H6c-0.62132 0 -1.125 -0.5037 -1.125 -1.125v-2c0 -0.62132 0.50368 -1.125 1.125 -1.125h0.375v-0.75h-3.25c-0.20711 0 -0.375 0.16789 -0.375 0.375v0.375h0.375c0.62132 0 1.125 0.50368 1.125 1.125v2c0 0.6213 -0.50368 1.125 -1.125 1.125h-2C0.50368 13.625 0 13.1213 0 12.5v-2c0 -0.62132 0.50368 -1.125 1.125 -1.125H1.5V9c0 -0.89746 0.72754 -1.625 1.625 -1.625h3.25v-0.75H4.75c-0.62132 0 -1.125 -0.50368 -1.125 -1.125v-4Zm8.25 9.125H11v1.75h1.75v-1.75h-0.875Zm-5.75 0h1.75v1.75h-1.75v-1.75Zm-4 0H1.25v1.75H3v-1.75h-0.875Z" clip-rule="evenodd" stroke-width="1"></path>
  </g>
</svg>