<svg xmlns="http://www.w3.org/2000/svg" fill="none" viewBox="0 0 14 14" id="Hierarchy-13--Streamline-Core-Remix">
  <desc>
    Hierarchy 13 Streamline Icon: https://streamlinehq.com
  </desc>
  <g id="Free Remix/Interface Essential/hierarchy-13--node-organization-links-structure-link-nodes-network-hierarchy">
    <path id="Union" fill="#000000" fill-rule="evenodd" d="M10.375 0.375C9.75368 0.375 9.25 0.87868 9.25 1.5V4c0 0.61809 0.49846 1.11976 1.1153 1.12496L9.82684 6.875H8.5c-0.18526 0 -0.36006 0.04478 -0.51417 0.12411L6.625 5.8857V3.5c0 -0.62132 -0.50368 -1.125 -1.125 -1.125H3c-0.62132 0 -1.125 0.50368 -1.125 1.125V6c0 0.57655 0.43371 1.05181 0.99267 1.1173L2.32684 8.875H1.125C0.50368 8.875 0 9.37868 0 10v2.5c0 0.6213 0.50368 1.125 1.125 1.125h2.5c0.62132 0 1.125 -0.5037 1.125 -1.125V10c0 -0.6181 -0.49847 -1.11977 -1.11534 -1.12496L4.17314 7.125H5.5c0.18523 0 0.36 -0.04476 0.51409 -0.12406L7.375 8.11441V10.5c0 0.6213 0.50368 1.125 1.125 1.125H11c0.6213 0 1.125 -0.5037 1.125 -1.125V8c0 -0.57656 -0.4337 -1.05182 -0.9927 -1.1173l0.5408 -1.7577h1.2019C13.4963 5.125 14 4.62132 14 4V1.5c0 -0.62132 -0.5037 -1.125 -1.125 -1.125h-2.5Zm-0.1007 7.75c0.0096 0.00022 0.0192 0.00022 0.0287 0h0.572v2.25h-2.25v-2.25h1.6493Zm-7.4713 2c-0.00953 0.0002 -0.0191 0.0002 -0.02868 0H1.25v2.25H3.5v-2.25h-0.697Z" clip-rule="evenodd" stroke-width="1"></path>
  </g>
</svg>