<svg xmlns="http://www.w3.org/2000/svg" fill="none" viewBox="0 0 14 14" id="Keyhole-Lock-Circle--Streamline-Core-Remix">
  <desc>
    Keyhole Lock Circle Streamline Icon: https://streamlinehq.com
  </desc>
  <g id="Free Remix/Interface Essential/keyhole-lock-circle--circle-frame-key-keyhole-lock-locked-secure-security">
    <path id="Union" fill="#000000" fill-rule="evenodd" d="M7.00018 0.000488281C3.13436 0.000488281 0.000488281 3.13436 0.000488281 7.00018c0 3.86582 3.133871719 6.99972 6.999691719 6.99972 3.86582 0 6.99972 -3.1339 6.99972 -6.99972S10.866 0.000488281 7.00018 0.000488281ZM1.25049 7.00018c0 -3.17547 2.57422 -5.74969 5.74969 -5.74969 3.17542 0 5.74972 2.57422 5.74972 5.74969 0 3.17552 -2.5743 5.74972 -5.74972 5.74972 -3.17547 0 -5.74969 -2.5742 -5.74969 -5.74972ZM7 4c-1.10457 0 -2 0.89543 -2 2 0 0.79078 0.45894 1.47437 1.125 1.79894V9.5c0 0.48325 0.39175 0.875 0.875 0.875s0.875 -0.39175 0.875 -0.875V7.79894C8.54106 7.47437 9 6.79078 9 6c0 -1.10457 -0.89543 -2 -2 -2Z" clip-rule="evenodd" stroke-width="1"></path>
  </g>
</svg>