<svg xmlns="http://www.w3.org/2000/svg" fill="none" viewBox="0 0 14 14" id="Layers-2--Streamline-Core-Remix">
  <desc>
    Layers 2 Streamline Icon: https://streamlinehq.com
  </desc>
  <g id="Free Remix/Interface Essential/layers-2--design-layer-layers-pile-stack-align">
    <path id="Union" fill="#000000" fill-rule="evenodd" d="M6.5097 0.980225c-0.88691 0 -1.60589 0.718985 -1.60589 1.605885v3.92356c0 0.8869 0.71898 1.60588 1.60589 1.60588h5.8853c0.8869 0 1.6059 -0.71898 1.6059 -1.60588V2.58611c0 -0.8869 -0.719 -1.605885 -1.6059 -1.605885H6.5097ZM3.07666 3.92261c0.34518 0 0.625 0.27982 0.625 0.625V8.9616c0 0.09439 0.0375 0.18491 0.10424 0.25166 0.06674 0.06674 0.15726 0.10423 0.25165 0.10423h6.37575c0.3452 0 0.625 0.27982 0.625 0.625 0 0.34521 -0.2798 0.62501 -0.625 0.62501H4.05755c-0.42591 0 -0.83437 -0.1692 -1.13554 -0.4704 -0.30116 -0.30112 -0.47035 -0.70959 -0.47035 -1.1355V4.54761c0 -0.34518 0.27982 -0.625 0.625 -0.625ZM1.24951 7c0 -0.34518 -0.27982 -0.625 -0.624998 -0.625 -0.345178 0 -0.625000281 0.27982 -0.625000281 0.625v4.414c0 0.4259 0.169191281 0.8344 0.470354281 1.1355 0.301162 0.3012 0.709624 0.4704 1.135534 0.4704h6.37577c0.34518 0 0.625 -0.2798 0.625 -0.625s-0.27982 -0.625 -0.625 -0.625H1.6054c-0.09439 0 -0.18491 -0.0375 -0.25165 -0.1043 -0.06674 -0.0667 -0.10424 -0.1572 -0.10424 -0.2516V7Z" clip-rule="evenodd" stroke-width="1"></path>
  </g>
</svg>