<svg xmlns="http://www.w3.org/2000/svg" fill="none" viewBox="0 0 14 14" id="Like-1--Streamline-Core-Remix">
  <desc>
    Like 1 Streamline Icon: https://streamlinehq.com
  </desc>
  <g id="Free Remix/Interface Essential/like-1--reward-social-up-rating-media-like-thumb-hand">
    <path id="Union" fill="#000000" fill-rule="evenodd" d="M5.06557 13.125h6.38273c0.4281 -0.0005 0.8411 -0.1573 1.1617 -0.441 0.3178 -0.2813 0.5229 -0.6681 0.5776 -1.0888l0.7924 -5.1108 0.0004 -0.00303c0.037 -0.24647 0.0214 -0.49797 -0.0458 -0.73797s-0.1844 -0.46306 -0.3439 -0.65452c-0.1596 -0.19146 -0.3578 -0.34698 -0.5818 -0.45633 -0.2239 -0.10935 -0.4685 -0.17007 -0.7176 -0.17815 -0.0068 -0.00021 -0.0135 -0.00032 -0.0203 -0.00032H8.66572V2.18684H8.6657c-0.00193 -0.23071 -0.05009 -0.45869 -0.14163 -0.67047 -0.09154 -0.21179 -0.22461 -0.40307 -0.39134 -0.562547C7.96601 0.794346 7.769 0.669908 7.55336 0.587865 7.34219 0.507523 7.11735 0.469434 6.8916 0.475704c-0.28974 -0.00044 -0.57492 0.072908 -0.82859 0.213238 -0.25724 0.142301 -0.47334 0.348638 -0.62736 0.598998l-0.00117 0.0019 -2.39945 3.85479H0.99605c-0.264168 0 -0.517518 0.10494 -0.704314 0.29174C0.104941 5.62317 0 5.87651 0 6.14068v5.26802c0 0.2642 0.104941 0.5176 0.291736 0.7043 0.186796 0.1868 0.440145 0.2918 0.704314 0.2918h2.00422l0.17744 0.0887 0.71431 0.3572 0.0007 0.0003c0.36424 0.1816 0.76589 0.2754 1.17285 0.274Zm-0.61493 -1.3926 -0.00031 -0.0001 -0.36794 -0.184 0.00256 -5.72497 2.41288 -3.87641 0.00216 -0.00346 -0.00001 -0.00001c0.04121 -0.06719 0.09913 -0.12256 0.16811 -0.16072 0.06897 -0.03815 0.14665 -0.05779 0.22547 -0.05701 0.0096 0.0001 0.0192 -0.00003 0.02879 -0.00037 0.06361 -0.0023 0.12703 0.00818 0.18652 0.03082 0.05949 0.02263 0.11384 0.05696 0.15984 0.10096 0.04599 0.04399 0.0827 0.09676 0.10796 0.15519 0.02498 0.05779 0.03825 0.11995 0.03905 0.18289v2.88387c0 0.34517 0.27982 0.625 0.625 0.625h4.21818c0.07 0.00337 0.1385 0.02096 0.2015 0.05171 0.0655 0.03195 0.1234 0.07739 0.17 0.13332 0.0466 0.05594 0.0808 0.1211 0.1005 0.19122 0.0195 0.0697 0.0241 0.14272 0.0136 0.21432l-0.0002 0.00128 -0.7933 5.11617 -0.0026 0.019c-0.0151 0.1224 -0.0745 0.2351 -0.1668 0.3168 -0.0923 0.0817 -0.2112 0.1269 -0.3344 0.1271H5.06197c-0.21211 0.0008 -0.42147 -0.048 -0.61133 -0.1426Z" clip-rule="evenodd" stroke-width="1"></path>
  </g>
</svg>