<svg xmlns="http://www.w3.org/2000/svg" fill="none" viewBox="0 0 14 14" id="Line-Arrow-Rotate-Right-1--Streamline-Core-Remix">
  <desc>
    Line Arrow Rotate Right 1 Streamline Icon: https://streamlinehq.com
  </desc>
  <g id="Free Remix/Interface Essential/line-arrow-rotate-right-1">
    <path id="Union" fill="#000000" fill-rule="evenodd" d="M8.7218 1.19194c-0.24408 -0.244076 -0.24408 -0.639804 0 -0.883882 0.24408 -0.2440774 0.63981 -0.2440774 0.88389 0L12.0095 2.7119c0.0763 0.07628 0.1287 0.16736 0.1573 0.264 0.0086 0.02906 0.0151 0.05863 0.0194 0.08845 0.0271 0.18829 -0.0318 0.38657 -0.1767 0.53144L9.60569 5.99963c-0.24408 0.24408 -0.63981 0.24408 -0.88389 0 -0.24408 -0.24407 -0.24408 -0.6398 0 -0.88388l1.3369 -1.33694H7.00023c-2.4428 0 -4.42308 1.98028 -4.42308 4.42308 0 2.44281 1.98028 4.42311 4.42308 4.42311 2.44279 0 4.42307 -1.9803 4.42307 -4.42311 0 -0.34518 0.2798 -0.625 0.625 -0.625s0.625 0.27982 0.625 0.625c0 3.13311 -2.5399 5.67311 -5.67307 5.67311 -3.13316 0 -5.67308 -2.54 -5.67308 -5.67311 0 -3.13316 2.53992 -5.67308 5.67308 -5.67308h3.05847L8.7218 1.19194Z" clip-rule="evenodd" stroke-width="1"></path>
  </g>
</svg>