<svg xmlns="http://www.w3.org/2000/svg" fill="none" viewBox="0 0 14 14" id="Line-Arrow-Reload-Vertical-1--Streamline-Core-Remix">
  <desc>
    Line Arrow Reload Vertical 1 Streamline Icon: https://streamlinehq.com
  </desc>
  <g id="Free Remix/Interface Essential/line-arrow-reload-vertical-1--arrows-load-arrow-sync-square-loading-reload-synchronize">
    <path id="Union" fill="#000000" fill-rule="evenodd" d="M7.48517 0.06604c-0.34518 0 -0.625 0.279822 -0.625 0.625 0 0.34518 0.27982 0.625 0.625 0.625H9.8823c0.2071 0 0.375 0.16789 0.375 0.375V9.8588L8.89772 8.49922c-0.24408 -0.24408 -0.6398 -0.24408 -0.88388 0 -0.24408 0.24408 -0.24408 0.63981 0 0.88388l2.42146 2.4214c0.0296 0.0304 0.0623 0.0577 0.0976 0.0815 0.017 0.0115 0.0347 0.0222 0.0529 0.032 0.0882 0.0477 0.1892 0.0747 0.2965 0.0747 0.1079 0 0.2094 -0.0273 0.2979 -0.0754 0.0111 -0.006 0.022 -0.0123 0.0326 -0.019 0.0107 -0.0066 0.0211 -0.0136 0.0313 -0.0209 0.0073 -0.0052 0.0146 -0.0106 0.0217 -0.0161 0.0224 -0.0174 0.0436 -0.0363 0.0634 -0.0566l2.4216 -2.4216c0.244 -0.24407 0.244 -0.6398 0 -0.88388 -0.2441 -0.24408 -0.6398 -0.24408 -0.8839 0L11.5073 9.8588V1.69104c0 -0.897462 -0.7275 -1.625 -1.625 -1.625H7.48517Zm-4.8117 2.12625c0.00681 -0.00687 0.01378 -0.01359 0.02091 -0.02015 0.05383 -0.04957 0.11425 -0.08797 0.17828 -0.11519 0.07517 -0.03203 0.1579 -0.04975 0.24477 -0.04975 0.08317 0 0.16255 0.01625 0.23514 0.04574 0.07526 0.03051 0.14578 0.07628 0.20681 0.13732l2.42653 2.42652c0.24407 0.24408 0.24407 0.63981 0 0.88389 -0.24408 0.24407 -0.63981 0.24407 -0.88389 0L3.74243 4.14108v8.16782c0 0.2071 0.1679 0.375 0.375 0.375h2.39713c0.34518 0 0.625 0.2798 0.625 0.625s-0.27982 0.625 -0.625 0.625H4.11743c-0.89746 0 -1.625 -0.7275 -1.625 -1.625V4.14109L1.13286 5.50067c-0.244078 0.24407 -0.639806 0.24407 -0.883884 0 -0.24407745 -0.24408 -0.24407745 -0.63981 0 -0.88389L2.67347 2.19229Z" clip-rule="evenodd" stroke-width="1"></path>
  </g>
</svg>