<svg xmlns="http://www.w3.org/2000/svg" fill="none" viewBox="0 0 14 14" id="Lock-Rotation--Streamline-Core-Remix">
  <desc>
    Lock Rotation Streamline Icon: https://streamlinehq.com
  </desc>
  <g id="Free Remix/Interface Essential/lock-rotation">
    <path id="Union" fill="#000000" fill-rule="evenodd" d="M6.99961 1.24927c-3.17597 0 -5.75059 2.5746 -5.75059 5.75052 0 3.17591 2.57462 5.75051 5.75059 5.75051 2.71841 0 4.99769 -1.8868 5.59669 -4.42292 0.0794 -0.33593 0.416 -0.54393 0.752 -0.46458 0.3359 0.07936 0.5439 0.41601 0.4646 0.75195 -0.7294 3.08745 -3.5022 5.38555 -6.81329 5.38555 -3.86631 0 -7.000586562 -3.1342 -7.000586562 -7.00051C-0.000976562 3.1335 3.1333 -0.000732422 6.99961 -0.000732422c2.14693 0 4.06739 0.966347422 5.35119 2.486832422l0.5825 -0.5825c0.1787 -0.17875 0.4476 -0.23222 0.6811 -0.13548 0.2335 0.09673 0.3858 0.32463 0.3858 0.57742v2.20212c0 0.34518 -0.2798 0.625 -0.625 0.625h-0.4741c-0.0046 0.00011 -0.0092 0.00016 -0.0138 0.00017 -0.0049 0 -0.0099 -0.00005 -0.0148 -0.00017h-1.6994c-0.2528 0 -0.4807 -0.15227 -0.5775 -0.38582 -0.0967 -0.23355 -0.0432 -0.50237 0.1355 -0.68112l0.7321 -0.73206c-1.0548 -1.29671 -2.66294 -2.12439 -4.46359 -2.12439ZM6.99976 4.875c-0.48325 0 -0.875 0.39175 -0.875 0.875v0.5h1.75v-0.5c0 -0.48325 -0.39175 -0.875 -0.875 -0.875Zm-2.125 0.875v0.57269c-0.36648 0.14835 -0.625 0.50764 -0.625 0.92731v2c0 0.55228 0.44771 1 1 1h3.5c0.55228 0 1 -0.44772 1 -1v-2c0 -0.41967 -0.25853 -0.77896 -0.625 -0.92731V5.75c0 -1.1736 -0.9514 -2.125 -2.125 -2.125 -1.17361 0 -2.125 0.9514 -2.125 2.125Z" clip-rule="evenodd" stroke-width="1"></path>
  </g>
</svg>