<svg xmlns="http://www.w3.org/2000/svg" fill="none" viewBox="0 0 14 14" id="Ok-Hand--Streamline-Core-Remix">
  <desc>
    Ok Hand Streamline Icon: https://streamlinehq.com
  </desc>
  <g id="Free Remix/Interface Essential/ok-hand">
    <path id="Union" fill="#000000" fill-rule="evenodd" d="M7.93053 1.32238c-0.33807 -0.14086 -0.70287 -0.02823 -0.88824 0.24899l-0.00354 0.00523c-0.25895 0.38744 -0.57383 0.87811 -0.89843 1.42943 -0.02484 0.06589 -0.06051 0.12648 -0.10482 0.1796 -0.25225 0.43609 -0.50736 0.90573 -0.74394 1.38924 -0.58428 1.19407 -1.02157 2.40543 -1.07165 3.3817l-0.00058 0.00995c-0.02832 0.55425 -0.04619 1.08478 -0.0565 1.58154 -0.02246 1.08294 -0.00894 2.00414 0.01053 2.65924 0.01002 0.3374 0.02161 0.6039 0.03065 0.7854 0.00452 0.0907 0.00839 0.1601 0.01111 0.2064l0.00315 0.052 0.0008 0.0125 0.00019 0.0029 0.00003 0.0005 0.00001 0c0.02305 0.3444 -0.23744 0.6423 -0.58183 0.6654 -0.34441 0.0231 -0.64231 -0.2374 -0.66538 -0.5818l0.6236 -0.0418 -0.6236 0.0417 -0.00001 0 -0.00001 -0.0002 -0.00002 -0.0003 -0.00008 -0.0012 -0.00027 -0.0041 -0.00096 -0.0151 -0.00347 -0.0572c-0.00293 -0.0499 -0.00701 -0.123 -0.01171 -0.2176 -0.00942 -0.1891 -0.02136 -0.464 -0.03165 -0.8104 -0.01997 -0.6722 -0.03378 -1.6148 -0.01081 -2.72226 0.00256 -0.12359 0.00559 -0.24925 0.00911 -0.37684 -0.45953 -1.08461 -0.66817 -2.44491 -0.75681 -3.70955 -0.09252 -1.31997 -0.05777 -2.59533 -0.00969 -3.4608C2.20913 1.01332 2.94703 0.269 3.86839 0.14c0.8196 -0.1147539 1.59203 0.27435 2.00697 0.92919 0.04395 -0.06678 0.08663 -0.131083 0.12786 -0.192745l0.00437 -0.006447C6.54408 0.0744937 7.55487 -0.188311 8.4113 0.168537 9.46331 0.606873 9.95205 1.82219 9.49643 2.86683l-0.0059 0.0131 -0.95572 2.19123c1.03174 0.16875 2.00939 0.70097 2.72219 1.57595 0.3411 0.41865 0.4687 0.97188 0.4383 1.4688 -0.0194 0.31709 -0.1065 0.65598 -0.2831 0.9538 0.6292 0.49807 0.8947 1.36339 0.5966 2.15449 -0.2677 0.7108 -0.7219 1.3623 -1.349 1.8732 -0.4641 0.3781 -0.98299 0.6474 -1.52469 0.8101 -0.3306 0.0992 -0.67906 -0.0883 -0.77832 -0.4189 -0.09926 -0.3306 0.08827 -0.6791 0.41887 -0.7783 0.38753 -0.1164 0.75973 -0.3092 1.09459 -0.582 0.45125 -0.3677 0.77675 -0.8349 0.96885 -1.3447 0.1257 -0.3336 -0.0429 -0.706 -0.3765 -0.83163 -0.0964 -0.03632 -0.1943 -0.0479 -0.2884 -0.03885 -0.0179 0.00172 -0.0357 0.00267 -0.0534 0.00287 -0.17223 0.06236 -0.31542 0.19621 -0.38445 0.37951 -0.11384 0.3022 -0.30642 0.5792 -0.57614 0.7989 -0.81161 0.6612 -2.00555 0.5393 -2.66675 -0.2723 -0.66119 -0.8116 -0.53927 -2.00554 0.27234 -2.66674 0.8116 -0.6612 2.00554 -0.53927 2.66674 0.27233 0.1413 0.17345 0.35389 0.25502 0.56348 0.23484 0.01778 -0.00171 0.03548 -0.00266 0.05308 -0.00287 0.0653 -0.02386 0.1282 -0.05899 0.1862 -0.10624 0.0996 -0.08113 0.1967 -0.25827 0.2123 -0.51388 0.0156 -0.25434 -0.0576 -0.47757 -0.1597 -0.60292 -0.65578 -0.80496 -1.6229 -1.20679 -2.58832 -1.17188l-0.01456 0.00189c-0.10185 0.01207 -0.29143 0.04312 -0.49734 0.09475 -0.21208 0.05317 -0.40257 0.11865 -0.52889 0.18707 -0.30351 0.1644 -0.68283 0.05163 -0.84723 -0.25188s-0.05163 -0.68283 0.25188 -0.84724c0.33712 -0.1826 0.77169 -0.29806 1.1012 -0.3634l1.18587 -2.71888 0.00438 -0.00981c0.1691 -0.40222 -0.02035 -0.86652 -0.42436 -1.03486Zm-3.0002 1.27748 0 -0.569c-0.0694 -0.42056 -0.46254 -0.71259 -0.88862 -0.65294 -0.36271 0.05079 -0.61942 0.33339 -0.63792 0.66636 -0.04646 0.83625 -0.079 2.05507 0.00855 3.30407 0.00906 0.12925 0.01937 0.25821 0.03101 0.38656 0.20458 -0.58335 0.45787 -1.16268 0.72542 -1.70945 0.24335 -0.49733 0.50407 -0.97873 0.76156 -1.4256Zm2.53224 7.43274c-0.22516 -0.27639 -0.18364 -0.68297 0.09274 -0.90813 0.27638 -0.22517 0.68296 -0.18364 0.90812 0.09274 0.08576 0.10526 0.18049 0.1989 0.28217 0.28073 -0.0707 0.11018 -0.13099 0.22942 -0.17901 0.35688 -0.03804 0.10099 -0.10181 0.19388 -0.1959 0.27048 -0.27638 0.2252 -0.68296 0.1837 -0.90812 -0.0927Z" clip-rule="evenodd" stroke-width="1"></path>
  </g>
</svg>