<svg xmlns="http://www.w3.org/2000/svg" fill="none" viewBox="0 0 14 14" id="Paintbrush-2--Streamline-Core-Remix">
  <desc>
    Paintbrush 2 Streamline Icon: https://streamlinehq.com
  </desc>
  <g id="Free Remix/Interface Essential/paintbrush-2--brush-color-colors-design-paint-painting">
    <path id="Union" fill="#000000" fill-rule="evenodd" d="M13.2785 0.719056c-1.0082 -1.001769 -2.7007 -0.949749 -3.64554 0.111866l-0.00045 0.000509L4.72835 6.31438c-0.17798 -0.02267 -0.35786 -0.03177 -0.53809 -0.02703 -0.47908 0.01261 -0.95056 0.12278 -1.38562 0.32377 -0.42996 0.19864 -0.81542 0.48185 -1.13341 0.83268 -0.45064 0.45466 -0.672087 0.91112 -0.749099 1.38573 -0.060945 0.3756 -0.023667 0.75008 0.005107 1.03913 0.004622 0.04643 0.009024 0.09066 0.012765 0.13234 0.029459 0.3282 0.035864 0.5999 -0.048559 0.894 -0.083342 0.2904 -0.271378 0.6545 -0.71592 1.1146 -0.2347126 0.2429 -0.2339339 0.6284 0.001758 0.8703 0.913748 0.9382 2.147998 1.2305 3.328338 1.0842 1.14662 -0.1421 2.28087 -0.6986 3.13429 -1.5318 0.35347 -0.3178 0.63903 -0.7039 0.83948 -1.135 0.20205 -0.4346 0.31337 -0.9058 0.32715 -1.38482 0.00686 -0.23845 -0.01052 -0.47635 -0.0515 -0.7101L13.1683 4.3674l0.0003 -0.00027c1.0622 -0.94472 1.1145 -2.63749 0.1121 -3.645888l0 -0.000006 -0.0022 -0.00218ZM5.12717 7.69855c-0.28722 -0.11477 -0.59483 -0.16977 -0.90402 -0.16163 -0.3092 0.00814 -0.61349 0.07924 -0.89427 0.20896 -0.28079 0.12972 -0.53217 0.31533 -0.73879 0.54549 -0.0075 0.00835 -0.01522 0.0165 -0.02315 0.02443 -0.2914 0.2914 -0.37925 0.51863 -0.41095 0.71394 -0.03285 0.20246 -0.01452 0.39628 0.01351 0.69263 0.00494 0.05223 0.01018 0.10765 0.0155 0.16686 0.03304 0.36807 0.05788 0.82817 -0.09207 1.35067 -0.10528 0.3668 -0.28876 0.7389 -0.57839 1.1254 0.5253 0.3297 1.16318 0.4419 1.83734 0.3583 0.87581 -0.1085 1.77167 -0.5468 2.43994 -1.2104l0.0198 -0.0198 0.00144 -0.0015c0.01776 -0.0177 0.03632 -0.0342 0.05557 -0.0494 0.19852 -0.1929 0.36035 -0.4207 0.47729 -0.6722 0.1304 -0.2805 0.20225 -0.5846 0.21114 -0.89376 0.00889 -0.30917 -0.04536 -0.61691 -0.15942 -0.90441 -0.11407 -0.2875 -0.28557 -0.54872 -0.50401 -0.7677 -0.21844 -0.21897 -0.47924 -0.39111 -0.76646 -0.50588Z" clip-rule="evenodd" stroke-width="1"></path>
  </g>
</svg>