<svg xmlns="http://www.w3.org/2000/svg" fill="none" viewBox="0 0 14 14" id="Shield-Check--Streamline-Core-Remix">
  <desc>
    Shield Check Streamline Icon: https://streamlinehq.com
  </desc>
  <g id="Free Remix/Interface Essential/shield-check--shield-protection-security-defend-crime-war-cover-check">
    <path id="Union" fill="#000000" fill-rule="evenodd" d="M2 0.375C1.10254 0.375 0.375 1.10254 0.375 2v2.67544c0 4.04599 2.589 7.63806 6.42736 8.91746 0.12829 0.0428 0.26699 0.0428 0.39528 0C11.036 12.3135 13.625 8.72143 13.625 4.67544V2c0 -0.89746 -0.7275 -1.625 -1.625 -1.625H2ZM1.625 2c0 -0.20711 0.16789 -0.375 0.375 -0.375h10c0.2071 0 0.375 0.16789 0.375 0.375v2.67544c0 3.43805 -2.1562 6.49806 -5.375 7.66296 -3.21885 -1.1649 -5.375 -4.22491 -5.375 -7.66296V2Zm8.9356 2.49827c0.2751 -0.30958 0.2473 -0.78364 -0.0623 -1.05883 -0.3096 -0.27519 -0.78367 -0.2473 -1.05886 0.06229L5.89792 7.48594 4.45 6.4c-0.33137 -0.24853 -0.80147 -0.18137 -1.05 0.15 -0.24853 0.33137 -0.18137 0.80147 0.15 1.05l2 1.5c0.31205 0.23404 0.75141 0.18981 1.01056 -0.10173l4.00004 -4.5Z" clip-rule="evenodd" stroke-width="1"></path>
  </g>
</svg>