<svg xmlns="http://www.w3.org/2000/svg" fill="none" viewBox="0 0 14 14" id="Skull-1--Streamline-Core-Remix">
  <desc>
    Skull 1 Streamline Icon: https://streamlinehq.com
  </desc>
  <g id="Free Remix/Interface Essential/skull-1--crash-death-delete-die-error-garbage-remove-skull-trash">
    <path id="Union" fill="#000000" fill-rule="evenodd" d="M1.875 6.375C1.875 3.54454 4.16954 1.25 7 1.25s5.125 2.29454 5.125 5.125c0 1.65626 -0.785 3.12891 -2.0058 4.0668 -0.15395 0.1183 -0.2442 0.3015 -0.2442 0.4956v1.4376c0 0.2071 -0.16789 0.375 -0.375 0.375h-0.625V11.5c0 -0.3452 -0.27982 -0.625 -0.625 -0.625s-0.625 0.2798 -0.625 0.625v1.25h-1.25V11.5c0 -0.3452 -0.27982 -0.625 -0.625 -0.625s-0.625 0.2798 -0.625 0.625v1.25H4.5c-0.20711 0 -0.375 -0.1679 -0.375 -0.375v-1.4376c0 -0.1941 -0.09025 -0.3773 -0.24423 -0.4956C2.65998 9.50391 1.875 8.03126 1.875 6.375ZM7 0C3.47918 0 0.625 2.85418 0.625 6.375c0 1.9481 0.87442 3.6922 2.25 4.8607v1.1393c0 0.8975 0.72754 1.625 1.625 1.625h5c0.8975 0 1.625 -0.7275 1.625 -1.625v-1.1393c1.3756 -1.1685 2.25 -2.9126 2.25 -4.8607C13.375 2.85418 10.5208 0 7 0ZM6 7c0 0.69036 -0.55964 1.25 -1.25 1.25S3.5 7.69036 3.5 7s0.55964 -1.25 1.25 -1.25S6 6.30964 6 7Zm4.5 0c0 0.69036 -0.55964 1.25 -1.25 1.25S8 7.69036 8 7s0.55964 -1.25 1.25 -1.25S10.5 6.30964 10.5 7Z" clip-rule="evenodd" stroke-width="1"></path>
  </g>
</svg>