<svg xmlns="http://www.w3.org/2000/svg" fill="none" viewBox="0 0 14 14" id="Square-Clock--Streamline-Core-Remix">
  <desc>
    Square Clock Streamline Icon: https://streamlinehq.com
  </desc>
  <g id="Free Remix/Interface Essential/square-clock--clock-loading-frame-measure-time-circle">
    <path id="Union" fill="#000000" fill-rule="evenodd" d="M2 0.375C1.10254 0.375 0.375 1.10254 0.375 2v10c0 0.8975 0.72754 1.625 1.625 1.625h10c0.8975 0 1.625 -0.7275 1.625 -1.625V2c0 -0.89746 -0.7275 -1.625 -1.625 -1.625H2ZM1.625 2c0 -0.20711 0.16789 -0.375 0.375 -0.375h10c0.2071 0 0.375 0.16789 0.375 0.375v10c0 0.2071 -0.1679 0.375 -0.375 0.375H2c-0.20711 0 -0.375 -0.1679 -0.375 -0.375V2ZM7 11c2.20914 0 4 -1.79086 4 -4S9.20914 3 7 3 3 4.79086 3 7s1.79086 4 4 4Zm0 -6.125c0.34518 0 0.625 0.27982 0.625 0.625v0.875H8.5c0.34518 0 0.625 0.27982 0.625 0.625s-0.27982 0.625 -0.625 0.625H7c-0.34518 0 -0.625 -0.27982 -0.625 -0.625V5.5c0 -0.34518 0.27982 -0.625 0.625 -0.625Z" clip-rule="evenodd" stroke-width="1"></path>
  </g>
</svg>