<svg xmlns="http://www.w3.org/2000/svg" fill="none" viewBox="0 0 14 14" id="Triangle-Arrow-Expand--Streamline-Core-Remix">
  <desc>
    Triangle Arrow Expand Streamline Icon: https://streamlinehq.com
  </desc>
  <g id="Free Remix/Interface Essential/triangle-arrow-expand--expand-small-bigger-retract-smaller-big">
    <path id="Union" fill="#000000" fill-rule="evenodd" d="M1 0.5h4c0.20223 0 0.38455 0.121821 0.46194 0.308658 0.07739 0.186837 0.03461 0.401892 -0.10839 0.544892L3.88388 2.82322l2.14645 2.14645c0.29289 0.29289 0.29289 0.76777 0 1.06066s-0.76777 0.29289 -1.06066 0L2.82322 3.88388 1.35355 5.35355c-0.143 0.143 -0.358055 0.18578 -0.544892 0.10839C0.621821 5.38455 0.5 5.20223 0.5 5V1C0.5 0.723858 0.723858 0.5 1 0.5Zm10.1768 3.38388L9.03033 6.03033c-0.29289 0.29289 -0.76777 0.29289 -1.06066 0s-0.29289 -0.76777 0 -1.06066l2.14643 -2.14645 -1.46965 -1.46967c-0.143 -0.143 -0.18578 -0.358055 -0.10839 -0.544892C8.61545 0.621821 8.79777 0.5 9 0.5h4c0.2761 0 0.5 0.223858 0.5 0.5v4c0 0.20223 -0.1218 0.38455 -0.3087 0.46194 -0.1868 0.07739 -0.4019 0.03461 -0.5449 -0.10839l-1.4696 -1.46967ZM6.03033 9.03033c0.29289 -0.29289 0.29289 -0.76777 0 -1.06066s-0.76777 -0.29289 -1.06066 0L2.82322 10.1161 1.35355 8.64645c-0.143 -0.143 -0.358055 -0.18578 -0.544892 -0.10839C0.621821 8.61545 0.5 8.79777 0.5 9v4c0 0.2761 0.223858 0.5 0.5 0.5h4c0.20223 0 0.38455 -0.1218 0.46194 -0.3087 0.07739 -0.1868 0.03461 -0.4019 -0.10839 -0.5449l-1.46967 -1.4696 2.14645 -2.14647Zm3 -1.06066c-0.29289 -0.29289 -0.76777 -0.29289 -1.06066 0s-0.29289 0.76777 0 1.06066l2.14643 2.14647 -1.46965 1.4696c-0.143 0.143 -0.18578 0.3581 -0.10839 0.5449 0.07739 0.1869 0.25971 0.3087 0.46194 0.3087h4c0.2761 0 0.5 -0.2239 0.5 -0.5V9c0 -0.20223 -0.1218 -0.38455 -0.3087 -0.46194 -0.1868 -0.07739 -0.4019 -0.03461 -0.5449 0.10839l-1.4696 1.46965 -2.14647 -2.14643Z" clip-rule="evenodd" stroke-width="1"></path>
  </g>
</svg>