<svg xmlns="http://www.w3.org/2000/svg" fill="none" viewBox="0 0 14 14" id="Upload-Circle--Streamline-Core-Remix">
  <desc>
    Upload Circle Streamline Icon: https://streamlinehq.com
  </desc>
  <g id="Free Remix/Interface Essential/upload-circle--arrow-circle-download-internet-network-server-up-upload">
    <path id="Union" fill="#000000" fill-rule="evenodd" d="M7.00018 13.9998c3.86582 0 6.99972 -3.1339 6.99972 -6.99974 0 -3.86583 -3.1339 -6.999693789 -6.99972 -6.999693789S0.000488281 3.13424 0.000488281 7.00006c0 3.86584 3.133871719 6.99974 6.999691719 6.99974Zm5.74972 -6.99974c0 3.17544 -2.5742 5.74974 -5.74972 5.74974 -3.17547 0 -5.74969 -2.5743 -5.74969 -5.74974 0 -3.17547 2.57422 -5.74969 5.74969 -5.74969 3.17542 0 5.74972 2.57422 5.74972 5.74969ZM7.00035 11.1252c-0.34518 0 -0.625 -0.2798 -0.625 -0.625V6.37524h-1.625c-0.25279 0 -0.48069 -0.15228 -0.57743 -0.38582 -0.09674 -0.23355 -0.04326 -0.50237 0.13548 -0.68112l2.25 -2.25c0.12058 -0.12057 0.27815 -0.18158 0.43618 -0.18303l0.00577 -0.00003 0.00577 0.00003c0.08264 0.00074 0.16145 0.01753 0.23346 0.04739 0.07372 0.0305 0.14278 0.07572 0.20271 0.13564l2.25 2.25c0.17875 0.17875 0.23222 0.44757 0.13548 0.68112 -0.09674 0.23354 -0.32464 0.38582 -0.57742 0.38582h-1.625v4.12496c0 0.3452 -0.27983 0.625 -0.625 0.625Z" clip-rule="evenodd" stroke-width="1"></path>
  </g>
</svg>