<svg xmlns="http://www.w3.org/2000/svg" fill="none" viewBox="0 0 14 14" id="User-Sync-Online-In-Person--Streamline-Core-Remix">
  <desc>
    User Sync Online In Person Streamline Icon: https://streamlinehq.com
  </desc>
  <g id="Free Remix/Interface Essential/user-sync-online-in-person">
    <path id="Union" fill="#000000" fill-rule="evenodd" d="M6.99961 1.24927c-3.17596 0 -5.75059 2.57463 -5.75059 5.75059 0 0.34518 -0.279817 0.625 -0.624995 0.625s-0.625001562 -0.27982 -0.625001562 -0.625c0 -3.86632 3.134266562 -7.000592422 7.000586562 -7.000592422 2.14691 0 4.06729 0.966339422 5.35109 2.486812422l0.5826 -0.58257c0.1788 -0.17874 0.4476 -0.23221 0.6811 -0.13548 0.2336 0.09674 0.3858 0.32464 0.3858 0.57743v2.20212c0 0.34518 -0.2798 0.625 -0.625 0.625h-0.4694c-0.0127 0.00039 -0.0253 0.00039 -0.0379 0h-1.6948c-0.2528 0 -0.4807 -0.15227 -0.5774 -0.38582 -0.0968 -0.23355 -0.0433 -0.50237 0.1355 -0.68112l0.732 -0.732c-1.0548 -1.2967 -2.66296 -2.12437 -4.46359 -2.12437Zm6.37529 5.12549c0.3451 0 0.625 0.27982 0.625 0.625 0 3.86634 -3.1343 7.00054 -7.00063 7.00054 -2.14684 0 -4.06719 -0.9662 -5.35099 -2.4866l-0.58232 0.5823c-0.178747 0.1787 -0.44757 0.2322 -0.681116 0.1355 -0.233545 -0.0968 -0.385820562 -0.3247 -0.385820562 -0.5774V9.45193c0 -0.34518 0.279822562 -0.625 0.625000562 -0.625H1.0969c0.01012 -0.00025 0.02023 -0.00025 0.03031 0h1.69896c0.25279 0 0.48069 0.15228 0.57743 0.38582 0.09674 0.23355 0.04326 0.50238 -0.13549 0.68112l-0.73227 0.73223c1.05478 1.2966 2.66287 2.1242 4.46343 2.1242 3.17593 0 5.75063 -2.5746 5.75063 -5.75054 0 -0.34518 0.2798 -0.625 0.625 -0.625ZM6.12476 5c0 -0.48325 0.39175 -0.875 0.875 -0.875s0.875 0.39175 0.875 0.875 -0.39175 0.875 -0.875 0.875 -0.875 -0.39175 -0.875 -0.875Zm0.875 -2.125c-1.17361 0 -2.125 0.9514 -2.125 2.125s0.95139 2.125 2.125 2.125c1.1736 0 2.125 -0.9514 2.125 -2.125s-0.9514 -2.125 -2.125 -2.125ZM6.99974 8c-1.23097 0 -2.28768 0.74132 -2.75015 1.79981 -0.06754 0.15459 -0.05258 0.33279 0.03979 0.47399 0.09237 0.1411 0.24969 0.2262 0.41838 0.2262h4.58396c0.16869 0 0.32602 -0.0851 0.41839 -0.2262 0.09236 -0.1412 0.10733 -0.3194 0.03979 -0.47399C9.28742 8.74132 8.23071 8 6.99974 8Z" clip-rule="evenodd" stroke-width="1"></path>
  </g>
</svg>