<svg xmlns="http://www.w3.org/2000/svg" fill="none" viewBox="0 0 14 14" id="Warning-Octagon--Streamline-Core-Remix">
  <desc>
    Warning Octagon Streamline Icon: https://streamlinehq.com
  </desc>
  <g id="Free Remix/Interface Essential/warning-octagon--frame-alert-warning-octagon-exclamation-caution">
    <path id="Union" fill="#000000" fill-rule="evenodd" d="M4.89905 1.73484c0.07032 -0.07033 0.16571 -0.10984 0.26516 -0.10984h3.67158c0.09945 0 0.19484 0.03951 0.26516 0.10983l3.16425 3.16422c0.0703 0.07032 0.1098 0.16571 0.1098 0.26516v3.67158c0 0.09945 -0.0395 0.19484 -0.1098 0.26516L9.10095 12.2652c-0.07032 0.0703 -0.16571 0.1098 -0.26516 0.1098H5.16421c-0.09945 0 -0.19484 -0.0395 -0.26516 -0.1098L1.73484 9.10095c-0.07033 -0.07032 -0.10984 -0.16571 -0.10984 -0.26516V5.16421c0 -0.09945 0.03951 -0.19484 0.10983 -0.26516l3.16422 -3.16421ZM5.16421 0.375c-0.43097 0 -0.8443 0.171205 -1.14905 0.475952L0.850951 4.01517C0.546205 4.31991 0.375 4.73324 0.375 5.16421v3.67158c0 0.43097 0.171205 0.8443 0.475952 1.14905L4.01517 13.149c0.30474 0.3048 0.71807 0.476 1.14904 0.476h3.67158c0.43097 0 0.8443 -0.1712 1.14905 -0.476L13.149 9.98483c0.3048 -0.30474 0.476 -0.71807 0.476 -1.14904V5.16421c0 -0.43097 -0.1712 -0.8443 -0.476 -1.14905L9.98483 0.850951C9.68009 0.546205 9.26676 0.375 8.83579 0.375H5.16421ZM7.75 3.875c0 -0.41421 -0.33579 -0.75 -0.75 -0.75s-0.75 0.33579 -0.75 0.75v3.25c0 0.41421 0.33579 0.75 0.75 0.75s0.75 -0.33579 0.75 -0.75v-3.25Zm-1.75 6c0 0.5523 0.44772 1 1 1s1 -0.4477 1 -1c0 -0.55229 -0.44772 -1 -1 -1s-1 0.44771 -1 1Z" clip-rule="evenodd" stroke-width="1"></path>
  </g>
</svg>