<svg xmlns="http://www.w3.org/2000/svg" fill="none" viewBox="0 0 24 24" id="Business-Management-Teamwork-Clap--Streamline-Freehand">
  <desc>
    Business Management Teamwork Clap Streamline Icon: https://streamlinehq.com
  </desc>
  <path fill="#000000" fill-rule="evenodd" d="M7.22927 14.283c0.26878 0.0348 0.54093 0.0348 0.8097 0 0.26207 -0.0385 0.51983 -0.1021 0.76971 -0.1899 0.55993 -0.2134 1.09598 -0.4848 1.59942 -0.8097 0.0754 -0.0387 0.1331 -0.1049 0.161 -0.1849 0.0279 -0.0801 0.0239 -0.1678 -0.0111 -0.245 -0.0404 -0.0737 -0.1067 -0.1298 -0.1861 -0.1575 -0.0794 -0.0277 -0.1662 -0.025 -0.2437 0.0076 -0.53085 0.1863 -1.07571 0.3301 -1.6294 0.4298 -0.3303 0.0678 -0.66399 0.1178 -0.99963 0.15h-0.49981c0.58336 -0.7643 0.93391 -1.6806 1.00962 -2.6391 0.19993 -1.99921 -0.7897 -3.99846 -3.10884 -4.19839 -0.74531 -0.00441 -1.48102 0.16819 -2.14662 0.50359 -0.66559 0.33541 -1.24205 0.82403 -1.68195 1.42569C0.580208 8.9518 0.286862 9.67087 0.234678 10.4266c-0.052184 0.7558 0.139549 1.5084 0.546997 2.147 0.258295 0.3844 0.599985 0.7056 0.999625 0.9397l0.37986 0.1999c-0.76679 0.784 -1.347558 1.7303 -1.699366 2.769 -0.262642 0.8053 -0.4139863 1.6427 -0.4498323 2.489 -0.0446404 1.2345 0.0357391 2.4704 0.2399103 3.6887 0.002402 0.0452 0.014078 0.0894 0.034302 0.1299 0.020225 0.0405 0.048565 0.0764 0.083257 0.1054 0.034693 0.0291 0.074995 0.0507 0.118401 0.0635 0.043405 0.0129 0.088984 0.0166 0.133903 0.0111 0.0813 -0.0101 0.15565 -0.0509 0.207726 -0.1142 0.052075 -0.0632 0.077906 -0.144 0.072169 -0.2257 -0.061705 -1.1939 -0.024928 -2.3908 0.10996 -3.5787 0.0872 -0.7609 0.23767 -1.5132 0.44983 -2.2491 0.27968 -1.0264 0.7586 -1.9876 1.40948 -2.829 0.2699 0.07 0.5398 0.14 0.8097 0.1899 0.0729 0.0146 0.14862 -0.0004 0.21048 -0.0416s0.10481 -0.1054 0.11939 -0.1783c0.01458 -0.0729 -0.00039 -0.1486 -0.04164 -0.2105 -0.04124 -0.0618 -0.10537 -0.1048 -0.17828 -0.1194 -1.99925 -0.4598 -2.35912 -1.3894 -2.36911 -1.4194 -0.28417 -0.5114 -0.39583 -1.1008 -0.31839 -1.6806 0.07744 -0.57992 0.33983 -1.11935 0.74823 -1.53823 0.34913 -0.46488 0.80214 -0.84167 1.32284 -1.10028 0.5207 -0.25862 1.09466 -0.39189 1.67604 -0.38916 1.70936 0.09996 2.38911 1.5894 2.29914 3.06887 0.01011 0.7737 -0.23655 1.5289 -0.7014 2.1475s-1.12165 1.0657 -1.86764 1.2712c-0.08217 0.0147 -0.15571 0.06 -0.2058 0.1268 -0.05009 0.0668 -0.07299 0.1501 -0.0641 0.2331 0.0147 0.0814 0.0604 0.154 0.12751 0.2025 0.06711 0.0485 0.1504 0.069 0.23236 0.0574 0.54081 -0.0777 1.05318 -0.2909 1.48944 -0.6198 0.33864 0.1573 0.69935 0.2618 1.0696 0.3099Z" clip-rule="evenodd" stroke-width="1"></path>
  <path fill="#000000" fill-rule="evenodd" d="M10.578 14.6728c-0.408 0.3862 -0.86113 0.7218 -1.34946 0.9997 -0.48324 0.2673 -0.99232 0.485 -1.51944 0.6497 -0.40561 0.0999 -0.80596 0.22 -1.19955 0.3599 -0.27878 0.1026 -0.51476 0.2964 -0.66975 0.5498 -0.22514 0.5507 -0.32089 1.1458 -0.2799 1.7393 0 1.2496 0.40985 2.789 0.46983 3.5787 0.00125 0.0416 0.01087 0.0825 0.02827 0.1203s0.04224 0.0717 0.07302 0.0997c0.03078 0.0279 0.06689 0.0494 0.10616 0.0632 0.03927 0.0137 0.08091 0.0194 0.12242 0.0167 0.04071 -0.0013 0.08075 -0.0106 0.11786 -0.0274 0.0371 -0.0168 0.07053 -0.0407 0.09839 -0.0704 0.02785 -0.0297 0.04957 -0.0646 0.06392 -0.1027 0.01436 -0.0381 0.02106 -0.0787 0.01972 -0.1194 0 -0.6797 -0.10996 -1.9293 -0.10996 -3.0788 0 -2.5891 0.60978 -1.8593 1.52943 -2.2192 0.5494 -0.2594 1.07461 -0.5671 1.56942 -0.9197 0.50362 -0.358 0.96042 -0.7778 1.35952 -1.2495 0.0279 -0.0253 0.0502 -0.0562 0.0654 -0.0906 0.0153 -0.0344 0.0232 -0.0717 0.0232 -0.1093 0 -0.0377 -0.0079 -0.0749 -0.0232 -0.1094 -0.0152 -0.0344 -0.0375 -0.0653 -0.0654 -0.0906 -0.027 -0.0308 -0.0605 -0.0554 -0.098 -0.0719 -0.0376 -0.0166 -0.0783 -0.0246 -0.1193 -0.0237 -0.041 0.001 -0.0813 0.0109 -0.118 0.0292 -0.0368 0.0182 -0.069 0.0443 -0.0946 0.0764Z" clip-rule="evenodd" stroke-width="1"></path>
  <path fill="#000000" fill-rule="evenodd" d="M20.6443 13.1034c-0.4752 0.0501 -0.9543 0.0501 -1.4295 0 -1.4195 -0.1999 -3.3488 -1.4394 -2.669 -3.46867 0.2292 -0.59258 0.5962 -1.12202 1.0708 -1.54445 0.4746 -0.42243 1.043 -0.72569 1.6582 -0.88464 0.6494 -0.19679 1.3454 -0.17637 1.9822 0.05815s1.1797 0.67035 1.5464 1.24137c0.1822 0.29208 0.3045 0.61744 0.3598 0.95717 0.0554 0.33973 0.0427 0.68707 -0.0373 1.02187 -0.08 0.3348 -0.2256 0.6504 -0.4286 0.9284 -0.2029 0.278 -0.4591 0.513 -0.7535 0.6912 -0.0682 0.0484 -0.1147 0.1215 -0.1296 0.2036 -0.0149 0.0822 0.0029 0.167 0.0496 0.2363 0.022 0.0359 0.0514 0.0668 0.0863 0.0907 0.0348 0.0238 0.0742 0.04 0.1157 0.0476 0.0415 0.0075 0.0842 0.0062 0.1252 -0.0038 0.0409 -0.0101 0.0793 -0.0287 0.1126 -0.0546 0.3837 -0.215 0.7208 -0.5041 0.9917 -0.8505 0.2709 -0.3463 0.4703 -0.7431 0.5866 -1.1673 0.1163 -0.4241 0.1471 -0.86708 0.0906 -1.30321 -0.0564 -0.43614 -0.1989 -0.85671 -0.4193 -1.23727 -0.4457 -0.77126 -1.1315 -1.37543 -1.9528 -1.7202 -0.8213 -0.34477 -1.7329 -0.41118 -2.5955 -0.18909 -0.7831 0.2046 -1.5037 0.59891 -2.0982 1.14809 -0.5945 0.54918 -1.0446 1.23633 -1.3106 2.00074 -0.167 0.51121 -0.1967 1.05734 -0.0862 1.58364 0.1106 0.5264 0.3575 1.0144 0.716 1.4152 -0.165 -0.0578 -0.3254 -0.1279 -0.4798 -0.2099 -0.5222 -0.3475 -0.9512 -0.8177 -1.2496 -1.3695 -0.2448 -0.4406 -0.5548 -0.84165 -0.9196 -1.18953 -0.2929 -0.29408 -0.6557 -0.50891 -1.0544 -0.62431 -0.3986 -0.11541 -0.8201 -0.1276 -1.2248 -0.03544 -0.3316 0.14017 -0.6231 0.36069 -0.8482 0.64165 -0.2251 0.28097 -0.3768 0.61353 -0.4413 0.96773 -0.05928 0.2261 -0.05928 0.4637 0 0.6898 0.1055 0.2761 0.2256 0.5463 0.3599 0.8097 0.1344 0.2589 0.2846 0.5093 0.4498 0.7497 0.4108 0.6306 0.8939 1.2109 1.4395 1.7293 0.5514 0.52 1.17 0.9638 1.8393 1.3195 0.5357 0.2254 1.0829 0.4222 1.6394 0.5898 0.1662 0.0596 0.3241 0.1402 0.4698 0.2399 0.1033 0.3691 0.1703 0.7475 0.1999 1.1296 0.0749 0.5967 0.1049 1.1982 0.09 1.7993 -0.0224 0.9197 -0.0958 1.8375 -0.2199 2.749 -0.0119 0.0743 0.0061 0.1502 0.0502 0.2111 0.044 0.0609 0.1105 0.1019 0.1847 0.1138 0.0742 0.0119 0.1502 -0.0061 0.2111 -0.0502 0.0609 -0.044 0.1018 -0.1105 0.1138 -0.1847 0.1499 -0.9197 0.2999 -1.8593 0.3598 -2.799 0.045 -0.6356 0.045 -1.2736 0 -1.9093 -0.0117 -0.4121 -0.0518 -0.8229 -0.1199 -1.2295 -0.0422 -0.1774 -0.1321 -0.3399 -0.2599 -0.4698 -0.2198 -0.1877 -0.4656 -0.3425 -0.7297 -0.4599 -0.4999 -0.2299 -1.0896 -0.3798 -1.5195 -0.6197 -0.5809 -0.3319 -1.1181 -0.7349 -1.5994 -1.1996 -0.4804 -0.4685 -0.9124 -0.9843 -1.2895 -1.5394 -0.14 -0.2199 -0.2699 -0.4398 -0.3899 -0.6698 -0.4198 -0.7597 -0.3198 -0.7197 -0.2599 -0.9296 0.0256 -0.1584 0.0889 -0.3083 0.1846 -0.437 0.0957 -0.12877 0.221 -0.23259 0.3652 -0.30273 0.3399 -0.12995 0.7897 0 1.4295 0.44983 0.6398 0.4498 1.0996 1.8193 2.3491 2.4791 0.5903 0.3002 1.2475 0.4447 1.9093 0.4198 0.0965 0.0625 0.1967 0.1193 0.2999 0.17 0.492 0.2229 1.0204 0.355 1.5594 0.3898 0.5175 0.0264 1.0364 0.003 1.5494 -0.07 0.0365 -0.0036 0.0719 -0.0146 0.104 -0.0324 0.0321 -0.0178 0.0602 -0.0419 0.0827 -0.0709 0.0224 -0.029 0.0387 -0.0623 0.0479 -0.0978 0.0091 -0.0355 0.011 -0.0725 0.0054 -0.1087 -0.0052 -0.0672 -0.0362 -0.1298 -0.0865 -0.1745 -0.0504 -0.0448 -0.1161 -0.0682 -0.1834 -0.0655Z" clip-rule="evenodd" stroke-width="1"></path>
  <path fill="#000000" fill-rule="evenodd" d="M21.5439 12.6936c-0.0252 -0.0319 -0.0571 -0.0579 -0.0935 -0.0762 -0.0363 -0.0183 -0.0762 -0.0284 -0.1169 -0.0297 -0.0406 -0.0013 -0.0811 0.0063 -0.1185 0.0222 -0.0374 0.0159 -0.0709 0.0398 -0.0982 0.07 -0.0272 0.0302 -0.0476 0.066 -0.0596 0.1049 -0.012 0.0388 -0.0154 0.0798 -0.01 0.1202 0.0055 0.0403 0.0197 0.0789 0.0416 0.1132s0.051 0.0634 0.0853 0.0852c0.8309 0.9403 1.3541 2.1124 1.4994 3.3588 0.1303 0.7468 0.2104 1.5016 0.2399 2.2591 0.0371 1.1737 0.0071 2.3485 -0.0899 3.5187 -0.0056 0.0408 -0.0031 0.0822 0.0075 0.122 0.0106 0.0397 0.029 0.077 0.0541 0.1095 0.0251 0.0326 0.0565 0.0598 0.0922 0.0801 0.0358 0.0204 0.0752 0.0334 0.1161 0.0383 0.0819 0.0117 0.1652 -0.0089 0.2323 -0.0574 0.0671 -0.0484 0.1128 -0.121 0.1275 -0.2025 0.2565 -1.1878 0.4136 -2.3948 0.4699 -3.6087 0.0329 -0.8323 -0.041 -1.6655 -0.22 -2.479 -0.2984 -1.3928 -1.0594 -2.6435 -2.1592 -3.5487Z" clip-rule="evenodd" stroke-width="1"></path>
  <path fill="#000000" fill-rule="evenodd" d="M7.14929 4.62659c0.04846 0.16865 0.11202 0.33259 0.18993 0.48982 0.07002 0.15504 0.15016 0.30531 0.23991 0.44983 0.23004 0.35022 0.48388 0.68422 0.75972 0.99963 0.03763 0.06301 0.09777 0.1094 0.16827 0.12981 0.0705 0.0204 0.14611 0.01331 0.21159 -0.01985 0.0649 -0.03584 0.11292 -0.09597 0.13354 -0.16719 0.02062 -0.07121 0.01213 -0.1477 -0.02359 -0.21267 -0.12995 -0.38985 -0.19992 -0.76971 -0.32987 -1.14957 -0.05631 -0.16081 -0.12309 -0.31775 -0.19993 -0.46983 -0.07007 -0.15179 -0.15022 -0.29873 -0.23991 -0.43983 -0.20992 -0.34987 -0.43984 -0.67975 -0.66975 -0.99963 -0.0372 -0.07457 -0.10204 -0.13168 -0.18071 -0.15918 -0.07868 -0.02749 -0.16497 -0.02319 -0.24053 0.01198 -0.07555 0.03517 -0.13439 0.09844 -0.16401 0.17634 -0.02961 0.0779 -0.02765 0.16428 0.00547 0.24076 0.11995 0.35987 0.19992 0.73972 0.33987 1.11958Z" clip-rule="evenodd" stroke-width="1"></path>
  <path fill="#000000" fill-rule="evenodd" d="M11.6776 4.8665c0 0.07254 0.0281 0.14225 0.0784 0.19447 0.0504 0.05221 0.119 0.08284 0.1915 0.08543 0.0371 0.00275 0.0744 -0.00219 0.1095 -0.01451 0.035 -0.01233 0.0672 -0.03177 0.0944 -0.05711 0.0273 -0.02534 0.0489 -0.05604 0.0637 -0.09016 0.0148 -0.03412 0.0224 -0.07093 0.0223 -0.10812 0.09 -0.41984 0.1999 -0.8097 0.2499 -1.23954 0.0102 -0.17645 0.0102 -0.35335 0 -0.5298 0.0097 -0.17647 0.0097 -0.35334 0 -0.5298 0 -0.40985 -0.1199 -0.8097 -0.1799 -1.22955 0.0001 -0.08148 -0.0308 -0.15996 -0.0865 -0.2194 -0.0558 -0.05945 -0.1321 -0.09539 -0.2134 -0.10048 -0.0415 -0.00134 -0.0829 0.00569 -0.1217 0.02066 -0.0387 0.01497 -0.0741 0.03758 -0.1039 0.06649 -0.0299 0.02891 -0.0536 0.06353 -0.0698 0.10179 -0.0162 0.03827 -0.0245 0.0794 -0.0245 0.12095 -0.07 0.41984 -0.1499 0.81969 -0.1899 1.23954 -0.0099 0.17646 -0.0099 0.35334 0 0.5298 -0.0098 0.17646 -0.0098 0.35334 0 0.5298 0.02 0.41984 0.1199 0.8097 0.1799 1.22954Z" clip-rule="evenodd" stroke-width="1"></path>
  <path fill="#000000" fill-rule="evenodd" d="M15.3162 6.24601c0.2943 -0.21141 0.5717 -0.44536 0.8297 -0.69974 0.101 -0.11131 0.1913 -0.23178 0.2699 -0.35986 0.08 -0.11996 0.15 -0.24991 0.22 -0.37986 0.1499 -0.31988 0.2699 -0.62977 0.4098 -0.93965 0.0518 -0.06601 0.0765 -0.14926 0.0691 -0.23283 -0.0075 -0.08357 -0.0465 -0.16117 -0.1091 -0.217 -0.0692 -0.04675 -0.154 -0.06455 -0.2362 -0.0496 -0.0822 0.01494 -0.1553 0.06144 -0.2036 0.12957 -0.2599 0.2499 -0.4998 0.47982 -0.7397 0.74972 -0.09 0.10996 -0.18 0.21992 -0.2599 0.33987 -0.0972 0.1226 -0.1842 0.25299 -0.2599 0.38986 -0.15 0.30988 -0.25 0.61977 -0.4099 0.91965 -0.0256 0.02735 -0.0455 0.05957 -0.0585 0.09475 -0.0129 0.03518 -0.0187 0.0726 -0.0169 0.11004 0.0018 0.03744 0.0111 0.07414 0.0274 0.10792 0.0162 0.03379 0.0391 0.06396 0.0672 0.08874 0.0281 0.02478 0.0609 0.04366 0.0965 0.05551 0.0356 0.01186 0.0731 0.01645 0.1105 0.0135 0.0374 -0.00295 0.0738 -0.01337 0.107 -0.03065 0.0333 -0.01728 0.0628 -0.04106 0.0866 -0.06994v-0.02Z" clip-rule="evenodd" stroke-width="1"></path>
</svg>