<svg xmlns="http://www.w3.org/2000/svg" fill="none" viewBox="0 0 24 24" id="Collaboration-Meeting-Team-File--Streamline-Freehand">
  <desc>
    Collaboration Meeting Team File Streamline Icon: https://streamlinehq.com
  </desc>
  <path fill="#000000" fill-rule="evenodd" d="M9.06796 10.2626c0.42986 0.17 0.88679 0.2614 1.34894 0.2698 0.386 0.0251 0.7732 0.0251 1.1592 0 0.7994 -0.06 1.3889 -0.2399 2.4781 -0.2898 0.2198 0 0.8593 0.0699 1.269 0 0.2163 -0.017 0.4253 -0.0856 0.6096 -0.1999 0.3514 -0.26044 0.6077 -0.62903 0.7294 -1.04917 0.1807 -0.75862 0.2381 -1.54139 0.1699 -2.31825 0 -0.56957 0.0799 -1.63876 0 -2.50811 -0.0213 -0.43685 -0.13 -0.86499 -0.3198 -1.25904 -0.2546 -0.43525 -0.5526 -0.84368 -0.8893 -1.21908 -0.4737 -0.54098 -0.981 -1.051604 -1.5188 -1.528849 -0.1206 -0.1077937 -0.2781 -0.16504409 -0.4397 -0.159879662 -0.3298 0 -1.1192 0.149886662 -1.2491 0.159879662L9.50763 0.549906c-0.07225 0.009105 -0.1405 0.038272 -0.19702 0.084192 -0.05652 0.04592 -0.09904 0.106757 -0.12274 0.175612 -0.02466 -0.067567 -0.06955 -0.125888 -0.12856 -0.167015C9.0003 0.601568 8.93004 0.579634 8.85812 0.579884c-0.04462 0.001293 -0.08855 0.011367 -0.12928 0.029646 -0.04073 0.01828 -0.07745 0.044406 -0.10807 0.076886 -0.03063 0.03248 -0.05455 0.070677 -0.07041 0.112407 -0.01585 0.04173 -0.02332 0.086176 -0.02199 0.130797l-0.09993 5.93552c0 0.43966 -0.13989 1.16911 -0.14988 1.78865 -0.0167 0.32103 0.02391 0.64248 0.11991 0.94928 0.06042 0.14995 0.15103 0.28588 0.2662 0.39933 0.11517 0.1135 0.25245 0.202 0.40329 0.2602Zm5.75564 -7.89407c0.2759 0.33072 0.517 0.68902 0.7195 1.0692 0.0745 0.18134 0.1184 0.37382 0.1299 0.56957l-0.06 -0.01c-0.5647 -0.10933 -1.1352 -0.18606 -1.7087 -0.22982 -0.2102 -0.03009 -0.4133 -0.09778 -0.5995 -0.19985 0 -0.16987 0.0799 -0.43967 0.0799 -0.62953v-0.94928l-0.06 -0.85935c0.1399 0 0.2598 0 0.3098 -0.09993 0.4205 0.42435 0.8174 0.87135 1.1891 1.33899Zm-5.22604 -0.99924 2.86784 -0.25981 -0.1499 0.84936c0 0.07994 -0.1099 0.41969 -0.1799 0.80939 -0.0379 0.29496 -0.0579 0.59195 -0.0599 0.88933 -0.012 0.1751 0.016 0.35062 0.0818 0.51333 0.0658 0.16271 0.1676 0.30836 0.2979 0.42596 0.3226 0.17951 0.6809 0.2853 1.0492 0.30977 0.6595 0 1.349 -0.15988 1.9985 -0.11991 0.0618 0.01922 0.128 0.01922 0.1899 0 0 0.75942 -0.11 1.55882 -0.11 1.99849 0.0384 0.46886 0.0384 0.94007 0 1.40893 -0.1998 1.56882 -0.9093 0.78941 -1.5488 0.81939 -1.1092 0.06994 -1.7087 0.24981 -2.5281 0.32975 -0.3327 0.02185 -0.6665 0.02185 -0.9992 0 -0.2578 0.00526 -0.51556 -0.01482 -0.76945 -0.05996 -0.08993 0 -0.18985 -0.13989 -0.23982 -0.08993 -0.06493 -0.24083 -0.0919 -0.4903 -0.07993 -0.73944 0 -0.56957 0.06994 -1.17911 0.04996 -1.55883l-0.24981 -5.77563c0.03576 0.06771 0.09115 0.12303 0.15892 0.1587 0.06776 0.03566 0.14473 0.05001 0.22079 0.04115v0.04996Z" clip-rule="evenodd" stroke-width="1"></path>
  <path fill="#000000" fill-rule="evenodd" d="M21.8083 19.1359c-0.1361 -0.1445 -0.2947 -0.266 -0.4696 -0.3597 -0.1391 -0.0586 -0.2828 -0.1054 -0.4297 -0.1399 0.3503 -0.3224 0.5998 -0.7392 0.7186 -1.2001 0.1188 -0.461 0.1018 -0.9465 -0.0491 -1.398 -0.1741 -0.5591 -0.5119 -1.0531 -0.9696 -1.4183 -0.4578 -0.3652 -1.0146 -0.5847 -1.5984 -0.6301 -0.5317 -0.0388 -1.0588 0.1214 -1.4789 0.4496 -0.5434 0.4559 -0.8992 1.0965 -0.9993 1.7987 -0.0923 0.3959 -0.0719 0.8097 0.0588 1.1947 0.1306 0.385 0.3664 0.7257 0.6807 0.9836 -0.2593 0.0612 -0.5107 0.1517 -0.7495 0.2698 -0.1631 0.094 -0.3113 0.2119 -0.4396 0.3498 -0.1277 0.1433 -0.2383 0.3009 -0.3298 0.4696 -0.2035 0.3847 -0.3292 0.8057 -0.3697 1.2391 -0.1792 -0.2205 -0.3877 -0.4154 -0.6195 -0.5796 -0.2417 -0.1483 -0.4958 -0.2754 -0.7595 -0.3797 0.3271 -0.3702 0.5495 -0.8209 0.6443 -1.3057 0.0949 -0.4848 0.0587 -0.9861 -0.1047 -1.4522 -0.2582 -0.7504 -0.7964 -1.3721 -1.5021 -1.7352 -0.7056 -0.363 -1.5243 -0.4395 -2.285 -0.2134 -0.484 0.1511 -0.92178 0.4225 -1.27239 0.7887 -0.3506 0.3663 -0.60258 0.8155 -0.73235 1.3057 -0.12977 0.4901 -0.1331 1.0052 -0.00968 1.4969 0.12342 0.4918 0.36956 0.9443 0.7154 1.315 -0.1399 0.06 -0.28978 0.11 -0.41969 0.1799 -0.24183 0.1516 -0.46634 0.3291 -0.66949 0.5296 0 0.06 -0.07994 0.1299 -0.1299 0.1799 -0.04906 -0.4451 -0.18485 -0.8762 -0.3997 -1.2691 -0.09985 -0.1736 -0.22439 -0.3318 -0.36972 -0.4696 -0.13313 -0.1367 -0.28443 -0.2544 -0.44966 -0.3498 -0.14692 -0.0557 -0.29708 -0.1024 -0.44966 -0.1398 0.35215 -0.3233 0.60287 -0.7418 0.72172 -1.2047 0.11884 -0.463 0.1007 -0.9505 -0.05223 -1.4034 -0.17969 -0.5439 -0.51498 -1.0231 -0.96434 -1.3783 -0.44936 -0.3553 -0.99306 -0.5709 -1.56375 -0.6202 -0.52864 -0.0391 -1.05276 0.1213 -1.46889 0.4497 -0.54636 0.4534 -0.90289 1.0952 -0.99924 1.7986 -0.0947 0.3959 -0.07552 0.8105 0.05532 1.1959 0.13084 0.3855 0.368 0.7261 0.68412 0.9825 -0.26284 0.0645 -0.51758 0.1583 -0.75943 0.2798 -0.1613 0.1006 -0.30906 0.2215 -0.43967 0.3597 -0.12766 0.1433 -0.23831 0.3009 -0.32975 0.4696 -0.21969 0.3753 -0.36554 0.7891 -0.42967 1.2191 -0.01547 0.0479 -0.02126 0.0984 -0.01704 0.1485 0.00422 0.0502 0.01836 0.099 0.04161 0.1436 0.02324 0.0446 0.05512 0.0842 0.09379 0.1164 0.03867 0.0322 0.08335 0.0564 0.13145 0.0712 0.09676 0.032 0.20221 0.0248 0.29373 -0.0201 0.09153 -0.0448 0.16185 -0.1237 0.1959 -0.2198 0.09243 -0.1712 0.20298 -0.332 0.32975 -0.4796 0.12576 -0.1373 0.2592 -0.2675 0.3997 -0.3897l0.36972 -0.3897c0.24336 -0.3164 0.5106 -0.6137 0.79939 -0.8893 0.06402 -0.0352 0.11357 -0.0918 0.1399 -0.1599h0.16987c0.09111 0.0027 0.17969 -0.0302 0.24688 -0.0918s0.10768 -0.147 0.11285 -0.238c-0.00476 -0.0806 -0.03892 -0.1566 -0.09601 -0.2137 -0.0571 -0.0571 -0.13315 -0.0913 -0.21376 -0.096 -0.85935 -0.1099 -0.99924 -0.8993 -0.80939 -1.5988 0.18986 -0.6995 0.6695 -1.2691 1.37896 -1.1791 0.33123 0.0218 0.64904 0.1392 0.91503 0.3378 0.26598 0.1986 0.46876 0.47 0.58384 0.7813 0.14288 0.3084 0.17518 0.6566 0.09146 0.986 -0.08371 0.3294 -0.27833 0.6199 -0.55111 0.8227 -0.1263 0.0982 -0.2732 0.1665 -0.42968 0.1998 -0.19436 0.0407 -0.39138 0.0674 -0.58955 0.0799 -0.10161 0.0052 -0.19716 0.0499 -0.26624 0.1246 -0.06909 0.0747 -0.10622 0.1734 -0.10348 0.2751 0.00126 0.0508 0.01269 0.1008 0.0336 0.147 0.02091 0.0463 0.05089 0.0879 0.08815 0.1223 0.03726 0.0345 0.08106 0.0611 0.1288 0.0784 0.04774 0.0173 0.09845 0.0248 0.14914 0.0221 0.28782 0.0145 0.57634 -0.0057 0.85936 -0.06h0.13989c0.2598 0.2298 0.46964 0.4797 0.68948 0.6995l0.3997 0.3997c0.14691 0.1221 0.28701 0.2522 0.41968 0.3897 0.13105 0.1501 0.24499 0.3143 0.33974 0.4896 0.025 0.0729 0.07214 0.1362 0.13484 0.181 0.06271 0.0448 0.13784 0.0688 0.2149 0.0688 -0.31662 0.5522 -0.52677 1.1589 -0.61953 1.7887 -0.02341 0.0507 -0.03563 0.1059 -0.03584 0.1618 -0.00021 0.0559 0.0116 0.1111 0.03463 0.162 0.02303 0.051 0.05674 0.0963 0.09884 0.1331 0.04211 0.0367 0.09162 0.0639 0.14518 0.0799 0.05356 0.0159 0.10992 0.0201 0.16526 0.0123 0.05533 -0.0077 0.10835 -0.0273 0.15545 -0.0574 0.0471 -0.03 0.08719 -0.0699 0.11754 -0.1168 0.03036 -0.0469 0.05027 -0.0998 0.05838 -0.1551 0.31371 -0.6767 0.76259 -1.282 1.319 -1.7786l0.46965 -0.4397c0.24164 -0.2212 0.49874 -0.4249 0.76944 -0.6096 0.0333 0.0018 0.0666 0.0018 0.0999 0 0.5123 0.0902 1.0365 0.0902 1.5488 0 0.0294 0.0087 0.0606 0.0087 0.09 0 0.0499 0.0714 0.1224 0.1239 0.2057 0.1493 0.0833 0.0253 0.1727 0.022 0.2539 -0.0094 0.1464 -0.0679 0.2868 -0.1481 0.4197 -0.2398 0.2971 0.2228 0.5808 0.463 0.8494 0.7195 0.1598 0.1599 0.2997 0.3197 0.4296 0.4696 0.4988 0.586 0.8758 1.2653 1.1092 1.9985 0.0148 0.0494 0.0393 0.0953 0.072 0.1352 0.0327 0.0398 0.073 0.0728 0.1186 0.097 0.0455 0.0241 0.0954 0.039 0.1467 0.0438 0.0514 0.0047 0.1031 -0.0008 0.1523 -0.0162 0.0974 -0.026 0.1813 -0.0878 0.235 -0.173 0.0538 -0.0852 0.0733 -0.1876 0.0548 -0.2866 -0.0456 -0.6515 -0.1801 -1.2936 -0.3997 -1.9086 -0.0602 -0.1253 -0.1304 -0.2456 -0.2098 -0.3597 0.0899 0.0202 0.1841 0.007 0.2649 -0.0372 0.0809 -0.0441 0.143 -0.1161 0.1747 -0.2026 0.0984 -0.17 0.2121 -0.3305 0.3398 -0.4797 0.1099 -0.1399 0.2598 -0.2398 0.3897 -0.3797 0.1299 -0.1399 0.2498 -0.2398 0.3697 -0.3797 0.2436 -0.3131 0.5109 -0.6071 0.7994 -0.8793 0.069 -0.0317 0.1228 -0.0891 0.1499 -0.1599h0.1699c0.0901 0 0.1765 -0.0358 0.2402 -0.0995s0.0995 -0.1502 0.0995 -0.2403c0 -0.0901 -0.0358 -0.1765 -0.0995 -0.2402s-0.1501 -0.0995 -0.2402 -0.0995c-0.8494 -0.1099 -0.9993 -0.8993 -0.8094 -1.5988 0.1898 -0.6995 0.6795 -1.269 1.3889 -1.1791 0.3299 0.0225 0.6461 0.1402 0.9104 0.3389 0.2642 0.1986 0.4652 0.4697 0.5785 0.7802 0.1561 0.3064 0.2005 0.6575 0.1257 0.993 -0.0747 0.3356 -0.264 0.6346 -0.5354 0.8457 -0.131 0.0965 -0.2808 0.1645 -0.4397 0.1998 -0.1909 0.0408 -0.3846 0.0675 -0.5795 0.0799 -0.1016 0.0052 -0.1972 0.0499 -0.2663 0.1246 -0.069 0.0747 -0.1062 0.1734 -0.1034 0.2751 -0.0001 0.0503 0.0101 0.1001 0.0299 0.1463 0.0198 0.0462 0.0488 0.0879 0.0853 0.1225 0.0365 0.0346 0.0796 0.0614 0.1268 0.0788 0.0472 0.0173 0.0975 0.0249 0.1477 0.0222 0.2911 0.0145 0.5829 -0.0056 0.8693 -0.06h0.1399c0.2598 0.2298 0.4696 0.4697 0.6895 0.6895 0.2198 0.2198 0.2698 0.2598 0.3997 0.3897 0.1299 0.1299 0.2898 0.2398 0.4197 0.3897 0.1267 0.1499 0.2404 0.3103 0.3397 0.4796 0.0137 0.049 0.0372 0.0948 0.0689 0.1345 0.0317 0.0398 0.0712 0.0728 0.1159 0.097 0.0447 0.0243 0.0939 0.0393 0.1445 0.0441 0.0507 0.0049 0.1018 -0.0005 0.1503 -0.0158 0.0975 -0.03 0.1793 -0.0971 0.2279 -0.1867 0.0485 -0.0897 0.06 -0.1948 0.0319 -0.2929 -0.048 -0.4575 -0.1909 -0.8999 -0.4196 -1.299 -0.0987 -0.192 -0.2268 -0.3673 -0.3798 -0.5196Zm-11.5812 0.3397c-0.2004 -0.2547 -0.33218 -0.5565 -0.3829 -0.8766 -0.05073 -0.3201 -0.01867 -0.6478 0.09311 -0.952 0.06909 -0.2931 0.21319 -0.5633 0.41819 -0.784 0.2049 -0.2207 0.4637 -0.3844 0.7509 -0.475 0.4647 -0.1664 0.9755 -0.1482 1.4272 0.0507s0.8099 0.5634 1.001 1.0184c1.1291 2.698 -2.648 2.748 -3.3075 2.0185Z" clip-rule="evenodd" stroke-width="1"></path>
  <path fill="#000000" fill-rule="evenodd" d="M2.53293 13.1204c0.14988 0 0.19985 0.1399 0.87933 -1.339 0.08993 -0.1898 0.15988 -0.3997 0.22983 -0.5895 0.45965 -1.19913 0.60954 -1.25908 0.37971 -1.48891 -0.44966 -0.3997 -1.40893 0.84941 -1.41893 0.87931 -0.10864 0.1379 -0.1993 0.289 -0.26979 0.4497 -0.06823 0.1639 -0.11848 0.3348 -0.14989 0.5096 -0.05995 0.2998 -0.10992 1.5388 0.34974 1.5788Z" clip-rule="evenodd" stroke-width="1"></path>
  <path fill="#000000" fill-rule="evenodd" d="M22.8176 10.992c-0.0667 -0.1605 -0.154 -0.3117 -0.2598 -0.4496 0 0 -0.9992 -1.27906 -1.4189 -0.87937 -0.2498 0.22983 -0.1099 0.30977 0.3497 1.48887 0.0799 0.1899 0.1499 0.3997 0.2298 0.5896 0.6895 1.4788 0.7295 1.3489 0.8894 1.339 0.4596 0 0.3997 -1.2791 0.3597 -1.5789 -0.0271 -0.1757 -0.0775 -0.3471 -0.1499 -0.5096Z" clip-rule="evenodd" stroke-width="1"></path>
  <path fill="#000000" fill-rule="evenodd" d="M6.02025 8.71374c0.09535 -0.04358 0.18579 -0.09718 0.2698 -0.15988 0.08825 -0.05201 0.16894 -0.1159 0.23982 -0.18986 0.75942 -0.66949 0.89932 -0.71946 0.7894 -0.99924 0 -0.10992 -0.15988 -0.47964 -1.39894 -0.04997 -0.12298 0.04237 -0.24041 0.09941 -0.34974 0.16988 -0.10527 0.06883 -0.20247 0.14927 -0.28978 0.23981 -0.15988 0.17987 -0.74943 0.99925 -0.50961 1.23907 0.08993 0.07994 0.14988 0.24981 1.24905 -0.24981Z" clip-rule="evenodd" stroke-width="1"></path>
  <path fill="#000000" fill-rule="evenodd" d="M18.5908 8.36398c0.075 0.06932 0.1551 0.1328 0.2398 0.18986 0.0875 0.06282 0.1813 0.1164 0.2798 0.15988 1.1092 0.49962 1.1691 0.32975 1.2491 0.23982 0.2398 -0.2598 -0.3598 -1.0592 -0.5097 -1.23907 -0.0908 -0.09063 -0.1914 -0.17105 -0.2997 -0.23981 -0.1083 -0.07241 -0.2259 -0.12957 -0.3498 -0.16988 -1.229 -0.42967 -1.3589 -0.05995 -1.3989 0.04997 -0.0999 0.28978 0.04 0.33974 0.7894 1.00923Z" clip-rule="evenodd" stroke-width="1"></path>
</svg>