<svg xmlns="http://www.w3.org/2000/svg" fill="none" viewBox="0 0 24 24" id="Desk-Computer-Base-Work-Standing-User-1--Streamline-Freehand">
  <desc>
    Desk Computer Base Work Standing User 1 Streamline Icon: https://streamlinehq.com
  </desc>
  <path fill="#000000" fill-rule="evenodd" d="M7.29974 7.05826C6.59425 4.94359 6.03099 2.7841 5.61374 0.594258 5.59763 0.49504 5.6189 0.393375 5.67343 0.308937c0.05453 -0.084438 0.13845 -0.145645 0.23551 -0.171777 0.09706 -0.026132 0.20036 -0.015329 0.28992 0.030316 0.08955 0.045646 0.15899 0.122889 0.19488 0.216782C7.66713 3.52937 8.65316 6.78332 9.33974 10.1063c0.01551 0.1032 -0.00722 0.2085 -0.06392 0.2961 -0.0567 0.0876 -0.14345 0.1515 -0.24395 0.1796 -0.10049 0.0282 -0.20781 0.0186 -0.30175 -0.0268 -0.09395 -0.0455 -0.16806 -0.1237 -0.20838 -0.2199 -0.30779 -0.7446 -0.59754 -1.49649 -0.869 -2.25504 -0.75487 1.05279 -1.28706 2.24854 -1.564 3.51404 2.765 -0.001 5.52796 0.16 8.27596 0.481 0.1137 -0.0067 0.2253 0.0321 0.3104 0.1078 0.085 0.0757 0.1365 0.182 0.1431 0.2957 0.0067 0.1136 -0.0321 0.2252 -0.1078 0.3103 -0.0757 0.085 -0.182 0.1365 -0.2957 0.1432 -1.5172 -0.0858 -3.0363 -0.1358 -4.55596 -0.15C11 16.1138 11.6298 19.599 11.7267 23.1193c0.0001 0.0709 -0.0175 0.1408 -0.0512 0.2033 -0.0337 0.0624 -0.0824 0.1156 -0.1417 0.1545 -0.0593 0.039 -0.1274 0.0626 -0.1981 0.0688 -0.0707 0.0061 -0.1418 -0.0055 -0.207 -0.0336 -0.11 0.236 -0.724 0.239 -4.36996 0.256 -1.328 0.006 -3.058 0.014 -5.312 0.036 -0.16764 -0.0029 -0.32735 -0.0719 -0.44439 -0.1919 -0.117046 -0.1201 -0.181956 -0.2815 -0.180613 -0.4491 0.008 -1.661 0.041 -3.543 0.118 -5.423l0.017 -0.424c0.204003 -5.009 0.226003 -5.54 0.937003 -5.596 1.04733 -0.0627 2.09592 -0.102 3.145 -0.118 -0.07649 -0.892 0.09401 -1.78783 0.49282 -2.58934 0.39881 -0.8015 1.01055 -1.47777 1.76818 -1.9547Zm-4.748 5.93004c-0.227 2.753 -0.399 6.844 -0.453 9.572 1.342 0.044 2.485 0.08 3.46 0.11 3.445 0.108 4.77496 0.149 5.28396 0.278 -0.207 -1.204 -1.53296 -8.188 -1.92296 -10.17 -2.124 0 -4.248 0.07 -6.368 0.21Z" clip-rule="evenodd" stroke-width="1"></path>
  <path fill="#000000" fill-rule="evenodd" d="M20.6437 0.0462356c-5.33 -0.6329996 -6.115 5.4340044 -1.945 6.7160044 0.7852 0.22021 1.6224 0.16156 2.3692 -0.16597 0.7467 -0.32753 1.357 -0.9037 1.7268 -1.63047 0.3698 -0.72678 0.4763 -1.55923 0.3015 -2.35572 -0.1748 -0.79648 -0.6203 -1.50778 -1.2605 -2.012844 -0.0893 -0.070548 -0.2031 -0.102701 -0.3162 -0.089386 -0.1131 0.013315 -0.2162 0.071008 -0.2868 0.160386 -0.0705 0.089377 -0.1027 0.20312 -0.0893 0.316204 0.0133 0.11308 0.071 0.21625 0.1603 0.2868 0.3996 0.36932 0.6661 0.86026 0.758 1.39657 0.092 0.53631 0.0042 1.08797 -0.2496 1.56929 -0.2537 0.48133 -0.6593 0.86539 -1.1538 1.09253 -0.4944 0.22714 -1.0501 0.28466 -1.5806 0.16361 -2.618 -0.78 -2.515 -4.670004 1.514 -4.637004 0.1056 0.003749 0.2085 -0.03382 0.2869 -0.104725 0.0783 -0.070905 0.1259 -0.16956 0.1327 -0.275009 0.0068 -0.105449 -0.0278 -0.209383 -0.0965 -0.289724 -0.0686 -0.08034 -0.1659 -0.1307579 -0.2711 -0.1405424Z" clip-rule="evenodd" stroke-width="1"></path>
  <path fill="#000000" fill-rule="evenodd" d="M22.0017 9.05023c-1.419 -2.078 -3.51 -0.622 -4.577 -0.447 -1.1665 -0.03405 -2.3272 -0.17734 -3.467 -0.428 -3.45 -0.082 -3.576 4.36397 0.668 4.84397 4.575 0.507 2.796 -3.20497 3.39 7.49 0.096 1.828 0.274 3.647 2.412 3.48 2.07 -0.155 2.428 -2.124 2.588 -4.19 0.118 -1.494 0.23 -8.916 -1.014 -10.74897Zm-0.737 0.518c-1.028 -1.399 -2.373 -0.171 -3.644 0.088 -1.231 0.02 -2.462 -0.08 -3.674 -0.298 -2.032 0.017 -1.636 2.11697 0.818 2.36997 5.456 0.563 3.898 -4.21897 4.566 8.713 0.063 1.323 -0.057 2.343 1.015 2.277 1.888 -0.12 1.637 -5.316 1.637 -7.192 0.2679 -2.0147 0.0209 -4.0645 -0.718 -5.95797Z" clip-rule="evenodd" stroke-width="1"></path>
</svg>