<svg xmlns="http://www.w3.org/2000/svg" fill="none" viewBox="0 0 24 24" id="Office-Folder--Streamline-Freehand">
  <desc>
    Office Folder Streamline Icon: https://streamlinehq.com
  </desc>
  <path fill="#000000" fill-rule="evenodd" d="M19.895 12.3919c-1.6264 -0.2395 -9.5987 0.1197 -10.27722 0.1197 -0.89801 0 -0.79823 0.2794 -0.99779 -0.5089 -0.04059 -0.715 -0.25278 -1.4098 -0.61863 -2.02549 -0.80821 -0.80821 -6.16633 0 -6.82487 1.41689 -0.329272 0.6884 0.38914 2.3747 0.60865 3.0931 0.5772 2.3786 1.32413 4.7127 2.23505 6.9845 0.03307 0.0728 0.09371 0.1295 0.16856 0.1575 0.07484 0.0281 0.15778 0.0253 0.23055 -0.0078s0.12943 -0.0937 0.15749 -0.1686c0.02807 -0.0748 0.02526 -0.1577 -0.00782 -0.2305 -0.8271 -2.2517 -1.49396 -4.559 -1.99558 -6.9047 -0.30083 -0.8062 -0.49538 -1.6481 -0.57872 -2.5045 0.3193 -0.6385 3.17297 -1.1075 3.99116 -1.0975l1.38692 0.0598c0.23947 0.3493 0.17961 1.9956 0.77828 2.6043 0.59867 0.6086 4.25057 0.0598 8.84037 0.1796 0.1996 0 3.2329 -0.2096 3.622 0.2594 0.3891 0.469 -0.2794 2.9335 -0.429 3.4823 -0.3393 1.2771 -0.7384 4.1009 -1.357 5.1685 -0.1597 0.2794 -0.1297 0.459 -1.826 0.5987 -2.2051 0.1896 -3.7018 -0.0599 -8.19183 0l-2.14525 -0.1197c-0.54878 0 -1.08759 -0.2595 -1.17739 0.2095 -0.12971 0.7284 1.15744 0.3991 8.89027 0.7982 1.4806 0.1123 2.9697 0.0081 4.4202 -0.3093 1.357 -0.4989 1.7661 -4.1308 2.3249 -6.0865 0.3392 -1.1574 0.9978 -3.5621 0.2694 -4.49 -0.4066 -0.3908 -0.9349 -0.6303 -1.4967 -0.6785Z" clip-rule="evenodd" stroke-width="1"></path>
  <path fill="#000000" fill-rule="evenodd" d="M5.59667 8.35086c0.12972 0.42905 0.50888 0.39912 0.61863 0.14967 0.20954 -0.45898 -0.13969 -1.37695 -0.13969 -1.3969 0 -0.01996 -0.33925 -4.11089 0.00998 -5.19848 0.25943 -0.78825 2.79381 -0.7683 3.62197 -0.77828 1.23724 0 8.26164 0.25943 8.82044 1.05766 0.1597 0.23947 0.0798 0.60865 0 0.99779 -0.2085 2.4015 -0.6021 4.78332 -1.1774 7.12418 -0.0149 0.0449 -0.0202 0.0925 -0.0156 0.1395 0.0046 0.0471 0.0189 0.0927 0.0422 0.1339 0.0232 0.0413 0.0548 0.0771 0.0928 0.1054 0.0379 0.0283 0.0813 0.0483 0.1275 0.0588 0.0461 0.0105 0.0939 0.0112 0.1403 0.0021 0.0465 -0.0091 0.0905 -0.0278 0.1292 -0.0549 0.0388 -0.0271 0.0715 -0.062 0.096 -0.1025 0.0244 -0.0405 0.0402 -0.0857 0.0462 -0.1326 0.6685 -2.35167 1.1621 -4.74959 1.4767 -7.1741 0.0861 -0.27937 0.1163 -0.57296 0.0889 -0.86401 -0.0273 -0.29105 -0.1118 -0.57385 -0.2486 -0.83223 -0.5487 -0.888035 -2.1751 -0.977836 -3.1829 -1.137482C13.559 0.0791961 8.63993 -0.399742 6.20532 0.57809c-1.05765 0.419071 -1.07761 1.19735 -1.09756 2.255 0.02857 1.8487 0.19198 3.69285 0.48891 5.51777Z" clip-rule="evenodd" stroke-width="1"></path>
  <path fill="#000000" fill-rule="evenodd" d="M22.7886 5.31759c-0.4434 -0.60868 -1.0859 -1.0429 -1.816 -1.22728 -0.0694 -0.02186 -0.1444 -0.0177 -0.2109 0.0117 -0.0666 0.0294 -0.1201 0.08203 -0.1507 0.14805 -0.0306 0.06602 -0.036 0.14091 -0.0154 0.21067 0.0206 0.06976 0.066 0.12962 0.1275 0.16839 1.6464 0.93792 1.1774 1.26719 0.918 1.83593 -0.4856 1.4186 -1.0829 2.79653 -1.786 4.12085 -0.045 0.0781 -0.0571 0.1708 -0.0338 0.2578 0.0234 0.087 0.0804 0.1612 0.1585 0.2062 0.0781 0.045 0.1708 0.0571 0.2578 0.0337 0.087 -0.0234 0.1612 -0.0804 0.2062 -0.1584 0.4091 -0.7584 3.0532 -4.24064 2.3448 -5.60761Z" clip-rule="evenodd" stroke-width="1"></path>
  <path fill="#000000" fill-rule="evenodd" d="M16.5225 5.25767c0.0653 -0.02659 0.1225 -0.07003 0.1656 -0.12591s0.0706 -0.12219 0.0798 -0.19217c0.0091 -0.06998 -0.0005 -0.14114 -0.0278 -0.2062 -0.0274 -0.06507 -0.0715 -0.12172 -0.1278 -0.16419 -0.1796 -0.16963 -0.6187 -0.21951 -1.9058 -0.39912 -1.3891 -0.1923 -2.7967 -0.21241 -4.1907 -0.05986 -1.6364 0 -1.71622 0 -1.9956 0.13969 -0.0375 0.03846 -0.06355 0.08659 -0.07524 0.13902 -0.0117 0.05243 -0.00856 0.10708 0.00904 0.15783 0.01761 0.05074 0.049 0.09559 0.09064 0.12951 0.04165 0.03392 0.09192 0.05558 0.14518 0.06255l0.56874 0.07983c1.77454 0.34048 3.58674 0.44116 5.38804 0.29933 0.0699 0.00998 1.796 0.1796 1.8759 0.13969Z" clip-rule="evenodd" stroke-width="1"></path>
  <path fill="#000000" fill-rule="evenodd" d="M16.0535 7.81207c-0.5955 -0.285 -1.2456 -0.43815 -1.9058 -0.449 -1.0084 -0.1688 -2.0316 -0.23233 -3.0532 -0.18958 -1.09755 0.07982 -2.90355 -0.18958 -2.67406 0.52883 0.0124 0.03737 0.03205 0.07193 0.05784 0.1017 0.02578 0.02977 0.05718 0.05415 0.0924 0.07177 0.03522 0.01761 0.07357 0.0281 0.11285 0.03086 0.03929 0.00276 0.07873 -0.00225 0.11607 -0.01476 0.53881 -0.12971 0.73836 0.37917 5.2783 0.43903 0.5375 -0.07981 1.0849 -0.06291 1.6164 0.04989 0.0371 0.03091 0.0804 0.05353 0.127 0.06636 0.0465 0.01284 0.0953 0.01558 0.143 0.00805 0.0477 -0.00753 0.0933 -0.02516 0.1336 -0.05171 0.0403 -0.02654 0.0746 -0.0614 0.1003 -0.10223 0.0258 -0.04084 0.0426 -0.08671 0.0492 -0.13454 0.0067 -0.04784 0.003 -0.09654 -0.0107 -0.14286 -0.0137 -0.04631 -0.0371 -0.08916 -0.0687 -0.12569 -0.0316 -0.03653 -0.0706 -0.06589 -0.1145 -0.08612Z" clip-rule="evenodd" stroke-width="1"></path>
  <path fill="#000000" fill-rule="evenodd" d="M1.94477 6.03602c0.2883 0.69186 0.5414 1.39786 0.75832 2.11531 0.00794 0.07939 0.04709 0.15237 0.10884 0.2029 0.06175 0.05052 0.14104 0.07444 0.22043 0.0665 0.07939 -0.00794 0.15237 -0.04709 0.20289 -0.10884 0.05053 -0.06175 0.07445 -0.14104 0.06651 -0.22043 -0.07202 -1.04667 -0.23562 -2.08501 -0.48891 -3.10312 -0.12972 -0.60865 -0.52883 -0.99779 1.52661 -1.70622 0.08338 -0.02477 0.15406 -0.08062 0.19744 -0.15602 0.04337 -0.07539 0.05613 -0.16457 0.03564 -0.2491 -0.02049 -0.08454 -0.07267 -0.15797 -0.14576 -0.20513 -0.07309 -0.04716 -0.1615 -0.06445 -0.24696 -0.04829 -2.68405 0.36918 -2.97341 1.36697 -2.23505 3.41244Z" clip-rule="evenodd" stroke-width="1"></path>
</svg>