<svg xmlns="http://www.w3.org/2000/svg" fill="none" viewBox="0 0 24 24" id="Office-Paper-Binder--Streamline-Freehand">
  <desc>
    Office Paper Binder Streamline Icon: https://streamlinehq.com
  </desc>
  <path fill="#000000" fill-rule="evenodd" d="M9.51443 1.47195c-0.58493 -0.1308 -1.19205 -0.12577 -1.77473 0.0147 -0.58267 0.14047 -1.1254 0.41263 -1.58647 0.79558 -0.50234 0.36866 -0.90466 0.85693 -1.17042 1.42051 -0.29442 0.62575 -0.34784 1.33806 -0.15005 2.00072 0.15742 0.49376 0.44002 0.93835 0.82029 1.29046 0.37852 0.34229 0.83544 0.58621 1.33047 0.71025 0.14993 0.04763 0.304 0.08112 0.46017 0.10004 0.13988 0.00981 0.28027 0.00981 0.42015 0v0.42015l0.22008 0.77027c0.06002 0.40015 0.91032 0.62022 0.78028 0l-0.06003 -0.80028c0.01469 -0.23319 0.01469 -0.46707 0 -0.70025 -0.02423 -0.17908 -0.08926 -0.3502 -0.19006 -0.50018 -0.04158 -0.05642 -0.09393 -0.10404 -0.15403 -0.1401 -0.0601 -0.03606 -0.12675 -0.05984 -0.1961 -0.06998h-0.2801l-0.65023 -0.15005c-0.30416 -0.12282 -0.57993 -0.30667 -0.81029 -0.54019 -0.24114 -0.20801 -0.42677 -0.47271 -0.54019 -0.77028 -0.06488 -0.23152 -0.08325 -0.4736 -0.05406 -0.71226 0.02919 -0.23866 0.10536 -0.46917 0.22412 -0.67824 0.16159 -0.32783 0.37813 -0.62557 0.64023 -0.88031 0.32109 -0.3498 0.71776 -0.62172 1.15981 -0.79508 0.44204 -0.17335 0.91782 -0.24356 1.3911 -0.20528 0.08345 0.01824 0.17073 0.00342 0.24349 -0.04136 0.07275 -0.04477 0.12532 -0.116 0.14665 -0.19872 0.00816 -0.07338 -0.00929 -0.14732 -0.0494 -0.20931 -0.0401 -0.06198 -0.1004 -0.1082 -0.17068 -0.13081Z" clip-rule="evenodd" stroke-width="1"></path>
  <path fill="#000000" fill-rule="evenodd" d="M6.28328 15.0868c-0.26009 1.0904 -0.50017 2.1808 -0.80028 3.2612 -0.30416 1.1617 -0.66811 2.307 -1.09039 3.4312 -0.01975 0.0439 -0.03049 0.0913 -0.03158 0.1395 -0.0011 0.0481 0.00746 0.096 0.02518 0.1407 0.01772 0.0448 0.04424 0.0856 0.07798 0.1199 0.03375 0.0344 0.07404 0.0616 0.11849 0.0801 0.08902 0.0371 0.18902 0.038 0.27871 0.0025 0.08968 -0.0355 0.16197 -0.1046 0.20146 -0.1926 0.65423 -1.2923 1.21584 -2.6295 1.6806 -4.0014 0.19007 -0.5802 0.36013 -1.1804 0.51018 -1.7807 0.15407 -0.5968 0.27761 -1.2012 0.37013 -1.8106 0.08742 -1.1742 0.27483 -2.3389 0.5602 -3.4812 0.14005 -0.1501 0.43016 -0.1201 0.64023 -0.1001 0.21008 0.02 0.20007 0 0.39014 0h0.58021c0.47016 -0.05 0.91036 -0.12 1.37046 -0.16 0.0955 0.0066 0.1898 -0.025 0.262 -0.0878 0.0722 -0.0629 0.1165 -0.1518 0.1232 -0.2474 0.0066 -0.0955 -0.025 -0.1897 -0.0878 -0.2619 -0.0629 -0.0723 -0.1518 -0.1166 -0.2474 -0.1232 -0.4637 -0.12064 -0.9349 -0.21087 -1.41046 -0.27009 -0.19979 -0.01502 -0.40042 -0.01502 -0.60021 0l-0.94034 0.08003c-0.25269 0.01262 -0.494 0.1089 -0.68597 0.27366 -0.19196 0.1648 -0.32368 0.3888 -0.37441 0.6367 -0.22008 1.1304 -0.68024 3.3612 -0.92033 4.3515Z" clip-rule="evenodd" stroke-width="1"></path>
  <path fill="#000000" fill-rule="evenodd" d="M3.59233 22.4995c-0.12842 -0.2018 -0.23569 -0.4164 -0.32011 -0.6402 -0.2681 -0.6893 -0.48216 -1.3983 -0.64023 -2.1208 -0.13005 -0.4802 -0.24009 -1.0003 -0.36013 -1.4405 -0.19007 -0.7103 -0.37013 -1.4205 -0.53019 -2.1408 -0.16006 -0.7202 -0.38014 -1.5805 -0.50018 -2.3908 -0.13554 -0.6607 -0.2324 -1.3288 -0.290103 -2.0007 -0.025997 -0.3803 0.011186 -0.7623 0.110043 -1.1304 0.8603 0.06 1.7006 0.16 2.55091 0.19h2.72097c0.63022 0 0.87031 -0.8203 0.11004 -1.11036 -0.37294 -0.02804 -0.74746 -0.02804 -1.1204 0 -0.3332 0.01843 -0.66716 0.01843 -1.00036 0 -0.33319 -0.01879 -0.66717 -0.01879 -1.00036 0 -0.80028 0.07002 -1.58056 0.22008 -2.380847 0.34016 -0.04519 -0.0001 -0.089717 0.0108 -0.129782 0.0317s-0.074477 0.0512 -0.1003 0.0883c-0.055584 0.0085 -0.107962 0.0314 -0.151864 0.0665 -0.043902 0.0351 -0.07778 0.0812 -0.098225 0.1336 -0.183809 0.465 -0.278816 0.9604 -0.2801 1.4605 -0.009289 0.6983 0.024118 1.3965 0.100036 2.0907 0.061096 1.0319 0.194808 2.0581 0.400142 3.0711 0.240086 1.0004 0.58021 2.0008 0.92033 3.0011 0.26423 0.7423 0.58183 1.4644 0.95034 2.1608 0.21007 0.3701 0.39014 0.6302 0.5602 0.8803 0.40014 0.6702 0.87031 0.03 0.48017 -0.5402Z" clip-rule="evenodd" stroke-width="1"></path>
  <path fill="#000000" fill-rule="evenodd" d="M23.2494 10.4252c-0.2686 -0.2182 -0.5891 -0.3629 -0.9304 -0.4202 -0.4103 -0.06234 -0.8256 -0.08578 -1.2404 -0.07002 -0.8403 0 -1.6906 0.05002 -2.5409 0 -0.3541 0.00354 -0.7082 -0.01316 -1.0604 -0.05002 -0.0845 -0.00864 -0.1692 0.01565 -0.2362 0.06783 -0.0671 0.05221 -0.1115 0.12821 -0.1239 0.21231 -0.0056 0.042 -0.0028 0.0848 0.0083 0.1258 0.0111 0.041 0.0302 0.0794 0.0563 0.1129s0.0586 0.0615 0.0955 0.0823c0.037 0.0209 0.0778 0.0342 0.12 0.0391 0.3601 0.06 0.7302 0.1 1.1104 0.13 0.8403 0.0801 1.6906 0.1001 2.5309 0.1701 0.2801 0 0.5902 0.05 0.9003 0.11 0.2186 0.0315 0.4235 0.1253 0.5902 0.2701 0.2001 0.1901 0.1701 0.5202 0.1501 0.8503 -0.0984 0.6775 -0.2489 1.3464 -0.4502 2.0008l-1.3105 5.9421c-0.1242 0.6623 -0.2981 1.3144 -0.5202 1.9507 -0.1384 0.3517 -0.342 0.6742 -0.6002 0.9503 -0.6402 0.06 -1.2904 0.1 -1.9307 0.11h-0.4801c0.07 -0.026 0.1296 -0.0744 0.1693 -0.1377 0.0398 -0.0633 0.0576 -0.1379 0.0507 -0.2124 -0.22 -2.0907 -0.3601 -4.2015 -0.5501 -6.3022 -0.0801 -0.9104 -0.1701 -1.8107 -0.2801 -2.711l-0.4202 -3.1011c-0.05 -0.4202 -0.13 -0.85031 -0.1601 -1.27046 -0.0247 -0.25616 -0.0247 -0.51411 0 -0.77027 0.0237 -0.24226 0.1424 -0.46528 0.3302 -0.62022 0.271 -0.19818 0.5589 -0.37224 0.8603 -0.52019 0.629 -0.33185 1.1758 -0.8001 1.6005 -1.37049 0.3181 -0.44545 0.4798 -0.98357 0.4602 -1.53055 -0.0218 -0.34478 -0.1031 -0.68321 -0.2401 -1.00035 -0.1923 -0.43838 -0.4376 -0.8516 -0.7302 -1.23044 -0.3714 -0.56023 -0.8308 -1.05679 -1.3605 -1.470527C16.738 0.4804 16.3109 0.270254 15.8567 0.141481c-1.2715 -0.302142 -2.61 -0.1165288 -3.7513 0.520186 -1.164 0.599263 -2.0525 1.623863 -2.4809 2.861023 -0.05057 0.16401 -0.09067 0.33108 -0.12004 0.50018 -0.01453 0.17643 -0.01453 0.35375 0 0.53019 -0.00774 0.47622 0.12067 0.94475 0.37013 1.35048 0.26721 0.41253 0.66001 0.72818 1.12041 0.90032 0.3201 0.12004 0.7002 0.18006 1.0003 0.32011 0.1394 0.04635 0.2638 0.12926 0.3602 0.24009 0.0472 0.07164 0.0748 0.15443 0.08 0.24009v0.47016c0.0045 0.58243 -0.0356 1.16433 -0.12 1.74063 -0.1201 0.92036 -0.3001 1.83066 -0.4202 2.72096 -0.2001 1.4705 -0.4301 2.9311 -0.6902 4.3916 -0.3302 2.0007 -0.7103 3.9214 -1.0804 5.8821h-0.28012c-1.32048 0.05 -2.62094 0.16 -3.94141 0.19H4.27259c-0.04204 -0.0023 -0.08404 0.0055 -0.12237 0.0229 -0.03834 0.0175 -0.07187 0.0439 -0.09771 0.0772l-0.07003 0.4801c1.44402 0.2464 2.9067 0.3669 4.37156 0.3602l1.63059 0.06h2.45087c1.5806 0 3.1111 0 4.6517 -0.06 1.0475 -0.0464 2.0905 -0.1668 3.1211 -0.3602 0 0 0.2 0.1101 0.8903 -1.3204 0.2861 -0.6473 0.5203 -1.3163 0.7002 -2.0007 0.3502 -1.1705 0.6903 -2.3409 1.0004 -3.5213 0.2101 -0.7903 0.3901 -1.5806 0.5902 -2.3608 0.2641 -0.8358 0.4089 -1.7047 0.4302 -2.581 0.0078 -0.2558 -0.039 -0.5104 -0.1373 -0.7467 -0.0984 -0.2363 -0.2459 -0.449 -0.4329 -0.6237ZM12.4855 22.7696h-1.6506c0.4102 -1.9107 0.8303 -3.8114 1.2105 -5.7221 0.3001 -1.4605 0.5802 -2.921 0.8203 -4.4016 0.15 -0.8803 0.3601 -1.7906 0.5101 -2.70092 0.1091 -0.63132 0.1693 -1.27011 0.1801 -1.91068 0.0191 -0.24638 0.0191 -0.49388 0 -0.74026 -0.041 -0.22615 -0.1297 -0.44098 -0.2601 -0.63023 -0.1605 -0.21436 -0.3652 -0.39175 -0.6002 -0.52019 -0.4173 -0.17858 -0.8449 -0.33224 -1.2805 -0.46016 -0.2193 -0.08617 -0.4051 -0.24046 -0.5302 -0.44016 -0.1271 -0.21813 -0.1896 -0.46795 -0.18 -0.72025l0.12 -0.68025c0.3326 -0.93025 1.0143 -1.69447 1.9007 -2.13076 0.8624 -0.48677 1.8747 -0.63647 2.841 -0.42015 0.4031 0.11983 0.7776 0.32067 1.1004 0.59021 0.3458 0.29529 0.6549 0.63116 0.9203 1.00036 0.2008 0.25358 0.3783 0.52478 0.5302 0.81029 0.1332 0.24358 0.2117 0.51327 0.2301 0.79028 0.0064 0.18365 -0.0239 0.36673 -0.0892 0.53851 -0.0653 0.17178 -0.1642 0.3288 -0.2909 0.46185 -0.3114 0.34043 -0.6763 0.62766 -1.0804 0.8503 -0.4547 0.22555 -0.8702 0.52278 -1.2304 0.88032 -0.2644 0.30596 -0.4254 0.68755 -0.4602 1.09039 -0.0357 0.33249 -0.0357 0.66786 0 1.00035 0.05 0.45016 0.14 0.89035 0.2101 1.33045l0.4801 3.0711c0.1301 0.8903 0.2501 1.7907 0.3502 2.681 0.24 2.1007 0.4201 4.2015 0.6902 6.3022 0.0082 0.0529 0.0288 0.1032 0.0601 0.1466 0.0313 0.0435 0.0724 0.079 0.12 0.1035 -1.5606 0 -3.0611 -0.11 -4.6217 -0.17Z" clip-rule="evenodd" stroke-width="1"></path>
</svg>