<svg xmlns="http://www.w3.org/2000/svg" fill="none" viewBox="0 0 24 24" id="Presentation-Projector-Screen-Budget-Analytics--Streamline-Freehand">
  <desc>
    Presentation Projector Screen Budget Analytics Streamline Icon: https://streamlinehq.com
  </desc>
  <path fill="#000000" fill-rule="evenodd" d="M23.93 2.73447c-0.0309 -0.44096 -0.1878 -0.86379 -0.4519 -1.21827 -0.2641 -0.35449 -0.6243 -0.625756 -1.038 -0.781589C21.1102 0.184648 19.0003 0.574622 17.4505 0.60462 14.8806 0.674615 10.001 0.74461 6.27122 0.844603c-2.48983 0.059996 -4.43969 0.159987 -4.84967 0.219987 -0.28781 0.04447 -0.569612 0.12163 -0.839938 0.22998 -0.176211 0.06981 -0.324033 0.19652 -0.419971 0.35998 -0.1175957 0.29543 -0.1720925 0.61219 -0.15998856 0.92993 0 0.65996 0.13999056 1.41991 0.11999156 1.89987 -0.000374 0.07463 0.027081 0.14671 0.077003 0.20218 0.049922 0.05547 0.118727 0.09034 0.192979 0.0978 0.074625 0.00038 0.14671 -0.02708 0.202178 -0.077 0.055469 -0.04992 0.090339 -0.11873 0.097801 -0.19298 0 -0.45997 -0.099993 -1.25991 -0.079995 -1.91987 -0.007295 -0.22925 0.033582 -0.45748 0.119992 -0.66995 0 -0.07 0.159989 -0.07 0.279978 -0.09999 0.17412 -0.048 0.35114 -0.08474 0.52997 -0.11 0.30998 -0.04999 1.49989 -0.06999 3.13978 -0.06999H17.4704c1.3279 -0.14941 2.6665 -0.17953 3.9998 -0.09 0.3466 0.00809 0.6783 0.14271 0.9325 0.37849 0.2541 0.23577 0.4133 0.5564 0.4474 0.90143l0.07 0.74994c0 0.14999 -0.14 0.18999 -0.25 0.21999 -0.2978 0.05171 -0.6022 0.05171 -0.8999 0 -1.3 0 -10.1293 0.25998 -15.61897 0.35997H2.2615c-0.07642 0.01346 -0.14565 0.05341 -0.19553 0.11285 -0.04988 0.05943 -0.07723 0.13454 -0.07723 0.21213 0 0.07759 0.02735 0.1527 0.07723 0.21214 0.04988 0.05943 0.11911 0.09938 0.19553 0.11284h5.86959c5.40961 0 12.48911 -0.06 13.64911 0 0.4931 0.04581 0.9904 -0.0121 1.4599 -0.16999 0.2045 -0.07769 0.3836 -0.21026 0.5177 -0.38314 0.134 -0.17288 0.2179 -0.37938 0.2422 -0.59679l-0.07 -0.92994Z" clip-rule="evenodd" stroke-width="1"></path>
  <path fill="#000000" fill-rule="evenodd" d="M21.8301 5.00432c-0.042 -0.0027 -0.0842 0.00291 -0.1241 0.01654 -0.0398 0.01362 -0.0766 0.03498 -0.1082 0.06285 -0.0316 0.02787 -0.0573 0.0617 -0.0758 0.09956 -0.0185 0.03785 -0.0293 0.07899 -0.0319 0.12103l-0.3599 9.9393c-0.0093 0.6691 -0.0594 1.3369 -0.15 1.9999 -0.0568 0.3698 -0.2162 0.7162 -0.46 0.9999 -0.1946 0.1949 -0.4473 0.3212 -0.72 0.36 -0.5252 0.0549 -1.0546 0.0549 -1.5798 0l-5.8496 -0.22c-0.92 0 -1.8499 -0.11 -2.77985 -0.14H8.37103l-2.74981 0.07c-0.69238 0.0502 -1.38748 0.0502 -2.07985 0 -0.37953 0.0053 -0.75201 -0.1026 -1.06993 -0.31 -0.08281 -0.0979 -0.12879 -0.2217 -0.12999 -0.3499 -0.02043 -0.3497 -0.02043 -0.7003 0 -1.05 0 -0.9099 -0.07 -3.8897 -0.06 -6.5395 0 -1.93989 0 -3.69977 0.11999 -4.32973 0.01048 -0.03825 0.0127 -0.07829 0.00653 -0.11747 -0.00617 -0.03918 -0.0206 -0.0766 -0.04232 -0.10978 -0.02172 -0.03319 -0.05024 -0.06138 -0.08368 -0.08271 -0.03344 -0.02133 -0.07102 -0.03531 -0.11027 -0.04102 -0.03925 -0.00571 -0.07926 -0.00301 -0.11739 0.00791 -0.03813 0.01092 -0.0735 0.02982 -0.10378 0.05544 -0.03027 0.02562 -0.05476 0.05738 -0.07184 0.09317 -0.01707 0.0358 -0.02635 0.07482 -0.02721 0.11447 -0.08999 0.50997 -0.15999 1.78988 -0.21998 3.29977 -0.11 2.86985 -0.17999 6.60955 -0.18999 7.66945 -0.0401 0.4491 -0.0401 0.9009 0 1.3499 0.04823 0.2768 0.18097 0.5317 0.37997 0.73 0.34169 0.2743 0.74786 0.4568 1.17992 0.5299 0.86522 0.1452 1.74369 0.1955 2.61982 0.15l2.76981 -0.05h1.16992l1.38995 0.08c0.0024 0.0166 0.0024 0.0335 0 0.05 -0.005 0.09 -0.005 0.1801 0 0.27 -0.0099 0.0897 -0.0099 0.1803 0 0.27 0.0106 0.0583 0.0273 0.1152 0.05 0.17 -0.3801 0.0926 -0.7266 0.2901 -1 0.5699 -0.27097 0.2727 -0.45236 0.6215 -0.51994 1 -0.02497 0.2278 -0.00036 0.4584 0.07213 0.6759 0.07249 0.2174 0.19115 0.4167 0.34784 0.584 0.36677 0.3312 0.83647 0.526 1.33007 0.5515 0.4935 0.0255 0.9808 -0.1198 1.3797 -0.4115 0.2099 -0.1528 0.3783 -0.3556 0.49 -0.59 0.1351 -0.2995 0.1758 -0.6331 0.1169 -0.9563 -0.059 -0.3233 -0.2148 -0.6209 -0.4469 -0.8536 -0.2368 -0.259 -0.5417 -0.4461 -0.8799 -0.5399 0 -0.06 0 -0.13 0.07 -0.2 0.0103 -0.093 0.0103 -0.1869 0 -0.28 0.0099 -0.0897 0.0099 -0.1802 0 -0.27h0.36l5.8596 0.16c0.6007 0.0414 1.2041 0.018 1.7998 -0.07 0.4764 -0.0854 0.9118 -0.3242 1.2399 -0.6799 0.3574 -0.4237 0.5864 -0.9406 0.66 -1.4899 0.0908 -0.6995 0.1309 -1.4046 0.12 -2.1099 0.09 -2.1798 0 -5.34961 0.07 -7.99943 0 -0.71995 0 -1.3899 0.06 -1.99986 -0.0134 -0.07078 -0.0504 -0.13495 -0.1048 -0.18213 -0.0545 -0.04719 -0.1232 -0.07462 -0.1952 -0.07786ZM12.3408 22.2531c-0.0539 0.1597 -0.155 0.2992 -0.29 0.4 -0.07 0.05 -1 0.52 -1.5099 -0.16 -0.0534 -0.078 -0.0891 -0.1668 -0.1046 -0.26 -0.0156 -0.0933 -0.0106 -0.1888 0.0146 -0.2799 0.0526 -0.1767 0.1572 -0.3335 0.3 -0.45 0.1425 -0.1311 0.3137 -0.227 0.4999 -0.28 0.1435 -0.0333 0.293 -0.0297 0.4347 0.0105 0.1416 0.0402 0.2708 0.1157 0.3753 0.2195 0.1219 0.0895 0.2138 0.2139 0.2638 0.3566 0.05 0.1428 0.0556 0.2973 0.0162 0.4433Z" clip-rule="evenodd" stroke-width="1"></path>
  <path fill="#000000" fill-rule="evenodd" d="M5.81122 11.7542v1.52c0 1.18 0.12 2.35 0.18 3.54 0.01345 0.0764 0.05341 0.1457 0.11285 0.1956 0.05944 0.0499 0.13455 0.0772 0.21215 0.0772s0.15271 -0.0273 0.21215 -0.0772c0.05944 -0.0499 0.09939 -0.1192 0.11285 -0.1956 0 -0.49 0 -1 0.07 -1.46h3.59998l1.19 -0.11c0.93 -0.11 1.85 -0.27 2.78 -0.45 0.0418 -0.0048 0.0823 -0.0181 0.1188 -0.0391 0.0365 -0.0209 0.0684 -0.0491 0.0936 -0.0828 0.0253 -0.0337 0.0434 -0.0722 0.0533 -0.1131 0.0099 -0.0409 0.0114 -0.0835 0.0043 -0.125 -0.0124 -0.084 -0.0568 -0.16 -0.1238 -0.2122 -0.0671 -0.0521 -0.1517 -0.0764 -0.2362 -0.0678 -1 0.06 -1.89 0 -2.84 0.07 -0.63 0 -1.26 0 -1.88998 0.1 -0.92 0.08 -1.81 0.24 -2.71 0.4 0 -0.47 0 -0.95 0.07 -1.43v-0.73c1.22 -0.12 2.44 -0.14 3.67998 -0.19 0.87 0 1.74 -0.07 2.6 -0.12 1.47 -0.1 2.92 -0.25 4.37 -0.43 0.0849 -0.0066 0.1636 -0.0467 0.219 -0.1114 0.0553 -0.0647 0.0826 -0.1487 0.076 -0.2336 -0.0066 -0.0848 -0.0467 -0.1636 -0.1114 -0.2189 -0.0647 -0.0553 -0.1487 -0.0827 -0.2336 -0.0761h-3.92c-0.88 0 -1.76 0 -2.63 0.11 -1.3463 0.1274 -2.68261 0.3445 -3.99998 0.65v-1.7c0 -0.30997 0 -0.61997 -0.06 -0.93997 0.46861 0.09671 0.9429 0.16352 1.42 0.2 0.29648 0.01499 0.59352 0.01499 0.89 0l0.87998 -0.06c0.68 -0.08 1.35 -0.2 2 -0.31 0.0849 0 0.1663 -0.03372 0.2263 -0.09373 0.06 -0.06001 0.0937 -0.1414 0.0937 -0.22627s-0.0337 -0.16626 -0.0937 -0.22628c-0.06 -0.06001 -0.1414 -0.09372 -0.2263 -0.09372 -0.67 0 -1.35 -0.06 -2 -0.07H8.23122l-1.46 0.11c0 -0.62 -0.09 -1.25 -0.13 -1.88 -0.0125 -0.06645 -0.04783 -0.12644 -0.09987 -0.1696 -0.05204 -0.04316 -0.11752 -0.06678 -0.18513 -0.06678 -0.06761 0 -0.1331 0.02362 -0.18514 0.06678 -0.05204 0.04316 -0.08736 0.10315 -0.09986 0.1696l-0.15 2.21c0 0.45 -0.06 0.91 -0.08 1.35997 -0.02 0.45 -0.03 1.02 -0.03 1.53Z" clip-rule="evenodd" stroke-width="1"></path>
</svg>