<svg xmlns="http://www.w3.org/2000/svg" fill="none" viewBox="0 0 24 24" id="Video-Meeting-Monitor-Webcam--Streamline-Freehand">
  <desc>
    Video Meeting Monitor Webcam Streamline Icon: https://streamlinehq.com
  </desc>
  <path fill="#000000" fill-rule="evenodd" d="M15.0547 14.8381s0.1199 0.3397 0.2898 0.3697c0.0634 0.0324 0.1336 0.0493 0.2048 0.0493 0.0712 0 0.1414 -0.0169 0.2048 -0.0493 0.037 -0.0455 0.0626 -0.0991 0.0748 -0.1565 0.0121 -0.0573 0.0105 -0.1167 -0.0048 -0.1733 -0.1893 -0.7147 -0.5348 -1.3785 -1.0117 -1.9436 -0.4769 -0.565 -1.0733 -1.0171 -1.7461 -1.3237 0.5437 -0.3062 0.9685 -0.7865 1.206 -1.3635 0.2374 -0.57707 0.2737 -1.21726 0.1028 -1.81741 -0.1708 -0.60016 -0.5387 -1.12532 -1.0444 -1.49086 -0.5057 -0.36553 -1.1198 -0.55015 -1.7432 -0.52409 -3.92686 0.2498 -3.99681 4.31656 -1.93846 5.36566 -0.62204 0.2952 -1.16646 0.7317 -1.58977 1.2748 -0.42332 0.543 -0.7138 1.1775 -0.84827 1.8527 0 0.3098 0.54956 0.3797 0.64948 0 1.13908 -3.1375 5.55552 -4.1966 7.19422 -0.0699Zm-5.7254 -4.5963c-0.39968 -1.38892 0.29976 -2.58796 2.3381 -2.73784 0.2403 -0.0179 0.4818 0.01407 0.7091 0.09389 0.2274 0.07982 0.4358 0.20578 0.6122 0.36997 0.1764 0.1642 0.317 0.36307 0.4128 0.58416 0.0959 0.22108 0.1451 0.4596 0.1444 0.70058 0.0799 2.45804 -3.67704 2.89764 -4.2166 0.98924Z" clip-rule="evenodd" stroke-width="1"></path>
  <path fill="#000000" fill-rule="evenodd" d="M22.9284 6.96433c-0.1199 -0.9992 -0.0899 -3.29735 -0.8393 -3.86689 -0.9714 -0.59829 -2.078 -0.94195 -3.2175 -0.9992 -0.0837 -0.00212 -0.1652 0.02677 -0.2289 0.0811 -0.0638 0.05433 -0.1052 0.13029 -0.1163 0.21329 -0.0112 0.083 0.0087 0.16719 0.0558 0.23642 0.0472 0.06922 0.1182 0.1186 0.1995 0.13865 1.0247 0.08664 2.011 0.4303 2.8677 0.9992 0.4197 0.33973 0.4097 2.56794 0.4896 3.37729 0.3097 2.77248 0.3097 5.57081 0 8.34331 -0.0488 0.9336 -0.203 1.8588 -0.4596 2.7578 -2.3681 1.2789 -18.64503 2.0783 -19.58428 0.4496 -0.20542 -0.7254 -0.31625 -1.4744 -0.32973 -2.2282 0.12989 -0.06 4.45642 0 4.53635 0 4.89606 0.1199 4.71626 -0.1998 12.75976 -0.0999 2.3581 -0.07 2.2882 -0.6795 0 -0.7394 0 0 -4.8661 -0.1399 -9.44242 -0.08 -3.99679 0.06 -7.86369 0.3398 -7.90365 0.3498 -0.26982 -3.5187 -0.26982 -7.05288 0 -10.57155 0.27977 -1.9984 0.68944 -1.9984 1.4888 -2.25819 1.44884 -0.40967 2.05835 -0.16986 1.9984 -0.65947 0.01059 -0.04259 0.01137 -0.08703 0.00228 -0.12996 -0.00909 -0.04294 -0.02781 -0.08325 -0.05475 -0.11789 -0.02695 -0.03464 -0.06141 -0.06271 -0.10078 -0.08209 -0.03938 -0.01937 -0.08264 -0.02956 -0.12653 -0.02977 -0.85931 0.08993 -2.54795 0.28977 -3.08752 0.91926 -0.42604 0.61851 -0.69367 1.33219 -0.77937 2.07833C0.536373 8.21333 0.576341 17.8856 1.23581 19.0346c0.76938 1.4988 5.39567 1.5788 7.13427 1.5988 -0.43425 0.7205 -0.63007 1.5597 -0.55955 2.398l-1.99839 0.1499c-0.06888 0.0127 -0.13113 0.0492 -0.17593 0.103 -0.0448 0.0539 -0.06933 0.1217 -0.06933 0.1918 0 0.07 0.02453 0.1379 0.06933 0.1917 0.0448 0.0538 0.10705 0.0903 0.17593 0.103 2.4789 0.2073 4.96756 0.274 7.45406 0.1999 1.3189 -0.06 2.6678 -0.2099 3.9967 -0.3198 0.0789 -0.0136 0.1504 -0.0547 0.2019 -0.116 0.0516 -0.0612 0.0798 -0.1387 0.0798 -0.2187 0 -0.08 -0.0282 -0.1575 -0.0798 -0.2187 -0.0515 -0.0613 -0.123 -0.1024 -0.2019 -0.116h-1.7286c-0.1148 -0.893 -0.3676 -1.7626 -0.7494 -2.578 1.7217 -0.1264 3.4358 -0.3399 5.1359 -0.6394 3.3173 -0.6395 2.8577 -0.9992 3.2474 -4.2466 0.2357 -2.8512 0.1553 -5.71969 -0.2398 -8.55317ZM8.56992 23.0314c0.39362 -0.7292 0.63178 -1.5322 0.69944 -2.3581 1.52874 0 2.99764 -0.0599 4.53634 -0.1599 0.1096 0.8894 0.4243 1.7411 0.9193 2.4881 -2.7278 -0.11 -3.9868 -0.1299 -6.15508 0.0299Z" clip-rule="evenodd" stroke-width="1"></path>
  <path fill="#000000" fill-rule="evenodd" d="M7.87051 4.77612c0.87929 0.36095 1.84545 0.45478 2.77779 0.26978 1.4042 0.04366 2.8095 -0.04667 4.1966 -0.26978 0.5496 -0.13989 1.9385 -0.05995 2.1383 -1.1191 0.0486 -0.73861 0.0486 -1.47961 0 -2.21822 -0.0137 -0.07886 -0.0548 -0.15036 -0.116 -0.20189 -0.0612 -0.05153 -0.1387 -0.07979 -0.2187 -0.07979 -0.0801 0 -0.1575 0.02826 -0.2188 0.07979 -0.0612 0.05153 -0.1023 0.12303 -0.116 0.20189 -0.0699 1.88848 0 1.52877 0 1.8685 0 0.33973 0 0.40967 -0.5595 0.50959 -0.3497 0.05995 -0.7294 0.04996 -1.0592 0.11991 -2.12 0.19805 -4.2569 0.11405 -6.35487 -0.2498 -0.0678 -0.08102 -0.10337 -0.18418 -0.09992 -0.28977 -0.03854 -0.67135 0.02206 -1.34472 0.17986 -1.9984 0.11328 -0.09945 0.24598 -0.1743 0.38969 -0.21982C11.1182 0.77733 13.4676 0.663218 15.8041 0.839283c0.0374 0.008529 0.0761 0.009609 0.114 0.003177 0.0378 -0.006431 0.074 -0.020247 0.1064 -0.04066 0.0325 -0.020412 0.0606 -0.047021 0.0828 -0.078307 0.0222 -0.031286 0.038 -0.066637 0.0466 -0.104034 0.0085 -0.037396 0.0096 -0.076107 0.0031 -0.113921 -0.0064 -0.037814 -0.0202 -0.073991 -0.0406 -0.106465 -0.0204 -0.032475 -0.047 -0.060611 -0.0783 -0.082801 -0.0313 -0.022191 -0.0667 -0.038003 -0.1041 -0.046532 -2.5185 -0.3596534 -5.0753 -0.3596534 -7.59387 0 -0.27895 0.070186 -0.53342 0.215251 -0.73594 0.419525 -0.20251 0.204275 -0.34537 0.459995 -0.41314 0.739545 -0.06115 0.32931 -0.08129 0.66493 -0.05995 0.9992 -0.00999 0.76938 -0.32973 1.79855 0.73941 2.34811Z" clip-rule="evenodd" stroke-width="1"></path>
  <path fill="#000000" fill-rule="evenodd" d="M11.5176 1.80848c-0.1256 0.064 -0.2292 0.16394 -0.2977 0.28708 -0.0685 0.12314 -0.0988 0.26389 -0.087 0.40431 0.0118 0.14042 0.0651 0.27415 0.1532 0.38414 0.0881 0.10998 0.2069 0.19124 0.3414 0.23342 0.4596 0.19984 1.3989 -0.28977 1.1191 -0.90927 -0.1243 -0.20139 -0.3161 -0.3521 -0.5412 -0.42529 -0.2251 -0.07319 -0.4688 -0.06412 -0.6878 0.02561Z" clip-rule="evenodd" stroke-width="1"></path>
</svg>