<svg xmlns="http://www.w3.org/2000/svg" fill="none" viewBox="0 0 48 48" id="Magic-Wand--Streamline-Kameleon">
  <desc>
    Magic Wand Streamline Icon: https://streamlinehq.com
  </desc>
  <path fill="#52c1ff" d="M24.0006 48.0061c13.2553 0 24.0006 -10.7453 24.0006 -24.0006 0 -13.2553 -10.7453 -24.00061719 -24.0006 -24.00061719C10.7453 0.00488281 0 10.7502 0 24.0055s10.7453 24.0006 24.0006 24.0006Z" stroke-width="1"></path>
  <path fill="#000000" d="m10.9092 34.2678 3.7035 3.7022 15.4272 -15.4276 -3.7027 -3.703 -15.428 15.4284Z" stroke-width="1"></path>
  <path fill="#ffffff" d="m26.3379 18.8394 3.7026 3.7031 5.5542 -5.5542 -3.7031 -3.7027 -5.5537 5.5538Z" stroke-width="1"></path>
  <path fill="#ffffff" d="M18.3456 14.5565c-0.0049 0.0006 -0.0093 0.003 -0.0125 0.0067 -0.0033 0.0037 -0.005 0.0085 -0.005 0.0134v0.0401c0 0.007 0.0053 0.0131 0.0118 0.0135 1.3715 0.1868 2.38 1.194 2.5689 2.5642 0.0014 0.01 0.0101 0.0174 0.0201 0.0174h0.0402c0.0033 0.0001 0.0065 -0.0011 0.009 -0.0033 0.0025 -0.0022 0.0041 -0.0052 0.0045 -0.0084 0.1868 -1.3716 1.1939 -2.38 2.5641 -2.5694 0.0049 -0.0007 0.0093 -0.003 0.0126 -0.0067 0.0032 -0.0037 0.0049 -0.0085 0.0049 -0.0134v-0.0401c-0.0001 -0.0033 -0.0013 -0.0064 -0.0035 -0.0088 -0.0021 -0.0024 -0.0051 -0.0039 -0.0083 -0.0043 -1.3715 -0.1872 -2.38 -1.1944 -2.5694 -2.5646 -0.0006 -0.0049 -0.003 -0.0093 -0.0067 -0.0125 -0.0037 -0.0032 -0.0084 -0.005 -0.0133 -0.005h-0.0284c-0.0066 0.0001 -0.0129 0.0025 -0.0179 0.0068 -0.005 0.0043 -0.0082 0.0103 -0.0092 0.0168 -0.1902 1.3659 -1.1952 2.3695 -2.5619 2.5576Z" stroke-width="1"></path>
  <path fill="#ffffff" d="M32.3094 25.466c-0.0048 0.0006 -0.0093 0.003 -0.0125 0.0067 -0.0032 0.0037 -0.0049 0.0084 -0.0049 0.0133v0.0459c0 0.0035 0.0026 0.0061 0.0061 0.0065 1.3746 0.1846 2.3857 1.1926 2.5751 2.565 0.0013 0.0101 0.01 0.0175 0.02 0.0175h0.0284c0.0066 -0.0001 0.0129 -0.0025 0.0179 -0.0068 0.005 -0.0043 0.0082 -0.0103 0.0091 -0.0168 0.1899 -1.3597 1.1874 -2.3603 2.545 -2.555 0.0096 -0.0011 0.0184 -0.0058 0.0249 -0.013 0.0064 -0.0072 0.01 -0.0166 0.01 -0.0262v-0.0227c-0.0001 -0.0033 -0.0013 -0.0063 -0.0035 -0.0087 -0.0021 -0.0025 -0.0051 -0.004 -0.0083 -0.0044 -1.3715 -0.1872 -2.38 -1.1944 -2.5694 -2.5646 -0.0006 -0.0048 -0.003 -0.0093 -0.0067 -0.0125 -0.0037 -0.0032 -0.0084 -0.005 -0.0133 -0.0049h-0.0284c-0.0066 0 -0.0129 0.0024 -0.0179 0.0067 -0.005 0.0043 -0.0082 0.0103 -0.0092 0.0168 -0.1907 1.365 -1.1956 2.3687 -2.5624 2.5572Z" stroke-width="1"></path>
  <path fill="#ffffff" d="M34.9206 12.1719c-0.0029 0.0002 -0.0056 0.0016 -0.0076 0.0038 -0.0019 0.0022 -0.003 0.0051 -0.0028 0.008v0.0166c0 0.0078 0.0056 0.0148 0.0135 0.0157 0.7997 0.1117 1.3864 0.7024 1.4929 1.5051h0.0406c0.1068 -0.8071 0.6997 -1.4 1.5064 -1.5069v-0.0405c-0.8067 -0.1069 -1.3996 -0.6998 -1.5064 -1.5065h-0.0406c-0.1065 0.8028 -0.6945 1.3935 -1.496 1.5047Z" stroke-width="1"></path>
</svg>