<svg xmlns="http://www.w3.org/2000/svg" fill="none" viewBox="0 0 48 48" id="Pen--Streamline-Kameleon">
  <desc>
    Pen Streamline Icon: https://streamlinehq.com
  </desc>
  <path fill="#92de46" d="M24.0006 48.0012c13.2553 0 24.0006 -10.7453 24.0006 -24.0006C48.0012 10.7453 37.2559 0 24.0006 0 10.7453 0 0 10.7453 0 24.0006c0 13.2553 10.7453 24.0006 24.0006 24.0006Z" stroke-width="1"></path>
  <path fill="#ffffff" d="M16.4972 36.2027c-1.8376 1.8376 -6.4596 1.7621 -6.4596 1.7621s-0.07598 -4.6212 1.7616 -6.4597c1.8376 -1.8371 4.1106 -2.544 5.6764 -0.9788 1.5661 1.5666 0.8592 3.8388 -0.9784 5.6773v-0.0009Z" stroke-width="1"></path>
  <path fill="#000000" d="m18.8486 32.5179 -3.3789 -3.3789c2.8544 -7.8774 6.5849 -12.9656 10.1737 -15.8504l8.9461 8.9461c-2.9102 3.5639 -7.987 7.2992 -15.7409 10.2832Z" stroke-width="1"></path>
  <path fill="#000000" d="m34.5892 22.2344 -8.9456 -8.9457c4.451 -3.58393 8.6908 -3.77463 10.761 -1.7049 2.0806 2.0806 1.8026 6.2275 -1.8154 10.6506Z" stroke-width="1"></path>
</svg>