<svg xmlns="http://www.w3.org/2000/svg" viewBox="0 0 14 14">
  <g>
    <path d="M10.25,0A3.75,3.75,0,1,0,14,3.75,3.75,3.75,0,0,0,10.25,0Zm0,1.5a2.3,2.3,0,0,1,.74.12.25.25,0,0,1,.09.42L8.54,4.58a.25.25,0,0,1-.42-.09A2.3,2.3,0,0,1,8,3.75,2.25,2.25,0,0,1,10.25,1.5Zm0,4.5a2.3,2.3,0,0,1-.74-.12.25.25,0,0,1-.09-.42L12,2.92a.25.25,0,0,1,.42.09,2.3,2.3,0,0,1,.12.74A2.25,2.25,0,0,1,10.25,6Z" style="fill: #000001"/>
    <path d="M10.73,9a.25.25,0,0,0-.23.25V11a.5.5,0,0,1-.5.5H5.32a.69.69,0,0,0-.2,0L2,12.37a.25.25,0,0,1-.3-.32l.78-2.13a.8.8,0,0,0,0-.26V4A.5.5,0,0,1,3,3.5H4.79A.25.25,0,0,0,5,3.27a5.14,5.14,0,0,1,.18-1,.24.24,0,0,0,0-.22A.26.26,0,0,0,5,2H3A2,2,0,0,0,1,4V9.48a.29.29,0,0,1,0,.09L.09,12A1.5,1.5,0,0,0,1.5,14,1.74,1.74,0,0,0,1.89,14L5.38,13H10a2,2,0,0,0,2-2V9a.26.26,0,0,0-.1-.2.24.24,0,0,0-.22,0A5.14,5.14,0,0,1,10.73,9Z" style="fill: #000001"/>
  </g>
</svg>
