<svg xmlns="http://www.w3.org/2000/svg" viewBox="0 0 14 14">
  <g>
    <path d="M11.84,3.92a.26.26,0,0,1,0-.35l1.87-1.86A1,1,0,1,0,12.29.29L10.43,2.16a.26.26,0,0,1-.35,0L8.21.29A1,1,0,0,0,6.8.29a1,1,0,0,0,0,1.42L8.66,3.57a.24.24,0,0,1,0,.35L6.8,5.79a1,1,0,0,0,0,1.41,1,1,0,0,0,.71.29,1,1,0,0,0,.7-.29l1.87-1.86a.24.24,0,0,1,.35,0L12.29,7.2a1,1,0,0,0,1.42,0,1,1,0,0,0,0-1.41Z" style="fill: #000001"/>
    <path d="M11.87,8.72a2.6,2.6,0,0,1-.64-.46l-.3-.3a.24.24,0,0,0-.27,0,.25.25,0,0,0-.15.23V11a.5.5,0,0,1-.5.5H5.32a.63.63,0,0,0-.19,0l-3.62,1,1-2.58a.8.8,0,0,0,0-.26V4A.5.5,0,0,1,3,3.5H5.87a.25.25,0,0,0,.23-.15.26.26,0,0,0,0-.28l-.31-.3a2.55,2.55,0,0,1-.46-.63A.24.24,0,0,0,5.06,2H3A2,2,0,0,0,1,4V9.48a.29.29,0,0,1,0,.09L.1,12a1.48,1.48,0,0,0,.3,1.53A1.51,1.51,0,0,0,1.51,14,1.74,1.74,0,0,0,1.9,14L5.39,13H10a2,2,0,0,0,2-2V8.94A.26.26,0,0,0,11.87,8.72Z" style="fill: #000001"/>
  </g>
</svg>
