<svg xmlns="http://www.w3.org/2000/svg" viewBox="0 0 14 14">
  <g>
    <path d="M10.25,0A3.75,3.75,0,1,0,14,3.75,3.75,3.75,0,0,0,10.25,0Zm0,1.5a2.3,2.3,0,0,1,.74.12.25.25,0,0,1,.09.42L8.54,4.58a.25.25,0,0,1-.42-.09A2.3,2.3,0,0,1,8,3.75,2.25,2.25,0,0,1,10.25,1.5Zm0,4.5a2.3,2.3,0,0,1-.74-.12.25.25,0,0,1-.09-.42L12,2.92a.25.25,0,0,1,.42.09,2.3,2.3,0,0,1,.12.74A2.25,2.25,0,0,1,10.25,6Z" style="fill: #000001"/>
    <path d="M10.25,9A5.26,5.26,0,0,1,5,3.75a4.86,4.86,0,0,1,.19-1.33.25.25,0,0,0-.05-.24.29.29,0,0,0-.23-.08A6,6,0,0,0,.82,11a.25.25,0,0,1,0,.22L0,13.42A.43.43,0,0,0,.51,14l2.91-.53a.26.26,0,0,1,.15,0A5.83,5.83,0,0,0,6,14a6,6,0,0,0,5.9-4.91.29.29,0,0,0-.08-.23.25.25,0,0,0-.24,0A4.86,4.86,0,0,1,10.25,9Z" style="fill: #000001"/>
  </g>
</svg>
