<svg xmlns="http://www.w3.org/2000/svg" viewBox="0 0 14 14">
  <g>
    <path d="M9.75,7a.74.74,0,0,1-.53-.22l-1.5-1.5A.75.75,0,0,1,8.78,4.22L9.57,5a.25.25,0,0,0,.36,0l2.79-2.79a.75.75,0,0,1,1.06,1.06l-3.5,3.5A.74.74,0,0,1,9.75,7Z" style="fill: #000001"/>
    <path d="M11.34,7.84a2.25,2.25,0,0,1-3.18,0l-1.5-1.5a2.25,2.25,0,0,1,0-3.18A2.21,2.21,0,0,1,8.25,2.5a2.17,2.17,0,0,1,1.33.44.26.26,0,0,0,.33,0l.47-.47a.28.28,0,0,0,.06-.28A.26.26,0,0,0,10.2,2H2.25A1.25,1.25,0,0,0,1,3.25v7.11a.29.29,0,0,1,0,.09L.05,13a.74.74,0,0,0,.89,1l3.6-1h6.21A1.25,1.25,0,0,0,12,11.75v-4a.26.26,0,0,0-.15-.24.28.28,0,0,0-.28.06Z" style="fill: #000001"/>
  </g>
</svg>
