<svg xmlns="http://www.w3.org/2000/svg" viewBox="0 0 14 14">
  <g>
    <path d="M4.82,6.82a.23.23,0,0,0,0,.21.25.25,0,0,0,.19.09H6a.24.24,0,0,0,.24-.19l.17-.75a.23.23,0,0,0,0-.21.25.25,0,0,0-.19-.09h-1A.24.24,0,0,0,5,6.07Z" style="fill: #000001"/>
    <path d="M14,1.25A1.25,1.25,0,0,0,12.75,0H2.25A1.25,1.25,0,0,0,1,1.25v9.11a.29.29,0,0,1,0,.09L.05,13a.75.75,0,0,0,.7,1,.63.63,0,0,0,.19,0l3.6-1h8.21A1.25,1.25,0,0,0,14,11.75Zm-5.12,4a.63.63,0,0,1-.63.63H8a.24.24,0,0,0-.24.19l-.18.81a.2.2,0,0,0,0,.17.2.2,0,0,0,.16.07.63.63,0,0,1,0,1.26H7.42a.26.26,0,0,0-.24.19l-.07.32a.63.63,0,0,1-.61.49l-.14,0a.63.63,0,0,1-.47-.75.2.2,0,0,0,0-.16.18.18,0,0,0-.15-.07h-1a.26.26,0,0,0-.24.19l-.07.32a.63.63,0,0,1-.61.49l-.14,0a.63.63,0,0,1-.47-.75v0a.16.16,0,0,0,0-.13.17.17,0,0,0-.12,0A.63.63,0,0,1,3,7.12h.27a.24.24,0,0,0,.24-.19l.18-.81a.2.2,0,0,0,0-.17.2.2,0,0,0-.16-.07.63.63,0,0,1,0-1.26h.33a.26.26,0,0,0,.24-.19l.07-.32a.63.63,0,1,1,1.22.28.2.2,0,0,0,0,.16.18.18,0,0,0,.15.07h1a.26.26,0,0,0,.24-.19l.07-.32a.63.63,0,1,1,1.22.28v.05a.16.16,0,0,0,0,.13.17.17,0,0,0,.12,0A.63.63,0,0,1,8.88,5.25ZM11.75,9a.75.75,0,1,1,.75-.75A.76.76,0,0,1,11.75,9Zm.75-3A.75.75,0,0,1,11,6V3.5a.75.75,0,0,1,1.5,0Z" style="fill: #000001"/>
  </g>
</svg>
