<svg xmlns="http://www.w3.org/2000/svg" viewBox="0 0 14 14">
  <g>
    <path d="M10.25,0A3.75,3.75,0,1,0,14,3.75,3.75,3.75,0,0,0,10.25,0Zm0,1.5a2.3,2.3,0,0,1,.74.12.25.25,0,0,1,.09.42L8.54,4.58a.25.25,0,0,1-.42-.09A2.3,2.3,0,0,1,8,3.75,2.25,2.25,0,0,1,10.25,1.5Zm0,4.5a2.3,2.3,0,0,1-.74-.12.25.25,0,0,1-.09-.42L12,2.92a.25.25,0,0,1,.42.09,2.3,2.3,0,0,1,.12.74A2.25,2.25,0,0,1,10.25,6Z" style="fill: #000001"/>
    <path d="M11,8.92a.22.22,0,0,0-.2.18,4.72,4.72,0,0,1-6.52,3A.82.82,0,0,0,4,12l-.14,0-1.69.31a.27.27,0,0,1-.24-.09.28.28,0,0,1,0-.25l.41-1.09a.77.77,0,0,0-.06-.66,4.69,4.69,0,0,1-.7-2.48A4.75,4.75,0,0,1,4.9,3.21.22.22,0,0,0,5.08,3,4.7,4.7,0,0,1,5.34,2a.25.25,0,0,0,0-.25.24.24,0,0,0-.24-.08A6.26,6.26,0,0,0,0,7.75a6.32,6.32,0,0,0,.68,2.84.24.24,0,0,1,0,.2L.07,12.46A1.14,1.14,0,0,0,1.35,14l2.45-.44a.2.2,0,0,1,.13,0A6.14,6.14,0,0,0,6.25,14,6.26,6.26,0,0,0,12.38,9a.24.24,0,0,0-.08-.24.26.26,0,0,0-.25-.05A4.7,4.7,0,0,1,11,8.92Z" style="fill: #000001"/>
  </g>
</svg>
