<svg xmlns="http://www.w3.org/2000/svg" fill="none" viewBox="0 0 24 24" id="Medical-Instrument-Ambulance-Bed--Streamline-Ultimate">
  <desc>
    Medical Instrument Ambulance Bed Streamline Icon: https://streamlinehq.com
  </desc>
  <path stroke="#000000" stroke-linecap="round" stroke-linejoin="round" d="M21 12.7469H6c-0.48101 -0.0002 -0.94929 -0.1545 -1.33621 -0.4403 -0.38692 -0.2858 -0.67211 -0.688 -0.81379 -1.1477L0.850002 3.65894c-0.162946 -0.56651 -0.09706 -1.17434 0.183488 -1.69278 0.28055 -0.51844 0.75335 -0.90607 1.31673 -1.079543 0.56338 -0.173468 1.17233 -0.118914 1.6959 0.151933 0.52358 0.27084 0.91995 0.73634 1.10388 1.29639l2.511 5.912H21c0.5967 0 1.169 0.23705 1.591 0.65901 0.4219 0.42196 0.659 0.99425 0.659 1.59095 0 0.5968 -0.2371 1.1691 -0.659 1.591 -0.422 0.422 -0.9943 0.659 -1.591 0.659Z" stroke-width="1"></path>
  <path stroke="#000000" stroke-linecap="round" stroke-linejoin="round" d="M3.75 21c0 0.5967 0.23705 1.169 0.65901 1.591 0.42196 0.4219 0.99425 0.659 1.59099 0.659 0.59674 0 1.16903 -0.2371 1.59099 -0.659 0.42196 -0.422 0.65901 -0.9943 0.65901 -1.591s-0.23705 -1.169 -0.65901 -1.591C7.16903 18.9871 6.59674 18.75 6 18.75c-0.59674 0 -1.16903 0.2371 -1.59099 0.659 -0.42196 0.422 -0.65901 0.9943 -0.65901 1.591Z" stroke-width="1"></path>
  <path stroke="#000000" stroke-linecap="round" stroke-linejoin="round" d="M18.75 21c0 0.5967 0.2371 1.169 0.659 1.591 0.422 0.4219 0.9943 0.659 1.591 0.659s1.169 -0.2371 1.591 -0.659c0.4219 -0.422 0.659 -0.9943 0.659 -1.591s-0.2371 -1.169 -0.659 -1.591c-0.422 -0.4219 -0.9943 -0.659 -1.591 -0.659s-1.169 0.2371 -1.591 0.659c-0.4219 0.422 -0.659 0.9943 -0.659 1.591Z" stroke-width="1"></path>
  <path stroke="#000000" stroke-linecap="round" stroke-linejoin="round" d="M8.25 21h10.5" stroke-width="1"></path>
  <path stroke="#000000" stroke-linecap="round" stroke-linejoin="round" d="m7.94702 19.8719 12.30798 -7.125" stroke-width="1"></path>
  <path stroke="#000000" stroke-linecap="round" stroke-linejoin="round" d="m19.053 19.8719 -12.308 -7.125" stroke-width="1"></path>
  <path stroke="#000000" stroke-linecap="round" stroke-linejoin="round" d="m8.25 1.5 1.5 3.75" stroke-width="1"></path>
</svg>