<svg xmlns="http://www.w3.org/2000/svg" fill="none" viewBox="0 0 24 24" id="Business-Team-Goal--Streamline-Ultimate">
  <desc>
    Business Team Goal Streamline Icon: https://streamlinehq.com
  </desc>
  <path fill="#66e1ff" d="M10.3264 22.999c-1.47244 -2.7607 -5.38121 -2.8923 -7.03596 -0.2368 -0.04818 0.0774 -0.09382 0.1564 -0.13663 0.2368h7.17259Z" stroke-width="1"></path>
  <path fill="#66e1ff" d="M18.9336 22.9999c0 -3.681 -3.9847 -5.9816 -7.1726 -4.1411 -1.4794 0.8542 -2.39088 2.4328 -2.39088 4.1411" stroke-width="1"></path>
  <path stroke="#191919" stroke-linecap="round" stroke-linejoin="round" d="M18.9336 22.9999c0 -3.681 -3.9847 -5.9816 -7.1726 -4.1411 -1.4794 0.8542 -2.39088 2.4328 -2.39088 4.1411" stroke-width="1"></path>
  <path fill="#ffdda1" stroke="#191919" stroke-linecap="round" stroke-linejoin="round" d="M17.4957 13.4326c0 2.5767 -2.7893 4.1872 -5.0208 2.8988 -1.0357 -0.598 -1.6736 -1.7029 -1.6736 -2.8988 -0.0022 -0.7262 0.2367 -1.4324 0.6789 -2.0084 0.9877 0.9545 2.2992 1.5011 3.6724 1.5302 0.7582 0.0094 1.5124 -0.1136 2.2283 -0.3635 0.0765 0.2736 0.1148 0.5567 0.1148 0.8417Z" stroke-width="1"></path>
  <path fill="#ffdda1" stroke="#191919" stroke-linecap="round" stroke-linejoin="round" d="M6.74095 19.6288c2.19024 0 3.55905 -2.3709 2.46399 -4.2677 -0.50829 -0.8803 -1.44742 -1.4227 -2.46399 -1.4226 -2.19015 0.0001 -3.55906 2.3712 -2.46389 4.2679 0.50828 0.8802 1.44742 1.4224 2.46389 1.4224Z" stroke-width="1"></path>
  <path stroke="#191919" stroke-linecap="round" stroke-linejoin="round" d="M14.1523 21.1772v1.3446" stroke-width="1"></path>
  <path fill="#c77f67" stroke="#191919" stroke-linecap="round" stroke-linejoin="round" d="M17.3807 12.591c-0.716 0.2498 -1.4701 0.3728 -2.2283 0.3635 -1.3731 -0.0292 -2.6847 -0.5757 -3.6724 -1.5303 1.5338 -2.05659 4.7189 -1.68162 5.7331 0.6751 0.0686 0.1592 0.1246 0.3237 0.1676 0.4917Z" stroke-width="1"></path>
  <path fill="#66e1ff" d="M6.74008 20.8482c-1.50096 0.0001 -2.87992 0.8274 -3.58627 2.1518Z" stroke-width="1"></path>
  <path stroke="#191919" stroke-linecap="round" stroke-linejoin="round" d="M6.74008 20.8482c-1.50096 0.0001 -2.87992 0.8274 -3.58627 2.1518" stroke-width="1"></path>
  <path stroke="#191919" stroke-linecap="round" stroke-linejoin="round" d="M8.41625 21.2078c-0.52652 -0.238 -1.09781 -0.3606 -1.67553 -0.3596" stroke-width="1"></path>
  <path fill="#c77f67" stroke="#191919" stroke-linecap="round" stroke-linejoin="round" d="M7.68908 16.7827c0.63886 0 1.27197 -0.13 1.85818 -0.3824 -0.27999 -2.1582 -2.79127 -3.2038 -4.52024 -1.8822 -0.29559 0.2259 -0.54378 0.5081 -0.73014 0.8302 0.88978 0.9179 2.11388 1.4355 3.3922 1.4344Z" stroke-width="1"></path>
  <path stroke="#191919" stroke-linecap="round" stroke-linejoin="round" d="M20.8467 23V1.00385" stroke-width="1"></path>
  <path fill="#ff808c" stroke="#191919" stroke-linecap="round" stroke-linejoin="round" d="M16.0607 5.78181v0.9563c0.0053 0.53042 -0.426 0.96176 -0.9564 0.9564H7.93164l2.39086 -2.39085 -2.39086 -2.39094H14.148v1.9127c0 0.52827 0.4281 0.95639 0.9563 0.95639h0.9564Z" stroke-width="1"></path>
  <path fill="#ffbfc5" stroke="#191919" stroke-linecap="round" stroke-linejoin="round" d="M15.1042 1c-0.5281 0 -0.9563 0.42822 -0.9563 0.9564v2.86899c0 0.52818 0.4282 0.9564 0.9563 0.9564h5.7381V1h-5.7381Z" stroke-width="1"></path>
</svg>