<svg xmlns="http://www.w3.org/2000/svg" fill="none" viewBox="0 0 24 24" id="Presentation-Microphone-1--Streamline-Ultimate">
  <desc>
    Presentation Microphone 1 Streamline Icon: https://streamlinehq.com
  </desc>
  <path stroke="#191919" stroke-linecap="round" stroke-linejoin="round" d="M12 9.60864v1.91306" stroke-width="1"></path>
  <path fill="#e3e3e3" d="M14.87 3.86956v2.86955H9.13086V3.86956c0 -0.76106 0.30233 -1.49094 0.84047 -2.02909C10.5095 1.30233 11.2394 1 12.0004 1c0.761 0 1.4909 0.30233 2.0291 0.84047 0.5381 0.53815 0.8405 1.26803 0.8405 2.02909Z" stroke-width="1"></path>
  <path fill="#ffffff" d="M12.0004 1c-0.761 0 -1.4909 0.30233 -2.02907 0.84047 -0.53814 0.53815 -0.84047 1.26803 -0.84047 2.02909v2.23825c0 -0.76105 0.30233 -1.49094 0.84047 -2.02908 0.53817 -0.53815 1.26807 -0.84048 2.02907 -0.84048 0.761 0 1.4909 0.30233 2.0291 0.84048 0.5381 0.53814 0.8405 1.26803 0.8405 2.02908V3.86956c0 -0.76106 -0.3024 -1.49094 -0.8405 -2.02909C13.4913 1.30233 12.7614 1 12.0004 1Z" stroke-width="1"></path>
  <path stroke="#191919" stroke-linecap="round" stroke-linejoin="round" d="M14.87 3.86956v2.86955H9.13086V3.86956c0 -0.76106 0.30233 -1.49094 0.84047 -2.02909C10.5095 1.30233 11.2394 1 12.0004 1c0.761 0 1.4909 0.30233 2.0291 0.84047 0.5381 0.53815 0.8405 1.26803 0.8405 2.02909Z" stroke-width="1"></path>
  <path fill="#808080" stroke="#191919" stroke-linecap="round" stroke-linejoin="round" d="M14.87 6.73914c0 0.76105 -0.3024 1.49093 -0.8405 2.02908 -0.5382 0.53815 -1.2681 0.84047 -2.0291 0.84047 -0.761 0 -1.4909 -0.30232 -2.02907 -0.84047 -0.53814 -0.53815 -0.84047 -1.26803 -0.84047 -2.02908H14.87Z" stroke-width="1"></path>
  <path fill="#e3bfb3" d="M10.087 16.3044H7.21748c-0.2883 -0.0161 -0.56901 -0.0984 -0.82034 -0.2406 -0.25131 -0.1421 -0.46648 -0.3403 -0.62879 -0.5792l-1.88529 -3.1431c-0.2707 -0.4505 -0.06122 -0.8197 0.46486 -0.8197H19.6522c0.5261 0 0.7346 0.3692 0.4639 0.8197l-1.8891 3.1431c-0.1617 0.2383 -0.3761 0.4362 -0.6266 0.5784 -0.2504 0.1421 -0.5302 0.2247 -0.8177 0.2414h-2.8696" stroke-width="1"></path>
  <path stroke="#191919" stroke-linecap="round" stroke-linejoin="round" d="M10.087 16.3044H7.21748c-0.2883 -0.0161 -0.56901 -0.0984 -0.82034 -0.2406 -0.25131 -0.1421 -0.46648 -0.3403 -0.62879 -0.5792l-1.88529 -3.1431c-0.2707 -0.4505 -0.06122 -0.8197 0.46486 -0.8197H19.6522c0.5261 0 0.7346 0.3692 0.4639 0.8197l-1.8891 3.1431c-0.1617 0.2383 -0.3761 0.4362 -0.6266 0.5784 -0.2504 0.1421 -0.5302 0.2247 -0.8177 0.2414h-2.8696" stroke-width="1"></path>
  <path fill="#c77f67" d="M10.0869 23v-8.6086h3.8261V23" stroke-width="1"></path>
  <path stroke="#191919" stroke-linecap="round" stroke-linejoin="round" d="M10.0869 23v-8.6086h3.8261V23" stroke-width="1"></path>
  <path stroke="#191919" stroke-linecap="round" stroke-linejoin="round" d="M11.0439 4.82611h1.9131" stroke-width="1"></path>
  <path stroke="#191919" stroke-linecap="round" stroke-linejoin="round" d="M11.0439 2.91309h1.9131" stroke-width="1"></path>
  <path fill="#b2b2b2" stroke="#191919" stroke-linecap="round" stroke-linejoin="round" d="M5.84031 4.82608c0.13268 -0.12151 0.23863 -0.26931 0.31111 -0.43398 0.07249 -0.16466 0.10992 -0.34262 0.10992 -0.52254 0 -0.17992 -0.03743 -0.35787 -0.10992 -0.52254 -0.07248 -0.16467 -0.17843 -0.31246 -0.31111 -0.43398 -0.12152 -0.13268 -0.26931 -0.23863 -0.43398 -0.31111 -0.16468 -0.07249 -0.34263 -0.10993 -0.52254 -0.10993 -0.17992 0 -0.35787 0.03744 -0.52255 0.10993 -0.16467 0.07248 -0.31246 0.17843 -0.43397 0.31111l-0.75756 0.75852c-0.17932 0.17938 -0.28006 0.42262 -0.28006 0.67626 0 0.25363 0.10074 0.49689 0.28006 0.67626l0.55956 0.56052c0.08883 0.08894 0.19433 0.15948 0.31045 0.20762 0.11611 0.04814 0.24058 0.07292 0.36629 0.07292 0.12569 0 0.25017 -0.02478 0.36629 -0.07292 0.11611 -0.04814 0.2216 -0.11868 0.31044 -0.20762l0.75757 -0.75852Z" stroke-width="1"></path>
  <path stroke="#191919" stroke-linecap="round" stroke-linejoin="round" d="M3.44966 5.30432C2.99785 5.83938 2.75 6.51707 2.75 7.21736c0 0.70029 0.24785 1.37798 0.69966 1.91304l2.39128 2.3913" stroke-width="1"></path>
  <path fill="#b2b2b2" stroke="#191919" stroke-linecap="round" stroke-linejoin="round" d="M18.1594 4.82608c-0.1324 -0.12167 -0.2382 -0.26951 -0.3105 -0.43416 -0.0723 -0.16465 -0.1096 -0.34252 -0.1096 -0.52236 0 -0.17983 0.0373 -0.35771 0.1096 -0.52235 0.0723 -0.16466 0.1781 -0.3125 0.3105 -0.43417 0.1214 -0.13268 0.2692 -0.23863 0.4339 -0.31111 0.1647 -0.07249 0.3427 -0.10993 0.5226 -0.10993 0.1799 0 0.3578 0.03744 0.5225 0.10993 0.1647 0.07248 0.3125 0.17843 0.434 0.31111l0.7585 0.75852c0.1794 0.17938 0.2801 0.42262 0.2801 0.67626 0 0.25363 -0.1007 0.49689 -0.2801 0.67626l-0.5595 0.56052c-0.0889 0.08894 -0.1944 0.15948 -0.3105 0.20762 -0.1162 0.04814 -0.2406 0.07292 -0.3663 0.07292s-0.2501 -0.02478 -0.3662 -0.07292c-0.1162 -0.04814 -0.2217 -0.11868 -0.3105 -0.20762l-0.7585 -0.75852Z" stroke-width="1"></path>
  <path stroke="#191919" stroke-linecap="round" stroke-linejoin="round" d="M20.5505 5.30432c0.4517 0.53506 0.6997 1.21275 0.6997 1.91304 0 0.70029 -0.248 1.37798 -0.6997 1.91304l-2.3913 2.3913" stroke-width="1"></path>
</svg>