<svg xmlns="http://www.w3.org/2000/svg" fill="none" viewBox="0 0 24 24" id="Single-Man-Home--Streamline-Ultimate">
  <desc>
    Single Man Home Streamline Icon: https://streamlinehq.com
  </desc>
  <path fill="#c2f3ff" d="M1.95652 23c-0.25369 0 -0.49698 -0.1008 -0.67636 -0.2802C1.10078 22.5405 1 22.2972 1 22.0435V8.93916c-0.000008 -0.15429 0.03731 -0.30629 0.10876 -0.44303 0.07145 -0.13674 0.17492 -0.25417 0.30159 -0.34227l10.04345 -6.9826C11.6141 1.05976 11.8047 1 12 1c0.1952 0 0.3858 0.05976 0.5461 0.17126l10.0435 6.9826c0.1267 0.0881 0.2301 0.20553 0.3016 0.34227 0.0714 0.13674 0.1088 0.28874 0.1088 0.44303V22.0435c0 0.2537 -0.1008 0.497 -0.2802 0.6763 -0.1794 0.1794 -0.4227 0.2802 -0.6764 0.2802H1.95652Z" stroke-width="1"></path>
  <path fill="#66e1ff" d="M22.5896 8.15764 12.5461 1.17505c-0.1603 -0.1115 -0.3509 -0.17127 -0.5461 -0.17127 -0.1953 0 -0.3859 0.05977 -0.5462 0.17127L1.41035 8.15764c-0.1268 0.08819 -0.23035 0.20578 -0.30181 0.3427 -0.07146 0.13692 -0.108702 0.28911 -0.10854 0.44356v3.3105c-0.000162 -0.1544 0.03708 -0.3066 0.10854 -0.4435 0.07146 -0.137 0.17501 -0.2546 0.30181 -0.3427L11.4538 4.48556c0.1603 -0.1115 0.3509 -0.17126 0.5462 -0.17126 0.1952 0 0.3858 0.05976 0.5461 0.17126l10.0435 6.98264c0.1268 0.0881 0.2304 0.2057 0.3018 0.3427 0.0715 0.1369 0.1087 0.2891 0.1086 0.4435V8.9439c0.0001 -0.15445 -0.0371 -0.30664 -0.1086 -0.44356 -0.0714 -0.13692 -0.175 -0.25451 -0.3018 -0.3427Z" stroke-width="1"></path>
  <path stroke="#191919" stroke-linecap="round" stroke-linejoin="round" d="M1.95652 23c-0.25369 0 -0.49698 -0.1008 -0.67636 -0.2802C1.10078 22.5405 1 22.2972 1 22.0435V8.93916c-0.000008 -0.15429 0.03731 -0.30629 0.10876 -0.44303 0.07145 -0.13674 0.17492 -0.25417 0.30159 -0.34227l10.04345 -6.9826C11.6141 1.05976 11.8047 1 12 1c0.1952 0 0.3858 0.05976 0.5461 0.17126l10.0435 6.9826c0.1267 0.0881 0.2301 0.20553 0.3016 0.34227 0.0714 0.13674 0.1088 0.28874 0.1088 0.44303V22.0435c0 0.2537 -0.1008 0.497 -0.2802 0.6763 -0.1794 0.1794 -0.4227 0.2802 -0.6764 0.2802H1.95652Z" stroke-width="1"></path>
  <path fill="#e3e3e3" d="M16.8352 19.6522c-0.3568 -0.9819 -1.0072 -1.8301 -1.8629 -2.4295 -0.8556 -0.5994 -1.875 -0.9209 -2.9197 -0.9209 -1.0447 0 -2.06406 0.3215 -2.91969 0.9209 -0.85563 0.5994 -1.50603 1.4476 -1.86289 2.4295" stroke-width="1"></path>
  <path fill="#ffffff" d="M12.0564 17.8635c0.7309 0.0024 1.4526 0.1636 2.115 0.4725 0.6625 0.3088 1.2499 0.7579 1.7216 1.3162h0.9422c-0.3568 -0.9819 -1.0072 -1.8301 -1.8629 -2.4295 -0.8556 -0.5994 -1.875 -0.9209 -2.9197 -0.9209 -1.0447 0 -2.06406 0.3215 -2.91969 0.9209 -0.85563 0.5994 -1.50603 1.4476 -1.86289 2.4295h0.946c0.47258 -0.5583 1.0607 -1.0073 1.72375 -1.3161 0.66303 -0.3089 1.38523 -0.4701 2.11663 -0.4726Z" stroke-width="1"></path>
  <path stroke="#191919" stroke-linecap="round" stroke-linejoin="round" d="M16.8352 19.6522c-0.3568 -0.9819 -1.0072 -1.8301 -1.8629 -2.4295 -0.8556 -0.5994 -1.875 -0.9209 -2.9197 -0.9209 -1.0447 0 -2.06406 0.3215 -2.91969 0.9209 -0.85563 0.5994 -1.50603 1.4476 -1.86289 2.4295" stroke-width="1"></path>
  <path fill="#c77f67" d="M15.0705 11.34c-0.9622 0.4148 -2.028 0.5262 -3.0552 0.3194 -1.0272 -0.2068 -1.9668 -0.722 -2.69352 -1.4768 0.32692 -0.55639 0.81922 -0.99696 1.40832 -1.26035 0.5892 -0.26339 1.2458 -0.3365 1.8784 -0.20913s1.2098 0.44886 1.6511 0.91971c0.4412 0.47087 0.7247 1.06757 0.8109 1.70717Z" stroke-width="1"></path>
  <path fill="#e3bfb3" d="M12 10.2113c0.4963 0.0017 0.9848 0.123 1.4242 0.3536 0.4394 0.2306 0.8168 0.5637 1.1001 0.9712 0.1852 -0.0561 0.3675 -0.1216 0.5462 -0.1961 -0.0862 -0.6396 -0.3697 -1.2363 -0.8109 -1.70717 -0.4413 -0.47085 -1.0185 -0.79234 -1.6511 -0.91971 -0.6326 -0.12737 -1.2892 -0.05426 -1.8784 0.20913 -0.5891 0.26339 -1.0814 0.70396 -1.40832 1.26035 0.23913 0.2487 0.50408 0.4735 0.78912 0.6695 0.5414 -0.4168 1.2058 -0.6422 1.8891 -0.6408Z" stroke-width="1"></path>
  <path stroke="#191919" stroke-linecap="round" stroke-linejoin="round" d="M15.0799 11.34h-0.0096" stroke-width="1"></path>
  <path stroke="#191919" stroke-linecap="round" stroke-linejoin="round" d="M15.0705 11.34c-0.9622 0.4148 -2.028 0.5262 -3.0552 0.3194 -1.0272 -0.2068 -1.9668 -0.722 -2.69352 -1.4768 0.32692 -0.55639 0.81922 -0.99696 1.40832 -1.26035 0.5892 -0.26339 1.2458 -0.3365 1.8784 -0.20913s1.2098 0.44886 1.6511 0.91971c0.4412 0.47087 0.7247 1.06757 0.8109 1.70717Z" stroke-width="1"></path>
  <path fill="#ffdda1" stroke="#191919" stroke-linecap="round" stroke-linejoin="round" d="M15.1085 11.7609c0 0.478 -0.1102 0.9495 -0.3221 1.378 -0.2119 0.4285 -0.5198 0.8023 -0.8996 1.0925 -0.3799 0.2901 -0.8216 0.4888 -1.2907 0.5804 -0.4691 0.0917 -0.9531 0.074 -1.4142 -0.0518 -0.4612 -0.1257 -0.8872 -0.3562 -1.24478 -0.6733 -0.35762 -0.3172 -0.63728 -0.7126 -0.81725 -1.1554 -0.17997 -0.4428 -0.2554 -0.9212 -0.22042 -1.3979 0.03498 -0.4767 0.17942 -0.939 0.4221 -1.3508 0.72665 0.7548 1.66635 1.27 2.69355 1.4768 1.0271 0.2068 2.093 0.0954 3.0551 -0.3194 0.0278 0.1387 0.0402 0.2793 0.0383 0.4209Z" stroke-width="1"></path>
</svg>