<svg xmlns="http://www.w3.org/2000/svg" fill="none" viewBox="0 0 24 24" id="Task-List-Approve--Streamline-Ultimate">
  <desc>
    Task List Approve Streamline Icon: https://streamlinehq.com
  </desc>
  <path fill="#c77f67" stroke="#191919" stroke-linecap="round" stroke-linejoin="round" d="M21.0897 3.86411c0 -0.25376 -0.1008 -0.49713 -0.2802 -0.67656 -0.1794 -0.17943 -0.4228 -0.28024 -0.6766 -0.28024h-5.2126c-0.2485 -0.56708 -0.6568 -1.04946 -1.1751 -1.38819C13.227 1.18039 12.6212 1 12.0021 1s-1.2249 0.18039 -1.7431 0.51912c-0.51827 0.33873 -0.92661 0.82111 -1.17512 1.38819H3.86744c-0.25376 0 -0.49712 0.10081 -0.67656 0.28024 -0.17943 0.17943 -0.28024 0.4228 -0.28024 0.67656V22.0432c0 0.2538 0.10081 0.4971 0.28024 0.6766 0.17944 0.1794 0.4228 0.2802 0.67656 0.2802H20.1329c0.2538 0 0.4972 -0.1008 0.6766 -0.2802 0.1794 -0.1795 0.2802 -0.4228 0.2802 -0.6766V3.86411Z" stroke-width="1"></path>
  <path fill="#e3e3e3" d="M5.78125 20.1296h8.68765c0.2763 -0.0001 0.5492 -0.06 0.8001 -0.1756 0.2509 -0.1156 0.4738 -0.2842 0.6533 -0.4941l1.8371 -2.1423c0.2966 -0.3473 0.4592 -0.7874 0.4602 -1.2438V5.77771H5.78125V20.1296Z" stroke-width="1"></path>
  <path fill="#ffffff" d="M5.78125 18.2035 18.2091 5.77478H5.78125V18.2035Z" stroke-width="1"></path>
  <path stroke="#191919" stroke-linecap="round" stroke-linejoin="round" d="m14.6499 9.99811 -2.7747 3.70659c-0.0619 0.0821 -0.1406 0.1499 -0.231 0.199 -0.0903 0.0491 -0.1901 0.0782 -0.2926 0.0855 -0.1026 0.0072 -0.2055 -0.0076 -0.3018 -0.0434 -0.0963 -0.0359 -0.1839 -0.092 -0.2567 -0.1645l-1.43519 -1.4352" stroke-width="1"></path>
  <path stroke="#191919" stroke-linecap="round" stroke-linejoin="round" d="M5.78125 20.1296h8.68765c0.2763 -0.0001 0.5492 -0.06 0.8001 -0.1756 0.2509 -0.1156 0.4738 -0.2842 0.6533 -0.4941l1.8371 -2.1423c0.2966 -0.3473 0.4592 -0.7874 0.4602 -1.2438V5.77771H5.78125V20.1296Z" stroke-width="1"></path>
</svg>