<svg xmlns="http://www.w3.org/2000/svg" fill="none" viewBox="0 0 24 24" id="Team-Chat--Streamline-Ultimate">
  <desc>
    Team Chat Streamline Icon: https://streamlinehq.com
  </desc>
  <mask id="a" width="22" height="22" x="1" y="1" maskUnits="userSpaceOnUse" style="mask-type:luminance">
    <path fill="#ffffff" d="M1 1h22v22H1V1Z"></path>
  </mask>
  <g mask="url(#a)">
    <path fill="#ff808c" d="M12.4582 14.2916c-.2431 0-.4763.0966-.6482.2685s-.2685.4051-.2685.6482v4.5833c0 .2431.0966.4763.2685.6482s.4051.2685.6482.2685h1.375v1.8333l2.2916-1.8333h5.5c.2432 0 .4763-.0966.6482-.2685s.2685-.4051.2685-.6482v-4.5833c0-.2431-.0966-.4763-.2685-.6482s-.405-.2685-.6482-.2685h-9.1666Z"></path>
    <path fill="#ffef5e" d="M11.5418 1.45831c.2431 0 .4763.09658.6482.26849s.2685.40506.2685.64818v4.58333c0 .24312-.0966.47628-.2685.64818-.1719.17191-.4051.26849-.6482.26849h-1.375v2.29162L7.87516 7.87498h-5.5c-.24311 0-.47627-.09658-.64818-.26849-.17191-.1719-.26848-.40506-.26848-.64818V2.37498c0-.24312.09657-.47627.26848-.64818.17191-.17191.40507-.26849.64818-.26849h9.16664Z"></path>
    <path fill="#fff9bf" d="M2.37516 1.45831c-.24311 0-.47627.09658-.64818.26849-.17191.17191-.26848.40506-.26848.64818v4.58333c0 .24312.09657.47628.26848.64818.17191.17191.40507.26849.64818.26849h.5885l6.41667-6.41667H2.37516Z"></path>
    <path fill="#ffbfc5" d="M12.4582 14.2916c-.2431 0-.4763.0966-.6482.2685s-.2685.4051-.2685.6482v4.5833c0 .2431.0966.4763.2685.6482s.4051.2685.6482.2685h.5885l6.4166-6.4167h-7.0051Z"></path>
    <path stroke="#191919" stroke-linecap="round" stroke-linejoin="round" d="M12.4582 14.2916c-.2431 0-.4763.0966-.6482.2685s-.2685.4051-.2685.6482v4.5833c0 .2431.0966.4763.2685.6482s.4051.2685.6482.2685h1.375v1.8333l2.2916-1.8333h5.5c.2432 0 .4763-.0966.6482-.2685s.2685-.4051.2685-.6482v-4.5833c0-.2431-.0966-.4763-.2685-.6482s-.405-.2685-.6482-.2685h-9.1666Z"></path>
    <path stroke="#191919" stroke-linecap="round" stroke-linejoin="round" d="M11.5418 1.45831c.2431 0 .4763.09658.6482.26849s.2685.40506.2685.64818v4.58333c0 .24312-.0966.47628-.2685.64818-.1719.17191-.4051.26849-.6482.26849h-1.375v2.29162L7.87516 7.87498h-5.5c-.24311 0-.47627-.09658-.64818-.26849-.17191-.1719-.26848-.40506-.26848-.64818V2.37498c0-.24312.09657-.47627.26848-.64818.17191-.17191.40507-.26849.64818-.26849h9.16664Z"></path>
    <path stroke="#191919" stroke-linecap="round" stroke-linejoin="round" d="M13.375 16.125h6.875"></path>
    <path stroke="#191919" stroke-linecap="round" stroke-linejoin="round" d="M13.375 17.9583h4.5833"></path>
    <path fill="#66e1ff" stroke="#191919" stroke-linecap="round" stroke-linejoin="round" d="M14.2921 12.4583c-.0213-.5474.0708-1.0933.2706-1.6034s.5029-.97333.8902-1.36069c.3874-.38737.8507-.69046 1.3608-.89023.5101-.19978 1.056-.29193 1.6034-.27066.5474-.02127 1.0932.07088 1.6033.27066.5101.19977.9734.50286 1.3608.89023.3873.38736.6904.85059.8902 1.36069.1998.5101.2919 1.056.2707 1.6034h-8.25Z"></path>
    <path fill="#c77f67" stroke="#191919" stroke-linecap="round" stroke-linejoin="round" d="M21.1413 3.8233c-.4847.2591-1.0271.39153-1.5767.385-.6457.00023-1.2786-.18096-1.8264-.52293-.5478-.34197-.9885-.83096-1.2719-1.41124.3604-.36335.8151-.61892 1.3128-.73796.4978-.11903 1.0189-.09681 1.5047.06417.4858.16099.917.45434 1.2452.84706.3281.39272.5402.86922.6123 1.3759Z"></path>
    <path fill="#ffdda1" stroke="#191919" stroke-linecap="round" stroke-linejoin="round" d="M21.1665 4.20828c.0004.45186-.1106.89686-.3231 1.29564-.2125.39878-.52.73905-.8952.99072-.3753.25167-.8069.40699-1.2565.45221-.4496.04523-.9034-.02103-1.3213-.19291-.4179-.17189-.787-.4441-1.0746-.79256-.2877-.34847-.4851-.76245-.5747-1.20534-.0896-.44289-.0687-.90104.0609-1.33393.1296-.43289.3638-.82718.682-1.148.2834.58028.7241 1.06927 1.2719 1.41124.5478.34197 1.1807.52316 1.8264.52293.55.00641 1.0918-.12559 1.5767-.385.0183.12833.0275.25666.0275.385Z"></path>
    <path fill="#66e1ff" stroke="#191919" stroke-linecap="round" stroke-linejoin="round" d="M1.45807 22.5416c-.02126-.5474.07089-1.0933.27066-1.6034.19978-.5101.50287-.9733.89023-1.3607.38737-.3874.85064-.6905 1.36073-.8902.51009-.1998 1.05598-.292 1.60338-.2707.54744-.0214 1.09339.0707 1.60354.2704.51016.1997.97349.5028 1.36088.8902.38739.3874.69048.8507.8902 1.3609.19973.5101.29179 1.0561.27038 1.6035h-8.25Z"></path>
    <path fill="#c77f67" stroke="#191919" stroke-linecap="round" stroke-linejoin="round" d="M8.30755 13.9249c-.4779.2491-1.01033.3751-1.54917.3667-.6492-.0001-1.28518-.1834-1.83488-.5288-.54969-.3454-.9908-.8389-1.27262-1.4237.36346-.3587.81964-.6092 1.31742-.7233.49779-.1141 1.01752-.0874 1.50095.0773.48343.1646.91147.4606 1.23615.8548.32469.3942.53319.871.60215 1.377Z"></path>
    <path fill="#ffdda1" stroke="#191919" stroke-linecap="round" stroke-linejoin="round" d="M8.3335 14.2916c.00039.453-.11112.899-.32461 1.2985-.21349.3995-.52235.7401-.89914.9915-.3768.2514-.80986.4058-1.2607.4495-.45084.0438-.90551-.0245-1.3236-.1988-.41809-.1743-.78666-.4491-1.07296-.8001-.2863-.351-.48147-.7673-.56816-1.2119-.08669-.4446-.06222-.9037.07124-1.3366.13346-.4328.37177-.826.69376-1.1446.28182.5848.72293 1.0783 1.27262 1.4237.5497.3454 1.18568.5287 1.83488.5288.53883.0084 1.07126-.1176 1.54917-.3667.01833.121.0275.2439.0275.3667Z"></path>
    <path stroke="#191919" stroke-linecap="round" stroke-linejoin="round" d="M3.65088 12.3392V12.33"></path>
    <path stroke="#191919" stroke-linecap="round" stroke-linejoin="round" d="M10.1665 3.29163h-6.875"></path>
    <path stroke="#191919" stroke-linecap="round" stroke-linejoin="round" d="M7.87484 5.125H3.2915"></path>
  </g>
</svg>