<svg xmlns="http://www.w3.org/2000/svg" fill="none" viewBox="0 0 14 14" id="Cloud-Data-Transfer--Streamline-Flex-Remix">
  <desc>
    Cloud Data Transfer Streamline Icon: https://streamlinehq.com
  </desc>
  <g id="cloud-data-transfer--cloud-data-transfer-internet-server-network">
    <path id="Union" fill="#000000" fill-rule="evenodd" d="M7.30934 0c-1.0189 0 -1.91746 0.225094 -2.63672 0.701838C4.07031 1.10107 3.6254 1.65616 3.3446 2.3341c-0.94182 0.06934 -1.7523 0.38559 -2.348303 0.9816C0.315796 3.9962 0 4.95629 0 6.07224c0 1.26192 0.486236 2.2119 1.23632 2.895 0.25521 0.23242 0.6505 0.21394 0.88292 -0.04127 0.23241 -0.25521 0.21394 -0.6505 -0.04127 -0.88292C1.58111 7.59056 1.25 6.97316 1.25 6.07224c0 -0.88587 0.24722 -1.4897 0.63018 -1.87266 0.37327 -0.37327 0.95637 -0.61758 1.80594 -0.62971 0.01209 0.0007 0.02427 0.00105 0.03654 0.00105 0.44181 0 0.87551 0.14679 1.2364 0.37249 0.36835 0.23036 0.61156 0.51139 0.71137 0.72445 0.14644 0.31258 0.51855 0.44726 0.83112 0.30082 0.31258 -0.14644 0.44726 -0.51854 0.30082 -0.83112 -0.22602 -0.48245 -0.66219 -0.92981 -1.18052 -1.25396 -0.28065 -0.17552 -0.59962 -0.32398 -0.9445 -0.42426 0.17925 -0.29558 0.40964 -0.5325 0.68588 -0.7156C5.82846 1.43537 6.46944 1.25 7.30934 1.25c1.02308 0 1.75075 0.27402 2.2308 0.71667 0.47736 0.44016 0.78816 1.11925 0.83676 2.08871 0.0164 0.3284 0.2845 0.58789 0.6133 0.59362 0.6431 0.01123 1.061 0.19875 1.3197 0.46507 0.2597 0.26733 0.4401 0.6974 0.4401 1.35482 0 0.77843 -0.2684 1.30843 -0.6675 1.69622 -0.4171 0.40526 -1.013 0.68818 -1.7022 0.8766 -0.3329 0.09102 -0.52906 0.43473 -0.43803 0.76769 0.09103 0.333 0.43473 0.5291 0.76773 0.4381 0.7986 -0.2184 1.6176 -0.57775 2.2435 -1.18588C13.5974 8.43603 14 7.58156 14 6.46889c0 -0.88364 -0.2464 -1.66271 -0.7936 -2.22586 -0.4278 -0.4404 -0.9903 -0.69809 -1.6338 -0.79725 -0.1412 -0.97122 -0.53 -1.794 -1.1851 -2.39807C9.61535 0.335715 8.55176 0 7.30934 0ZM3.18562 9.71898c-0.11952 0.19276 -0.12523 0.43512 -0.01493 0.63332 0.1103 0.1982 0.3193 0.321 0.54611 0.321h1.42509v2.7017c0 0.3452 0.27983 0.625 0.625 0.625 0.34518 0 0.625 -0.2798 0.625 -0.625V8.41417c0 -0.23018 -0.08174 -0.58829 -0.42881 -0.77581 -0.35914 -0.19405 -0.71082 -0.05105 -0.90511 0.09134 -0.45733 0.33517 -1.26464 1.00918 -1.87235 1.98928ZM7.08643 13.131c0 0.2302 0.08173 0.5883 0.42881 0.7758 0.35914 0.194 0.71082 0.051 0.90511 -0.0913 0.45733 -0.3352 1.26464 -1.0092 1.87235 -1.9893 0.1195 -0.1928 0.1252 -0.4352 0.0149 -0.6333 -0.1103 -0.1982 -0.31927 -0.3211 -0.54608 -0.3211H8.33643V8.17016c0 -0.34518 -0.27983 -0.625 -0.625 -0.625 -0.34518 0 -0.625 0.27982 -0.625 0.625V13.131Z" clip-rule="evenodd" stroke-width="1"></path>
  </g>
</svg>