<svg xmlns="http://www.w3.org/2000/svg" fill="none" viewBox="0 0 14 14" id="Cloud-Off--Streamline-Flex-Remix">
  <desc>
    Cloud Off Streamline Icon: https://streamlinehq.com
  </desc>
  <g id="cloud-off--cloud-network-internet-disable-server-off">
    <path id="Union" fill="#000000" fill-rule="evenodd" d="M0.240431 0.132372c-0.2720864 0.212406 -0.3204664 0.605166 -0.10806 0.877258C1.28147 2.48158 2.29467 3.73358 3.26377 4.85898c0.0329 0.05195 0.07347 0.09915 0.12066 0.13972 2.20286 2.54381 4.19603 4.44897 7.06927 6.8241 0.0471 0.0549 0.103 0.1006 0.1647 0.1358 0.7275 0.599 1.5115 1.2288 2.369 1.9067 0.2708 0.2141 0.6638 0.1681 0.8779 -0.1027 0.2141 -0.2708 0.1681 -0.6638 -0.1027 -0.8779 -0.5856 -0.463 -1.1361 -0.9028 -1.6571 -1.3252 0.3739 -0.2201 0.7221 -0.4936 1.0168 -0.8345 0.5496 -0.6359 0.8777 -1.4661 0.8777 -2.51113 0 -0.91241 -0.2423 -1.71595 -0.7837 -2.29938 -0.4268 -0.45982 -0.9915 -0.73136 -1.6402 -0.83587 -0.1372 -1.01518 -0.5226 -1.87568 -1.1782 -2.50856 -0.77132 -0.74454 -1.83871 -1.09884 -3.08856 -1.09884 -1.0242 0 -1.92695 0.23718 -2.64771 0.7373 -0.43208 0.29982 -0.78128 0.68213 -1.04666 1.13355 -0.77676 -0.92601 -1.59363 -1.94408 -2.49728 -3.101639C0.905278 -0.0316554 0.512517 -0.0800354 0.240431 0.132372ZM1.95234 4.82376c0.25402 0.23371 0.2705 0.62909 0.03679 0.88312 -0.3074 0.33414 -0.48153 0.62257 -0.58568 0.92383 -0.10636 0.30766 -0.15342 0.66785 -0.15342 1.16792 0 0.84259 0.26029 1.44568 0.65037 1.89728 0.40051 0.46359 0.97039 0.80409 1.63629 1.04789 1.34365 0.4921 2.91738 0.5351 3.77268 0.5351 0.22882 0 0.50037 -0.0023 0.80012 -0.0147 0.34488 -0.0143 0.63603 0.2537 0.65029 0.5986 0.01427 0.3449 -0.25375 0.636 -0.59864 0.6503 -0.32399 0.0134 -0.6146 0.0158 -0.85177 0.0158 -0.86586 0 -2.6343 -0.037 -4.20252 -0.6113 -0.79005 -0.2893 -1.56853 -0.7287 -2.152408 -1.4046C0.360141 9.825 0.0000284474 8.92864 0.0000284474 7.79863c0 -0.57196 0.0525497526 -1.08611 0.2220285526 -1.57634 0.171691 -0.49663 0.44964 -0.92964 0.847163 -1.36173 0.2337 -0.25403 0.62909 -0.2705 0.88312 -0.0368Z" clip-rule="evenodd" stroke-width="1"></path>
  </g>
</svg>