<svg xmlns="http://www.w3.org/2000/svg" fill="none" viewBox="0 0 14 14" id="Code-Analysis--Streamline-Flex-Remix">
  <desc>
    Code Analysis Streamline Icon: https://streamlinehq.com
  </desc>
  <g id="code-analysis">
    <path id="Union" fill="#000000" fill-rule="evenodd" d="M2.80525 2.80537c-0.82499 0.825 -1.30623 2.07887 -1.30623 3.7968 0 1.71792 0.48124 2.97179 1.30623 3.79683 0.825 0.825 2.07888 1.3062 3.7968 1.3062 1.71793 0 2.97181 -0.4812 3.79685 -1.3062 0.825 -0.82504 1.3062 -2.07891 1.3062 -3.79683 0 -1.71793 -0.4812 -2.9718 -1.3062 -3.7968 -0.82504 -0.82499 -2.07892 -1.30622 -3.79685 -1.30622 -1.71792 0 -2.9718 0.48123 -3.7968 1.30622Zm-0.88388 -0.88388C3.0439 0.798957 4.65404 0.249146 6.60205 0.249146c1.94802 0 3.55815 0.549811 4.68065 1.672344 1.1226 1.12253 1.6724 2.73267 1.6724 4.68068 0 1.58735 -0.3651 2.95036 -1.1076 4.00803l1.6469 1.6469c0.3418 0.3417 0.3418 0.8957 0.0001 1.2374 -0.3417 0.3418 -0.8958 0.3418 -1.2375 0.0001l-1.647 -1.647c-1.05762 0.7425 -2.42061 1.1076 -4.00795 1.1076 -1.94801 0 -3.55815 -0.5498 -4.68068 -1.6724C0.798836 10.1603 0.249023 8.55017 0.249023 6.60217c0 -1.94801 0.549813 -3.55815 1.672347 -4.68068Zm4.10144 6.98155c0.18524 -0.37049 0.03508 -0.82099 -0.33541 -1.00623 -0.51732 -0.25867 -1.05322 -0.74866 -1.40214 -1.26441 0.34892 -0.51579 0.88482 -1.00578 1.40214 -1.26444 0.37049 -0.18524 0.52065 -0.63575 0.33541 -1.00623 -0.18524 -0.37049 -0.63574 -0.52065 -1.00623 -0.33541 -0.91924 0.45962 -1.81104 1.35141 -2.27066 2.27069 -0.10557 0.21115 -0.10556 0.45968 0.00001 0.67082 0.45962 0.91921 1.35141 1.811 2.27065 2.27062 0.37049 0.18524 0.82099 0.03507 1.00623 -0.33541Zm1.21878 0c-0.18524 -0.37049 -0.03507 -0.82099 0.33541 -1.00623 0.51733 -0.25867 1.05322 -0.74866 1.40215 -1.26441 -0.34892 -0.51579 -0.88482 -1.00578 -1.40215 -1.26444 -0.37048 -0.18524 -0.52065 -0.63575 -0.33541 -1.00623 0.18524 -0.37049 0.63575 -0.52065 1.00623 -0.33541 0.91925 0.45962 1.81108 1.35141 2.27068 2.27069 0.1056 0.21115 0.1055 0.45968 0 0.67082 -0.4596 0.91921 -1.35144 1.811 -2.27068 2.27062 -0.37048 0.18524 -0.82099 0.03507 -1.00623 -0.33541Z" clip-rule="evenodd" stroke-width="1"></path>
  </g>
</svg>