<svg xmlns="http://www.w3.org/2000/svg" fill="none" viewBox="0 0 24 24" id="Barcode-1--Streamline-Cyber">
  <desc>
    Barcode 1 Streamline Icon: https://streamlinehq.com
  </desc>
  <path fill="#ffffff" d="M23.2487 2.2852H0.751312v19.4296H23.2487V2.2852Z" stroke-width="1"></path>
  <path fill="#bbd8ff" d="M23.2487 19.6696H0.751312v2.0452H23.2487v-2.0452Z" stroke-width="1"></path>
  <path stroke="#092f63" stroke-linecap="round" stroke-linejoin="round" d="M3.81909 15.5791v2.0452" stroke-width="1"></path>
  <path stroke="#092f63" stroke-linecap="round" stroke-linejoin="round" d="M3.81909 7.3983v6.1356" stroke-width="1"></path>
  <path stroke="#092f63" stroke-linecap="round" stroke-linejoin="round" d="M5.86441 17.6243v-2.0452" stroke-width="1"></path>
  <path stroke="#092f63" stroke-linecap="round" stroke-linejoin="round" d="M5.86441 10.4661V7.3983" stroke-width="1"></path>
  <path stroke="#092f63" stroke-linecap="round" stroke-linejoin="round" d="M5.86441 13.5339v-1.0226" stroke-width="1"></path>
  <path stroke="#092f63" stroke-linecap="round" stroke-linejoin="round" d="M7.90961 7.3983v10.2261" stroke-width="1"></path>
  <path stroke="#092f63" stroke-linecap="round" stroke-linejoin="round" d="M9.9548 17.6243v-2.0452" stroke-width="1"></path>
  <path stroke="#092f63" stroke-linecap="round" stroke-linejoin="round" d="M9.9548 13.5339V7.3983" stroke-width="1"></path>
  <path stroke="#092f63" stroke-linecap="round" stroke-linejoin="round" d="M18.1356 17.6243V7.3983" stroke-width="1"></path>
  <path stroke="#092f63" stroke-linecap="round" stroke-linejoin="round" d="M16.0904 15.5791v2.0452" stroke-width="1"></path>
  <path stroke="#092f63" stroke-linecap="round" stroke-linejoin="round" d="M16.0904 7.3983v6.1356" stroke-width="1"></path>
  <path stroke="#092f63" stroke-linecap="round" stroke-linejoin="round" d="M14.0452 17.6243V7.3983" stroke-width="1"></path>
  <path stroke="#092f63" stroke-linecap="round" stroke-linejoin="round" d="M12 7.3983v6.1356" stroke-width="1"></path>
  <path stroke="#092f63" stroke-linecap="round" stroke-linejoin="round" d="M12 16.6017v1.0226" stroke-width="1"></path>
  <path stroke="#092f63" stroke-linecap="round" stroke-linejoin="round" d="M20.1809 17.6243v-2.0452" stroke-width="1"></path>
  <path stroke="#092f63" stroke-linecap="round" stroke-linejoin="round" d="M20.1809 13.5339V7.3983" stroke-width="1"></path>
  <path stroke="#092f63" stroke-linecap="round" stroke-linejoin="round" d="M23.2487 2.2852H0.751312v19.4296H23.2487V2.2852Z" stroke-width="1"></path>
</svg>