<svg xmlns="http://www.w3.org/2000/svg" fill="none" viewBox="0 0 24 24" id="Bow-Tie--Streamline-Cyber">
  <desc>
    Bow Tie Streamline Icon: https://streamlinehq.com
  </desc>
  <path fill="#ffffff" d="M21.31 6.12h-2.45l-5.39 2.94h-2.94L5.14001 6.12h-2.45L0.730011 12l1.959999 5.88h2.45L10.53 14.94h2.94l5.39 2.94h2.45L23.27 12l-1.96 -5.88Z" stroke-width="1"></path>
  <path fill="#bbd8ff" d="M13.47 12h-2.94v2.94h2.94V12Z" stroke-width="1"></path>
  <path fill="#bbd8ff" d="M10.53 12H0.730011l1.959999 5.88h2.45L10.53 14.94V12Z" stroke-width="1"></path>
  <path fill="#bbd8ff" d="M13.47 12v2.94l5.39 2.94h2.45L23.27 12h-9.8Z" stroke-width="1"></path>
  <path stroke="#092f63" stroke-linecap="round" stroke-linejoin="round" stroke-miterlimit="10" d="M21.31 6.12h-2.45l-5.39 2.94v5.88l5.39 2.94h2.45L23.27 12l-1.96 -5.88Z" stroke-width="1"></path>
  <path stroke="#092f63" stroke-linecap="round" stroke-linejoin="round" stroke-miterlimit="10" d="M2.69001 6.12h2.45L10.53 9.06v5.88l-5.38999 2.94h-2.45L0.730011 12 2.69001 6.12Z" stroke-width="1"></path>
  <path stroke="#092f63" stroke-linecap="round" stroke-linejoin="round" stroke-miterlimit="10" d="M13.47 9.06h-2.94v5.88h2.94V9.06Z" stroke-width="1"></path>
  <path stroke="#092f63" stroke-linecap="round" stroke-linejoin="round" stroke-miterlimit="10" d="m13.47 11.51 2.94 -0.98" stroke-width="1"></path>
  <path stroke="#092f63" stroke-linecap="round" stroke-linejoin="round" stroke-miterlimit="10" d="m13.47 12.49 2.94 0.98" stroke-width="1"></path>
  <path stroke="#092f63" stroke-linecap="round" stroke-linejoin="round" stroke-miterlimit="10" d="m10.53 11.51 -2.94 -0.98" stroke-width="1"></path>
  <path stroke="#092f63" stroke-linecap="round" stroke-linejoin="round" stroke-miterlimit="10" d="m10.53 12.49 -2.94 0.98" stroke-width="1"></path>
</svg>