<svg xmlns="http://www.w3.org/2000/svg" fill="none" viewBox="0 0 24 24" id="Delivery-Package-2--Streamline-Cyber">
  <desc>
    Delivery Package 2 Streamline Icon: https://streamlinehq.com
  </desc>
  <path fill="#ffffff" d="m23.2487 6.887 -8.1809 -3.5792L6.88702 6.887v10.2261l8.18078 3.5791 8.1809 -3.5791V6.887Z" stroke-width="1"></path>
  <path fill="#bbd8ff" d="M19.0488 5.0493 10.868 8.6285l4.1998 1.8376v10.2261l8.1809 -3.5791V6.887l-4.1999 -1.8377Z" stroke-width="1"></path>
  <path stroke="#092f63" stroke-linecap="round" stroke-linejoin="round" d="m10.9774 5.0974 8.1809 3.6108V12" stroke-width="1"></path>
  <path stroke="#092f63" stroke-linecap="round" stroke-linejoin="round" d="m0.751282 13.178 0.0481 0.0225 4.042298 1.8673" stroke-width="1"></path>
  <path stroke="#092f63" stroke-linecap="round" stroke-linejoin="round" d="m1.47333 9.9323 3.3684 1.5564" stroke-width="1"></path>
  <path stroke="#092f63" stroke-linecap="round" stroke-linejoin="round" d="m2.14722 6.665 2.6945 1.2445" stroke-width="1"></path>
  <path stroke="#092f63" stroke-linecap="round" stroke-linejoin="round" d="M15.0678 10.4661v10.2261" stroke-width="1"></path>
  <path stroke="#092f63" stroke-linecap="round" stroke-linejoin="round" d="M6.88702 6.887v10.2261l8.18078 3.5791 8.1809 -3.5791V6.887" stroke-width="1"></path>
  <path stroke="#092f63" stroke-linecap="round" stroke-linejoin="round" d="m6.88702 6.887 8.18078 3.5791 8.1809 -3.5791" stroke-width="1"></path>
  <path stroke="#092f63" stroke-linecap="round" stroke-linejoin="round" d="m6.88702 6.887 8.18078 -3.5792 8.1809 3.5792" stroke-width="1"></path>
</svg>