<svg xmlns="http://www.w3.org/2000/svg" fill="none" viewBox="0 0 24 24" id="Delivery-Package-Open--Streamline-Cyber">
  <desc>
    Delivery Package Open Streamline Icon: https://streamlinehq.com
  </desc>
  <path fill="#ffffff" d="m20.7575 8.497 2.0016 -3.503L14.2519 0.990601 11.7498 4.4936 9.74812 0.990601 0.740417 4.994 2.74212 8.497 0.740417 12l2.001703 0.8898v6.1162l9.00768 4.0034 9.0077 -4.0034v-6.2554l2.5021 -1.251 -2.5021 -3.0026Z" stroke-width="1"></path>
  <path fill="#bbd8ff" d="m14.2519 16.0034 -2.5021 -3.503v10.509l9.0077 -4.0034v-6.2554l-6.5056 3.2528Z" stroke-width="1"></path>
  <path fill="#bbd8ff" d="m2.74213 8.497 9.00767 -4.0034 9.0077 4.0034 -9.0077 4.0034L2.74213 8.497Z" stroke-width="1"></path>
  <path stroke="#092f63" stroke-linecap="round" stroke-linejoin="round" d="M20.7575 12.7506v6.2554l-9.0077 4.0034 -9.00767 -4.0034v-6.1162" stroke-width="1"></path>
  <path stroke="#092f63" stroke-linecap="round" stroke-linejoin="round" d="M11.7498 12.5004v10.509" stroke-width="1"></path>
  <path stroke="#092f63" stroke-linecap="round" stroke-linejoin="round" d="M2.74212 8.497 0.740417 4.994 9.74812 0.990601 11.7498 4.4936" stroke-width="1"></path>
  <path stroke="#092f63" stroke-linecap="round" stroke-linejoin="round" d="m20.7575 8.497 2.0016 -3.503L14.2519 0.990601 11.7498 4.4936" stroke-width="1"></path>
  <path stroke="#092f63" stroke-linecap="round" stroke-linejoin="round" d="m11.7498 12.5004 -2.00168 3.503L0.740417 12 2.74212 8.497" stroke-width="1"></path>
  <path stroke="#092f63" stroke-linecap="round" stroke-linejoin="round" d="m11.7498 12.5004 2.5021 3.503 9.0077 -4.5038 -2.5021 -3.0026" stroke-width="1"></path>
  <path stroke="#092f63" stroke-linecap="round" stroke-linejoin="round" d="m20.7575 8.497 -9.0077 4.0034L2.74213 8.497" stroke-width="1"></path>
  <path stroke="#092f63" stroke-linecap="round" stroke-linejoin="round" d="m20.7575 8.497 -9.0077 -4.0034L2.74213 8.497" stroke-width="1"></path>
</svg>