<svg xmlns="http://www.w3.org/2000/svg" fill="none" viewBox="0 0 24 24" id="Package-Wooden--Streamline-Cyber">
  <desc>
    Package Wooden Streamline Icon: https://streamlinehq.com
  </desc>
  <path fill="#ffffff" d="M23.2487 0.751297H0.751312V23.2487H23.2487V0.751297Z" stroke-width="1"></path>
  <path fill="#bbd8ff" d="M20.1809 3.8191H3.81909v16.3618h2.0453V5.8644H20.1809V3.8191Z" stroke-width="1"></path>
  <path fill="#bbd8ff" d="M21.2035 2.7965v18.407H2.79651L0.751312 23.2487H23.2487V0.751297L21.2035 2.7965Z" stroke-width="1"></path>
  <path stroke="#092f63" stroke-linejoin="round" d="M23.2487 0.751297H0.751312V23.2487H23.2487V0.751297Z" stroke-width="1"></path>
  <path stroke="#092f63" stroke-linejoin="round" d="M0.751312 0.751297 3.81911 3.8191" stroke-width="1"></path>
  <path stroke="#092f63" stroke-linejoin="round" d="m0.751312 23.2487 3.067798 -3.0678" stroke-width="1"></path>
  <path stroke="#092f63" stroke-linejoin="round" d="M23.2487 0.751297 20.1809 3.8191" stroke-width="1"></path>
  <path stroke="#092f63" stroke-linejoin="round" d="m23.2487 23.2487 -3.0678 -3.0678" stroke-width="1"></path>
  <path stroke="#092f63" stroke-linejoin="round" d="M20.1809 3.8191H3.81909v16.3618H20.1809V3.8191Z" stroke-width="1"></path>
  <path stroke="#092f63" stroke-linejoin="round" d="M3.81909 20.1809 20.1809 3.8191" stroke-width="1"></path>
  <path stroke="#092f63" stroke-linejoin="round" d="M3.81909 15.0678 15.0678 3.8191" stroke-width="1"></path>
  <path stroke="#092f63" stroke-linejoin="round" d="m3.81909 9.9548 6.1357 -6.1357" stroke-width="1"></path>
  <path stroke="#092f63" stroke-linejoin="round" d="m20.1809 14.3009 -5.88 5.88" stroke-width="1"></path>
  <path stroke="#092f63" stroke-linejoin="round" d="M9.18781 20.1809 20.1809 9.1878" stroke-width="1"></path>
</svg>