<svg xmlns="http://www.w3.org/2000/svg" fill="none" viewBox="0 0 24 24" id="Package-Stack-2--Streamline-Cyber">
  <desc>
    Package Stack 2 Streamline Icon: https://streamlinehq.com
  </desc>
  <path fill="#ffffff" d="M23.2487 19.6696H0.751282v3.0678H23.2487v-3.0678Z" stroke-width="1"></path>
  <path fill="#ffffff" d="M21.2035 17.6243V9.4435h-4.0904V1.2626H7.90961v8.1809h-5.1131v8.1808H21.2035Z" stroke-width="1"></path>
  <path fill="#bbd8ff" d="M5.86441 19.6696h-3.0679v3.0678h3.0679v-3.0678Z" stroke-width="1"></path>
  <path fill="#bbd8ff" d="M21.2035 19.6696h-3.0679v3.0678h3.0679v-3.0678Z" stroke-width="1"></path>
  <path fill="#bbd8ff" d="M14.0452 1.2626h-3.0678V5.353l1.5339 -1.0226 1.5339 1.0226V1.2626Z" stroke-width="1"></path>
  <path fill="#bbd8ff" d="M8.93222 9.4435h-3.0679v4.0904l1.534 -1.0226 1.5339 1.0226V9.4435Z" stroke-width="1"></path>
  <path fill="#bbd8ff" d="M18.1356 9.4435h-3.0678v4.0904l1.5339 -1.0226 1.5339 1.0226V9.4435Z" stroke-width="1"></path>
  <path stroke="#092f63" stroke-linecap="round" stroke-linejoin="round" d="M0.751282 19.6696H23.2487" stroke-width="1"></path>
  <path stroke="#092f63" stroke-linecap="round" stroke-linejoin="round" d="M0.751282 22.7374H23.2487" stroke-width="1"></path>
  <path stroke="#092f63" stroke-linecap="round" stroke-linejoin="round" d="M2.79651 19.6696v3.0678" stroke-width="1"></path>
  <path stroke="#092f63" stroke-linecap="round" stroke-linejoin="round" d="M5.86438 19.6696v3.0678" stroke-width="1"></path>
  <path stroke="#092f63" stroke-linecap="round" stroke-linejoin="round" d="M18.1356 19.6696v3.0678" stroke-width="1"></path>
  <path stroke="#092f63" stroke-linecap="round" stroke-linejoin="round" d="M21.2035 19.6696v3.0678" stroke-width="1"></path>
  <path stroke="#092f63" stroke-linecap="round" stroke-linejoin="round" d="M12 9.4435H2.79651v8.1808H12V9.4435Z" stroke-width="1"></path>
  <path stroke="#092f63" stroke-linecap="round" stroke-linejoin="round" d="M21.2035 9.4435H12v8.1808h9.2035V9.4435Z" stroke-width="1"></path>
  <path stroke="#092f63" stroke-linecap="round" stroke-linejoin="round" d="M17.113 1.2626H7.90961v8.1809H17.113V1.2626Z" stroke-width="1"></path>
  <path stroke="#092f63" stroke-linecap="round" stroke-linejoin="round" d="M14.0452 1.2626h-3.0678V5.353l1.5339 -1.0226 1.5339 1.0226V1.2626Z" stroke-width="1"></path>
  <path stroke="#092f63" stroke-linecap="round" stroke-linejoin="round" d="M8.93222 9.4435h-3.0679v4.0904l1.534 -1.0226 1.5339 1.0226V9.4435Z" stroke-width="1"></path>
  <path stroke="#092f63" stroke-linecap="round" stroke-linejoin="round" d="M18.1356 9.4435h-3.0678v4.0904l1.5339 -1.0226 1.5339 1.0226V9.4435Z" stroke-width="1"></path>
</svg>