<svg xmlns="http://www.w3.org/2000/svg" fill="none" viewBox="0 0 24 24" id="Shopping-Basket-Star--Streamline-Cyber">
  <desc>
    Shopping Basket Star Streamline Icon: https://streamlinehq.com
  </desc>
  <path fill="#ffffff" d="M8.5 3.5H5.558L4.5 0.5l-1.058 3H0.5l2.268 1.855L1.5 8.5l3 -1.727 3 1.727 -1.268 -3.145L8.5 3.5Z" stroke-width="1"></path>
  <path fill="#ffffff" d="M14.5 12.5V11l-2 -1 -2 1v1.5h-9v3H3l2.5 8h14l2.5 -8h1.5v-3h-9Z" stroke-width="1"></path>
  <path fill="#bbd8ff" d="m21.375 17.5 0.625 -2H3l0.625 2h17.75Z" stroke-width="1"></path>
  <path fill="#bbd8ff" d="M2.768 5.355 1.5 8.5l3 -1.727 3 1.727 -1.268 -3.145L8.5 3.5H5.558l-2.79 1.855Z" stroke-width="1"></path>
  <path stroke="#092f63" stroke-linecap="round" stroke-linejoin="round" d="M22 15.5H3l2.5 8h14l2.5 -8Z" stroke-width="1"></path>
  <path stroke="#092f63" stroke-linecap="round" stroke-linejoin="round" d="m15.5 21.4999 1.213 -3.882" stroke-width="1"></path>
  <path stroke="#092f63" stroke-linecap="round" stroke-linejoin="round" d="m11.88 21.4999 1.213 -3.882" stroke-width="1"></path>
  <path stroke="#092f63" stroke-linecap="round" stroke-linejoin="round" d="m8.28699 21.4999 1.213 -3.882" stroke-width="1"></path>
  <path stroke="#092f63" stroke-linecap="round" stroke-linejoin="round" d="M14.5 12.5h9v3h-22v-3h9" stroke-width="1"></path>
  <path stroke="#092f63" stroke-linecap="round" stroke-linejoin="round" d="M14.5 11v4.5h-4V11l2 -1 2 1Z" stroke-width="1"></path>
  <path stroke="#092f63" stroke-linecap="round" stroke-linejoin="round" d="m12.5 12.5 6.25 -6.25" stroke-width="1"></path>
  <path stroke="#092f63" stroke-linejoin="round" d="M8.5 3.5H5.558L4.5 0.5l-1.058 3H0.5l2.268 1.855L1.5 8.5l3 -1.727 3 1.727 -1.268 -3.145L8.5 3.5Z" stroke-width="1"></path>
</svg>