<svg xmlns="http://www.w3.org/2000/svg" fill="none" viewBox="0 0 24 24" id="Shopping-Product--Streamline-Cyber">
  <desc>
    Shopping Product Streamline Icon: https://streamlinehq.com
  </desc>
  <path fill="#ffffff" d="M21.31 12.98V6.12h-6.86v6.86h-1.96V7.1H0.72998v13.72H23.27v-7.84h-1.96Z" stroke-width="1"></path>
  <path fill="#bbd8ff" d="M21.31 11.02h-6.86v1.96h6.86v-1.96Z" stroke-width="1"></path>
  <path fill="#bbd8ff" d="M11.51 18.86v-0.49H0.72998v2.45H23.27v-1.96H11.51Z" stroke-width="1"></path>
  <path stroke="#092f63" stroke-linecap="round" stroke-linejoin="round" d="M9.54998 20.82h-8.82V7.10001H12.49V11.02" stroke-width="1"></path>
  <path stroke="#092f63" stroke-linecap="round" stroke-linejoin="round" d="M23.27 12.98H11.51v7.84h11.76v-7.84Z" stroke-width="1"></path>
  <path stroke="#092f63" stroke-linecap="round" stroke-linejoin="round" d="M21.31 6.12h-6.86v6.86h6.86V6.12Z" stroke-width="1"></path>
  <path stroke="#092f63" stroke-linecap="round" stroke-linejoin="round" d="M3.66998 10.04V3.17999h5.88V10.04" stroke-width="1"></path>
  <path stroke="#092f63" stroke-linecap="round" stroke-linejoin="round" d="M16.41 8.08V4.16h2.94v3.92" stroke-width="1"></path>
  <path stroke="#092f63" stroke-linecap="round" stroke-linejoin="round" d="M11.51 16.9h11.76" stroke-width="1"></path>
  <path stroke="#092f63" stroke-linecap="round" stroke-linejoin="round" d="M17.39 20.82v-7.84" stroke-width="1"></path>
</svg>