<svg xmlns="http://www.w3.org/2000/svg" fill="none" viewBox="0 0 24 24" id="Sneakers--Streamline-Cyber">
  <desc>
    Sneakers Streamline Icon: https://streamlinehq.com
  </desc>
  <path fill="#ffffff" d="m23.5 13.5 -3 2H16l-2.5 -3L0.5 19v4.5h23v-10Z" stroke-width="1"></path>
  <path fill="#ffffff" d="m0.5 10.5 3 -2H8l2.5 3 13 -6.5V0.5H0.5v10Z" stroke-width="1"></path>
  <path fill="#bbd8ff" d="M23.5 18.5H20l-3 3h6.5v-3Z" stroke-width="1"></path>
  <path fill="#bbd8ff" d="m6 19.5 -1.8 -2.4L0.5 19v2.5H14l-3 -2H6Z" stroke-width="1"></path>
  <path fill="#bbd8ff" d="m18 4.5 1.8 2.4L23.5 5V2.5H10l3 2h5Z" stroke-width="1"></path>
  <path fill="#bbd8ff" d="M7 2.5H0.5v3H4l3 -3Z" stroke-width="1"></path>
  <path stroke="#092f63" stroke-linecap="round" stroke-linejoin="round" stroke-miterlimit="10" d="m23.5 13.5 -3 2H16l-2.5 -3L0.5 19v2.5h23v-8Z" stroke-width="1"></path>
  <path stroke="#092f63" stroke-linecap="round" stroke-linejoin="round" stroke-miterlimit="10" d="M23.5 21.5H0.5v2h23v-2Z" stroke-width="1"></path>
  <path stroke="#092f63" stroke-linecap="round" stroke-linejoin="round" stroke-miterlimit="10" d="m4.20001 17.1 1.8 2.4H11l3 2" stroke-width="1"></path>
  <path stroke="#092f63" stroke-linecap="round" stroke-linejoin="round" stroke-miterlimit="10" d="m17 21.5 3 -3h3.5" stroke-width="1"></path>
  <path stroke="#092f63" stroke-linecap="round" stroke-linejoin="round" stroke-miterlimit="10" d="m8.5 15 1.5 1.5" stroke-width="1"></path>
  <path stroke="#092f63" stroke-linecap="round" stroke-linejoin="round" stroke-miterlimit="10" d="m11.2 13.7 1.3 1.3" stroke-width="1"></path>
  <path stroke="#092f63" stroke-linecap="round" stroke-linejoin="round" stroke-miterlimit="10" d="m0.5 10.5 3 -2H8l2.5 3 13 -6.5V2.5H0.5v8Z" stroke-width="1"></path>
  <path stroke="#092f63" stroke-linecap="round" stroke-linejoin="round" stroke-miterlimit="10" d="M23.5 0.5H0.5v2h23v-2Z" stroke-width="1"></path>
  <path stroke="#092f63" stroke-linecap="round" stroke-linejoin="round" stroke-miterlimit="10" d="M19.8 6.9 18 4.5h-5l-3 -2" stroke-width="1"></path>
  <path stroke="#092f63" stroke-linecap="round" stroke-linejoin="round" stroke-miterlimit="10" d="m7 2.5 -3 3H0.5" stroke-width="1"></path>
  <path stroke="#092f63" stroke-linecap="round" stroke-linejoin="round" stroke-miterlimit="10" d="M15.5 9 14 7.5" stroke-width="1"></path>
  <path stroke="#092f63" stroke-linecap="round" stroke-linejoin="round" stroke-miterlimit="10" d="M12.8 10.3 11.5 9" stroke-width="1"></path>
</svg>