<svg xmlns="http://www.w3.org/2000/svg" fill="none" viewBox="0 0 24 24" id="Store-Sale--Streamline-Cyber">
  <desc>
    Store Sale Streamline Icon: https://streamlinehq.com
  </desc>
  <path fill="#ffffff" d="M20.1809 1.7739H3.81908L0.751282 6.887H2.79648v15.3391H21.2035V6.887h2.0452l-3.0678 -5.1131Z" stroke-width="1"></path>
  <path fill="#bbd8ff" d="M21.2035 20.1809H2.79651v2.0452H21.2035v-2.0452Z" stroke-width="1"></path>
  <path fill="#bbd8ff" d="M23.2487 6.88699v2.5565l-1.5339 1.53391 -1.5339 -1.53391 -2.0453 1.53391 -2.0452 -1.53391 -2.0452 1.53391L12 9.44349 9.95478 10.9774l-2.0453 -1.53391 -2.0452 1.53391 -2.0452 -1.53391 -1.5339 1.53391L0.751282 9.44349v-2.5565H23.2487Z" stroke-width="1"></path>
  <path stroke="#092f63" stroke-linecap="round" stroke-linejoin="round" d="M19.1583 19.1583H17.113v-5.1131h2.0453" stroke-width="1"></path>
  <path stroke="#092f63" stroke-linecap="round" stroke-linejoin="round" d="M17.113 17.113h2.0453" stroke-width="1"></path>
  <path stroke="#092f63" stroke-linecap="round" stroke-linejoin="round" d="M13.0226 14.0452v5.1131h2.0452" stroke-width="1"></path>
  <path stroke="#092f63" stroke-linecap="round" stroke-linejoin="round" d="M6.88697 14.0452h-2.0453v2.0452l2.0453 1.0227v2.0452h-2.0453" stroke-width="1"></path>
  <path stroke="#092f63" stroke-linecap="round" stroke-linejoin="round" d="M21.2035 13.0226v9.2035H2.79651v-9.2035" stroke-width="1"></path>
  <path stroke="#092f63" stroke-linecap="round" stroke-linejoin="round" d="M0.751282 22.2261H23.2487" stroke-width="1"></path>
  <path stroke="#092f63" stroke-linecap="round" stroke-linejoin="round" d="M8.93219 19.1583v-3.5792l1.0226 -1.5339 1.02261 1.5339v3.5792" stroke-width="1"></path>
  <path stroke="#092f63" stroke-linecap="round" stroke-linejoin="round" d="M8.93219 17.113h2.04521" stroke-width="1"></path>
  <path stroke="#092f63" stroke-linecap="round" stroke-linejoin="round" d="M23.2487 6.887H0.751282L3.81908 1.7739H20.1809l3.0678 5.1131Z" stroke-width="1"></path>
  <path stroke="#092f63" stroke-linecap="round" stroke-linejoin="round" d="m3.81909 6.887 3.0679 -5.1131" stroke-width="1"></path>
  <path stroke="#092f63" stroke-linecap="round" stroke-linejoin="round" d="m7.90961 6.887 2.0452 -5.1131" stroke-width="1"></path>
  <path stroke="#092f63" stroke-linecap="round" stroke-linejoin="round" d="M12 6.887V1.7739" stroke-width="1"></path>
  <path stroke="#092f63" stroke-linecap="round" stroke-linejoin="round" d="M12 9.44349 9.95478 10.9774l-2.0452 -1.53391 -2.0453 1.53391 -2.0452 -1.53391 -1.5339 1.53391L0.751282 9.44349v-2.5565" stroke-width="1"></path>
  <path stroke="#092f63" stroke-linecap="round" stroke-linejoin="round" d="M3.81909 9.44349v-2.5565" stroke-width="1"></path>
  <path stroke="#092f63" stroke-linecap="round" stroke-linejoin="round" d="M12 9.44349v-2.5565" stroke-width="1"></path>
  <path stroke="#092f63" stroke-linecap="round" stroke-linejoin="round" d="M7.90961 9.44349v-2.5565" stroke-width="1"></path>
  <path stroke="#092f63" stroke-linecap="round" stroke-linejoin="round" d="M20.1809 6.887 17.113 1.7739" stroke-width="1"></path>
  <path stroke="#092f63" stroke-linecap="round" stroke-linejoin="round" d="m16.0904 6.887 -2.0452 -5.1131" stroke-width="1"></path>
  <path stroke="#092f63" stroke-linecap="round" stroke-linejoin="round" d="m12 9.44349 2.0452 1.53391 2.0452 -1.53391 2.0453 1.53391 2.0452 -1.53391 1.5339 1.53391 1.5339 -1.53391v-2.5565" stroke-width="1"></path>
  <path stroke="#092f63" stroke-linecap="round" stroke-linejoin="round" d="M20.1809 9.44349v-2.5565" stroke-width="1"></path>
  <path stroke="#092f63" stroke-linecap="round" stroke-linejoin="round" d="M16.0904 9.42919v-2.5422" stroke-width="1"></path>
</svg>