<svg xmlns="http://www.w3.org/2000/svg" fill="none" viewBox="0 0 24 24" id="Add-Hexagon-2--Streamline-Cyber">
  <desc>
    Add Hexagon 2 Streamline Icon: https://streamlinehq.com
  </desc>
  <path fill="#ffffff" d="M22.2261 17.6244 12 23.2487 1.77393 17.6244V6.3757L12 0.751301 22.2261 6.3757v11.2487Z" stroke-width="1"></path>
  <path fill="#bbd8ff" d="M20.1809 16.0904 12 20.6922l-8.18087 -4.6018 -2.0452 1.5339L12 23.2487l10.2261 -5.6244 -2.0452 -1.5339Z" stroke-width="1"></path>
  <path fill="#bbd8ff" d="M9.95483 14.0452v4.0905h4.09037v-4.0905h4.0904V9.9548h-4.0904l-4.09037 4.0904Z" stroke-width="1"></path>
  <path stroke="#092f63" stroke-linecap="round" stroke-linejoin="round" stroke-miterlimit="10" d="M22.2261 17.6244 12 23.2487 1.77393 17.6244V6.3757L12 0.751301 22.2261 6.3757v11.2487Z" stroke-width="1"></path>
  <path stroke="#092f63" stroke-linecap="round" stroke-linejoin="round" stroke-miterlimit="10" d="M18.1356 9.9548h-4.0904V5.8644H9.95478v4.0904h-4.0904v4.0904h4.0904v4.0904h4.09042v-4.0904h4.0904V9.9548Z" stroke-width="1"></path>
</svg>