<svg xmlns="http://www.w3.org/2000/svg" fill="none" viewBox="0 0 24 24" id="Alarm--Streamline-Cyber">
  <desc>
    Alarm Streamline Icon: https://streamlinehq.com
  </desc>
  <path fill="#ffffff" d="M3.81909 8.4209 12 3.3078l8.1809 5.1131v8.1808L12 21.7148l-8.18091 -5.1131V8.4209Z" stroke-width="1"></path>
  <path fill="#ffffff" d="M6.88704 1.2626 2.79654 0.751301 0.751343 3.3078v3.0679L8.42094 2.7965l-1.5339 -1.5339Z" stroke-width="1"></path>
  <path fill="#ffffff" d="m17.113 1.2626 4.0905 -0.511299L23.2487 3.3078v3.0679l-7.6696 -3.5792 1.5339 -1.5339Z" stroke-width="1"></path>
  <path fill="#bbd8ff" d="M20.1809 8.4209v8.1808L12 21.7148l-8.18091 -5.1131L20.1809 8.4209Z" stroke-width="1"></path>
  <path stroke="#092f63" stroke-linecap="round" stroke-linejoin="round" stroke-miterlimit="10" d="M12 0.751301V3.3078" stroke-width="1"></path>
  <path stroke="#092f63" stroke-linecap="round" stroke-linejoin="round" stroke-miterlimit="10" d="M9.95483 0.751301h4.09037" stroke-width="1"></path>
  <path stroke="#092f63" stroke-linecap="round" stroke-linejoin="round" stroke-miterlimit="10" d="M12 7.9096v4.6017l2.5565 1.5339" stroke-width="1"></path>
  <path stroke="#092f63" stroke-linecap="round" stroke-linejoin="round" stroke-miterlimit="10" d="M3.81909 8.4209 12 3.3078l8.1809 5.1131v8.1808L12 21.7148l-8.18091 -5.1131V8.4209Z" stroke-width="1"></path>
  <path stroke="#092f63" stroke-linecap="round" stroke-linejoin="round" stroke-miterlimit="10" d="M6.88704 1.2626 2.79654 0.751301 0.751343 3.3078v3.0679L8.42094 2.7965l-1.5339 -1.5339Z" stroke-width="1"></path>
  <path stroke="#092f63" stroke-linecap="round" stroke-linejoin="round" stroke-miterlimit="10" d="m17.113 1.2626 4.0905 -0.511299L23.2487 3.3078v3.0679l-7.6696 -3.5792 1.5339 -1.5339Z" stroke-width="1"></path>
  <path stroke="#092f63" stroke-linecap="round" stroke-linejoin="round" stroke-miterlimit="10" d="m8.21644 19.3628 -3.886 3.8859" stroke-width="1"></path>
  <path stroke="#092f63" stroke-linecap="round" stroke-linejoin="round" stroke-miterlimit="10" d="m15.7837 19.3628 3.8859 3.8859" stroke-width="1"></path>
</svg>