<svg xmlns="http://www.w3.org/2000/svg" fill="none" viewBox="0 0 24 24" id="Bin-2--Streamline-Cyber">
  <desc>
    Bin 2 Streamline Icon: https://streamlinehq.com
  </desc>
  <path fill="#ffffff" d="m2.79651 2.7965 2.0452 18.407H19.1583l2.0452 -18.407H2.79651Z" stroke-width="1"></path>
  <path stroke="#092f63" stroke-linecap="round" stroke-linejoin="round" stroke-miterlimit="10" d="m20.4877 9.7503 0.7158 -6.9538H19.465" stroke-width="1"></path>
  <path stroke="#092f63" stroke-linecap="round" stroke-linejoin="round" stroke-miterlimit="10" d="m3.71692 10.6706 0.7158 7.056" stroke-width="1"></path>
  <path stroke="#092f63" stroke-linecap="round" stroke-linejoin="round" stroke-miterlimit="10" d="M8.93225 21.2035H19.1584l1.3294 -11.4532" stroke-width="1"></path>
  <path stroke="#092f63" stroke-linecap="round" stroke-linejoin="round" stroke-miterlimit="10" d="M11.4887 2.7965H2.79651l0.9204 7.8741" stroke-width="1"></path>
  <path stroke="#092f63" stroke-linecap="round" stroke-linejoin="round" stroke-miterlimit="10" d="M11.4886 2.7965h7.9763" stroke-width="1"></path>
  <path stroke="#092f63" stroke-linecap="round" stroke-linejoin="round" stroke-miterlimit="10" d="m4.43274 17.7266 0.4091 3.4769h4.0904" stroke-width="1"></path>
  <path stroke="#092f63" stroke-linecap="round" stroke-linejoin="round" stroke-miterlimit="10" d="M20.4878 9.7503 8.93225 21.2035" stroke-width="1"></path>
  <path stroke="#092f63" stroke-linecap="round" stroke-linejoin="round" stroke-miterlimit="10" d="M19.465 2.7965 4.43274 17.7266" stroke-width="1"></path>
  <path stroke="#092f63" stroke-linecap="round" stroke-linejoin="round" stroke-miterlimit="10" d="m3.71692 10.6706 7.77178 -7.8741" stroke-width="1"></path>
  <path stroke="#092f63" stroke-linecap="round" stroke-linejoin="round" stroke-miterlimit="10" d="M3.61462 9.7503 15.0678 21.2035" stroke-width="1"></path>
  <path stroke="#092f63" stroke-linecap="round" stroke-linejoin="round" stroke-miterlimit="10" d="M4.63721 2.7965 19.5673 17.7266" stroke-width="1"></path>
  <path stroke="#092f63" stroke-linecap="round" stroke-linejoin="round" stroke-miterlimit="10" d="m20.2832 10.6706 -7.7718 -7.8741" stroke-width="1"></path>
  <path stroke="#092f63" stroke-linecap="round" stroke-linejoin="round" stroke-miterlimit="10" d="M0.751343 2.7965H23.2487" stroke-width="1"></path>
</svg>