<svg xmlns="http://www.w3.org/2000/svg" fill="none" viewBox="0 0 24 24" id="Book-Open-3--Streamline-Cyber">
  <desc>
    Book Open 3 Streamline Icon: https://streamlinehq.com
  </desc>
  <path fill="#ffffff" d="m12 23.2487 -9.20349 -5.113V0.751297L12 5.8643 21.2035 0.751297V18.1357L12 23.2487Z" stroke-width="1"></path>
  <path fill="#bbd8ff" d="M2.79654 3.54 0.751343 2.7965v17.3844L12 23.2487l-9.20346 -5.113V3.54Z" stroke-width="1"></path>
  <path fill="#bbd8ff" d="M21.2035 3.54v14.5957L12 23.2487l11.2487 -3.0678V2.7965l-2.0452 0.7435Z" stroke-width="1"></path>
  <path stroke="#092f63" stroke-linecap="round" stroke-linejoin="round" d="M2.79654 3.54 0.751343 2.7965v17.3844L12 23.2487l-9.20346 -5.113V3.54Z" stroke-width="1"></path>
  <path stroke="#092f63" stroke-linecap="round" stroke-linejoin="round" d="M21.2035 3.54v14.5957L12 23.2487l11.2487 -3.0678V2.7965l-2.0452 0.7435Z" stroke-width="1"></path>
  <path stroke="#092f63" stroke-linecap="round" stroke-linejoin="round" d="m12 23.2487 -9.20349 -5.113V0.751297L12 5.8643 21.2035 0.751297V18.1357L12 23.2487Z" stroke-width="1"></path>
  <path stroke="#092f63" stroke-linecap="round" stroke-linejoin="round" d="M12 5.8644v17.3843" stroke-width="1"></path>
</svg>