<svg xmlns="http://www.w3.org/2000/svg" fill="none" viewBox="0 0 24 24" id="Book-Open--Streamline-Cyber">
  <desc>
    Book Open Streamline Icon: https://streamlinehq.com
  </desc>
  <path fill="#ffffff" d="M21.2035 18.1357h-6.1357L12 20.6922l-3.06779 -2.5565h-6.1357V0.751297h6.1357L12 3.3078 15.0678 0.751297h6.1357V18.1357Z" stroke-width="1"></path>
  <path fill="#bbd8ff" d="m12.0001 20.6922 -3.06785 -2.5565V0.751297L12.0001 3.3078v17.3844Z" stroke-width="1"></path>
  <path fill="#bbd8ff" d="m12 20.6922 3.0678 -2.5565V0.751297L12 3.3078v17.3844Z" stroke-width="1"></path>
  <path fill="#bbd8ff" d="M21.2035 2.7965v15.3392h-6.1357L12 20.6922l-3.06776 -2.5565h-6.1357V2.7965H0.751343v17.3844H8.42094L12 23.2487l3.5791 -3.0678h7.6696V2.7965h-2.0452Z" stroke-width="1"></path>
  <path stroke="#092f63" stroke-linecap="round" stroke-linejoin="round" d="M2.79654 2.7965H0.751343v17.3844H8.42094L12 23.2487l3.5791 -3.0678h7.6696V2.7965h-2.0452" stroke-width="1"></path>
  <path stroke="#092f63" stroke-linecap="round" stroke-linejoin="round" d="M12 3.3078v17.3844" stroke-width="1"></path>
  <path stroke="#092f63" stroke-linecap="round" stroke-linejoin="round" d="M21.2035 18.1357h-6.1357L12 20.6922l-3.06779 -2.5565h-6.1357V0.751297h6.1357L12 3.3078 15.0678 0.751297h6.1357V18.1357Z" stroke-width="1"></path>
</svg>