<svg xmlns="http://www.w3.org/2000/svg" fill="none" viewBox="0 0 24 24" id="Flag-Double--Streamline-Cyber">
  <desc>
    Flag Double Streamline Icon: https://streamlinehq.com
  </desc>
  <path fill="#ffffff" d="m3.56354 14.2784 7.44756 -4.3001 -2.81206 -4.8707L0.751343 9.4077l3.540297 1.2026 -0.7281 3.6681Z" stroke-width="1"></path>
  <path fill="#ffffff" d="m20.4365 14.2784 -7.4476 -4.3001 2.8121 -4.8707 7.4477 4.3001 -3.5403 1.2026 0.7281 3.6681Z" stroke-width="1"></path>
  <path fill="#bbd8ff" d="m11.0111 9.97829 -1.46542 -2.5392 -5.2746 3.16501 0.0205 0.0062 -0.7281 3.6681 7.44762 -4.30011Z" stroke-width="1"></path>
  <path fill="#bbd8ff" d="m12.9889 9.97829 1.4654 -2.5392 5.2746 3.16501 -0.0205 0.0062 0.7281 3.6681 -7.4476 -4.30011Z" stroke-width="1"></path>
  <path stroke="#092f63" stroke-linecap="round" stroke-linejoin="round" d="m3.56354 14.2784 7.44756 -4.3001 -2.81206 -4.8707L0.751343 9.4077l3.540297 1.2026 -0.7281 3.6681Z" stroke-width="1"></path>
  <path stroke="#092f63" stroke-linecap="round" stroke-linejoin="round" d="M7.45544 3.81909 16.9023 20.1809" stroke-width="1"></path>
  <path stroke="#092f63" stroke-linecap="round" stroke-linejoin="round" d="m20.4365 14.2784 -7.4476 -4.3001 2.8121 -4.8707 7.4477 4.3001 -3.5403 1.2026 0.7281 3.6681Z" stroke-width="1"></path>
  <path stroke="#092f63" stroke-linecap="round" stroke-linejoin="round" d="M16.5445 3.81909 7.09863 20.1809" stroke-width="1"></path>
</svg>