<svg xmlns="http://www.w3.org/2000/svg" fill="none" viewBox="0 0 24 24" id="Headphone--Streamline-Cyber">
  <desc>
    Headphone Streamline Icon: https://streamlinehq.com
  </desc>
  <path fill="#ffffff" d="M3.66998 8.57v1.47h-1.96l-0.98 2.45 0.98 2.45h1.96v1.47l1.96 0.98 1.96 -0.98V8.57l-1.96 -0.98 -1.96 0.98Z" stroke-width="1"></path>
  <path fill="#ffffff" d="M22.29 10.04h-1.96V8.57l-1.96 -0.98 -1.96 0.98v7.84l1.96 0.98 1.96 -0.98v-1.47h1.96l0.98 -2.45 -0.98 -2.45Z" stroke-width="1"></path>
  <path fill="#bbd8ff" d="M7.59004 12.49v3.92l-1.96 0.98 -1.96 -0.98v-3.92h3.92Z" stroke-width="1"></path>
  <path fill="#bbd8ff" d="m0.72998 12.49 0.98 2.45h1.96v-2.45h-2.94Z" stroke-width="1"></path>
  <path fill="#bbd8ff" d="M16.41 12.49v3.92l1.96 0.98 1.96 -0.98v-3.92h-3.92Z" stroke-width="1"></path>
  <path fill="#bbd8ff" d="m23.27 12.49 -0.98 2.45h-1.96v-2.45h2.94Z" stroke-width="1"></path>
  <path fill="#bbd8ff" d="M14.45 20.82h-3.92v1.96h3.92v-1.96Z" stroke-width="1"></path>
  <path stroke="#092f63" stroke-linecap="round" stroke-linejoin="round" d="m7.59004 16.41 -1.96 0.98 -1.96 -0.98V8.57l1.96 -0.98 1.96 0.98v7.84Z" stroke-width="1"></path>
  <path stroke="#092f63" stroke-linecap="round" stroke-linejoin="round" d="m20.33 16.41 -1.96 0.98 -1.96 -0.98V8.57l1.96 -0.98 1.96 0.98v7.84Z" stroke-width="1"></path>
  <path stroke="#092f63" stroke-linecap="round" stroke-linejoin="round" d="M3.66998 14.94h-1.96l-0.98 -2.45 0.98 -2.45h1.96v4.9Z" stroke-width="1"></path>
  <path stroke="#092f63" stroke-linecap="round" stroke-linejoin="round" d="M20.33 14.94h1.96l0.98 -2.45 -0.98 -2.45h-1.96v4.9Z" stroke-width="1"></path>
  <path stroke="#092f63" stroke-linecap="round" stroke-linejoin="round" d="M18.37 7.59V4.16L12 1.22 5.63 4.16v3.43" stroke-width="1"></path>
  <path stroke="#092f63" stroke-linecap="round" stroke-linejoin="round" d="M18.37 17.39v1.96l-1.96 2.45h-1.96" stroke-width="1"></path>
  <path stroke="#092f63" stroke-linecap="round" stroke-linejoin="round" d="M14.45 20.82h-3.92v1.96h3.92v-1.96Z" stroke-width="1"></path>
</svg>