<svg xmlns="http://www.w3.org/2000/svg" fill="none" viewBox="0 0 24 24" id="Hourglass-2--Streamline-Cyber">
  <desc>
    Hourglass 2 Streamline Icon: https://streamlinehq.com
  </desc>
  <path fill="#ffffff" d="M18.86 2.69001 16.41 0.730011H8.08001l-2.94 1.959999v4.9L12 12.49l6.86 -4.89999v-4.9Z" stroke-width="1"></path>
  <path fill="#ffffff" d="m5.14001 21.31 2.94 1.96H16.41l2.45 -1.96v-3.92L12 12.49l-6.85999 4.9v3.92Z" stroke-width="1"></path>
  <path fill="#bbd8ff" d="M16.41 4.65H12v7.84l6.86 -4.9v-4.9l-0.686 0.49 -1.764 1.47Z" stroke-width="1"></path>
  <path fill="#bbd8ff" d="m12 12.49 6.86 4.9v3.92l-2.45 1.96H12V12.49Z" stroke-width="1"></path>
  <path stroke="#092f63" stroke-linecap="round" stroke-linejoin="round" stroke-miterlimit="10" d="m8.08001 4.65001 -2.94 -1.96 2.94 -1.959999H16.41l2.45 1.959999 -2.45 1.96H8.08001Z" stroke-width="1"></path>
  <path stroke="#092f63" stroke-linecap="round" stroke-linejoin="round" stroke-miterlimit="10" d="M18.86 2.69v4.9L12 12.49l-6.85999 -4.9v-4.9" stroke-width="1"></path>
  <path stroke="#092f63" stroke-linecap="round" stroke-linejoin="round" stroke-miterlimit="10" d="M18.86 21.31v-3.92L12 12.49l-6.85999 4.9v3.92l2.94 1.96H16.41l2.45 -1.96Z" stroke-width="1"></path>
  <path stroke="#092f63" stroke-linecap="round" stroke-linejoin="round" stroke-miterlimit="10" d="M14.45 7.59 12 9.55 9.55005 7.59" stroke-width="1"></path>
  <path stroke="#092f63" stroke-linecap="round" stroke-linejoin="round" stroke-miterlimit="10" d="M16.41 20.82 12 19.35l-4.41003 1.47" stroke-width="1"></path>
  <path stroke="#092f63" stroke-linecap="round" stroke-linejoin="round" stroke-miterlimit="10" d="M12 15.43v0.98" stroke-width="1"></path>
  <path stroke="#092f63" stroke-linecap="round" stroke-linejoin="round" stroke-miterlimit="10" d="M12 18.37v0.98" stroke-width="1"></path>
</svg>