<svg xmlns="http://www.w3.org/2000/svg" fill="none" viewBox="0 0 24 24" id="Pen-2--Streamline-Cyber">
  <desc>
    Pen 2 Streamline Icon: https://streamlinehq.com
  </desc>
  <path fill="#ffffff" d="M23 1 18.5 0.5 16 3 4.8 15.8 2 17 0.5 23.5 7 22l1.3 -2.7L21 8l2.5 -2.5L23 1Z" stroke-width="1"></path>
  <path fill="#bbd8ff" d="m23 1 -4.5 4.5 -18 18L7 22l1.3 -2.7L21 8l2.5 -2.5L23 1Z" stroke-width="1"></path>
  <path stroke="#092f63" stroke-linecap="round" stroke-linejoin="round" stroke-miterlimit="10" d="M16 3 4.8 15.8 2 17 0.5 23.5 7 22l1.3 -2.7L21 8l-5 -5Z" stroke-width="1"></path>
  <path stroke="#092f63" stroke-linecap="round" stroke-linejoin="round" stroke-miterlimit="10" d="m4.69995 15.8 3.5 3.5" stroke-width="1"></path>
  <path stroke="#092f63" stroke-linecap="round" stroke-linejoin="round" stroke-miterlimit="10" d="M5 19 0.5 23.5" stroke-width="1"></path>
  <path stroke="#092f63" stroke-linecap="round" stroke-linejoin="round" stroke-miterlimit="10" d="M16 3 18.5 0.5 23 1l0.5 4.5L21 8" stroke-width="1"></path>
  <path stroke="#092f63" stroke-linecap="round" stroke-linejoin="round" stroke-miterlimit="10" d="M16 3 13.5 0.5l-7 10h-2" stroke-width="1"></path>
  <path stroke="#bbd8ff" stroke-linecap="round" stroke-linejoin="round" stroke-miterlimit="10" d="M8.5 23.5h15" stroke-width="1"></path>
</svg>