<svg xmlns="http://www.w3.org/2000/svg" fill="none" viewBox="0 0 24 24" id="Scissor-2--Streamline-Cyber">
  <desc>
    Scissor 2 Streamline Icon: https://streamlinehq.com
  </desc>
  <path fill="#ffffff" d="M9.55005 11.706 10.628 7.59002l8.722 -4.312 2.94 0.88199L9.55005 11.706Z" stroke-width="1"></path>
  <path stroke="#bbd8ff" stroke-linecap="round" stroke-linejoin="round" stroke-miterlimit="10" d="M16.41 12h0.98" stroke-width="1"></path>
  <path stroke="#bbd8ff" stroke-linecap="round" stroke-linejoin="round" stroke-miterlimit="10" d="M19.35 12h0.98" stroke-width="1"></path>
  <path stroke="#bbd8ff" stroke-linecap="round" stroke-linejoin="round" stroke-miterlimit="10" d="M22.29 12h0.98" stroke-width="1"></path>
  <path fill="#bbd8ff" d="M9.55005 12.294 10.628 16.41l8.722 4.312 2.94 -0.882 -12.73995 -7.546Z" stroke-width="1"></path>
  <path stroke="#092f63" stroke-linecap="round" stroke-linejoin="round" stroke-miterlimit="10" d="M9.55005 11.706 10.628 7.59002l8.722 -4.312 2.94 0.88199L9.55005 11.706Z" stroke-width="1"></path>
  <path stroke="#092f63" stroke-linecap="round" stroke-linejoin="round" stroke-miterlimit="10" d="m0.72998 16.9 4.41 -2.548 2.94 1.568 -0.49 3.43 -3.92 2.45 -2.94 -1.96V16.9Z" stroke-width="1"></path>
  <path stroke="#092f63" stroke-linecap="round" stroke-linejoin="round" stroke-miterlimit="10" d="m9.55001 11.706 -4.41 2.646" stroke-width="1"></path>
  <path stroke="#092f63" stroke-linecap="round" stroke-linejoin="round" stroke-miterlimit="10" d="M9.55005 12.294 10.628 16.41l8.722 4.312 2.94 -0.882 -12.73995 -7.546Z" stroke-width="1"></path>
  <path stroke="#092f63" stroke-linecap="round" stroke-linejoin="round" stroke-miterlimit="10" d="m0.72998 7.10001 4.41 2.548 2.94 -1.568 -0.49 -3.43 -3.92 -2.45 -2.94 1.96v2.94Z" stroke-width="1"></path>
  <path stroke="#092f63" stroke-linecap="round" stroke-linejoin="round" stroke-miterlimit="10" d="m9.55001 12.294 -4.41 -2.64599" stroke-width="1"></path>
</svg>