<svg xmlns="http://www.w3.org/2000/svg" fill="none" viewBox="0 0 24 24" id="Vector-Line-Curve--Streamline-Cyber">
  <desc>
    Vector Line Curve Streamline Icon: https://streamlinehq.com
  </desc>
  <path fill="#ffffff" d="M15.0681 2.54088 18.1359 0.751282l3.0678 1.789598v3.5791l-3.0678 1.7896 -3.0678 -1.7896v-3.5791Z" stroke-width="1"></path>
  <path fill="#ffffff" d="m0.751587 17.88 3.067803 -1.7896 3.0678 1.7896v3.5791l-3.0678 1.7896 -3.067803 -1.7896V17.88Z" stroke-width="1"></path>
  <path fill="#bbd8ff" d="m21.2037 2.54089 -6.1356 3.5791 3.0678 1.7896 3.0678 -1.7896v-3.5791Z" stroke-width="1"></path>
  <path fill="#bbd8ff" d="M6.88719 17.88 0.751587 21.4591l3.067803 1.7896 3.0678 -1.7896V17.88Z" stroke-width="1"></path>
  <path fill="#bbd8ff" d="m10.9774 19.1586 -2.04478 2.0449 2.04478 2.0449 2.045 -2.0449 -2.045 -2.0449Z" stroke-width="1"></path>
  <path fill="#bbd8ff" d="M10.9774 9.95508 8.93262 12l2.04478 2.0449L13.0224 12l-2.045 -2.04492Z" stroke-width="1"></path>
  <path fill="#bbd8ff" d="M21.2035 9.95508 19.1586 12l2.0449 2.0449L23.2484 12l-2.0449 -2.04492Z" stroke-width="1"></path>
  <path stroke="#092f63" stroke-linecap="round" stroke-linejoin="round" stroke-miterlimit="10" d="M13.0229 12h6.1357" stroke-width="1"></path>
  <path stroke="#092f63" stroke-linecap="round" stroke-linejoin="round" stroke-miterlimit="10" d="M10.9775 19.1583v-5.1131" stroke-width="1"></path>
  <path stroke="#092f63" stroke-linecap="round" stroke-linejoin="round" stroke-miterlimit="10" d="m10.9774 19.1586 -2.04478 2.0449 2.04478 2.0449 2.045 -2.0449 -2.045 -2.0449Z" stroke-width="1"></path>
  <path stroke="#092f63" stroke-linecap="round" stroke-linejoin="round" stroke-miterlimit="10" d="M10.9774 9.95508 8.93262 12l2.04478 2.0449L13.0224 12l-2.045 -2.04492Z" stroke-width="1"></path>
  <path stroke="#092f63" stroke-linecap="round" stroke-linejoin="round" stroke-miterlimit="10" d="M21.2035 9.95508 19.1586 12l2.0449 2.0449L23.2484 12l-2.0449 -2.04492Z" stroke-width="1"></path>
  <path stroke="#092f63" stroke-linecap="round" stroke-linejoin="round" stroke-miterlimit="10" d="m8.75655 14.5565 -2.7325 2.8204" stroke-width="1"></path>
  <path stroke="#092f63" stroke-linecap="round" stroke-linejoin="round" stroke-miterlimit="10" d="M15.0681 2.54088 18.1359 0.751282l3.0678 1.789598v3.5791l-3.0678 1.7896 -3.0678 -1.7896v-3.5791Z" stroke-width="1"></path>
  <path stroke="#092f63" stroke-linecap="round" stroke-linejoin="round" stroke-miterlimit="10" d="m0.751587 17.88 3.067803 -1.7896 3.0678 1.7896v3.5791l-3.0678 1.7896 -3.067803 -1.7896V17.88Z" stroke-width="1"></path>
  <path stroke="#092f63" stroke-linecap="round" stroke-linejoin="round" stroke-miterlimit="10" d="m16.2543 6.81232 -2.7314 2.8204" stroke-width="1"></path>
</svg>