<svg xmlns="http://www.w3.org/2000/svg" fill="none" viewBox="0 0 24 24" id="Email-Logo--Streamline-Logos-Block">
  <desc>
    Email Logo Streamline Icon: https://streamlinehq.com
  </desc>
  <path fill="#000000" fill-rule="evenodd" d="M5 1a4 4 0 0 0 -4 4v14a4 4 0 0 0 4 4h14a4 4 0 0 0 4 -4V5a4 4 0 0 0 -4 -4H5Zm6.065 9.565 -5.643 -4.02h-0.74a0.682 0.682 0 0 0 -0.64 0.445l7.458 5.445 7.458 -5.445a0.682 0.682 0 0 0 -0.64 -0.445h-0.74l-5.643 4.02 -0.435 0.31 -0.435 -0.31Zm3.928 -4.02H8.007L11.5 9.033l3.493 -2.488ZM4 8.817v7.956c0 0.376 0.305 0.681 0.682 0.681h0.954v-7.443L4 8.817Zm15 0 -1.636 1.194v7.444h0.954a0.682 0.682 0 0 0 0.682 -0.682V8.817Zm-3.136 2.29 -3.922 2.863 -0.442 0.322 -0.442 -0.322 -3.922 -2.863v6.348h8.728v-6.348Z" clip-rule="evenodd" stroke-width="1"></path>
</svg>