<svg xmlns="http://www.w3.org/2000/svg" fill="none" viewBox="0 0 14 14" id="Transfer-Motorcycle--Streamline-Core">
  <desc>
    Transfer Motorcycle Streamline Icon: https://streamlinehq.com
  </desc>
  <g id="transfer-motorcycle--motorcycle-shipping-delivery-courier-transfer">
    <path id="Union" fill="#000000" fill-rule="evenodd" d="M4 6.5H1c-0.552285 0 -1 -0.44772 -1 -1v-3c0 -0.55228 0.447715 -1 1 -1h3c0.55228 0 1 0.44772 1 1v3c0 0.55228 -0.44772 1 -1 1Zm4 -4.25c-0.41421 0 -0.75 0.33579 -0.75 0.75s0.33579 0.75 0.75 0.75h0.75v6.961c0.45097 -0.4412 1.06819 -0.71312 1.7489 -0.71312C11.8802 9.99788 13 11.1176 13 12.4989c0 0.0571 -0.0019 0.1137 -0.0057 0.1698C13.6206 12.4491 14 11.8057 14 11c0 -1.92673 -1.5805 -3.62145 -3.75 -3.74303v-0.95764c0.2206 0.12762 0.4768 0.20067 0.75 0.20067h1c0.2761 0 0.5 -0.22386 0.5 -0.5V4c0 -0.27614 -0.2239 -0.5 -0.5 -0.5h-1c-0.2732 0 -0.5294 0.07305 -0.75 0.20067V3c0 -0.41421 -0.33579 -0.75 -0.75 -0.75H8Zm0.01031 10.5c-0.00823 -0.0826 -0.01244 -0.1663 -0.01244 -0.2511 0 -0.4549 0.12144 -0.8814 0.33368 -1.2489H8.25c-0.41421 0 -0.75 -0.3358 -0.75 -0.75V10c0 -1.51878 -1.23122 -2.75 -2.75 -2.75h-2C1.23122 7.25 0 8.48122 0 10v2c0 0.4142 0.335786 0.75 0.75 0.75h0.26031c-0.00823 -0.0826 -0.012446 -0.1663 -0.012446 -0.2511 0 -1.3813 1.119766 -2.50102 2.501056 -2.50102 1.3813 0 2.50106 1.11972 2.50106 2.50102 0 0.0848 -0.00421 0.1685 -0.01244 0.2511h2.02277Zm-6.01243 -0.2511c0 0.8291 0.67205 1.5011 1.50106 1.5011S5 13.328 5 12.4989c0 -0.829 -0.67205 -1.501 -1.50106 -1.501s-1.50106 0.672 -1.50106 1.501Zm7.00001 0c0 0.829 0.67204 1.5011 1.50101 1.5011C11.328 14 12 13.3279 12 12.4989c0 -0.829 -0.672 -1.501 -1.5011 -1.501 -0.82897 0 -1.50101 0.672 -1.50101 1.501Z" clip-rule="evenodd" stroke-width="1"></path>
  </g>
</svg>