<svg xmlns="http://www.w3.org/2000/svg" viewBox="0 0 14 14">
  <g>
    <path d="M13.14,5.65A.27.27,0,0,1,13,5.42V4.5a4.5,4.5,0,0,0-9,0v.92a.27.27,0,0,1-.14.23A1.5,1.5,0,0,0,3,6.73a.25.25,0,0,0,0,.19.23.23,0,0,0,.17.1A4.29,4.29,0,0,1,6.29,8.89a.23.23,0,0,0,.2.11H10a2,2,0,0,1,2,2v2.75a.25.25,0,0,0,.25.25h.25A1.5,1.5,0,0,0,14,12.5V7A1.49,1.49,0,0,0,13.14,5.65ZM11,5.25a.25.25,0,0,1-.25.25H6.25A.25.25,0,0,1,6,5.25V4.5a2.5,2.5,0,0,1,5,0Z" style="fill: #000001"/>
    <path d="M10.5,11.25a.76.76,0,0,0-.75-.75H5.58a.26.26,0,0,1-.24-.17,2.75,2.75,0,1,0,0,1.84A.26.26,0,0,1,5.58,12h.67a.25.25,0,0,1,.25.25v1a.75.75,0,0,0,1.5,0v-1A.25.25,0,0,1,8.25,12h.5a.25.25,0,0,1,.25.25v1a.75.75,0,0,0,1.5,0ZM2.75,12.5A1.25,1.25,0,1,1,4,11.25,1.25,1.25,0,0,1,2.75,12.5Z" style="fill: #000001"/>
  </g>
</svg>
