<svg xmlns="http://www.w3.org/2000/svg" fill="none" viewBox="0 0 48 48" id="Ai-Generate-Variation-Spark--Streamline-Plump">
  <desc>
    Ai Generate Variation Spark Streamline Icon: https://streamlinehq.com
  </desc>
  <g id="ai-generate-variation-spark--module-application-artificial-intelligence-ai">
    <path id="Rectangle 126" fill="#fddc5c" d="M2.64395 41.876c0.10765 1.723 1.23045 3.0579 2.94157 3.2869 1.3659 0.1828 3.35966 0.3371 6.19848 0.3371 2.8388 0 4.8326 -0.1543 6.1985 -0.3371 1.7111 -0.229 2.8339 -1.5639 2.9415 -3.2869 0.0797 -1.2759 0.1442 -3.0995 0.1442 -5.6603 0 -2.5609 -0.0645 -4.3844 -0.1442 -5.6604 -0.1076 -1.723 -1.2304 -3.0578 -2.9415 -3.2868 -1.3659 -0.1829 -3.3597 -0.3372 -6.1985 -0.3372 -2.83882 0 -4.83258 0.1543 -6.19848 0.3372 -1.71112 0.229 -2.83392 1.5638 -2.94157 3.2868 -0.07971 1.276 -0.14419 3.0995 -0.14419 5.6604 0 2.5608 0.06448 4.3844 0.14419 5.6603Z" stroke-width="1"></path>
    <path id="Rectangle 127" fill="#fddc5c" d="M2.64395 6.12303C2.7516 4.40002 3.8744 3.06515 5.58552 2.83614c1.3659 -0.1828 3.35966 -0.33712 6.19848 -0.33712 2.8388 0 4.8326 0.15432 6.1985 0.33712 1.7111 0.22901 2.8339 1.56388 2.9415 3.28689 0.0797 1.27593 0.1442 3.0995 0.1442 5.66037 0 2.5608 -0.0645 4.3844 -0.1442 5.6603 -0.1076 1.723 -1.2304 3.0579 -2.9415 3.2869 -1.3659 0.1828 -3.3597 0.3371 -6.1985 0.3371 -2.83882 0 -4.83258 -0.1543 -6.19848 -0.3371 -1.71112 -0.229 -2.83392 -1.5639 -2.94157 -3.2869 -0.07971 -1.2759 -0.14419 -3.0995 -0.14419 -5.6603 0 -2.56087 0.06448 -4.38444 0.14419 -5.66037Z" stroke-width="1"></path>
    <path id="Rectangle 128" fill="#fddc5c" d="M41.8762 45.3558c1.7231 -0.1076 3.0579 -1.2305 3.2869 -2.9416 0.1828 -1.3659 0.3371 -3.3597 0.3371 -6.1985 0 -2.8389 -0.1543 -4.8327 -0.3371 -6.1986 -0.229 -1.7111 -1.5638 -2.8339 -3.2869 -2.9416 -1.2759 -0.0797 -3.0994 -0.1442 -5.6602 -0.1442 -2.5608 0 -4.3843 0.0645 -5.6602 0.1442 -1.723 0.1077 -3.0579 1.2305 -3.2869 2.9416 -0.1828 1.3659 -0.3371 3.3597 -0.3371 6.1986 0 2.8388 0.1543 4.8326 0.3371 6.1985 0.229 1.7111 1.5639 2.834 3.2869 2.9416 1.2759 0.0797 3.0994 0.1442 5.6602 0.1442 2.5608 0 4.3843 -0.0645 5.6602 -0.1442Z" stroke-width="1"></path>
    <path id="Union" fill="#0c098c" fill-rule="evenodd" d="M5.85082 4.81847c1.26133 -0.16881 3.16456 -0.31945 5.93318 -0.31945 2.7686 0 4.6718 0.15064 5.9332 0.31945 0.6681 0.08941 1.1563 0.55846 1.2107 1.42927 0.0766 1.22604 0.1403 3.00706 0.1403 5.53566 0 2.5285 -0.0637 4.3095 -0.1403 5.5356 -0.0544 0.8708 -0.5426 1.3398 -1.2107 1.4292 -1.2614 0.1689 -3.1646 0.3195 -5.9332 0.3195 -2.76862 0 -4.67185 -0.1506 -5.93318 -0.3195 -0.66809 -0.0894 -1.15636 -0.5584 -1.21076 -1.4292 -0.0766 -1.2261 -0.1403 -3.0071 -0.1403 -5.5356 0 -2.5286 0.0637 -4.30962 0.1403 -5.53566 0.0544 -0.87081 0.54267 -1.33986 1.21076 -1.42927ZM11.784 0.499023c-2.90902 0 -4.9933 0.157994 -6.46378 0.354795C2.56608 1.22242 0.808729 3.4231 0.647843 5.99833 0.565014 7.32414 0.499756 9.19026 0.499756 11.7834c0 2.5931 0.065258 4.4592 0.148087 5.785 0.160886 2.5752 1.918227 4.7759 4.672377 5.1445 1.47048 0.1968 3.55476 0.3548 6.46378 0.3548 2.909 0 4.9933 -0.158 6.4638 -0.3548 2.7541 -0.3686 4.5115 -2.5693 4.6723 -5.1445 0.0829 -1.3258 0.1481 -3.1919 0.1481 -5.785 0 -2.59314 -0.0652 -4.45926 -0.1481 -5.78507 -0.1608 -2.57523 -1.9182 -4.77591 -4.6723 -5.144512C16.7773 0.657017 14.693 0.499023 11.784 0.499023ZM5.85082 43.1806c1.26133 0.1688 3.16456 0.3194 5.93318 0.3194 2.7686 0 4.6718 -0.1506 5.9332 -0.3194 0.6681 -0.0895 1.1563 -0.5585 1.2107 -1.4293 0.0766 -1.2261 0.1403 -3.0071 0.1403 -5.5356 0 -2.5286 -0.0637 -4.3096 -0.1403 -5.5357 -0.0544 -0.8708 -0.5426 -1.3398 -1.2107 -1.4292 -1.2614 -0.1688 -3.1646 -0.3195 -5.9332 -0.3195 -2.76862 0 -4.67185 0.1507 -5.93318 0.3195 -0.66809 0.0894 -1.15636 0.5584 -1.21076 1.4292 -0.0766 1.2261 -0.1403 3.0071 -0.1403 5.5357 0 2.5285 0.0637 4.3095 0.1403 5.5356 0.0544 0.8708 0.54267 1.3398 1.21076 1.4293ZM11.784 47.5c-2.90902 0 -4.9933 -0.158 -6.46378 -0.3548 -2.75414 -0.3686 -4.511491 -2.5693 -4.672377 -5.1445 -0.082829 -1.3258 -0.148087 -3.1919 -0.148087 -5.785s0.065258 -4.4592 0.148087 -5.7851c0.160886 -2.5752 1.918227 -4.7759 4.672377 -5.1445 1.47048 -0.1968 3.55476 -0.3548 6.46378 -0.3548 2.909 0 4.9933 0.158 6.4638 0.3548 2.7541 0.3686 4.5115 2.5693 4.6723 5.1445 0.0829 1.3259 0.1481 3.192 0.1481 5.7851 0 2.5931 -0.0652 4.4592 -0.1481 5.785 -0.1608 2.5752 -1.9182 4.7759 -4.6723 5.1445 -1.4705 0.1968 -3.5548 0.3548 -6.4638 0.3548Zm31.7162 -11.2843c0 2.7686 -0.1506 4.6719 -0.3194 5.9332 -0.0894 0.6681 -0.5585 1.1564 -1.4293 1.2108 -1.226 0.0766 -3.007 0.1403 -5.5355 0.1403 -2.5285 0 -4.3095 -0.0637 -5.5355 -0.1403 -0.8708 -0.0544 -1.3399 -0.5427 -1.4293 -1.2108 -0.1688 -1.2613 -0.3194 -3.1646 -0.3194 -5.9332 0 -2.7687 0.1506 -4.6719 0.3194 -5.9333 0.0894 -0.6681 0.5585 -1.1564 1.4293 -1.2108 1.226 -0.0766 3.007 -0.1403 5.5355 -0.1403 2.5285 0 4.3095 0.0637 5.5355 0.1403 0.8708 0.0544 1.3399 0.5427 1.4293 1.2108 0.1688 1.2614 0.3194 3.1646 0.3194 5.9333Zm3.6453 6.4638c0.1968 -1.4705 0.3547 -3.5548 0.3547 -6.4638 0 -2.9091 -0.1579 -4.9934 -0.3547 -6.4639 -0.3686 -2.7541 -2.5693 -4.5115 -5.1446 -4.6724 -1.3258 -0.0828 -3.1918 -0.1481 -5.7849 -0.1481 -2.593 0 -4.4591 0.0653 -5.7849 0.1481 -2.5753 0.1609 -4.7759 1.9183 -5.1445 4.6724 -0.1968 1.4705 -0.3548 3.5548 -0.3548 6.4639 0 2.909 0.158 4.9933 0.3548 6.4638 0.3686 2.7542 2.5692 4.5115 5.1445 4.6724 1.3258 0.0828 3.1919 0.1481 5.7849 0.1481 2.5931 0 4.4591 -0.0653 5.7849 -0.1481 2.5753 -0.1609 4.776 -1.9182 5.1446 -4.6724ZM33.5843 2.16596c1.1379 -2.0806518 4.1262 -2.0806555 5.2641 0l1.9074 3.48756c0.3671 0.67116 0.9189 1.22299 1.59 1.59006L45.8334 9.151c2.0806 1.1379 2.0806 4.1262 0 5.2641l-3.4875 1.9074c-0.6712 0.3671 -1.223 0.9189 -1.5901 1.5901l-1.9074 3.4876c-1.1379 2.0806 -4.1262 2.0806 -5.2641 0l-1.9074 -3.4876c-0.3671 -0.6712 -0.9189 -1.223 -1.5901 -1.5901l-3.4875 -1.9074c-2.0806 -1.1379 -2.0806 -4.1262 0 -5.2641l3.4875 -1.90742c0.6712 -0.36707 1.223 -0.9189 1.5901 -1.59006l1.9074 -3.48756Z" clip-rule="evenodd" stroke-width="1"></path>
  </g>
</svg>