<svg viewBox="0 0 48 48" xmlns="http://www.w3.org/2000/svg"><path d="M1.620 38.750 A22.38 1.64 0 1 0 46.380 38.750 A22.38 1.64 0 1 0 1.620 38.750 Z" fill="#45413c" opacity=".15"></path><path d="M3.08,32.13H44.92a0,0,0,0,1,0,0v3.55a2.18,2.18,0,0,1-2.18,2.18H5.26a2.18,2.18,0,0,1-2.18-2.18V32.13a0,0,0,0,1,0,0Z" fill="#e4ffd1" stroke="#45413c" stroke-linecap="round" stroke-linejoin="round"></path><path d="M3.08,29.27H44.92a0,0,0,0,1,0,0v3.55A2.18,2.18,0,0,1,42.74,35H5.26a2.18,2.18,0,0,1-2.18-2.18V29.27a0,0,0,0,1,0,0Z" fill="#e4ffd1" stroke="#45413c" stroke-linecap="round" stroke-linejoin="round"></path><path d="M18.41,32.13H29.59a0,0,0,0,1,0,0v6.21a.55.55,0,0,1-.55.55H19a.55.55,0,0,1-.55-.55V32.13A0,0,0,0,1,18.41,32.13Z" fill="#debb7e" stroke="#45413c" stroke-linecap="round" stroke-linejoin="round"></path><path d="M3.080 9.570 L44.920 9.570 L44.920 32.130 L3.080 32.130 Z" fill="#f0ffe5"></path><path d="M42.74,9.57H5.26a2.19,2.19,0,0,0-2.18,2.19v3.78a2.19,2.19,0,0,1,2.18-2.18H42.74a2.19,2.19,0,0,1,2.18,2.18V11.76A2.19,2.19,0,0,0,42.74,9.57Z" fill="#fff"></path><path d="M3.080 9.570 L44.920 9.570 L44.920 32.130 L3.080 32.130 Z" fill="none" stroke="#45413c" stroke-linecap="round" stroke-linejoin="round"></path><path d="M19,8.5H29a.55.55,0,0,1,.55.55V32.13a0,0,0,0,1,0,0H18.41a0,0,0,0,1,0,0V9A.55.55,0,0,1,19,8.5Z" fill="#f0d5a8"></path><path d="M29.05,8.5H19a.54.54,0,0,0-.54.55v3.37a.54.54,0,0,1,.54-.54h10.1a.54.54,0,0,1,.54.54V9.05A.54.54,0,0,0,29.05,8.5Z" fill="#f7e5c6"></path><path d="M19,8.5H29a.55.55,0,0,1,.55.55V32.13a0,0,0,0,1,0,0H18.41a0,0,0,0,1,0,0V9A.55.55,0,0,1,19,8.5Z" fill="none" stroke="#45413c" stroke-linecap="round" stroke-linejoin="round"></path><path d="M29.59,13.44H39.64a1.09,1.09,0,0,1,1.09,1.09V27.17a1.09,1.09,0,0,1-1.09,1.09H29.59a0,0,0,0,1,0,0V13.44A0,0,0,0,1,29.59,13.44Z" fill="#c8ffa1" stroke="#45413c" stroke-linecap="round" stroke-linejoin="round"></path><path d="M7.26,13.44H17.31a1.09,1.09,0,0,1,1.09,1.09V27.17a1.09,1.09,0,0,1-1.09,1.09H7.26a0,0,0,0,1,0,0V13.44A0,0,0,0,1,7.26,13.44Z" fill="#c8ffa1" stroke="#45413c" stroke-linecap="round" stroke-linejoin="round" transform="translate(25.67 41.7) rotate(180)"></path><path d="M12.45,23.31V21.65l-.72-.23a3.39,3.39,0,0,1-.74-.35,1.56,1.56,0,0,1-.5-.55,1.8,1.8,0,0,1-.19-.84,2.12,2.12,0,0,1,.29-1.1,2.24,2.24,0,0,1,.77-.79,2.86,2.86,0,0,1,1.09-.36h0v-.29a1.78,1.78,0,0,1,0-.26.26.26,0,0,1,.07-.15.27.27,0,0,1,.19-.06c.12,0,.2,0,.22.11a1,1,0,0,1,.05.36v.3a3.43,3.43,0,0,1,1.18.26.79.79,0,0,1,.56.72.81.81,0,0,1-.18.53.63.63,0,0,1-.48.21,1.73,1.73,0,0,1-.53-.12,2.9,2.9,0,0,0-.55-.15v1.33a7.65,7.65,0,0,1,1.14.41,1.85,1.85,0,0,1,1.12,1.82,2.19,2.19,0,0,1-.17.9,2.06,2.06,0,0,1-.49.7,2.44,2.44,0,0,1-.73.48,3.25,3.25,0,0,1-.87.21v.32c0,.1,0,.18,0,.24a.27.27,0,0,1-.08.16.25.25,0,0,1-.18.07c-.12,0-.2,0-.23-.12a1.08,1.08,0,0,1,0-.35v-.31a5.58,5.58,0,0,1-1-.12,2.12,2.12,0,0,1-.84-.34.75.75,0,0,1-.35-.64.71.71,0,0,1,.18-.5.6.6,0,0,1,.48-.21,2.48,2.48,0,0,1,.73.18A4,4,0,0,0,12.45,23.31Zm0-3.28V18.89a.8.8,0,0,0-.38.22.56.56,0,0,0-.15.39.38.38,0,0,0,.13.3A1.32,1.32,0,0,0,12.45,20ZM13,21.81v1.46a.82.82,0,0,0,.47-.29.79.79,0,0,0,.18-.51C13.64,22.18,13.42,22,13,21.81Z" fill="#45413c"></path><path d="M37.55,20.85a2.39,2.39,0,1,1-2.39-2.39A2.39,2.39,0,0,1,37.55,20.85Z" fill="#6dd627" stroke="#45413c" stroke-linecap="round" stroke-linejoin="round"></path></svg>