<svg viewBox="0 0 48 48" xmlns="http://www.w3.org/2000/svg"><path d="M9.090 45.140 A14.91 1.86 0 1 0 38.910 45.140 A14.91 1.86 0 1 0 9.090 45.140 Z" fill="#45413c" opacity=".15"></path><path d="M12.2,3.51h3.73a0,0,0,0,1,0,0v41a0,0,0,0,1,0,0H12.2A1.24,1.24,0,0,1,11,43.26V4.75A1.24,1.24,0,0,1,12.2,3.51Z" fill="#debb7e"></path><path d="M21.52 -2.08H26.49V14.069999999999999H21.52z" fill="#debb7e" transform="translate(29.99 -18.01) rotate(90)"></path><path d="M15.93 3.51H32.08V5.99H15.93z" fill="#f0d5a8"></path><path d="M21.52 -2.08H26.49V14.069999999999999H21.52z" fill="none" stroke="#45413c" stroke-linecap="round" stroke-linejoin="round" transform="translate(29.99 -18.01) rotate(90)"></path><path d="M21.52 17.79H26.49V33.94H21.52z" fill="#debb7e" stroke="#45413c" stroke-linecap="round" stroke-linejoin="round" transform="translate(49.87 1.87) rotate(90)"></path><path d="M21.52 33.94H26.49V50.089999999999996H21.52z" fill="#debb7e" stroke="#45413c" stroke-linecap="round" stroke-linejoin="round" transform="translate(66.02 18.02) rotate(90)"></path><path d="M32.07,3.51H35.8A1.24,1.24,0,0,1,37,4.75V43.26A1.24,1.24,0,0,1,35.8,44.5H32.07a0,0,0,0,1,0,0v-41A0,0,0,0,1,32.07,3.51Z" fill="#debb7e"></path><path d="M12.2,3.51A1.23,1.23,0,0,0,11,4.75V8.48A2.48,2.48,0,0,1,13.44,6h2.49V3.51Z" fill="#f0d5a8"></path><path d="M35.8,3.51H32.07V6h2.49A2.48,2.48,0,0,1,37,8.48V4.75A1.23,1.23,0,0,0,35.8,3.51Z" fill="#f0d5a8"></path><path d="M12.2,3.51h3.73a0,0,0,0,1,0,0v41a0,0,0,0,1,0,0H12.2A1.24,1.24,0,0,1,11,43.26V4.75A1.24,1.24,0,0,1,12.2,3.51Z" fill="none" stroke="#45413c" stroke-linecap="round" stroke-linejoin="round"></path><path d="M32.07,3.51H35.8A1.24,1.24,0,0,1,37,4.75V43.26A1.24,1.24,0,0,1,35.8,44.5H32.07a0,0,0,0,1,0,0v-41A0,0,0,0,1,32.07,3.51Z" fill="none" stroke="#45413c" stroke-linecap="round" stroke-linejoin="round"></path><path d="M34.56,21.52H37a0,0,0,0,1,0,0v6.83a0,0,0,0,1,0,0H35.8a1.24,1.24,0,0,1-1.24-1.24V21.52A0,0,0,0,1,34.56,21.52Z" fill="#ffe500" stroke="#45413c" stroke-linecap="round" stroke-linejoin="round"></path><path d="M33.940 22.760 A1.860 1.860 0 1 0 37.660 22.760 A1.860 1.860 0 1 0 33.940 22.760 Z" fill="#ffe500"></path><path d="M35.8,22.48a1.84,1.84,0,0,1,1.68,1.07,1.76,1.76,0,0,0,.18-.79,1.86,1.86,0,1,0-3.72,0,1.91,1.91,0,0,0,.18.79A1.87,1.87,0,0,1,35.8,22.48Z" fill="#fff48c"></path><path d="M33.940 22.760 A1.860 1.860 0 1 0 37.660 22.760 A1.860 1.860 0 1 0 33.940 22.760 Z" fill="none" stroke="#45413c" stroke-linecap="round" stroke-linejoin="round"></path><path d="M15.93 8.48H32.08V23.39H15.93z" fill="#debb7e"></path><path d="M15.93 8.48H32.08V10.91H15.93z" fill="#b89558"></path><path d="M15.93 8.48H32.08V23.39H15.93z" fill="none" stroke="#45413c" stroke-linecap="round" stroke-linejoin="round"></path><path d="M15.93 28.35H32.08V39.53H15.93z" fill="#debb7e"></path><path d="M15.93 28.35H32.08V30.78H15.93z" fill="#b89558"></path><path d="M15.93 28.35H32.08V39.53H15.93z" fill="none" stroke="#45413c" stroke-linecap="round" stroke-linejoin="round"></path></svg>