<svg viewBox="0 0 48 48" xmlns="http://www.w3.org/2000/svg"><path d="M25.59,32,44.52,11.26c.78-.78-.46-3.28-2.77-5.59S36.94,2.12,36.16,2.9L15.38,21.83Z" fill="#656769"></path><path d="M38.75,6c.72-.73,2.58-.08,4.5,1.44a16.46,16.46,0,0,0-1.5-1.72c-2.31-2.31-4.81-3.55-5.59-2.77L15.38,21.83l2.94,2.94Z" fill="#87898c"></path><path d="M25.59,32,44.52,11.26c.78-.78-.46-3.28-2.77-5.59S36.94,2.12,36.16,2.9L15.38,21.83Z" fill="none" stroke="#45413c" stroke-linecap="round" stroke-linejoin="round"></path><path d="M23.54,37.41,25.59,32c.94-.95-.56-4-3.36-6.79s-5.84-4.3-6.79-3.36L9.89,23.76Z" fill="#656769"></path><path d="M17.88,24.46c.7-.7,2-.67,3.45-.05-2.53-2.25-5-3.36-5.89-2.52L9.89,23.76l3,3Z" fill="#87898c"></path><path d="M23.54,37.41,25.59,32c.94-.95-.56-4-3.36-6.79s-5.84-4.3-6.79-3.36L9.89,23.76Z" fill="none" stroke="#45413c" stroke-linecap="round" stroke-linejoin="round"></path><path d="M10.030 45.150 A17.25 1.85 0 1 0 44.530 45.150 A17.25 1.85 0 1 0 10.030 45.150 Z" fill="#45413c" opacity=".15"></path><path d="M17,43.92l6.51-6.51c1.27-1.28-.75-5.37-4.52-9.14s-7.86-5.79-9.13-4.51l-6.51,6.5Z" fill="#656769"></path><path d="M12.5,26.55c1-1,3.1-.64,5.46.72C14.51,24.16,11,22.6,9.89,23.76l-6.51,6.5L6.08,33Z" fill="#87898c"></path><path d="M17,43.92l6.51-6.51c1.27-1.28-.75-5.37-4.52-9.14s-7.86-5.79-9.13-4.51l-6.51,6.5Z" fill="none" stroke="#45413c" stroke-linecap="round" stroke-linejoin="round"></path><path d="M3.38,30.26C4.65,29,8.74,31,12.51,34.78s5.8,7.86,4.52,9.14-5.36-.75-9.13-4.52S2.11,31.54,3.38,30.26Z" fill="#fffacf"></path><path d="M17.33,42.12c-1.87-.39-4.68-2.18-7.33-4.83S5.57,31.84,5.18,30a2,2,0,0,0-1.8.3c-1.27,1.28.75,5.37,4.52,9.14s7.86,5.79,9.13,4.52A1.91,1.91,0,0,0,17.33,42.12Z" fill="#ffe500"></path><path d="M3.38,30.26C4.65,29,8.74,31,12.51,34.78s5.8,7.86,4.52,9.14-5.36-.75-9.13-4.52S2.11,31.54,3.38,30.26Z" fill="none" stroke="#45413c" stroke-linecap="round" stroke-linejoin="round"></path></svg>