<svg viewBox="0 0 48 48" xmlns="http://www.w3.org/2000/svg"><path d="M2.920 44.570 A21.08 2.43 0 1 0 45.080 44.570 A21.08 2.43 0 1 0 2.920 44.570 Z" fill="#45413c" opacity=".15"></path><path d="M4,5.62V42.38A1.61,1.61,0,0,0,5.64,44H42.4A1.61,1.61,0,0,0,44,42.38V12.53a3.23,3.23,0,0,0-1-2.29L37.78,5a3.25,3.25,0,0,0-2.3-1H5.64A1.61,1.61,0,0,0,4,5.62Z" fill="#656769"></path><path d="M43.07,10.24,37.78,5a3.25,3.25,0,0,0-2.3-1H5.64A1.61,1.61,0,0,0,4,5.62v4.46A1.61,1.61,0,0,1,5.64,8.46H35.48a3.25,3.25,0,0,1,2.3.95l5.29,5.29A3.23,3.23,0,0,1,44,17V12.53A3.23,3.23,0,0,0,43.07,10.24Z" fill="#87898c"></path><path d="M4,5.62V42.38A1.61,1.61,0,0,0,5.64,44H42.4A1.61,1.61,0,0,0,44,42.38V12.53a3.23,3.23,0,0,0-1-2.29L37.78,5a3.25,3.25,0,0,0-2.3-1H5.64A1.61,1.61,0,0,0,4,5.62Z" fill="none" stroke="#45413c" stroke-linecap="round" stroke-linejoin="round"></path><path d="M13.75,4H33.21a0,0,0,0,1,0,0V14.4a.81.81,0,0,1-.81.81H14.56a.81.81,0,0,1-.81-.81V4A0,0,0,0,1,13.75,4Z" fill="#daedf7"></path><path d="M13.75 4H33.21V7.3100000000000005H13.75z" fill="#fff"></path><path d="M13.75,4H33.21a0,0,0,0,1,0,0V14.4a.81.81,0,0,1-.81.81H14.56a.81.81,0,0,1-.81-.81V4A0,0,0,0,1,13.75,4Z" fill="none" stroke="#45413c" stroke-linecap="round" stroke-linejoin="round"></path><path d="M8.48 26.43H38.480000000000004V44H8.48z" fill="#fff" stroke="#45413c" stroke-linecap="round" stroke-linejoin="round"></path><path d="M29.29 7.31L29.29 11.63" fill="none" stroke="#45413c" stroke-linecap="round" stroke-linejoin="round"></path><path d="M10.1,20.76H36.86a1.62,1.62,0,0,1,1.62,1.62v4.05a0,0,0,0,1,0,0h-30a0,0,0,0,1,0,0V22.38A1.62,1.62,0,0,1,10.1,20.76Z" fill="#80ddff" stroke="#45413c" stroke-linecap="round" stroke-linejoin="round"></path></svg>