<svg viewBox="0 0 48 48" xmlns="http://www.w3.org/2000/svg"><path d="M14.220 45.270 A9.78 1.73 0 1 0 33.780 45.270 A9.78 1.73 0 1 0 14.220 45.270 Z" fill="#45413c" opacity=".15"></path><path d="M23.51,27.44h5.75a.58.58,0,0,1,.58.58v6.9a0,0,0,0,1,0,0h-6.9a0,0,0,0,1,0,0V28A.58.58,0,0,1,23.51,27.44Z" fill="#c0dceb" transform="translate(62.79 49.7) rotate(157.22)"></path><path d="M21.76 29.06L24.43 35.43 24.43 35.43 21.76 29.06z" fill="#e8f4fa"></path><path d="M30.8,32.76l-2.68-6.37-2,.83,2.71,6.44a.5.5,0,0,1-.26.64l1.88-.79A.58.58,0,0,0,30.8,32.76Z" fill="#e8f4fa"></path><path d="M23.51,27.44h5.75a.58.58,0,0,1,.58.58v6.9a0,0,0,0,1,0,0h-6.9a0,0,0,0,1,0,0V28A.58.58,0,0,1,23.51,27.44Z" fill="none" stroke="#45413c" stroke-linecap="round" stroke-linejoin="round" transform="translate(62.79 49.7) rotate(157.22)"></path><path d="M33.22,40.29a6.85,6.85,0,0,0-.7,4.22l-.91.38a6.78,6.78,0,0,0-3.25-2.35A2,2,0,0,1,27,41.43a9.46,9.46,0,0,1-.52-1.66l-.87-4.19,4.55-1.91,2.39,3.55a9.82,9.82,0,0,1,.8,1.5A1.85,1.85,0,0,1,33.22,40.29Z" fill="#e8f4fa"></path><path d="M33.3,38.72a9.82,9.82,0,0,0-.8-1.5l-2.39-3.55-1.83.77,2.34,3.49a8.34,8.34,0,0,1,.81,1.5A1.89,1.89,0,0,1,31.34,41a7.29,7.29,0,0,0-.77,2.79,6.41,6.41,0,0,1,1,1.1l.91-.38a6.85,6.85,0,0,1,.7-4.22A1.85,1.85,0,0,0,33.3,38.72Z" fill="#fff"></path><path d="M33.22,40.29a6.85,6.85,0,0,0-.7,4.22l-.91.38a6.78,6.78,0,0,0-3.25-2.35A2,2,0,0,1,27,41.43a9.46,9.46,0,0,1-.52-1.66l-.87-4.19,4.55-1.91,2.39,3.55a9.82,9.82,0,0,1,.8,1.5A1.85,1.85,0,0,1,33.22,40.29Z" fill="none" stroke="#45413c" stroke-linecap="round" stroke-linejoin="round"></path><path d="M32.07 44.7L29.84 39.4" fill="none" stroke="#45413c" stroke-linecap="round" stroke-linejoin="round"></path><path d="M28.78,39.84a1.15,1.15,0,1,1,1.51.62A1.15,1.15,0,0,1,28.78,39.84Z" fill="#45413c"></path><path d="M28.74,24.88,20.94,6.32a4.6,4.6,0,1,0-8.48,3.57l7.79,18.56a1.15,1.15,0,0,0,1.51.61l6.36-2.67A1.16,1.16,0,0,0,28.74,24.88Z" fill="#87898c"></path><path d="M12.46 9.88L12.46 9.88 20.25 28.45 20.25 28.45 12.46 9.88z" fill="#bdbec0"></path><path d="M28.74,24.88,20.94,6.32a4.6,4.6,0,0,0-6-2.46,4.49,4.49,0,0,0-.53.29,3.4,3.4,0,0,1,3.87,2l8.38,20a.85.85,0,0,1-.46,1.11l-3.07,1.3,5-2.11A1.16,1.16,0,0,0,28.74,24.88Z" fill="#bdbec0"></path><path d="M28.74,24.88,20.94,6.32a4.6,4.6,0,1,0-8.48,3.57l7.79,18.56a1.15,1.15,0,0,0,1.51.61l6.36-2.67A1.16,1.16,0,0,0,28.74,24.88Z" fill="none" stroke="#45413c" stroke-linecap="round" stroke-linejoin="round"></path><path d="M30.66 30.94L23.23 34.06" fill="none" stroke="#45413c" stroke-linecap="round" stroke-linejoin="round"></path><path d="M16.53,10.67a1.15,1.15,0,1,1,2.12-.89l4,9.55a1.15,1.15,0,0,1-2.12.89Z" fill="#daedf7" stroke="#45413c" stroke-linecap="round" stroke-linejoin="round"></path></svg>