<svg viewBox="0 0 48 48" xmlns="http://www.w3.org/2000/svg"><path d="M38.15,40.91,15.78,34.2V1.92L38,8.58a2.4,2.4,0,0,1,1.7,2.29v28.9A1.19,1.19,0,0,1,38.15,40.91Z" fill="#00f5bc"></path><path d="M38.15,40.91,15.78,34.2V1.92L38,8.58a2.4,2.4,0,0,1,1.7,2.29v28.9A1.19,1.19,0,0,1,38.15,40.91Z" fill="none" stroke="#45413c" stroke-linecap="round" stroke-linejoin="round"></path><path d="M20.66 3.39L15.78 1.92 15.78 34.2 20.66 35.66 20.66 3.39z" fill="#656769" stroke="#45413c" stroke-linecap="round" stroke-linejoin="round"></path><path d="M15.78 1.92L9.8 6.11 9.8 19.11 15.78 13.8 15.78 1.92z" fill="#656769" stroke="#45413c" stroke-linecap="round" stroke-linejoin="round"></path><path d="M10.250 45.210 A13.75 1.79 0 1 0 37.750 45.210 A13.75 1.79 0 1 0 10.250 45.210 Z" fill="#45413c" opacity=".15"></path><path d="M32.16 43.94L36.7 40.48 36.7 11.19 32.16 14.32 32.16 43.94z" fill="#fffce5"></path><path d="M32.16 14.32L32.16 19.09 36.7 15.95 36.7 11.19 32.16 14.32z" fill="#fffef2"></path><path d="M32.16 43.94L36.7 40.48 36.7 11.19 32.16 14.32 32.16 43.94z" fill="none" stroke="#45413c" stroke-linecap="round" stroke-linejoin="round"></path><path d="M15.78 4.91L11.3 8.05 32.22 14.32 36.7 11.19 15.78 4.91z" fill="#fffef2" stroke="#45413c" stroke-linecap="round" stroke-linejoin="round"></path><path d="M32.17,45.09,10.66,38.64a1.2,1.2,0,0,1-.86-1.15V6.11L32,12.77a2.38,2.38,0,0,1,1.7,2.29V44A1.19,1.19,0,0,1,32.17,45.09Z" fill="#00f5bc"></path><path d="M32,12.77,9.8,6.11V9.62L32,16.28a2.38,2.38,0,0,1,1.7,2.29V15.06A2.38,2.38,0,0,0,32,12.77Z" fill="#8cffe4"></path><path d="M32.17,45.09,10.66,38.64a1.2,1.2,0,0,1-.86-1.15V6.11L32,12.77a2.38,2.38,0,0,1,1.7,2.29V44A1.19,1.19,0,0,1,32.17,45.09Z" fill="none" stroke="#45413c" stroke-linecap="round" stroke-linejoin="round"></path><path d="M14.69,7.57,9.8,6.11V37.49a1.2,1.2,0,0,0,.86,1.15l4,1.21Z" fill="#656769"></path><path d="M9.8 6.11L9.8 9.62 14.69 11.08 14.69 7.57 9.8 6.11z" fill="#87898c"></path><path d="M14.69,7.57,9.8,6.11V37.49a1.2,1.2,0,0,0,.86,1.15l4,1.21Z" fill="none" stroke="#45413c" stroke-linecap="round" stroke-linejoin="round"></path><path d="M27.81 22.98L20.19 20.74 20.19 15.95 27.81 18.2 27.81 22.98z" fill="#fff" stroke="#45413c" stroke-linecap="round" stroke-linejoin="round"></path></svg>