<svg viewBox="0 0 48 48" xmlns="http://www.w3.org/2000/svg"><path d="M30.19,8.79A15.49,15.49,0,1,0,28.82,31.9l2.34,2.34,2.58-2.58L31.4,29.32A15.48,15.48,0,0,0,30.19,8.79Z" fill="#daedf7"></path><path d="M8.29,12a15.47,15.47,0,0,1,26.34,9.37,15.48,15.48,0,1,0-30.79,0A15.38,15.38,0,0,1,8.29,12Z" fill="#e8f4fa"></path><path d="M30.19,8.79A15.49,15.49,0,1,0,28.82,31.9l2.34,2.34,2.58-2.58L31.4,29.32A15.48,15.48,0,0,0,30.19,8.79Z" fill="none" stroke="#45413c" stroke-linecap="round" stroke-linejoin="round"></path><path d="M12.260 45.340 A16.04 1.66 0 1 0 44.340 45.340 A16.04 1.66 0 1 0 12.260 45.340 Z" fill="#45413c" opacity=".15"></path><path d="M6.940 19.740 A12.300 12.300 0 1 0 31.540 19.740 A12.300 12.300 0 1 0 6.940 19.740 Z" fill="#00b8f0"></path><path d="M10.54,11A12.29,12.29,0,0,0,9.22,26.85L25.48,9.16A12.29,12.29,0,0,0,10.54,11Z" fill="#4acfff"></path><path d="M6.940 19.740 A12.300 12.300 0 1 0 31.540 19.740 A12.300 12.300 0 1 0 6.940 19.740 Z" fill="none" stroke="#45413c" stroke-linecap="round" stroke-linejoin="round"></path><path d="M43.4,39.39l-8.7-8.7a.92.92,0,0,0-1.29,0l-3.22,3.22a.92.92,0,0,0,0,1.29l8.7,8.7a3.19,3.19,0,0,0,4.51-4.51Z" fill="#b89558"></path><path d="M43.4,39.39l-8.7-8.7a.92.92,0,0,0-1.29,0l-2,2a.91.91,0,0,1,1.29,0l8.7,8.7a3.17,3.17,0,0,1,.77,3.23,3.15,3.15,0,0,0,1.27-.76A3.2,3.2,0,0,0,43.4,39.39Z" fill="#debb7e"></path><path d="M43.4,39.39l-8.7-8.7a.92.92,0,0,0-1.29,0l-3.22,3.22a.92.92,0,0,0,0,1.29l8.7,8.7a3.19,3.19,0,0,0,4.51-4.51Z" fill="none" stroke="#45413c" stroke-linecap="round" stroke-linejoin="round"></path></svg>