<svg viewBox="0 0 48 48" xmlns="http://www.w3.org/2000/svg"><path d="M14.53,5.24H32.86a8.53,8.53,0,0,1,8.53,8.53v15.1a1.25,1.25,0,0,1-1.25,1.25H7.25A1.25,1.25,0,0,1,6,28.87V13.77a8.53,8.53,0,0,1,8.53-8.53Z" fill="#00b8f0"></path><path d="M32.86,5.24H14.53A8.53,8.53,0,0,0,6,13.77v3.75A8.53,8.53,0,0,1,14.53,9H32.86a8.53,8.53,0,0,1,8.53,8.53V13.77A8.53,8.53,0,0,0,32.86,5.24Z" fill="#4acfff"></path><path d="M14.53,5.24H32.86a8.53,8.53,0,0,1,8.53,8.53v15.1a1.25,1.25,0,0,1-1.25,1.25H7.25A1.25,1.25,0,0,1,6,28.87V13.77a8.53,8.53,0,0,1,8.53-8.53Z" fill="none" stroke="#45413c" stroke-linecap="round" stroke-linejoin="round"></path><path d="M11.080 44.130 A14.37 1.87 0 1 0 39.820 44.130 A14.37 1.87 0 1 0 11.080 44.130 Z" fill="#45413c" opacity=".15"></path><path d="M14.54,5.24A8.54,8.54,0,0,0,6,13.78V28.87a1.25,1.25,0,0,0,1.25,1.25H21.82a1.25,1.25,0,0,0,1.25-1.25V13.78A8.53,8.53,0,0,0,14.54,5.24Z" fill="#c0dceb"></path><path d="M14.54,5.24A8.49,8.49,0,0,0,8.89,7.38a8.52,8.52,0,0,1,9.88,8.43V30.12h3.05a1.25,1.25,0,0,0,1.25-1.25V13.78A8.53,8.53,0,0,0,14.54,5.24Z" fill="#8ca4b8"></path><path d="M14.54,5.24A8.54,8.54,0,0,0,6,13.78V28.87a1.25,1.25,0,0,0,1.25,1.25H21.82a1.25,1.25,0,0,0,1.25-1.25V13.78A8.53,8.53,0,0,0,14.54,5.24Z" fill="none" stroke="#45413c" stroke-linecap="round" stroke-linejoin="round"></path><path d="M31,1.37H27.75A1.24,1.24,0,0,0,26.5,2.61V18.3a1.88,1.88,0,1,0,3.75,0V8.64H31A1.24,1.24,0,0,0,32.28,7.4V2.61A1.24,1.24,0,0,0,31,1.37Z" fill="#ff6242" stroke="#45413c" stroke-linecap="round" stroke-linejoin="round"></path><path d="M22.16,30.12H28.1a0,0,0,0,1,0,0V42.75A1.25,1.25,0,0,1,26.85,44H23.41a1.25,1.25,0,0,1-1.25-1.25V30.12A0,0,0,0,1,22.16,30.12Z" fill="#debb7e"></path><path d="M22.16 30.12H28.09V33.24H22.16z" fill="#b89558"></path><path d="M22.16,30.12H28.1a0,0,0,0,1,0,0V42.75A1.25,1.25,0,0,1,26.85,44H23.41a1.25,1.25,0,0,1-1.25-1.25V30.12A0,0,0,0,1,22.16,30.12Z" fill="none" stroke="#45413c" stroke-linecap="round" stroke-linejoin="round"></path><path d="M11.17,13.35A1.24,1.24,0,0,0,9.93,14.6V28.87a1.24,1.24,0,0,0,1.24,1.25H21.82a1.25,1.25,0,0,0,1.25-1.25V13.78c0-.15,0-.29,0-.43Z" fill="#fff"></path><path d="M23.06,13.35H19.68c0,.14,0,.28,0,.43V28.87a1.25,1.25,0,0,1-1.25,1.25h3.38a1.25,1.25,0,0,0,1.25-1.25V13.78C23.07,13.63,23.07,13.49,23.06,13.35Z" fill="#f0f0f0"></path><path d="M11.17,13.35A1.24,1.24,0,0,0,9.93,14.6V28.87a1.24,1.24,0,0,0,1.24,1.25H21.82a1.25,1.25,0,0,0,1.25-1.25V13.78c0-.15,0-.29,0-.43Z" fill="none" stroke="#45413c" stroke-linecap="round" stroke-linejoin="round"></path><path d="M10.24 13.78L23.07 23.3" fill="none" stroke="#45413c" stroke-linecap="round" stroke-linejoin="round"></path><path d="M10.24 29.69L20.25 21.21" fill="none" stroke="#45413c" stroke-linecap="round" stroke-linejoin="round"></path></svg>