<svg viewBox="0 0 48 48" xmlns="http://www.w3.org/2000/svg"><path d="M8.500 41.770 A15.5 2.02 0 1 0 39.500 41.770 A15.5 2.02 0 1 0 8.500 41.770 Z" fill="#45413c" opacity=".15"></path><path d="M8.09,38.88a9.75,9.75,0,0,1,0-13.79l18-18A9.75,9.75,0,0,1,39.91,20.85l-18,18A9.75,9.75,0,0,1,8.09,38.88Z" fill="#ff6242"></path><path d="M12.33,29.34l18-18A9.78,9.78,0,0,1,41.7,9.52a9.86,9.86,0,0,0-1.79-2.46,9.75,9.75,0,0,0-13.79,0l-18,18a9.75,9.75,0,0,0,0,13.79,9.86,9.86,0,0,0,2.46,1.79A9.75,9.75,0,0,1,12.33,29.34Z" fill="#ff866e"></path><path d="M26.12,7.06l-9,9L30.89,29.87l9-9A9.75,9.75,0,1,0,26.12,7.06Z" fill="#00b8f0"></path><path d="M41.7,9.52a9.86,9.86,0,0,0-1.79-2.46,9.75,9.75,0,0,0-13.79,0l-9,9,4.24,4.24,9-9A9.78,9.78,0,0,1,41.7,9.52Z" fill="#4acfff"></path><path d="M39.91,7.06a9.75,9.75,0,0,1,0,13.79l-18,18A9.75,9.75,0,0,1,8.09,25.09l18-18A9.75,9.75,0,0,1,39.91,7.06Z" fill="none" stroke="#45413c" stroke-linecap="round" stroke-linejoin="round"></path><path d="M26.12,7.06l-9,9L30.89,29.87l9-9A9.75,9.75,0,1,0,26.12,7.06Z" fill="none" stroke="#45413c" stroke-linecap="round" stroke-linejoin="round"></path></svg>