<svg viewBox="0 0 48 48" xmlns="http://www.w3.org/2000/svg"><path d="M11.710 44.400 A12.29 1.6 0 1 0 36.290 44.400 A12.29 1.6 0 1 0 11.710 44.400 Z" fill="#45413c" opacity=".15"></path><path d="M10.810 2.900 L37.200 2.900 L37.200 33.900 L10.810 33.900 Z" fill="#ff6242"></path><path d="M34,2.9H14a3.2,3.2,0,0,0-3.2,3.2V8.58A3.21,3.21,0,0,1,14,5.37H34a3.21,3.21,0,0,1,3.2,3.21V6.1A3.2,3.2,0,0,0,34,2.9Z" fill="#ff866e"></path><path d="M10.810 2.900 L37.200 2.900 L37.200 33.900 L10.810 33.900 Z" fill="none" stroke="#45413c" stroke-linecap="round" stroke-linejoin="round"></path><path d="M21.76,33.89h4.47a0,0,0,0,1,0,0v9.54a1.07,1.07,0,0,1-1.07,1.07H22.83a1.07,1.07,0,0,1-1.07-1.07V33.89a0,0,0,0,1,0,0Z" fill="#debb7e"></path><path d="M21.76 33.89H26.23V36.61H21.76z" fill="#b89558"></path><path d="M21.76,33.89h4.47a0,0,0,0,1,0,0v9.54a1.07,1.07,0,0,1-1.07,1.07H22.83a1.07,1.07,0,0,1-1.07-1.07V33.89a0,0,0,0,1,0,0Z" fill="none" stroke="#45413c" stroke-linecap="round" stroke-linejoin="round"></path><path d="M14.410 11.060 L33.580 11.060 L33.580 14.530 L14.410 14.530 Z" fill="#656769"></path><path d="M32.52,11.06h-17a1.07,1.07,0,0,0-1.07,1.07v1.3a1.07,1.07,0,0,1,1.07-1.07h17a1.07,1.07,0,0,1,1.07,1.07v-1.3A1.07,1.07,0,0,0,32.52,11.06Z" fill="#525252"></path><path d="M14.410 11.060 L33.580 11.060 L33.580 14.530 L14.410 14.530 Z" fill="none" stroke="#45413c" stroke-linecap="round" stroke-linejoin="round"></path><path d="M33.9,6.58H14.1a1.12,1.12,0,0,0,0,2.23H33.9a1.12,1.12,0,0,0,0-2.23Z" fill="#e04122"></path><path d="M14.1,7.7H33.9a1.11,1.11,0,0,1,1,.55A1,1,0,0,0,35,7.7,1.12,1.12,0,0,0,33.9,6.58H14.1A1.12,1.12,0,0,0,13,7.7a1,1,0,0,0,.15.55A1.11,1.11,0,0,1,14.1,7.7Z" fill="#ff6242"></path><path d="M33.9,6.58H14.1a1.12,1.12,0,0,0,0,2.23H33.9a1.12,1.12,0,0,0,0-2.23Z" fill="none" stroke="#45413c" stroke-linecap="round" stroke-linejoin="round"></path><path d="M33.56,21.16H23.77a1.07,1.07,0,0,1-1-.63l-4.26-9.47H29.84l4.21,9.34A.54.54,0,0,1,33.56,21.16Z" fill="#fff"></path><path d="M30.87 13.35L29.84 11.06 18.53 11.06 19.56 13.35 30.87 13.35z" fill="#f0f0f0"></path><path d="M33.56,21.16H23.77a1.07,1.07,0,0,1-1-.63l-4.26-9.47H29.84l4.21,9.34A.54.54,0,0,1,33.56,21.16Z" fill="none" stroke="#45413c" stroke-linecap="round" stroke-linejoin="round"></path><path d="M34.03 20.87L26.46 14.74 27.31 11.06" fill="none" stroke="#45413c" stroke-linecap="round" stroke-linejoin="round"></path><path d="M27.61 15.67L23.25 21.02" fill="none" stroke="#45413c" stroke-linecap="round" stroke-linejoin="round"></path><path d="M26.71 13.67L21.47 11.06" fill="none" stroke="#45413c" stroke-linecap="round" stroke-linejoin="round"></path></svg>