<svg viewBox="0 0 48 48" xmlns="http://www.w3.org/2000/svg"><path d="M1.620 38.750 A22.38 1.64 0 1 0 46.380 38.750 A22.38 1.64 0 1 0 1.620 38.750 Z" fill="#45413c" opacity=".15"></path><path d="M3.09,32.12H44.91a0,0,0,0,1,0,0v3.55a2.18,2.18,0,0,1-2.18,2.18H5.27a2.18,2.18,0,0,1-2.18-2.18V32.12a0,0,0,0,1,0,0Z" fill="#e0e0e0" stroke="#45413c" stroke-linecap="round" stroke-linejoin="round"></path><path d="M3.09,29.26H44.91a0,0,0,0,1,0,0V32.8A2.18,2.18,0,0,1,42.73,35H5.27A2.18,2.18,0,0,1,3.09,32.8V29.26a0,0,0,0,1,0,0Z" fill="#e0e0e0" stroke="#45413c" stroke-linecap="round" stroke-linejoin="round"></path><path d="M18.41,32.12H29.59a0,0,0,0,1,0,0v6.21a.55.55,0,0,1-.55.55H19a.55.55,0,0,1-.55-.55V32.12A0,0,0,0,1,18.41,32.12Z" fill="#debb7e" stroke="#45413c" stroke-linecap="round" stroke-linejoin="round"></path><path d="M3.090 9.570 L44.910 9.570 L44.910 32.120 L3.090 32.120 Z" fill="#f0f0f0"></path><path d="M42.73,9.57H5.27a2.18,2.18,0,0,0-2.18,2.19V17a2.18,2.18,0,0,1,2.18-2.19H42.73A2.18,2.18,0,0,1,44.91,17V11.76A2.18,2.18,0,0,0,42.73,9.57Z" fill="#fff"></path><path d="M3.090 9.570 L44.910 9.570 L44.910 32.120 L3.090 32.120 Z" fill="none" stroke="#45413c" stroke-linecap="round" stroke-linejoin="round"></path><path d="M19,8.5H29a.55.55,0,0,1,.55.55V32.12a0,0,0,0,1,0,0H18.41a0,0,0,0,1,0,0V9A.55.55,0,0,1,19,8.5Z" fill="#f0d5a8"></path><path d="M29.05,8.5H19a.54.54,0,0,0-.54.55v3.88a.54.54,0,0,1,.54-.54h10.1a.54.54,0,0,1,.54.54V9.05A.54.54,0,0,0,29.05,8.5Z" fill="#f7e5c6"></path><path d="M19,8.5H29a.55.55,0,0,1,.55.55V32.12a0,0,0,0,1,0,0H18.41a0,0,0,0,1,0,0V9A.55.55,0,0,1,19,8.5Z" fill="none" stroke="#45413c" stroke-linecap="round" stroke-linejoin="round"></path><path d="M29.59,13.44h10a1.09,1.09,0,0,1,1.09,1.09V27.17a1.09,1.09,0,0,1-1.09,1.09h-10a0,0,0,0,1,0,0V13.44a0,0,0,0,1,0,0Z" fill="#f5ebff" stroke="#45413c" stroke-linecap="round" stroke-linejoin="round"></path><path d="M10.52,19.67h2.6a1.46,1.46,0,0,1,.63.14,1,1,0,0,1,.44.41,1.32,1.32,0,0,1,0,1.26,1,1,0,0,1-.44.41,1.46,1.46,0,0,1-.63.14h-2.2a4.23,4.23,0,0,1-.87,2.52h4.74a1.34,1.34,0,0,1,.64.15,1,1,0,0,1,.44.41,1.3,1.3,0,0,1,0,1.25,1.09,1.09,0,0,1-.44.41,1.47,1.47,0,0,1-.64.14H8.1a1.28,1.28,0,0,1-1-.36,1.32,1.32,0,0,1-.35-1A.9.9,0,0,1,7,25.06l.54-.76a4,4,0,0,0,.52-1A3.57,3.57,0,0,0,8.25,22H7.36a1.22,1.22,0,0,1-.89-.32,1.29,1.29,0,0,1,0-1.72,1.26,1.26,0,0,1,.89-.32h.36a4.15,4.15,0,0,1-.3-.89,4.29,4.29,0,0,1-.14-.92,2.74,2.74,0,0,1,.58-1.74A3.62,3.62,0,0,1,9.43,15a5.57,5.57,0,0,1,2.15-.41,5.93,5.93,0,0,1,2.17.39A3.9,3.9,0,0,1,15.33,16a2.29,2.29,0,0,1,.57,1.51,1.24,1.24,0,0,1-.37.94,1.32,1.32,0,0,1-1,.35.86.86,0,0,1-.58-.18,5.51,5.51,0,0,1-.58-.65,3.12,3.12,0,0,0-.75-.72,1.75,1.75,0,0,0-1-.24,1.86,1.86,0,0,0-1.15.36,1.12,1.12,0,0,0-.48,1,1.76,1.76,0,0,0,.21.9Z" fill="#45413c"></path><path d="M40.73,27.17V25.62a7.26,7.26,0,0,0-4.08-3,3.55,3.55,0,1,0-3.93,0,7.14,7.14,0,0,0-3.13,1.81v3.79H39.64A1.09,1.09,0,0,0,40.73,27.17Z" fill="#bf8df2" stroke="#45413c" stroke-linecap="round" stroke-linejoin="round"></path></svg>