<svg xmlns="http://www.w3.org/2000/svg" fill="none" viewBox="0 0 24 24" id="Monitor-Download--Streamline-Ultimate">
  <desc>
    Monitor Download Streamline Icon: https://streamlinehq.com
  </desc>
  <path stroke="#000000" stroke-linecap="round" stroke-linejoin="round" d="M6.75 6.75h-3c-0.39782 0 -0.77936 0.15804 -1.06066 0.43934 -0.2813 0.2813 -0.43934 0.66284 -0.43934 1.06066V18c0 0.3978 0.15804 0.7794 0.43934 1.0607S3.35218 19.5 3.75 19.5h16.5c0.3978 0 0.7794 -0.158 1.0607 -0.4393S21.75 18.3978 21.75 18V8.25c0 -0.39782 -0.158 -0.77936 -0.4393 -1.06066 -0.2813 -0.2813 -0.6629 -0.43934 -1.0607 -0.43934h-3" stroke-width="1"></path>
  <path stroke="#000000" stroke-linecap="round" stroke-linejoin="round" d="M12 19.5v3.75" stroke-width="1"></path>
  <path stroke="#000000" stroke-linecap="round" stroke-linejoin="round" d="M8.25 23.25h7.5" stroke-width="1"></path>
  <path stroke="#000000" stroke-linecap="round" stroke-linejoin="round" d="M2.25 16h19.5" stroke-width="1"></path>
  <path stroke="#000000" stroke-linecap="round" stroke-linejoin="round" d="m9 9.75 3 3 3 -3" stroke-width="1"></path>
  <path stroke="#000000" stroke-linecap="round" stroke-linejoin="round" d="M12 12.75v-12" stroke-width="1"></path>
</svg>