<svg xmlns="http://www.w3.org/2000/svg" fill="none" viewBox="0 0 14 14" id="Transfer-Truck-Time--Streamline-Flex-Gradient">
  <desc>
    Transfer Truck Time Streamline Icon: https://streamlinehq.com
  </desc>
  <g id="transfer-truck-time--truck-shipping-delivery-time-waiting-delay-transfer">
    <path id="Union" fill="url(#paint0_linear_9380_3344)" fill-rule="evenodd" d="M10.5 0C9.44797 0 8.55546.297432 7.92645.926447 7.29743 1.55546 7 2.44797 7 3.5s.29743 1.94454.92645 2.57355C8.55546 6.70257 9.44797 7 10.5 7c1.052 0 1.9445-.29743 2.5736-.92645C13.7026 5.44454 14 4.55203 14 3.5s-.2974-1.94454-.9264-2.573553C12.4445.297432 11.552 0 10.5 0Zm1.2252 2.27486c.2441.24407.2441.6398 0 .88388l-.7566.75665c-.2441.24408-.6399.24408-.8839 0-.24411-.24408-.24411-.63981 0-.88388l.7566-.75665c.2441-.24408.6398-.24408.8839 0ZM5.75 3.5c0-.05797.00075-.11588.00226-.1737-.40495-.03508-.81932-.05823-1.2405-.05823-.74971 0-1.47849.07336-2.16976.15678l-.00169.00021c-.57292.07111-1.09994.34809-1.497705.77677-.397159.42803-.643224.98266-.705076 1.57166l-.000264.00259C.06363 6.51419 0 7.28741 0 8.08071 0 8.874.0636299 9.64722.13726 10.386l.000269.0026c.046948.4471.200026.8744.444753 1.2415.114478-.3121.293467-.6134.557588-.8776.54682-.5468 1.25305-.7287 1.88434-.7287.63129 0 1.33752.1819 1.88434.7287.54681.5469.72874 1.2531.72874 1.8844 0 .0797-.00291.1607-.00908.2423l.29135.0012c-.00623-.0821-.00916-.1634-.00916-.2435 0-.6313.18193-1.3375.72874-1.8844.54681-.5468 1.25305-.7287 1.88434-.7287.63128 0 1.33752.1819 1.88432.7287.5468.5469.7288 1.2531.7288 1.8844 0 .0866-.0035.1745-.0108.2633.7595-.006 1.3733-.6235 1.3733-1.3845v-1.1669c0-.1123-.0321-.2217-.0512-.2828-.0241-.07735-.0566-.16401-.093-.25383-.073-.18057-.1732-.40172-.2855-.63837-.1504-.31668-.3278-.67221-.5026-1.01487-.3487.06216-.7065.09107-1.0668.09107-1.28134 0-2.53046-.36559-3.45744-1.29256C6.11559 6.03046 5.75 4.78134 5.75 3.5Zm1.77302 8.1364c.24873-.2487.59826-.3626 1.00046-.3626.4022 0 .75172.1139 1.00045.3626.24873.2488.36262.5983.36262 1.0005 0 .4022-.11389.7517-.36262 1.0004-.24873.2488-.59825.3627-1.00045.3627-.4022 0-.75173-.1139-1.00046-.3627-.24873-.2487-.36262-.5982-.36262-1.0004s.11389-.7517.36262-1.0005Zm-5.49926 0c.24873-.2487.59825-.3626 1.00045-.3626.4022 0 .75172.1139 1.00045.3626.24873.2488.36263.5983.36263 1.0005 0 .4022-.1139.7517-.36263 1.0004-.24873.2488-.59825.3627-1.00045.3627-.4022 0-.75172-.1139-1.00045-.3627-.24873-.2487-.36263-.5982-.36263-1.0004s.1139-.7517.36263-1.0005Z" clip-rule="evenodd"></path>
  </g>
  <defs>
    <linearGradient id="paint0_linear_9380_3344" x1="13.953" x2="-2.626" y1="14.003" y2="4.677" gradientUnits="userSpaceOnUse">
      <stop stop-color="#ff51e3"></stop>
      <stop offset="1" stop-color="#1b4dff"></stop>
    </linearGradient>
  </defs>
</svg>