<svg xmlns="http://www.w3.org/2000/svg" fill="none" viewBox="0 0 24 24" id="Diagnostic-Desktop--Streamline-Ultimate">
  <desc>
    Diagnostic Desktop Streamline Icon: https://streamlinehq.com
  </desc>
  <path stroke="#000000" stroke-linecap="round" stroke-linejoin="round" d="M22.9237 13.3234v4.7521c0 0.4641 -0.3762 0.8403 -0.8403 0.8403H1.91693c-0.46407 0 -0.84027 -0.3762 -0.84027 -0.8403V4.63116c0 -0.46406 0.3762 -0.84027 0.84027 -0.84027h3.81271" stroke-width="1"></path>
  <path stroke="#000000" stroke-linecap="round" stroke-linejoin="round" d="m10.3197 18.9158 -1.68054 4.2013" stroke-width="1"></path>
  <path stroke="#000000" stroke-linecap="round" stroke-linejoin="round" d="m13.6807 18.9158 1.6805 4.2013" stroke-width="1"></path>
  <path stroke="#000000" stroke-linecap="round" stroke-linejoin="round" d="M6.9585 23.1171h10.0832" stroke-width="1"></path>
  <path stroke="#000000" stroke-linecap="round" stroke-linejoin="round" d="M14.4548 1.00378h0.9409c0.2496 0 0.4889 0.09914 0.6654 0.2756 0.1764 0.17646 0.2756 0.4158 0.2756 0.66535v2.58053c0 0.99822 -0.3966 1.95555 -1.1024 2.6614 -0.7059 0.70585 -1.6632 1.10239 -2.6614 1.10239s-1.9556 -0.39654 -2.66143 -1.10239c-0.70585 -0.70585 -1.10239 -1.66318 -1.10239 -2.6614V1.94473c0 -0.24955 0.09914 -0.48889 0.2756 -0.66535s0.4158 -0.2756 0.66535 -0.2756h0.94097" stroke-width="1"></path>
  <path stroke="#000000" stroke-linecap="round" stroke-linejoin="round" d="M21.0416 6.40722c1.0393 0 1.8819 -0.84255 1.8819 -1.88189 0 -1.03934 -0.8426 -1.8819 -1.8819 -1.8819 -1.0394 0 -1.8819 0.84256 -1.8819 1.8819s0.8425 1.88189 1.8819 1.88189Z" stroke-width="1"></path>
  <path stroke="#000000" stroke-linecap="round" stroke-linejoin="round" d="M12.5728 8.28912v0.47048c0 1.12299 0.4461 2.2 1.2401 2.9941 0.7941 0.7941 1.8711 1.2402 2.9941 1.2402s2.2 -0.4461 2.9941 -1.2402c0.7941 -0.7941 1.2402 -1.87111 1.2402 -2.9941V6.40723" stroke-width="1"></path>
</svg>