<svg xmlns="http://www.w3.org/2000/svg" fill="none" viewBox="0 0 24 24" id="Hair-Skin--Streamline-Ultimate">
  <desc>
    Hair Skin Streamline Icon: https://streamlinehq.com
  </desc>
  <path stroke="#000000" stroke-linecap="round" stroke-linejoin="round" d="M23.225 10.762h-5.2c0 1.5913 -0.6321 3.1174 -1.7573 4.2426 -1.1253 1.1252 -2.6514 1.7574 -4.2427 1.7574s-3.1174 -0.6322 -4.24262 -1.7574c-1.12521 -1.1252 -1.75736 -2.6513 -1.75736 -4.2426H0.775024" stroke-width="1.5"></path>
  <path stroke="#000000" stroke-linecap="round" stroke-linejoin="round" d="M8.27502 10.0121c0 0.9945 0.39509 1.9484 1.09835 2.6516 0.70323 0.7033 1.65713 1.0984 2.65163 1.0984 0.9946 0 1.9484 -0.3951 2.6517 -1.0984 0.7032 -0.7032 1.0983 -1.6571 1.0983 -2.6516 0 -2.65503 -2.937 -3.54803 -2.053 -7.87703 0.0312 -0.15161 0.0147 -0.30914 -0.0471 -0.45104 -0.0618 -0.1419 -0.1659 -0.26124 -0.2981 -0.34169 -0.1323 -0.08046 -0.2861 -0.11809 -0.4406 -0.10775 -0.1544 0.01033 -0.3018 0.06813 -0.4222 0.16548 -1.2472 1.07849 -2.2651 2.39652 -2.99329 3.87589 -0.72818 1.47936 -1.15179 3.08992 -1.24569 4.73614Z" stroke-width="1.5"></path>
  <path stroke="#000000" d="M1.52502 22.387c-0.2071 0 -0.375 -0.1679 -0.375 -0.375s0.1679 -0.375 0.375 -0.375" stroke-width="1.5"></path>
  <path stroke="#000000" d="M1.52502 22.387c0.20711 0 0.375 -0.1679 0.375 -0.375s-0.16789 -0.375 -0.375 -0.375" stroke-width="1.5"></path>
  <path stroke="#000000" d="M8.27502 22.387c-0.2071 0 -0.375 -0.1679 -0.375 -0.375s0.1679 -0.375 0.375 -0.375" stroke-width="1.5"></path>
  <path stroke="#000000" d="M8.27502 22.387c0.20711 0 0.375 -0.1679 0.375 -0.375s-0.16789 -0.375 -0.375 -0.375" stroke-width="1.5"></path>
  <path stroke="#000000" d="M15.775 22.387c-0.2071 0 -0.375 -0.1679 -0.375 -0.375s0.1679 -0.375 0.375 -0.375" stroke-width="1.5"></path>
  <path stroke="#000000" d="M15.775 22.387c0.2071 0 0.375 -0.1679 0.375 -0.375s-0.1679 -0.375 -0.375 -0.375" stroke-width="1.5"></path>
  <path stroke="#000000" d="M22.525 22.387c-0.2071 0 -0.375 -0.1679 -0.375 -0.375s0.1679 -0.375 0.375 -0.375" stroke-width="1.5"></path>
  <path stroke="#000000" d="M22.525 22.387c0.2071 0 0.375 -0.1679 0.375 -0.375s-0.1679 -0.375 -0.375 -0.375" stroke-width="1.5"></path>
  <path stroke="#000000" d="M22.525 14.887c-0.2071 0 -0.375 -0.1679 -0.375 -0.375s0.1679 -0.375 0.375 -0.375" stroke-width="1.5"></path>
  <path stroke="#000000" d="M22.525 14.887c0.2071 0 0.375 -0.1679 0.375 -0.375s-0.1679 -0.375 -0.375 -0.375" stroke-width="1.5"></path>
  <path stroke="#000000" d="M19.525 18.637c-0.2071 0 -0.375 -0.1679 -0.375 -0.375s0.1679 -0.375 0.375 -0.375" stroke-width="1.5"></path>
  <path stroke="#000000" d="M19.525 18.637c0.2071 0 0.375 -0.1679 0.375 -0.375s-0.1679 -0.375 -0.375 -0.375" stroke-width="1.5"></path>
  <path stroke="#000000" d="M4.52502 18.637c-0.2071 0 -0.375 -0.1679 -0.375 -0.375s0.1679 -0.375 0.375 -0.375" stroke-width="1.5"></path>
  <path stroke="#000000" d="M4.52502 18.637c0.20711 0 0.375 -0.1679 0.375 -0.375s-0.16789 -0.375 -0.375 -0.375" stroke-width="1.5"></path>
  <path stroke="#000000" d="M1.52502 14.887c-0.2071 0 -0.375 -0.1679 -0.375 -0.375s0.1679 -0.375 0.375 -0.375" stroke-width="1.5"></path>
  <path stroke="#000000" d="M1.52502 14.887c0.20711 0 0.375 -0.1679 0.375 -0.375s-0.16789 -0.375 -0.375 -0.375" stroke-width="1.5"></path>
</svg>