<svg xmlns="http://www.w3.org/2000/svg" fill="none" viewBox="0 0 24 24" id="Make-Up-Lipstick-1--Streamline-Ultimate">
  <desc>
    Make Up Lipstick 1 Streamline Icon: https://streamlinehq.com
  </desc>
  <path stroke="#000000" stroke-linecap="round" stroke-linejoin="round" d="M1.95498 12.3676h6.86c0.5412 0 0.98 0.4388 0.98 0.98v8.82c0 0.2706 -0.2194 0.49 -0.49 0.49h-7.84c-0.2706 0 -0.490004 -0.2194 -0.490004 -0.49v-8.82c0 -0.5412 0.438804 -0.98 0.980004 -0.98Z" stroke-width="1.5"></path>
  <path stroke="#000000" stroke-linecap="round" stroke-linejoin="round" d="M14.695 10.8975h7.84s0.49 0 0.49 0.49v10.78s0 0.49 -0.49 0.49h-7.84s-0.49 0 -0.49 -0.49v-10.78s0 -0.49 0.49 -0.49Z" stroke-width="1.5"></path>
  <path stroke="#000000" stroke-linecap="round" stroke-linejoin="round" d="M2.44501 12.3675v-10.29c0 -0.5658 0.6125 -0.9194 1.1025 -0.6365 0.0254 0.0147 0.05 0.0309 0.0735 0.0485l4.116 3.087c0.3702 0.2776 0.588 0.7133 0.588 1.176v6.615" stroke-width="1.5"></path>
  <path stroke="#000000" stroke-linecap="round" stroke-linejoin="round" d="M3.91498 19.7175h2.94" stroke-width="1.5"></path>
  <path stroke="#000000" stroke-linecap="round" stroke-linejoin="round" d="M14.205 16.7775h8.82" stroke-width="1.5"></path>
  <path stroke="#000000" stroke-linecap="round" stroke-linejoin="round" d="M14.205 19.7175h8.82" stroke-width="1.5"></path>
</svg>