<svg xmlns="http://www.w3.org/2000/svg" fill="none" viewBox="0 0 24 24" id="Medical-Instrument-Scalpel--Streamline-Ultimate">
  <desc>
    Medical Instrument Scalpel Streamline Icon: https://streamlinehq.com
  </desc>
  <path stroke="#000000" stroke-linecap="round" stroke-linejoin="round" d="M22.591 4.72395c0.422 -0.42196 0.659 -0.99426 0.659 -1.591 0 -0.59674 -0.237 -1.16904 -0.659 -1.591 -0.4219 -0.42196 -0.9942 -0.659015 -1.591 -0.659015 -0.5967 0 -1.169 0.237055 -1.591 0.659015L8.80002 12.1489c-0.06967 0.0696 -0.12493 0.1522 -0.16264 0.2432 -0.03771 0.0909 -0.05712 0.1884 -0.05712 0.2868 0 0.0985 0.01941 0.196 0.05712 0.2869 0.03771 0.091 0.09297 0.1736 0.16264 0.2431l2.12198 2.122c0.1408 0.1403 0.3313 0.219 0.53 0.219 0.1987 0 0.3893 -0.0787 0.53 -0.219L22.591 4.72395Z" stroke-width="1.5"></path>
  <path stroke="#000000" stroke-linecap="round" stroke-linejoin="round" d="M6.68098 16.391c0.70119 0.7746 1.06697 1.7955 1.01731 2.8392 -0.04966 1.0437 -0.51073 2.0252 -1.28231 2.7298 -0.70471 0.7713 -1.68619 1.2322 -2.7298 1.2819 -1.04361 0.0496 -2.06442 -0.316 -2.839195 -1.0169l5.833995 -5.834Z" stroke-width="1.5"></path>
  <path stroke="#000000" stroke-linecap="round" stroke-linejoin="round" d="m6.68103 16.391 2.652 -2.651" stroke-width="1.5"></path>
</svg>