<svg xmlns="http://www.w3.org/2000/svg" fill="none" viewBox="0 0 24 24" id="Petri-Dish-2--Streamline-Ultimate">
  <desc>
    Petri Dish 2 Streamline Icon: https://streamlinehq.com
  </desc>
  <path stroke="#000000" stroke-linecap="round" stroke-linejoin="round" d="M11.9997 22.8868c6.0127 0 10.8869 -4.8742 10.8869 -10.8869 0 -6.01263 -4.8742 -10.88686 -10.8869 -10.88686 -6.01267 0 -10.88691 4.87423 -10.88691 10.88686 0 6.0127 4.87424 10.8869 10.88691 10.8869Z" stroke-width="1.5"></path>
  <path stroke="#000000" stroke-linecap="round" stroke-linejoin="round" d="M6.4295 15.8146c0.93133 0 1.68633 -0.755 1.68633 -1.6864 0 -0.9313 -0.755 -1.6863 -1.68633 -1.6863 -0.93134 0 -1.68634 0.755 -1.68634 1.6863 0 0.9314 0.755 1.6864 1.68634 1.6864Z" stroke-width="1.5"></path>
  <path stroke="#000000" stroke-linecap="round" stroke-linejoin="round" d="M17.7881 8.05665c0 1.67641 -1.359 3.03545 -3.0354 3.03545 -1.2476 0 -2.3194 -0.7527 -2.7861 -1.82873 -0.2225 0.07663 -0.4614 0.11824 -0.71 0.11824 -1.2041 0 -2.18018 -0.9761 -2.18018 -2.18018s0.97608 -2.18018 2.18018 -2.18018c0.6227 0 1.1844 0.26106 1.5817 0.6797 0.5223 -0.42496 1.1886 -0.67971 1.9144 -0.67971 1.6764 0 3.0354 1.359 3.0354 3.03541Z" stroke-width="1.5"></path>
  <path stroke="#000000" stroke-linecap="round" d="M15.4604 17.4577c0.2725 -2.5096 3.0798 -1.5076 2.9603 -4.1271" stroke-width="1.5"></path>
  <path stroke="#000000" stroke-linecap="round" stroke-linejoin="round" d="M11.9999 15.0053c-0.1634 0 -0.2958 -0.1324 -0.2958 -0.2957 0 -0.1634 0.1324 -0.2958 0.2958 -0.2958" stroke-width="1.5"></path>
  <path stroke="#000000" stroke-linecap="round" stroke-linejoin="round" d="M11.9999 15.0053c0.1633 0 0.2958 -0.1324 0.2958 -0.2957 0 -0.1634 -0.1325 -0.2958 -0.2958 -0.2958" stroke-width="1.5"></path>
  <path stroke="#000000" stroke-linecap="round" stroke-linejoin="round" d="M5.77768 7.37324c-0.16333 0 -0.29575 -0.13241 -0.29575 -0.29575s0.13242 -0.29575 0.29575 -0.29575" stroke-width="1.5"></path>
  <path stroke="#000000" stroke-linecap="round" stroke-linejoin="round" d="M5.77771 7.37324c0.16333 0 0.29575 -0.13241 0.29575 -0.29575s-0.13242 -0.29575 -0.29575 -0.29575" stroke-width="1.5"></path>
  <path stroke="#000000" stroke-linecap="round" stroke-linejoin="round" d="M13.1363 19.5749c-0.1633 0 -0.2957 -0.1324 -0.2957 -0.2958 0 -0.1633 0.1324 -0.2957 0.2957 -0.2957" stroke-width="1.5"></path>
  <path stroke="#000000" stroke-linecap="round" stroke-linejoin="round" d="M13.1364 19.5749c0.1633 0 0.2957 -0.1324 0.2957 -0.2958 0 -0.1633 -0.1324 -0.2957 -0.2957 -0.2957" stroke-width="1.5"></path>
</svg>