<svg xmlns="http://www.w3.org/2000/svg" fill="none" viewBox="0 0 24 24" id="Radiology-Scanner--Streamline-Ultimate">
  <desc>
    Radiology Scanner Streamline Icon: https://streamlinehq.com
  </desc>
  <path stroke="#000000" stroke-linecap="round" stroke-linejoin="round" d="M0.974976 21.7388H3.91498" stroke-width="1.5"></path>
  <path stroke="#000000" stroke-linecap="round" stroke-linejoin="round" d="M0.974976 17.3289H3.91498" stroke-width="1.5"></path>
  <path stroke="#000000" stroke-linecap="round" stroke-linejoin="round" d="M9.79498 17.3289H12.735" stroke-width="1.5"></path>
  <path stroke="#000000" stroke-linecap="round" stroke-linejoin="round" d="m9.79498 21.0038 2.94002 -0.735" stroke-width="1.5"></path>
  <path stroke="#000000" stroke-linecap="round" stroke-linejoin="round" d="M15.675 20.2688v-3.675" stroke-width="1.5"></path>
  <path stroke="#000000" stroke-linecap="round" stroke-linejoin="round" d="M0.974976 8.50879H3.91498" stroke-width="1.5"></path>
  <path stroke="#000000" stroke-linecap="round" stroke-linejoin="round" d="M0.974976 12.9188H3.91498" stroke-width="1.5"></path>
  <path stroke="#000000" stroke-linecap="round" stroke-linejoin="round" d="M9.79498 12.9188H12.735" stroke-width="1.5"></path>
  <path stroke="#000000" stroke-linecap="round" stroke-linejoin="round" d="m9.79498 9.24377 2.94002 0.735" stroke-width="1.5"></path>
  <path stroke="#000000" stroke-linecap="round" stroke-linejoin="round" d="M15.675 9.97876v3.67504" stroke-width="1.5"></path>
  <path stroke="#000000" stroke-linecap="round" stroke-linejoin="round" d="M18.615 16.5938h4.41" stroke-width="1.5"></path>
  <path stroke="#000000" stroke-linecap="round" stroke-linejoin="round" d="m18.615 19.5337 4.41 -0.735" stroke-width="1.5"></path>
  <path stroke="#000000" stroke-linecap="round" stroke-linejoin="round" d="M18.615 13.6538h4.41" stroke-width="1.5"></path>
  <path stroke="#000000" stroke-linecap="round" stroke-linejoin="round" d="m18.615 10.7137 4.41 0.735" stroke-width="1.5"></path>
  <path stroke="#000000" stroke-linecap="round" stroke-linejoin="round" d="m20.82 5.56885 2.205 2.205" stroke-width="1.5"></path>
  <path stroke="#000000" stroke-linecap="round" stroke-linejoin="round" d="M15.675 2.6288 12 1.8938" stroke-width="1.5"></path>
  <path stroke="#000000" d="M6.85499 22.1063c-0.203 0 -0.3675 -0.1646 -0.3675 -0.3675s0.1645 -0.3675 0.3675 -0.3675" stroke-width="1.5"></path>
  <path stroke="#000000" d="M6.85498 22.1063c0.203 0 0.3675 -0.1646 0.3675 -0.3675s-0.1645 -0.3675 -0.3675 -0.3675" stroke-width="1.5"></path>
  <path stroke="#000000" d="M6.85499 17.6963c-0.203 0 -0.3675 -0.1646 -0.3675 -0.3675s0.1645 -0.3675 0.3675 -0.3675" stroke-width="1.5"></path>
  <path stroke="#000000" d="M6.85498 17.6963c0.203 0 0.3675 -0.1646 0.3675 -0.3675s-0.1645 -0.3675 -0.3675 -0.3675" stroke-width="1.5"></path>
  <path stroke="#000000" d="M6.85499 13.2863c-0.203 0 -0.3675 -0.1646 -0.3675 -0.3675s0.1645 -0.3675 0.3675 -0.3675" stroke-width="1.5"></path>
  <path stroke="#000000" d="M6.85498 13.2863c0.203 0 0.3675 -0.1646 0.3675 -0.3675s-0.1645 -0.3675 -0.3675 -0.3675" stroke-width="1.5"></path>
  <path stroke="#000000" d="M6.85499 8.87636c-0.203 0 -0.3675 -0.1646 -0.3675 -0.3675s0.1645 -0.3675 0.3675 -0.3675" stroke-width="1.5"></path>
  <path stroke="#000000" d="M6.85498 8.87636c0.203 0 0.3675 -0.1646 0.3675 -0.3675s-0.1645 -0.3675 -0.3675 -0.3675" stroke-width="1.5"></path>
  <path stroke="#000000" d="M18.615 4.46632c-0.203 0 -0.3675 -0.1646 -0.3675 -0.3675s0.1645 -0.3675 0.3675 -0.3675" stroke-width="1.5"></path>
  <path stroke="#000000" d="M18.615 4.46632c0.203 0 0.3675 -0.1646 0.3675 -0.3675s-0.1645 -0.3675 -0.3675 -0.3675" stroke-width="1.5"></path>
</svg>