<svg xmlns="http://www.w3.org/2000/svg" fill="none" viewBox="0 0 24 24" id="Sos-Sign--Streamline-Ultimate">
  <desc>
    Sos Sign Streamline Icon: https://streamlinehq.com
  </desc>
  <path stroke="#000000" stroke-linecap="round" stroke-linejoin="round" d="M7.51847 9.93407c-0.06802 -0.19245 -0.17298 -0.36745 -0.30636 -0.51647 -0.28371 -0.31699 -0.69601 -0.51648 -1.15489 -0.51648h-1.1993c-0.76385 0 -1.38307 0.61922 -1.38307 1.38298 0 0.65 0.45257 1.2123 1.08751 1.3512l1.82596 0.3994c0.71132 0.1556 1.21832 0.7859 1.21832 1.5141 0 0.8557 -0.6937 1.55 -1.54942 1.55H5.02427c-0.67462 0 -1.24855 -0.4312 -1.46125 -1.033" stroke-width="1.5"></path>
  <path stroke="#000000" stroke-linecap="round" stroke-linejoin="round" d="M20.3783 9.93407c-0.068 -0.19245 -0.1729 -0.36745 -0.3063 -0.51647 -0.2837 -0.31699 -0.696 -0.51648 -1.1549 -0.51648h-1.1993c-0.7639 0 -1.3831 0.61922 -1.3831 1.38298 0 0.65 0.4526 1.2123 1.0875 1.3512l1.826 0.3994c0.7113 0.1556 1.2183 0.7859 1.2183 1.5141 0 0.8557 -0.6937 1.55 -1.5494 1.55h-1.033c-0.6746 0 -1.2485 -0.4312 -1.4612 -1.033" stroke-width="1.5"></path>
  <path stroke="#000000" stroke-linecap="round" stroke-linejoin="round" d="M9.90454 10.967v2.0659c0 1.1409 0.92496 2.0659 2.06586 2.0659 1.141 0 2.0659 -0.925 2.0659 -2.0659V10.967c0 -1.14094 -0.9249 -2.06588 -2.0659 -2.06588 -1.1409 0 -2.06586 0.92493 -2.06586 2.06588Z" stroke-width="1.5"></path>
  <path stroke="#000000" stroke-linecap="round" stroke-linejoin="round" d="M2.79996 1.07996H21.199s1.72 0 1.72 1.72V21.199s0 1.72 -1.72 1.72H2.79996s-1.72 0 -1.72 -1.72V2.79996s0 -1.72 1.72 -1.72Z" stroke-width="1.5"></path>
</svg>