<svg xmlns="http://www.w3.org/2000/svg" fill="none" viewBox="0 0 14 14"><g id="burger--burger-fast-cook-cooking-nutrition-food"><path id="Vector" fill="#37d7ff" d="M4 .5h6A3.5 3.5 0 0 1 13.5 4a1 1 0 0 1-1 1h-11a1 1 0 0 1-1-1A3.5 3.5 0 0 1 4 .5Z"></path><path id="Vector_2" stroke="#3e3e3e" stroke-linecap="round" stroke-linejoin="round" d="M.5 7.5h13"></path><path id="Vector_3" fill="#37d7ff" d="M13 10H7l-1.5 1.5-3-1.5H1a.5.5 0 0 0-.5.5 3 3 0 0 0 3 3h7a3 3 0 0 0 3-3 .5.5 0 0 0-.5-.5Z"></path><path id="Vector_4" stroke="#3e3e3e" stroke-linecap="round" stroke-linejoin="round" d="M4 .5h6A3.5 3.5 0 0 1 13.5 4a1 1 0 0 1-1 1h-11a1 1 0 0 1-1-1A3.5 3.5 0 0 1 4 .5v0Z"></path><path id="Vector_5" stroke="#3e3e3e" stroke-linecap="round" stroke-linejoin="round" d="M13 10H7l-1.5 1.5-3-1.5H1a.5.5 0 0 0-.5.5v0a3 3 0 0 0 3 3h7a3 3 0 0 0 3-3 .5.5 0 0 0-.5-.5Z"></path></g></svg>