<svg xmlns="http://www.w3.org/2000/svg" fill="none" viewBox="-0.5 -0.5 24 24" id="Ai-Science-Spark--Streamline-Sharp-Neon">
  <desc>
    Ai Science Spark Streamline Icon: https://streamlinehq.com
  </desc>
  <g id="ai-science-spark--atom-scientific-experiment-artificial-intelligence-ai">
    <path id="Vector 3017" stroke="#000cfe" d="M13.754000000000001 5.1888c1.8032 0 4.0572 -2.254 4.0572 -4.0572 0 1.8032 2.254 4.0572 4.057104166666667 4.0572 -1.8031041666666667 0 -4.057104166666667 2.254 -4.057104166666667 4.0572 0 -1.8032 -2.254 -4.0572 -4.0572 -4.0572Z" stroke-width="1"></path>
    <path id="Ellipse 968" stroke="#c71dff" d="M5.893175 17.106633333333335c3.7931791666666665 3.7930833333333336 8.02125 5.714925 9.443608333333334 4.292566666666667 1.4223583333333334 -1.4224541666666666 -0.49948333333333333 -5.650525000000001 -4.292566666666667 -9.443608333333334 -3.7930833333333336 -3.7930833333333336 -8.021154166666667 -5.714925 -9.4435125 -4.292566666666667 -1.4224541666666666 1.4224541666666666 0.49938750000000004 5.650525000000001 4.292470833333334 9.443608333333334Z" stroke-width="1"></path>
    <path id="Ellipse 969" stroke="#c71dff" d="M12.325029166666669 7.522916666666666c-1.8643416666666668 0.6482166666666667 -4.221841666666667 2.22295 -6.431758333333334 4.432866666666667 -3.7931791666666665 3.7930833333333336 -5.715020833333333 8.021154166666667 -4.292566666666667 9.443608333333334 1.4224541666666666 1.4224541666666666 5.650429166666666 -0.49938750000000004 9.4435125 -4.292470833333334 2.240295833333333 -2.240295833333333 3.8278708333333333 -4.632391666666667 4.459124999999999 -6.508425000000001" stroke-width="1"></path>
  </g>
</svg>