<svg xmlns="http://www.w3.org/2000/svg" fill="none" viewBox="0 0 24 24" id="Artificial-Intelligence-Brain-Chip--Streamline-Sharp-Neon">
  <desc>
    Artificial Intelligence Brain Chip Streamline Icon: https://streamlinehq.com
  </desc>
  <g id="artificial-intelligence-brain-chip--brain-thought-ai-automated-processor-implant-ai">
    <path id="Rectangle 819" stroke="#000cfe" d="M8.7655 8.76562h6.4687v6.46868H8.7655V8.76562Z" stroke-width="1"></path>
    <path id="Vector 2050" stroke="#000cfe" d="M10.2498 8.7655V6.41748" stroke-width="1"></path>
    <path id="Vector 2051" stroke="#000cfe" d="M13.7498 8.7655V6.41748" stroke-width="1"></path>
    <path id="Vector 2052" stroke="#000cfe" d="M10.2498 17.5828v-2.3484" stroke-width="1"></path>
    <path id="Vector 2053" stroke="#000cfe" d="M13.7498 17.5828v-2.3484" stroke-width="1"></path>
    <path id="Vector 2054" stroke="#000cfe" d="M15.2341 10.25h2.3485" stroke-width="1"></path>
    <path id="Vector 2055" stroke="#000cfe" d="M15.2341 13.75h2.3485" stroke-width="1"></path>
    <path id="Vector 2056" stroke="#000cfe" d="M6.51782 10h2.24767" stroke-width="1"></path>
    <path id="Vector 2057" stroke="#000cfe" d="M6.41748 13.75h2.24767" stroke-width="1"></path>
    <path id="Union" stroke="#c71dff" d="M4 6c0 -2.20914 1.79086 -4 4 -4 1.48056 0 2.7733 0.8044 3.4649 2h1.0702C13.2267 2.8044 14.5194 2 16 2c2.2091 0 4 1.79086 4 4 0 0.40092 -0.059 0.78807 -0.1688 1.15324C21.1622 8.34349 22 10.0739 22 12s-0.8378 3.6565 -2.1688 4.8468C19.941 17.2119 20 17.5991 20 18c0 2.2091 -1.7909 4 -4 4 -1.4806 0 -2.7733 -0.8044 -3.4649 -2h-1.0702C10.7733 21.1956 9.48056 22 8 22c-2.20914 0 -4 -1.7909 -4 -4 0 -0.4009 0.05898 -0.7881 0.16875 -1.1532C2.83775 15.6565 2 13.9261 2 12s0.83775 -3.65651 2.16875 -4.84676C4.05898 6.78807 4 6.40092 4 6Z" stroke-width="1"></path>
  </g>
</svg>