<svg xmlns="http://www.w3.org/2000/svg" fill="none" viewBox="-0.5 -0.5 24 24" id="Deepfake-Technology-2--Streamline-Sharp-Neon">
  <desc>
    Deepfake Technology 2 Streamline Icon: https://streamlinehq.com
  </desc>
  <g id="deepfake-technology-2--automated-face-swap-switch-head-fake-generated-artificial-intelligence-ai">
    <path id="Vector 1165" stroke="#000cfe" d="M9.104166666666668 3.8333333333333335H4.791666666666667v5.270833333333334" stroke-width="1"></path>
    <path id="Vector 1166" stroke="#000cfe" d="M18.208333333333336 13.895833333333334V19.166666666666668h-4.3125" stroke-width="1"></path>
    <path id="Vector 1174" stroke="#000cfe" d="M2.3958333333333335 6.708333333333334 4.791666666666667 9.104166666666668 7.1875 6.708333333333334" stroke-width="1"></path>
    <path id="Vector 1175" stroke="#000cfe" d="m15.8125 16.291666666666668 2.3958333333333335 -2.3958333333333335 2.3958333333333335 2.3958333333333335" stroke-width="1"></path>
    <path id="Ellipse 350" stroke="#c71dff" d="M12.458333333333334 6.229166666666667a4.3125 4.3125 0 1 0 8.625 0 4.3125 4.3125 0 1 0 -8.625 0" stroke-width="1"></path>
    <path id="Ellipse 371" stroke="#c71dff" d="M1.9166666666666667 16.770833333333336a4.3125 4.3125 0 1 0 8.625 0 4.3125 4.3125 0 1 0 -8.625 0" stroke-width="1"></path>
    <path id="Vector 4210" stroke="#c71dff" d="M6.229166666666667 12.458333333333334v8.625" stroke-width="1"></path>
    <path id="Vector 4211" stroke="#c71dff" d="m10.541666666666668 16.770833333333336 -8.625 0" stroke-width="1"></path>
    <path id="Vector 4212" stroke="#c71dff" d="M12.458333333333334 6.708333333333334h2.875c1.4375 0 2.3958333333333335 -0.8625 2.3958333333333335 -2.3958333333333335" stroke-width="1"></path>
    <path id="Vector 4213" stroke="#c71dff" d="M21.083333333333336 6.708333333333334h-0.9583333333333334c-1.4375 0 -2.3958333333333335 -0.8625 -2.3958333333333335 -2.3958333333333335" stroke-width="1"></path>
  </g>
</svg>