<svg xmlns="http://www.w3.org/2000/svg" fill="none" viewBox="0 0 14 14"><g id="database-setting--raid-storage-code-disk-programming-database-array-hard-disc-setting"><path id="Union" fill="#3e3e3e" fill-rule="evenodd" d="M.127 1.85c0-.111.055-.283.294-.506.241-.225.623-.456 1.148-.663C2.614.27 4.1 0 5.775 0c1.673 0 3.16.269 4.205.681.525.207.907.438 1.148.663.24.223.294.395.294.506 0 .111-.055.283-.294.506-.24.225-.623.456-1.148.663-1.045.412-2.532.68-4.205.68-1.674 0-3.161-.268-4.206-.68C1.044 2.812.662 2.58.42 2.356.18 2.133.126 1.961.126 1.85ZM11.55 3.61a5.75 5.75 0 0 1-1.11.57c-1.225.484-2.874.769-4.664.769-1.79 0-3.44-.285-4.665-.769A5.747 5.747 0 0 1 0 3.611v2.585c.04.093.118.207.266.342.248.226.643.458 1.183.666 1.07.412 2.59.68 4.3.683a2.004 2.004 0 0 1 2.727-1.299 2 2 0 0 1 3.073-1.455V3.61ZM5.775 9.137h.034c.133.348.364.662.68.894a2.001 2.001 0 0 0-.72 2.214C2.584 12.243 0 11.135 0 9.77V7.888c.298.182.636.343 1 .482 1.253.482 2.94.767 4.775.767Zm5.438-2.325a.75.75 0 0 0-1.5 0v.74a2.582 2.582 0 0 0-1.02.59l-.641-.37a.75.75 0 1 0-.75 1.3l.64.369a2.597 2.597 0 0 0 0 1.18l-.64.37a.75.75 0 1 0 .75 1.3l.64-.37c.287.268.635.473 1.021.59v.739a.75.75 0 1 0 1.5 0v-.74c.386-.116.734-.32 1.021-.59l.641.37a.75.75 0 0 0 .75-1.299l-.64-.369a2.596 2.596 0 0 0 0-1.181l.64-.37a.75.75 0 0 0-.75-1.299l-.64.37a2.587 2.587 0 0 0-1.022-.59v-.74Zm-1.69 2.674a1.085 1.085 0 0 0 .019 1.124c.19.306.53.51.918.51h.007a1.088 1.088 0 1 0-.945-1.634Z" clip-rule="evenodd"></path></g></svg>