<svg xmlns="http://www.w3.org/2000/svg" fill="none" viewBox="0 0 14 14"><g id="database--raid-storage-code-disk-programming-database-array-hard-disc"><path id="Subtract" fill="#3e3e3e" fill-rule="evenodd" d="M.552 2.278c0-.155.077-.368.357-.63.28-.262.722-.527 1.319-.762C3.418.416 5.105.112 7 .112c1.895 0 3.582.304 4.772.774.597.235 1.038.5 1.32.762.28.262.356.475.356.63 0 .155-.077.368-.357.63-.28.261-.722.526-1.319.762-1.19.47-2.877.774-4.772.774-1.895 0-3.582-.304-4.772-.774-.597-.236-1.038-.5-1.32-.763-.28-.261-.356-.474-.356-.63Zm12.96 1.89a6.317 6.317 0 0 1-1.281.665c-1.37.54-3.22.86-5.231.86-2.012 0-3.861-.32-5.231-.86a6.315 6.315 0 0 1-1.281-.666v3.178c.056.085.135.178.246.279.29.263.745.53 1.36.766 1.224.471 2.959.776 4.906.776 1.947 0 3.682-.305 4.907-.776.614-.237 1.069-.503 1.359-.766.11-.101.19-.194.246-.28V4.168ZM.488 11.208V8.993c.341.213.732.4 1.156.564 1.402.539 3.295.859 5.356.859 2.06 0 3.954-.32 5.356-.86a6.821 6.821 0 0 0 1.156-.563v2.216C13.512 12.749 10.597 14 7 14 3.403 14 .488 12.75.488 11.209Z" clip-rule="evenodd"></path></g></svg>