<svg xmlns="http://www.w3.org/2000/svg" fill="none" viewBox="0 0 14 14"><g id="database-server-2--server-network-internet"><path id="Subtract" fill="#3e3e3e" fill-rule="evenodd" d="M0 1.5A1.5 1.5 0 0 1 1.5 0h11A1.5 1.5 0 0 1 14 1.5V3a1.5 1.5 0 0 1-1.5 1.5h-11A1.5 1.5 0 0 1 0 3V1.5Zm0 6A1.5 1.5 0 0 1 1.5 6h11A1.5 1.5 0 0 1 14 7.5V9a1.5 1.5 0 0 1-1.5 1.5H7.75v1.987H12a.75.75 0 0 1 0 1.5H2a.75.75 0 0 1 0-1.5h4.25V10.5H1.5A1.5 1.5 0 0 1 0 9V7.5Zm3.5-5.25a.75.75 0 1 1-1.5 0 .75.75 0 0 1 1.5 0Zm4.33-.625a.625.625 0 1 0 0 1.25H11a.625.625 0 1 0 0-1.25H7.83ZM3.5 8.25a.75.75 0 1 1-1.5 0 .75.75 0 0 1 1.5 0Zm3.706 0c0-.345.28-.625.625-.625H11a.625.625 0 1 1 0 1.25H7.83a.625.625 0 0 1-.624-.625Z" clip-rule="evenodd"></path></g></svg>