<svg xmlns="http://www.w3.org/2000/svg" fill="none" viewBox="0 0 14 14"><g id="desktop-code--desktop-device-display-computer-code-terminal-html-css-programming-system"><path id="Subtract" fill="#3e3e3e" fill-rule="evenodd" d="M0 1.832C0 1.027.652.375 1.457.375h11.086c.805 0 1.457.652 1.457 1.457v7.586c0 .805-.652 1.457-1.457 1.457H8.517l.535 1.495H10a.75.75 0 0 1 0 1.5H4a.75.75 0 0 1 0-1.5h.948l.535-1.495H1.457A1.457 1.457 0 0 1 0 9.418V1.832Zm5.53 1.76a.75.75 0 0 1 0 1.061l-.97.97.97.97a.75.75 0 0 1-1.06 1.06l-1.5-1.5a.75.75 0 0 1 0-1.06l1.5-1.5a.75.75 0 0 1 1.06 0Zm4 0a.75.75 0 0 0-1.06 1.061l.97.97-.97.97a.75.75 0 0 0 1.06 1.06l1.5-1.5a.75.75 0 0 0 0-1.06l-1.5-1.5Z" clip-rule="evenodd"></path></g></svg>