<svg xmlns="http://www.w3.org/2000/svg" fill="none" viewBox="0 0 14 14"><g id="paypal--payment-paypal"><path id="Union" fill="#3e3e3e" fill-rule="evenodd" d="M2.98.015 8 1.095a3.59 3.59 0 0 1 2.86 3.499A3.517 3.517 0 0 1 6.6 8.022l-3.44-.74-1 4.679a.49.49 0 0 1-.58.38l-1.2-.26a.49.49 0 0 1-.37-.58l1.01-4.708L2.38.385a.49.49 0 0 1 .6-.37Zm.66 5.088 3 .65-.01-.02a1.32 1.32 0 0 0 .56-2.579l-3-.65-.55 2.6Zm.52 4.557.18-.846 1.998.43a4.772 4.772 0 0 0 5.773-4.646v-.01c0-.093-.004-.186-.01-.278A3.59 3.59 0 0 1 14 7.46a3.519 3.519 0 0 1-4.26 3.43l-3.44-.74-.826 3.46a.49.49 0 0 1-.58.38l-1.2-.26a.49.49 0 0 1-.37-.58l.836-3.49Z" clip-rule="evenodd"></path></g></svg>