<svg xmlns="http://www.w3.org/2000/svg" fill="none" viewBox="0 0 14 14"><g id="virtual-reality--gaming-virtual-gear-controller-reality-games-headset-technology-vr-eyewear"><path id="Union" fill="#3e3e3e" fill-rule="evenodd" d="M2.79 1.087A1.5 1.5 0 0 1 4.074.36h5.852a1.5 1.5 0 0 1 1.284.726l2.586 4.29H.211l2.578-4.289ZM0 7a.5.5 0 0 1 .5-.5h13a.5.5 0 0 1 .5.5v5a1.5 1.5 0 0 1-1.5 1.5H9.48a1.5 1.5 0 0 1-1.17-.563l-.92-1.149a.5.5 0 0 0-.78 0l-.92 1.149a1.5 1.5 0 0 1-1.17.563H1.5A1.5 1.5 0 0 1 0 12V7Z" clip-rule="evenodd"></path></g></svg>