<svg xmlns="http://www.w3.org/2000/svg" fill="none" viewBox="0 0 24 24" id="Elastic-X-Pack-Logo--Streamline-Logos">
  <desc>
    Elastic X Pack Logo Streamline Icon: https://streamlinehq.com
  </desc>
  <path stroke="#000000" stroke-linecap="round" stroke-linejoin="round" d="M15.24 10.233A4.619 4.619 0 0 0 12 8.89c-1.204 0 -2.39 0.492 -3.24 1.344l-6.244 6.243c-1.32 1.38 -1.296 3.63 0.054 4.981 1.351 1.35 3.602 1.375 4.981 0.054l4.45 -4.449 4.448 4.45c1.38 1.32 3.63 1.296 4.98 -0.055 1.351 -1.35 1.376 -3.6 0.055 -4.98l-6.243 -6.244Z" stroke-width="1"></path>
  <path stroke="#000000" stroke-linecap="round" stroke-linejoin="round" d="M6.993 12 2.516 7.524c-1.32 -1.38 -1.296 -3.63 0.054 -4.981 1.351 -1.35 3.602 -1.375 4.981 -0.054l4.45 4.449 4.448 -4.45c1.38 -1.32 3.63 -1.296 4.98 0.055 1.351 1.35 1.376 3.6 0.055 4.98L17.007 12" stroke-width="1"></path>
  <path stroke="#000000" stroke-linecap="round" stroke-linejoin="round" d="M17.007 12 12 17.064 6.993 12" stroke-width="1"></path>
</svg>