<svg xmlns="http://www.w3.org/2000/svg" fill="none" viewBox="0 0 24 24" id="Cnn-Logo--Streamline-Logos-Block">
  <desc>
    Cnn Logo Streamline Icon: https://streamlinehq.com
  </desc>
  <path fill="#000000" fill-rule="evenodd" d="M5 1a4 4 0 0 0 -4 4v14a4 4 0 0 0 4 4h14a4 4 0 0 0 4 -4V5a4 4 0 0 0 -4 -4H5Zm-0.967 11a3.7 3.7 0 0 1 3.7 -3.7h0.711v1h-0.71a2.7 2.7 0 0 0 0 5.4h2.7v-3.767a0.5 0.5 0 0 1 0.915 -0.277l2.57 3.854a0.426 0.426 0 0 0 0.781 -0.236v-3.34a0.5 0.5 0 0 1 0.916 -0.278l2.57 3.854a0.426 0.426 0 0 0 0.78 -0.236v-5.83h1v5.83a1.426 1.426 0 0 1 -2.613 0.79l-1.653 -2.48v1.69a1.426 1.426 0 0 1 -2.613 0.79l-1.654 -2.48V15.2a0.5 0.5 0 0 1 -0.5 0.5h-3.2a3.7 3.7 0 0 1 -3.7 -3.7Zm6.817 -2.7a0.839 0.839 0 0 0 -0.839 0.839v3.639a0.5 0.5 0 0 1 -0.5 0.5H7.733a2.278 2.278 0 0 1 0 -4.556h0.711v1h-0.71a1.278 1.278 0 0 0 0 2.556H9.01v-3.14a1.839 1.839 0 0 1 3.453 -0.88l0.814 1.492v-0.611a1.839 1.839 0 0 1 3.453 -0.88l0.813 1.491V8.444h1v4.267a0.5 0.5 0 0 1 -0.939 0.24l-1.752 -3.214a0.839 0.839 0 0 0 -1.575 0.402v2.572a0.5 0.5 0 0 1 -0.94 0.24l-1.752 -3.214a0.838 0.838 0 0 0 -0.736 -0.437Z" clip-rule="evenodd" stroke-width="1"></path>
</svg>