<svg xmlns="http://www.w3.org/2000/svg" fill="none" viewBox="0 0 24 24" id="Drupal-Logo-1--Streamline-Logos-Block">
  <desc>
    Drupal Logo 1 Streamline Icon: https://streamlinehq.com
  </desc>
  <path fill="#000000" fill-rule="evenodd" d="M5 1a4 4 0 0 0 -4 4v14a4 4 0 0 0 4 4h14a4 4 0 0 0 4 -4V5a4 4 0 0 0 -4 -4H5Zm6.166 3.016a0.364 0.364 0 0 1 0.407 0.143l0.001 0.001 0.002 0.004 0.012 0.016 0.046 0.064a10.783 10.783 0 0 0 0.812 0.993c0.538 0.582 1.2 1.15 1.81 1.322 2.745 0.777 4.653 3.53 4.653 6.532a6.91 6.91 0 1 1 -9.185 -6.525c0.554 -0.194 0.858 -0.695 1.023 -1.225a3.766 3.766 0 0 0 0.162 -0.963l0 -0.013 0 -0.002c0 -0.16 0.104 -0.3 0.257 -0.347Zm1.844 8.475c0.556 0.338 1.053 0.64 1.379 0.659 0.38 0.021 0.937 -0.304 1.497 -0.632 0.55 -0.322 1.103 -0.646 1.497 -0.646 0.985 0 0.754 1.508 0.608 2.095 -0.155 0.617 -0.838 1.633 -1.508 1.633 -0.335 0 -0.691 -0.361 -1.047 -0.722 -0.356 -0.362 -0.712 -0.723 -1.047 -0.723 -0.319 0 -1.153 0.364 -2.028 0.747 -0.967 0.422 -1.983 0.866 -2.412 0.866 -0.817 0 -1.906 -0.733 -1.906 -1.801s1.236 -2.43 2.723 -2.43c0.676 0 1.51 0.508 2.244 0.954Zm0.202 3.935a2.82 2.82 0 0 1 0.233 -0.127c0.2 -0.096 0.435 -0.175 0.646 -0.175 0.192 0 0.278 0.065 0.318 0.104 0.038 0.039 0.07 0.083 0.102 0.125 0.095 0.128 0.182 0.245 0.402 0.177 0.288 -0.09 0.296 -0.376 0.182 -0.587a1.003 1.003 0 0 0 -0.172 -0.229c-0.172 -0.172 -0.442 -0.318 -0.832 -0.318 -0.37 0 -0.721 0.132 -0.961 0.247a3.69 3.69 0 0 0 -0.3 0.164c-0.203 0.125 -0.377 0.35 -0.206 0.588 0.164 0.227 0.398 0.148 0.588 0.031Zm-2.242 0.827a0.364 0.364 0 0 1 0.505 -0.101c0.145 0.097 0.473 0.257 0.88 0.393 0.406 0.135 0.853 0.234 1.235 0.234a2.909 2.909 0 0 0 1.396 -0.36c0.198 -0.113 0.431 -0.204 0.598 0.028 0.201 0.28 -0.022 0.48 -0.235 0.603 -0.091 0.052 -0.222 0.12 -0.387 0.188a3.65 3.65 0 0 1 -1.372 0.269c-0.49 0 -1.02 -0.124 -1.465 -0.272 -0.441 -0.148 -0.836 -0.332 -1.054 -0.478a0.364 0.364 0 0 1 -0.1 -0.504Z" clip-rule="evenodd" stroke-width="1"></path>
</svg>