<svg xmlns="http://www.w3.org/2000/svg" fill="none" viewBox="0 0 24 24" id="Google-News-Logo--Streamline-Logos-Block">
  <desc>
    Google News Logo Streamline Icon: https://streamlinehq.com
  </desc>
  <path fill="#000000" fill-rule="evenodd" d="M5 1a4 4 0 0 0 -4 4v14a4 4 0 0 0 4 4h14a4 4 0 0 0 4 -4V5a4 4 0 0 0 -4 -4H5Zm12.161 4.365v3.013l-3.526 -0.784a0.737 0.737 0 0 0 -0.418 0.03l-0.398 -0.797a1.106 1.106 0 0 0 -1.447 -0.512L6.84 8.375v-3.01c0 -0.204 0.165 -0.369 0.369 -0.369h9.584c0.203 0 0.368 0.165 0.368 0.369Zm-10.69 4.792h7.188l-1.5 -3a0.369 0.369 0 0 0 -0.482 -0.17l-7.46 3.39a0.369 0.369 0 0 0 -0.189 0.478l1.338 3.209v-2.801c0 -0.61 0.495 -1.106 1.105 -1.106Zm8.013 0h3.046c0.61 0 1.106 0.495 1.106 1.106v2.948l1.345 -4.035a0.369 0.369 0 0 0 -0.27 -0.476l-6.138 -1.364 0.91 1.821Zm-8.013 0.737H17.53c0.203 0 0.368 0.165 0.368 0.369v7.372a0.369 0.369 0 0 1 -0.368 0.369H6.47a0.369 0.369 0 0 1 -0.368 -0.369v-7.372c0 -0.204 0.165 -0.369 0.368 -0.369Zm2.95 2.712a1.343 1.343 0 1 0 1.246 1.843H9.42v-1h2.344v0.5a2.343 2.343 0 1 1 -1.098 -1.985l-0.532 0.846a1.334 1.334 0 0 0 -0.714 -0.204Zm6.634 0h-3.317v-1h3.317v1Zm-3.317 1.843h4.055v-1h-4.055v1Zm3.317 1.843h-3.317v-1h3.317v1Z" clip-rule="evenodd" stroke-width="1"></path>
</svg>