<svg xmlns="http://www.w3.org/2000/svg" fill="none" viewBox="0 0 24 24" id="Mastodon-Logo-2--Streamline-Logos-Block">
  <desc>
    Mastodon Logo 2 Streamline Icon: https://streamlinehq.com
  </desc>
  <path fill="#000000" fill-rule="evenodd" d="M5 1a4 4 0 0 0 -4 4v14a4 4 0 0 0 4 4h14a4 4 0 0 0 4 -4V5a4 4 0 0 0 -4 -4H5Zm-0.558 9.91c0 8.668 3.742 9.09 6.909 9.09 2.221 0 2.833 -0.32 3.32 -0.575l0.001 0c0.106 -0.055 0.206 -0.107 0.315 -0.152v-1.455c-3.047 0.731 -6.182 0.575 -6.182 -1.818 0.25 0 0.63 0.063 1.094 0.14 0.719 0.118 1.634 0.27 2.56 0.27l0.092 0c2.294 0 7.007 0.002 7.007 -5.5 0 -6.614 -2.722 -6.91 -7.48 -6.91l-0.19 0c-3.612 -0.002 -7.446 -0.004 -7.446 6.91Zm8.727 -0.364a1.09 1.09 0 1 1 -2.182 0 1.09 1.09 0 0 1 2.182 0Zm-4.727 1.09a1.091 1.091 0 1 0 0 -2.181 1.091 1.091 0 0 0 0 2.182Zm8.363 -1.09a1.09 1.09 0 1 1 -2.182 0 1.09 1.09 0 0 1 2.182 0Z" clip-rule="evenodd" stroke-width="1"></path>
</svg>