<svg xmlns="http://www.w3.org/2000/svg" fill="none" viewBox="0 0 24 24" id="Reflect-Copy-Left--Streamline-Cyber">
  <desc>
    Reflect Copy Left Streamline Icon: https://streamlinehq.com
  </desc>
  <path stroke="#092f63" stroke-linecap="round" stroke-linejoin="round" stroke-miterlimit="10" d="M22.5 17.5v1" stroke-width="1"></path>
  <path stroke="#092f63" stroke-linecap="round" stroke-linejoin="round" stroke-miterlimit="10" d="M22.5 13.5v1" stroke-width="1"></path>
  <path stroke="#092f63" stroke-linecap="round" stroke-linejoin="round" stroke-miterlimit="10" d="M22.5 9.5v1" stroke-width="1"></path>
  <path stroke="#092f63" stroke-linecap="round" stroke-linejoin="round" stroke-miterlimit="10" d="m19.758 8.41299 -0.685 0.728" stroke-width="1"></path>
  <path stroke="#092f63" stroke-linecap="round" stroke-linejoin="round" stroke-miterlimit="10" d="m17.702 10.597 -0.685 0.73" stroke-width="1"></path>
  <path stroke="#092f63" stroke-linecap="round" stroke-linejoin="round" stroke-miterlimit="10" d="M21.129 6.956 22.5 5.5v2" stroke-width="1"></path>
  <path stroke="#092f63" stroke-linecap="round" stroke-linejoin="round" stroke-miterlimit="10" d="m19.758 19.587 -0.685 -0.728" stroke-width="1"></path>
  <path stroke="#092f63" stroke-linecap="round" stroke-linejoin="round" stroke-miterlimit="10" d="m17.702 17.403 -0.685 -0.73" stroke-width="1"></path>
  <path stroke="#092f63" stroke-linecap="round" stroke-linejoin="round" stroke-miterlimit="10" d="M15.646 15.218 14.5 14l1.146 -1.218" stroke-width="1"></path>
  <path stroke="#092f63" stroke-linecap="round" stroke-linejoin="round" stroke-miterlimit="10" d="M22.5 20.5v2l-1.371 -1.456" stroke-width="1"></path>
  <path stroke="#092f63" stroke-linecap="round" stroke-linejoin="round" stroke-miterlimit="10" d="M0.5 22.5v-17l8 8.5 -8 8.5Z" stroke-width="1"></path>
  <path stroke="#092f63" stroke-linecap="round" stroke-linejoin="round" stroke-miterlimit="10" d="M11.5 7.5v13" stroke-width="1"></path>
  <path stroke="#092f63" stroke-linecap="round" stroke-linejoin="round" stroke-miterlimit="10" d="m18 5.09 -6.5 -3 -6.76404 3.112" stroke-width="1"></path>
  <path stroke="#092f63" stroke-linecap="round" stroke-linejoin="round" stroke-miterlimit="10" d="m9.43696 6.903 -4.701 -1.701L6.43796 0.5" stroke-width="1"></path>
</svg>