<svg xmlns="http://www.w3.org/2000/svg" fill="none" viewBox="0 0 24 24" id="Thermometer-High--Streamline-Cyber">
  <desc>
    Thermometer High Streamline Icon: https://streamlinehq.com
  </desc>
  <path stroke="#092f63" stroke-linecap="round" stroke-linejoin="round" stroke-miterlimit="10" d="M11.5 21.25 9.5 20v-2l2 -1.25 2 1.25v2l-2 1.25Z" stroke-width="1"></path>
  <path stroke="#092f63" stroke-linecap="round" stroke-linejoin="round" stroke-miterlimit="10" d="M11.5 5.5v11.25" stroke-width="1"></path>
  <path stroke="#092f63" stroke-linejoin="round" stroke-miterlimit="10" d="M13.5 15.625V3.5l-2 -2 -2 2v12.125l-2 1.125v4.5l4 2.25 4 -2.25v-4.5l-2 -1.125Z" stroke-width="1"></path>
  <path stroke="#092f63" stroke-linecap="round" stroke-linejoin="round" d="m16.996 4.49 0.505 0.505 -0.505 0.505" stroke-width="1"></path>
  <path stroke="#092f63" stroke-linecap="round" stroke-linejoin="round" d="m16.996 4.49 -0.505 0.505 0.505 0.505" stroke-width="1"></path>
  <path stroke="#092f63" stroke-linecap="round" stroke-linejoin="round" d="m16.996 7.491 0.505 0.505 -0.505 0.504" stroke-width="1"></path>
  <path stroke="#092f63" stroke-linecap="round" stroke-linejoin="round" d="m16.996 7.491 -0.505 0.505 0.505 0.504" stroke-width="1"></path>
  <path stroke="#092f63" stroke-linecap="round" stroke-linejoin="round" d="m16.996 10.49 0.505 0.505 -0.505 0.504" stroke-width="1"></path>
  <path stroke="#092f63" stroke-linecap="round" stroke-linejoin="round" d="m16.996 10.49 -0.505 0.505 0.505 0.504" stroke-width="1"></path>
</svg>