<svg xmlns="http://www.w3.org/2000/svg" fill="none" viewBox="0 0 24 24" id="Time-Lapse--Streamline-Sharp-Remix">
  <desc>
    Time Lapse Streamline Icon: https://streamlinehq.com
  </desc>
  <g id="time-lapse--time-lapse-mode-photo-picture-image-setting">
    <path id="Union" fill="#000000" fill-rule="evenodd" d="M12 21.5c-5.24671 0 -9.5 -4.2533 -9.5 -9.5 0 -5.24671 4.25329 -9.5 9.5 -9.5V0C5.37258 0 0 5.37258 0 12c0 6.6274 5.37258 12 12 12 6.6274 0 12 -5.3726 12 -12h-2.5c0 5.2467 -4.2533 9.5 -9.5 9.5Zm8.5506 -13.64586c0.3419 0.7039 0.5993 1.45615 0.7592 2.24386l2.4501 -0.4973c-0.2023 -0.99675 -0.5282 -1.94872 -0.9607 -2.83898l-2.2486 1.09242Zm-0.9499 -1.55471c-0.5408 -0.71979 -1.1815 -1.36042 -1.9013 -1.90113l1.5014 -1.99891c0.9082 0.68219 1.7164 1.49021 2.3987 2.39835l-1.9988 1.50169Zm-5.6992 -3.60878c0.7878 0.15991 1.5401 0.41737 2.2441 0.75937l1.0924 -2.24867c-0.8903 -0.432543 -1.8423 -0.758391 -2.8391 -0.960735l-0.4974 2.450035ZM10.25 7v5.7249l0.5126 0.5125 4 4 2.4748 -2.4748 -3.4874 -3.4875V7h-3.5Z" clip-rule="evenodd" stroke-width="1"></path>
  </g>
</svg>