<svg xmlns="http://www.w3.org/2000/svg" fill="none" viewBox="0 0 14 14"><g id="laptop-camera--photos-photo-picture-photography-camera-pictures-laptop-computer"><path id="Union" fill="#3e3e3e" fill-rule="evenodd" d="M13.842 2.653a1 1 0 0 0-1-1h-.5l-1-1.5h-2l-1 1.5h-.5a1 1 0 0 0-1 1v2.5a1 1 0 0 0 1 1h5a1 1 0 0 0 1-1v-2.5Zm-4.5 1a1 1 0 1 1 2 0 1 1 0 0 1-2 0ZM2.986 4.752a.25.25 0 0 1 .25-.25h1.606a.75.75 0 1 0 0-1.5H3.236a1.75 1.75 0 0 0-1.75 1.75v4.931l-1.163 2.08-.008.015a1.404 1.404 0 0 0 .06 1.395c.13.207.312.377.527.495.214.117.455.179.7.18h9.48c.245-.001.486-.063.7-.18a1.43 1.43 0 0 0 .527-.495 1.408 1.408 0 0 0 .06-1.395l-.008-.014-1.164-2.081.001-.03v-1.5a.75.75 0 0 0-1.5 0v.75H2.986V4.752Z" clip-rule="evenodd"></path></g></svg>