<svg xmlns="http://www.w3.org/2000/svg" fill="none" viewBox="0 0 14 14"><g id="orientation-landscape--photos-photo-orientation-landscape-picture-photography-camera-pictures-image"><path id="Subtract" fill="#3e3e3e" fill-rule="evenodd" d="M14 11a1.5 1.5 0 0 1-1.5 1.5h-11A1.5 1.5 0 0 1 0 11V3a1.5 1.5 0 0 1 1.5-1.5h11A1.5 1.5 0 0 1 14 3v8Zm-3.031-6.033a1.467 1.467 0 1 1-2.934 0 1.467 1.467 0 0 1 2.934 0ZM1.958 6.714A6.598 6.598 0 0 1 8.452 11.5H1.5A.5.5 0 0 1 1 11V6.775c.313-.042.629-.062.945-.061h.013ZM9.486 11.5H12.5a.5.5 0 0 0 .5-.5V9.309a7.128 7.128 0 0 0-1.944-.27h-.002a7.216 7.216 0 0 0-2.405.408c.376.636.66 1.327.837 2.053Z" clip-rule="evenodd"></path></g></svg>