<svg xmlns="http://www.w3.org/2000/svg" fill="none" viewBox="0 0 24 24" id="Discord-Logo-1--Streamline-Logos">
  <desc>
    Discord Logo 1 Streamline Icon: https://streamlinehq.com
  </desc>
  <path fill="#000000" fill-rule="evenodd" d="M2 2.5A1.5 1.5 0 0 1 3.5 1h16A1.5 1.5 0 0 1 21 2.5v20.707l-4 -4V20.5H3.5A1.5 1.5 0 0 1 2 19V2.5Zm4.905 5.451c-1.008 1.8 -1.381 3.515 -1.404 5.82a0.484 0.484 0 0 0 0.174 0.377c0.946 0.786 1.675 1.109 3.018 1.31a0.49 0.49 0 0 0 0.48 -0.216l0.625 -0.938a0.522 0.522 0 0 1 0.555 -0.213c0.405 0.096 1.084 0.234 1.647 0.234s1.242 -0.138 1.647 -0.234a0.522 0.522 0 0 1 0.555 0.213l0.626 0.938a0.49 0.49 0 0 0 0.48 0.215c1.342 -0.2 2.071 -0.523 3.017 -1.309a0.484 0.484 0 0 0 0.174 -0.377c-0.023 -2.305 -0.396 -4.02 -1.404 -5.82a0.433 0.433 0 0 0 -0.098 -0.12 6.428 6.428 0 0 0 -2.646 -1.285 0.46 0.46 0 0 0 -0.506 0.258 0.497 0.497 0 0 1 -0.5 0.275A14.55 14.55 0 0 0 12 7c-0.396 0 -0.912 0.035 -1.346 0.079a0.497 0.497 0 0 1 -0.498 -0.275 0.46 0.46 0 0 0 -0.507 -0.258 6.427 6.427 0 0 0 -2.646 1.285 0.43 0.43 0 0 0 -0.098 0.12ZM9 11a1 1 0 1 0 2 0 1 1 0 0 0 -2 0Zm5 1a1 1 0 1 1 0 -2 1 1 0 0 1 0 2Z" clip-rule="evenodd" stroke-width="1"></path>
</svg>