<svg xmlns="http://www.w3.org/2000/svg" fill="none" viewBox="0 0 24 24" id="Gabbr-Logo--Streamline-Logos">
  <desc>
    Gabbr Logo Streamline Icon: https://streamlinehq.com
  </desc>
  <path fill="#000000" fill-rule="evenodd" d="M13 1C7.477 1 3 5.477 3 11s4.477 10 10 10a9.99 9.99 0 0 0 3.202 -0.524l4.367 2.409 -0.377 -4.937A9.969 9.969 0 0 0 23 11c0 -5.523 -4.477 -10 -10 -10Zm3.08 4.918 1.058 -1.1 -1.08 -1.04 -1.072 1.113a4.192 4.192 0 0 0 -2.236 -0.641c-2.152 0 -4 1.624 -4 3.75 0 1.198 0.587 2.237 1.485 2.915 -0.63 0.332 -1.282 0.904 -1.282 1.872 0 0.507 0.197 0.95 0.6 1.244 0.353 0.258 0.785 0.343 1.152 0.374 0.563 0.048 1.275 -0.017 1.931 -0.077 0.185 -0.017 0.365 -0.034 0.536 -0.047 0.867 -0.068 1.562 -0.07 2.028 0.1 0.21 0.077 0.333 0.175 0.412 0.289 0.08 0.115 0.16 0.317 0.16 0.682 0 0.615 -0.213 0.997 -0.518 1.254 -0.33 0.28 -0.836 0.47 -1.484 0.536 -1.31 0.136 -2.895 -0.264 -3.862 -0.89l-0.815 1.26c1.26 0.815 3.187 1.292 4.83 1.123 0.83 -0.086 1.662 -0.344 2.3 -0.884 0.664 -0.562 1.05 -1.373 1.05 -2.4 0 -0.588 -0.133 -1.108 -0.426 -1.533 -0.295 -0.427 -0.703 -0.69 -1.133 -0.846 -0.813 -0.296 -1.822 -0.252 -2.66 -0.186 -0.231 0.018 -0.451 0.038 -0.66 0.056 -0.624 0.057 -1.144 0.104 -1.562 0.069 -0.859 -0.073 0.09 -0.69 0.462 -0.825 0.483 -0.174 0.976 -0.25 1.327 -0.305l0.199 -0.032c2.121 -0.034 3.93 -1.646 3.93 -3.749 0 -0.78 -0.249 -1.493 -0.67 -2.082Zm-3.33 -0.168c-1.438 0 -2.5 1.063 -2.5 2.25s1.062 2.25 2.5 2.25 2.5 -1.063 2.5 -2.25 -1.062 -2.25 -2.5 -2.25ZM7 21.88c0.574 0 1.13 -0.08 1.656 -0.229a11.519 11.519 0 0 1 -6.955 -8.5A5.875 5.875 0 0 0 1 15.941a5.89 5.89 0 0 0 1.685 4.127L2.459 23l2.62 -1.43A6.07 6.07 0 0 0 7 21.88Z" clip-rule="evenodd" stroke-width="1"></path>
</svg>