<svg xmlns="http://www.w3.org/2000/svg" fill="none" viewBox="0 0 24 24" id="Google-Buzz-Logo--Streamline-Logos">
  <desc>
    Google Buzz Logo Streamline Icon: https://streamlinehq.com
  </desc>
  <path fill="#000000" fill-rule="evenodd" d="M19.047 17.527C17.14 18.759 14.681 19.5 12 19.5c-0.76 0 -1.502 -0.06 -2.22 -0.173 -3.044 2.155 -5.795 1.843 -7.004 1.238 1.21 -0.956 1.932 -2.302 1.932 -3.2a26.078 26.078 0 0 1 -0.017 -0.013l7.544 -6.784 6.812 6.959Zm1.209 -0.91 -6.905 -7.052 5.676 -5.105C21.454 6.02 23 8.37 23 11c0 2.153 -1.036 4.12 -2.744 5.617Zm-2.624 -12.92L8.733 11.7 3.124 5.978C5.126 3.869 8.356 2.5 12 2.5c2.058 0 3.985 0.437 5.632 1.197ZM2.183 7.161C1.427 8.314 1 9.618 1 11c0 2.051 0.94 3.932 2.506 5.4l4.11 -3.696L2.184 7.16Z" clip-rule="evenodd" stroke-width="1"></path>
</svg>