<svg xmlns="http://www.w3.org/2000/svg" fill="none" viewBox="0 0 24 24" id="Icq-Logo-1--Streamline-Logos">
  <desc>
    Icq Logo 1 Streamline Icon: https://streamlinehq.com
  </desc>
  <path fill="#000000" fill-rule="evenodd" d="M13.734 9.25a3.231 3.231 0 0 0 -1.03 -0.424 58.643 58.643 0 0 1 -0.024 -0.428c-0.061 -1.214 -0.077 -2.393 0.049 -3.403 0.127 -1.03 0.388 -1.76 0.776 -2.184 0.336 -0.367 0.864 -0.61 1.854 -0.433 0.65 0.116 1.043 0.42 1.257 0.81 0.223 0.41 0.308 1.025 0.106 1.851 -0.228 0.93 -0.805 2.052 -1.81 3.266 -0.403 0.301 -0.798 0.62 -1.178 0.946Zm-3.673 -3.99c0.368 1.082 0.648 2.383 0.848 3.678a3.231 3.231 0 0 0 -0.43 0.189c-0.838 -0.999 -1.627 -2.02 -2.2 -2.97 -0.529 -0.876 -0.816 -1.6 -0.853 -2.14 -0.017 -0.256 0.024 -0.441 0.098 -0.581 0.071 -0.137 0.2 -0.283 0.45 -0.42 0.236 -0.129 0.399 -0.14 0.512 -0.122 0.12 0.02 0.272 0.089 0.456 0.265 0.389 0.374 0.776 1.09 1.119 2.101ZM6.465 8.438c0.951 0.438 1.926 1.102 2.79 1.822a3.23 3.23 0 0 0 -0.443 1.106l-0.321 0.014c-1.248 0.052 -2.48 0.078 -3.53 -0.017 -1.086 -0.098 -1.82 -0.313 -2.2 -0.619a0.738 0.738 0 0 1 -0.284 -0.438c-0.038 -0.18 -0.03 -0.46 0.122 -0.881 0.351 -0.976 0.877 -1.349 1.438 -1.464 0.631 -0.13 1.465 0.033 2.428 0.477Zm-0.509 5.027c0.879 -0.238 1.905 -0.394 2.94 -0.501 0.066 0.213 0.153 0.417 0.26 0.61 -0.772 0.607 -1.597 1.175 -2.384 1.6 -0.856 0.464 -1.58 0.711 -2.096 0.726 -0.246 0.008 -0.404 -0.04 -0.507 -0.1 -0.095 -0.057 -0.199 -0.16 -0.284 -0.377 -0.11 -0.282 -0.116 -0.48 -0.086 -0.622a0.875 0.875 0 0 1 0.263 -0.443c0.34 -0.338 0.979 -0.646 1.894 -0.893Zm1.788 4.291c0.617 -1.013 1.52 -2.074 2.463 -3.045 0.37 0.245 0.792 0.416 1.246 0.493 0.016 0.232 0.033 0.466 0.053 0.7 0.011 1.459 -0.102 2.742 -0.384 3.729 -0.254 0.89 -0.611 1.417 -1.012 1.669 -0.369 0.232 -0.931 0.33 -1.853 -0.007 -0.496 -0.18 -0.8 -0.394 -0.981 -0.598a1.153 1.153 0 0 1 -0.294 -0.674c-0.057 -0.557 0.19 -1.327 0.762 -2.267Zm5.261 -1.92a31.23 31.23 0 0 0 -0.016 -0.74c0.175 -0.055 0.344 -0.125 0.505 -0.209 0.642 0.755 1.275 1.54 1.768 2.29 0.562 0.855 0.869 1.553 0.898 2.048 0.013 0.223 -0.032 0.369 -0.105 0.476 -0.076 0.112 -0.233 0.256 -0.57 0.382 -0.383 0.144 -0.657 0.166 -0.852 0.137a0.876 0.876 0 0 1 -0.49 -0.244c-0.33 -0.31 -0.611 -0.92 -0.817 -1.843 -0.154 -0.687 -0.25 -1.473 -0.32 -2.297Zm5.11 0.503c-1.124 -0.502 -2.36 -1.381 -3.477 -2.44 0.248 -0.344 0.43 -0.738 0.528 -1.164l0.35 -0.019 0.067 -0.003c1.201 -0.067 2.33 -0.13 3.299 -0.054 1.007 0.08 1.666 0.299 2.033 0.654 0.317 0.307 0.563 0.867 0.347 2.053 -0.167 0.918 -0.557 1.24 -0.959 1.356 -0.49 0.141 -1.236 0.043 -2.189 -0.383Zm0.417 -5.94c-1.026 0.33 -2.229 0.566 -3.406 0.708a3.222 3.222 0 0 0 -0.226 -0.577c0.381 -0.376 0.73 -0.751 1.047 -1.125 0.492 -0.36 0.99 -0.687 1.479 -0.957 0.886 -0.491 1.657 -0.752 2.248 -0.76 0.283 -0.004 0.504 0.05 0.679 0.147 0.171 0.095 0.34 0.253 0.489 0.524 0.122 0.224 0.13 0.377 0.11 0.484 -0.023 0.117 -0.096 0.27 -0.282 0.457 -0.391 0.39 -1.128 0.774 -2.138 1.099ZM6.458 16.984c-0.593 0.24 -1.186 0.4 -1.739 0.416 -0.449 0.013 -0.91 -0.068 -1.32 -0.313 -0.418 -0.25 -0.722 -0.635 -0.91 -1.117 -0.195 -0.497 -0.259 -0.994 -0.159 -1.473 0.1 -0.48 0.349 -0.88 0.674 -1.203 0.222 -0.22 0.486 -0.412 0.777 -0.58 -0.748 -0.143 -1.444 -0.386 -1.96 -0.802a2.235 2.235 0 0 1 -0.812 -1.298c-0.112 -0.531 -0.035 -1.102 0.178 -1.697 0.497 -1.381 1.39 -2.187 2.548 -2.425 1.084 -0.223 2.263 0.081 3.343 0.577a14.113 14.113 0 0 1 -0.084 -0.138C6.432 6 5.99 5.023 5.93 4.117c-0.032 -0.467 0.036 -0.94 0.264 -1.376 0.23 -0.439 0.592 -0.785 1.06 -1.04 0.475 -0.26 0.975 -0.37 1.476 -0.287 0.495 0.082 0.911 0.337 1.25 0.663 0.561 0.539 0.994 1.347 1.334 2.236 0.166 -0.95 0.482 -1.855 1.084 -2.514C13.158 0.968 14.25 0.656 15.623 0.9c1.027 0.184 1.846 0.72 2.31 1.568 0.453 0.83 0.509 1.855 0.246 2.927 -0.097 0.397 -0.24 0.808 -0.428 1.23 0.64 -0.262 1.287 -0.43 1.902 -0.438 0.49 -0.007 0.98 0.088 1.425 0.334 0.45 0.248 0.812 0.626 1.08 1.118 0.26 0.477 0.362 0.98 0.267 1.483 -0.093 0.492 -0.361 0.904 -0.695 1.237 -0.39 0.39 -0.913 0.717 -1.502 0.99 0.652 0.16 1.26 0.43 1.73 0.886 0.81 0.785 1.046 1.937 0.78 3.399 -0.242 1.325 -0.935 2.217 -2.02 2.528 -0.996 0.287 -2.142 0.025 -3.216 -0.455a9.652 9.652 0 0 1 -0.29 -0.135c0.245 0.523 0.415 1.053 0.445 1.563 0.029 0.482 -0.065 0.973 -0.362 1.41 -0.294 0.431 -0.738 0.737 -1.282 0.941 -0.554 0.208 -1.089 0.291 -1.595 0.218a2.374 2.374 0 0 1 -1.303 -0.636 3.304 3.304 0 0 1 -0.615 -0.809c-0.306 0.962 -0.798 1.812 -1.591 2.311 -0.884 0.557 -1.966 0.57 -3.166 0.134 -0.661 -0.241 -1.199 -0.574 -1.588 -1.011a2.652 2.652 0 0 1 -0.665 -1.517c-0.109 -1.056 0.351 -2.178 0.968 -3.193ZM12 10.25a1.75 1.75 0 1 0 0 3.5 1.75 1.75 0 0 0 0 -3.5Z" clip-rule="evenodd" stroke-width="1"></path>
</svg>