<svg xmlns="http://www.w3.org/2000/svg" fill="none" viewBox="0 0 24 24" id="Line-App-Logo--Streamline-Logos">
  <desc>
    Line App Logo Streamline Icon: https://streamlinehq.com
  </desc>
  <path fill="#000000" fill-rule="evenodd" d="M12 2C6.029 2 1 5.936 1 11c0 4.633 4.22 8.327 9.495 8.917a0.486 0.486 0 0 1 0.251 0.096c0.05 0.04 0.069 0.08 0.073 0.125 0.07 0.705 -0.084 1.652 -0.287 2.185A0.5 0.5 0 0 0 11 23c0.141 0 0.3 -0.042 0.433 -0.082 0.148 -0.046 0.325 -0.111 0.523 -0.192a17.89 17.89 0 0 0 1.473 -0.7 29.156 29.156 0 0 0 3.979 -2.529c1.4 -1.063 2.79 -2.338 3.832 -3.762C22.28 14.312 23 12.709 23 11c0 -5.064 -5.029 -9 -11 -9ZM4.25 8.5h1.5v3.75H8v1.5H4.25V8.5Zm4.5 0v5.25h1.5V8.5h-1.5Zm2 0h1.7l1.3 2.438V8.5h1.5v5.25h-1.7l-1.3 -2.438v2.438h-1.5V8.5Zm5 0H19V10h-1.75v0.375H19v1.5h-1.75v0.375H19v1.5h-3.25V8.5Z" clip-rule="evenodd" stroke-width="1"></path>
</svg>