<svg xmlns="http://www.w3.org/2000/svg" fill="none" viewBox="0 0 24 24" id="Qq-Logo--Streamline-Logos">
  <desc>
    Qq Logo Streamline Icon: https://streamlinehq.com
  </desc>
  <path fill="#000000" fill-rule="evenodd" d="M18.696 8.148c-0.028 -0.33 -0.055 -0.666 -0.055 -0.733A6.558 6.558 0 0 0 11.945 1a6.559 6.559 0 0 0 -6.694 6.414c0 0.064 -0.023 0.36 -0.048 0.667 0.46 0.306 1.334 0.786 2.435 1.22 1.324 0.524 2.892 0.948 4.362 0.948 1.47 0 3.038 -0.424 4.362 -0.947 1.025 -0.405 1.853 -0.85 2.334 -1.155Zm0.523 1.438c-0.588 0.347 -1.393 0.75 -2.306 1.111 -1.418 0.56 -3.183 1.053 -4.913 1.053 -0.25 0 -0.5 -0.01 -0.75 -0.03v1.78a0.75 0.75 0 0 1 -0.75 0.75H8a0.75 0.75 0 0 1 -0.75 -0.75v-2.739l-0.163 -0.063a16.678 16.678 0 0 1 -2.384 -1.159c-1.04 1.674 -3.317 5.642 -2.386 6.829 0.318 0.405 1.034 0.191 1.76 -0.191a0.239 0.239 0 0 1 0.346 0.169 7.15 7.15 0 0 0 1.631 3.392l0.022 0.03c0.524 0.5 1.41 1.086 2.386 1.587 0.975 0.501 1.984 0.888 2.742 1.022l0.036 0a7.924 7.924 0 0 0 1.42 0 0.248 0.248 0 0 1 0.033 0c0.758 -0.134 1.766 -0.521 2.74 -1.022 0.99 -0.508 1.887 -1.104 2.409 -1.608l0.001 -0.002 0.003 -0.003a7.147 7.147 0 0 0 1.632 -3.399 0.239 0.239 0 0 1 0.347 -0.17c0.726 0.383 1.443 0.598 1.762 0.192 0.901 -1.16 -1.321 -5.077 -2.368 -6.779Zm-0.602 10.778a0.503 0.503 0 0 1 -0.08 0.101c-0.62 0.6 -1.614 1.25 -2.647 1.78 -0.476 0.244 -0.974 0.47 -1.46 0.658a6.8 6.8 0 0 0 1.34 0.094c2.11 0 3.826 -0.706 3.826 -1.578 0 -0.406 -0.37 -0.775 -0.979 -1.055ZM4.304 21.42c0 -0.405 0.37 -0.773 0.975 -1.053a0.498 0.498 0 0 0 0.08 0.1c0.62 0.6 1.614 1.248 2.646 1.779 0.477 0.245 0.975 0.47 1.462 0.658a6.8 6.8 0 0 1 -1.338 0.094c-2.114 0 -3.825 -0.706 -3.825 -1.578ZM12 9c0.91 0 1.972 -0.287 2.796 -0.644 0.337 -0.146 0.342 -0.575 0.008 -0.727C14.175 7.345 13.174 7 12 7s-2.176 0.345 -2.803 0.63c-0.335 0.151 -0.33 0.58 0.007 0.726C10.028 8.713 11.091 9 12 9Zm-1.25 -5a0.75 0.75 0 0 0 -1.5 0v1a0.75 0.75 0 0 0 1.5 0V4Zm2 1a0.75 0.75 0 0 1 0.75 -0.75h1a0.75 0.75 0 0 1 0 1.5h-1a0.75 0.75 0 0 1 -0.75 -0.75Z" clip-rule="evenodd" stroke-width="1"></path>
</svg>