<svg xmlns="http://www.w3.org/2000/svg" fill="none" viewBox="0 0 24 24" id="Slack-Logo--Streamline-Logos">
  <desc>
    Slack Logo Streamline Icon: https://streamlinehq.com
  </desc>
  <path fill="#000000" fill-rule="evenodd" d="M11.5 5.5V3.25A2.25 2.25 0 1 0 9.25 5.5h2.25Zm-8 1a2.5 2.5 0 0 0 0 5H9a2.5 2.5 0 0 0 0 -5H3.5Zm11.5 6a2.5 2.5 0 0 0 0 5h5.5a2.5 2.5 0 0 0 0 -5H15Zm-2.5 6h2.25a2.25 2.25 0 1 1 -2.25 2.25V18.5Zm6 -7h2.25a2.25 2.25 0 1 0 -2.25 -2.25v2.25Zm-15.25 1H5.5v2.25a2.25 2.25 0 1 1 -2.25 -2.25ZM17.5 9V3.5a2.5 2.5 0 0 0 -5 0V9a2.5 2.5 0 0 0 5 0Zm-6 6v5.5a2.5 2.5 0 0 1 -5 0V15a2.5 2.5 0 0 1 5 0Z" clip-rule="evenodd" stroke-width="1"></path>
</svg>