<svg xmlns="http://www.w3.org/2000/svg" fill="none" viewBox="0 0 24 24" id="Whatsapp-Logo--Streamline-Logos">
  <desc>
    Whatsapp Logo Streamline Icon: https://streamlinehq.com
  </desc>
  <path fill="#000000" fill-rule="evenodd" d="M1 12C1 5.925 5.925 1 12 1s11 4.925 11 11 -4.925 11 -11 11c-1.936 0 -3.757 -0.5 -5.338 -1.38L1.4 22.6l0.98 -5.262A10.952 10.952 0 0 1 1 12Zm6.147 -5.353c0.654 -0.655 1.527 -0.713 1.998 -0.69 0.435 0.02 0.776 0.272 0.984 0.564l0.952 1.334a1.5 1.5 0 0 1 -0.16 1.932l-0.674 0.673c0.223 0.544 0.67 1.42 1.272 2.021s1.477 1.05 2.02 1.273l0.675 -0.674a1.5 1.5 0 0 1 1.931 -0.16l1.335 0.951c0.291 0.209 0.544 0.55 0.564 0.984 0.022 0.471 -0.036 1.344 -0.69 1.999 -1.067 1.066 -2.741 1.077 -4.264 0.659 -1.55 -0.426 -3.13 -1.34 -4.197 -2.406 -1.065 -1.066 -1.98 -2.646 -2.406 -4.197 -0.418 -1.523 -0.407 -3.197 0.66 -4.263Z" clip-rule="evenodd" stroke-width="1"></path>
</svg>