<svg xmlns="http://www.w3.org/2000/svg" fill="none" viewBox="0 0 24 24" id="Horizontal-Slider-2--Streamline-Sharp">
  <desc>
    Horizontal Slider 2 Streamline Icon: https://streamlinehq.com
  </desc>
  <g id="horizontal-slider-2--adjustment-adjust-controls-fader-horizontal-settings-slider">
    <path id="Vector 2003" stroke="#4147d5" d="M1 12h6.5" stroke-width="1"></path>
    <path id="Vector 2004" stroke="#4147d5" d="M16.5 12H23" stroke-width="1"></path>
    <path id="Ellipse 611" fill="#d7e0ff" d="M10 12a2 2 0 1 0 4 0 2 2 0 1 0 -4 0" stroke-width="1"></path>
    <path id="Vector 2006" stroke="#4147d5" d="M8.5 4H23" stroke-width="1"></path>
    <path id="Ellipse 612" fill="#d7e0ff" d="M2 4a2 2 0 1 0 4 0 2 2 0 1 0 -4 0" stroke-width="1"></path>
    <path id="Vector 2007" stroke="#4147d5" d="M1 20h14.5" stroke-width="1"></path>
    <path id="Ellipse 613" fill="#d7e0ff" d="M18 20a2 2 0 1 0 4 0 2 2 0 1 0 -4 0" stroke-width="1"></path>
    <path id="Ellipse 614" stroke="#4147d5" d="M10 12a2 2 0 1 0 4 0 2 2 0 1 0 -4 0" stroke-width="1"></path>
    <path id="Ellipse 615" stroke="#4147d5" d="M2 4a2 2 0 1 0 4 0 2 2 0 1 0 -4 0" stroke-width="1"></path>
    <path id="Ellipse 616" stroke="#4147d5" d="M18 20a2 2 0 1 0 4 0 2 2 0 1 0 -4 0" stroke-width="1"></path>
  </g>
</svg>