<svg xmlns="http://www.w3.org/2000/svg" fill="none" viewBox="0 0 24 24" id="Round-Anchor-Point--Streamline-Sharp">
  <desc>
    Round Anchor Point Streamline Icon: https://streamlinehq.com
  </desc>
  <g id="round-anchor-point">
    <path id="Ellipse 543" stroke="#4147d5" d="M5 14.5c0 -3.171 2.10851 -5.84953 5 -6.71008" stroke-width="1"></path>
    <path id="Ellipse 544" stroke="#4147d5" d="M19 14.5002c0 -3.1711 -2.1085 -5.84961 -5 -6.71016" stroke-width="1"></path>
    <path id="Rectangle 792" fill="#d7e0ff" d="M10 5.5h4v4h-4v-4Z" stroke-width="1"></path>
    <path id="Rectangle 793" stroke="#4147d5" d="M10 5.5h4v4h-4v-4Z" stroke-width="1"></path>
    <path id="Ellipse 523" fill="#ffffff" d="M17 16.5a2 2 0 1 0 4 0 2 2 0 1 0 -4 0" stroke-width="1"></path>
    <path id="Ellipse 524" fill="#ffffff" d="M3 16.5a2 2 0 1 0 4 0 2 2 0 1 0 -4 0" stroke-width="1"></path>
    <path id="Ellipse 545" stroke="#4147d5" d="M17 16.5a2 2 0 1 0 4 0 2 2 0 1 0 -4 0" stroke-width="1"></path>
    <path id="Ellipse 546" stroke="#4147d5" d="M3 16.5a2 2 0 1 0 4 0 2 2 0 1 0 -4 0" stroke-width="1"></path>
    <path id="Vector 1780" stroke="#4147d5" d="M10 7.5H1" stroke-width="1"></path>
    <path id="Vector 1781" stroke="#4147d5" d="M14 7.5h9" stroke-width="1"></path>
  </g>
</svg>