<svg xmlns="http://www.w3.org/2000/svg" fill="none" viewBox="0 0 14 14"><g id="tickets--hobby-ticket-event-entertainment-stub-theater-entertainment-culture"><path id="Union" fill="#37d7ff" d="M13.016 3.494c-.264-.108-.562.035-.747.253a1.443 1.443 0 0 1-2.536-1.066c.025-.275-.072-.575-.322-.692l-.434-.203A.973.973 0 0 0 7.71 2.3L4.517 9.673l-.48 1.093a.973.973 0 0 0 .513 1.268l4.438 1.891a.973.973 0 0 0 1.269-.514l3.672-8.499a.973.973 0 0 0-.47-1.235l-.443-.183Z"></path><path id="Subtract" fill="#3e3e3e" fill-rule="evenodd" d="M1.695 1.994c-.187-.216-.484-.36-.748-.25l-.42.172A.948.948 0 0 0 .069 3.12l2.956 6.84.347-.787L6.56 1.806v-.002a2.22 2.22 0 0 1 .053-.113L6.13.574A.948.948 0 0 0 4.895.073l-.411.193c-.25.117-.347.417-.325.692a1.4 1.4 0 0 1-.399 1.1 1.406 1.406 0 0 1-2.065-.064Z" clip-rule="evenodd"></path></g></svg>