<svg xmlns="http://www.w3.org/2000/svg" fill="none" viewBox="0 0 24 24" id="Cnn-Logo--Streamline-Logos">
  <desc>
    Cnn Logo Streamline Icon: https://streamlinehq.com
  </desc>
  <path fill="#000000" fill-rule="evenodd" d="M6 6.75a5.25 5.25 0 0 0 0 10.5h4.5a0.75 0.75 0 0 0 0.75 -0.75v-3.523l2.24 3.359a2.053 2.053 0 0 0 3.76 -1.139v-2.22l2.24 3.359a2.053 2.053 0 0 0 3.76 -1.139V7h-1.5v8.197a0.553 0.553 0 0 1 -1.013 0.307l-3.613 -5.42a0.75 0.75 0 0 0 -1.374 0.416v4.697a0.553 0.553 0 0 1 -1.013 0.307l-3.613 -5.42a0.75 0.75 0 0 0 -1.374 0.416v5.25H6a3.75 3.75 0 1 1 0 -7.5h1v-1.5H6Zm3.25 2.632a1.132 1.132 0 0 1 2.127 -0.542l2.465 4.52A0.75 0.75 0 0 0 15.25 13V9.382a1.132 1.132 0 0 1 2.127 -0.542l2.465 4.52A0.75 0.75 0 0 0 21.25 13V7h-1.5v3.059l-1.056 -1.937a2.632 2.632 0 0 0 -4.944 1.26v0.677l-1.056 -1.937a2.632 2.632 0 0 0 -4.944 1.26v4.368H6a1.75 1.75 0 1 1 0 -3.5h1v-1.5H6a3.25 3.25 0 0 0 0 6.5h2.5a0.75 0.75 0 0 0 0.75 -0.75V9.382Z" clip-rule="evenodd" stroke-width="1"></path>
</svg>