<svg xmlns="http://www.w3.org/2000/svg" fill="none" viewBox="0 0 24 24" id="Wordpress-Logo-2--Streamline-Logos">
  <desc>
    Wordpress Logo 2 Streamline Icon: https://streamlinehq.com
  </desc>
  <path fill="#000000" fill-rule="evenodd" d="M4.136 6.235A9.736 9.736 0 0 1 12 2.25a9.717 9.717 0 0 1 6.696 2.663c-0.397 0.04 -0.752 0.157 -1.056 0.352a2.13 2.13 0 0 0 -0.797 0.936c-0.308 0.689 -0.267 1.486 -0.043 2.069 0.199 0.515 0.403 0.894 0.593 1.211 0.076 0.128 0.14 0.232 0.2 0.327 0.099 0.159 0.18 0.288 0.261 0.446 0.207 0.394 0.385 0.905 0.396 2.126l-1.265 3.793 -2.93 -8.423h0.445a0.75 0.75 0 0 0 0 -1.5h-1.489l-0.011 0h-2.5l-0.011 0H9.5a0.75 0.75 0 0 0 0 1.5h0.482l1.386 3.652 -1.766 5.058 -3.04 -8.71H7a0.75 0.75 0 0 0 0 -1.5H5.648a0.75 0.75 0 0 0 -0.148 -0.015H4.136ZM2.788 8.8A9.736 9.736 0 0 0 2.25 12a9.746 9.746 0 0 0 4.914 8.468L2.788 8.798ZM9.46 21.416a9.75 9.75 0 0 0 2.539 0.334 9.74 9.74 0 0 0 3.102 -0.504l-2.907 -7.663 -2.734 7.833Zm7.748 -1.173A9.743 9.743 0 0 0 21.75 12a9.727 9.727 0 0 0 -0.636 -3.47L17.21 20.242ZM12 0.75C5.787 0.75 0.75 5.787 0.75 12S5.787 23.25 12 23.25 23.25 18.213 23.25 12 18.213 0.75 12 0.75Z" clip-rule="evenodd" stroke-width="1"></path>
</svg>