<svg xmlns="http://www.w3.org/2000/svg" fill="none" viewBox="0 0 14 14" id="Amazon-Logo--Streamline-Core-Neon">
  <desc>
    Amazon Logo Streamline Icon: https://streamlinehq.com
  </desc>
  <g id="amazon">
    <path id="Ellipse 49" stroke="#c71dff" stroke-linecap="round" stroke-linejoin="round" d="M8.3995 6.38487c0 1.08312 -1.09756 1.96117 -2.45146 1.96117 -1.3539 0 -2.45146 -0.87805 -2.45146 -1.96117s1.09756 -1.96116 2.45146 -1.96116H8.3995" stroke-width="1"></path>
    <path id="Ellipse 50" stroke="#c71dff" stroke-linecap="round" stroke-linejoin="round" d="M3.49658 2.46117C3.49658 1.37804 4.59414 0.5 5.94804 0.5c1.3539 0 2.45146 0.87804 2.45146 1.96117v4.16179c0.08512 0.41683 0.43401 1.29336 1.14858 1.46486" stroke-width="1"></path>
    <path id="Vector 554" stroke="#000cfe" stroke-linecap="round" stroke-linejoin="round" d="M0.5 10.5391c1.17563 1.0662 3.69636 2.0667 6.83494 1.9136 3.13856 -0.1532 5.36306 -1.3854 6.08296 -1.9823" stroke-width="1"></path>
    <path id="Vector 555" stroke="#000cfe" stroke-linecap="round" stroke-linejoin="round" d="M10.5498 9.95323c1.2194 -0.43878 2.8776 0.34187 2.8776 0.34187S13.3446 12.126 12.3878 13" stroke-width="1"></path>
  </g>
</svg>