<svg xmlns="http://www.w3.org/2000/svg" fill="none" viewBox="0 0 14 14" id="Apple-Logo--Streamline-Core-Neon">
  <desc>
    Apple Logo Streamline Icon: https://streamlinehq.com
  </desc>
  <g id="apple--os-system-apple">
    <path id="Vector" stroke="#c71dff" stroke-linecap="round" stroke-linejoin="round" d="M10.2143 7.42646c0.0009 -0.53331 0.1715 -1.05248 0.4871 -1.48237 0.3157 -0.42988 0.7599 -0.74818 1.2684 -0.90881 -0.197 -0.36292 -0.4683 -0.6802 -0.7963 -0.93112 -0.328 -0.25092 -0.7052 -0.42983 -1.107 -0.52504 -0.40183 -0.09522 -0.81922 -0.10461 -1.22491 -0.02754 -0.40569 0.07706 -0.79056 0.23884 -1.12948 0.47476 -0.15338 0.08855 -0.32736 0.13517 -0.50447 0.13517 -0.1771 0 -0.35109 -0.04662 -0.50447 -0.13517 -0.36684 -0.23268 -0.77826 -0.38612 -1.20788 -0.45049 -0.42961 -0.06437 -0.86794 -0.03824 -1.28686 0.0767 -0.41893 0.11495 -0.80921 0.31617 -1.14582 0.59077 -0.33661 0.27461 -0.61212 0.61652 -0.80885 1.00383 -0.56205 1.0351 -0.75424 2.23095 -0.54483 3.39003 0.17003 1.59192 0.85764 3.08412 1.95734 4.24762 0.36252 0.3439 0.83538 0.5848 1.33429 0.6125 0.49892 0.0277 0.99146 -0.1595 1.38984 -0.4612 0.22925 -0.1695 0.50687 -0.261 0.79202 -0.261 0.28515 0 0.56277 0.0915 0.79201 0.261 0.38229 0.3089 0.86165 0.4723 1.35298 0.4612 0.49132 -0.0111 0.96279 -0.1959 1.33079 -0.5217 0.8306 -0.8385 1.4227 -1.8833 1.7152 -3.0268 -0.606 -0.08378 -1.1604 -0.38669 -1.5582 -0.85146 -0.3978 -0.46476 -0.6116 -1.05919 -0.6009 -1.67088Z" stroke-width="1"></path>
    <path id="Vector_2" stroke="#000cfe" stroke-linecap="round" stroke-linejoin="round" d="M8.18408 1.99798 9.68206 0.5" stroke-width="1"></path>
  </g>
</svg>