<svg xmlns="http://www.w3.org/2000/svg" fill="none" viewBox="0 0 14 14" id="Battery-Empty-2--Streamline-Core-Neon">
  <desc>
    Battery Empty 2 Streamline Icon: https://streamlinehq.com
  </desc>
  <g id="battery-empty-2--phone-mobile-charge-device-electricity-empty-power-battery">
    <path id="Vector" stroke="#c71dff" stroke-linecap="round" stroke-linejoin="round" d="M2.5 2.5h8c0.2652 0 0.5196 0.10536 0.7071 0.29289 0.1875 0.18754 0.2929 0.44189 0.2929 0.70711v1.25H13c0.1326 0 0.2598 0.05268 0.3536 0.14645 0.0937 0.09376 0.1464 0.22094 0.1464 0.35355v3.5c0 0.13261 -0.0527 0.25979 -0.1464 0.35355 -0.0938 0.09377 -0.221 0.14645 -0.3536 0.14645h-1.5v1.25c0 0.2652 -0.1054 0.5196 -0.2929 0.7071" stroke-width="1"></path>
    <path id="Vector_2" stroke="#c71dff" stroke-linecap="round" stroke-linejoin="round" d="M0.5 3.5v7c0 0.2652 0.105357 0.5196 0.292893 0.7071 0.187537 0.1875 0.441887 0.2929 0.707107 0.2929h7.25" stroke-width="1"></path>
    <path id="Vector 1859" stroke="#000cfe" stroke-linecap="round" stroke-linejoin="round" d="m0.5 0.5 13 13" stroke-width="1"></path>
  </g>
</svg>