<svg xmlns="http://www.w3.org/2000/svg" fill="none" viewBox="0 0 14 14" id="Database-Refresh--Streamline-Core-Neon">
  <desc>
    Database Refresh Streamline Icon: https://streamlinehq.com
  </desc>
  <g id="database-refresh--raid-storage-code-disk-programming-database-array-hard-disc-refresh">
    <path id="Vector" stroke="#c71dff" stroke-linecap="round" stroke-linejoin="round" d="M0.5 2.62v6.75999c0 0.98331 1.73693 1.81031 4.09273 2.05001" stroke-width="1"></path>
    <path id="Vector_2" stroke="#c71dff" stroke-linecap="round" stroke-linejoin="round" d="M11.5 6.75V2.62" stroke-width="1"></path>
    <path id="Vector_3" stroke="#c71dff" stroke-linecap="round" stroke-linejoin="round" d="M6 8.12C2.96243 8.12 0.5 7.17084 0.5 6" stroke-width="1"></path>
    <path id="Vector_4" stroke="#000cfe" stroke-linecap="round" stroke-linejoin="round" d="M6 4.74c3.03757 0 5.5 -0.94916 5.5 -2.12S9.03757 0.5 6 0.5 0.5 1.44916 0.5 2.62 2.96243 4.74 6 4.74Z" stroke-width="1"></path>
    <path id="Ellipse 1800" stroke="#000cfe" stroke-linecap="round" stroke-linejoin="round" d="M10 8.5c1.3807 0 2.5 1.11929 2.5 2.5v1.5" stroke-width="1"></path>
    <path id="Ellipse 1801" stroke="#000cfe" stroke-linecap="round" stroke-linejoin="round" d="M10 13.5c-1.38071 0 -2.5 -1.1193 -2.5 -2.5V9.5" stroke-width="1"></path>
    <path id="Vector 3990" stroke="#000cfe" stroke-linecap="round" stroke-linejoin="round" d="m6.5 10.5 1 -1 1 1" stroke-width="1"></path>
    <path id="Vector 3989" stroke="#000cfe" stroke-linecap="round" stroke-linejoin="round" d="m11.5 11.5 1 1 1 -1" stroke-width="1"></path>
  </g>
</svg>