<svg xmlns="http://www.w3.org/2000/svg" fill="none" viewBox="0 0 14 14" id="Desktop-Game--Streamline-Core-Neon">
  <desc>
    Desktop Game Streamline Icon: https://streamlinehq.com
  </desc>
  <g id="desktop-game--controller-display-device-computer-games-leisure">
    <path id="Vector" stroke="#000cfe" stroke-linecap="round" stroke-linejoin="round" d="m6 11 -1 2.5" stroke-width="1"></path>
    <path id="Vector_2" stroke="#000cfe" stroke-linecap="round" stroke-linejoin="round" d="m8 11 1 2.5" stroke-width="1"></path>
    <path id="Vector_3" stroke="#000cfe" stroke-linecap="round" stroke-linejoin="round" d="M4 13.5h6" stroke-width="1"></path>
    <path id="Vector 780" stroke="#000cfe" stroke-linecap="round" stroke-linejoin="round" d="m10.8521 4.70246 0.1025 0.30734c0.1777 0.53351 0.6769 0.89336 1.2391 0.89336 0.7785 0 1.3841 -0.67686 1.2982 -1.45079l-0.2018 -1.81616C13.155 1.42006 12.1274 0.5 10.9041 0.5H7.99121c-1.2233 0 -2.25097 0.92006 -2.38606 2.13621l-0.20174 1.81616c-0.08597 0.77393 0.51968 1.45079 1.29817 1.45079 0.56221 0 1.06134 -0.35985 1.23913 -0.89336l0.10242 -0.30734c0.11947 -0.35852 0.4549 -0.60035 0.83271 -0.60035h1.14356c0.3778 0 0.7133 0.24183 0.8327 0.60035Z" stroke-width="1"></path>
    <path id="Vector_4" stroke="#c71dff" stroke-linecap="round" stroke-linejoin="round" d="M3.47227 2 1 2c-0.276142 0 -0.5 0.22386 -0.5 0.5v8c0 0.2761 0.223858 0.5 0.5 0.5h12c0.2761 0 0.5 -0.2239 0.5 -0.5V7.88353" stroke-width="1"></path>
  </g>
</svg>