<svg xmlns="http://www.w3.org/2000/svg" fill="none" viewBox="0 0 14 14" id="Desktop-Help--Streamline-Core-Neon">
  <desc>
    Desktop Help Streamline Icon: https://streamlinehq.com
  </desc>
  <g id="desktop-help--device-help-information-display-desktop-question-info">
    <path id="Vector" stroke="#000cfe" stroke-linecap="round" stroke-linejoin="round" d="m6 11 -1 2.5" stroke-width="1"></path>
    <path id="Vector_2" stroke="#000cfe" stroke-linecap="round" stroke-linejoin="round" d="m8 11 1 2.5" stroke-width="1"></path>
    <path id="Vector_3" stroke="#000cfe" stroke-linecap="round" stroke-linejoin="round" d="M4 13.5h6" stroke-width="1"></path>
    <path id="Vector_4" stroke="#000cfe" stroke-linecap="round" stroke-linejoin="round" d="M9.5 2.5011c0 -0.39556 0.1173 -0.78224 0.33706 -1.11114 0.21974 -0.3289 0.53214 -0.585244 0.89754 -0.73662 0.3655 -0.151375 0.7676 -0.190981 1.1556 -0.113811 0.3879 0.07717 0.7443 0.267652 1.024 0.547361 0.2797 0.2797 0.4702 0.63607 0.5474 1.02403 0.0771 0.38796 0.0375 0.79009 -0.1138 1.15555 -0.1514 0.36545 -0.4078 0.67781 -0.7367 0.89757 -0.3289 0.21976 -0.7155 0.33706 -1.1111 0.33706v1.33333" stroke-width="1"></path>
    <g id="Group 4775">
      <path id="Vector_5" stroke="#000cfe" stroke-linecap="round" stroke-linejoin="round" d="M11.5 7.83447c-0.1381 0 -0.25 -0.11193 -0.25 -0.25s0.1119 -0.25 0.25 -0.25" stroke-width="1"></path>
      <path id="Vector_6" stroke="#000cfe" stroke-linecap="round" stroke-linejoin="round" d="M11.5 7.83447c0.1381 0 0.25 -0.11193 0.25 -0.25s-0.1119 -0.25 -0.25 -0.25" stroke-width="1"></path>
    </g>
    <path id="Vector_7" stroke="#c71dff" stroke-linecap="round" stroke-linejoin="round" d="M7.47227 2 1 2c-0.276142 0 -0.5 0.22386 -0.5 0.5v8c0 0.2761 0.223858 0.5 0.5 0.5h12c0.2761 0 0.5 -0.2239 0.5 -0.5V8.13353" stroke-width="1"></path>
  </g>
</svg>