<svg xmlns="http://www.w3.org/2000/svg" fill="none" viewBox="0 0 14 14" id="Google-Logo--Streamline-Core-Neon">
  <desc>
    Google Logo Streamline Icon: https://streamlinehq.com
  </desc>
  <g id="google--media-google-social">
    <path id="Vector" stroke="#c71dff" stroke-linecap="round" stroke-linejoin="round" d="M11.3629 5.82533H7.8708c-0.06787 -0.00002 -0.13505 0.01351 -0.19763 0.03978 -0.06257 0.02626 -0.11928 0.06475 -0.1668 0.1132 -0.04752 0.04845 -0.0849 0.1059 -0.10995 0.16897 -0.02505 0.06307 -0.03726 0.13051 -0.03593 0.19836V7.7565c0 0.13535 0.05376 0.26514 0.14946 0.36085 0.0957 0.0957 0.2255 0.14946 0.36085 0.14946h2.2914c0.0072 0.38676 -0.0672 0.77069 -0.21832 1.12675 -0.15116 0.35607 -0.3757 0.67624 -0.65896 0.93964 -0.28325 0.2635 -0.61887 0.4642 -0.98495 0.5892 -0.36608 0.125 -0.75439 0.1713 -1.13961 0.1361 -2.24136 0 -3.32202 -1.90114 -3.32202 -4.06246s1.16071 -4.06247 3.32202 -4.06247c0.95419 -0.03167 1.88916 0.27291 2.64161 0.86052 0.06014 0.03936 0.1282 0.06502 0.19933 0.07515 0.0712 0.01014 0.1437 0.00451 0.2124 -0.0165 0.0688 -0.021 0.1321 -0.05686 0.1854 -0.10504 0.0533 -0.04818 0.0954 -0.10749 0.1233 -0.17374l0.6304 -1.44088c0.0518 -0.1062 0.0652 -0.22711 0.0378 -0.34207 -0.0273 -0.11497 -0.0938 -0.21687 -0.1879 -0.28832C9.85528 0.816573 8.53691 0.469635 7.20039 0.502085 3.55817 0.492079 1.07666 3.3238 1.07666 6.99604c0 3.67226 2.49152 6.50396 6.0837 6.50396 3.59224 0 5.76354 -2.5616 5.76354 -6.00366 0 -1.10067 -0.4403 -1.67101 -1.561 -1.67101Z" stroke-width="1"></path>
  </g>
</svg>