<svg xmlns="http://www.w3.org/2000/svg" fill="none" viewBox="0 0 14 14" id="Screen-Curve--Streamline-Core-Neon">
  <desc>
    Screen Curve Streamline Icon: https://streamlinehq.com
  </desc>
  <g id="screen-curve--screen-curved-device-electronics-monitor-diplay-computer">
    <path id="Vector" stroke="#000cfe" stroke-linecap="round" stroke-linejoin="round" d="M7 10.4297 7 12.5" stroke-width="1"></path>
    <path id="Vector_2" stroke="#000cfe" stroke-linecap="round" stroke-linejoin="round" d="M4.5 12.5h5" stroke-width="1"></path>
    <path id="Vector_3" stroke="#c71dff" stroke-linecap="round" stroke-linejoin="round" d="M12.93 10.8466c-3.93345 -0.5601 -7.92646 -0.5601 -11.85996 0 -0.070445 0.0099 -0.142209 0.0048 -0.210494 -0.0152 -0.068284 -0.02 -0.131516 -0.0544 -0.185471 -0.1007 -0.053954 -0.0464 -0.097388 -0.1038 -0.1274 -0.1683 -0.030011 -0.0645 -0.045909 -0.1347 -0.046631 -0.2058V1.99658c-0.000963 -0.07167 0.013809 -0.14267 0.043274 -0.20801 0.029465 -0.06534 0.072905 -0.12342 0.127258 -0.17015 0.054352 -0.04672 0.118293 -0.08095 0.187315 -0.10027 0.069021 -0.01933 0.141441 -0.02328 0.212149 -0.01157 3.93421 0.55001 7.9258 0.55001 11.85996 0 0.0699 -0.01156 0.1415 -0.00784 0.2098 0.01091s0.1317 0.05209 0.1859 0.09771c0.0542 0.04562 0.0978 0.10245 0.1279 0.16656 0.0301 0.06412 0.0459 0.134 0.0464 0.20482v8.36002c0.0008 0.072 -0.0141 0.1433 -0.0435 0.209 -0.0294 0.0657 -0.0726 0.1243 -0.1267 0.1718 -0.0541 0.0475 -0.1179 0.0827 -0.1869 0.1033 -0.069 0.0205 -0.1416 0.026 -0.2129 0.0159v0Z" stroke-width="1"></path>
  </g>
</svg>