<svg xmlns="http://www.w3.org/2000/svg" fill="none" viewBox="0 0 14 14" id="Watch-Circle-Heartbeat-Monitor-2--Streamline-Core-Neon">
  <desc>
    Watch Circle Heartbeat Monitor 2 Streamline Icon: https://streamlinehq.com
  </desc>
  <g id="watch-circle-heartbeat-monitor-2--device-timepiece-circle-watch-round-heart-beat-monitor-healthcare">
    <path id="Vector 51" stroke="#000cfe" stroke-linecap="round" stroke-linejoin="round" d="M4.20898 7.00001h1.03353l1.02083 -1.66667 1.3125 3.41667 0.9858 -1.75h1.22908" stroke-width="1"></path>
    <path id="Vector" stroke="#000cfe" stroke-linecap="round" stroke-linejoin="round" d="M9.5 3.25V1.5c0 -0.26522 -0.10536 -0.51957 -0.29289 -0.707107C9.01957 0.605357 8.76522 0.5 8.5 0.5h-3c-0.26522 0 -0.51957 0.105357 -0.70711 0.292893C4.60536 0.98043 4.5 1.23478 4.5 1.5v1.75" stroke-width="1"></path>
    <path id="Vector_2" stroke="#000cfe" stroke-linecap="round" stroke-linejoin="round" d="M9.5 10.7344V12.5c0 0.2652 -0.10536 0.5196 -0.29289 0.7071 -0.18754 0.1875 -0.44189 0.2929 -0.70711 0.2929h-3c-0.26522 0 -0.51957 -0.1054 -0.70711 -0.2929C4.60536 13.0196 4.5 12.7652 4.5 12.5v-1.7656" stroke-width="1"></path>
    <path id="Vector_3" stroke="#c71dff" stroke-linecap="round" stroke-linejoin="round" d="M7 11.5c2.48528 0 4.5 -2.01472 4.5 -4.5S9.48528 2.5 7 2.5 2.5 4.51472 2.5 7s2.01472 4.5 4.5 4.5Z" stroke-width="1"></path>
  </g>
</svg>