<svg xmlns="http://www.w3.org/2000/svg" fill="none" viewBox="0 0 14 14" id="Wifi-Antenna--Streamline-Core-Neon">
  <desc>
    Wifi Antenna Streamline Icon: https://streamlinehq.com
  </desc>
  <g id="wifi-antenna--wireless-wifi-internet-server-network-antenna-connection">
    <path id="Vector" stroke="#000cfe" stroke-linecap="round" stroke-linejoin="round" d="M7 7.13678c0.82843 0 1.5 -0.67157 1.5 -1.5s-0.67157 -1.5 -1.5 -1.5 -1.5 0.67157 -1.5 1.5 0.67157 1.5 1.5 1.5Z" stroke-width="1"></path>
    <path id="Vector_2" stroke="#c71dff" stroke-linecap="round" stroke-linejoin="round" d="M5.00577 2.24295c-1.16174 0.68421 -1.94132 1.94792 -1.94132 3.39371 0 1.44641 0.78026 2.71059 1.94283 3.39459" stroke-width="1"></path>
    <path id="Vector_3" stroke="#c71dff" stroke-linecap="round" stroke-linejoin="round" d="M8.99467 2.24292c1.16173 0.6842 1.94133 1.94792 1.94133 3.39371 0 1.44641 -0.7803 2.71059 -1.94284 3.39459" stroke-width="1"></path>
    <path id="Vector_4" stroke="#c71dff" stroke-linecap="round" stroke-linejoin="round" d="M3.00459 0.5C1.4802 1.69154 0.5 3.54913 0.5 5.63605c0 2.08702 0.98029 3.94469 2.50481 5.13625" stroke-width="1"></path>
    <path id="Vector_5" stroke="#c71dff" stroke-linecap="round" stroke-linejoin="round" d="M10.9953 0.5c1.5244 1.19154 2.5046 3.04913 2.5046 5.13605 0 2.08702 -0.9803 3.94469 -2.5048 5.13625" stroke-width="1"></path>
    <path id="Vector_6" stroke="#000cfe" stroke-linecap="round" stroke-linejoin="round" d="M7 7.13678v6.36332" stroke-width="1"></path>
  </g>
</svg>