<svg xmlns="http://www.w3.org/2000/svg" fill="none" viewBox="0 0 48 48" id="Briefcase--Streamline-Kameleon">
  <desc>
    Briefcase Streamline Icon: https://streamlinehq.com
  </desc>
  <path fill="#deeeff" d="M23.9979 47.9993c13.2548 0 23.9999 -10.7451 23.9999 -23.9999S37.2527 -0.000488281 23.9979 -0.000488281 -0.00195312 10.7446 -0.00195312 23.9994c0 13.2548 10.74505312 23.9999 23.99985312 23.9999Z" stroke-width="1"></path>
  <path fill="#2e3ecd" d="M19.6344 11.781c-0.4821 0 -0.8727 0.3905 -0.8727 0.8727v2.6182h1.7455v-0.8727c0 -0.4822 0.3905 -0.8727 0.8727 -0.8727h5.2363c0.4822 0 0.8727 0.3905 0.8727 0.8727v0.8727h1.7455v-2.6182c0 -0.4822 -0.3906 -0.8727 -0.8727 -0.8727h-8.7273Z" stroke-width="1"></path>
  <path fill="#2e3ecd" d="M34.4701 15.272c0.9639 0 1.7454 0.7815 1.7454 1.7454v16.5817c0 0.964 -0.7815 1.7455 -1.7454 1.7455H13.5247c-0.9639 0 -1.7454 -0.7815 -1.7454 -1.7455V17.0174c0 -0.9639 0.7815 -1.7454 1.7454 -1.7454h20.9454Z" stroke-width="1"></path>
  <path fill="#6bafff" fill-rule="evenodd" d="M36.2155 23.0705c-1.9175 2.172 -4.726 3.5469 -7.8545 3.5469h-8.7272c-3.0472 0 -5.8923 -1.3171 -7.8545 -3.5442v-6.0558c0 -0.9639 0.7815 -1.7454 1.7454 -1.7454h20.9454c0.9639 0 1.7454 0.7815 1.7454 1.7454v6.0531Z" clip-rule="evenodd" stroke-width="1"></path>
  <path fill="#2e3ecd" d="M37.9613 15.272c0 1.169 0.1488 3.7016 -1.7454 6.3927 -1.7367 2.4654 -4.608 4.0799 -7.8545 4.0799h-8.7272c-3.1545 0 -6.0716 -1.539 -7.8545 -4.0799 -1.7769 -2.5239 -1.7455 -4.8148 -1.7455 -6.3927h27.9271Z" stroke-width="1"></path>
  <path fill="#6bafff" d="M15.2705 15.272v16.5817l1.3091 1.3091 1.3091 -1.3091V15.272h-2.6182Z" stroke-width="1"></path>
  <path fill="#6bafff" d="M30.1064 15.272v16.5817l1.3091 1.3091 1.3091 -1.3091V15.272h-2.6182Z" stroke-width="1"></path>
  <path fill="#2e3ecd" d="M18.3249 28.5376c0 0.3857 -0.3125 0.6982 -0.6982 0.6982h-2.0945c-0.3858 0 -0.6982 -0.3125 -0.6982 -0.6982v-2.0945c0 -0.3858 0.3124 -0.6982 0.6982 -0.6982h2.0945c0.3857 0 0.6982 0.3124 0.6982 0.6982v2.0945Z" stroke-width="1"></path>
  <path fill="#6bafff" fill-rule="evenodd" d="M19.1983 28.5378c0 0.8677 -0.7032 1.5709 -1.5709 1.5709h-2.0946c-0.8677 0 -1.5709 -0.7032 -1.5709 -1.5709v-2.0946c0 -0.8677 0.7032 -1.5709 1.5709 -1.5709h2.0946c0.8677 0 1.5709 0.7032 1.5709 1.5709v2.0946Zm-1.5709 0.6981c0.3857 0 0.6981 -0.3124 0.6981 -0.6981v-2.0946c0 -0.3857 -0.3124 -0.6982 -0.6981 -0.6982h-2.0946c-0.3857 0 -0.6982 0.3125 -0.6982 0.6982v2.0946c0 0.3857 0.3125 0.6981 0.6982 0.6981h2.0946Z" clip-rule="evenodd" stroke-width="1"></path>
  <path fill="#2e3ecd" d="M33.1618 28.5376c0 0.3857 -0.3124 0.6982 -0.6982 0.6982h-2.0945c-0.3858 0 -0.6982 -0.3125 -0.6982 -0.6982v-2.0945c0 -0.3858 0.3124 -0.6982 0.6982 -0.6982h2.0945c0.3858 0 0.6982 0.3124 0.6982 0.6982v2.0945Z" stroke-width="1"></path>
  <path fill="#6bafff" fill-rule="evenodd" d="M34.0342 28.5378c0 0.8677 -0.7032 1.5709 -1.5709 1.5709h-2.0945c-0.8678 0 -1.5709 -0.7032 -1.5709 -1.5709v-2.0946c0 -0.8677 0.7031 -1.5709 1.5709 -1.5709h2.0945c0.8677 0 1.5709 0.7032 1.5709 1.5709v2.0946Zm-1.5709 0.6981c0.3857 0 0.6982 -0.3124 0.6982 -0.6981v-2.0946c0 -0.3857 -0.3125 -0.6982 -0.6982 -0.6982h-2.0945c-0.3858 0 -0.6982 0.3125 -0.6982 0.6982v2.0946c0 0.3857 0.3124 0.6981 0.6982 0.6981h2.0945Z" clip-rule="evenodd" stroke-width="1"></path>
</svg>