<svg xmlns="http://www.w3.org/2000/svg" fill="none" viewBox="0 0 24 24" id="Cleaning-Room-Woman--Streamline-Sharp">
  <desc>
    Cleaning Room Woman Streamline Icon: https://streamlinehq.com
  </desc>
  <g id="cleaning-room-woman">
    <path id="Union" fill="#000000" fill-rule="evenodd" d="M6.5 1C4.98122 1 3.75 2.23122 3.75 3.75S4.98122 6.5 6.5 6.5s2.75 -1.23122 2.75 -2.75S8.01878 1 6.5 1ZM4 19.0001v4h5v-4h2.5L10 9.50009S9 8 6.5 8 3 9.50009 3 9.50009L1.5 19.0001H4Zm16.6688 -3.6882c-0.3094 -0.1669 -0.7045 -0.337 -1.1688 -0.4457V1.5h-2v13.3664c-0.464 0.1086 -0.8589 0.2787 -1.1682 0.4455 -0.2576 0.139 -0.4615 0.2787 -0.6037 0.3861 -0.0714 0.0539 -0.1278 0.1001 -0.1685 0.1348 -0.0203 0.0173 -0.0367 0.0318 -0.0491 0.0429l-0.0155 0.0141 -0.0055 0.0051 -0.0022 0.0021 -0.0009 0.0009c-0.0002 0.0002 -0.0009 0.0008 0.5139 0.5462l-0.5148 -0.5454 -0.1796 0.1695 -1.2029 6.6817h8.7941l-1.2024 -6.6817 -0.1796 -0.1695 -0.0008 -0.0008 -0.001 -0.0009 -0.0021 -0.0021 -0.0055 -0.0051 -0.0156 -0.0141c-0.0124 -0.0111 -0.0288 -0.0256 -0.0491 -0.0429 -0.0406 -0.0347 -0.0971 -0.0809 -0.1684 -0.1348 -0.1423 -0.1074 -0.3462 -0.2471 -0.6038 -0.3861Z" clip-rule="evenodd" stroke-width="1"></path>
  </g>
</svg>