<svg xmlns="http://www.w3.org/2000/svg" fill="none" viewBox="0 0 24 24" id="School-Bus-Side--Streamline-Sharp">
  <desc>
    School Bus Side Streamline Icon: https://streamlinehq.com
  </desc>
  <g id="school-bus-side">
    <path id="Union" fill="#000000" fill-rule="evenodd" d="M1 4v17h1.53095c-0.02043 -0.1638 -0.03095 -0.3307 -0.03095 -0.5 0 -2.2091 1.79086 -4 4 -4s4 1.7909 4 4c0 0.1693 -0.0105 0.3362 -0.0309 0.5h3.0618c-0.0204 -0.1638 -0.0309 -0.3307 -0.0309 -0.5 0 -2.2091 1.7909 -4 4 -4 2.2091 0 4 1.7909 4 4 0 0.1693 -0.0105 0.3362 -0.0309 0.5H23v-9h-3.5V4H1Zm16.5 8V8.5H14V12h3.5ZM3 8.5V12h3.5V8.5H3Zm9 3.5H8.5V8.5H12V12Zm-3 8.5C9 21.8807 7.88071 23 6.5 23S4 21.8807 4 20.5 5.11929 18 6.5 18 9 19.1193 9 20.5Zm11 0c0 1.3807 -1.1193 2.5 -2.5 2.5S15 21.8807 15 20.5s1.1193 -2.5 2.5 -2.5 2.5 1.1193 2.5 2.5Z" clip-rule="evenodd" stroke-width="1"></path>
  </g>
</svg>