<svg xmlns="http://www.w3.org/2000/svg" fill="none" viewBox="0 0 14 14" id="Tickets--Streamline-Flex-Neon">
  <desc>
    Tickets Streamline Icon: https://streamlinehq.com
  </desc>
  <g id="tickets--hobby-ticket-event-entertainment-stub-theater-entertainment">
    <path id="Subtract" stroke="#c71dff" stroke-linecap="round" stroke-linejoin="round" d="M12.1854 4.02331c-0.61 0.60993 -1.5989 0.60993 -2.20879 0 -0.60993 -0.60993 -0.60993 -1.59883 0 -2.20876v0c0.16909 -0.16911 0.21589 -0.45707 0.04679 -0.62618l-0.07841 -0.07844c-0.81325 -0.813241 -1.61222 -0.813241 -2.94502 0l-0.56003 0.39132C4.51681 2.84505 2.84511 4.51674 1.5013 6.43988l-0.39137 0.56009c-0.813241 1.33273 -0.813241 2.13177 0 2.94502l0.07839 0.07841c0.16914 0.1691 0.45716 0.1223 0.6263 -0.04686v0c0.60993 -0.60993 1.59883 -0.60993 2.20876 0 0.60994 0.60996 0.60994 1.59886 0 2.20876v0c-0.16913 0.1691 -0.21597 0.4572 -0.04683 0.6263l0.0784 0.0784c0.81324 0.8132 1.61229 0.8132 2.94502 0l0.56004 -0.3913c1.92317 -1.3439 3.59489 -3.01558 4.93869 -4.93876l0.3913 -0.55997c0.8132 -1.33279 0.8132 -2.13178 0 -2.94502l-0.0784 -0.07845c-0.1692 -0.16911 -0.4571 -0.12229 -0.6262 0.04681v0Z" stroke-width="1"></path>
  </g>
</svg>