<svg xmlns="http://www.w3.org/2000/svg" viewBox="0 0 14 14">
  <g>
    <path d="M8.61,11.25a.24.24,0,0,1-.24.16.25.25,0,0,1-.23-.17L6.83,7.33a.22.22,0,0,0-.16-.16L2.76,5.86a.25.25,0,0,1-.17-.23.24.24,0,0,1,.16-.24l1.41-.54a.28.28,0,0,0,.16-.19.22.22,0,0,0-.07-.22l-.77-.78a.27.27,0,0,0-.27-.06L.77,4.54a1.2,1.2,0,0,0,0,2.26L5.49,8.35a.31.31,0,0,1,.16.16L7.2,13.18a1.2,1.2,0,0,0,2.26.05l.94-2.44a.27.27,0,0,0-.06-.27l-.78-.77a.22.22,0,0,0-.22-.07.28.28,0,0,0-.19.16Z" style="fill: #000001"/>
    <path d="M13.78,9.72l-2-2a.27.27,0,0,1-.06-.27l2.23-5.8A1.19,1.19,0,0,0,13.65.35,1.21,1.21,0,0,0,12.37.08L6.58,2.31a.27.27,0,0,1-.27-.06l-2-2A.75.75,0,0,0,3.22,1.28l9.5,9.5a.75.75,0,0,0,1.06,0A.75.75,0,0,0,13.78,9.72ZM10.61,6.05a.26.26,0,0,1-.18.16.25.25,0,0,1-.23-.07L7.86,3.8a.25.25,0,0,1-.07-.23A.26.26,0,0,1,8,3.39l3.8-1.46a.24.24,0,0,1,.32.32Z" style="fill: #000001"/>
  </g>
</svg>
