<svg xmlns="http://www.w3.org/2000/svg" fill="none" viewBox="0 0 24 24" id="Download-Brackets--Streamline-Freehand">
  <desc>
    Download Brackets Streamline Icon: https://streamlinehq.com
  </desc>
  <path fill="#000000" fill-rule="evenodd" d="M23.2672 2.59423c-0.4197 -1.16903 -1.7286 -1.10908 -2.9376 -0.99917 -0.5595 0.07993 -1.239 -0.2398 -1.2889 0.20982 -0.0091 0.06432 0.0037 0.12982 0.0363 0.18599s0.0832 0.09975 0.1435 0.12376c0.3903 0.0601 0.7842 0.09349 1.1791 0.09991 0.7793 -0.06994 1.9184 -0.16986 2.1482 0.57952 0.8493 2.81765 0.1199 5.51541 0.3297 16.47624 0.0755 0.7642 0.0755 1.534 0 2.2981 -0.06 0 -0.2098 0.07 -0.3697 0.08 -0.5196 0 -2.8376 -0.1 -2.8776 -0.08 -0.0635 0.0232 -0.1184 0.0654 -0.1571 0.1208 -0.0388 0.0554 -0.0596 0.1213 -0.0596 0.189 0 0.0676 0.0208 0.1336 0.0596 0.189 0.0387 0.0554 0.0936 0.0975 0.1571 0.1207 0.0799 0 2.5379 0.2198 2.9475 0.2198 0.3035 0.0154 0.6041 -0.065 0.8593 -0.2298 0.5296 -0.5096 0.3298 -2.338 0.3397 -2.9076 0.2099 -9.73186 0.5496 -13.77849 -0.5095 -16.67607Z" clip-rule="evenodd" stroke-width="1"></path>
  <path fill="#000000" fill-rule="evenodd" d="M3.66349 1.64503c-1.21898 -0.15987 -2.5179 -0.21982 -2.93755 0.99917C-0.313195 5.46185 0.00653864 9.07884 0.216364 19.3203c0 0.5895 -0.1898419 2.408 0.339717 2.9076 0.254681 0.1661 0.555699 0.2466 0.859289 0.2298 0.40965 0 2.86761 -0.1799 2.9975 -0.2198 0.06352 -0.0232 0.11837 -0.0654 0.15713 -0.1208 0.03876 -0.0554 0.05955 -0.1213 0.05955 -0.189 0 -0.0676 -0.02079 -0.1336 -0.05955 -0.189 -0.03876 -0.0554 -0.09361 -0.0975 -0.15713 -0.1207 0 0 -2.35804 0.1099 -2.8776 0.0799 -0.15987 0 -0.30975 -0.1099 -0.3697 -0.0799 -0.07034 -0.7644 -0.07034 -1.5337 0 -2.2981 0.15987 -10.90091 -0.579514 -13.64862 0.27977 -16.47627 0.22981 -0.74937 1.36886 -0.64946 2.14821 -0.57951 0.39482 -0.00643 0.78875 -0.03981 1.17902 -0.09992 0.06215 -0.0207 0.11418 -0.06412 0.14568 -0.12156 0.0315 -0.05743 0.04013 -0.12465 0.02418 -0.18818 -0.03997 -0.44963 -0.72939 -0.1299 -1.27894 -0.20983Z" clip-rule="evenodd" stroke-width="1"></path>
  <path fill="#000000" fill-rule="evenodd" d="M16.7126 11.5568c-0.8093 -0.08 -2.7577 1.159 -3.3872 1.7985 -0.1798 -1.8485 -0.7393 -7.44384 -0.9991 -8.18322 -0.0062 -0.03817 -0.0206 -0.07456 -0.0421 -0.1067s-0.0496 -0.05928 -0.0826 -0.07958c-0.0329 -0.02031 -0.0698 -0.0333 -0.1081 -0.03809 -0.0384 -0.0048 -0.0774 -0.00129 -0.1143 0.01028 -0.0369 0.01158 -0.0708 0.03095 -0.0996 0.05681 -0.0287 0.02585 -0.0516 0.05759 -0.067 0.09305 -0.0154 0.03547 -0.023 0.07383 -0.0223 0.1125 0.0007 0.03866 0.0097 0.07672 0.0264 0.11159 0.2798 0.93922 0.6295 7.77356 0.7594 8.69276 0.0899 0.6595 0.7693 0.5895 1.189 0.05 0.7493 -0.706 1.6472 -1.2352 2.6278 -1.5487 0 -0.08 0 0.9991 -1.8884 3.1573 -0.6995 0.8093 -2.8077 3.0475 -3.607 2.3181 -1.41211 -1.5369 -2.53882 -3.3132 -3.32727 -5.2456 1.36886 0.5795 2.408 1.9983 2.93757 1.9983 0.1191 -0.0219 0.2258 -0.0871 0.2996 -0.183 0.0738 -0.096 0.1095 -0.2159 0.1001 -0.3366 -0.1299 -1.2689 -0.2698 0.8793 0.7493 -8.99248 0 -0.03936 -0.0077 -0.07834 -0.0228 -0.11471s-0.0371 -0.06941 -0.065 -0.09725c-0.0278 -0.02783 -0.0608 -0.04991 -0.0972 -0.06497 -0.0364 -0.01507 -0.0754 -0.02282 -0.1147 -0.02282 -0.0394 0 -0.0784 0.00775 -0.1147 0.02282 -0.0364 0.01506 -0.0694 0.03714 -0.0973 0.06497 -0.0278 0.02784 -0.0499 0.06088 -0.065 0.09725 -0.015 0.03637 -0.0228 0.07535 -0.0228 0.11471 0 -0.07993 -1.19897 6.21478 -0.9991 8.18318 -0.7694 -0.6495 -1.65866 -1.5687 -2.74775 -1.5987 -0.11732 -0.0094 -0.23483 0.0158 -0.33788 0.0727 -0.10306 0.0568 -0.18709 0.1428 -0.24164 0.2471 -0.26977 0.5995 0.31974 1.5787 0.46961 1.9983 0.62877 1.4295 1.46362 2.7592 2.47794 3.9467 0.44962 0.5096 0.78932 1.1491 1.68862 1.0791 2.2181 -0.1598 7.0941 -5.7952 5.7652 -7.3938 -0.0501 -0.0646 -0.1135 -0.1177 -0.1859 -0.1556 -0.0724 -0.038 -0.1522 -0.0599 -0.2338 -0.0642Z" clip-rule="evenodd" stroke-width="1"></path>
</svg>