<svg xmlns="http://www.w3.org/2000/svg" fill="none" viewBox="0 0 24 24" id="Home-To-Cloud-Sync--Streamline-Freehand">
  <desc>
    Home To Cloud Sync Streamline Icon: https://streamlinehq.com
  </desc>
  <path fill="#000000" fill-rule="evenodd" d="M12.6384 5.50648c0.2079 -0.27178 0.3545 -0.58541 0.4296 -0.91929 0.7195 -3.53728 -4.12678 -5.585702 -6.0553 -2.58801 -0.42406 -0.3341 -0.93772 -0.53485 -1.47594 -0.57686 -0.53823 -0.042 -1.07681 0.07664 -1.54757 0.34091 -0.47076 0.26427 -0.85252 0.66227 -1.09695 1.14363 -0.24443 0.48136 -0.34054 1.02442 -0.27615 1.56042 -1.998468 0 -3.517299 1.86857 -1.998468 4.27671 0.31093 0.33539 0.684288 0.60692 1.099158 0.79939 0.70945 0.32975 1.06917 0 0.9093 -0.34973 -0.15988 -0.34973 -0.21983 0.06995 -0.99923 -0.47963 -0.14426 -0.09582 -0.27821 -0.20633 -0.3997 -0.32975 -0.265688 -0.32164 -0.427907 -0.71611 -0.465356 -1.13162 -0.037449 -0.4155 0.051623 -0.83262 0.255516 -1.19659 0.16485 -0.20942 0.37395 -0.37983 0.61233 -0.49902 0.23838 -0.11919 0.50017 -0.18423 0.76661 -0.19045h0.3997c0.07994 0 0.2498 0.13989 0.28977 0.15988 0.10268 0.04934 0.2198 0.05968 0.32954 0.02909 0.10974 -0.03059 0.20461 -0.10003 0.26696 -0.19538 0.06234 -0.09535 0.0879 -0.21011 0.07192 -0.3229 -0.01599 -0.1128 -0.07243 -0.21594 -0.15881 -0.29021 -0.04996 0 0 -0.09992 -0.04996 -0.15988 -0.07695 -0.34327 -0.04543 -0.70197 0.09021 -1.02656 0.13564 -0.3246 0.36872 -0.59907 0.66704 -0.78552s0.64717 -0.27568 0.99838 -0.25537c0.3512 0.02031 0.68744 0.14916 0.96228 0.36876 0.13989 0.16375 0.24525 0.35408 0.30976 0.55957 0.04515 0.1088 0.12136 0.20189 0.2191 0.26764s0.21268 0.10125 0.33048 0.10207c0.78939 0 0.45965 -1.12913 1.46887 -1.77863 0.36815 -0.20058 0.78504 -0.29423 1.20361 -0.27037 0.4186 0.02386 0.8221 0.16427 1.1651 0.40539 0.343 0.24112 0.6117 0.57333 0.7758 0.95912 0.1641 0.38578 0.2171 0.80977 0.153 1.22408 -0.1479 0.3494 -0.3286 0.68398 -0.5396 0.99923l-0.1899 0.21983c-0.0848 0.05473 -0.1542 0.13034 -0.2014 0.21957 -0.0473 0.08923 -0.0708 0.1891 -0.0684 0.29004 0 0.1299 0.3897 0.75941 0.8694 0.49961h0.1299c0.7993 -0.10991 1.6187 1.33897 0.6894 1.99847 -2.1483 1.47888 -3.71712 0.99923 -6.62488 0.88931 -0.76801 0.01135 -1.53413 -0.07938 -2.27825 -0.26979 -0.0848 -0.04638 -0.18456 -0.05717 -0.27732 -0.02999 -0.09276 0.02717 -0.17092 0.09008 -0.2173 0.17488 -0.04638 0.0848 -0.05717 0.18456 -0.02999 0.27732 0.02717 0.09276 0.09008 0.17092 0.17488 0.2173 0.83412 0.28075 1.7079 0.42585 2.58801 0.42965 2.99769 0.2099 4.74635 0.7694 7.23445 -0.82934 0.3389 -0.23209 0.607 -0.55334 0.7748 -0.92826 0.1678 -0.37492 0.2287 -0.78893 0.176 -1.19629 -0.0527 -0.40735 -0.217 -0.79221 -0.4748 -1.11205 -0.2577 -0.31984 -0.5988 -0.56223 -0.9856 -0.70038Z" clip-rule="evenodd" stroke-width="1"></path>
  <path fill="#000000" fill-rule="evenodd" d="M23.3501 18.0668c-0.6762 -1.0277 -1.4455 -1.991 -2.2982 -2.8778 -0.8998 -0.868 -1.8726 -1.657 -2.9078 -2.3581 -0.2446 -0.1589 -0.5271 -0.2501 -0.8185 -0.2641 -0.2914 -0.014 -0.5814 0.0495 -0.8402 0.1841 -1.3771 1.3211 -2.6375 2.7587 -3.7671 4.2967 -0.7094 0.9293 -1.4389 1.6487 -1.349 2.0984 0.009 0.0642 0.0361 0.1244 0.0781 0.1737 0.0421 0.0493 0.0973 0.0855 0.1593 0.1044s0.128 0.0197 0.1904 0.0023c0.0624 -0.0174 0.1186 -0.0523 0.1618 -0.1005 0.1399 -0.1399 -0.4796 0.6295 1.309 -1.6388 0.2298 2.9977 -0.9992 4.9262 1.1591 5.3759 0.4679 0.113 0.9476 0.17 1.4289 0.1699 1.2291 -0.1899 0.3098 -2.718 1.3889 -2.8279 0.7395 -0.0899 0.7195 1.9985 0.8394 2.3882 0.0271 0.103 0.0759 0.1991 0.1431 0.2818 0.0672 0.0828 0.1513 0.1502 0.2466 0.1978 0.5895 0.2798 2.8478 0.2498 3.3474 -0.2698 0.4996 -0.5196 0.3397 -1.1391 0.3897 -5.0661 0.6295 0.7395 1.1691 1.5888 1.5788 1.379 0.0647 -0.0267 0.1195 -0.0727 0.1571 -0.1317 0.0375 -0.059 0.056 -0.1282 0.0527 -0.1981 0 -0.4297 -0.5995 -0.8293 -0.6495 -0.9193Zm-2.1983 4.1968c-0.3227 0.1016 -0.6621 0.1389 -0.9992 0.1099 -0.2829 0.0169 -0.5665 0.0169 -0.8494 0 -0.0177 -0.1619 -0.0477 -0.3223 -0.0899 -0.4796 -0.2098 -1.4789 -0.6595 -2.9078 -2.0984 -2.7079 -1.239 0.1399 -1.5887 0.9992 -1.6487 2.2183v0.5795c-0.2795 -0.0186 -0.5599 -0.0186 -0.8394 0 -0.9992 -0.1299 -0.4896 -1.1591 -0.5295 -2.4581 0.006 -0.8283 -0.071 -1.6551 -0.2299 -2.4681 0.7694 -0.8094 1.5988 -1.6887 2.5681 -2.588 0.7794 -0.7594 0.5695 -1.0692 1.8785 -0.0999 1.171 0.7628 2.2447 1.6655 3.1975 2.6879 -0.0299 0.1199 -0.1998 4.9262 -0.3597 5.206Z" clip-rule="evenodd" stroke-width="1"></path>
  <path fill="#000000" fill-rule="evenodd" d="M7.40241 20.3451c-0.5943 -0.0652 -1.16826 -0.2546 -1.68467 -0.5558 -0.51642 -0.3012 -0.96376 -0.7077 -1.31303 -1.1929 -0.36971 -0.6895 -0.26979 -1.1091 0 -4.7863 0.41199 0.5053 0.8777 0.9643 1.38893 1.3689 0.07994 0.08 0.74943 0.7595 0.99923 0.7595 0.24981 0 0.5296 -0.3598 0.18986 -0.7994 -0.47722 -0.4232 -0.91226 -0.8917 -1.299 -1.3989 -0.48963 -0.6296 -0.67948 -1.2291 -1.06918 -1.4589 -0.72944 -0.4197 -1.57879 0.3297 -2.04842 0.9992 -0.46964 0.6695 -0.9193 0.9992 -1.25904 1.4089 -0.06994 0.08 -0.939274 1.0992 -0.999228 1.2091 -0.014678 0.0496 -0.017113 0.102 -0.007097 0.1527 0.010016 0.0507 0.032184 0.0983 0.064605 0.1386 0.032421 0.0402 0.074127 0.072 0.121542 0.0927 0.047415 0.0206 0.099125 0.0294 0.150697 0.0257 0.441751 -0.2916 0.853461 -0.6263 1.229051 -0.9993 0.56463 -0.3956 1.09599 -0.8368 1.58878 -1.3189 -0.1299 0.8693 -0.50961 3.4173 -0.50961 3.4873 -0.0328 0.5827 0.08416 1.164 0.33974 1.6887 1.13913 2.1483 4.54651 2.2482 5.39585 1.7586 1.58878 -0.9393 -1.19908 -0.5695 -1.27901 -0.5795Z" clip-rule="evenodd" stroke-width="1"></path>
</svg>