<svg xmlns="http://www.w3.org/2000/svg" fill="none" viewBox="0 0 24 24" id="Network-Connector--Streamline-Freehand">
  <desc>
    Network Connector Streamline Icon: https://streamlinehq.com
  </desc>
  <path fill="#000000" fill-rule="evenodd" d="M11.5346 9.67585c0.115 -1.57857 0.0477 -3.16515 -0.2008 -4.72829 0 -0.08786 -0.0349 -0.17212 -0.097 -0.23425 -0.0621 -0.06213 -0.1464 -0.09703 -0.2342 -0.09703 -0.0879 0 -0.1722 0.0349 -0.2343 0.09703 -0.0621 0.06213 -0.097 0.14639 -0.097 0.23425 -0.2415 1.56012 -0.2415 3.1481 0 4.70821 0.1706 0.63243 0.6425 0.60233 0.8633 0.02008Z" clip-rule="evenodd" stroke-width="1"></path>
  <path fill="#000000" fill-rule="evenodd" d="M14.0945 9.67585c0.2183 -1.09329 0.2825 -2.21176 0.1908 -3.32285 0.0116 -0.59638 -0.0423 -1.19224 -0.1607 -1.77687 -0.0255 -0.07221 -0.0732 -0.13445 -0.1364 -0.17775 -0.0631 -0.0433 -0.1384 -0.06543 -0.2149 -0.06319 -0.3012 0 -0.4718 1.92746 -0.4718 2.00777 -0.1425 1.1064 -0.1425 2.22649 0 3.33289 0.0702 0.58225 0.6123 0.65255 0.793 0Z" clip-rule="evenodd" stroke-width="1"></path>
  <path fill="#000000" fill-rule="evenodd" d="M4.30666 16.2914c0.74287 -0.261 0.87338 -0.793 0 -1.0038h-0.48187c-1.19324 -0.0158 -2.38277 0.1362 -3.533664 0.4517 -0.077211 0 -0.15126 0.0307 -0.2058571 0.0853C0.0306721 15.8792 0 15.9532 0 16.0304c0 0.0772 0.0306721 0.1513 0.0852689 0.2059 0.0545971 0.0546 0.1286461 0.0853 0.2058571 0.0853 1.333584 0.1737 2.684704 0.1636 4.015534 -0.0302Z" clip-rule="evenodd" stroke-width="1"></path>
  <path fill="#000000" fill-rule="evenodd" d="M18.612 14.4744c-0.2138 -0.2689 -0.523 -0.4451 -0.8633 -0.4919 -0.5564 -0.1616 -1.1286 -0.2626 -1.7066 -0.3012 -0.0904 0 -0.4016 -0.1204 -0.5622 -0.0702 -0.0055 -0.1037 -0.0055 -0.2076 0 -0.3112 -0.2008 -2.0078 0.2108 -2.5198 -1.295 -2.7306h-2.0881l-1.3954 0.1004c-0.0879 0 -0.1721 0.0349 -0.2343 0.097 -0.0621 0.0622 -0.097 0.1464 -0.097 0.2343 0 0.0878 0.0349 0.1721 0.097 0.2342 0.0622 0.0622 0.1464 0.0971 0.2343 0.0971 1.7267 0 1.8973 -0.3112 3.8047 0.1003 0.0217 0.9037 0.0954 1.8053 0.2209 2.7005 0.1807 0.5622 1.0039 0.4317 1.2548 0.4618 0.8132 0.0903 1.2549 0.3212 1.6966 0.3815 -0.0602 0.1706 0.1004 0.1405 -0.1004 0.8733 -0.1305 0.4317 -0.3012 0.8433 -0.4116 1.295 -0.0698 0.433 -0.2052 0.8527 -0.4015 1.2449 -5.3106 0.271 -4.7585 -0.1506 -8.03111 -0.1305 -0.66698 0.078 -1.34079 0.078 -2.00777 0 0 0 -0.16062 -0.0904 -0.23089 -0.1004l-0.07027 -0.5221c-0.18562 -0.6761 -0.23678 -1.3821 -0.15059 -2.078 0 -0.3112 0 -0.6023 0.22086 -0.7128 0.66466 -0.2189 1.3583 -0.3373 2.05796 -0.3513 0.23089 0 0.48186 0.0803 0.75291 -0.0602 0.27105 -0.1406 0.14054 -0.3514 0.32124 -2.4796 0.40156 -1.4958 -0.53206 -1.1445 -0.58225 -0.1406 -0.09381 0.6658 -0.15412 1.3359 -0.1807 2.0078H8.4527c-0.78293 -0.0225 -1.5639 0.0896 -2.30893 0.3313 -1.00388 0.4517 -1.15447 4.2564 -0.25097 4.8788 0.90313 0.3076 1.86038 0.4238 2.81087 0.3414 1.48573 0 3.01163 0.2108 4.45723 0.271 1.122 0.047 2.2459 0.0134 3.363 -0.1004 0.3112 -0.0602 0.773 0.1105 1.2047 -0.6826 0.4818 -0.6224 1.1745 -3.9754 0.8834 -4.387Z" clip-rule="evenodd" stroke-width="1"></path>
  <path fill="#000000" fill-rule="evenodd" d="M23.8422 15.2775c-0.3558 -0.1039 -0.7236 -0.1613 -1.0942 -0.1706 -0.8937 -0.1062 -1.7968 -0.1062 -2.6904 0h-0.2309c-0.9236 0.3814 -0.8332 0.7027 0 1.0038 1.4958 0.1406 1.2548 0 3.8147 -0.2208 0.0743 0.0061 0.1484 -0.0129 0.2105 -0.0541 0.062 -0.0412 0.1084 -0.1021 0.1316 -0.1729 0.0232 -0.0707 0.0219 -0.1473 -0.0037 -0.2172 -0.0257 -0.0699 -0.0741 -0.1292 -0.1376 -0.1682Z" clip-rule="evenodd" stroke-width="1"></path>
  <path fill="#000000" fill-rule="evenodd" d="M23.27 18.2189c-1.0942 -0.1004 -2.2888 -0.2811 -3.4433 -0.2911 -1.6464 0.0702 -1.4657 0.793 0 1.0842 1.1487 0.1015 2.3056 0.0577 3.4433 -0.1305 0.0879 0 0.1721 -0.0349 0.2343 -0.0971 0.0621 -0.0621 0.097 -0.1464 0.097 -0.2342 0 -0.0879 -0.0349 -0.1721 -0.097 -0.2343 -0.0622 -0.0621 -0.1464 -0.097 -0.2343 -0.097Z" clip-rule="evenodd" stroke-width="1"></path>
  <path fill="#000000" fill-rule="evenodd" d="M4.30666 17.8575c-0.90571 0.0026 -1.80588 0.1413 -2.67033 0.4116 -0.08031 0 -1.003883 0.3915 -1.124349 0.4417 -0.055326 0.04 -0.095984 0.097 -0.115713 0.1623 -0.019729 0.0654 -0.017436 0.1354 0.006527 0.1993 0.023963 0.0639 0.068266 0.1181 0.126088 0.1544 0.057822 0.0362 0.125957 0.0524 0.193913 0.0462 0.541274 -0.0882 1.088044 -0.1385 1.636334 -0.1506 0.65615 -0.0231 1.30845 -0.1105 1.94753 -0.261 0.75291 -0.251 0.84326 -1.0039 0 -1.0039Z" clip-rule="evenodd" stroke-width="1"></path>
</svg>