<svg xmlns="http://www.w3.org/2000/svg" fill="none" viewBox="0 0 24 24" id="Network-Router-Signal-1--Streamline-Freehand">
  <desc>
    Network Router Signal 1 Streamline Icon: https://streamlinehq.com
  </desc>
  <path fill="#000000" fill-rule="evenodd" d="M23.3995 16.0558c-0.1198 -0.9981 0.2495 -1.9164 -0.9981 -2.3555 -1.7042 -0.323 -3.4357 -0.4801 -5.1702 -0.4691 0.1557 -0.8492 0.1926 -1.7158 0.1098 -2.5751 -0.0898 -0.539 -0.2196 -1.06799 -0.2894 -1.587 -0.0144 -0.08627 -0.0589 -0.16466 -0.1256 -0.22121 -0.0667 -0.05654 -0.1513 -0.08758 -0.2387 -0.08758 -0.0875 0 -0.1721 0.03104 -0.2388 0.08758 -0.0667 0.05655 -0.1112 0.13494 -0.1256 0.22121 -0.2353 1.3716 -0.1946 2.7764 0.1198 4.1321 -3.6012 -0.1853 -7.21124 -0.0986 -10.79938 0.2595 -1.32747 0.1398 -3.70294 0 -4.691056 0.9482 -0.449144 0.4492 -0.329372 1.3674 -0.339353 1.9962 0 2.1659 -0.269486 2.9943 0.329372 2.9943 0.389257 0 0.369297 0 0.459127 -2.9444 0 -0.2894 0 -1.2376 0.12975 -1.3973 0.72861 -0.6887 3.04419 -0.5091 4.20198 -0.6089 3.95497 -0.2794 7.92536 -0.2594 11.87736 0.0599 6.1383 0.3593 4.4315 0.3194 4.5912 1.7467 0.1098 0.9981 0 2.7048 -0.7885 3.1739 -0.2595 0.1398 -3.9923 0.2196 -4.0622 0.2296 -2.3846 -0.111 -4.7735 -0.0943 -7.1564 0.0499 -2.36545 0.1797 -4.72096 0.509 -6.98664 0.7486 -1.99619 0.2096 -2.834592 -0.6288 -2.575087 0.0998 0.259505 0.7286 1.497147 0.6288 2.145907 0.6288 -0.46911 1.1578 -0.42918 0.4391 -0.4192 2.1459 -0.03537 0.055 -0.05551 0.1184 -0.05836 0.1837 -0.00285 0.0653 0.0117 0.1302 0.04215 0.1881 0.03045 0.0578 0.07572 0.1066 0.13117 0.1412 0.05546 0.0346 0.11912 0.0539 0.18447 0.0559 0.31939 0.0699 0.50903 -0.509 0.54895 -0.5988 0.20275 -0.286 0.33701 -0.6148 0.39239 -0.9609 0.05538 -0.3462 0.03041 -0.7004 -0.073 -1.0353l0 -0.0599v-0.0599c3.7769 -0.4673 7.58545 -0.6275 11.38825 -0.4791 1.2648 0.1035 2.5345 0.1335 3.8028 0.0898 -0.1697 0.6987 0.6986 2.7149 0.7386 2.8945 0.0143 0.0863 0.0588 0.1647 0.1255 0.2212 0.0667 0.0566 0.1513 0.0876 0.2388 0.0876 0.0874 0 0.172 -0.031 0.2388 -0.0876 0.0667 -0.0565 0.1112 -0.1349 0.1255 -0.2212 0.1137 -0.5049 0.106 -1.0297 -0.0224 -1.5311 -0.1284 -0.5014 -0.3738 -0.9652 -0.7162 -1.3534l0 -0.0499c0.9282 -0.0599 1.3474 0 1.7666 0 1.9064 -0.2795 2.4054 -2.7348 2.1859 -4.701Z" clip-rule="evenodd" stroke-width="1"></path>
  <path fill="#000000" fill-rule="evenodd" d="M14.0473 7.38232c-0.0262 0.03276 -0.0457 0.07037 -0.0574 0.11068 -0.0117 0.04031 -0.0153 0.08252 -0.0107 0.12422 0.0047 0.04171 0.0175 0.0821 0.0377 0.11885 0.0202 0.03676 0.0475 0.06918 0.0803 0.09539 0.0328 0.02621 0.0704 0.04572 0.1107 0.0574 0.0403 0.01168 0.0825 0.0153 0.1242 0.01067 0.0417 -0.00464 0.0821 -0.01744 0.1189 -0.03768 0.0367 -0.02024 0.0691 -0.04753 0.0953 -0.0803 0.263 -0.28816 0.6139 -0.48118 0.9981 -0.54895 0.6129 -0.10942 1.2431 -0.06832 1.8365 0.11977 0.4226 0.14271 0.8079 0.378 1.1279 0.68869 0.0295 0.03736 0.066 0.06854 0.1076 0.09176 0.0415 0.02323 0.0872 0.03804 0.1345 0.04361 0.0473 0.00556 0.0952 0.00175 0.141 -0.0112 0.0458 -0.01295 0.0886 -0.03479 0.1259 -0.06428 0.0374 -0.0295 0.0685 -0.06606 0.0918 -0.1076 0.0232 -0.04154 0.038 -0.08725 0.0436 -0.13452 0.0055 -0.04726 0.0017 -0.09516 -0.0112 -0.14096 -0.013 -0.0458 -0.0348 -0.0886 -0.0643 -0.12595 -1.2776 -2.03612 -3.8028 -2.27566 -5.0304 -0.2096Z" clip-rule="evenodd" stroke-width="1"></path>
  <path fill="#000000" fill-rule="evenodd" d="M20.7445 6.29439c0.0377 -0.02924 0.0692 -0.06569 0.0927 -0.10723 0.0234 -0.04155 0.0384 -0.08734 0.044 -0.13473 0.0056 -0.04738 0.0016 -0.0954 -0.0115 -0.14126 -0.0132 -0.04585 -0.0354 -0.08862 -0.0653 -0.12581 -1.6668 -2.40541 -4.2719 -3.49334 -6.9867 -2.07604 -0.679 0.32069 -1.2997 0.75248 -1.8365 1.27756 -0.0436 0.06441 -0.063 0.14218 -0.0548 0.21955 0.0082 0.07736 0.0435 0.14932 0.0997 0.20312 0.0562 0.0538 0.1296 0.08598 0.2073 0.09082 0.0776 0.00485 0.1545 -0.01795 0.2169 -0.06434 0.7003 -0.51402 1.504 -0.86954 2.3554 -1.04189 0.8515 -0.17235 1.7302 -0.1574 2.5752 0.04379 2.5851 0.71863 2.7648 2.33555 3.3636 1.85646Z" clip-rule="evenodd" stroke-width="1"></path>
  <path fill="#000000" fill-rule="evenodd" d="M10.9831 3.67938C12.64 0.9945 17.4807 0.555337 19.8662 2.18223c0.732 0.43924 1.4032 0.9728 1.9962 1.58698 0.0609 0.07676 0.1497 0.1262 0.2471 0.13743 0.0973 0.01123 0.1951 -0.01666 0.2719 -0.07755 0.0768 -0.06088 0.1262 -0.14977 0.1374 -0.2471 0.0113 -0.09733 -0.0166 -0.19514 -0.0775 -0.27191 -0.5808 -0.71852 -1.2517 -1.35925 -1.9962 -1.90636 -3.1839 -2.59505 -8.404 -1.39733588 -10.0608 1.99619 -0.0371 0.07942 -0.0411 0.1703 -0.0111 0.25266 0.0299 0.08236 0.0914 0.14944 0.1708 0.1865 0.0794 0.03706 0.1703 0.04106 0.2526 0.01111 0.0824 -0.02995 0.1495 -0.09139 0.1865 -0.1708Z" clip-rule="evenodd" stroke-width="1"></path>
  <path fill="#000000" fill-rule="evenodd" d="M5.75311 18.4412c0.13791 -0.1908 0.23163 -0.41 0.27437 -0.6415 0.04273 -0.2316 0.0334 -0.4697 -0.02731 -0.6972 -0.06071 -0.2275 -0.17128 -0.4386 -0.3237 -0.6181s-0.34287 -0.3228 -0.55753 -0.4195c-0.21466 -0.0968 -0.44816 -0.1445 -0.68357 -0.1399 -0.23542 0.0047 -0.46684 0.0617 -0.67749 0.1669 -0.21066 0.1052 -0.39527 0.2559 -0.54044 0.4413 -0.14518 0.1854 -0.24729 0.4007 -0.29893 0.6305 -0.08926 0.3215 -0.08402 0.6619 0.0151 0.9805s0.28793 0.6019 0.54384 0.816c0.17812 0.1321 0.3827 0.224 0.59971 0.2696 0.21701 0.0455 0.4413 0.0436 0.65748 -0.0057 0.21618 -0.0493 0.41913 -0.1448 0.59493 -0.28 0.1758 -0.1351 0.32029 -0.3067 0.42354 -0.5029Zm-1.75665 -1.2376c0.27947 -0.9183 1.57699 -0.5789 0.99809 0.4391 -0.38925 0.8484 -1.17775 0.2496 -0.99809 -0.4391Z" clip-rule="evenodd" stroke-width="1"></path>
  <path fill="#000000" fill-rule="evenodd" d="M10.3444 17.9023c0.9082 -1.8266 -3.29377 -3.2838 -3.09415 -0.4292 0.0218 0.3616 0.17659 0.7023 0.43457 0.9566 0.25798 0.2543 0.60091 0.4041 0.96277 0.4207 0.34018 -0.0003 0.67462 -0.0876 0.97158 -0.2536 0.29696 -0.1659 0.54663 -0.405 0.72523 -0.6945Zm-1.99624 -0.7287c0 -1.527 2.27564 0.7486 0.33935 0.4592 -0.19962 -0.01 -0.29943 -0.2496 -0.29943 -0.4592h-0.03992Z" clip-rule="evenodd" stroke-width="1"></path>
</svg>