<svg xmlns="http://www.w3.org/2000/svg" fill="none" viewBox="0 0 24 24" id="Network-Router-Signal-Double--Streamline-Freehand">
  <desc>
    Network Router Signal Double Streamline Icon: https://streamlinehq.com
  </desc>
  <path fill="#000000" fill-rule="evenodd" d="M22.4745 15.0007c-0.9734 -0.1805 -1.96 -0.2809 -2.9498 -0.3 0.0191 -0.7331 0.0825 -1.4644 0.19 -2.1899 0.0412 -1.2365 -0.0764 -2.4731 -0.35 -3.6797 0 -0.09812 -0.039 -0.19223 -0.1084 -0.26161 -0.0694 -0.06938 -0.1635 -0.10836 -0.2616 -0.10836 -0.0981 0 -0.1922 0.03898 -0.2616 0.10836 -0.0694 0.06938 -0.1083 0.16349 -0.1083 0.26161 -0.2338 1.9468 -0.1833 3.9173 0.1499 5.8496 -14.70889 -0.38 -12.48905 0.5099 -12.68904 0 -0.19999 -0.51 0.27998 -1.5399 0.19999 -3.1498l-0.35998 -2.36982c0 -0.09813 -0.03898 -0.19223 -0.10836 -0.26161 -0.06938 -0.06939 -0.16349 -0.10837 -0.26161 -0.10837 -0.09812 0 -0.19223 0.03898 -0.26161 0.10837 -0.06939 0.06938 -0.10836 0.16348 -0.10836 0.26161 -0.08 1.38992 -0.34998 4.42972 0.27998 5.66962 -0.84994 0.07 -2.14985 0.05 -3.18977 0.2199 -2.069853 0.35 -1.849869 1.08 -1.859869 2.1999 0 0.6299 -0.079994 1.4899 -0.079994 1.8799 -0.008805 0.1278 0.027345 0.2548 0.102201 0.3589 0.074857 0.104 0.183718 0.1787 0.307769 0.211 0.097326 -0.0025 0.189968 -0.0423 0.258813 -0.1112 0.06884 -0.0688 0.10863 -0.1614 0.11116 -0.2588 0 -1.5199 0 -0.7899 0.07999 -2.0598 0 -0.26 0 -0.9299 0.09 -0.9999 0.74994 -0.56 3.17977 -0.41 4.29969 -0.48 2.11984 -0.14 3.64973 -0.15 5.4996 -0.14 -0.06 0.76 0 2.5498 0.62 3.0498 0.6199 0.4999 5.8995 0.17 7.7494 -0.07 0.1337 -0.0061 0.2641 -0.0437 0.3805 -0.1098 0.1164 -0.066 0.2156 -0.1586 0.2894 -0.2702 0.1758 -0.7362 0.2265 -1.4968 0.15 -2.2498 0.6719 0.0126 1.3413 0.0862 1.9999 0.22 0.239 1.1441 0.2117 2.3279 -0.08 3.4597 -0.1 0 -19.13862 0.81 -20.31853 0.76 -1.179919 -0.05 -0.999932 -0.36 -1.279912 -0.25 -0.279979 0.11 -0.279979 0.6599 0.479962 0.8399 0.5046 0.0916 1.01719 0.1318 1.52989 0.12l-0.24998 0.51c-0.17999 0.4299 -0.48996 2.2498 0.12999 2.2498 0.76995 0.16 0.84994 -2.6998 0.87994 -2.7898 2.88979 -0.12 10.63924 -0.04 15.37884 -0.12 0.11 1.2399 0.83 2.9998 1.13 2.9998 0.0973 -0.0025 0.1899 -0.0423 0.2588 -0.1112 0.0688 -0.0688 0.1086 -0.1614 0.1111 -0.2588 0.1013 -0.4516 0.1055 -0.9195 0.0124 -1.3729 -0.0931 -0.4533 -0.2813 -0.8817 -0.5523 -1.2569 1.1099 0.0679 2.2236 -0.0401 3.2997 -0.32 0.73 -0.5399 0.67 -2.8198 0.54 -3.7197 -0.13 -0.8999 0.26 -1.6299 -1.0699 -1.9598Zm-3.1898 2.5598c-0.8278 0.0736 -1.6597 0.0903 -2.4898 0.05 -2.8998 0 -2.7698 0.13 -4.6297 0.14 -0.226 -0.6761 -0.3638 -1.3785 -0.41 -2.0899 3.2098 0 5.4397 0.17 7.6995 0.3 -0.005 0.5309 -0.0619 1.06 -0.17 1.5799v0.02Z" clip-rule="evenodd" stroke-width="1"></path>
  <path fill="#000000" fill-rule="evenodd" d="M16.9249 6.89133c-0.034 0.03246 -0.0606 0.07179 -0.0781 0.11536 -0.0175 0.04358 -0.0256 0.09039 -0.0236 0.13732 0.0021 0.04692 0.0141 0.09288 0.0353 0.13479 0.0212 0.04191 0.0511 0.07882 0.0877 0.10824 0.0366 0.02943 0.079 0.05071 0.1245 0.06241 0.0455 0.0117 0.093 0.01355 0.1392 0.00544 0.0463 -0.00811 0.0903 -0.02601 0.1291 -0.05249 0.0388 -0.02648 0.0715 -0.06094 0.0959 -0.10107 0.2008 -0.18225 0.4591 -0.2884 0.73 -0.3 0.4334 -0.07484 0.8765 -0.07484 1.31 0 0.3117 0.09862 0.6007 0.2584 0.85 0.47 0.061 0.07691 0.15 0.12644 0.2476 0.13769 0.0975 0.01126 0.1955 -0.01669 0.2724 -0.07769 0.0769 -0.061 0.1264 -0.15006 0.1377 -0.24757 0.0112 -0.09752 -0.0167 -0.19552 -0.0777 -0.27243 -0.98 -1.68 -3.09 -1.8 -3.98 -0.12Z" clip-rule="evenodd" stroke-width="1"></path>
  <path fill="#000000" fill-rule="evenodd" d="M3.35587 7.2813c-0.04161 0.06841 -0.05692 0.14962 -0.04309 0.22849 0.01383 0.07887 0.05587 0.15001 0.11827 0.20018 0.06241 0.05017 0.14093 0.07594 0.22092 0.0725 0.08 -0.00343 0.15602 -0.03583 0.2139 -0.09117 0.19175 -0.20282 0.45179 -0.32749 0.73 -0.35 0.4386 -0.04523 0.88171 -0.01479 1.31 0.09 0.3152 0.09043 0.60582 0.25112 0.85 0.47 0.061 0.07691 0.15005 0.12644 0.24757 0.1377 0.09752 0.01125 0.19551 -0.0167 0.27243 -0.0777 0.07691 -0.061 0.12644 -0.15005 0.13769 -0.24757 0.01125 -0.09752 -0.01669 -0.19552 -0.07769 -0.27243 -0.97 -1.71 -3.07 -1.87 -3.98 -0.16Z" clip-rule="evenodd" stroke-width="1"></path>
  <path fill="#000000" fill-rule="evenodd" d="M22.325 5.49154c0.0685 -0.05997 0.1126 -0.14312 0.1236 -0.23353 0.0111 -0.09041 -0.0116 -0.18173 -0.0636 -0.25647 -1.28 -1.95 -3.38 -2.84 -5.51 -1.68 -0.5091 0.28399 -0.9712 0.64491 -1.37 1.07 -0.3 0.32 0.18 0.77 0.47 0.46 0.5338 -0.35987 1.1361 -0.60596 1.7692 -0.72295 0.6331 -0.11699 1.2836 -0.10237 1.9108 0.04295 1.97 0.5 2.14 1.74 2.67 1.32Z" clip-rule="evenodd" stroke-width="1"></path>
  <path fill="#000000" fill-rule="evenodd" d="M8.81608 5.36174c-1.27 -1.92 -3.34 -2.82 -5.51 -1.65 -0.51174 0.2799 -0.97447 0.6413 -1.37 1.07 -0.05986 0.0616 -0.09335 0.14411 -0.09335 0.23 0 0.0859 0.03349 0.16841 0.09335 0.23 0.28 0.27 0.45 -0.08 1.07 -0.36 0.85611 -0.42268 1.82527 -0.55948 2.76492 -0.39027 0.93965 0.16921 1.80021 0.63549 2.45508 1.33027 0.061 0.07824 0.15059 0.12904 0.24904 0.14123 0.09846 0.01219 0.19773 -0.01523 0.27596 -0.07623 0.07824 -0.061 0.12905 -0.15058 0.14124 -0.24904 0.01219 -0.09845 -0.01524 -0.19772 -0.07624 -0.27596Z" clip-rule="evenodd" stroke-width="1"></path>
  <path fill="#000000" fill-rule="evenodd" d="M14.8151 3.00174c1.28 -1.94 5 -2.219999 6.69 -1.09 0.5489 0.33077 1.053 0.73071 1.5 1.19 0.061 0.07691 0.15 0.12644 0.2476 0.1377 0.0975 0.01125 0.1955 -0.0167 0.2724 -0.0777 0.0769 -0.061 0.1264 -0.15005 0.1377 -0.24757 0.0112 -0.09752 -0.0167 -0.19552 -0.0777 -0.27243 -0.4319 -0.56337 -0.9325 -1.07063 -1.49 -1.51 -0.5972 -0.471507 -1.2895 -0.80785 -2.0293 -0.985822 -0.7397 -0.1779726 -1.5093 -0.1933365 -2.2556 -0.045032 -0.7463 0.148304 -1.4515 0.456746 -2.067 0.904044 -0.6155 0.4473 -1.1266 1.0228 -1.4981 1.68681 -0.0238 0.07328 -0.0212 0.15257 0.0073 0.22413 0.0285 0.07156 0.0812 0.13089 0.1489 0.1677 0.0677 0.03681 0.1461 0.04877 0.2217 0.03383 0.0755 -0.01495 0.1435 -0.05586 0.1921 -0.11566Z" clip-rule="evenodd" stroke-width="1"></path>
  <path fill="#000000" fill-rule="evenodd" d="M1.24608 3.40174c1.28 -1.94 5 -2.22 6.69 -1.09 0.54758 0.32484 1.05162 0.718 1.5 1.17 0.03152 0.03743 0.0701 0.06828 0.11354 0.0908 0.04344 0.02251 0.09089 0.03625 0.13964 0.04043 0.04875 0.00418 0.09785 -0.00128 0.14449 -0.01608 0.04664 -0.01479 0.0899 -0.03863 0.12733 -0.07015 0.03743 -0.03152 0.06832 -0.0701 0.09082 -0.11354 0.0225 -0.04344 0.0362 -0.09089 0.0404 -0.13964 0.0042 -0.04875 -0.0013 -0.09785 -0.0161 -0.14448 -0.0148 -0.04664 -0.0386 -0.08991 -0.0701 -0.12734 -0.43739 -0.5556 -0.93736 -1.05892 -1.49002 -1.5 -0.5976 -0.47057 -1.29032 -0.805668 -2.03021 -0.982098C5.74598 0.343212 4.97659 0.329663 4.23095 0.479933c-0.74565 0.15027 -1.44973 0.46077 -2.06353 0.910007 -0.6138 0.44924 -1.12265 1.02649 -1.491338 1.6918 -0.029024 0.07415 -0.030256 0.1563 -0.003469 0.23129 0.026787 0.07499 0.079786 0.13776 0.149222 0.17675 0.069436 0.03898 0.150626 0.05154 0.228595 0.03536 0.07797 -0.01618 0.14746 -0.06001 0.19565 -0.1234Z" clip-rule="evenodd" stroke-width="1"></path>
  <path fill="#000000" fill-rule="evenodd" d="M4.10588 18.6705c0.16114 -0.3072 0.23056 -0.6544 0.20001 -1 0 -0.22 -0.31001 -0.88 -0.53001 -0.91 -0.53 -0.32 -1.1 2.25 0 2.25 0.0861 -0.0091 0.16627 -0.0481 0.22657 -0.1102 0.06029 -0.0621 0.0969 -0.1434 0.10343 -0.2298Z" clip-rule="evenodd" stroke-width="1"></path>
  <path fill="#000000" fill-rule="evenodd" d="M6.6157 18.6705c0.16622 -0.3054 0.23595 -0.6541 0.2 -1 0 -0.22 -0.3 -0.88 -0.53 -0.91 -0.53 -0.32 -1.09 2.25 0 2.25 0.08684 -0.0071 0.16813 -0.0455 0.22882 -0.108 0.06068 -0.0626 0.09663 -0.145 0.10118 -0.232Z" clip-rule="evenodd" stroke-width="1"></path>
</svg>