<svg xmlns="http://www.w3.org/2000/svg" fill="none" viewBox="0 0 24 24" id="Worldwide-Web-Sync--Streamline-Freehand">
  <desc>
    Worldwide Web Sync Streamline Icon: https://streamlinehq.com
  </desc>
  <path fill="#000000" fill-rule="evenodd" d="M14.6669 14.7535c-0.4392 0.5639 -0.7476 1.2184 -0.9029 1.9161 -0.0008 0.0734 0.0253 0.1446 0.0732 0.2001 0.048 0.0555 0.1146 0.0916 0.1873 0.1015 0.0727 0.0098 0.1465 -0.0072 0.2076 -0.048 0.061 -0.0407 0.105 -0.1024 0.1238 -0.1733 0.2068 -0.5326 0.5249 -1.0148 0.933 -1.4146 0.6914 -0.5944 1.558 -0.9467 2.468 -1.0032 0.7576 -0.1198 1.5338 -0.0006 2.2206 0.341 0.6868 0.3416 1.2501 0.8887 1.6118 1.5652 0.0451 0.0672 0.1127 0.1161 0.1907 0.1381 0.0779 0.022 0.1611 0.0155 0.2347 -0.0183s0.1328 -0.0927 0.167 -0.1661c0.0341 -0.0734 0.0411 -0.1566 0.0195 -0.2347 -0.2898 -0.7096 -0.7575 -1.3328 -1.358 -1.8093 -0.6005 -0.4765 -1.3136 -0.7903 -2.0706 -0.9113 -0.757 -0.1209 -1.5324 -0.0449 -2.2515 0.2207 -0.7191 0.2657 -1.3576 0.712 -1.8542 1.2961Z" clip-rule="evenodd" stroke-width="1"></path>
  <path fill="#000000" fill-rule="evenodd" d="M22.6527 20.512c-0.0757 -0.0152 -0.1543 -0.0008 -0.2197 0.0403 -0.0653 0.041 -0.1124 0.1057 -0.1314 0.1804 -0.0741 0.2065 -0.1865 0.397 -0.3311 0.5619 -0.3739 0.5045 -0.8681 0.9075 -1.4376 1.1721 -0.5695 0.2646 -1.1962 0.3824 -1.8229 0.3427 -0.7757 0.0362 -1.5439 -0.1654 -2.2019 -0.5778 -0.658 -0.4123 -1.1743 -1.0158 -1.48 -1.7296l1.7757 0.7825c0.0652 0.0426 0.1446 0.0575 0.2208 0.0415 0.0762 -0.016 0.143 -0.0616 0.1855 -0.1267 0.0426 -0.0652 0.0575 -0.1447 0.0415 -0.2209 -0.016 -0.0762 -0.0616 -0.1429 -0.1267 -0.1855 -0.6375 -0.5298 -1.3076 -1.019 -2.0065 -1.4647 -0.2508 -0.1404 -0.5518 -0.4013 -0.9431 -0.2909 -0.6721 0.1605 -0.4514 1.0032 -1.1637 2.7689v0.0602c0 0.1706 0.1204 0.2608 0.2709 0.301 0.0465 0.0294 0.1004 0.045 0.1555 0.045 0.055 0 0.1089 -0.0156 0.1555 -0.045 0.318 -0.4517 0.587 -0.936 0.8025 -1.4447 0.2284 0.7331 0.64 1.3957 1.1958 1.9254 0.5558 0.5297 1.2375 0.9089 1.9807 1.1017 0.7432 0.1929 1.5233 0.193 2.2665 0.0003 0.7432 -0.1926 1.425 -0.5716 1.981 -1.1012 0.4214 -0.4013 1.5049 -1.9864 0.8327 -2.1369Z" clip-rule="evenodd" stroke-width="1"></path>
  <path fill="#000000" fill-rule="evenodd" d="M23.7462 15.867c-0.2909 -0.2106 -0.4615 0 -1.4146 1.7958l-2.1368 -1.0935c-0.031 -0.023 -0.0662 -0.0398 -0.1036 -0.0492 -0.0375 -0.0095 -0.0764 -0.0115 -0.1146 -0.0059s-0.0749 0.0187 -0.108 0.0384c-0.0332 0.0198 -0.0621 0.0459 -0.0852 0.0769 -0.023 0.031 -0.0398 0.0662 -0.0492 0.1036 -0.0095 0.0374 -0.0115 0.0763 -0.0059 0.1145s0.0187 0.075 0.0385 0.1081c0.0197 0.0332 0.0459 0.0621 0.0768 0.0851 0.7423 0.7135 1.5558 1.3488 2.4279 1.8962 0.134 0.0538 0.2815 0.0643 0.4218 0.0302 0.1403 -0.0342 0.2664 -0.1114 0.3607 -0.2209 0.0903 -0.1103 0.1204 -0.1605 0.622 -1.7757 0.2107 -0.5819 0.5718 -0.933 0.0702 -1.1036Z" clip-rule="evenodd" stroke-width="1"></path>
  <path fill="#000000" fill-rule="evenodd" d="M11.4566 20.9635c-1.1029 0.0002 -2.20273 -0.1175 -3.28061 -0.3511 -0.51325 -0.1141 -1.00682 -0.3035 -1.46473 -0.5618l-0.23074 -0.1505C-2.54861 15.7366 1.39411 1.94213 9.49023 0.838573 10.3163 0.624728 11.1791 0.593913 12.0184 0.748281c0.0479 -0.040069 0.0821 -0.094042 0.098 -0.154442 0.0158 -0.060399 0.0125 -0.124233 -0.0096 -0.182656 -0.022 -0.058423 -0.0617 -0.108543 -0.1135 -0.143413 -0.0518 -0.03487 -0.1131 -0.052765 -0.1756 -0.051204C6.39023 -0.565958 2.56789 2.86511 0.631648 8.01171 -0.2633 10.4038 -0.205368 13.0482 0.793479 15.3987c0.998851 2.3506 2.862311 4.2277 5.205481 5.2438 1.72553 0.8597 3.66103 1.2079 5.57804 1.0032 0.0904 -0.016 0.1708 -0.0672 0.2235 -0.1425 0.0527 -0.0752 0.0733 -0.1683 0.0574 -0.2588 -0.016 -0.0905 -0.0672 -0.1709 -0.1425 -0.2236 -0.0753 -0.0526 -0.1684 -0.0733 -0.2588 -0.0573Z" clip-rule="evenodd" stroke-width="1"></path>
  <path fill="#000000" fill-rule="evenodd" d="M12.1087 16.4489c-1.6797 0.0382 -3.3593 -0.0827 -5.01622 -0.3611 -0.30594 -1.4469 -0.42396 -2.9272 -0.35113 -4.4042 4.18765 0.3504 8.40025 0.2663 12.57055 -0.2508 1.0032 -0.1706 0.8528 -0.8127 -0.0602 -0.7525 -1.1437 0.1003 -2.6184 0.1405 -4.2537 0.1405 0.0521 -1.62612 -0.1476 -3.25049 -0.5919 -4.81556h3.4912c0.0905 0 0.1773 -0.03593 0.2412 -0.0999 0.064 -0.06397 0.0999 -0.15073 0.0999 -0.2412 0 -0.09046 -0.0359 -0.17722 -0.0999 -0.24119 -0.0639 -0.06397 -0.1507 -0.09991 -0.2412 -0.09991 -1.0032 0 -2.3475 -0.16052 -3.8223 -0.29094 -0.2508 -0.7123 -0.5217 -1.40453 -0.7925 -2.10679 -0.0299 -0.0666 -0.0829 -0.12008 -0.1493 -0.15048 -0.0663 -0.03041 -0.1415 -0.03567 -0.2114 -0.01482 -0.0699 0.02086 -0.1299 0.06642 -0.1688 0.1282 -0.0388 0.06178 -0.0539 0.13558 -0.0424 0.20765 0.1204 0.61197 0.2308 1.23398 0.3511 1.84595 -1.8058 -0.14045 -3.46113 -0.23074 -5.17666 -0.20065 0.39986 -1.17121 1.11078 -2.21159 2.05663 -3.00971 0 -0.32103 -0.22071 -0.44142 -1.51488 0.47153 -0.66205 0.76604 -1.18493 1.64204 -1.54499 2.58835 -0.79255 0 -1.53495 0.11035 -2.21715 0.20064 -1.26408 0.39127 -1.27411 0.64207 -0.62201 0.84272 0.82825 -0.06022 1.65978 -0.06022 2.48803 0 -0.44816 1.57057 -0.72401 3.18526 -0.82265 4.81551 -1.19386 0 -2.27735 -0.0903 -3.20033 -0.1605 -1.00323 0.3612 -1.00323 0.612 0 0.7324 1.00324 0.1204 2.00647 0.2809 3.17023 0.3912 -0.05325 1.4681 0.09528 2.9365 0.44142 4.3641l-2.73883 -0.4113c-0.76246 0.1003 -1.10356 0.6621 0.81262 1.0935 0.3411 0.1003 0.67217 0.2007 1.00324 0.2809 1.81585 0.4214 0.87281 -0.2408 1.82589 1.5751 0.17803 0.3475 0.37913 0.6826 0.60194 1.0032 0.46149 1.0033 0.84272 0.9431 1.20388 0.311 -0.61184 -0.7421 -1.07815 -1.593 -1.37443 -2.508 1.57053 0.1667 3.15625 0.1229 4.71525 -0.1305 0.0984 -0.008 0.1897 -0.0547 0.2536 -0.13 0.064 -0.0752 0.0954 -0.1728 0.0875 -0.2713 -0.008 -0.0984 -0.0548 -0.1897 -0.13 -0.2536 -0.0753 -0.064 -0.1729 -0.0954 -0.2713 -0.0875ZM7.55397 5.83469c1.32427 0 5.01623 0.16052 5.70843 0.17055 0.2909 1.49482 0.7324 2.35761 1.0735 4.81556 -1.6554 0 -6.75183 -0.1605 -7.50426 -0.1806 0.09696 -1.62018 0.3387 -3.22843 0.72233 -4.80551Z" clip-rule="evenodd" stroke-width="1"></path>
  <path fill="#000000" fill-rule="evenodd" d="M18.1582 2.89521c-1.0276 -0.76068 -2.1184 -1.43196 -3.2605 -2.006474 -0.0783 -0.029432 -0.1646 -0.029126 -0.2426 0.000861 -0.078 0.029987 -0.1422 0.087567 -0.1806 0.161813 -0.0384 0.07425 -0.0481 0.15999 -0.0275 0.24097 0.0207 0.08097 0.0704 0.15153 0.1397 0.1983 0.6239 0.37089 1.2268 0.77615 1.8058 1.21391 1.3034 0.89165 2.2904 2.17372 2.8191 3.66182 0.8234 1.65899 1.2233 3.49608 1.1637 5.34729 0.0037 0.0718 0.033 0.1399 0.0825 0.192 0.0496 0.0521 0.1161 0.0847 0.1877 0.092 0.0715 0.0073 0.1433 -0.0113 0.2023 -0.0523 0.059 -0.0411 0.1014 -0.1019 0.1194 -0.1715 0.2634 -1.5966 0.1463 -3.2328 -0.3418 -4.77557 -0.4881 -1.54278 -1.3334 -2.94858 -2.4672 -4.10312Z" clip-rule="evenodd" stroke-width="1"></path>
</svg>