<svg xmlns="http://www.w3.org/2000/svg" fill="none" viewBox="0 0 14 14" id="Incoming-Call--Streamline-Core-Remix">
  <desc>
    Incoming Call Streamline Icon: https://streamlinehq.com
  </desc>
  <g id="Free Remix/Phone/incoming-call--android-phone-mobile-device-smartphone-iphone-ringing-incoming-call">
    <path id="Union" fill="#000000" fill-rule="evenodd" d="M1.65448 5.08688 2.84047 3.9009 0.344901 1.40533c-0.2928933 -0.29289 -0.2928933 -0.767767 0 -1.06066 0.292894 -0.2928933 0.767769 -0.2928932 1.060659 0l2.49557 2.49557 1.18603 -1.18603c0.17875 -0.17875 0.44757 -0.23223 0.68112 -0.13549 0.23354 0.09674 0.38582 0.32464 0.38582 0.57743l0 3.43268c0 0.34517 -0.27982 0.625 -0.625 0.625l-3.43268 -0.00001c-0.25279 0 -0.48068 -0.15227 -0.57742 -0.38582 -0.09674 -0.23354 -0.04327 -0.50237 0.13548 -0.68112Zm8.84822 -2.68953c0.5865 -0.58023 1.548 -0.58023 2.1345 0l0 -0.00001 0.0024 0.00238 0.3694 0.36945c1.0941 1.06403 1.3027 2.78733 0.4934 4.08171 -0.0038 0.006 -0.0076 0.01194 -0.0116 0.01781 -1.7551 2.60576 -3.99724 4.84791 -6.60301 6.60301l0.00008 0.0001 -0.01087 0.007c-1.2822 0.8256 -3.00641 0.6415 -4.08527 -0.4364l-0.00022 -0.0002 -0.37269 -0.3727 -0.00237 -0.0024c-0.58023 -0.5865 -0.58023 -1.548 0 -2.1345l-0.00001 0 0.00377 -0.0037 1.56881 -1.55902 0.31513 -0.2395c-0.00017 0.0001 -0.00033 0.00019 -0.0005 0.00028l-0.31422 0.2388c0.09572 -0.09522 0.20157 -0.17482 0.31422 -0.2388l4.30888 -3.27464c-0.14612 -0.509 -0.02205 -1.08266 0.37223 -1.48185L10.492 2.40824l0.0107 -0.01089Zm0.6455 1.13159L8.61253 5.45602c0 0.00001 0 0.00002 0.00001 0.00004L11.1482 3.529l0 -0.00006Zm0.4168 -0.31672 1.0722 -0.81487 -1.0722 0.81487c0.0705 -0.0012 0.1414 0.02311 0.1923 0.07294l0.3711 0.37113 0.0069 0.00686 0 -0.00005c0.6717 0.65117 0.804 1.72144 0.3125 2.51663 -1.663 2.46632 -3.78598 4.58887 -6.25264 6.25137 -0.78714 0.5034 -1.8584 0.3878 -2.51976 -0.2728l-0.00021 -0.0002 -0.37012 -0.3701 -0.00083 -0.0008c-0.09713 -0.0992 -0.09728 -0.2747 -0.00045 -0.3741l1.56675 -1.55699 0.00042 -0.00041c0.0958 -0.09539 0.26782 -0.09539 0.36363 0l0.00141 0.0014c0.58651 0.5802 1.54799 0.5802 2.1345 0l0.00239 -0.00237 -0.00001 0 2.50095 -2.50095 0.00238 -0.00238 -0.00001 0c0.5802 -0.58651 0.5802 -1.548 0 -2.1345l-0.0014 -0.00142c-0.09539 -0.0958 -0.09539 -0.26782 0 -0.36362l0.00746 -0.00749 -0.00007 -0.00007L11.1482 3.529l0.4168 -0.31678Zm0 0 -0.4168 0.31672 0.2374 -0.24662c0.0482 -0.04562 0.1136 -0.06898 0.1794 -0.0701ZM8.61254 5.45606 4.30415 8.73038c0.57383 -0.32559 1.32411 -0.24599 1.81168 0.2388 0.09931 0.09742 0.27534 0.09746 0.37472 0.00011l2.49784 -2.49784c0.09759 -0.09962 0.09731 -0.27625 -0.00081 -0.37543l0.44431 -0.43956 -0.44291 0.44097c-0.18334 -0.18415 -0.30882 -0.40584 -0.37644 -0.64137Z" clip-rule="evenodd" stroke-width="1"></path>
  </g>
</svg>