<svg xmlns="http://www.w3.org/2000/svg" fill="none" viewBox="0 0 14 14" id="Missed-Call--Streamline-Core-Remix">
  <desc>
    Missed Call Streamline Icon: https://streamlinehq.com
  </desc>
  <g id="Free Remix/Phone/missed-call--android-phone-mobile-device-smartphone-iphone-missed-call">
    <path id="Union" fill="#000000" fill-rule="evenodd" d="M5.03722 0h2.64489c0.13261 0 0.25979 0.0526784 0.35356 0.146447 0.09377 0.093768 0.14645 0.220945 0.14645 0.353553v2.6449c0 0.20223 -0.12183 0.38454 -0.30866 0.46194 -0.18684 0.07739 -0.4019 0.03461 -0.5449 -0.10839l-0.70468 -0.70468L4.58843 4.8267c-0.73208 0.73117 -1.91808 0.73113 -2.6501 -0.0001L0.256973 3.14707C-0.0849209 2.80555 -0.0852222 2.25153 0.2563 1.90963c0.341522 -0.34189 0.89554 -0.34219 1.23744 -0.00067l1.68135 1.67953c0.0488 0.04874 0.12787 0.04875 0.17667 0l2.03469 -2.03216 -0.70278 -0.702776c-0.143 -0.142999 -0.18578 -0.358058 -0.10839 -0.544895C4.65267 0.121822 4.83499 0 5.03722 0Zm5.46548 2.39734c0.5865 -0.58024 1.548 -0.58024 2.1345 0l0 -0.00001 0.0024 0.00237 0.3694 0.36945c1.0941 1.06404 1.3027 2.78734 0.4934 4.08171 -0.0038 0.006 -0.0076 0.01194 -0.0116 0.01782 -1.7551 2.60576 -3.99724 4.84782 -6.60301 6.60302l0.00008 0.0001 -0.01087 0.007c-1.2822 0.8256 -3.00641 0.6414 -4.08527 -0.4364l-0.00022 -0.0002 -0.37269 -0.3727 -0.00237 -0.0024c-0.58023 -0.5865 -0.58023 -1.548 0 -2.1345l-0.00001 0 0.00377 -0.0037 1.56881 -1.55904 0.31512 -0.23949c-0.00016 0.00009 -0.00032 0.00018 -0.00049 0.00028l-0.31422 0.2388c0.09572 -0.09523 0.20157 -0.17483 0.31422 -0.2388L8.61253 5.456c-0.14612 -0.509 -0.02205 -1.08266 0.37223 -1.48184L10.492 2.40823l0.0107 -0.01089Zm0.6455 1.13158L8.61253 5.456c0 0.00001 0 0.00003 0.00001 0.00004l2.53566 -1.92706 0 -0.00006Zm0.4168 -0.31672 1.0722 -0.81486 -1.0722 0.81486c0.0705 -0.0012 0.1414 0.02312 0.1923 0.07294l0.3711 0.37114 0.0069 0.00686 0 -0.00006c0.6717 0.65118 0.804 1.72144 0.3125 2.51664 -1.663 2.46632 -3.78598 4.58888 -6.25264 6.25138 -0.78714 0.5034 -1.8584 0.3877 -2.51976 -0.2728l-0.00021 -0.0002 -0.37012 -0.3701 -0.00083 -0.0008c-0.09713 -0.0992 -0.09728 -0.2747 -0.00045 -0.3741l1.56675 -1.557 0.00042 -0.00042c0.0958 -0.09539 0.26782 -0.09539 0.36363 0l0.00141 0.0014c0.58651 0.58022 1.54799 0.58022 2.1345 0l0.00239 -0.00236 -0.00001 -0.00001 2.50095 -2.50095 0.00238 -0.00237 -0.00001 -0.00001c0.5802 -0.58651 0.5802 -1.54799 0 -2.1345l-0.0014 -0.00141c-0.09539 -0.0958 -0.09539 -0.26783 0 -0.36363l0.00746 -0.00749 -0.00007 -0.00006 1.26601 -1.31531 0.4168 -0.31678Zm0 0 -0.4168 0.31672 0.2374 -0.24662c0.0482 -0.04561 0.1136 -0.06898 0.1794 -0.0701ZM8.61254 5.45604l-4.3084 3.27433c0.57384 -0.3256 1.32412 -0.246 1.81169 0.23879 0.09931 0.09743 0.27534 0.09746 0.37472 0.00011l2.49784 -2.49784c0.09759 -0.09961 0.09731 -0.27624 -0.00081 -0.37543l0.44431 -0.43956 -0.44291 0.44097c-0.18334 -0.18414 -0.30882 -0.40583 -0.37644 -0.64137Z" clip-rule="evenodd" stroke-width="1"></path>
  </g>
</svg>