<svg xmlns="http://www.w3.org/2000/svg" fill="none" viewBox="0 0 14 14" id="Phone-Qr--Streamline-Core-Remix">
  <desc>
    Phone Qr Streamline Icon: https://streamlinehq.com
  </desc>
  <g id="Free Remix/Phone/phone-qr--android-phone-mobile-device-smartphone-iphone-qr-code-scan">
    <path id="Union" fill="#000000" fill-rule="evenodd" d="M3.5672 1.25c-0.19649 0 -0.35577 0.15928 -0.35577 0.35577V12.3942c0 0.1965 0.15928 0.3558 0.35577 0.3558h6.8654c0.1965 0 0.3557 -0.1593 0.3557 -0.3558V1.60577c0 -0.19649 -0.1592 -0.35577 -0.3557 -0.35577H3.5672Zm-1.60577 0.35577C1.96143 0.718927 2.68035 0 3.5672 0h6.8654c0.8868 0 1.6057 0.718927 1.6057 1.60577V12.3942c0 0.8869 -0.7189 1.6058 -1.6057 1.6058H3.5672c-0.88685 0 -1.60577 -0.7189 -1.60577 -1.6058V1.60577ZM3.92285 3.0769c0 -0.34517 0.27982 -0.625 0.625 -0.625h0.98077c0.34518 0 0.625 0.27983 0.625 0.625 0 0.34518 -0.27982 0.625 -0.625 0.625h-0.35577v0.84616c0 0.34518 -0.27982 0.625 -0.625 0.625s-0.625 -0.27982 -0.625 -0.625V3.0769Zm5.52887 3.78858c0.34517 0 0.62498 0.27982 0.62498 0.625v0.98077c0 0.34518 -0.27981 0.625 -0.62498 0.625h-0.98077c-0.34518 0 -0.625 -0.27982 -0.625 -0.625s0.27982 -0.625 0.625 -0.625h0.35577v-0.35577c0 -0.34518 0.27982 -0.625 0.625 -0.625ZM4.54785 6.375c-0.34518 0 -0.625 0.27982 -0.625 0.625s0.27982 0.625 0.625 0.625h0.84616v0.84615c0 0.34518 0.27982 0.625 0.625 0.625 0.34517 0 0.625 -0.27982 0.625 -0.625V7c0 -0.34518 -0.27983 -0.625 -0.625 -0.625H4.54785Zm2.80786 -3.2981c0 -0.34517 0.27982 -0.625 0.625 -0.625h1.47116c0.34517 0 0.62503 0.27983 0.62503 0.625v2.45193c0 0.34518 -0.27986 0.625 -0.62503 0.625 -0.34518 0 -0.625 -0.27982 -0.625 -0.625V3.7019h-0.84616c-0.34518 0 -0.625 -0.27982 -0.625 -0.625Zm-0.56668 1.40266c-0.30874 -0.15437 -0.68416 -0.02923 -0.83853 0.27951 -0.15436 0.30873 -0.02922 0.68415 0.27951 0.83852l0.98077 0.49039c0.30874 0.15436 0.68416 0.02922 0.83853 -0.27951 0.15437 -0.30874 0.02923 -0.68416 -0.27951 -0.83853l-0.98077 -0.49038ZM6.50952 9.7981c-0.48325 0 -0.875 0.3917 -0.875 0.875 0 0.4832 0.39175 0.875 0.875 0.875h0.98077c0.48325 0 0.875 -0.3918 0.875 -0.875 0 -0.4833 -0.39175 -0.875 -0.875 -0.875h-0.98077Z" clip-rule="evenodd" stroke-width="1"></path>
  </g>
</svg>