<svg xmlns="http://www.w3.org/2000/svg" fill="none" viewBox="0 0 14 14" id="Shipping-Box-2--Streamline-Flex">
  <desc>
    Shipping Box 2 Streamline Icon: https://streamlinehq.com
  </desc>
  <g id="shipping-box-2--box-package-label-delivery-shipment-shipping-3d">
    <path id="Subtract" stroke="#000000" stroke-linecap="round" stroke-linejoin="round" d="M11.71 2.995a20.637 20.637 0 0 1 -0.64 -1.374 1.074 1.074 0 0 0 -0.888 -0.677A32.821 32.821 0 0 0 7 0.787c-1.269 0 -2.148 0.065 -3.211 0.16a1.058 1.058 0 0 0 -0.868 0.64c-0.17 0.39 -0.363 0.782 -0.559 1.18 -0.395 0.804 -0.802 1.63 -1.06 2.524 0.17 -0.269 0.46 -0.453 0.794 -0.479 0.295 -0.022 0.593 -0.046 0.892 -0.07C4.284 4.635 5.626 4.526 7 4.526c1.374 0 2.716 0.109 4.011 0.214 0.3 0.025 0.597 0.049 0.892 0.071 0.333 0.026 0.623 0.21 0.793 0.477 -0.268 -0.85 -0.633 -1.583 -0.986 -2.294Z" stroke-width="1"></path>
    <path id="Vector" stroke="#000000" stroke-linecap="round" stroke-linejoin="round" d="m7 4.527 0 -3.74" stroke-width="1"></path>
    <path id="Intersect" stroke="#000000" stroke-linecap="round" stroke-linejoin="round" d="M1.155 12.061c0.074 0.469 0.464 0.83 0.941 0.867 1.569 0.12 3.211 0.285 4.904 0.285 1.692 0 3.335 -0.165 4.903 -0.285 0.477 -0.037 0.867 -0.398 0.94 -0.867 0.162 -1.024 0.355 -2.093 0.355 -3.19 0 -1.1 -0.193 -2.167 -0.354 -3.192a1.034 1.034 0 0 0 -0.941 -0.867c-1.568 -0.12 -3.211 -0.285 -4.903 -0.285 -1.693 0 -3.335 0.165 -4.904 0.285a1.033 1.033 0 0 0 -0.94 0.867C0.993 6.704 0.801 7.772 0.801 8.87c0 1.098 0.192 2.167 0.353 3.191Z" stroke-width="1"></path>
    <path id="Vector_2" stroke="#000000" stroke-linecap="round" stroke-linejoin="round" d="M8.692 10.575h2.021" stroke-width="1"></path>
  </g>
</svg>