<svg xmlns="http://www.w3.org/2000/svg" fill="none" viewBox="0 0 14 14" id="Transfer-Truck-Time--Streamline-Flex">
  <desc>
    Transfer Truck Time Streamline Icon: https://streamlinehq.com
  </desc>
  <g id="transfer-truck-time--truck-shipping-delivery-time-waiting-delay-transfer">
    <path id="Vector" stroke="#000000" stroke-linecap="round" stroke-linejoin="round" d="M7.23187 7.82886h1.47126c0.36959 0 0.72405 0.14682 0.98539 0.40816s0.40818 0.6158 0.40818 0.98539v1.78709c0 0.5523 -0.44774 1 -1.00002 1h-0.54903" stroke-width="1"></path>
    <path id="Intersect" stroke="#000000" stroke-linecap="round" stroke-linejoin="round" d="M4.19221 12.1711c0.65127 0 1.28802 -0.0653 1.90465 -0.1324m-4.34124 -0.0736c-0.27701 -0.0895 -0.48495 -0.3341 -0.52011 -0.6318 -0.08016 -0.6788 -0.17203 -1.38557 -0.17203 -2.11154 0 -0.72596 0.09187 -1.43273 0.17203 -2.11152 0.04132 -0.34988 0.32131 -0.62648 0.67161 -0.66403 0.73398 -0.0787 1.49896 -0.17375 2.28509 -0.17375 0.78613 0 1.55112 0.09505 2.28509 0.17375 0.3503 0.03755 0.63029 0.31415 0.67161 0.66403 0.08017 0.67879 0.17204 1.38556 0.17204 2.11152 0 0.58901 -0.06048 1.16534 -0.12611 1.72444" stroke-width="1"></path>
    <path id="Vector_2" stroke="#000000" stroke-linecap="round" stroke-linejoin="round" d="M2.96729 13.4031c0.78843 0 1.23193 -0.4435 1.23193 -1.232 0 -0.7884 -0.4435 -1.2319 -1.23193 -1.2319 -0.78844 0 -1.23194 0.4435 -1.23194 1.2319 0 0.7885 0.4435 1.232 1.23194 1.232Z" stroke-width="1"></path>
    <path id="Vector_3" stroke="#000000" stroke-linecap="round" stroke-linejoin="round" d="M7.3208 13.4031c0.78844 0 1.23193 -0.4435 1.23193 -1.232 0 -0.7884 -0.44349 -1.2319 -1.23193 -1.2319s-1.23193 0.4435 -1.23193 1.2319c0 0.7885 0.44349 1.232 1.23193 1.232Z" stroke-width="1"></path>
    <path id="Vector_4" stroke="#000000" stroke-linecap="round" stroke-linejoin="round" d="m9.09473 4.51605 0.91597 -0.91595" stroke-width="1"></path>
    <path id="Vector_5" stroke="#000000" stroke-linecap="round" stroke-linejoin="round" d="M11.5863 7.38683c0.7232 -0.61598 1.1079 -1.5776 1.1079 -2.83849 0 -2.32422 -1.3073 -3.631592 -3.63155 -3.631592 -2.1207 0 -3.39484 1.088442 -3.60171 3.044642" stroke-width="1"></path>
  </g>
</svg>