<svg xmlns="http://www.w3.org/2000/svg" fill="none" viewBox="0 0 48 48" id="Command--Streamline-Plump">
  <desc>
    Command Streamline Icon: https://streamlinehq.com
  </desc>
  <g id="command--mac-command-apple-keyboard">
    <path id="Vector (Stroke)" fill="#8fbffa" fill-rule="evenodd" d="M1.504 10.857A9.357 9.357 0 0 1 10.86 1.5c4.59 0 8.641 3.396 8.977 8.23 0.07 1.012 0.14 2.178 0.2 3.503a267.899 267.899 0 0 0 7.931 0c0.062 -1.325 0.13 -2.49 0.201 -3.503 0.336 -4.834 4.388 -8.23 8.977 -8.23a9.357 9.357 0 0 1 9.357 9.357c0 4.59 -3.396 8.641 -8.23 8.977 -1.012 0.07 -2.178 0.14 -3.503 0.2a267.899 267.899 0 0 0 0 7.931c1.325 0.062 2.49 0.13 3.503 0.201 4.834 0.336 8.23 4.388 8.23 8.977a9.357 9.357 0 0 1 -9.357 9.357c-4.59 0 -8.641 -3.396 -8.977 -8.23a152.02 152.02 0 0 1 -0.2 -3.503 267.899 267.899 0 0 0 -7.932 0 152.02 152.02 0 0 1 -0.2 3.503c-0.336 4.834 -4.388 8.23 -8.977 8.23a9.357 9.357 0 0 1 -9.357 -9.357c0 -4.59 3.396 -8.641 8.23 -8.977 1.012 -0.07 2.178 -0.14 3.503 -0.2a267.899 267.899 0 0 0 0 -7.931c-1.325 -0.062 -2.49 -0.13 -3.503 -0.201 -4.834 -0.336 -8.23 -4.388 -8.23 -8.977Zm11.516 2.16c-0.052 -1.05 -0.108 -1.983 -0.165 -2.802C12.79 9.303 12.03 8.5 10.86 8.5a2.357 2.357 0 0 0 -2.357 2.357c0 1.17 0.802 1.93 1.715 1.994 0.82 0.057 1.752 0.113 2.801 0.165Zm7.22 7.22a276.37 276.37 0 0 1 0 7.526 276.37 276.37 0 0 1 7.527 0 276.37 276.37 0 0 1 0 -7.526 276.36 276.36 0 0 1 -7.526 0Zm-7.22 14.747c-1.05 0.052 -1.982 0.108 -2.801 0.165 -0.913 0.064 -1.715 0.823 -1.715 1.994A2.357 2.357 0 0 0 10.86 39.5c1.17 0 1.93 -0.803 1.994 -1.715 0.057 -0.82 0.113 -1.752 0.165 -2.801Zm21.968 0c0.052 1.05 0.108 1.982 0.165 2.801 0.064 0.913 0.823 1.715 1.994 1.715a2.357 2.357 0 0 0 2.357 -2.357c0 -1.17 -0.803 -1.93 -1.715 -1.994a141.65 141.65 0 0 0 -2.801 -0.165Zm0 -21.968c1.05 -0.052 1.982 -0.108 2.801 -0.165 0.912 -0.064 1.715 -0.824 1.715 -1.994A2.357 2.357 0 0 0 37.147 8.5c-1.17 0 -1.93 0.803 -1.994 1.715 -0.057 0.82 -0.113 1.752 -0.165 2.801Z" clip-rule="evenodd" stroke-width="1"></path>
  </g>
</svg>