<svg xmlns="http://www.w3.org/2000/svg" fill="none" viewBox="0 0 48 48" id="Laptop--Streamline-Plump">
  <desc>
    Laptop Streamline Icon: https://streamlinehq.com
  </desc>
  <g id="laptop--device-laptop-electronics-computer-notebook">
    <path id="Union" fill="#8fbffa" d="M24 5.996c-8.112 0 -12.905 0.516 -15.563 0.973 -2.192 0.378 -3.73 2.076 -3.966 4.262C4.236 13.416 4 17.08 4 22.996s0.236 9.58 0.471 11.765c0.236 2.186 1.774 3.885 3.966 4.262 2.658 0.457 7.451 0.973 15.563 0.973 8.112 0 12.905 -0.516 15.563 -0.973 2.192 -0.377 3.73 -2.076 3.966 -4.262 0.235 -2.185 0.471 -5.85 0.471 -11.765 0 -5.915 -0.236 -9.58 -0.471 -11.765 -0.236 -2.186 -1.774 -3.884 -3.966 -4.262 -2.658 -0.457 -7.451 -0.973 -15.563 -0.973Z" stroke-width="1"></path>
    <path id="Union_2" fill="#2859c5" d="M4.1 32.5c-1.426 0 -2.576 1.197 -2.477 2.633 0.059 0.855 0.12 1.563 0.181 2.149 0.203 1.96 1.643 3.253 3.555 3.462 3.02 0.33 8.819 0.756 18.64 0.756 9.822 0 15.622 -0.426 18.64 -0.756 1.913 -0.21 3.353 -1.503 3.556 -3.462 0.06 -0.586 0.122 -1.294 0.18 -2.149 0.1 -1.436 -1.05 -2.633 -2.477 -2.633H31.202c-0.92 0 -1.734 0.597 -2.01 1.475a1.108 1.108 0 0 1 -1.058 0.775h-8.27c-0.483 0 -0.911 -0.314 -1.056 -0.775a2.108 2.108 0 0 0 -2.011 -1.475H4.101Z" stroke-width="1"></path>
  </g>
</svg>