<svg xmlns="http://www.w3.org/2000/svg" fill="none" viewBox="0 0 48 48" id="Usb-Port--Streamline-Plump">
  <desc>
    Usb Port Streamline Icon: https://streamlinehq.com
  </desc>
  <g id="usb-port--cables-cable-device-port-electronics-cords-cord-usb-connection">
    <path id="Vector 1485 (Stroke)" fill="#8fbffa" fill-rule="evenodd" d="M38 19c1.1046 0 2 0.8954 2 2v1.5308c0 2.9859 -2.1956 5.5174 -5.1515 5.9397l-7.1313 1.0188C26.7319 29.63 26 30.4739 26 31.4692V35c0 1.1046 -0.8954 2 -2 2s-2 -0.8954 -2 -2v-3.5308c0 -2.9859 2.1956 -5.5174 5.1515 -5.9397l7.1313 -1.0188C35.2681 24.37 36 23.5261 36 22.5308V21c0 -1.1046 0.8954 -2 2 -2Z" clip-rule="evenodd" stroke-width="1"></path>
    <path id="Vector 1486 (Stroke)" fill="#8fbffa" fill-rule="evenodd" d="M10 23c-1.10457 0 -2 0.8954 -2 2v0.5308c0 2.9859 2.1956 5.5174 5.1515 5.9397l7.1313 1.0188C21.2681 32.63 22 33.4739 22 34.4692V35c0 1.1046 0.8954 2 2 2s2 -0.8954 2 -2v-0.5308c0 -2.9859 -2.1956 -5.5174 -5.1515 -5.9397l-7.1313 -1.0188C12.7319 27.37 12 26.5261 12 25.5308V25c0 -1.1046 -0.8954 -2 -2 -2Z" clip-rule="evenodd" stroke-width="1"></path>
    <path id="Vector 1484 (Stroke)" fill="#8fbffa" fill-rule="evenodd" d="M24 11c1.1046 0 2 0.8954 2 2l0 22c0 1.1046 -0.8954 2 -2 2s-2 -0.8954 -2 -2l0 -22c0 -1.1046 0.8954 -2 2 -2Z" clip-rule="evenodd" stroke-width="1"></path>
    <path id="Union" fill="#8fbffa" d="M24.001 14.5002c1.6904 0 3.0091 -0.0404 4.0331 -0.0989 1.3024 -0.0743 2.4356 -0.7366 3.0013 -1.8524 0.562 -1.1087 0.4344 -2.4086 -0.2411 -3.50454 -0.4524 -0.73393 -1.0232 -1.61626 -1.7387 -2.65809 -0.8032 -1.16938 -1.4961 -2.05126 -2.08 -2.71649 -0.7801 -0.8887 -1.8369 -1.41104 -2.9747 -1.41099 -1.1377 0.00005 -2.1944 0.52247 -2.9744 1.41112 -0.5839 0.66517 -1.2769 1.54698 -2.0801 2.71625 -0.7159 1.04214 -1.2868 1.92469 -1.7393 2.65877 -0.6754 1.09577 -0.8031 2.39567 -0.241 3.50417 0.5656 1.1157 1.6987 1.7779 3.0009 1.8522 1.0241 0.0585 2.343 0.0989 4.034 0.0989Z" stroke-width="1"></path>
    <path id="Union_2" fill="#8fbffa" d="M10 15.5c-3.03757 0 -5.5 2.4624 -5.5 5.5s2.46243 5.5 5.5 5.5c3.0376 0 5.5 -2.4624 5.5 -5.5s-2.4624 -5.5 -5.5 -5.5Z" stroke-width="1"></path>
    <path id="Union_3" fill="#8fbffa" d="M24 33.5c-3.5899 0 -6.5 2.9101 -6.5 6.5s2.9101 6.5 6.5 6.5 6.5 -2.9101 6.5 -6.5 -2.9101 -6.5 -6.5 -6.5Z" stroke-width="1"></path>
    <path id="Union_4" fill="#8fbffa" d="M38 11.5c0.663 0 1.2373 0.0115 1.7283 0.0291 2.0673 0.074 3.6686 1.6753 3.7426 3.7426 0.0176 0.491 0.0291 1.0653 0.0291 1.7283s-0.0115 1.2373 -0.0291 1.7283c-0.074 2.0673 -1.6753 3.6686 -3.7426 3.7426 -0.491 0.0176 -1.0653 0.0291 -1.7283 0.0291s-1.2373 -0.0115 -1.7283 -0.0291c-2.0673 -0.074 -3.6686 -1.6753 -3.7426 -3.7426C32.5115 18.2373 32.5 17.663 32.5 17s0.0115 -1.2373 0.0291 -1.7283c0.074 -2.0673 1.6753 -3.6686 3.7426 -3.7426 0.491 -0.0176 1.0653 -0.0291 1.7283 -0.0291Z" stroke-width="1"></path>
  </g>
</svg>