<svg xmlns="http://www.w3.org/2000/svg" fill="none" viewBox="0 0 48 48" id="Watch-1--Streamline-Plump">
  <desc>
    Watch 1 Streamline Icon: https://streamlinehq.com
  </desc>
  <g id="watch-1--device-timepiece-cirle-electronics-face-blank-watch-smart">
    <path id="Union" fill="#2859c5" d="M24 1.5c-2.621 0 -4.585 0.174 -5.998 0.383 -2.09 0.31 -3.514 1.957 -4 3.915L9.873 22.434a6.5 6.5 0 0 0 0 3.132l4.129 16.636c0.486 1.958 1.91 3.605 4 3.915 1.413 0.209 3.377 0.383 5.998 0.383 2.62 0 4.584 -0.174 5.998 -0.383 2.09 -0.31 3.513 -1.957 4 -3.915l4.128 -16.636a6.5 6.5 0 0 0 0 -3.132L33.997 5.798c-0.486 -1.958 -1.909 -3.605 -4 -3.915C28.585 1.674 26.62 1.5 24 1.5Z" stroke-width="1"></path>
    <path id="Subtract" fill="#8fbffa" fill-rule="evenodd" d="M7.5 24c0 -9.113 7.387 -16.5 16.5 -16.5S40.5 14.887 40.5 24 33.113 40.5 24 40.5 7.5 33.113 7.5 24Z" clip-rule="evenodd" stroke-width="1"></path>
  </g>
</svg>