<svg xmlns="http://www.w3.org/2000/svg" viewBox="0 0 32 32" id="Email-Mail-Open-Address--Streamline-Pixel">
  <desc>
    Email Mail Open Address Streamline Icon: https://streamlinehq.com
  </desc>
  <title>email-mail-open-address</title>
  <g>
    <path d="m30.48 12.19 0 -1.52 -1.53 0 0 -1.53 -1.52 0 0 -3.04 -1.52 0 0 12.19 1.52 0 0 -1.53 1.52 0 0 -1.52 1.53 0 0 13.71 1.52 0 0 -16.76 -1.52 0z" fill="#000000" stroke-width="1"></path>
    <path d="M28.95 28.95h1.53v1.53h-1.53Z" fill="#000000" stroke-width="1"></path>
    <path d="M3.05 30.48h25.9V32H3.05Z" fill="#000000" stroke-width="1"></path>
    <path d="M24.38 18.29h1.53v1.52h-1.53Z" fill="#000000" stroke-width="1"></path>
    <path d="M22.86 25.91h1.52v1.52h-1.52Z" fill="#000000" stroke-width="1"></path>
    <path d="M22.86 19.81h1.52v1.52h-1.52Z" fill="#000000" stroke-width="1"></path>
    <path d="M21.33 24.38h1.53v1.53h-1.53Z" fill="#000000" stroke-width="1"></path>
    <path d="M21.33 21.33h1.53v1.53h-1.53Z" fill="#000000" stroke-width="1"></path>
    <path d="M21.33 10.67h1.53v4.57h-1.53Z" fill="#000000" stroke-width="1"></path>
    <path d="M19.81 9.14h1.52v1.53h-1.52Z" fill="#000000" stroke-width="1"></path>
    <path d="M10.67 22.86h10.66v1.52H10.67Z" fill="#000000" stroke-width="1"></path>
    <path d="M18.29 15.24h3.04v1.52h-3.04Z" fill="#000000" stroke-width="1"></path>
    <path d="m18.29 10.67 -4.57 0 0 1.52 3.04 0 0 3.05 1.53 0 0 -4.57z" fill="#000000" stroke-width="1"></path>
    <path d="M13.72 15.24h3.04v1.52h-3.04Z" fill="#000000" stroke-width="1"></path>
    <path d="M12.19 7.62h7.62v1.52h-7.62Z" fill="#000000" stroke-width="1"></path>
    <path d="M12.19 18.29h7.62v1.52h-7.62Z" fill="#000000" stroke-width="1"></path>
    <path d="M12.19 12.19h1.53v3.05h-1.53Z" fill="#000000" stroke-width="1"></path>
    <path d="M10.67 16.76h1.52v1.53h-1.52Z" fill="#000000" stroke-width="1"></path>
    <path d="M10.67 9.14h1.52v1.53h-1.52Z" fill="#000000" stroke-width="1"></path>
    <path d="M9.14 24.38h1.53v1.53H9.14Z" fill="#000000" stroke-width="1"></path>
    <path d="M9.14 21.33h1.53v1.53H9.14Z" fill="#000000" stroke-width="1"></path>
    <path d="M9.14 10.67h1.53v6.09H9.14Z" fill="#000000" stroke-width="1"></path>
    <path d="M7.62 25.91h1.52v1.52H7.62Z" fill="#000000" stroke-width="1"></path>
    <path d="M7.62 19.81h1.52v1.52H7.62Z" fill="#000000" stroke-width="1"></path>
    <path d="m25.91 6.1 0 -1.53 -3.05 0 0 -1.52 -1.53 0 0 -1.53 -1.52 0 0 -1.52 -7.62 0 0 1.52 -1.52 0 0 1.53 -1.53 0 0 1.52 -3.04 0 0 1.53 19.81 0z" fill="#000000" stroke-width="1"></path>
    <path d="M6.1 18.29h1.52v1.52H6.1Z" fill="#000000" stroke-width="1"></path>
    <path d="M1.52 28.95h1.53v1.53H1.52Z" fill="#000000" stroke-width="1"></path>
    <path d="m1.52 15.24 1.53 0 0 1.52 1.52 0 0 1.53 1.53 0 0 -12.19 -1.53 0 0 3.04 -1.52 0 0 1.53 -1.53 0 0 1.52 -1.52 0 0 16.76 1.52 0 0 -13.71z" fill="#000000" stroke-width="1"></path>
  </g>
</svg>