<svg xmlns="http://www.w3.org/2000/svg" viewBox="0 0 32 32" id="Email-Envelope-Close--Streamline-Pixel">
  <desc>
    Email Envelope Close Streamline Icon: https://streamlinehq.com
  </desc>
  <title>email-envelope-close</title>
  <g>
    <path d="M30.47 6.1H32v19.8h-1.53Z" fill="#000000" stroke-width="1"></path>
    <path d="M28.95 25.9h1.52v1.53h-1.52Z" fill="#000000" stroke-width="1"></path>
    <path d="M28.95 4.57h1.52V6.1h-1.52Z" fill="#000000" stroke-width="1"></path>
    <path d="M27.43 7.62h1.52v3.05h-1.52Z" fill="#000000" stroke-width="1"></path>
    <path d="M3.05 27.43h25.9v1.52H3.05Z" fill="#000000" stroke-width="1"></path>
    <path d="M25.9 22.86h1.53v1.52H25.9Z" fill="#000000" stroke-width="1"></path>
    <path d="M25.9 10.67h1.53v1.52H25.9Z" fill="#000000" stroke-width="1"></path>
    <path d="M24.38 21.33h1.52v1.53h-1.52Z" fill="#000000" stroke-width="1"></path>
    <path d="M24.38 12.19h1.52v1.52h-1.52Z" fill="#000000" stroke-width="1"></path>
    <path d="M22.85 19.81h1.53v1.52h-1.53Z" fill="#000000" stroke-width="1"></path>
    <path d="M22.85 13.71h1.53v1.53h-1.53Z" fill="#000000" stroke-width="1"></path>
    <path d="M21.33 18.29h1.52v1.52h-1.52Z" fill="#000000" stroke-width="1"></path>
    <path d="M21.33 15.24h1.52v1.52h-1.52Z" fill="#000000" stroke-width="1"></path>
    <path d="M18.28 16.76h3.05v1.53h-3.05Z" fill="#000000" stroke-width="1"></path>
    <path d="M13.71 18.29h4.57v1.52h-4.57Z" fill="#000000" stroke-width="1"></path>
    <path d="M10.66 16.76h3.05v1.53h-3.05Z" fill="#000000" stroke-width="1"></path>
    <path d="M9.14 18.29h1.52v1.52H9.14Z" fill="#000000" stroke-width="1"></path>
    <path d="M9.14 15.24h1.52v1.52H9.14Z" fill="#000000" stroke-width="1"></path>
    <path d="M7.62 19.81h1.52v1.52H7.62Z" fill="#000000" stroke-width="1"></path>
    <path d="M7.62 13.71h1.52v1.53H7.62Z" fill="#000000" stroke-width="1"></path>
    <path d="M6.09 21.33h1.53v1.53H6.09Z" fill="#000000" stroke-width="1"></path>
    <path d="M6.09 12.19h1.53v1.52H6.09Z" fill="#000000" stroke-width="1"></path>
    <path d="M4.57 22.86h1.52v1.52H4.57Z" fill="#000000" stroke-width="1"></path>
    <path d="M4.57 10.67h1.52v1.52H4.57Z" fill="#000000" stroke-width="1"></path>
    <path d="M3.05 3.05h25.9v1.52H3.05Z" fill="#000000" stroke-width="1"></path>
    <path d="M3.05 7.62h1.52v3.05H3.05Z" fill="#000000" stroke-width="1"></path>
    <path d="M1.52 25.9h1.53v1.53H1.52Z" fill="#000000" stroke-width="1"></path>
    <path d="M1.52 4.57h1.53V6.1H1.52Z" fill="#000000" stroke-width="1"></path>
    <path d="M0 6.1h1.52v19.8H0Z" fill="#000000" stroke-width="1"></path>
  </g>
</svg>