<svg xmlns="http://www.w3.org/2000/svg" viewBox="0 0 32 32" id="Send-Email--Streamline-Pixel">
  <desc>
    Send Email Streamline Icon: https://streamlinehq.com
  </desc>
  <title>send-email</title>
  <g>
    <path d="m18.29 6.1 0 1.52 -1.52 0 0 3.05 1.52 0 0 -1.53 1.52 0 0 -1.52 10.67 0 0 1.52 -1.52 0 0 1.53 1.52 0 0 1.52 1.52 0 0 -6.09 -13.71 0z" fill="#000000" stroke-width="1"></path>
    <path d="M28.96 12.19h1.52v3.05h-1.52Z" fill="#000000" stroke-width="1"></path>
    <path d="m27.43 16.76 -12.19 0 0 -1.52 -1.52 0 0 3.05 15.24 0 0 -3.05 -1.53 0 0 1.52z" fill="#000000" stroke-width="1"></path>
    <path d="M27.43 10.67h1.53v1.52h-1.53Z" fill="#000000" stroke-width="1"></path>
    <path d="M25.91 3.05h1.52v1.52h-1.52Z" fill="#000000" stroke-width="1"></path>
    <path d="m1.53 19.81 0 -16.76 -1.53 0 0 21.33 1.53 0 0 1.53 7.62 0 0 1.52 1.52 0 0 -1.52 6.1 0 0 1.52 1.52 0 0 -1.52 7.62 0 0 -1.53 1.52 0 0 -4.57 -25.9 0z" fill="#000000" stroke-width="1"></path>
    <path d="M22.86 12.19h4.57v1.53h-4.57Z" fill="#000000" stroke-width="1"></path>
    <path d="M21.34 10.67h1.52v1.52h-1.52Z" fill="#000000" stroke-width="1"></path>
    <path d="M19.81 9.14h1.53v1.53h-1.53Z" fill="#000000" stroke-width="1"></path>
    <path d="m9.15 28.95 0 -1.52 -1.53 0 0 3.05 12.19 0 0 -3.05 -1.52 0 0 1.52 -9.14 0z" fill="#000000" stroke-width="1"></path>
    <path d="M15.24 10.67h1.53v4.57h-1.53Z" fill="#000000" stroke-width="1"></path>
    <path d="M9.15 10.67h4.57v1.52H9.15Z" fill="#000000" stroke-width="1"></path>
    <path d="M7.62 13.72h4.57v1.52H7.62Z" fill="#000000" stroke-width="1"></path>
    <path d="M7.62 7.62h4.57v1.52H7.62Z" fill="#000000" stroke-width="1"></path>
    <path d="M6.1 10.67h1.52v1.52H6.1Z" fill="#000000" stroke-width="1"></path>
    <path d="M4.57 13.72H6.1v1.52H4.57Z" fill="#000000" stroke-width="1"></path>
    <path d="M4.57 7.62H6.1v1.52H4.57Z" fill="#000000" stroke-width="1"></path>
    <path d="M1.53 1.52h24.38v1.53H1.53Z" fill="#000000" stroke-width="1"></path>
  </g>
</svg>