<svg xmlns="http://www.w3.org/2000/svg" fill="none" viewBox="0 0 24 24" id="Landscape-2--Streamline-Sharp">
  <desc>
    Landscape 2 Streamline Icon: https://streamlinehq.com
  </desc>
  <g id="landscape-2--photos-photo-landscape-picture-photography-camera-pictures-image">
    <path id="Vector 2872" fill="#d7e0ff" d="M2 22V2h20v20H2Z" stroke-width="1.5"></path>
    <path id="Vector 2873" fill="#ffffff" d="M2 22v-5h20v5H2Z" stroke-width="1.5"></path>
    <path id="Vector 2874" fill="#ffffff" d="M7.5 5.5a2 2 0 1 1 0 4 2 2 0 0 1 0 -4Z" stroke-width="1.5"></path>
    <path id="Vector 2875" fill="#ffffff" d="m16 9 6 6v2H8l8 -8Z" stroke-width="1.5"></path>
    <path id="Vector 2860" stroke="#4147d5" d="M2 22V2h20v20H2Z" stroke-width="1.5"></path>
    <path id="Vector 2866" stroke="#4147d5" d="M7.5 5.5a2 2 0 1 1 0 4 2 2 0 0 1 0 -4Z" stroke-width="1.5"></path>
    <path id="Vector 2869" stroke="#4147d5" d="M2 17h20" stroke-width="1.5"></path>
    <path id="Vector 2867" stroke="#4147d5" d="m22 15 -6 -6 -8 8" stroke-width="1.5"></path>
  </g>
</svg>