<svg xmlns="http://www.w3.org/2000/svg" fill="none" viewBox="0 0 24 24" id="Light-Dark-Mode--Streamline-Sharp">
  <desc>
    Light Dark Mode Streamline Icon: https://streamlinehq.com
  </desc>
  <g id="light-dark-mode--light-dark-mode-setting-camera-picture-photo-image-brightness">
    <path id="Vector" fill="#ffffff" d="M12.0001 18.3078c3.4836 0 6.3077 -2.8241 6.3077 -6.3077 0 -3.48367 -2.8241 -6.30772 -6.3077 -6.30772 -3.48367 0 -6.30772 2.82405 -6.30772 6.30772 0 3.4836 2.82405 6.3077 6.30772 6.3077Z" stroke-width="1"></path>
    <path id="Subtract" fill="#d7e0ff" d="M17.9736 14.0311c-0.6374 0.2167 -1.3206 0.3342 -2.0313 0.3342 -3.4836 0 -6.30769 -2.824 -6.30769 -6.30767 0 -0.71066 0.11752 -1.39387 0.3342 -2.03126 -2.48707 0.84546 -4.27643 3.20051 -4.27643 5.97353 0 3.4836 2.82405 6.3076 6.30772 6.3076 2.773 0 5.128 -1.7893 5.9735 -4.2764Z" stroke-width="1"></path>
    <path id="Vector_2" stroke="#4147d5" stroke-linecap="square" stroke-linejoin="round" d="M12.0001 18.3078c3.4836 0 6.3077 -2.8241 6.3077 -6.3077 0 -3.48367 -2.8241 -6.30772 -6.3077 -6.30772 -3.48367 0 -6.30772 2.82405 -6.30772 6.30772 0 3.4836 2.82405 6.3077 6.30772 6.3077Z" stroke-width="1"></path>
    <path id="Vector_3" stroke="#4147d5" stroke-linecap="square" stroke-linejoin="round" d="m16.4604 16.4604 2.7877 2.7877" stroke-width="1"></path>
    <path id="Vector_4" stroke="#4147d5" stroke-linecap="square" stroke-linejoin="round" d="M18.3076 12h3.9423" stroke-width="1"></path>
    <path id="Vector_5" stroke="#4147d5" stroke-linecap="square" stroke-linejoin="round" d="m19.2481 4.75244 -2.7877 2.78763" stroke-width="1"></path>
    <path id="Vector_6" stroke="#4147d5" stroke-linecap="square" stroke-linejoin="round" d="M12 1.75v3.94231" stroke-width="1"></path>
    <path id="Vector_7" stroke="#4147d5" stroke-linecap="square" stroke-linejoin="round" d="M7.54007 7.54007 4.75244 4.75244" stroke-width="1"></path>
    <path id="Vector_8" stroke="#4147d5" stroke-linecap="square" stroke-linejoin="round" d="M5.69231 12 1.75 12" stroke-width="1"></path>
    <path id="Vector_9" stroke="#4147d5" stroke-linecap="square" stroke-linejoin="round" d="m7.54007 16.4604 -2.78763 2.7877" stroke-width="1"></path>
    <path id="Vector_10" stroke="#4147d5" stroke-linecap="square" stroke-linejoin="round" d="M12 18.3076v3.9423" stroke-width="1"></path>
    <path id="Subtract_2" stroke="#4147d5" stroke-linecap="square" stroke-linejoin="round" d="M17.9736 14.0048c-0.6374 0.2166 -1.3206 0.3342 -2.0313 0.3342 -3.4836 0 -6.30769 -2.8241 -6.30769 -6.30773 0 -0.71067 0.11752 -1.39388 0.3342 -2.03127 -2.48707 0.84546 -4.27643 3.20051 -4.27643 5.9735 0 3.4836 2.82405 6.3077 6.30772 6.3077 2.773 0 5.128 -1.7894 5.9735 -4.2764Z" stroke-width="1"></path>
  </g>
</svg>