<svg xmlns="http://www.w3.org/2000/svg" fill="none" viewBox="0 0 48 48" id="Allergens-Fish--Streamline-Plump">
  <desc>
    Allergens Fish Streamline Icon: https://streamlinehq.com
  </desc>
  <g id="allergens-fish--fish-produce-food-allergens-allergy">
    <path id="Union" fill="#79ee8d" d="M40.8981 7.10378c4.6127 4.61282 6.4579 15.06842 0 21.52632 -5.6875 5.6874 -14.8754 7.4961 -20.6135 6.8947l-7.8076 -7.8075c-0.6013 -5.7381 1.2073 -14.9261 6.8948 -20.61355C25.8296 0.645878 36.2853 2.491 40.8981 7.10378Z" stroke-width="1"></path>
    <path id="Union_2" fill="#0c098c" fill-rule="evenodd" d="M30.9412 0.955458c4.4087 0.254352 8.6649 2.028652 11.3702 4.733982 2.7053 2.70531 4.4796 6.96146 4.734 11.37026 0.2569 4.4526 -1.0269 9.2774 -4.7339 12.9844 -5.4724 5.4724 -13.7457 7.5952 -19.8531 7.5895 0.0487 0.3384 0.0844 0.6901 0.1061 1.0552 0.1531 2.5688 -1.1171 5.1984 -2.2484 7.0098 -1.0844 1.7362 -3.4273 1.827 -4.7227 0.2886 -0.8411 -0.9989 -1.7922 -2.2537 -2.5551 -3.5987 -0.7591 -1.3383 -1.3547 -2.8054 -1.4391 -4.221 -0.0383 -0.6431 -0.0285 -1.241 0.0261 -1.7939 -0.5529 0.0546 -1.1509 0.0644 -1.79397 0.0261 -1.41561 -0.0844 -2.88267 -0.68 -4.22099 -1.4391 -1.34507 -0.7629 -2.59985 -1.714 -3.59869 -2.5551 -1.538437 -1.2955 -1.447611 -3.6383 0.28853 -4.7227 1.81139 -1.1314 4.44103 -2.4016 7.00986 -2.2485 0.3658 0.0219 0.71816 0.0576 1.05716 0.1065 -0.0052 -6.1072 2.1177 -14.3795 7.5895 -19.8514 3.707 -3.707 8.5319 -4.990829 12.9845 -4.733942ZM39.483 27.2157c-5.1501 5.1501 -13.6769 6.8766 -18.9904 6.3199 -0.1039 -0.1103 -0.2088 -0.2179 -0.3139 -0.3229L14.786 27.82c-0.1043 -0.1044 -0.2112 -0.2086 -0.3208 -0.3118 -0.5567 -5.3135 1.1698 -13.8403 6.3199 -18.99037 2.7509 -2.75087 6.3828 -3.77341 9.9257 -3.56901 3.5867 0.20693 6.8647 1.66158 8.7722 3.56904 1.9074 1.90744 3.3621 5.18544 3.569 8.77224 0.2044 3.5429 -0.8181 7.1747 -3.569 9.9256ZM24.0483 11.591c-0.1837 -1.0891 -1.2156 -1.82317 -2.3048 -1.63945 -1.0892 0.18375 -1.8232 1.21565 -1.6395 2.30485 0.5947 3.5251 2.9062 7.1324 5.7066 9.9329 2.8004 2.8004 6.4077 5.1119 9.9329 5.7065 1.0892 0.1838 2.1211 -0.5503 2.3048 -1.6394 0.1837 -1.0892 -0.5503 -2.1211 -1.6395 -2.3048 -2.4135 -0.4072 -5.3053 -2.1263 -7.7698 -4.5908 -2.4644 -2.4644 -4.1836 -5.3562 -4.5907 -7.7698Zm-4.862 8.5415c0.9893 -0.4914 2.1896 -0.0879 2.681 0.9014 0.3536 0.7116 1.1835 1.786 2.2481 2.8506s2.1389 1.8945 2.8506 2.248c0.9892 0.4915 1.3928 1.6918 0.9013 2.681 -0.4914 0.9892 -1.6917 1.3928 -2.681 0.9013 -1.2755 -0.6336 -2.7076 -1.8101 -3.8993 -3.0019 -1.1918 -1.1918 -2.3683 -2.6238 -3.002 -3.8994 -0.4914 -0.9892 -0.0879 -2.1895 0.9013 -2.681ZM32.4904 9.50948c-0.7811 -0.78105 -2.0474 -0.78105 -2.8284 0 -0.7811 0.78102 -0.7811 2.04742 0 2.82842l0.5 0.5c0.781 0.7811 2.0473 0.7811 2.8284 0 0.781 -0.781 0.781 -2.0474 0 -2.8284l-0.5 -0.50002Z" clip-rule="evenodd" stroke-width="1"></path>
  </g>
</svg>