<svg xmlns="http://www.w3.org/2000/svg" fill="none" viewBox="0 0 48 48" id="Food-Truck-Event-Fair--Streamline-Plump">
  <desc>
    Food Truck Event Fair Streamline Icon: https://streamlinehq.com
  </desc>
  <g id="food-truck-event-fair">
    <path id="Rectangle 1099" fill="#7af1ff" d="m28 25 -12.5 0L3 25s0.00001 -3.5 0 -10.5c0 -2.7577 0.09238 -4.89451 0.20436 -6.47173 0.15068 -2.12252 1.80591 -3.70103 3.93037 -3.82138C9.06041 4.0978 11.8145 4 15.5 4s6.4396 0.0978 8.3653 0.20689c2.1244 0.12035 3.7797 1.69886 3.9303 3.82138C27.9076 9.60548 28 11.7423 28 14.5L28 25Z" stroke-width="1"></path>
    <path id="Subtract" fill="#7af1ff" fill-rule="evenodd" d="M13.5 25.0002H28l0 -10.5c0 -0.4748 -0.0032 -0.9311 -0.0091 -1.3693 2.6843 0.0437 5.2645 0.1014 7.5467 0.1771 0.8902 0.0296 1.7702 0.2447 2.5091 0.7419 3.2775 2.2057 5.4633 5.8168 6.4134 7.6261 0.3779 0.7198 0.5416 1.528 0.5345 2.3409 -0.0381 4.4016 -0.2745 7.9876 -0.5018 10.4769 -0.2096 2.2946 -2.0611 4.0222 -4.3623 4.1382 -3.3826 0.1704 -8.8717 0.3682 -16.1311 0.3682 -7.4873 0 -13.0914 -0.2104 -16.44338 -0.3842 -2.15351 -0.1116 -3.91846 -1.6494 -4.15779 -3.7924C3.18869 32.9472 3 30.3528 3 27.0941v-2.0939h10.5Z" clip-rule="evenodd" stroke-width="1"></path>
    <path id="Union" fill="#0c098c" fill-rule="evenodd" d="M25.8214 15.9698c-0.6423 0.3107 -1.3702 0.4852 -2.1362 0.4852 -1.7848 0 -3.3654 -0.9495 -4.1373 -2.3628 -0.7718 1.4133 -2.3524 2.3628 -4.1372 2.3628 -1.7848 0 -3.3653 -0.9495 -4.1372 -2.3628 -0.7719 1.4133 -2.35244 2.3628 -4.13723 2.3628 -0.76687 0 -1.49539 -0.1748 -2.13822 -0.4862v6.9081l0 0.625H25.8214l0 -0.625 0 -6.9071ZM0.998047 25.5019V15.0002c0 -2.8967 0.099573 -5.13295 0.219493 -6.7759 0.2232 -3.05771 2.63352 -5.33249 5.63338 -5.50806 1.95898 -0.11465 4.77548 -0.21819 8.55878 -0.21819 3.7834 0 6.5998 0.10354 8.5588 0.21819 2.9999 0.17557 5.4102 2.45034 5.6334 5.50806 0.0619 0.84766 0.1183 1.8532 0.1585 3.026 2.0946 0.0394 4.1001 0.0883 5.9185 0.1486 1.1069 0.0367 2.3274 0.3058 3.4175 1.0249 3.765 2.4834 6.1711 6.5002 7.1567 8.3679 0.543 1.0289 0.7576 2.1429 0.7486 3.2024 -0.0385 4.5295 -0.2877 8.2081 -0.5243 10.7364 -0.3 3.2058 -2.8969 5.6005 -6.0576 5.761l-0.2668 0.0134c-0.5814 2.8503 -3.1027 4.9949 -6.1248 4.9949 -2.8995 0 -5.3379 -1.974 -6.0446 -4.6515 -1.2611 0.0128 -2.5892 0.02 -3.9818 0.02 -1.3916 0 -2.7186 -0.0072 -3.9788 -0.0199 -0.7067 2.6774 -3.1451 4.6514 -6.0446 4.6514 -3.0221 0 -5.54328 -2.1445 -6.12481 -4.9947 -0.19681 -0.0098 -0.38677 -0.0195 -0.5698 -0.029 -2.94709 -0.1538 -5.50184 -2.2898 -5.85853 -5.3817 -0.22416 -1.9431 -0.427213 -4.6392 -0.427213 -8.0306v-1.5619Zm4.001193 2.0005c0.01651 3.0237 0.20175 5.418 0.39966 7.1336 0.11469 0.9941 0.93289 1.785 2.09334 1.8455 0.2705 0.0141 0.55667 0.0285 0.8583 0.0431 1.01236 -2.0876 3.15206 -3.5269 5.62786 -3.5269 2.6007 0 4.8305 1.5881 5.7723 3.8476 1.3395 0.0147 2.7575 0.023 4.2511 0.023 1.4947 0 2.9137 -0.0084 4.2541 -0.0231 0.9419 -2.2594 3.1716 -3.8475 5.7723 -3.8475 2.4758 0 4.6154 1.4392 5.6278 3.5267 0.1933 -0.0093 0.3803 -0.0186 0.5609 -0.0277 1.2311 -0.0626 2.1682 -0.9663 2.2779 -2.1389 0.2275 -2.4305 0.4696 -5.9953 0.507 -10.3977 0.0043 -0.5052 -0.099 -0.9466 -0.2863 -1.3015 -0.9066 -1.7179 -2.9262 -4.986 -5.8215 -6.8958 -0.319 -0.2104 -0.7674 -0.3469 -1.3477 -0.3661 -1.7556 -0.0583 -3.6938 -0.1058 -5.7249 -0.1445l0 7.6247v2.6249l0 0.0001 0 0.0004v0.0001c0 1.1046 -0.8954 2 -2 2l0 -0.0005h-0.0001v0.0005H4.99924Zm26.59646 -8.0932c0 -1.4061 1.1398 -2.5459 2.5459 -2.5459 0.3837 0 0.7965 0.0848 1.1777 0.3009 2.3391 1.3261 3.9681 3.8146 4.8762 5.5015 0.8754 1.626 -0.1303 3.6045 -2.0149 3.7671 -1.6546 0.1428 -3.1627 0.0378 -4.2201 -0.0929 -1.4326 -0.177 -2.3648 -1.4162 -2.3648 -2.7507v-4.18Z" clip-rule="evenodd" stroke-width="1"></path>
  </g>
</svg>