<svg xmlns="http://www.w3.org/2000/svg" fill="none" viewBox="0 0 48 48" id="Fried-Egg-Breakfast--Streamline-Plump">
  <desc>
    Fried Egg Breakfast Streamline Icon: https://streamlinehq.com
  </desc>
  <g id="fried-egg-breakfast">
    <path id="union" fill="#fddc5c" d="M24 3C12 3 3 13.8093 3 27c0 9.8233 6.36593 18 14.2187 18 2.8894 0 5.5775 -1.0781 7.8212 -2.9303 2.5429 -2.0991 5.8731 -3.0355 8.9198 -3.0355C40.0571 39.0342 45 32.8509 45 25.2235 45 14 37.5 3 24 3Z" stroke-width="1"></path>
    <path id="Union" fill="#0c098c" fill-rule="evenodd" d="M24 1C10.6267 1 1 12.9941 1 27c0 10.4534 6.84024 20 16.2187 20 3.4074 0 6.5357 -1.2757 9.0944 -3.3879 2.1188 -1.749 4.9714 -2.5779 7.6466 -2.5779C41.5563 41.0342 47 33.5145 47 25.2235 47 13.1942 38.8813 1 24 1ZM5 27C5 14.6244 13.3733 5 24 5c12.1187 0 19 9.8058 19 20.2235 0 6.9639 -4.4421 11.8107 -9.0403 11.8107 -3.4182 0 -7.2259 1.0438 -10.193 3.4931C21.8379 42.1195 19.5901 43 17.2187 43 10.8916 43 5 36.1932 5 27Zm18.9996 -15.4551c-5.8241 0 -10.5455 4.7214 -10.5455 10.5455 0 5.8241 4.7214 10.5454 10.5455 10.5454 5.8241 0 10.5454 -4.7213 10.5454 -10.5454 0 -5.8241 -4.7213 -10.5455 -10.5454 -10.5455ZM23.5 17.2734c0 -0.8284 0.6716 -1.5 1.5 -1.5 2.9372 0 5.3182 2.3811 5.3182 5.3182 0 0.8284 -0.6716 1.5 -1.5 1.5s-1.5 -0.6716 -1.5 -1.5c0 -1.2803 -1.0379 -2.3182 -2.3182 -2.3182 -0.8284 0 -1.5 -0.6715 -1.5 -1.5Z" clip-rule="evenodd" stroke-width="1"></path>
  </g>
</svg>