<svg xmlns="http://www.w3.org/2000/svg" fill="none" viewBox="0 0 48 48" id="Pork-Meat--Streamline-Plump">
  <desc>
    Pork Meat Streamline Icon: https://streamlinehq.com
  </desc>
  <g id="pork-meat">
    <path id="Union" fill="#79ee8d" d="M6.2931 3.13842c-0.92013 0.13649 -1.75541 0.66688 -2.10972 1.50918 -1.50102 3.56834 -0.34736 9.7841 1.03153 15.2636C3.51593 23.0098 2.5 26.5523 2.5 30.3488 2.5 33 2.5 45 23.9999 45 45.4999 45 45.5 33 45.5 30.3488c0 -3.7964 -1.0159 -7.3389 -2.7149 -10.4376 1.3789 -5.4795 2.5325 -11.69525 1.0315 -15.2636 -0.3543 -0.8423 -1.1896 -1.37269 -2.1097 -1.50918 -5.2143 -0.77351 -9.9403 1.79254 -13.5509 5.26128 -1.384 -0.3383 -2.7793 -0.51598 -4.1561 -0.51598 -1.3767 0 -2.772 0.17767 -4.1559 0.51596 -3.6106 -3.46873 -8.3366 -6.03477 -13.5509 -5.26126Z" stroke-width="1"></path>
    <path id="Union_2" fill="#0c098c" fill-rule="evenodd" d="M20.4371 6.22615c1.1812 -0.22371 2.3739 -0.34147 3.5628 -0.34147 1.189 0 2.3817 0.11777 3.563 0.34149 3.7582 -3.33769 8.766 -5.906464 14.4375 -5.06514 1.4395 0.21354 2.9732 1.07996 3.6598 2.71205 0.9514 2.26188 0.992 5.12444 0.7103 7.89302 -0.2622 2.5774 -0.8339 5.3246 -1.4606 7.8877C46.534 22.8539 47.5 26.4767 47.5 30.3498v0.0242c0.0001 1.4158 0.0004 5.6698 -3.1309 9.5513 -3.1997 3.9663 -9.2629 7.0757 -20.3692 7.0757S6.83052 43.8916 3.63087 39.9253C0.499573 36.0438 0.499894 31.7899 0.500001 30.374v-0.0242c0 -3.8732 0.965969 -7.4959 2.590139 -10.6961 -0.62674 -2.563 -1.19847 -5.3102 -1.46068 -7.8876 -0.28166 -2.76859 -0.24107 -5.63114 0.71039 -7.89302 0.68653 -1.63209 2.22026 -2.49851 3.65978 -2.71205C11.6711 0.319707 16.6789 2.88847 20.4371 6.22615ZM18.4584 9.8429c-3.3885 -3.2553 -7.5231 -5.37027 -11.87182 -4.72517 -0.1814 0.02691 -0.32604 0.08942 -0.42182 0.15576 -0.0908 0.06288 -0.1241 0.11788 -0.13784 0.15055 -0.54956 1.30646 -0.68264 3.33594 -0.41801 5.93716 0.25845 2.5404 0.86382 5.3538 1.54554 8.0629 0.12314 0.4893 0.05676 1.0072 -0.18585 1.4496C5.4177 23.7023 4.5 26.9165 4.5 30.3498c0 1.2602 0.01851 4.3052 2.24412 7.064 2.17533 2.6965 6.86218 5.5872 17.25578 5.5872 10.3937 0 15.0806 -2.8907 17.2559 -5.5872C43.4815 34.6549 43.5 31.61 43.5 30.3498c0 -3.4333 -0.9177 -6.6475 -2.4686 -9.4761 -0.2426 -0.4424 -0.309 -0.9602 -0.1859 -1.4496 0.6818 -2.709 1.2871 -5.5225 1.5456 -8.0629 0.2646 -2.60121 0.1315 -4.6307 -0.418 -5.93716 -0.0138 -0.03267 -0.047 -0.08767 -0.1378 -0.15055 -0.0958 -0.06634 -0.2405 -0.12885 -0.4219 -0.15576 -4.3487 -0.6451 -8.4834 1.46987 -11.8718 4.72519 -0.4937 0.47428 -1.1956 0.66308 -1.8605 0.50058 -1.2403 -0.3032 -2.4761 -0.45882 -3.6812 -0.45882 -1.205 0 -2.4408 0.15562 -3.681 0.45872 -0.665 0.1626 -1.3669 -0.0263 -1.8605 -0.5005Zm-4.2768 10.7508c0 -1.1046 0.8955 -2 2 -2 1.1046 0 2 0.8954 2 2v0.9773c0 1.1046 -0.8954 2 -2 2 -1.1045 0 -2 -0.8954 -2 -2v-0.9773Zm19.6368 0c0 -1.1046 -0.8955 -2 -2 -2 -1.1046 0 -2 0.8954 -2 2v0.9773c0 1.1046 0.8954 2 2 2 1.1045 0 2 -0.8954 2 -2v-0.9773Zm-19.1452 7.6934c1.5672 -2.2098 4.4602 -3.8301 9.3274 -3.8301 4.8671 0 7.7602 1.6203 9.3274 3.8301 1.4685 2.0708 1.4681 4.2613 1.468 4.8111v0.0136c0 2.9865 -1.4471 5.1304 -3.6276 6.4196 -2.051 1.2126 -4.6591 1.6301 -7.1678 1.6301 -2.5088 0 -5.1168 -0.4175 -7.1679 -1.6301 -2.1805 -1.2892 -3.6276 -3.4331 -3.6276 -6.4196l0 -0.0136c-0.0001 -0.5498 -0.0006 -2.7403 1.4681 -4.8111ZM27.43 30.8203c0.8284 0 1.5 0.6716 1.5 1.5v0.9773c0 0.8284 -0.6716 1.5 -1.5 1.5s-1.5 -0.6716 -1.5 -1.5v-0.9773c0 -0.8284 0.6716 -1.5 1.5 -1.5Zm-8.36 1.5c0 -0.8284 0.6716 -1.5 1.5 -1.5s1.5 0.6716 1.5 1.5v0.9773c0 0.8284 -0.6716 1.5 -1.5 1.5s-1.5 -0.6716 -1.5 -1.5v-0.9773Z" clip-rule="evenodd" stroke-width="1"></path>
  </g>
</svg>