<svg xmlns="http://www.w3.org/2000/svg" viewBox="0 0 14 14">
  <g>
    <path d="M.25,8.5h8a.25.25,0,0,1,.25.25V10a.5.5,0,0,1-.5.5H.25A.25.25,0,0,1,0,10.25V8.75A.25.25,0,0,1,.25,8.5Z" transform="translate(8.5 19) rotate(-180)" style="fill: #000001"/>
    <path d="M10.25,8.5h3.5a.25.25,0,0,1,.25.25v1.5a.25.25,0,0,1-.25.25H10.5A.5.5,0,0,1,10,10V8.75a.25.25,0,0,1,.25-.25Z" transform="translate(24 19) rotate(-180)" style="fill: #000001"/>
    <path d="M5.75,12h8a.25.25,0,0,1,.25.25V13.5a.5.5,0,0,1-.5.5H5.75a.25.25,0,0,1-.25-.25v-1.5A.25.25,0,0,1,5.75,12Z" style="fill: #000001"/>
    <path d="M.25,12h3.5a.25.25,0,0,1,.25.25v1.5a.25.25,0,0,1-.25.25H.5a.5.5,0,0,1-.5-.5V12.25A.25.25,0,0,1,.25,12Z" style="fill: #000001"/>
    <path d="M7,7.5A3.68,3.68,0,0,1,3.84,5.77,3.28,3.28,0,0,1,3.7,2.55a.75.75,0,0,1,1.19-.2c.47.46,1.16.82,1.35.73A.82.82,0,0,0,6.7,2.6a2.27,2.27,0,0,0-.33-1.46.76.76,0,0,1,0-.76A.75.75,0,0,1,7,0a3.62,3.62,0,0,1,3.83,3.75A3.62,3.62,0,0,1,7,7.5ZM5.31,4.41A.25.25,0,0,0,5,4.47a.25.25,0,0,0,0,.27A2,2,0,0,0,5.12,5,2.18,2.18,0,0,0,7,6,2.15,2.15,0,0,0,9.34,3.75a2.13,2.13,0,0,0-.69-1.69.25.25,0,0,0-.27,0,.24.24,0,0,0-.14.23,2.48,2.48,0,0,1-.1.76A2.24,2.24,0,0,1,6.9,4.42,1.92,1.92,0,0,1,5.31,4.41Z" style="fill: #000001"/>
  </g>
</svg>
