<svg xmlns="http://www.w3.org/2000/svg" viewBox="0 0 14 14">
  <g>
    <path d="M1.5,13.5A.5.5,0,0,1,1,14H.5a.5.5,0,0,1-.5-.5V10A1,1,0,0,1,1,9a.5.5,0,0,1,.5.5Z" style="fill: #000001"/>
    <path d="M12.5,13.5a.5.5,0,0,0,.5.5h.5a.5.5,0,0,0,.5-.5V10a1,1,0,0,0-1-1,.5.5,0,0,0-.5.5Z" style="fill: #000001"/>
    <g>
      <path d="M6.25,6a.75.75,0,0,1,1.5,0v.12A.26.26,0,0,0,8,6.38h2.75A.26.26,0,0,0,11,6.12V5A2,2,0,0,0,9.89,3.21.24.24,0,0,1,9.75,3V2.75a2.75,2.75,0,0,0-5.5,0V3a.24.24,0,0,1-.14.22A2,2,0,0,0,3,5V6.12a.26.26,0,0,0,.25.26H6a.26.26,0,0,0,.25-.26Zm-.5-3.25a1.25,1.25,0,0,1,2.5,0A.25.25,0,0,1,8,3H6A.25.25,0,0,1,5.75,2.75Z" style="fill: #000001"/>
      <path d="M7.75,8a.75.75,0,0,1-1.5,0V7.88A.26.26,0,0,0,6,7.62H3.25A.26.26,0,0,0,3,7.88V13.5a.5.5,0,0,0,.5.5h7a.5.5,0,0,0,.5-.5V7.88a.26.26,0,0,0-.25-.26H8a.26.26,0,0,0-.25.26Z" style="fill: #000001"/>
    </g>
  </g>
</svg>
