<svg xmlns="http://www.w3.org/2000/svg" fill="none" viewBox="0 0 24 24" id="Crutch--Streamline-Sharp-Gradient-Free">
  <desc>
    Crutch Streamline Icon: https://streamlinehq.com
  </desc>
  <g id="Gradient/Map Travel/crutch--disability-crutch">
    <path id="Union" fill="url(#paint0_linear_628_19241)" fill-rule="evenodd" d="M13.5 0C11.567 0 10 1.567 10 3.5S11.567 7 13.5 7 17 5.433 17 3.5 15.433 0 13.5 0ZM20 10l-.4-.3-.003-.00224-.0038-.00279-.0097-.00719-.0286-.02052c-.0231-.01633-.0541-.03784-.093-.06376-.0777-.05184-.187-.12143-.327-.20266-.2796-.1624-.6826-.37196-1.201-.57932C16.8962 8.40646 15.3952 8 13.5 8c-1.8952 0-3.3962.40646-4.43389.82152-.51839.20736-.92138.41692-1.20106.57932-.13991.08123-.24923.15082-.32698.20266-.03888.02592-.06991.04743-.09295.06376l-.02858.02052-.00978.00719-.00376.00279-.00159.00119-.00142.00106L7 10h7v6h-1v2.7188l-1 1.9843V24h5.5v-5.5H20V10ZM4 14h1v4.2361l.10557.2111L6 18c-.89443.4472-.8939.4483-.8939.4483l.00055.0011.00113.0022.00244.0048.00557.0107c.00402.0077.00867.0164.01398.026.01059.0193.02383.0424.03986.0688.03201.0528.07552.1191.13193.1944.1125.1499.27907.3388.51124.5246.29867.2389.6915.4605 1.1872.5929V22H6v2h4v-2H9v-2.1262c.4957-.1324.88853-.354 1.1872-.5929.2322-.1858.3987-.3747.5112-.5246.0565-.0753.1-.1416.132-.1944.016-.0264.0292-.0495.0398-.0688.0053-.0096.01-.0183.014-.026l.0056-.0107.0024-.0048.0012-.0022.0005-.0011S10.8944 18.4472 10 18l.8944.4472.1056-.2111V14h1v-2H4v2Zm3 3.6652V14h2v3.6652c-.01849.0174-.03919.0355-.06219.0539C8.78983 17.8375 8.50708 18 8 18s-.78983-.1625-.9378-.2809c-.02301-.0184-.04371-.0365-.0622-.0539Z" clip-rule="evenodd"></path>
  </g>
  <defs>
    <linearGradient id="paint0_linear_628_19241" x1="6.615" x2="21.477" y1="4.615" y2="10.105" gradientUnits="userSpaceOnUse">
      <stop stop-color="#ffd600"></stop>
      <stop offset="1" stop-color="#00d078"></stop>
    </linearGradient>
  </defs>
</svg>