<svg xmlns="http://www.w3.org/2000/svg" fill="none" viewBox="0 0 24 24" id="Hot-Air-Balloon--Streamline-Sharp-Gradient-Free">
  <desc>
    Hot Air Balloon Streamline Icon: https://streamlinehq.com
  </desc>
  <g id="Gradient/Map Travel/hot-air-balloon">
    <path id="Union" fill="url(#paint0_linear_628_19291)" fill-rule="evenodd" d="M12 0c-.9092 0-1.8056.12381-2.66669.362094V12h-2V1.15566c-.87786.46317-1.68964 1.05854-2.40438 1.77327C3.05357 4.8043 2 7.34784 2 10c0 1.5903.759 3.1927 1.64535 4.5475L3.94141 15h.01066c.8818 1.2579 1.91458 2.389 2.74696 3.2243.46844.4701.8799.8529 1.17549 1.1192.04449.0401.08638.0776.12548.1124V24h8v-4.5441c.0391-.0348.081-.0723.1255-.1124.2956-.2663.707-.6491 1.1755-1.1192.8323-.8353 1.8651-1.9664 2.7469-3.2243h.0107l.296-.4525.0001 0C21.241 13.1927 22 11.5903 22 10c0-2.65216-1.0536-5.1957-2.9289-7.07107-.7148-.71475-1.5266-1.31012-2.4045-1.7733V12h-2V.362077C13.8055.123804 12.9092 0 12 0Zm2.6274 18c.0476-.0421.1009-.0896.1592-.1422.2739-.2468.6588-.6048 1.0977-1.0453.5131-.5148 1.0914-1.1338 1.6498-1.8125H6.4659c.55844.6787 1.13673 1.2977 1.6498 1.8125.43892.4405.82379.7985 1.09766 1.0453.05839.0526.11167.1001.15929.1422h5.25475Z" clip-rule="evenodd"></path>
  </g>
  <defs>
    <linearGradient id="paint0_linear_628_19291" x1="2.768" x2="27.376" y1="1.939" y2="13.497" gradientUnits="userSpaceOnUse">
      <stop stop-color="#00d078"></stop>
      <stop offset="1" stop-color="#007df0"></stop>
    </linearGradient>
  </defs>
</svg>