<svg xmlns="http://www.w3.org/2000/svg" fill="none" viewBox="0 0 24 24" id="Location-Pin-3--Streamline-Sharp-Gradient-Free">
  <desc>
    Location Pin 3 Streamline Icon: https://streamlinehq.com
  </desc>
  <g id="Gradient/Map Travel/location-pin-3--navigation-map-maps-pin-gps-location">
    <path id="Union" fill="url(#paint0_linear_628_19350)" fill-rule="evenodd" d="m11.3981 18.7986.6019.4536.6019-.4536.0026-.002.0052-.0039.0177-.0135c.0151-.0116.0367-.0282.0643-.0496.0552-.0428.1345-.105.2345-.1852.2-.1602.4832-.3927.8219-.6858.6761-.5851 1.5805-1.4179 2.4884-2.4063.9049-.9851 1.8327-2.1458 2.539-3.388C19.4772 10.8304 20 9.44667 20 8.03448 20 3.6018 16.4229 0 12 0S4 3.6018 4 8.03448c0 1.41219.52282 2.79592 1.22446 4.02982.7063 1.2422 1.63419 2.4029 2.53908 3.388.90783.9884 1.8123 1.8212 2.48836 2.4063.3387.2931.6219.5256.8219.6858.1.0802.1793.1424.2345.1852.0276.0214.0492.038.0643.0496l.0177.0135.0052.0039.0026.002ZM10.5 6.5h3v3h-3v-3Zm3.3057 13.8958L12 21.7567l-1.8074-1.3622-.005-.0038-.0094-.0072-.0204-.0155c-.0187-.0143-.0441-.0338-.0756-.0583-.063-.0489-.15061-.1176-.25927-.2047-.21708-.174-.51978-.4226-.87977-.7341-.71565-.6193-1.67906-1.5058-2.65255-2.5656-.23434-.2551-.47274-.524-.71097-.8053H3.27925L.612579 24H23.3874l-2.6666-8h-2.3004c-.2383.2813-.4767.5502-.711.8053-.9735 1.0598-1.9369 1.9463-2.6526 2.5656-.3599.3115-.6626.5601-.8797.7341-.1087.0871-.1963.1558-.2592.2047-.0316.0244-.057.044-.0757.0583l-.0026.002-.0221.0168-.0075.0057-.0043.0033Z" clip-rule="evenodd"></path>
  </g>
  <defs>
    <linearGradient id="paint0_linear_628_19350" x1="25.361" x2="-6.419" y1="29.083" y2="7.661" gradientUnits="userSpaceOnUse">
      <stop stop-color="#ffd600"></stop>
      <stop offset="1" stop-color="#ff007a"></stop>
    </linearGradient>
  </defs>
</svg>