<svg xmlns="http://www.w3.org/2000/svg" fill="none" viewBox="0 0 48 48" id="Landscape-View--Streamline-Plump-Remix">
  <desc>
    Landscape View Streamline Icon: https://streamlinehq.com
  </desc>
  <g id="landscape-view--photos-photo-picture-photography-pictures-view-eye-image">
    <path id="Union" fill="#000000" fill-rule="evenodd" d="M20.0005 0.5C13.8138 0.5 9.46727 0.732439 6.71915 0.95572 3.61294 1.20809 1.20809 3.61293 0.95572 6.71915 0.73244 9.46727 0.5 13.8137 0.5 20.0005s0.232438 10.5333 0.455717 13.2814c0.252373 3.1062 2.657213 5.5111 5.763433 5.7634 2.19759 0.1786 5.41725 0.363 9.78285 0.4297 -0.6058 -1.8392 -0.5909 -3.8289 0.0446 -5.6607 1.7202 -4.9586 5.6248 -8.7891 10.4858 -10.6505 -4.0134 -3.9262 -6.6296 -6.2199 -8.2255 -7.5226 -1.3003 -1.0614 -3.0054 -1.2197 -4.4098 -0.3005 -1.924 1.2592 -5.12584 3.6902 -9.86864 8.2806C4.51026 22.4958 4.5 21.2896 4.5 20.0005c0 -6.0869 0.2287 -10.32498 0.44258 -12.95743 0.09366 -1.15274 0.94775 -2.00683 2.1005 -2.10049C9.67553 4.7287 13.9136 4.5 20.0005 4.5c6.0869 0 10.325 0.2287 12.9575 0.44258 1.1527 0.09366 2.0068 0.94775 2.1005 2.10049 0.2138 2.63245 0.4425 6.87053 0.4425 12.95743 0 1.1046 0.8955 2 2 2 1.1046 0 2 -0.8954 2 -2 0 -6.1867 -0.2324 -10.53323 -0.4557 -13.28136 -0.2524 -3.10621 -2.6572 -5.51105 -5.7634 -5.763417C30.5338 0.732441 26.1873 0.5 20.0005 0.5Zm4.3061 12.4714c0 -2.4393 1.9775 -4.41671 4.4168 -4.41671 2.4393 0 4.4167 1.97741 4.4167 4.41671 0 2.4393 -1.9774 4.4168 -4.4167 4.4168 -2.4393 0 -4.4168 -1.9775 -4.4168 -4.4168Zm5.5498 23.7382c0 -2.1674 1.7571 -3.9244 3.9245 -3.9244 2.1674 0 3.9245 1.757 3.9245 3.9244 0 2.1674 -1.7571 3.9245 -3.9245 3.9245 -2.1674 0 -3.9245 -1.7571 -3.9245 -3.9245Zm3.9229 -6.7877c-4.5958 0 -8.3859 2.7999 -9.6746 6.5145 -0.0615 0.1773 -0.0615 0.3712 0 0.5486 1.2887 3.7145 5.0788 6.5145 9.6746 6.5145s8.386 -2.8 9.6746 -6.5145c0.0615 -0.1774 0.0615 -0.3713 0 -0.5486 -1.2886 -3.7146 -5.0788 -6.5145 -9.6746 -6.5145Zm-13.4536 5.2035c1.8762 -5.4082 7.2446 -9.2035 13.4536 -9.2035s11.5775 3.7953 13.4537 9.2035c0.3561 1.0265 0.3561 2.1441 0 3.1706 -1.8762 5.4082 -7.2447 9.2035 -13.4537 9.2035s-11.5774 -3.7953 -13.4536 -9.2035c-0.3561 -1.0265 -0.3561 -2.1441 0 -3.1706Z" clip-rule="evenodd" stroke-width="1"></path>
  </g>
</svg>