<svg xmlns="http://www.w3.org/2000/svg" fill="none" viewBox="0 0 48 48" id="Arrow-Up-4--Streamline-Plump">
  <desc>
    Arrow Up 4 Streamline Icon: https://streamlinehq.com
  </desc>
  <g id="tailless-line-arrow-up-2--arrow-up-line-to-top">
    <path id="Vector" fill="#fddc5c" fill-rule="evenodd" d="M23.6587 14.9826c0.1885 -0.1705 0.4759 -0.1706 0.6644 -0.0002L38.6723 27.948c1.0917 0.9865 2.5821 1.5678 3.8445 0.8106 0.458 -0.2748 0.9539 -0.6541 1.4496 -1.1778 0.6817 -0.7202 1.1051 -1.4404 1.368 -2.0571 0.4614 -1.0824 0.0897 -2.2682 -0.6114 -3.2139 -4.591 -6.1928 -11.6481 -12.325 -16.2278 -16.0051 -2.6482 -2.1279 -6.361 -2.1284 -9.0092 -0.0005 -4.5805 3.6804 -11.6368 9.814 -16.2135 16.0079 -0.6975 0.9439 -1.0669 2.126 -0.608 3.2055 0.2627 0.6181 0.6866 1.3406 1.3706 2.0632 0.4947 0.5225 0.9894 0.9014 1.4466 1.1761 1.2636 0.7592 2.756 0.177 3.8486 -0.8115l14.3284 -12.9628Z" clip-rule="evenodd" stroke-width="1"></path>
    <path id="Union" fill="#0c098c" fill-rule="evenodd" d="M43.5143 24.7477c0.075 -0.176 0.1036 -0.6064 -0.3808 -1.2597 -4.4317 -5.978 -11.3208 -11.9794 -15.8777 -15.641 -1.9244 -1.5464 -4.6064 -1.5466 -6.5305 -0.0005 -4.5577 3.662 -11.4447 9.6639 -15.8615 15.6414 -0.4813 0.6513 -0.453 1.0801 -0.3784 1.2557 0.1788 0.4206 0.4783 0.9399 0.9865 1.4768 0.3685 0.3893 0.7219 0.6561 1.0288 0.8405 0.0965 0.058 0.2205 0.0962 0.4699 0.0311 0.2851 -0.0744 0.6572 -0.2746 1.0323 -0.6139l14.3284 -12.9628c0.9417 -0.852 2.376 -0.8524 3.3183 -0.001l14.3492 12.9656c0.3748 0.3386 0.7465 0.5385 1.0312 0.6127 0.2491 0.065 0.3728 0.0269 0.469 -0.0308 0.3073 -0.1843 0.6612 -0.4513 1.0304 -0.8413 0.5067 -0.5352 0.8059 -1.0529 0.9849 -1.4728Zm2.7981 -3.6164c0.9179 1.2382 1.6899 3.1794 0.8421 5.1681 -0.3468 0.8135 -0.8944 1.7362 -1.7513 2.6415 -0.6222 0.6573 -1.2597 1.1491 -1.8687 1.5143 -2.4046 1.4424 -4.8752 0.1477 -6.1887 -1.0392L23.9916 17.3495l-13.3339 12.063c-1.3146 1.1893 -3.7883 2.4862 -6.1949 1.0404 -0.6077 -0.3651 -1.2437 -0.8562 -1.8646 -1.5121 -0.8597 -0.9081 -1.408 -1.8338 -1.7546 -2.6493 -0.8431 -1.9834 -0.076 -3.9188 0.8376 -5.1553C6.4179 14.7259 13.6434 8.4605 18.2467 4.7617c3.3723 -2.7096 8.116 -2.7088 11.4878 0.0006 4.6027 3.6985 11.8277 9.9616 16.5779 16.369Zm0.4113 20.2959c0.0191 -0.3298 0.03 -0.6931 0.03 -1.0928s-0.0109 -0.7632 -0.03 -1.0929c-0.1337 -2.3103 -2.0608 -3.5249 -4.0492 -3.6052 -2.7417 -0.1107 -8.1734 -0.2377 -18.6744 -0.2377s-15.9327 0.127 -18.6743 0.2377c-1.9885 0.0803 -3.9156 1.2949 -4.0493 3.6052 -0.0191 0.3297 -0.03 0.693 -0.03 1.0929 0 0.3997 0.0109 0.763 0.03 1.0927 0.1337 2.3104 2.0608 3.525 4.0493 3.6053 2.7416 0.1107 8.1733 0.2377 18.6743 0.2377s15.9327 -0.127 18.6744 -0.2377c1.9884 -0.0803 3.9155 -1.2949 4.0492 -3.6052Z" clip-rule="evenodd" stroke-width="1"></path>
  </g>
</svg>