<svg xmlns="http://www.w3.org/2000/svg" fill="none" viewBox="0 0 48 48" id="Arrow-Right-Circle-2--Streamline-Plump" stroke-width="1">
  <desc>
    Arrow Right Circle 2 Streamline Icon: https://streamlinehq.com
  </desc>
  <g id="line-arrow-right-circle-2">
    <path id="Ellipse 20" fill="#fddc5c" transform="matrix(-1 0 0 1 45.5 2.5)" d="M0 21.5a21.5 21.5 0 1 0 43 0 21.5 21.5 0 1 0-43 0"></path>
    <path id="Union" fill="#0c098c" fill-rule="evenodd" d="M43.5003 24.0003C43.5003 13.2306 34.7697 4.5 24 4.5c-10.7697 0-19.5003 8.7306-19.5003 19.5003C4.4997 34.77 13.2303 43.5006 24 43.5006c10.7697 0 19.5003-8.7306 19.5003-19.5003ZM24 .5c12.9789 0 23.5003 10.5214 23.5003 23.5003S36.9789 47.5006 24 47.5006.499702 36.9792.499702 24.0003 11.0211.5 24 .5Zm-1.1875 13.8434c-1.0284-.9294-2.6498-1.4177-3.932-.4828-.5278.3847-1.0055.8513-1.4311 1.3746-.9668 1.1885-.6479 2.8202.3019 3.8431l.9072.9769-8.83891.2498c-1.51108.0427-2.88101 1.1115-2.96209 2.7183-.01331.264-.02125.5464-.02125.8445 0 .3529.01112.6929.02904 1.012.09224 1.6417 1.48683 2.7751 3.05258 2.8193l8.74073.247-.9071.9768c-.9499 1.023-1.2687 2.6549-.3018 3.8434.4254.523.9029.9895 1.4304 1.3742 1.2823.9354 2.9042.4472 3.9328-.4824 2.2799-2.0605 4.8971-4.698 6.6096-6.8069 1.3857-1.7064 1.3856-3.9944-.0001-5.7008-1.7126-2.1089-4.33-4.7465-6.6099-6.807Zm13.2087.4793c-.2581 0-.4946.0065-.7112.018-1.5946.0847-2.4783 1.3989-2.5534 2.8339-.0667 1.2754-.128 3.2769-.128 6.3259s.0613 5.0505.128 6.3258c.0751 1.4351.9588 2.7493 2.5534 2.834.2166.0115.4531.018.7112.018.258 0 .4945-.0065.7111-.018 1.5946-.0847 2.4783-1.3989 2.5534-2.834.0667-1.2753.128-3.2768.128-6.3258s-.0613-5.0505-.128-6.3259c-.0751-1.435-.9588-2.7492-2.5534-2.8339-.2166-.0115-.4531-.018-.7111-.018Z" clip-rule="evenodd"></path>
  </g>
</svg>