<svg xmlns="http://www.w3.org/2000/svg" fill="none" viewBox="0 0 48 48" id="Arrow-Turn-Down-Large--Streamline-Plump">
  <desc>
    Arrow Turn Down Large Streamline Icon: https://streamlinehq.com
  </desc>
  <g id="triangle-arrow-turn-down-left-large--arrow-bend-curve-change-direction-return-down-large-head">
    <path id="Union" fill="#79ee8d" d="M32.9697 32.0972c1.5667 -2.2925 0.1207 -5.0432 -2.6498 -5.2273 -1.7589 -0.1168 -4.0284 -0.2219 -6.9153 -0.2819l0 -5.785c0 -3.8763 2.3632 -7.1277 6.2396 -7.1277l0.1384 0.0003c3.8816 0.0135 6.3009 3.3039 6.3009 7.1855 0 1.3149 0.6201 2.6179 1.8817 2.9888 1.6728 0.4918 3.6545 0.4509 5.378 -0.0084 1.4024 -0.3737 2.1568 -1.7749 2.1568 -3.2263l0 -0.9899C45.5 10.463 38.8066 2.75 29.6442 2.75c-9.7548 0 -16.9919 8.2522 -16.9919 18.0069l0 5.8323c-2.8596 0.0601 -5.11072 0.1646 -6.85794 0.2807 -2.77057 0.1841 -4.21649 2.9348 -2.64982 5.2273 3.06455 4.4842 7.55016 9.2182 11.97576 12.2416 1.7783 1.2149 4.0953 1.2149 5.8736 0 4.4256 -3.0234 8.9112 -7.7574 11.9758 -12.2416Z" stroke-width="1"></path>
    <path id="Union_2" fill="#0c098c" fill-rule="evenodd" d="M4.79592 30.9687c-0.38424 -0.5622 -0.33869 -1.0407 -0.17357 -1.3624 0.17276 -0.3365 0.57906 -0.6926 1.30474 -0.7408 1.71341 -0.1138 3.9341 -0.2172 6.76741 -0.2767 1.0879 -0.0229 1.9579 -0.9114 1.9579 -1.9996v-5.8323c0 -8.8047 6.4902 -16.0069 14.9919 -16.0069 7.8984 0 13.8558 6.651 13.8558 14.8753v0.9899c0 0.3938 -0.1047 0.7288 -0.2453 0.9523 -0.1294 0.2057 -0.2725 0.3004 -0.4265 0.3414 -1.4232 0.3793 -3.0276 0.396 -4.2988 0.0222 -0.0698 -0.0205 -0.155 -0.0653 -0.2503 -0.2288 -0.1077 -0.1848 -0.1956 -0.4804 -0.1956 -0.8412 0 -4.632 -2.9892 -9.167 -8.2938 -9.1855l-0.0036 0 -0.1385 -0.0003 -0.0034 0c-5.3159 0 -8.2395 4.5146 -8.2395 9.1277v5.785c0 1.0884 0.8703 1.977 1.9585 1.9996 2.8604 0.0594 5.0993 0.1633 6.8241 0.2779 0.7257 0.0482 1.132 0.4043 1.3047 0.7408 0.1652 0.3217 0.2107 0.8002 -0.1735 1.3624 -2.9489 4.315 -7.2657 8.8583 -11.4527 11.7187 -1.098 0.7501 -2.5193 0.7501 -3.6173 0 -4.187 -2.8604 -8.50381 -7.4037 -11.45268 -11.7187Zm0.86599 -6.0944c-2.04489 0.1359 -3.74684 1.2472 -4.59801 2.9052 -0.858815 1.6728 -0.752899 3.7159 0.42954 5.4461 3.18023 4.6535 7.83469 9.5783 12.49886 12.7646 2.4586 1.6797 5.6713 1.6797 8.1299 0 4.6642 -3.1863 9.3186 -8.1111 12.4989 -12.7646 1.1824 -1.7302 1.2883 -3.7733 0.4295 -5.4461 -0.8512 -1.658 -2.5531 -2.7693 -4.598 -2.9052 -1.3705 -0.091 -3.0373 -0.1746 -5.0478 -0.2359V20.803c0 -3.1386 1.8017 -5.1265 4.2374 -5.1277h0.0021l0.1315 0.0003 0.0018 0c2.4576 0.0095 4.306 2.055 4.306 5.1855 0 1.792 0.8673 4.1872 3.3176 4.9076 2.0744 0.6099 4.4333 0.5446 6.4571 0.0053 2.5634 -0.6831 3.6418 -3.1347 3.6418 -5.1588v-0.9899C47.5001 9.5249 40.0707 0.75 29.6443 0.75c-11.0078 0 -18.9919 9.3021 -18.9919 20.0069v3.8833c-1.98487 0.0611 -3.63306 0.1439 -4.99049 0.2341Z" clip-rule="evenodd" stroke-width="1"></path>
  </g>
</svg>