<svg xmlns="http://www.w3.org/2000/svg" fill="none" viewBox="0 0 48 48" id="Arrow-Expand--Streamline-Plump">
  <desc>
    Arrow Expand Streamline Icon: https://streamlinehq.com
  </desc>
  <g id="triangle-arrow-expand--expand-small-bigger-retract-smaller-big">
    <path id="Union" fill="#79ee8d" fill-rule="evenodd" d="M18.1402 6.45016c1.2723 -1.54956 0.3792 -3.61057 -1.6196 -3.76824 -3.6871 -0.29085 -7.79741 -0.18879 -11.10348 -0.0007 -1.47724 0.08404 -2.65169 1.25843 -2.73578 2.73567 -0.18944 3.32807 -0.29164 7.47101 0.00638 11.17691 0.15894 1.9764 2.1775 2.8605 3.71116 1.6037 0.87062 -0.7134 1.92957 -1.6306 3.18929 -2.8008 3.09773 2.8355 5.32693 4.6159 6.64123 5.6038 0.8795 0.6611 1.9887 0.7627 2.8291 0.0526 0.29 -0.245 0.6272 -0.5523 1.0147 -0.9374 0.4094 -0.407 0.7332 -0.7615 0.9889 -1.0655 0.7038 -0.8364 0.6161 -1.9461 -0.0276 -2.8295 -0.9686 -1.3293 -2.7339 -3.5829 -5.5951 -6.68833 1.1158 -1.20686 2.0023 -2.23159 2.7008 -3.08221Zm11.7197 0c-1.2723 -1.54956 -0.3792 -3.61057 1.6196 -3.76824 3.6871 -0.29085 7.7974 -0.18879 11.1035 -0.0007 1.4772 0.08404 2.6517 1.25843 2.7358 2.73567 0.1894 3.32807 0.2916 7.47101 -0.0064 11.17691 -0.159 1.9764 -2.1775 2.8605 -3.7112 1.6037 -0.8706 -0.7134 -1.9296 -1.6306 -3.1893 -2.8008 -3.0977 2.8355 -5.3269 4.6159 -6.6412 5.6038 -0.8795 0.6611 -1.9887 0.7627 -2.8291 0.0526 -0.29 -0.245 -0.6272 -0.5523 -1.0147 -0.9374 -0.4094 -0.407 -0.7332 -0.7615 -0.9889 -1.0655 -0.7038 -0.8364 -0.6161 -1.9461 0.0276 -2.8295 0.9686 -1.3293 2.7339 -3.5829 5.5951 -6.68833 -1.1158 -1.20686 -2.0023 -2.23159 -2.7008 -3.08221Zm1.6196 38.86794c-1.9988 -0.1577 -2.8919 -2.2187 -1.6196 -3.7682 0.6985 -0.8507 1.585 -1.8754 2.7008 -3.0823 -2.8612 -3.1054 -4.6265 -5.359 -5.5951 -6.6883 -0.6437 -0.8834 -0.7314 -1.9931 -0.0276 -2.8295 0.2557 -0.3039 0.5795 -0.6585 0.9889 -1.0655 0.3875 -0.3851 0.7247 -0.6924 1.0147 -0.9373 0.8404 -0.7102 1.9496 -0.6086 2.8291 0.0525 1.3143 0.9879 3.5435 2.7684 6.6412 5.6039 1.2597 -1.1703 2.3187 -2.0875 3.1893 -2.8009 1.5337 -1.2568 3.5522 -0.3727 3.7112 1.6037 0.298 3.7059 0.1958 7.8489 0.0064 11.1769 -0.0841 1.4773 -1.2586 2.6517 -2.7358 2.7357 -3.3061 0.1881 -7.4164 0.2901 -11.1035 -0.0007Zm-13.3393 -3.7682c1.2723 1.5495 0.3792 3.6105 -1.6196 3.7682 -3.6871 0.2908 -7.79741 0.1888 -11.10348 0.0007 -1.47724 -0.084 -2.65169 -1.2584 -2.73578 -2.7357 -0.18944 -3.328 -0.29164 -7.471 0.00638 -11.1769 0.15894 -1.9764 2.1775 -2.8605 3.71116 -1.6037 0.87062 0.7134 1.92957 1.6306 3.18929 2.8009 3.09773 -2.8355 5.32693 -4.616 6.64123 -5.6039 0.8795 -0.6611 1.9887 -0.7627 2.8291 -0.0525 0.29 0.2449 0.6272 0.5522 1.0147 0.9373 0.4094 0.407 0.7332 0.7616 0.9889 1.0655 0.7038 0.8364 0.6161 1.9461 -0.0276 2.8295 -0.9686 1.3293 -2.7339 3.5829 -5.5951 6.6883 1.1158 1.2069 2.0023 2.2316 2.7008 3.0823Z" clip-rule="evenodd" stroke-width="1"></path>
    <path id="Union_2" fill="#0c098c" fill-rule="evenodd" d="M5.18757 0.680088C8.45029 0.49437 12.5619 0.389596 16.288 0.683668c1.6535 0.130502 3.0164 1.088262 3.6263 2.503782 0.6114 1.41907 0.3678 3.07171 -0.6908 4.36155 -0.4323 0.52675 -0.9328 1.11585 -1.5106 1.7691 2.1518 2.4143 3.5602 4.2227 4.4042 5.3816 1.0272 1.4104 1.3389 3.5102 -0.057 5.1701 -0.2904 0.3454 -0.6463 0.7341 -1.0827 1.1681 -0.4113 0.409 -0.7791 0.7451 -1.1064 1.0218 -1.6801 1.4203 -3.7947 1.07 -5.1935 0.0181 -1.1353 -0.8538 -2.9125 -2.2674 -5.30378 -4.3973 -0.6997 0.6224 -1.32538 1.1551 -1.88005 1.6099 -1.27857 1.0482 -2.91724 1.2947 -4.32846 0.6817C1.75984 19.3616 0.820517 18.004 0.689227 16.3706 0.387968 12.6226 0.49293 8.4757 0.679878 5.18989 0.818338 2.7563 2.75525 0.818539 5.18757 0.680088ZM15.9809 4.57673c-3.4705 -0.2739 -7.38153 -0.17938 -10.57167 0.00221 -0.451 0.02567 -0.80641 0.38127 -0.83208 0.83245 -0.18282 3.21327 -0.27733 7.15681 0.0031 10.64571 0.01288 0.1603 0.05745 0.2435 0.08151 0.2784 0.0253 0.0366 0.0473 0.0489 0.05807 0.0536 0.01039 0.0045 0.02883 0.0102 0.06297 0.0049 0.03194 -0.005 0.1155 -0.0257 0.23655 -0.125 0.81565 -0.6687 1.81867 -1.5373 3.02114 -2.655 0.74492 -0.6924 1.89632 -0.6966 2.64631 -0.0098 2.9793 2.7285 5.1066 4.4264 6.3361 5.3511 0.159 0.1196 0.2697 0.1363 0.2984 0.1375 0.0033 0.0001 0.0073 0 0.0073 0 0.0041 -0.0024 0.0117 -0.0073 0.0229 -0.0168 0.2386 -0.2017 0.529 -0.4656 0.8739 -0.8086 0.3628 -0.3608 0.639 -0.6645 0.8476 -0.9126 0.0108 -0.0127 0.0161 -0.0213 0.0183 -0.0252l0.0022 -0.0042 0.0005 -0.0013 0.0006 -0.0027c0.0003 -0.0021 0.0009 -0.0074 0.0006 -0.0164 -0.0011 -0.0363 -0.019 -0.1489 -0.1331 -0.3057 -0.8989 -1.2342 -2.5737 -3.377 -5.3183 -6.3573 -0.6894 -0.74862 -0.6884 -1.90148 0.0023 -2.6489 1.065 -1.15247 1.9048 -2.12423 2.5604 -2.92305 0.1013 -0.1234 0.1247 -0.21174 0.1308 -0.25077 0.0064 -0.04159 -0.0002 -0.06838 -0.0079 -0.0863 -0.0078 -0.01814 -0.0244 -0.04459 -0.064 -0.07211 -0.0375 -0.02608 -0.1227 -0.07138 -0.2845 -0.08414ZM42.8124 0.680088C39.5497 0.49437 35.4381 0.389596 31.712 0.683668 30.0585 0.81417 28.6956 1.77193 28.0857 3.18745c-0.6114 1.41907 -0.3678 3.07171 0.6908 4.36155 0.4323 0.52675 0.9328 1.11585 1.5106 1.7691 -2.1518 2.4143 -3.5602 4.2227 -4.4042 5.3816 -1.0272 1.4104 -1.3389 3.5102 0.057 5.1701 0.2904 0.3454 0.6463 0.7341 1.0827 1.1681 0.4113 0.409 0.7791 0.7451 1.1064 1.0218 1.6801 1.4203 3.7947 1.07 5.1935 0.0181 1.1353 -0.8538 2.9125 -2.2674 5.3038 -4.3973 0.6997 0.6224 1.3254 1.1551 1.88 1.6099 1.2786 1.0482 2.9173 1.2947 4.3285 0.6817 1.4054 -0.6105 2.3447 -1.9681 2.476 -3.6015 0.3012 -3.748 0.1963 -7.8949 0.0093 -11.18071C47.1817 2.7563 45.2448 0.818539 42.8124 0.680088ZM32.0191 4.57673c3.4705 -0.2739 7.3815 -0.17938 10.5717 0.00221 0.451 0.02567 0.8064 0.38127 0.8321 0.83245 0.1828 3.21327 0.2773 7.15681 -0.0031 10.64571 -0.0129 0.1603 -0.0575 0.2435 -0.0816 0.2784 -0.0253 0.0366 -0.0473 0.0489 -0.058 0.0536 -0.0104 0.0045 -0.0289 0.0102 -0.063 0.0049 -0.0319 -0.005 -0.1155 -0.0257 -0.2366 -0.125 -0.8156 -0.6687 -1.8186 -1.5373 -3.0211 -2.655 -0.7449 -0.6924 -1.8963 -0.6966 -2.6463 -0.0098 -2.9793 2.7285 -5.1066 4.4264 -6.3361 5.3511 -0.159 0.1196 -0.2697 0.1363 -0.2984 0.1375 -0.0033 0.0001 -0.0073 0 -0.0073 0 -0.0041 -0.0024 -0.0117 -0.0073 -0.0229 -0.0168 -0.2386 -0.2017 -0.529 -0.4656 -0.8739 -0.8086 -0.3628 -0.3608 -0.639 -0.6645 -0.8476 -0.9126 -0.0108 -0.0127 -0.0161 -0.0213 -0.0183 -0.0252l-0.0022 -0.0042 -0.0005 -0.0013 -0.0006 -0.0027c-0.0003 -0.0021 -0.0009 -0.0074 -0.0006 -0.0164 0.0011 -0.0363 0.019 -0.1489 0.1331 -0.3057 0.8989 -1.2342 2.5737 -3.377 5.3183 -6.3573 0.6894 -0.74862 0.6884 -1.90148 -0.0023 -2.6489 -1.065 -1.15247 -1.9048 -2.12423 -2.5604 -2.92305 -0.1013 -0.1234 -0.1247 -0.21174 -0.1308 -0.25077 -0.0064 -0.04159 0.0002 -0.06838 0.0079 -0.0863 0.0078 -0.01814 0.0244 -0.04459 0.064 -0.07211 0.0375 -0.02608 0.1227 -0.07138 0.2845 -0.08414ZM31.712 47.3163c3.7261 0.2941 7.8377 0.1893 11.1004 0.0036 2.4324 -0.1384 4.3693 -2.0762 4.5077 -4.5098 0.187 -3.2858 0.2919 -7.4327 -0.0093 -11.1807 -0.1313 -1.6334 -1.0706 -2.991 -2.476 -3.6015 -1.4112 -0.613 -3.0499 -0.3665 -4.3285 0.6817 -0.5546 0.4548 -1.1803 0.9875 -1.88 1.6099 -2.3913 -2.1299 -4.1685 -3.5435 -5.3038 -4.3973 -1.3988 -1.0519 -3.5134 -1.4022 -5.1935 0.0181 -0.3273 0.2767 -0.6951 0.6128 -1.1064 1.0218 -0.4364 0.434 -0.7923 0.8227 -1.0827 1.1681 -1.3959 1.6599 -1.0842 3.7597 -0.057 5.1701 0.844 1.1589 2.2524 2.9673 4.4042 5.3816 -0.5778 0.6532 -1.0783 1.2424 -1.5106 1.7691 -1.0586 1.2898 -1.3022 2.9425 -0.6908 4.3615 0.6099 1.4156 1.9728 2.3733 3.6263 2.5038Zm10.879 -3.8952c-3.1901 0.1815 -7.1012 0.2761 -10.5717 0.0022 -0.1617 -0.0128 -0.2469 -0.0581 -0.2844 -0.0842 -0.0396 -0.0275 -0.0563 -0.0539 -0.0641 -0.0721 -0.0077 -0.0179 -0.0142 -0.0447 -0.0078 -0.0863 0.006 -0.039 0.0295 -0.1273 0.1308 -0.2508 0.6555 -0.7988 1.4954 -1.7705 2.5603 -2.923 0.6907 -0.7474 0.6917 -1.9003 0.0023 -2.6489 -2.7445 -2.9803 -4.4194 -5.1231 -5.3182 -6.3573 -0.1142 -0.1568 -0.1321 -0.2694 -0.1332 -0.3057 -0.0001 -0.0062 0.0001 -0.0107 0.0004 -0.0135l0.0003 -0.0029 0.0005 -0.0027 0.0006 -0.0013 0.0022 -0.0042c0.0012 -0.0022 0.0034 -0.0058 0.0069 -0.0108 0.0029 -0.004 0.0065 -0.0088 0.0113 -0.0144 0.2086 -0.2481 0.4848 -0.5518 0.8476 -0.9126 0.3449 -0.343 0.6354 -0.6069 0.874 -0.8086 0.0112 -0.0095 0.0188 -0.0144 0.0228 -0.0168l0.0032 0 0.0041 0c0.0287 0.0012 0.1394 0.0179 0.2984 0.1375 1.2296 0.9247 3.3568 2.6226 6.3361 5.3511 0.75 0.6868 1.9014 0.6826 2.6464 -0.0098 1.2024 -1.1177 2.2054 -1.9863 3.0211 -2.655 0.121 -0.0993 0.2046 -0.12 0.2365 -0.125 0.0342 -0.0053 0.0526 0.0004 0.063 0.0049 0.0108 0.0047 0.0328 0.017 0.0581 0.0536 0.024 0.0349 0.0686 0.1181 0.0815 0.2784 0.2804 3.4889 0.1859 7.4324 0.0031 10.6457 -0.0257 0.4512 -0.3811 0.8068 -0.8321 0.8325ZM5.18757 47.3199c3.26272 0.1857 7.37433 0.2905 11.10043 -0.0036 1.6535 -0.1305 3.0164 -1.0882 3.6263 -2.5038 0.6114 -1.419 0.3678 -3.0717 -0.6908 -4.3615 -0.4323 -0.5267 -0.9328 -1.1159 -1.5106 -1.7691 2.1518 -2.4143 3.5602 -4.2227 4.4042 -5.3816 1.0272 -1.4104 1.3389 -3.5102 -0.057 -5.1701 -0.2904 -0.3454 -0.6463 -0.7341 -1.0827 -1.1681 -0.4113 -0.409 -0.7791 -0.7451 -1.1064 -1.0218 -1.6801 -1.4203 -3.7947 -1.07 -5.1935 -0.0181 -1.1353 0.8538 -2.9125 2.2674 -5.30378 4.3973 -0.6997 -0.6224 -1.32538 -1.1551 -1.88005 -1.6099 -1.27857 -1.0482 -2.91724 -1.2947 -4.32846 -0.6817 -1.40537 0.6105 -2.344693 1.9681 -2.475983 3.6015 -0.301259 3.748 -0.196297 7.8949 -0.009349 11.1807 0.13846 2.4336 2.075372 4.3714 4.507692 4.5098Zm10.79313 -3.8966c-3.4705 0.2739 -7.38157 0.1793 -10.57172 -0.0022 -0.45099 -0.0257 -0.80641 -0.3813 -0.83208 -0.8325 -0.18282 -3.2133 -0.27733 -7.1568 0.0031 -10.6457 0.01289 -0.1603 0.05745 -0.2435 0.08152 -0.2784 0.0253 -0.0366 0.0473 -0.0489 0.05807 -0.0536 0.01038 -0.0045 0.02883 -0.0102 0.06297 -0.0049 0.03194 0.005 0.1155 0.0257 0.23655 0.125 0.81565 0.6687 1.81866 1.5373 3.02114 2.655 0.74492 0.6924 1.89631 0.6966 2.64635 0.0098 2.9793 -2.7285 5.1065 -4.4264 6.3361 -5.3511 0.159 -0.1196 0.2697 -0.1363 0.2984 -0.1375l0.0041 0 0.0032 0c0.004 0.0024 0.0116 0.0073 0.0228 0.0168 0.2386 0.2017 0.5291 0.4656 0.874 0.8086 0.3628 0.3608 0.639 0.6645 0.8476 0.9126 0.0107 0.0127 0.016 0.0213 0.0182 0.0252l0.0022 0.0042 0.0006 0.0013 0.0005 0.0027 0.0003 0.0029c0.0003 0.0028 0.0005 0.0073 0.0004 0.0135 -0.0011 0.0363 -0.019 0.1489 -0.1332 0.3057 -0.8988 1.2342 -2.5737 3.377 -5.3182 6.3573 -0.6894 0.7486 -0.6884 1.9015 0.0023 2.6489 1.0649 1.1525 1.9048 2.1242 2.5603 2.923 0.1013 0.1235 0.1248 0.2118 0.1308 0.2508 0.0064 0.0416 -0.0001 0.0684 -0.0078 0.0863 -0.0078 0.0182 -0.0245 0.0446 -0.0641 0.0721 -0.0375 0.0261 -0.1227 0.0714 -0.2844 0.0842Z" clip-rule="evenodd" stroke-width="1"></path>
  </g>
</svg>