<svg xmlns="http://www.w3.org/2000/svg" fill="none" viewBox="0 0 48 48" id="Bookmark-1--Streamline-Plump">
  <desc>
    Bookmark 1 Streamline Icon: https://streamlinehq.com
  </desc>
  <g id="bookmark-1--bookmarks-tags-favorite">
    <path id="Rectangle 57" fill="#fddc5c" d="M6.98508 7.38729c0.19695 -2.37583 2.01953 -4.12421 4.38202 -4.33602C14.3039 2.78797 18.7222 2.5 24 2.5c5.2778 0 9.6961 0.28797 12.6329 0.55127 2.3624 0.21181 4.185 1.96019 4.382 4.33602 0.243 2.93191 0.486 7.81811 0.486 15.63541l0 18.8683c0 1.9949 -1.6089 3.609 -3.5936 3.609 -0.8204 0 -1.6161 -0.2822 -2.2549 -0.7996l-9.2121 -7.4618c-1.4244 -1.1538 -3.4562 -1.1538 -4.8806 0l-9.2122 7.4618c-0.6388 0.5174 -1.4345 0.7996 -2.2549 0.7996 -1.98466 0 -3.59358 -1.6141 -3.59358 -3.609l0 -18.8683c0 -7.8173 0.24302 -12.7035 0.48606 -15.63541Z" stroke-width="1"></path>
    <path id="Union" fill="#0c098c" fill-rule="evenodd" d="M24 4.5c-5.2069 0 -9.5645 0.28418 -12.4543 0.54328 -1.4399 0.1291 -2.45459 1.14775 -2.56745 2.50923 -0.23729 2.86249 -0.47923 7.69129 -0.47923 15.47019V41.891c0 0.8978 0.72093 1.609 1.59358 1.609 0.3611 0 0.7126 -0.1241 0.9961 -0.3537l1.2588 1.5541 -1.2588 -1.5541 9.2121 -7.4619c2.1584 -1.7482 5.24 -1.7482 7.3983 0l9.2122 7.4619c0.2834 0.2296 0.6349 0.3537 0.996 0.3537 0.8727 0 1.5936 -0.7112 1.5936 -1.609V23.0227c0 -7.7789 -0.2419 -12.6077 -0.4792 -15.47019 -0.1129 -1.36148 -1.1275 -2.38013 -2.5674 -2.50923C33.5644 4.78418 29.2068 4.5 24 4.5ZM11.1885 1.05926C14.1722 0.791753 18.6512 0.5 24 0.5c5.3487 0 9.8278 0.291753 12.8115 0.55926 3.285 0.29453 5.9155 2.77264 6.1965 6.1628 0.2488 3.00134 0.4929 7.94484 0.4929 15.80064V41.891c0 3.092 -2.4969 5.609 -5.5936 5.609 -1.2797 0 -2.5196 -0.4402 -3.5137 -1.2455l-9.2122 -7.4618c-0.6904 -0.5593 -1.6724 -0.5593 -2.3629 0l-9.2121 7.4618c-0.9942 0.8053 -2.234 1.2455 -3.5138 1.2455 -3.09668 0 -5.59358 -2.517 -5.59358 -5.609V23.0227c0 -7.8558 0.24411 -12.7993 0.4929 -15.80064 0.28103 -3.39016 2.91151 -5.86827 6.19658 -6.1628Z" clip-rule="evenodd" stroke-width="1"></path>
  </g>
</svg>