<svg xmlns="http://www.w3.org/2000/svg" fill="none" viewBox="0 0 48 48" id="Check-Thick--Streamline-Plump">
  <desc>
    Check Thick Streamline Icon: https://streamlinehq.com
  </desc>
  <g id="check-thick--check-form-validation-checkmark-success-add-addition-1-tick">
    <path id="Vector 7 (Stroke)" fill="#7af1ff" fill-rule="evenodd" d="M44.6214 10.1191c0.9579 1.3362 0.7444 3.1113 -0.1621 4.4823 -9.1082 13.7749 -15.6334 22.0671 -19.1815 26.2834 -1.6932 2.0121 -4.6385 2.1615 -6.5531 0.3555 -3.4569 -3.2607 -9.08477 -8.8843 -14.92848 -16.0396 -1.20215 -1.472 -1.44927 -3.5396 -0.29238 -5.0469 1.14194 -1.4878 2.47029 -2.7533 3.64984 -3.7344 1.76661 -1.4693 4.30882 -1.1341 5.88812 0.5322l8.2963 9.282 13.253 -18.82592c1.1983 -1.6745 3.3371 -2.45257 5.1533 -1.46865 1.5785 0.85518 3.4508 2.19048 4.877 4.18007Z" clip-rule="evenodd" stroke-width="1"></path>
    <path id="Union" fill="#0c098c" fill-rule="evenodd" d="M36.2215 8.56587c-0.0013 0.00183 -0.0026 0.00365 -0.0039 0.00548L22.9735 27.3846c-0.3511 0.4987 -0.9106 0.81 -1.5195 0.8454 -0.6089 0.0353 -1.2007 -0.2091 -1.6071 -0.6639l-8.2744 -9.2574c-0.9643 -1.0008 -2.30785 -1.0439 -3.13991 -0.3519 -1.10415 0.9184 -2.31684 2.0786 -3.34221 3.4145 -0.47132 0.6141 -0.49556 1.6452 0.25487 2.564C11.1194 31.0054 16.6833 36.5652 20.0971 39.7852c1.0911 1.0292 2.7081 0.9314 3.6505 -0.1884 3.4942 -4.1523 9.9737 -12.3821 19.0434 -26.0988 0.5977 -0.9039 0.5395 -1.7472 0.2049 -2.2139 -1.1948 -1.6668 -2.7943 -2.82298 -4.2042 -3.5868 -0.7117 -0.38555 -1.8033 -0.19849 -2.5702 0.86857ZM32.9647 6.2435c1.6295 -2.2771 4.8129 -3.64486 7.7324 -2.06324 1.7472 0.94654 3.8922 2.46095 5.5498 4.77334 1.5811 2.2056 1.096 4.9126 -0.1193 6.7506C36.9808 29.5375 30.41 37.892 26.8081 42.1723c-2.4441 2.9043 -6.7177 3.1053 -9.4557 0.5227 -3.5001 -3.3015 -9.19194 -8.989 -15.10523 -16.2295 -1.653862 -2.025 -2.1723382 -5.1291 -0.32989 -7.5296 1.25851 -1.6397 2.70252 -3.0106 3.95747 -4.0544 2.69606 -2.2424 6.42545 -1.62 8.61865 0.694 0.0134 0.0142 0.0266 0.0285 0.0396 0.043l6.6187 7.4052 11.804 -16.76756 0.009 -0.01264Z" clip-rule="evenodd" stroke-width="1"></path>
  </g>
</svg>