<svg xmlns="http://www.w3.org/2000/svg" fill="none" viewBox="0 0 48 48" id="Cog-1--Streamline-Plump">
  <desc>
    Cog 1 Streamline Icon: https://streamlinehq.com
  </desc>
  <g id="cog-1--work-loading-cog-gear-settings-machine">
    <path id="Union" fill="#79ee8d" d="M18.9298 4.18122c0.0985 -0.19928 0.2221 -0.38726 0.3701 -0.5533 0.1848 -0.20746 0.4026 -0.38536 0.6594 -0.49183 0.6989 -0.28979 1.9677 -0.63609 4.04 -0.63609 2.0722 0 3.341 0.3463 4.04 0.63609 0.2568 0.10647 0.4746 0.28437 0.6594 0.49183 0.1479 0.16604 0.2715 0.35403 0.3701 0.5533 2.1498 4.34841 4.6128 5.79703 9.461 5.4942 0.222 -0.01387 0.4468 -0.00017 0.6644 0.04579 0.2703 0.05708 0.5312 0.15729 0.7497 0.32629 0.5989 0.4632 1.5327 1.3951 2.5702 3.2024 1.0373 1.8069 1.3731 3.086 1.4726 3.8393 0.0364 0.2752 -0.0078 0.5525 -0.0938 0.8164 -0.0693 0.2127 -0.1699 0.4154 -0.2931 0.6021 -2.678 4.0601 -2.6774 6.9247 0.0005 10.9847 0.1232 0.1867 0.2238 0.3895 0.2931 0.6021 0.086 0.2639 0.1302 0.5412 0.0938 0.8164 -0.0995 0.7533 -0.4353 2.0324 -1.4726 3.8393 -1.0375 1.8073 -1.9713 2.7392 -2.5702 3.2025 -0.2185 0.1689 -0.4794 0.2691 -0.7497 0.3262 -0.2176 0.046 -0.4424 0.0597 -0.6644 0.0458 -4.8485 -0.3029 -7.3115 1.1454 -9.4615 5.4941 -0.0986 0.1993 -0.2222 0.3872 -0.3701 0.5533 -0.1848 0.2074 -0.4026 0.3853 -0.6594 0.4918 -0.699 0.2898 -1.9678 0.6361 -4.04 0.6361 -2.0984 0 -3.3729 -0.3551 -4.0662 -0.647 -0.239 -0.1007 -0.4421 -0.2663 -0.6145 -0.4599 -0.1601 -0.1797 -0.3023 -0.374 -0.4508 -0.5633 -0.9454 -1.2049 -4.9406 -5.6134 -9.39883 -5.4992 -0.2224 0.0057 -0.44603 -0.0061 -0.66369 -0.0521 -0.27032 -0.057 -0.53121 -0.1572 -0.74967 -0.3262 -0.59894 -0.4632 -1.53268 -1.3952 -2.57022 -3.2025 -1.03732 -1.8069 -1.37309 -3.0859 -1.47259 -3.8392 -0.03635 -0.2752 0.0078 -0.5525 0.0938 -0.8165 0.06928 -0.2126 0.16993 -0.4153 0.29308 -0.602 2.67579 -4.0573 2.67621 -6.9268 0.00036 -10.9841 -0.12316 -0.1868 -0.22381 -0.3895 -0.29309 -0.6021 -0.086 -0.264 -0.13015 -0.5413 -0.0938 -0.8164 0.09951 -0.7534 0.43527 -2.0324 1.4726 -3.8393 1.03754 -1.8073 1.97128 -2.7393 2.57022 -3.2025 0.21846 -0.16895 0.47934 -0.26915 0.74966 -0.32623 0.21766 -0.04597 0.44241 -0.05967 0.66445 -0.0458 4.84672 0.30262 7.31052 -1.14751 9.45972 -5.49445Z" stroke-width="1"></path>
    <path id="Union_2" fill="#0c098c" fill-rule="evenodd" d="m20.796 4.95521 -0.0028 0.0031c-0.0182 0.02052 -0.0443 0.05621 -0.0705 0.10932 -1.1606 2.34726 -2.5369 4.1866 -4.5046 5.33267 -1.9697 1.1472 -4.2494 1.4353 -6.87261 1.2715 -0.05845 -0.0037 -0.10124 0.0012 -0.1266 0.0065l-0.0008 0.0002c-0.38425 0.3116 -1.12063 1.0395 -1.99781 2.5674 -0.88056 1.5339 -1.13846 2.5422 -1.21397 3.0332l0.0023 0.0072c0.00894 0.0274 0.02735 0.0694 0.06107 0.1205C7.51609 19.6 8.4069 21.7196 8.40677 24.0002c-0.00013 2.2805 -0.89114 4.4 -2.33745 6.593 -0.03372 0.0511 -0.05213 0.0931 -0.06107 0.1205l-0.00229 0.0072c0.07551 0.491 0.33341 1.4993 1.21397 3.0332 0.87717 1.5279 1.61355 2.2558 1.9978 2.5674l0.0008 0.0002c0.01848 0.0039 0.0767 0.0127 0.19926 0.0096 2.88011 -0.0738 5.43521 1.2985 7.25731 2.6463 1.8538 1.3713 3.2137 2.9135 3.7662 3.6176 0.0696 0.0887 0.1227 0.1576 0.1665 0.2146l0.0001 0.0001 0.0002 0.0002c0.078 0.1013 0.1269 0.1648 0.1881 0.2348 0.4595 0.1784 1.4523 0.4551 3.2031 0.4551 1.7514 0 2.7442 -0.2769 3.2033 -0.4552l0.0028 -0.0031c0.0183 -0.0205 0.0443 -0.0562 0.0705 -0.1093 1.1609 -2.3481 2.5374 -4.1876 4.5055 -5.3334 1.9701 -1.147 4.2501 -1.4343 6.8736 -1.2704 0.0584 0.0036 0.1012 -0.0012 0.1266 -0.0065l0.0008 -0.0002c0.3842 -0.3117 1.1206 -1.0395 1.9978 -2.5675 0.8805 -1.5338 1.1384 -2.5422 1.2139 -3.0332l-0.0023 -0.0071c-0.0089 -0.0275 -0.0273 -0.0694 -0.061 -0.1205 -1.4469 -2.1937 -2.339 -4.3128 -2.3391 -6.5933 -0.0002 -2.2806 0.8915 -4.3999 2.3386 -6.5938 0.0337 -0.0511 0.0521 -0.093 0.061 -0.1204l0.0023 -0.0073c-0.0755 -0.4909 -0.3334 -1.4993 -1.2139 -3.0331 -0.8772 -1.5279 -1.6136 -2.2558 -1.9979 -2.5675l-0.0007 -0.0001c-0.0254 -0.0054 -0.0682 -0.0102 -0.1266 -0.0066 -2.6235 0.1639 -4.9034 -0.1236 -6.8734 -1.2706 -1.968 -1.14587 -3.3444 -2.9854 -4.5052 -5.33329 -0.0262 -0.0531 -0.0522 -0.08879 -0.0705 -0.1093l-0.0028 -0.0031C26.7435 4.77689 25.7507 4.5 23.9993 4.5s-2.7441 0.27689 -3.2033 0.45521Zm-1.6027 -3.66663C20.1679 0.884502 21.7022 0.5 23.9993 0.5s3.8314 0.384502 4.806 0.78858c0.6148 0.25489 1.0681 0.65128 1.3868 1.00896 0.2775 0.31156 0.4987 0.65184 0.6695 0.99729 0.9891 2.00053 1.9192 3.05951 2.9322 3.64934 1.011 0.58865 2.3867 0.8741 4.6113 0.73514 0.3857 -0.02409 0.7924 -0.00151 1.2024 0.08505 0.4678 0.09879 1.0352 0.29518 1.56 0.70104 0.8346 0.64545 1.9326 1.7881 3.0811 3.7888 1.1484 2.0004 1.5827 3.5265 1.7209 4.5731 0.0867 0.6558 -0.027 1.2438 -0.1749 1.6979 -0.1297 0.3978 -0.3126 0.7613 -0.5252 1.0837 -1.2309 1.8662 -1.6778 3.2094 -1.6777 4.3911 0 1.1817 0.4472 2.5249 1.6782 4.3912 0.2126 0.3224 0.3955 0.6859 0.5252 1.0837 0.1479 0.4541 0.2616 1.0421 0.1749 1.6979 -0.1382 1.0466 -0.5725 2.5728 -1.7209 4.5731 -1.1485 2.0007 -2.2465 3.1434 -3.0811 3.7888 -0.5248 0.4059 -1.0922 0.6023 -1.56 0.701 -0.41 0.0866 -0.8167 0.1092 -1.2024 0.0851 -2.2249 -0.139 -3.6006 0.1464 -4.6117 0.735 -1.013 0.5898 -1.9431 1.6487 -2.9323 3.6494 -0.1708 0.3454 -0.392 0.6857 -0.6695 0.9973 -0.3187 0.3577 -0.772 0.754 -1.3868 1.0089 -0.9746 0.4041 -2.5089 0.7886 -4.806 0.7886 -2.3261 0 -3.8699 -0.3943 -4.8423 -0.8038 -0.5888 -0.2479 -1.0243 -0.6276 -1.3317 -0.9727 -0.1724 -0.1935 -0.3493 -0.4235 -0.4608 -0.5684 -0.0157 -0.0205 -0.0302 -0.0393 -0.0431 -0.056 -0.0099 -0.0128 -0.0189 -0.0244 -0.027 -0.0347 -0.3929 -0.5008 -1.5034 -1.7653 -2.998 -2.8709 -1.5264 -1.1291 -3.198 -1.9039 -4.77617 -1.8635 -0.32224 0.0082 -0.71128 -0.0066 -1.12812 -0.0946 -0.46784 -0.0988 -1.03525 -0.2952 -1.56002 -0.701 -0.83457 -0.6455 -1.9326 -1.7882 -3.08115 -3.7888 -1.1484 -2.0004 -1.58263 -3.5265 -1.72088 -4.5731 -0.08663 -0.6559 0.02703 -1.2439 0.17496 -1.6979 0.12962 -0.3979 0.31251 -0.7613 0.52511 -1.0837 1.22947 -1.8642 1.67657 -3.2081 1.67664 -4.391 0.00006 -1.1828 -0.44685 -2.5267 -1.67629 -4.3908 -0.21259 -0.3224 -0.39548 -0.6858 -0.5251 -1.0837 -0.14794 -0.454 -0.26159 -1.042 -0.17496 -1.6979 0.13824 -1.0466 0.57247 -2.5727 1.72088 -4.5731 1.14855 -2.0006 2.24658 -3.14329 3.08115 -3.78875 0.52477 -0.40586 1.09218 -0.60224 1.56001 -0.70103 0.40995 -0.08657 0.81667 -0.10914 1.2023 -0.08507 2.22354 0.13884 3.59914 -0.14687 4.61024 -0.73576 1.0132 -0.59011 1.9433 -1.6493 2.932 -3.64898 0.1708 -0.34545 0.392 -0.68572 0.6696 -0.99727 0.3186 -0.35768 0.7719 -0.75407 1.3867 -1.00896ZM15.1814 23.9998c0 -4.8701 3.948 -8.8182 8.8182 -8.8182 4.8701 0 8.8182 3.9481 8.8182 8.8182 0 4.8702 -3.9481 8.8182 -8.8182 8.8182 -4.8702 0 -8.8182 -3.948 -8.8182 -8.8182Z" clip-rule="evenodd" stroke-width="1"></path>
  </g>
</svg>