<svg xmlns="http://www.w3.org/2000/svg" fill="none" viewBox="0 0 48 48" id="Cut--Streamline-Plump">
  <desc>
    Cut Streamline Icon: https://streamlinehq.com
  </desc>
  <g id="cut--coupon-cut-discount-price-prices-scissors">
    <path id="Exclude" fill="#fddc5c" fill-rule="evenodd" d="M16.9985 20.1764c1.9266 -1.5678 3.1567 -3.9539 3.1567 -6.6264 0 -4.72203 -3.8404 -8.55 -8.5776 -8.55C6.84031 5 3 8.82797 3 13.55c0 2.8584 1.40719 5.3892 3.5687 6.9416 1.13149 0.9206 2.99181 2.1487 5.2476 3.5084 -2.25579 1.3597 -4.11611 2.5878 -5.2476 3.5084C4.40719 29.0608 3 31.5916 3 34.45 3 39.172 6.84031 43 11.5776 43c4.7372 0 8.5776 -3.828 8.5776 -8.55 0 -2.6725 -1.2301 -5.0586 -3.1567 -6.6264 0 0 2.1343 1.3199 5.0628 2.921l10.5375 -2.921c-3.013 -1.1218 -6.3377 -2.4241 -9.5845 -3.8236 8.2597 -3.5603 17.0242 -6.4918 19.8769 -7.4207 0.5213 -0.1698 0.7775 -0.7354 0.4873 -1.1993 -0.8401 -1.3429 -2.9115 -3.73 -7.0213 -3.73 -5.5711 0 -19.3587 8.5264 -19.3587 8.5264ZM14.4368 13.55c0 1.574 -1.2801 2.85 -2.8592 2.85 -1.57911 0 -2.85922 -1.276 -2.85922 -2.85s1.28011 -2.85 2.85922 -2.85c1.5791 0 2.8592 1.276 2.8592 2.85Zm0 20.9c0 -1.574 -1.2801 -2.85 -2.8592 -2.85 -1.57911 0 -2.85922 1.276 -2.85922 2.85s1.28011 2.85 2.85922 2.85c1.5791 0 2.8592 -1.276 2.8592 -2.85Z" clip-rule="evenodd" stroke-width="1"></path>
    <path id="Union" fill="#0c098c" fill-rule="evenodd" d="M11.5909 3C5.75072 3 1 7.71441 1 13.55c0 3.5106 1.72291 6.6175 4.35903 8.531 0.70361 0.5674 1.6263 1.2182 2.69765 1.919 -1.07135 0.7008 -1.99405 1.3516 -2.69765 1.919C2.72291 27.8325 1 30.9394 1 34.45 1 40.2856 5.75072 45 11.5909 45c5.8402 0 10.5909 -4.7144 10.5909 -10.55 0 -0.5804 -0.0472 -1.1502 -0.1379 -1.7055 0.7239 0.0164 1.4316 -0.3621 1.8025 -1.0415 0.5292 -0.9696 0.1723 -2.1846 -0.7972 -2.7138 -1.3284 -0.7252 -2.4918 -1.3922 -3.3603 -1.9007 -0.9143 -0.5354 -1.7707 -0.1895 -2.0724 -0.028 -0.3507 0.1876 -0.5939 0.4369 -0.7462 0.6291 -0.1549 0.1957 -0.3309 0.478 -0.4336 0.8378 -0.0835 0.2927 -0.2476 1.1287 0.3601 1.9049 0.8693 1.1104 1.385 2.5018 1.385 4.0177 0 3.6085 -2.9418 6.55 -6.5909 6.55C7.94184 41 5 38.0585 5 34.45c0 -2.1842 1.07415 -4.1219 2.73974 -5.3163 0.03257 -0.0233 0.06443 -0.0477 0.09554 -0.0729 0.99012 -0.8043 2.68612 -1.9333 4.85122 -3.2418 1.368 -0.8267 1.368 -2.8113 0 -3.638 -2.1651 -1.3085 -3.8611 -2.4375 -4.85122 -3.2418 -0.03111 -0.0252 -0.06297 -0.0496 -0.09554 -0.0729C6.07415 17.6719 5 15.7342 5 13.55 5 9.94152 7.94184 7 11.5909 7c3.6491 0 6.5909 2.94152 6.5909 6.55 0 1.5159 -0.5157 2.9073 -1.385 4.0177 -0.6029 0.77 -0.4454 1.5997 -0.3648 1.8906 0.0995 0.3586 0.272 0.6417 0.4254 0.839 0.1503 0.1934 0.3923 0.4462 0.7438 0.6374 0.3047 0.1658 1.165 0.5172 2.0842 -0.0211 1.8957 -1.1101 5.1718 -2.9606 8.4984 -4.5275 1.6643 -0.784 3.3094 -1.4817 4.7804 -1.9798 1.5104 -0.5113 2.6789 -0.7563 3.4449 -0.7563 2.0559 0 3.4321 0.7591 4.3118 1.5591 -3.7814 1.2615 -11.1393 3.8162 -18.1959 6.8378 -1.7207 0.7368 -1.715 3.1718 0.0001 3.9062 3.2045 1.3722 6.4665 2.6462 9.4229 3.7451 1.0353 0.3849 2.1867 -0.1424 2.5715 -1.1778 0.3849 -1.0353 -0.1424 -2.1867 -1.1778 -2.5715 -1.6208 -0.6025 -3.3298 -1.2565 -5.0658 -1.9489 7.8354 -3.1251 15.0878 -5.4559 16.1152 -5.7827 1.1426 -0.3634 1.8402 -1.6709 1.2918 -2.8885 -0.4376 -0.9715 -2.8996 -5.6788 -9.2738 -5.6788 -1.432 0 -3.0999 0.4165 -4.7276 0.9676 -1.667 0.5644 -3.4617 1.33 -5.2022 2.1498 -1.5198 0.7159 -3.0226 1.4847 -4.3949 2.2183 0.0642 -0.4696 0.0974 -0.9489 0.0974 -1.4357C22.1818 7.71441 17.4311 3 11.5909 3Zm2.9999 31.498c0 -1.6568 -1.3431 -3 -3 -3 -1.65683 0 -2.99998 1.3432 -2.99998 3 0 1.6569 1.34315 3 2.99998 3 1.6569 0 3 -1.3431 3 -3Zm-3 -18c1.6569 0 3 -1.3431 3 -3 0 -1.6568 -1.3431 -3 -3 -3 -1.65683 0 -2.99998 1.3432 -2.99998 3 0 1.6569 1.34315 3 2.99998 3Zm23.6559 14.3418c-1.5188 0 -2.75 1.2313 -2.75 2.75 0 1.5188 1.2312 2.75 2.75 2.75h1.36c1.5188 0 2.75 -1.2312 2.75 -2.75 0 -1.5187 -1.2312 -2.75 -2.75 -2.75h-1.36Zm7.636 0c-1.5188 0 -2.75 1.2313 -2.75 2.75 0 1.5188 1.2312 2.75 2.75 2.75h1.364c1.5188 0 2.75 -1.2312 2.75 -2.75 0 -1.5187 -1.2312 -2.75 -2.75 -2.75h-1.364Zm-15.2727 0c-1.5188 0 -2.75 1.2313 -2.75 2.75 0 1.5188 1.2312 2.75 2.75 2.75h1.3667c1.5188 0 2.75 -1.2312 2.75 -2.75 0 -1.5187 -1.2312 -2.75 -2.75 -2.75H27.61Z" clip-rule="evenodd" stroke-width="1"></path>
  </g>
</svg>