<svg xmlns="http://www.w3.org/2000/svg" fill="none" viewBox="0 0 48 48" id="Delete-Row--Streamline-Plump">
  <desc>
    Delete Row Streamline Icon: https://streamlinehq.com
  </desc>
  <g id="delete-row">
    <path id="Subtract" fill="#ff7972" fill-rule="evenodd" d="M3.18191 32.4008C3.08771 29.9027 3 26.1841 3 20.998c0 -5.186 0.08771 -8.9046 0.18191 -11.40273 0.09086 -2.40979 1.97051 -4.28441 4.38019 -4.37823 2.8256 -0.11003 7.199 -0.21899 13.4379 -0.21899 6.2389 0 10.6123 0.10896 13.4379 0.21899 2.4097 0.09382 4.2893 1.96843 4.3802 4.37823C38.9123 12.0934 39 15.812 39 20.998c0 1.576 -0.0081 3.0164 -0.022 4.3282l-1.0206 1.0125 -0.0187 -0.0175c-1.3966 -1.2927 -3.144 -1.9495 -5.0492 -1.5243 -1.6238 0.3625 -2.8897 1.4257 -3.7778 2.3138 -0.8882 0.8882 -1.9513 2.154 -2.3138 3.7778 -0.4232 1.8958 0.2251 3.6353 1.5051 5.0285l-1.049 1.0407c-1.833 0.025 -3.9121 0.0403 -6.254 0.0403 -6.2389 0 -10.6123 -0.1089 -13.4379 -0.2189 -2.40968 -0.0939 -4.28933 -1.9685 -4.38019 -4.3783Z" clip-rule="evenodd" stroke-width="1"></path>
    <path id="Union" fill="#0c098c" fill-rule="evenodd" d="M7.63991 7.2165C10.4369 7.10759 14.7842 6.99902 21 6.99902s10.5631 0.10857 13.3601 0.21748c1.3695 0.05333 2.4081 1.09403 2.4594 2.4551 0.0807 2.1389 0.157 5.1945 0.176 9.3274l-31.99098 0c0.01903 -4.1329 0.09532 -7.1885 0.17597 -9.32739 0.05132 -1.36108 1.08989 -2.40179 2.45942 -2.45511ZM5.00452 22.999l31.99098 0c-0.0037 0.81 -0.0097 1.5786 -0.0174 2.307 -0.0117 1.1045 0.8742 2.0094 1.9787 2.0211 1.1045 0.0117 2.0093 -0.8742 2.0211 -1.9787 0.014 -1.3191 0.0221 -2.7666 0.0221 -4.3494 0 -5.2084 -0.0881 -8.9522 -0.1833 -11.47811 -0.1304 -3.45852 -2.8512 -6.16703 -6.301 -6.30136C31.6614 3.10839 27.262 2.99902 21 2.99902c-6.262 0 -10.6614 0.10937 -13.51572 0.22051 -3.44983 0.13433 -6.17055 2.84285 -6.30095 6.30136C1.08809 12.0468 1 15.7906 1 20.999c0 5.2084 0.08809 8.9523 0.18333 11.4782 0.1304 3.4585 2.85113 6.167 6.30095 6.3013 2.85432 0.1112 7.25372 0.2205 13.51572 0.2205 2.3507 0 4.4389 -0.0154 6.2813 -0.0405 1.1045 -0.0151 1.9876 -0.9226 1.9725 -2.0271 -0.015 -1.1045 -0.9226 -1.9876 -2.027 -1.9725 -1.8236 0.0248 -3.8936 0.0401 -6.2268 0.0401 -6.2158 0 -10.5631 -0.1085 -13.36009 -0.2175 -1.36953 -0.0533 -2.4081 -1.094 -2.45942 -2.4551 -0.08065 -2.1389 -0.15694 -5.1944 -0.17597 -9.3274Zm31.06608 5.8207c-0.9825 -0.9094 -2.4592 -1.1698 -3.5813 -0.2351 -0.2976 0.2479 -0.6297 0.5484 -0.993 0.9117 -0.3633 0.3633 -0.6638 0.6954 -0.9117 0.993 -0.9347 1.1221 -0.6743 2.5988 0.2351 3.5813 0.5414 0.585 1.2919 1.3788 2.3127 2.4284 -1.0208 1.0496 -1.7713 1.8435 -2.3127 2.4284 -0.9094 0.9826 -1.1698 2.4593 -0.2351 3.5813 0.2479 0.2976 0.5484 0.6298 0.9117 0.9931 0.3633 0.3633 0.6954 0.6638 0.993 0.9116 1.1221 0.9347 2.5988 0.6744 3.5813 -0.2351 0.585 -0.5414 1.3788 -1.2918 2.4284 -2.3126 1.0496 1.0208 1.8435 1.7712 2.4284 2.3126 0.9826 0.9095 2.4593 1.1698 3.5814 0.2351 0.2975 -0.2478 0.6297 -0.5483 0.993 -0.9116 0.3633 -0.3633 0.6638 -0.6955 0.9116 -0.9931 0.9347 -1.122 0.6744 -2.5987 -0.2351 -3.5813 -0.5414 -0.5849 -1.2918 -1.3788 -2.3126 -2.4284 1.0208 -1.0496 1.7712 -1.8434 2.3126 -2.4284 0.9095 -0.9825 1.1698 -2.4592 0.2351 -3.5813 -0.2478 -0.2976 -0.5483 -0.6297 -0.9116 -0.993 -0.3633 -0.3633 -0.6955 -0.6638 -0.993 -0.9117 -1.1221 -0.9347 -2.5988 -0.6743 -3.5814 0.2351 -0.5849 0.5414 -1.3788 1.2919 -2.4284 2.3127 -1.0496 -1.0208 -1.8434 -1.7713 -2.4284 -2.3127Z" clip-rule="evenodd" stroke-width="1"></path>
  </g>
</svg>