<svg xmlns="http://www.w3.org/2000/svg" fill="none" viewBox="0 0 48 48" id="Empty-Clipboard--Streamline-Plump">
  <desc>
    Empty Clipboard Streamline Icon: https://streamlinehq.com
  </desc>
  <g id="empty-clipboard--work-plain-clipboard-task-list-company-office">
    <path id="Rectangle 1095" fill="#79ee8d" d="M10.2547 3.99706c-2.5545 0.20881 -4.51528 2.15597 -4.7229 4.71053C5.27166 11.9082 5 17.0372 5 24.5s0.27166 12.5918 0.5318 15.7924c0.20762 2.5546 2.1684 4.5017 4.7229 4.7105C13.2524 45.248 17.8342 45.5 24 45.5s10.7476 -0.252 13.7453 -0.4971c2.5545 -0.2088 4.5153 -2.1559 4.7229 -4.7105C42.7283 37.0918 43 31.9628 43 24.5c0 -7.4628 -0.2717 -12.5918 -0.5318 -15.79241 -0.2076 -2.55456 -2.1684 -4.50172 -4.7229 -4.71053C34.7476 3.75201 30.1658 3.5 24 3.5s-10.7476 0.25201 -13.7453 0.49706Z" stroke-width="1"></path>
    <path id="Union" fill="#0c098c" fill-rule="evenodd" d="M17.5535 0.678504C19.0646 0.585621 21.2133 0.5 23.9996 0.5c2.7865 0 4.9354 0.085632 6.4467 0.178522 0.9153 0.056262 1.7297 0.431898 2.3401 1.013578 0.0486 -0.00131 0.0976 -0.00087 0.1469 0.00138 1.9679 0.08977 3.6262 0.20096 4.975 0.31121 3.5231 0.288 6.2657 3.00338 6.5533 6.54187C44.7266 11.8067 45 16.9901 45 24.501c0 7.5109 -0.2734 12.6943 -0.5384 15.9544 -0.2876 3.5385 -3.0302 6.2539 -6.5533 6.5419 -3.0518 0.2494 -7.6879 0.5037 -13.9083 0.5037 -6.2204 0 -10.8565 -0.2543 -13.9083 -0.5037 -3.52314 -0.288 -6.26573 -3.0034 -6.55333 -6.5419C3.2734 37.1953 3 32.0119 3 24.501c0 -7.5109 0.2734 -12.6943 0.53837 -15.95444 0.2876 -3.53848 3.03019 -6.25387 6.55333 -6.54187 1.3488 -0.11025 3.0071 -0.22144 4.9748 -0.3112 0.0494 -0.00225 0.0983 -0.00269 0.1469 -0.00139 0.6104 -0.58168 1.4247 -0.957331 2.3401 -1.013596ZM14.1563 5.74299c-1.4462 0.07621 -2.6925 0.16289 -3.7387 0.24841 -1.58575 0.12962 -2.76472 1.30856 -2.89238 2.8792C7.26992 12.0117 7 17.0863 7 24.501c0 7.4146 0.26992 12.4892 0.52522 15.6304 0.12766 1.5706 1.30663 2.7496 2.89238 2.8792 2.9437 0.2406 7.4711 0.4904 13.5824 0.4904s10.6387 -0.2498 13.5824 -0.4904c1.5858 -0.1296 2.7647 -1.3086 2.8924 -2.8792 0.2553 -3.1412 0.5252 -8.2158 0.5252 -15.6304 0 -7.4147 -0.2699 -12.4893 -0.5252 -15.6304 -0.1277 -1.57064 -1.3067 -2.74958 -2.8924 -2.8792 -1.0463 -0.08553 -2.2925 -0.1722 -3.7389 -0.24841 -0.0339 0.44693 -0.0705 0.86533 -0.1069 1.24504 -0.1654 1.72545 -1.4854 3.11107 -3.2524 3.26737 -1.4089 0.1246 -3.5319 0.2446 -6.4846 0.2446 -2.9525 0 -5.0753 -0.1199 -6.4841 -0.2446 -1.7669 -0.1563 -3.0868 -1.54188 -3.2522 -3.26725 -0.0364 -0.37974 -0.073 -0.79818 -0.107 -1.24516Z" clip-rule="evenodd" stroke-width="1"></path>
  </g>
</svg>