<svg xmlns="http://www.w3.org/2000/svg" fill="none" viewBox="0 0 48 48" id="File-Folder--Streamline-Plump">
  <desc>
    File Folder Streamline Icon: https://streamlinehq.com
  </desc>
  <g id="file-folder--work-office-company-folder-supplies-file">
    <path id="Subtract" fill="#79ee8d" d="M16.9581 16.2161c1.9629 -0.0416 3.7989 0.9464 4.888 2.5776l1.2999 1.947c0.5445 0.8157 1.465 1.3045 2.4466 1.3099 6.6871 0.0373 11.6069 0.307 14.7594 0.553 2.4278 0.1894 4.2281 2.2295 4.1453 4.6597 -0.1972 5.7823 -0.7596 10.4786 -1.2192 13.5044 -0.3487 2.2956 -2.1416 4.0106 -4.4579 4.213 -2.9097 0.2543 -7.6589 0.52 -14.8024 0.52s-11.8929 -0.2657 -14.80276 -0.52c-2.31634 -0.2024 -4.09901 -1.9248 -4.41232 -4.2255 -0.50037 -3.6742 -1.14582 -10.0716 -1.30203 -19.3505 -0.04094 -2.4314 1.75583 -4.4865 4.18189 -4.6967 2.32882 -0.2018 5.51322 -0.412 9.27552 -0.4919Z" stroke-width="1"></path>
    <path id="Subtract_2" fill="#79ee8d" d="M26 2c1.7788 0.71877 5.2416 2.39982 8.4213 5.57928C37.6009 10.7587 39.2815 14.2213 40 16c-2.198 -0.0123 -4.8177 -0.1134 -7.1554 -0.2292 -3.5863 -0.1777 -6.4376 -3.0289 -6.6154 -6.615C26.1134 6.81801 26.0123 4.19804 26 2Z" stroke-width="1"></path>
    <path id="Union" fill="#0c098c" fill-rule="evenodd" d="M24.0251 0.5c-4.6907 0 -8.2912 0.178437 -10.8014 0.369419C9.74312 1.13423 7.04241 3.82635 6.78583 7.31593c-0.05482 0.74568 -0.11025 2.91877 -0.16016 4.99117 0.21975 -0.0352 0.44263 -0.0628 0.66841 -0.0823 2.41105 -0.209 5.69432 -0.4254 9.56852 -0.5077 3.5491 -0.0753 6.811 1.7095 8.7261 4.578l0.842 1.2613c6.3853 0.0543 11.1425 0.3167 14.2714 0.5608 0.3181 0.0249 0.6308 0.0657 0.9374 0.1216 -0.0041 -1.0941 -0.0088 -2.0617 -0.0139 -2.3523 -0.0136 -0.7703 -0.1382 -1.6015 -0.4686 -2.4181 -0.6457 -1.5964 -2.1368 -4.6653 -4.9678 -7.49628 -2.8932 -2.89319 -6.0353 -4.38784 -7.6014 -5.010708 -0.8072 -0.321044 -1.6281 -0.43901 -2.3853 -0.44827C25.5048 0.50461 24.779 0.5 24.0251 0.5Zm3.944 4.54942c1.3929 0.64713 3.4676 1.82706 5.3917 3.75113 1.921 1.92095 3.1001 3.99235 3.748 5.38615 -1.2052 -0.0348 -2.4562 -0.088 -3.6209 -0.1457 -2.9129 -0.1444 -5.2288 -2.4603 -5.3731 -5.37313 -0.0577 -1.16394 -0.1109 -2.41399 -0.1457 -3.61845ZM17.0005 18.2157c1.2583 -0.0267 2.4605 0.6074 3.1822 1.6885l1.2999 1.947c0.9188 1.3762 2.4627 2.1903 4.0989 2.1994 6.6387 0.037 11.5104 0.3047 14.615 0.5469 1.3472 0.1052 2.3487 1.224 2.3019 2.5977 -0.194 5.6913 -0.7476 10.309 -1.1976 13.2722 -0.2128 1.4008 -1.2757 2.4004 -2.6547 2.5209 -2.8431 0.2485 -7.5334 0.5124 -14.6283 0.5124 -7.0949 0 -11.7854 -0.2639 -14.62863 -0.5124 -1.37271 -0.12 -2.41581 -1.1156 -2.60475 -2.5029 -0.48948 -3.5944 -1.12911 -9.9129 -1.28402 -19.1144 -0.02381 -1.414 1.00807 -2.5538 2.35484 -2.6705 2.29226 -0.1986 5.43276 -0.406 9.14526 -0.4848Zm6.509 -0.5325c-1.4564 -2.1814 -3.9263 -3.5233 -6.5938 -3.4666 -3.8121 0.0809 -7.04043 0.2939 -9.40579 0.4988 -3.50534 0.3038 -6.06701 3.2742 -6.00894 6.7229 0.15752 9.3564 0.80879 15.8327 1.32004 19.5868l1.9817 -0.2699 -1.9817 0.2699c0.43769 3.214 2.95993 5.6631 6.21991 5.948 2.97648 0.2601 7.78478 0.5276 14.97688 0.5276s12.0001 -0.2675 14.9765 -0.5276c3.2536 -0.2843 5.7765 -2.7147 6.2611 -5.9051 0.4691 -3.0884 1.0405 -7.8633 1.2407 -13.7365 0.1189 -3.4869 -2.4802 -6.4481 -5.9885 -6.7219 -3.2004 -0.2497 -8.1684 -0.5214 -14.9038 -0.5589 -0.3272 -0.0019 -0.6242 -0.1654 -0.7945 -0.4205l-1.2998 -1.947Z" clip-rule="evenodd" stroke-width="1"></path>
  </g>
</svg>