<svg xmlns="http://www.w3.org/2000/svg" fill="none" viewBox="0 0 48 48" id="Fill-And-Sign--Streamline-Plump">
  <desc>
    Fill And Sign Streamline Icon: https://streamlinehq.com
  </desc>
  <g id="fill-and-sign--essential-files-folder-fill-and-sign">
    <path id="Rectangle 64" fill="#79ee8d" d="M37.4271 16.2803c1.6621 -1.6621 2.1473 -4.1621 0.7774 -6.0723 -0.7556 -1.05357 -1.7604 -2.28641 -3.0656 -3.59163 -1.3052 -1.30524 -2.5381 -2.30996 -3.5917 -3.0656 -1.9101 -1.3699 -4.4102 -0.88473 -6.0723 0.77738L4.16069 25.6425c-0.57906 0.579 -0.96128 1.3245 -1.03407 2.1402 0 0 -0.29781 4.6788 0.01198 9.0734 0.06647 0.943 0.81753 1.6941 1.76053 1.7606 4.39461 0.3098 9.07347 0.012 9.07347 0.012 0.8156 -0.0728 1.5611 -0.455 2.1402 -1.0341l21.3143 -21.3143Z" stroke-width="1"></path>
    <path id="Union" fill="#0c098c" fill-rule="evenodd" d="M24.0607 2.91399c2.1887 -2.188686 5.7698 -3.055538 8.6521 -0.98841 1.1355 0.81438 2.4526 1.88887 3.8403 3.27663 1.3878 1.38774 2.4623 2.70479 3.2766 3.8403 2.0672 2.88229 1.2003 6.46339 -0.9884 8.65209L17.527 39.0089c-0.8715 0.8714 -2.0414 1.4928 -3.3767 1.6119 -0.0169 0.0015 -0.0338 0.0028 -0.0507 0.0039l-0.057 -0.8959c0.057 0.8959 0.0568 0.8959 0.0567 0.8959l-0.0004 0 -0.0011 0.0001 -0.0036 0.0002 -0.0121 0.0008 -0.0442 0.0026 -0.0428 0.0026 -0.1219 0.0069c-0.1425 0.0078 -0.3489 0.0186 -0.6095 0.0304 -0.5209 0.0237 -1.2597 0.0519 -2.1383 0.0702 -1.75022 0.0363 -4.08527 0.0341 -6.3669 -0.1267 -1.9367 -0.1365 -3.47842 -1.6783 -3.61495 -3.615 -0.160833 -2.2816 -0.163049 -4.6167 -0.12667 -6.3669 0.01826 -0.8786 0.04643 -1.6174 0.07012 -2.1383 0.01186 -0.2606 0.02261 -0.467 0.03048 -0.6095 0.00393 -0.0713 0.00715 -0.1266 0.00942 -0.1647l0.00267 -0.0442 0.00076 -0.0121 0.00022 -0.0036 0.00007 -0.0011 0.00003 -0.0004c0.00001 -0.0002 0.00001 -0.0003 0.89485 0.0567l0 -0.0001 -0.89483 -0.0569c0.00108 -0.0169 0.00237 -0.0339 0.00388 -0.0507 0.11915 -1.3353 0.74047 -2.5052 1.61193 -3.3767l1.18626 1.1863 -1.18626 -1.1863L24.0607 2.91399Zm8.8879 15.01651L15.6133 35.2657c-1.0063 -1.5045 -2.3627 -3.2673 -4.11 -5.0146 -1.74687 -1.7469 -3.50922 -3.1031 -5.01346 -4.1093L23.826 8.80557c3.7484 1.91073 7.2136 5.37573 9.1226 9.12493Zm1.7523 10.8199c-3.8389 0 -6.9509 3.1121 -6.9509 6.9509 0 2.145 0.9903 4.1698 2.6835 5.4867l0.7336 0.5707c-1.3261 0.6487 -2.7906 0.9917 -4.2844 0.9917H3c-1.24264 0 -2.25 1.0074 -2.25 2.25 0 1.2427 1.00736 2.25 2.25 2.25h23.8827c2.8996 0 5.7234 -0.8843 8.0987 -2.5251l1.0122 0.7873c1.4482 1.1263 3.2304 1.7378 5.065 1.7378H45c1.2426 0 2.25 -1.0073 2.25 -2.25 0 -1.2426 -1.0074 -2.25 -2.25 -2.25h-3.9414c-0.8339 0 -1.644 -0.2779 -2.3022 -0.7899l-0.0915 -0.0712 0.9017 -0.7013c1.6931 -1.3169 2.6834 -3.3417 2.6834 -5.4867 0 -3.8388 -3.112 -6.9509 -6.9509 -6.9509h-0.5982Zm2.1029 8.8855L35 39.0389l-1.8038 -1.403c-0.597 -0.4643 -0.9462 -1.1783 -0.9462 -1.9346 0 -1.3536 1.0973 -2.4509 2.4509 -2.4509h0.5982c1.3536 0 2.4509 1.0973 2.4509 2.4509 0 0.7563 -0.3492 1.4703 -0.9462 1.9346Z" clip-rule="evenodd" stroke-width="1"></path>
  </g>
</svg>