<svg xmlns="http://www.w3.org/2000/svg" fill="none" viewBox="0 0 48 48" id="Firefighter-Truck--Streamline-Plump">
  <desc>
    Firefighter Truck Streamline Icon: https://streamlinehq.com
  </desc>
  <g id="firefighter-truck">
    <path id="Union" fill="#7af1ff" d="M39.281 17.4691c1.1126 1.3238 2.8713 3.614 4.7095 6.7902 0.5252 0.9073 0.8228 1.9252 0.8781 2.9712 0.0987 1.8673 0.2121 5.1817 0.0495 8.8198 -0.0628 1.4067 -1.1871 2.5144 -2.598 2.5854 -2.5148 0.1265 -6.8682 0.2958 -12.5928 0.3277v0.0047H28.511c-0.2289 0.0004 -0.4598 0.0007 -0.6927 0.0007l-7.6365 -0.0007v-0.0033c-6.9489 -0.0261 -11.83689 -0.2063 -14.47345 -0.334 -1.33448 -0.0646 -2.40038 -1.0643 -2.48922 -2.3931C3.11031 34.6101 3 32.0282 3 28.2496c0 -4.099 0.12982 -7.2122 0.24672 -9.1847 0.08403 -1.4179 1.24358 -2.509 2.66757 -2.5613 6.02141 -0.2211 10.55001 -0.3103 13.22251 -0.3462 1.542 -0.0207 2.8077 1.1946 2.8474 2.7313 0.009 0.352 0.0174 0.7022 0.0252 1.0503h5.6757c0.0138 -0.5081 0.0293 -1.0207 0.0465 -1.5371 0.0444 -1.328 1.0158 -2.4347 2.3438 -2.5508 1.5738 -0.1375 3.8175 -0.2241 6.2294 0.0317 1.1638 0.1234 2.2246 0.692 2.9762 1.5863Z" stroke-width="1"></path>
    <path id="Union_2" fill="#0c098c" fill-rule="evenodd" d="M34.3632 5.82551c1.0079 -0.45183 1.4587 -1.6352 1.0069 -2.64313 -0.4518 -1.00793 -1.6352 -1.45873 -2.6431 -1.0069L5.04517 14.5846c-0.02812 0.0126 -0.0558 0.0257 -0.08304 0.0395 -2.01115 0.4499 -3.58313 2.1568 -3.71193 4.337C1.13114 20.9765 1 24.1392 1 28.2936c0 3.8292 0.11141 6.4641 0.22356 8.147 0.15938 2.3916 2.08444 4.1537 4.38776 4.2656 0.37073 0.018 0.78505 0.037 1.24244 0.0565 0.4831 2.9711 3.06102 5.2393 6.16874 5.2393 3.0106 0 5.5241 -2.1288 6.1173 -4.9632 0.3024 0.0018 0.6088 0.0034 0.9194 0.0046 0.0404 0.0025 0.0811 0.0037 0.1222 0.0037l7.6365 0.0007h0.0002c0.2335 0 0.4651 -0.0002 0.6946 -0.0007h0.3492c0.5964 2.8303 3.1079 4.9549 6.1156 4.9549 3.1047 0 5.6806 -2.2638 6.1673 -5.2307 0.4663 -0.0207 0.8922 -0.0411 1.2761 -0.0604 2.4217 -0.1222 4.3856 -2.042 4.4952 -4.5023 0.1665 -3.7371 0.0504 -7.1318 -0.0503 -9.0426 -0.0715 -1.3582 -0.4572 -2.6866 -1.1429 -3.8751 -1.9054 -3.3029 -3.7343 -5.6953 -4.9087 -7.0972 -1.0807 -1.29 -2.6133 -2.1167 -4.2978 -2.2959l-0.112 -0.0117c-0.0324 -0.7712 -0.09 -1.51 -0.1535 -2.1587 -0.1607 -1.6443 -1.5667 -2.81789 -3.1828 -2.81789 -1.6162 0 -3.0222 1.17359 -3.1829 2.81789 -0.0633 0.6471 -0.1208 1.3838 -0.1532 2.1529 -2.1884 0.2715 -3.7327 2.0327 -3.9701 4.0756h-1.8847c-0.4721 -2.1969 -2.4354 -3.8251 -4.7674 -3.7936 -0.9385 0.0126 -2.1036 0.0318 -3.4799 0.0609l18.7333 -8.39769Zm6.1226 30.97059c0.6505 -0.0275 1.2296 -0.0547 1.7335 -0.0801 0.4001 -0.0202 0.6847 -0.3231 0.7008 -0.6854 0.1587 -3.5627 0.048 -6.8183 -0.0487 -8.6542 -0.039 -0.7407 -0.2486 -1.4546 -0.6133 -2.0867 -1.771 -3.07 -3.4594 -5.273 -4.5102 -6.5273 -0.4225 -0.5044 -1.0115 -0.8186 -1.6547 -0.8871 -2.2449 -0.2388 -4.3523 -0.1588 -5.8432 -0.0281 -0.2373 0.0208 -0.5049 0.2258 -0.5194 0.6309l-0.0001 0.0024 -0.017 0.566c-0.049 1.6208 -1.3771 2.9094 -2.9987 2.9094h-3.7291c-1.6288 0 -2.9601 -1.2997 -2.9991 -2.9281l-0.0018 -0.0742 0 -0.0011c-0.0121 -0.4485 -0.3764 -0.7966 -0.8211 -0.7906 -2.6584 0.0359 -7.1713 0.1249 -13.17578 0.3461 -0.43275 0.016 -0.72366 0.3332 -0.74468 0.689C5.1285 21.1393 5 24.2232 5 28.2936c0 3.7526 0.10922 6.2981 0.21471 7.881 0.0183 0.2746 0.22502 0.5185 0.59068 0.5363 0.49171 0.0239 1.06342 0.0496 1.71384 0.0759 1.05608 -1.9559 3.12447 -3.2848 5.50327 -3.2848 2.4782 0 4.6196 1.4424 5.6303 3.5334 0.5002 0.0037 1.0124 0.0066 1.5363 0.0085 0.0359 0.0002 0.0716 0.0012 0.107 0.0032l7.522 0.0007h0.0002c0.2314 0 0.4609 -0.0002 0.6884 -0.0007l0.004 0 0.8308 0c1.0085 -2.0974 3.1532 -3.5451 5.636 -3.5451 2.3826 0 4.4537 1.3331 5.5083 3.2941ZM34.898 20.0403c-0.4063 -0.051 -1.1374 -0.1241 -1.8858 -0.1039 -1.0214 0.0276 -1.7581 0.8441 -1.8249 1.8076 -0.1066 1.5384 -0.0233 3.4602 0.0533 4.6811 0.0593 0.9454 0.705 1.8183 1.7218 1.967 1.4862 0.2173 3.3531 0.1932 4.569 0.1435 1.0035 -0.041 1.8826 -0.7328 2.0897 -1.7447 0.0461 -0.225 0.088 -0.4601 0.116 -0.6822 0.0514 -0.4079 -0.0481 -0.7967 -0.225 -1.1257 -0.26 -0.4833 -0.7521 -1.3443 -1.4008 -2.2299 -0.6438 -0.8787 -1.4671 -1.8168 -2.3974 -2.4213 -0.2539 -0.165 -0.5357 -0.2563 -0.8159 -0.2915Zm-26.17046 0.3028c-1.10457 0 -2 0.8954 -2 2s0.89543 2 2 2h7.63636c1.1046 0 2 -0.8954 2 -2s-0.8954 -2 -2 -2H8.72754Zm-2 7.7266c0 -1.1046 0.89543 -2 2 -2h7.63636c1.1046 0 2 0.8954 2 2 0 1.1045 -0.8954 2 -2 2H8.72754c-1.10457 0 -2 -0.8955 -2 -2Z" clip-rule="evenodd" stroke-width="1"></path>
  </g>
</svg>