<svg xmlns="http://www.w3.org/2000/svg" fill="none" viewBox="0 0 48 48" id="Graphic-Template-Website-Ui--Streamline-Plump">
  <desc>
    Graphic Template Website Ui Streamline Icon: https://streamlinehq.com
  </desc>
  <g id="graphic-template-website-ui">
    <path id="Rectangle 1099" fill="#fddc5c" d="M37.4949 3.01726c2.4793 0.22329 4.3382 2.16598 4.5164 4.65785 0.2353 3.29009 0.4895 8.62569 0.4895 16.32429 0 7.6986 -0.2542 13.0342 -0.4895 16.3243 -0.1782 2.4919 -2.0371 4.4346 -4.5164 4.6578 -2.8615 0.2578 -7.2848 0.5173 -13.4947 0.5173 -6.21 0 -10.6333 -0.2595 -13.4948 -0.5173 -2.47934 -0.2233 -4.33822 -2.1659 -4.51643 -4.6578 -0.23529 -3.2901 -0.48946 -8.6257 -0.48946 -16.3243 0 -7.6986 0.25417 -13.0342 0.48946 -16.32429 0.17821 -2.49187 2.03709 -4.43456 4.51643 -4.65785C13.3669 2.75953 17.7902 2.5 24.0002 2.5c6.2099 0 10.6332 0.25954 13.4947 0.51726Z" stroke-width="1"></path>
    <path id="Union" fill="#0c098c" fill-rule="evenodd" d="M7.5054 26c0.03923 6.5852 0.26759 11.2322 0.47848 14.181 0.1103 1.5423 1.22655 2.6758 2.70092 2.8086 1.1112 0.1001 2.4695 0.201 4.0889 0.2863 1.1619 -1.2536 2.6073 -2.7613 4.4014 -4.5619 3.7107 -3.7242 6.1754 -5.9535 7.7349 -7.2658 1.9127 -1.6095 4.6093 -1.916 6.8033 -0.3968 1.4844 1.0279 3.6206 2.7133 6.5192 5.4605 0.1299 -2.7175 0.2367 -6.1991 0.2624 -10.5119H7.5054Zm2.8206 20.9735c1.3575 0.1223 3.0506 0.2442 5.1017 0.3397 0.0299 0.0028 0.06 0.0048 0.0902 0.0062 2.3505 0.1081 5.167 0.1814 8.4825 0.1814 6.2656 0 10.7489 -0.2618 13.6742 -0.5253 3.1603 -0.2846 5.6094 -2.5815 6.2094 -5.596 0.0041 -0.0206 0.0078 -0.0412 0.0113 -0.0619 0.053 -0.2782 0.0903 -0.5623 0.1109 -0.8512 0.239 -3.3411 0.4946 -8.7243 0.4946 -16.4664v-0.0006c0 -7.7424 -0.2556 -13.1258 -0.4946 -16.46696 -0.2461 -3.44144 -2.8476 -6.19331 -6.3319 -6.50712C34.749 0.761853 30.2657 0.5 24.0002 0.5c-6.2656 0 -10.7489 0.261852 -13.6742 0.52532 -3.4843 0.31381 -6.08581 3.06568 -6.33193 6.50712 -0.23895 3.34116 -0.49456 8.72456 -0.49456 16.46696s0.25561 13.1258 0.49456 16.467c0.24612 3.4414 2.84763 6.1933 6.33193 6.5071Zm0.963 -29.327c0 -1.1046 0.8954 -2 2 -2h21.4218c1.1046 0 2 0.8954 2 2s-0.8954 2 -2 2H13.289c-1.1046 0 -2 -0.8954 -2 -2Zm2 -9.81642c-1.1046 0 -2 0.89543 -2 2 0 1.10452 0.8954 2.00002 2 2.00002h11.6846c1.1046 0 2 -0.8955 2 -2.00002 0 -1.10457 -0.8954 -2 -2 -2H13.289ZM11.3156 32.795c0 -2.168 1.7522 -3.9317 3.9212 -3.9317 2.169 0 3.9211 1.7637 3.9211 3.9317s-1.7521 3.9318 -3.9211 3.9318 -3.9212 -1.7638 -3.9212 -3.9318Z" clip-rule="evenodd" stroke-width="1"></path>
  </g>
</svg>