<svg xmlns="http://www.w3.org/2000/svg" fill="none" viewBox="0 0 48 48" id="Hierarchy-15--Streamline-Plump">
  <desc>
    Hierarchy 15 Streamline Icon: https://streamlinehq.com
  </desc>
  <g id="hierarchy-15--node-organization-links-structure-link-nodes-network-hierarchy">
    <path id="Vector" fill="#ff7972" d="M34.8218 43.205c0.0629 1.123 0.7938 1.9897 1.9104 2.1248 0.7819 0.0945 1.8801 0.1702 3.3928 0.1702 1.5127 0 2.6109 -0.0757 3.3928 -0.1703 1.1166 -0.135 1.8475 -1.0017 1.9104 -2.1247 0.0406 -0.7258 0.0718 -1.7245 0.0718 -3.08 0 -1.3555 -0.0312 -2.3542 -0.0718 -3.08 -0.0629 -1.123 -0.7938 -1.9897 -1.9104 -2.1247 -0.7819 -0.0946 -1.8801 -0.1703 -3.3928 -0.1703 -1.5127 0 -2.6109 0.0757 -3.3928 0.1703 -1.1166 0.135 -1.8475 1.0017 -1.9104 2.1247 -0.0406 0.7258 -0.0718 1.7245 -0.0718 3.08 0 1.3555 0.0312 2.3542 0.0718 3.08Z" stroke-width="1"></path>
    <path id="Vector_2" fill="#ff7972" d="M34.8124 26.9037c0.0627 1.2357 0.8651 2.1854 2.0949 2.3213 0.7682 0.0849 1.8147 0.15 3.2177 0.15 1.403 0 2.4495 -0.0651 3.2177 -0.15 1.2298 -0.1359 2.0322 -1.0856 2.0949 -2.3213 0.0359 -0.7087 0.0624 -1.6547 0.0624 -2.9037s-0.0265 -2.195 -0.0624 -2.9037c-0.0627 -1.2357 -0.8651 -2.1854 -2.0949 -2.3213 -0.7682 -0.0849 -1.8147 -0.15 -3.2177 -0.15 -1.403 0 -2.4495 0.0651 -3.2177 0.15 -1.2298 0.1359 -2.0322 1.0856 -2.0949 2.3213 -0.0359 0.7087 -0.0624 1.6547 -0.0624 2.9037s0.0265 2.195 0.0624 2.9037Z" stroke-width="1"></path>
    <path id="Vector_3" fill="#ff7972" d="M34.8218 10.955c0.0629 1.123 0.7938 1.9897 1.9104 2.1247 0.7819 0.0946 1.8801 0.1703 3.3928 0.1703 1.5127 0 2.6109 -0.0757 3.3928 -0.1703 1.1166 -0.135 1.8475 -1.0017 1.9104 -2.1247 0.0406 -0.7258 0.0718 -1.7245 0.0718 -3.08 0 -1.3555 -0.0312 -2.3542 -0.0718 -3.07999 -0.0629 -1.12301 -0.7938 -1.98969 -1.9104 -2.12476C42.7359 2.57568 41.6377 2.5 40.125 2.5c-1.5127 0 -2.6109 0.07568 -3.3928 0.17025 -1.1166 0.13507 -1.8475 1.00175 -1.9104 2.12476 -0.0406 0.72579 -0.0718 1.72449 -0.0718 3.07999s0.0312 2.3542 0.0718 3.08Z" stroke-width="1"></path>
    <path id="Union" fill="#0c098c" fill-rule="evenodd" d="M40.125 0.5c-1.5777 0 -2.7575 0.078839 -3.6329 0.184725 -2.1801 0.263696 -3.556 2.013245 -3.6671 3.998525 -0.0251 0.44691 -0.0463 0.98373 -0.0597 1.62646l-1.4027 0.35066c-2.6305 0.65764 -4.4759 3.02117 -4.4759 5.73263V22h-2.8546c-0.0258 -1.8432 -0.086 -3.2428 -0.156 -4.2952 -0.1681 -2.5277 -1.891 -4.6919 -4.5931 -5.0753 -1.5524 -0.2203 -3.8038 -0.4029 -7.0103 -0.4029 -3.20648 0 -5.45786 0.1826 -7.01026 0.4029 -2.70212 0.3834 -4.424945 2.5476 -4.593116 5.0753C0.575919 19.1087 0.5 21.1307 0.5 23.9993c0 2.8686 0.07592 4.8905 0.169325 6.2945 0.168172 2.5277 1.890995 4.6918 4.593115 5.0753 1.5524 0.2203 3.80378 0.4029 7.01026 0.4029 3.2065 0 5.4579 -0.1826 7.0103 -0.4029 2.7021 -0.3835 4.425 -2.5476 4.5931 -5.0753 0.07 -1.0521 0.1302 -2.4513 0.156 -4.2938h2.8546v9.607c0 2.7115 1.8454 5.075 4.4759 5.7326l1.4027 0.3507c0.0134 0.6427 0.0346 1.1795 0.0597 1.6265 0.1111 1.9852 1.487 3.7348 3.6671 3.9985 0.8754 0.1059 2.0552 0.1847 3.6329 0.1847 1.5777 0 2.7575 -0.0788 3.6329 -0.1847 2.1801 -0.2637 3.556 -2.0133 3.6671 -3.9985 0.0431 -0.7699 0.075 -1.8066 0.075 -3.1918 0 -1.3852 -0.0319 -2.4219 -0.075 -3.1918 -0.1111 -1.9852 -1.487 -3.7348 -3.6671 -3.9985 -0.8754 -0.1059 -2.0552 -0.1847 -3.6329 -0.1847 -1.5777 0 -2.7575 0.0788 -3.6329 0.1847 -2.1801 0.2637 -3.556 2.0133 -3.6671 3.9986 -0.011 0.196 -0.0213 0.4093 -0.0304 0.6412l-0.4618 -0.1154c-0.8499 -0.2125 -1.4461 -0.9761 -1.4461 -1.8521V26h1.8893c0.0106 0.3743 0.0239 0.708 0.039 1.005 0.1068 2.1058 1.5625 3.9526 3.8726 4.2079 0.8529 0.0943 1.9739 0.1621 3.4374 0.1621 1.4635 0 2.5845 -0.0678 3.4374 -0.1621 2.3101 -0.2553 3.7658 -2.1021 3.8726 -4.2079 0.0379 -0.7482 0.065 -1.7285 0.065 -3.005s-0.0271 -2.2568 -0.065 -3.005c-0.1068 -2.1058 -1.5625 -3.9526 -3.8726 -4.2079 -0.8529 -0.0943 -1.9739 -0.1621 -3.4374 -0.1621 -1.4635 0 -2.5845 0.0678 -3.4374 0.1621 -2.3101 0.2553 -3.7658 2.1021 -3.8726 4.2079 -0.0151 0.297 -0.0284 0.6307 -0.039 1.005h-1.8893v-9.607c0 -0.876 0.5962 -1.6396 1.4461 -1.8521l0.4618 -0.1154c0.0091 0.2319 0.0194 0.4452 0.0304 0.6413 0.1111 1.9852 1.487 3.7348 3.6671 3.9985 0.8754 0.1059 2.0552 0.1847 3.6329 0.1847 1.5777 0 2.7575 -0.0788 3.6329 -0.1847 2.1801 -0.2637 3.556 -2.0133 3.6671 -3.9985 0.0431 -0.7699 0.075 -1.80657 0.075 -3.1918 0 -1.38523 -0.0319 -2.4219 -0.075 -3.19175 -0.1111 -1.98529 -1.487 -3.73483 -3.6671 -3.998526C42.8825 0.578839 41.7027 0.5 40.125 0.5Zm-3.1526 4.15578C37.6607 4.57253 38.6773 4.5 40.125 4.5s2.4643 0.07253 3.1526 0.15578c0.0496 0.006 0.0724 0.01695 0.0782 0.01997 0.006 0.00309 0.0091 0.00563 0.0131 0.01016 0.0051 0.0058 0.0536 0.06397 0.0624 0.22086 0.0382 0.68173 0.0687 1.64246 0.0687 2.96823 0 1.32577 -0.0305 2.2865 -0.0687 2.9682 -0.0088 0.1569 -0.0573 0.2151 -0.0624 0.2209 -0.004 0.0045 -0.0071 0.0071 -0.0131 0.0101 -0.0058 0.0031 -0.0286 0.014 -0.0782 0.02 -0.6883 0.0833 -1.7049 0.1558 -3.1526 0.1558s-2.4643 -0.0725 -3.1526 -0.1558c-0.0496 -0.006 -0.0724 -0.0169 -0.0782 -0.02 -0.006 -0.003 -0.0091 -0.0056 -0.0131 -0.0101 -0.0051 -0.0058 -0.0536 -0.064 -0.0624 -0.2209 -0.0382 -0.6817 -0.0687 -1.64243 -0.0687 -2.9682s0.0305 -2.2865 0.0687 -2.96823c0.0088 -0.15689 0.0573 -0.21506 0.0624 -0.22086 0.004 -0.00453 0.0071 -0.00707 0.0131 -0.01016 0.0058 -0.00302 0.0286 -0.01397 0.0782 -0.01997ZM40.125 36.75c-1.4477 0 -2.4643 0.0725 -3.1526 0.1558 -0.0496 0.006 -0.0724 0.0169 -0.0782 0.02 -0.006 0.003 -0.0091 0.0056 -0.0131 0.0101 -0.0051 0.0058 -0.0536 0.064 -0.0624 0.2209 -0.0382 0.6817 -0.0687 1.6424 -0.0687 2.9682 0 1.3258 0.0305 2.2865 0.0687 2.9682 0.0088 0.1569 0.0573 0.2151 0.0624 0.2209 0.0024 0.0027 0.0045 0.0047 0.0071 0.0065l0.0039 0.0025 0.0021 0.0011c0.0058 0.0031 0.0286 0.014 0.0782 0.02 0.6883 0.0833 1.7049 0.1558 3.1526 0.1558s2.4643 -0.0725 3.1526 -0.1558c0.0496 -0.006 0.0724 -0.0169 0.0782 -0.02 0.0032 -0.0016 0.0056 -0.0031 0.0077 -0.0048 0.0019 -0.0015 0.0035 -0.0032 0.0054 -0.0053 0.0051 -0.0058 0.0536 -0.064 0.0624 -0.2209 0.0382 -0.6817 0.0687 -1.6424 0.0687 -2.9682 0 -1.3258 -0.0305 -2.2865 -0.0687 -2.9682 -0.0088 -0.1569 -0.0573 -0.2151 -0.0624 -0.2209 -0.0022 -0.0025 -0.0041 -0.0043 -0.0064 -0.006 -0.0019 -0.0015 -0.004 -0.0027 -0.0067 -0.0041 -0.0058 -0.0031 -0.0286 -0.014 -0.0782 -0.02 -0.6883 -0.0833 -1.7049 -0.1558 -3.1526 -0.1558Zm-2.998 -15.9871c0.6834 -0.0755 1.6555 -0.1379 2.998 -0.1379 1.3425 0 2.3146 0.0624 2.998 0.1379 0.076 0.0084 0.1214 0.0262 0.1461 0.0389 0.0249 0.0127 0.0442 0.0279 0.0616 0.0475 0.0317 0.0359 0.0987 0.1371 0.1094 0.3482 0.034 0.6694 0.0599 1.5811 0.0599 2.8025 0 1.2214 -0.0259 2.1331 -0.0599 2.8025 -0.0107 0.2111 -0.0777 0.3123 -0.1094 0.3482 -0.0174 0.0196 -0.0367 0.0348 -0.0615 0.0475 -0.0248 0.0127 -0.0702 0.0305 -0.1462 0.0389 -0.6834 0.0755 -1.6555 0.1379 -2.998 0.1379 -1.3425 0 -2.3146 -0.0624 -2.998 -0.1379 -0.076 -0.0084 -0.1214 -0.0262 -0.1461 -0.0389 -0.0249 -0.0127 -0.0442 -0.0279 -0.0616 -0.0475 -0.0317 -0.0359 -0.0987 -0.1371 -0.1094 -0.3482 -0.034 -0.6694 -0.0599 -1.5811 -0.0599 -2.8025 0 -1.2214 0.0259 -2.1331 0.0599 -2.8025 0.0107 -0.2111 0.0777 -0.3123 0.1094 -0.3482 0.0174 -0.0196 0.0367 -0.0348 0.0615 -0.0475 0.0248 -0.0127 0.0702 -0.0305 0.1462 -0.0389Z" clip-rule="evenodd" stroke-width="1"></path>
  </g>
</svg>