<svg xmlns="http://www.w3.org/2000/svg" fill="none" viewBox="0 0 48 48" id="Home-1--Streamline-Plump">
  <desc>
    Home 1 Streamline Icon: https://streamlinehq.com
  </desc>
  <g id="home-1--home-house-roof-shelter">
    <path id="Vector 1069" fill="#fddc5c" d="M26.8148 4.09722c7.2347 3.2162 12.7189 7.44058 15.5541 9.88198 1.4328 1.2339 2.2317 3.0097 2.3306 4.8996 0.1359 2.5953 0.3005 6.6564 0.3005 11.0979 0 3.4168 -0.0974 6.7164 -0.2042 9.3071 -0.1239 3.0057 -2.5102 5.3764 -5.5121 5.479 -3.4603 0.1183 -8.5948 0.2367 -15.2836 0.2367 -6.6889 0 -11.8234 -0.1184 -15.28377 -0.2367 -3.00187 -0.1026 -5.38809 -2.4732 -5.51204 -5.4789C3.09745 36.6932 3 33.3935 3 29.9767c0 -4.4416 0.16468 -8.5027 0.30058 -11.098 0.09897 -1.8899 0.89784 -3.6656 2.33063 -4.8994 2.83511 -2.4414 8.31939 -6.66585 15.55409 -9.88208 1.7913 -0.79629 3.8383 -0.79629 5.6295 0Z" stroke-width="1"></path>
    <path id="Union" fill="#0c098c" fill-rule="evenodd" d="M27.6273 2.26967c-2.3085 -1.02623 -4.946 -1.02623 -7.2544 0C12.9011 5.59128 7.25144 9.94474 4.32616 12.4638c-1.88447 1.6227 -2.89807 3.9277 -3.02284 6.3103C1.16627 21.3912 1 25.4892 1 29.9767c0 3.4524 0.09841 6.781 0.20599 9.3897 0.16699 4.0493 3.39305 7.2569 7.44202 7.3953 3.48229 0.119 8.63959 0.2378 15.35209 0.2378 6.7124 0 11.8696 -0.1188 15.3519 -0.2378 4.0491 -0.1384 7.2751 -3.3461 7.4421 -7.3955 0.1075 -2.6086 0.2059 -5.9371 0.2059 -9.3895 0 -4.4874 -0.1662 -8.5854 -0.3032 -11.2025 -0.1247 -2.3826 -1.1384 -4.6877 -3.0229 -6.3105 -2.9253 -2.51904 -8.5749 -6.87245 -16.0466 -10.19403Zm-5.6295 3.6551c1.274 -0.56636 2.7306 -0.56636 4.0046 0C33 9.03559 38.3189 13.131 41.0638 15.4948c0.9812 0.8448 1.5653 2.0914 1.6385 3.4885 0.1347 2.5736 0.2977 6.5978 0.2977 10.9934 0 3.3812 -0.0965 6.6519 -0.2025 9.2247 -0.0809 1.962 -1.6273 3.4958 -3.5821 3.5626 -3.4384 0.1175 -8.5501 0.2355 -15.2153 0.2355 -6.6654 0 -11.777 -0.118 -15.21545 -0.2355 -1.95478 -0.0668 -3.50115 -1.6005 -3.58205 -3.5625C5.09649 36.6286 5 33.3579 5 29.9767c0 -4.3957 0.16308 -8.4198 0.29785 -10.9934 0.07316 -1.3971 0.65731 -2.6436 1.63841 -3.4885C9.68119 13.1311 15 9.03562 21.9978 5.92477ZM16 34.4887c-1.3807 0 -2.5 1.1193 -2.5 2.5s1.1193 2.5 2.5 2.5h16c1.3807 0 2.5 -1.1193 2.5 -2.5s-1.1193 -2.5 -2.5 -2.5H16Z" clip-rule="evenodd" stroke-width="1"></path>
  </g>
</svg>