<svg xmlns="http://www.w3.org/2000/svg" fill="none" viewBox="0 0 48 48" id="Iris-Scan--Streamline-Plump">
  <desc>
    Iris Scan Streamline Icon: https://streamlinehq.com
  </desc>
  <g id="iris-scan--identification-retina-secure-security-iris-scan-eye-brackets">
    <path id="Vector" fill="#ff7972" d="M41.3561 3.19335 35 3H13l-6.35611 0.19335c-1.86751 0.11039 -3.33971 1.58235 -3.45026 3.44986L3 13v22l0.19363 6.3568c0.11056 1.8675 1.58275 3.3395 3.45026 3.4499L13 45h22l6.3561 -0.1933c1.8675 -0.1104 3.3397 -1.5824 3.4503 -3.4499L45 35V13l-0.1936 -6.35679c-0.1106 -1.86751 -1.5828 -3.33947 -3.4503 -3.44986Z" stroke-width="1"></path>
    <path id="Union" fill="#0c098c" fill-rule="evenodd" d="M13.0684 5.24898c1.2421 -0.03778 2.2184 -1.0753 2.1806 -2.31737 -0.0378 -1.24207 -1.0753 -2.218332 -2.3174 -2.180549L6.5755 0.944408c-0.02146 0.000653 -0.04292 0.001613 -0.06436 0.00288C3.50567 1.12495 1.12552 3.50463 0.947579 6.51026c-0.001271 0.02147 -0.002234 0.04296 -0.002889 0.06446L0.751064 12.9315c-0.037833 1.2421 0.938386 2.2796 2.180456 2.3175 1.24206 0.0378 2.27962 -0.9384 2.31746 -2.1805l0.19242 -6.31728c0.0538 -0.70896 0.60121 -1.25636 1.31035 -1.31009l6.31665 -0.19215Zm22 -4.497919c-1.242 -0.037783 -2.2796 0.938479 -2.3173 2.180549 -0.0378 1.24207 0.9384 2.27959 2.1805 2.31737l6.3167 0.19215c0.7091 0.05372 1.2565 0.6011 1.3103 1.31005l0.1925 6.31732c0.0378 1.2421 1.0754 2.2183 2.3174 2.1805 1.2421 -0.0379 2.2183 -1.0754 2.1805 -2.3175l-0.1936 -6.35678c-0.0007 -0.0215 -0.0017 -0.04299 -0.0029 -0.06446 -0.178 -3.00563 -2.5581 -5.38531 -5.5636 -5.562972 -0.0214 -0.001267 -0.0429 -0.002227 -0.0644 -0.00288L35.0684 0.751061ZM5.24898 34.9315c-0.03784 -1.242 -1.0754 -2.2183 -2.31746 -2.1804 -1.24207 0.0378 -2.21829 1.0754 -2.180456 2.3174l0.193626 6.3568c0.000655 0.0215 0.001619 0.043 0.00289 0.0645 0.17794 3.0056 2.55809 5.3853 5.56356 5.5629 0.02144 0.0013 0.0429 0.0023 0.06436 0.0029l6.3561 0.1934c1.2421 0.0378 2.2796 -0.9385 2.3174 -2.1806 0.0378 -1.242 -0.9385 -2.2796 -2.1806 -2.3173l-6.31663 -0.1922c-0.70915 -0.0537 -1.25657 -0.6011 -1.31037 -1.3101l-0.19242 -6.3173Zm42.00002 0.137c0.0378 -1.242 -0.9384 -2.2796 -2.1805 -2.3174 -1.242 -0.0379 -2.2796 0.9384 -2.3174 2.1804l-0.1925 6.3174c-0.0538 0.7089 -0.6012 1.2563 -1.3103 1.31l-6.3167 0.1922c-1.2421 0.0377 -2.2183 1.0753 -2.1805 2.3173 0.0377 1.2421 1.0753 2.2184 2.3173 2.1806l6.3561 -0.1934c0.007 -0.0002 0.0139 -0.0004 0.0208 -0.0007 0.0057 -0.0002 0.0114 -0.0005 0.0171 -0.0007l0.0265 -0.0015c3.0055 -0.1776 5.3856 -2.5573 5.5636 -5.5629 0.0012 -0.0215 0.0022 -0.043 0.0029 -0.0645l0.1936 -6.3568ZM5.73087 22.0847C8.5612 14.9819 15.703 10 24.0007 10c8.2972 0 15.4386 4.9812 18.2693 12.0834 0.4902 1.23 0.4903 2.6019 0.0001 3.832 -2.8303 7.1028 -9.9721 12.0847 -18.2698 12.0847 -8.2972 0 -15.43857 -4.9812 -18.26927 -12.0833 -0.49025 -1.2301 -0.49031 -2.602 -0.00016 -3.8321ZM17.5 24c0 -3.5899 2.9101 -6.5 6.5 -6.5s6.5 2.9101 6.5 6.5 -2.9101 6.5 -6.5 6.5 -6.5 -2.9101 -6.5 -6.5Z" clip-rule="evenodd" stroke-width="1"></path>
  </g>
</svg>