<svg xmlns="http://www.w3.org/2000/svg" fill="none" viewBox="0 0 48 48" id="Keyhole-Lock-Circle--Streamline-Plump">
  <desc>
    Keyhole Lock Circle Streamline Icon: https://streamlinehq.com
  </desc>
  <g id="keyhole-lock-circle--circle-frame-key-keyhole-lock-locked-secure-security">
    <path id="Ellipse 19" fill="#7af1ff" d="M24 2.5c11.8741 0 21.5 9.6259 21.5 21.5S35.8741 45.5 24 45.5 2.5 35.8741 2.5 24 12.1259 2.5 24 2.5Z" stroke-width="1"></path>
    <path id="Union" fill="#0c098c" fill-rule="evenodd" d="M24 4.5C13.2304 4.5 4.5 13.2304 4.5 24S13.2304 43.5 24 43.5 43.5 34.7696 43.5 24 34.7696 4.5 24 4.5ZM0.5 24C0.5 11.0213 11.0213 0.5 24 0.5S47.5 11.0213 47.5 24 36.9787 47.5 24 47.5 0.5 36.9787 0.5 24ZM24 11.7734c-4.0543 0 -7.3409 3.2867 -7.3409 7.3409 0 2.5796 1.3306 4.8477 3.3409 6.1564l-1.9451 7.9021c-0.2891 1.1745 0.3407 2.4367 1.6198 2.6821 2.8114 0.5395 5.8392 0.5395 8.6505 0 1.2791 -0.2454 1.9089 -1.5076 1.6198 -2.6821l-1.9451 -7.9021c2.0103 -1.3087 3.341 -3.5768 3.341 -6.1564 0 -4.0542 -3.2867 -7.3409 -7.3409 -7.3409Z" clip-rule="evenodd" stroke-width="1"></path>
  </g>
</svg>