<svg xmlns="http://www.w3.org/2000/svg" fill="none" viewBox="0 0 48 48" id="Layers-1--Streamline-Plump">
  <desc>
    Layers 1 Streamline Icon: https://streamlinehq.com
  </desc>
  <g id="layers-1--design-layer-layers-pile-stack-align">
    <path id="Rectangle 300" fill="#fddc5c" d="M22.6882 4.15493c0.8655 -0.20657 1.758 -0.20657 2.6235 0 1.938 0.46259 5.8728 1.57837 10.7843 3.91293 3.8507 1.83032 6.5005 3.41094 8.1134 4.46924 1.052 0.6903 1.052 2.1098 0 2.8001 -1.6129 1.0583 -4.2627 2.6389 -8.1134 4.4693 -4.9115 2.3345 -8.8463 3.4503 -10.7843 3.9129 -0.8655 0.2066 -1.758 0.2066 -2.6235 0 -1.9381 -0.4626 -5.8728 -1.5784 -10.7843 -3.9129 -3.85067 -1.8304 -6.50054 -3.411 -8.11341 -4.4693 -1.05203 -0.6903 -1.05203 -2.1098 0 -2.8001 1.61287 -1.0583 4.26274 -2.63892 8.11341 -4.46924 4.9115 -2.33456 8.8463 -3.45034 10.7843 -3.91293Z" stroke-width="1"></path>
    <path id="Union" fill="#0c098c" fill-rule="evenodd" d="M25.776 2.20958c-1.1707 -0.27944 -2.3814 -0.27944 -3.5521 0 -2.0473 0.48865 -6.1182 1.64666 -11.1786 4.05195C7.11245 8.13092 4.38283 9.75631 2.69326 10.865c-2.255727 1.4801 -2.255728 4.6642 0 6.1443 1.68957 1.1087 4.41919 2.7341 8.35204 4.6035 5.0604 2.4053 9.1313 3.5633 11.1786 4.0519 1.1707 0.2795 2.3814 0.2795 3.5521 0 2.0472 -0.4886 6.1182 -1.6466 11.1786 -4.0519 3.9328 -1.8694 6.6625 -3.4948 8.352 -4.6035 2.2558 -1.4801 2.2558 -4.6642 0 -6.1443 -1.6895 -1.10869 -4.4192 -2.73408 -8.352 -4.60347 -5.0604 -2.40529 -9.1314 -3.5633 -11.1786 -4.05195Zm-2.6235 3.8907c0.5602 -0.13371 1.1347 -0.13371 1.6949 0 1.8288 0.43653 5.6273 1.51009 10.39 3.77391 3.4438 1.63691 5.8868 3.06051 7.4546 4.06301 -1.5678 1.0024 -4.0108 2.426 -7.4546 4.0629 -4.7627 2.2638 -8.5612 3.3374 -10.39 3.7739 -0.5602 0.1337 -1.1347 0.1337 -1.6949 0 -1.8288 -0.4365 -5.6273 -1.5101 -10.39 -3.7739 -3.44382 -1.6369 -5.88685 -3.0605 -7.4546 -4.0629 1.56775 -1.0025 4.01078 -2.4261 7.4546 -4.06301 4.7627 -2.26382 8.5612 -3.33738 10.39 -3.77391ZM2.98234 20.7285c1.70915 1.0224 3.94923 2.2513 6.77511 3.5945 5.28355 2.5114 9.55895 3.7328 11.76995 4.2605 1.6286 0.3887 3.3165 0.3887 4.9451 0 2.211 -0.5277 6.4864 -1.7491 11.7699 -4.2605 2.8258 -1.3431 5.0658 -2.572 6.7749 -3.5944l0.1301 0.0852c2.2455 1.4762 2.2455 4.6492 0 6.1254 -1.6768 1.1023 -4.3854 2.7181 -8.2878 4.5763 -5.0214 2.3912 -9.0614 3.5425 -11.0934 4.0284 -1.1643 0.2785 -2.3685 0.2785 -3.5329 0 -2.032 -0.4859 -6.0719 -1.6372 -11.0934 -4.0284 -3.90239 -1.8582 -6.61102 -3.474 -8.2878 -4.5763 -2.24551 -1.4762 -2.245509 -4.6493 0 -6.1254l0.13024 -0.0853Zm0.23089 9.9725c1.68536 1.0062 3.88042 2.2092 6.63686 3.5217 5.24491 2.4976 9.48941 3.7125 11.68551 4.2376 1.623 0.3881 3.3053 0.3881 4.9283 0 2.1961 -0.5251 6.4406 -1.74 11.6855 -4.2376 2.7565 -1.3125 4.9515 -2.5155 6.6369 -3.5217 0.1253 0.0807 0.2456 0.159 0.3611 0.235 2.2455 1.4761 2.2455 4.6492 0 6.1253 -1.6768 1.1023 -4.3854 2.7181 -8.2878 4.5764 -5.0214 2.3912 -9.0614 3.5425 -11.0934 4.0284 -1.1643 0.2784 -2.3685 0.2784 -3.5329 0 -2.032 -0.4859 -6.0719 -1.6372 -11.0934 -4.0284 -3.90239 -1.8583 -6.61102 -3.4741 -8.2878 -4.5764 -2.24551 -1.4761 -2.245509 -4.6492 0 -6.1253 0.11547 -0.076 0.23583 -0.1543 0.36113 -0.235Z" clip-rule="evenodd" stroke-width="1"></path>
  </g>
</svg>