<svg xmlns="http://www.w3.org/2000/svg" fill="none" viewBox="0 0 48 48" id="Lightbulb--Streamline-Plump">
  <desc>
    Lightbulb Streamline Icon: https://streamlinehq.com
  </desc>
  <g id="lightbulb--lighting-light-incandescent-bulb-lights">
    <path id="Union" fill="#79ee8d" d="M13.3795 31.9614C9.63726 28.9145 7.25 24.2906 7.25 19.1137 7.25 9.93822 14.7492 2.5 24 2.5s16.75 7.43822 16.75 16.6137c0 5.1769 -2.3873 9.8008 -6.1295 12.8477 -0.3848 1.8658 -0.9205 3.9995 -1.2981 5.4466 -0.2739 1.0498 -1.1258 1.8337 -2.2136 1.9426 -1.3865 0.1387 -3.6686 0.2859 -7.1088 0.2859 -3.4402 0 -5.7223 -0.1472 -7.1088 -0.2859 -1.0878 -0.1089 -1.9397 -0.8928 -2.2136 -1.9426 -0.3776 -1.4471 -0.9133 -3.5808 -1.2981 -5.4466Z" stroke-width="1"></path>
    <path id="Union_2" fill="#0c098c" fill-rule="evenodd" d="M24 4.5c-8.1616 0 -14.75 6.5582 -14.75 14.6137 0 4.5467 2.0938 8.6112 5.3922 11.2968 0.3572 0.2908 0.603 0.6959 0.696 1.1469 0.3742 1.8142 0.8994 3.908 1.2746 5.3456 0.0788 0.3019 0.2835 0.4381 0.4776 0.4575 1.3107 0.1311 3.5255 0.276 6.9096 0.276s5.5989 -0.1449 6.9096 -0.276c0.1941 -0.0194 0.3988 -0.1555 0.4776 -0.4575 0.3752 -1.4376 0.9004 -3.5314 1.2746 -5.3456 0.093 -0.451 0.3388 -0.8561 0.696 -1.1469 3.2984 -2.6856 5.3922 -6.7501 5.3922 -11.2968C38.75 11.0582 32.1616 4.5 24 4.5ZM5.25 19.1137C5.25 8.81827 13.6601 0.5 24 0.5s18.75 8.31827 18.75 18.6137c0 5.5477 -2.4465 10.526 -6.3147 13.9313 -0.3765 1.7348 -0.8419 3.5811 -1.1777 4.8679 -0.3457 1.3248 -1.2506 2.4508 -2.4959 3.0309l-0.1525 1.4083c-0.2307 2.1291 -1.7577 4.062 -4.0972 4.3691 -1.1648 0.1529 -2.6795 0.2786 -4.5121 0.2786 -1.9272 0 -3.4225 -0.139 -4.5218 -0.3053 -2.0371 -0.3082 -3.3761 -1.9262 -3.7163 -3.7381 -0.1057 -0.5634 -0.224 -1.2178 -0.3455 -1.9343 -1.3368 -0.5528 -2.312 -1.722 -2.6739 -3.1092 -0.3358 -1.2868 -0.8012 -3.1331 -1.1777 -4.8679C7.69654 29.6397 5.25 24.6614 5.25 19.1137Zm27.5 -0.0004c0 -4.8325 -3.9175 -8.75 -8.7501 -8.75 -1.1045 0 -2 -0.89545 -2 -2.00002 0 -1.10457 0.8955 -2 2 -2 7.0417 0 12.7501 5.70842 12.7501 12.75002 0 1.1046 -0.8954 2 -2 2s-2 -0.8954 -2 -2Z" clip-rule="evenodd" stroke-width="1"></path>
  </g>
</svg>