<svg xmlns="http://www.w3.org/2000/svg" fill="none" viewBox="0 0 48 48" id="Magnet--Streamline-Plump">
  <desc>
    Magnet Streamline Icon: https://streamlinehq.com
  </desc>
  <g id="magnet--design-magnet-snap-supplies-to-tool">
    <path id="Rectangle 650 (Stroke)" fill="#7af1ff" fill-rule="evenodd" d="M26.2841 3.22855c-0.7282 -0.73975 -1.8232 -0.91789 -2.7814 -0.51953 -3.2581 1.35437 -6.3642 3.08148 -9.2775 5.05903C2.54143 15.699 -2.32 28.5931 8.62992 39.6499c10.59458 10.698 24.10728 5.4768 31.58598 -5.5977 1.9834 -2.937 3.7415 -6.1271 5.0895 -9.4464 0.3765 -0.9272 0.2145 -1.9813 -0.4983 -2.6834 -1.3975 -1.3765 -4.1191 -3.558 -7.9367 -4.3454 -1.0944 -0.2257 -2.1667 0.3484 -2.7492 1.3025 -1.148 1.8806 -3.0872 5.0241 -4.3481 6.8913 -3.6535 5.4101 -8.6897 7.7133 -11.8633 4.5087 -3.1737 -3.2046 -1.1582 -8.2996 4.3836 -12.0614 1.922 -1.3046 5.2281 -3.2824 7.0935 -4.3833 0.863 -0.5094 1.448 -1.4225 1.3254 -2.4175 -0.4481 -3.63684 -2.9043 -6.6405 -4.4282 -8.18875Z" clip-rule="evenodd" stroke-width="1"></path>
    <path id="Union" fill="#0c098c" fill-rule="evenodd" d="M16.7569 8.49614c-0.4741 0.3014 -0.9438 0.61016 -1.4088 0.92579C9.78116 13.2008 6.0464 18.0268 4.88716 22.9907c-1.13235 4.8488 0.1132 10.1514 5.16344 15.251 4.8218 4.8688 10.1389 6.0122 15.0738 4.8283 5.0416 -1.2094 9.9039 -4.9111 13.4337 -10.138 0.2584 -0.3826 0.5126 -0.7694 0.7623 -1.1601 -2.3005 -1.1482 -5.1683 -2.7811 -7.8845 -4.8911l-0.0057 0.0084c-1.9656 2.9106 -4.4205 5.1722 -7.0214 6.2205 -2.703 1.0896 -5.6568 0.862 -7.9205 -1.4238 -2.2226 -2.2442 -2.5554 -5.1769 -1.5293 -7.928 0.9899 -2.6539 3.2211 -5.1661 6.2108 -7.1955 0.0598 -0.0405 0.1208 -0.0817 0.183 -0.1234 -1.9908 -2.7695 -3.5252 -5.6558 -4.5959 -7.94286Zm8.5314 10.16076c-0.6945 0.4371 -1.34 0.854 -1.872 1.2151 -2.5522 1.7324 -4.0996 3.6486 -4.7095 5.2838 -0.5736 1.538 -0.3274 2.7552 0.6237 3.7155 0.9099 0.9188 2.061 1.1419 3.5829 0.5285 1.624 -0.6546 3.5139 -2.2497 5.2019 -4.7492 1.2311 -1.823 3.1468 -4.9275 4.2985 -6.8141 0.8015 -1.3129 2.2678 -2.3098 3.9627 -2.3112 0.2933 -0.0003 0.5934 0.0292 0.898 0.0921 4.3396 0.895 7.3922 3.3584 8.9362 4.8793 1.3537 1.3333 1.5935 3.2708 0.9479 4.8607 -0.9205 2.2666 -2.0206 4.4671 -3.2444 6.5666 -0.0074 0.0127 -0.015 0.0254 -0.0226 0.0379 -0.6415 1.0985 -1.317 2.1697 -2.0186 3.2087 -3.949 5.8476 -9.5823 10.2938 -15.8155 11.7891 -6.3396 1.5208 -13.0762 -0.0742 -18.84901 -5.9033C1.30883 35.0991 -0.489869 28.4263 0.991965 22.0811 2.4469 15.851 6.98474 10.2645 13.1016 6.11238c3.011 -2.04387 6.2355 -3.83871 9.633 -5.251044 0.5647 -0.234771 1.1688 -0.356288 1.7732 -0.359322 0.0151 -0.000078 0.0302 -0.000081 0.0454 -0.00001 1.1422 0.00536 2.2821 0.434473 3.1564 1.322676 1.6031 1.62868 4.4562 5.03239 4.9879 9.34712 0.2434 1.9754 -0.9275 3.578 -2.2939 4.3845 -1.3175 0.7776 -3.3441 1.987 -5.0836 3.0811 -0.0105 0.0066 -0.0211 0.0131 -0.0317 0.0195Z" clip-rule="evenodd" stroke-width="1"></path>
  </g>
</svg>