<svg xmlns="http://www.w3.org/2000/svg" fill="none" viewBox="0 0 48 48" id="Padlock-Key--Streamline-Plump">
  <desc>
    Padlock Key Streamline Icon: https://streamlinehq.com
  </desc>
  <g id="padlock-key--combination-combo-key-keyhole-lock-secure-security-square-unlock-unlocked">
    <path id="Subtract" fill="#ff7972" d="M8.2605 28.0314c0.27638 -0.0208 0.55561 -0.0314 0.83731 -0.0314 3.42019 0 6.47149 1.5622 8.48509 4l11.5149 0c3.866 0 7 3.134 7 7v3c0 1.0225 -0.2192 1.9939 -0.6133 2.8696 1.8064 -0.0546 4.3131 -0.1204 5.5372 -0.1858 2.5113 -0.1342 4.5181 -1.9411 4.7454 -4.4456 0.1791 -1.9729 0.3307 -4.6907 0.3307 -8.2382 0 -3.5475 -0.1516 -6.2653 -0.3307 -8.2382 -0.2273 -2.5045 -2.2341 -4.3113 -4.7454 -4.4456C38.0851 19.1593 33.5225 19 27.0978 19s-10.9873 0.1593 -13.9239 0.3162c-2.5113 0.1342 -4.51806 1.9411 -4.74541 4.4457 -0.06078 0.6696 -0.1184 3.425 -0.16799 4.2695Z" stroke-width="1"></path>
    <path id="Union" fill="#0c098c" fill-rule="evenodd" d="M14.0036 12.2119C14.5317 5.87455 19.8293 1 26.1886 1h1.8732c6.3593 0 11.657 4.87455 12.1851 11.2119l0.4328 5.1935c3.3619 0.1941 6.1738 2.6639 6.4911 6.1592 0.1808 1.9915 0.3314 4.7079 0.3314 8.2317 0 3.5239 -0.1506 6.2403 -0.3314 8.2318 -0.3183 3.5071 -3.1494 5.9807 -6.5244 6.161 -0.3054 0.0163 -0.7081 0.05 -1.1855 0.0898l-0.3233 0.0269c-0.5933 0.0491 -1.2625 0.1015 -1.8556 0.1236 -1.1038 0.0412 -2.032 -0.8202 -2.0732 -1.924 -0.0412 -1.1038 0.8202 -2.032 1.924 -2.0732 0.4922 -0.0184 1.079 -0.0635 1.6754 -0.1128l0.295 -0.0246c0.4779 -0.04 0.9583 -0.0801 1.3298 -0.1 1.5334 -0.0819 2.6282 -1.1401 2.7542 -2.5283 0.1693 -1.8646 0.315 -4.4602 0.315 -7.8702 0 -3.4099 -0.1457 -6.0055 -0.315 -7.8701 -0.1261 -1.389 -1.2199 -2.4463 -2.7525 -2.5282 -2.8317 -0.1514 -7.2549 -0.3062 -13.5007 -0.3062s-10.669 0.1548 -13.5007 0.3062c-1.5325 0.0819 -2.6264 1.1393 -2.7525 2.5284 -0.033 0.3631 -0.0651 0.7539 -0.0953 1.1731 0.0008 -0.0118 0.0007 -0.0079 0 0.0186 -0.0008 0.0267 -0.0022 0.0764 -0.0039 0.1559 -0.0027 0.1289 -0.0054 0.2899 -0.0083 0.4567l-0.0003 0.0221c-0.0027 0.1573 -0.0054 0.3186 -0.0081 0.4517 -0.0024 0.1143 -0.0058 0.2727 -0.0121 0.3703 -0.0722 1.1022 -1.02426 1.9372 -2.12647 1.865 -1.10221 -0.0722 -1.93721 -1.0242 -1.86502 -2.1264 -0.00039 0.0058 -0.00025 0.0009 0.00027 -0.0179 0.00073 -0.0268 0.00224 -0.0816 0.00412 -0.173 0.00258 -0.1257 0.00519 -0.2804 0.00791 -0.4409l0.00031 -0.0186c0.00279 -0.1646 0.00568 -0.3346 0.00863 -0.4737 0.00232 -0.1097 0.00585 -0.2746 0.01331 -0.3779 0.03202 -0.4434 0.06608 -0.8587 0.10128 -1.2466 0.31825 -3.5061 3.14667 -5.9807 6.52266 -6.1611 0.1151 -0.0062 0.2326 -0.0123 0.3526 -0.0185l0.4312 -5.1733Zm8.4475 1.0363 -0.228 3.8746c1.4414 -0.0196 3.0102 -0.031 4.7109 -0.031 1.8524 0 3.5484 0.0135 5.0936 0.0364l-0.2282 -3.88c-0.1456 -2.4749 -2.195 -4.40729 -4.6742 -4.40729 -2.4791 0 -4.5286 1.93239 -4.6741 4.40729ZM8.4978 46.5c-4.41828 0 -7.999997 -3.5817 -7.999997 -8s3.581717 -8 7.999997 -8c3.1645 0 5.8978 1.837 7.1955 4.5h13.8045c1.933 0 3.5 1.567 3.5 3.5v5c0 1.933 -1.567 3.5 -3.5 3.5s-3.5 -1.567 -3.5 -3.5V42h-1v1.5c0 1.933 -1.567 3.5 -3.5 3.5s-3.5 -1.567 -3.5 -3.5V42h-2.3045c-1.2977 2.663 -4.031 4.5 -7.1955 4.5ZM7.448 40.75c-1.10457 0 -2 -0.8954 -2 -2s0.89543 -2 2 -2h1.95454c1.10456 0 1.99996 0.8954 1.99996 2s-0.8954 2 -1.99996 2H7.448Z" clip-rule="evenodd" stroke-width="1"></path>
  </g>
</svg>