<svg xmlns="http://www.w3.org/2000/svg" fill="none" viewBox="0 0 48 48" id="Pathfinder-Square-Outline--Streamline-Plump">
  <desc>
    Pathfinder Square Outline Streamline Icon: https://streamlinehq.com
  </desc>
  <g id="pathfinder-square-outline">
    <path id="Rectangle 57" fill="#79ee8d" d="M3.30186 7.28398c0.15957 -2.20974 1.77201 -3.82229 3.98175 -3.98195C9.47665 3.14358 12.8772 3 18 3c5.1226 0 8.5231 0.14357 10.7162 0.30202 2.2098 0.15965 3.8224 1.77233 3.9819 3.9822C32.8565 9.47722 33 12.8776 33 18c0 5.1217 -0.1435 8.5221 -0.3018 10.7153 -0.1596 2.2105 -1.7728 3.8236 -3.9833 3.9831C26.5218 32.8566 23.1216 33 18 33c-5.1218 0 -8.52207 -0.1434 -10.71516 -0.3016 -2.21037 -0.1596 -3.82346 -1.7725 -3.98304 -3.9829C3.14346 26.5224 3 23.122 3 18c0 -5.1226 0.1435 -8.52307 0.30186 -10.71602Z" stroke-width="1"></path>
    <path id="Rectangle 58" fill="#79ee8d" d="M15.3019 19.284c0.1595 -2.2098 1.772 -3.8223 3.9817 -3.982C21.4767 15.1436 24.8772 15 30 15c5.1226 0 8.5231 0.1436 10.7162 0.302 2.2098 0.1597 3.8224 1.7723 3.9819 3.9822C44.8565 21.4772 45 24.8776 45 30c0 5.1217 -0.1435 8.5221 -0.3018 10.7153 -0.1596 2.2105 -1.7728 3.8236 -3.9833 3.9831C38.5218 44.8566 35.1216 45 30 45c-5.1218 0 -8.5221 -0.1434 -10.7152 -0.3016 -2.2103 -0.1596 -3.8234 -1.7725 -3.983 -3.9829C15.1435 38.5224 15 35.122 15 30c0 -5.1226 0.1435 -8.5231 0.3019 -10.716Z" stroke-width="1"></path>
    <path id="Union" fill="#0c098c" fill-rule="evenodd" d="M7.42773 5.29683C9.56157 5.14266 12.9125 5 18 5c5.0873 0 8.4382 0.14265 10.572 0.29682 1.2189 0.08805 2.0433 0.91249 2.1313 2.13145 0.0966 1.33724 0.1886 3.15243 0.2439 5.57343C30.6381 13.0006 30.3224 13 30 13c-5.1581 0 -8.6083 0.1445 -10.8605 0.3072 -3.2008 0.2313 -5.6013 2.6321 -5.8324 5.8327C13.1444 21.3921 13 24.8421 13 30c0 0.3224 0.0006 0.6381 0.0017 0.9472 -2.4206 -0.0552 -4.23567 -0.1472 -5.57291 -0.2437 -1.21938 -0.088 -2.04415 -0.9127 -2.13218 -2.132C5.14254 26.4375 5 23.0867 5 18c0 -5.0873 0.14258 -8.4382 0.29666 -10.57196 0.08802 -1.21882 0.91233 -2.04315 2.13107 -2.13121ZM13.0507 34.9493c-2.5464 -0.0561 -4.47209 -0.1524 -5.90981 -0.2561 -3.20136 -0.2311 -5.60276 -2.6322 -5.8339 -5.8336C1.14439 26.6073 1 23.1573 1 18c0 -5.1579 0.14442 -8.60794 0.30705 -10.86007 0.23113 -3.20067 2.6317 -5.60144 5.83243 -5.8327C9.39174 1.14451 12.8419 1 18 1c5.1579 0 8.608 0.1445 10.8603 0.30722 3.2009 0.23125 5.6015 2.63217 5.8326 5.83295 0.1039 1.43779 0.2003 3.36373 0.2564 5.91053 2.547 0.0562 4.4731 0.1526 5.911 0.2565 3.2009 0.2313 5.6015 2.6322 5.8326 5.833C46.8556 21.3924 47 24.8423 47 30c0 5.157 -0.1444 8.607 -0.307 10.8593 -0.2311 3.2016 -2.6326 5.6029 -5.8341 5.8339C38.6066 46.8557 35.1569 47 30 47c-5.1571 0 -8.6069 -0.1443 -10.8591 -0.3068 -3.2014 -0.2311 -5.6028 -2.6322 -5.8339 -5.8336 -0.1038 -1.4379 -0.2002 -3.3637 -0.2563 -5.9103Zm21.9476 -17.8965c2.4212 0.0553 4.2365 0.1474 5.5737 0.244 1.2189 0.0881 2.0433 0.9125 2.1313 2.1315C42.8574 21.5621 43 24.9129 43 30c0 5.0865 -0.1425 8.4373 -0.2966 10.5713 -0.0881 1.2194 -0.9129 2.0443 -2.1324 2.1323C38.437 42.8575 35.0863 43 30 43c-5.0865 0 -8.4373 -0.1425 -10.5712 -0.2965 -1.2194 -0.088 -2.0442 -0.9127 -2.1322 -2.132 -0.0965 -1.3373 -0.1886 -3.1524 -0.2438 -5.5732 0.3091 0.0011 0.6248 0.0017 0.9472 0.0017 5.1569 0 8.6066 -0.1443 10.8589 -0.3068 3.2015 -0.231 5.603 -2.6323 5.8341 -5.8339C34.8556 26.607 35 23.157 35 18c0 -0.3224 -0.0006 -0.638 -0.0017 -0.9472Zm-4.0002 -0.0509c0.0013 0.325 0.0019 0.6577 0.0019 0.9981 0 5.0865 -0.1425 8.4373 -0.2966 10.5713 -0.0881 1.2194 -0.9129 2.0443 -2.1324 2.1323C26.437 30.8575 23.0863 31 18 31c-0.3404 0 -0.6731 -0.0006 -0.9981 -0.0019C17.0006 30.6731 17 30.3404 17 30c0 -5.0873 0.1426 -8.4382 0.2967 -10.572 0.088 -1.2188 0.9123 -2.0431 2.131 -2.1312C21.5616 17.1427 24.9125 17 30 17c0.3404 0 0.6731 0.0006 0.9981 0.0019Z" clip-rule="evenodd" stroke-width="1"></path>
  </g>
</svg>