<svg xmlns="http://www.w3.org/2000/svg" fill="none" viewBox="0 0 48 48" id="Radioactive-1--Streamline-Plump">
  <desc>
    Radioactive 1 Streamline Icon: https://streamlinehq.com
  </desc>
  <g id="radioactive-1--danger-nuke-radiation-nuclear-warning-alert-radioactive-caution">
    <path id="Union" fill="#7af1ff" fill-rule="evenodd" d="M11.866 4.44446c1.2899 -0.89001 3.018 -0.36819 3.7825 0.99673 1.8133 3.23739 3.9761 7.26831 5.8762 11.27251 0.2343 0.4937 0.0035 1.0746 -0.4442 1.3896 -1.2487 0.8787 -2.0601 2.2961 -2.1925 3.8195 -0.0474 0.5456 -0.439 1.0364 -0.987 1.0798 -4.3969 0.3481 -8.94709 0.4816 -12.64079 0.5225 -1.56149 0.0173 -2.87096 -1.2055 -2.75279 -2.7565 0.49793 -6.5355 3.97773 -12.61143 9.35858 -16.32414Zm24.2679 0c-1.2899 -0.89001 -3.0179 -0.36819 -3.7825 0.99674 -1.8133 3.23738 -3.9761 7.2683 -5.8761 11.2725 -0.2343 0.4937 -0.0036 1.0746 0.4442 1.3896 1.2487 0.8787 2.0601 2.2961 2.1925 3.8195 0.0474 0.5456 0.4389 1.0364 0.987 1.0798 4.3969 0.3481 8.947 0.4816 12.6407 0.5225 1.5615 0.0173 2.871 -1.2055 2.7528 -2.7565 -0.4979 -6.5355 -3.9777 -12.61144 -9.3586 -16.32414ZM34.4146 38.0965c0.7846 1.3318 0.383 3.0585 -1.0092 3.7379 -2.8422 1.3869 -6.0333 2.1648 -9.4053 2.1648 -3.372 0 -6.5631 -0.7779 -9.4054 -2.1648 -1.3921 -0.6794 -1.7937 -2.4061 -1.0091 -3.7379 1.8849 -3.1996 4.2834 -7.1075 6.7913 -10.7733 0.3123 -0.4564 0.941 -0.5488 1.442 -0.3121 0.662 0.3127 1.4013 0.4875 2.1812 0.4875s1.5192 -0.1748 2.1812 -0.4875c0.5009 -0.2367 1.1297 -0.1443 1.4419 0.3121 2.508 3.6658 4.9065 7.5737 6.7914 10.7733Z" clip-rule="evenodd" stroke-width="1"></path>
    <path id="Union_2" fill="#0c098c" fill-rule="evenodd" d="M10.7301 2.80007c2.3902 -1.64913 5.4033 -0.58389 6.6633 1.66555 1.8254 3.25903 4.0117 7.33268 5.9381 11.39248 0.7557 1.5926 -0.072 3.1592 -1.1002 3.8827 -0.7628 0.5367 -1.2692 1.4173 -1.3509 2.357 -0.1104 1.2699 -1.0695 2.7616 -2.8216 2.9003 -4.4586 0.353 -9.05779 0.4874 -12.77646 0.5287 -2.56256 0.0284 -4.989056 -2.0225 -4.769186 -4.9084C1.05673 13.4838 4.84981 6.8574 10.7301 2.80007Zm2.6928 3.22707c-0.1597 -0.04401 -0.2968 -0.0205 -0.4211 0.06527C8.1204 9.4605 4.95387 14.986 4.5016 20.9223c-0.01108 0.1453 0.0354 0.2717 0.15186 0.3857 0.12666 0.1241 0.33217 0.2218 0.58453 0.219 3.45623 -0.0383 7.65121 -0.1581 11.75031 -0.4589 0.2999 -1.6187 1.1512 -3.1048 2.4024 -4.1793 -1.7925 -3.7224 -3.79 -7.43836 -5.4872 -10.46847 -0.1211 -0.21619 -0.3072 -0.34541 -0.4806 -0.39319Zm21.1541 0c-0.1734 0.04778 -0.3596 0.177 -0.4807 0.3932 -1.6972 3.03011 -3.6946 6.74606 -5.4872 10.46846 1.2513 1.0745 2.1025 2.5606 2.4025 4.1793 4.0991 0.3008 8.294 0.4206 11.7503 0.4589 0.2523 0.0028 0.4578 -0.0949 0.5845 -0.219 0.1165 -0.114 0.1629 -0.2404 0.1519 -0.3857 -0.4523 -5.9362 -3.6188 -11.4618 -8.5002 -14.82988 -0.1244 -0.08578 -0.2614 -0.10929 -0.4211 -0.06528Zm2.6927 -3.22707 -1.1358 1.64617 1.1358 -1.64617C43.15 6.85739 46.9431 13.4838 47.4867 20.6184c0.2199 2.8859 -2.2066 4.9368 -4.7692 4.9084 -3.7187 -0.0413 -8.3179 -0.1757 -12.7764 -0.5287 -1.7522 -0.1387 -2.7113 -1.6304 -2.8217 -2.9003 -0.0816 -0.9397 -0.588 -1.8203 -1.3509 -2.357 -1.0281 -0.7235 -1.8559 -2.2901 -1.1002 -3.8827l1.8069 0.8574 -1.8069 -0.8574c1.9265 -4.0598 4.1127 -8.13345 5.9382 -11.39248l1.7326 0.97047 -1.7326 -0.97047c1.2599 -2.24944 4.2731 -3.31468 6.6632 -1.66555ZM18.7262 26.1957c1.003 -1.4661 2.7945 -1.5356 3.9469 -0.9912 0.4007 0.1892 0.8488 0.2958 1.3269 0.2958 0.4782 0 0.9263 -0.1066 1.327 -0.2958 1.1524 -0.5444 2.9438 -0.4749 3.9468 0.9912 2.5428 3.7167 4.9665 7.6665 6.864 10.8874 1.2963 2.2004 0.7221 5.2927 -1.8553 6.5504C31.1733 45.1508 27.6828 46.001 24 46.001c-3.6827 0 -7.1732 -0.8502 -10.2824 -2.3675 -2.5774 -1.2577 -3.1516 -4.3501 -1.8553 -6.5504 1.8975 -3.2209 4.3212 -7.1707 6.8639 -10.8874Zm2.873 2.8885c-2.3178 3.4302 -4.5265 7.035 -6.2905 10.0292 -0.1243 0.211 -0.1416 0.4309 -0.0984 0.5985 0.0398 0.1542 0.1255 0.2604 0.2615 0.3268 2.5753 1.2567 5.467 1.9623 8.5282 1.9623 3.0612 0 5.953 -0.7056 8.5283 -1.9623 0.136 -0.0664 0.2216 -0.1726 0.2614 -0.3268 0.0433 -0.1676 0.026 -0.3875 -0.0983 -0.5985 -1.764 -2.9942 -3.9727 -6.599 -6.2906 -10.0292 -0.7519 0.2697 -1.5609 0.4161 -2.4008 0.4161 -0.8398 0 -1.6488 -0.1464 -2.4008 -0.4161Z" clip-rule="evenodd" stroke-width="1"></path>
  </g>
</svg>