<svg xmlns="http://www.w3.org/2000/svg" fill="none" viewBox="0 0 48 48" id="Recycle-Bin-2--Streamline-Plump">
  <desc>
    Recycle Bin 2 Streamline Icon: https://streamlinehq.com
  </desc>
  <g id="recycle-bin-2--remove-delete-empty-bin-trash-garbage">
    <path id="Subtract" fill="#ff7972" d="M7.01855 14.0498c0.08668 10.72 0.45688 20.0682 0.71691 25.4855 0.13828 2.8808 2.33674 5.2147 5.21084 5.4552 3.0063 0.2515 7.0307 0.5045 11.0545 0.5045 4.0234 0 8.0471 -0.253 11.0528 -0.5045 2.8741 -0.2404 5.0725 -2.5743 5.2107 -5.4551 0.2601 -5.4172 0.6303 -14.7655 0.717 -25.4856 -3.0211 0.2002 -8.4599 0.4452 -16.9806 0.4452 -8.5212 0 -13.9607 -0.2451 -16.98215 -0.4452Z" stroke-width="1"></path>
    <path id="Union" fill="#0c098c" fill-rule="evenodd" d="M15.8636 5.59514C17.3559 2.51719 20.4954 0.5 24.0003 0.5c3.5048 0 6.6444 2.01718 8.1367 5.09515 3.5856 0.08467 6.3585 0.2085 8.0519 0.29735 1.4211 0.07456 2.9633 0.68745 3.7693 2.14119 0.3614 0.6517 0.724 1.48029 0.955 2.46071 0.0644 0.2735 0.0868 0.5408 0.0868 0.788 0 1.4401 -0.8014 2.7219 -2.0236 3.3449 -0.095 10.521 -0.458 19.6681 -0.7144 25.0089 -0.1851 3.8571 -3.1424 7.026 -7.0416 7.3522 -3.0364 0.2541 -7.1202 0.5115 -11.2196 0.5115 -4.0997 0 -8.1843 -0.2574 -11.2212 -0.5115 -3.89933 -0.3262 -6.8567 -3.4952 -7.04184 -7.3524 -0.25636 -5.3407 -0.61939 -14.4879 -0.71438 -25.0088C3.80133 14.0041 3 12.7224 3 11.2824c0 -0.2472 0.02236 -0.5145 0.08682 -0.788 0.23102 -0.98041 0.59362 -1.80901 0.95495 -2.46071 0.80602 -1.45374 2.34822 -2.06663 3.76932 -2.14119 1.69351 -0.08886 4.46661 -0.2127 8.05251 -0.29736ZM9.02877 15.1742c0.10225 10.2085 0.45442 19.0624 0.70439 24.2701 0.09141 1.9044 1.53104 3.4033 3.37984 3.558 2.9757 0.249 6.94 0.4976 10.8878 0.4976 3.9475 0 7.911 -0.2486 10.8861 -0.4975 1.8488 -0.1547 3.2883 -1.6536 3.3797 -3.558 0.25 -5.2076 0.6022 -14.0616 0.7044 -24.2701 -3.2307 0.167 -8.1059 0.3257 -14.9702 0.3257 -6.865 0 -11.7409 -0.1587 -14.97203 -0.3258ZM19.999 21.4375c-0.0345 -1.104 -0.9574 -1.971 -2.0615 -1.9365 -1.104 0.0345 -1.971 0.9574 -1.9365 2.0615l0.5 16c0.0345 1.104 0.9574 1.971 2.0615 1.9365 1.104 -0.0345 1.971 -0.9574 1.9365 -2.0615l-0.5 -16Zm10.0635 -1.9365c-1.1041 -0.0345 -2.027 0.8325 -2.0615 1.9365l-0.5 16c-0.0345 1.1041 0.8325 2.027 1.9365 2.0615 1.1041 0.0345 2.027 -0.8325 2.0615 -1.9365l0.5 -16c0.0345 -1.1041 -0.8325 -2.027 -1.9365 -2.0615Z" clip-rule="evenodd" stroke-width="1"></path>
  </g>
</svg>