<svg xmlns="http://www.w3.org/2000/svg" fill="none" viewBox="0 0 48 48" id="User-Feedback-Heart--Streamline-Plump">
  <desc>
    User Feedback Heart Streamline Icon: https://streamlinehq.com
  </desc>
  <g id="user-feedback-heart">
    <path id="Ellipse 19" fill="#ff7972" d="M0.5 23.998a23.498 23.498 0 1 0 46.996 0 23.498 23.498 0 1 0 -46.996 0" stroke-width="1"></path>
    <path id="Rectangle 1669" fill="#ff7972" d="M36.2939 12.4682c-0.3215 0.4963 -0.0766 1.1437 0.4907 1.3108 2.5583 0.7532 5.8765 1.1556 7.585 1.3255 0.5942 0.0591 1.0825 -0.4324 1.0194 -1.0262 -0.1751 -1.6483 -0.5808 -4.81714 -1.3331 -7.53617 -0.1616 -0.584 -0.8242 -0.84738 -1.3319 -0.51661 -2.3586 1.53673 -4.9036 4.08588 -6.4301 6.44268Z" stroke-width="1"></path>
    <path id="Rectangle 1670" fill="#ff7972" d="M11.7023 35.5279c0.3215 -0.4963 0.0766 -1.1438 -0.4907 -1.3108 -2.51934 -0.7417 -7.43257 -1.3081 -7.58156 -1.3252 -0.00471 -0.0005 -0.00588 -0.0006 -0.0106 -0.001 -0.58857 -0.0543 -1.0712 0.4316 -1.01299 1.0198 0.00047 0.0047 0.0006 0.006 0.00117 0.0107 0.01796 0.1481 0.59228 4.8565 1.33268 7.5326 0.16158 0.584 0.82416 0.8473 1.33185 0.5166 2.35869 -1.5368 4.90365 -4.0859 6.43015 -6.4427Z" stroke-width="1"></path>
    <path id="Union" fill="#0c098c" fill-rule="evenodd" d="M24.0253 4.5c-5.3932 0 -10.272 2.18086 -13.8074 5.7118C6.68261 13.7426 4.5 18.6141 4.5 23.9981c0 1.1046 -0.89543 2 -2 2s-2 -0.8954 -2 -2c0 -6.4891 2.63599 -12.3666 6.89128 -16.61655C11.6465 3.13167 17.5303 0.5 24.0253 0.5c5.8259 0 11.1601 2.11746 15.2683 5.62095 0.7715 -0.66376 1.562 -1.26506 2.3388 -1.77115 1.6832 -1.09665 3.8422 -0.18072 4.3512 1.65901 0.7975 2.88245 1.2165 6.18419 1.3943 7.85819 0.1971 1.8549 -1.3498 3.4124 -3.2061 3.2277 -1.7201 -0.1711 -5.1998 -0.5868 -7.952 -1.3972 -1.8309 -0.539 -2.6636 -2.6813 -1.6044 -4.3166 0.5213 -0.8049 1.1454 -1.62492 1.8358 -2.42363C33.0743 6.1716 28.7469 4.5 24.0253 4.5ZM45.5 21.998c1.1046 0 2 0.8955 2 2 0 6.4892 -2.636 12.3667 -6.8913 16.6166 -4.2552 4.2499 -10.139 6.8816 -16.634 6.8816 -5.827 0 -11.1617 -2.1182 -15.27012 -5.6225 -0.77206 0.6644 -1.56325 1.2663 -2.34069 1.7728 -1.68323 1.0966 -3.84219 0.1807 -4.3512 -1.659 -0.7863 -2.842 -1.37464 -7.6939 -1.390457 -7.8243l-0.000098 -0.0008c-0.003008 -0.0248 -0.004752 -0.0421 -0.005986 -0.0545 -0.181973 -1.8386 1.347001 -3.378 3.186901 -3.2084l0.00624 0.0006 0.01583 0.0015c0.01465 0.0015 0.02641 0.0028 0.03253 0.0035l0.00166 0.0002c0.13893 0.0159 5.20941 0.5962 7.91719 1.3934 1.8309 0.5391 2.6636 2.6814 1.6044 4.3166 -0.5209 0.8044 -1.1445 1.6237 -1.8342 2.4219 3.3772 2.7867 7.7056 4.459 12.428 4.459 5.3932 0 10.272 -2.1809 13.8074 -5.7118C41.3174 34.2535 43.5 29.382 43.5 23.998c0 -1.1045 0.8954 -2 2 -2Zm-6.5892 -9.7416c1.0249 -1.2924 2.3107 -2.58065 3.6037 -3.61061 0.334 1.52461 0.5718 3.08271 0.7308 4.32251 -1.2724 -0.1543 -2.8558 -0.3862 -4.3345 -0.7119ZM4.77522 35.0528c1.15864 0.1557 2.85181 0.4049 4.29778 0.7028 -1.01939 1.2828 -2.29467 2.5603 -3.5779 3.5843 -0.30406 -1.4732 -0.55925 -3.144 -0.71988 -4.2871ZM12.961 20.8961c1.0583 -4.8726 6.9254 -6.8991 10.604 -3.6011 0.15 0.1337 0.2958 0.2825 0.435 0.4295 0.1394 -0.1472 0.2854 -0.2962 0.4357 -0.43 3.6786 -3.2973 9.5451 -1.2707 10.6034 3.6017 0.709 3.0743 -0.428 5.7357 -2.2021 7.9685 -1.7672 2.2242 -4.212 4.0821 -6.2314 5.5782 -1.5446 1.1444 -3.6666 1.1444 -5.2112 0 -2.0194 -1.4961 -4.4641 -3.354 -6.2314 -5.5782 -1.7741 -2.2328 -2.9111 -4.8942 -2.202 -7.9686Z" clip-rule="evenodd" stroke-width="1"></path>
  </g>
</svg>