<svg xmlns="http://www.w3.org/2000/svg" fill="none" viewBox="0 0 48 48" id="Zoom-In-Gesture--Streamline-Plump">
  <desc>
    Zoom In Gesture Streamline Icon: https://streamlinehq.com
  </desc>
  <g id="zoom-in">
    <path id="Union" fill="#7af1ff" d="M15.4507 14.527c-1.6992 1.1312 -1.8287 3.4301 -0.8179 5.202 1.9343 3.3905 5.2358 9.1749 8.2087 14.3715 0.1252 0.2187 -0.1275 0.4886 -0.3587 0.3885 -0.7225 -0.3125 -1.8953 -0.7561 -3.3483 -1.0762 -2.1416 -0.4719 -4.1787 1.0705 -4.0785 3.2764 0.0292 0.6436 0.12 1.3209 0.3088 1.9872 0.2849 1.0051 1.0771 1.7444 2.0006 2.2211 2.0401 1.0529 6.1304 2.9796 10.9715 4.2645 1.6787 0.4456 3.4448 0.4849 5.0817 -0.1092 1.2539 -0.4552 2.9372 -1.1917 4.9646 -2.3727 1.2966 -0.7552 2.4133 -1.4711 3.3497 -2.1108 2.4077 -1.6449 3.6398 -4.4955 3.1662 -7.378 -0.5673 -3.452 -1.5276 -6.4552 -2.4044 -8.7007 -1.0592 -2.7128 -3.7882 -4.2812 -6.6333 -3.7059 -3.9588 0.8005 -7.5226 2.1885 -8.3949 2.5412 -0.1172 0.0474 -0.2496 0.0017 -0.3147 -0.1066 -1.057 -1.7578 -3.9418 -5.5552 -5.8368 -8.0046 -1.0847 -1.4019 -2.8705 -2.1509 -4.493 -1.4354 -0.3067 0.1353 -0.6189 0.2908 -0.9249 0.4691 -0.1531 0.0891 -0.302 0.1825 -0.4464 0.2786Z" stroke-width="1"></path>
    <path id="Union_2" fill="#0c098c" fill-rule="evenodd" d="M5.11584 1.06941c0.83859 -0.758007 2.09514 -0.757848 2.9336 0.0001l-0.65728 0.72711 0.65728 -0.72711c0.82185 0.74292 1.59039 1.83818 2.24976 2.97257 0.6679 1.14919 1.2616 2.40506 1.7177 3.52365 0.5436 1.33294 -0.4802 2.68487 -1.8315 2.68487H8.83242l0 5.0004c0 1.2426 -1.00735 2.25 -2.25 2.25 -1.24264 0 -2.25 -1.0074 -2.25 -2.25l0 -5.0004h-1.3522c-1.35157 0 -2.375193 -1.35226 -1.83155 -2.68518 0.45619 -1.11848 1.04982 -2.37431 1.71763 -3.52346 0.65921 -1.13436 1.42764 -2.22964 2.24954 -2.97255ZM10.1855 27.251H8.83252l0 -5c0 -1.2427 -1.00736 -2.25 -2.25 -2.25s-2.25 1.0073 -2.25 2.25l0 5H2.98031c-1.35157 0 -2.375188 1.3523 -1.83154 2.6852 0.45619 1.1185 1.04982 2.3743 1.71763 3.5234 0.6592 1.1344 1.42764 2.2297 2.24953 2.9726 0.83859 0.758 2.09514 0.7578 2.93361 -0.0001 0.82184 -0.7429 1.59039 -1.8382 2.24966 -2.9726 0.668 -1.1492 1.2617 -2.405 1.7178 -3.5236 0.5436 -1.333 -0.4802 -2.6849 -1.8315 -2.6849Zm12.7112 -13.2582c-1.4587 -1.8853 -4.1661 -3.2392 -6.8819 -2.0415 -0.3652 0.1611 -0.7452 0.3498 -1.1245 0.5708 -0.19 0.1106 -0.3729 0.2253 -0.5481 0.342 -2.8795 1.917 -2.7746 5.5302 -1.4467 7.8579 1.4788 2.5921 3.7568 6.5836 6.0764 10.6423 -3.0878 -0.3356 -6.0703 1.9779 -5.914 5.4176 0.0347 0.7638 0.1434 1.5981 0.3826 2.4417 0.4873 1.7196 1.7907 2.825 3.0075 3.453 2.1109 1.0895 6.3432 3.0846 11.3756 4.4204 1.976 0.5245 4.1718 0.6019 6.2772 -0.1624 1.3655 -0.4956 3.1573 -1.2828 5.2888 -2.5244 1.34 -0.7805 2.4973 -1.5221 3.4713 -2.1876 3.0447 -2.0801 4.6121 -5.6986 4.0115 -9.3537 -0.5949 -3.6207 -1.6 -6.7609 -2.5149 -9.1039 -1.3954 -3.5739 -5.0491 -5.7159 -8.8927 -4.9387 -2.993 0.6052 -5.7552 1.5267 -7.4004 2.1301 -1.3955 -2.0458 -3.6491 -5.0007 -5.1677 -6.9636Zm-5.2678 1.6184c0.5291 -0.2334 1.3934 -0.0894 2.1041 0.8293 1.9254 2.4886 4.7225 6.178 5.7046 7.8113 0.5617 0.9341 1.7306 1.3538 2.7784 0.9302 0.8303 -0.3357 4.2615 -1.6707 8.0416 -2.4351 1.8466 -0.3734 3.6509 0.6214 4.3739 2.473 0.8387 2.1481 1.7543 5.0143 2.2939 8.2976 0.3467 2.11 -0.5502 4.1925 -2.3209 5.4023 -0.8986 0.6139 -1.9748 1.304 -3.2281 2.034 -1.9233 1.1203 -3.498 1.8062 -4.6404 2.2209 -1.1683 0.424 -2.5048 0.4228 -3.8862 0.0562 -4.6497 -1.2342 -8.5981 -3.0924 -10.5672 -4.1087 -0.6303 -0.3254 -0.9113 -0.6985 -0.9937 -0.9893 -0.1386 -0.4889 -0.2114 -1.0093 -0.2352 -1.5326 -0.0341 -0.7521 0.6533 -1.4522 1.6503 -1.2325 1.2995 0.2864 2.3488 0.6837 2.9844 0.9587 1.0563 0.457 2.0506 0.0129 2.5728 -0.5494 0.5268 -0.5672 0.9104 -1.6291 0.3161 -2.6679 -2.9723 -5.1955 -6.2733 -10.9791 -8.2075 -14.3694 -0.312 -0.5469 -0.4193 -1.1323 -0.3603 -1.5995 0.0552 -0.437 0.2432 -0.7428 0.5493 -0.9466 0.1136 -0.0756 0.2287 -0.1476 0.3448 -0.2152 0.2327 -0.1356 0.4771 -0.2579 0.7253 -0.3673Z" clip-rule="evenodd" stroke-width="1"></path>
  </g>
</svg>