<svg xmlns="http://www.w3.org/2000/svg" viewBox="0 0 32 32" id="Food-Drink-Tea--Streamline-Pixel">
  <desc>
    Food Drink Tea Streamline Icon: https://streamlinehq.com
  </desc>
  <title>food-drink-tea</title>
  <g>
    <path d="M30.47 12.19H32v4.57h-1.53Z" fill="#000000" stroke-width="1"></path>
    <path d="M28.95 16.76h1.52v3.05h-1.52Z" fill="#000000" stroke-width="1"></path>
    <path d="M27.42 10.67h3.05v1.52h-3.05Z" fill="#000000" stroke-width="1"></path>
    <path d="M27.42 19.81h1.53v1.52h-1.53Z" fill="#000000" stroke-width="1"></path>
    <path d="M25.9 28.95h1.52v1.53H25.9Z" fill="#000000" stroke-width="1"></path>
    <path d="m25.9 13.71 1.52 0 0 -1.52 -1.52 0 0 -1.52 -1.52 0 0 12.19 3.04 0 0 -1.53 -1.52 0 0 -7.62z" fill="#000000" stroke-width="1"></path>
    <path d="M1.52 30.48H25.9V32H1.52Z" fill="#000000" stroke-width="1"></path>
    <path d="M22.85 22.86h1.53v3.05h-1.53Z" fill="#000000" stroke-width="1"></path>
    <path d="m21.33 27.43 -15.24 0 0 -1.52 -1.52 0 0 1.52 -3.05 0 0 1.52 24.38 0 0 -1.52 -3.05 0 0 -1.52 -1.52 0 0 1.52z" fill="#000000" stroke-width="1"></path>
    <path d="M18.28 4.57h1.53V6.1h-1.53Z" fill="#000000" stroke-width="1"></path>
    <path d="M16.76 6.1h1.52v1.52h-1.52Z" fill="#000000" stroke-width="1"></path>
    <path d="M16.76 3.05h1.52v1.52h-1.52Z" fill="#000000" stroke-width="1"></path>
    <path d="M16.76 0h1.52v1.52h-1.52Z" fill="#000000" stroke-width="1"></path>
    <path d="M15.23 1.52h1.53v1.53h-1.53Z" fill="#000000" stroke-width="1"></path>
    <path d="M12.19 4.57h1.52V6.1h-1.52Z" fill="#000000" stroke-width="1"></path>
    <path d="M10.66 6.1h1.53v1.52h-1.53Z" fill="#000000" stroke-width="1"></path>
    <path d="M10.66 3.05h1.53v1.52h-1.53Z" fill="#000000" stroke-width="1"></path>
    <path d="M10.66 0h1.53v1.52h-1.53Z" fill="#000000" stroke-width="1"></path>
    <path d="M9.14 1.52h1.52v1.53H9.14Z" fill="#000000" stroke-width="1"></path>
    <path d="m7.61 10.67 0 4.57 -1.52 0 0 4.57 1.52 0 0 1.52 3.05 0 0 -1.52 1.53 0 0 -4.57 -1.53 0 0 3.05 -1.52 0 0 -3.05 1.52 0 0 -1.53 -1.52 0 0 -3.04 15.24 0 0 -1.53 -21.34 0 0 1.53 4.57 0z" fill="#000000" stroke-width="1"></path>
    <path d="M3.04 22.86h1.53v3.05H3.04Z" fill="#000000" stroke-width="1"></path>
    <path d="M1.52 10.67h1.52v12.19H1.52Z" fill="#000000" stroke-width="1"></path>
    <path d="M0 28.95h1.52v1.53H0Z" fill="#000000" stroke-width="1"></path>
  </g>
</svg>