<svg xmlns="http://www.w3.org/2000/svg" viewBox="0 0 32 32" id="Food-Drink-Desert-Cake--Streamline-Pixel">
  <desc>
    Food Drink Desert Cake Streamline Icon: https://streamlinehq.com
  </desc>
  <title>food-drink-desert-cake</title>
  <g>
    <path d="m27.43 9.9 0 -1.52 -1.53 0 0 1.52 -1.52 0 0 1.53 4.57 0 0 3.04 -4.57 0 0 1.53 -4.57 0 0 1.52 -4.57 0 0 1.53 -4.57 0 0 1.52 -4.58 0 0 1.52 -3.04 0 0 -3.04 3.04 0 0 -1.53 -3.04 0 0 -1.52 -1.53 0 0 15.24 4.57 0 0 -1.53 -3.04 0 0 -3.04 3.04 0 0 -1.53 4.58 0 0 -1.52 4.57 0 0 -1.53 4.57 0 0 -1.52 4.57 0 0 -1.52 4.57 0 0 1.52 -1.52 0 0 1.52 3.05 0 0 -15.23 -1.53 0 0 3.04 -1.52 0z" fill="#000000" stroke-width="1"></path>
    <path d="M25.9 5.33h3.05v1.53H25.9Z" fill="#000000" stroke-width="1"></path>
    <path d="M24.38 22.09h3.05v1.53h-3.05Z" fill="#000000" stroke-width="1"></path>
    <path d="M22.86 6.86h3.04v1.52h-3.04Z" fill="#000000" stroke-width="1"></path>
    <path d="M22.86 3.81h3.04v1.52h-3.04Z" fill="#000000" stroke-width="1"></path>
    <path d="M19.81 23.62h4.57v1.52h-4.57Z" fill="#000000" stroke-width="1"></path>
    <path d="M19.81 11.43h4.57v1.52h-4.57Z" fill="#000000" stroke-width="1"></path>
    <path d="M19.81 5.33h3.05v1.53h-3.05Z" fill="#000000" stroke-width="1"></path>
    <path d="M19.81 2.28h3.05v1.53h-3.05Z" fill="#000000" stroke-width="1"></path>
    <path d="M16.76 3.81h3.05v1.52h-3.05Z" fill="#000000" stroke-width="1"></path>
    <path d="M16.76 0.76h3.05v1.52h-3.05Z" fill="#000000" stroke-width="1"></path>
    <path d="M15.24 25.14h4.57v1.53h-4.57Z" fill="#000000" stroke-width="1"></path>
    <path d="M15.24 12.95h4.57v1.52h-4.57Z" fill="#000000" stroke-width="1"></path>
    <path d="M15.24 2.28h1.52v1.53h-1.52Z" fill="#000000" stroke-width="1"></path>
    <path d="M10.67 26.67h4.57v1.52h-4.57Z" fill="#000000" stroke-width="1"></path>
    <path d="M10.67 14.47h4.57V16h-4.57Z" fill="#000000" stroke-width="1"></path>
    <path d="M10.67 3.81v1.52H9.14V9.9h1.53v1.53h4.57V9.9h1.52V5.33h-1.52V3.81h-1.53V2.28h-1.52v1.53Zm3.04 1.52v1.53h1.53v1.52h-1.53V6.86h-1.52V5.33Z" fill="#000000" stroke-width="1"></path>
    <path d="M9.14 0.76h3.05v1.52H9.14Z" fill="#000000" stroke-width="1"></path>
    <path d="M6.09 28.19h4.58v1.52H6.09Z" fill="#000000" stroke-width="1"></path>
    <path d="M6.09 16h4.58v1.52H6.09Z" fill="#000000" stroke-width="1"></path>
    <path d="M7.62 9.9h1.52v1.53H7.62Z" fill="#000000" stroke-width="1"></path>
    <path d="M6.09 11.43h1.53v1.52H6.09Z" fill="#000000" stroke-width="1"></path>
    <path d="M4.57 12.95h1.52v1.52H4.57Z" fill="#000000" stroke-width="1"></path>
    <path d="M3.05 14.47h1.52V16H3.05Z" fill="#000000" stroke-width="1"></path>
  </g>
</svg>