<svg xmlns="http://www.w3.org/2000/svg" viewBox="0 0 32 32" id="Food-Drink-Fish--Streamline-Pixel">
  <desc>
    Food Drink Fish Streamline Icon: https://streamlinehq.com
  </desc>
  <title>food-drink-fish</title>
  <g>
    <path d="M30.47 18.285H32v3.05h-1.53Z" fill="#000000" stroke-width="1"></path>
    <path d="M30.47 10.665H32v3.05h-1.53Z" fill="#000000" stroke-width="1"></path>
    <path d="M28.95 16.765h1.52v1.52h-1.52Z" fill="#000000" stroke-width="1"></path>
    <path d="M28.95 13.715h1.52v1.52h-1.52Z" fill="#000000" stroke-width="1"></path>
    <path d="M27.42 9.145h3.05v1.52h-3.05Z" fill="#000000" stroke-width="1"></path>
    <path d="M27.42 21.335h3.05v1.52h-3.05Z" fill="#000000" stroke-width="1"></path>
    <path d="M27.42 15.235h1.53v1.53h-1.53Z" fill="#000000" stroke-width="1"></path>
    <path d="M25.9 19.805h1.52v1.53H25.9Z" fill="#000000" stroke-width="1"></path>
    <path d="M25.9 10.665h1.52v1.52H25.9Z" fill="#000000" stroke-width="1"></path>
    <path d="M24.38 18.285h1.52v1.52h-1.52Z" fill="#000000" stroke-width="1"></path>
    <path d="M24.38 12.185h1.52v1.53h-1.52Z" fill="#000000" stroke-width="1"></path>
    <path d="M22.85 19.805h1.53v1.53h-1.53Z" fill="#000000" stroke-width="1"></path>
    <path d="M22.85 10.665h1.53v1.52h-1.53Z" fill="#000000" stroke-width="1"></path>
    <path d="M21.33 21.335h1.52v1.52h-1.52Z" fill="#000000" stroke-width="1"></path>
    <path d="M21.33 9.145h1.52v1.52h-1.52Z" fill="#000000" stroke-width="1"></path>
    <path d="M19.81 22.855h1.52v1.53h-1.52Z" fill="#000000" stroke-width="1"></path>
    <path d="M19.81 7.615h1.52v1.53h-1.52Z" fill="#000000" stroke-width="1"></path>
    <path d="M16.76 24.385h3.05v1.52h-3.05Z" fill="#000000" stroke-width="1"></path>
    <path d="M16.76 6.095h3.05v1.52h-3.05Z" fill="#000000" stroke-width="1"></path>
    <path d="M10.66 25.905h6.1v1.52h-6.1Z" fill="#000000" stroke-width="1"></path>
    <path d="M10.66 4.575h6.1v1.52h-6.1Z" fill="#000000" stroke-width="1"></path>
    <path d="M6.09 24.385h4.57v1.52H6.09Z" fill="#000000" stroke-width="1"></path>
    <path d="M6.09 6.095h4.57v1.52H6.09Z" fill="#000000" stroke-width="1"></path>
    <path d="M3.04 22.855h3.05v1.53H3.04Z" fill="#000000" stroke-width="1"></path>
    <path d="M4.57 15.235h3.04v3.05H4.57Z" fill="#000000" stroke-width="1"></path>
    <path d="M3.04 7.615h3.05v1.53H3.04Z" fill="#000000" stroke-width="1"></path>
    <path d="M1.52 19.805h1.52v3.05H1.52Z" fill="#000000" stroke-width="1"></path>
    <path d="M1.52 9.145h1.52v3.04H1.52Z" fill="#000000" stroke-width="1"></path>
    <path d="M0 12.185h1.52v7.62H0Z" fill="#000000" stroke-width="1"></path>
  </g>
</svg>