<svg xmlns="http://www.w3.org/2000/svg" viewBox="0 0 32 32" id="Food-Drink-Pizza--Streamline-Pixel">
  <desc>
    Food Drink Pizza Streamline Icon: https://streamlinehq.com
  </desc>
  <title>food-drink-pizza</title>
  <g>
    <path d="m30.47 8.385 -3.05 0 0 -1.53 -3.04 0 0 -1.52 -3.05 0 0 -1.53 -3.05 0 0 -1.52 -3.05 0 0 1.52 -1.52 0 0 4.58 4.57 0 0 1.52 3.05 0 0 1.52 3.05 0 0 1.53 3.04 0 0 1.52 1.53 0 0 -1.52 1.52 0 0 4.57 1.53 0 0 -7.62 -1.53 0 0 -1.52z" fill="#000000" stroke-width="1"></path>
    <path d="M27.42 17.525h3.05v1.52h-3.05Z" fill="#000000" stroke-width="1"></path>
    <path d="M24.38 19.045h3.04v1.53h-3.04Z" fill="#000000" stroke-width="1"></path>
    <path d="M24.38 14.475h3.04v1.52h-3.04Z" fill="#000000" stroke-width="1"></path>
    <path d="M21.33 20.575h3.05v1.52h-3.05Z" fill="#000000" stroke-width="1"></path>
    <path d="M21.33 15.995h3.05v1.53h-3.05Z" fill="#000000" stroke-width="1"></path>
    <path d="M18.28 12.955h3.05v3.04h-3.05Z" fill="#000000" stroke-width="1"></path>
    <path d="M18.28 22.095h3.05v1.52h-3.05Z" fill="#000000" stroke-width="1"></path>
    <path d="M18.28 17.525h3.05v1.52h-3.05Z" fill="#000000" stroke-width="1"></path>
    <path d="M15.23 23.615h3.05v1.53h-3.05Z" fill="#000000" stroke-width="1"></path>
    <path d="M15.23 19.045h3.05v1.53h-3.05Z" fill="#000000" stroke-width="1"></path>
    <path d="M15.23 14.475h1.53v1.52h-1.53Z" fill="#000000" stroke-width="1"></path>
    <path d="M13.71 9.905h3.05v3.05h-3.05Z" fill="#000000" stroke-width="1"></path>
    <path d="M12.19 25.145h3.04v1.52h-3.04Z" fill="#000000" stroke-width="1"></path>
    <path d="M12.19 20.575h3.04v1.52h-3.04Z" fill="#000000" stroke-width="1"></path>
    <path d="M10.66 14.475h3.05v3.05h-3.05Z" fill="#000000" stroke-width="1"></path>
    <path d="M12.19 8.385h1.52v1.52h-1.52Z" fill="#000000" stroke-width="1"></path>
    <path d="M10.66 19.045h1.53v1.53h-1.53Z" fill="#000000" stroke-width="1"></path>
    <path d="M10.66 9.905h1.53v1.52h-1.53Z" fill="#000000" stroke-width="1"></path>
    <path d="M9.14 26.665h3.05v1.53H9.14Z" fill="#000000" stroke-width="1"></path>
    <path d="M9.14 22.095h3.05v1.52H9.14Z" fill="#000000" stroke-width="1"></path>
    <path d="M9.14 11.425h1.52v1.53H9.14Z" fill="#000000" stroke-width="1"></path>
    <path d="M6.09 19.045h3.05v3.05H6.09Z" fill="#000000" stroke-width="1"></path>
    <path d="M7.61 15.995h1.53v1.53H7.61Z" fill="#000000" stroke-width="1"></path>
    <path d="M7.61 12.955h1.53v1.52H7.61Z" fill="#000000" stroke-width="1"></path>
    <path d="M3.04 28.195h6.1v1.52h-6.1Z" fill="#000000" stroke-width="1"></path>
    <path d="M6.09 23.615h3.05v1.53H6.09Z" fill="#000000" stroke-width="1"></path>
    <path d="M6.09 14.475h1.52v1.52H6.09Z" fill="#000000" stroke-width="1"></path>
    <path d="M4.57 15.995h1.52v1.53H4.57Z" fill="#000000" stroke-width="1"></path>
    <path d="m6.09 26.665 0 -1.52 -4.57 0 0 3.05 1.52 0 0 -1.53 3.05 0z" fill="#000000" stroke-width="1"></path>
    <path d="M3.04 20.575h1.53v1.52H3.04Z" fill="#000000" stroke-width="1"></path>
    <path d="M3.04 17.525h1.53v1.52H3.04Z" fill="#000000" stroke-width="1"></path>
    <path d="M1.52 19.045h1.52v1.53H1.52Z" fill="#000000" stroke-width="1"></path>
    <path d="M0 20.575h1.52v4.57H0Z" fill="#000000" stroke-width="1"></path>
  </g>
</svg>