<svg xmlns="http://www.w3.org/2000/svg" fill="none" viewBox="0 0 24 24" id="Behance-Logo-1--Streamline-Ultimate">
  <desc>
    Behance Logo 1 Streamline Icon: https://streamlinehq.com
  </desc>
  <path fill="#66e1ff" d="M12.4783 15.3133c0.0946 -1.4749 -0.7815 -2.8397 -2.1618 -3.3678 1.1385 -0.5106 1.8277 -1.6872 1.716 -2.92989 0 -3.0025 -2.46968 -3.69022 -4.26891 -3.71794H1V19.6455h6.30543c4.60847 0 5.17287 -3.0188 5.17287 -4.3322ZM3.86957 8.16723h3.82608c1.10449 0 1.79485 1.19566 1.2426 2.15217 -0.25631 0.4439 -0.72998 0.7173 -1.2426 0.7174H3.86957V8.16723Zm0 4.78257h3.82608c1.0552 0.0032 1.90992 0.8578 1.91305 1.9131 -0.00313 1.0552 -0.85785 1.9098 -1.91305 1.913H3.86957v-3.8261Z" stroke-width="1"></path>
  <path fill="#c2f3ff" d="M1 5.29766V15.7238l4.68696 -4.687H3.86957V8.16723h3.82608c0.23816 0.00185 0.47153 0.06305 0.67913 0.17979L10.635 6.08679c-0.86135 -0.53204 -1.85721 -0.80591 -2.86956 -0.78913H1Z" stroke-width="1"></path>
  <path stroke="#191919" stroke-linecap="round" stroke-linejoin="round" d="M12.4783 15.3133c0.0946 -1.4749 -0.7815 -2.8397 -2.1618 -3.3678 1.1385 -0.5106 1.8277 -1.6872 1.716 -2.92989 0 -3.0025 -2.46968 -3.69022 -4.26891 -3.71794H1V19.6455h6.30543c4.60847 0 5.17287 -3.0188 5.17287 -4.3322ZM3.86957 8.16723h3.82608c1.10449 0 1.79485 1.19566 1.2426 2.15217 -0.25631 0.4439 -0.72998 0.7173 -1.2426 0.7174H3.86957V8.16723Zm0 4.78257h3.82608c1.0552 0.0032 1.90992 0.8578 1.91305 1.9131 -0.00313 1.0552 -0.85785 1.9098 -1.91305 1.913H3.86957v-3.8261Z" stroke-width="1"></path>
  <path fill="#66e1ff" stroke="#191919" stroke-linecap="round" stroke-linejoin="round" d="M20.6085 4.34119h-4.7826c-0.2641 0 -0.4782 0.21404 -0.4782 0.47826v0.95652c0 0.26412 0.2141 0.47826 0.4782 0.47826h4.7826c0.2641 0 0.4783 -0.21414 0.4783 -0.47826v-0.95652c0 -0.26422 -0.2142 -0.47826 -0.4783 -0.47826Z" stroke-width="1"></path>
  <path fill="#66e1ff" stroke="#191919" stroke-linecap="round" stroke-linejoin="round" d="M20.2663 16.7759c-0.1252 0 -0.2455 0.0491 -0.3348 0.1368 -0.5241 0.3656 -1.1519 0.5527 -1.7906 0.5337 -1.4542 0.0945 -2.6496 -1.1313 -2.5185 -2.5826h6.8994c0.2641 0 0.4782 -0.2141 0.4782 -0.4783 -0.0181 -5.5248 -3.9285 -5.73914 -4.7826 -5.73914 -2.4793 -0.00088 -5.2609 1.21771 -5.2609 5.56984 0 4.5751 3.3086 5.4293 5.2609 5.4293 1.7424 0.1288 3.4213 -0.6813 4.4048 -2.1254 0.2047 -0.306 0.0014 -0.7189 -0.366 -0.7432 -0.0103 -0.0007 -0.0206 -0.001 -0.031 -0.001h-1.9589Zm-4.4402 -3.8261c0.0031 -1.3194 1.0719 -2.3881 2.3913 -2.3913 1.3194 0.0032 2.3882 1.0719 2.3913 2.3913h-4.7826Z" stroke-width="1"></path>
</svg>