<svg xmlns="http://www.w3.org/2000/svg" fill="none" viewBox="0 0 24 24" id="Google-Logo--Streamline-Ultimate">
  <desc>
    Google Logo Streamline Icon: https://streamlinehq.com
  </desc>
  <path fill="#ff808c" stroke="#191919" stroke-linecap="round" stroke-linejoin="round" d="m20.0157 4.47237 -2.7835 2.62086c-0.7631 -0.81506 -1.7062 -1.44047 -2.754 -1.82632 -1.0477 -0.38585 -2.1712 -0.52146 -3.2807 -0.39602 -1.1095 0.12544 -2.17428 0.50848 -3.10944 1.11853 -0.93517 0.61005 -1.7148 1.43024 -2.27669 2.39511l-3.01303 -2.3913c0.90798 -1.39584 2.12153 -2.56691 3.54884 -3.42459 1.4273 -0.85768 3.03097 -1.37953 4.68972 -1.52605 1.6587 -0.146517 3.329 0.08612 4.8846 0.68032 1.5555 0.5942 2.9556 1.5344 4.0942 2.74946Z" stroke-width="1"></path>
  <path fill="#ffef5e" stroke="#191919" stroke-linecap="round" stroke-linejoin="round" d="m5.8496 15.6732 -2.87912 2.5922c-1.2527 -1.7938 -1.93871 -3.922 -1.9694 -6.1097 -0.030695 -2.18766 0.59534 -4.33427 1.79723 -6.16247l3.01303 2.39129c-0.65148 1.10544 -0.99188 2.36648 -0.98514 3.64958 0.00674 1.2831 0.36035 2.5406 1.0234 3.6391Z" stroke-width="1"></path>
  <path fill="#78eb7b" stroke="#191919" stroke-linecap="round" stroke-linejoin="round" d="M18.8298 20.6376c-1.1798 0.9299 -2.5374 1.6084 -3.9893 1.9939 -1.4519 0.3854 -2.9673 0.4696 -4.4529 0.2474 -1.48566 -0.2222 -2.9101 -0.7462 -4.18565 -1.5396 -1.27554 -0.7934 -2.37519 -1.8395 -3.23125 -3.0739l2.87912 -2.5921c0.51308 0.8604 1.20068 1.6039 2.01853 2.1825 0.81785 0.5785 1.74782 0.9794 2.73005 1.1767 0.9821 0.1974 1.9948 0.1868 2.9726 -0.031 0.9779 -0.2178 1.8993 -0.6379 2.7049 -1.2334l2.5539 2.8695Z" stroke-width="1"></path>
  <path fill="#66e1ff" stroke="#191919" stroke-linecap="round" stroke-linejoin="round" d="M22.9998 10.5654v2.0087c-0.0814 1.5634 -0.4954 3.0915 -1.2146 4.482 -0.7192 1.3906 -1.727 2.6116 -2.9559 3.5815l-2.5539 -2.8696c1.1579 -0.8459 2.0317 -2.0233 2.5061 -3.3765h-5.3469v-3.8261h9.5652Z" stroke-width="1"></path>
  <path stroke="#191919" stroke-linecap="round" stroke-linejoin="round" d="m2.79857 5.9937 -0.01 -0.01" stroke-width="1"></path>
  <path stroke="#191919" stroke-linecap="round" stroke-linejoin="round" d="m2.97045 18.2654 -0.01 0.01" stroke-width="1"></path>
  <path stroke="#191919" stroke-linecap="round" stroke-linejoin="round" d="m5.85961 15.6637 -0.01 0.01" stroke-width="1"></path>
</svg>