<svg xmlns="http://www.w3.org/2000/svg" fill="none" viewBox="0 0 24 24" id="Medium-New-Logo--Streamline-Ultimate">
  <desc>
    Medium New Logo Streamline Icon: https://streamlinehq.com
  </desc>
  <path fill="#b2b2b2" d="M23 1H1v22h22V1Z" stroke-width="1"></path>
  <path fill="#e3e3e3" d="M1 23V1h22L1 23Z" stroke-width="1"></path>
  <path stroke="#191919" stroke-linecap="round" stroke-linejoin="round" d="M23 1H1v22h22V1Z" stroke-width="1"></path>
  <path fill="#ffffff" stroke="#191919" stroke-linecap="round" stroke-linejoin="round" d="M8.88301 17.9582v0.2592H4.34814v-0.2592l2.23061 -2.7663 2.30426 2.7663Z" stroke-width="1"></path>
  <path fill="#ffffff" d="M12.7359 14.354 8.95475 5.78259H4.34814v0.35487c3.20053 3.85383 2.20479 2.222 6.72336 12.07994h0.4678l3.9093 -12.43481h4.2326v0.35487l-1.3219 1.18035c-0.0519 0.0398 -0.0921 0.09294 -0.1161 0.15375 -0.0241 0.06081 -0.0313 0.12701 -0.0207 0.19155v8.67379c-0.0107 0.0645 -0.0036 0.1307 0.0205 0.1916 0.0241 0.0608 0.0643 0.1139 0.1163 0.1537l1.2932 1.276v0.2592H13.635v-0.2592l1.1124 -1.3047c0.1225 -0.1225 0.1225 -0.1579 0.1225 -0.3492V7.69564" stroke-width="1"></path>
  <path stroke="#191919" stroke-linecap="round" stroke-linejoin="round" d="M12.7359 14.354 8.95475 5.78259H4.34814v0.35487c3.20053 3.85383 2.20479 2.222 6.72336 12.07994h0.4678l3.9093 -12.43481h4.2326v0.35487l-1.3219 1.18035c-0.0519 0.0398 -0.0921 0.09294 -0.1161 0.15375 -0.0241 0.06081 -0.0313 0.12701 -0.0207 0.19155v8.67379c-0.0107 0.0645 -0.0036 0.1307 0.0205 0.1916 0.0241 0.0608 0.0643 0.1139 0.1163 0.1537l1.2932 1.276v0.2592H13.635v-0.2592l1.1124 -1.3047c0.1225 -0.1225 0.1225 -0.1579 0.1225 -0.3492V7.69564" stroke-width="1"></path>
  <path stroke="#191919" stroke-linecap="round" stroke-linejoin="round" d="M6.57861 15.1919V8.89032" stroke-width="1"></path>
</svg>