<svg xmlns="http://www.w3.org/2000/svg" fill="none" viewBox="0 0 24 24" id="Messages-Logo--Streamline-Ultimate">
  <desc>
    Messages Logo Streamline Icon: https://streamlinehq.com
  </desc>
  <path fill="#78eb7b" d="M19.1739 1H4.82609c-1.01474 0 -1.98792 0.4031 -2.70546 1.12063C1.4031 2.83817 1 3.81135 1 4.82609V19.1739c0 1.0148 0.4031 1.9879 1.12063 2.7055C2.83817 22.5969 3.81135 23 4.82609 23H19.1739c1.0148 0 1.9879 -0.4031 2.7055 -1.1206C22.5969 21.1618 23 20.1887 23 19.1739V4.82609c0 -1.01474 -0.4031 -1.98792 -1.1206 -2.70546C21.1618 1.4031 20.1887 1 19.1739 1Z" stroke-width="1"></path>
  <path fill="#c9f7ca" d="M19.1739 1H4.82609c-1.01474 0 -1.98792 0.4031 -2.70546 1.12063C1.4031 2.83817 1 3.81135 1 4.82609V19.1739c0.0016 0.5535 0.12406 1.1 0.35884 1.6013 0.23477 0.5013 0.57618 0.9452 1.00038 1.3008L22.077 2.35922c-0.3557 -0.42437 -0.7998 -0.76589 -1.3012 -1.00067 -0.5015 -0.23478 -1.0482 -0.35715 -1.6019 -0.35855Z" stroke-width="1"></path>
  <path stroke="#191919" stroke-linecap="round" stroke-linejoin="round" d="M19.1739 1H4.82609c-1.01474 0 -1.98792 0.4031 -2.70546 1.12063C1.4031 2.83817 1 3.81135 1 4.82609V19.1739c0 1.0148 0.4031 1.9879 1.12063 2.7055C2.83817 22.5969 3.81135 23 4.82609 23H19.1739c1.0148 0 1.9879 -0.4031 2.7055 -1.1206C22.5969 21.1618 23 20.1887 23 19.1739V4.82609c0 -1.01474 -0.4031 -1.98792 -1.1206 -2.70546C21.1618 1.4031 20.1887 1 19.1739 1Z" stroke-width="1"></path>
  <path fill="#ffffff" stroke="#191919" stroke-linecap="round" stroke-linejoin="round" d="M19.174 11.4022c0 3.232 -3.212 5.8529 -7.1739 5.8529 -0.8516 0.0016 -1.6986 -0.1228 -2.51375 -0.3692l-4.12261 1.9188 1.61461 -3.2225c-0.65196 -0.4882 -1.18446 -1.1182 -1.55729 -1.8423s-0.57625 -1.5235 -0.59489 -2.3377c0 -3.22831 3.212 -5.85301 7.17393 -5.85301 3.9619 0 7.1739 2.6247 7.1739 5.85301Z" stroke-width="1"></path>
  <path stroke="#191919" d="M8.89147 12c-0.06342 0 -0.12424 -0.0252 -0.16909 -0.0701 -0.04484 -0.0448 -0.07004 -0.1056 -0.07004 -0.169 0 -0.0635 0.0252 -0.1243 0.07004 -0.1691 0.04485 -0.0449 0.10567 -0.0701 0.16909 -0.0701" stroke-width="1"></path>
  <path stroke="#191919" d="M8.89111 12c0.06342 0 0.12425 -0.0252 0.16909 -0.0701 0.04485 -0.0448 0.07004 -0.1056 0.07004 -0.169 0 -0.0635 -0.02519 -0.1243 -0.07004 -0.1691 -0.04484 -0.0449 -0.10567 -0.0701 -0.16909 -0.0701" stroke-width="1"></path>
  <path stroke="#191919" d="M12.2391 12c-0.0634 0 -0.1242 -0.0252 -0.1691 -0.0701 -0.0448 -0.0448 -0.07 -0.1056 -0.07 -0.169 0 -0.0635 0.0252 -0.1243 0.07 -0.1691 0.0449 -0.0449 0.1057 -0.0701 0.1691 -0.0701" stroke-width="1"></path>
  <path stroke="#191919" d="M12.2393 12c0.0634 0 0.1242 -0.0252 0.169 -0.0701 0.0449 -0.0448 0.0701 -0.1056 0.0701 -0.169 0 -0.0635 -0.0252 -0.1243 -0.0701 -0.1691 -0.0448 -0.0449 -0.1056 -0.0701 -0.169 -0.0701" stroke-width="1"></path>
  <path stroke="#191919" d="M15.5858 12c-0.0634 0 -0.1242 -0.0252 -0.1691 -0.0701 -0.0448 -0.0448 -0.07 -0.1056 -0.07 -0.169 0 -0.0635 0.0252 -0.1243 0.07 -0.1691 0.0449 -0.0449 0.1057 -0.0701 0.1691 -0.0701" stroke-width="1"></path>
  <path stroke="#191919" d="M15.5859 12c0.0635 0 0.1243 -0.0252 0.1691 -0.0701 0.0449 -0.0448 0.0701 -0.1056 0.0701 -0.169 0 -0.0635 -0.0252 -0.1243 -0.0701 -0.1691 -0.0448 -0.0449 -0.1056 -0.0701 -0.1691 -0.0701" stroke-width="1"></path>
</svg>