<svg xmlns="http://www.w3.org/2000/svg" fill="none" viewBox="0 0 24 24" id="Squarespace-Logo--Streamline-Ultimate">
  <desc>
    Squarespace Logo Streamline Icon: https://streamlinehq.com
  </desc>
  <path stroke="#191919" stroke-linecap="round" stroke-linejoin="round" d="M14.9423 6.47489 7.07649 14.3427c-0.33063 0.3305 -0.72311 0.5926 -1.15505 0.7715 -0.43193 0.1788 -0.89485 0.2708 -1.36234 0.2707 -0.46748 -0.0001 -0.93037 -0.0923 -1.36223 -0.2713s-0.82424 -0.4413 -1.15473 -0.7719c-0.33049 -0.3306 -0.59263 -0.7231 -0.77144 -1.155 -0.17881 -0.432 -0.270794 -0.8949 -0.2707 -1.3624 0.00009 -0.4675 0.09227 -0.9304 0.27125 -1.3622 0.17899 -0.4319 0.44128 -0.82426 0.77191 -1.15475l5.75238 -5.75238c0.66753 -0.66733 1.57277 -1.04221 2.51666 -1.04221 0.9439 0 1.8491 0.37488 2.5167 1.04221l0.2288 0.22883" stroke-width="1"></path>
  <path stroke="#191919" stroke-linecap="round" stroke-linejoin="round" d="M4.36816 12.0666 11.8637 4.572c0.6676 -0.66733 1.5728 -1.04221 2.5167 -1.04221 0.9439 0 1.8492 0.37488 2.5167 1.04221" stroke-width="1"></path>
  <path stroke="#191919" stroke-linecap="round" stroke-linejoin="round" d="m9.021 17.5576 7.9014 -7.90037c0.6674 -0.66773 1.5728 -1.04296 2.5169 -1.04316 0.9442 -0.00019 1.8497 0.37468 2.5174 1.04214 0.6678 0.66749 1.043 1.57289 1.0432 2.51699 0.0002 0.9441 -0.3747 1.8496 -1.0422 2.5174l-5.7544 5.7544c-0.6675 0.6673 -1.5727 1.0422 -2.5166 1.0422s-1.8492 -0.3749 -2.5167 -1.0422l-0.2298 -0.2309" stroke-width="1"></path>
  <path stroke="#191919" stroke-linecap="round" stroke-linejoin="round" d="m19.5679 11.9944 -7.4325 7.4335c-0.6675 0.6674 -1.5728 1.0422 -2.51668 1.0422 -0.94389 0 -1.84914 -0.3748 -2.51667 -1.0422" stroke-width="1"></path>
</svg>