<svg xmlns="http://www.w3.org/2000/svg" fill="none" viewBox="0 0 48 48" id="Smartphone-Forbiden--Streamline-Kameleon">
  <desc>
    Smartphone Forbiden Streamline Icon: https://streamlinehq.com
  </desc>
  <path fill="#25b7d3" d="M24 47.9977c13.2549 0 24 -10.7446 24 -23.9988C48 10.7446 37.2549 0 24 0S0 10.7446 0 23.9989c0 13.2542 10.7451 23.9988 24 23.9988Z" stroke-width="1"></path>
  <path fill="#ffffff" d="M30.982 35.3435c0 1.4461 -1.172 2.6181 -2.6181 2.6181H17.8911c-1.4461 0 -2.6182 -1.172 -2.6182 -2.6181V12.6537c0 -1.446 1.1721 -2.6181 2.6182 -2.6181h10.4728c1.4461 0 2.6181 1.1721 2.6181 2.6181v22.6898Z" stroke-width="1"></path>
  <path fill="#3e3e3f" d="M30.1091 15.272H16.1455v17.4537h13.9636V15.272Z" stroke-width="1"></path>
  <path fill="#5b5c5f" d="M16.1455 32.7257V15.272h13.9636L16.1455 32.7257Z" stroke-width="1"></path>
  <path fill="#cfd3d4" d="M20.0731 13.5283c0.2412 0 0.4368 -0.1957 0.4368 -0.437 0 -0.2414 -0.1956 -0.437 -0.4368 -0.437 -0.2413 0 -0.4369 0.1956 -0.4369 0.437 0 0.2413 0.1956 0.437 0.4369 0.437Z" stroke-width="1"></path>
  <path fill="#cfd3d4" d="M26.6182 13.0906c0 0.2409 -0.1955 0.4364 -0.4364 0.4364h-4.3636c-0.2409 0 -0.4364 -0.1955 -0.4364 -0.4364 0 -0.2408 0.1955 -0.4363 0.4364 -0.4363h4.3636c0.2409 0 0.4364 0.1955 0.4364 0.4363Z" stroke-width="1"></path>
  <path fill="#cfd3d4" d="M23.1271 37.0885c0.9639 0 1.7453 -0.7813 1.7453 -1.7452 0 -0.9638 -0.7814 -1.7452 -1.7453 -1.7452 -0.9639 0 -1.7453 0.7814 -1.7453 1.7452 0 0.9639 0.7814 1.7452 1.7453 1.7452Z" stroke-width="1"></path>
  <path fill="#ffffff" d="M24.0002 34.4712h-1.7458v1.7457h1.7458v-1.7457Z" stroke-width="1"></path>
  <path fill="#fa5655" d="M13.5798 35.2978c-0.5114 0.5114 -1.3401 0.5114 -1.8515 0 -0.5114 -0.5114 -0.5114 -1.34 0 -1.8514L33.049 12.1267c0.5114 -0.5114 1.3401 -0.5114 1.8515 0 0.5114 0.5114 0.5114 1.34 0 1.8514L13.5798 35.2978Z" stroke-width="1"></path>
</svg>