<svg xmlns="http://www.w3.org/2000/svg" fill="none" viewBox="0 0 24 24" stroke-width="1.5" id="Chicken-Grilled-Stream--Streamline-Sharp">
  <desc>
    Chicken Grilled Stream Streamline Icon: https://streamlinehq.com
  </desc>
  <g id="chicken-grilled-stream">
    <g id="Group 176610">
      <path id="Union" fill="#d7e0ff" fill-rule="evenodd" d="M11.926 11.304c1.424-1.431 3.518-1.776 4.96-.72 1.129.826 1.562 2.289 1.252 3.743l.016.01a3.707 3.707 0 0 1 3.707 3.707l0 3.347-19.988 0 0-2.087a8 8 0 0 1 8-8h2.053Z" clip-rule="evenodd"></path>
      <path id="Ellipse 1455" fill="#ffffff" transform="rotate(-6.126 20.023 6.876)" d="M18.112 6.876a1.911 1.911 0 1 0 3.822 0 1.911 1.911 0 1 0-3.822 0"></path>
      <path id="Ellipse 1457" stroke="#4147d5" stroke-linecap="square" d="M18.123 7.08a1.911 1.911 0 1 0 3.8-.408 1.911 1.911 0 1 0-3.8.408"></path>
      <path id="Ellipse 1456" stroke="#4147d5" d="M18.154 14.337a3.707 3.707 0 0 1 3.707 3.707l0 3.348-19.988 0 0-2.088a8 8 0 0 1 8-8h1.957"></path>
      <path id="Ellipse 1453" stroke="#4147d5" stroke-linecap="square" d="m10.198 13.496 1.235-1.615c1.392-1.902 3.833-2.482 5.454-1.296 1.62 1.185 1.806 3.688.415 5.59l-1.097 1.558"></path>
      <path id="Vector" stroke="#4147d5" stroke-linecap="square" d="m18.848 8.355-1.756 2.298"></path>
      <path id="Ellipse 593" stroke="#4147d5" d="M6.161 6.608a2 2 0 1 1 0-4"></path>
      <path id="Ellipse 594" stroke="#4147d5" d="M10.425 6.608a2 2 0 0 1 0-4"></path>
    </g>
  </g>
</svg>