<svg xmlns="http://www.w3.org/2000/svg" fill="none" viewBox="0 0 14 14" id="Contact-Phonebook-2--Streamline-Core-Gradient">
  <desc>
    Contact Phonebook 2 Streamline Icon: https://streamlinehq.com
  </desc>
  <g id="Free Gradient/Phone/contact-phonebook-2">
    <path id="Subtract" fill="url(#paint0_linear_14402_15818)" fill-rule="evenodd" d="M3.25 6.32e-8h8c.4641 0 .9092.1843749368 1.2374.5125629368C12.8156.840752 13 1.28587 13 1.75V9c0 .6981-.4088 1.3007-1 1.5816V12.5h.25c.4142 0 .75.3358.75.75s-.3358.75-.75.75H3.375C2.06332 14 1 12.9367 1 11.625c0-.0812.00407-.1614.01203-.2405C1.00413 11.3409 1 11.2959 1 11.25V2.21l.00027-.02c.01564-.58628.25958-1.14328.67985-1.552343C2.10033.228653 2.66361-.000138808 3.25 6.32e-8ZM3.375 10.75H10.5v1.75H3.375c-.48325 0-.875-.3918-.875-.875s.39175-.875.875-.875Zm5.18259-2.67495c-.35184.08295-.72096.05176-1.05389-.08907-1.3452-.80667-2.4709-1.93237-3.27757-3.27756-.13958-.33314-.17011-.70191-.08722-1.05346.08288-.35155.27494-.66784.54863-.90354l.24661-.24661c.0861-.10728.21034-.17712.34675-.19491.1364-.01779.2744.01784.38513.09945l.79553.79552c.08161.11074.11724.24874.09945.38514s-.08763.26065-.19491.34675c-.10728.0861-.17712.21034-.19491.34674s.01784.2744.09944.38514l1.27285 1.27284c.11073.08161.24873.11724.38514.09945.1364-.01779.26064-.08763.34674-.19491.0861-.10728.21034-.17712.34674-.19491.13641-.01779.27441.01784.38514.09944l.79553.79553c.0816.11074.11724.24874.09945.38514-.0178.1364-.08763.26064-.19491.34674l-.24662.24662c-.23495.27472-.55126.46751-.9031.55047Z" clip-rule="evenodd"></path>
  </g>
  <defs>
    <linearGradient id="paint0_linear_14402_15818" x1="1.461" x2="16.073" y1="1.131" y2="8.19" gradientUnits="userSpaceOnUse">
      <stop stop-color="#00d078"></stop>
      <stop offset="1" stop-color="#007df0"></stop>
    </linearGradient>
  </defs>
</svg>