<svg xmlns="http://www.w3.org/2000/svg" fill="none" viewBox="0 0 14 14" id="Missed-Call--Streamline-Core-Gradient">
  <desc>
    Missed Call Streamline Icon: https://streamlinehq.com
  </desc>
  <g id="Free Gradient/Phone/missed-call--android-phone-mobile-device-smartphone-iphone-missed-call">
    <path id="Union" fill="url(#paint0_linear_14402_15745)" fill-rule="evenodd" d="M7.4646 0H4.76783c-.20223 0-.38455.121822-.46194.308659-.07739.186837-.03461.401896.10839.544895l.8434.843406-1.97263 2.03321c-.09821.10122-.26066.10122-.35886 0L1.2883 2.04196C.999871 1.74467.525051 1.73749.227762 2.02592c-.2972906.28843-.3044737.76325-.016044 1.06054l1.637892 1.6882c.68744.70856 1.82457.70857 2.51201.00001l1.95684-2.01693.79259.79258c.143.143.35805.18578.54489.10839s.30866-.25971.30866-.46194V.5c0-.276142-.22386-.5-.5-.5ZM4.8839 13.9849c.64099.0685 1.28611-.0845 1.82811-.4335 2.70663-1.8231 5.03549-4.152 6.85859-6.85862.3425-.54771.4867-1.19629.4087-1.83751-.078-.64122-.3735-1.23629-.8373-1.6859l-.3973-.3973c-.1782-.17622-.4186-.27506-.6692-.27506-.2505 0-.491.09884-.6691.27506L9.7963 4.4449c-.17557.17635-.27415.41506-.27415.66391 0 .24885.09858.48756.27415.66391.17622.17812.2751.41857.2751.66913s-.09888.49101-.2751.66913L7.13022 9.77707c-.17812.17622-.41857.27503-.66913.27503-.25057 0-.49101-.09881-.66914-.27503-.17634-.17558-.41506-.27415-.6639-.27415-.24885 0-.48756.09857-.66391.27415L2.79131 11.4394c-.17622.1782-.27507.4186-.27507.6692 0 .2505.09885.491.27507.6691l.39729.3973c.45605.4556 1.0543.7414 1.6953.8099Z" clip-rule="evenodd"></path>
  </g>
  <defs>
    <linearGradient id="paint0_linear_14402_15745" x1=".012" x2="8.953" y1="2.232" y2="16.502" gradientUnits="userSpaceOnUse">
      <stop stop-color="#00d078"></stop>
      <stop offset="1" stop-color="#007df0"></stop>
    </linearGradient>
  </defs>
</svg>