<svg xmlns="http://www.w3.org/2000/svg" fill="none" viewBox="0 0 14 14" id="Outgoing-Call--Streamline-Core-Gradient">
  <desc>
    Outgoing Call Streamline Icon: https://streamlinehq.com
  </desc>
  <g id="Free Gradient/Phone/outgoing-call--android-phone-mobile-device-smartphone-iphone-ringing-outgoing-call">
    <path id="Union" fill="url(#paint0_linear_14402_15812)" fill-rule="evenodd" d="M4 0c.20223 0 .38455.121821.46194.308658.07739.186837.03461.401896-.10839.544895L3.31066 1.89645l2.39645 2.39644c.39052.39053.39052 1.02369 0 1.41422-.39053.39052-1.02369.39052-1.41422 0L1.89645 3.31066.853554 4.35355c-.143.143-.358058.18578-.544895.10839C.121821 4.38455 3e-10 4.20223 3e-10 4V.5C3e-10 .223858.223858 0 .5 0H4Zm.8839 13.9849c.64099.0685 1.28611-.0845 1.82811-.4335 2.70663-1.8231 5.03549-4.152 6.85859-6.85862.3425-.54771.4867-1.19629.4087-1.83751-.078-.64122-.3735-1.23629-.8373-1.6859l-.3973-.3973c-.1782-.17622-.4186-.27506-.6692-.27506-.2505 0-.491.09884-.6691.27506L9.7963 4.4449c-.17557.17635-.27415.41506-.27415.66391 0 .24885.09858.48756.27415.66391.17622.17812.2751.41857.2751.66913s-.09888.49101-.2751.66913L7.13022 9.77707c-.17812.17622-.41857.27503-.66913.27503-.25057 0-.49101-.09881-.66914-.27503-.17634-.17558-.41506-.27415-.6639-.27415-.24885 0-.48756.09857-.66391.27415L2.79131 11.4394c-.17622.1782-.27507.4186-.27507.6692 0 .2505.09885.491.27507.6691l.39729.3973c.45605.4556 1.0543.7414 1.6953.8099Z" clip-rule="evenodd"></path>
  </g>
  <defs>
    <linearGradient id="paint0_linear_14402_15812" x1="2.221" x2="8.486" y1="2.625" y2="13.933" gradientUnits="userSpaceOnUse">
      <stop stop-color="#ffd600"></stop>
      <stop offset="1" stop-color="#00d078"></stop>
    </linearGradient>
  </defs>
</svg>