<svg xmlns="http://www.w3.org/2000/svg" fill="none" viewBox="0 0 14 14" id="Shipping-Box-2--Streamline-Flex-Neon">
  <desc>
    Shipping Box 2 Streamline Icon: https://streamlinehq.com
  </desc>
  <g id="shipping-box-2--box-package-label-delivery-shipment-shipping-3d">
    <path id="Subtract" stroke="#000cfe" stroke-linecap="round" stroke-linejoin="round" d="M1.25403 5.28081c0.26067 -0.89898 0.6706 -1.73047 1.06956 -2.53973 0.19683 -0.39924 0.39099 -0.79307 0.56324 -1.18693 0.15492 -0.35421 0.48595 -0.609386 0.87485 -0.643767C4.83454 0.815537 5.72084 0.75 6.99991 0.75c1.26741 0 2.14919 0.064348 3.20899 0.157799 0.4038 0.035607 0.7427 0.309491 0.8947 0.680921 0.1917 0.46854 0.4168 0.92074 0.6465 1.3822 0.3561 0.71523 0.7232 1.4527 0.9942 2.30767" stroke-width="1"></path>
    <path id="Vector" stroke="#000cfe" stroke-linecap="round" stroke-linejoin="round" d="m6.99988 4.51245 0 -3.762283" stroke-width="1"></path>
    <path id="Intersect" stroke="#c71dff" stroke-linecap="round" stroke-linejoin="round" d="M1.10671 12.0912c0.07459 0.4715 0.4674 0.8349 0.94885 0.8717 1.58141 0.1208 3.23797 0.287 4.94442 0.287 1.70645 0 3.36302 -0.1662 4.94442 -0.287 0.4814 -0.0368 0.8743 -0.4002 0.9488 -0.8717 0.1631 -1.0306 0.3568 -2.10535 0.3568 -3.21008 0 -1.10472 -0.1937 -2.17945 -0.3568 -3.21005 -0.0745 -0.4715 -0.4674 -0.83496 -0.9488 -0.87173 -1.5814 -0.12075 -3.23797 -0.28701 -4.94442 -0.28701 -1.70645 0 -3.36301 0.16626 -4.94442 0.28701 -0.48145 0.03677 -0.87426 0.40023 -0.94885 0.87173C0.943679 6.70167 0.75 7.7764 0.75 8.88112c0 1.10473 0.193679 2.17948 0.35671 3.21008Z" stroke-width="1"></path>
    <path id="Vector_2" stroke="#c71dff" stroke-linecap="round" stroke-linejoin="round" d="M8.69263 10.5746h2.02077" stroke-width="1"></path>
  </g>
</svg>