<svg xmlns="http://www.w3.org/2000/svg" fill="none" viewBox="0 0 24 24" id="Google-Hangouts-Logo--Streamline-Logos-Block">
  <desc>
    Google Hangouts Logo Streamline Icon: https://streamlinehq.com
  </desc>
  <path fill="#000000" fill-rule="evenodd" d="M5 1a4 4 0 0 0 -4 4v14a4 4 0 0 0 4 4h14a4 4 0 0 0 4 -4V5a4 4 0 0 0 -4 -4H5Zm7 16.714a6.857 6.857 0 1 1 6.857 -6.857c0 4.876 -4.571 8.127 -6.857 9.143v-2.286Zm-2.182 -6.441h-1.09V8.727h2.545v2.91c0 0.803 -0.652 1.454 -1.455 1.454v-1.818Zm2.91 0h1.09v1.818c0.803 0 1.455 -0.651 1.455 -1.455V8.727h-2.546v2.546Z" clip-rule="evenodd" stroke-width="1"></path>
</svg>