<svg xmlns="http://www.w3.org/2000/svg" fill="none" viewBox="0 0 24 24" id="Google-Hangouts-Meet-Logo--Streamline-Logos-Block">
  <desc>
    Google Hangouts Meet Logo Streamline Icon: https://streamlinehq.com
  </desc>
  <path fill="#000000" fill-rule="evenodd" d="M5 1a4 4 0 0 0 -4 4v14a4 4 0 0 0 4 4h14a4 4 0 0 0 4 -4V5a4 4 0 0 0 -4 -4H5Zm0.143 9.857A6.857 6.857 0 0 0 12 17.714V20c2.286 -1.016 6.857 -4.267 6.857 -9.143a6.857 6.857 0 0 0 -13.714 0Zm3.22 1.87V9.091c0 -0.402 0.326 -0.727 0.728 -0.727h4.364c0.401 0 0.727 0.325 0.727 0.727v1.09L16 8.728v4.364l-1.818 -1.455v1.091a0.727 0.727 0 0 1 -0.727 0.727H9.09a0.727 0.727 0 0 1 -0.727 -0.727Z" clip-rule="evenodd" stroke-width="1"></path>
</svg>