<svg xmlns="http://www.w3.org/2000/svg" fill="none" viewBox="0 0 24 24" id="Imessage-Logo--Streamline-Logos-Block">
  <desc>
    Imessage Logo Streamline Icon: https://streamlinehq.com
  </desc>
  <path fill="#000000" fill-rule="evenodd" d="M5 1a4 4 0 0 0 -4 4v14a4 4 0 0 0 4 4h14a4 4 0 0 0 4 -4V5a4 4 0 0 0 -4 -4H5Zm1.653 17.387 0.002 -0.002 0.008 -0.007 0.032 -0.032a5.243 5.243 0 0 0 0.494 -0.575c0.236 -0.32 0.435 -0.675 0.494 -0.997 -1.91 -1.163 -3.183 -3.092 -3.183 -5.298C4.5 7.852 7.91 5 12 5s7.5 2.853 7.5 6.477c0 3.625 -3.41 6.478 -7.5 6.478 -0.572 0 -1.13 -0.056 -1.666 -0.16 -0.405 0.575 -1.044 0.884 -1.651 1.044a5.308 5.308 0 0 1 -1.835 0.136l-0.734 -0.082 0.54 -0.505Z" clip-rule="evenodd" stroke-width="1"></path>
</svg>