<svg xmlns="http://www.w3.org/2000/svg" fill="none" viewBox="0 0 24 24" id="Kik-Logo-1--Streamline-Logos-Block">
  <desc>
    Kik Logo 1 Streamline Icon: https://streamlinehq.com
  </desc>
  <path fill="#000000" fill-rule="evenodd" d="M5 1a4 4 0 0 0 -4 4v14a4 4 0 0 0 4 4h14a4 4 0 0 0 4 -4V5a4 4 0 0 0 -4 -4H5Zm1.875 3.5c0.753 0 1.364 0.61 1.364 1.364v6.805l3.782 -3.993a1.364 1.364 0 1 1 1.98 1.875l-2.647 2.795 2.779 4.014a1.364 1.364 0 1 1 -2.243 1.552L9.437 15.37 8.24 16.634v1.502a1.364 1.364 0 0 1 -2.728 0V5.864c0 -0.753 0.611 -1.364 1.364 -1.364Zm12.614 9.204a2.045 2.045 0 1 1 -4.091 0 2.045 2.045 0 0 1 4.09 0Z" clip-rule="evenodd" stroke-width="1"></path>
</svg>