<svg xmlns="http://www.w3.org/2000/svg" fill="none" viewBox="0 0 24 24" id="Telegram-Logo-2--Streamline-Logos-Block">
  <desc>
    Telegram Logo 2 Streamline Icon: https://streamlinehq.com
  </desc>
  <path fill="#000000" fill-rule="evenodd" d="M5 1a4 4 0 0 0 -4 4v14a4 4 0 0 0 4 4h14a4 4 0 0 0 4 -4V5a4 4 0 0 0 -4 -4H5Zm15 11a8 8 0 1 1 -16 0 8 8 0 0 1 16 0Zm-13.468 -0.236c0 -0.074 0.049 -0.145 0.118 -0.17l8.963 -3.417a0.185 0.185 0 0 1 0.185 0.034c0.05 0.043 0.072 0.114 0.057 0.179l-1.788 7.518a0.184 0.184 0 0 1 -0.114 0.129 0.184 0.184 0 0 1 -0.17 -0.023l-3.375 -2.718 3.012 -2.702a0.112 0.112 0 0 0 0.017 -0.142 0.112 0.112 0 0 0 -0.139 -0.036l-4.475 2.311 -2.173 -0.793a0.185 0.185 0 0 1 -0.118 -0.17Z" clip-rule="evenodd" stroke-width="1"></path>
</svg>