<svg xmlns="http://www.w3.org/2000/svg" fill="none" viewBox="0 0 24 24" id="Zoom-Logo-1--Streamline-Logos-Block">
  <desc>
    Zoom Logo 1 Streamline Icon: https://streamlinehq.com
  </desc>
  <path fill="#000000" fill-rule="evenodd" d="M5 1a4 4 0 0 0 -4 4v14a4 4 0 0 0 4 4h14a4 4 0 0 0 4 -4V5a4 4 0 0 0 -4 -4H5Zm-0.5 7.761c0 -0.565 0.458 -1.022 1.023 -1.022h7.5a2.386 2.386 0 0 1 2.386 2.386v5.114c0 0.564 -0.458 1.022 -1.023 1.022h-7.5A2.386 2.386 0 0 1 4.5 13.875V8.76Zm14.182 -0.75a0.511 0.511 0 0 1 0.818 0.41v7.158a0.511 0.511 0 0 1 -0.818 0.41L16.5 14.351a1.023 1.023 0 0 1 -0.41 -0.818v-3.068c0 -0.322 0.152 -0.625 0.41 -0.818l2.182 -1.637Z" clip-rule="evenodd" stroke-width="1"></path>
</svg>