<svg xmlns="http://www.w3.org/2000/svg" fill="none" viewBox="0 0 14 14" id="Bag-Dollar--Streamline-Core">
  <desc>
    Bag Dollar Streamline Icon: https://streamlinehq.com
  </desc>
  <g id="bag-dollar--bag-payment-cash-money-finance">
    <path id="Vector" fill="#d7e0ff" d="M7 13.5c3.5 0 6 -1.238 6 -3.994 0 -2.995 -1.5 -4.992 -4.5 -6.49l1.18 -1.518A0.658 0.658 0 0 0 9.12 0.5H4.88a0.66 0.66 0 0 0 -0.56 0.998L5.5 3.026C2.5 4.534 1 6.531 1 9.526 1 12.262 3.5 13.5 7 13.5Z" stroke-width="1"></path>
    <path id="Vector_2" stroke="#4147d5" stroke-linecap="round" stroke-linejoin="round" d="M7 13.5c3.5 0 6 -1.238 6 -3.994 0 -2.995 -1.5 -4.992 -4.5 -6.49l1.18 -1.518A0.658 0.658 0 0 0 9.12 0.5H4.88a0.66 0.66 0 0 0 -0.56 0.998L5.5 3.026C2.5 4.534 1 6.531 1 9.526 1 12.262 3.5 13.5 7 13.5Z" stroke-width="1"></path>
    <path id="Vector 3" stroke="#4147d5" stroke-linecap="round" stroke-linejoin="round" d="M8.383 6.806a1.083 1.083 0 0 0 -1.022 -0.723h-0.838a0.967 0.967 0 0 0 -0.207 1.912l1.277 0.28a1.084 1.084 0 0 1 -0.232 2.142H6.64c-0.472 0 -0.873 -0.302 -1.022 -0.723" stroke-width="1"></path>
    <path id="Vector 2489" stroke="#4147d5" stroke-linecap="round" stroke-linejoin="round" d="M7 6.083V5" stroke-width="1"></path>
    <path id="Vector 2490" stroke="#4147d5" stroke-linecap="round" stroke-linejoin="round" d="M7 11.5v-1.083" stroke-width="1"></path>
  </g>
</svg>