<svg xmlns="http://www.w3.org/2000/svg" fill="none" viewBox="0 0 14 14" id="Bill-4--Streamline-Core">
  <desc>
    Bill 4 Streamline Icon: https://streamlinehq.com
  </desc>
  <g id="bill-4--accounting-billing-payment-finance-cash-currency-money-bill-dollar-stack">
    <path id="Vector" fill="#d7e0ff" d="M10 1.75H1.5c-0.552285 0 -1 0.44772 -1 1v6c0 0.55228 0.447715 1 1 1H10c0.5523 0 1 -0.44772 1 -1v-6c0 -0.55228 -0.4477 -1 -1 -1Z" stroke-width="1"></path>
    <path id="Vector_2" stroke="#4147d5" stroke-linecap="round" stroke-linejoin="round" d="M10 1.75H1.5c-0.552285 0 -1 0.44772 -1 1v6c0 0.55228 0.447715 1 1 1H10c0.5523 0 1 -0.44772 1 -1v-6c0 -0.55228 -0.4477 -1 -1 -1Z" stroke-width="1"></path>
    <path id="Vector_3" stroke="#4147d5" stroke-linecap="round" stroke-linejoin="round" d="M3.5 12.25h9c0.2652 0 0.5196 -0.1054 0.7071 -0.2929s0.2929 -0.4419 0.2929 -0.7071v-5" stroke-width="1"></path>
    <g id="Group 8">
      <path id="Ellipse 1" stroke="#4147d5" stroke-linecap="round" stroke-linejoin="round" d="M2.5249 6c-0.13807 0 -0.25 -0.11193 -0.25 -0.25s0.11193 -0.25 0.25 -0.25" stroke-width="1"></path>
      <path id="Ellipse 2" stroke="#4147d5" stroke-linecap="round" stroke-linejoin="round" d="M2.52495 6c0.13807 0 0.25 -0.11193 0.25 -0.25s-0.11193 -0.25 -0.25 -0.25" stroke-width="1"></path>
    </g>
    <g id="Group 9">
      <path id="Ellipse 1_2" stroke="#4147d5" stroke-linecap="round" stroke-linejoin="round" d="M8.9751 6c-0.13807 0 -0.25 -0.11193 -0.25 -0.25s0.11193 -0.25 0.25 -0.25" stroke-width="1"></path>
      <path id="Ellipse 2_2" stroke="#4147d5" stroke-linecap="round" stroke-linejoin="round" d="M8.97514 6c0.13807 0 0.25 -0.11193 0.25 -0.25s-0.11193 -0.25 -0.25 -0.25" stroke-width="1"></path>
    </g>
    <path id="Vector_4" fill="#ffffff" d="M5.75 7C6.44036 7 7 6.44036 7 5.75S6.44036 4.5 5.75 4.5 4.5 5.05964 4.5 5.75 5.05964 7 5.75 7Z" stroke-width="1"></path>
    <path id="Vector_5" stroke="#4147d5" stroke-linecap="round" stroke-linejoin="round" d="M5.75 7C6.44036 7 7 6.44036 7 5.75S6.44036 4.5 5.75 4.5 4.5 5.05964 4.5 5.75 5.05964 7 5.75 7Z" stroke-width="1"></path>
  </g>
</svg>