<svg xmlns="http://www.w3.org/2000/svg" fill="none" viewBox="0 0 14 14" id="Bill-1--Streamline-Core">
  <desc>
    Bill 1 Streamline Icon: https://streamlinehq.com
  </desc>
  <g id="bill-1--billing-bills-payment-finance-cash-currency-money-accounting">
    <path id="Vector" fill="#ffffff" d="M7 6c0.82843 0 1.5 -0.67157 1.5 -1.5S7.82843 3 7 3s-1.5 0.67157 -1.5 1.5S6.17157 6 7 6Z" stroke-width="1"></path>
    <path id="Subtract" fill="#d7e0ff" fill-rule="evenodd" d="M12.5 0.5h-11c-0.552285 0 -1 0.447715 -1 1v6c0 0.55228 0.447715 1 1 1h11c0.5523 0 1 -0.44772 1 -1v-6c0 -0.552285 -0.4477 -1 -1 -1Zm-7 4C5.5 5.32843 6.17157 6 7 6s1.5 -0.67157 1.5 -1.5S7.82843 3 7 3s-1.5 0.67157 -1.5 1.5Z" clip-rule="evenodd" stroke-width="1"></path>
    <path id="Vector_2" stroke="#4147d5" stroke-linecap="round" stroke-linejoin="round" d="M7 6c0.82843 0 1.5 -0.67157 1.5 -1.5S7.82843 3 7 3s-1.5 0.67157 -1.5 1.5S6.17157 6 7 6Z" stroke-width="1"></path>
    <path id="Vector_3" stroke="#4147d5" stroke-linecap="round" stroke-linejoin="round" d="M1.5 0.5h11c0.5523 0 1 0.447715 1 1v6c0 0.55228 -0.4477 1 -1 1h-11c-0.552285 0 -1 -0.44772 -1 -1v-6c0 -0.552285 0.447715 -1 1 -1Z" stroke-width="1"></path>
    <path id="Vector_4" stroke="#4147d5" stroke-linecap="round" stroke-linejoin="round" d="M12.5 11h-11" stroke-width="1"></path>
    <path id="Vector_5" stroke="#4147d5" stroke-linecap="round" stroke-linejoin="round" d="M11.5 13.5h-9" stroke-width="1"></path>
    <g id="Group 8">
      <path id="Ellipse 1" stroke="#4147d5" stroke-linecap="round" stroke-linejoin="round" d="M2.7749 4.75c-0.13807 0 -0.25 -0.11193 -0.25 -0.25s0.11193 -0.25 0.25 -0.25" stroke-width="1"></path>
      <path id="Ellipse 2" stroke="#4147d5" stroke-linecap="round" stroke-linejoin="round" d="M2.77495 4.75c0.13807 0 0.25 -0.11193 0.25 -0.25s-0.11193 -0.25 -0.25 -0.25" stroke-width="1"></path>
    </g>
    <g id="Group 9">
      <path id="Ellipse 1_2" stroke="#4147d5" stroke-linecap="round" stroke-linejoin="round" d="M11.2251 4.75c-0.1381 0 -0.25 -0.11193 -0.25 -0.25s0.1119 -0.25 0.25 -0.25" stroke-width="1"></path>
      <path id="Ellipse 2_2" stroke="#4147d5" stroke-linecap="round" stroke-linejoin="round" d="M11.2251 4.75c0.1381 0 0.25 -0.11193 0.25 -0.25s-0.1119 -0.25 -0.25 -0.25" stroke-width="1"></path>
    </g>
  </g>
</svg>