<svg xmlns="http://www.w3.org/2000/svg" fill="none" viewBox="0 0 14 14" id="Bill-Cashless--Streamline-Core">
  <desc>
    Bill Cashless Streamline Icon: https://streamlinehq.com
  </desc>
  <g id="bill-cashless--currency-billing-payment-finance-no-cash-bill-money-accounting-cashless">
    <path id="Vector" fill="#d7e0ff" d="M12.5 2.5h-11a1 1 0 0 0 -1 1v7a1 1 0 0 0 1 1h11a1 1 0 0 0 1 -1v-7a1 1 0 0 0 -1 -1Z" stroke-width="1"></path>
    <path id="Vector_2" fill="#ffffff" d="M7 9a2 2 0 1 0 0 -4 2 2 0 0 0 0 4Z" stroke-width="1"></path>
    <path id="Vector_3" stroke="#4147d5" stroke-linecap="round" stroke-linejoin="round" d="M2.5 2.5h10a1 1 0 0 1 1 1v7a1 1 0 0 1 -1 1h-1" stroke-width="1"></path>
    <path id="Vector_4" stroke="#4147d5" stroke-linecap="round" stroke-linejoin="round" d="M0.5 3.5v7a1 1 0 0 0 1 1H9" stroke-width="1"></path>
    <path id="Vector_5" stroke="#4147d5" stroke-linecap="round" stroke-linejoin="round" d="M5.586 5.586a2 2 0 1 1 2.828 2.828" stroke-width="1"></path>
    <path id="Vector_6" stroke="#4147d5" stroke-linecap="round" stroke-linejoin="round" d="M5.022 7.296a2.001 2.001 0 0 0 1.745 1.69" stroke-width="1"></path>
    <path id="Vector_7" stroke="#4147d5" stroke-linecap="round" stroke-linejoin="round" d="M13.5 13.5 0.5 0.5" stroke-width="1"></path>
  </g>
</svg>