<svg xmlns="http://www.w3.org/2000/svg" fill="none" viewBox="0 0 14 14" id="Binance-Circle--Streamline-Core">
  <desc>
    Binance Circle Streamline Icon: https://streamlinehq.com
  </desc>
  <g id="binance-circle--crypto-circle-payment-blockchain-finance-binance-currency">
    <path id="Vector" fill="#d7e0ff" d="M7 13.5c3.5899 0 6.5 -2.9101 6.5 -6.5C13.5 3.41015 10.5899 0.5 7 0.5 3.41015 0.5 0.5 3.41015 0.5 7c0 3.5899 2.91015 6.5 6.5 6.5Z" stroke-width="1"></path>
    <path id="Vector_2" stroke="#4147d5" stroke-linecap="round" stroke-linejoin="round" d="M7 13.5c3.5899 0 6.5 -2.9101 6.5 -6.5C13.5 3.41015 10.5899 0.5 7 0.5 3.41015 0.5 0.5 3.41015 0.5 7c0 3.5899 2.91015 6.5 6.5 6.5Z" stroke-width="1"></path>
    <path id="Vector_3" stroke="#4147d5" stroke-linecap="round" stroke-linejoin="round" d="M4.5 5 7 3l2.5 2" stroke-width="1"></path>
    <path id="Vector_4" stroke="#4147d5" stroke-linecap="round" stroke-linejoin="round" d="M4.5 9 7 11l2.5 -2" stroke-width="1"></path>
    <g id="Group 4527">
      <path id="Ellipse 1090" stroke="#4147d5" stroke-linecap="round" stroke-linejoin="round" d="M7 7.25c-0.13807 0 -0.25 -0.11193 -0.25 -0.25s0.11193 -0.25 0.25 -0.25" stroke-width="1"></path>
      <path id="Ellipse 1091" stroke="#4147d5" stroke-linecap="round" stroke-linejoin="round" d="M7 7.25c0.13807 0 0.25 -0.11193 0.25 -0.25s-0.11193 -0.25 -0.25 -0.25" stroke-width="1"></path>
    </g>
    <g id="Group 4531">
      <path id="Ellipse 1090_2" stroke="#4147d5" stroke-linecap="round" stroke-linejoin="round" d="M3.8 7.25c-0.13807 0 -0.25 -0.11193 -0.25 -0.25s0.11193 -0.25 0.25 -0.25" stroke-width="1"></path>
      <path id="Ellipse 1091_2" stroke="#4147d5" stroke-linecap="round" stroke-linejoin="round" d="M3.8 7.25c0.13807 0 0.25 -0.11193 0.25 -0.25s-0.11193 -0.25 -0.25 -0.25" stroke-width="1"></path>
    </g>
    <g id="Group 4532">
      <path id="Ellipse 1090_3" stroke="#4147d5" stroke-linecap="round" stroke-linejoin="round" d="M10.2 7.25c-0.1381 0 -0.25 -0.11193 -0.25 -0.25s0.1119 -0.25 0.25 -0.25" stroke-width="1"></path>
      <path id="Ellipse 1091_3" stroke="#4147d5" stroke-linecap="round" stroke-linejoin="round" d="M10.2 7.25c0.1381 0 0.25 -0.11193 0.25 -0.25s-0.1119 -0.25 -0.25 -0.25" stroke-width="1"></path>
    </g>
  </g>
</svg>