<svg xmlns="http://www.w3.org/2000/svg" fill="none" viewBox="0 0 14 14" id="Coins-Stack--Streamline-Core">
  <desc>
    Coins Stack Streamline Icon: https://streamlinehq.com
  </desc>
  <g id="coins-stack--accounting-billing-payment-stack-cash-coins-currency-money-finance">
    <path id="Subtract" fill="#ffffff" fill-rule="evenodd" d="m5.09 4.508 -0.09 0c-2.485 0 -4.5 -0.895 -4.5 -2 0 -1.104 2.015 -2 4.5 -2s4.5 0.896 4.5 2c0 0.361 -0.214 0.7 -0.59 0.991 -1.637 0.014 -3.06 0.417 -3.82 1.01Z" clip-rule="evenodd" stroke-width="1"></path>
    <path id="Subtract_2" fill="#d7e0ff" d="m5.103 4.508 -0.103 0c-2.485 0 -4.5 -0.895 -4.5 -2v6c0 1.1 2 2 4.5 2s4.5 -0.9 4.5 -2v-1.01c-0.164 0.008 -0.331 0.012 -0.5 0.012 -2.485 0 -4.5 -0.896 -4.5 -2 0 -0.365 0.22 -0.706 0.603 -1Z" stroke-width="1"></path>
    <path id="Vector" stroke="#4147d5" stroke-linecap="round" stroke-linejoin="round" d="M8.9 1.509a6.77 6.77 0 0 0 -3.9 -1c-2.49 0 -4.5 0.9 -4.5 2 0 0.59 0.58 1.12 1.5 1.5" stroke-width="1"></path>
    <path id="Vector_2" stroke="#4147d5" stroke-linecap="round" stroke-linejoin="round" d="M2 10.009c-0.92 -0.38 -1.5 -0.91 -1.5 -1.5v-6" stroke-width="1"></path>
    <path id="Vector_3" stroke="#4147d5" stroke-linecap="round" stroke-linejoin="round" d="M2 7.009c-0.92 -0.38 -1.5 -0.91 -1.5 -1.5" stroke-width="1"></path>
    <path id="Vector_4" fill="#ffffff" d="M9 7.5c2.485 0 4.5 -0.895 4.5 -2s-2.015 -2 -4.5 -2 -4.5 0.895 -4.5 2 2.015 2 4.5 2Z" stroke-width="1"></path>
    <path id="Vector_5" fill="#d7e0ff" d="M9 7.5c2.485 0 4.5 -0.895 4.5 -2v6c0 1.1 -2 2 -4.5 2s-4.5 -0.9 -4.5 -2v-6c0 1.105 2.015 2 4.5 2Z" stroke-width="1"></path>
    <path id="Vector_6" stroke="#4147d5" stroke-linecap="round" stroke-linejoin="round" d="M9 7.5c2.485 0 4.5 -0.895 4.5 -2s-2.015 -2 -4.5 -2 -4.5 0.895 -4.5 2 2.015 2 4.5 2Z" stroke-width="1"></path>
    <path id="Vector_7" stroke="#4147d5" stroke-linecap="round" stroke-linejoin="round" d="M4.5 5.5v6c0 1.1 2 2 4.5 2s4.5 -0.9 4.5 -2v-6" stroke-width="1"></path>
    <path id="Vector_8" stroke="#4147d5" stroke-linecap="round" stroke-linejoin="round" d="M13.5 8.5c0 1.1 -2 2 -4.5 2s-4.5 -0.9 -4.5 -2" stroke-width="1"></path>
  </g>
</svg>