<svg xmlns="http://www.w3.org/2000/svg" fill="none" viewBox="0 0 14 14" id="Credit-Card-2--Streamline-Core">
  <desc>
    Credit Card 2 Streamline Icon: https://streamlinehq.com
  </desc>
  <g id="credit-card-2--deposit-payment-finance-atm-withdraw-atm">
    <path id="Vector" fill="#d7e0ff" stroke="#4147d5" stroke-linecap="round" stroke-linejoin="round" d="M9.75 3h-5.5c-0.27614 0 -0.5 0.22386 -0.5 0.5v9.375c0 0.2761 0.22386 0.5 0.5 0.5h5.5c0.2761 0 0.5 -0.2239 0.5 -0.5V3.5c0 -0.27614 -0.2239 -0.5 -0.5 -0.5Z" stroke-width="1"></path>
    <path id="Vector_2" fill="#ffffff" d="M7 9.4375c0.69036 0 1.25 -0.55964 1.25 -1.25s-0.55964 -1.25 -1.25 -1.25 -1.25 0.55964 -1.25 1.25 0.55964 1.25 1.25 1.25Z" stroke-width="1"></path>
    <path id="Vector_3" stroke="#4147d5" stroke-linecap="round" stroke-linejoin="round" d="M9.75 3h-5.5c-0.27614 0 -0.5 0.22386 -0.5 0.5v9.375c0 0.2761 0.22386 0.5 0.5 0.5h5.5c0.2761 0 0.5 -0.2239 0.5 -0.5V3.5c0 -0.27614 -0.2239 -0.5 -0.5 -0.5Z" stroke-width="1"></path>
    <path id="Vector_4" stroke="#4147d5" stroke-linecap="round" stroke-linejoin="round" d="M7 9.4375c0.69036 0 1.25 -0.55964 1.25 -1.25s-0.55964 -1.25 -1.25 -1.25 -1.25 0.55964 -1.25 1.25 0.55964 1.25 1.25 1.25Z" stroke-width="1"></path>
    <path id="Vector_5" stroke="#4147d5" stroke-linecap="round" stroke-linejoin="round" d="M1.90572 4.58325h-0.8336c-0.131019 0 -0.256667 -0.05268 -0.349309 -0.14644 -0.092641 -0.09377 -0.144686 -0.22095 -0.144686 -0.35356v-3c0 -0.132606 0.052045 -0.259783 0.144686 -0.353551C0.815453 0.63593 0.941101 0.583252 1.07212 0.583252H12.9279c0.131 0 0.2566 0.052678 0.3493 0.146447 0.0926 0.093768 0.1447 0.220945 0.1447 0.353551v3c0 0.13261 -0.0521 0.25979 -0.1447 0.35356 -0.0927 0.09376 -0.2183 0.14644 -0.3493 0.14644h-0.8336" stroke-width="1"></path>
    <g id="Group 8">
      <path id="Ellipse 1" stroke="#4147d5" stroke-linecap="round" stroke-linejoin="round" d="M7 5.20996c-0.06904 0 -0.125 -0.05596 -0.125 -0.125 0 -0.06903 0.05596 -0.125 0.125 -0.125" stroke-width="1"></path>
      <path id="Ellipse 2" stroke="#4147d5" stroke-linecap="round" stroke-linejoin="round" d="M7.00003 5.20996c0.06904 0 0.125 -0.05596 0.125 -0.125 0 -0.06903 -0.05596 -0.125 -0.125 -0.125" stroke-width="1"></path>
    </g>
    <g id="Group 4567">
      <path id="Ellipse 1_2" stroke="#4147d5" stroke-linecap="round" stroke-linejoin="round" d="M7.00006 11.47c-0.06903 0 -0.125 -0.056 -0.125 -0.125 0 -0.0691 0.05597 -0.125 0.125 -0.125" stroke-width="1"></path>
      <path id="Ellipse 2_2" stroke="#4147d5" stroke-linecap="round" stroke-linejoin="round" d="M7.00009 11.47c0.06904 0 0.125 -0.056 0.125 -0.125 0 -0.0691 -0.05596 -0.125 -0.125 -0.125" stroke-width="1"></path>
    </g>
  </g>
</svg>