<svg xmlns="http://www.w3.org/2000/svg" fill="none" viewBox="0 0 14 14"><g id="credit-card-2--deposit-payment-finance-atm-withdraw-atm"><path id="Vector" fill="#37d7ff" stroke="#3e3e3e" stroke-linecap="round" stroke-linejoin="round" d="M9.75 3h-5.5a.5.5 0 0 0-.5.5v9.375a.5.5 0 0 0 .5.5h5.5a.5.5 0 0 0 .5-.5V3.5a.5.5 0 0 0-.5-.5Z"></path><path id="Vector_2" fill="#ffffff" d="M7 9.438a1.25 1.25 0 1 0 0-2.5 1.25 1.25 0 0 0 0 2.5Z"></path><path id="Vector_3" stroke="#3e3e3e" stroke-linecap="round" stroke-linejoin="round" d="M9.75 3h-5.5a.5.5 0 0 0-.5.5v9.375a.5.5 0 0 0 .5.5h5.5a.5.5 0 0 0 .5-.5V3.5a.5.5 0 0 0-.5-.5Z"></path><path id="Vector_4" stroke="#3e3e3e" stroke-linecap="round" stroke-linejoin="round" d="M7 9.438a1.25 1.25 0 1 0 0-2.5 1.25 1.25 0 0 0 0 2.5Z"></path><path id="Vector_5" stroke="#3e3e3e" stroke-linecap="round" stroke-linejoin="round" d="M1.906 4.583h-.834a.491.491 0 0 1-.35-.146.503.503 0 0 1-.144-.354v-3A.5.5 0 0 1 .723.73a.491.491 0 0 1 .35-.147h11.855a.496.496 0 0 1 .494.5v3c0 .133-.052.26-.145.354a.491.491 0 0 1-.35.146h-.833"></path><g id="Group 8"><path id="Ellipse 1" stroke="#3e3e3e" stroke-linecap="round" stroke-linejoin="round" d="M7 5.21a.125.125 0 1 1 0-.25"></path><path id="Ellipse 2" stroke="#3e3e3e" stroke-linecap="round" stroke-linejoin="round" d="M7 5.21a.125.125 0 1 0 0-.25"></path></g><g id="Group 4567"><path id="Ellipse 1_2" stroke="#3e3e3e" stroke-linecap="round" stroke-linejoin="round" d="M7 11.47a.125.125 0 0 1 0-.25"></path><path id="Ellipse 2_2" stroke="#3e3e3e" stroke-linecap="round" stroke-linejoin="round" d="M7 11.47a.125.125 0 0 0 0-.25"></path></g></g></svg>