<svg xmlns="http://www.w3.org/2000/svg" fill="none" viewBox="0 0 14 14" id="Dollar-Coin-1--Streamline-Core">
  <desc>
    Dollar Coin 1 Streamline Icon: https://streamlinehq.com
  </desc>
  <g id="dollar-coin-1--accounting-billing-payment-cash-coin-currency-money-finance">
    <path id="Ellipse 19" fill="#d7e0ff" d="M3.614 5.598a4.891 4.891 0 1 0 9.782 0 4.891 4.891 0 1 0 -9.782 0" stroke-width="1"></path>
    <path id="Ellipse 21" stroke="#4147d5" stroke-linecap="round" stroke-linejoin="round" d="M3.614 5.598a4.891 4.891 0 1 0 9.782 0 4.891 4.891 0 1 0 -9.782 0" stroke-width="1"></path>
    <path id="Vector 3" stroke="#4147d5" stroke-linecap="round" stroke-linejoin="round" d="M9.806 4.24a1.019 1.019 0 0 0 -0.961 -0.68h-0.79a0.91 0.91 0 0 0 -0.194 1.798l1.202 0.263a1.02 1.02 0 0 1 -0.218 2.016h-0.68a1.02 1.02 0 0 1 -0.961 -0.68" stroke-width="1"></path>
    <path id="Vector 2489" stroke="#4147d5" stroke-linecap="round" stroke-linejoin="round" d="M8.505 3.56V2.54" stroke-width="1"></path>
    <path id="Vector 2490" stroke="#4147d5" stroke-linecap="round" stroke-linejoin="round" d="M8.505 8.656v-1.02" stroke-width="1"></path>
    <path id="Ellipse 20" stroke="#4147d5" stroke-linecap="round" stroke-linejoin="round" d="M1.203 6.134a4.89 4.89 0 0 0 6.437 6.73" stroke-width="1"></path>
  </g>
</svg>