<svg xmlns="http://www.w3.org/2000/svg" fill="none" viewBox="0 0 14 14"><g id="gift-2--reward-box-social-present-gift-media-rating-bow"><path id="Vector" fill="#ffffff" d="M13.138 4.792v.6a1 1 0 0 1-1 1H1.862a1 1 0 0 1-1-1v-.6a1 1 0 0 1 1-1h10.276a1 1 0 0 1 1 1Z"></path><path id="Vector_2" fill="#37d7ff" d="M12.276 12.234V6.392H1.724v5.842a1 1 0 0 0 1 1h8.552a1 1 0 0 0 1-1Z"></path><path id="Vector_3" stroke="#3e3e3e" stroke-linecap="round" stroke-linejoin="round" d="M12.276 12.234V6.392H1.724v5.842a1 1 0 0 0 1 1h8.552a1 1 0 0 0 1-1Z"></path><path id="Vector 2239" stroke="#3e3e3e" stroke-linecap="round" stroke-linejoin="round" d="M7 13.234V6.391"></path><path id="Vector_4" stroke="#3e3e3e" stroke-linecap="round" stroke-linejoin="round" d="M13.138 4.792v.6a1 1 0 0 1-1 1H1.862a1 1 0 0 1-1-1v-.6a1 1 0 0 1 1-1h10.276a1 1 0 0 1 1 1Z"></path><path id="Vector_5" stroke="#3e3e3e" stroke-linecap="round" stroke-linejoin="round" d="M7 3.792C7 2.917 5.98.875 4.448.875c-2.491 0-1.584 2.917-.391 2.917"></path><path id="Vector_6" stroke="#3e3e3e" stroke-linecap="round" stroke-linejoin="round" d="M7 3.792C7 2.917 8.02.875 9.552.875c2.491 0 1.584 2.917.391 2.917"></path></g></svg>