<svg xmlns="http://www.w3.org/2000/svg" fill="none" viewBox="0 0 14 14" id="Gift--Streamline-Core">
  <desc>
    Gift Streamline Icon: https://streamlinehq.com
  </desc>
  <g id="gift--reward-box-social-present-gift-media-rating-bow">
    <path id="Union" fill="#d7e0ff" fill-rule="evenodd" d="M1.5 3h11a1 1 0 0 1 1 1v2a1 1 0 0 1 -1 1v5.5a1 1 0 0 1 -1 1h-9a1 1 0 0 1 -1 -1V7a1 1 0 0 1 -1 -1V4a1 1 0 0 1 1 -1Z" clip-rule="evenodd" stroke-width="1"></path>
    <path id="Vector" stroke="#4147d5" stroke-linecap="round" stroke-linejoin="round" d="M12.5 3h-11a1 1 0 0 0 -1 1v2a1 1 0 0 0 1 1h11a1 1 0 0 0 1 -1V4a1 1 0 0 0 -1 -1Z" stroke-width="1"></path>
    <path id="Vector_2" stroke="#4147d5" stroke-linecap="round" stroke-linejoin="round" d="M12.5 7v5.5a1 1 0 0 1 -1 1h-9a1 1 0 0 1 -1 -1V7" stroke-width="1"></path>
    <path id="Vector_3" stroke="#4147d5" stroke-linecap="round" stroke-linejoin="round" d="M7 3v10.5" stroke-width="1"></path>
    <path id="Vector_4" stroke="#4147d5" stroke-linecap="round" stroke-linejoin="round" d="M10 0.5 7 3 4 0.5" stroke-width="1"></path>
  </g>
</svg>