<svg xmlns="http://www.w3.org/2000/svg" fill="none" viewBox="0 0 14 14" id="Justice-Scale-1--Streamline-Core">
  <desc>
    Justice Scale 1 Streamline Icon: https://streamlinehq.com
  </desc>
  <g id="justice-scale-1--office-work-scale-justice-company-arbitration-balance-court">
    <path id="Vector" fill="#d7e0ff" d="M5.5 9.5h-5a2.5 2.5 0 0 0 5 0Z" stroke-width="1"></path>
    <path id="Vector_2" fill="#d7e0ff" d="M13.5 9.5h-5a2.5 2.5 0 0 0 5 0Z" stroke-width="1"></path>
    <path id="Vector_3" stroke="#4147d5" stroke-linecap="round" stroke-linejoin="round" d="M5.5 9.5 3 4 0.5 9.5m5 0a2.5 2.5 0 0 1 -5 0m5 0h-5" stroke-width="1"></path>
    <path id="Vector_4" stroke="#4147d5" stroke-linecap="round" stroke-linejoin="round" d="M13.5 9.5 11 4 8.5 9.5m5 0a2.5 2.5 0 0 1 -5 0m5 0h-5" stroke-width="1"></path>
    <path id="Vector_5" stroke="#4147d5" stroke-linecap="round" stroke-linejoin="round" d="M1.5 4h11" stroke-width="1"></path>
    <path id="Vector_6" stroke="#4147d5" stroke-linecap="round" stroke-linejoin="round" d="M7 4V2" stroke-width="1"></path>
  </g>
</svg>