<svg xmlns="http://www.w3.org/2000/svg" fill="none" viewBox="0 0 14 14" id="Moustache--Streamline-Core">
  <desc>
    Moustache Streamline Icon: https://streamlinehq.com
  </desc>
  <g id="moustache--fashion-beauty-moustache-grooming">
    <path id="Vector" fill="#d7e0ff" d="M7 8.30994c0.39447 0.65645 0.99336 1.16538 1.70484 1.44878 0.71149 0.28338 1.49626 0.32558 2.23406 0.12018 0.7378 -0.20545 1.3878 -0.64721 1.8504 -1.25755 0.4626 -0.61033 0.7123 -1.35556 0.7107 -2.12141 -0.6263 0.29924 -1.3065 0.46929 -2 0.5 -1 0 -0.58 -2.42 -2 -2.89 -0.45782 -0.12222 -0.94195 -0.10257 -1.38836 0.05635 -0.44641 0.15892 -0.83405 0.44962 -1.11164 0.83365 -0.27759 -0.38403 -0.66523 -0.67473 -1.11164 -0.83365 -0.44641 -0.15892 -0.93054 -0.17857 -1.38836 -0.05635 -1.42 0.47 -1 2.89 -2 2.89 -0.69347 -0.03071 -1.37366 -0.20076 -2 -0.5 -0.001584 0.76585 0.24807 1.51108 0.71068 2.12141 0.46261 0.61034 1.11264 1.0521 1.85042 1.25755 0.73778 0.2054 1.52257 0.1632 2.23406 -0.12018C6.00664 9.47532 6.60553 8.96639 7 8.30994Z" stroke-width="1"></path>
    <path id="Vector_2" stroke="#4147d5" stroke-linecap="round" stroke-linejoin="round" d="M7 8.30994c0.39447 0.65645 0.99336 1.16538 1.70484 1.44878 0.71149 0.28338 1.49626 0.32558 2.23406 0.12018 0.7378 -0.20545 1.3878 -0.64721 1.8504 -1.25755 0.4626 -0.61033 0.7123 -1.35556 0.7107 -2.12141 -0.6263 0.29924 -1.3065 0.46929 -2 0.5 -1 0 -0.58 -2.42 -2 -2.89 -0.45782 -0.12222 -0.94195 -0.10257 -1.38836 0.05635 -0.44641 0.15892 -0.83405 0.44962 -1.11164 0.83365 -0.27759 -0.38403 -0.66523 -0.67473 -1.11164 -0.83365 -0.44641 -0.15892 -0.93054 -0.17857 -1.38836 -0.05635 -1.42 0.47 -1 2.89 -2 2.89 -0.69347 -0.03071 -1.37366 -0.20076 -2 -0.5 -0.001584 0.76585 0.24807 1.51108 0.71068 2.12141 0.46261 0.61034 1.11264 1.0521 1.85042 1.25755 0.73778 0.2054 1.52257 0.1632 2.23406 -0.12018C6.00664 9.47532 6.60553 8.96639 7 8.30994Z" stroke-width="1"></path>
  </g>
</svg>