<svg xmlns="http://www.w3.org/2000/svg" fill="none" viewBox="0 0 14 14" id="Shopping-Cart-1--Streamline-Core">
  <desc>
    Shopping Cart 1 Streamline Icon: https://streamlinehq.com
  </desc>
  <g id="shopping-cart-1--shopping-cart-checkout">
    <path id="Vector" fill="#d7e0ff" d="M4.16075 9.76202c-0.18377 -0.15619 -0.30489 -0.37355 -0.34105 -0.612l-0.52 -5.15h9.15c0.167 -0.00747 0.3333 0.02706 0.4835 0.10044 0.1502 0.07337 0.2797 0.18324 0.3765 0.31956 0.0929 0.12822 0.1541 0.27667 0.1784 0.43314 0.0244 0.15647 0.0112 0.31648 -0.0384 0.46686l-1.33 4c-0.0696 0.20698 -0.205 0.3855 -0.3856 0.50829 -0.1805 0.12279 -0.3963 0.18309 -0.6144 0.17169h-6.3c-0.24116 0.0027 -0.47519 -0.08178 -0.65895 -0.23798Z" stroke-width="1"></path>
    <path id="Vector_2" stroke="#4147d5" stroke-linecap="round" stroke-linejoin="round" d="M0.507528 0.5 2.9497 0.5l0.87 8.65c0.03616 0.23845 0.15728 0.4558 0.34105 0.612 0.18376 0.1562 0.41779 0.2407 0.65895 0.238h6.3c0.2181 0.0114 0.4339 -0.04893 0.6144 -0.17171 0.1806 -0.12279 0.316 -0.30131 0.3856 -0.50829l1.33 -4c0.0496 -0.15038 0.0628 -0.3104 0.0384 -0.46686 -0.0243 -0.15647 -0.0855 -0.30492 -0.1784 -0.43314 -0.0968 -0.13632 -0.2263 -0.24619 -0.3765 -0.31957 -0.1502 -0.07337 -0.3165 -0.1079 -0.4835 -0.10043h-9.15" stroke-width="1"></path>
    <path id="Vector_3" stroke="#4147d5" stroke-linecap="round" stroke-linejoin="round" d="M10.9497 13.5c-0.2761 0 -0.5 -0.2239 -0.5 -0.5s0.2239 -0.5 0.5 -0.5 0.5 0.2239 0.5 0.5 -0.2239 0.5 -0.5 0.5Z" stroke-width="1"></path>
    <path id="Vector_4" stroke="#4147d5" stroke-linecap="round" stroke-linejoin="round" d="M4.4497 13.5c-0.27614 0 -0.5 -0.2239 -0.5 -0.5s0.22386 -0.5 0.5 -0.5 0.5 0.2239 0.5 0.5 -0.22386 0.5 -0.5 0.5Z" stroke-width="1"></path>
  </g>
</svg>