<svg xmlns="http://www.w3.org/2000/svg" fill="none" viewBox="0 0 14 14"><g id="speaker-2--speakers-music-audio-entertainment"><path id="Vector" fill="#ffffff" d="M7 11.5a2.5 2.5 0 1 0 0-5 2.5 2.5 0 0 0 0 5Z"></path><path id="Subtract" fill="#37d7ff" fill-rule="evenodd" d="M3 .5h8a1 1 0 0 1 1 1v11a1 1 0 0 1-1 1H3a1 1 0 0 1-1-1v-11a1 1 0 0 1 1-1ZM9.5 9a2.5 2.5 0 1 1-5 0 2.5 2.5 0 0 1 5 0Z" clip-rule="evenodd"></path><path id="Vector_2" stroke="#3e3e3e" stroke-linecap="round" stroke-linejoin="round" d="M11 .5H3a1 1 0 0 0-1 1v11a1 1 0 0 0 1 1h8a1 1 0 0 0 1-1v-11a1 1 0 0 0-1-1Z"></path><path id="Vector_3" stroke="#3e3e3e" stroke-linecap="round" stroke-linejoin="round" d="M7 11.5a2.5 2.5 0 1 0 0-5 2.5 2.5 0 0 0 0 5Z"></path><g id="Group 4528"><path id="Ellipse 1" stroke="#3e3e3e" stroke-linecap="round" stroke-linejoin="round" d="M7 9.25a.25.25 0 0 1 0-.5"></path><path id="Ellipse 2" stroke="#3e3e3e" stroke-linecap="round" stroke-linejoin="round" d="M7 9.25a.25.25 0 0 0 0-.5"></path></g><g id="Group 4537"><path id="Vector_4" stroke="#3e3e3e" stroke-linecap="round" stroke-linejoin="round" d="M7 3.875a.375.375 0 1 1 0-.75"></path><path id="Vector_5" stroke="#3e3e3e" stroke-linecap="round" stroke-linejoin="round" d="M7 3.875a.375.375 0 1 0 0-.75"></path></g></g></svg>