<svg xmlns="http://www.w3.org/2000/svg" fill="none" viewBox="0 0 14 14"><g id="volume-down--speaker-down-volume-control-audio-music-decrease-entertainment"><path id="Vector" fill="#37d7ff" d="M3 5H1.5c-.545 0-1 .455-1 1v2c0 .545.455 1 1 1H3l3.91 2.81c.645.447 1.573-.024 1.59-.81V3A.954.954 0 0 0 7 2.19L3 5Z"></path><path id="Vector_2" stroke="#3e3e3e" stroke-linecap="round" stroke-linejoin="round" d="M10.5 7h3"></path><path id="Vector_3" stroke="#3e3e3e" stroke-linecap="round" stroke-linejoin="round" d="M3 5H1.5c-.545 0-1 .455-1 1v2c0 .545.455 1 1 1H3l3.91 2.81c.645.447 1.573-.024 1.59-.81V3A.954.954 0 0 0 7 2.19L3 5Z"></path></g></svg>