<svg xmlns="http://www.w3.org/2000/svg" fill="none" viewBox="0 0 40 40" id="Mailbox-2--Streamline-Stickies">
  <desc>
    Mailbox 2 Streamline Icon: https://streamlinehq.com
  </desc>
  <path fill="#48eeff" stroke="#231f20" stroke-miterlimit="10" d="M36.06 20.59C36.06 8.53 35.47 0.5 20 0.5 4.53 0.5 3.94 8.53 3.94 20.59v2.85c0 5.61 0.38 12.38 0.77 13.65 0.38 2.54 2.34 2.41 3.82 2.41s3.44 0.13 3.82 -2.41c0.1705 -0.7736 0.2808 -1.5593 0.33 -2.35 2.27 0.15 4.88 0.17 7.32 0.17 2.44 0 5.05 0 7.32 -0.17 0.0492 0.7907 0.1595 1.5764 0.33 2.35 0.35 2.54 2.35 2.41 3.82 2.41 1.47 0 3.44 0.13 3.82 -2.41 0.39 -1.27 0.77 -8 0.77 -13.65v-2.85Z" stroke-width="1"></path>
  <path fill="#ffffff" stroke="#231f20" stroke-miterlimit="10" d="M24.7 10.66c0.87 -0.15 1 -0.94999 1 -1.55999 0.0543 -0.33749 -0.0177 -0.68316 -0.2022 -0.97094 -0.1844 -0.28778 -0.4685 -0.49749 -0.7978 -0.58906 -1.5613 -0.15946 -3.1315 -0.21292 -4.7 -0.16 -1.5685 -0.05292 -3.1388 0.00054 -4.7 0.16 -0.87 0.16 -1 1 -1 1.56s0.16 1.40999 1 1.55999c1.5609 0.1647 3.1315 0.2182 4.7 0.16 1.5685 0.0582 3.1391 0.0047 4.7 -0.16Z" stroke-width="1"></path>
  <path stroke="#231f20" stroke-linecap="round" stroke-miterlimit="10" d="M10.13 9.67999C9.67999 12.34 9.67999 17.29 9.67999 31.47" stroke-width="1"></path>
  <path stroke="#231f20" stroke-linecap="round" stroke-miterlimit="10" d="M30.32 31.47c0 -14.18 0 -19.13 -0.45 -21.79001" stroke-width="1"></path>
  <path stroke="#231f20" stroke-linecap="round" stroke-miterlimit="10" d="M9.91 14.26H30.1" stroke-width="1"></path>
  <path fill="#ffffff" stroke="#231f20" stroke-miterlimit="10" d="M21.41 28s0.79 -0.58 1.81 -3.75c0.45 -1.42 0.91 -3.14 1 -3.52 0.1867 -1.1867 -0.3133 -1.6867 -1.5 -1.5 -0.38 0.06 -2.11 0.51 -3.53 1 -1.3491 0.3772 -2.6264 0.9753 -3.78 1.77 -0.58 0.59 -0.34 1.07 0.1 1.51 0.6 0.6 2.56 1 3.14 1.25 0.21 0.59 0.66 2.54 1.26 3.14 0.43 0.44 0.9 0.68 1.48 0.11l0.02 -0.01Z" stroke-width="1"></path>
  <path stroke="#ffffff" stroke-linecap="round" stroke-miterlimit="10" d="M26.33 3.60001c1.7181 0.32326 3.2662 1.24435 4.37 2.6" stroke-width="1"></path>
</svg>