<svg xmlns="http://www.w3.org/2000/svg" fill="none" viewBox="0 0 24 24" id="Cloud-Data-Transfer--Streamline-Sharp">
  <desc>
    Cloud Data Transfer Streamline Icon: https://streamlinehq.com
  </desc>
  <g id="cloud-data-transfer--cloud-data-transfer-internet-server-network">
    <path id="Subtract" fill="#7af1ff" fill-rule="evenodd" d="M20.25 17.8311V15.75h-3V11H8.15381L3.75 15.4038v1.9702c-1.51407 -1.0892 -2.5 -2.8665 -2.5 -4.874 0 -2.79795 1.91515 -5.14858 4.50607 -5.81253C6.54076 3.97962 9.0392 2 12 2c3.5899 0 6.5 2.91015 6.5 6.5l-0.0002 0.05584C20.9055 8.9176 22.75 10.9934 22.75 13.5c0 1.8507 -1.0055 3.4666 -2.5 4.3311Z" clip-rule="evenodd" stroke-width="1"></path>
    <path id="Union" fill="#0c098c" fill-rule="evenodd" d="M12 0.75c-3.28767 0 -6.0946 2.04627 -7.22159 4.93259C1.99181 6.69321 0 9.36264 0 12.5c0 2.7348 1.51422 5.1159 3.75 6.3507v-3.1394C2.9738 14.8658 2.5 13.7382 2.5 12.5c0 -2.2133 1.51497 -4.07597 3.56637 -4.60166l0.69159 -0.17723 0.19872 -0.68573C7.59068 4.84751 9.61041 3.25 12 3.25c2.8995 0 5.25 2.3505 5.25 5.25l-0.0002 0.04533 -0.0091 1.08523 1.0732 0.16138C20.1171 10.0631 21.5 11.6212 21.5 13.5c0 1.1106 -0.4828 2.1085 -1.25 2.7951v2.9348C22.4574 18.2655 24 16.0629 24 13.5c0 -2.7739 -1.8061 -5.12412 -4.3066 -5.94162C19.2287 3.72226 15.9615 0.75 12 0.75Zm-0.75 16.5v6h-2.5V18.5h-3v-2.2678l0.36612 -0.3661 2.5 -2.5L8.98223 13H11.25v4.25Zm3.25 6h0.5178l0.3661 -0.3661 2.5 -2.5 0.3661 -0.3661V17.75h-3V13h-2.5v10.25h1.75Z" clip-rule="evenodd" stroke-width="1"></path>
  </g>
</svg>