<svg xmlns="http://www.w3.org/2000/svg" fill="none" viewBox="0 0 40 40" id="Money-Briefcase--Streamline-Stickies">
  <desc>
    Money Briefcase Streamline Icon: https://streamlinehq.com
  </desc>
  <path fill="#ff52a1" stroke="#231f20" stroke-miterlimit="10" d="M34 23.32c-0.808 -0.6808 -1.7475 -1.188 -2.76 -1.49 0.06 -0.3 0.12 -0.59 0.17 -0.91 0.1485 -0.8687 0.1179 -1.7586 -0.0899 -2.6151 -0.2077 -0.8565 -0.5883 -1.6615 -1.1183 -2.3656 -0.5299 -0.7042 -1.1982 -1.2926 -1.9637 -1.7293 -0.7656 -0.4366 -1.6122 -0.7123 -2.4881 -0.81 -0.8633 -0.186 -1.7555 -0.1931 -2.6216 -0.0208 -0.8661 0.1723 -1.6877 0.5204 -2.414 1.0227 -0.7263 0.5023 -1.3419 1.1482 -1.8088 1.8978 -0.4668 0.7496 -0.7751 1.5869 -0.9056 2.4603 -0.05 0.32 -0.09 0.61 -0.13 0.92 -1.0532 -0.0387 -2.1028 0.1453 -3.08 0.54 -1.92 0.55 -3.51 4.7 -4 7.93 -0.49 3.23 -0.14 6.56 1.51 7.69 0.75 1 5.38 2.58 9.32 3.22 3.94 0.64 8.84 0.57 9.87 -0.12 1.92 -0.55 3.32 -3.59 3.84 -6.82 0.52 -3.23 0.28 -7.68 -1.33 -8.8Zm-8.79 -6.57c1.71 0.27 2.92 1.58 2.56 4 -1 -0.26 -2.08 -0.49 -3.1 -0.66 -1.02 -0.17 -2.08 -0.28 -3.14 -0.35 0.38 -2.4 1.94 -3.27 3.64 -2.99h0.04Z" stroke-width="1"></path>
  <path stroke="#231f20" stroke-linecap="round" stroke-miterlimit="10" d="M13.33 26.28c0.9 2.44 5.29 3.15 9.68 3.86s8.79 1.41 10.4 -0.61" stroke-width="1"></path>
  <path fill="#ffffff" stroke="#231f20" stroke-miterlimit="10" d="M19.67 27.81c-0.09 -0.35 -0.78 -0.63 -1.32 -0.72 -0.54 -0.09 -1.28 0 -1.47 0.26 -0.302 0.522 -0.4926 1.1008 -0.56 1.7 -0.1196 0.5907 -0.1196 1.1993 0 1.79 0.09 0.35 0.78 0.63 1.32 0.72 0.54 0.09 1.28 0 1.47 -0.27 0.3038 -0.5211 0.4946 -1.1003 0.56 -1.7 0.1193 -0.5873 0.1193 -1.1927 0 -1.78Z" stroke-width="1"></path>
  <path fill="#ffffff" stroke="#231f20" stroke-miterlimit="10" d="M29.71 29.43c-0.09 -0.35 -0.78 -0.63 -1.32 -0.72 -0.54 -0.09 -1.28 0 -1.47 0.27 -0.3039 0.5211 -0.4946 1.1003 -0.56 1.7 -0.1259 0.59 -0.1259 1.2 0 1.79 0.08 0.34 0.77 0.62 1.31 0.71 0.54 0.09 1.28 0 1.47 -0.26 0.3019 -0.5228 0.4957 -1.1009 0.57 -1.7 0.1159 -0.591 0.1159 -1.199 0 -1.79Z" stroke-width="1"></path>
  <path stroke="#ffffff" stroke-linecap="round" stroke-miterlimit="10" d="M30.42 24.47c2.33 0.18 2.24 1.36 2.15 2.54" stroke-width="1"></path>
  <path fill="#48eeff" stroke="#231f20" stroke-linejoin="round" d="M18.76 14c-0.1937 -1.2094 -0.8049 -2.3127 -1.7274 -3.1184C16.11 10.076 14.9344 9.619 13.71 9.59v-0.1c0.81 -0.18827 1.5128 -0.68924 1.9549 -1.39363 0.4421 -0.70439 0.5877 -1.55503 0.4051 -2.36637 -0.48 -2.07 -3.16 -2.52 -5.53 -2.44 -0.193 -0.68098 -0.4754 -1.33334 -0.84001 -1.94 -0.44 -0.830001 -1.85 -0.980001 -2.84 -0.760001 -0.99 0.22 -2.19 1.000001 -2.24 1.920001 -0.07144 0.7277 -0.03776 1.46189 0.1 2.18 -2.72 1.42 -4.840004 4.08 -3.830004 8.53 0.192614 1.2072 0.804404 2.308 1.727934 3.109 0.92352 0.801 2.09973 1.251 3.32207 1.271v0.1c-0.40205 0.0897 -0.78235 0.2581 -1.11897 0.4955 -0.33662 0.2375 -0.62289 0.5392 -0.84229 0.8878 -0.21941 0.3487 -0.36761 0.7373 -0.43604 1.1435 -0.06844 0.4062 -0.05576 0.8219 0.0373 1.2232 0.54 2.37 3.32 2.69 5.56 2.55 0.18335 0.6494 0.45238 1.2716 0.8 1.85 0.46001 0.83 1.87001 1 2.86001 0.75s2.19 -1 2.24 -1.92c0.0659 -0.7008 0.0356 -1.4074 -0.09 -2.1 2.75 -1.33 4.91 -3.82 3.81 -8.58Z" stroke-width="1"></path>
  <path stroke="#231f20" stroke-linecap="round" stroke-linejoin="round" d="M13.71 9.54999c-1.5757 0.01726 -3.1311 0.35761 -4.57002 1.00001" stroke-width="1"></path>
  <path stroke="#231f20" stroke-linecap="round" stroke-linejoin="round" d="M5.93999 17.6c1.58016 0.0245 3.14447 -0.3178 4.57001 -1" stroke-width="1"></path>
  <path stroke="#ffffff" stroke-linecap="round" stroke-miterlimit="10" d="M11.53 5.32c0.4291 -0.12244 0.8829 -0.13056 1.3161 -0.02356 0.4333 0.107 0.8311 0.32541 1.1539 0.63356" stroke-width="1"></path>
  <path fill="#ffe236" stroke="#231f20" stroke-miterlimit="10" d="M26.0272 9.27158c0.2097 0.01414 0.4228 -0.05443 0.6273 -0.20181 0.2045 -0.14739 0.3964 -0.37069 0.5646 -0.65716 0.1683 -0.28647 0.3096 -0.6305 0.416 -1.01245 0.1063 -0.38195 0.1756 -0.79434 0.2039 -1.21361 0.0283 -0.41928 0.015 -0.83724 -0.0391 -1.23001 -0.0541 -0.39278 -0.1479 -0.75268 -0.2761 -1.05915 -0.1283 -0.30648 -0.2884 -0.55353 -0.4712 -0.72705 -0.1829 -0.17351 -0.3849 -0.2701 -0.5945 -0.28424 -0.4234 -0.02857 -0.8522 0.28041 -1.1919 0.85897 -0.3398 0.57855 -0.5628 1.37929 -0.6199 2.22606 -0.0572 0.84676 0.0562 1.6702 0.3152 2.28915 0.259 0.61896 0.6423 0.98273 1.0657 1.0113Z" stroke-width="1"></path>
  <path fill="#ffe236" stroke="#231f20" stroke-miterlimit="10" d="M30.1109 10.6534c0.1763 0.1143 0.3959 0.158 0.6463 0.1286 0.2504 -0.0293 0.5266 -0.1312 0.8129 -0.2997 0.2863 -0.1686 0.577 -0.4005 0.8557 -0.68254 0.2786 -0.28205 0.5397 -0.60873 0.7682 -0.96136 0.2286 -0.35263 0.4202 -0.72433 0.5639 -1.09385 0.1437 -0.36953 0.2367 -0.72965 0.2736 -1.05981 0.037 -0.33016 0.0172 -0.62389 -0.0583 -0.86442 -0.0754 -0.24053 -0.205 -0.42315 -0.3813 -0.53744 -0.1763 -0.11428 -0.3959 -0.15799 -0.6463 -0.12862 -0.2503 0.02936 -0.5266 0.13122 -0.8129 0.29976 -0.2862 0.16854 -0.577 0.40046 -0.8557 0.68251 -0.2786 0.28206 -0.5397 0.60873 -0.7682 0.96137 -0.2286 0.35263 -0.4202 0.72432 -0.5639 1.09385 -0.1437 0.36952 -0.2366 0.72965 -0.2736 1.05981 -0.0369 0.33016 -0.0171 0.62389 0.0583 0.86444 0.0754 0.2405 0.205 0.4231 0.3813 0.5374Z" stroke-width="1"></path>
  <path fill="#ffe236" stroke="#231f20" stroke-miterlimit="10" d="M33.8318 13.9496c0.2367 0.3522 0.7436 0.5018 1.409 0.4161 0.6655 -0.0858 1.435 -0.4 2.1393 -0.8735 0.7044 -0.4734 1.2858 -1.0674 1.6165 -1.6513 0.3306 -0.5838 0.3834 -1.1096 0.1466 -1.4618 -0.2367 -0.3522 -0.7435 -0.50181 -1.409 -0.41604 -0.6654 0.08574 -1.435 0.39994 -2.1393 0.87344 -0.7043 0.4735 -1.2858 1.0675 -1.6164 1.6513 -0.3307 0.5838 -0.3834 1.1096 -0.1467 1.4618Z" stroke-width="1"></path>
</svg>