<svg xmlns="http://www.w3.org/2000/svg" viewBox="0 0 24 24" id="Compass-Directions--Streamline-Ultimate">
  <desc>
    Compass Directions Streamline Icon: https://streamlinehq.com
  </desc>
  <path d="M12 0a12 12 0 1 0 12 12A12 12 0 0 0 12 0Zm1.07 15.46L7.2 17.77a0.74 0.74 0 0 1 -1 -1l2.31 -5.86a0.5 0.5 0 0 1 0.36 -0.3 0.51 0.51 0 0 1 0.45 0.14l3.88 3.88a0.51 0.51 0 0 1 0.14 0.45 0.5 0.5 0 0 1 -0.27 0.38Zm4.7 -8.25 -2.31 5.86a0.5 0.5 0 0 1 -0.36 0.3 0.49 0.49 0 0 1 -0.45 -0.14l-3.88 -3.88a0.51 0.51 0 0 1 -0.14 -0.45 0.5 0.5 0 0 1 0.3 -0.36l5.87 -2.31a0.72 0.72 0 0 1 0.81 0.16 0.73 0.73 0 0 1 0.16 0.82Z" fill="#000000" stroke-width="1"></path>
</svg>