<svg xmlns="http://www.w3.org/2000/svg" viewBox="0 0 24 24" id="Earth-Cash--Streamline-Ultimate">
  <desc>
    Earth Cash Streamline Icon: https://streamlinehq.com
  </desc>
  <g id="Earth-Cash--Streamline-Ultimate.svg">
    <path d="M11 22.11a0.54 0.54 0 0 0 -0.34 -0.21 10.08 10.08 0 0 1 -3 -0.91 0.24 0.24 0 0 1 -0.14 -0.23v-1.15a2.5 2.5 0 0 1 0.89 -1.91 4.46 4.46 0 0 0 1.27 -1.78c0.07 -0.33 0.16 -0.65 0.26 -1a4.06 4.06 0 0 0 0.08 -0.7 4.51 4.51 0 0 0 -4.5 -4.5H2.58a0.24 0.24 0 0 1 -0.19 -0.1 0.23 0.23 0 0 1 -0.05 -0.21 10 10 0 0 1 14.55 -6.13 0.25 0.25 0 0 1 0.12 0.28 0.26 0.26 0 0 1 -0.24 0.19h-2.52a2.75 2.75 0 0 0 0 5.5 2.57 2.57 0 0 1 1.28 0.36 0.46 0.46 0 0 0 0.36 0.06 7.78 7.78 0 0 1 1.61 -0.17 8 8 0 0 1 6 2.7 0.3 0.3 0 0 0 0.5 -0.2 12 12 0 0 0 -24 0c0 4.92 4 12 12 12a0.3 0.3 0 0 0 0.2 -0.52 8 8 0 0 1 -1.2 -1.37Z" fill="#000000" stroke-width="1"></path>
    <path d="M17.5 11a6.5 6.5 0 1 0 6.5 6.5 6.51 6.51 0 0 0 -6.5 -6.5Zm0.95 10.2a0.24 0.24 0 0 0 -0.2 0.24v0.31a0.75 0.75 0 0 1 -1.5 0v-0.25a0.25 0.25 0 0 0 -0.25 -0.25H16a0.75 0.75 0 0 1 0 -1.5h2a0.59 0.59 0 0 0 0.59 -0.59 0.58 0.58 0 0 0 -0.37 -0.55l-2.06 -0.83a2.09 2.09 0 0 1 0.36 -4 0.24 0.24 0 0 0 0.2 -0.24v-0.31a0.75 0.75 0 0 1 1.5 0v0.25a0.25 0.25 0 0 0 0.25 0.25H19a0.75 0.75 0 0 1 0 1.5h-2a0.59 0.59 0 0 0 -0.59 0.59 0.58 0.58 0 0 0 0.37 0.55l2.06 0.83a2.09 2.09 0 0 1 -0.36 4Z" fill="#000000" stroke-width="1"></path>
  </g>
</svg>