<svg xmlns="http://www.w3.org/2000/svg" viewBox="0 0 24 24" id="Pin-X-Mark-3--Streamline-Ultimate">
  <desc>
    Pin X Mark 3 Streamline Icon: https://streamlinehq.com
  </desc>
  <g id="Pin-X-Mark-3--Streamline-Ultimate.svg">
    <path d="M11.62 18.83a0.51 0.51 0 0 0 0.76 0C12.65 18.52 19 11.14 19 7A7 7 0 0 0 5 7c0 4.14 6.35 11.52 6.62 11.83ZM9.5 7A2.5 2.5 0 1 1 12 9.5 2.5 2.5 0 0 1 9.5 7Z" fill="#000000" stroke-width="1"></path>
    <path d="m18.79 22 -2.61 -0.8a0.25 0.25 0 0 1 0 -0.48l2.61 -0.8a1 1 0 1 0 -0.58 -1.92l-6.14 1.89a0.17 0.17 0 0 1 -0.14 0L5.79 18a1 1 0 1 0 -0.58 2l2.61 0.8a0.25 0.25 0 0 1 0 0.48L5.21 22a1 1 0 0 0 0.29 2 0.92 0.92 0 0 0 0.29 0l6.14 -1.89a0.17 0.17 0 0 1 0.14 0L18.21 24a0.92 0.92 0 0 0 0.29 0 1 1 0 0 0 0.29 -2Z" fill="#000000" stroke-width="1"></path>
  </g>
</svg>