<svg xmlns="http://www.w3.org/2000/svg" viewBox="0 0 24 24" id="Style-One-Pin-Star--Streamline-Ultimate">
  <desc>
    Style One Pin Star Streamline Icon: https://streamlinehq.com
  </desc>
  <path d="M12 0a9.5 9.5 0 0 0 -4 18.12 2.5 2.5 0 0 1 1.22 1.22l1.87 4.08a1 1 0 0 0 1.82 0l1.87 -4.08A2.5 2.5 0 0 1 16 18.12 9.5 9.5 0 0 0 12 0Zm4.8 8.2 -2.05 2a0.26 0.26 0 0 0 -0.05 0.28l1.13 2.6a0.65 0.65 0 0 1 -0.93 0.82l-2.78 -1.56a0.21 0.21 0 0 0 -0.24 0L9.1 13.91a0.65 0.65 0 0 1 -0.93 -0.82l1.13 -2.6a0.26 0.26 0 0 0 -0.05 -0.28l-2 -2a0.61 0.61 0 0 1 0.43 -1.07H10a0.24 0.24 0 0 0 0.19 -0.14l1.22 -2.62a0.66 0.66 0 0 1 1.18 0L13.8 7a0.25 0.25 0 0 0 0.23 0.15h2.34a0.61 0.61 0 0 1 0.43 1.05Z" fill="#000000" stroke-width="1"></path>
</svg>