<svg xmlns="http://www.w3.org/2000/svg" viewBox="0 0 24 24" id="Trip-Road--Streamline-Ultimate">
  <desc>
    Trip Road Streamline Icon: https://streamlinehq.com
  </desc>
  <g id="Trip-Road--Streamline-Ultimate.svg">
    <path d="M19 14.55a0.22 0.22 0 0 0 -0.15 -0.13c-1.05 -0.36 -5.36 -5.34 -5.36 -8.67l0 -0.51c0 -0.17 0.08 -0.49 -0.24 -0.49H12a0.25 0.25 0 0 0 -0.25 0.25v2.75a0.75 0.75 0 0 1 -1.5 0V5a0.25 0.25 0 0 0 -0.25 -0.25H7.18a0.5 0.5 0 0 0 -0.46 0.32L0 22.07a0.48 0.48 0 0 0 0.06 0.46 0.48 0.48 0 0 0 0.41 0.22H10a0.25 0.25 0 0 0 0.25 -0.25v-2.75a0.75 0.75 0 0 1 1.5 0v2.75a0.25 0.25 0 0 0 0.25 0.25h9.5a0.49 0.49 0 0 0 0.41 -0.22 0.48 0.48 0 0 0 0.06 -0.46Zm-7.26 1.2a0.75 0.75 0 0 1 -1.5 0v-4a0.75 0.75 0 0 1 1.5 0Z" fill="#000000" stroke-width="1"></path>
    <path d="M19.86 12.87C20.94 11.72 24 8.23 24 5.75a4.5 4.5 0 0 0 -9 0c0 2.48 3.06 6 4.14 7.12a0.49 0.49 0 0 0 0.72 0ZM18 5.75a1.5 1.5 0 1 1 1.5 1.5 1.5 1.5 0 0 1 -1.5 -1.5Z" fill="#000000" stroke-width="1"></path>
  </g>
</svg>