<svg xmlns="http://www.w3.org/2000/svg" viewBox="0 0 14 14">
  <g>
    <g>
      <path d="M7.88,6.66h0A1.37,1.37,0,0,0,9.27,5.29h0A1.37,1.37,0,0,0,7.9,3.92H5.79a.5.5,0,0,0-.5.5v5a.5.5,0,0,0,.5.5H7.88a1.62,1.62,0,1,0,0-3.24Z" style="fill: none;stroke: #000001;stroke-linecap: round;stroke-linejoin: round"/>
      <line x1="7.9" y1="6.66" x2="5.29" y2="6.66" style="fill: none;stroke: #000001;stroke-linecap: round;stroke-linejoin: round"/>
      <line x1="6.24" y1="3.92" x2="6.24" y2="3" style="fill: none;stroke: #000001;stroke-linecap: round;stroke-linejoin: round"/>
      <line x1="7.78" y1="3.92" x2="7.78" y2="3" style="fill: none;stroke: #000001;stroke-linecap: round;stroke-linejoin: round"/>
      <line x1="6.24" y1="11" x2="6.24" y2="9.9" style="fill: none;stroke: #000001;stroke-linecap: round;stroke-linejoin: round"/>
      <line x1="7.78" y1="11" x2="7.78" y2="9.9" style="fill: none;stroke: #000001;stroke-linecap: round;stroke-linejoin: round"/>
    </g>
    <circle cx="7" cy="7" r="6.5" style="fill: none;stroke: #000001;stroke-linecap: round;stroke-linejoin: round"/>
  </g>
</svg>
