<svg xmlns="http://www.w3.org/2000/svg" fill="none" viewBox="0 0 14 14"><g id="pathfinder-minus-front-1"><path id="Vector" stroke="#3e3e3e" stroke-linecap="round" stroke-linejoin="round" d="M9.5 4.5v-3c0-.545-.455-1-1-1h-7c-.545 0-1 .455-1 1v7c0 .545.455 1 1 1h3"></path><path id="Vector 2580" stroke="#3e3e3e" stroke-linecap="round" stroke-linejoin="round" d="M13.5 12.5a1 1 0 0 1-1 1"></path><path id="Vector 2581" stroke="#3e3e3e" stroke-linecap="round" stroke-linejoin="round" d="M4.5 5.5a1 1 0 0 1 1-1"></path><path id="Vector 2582" stroke="#3e3e3e" stroke-linecap="round" stroke-linejoin="round" d="M12.5 4.5a1 1 0 0 1 1 1"></path><path id="Vector 2583" stroke="#3e3e3e" stroke-linecap="round" stroke-linejoin="round" d="M4.5 12.5a1 1 0 0 0 1 1"></path><path id="Vector 2584" stroke="#3e3e3e" stroke-linecap="round" stroke-linejoin="round" d="M13.5 8v2"></path><path id="Vector 2585" stroke="#3e3e3e" stroke-linecap="round" stroke-linejoin="round" d="M4.5 10V8"></path><path id="Vector 2586" stroke="#3e3e3e" stroke-linecap="round" stroke-linejoin="round" d="M8 4.5h2"></path><path id="Vector 2587" stroke="#3e3e3e" stroke-linecap="round" stroke-linejoin="round" d="M8 13.5h2"></path></g></svg>