<svg xmlns="http://www.w3.org/2000/svg" fill="none" viewBox="0 0 24 24" id="Headphones-1--Streamline-Ultimate">
  <desc>
    Headphones 1 Streamline Icon: https://streamlinehq.com
  </desc>
  <path stroke="#000000" stroke-linecap="round" stroke-linejoin="round" d="M4.75 12.75h2.5s1 0 1 1v8.5s0 1 -1 1h-2.5s-1 0 -1 -1v-8.5s0 -1 1 -1Z" stroke-width="1"></path>
  <path stroke="#000000" stroke-linecap="round" stroke-linejoin="round" d="M16.75 12.75h2.5s1 0 1 1v8.5s0 1 -1 1h-2.5s-1 0 -1 -1v-8.5s0 -1 1 -1Z" stroke-width="1"></path>
  <path stroke="#000000" stroke-linecap="round" stroke-linejoin="round" d="M0.75 18v-6c0 -2.98369 1.18526 -5.84517 3.29505 -7.95495C6.15483 1.93526 9.01631 0.75 12 0.75c2.9837 0 5.8452 1.18526 7.955 3.29505C22.0647 6.15483 23.25 9.01631 23.25 12v6" stroke-width="1"></path>
</svg>