<svg xmlns="http://www.w3.org/2000/svg" fill="none" viewBox="0 0 24 24" id="Speaker-1--Streamline-Ultimate">
  <desc>
    Speaker 1 Streamline Icon: https://streamlinehq.com
  </desc>
  <path stroke="#000000" stroke-linecap="round" stroke-linejoin="round" d="M4.49445 12.018c0 1.9858 0.78886 3.8903 2.19303 5.2945 1.40418 1.4042 3.30866 2.193 5.29442 2.193 1.9859 0 3.8903 -0.7888 5.2945 -2.193 1.4042 -1.4042 2.1931 -3.3087 2.1931 -5.2945 0 -1.9858 -0.7889 -3.89026 -2.1931 -5.29444 -1.4042 -1.40418 -3.3086 -2.19304 -5.2945 -2.19304 -1.98576 0 -3.89024 0.78886 -5.29442 2.19304C5.28331 8.12774 4.49445 10.0322 4.49445 12.018Z" stroke-width="1"></path>
  <path stroke="#000000" stroke-linecap="round" stroke-linejoin="round" d="M9.73572 12.018c0 0.5957 0.23666 1.1671 0.65788 1.5883 0.4213 0.4213 0.9926 0.6579 1.5884 0.6579 0.5957 0 1.1671 -0.2366 1.5883 -0.6579 0.4213 -0.4212 0.6579 -0.9926 0.6579 -1.5883 0 -0.5958 -0.2366 -1.1671 -0.6579 -1.5884 -0.4212 -0.4212 -0.9926 -0.65787 -1.5883 -0.65787 -0.5958 0 -1.1671 0.23667 -1.5884 0.65787 -0.42122 0.4213 -0.65788 0.9926 -0.65788 1.5884Z" stroke-width="1"></path>
  <path stroke="#000000" stroke-linecap="round" stroke-linejoin="round" d="m21.7496 6.48629 0.5861 -0.58702c0.286 -0.27628 0.5142 -0.60676 0.6711 -0.97216 0.157 -0.36541 0.2396 -0.75841 0.2431 -1.15608 0.0034 -0.39768 -0.0723 -0.79206 -0.2229 -1.16013 -0.1506 -0.36808 -0.373 -0.70248 -0.6542 -0.98368 -0.2812 -0.28121 -0.6156 -0.5036 -0.9837 -0.654193 -0.3681 -0.150591 -0.7625 -0.22637 -1.1601 -0.222914 -0.3977 0.003456 -0.7907 0.086077 -1.1561 0.243042 -0.3654 0.156965 -0.6959 0.385135 -0.9722 0.671185l-0.587 0.58602C15.828 1.29072 13.9217 0.786114 11.9819 0.786114c-1.9397 0 -3.84602 0.504606 -5.53172 1.464246l-0.58702 -0.58602C5.29829 1.11877 4.54175 0.816896 3.75647 0.823719c-0.78528 0.006824 -1.53646 0.321801 -2.09176 0.877101 -0.5553 0.5553 -0.870281 1.30648 -0.877105 2.09176 -0.006824 0.78528 0.295055 1.54183 0.840615 2.10669l0.58603 0.58702C1.25461 8.17199 0.75 10.0783 0.75 12.0181c0 1.9397 0.50461 3.846 1.46425 5.5317l-0.58603 0.587c-0.54556 0.5649 -0.847439 1.3215 -0.840615 2.1067 0.006824 0.7853 0.321805 1.5365 0.877105 2.0918 0.5553 0.5553 1.30648 0.8703 2.09176 0.8771 0.78528 0.0068 1.54182 -0.2951 2.10669 -0.8406l0.58702 -0.586c1.6857 0.9596 3.59202 1.4642 5.53172 1.4642 1.9398 0 3.8461 -0.5046 5.5318 -1.4642l0.587 0.586c0.5649 0.5455 1.3214 0.8474 2.1067 0.8406 0.7853 -0.0068 1.5365 -0.3218 2.0918 -0.8771 0.5553 -0.5553 0.8703 -1.3065 0.8771 -2.0918 0.0068 -0.7852 -0.2951 -1.5418 -0.8406 -2.1067l-0.5861 -0.587c0.9597 -1.6857 1.4643 -3.592 1.4643 -5.5317 0 -1.9398 -0.5046 -3.84611 -1.4643 -5.53181Z" stroke-width="1"></path>
</svg>