<svg xmlns="http://www.w3.org/2000/svg" fill="none" viewBox="0 0 24 24" id="Record-Player--Streamline-Sharp">
  <desc>
    Record Player Streamline Icon: https://streamlinehq.com
  </desc>
  <g id="record-player--music-audio-note-record-player-vinyl-disc-entertainment">
    <path id="Ellipse 1843" fill="#fddc5c" d="M0 13.25a10.75 10.75 0 1 0 21.5 0 10.75 10.75 0 1 0 -21.5 0" stroke-width="1"></path>
    <path id="Union" fill="#0c098c" fill-rule="evenodd" d="M22.7499 6.5H24V0h-6v6.5h1.2499v3.624l-4.7647 3.5669 2.0975 2.8019 5.4659 -4.0919 0.7013 -0.5249V6.5ZM10.75 21.5c2.4374 0 4.6279 -1.057 6.1382 -2.7376l4.3794 -3.2784C20.2393 20.3489 15.921 24 10.75 24 4.81294 24 0 19.1871 0 13.25 0 7.31294 4.81294 2.5 10.75 2.5c1.9067 0 3.6974 0.49638 5.25 1.36696v3.01878C14.5736 5.70773 12.7444 5 10.75 5 6.19365 5 2.5 8.69365 2.5 13.25c0 4.5563 3.69365 8.25 8.25 8.25Zm1.584 -10H8.83398V15H12.334v-3.5Z" clip-rule="evenodd" stroke-width="1"></path>
  </g>
</svg>