<svg xmlns="http://www.w3.org/2000/svg" fill="none" viewBox="0 0 24 24" id="Repeat-Single--Streamline-Sharp">
  <desc>
    Repeat Single Streamline Icon: https://streamlinehq.com
  </desc>
  <g id="repeat-single--repeat-single-track-media-playlist-music-video-entertainment-arrow-one">
    <path id="Vector 3973" fill="#7af1ff" d="M1.5 19.125v-11H24v11H1.5Z" stroke-width="1"></path>
    <path id="Union" fill="#0c098c" fill-rule="evenodd" d="M18.75 3.875c0.3475 0 0.6831 -0.05064 1 -0.14494v3.14348H18.2v2.5H24v-2.5h-1.75V0.375h-2.5c0 0.552285 -0.4477 1 -1 1l-0.5 0v2.5h0.5Zm-9 -0.25 4.5 4.5 -4.5 4.5h-1.5v-3.25H2.5v9.75H0V6.875h8.25v-3.25h1.5Zm11.75 14.25 -7.25 0v-3.25h-1.5l-4.5 4.5 4.5 4.5h1.5v-3.25l8.5 0H24v-7.75h-2.5v5.25Z" clip-rule="evenodd" stroke-width="1"></path>
  </g>
</svg>