<svg xmlns="http://www.w3.org/2000/svg" fill="none" viewBox="0 0 24 24" id="Tune-Adjust-Volume--Streamline-Sharp">
  <desc>
    Tune Adjust Volume Streamline Icon: https://streamlinehq.com
  </desc>
  <g id="tune-adjust-volume">
    <path id="vector" fill="#79ee8d" d="M12 20.3154c3.866 0 7 -3.134 7 -7 0 -3.86596 -3.134 -6.99997 -7 -6.99997 -3.86599 0 -7 3.13401 -7 6.99997 0 3.866 3.13401 7 7 7Z" stroke-width="1"></path>
    <path id="Union" fill="#0c098c" fill-rule="evenodd" d="M10.7502 3.81543v-2.5h2.5v2.5h-2.5ZM2.63095 5.71396l1.76776 1.76777 1.76777 -1.76777 -1.76776 -1.76777 -1.76777 1.76777ZM12 7.56543c-3.17564 0 -5.75 2.57437 -5.75 5.74997 0 0.9967 0.2536 1.9342 0.69979 2.7515l2.79698 -2.797 2.47483 2.4749 -2.74083 2.7408c0.76073 0.3714 1.61563 0.5798 2.51923 0.5798 3.1756 0 5.75 -2.5743 5.75 -5.75 0 -3.1756 -2.5744 -5.74997 -5.75 -5.74997ZM3.75 13.3154c0 -4.55632 3.69365 -8.24997 8.25 -8.24997 4.5564 0 8.25 3.69365 8.25 8.24997 0 4.5564 -3.6936 8.25 -8.25 8.25 -4.55635 0 -8.25 -3.6936 -8.25 -8.25Zm-1.24988 1.25H0.00012207v-2.5H2.50012v2.5Zm21.49998 0h-2.5v-2.5h2.5v2.5Zm-6.1663 6.3517 1.7677 1.7678 1.7678 -1.7678 -1.7678 -1.7678 -1.7677 1.7678Zm1.7678 -16.97091 -1.7678 1.76777 1.7678 1.76777 1.7677 -1.76777 -1.7677 -1.76777ZM2.63098 20.9171l1.76777 -1.7678 1.76776 1.7678 -1.76776 1.7678 -1.76777 -1.7678Z" clip-rule="evenodd" stroke-width="1"></path>
  </g>
</svg>