<svg xmlns="http://www.w3.org/2000/svg" fill="none" viewBox="0 0 14 14" id="Airport-Plane--Streamline-Core">
  <desc>
    Airport Plane Streamline Icon: https://streamlinehq.com
  </desc>
  <g id="airport-plane">
    <path id="Union" fill="#000000" fill-rule="evenodd" d="M11.9795 0.299774c-0.4564 0 -0.8941 0.181296 -1.2168 0.504006l-0.001 0.001032L8.32504 3.26998 3.18613 0.894448C2.97501 0.792974 2.74538 0.735689 2.51132 0.726114 2.27656 0.716511 2.04231 0.75511 1.82304 0.83953c-0.21927 0.084419 -0.41892 0.21287 -0.58663 0.37743 -0.16477 0.16166 -0.295282 0.35481 -0.3838 0.56791 -0.196221 0.37855 -0.243088 0.8172 -0.131001 1.2289 0.113171 0.41569 0.379951 0.7729 0.746401 0.99943l0.00037 0.00023 3.79056 2.33409 -1.18303 1.18304H1.87946c-0.00692 0 -0.01384 0.00028 -0.02074 0.00086 -0.42498 0.03538 -0.82114 0.2292 -1.109904 0.54301 -0.288765 0.3138 -0.449042 0.72468 -0.449042 1.15113s0.160277 0.83734 0.449042 1.15114c0.288764 0.3138 0.684924 0.5076 1.109904 0.543 0.0069 0.0006 0.01382 0.0009 0.02074 0.0009h1.2v1.2c0 0.0069 0.00029 0.0138 0.00086 0.0207 0.03539 0.425 0.2292 0.8211 0.54301 1.1099 0.31381 0.2888 0.72468 0.449 1.15113 0.449s0.83733 -0.1602 1.15113 -0.449c0.31381 -0.2888 0.50763 -0.6849 0.54301 -1.1099 0.00057 -0.0069 0.00086 -0.0138 0.00086 -0.0207V9.92411l1.18303 -1.18303 2.33409 3.79052 0.00023 0.0004c0.22649 0.3665 0.58379 0.6332 0.99939 0.7464 0.412 0.1122 0.851 0.0652 1.2298 -0.1314 0.2073 -0.0878 0.3952 -0.2157 0.5531 -0.3763 0.1605 -0.1634 0.2865 -0.3573 0.3706 -0.5703 0.0841 -0.2131 0.1246 -0.4408 0.119 -0.6698 -0.0055 -0.2289 -0.0571 -0.4544 -0.1515 -0.6631l-0.0004 -0.001 -2.3772 -5.19106 2.4656 -2.43708 0.001 -0.00103c0.3227 -0.32271 0.504 -0.76039 0.504 -1.21677 0 -0.45638 -0.1813 -0.89407 -0.504 -1.21678 -0.3227 -0.32271 -0.7604 -0.504006 -1.2167 -0.504006Z" clip-rule="evenodd" stroke-width="1"></path>
  </g>
</svg>