<svg xmlns="http://www.w3.org/2000/svg" fill="none" viewBox="0 0 14 14" id="Airport-Security--Streamline-Core">
  <desc>
    Airport Security Streamline Icon: https://streamlinehq.com
  </desc>
  <g id="airport-security">
    <path id="Subtract" fill="#000000" fill-rule="evenodd" d="M0.443089 0.439181C0.724292 0.157978 1.10568 0 1.50337 0H12.4974c0.3977 0 0.7791 0.157978 1.0603 0.439181s0.4392 0.662599 0.4392 1.060279v2.99837c0.0011 2.03639 -0.6154 4.02524 -1.7683 5.70387 -1.1529 1.6786 -2.78817 2.9681 -4.6892 3.6981 -0.34705 0.1337 -0.7314 0.1336 -1.07842 -0.0002 -1.90103 -0.7299 -3.53594 -2.0193 -4.6888 -3.6979C0.619305 8.52307 0.00273594 6.53422 0.00390625 4.49783V1.49946c0 -0.39768 0.15797975 -0.779076 0.43918275 -1.060279ZM9.95154 3.80754c-0.31331 -0.11089 -0.64688 -0.1528 -0.97788 -0.12287 -0.32858 0.02972 -0.64693 0.12953 -0.93362 0.29268L4.94069 5.52702l-0.47234 -0.73116c-0.05704 -0.11705 -0.15527 -0.20935 -0.27629 -0.25887 -0.12583 -0.05147 -0.26651 -0.05269 -0.39307 -0.0036l-0.82668 0.28108c-0.12505 0.04609 -0.22817 0.13761 -0.28892 0.25623 -0.06076 0.11861 -0.07469 0.25574 -0.03902 0.38416l0.00289 0.01042 0.74603 2.29535c0.07071 0.19991 0.21763 0.36374 0.40862 0.45587 0.19028 0.09178 0.40901 0.10494 0.60887 0.0367l1.79131 -0.58305 -0.39895 1.31058c-0.00263 0.00865 -0.0048 0.01743 -0.00648 0.02631 -0.018 0.0951 -0.01085 0.19326 0.02074 0.28475 0.03159 0.09149 0.08653 0.17314 0.15937 0.23688 0.07284 0.06374 0.16106 0.10734 0.25594 0.12651 0.09487 0.01916 0.1931 0.01322 0.28497 -0.01724l0.00765 -0.00254 1.18906 -0.43738c0.08527 -0.02793 0.16241 -0.07639 0.22459 -0.14117 0.06161 -0.06416 0.10661 -0.14234 0.13119 -0.22773l0.70033 -2.05065 0.09149 -0.02815 1.93981 -0.56967c0.1019 -0.03135 0.1967 -0.08249 0.2789 -0.15047 0.0821 -0.06798 0.1501 -0.15148 0.2 -0.24573 0.0499 -0.09426 0.0807 -0.19742 0.0908 -0.30359 0.01 -0.10617 -0.001 -0.21328 -0.0324 -0.31521 -0.0017 -0.00568 -0.0037 -0.01129 -0.0058 -0.01683 -0.1202 -0.30988 -0.3058 -0.59015 -0.5443 -0.82164 -0.2385 -0.23149 -0.5241 -0.40875 -0.83746 -0.51964Z" clip-rule="evenodd" stroke-width="1"></path>
  </g>
</svg>