<svg xmlns="http://www.w3.org/2000/svg" fill="none" viewBox="0 0 14 14" id="Bicycle-Bike--Streamline-Core">
  <desc>
    Bicycle Bike Streamline Icon: https://streamlinehq.com
  </desc>
  <g id="bicycle-bike">
    <path id="Union" fill="#000000" fill-rule="evenodd" d="M7.98481 4.14616c0.11657 -0.16973 0.30927 -0.27116 0.51519 -0.27116H11c0.3452 0 0.625 0.27982 0.625 0.625s-0.2798 0.625 -0.625 0.625H9.41002l1.16588 3.03143c0.1396 -0.02081 0.2813 -0.03143 0.4241 -0.03143 0.7625 0 1.4938 0.3029 2.0329 0.84207 0.5392 0.53917 0.8421 1.27043 0.8421 2.03293s-0.3029 1.4938 -0.8421 2.0329c-0.5391 0.5392 -1.2704 0.8421 -2.0329 0.8421 -0.7625 0 -1.49377 -0.3029 -2.03293 -0.8421C8.4279 12.4938 8.125 11.7625 8.125 11c0 -0.409 0.08714 -0.809 0.25115 -1.17517l-0.88494 1.06187c-0.04569 0.0581 -0.10253 0.109 -0.16965 0.1492 -0.08186 0.0491 -0.17044 0.0773 -0.25952 0.0862l-1.19994 0.15c-0.06297 0.6626 -0.35451 1.2862 -0.82917 1.7608 -0.53917 0.5392 -1.27043 0.8421 -2.03293 0.8421s-1.49377 -0.3029 -2.032933 -0.8421C0.427901 12.4938 0.125 11.7625 0.125 11c0 -0.7625 0.302901 -1.49376 0.842067 -2.03293C1.50623 8.4279 2.2375 8.125 3 8.125c0.23606 0 0.46914 0.02904 0.69444 0.08512l0.5463 -1.0941 -0.59461 -0.99102H3c-0.34518 0 -0.625 -0.27982 -0.625 -0.625s0.27982 -0.625 0.625 -0.625h0.98855c0.00724 -0.00013 0.01449 -0.00013 0.02172 0H5.5c0.34518 0 0.625 0.27982 0.625 0.625s-0.27982 0.625 -0.625 0.625h-0.39613l0.38089 0.63483 0.00792 0.01318 1.59049 2.65082 1.807 -2.16832 -0.97351 -2.53115c-0.07392 -0.19219 -0.04843 -0.40846 0.06815 -0.5782Zm2.43179 7.07824 -0.53841 -1.40005c-0.00918 0.00875 -0.01825 0.01762 -0.02724 0.0266C9.5462 10.1557 9.375 10.569 9.375 11c0 0.431 0.1712 0.8443 0.47595 1.149 0.30475 0.3048 0.71805 0.476 1.14905 0.476 0.431 0 0.8443 -0.1712 1.149 -0.476 0.3048 -0.3047 0.476 -0.718 0.476 -1.149 0 -0.431 -0.1712 -0.8443 -0.476 -1.14905 -0.2941 -0.29415 -0.6894 -0.46389 -1.1041 -0.47533l0.5384 1.39998c0.1239 0.3222 -0.0368 0.6838 -0.3589 0.8077 -0.3222 0.124 -0.6838 -0.0368 -0.8078 -0.3589ZM9.404 8.59146l0.00527 0.0137c-0.0128 0.0085 -0.02554 0.01711 -0.03821 0.02582l0.03294 -0.03952Zm-4.40069 -0.2045 -0.43901 0.87921 -0.48377 0.96893 1.07423 -0.1343 0.00035 -0.0001 0.00033 0 0.81497 -0.1019 -0.9671 -1.61184Zm-0.43737 3.04714 -1.48841 0.1861c-0.22866 0.0286 -0.45449 -0.071 -0.58764 -0.2591 -0.13315 -0.1881 -0.152 -0.4341 -0.04906 -0.6403l0.67008 -1.34201C3.07411 9.37627 3.03712 9.375 3 9.375c-0.43098 0 -0.8443 0.1712 -1.14905 0.47595C1.5462 10.1557 1.375 10.569 1.375 11c0 0.431 0.1712 0.8443 0.47595 1.149 0.30475 0.3048 0.71807 0.476 1.14905 0.476 0.43097 0 0.8443 -0.1712 1.14905 -0.476 0.20008 -0.2 0.3426 -0.4469 0.41689 -0.7149Z" clip-rule="evenodd" stroke-width="1"></path>
  </g>
</svg>