<svg xmlns="http://www.w3.org/2000/svg" fill="none" viewBox="0 0 14 14" id="Cane--Streamline-Core">
  <desc>
    Cane Streamline Icon: https://streamlinehq.com
  </desc>
  <g id="cane--disability-cane">
    <path id="Union" fill="#000000" fill-rule="evenodd" d="M5.512 3.917a1.959 1.959 0 1 0 0 -3.917 1.959 1.959 0 0 0 0 3.917ZM9.62 9.271a0.433 0.433 0 0 1 0.836 -0.19l1.411 3.774a0.75 0.75 0 0 0 1.405 -0.526L11.86 8.556a1.933 1.933 0 0 0 -3.735 0.847l0.056 0.641a0.75 0.75 0 0 0 1.494 -0.131L9.62 9.27Zm-5.452 -4.72a1 1 0 0 1 0.936 0.252c0.684 0.661 1.443 1.16 2.658 1.032a1 1 0 1 1 0.21 1.99c-1.276 0.133 -2.269 -0.179 -3.053 -0.644l-0.166 0.509 1.52 1.094a2 2 0 0 1 0.776 1.154l0.584 2.419a1 1 0 1 1 -1.944 0.47l-0.584 -2.42L4.1 9.685l-1.05 3.217a1 1 0 1 1 -1.902 -0.62l2.31 -7.071a1 1 0 0 1 0.71 -0.66Z" clip-rule="evenodd" stroke-width="1"></path>
  </g>
</svg>