<svg xmlns="http://www.w3.org/2000/svg" fill="none" viewBox="0 0 14 14" id="Car-Taxi-1--Streamline-Core">
  <desc>
    Car Taxi 1 Streamline Icon: https://streamlinehq.com
  </desc>
  <g id="car-taxi-1--transportation-travel-taxi-transport-cab-car">
    <path id="Vector" fill="#000000" d="M10.4989 13.2525c-0.82897 0 -1.50101 -0.6721 -1.50101 -1.5011 0 -0.829 0.67204 -1.501 1.50101 -1.501 0.8291 0 1.5011 0.672 1.5011 1.501 0 0.829 -0.672 1.5011 -1.5011 1.5011Z" stroke-width="1"></path>
    <path id="Vector_2" fill="#000000" d="M3.49894 13.2525c-0.82901 0 -1.50106 -0.6721 -1.50106 -1.5011 0 -0.829 0.67205 -1.501 1.50106 -1.501S5 10.9224 5 11.7514c0 0.829 -0.67205 1.5011 -1.50106 1.5011Z" stroke-width="1"></path>
    <path id="Subtract" fill="#000000" fill-rule="evenodd" d="M7 1.25c-0.41421 0 -0.75 0.33579 -0.75 0.75v1.50002H4.78172c-0.32221 -0.01373 -0.64041 0.07676 -0.90731 0.25825 -0.27086 0.18418 -0.47398 0.45196 -0.57835 0.76243l-0.00061 0.00182 -0.65632 1.9775H1.5c-0.39783 0 -0.779356 0.15803 -1.06066 0.43934C0.158035 7.22066 0 7.60219 0 8.00002V10c0 0.3978 0.158035 0.7794 0.43934 1.0607 0.164659 0.1646 0.363657 0.2871 0.58016 0.3603 0.16171 -1.2251 1.21015 -2.17063 2.47942 -2.17063 1.29645 0 2.3625 0.98643 2.48859 2.24963h2.02284c0.12609 -1.2632 1.19214 -2.24963 2.48855 -2.24963 1.2695 0 2.3181 0.94583 2.4795 2.17133 0.2173 -0.0732 0.4171 -0.1958 0.5823 -0.361C13.842 10.7794 14 10.3978 14 10V8.00002c0 -0.39783 -0.158 -0.77936 -0.4393 -1.06066 -0.2813 -0.28131 -0.6629 -0.43934 -1.0607 -0.43934h-1.6316l-0.6109 -1.9682 -0.0034 -0.01117 -0.0002 0.00005c-0.1043 -0.31048 -0.30746 -0.57825 -0.57831 -0.76243 -0.2669 -0.18149 -0.5851 -0.27198 -0.90731 -0.25825H7.75V2c0 -0.41421 -0.33579 -0.75 -0.75 -0.75Z" clip-rule="evenodd" stroke-width="1"></path>
  </g>
</svg>