<svg xmlns="http://www.w3.org/2000/svg" fill="none" viewBox="0 0 14 14" id="Compass-Navigator--Streamline-Core">
  <desc>
    Compass Navigator Streamline Icon: https://streamlinehq.com
  </desc>
  <g id="compass-navigator">
    <path id="Subtract" fill="#000000" fill-rule="evenodd" d="M11.2948 1.0653c0.9083 -0.255063 1.7455 0.58223 1.4905 1.49045L10.693 10.0056c-0.1139 0.4058 -0.431 0.7229 -0.8368 0.8369l-7.44986 2.0922c-0.90822 0.2551 -1.745517 -0.5822 -1.49045 -1.4905l2.09224 -7.44981c0.11396 -0.40578 0.43107 -0.72288 0.83685 -0.83684L11.2948 1.0653ZM8.48792 5.5121c-0.82176 -0.82175 -2.15408 -0.82175 -2.97584 0 -0.82175 0.82176 -0.82175 2.15408 0 2.97584 0.82176 0.82175 2.15408 0.82175 2.97584 0 0.82175 -0.82176 0.82175 -2.15408 0 -2.97584Z" clip-rule="evenodd" stroke-width="1"></path>
  </g>
</svg>