<svg xmlns="http://www.w3.org/2000/svg" fill="none" viewBox="0 0 14 14"><g id="crutch--disability-crutch"><path id="Union" fill="#3e3e3e" fill-rule="evenodd" d="M10.689 2.03a2.03 2.03 0 1 1-4.061 0 2.03 2.03 0 0 1 4.061 0Zm.482 3.873a3.554 3.554 0 0 1 1.041 2.512V9.44a.5.5 0 0 1-.5.5H10.69l-.453 3.623A.5.5 0 0 1 9.74 14H7.577a.5.5 0 0 1-.496-.438l-.438-3.497V8.777a1.75 1.75 0 0 0-.198-3.142 3.554 3.554 0 0 1 4.726.268ZM1.175 7.254c0-.345.28-.625.625-.625h3.992a.625.625 0 0 1 0 1.25h-.261v2.223c0 .742-.466 1.376-1.122 1.623v1.019h.052a.625.625 0 1 1 0 1.25h-1.33a.625.625 0 0 1 0-1.25h.028v-1.03a1.735 1.735 0 0 1-1.096-1.612V7.88H1.8a.625.625 0 0 1-.625-.625Zm2.138.625v2.223a.484.484 0 0 0 .968 0V7.88h-.968Z" clip-rule="evenodd"></path></g></svg>