<svg xmlns="http://www.w3.org/2000/svg" fill="none" viewBox="0 0 14 14" id="Fire-Extinguisher-Sign--Streamline-Core">
  <desc>
    Fire Extinguisher Sign Streamline Icon: https://streamlinehq.com
  </desc>
  <g id="fire-extinguisher-sign">
    <path id="Union" fill="#000000" fill-rule="evenodd" d="M12.7575 0.170243C13.3886 0.012456 14 0.489814 14 1.14039v2.71922c0 0.65057 -0.6114 1.12793 -1.2425 0.97014l-3.00003 -0.75c-0.44019 -0.11004 -0.75046 -0.50235 -0.75735 -0.95475H6.125v0.93064C7.75979 4.35033 9 5.78033 9 7.5v5c0 0.8284 -0.67157 1.5 -1.5 1.5h-4c-0.82843 0 -1.5 -0.6716 -1.5 -1.5v-5c0 -1.71967 1.24021 -3.14967 2.875 -3.44436V3.125H2.65625c-0.75939 0 -1.375 0.61561 -1.375 1.375v2c0 0.34518 -0.27982 0.625 -0.625 0.625 -0.345178 0 -0.625 -0.27982 -0.625 -0.625v-2c0 -1.44975 1.17525 -2.625 2.625 -2.625h6.34387c0.00689 -0.4524 0.31716 -0.84471 0.75734 -0.954757l3.00004 -0.75ZM6 8h2v3H6c-0.55228 0 -1 -0.4477 -1 -1V9c0 -0.55228 0.44772 -1 1 -1Z" clip-rule="evenodd" stroke-width="1"></path>
  </g>
</svg>