<svg xmlns="http://www.w3.org/2000/svg" fill="none" viewBox="0 0 14 14" id="Hotel-Shower-Head--Streamline-Core">
  <desc>
    Hotel Shower Head Streamline Icon: https://streamlinehq.com
  </desc>
  <g id="hotel-shower-head--bathe-bath-bathroom-shower-water-head-hotel">
    <path id="Union" fill="#000000" fill-rule="evenodd" d="M7.75 0.762421c0 -0.414214 -0.33579 -0.7500003 -0.75 -0.7500003S6.25 0.348207 6.25 0.762421V2.07675c-0.91523 0.1547 -1.76696 0.59008 -2.43198 1.25509C2.97411 4.17576 2.5 5.32035 2.5 6.51382c0 0.27615 0.22386 0.5 0.5 0.5h8c0.1326 0 0.2598 -0.05267 0.3536 -0.14644 0.0937 -0.09377 0.1464 -0.22095 0.1464 -0.35356 0 -1.19347 -0.4741 -2.33806 -1.318 -3.18198 -0.66504 -0.66501 -1.51677 -1.10039 -2.432 -1.25509V0.762421ZM5 8.48758c0.41421 0 0.75 0.33579 0.75 0.75v1.00002c0 0.4142 -0.33579 0.75 -0.75 0.75s-0.75 -0.3358 -0.75 -0.75V9.23758c0 -0.41421 0.33579 -0.75 0.75 -0.75Zm-0.75 3.75002c0 -0.4142 -0.33579 -0.75 -0.75 -0.75s-0.75 0.3358 -0.75 0.75v1c0 0.4142 0.33579 0.75 0.75 0.75s0.75 -0.3358 0.75 -0.75v-1Zm2.75 -0.75c0.41421 0 0.75 0.3358 0.75 0.75v1c0 0.4142 -0.33579 0.75 -0.75 0.75s-0.75 -0.3358 -0.75 -0.75v-1c0 -0.4142 0.33579 -0.75 0.75 -0.75Zm4.25 0.75c0 -0.4142 -0.3358 -0.75 -0.75 -0.75s-0.75 0.3358 -0.75 0.75v1c0 0.4142 0.3358 0.75 0.75 0.75s0.75 -0.3358 0.75 -0.75v-1ZM9 8.48758c0.41421 0 0.75 0.33579 0.75 0.75v1.00002c0 0.4142 -0.33579 0.75 -0.75 0.75s-0.75 -0.3358 -0.75 -0.75V9.23758c0 -0.41421 0.33579 -0.75 0.75 -0.75Z" clip-rule="evenodd" stroke-width="1"></path>
  </g>
</svg>