<svg xmlns="http://www.w3.org/2000/svg" fill="none" viewBox="0 0 14 14" id="Ladder--Streamline-Core">
  <desc>
    Ladder Streamline Icon: https://streamlinehq.com
  </desc>
  <g id="ladder--business-product-metaphor-ladder">
    <path id="Union" fill="#000000" fill-rule="evenodd" d="M3.5 0c0.55228 0 1 0.447715 1 1v1.21594h5V1c0 -0.552285 0.44772 -1 1 -1 0.5523 0 1 0.447715 1 1v12c0 0.5523 -0.4477 1 -1 1 -0.55228 0 -1 -0.4477 -1 -1v-1.216h-5V13c0 0.5523 -0.44772 1 -1 1s-1 -0.4477 -1 -1V1c0 -0.552285 0.44772 -1 1 -1Zm1 9.784h5V8h-5v1.784Zm5 -5.56806V6h-5V4.21594h5Z" clip-rule="evenodd" stroke-width="1"></path>
  </g>
</svg>