<svg xmlns="http://www.w3.org/2000/svg" fill="none" viewBox="0 0 14 14" id="Smoking-Area--Streamline-Core">
  <desc>
    Smoking Area Streamline Icon: https://streamlinehq.com
  </desc>
  <g id="smoking-area">
    <path id="Union" fill="#000000" fill-rule="evenodd" d="M12.3135 0.168199c-0.2696 0.215631 -0.3133 0.608939 -0.0976 0.878481 0.4136 0.51707 0.4677 0.8828 0.4306 1.17021 -0.0439 0.34013 -0.2225 0.66941 -0.4853 1.12927l-0.0228 0.03994c-0.2345 0.40995 -0.5383 0.94089 -0.6169 1.54954 -0.0879 0.68134 0.108 1.37811 0.6944 2.11104 0.2156 0.26954 0.6089 0.31324 0.8784 0.09761 0.2696 -0.21564 0.3133 -0.60894 0.0976 -0.87848 -0.4136 -0.51708 -0.4677 -0.8828 -0.4306 -1.17021 0.0438 -0.34014 0.2225 -0.66941 0.4853 -1.12927l0.0228 -0.03995c0.2345 -0.40994 0.5383 -0.94088 0.6169 -1.54953 0.0879 -0.68134 -0.108 -1.378119 -0.6944 -2.111042 -0.2156 -0.2695386 -0.6089 -0.3132395 -0.8784 -0.097609Zm-2.66996 0C9.374 0.38383 9.3303 0.777138 9.54593 1.04668c0.41367 0.51707 0.46777 0.8828 0.43069 1.17021 -0.04389 0.34013 -0.22252 0.66941 -0.48529 1.12927l-0.02285 0.03994c-0.23455 0.40995 -0.53833 0.94089 -0.61686 1.54954 -0.08792 0.68134 0.10798 1.37811 0.69431 2.11104 0.21564 0.26954 0.60897 0.31324 0.87847 0.09761 0.2696 -0.21564 0.3133 -0.60894 0.0976 -0.87848 -0.4136 -0.51708 -0.4677 -0.8828 -0.4307 -1.17021 0.0439 -0.34014 0.2226 -0.66941 0.4853 -1.12927l0.0229 -0.03995c0.2345 -0.40994 0.5383 -0.94088 0.6168 -1.54953 0.088 -0.68134 -0.1079 -1.378119 -0.6943 -2.111042 -0.2156 -0.2695386 -0.60892 -0.3132395 -0.87846 -0.097609ZM13.5 8.87499h-1.875l0 5.00001H13.5c0.2761 0 0.5 -0.2239 0.5 -0.5V9.37499c0 -0.27614 -0.2239 -0.5 -0.5 -0.5ZM1.5 13.875h8.875l0 -5.00001H1.5c-0.828427 0 -1.5 0.67158 -1.5 1.50001v2c0 0.8284 0.671574 1.5 1.5 1.5Z" clip-rule="evenodd" stroke-width="1"></path>
  </g>
</svg>