<svg xmlns="http://www.w3.org/2000/svg" fill="none" viewBox="0 0 14 14" id="Street-Road--Streamline-Core">
  <desc>
    Street Road Streamline Icon: https://streamlinehq.com
  </desc>
  <g id="street-road">
    <path id="Subtract" fill="#000000" fill-rule="evenodd" d="M6.25 0H3.5c-0.23282 0 -0.43484 0.160705 -0.48719 0.38757L0.0128089 13.3876c-0.0342624 0.1484 0.0010463 0.3044 0.0959061 0.4237 0.09486 0.1192 0.238917 0.1887 0.39129 0.1887H6.25l0 -2.1539c0 -0.4142 0.33579 -0.75 0.75 -0.75s0.75 0.3358 0.75 0.75L7.75 14h5.75c0.1524 0 0.2964 -0.0695 0.3913 -0.1887 0.0949 -0.1193 0.1302 -0.2753 0.0959 -0.4237l-3 -13.00003C10.9348 0.160705 10.7328 0 10.5 0H7.75l0 2.15385c0 0.41421 -0.33579 0.75 -0.75 0.75s-0.75 -0.33579 -0.75 -0.75L6.25 0ZM7 5.17303c0.41421 0 0.75 0.33579 0.75 0.75l0 2.15385c0 0.41421 -0.33579 0.75 -0.75 0.75s-0.75 -0.33579 -0.75 -0.75l0 -2.15385c0 -0.41421 0.33579 -0.75 0.75 -0.75Z" clip-rule="evenodd" stroke-width="1"></path>
  </g>
</svg>