<svg xmlns="http://www.w3.org/2000/svg" fill="none" viewBox="0 0 14 14" id="Wheelchair-1--Streamline-Core">
  <desc>
    Wheelchair 1 Streamline Icon: https://streamlinehq.com
  </desc>
  <g id="wheelchair-1--person-access-wheelchair-accomodation-human-disability-disabled-user">
    <path id="Union" fill="#000000" fill-rule="evenodd" d="M7.98062 0C6.87607 0 5.98065 0.895414 5.98065 1.99996c0 1.10455 0.89542 1.99997 1.99997 1.99997 1.10455 0 1.99996 -0.89542 1.99996 -1.99997C9.98058 0.895414 9.08517 0 7.98062 0Zm0 5c0.55229 0 1 0.44772 1 1v2h1.53898c0.5253 0 1.029 0.20867 1.4005 0.5801 0.3714 0.37143 0.5801 0.87519 0.5801 1.40048V13c0 0.5523 -0.4478 1 -1 1 -0.5523 0 -1 -0.4477 -1 -1v-3H7.98062c-0.55228 0 -1 -0.44772 -1 -1V6c0 -0.55228 0.44772 -1 1 -1Zm-2.4507 2.13348c0.41421 -0.00042 0.74966 -0.33654 0.74924 -0.75076 -0.00042 -0.41421 -0.33655 -0.74965 -0.75076 -0.74924 -0.7549 0.00077 -1.49552 0.20585 -2.14328 0.5935 -0.64777 0.38765 -1.17853 0.94341 -1.53598 1.60832 -0.35744 0.66492 -0.52825 1.41418 -0.49429 2.1683 0.03396 0.7542 0.27141 1.485 0.68717 2.1151 0.41576 0.6301 0.99432 1.1359 1.6743 1.4638 0.67999 0.3279 1.43604 0.4656 2.18795 0.3985 0.75192 -0.0671 1.47165 -0.3365 2.08286 -0.7795 0.2879 -0.2087 0.54667 -0.4523 0.77097 -0.7241 0.26365 -0.3195 0.2184 -0.7922 -0.10107 -1.0559 -0.31947 -0.2636 -0.79219 -0.2184 -1.05584 0.1011 -0.14385 0.1743 -0.3098 0.3305 -0.49444 0.4644 -0.39198 0.2841 -0.85356 0.4569 -1.33578 0.4999 -0.48221 0.043 -0.96709 -0.0453 -1.40317 -0.2555 -0.43609 -0.2103 -0.80714 -0.5347 -1.07377 -0.9388 -0.26664 -0.4041 -0.41892 -0.8728 -0.4407 -1.35646 -0.02178 -0.48364 0.08776 -0.96416 0.317 -1.39058 0.22924 -0.42642 0.56963 -0.78284 0.98506 -1.03145 0.41542 -0.24861 0.89039 -0.38014 1.37453 -0.38063Z" clip-rule="evenodd" stroke-width="1"></path>
  </g>
</svg>