<svg xmlns="http://www.w3.org/2000/svg" fill="none" viewBox="0 0 24 24" id="Call-Forwarding-Outgoing-1--Streamline-Ultimate">
  <desc>
    Call Forwarding Outgoing 1 Streamline Icon: https://streamlinehq.com
  </desc>
  <path fill="#000000" fill-rule="evenodd" d="M0.735384 4.0681C1.31396 1.75381 3.39906 0 5.86299 0h0.9c1.21421 0 2.25 1.03579 2.25 2.25v3.7c0 1.21421 -1.03579 2.25 -2.25 2.25 -0.38579 0 -0.75 0.36421 -0.75 0.75v6c0 0.3858 0.36421 0.75 0.75 0.75 1.21422 0 2.25 1.0358 2.25 2.25v3.8c0 1.2142 -1.03579 2.25 -2.25 2.25h-0.9c-2.44766 0 -4.54925 -1.6388 -5.129604 -4.0763l-0.002619 -0.011 0.000083 0C-0.294826 15.2972 -0.190196 8.58966 0.728204 4.0997c0.002166 -0.01058 0.004559 -0.02112 0.00718 -0.0316ZM10.9499 12c0 -0.5523 0.4478 -1 1 -1h6.35V7.75c0 -0.30415 0.1837 -0.57819 0.4651 -0.69376 0.2813 -0.11556 0.6046 -0.04976 0.8184 0.16658l4.2 4.24998c0.2887 0.2922 0.2887 0.7622 0 1.0544l-4.2 4.25c-0.2138 0.2163 -0.5371 0.2821 -0.8184 0.1666 -0.2814 -0.1156 -0.4651 -0.3896 -0.4651 -0.6938V13h-6.35c-0.5522 0 -1 -0.4477 -1 -1Z" clip-rule="evenodd" stroke-width="1"></path>
</svg>