<svg xmlns="http://www.w3.org/2000/svg" viewBox="0 0 24 24" id="Cellular-Network-Wifi-3-G--Streamline-Ultimate">
  <desc>
    Cellular Network Wifi 3 G Streamline Icon: https://streamlinehq.com
  </desc>
  <g id="Cellular-Network-Wifi-3-G--Streamline-Ultimate.svg">
    <path d="M15.2 11.85a1 1 0 0 0 1.59 -1.22 6.07 6.07 0 0 0 -9.59 0 1 1 0 0 0 1.59 1.22 4.06 4.06 0 0 1 6.41 0Z" fill="#000000" stroke-width="1"></path>
    <path d="M12 4.14a9.31 9.31 0 0 0 -7.29 3.49 1 1 0 0 0 1.56 1.25 7.34 7.34 0 0 1 11.44 0 1 1 0 0 0 1.41 0.12 1 1 0 0 0 0.15 -1.4A9.32 9.32 0 0 0 12 4.14Z" fill="#000000" stroke-width="1"></path>
    <path d="M21.8 4.75a12.5 12.5 0 0 0 -19.6 0A1 1 0 1 0 3.76 6a10.5 10.5 0 0 1 16.47 0 1 1 0 0 0 1.41 0.16 1 1 0 0 0 0.16 -1.41Z" fill="#000000" stroke-width="1"></path>
    <path d="M8 14H5a1 1 0 0 0 0 2h3a1 1 0 0 1 0 2H6.52a1 1 0 0 0 0 2H8a1 1 0 0 1 0 2H5a1 1 0 0 0 0 2h3a3 3 0 0 0 3 -3 3 3 0 0 0 -0.77 -2 3 3 0 0 0 0.77 -2 3 3 0 0 0 -3 -3Z" fill="#000000" stroke-width="1"></path>
    <path d="M16 16a1 1 0 0 1 1 1 1 1 0 0 0 2 0 3 3 0 0 0 -6 0v4a3 3 0 0 0 6 0v-1a1 1 0 0 0 -1 -1h-1.5a1 1 0 1 0 0 2h0.5a1 1 0 0 1 -2 0v-4a1 1 0 0 1 1 -1Z" fill="#000000" stroke-width="1"></path>
  </g>
</svg>