<svg xmlns="http://www.w3.org/2000/svg" viewBox="0 0 24 24" id="Forbidden-Phone-Off--Streamline-Ultimate">
  <desc>
    Forbidden Phone Off Streamline Icon: https://streamlinehq.com
  </desc>
  <g id="Forbidden-Phone-Off--Streamline-Ultimate.svg">
    <path d="M7.5 12.78V5a1 1 0 0 1 1 -1h7a0.88 0.88 0 0 1 0.33 0.06 0.58 0.58 0 0 0 0.39 0 1.43 1.43 0 0 0 0.26 -0.18l1.3 -1.3a0.26 0.26 0 0 0 0 -0.35A2.52 2.52 0 0 0 16 1.5H8A2.5 2.5 0 0 0 5.5 4v10.28a0.25 0.25 0 0 0 0.43 0.17L7.43 13a0.26 0.26 0 0 0 0.07 -0.22Z" fill="#000000" stroke-width="1"></path>
    <path d="M23.71 0.29a1 1 0 0 0 -1.42 0l-22 22a1 1 0 0 0 -0.18 1.16 0.87 0.87 0 0 0 0.18 0.26 1 1 0 0 0 1.42 0l3.92 -3.92A2.51 2.51 0 0 0 8 21.5h8a2.5 2.5 0 0 0 2.5 -2.5V6.91l5.21 -5.2a1 1 0 0 0 0.18 -1.16 0.87 0.87 0 0 0 -0.18 -0.26ZM15.5 17H9l-0.18 -0.43 7.23 -7.23a0.25 0.25 0 0 1 0.43 0.18V16a1 1 0 0 1 -0.98 1Z" fill="#000000" stroke-width="1"></path>
  </g>
</svg>