<svg xmlns="http://www.w3.org/2000/svg" viewBox="0 0 24 24" id="Phone-Action-Data-Transfer-1--Streamline-Ultimate">
  <desc>
    Phone Action Data Transfer 1 Streamline Icon: https://streamlinehq.com
  </desc>
  <g id="Phone-Action-Data-Transfer-1--Streamline-Ultimate.svg">
    <path d="M12 12.75v5.75a1 1 0 0 1 -1 1H4a1 1 0 0 1 -1 -1v-11a1 1 0 0 1 1 -1h5.25a0.25 0.25 0 0 0 0.25 -0.25v-2A0.25 0.25 0 0 0 9.25 4H3.5A2.5 2.5 0 0 0 1 6.5v15A2.5 2.5 0 0 0 3.5 24h8a2.5 2.5 0 0 0 2.5 -2.5v-8.75a0.25 0.25 0 0 0 -0.25 -0.25h-1.5a0.25 0.25 0 0 0 -0.25 0.25Z" fill="#000000" stroke-width="1"></path>
    <path d="m13.91 10.79 2.5 -3.5a0.49 0.49 0 0 0 0 -0.52 0.48 0.48 0 0 0 -0.41 -0.27h-1.25V1.25a1.25 1.25 0 0 0 -2.5 0V6.5H11a0.48 0.48 0 0 0 -0.44 0.27 0.49 0.49 0 0 0 0 0.52l2.5 3.5a0.51 0.51 0 0 0 0.82 0Z" fill="#000000" stroke-width="1"></path>
    <path d="m22.91 3.71 -2.5 -3.5a0.53 0.53 0 0 0 -0.82 0l-2.5 3.5a0.49 0.49 0 0 0 0 0.52 0.48 0.48 0 0 0 0.44 0.27h1.25v5.25a1.25 1.25 0 0 0 2.5 0V4.5h1.22a0.48 0.48 0 0 0 0.44 -0.27 0.49 0.49 0 0 0 -0.03 -0.52Z" fill="#000000" stroke-width="1"></path>
  </g>
</svg>