<svg xmlns="http://www.w3.org/2000/svg" viewBox="0 0 24 24" id="Phone-Flash-Light--Streamline-Ultimate">
  <desc>
    Phone Flash Light Streamline Icon: https://streamlinehq.com
  </desc>
  <g id="Phone-Flash-Light--Streamline-Ultimate.svg">
    <path d="M18.5 3V1a1 1 0 0 0 -1 -1h-11a1 1 0 0 0 -1 1v2Z" fill="#000000" stroke-width="1"></path>
    <path d="M5.5 4.5v2.44a2 2 0 0 0 0.26 1l1.48 2.58a2 2 0 0 1 0.26 1V22a2 2 0 0 0 2 2h5a2 2 0 0 0 2 -2V11.5a2 2 0 0 1 0.26 -1l1.48 -2.58a2 2 0 0 0 0.26 -1V4.5Zm8 8a1.5 1.5 0 0 1 -3 0v-2a1.5 1.5 0 0 1 3 0Z" fill="#000000" stroke-width="1"></path>
  </g>
</svg>