<svg xmlns="http://www.w3.org/2000/svg" viewBox="0 0 24 24" id="Phone-Circle--Streamline-Ultimate">
  <desc>
    Phone Circle Streamline Icon: https://streamlinehq.com
  </desc>
  <path d="M12 0a12 12 0 0 0 0 24c4.48 0 6.14 -1.74 6.74 -3.2a4 4 0 0 0 -0.18 -3.61 1.91 1.91 0 0 0 0 -2.57l-1.44 -1.43a1.93 1.93 0 0 0 -2.72 0.1l-0.21 0.21a28.35 28.35 0 0 1 -3.69 -3.68l0.21 -0.21a1.94 1.94 0 0 0 0.11 -2.73L9.39 5.45a1.94 1.94 0 0 0 -2.73 0.11l-0.87 0.87a2.73 2.73 0 0 0 -0.48 3.32 28.72 28.72 0 0 0 8.93 8.93 2.46 2.46 0 0 0 1.32 0.37 2.84 2.84 0 0 0 1.44 -0.43 2.5 2.5 0 0 1 -0.28 1.69C16.09 21.41 14.45 22 12 22a10 10 0 1 1 8.25 -4.34 1 1 0 1 0 1.64 1.13A11.87 11.87 0 0 0 24 12 12 12 0 0 0 12 0Z" fill="#000000" stroke-width="1"></path>
</svg>