<svg xmlns="http://www.w3.org/2000/svg" fill="none" viewBox="0 0 24 24" id="Trading-Graph--Streamline-Freehand">
  <desc>
    Trading Graph Streamline Icon: https://streamlinehq.com
  </desc>
  <path fill="#000000" fill-rule="evenodd" d="M1.29806 3.90434c-0.23723 2.84475 -0.16316 5.70552 0.22222 8.53426 0.00685 0.1054 0.05407 0.2041 0.13184 0.2756 0.07777 0.0714 0.1801 0.1102 0.28571 0.1081 0.1056 -0.0021 0.20634 -0.0448 0.28126 -0.1192 0.07492 -0.0745 0.11825 -0.1749 0.12098 -0.2805 0.26341 -2.84702 0.176 -5.7156 -0.26025 -8.54128 -0.00151 -0.05127 -0.01311 -0.10173 -0.03412 -0.14852 -0.02102 -0.04678 -0.05104 -0.08897 -0.08836 -0.12415 -0.03732 -0.03518 -0.0812 -0.06266 -0.12914 -0.08089 -0.04794 -0.01822 -0.09901 -0.02682 -0.15027 -0.02531 -0.05127 0.00151 -0.10173 0.01311 -0.14851 0.03412 -0.04679 0.02102 -0.08898 0.05104 -0.12416 0.08836 -0.03518 0.03732 -0.06266 0.0812 -0.08089 0.12914 -0.01822 0.04795 -0.02782 0.09901 -0.02631 0.15027Z" clip-rule="evenodd" stroke-width="1"></path>
  <path fill="#000000" fill-rule="evenodd" d="M6.91049 0.516064C5.86748 12.1643 7.69324 9.70695 7.67022 9.35461c0.2319 -2.93972 0.23792 -5.8929 0.01802 -8.833541 0.00066 -0.103136 -0.03967 -0.202312 -0.11213 -0.27571C7.54023 0.209016 7.49754 0.180096 7.45049 0.16025 7.40343 0.140403 7.35293 0.130019 7.30186 0.129691c-0.10313 -0.000664 -0.20231 0.03967 -0.27571 0.112129 -0.07339 0.072459 -0.115 0.171108 -0.11566 0.274244Z" clip-rule="evenodd" stroke-width="1"></path>
  <path fill="#000000" fill-rule="evenodd" d="M13.0254 2.6181c-0.3262 2.11128 -0.2944 4.26244 0.0941 6.36315 0.0074 0.10605 0.0557 0.20509 0.1347 0.27625 0.079 0.07116 0.1825 0.1089 0.2887 0.10527 0.1063 -0.00363 0.207 -0.04835 0.2809 -0.12474 0.0739 -0.07639 0.1154 -0.17849 0.1155 -0.2848 0.251 -2.10937 0.2051 -4.24349 -0.1361 -6.34014 -0.0007 -0.10313 -0.0423 -0.20178 -0.1157 -0.27424 -0.0734 -0.07246 -0.1726 -0.11279 -0.2757 -0.11213 -0.1031 0.00066 -0.2018 0.04227 -0.2742 0.11567 -0.0725 0.0734 -0.1128 0.17257 -0.1122 0.27571Z" clip-rule="evenodd" stroke-width="1"></path>
  <path fill="#000000" fill-rule="evenodd" d="M18.6449 3.46592c0.0015 0.05383 0.0136 0.10683 0.0356 0.15598 0.022 0.04916 0.0534 0.09349 0.0926 0.13049 0.0391 0.03699 0.0851 0.06591 0.1354 0.08512 0.0503 0.0192 0.1039 0.02831 0.1578 0.02679 0.0538 -0.00151 0.1068 -0.01361 0.1559 -0.0356 0.0492 -0.022 0.0935 -0.05346 0.1305 -0.09259 0.037 -0.03913 0.0659 -0.08517 0.0852 -0.13548 0.0192 -0.05031 0.0283 -0.10391 0.0267 -0.15773 0.8399 -4.242107 -2.0019 -4.71456 -0.8197 0.02302Z" clip-rule="evenodd" stroke-width="1"></path>
  <path fill="#000000" fill-rule="evenodd" d="M1.78654 17.5075c-0.30705 1.9988 -0.28405 4.0345 0.06806 6.0258 0.00725 0.1037 0.05354 0.2007 0.12951 0.2715 0.07598 0.0709 0.176 0.1103 0.27989 0.1103 0.10388 0 0.2039 -0.0394 0.27988 -0.1103 0.07598 -0.0708 0.12226 -0.1678 0.12951 -0.2715 0.29729 -2.0019 0.26025 -4.0389 -0.1091 -6.0288 0.00246 -0.0527 -0.00582 -0.1054 -0.02435 -0.1549 -0.01853 -0.0494 -0.04692 -0.0945 -0.08344 -0.1327 -0.03652 -0.0381 -0.08041 -0.0684 -0.129 -0.089 -0.0486 -0.0206 -0.10088 -0.0312 -0.15367 -0.031 -0.05279 0.0002 -0.10499 0.0112 -0.15342 0.0322 -0.04843 0.021 -0.09209 0.0516 -0.12831 0.09 -0.03623 0.0384 -0.06426 0.0838 -0.08241 0.1334 -0.01815 0.0495 -0.02603 0.1023 -0.02315 0.155Z" clip-rule="evenodd" stroke-width="1"></path>
  <path fill="#000000" fill-rule="evenodd" d="M7.22078 13.7819c-0.23322 2.4263 -0.14013 4.8747 0.27727 7.276 0.00999 0.1041 0.05933 0.2005 0.13796 0.2694 0.07862 0.069 0.1806 0.1053 0.2851 0.1016 0.10451 -0.0037 0.20365 -0.0472 0.2772 -0.1215 0.07355 -0.0744 0.11594 -0.174 0.11853 -0.2785 0.23141 -2.429 0.12428 -4.8785 -0.3183 -7.278 -0.0003 -0.0522 -0.0111 -0.1039 -0.03175 -0.1518 -0.02065 -0.048 -0.05073 -0.0913 -0.08846 -0.1274 -0.03772 -0.0361 -0.08233 -0.0642 -0.13115 -0.0827 -0.04882 -0.0185 -0.10086 -0.027 -0.15304 -0.025 -0.05217 0.002 -0.10341 0.0145 -0.15066 0.0367 -0.04724 0.0222 -0.08954 0.0537 -0.12438 0.0926 -0.03483 0.0389 -0.06148 0.0844 -0.07837 0.1338 -0.01689 0.0494 -0.02368 0.1027 -0.01995 0.1548Z" clip-rule="evenodd" stroke-width="1"></path>
  <path fill="#000000" fill-rule="evenodd" d="M13.2196 14.0862c-0.3455 2.5506 -0.3016 5.1389 0.1301 7.6764 0.0077 0.1086 0.0582 0.2097 0.1405 0.281 0.0822 0.0713 0.1894 0.1071 0.298 0.0994 0.1085 -0.0077 0.2096 -0.0582 0.2809 -0.1405 0.0714 -0.0822 0.1071 -0.1894 0.0994 -0.2979 0.1889 -2.5448 0.1312 -5.1018 -0.1721 -7.6354 -0.0069 -0.1 -0.052 -0.1935 -0.1261 -0.2611 -0.074 -0.0675 -0.1712 -0.104 -0.2714 -0.1016 -0.1002 0.0023 -0.1957 0.0432 -0.2665 0.1141 -0.0708 0.0709 -0.1116 0.1664 -0.1138 0.2666l0.001 -0.001Z" clip-rule="evenodd" stroke-width="1"></path>
  <path fill="#000000" fill-rule="evenodd" d="M18.9652 9.86811c-0.2909 4.53339 -0.2565 9.08169 0.1031 13.61019 0.0072 0.1036 0.0535 0.2006 0.1295 0.2715 0.076 0.0708 0.176 0.1102 0.2799 0.1102 0.1038 0 0.2039 -0.0394 0.2798 -0.1102 0.076 -0.0709 0.1223 -0.1679 0.1296 -0.2715 0.3031 -4.5346 0.2563 -9.0858 -0.1402 -13.61319 -0.0074 -0.09869 -0.052 -0.19089 -0.1247 -0.25804 -0.0727 -0.06716 -0.1681 -0.10428 -0.2671 -0.1039 -0.0989 0.00038 -0.1941 0.03823 -0.2662 0.10595 -0.0722 0.06771 -0.1161 0.16025 -0.1227 0.25899h-0.001Z" clip-rule="evenodd" stroke-width="1"></path>
  <path fill="#000000" fill-rule="evenodd" d="M20.2094 7.1665c-0.5318 -0.06265 -1.0657 -0.10639 -1.6006 -0.13113 -0.0531 0.00361 -0.1065 -0.00359 -0.1568 -0.02117 -0.0503 -0.01757 -0.0965 -0.04516 -0.1358 -0.08109 -0.0394 -0.03593 -0.071 -0.07946 -0.0931 -0.12796 -0.022 -0.0485 -0.034 -0.10097 -0.0353 -0.15424 -0.0012 -0.05327 0.0084 -0.10623 0.0282 -0.15569 0.0198 -0.04946 0.0495 -0.09439 0.0871 -0.13208 0.0377 -0.03769 0.0826 -0.06736 0.132 -0.08722 0.0495 -0.01985 0.1024 -0.02949 0.1557 -0.02831 1.5688 -0.17822 3.1486 -0.24011 4.7266 -0.18518 0.9139 -0.004 0.7287 1.44039 0.4764 3.4113 -0.083 0.62257 -0.1548 1.24667 -0.2152 1.87177 0.004 0.0562 -0.0037 0.1126 -0.0225 0.1657 -0.0188 0.053 -0.0483 0.1017 -0.0867 0.1429s-0.0849 0.074 -0.1365 0.0964c-0.0517 0.0225 -0.1074 0.0341 -0.1637 0.0341 -0.0563 0 -0.112 -0.0116 -0.1636 -0.0341 -0.0517 -0.0224 -0.0981 -0.0552 -0.1365 -0.0964 -0.0384 -0.0412 -0.0679 -0.0899 -0.0867 -0.1429 -0.0188 -0.0531 -0.0265 -0.1095 -0.0226 -0.1657 -0.0961 -1.45637 -0.084 -1.97587 -0.07 -2.60248 0.005 -0.19619 0.01 -0.40239 0.011 -0.65163 -0.2853 0.22022 -0.6647 0.50149 -1.1641 0.87285 -0.9019 0.67065 -2.1942 1.63156 -4.0259 3.03796 -2.7737 2.129 -3.6195 3.2111 -4.2712 3.104 -0.5555 -0.0901 -0.9689 -1.047 -2.3162 -2.9549 -3.55545 2.4894 -5.13098 3.5174 -6.65245 4.5094 -1.04301 0.6806 -2.06199 1.3453 -3.676554 2.4534 -0.083861 0.0514 -0.184036 0.0692 -0.280493 0.0499 -0.096456 -0.0192 -0.182084 -0.0742 -0.2397569 -0.1539 -0.0576733 -0.0797 -0.08314151 -0.1782 -0.0713112 -0.2758 0.0118303 -0.0977 0.060087 -0.1873 0.1351191 -0.2509 2.212756 -1.7109 4.458686 -3.3785 6.736516 -5.0018 2.76668 -1.9809 3.66953 -2.9358 4.33823 -2.7927 0.5775 0.1231 0.9809 1.069 2.2622 2.8838 3.107 -2.4584 5.3071 -3.91679 8.6633 -6.14295l0.1552 -0.1031c-0.8809 -0.03203 -1.4985 -0.09809 -2.084 -0.16015Z" clip-rule="evenodd" stroke-width="1"></path>
</svg>