<svg xmlns="http://www.w3.org/2000/svg" fill="none" viewBox="0 0 16 16" id="Globe--Streamline-Block-Free">
  <desc>
    Globe Streamline Icon: https://streamlinehq.com
  </desc>
  <path fill="#000000" fill-rule="evenodd" d="M14.6337 12.4729C15.4963 11.1961 16 9.65685 16 8c0 -4.41828 -3.5817 -8 -8 -8 -0.9013 0 -1.76779 0.149047 -2.57616 0.423839C2.26947 1.49611 0 4.48302 0 8c0 2.2091 0.895435 4.2091 2.34315 5.6569C3.79086 15.1046 5.79086 16 8 16c2.7199 0 5.1229 -1.3574 6.5683 -3.4317 0.022 -0.0317 0.0438 -0.0635 0.0654 -0.0954ZM2 8c0 1.65685 0.67157 3.1569 1.75736 4.2426L8 8H2Zm9 1 2.1237 2.1237C13.6796 10.2138 14 9.14433 14 8c0 -3.31371 -2.6863 -6 -6 -6 -0.31582 0 -0.62594 0.0244 -0.92858 0.07142L11 6v3Z" clip-rule="evenodd" stroke-width="1"></path>
</svg>