<svg xmlns="http://www.w3.org/2000/svg" viewBox="0 0 24 24" id="Shipment-Cargo-Boat--Streamline-Ultimate">
  <desc>
    Shipment Cargo Boat Streamline Icon: https://streamlinehq.com
  </desc>
  <g id="Shipment-Cargo-Boat--Streamline-Ultimate.svg">
    <path d="M23.25 16.83h-22a1.21 1.21 0 0 0 -0.92 0.41 1.25 1.25 0 0 0 -0.32 1 5.74 5.74 0 0 0 0.69 2.13 0.25 0.25 0 0 0 0.23 0.13 2.26 2.26 0 0 1 0.45 0c0.58 0.08 1.49 -0.68 1.83 -1.1a2.56 2.56 0 0 1 1.95 -0.94 2.49 2.49 0 0 1 2.13 1.19 2 2 0 0 0 1.41 0.82 2.7 2.7 0 0 0 1.81 -1 2.5 2.5 0 0 1 4.29 0.4 1.2 1.2 0 0 0 1 0.57 1.78 1.78 0 0 0 1.37 -0.76 2.51 2.51 0 0 1 2.17 -1.25 2.55 2.55 0 0 1 2.13 1.19c0.08 0.1 0.7 0.87 1.27 0.81a2 2 0 0 1 0.35 0 0.26 0.26 0 0 0 0.22 -0.13 5.67 5.67 0 0 0 0.69 -2.72 0.75 0.75 0 0 0 -0.75 -0.75Z" fill="#000000" stroke-width="1"></path>
    <path d="M23.25 1a0.76 0.76 0 0 0 -0.75 0.75v1.63a0.24 0.24 0 0 1 -0.12 0.21 0.25 0.25 0 0 1 -0.25 0A4.52 4.52 0 0 0 20.25 3 1.23 1.23 0 0 0 19 4.25V6.5a0.25 0.25 0 0 0 0.25 0.25H21a0.75 0.75 0 0 1 0 1.5h-1.75a0.25 0.25 0 0 0 -0.25 0.25v6.08a0.76 0.76 0 0 0 0.75 0.75h3.5a0.76 0.76 0 0 0 0.75 -0.75V1.75a0.76 0.76 0 0 0 -0.75 -0.75Z" fill="#000000" stroke-width="1"></path>
    <path d="M22.87 21.94c-1.63 0.21 -2.74 -1.5 -2.75 -1.52a1 1 0 0 0 -1.72 0A3.25 3.25 0 0 1 15.73 22a2.74 2.74 0 0 1 -2.34 -1.44 1 1 0 0 0 -1.71 -0.15 4.26 4.26 0 0 1 -3 1.59A3.43 3.43 0 0 1 6 20.42a1 1 0 0 0 -1.64 -0.09S2.8 22.2 1.13 22a1 1 0 1 0 -0.26 2 5.09 5.09 0 0 0 0.55 0 5.61 5.61 0 0 0 3.48 -1.43 0.24 0.24 0 0 1 0.32 0A5.13 5.13 0 0 0 8.65 24a5.7 5.7 0 0 0 3.56 -1.32 0.25 0.25 0 0 1 0.33 0A4.48 4.48 0 0 0 15.73 24a5.06 5.06 0 0 0 3.38 -1.3 0.24 0.24 0 0 1 0.33 0 4.54 4.54 0 0 0 3.69 1.26 1 1 0 1 0 -0.26 -2Z" fill="#000000" stroke-width="1"></path>
    <path d="M11.52 10.5h5s1 0 1 1v3.33s0 1 -1 1h-5s-1 0 -1 -1V11.5s0 -1 1 -1" fill="#000000" stroke-width="1"></path>
    <path d="M4.33 10.76a1 1 0 0 0 0.67 -0.27 1 1 0 0 0 0.05 -1.41 0.89 0.89 0 0 1 -0.25 -0.61 0.91 0.91 0 1 1 1.58 0.6 1 1 0 1 0 1.5 1.32A2.89 2.89 0 0 0 6.55 5.7V3.85a0.25 0.25 0 0 1 0.15 -0.22 0.26 0.26 0 0 1 0.27 0L13 8.82a0.8 0.8 0 0 0 0.49 0.18H17a0.74 0.74 0 0 0 0.71 -0.53 0.75 0.75 0 0 0 -0.29 -0.84L6.88 0.32a1.48 1.48 0 0 0 -2.32 0.94v4.56a2.89 2.89 0 0 0 -0.95 4.62 1 1 0 0 0 0.72 0.32Z" fill="#000000" stroke-width="1"></path>
  </g>
</svg>