<svg xmlns="http://www.w3.org/2000/svg" viewBox="0 0 24 24" id="Shipping-Logistic-Free-Shipping-Delivery-Truck--Streamline-Ultimate">
  <desc>
    Shipping Logistic Free Shipping Delivery Truck Streamline Icon: https://streamlinehq.com
  </desc>
  <g id="Shipping-Logistic-Free-Shipping-Delivery-Truck--Streamline-Ultimate.svg">
    <g>
      <path d="M12.12 8.2h-0.78v1.56h0.78a0.78 0.78 0 1 0 0 -1.56Z" fill="#000000" stroke-width="1"></path>
      <path d="M21.68 2.54H7.55A2.66 2.66 0 0 0 5.2 4.63L3.37 10.8s-1.38 0.38 -2.21 0.68a1.88 1.88 0 0 0 -0.93 1.74v5.16a1 1 0 0 0 1.05 1.05h0.55a3.08 3.08 0 0 1 0 -0.53 3.56 3.56 0 0 1 7.12 0 3.88 3.88 0 0 1 -0.15 1h6.48a3.88 3.88 0 0 1 -0.15 -1 3.56 3.56 0 0 1 7.12 0 3.08 3.08 0 0 1 0 0.53h0.55a1 1 0 0 0 1.05 -1.05V4.63a2.09 2.09 0 0 0 -2.17 -2.09ZM8.15 10.27a0.5 0.5 0 0 1 0.5 0.5 0.5 0.5 0 0 1 -0.5 0.5H6.86v2.06a0.5 0.5 0 0 1 -0.5 0.5 0.5 0.5 0 0 1 -0.5 -0.5V7.7a0.51 0.51 0 0 1 0.5 -0.5h1.79a0.5 0.5 0 0 1 0.5 0.5 0.5 0.5 0 0 1 -0.5 0.5H6.86v2.07Zm5.75 2v1a0.5 0.5 0 0 1 -0.5 0.5 0.5 0.5 0 0 1 -0.5 -0.5v-1a1.56 1.56 0 0 0 -1.55 -1.55v2.57a0.5 0.5 0 1 1 -1 0V7.7a0.5 0.5 0 0 1 0.5 -0.5h1.28a1.78 1.78 0 0 1 1 3.26 2.55 2.55 0 0 1 0.77 1.85Zm3.78 -2a0.5 0.5 0 0 1 0.5 0.5 0.5 0.5 0 0 1 -0.5 0.5h-1.29v1.56h1.29a0.5 0.5 0 0 1 0.5 0.5 0.5 0.5 0 0 1 -0.5 0.5h-1.79a0.5 0.5 0 0 1 -0.5 -0.5V7.7a0.51 0.51 0 0 1 0.5 -0.5h1.79a0.5 0.5 0 0 1 0.5 0.5 0.5 0.5 0 0 1 -0.5 0.5h-1.29v2.07Zm4.29 0a0.51 0.51 0 0 1 0.5 0.5 0.5 0.5 0 0 1 -0.5 0.5h-1.29v1.56H22a0.51 0.51 0 0 1 0.5 0.5 0.5 0.5 0 0 1 -0.5 0.5h-1.82a0.5 0.5 0 0 1 -0.5 -0.5V7.7a0.5 0.5 0 0 1 0.5 -0.5H22a0.51 0.51 0 0 1 0.5 0.5 0.5 0.5 0 0 1 -0.5 0.5h-1.32v2.07Z" fill="#000000" stroke-width="1"></path>
    </g>
    <path d="M2.79 18.9a2.56 2.56 0 1 0 5.12 0 2.56 2.56 0 1 0 -5.12 0" fill="#000000" stroke-width="1"></path>
    <path d="M16.09 18.9a2.56 2.56 0 1 0 5.12 0 2.56 2.56 0 1 0 -5.12 0" fill="#000000" stroke-width="1"></path>
  </g>
</svg>