<svg xmlns="http://www.w3.org/2000/svg" viewBox="0 0 24 24" id="Shipment-Online-Monitor-1--Streamline-Ultimate">
  <desc>
    Shipment Online Monitor 1 Streamline Icon: https://streamlinehq.com
  </desc>
  <g id="Shipment-Online-Monitor-1--Streamline-Ultimate.svg">
    <path d="M11.5 6a0.24 0.24 0 0 0 -0.15 -0.24l-5 -2.08a0.23 0.23 0 0 0 -0.24 0 0.24 0.24 0 0 0 -0.11 0.24V9.8a1 1 0 0 0 0.61 0.92l4.54 1.92a0.26 0.26 0 0 0 0.24 0 0.25 0.25 0 0 0 0.11 -0.21c0 -4.88 -0.01 -6.09 0 -6.43Z" fill="#000000" stroke-width="1"></path>
    <path d="M16.8 3a0.25 0.25 0 0 0 0 -0.46L12.38 0.66a1 1 0 0 0 -0.76 0l-0.83 0.34a0.25 0.25 0 0 0 -0.16 0.22 0.26 0.26 0 0 0 0.14 0.23l4.33 2.12a0.22 0.22 0 0 0 0.21 0Z" fill="#000000" stroke-width="1"></path>
    <path d="M13.46 4.35a0.28 0.28 0 0 0 0.16 -0.22 0.27 0.27 0 0 0 -0.14 -0.24l-4 -2a1 1 0 0 0 -0.82 0L7.2 2.5a0.25 0.25 0 0 0 0 0.5l4.42 1.8a1 1 0 0 0 0.76 0Z" fill="#000000" stroke-width="1"></path>
    <path d="M12.5 12.42a0.23 0.23 0 0 0 0.11 0.2 0.26 0.26 0 0 0 0.24 0l4.53 -1.89a1 1 0 0 0 0.62 -0.9V3.92a0.24 0.24 0 0 0 -0.11 -0.21 0.23 0.23 0 0 0 -0.24 0l-5 2.08a0.24 0.24 0 0 0 -0.15 0.21c0.01 0.34 0 1.55 0 6.42Z" fill="#000000" stroke-width="1"></path>
    <path d="M23.5 3.5a3 3 0 0 0 -3 -3 1 1 0 0 0 -1 1 1 1 0 0 0 1 1 1 1 0 0 1 1 1V14a1 1 0 0 1 -1 1h-17a1 1 0 0 1 -1 -1V3.5a1 1 0 0 1 1 -1 1 1 0 0 0 1 -1 1 1 0 0 0 -1 -1 3 3 0 0 0 -3 3v13a3 3 0 0 0 3 3h7.75a0.25 0.25 0 0 1 0.25 0.25v1.5a0.25 0.25 0 0 1 -0.25 0.25H8.5a1 1 0 0 0 0 2h8a1 1 0 0 0 0 -2h-2.75a0.25 0.25 0 0 1 -0.25 -0.25v-1.5a0.25 0.25 0 0 1 0.25 -0.25h6.74a3 3 0 0 0 3 -2.94Z" fill="#000000" stroke-width="1"></path>
  </g>
</svg>