<svg xmlns="http://www.w3.org/2000/svg" fill="none" viewBox="0 0 24 24" id="Arrow-Turn-Down-Left-Large--Streamline-Sharp">
  <desc>
    Arrow Turn Down Left Large Streamline Icon: https://streamlinehq.com
  </desc>
  <g id="line-arrow-turn-down-left-large--arrow-bend-curve-change-direction-return-down-large-head">
    <path id="Ellipse 457" fill="#7af1ff" d="M12 24C5.37258 24 0 18.6274 0 12 0 5.37258 5.37258 0 12 0c6.6274 0 12 5.37258 12 12 0 6.6274 -5.3726 12 -12 12Z" stroke-width="1"></path>
    <path id="Union" fill="#0c098c" fill-rule="evenodd" d="M10.25 9.25c0 -3.72792 3.0221 -6.75 6.75 -6.75l5 0L22 0l-5 -2.186e-7C11.8914 -4.419e-7 7.75001 4.14136 7.75 9.25l0 9.9647 -5.86612 -5.8662 -1.767769 1.7678 7.999999 8 0.88388 0.8839 0.88389 -0.8839 8.00002 -8 -1.7678 -1.7678 -5.8661 5.8661 0 -9.9646Z" clip-rule="evenodd" stroke-width="1"></path>
  </g>
</svg>