<svg xmlns="http://www.w3.org/2000/svg" fill="none" viewBox="0 0 24 24" id="Brightness-1--Streamline-Sharp">
  <desc>
    Brightness 1 Streamline Icon: https://streamlinehq.com
  </desc>
  <g id="brightness-1--bright-adjust-brightness-adjustment-sun-raise-controls">
    <path id="Ellipse 8" fill="#7af1ff" d="M16 12c0 2.2091 -1.7909 4 -4 4 -2.20914 0 -4 -1.7909 -4 -4 0 -2.20914 1.79086 -4 4 -4 2.2091 0 4 1.79086 4 4Z" stroke-width="1"></path>
    <path id="Union" fill="#0c098c" fill-rule="evenodd" d="M10.75 3V0h2.5v3h-2.5ZM12 9.25c-1.5188 0 -2.75 1.2312 -2.75 2.75s1.2312 2.75 2.75 2.75 2.75 -1.2312 2.75 -2.75S13.5188 9.25 12 9.25ZM6.75 12c0 -2.8995 2.3505 -5.25 5.25 -5.25s5.25 2.3505 5.25 5.25 -2.3505 5.25 -5.25 5.25S6.75 14.8995 6.75 12Zm4 9v3h2.5v-3h-2.5Zm6.7304 -16.24791 2.1213 -2.12133 1.7678 1.76777 -2.1214 2.12132 -1.7677 -1.76776ZM4.75209 17.4801l-2.12133 2.1213 1.76777 1.7678 2.12132 -2.1213 -1.76776 -1.7678ZM21 10.75h3v2.5h-3v-2.5Zm-18 0H0v2.5h3v-2.5Zm16.2481 6.7299 2.1214 2.1213 -1.7678 1.7678 -2.1213 -2.1213 1.7677 -1.7678ZM6.51985 4.75209 4.39853 2.63076 2.63076 4.39853l2.12133 2.12132 1.76776 -1.76776Z" clip-rule="evenodd" stroke-width="1"></path>
  </g>
</svg>