<svg xmlns="http://www.w3.org/2000/svg" fill="none" viewBox="0 0 24 24" id="Horizontal-Toggle-Button--Streamline-Sharp">
  <desc>
    Horizontal Toggle Button Streamline Icon: https://streamlinehq.com
  </desc>
  <g id="horizontal-toggle-button--toggle-adjustment-adjust-button-off-on-horizontal-settings-controls">
    <path id="Rectangle 902" fill="#fddc5c" d="M2 6c0 -2.20914 1.79086 -4 4 -4h12c2.2091 0 4 1.79086 4 4s-1.7909 4 -4 4H6c-2.20914 0 -4 -1.79086 -4 -4Z" stroke-width="1"></path>
    <path id="Rectangle 903" fill="#fddc5c" d="M2 18c0 -2.2091 1.79086 -4 4 -4h12c2.2091 0 4 1.7909 4 4 0 2.2091 -1.7909 4 -4 4H6c-2.20914 0 -4 -1.7909 -4 -4Z" stroke-width="1"></path>
    <path id="Union" fill="#0c098c" fill-rule="evenodd" d="M0.75 6C0.75 3.10051 3.10051 0.75 6 0.75h12c2.8995 0 5.25 2.35051 5.25 5.25s-2.3505 5.25 -5.25 5.25H6C3.1005 11.25 0.75 8.89949 0.75 6ZM6 3.25C4.48122 3.25 3.25 4.48122 3.25 6S4.48122 8.75 6 8.75h12c1.5188 0 2.75 -1.23122 2.75 -2.75S19.5188 3.25 18 3.25H6ZM19 4.5h-3v3h3v-3Zm-11 12H5v3h3v-3Zm-2 -3.75C3.10051 12.75 0.75 15.1005 0.75 18S3.1005 23.25 6 23.25h12c2.8995 0 5.25 -2.3505 5.25 -5.25s-2.3505 -5.25 -5.25 -5.25H6ZM3.25 18c0 -1.5188 1.23122 -2.75 2.75 -2.75h12c1.5188 0 2.75 1.2312 2.75 2.75s-1.2312 2.75 -2.75 2.75H6c-1.51878 0 -2.75 -1.2312 -2.75 -2.75Z" clip-rule="evenodd" stroke-width="1"></path>
  </g>
</svg>