<svg xmlns="http://www.w3.org/2000/svg" fill="none" viewBox="0 0 24 24" id="One-Finger-Short-Tap--Streamline-Sharp">
  <desc>
    One Finger Short Tap Streamline Icon: https://streamlinehq.com
  </desc>
  <g id="one-finger-short-tap">
    <path id="Vector 59" fill="#ff7972" d="M10.25 16.8076V6.80762h2c1.1046 0 2 0.89543 2 2v4.49998l5.4999 3v7.3678H8.35914L4.25 17.8077v-0.2252c0 -1.3651 1.33739 -2.3291 2.63246 -1.8974L10.25 16.8076Z" stroke-width="1"></path>
    <path id="Union" fill="#0c098c" fill-rule="evenodd" d="M13.25 0.307617V2.80762h-2.5V0.307617h2.5ZM7 6.55762H4.5v2.5H7v-2.5Zm12.5 0H17v2.5h2.5v-2.5Zm-9.25 -1H9v9.51568l-1.72226 -0.5741C5.17326 13.7978 3 15.3642 3 17.5825v0.743l0.36613 0.3661 5 4.9999 1.76777 -1.7678 -4.59157 -4.5914c0.13068 -0.3711 0.54319 -0.5952 0.94484 -0.4613l3.36755 1.1225 1.64528 0.5484V8.05762h0.75c0.4142 0 0.75 0.33578 0.75 0.75v5.24208l0.6514 0.3553 4.8485 2.6447v6.629h2.5v-8.1131l-0.6514 -0.3553L15.5 12.5656V8.80762c0 -1.79493 -1.4551 -3.25 -3.25 -3.25h-2Zm4.4016 -2.16959 1.7678 -1.76776 1.7678 1.76776 -1.7678 1.76777 -1.7678 -1.76777Zm-8.83883 0L7.58054 5.1558l1.76777 -1.76777 -1.76777 -1.76776 -1.76777 1.76776Z" clip-rule="evenodd" stroke-width="1"></path>
  </g>
</svg>