<svg xmlns="http://www.w3.org/2000/svg" fill="none" viewBox="0 0 24 24" id="Rate-Stretch-Tool--Streamline-Sharp">
  <desc>
    Rate Stretch Tool Streamline Icon: https://streamlinehq.com
  </desc>
  <g id="rate-stretch-tool">
    <path id="Rectangle 763" fill="#ff7972" d="M24 12c0 -6.62742 -5.3726 -12 -12 -12C5.37258 0 0 5.37258 0 12c0 6.6274 5.37258 12 12 12 6.6274 0 12 -5.3726 12 -12Z" stroke-width="1"></path>
    <path id="Union" fill="#0c098c" fill-rule="evenodd" d="M13.25 4h-2.5V1h2.5v3ZM0 6.5l4 -4h1.5v2.75h7.75V9h-2.5V7.75H5.5v2.75H4l-4 -4ZM13.25 23v-3h-2.5v3h2.5Zm0 -9.5v-3h-2.5v3h2.5Zm5.25 5.25v2.75H20l4 -4 -4 -4h-1.5v2.75h-5.25V15h-2.5v3.75h7.75Z" clip-rule="evenodd" stroke-width="1"></path>
  </g>
</svg>