<svg xmlns="http://www.w3.org/2000/svg" fill="none" viewBox="0 0 24 24" id="Ribbon--Streamline-Sharp">
  <desc>
    Ribbon Streamline Icon: https://streamlinehq.com
  </desc>
  <g id="ribbon--ribbon-reward-like-social-rating-media">
    <path id="Ellipse 645" fill="#79ee8d" d="M6 16.75a6 6 0 1 0 12 0 6 6 0 1 0 -12 0" stroke-width="1"></path>
    <path id="Union" fill="#0c098c" fill-rule="evenodd" d="M7.69447 0H0.000732422L5.26724 14.0554c-0.33369 0.833 -0.51727 1.7424 -0.51727 2.6946C4.74997 20.7541 7.9959 24 12 24c4.004 0 7.25 -3.2459 7.25 -7.25 0 -0.9522 -0.1836 -1.8615 -0.5173 -2.6945L23.9993 0h-7.6938l-3.5733 9.53652C12.4914 9.51237 12.2471 9.5 12 9.5c-0.2472 0 -0.4915 0.01237 -0.7322 0.03652L7.69447 0Zm-0.4445 16.75C7.24997 14.1266 9.37662 12 12 12c2.6233 0 4.75 2.1266 4.75 4.75S14.6233 21.5 12 21.5c-2.62338 0 -4.75003 -2.1266 -4.75003 -4.75Zm6.50023 1.7501v-3.5003h-3.5004v3.5003h3.5004Z" clip-rule="evenodd" stroke-width="1"></path>
  </g>
</svg>