<svg xmlns="http://www.w3.org/2000/svg" fill="none" viewBox="0 0 24 24" id="Round-Anchor-Point--Streamline-Sharp">
  <desc>
    Round Anchor Point Streamline Icon: https://streamlinehq.com
  </desc>
  <g id="round-anchor-point">
    <path id="Ellipse 547" fill="#fddc5c" d="M1 18.27a3 3 0 1 0 6 0 3 3 0 1 0 -6 0" stroke-width="1"></path>
    <path id="Ellipse 546" fill="#fddc5c" d="M17 18.27a3 3 0 1 0 6 0 3 3 0 1 0 -6 0" stroke-width="1"></path>
    <path id="Rectangle 794" fill="#fddc5c" d="M9 3.26953h6v6H9v-6Z" stroke-width="1"></path>
    <path id="Union" fill="#0c098c" fill-rule="evenodd" d="M7.75 2.01953h8.5v3H24v2.5h-5.1072C20.3582 9.1557 21.25 11.3172 21.25 13.688v0.5318c1.5857 0.5241 2.73 2.0183 2.73 3.7797 0 2.1981 -1.7819 3.98 -3.98 3.98s-3.98 -1.7819 -3.98 -3.98c0 -1.7614 1.1443 -3.2556 2.73 -3.7797v-0.5318c0 -2.1161 -0.9739 -4.00636 -2.5 -5.24464v2.07614h-8.5V8.44336c-1.52605 1.23828 -2.5 3.12854 -2.5 5.24464v0.5338c1.56295 0.5224 2.68945 1.998 2.68945 3.7367 0 2.1754 -1.76353 3.939 -3.93896 3.939 -2.17543 0 -3.9389666 -1.7636 -3.9389666 -3.939 0 -1.7383 1.1260366 -3.2136 2.6884766 -3.7363v-0.5342c0 -2.3708 0.89181 -4.5323 2.35721 -6.16847H0v-2.5h7.75v-3Zm2.5 2.5v3.5h3.5v-3.5h-3.5ZM20 16.5195c-0.8174 0 -1.48 0.6626 -1.48 1.48s0.6626 1.48 1.48 1.48 1.48 -0.6626 1.48 -1.48 -0.6626 -1.48 -1.48 -1.48Zm-17.43848 1.439c0 -0.7947 0.64425 -1.439 1.43897 -1.439 0.79472 0 1.43896 0.6443 1.43896 1.439 0 0.7947 -0.64424 1.439 -1.43896 1.439s-1.43897 -0.6443 -1.43897 -1.439Z" clip-rule="evenodd" stroke-width="1"></path>
  </g>
</svg>