<svg xmlns="http://www.w3.org/2000/svg" fill="none" viewBox="0 0 24 24" id="Star-Circle--Streamline-Sharp">
  <desc>
    Star Circle Streamline Icon: https://streamlinehq.com
  </desc>
  <g id="star-circle--reward-social-rating-media-rate-it-star">
    <path id="Ellipse 8" fill="#7af1ff" d="M1.25 12c0 2.8511 1.13259 5.5854 3.1486 7.6014C6.41462 21.6174 9.14892 22.75 12 22.75c2.8511 0 5.5854 -1.1326 7.6014 -3.1486S22.75 14.8511 22.75 12c0 -2.85108 -1.1326 -5.58538 -3.1486 -7.6014C17.5854 2.38259 14.8511 1.25 12 1.25c-2.85108 0 -5.58538 1.13259 -7.6014 3.1486C2.38259 6.41462 1.25 9.14892 1.25 12Z" stroke-width="1"></path>
    <path id="Union" fill="#0c098c" fill-rule="evenodd" d="M12 0C8.8174 0 5.76516 1.26428 3.51472 3.51472 1.26428 5.76516 0 8.8174 0 12s1.26428 6.2348 3.51472 8.4853C5.76516 22.7357 8.8174 24 12 24s6.2348 -1.2643 8.4853 -3.5147C22.7357 18.2348 24 15.1826 24 12c0 -3.1826 -1.2643 -6.23484 -3.5147 -8.48528C18.2348 1.26428 15.1826 0 12 0ZM5.28249 5.28249C7.06408 3.50089 9.48044 2.5 12 2.5c2.5196 0 4.9359 1.00089 6.7175 2.78249C20.4991 7.06408 21.5 9.48044 21.5 12c0 2.5196 -1.0009 4.9359 -2.7825 6.7175C16.9359 20.4991 14.5196 21.5 12 21.5c-2.51956 0 -4.93592 -1.0009 -6.71751 -2.7825C3.50089 16.9359 2.5 14.5196 2.5 12c0 -2.51956 1.00089 -4.93592 2.78249 -6.71751ZM12 6.25l1.925 3.3 3.575 1.1 -2.475 2.475 0.825 4.125L12 15.5132 8.15 17.25l0.825 -4.125L6.5 10.65l3.575 -1.1L12 6.25Z" clip-rule="evenodd" stroke-width="1"></path>
  </g>
</svg>