<svg xmlns="http://www.w3.org/2000/svg" fill="none" viewBox="0 0 24 24" id="Symmetry-Mirror-1--Streamline-Sharp">
  <desc>
    Symmetry Mirror 1 Streamline Icon: https://streamlinehq.com
  </desc>
  <g id="symmetry-mirror-1">
    <path id="Vector" fill="#79ee8d" d="M17.9902 3c2.7615 0 5 2.23858 5 5 0 2.1136 -1.3114 3.9208 -3.1649 4.6525 1.298 0.7895 2.1649 2.2172 2.1649 3.8475 0 2.4853 -2.0147 4.5 -4.5 4.5 -0.5259 0 -1.0308 -0.0902 -1.5 -0.2561V3.41604c0.6125 -0.26759 1.2889 -0.41604 2 -0.41604Z" stroke-width="1"></path>
    <path id="Union" fill="#0c098c" fill-rule="evenodd" d="M10.7401 0v4h2.5V0h-2.5Zm4.738 2.80435c0.7475 -0.32741 1.5723 -0.50845 2.436 -0.50845 3.3642 0 6.0861 2.73332 6.0861 6.09836 0 1.89594 -0.8635 3.58934 -2.2173 4.70764 0.7812 0.9646 1.2501 2.1948 1.2501 3.5346 0 3.0972 -2.5054 5.6135 -5.6025 5.6135 -0.653 0 -1.2824 -0.1124 -1.8683 -0.3201l-0.8325 -0.295V3.1322l0.7484 -0.32785Zm1.7516 2.05678V19.7436c0.0663 0.0043 0.1332 0.0064 0.2008 0.0064 1.7105 0 3.1025 -1.391 3.1025 -3.1135 0 -1.128 -0.5968 -2.1161 -1.4947 -2.6636l0.1908 -2.2295c1.3306 -0.5266 2.2711 -1.82814 2.2711 -3.34914 0 -1.99031 -1.6085 -3.59836 -3.5861 -3.59836 -0.2346 0 -0.4634 0.02245 -0.6844 0.06523ZM-0.000488281 8.43376c0 -3.35666 2.715068281 -6.08317 6.070938281 -6.08317 0.86158 0 1.6843 0.18059 2.4299 0.50718l0.74847 0.32785V21.6357l-0.8325 0.295c-0.58453 0.2071 -1.21242 0.3193 -1.86378 0.3193 -3.08962 0 -5.588841 -2.5101 -5.588841 -5.5999 0 -1.3351 0.466771 -2.5611 1.244601 -3.523C0.859553 12.0117 -0.000488281 10.3236 -0.000488281 8.43376ZM10.7401 10.666V6.66602h2.5V10.666h-2.5Zm0 2.667v4h2.5v-4h-2.5Zm0 10.667v-4h2.5v4h-2.5Z" clip-rule="evenodd" stroke-width="1"></path>
  </g>
</svg>