<svg xmlns="http://www.w3.org/2000/svg" fill="none" viewBox="0 0 24 24" id="Text-Flow-Rows--Streamline-Sharp">
  <desc>
    Text Flow Rows Streamline Icon: https://streamlinehq.com
  </desc>
  <g id="text-flow-rows">
    <path id="Rectangle 985" fill="#7af1ff" d="M1.875 15.625h6v6h-6z" stroke-width="1"></path>
    <path id="Rectangle 986" fill="#7af1ff" d="M1.875 1.625h6v6h-6z" stroke-width="1"></path>
    <path id="Rectangle 987" fill="#7af1ff" d="M15.875 1.625h6v6h-6z" stroke-width="1"></path>
    <path id="Union" fill="#0c098c" fill-rule="evenodd" d="M0.625 0.375h8.5v3h5.5v-3h8.5v8.5h-6.7322L9.125 16.1428v1.2322h7.75v-3.75h1.5l5 5 -5 5h-1.5v-3.75h-7.75v3h-8.5v-8.5h6.73223L14.625 7.10723V5.875h-5.5v3h-8.5v-8.5Zm2.5 2.5v3.5h3.5v-3.5h-3.5Zm0 17.5v-3.5h3.5v3.5h-3.5Zm14 -14v-3.5h3.5v3.5h-3.5Z" clip-rule="evenodd" stroke-width="1"></path>
  </g>
</svg>