<svg xmlns="http://www.w3.org/2000/svg" fill="none" viewBox="0 0 24 24" id="Thermometer-Positive--Streamline-Sharp">
  <desc>
    Thermometer Positive Streamline Icon: https://streamlinehq.com
  </desc>
  <g id="thermometer-positive--temperature-thermometer-hot-mercury-plus-weather">
    <path id="Union" fill="#79ee8d" d="M7.25 1.25c-1.65685 0 -3 1.34315 -3 3v7.3027c-1.7934 1.0374 -3 2.9765 -3 5.1973 0 3.3137 2.68629 6 6 6 3.3137 0 6 -2.6863 6 -6 0 -2.2208 -1.2066 -4.1599 -3 -5.1973V4.25c0 -1.65685 -1.34315 -3 -3 -3Z" stroke-width="1"></path>
    <path id="Union_2" fill="#0c098c" fill-rule="evenodd" d="M20.25 6.25V10h-2.5V6.25l-3.75 0v-2.5l3.75 0V0h2.5v3.75l3.75 0v2.5l-3.75 0Zm-13 -3.75c-0.9665 0 -1.75 0.7835 -1.75 1.75v8.0237l-0.62409 0.361C3.45287 13.4579 2.5 14.9934 2.5 16.75c0 2.6234 2.12665 4.75 4.75 4.75S12 19.3734 12 16.75c0 -1.7566 -0.9529 -3.2921 -2.37591 -4.1153L9 12.2737V4.25c0 -0.9665 -0.7835 -1.75 -1.75 -1.75ZM3 4.25C3 1.90279 4.90279 0 7.25 0s4.25 1.90279 4.25 4.25v6.6259c1.8158 1.3159 3 3.4561 3 5.8741 0 4.0041 -3.2459 7.25 -7.25 7.25C3.24594 24 0 20.7541 0 16.75c0 -2.418 1.18424 -4.5582 3 -5.8741V4.25Zm6 14.5v-3.5H5.5v3.5H9Z" clip-rule="evenodd" stroke-width="1"></path>
  </g>
</svg>