<svg xmlns="http://www.w3.org/2000/svg" fill="none" viewBox="0 0 24 24" id="Visible--Streamline-Sharp">
  <desc>
    Visible Streamline Icon: https://streamlinehq.com
  </desc>
  <g id="visible--eye-eyeball-open-view">
    <path id="Intersect" fill="#ff7972" d="M12.0005 3.25C6.50055 3.25 5.2207 7 1.7207 12c3.5 5 4.77985 8.75 10.2798 8.75 5.5 0 6.78 -3.75 10.28 -8.75 -3.5 -5 -4.78 -8.75 -10.28 -8.75Z" stroke-width="1"></path>
    <path id="Union" fill="#0c098c" fill-rule="evenodd" d="M12.001 2C8.8787 2 6.85823 3.10098 5.19333 4.9013c-0.79556 0.86027 -1.50196 1.86977 -2.20519 2.93218 -0.22131 0.33436 -0.44156 0.67271 -0.66558 1.01687l-0.00005 0.00008 -0.00001 0.00002c-0.50425 0.77467 -1.02763 1.57875 -1.625406 2.43265L0.195312 12l0.501778 0.7168c0.59778 0.854 1.12116 1.658 1.6254 2.4327 0.22405 0.3442 0.44431 0.6826 0.66565 1.017 0.70323 1.0624 1.40963 2.0719 2.20519 2.9322C6.85823 20.899 8.8787 22 12.001 22c3.1222 0 5.1428 -1.101 6.8077 -2.9013 0.7956 -0.8603 1.502 -1.8698 2.2052 -2.9322 0.2214 -0.3345 0.4417 -0.6729 0.6658 -1.0172 0.5042 -0.7746 1.0276 -1.5786 1.6253 -2.4325L23.8068 12l-0.5018 -0.7169c-0.5977 -0.8539 -1.1211 -1.65787 -1.6253 -2.43249l0 -0.00002 -0.0001 -0.00011c-0.224 -0.34421 -0.4443 -0.68261 -0.6657 -1.01701 -0.7032 -1.06242 -1.4096 -2.07191 -2.2052 -2.93218C17.1438 3.10097 15.1232 2 12.001 2ZM4.44415 13.826c-0.37466 -0.5755 -0.77498 -1.1904 -1.20562 -1.826 0.43065 -0.6356 0.83098 -1.2505 1.20565 -1.8261l0.00002 0c0.21792 -0.33475 0.42715 -0.65615 0.62863 -0.96053 0.69299 -1.04695 1.30655 -1.91245 1.95595 -2.61468C8.2538 5.27402 9.62325 4.5 12.001 4.5c2.3777 0 3.7472 0.77403 4.9723 2.0987 0.6494 0.70223 1.263 1.56773 1.956 2.61468 0.2015 0.30444 0.4108 0.62591 0.6287 0.96072 0.3747 0.5755 0.775 1.1904 1.2056 1.8259 -0.4306 0.6355 -0.8309 1.2503 -1.2055 1.8258 -0.218 0.3348 -0.4273 0.6563 -0.6288 0.9608 -0.693 1.047 -1.3066 1.9125 -1.956 2.6147C15.7482 18.726 14.3787 19.5 12.001 19.5c-2.37775 0 -3.7472 -0.774 -4.97222 -2.0987 -0.6494 -0.7022 -1.26296 -1.5677 -1.95595 -2.6147 -0.20149 -0.3044 -0.41074 -0.6258 -0.62868 -0.9606ZM12.0004 15c1.6569 0 3 -1.3431 3 -3s-1.3431 -3 -3 -3c-1.6568 0 -2.99997 1.3431 -2.99997 3s1.34317 3 2.99997 3Z" clip-rule="evenodd" stroke-width="1"></path>
  </g>
</svg>