<svg xmlns="http://www.w3.org/2000/svg" fill="none" viewBox="0 0 24 24" id="Waving-Hand--Streamline-Sharp">
  <desc>
    Waving Hand Streamline Icon: https://streamlinehq.com
  </desc>
  <g id="waving-hand">
    <path id="Vector" fill="#7af1ff" d="m11.566 2 -1.71513 0.99229c-0.94722 0.54802 -1.27176 1.76177 -0.72488 2.71098L7.14558 2.26588l-1.71508 0.99229c-0.94722 0.54803 -1.27176 1.76177 -0.72488 2.71098l-1.71509 0.99229c-0.94721 0.54802 -1.27175 1.76177 -0.72487 2.71098L8.47015 22.7168h9.34725l0.2205 -1.5452c3.7888 -2.1921 5.087 -7.0471 2.8995 -10.844l-2.4756 -4.29675 -1.715 0.99229c-0.9473 0.54802 -1.2718 1.76177 -0.7249 2.71098L11.566 2Z" stroke-width="1"></path>
    <path id="Union" fill="#0c098c" fill-rule="evenodd" d="M21.9169 2.08358C20.5828 0.749486 18.7734 0 16.8867 0v2.5c1.2237 0 2.3972 0.48609 3.2625 1.35135 0.8652 0.86525 1.3513 2.03879 1.3513 3.26244h2.5c0 -1.8867 -0.7495 -3.69612 -2.0836 -5.03021ZM12.0241 0.2914l0.6252 1.08507 2.8818 5.00197c0.1758 -0.16418 0.3728 -0.31118 0.5899 -0.43678l1.7151 -0.99228 1.0839 -0.62713 0.6252 1.08507 2.4755 4.2968C24.5518 14.0973 23.0508 19.716 18.6641 22.254l-0.8573 0.496 -1.252 -2.1639 0.8573 -0.496c3.191 -1.8462 4.2864 -5.9375 2.4424 -9.138l-1.8504 -3.21167 -0.6311 0.36516c-0.3491 0.20197 -0.4709 0.65144 -0.2683 1.00418l0.0005 0.00082 1.4853 2.57801 0.6229 1.0812 -1.08 0.6248 -0.8579 0.4964c-0.823 0.4761 -1.1069 1.533 -0.6302 2.3604l0.4951 0.8594 -2.1662 1.248 -0.4951 -0.8593c-1.1209 -1.9455 -0.5227 -4.4143 1.3262 -5.6373l-0.8663 -1.5036 -3.8308 -6.64902 -0.6311 0.36516c-0.3494 0.20213 -0.4711 0.65213 -0.2678 1.005l3.4657 6.01546 -2.1662 1.248 -3.46567 -6.01543 -1.35525 -2.35231 -0.63115 0.36516c-0.34937 0.20213 -0.47107 0.65214 -0.26777 1.005l4.45594 7.73408 -2.16622 1.2481 -3.83077 -6.64907 -0.63115 0.36516c-0.34915 0.20201 -0.47092 0.65159 -0.26813 1.00436l0.00037 0.00064 7.1997 12.45281 -2.16427 1.2513 -7.20068 -12.4544 -0.00095 -0.0017C0.292351 8.75138 0.819727 6.77389 2.36479 5.87997l0.85103 -0.49238c-0.15946 -1.2534 0.42692 -2.53859 1.58894 -3.21089l1.71508 -0.99229L7.60377 0.557283l0.62516 1.085077 0.40631 0.70523c0.1758 -0.16418 0.3728 -0.31117 0.58989 -0.43678L10.9402 0.918526 12.0241 0.2914ZM2.08358 21.9172C0.749486 20.5831 0 18.7737 0 16.887h2.5c0 1.2236 0.48609 2.3972 1.35135 3.2624 0.86525 0.8653 2.03879 1.3514 3.26244 1.3514v2.5c-1.8867 0 -3.69612 -0.7495 -5.03021 -2.0836Z" clip-rule="evenodd" stroke-width="1"></path>
  </g>
</svg>