<svg xmlns="http://www.w3.org/2000/svg" fill="none" viewBox="0 0 24 24" id="Brightkite-Logo--Streamline-Logos">
  <desc>
    Brightkite Logo Streamline Icon: https://streamlinehq.com
  </desc>
  <path stroke="#000000" stroke-linejoin="round" d="M5.684 3.117 2 22l19.33 -6.766a1 1 0 0 0 0.67 -0.944V1.5H7.647a2 2 0 0 0 -1.963 1.617Z" stroke-width="1"></path>
  <path stroke="#000000" stroke-linejoin="round" d="m10 4.5 2.5 -0.5v4s1.83 -0.591 2.5 -0.5c1.175 0.16 2 1 2 3.5 0 3 -2 4 -3.5 4s-3 -1 -3.5 -1.5v-9Z" stroke-width="1"></path>
  <path stroke="#000000" stroke-linejoin="round" d="M12.5 12.5V10h1a1 1 0 0 1 1 1v0.5a1 1 0 0 1 -1 1h-1Z" stroke-width="1"></path>
</svg>