<svg xmlns="http://www.w3.org/2000/svg" fill="none" viewBox="0 0 24 24" id="Irc-Galleria-Logo--Streamline-Logos">
  <desc>
    Irc Galleria Logo Streamline Icon: https://streamlinehq.com
  </desc>
  <path stroke="#000000" stroke-linejoin="round" d="M7 7.5c1.6 0 4.333 2 5.5 3 1.333 -1 4.023 -2.735 5.5 -3 1.178 -0.211 4.5 0 4.5 4.5s-4 5.5 -6.5 5.5c-2 0 -3.5 -2 -4 -3 -1.167 1 -4 3 -6 3 -2.5 0 -4.5 -1.5 -4.5 -4.5s3 -5.5 5.5 -5.5Z" stroke-width="1"></path>
  <path stroke="#000000" stroke-linejoin="round" d="M10.253 12.633c-0.936 1.078 -3.281 1.577 -4.248 1.577 -0.153 0.356 0.18 0.802 0.486 1.311 -2.213 0 -3.003 -1.447 -3.003 -2.77 0 -1.321 0.427 -2.596 2.288 -2.79 1.46 -0.152 3.655 1.57 4.477 2.672Z" stroke-width="1"></path>
  <path stroke="#000000" stroke-linejoin="round" d="M14.12 12.582c0.936 1.078 2.29 0.458 3.256 0.458 0.153 0.356 0.409 1.366 -0.244 2.237 2.213 0 3.526 -1.807 3.526 -2.9 0 -1.323 -0.353 -2.478 -2.213 -2.672 -1.461 -0.152 -3.502 1.774 -4.325 2.877Z" stroke-width="1"></path>
  <path stroke="#000000" stroke-linejoin="round" d="M18.19 11.707a0.25 0.25 0 1 1 0 -0.5" stroke-width="1"></path>
  <path stroke="#000000" stroke-linejoin="round" d="M18.19 11.707a0.25 0.25 0 0 0 0 -0.5" stroke-width="1"></path>
  <path stroke="#000000" stroke-linejoin="round" d="M6.107 12.207a0.25 0.25 0 1 1 0 -0.5" stroke-width="1"></path>
  <path stroke="#000000" stroke-linejoin="round" d="M6.107 12.207a0.25 0.25 0 1 0 0 -0.5" stroke-width="1"></path>
</svg>