<svg xmlns="http://www.w3.org/2000/svg" fill="none" viewBox="0 0 24 24" id="Iwiw-Logo-1--Streamline-Logos">
  <desc>
    Iwiw Logo 1 Streamline Icon: https://streamlinehq.com
  </desc>
  <path stroke="#000000" stroke-linecap="round" stroke-linejoin="round" d="M10.462 2.431a3.25 3.25 0 0 1 3.047 -0.074l3.05 1.525a1.25 1.25 0 1 1 -1.118 2.236l-3.05 -1.525a0.75 0.75 0 0 0 -0.704 0.017L5.633 8.016a0.75 0.75 0 0 0 -0.382 0.654v6.66a0.75 0.75 0 0 0 0.382 0.654l6.056 3.406a0.75 0.75 0 0 0 0.703 0.017l3.05 -1.525a1.25 1.25 0 1 1 1.118 2.236l-3.05 1.525a3.25 3.25 0 0 1 -3.047 -0.074l-6.055 -3.406A3.25 3.25 0 0 1 2.75 15.33V8.67a3.25 3.25 0 0 1 1.657 -2.833l6.055 -3.406Z" clip-rule="evenodd" stroke-width="1"></path>
  <path stroke="#000000" stroke-linecap="round" stroke-linejoin="round" d="M11.857 7.986a1 1 0 0 1 -0.342 1.372L9.5 10.566V13a1 1 0 0 1 -2 0V9.434l2.986 -1.791a1 1 0 0 1 1.371 0.343Z" clip-rule="evenodd" stroke-width="1"></path>
  <path stroke="#000000" stroke-linecap="round" stroke-linejoin="round" d="M21 7h-2a0.5 0.5 0 0 0 -0.5 0.5v9a0.5 0.5 0 0 0 0.5 0.5h2a0.5 0.5 0 0 0 0.5 -0.5v-9A0.5 0.5 0 0 0 21 7Z" stroke-width="1"></path>
</svg>