<svg xmlns="http://www.w3.org/2000/svg" fill="none" viewBox="0 0 24 24" id="My-Space-Logo--Streamline-Logos">
  <desc>
    My Space Logo Streamline Icon: https://streamlinehq.com
  </desc>
  <path stroke="#000000" stroke-linecap="round" stroke-linejoin="round" d="M21.5 22.5h-9v-8a4.5 4.5 0 1 1 9 0v8Z" stroke-width="1"></path>
  <path stroke="#000000" stroke-linejoin="round" d="M14 4.5a3 3 0 1 0 6 0 3 3 0 1 0 -6 0" stroke-width="1"></path>
  <path stroke="#000000" stroke-linejoin="round" d="M8.5 4.5a2 2 0 1 0 4 0 2 2 0 1 0 -4 0" stroke-width="1"></path>
  <path stroke="#000000" stroke-linejoin="round" d="M3.75 4.5a1.5 1.5 0 1 0 3 0 1.5 1.5 0 1 0 -3 0" stroke-width="1"></path>
  <path stroke="#000000" stroke-linecap="round" stroke-linejoin="round" d="M12.5 18h-5v-6a3 3 0 0 1 5.984 -0.31" stroke-width="1"></path>
  <path stroke="#000000" stroke-linecap="round" stroke-linejoin="round" d="M7.5 15.5h-5v-4.25a2.75 2.75 0 0 1 5.398 -0.744" stroke-width="1"></path>
</svg>