<svg xmlns="http://www.w3.org/2000/svg" fill="none" viewBox="0 0 14 14"><g id="camera-square--photos-picture-camera-photography-photo-pictures-frame-square"><path id="Vector" stroke="#3e3e3e" stroke-linecap="round" stroke-linejoin="round" d="M12.5.5h-11a1 1 0 0 0-1 1v11a1 1 0 0 0 1 1h11a1 1 0 0 0 1-1v-11a1 1 0 0 0-1-1Z"></path><path id="Vector_2" stroke="#3e3e3e" stroke-linecap="round" stroke-linejoin="round" d="M10.5 6a1 1 0 0 0-1-1H9L8 3.5H6L5 5h-.5a1 1 0 0 0-1 1v2.5a1 1 0 0 0 1 1h5a1 1 0 0 0 1-1V6Z"></path><g id="Group 11"><path id="Ellipse 1" stroke="#3e3e3e" stroke-linecap="round" stroke-linejoin="round" d="M7 7.375a.375.375 0 1 1 0-.75"></path><path id="Ellipse 2" stroke="#3e3e3e" stroke-linecap="round" stroke-linejoin="round" d="M7 7.375a.375.375 0 1 0 0-.75"></path></g></g></svg>