<svg xmlns="http://www.w3.org/2000/svg" fill="none" viewBox="0 0 14 14"><g id="orientation-portrait--photos-photo-orientation-portrait-picture-photography-camera-pictures-image"><path id="Vector" stroke="#3e3e3e" stroke-linecap="round" stroke-linejoin="round" d="M12 12.5v-11a1 1 0 0 0-1-1H3a1 1 0 0 0-1 1v11a1 1 0 0 0 1 1h8a1 1 0 0 0 1-1Z"></path><path id="Vector_2" stroke="#3e3e3e" stroke-linecap="round" stroke-linejoin="round" d="M8.547 5.488a1.228 1.228 0 1 0 0-2.457 1.228 1.228 0 0 0 0 2.457Z"></path><path id="Vector_3" stroke="#3e3e3e" stroke-linecap="round" stroke-linejoin="round" d="M2 7.807c.347-.059.7-.088 1.053-.087 1.224-.025 2.419.338 3.37 1.025 1.542 1.111 2.124 3.038 2.124 4.755"></path><path id="Vector_4" stroke="#3e3e3e" stroke-linecap="round" stroke-linejoin="round" d="M12 9.37a7.304 7.304 0 0 0-2.102-.306 7.351 7.351 0 0 0-2.632.479"></path></g></svg>