<svg xmlns="http://www.w3.org/2000/svg" fill="none" viewBox="0 0 14 14" id="Christian-Cross-2--Streamline-Core">
  <desc>
    Christian Cross 2 Streamline Icon: https://streamlinehq.com
  </desc>
  <g id="christian-cross-2--religion-christian-cross-culture-bold">
    <path id="Union" fill="#8fbffa" fill-rule="evenodd" d="M8 1.12439c0 -0.552284 -0.44771 -1 -1 -1 -0.55228 0 -1 0.447714 -1 1l0 2.61576H3.38422c-0.55229 0 -1 0.44772 -1 1 0 0.55229 0.44771 1 1 1h2.61577l-0.00001 7.18795c0 0.5523 0.44772 1 1 1 0.55229 0 1 -0.4477 1 -1l0.00001 -7.18795h2.61571c0.5523 0 1 -0.44771 1 -1 0 -0.55228 -0.4477 -1 -1 -1H8l0 -2.61576Z" clip-rule="evenodd" stroke-width="1"></path>
  </g>
</svg>