<svg xmlns="http://www.w3.org/2000/svg" fill="none" viewBox="0 0 14 14" id="Hinduism--Streamline-Core">
  <desc>
    Hinduism Streamline Icon: https://streamlinehq.com
  </desc>
  <g id="hinduism--religion-hinduism-culture-hindu">
    <path id="Union" fill="#8fbffa" fill-rule="evenodd" d="M11.112 2.541a1 1 0 1 0 0 -2 1 1 0 0 0 0 2ZM4.42 2.057c-0.48 0 -0.92 0.16 -1.273 0.43a0.75 0.75 0 0 1 -0.911 -1.192 3.599 3.599 0 0 1 5.413 4.451c0.094 0.072 0.185 0.146 0.273 0.225a3.39 3.39 0 0 1 0.553 -0.17 3.934 3.934 0 0 1 3.947 6.32 0.75 0.75 0 0 1 -1.163 -0.95 2.434 2.434 0 0 0 -2.34 -3.93A4.496 4.496 0 1 1 0.443 9.334a0.75 0.75 0 1 1 1.5 0A2.996 2.996 0 1 0 4.94 6.338a0.75 0.75 0 1 1 0 -1.5c0.48 0 0.944 0.076 1.378 0.216A2.099 2.099 0 0 0 4.42 2.057Zm8.917 2.108a0.75 0.75 0 0 0 -1.06 -1.06 1.646 1.646 0 0 1 -2.329 0 0.75 0.75 0 0 0 -1.06 1.06 3.146 3.146 0 0 0 4.449 0Z" clip-rule="evenodd" stroke-width="1"></path>
  </g>
</svg>