<svg xmlns="http://www.w3.org/2000/svg" fill="none" viewBox="0 0 14 14" id="Politics-Vote-2--Streamline-Core">
  <desc>
    Politics Vote 2 Streamline Icon: https://streamlinehq.com
  </desc>
  <g id="politics-vote-2">
    <path id="Subtract" fill="#8fbffa" fill-rule="evenodd" d="M3.99932 5.63647H2.27197c-0.82842 0 -1.499997 0.67158 -1.499997 1.5v6.33633c0 0.2761 0.223857 0.5 0.499997 0.5H12.1789c0.2762 0 0.5 -0.2239 0.5 -0.5V7.13647c0 -0.82842 -0.6715 -1.5 -1.5 -1.5H9.62247L8.04834 7.21061c-0.68342 0.68342 -1.79146 0.68342 -2.47488 0L3.99932 5.63647Z" clip-rule="evenodd" stroke-width="1"></path>
    <path id="Vector 1085" fill="#2859c5" d="M9.42631 4.06484 7.16442 6.32673c-0.19526 0.19526 -0.51184 0.19526 -0.70711 0L3.45318 3.32259c-0.19526 -0.19526 -0.19526 -0.51184 0 -0.7071L5.71507 0.3536c0.19526 -0.195262 0.51184 -0.195262 0.7071 0l3.00414 3.00414c0.19526 0.19526 0.19526 0.51184 0 0.7071Z" stroke-width="1"></path>
    <path id="Union" fill="#2859c5" fill-rule="evenodd" d="M4.29071 7.14819h1.22033l0.06242 0.06242c0.68342 0.68342 1.79146 0.68342 2.47488 0l0.06242 -0.06242h1.04941c0.34517 0 0.625 0.27983 0.625 0.625 0 0.34518 -0.27983 0.625 -0.625 0.625H4.29071c-0.34518 0 -0.625 -0.27982 -0.625 -0.625 0 -0.34517 0.27982 -0.625 0.625 -0.625ZM0.771973 13.4728V10H12.6789v3.4728c0 0.2761 -0.2238 0.5 -0.5 0.5H1.27197c-0.27614 0 -0.499997 -0.2239 -0.499997 -0.5Z" clip-rule="evenodd" stroke-width="1"></path>
  </g>
</svg>