<svg xmlns="http://www.w3.org/2000/svg" fill="none" viewBox="0 0 14 14" id="Calculator-1--Streamline-Flex-Gradient">
  <desc>
    Calculator 1 Streamline Icon: https://streamlinehq.com
  </desc>
  <g id="calculator-1--shop-shopping-pay-payment-store-cash-calculate-math">
    <path id="Subtract" fill="url(#paint0_linear_9380_1807)" fill-rule="evenodd" d="M10.0207 1.65576c.0951.00659.1904.0135.286.02071.5814.04386 1.0428.52846 1.0768 1.13957l.0049.08789c.0371.71006.0653 1.76009.0844 2.62632H2.52746c.01981-.90272.0496-2.00506.08911-2.7142.03406-.61112.49544-1.09572 1.07685-1.13958 1.12153-.08461 2.20776-.12709 3.29386-.12742 1.00205-.0003 2.00399.03527 3.03342.10671Zm2.8638 1.16214-.005-.09095C12.8028 1.34892 11.7566.23268 10.4158.131528 9.25358.0438412 8.12682 0 7.00005 0 5.87329 0 4.74652.043841 3.58426.131527 2.2435.23268 1.19735 1.34892 1.12056 2.72695c-.160746 2.8845-.160746 5.6616 0 8.54605.07679 1.3781 1.12294 2.4943 2.4637 2.5955 2.32449.1753 4.50699.1753 6.83144 0 1.3408-.1012 2.3869-1.2174 2.4637-2.5954.1591-2.85422.1608-5.60324.0051-8.4552Zm-5.55589.83127c0-.41421.33579-.75.75-.75h1.37194c.41422 0 .75005.33579.75005.75s-.33583.75-.75005.75H8.07861c-.41421 0-.75-.33579-.75-.75ZM3.6792 10.4332c0-.3452.27982-.62497.625-.62497h.28162c.34517 0 .625.27977.625.62497s-.27983.625-.625.625H4.3042c-.34518 0-.625-.2798-.625-.625Zm3.18018-.62497c-.34518 0-.625.27977-.625.62497s.27982.625.625.625h.28161c.34518 0 .625-.2798.625-.625s-.27982-.62497-.625-.62497h-.28161Zm1.96874.62497c0-.3452.27983-.62497.625-.62497h.28162c.34516 0 .62496.27977.62496.62497s-.2798.625-.62496.625h-.28162c-.34517 0-.625-.2798-.625-.625ZM4.3042 7.55823c-.34518 0-.625.27982-.625.625s.27982.625.625.625h.28162c.34517 0 .625-.27982.625-.625s-.27983-.625-.625-.625H4.3042Zm1.93018.625c0-.34518.27982-.625.625-.625h.28161c.34518 0 .625.27982.625.625s-.27982.625-.625.625h-.28161c-.34518 0-.625-.27982-.625-.625Zm3.21874-.625c-.34517 0-.625.27982-.625.625s.27983.625.625.625h.28162c.34516 0 .62496-.27982.62496-.625s-.2798-.625-.62496-.625h-.28162Z" clip-rule="evenodd"></path>
  </g>
  <defs>
    <linearGradient id="paint0_linear_9380_1807" x1="12.959" x2="-2.219" y1="14.003" y2="6.684" gradientUnits="userSpaceOnUse">
      <stop stop-color="#ff51e3"></stop>
      <stop offset="1" stop-color="#1b4dff"></stop>
    </linearGradient>
  </defs>
</svg>