<svg xmlns="http://www.w3.org/2000/svg" fill="none" viewBox="0 0 14 14" id="Dollar-Increase--Streamline-Flex-Gradient">
  <desc>
    Dollar Increase Streamline Icon: https://streamlinehq.com
  </desc>
  <g id="dollar-increase--dollar-increase-arrow-up-fluctuate-investment">
    <path id="Union" fill="url(#paint0_linear_9380_2020)" fill-rule="evenodd" d="M1.40049 1.40049C2.33946.461524 3.68777 0 5.32324 0c1.63547 0 2.98379.461524 3.92275 1.40049.93901.93897 1.40051 2.28728 1.40051 3.92275 0 .29191-.0147.57467-.0442.84759-.1121.02008-.2224.04361-.3306.07061-1.07175.26739-1.72379 1.35294-1.4564 2.42466.00461.01848.00947.03684.01456.05507-.30479-.19176-.68798-.34666-1.15623-.38467-.61717-.05011-1.1295.14004-1.43464.283-.33034.15478-.62415.35321-.86323.53523-.47896.36464-.93986.81954-1.31309 1.21787-.04625.0493-.09189.0986-.13683.1476-1.01377-.1954-1.86944-.61829-2.52535-1.27421C.461524 8.30703 0 6.95871 0 5.32324c0-1.63547.461524-2.98378 1.40049-3.92275Zm3.92812.76357c.27615 0 .5.22386.5.5v.07312c.3367.05906.62963.1816.86385.36929.35266.2826.53002.68109.53002 1.10143 0 .27615-.22386.5-.5.5s-.5-.22385-.5-.5c0-.12688-.04725-.23445-.15537-.32108-.11343-.09091-.33001-.18519-.70345-.19076-.01158.0008-.02327.00121-.03505.00121-.01185 0-.02361-.00041-.03526-.00122-.37991.0053-.59585.09618-.70675.18343-.10114.07956-.15185.18313-.15185.32842 0 .04865.0805.39084.96458.51713.49599.07086.98096.1949 1.35386.43025.39982.25234.68236.64504.68236 1.1855 0 .49965-.27459.91753-.65799 1.19227-.26446.18951-.5891.31982-.94895.38217v.07535c0 .27614-.22385.5-.5.5-.27614 0-.5-.22386-.5-.5v-.0703c-.34776-.05327-.66478-.16383-.92639-.33054-.38686-.24652-.68054-.6412-.68054-1.14454 0-.27614.22386-.5.5-.5s.5.22386.5.5c0 .07484.03747.18621.21793.3012.18465.11767.48694.2109.88901.2109.38616 0 .6815-.10454.86646-.23709.18392-.13179.24047-.27216.24047-.37942 0-.13392-.0486-.23414-.21609-.33984-.19441-.12271-.51291-.22186-.96155-.28596-1.00519-.14359-1.82316-.66067-1.82316-1.50708 0-.42897.17391-.83144.53355-1.11437.23497-.18485.52725-.3019.86031-.3581v-.07137c0-.27614.22386-.5.5-.5Zm-.4532 11.53844.00089-.0012.00399-.0053.01718-.0224c.01545-.0201.0387-.0502.06891-.0888.06047-.0773.14861-.1886.25767-.3222.21891-.2682.51841-.6219.84516-.9706.33058-.3528.67094-.6808.97228-.9102.15086-.1149.2731-.1904.36419-.2331l.01107-.0051c.07166.0924.13916.219.24797.4232l.01166.0219.0084.0158c.09293.1745.24759.465.46832.6747.1274.121.30874.2482.54975.3041.24931.0577.49126.0228.70498-.0657.15317-.0633.3165-.1759.43756-.2633.14132-.102.30641-.2305.48341-.3735.3551-.2869.7833-.6523 1.212-1.0262.2937-.2562.5903-.5185.8672-.7655-.0351.1494-.0801.2913-.1344.4201-.1609.3817.0181.8215.3997.9825.3817.1609.8216-.0181.9825-.3998.3581-.8492.4451-1.97291.2219-2.86721-.0571-.22904-.2188-.41782-.4363-.50952-.8493-.35805-1.9729-.44502-2.8672-.22191-.4019.10027-.64642.50736-.5461.90925.1002.4019.5073.64641.9092.54614.178-.0444.376-.06938.5808-.07596-.3035.27138-.6354.56553-.9632.85146-.4236.36935-.83528.72045-1.16869.98985-.12778.1032-.24047.1915-.33557.2628-.01566-.0285-.03239-.0596-.05057-.0937l-.02776-.0524c-.09103-.1721-.22403-.4236-.39035-.6319-.19319-.24193-.51751-.53745-1.00955-.5774-.30909-.02509-.59103.06964-.80314.16902-.22164.10384-.43747.24648-.6364.39788-.39825.3032-.80437.7005-1.15818 1.078-.35763.3816-.68042.7632-.91269 1.0478-.11653.1428-.21121.2623-.27717.3466-.033.0422-.05885.0756-.07672.0989l-.02071.027-.00567.0075-.00163.0021-.00069.0009c-.00006.0001-.00012.0002.59798.4527l-.59798-.4527c-.24993.3303-.18487.8009.14545 1.0508.33028.2499.8006.1848 1.05055-.1454Zm2.49279-2.613c-.00053-.0004 0-.0001 0 0Z" clip-rule="evenodd"></path>
  </g>
  <defs>
    <linearGradient id="paint0_linear_9380_2020" x1="13.953" x2="-2.626" y1="14.003" y2="4.677" gradientUnits="userSpaceOnUse">
      <stop stop-color="#ff51e3"></stop>
      <stop offset="1" stop-color="#1b4dff"></stop>
    </linearGradient>
  </defs>
</svg>