<svg xmlns="http://www.w3.org/2000/svg" fill="none" viewBox="0 0 14 14" id="Graph-Bar-Increase-Square--Streamline-Flex-Gradient">
  <desc>
    Graph Bar Increase Square Streamline Icon: https://streamlinehq.com
  </desc>
  <g id="graph-bar-increase-square--up-product-performance-increase-arrow-graph-business-chart">
    <path id="Subtract" fill="url(#paint0_linear_9380_2092)" fill-rule="evenodd" d="M3.65727.474686C4.73112.35499 5.85168.25 7 .25s2.26888.10499 3.3427.224686c1.672.186363 3.0154 1.528614 3.1946 3.203594.1143 1.0683.2127 2.18136.2127 3.32172 0 1.14035-.0984 2.25341-.2127 3.3217-.1792 1.675-1.5226 3.0173-3.1946 3.2036C9.26888 13.645 8.14832 13.75 7 13.75c-1.14832 0-2.26888-.105-3.34273-.2247C1.98532 13.339.641908 11.9967.462704 10.3217.348408 9.25341.25 8.14035.25 7c0-1.14036.098408-2.25342.212704-3.32172C.641907 2.0033 1.98532.661049 3.65727.474686Zm5.7262 9.748414c-.22644-.0404-.38303-.24299-.38308-.47301C9.00025 9.10172 9 7.79641 9 7.00005c0-.77088.03095-1.52305.06081-2.24863l.00558-.13583c.01834-.44736.32726-.84997.77316-.8905.19335-.01757.37785-.01757.57115 0 .4459.04053.7548.44314.7731.8905l.0056.13572c.0299.72558.0608 1.47786.0608 2.24874 0 .77093-.0309 1.52313-.0608 2.24875-.0071.17276-.0142.34427-.0207.5139-.0086.2237-.1634.4181-.3837.4581-.4915.0891-.91125.0899-1.40153.0023Zm-3.50838-.45795c-.00005.24445.17655.45505.41951.48225.48264.0542.92879.0542 1.41143 0 .24291-.0272.4195-.2377.4195-.48216v-1.6994c0-.45001-.02309-.89058-.04862-1.31828-.02803-.46951-.37675-.87463-.8465-.89812-.15488-.00775-.3051-.00775-.45998 0-.46975.02349-.81846.42861-.8465.89812-.02553.4277-.04862.86827-.04862 1.31828l-.00022 1.69931Zm-2.61533.49755c-.2405-.0175-.42916-.2116-.45238-.45161-.02875-.29723-.05738-.60479-.05738-.9197 0-.17071.00841-.33926.0207-.50518.03561-.48095.42243-.87546.90451-.88869.13429-.00369.26551-.00369.39981 0 .48208.01323.86889.40774.90451.88869.01228.16592.0207.33447.0207.50518v.8838c0 .25601-.19335.47211-.44872.49001-.44789.0312-.84102.0304-1.29175-.0025Z" clip-rule="evenodd"></path>
  </g>
  <defs>
    <linearGradient id="paint0_linear_9380_2092" x1="2.457" x2="13.36" y1="2.846" y2="8.887" gradientUnits="userSpaceOnUse">
      <stop stop-color="#ffd600"></stop>
      <stop offset="1" stop-color="#00d078"></stop>
    </linearGradient>
  </defs>
</svg>