<svg xmlns="http://www.w3.org/2000/svg" fill="none" viewBox="0 0 14 14" id="Justice-Scale-1--Streamline-Flex-Gradient">
  <desc>
    Justice Scale 1 Streamline Icon: https://streamlinehq.com
  </desc>
  <g id="justice-scale-1--office-work-scale-justice-company-arbitration-balance-court">
    <path id="Union" fill="url(#paint0_linear_9380_2110)" fill-rule="evenodd" d="M7.75 1.74902c0-.41421-.33579-.749997-.75-.749997s-.75.335787-.75.749997v2.05115H.75c-.414214 0-.75.33579-.75.75s.335786.75.75.75h1.42925L.132486 9.4672c-.0449246.09146-.0695157.18761-.0755248.28334C-.123084 10.836.128478 11.6951.784985 12.2641c.629435.5455 1.536175.7372 2.475855.7372.93714 0 1.80468-.1906 2.38368-.7579.59641-.5844.76777-1.4453.58949-2.50157-.00627-.08379-.02683-.16796-.06298-.24913L4.30408 5.30017H9.8726L7.82584 9.4672c-.04492.09146-.06951.18761-.07552.28335-.18004 1.08545.07152 1.94455.72802 2.51355.62944.5455 1.53616.7372 2.47586.7372.9371 0 1.8047-.1906 2.3837-.7579.5964-.5844.7678-1.4453.5895-2.50156-.0063-.0838-.0269-.16797-.063-.24914l-1.867-4.19253H13.25c.4142 0 .75-.33579.75-.75s-.3358-.75-.75-.75h-5.5V1.74902Zm4.3856 7.54884-1.2151-2.72875-1.34032 2.72878 2.55542-.00003Zm-7.69333 0-2.55545.00003 1.34032-2.72878 1.21513 2.72875Z" clip-rule="evenodd"></path>
  </g>
  <defs>
    <linearGradient id="paint0_linear_9380_2110" x1=".538" x2="15.218" y1="1.969" y2="11.62" gradientUnits="userSpaceOnUse">
      <stop stop-color="#00d078"></stop>
      <stop offset="1" stop-color="#007df0"></stop>
    </linearGradient>
  </defs>
</svg>