<svg xmlns="http://www.w3.org/2000/svg" fill="none" viewBox="0 0 14 14" id="Shirt--Streamline-Flex-Gradient">
  <desc>
    Shirt Streamline Icon: https://streamlinehq.com
  </desc>
  <g id="shirt--clothing-t-shirt-men-top-shopping-catergories">
    <path id="Union" fill="url(#paint0_linear_9380_2257)" fill-rule="evenodd" d="M3.44379 0c-.15418 0-.28776.0498534-.38202.0952777C2.96243.143157 2.86854.20498 2.7847.267491c-.16746.124855-.33766.284961-.4896.438881-.15408.156092-.30174.318578-.42318.453678l-.06655.07413c-.09267.10331-.1575.17558-.19899.21706-.3829.38291-.733299.77728-1.062264 1.1521-.4740679.54015-.55078904 1.36972-.109458 1.97735.118908.16371.254361.33379.414151.49358.159791.15979.329871.29524.493581.41415.43676.31723.9882.36679 1.46439.19352-.02047 2.18161-.01726 4.63276.05963 6.44076.02536.5966.39888 1.1413.98667 1.3446 2.18271.7549 4.2404.6663 6.36702-.0068.6091-.1928 1.0111-.7478 1.0371-1.3692.0756-1.8047.0787-4.23968.0583-6.40855.4761.17302 1.0273.12334 1.4639-.19376.1638-.11898.3339-.25452.4938-.4144.1599-.15988.2954-.33007.4144-.49388.4414-.60761.3647-1.43718-.1094-1.97737-.3289-.37482-.6793-.76919-1.0622-1.1521-.0407-.04072-.1049-.11245-.1974-.21588l-.0659-.07364c-.121-.13498-.2684-.297647-.4224-.454019-.1519-.154195-.3224-.314754-.4906-.440002-.0842-.062723-.1786-.1247-.2785-.1726575C10.9662.0494202 10.8325 0 10.6785 0H8.88739c-.23614 0-.44008.1652-.48911.396188-.1425.671422-.73951 1.174942-1.45297 1.174942-.71346 0-1.31047-.50352-1.45298-1.174942C5.44331.1652 5.23936 0 5.00323 0H3.44379Z" clip-rule="evenodd"></path>
  </g>
  <defs>
    <linearGradient id="paint0_linear_9380_2257" x1=".674" x2="16.533" y1="1.131" y2="9.966" gradientUnits="userSpaceOnUse">
      <stop stop-color="#00d078"></stop>
      <stop offset="1" stop-color="#007df0"></stop>
    </linearGradient>
  </defs>
</svg>