<svg xmlns="http://www.w3.org/2000/svg" fill="none" viewBox="0 0 14 14" id="Subscription-Cashflow--Streamline-Flex-Gradient">
  <desc>
    Subscription Cashflow Streamline Icon: https://streamlinehq.com
  </desc>
  <g id="subscription-cashflow">
    <path id="Union" fill="url(#paint0_linear_9380_2363)" fill-rule="evenodd" d="M6.24181.88376c-.03712.41255.26722.77708.67977.8142.44751.04027.92394.12622 1.42835.26138 1.78157.47736 2.93977 1.30504 3.56257 2.34215.62 1.03256.783 2.39551.3265 4.09899-.2569.95886-.6301 1.72552-1.0932 2.31612-.0176-.0401-.0347-.0817-.0513-.125-.1074-.2803-.3715-.4696-.6715-.4812-.2999-.0115-.57786.1568-.70651.4281-.37847.7978-.34552 1.6232.08416 2.3958.07746.1393.19726.2503.34205.3169.8026.3691 1.6311.3573 2.416-.0446.2697-.1381.4298-.425.4058-.7271-.024-.302-.2275-.56-.5156-.6537-.0738-.024-.1435-.0491-.2093-.0754.6524-.7947 1.1354-1.79373 1.4483-2.96169.5316-1.98409.3931-3.78968-.4894-5.25942-.8799-1.46518-2.4254-2.47357-4.46034-3.018838C8.15976.35547 7.59821.252782 7.056.203993c-.41254-.037122-.77707.26722-.81419.679767ZM3.84018.746267C3.03757.377084 2.20901.38896 1.42413.790864c-.26972.138113-.429825.424966-.4058.727026.02402.30207.22746.56001.51562.65375.07773.02529.15085.05182.21972.07959C1.10448 3.0447.62375 4.04103.311845 5.20507c-.531637 1.98409-.3931153 3.78968.489447 5.25943.879828 1.4652 2.425318 2.4736 4.460298 3.0188.60762.1628 1.19668.268 1.76427.3135.41289.0331.77445-.2748.80757-.6877.03311-.4128-.27475-.7744-.68764-.8075-.46702-.0375-.96603-.1252-1.49597-.2672-1.78154-.4773-2.93979-1.305-3.56257-2.34211-.62003-1.03256-.78296-2.39551-.32652-4.09899.25475-.95072.62377-1.71249 1.08136-2.30095.01586.03654.03129.07436.04629.11353.10737.2803.37153.46958.67147.48115.29994.01157.57789-.15681.70653-.42801.37848-.79791.34553-1.62326-.08416-2.3959-.07745-.139273-.19726-.250256-.34204-.316853ZM7.89199 3.5c0-.41421-.33578-.75-.75-.75-.41421 0-.75.33579-.75.75v.53197c-.96283.279-1.56095 1.03164-1.56095 1.92402 0 .32955.07226.64014.23604.9137.16313.27245.38762.45905.615.58799.39212.22236.8755.31119 1.21163.37296l.0578.01065c.41227.07643.64658.13023.79337.21636.05417.03178.06784.05312.07257.06126.0043.0074.02499.04464.02769.14428-.00786.01232-.02604.03546-.06481.06822-.09525.08049-.26436.1694-.4947.22006-.46509.10229-.99738.01398-1.37554-.33112-.30596-.27921-.78034-.25753-1.05955.04843-.27922.30596-.25753.78034.04843 1.05955.44851.40931.97306.63214 1.49302.71897V10.5c0 .4142.33579.75.75.75.41422 0 .75-.3358.75-.75v-.56043c.31507-.10187.61203-.25588.85645-.46239.3151-.26625.59699-.67257.59699-1.19207 0-.33194-.07082-.64411-.23106-.91986-.16012-.27554-.38195-.4673-.61038-.60134-.40144-.23554-.89574-.32675-1.23663-.38965l-.04241-.00784c-.41691-.07729-.65297-.1285-.80296-.21355-.0543-.03079-.06585-.0502-.06786-.05357-.00177-.00289-.02309-.0378-.02309-.14331 0-.09988.03741-.20601.13183-.29883.09406-.09247.28092-.205.62411-.23447.29523-.02536.53573.06177.71208.16354.08827.05094.1558.10312.19867.13995.02116.01818.03544.03188.04235.03872l.00369.0037c.27749.30143.7466.32458 1.05248.05018.30833-.2766.33406-.75077.05746-1.0591l-.55828.50082c.55828-.50082.5585-.50057.55828-.50082l-.00088-.00098-.00094-.00105-.00206-.00227-.00486-.00531-.01264-.01349c-.00971-.01023-.02202-.02289-.03689-.03762-.02969-.02939-.06987-.06728-.12015-.11048-.09999-.08592-.24321-.19567-.42649-.30144-.17839-.10294-.39914-.20441-.65681-.27478V3.5Z" clip-rule="evenodd"></path>
  </g>
  <defs>
    <linearGradient id="paint0_linear_9380_2363" x1="13.952" x2="-2.391" y1="13.802" y2="4.337" gradientUnits="userSpaceOnUse">
      <stop stop-color="#ff51e3"></stop>
      <stop offset="1" stop-color="#1b4dff"></stop>
    </linearGradient>
  </defs>
</svg>