<svg xmlns="http://www.w3.org/2000/svg" fill="none" viewBox="0 0 14 14" id="Target--Streamline-Flex-Gradient">
  <desc>
    Target Streamline Icon: https://streamlinehq.com
  </desc>
  <g id="target--shop-bullseye-arrow-target 1">
    <path id="Union" fill="url(#paint0_linear_9380_2438)" fill-rule="evenodd" d="M2.90573 2.90549c-.88392.88392-1.40524 2.23258-1.40524 4.09443 0 1.86184.52132 3.21048 1.40524 4.09438.88392.884 2.23259 1.4053 4.09443 1.4053s3.21054-.5213 4.09444-1.4053c.8839-.8839 1.4053-2.23254 1.4053-4.09438 0-.41422.3358-.75.75-.75s.75.33578.75.75c0 2.13794-.6036 3.91408-1.8446 5.15508s-3.01719 1.8446-5.15514 1.8446c-2.13795 0-3.91412-.6036-5.15509-1.8446C.604106 10.914.000488281 9.13786.000488281 6.99992c0-2.13795.603617719-3.91413 1.844581719-5.15509C3.08604.603863 4.86221.000244141 7.00016.000244141c.41421 0 .75.335786859.75.749999859 0 .414216-.33579.749996-.75.749996-1.86184 0-3.21051.52133-4.09443 1.40525Zm3.82595.78265c.09167.40395-.16147.80572-.56541.8974-.57104.1296-.96539.39524-1.22601.75792-.26674.37119-.43987.90971-.43987 1.65601 0 .90189.25134 1.50059.62529 1.87454s.97265.62529 1.87454.62529c.78285 0 1.33694-.19028 1.71031-.48044.36574-.28424.63091-.72041.73825-1.36168.06838-.40853.455-.68427.86352-.61588.4086.06838.6843.455.6159.86353-.1586.9478-.5861 1.74577-1.29723 2.29837-.70349.5468-1.61054.7961-2.63075.7961-1.17799 0-2.20421-.3336-2.9352-1.06463-.73099-.73099-1.06463-1.7572-1.06463-2.9352 0-.97238.2263-1.84187.72175-2.53134.50157-.69799 1.23216-1.14568 2.11214-1.34539.40394-.09168.80572.16146.8974.5654Zm2.82866 1.81097L7.53058 7.52885c-.29289.2929-.76776.2929-1.06066 0-.29289-.29289-.29289-.76777.00001-1.06066l2.03073-2.03072c-.22367-.8862.03329-1.8294.68424-2.48037L10.7714.3706c.1292-.129236.3167-.181353.4941-.137355.1774.043997.3188.177682.3726.352331l.4188 1.357924 1.3579.41877c.1747.05386.3083.19525.3523.37264.044.17738-.0081.36485-.1373.49409l-1.5864 1.58646c-.6516.65163-1.596.90848-2.48306.68365Z" clip-rule="evenodd"></path>
  </g>
  <defs>
    <linearGradient id="paint0_linear_9380_2438" x1="15.213" x2="-3.67" y1="16.965" y2="3.551" gradientUnits="userSpaceOnUse">
      <stop stop-color="#ffd600"></stop>
      <stop offset="1" stop-color="#ff007a"></stop>
    </linearGradient>
  </defs>
</svg>