<svg xmlns="http://www.w3.org/2000/svg" fill="none" viewBox="0 0 24 24" id="Vintage-Tv-4--Streamline-Ultimate">
  <desc>
    Vintage Tv 4 Streamline Icon: https://streamlinehq.com
  </desc>
  <path fill="#c77f67" d="M21.087 6.73914H2.91306c-0.25368 0 -0.49698 0.10077 -0.67636 0.28015 -0.17938 0.17939 -0.28016 0.42268 -0.28016 0.67637V20.1304c0 0.2537 0.10078 0.497 0.28016 0.6764 0.17938 0.1794 0.42268 0.2802 0.67636 0.2802H21.087c0.2537 0 0.497 -0.1008 0.6763 -0.2802 0.1794 -0.1794 0.2802 -0.4227 0.2802 -0.6764V7.69566c0 -0.25369 -0.1008 -0.49698 -0.2802 -0.67637 -0.1793 -0.17938 -0.4226 -0.28015 -0.6763 -0.28015Z" stroke-width="1"></path>
  <path fill="#e3bfb3" d="M21.087 6.73914H2.91306c-0.25368 0 -0.49698 0.10077 -0.67636 0.28015 -0.17938 0.17939 -0.28016 0.42268 -0.28016 0.67637V10.087c0 -0.25372 0.10078 -0.49702 0.28016 -0.6764 0.17938 -0.17938 0.42268 -0.28016 0.67636 -0.28016H21.087c0.2537 0 0.497 0.10078 0.6763 0.28016 0.1794 0.17938 0.2802 0.42268 0.2802 0.6764V7.69566c0 -0.25369 -0.1008 -0.49698 -0.2802 -0.67637 -0.1793 -0.17938 -0.4226 -0.28015 -0.6763 -0.28015Z" stroke-width="1"></path>
  <path stroke="#191919" stroke-linecap="round" stroke-linejoin="round" d="M21.087 6.73914H2.91306c-0.25368 0 -0.49698 0.10077 -0.67636 0.28015 -0.17938 0.17939 -0.28016 0.42268 -0.28016 0.67637V20.1304c0 0.2537 0.10078 0.497 0.28016 0.6764 0.17938 0.1794 0.42268 0.2802 0.67636 0.2802H21.087c0.2537 0 0.497 -0.1008 0.6763 -0.2802 0.1794 -0.1794 0.2802 -0.4227 0.2802 -0.6764V7.69566c0 -0.25369 -0.1008 -0.49698 -0.2802 -0.67637 -0.1793 -0.17938 -0.4226 -0.28015 -0.6763 -0.28015Z" stroke-width="1"></path>
  <path stroke="#191919" stroke-linecap="round" stroke-linejoin="round" d="M3.87012 21.087V23" stroke-width="1"></path>
  <path stroke="#191919" stroke-linecap="round" stroke-linejoin="round" d="M20.1304 21.087V23" stroke-width="1"></path>
  <path stroke="#191919" stroke-linecap="round" stroke-linejoin="round" d="m6.26074 1 5.73916 5.73913L17.739 1" stroke-width="1"></path>
  <path fill="#66e1ff" d="M16.3044 8.65222H7.69574c-0.76106 0 -1.49094 0.30233 -2.02909 0.84048 -0.53815 0.5381 -0.84048 1.268 -0.84048 2.0291v4.7826c0 0.7611 0.30233 1.4909 0.84048 2.0291 0.53815 0.5381 1.26803 0.8405 2.02909 0.8405h8.60866c0.7611 0 1.491 -0.3024 2.0291 -0.8405 0.5382 -0.5382 0.8405 -1.268 0.8405 -2.0291v-4.7826c0 -0.7611 -0.3023 -1.491 -0.8405 -2.0291 -0.5381 -0.53815 -1.268 -0.84048 -2.0291 -0.84048Z" stroke-width="1"></path>
  <path fill="#c2f3ff" d="M16.3044 8.65222H7.69574c-0.76036 0.00227 -1.48893 0.30533 -2.02658 0.84299 -0.53766 0.53769 -0.84072 1.26619 -0.84299 2.02659v4.7826c0.00209 0.6226 0.20582 1.2278 0.5807 1.725 0.37488 0.4971 0.90072 0.8594 1.49878 1.0326L17.1777 8.78996c-0.2821 -0.09125 -0.5768 -0.13773 -0.8733 -0.13774Z" stroke-width="1"></path>
  <path stroke="#191919" stroke-linecap="round" stroke-linejoin="round" d="M16.3044 8.65222H7.69574c-0.76106 0 -1.49094 0.30233 -2.02909 0.84048 -0.53815 0.5381 -0.84048 1.268 -0.84048 2.0291v4.7826c0 0.7611 0.30233 1.4909 0.84048 2.0291 0.53815 0.5381 1.26803 0.8405 2.02909 0.8405h8.60866c0.7611 0 1.491 -0.3024 2.0291 -0.8405 0.5382 -0.5382 0.8405 -1.268 0.8405 -2.0291v-4.7826c0 -0.7611 -0.3023 -1.491 -0.8405 -2.0291 -0.5381 -0.53815 -1.268 -0.84048 -2.0291 -0.84048Z" stroke-width="1"></path>
</svg>