<svg xmlns="http://www.w3.org/2000/svg" fill="none" viewBox="0 0 14 14" id="Parachute-Drop--Streamline-Core">
  <desc>
    Parachute Drop Streamline Icon: https://streamlinehq.com
  </desc>
  <g id="parachute-drop--package-box-fulfillment-cart-warehouse-shipping-delivery-drop-parachute">
    <path id="Union" fill="#2859c5" fill-rule="evenodd" d="M3.478 0.66C4.601 0.145 5.811 0 6.985 0c1.171 0 2.393 0.135 3.523 0.653a7.36 7.36 0 0 1 2.837 2.296 0.97 0.97 0 0 1 0.013 1.032 1 1 0 0 1 -0.81 0.517l-2.467 3.229a0.75 0.75 0 0 1 -1.192 -0.911l1.77 -2.316H7.735v2.771a0.75 0.75 0 1 1 -1.5 0V4.5H3.311l1.77 2.316a0.75 0.75 0 1 1 -1.192 0.91L1.42 4.497a1 1 0 0 1 -0.778 -0.516 0.97 0.97 0 0 1 0.034 -1.06A7.36 7.36 0 0 1 3.478 0.66Z" clip-rule="evenodd" stroke-width="1"></path>
    <path id="Union_2" fill="#8fbffa" fill-rule="evenodd" d="M4.829 6.771c-0.806 0 -1.458 0.653 -1.458 1.459v4.312c0 0.805 0.652 1.458 1.458 1.458H9.14c0.805 0 1.458 -0.653 1.458 -1.458V8.23c0 -0.806 -0.653 -1.459 -1.458 -1.459H4.83Z" clip-rule="evenodd" stroke-width="1"></path>
    <path id="Vector (Stroke)" fill="#2859c5" fill-rule="evenodd" d="M6.94 11.927c0 -0.345 0.28 -0.625 0.625 -0.625h1a0.625 0.625 0 0 1 0 1.25h-1a0.625 0.625 0 0 1 -0.625 -0.625Z" clip-rule="evenodd" stroke-width="1"></path>
  </g>
</svg>