<svg xmlns="http://www.w3.org/2000/svg" fill="none" viewBox="0 0 14 14" id="Shipment-Add--Streamline-Core">
  <desc>
    Shipment Add Streamline Icon: https://streamlinehq.com
  </desc>
  <g id="shipment-add--shipping-parcel-shipment-add">
    <path id="Vector" fill="#8fbffa" d="M14 4.308v8.615A1.077 1.077 0 0 1 12.923 14H1.077A1.077 1.077 0 0 1 0 12.923V4.308l1.615 -3.113A2.189 2.189 0 0 1 3.49 0h7.022a2.19 2.19 0 0 1 1.928 1.195L14 4.308Z" stroke-width="1"></path>
    <path id="Vector_2" fill="#2859c5" d="M1.615 1.195 0 4.308h14l-1.562 -3.113A2.19 2.19 0 0 0 10.511 0H3.489a2.189 2.189 0 0 0 -1.874 1.195Z" stroke-width="1"></path>
    <path id="Intersect" fill="#8fbffa" fill-rule="evenodd" d="M6.375 4.308V0h1.25v4.308h-1.25Z" clip-rule="evenodd" stroke-width="1"></path>
    <path id="Union" fill="#2859c5" fill-rule="evenodd" d="M7.75 6.75a0.75 0.75 0 0 0 -1.5 0V8.5H4.5a0.75 0.75 0 0 0 0 1.5h1.75v1.75a0.75 0.75 0 0 0 1.5 0V10H9.5a0.75 0.75 0 0 0 0 -1.5H7.75V6.75Z" clip-rule="evenodd" stroke-width="1"></path>
  </g>
</svg>