<svg viewBox="0 0 48 48" xmlns="http://www.w3.org/2000/svg"><path d="M45,12.25H38.68A45.89,45.89,0,0,1,24,9.88,45.73,45.73,0,0,0,9.37,7.5H3c-.58,0-1,.35-1,.79v26a.94.94,0,0,0,1,.79H9.37A46,46,0,0,1,24,37.46a45.62,45.62,0,0,0,14.65,2.38H45a.93.93,0,0,0,1-.79V13A.94.94,0,0,0,45,12.25Z" fill="#ff6242" stroke="#45413c" stroke-linecap="round" stroke-linejoin="round"></path><path d="M24,9.88A43.57,43.57,0,0,0,16.28,8V35.61A44.44,44.44,0,0,1,24,37.46a43.26,43.26,0,0,0,7.74,1.86V11.73A44.11,44.11,0,0,1,24,9.88Z" fill="#fff" stroke="#45413c"></path><path d="M9.37,7.5H3c-.58,0-1,.35-1,.79v26a.94.94,0,0,0,1,.79H9.37a46.66,46.66,0,0,1,6.91.52V8A46.66,46.66,0,0,0,9.37,7.5Z" fill="#009fd9" stroke="#45413c"></path><path d="M12.500 45.500 A11.5 1.5 0 1 0 35.500 45.500 A11.5 1.5 0 1 0 12.500 45.500 Z" fill="#45413c" opacity=".15"></path></svg>