<svg xmlns="http://www.w3.org/2000/svg" viewBox="0 0 24 24" id="Controls-Forward--Streamline-Ultimate">
  <desc>
    Controls Forward Streamline Icon: https://streamlinehq.com
  </desc>
  <path d="M23.49 10.86 13 1.38a1.5 1.5 0 0 0 -2.5 1.14v5.53a0.25 0.25 0 0 1 -0.15 0.23 0.25 0.25 0 0 1 -0.27 0L2.5 1.38A1.5 1.5 0 0 0 0 2.52v19a1.5 1.5 0 0 0 2.5 1.13l7.58 -6.84a0.25 0.25 0 0 1 0.27 0 0.24 0.24 0 0 1 0.15 0.22v5.53a1.5 1.5 0 0 0 2.5 1.05l10.49 -9.47a1.54 1.54 0 0 0 0 -2.28Z" fill="#000000" stroke-width="1"></path>
</svg>