<svg xmlns="http://www.w3.org/2000/svg" viewBox="0 0 24 24" id="Movies-Reel--Streamline-Ultimate">
  <desc>
    Movies Reel Streamline Icon: https://streamlinehq.com
  </desc>
  <g id="Movies-Reel--Streamline-Ultimate.svg">
    <path d="M20 18H3.5a1.5 1.5 0 0 1 0 -3H8a0.26 0.26 0 0 0 0.23 -0.14 0.24 0.24 0 0 0 0 -0.27 9.19 9.19 0 0 1 -1 -1.46A0.26 0.26 0 0 0 7 13H3.5a3.5 3.5 0 0 0 0 7H20a1 1 0 0 1 0 2h-9a1 1 0 0 0 0 2h9a3 3 0 0 0 0 -6Z" fill="#000000" stroke-width="1"></path>
    <path d="M15.5 17A8.5 8.5 0 1 0 7 8.5a8.51 8.51 0 0 0 8.5 8.5Zm3.81 -9.73a0.25 0.25 0 0 1 0.14 -0.27l1.87 -0.72a0.25 0.25 0 0 1 0.33 0.15 6.5 6.5 0 0 1 0 4.22 0.25 0.25 0 0 1 -0.33 0.15l-1.87 -0.8a0.25 0.25 0 0 1 -0.14 -0.31 4.08 4.08 0 0 0 0 -2.42Zm-5.92 -4.92a6.5 6.5 0 0 1 4.22 0 0.25 0.25 0 0 1 0.15 0.33L17 4.55a0.25 0.25 0 0 1 -0.31 0.14 4.08 4.08 0 0 0 -2.46 0 0.25 0.25 0 0 1 -0.23 -0.14l-0.72 -1.87a0.25 0.25 0 0 1 0.11 -0.33ZM17.5 8.5a2 2 0 1 1 -2 -2 2 2 0 0 1 2 2Zm-4.26 5.82 0.76 -1.87a0.25 0.25 0 0 1 0.31 -0.14 4.08 4.08 0 0 0 2.46 0 0.25 0.25 0 0 1 0.31 0.14l0.72 1.87a0.25 0.25 0 0 1 -0.15 0.33 6.5 6.5 0 0 1 -4.22 0 0.25 0.25 0 0 1 -0.19 -0.33ZM9.68 6.24l1.87 0.76a0.25 0.25 0 0 1 0.14 0.31 4.08 4.08 0 0 0 0 2.46 0.25 0.25 0 0 1 -0.14 0.31l-1.87 0.72a0.25 0.25 0 0 1 -0.33 -0.15C8.74 8.82 9 6 9.68 6.24Z" fill="#000000" stroke-width="1"></path>
  </g>
</svg>