<svg xmlns="http://www.w3.org/2000/svg" viewBox="0 0 24 24" id="Video-Edit-Magic-Wand--Streamline-Ultimate">
  <desc>
    Video Edit Magic Wand Streamline Icon: https://streamlinehq.com
  </desc>
  <g id="Video-Edit-Magic-Wand--Streamline-Ultimate.svg">
    <path d="M9.67 22.37a0.25 0.25 0 0 0 0 -0.25 0.24 0.24 0 0 0 -0.22 -0.12H3.5a0.5 0.5 0 0 1 -0.5 -0.5v-4a0.5 0.5 0 0 1 0.5 -0.5h8a0.5 0.5 0 0 1 0.5 0.5 0.12 0.12 0 0 0 0.09 0.12 0.12 0.12 0 0 0 0.14 -0.06L15 12.43a0.27 0.27 0 0 0 0 -0.12V1a1 1 0 0 0 -1 -1H1a1 1 0 0 0 -1 1v22a1 1 0 0 0 1 1h7.65a0.25 0.25 0 0 0 0.22 -0.13ZM12 14.5a0.5 0.5 0 0 1 -0.5 0.5h-8a0.5 0.5 0 0 1 -0.5 -0.5V10a0.5 0.5 0 0 1 0.5 -0.5h8a0.5 0.5 0 0 1 0.5 0.5ZM12 7a0.5 0.5 0 0 1 -0.5 0.5h-8A0.5 0.5 0 0 1 3 7V2.5a0.5 0.5 0 0 1 0.5 -0.5h8a0.5 0.5 0 0 1 0.5 0.5Z" fill="#000000" stroke-width="1"></path>
    <path d="M15.16 15.79a0.25 0.25 0 0 0 -0.34 0.11l-4.12 7.73a0.25 0.25 0 0 0 0 0.25 0.27 0.27 0 0 0 0.22 0.12h4a0.24 0.24 0 0 0 0.22 -0.13l3.25 -6.09a0.25 0.25 0 0 0 -0.1 -0.34Z" fill="#000000" stroke-width="1"></path>
    <path d="M20.68 13.41a1 1 0 0 0 -0.41 -1.35l-1.77 -0.94a1 1 0 0 0 -1.35 0.41l-1.39 2.6a0.25 0.25 0 0 0 0.11 0.34L19 16.12a0.26 0.26 0 0 0 0.34 -0.11Z" fill="#000000" stroke-width="1"></path>
    <path d="m16.43 3 0.26 0A1.53 1.53 0 0 1 18 4.31l0 0.26a0.51 0.51 0 0 0 1 0l0 -0.26A1.53 1.53 0 0 1 20.31 3l0.26 0a0.51 0.51 0 0 0 0 -1l-0.26 0A1.53 1.53 0 0 1 19 0.69l0 -0.26a0.51 0.51 0 0 0 -1 0l0 0.26A1.53 1.53 0 0 1 16.69 2l-0.26 0a0.51 0.51 0 0 0 0 1Z" fill="#000000" stroke-width="1"></path>
    <path d="m23.57 7 -0.26 0A1.53 1.53 0 0 1 22 5.69l0 -0.26a0.51 0.51 0 0 0 -1 0l0 0.26A1.53 1.53 0 0 1 19.69 7l-0.26 0a0.51 0.51 0 0 0 0 1l0.26 0A1.53 1.53 0 0 1 21 9.31l0 0.26a0.51 0.51 0 0 0 1 0l0 -0.26A1.53 1.53 0 0 1 23.31 8l0.26 0a0.51 0.51 0 0 0 0 -1Z" fill="#000000" stroke-width="1"></path>
  </g>
</svg>