<svg xmlns="http://www.w3.org/2000/svg" fill="none" viewBox="0 0 24 24" id="Drone--Streamline-Sharp">
  <desc>
    Drone Streamline Icon: https://streamlinehq.com
  </desc>
  <g id="drone--artificial-robotics-intelligence-machine-technology-android-flying">
    <path id="Union" fill="#8fbffa" fill-rule="evenodd" d="m5.793 14.293 -3.5 3.5 -0.293 0.293V23h2v-4.086l3.207 -3.207 -1.414 -1.414Zm11 1.414L20 18.914V23h2v-4.914l-0.293 -0.293 -3.5 -3.5 -1.414 1.414Z" clip-rule="evenodd" stroke-width="1"></path>
    <path id="Union_2" fill="#2859c5" fill-rule="evenodd" d="M6.5 3H10V1H1v2h3.5v4h2V3Z" clip-rule="evenodd" stroke-width="1"></path>
    <path id="Union_3" fill="#2859c5" fill-rule="evenodd" d="M19.5 3H23V1h-9v2h3.5v4h2V3Z" clip-rule="evenodd" stroke-width="1"></path>
    <path id="Ellipse 809" fill="#2859c5" d="M12 19a8 8 0 0 0 8 -8v-1H4v1a8 8 0 0 0 8 8Z" stroke-width="1"></path>
    <path id="Rectangle 1057" fill="#8fbffa" d="M1 6h22v5H1V6Z" stroke-width="1"></path>
  </g>
</svg>