<svg xmlns="http://www.w3.org/2000/svg" fill="none" viewBox="0 0 48 48" id="Office-Worker--Streamline-Plump">
  <desc>
    Office Worker Streamline Icon: https://streamlinehq.com
  </desc>
  <g id="office-worker--office-worker-human-resources">
    <g id="Subtract">
      <path fill="#8fbffa" d="M12.999 15a6.5 6.5 0 1 0 0 -13 6.5 6.5 0 0 0 0 13Z" stroke-width="1"></path>
      <path fill="#8fbffa" d="M7.442 16.684A75.079 75.079 0 0 1 13 16.5c2.374 0 4.206 0.083 5.557 0.184 2.075 0.154 3.702 1.643 4.142 3.654 0.286 1.31 0.621 3.005 0.93 4.983 -2.76 1 -4.615 3.521 -4.889 6.403A56.009 56.009 0 0 0 18.5 37c0 2.14 0.113 3.93 0.24 5.273l-0.081 1.101c-0.111 1.499 -1.187 2.799 -2.744 2.97 -0.8 0.087 -1.789 0.156 -2.915 0.156a26.89 26.89 0 0 1 -2.916 -0.157c-1.557 -0.17 -2.632 -1.47 -2.743 -2.969l-0.668 -9.02a101.3 101.3 0 0 1 -1.92 -0.111 3.272 3.272 0 0 1 -3.045 -3.583A85.404 85.404 0 0 1 3.3 20.34c0.44 -2.011 2.068 -3.5 4.142 -3.655Z" stroke-width="1"></path>
    </g>
    <path id="Union" fill="#2859c5" fill-rule="evenodd" d="M27.775 27.7a22.36 22.36 0 0 1 0.827 -2.343c0.581 -1.411 1.845 -2.55 3.512 -2.748A16.017 16.017 0 0 1 34 22.5c0.72 0 1.354 0.045 1.887 0.109 1.667 0.198 2.93 1.337 3.511 2.748 0.271 0.658 0.584 1.489 0.827 2.343 0.822 0.06 1.518 0.13 2.1 0.2 2.19 0.264 3.747 1.99 3.948 4.108 0.12 1.259 0.227 2.954 0.227 4.992s-0.107 3.733 -0.227 4.992c-0.201 2.117 -1.757 3.844 -3.948 4.109 -1.697 0.204 -4.353 0.399 -8.325 0.399 -3.972 0 -6.628 -0.195 -8.325 -0.4 -2.19 -0.264 -3.747 -1.99 -3.948 -4.108A53.015 53.015 0 0 1 21.5 37c0 -2.038 0.107 -3.733 0.227 -4.992 0.201 -2.117 1.757 -3.844 3.948 -4.109 0.583 -0.07 1.278 -0.139 2.1 -0.2Zm4.692 -2.112c0.424 -0.05 0.94 -0.088 1.533 -0.088 0.594 0 1.11 0.038 1.533 0.088 0.44 0.052 0.864 0.36 1.091 0.911 0.134 0.327 0.272 0.68 0.4 1.043 -0.91 -0.027 -1.916 -0.042 -3.024 -0.042s-2.113 0.015 -3.024 0.041c0.129 -0.362 0.266 -0.715 0.4 -1.042 0.227 -0.55 0.652 -0.859 1.091 -0.911Z" clip-rule="evenodd" stroke-width="1"></path>
  </g>
</svg>