<svg xmlns="http://www.w3.org/2000/svg" fill="none" viewBox="0 0 24 24" id="Startup--Streamline-Sharp">
  <desc>
    Startup Streamline Icon: https://streamlinehq.com
  </desc>
  <g id="startup--shop-rocket-launch-startup">
    <path id="Union" fill="#000000" fill-rule="evenodd" d="M4.5 12.5 16 1h7v7L11.5 19.5l-7 -7Zm12.9142 -4.50001 -0.7071 0.70711 -1 1 -0.7071 0.7071 -1.4142 -1.41421 0.7071 -0.7071 1 -1L16 6.58578l1.4142 1.41421ZM18.75 14.3713l-6.2196 6.2196L15 23.0605l3.75 -3.75v-4.9392Zm-8.1036 6.3965 -1.41417 -1.4142 -1.93934 1.9393 1.41422 1.4142 1.93929 -1.9393Zm-2.99996 -3 -1.41422 -1.4142 -4.93933 4.9393 1.41422 1.4142 4.93933 -4.9393Zm-3 -3 -1.41421 -1.4142 -1.93934 1.9393 1.41422 1.4142 1.93933 -1.9393Zm-1.23738 -3.2982L9.62866 5.25H4.68945L0.939453 9l2.469607 2.4696Z" clip-rule="evenodd" stroke-width="1"></path>
  </g>
</svg>