<svg xmlns="http://www.w3.org/2000/svg" fill="none" viewBox="0 0 14 14" id="Cloud-Warning--Streamline-Core">
  <desc>
    Cloud Warning Streamline Icon: https://streamlinehq.com
  </desc>
  <g id="cloud-warning--cloud-network-internet-server-warning-alert">
    <path id="Subtract" fill="#fddc5c" fill-rule="evenodd" d="M11.3077 4.27822c-0.0442 -0.01317 -0.0836 -0.0387 -0.1138 -0.07357 -0.0301 -0.03487 -0.0496 -0.07763 -0.0562 -0.12323 -0.079 -0.86603 -0.4525 -1.67879 -1.0583 -2.30275C9.47367 1.15471 8.67233 0.757275 7.80903 0.652632c-0.86331 -0.104643 -1.73639 0.089836 -2.47366 0.551008 -0.73727 0.46117 -1.29416 1.16115 -1.5778 1.98322 -0.01877 0.03833 -0.04812 0.07049 -0.08457 0.09268 -0.03646 0.02219 -0.07851 0.03349 -0.12118 0.03256 -0.41116 0.0276 -0.81286 0.13592 -1.18216 0.31877 -0.36931 0.18286 -0.69898 0.43666 -0.97019 0.74691 -0.547748 0.6266 -0.824145 1.44512 -0.768391 2.2755 0.055754 0.83038 0.439091 1.60461 1.065691 2.15235 0.62659 0.54775 1.44511 0.82415 2.27549 0.76839H5V7.5c0 -1.10457 0.89543 -2 2 -2s2 0.89543 2 2v2.07402h1.7083c0.6567 -0.00393 1.2892 -0.24853 1.7777 -0.68748 0.4885 -0.43895 0.799 -1.04179 0.8729 -1.69435 0.0739 -0.65257 -0.0941 -1.30956 -0.4722 -1.84658 -0.378 -0.53702 -0.9398 -0.91679 -1.579 -1.06739Z" clip-rule="evenodd" stroke-width="1"></path>
    <path id="Union" fill="#0c098c" fill-rule="evenodd" d="M7.88424 0.0321742C6.87901 -0.0896713 5.8624 0.136779 5.00393 0.673761 4.22757 1.15938 3.623 1.87241 3.27017 2.71233c-0.40909 0.05394 -0.80708 0.17487 -1.17784 0.35844 -0.44285 0.21927 -0.83818 0.52362 -1.163417 0.89567 -0.65684 0.7514 -0.9882878 1.73294 -0.92142892 2.72871C0.074343 7.69092 0.534032 8.61935 1.28542 9.27619c0.77103 0.674 1.74024 0.92281 2.68685 0.92281H4.375c0.34518 0 0.625 -0.2798 0.625 -0.62498 0 -0.34517 -0.27982 -0.625 -0.625 -0.625h-0.40273c-0.7364 0 -1.382 -0.19245 -1.86416 -0.61394 -0.5018 -0.43865 -0.80878 -1.05867 -0.85343 -1.72367 -0.04465 -0.66499 0.17669 -1.32049 0.61534 -1.82228 0.2172 -0.24847 0.48121 -0.45172 0.77696 -0.59815 0.29052 -0.14384 0.60607 -0.23009 0.92925 -0.25405 0.14876 -0.00342 0.29425 -0.04591 0.42173 -0.12351 0.13835 -0.08421 0.24971 -0.20625 0.32093 -0.35171 0.01128 -0.02304 0.02113 -0.04675 0.0295 -0.071 0.23701 -0.68693 0.70235 -1.27184 1.31842 -1.65719 0.61607 -0.38536 1.34563 -0.54787 2.06701 -0.46043 0.72139 0.08744 1.39099 0.41955 1.89715 0.94093 0.50613 0.52138 0.81833 1.20053 0.88433 1.92419 0.001 0.01098 0.0023 0.02194 0.0039 0.03285 0.0237 0.16359 0.0937 0.31699 0.2017 0.4421 0.1081 0.12511 0.2496 0.2167 0.408 0.26396 0.0117 0.0035 0.0236 0.00665 0.0354 0.00945 0.4904 0.11553 0.9214 0.40685 1.2114 0.8188 0.29 0.41196 0.4188 0.91595 0.3622 1.41653 -0.0567 0.50059 -0.2949 0.96303 -0.6697 1.29976 -0.3742 0.33633 -0.8587 0.52392 -1.3618 0.52736H9.625c-0.34518 0 -0.625 0.27983 -0.625 0.625 0 0.34518 0.27982 0.62498 0.625 0.62498h1.0833l0.0038 0c0.8096 -0.0048 1.5894 -0.3064 2.1916 -0.84758 0.6023 -0.54118 0.9852 -1.2844 1.0762 -2.08894 0.0911 -0.80454 -0.116 -1.61454 -0.5821 -2.27663 -0.411 -0.58391 -0.9983 -1.01702 -1.6718 -1.23852 -0.1404 -0.90379 -0.5579 -1.74448 -1.1981 -2.404C9.82253 0.616796 8.88946 0.15402 7.88424 0.0321742ZM7.75 7.5c0 -0.41421 -0.33579 -0.75 -0.75 -0.75s-0.75 0.33579 -0.75 0.75v3c0 0.4142 0.33579 0.75 0.75 0.75s0.75 -0.3358 0.75 -0.75v-3ZM6 13c0 0.5523 0.44772 1 1 1 0.55229 0 1 -0.4477 1 -1s-0.44771 -1 -1 -1c-0.55228 0 -1 0.4477 -1 1Z" clip-rule="evenodd" stroke-width="1"></path>
  </g>
</svg>