<svg xmlns="http://www.w3.org/2000/svg" fill="none" viewBox="0 0 14 14" id="Module-Puzzle-1--Streamline-Core">
  <desc>
    Module Puzzle 1 Streamline Icon: https://streamlinehq.com
  </desc>
  <g id="module-puzzle-1--code-puzzle-module-programming-plugin-piece">
    <path id="Vector" fill="#7af1ff" d="M9.84399 1.32184c-0.35218 0.34397 -0.56159 0.80817 -0.58639 1.29983L7.46913 0.842959c-0.06143 -0.068865 -0.13671 -0.12397 -0.22093 -0.1617 -0.08421 -0.037731 -0.17545 -0.057236 -0.26773 -0.057236 -0.09227 0 -0.18351 0.019505 -0.26772 0.057236 -0.08422 0.03773 -0.1595 0.092835 -0.22093 0.1617L5.04541 2.34802c0.20543 0.09962 0.39352 0.23161 0.55706 0.39092 0.3481 0.38282 0.53545 0.88495 0.52317 1.40222 -0.01227 0.51727 -0.22323 1.00996 -0.5891 1.37583 -0.36587 0.36587 -0.85855 0.57683 -1.37582 0.5891 -0.51727 0.01228 -1.0194 -0.17507 -1.40221 -0.52317 -0.15932 -0.16354 -0.29131 -0.35163 -0.39093 -0.55707L0.842983 6.53091c-0.068865 0.06143 -0.123969 0.13671 -0.161699 0.22093 -0.03773 0.08421 -0.057236 0.17545 -0.057236 0.26773 0 0.09228 0.019506 0.18351 0.057236 0.26773 0.03773 0.08421 0.092834 0.1595 0.161699 0.22092L2.62168 9.25761c-0.38524 0.0233 -0.75556 0.15737 -1.06643 0.38611 -0.31087 0.22873 -0.54905 0.54238 -0.685918 0.90328 -0.136863 0.3609 -0.16658 0.7536 -0.085578 1.1309 0.081003 0.3774 0.269276 0.7233 0.542186 0.9962 0.27291 0.2729 0.61883 0.4612 0.99619 0.5422 0.37735 0.081 0.77008 0.0513 1.13094 -0.0856 0.36087 -0.1368 0.67453 -0.375 0.90326 -0.6859 0.22874 -0.3109 0.36281 -0.6812 0.38611 -1.0664l1.78847 1.7787c0.06143 0.0688 0.13672 0.124 0.22093 0.1617 0.08421 0.0377 0.17545 0.0572 0.26773 0.0572 0.09228 0 0.18351 -0.0195 0.26773 -0.0572 0.08421 -0.0377 0.1595 -0.0929 0.22092 -0.1617l1.44642 -1.5051c-0.20544 -0.0996 -0.39353 -0.2316 -0.55707 -0.3909 -0.37713 -0.3797 -0.58797 -0.8937 -0.58614 -1.4289 0.00183 -0.53518 0.21619 -1.04772 0.59591 -1.42485 0.37973 -0.37714 0.89372 -0.58798 1.4289 -0.58615 0.53516 0.00184 1.04766 0.21619 1.42486 0.59592 0.1593 0.16354 0.2913 0.35163 0.3909 0.55707l1.5051 -1.50506c0.0688 -0.06143 0.1239 -0.13671 0.1617 -0.22093 0.0377 -0.08421 0.0572 -0.17545 0.0572 -0.26773 0 -0.09228 -0.0195 -0.18351 -0.0572 -0.26773 -0.0378 -0.08421 -0.0929 -0.1595 -0.1617 -0.22092l-1.7787 -1.74939c0.4916 -0.0248 0.9558 -0.23421 1.2998 -0.58639 0.3758 -0.37583 0.587 -0.88558 0.587 -1.4171 0 -0.53151 -0.2112 -1.04126 -0.587 -1.4171 -0.3759 -0.375837 -0.8856 -0.586981 -1.4171 -0.586981s-1.0413 0.211144 -1.41711 0.586981Z" stroke-width="1"></path>
    <path id="Union" fill="#0c098c" fill-rule="evenodd" d="M6.99266 1.25163c-0.00383 -0.00172 -0.00798 -0.00261 -0.01218 -0.00261 -0.0042 0 -0.00835 0.00089 -0.01218 0.00261 -0.00383 0.00171 -0.00726 0.00422 -0.01005 0.00736 -0.00516 0.00578 -0.01042 0.01146 -0.01579 0.01704l-0.94128 0.97945c0.01258 0.0118 0.02505 0.02373 0.03741 0.03577 0.00904 0.00881 0.01781 0.01788 0.0263 0.02721 0.45616 0.50166 0.70167 1.15968 0.68558 1.83753 -0.01609 0.67785 -0.29253 1.32349 -0.77198 1.80294 -0.47945 0.47945 -1.12508 0.7559 -1.80293 0.77199 -0.67785 0.01608 -1.33588 -0.22943 -1.83753 -0.68559 -0.00933 -0.00849 -0.01841 -0.01726 -0.02721 -0.0263 -0.00975 -0.01001 -0.01943 -0.02009 -0.02902 -0.03025l-0.99973 0.98691c-0.0075 0.00741 -0.01519 0.01462 -0.02305 0.02164 -0.00314 0.00279 -0.00564 0.00622 -0.00736 0.01005 -0.00172 0.00384 -0.00261 0.00799 -0.00261 0.01219 0 0.00419 0.00089 0.00835 0.00261 0.01218s0.00422 0.00726 0.00736 0.01005c0.00757 0.00676 0.01499 0.0137 0.02222 0.02082l1.7787 1.74939c0.17602 0.17311 0.23363 0.43361 0.14705 0.6648 -0.08659 0.2312 -0.30115 0.38976 -0.54758 0.40466 -0.26506 0.01603 -0.51986 0.10828 -0.73375 0.26563 -0.21389 0.1574 -0.37777 0.3732 -0.47194 0.6215 -0.09417 0.2483 -0.11461 0.5185 -0.05888 0.7782 0.05573 0.2596 0.18527 0.4976 0.37305 0.6854 0.18777 0.1878 0.42578 0.3173 0.68542 0.373 0.25964 0.0558 0.52984 0.0353 0.77814 -0.0589 0.24829 -0.0941 0.4641 -0.258 0.62148 -0.4719 0.15738 -0.2139 0.24963 -0.4687 0.26565 -0.7338 0.01483 -0.2451 0.17189 -0.4589 0.40143 -0.5463 0.22954 -0.0874 0.48901 -0.0323 0.66317 0.1409l1.78847 1.7787c0.00883 0.0088 0.0174 0.0179 0.02569 0.0272 0.00279 0.0031 0.00622 0.0056 0.01005 0.0073 0.00383 0.0017 0.00799 0.0026 0.01218 0.0026 0.0042 0 0.00835 -0.0009 0.01218 -0.0026 0.00384 -0.0017 0.00726 -0.0042 0.01006 -0.0073 0.00515 -0.0058 0.01042 -0.0115 0.01578 -0.0171l0.94129 -0.9794c-0.01258 -0.0118 -0.02506 -0.0238 -0.03742 -0.0358l-0.00006 0 -0.00728 -0.0073c-0.49394 -0.4973 -0.77008 -1.1705 -0.76768 -1.87144 0.0024 -0.70094 0.28315 -1.37222 0.78048 -1.86616 0.49734 -0.49395 1.17052 -0.77009 1.87146 -0.76769 0.70092 0.0024 1.37222 0.28315 1.86612 0.78049l0.0001 -0.00002 0.0042 0.00433 0.0257 0.02678 0.9806 -0.9806c0.0084 -0.00841 0.0171 -0.01657 0.0259 -0.02448 0.0032 -0.00279 0.0057 -0.00622 0.0074 -0.01005 0.0017 -0.00383 0.0026 -0.00799 0.0026 -0.01219 0 -0.0042 -0.0009 -0.00835 -0.0026 -0.01218s-0.0042 -0.00726 -0.0074 -0.01005c-0.0075 -0.00676 -0.015 -0.0137 -0.0222 -0.02082l-1.7787 -1.74939c-0.0589 -0.05796 -0.1039 -0.12474 -0.135 -0.19617 -0.0257 -0.05906 -0.0418 -0.12129 -0.0484 -0.18435 -0.0011 -0.01119 -0.002 -0.02239 -0.0025 -0.03361 0 -0.00001 -0.0001 -0.00001 -0.0001 -0.00001 -0.0049 -0.09754 0.0128 -0.19097 0.0486 -0.27522 0.0231 -0.05467 0.0544 -0.10674 0.0938 -0.15436 0.1079 -0.13045 0.268 -0.21692 0.4504 -0.22612 0.3344 -0.01687 0.6502 -0.15932 0.8842 -0.39889l-0.0001 -0.00003 0.0052 -0.0052c0.5278 -0.52777 0.5278 -1.42255 0 -1.95032 -0.5277 -0.52777 -1.4225 -0.52777 -1.9503 0l0.0001 0.00003 -0.0053 0.00514c-0.2385 0.23297 -0.38079 0.54702 -0.39868 0.87985 -0.00131 0.03036 -0.00482 0.06064 -0.01053 0.09059 -0.00632 0.0331 -0.01532 0.06579 -0.02702 0.09772 -0.03009 0.08214 -0.07799 0.15923 -0.14371 0.22532 -0.11646 0.11709 -0.26778 0.17841 -0.42076 0.18387 -0.16676 0.00594 -0.33548 -0.0545 -0.46312 -0.18145L7.0284 1.28611c-0.00883 -0.00878 -0.01739 -0.01783 -0.02568 -0.02712 -0.0028 -0.00314 -0.00623 -0.00565 -0.01006 -0.00736Zm5.56854 3.77752 1.0251 1.00816c0.1284 0.11783 0.2315 0.2607 0.3028 0.41989 0.0738 0.16459 0.1119 0.34291 0.1119 0.52327 0 0.18036 -0.0381 0.35868 -0.1119 0.52328 -0.0709 0.15827 -0.1732 0.3004 -0.3006 0.41784L12.094 9.41613c-0.1431 0.14301 -0.3464 0.20798 -0.5458 0.17437 -0.1995 -0.03361 -0.3703 -0.16164 -0.4586 -0.34361 -0.0699 -0.14426 -0.1624 -0.2764 -0.2741 -0.39146 -0.2601 -0.26079 -0.613 -0.40797 -0.9814 -0.40923 -0.36942 -0.00127 -0.72421 0.14427 -0.98632 0.4046 -0.26212 0.26033 -0.41008 0.61412 -0.41135 0.98354 -0.00126 0.36766 0.14293 0.72096 0.40098 0.98266 0.1147 0.111 0.24631 0.203 0.38993 0.2727 0.18 0.0872 0.30735 0.2554 0.34255 0.4523 0.0352 0.197 -0.026 0.3989 -0.16461 0.5431l-1.4397 1.4981c-0.11837 0.1299 -0.26226 0.2341 -0.42273 0.306 -0.16459 0.0737 -0.34292 0.1118 -0.52328 0.1118 -0.18036 0 -0.35868 -0.0381 -0.52327 -0.1118 -0.15797 -0.0708 -0.29987 -0.1729 -0.41717 -0.3l-1.04677 -1.041c-0.05191 0.0921 -0.10952 0.1813 -0.17261 0.267 -0.30009 0.4079 -0.71159 0.7204 -1.18504 0.8999 -0.47344 0.1796 -0.98867 0.2186 -1.48375 0.1123 -0.49507 -0.1063 -0.94891 -0.3533 -1.306958 -0.7113 -0.358045 -0.3581 -0.605051 -0.8119 -0.711322 -1.307 -0.1062709 -0.4951 -0.067285 -1.0103 0.112275 -1.4838 0.179559 -0.4734 0.492046 -0.8849 0.899895 -1.185 0.08253 -0.06072 0.16826 -0.11637 0.2567 -0.16675L0.413786 7.96272C0.285326 7.8449 0.182242 7.70203 0.11092 7.54284c-0.0737429 -0.16459 -0.111866045 -0.34291 -0.111866045 -0.52327 0 -0.18037 0.038123145 -0.35869 0.111866045 -0.52328 0.071232 -0.15898 0.174145 -0.30169 0.302377 -0.41943L1.92851 4.58107c0.14342 -0.14158 0.34631 -0.20532 0.54492 -0.17119 0.19862 0.03413 0.3686 0.16194 0.45653 0.34327 0.06762 0.13946 0.15636 0.2676 0.26304 0.37992 0.26215 0.23198 0.60249 0.35651 0.9529 0.3482 0.35668 -0.00847 0.69642 -0.15394 0.9487 -0.40622 0.25229 -0.25229 0.39776 -0.59203 0.40622 -0.94871 0.00832 -0.35042 -0.11622 -0.69076 -0.34819 -0.95291 -0.11232 -0.10668 -0.24046 -0.19542 -0.37992 -0.26304 -0.18 -0.08729 -0.30735 -0.25547 -0.34255 -0.4524 -0.0352 -0.19693 0.026 -0.39881 0.16462 -0.54305L6.03448 0.416868c0.11836 -0.129907 0.26225 -0.234081 0.42272 -0.305978 0.1646 -0.0737446 0.34292 -0.111866562 0.52328 -0.111866562 0.18036 0 0.35868 0.038121962 0.52328 0.111866562 0.15796 0.070774 0.29986 0.172824 0.41715 0.299908L8.96495 1.44913c0.1181 -0.2086 0.26563 -0.40137 0.43968 -0.571858C10.4208 -0.136061 12.1051 -0.135197 13.1201 0.879865c1.0151 1.015055 1.0159 2.699275 0.0026 3.715475 -0.1676 0.17117 -0.3569 0.3167 -0.5615 0.43381Z" clip-rule="evenodd" stroke-width="1"></path>
  </g>
</svg>