<svg xmlns="http://www.w3.org/2000/svg" fill="none" viewBox="0 0 14 14" id="Threat-Browser-1--Streamline-Core">
  <desc>
    Threat Browser 1 Streamline Icon: https://streamlinehq.com
  </desc>
  <g id="threat-browser-1--bug-browser-file-threat-danger-internet">
    <path id="Union" fill="#79ee8d" fill-rule="evenodd" d="M1.63463 0.625h9.99127c0.5518 0 0.9991 0.44772 0.9991 1V6.75h-0.401l-0.1318 -0.24178c-0.3759 -0.78675 -1.1903 -1.30424 -2.0669 -1.30424 -0.87371 0 -1.68572 0.51405 -2.06325 1.29654L5.12049 11.625H1.63463c-0.55181 0 -0.999132 -0.4477 -0.999132 -1v-9c0 -0.55228 0.447322 -1 0.999132 -1Zm8.99557 8.51636c0 -0.34518 -0.2798 -0.625 -0.625 -0.625 -0.34513 0 -0.62495 0.27982 -0.62495 0.625v1.25004c0 0.3451 0.27982 0.625 0.62495 0.625 0.3452 0 0.625 -0.2799 0.625 -0.625V9.14136Zm-0.5982 3.98304c-0.0105 0.0005 -0.021 0.0008 -0.0315 0.0008 -0.41431 0 -0.75013 -0.3359 -0.75013 -0.7501 0 -0.4037 0.31881 -0.7328 0.71836 -0.7494 0.01044 -0.0006 0.02095 -0.0008 0.03147 -0.0008 0.4143 0 0.7501 0.3358 0.7501 0.7501 0 0.4036 -0.3188 0.7328 -0.7183 0.7494Z" clip-rule="evenodd" stroke-width="1"></path>
    <path id="Union_2" fill="#0c098c" fill-rule="evenodd" d="M0.010498 1.625C0.010498 0.728052 0.737131 0 1.63463 0h9.99127c0.8975 0 1.6241 0.728051 1.6241 1.625v4.75c0 0.34518 -0.2798 0.625 -0.625 0.625 -0.3451 0 -0.625 -0.27982 -0.625 -0.625v-2.75H1.2605v7c0 0.2076 0.16801 0.375 0.37413 0.375h2.87064c0.34518 0 0.625 0.2798 0.625 0.625s-0.27982 0.625 -0.625 0.625H1.63463c-0.897499 0 -1.624132 -0.7281 -1.624132 -1.625v-9ZM6.13803 12.3675l2.93791 -5.29815c0.16364 -0.36586 0.54762 -0.61537 0.94936 -0.61537 0.4025 0 0.787 0.25041 0.9502 0.6173l2.8896 5.30082c0.1761 0.3256 0.1771 0.7342 0.0028 1.0606 -0.177 0.3418 -0.5475 0.5674 -0.9326 0.5673h-5.87c-0.38506 0.0001 -0.75563 -0.2255 -0.93258 -0.5673 -0.17435 -0.3264 -0.17333 -0.735 0.00281 -1.0606l0.0025 -0.0046Zm3.86717 -3.85114c0.3452 0 0.625 0.27982 0.625 0.625v1.25004c0 0.3451 -0.2798 0.625 -0.625 0.625 -0.34513 0 -0.62495 -0.2799 -0.62495 -0.625V9.14136c0 -0.34518 0.27982 -0.625 0.62495 -0.625Zm0.012 4.60854 0.0105 -0.0003c0.4016 -0.0145 0.7227 -0.3446 0.7227 -0.7496 0 -0.4143 -0.3359 -0.7501 -0.7501 -0.7501 -0.00917 0 -0.01826 0.0002 -0.02731 0.0006 -0.40154 0.0144 -0.72262 0.3445 -0.72262 0.7496 0 0.4142 0.33582 0.75 0.75013 0.75 0.0056 0 0.0112 0 0.0167 -0.0002Z" clip-rule="evenodd" stroke-width="1"></path>
  </g>
</svg>