<svg xmlns="http://www.w3.org/2000/svg" fill="none" viewBox="0 0 24 24" id="Identica-Logo--Streamline-Logos">
  <desc>
    Identica Logo Streamline Icon: https://streamlinehq.com
  </desc>
  <path fill="#000000" fill-rule="evenodd" d="M11.773 12.234a5.5 5.5 0 1 0 -9.381 0.27L1.5 16.1l3.85 -1.352A5.48 5.48 0 0 0 7 15a5.481 5.481 0 0 0 3.805 -1.528 3.377 3.377 0 0 0 1.945 4.586l1.688 2.442 0.858 -2.563a3.376 3.376 0 1 0 -3.523 -5.703Zm9.005 4.21a2.222 2.222 0 1 0 -2.152 -1.666L18 16.444l1.667 -0.297c0.326 0.19 0.706 0.297 1.11 0.297Z" clip-rule="evenodd" stroke-width="1"></path>
</svg>