<svg xmlns="http://www.w3.org/2000/svg" viewBox="0 0 14 14">
  <g>
    <path d="M13.56,5.6a1.66,1.66,0,0,0-.76-.5.28.28,0,0,1-.17-.21l-.11-1a3.54,3.54,0,0,0-2.69-3,.31.31,0,0,1-.15-.1A1.73,1.73,0,0,0,8.25,0H5.75A1.73,1.73,0,0,0,4.32.76a.31.31,0,0,1-.15.1,3.54,3.54,0,0,0-2.69,3l-.11,1a.28.28,0,0,1-.17.21,1.66,1.66,0,0,0-.76.5A1.78,1.78,0,0,0,0,7l.74,5.5A1.75,1.75,0,0,0,2.49,14h9a1.75,1.75,0,0,0,1.73-1.52L14,7A1.78,1.78,0,0,0,13.56,5.6Zm-9.65-3a.32.32,0,0,1,.19,0,.27.27,0,0,1,.16.11,1.76,1.76,0,0,0,1.49.84h2.5a1.76,1.76,0,0,0,1.49-.84.27.27,0,0,1,.16-.11.32.32,0,0,1,.19,0A2,2,0,0,1,11,4.07l.07.65a.24.24,0,0,1-.24.28H3.14a.24.24,0,0,1-.24-.28L3,4.07A2,2,0,0,1,3.91,2.58Zm7.85,9.7a.26.26,0,0,1-.25.22h-9a.26.26,0,0,1-.25-.22l-.73-5.5a.28.28,0,0,1,.06-.2.26.26,0,0,1,.19-.08H12.24a.26.26,0,0,1,.19.08.28.28,0,0,1,.06.2Z" style="fill: #000001"/>
    <path d="M7,7.5a.76.76,0,0,0-.75.75v2.5a.75.75,0,0,0,1.5,0V8.25A.76.76,0,0,0,7,7.5Z" style="fill: #000001"/>
    <path d="M10.4,7.51a.77.77,0,0,0-.89.59L9,10.6a.77.77,0,0,0,.59.89h.15a.77.77,0,0,0,.74-.6L11,8.4A.77.77,0,0,0,10.4,7.51Z" style="fill: #000001"/>
    <path d="M3.82,7.51a.76.76,0,0,0-.59.89l.5,2.5a.76.76,0,0,0,.74.6h.14a.76.76,0,0,0,.59-.89L4.7,8.1A.76.76,0,0,0,3.82,7.51Z" style="fill: #000001"/>
  </g>
</svg>
