<svg xmlns="http://www.w3.org/2000/svg" viewBox="0 0 14 14">
  <path d="M14,.75A.76.76,0,0,0,13.25,0H11.66a1.24,1.24,0,0,0-1.22,1L10.19,2.3a.25.25,0,0,1-.24.2H1.25A1.26,1.26,0,0,0,0,4l.8,4A1.26,1.26,0,0,0,2.05,9H8.61a.25.25,0,0,1,.2.09.3.3,0,0,1,0,.21l-.19,1a.26.26,0,0,1-.25.2H2.25a.75.75,0,0,0,0,1.5h.09a.24.24,0,0,1,.2.11.22.22,0,0,1,0,.22,1.42,1.42,0,0,0-.07.42,1.25,1.25,0,0,0,2.5,0,1.42,1.42,0,0,0-.07-.42.22.22,0,0,1,0-.22.24.24,0,0,1,.2-.11H6.34a.24.24,0,0,1,.2.11.22.22,0,0,1,0,.22,1.42,1.42,0,0,0-.07.42,1.25,1.25,0,0,0,2.5,0A1.23,1.23,0,0,0,8.75,12h.09a1.24,1.24,0,0,0,1.22-1L11.83,1.7a.26.26,0,0,1,.25-.2h1.17A.76.76,0,0,0,14,.75Z" style="fill: #000001"/>
</svg>
