<svg xmlns="http://www.w3.org/2000/svg" fill="none" viewBox="0 0 24 24" id="Spaceship--Streamline-Ultimate">
  <desc>
    Spaceship Streamline Icon: https://streamlinehq.com
  </desc>
  <path stroke="#000000" stroke-linecap="round" stroke-linejoin="round" stroke-miterlimit="10" d="M4.88617 13.2864H19.112" stroke-width="1.5"></path>
  <path stroke="#000000" stroke-linecap="round" stroke-linejoin="round" stroke-miterlimit="10" d="M12 19.1292v3.9333" stroke-width="1.5"></path>
  <path stroke="#000000" stroke-linecap="round" stroke-linejoin="round" stroke-miterlimit="10" d="M12 0.9375c3.9509 0 7.1116 3.16071 7.1116 7.21038V13.284h1.4816c1.3828 0 2.4693 1.0865 2.4693 2.4693v1.4816c0 0.7902 -0.6914 1.4816 -1.4816 1.4816s-1.4816 -0.6914 -1.4816 -1.4816v-0.7901h-1.6791c-0.3951 0.9877 -1.0865 1.7779 -1.7779 2.4693v1.7779h0.7902c0.6914 0 1.1852 0.5926 1.1852 1.1852 0 0.5927 -0.5926 1.1853 -1.1852 1.1853H6.56752c-0.6914 0 -1.18527 -0.5926 -1.18527 -1.1853 0 -0.5926 0.59264 -1.1852 1.18527 -1.1852h0.79018v-1.7779c-0.79018 -0.6914 -1.38281 -1.4816 -1.7779 -2.4693H3.90067v0.7901c0 0.7902 -0.69141 1.4816 -1.48159 1.4816 -0.79017 0 -1.48158 -0.6914 -1.48158 -1.4816v-1.4816c0 -1.3828 1.0865 -2.4693 2.46931 -2.4693h1.48158V8.04911C4.88839 4.09821 8.04911 0.9375 12 0.9375Z" stroke-width="1.5"></path>
  <path stroke="#000000" stroke-linecap="round" stroke-linejoin="round" d="M15.4417 7.83529C15.4417 9.65735 13.8929 12 12 12S8.55835 9.65735 8.55835 7.83529C8.55835 6.01323 10.1071 4.625 12 4.625s3.4417 1.38823 3.4417 3.21029Z" stroke-width="1.5"></path>
  <path stroke="#000000" stroke-linecap="round" stroke-linejoin="round" d="M10.6745 8.21413c-0.1086 0 -0.1967 -0.08805 -0.1967 -0.19666 0 -0.10862 0.0881 -0.19667 0.1967 -0.19667" stroke-width="1.5"></path>
  <path stroke="#000000" stroke-linecap="round" stroke-linejoin="round" d="M10.6744 8.21413c0.1086 0 0.1967 -0.08805 0.1967 -0.19666 0 -0.10862 -0.0881 -0.19667 -0.1967 -0.19667" stroke-width="1.5"></path>
  <path stroke="#000000" stroke-linecap="round" stroke-linejoin="round" d="M13.3255 8.21413c-0.1086 0 -0.1967 -0.08805 -0.1967 -0.19666 0 -0.10862 0.0881 -0.19667 0.1967 -0.19667" stroke-width="1.5"></path>
  <path stroke="#000000" stroke-linecap="round" stroke-linejoin="round" d="M13.3254 8.21413c0.1086 0 0.1967 -0.08805 0.1967 -0.19666 0 -0.10862 -0.0881 -0.19667 -0.1967 -0.19667" stroke-width="1.5"></path>
</svg>