<svg xmlns="http://www.w3.org/2000/svg" fill="none" viewBox="0 0 24 24" id="Space-Rocket-Earth--Streamline-Ultimate">
  <desc>
    Space Rocket Earth Streamline Icon: https://streamlinehq.com
  </desc>
  <path stroke="#000000" stroke-linecap="round" stroke-linejoin="round" d="M5.35739 17.931c-1.73388 -1.5784 -2.82509 -3.7406 -3.06498 -6.073 -0.23989 -2.33249 0.38838 -4.67153 1.76467 -6.56986 1.37629 -1.89833 3.40403 -3.22276 5.69544 -3.72001 2.29138 -0.49724 4.68568 -0.13242 6.72508 1.0247" stroke-width="1.5"></path>
  <path stroke="#000000" stroke-linecap="round" stroke-linejoin="round" d="M2.01414 17.8633c-1.211276 2.122 -1.6167 3.7686 -0.93267 4.4537 1.03852 1.0375 4.28791 -0.4294 8.05056 -3.4132" stroke-width="1.5"></path>
  <path stroke="#000000" stroke-linecap="round" stroke-linejoin="round" d="m13.4389 18.1497 -3.57492 -3.5749 7.94572 -7.94572c0.6481 -0.64781 1.4604 -1.10694 2.3497 -1.32812l2.044 -0.51327c0.1412 -0.03515 0.289 -0.0332 0.4291 0.00568 0.1401 0.03887 0.2678 0.11335 0.3706 0.21618 0.1029 0.10283 0.1773 0.23051 0.2162 0.37065 0.0389 0.14013 0.0409 0.28793 0.0057 0.42904l-0.5113 2.0451c-0.2221 0.88903 -0.6819 1.7009 -1.3301 2.34866l-7.9447 7.9467Z" stroke-width="1.5"></path>
  <path stroke="#000000" stroke-linecap="round" stroke-linejoin="round" d="m9.86398 14.5751 -2.92784 -0.9756c-0.06839 -0.0227 -0.12984 -0.0624 -0.17849 -0.1155 -0.04865 -0.0532 -0.08287 -0.1179 -0.09939 -0.188 -0.01653 -0.0701 -0.01481 -0.1432 0.005 -0.2125 0.0198 -0.0693 0.05702 -0.1323 0.10812 -0.183l1.02055 -1.0206c0.44365 -0.4436 1.00206 -0.7549 1.61266 -0.899 0.61061 -0.1441 1.24931 -0.1153 1.84441 0.0832l1.5977 0.5312 -2.98272 2.9798Z" stroke-width="1.5"></path>
  <path stroke="#000000" stroke-linecap="round" stroke-linejoin="round" d="m13.4389 18.15 0.9756 2.9288c0.0226 0.0684 0.0624 0.1299 0.1155 0.1785 0.0531 0.0487 0.1178 0.0829 0.1879 0.0994 0.0701 0.0165 0.1433 0.0148 0.2126 -0.005 0.0692 -0.0198 0.1323 -0.057 0.183 -0.1081l1.0206 -1.0206c0.4436 -0.4436 0.7548 -1.002 0.8989 -1.6126s0.1153 -1.2493 -0.0831 -1.8445l-0.5312 -1.5977 -2.9798 2.9818Z" stroke-width="1.5"></path>
</svg>