<svg xmlns="http://www.w3.org/2000/svg" fill="none" viewBox="0 0 48 48" id="Broken-Link-2--Streamline-Plump">
  <desc>
    Broken Link 2 Streamline Icon: https://streamlinehq.com
  </desc>
  <g id="broken-link-2--break-broken-hyperlink-link-remove-unlink-chain">
    <path id="Rectangle 1673" fill="#ffffff" d="M15.0909 32.9544c-2.0554 -2.0554 -2.0554 -5.3879 0 -7.4433l10.4207 -10.4207c2.0554 -2.0554 5.3879 -2.0554 7.4433 0 2.0554 2.0554 2.0554 5.3879 0 7.4433L22.5342 32.9544c-2.0554 2.0554 -5.3879 2.0554 -7.4433 0Z" stroke-width="3"></path>
    <path id="Union" fill="#ffffff" d="M7.64716 40.3982c-6.16626 -6.1663 -6.16627 -16.1638 0 -22.3301l2.38194 -2.3819c1.5621 -1.5621 4.0947 -1.5621 5.6568 0l1.7865 1.7865c1.5621 1.5621 1.5621 4.0948 0 5.6569l-2.3819 2.3819c-2.0554 2.0554 -2.0554 5.3879 0 7.4433 2.0554 2.0554 5.3879 2.0554 7.4433 0l2.3819 -2.3819c1.5621 -1.5621 4.0948 -1.5621 5.6569 0l1.7865 1.7865c1.5621 1.5621 1.5621 4.0947 0 5.6568l-2.3819 2.382c-6.1663 6.1662 -16.1638 6.1662 -22.33004 0Z" stroke-width="3"></path>
    <path id="Union_2" fill="#8fbffa" d="M40.3986 7.64814c-6.1662 -6.16627 -16.1637 -6.16627 -22.33 -0.00001L15.6867 10.03c-1.5621 1.5621 -1.5621 4.0948 0 5.6569l1.7865 1.7865c1.5621 1.5621 4.0947 1.5621 5.6568 0l2.382 -2.3819c2.0554 -2.0554 5.3879 -2.0554 7.4433 0 2.0554 2.0554 2.0554 5.3879 0 7.4433l-2.3819 2.3819c-1.5621 1.5621 -1.5621 4.0948 0 5.6569l1.7865 1.7865c1.5621 1.5621 4.0947 1.5621 5.6568 0l2.3819 -2.3819c6.1663 -6.1663 6.1663 -16.1638 0 -22.33006Z" stroke-width="3"></path>
    <path id="Union_3" stroke="#2859c5" stroke-linecap="round" stroke-linejoin="round" d="m31.4542 38.83 -1.5224 1.5228c-6.1663 6.1663 -16.1638 6.1663 -22.33005 0 -6.16627 -6.1662 -6.16626 -16.1637 0 -22.33L9.1242 16.5m14.8867 14.8867 -1.5225 1.5228c-2.0554 2.0554 -5.3879 2.0554 -7.4433 0 -2.0554 -2.0554 -2.0554 -5.3879 0 -7.4433l1.5224 -1.5229" stroke-width="3"></path>
    <path id="Vector 864" stroke="#2859c5" stroke-linecap="round" stroke-linejoin="round" d="m4 4 40 40" stroke-width="3"></path>
    <path id="Union_4" stroke="#2859c5" stroke-linecap="round" stroke-linejoin="round" d="M40.3996 7.64814c-6.1662 -6.16627 -16.1637 -6.16627 -22.33 -0.00001L15.6877 10.03c-1.5621 1.5621 -1.5621 4.0948 0 5.6569l1.7865 1.7865c1.5621 1.5621 4.0947 1.5621 5.6568 0l2.3819 -2.3819c2.0555 -2.0554 5.388 -2.0554 7.4434 0 2.0554 2.0554 2.0554 5.3879 0 7.4433l-2.3819 2.3819c-1.5621 1.5621 -1.5621 4.0948 0 5.6569l1.7865 1.7865c1.562 1.5621 4.0947 1.5621 5.6568 0l2.3819 -2.3819c6.1663 -6.1663 6.1663 -16.1638 0 -22.33006Z" stroke-width="3"></path>
    <path id="Rectangle 1672" stroke="#2859c5" stroke-linecap="round" stroke-linejoin="round" d="m20.3013 20.3007 5.2103 -5.2103c2.0554 -2.0554 5.3879 -2.0554 7.4433 0 2.0555 2.0554 2.0555 5.3879 0 7.4433l-5.2103 5.2104" stroke-width="3"></path>
  </g>
</svg>