<svg xmlns="http://www.w3.org/2000/svg" fill="none" viewBox="0 0 48 48" id="Crop-Selection--Streamline-Plump">
  <desc>
    Crop Selection Streamline Icon: https://streamlinehq.com
  </desc>
  <g id="crop-selection--artboard-crop-design-image-picture">
    <path id="Union" fill="#8fbffa" fill-rule="evenodd" d="m11.763 19.27 -0.171 10.952a6.092 6.092 0 0 0 6.186 6.186l10.952 -0.17 0.127 6.114c0.022 1.048 0.474 2.069 1.479 2.367 0.535 0.16 1.23 0.281 2.11 0.281 0.871 0 1.563 -0.12 2.096 -0.277 1.012 -0.299 1.466 -1.328 1.483 -2.383l0.097 -6.218 6.937 -0.109c0.61 -0.01 1.224 -0.188 1.478 -0.741 0.238 -0.521 0.463 -1.393 0.463 -2.827 0 -1.444 -0.228 -2.317 -0.468 -2.837 -0.253 -0.546 -0.86 -0.723 -1.461 -0.736l-6.834 -0.142 0.171 -10.952a6.092 6.092 0 0 0 -6.186 -6.186l-10.952 0.17 -0.127 -6.114c-0.022 -1.048 -0.474 -2.069 -1.479 -2.367 -0.535 -0.16 -1.23 -0.281 -2.11 -0.281 -0.871 0 -1.563 0.12 -2.097 0.277 -1.012 0.299 -1.465 1.328 -1.482 2.383l-0.097 6.218 -6.937 0.109c-0.61 0.01 -1.224 0.188 -1.478 0.741C3.225 13.25 3 14.121 3 15.555c0 1.444 0.228 2.317 0.468 2.837 0.253 0.546 0.86 0.723 1.461 0.736l6.834 0.142Zm7.833 8.14c0.011 0.544 0.45 0.983 0.994 0.994l7.98 0.166 -0.166 -7.98a1.015 1.015 0 0 0 -0.994 -0.994l-7.98 -0.166 0.166 7.98Z" clip-rule="evenodd" stroke-width="1"></path>
    <path id="Union_2" fill-rule="evenodd" stroke="#2859c5" stroke-linecap="round" stroke-linejoin="round" d="m11.763 19.27 -0.171 10.952a6.092 6.092 0 0 0 6.186 6.186l10.952 -0.17 0.127 6.114c0.022 1.048 0.474 2.069 1.479 2.367 0.535 0.16 1.23 0.281 2.11 0.281 0.871 0 1.563 -0.12 2.096 -0.277 1.012 -0.299 1.466 -1.328 1.483 -2.383l0.097 -6.218 6.937 -0.109c0.61 -0.01 1.224 -0.188 1.478 -0.741 0.238 -0.521 0.463 -1.393 0.463 -2.827 0 -1.444 -0.228 -2.317 -0.468 -2.837 -0.253 -0.546 -0.86 -0.723 -1.461 -0.736l-6.834 -0.142 0.171 -10.952a6.092 6.092 0 0 0 -6.186 -6.186l-10.952 0.17 -0.127 -6.114c-0.022 -1.048 -0.474 -2.069 -1.479 -2.367 -0.535 -0.16 -1.23 -0.281 -2.11 -0.281 -0.871 0 -1.563 0.12 -2.097 0.277 -1.012 0.299 -1.465 1.328 -1.482 2.383l-0.097 6.218 -6.937 0.109c-0.61 0.01 -1.224 0.188 -1.478 0.741C3.225 13.25 3 14.121 3 15.555c0 1.444 0.228 2.317 0.468 2.837 0.253 0.546 0.86 0.723 1.461 0.736l6.834 0.142Zm7.833 8.14c0.011 0.544 0.45 0.983 0.994 0.994l7.98 0.166 -0.166 -7.98a1.015 1.015 0 0 0 -0.994 -0.994l-7.98 -0.166 0.166 7.98Z" clip-rule="evenodd" stroke-width="1"></path>
  </g>
</svg>