<svg xmlns="http://www.w3.org/2000/svg" fill="none" viewBox="0 0 48 48" stroke-width="3" id="Dashboard-Gauge-2--Streamline-Plump">
  <desc>
    Dashboard Gauge 2 Streamline Icon: https://streamlinehq.com
  </desc>
  <g id="dashboard-gauge-2--bar-speed-test-loading-dashboard-internet-gauge-progress">
    <path id="Subtract" fill="#8fbffa" d="M4.97655 36.3765C3.65885 33.7695 3 30.1047 3 27 3 15.402 12.402 6 24 6s21 9.402 21 21c0 3.1047-.6588 6.7695-1.9765 9.3765C42.4753 37.461 41.2926 38 40.0775 38H7.9225c-1.21514 0-2.39782-.539-2.94595-1.6235Z"></path>
    <path id="Ellipse 77" fill="#ffffff" transform="rotate(15 24 36)" d="M20 36a4 4 0 1 0 8 0 4 4 0 1 0-8 0"></path>
    <path id="Ellipse 19" stroke="#2859c5" stroke-linecap="round" stroke-linejoin="round" d="M9.85353 32C9.30077 30.4361 9 28.7532 9 27c0-8.2843 6.7157-15 15-15s15 6.7157 15 15c0 1.7532-.3008 3.4361-.8535 5"></path>
    <path id="Subtract_2" stroke="#2859c5" stroke-linecap="round" stroke-linejoin="round" d="M34 38h6.0775c1.2151 0 2.3978-.539 2.946-1.6235C44.3412 33.7695 45 30.1047 45 27c0-11.598-9.402-21-21-21S3 15.402 3 27c0 3.1047.65885 6.7695 1.97655 9.3765C5.52468 37.461 6.70736 38 7.9225 38H14"></path>
    <path id="Ellipse 76" stroke="#2859c5" stroke-linecap="round" stroke-linejoin="round" d="M20.1362966948 34.9647238196a4 4 0 1 0 7.7274066104 2.0705523608 4 4 0 1 0-7.7274066104-2.0705523608"></path>
    <path id="Vector 1437" stroke="#2859c5" stroke-linecap="round" stroke-linejoin="round" d="m25.0347 32.1362 3.6235-13.5229"></path>
  </g>
</svg>