<svg xmlns="http://www.w3.org/2000/svg" fill="none" viewBox="0 0 48 48" id="Disable-Protection--Streamline-Plump">
  <desc>
    Disable Protection Streamline Icon: https://streamlinehq.com
  </desc>
  <g id="disable-protection--shield-protection-security-defend-cover-disabled-off">
    <path id="Rectangle 114" fill="#ffffff" d="M44.186 8.464c-0.191 -1.647 -1.19 -3.007 -2.81 -3.365C38.85 4.54 33.954 3.89 24.84 3.89c-9.115 0 -14.01 0.65 -16.536 1.208 -1.62 0.358 -2.62 1.718 -2.81 3.365A101.103 101.103 0 0 0 4.84 19.89c0 9.029 4.765 17.477 12.792 21.608 2.682 1.38 5.3 2.392 7.208 2.392 1.909 0 4.526 -1.012 7.207 -2.392 8.028 -4.132 12.793 -12.58 12.793 -21.608a101.1 101.1 0 0 0 -0.654 -11.427Z" stroke-width="3"></path>
    <path id="Intersect" fill="#8fbffa" d="M6.334 6.334A3.4 3.4 0 0 1 8.304 5.1c2.524 -0.56 7.42 -1.21 16.536 -1.21 9.114 0 14.01 0.65 16.536 1.208 1.62 0.358 2.619 1.718 2.81 3.365a101.1 101.1 0 0 1 0.654 11.427c0 6.719 -2.64 13.116 -7.297 17.652L6.334 6.334Z" stroke-width="3"></path>
    <path id="Rectangle 112" stroke="#2859c5" stroke-linecap="round" stroke-linejoin="round" d="M37.5 37.585c4.685 -4.539 7.34 -10.955 7.34 -17.694a101.1 101.1 0 0 0 -0.654 -11.427c-0.191 -1.647 -1.19 -3.007 -2.81 -3.365C38.85 4.54 33.954 3.89 24.84 3.89c-9.115 0 -14.01 0.65 -16.536 1.208A3.395 3.395 0 0 0 6.5 6.138" stroke-width="3"></path>
    <path id="Rectangle 113" stroke="#2859c5" stroke-linecap="round" stroke-linejoin="round" d="M5.152 12a101.592 101.592 0 0 0 -0.312 7.891c0 9.029 4.765 17.477 12.792 21.608 2.682 1.38 5.3 2.392 7.208 2.392 1.909 0 4.526 -1.012 7.207 -2.392 0.412 -0.212 0.816 -0.435 1.21 -0.67" stroke-width="3"></path>
    <path id="Vector 864" stroke="#2859c5" stroke-linecap="round" stroke-linejoin="round" d="m3 3 40 40" stroke-width="3"></path>
  </g>
</svg>