<svg xmlns="http://www.w3.org/2000/svg" fill="none" viewBox="0 0 48 48" id="File-Check-Alternate--Streamline-Plump">
  <desc>
    File Check Alternate Streamline Icon: https://streamlinehq.com
  </desc>
  <g id="file-check-alternate--file-common-check">
    <path id="Subtract" fill="#8fbffa" d="M39.603 8.294c-3.944 -3.866 -6.673 -4.953 -7.52 -5.218A161.824 161.824 0 0 0 27 3c-6.264 0 -10.566 0.32 -13.248 0.627 -2.201 0.252 -3.85 1.903 -4.092 4.105 -0.231 2.096 -0.474 5.222 -0.59 9.653 -0.01 0.358 0.352 0.61 0.69 0.493A15.977 15.977 0 0 1 15 17c8.837 0 16 7.163 16 16 0 3.408 -1.066 6.568 -2.882 9.163 -0.24 0.344 -0.001 0.834 0.419 0.83 5.438 -0.047 9.254 -0.34 11.71 -0.62 2.202 -0.252 3.85 -1.903 4.093 -4.105 0.319 -2.89 0.66 -7.741 0.66 -15.268 0 -2.874 -0.05 -5.357 -0.13 -7.49 -0.35 -0.98 -1.546 -3.568 -5.267 -7.216Z" stroke-width="1"></path>
    <path id="Intersect" fill="#ffffff" d="M32.09 3.079c0.853 0.267 3.58 1.358 7.515 5.216 3.701 3.629 4.905 6.209 5.262 7.2l0.017 0.464c-2.087 0.311 -5.84 0.073 -8.688 -0.191a4.664 4.664 0 0 1 -4.228 -4.21c-0.268 -2.803 -0.507 -6.468 -0.181 -8.489l0.303 0.01Z" stroke-width="1"></path>
    <path id="Ellipse 19" fill="#ffffff" d="M27 33c0 6.627 -5.373 12 -12 12S3 39.627 3 33s5.373 -12 12 -12 12 5.373 12 12Z" stroke-width="1"></path>
    <path id="Subtract_2" stroke="#2859c5" stroke-linecap="round" stroke-linejoin="round" d="M29.14 42.987c5.119 -0.063 8.743 -0.344 11.108 -0.614 2.2 -0.252 3.85 -1.903 4.092 -4.105 0.319 -2.89 0.66 -7.741 0.66 -15.268 0 -2.876 -0.05 -5.361 -0.13 -7.496 -0.351 -0.982 -1.55 -3.568 -5.266 -7.21 -3.941 -3.864 -6.67 -4.952 -7.519 -5.217A161.796 161.796 0 0 0 27 3c-6.264 0 -10.566 0.32 -13.248 0.627 -2.201 0.252 -3.85 1.903 -4.092 4.105 -0.225 2.034 -0.46 5.04 -0.58 9.268" stroke-width="1"></path>
    <path id="Intersect_2" stroke="#2859c5" stroke-linecap="round" stroke-linejoin="round" d="M44.884 15.96c-2.087 0.31 -5.84 0.072 -8.688 -0.192a4.664 4.664 0 0 1 -4.228 -4.21c-0.269 -2.803 -0.507 -6.468 -0.181 -8.489" stroke-width="1"></path>
    <path id="Ellipse 18" stroke="#2859c5" stroke-linecap="round" stroke-linejoin="round" d="M3 33a12 12 0 1 0 24 0 12 12 0 1 0 -24 0" stroke-width="1"></path>
    <path id="Vector 972" stroke="#2859c5" stroke-linecap="round" stroke-linejoin="round" d="m20 29 -5.882 8L10 32.333" stroke-width="1"></path>
  </g>
</svg>