<svg xmlns="http://www.w3.org/2000/svg" fill="none" viewBox="0 0 48 48" id="Firefighter-Truck--Streamline-Plump">
  <desc>
    Firefighter Truck Streamline Icon: https://streamlinehq.com
  </desc>
  <g id="firefighter-truck">
    <path id="Rectangle 1498" fill="#ffffff" d="M33 10c1.443 0 2.673 1.043 2.813 2.48 0.1 1.03 0.187 2.275 0.187 3.52h-6c0 -1.245 0.086 -2.49 0.187 -3.52 0.14 -1.437 1.37 -2.48 2.813 -2.48Z" stroke-width="1"></path>
    <path id="Ellipse 44" fill="#ffffff" d="M29 40a5 5 0 1 0 10 0 5 5 0 0 0 -10 0Z" stroke-width="1"></path>
    <path id="Ellipse 45" fill="#ffffff" d="M9 40a5 5 0 1 0 10 0 5 5 0 0 0 -10 0Z" stroke-width="1"></path>
    <path id="Subtract" fill="#8fbffa" d="M39.253 17.403c1.165 1.392 3.008 3.799 4.933 7.137 0.55 0.953 0.862 2.023 0.92 3.123 0.104 1.962 0.222 5.446 0.052 9.27a2.85 2.85 0 0 1 -2.722 2.717c-0.919 0.046 -2.073 0.098 -3.44 0.147A5 5 0 0 0 29 40h-9v-0.008a433.03 433.03 0 0 1 -1 -0.008 5 5 0 0 0 -9.995 -0.207 240.8 240.8 0 0 1 -3.168 -0.132c-1.398 -0.068 -2.514 -1.118 -2.607 -2.515 -0.114 -1.71 -0.23 -4.424 -0.23 -8.396 0 -4.308 0.136 -7.58 0.258 -9.653 0.088 -1.49 1.303 -2.637 2.795 -2.692a602.496 602.496 0 0 1 13.852 -0.364 2.942 2.942 0 0 1 2.983 2.87L22.915 20h4.19c0.014 -0.535 0.03 -1.074 0.048 -1.616 0.047 -1.396 1.064 -2.56 2.456 -2.681 1.648 -0.145 3.999 -0.236 6.526 0.033a4.71 4.71 0 0 1 3.118 1.667Z" stroke-width="1"></path>
    <path id="Vector 1446" fill="#ffffff" d="M39.279 26.085c-0.558 -1.007 -2.11 -3.582 -3.988 -4.758a1.517 1.517 0 0 0 -0.623 -0.214 14.01 14.01 0 0 0 -2.057 -0.108c-0.773 0.025 -1.355 0.637 -1.411 1.408 -0.116 1.604 -0.026 3.633 0.058 4.932 0.051 0.79 0.586 1.466 1.37 1.58 1.607 0.235 3.676 0.207 5.013 0.152 0.821 -0.034 1.526 -0.593 1.698 -1.397 0.05 -0.239 0.096 -0.483 0.126 -0.71a1.442 1.442 0 0 0 -0.186 -0.885Z" stroke-width="1"></path>
    <path id="Vector 1445" stroke="#2859c5" stroke-linecap="round" stroke-linejoin="round" d="M34 3 6.626 16.215" stroke-width="1"></path>
    <path id="Ellipse 42" stroke="#2859c5" stroke-linecap="round" stroke-linejoin="round" d="M29 40a5 5 0 1 0 10 0 5 5 0 0 0 -10 0Z" stroke-width="1"></path>
    <path id="Ellipse 43" stroke="#2859c5" stroke-linecap="round" stroke-linejoin="round" d="M9 40a5 5 0 1 0 10 0 5 5 0 0 0 -10 0Z" stroke-width="1"></path>
    <path id="Subtract_2" stroke="#2859c5" stroke-linecap="round" stroke-linejoin="round" d="M38.996 39.797c1.367 -0.049 2.521 -0.1 3.44 -0.147a2.85 2.85 0 0 0 2.722 -2.718 98.49 98.49 0 0 0 -0.052 -9.27 6.98 6.98 0 0 0 -0.92 -3.122c-1.925 -3.338 -3.768 -5.745 -4.933 -7.137a4.71 4.71 0 0 0 -3.118 -1.667c-2.527 -0.269 -4.877 -0.178 -6.526 -0.033 -1.391 0.122 -2.41 1.285 -2.456 2.68 -0.018 0.543 -0.034 1.082 -0.048 1.617h-4.19l-0.027 -1.104a2.942 2.942 0 0 0 -2.983 -2.87 593 593 0 0 0 -13.852 0.363c-1.491 0.055 -2.706 1.202 -2.794 2.692C3.136 21.154 3 24.426 3 28.734c0 3.972 0.116 6.685 0.23 8.396 0.093 1.397 1.21 2.447 2.608 2.515 0.84 0.041 1.897 0.087 3.167 0.132" stroke-width="1"></path>
    <path id="Subtract_3" stroke="#2859c5" stroke-linecap="round" stroke-linejoin="round" d="M29 40h-9v-0.009l-1 -0.007" stroke-width="1"></path>
    <path id="Subtract_4" stroke="#2859c5" stroke-linecap="round" stroke-linejoin="round" d="M30.002 15.67c0.013 -1.133 0.093 -2.251 0.185 -3.19 0.14 -1.437 1.37 -2.48 2.813 -2.48s2.673 1.043 2.813 2.48c0.093 0.953 0.174 2.09 0.186 3.242" stroke-width="1"></path>
    <path id="Vector 734" stroke="#2859c5" stroke-linecap="round" stroke-linejoin="round" d="M39.278 26.085c-0.557 -1.007 -2.11 -3.582 -3.988 -4.758a1.517 1.517 0 0 0 -0.622 -0.214 14.01 14.01 0 0 0 -2.058 -0.108c-0.772 0.025 -1.355 0.637 -1.41 1.408 -0.117 1.604 -0.027 3.633 0.057 4.932 0.051 0.79 0.586 1.466 1.37 1.58 1.607 0.235 3.676 0.207 5.013 0.152 0.822 -0.034 1.527 -0.593 1.698 -1.397a9.33 9.33 0 0 0 0.126 -0.71 1.442 1.442 0 0 0 -0.186 -0.885Z" stroke-width="1"></path>
    <path id="Vector 1442" stroke="#2859c5" stroke-linecap="round" stroke-linejoin="round" d="m8.5 22.5 9 0" stroke-width="1"></path>
    <path id="Vector 1443" stroke="#2859c5" stroke-linecap="round" stroke-linejoin="round" d="m8.5 28.5 9 0" stroke-width="1"></path>
  </g>
</svg>