<svg xmlns="http://www.w3.org/2000/svg" fill="none" viewBox="0 0 48 48" stroke-width="3" id="Flip-Horizontal-Circle-1--Streamline-Plump">
  <desc>
    Flip Horizontal Circle 1 Streamline Icon: https://streamlinehq.com
  </desc>
  <g id="flip-horizontal-circle-1--flip-left-object-work">
    <path id="Ellipse 20" fill="#ffffff" transform="matrix(0 1 1 0 3 3)" d="M0 21a21 21 0 1 0 42 0 21 21 0 1 0-42 0"></path>
    <path id="Intersect" fill="#8fbffa" d="M20.914 3.202C22.044 3.036 23 3.955 23 5.096v37.808c0 1.141-.957 2.06-2.086 1.894C10.78 43.304 3 34.562 3 24 3 13.44 10.78 4.696 20.914 3.202Z"></path>
    <path id="Intersect_2" stroke="#2859c5" stroke-linecap="round" stroke-linejoin="round" d="M20.914 3.202C22.044 3.036 23 3.955 23 5.096v37.808c0 1.141-.957 2.06-2.086 1.894C10.78 43.304 3 34.562 3 24 3 13.44 10.78 4.696 20.914 3.202Z"></path>
    <path id="Ellipse 19" stroke="#2859c5" stroke-linecap="round" stroke-linejoin="round" d="M42.846 14.712a21.082 21.082 0 0 0-4.18-5.76m6.031 11.465c.2 1.165.304 2.362.304 3.583 0 1.222-.104 2.419-.304 3.583m-6.03 11.464a21.083 21.083 0 0 0 4.178-5.758M33.794 5.397A20.842 20.842 0 0 0 29 3.577m0 40.847a20.84 20.84 0 0 0 4.793-1.82"></path>
  </g>
</svg>