<svg xmlns="http://www.w3.org/2000/svg" fill="none" viewBox="0 0 48 48" id="Insert-Side--Streamline-Plump">
  <desc>
    Insert Side Streamline Icon: https://streamlinehq.com
  </desc>
  <g id="insert-side--points-bullet-align-paragraph-formatting-bullets-text">
    <path id="Rectangle 1106" fill="#8fbffa" d="M27.0494 29.2338c0.0561 -0.6284 0.5411 -1.0386 1.1707 -1.079C29.3205 28.0841 31.5625 28 36 28s6.6795 0.0841 7.7799 0.1548c0.6296 0.0404 1.1146 0.4506 1.1707 1.079 0.0288 0.3214 0.0494 0.7366 0.0494 1.2662s-0.0206 0.9448 -0.0494 1.2662c-0.0561 0.6284 -0.5411 1.0386 -1.1707 1.079C42.6795 32.9159 40.4375 33 36 33s-6.6795 -0.0841 -7.7799 -0.1548c-0.6296 -0.0404 -1.1146 -0.4506 -1.1707 -1.079C27.0206 31.4448 27 31.0296 27 30.5s0.0206 -0.9448 0.0494 -1.2662Z" stroke-width="1"></path>
    <path id="Rectangle 1105" fill="#8fbffa" d="M27.0303 40.2794c0.0366 -0.6498 0.4994 -1.1069 1.1485 -1.1556C29.0067 39.0617 30.4667 39 33 39s3.9933 0.0617 4.8212 0.1238c0.6491 0.0487 1.1119 0.5058 1.1485 1.1557 0.0178 0.3148 0.0303 0.7156 0.0303 1.2205 0 0.5049 -0.0125 0.9057 -0.0303 1.2205 -0.0366 0.6499 -0.4994 1.107 -1.1485 1.1557C36.9933 43.9383 35.5333 44 33 44s-3.9933 -0.0617 -4.8212 -0.1238c-0.6491 -0.0487 -1.1119 -0.5058 -1.1485 -1.1557C27.0125 42.4057 27 42.0049 27 41.5c0 -0.5049 0.0125 -0.9057 0.0303 -1.2206Z" stroke-width="1"></path>
    <path id="Rectangle 1104" fill="#8fbffa" d="M27.0303 16.2794c0.0366 -0.6498 0.4994 -1.1069 1.1485 -1.1556C29.0067 15.0617 30.4667 15 33 15s3.9933 0.0617 4.8212 0.1238c0.6491 0.0487 1.1119 0.5058 1.1485 1.1557 0.0178 0.3148 0.0303 0.7156 0.0303 1.2205 0 0.5049 -0.0125 0.9057 -0.0303 1.2205 -0.0366 0.6499 -0.4994 1.107 -1.1485 1.1557C36.9933 19.9383 35.5333 20 33 20s-3.9933 -0.0617 -4.8212 -0.1238c-0.6491 -0.0487 -1.1119 -0.5058 -1.1485 -1.1557C27.0125 18.4057 27 18.0049 27 17.5c0 -0.5049 0.0125 -0.9057 0.0303 -1.2206Z" stroke-width="1"></path>
    <path id="Rectangle 1103" fill="#8fbffa" d="M27.0494 5.23377c0.0561 -0.6284 0.5411 -1.03858 1.1707 -1.079C29.3205 4.08412 31.5625 4 36 4s6.6795 0.08412 7.7799 0.15477c0.6296 0.04042 1.1146 0.4506 1.1707 1.079C44.9794 5.55521 45 5.97035 45 6.5c0 0.52964 -0.0206 0.94479 -0.0494 1.26623 -0.0561 0.6284 -0.5411 1.03858 -1.1707 1.079C42.6795 8.91588 40.4375 9 36 9s-6.6795 -0.08412 -7.7799 -0.15477c-0.6296 -0.04042 -1.1146 -0.4506 -1.1707 -1.079C27.0206 7.44479 27 7.02964 27 6.5c0 -0.52965 0.0206 -0.94479 0.0494 -1.26623Z" stroke-width="1"></path>
    <path id="Rectangle 1102" fill="#ffffff" d="M20.8417 30.2708c-0.1066 -1.7059 -1.4066 -3.0059 -3.1125 -3.1125C16.3613 27.0727 14.4715 27 12 27c-2.47154 0 -4.36132 0.0727 -5.72924 0.1582 -1.70582 0.1067 -3.00585 1.4067 -3.11251 3.1126C3.07272 31.6387 3 33.5285 3 36s0.07272 4.3613 0.15825 5.7292c0.10666 1.7059 1.40669 3.0059 3.11251 3.1126C7.63868 44.9273 9.52846 45 12 45c2.4715 0 4.3613 -0.0727 5.7292 -0.1582 1.7059 -0.1067 3.0059 -1.4067 3.1125 -3.1126C20.9273 40.3613 21 38.4715 21 36s-0.0727 -4.3613 -0.1583 -5.7292Z" stroke-width="1"></path>
    <path id="Rectangle 1101" fill="#ffffff" d="M20.8417 6.27076c-0.1066 -1.70581 -1.4066 -3.00585 -3.1125 -3.11251C16.3613 3.07272 14.4715 3 12 3c-2.47154 0 -4.36132 0.07272 -5.72924 0.15825 -1.70582 0.10666 -3.00585 1.40669 -3.11251 3.11251C3.07272 7.63868 3 9.52846 3 12c0 2.4715 0.07272 4.3613 0.15825 5.7292 0.10666 1.7059 1.40669 3.0059 3.11251 3.1126C7.63868 20.9273 9.52846 21 12 21c2.4715 0 4.3613 -0.0727 5.7292 -0.1582 1.7059 -0.1067 3.0059 -1.4067 3.1125 -3.1126C20.9273 16.3613 21 14.4715 21 12c0 -2.47154 -0.0727 -4.36131 -0.1583 -5.72924Z" stroke-width="1"></path>
    <path id="Rectangle 1096" stroke="#2859c5" stroke-linecap="round" stroke-linejoin="round" d="M20.8417 6.27076c-0.1066 -1.70581 -1.4066 -3.00585 -3.1125 -3.11251C16.3613 3.07272 14.4715 3 12 3c-2.47154 0 -4.36132 0.07272 -5.72924 0.15825 -1.70582 0.10666 -3.00585 1.40669 -3.11251 3.11251C3.07272 7.63868 3 9.52846 3 12c0 2.4715 0.07272 4.3613 0.15825 5.7292 0.10666 1.7059 1.40669 3.0059 3.11251 3.1126C7.63868 20.9273 9.52846 21 12 21c2.4715 0 4.3613 -0.0727 5.7292 -0.1582 1.7059 -0.1067 3.0059 -1.4067 3.1125 -3.1126C20.9273 16.3613 21 14.4715 21 12c0 -2.47154 -0.0727 -4.36131 -0.1583 -5.72924Z" stroke-width="1"></path>
    <path id="Rectangle 1096_2" stroke="#2859c5" stroke-linecap="round" stroke-linejoin="round" d="M20.8417 30.2708c-0.1066 -1.7059 -1.4066 -3.0059 -3.1125 -3.1125C16.3613 27.0727 14.4715 27 12 27c-2.47154 0 -4.36132 0.0727 -5.72924 0.1582 -1.70582 0.1067 -3.00585 1.4067 -3.11251 3.1126C3.07272 31.6387 3 33.5285 3 36s0.07272 4.3613 0.15825 5.7292c0.10666 1.7059 1.40669 3.0059 3.11251 3.1126C7.63868 44.9273 9.52846 45 12 45c2.4715 0 4.3613 -0.0727 5.7292 -0.1582 1.7059 -0.1067 3.0059 -1.4067 3.1125 -3.1126C20.9273 40.3613 21 38.4715 21 36s-0.0727 -4.3613 -0.1583 -5.7292Z" stroke-width="1"></path>
    <path id="Rectangle 1098" stroke="#2859c5" stroke-linecap="round" stroke-linejoin="round" d="M27.0494 5.23377c0.0561 -0.6284 0.5411 -1.03858 1.1707 -1.079C29.3205 4.08412 31.5625 4 36 4s6.6795 0.08412 7.7799 0.15477c0.6296 0.04042 1.1146 0.4506 1.1707 1.079C44.9794 5.55521 45 5.97035 45 6.5c0 0.52964 -0.0206 0.94479 -0.0494 1.26623 -0.0561 0.6284 -0.5411 1.03858 -1.1707 1.079C42.6795 8.91588 40.4375 9 36 9s-6.6795 -0.08412 -7.7799 -0.15477c-0.6296 -0.04042 -1.1146 -0.4506 -1.1707 -1.079C27.0206 7.44479 27 7.02964 27 6.5c0 -0.52965 0.0206 -0.94479 0.0494 -1.26623Z" stroke-width="1"></path>
    <path id="Rectangle 1100" stroke="#2859c5" stroke-linecap="round" stroke-linejoin="round" d="M27.0303 16.2794c0.0366 -0.6498 0.4994 -1.1069 1.1485 -1.1556C29.0067 15.0617 30.4667 15 33 15s3.9933 0.0617 4.8212 0.1238c0.6491 0.0487 1.1119 0.5058 1.1485 1.1557 0.0178 0.3148 0.0303 0.7156 0.0303 1.2205 0 0.5049 -0.0125 0.9057 -0.0303 1.2205 -0.0366 0.6499 -0.4994 1.107 -1.1485 1.1557C36.9933 19.9383 35.5333 20 33 20s-3.9933 -0.0617 -4.8212 -0.1238c-0.6491 -0.0487 -1.1119 -0.5058 -1.1485 -1.1557C27.0125 18.4057 27 18.0049 27 17.5c0 -0.5049 0.0125 -0.9057 0.0303 -1.2206Z" stroke-width="1"></path>
    <path id="Rectangle 70" stroke="#2859c5" stroke-linecap="round" stroke-linejoin="round" d="M27.0303 40.2794c0.0366 -0.6498 0.4994 -1.1069 1.1485 -1.1556C29.0067 39.0617 30.4667 39 33 39s3.9933 0.0617 4.8212 0.1238c0.6491 0.0487 1.1119 0.5058 1.1485 1.1557 0.0178 0.3148 0.0303 0.7156 0.0303 1.2205 0 0.5049 -0.0125 0.9057 -0.0303 1.2205 -0.0366 0.6499 -0.4994 1.107 -1.1485 1.1557C36.9933 43.9383 35.5333 44 33 44s-3.9933 -0.0617 -4.8212 -0.1238c-0.6491 -0.0487 -1.1119 -0.5058 -1.1485 -1.1557C27.0125 42.4057 27 42.0049 27 41.5c0 -0.5049 0.0125 -0.9057 0.0303 -1.2206Z" stroke-width="1"></path>
    <path id="Rectangle 75" stroke="#2859c5" stroke-linecap="round" stroke-linejoin="round" d="M27.0494 29.2338c0.0561 -0.6284 0.5411 -1.0386 1.1707 -1.079C29.3205 28.0841 31.5625 28 36 28s6.6795 0.0841 7.7799 0.1548c0.6296 0.0404 1.1146 0.4506 1.1707 1.079 0.0288 0.3214 0.0494 0.7366 0.0494 1.2662s-0.0206 0.9448 -0.0494 1.2662c-0.0561 0.6284 -0.5411 1.0386 -1.1707 1.079C42.6795 32.9159 40.4375 33 36 33s-6.6795 -0.0841 -7.7799 -0.1548c-0.6296 -0.0404 -1.1146 -0.4506 -1.1707 -1.079C27.0206 31.4448 27 31.0296 27 30.5s0.0206 -0.9448 0.0494 -1.2662Z" stroke-width="1"></path>
  </g>
</svg>