<svg xmlns="http://www.w3.org/2000/svg" fill="none" viewBox="0 0 48 48" id="Moon-Stars--Streamline-Plump">
  <desc>
    Moon Stars Streamline Icon: https://streamlinehq.com
  </desc>
  <g id="moon-stars--night-time">
    <path id="Subtract" fill="#8fbffa" d="M18.228 19.47c0 7.669 6.216 13.885 13.884 13.885 1.121 0 2.21 -0.133 3.254 -0.383 0.81 -0.195 1.595 0.54 1.271 1.31C33.987 40.578 27.76 45 20.5 45 10.835 45 3 37.165 3 27.5S10.835 10 20.5 10c0.571 0 0.849 0.68 0.506 1.138a13.823 13.823 0 0 0 -2.778 8.333Z" stroke-width="1"></path>
    <path id="Star 10" fill="#ffffff" d="M38.324 27.404c-0.261 0.795 -1.386 0.795 -1.648 0l-1.615 -4.912a0.868 0.868 0 0 0 -0.553 -0.553l-4.912 -1.615c-0.795 -0.262 -0.795 -1.387 0 -1.648l4.912 -1.615a0.868 0.868 0 0 0 0.553 -0.553l1.615 -4.912c0.261 -0.795 1.386 -0.795 1.648 0l1.615 4.912a0.868 0.868 0 0 0 0.553 0.553l4.912 1.615c0.795 0.262 0.795 1.387 0 1.648l-4.912 1.615a0.868 0.868 0 0 0 -0.553 0.553l-1.615 4.912Z" stroke-width="1"></path>
    <path id="Vector 2594" stroke="#2859c5" stroke-linecap="round" stroke-linejoin="round" d="M29 4v6" stroke-width="1"></path>
    <path id="Vector 2595" stroke="#2859c5" stroke-linecap="round" stroke-linejoin="round" d="m32 7 -6 0" stroke-width="1"></path>
    <path id="Subtract_2" stroke="#2859c5" stroke-linecap="round" stroke-linejoin="round" d="M18.228 19.47c0 7.669 6.217 13.885 13.885 13.885 1.12 0 2.21 -0.133 3.253 -0.383 0.811 -0.195 1.595 0.54 1.272 1.31C33.988 40.578 27.76 45 20.5 45 10.835 45 3 37.165 3 27.5S10.835 10 20.5 10c0.572 0 0.85 0.68 0.506 1.138a13.823 13.823 0 0 0 -2.778 8.333Z" stroke-width="1"></path>
    <path id="Star 11" stroke="#2859c5" stroke-linecap="round" stroke-linejoin="round" d="M38.324 27.404c-0.261 0.795 -1.386 0.795 -1.648 0l-1.615 -4.912a0.868 0.868 0 0 0 -0.553 -0.553l-4.912 -1.615c-0.795 -0.262 -0.795 -1.387 0 -1.648l4.912 -1.615a0.868 0.868 0 0 0 0.553 -0.553l1.615 -4.912c0.261 -0.795 1.386 -0.795 1.648 0l1.615 4.912a0.868 0.868 0 0 0 0.553 0.553l4.912 1.615c0.795 0.262 0.795 1.387 0 1.648l-4.912 1.615a0.868 0.868 0 0 0 -0.553 0.553l-1.615 4.912Z" stroke-width="1"></path>
  </g>
</svg>