<svg xmlns="http://www.w3.org/2000/svg" fill="none" viewBox="0 0 48 48" id="New-Folder--Streamline-Plump">
  <desc>
    New Folder Streamline Icon: https://streamlinehq.com
  </desc>
  <g id="new-folder--empty-folder">
    <path id="Subtract" fill="#8fbffa" d="M13.525 4.018c1.932 -0.154 3.809 0.669 5.077 2.15l2.042 2.385a4.18 4.18 0 0 0 3.175 1.468h14.944c3.279 0 6.009 2.543 6.118 5.856 0.073 2.191 0.119 4.816 0.119 7.948 0 7.995 -0.301 12.683 -0.573 15.286 -0.192 1.838 -1.403 3.272 -3.195 3.636C38.425 43.318 33.155 44 24 44s-14.425 -0.682 -17.232 -1.253c-1.792 -0.364 -3.003 -1.798 -3.195 -3.636C3.3 36.508 3 31.82 3 23.825c0 -7.995 0.301 -12.683 0.573 -15.286C3.765 6.7 4.977 5.266 6.77 4.902c1.489 -0.303 3.67 -0.637 6.755 -0.884Z" stroke-width="3"></path>
    <path id="Subtract_2" stroke="#2859c5" stroke-linecap="round" stroke-linejoin="round" d="M13.525 4.018c1.932 -0.154 3.809 0.669 5.077 2.15l2.042 2.385a4.18 4.18 0 0 0 3.175 1.468h14.944c3.279 0 6.009 2.543 6.118 5.856 0.073 2.191 0.119 4.816 0.119 7.948 0 7.995 -0.301 12.683 -0.573 15.286 -0.192 1.838 -1.403 3.272 -3.195 3.636C38.425 43.318 33.155 44 24 44s-14.425 -0.682 -17.232 -1.253c-1.792 -0.364 -3.003 -1.798 -3.195 -3.636C3.3 36.508 3 31.82 3 23.825c0 -7.995 0.301 -12.683 0.573 -15.286C3.765 6.7 4.977 5.266 6.77 4.902c1.489 -0.303 3.67 -0.637 6.755 -0.884Z" stroke-width="3"></path>
  </g>
</svg>