<svg xmlns="http://www.w3.org/2000/svg" fill="none" viewBox="0 0 48 48" id="Paint-Bucket--Streamline-Plump">
  <desc>
    Paint Bucket Streamline Icon: https://streamlinehq.com
  </desc>
  <g id="paint-bucket--bucket-color-colors-design-paint-painting">
    <path id="Ellipse 161" fill="#8fbffa" d="M45 39.3999c0 3.0928 -2.2386 5.6 -5 5.6s-5 -2.5072 -5 -5.6c0 -2.8526 2.3065 -5.7051 3.7864 -7.2418 0.6738 -0.6997 1.7534 -0.6997 2.4272 0C42.6935 33.6948 45 36.5473 45 39.3999Z" stroke-width="1"></path>
    <path id="Ellipse 160" stroke="#2859c5" stroke-linecap="round" stroke-linejoin="round" d="M45 39.3999c0 3.0928 -2.2386 5.6 -5 5.6s-5 -2.5072 -5 -5.6c0 -2.8526 2.3065 -5.7051 3.7864 -7.2418 0.6738 -0.6997 1.7534 -0.6997 2.4272 0C42.6935 33.6948 45 36.5473 45 39.3999Z" stroke-width="1"></path>
    <path id="Union" fill="#8fbffa" d="M4.61826 9.7989c0.54387 -0.77989 1.54378 -0.98039 2.45947 -0.72608C9.9592 9.87308 16.6614 11.789 23.008 14.0004c1.436 0.5003 2.3292 1.9896 1.9345 3.4582 -0.3947 1.4687 -1.9151 2.3131 -3.4095 2.0306 -6.6053 -1.2489 -13.37034 -2.931 -16.26708 -3.6744 -0.92053 -0.2363 -1.68594 -0.9084 -1.76585 -1.855 -0.05162 -0.6113 -0.03039 -1.3674 0.18788 -2.1796 0.21827 -0.8122 0.57907 -1.4776 0.93031 -1.9813Z" stroke-width="1"></path>
    <path id="Subtract" fill="#ffffff" d="M19.0327 5.64737c0.757 -0.8424 2.0546 -0.86239 2.8554 -0.06155L38.4139 22.1118c0.8009 0.8009 0.7809 2.0985 -0.0615 2.8555 -2.9031 2.6087 -9.6812 8.5488 -18.0435 14.8746 -2.0058 1.5173 -4.7518 1.5696 -6.7143 -0.0033 -1.4499 -1.1622 -3.2176 -2.6801 -4.98532 -4.4478 -1.76769 -1.7677 -3.28556 -3.5354 -4.44771 -4.9854 -1.57295 -1.9625 -1.52066 -4.7086 -0.00334 -6.7144 1.83573 -2.4267 3.63898 -4.7201 5.33776 -6.8241 3.32971 0.8036 7.71751 1.8056 12.03701 2.6223 1.4944 0.2825 3.0148 -0.5619 3.4095 -2.0306 0.3947 -1.4686 -0.4985 -2.9579 -1.9345 -3.4582 -2.9936 -1.0431 -6.0664 -2.0205 -8.7799 -2.846 2.0404 -2.40158 3.7137 -4.29309 4.8046 -5.50703Z" stroke-width="1"></path>
    <path id="Union_2" stroke="#2859c5" stroke-linecap="round" stroke-linejoin="round" d="M4.61826 9.7989c0.54387 -0.77989 1.54378 -0.98039 2.45947 -0.72608C9.9592 9.87308 16.6614 11.789 23.008 14.0004c1.436 0.5003 2.3292 1.9896 1.9345 3.4582 -0.3947 1.4687 -1.9151 2.3131 -3.4095 2.0306 -6.6053 -1.2489 -13.37034 -2.931 -16.26708 -3.6744 -0.92053 -0.2363 -1.68594 -0.9084 -1.76585 -1.855 -0.05162 -0.6113 -0.03039 -1.3674 0.18788 -2.1796 0.21827 -0.8122 0.57907 -1.4776 0.93031 -1.9813Z" stroke-width="1"></path>
    <path id="Subtract_2" stroke="#2859c5" stroke-linecap="round" stroke-linejoin="round" d="M9.49611 16.867c-1.69888 2.1041 -3.50226 4.3976 -5.33812 6.8245 -1.51733 2.0058 -1.56961 4.7519 0.00334 6.7144 1.16214 1.45 2.68002 3.2177 4.44771 4.9854 1.76766 1.7677 3.53536 3.2856 4.98536 4.4477 1.9625 1.573 4.7085 1.5207 6.7143 0.0034 8.3622 -6.3258 15.1404 -12.2659 18.0434 -14.8746 0.8424 -0.757 0.8624 -2.0546 0.0616 -2.8555L21.8879 5.58631c-0.8009 -0.80084 -2.0985 -0.78085 -2.8555 0.06155 -1.0907 1.21386 -2.7639 3.10521 -4.8042 5.50654" stroke-width="1"></path>
  </g>
</svg>