<svg xmlns="http://www.w3.org/2000/svg" fill="none" viewBox="0 0 48 48" id="Pin-2--Streamline-Plump">
  <desc>
    Pin 2 Streamline Icon: https://streamlinehq.com
  </desc>
  <g id="pin-2--pin-push-thumbtack">
    <path id="Ellipse 163" fill="#8fbffa" d="M45 19c0 8.837 -7.163 16 -16 16s-16 -7.163 -16 -16S20.163 3 29 3s16 7.163 16 16Z" stroke-width="3"></path>
    <path id="Subtract" fill="#ffffff" d="m14.492 25.756 -0.8 1.125c-6.1 8.572 -12.263 17.233 -11.034 18.462 1.229 1.229 9.89 -4.935 18.462 -11.035l1.125 -0.8a16.064 16.064 0 0 1 -7.753 -7.752Z" stroke-width="3"></path>
    <path id="Ellipse 161" stroke="#2859c5" stroke-linecap="round" stroke-linejoin="round" d="M45 19c0 8.837 -7.163 16 -16 16s-16 -7.163 -16 -16S20.163 3 29 3s16 7.163 16 16Z" stroke-width="3"></path>
    <path id="Subtract_2" stroke="#2859c5" stroke-linecap="round" stroke-linejoin="round" d="m14.55 25.878 -0.36 0.504C8.091 34.953 1.928 43.614 3.157 44.843c1.229 1.23 9.89 -4.934 18.462 -11.034l0.503 -0.358" stroke-width="3"></path>
    <path id="Ellipse 162" stroke="#2859c5" stroke-linecap="round" stroke-linejoin="round" d="M36.07 11.929c-3.905 -3.906 -10.237 -3.906 -14.142 0" stroke-width="3"></path>
  </g>
</svg>