<svg xmlns="http://www.w3.org/2000/svg" fill="none" viewBox="0 0 48 48" id="Pinwheel--Streamline-Plump">
  <desc>
    Pinwheel Streamline Icon: https://streamlinehq.com
  </desc>
  <g id="pinwheel--windmill-velocity-weather-wind">
    <path id="Ellipse 1113" fill="#ffffff" d="M20 19a4 4 0 1 0 8 0 4 4 0 1 0 -8 0" stroke-width="3"></path>
    <path id="Subtract" fill="#8fbffa" d="M27.865 20.035a4.002 4.002 0 0 1 -4.904 2.829l-1.877 7.006c3.32 1.35 6.794 2.127 9.313 2.559 2.383 0.408 4.856 -0.107 6.613 -1.769 1.24 -1.174 2.565 -2.768 3.292 -4.688 0.456 -1.205 -0.29 -2.428 -1.511 -2.838 -1.3 -0.437 -3.325 -1.062 -6.34 -1.87l-4.586 -1.229Z" stroke-width="3"></path>
    <path id="Subtract_2" fill="#8fbffa" d="M22.966 22.865a4.002 4.002 0 0 1 -2.83 -4.901l-7.005 -1.877c-1.35 3.32 -2.127 6.794 -2.559 9.313 -0.408 2.384 0.107 4.857 1.769 6.613 1.174 1.24 2.767 2.565 4.688 3.292 1.205 0.456 2.428 -0.29 2.838 -1.51 0.436 -1.301 1.062 -3.325 1.87 -6.34l1.23 -4.59Z" stroke-width="3"></path>
    <path id="Subtract_3" fill="#8fbffa" d="M17.6 5.57c-2.384 -0.408 -4.857 0.107 -6.614 1.769 -1.24 1.174 -2.565 2.767 -3.292 4.688 -0.456 1.205 0.29 2.428 1.511 2.838 1.3 0.436 3.325 1.061 6.34 1.87l4.59 1.23a4.002 4.002 0 0 1 4.9 -2.83l1.878 -7.006c-3.321 -1.35 -6.795 -2.127 -9.314 -2.559Z" stroke-width="3"></path>
    <path id="Subtract_4" fill="#8fbffa" d="M37.431 12.6c0.409 -2.384 -0.106 -4.856 -1.768 -6.613 -1.174 -1.24 -2.768 -2.565 -4.688 -3.292 -1.205 -0.456 -2.428 0.29 -2.838 1.51 -0.437 1.301 -1.062 3.325 -1.87 6.34l-1.23 4.59a4.002 4.002 0 0 1 2.828 4.9l7.008 1.878c1.35 -3.32 2.127 -6.794 2.559 -9.313Z" stroke-width="3"></path>
    <path id="Ellipse 1114" stroke="#2859c5" stroke-linecap="round" stroke-linejoin="round" d="M20 19a4 4 0 1 0 8 0 4 4 0 1 0 -8 0" stroke-width="3"></path>
    <path id="Subtract_5" stroke="#2859c5" stroke-linecap="round" stroke-linejoin="round" d="M13.132 16.087c-1.35 3.32 -2.128 6.794 -2.56 9.313 -0.408 2.384 0.107 4.857 1.77 6.613 1.173 1.24 2.767 2.565 4.687 3.292 1.205 0.456 2.428 -0.29 2.838 -1.51 0.437 -1.301 1.062 -3.325 1.87 -6.34l1.23 -4.59" stroke-width="3"></path>
    <path id="Subtract_6" stroke="#2859c5" stroke-linecap="round" stroke-linejoin="round" d="m27.865 20.036 4.586 1.229c3.015 0.808 5.04 1.433 6.34 1.869 1.221 0.41 1.967 1.633 1.51 2.838 -0.726 1.92 -2.05 3.514 -3.291 4.688 -1.757 1.662 -4.23 2.177 -6.613 1.769 -2.52 -0.432 -5.993 -1.21 -9.313 -2.56" stroke-width="3"></path>
    <path id="Subtract_7" stroke="#2859c5" stroke-linecap="round" stroke-linejoin="round" d="m25.038 15.136 1.23 -4.59c0.808 -3.016 1.433 -5.04 1.869 -6.34 0.41 -1.222 1.633 -1.967 2.838 -1.511 1.92 0.727 3.514 2.051 4.688 3.292 1.662 1.756 2.177 4.23 1.769 6.613 -0.432 2.519 -1.21 5.992 -2.56 9.313" stroke-width="3"></path>
    <path id="Subtract_8" stroke="#2859c5" stroke-linecap="round" stroke-linejoin="round" d="m20.136 17.964 -4.591 -1.23c-3.015 -0.808 -5.04 -1.433 -6.34 -1.87 -1.221 -0.41 -1.967 -1.633 -1.51 -2.838 0.726 -1.92 2.05 -3.514 3.291 -4.688 1.757 -1.662 4.23 -2.177 6.613 -1.768 2.52 0.431 5.993 1.209 9.314 2.559" stroke-width="3"></path>
    <path id="Vector 2596" stroke="#2859c5" stroke-linecap="round" stroke-linejoin="round" d="M24 31v15" stroke-width="3"></path>
  </g>
</svg>