<svg xmlns="http://www.w3.org/2000/svg" fill="none" viewBox="0 0 48 48" id="Screwdriver--Streamline-Plump">
  <desc>
    Screwdriver Streamline Icon: https://streamlinehq.com
  </desc>
  <g id="screwdriver--screwdriver-screw-tool-settings-hand">
    <path id="Rectangle 59" fill="#8fbffa" d="M27.24 27.822c1.027 1.168 1.064 2.816 0.115 4.048 -1.197 1.555 -3.15 3.897 -5.972 6.72 -2.823 2.823 -5.166 4.776 -6.72 5.973 -1.233 0.949 -2.88 0.912 -4.049 -0.116a79.134 79.134 0 0 1 -3.627 -3.435 79.081 79.081 0 0 1 -3.436 -3.628c-1.027 -1.167 -1.064 -2.815 -0.116 -4.048 1.198 -1.554 3.15 -3.897 5.973 -6.72s5.166 -4.776 6.72 -5.973c1.233 -0.948 2.88 -0.911 4.048 0.116 0.88 0.773 2.073 1.88 3.628 3.436a79.077 79.077 0 0 1 3.436 3.627Z" stroke-width="3"></path>
    <path id="Subtract" fill="#ffffff" d="m32.832 7.769 -0.097 3.96 -10.41 10.41a2.54 2.54 0 0 0 -0.281 0.336 97.69 97.69 0 0 1 1.76 1.72 97.89 97.89 0 0 1 1.721 1.761 2.47 2.47 0 0 0 0.337 -0.282l10.41 -10.41 3.96 -0.096a2 2 0 0 0 1.726 -1.08l3.06 -5.906a1 1 0 0 0 -0.18 -1.167l-3.854 -3.852a1 1 0 0 0 -1.167 -0.181l-5.906 3.06a2 2 0 0 0 -1.08 1.727Z" stroke-width="3"></path>
    <path id="Rectangle 60" stroke="#2859c5" stroke-linecap="round" stroke-linejoin="round" d="M27.24 27.822c1.027 1.168 1.064 2.816 0.115 4.048 -1.197 1.555 -3.15 3.897 -5.973 6.72s-5.165 4.776 -6.72 5.973c-1.232 0.949 -2.88 0.912 -4.048 -0.116a79.109 79.109 0 0 1 -3.627 -3.435 79.092 79.092 0 0 1 -3.436 -3.628c-1.027 -1.167 -1.065 -2.815 -0.116 -4.048 1.197 -1.554 3.15 -3.897 5.973 -6.72s5.165 -4.776 6.72 -5.973c1.233 -0.948 2.88 -0.911 4.048 0.116 0.879 0.773 2.073 1.88 3.628 3.436a79.133 79.133 0 0 1 3.435 3.627Z" stroke-width="3"></path>
    <path id="Subtract_2" stroke="#2859c5" stroke-linecap="round" stroke-linejoin="round" d="M22.044 22.475c0.083 -0.118 0.177 -0.23 0.282 -0.336l10.41 -10.41 0.096 -3.96a2 2 0 0 1 1.08 -1.727l5.906 -3.06a1 1 0 0 1 1.167 0.18l3.852 3.853a1 1 0 0 1 0.181 1.167l-3.06 5.906a2 2 0 0 1 -1.727 1.08l-3.96 0.097 -10.41 10.41a2.458 2.458 0 0 1 -0.335 0.281" stroke-width="3"></path>
  </g>
</svg>