<svg xmlns="http://www.w3.org/2000/svg" fill="none" viewBox="0 0 48 48" id="Table--Streamline-Plump">
  <desc>
    Table Streamline Icon: https://streamlinehq.com
  </desc>
  <g id="table">
    <path id="Rectangle 1096" fill="#8fbffa" d="M8.257 44.461c-2.555 -0.208 -4.51 -2.163 -4.718 -4.718C3.277 36.515 3 31.364 3 24c0 -7.364 0.277 -12.515 0.539 -15.743 0.208 -2.555 2.163 -4.51 4.718 -4.718C11.485 3.277 16.636 3 24 3c7.364 0 12.515 0.277 15.743 0.539 2.555 0.208 4.51 2.163 4.718 4.718C44.723 11.485 45 16.636 45 24c0 7.364 -0.277 12.515 -0.539 15.743 -0.208 2.555 -2.163 4.51 -4.718 4.718C36.515 44.723 31.364 45 24 45c-7.364 0 -12.515 -0.277 -15.743 -0.539Z" stroke-width="3"></path>
    <path id="Rectangle 1097" stroke="#2859c5" stroke-linecap="round" stroke-linejoin="round" d="M8.257 44.461c-2.555 -0.208 -4.51 -2.163 -4.718 -4.718C3.277 36.515 3 31.364 3 24c0 -7.364 0.277 -12.515 0.539 -15.743 0.208 -2.555 2.163 -4.51 4.718 -4.718C11.485 3.277 16.636 3 24 3c7.364 0 12.515 0.277 15.743 0.539 2.555 0.208 4.51 2.163 4.718 4.718C44.723 11.485 45 16.636 45 24c0 7.364 -0.277 12.515 -0.539 15.743 -0.208 2.555 -2.163 4.51 -4.718 4.718C36.515 44.723 31.364 45 24 45c-7.364 0 -12.515 -0.277 -15.743 -0.539Z" stroke-width="3"></path>
    <path id="Intersect" stroke="#2859c5" stroke-linecap="round" stroke-linejoin="round" d="m15 44.844 0 -41.69" stroke-width="3"></path>
    <path id="Vector 883" stroke="#2859c5" stroke-linecap="round" stroke-linejoin="round" d="m3.25 17 41.5 0" stroke-width="3"></path>
    <path id="Vector 884" stroke="#2859c5" stroke-linecap="round" stroke-linejoin="round" d="m3.25 31 41.5 0" stroke-width="3"></path>
  </g>
</svg>