<svg xmlns="http://www.w3.org/2000/svg" fill="none" viewBox="0 0 48 48" id="Trending-Content--Streamline-Plump">
  <desc>
    Trending Content Streamline Icon: https://streamlinehq.com
  </desc>
  <g id="trending-content--lit-flame-torch-trending">
    <path id="Subtract" fill="#8fbffa" d="M26.3061 3.05941c-1.0959 -0.30472 -2.0365 0.63727 -2.0957 1.77316 -0.1371 2.62784 -0.6497 5.56493 -2.0696 7.49543 -0.6856 0.9321 -2.0102 1.1578 -2.8325 0.3439 -0.9093 -0.8999 -1.6117 -2.3018 -2.1479 -3.80654 -0.4748 -1.33217 -2.0781 -1.9524 -3.1821 -1.06856C8.573 12.1241 2.99805 18.7508 2.99805 27.677c0 11.9604 9.40285 17.325 21.00195 17.325 11.599 0 21.0019 -5.3646 21.0019 -17.325 0 -12.2217 -10.4514 -20.13263 -16.6086 -23.73272 -0.667 -0.39002 -1.3683 -0.68498 -2.0872 -0.88487Z" stroke-width="3"></path>
    <path id="Ellipse 20" fill="#ffffff" d="M23.2732 23.332c0.4609 -0.2265 0.9927 -0.2265 1.4536 0C26.6983 24.3007 32 27.39 32 32.6001c0 4.4183 -3.5817 6.4 -8 6.4s-8 -1.9817 -8 -6.4c0 -5.2101 5.3017 -8.2994 7.2732 -9.2681Z" stroke-width="3"></path>
    <path id="Subtract_2" stroke="#2859c5" stroke-linecap="round" stroke-linejoin="round" d="M26.3063 3.05941c-1.0958 -0.30472 -2.0365 0.63727 -2.0957 1.77316 -0.137 2.62784 -0.6497 5.56493 -2.0696 7.49543 -0.6855 0.9321 -2.0101 1.1578 -2.8325 0.3439 -0.9092 -0.8999 -1.6116 -2.3018 -2.1479 -3.80654 -0.4748 -1.33217 -2.078 -1.9524 -3.1821 -1.06856C8.57324 12.1241 2.99829 18.7508 2.99829 27.677c0 11.9604 9.40291 17.325 21.00191 17.325 11.599 0 21.0019 -5.3646 21.0019 -17.325 0 -12.2217 -10.4513 -20.13263 -16.6085 -23.73272 -0.6671 -0.39002 -1.3684 -0.68498 -2.0873 -0.88487Z" stroke-width="3"></path>
    <path id="Ellipse 19" stroke="#2859c5" stroke-linecap="round" stroke-linejoin="round" d="M23.2732 23.332c0.4609 -0.2265 0.9927 -0.2265 1.4536 0C26.6983 24.3007 32 27.39 32 32.6001c0 4.4183 -3.5817 6.4 -8 6.4s-8 -1.9817 -8 -6.4c0 -5.2101 5.3017 -8.2994 7.2732 -9.2681Z" stroke-width="3"></path>
  </g>
</svg>