<svg xmlns="http://www.w3.org/2000/svg" fill="none" viewBox="0 0 48 48" id="User-Feedback-Heart--Streamline-Plump">
  <desc>
    User Feedback Heart Streamline Icon: https://streamlinehq.com
  </desc>
  <g id="user-feedback-heart">
    <path id="Vector" fill="#ffffff" d="M13.42 34.984a0.895 0.895 0 0 0 -0.503 -1.346c-2.95 -0.886 -6.85 -1.35 -8.761 -1.536a0.953 0.953 0 0 0 -1.048 1.05c0.193 1.843 0.66 5.564 1.545 8.714a0.907 0.907 0 0 0 1.368 0.531c2.715 -1.743 5.667 -4.7 7.4 -7.413Z" stroke-width="3"></path>
    <path id="Vector 9" fill="#8fbffa" d="M32.942 25.822a7.203 7.203 0 0 0 0.873 -5.38c-0.911 -4.163 -5.957 -5.864 -9.1 -3.074 -0.249 0.22 -0.47 0.473 -0.715 0.725 -0.245 -0.253 -0.466 -0.506 -0.715 -0.725 -3.143 -2.79 -8.189 -1.089 -9.1 3.074a7.203 7.203 0 0 0 0.873 5.38c1.592 2.58 4.09 4.63 6.597 6.48a3.959 3.959 0 0 0 4.69 0c2.508 -1.85 5.005 -3.9 6.597 -6.48Z" stroke-width="3"></path>
    <path id="Vector 10" stroke="#2859c5" stroke-linecap="round" stroke-linejoin="round" d="M32.942 25.822a7.203 7.203 0 0 0 0.873 -5.38c-0.911 -4.163 -5.957 -5.864 -9.1 -3.074 -0.249 0.22 -0.47 0.473 -0.715 0.725 -0.245 -0.253 -0.466 -0.506 -0.715 -0.725 -3.143 -2.79 -8.189 -1.089 -9.1 3.074a7.203 7.203 0 0 0 0.873 5.38c1.592 2.58 4.09 4.63 6.597 6.48a3.959 3.959 0 0 0 4.69 0c2.508 -1.85 5.005 -3.9 6.597 -6.48Z" stroke-width="3"></path>
    <path id="Vector_2" fill="#ffffff" d="M34.58 13.015a0.895 0.895 0 0 0 0.503 1.347c2.95 0.886 6.85 1.35 8.761 1.536a0.953 0.953 0 0 0 1.047 -1.05c-0.192 -1.843 -0.659 -5.564 -1.544 -8.714a0.907 0.907 0 0 0 -1.368 -0.531c-2.715 1.743 -5.667 4.7 -7.4 7.412Z" stroke-width="3"></path>
    <path id="Vector_3" stroke="#2859c5" stroke-linecap="round" stroke-linejoin="round" d="M13.42 34.984a0.895 0.895 0 0 0 -0.503 -1.346c-2.95 -0.886 -6.85 -1.35 -8.761 -1.536a0.953 0.953 0 0 0 -1.048 1.05c0.193 1.843 0.66 5.564 1.545 8.714a0.907 0.907 0 0 0 1.368 0.531c2.715 -1.743 5.667 -4.7 7.4 -7.413Z" stroke-width="3"></path>
    <path id="Vector_4" stroke="#2859c5" stroke-linecap="round" stroke-linejoin="round" d="M34.58 13.015a0.895 0.895 0 0 0 0.503 1.347c2.95 0.886 6.85 1.35 8.761 1.536a0.953 0.953 0 0 0 1.047 -1.05c-0.192 -1.843 -0.659 -5.564 -1.544 -8.714a0.907 0.907 0 0 0 -1.368 -0.531c-2.715 1.743 -5.667 4.7 -7.4 7.412Z" stroke-width="3"></path>
    <path id="Subtract" stroke="#2859c5" stroke-linecap="round" stroke-linejoin="round" d="M9.905 39.237C13.632 42.809 18.668 45 24.211 45c5.74 0 10.938 -2.35 14.7 -6.15A21.041 21.041 0 0 0 45 24" stroke-width="3"></path>
    <path id="Subtract_2" stroke="#2859c5" stroke-linecap="round" stroke-linejoin="round" d="M38.094 8.763C34.368 5.191 29.331 3 23.79 3c-5.741 0 -10.938 2.35 -14.7 6.15A21.042 21.042 0 0 0 3 24" stroke-width="3"></path>
  </g>
</svg>