<svg xmlns="http://www.w3.org/2000/svg" viewBox="0 0 24 24" id="App-Window-Text-1--Streamline-Ultimate">
  <desc>
    App Window Text 1 Streamline Icon: https://streamlinehq.com
  </desc>
  <g id="App-Window-Text-1--Streamline-Ultimate.svg">
    <path d="M0 19.25a3 3 0 0 0 3 3h18a3 3 0 0 0 3 -3V4.75a3 3 0 0 0 -3 -3H3a3 3 0 0 0 -3 3Zm14.5 -15a1 1 0 0 1 -0.15 0.5 1 1 0 0 1 -1.7 0 0.91 0.91 0 0 1 0 -1 1 1 0 0 1 1.7 0 1 1 0 0 1 0.15 0.5Zm3.5 0a1 1 0 0 1 -0.15 0.5 1 1 0 0 1 -1.7 0 0.91 0.91 0 0 1 0 -1 1 1 0 0 1 1.7 0 1 1 0 0 1 0.15 0.5Zm3.5 0a1 1 0 0 1 -0.15 0.5 1 1 0 0 1 -1.7 0 0.91 0.91 0 0 1 0 -1 1 1 0 0 1 1.76 0.09 1.12 1.12 0 0 1 0.09 0.41ZM2 7a0.25 0.25 0 0 1 0.25 -0.25h19.5A0.25 0.25 0 0 1 22 7v12.25a1 1 0 0 1 -1 1H3a1 1 0 0 1 -1 -1Z" fill="#000000" stroke-width="1"></path>
    <path d="M10.25 10.75h8.5a0.75 0.75 0 0 0 0 -1.5h-8.5a0.75 0.75 0 0 0 0 1.5Z" fill="#000000" stroke-width="1"></path>
    <path d="M5.75 10.75h1.5a0.75 0.75 0 0 0 0 -1.5h-1.5a0.75 0.75 0 0 0 0 1.5Z" fill="#000000" stroke-width="1"></path>
    <path d="M10.25 14.25h8.5a0.75 0.75 0 0 0 0 -1.5h-8.5a0.75 0.75 0 0 0 0 1.5Z" fill="#000000" stroke-width="1"></path>
    <path d="M5.75 14.25h1.5a0.75 0.75 0 0 0 0 -1.5h-1.5a0.75 0.75 0 0 0 0 1.5Z" fill="#000000" stroke-width="1"></path>
    <path d="M10.25 17.75h8.5a0.75 0.75 0 0 0 0 -1.5h-8.5a0.75 0.75 0 0 0 0 1.5Z" fill="#000000" stroke-width="1"></path>
    <path d="M5.75 17.75h1.5a0.75 0.75 0 0 0 0 -1.5h-1.5a0.75 0.75 0 0 0 0 1.5Z" fill="#000000" stroke-width="1"></path>
  </g>
</svg>