<svg xmlns="http://www.w3.org/2000/svg" viewBox="0 0 24 24" id="App-Window-Clock--Streamline-Ultimate">
  <desc>
    App Window Clock Streamline Icon: https://streamlinehq.com
  </desc>
  <g id="App-Window-Clock--Streamline-Ultimate.svg">
    <g>
      <path d="M17.25 24A6.75 6.75 0 1 1 24 17.25 6.76 6.76 0 0 1 17.25 24Zm0 -11.5A4.75 4.75 0 1 0 22 17.25a4.75 4.75 0 0 0 -4.75 -4.75Z" fill="#000000" stroke-width="1"></path>
      <path d="M19.25 18.25h-2a1 1 0 0 1 -1 -1v-2.5a1 1 0 0 1 2 0V16a0.25 0.25 0 0 0 0.25 0.25h0.75a1 1 0 0 1 0 2Z" fill="#000000" stroke-width="1"></path>
    </g>
    <path d="M9.25 19.22a1 1 0 0 0 -0.95 -0.72H3a1 1 0 0 1 -1 -1V5.25A0.25 0.25 0 0 1 2.25 5h19.5a0.25 0.25 0 0 1 0.25 0.25V10a1 1 0 0 0 0.39 0.78 1 1 0 0 0 1.61 -0.73V3a3 3 0 0 0 -3 -3H3a3 3 0 0 0 -3 3v14.5a3 3 0 0 0 3 3h5.3a1 1 0 0 0 0.95 -1.25ZM9.65 2a1 1 0 0 1 1.7 0 0.91 0.91 0 0 1 0 1 1 1 0 0 1 -1.7 0 0.91 0.91 0 0 1 0 -1Zm-3.5 0a1 1 0 0 1 1.7 0 0.91 0.91 0 0 1 0 1 1 1 0 0 1 -1.7 0 0.91 0.91 0 0 1 0 -1Zm-3.56 0.09A1 1 0 0 1 4.35 2a0.91 0.91 0 0 1 0 1 1 1 0 0 1 -1.7 0 1 1 0 0 1 -0.15 -0.5 1.12 1.12 0 0 1 0.09 -0.41Z" fill="#000000" stroke-width="1"></path>
  </g>
</svg>