<svg xmlns="http://www.w3.org/2000/svg" viewBox="0 0 24 24" id="Coding-Apps-Website-Smartphone-Protection--Streamline-Ultimate">
  <desc>
    Coding Apps Website Smartphone Protection Streamline Icon: https://streamlinehq.com
  </desc>
  <g id="Coding-Apps-Website-Smartphone-Protection--Streamline-Ultimate.svg">
    <path d="M15.66 14.06a10.25 10.25 0 0 1 -1.66 -0.82V19a0.5 0.5 0 0 1 -0.5 0.5h-11A0.5 0.5 0 0 1 2 19V3.5a0.5 0.5 0 0 1 0.5 -0.5h7v-0.54A3 3 0 0 1 10.75 0H3a3 3 0 0 0 -3 3v18a3 3 0 0 0 3 3h10a3 3 0 0 0 3 -3v-6.81a2.54 2.54 0 0 0 -0.34 -0.13Z" fill="#000000" stroke-width="1"></path>
    <path d="M23.07 1a16.45 16.45 0 0 0 -5.59 -1 16 16 0 0 0 -5.55 1A1.54 1.54 0 0 0 11 2.46v3.39a7.7 7.7 0 0 0 5.19 6.8 3.54 3.54 0 0 0 1.29 0.35 3.49 3.49 0 0 0 1.29 -0.35c3.08 -1.17 5.23 -4 5.23 -6.8V2.46A1.54 1.54 0 0 0 23.07 1ZM21 4l-2.82 3.74a1.49 1.49 0 0 1 -2.24 0.16l-1.47 -1.47a0.75 0.75 0 0 1 1.06 -1.06L17 6.84l2.82 -3.79A0.75 0.75 0 1 1 21 4Z" fill="#000000" stroke-width="1"></path>
  </g>
</svg>