<svg xmlns="http://www.w3.org/2000/svg" viewBox="0 0 24 24" id="Coding-Apps-Website-Big-Data-Database-Globality-Velocity--Streamline-Ultimate">
  <desc>
    Coding Apps Website Big Data Database Globality Velocity Streamline Icon: https://streamlinehq.com
  </desc>
  <g id="Coding-Apps-Website-Big-Data-Database-Globality-Velocity--Streamline-Ultimate.svg">
    <path d="M14.75 11.75A7.38 7.38 0 0 0 9 4.56l-0.08 0a7.12 7.12 0 0 0 -1.54 -0.16 7.37 7.37 0 0 0 -1.06 14.65 8.45 8.45 0 0 0 1 0.07 8.09 8.09 0 0 0 1 -0.07h0.08a7.39 7.39 0 0 0 6.35 -7.3Zm-7.37 5.38h-0.16a19.41 19.41 0 0 1 -0.92 -4.63h2.15a19.7 19.7 0 0 1 -0.91 4.62Zm2.41 -0.58a21.39 21.39 0 0 0 0.66 -4.05h2.25a5.41 5.41 0 0 1 -2.91 4.05Zm2.81 -6.05h-2.11a20.79 20.79 0 0 0 -0.34 -3.35 5.38 5.38 0 0 1 2.45 3.35ZM8 6.41a19.43 19.43 0 0 1 0.54 4.09H6.25a20.31 20.31 0 0 1 0.55 -4.09 5.53 5.53 0 0 1 1.2 0Zm-3.4 0.74a22.26 22.26 0 0 0 -0.35 3.35h-2.1A5.38 5.38 0 0 1 4.6 7.15ZM2.05 12.5h2.24A22.38 22.38 0 0 0 5 16.55a5.37 5.37 0 0 1 -2.95 -4.05Z" fill="#000000" stroke-width="1"></path>
    <path d="M12.75 0.25h-3a1 1 0 0 0 -1 1v1.5a1 1 0 0 0 2 0v-0.5h2a1 1 0 0 0 0 -2Z" fill="#000000" stroke-width="1"></path>
    <path d="M12.75 21.25h-2v-0.5a1 1 0 0 0 -2 0v1.5a1 1 0 0 0 1 1h3a1 1 0 0 0 0 -2Z" fill="#000000" stroke-width="1"></path>
    <path d="M24 4.75a0.25 0.25 0 0 0 -0.38 -0.21 6.69 6.69 0 0 1 -3.5 0.9 6.66 6.66 0 0 1 -3.5 -0.9 0.27 0.27 0 0 0 -0.26 0 0.26 0.26 0 0 0 -0.13 0.22V8c0 0.94 1.6 2 3.89 2S24 9 24 8Z" fill="#000000" stroke-width="1"></path>
    <path d="M16.23 2c0 0.94 1.6 2 3.89 2S24 2.94 24 2s-1.59 -2 -3.88 -2 -3.89 1.06 -3.89 2Z" fill="#000000" stroke-width="1"></path>
    <path d="M24 18.73a0.26 0.26 0 0 0 -0.13 -0.22 0.25 0.25 0 0 0 -0.25 0 6.6 6.6 0 0 1 -3.5 0.9 6.57 6.57 0 0 1 -3.5 -0.9 0.27 0.27 0 0 0 -0.26 0 0.26 0.26 0 0 0 -0.13 0.22V22c0 0.94 1.6 2 3.89 2S24 23 24 22Z" fill="#000000" stroke-width="1"></path>
    <path d="M16.23 16c0 0.94 1.6 2 3.89 2S24 17 24 16s-1.59 -2 -3.88 -2 -3.89 1.05 -3.89 2Z" fill="#000000" stroke-width="1"></path>
  </g>
</svg>