<svg xmlns="http://www.w3.org/2000/svg" viewBox="0 0 24 24" id="Coding-Apps-Website-Apps-Add-Widget--Streamline-Ultimate">
  <desc>
    Coding Apps Website Apps Add Widget Streamline Icon: https://streamlinehq.com
  </desc>
  <g id="Coding-Apps-Website-Apps-Add-Widget--Streamline-Ultimate.svg">
    <path d="M2 0h6.73s2 0 2 2v6.73s0 2 -2 2H2s-2 0 -2 -2V2s0 -2 2 -2" fill="#000000" stroke-width="1"></path>
    <path d="M15.27 0H22s2 0 2 2v6.73s0 2 -2 2h-6.73s-2 0 -2 -2V2s0 -2 2 -2" fill="#000000" stroke-width="1"></path>
    <path d="M2 13.27h6.73s2 0 2 2V22s0 2 -2 2H2s-2 0 -2 -2v-6.73s0 -2 2 -2" fill="#000000" stroke-width="1"></path>
    <path d="M22.5 17.5H20V15a1 1 0 0 0 -2 0v2.5h-2.5a1 1 0 0 0 0 2H18V22a1 1 0 0 0 2 0v-2.5h2.5a1 1 0 0 0 0 -2Z" fill="#000000" stroke-width="1"></path>
  </g>
</svg>