<svg xmlns="http://www.w3.org/2000/svg" fill="none" viewBox="0 0 24 24" id="Curly-Brackets--Streamline-Ultimate">
  <desc>
    Curly Brackets Streamline Icon: https://streamlinehq.com
  </desc>
  <path fill="#000000" fill-rule="evenodd" d="M7.02866 2.2417c0.55229 0 1 -0.44772 1 -1 0 -0.552285 -0.44771 -1.000001 -1 -1.000001h-0.48375c-1.65659 0 -2.99963 1.342741 -3 2.999341l-0.00149 6.77036c-0.0001 0.4896 -0.35201 0.8969 -0.81664 0.983 -0.06065 -0.0037 -0.12179 -0.0055 -0.18336 -0.0055l-0.59445 0c-0.55228 0 -0.999995 0.4477 -0.999995 1L0.949035 12l-0.00006 0.0112c0 0.5522 0.447715 1 0.999995 1l0.59445 0c0.06157 0 0.12271 -0.0019 0.18336 -0.0055 0.46463 0.0861 0.81654 0.4934 0.81664 0.983l0.00149 6.7703c0.00037 1.6566 1.34341 2.9993 3 2.9993h0.48375c0.55229 0 1 -0.4477 1 -1 0 -0.5522 -0.44771 -1 -1 -1h-0.48375c-0.5522 0 -0.99988 -0.4475 -1 -0.9997l-0.00149 -6.7704c-0.00016 -0.7627 -0.28497 -1.4589 -0.75397 -1.9882 0.469 -0.5292 0.75381 -1.2254 0.75397 -1.9882l0.00149 -6.77032c0.00012 -0.5522 0.4478 -0.99978 1 -0.99978l0.48375 0Zm9.94634 0c-0.5522 0 -1 -0.44772 -1 -1 0 -0.552285 0.4478 -1.000001 1 -1.000001h0.4838c1.6566 0 2.9996 1.342741 3 2.999341l0.0015 6.77036c0.0001 0.4896 0.352 0.8969 0.8166 0.983 0.0607 -0.0037 0.1218 -0.0055 0.1834 -0.0055l0.5944 0c0.5523 0 1 0.4477 1 1l0 0.0111 0 0.0112c0 0.5522 -0.4477 1 -1 1l-0.5944 0c-0.0616 0 -0.1227 -0.0019 -0.1834 -0.0055 -0.4646 0.0861 -0.8165 0.4934 -0.8166 0.983l-0.0015 6.7703c-0.0004 1.6566 -1.3434 2.9993 -3 2.9993h-0.4838c-0.5522 0 -1 -0.4477 -1 -1 0 -0.5522 0.4478 -1 1 -1h0.4838c0.5522 0 0.9999 -0.4475 1 -0.9997l0.0015 -6.7704c0.0001 -0.7627 0.285 -1.4589 0.7539 -1.9882 -0.4689 -0.5292 -0.7538 -1.2254 -0.7539 -1.9882l-0.0015 -6.77032c-0.0001 -0.5522 -0.4478 -0.99978 -1 -0.99978l-0.4838 0Z" clip-rule="evenodd" stroke-width="1"></path>
</svg>