<svg xmlns="http://www.w3.org/2000/svg" fill="none" viewBox="0 0 24 24" id="Data-Lake-1--Streamline-Ultimate">
  <desc>
    Data Lake 1 Streamline Icon: https://streamlinehq.com
  </desc>
  <path fill="#000000" fill-rule="evenodd" d="M12 4.058c3.294 0 5.964 -0.909 5.964 -2.03C17.964 0.909 15.294 0 12 0 8.706 0 6.036 0.908 6.036 2.029c0 1.12 2.67 2.029 5.964 2.029Zm5.964 3.07c0 1.119 -2.674 2.03 -5.964 2.03 -3.29 0 -5.964 -0.911 -5.964 -2.03v-2.42a0.36 0.36 0 0 1 0.15 -0.286 0.33 0.33 0 0 1 0.327 0c1.742 0.725 3.61 1.07 5.487 1.014a13.26 13.26 0 0 0 5.487 -1.014 0.33 0.33 0 0 1 0.327 0 0.348 0.348 0 0 1 0.15 0.286v2.42Zm0 5.1c0 1.119 -2.674 2.029 -5.964 2.029 -3.29 0 -5.964 -0.91 -5.964 -2.029v-2.42a0.36 0.36 0 0 1 0.15 -0.286 0.366 0.366 0 0 1 0.327 0c1.74 0.73 3.61 1.076 5.487 1.014a13.048 13.048 0 0 0 5.487 -1.014 0.366 0.366 0 0 1 0.327 0 0.348 0.348 0 0 1 0.15 0.286v2.42Zm-12.5 4.5a0.5 0.5 0 0 0 -0.709 0c-1.364 1.37 -2.693 1.378 -4.205 1.378a0.5 0.5 0 0 0 -0.5 0.5v2.014c0.727 0 1.625 -0.005 2.512 -0.17 0.907 -0.17 1.722 -0.492 2.3 -1.073a0.75 0.75 0 0 1 1.064 0c1.238 1.244 2.44 1.243 2.76 1.243l0.011 0 0.01 0c0.321 0 1.523 0 2.761 -1.243a0.75 0.75 0 0 1 1.063 0c1.239 1.244 2.44 1.243 2.761 1.243h0.021c0.321 0 1.523 0 2.761 -1.243a0.75 0.75 0 0 1 1.063 0c0.579 0.581 1.394 0.904 2.301 1.073 0.887 0.165 1.785 0.17 2.512 0.17v-2.014a0.5 0.5 0 0 0 -0.5 -0.5c-1.512 0 -2.841 -0.008 -4.206 -1.379a0.5 0.5 0 0 0 -0.708 0c-1.374 1.38 -2.723 1.38 -3.084 1.38h-0.014c-0.36 0 -1.71 0 -3.084 -1.38a0.5 0.5 0 0 0 -0.708 0c-1.374 1.38 -2.723 1.38 -3.084 1.38h-0.014c-0.36 0 -1.71 0 -3.084 -1.38ZM0.05 23.391V22.12c0.72 0 1.748 -0.003 2.786 -0.196 0.851 -0.158 1.762 -0.453 2.543 -1.021 1.485 1.205 2.894 1.217 3.318 1.217 0.423 0 1.824 -0.012 3.303 -1.205 1.48 1.193 2.88 1.205 3.303 1.205 0.424 0 1.833 -0.012 3.318 -1.217 0.781 0.568 1.692 0.863 2.543 1.021 1.038 0.194 2.065 0.196 2.786 0.196v1.272a0.5 0.5 0 0 1 -0.5 0.5H0.55a0.5 0.5 0 0 1 -0.5 -0.5Z" clip-rule="evenodd" stroke-width="1"></path>
</svg>