<svg xmlns="http://www.w3.org/2000/svg" viewBox="0 0 24 24" id="Java--Streamline-Ultimate">
  <desc>
    Java Streamline Icon: https://streamlinehq.com
  </desc>
  <g id="Java--Streamline-Ultimate.svg">
    <path d="M19 9.63a0.88 0.88 0 0 0 -0.88 0.87v0.63a0.26 0.26 0 0 0 0.26 0.25h1.24a0.26 0.26 0 0 0 0.26 -0.25v-0.63a0.88 0.88 0 0 0 -0.88 -0.87Z" fill="#000000" stroke-width="1"></path>
    <path d="M9 9.63a0.88 0.88 0 0 0 -0.88 0.87v0.63a0.26 0.26 0 0 0 0.26 0.25h1.24a0.26 0.26 0 0 0 0.26 -0.25v-0.63A0.88 0.88 0 0 0 9 9.63Z" fill="#000000" stroke-width="1"></path>
    <path d="M22.5 4.5h-21A1.5 1.5 0 0 0 0 6v12a1.5 1.5 0 0 0 1.5 1.5h21A1.5 1.5 0 0 0 24 18V6a1.5 1.5 0 0 0 -1.5 -1.5Zm-16.38 9a2.12 2.12 0 1 1 -4.24 0 0.62 0.62 0 0 1 1.24 0 0.88 0.88 0 0 0 1.76 0V9a0.62 0.62 0 0 1 1.24 0Zm5 1.5a0.62 0.62 0 1 1 -1.24 0v-2.12a0.26 0.26 0 0 0 -0.26 -0.25H8.38a0.26 0.26 0 0 0 -0.26 0.25V15a0.62 0.62 0 1 1 -1.24 0v-4.37a2.2 2.2 0 0 1 1.9 -2.24 2.12 2.12 0 0 1 2.34 2.11Zm5 -4.5a8.17 8.17 0 0 1 -1.62 4.88 0.62 0.62 0 0 1 -1 0 8.17 8.17 0 0 1 -1.62 -4.88V9a0.62 0.62 0 0 1 1.24 0v1.5a6.81 6.81 0 0 0 0.78 3.16c0 0.07 0.17 0.06 0.21 0a6.91 6.91 0 0 0 0.77 -3.15V9a0.62 0.62 0 1 1 1.24 0Zm5 4.5a0.62 0.62 0 1 1 -1.24 0v-2.12a0.26 0.26 0 0 0 -0.26 -0.25h-1.24a0.26 0.26 0 0 0 -0.26 0.25V15a0.62 0.62 0 1 1 -1.24 0v-4.37a2.2 2.2 0 0 1 1.9 -2.24 2.12 2.12 0 0 1 2.34 2.11Z" fill="#000000" stroke-width="1"></path>
  </g>
</svg>