<svg xmlns="http://www.w3.org/2000/svg" viewBox="0 0 24 24" id="Programming-Language-Html-5--Streamline-Ultimate">
  <desc>
    Programming Language Html 5 Streamline Icon: https://streamlinehq.com
  </desc>
  <path d="m4.07 20.73 7.6 2.68a0.94 0.94 0 0 0 0.66 0l7.6 -2.68a1 1 0 0 0 0.66 -0.79l2.74 -18.26a1 1 0 0 0 -1 -1.15H1.66a1 1 0 0 0 -1 1.15l2.75 18.26a1 1 0 0 0 0.66 0.79ZM6 4.06a1.47 1.47 0 0 1 1.14 -0.53H17.5a1 1 0 0 1 0 2H8a0.25 0.25 0 0 0 -0.2 0.09 0.28 0.28 0 0 0 0 0.2l0.55 3.29a0.5 0.5 0 0 0 0.49 0.42h7.15a1.5 1.5 0 0 1 1.49 1.71l-0.87 6.11a1.51 1.51 0 0 1 -1.08 1.23l-3.05 0.87a1.43 1.43 0 0 1 -0.82 0l-3.06 -0.87a1.5 1.5 0 0 1 -1.07 -1.2L7 14.69a1 1 0 1 1 2 -0.32l0.34 2.06a0.49 0.49 0 0 0 0.36 0.4l2.17 0.62a0.45 0.45 0 0 0 0.28 0l2.15 -0.61a0.52 0.52 0 0 0 0.36 -0.41l0.66 -4.61a0.23 0.23 0 0 0 -0.06 -0.2 0.25 0.25 0 0 0 -0.19 -0.09H7.92a1.5 1.5 0 0 1 -1.48 -1.25l-0.83 -5A1.49 1.49 0 0 1 6 4.06Z" fill="#000000" stroke-width="1"></path>
</svg>