<svg xmlns="http://www.w3.org/2000/svg" fill="none" viewBox="0 0 24 24" id="Chat-Two-Bubbles-Oval--Streamline-Sharp">
  <desc>
    Chat Two Bubbles Oval Streamline Icon: https://streamlinehq.com
  </desc>
  <g id="chat-two-bubbles-oval--messages-message-bubble-chat-oval-conversation">
    <path id="Union" fill="#000000" fill-rule="evenodd" d="M1.00007 11c0 -5.52285 4.47716 -10 10.00003 -10 4.4981 0 8.3026 2.96991 9.5595 7.0558C19.1178 7.07394 17.3759 6.5 15.5 6.5c-4.9706 0 -9 4.0294 -9 9 0 2.0712 0.69965 3.979 1.8755 5.4999l-8.179699 -0.0002 2.640079 -4.2239C1.67999 15.1446 1.00007 13.1506 1.00007 11ZM8 15.5C8 11.3579 11.3579 8 15.5 8s7.5 3.3579 7.5 7.5c0 1.5461 -0.4688 2.9847 -1.2714 4.179l2.0757 3.3208L15.5 23C11.3579 23 8 19.6421 8 15.5Z" clip-rule="evenodd" stroke-width="1"></path>
  </g>
</svg>