<svg xmlns="http://www.w3.org/2000/svg" fill="none" viewBox="0 0 24 24" id="Chat-Bubble-Disable-Oval--Streamline-Sharp">
  <desc>
    Chat Bubble Disable Oval Streamline Icon: https://streamlinehq.com
  </desc>
  <g id="chat-bubble-disable-oval--chat-bubble-disable-oval-deny-cross">
    <path id="Union" fill="#000000" fill-rule="evenodd" d="m0.293 1.707 22 22 1.414 -1.414 -3.162 -3.162A10.71 10.71 0 0 0 23.25 12c0 -5.938 -4.813 -10.75 -10.75 -10.75a10.71 10.71 0 0 0 -7.13 2.704L1.706 0.293 0.293 1.707Zm2.86 4.98 14.66 14.66A10.7 10.7 0 0 1 12.5 22.75a10.72 10.72 0 0 1 -4.146 -0.829l-6.91 0.988 1.69 -5.63A10.704 10.704 0 0 1 1.75 12a10.7 10.7 0 0 1 1.402 -5.313Z" clip-rule="evenodd" stroke-width="1"></path>
  </g>
</svg>