<svg xmlns="http://www.w3.org/2000/svg" fill="none" viewBox="0 0 48 48" id="Battery-Medium--Streamline-Kameleon">
  <desc>
    Battery Medium Streamline Icon: https://streamlinehq.com
  </desc>
  <path fill="#deeeff" d="M23.9999 47.9993c13.2548 0 23.9998 -10.7451 23.9998 -23.9999S37.2547 -0.000488281 23.9999 -0.000488281C10.7451 -0.000488281 0 10.7446 0 23.9994c0 13.2548 10.7451 23.9999 23.9999 23.9999Z" stroke-width="1"></path>
  <path fill="#2e3ecd" d="M30.9811 13.5263h-3.4908v-1.7455c0 -0.9639 -0.7816 -1.7454 -1.7455 -1.7454h-3.4909c-0.9639 0 -1.7454 0.7815 -1.7454 1.7454v1.7455h-3.4909c-1.4461 0 -2.6182 1.1725 -2.6182 2.6182v19.1999c0 1.4456 1.1721 2.6181 2.6182 2.6181h13.9635c1.4461 0 2.6182 -1.1725 2.6182 -2.6181V16.1445c0 -1.4457 -1.1721 -2.6182 -2.6182 -2.6182Z" stroke-width="1"></path>
  <path fill="#6bafff" d="M31.8545 35.3443c0 0.4821 -0.3905 0.8727 -0.8727 0.8727H17.0182c-0.4821 0 -0.8727 -0.3906 -0.8727 -0.8727v-6.9818c0 -0.4822 0.3906 -0.8728 0.8727 -0.8728h13.9636c0.4822 0 0.8727 0.3906 0.8727 0.8728v6.9818Z" stroke-width="1"></path>
</svg>