<svg xmlns="http://www.w3.org/2000/svg" fill="none" viewBox="0 0 14 14"><g id="wine--drink-cook-glass-cooking-wine-nutrition-food"><path id="Union" fill="#3e3e3e" fill-rule="evenodd" d="M3.897 1.528a.18.18 0 0 0-.18.158 37.45 37.45 0 0 0-.126 1.883h6.818a37.574 37.574 0 0 0-.125-1.883.181.181 0 0 0-.18-.158H3.896Zm.006-1.5a1.68 1.68 0 0 0-1.678 1.496v.008A40.367 40.367 0 0 0 2.061 4.5c0 1.428.555 2.576 1.494 3.353.74.613 1.681.964 2.694 1.078v3.475H5a.75.75 0 0 0 0 1.5h4a.75.75 0 0 0 0-1.5H7.75V8.931c1.013-.114 1.953-.464 2.694-1.078.94-.777 1.493-1.925 1.493-3.353 0-.443-.056-1.91-.161-2.968l-.001-.008A1.68 1.68 0 0 0 10.097.028h.002v.75l-.005-.75h.003-6.194Z" clip-rule="evenodd"></path></g></svg>