<svg xmlns="http://www.w3.org/2000/svg" fill="none" viewBox="0 0 24 24" id="Office-Building-2--Streamline-Sharp">
  <desc>
    Office Building 2 Streamline Icon: https://streamlinehq.com
  </desc>
  <g id="office-building-2--office-building-work">
    <path id="Vector 2226" fill="#ff7972" d="M3 3.5v19.25h6.25V18h5.5v4.75H21V3.5H3Z" stroke-width="1"></path>
    <path id="Union" fill="#0c098c" fill-rule="evenodd" d="M13.25 2.25h9V24H13.5v-4.75h-3V24H1.75V2.25h9V0h2.5v2.25Zm-9 2.5V21.5H8v-4.75h8v4.75h3.75V4.75H4.25Zm4.5 2h-3v3h3v-3Zm0 4.75h-3v3h3v-3Zm4.75 0h-3v3h3v-3Zm1.75 0h3v3h-3v-3ZM10.5 6.75h3v3h-3v-3Zm7.75 0h-3v3h3v-3Z" clip-rule="evenodd" stroke-width="1"></path>
  </g>
</svg>