<svg xmlns="http://www.w3.org/2000/svg" viewBox="0 0 14 14">
  <path d="M14,3.25A1.76,1.76,0,0,0,12.25,1.5H11a.25.25,0,0,1-.25-.25V.75a.75.75,0,0,0-1.5,0v.5A.25.25,0,0,1,9,1.5H5a.25.25,0,0,1-.25-.25V.75a.75.75,0,0,0-1.5,0v.5A.25.25,0,0,1,3,1.5H1.75A1.76,1.76,0,0,0,0,3.25v9A1.76,1.76,0,0,0,1.75,14h10.5A1.76,1.76,0,0,0,14,12.25Zm-3.85,6a.63.63,0,0,1,.08.88.62.62,0,0,1-.48.23h-.5a.25.25,0,0,0-.25.24V12a.5.5,0,0,1-.5.5H7.75a.25.25,0,0,1-.25-.25v-.89a.5.5,0,0,0-1,0v.89a.25.25,0,0,1-.25.25H5.5A.5.5,0,0,1,5,12V10.62a.25.25,0,0,0-.25-.25h-.5a.62.62,0,0,1-.48-.23.63.63,0,0,1,.08-.88L6.6,7a.63.63,0,0,1,.8,0Zm2.35-4a.25.25,0,0,1-.25.25H1.75a.25.25,0,0,1-.25-.25v-2A.25.25,0,0,1,1.75,3H3a.25.25,0,0,1,.25.25v.5a.75.75,0,0,0,1.5,0v-.5A.25.25,0,0,1,5,3H9a.25.25,0,0,1,.25.25v.5a.75.75,0,0,0,1.5,0v-.5A.25.25,0,0,1,11,3h1.25a.25.25,0,0,1,.25.25Z" style="fill: #000001"/>
</svg>
