<svg xmlns="http://www.w3.org/2000/svg" viewBox="0 0 14 14">
  <g>
    <path d="M3.75,3.5a.76.76,0,0,0,.75-.75v-2A.75.75,0,0,0,3,.75v2A.76.76,0,0,0,3.75,3.5Z" style="fill: #000001"/>
    <path d="M10.25,3.5A.76.76,0,0,0,11,2.75v-2a.75.75,0,0,0-1.5,0v2A.76.76,0,0,0,10.25,3.5Z" style="fill: #000001"/>
    <path d="M6.33,10.81a.27.27,0,0,0-.06.24.26.26,0,0,0,.17.18,1.68,1.68,0,0,0,.5.07,1.81,1.81,0,0,0,1.8-1.8A2.08,2.08,0,0,0,8.67,9a.26.26,0,0,0-.42-.11Z" style="fill: #000001"/>
    <path d="M6.94,7.7a1.81,1.81,0,0,0-1.8,1.8,1.68,1.68,0,0,0,.07.5.24.24,0,0,0,.18.17.27.27,0,0,0,.24-.06L7.54,8.19A.25.25,0,0,0,7.61,8a.24.24,0,0,0-.17-.18A1.68,1.68,0,0,0,6.94,7.7Z" style="fill: #000001"/>
    <path d="M12.54,1.52a.25.25,0,0,0-.2.06.25.25,0,0,0-.09.19v1a2,2,0,0,1-4,0v-1A.25.25,0,0,0,8,1.5H6a.25.25,0,0,0-.25.25v1a2,2,0,0,1-4,0v-1a.25.25,0,0,0-.09-.19.25.25,0,0,0-.2-.06A1.75,1.75,0,0,0,0,3.25v9A1.76,1.76,0,0,0,1.75,14h10.5A1.76,1.76,0,0,0,14,12.25v-9A1.75,1.75,0,0,0,12.54,1.52Zm-5.6,11a3,3,0,1,1,3-3A3,3,0,0,1,6.94,12.5Z" style="fill: #000001"/>
  </g>
</svg>
