<svg xmlns="http://www.w3.org/2000/svg" viewBox="0 0 14 14">
  <g>
    <path d="M3.75,3.5a.76.76,0,0,0,.75-.75v-2A.75.75,0,0,0,3,.75v2A.76.76,0,0,0,3.75,3.5Z" style="fill: #000001"/>
    <path d="M10.25,3.5A.76.76,0,0,0,11,2.75v-2a.75.75,0,0,0-1.5,0v2A.76.76,0,0,0,10.25,3.5Z" style="fill: #000001"/>
    <path d="M7,6.94a.9.9,0,0,0-.88.91v.21a.26.26,0,0,0,.26.25H7.62a.26.26,0,0,0,.26-.25V7.85A.9.9,0,0,0,7,6.94Z" style="fill: #000001"/>
    <path d="M12.54,1.52a.25.25,0,0,0-.2.06.25.25,0,0,0-.09.19v1a2,2,0,0,1-4,0v-1A.25.25,0,0,0,8,1.5H6a.25.25,0,0,0-.25.25v1a2,2,0,0,1-4,0v-1a.25.25,0,0,0-.09-.19.25.25,0,0,0-.2-.06A1.75,1.75,0,0,0,0,3.25v9A1.76,1.76,0,0,0,1.75,14h10.5A1.76,1.76,0,0,0,14,12.25v-9A1.75,1.75,0,0,0,12.54,1.52Zm-3,9.12A1.36,1.36,0,0,1,8.13,12H5.87a1.36,1.36,0,0,1-1.36-1.36v-.9A1.37,1.37,0,0,1,5,8.7a.26.26,0,0,0,.09-.19V8A1.92,1.92,0,1,1,8.92,8v.55A.26.26,0,0,0,9,8.7a1.37,1.37,0,0,1,.48,1Z" style="fill: #000001"/>
  </g>
</svg>
