<svg xmlns="http://www.w3.org/2000/svg" fill="none" viewBox="0 0 48 48" id="Ai-Science-Robot--Streamline-Plump-Neon">
  <desc>
    Ai Science Robot Streamline Icon: https://streamlinehq.com
  </desc>
  <g id="ai-science-robot--atom-scientific-experiment-artificial-intelligence-ai">
    <path id="Vector" stroke="#000cfe" stroke-linecap="round" stroke-linejoin="round" d="M45.347 17.3299c-0.128 1.7203 -1.3973 3.1174 -3.1101 3.323 -1.4938 0.1793 -3.4795 0.3446 -5.7263 0.3446s-4.2325 -0.1653 -5.7262 -0.3446c-1.7128 -0.2056 -2.9821 -1.6027 -3.1101 -3.323 -0.0911 -1.2242 -0.1713 -2.6424 -0.1713 -3.8388h0c0 -4.2016 3.3777 -7.4573 7.5791 -7.4994 0.4527 -0.0045 0.9287 -0.007 1.4285 -0.007 0.4999 0 0.9759 0.0025 1.4286 0.007 4.2014 0.0421 7.5791 3.2978 7.5791 7.4994h0c0 1.1964 -0.0803 2.6146 -0.1713 3.8388Z" stroke-width="1"></path>
    <path id="Vector_2" stroke="#000cfe" stroke-linecap="round" stroke-linejoin="round" d="M36.5106 1.9813v4.0034" stroke-width="1"></path>
    <path id="Vector_3" stroke="#000cfe" stroke-linecap="round" stroke-linejoin="round" d="M33.5081 12.9906v1.0009" stroke-width="1"></path>
    <path id="Vector_4" stroke="#000cfe" stroke-linecap="round" stroke-linejoin="round" d="M39.5132 12.9906v1.0009" stroke-width="1"></path>
    <path id="Vector_5" stroke="#000cfe" stroke-linecap="round" stroke-linejoin="round" d="M16.4936 27.0026c-0.0054 3.8522 4.1614 6.2658 7.5003 4.3444 1.5539 -0.8943 2.5108 -2.5515 2.5082 -4.3444 0.0055 -3.8523 -4.1613 -6.2659 -7.5002 -4.3445 -1.554 0.8943 -2.5108 2.5516 -2.5083 4.3445" stroke-width="1"></path>
    <path id="Vector_6" stroke="#c71dff" stroke-linecap="round" stroke-linejoin="round" d="M5.9078 27.0026c-3.9222 -6.4797 -4.7944 -12.6828 -0.9435 -16.5336 3.8508 -3.8509 10.054 -2.9787 16.5336 0.9435 -2.8934 1.7514 -5.8418 4.1109 -8.6605 6.9296 -2.8187 2.8187 -5.1782 5.7671 -6.9296 8.6605Zm0 0c-3.9222 6.4796 -4.7944 12.6828 -0.9435 16.5335 3.8508 3.8509 10.054 2.9788 16.5336 -0.9435m-15.5901 -15.59c1.7514 2.8933 4.1109 5.8417 6.9296 8.6604 2.8187 2.8187 5.7671 5.1782 8.6605 6.9296m0 0c6.4796 3.9223 12.6828 4.7944 16.5335 0.9435 3.8509 -3.8507 2.9788 -10.0539 -0.9435 -16.5335 -1.7514 2.8933 -4.1109 5.8417 -6.9296 8.6604s-5.7671 5.1782 -8.6604 6.9296Z" stroke-width="1"></path>
  </g>
</svg>