<svg xmlns="http://www.w3.org/2000/svg" fill="none" viewBox="0 0 14 14"><g id="coffee-takeaway-cup--cup-coffee-hot-takeaway-drink-caffeine"><path id="Union" fill="#37d7ff" fill-rule="evenodd" d="M3.5 0a.5.5 0 0 0-.474.342l-1 3A.5.5 0 0 0 2 3.5V7a.5.5 0 0 0 .006.076l1 6.5A.5.5 0 0 0 3.5 14h7a.5.5 0 0 0 .494-.424l1-6.5A.496.496 0 0 0 12 7V3.5a.5.5 0 0 0-.026-.158l-1-3A.5.5 0 0 0 10.5 0h-7Z" clip-rule="evenodd"></path><path id="Vector" fill="#3e3e3e" d="M11.885 3.163h-9.77c-.6 0-1.085.422-1.085.942v2.382c0 .52.486.94 1.085.94h9.77c.6 0 1.085-.42 1.085-.94V4.105c0-.52-.486-.942-1.085-.942Z"></path></g></svg>