<svg xmlns="http://www.w3.org/2000/svg" fill="none" viewBox="0 0 14 14"><g id="donut--dessert-donut"><path id="Subtract" fill="#37d7ff" fill-rule="evenodd" d="M7 13.5a6.5 6.5 0 1 0 0-13 6.5 6.5 0 0 0 0 13ZM7 9a2 2 0 1 0 0-4 2 2 0 0 0 0 4Z" clip-rule="evenodd"></path><path id="Union" fill="#3e3e3e" fill-rule="evenodd" d="M8.442 2.058a.625.625 0 1 0-.884.884l1 1a.625.625 0 1 0 .884-.884l-1-1Zm3.338 3.883c.308.154.433.53.279.839l-.5 1a.625.625 0 1 1-1.118-.56l.5-1a.625.625 0 0 1 .838-.279ZM2.558 8.558a.625.625 0 0 1 .884 0l1 1a.625.625 0 1 1-.884.884l-1-1a.625.625 0 0 1 0-.884ZM3.5 5.5a1 1 0 1 0 0-2 1 1 0 0 0 0 2Zm6 5.5a1 1 0 1 1-2 0 1 1 0 0 1 2 0Z" clip-rule="evenodd"></path></g></svg>