<svg xmlns="http://www.w3.org/2000/svg" fill="none" viewBox="0 0 14 14"><g id="refrigerator--fridge-cook-appliances-cooking-nutrition-freezer-appliance-food-kitchenware"><path id="Vector (Stroke)" fill="#3e3e3e" fill-rule="evenodd" d="M4 11.493a.75.75 0 0 1 .75.75v1a.75.75 0 0 1-1.5 0v-1a.75.75 0 0 1 .75-.75Z" clip-rule="evenodd"></path><path id="Vector (Stroke)_2" fill="#3e3e3e" fill-rule="evenodd" d="M10 11.493a.75.75 0 0 1 .75.75v1a.75.75 0 0 1-1.5 0v-1a.75.75 0 0 1 .75-.75Z" clip-rule="evenodd"></path><path id="Subtract" fill="#37d7ff" fill-rule="evenodd" d="M3.5 0C2.682 0 2 .652 2 1.479v9.786c0 .827.682 1.478 1.5 1.478h7c.818 0 1.5-.651 1.5-1.478V1.479A1.49 1.49 0 0 0 10.5 0h-7Z" clip-rule="evenodd"></path><path id="Vector (Stroke)_3" fill="#3e3e3e" fill-rule="evenodd" d="M4.416 1.984c.345 0 .625.28.625.625v.5a.625.625 0 1 1-1.25 0v-.5c0-.345.28-.625.625-.625Z" clip-rule="evenodd"></path><path id="Intersect" fill="#3e3e3e" fill-rule="evenodd" d="m12 5.376-.029-.001H2v1.25h10v-1.25Z" clip-rule="evenodd"></path></g></svg>