<svg xmlns="http://www.w3.org/2000/svg" fill="none" viewBox="0 0 14 14" id="Flash-3--Streamline-Flex">
  <desc>
    Flash 3 Streamline Icon: https://streamlinehq.com
  </desc>
  <g id="flash-3--flash-power-connect-charge-electricity-lightning">
    <path id="Vector 381" fill="#d7e0ff" d="m4.58829 4.51843 0.76415 -3.08021c0.07567 -0.305 0.29527 -0.546126 0.60613 -0.592165C6.28895 0.797125 6.81442 0.75 7.61297 0.75c0.57134 0 0.96135 0.015925 1.24503 0.041579 0.55302 0.050012 0.86301 0.646141 0.71582 1.181551l-0.52257 1.90089s0.32292 -0.021 0.77054 -0.02707c1.18591 -0.01607 1.78151 1.14177 1.29901 2.2252L9.59442 9.5h2.26008c-0.5 1.5 -3.13627 3.4927 -4.72945 3.75 -1.5 -0.75 -2.1834 -2.8616 -2.27404 -3.75h1.77404L7.4289 7h-0.89945C5.2298 7 4.27536 5.77985 4.58829 4.51843Z" stroke-width="1"></path>
    <path id="Vector 382" stroke="#4147d5" stroke-linecap="round" stroke-linejoin="round" d="m4.58829 4.51843 0.76415 -3.08021c0.07567 -0.305 0.29527 -0.546126 0.60613 -0.592165C6.28895 0.797125 6.81442 0.75 7.61297 0.75c0.57134 0 0.96135 0.015925 1.24503 0.041579 0.55302 0.050012 0.86301 0.646141 0.71582 1.181551l-0.52257 1.90089s0.32292 -0.021 0.77054 -0.02707c1.18591 -0.01607 1.78151 1.14177 1.29901 2.2252L9.59442 9.5h2.26008c-0.5309 1.6834 -3.09307 3.5305 -4.72945 3.75 -1.5 -0.75 -2.1834 -2.8616 -2.27404 -3.75h1.77404L7.4289 7h-0.89945C5.2298 7 4.27536 5.77985 4.58829 4.51843Z" stroke-width="1"></path>
  </g>
</svg>