<svg xmlns="http://www.w3.org/2000/svg" fill="none" viewBox="0 0 14 14" id="Cloud-Data-Transfer--Streamline-Flex">
  <desc>
    Cloud Data Transfer Streamline Icon: https://streamlinehq.com
  </desc>
  <g id="cloud-data-transfer--cloud-data-transfer-internet-server-network">
    <path id="Vector" stroke="#000000" stroke-linecap="round" stroke-linejoin="round" d="M1.80155 8.61179C1.18734 8.0854 0.811569 7.34135 0.756916 6.54333c-0.054653 -0.79802 0.216285 -1.58464 0.753214 -2.18681 0.26585 -0.29817 0.58901 -0.54208 0.95102 -0.7178 0.362 -0.17572 0.75577 -0.27982 1.15881 -0.30635 0.04183 0.00089 0.08304 -0.00996 0.11878 -0.03129 0.03574 -0.02133 0.06451 -0.05223 0.0829 -0.08907 0.27804 -0.79003 0.82393 -1.46273 1.54663 -1.90593 0.72271 -0.44319 1.57855 -0.63009 2.4248 -0.529525 0.84625 0.100564 1.63176 0.482515 2.22553 1.082155 0.5938 0.59964 0.9599 1.38072 1.0374 2.21299 0.0065 0.04383 0.0256 0.08492 0.0551 0.11843 0.0295 0.03351 0.0682 0.05804 0.1115 0.07071 0.6266 0.14473 1.1773 0.50969 1.5479 1.02578 0.3705 0.51609 0.5352 1.14748 0.4628 1.77461 -0.0724 0.62713 -0.3768 1.20647 -0.8557 1.62831 -0.4054 0.35716 -0.92 0.64759 -1.5056 0.87327" stroke-width="1"></path>
    <path id="Vector 7" stroke="#000000" stroke-linecap="round" stroke-linejoin="round" d="M3.47656 3.33496c1.18921 0 2.25276 0.78385 2.58826 1.49997" stroke-width="1"></path>
    <path id="Vector_2" stroke="#000000" stroke-linecap="round" stroke-linejoin="round" d="m5.74264 13.2 0 -5.05815c0 -0.232 -0.159 -0.32104 -0.34613 -0.18389 -0.43275 0.31715 -1.18459 0.94763 -1.74417 1.8501" stroke-width="1"></path>
    <path id="Vector_3" stroke="#000000" stroke-linecap="round" stroke-linejoin="round" d="m7.72559 7.89305 0 5.05815c0 0.232 0.159 0.321 0.34612 0.1838 0.43275 -0.3171 1.1846 -0.9476 1.74417 -1.8501" stroke-width="1"></path>
  </g>
</svg>