<svg xmlns="http://www.w3.org/2000/svg" fill="none" viewBox="0 0 14 14" id="Cloud-Download--Streamline-Flex">
  <desc>
    Cloud Download Streamline Icon: https://streamlinehq.com
  </desc>
  <g id="cloud-download--cloud-down-internet-network-download-server-arrow">
    <path id="Vector" stroke="#000000" stroke-linecap="round" stroke-linejoin="round" d="M10.872 9.56281c0.5856 -0.22568 1.1002 -0.51611 1.5056 -0.87327 0.4789 -0.42184 0.7833 -1.00118 0.8557 -1.62831 0.0724 -0.62713 -0.0923 -1.25852 -0.4628 -1.77461 -0.3706 -0.51609 -0.9213 -0.88105 -1.5479 -1.02578 -0.0433 -0.01267 -0.082 -0.0372 -0.1115 -0.07071s-0.0486 -0.0746 -0.0551 -0.11843c-0.0775 -0.83227 -0.4436 -1.61335 -1.0374 -2.21299C9.42483 1.25907 8.63932 0.877119 7.79307 0.776555 6.94682 0.67599 6.09098 0.86289 5.36827 1.30608c-0.7227 0.4432 -1.26859 1.1159 -1.54663 1.90593 -0.01839 0.03684 -0.04716 0.06774 -0.0829 0.08907 -0.03574 0.02133 -0.07695 0.03218 -0.11878 0.03129 -0.40304 0.02653 -0.79681 0.13063 -1.15881 0.30635 -0.36201 0.17572 -0.68517 0.41963 -0.95102 0.7178 -0.536929 0.60217 -0.807867 1.38879 -0.753214 2.18681 0.054653 0.79802 0.430424 1.54207 1.044634 2.06846 0.32528 0.27878 0.72256 0.52129 1.17162 0.72649" stroke-width="1"></path>
    <path id="Vector 7" stroke="#000000" stroke-linecap="round" stroke-linejoin="round" d="M3.47656 3.33496c1.18921 0 2.25276 0.78385 2.58826 1.49997" stroke-width="1"></path>
    <path id="Vector_2" stroke="#000000" stroke-linecap="round" stroke-linejoin="round" d="M5.02047 11.3753c0.71377 0.8712 1.14899 1.3065 1.98561 1.9856 0.83663 -0.6791 1.27185 -1.1144 1.98562 -1.9856" stroke-width="1"></path>
    <path id="Vector_3" stroke="#000000" stroke-linecap="round" stroke-linejoin="round" d="m6.99996 8.06254 0 5.28796" stroke-width="1"></path>
  </g>
</svg>