<svg xmlns="http://www.w3.org/2000/svg" fill="none" viewBox="0 0 14 14" id="Cloud-Warning--Streamline-Flex">
  <desc>
    Cloud Warning Streamline Icon: https://streamlinehq.com
  </desc>
  <g id="cloud-warning--cloud-network-internet-server-warning-alert">
    <path id="Vector" stroke="#000000" stroke-linecap="round" stroke-linejoin="round" d="M11.223 5.484a0.237 0.237 0 0 1 -0.167 -0.19 3.623 3.623 0 0 0 -1.037 -2.212 3.787 3.787 0 0 0 -4.65 -0.553 3.667 3.667 0 0 0 -1.547 1.906 0.216 0.216 0 0 1 -0.202 0.12 3.13 3.13 0 0 0 -1.159 0.307 3.07 3.07 0 0 0 -0.95 0.718 2.979 2.979 0 0 0 -0.754 2.186c0.055 0.798 0.43 1.543 1.045 2.069 2.309 1.979 8.245 2.13 10.576 0.078a2.541 2.541 0 0 0 0.393 -3.403 2.633 2.633 0 0 0 -1.548 -1.026Z" stroke-width="1"></path>
    <path id="Vector_2" stroke="#000000" stroke-linecap="round" stroke-linejoin="round" d="m7.103 4.656 0 2.024m0 2.24 0 0.125" stroke-width="1"></path>
  </g>
</svg>