<svg xmlns="http://www.w3.org/2000/svg" fill="none" viewBox="0 0 14 14"><g id="airport-security"><path id="Subtract" fill="#3e3e3e" fill-rule="evenodd" d="M.443.44A1.5 1.5 0 0 1 1.503 0h10.994a1.5 1.5 0 0 1 1.5 1.5v2.998A10.065 10.065 0 0 1 7.539 13.9a1.5 1.5 0 0 1-1.078 0A10.065 10.065 0 0 1 .004 4.498V1.499c0-.397.158-.779.44-1.06Zm9.509 3.368a2.308 2.308 0 0 0-1.912.17l-3.1 1.549-.472-.731a.531.531 0 0 0-.669-.263l-.827.281a.531.531 0 0 0-.328.64l.003.011.746 2.296a.804.804 0 0 0 1.018.492l1.791-.583-.399 1.31a.556.556 0 0 0 .715.657l.007-.002 1.19-.437a.548.548 0 0 0 .355-.369l.7-2.05.092-.029 1.94-.57a.813.813 0 0 0 .531-1.031 2.308 2.308 0 0 0-1.381-1.341Z" clip-rule="evenodd"></path></g></svg>