<svg xmlns="http://www.w3.org/2000/svg" fill="none" viewBox="0 0 24 24" id="Camera-Mode-Photo--Streamline-Freehand">
  <desc>
    Camera Mode Photo Streamline Icon: https://streamlinehq.com
  </desc>
  <path fill="#0c6fff" fill-rule="evenodd" d="M7.11596 0.169141C4.39171 0.0162093 1.26307 -0.349265 0.454347 2.53311 0.202673 4.29912 0.227118 6.09353 0.526885 7.85202c0.000333 0.05116 0.010883 0.10172 0.03093 0.14879 0.020046 0.04707 0.04925 0.08969 0.085906 0.12538 0.036656 0.03569 0.080005 0.06376 0.127594 0.08255 0.047589 0.01878 0.098432 0.02792 0.149584 0.02689 0.518411 0 0.383641 -0.35254 0.650621 -4.20953C1.81259 1.25001 3.32378 1.2967 7.1393 0.941586c0.10243 -0.003094 0.19942 -0.046767 0.26966 -0.121385 0.07024 -0.074617 0.10791 -0.174074 0.10481 -0.276505 -0.00309 -0.102432 -0.04672 -0.199461 -0.12134 -0.269704C7.31781 0.20375 7.21839 0.166047 7.11596 0.169141Z" clip-rule="evenodd" stroke-width="1"></path>
  <path fill="#0c6fff" fill-rule="evenodd" d="M0.109205 16.6624c-0.640239 7.5714 1.495625 7.8254 7.441815 6.8845 0.10311 -0.0086 0.19855 -0.0578 0.26539 -0.1368 0.06684 -0.079 0.09956 -0.1813 0.09097 -0.2844 -0.0086 -0.1031 -0.05778 -0.1986 -0.13677 -0.2654 -0.07899 -0.0669 -0.18134 -0.0996 -0.28446 -0.091 -1.60448 0 -4.9249 0.1374 -5.52885 -0.7906 -0.60419 -1.7135 -0.967064 -3.5028 -1.078261 -5.3163 -0.007937 -0.0967 -0.051932 -0.1867 -0.123243 -0.2524 -0.071311 -0.0657 -0.164716 -0.1022 -0.261674 -0.1022 -0.096959 0 -0.190363 0.0365 -0.261674 0.1022 -0.071311 0.0657 -0.115307 0.1557 -0.123243 0.2524Z" clip-rule="evenodd" stroke-width="1"></path>
  <path fill="#0c6fff" fill-rule="evenodd" d="M16.7609 1.07636c3.8388 0.91499 5.8892 -0.25923 6.0266 4.06951 0.0959 2.14882 -0.0726 3.13379 0.5184 3.11047 0.0505 -0.00231 0.1 -0.01466 0.1457 -0.03631 0.0457 -0.02166 0.0867 -0.05219 0.1204 -0.08982 0.0338 -0.03764 0.0598 -0.08161 0.0764 -0.12938 0.0166 -0.04777 0.0235 -0.09836 0.0204 -0.14883 0.0389 -1.70558 1.1508 -4.92494 -0.9306 -6.66162 -1.7367 -1.376381 -4.2794 -0.723159 -5.858 -0.868314 -0.053 -0.016847 -0.1091 -0.022078 -0.1643 -0.015267 -0.0552 0.00681 -0.1083 0.025474 -0.1556 0.0547 -0.0473 0.029225 -0.0878 0.06835 -0.1187 0.11466 -0.0308 0.046309 -0.0512 0.098713 -0.0599 0.153658 -0.0087 0.054946 -0.0054 0.111136 0.0096 0.164694 0.0151 0.053557 0.0415 0.103229 0.0776 0.145629 0.036 0.0424 0.0807 0.07652 0.1311 0.10003 0.0504 0.0235 0.1053 0.03586 0.1609 0.03619Z" clip-rule="evenodd" stroke-width="1"></path>
  <path fill="#0c6fff" fill-rule="evenodd" d="M22.9714 15.5557c-0.5184 6.5967 -0.9098 6.6667 -4.7331 7.1203 -0.7205 0.1063 -1.5552 0.2929 -2.281 0.324 -0.1031 -0.0024 -0.2029 0.0363 -0.2776 0.1075 -0.0746 0.0712 -0.1179 0.1692 -0.1203 0.2723 -0.0024 0.1031 0.0363 0.2029 0.1075 0.2775 0.0712 0.0747 0.1692 0.118 0.2723 0.1204 0.7927 0.0401 1.5869 0.0401 2.3795 0 2.3329 -0.0467 4.5724 -0.3007 5.2489 -2.7943 0.2048 -0.8735 0.6351 -5.801 -0.2022 -5.814 -0.1031 0 -0.2021 0.0405 -0.2758 0.1127 -0.0737 0.0722 -0.1161 0.1704 -0.1182 0.2736Z" clip-rule="evenodd" stroke-width="1"></path>
  <path fill="#020202" fill-rule="evenodd" d="M6.77651 7.68872C3.79045 8.23565 3.72045 14.1481 4.975 16.4577c1.09385 1.9673 3.45782 1.8351 5.9229 1.8999 3.5926 0.1011 7.2578 0.4848 8.6316 -2.6076 0.4347 -1.1072 0.6294 -2.2942 0.5713 -3.4823 -0.0581 -1.1881 -0.368 -2.80942 -0.9083 -3.40995 -0.4126 -0.45861 -0.9679 -0.76458 -1.576 -0.86835 0.0468 -0.72215 -0.161 -1.43784 -0.5872 -2.02268 -0.4262 -0.58484 -1.0439 -1.00185 -1.7456 -1.17852 -1.9338 -0.29957 -3.8995 -0.33359 -5.84252 -0.10109 -0.72331 0.11371 -1.38462 0.47528 -1.87071 1.02284 -0.4861 0.54756 -0.76678 1.24708 -0.79396 1.97877Zm8.24529 -1.99071c-1.7797 -0.18245 -3.5753 -0.14153 -5.34481 0.12182C7.47374 6.33824 8.4484 8.7696 7.4038 8.90438c-2.37174 0.32401 -2.07368 5.07522 -1.31162 6.72642 0.11788 0.2787 0.30292 0.524 0.53854 0.7139 0.23562 0.19 0.5145 0.3187 0.81192 0.3747 2.73296 0.3264 5.48776 0.4312 8.23756 0.3137 0.5886 -0.0083 1.1638 -0.1767 1.6639 -0.4872 0.5001 -0.3106 0.9061 -0.7515 1.1744 -1.2754 0.708 -1.7772 0.784 -3.7438 0.2152 -5.57034 -0.1475 -0.27249 -0.3591 -0.50501 -0.6165 -0.67752 -0.2574 -0.1725 -0.5529 -0.2798 -0.861 -0.31265 -0.7906 -0.1322 0.1166 -2.43912 -2.224 -3.00419l-0.0104 -0.00779Z" clip-rule="evenodd" stroke-width="1"></path>
  <path fill="#020202" fill-rule="evenodd" d="M13.1685 9.56537c-0.2177 -0.48472 -2.154 -0.67395 -3.33602 0.85793 -0.34823 0.4568 -0.55855 1.0036 -0.60625 1.576 -0.0477 0.5723 0.06925 1.1464 0.33706 1.6545s0.67531 0.9291 1.17441 1.2132c0.4992 0.2841 1.0692 0.4197 1.6428 0.3905 0.7321 -0.0319 1.426 -0.3357 1.9461 -0.8519 0.5201 -0.5163 0.829 -1.2079 0.8663 -1.9397 0.1374 -1.9726 -1.5397 -3.21935 -2.0244 -2.90053Zm-0.1452 0.48213c-0.2929 0.1996 -1.3867 -0.3629 -2.2499 1.0368 -1.55523 2.5247 2.8046 4.2069 3.2712 1.2597 0.0727 -0.4407 0.0148 -0.893 -0.1667 -1.3012 -0.1815 -0.4081 -0.4786 -0.7541 -0.8546 -0.9953Z" clip-rule="evenodd" stroke-width="1"></path>
</svg>