<svg xmlns="http://www.w3.org/2000/svg" fill="none" viewBox="0 0 24 24" id="Camera-Settings-Wifi--Streamline-Freehand">
  <desc>
    Camera Settings Wifi Streamline Icon: https://streamlinehq.com
  </desc>
  <path fill="#0c6fff" d="M10.6522 18.2176c0.871 0.7108 2.7632 0.2603 2.5529 -1.2014 -0.0205 -0.3381 -0.1701 -0.6555 -0.4179 -0.8865 -0.2478 -0.2311 -0.5748 -0.3581 -0.9136 -0.3549 -0.303 -0.0557 -0.6159 -0.0115 -0.8916 0.126 -0.2757 0.1375 -0.4993 0.3608 -0.6371 0.6364 -0.1378 0.2756 -0.1823 0.5884 -0.1269 0.8915 0.0554 0.3031 0.2078 0.5799 0.4342 0.7889Zm1.6919 -1.1513c0 0.5306 -0.881 0.4305 -1.0512 0.3103 -0.0637 -0.0553 -0.1132 -0.1251 -0.1446 -0.2034 -0.0313 -0.0784 -0.0435 -0.1631 -0.0356 -0.2471 0 -0.1702 0 -0.3103 0.0901 -0.3804 0.2036 -0.1084 0.4301 -0.1668 0.6608 -0.1702 0.3504 0 0.4905 0.3704 0.4805 0.6908Z" stroke-width="1"></path>
  <path fill="#020202" d="M23.2467 8.51647c0 -0.08496 -0.0337 -0.16645 -0.0938 -0.22653 -0.0601 -0.06008 -0.1416 -0.09383 -0.2266 -0.09383 -0.0849 0 -0.1664 0.03375 -0.2265 0.09383 -0.0601 0.06008 -0.0938 0.14157 -0.0938 0.22653 0.1401 3.35383 1.6118 7.88903 -0.6307 10.62223 -0.5607 0.6808 -13.08508 1.6218 -18.5814 0.7508 -1.90219 -0.2703 -2.39275 -0.5005 -2.542922 -1.5918 0 -0.4505 0.150172 -5.0057 0.260302 -6.5175 0.22025 -3.14359 0.48055 -3.31378 0.06007 -3.37385 -0.03687 -0.00565 -0.07449 -0.00389 -0.11066 0.00518 -0.03618 0.00907 -0.070175 0.02527 -0.10001 0.04765 -0.029836 0.02237 -0.054906 0.05048 -0.073743 0.08266 -0.018837 0.03219 -0.031062 0.06781 -0.035959 0.10478C0.346425 11.9882 0.0621521 15.3593 0 18.7382c0.0608959 0.4135 0.241926 0.7999 0.520598 1.1113C2.91335 22.3424 21.4446 21.2912 22.656 19.7394c2.4729 -3.1236 0.821 -7.7289 0.5907 -11.22293Z" stroke-width="1"></path>
  <path fill="#020202" d="M1.48174 8.4564c1.24143 -0.21024 3.28377 -0.12014 4.25489 -1.15132 0.69079 -0.73084 0.94108 -2.76318 1.62186 -3.00346 1.5618 -0.62071 4.26491 -0.56064 5.94681 -0.46052 0.5527 -0.04174 1.1084 -0.00806 1.6519 0.10011 0.5607 0.39045 0.6307 2.24258 1.5418 2.55293 1.8822 0.63073 4.1648 -0.23026 5.8567 0.6908 0.04 0.0178 0.0831 0.02725 0.1268 0.02775 0.0437 0.00051 0.0871 -0.00794 0.1274 -0.02482 0.0403 -0.01688 0.0768 -0.04184 0.1071 -0.07334 0.0303 -0.03149 0.0539 -0.06886 0.0692 -0.1098 0.3304 -0.58067 -1.3015 -0.94108 -1.9422 -1.00115 -1.3416 -0.1702 -2.7632 0.0901 -4.0046 -0.40046 -0.0501 0 -0.0601 -0.07008 -0.0901 -0.13015 -0.4706 -0.86099 -0.4005 -2.45282 -1.9422 -2.68308 -0.4806 -0.08009 -1.0613 0 -1.4017 -0.06007 -9.23057 -0.56065 -6.78776 2.32267 -8.22942 4.0046 -0.35183 0.34484 -0.79761 0.57817 -1.28147 0.67077 -1.72198 0.46053 -2.82324 0.22025 -2.71312 0.77089 -0.0001 0.03856 0.00776 0.07672 0.02309 0.11211 0.01532 0.03538 0.03778 0.06722 0.06597 0.09353 0.02818 0.02631 0.0615 0.04653 0.09786 0.05937 0.03635 0.01285 0.07497 0.01806 0.11343 0.01531Z" stroke-width="1"></path>
  <path fill="#0c6fff" d="M14.3064 14.5234c0.0593 -0.06 0.0926 -0.141 0.0926 -0.2253 0 -0.0843 -0.0333 -0.1653 -0.0926 -0.2253 -1.3916 -1.4216 -3.6542 -1.7219 -5.70653 0.2804 -0.05659 0.0486 -0.09306 0.1165 -0.10231 0.1905 -0.00925 0.0741 0.00937 0.1489 0.05225 0.2099 0.29034 0.3704 0.36042 -0.2102 2.15249 -0.6107 2.8533 -0.6207 3.1536 0.871 3.6041 0.3805Z" stroke-width="1"></path>
  <path fill="#0c6fff" d="M15.8582 13.1718c0.0206 0.039 0.0491 0.0734 0.0836 0.1009 0.0345 0.0276 0.0743 0.0477 0.1169 0.0591s0.0872 0.0139 0.1308 0.0073c0.0437 -0.0066 0.0855 -0.0221 0.1228 -0.0456 0.0374 -0.0236 0.0695 -0.0545 0.0943 -0.091 0.0248 -0.0365 0.0418 -0.0778 0.0499 -0.1212 0.0081 -0.0433 0.0072 -0.0879 -0.0027 -0.1309 -0.0099 -0.0431 -0.0286 -0.0835 -0.0549 -0.119 -2.0023 -3.45396 -7.24837 -2.8833 -9.52098 0.1302 -0.04912 0.057 -0.07355 0.1313 -0.06792 0.2064 0.00563 0.0751 0.04087 0.1449 0.09796 0.194 0.05708 0.0491 0.13134 0.0736 0.20645 0.0679 0.0751 -0.0056 0.14488 -0.0408 0.19401 -0.0979 1.87215 -1.9122 6.70768 -2.7632 8.54978 -0.1602Z" stroke-width="1"></path>
  <path fill="#0c6fff" d="M16.9295 10.5988c0.0504 0.0691 0.1263 0.1152 0.2107 0.1284 0.0845 0.0131 0.1708 -0.0078 0.2398 -0.0583 0.069 -0.0504 0.1152 -0.1262 0.1284 -0.2107 0.0131 -0.0845 -0.0079 -0.1708 -0.0583 -0.2398 -0.5327 -0.69614 -1.2176 -1.26119 -2.0023 -1.6519 -2.8633 -1.56179 -6.83787 -1.04119 -9.88136 2.2426 -0.02664 0.0261 -0.0478 0.0572 -0.06225 0.0916 -0.01445 0.0344 -0.02189 0.0713 -0.02189 0.1086s0.00744 0.0742 0.02189 0.1086 0.03561 0.0655 0.06225 0.0916c0.50057 0.4906 0.90103 -1.3415 4.77546 -2.20249 1.5676 -0.40681 3.2245 -0.29799 4.7255 0.31036 0.7103 0.27958 1.3472 0.71793 1.8621 1.28143Z" stroke-width="1"></path>
</svg>