<svg xmlns="http://www.w3.org/2000/svg" fill="none" viewBox="0 0 24 24" id="Camera--Streamline-Freehand">
  <desc>
    Camera Streamline Icon: https://streamlinehq.com
  </desc>
  <path fill="#020202" fill-rule="evenodd" d="M23.9678 13.9995c-0.0899 -6.68458 -0.05 -6.30489 -0.1499 -6.69457 -0.2598 -0.85931 -0.8493 -1.13908 -1.8485 -1.36889 -3.3873 -0.78936 -10.5714 -0.2498 -13.98864 0.06994 0 -0.72941 -0.16986 -2.28814 -0.14988 -2.17823 -0.13989 -0.75938 -1.20902 -0.64947 -1.49878 -0.69943 -0.84693 -0.12125 -1.70947 -0.07371 -2.53794 0.13988 -1.40886 0.47961 -1.29895 1.44883 -0.99919 2.91763h-0.08993c-0.25836 -0.10509 -0.53585 -0.15494 -0.81463 -0.14633 -0.27878 0.0086 -0.55267 0.07547 -0.80406 0.19629C0.257028 6.7254 0.157109 7.60468 0.0571904 8.55391 -0.0461741 9.97292 -0.00935908 11.3987 0.167101 12.8105c-0.023889 1.9742 0.092979 3.9476 0.349716 5.9052 -0.004538 0.3826 0.095665 0.7593 0.289765 1.0891 0.819338 1.1091 3.277338 0.7194 4.995948 0.8992 4.28647 0.4297 8.16337 0.1299 12.26007 0.1499 1.7086 0 4.4264 0.4297 5.3057 -0.8893 0.2809 -0.5553 0.4345 -1.1663 0.4496 -1.7885 0.1723 -1.3851 0.2225 -2.7827 0.1499 -4.1766ZM3.56434 4.56715c0.22982 -0.37969 1.99838 -0.37969 2.61788 -0.32973 0.61949 0.04996 0.66945 -0.22982 0.79935 0.24979 0.12307 0.49981 0.21319 1.00716 0.26978 1.51877 -1.87848 0 -0.63948 -0.09992 -3.82689 0.09992 -0.05043 -0.51715 -0.00297 -1.03917 0.13988 -1.53875ZM22.6888 17.9962c-0.0188 0.4597 -0.1168 0.9127 -0.2897 1.339 -0.4397 0.6594 -3.1275 0.3697 -4.3365 0.3697 -8.25333 0 -3.3673 0.3797 -15.4275 -0.07 -1.26897 -0.1399 -1.1091 -0.2498 -1.25898 -1.0591C1.0264 15.5782 0.376931 10.0827 0.826566 7.87446c0.096057 -0.20163 0.235404 -0.3796 0.408114 -0.52123 0.17271 -0.14162 0.37453 -0.2434 0.59107 -0.2981 2.04265 -0.23618 4.09954 -0.32634 6.15501 -0.26978 3.15744 -0.23981 10.44154 -0.68944 13.73884 0.13988 1.199 0.29976 1.0591 0.51958 1.0791 0.91926 0.02 0.39967 0 0.40967 0 6.12501 0.0744 1.343 0.0376 2.6898 -0.1099 4.0267Z" clip-rule="evenodd" stroke-width="1"></path>
  <path fill="#0c6fff" fill-rule="evenodd" d="m6.0323 14.549 0.99919 -0.0799c1.41884 -0.1099 1.11909 -0.6994 0 -0.7794 -2.78774 -0.2398 -1.92844 -0.3797 -4.17661 -0.1598 -0.42545 -0.0167 -0.84999 0.0512 -1.24899 0.1998 -0.10301 0.0531 -0.18574 0.1386 -0.2355 0.2433 -0.04976 0.1046 -0.06381 0.2228 -0.03999 0.3362 0.02382 0.1134 0.08419 0.2159 0.17186 0.2917 0.08766 0.0758 0.19778 0.1208 0.31346 0.128 1.40665 0.1501 2.82782 0.0895 4.21658 -0.1799Z" clip-rule="evenodd" stroke-width="1"></path>
  <path fill="#0c6fff" fill-rule="evenodd" d="M5.73262 10.0527c0.5058 0.0304 1.01297 0.0304 1.51877 0 0.06852 -0.0071 0.13357 -0.0337 0.18742 -0.07664 0.05384 -0.04298 0.09421 -0.1005 0.11631 -0.16575 0.0221 -0.06525 0.025 -0.13547 0.00835 -0.20232 -0.01664 -0.06685 -0.05213 -0.12751 -0.10225 -0.17477 -0.56389 -0.16874 -1.14279 -0.28252 -1.7286 -0.33973 -1.49868 -0.14155 -3.00998 -0.06413 -4.48636 0.22982 -0.559542 0.21982 -0.419656 0.68939 0.26978 0.82929 1.40392 0.1495 2.82132 0.1159 4.21658 -0.0999Z" clip-rule="evenodd" stroke-width="1"></path>
  <path fill="#0c6fff" fill-rule="evenodd" d="M6.62189 12.171c1.40885 0.1699 0.99919 -0.8393 0.49959 -0.7094 0 -0.05 -0.30975 0 -0.34972 -0.05l-0.99918 -0.1998c-0.94994 -0.0999 -1.90774 -0.0999 -2.85768 0 -0.45376 0.0452 -0.90427 0.1186 -1.34891 0.2198 -0.52957 0.1799 -0.45963 0.4996 0 0.7294 2.8377 0.2898 2.65784 -0.04 5.0559 0.01Z" clip-rule="evenodd" stroke-width="1"></path>
  <path fill="#0c6fff" fill-rule="evenodd" d="M17.4431 8.00437c-0.0633 -0.06047 -0.1474 -0.09421 -0.2349 -0.09421 -0.0874 0 -0.1715 0.03374 -0.2348 0.09421 -0.2997 0.29975 0.07 0.59951 0.3997 0.79935 0.6557 0.24942 1.2515 0.63413 1.7486 1.12908 0.5123 0.5517 0.8375 1.2511 0.9292 1.9984 0.1546 1.0799 0.0969 2.1796 -0.1698 3.2374 -0.1207 0.3964 -0.3616 0.7456 -0.6895 0.9991 -0.3392 0.2575 -0.7003 0.4849 -1.0791 0.6795 -2.5279 1.2989 -7.334 -0.05 -7.424 -2.8477 -0.0064 -0.8762 0.1182 -1.7485 0.3697 -2.5879 0.1301 -0.4648 0.3542 -0.8979 0.6584 -1.2725 0.3042 -0.37471 0.6821 -0.68297 1.1102 -0.90573 1.6387 -0.83932 2.8877 -0.42965 3.1175 -0.63948 0.0284 -0.02707 0.051 -0.05962 0.0665 -0.09569 0.0154 -0.03607 0.0234 -0.0749 0.0234 -0.11414 0 -0.03924 -0.008 -0.07808 -0.0234 -0.11415 -0.0155 -0.03606 -0.0381 -0.06862 -0.0665 -0.09568 -0.1399 -0.28977 -1.4488 -0.16986 -1.5288 -0.16986 -0.6832 0.03259 -1.3518 0.20974 -1.9615 0.51977 -0.6097 0.31003 -1.1468 0.74588 -1.5756 1.27877 -0.5446 0.77489 -0.9067 1.66309 -1.05915 2.59789 -0.2297 0.8914 -0.2297 1.8264 0 2.7178 0.99915 2.6079 4.68615 3.737 7.37405 3.1974 0.9703 -0.246 1.8701 -0.7147 2.6278 -1.3689 1.1991 -0.9992 1.239 -2.3781 1.209 -3.9068 -0.0599 -4.16664 -3.0575 -4.59629 -3.587 -5.03593Z" clip-rule="evenodd" stroke-width="1"></path>
  <path fill="#020202" fill-rule="evenodd" d="M13.0966 12.0811c-0.1398 0.9991 -0.7693 2.6378 0.3797 3.2173 0.358 0.1221 0.7314 0.1927 1.1091 0.2099 0.5341 0.0956 1.0762 0.1391 1.6187 0.1299 0.4507 0.0342 0.899 -0.0926 1.265 -0.3579 0.3659 -0.2653 0.6258 -0.6519 0.7334 -1.091 0.0421 -0.737 -0.0355 -1.476 -0.2298 -2.1882 -0.2598 -1.9984 -0.7794 -1.8185 -3.697 -1.7086 -1.299 -0.0899 -1.1091 1.3189 -1.1791 1.7886Zm0.7594 -1.2091c0.4297 0.1399 2.7578 0 3.0576 0.3398 0.2997 3.1174 0.6494 3.4771 -2.2083 3.2074 -0.2098 0 -0.8393 0 -0.8892 -0.08 -0.3797 -0.6594 0.2498 -3.0575 0.0399 -3.4672Z" clip-rule="evenodd" stroke-width="1"></path>
</svg>