<svg xmlns="http://www.w3.org/2000/svg" fill="none" viewBox="0 0 24 24" id="Image-File-Search--Streamline-Freehand">
  <desc>
    Image File Search Streamline Icon: https://streamlinehq.com
  </desc>
  <path fill="#020202" fill-rule="evenodd" d="M23.6129 23.4114c-0.7367 -1.3252 -1.7607 -2.4686 -2.9969 -3.3466 0.5903 -0.5142 1.0246 -1.1837 1.2535 -1.9324 0.2289 -0.7487 0.2433 -1.5465 0.0414 -2.303 -0.2018 -0.7564 -0.6118 -1.4411 -1.1833 -1.9762 -0.5715 -0.5351 -1.2816 -0.8992 -2.0496 -1.0509 -0.693 -0.1372 -1.4082 -0.1149 -2.0912 0.0652 -0.6831 0.1801 -1.3163 0.5134 -1.8515 0.9745 -0.5352 0.4611 -0.9585 1.0379 -1.2377 1.6868 -0.2792 0.649 -0.4071 1.3529 -0.3739 2.0586 0.0999 2.2776 2.2776 3.9959 3.7761 3.846 0.0821 0 0.1609 -0.0326 0.219 -0.0907 0.058 -0.058 0.0907 -0.1368 0.0907 -0.2189 0 -0.0822 -0.0327 -0.1609 -0.0907 -0.219 -0.0581 -0.0581 -0.1369 -0.0907 -0.219 -0.0907 -0.5872 -0.01 -1.1469 -0.2504 -1.5584 -0.6693 -2.8571 -2.3776 -0.2498 -6.9329 3.1268 -6.1837 2.6373 0.5295 3.6463 3.5963 1.3686 5.7941 -0.4115 0.4307 -0.9082 0.7709 -1.4585 0.9989 -0.0756 0.0409 -0.134 0.1076 -0.1647 0.1878 -0.0307 0.0803 -0.0317 0.1689 -0.0027 0.2498 0.029 0.0809 0.086 0.1487 0.1606 0.1913 0.0747 0.0425 0.1622 0.0568 0.2465 0.0404 0.5323 -0.1881 1.0288 -0.465 1.4685 -0.8191 0.809 1.2519 1.822 2.3594 2.997 3.2766 0.0308 0.0348 0.0682 0.0631 0.1099 0.0835 0.0418 0.0203 0.0872 0.0322 0.1336 0.035 0.0464 0.0027 0.0929 -0.0036 0.1368 -0.0188 0.0439 -0.0152 0.0844 -0.0389 0.1191 -0.0697 0.0348 -0.0308 0.0632 -0.0682 0.0835 -0.11 0.0203 -0.0418 0.0322 -0.0872 0.035 -0.1335 0.0028 -0.0464 -0.0036 -0.0929 -0.0188 -0.1368 -0.0152 -0.0439 -0.0389 -0.0844 -0.0697 -0.1192Z" clip-rule="evenodd" stroke-width="1"></path>
  <path fill="#0c6fff" d="M7.66934 2.10323c-1.99795 0.3896 -2.54739 1.48847 -2.29764 2.8271 0.56941 2.99693 5.7641 1.78817 4.59529 -1.40855 -0.13608 -0.48103 -0.44755 -0.89357 -0.87291 -1.15618 -0.42537 -0.26262 -0.93373 -0.35623 -1.42474 -0.26237ZM6.31073 4.70057c-0.53944 -1.86809 2.21773 -2.69724 2.68725 -0.8791 0.46952 1.81814 -2.28766 2.27766 -2.68725 0.8791Z" stroke-width="1"></path>
  <path fill="#020202" d="M19.0776 0.654779c-0.0281 -0.030261 -0.0621 -0.054402 -0.0999 -0.070911 -0.0378 -0.016509 -0.0786 -0.02503 -0.1199 -0.02503s-0.0821 0.008521 -0.1199 0.02503 -0.0718 0.04065 -0.0999 0.070911c-0.1498 0.149846 0 0.159836 0 0.749231 0 0.74923 -0.5394 10.13959 0.4196 10.17959 0.0459 0.0013 0.0916 -0.0064 0.1346 -0.0228 0.0429 -0.0163 0.0822 -0.041 0.1156 -0.0725 0.0334 -0.0316 0.0602 -0.0694 0.079 -0.1113 0.0188 -0.0419 0.0291 -0.0871 0.0304 -0.1331 0.1099 -1.1588 0.2298 -2.45745 0.2697 -3.74613 0.07 -2.95697 -0.3196 -6.603237 -0.6093 -6.842991Z" stroke-width="1"></path>
  <path fill="#020202" d="M2.11504 14.6704c-0.60937 -0.1599 -0.41957 -0.1499 -0.44954 -0.5994 -0.02997 -0.4496 -0.33965 -11.47825 0 -12.72698 0.99898 -0.27971 7.93187 -0.409576 9.2305 -0.399586 6.7531 0.079916 6.9929 0.329666 6.9929 -0.219775 0.0013 -0.04592 -0.0064 -0.091652 -0.0228 -0.134583 -0.0163 -0.042931 -0.041 -0.082218 -0.0725 -0.115617 -0.0316 -0.033399 -0.0694 -0.060254 -0.1113 -0.079031 -0.0419 -0.018777 -0.0872 -0.029107 -0.1331 -0.0304C0.856333 -0.344245 0.716475 0.00539644 0.4967 1.19418 0.107099 3.30202 0.326874 14.3507 0.836352 15.0899c0.879098 1.2188 9.200548 0.8891 10.709048 0.8292 0.0738 -0.0132 0.1407 -0.052 0.1888 -0.1095 0.0482 -0.0575 0.0746 -0.1302 0.0746 -0.2052 0 -0.075 -0.0264 -0.1476 -0.0746 -0.2052 -0.0481 -0.0575 -0.115 -0.0963 -0.1888 -0.1095 -0.6593 0.01 -7.08276 0.02 -9.43036 -0.6193Z" stroke-width="1"></path>
  <path fill="#0c6fff" d="M18.1887 8.44677C16.86 6.38888 14.922 5.14016 12.6244 6.44882c-1.998 1.20876 -3.04692 3.81608 -3.99595 5.99388 0 0.1099 0 0.1398 -0.19979 -0.2298 -0.50365 -0.7901 -1.24015 -1.4045 -2.10784 -1.7582 -2.29765 -0.86909 -3.39652 -0.3596 -4.50539 0.8991 -0.27971 0.3596 -0.14984 1.2187 0.15984 0.8891 1.15881 -1.2687 1.6583 -1.4585 3.9959 -0.6893 0.97657 0.3128 1.81143 0.9602 2.35759 1.8281 0 0.1299 -0.22977 0.8292 -0.36962 1.3187 -0.07992 0.2797 0.60937 0.5794 0.70927 0 1.08889 -2.997 3.60629 -8.42141 6.47339 -7.59226 0.8153 0.31134 1.5495 0.80313 2.1478 1.43853 0.2081 0.22262 0.4354 0.42653 0.6793 0.60938 0.3197 0.1898 0.4096 -0.45953 0.2198 -0.70928Z" stroke-width="1"></path>
</svg>