<svg xmlns="http://www.w3.org/2000/svg" fill="none" viewBox="0 0 24 24" id="Timer-Countdown-Ten--Streamline-Freehand">
  <desc>
    Timer Countdown Ten Streamline Icon: https://streamlinehq.com
  </desc>
  <path fill="#0c6fff" d="M21.8834 7.92689C18.2747 1.31924 9.15789 -0.420146 4.11968 5.9076c0.42985 -0.89968 0.32989 -3.28883 0.88969 -5.538027 0.00984 -0.037414 0.01222 -0.0764 0.007 -0.114733 -0.00522 -0.038334 -0.01794 -0.075263 -0.03743 -0.10868 -0.0195 -0.033418 -0.04538 -0.062668 -0.07618 -0.0860817 -0.0308 -0.0234137 -0.0659 -0.0405321 -0.10332 -0.05037772 -0.07556 -0.01988418 -0.15592 -0.008937908 -0.22341 0.03043072C4.50854 0.0795 4.45945 0.144066 4.43957 0.219626c-0.23991 0.849694 -0.42985 1.429494 -0.66976 2.559094 -0.86969 3.99858 -0.71975 2.99893 -0.77972 3.43877 -0.09997 0.67976 0.52981 1.10961 1.1196 1.29954 1.57944 0.47983 3.99858 -0.22992 5.99791 0.63977 0.0382 0.01908 0.0799 0.0303 0.1225 0.03301 0.0427 0.0027 0.0854 -0.00317 0.1258 -0.01727 0.0403 -0.0141 0.0774 -0.03614 0.1091 -0.06482 0.0317 -0.02868 0.0573 -0.06341 0.0754 -0.10216 0.018 -0.03874 0.0281 -0.08071 0.0296 -0.12342 0.0016 -0.0427 -0.0054 -0.08529 -0.0206 -0.12524 -0.0152 -0.03995 -0.0383 -0.07645 -0.0678 -0.10734 -0.0295 -0.0309 -0.0649 -0.05557 -0.1041 -0.07255 -2.25924 -1.1196 -4.56842 -0.62978 -5.93793 -1.08961 -0.12995 0 0 0 0.13995 -0.12996C5.75834 4.83981 7.37805 3.7243 9.21624 3.16407c1.83816 -0.56023 3.80476 -0.53771 5.62966 0.06449 5.1581 1.53945 8.9968 7.73724 6.5376 12.99534 -5.0682 11.346 -20.30274 6.9076 -19.99285 -1.5894 0 -0.0742 -0.02949 -0.1454 -0.08198 -0.1979 -0.05249 -0.0525 -0.12368 -0.082 -0.19792 -0.082 -0.07423 0 -0.145425 0.0295 -0.197916 0.082 -0.052492 0.0525 -0.081981 0.1237 -0.081981 0.1979C0.291044 23.8012 16.7352 29.1393 22.3732 16.7038c0.6069 -1.4002 0.8786 -2.9227 0.7936 -4.4464 -0.085 -1.5237 -0.5245 -3.00655 -1.2834 -4.33051Z" stroke-width="1"></path>
  <path fill="#020202" d="M8.928 14.2646c0.17993 -0.9996 0.40985 -3.5787 -0.41985 -4.1385 -0.08342 -0.0632 -0.18522 -0.0975 -0.2899 -0.0975s-0.20648 0.0343 -0.2899 0.0975c-0.20992 0.1699 0.30989 -0.23992 -1.73938 1.5295 -0.0623 0.041 -0.10573 0.1052 -0.12073 0.1783 -0.015 0.0731 -0.00034 0.1492 0.04076 0.2115 0.04109 0.0623 0.10525 0.1057 0.17837 0.1207 0.07311 0.015 0.14919 0.0004 0.21149 -0.0407 1.74938 -1.1196 1.50946 -1.0296 1.50946 -0.8297 0.14995 1.9993 -0.5498 4.6283 -0.18993 6.5677 0.01193 0.0848 0.05708 0.1614 0.1255 0.213 0.06843 0.0515 0.15453 0.0738 0.23937 0.0619 0.08484 -0.012 0.16147 -0.0571 0.21302 -0.1255 0.05155 -0.0685 0.07381 -0.1546 0.06188 -0.2394 0.00927 -1.1846 0.16712 -2.3634 0.46984 -3.5088Z" stroke-width="1"></path>
  <path fill="#020202" d="M15.1858 10.566c0.0742 -0.0239 0.1359 -0.0763 0.1716 -0.1456 0.0356 -0.0694 0.0422 -0.1501 0.0183 -0.2243 -0.0238 -0.0742 -0.0762 -0.1359 -0.1456 -0.1716 -0.0693 -0.03559 -0.15 -0.04219 -0.2242 -0.0183 -5.45811 1.7693 -4.6484 9.2767 0.2499 8.297 3.4387 -0.7797 3.8786 -6.8076 0.6897 -7.8572 -0.0406 -0.0197 -0.0849 -0.0307 -0.13 -0.0321 -0.0451 -0.0014 -0.09 0.0068 -0.1317 0.024 -0.0418 0.0172 -0.0794 0.043 -0.1104 0.0758 -0.0311 0.0327 -0.0548 0.0717 -0.0698 0.1143 -0.0149 0.0426 -0.0206 0.0879 -0.0168 0.1328 0.0039 0.045 0.0172 0.0887 0.0391 0.1281 0.0219 0.0395 0.0519 0.0739 0.0881 0.1009 0.0361 0.027 0.0775 0.0461 0.1216 0.056 2.4191 0.9397 1.7994 5.758 -0.6998 6.1978 -1.9992 0.3999 -2.9389 -1.0596 -2.809 -2.9989 0.0866 -0.833 0.4119 -1.6233 0.9368 -2.2759 0.5249 -0.6526 1.2271 -1.1397 2.0222 -1.4028Z" stroke-width="1"></path>
</svg>