<svg xmlns="http://www.w3.org/2000/svg" fill="none" viewBox="0 0 24 24" id="Email-Action-Image--Streamline-Freehand">
  <desc>
    Email Action Image Streamline Icon: https://streamlinehq.com
  </desc>
  <path fill="#020202" fill-rule="evenodd" d="m22.4699 9.66123 -2.4812 -1.91091c-0.0366 -1.46511 -0.1736 -2.92592 -0.4102 -4.37225 -0.0901 -1.00051 0.08 -2.21112 -0.6804 -3.001525C17.8976 -0.623964 5.47134 0.646749 4.64093 0.996851c-0.41459 0.126739 -0.74479 0.442139 -0.89051 0.850509 -0.26143 1.99633 -0.21418 4.02102 0.14011 6.00296L1.6894 9.55123c-0.5602 0.48017 -0.840403 4.55227 -0.890403 5.30267 -0.129694 2.5289 -0.06949 5.0639 0.180102 7.5838 0 0.2233 0.241731 0.3629 0.435201 0.2512 0.0898 -0.0518 0.1451 -0.1476 0.1451 -0.2512 0.52021 0.3001 -0.1301 -0.1001 4.90245 -3.762 0.57031 -0.4102 4.07205 -2.8814 4.70235 -2.8714 1.2306 0 9.2547 6.003 10.2452 6.7434 0 0.1001 -0.0701 0.1801 -0.0901 0.2502 -2.001 0.13 -18.21918 0.14 -19.28969 0.1 -0.25796 0.0448 -0.37082 0.352 -0.20306 0.5531 0.05163 0.0619 0.12367 0.1034 0.20306 0.1172 1.94102 0.1201 19.14969 0.7304 20.01009 0.2502 0.1195 -0.0722 0.2164 -0.1761 0.2801 -0.3002 0.5703 -1.2306 1.7309 -12.5764 0.1501 -13.85697Zm-0.1701 1.55077c-0.7978 0.1866 -1.5753 0.4514 -2.3211 0.7904 -0.0801 -0.4603 0 -0.5803 0 -3.45178l2.001 1.65088c0.1886 0.3052 0.2986 0.6524 0.3201 1.0105ZM3.98063 8.63072c0 0.51021 0 -0.6303 0.2501 3.16168 -0.64908 -0.3682 -1.31704 -0.7022 -2.00102 -1.0006 0.11 -1.11057 0.4102 -0.80036 1.75092 -2.16108ZM1.4993 21.7973c0 -0.7104 0.62041 -10.2052 0.62041 -10.2852 2.0802 1.5858 4.27387 3.017 6.56326 4.2822 -2.59367 1.75 -5.00081 3.7615 -7.18367 6.003Zm9.6249 -7.1736c-0.6403 0.1147 -1.24807 0.3673 -1.78092 0.7404 -1.41878 -1.1826 -2.92745 -2.253 -4.51225 -3.2016C4.30073 -0.0636587 3.38032 1.99736 8.98307 1.55716c9.57493 -0.770411 7.12353 -0.36021 9.25473 -0.43021 0.4102 0.53031 0.3202 1.61082 0.4102 2.35123 0.482 2.53499 0.6933 5.11407 0.6303 7.69372 -0.0253 0.3798 -0.0253 0.7609 0 1.1407 -2.0729 0.9113 -4.0789 1.9678 -6.0031 3.1616 -0.6493 -0.4313 -1.3822 -0.7211 -2.151 -0.8505Zm10.3952 7.2336c-2.4284 -2.1487 -4.9807 -4.1531 -7.6439 -6.003 5.0026 -1.9009 6.4733 -3.1815 8.4843 -4.0019 0.0499 3.3544 -0.2316 6.7058 -0.8404 10.0049Z" clip-rule="evenodd" stroke-width="1"></path>
  <path fill="#0c6fff" fill-rule="evenodd" d="M9.72345 4.13847c-0.7501 -0.70275 -1.82041 -0.94744 -2.80143 -0.6403 -1.01051 0.6403 -1.55071 2.66132 -0.2301 3.44173 1.78092 1.00041 4.65238 -1.11061 3.03153 -2.80143Zm-0.89041 0.38021C9.91355 6.5197 7.53233 6.30949 7.22223 5.94939c-0.30725 -0.28612 -0.40317 -0.73367 -0.24021 -1.12061 0.24021 -0.61031 0.88051 -1.08051 1.85102 -0.3101Z" clip-rule="evenodd" stroke-width="1"></path>
  <path fill="#0c6fff" fill-rule="evenodd" d="M15.6364 12.0625c0.6503 0 0.8604 -0.7505 0.9005 -1.3908 0.0088 -1.6423 -0.5376 -3.23955 -1.5508 -4.5322 -0.1465 -0.15643 -0.3395 -0.26163 -0.5503 -0.3002 -1.5607 -0.24011 -2.3311 2.00102 -2.8114 3.50173 -0.7603 -1.50071 -2.15104 -1.56071 -3.00145 -0.49021 -0.85041 1.07051 -1.77092 3.71188 -0.39021 3.32168 0.22337 -0.0591 0.29888 -0.3379 0.13592 -0.5018 -0.03755 -0.0377 -0.08449 -0.0649 -0.13592 -0.0784 0.09 -0.1502 0 -0.5004 0.09 -0.6305 0.21143 -0.5839 0.51919 -1.12832 0.91051 -1.61067 0.48021 -0.5203 1.00045 -0.56031 1.44075 0.05 0.4403 0.61027 0.4802 1.81087 0.6703 2.09097H9.41325c-0.25796 0.0448 -0.37081 0.3521 -0.20306 0.5531 0.05174 0.0619 0.12368 0.1035 0.20306 0.1173 2.07245 0.1781 4.15755 0.1446 6.22315 -0.1Zm-3.5017 -0.5804c0.3366 -1.3827 0.8231 -2.72464 1.4507 -4.00199 1.0005 -1.63081 2.1611 3.00149 1.931 3.55179 -0.2602 -0.1801 -2.5313 0.4102 -3.3817 0.4502Z" clip-rule="evenodd" stroke-width="1"></path>
</svg>