<svg xmlns="http://www.w3.org/2000/svg" fill="none" viewBox="0 0 24 24" id="Email-Action-Download--Streamline-Freehand">
  <desc>
    Email Action Download Streamline Icon: https://streamlinehq.com
  </desc>
  <path fill="#020202" fill-rule="evenodd" d="M22.7591 9.34319c-0.4809 -0.40078 -3.0058 -2.33454 -4.8895 -3.66713 -0.0651 -0.04783 -0.1465 -0.06784 -0.2264 -0.05563 -0.0798 0.01222 -0.1516 0.05565 -0.1994 0.12076 -0.0478 0.0651 -0.0679 0.14654 -0.0556 0.2264 0.0122 0.07986 0.0556 0.15159 0.1207 0.19943 0.8416 0.64124 1.6632 1.29251 2.3846 1.87364 2.7053 2.16424 2.4749 1.86362 2.6251 2.91564 -1.7198 0.5357 -3.3949 1.2057 -5.0097 2.0039 -1.7935 0.8817 -3.0058 1.6733 -4.2683 2.3646 -0.6397 -0.4282 -1.3585 -0.7245 -2.1141 -0.8717 -0.66 0.1151 -1.28622 0.3752 -1.83356 0.7615 -0.56109 -0.4409 -1.30253 -1.0019 -2.11411 -1.6432 -1.64173 -1.1671 -3.38162 -2.1896 -5.2001 -3.0559 0.10019 -0.73146 0.22043 -0.61122 0.14027 -0.67134 0.86168 -0.83161 2.59504 -2.33454 4.38853 -3.7072 0.07308 -0.05315 0.12205 -0.13315 0.13614 -0.2224 0.01409 -0.08926 -0.00785 -0.18045 -0.06099 -0.25353 -0.05315 -0.07307 -0.13315 -0.12205 -0.2224 -0.13614 -0.08926 -0.01409 -0.18045 0.00785 -0.25353 0.061C4.67397 6.58783 2.53982 8.10077 1.32746 9.1428 0.285438 10.0145 0.265399 20.1141 0.61608 22.4988c0.010033 0.078 0.050285 0.149 0.112109 0.1977 0.061824 0.0488 0.140288 0.0713 0.218534 0.0628 0 0 0.671307 -0.3607 0.691347 -0.3708 2.47576 -2.3124 5.18561 -4.3608 8.08571 -6.1118 1.37262 -0.8016 1.27252 -0.8317 2.52492 -0.1503 3.2382 1.9867 6.3687 4.1439 9.3782 6.4625 0 0.2906 0.2906 0.2405 -2.1141 0.2906 -2.4047 0.0501 -16.46199 0.0902 -17.82464 0 -0.08158 0.0139 -0.1556 0.0563 -0.20897 0.1195 -0.05337 0.0633 -0.08264 0.1434 -0.08264 0.2262 0 0.0827 0.02927 0.1628 0.08264 0.2261s0.12739 0.1056 0.20897 0.1195c1.68327 0.1002 19.68824 0.7315 20.58004 0.2505 0.1255 -0.0678 0.227 -0.1728 0.2905 -0.3006 0.6112 -1.1722 1.8636 -12.7948 0.2004 -14.17751ZM1.19721 21.8475c0 -2.4748 0.6713 -10.4603 0.68132 -10.5405 2.11858 1.6216 4.35587 3.0818 6.69301 4.3685 -2.66399 1.798 -5.1352 3.8663 -7.37433 6.172Zm20.55999 0.0501c-2.4946 -2.1874 -5.1141 -4.2281 -7.8453 -6.1119 5.2402 -2.0039 7.2441 -3.617 8.6769 -4.1581 0.0522 3.4421 -0.2263 6.8812 -0.8316 10.27Z" clip-rule="evenodd" stroke-width="1"></path>
  <path fill="#0c6fff" fill-rule="evenodd" d="M6.5777 8.34125c0.35068 1.47286 3.9477 4.84945 5.661 5.00975 1.7133 0.1603 4.7693 -4.52882 4.619 -5.48067 -0.1503 -0.95185 -1.3326 -0.86167 -2.2243 -1.07208h-0.3708c-0.3867 -2.21981 -0.9053 -4.41462 -1.553 -6.572775 -0.0305 -0.085034 -0.0936 -0.1544466 -0.1754 -0.1929664 -0.0817 -0.03851978 -0.1754 -0.042992 -0.2604 -0.0124327 -0.0851 0.0305593 -0.1545 0.0936471 -0.193 0.1753841 -0.0385 0.081737 -0.043 0.175428 -0.0124 0.260463 0.7013 2.074027 1.2624 6.482597 1.3927 6.773167 0.2104 0.46089 0.7314 0.43083 1.0019 0.49095 0.3908 0.10019 1.0621 0.14027 1.3627 0.24047 -0.0601 0.08015 -0.0702 0.30058 -0.1603 0.47091 -0.6613 1.31255 -2.6652 3.82748 -3.3265 3.76728 -1.2324 -0.1102 -4.34846 -3.13605 -4.629 -3.93761 0.08717 -0.05594 0.18156 -0.09976 0.28054 -0.13025 2.25436 -0.57111 2.28446 -0.06012 2.61506 -2.0039 0 -0.08015 0.8316 -5.741153 0.8116 -5.821309 -0.1102 -0.400779 -0.491 -0.30058429 -0.6212 -0.060117 -0.1303 0.240467 -0.2104 1.082106 -0.6513 3.757306 -0.50094 3.10603 -0.60114 2.63512 -0.66126 2.89562 -1.36264 0.27053 -3.21625 0.16031 -2.90564 1.44281Z" clip-rule="evenodd" stroke-width="1"></path>
</svg>