<svg xmlns="http://www.w3.org/2000/svg" fill="none" viewBox="0 0 24 24" id="Read-Email-At-Symbol--Streamline-Freehand">
  <desc>
    Read Email At Symbol Streamline Icon: https://streamlinehq.com
  </desc>
  <path fill="#020202" d="M23.7095 17.5026c-0.0732 -0.0727 -0.1721 -0.1135 -0.2753 -0.1135 -0.1032 0 -0.2021 0.0408 -0.2753 0.1135 -1.0534 1.2365 -2.2729 2.3212 -3.6237 3.2233 -1.3478 0.8783 -2.8382 1.5151 -4.4045 1.882 -1.3826 0.3112 -2.7974 0.4557 -4.2143 0.4304 -1.40848 -0.0162 -2.80865 -0.2182 -4.16429 -0.6006 -1.79256 -0.4321 -3.36792 -1.499 -4.43453 -3.0031 -0.92943 -1.5879 -1.23284 -3.4655 -0.85088 -5.2654 0.46974 -3.0009 1.80177 -5.80062 3.83393 -8.05822 1.9846 -2.28863 4.65734 -3.87261 7.61777 -4.51462 1.5258 -0.32565 3.101 -0.34606 4.6348 -0.06006 1.477 0.24817 2.7968 1.06813 3.6737 2.28233 0.7589 1.11774 1.0862 2.47302 0.921 3.81391 -0.3446 2.10302 -1.2313 4.07996 -2.5727 5.73586 -0.4759 0.6891 -1.0376 1.3148 -1.6717 1.8619 -0.3503 0.2603 -0.7107 0.4805 -1.0711 0.3504 -0.6006 -0.2203 -0.7407 -0.8008 -0.7708 -1.4515 0.0638 -1.1171 0.245 -2.2243 0.5406 -3.3034 0.0713 -0.2057 0.0885 -0.4263 0.05 -0.6406 -0.0236 -0.1189 -0.0845 -0.22713 -0.1738 -0.30906s-0.2023 -0.1333 -0.3227 -0.14669c-0.1205 -0.01338 -0.2421 0.01193 -0.3471 0.07226 -0.1051 0.06034 -0.1883 0.15256 -0.2375 0.26329 -0.1601 0.2303 -0.5806 1.1512 -0.8909 1.7218 -0.9133 1.7934 -2.2626 3.3286 -3.924 4.4646 -0.4965 0.3391 -1.09643 0.4928 -1.69483 0.4342 -0.5984 -0.0586 -1.15715 -0.3257 -1.57851 -0.7546 -0.38241 -0.3883 -0.60408 -0.9067 -0.62063 -1.4515 -0.04358 -0.5987 0.01052 -1.2004 0.16016 -1.7818 0.34297 -1.3399 0.9599 -2.5942 1.81186 -3.68375 0.82099 -1.11002 1.92335 -1.98085 3.19325 -2.52258 0.8072 -0.35873 1.7045 -0.46347 2.5726 -0.30031 0.3894 0.10338 0.7367 0.32589 0.9934 0.63641 0.2567 0.31051 0.4099 0.69349 0.4381 1.09537 0.0049 0.04578 0.019 0.0901 0.0415 0.13028 0.0225 0.04017 0.0529 0.07536 0.0894 0.10343 0.0365 0.02808 0.0783 0.04845 0.1229 0.0599 0.0446 0.01145 0.0911 0.01372 0.1366 0.00669 0.0914 -0.01246 0.1741 -0.06044 0.2303 -0.13352 0.0563 -0.07308 0.0814 -0.16538 0.07 -0.25688 -0.0303 -0.44083 -0.1733 -0.8665 -0.4151 -1.23631 -0.2419 -0.3698 -0.5746 -0.67137 -0.9663 -0.87585 -0.5746 -0.25079 -1.1949 -0.38024 -1.8219 -0.38024 -0.6269 0 -1.2472 0.12945 -1.8218 0.38024 -1.4025 0.60029 -2.61899 1.56452 -3.52363 2.79286 -0.93619 1.18245 -1.61781 2.54566 -2.00205 4.00406 -0.21921 0.8154 -0.2703 1.6669 -0.15015 2.5026 0.0964 0.6184 0.38744 1.19 0.83085 1.6317 0.56047 0.5964 1.31307 0.9765 2.12578 1.0735 0.81272 0.0971 1.6336 -0.0952 2.3188 -0.543 1.454 -0.9086 2.6909 -2.125 3.6237 -3.5636 -0.0392 0.4308 -0.0224 0.8648 0.05 1.2913 0.0512 0.4139 0.2143 0.8061 0.4719 1.1342 0.2575 0.3281 0.5997 0.5797 0.9896 0.7277 0.3 0.1041 0.6195 0.1393 0.935 0.1029 0.3154 -0.0364 0.6185 -0.1434 0.8869 -0.3131 0.9414 -0.6393 1.7532 -1.4511 2.3924 -2.3925 1.493 -1.8363 2.48 -4.031 2.863 -6.36649 0.2052 -1.65491 -0.2006 -3.32783 -1.1412 -4.70481 -0.8449 -1.2297 -2.079 -2.139383 -3.5036 -2.582646 -2.016 -0.6020585 -4.1527 -0.677875 -6.2063 -0.220225C9.42207 1.01848 6.50926 2.7753 4.35967 5.30015 2.19411 7.75245 0.788941 10.7819 0.315526 14.0191c-0.3917057 2.0681 -0.002961 4.2079 1.091114 6.0061 1.22627 1.7026 3.02416 2.9071 5.06519 3.3935 1.44658 0.3858 2.93738 0.581 4.43457 0.5806 1.4929 0.0131 2.982 -0.155 4.4345 -0.5005 1.6714 -0.3987 3.2602 -1.0864 4.6948 -2.0321 1.3944 -0.9703 2.6476 -2.1292 3.7238 -3.4435 0.0555 -0.0784 0.0809 -0.1741 0.0717 -0.2696s-0.0524 -0.1846 -0.1217 -0.251Z" stroke-width="1"></path>
</svg>