<svg xmlns="http://www.w3.org/2000/svg" fill="none" viewBox="0 0 24 24" id="Critical-Thinking-2--Streamline-Sharp-Neon">
  <desc>
    Critical Thinking 2 Streamline Icon: https://streamlinehq.com
  </desc>
  <g id="critical-thinking-2--critical-thinking-nut-bolt-cog-brain-plan-head">
    <path id="Union" stroke="#c71dff" d="M15.3235 22.7374V18.647h4.0904v-4.0905h2.5565L19.06 6.9893c-1.327 -3.4501 -4.6417 -5.7267 -8.3383 -5.7267 -4.8005 0 -8.6921 3.8916 -8.6921 8.6922 0 3.1107 1.634 5.8396 4.0904 7.3754v5.4072" stroke-width="1"></path>
    <path id="Union_2" stroke="#000cfe" d="m12.8481 6.1409 -0.608 -1.2992H9.9699L9.3623 6.142l-0.6773 0.3911 -1.4299 -0.1232L6.12 8.3759l0.8226 1.1771 0 0.7808 -0.8221 1.1772 1.1351 1.9661 1.4301 -0.1239 0.6768 0.3907 0.6074 1.3002h2.2702l0.6083 -1.2993 0.6783 -0.3918 1.4288 0.1241 1.1351 -1.9661 -0.8208 -1.1756 -0.0001 -0.7847 0.8214 -1.1748 -1.1351 -1.9661 -1.4291 0.123 -0.6788 -0.3919Z" stroke-width="1"></path>
    <path id="Union_3" stroke="#000cfe" d="M11.1068 8.8468v2.0452" stroke-width="1"></path>
  </g>
</svg>