<svg xmlns="http://www.w3.org/2000/svg" fill="none" viewBox="0 0 24 24" id="Cleaning-Man--Streamline-Freehand">
  <desc>
    Cleaning Man Streamline Icon: https://streamlinehq.com
  </desc>
  <path fill="#000000" fill-rule="evenodd" d="M5.82195 10.5094c0.06 -0.18 0.09 -0.35 0.16 -0.52002 0.08857 -0.21871 0.19562 -0.42947 0.32 -0.63 0.02873 -0.02795 0.05156 -0.06138 0.06715 -0.09831 0.0156 -0.03692 0.02363 -0.0766 0.02363 -0.11668 0 -0.04009 -0.00803 -0.07977 -0.02363 -0.11669 -0.01559 -0.03693 -0.03842 -0.07036 -0.06715 -0.09831 -0.05776 -0.05561 -0.13482 -0.08668 -0.215 -0.08668s-0.15724 0.03107 -0.215 0.08668c-0.39961 0.28434 -0.73939 0.64451 -1 1.05999 -0.10505 0.18802 -0.1921 0.38562 -0.26 0.59002 -0.06009 0.2023 -0.10028 0.4099 -0.12 0.62 -0.04941 0.472 -0.04941 0.9479 0 1.42 0.01392 0.0814 0.05618 0.1553 0.11932 0.2086 0.06314 0.0532 0.14308 0.0824 0.22568 0.0824 0.08261 0 0.16255 -0.0292 0.22569 -0.0824 0.06314 -0.0533 0.1054 -0.1272 0.11931 -0.2086 0.10561 -0.5535 0.26297 -1.0959 0.47 -1.62 0.06 -0.16 0.11 -0.33 0.17 -0.49Z" clip-rule="evenodd" stroke-width="1"></path>
  <path fill="#000000" fill-rule="evenodd" d="M4.58205 8.53956c-0.10809 -0.26658 -0.24919 -0.51855 -0.42 -0.75 -0.19727 -0.19051 -0.40421 -0.37075 -0.62 -0.54 -0.05432 -0.04985 -0.12463 -0.0787 -0.1983 -0.08139 -0.07368 -0.00268 -0.1459 0.02098 -0.20371 0.06674 -0.0578 0.04577 -0.0974 0.11063 -0.1117 0.18296 -0.01429 0.07233 -0.00234 0.14738 0.03371 0.21169 0.11568 0.2526 0.24936 0.49656 0.4 0.73 0.16 0.21 0.37 0.36 0.54 0.55 0.0243 0.03808 0.05586 0.07101 0.09287 0.09689 0.03702 0.02589 0.07878 0.04423 0.12289 0.05398 0.04411 0.00975 0.0897 0.01072 0.13418 0.00285 0.04448 -0.00787 0.08698 -0.02443 0.12506 -0.04872 0.03809 -0.0243 0.07101 -0.05585 0.0969 -0.09287 0.02589 -0.03702 0.04423 -0.07878 0.05398 -0.12289 0.00975 -0.0441 0.01072 -0.0897 0.00284 -0.13418 -0.00787 -0.04448 -0.02442 -0.08698 -0.04872 -0.12506Z" clip-rule="evenodd" stroke-width="1"></path>
  <path fill="#000000" fill-rule="evenodd" d="M7.97174 12.0892c-0.21839 -0.2699 -0.45211 -0.527 -0.7 -0.77 -0.02298 -0.0345 -0.05282 -0.0637 -0.08765 -0.0861 -0.03484 -0.0223 -0.07391 -0.0372 -0.11477 -0.0437 -0.04086 -0.0064 -0.08262 -0.0044 -0.12266 0.006 -0.04004 0.0104 -0.07749 0.029 -0.11 0.0546s-0.05937 0.0576 -0.0789 0.0941c-0.01953 0.0365 -0.03131 0.0766 -0.03459 0.1178 -0.00328 0.0413 0.00201 0.0828 0.01553 0.1219 0.01352 0.0391 0.03498 0.0749 0.06304 0.1054 0.2 0.33 0.35 0.62 0.52 0.87 0.12606 0.191 0.26295 0.3746 0.41 0.55 0.35919 0.4601 0.75015 0.8944 1.17 1.3 0.06232 0.0663 0.14843 0.1051 0.23939 0.1079 0.09095 0.0028 0.1793 -0.0306 0.24561 -0.0929 0.0663 -0.0624 0.10513 -0.1485 0.10794 -0.2394 0.00282 -0.091 -0.03062 -0.1793 -0.09294 -0.2456 -0.50773 -0.5921 -0.98501 -1.2095 -1.43 -1.85Z" clip-rule="evenodd" stroke-width="1"></path>
  <path fill="#000000" fill-rule="evenodd" d="M12.6514 13.179c-0.0704 -0.5868 -0.2465 -1.1559 -0.5199 -1.6799 -0.5311 -1.018 -1.3478 -1.85902 -2.34983 -2.41974 -0.03597 -0.01694 -0.07524 -0.02572 -0.11499 -0.02572 -0.03976 0 -0.07902 0.00878 -0.11499 0.02572 0.01027 -0.19318 0.01027 -0.38677 0 -0.57995 0 -0.25998 -0.07999 -0.51996 -0.11999 -0.76993l0.31997 -0.06c1.27363 -0.26093 2.39793 -1.00212 3.13973 -2.06982 0.3346 -0.53791 0.5242 -1.15327 0.5504 -1.7862s-0.1118 -1.26187 -0.4008 -1.82561c-0.2889 -0.56375 -0.7188 -1.043104 -1.2479 -1.391423 -0.5291 -0.348319 -1.1394 -0.553739 -1.7715 -0.596270032C9.31047 -0.0107982 8.6072 0.15044 7.97183 0.470116c-0.72375 0.349241 -1.35571 0.863014 -1.84534 1.500234 -0.48963 0.63721 -0.82333 1.38017 -0.97441 2.16944 -0.09567 0.57315 -0.0228 1.16175 0.20973 1.69428 0.23254 0.53252 0.61473 0.98604 1.10015 1.30546 0.38581 0.27791 0.83072 0.46272 1.29989 0.53995 0.33199 0.04183 0.66792 0.04183 0.99991 0 0 0.23998 -0.06 0.46996 -0.07999 0.70994 -0.02 0.23998 0 0.39996 0 0.59994 0 0.75994 0.09999 1.51984 0.16998 2.26984 0.01391 0.0814 0.05617 0.1553 0.1193 0.2085 0.06314 0.0533 0.14307 0.0825 0.22567 0.0825s0.16253 -0.0292 0.22567 -0.0825c0.06313 -0.0532 0.10539 -0.1271 0.1193 -0.2085 0 -0.55 0 -1.0999 0.05 -1.64989 0.69901 0.65839 1.22451 1.47939 1.52991 2.38979 0.1831 0.4356 0.3107 0.8925 0.3799 1.3599 0.0953 0.4382 0.0953 0.8917 0 1.3299 -0.0748 0.3351 -0.2103 0.6536 -0.3999 0.9399 -0.2086 0.2994 -0.4538 0.5715 -0.73 0.8099 -0.0703 0.057 -0.115 0.1396 -0.1244 0.2296 -0.0094 0.09 0.0174 0.1801 0.0744 0.2504 0.057 0.0702 0.1396 0.115 0.2296 0.1244 0.0901 0.0093 0.1801 -0.0174 0.2504 -0.0744 0.3644 -0.2331 0.7 -0.5083 0.9999 -0.82 0.3444 -0.4021 0.6035 -0.8701 0.7617 -1.3754 0.1581 -0.5054 0.2119 -1.0375 0.1582 -1.5643l-0.07 -0.03ZM8.21181 6.60957c-0.3872 -0.02912 -0.75978 -0.16022 -1.07991 -0.37996 -0.40447 -0.27198 -0.70286 -0.67502 -0.84492 -1.14127 -0.14206 -0.46625 -0.11911 -0.9672 0.06499 -1.41851 0.32583 -1.04893 1.0416 -1.93291 1.99982 -2.46978 0.4914 -0.297098 1.04689 -0.471976 1.61986 -0.509954 0.47725 0.048969 0.93395 0.21932 1.32675 0.494824 0.3928 0.2755 0.7084 0.64698 0.9169 1.07904 0.2086 0.43207 0.303 0.91033 0.2743 1.38922 -0.0287 0.47888 -0.1795 0.94245 -0.4381 1.34654 -0.6295 0.80963 -1.5458 1.34656 -2.55981 1.49986 -0.41861 0.10116 -0.85015 0.13824 -1.27988 0.10999Z" clip-rule="evenodd" stroke-width="1"></path>
  <path fill="#000000" fill-rule="evenodd" d="M7.71181 15.7388c-0.50084 0.675 -0.9204 1.4067 -1.25 2.18 -0.20324 0.5168 -0.36704 1.0484 -0.49 1.59 -0.10219 0.4077 -0.17571 0.822 -0.22 1.24 -0.11465 0.9821 -0.08771 1.9755 0.08 2.95 0.01248 0.0893 0.05896 0.1704 0.12976 0.2263 0.0708 0.0559 0.16045 0.0823 0.25024 0.0737 0.04532 -0.0036 0.0894 -0.0165 0.12949 -0.0379 0.04009 -0.0215 0.07533 -0.0509 0.10349 -0.0866 0.02817 -0.0357 0.04866 -0.0768 0.06019 -0.1208 0.01154 -0.0439 0.01386 -0.0898 0.00683 -0.1347 -0.01982 -0.9104 0.06745 -1.82 0.26 -2.71 0.08 -0.38 0.16 -0.76 0.25 -1.14 0.09 -0.38 0.27 -1 0.42 -1.51 0.21541 -0.7569 0.48958 -1.4958 0.82 -2.21 0.03184 -0.0671 0.03768 -0.1436 0.01641 -0.2147 -0.02128 -0.0711 -0.06816 -0.1318 -0.13159 -0.1703 -0.06343 -0.0386 -0.1389 -0.0523 -0.21183 -0.0384 -0.07292 0.0138 -0.13812 0.0542 -0.18299 0.1134h-0.04Z" clip-rule="evenodd" stroke-width="1"></path>
  <path fill="#000000" fill-rule="evenodd" d="M20.7012 19.2187c-0.0427 -0.0099 -0.0872 -0.0099 -0.13 0l0.07 -0.09c0.0274 -0.036 0.0472 -0.077 0.0585 -0.1208 0.0113 -0.0437 0.0137 -0.0892 0.0072 -0.1339 -0.0065 -0.0447 -0.0219 -0.0876 -0.0452 -0.1263 -0.0232 -0.0387 -0.054 -0.0724 -0.0905 -0.099 -0.0735 -0.0526 -0.1646 -0.0747 -0.254 -0.0617 -0.0895 0.0131 -0.1705 0.0602 -0.226 0.1317 -0.1699 0.211 -0.4059 0.359 -0.67 0.42 -0.1167 0.0323 -0.2388 0.041 -0.359 0.0256 -0.1202 -0.0155 -0.2361 -0.0548 -0.341 -0.1156 -0.1479 -0.1028 -0.2853 -0.22 -0.41 -0.35 -0.22 -0.24 -0.42 -0.5 -0.64 -0.73 -0.3091 -0.3133 -0.6784 -0.5608 -1.0857 -0.7275 -0.4073 -0.1667 -0.8442 -0.2492 -1.2843 -0.2425 -0.6881 0.0056 -1.3515 0.2575 -1.87 0.71l-0.15 -0.14c-0.25 -0.23 -0.49 -0.48 -0.66 -0.66 -0.027 -0.0285 -0.0596 -0.0511 -0.0957 -0.0666 -0.0361 -0.0155 -0.075 -0.0234 -0.1143 -0.0234 -0.0392 0 -0.0781 0.0079 -0.1142 0.0234 -0.0361 0.0155 -0.0687 0.0381 -0.0958 0.0666 -0.0287 0.0279 -0.0515 0.0613 -0.0671 0.0983 -0.0156 0.0369 -0.0236 0.0766 -0.0236 0.1167 0 0.04 0.008 0.0797 0.0236 0.1167 0.0156 0.0369 0.0384 0.0703 0.0671 0.0983 0.16 0.2 0.41 0.48 0.66 0.74l0.16 0.16c-0.2782 0.4586 -0.4457 0.9757 -0.4891 1.5104 -0.0434 0.5347 0.0385 1.0721 0.2391 1.5696 0.179 0.4932 0.4714 0.9375 0.8535 1.297 0.3821 0.3596 0.8434 0.6243 1.3465 0.773 0.6528 0.1597 1.331 0.1863 1.9942 0.078 0.6632 -0.1082 1.2978 -0.349 1.8658 -0.708 0.5573 -0.3533 1.0352 -0.8183 1.4035 -1.3656 0.3684 -0.5474 0.6192 -1.1652 0.7365 -1.8144 0.0087 -0.0417 0.0084 -0.0847 -0.0009 -0.1263 -0.0093 -0.0415 -0.0273 -0.0806 -0.0528 -0.1147 -0.0255 -0.034 -0.058 -0.0623 -0.0953 -0.0828 -0.0373 -0.0205 -0.0785 -0.0329 -0.121 -0.0362Zm-2.31 2.78c-0.475 0.2572 -0.9973 0.4155 -1.5353 0.4653 -0.5379 0.0499 -1.0804 -0.0098 -1.5947 -0.1753 -0.3392 -0.1096 -0.6476 -0.2981 -0.8997 -0.5502 -0.2521 -0.2521 -0.4407 -0.5605 -0.5503 -0.8998 -0.1358 -0.3196 -0.1965 -0.6661 -0.1775 -1.0128 0.0191 -0.3468 0.1175 -0.6845 0.2875 -0.9872 0.1488 -0.2466 0.3563 -0.4524 0.6042 -0.599 0.2478 -0.1466 0.5281 -0.2294 0.8158 -0.241 0.304 -0.0233 0.6096 0.0153 0.8983 0.1132 0.2887 0.098 0.5546 0.2533 0.7817 0.4568 0.27 0.25 0.52 0.55 0.81 0.8 0.1407 0.1266 0.295 0.2373 0.46 0.33 0.3802 0.1938 0.8196 0.2367 1.23 0.12 -0.1682 0.1338 -0.3491 0.251 -0.54 0.35 -0.1722 0.0835 -0.3492 0.157 -0.53 0.22 -0.1773 0.0592 -0.3575 0.1093 -0.54 0.15 -0.2038 0.0662 -0.4191 0.0898 -0.6325 0.0691 -0.2133 -0.0206 -0.4201 -0.085 -0.6075 -0.1891 -0.0583 -0.0557 -0.1364 -0.086 -0.217 -0.0841 -0.0807 0.0019 -0.1573 0.0357 -0.213 0.0941 -0.0556 0.0583 -0.0859 0.1364 -0.084 0.217 0.0019 0.0807 0.0357 0.1573 0.094 0.213 0.2157 0.2568 0.4874 0.4607 0.7943 0.596 0.3069 0.1352 0.6407 0.1982 0.9757 0.184 0.2795 -0.0149 0.5555 -0.0687 0.82 -0.16 0.2091 -0.0863 0.4071 -0.1971 0.59 -0.33 -0.2951 0.341 -0.647 0.6286 -1.04 0.85Z" clip-rule="evenodd" stroke-width="1"></path>
  <path fill="#000000" fill-rule="evenodd" d="M11.1014 19.7586c-0.1535 -0.5349 -0.3578 -1.054 -0.61 -1.55 -0.0124 -0.0375 -0.0321 -0.0721 -0.0579 -0.102 -0.0259 -0.0298 -0.0574 -0.0542 -0.0927 -0.0719 -0.0353 -0.0176 -0.0737 -0.0281 -0.1131 -0.0309 -0.0393 -0.0028 -0.0789 0.0022 -0.1163 0.0148 -0.0764 0.0272 -0.13905 0.0833 -0.17457 0.1562 -0.03552 0.0729 -0.04105 0.1568 -0.01541 0.2338 0.11998 0.52 0.15998 1 0.22998 1.54l0.15 1 0.12 1c0.06 0.52 0.13 1 0.16 1.57 0 0.0911 0.0355 0.1786 0.099 0.244 0.0635 0.0654 0.1499 0.1034 0.241 0.106 0.0911 0 0.1787 -0.0355 0.244 -0.099 0.0654 -0.0635 0.1034 -0.1499 0.106 -0.241 0.0665 -0.5443 0.1033 -1.0918 0.11 -1.64 -0.0034 -0.3644 -0.0268 -0.7282 -0.07 -1.09 -0.0462 -0.3511 -0.1164 -0.6985 -0.21 -1.04Z" clip-rule="evenodd" stroke-width="1"></path>
</svg>