<svg xmlns="http://www.w3.org/2000/svg" fill="none" viewBox="0 0 24 24" id="Disability-Sit-Pregnancy--Streamline-Freehand">
  <desc>
    Disability Sit Pregnancy Streamline Icon: https://streamlinehq.com
  </desc>
  <path fill="#000000" fill-rule="evenodd" d="M10.4939 19.6796c-0.048 -0.3456 -0.1456 -0.6824 -0.29 -1 -0.1202 -0.2771 -0.31817 -0.5133 -0.56999 -0.68 -0.27309 -0.17 -0.56506 -0.3076 -0.87 -0.41 -0.77 -0.25 -1.64 -0.42 -2.32 -0.59 -0.2286 -0.0317 -0.44914 -0.1064 -0.65 -0.22 -0.11 -0.12 -0.06 -0.32 0 -0.52 0 -0.36 0.09 -0.73 0.12 -1 0 -0.65 0.12 -1.3 0.15 -1.94v-1.34c-0.00601 -0.3705 -0.0806 -0.7367 -0.22 -1.08 -0.10371 -0.2725 -0.28875 -0.5064 -0.53 -0.67 -0.34608 -0.165 -0.72688 -0.24388 -1.11 -0.23003 -0.50138 -0.03554 -1.00524 -0.00867 -1.5 0.08003 -0.03977 0.0071 -0.0777 0.0222 -0.11149 0.0443 -0.0338 0.0222 -0.06277 0.0509 -0.08519 0.0846 -0.02241 0.0336 -0.0378 0.0714 -0.04525 0.1111 -0.00744 0.0397 -0.00679 0.0805 0.00193 0.12 0.01683 0.0764 0.06284 0.1432 0.12822 0.1861 0.06539 0.043 0.14497 0.0587 0.22178 0.0439 0.3658 -0.0356 0.7342 -0.0356 1.1 0 0.3245 0.0111 0.64093 0.104 0.92 0.27 0.13079 0.1168 0.21585 0.2763 0.24 0.45 0.03357 0.2153 0.03357 0.4346 0 0.65l-0.39 3.17c-0.09509 0.4908 -0.13866 0.9901 -0.13 1.49 0.0157 0.327 0.13871 0.6398 0.35 0.89 0.3215 0.2291 0.6972 0.3704 1.09 0.41 1.07471 0.1474 2.13066 0.4089 3.15 0.78 0.13542 0.0854 0.24042 0.2114 0.3 0.36 0.08958 0.2098 0.15987 0.4274 0.21 0.65 0.0988 0.4325 0.17556 0.8697 0.23 1.31 0.02642 0.4396 0.02642 0.8804 0 1.32 0 0.0901 0.03582 0.1766 0.09958 0.2404 0.06381 0.0637 0.15021 0.0996 0.24041 0.0996s0.1767 -0.0359 0.2404 -0.0996c0.0638 -0.0638 0.0996 -0.1503 0.0996 -0.2404 0.0469 -0.4685 0.067 -0.9393 0.06 -1.41 -0.0194 -0.4454 -0.0628 -0.8894 -0.13 -1.33Z" clip-rule="evenodd" stroke-width="1"></path>
  <path fill="#000000" fill-rule="evenodd" d="M9.52391 6.88013c0.41933 0.03112 0.84099 -0.00261 1.24999 -0.1 0.4374 -0.09512 0.8519 -0.27519 1.22 -0.53 0.5223 -0.41659 0.9232 -0.96583 1.1607 -1.59031 0.2375 -0.62449 0.3028 -1.30129 0.1893 -1.95969 -0.0742 -0.66467 -0.3684 -1.28547 -0.8359 -1.763785 -0.4674 -0.478316 -1.0813 -0.786719 -1.7441 -0.8762178C8.81391 -0.159873 8.16391 0.260127 7.62391 0.660127c-0.69392 0.516223 -1.17145 1.271713 -1.34 2.120003 -0.07732 0.48256 -0.05417 0.97589 0.068 1.4491 0.12217 0.4732 0.34073 0.91608 0.642 1.3009 0.30752 0.38547 0.69056 0.70406 1.12562 0.9362 0.43506 0.23215 0.91295 0.37296 1.40438 0.4138Zm-1.42 -5.63c0.13 -0.12 0.64 -0.790003 2.55999 -0.460003 0.4726 0.089344 0.9013 0.335273 1.217 0.698133 0.3157 0.36285 0.4999 0.82147 0.523 1.30187 0.0595 0.47763 -0.0103 0.96247 -0.202 1.40395 -0.1917 0.44149 -0.4984 0.82345 -0.888 1.10605 -0.2429 0.1605 -0.5146 0.27256 -0.8 0.33 -0.2949 0.06755 -0.59818 0.09114 -0.89999 0.07 -0.3422 -0.02157 -0.67645 -0.11247 -0.98244 -0.26719 -0.30599 -0.15471 -0.57733 -0.37001 -0.79756 -0.63281 -0.22939 -0.26482 -0.40333 -0.57295 -0.51154 -0.90618 -0.10822 -0.33322 -0.1485 -0.68476 -0.11846 -1.03382 0.08953 -0.62986 0.41037 -1.20381 0.9 -1.61Z" clip-rule="evenodd" stroke-width="1"></path>
  <path fill="#000000" fill-rule="evenodd" d="M21.4937 15.7297c-0.1123 -0.8887 -0.394 -1.7475 -0.83 -2.53 -0.5397 -0.9066 -1.274 -1.682 -2.15 -2.27 -0.9227 -0.5028 -1.9499 -0.7835 -3 -0.82 -0.47 0 -1.56 0 -2.46 -0.08 -0.2895 -0.0247 -0.573 -0.09559 -0.84 -0.20999 -0.13 -0.06 -0.22 -0.12 -0.22 -0.22 -0.0418 -0.58339 -0.2578 -1.1408 -0.62 -1.6 -0.2301 -0.1973 -0.5008 -0.34165 -0.7928 -0.42286 -0.292 -0.08122 -0.59831 -0.09731 -0.89724 -0.04714 -0.42955 0.0018 -0.84891 0.13105 -1.20494 0.37138 -0.35604 0.24032 -0.63274 0.58091 -0.79506 0.97862 -0.4022 1.07225 -0.57591 2.21669 -0.51 3.35999 -0.05113 0.9868 0.23837 1.9612 0.82 2.76 0.64434 0.6647 1.49286 1.0942 2.41004 1.22 0.45 0.11 0.87 0.19 1.06 0.56 0.3038 0.6616 0.4835 1.3734 0.53 2.1 0.0755 0.7414 0.0755 1.4886 0 2.23 -0.0947 0.7804 0.1207 1.5668 0.6 2.19 0.1866 0.2183 0.4181 0.3938 0.6787 0.5145 0.2605 0.1208 0.5441 0.1841 0.8313 0.1855 0.6402 0.0155 1.2624 -0.2133 1.74 -0.64 0.471 -0.4063 0.7915 -0.9593 0.91 -1.57 0.1 -0.53 0.19 -1.22 0.25 -1.9 0.06 -0.68 0.08 -1.25 0.09 -1.73 0.1402 -0.0531 0.2838 -0.0965 0.43 -0.13 0.89 -0.06 2.16 0.1 2.83 0 0.2886 -0.0192 0.5613 -0.1396 0.77 -0.34 0.3689 -0.5821 0.5013 -1.2834 0.37 -1.96Zm-1.14 1.2h-0.66c-0.8657 -0.0594 -1.7344 -0.0594 -2.6 0 -0.76 0.12 -1.15 0.52 -1.14 1.05 0.0004 0.6045 -0.0297 1.2086 -0.09 1.81 -0.06 0.64 -0.14 1.29 -0.23 1.8 -0.0697 0.3542 -0.2564 0.6747 -0.53 0.91 -0.2548 0.2386 -0.591 0.3709 -0.94 0.37 -0.17 0.0004 -0.3372 -0.0426 -0.4859 -0.1249 -0.1488 -0.0822 -0.2741 -0.201 -0.3641 -0.3451 -0.1896 -0.3665 -0.2727 -0.7787 -0.24 -1.19 0.1016 -0.9793 0.0747 -1.9677 -0.08 -2.94 -0.1134 -0.6673 -0.3328 -1.3121 -0.65 -1.91 -0.1945 -0.2794 -0.4471 -0.5135 -0.7406 -0.6861 -0.2934 -0.1726 -0.6207 -0.2797 -0.9594 -0.3139 -0.74566 -0.0565 -1.45037 -0.363 -2.00004 -0.87 -0.47303 -0.6812 -0.70208 -1.5023 -0.65 -2.33 -0.08325 -1.0148 0.04269 -2.0358 0.37 -2.99999 0.10196 -0.28471 0.28706 -0.53224 0.53133 -0.71053 0.24426 -0.1783 0.53643 -0.27914 0.83867 -0.28947 0.61004 0 1.00004 0.06 1.22004 0.31 0.2502 0.3761 0.3825 0.81829 0.38 1.27 0.06 0.46999 0.52 0.80999 1.21 0.99999 0.9656 0.1568 1.9417 0.2403 2.92 0.25 0.9237 0.0535 1.8232 0.3169 2.63 0.77 0.7395 0.555 1.353 1.2605 1.8 2.07 0.2701 0.5411 0.4523 1.1217 0.54 1.72 0.1098 0.4578 0.082 0.9379 -0.08 1.38Z" clip-rule="evenodd" stroke-width="1"></path>
</svg>