<svg xmlns="http://www.w3.org/2000/svg" fill="none" viewBox="0 0 24 24" id="Garbage-Throw--Streamline-Freehand">
  <desc>
    Garbage Throw Streamline Icon: https://streamlinehq.com
  </desc>
  <path fill="#000000" fill-rule="evenodd" d="M7.20867 16.3034c-0.93891 -0.05 -2.46713 0 -3.0964 0s-1.24855 -0.1199 -1.90779 -0.1099c-0.46213 -0.0137 -0.92187 0.0714 -1.348432 0.2497 -0.072513 0.0309 -0.129945 0.0891 -0.159858 0.162 -0.029912 0.0729 -0.029897 0.1547 0.000043 0.2276 0.034748 0.0716 0.094955 0.1276 0.168846 0.1572 0.073891 0.0295 0.156151 0.0305 0.230691 0.0026 0.35658 -0.1199 0.73352 -0.1675 1.10871 -0.1399 0.63926 0 1.29849 0.1599 1.83787 0.2298 0.53937 0.0699 1.78792 0.0899 2.72683 0.1698 0.93891 0.0799 0.90895 -0.1898 0.76911 0.5993 -0.07696 0.3819 -0.17703 0.7589 -0.29965 1.1287l-0.56934 2.4871c0 0.1798 -0.10988 0.4994 -0.20976 0.809 -0.09988 0.3097 -0.0899 0.3796 -0.19977 0.4495 -0.43263 0.1366 -0.88488 0.2008 -1.33844 0.1898 -0.63132 0.057 -1.26648 0.057 -1.8978 0 -0.0899 0 -0.17979 -0.0699 -0.22973 -0.0599 -0.36633 -0.5978 -0.62969 -1.2528 -0.7791 -1.9378 -0.29965 -1.1287 -0.4295 -2.3373 -0.61928 -3.4759 -0.00287 -0.047 -0.01549 -0.0929 -0.03704 -0.1348 -0.02156 -0.0419 -0.05159 -0.0788 -0.08818 -0.1084 -0.03659 -0.0297 -0.07895 -0.0514 -0.12437 -0.0638 -0.04543 -0.0123 -0.09294 -0.0152 -0.13951 -0.0082 -0.046576 0.0069 -0.091194 0.0235 -0.131024 0.0486 -0.039829 0.0251 -0.074 0.0583 -0.100342 0.0973 -0.026342 0.039 -0.044279 0.0831 -0.052673 0.1294 -0.008393 0.0464 -0.007059 0.094 0.003917 0.1397 0.139838 1.1687 0.209757 2.4072 0.459462 3.5759 0.16997 0.8354 0.48794 1.6337 0.93891 2.3573 0.09508 0.1231 0.22327 0.2167 0.36958 0.2696 0.52379 0.1461 1.06438 0.2233 1.60813 0.2298 0.94496 0.0809 1.8965 -0.0312 2.79675 -0.3296 0.22102 -0.1642 0.39357 -0.3851 0.49942 -0.6393 0.16355 -0.4074 0.29057 -0.8286 0.37956 -1.2585l0.52938 -2.4672c0.17432 -0.5481 0.28492 -1.1145 0.32962 -1.688 0.02033 -0.193 -0.00425 -0.3881 -0.07183 -0.5701 -0.06757 -0.1819 -0.17631 -0.3458 -0.31772 -0.4787 -0.32105 -0.1647 -0.67801 -0.2471 -1.03879 -0.2397Z" clip-rule="evenodd" stroke-width="1"></path>
  <path fill="#000000" fill-rule="evenodd" d="M23.1901 12.5278c-0.0961 -1.2596 -0.6462 -2.4416 -1.5482 -3.32611 -0.6077 -0.48229 -1.3444 -0.77419 -2.1175 -0.83903 -0.9982 -0.05337 -1.9984 -0.05337 -2.9965 0h-5.8732c-1.30851 0 -2.62698 0.07991 -3.93546 0.18978 -0.53362 0.00426 -1.05834 0.13724 -1.52959 0.38764 -0.47124 0.25041 -0.8751 0.61084 -1.17726 1.05069 -0.21023 0.35583 -0.29218 0.77303 -0.2322 1.18193 0.05997 0.4089 0.25826 0.785 0.56181 1.0655 0.96117 0.7428 2.16548 1.0991 3.37608 0.9988 1.59815 0 3.41602 -0.1498 4.64462 0.2897 0.2563 0.0739 0.4897 0.2117 0.6784 0.4003 0.1886 0.1887 0.3264 0.4221 0.4003 0.6784 0.2357 0.8015 0.3897 1.6247 0.4595 2.4572 0.0612 0.8412 0.0612 1.6858 0 2.527 0 0.4495 -0.0799 1.3984 -0.1099 2.3073v1.5582c0 0.0901 0.0358 0.1765 0.0995 0.2402s0.1501 0.0994 0.2401 0.0994c0.0901 0 0.1765 -0.0357 0.2402 -0.0994s0.0994 -0.1501 0.0994 -0.2402v-1.5182c0.05 -0.899 0.1199 -1.8379 0.1499 -2.2873 0.0633 -0.8779 0.0633 -1.7591 0 -2.637 -0.0588 -0.8848 -0.206 -1.7615 -0.4395 -2.6169 -0.0998 -0.3942 -0.2978 -0.7566 -0.5755 -1.0535 -0.2777 -0.2969 -0.6261 -0.5187 -1.0127 -0.6446 -1.2885 -0.4894 -3.22623 -0.3695 -4.92426 -0.4494 -0.94315 0.0871 -1.88536 -0.176 -2.64692 -0.7392 -0.08575 -0.0777 -0.15428 -0.1725 -0.20118 -0.2783s-0.07113 -0.2203 -0.07113 -0.336c0 -0.1157 0.02423 -0.2301 0.07113 -0.3359 0.0469 -0.1058 0.11543 -0.2006 0.20118 -0.2784 0.44899 -0.40953 1.03055 -0.64358 1.63809 -0.6592 1.28851 -0.09988 2.57701 -0.13983 3.86549 -0.15981h5.8532c0.9681 -0.05526 1.9386 -0.05526 2.9067 0 0.5581 0.03178 1.0939 0.23009 1.5382 0.56931 0.7698 0.6853 1.2575 1.6322 1.3684 2.6569 0.1875 1.6577 0.2509 3.3271 0.1898 4.9942 -0.0096 0.5999 -0.1422 1.1914 -0.3896 1.738 -0.1598 0.3197 -0.3596 0.5993 -0.6492 0.6193 -0.1853 0.0242 -0.3737 0.0037 -0.5494 -0.0599 -0.1565 -0.0691 -0.2912 -0.1796 -0.3895 -0.3197 -0.2275 -0.3609 -0.3614 -0.7729 -0.3896 -1.1986 -0.1298 -1.1486 -0.2597 -2.2274 -0.3496 -3.3561 -0.0499 -0.7191 -0.0999 -1.4583 -0.1199 -2.2374 0.0014 -0.0397 -0.0054 -0.0793 -0.0199 -0.1163 -0.0146 -0.037 -0.0366 -0.0705 -0.0647 -0.0987 -0.0281 -0.0281 -0.0617 -0.0501 -0.0987 -0.0647 -0.037 -0.0145 -0.0766 -0.0213 -0.1163 -0.0199 -0.0402 0 -0.08 0.008 -0.117 0.0237 -0.0371 0.0157 -0.0705 0.0387 -0.0985 0.0675 -0.028 0.0289 -0.0498 0.0632 -0.0643 0.1007 -0.0144 0.0375 -0.0212 0.0775 -0.0199 0.1177 0 0.7891 0 1.5382 0.08 2.2674 0.0599 1.1487 0.1698 2.2374 0.2696 3.3861 0.022 0.6703 0.2682 1.314 0.6992 1.8278 0.1207 0.11 0.255 0.204 0.3996 0.2797 -0.05 0.2297 -0.1099 0.4795 -0.1499 0.7891 -0.0102 0.1663 -0.0102 0.3331 0 0.4994v0.4994c0.05 0.4595 0.1399 0.869 0.1798 1.1587 0 0.091 0.0354 0.1784 0.0989 0.2437 0.0634 0.0653 0.1498 0.1033 0.2407 0.1059 0.0884 0 0.1733 -0.0344 0.2367 -0.0959 0.0634 -0.0616 0.1003 -0.1454 0.1029 -0.2337 0.0895 -0.3892 0.1596 -0.7825 0.2098 -1.1787 0.0104 -0.1663 0.0104 -0.3331 0 -0.4994 0.0152 -0.1661 0.0152 -0.3333 0 -0.4994 -0.0233 -0.1987 -0.06 -0.3956 -0.1099 -0.5893h0.1399c0.2923 -0.0345 0.5705 -0.1448 0.8071 -0.32 0.2365 -0.1752 0.4231 -0.4093 0.5413 -0.6789 0.3404 -0.6671 0.5345 -1.3993 0.5693 -2.1475 0.1075 -1.7206 0.0841 -3.4469 -0.0699 -5.164Z" clip-rule="evenodd" stroke-width="1"></path>
  <path fill="#000000" fill-rule="evenodd" d="M15.6888 7.24391c1.19 0.20713 2.4144 -0.03491 3.436 -0.67921 0.5279 -0.33407 0.9481 -0.81332 1.2103 -1.38026 0.2622 -0.56695 0.3553 -1.1975 0.268 -1.81603 -0.0837 -0.50247 -0.2697 -0.98243 -0.5463 -1.41021 -0.2766 -0.42779 -0.638 -0.7943 -1.0618 -1.076897 -0.2982 -0.220207 -0.6493 -0.357476 -1.0178 -0.39783 -0.3684 -0.040355 -0.741 0.017646 -1.0798 0.168097 -0.0421 0.015149 -0.0806 0.038977 -0.1129 0.069942 -0.0323 0.030964 -0.0578 0.068374 -0.0747 0.109806 -0.017 0.041432 -0.025 0.085963 -0.0237 0.130707 0.0014 0.044745 0.0121 0.088705 0.0315 0.129035 0.0353 0.08145 0.101 0.14587 0.1831 0.17947 0.0822 0.0336 0.1742 0.03372 0.2564 0.00032 0.2968 -0.08442 0.6114 -0.08227 0.907 0.00622 0.2955 0.08848 0.5596 0.2596 0.7611 0.4932 0.4726 0.44258 0.7763 1.0359 0.859 1.67805 0.0342 0.43832 -0.0566 0.87735 -0.2616 1.26625 -0.2051 0.3889 -0.5161 0.71176 -0.8971 0.9312 -0.7971 0.46982 -1.7368 0.6365 -2.6469 0.46946 -0.339 -0.05021 -0.6642 -0.16882 -0.9559 -0.34864 -0.2917 -0.17982 -0.5437 -0.41708 -0.7409 -0.69737 -0.1971 -0.28028 -0.3352 -0.59773 -0.4058 -0.93305 -0.0706 -0.33531 -0.0723 -0.68148 -0.0049 -1.01747 0.0048 -0.35544 0.0854 -0.70576 0.2365 -1.02753 0.1511 -0.32176 0.3692 -0.60756 0.6396 -0.83828 0.2705 -0.23072 0.587 -0.401038 0.9286 -0.49957 0.3415 -0.098533 0.7002 -0.123006 1.0519 -0.071785 0.0394 0.01033 0.0805 0.012523 0.1208 0.006443 0.0403 -0.00608 0.0789 -0.020304 0.1135 -0.041804 0.0345 -0.0215 0.0644 -0.049824 0.0877 -0.083244 0.0232 -0.033419 0.0394 -0.071232 0.0476 -0.111128 0.0148 -0.079359 -0.002 -0.16136 -0.0467 -0.228528 -0.0448 -0.067169 -0.1141 -0.114194 -0.193 -0.1310547C14.6001 -0.407201 13.1618 1.20093 12.8621 3.00883c-0.103 0.46443 -0.1109 0.9449 -0.0233 1.41248 0.0876 0.46757 0.2689 0.91259 0.5329 1.30827 0.2641 0.39567 0.6056 0.73381 1.0038 0.99406 0.3982 0.26024 0.8449 0.43722 1.3133 0.52027Z" clip-rule="evenodd" stroke-width="1"></path>
  <path fill="#000000" fill-rule="evenodd" d="M3.58284 13.6664c-0.08921 -0.31 -0.28355 -0.5792 -0.54967 -0.7615 -0.26611 -0.1822 -0.58738 -0.2662 -0.90863 -0.2373 -0.03765 -0.0171 -0.07852 -0.026 -0.11987 -0.026 -0.04134 0 -0.08221 0.0089 -0.11986 0.026 -0.27157 0.1248 -0.51854 0.2973 -0.72915 0.5094 -0.208742 0.2197 -0.33264 0.5064 -0.349594 0.809 -0.006364 0.1773 0.030286 0.3535 0.10682 0.5135 0.076534 0.16 0.190674 0.2991 0.332674 0.4055 0.18469 0.1384 0.39942 0.2314 0.62677 0.2713 0.22734 0.0399 0.4609 0.0257 0.68171 -0.0416 0.16511 -0.0264 0.32324 -0.0858 0.46498 -0.1745 0.14175 -0.0887 0.26424 -0.2049 0.3602 -0.3419 0.09595 -0.1369 0.16342 -0.2918 0.1984 -0.4553 0.03498 -0.1635 0.03675 -0.3324 0.00522 -0.4966Zm-1.32846 0.7691c-0.06114 0.0279 -0.12756 0.0423 -0.19477 0.0423 -0.0672 0 -0.13363 -0.0144 -0.19477 -0.0423 -0.0776 -0.047 -0.14209 -0.1129 -0.18748 -0.1914 -0.0454 -0.0786 -0.07024 -0.1674 -0.07222 -0.2581 -0.03237 -0.1751 -0.00045 -0.3559 0.08989 -0.5094 0.09164 -0.1204 0.19916 -0.228 0.31963 -0.3196 0.18316 -0.0174 0.366 0.0361 0.51092 0.1494 0.14492 0.1134 0.24089 0.2779 0.26818 0.4599 0.01681 0.1602 -0.0305 0.3205 -0.13158 0.4459 -0.10107 0.1254 -0.24769 0.2057 -0.4078 0.2233Z" clip-rule="evenodd" stroke-width="1"></path>
</svg>