<svg xmlns="http://www.w3.org/2000/svg" fill="none" viewBox="0 0 24 24" id="Safety-Danger-Mudslide--Streamline-Freehand">
  <desc>
    Safety Danger Mudslide Streamline Icon: https://streamlinehq.com
  </desc>
  <path fill="#000000" fill-rule="evenodd" d="M14.9699 17.6226c-0.9294 -0.6669 -1.9029 -1.2703 -2.9136 -1.806 -0.323 -0.2239 -0.5839 -0.526 -0.7584 -0.8781 -0.1199 -0.2418 -0.2007 -0.5012 -0.2394 -0.7683 -0.2295 -1.2772 0 -2.774 -0.4391 -3.9913 -0.1039 -0.2648 -0.245 -0.51342 -0.4191 -0.73839 -0.31083 -0.35367 -0.64413 -0.68696 -0.99779 -0.99782 -0.28629 -0.24367 -0.50026 -0.56118 -0.61865 -0.918 -0.18959 -0.76832 0 -1.68631 -0.12972 -2.50452 -0.05279 -0.4262 -0.21429 -0.83165 -0.46897 -1.17743 -0.15229 -0.19357 -0.33413 -0.36194 -0.53883 -0.49891 -0.45899 -0.29935 -0.94793 -0.50889 -1.3271 -0.72841 -0.70845 -0.41909 -1.26723 -0.87808 -1.91581 -1.24728 -0.29517 -0.17731 -0.60576 -0.32759 -0.92797 -0.449015C3.23815 0.90485 3.19837 0.898184 3.15845 0.899521c-0.03991 0.001336 -0.07916 0.010647 -0.11543 0.027384 -0.03626 0.016737 -0.06881 0.040563 -0.09572 0.070073 -0.02692 0.029512 -0.04766 0.064112 -0.06099 0.101752 -0.02671 0.07427 -0.02402 0.15593 0.00752 0.22827 0.03153 0.07234 0.08953 0.1299 0.16211 0.16088 0.28848 0.11366 0.56575 0.25396 0.82819 0.41909 0.62862 0.39913 1.16745 0.87808 1.86592 1.31712 0.30932 0.18959 0.70845 0.38915 1.05769 0.61865 0.19183 0.12642 0.36341 0.28118 0.50889 0.459 0.16779 0.24942 0.26754 0.53834 0.28936 0.83816 0.09979 0.85813 -0.11973 1.79608 0 2.60431 0.08191 0.27884 0.21009 0.54194 0.37918 0.7783 0.45899 0.71843 1.35703 1.17743 1.63642 1.99569 0.38911 1.1474 0.09978 2.5843 0.29935 3.8016 0.05322 0.3793 0.16076 0.749 0.31926 1.0976 0.2577 0.5137 0.6381 0.9558 1.1076 1.2872 0.9684 0.5094 1.9018 1.0827 2.7939 1.7163 0.309 0.3859 0.5089 0.8476 0.5788 1.3371 0.1418 0.6821 0.2451 1.3717 0.3093 2.0655 -0.5089 0.0598 -0.9978 0.1496 -1.5367 0.2095 -0.2794 0 -0.5587 0.0499 -0.8481 0.0599 -1.7362 0 -3.46245 -0.1796 -5.19866 -0.2196H6.10926c-1.33707 0 -2.69411 0.1797 -3.99128 0.1896 -0.57941 0.0164 -1.159288 -0.0036 -1.736202 -0.0598 -0.089598 -0.0086 -0.179048 0.0177 -0.249694 0.0735 -0.0706451 0.0558 -0.1170295 0.1367 -0.12947787 0.2258 -0.0055605 0.0446 -0.002202668 0.0899 0.00987837 0.1332 0.0120811 0.0433 0.0326446 0.0837 0.0604959 0.119 0.0278516 0.0353 0.0624356 0.0647 0.1017426 0.0865s0.082554 0.0355 0.127229 0.0405c0.589185 0.0746 1.182248 0.1146 1.776118 0.1197 1.34706 0 2.70409 -0.0698 4.06113 -0.0698h1.27721c1.74618 0.0898 3.48239 0.3392 5.23859 0.3692h0.9978c0.6985 -0.0699 1.377 -0.1796 2.0854 -0.2196 0.0751 -0.0048 0.1484 -0.025 0.2153 -0.0593 0.067 -0.0343 0.1262 -0.0821 0.1739 -0.1402 0.0483 -0.0595 0.0839 -0.1283 0.1045 -0.2021 0.0205 -0.0738 0.0257 -0.1511 0.0152 -0.227 -0.0847 -1.0742 -0.2448 -2.1412 -0.4789 -3.193 -0.1396 -0.5391 -0.4143 -1.0336 -0.7983 -1.4369Z" clip-rule="evenodd" stroke-width="1"></path>
  <path fill="#000000" fill-rule="evenodd" d="M23.9503 15.7767c-0.449 -2.9137 -2.6442 -2.3848 -3.3128 -1.9957 -0.8773 0.472 -1.5465 1.255 -1.8759 2.1952 -0.1271 0.4056 -0.1519 0.8363 -0.0721 1.2537 0.0798 0.4174 0.2617 0.8086 0.5294 1.1386 0.2678 0.3301 0.6131 0.5887 1.0052 0.7528 0.392 0.1641 0.8186 0.2285 1.2416 0.1876 0.4588 -0.0562 0.8968 -0.2238 1.276 -0.4882 0.3791 -0.2643 0.6879 -0.6174 0.8993 -1.0284 0.3242 -0.6189 0.433 -1.3281 0.3093 -2.0156Zm-1.1276 1.4867c-0.1558 0.2514 -0.3692 0.4621 -0.6225 0.6147 -0.2533 0.1527 -0.5392 0.243 -0.8343 0.2634 -0.2799 0.0286 -0.5621 -0.0251 -0.812 -0.1545s-0.4566 -0.3288 -0.5949 -0.5739c-0.1384 -0.2283 -0.2173 -0.4877 -0.2295 -0.7544 -0.0122 -0.2667 0.0427 -0.5323 0.1597 -0.7723 0.2319 -0.5737 0.6275 -1.0664 1.1375 -1.4169 0.429 -0.2794 1.9058 -0.8581 2.0754 1.397 0.0413 0.4875 -0.0703 0.9757 -0.3193 1.3969h0.0399Z" clip-rule="evenodd" stroke-width="1"></path>
  <path fill="#000000" fill-rule="evenodd" d="M13.8124 9.64005c-0.1883 0.39045 -0.2273 0.83625 -0.1096 1.25345 0.1176 0.4172 0.3837 0.777 0.7482 1.0116 0.3548 0.1698 0.7457 0.2504 1.1387 0.2348 0.393 -0.0157 0.7763 -0.1271 1.1164 -0.3246 0.2656 -0.1339 0.4831 -0.3469 0.6225 -0.6096 0.1394 -0.2627 0.1938 -0.5622 0.1558 -0.8572 -0.0527 -0.35164 -0.2171 -0.677 -0.469 -0.92797 -1.347 -1.38697 -2.6841 -0.87808 -3.203 0.21952Zm2.1553 1.27725c-0.1486 0.062 -0.308 0.0939 -0.469 0.0939 -0.161 0 -0.3204 -0.0319 -0.4689 -0.0939 -0.1802 -0.0846 -0.3199 -0.2367 -0.389 -0.4233 -0.069 -0.1867 -0.062 -0.3931 0.0198 -0.57456 0.4889 -1.6464 1.8659 -0.07983 1.8759 0.45896 0.0199 0.3393 -0.2794 0.459 -0.5688 0.5389Z" clip-rule="evenodd" stroke-width="1"></path>
  <path fill="#000000" fill-rule="evenodd" d="M11.5973 4.04229c0.0902 0.16447 0.1936 0.32132 0.3093 0.46898 0.2936 0.34873 0.6287 0.66036 0.9978 0.92797 0.0308 0.03276 0.0678 0.05913 0.1087 0.07761 0.041 0.01849 0.0852 0.02871 0.1302 0.0301 0.0449 0.00139 0.0897 -0.00608 0.1317 -0.022 0.0421 -0.01591 0.0806 -0.03995 0.1134 -0.07074 0.0327 -0.0308 0.0591 -0.06774 0.0776 -0.10873 0.0184 -0.04098 0.0287 -0.08521 0.0301 -0.13014 0.0014 -0.04494 -0.0061 -0.08971 -0.022 -0.13176 -0.0159 -0.04205 -0.04 -0.08056 -0.0708 -0.11331 -0.2027 -0.34536 -0.3859 -0.70181 -0.5488 -1.06767 -0.1197 -0.23948 -0.2295 -0.48893 -0.3692 -0.71843 -0.2594 -0.40911 -0.5588 -0.75835 -0.8082 -1.1475 -0.0152 -0.03709 -0.0377 -0.07075 -0.0662 -0.09897 -0.0285 -0.02823 -0.0623 -0.05045 -0.0996 -0.06534 -0.0372 -0.01489 -0.077 -0.02215 -0.1171 -0.02135 -0.0401 0.0008 -0.0796 0.00965 -0.1162 0.02601 -0.0368 0.01416 -0.0702 0.03567 -0.0984 0.06322 -0.0281 0.02754 -0.0503 0.06053 -0.0653 0.09696 -0.0149 0.03643 -0.0223 0.07553 -0.0216 0.1149 0.0007 0.03937 0.0094 0.07819 0.0256 0.11407 0.0656 0.42803 0.1589 0.85133 0.2794 1.26723 0.0505 0.17549 0.1173 0.34587 0.1996 0.50889Z" clip-rule="evenodd" stroke-width="1"></path>
  <path fill="#000000" fill-rule="evenodd" d="M19.8193 6.68658c0.1098 0.29935 0.2295 0.58871 0.3492 0.87808 0.1198 0.28937 0.2495 0.57874 0.3493 0.87808 0.1107 0.29521 0.1975 0.59887 0.2594 0.90802 0.0101 0.09174 0.0551 0.17608 0.1257 0.23553s0.1614 0.08945 0.2535 0.08377c0.0909 -0.01007 0.1743 -0.05544 0.2321 -0.12635 0.0579 -0.07091 0.0856 -0.16169 0.0772 -0.25282 0.0138 -0.61317 -0.0431 -1.22588 -0.1696 -1.82601 -0.0567 -0.25835 -0.1335 -0.5119 -0.2295 -0.75834 -0.0931 -0.23067 -0.2032 -0.45413 -0.3293 -0.66854 -0.3167 -0.52576 -0.6736 -1.02617 -1.0677 -1.49673 -0.0447 -0.0662 -0.1133 -0.11251 -0.1914 -0.12925 -0.0782 -0.01674 -0.1597 -0.00261 -0.2277 0.03944 -0.0342 0.01948 -0.0642 0.04577 -0.088 0.07724 -0.0237 0.03147 -0.0408 0.06747 -0.0501 0.10578 -0.0094 0.03832 -0.0108 0.07813 -0.0042 0.11701 0.0066 0.03888 0.0211 0.076 0.0426 0.10908 0.2594 0.59869 0.439 1.17743 0.6685 1.82601Z" clip-rule="evenodd" stroke-width="1"></path>
  <path fill="#000000" fill-rule="evenodd" d="M4.35308 16.2357c-0.00134 0.0393 0.00509 0.0785 0.01892 0.1153 0.01382 0.0368 0.03477 0.0706 0.06165 0.0993 0.02687 0.0287 0.05915 0.0519 0.09497 0.0681 0.03583 0.0163 0.07451 0.0253 0.11382 0.0266 0.21953 0 0.42907 0.0599 0.64859 0.1097 0.19119 0.0433 0.37818 0.1034 0.55878 0.1797 0.19363 0.0849 0.37488 0.1957 0.53882 0.3292 0.24074 0.1671 0.44174 0.3851 0.58871 0.6386 0.28359 0.5313 0.48224 1.1036 0.58872 1.6963 0.00296 0.0496 0.01679 0.098 0.04049 0.1416 0.02371 0.0437 0.05672 0.0816 0.09669 0.1111 0.03998 0.0295 0.08594 0.0499 0.13466 0.0597 0.04871 0.0098 0.09897 0.0087 0.14724 -0.003 0.09096 -0.0101 0.17433 -0.0555 0.23217 -0.1264 0.05785 -0.0709 0.08556 -0.1617 0.07716 -0.2528 0.07774 -0.8826 -0.09885 -1.769 -0.50889 -2.5544 -0.20683 -0.2879 -0.48087 -0.5208 -0.79826 -0.6785 -0.28468 -0.1478 -0.59126 -0.2489 -0.90801 -0.2994 -0.20261 -0.0151 -0.40607 -0.0151 -0.60867 0 -0.27939 0 -0.55878 0 -0.8282 0.0599 -0.07431 0.0023 -0.14511 0.0322 -0.1986 0.0838 -0.05349 0.0517 -0.08584 0.1214 -0.09076 0.1956Z" clip-rule="evenodd" stroke-width="1"></path>
  <path fill="#000000" fill-rule="evenodd" d="M3.33533 8.43274c0.04186 0.07486 0.0958 0.14229 0.15965 0.19956 0.2295 0.2295 0.49891 0.37918 0.69848 0.60867 0.04594 0.07838 0.12062 0.13576 0.20817 0.15998 0.08756 0.02422 0.18111 0.01336 0.2608 -0.03026 0.08009 -0.04428 0.13959 -0.11823 0.16572 -0.20593 0.02612 -0.0877 0.01678 -0.18216 -0.02602 -0.26304 -0.05295 -0.25985 -0.14019 -0.51151 -0.25944 -0.74837 -0.0502 -0.10437 -0.11394 -0.20167 -0.18958 -0.28937 -0.07414 -0.0894 -0.16165 -0.16681 -0.25944 -0.2295 -0.24307 -0.14909 -0.51526 -0.24435 -0.79825 -0.27939 -0.07069 -0.0317 -0.15069 -0.03573 -0.2242 -0.01128 -0.07351 0.02444 -0.13517 0.07558 -0.1728 0.1433 -0.03762 0.06771 -0.04846 0.14709 -0.03038 0.22241 0.01808 0.07533 0.06377 0.14113 0.12803 0.1844 0.12695 0.1705 0.24038 0.35065 0.33926 0.53882Z" clip-rule="evenodd" stroke-width="1"></path>
</svg>