<svg xmlns="http://www.w3.org/2000/svg" fill="none" viewBox="0 0 24 24" id="Swimming-Pool-Person--Streamline-Freehand">
  <desc>
    Swimming Pool Person Streamline Icon: https://streamlinehq.com
  </desc>
  <path fill="#000000" fill-rule="evenodd" d="M23.985 21.4101c-0.0116 -0.0434 -0.0316 -0.0841 -0.059 -0.1197 -0.0274 -0.0356 -0.0616 -0.0654 -0.1006 -0.0877 -0.039 -0.0223 -0.0821 -0.0366 -0.1267 -0.0421 -0.0446 -0.0055 -0.0898 -0.0022 -0.1331 0.0099 -0.7606 0.2386 -1.5789 0.2175 -2.3263 -0.0599 -0.7254 -0.3145 -1.3309 -0.8534 -1.7272 -1.5375l-0.4393 -1.1582c-0.0311 -0.082 -0.0855 -0.153 -0.1564 -0.2045 -0.071 -0.0514 -0.1554 -0.081 -0.243 -0.0851 -0.0807 -0.0114 -0.163 0.0004 -0.2372 0.034 -0.0743 0.0335 -0.1375 0.0876 -0.1821 0.1557 -0.0797 0.2325 -0.1464 0.4691 -0.1997 0.7089 -0.0485 0.1588 -0.1121 0.3126 -0.1897 0.4593 -0.0675 0.1485 -0.1512 0.2892 -0.2496 0.4193 -0.3313 0.4268 -0.7414 0.7861 -1.2081 1.0584 -0.414 0.2788 -0.9102 0.409 -1.4078 0.3694 -0.4293 -0.06 -0.8373 -0.2246 -1.1881 -0.4793 -0.3702 -0.2537 -0.6887 -0.5756 -0.9385 -0.9485 -0.1797 -0.2496 -0.3395 -0.7088 -0.5491 -0.9984 -0.0887 -0.1347 -0.2002 -0.253 -0.3295 -0.3494 -0.0947 -0.0675 -0.2082 -0.1038 -0.3245 -0.1038 -0.1163 0 -0.2297 0.0363 -0.3245 0.1038 -0.3295 0.1797 -0.1897 0.3195 -0.5491 1.1981 -0.1104 0.2296 -0.259 0.4389 -0.4393 0.619 -0.1859 0.1805 -0.39794 0.332 -0.62901 0.4493 -0.77062 0.3554 -1.6207 0.5034 -2.46609 0.4293 -0.40109 -0.0038 -0.79651 -0.0951 -1.15865 -0.2676 -0.36214 -0.1724 -0.68227 -0.4218 -0.93803 -0.7308 -0.07687 -0.1323 -0.1277 -0.278 -0.14976 -0.4293 -0.01925 -0.4736 -0.07937 -0.9446 -0.17972 -1.4078 -0.01681 -0.073 -0.05381 -0.1398 -0.10678 -0.1928 -0.05296 -0.0529 -0.11975 -0.0899 -0.19274 -0.1067 -0.0686 -0.0214 -0.14162 -0.0244 -0.21172 -0.0086 -0.07011 0.0158 -0.13482 0.0497 -0.18765 0.0984 -0.07912 0.0735 -0.13764 0.1665 -0.16973 0.2696 -0.02304 0.1171 -0.05991 0.231 -0.10983 0.3395l-0.73882 0.9185c-0.35033 0.396 -0.77859 0.7155 -1.25801 0.9385 -0.22733 0.0967 -0.47183 0.1465 -0.71886 0.1465 -0.247031 0 -0.491526 -0.0498 -0.71886 -0.1465 -0.07429 -0.0303 -0.15746 -0.0306 -0.231967 -0.0008 -0.074507 0.0298 -0.1345267 0.0874 -0.1673993 0.1606 -0.03033951 0.0742 -0.03063944 0.1574 -0.0008366 0.2319 0.0298029 0.0745 0.0873789 0.1346 0.1605829 0.1674 0.481053 0.22 1.0201 0.2795 1.53756 0.1698 0.73408 -0.1898 1.39897 -0.5846 1.91696 -1.1382l0.47924 -0.5392c-0.00493 0.0831 -0.00493 0.1665 0 0.2496 0.03686 0.2548 0.12519 0.4994 0.25959 0.7189 0.24756 0.3736 0.5679 0.6935 0.94186 0.9405 0.37397 0.247 0.7939 0.4161 1.23469 0.4972 1.23565 0.2898 2.532 0.1707 3.69418 -0.3395 0.3417 -0.166 0.6551 -0.385 0.9285 -0.6489 0.2554 -0.2459 0.468 -0.5328 0.629 -0.8487l0.1498 0.2696c0.3382 0.4815 0.7611 0.8976 1.248 1.228 0.501 0.3402 1.0761 0.5559 1.6773 0.629 0.5947 0.0373 1.1876 -0.0979 1.7073 -0.3893 0.7201 -0.3819 1.342 -0.9252 1.8171 -1.5875 0.119 -0.1684 0.2195 -0.3492 0.2996 -0.5392 0.0228 0.0487 0.0495 0.0954 0.0798 0.1398 0.5308 0.8115 1.3024 1.4365 2.2065 1.7872 0.9043 0.3 1.8813 0.3 2.7856 0 0.0822 -0.0295 0.1498 -0.0896 0.1889 -0.1677 0.039 -0.0781 0.0465 -0.1682 0.0208 -0.2517Z" clip-rule="evenodd" stroke-width="1"></path>
  <path fill="#000000" fill-rule="evenodd" d="M16.4769 10.3178c-0.391 0.7528 -0.4785 1.6268 -0.2444 2.4422 0.234 0.8153 0.7717 1.5099 1.5024 1.9408 0.2409 0.1576 0.4948 0.2946 0.7588 0.4094 0.2732 0.1109 0.5578 0.1913 0.8486 0.2396 0.7106 0.1424 1.4477 0.0648 2.113 -0.2224 0.6654 -0.2871 1.2274 -0.7703 1.6111 -1.3851 0.3673 -0.6184 0.5311 -1.3366 0.4685 -2.0531 -0.0627 -0.7165 -0.3488 -1.3953 -0.8179 -1.94054 -0.3211 -0.39593 -0.7365 -0.7049 -1.2081 -0.89858 -0.353 -0.14481 -0.7215 -0.24865 -1.0983 -0.30951 -0.76 -0.21203 -1.5703 -0.15022 -2.2894 0.17464 -0.719 0.32485 -1.3011 0.89208 -1.6443 1.60259Zm2.8954 -1.17818c0.6137 0.0536 1.2143 0.2088 1.7772 0.45927 0.3363 0.15482 0.6257 0.39596 0.8386 0.69891 0.3171 0.4003 0.5015 0.8895 0.5276 1.3995 0.026 0.51 -0.1075 1.0155 -0.3821 1.4461 -0.2746 0.4305 -0.6766 0.7648 -1.15 0.9562 -0.4735 0.1915 -0.9948 0.2306 -1.4915 0.112 -0.208 -0.0366 -0.412 -0.0935 -0.609 -0.1698 -0.2019 -0.0818 -0.3957 -0.1821 -0.5791 -0.2995 -0.5304 -0.2781 -0.9356 -0.7471 -1.1338 -1.3122 -0.1983 -0.5651 -0.1749 -1.1844 0.0655 -1.7329 0.1874 -0.4248 0.4837 -0.7926 0.8589 -1.0661 0.3752 -0.2735 0.8159 -0.44305 1.2777 -0.49148Z" clip-rule="evenodd" stroke-width="1"></path>
  <path fill="#000000" fill-rule="evenodd" d="M3.15799 15.4396c0.50498 -0.389 1.03167 -0.749 1.5775 -1.0783 0.82869 -0.5191 1.7073 -0.9984 2.50603 -1.4676 0.56316 -0.2979 1.10673 -0.6314 1.62742 -0.9985 0.2592 -0.1941 0.47654 -0.4386 0.63899 -0.7188 0.11033 -0.2259 0.18124 -0.4691 0.20966 -0.7189 0.04511 -0.74132 0.14185 -1.47861 0.28951 -2.20648 0.2754 -0.94855 0.6643 -1.86038 1.1582 -2.7157 0.4833 -0.82212 1.1452 -1.52504 1.9369 -2.05673 0.6619 -0.49457 1.4837 -0.72583 2.3064 -0.64898 0.3697 0.04686 0.7174 0.20158 0.9997 0.44483 0.2823 0.24326 0.4868 0.56429 0.5878 0.92301 0.0742 0.23449 0.0876 0.48405 0.0387 0.72512 -0.049 0.24107 -0.1585 0.4657 -0.3183 0.65269 -0.621 0.71106 -1.3405 1.32969 -2.1366 1.83709 -0.5144 0.42832 -0.9265 0.96616 -1.2064 1.5742 -0.2798 0.60805 -0.4203 1.27095 -0.4111 1.94025 -0.0554 1.9123 0.5949 3.7782 1.8272 5.2417 0.0559 0.0548 0.1312 0.0856 0.2096 0.0856s0.1537 -0.0308 0.2097 -0.0856c0.0284 -0.0271 0.051 -0.0596 0.0664 -0.0956 0.0155 -0.0361 0.0234 -0.0749 0.0234 -0.1141s-0.0079 -0.078 -0.0234 -0.1141c-0.0154 -0.036 -0.038 -0.0685 -0.0664 -0.0956 -0.896 -1.1451 -1.4125 -2.5411 -1.4777 -3.9936 -0.0988 -0.673 -0.0241 -1.3601 0.217 -1.99607 0.2411 -0.63602 0.6407 -1.1999 1.1608 -1.63821 0.8985 -0.54842 1.7152 -1.22063 2.4262 -1.99683 0.2752 -0.31675 0.4654 -0.69824 0.5527 -1.10865 0.0873 -0.41041 0.0689 -0.83628 -0.0535 -1.23763 -0.1573 -0.57086 -0.4802 -1.0823 -0.928 -1.4697 -0.4479 -0.3874 -1.0004 -0.63338 -1.588 -0.70685 -1.1052 -0.12118 -2.2152 0.18219 -3.1051 0.84866 -0.7434 0.49902 -1.384 1.13624 -1.887 1.87702 -0.7105 1.11903 -1.2238 2.35165 -1.51758 3.64422 -0.1224 0.79662 -0.19244 1.6004 -0.20967 2.40614 -0.00666 0.1406 -0.03705 0.279 -0.08986 0.4094 -0.13779 0.2433 -0.33321 0.449 -0.5691 0.599 -0.42932 0.3096 -0.93851 0.5592 -1.31791 0.7988 -0.78875 0.4892 -1.65737 0.9984 -2.47607 1.5575 -0.55544 0.357 -1.0889 0.7471 -1.59747 1.1682 -0.05989 0.0587 -0.09593 0.1374 -0.10118 0.2211 -0.00526 0.0837 0.02066 0.1664 0.07274 0.2321 0.05208 0.0658 0.12665 0.1099 0.20933 0.1239 0.08268 0.014 0.16762 -0.0031 0.23845 -0.048h-0.00999Z" clip-rule="evenodd" stroke-width="1"></path>
</svg>