<svg xmlns="http://www.w3.org/2000/svg" fill="none" viewBox="0 0 48 48" id="Toast--Streamline-Plump-Neon">
  <desc>
    Toast Streamline Icon: https://streamlinehq.com
  </desc>
  <g id="toast--bread-toast-breakfast">
    <path id="Vector" stroke="#000cfe" stroke-linecap="round" stroke-linejoin="round" d="M20 42h8.0591c3.8958 0 7.1146 -0.16 9.5143 -0.3418 2.8537 -0.2161 4.9708 -2.5691 5.0549 -5.4298 0.0936 -3.1872 0.2078 -7.7092 0.2847 -12.9162 0.0173 -1.1749 0.5917 -2.2511 1.3201 -3.1732C45.3412 18.7362 46 16.9864 46 15c0 -4.9571 -4.1029 -8.44063 -9.0512 -8.735C34.4105 6.11399 31.3762 6 28 6h-8" stroke-width="1"></path>
    <path id="Vector_2" stroke="#c71dff" stroke-linecap="round" stroke-linejoin="round" d="M11.0512 6.265C6.10286 6.55937 2 10.0429 2 15c0 1.9864 0.65883 3.7362 1.76688 5.139 0.72839 0.9221 1.30279 1.9983 1.32014 3.1732 0.0769 5.207 0.19107 9.729 0.28472 12.9162 0.08405 2.8607 2.20115 5.2137 5.05486 5.4298 2.3997 0.1818 5.6185 0.3418 9.5143 0.3418 3.9839 0 7.2599 -0.1673 9.6758 -0.3541 2.7799 -0.215 4.8676 -2.464 5.0001 -5.2491 0.1526 -3.205 0.3224 -7.813 0.3701 -13.1327 0.0106 -1.1761 0.5752 -2.2582 1.2954 -3.188C37.3606 18.684 38 16.9568 38 15c0 -4.9571 -4.1029 -8.44063 -9.0512 -8.735C26.4105 6.11399 23.3762 6 20 6s-6.4105 0.11399 -8.9488 0.265Z" stroke-width="1"></path>
    <path id="Vector_3" stroke="#000cfe" stroke-linecap="round" stroke-linejoin="round" d="M18 18v1" stroke-width="1"></path>
    <path id="Vector_4" stroke="#000cfe" stroke-linecap="round" stroke-linejoin="round" d="M26 27v1" stroke-width="1"></path>
    <path id="Vector_5" stroke="#000cfe" stroke-linecap="round" stroke-linejoin="round" d="M14 32v1" stroke-width="1"></path>
  </g>
</svg>