<svg xmlns="http://www.w3.org/2000/svg" fill="none" viewBox="0 0 14 14" id="3d-Rotate-1--Streamline-Flex">
  <desc>
    3d Rotate 1 Streamline Icon: https://streamlinehq.com
  </desc>
  <g id="3d-rotate-1">
    <path id="Subtract" fill="#000000" fill-rule="evenodd" d="M11.975 11.993c-1.021 1.02 -2.433 1.6 -4.148 1.739a0.619 0.619 0 0 0 -0.04 -0.05c-1.07 -1.166 -1.885 -2.799 -2.272 -4.694 0.303 0.019 0.613 0.027 0.93 0.026 2.904 -0.012 5.434 -0.885 7.296 -2.339 0.003 0.112 0.005 0.225 0.005 0.34 0 2.091 -0.59 3.796 -1.771 4.978Zm1.598 -6.821 -0.007 0.007c-1.64 1.557 -4.124 2.573 -7.126 2.585a12.61 12.61 0 0 1 -1.114 -0.043 12.74 12.74 0 0 1 -0.06 -1.225c0 -2.424 0.681 -4.611 1.772 -6.232C9.11 0.272 10.8 0.862 11.975 2.036c0.812 0.812 1.345 1.872 1.598 3.136ZM4.056 7.544c-0.026 -0.345 -0.04 -0.694 -0.04 -1.048 0 -2.28 0.55 -4.4 1.494 -6.122 -1.421 0.22 -2.605 0.774 -3.492 1.662C1.039 3.014 0.466 4.352 0.298 5.97a9.937 9.937 0 0 0 3.758 1.574Zm-3.802 -0.12c0.073 1.906 0.66 3.465 1.764 4.569 1.031 1.031 2.461 1.612 4.2 1.743 -0.978 -1.339 -1.68 -3.024 -2.002 -4.893A11.322 11.322 0 0 1 0.254 7.425Z" clip-rule="evenodd" stroke-width="1"></path>
  </g>
</svg>