<svg xmlns="http://www.w3.org/2000/svg" fill="none" viewBox="0 0 14 14" id="Archive-Box--Streamline-Flex">
  <desc>
    Archive Box Streamline Icon: https://streamlinehq.com
  </desc>
  <g id="archive-box--box-content-banker-archive-file">
    <path id="Subtract" fill="#000000" fill-rule="evenodd" d="M1.52362 0.516986C3.26102 0.453116 5.10509 0.418091 7.00017 0.418091c1.89209 0 3.69953 0.03724 5.45753 0.099108 0.4457 0.015686 0.9378 0.235083 1.1763 0.717191 0.1774 0.3585 0.2872 0.74916 0.2872 1.16058 0 0.39908 -0.1121 0.76948 -0.2699 1.10297 -0.2446 0.5171 -0.7744 0.75734 -1.2622 0.75646 -1.1242 -0.00204 -2.238 -0.00788 -3.34323 -0.01368h-0.00033c-2.51734 -0.01321 -4.99066 -0.02618 -7.44345 0.00654 -0.47011 0.00628 -1.00544 -0.21101 -1.253903 -0.72817 -0.168362 -0.35042 -0.2690854 -0.72646 -0.2690854 -1.12412 0 -0.41257 0.1027104 -0.812 0.2916554 -1.18486C0.610017 0.737967 1.09494 0.532746 1.52362 0.516986Zm-0.1206 5.270354c0.02993 -0.17484 0.19527 -0.28282 0.37265 -0.28282H12.2043c0.1854 0 0.3586 0.11247 0.3892 0.29533 0.1669 0.99669 0.2645 2.04563 0.2645 3.119 0 1.10945 -0.1155 2.17725 -0.2859 3.19985 -0.1087 0.6527 -0.6408 1.1439 -1.291 1.2147 -1.3726 0.1494 -2.79842 0.2484 -4.28098 0.2484 -1.21264 0 -2.39938 -0.107 -3.52014 -0.208 -0.24291 -0.0219 -0.48271 -0.0435 -0.71902 -0.0637 -0.65681 -0.0561 -1.2285 -0.5354 -1.34466 -1.2153 -0.17454 -1.0218 -0.27404 -2.0795 -0.27404 -3.17595 0 -1.07374 0.08923 -2.12934 0.26076 -3.13151Zm4.15486 1.65199c-0.34518 0 -0.625 0.27982 -0.625 0.625s0.27982 0.625 0.625 0.625h2.88461c0.34518 0 0.625 -0.27982 0.625 -0.625s-0.27982 -0.625 -0.625 -0.625H5.55788Z" clip-rule="evenodd" stroke-width="1"></path>
  </g>
</svg>