<svg xmlns="http://www.w3.org/2000/svg" fill="none" viewBox="0 0 14 14" id="Clean-Broom-Wipe--Streamline-Flex">
  <desc>
    Clean Broom Wipe Streamline Icon: https://streamlinehq.com
  </desc>
  <g id="clean-broom-wipe">
    <path id="Union" fill="#000000" fill-rule="evenodd" d="M7.10583 0.0868158c0.38391 0.1555312 0.56904 0.5928312 0.41351 0.9767342L4.79851 7.77947c0.35452 0.12403 0.71436 0.31151 1.03053 0.56355 0.55037 0.43873 0.99747 1.10058 0.99747 1.97888 0 0.5354 0.13184 0.9801 0.32993 1.3436 0.31883 0.585 1.01666 0.7933 1.68293 0.7933 0.41421 0 0.75 0.3358 0.75 0.75s-0.33579 0.75 -0.75 0.75h-0.09116v0.0096h-6.4958c-1.04888 0 -2.1544427 -0.7008 -2.1823663 -1.9242C0.0466332 11.0184 0.264692 9.85113 0.884944 8.95979 1.40467 8.21292 2.18833 7.69008 3.25321 7.59898L6.1291 0.500322c0.15553 -0.383905 0.59283 -0.5690378 0.97673 -0.4135062ZM13.1814 13.9588c0.4142 0 0.75 -0.3358 0.75 -0.75s-0.3358 -0.75 -0.75 -0.75h-1.9278c-0.4143 0 -0.75 0.3358 -0.75 0.75s0.3357 0.75 0.75 0.75h1.9278Zm-0.1426 -3.4718c0 0.4142 -0.3358 0.75 -0.75 0.75h-1.9156c-0.41423 0 -0.75002 -0.3358 -0.75002 -0.75s0.33579 -0.74999 0.75002 -0.74999h1.9156c0.4142 0 0.75 0.33579 0.75 0.74999Zm-1.7851 -2.07262c0.4142 0 0.75 -0.33578 0.75 -0.75 0 -0.41421 -0.3358 -0.75 -0.75 -0.75H9.33803c-0.41422 0 -0.75 0.33579 -0.75 0.75 0 0.41422 0.33578 0.75 0.75 0.75h1.91567Z" clip-rule="evenodd" stroke-width="1"></path>
  </g>
</svg>