<svg xmlns="http://www.w3.org/2000/svg" fill="none" viewBox="0 0 14 14" id="Cloud--Streamline-Flex">
  <desc>
    Cloud Streamline Icon: https://streamlinehq.com
  </desc>
  <g id="cloud--cloud-meteorology-cloudy-overcast-cover-weather">
    <path id="Subtract" fill="#000000" fill-rule="evenodd" d="M5.10689 2.42306c0.8191 -0.50231 1.78791 -0.71356 2.74518 -0.5998 0.95733 0.11376 1.84764 0.54601 2.52183 1.22685 0.6267 0.63294 1.0314 1.44525 1.1563 2.31842 0.6626 0.19817 1.2432 0.60807 1.6464 1.16968 0.4426 0.61639 0.6402 1.37203 0.5534 2.12357 -0.0867 0.75145 -0.4513 1.44352 -1.0218 1.94612 -1.303 1.148 -3.52186 1.6272 -5.63352 1.5978 -2.11406 -0.0294 -4.31499 -0.571 -5.5985 -1.671C0.761461 9.92212 0.322017 9.05418 0.258087 8.1207c-0.042523 -0.62091 0.08355 -1.23519 0.356826 -1.78342 0.016668 -0.02522 0.031711 -0.05196 0.044918 -0.08015 0.118786 -0.25356 0.401589 -0.57702 0.821629 -0.83969 0.41257 -0.258 0.91002 -0.42696 1.41912 -0.42696 0.50909 0 1.0065 0.16896 1.41904 0.42695 0.42 0.26267 0.70278 0.58612 0.82158 0.8397 0.14643 0.31257 0.51854 0.44725 0.83111 0.30082 0.31258 -0.14644 0.44726 -0.51855 0.30082 -0.83112 -0.245 -0.52296 -0.72074 -1.01275 -1.29071 -1.36921 -0.37215 -0.23274 -0.80517 -0.42182 -1.27495 -0.52685 0.34328 -0.56977 0.8221 -1.05367 1.39942 -1.40771Z" clip-rule="evenodd" stroke-width="1"></path>
  </g>
</svg>