<svg xmlns="http://www.w3.org/2000/svg" fill="none" viewBox="0 0 14 14" id="Dashboard-3--Streamline-Flex">
  <desc>
    Dashboard 3 Streamline Icon: https://streamlinehq.com
  </desc>
  <g id="dashboard-3--app-application-dashboard-home-layout-vertical">
    <path id="Union" fill="#000000" fill-rule="evenodd" d="M3.29518 0.286255c-0.48987 0 -0.96176 0.065816 -1.39544 0.1369 -0.4609 0.075548 -0.82783 0.376117 -1.076031 0.741765 -0.250349 0.36881 -0.406136 0.83751 -0.44257 1.33829 -0.045742 0.62872 -0.085241 1.28523 -0.085241 1.95832s0.039499 1.3296 0.085241 1.95832c0.036434 0.50078 0.192222 0.96948 0.44257 1.33829 0.248201 0.36565 0.615131 0.66622 1.076031 0.74177 0.43368 0.07108 0.90557 0.1369 1.39544 0.1369s0.96177 -0.06582 1.39544 -0.1369c0.4609 -0.07555 0.82783 -0.37612 1.07603 -0.74177 0.25035 -0.36881 0.40614 -0.83751 0.44257 -1.33829 0.04574 -0.62872 0.08524 -1.28523 0.08524 -1.95832s-0.0395 -1.3296 -0.08524 -1.95832c-0.03643 -0.50078 -0.19222 -0.96948 -0.44257 -1.33829 -0.2482 -0.365647 -0.61513 -0.666217 -1.07603 -0.741765 -0.43367 -0.071084 -0.90557 -0.1369 -1.39544 -0.1369ZM10.6988 13.7137c0.4907 0 0.9635 -0.0657 1.3981 -0.1367 0.4611 -0.0754 0.8287 -0.3754 1.0775 -0.7409 0.251 -0.3687 0.4072 -0.8373 0.4438 -1.3381 0.0458 -0.6283 0.0854 -1.2844 0.0854 -1.95716 0 -0.67272 -0.0396 -1.32886 -0.0854 -1.95719 -0.0366 -0.50076 -0.1928 -0.96936 -0.4438 -1.33803 -0.2488 -0.36559 -0.6164 -0.66555 -1.0775 -0.74091 -0.4346 -0.07103 -0.9074 -0.13678 -1.3981 -0.13678 -0.4908 0 -0.96358 0.06575 -1.39819 0.13678 -0.46111 0.07536 -0.82867 0.37532 -1.07754 0.74091 -0.25097 0.36867 -0.4072 0.83727 -0.44374 1.33803 -0.04584 0.62833 -0.08543 1.28447 -0.08543 1.95719 0 0.67276 0.03959 1.32886 0.08543 1.95716 0.03654 0.5008 0.19277 0.9694 0.44374 1.3381 0.24887 0.3655 0.61643 0.6655 1.07754 0.7409 0.43461 0.071 0.90739 0.1367 1.39819 0.1367Zm-7.40362 -3.6562c-0.46298 0 -0.91406 0.0225 -1.34412 0.048 -0.34599 0.0205 -0.67846 0.1051 -0.94862 0.249 -0.254328 0.1354 -0.539252 0.3726 -0.612783 0.7379 -0.047142 0.2341 -0.093759 0.5056 -0.093759 0.7932 0 0.2877 0.046617 0.5591 0.093759 0.7933 0.073532 0.3652 0.358455 0.6025 0.612783 0.7379 0.27016 0.1438 0.60263 0.2285 0.94862 0.249 0.43006 0.0255 0.88114 0.0479 1.34412 0.0479 0.46298 0 0.91406 -0.0224 1.34412 -0.0479 0.34599 -0.0205 0.67846 -0.1052 0.94862 -0.249 0.25433 -0.1354 0.53925 -0.3727 0.61278 -0.7379 0.04715 -0.2342 0.09376 -0.5056 0.09376 -0.7933 0 -0.2876 -0.04662 -0.5591 -0.09376 -0.7932 -0.07353 -0.3653 -0.35845 -0.6025 -0.61278 -0.7379 -0.27016 -0.1439 -0.60263 -0.2285 -0.94862 -0.249 -0.43006 -0.0255 -0.88114 -0.048 -1.34412 -0.048Zm7.40362 -6.115c0.4639 0 0.9159 -0.02248 1.3469 -0.04796 0.3465 -0.02048 0.6795 -0.10509 0.95 -0.24878 0.2545 -0.1352 0.5402 -0.37237 0.6139 -0.73792 0.0473 -0.23416 0.094 -0.50569 0.094 -0.79346 0 -0.28777 -0.0467 -0.5593 -0.094 -0.79346 -0.0737 -0.365549 -0.3594 -0.602721 -0.6139 -0.73792 -0.2705 -0.143693 -0.6035 -0.228305 -0.95 -0.248782 -0.431 -0.025473 -0.883 -0.047963 -1.3469 -0.047963 -0.464 0 -0.91603 0.02249 -1.34704 0.047963 -0.34648 0.020477 -0.67941 0.105089 -0.94993 0.248781 -0.25452 0.1352 -0.54018 0.372372 -0.61394 0.737921 -0.04725 0.23416 -0.09399 0.50569 -0.09399 0.79346 0 0.28777 0.04674 0.5593 0.09399 0.79346 0.07376 0.36555 0.35942 0.60272 0.61394 0.73792 0.27052 0.14369 0.60345 0.2283 0.94993 0.24878 0.43101 0.02548 0.88304 0.04796 1.34704 0.04796Z" clip-rule="evenodd" stroke-width="1"></path>
  </g>
</svg>