<svg xmlns="http://www.w3.org/2000/svg" fill="none" viewBox="0 0 14 14" id="Dial-Pad-Finger-2--Streamline-Flex">
  <desc>
    Dial Pad Finger 2 Streamline Icon: https://streamlinehq.com
  </desc>
  <g id="dial-pad-finger-2--hand-lock-login-padlock-password-textbox-touch-type">
    <path id="Union" fill="#000000" fill-rule="evenodd" d="M0.000488281 2.05811C0.000488281 0.953536 0.895919 0.0581055 2.00049 0.0581055h1c1.10457 0 2 0.8954305 2 2.0000045 0 1.10456 -0.89543 2 -2 2h-1c-1.104571 0 -2.000001719 -0.89544 -2.000001719 -2Zm0 5.5c0 -1.10457 0.895430719 -2 2.000001719 -2h1c1.10457 0 2 0.89543 2 2 0 1.10456 -0.89543 2 -2 2h-1c-1.104571 0 -2.000001719 -0.89544 -2.000001719 -2ZM8.50049 0.0581055c-1.10457 0 -2 0.8954305 -2 2.0000045l0.00021 0.02906c0.00497 0.34904 0.41957 0.45467 0.72898 0.29304 0.39394 -0.2058 0.842 -0.32217 1.31724 -0.32217 0.78826 0 1.50178 0.32016 2.01758 0.83752 0.2338 0.23457 0.6343 0.27018 0.7676 -0.03301 0.1083 -0.24616 0.1684 -0.51828 0.1684 -0.80444 0 -1.104574 -0.8954 -2.0000045 -2.00001 -2.0000045h-1ZM6.58322 9.02224c-1.72685 0.71991 -2.08006 3.01196 -0.65007 4.21836l0.1338 0.1129c0.45099 0.3804 1.02201 0.5891 1.61205 0.5891h4.4866c0.5134 0 1.0326 -0.2646 1.284 -0.7693 0.3445 -0.6915 0.55 -1.436 0.55 -2.4284 0 -1.35814 -0.6755 -2.23269 -1.5639 -2.76413 -0.7084 -0.42381 -1.5504 -0.63147 -2.29 -0.73939l0 -2.33451c0 -0.88301 -0.71578 -1.59884 -1.5988 -1.59884s-1.59885 0.71583 -1.59885 1.59884v3.96327l-0.36483 0.1521Z" clip-rule="evenodd" stroke-width="1"></path>
  </g>
</svg>