<svg xmlns="http://www.w3.org/2000/svg" fill="none" viewBox="0 0 14 14" id="Dislike-Circle--Streamline-Flex">
  <desc>
    Dislike Circle Streamline Icon: https://streamlinehq.com
  </desc>
  <g id="dislike-circle--reward-social-up-rating-media-dislike-thumb-hand">
    <path id="Subtract" fill="#000000" fill-rule="evenodd" d="M2.02145 2.02145C3.20296 0.839932 4.90797 0.25 7 0.25c2.09203 0 3.797 0.589932 4.9786 1.77145C13.1601 3.20296 13.75 4.90797 13.75 7c0 2.09203 -0.5899 3.797 -1.7714 4.9786C10.797 13.1601 9.09203 13.75 7 13.75c-2.09203 0 -3.79704 -0.5899 -4.97855 -1.7714C0.839932 10.797 0.25 9.09203 0.25 7c0 -2.09203 0.589932 -3.79704 1.77145 -4.97855Zm2.38124 2.04273c0.99708 -0.19384 2.59098 -0.41525 3.86728 -0.41525 2.09663 0 2.51673 2.39614 2.51673 3.59421 0 1.19808 -1.19807 1.79711 -1.79711 1.79711h-1.7274l0.12734 0.89139c0.09087 0.63616 -0.40273 1.20526 -1.0453 1.20526 -0.36101 0 -0.69701 -0.1845 -0.89083 -0.489L3.82431 8.08785c-0.10211 -0.16045 -0.15634 -0.34669 -0.15634 -0.53687V4.9853c0 -0.44648 0.29644 -0.83592 0.73472 -0.92112Z" clip-rule="evenodd" stroke-width="1"></path>
  </g>
</svg>