<svg xmlns="http://www.w3.org/2000/svg" fill="none" viewBox="0 0 14 14" id="Horizontal-Toggle-Button--Streamline-Flex">
  <desc>
    Horizontal Toggle Button Streamline Icon: https://streamlinehq.com
  </desc>
  <g id="horizontal-toggle-button--toggle-adjustment-adjust-button-off-on-horizontal-settings-controls">
    <path id="Union" fill="#000000" fill-rule="evenodd" d="M11.1005 0.36031C8.38234 -0.0517436 5.61766 -0.0517439 2.89955 0.360309l-0.4785 0.072538C1.02894 0.643885 0 1.84056 0 3.24858c0 1.40802 1.02894 2.6047 2.42105 2.81574l0.4785 0.07253 0.11241 -0.74152 -0.11241 0.74152c2.71811 0.41206 5.48279 0.41206 8.20095 0l0.4784 -0.07253C12.9711 5.85328 14 4.6566 14 3.24858 14 1.84056 12.9711 0.643886 11.5789 0.432848L11.1005 0.36031Zm0.0502 1.53929c0.7452 0 1.3493 0.60406 1.3493 1.34911s-0.6041 1.34911 -1.3493 1.34911 -1.34919 -0.60406 -1.34919 -1.34911 0.60399 -1.34911 1.34919 -1.34911ZM2.89955 13.6395c2.71811 0.4121 5.48279 0.4121 8.20085 0l0.4785 -0.0725C12.9711 13.356 14 12.1593 14 10.7513c0 -1.40805 -1.0289 -2.60473 -2.4211 -2.81577l-0.4784 -0.07254c-2.71816 -0.41205 -5.48284 -0.41205 -8.20095 0.00001l-0.4785 0.07253C1.02894 8.14657 0 9.34325 0 10.7513c0 1.408 1.02894 2.6047 2.42105 2.8157l0.4785 0.0725Zm-0.05032 -4.23746c0.7452 0 1.34923 0.60406 1.34923 1.34916 0 0.745 -0.60403 1.3491 -1.34923 1.3491S1.5 11.4962 1.5 10.7512c0 -0.7451 0.60403 -1.34916 1.34923 -1.34916Z" clip-rule="evenodd" stroke-width="1"></path>
  </g>
</svg>