<svg xmlns="http://www.w3.org/2000/svg" fill="none" viewBox="0 0 14 14" id="Layout-Window-1--Streamline-Flex">
  <desc>
    Layout Window 1 Streamline Icon: https://streamlinehq.com
  </desc>
  <g id="layout-window-1--column-layout-layouts-left-sidebar">
    <path id="Subtract" fill="#000000" fill-rule="evenodd" d="M4.875 0.35178c-0.41173 0.035826 -0.81797 0.078347 -1.21773 0.122906C1.98532 0.661049 0.641907 2.0033 0.462704 3.67828 0.348408 4.74658 0.25 5.85964 0.25 7c0 1.14035 0.098408 2.25341 0.212704 3.3217 0.179204 1.675 1.522616 3.0173 3.194566 3.2036 0.39976 0.0446 0.806 0.0871 1.21773 0.1229V0.35178Zm1.25 13.37912c0.28964 0.0122 0.58141 0.0191 0.875 0.0191 1.14832 0 2.26888 -0.105 3.3427 -0.2247 1.672 -0.1863 3.0154 -1.5286 3.1946 -3.2036 0.0933 -0.87222 0.176 -1.77429 0.2033 -2.6967H6.125v6.1059Zm7.6156 -7.3559H6.125V0.269079C6.41464 0.256863 6.70641 0.25 7 0.25c1.14832 0 2.26888 0.10499 3.3427 0.224686 1.672 0.186363 3.0154 1.528614 3.1946 3.203594 0.0933 0.87224 0.176 1.77431 0.2033 2.69672Z" clip-rule="evenodd" stroke-width="1"></path>
  </g>
</svg>