<svg xmlns="http://www.w3.org/2000/svg" fill="none" viewBox="0 0 14 14" id="Magic-Wand-2--Streamline-Flex">
  <desc>
    Magic Wand 2 Streamline Icon: https://streamlinehq.com
  </desc>
  <g id="magic-wand-2--design-magic-star-supplies-tool-wand">
    <path id="Union" fill="#000000" fill-rule="evenodd" d="M13.022 2.58399c0.4257 -0.97304 -0.5601 -1.914262 -1.5353 -1.49351 -0.5475 0.23621 -1.0921 0.50754 -1.75368 0.86852C9.17092 1.37052 8.7078 0.920309 8.22822 0.509748c-0.80048 -0.685274 -1.99784 -0.075985 -1.87479 0.970542 0.05732 0.48744 0.14841 0.98343 0.2817 1.56234 0.04754 0.20651 -0.05249 0.41955 -0.2421 0.51419 -0.68081 0.33979 -1.22519 0.64665 -1.74205 0.98155 -0.88925 0.57618 -0.65378 1.91598 0.38688 2.1154 0.64168 0.12296 1.29989 0.19006 2.13467 0.2246 0.02208 0.85762 0.08249 1.52808 0.20728 2.17834 0.19824 1.03299 1.52706 1.24619 2.10007 0.3641 0.34697 -0.53409 0.66112 -1.08522 1.01282 -1.77027 0.0956 -0.18609 0.306 -0.28351 0.51 -0.23712 0.5579 0.12685 1.0378 0.21452 1.5048 0.27149 1.0592 0.12921 1.6712 -1.08925 0.9765 -1.89929 -0.4019 -0.46871 -0.8355 -0.92234 -1.3921 -1.46774 0.3997 -0.64847 0.6907 -1.18658 0.9301 -1.73389ZM5.98305 8.05065c-0.33412 -0.03311 -0.65231 -0.07567 -0.96704 -0.13024L0.469498 12.4699c-0.292798 0.293 -0.292644 0.7678 0.000344 1.0606 0.292989 0.2928 0.767858 0.2927 1.060658 -0.0003l4.56369 -4.56665c-0.04776 -0.29672 -0.08404 -0.59777 -0.11114 -0.9129Z" clip-rule="evenodd" stroke-width="1"></path>
  </g>
</svg>