<svg xmlns="http://www.w3.org/2000/svg" fill="none" viewBox="0 0 14 14" id="Maximize-2--Streamline-Flex">
  <desc>
    Maximize 2 Streamline Icon: https://streamlinehq.com
  </desc>
  <g id="maximize-2">
    <path id="Union" fill="#000000" fill-rule="evenodd" d="M5.28524 0.294119C6.18989 0.193284 7.13672 0.104492 8.10791 0.104492s1.91799 0.088792 2.82269 0.189627c1.4441 0.160971 2.6042 1.319911 2.759 2.766971 0.0963 0.90006 0.1795 1.84038 0.1795 2.80463s-0.0832 1.90458 -0.1795 2.80463c-0.1548 1.44705 -1.3149 2.60605 -2.759 2.76695 -0.9047 0.1009 -1.8515 0.1897 -2.82269 0.1897 -0.25228 0 -0.50292 -0.006 -0.7516 -0.0167 0.01493 -0.2297 0.02455 -0.4692 0.02455 -0.7148 0 -0.5405 -0.04657 -1.05139 -0.09388 -1.49357 -0.1494 -1.39642 -1.25936 -2.5023 -2.64732 -2.65701 -0.44287 -0.04936 -0.96055 -0.09941 -1.5088 -0.09941 -0.26405 0 -0.52101 0.01161 -0.76593 0.02916 -0.01165 -0.26751 -0.01825 -0.53728 -0.01825 -0.80895 0 -0.96425 0.08321 -1.90457 0.1795 -2.80463C2.681 1.61403 3.8411 0.45509 5.28524 0.294119ZM11.7903 2.3908c-0.0634 -0.10557 -0.1517 -0.19391 -0.2573 -0.25725 -0.5564 -0.33387 -1.2397 -0.48349 -1.85043 -0.48349 -0.57828 0 -1.28423 0.13666 -1.74385 0.59628 -0.16331 0.1633 -0.24227 0.39274 -0.21405 0.62197 0.02822 0.22922 0.16047 0.43265 0.35851 0.55148l0.80249 0.4815 -1.66312 1.66332c-0.34169 0.34172 -0.34165 0.89574 0.00008 1.23743 0.34173 0.34169 0.89575 0.34166 1.23743 -0.00007l1.63794 -1.6381 0.406 0.67678c0.1189 0.19804 0.3223 0.33029 0.5515 0.35851 0.2292 0.02822 0.4587 -0.05074 0.622 -0.21405 0.4596 -0.45962 0.5963 -1.16557 0.5963 -1.74385 0 -0.61071 -0.1497 -1.29402 -0.4835 -1.85046ZM1.76053 7.98723c0.43212 -0.04817 0.89379 -0.09172 1.37033 -0.09172 0.47654 0 0.93821 0.04355 1.37033 0.09172 0.80797 0.09006 1.45616 0.73708 1.54289 1.54768 0.04602 0.43019 0.08678 0.88809 0.08678 1.36059 0 0.4725 -0.04076 0.9304 -0.08678 1.3606 -0.08673 0.8106 -0.73492 1.4576 -1.54289 1.5477 -0.43212 0.0482 -0.89379 0.0917 -1.37033 0.0917 -0.47654 0 -0.93821 -0.0435 -1.37033 -0.0917 -0.807974 -0.0901 -1.456163 -0.7371 -1.542887 -1.5477 -0.046026 -0.4302 -0.086784 -0.8881 -0.086784 -1.3606 0 -0.4725 0.040758 -0.9304 0.086784 -1.36059 0.086724 -0.8106 0.734913 -1.45762 1.542887 -1.54768Z" clip-rule="evenodd" stroke-width="1"></path>
  </g>
</svg>