<svg xmlns="http://www.w3.org/2000/svg" fill="none" viewBox="0 0 14 14" id="Megaphone-1--Streamline-Flex">
  <desc>
    Megaphone 1 Streamline Icon: https://streamlinehq.com
  </desc>
  <g id="megaphone-1--bullhorn-loud-megaphone-share-speaker-transmit">
    <path id="Union" fill="#000000" fill-rule="evenodd" d="M11.7771 0.907782c-0.3543 -0.117412 -0.6965 -0.022221 -0.8937 0.039006l0.1482 0.477502 -0.1482 -0.477502L2.06938 3.68287c-2.345109 0.72797 -2.34511 4.04724 0 4.77521l8.81402 2.73612c0.1972 0.0612 0.5394 0.1564 0.8937 0.039 0.4001 -0.1327 0.7084 -0.4251 0.9418 -0.7655 0.2344 -0.3418 0.4165 -0.76489 0.5564 -1.22333 0.2799 -0.91753 0.4142 -2.05471 0.4142 -3.17389 0 -1.11919 -0.1343 -2.25637 -0.4142 -3.1739 -0.1399 -0.45844 -0.322 -0.88149 -0.5564 -1.22334 -0.2334 -0.34043 -0.5417 -0.63284 -0.9418 -0.765458ZM2.55155 9.91661c-0.26034 -0.08081 -0.54285 0.06214 -0.57691 0.33259 -0.01324 0.1051 -0.02005 0.2121 -0.02005 0.3206 0 1.4239 1.17189 2.5782 2.61749 2.5782 1.0012 0 1.8711 -0.5537 2.31133 -1.3671 0.13131 -0.2426 -0.02015 -0.5258 -0.28362 -0.6076L2.55155 9.91661Z" clip-rule="evenodd" stroke-width="1"></path>
  </g>
</svg>