<svg xmlns="http://www.w3.org/2000/svg" fill="none" viewBox="0 0 14 14" id="Merge-Pdf--Streamline-Flex">
  <desc>
    Merge PDF Streamline Icon: https://streamlinehq.com
  </desc>
  <g id="merge-PDF--essential-files-folder-merge-PDF">
    <path id="Union" fill="#000000" fill-rule="evenodd" d="M5.542 0c-1.255 0 -2.27 0.038 -3.32 0.11A2.262 2.262 0 0 0 0.117 2.225 60.362 60.362 0 0 0 0 6c0 1.293 0.04 2.556 0.117 3.775a2.262 2.262 0 0 0 1.667 2.042A61.644 61.644 0 0 1 1.667 8c0 -1.32 0.04 -2.608 0.119 -3.853A3.512 3.512 0 0 1 5.053 0.863 47.572 47.572 0 0 1 8.379 0.75c-0.113 -0.092 -0.23 -0.185 -0.353 -0.28a2.222 2.222 0 0 0 -1.31 -0.458C6.344 0.004 5.956 0 5.542 0Zm-0.403 2.11A46.51 46.51 0 0 1 8.459 2c0.414 0 0.802 0.004 1.174 0.012 0.47 0.01 0.931 0.167 1.31 0.459a11.694 11.694 0 0 1 2.266 2.25c0.51 0.656 0.77 1.462 0.783 2.276a61.72 61.72 0 0 1 -0.109 4.778 2.263 2.263 0 0 1 -2.105 2.115c-1.05 0.072 -2.064 0.11 -3.32 0.11 -1.255 0 -2.27 -0.038 -3.32 -0.11a2.263 2.263 0 0 1 -2.105 -2.115A60.363 60.363 0 0 1 2.917 8c0 -1.293 0.04 -2.556 0.116 -3.775A2.262 2.262 0 0 1 5.14 2.11ZM9.084 6.5a0.625 0.625 0 0 0 -1.25 0v1.375H6.458a0.625 0.625 0 1 0 0 1.25h1.375V10.5a0.625 0.625 0 1 0 1.25 0V9.125h1.375a0.625 0.625 0 1 0 0 -1.25H9.084V6.5Z" clip-rule="evenodd" stroke-width="1"></path>
  </g>
</svg>