<svg xmlns="http://www.w3.org/2000/svg" fill="none" viewBox="0 0 14 14" id="New-Folder--Streamline-Flex">
  <desc>
    New Folder Streamline Icon: https://streamlinehq.com
  </desc>
  <g id="new-folder--empty-folder">
    <path id="Union" fill="#000000" fill-rule="evenodd" d="M5.49398 0.61761C4.03845 0.551369 3.15233 0.569078 1.9799 0.651621 1.24916 0.703067 0.680165 1.27673 0.598618 1.98648c-0.34015 2.96054 -0.455116 5.94849 -0.0976 8.94242 0.149639 1.2532 1.172212 2.1398 2.357702 2.2689 2.79938 0.3048 5.55845 0.2969 8.35578 -0.0076 1.1905 -0.1296 2.1452 -1.0705 2.2874 -2.2613 0.2211 -1.8514 0.2793 -3.74586 0.1426 -6.0594 -0.0707 -1.19534 -1.0083 -2.15824 -2.2029 -2.25713 -1.189 -0.09844 -2.06569 -0.11601 -3.36204 -0.14198l-0.00021 -0.00001c-0.19015 -0.00381 -0.38932 -0.0078 -0.59983 -0.01225 -0.2039 -0.00432 -0.38521 -0.13332 -0.45626 -0.32518l-0.20046 -0.5413c-0.207 -0.55895 -0.72739 -0.946669 -1.32882 -0.97404Z" clip-rule="evenodd" stroke-width="1"></path>
  </g>
</svg>