<svg xmlns="http://www.w3.org/2000/svg" fill="none" viewBox="0 0 14 14" id="New-Sticky-Note--Streamline-Flex">
  <desc>
    New Sticky Note Streamline Icon: https://streamlinehq.com
  </desc>
  <g id="new-sticky-note--empty-common-file">
    <path id="Subtract" fill="#000000" fill-rule="evenodd" d="M7 0.5C5.59 0.5 4.21358 0.543807 2.88484 0.627205 1.66935 0.703495 0.703495 1.66935 0.627205 2.88484 0.543807 4.21358 0.5 5.59 0.5 7c0 1.41 0.043807 2.78642 0.127205 4.1152 0.07629 1.2155 1.042145 2.1813 2.257635 2.2576 1.0669 0.067 2.16454 0.1084 3.28562 0.1221 0.2819 0.0035 0.50058 -0.2376 0.60696 -0.4987 0.03986 -0.0978 0.09253 -0.1915 0.15785 -0.2785 0.72017 -0.9597 1.19733 -1.8822 1.41274 -3.32171 0.15988 -1.06837 1.06327 -1.99023 2.26759 -1.99023h2.6801c0.1112 0 0.2015 -0.08955 0.2025 -0.20065l0.0018 -0.20064 0 -0.00001 0 -0.00001V7c0 -1.41 -0.0438 -2.78642 -0.1272 -4.11516 -0.0763 -1.21549 -1.0421 -2.181345 -2.2576 -2.257635C9.78642 0.543807 8.41 0.5 7 0.5Zm1.27064 12.498c-0.12305 0.1822 0.0191 0.4251 0.23446 0.3808 2.0049 -0.4131 4.3614 -1.9189 4.8911 -4.51057 0.0226 -0.11071 -0.0637 -0.21247 -0.1767 -0.21247h-2.6039c-0.5244 0 -0.95374 0.40662 -1.03135 0.92523 -0.14295 0.95521 -0.39103 1.72681 -0.72898 2.41551 -0.17221 0.3509 -0.36776 0.6803 -0.58463 1.0015Z" clip-rule="evenodd" stroke-width="1"></path>
  </g>
</svg>