<svg xmlns="http://www.w3.org/2000/svg" fill="none" viewBox="0 0 14 14" id="Page-Setting--Streamline-Flex">
  <desc>
    Page Setting Streamline Icon: https://streamlinehq.com
  </desc>
  <g id="page-setting--page-setting-square-triangle-circle-line-combination-variation">
    <path id="Union" fill="#000000" fill-rule="evenodd" d="M10.7301 0.122581c0.1464 0.001378 0.2848 0.066841 0.3787 0.179115l0.1558 0.186183 0 0.000006 0 0.000013c1.0807 1.290682 1.9028 2.272692 2.5763 3.586482 0.5118 0.99843 -0.2877 2.04818 -1.3078 2.04818H8.88421c-1.00472 0 -1.80756 -1.02396 -1.31655 -2.02097 0.68769 -1.39636 1.57062 -2.41484 2.78054 -3.807059 0.096 -0.110485 0.2356 -0.173329 0.3819 -0.17195ZM8.21052 7.49609c-0.34517 0 -0.625 0.27983 -0.625 0.625 0 0.34518 0.27983 0.625 0.625 0.625h4.99868c0.3451 0 0.625 -0.27982 0.625 -0.625 0 -0.34517 -0.2799 -0.625 -0.625 -0.625H8.21052Zm0 5.00001c-0.34517 0 -0.625 0.2798 -0.625 0.625s0.27983 0.625 0.625 0.625h4.99868c0.3451 0 0.625 -0.2798 0.625 -0.625s-0.2799 -0.625 -0.625 -0.625H8.21052Zm-0.625 -1.875c0 -0.3452 0.27983 -0.62501 0.625 -0.62501h4.99868c0.3451 0 0.625 0.27981 0.625 0.62501 0 0.3452 -0.2799 0.625 -0.625 0.625H8.21052c-0.34517 0 -0.625 -0.2798 -0.625 -0.625ZM1.71717 0.233276C2.19715 0.17806 2.71726 0.122559 3.25452 0.122559c0.53726 0 1.05737 0.055501 1.53735 0.110717 0.71014 0.081694 1.27777 0.648108 1.35678 1.361004 0.05305 0.47867 0.10505 0.99499 0.10505 1.52828s-0.052 1.0496 -0.10505 1.52828c-0.07901 0.71289 -0.64664 1.27931 -1.35678 1.361 -0.47998 0.05522 -1.00009 0.11072 -1.53735 0.11072 -0.53726 0 -1.05737 -0.0555 -1.53735 -0.11072 -0.71014 -0.08169 -1.277773 -0.64811 -1.356782 -1.361 -0.05305 -0.47868 -0.105053 -0.99499 -0.105053 -1.52828s0.052003 -1.04961 0.105053 -1.52828C0.439397 0.881384 1.00703 0.31497 1.71717 0.233276ZM6.50604 10.6235c0 2.0825 -1.17108 3.2539 -3.25302 3.2539C1.17109 13.8774 0 12.706 0 10.6235c0 -2.08247 1.17109 -3.25387 3.25302 -3.25387 2.08194 0 3.25302 1.1714 3.25302 3.25387Z" clip-rule="evenodd" stroke-width="1"></path>
  </g>
</svg>