<svg xmlns="http://www.w3.org/2000/svg" fill="none" viewBox="0 0 14 14" id="Panoramic-Screen--Streamline-Flex">
  <desc>
    Panoramic Screen Streamline Icon: https://streamlinehq.com
  </desc>
  <g id="panoramic-screen">
    <path id="Subtract" fill="#000000" fill-rule="evenodd" d="M9.99536 11.2581c0.40674 0.0668 0.82804 0.1479 1.22654 0.231 1.2562 0.2616 2.4915 -0.6774 2.4915 -1.99184V4.50262c0 -1.31444 -1.2353 -2.25346 -2.4915 -1.9918 -0.3985 0.08301 -0.8198 0.16412 -1.22654 0.23093v8.51635Zm-1.25 -8.35995c-1.31954 0.1168 -2.17062 0.1168 -3.49016 0l0 8.20355c1.31954 -0.1168 2.17062 -0.1168 3.49016 0V2.89815Zm-5.96672 -0.38733c0.39854 0.08302 0.81984 0.16413 1.22656 0.23094l0 8.51634c-0.40672 0.0668 -0.82802 0.1479 -1.22657 0.231 -1.2562 0.2616 -2.491521 -0.6774 -2.491521 -1.99184V4.50262c0 -1.31444 1.235311 -2.25346 2.491531 -1.9918Z" clip-rule="evenodd" stroke-width="1"></path>
  </g>
</svg>