<svg xmlns="http://www.w3.org/2000/svg" fill="none" viewBox="0 0 14 14" id="Pen-Tool--Streamline-Flex">
  <desc>
    Pen Tool Streamline Icon: https://streamlinehq.com
  </desc>
  <g id="pen-tool">
    <path id="Subtract" fill="#000000" fill-rule="evenodd" d="M13.3422 5.61612c-1.1307 1.13066 -2.4217 2.01543 -3.48346 2.62643 -0.22292 -0.96408 -0.7277 -1.88126 -1.478 -2.63155 -0.74423 -0.74424 -1.65266 -1.24691 -2.60819 -1.47255 0.61074 -1.05949 1.49323 -2.34541 2.61989 -3.472081C8.88836 0.170455 9.6924 0.170455 10.1883 0.66637l3.1539 3.15388c0.4959 0.49592 0.4959 1.29995 0 1.79587Zm-5.84534 0.87876c0.79818 0.79819 1.22617 1.8054 1.2413 2.80751 0.00073 0.04822 0.00049 0.09643 -0.0007 0.14461 -0.02363 0.955 -0.42482 1.8959 -1.2406 2.637 -1.80451 1.6391 -4.54589 1.7538 -6.22891 1.5411l2.46157 -2.4615c0.16671 0.0481 0.35375 0.0727 0.55995 0.0727 0.97063 0 1.51661 -0.5459 1.51661 -1.51657 0 -0.97063 -0.54598 -1.51661 -1.51661 -1.51661 -0.97062 0 -1.5166 0.54598 -1.5166 1.51661 0 0.2062 0.02464 0.39327 0.07276 0.55997L0.370391 12.7549c-0.056461 -0.435 -0.09121 -0.9426 -0.083085 -1.4877 0.023296 -1.56017 0.397909 -3.42671 1.620214 -4.77232 1.5553 -1.71218 3.99126 -1.59807 5.58934 0Z" clip-rule="evenodd" stroke-width="1"></path>
  </g>
</svg>