<svg xmlns="http://www.w3.org/2000/svg" fill="none" viewBox="0 0 14 14" id="Pictures-Folder-Memories--Streamline-Flex">
  <desc>
    Pictures Folder Memories Streamline Icon: https://streamlinehq.com
  </desc>
  <g id="pictures-folder-memories">
    <path id="Subtract" fill="#000000" fill-rule="evenodd" d="M5.494 0.618A27.1 27.1 0 0 0 1.98 0.652C1.25 0.703 0.68 1.277 0.599 1.986 0.259 4.947 0.144 7.935 0.5 10.93c0.15 1.253 1.172 2.14 2.358 2.269 2.8 0.305 5.558 0.297 8.355 -0.008a2.592 2.592 0 0 0 2.288 -2.261c0.221 -1.851 0.28 -3.746 0.143 -6.06a2.406 2.406 0 0 0 -2.203 -2.257c-1.19 -0.098 -2.066 -0.116 -3.362 -0.142l-0.6 -0.012a0.498 0.498 0 0 1 -0.457 -0.325l-0.2 -0.541A1.491 1.491 0 0 0 5.494 0.618Zm4.069 7.446c0.9 0 1.406 -0.506 1.406 -1.405 0 -0.9 -0.506 -1.406 -1.406 -1.406 -0.9 0 -1.406 0.506 -1.406 1.406 0 0.9 0.506 1.405 1.406 1.405Zm-4.144 -0.398c1.49 1.15 2.779 2.777 3.726 4.443 -2.051 0.12 -4.09 0.07 -6.151 -0.154 -0.668 -0.072 -1.178 -0.557 -1.252 -1.174A28.83 28.83 0 0 1 1.61 9.38a10.242 10.242 0 0 1 1.73 -1.672c0.612 -0.477 1.465 -0.515 2.079 -0.042Z" clip-rule="evenodd" stroke-width="1"></path>
  </g>
</svg>