<svg xmlns="http://www.w3.org/2000/svg" fill="none" viewBox="0 0 14 14" id="Rectangle-Split-Thirds--Streamline-Flex">
  <desc>
    Rectangle Split Thirds Streamline Icon: https://streamlinehq.com
  </desc>
  <g id="rectangle-split-thirds">
    <path id="Subtract" fill="#000000" fill-rule="evenodd" d="M3.875 2.42066c0 -0.29348 -0.25159 -0.52376 -0.54384 -0.49683 -0.08683 0.008 -0.17333 0.01601 -0.2595 0.02399 -0.14078 0.01304 -0.28065 0.02599 -0.41958 0.03868 -0.95068 0.08683 -1.719934 0.82246 -1.852655 1.76635l-0.004666 0.03318C0.652709 4.79612 0.5 5.88201 0.5 7.00005c0 1.11804 0.152709 2.20393 0.294759 3.21405l0.004666 0.0332c0.132722 0.9438 0.901965 1.6795 1.852655 1.7663 0.13892 0.0127 0.2788 0.0256 0.41956 0.0387l0.00003 0c0.08617 0.008 0.17267 0.016 0.25949 0.024 0.29225 0.0269 0.54384 -0.2034 0.54384 -0.4969l0 -9.15874Zm1.25 9.33454c0 0.2635 0.20438 0.4822 0.46746 0.496 0.46409 0.0245 0.93381 0.0394 1.40754 0.0394s0.94345 -0.0149 1.40754 -0.0394c0.26308 -0.0138 0.46746 -0.2325 0.46746 -0.496V2.24487c0 -0.26344 -0.20438 -0.48216 -0.46746 -0.496 -0.46409 -0.02443 -0.93381 -0.0394 -1.40754 -0.0394s-0.94345 0.01497 -1.40754 0.0394c-0.26308 0.01384 -0.46746 0.23256 -0.46746 0.496l0 9.51033Zm5.8029 0.2971c-0.086 0.008 -0.1724 0.016 -0.2591 0.024 -0.2922 0.0269 -0.5438 -0.2034 -0.5438 -0.4969V2.42066c0 -0.29348 0.2516 -0.52376 0.5438 -0.49683 0.0869 0.008 0.1734 0.01601 0.2595 0.02399 0.1408 0.01304 0.2807 0.02599 0.4196 0.03868 0.9507 0.08683 1.72 0.82246 1.8527 1.76635l0.0046 0.03317c0.1421 1.0101 0.2948 2.09599 0.2948 3.21403 0 1.11804 -0.1527 2.20394 -0.2948 3.21405l-0.0046 0.0332c-0.1327 0.9438 -0.902 1.6795 -1.8527 1.7663 -0.1389 0.0127 -0.2788 0.0256 -0.4196 0.0387l-0.0004 0Z" clip-rule="evenodd" stroke-width="1"></path>
  </g>
</svg>