<svg xmlns="http://www.w3.org/2000/svg" fill="none" viewBox="0 0 14 14" id="Recycle-Bin-Throw-2--Streamline-Flex">
  <desc>
    Recycle Bin Throw 2 Streamline Icon: https://streamlinehq.com
  </desc>
  <g id="recycle-bin-throw-2--remove-delete-empty-bin-trash-garbage">
    <path id="Subtract" fill="#000000" fill-rule="evenodd" d="M5.69223 2.44041c0.19997 -0.54992 0.72261 -0.916 1.30777 -0.916 0.58516 0 1.1078 0.36608 1.30777 0.916l0.14898 0.40969h-2.9135l0.14898 -0.40969Zm-1.74507 0.40969 0.33538 -0.9223C4.69807 0.785086 5.78409 0.0244141 7 0.0244141c1.21592 0 2.30193 0.7606739 2.71746 1.9033859l0.33534 0.9223H13.25c0.4142 0 0.75 0.33578 0.75 0.75 0 0.41421 -0.3358 0.75 -0.75 0.75h-0.7664l-0.3763 7.1901c-0.0796 1.1143 -0.8974 2.0774 -2.0438 2.2306 -2.04471 0.2732 -4.08228 0.2732 -6.12699 0 -1.14645 -0.1532 -1.96421 -1.1163 -2.0438 -2.2306l-0.37626 -7.1901H0.75c-0.414214 0 -0.75 -0.33579 -0.75 -0.75 0 -0.41422 0.335786 -0.75 0.75 -0.75h3.19716Zm3.49053 3.23541c-0.2534 -0.21409 -0.62371 -0.22231 -0.88632 -0.01636 -0.77124 0.60486 -1.21179 1.06392 -1.90262 1.90784 -0.12239 0.14952 -0.14768 0.35616 -0.06496 0.53078 0.08272 0.17461 0.25864 0.28594 0.45186 0.28594H6.375v2.12159c0 0.3452 0.27982 0.625 0.625 0.625s0.625 -0.2798 0.625 -0.625l0 -2.12159h1.29605c0.19501 0 0.37222 -0.11337 0.45396 -0.29042 0.08174 -0.17704 0.05309 -0.38546 -0.07339 -0.53388 -0.67035 -0.78665 -1.09627 -1.23533 -1.86393 -1.8839Z" clip-rule="evenodd" stroke-width="1"></path>
  </g>
</svg>