<svg xmlns="http://www.w3.org/2000/svg" fill="none" viewBox="0 0 14 14" id="Round-Anchor-Point--Streamline-Flex">
  <desc>
    Round Anchor Point Streamline Icon: https://streamlinehq.com
  </desc>
  <g id="round-anchor-point">
    <path id="Union" fill="#000000" fill-rule="evenodd" d="M8.70103 3.41523c-0.04316 0.40339 -0.3676 0.72784 -0.77079 0.77278 -0.29948 0.03338 -0.60697 0.06205 -0.92047 0.06205 -0.31351 0 -0.621 -0.02867 -0.92048 -0.06205 -0.40319 -0.04494 -0.72763 -0.36939 -0.77079 -0.77278 -0.00586 -0.05481 -0.01156 -0.10989 -0.01695 -0.16523H3.65016c-0.23059 0.64691 -0.79426 0.9997 -1.63231 0.9997 -1.119823 0 -1.749724 -0.62991 -1.749724 -1.74973S0.898027 0.750244 2.01785 0.750244c0.83808 0 1.40175 0.352806 1.63234 0.999756h1.65136c0.00539 -0.05532 0.01109 -0.11038 0.01695 -0.16517 0.04316 -0.40339 0.3676 -0.727837 0.77079 -0.772778C6.38877 0.77867 6.69626 0.75 7.00977 0.75c0.3135 0 0.62099 0.02867 0.92047 0.062052 0.40319 0.044941 0.72763 0.369388 0.77079 0.772778 0.00586 0.05479 0.01156 0.10985 0.01695 0.16517h1.64992c0.2306 -0.64695 0.7943 -0.999756 1.6324 -0.999756 1.1198 0 1.7497 0.629906 1.7497 1.749726 0 1.11982 -0.6299 1.74973 -1.7497 1.74973 -0.8381 0 -1.4017 -0.35279 -1.6323 -0.9997H8.71798c-0.00539 0.05534 -0.01108 0.11042 -0.01695 0.16523ZM1.4008 8.05429C2.45812 6.70359 4.24616 5.75 7.00044 5.75c2.75429 0 4.54236 0.95359 5.59966 2.30429 1.0329 1.31947 1.2871 2.91461 1.1991 4.08441 -0.051 0.6782 -0.6301 1.1113 -1.22 1.1113H1.42168c-0.589853 0 -1.168966 -0.4331 -1.219988 -1.1113C0.11368 10.9689 0.367916 9.37376 1.4008 8.05429Z" clip-rule="evenodd" stroke-width="1"></path>
  </g>
</svg>