<svg xmlns="http://www.w3.org/2000/svg" fill="none" viewBox="0 0 14 14" id="Shield-Cross--Streamline-Flex">
  <desc>
    Shield Cross Streamline Icon: https://streamlinehq.com
  </desc>
  <g id="shield-cross--shield-secure-security-cross-add-plus">
    <path id="Subtract" fill="#000000" fill-rule="evenodd" d="M2.865 0.44a0.5 0.5 0 0 0 -0.358 0.15c-0.27 0.278 -0.832 0.851 -1.32 1.847 -0.486 0.995 -0.89 2.391 -0.89 4.312 0 2.308 1.157 3.89 2.557 4.942 1.385 1.041 3.025 1.583 4.085 1.854 0.08 0.02 0.166 0.02 0.247 0 1.062 -0.272 2.673 -0.814 4.027 -1.858 1.37 -1.055 2.49 -2.636 2.49 -4.938 0 -1.921 -0.403 -3.317 -0.89 -4.312A6.75 6.75 0 0 0 11.492 0.59a0.5 0.5 0 0 0 -0.357 -0.15H2.864ZM5.75 4.484a0.75 0.75 0 0 1 0.75 -0.75h1a0.75 0.75 0 0 1 0.75 0.75v1.002h1a0.75 0.75 0 0 1 0.75 0.75v1a0.75 0.75 0 0 1 -0.75 0.75h-1v0.998a0.75 0.75 0 0 1 -0.75 0.75h-1a0.75 0.75 0 0 1 -0.75 -0.75v-0.998h-1a0.75 0.75 0 0 1 -0.75 -0.75v-1a0.75 0.75 0 0 1 0.75 -0.75h1V4.484Z" clip-rule="evenodd" stroke-width="1"></path>
  </g>
</svg>