<svg xmlns="http://www.w3.org/2000/svg" fill="none" viewBox="0 0 14 14" id="Texture--Streamline-Flex">
  <desc>
    Texture Streamline Icon: https://streamlinehq.com
  </desc>
  <g id="texture">
    <path id="Subtract" fill="#000000" fill-rule="evenodd" d="M8.87764 0.331152C8.2624 0.282151 7.63545 0.25 7 0.25c-1.14832 0 -2.26888 0.10499 -3.34273 0.224686C1.98532 0.661049 0.641907 2.0033 0.462704 3.67828 0.408105 4.18861 0.357131 4.70915 0.318778 5.23801L8.87764 0.331152ZM0.252132 6.70636C0.250728 6.80403 0.25 6.90191 0.25 7c0 1.01648 0.078189 2.01127 0.176125 2.97201L13.2774 2.67306C12.8551 1.67164 11.9913 0.896135 10.9356 0.592177L0.350421 6.66072c-0.031943 0.01831 -0.064825 0.03349 -0.098289 0.04564ZM13.5656 3.94695 0.694084 11.2574c0.427506 1.0762 1.360966 1.9031 2.500206 2.1852L13.7206 7.31351c0.009 -0.00525 0.018 -0.01024 0.0272 -0.01498 0.0014 -0.0993 0.0022 -0.19881 0.0022 -0.29853 0 -1.04509 -0.0827 -2.06725 -0.1844 -3.05305Zm0.114 4.83684L5.27025 13.6803c0.56772 0.0425 1.14514 0.0697 1.72975 0.0697 1.14832 0 2.26888 -0.105 3.3427 -0.2247 1.672 -0.1863 3.0154 -1.5286 3.1946 -3.2036 0.0538 -0.5033 0.1042 -1.01655 0.1423 -1.53791Z" clip-rule="evenodd" stroke-width="1"></path>
  </g>
</svg>