<svg xmlns="http://www.w3.org/2000/svg" fill="none" viewBox="0 0 14 14" id="Text-Style--Streamline-Flex">
  <desc>
    Text Style Streamline Icon: https://streamlinehq.com
  </desc>
  <g id="text-style--text-style-formatting-format">
    <path id="Union" fill="#000000" fill-rule="evenodd" d="M2.65977 1.72422c0.03476 -0.03477 0.08192 -0.0543 0.13108 -0.0543H6.25V12.3298H4.11719c-0.41422 0 -0.75 0.3358 -0.75 0.75s0.33578 0.75 0.75 0.75h2.87277L7 13.8299l0.01004 -0.0001h2.87261c0.41425 0 0.74995 -0.3358 0.74995 -0.75s-0.3357 -0.75 -0.74995 -0.75H7.75V1.66992h3.4593c0.0492 0 0.0963 0.01953 0.1311 0.0543 0.0347 0.03477 0.0543 0.08192 0.0543 0.13108v1.40308c0 0.41421 0.3358 0.75 0.75 0.75s0.75 -0.33579 0.75 -0.75V1.8553c0 -0.44699 -0.1776 -0.875671 -0.4937 -1.191741 -0.316 -0.31607 -0.7447 -0.493637 -1.1917 -0.493637H2.79085c-0.44699 0 -0.87567 0.177566 -1.19174 0.493637 -0.31607 0.316071 -0.49364 0.744751 -0.49364 1.191741v1.40308c0 0.41421 0.33579 0.75 0.75 0.75s0.75 -0.33579 0.75 -0.75V1.8553c0 -0.04916 0.01953 -0.09631 0.0543 -0.13108Z" clip-rule="evenodd" stroke-width="1"></path>
  </g>
</svg>