<svg xmlns="http://www.w3.org/2000/svg" fill="none" viewBox="0 0 14 14" id="Thread-Post-Tweet--Streamline-Flex">
  <desc>
    Thread Post Tweet Streamline Icon: https://streamlinehq.com
  </desc>
  <g id="thread-post-tweet">
    <path id="Subtract" fill="#000000" fill-rule="evenodd" d="M1.07959 6.98738c0.0027 -0.5863 0.02972 -1.17577 0.07896 -1.78862l8.71823 1.06111c0.00922 0.24408 0.01446 0.4862 0.01558 0.72777l-0.00032 0c-0.00199 0.39189 -0.01483 0.78523 -0.03791 1.18608L1.08084 7.1059c-0.00042 -0.03952 -0.00073 -0.07903 -0.00093 -0.11852l-0.00032 0Zm0.0503 1.38245c0.05014 0.7664 0.13683 1.56342 0.25581 2.43247h-0.20211c-0.41421 0 -0.749996 0.3358 -0.749996 0.75s0.335786 0.75 0.749996 0.75h3.55274v0.9404c0 0.4143 0.33578 0.75 0.75 0.75 0.41421 0 0.75 -0.3357 0.75 -0.75v-0.9404h3.55382c0.41425 0 0.75005 -0.3358 0.75005 -0.75 0 -0.2176 -0.0927 -0.4135 -0.2407 -0.5505l2.4178 0.3218c0.4106 0.0546 0.7877 -0.2339 0.8424 -0.6445 0.0546 -0.4106 -0.2339 -0.78776 -0.6445 -0.8424l-2.8543 -0.37985 -8.93101 -1.08702Zm8.66612 -3.37774L1.28366 3.95603c0.03014 -0.25363 0.06344 -0.51281 0.09977 -0.77872h-0.19984c-0.41421 0 -0.749996 -0.33579 -0.749996 -0.75s0.335786 -0.75 0.749996 -0.75h3.55274V0.757324c0 -0.414213 0.33578 -0.74999978 0.75 -0.74999978 0.41421 0 0.75 0.33578678 0.75 0.74999978v0.919986h3.55382c0.41425 0 0.75005 0.33579 0.75005 0.75s-0.3358 0.75 -0.75005 0.75h-0.20164c0.08719 0.63822 0.15693 1.23767 0.2075 1.81478Z" clip-rule="evenodd" stroke-width="1"></path>
  </g>
</svg>