<svg xmlns="http://www.w3.org/2000/svg" fill="none" viewBox="0 0 14 14" id="Track-Select-Right-Tool--Streamline-Flex">
  <desc>
    Track Select Right Tool Streamline Icon: https://streamlinehq.com
  </desc>
  <g id="track-select-right-tool">
    <path id="Union" fill="#000000" fill-rule="evenodd" d="M1.4375 3.75c0 -0.20711 0.16789 -0.375 0.375 -0.375h0.25c0.34518 0 0.625 -0.27982 0.625 -0.625s-0.27982 -0.625 -0.625 -0.625h-0.25c-0.897463 0 -1.625 0.72754 -1.625 1.625V4c0 0.34518 0.279822 0.625 0.625 0.625 0.34518 0 0.625 -0.27982 0.625 -0.625v-0.25Zm6.75 0c0 -0.20711 -0.16789 -0.375 -0.375 -0.375h-0.25c-0.34518 0 -0.625 -0.27982 -0.625 -0.625s0.27982 -0.625 0.625 -0.625h0.25c0.89746 0 1.625 0.72754 1.625 1.625V4c0 0.34518 -0.27982 0.625 -0.625 0.625s-0.625 -0.27982 -0.625 -0.625v-0.25ZM0.8125 5.875c0.34518 0 0.625 0.27982 0.625 0.625v1c0 0.34518 -0.27982 0.625 -0.625 0.625 -0.345178 0 -0.625 -0.27982 -0.625 -0.625v-1c0 -0.34518 0.279822 -0.625 0.625 -0.625Zm4.5 -2.5c0.34518 0 0.625 -0.27982 0.625 -0.625s-0.27982 -0.625 -0.625 -0.625h-1c-0.34518 0 -0.625 0.27982 -0.625 0.625s0.27982 0.625 0.625 0.625h1Zm2.5 7.25c0.20711 0 0.375 -0.1679 0.375 -0.375V10c0 -0.34518 0.27982 -0.625 0.625 -0.625s0.625 0.27982 0.625 0.625v0.25c0 0.8975 -0.72754 1.625 -1.625 1.625h-0.25c-0.34518 0 -0.625 -0.2798 -0.625 -0.625s0.27982 -0.625 0.625 -0.625h0.25Zm-6.375 -0.375c0 0.2071 0.16789 0.375 0.375 0.375h0.25c0.34518 0 0.625 0.2798 0.625 0.625s-0.27982 0.625 -0.625 0.625h-0.25c-0.897463 0 -1.625 -0.7275 -1.625 -1.625V10c0 -0.34518 0.279822 -0.625 0.625 -0.625 0.34518 0 0.625 0.27982 0.625 0.625v0.25Zm2.25 1c0 -0.3452 0.27982 -0.625 0.625 -0.625h1c0.34518 0 0.625 0.2798 0.625 0.625s-0.27982 0.625 -0.625 0.625h-1c-0.34518 0 -0.625 -0.2798 -0.625 -0.625Zm7.0049 -2.80099c-0.0922 0.24022 -0.0593 0.51361 0.0964 0.71805 0.1715 0.22519 0.4772 0.33717 0.7836 0.22021 0.4365 -0.1666 0.8514 -0.50077 1.1795 -0.88782 0.3307 -0.39007 0.607 -0.87336 0.7332 -1.37823 0.0199 -0.07962 0.0199 -0.16292 0 -0.24254 -0.1262 -0.50487 -0.4025 -0.98815 -0.7332 -1.37822 -0.3281 -0.38706 -0.743 -0.72123 -1.1795 -0.88783 -0.3064 -0.11696 -0.6121 -0.00498 -0.7836 0.22021 -0.1557 0.20444 -0.1886 0.47783 -0.0964 0.71805 0.0612 0.15922 0.1284 0.35692 0.1844 0.57406H6c-0.48325 0 -0.875 0.39175 -0.875 0.875s0.39175 0.875 0.875 0.875h4.8768c-0.056 0.21714 -0.1232 0.41484 -0.1844 0.57406Z" clip-rule="evenodd" stroke-width="1"></path>
  </g>
</svg>