<svg xmlns="http://www.w3.org/2000/svg" fill="none" viewBox="0 0 14 14" id="User-Identifier-Card--Streamline-Flex">
  <desc>
    User Identifier Card Streamline Icon: https://streamlinehq.com
  </desc>
  <g id="user-identifier-card">
    <path id="Subtract" fill="#000000" fill-rule="evenodd" d="M2.86933 1.92615c2.8036 -0.14535 5.4578 -0.14535 8.26137 0 1.2046 0.06245 2.1948 0.99655 2.2879 2.21293 0.1477 1.93204 0.1477 3.78977 0 5.72182 -0.0931 1.2164 -1.0833 2.1505 -2.2879 2.2129 -2.80357 0.1454 -5.45777 0.1454 -8.26137 0 -1.20455 -0.0624 -2.19482 -0.9965 -2.287829 -2.2129 -0.14773 -1.93205 -0.147731 -3.78978 0 -5.72182C0.674509 2.9227 1.66478 1.98859 2.86933 1.92615ZM5.1839 7.0426c0.96546 0 1.50854 -0.54307 1.50854 -1.50854 0 -0.96547 -0.54308 -1.50855 -1.50854 -1.50855 -0.96547 0 -1.50855 0.54308 -1.50855 1.50855S4.21843 7.0426 5.1839 7.0426Zm3.32788 -1.30041c0 -0.34518 0.27982 -0.625 0.625 -0.625h1.51172c0.3452 0 0.625 0.27982 0.625 0.625s-0.2798 0.625 -0.625 0.625H9.13678c-0.34518 0 -0.625 -0.27982 -0.625 -0.625Zm0 2.51562c0 -0.34518 0.27982 -0.625 0.625 -0.625h1.51172c0.3452 0 0.625 0.27982 0.625 0.625s-0.2798 0.625 -0.625 0.625H9.13678c-0.34518 0 -0.625 -0.27982 -0.625 -0.625Zm-0.88412 1.32013C7.42831 8.5377 6.46797 7.79199 5.18405 7.79199s-2.24426 0.74571 -2.44361 1.78595c-0.0426 0.22231 0.14527 0.40763 0.37162 0.40763h4.14398c0.22636 0 0.41422 -0.18532 0.37162 -0.40763Z" clip-rule="evenodd" stroke-width="1"></path>
  </g>
</svg>