<svg xmlns="http://www.w3.org/2000/svg" fill="none" viewBox="0 0 14 14" id="Cloud-Wifi--Streamline-Core-Gradient">
  <desc>
    Cloud Wifi Streamline Icon: https://streamlinehq.com
  </desc>
  <g id="Free Gradient/Programming/cloud-wifi--cloud-wifi-internet-server-network">
    <path id="Union" fill="url(#paint0_linear_14402_11965)" fill-rule="evenodd" d="M7.00008-.000366211c-1.46785 0-2.92083.293956211-4.27316.864521211-.38164.161015-.56049.600925-.39947.982565.16102.38163.60093.56048.98256.39946 1.16778-.4927 2.4225-.74655 3.69007-.74655s2.52229.25385 3.69002.74655c.3817.16102.8216-.01783.9826-.39946.161-.38164-.0178-.82155-.3995-.982565C9.92091.29359 8.46793-.000366211 7.00008-.000366211ZM9.72081 2.99799c-1.76454-.59889-3.67751-.59889-5.44205 0-.39224.13313-.60229.55902-.46916.95126.13312.39223.55902.60229.95125.46916 1.45191-.49278 3.02596-.49278 4.47787 0 .39223.13313.81808-.07693.95128-.46916.1331-.39224-.077-.81813-.46919-.95126ZM7.75807 5.3097c-.85818-.10397-1.7261.08926-2.45903.54749-.6692.41839-1.18895 1.03462-1.48893 1.76045-.35646.04443-.70336.14846-1.02606.30817-.3774.18677-.71432.44601-.9915.76295-.55981.64008-.842326 1.47624-.78534 2.32464.05699.8483.44881 1.6392 1.08918 2.1988.63597.5556 1.46537.8379 2.30793.7859h5.79458l.003 0c.6888-.0041 1.3522-.2605 1.8646-.7207s.8382-1.0923.9157-1.7766c.0775-.6843-.0988-1.3732-.4953-1.93632-.3544-.50316-.8627-.87461-1.4452-1.06062-.1163-.78032-.4744-1.50669-1.0266-2.07527-.60223-.62002-1.39885-1.01491-2.25703-1.11889Z" clip-rule="evenodd"></path>
  </g>
  <defs>
    <linearGradient id="paint0_linear_14402_11965" x1="14.04" x2="-3.73" y1="16.971" y2="6.154" gradientUnits="userSpaceOnUse">
      <stop stop-color="#ffd600"></stop>
      <stop offset="1" stop-color="#ff007a"></stop>
    </linearGradient>
  </defs>
</svg>