<svg xmlns="http://www.w3.org/2000/svg" fill="none" viewBox="0 0 14 14" id="Cloud-Add--Streamline-Core-Gradient">
  <desc>
    Cloud Add Streamline Icon: https://streamlinehq.com
  </desc>
  <g id="Free Gradient/Programming/cloud-add--cloud-network-internet-add-server-plus">
    <path id="Union" fill="url(#paint0_linear_14402_11934)" fill-rule="evenodd" d="M7.88496.0318033C6.89132-.0886374 5.88643.135202 5.03785.665994 4.24794 1.16009 3.63793 1.89236 3.29404 2.75443c-.42969.04733-.84817.16967-1.2363.36184-.43533.21555-.82395.51472-1.143653.88045-.645678.73862-.9714928 1.70349-.90577008 2.68234C.0740396 7.65791.525917 8.57056 1.26454 9.21623c.40638.35525.88125.61367 1.38925.76333C2.95549 9.25745 3.66848 8.75 4.5 8.75H5v-.5c0-1.10457.89543-2 2-2s2 .89543 2 2v.5h.5c.8636 0 1.5994.5474 1.8793 1.3142.5725-.11091 1.1084-.3753 1.5476-.77003.589-.52927.9635-1.25614 1.0526-2.04299.089-.78684-.1135-1.57902-.5694-2.22654-.4182-.5942-1.0231-1.02873-1.7155-1.23658-.1254-.92519-.5438-1.78792-1.1965-2.46022C9.80091.609685 8.87859.152244 7.88496.0318033ZM7.75 8.25c0-.41421-.33579-.75-.75-.75s-.75.33579-.75.75V10H4.5c-.41421 0-.75.3358-.75.75s.33579.75.75.75h1.75v1.75c0 .4142.33579.75.75.75s.75-.3358.75-.75V11.5H9.5c.41421 0 .75-.3358.75-.75S9.91421 10 9.5 10H7.75V8.25Z" clip-rule="evenodd"></path>
  </g>
  <defs>
    <linearGradient id="paint0_linear_14402_11934" x1=".538" x2="16.494" y1="1.131" y2="10.125" gradientUnits="userSpaceOnUse">
      <stop stop-color="#00d078"></stop>
      <stop offset="1" stop-color="#007df0"></stop>
    </linearGradient>
  </defs>
</svg>