<svg xmlns="http://www.w3.org/2000/svg" fill="none" viewBox="0 0 24 24" id="Book-Open-Bookmark--Streamline-Ultimate">
  <desc>
    Book Open Bookmark Streamline Icon: https://streamlinehq.com
  </desc>
  <path fill="#ffffff" d="M12 6.03773c0 -1.81899 4.556 -3.313 9.968 -3.484 0.134 -0.00429 0.2675 0.0184 0.3925 0.06673 0.1251 0.04833 0.2391 0.12132 0.3354 0.21461 0.0963 0.09329 0.1728 0.20498 0.225 0.32843 0.0523 0.12346 0.0792 0.25617 0.0791 0.39023V18.0537c0.0001 0.2601 -0.1011 0.51 -0.2822 0.6967 -0.1811 0.1867 -0.4278 0.2955 -0.6878 0.3033 -5.439 0.163 -10.03 1.661 -10.03 3.484 0 -1.826 -4.591 -3.324 -10.03 -3.486 -0.25998 -0.0078 -0.5067 -0.1166 -0.68779 -0.3033 -0.1811 -0.1867 -0.282327 -0.4366 -0.28221 -0.6967V3.55674c-0.000069 -0.13406 0.02682 -0.26677 0.07906 -0.39023 0.05225 -0.12345 0.12878 -0.23516 0.22506 -0.32845 0.09627 -0.09329 0.21032 -0.16626 0.33536 -0.21459 0.12505 -0.04833 0.25853 -0.07102 0.39252 -0.06673 5.411 0.171 9.968 1.665 9.968 3.48099Z" stroke-width="1"></path>
  <path stroke="#191919" stroke-linecap="round" stroke-linejoin="round" d="M12.0005 6.16576V22.5378" stroke-width="1"></path>
  <path stroke="#191919" stroke-linecap="round" stroke-linejoin="round" d="M9.50049 8.16575c-2.09699 -0.71915 -4.28553 -1.13666 -6.5 -1.24" stroke-width="1"></path>
  <path stroke="#191919" stroke-linecap="round" stroke-linejoin="round" d="M9.50049 12.4257c-2.09699 -0.7191 -4.28553 -1.1367 -6.5 -1.24" stroke-width="1"></path>
  <path stroke="#191919" stroke-linecap="round" stroke-linejoin="round" d="M9.50049 16.6657c-2.09699 -0.7191 -4.28553 -1.1367 -6.5 -1.24" stroke-width="1"></path>
  <path stroke="#191919" stroke-linecap="round" stroke-linejoin="round" d="M14.5 12.4257c2.0971 -0.7187 4.2856 -1.1362 6.5 -1.24" stroke-width="1"></path>
  <path stroke="#191919" stroke-linecap="round" stroke-linejoin="round" d="M14.5 16.6657c2.0971 -0.7187 4.2856 -1.1362 6.5 -1.24" stroke-width="1"></path>
  <path fill="#ff808c" d="M16 2.38874c-0.0001 -0.11113 0.0368 -0.21914 0.1048 -0.30697 0.0681 -0.08783 0.1635 -0.15047 0.2712 -0.17803 1.0079 -0.25695 2.0318 -0.44604 3.065 -0.566 0.0704 -0.00837 0.1419 -0.00166 0.2095 0.01969 0.0677 0.02135 0.13 0.05685 0.1829 0.10414 0.0528 0.04729 0.095 0.10529 0.1238 0.17015 0.0287 0.06486 0.0433 0.13509 0.0428 0.20602v7.328l-2 -2 -2 2v-6.777Z" stroke-width="1"></path>
  <path fill="#ffbfc5" d="M16 3.98773c-0.0001 -0.11113 0.0367 -0.21914 0.1048 -0.30697 0.0681 -0.08783 0.1635 -0.15047 0.2712 -0.17803 1.0079 -0.25662 2.0319 -0.44538 3.065 -0.565 0.0704 -0.00838 0.1419 -0.00166 0.2095 0.01969s0.13 0.05685 0.1828 0.10414c0.0529 0.04729 0.0951 0.10529 0.1239 0.17015 0.0287 0.06485 0.0433 0.13508 0.0428 0.20602v-1.6c0.0005 -0.07084 -0.0141 -0.14098 -0.0428 -0.20575 -0.0287 -0.06478 -0.0708 -0.12273 -0.1235 -0.17001 -0.0528 -0.04727 -0.115 -0.0828 -0.1825 -0.10422 -0.0675 -0.02142 -0.1388 -0.02824 -0.2092 -0.02002 -1.0331 0.11897 -2.0571 0.30705 -3.065 0.563 -0.1083 0.02749 -0.2044 0.0905 -0.2727 0.17896 -0.0683 0.08845 -0.1051 0.19726 -0.1043 0.30904v1.599Z" stroke-width="1"></path>
  <path stroke="#191919" stroke-linecap="round" stroke-linejoin="round" d="M16 2.38874c-0.0001 -0.11113 0.0368 -0.21914 0.1048 -0.30697 0.0681 -0.08783 0.1635 -0.15047 0.2712 -0.17803 1.0079 -0.25695 2.0318 -0.44604 3.065 -0.566 0.0704 -0.00837 0.1419 -0.00166 0.2095 0.01969 0.0677 0.02135 0.13 0.05685 0.1829 0.10414 0.0528 0.04729 0.095 0.10529 0.1238 0.17015 0.0287 0.06486 0.0433 0.13509 0.0428 0.20602v7.328l-2 -2 -2 2v-6.777Z" stroke-width="1"></path>
  <path stroke="#191919" stroke-linecap="round" stroke-linejoin="round" d="M20 2.80175c0.638 -0.06 1.3 -0.1 1.967 -0.123 0.134 -0.00429 0.2675 0.0184 0.3925 0.06673 0.1251 0.04833 0.2391 0.12131 0.3354 0.2146 0.0963 0.09329 0.1728 0.20499 0.225 0.32844 0.0523 0.12346 0.0792 0.25617 0.0791 0.39023V18.1788c0.0001 0.2601 -0.1011 0.51 -0.2822 0.6967 -0.1811 0.1867 -0.4278 0.2955 -0.6878 0.3033 -5.438 0.159 -10.029 1.659 -10.029 3.487 0 -1.828 -4.591 -3.328 -10.03 -3.486 -0.25998 -0.0078 -0.5067 -0.1166 -0.68779 -0.3033 -0.1811 -0.1867 -0.282327 -0.4366 -0.28221 -0.6967V3.68175c-0.000069 -0.13406 0.02682 -0.26677 0.07906 -0.39023 0.05225 -0.12345 0.12878 -0.23515 0.22506 -0.32844 0.09627 -0.09329 0.21032 -0.16627 0.33536 -0.2146 0.12505 -0.04833 0.25853 -0.07102 0.39252 -0.06673 5.411 0.171 9.968 1.665 9.968 3.484 0 -0.711 0.7 -1.372 1.867 -1.924" stroke-width="1"></path>
</svg>