<svg xmlns="http://www.w3.org/2000/svg" fill="none" viewBox="0 0 24 24" id="Notes-Checklist-Flip--Streamline-Ultimate">
  <desc>
    Notes Checklist Flip Streamline Icon: https://streamlinehq.com
  </desc>
  <path fill="#ffffff" d="M22.0435 3.86958V17.2609h-4.7826c-0.2537 0 -0.497 0.1008 -0.6764 0.2801 -0.1793 0.1794 -0.2801 0.4227 -0.2801 0.6764V23H2.91306c-0.25368 0 -0.49698 -0.1008 -0.67636 -0.2802 -0.17938 -0.1793 -0.28016 -0.4227 -0.28016 -0.6763V3.86958c0 -0.25369 0.10078 -0.49698 0.28016 -0.67637 0.17938 -0.17938 0.42268 -0.28015 0.67636 -0.28015H21.087c0.2536 0 0.497 0.10077 0.6763 0.28015 0.1794 0.17939 0.2802 0.42268 0.2802 0.67637Z" stroke-width="1"></path>
  <path fill="#e3e3e3" d="M22.0433 17.2609 16.3042 23v-4.7826c0 -0.2537 0.1008 -0.497 0.2802 -0.6764 0.1793 -0.1793 0.4227 -0.2801 0.6763 -0.2801h4.7826Z" stroke-width="1"></path>
  <path stroke="#191919" stroke-linecap="round" stroke-linejoin="round" d="M4.82617 1v4.30434" stroke-width="1"></path>
  <path stroke="#191919" stroke-linecap="round" stroke-linejoin="round" d="M9.60889 1v4.30434" stroke-width="1"></path>
  <path stroke="#191919" stroke-linecap="round" stroke-linejoin="round" d="M14.3911 1v4.30434" stroke-width="1"></path>
  <path stroke="#191919" stroke-linecap="round" stroke-linejoin="round" d="M19.1738 1v4.30434" stroke-width="1"></path>
  <path stroke="#191919" stroke-linecap="round" stroke-linejoin="round" d="M9.60903 7.69565 6.73947 10.5652 5.30469 9.13043" stroke-width="1"></path>
  <path stroke="#191919" stroke-linecap="round" stroke-linejoin="round" d="m9.60903 12.9565 -2.86956 2.8696 -1.43478 -1.4348" stroke-width="1"></path>
  <path stroke="#191919" stroke-linecap="round" stroke-linejoin="round" d="M11.5215 9.60869h6.2174" stroke-width="1"></path>
  <path stroke="#191919" stroke-linecap="round" stroke-linejoin="round" d="M11.5215 14.3913h6.2174" stroke-width="1"></path>
  <path stroke="#191919" stroke-linecap="round" stroke-linejoin="round" d="M22.0435 3.86958V17.2609h-4.7826c-0.2537 0 -0.497 0.1008 -0.6764 0.2801 -0.1793 0.1794 -0.2801 0.4227 -0.2801 0.6764V23H2.91306c-0.25368 0 -0.49698 -0.1008 -0.67636 -0.2802 -0.17938 -0.1793 -0.28016 -0.4227 -0.28016 -0.6763V3.86958c0 -0.25369 0.10078 -0.49698 0.28016 -0.67637 0.17938 -0.17938 0.42268 -0.28015 0.67636 -0.28015H21.087c0.2536 0 0.497 0.10077 0.6763 0.28015 0.1794 0.17939 0.2802 0.42268 0.2802 0.67637Z" stroke-width="1"></path>
  <path stroke="#191919" stroke-linecap="round" stroke-linejoin="round" d="M22.0433 17.2609 16.3042 23v-4.7826c0 -0.2537 0.1008 -0.497 0.2802 -0.6764 0.1793 -0.1793 0.4227 -0.2801 0.6763 -0.2801h4.7826Z" stroke-width="1"></path>
</svg>