<svg xmlns="http://www.w3.org/2000/svg" fill="none" viewBox="0 0 24 24" id="Notes-Upload--Streamline-Ultimate">
  <desc>
    Notes Upload Streamline Icon: https://streamlinehq.com
  </desc>
  <path fill="#ffffff" d="M15.3476 2.91225H1.9565c-0.25368 0 -0.49697 0.10077 -0.67635 0.28015C1.10077 3.37178 1 3.61507 1 3.86875V19.1728c0 0.2537 0.10077 0.497 0.28015 0.6764s0.42267 0.2801 0.67635 0.2801h13.3911c0.2536 0 0.4969 -0.1007 0.6763 -0.2801s0.2802 -0.4227 0.2802 -0.6764V3.86875c0 -0.25368 -0.1008 -0.49697 -0.2802 -0.67635 -0.1794 -0.17938 -0.4227 -0.28015 -0.6763 -0.28015Z" stroke-width="1"></path>
  <path stroke="#191919" stroke-linecap="round" stroke-linejoin="round" d="M9.60854 20.1293H1.9565c-0.25368 0 -0.49697 -0.1007 -0.67635 -0.2801C1.10077 19.6698 1 19.4265 1 19.1728V3.86875c0 -0.25368 0.10077 -0.49697 0.28015 -0.67635 0.17938 -0.17938 0.42267 -0.28015 0.67635 -0.28015h13.3911c0.2536 0 0.4969 0.10077 0.6763 0.28015s0.2802 0.42267 0.2802 0.67635v4.78252" stroke-width="1"></path>
  <path stroke="#191919" stroke-linecap="round" stroke-linejoin="round" d="M4.82617 4.82622V1.0002" stroke-width="1"></path>
  <path stroke="#191919" stroke-linecap="round" stroke-linejoin="round" d="M8.65234 4.82622V1.0002" stroke-width="1"></path>
  <path stroke="#191919" stroke-linecap="round" stroke-linejoin="round" d="M12.4775 4.82622V1.0002" stroke-width="1"></path>
  <path fill="#66e1ff" d="M17.261 22.9998c1.5221 0 2.9818 -0.6046 4.0581 -1.6809C22.3954 20.2426 23 18.7829 23 17.2608c0 -1.5221 -0.6046 -2.9818 -1.6809 -4.0581 -1.0763 -1.0763 -2.536 -1.6809 -4.0581 -1.6809 -1.5221 0 -2.9818 0.6046 -4.0581 1.6809 -1.0763 1.0763 -1.6809 2.536 -1.6809 4.0581 0 1.5221 0.6046 2.9818 1.6809 4.0581 1.0763 1.0763 2.536 1.6809 4.0581 1.6809Z" stroke-width="1"></path>
  <path fill="#c2f3ff" d="M17.2608 11.5218c-1.1681 -0.001 -2.3086 0.3548 -3.2689 1.0198 -0.9604 0.6649 -1.6947 1.6073 -2.1048 2.701 -0.4102 1.0937 -0.4765 2.2866 -0.1902 3.4191 0.2864 1.1324 0.9117 2.1504 1.7924 2.9177l8.0901 -8.0901c-0.537 -0.6181 -1.2004 -1.1136 -1.9455 -1.453 -0.7451 -0.3395 -1.5544 -0.515 -2.3731 -0.5145Z" stroke-width="1"></path>
  <path stroke="#191919" stroke-linecap="round" stroke-linejoin="round" d="M17.261 22.9998c1.5221 0 2.9818 -0.6046 4.0581 -1.6809C22.3954 20.2426 23 18.7829 23 17.2608c0 -1.5221 -0.6046 -2.9818 -1.6809 -4.0581 -1.0763 -1.0763 -2.536 -1.6809 -4.0581 -1.6809 -1.5221 0 -2.9818 0.6046 -4.0581 1.6809 -1.0763 1.0763 -1.6809 2.536 -1.6809 4.0581 0 1.5221 0.6046 2.9818 1.6809 4.0581 1.0763 1.0763 2.536 1.6809 4.0581 1.6809Z" stroke-width="1"></path>
  <path stroke="#191919" stroke-linecap="round" stroke-linejoin="round" d="M17.2603 20.1351v-5.739" stroke-width="1"></path>
  <path stroke="#191919" stroke-linecap="round" stroke-linejoin="round" d="m17.2605 14.3961 -2.1521 2.1521" stroke-width="1"></path>
  <path stroke="#191919" stroke-linecap="round" stroke-linejoin="round" d="m17.2603 14.3961 2.1521 2.1521" stroke-width="1"></path>
</svg>