<svg xmlns="http://www.w3.org/2000/svg" fill="none" viewBox="0 0 24 24" id="Notes-Paper-Text--Streamline-Ultimate">
  <desc>
    Notes Paper Text Streamline Icon: https://streamlinehq.com
  </desc>
  <path fill="#ffef5e" d="M23 1.95652V15.3478h-6.6957c-0.2536 0 -0.497 0.1009 -0.6763 0.2802 -0.1794 0.1792 -0.2802 0.4227 -0.2802 0.6763V23H1.95652c-0.25367 0 -0.497 -0.1008 -0.6764 -0.2801C1.10083 22.5405 1 22.2972 1 22.0435V1.95652c0 -0.25367 0.10083 -0.497 0.28012 -0.6764C1.45952 1.10083 1.70285 1 1.95652 1H22.0435c0.2537 0 0.497 0.10083 0.6764 0.28012 0.1793 0.1794 0.2801 0.42273 0.2801 0.6764Z" stroke-width="1"></path>
  <path fill="#ffbc44" d="M22.9998 15.3478 15.3477 23v-6.6957c0 -0.2536 0.1008 -0.497 0.2801 -0.6764 0.1793 -0.1794 0.4227 -0.2801 0.6764 -0.2801h6.6956Z" stroke-width="1"></path>
  <path stroke="#191919" stroke-linecap="round" stroke-linejoin="round" d="M23 1.95652V15.3478h-6.6957c-0.2536 0 -0.497 0.1009 -0.6763 0.2802 -0.1794 0.1792 -0.2802 0.4227 -0.2802 0.6763V23H1.95652c-0.25367 0 -0.497 -0.1008 -0.6764 -0.2801C1.10083 22.5405 1 22.2972 1 22.0435V1.95652c0 -0.25367 0.10083 -0.497 0.28012 -0.6764C1.45952 1.10083 1.70285 1 1.95652 1H22.0435c0.2537 0 0.497 0.10083 0.6764 0.28012 0.1793 0.1794 0.2801 0.42273 0.2801 0.6764Z" stroke-width="1"></path>
  <path stroke="#191919" stroke-linecap="round" stroke-linejoin="round" d="M22.9998 15.3478 15.3477 23v-6.6957c0 -0.2536 0.1008 -0.497 0.2801 -0.6764 0.1793 -0.1794 0.4227 -0.2801 0.6764 -0.2801h6.6956Z" stroke-width="1"></path>
  <path stroke="#191919" stroke-linecap="round" stroke-linejoin="round" d="m5.3042 10.0439 0.95652 -0.9565c0.25377 -0.25348 0.59783 -0.39589 0.95652 -0.39589 0.3587 0 0.70275 0.14241 0.95652 0.39589 0.25378 0.25347 0.59783 0.39588 0.95653 0.39588 0.35869 0 0.70275 -0.14241 0.95651 -0.39588 0.2538 -0.25348 0.5978 -0.39589 0.9565 -0.39589s0.7028 0.14241 0.9566 0.39589c0.2537 0.25347 0.5978 0.39588 0.9565 0.39588s0.7027 -0.14241 0.9565 -0.39588c0.2538 -0.25348 0.5978 -0.39589 0.9565 -0.39589s0.7028 0.14241 0.9565 0.39589c0.2538 0.25347 0.5979 0.39588 0.9566 0.39588s0.7027 -0.14241 0.9565 -0.39588l0.9565 -0.95653" stroke-width="1"></path>
  <path stroke="#191919" stroke-linecap="round" stroke-linejoin="round" d="m5.3042 14.8265 0.95652 -0.9565c0.25377 -0.2535 0.59783 -0.3959 0.95652 -0.3959 0.3587 0 0.70275 0.1424 0.95652 0.3959 0.25378 0.2535 0.59783 0.3959 0.95653 0.3959 0.35869 0 0.70275 -0.1424 0.95651 -0.3959" stroke-width="1"></path>
</svg>