<svg xmlns="http://www.w3.org/2000/svg" fill="none" viewBox="0 0 14 14" id="Ai-Network-Spark--Streamline-Core">
  <desc>
    Ai Network Spark Streamline Icon: https://streamlinehq.com
  </desc>
  <g id="ai-network-spark--globe-internet-world-artificial-intelligence-ai">
    <path id="Subtract" fill="#fddc5c" fill-rule="evenodd" d="M7.02927 1.64705c-0.17434 -0.01557 -0.35088 -0.02351 -0.52927 -0.02351 -3.24553 0 -5.876556 2.63102 -5.876556 5.87655 0 3.24551 2.631026 5.87651 5.876556 5.87651s5.8766 -2.631 5.8766 -5.87651c0 -0.18886 -0.009 -0.37565 -0.0264 -0.55995 -0.2975 0.89459 -1.0849 1.46146 -1.9629 1.47414 -0.97342 0.01407 -1.83624 -0.65418 -2.06299 -1.70747 -0.11981 -0.55656 -0.5516 -0.96035 -1.06489 -1.05116 -2.18624 -0.38675 -2.26301 -3.43505 -0.23015 -4.0086Z" clip-rule="evenodd" stroke-width="1"></path>
    <path id="Union" fill="#0c098c" fill-rule="evenodd" d="M11.176 0.649355c-0.1952 -0.87008 -1.42803 -0.863859 -1.61551 0.007044l-0.02083 0.096752 0.48884 0.105228 -0.48884 -0.105227C9.30983 1.82077 8.46971 2.63397 7.42206 2.8193c-0.89608 0.15853 -0.89608 1.45287 0 1.61139 1.04765 0.18534 1.88777 0.99854 2.1176 2.06616l0.02083 0.09675c0.18748 0.8709 1.42031 0.87713 1.61551 0.00705l0.0252 -0.11276c0.2386 -1.06349 1.0796 -1.87059 2.1254 -2.0556 0.8979 -0.15883 0.8979 -1.45575 0 -1.61458 -1.0458 -0.18501 -1.8868 -0.99211 -2.1254 -2.055601L11.176 0.649355ZM6.98499 2.01934c0.11541 -0.14192 0.15827 -0.31918 0.13321 -0.48688 -0.02224 -0.14875 -0.09791 -0.28998 -0.22379 -0.39235 -0.11555 -0.09396 -0.25453 -0.13983 -0.3927 -0.14011L6.5 1C2.91015 1 0 3.91015 0 7.5 0 11.0899 2.91015 14 6.5 14c3.5899 0 6.5 -2.9101 6.5 -6.5 0 -0.34518 -0.2798 -0.625 -0.625 -0.625s-0.625 0.27982 -0.625 0.625c0 2.44124 -1.6662 4.4933 -3.9235 5.081 0.67646 -1.1094 1.14428 -2.3311 1.38531 -3.60941 0.06395 -0.3392 -0.15918 -0.66602 -0.49838 -0.72998 -0.3392 -0.06395 -0.66603 0.15918 -0.72998 0.49838 -0.24218 1.28451 -0.74272 2.50271 -1.47784 3.58391 -0.88645 -1.302 -1.38604 -2.74183 -1.4983 -4.1989h2.88612c0.34518 0 0.625 -0.27982 0.625 -0.625s-0.27982 -0.625 -0.625 -0.625h-2.8875c0.12776 -1.7068 0.78718 -3.38998 1.97906 -4.85566ZM3.75288 6.875c0.09984 -1.53755 0.57397 -3.06016 1.42304 -4.45661 -2.0629 0.53601 -3.63269 2.29497 -3.8891 4.45661h2.46606Zm-2.46606 1.25c0.25686 2.1654 1.83164 3.9267 3.89981 4.4594 -0.8519 -1.3969 -1.32962 -2.92054 -1.43253 -4.4594H1.28682Z" clip-rule="evenodd" stroke-width="1"></path>
  </g>
</svg>