<svg xmlns="http://www.w3.org/2000/svg" fill="none" viewBox="0 0 40 40" id="Bluetooth--Streamline-Stickies">
  <desc>
    Bluetooth Streamline Icon: https://streamlinehq.com
  </desc>
  <path fill="#ff52a1" stroke="#231f20" stroke-miterlimit="10" d="M25.44 20c3.86 -3.38 7.75 -6.92 8.4 -8.06 0.2106 -0.2661 0.3657 -0.5717 0.4563 -0.8988 0.0905 -0.327 0.1145 -0.6689 0.0707 -1.0054 -0.0438 -0.33652 -0.1546 -0.66085 -0.3258 -0.95382 -0.1713 -0.29298 -0.3995 -0.54867 -0.6712 -0.75198C31.58 7 21.33 0.5 19.49 0.5c-1.25 0 -2.76 0.47 -3 2.2 -0.35 1.07 -0.53 4.86 -0.61 9.18 -1.785 -1.5779 -3.7171 -2.98101 -5.77 -4.19 -1.37 -0.8 -2.67 0.06 -3.49 1 -0.82 0.94 -1.47 2.38 -0.47 3.61 0.63 1.1 4.25 4.43 8 7.69 -3.72 3.26 -7.34 6.59 -8 7.68 -1 1.24 -0.34 2.66 0.47 3.61 0.81 0.95 2.12 1.82 3.49 1 2.0559 -1.2005 3.9886 -2.6006 5.77 -4.18 0.08 4.32 0.26 8.11 0.61 9.17 0.117 0.6533 0.4722 1.2399 0.9968 1.6463 0.5247 0.4064 1.1814 0.6037 1.8432 0.5537C21 39.85 31.6 33 33.37 31.66c0.2714 -0.2024 0.4994 -0.4572 0.6705 -0.7493 0.1712 -0.2921 0.2819 -0.6156 0.3257 -0.9513 0.0439 -0.3357 0.0199 -0.6768 -0.0705 -1.0031 -0.0904 -0.3262 -0.2454 -0.631 -0.4557 -0.8963 -0.65 -1.14 -4.54 -4.68 -8.4 -8.06Zm-2.33 -9.27 1.1 0.69 -1.07 0.87c-0.0067 -0.5267 -0.0167 -1.0467 -0.03 -1.56Zm0 17 1.09 0.88 -1.12 0.7 0.03 -1.58Z" stroke-width="1"></path>
  <path stroke="#ffffff" stroke-linecap="round" stroke-miterlimit="10" d="M27.54 7.40997c1.87 1 3.73 1.92 4.32 2.70003" stroke-width="1"></path>
</svg>