<svg xmlns="http://www.w3.org/2000/svg" fill="none" viewBox="-0.5 0 41 41" id="Cloud-Data-Transfer--Streamline-Stickies">
  <desc>
    Cloud Data Transfer Streamline Icon: https://streamlinehq.com
  </desc>
  <path fill="#48eeff" stroke="#231f20" stroke-miterlimit="10" d="M27.64 15.86c0.1359 -0.7875 0.1359 -1.5925 0 -2.38 -0.52 -3.41 -2.77 -5.39 -6.56 -4.81 -0.32 0.05 -0.61 0.12 -0.9 0.19 -1.44 -1.86 -3.76 -2.8 -6.92 -2.31C9 7.21 6.93 9.83 7 13.42c-0.31465 -0.0005 -0.62889 0.0229 -0.94 0.07 -0.55628 0.0281 -1.09932 0.1797 -1.58967 0.4439 -0.49034 0.2642 -0.91568 0.6343 -1.24511 1.0834 -0.32942 0.4492 -0.55466 0.966 -0.65935 1.5131 -0.10469 0.5471 -0.0862 1.1106 0.05413 1.6496 0.06608 0.3902 0.17335 0.7724 0.32 1.14 -0.73884 0.5673 -1.30962 1.3248 -1.65133 2.1913C0.946968 22.3779 0.847189 23.3211 1 24.24c0.29 1.83 1.72 4.1 3.92 4.25 1.14 0.31 6.88 -0.09 11.58 -0.82S26.81 25.6 27.8 25c2.05 -0.8 2.74 -3.4 2.46 -5.23 -0.1126 -0.8074 -0.4069 -1.5788 -0.8607 -2.2561 -0.4538 -0.6772 -1.0553 -1.2427 -1.7593 -1.6539Z" stroke-width="1"></path>
  <path stroke="#ffffff" stroke-linecap="round" stroke-miterlimit="10" d="M21.63 10.51c0.5512 -0.1298 1.1275 -0.1051 1.6656 0.0713 0.538 0.1764 1.0171 0.4977 1.3844 0.9287" stroke-width="1"></path>
  <path fill="#ff52a1" stroke="#231f20" stroke-miterlimit="10" d="M37.8 27.94c0.2169 -2.1904 0.237 -4.3959 0.06 -6.59 -0.13 -3.31 -3 -6 -9.78 -6.51 -6.78 -0.51 -10 1.71 -10.65 5 -0.5114 2.1402 -0.8261 4.3226 -0.94 6.52 -0.2167 2.1905 -0.2368 4.396 -0.06 6.59 0.14 3.31 3 6 9.79 6.52 6.79 0.52 10 -1.72 10.65 -5 0.5055 -2.1443 0.8168 -4.3298 0.93 -6.53Z" stroke-width="1"></path>
  <path stroke="#231f20" stroke-linecap="round" stroke-miterlimit="10" d="M19.28 22.19c1.49 1.29 4.17 2.19 8 2.48 3.83 0.29 6.67 -0.19 8.34 -1.24" stroke-width="1"></path>
  <path stroke="#231f20" stroke-linecap="round" stroke-miterlimit="10" d="M18.91 27.1c1.49 1.3 4.17 2.19 8.05 2.49 3.88 0.3 6.67 -0.19 8.34 -1.24" stroke-width="1"></path>
  <path stroke="#231f20" stroke-linecap="round" stroke-miterlimit="10" d="M18.53 32c1.5 1.3 4.18 2.19 8.06 2.49 3.88 0.3 6.66 -0.19 8.34 -1.24" stroke-width="1"></path>
  <path stroke="#ffffff" stroke-linecap="round" stroke-miterlimit="10" d="M30.49 16.6c1.61 0.38 3.53 1.18 3.94 1.77" stroke-width="1"></path>
  <path fill="#ffe236" stroke="#231f20" stroke-miterlimit="10" d="M32 2.85001c-0.4869 -0.49163 -1.0268 -0.92764 -1.61 -1.3C28.82 0.480009 28.67 0.550009 28.47 0.550009c-0.2066 -0.026717 -0.4163 0.01174 -0.6 0.11 -0.18 0.09 -0.33 0.12 -1.39 1.680001 -0.3977 0.56544 -0.733 1.17232 -1 1.81 -0.0509 0.18858 -0.0383 0.38865 0.0358 0.56936 0.0741 0.18071 0.2056 0.33204 0.3742 0.43064 0.1524 0.11133 0.3363 0.17134 0.525 0.17134 0.1887 0 0.3726 -0.06001 0.525 -0.17134 0.68 -0.41 0.68 -0.29 0.68 -0.29 0.2419 1.49316 0.603 2.96454 1.08 4.4 0.1068 0.24241 0.2926 0.44142 0.5272 0.56448 0.2346 0.12305 0.504 0.16287 0.7641 0.11293 0.2601 -0.04994 0.4956 -0.18667 0.668 -0.38784 0.1723 -0.20116 0.2713 -0.45485 0.2807 -0.71957 -0.0839 -1.52878 -0.298 -3.04761 -0.64 -4.54 0 0 0 -0.11 0.73 0 0.1875 0.05176 0.3868 0.04067 0.5674 -0.03157 0.1806 -0.07223 0.3325 -0.20164 0.4326 -0.36843 0.1033 -0.15512 0.1559 -0.33849 0.1505 -0.52478 -0.0054 -0.18628 -0.0684 -0.36631 -0.1805 -0.51522Z" stroke-width="1"></path>
  <path fill="#ffe236" stroke="#231f20" stroke-miterlimit="10" d="M32.47 12c0.4885 0.4927 1.0283 0.9319 1.61 1.31 1.57 1.07 1.72 1 1.92 1 0.2066 0.0267 0.4163 -0.0118 0.6 -0.11 0.18 -0.1 0.33 -0.12 1.39 -1.68 0.3977 -0.5655 0.733 -1.1723 1 -1.81 0.0459 -0.1886 0.031 -0.3869 -0.0427 -0.5666 -0.0736 -0.17958 -0.2022 -0.3313 -0.3673 -0.43341 -0.1524 -0.11134 -0.3363 -0.17134 -0.525 -0.17134 -0.1887 0 -0.3726 0.06 -0.525 0.17134 -0.68 0.41001 -0.67 0.29 -0.67 0.29 -0.2414 -1.49232 -0.5992 -2.96347 -1.07 -4.4 -0.1053 -0.24083 -0.2886 -0.43919 -0.5204 -0.56311 -0.2318 -0.12392 -0.4986 -0.16618 -0.7573 -0.11998 -0.2587 0.04621 -0.4944 0.17819 -0.669 0.37467 -0.1745 0.19649 -0.2779 0.44603 -0.2933 0.70842 0.0901 1.52815 0.3042 3.04647 0.64 4.54001 0 0 0 0.1 -0.73 0 -0.1886 -0.0459 -0.3869 -0.031 -0.5666 0.0427 -0.1796 0.0736 -0.3313 0.2022 -0.4334 0.3673 -0.1099 0.1534 -0.1681 0.3379 -0.1663 0.5266 0.0017 0.1888 0.0635 0.372 0.1763 0.5234Z" stroke-width="1"></path>
  <path fill="#ffe236" stroke="#231f20" stroke-miterlimit="10" d="M19.48 3.08003c0 0.21143 0.0416 0.42079 0.1226 0.61612 0.0809 0.19534 0.1995 0.37282 0.349 0.52232 0.1495 0.14951 0.3269 0.2681 0.5223 0.34901 0.1953 0.08091 0.4047 0.12255 0.6161 0.12255 0.2114 0 0.4208 -0.04164 0.6161 -0.12255 0.1954 -0.08091 0.3728 -0.1995 0.5223 -0.34901 0.1495 -0.1495 0.2681 -0.32698 0.349 -0.52232 0.081 -0.19533 0.1226 -0.40469 0.1226 -0.61612s-0.0416 -0.42078 -0.1226 -0.61612c-0.0809 -0.19533 -0.1995 -0.37282 -0.349 -0.52232 -0.1495 -0.1495 -0.3269 -0.26809 -0.5223 -0.349 -0.1953 -0.08091 -0.4047 -0.12256 -0.6161 -0.12256 -0.2114 0 -0.4208 0.04165 -0.6161 0.12256 -0.1954 0.08091 -0.3728 0.1995 -0.5223 0.349 -0.1495 0.1495 -0.2681 0.32699 -0.349 0.52232 -0.081 0.19534 -0.1226 0.40469 -0.1226 0.61612Z" stroke-width="1"></path>
  <path fill="#ffe236" stroke="#231f20" stroke-miterlimit="10" d="M5.84 33.38c0 0.264 0.05199 0.5253 0.153 0.7692 0.10101 0.2439 0.24907 0.4654 0.43572 0.6521 0.18664 0.1866 0.40822 0.3347 0.65209 0.4357 0.24386 0.101 0.50523 0.153 0.76919 0.153 0.26396 0 0.52533 -0.052 0.76919 -0.153 0.24387 -0.101 0.46545 -0.2491 0.6521 -0.4357 0.18664 -0.1867 0.3347 -0.4082 0.43571 -0.6521 0.10101 -0.2439 0.153 -0.5052 0.153 -0.7692s-0.05199 -0.5253 -0.153 -0.7692c-0.10101 -0.2439 -0.24907 -0.4654 -0.43571 -0.6521 -0.18665 -0.1866 -0.40823 -0.3347 -0.6521 -0.4357 -0.24386 -0.101 -0.50523 -0.153 -0.76919 -0.153 -0.26396 0 -0.52533 0.052 -0.76919 0.153 -0.24387 0.101 -0.46545 0.2491 -0.65209 0.4357 -0.18665 0.1867 -0.33471 0.4082 -0.43572 0.6521 -0.10101 0.2439 -0.153 0.5052 -0.153 0.7692Z" stroke-width="1"></path>
</svg>