<svg xmlns="http://www.w3.org/2000/svg" fill="none" viewBox="0 0 14 14" id="Chat-Bubble-Oval-Smiley-1--Streamline-Core">
  <desc>
    Chat Bubble Oval Smiley 1 Streamline Icon: https://streamlinehq.com
  </desc>
  <g id="chat-bubble-oval-smiley-1--messages-message-bubble-chat-oval-smiley-smile">
    <path id="Vector" stroke="#000000" stroke-linecap="round" stroke-linejoin="round" d="M6.99815 0.560548c-1.16482 0.000363 -2.30774 0.316667 -3.30702 0.915222 -0.99927 0.59856 -1.81748 1.45695 -2.36748 2.48375C0.773648 4.98632 0.512458 6.14308 0.567896 7.30658 0.623333 8.47009 0.993323 9.59677 1.63846 10.5666L0.558594 13.4397l3.616056 -0.6539c0.87074 0.4255 1.82628 0.649 2.79541 0.6538 0.96913 0.0048 1.92684 -0.2092 2.80175 -0.6261 0.87489 -0.4168 1.64449 -1.0258 2.25119 -1.7815 0.6068 -0.7556 1.0353 -1.6385 1.2533 -2.58279 0.2181 -0.94428 0.2203 -1.92561 0.0063 -2.87083 -0.214 -0.94523 -0.6385 -1.82997 -1.242 -2.58827 -0.6035 -0.75831 -1.3704 -1.37061 -2.24346 -1.79128C8.92406 0.778157 7.96729 0.559976 6.99815 0.560548v0Z" stroke-width="1"></path>
    <path id="Vector_2" stroke="#000000" stroke-linecap="round" stroke-linejoin="round" d="M3.69995 8c0.5 1.8 2.5 2.9 4.3 2.4 1.1 -0.4 2 -1.3 2.30005 -2.4" stroke-width="1"></path>
    <g id="Group 623">
      <path id="Vector_3" stroke="#000000" stroke-linecap="round" stroke-linejoin="round" d="M4.75 5.5c-0.13807 0 -0.25 -0.11193 -0.25 -0.25S4.61193 5 4.75 5" stroke-width="1"></path>
      <path id="Vector_4" stroke="#000000" stroke-linecap="round" stroke-linejoin="round" d="M4.75 5.5c0.13807 0 0.25 -0.11193 0.25 -0.25S4.88807 5 4.75 5" stroke-width="1"></path>
    </g>
    <g id="Group 624">
      <path id="Vector_5" stroke="#000000" stroke-linecap="round" stroke-linejoin="round" d="M9.25 5.5c-0.13807 0 -0.25 -0.11193 -0.25 -0.25S9.11193 5 9.25 5" stroke-width="1"></path>
      <path id="Vector_6" stroke="#000000" stroke-linecap="round" stroke-linejoin="round" d="M9.25 5.5c0.13807 0 0.25 -0.11193 0.25 -0.25S9.38807 5 9.25 5" stroke-width="1"></path>
    </g>
  </g>
</svg>