<svg xmlns="http://www.w3.org/2000/svg" fill="none" viewBox="0 0 14 14" id="Sign-At--Streamline-Core">
  <desc>
    Sign At Streamline Icon: https://streamlinehq.com
  </desc>
  <g id="sign-at--mail-email-at-sign-read-address">
    <path id="Vector" stroke="#000000" stroke-linecap="round" stroke-linejoin="round" d="M10.05 6.99993c0 0.5912 -0.17479 1.16919 -0.50228 1.6614 -0.32748 0.4922 -0.7931 0.87667 -1.33837 1.10513s-1.14589 0.29074 -1.72642 0.17896c-0.58054 -0.11176 -1.11512 -0.39256 -1.5366 -0.80713 -0.42148 -0.41457 -0.71107 -0.94443 -0.83241 -1.52304s-0.06902 -1.18018 0.1504 -1.72915c0.21941 -0.54897 0.59614 -1.02088 1.08286 -1.35646 0.48673 -0.33557 1.06175 -0.51986 1.65287 -0.52971 0.39815 -0.00664 0.79364 0.06606 1.16341 0.21385 0.36977 0.14779 0.70641 0.36771 0.99031 0.64695 0.28389 0.27924 0.50935 0.61221 0.66323 0.97948 0.15388 0.36728 0.2331 0.76151 0.233 1.15972v0Z" stroke-width="1"></path>
    <path id="Vector_2" stroke="#000000" stroke-linecap="round" stroke-linejoin="round" d="M10.0499 7v1.3c0 3.49 5.47 0.2 2.6 -4.54 -0.5779 -0.98695 -1.4027 -1.80651 -2.3933 -2.3781C9.26596 0.810318 8.14363 0.50639 6.99995 0.5c-0.96084 0.002967 -1.90907 0.218914 -2.77643 0.6323 -0.86737 0.41338 -1.6323 1.01392 -2.23974 1.75838C1.37634 3.63514 0.941497 4.50502 0.710559 5.43769 0.479621 6.37036 0.458328 7.34264 0.648213 8.28452c0.189885 0.94189 0.586227 1.82998 1.160487 2.60028 0.57427 0.7704 1.31218 1.4038 2.16062 1.8548 0.84843 0.4509 1.7863 0.7082 2.74608 0.7532 0.95978 0.0451 1.91761 -0.1233 2.80455 -0.4928" stroke-width="1"></path>
  </g>
</svg>