<svg xmlns="http://www.w3.org/2000/svg" fill="none" viewBox="0 0 14 14"><g id="smiley-surprised"><path id="Vector" stroke="#3e3e3e" stroke-linecap="round" stroke-linejoin="round" d="M7 10.5c.828 0 1.5-.784 1.5-1.75S7.828 7 7 7s-1.5.784-1.5 1.75.672 1.75 1.5 1.75Z"></path><path id="Vector_2" stroke="#3e3e3e" stroke-linecap="round" stroke-linejoin="round" d="M7 13.5a6.5 6.5 0 1 0 0-13 6.5 6.5 0 0 0 0 13Z"></path><g id="Group 623"><path id="Vector_3" stroke="#3e3e3e" stroke-linecap="round" stroke-linejoin="round" d="M4.75 5a.25.25 0 0 1 0-.5"></path><path id="Vector_4" stroke="#3e3e3e" stroke-linecap="round" stroke-linejoin="round" d="M4.75 5a.25.25 0 0 0 0-.5"></path></g><g id="Group 624"><path id="Vector_5" stroke="#3e3e3e" stroke-linecap="round" stroke-linejoin="round" d="M9.25 5a.25.25 0 0 1 0-.5"></path><path id="Vector_6" stroke="#3e3e3e" stroke-linecap="round" stroke-linejoin="round" d="M9.25 5a.25.25 0 0 0 0-.5"></path></g></g></svg>