<svg xmlns="http://www.w3.org/2000/svg" fill="none" viewBox="0 0 48 48" id="Align-Right-1--Streamline-Plump-Neon">
  <desc>
    Align Right 1 Streamline Icon: https://streamlinehq.com
  </desc>
  <g id="align-right-1--rag-paragraph-text-alignment-align-right-formatting-left">
    <path id="Vector" stroke="#c71dff" stroke-linecap="round" stroke-linejoin="round" d="M44.9277 4.76428c-0.1279 -0.98731 -0.9982 -1.51046 -1.9929 -1.55022C40.7172 3.1254 35.5408 3 24 3c-11.5408 0 -16.71725 0.12541 -18.93476 0.21406 -0.99476 0.03976 -1.86504 0.56291 -1.99292 1.55022C3.02855 5.10224 3 5.51035 3 6c0 0.48965 0.02855 0.89776 0.07232 1.23572 0.12788 0.98731 0.99816 1.51046 1.99292 1.55023C7.28276 8.8746 12.4592 9 24 9s16.7172 -0.1254 18.9348 -0.21406c0.9947 -0.03976 1.865 -0.56291 1.9929 -1.55023C44.9715 6.89775 45 6.48965 45 6c0 -0.48965 -0.0285 -0.89776 -0.0723 -1.23572Z" stroke-width="3"></path>
    <path id="Vector_2" stroke="#c71dff" stroke-linecap="round" stroke-linejoin="round" d="M44.9773 18.8726c-0.0654 1.181 -1.0027 1.9031 -2.1842 1.9563C40.9833 20.9102 37.5108 21 31 21c-6.5108 0 -9.9833 -0.0898 -11.7931 -0.1711 -1.1815 -0.0532 -2.1188 -0.7753 -2.1842 -1.9563C17.0084 18.6156 17 18.3259 17 18c0 -0.3259 0.0084 -0.6156 0.0227 -0.8726 0.0654 -1.181 1.0027 -1.9032 2.1842 -1.9563C21.0167 15.0898 24.4892 15 31 15c6.5108 0 9.9833 0.0898 11.7931 0.1711 1.1815 0.0532 2.1188 0.7753 2.1842 1.9563 0.0143 0.257 0.0227 0.5467 0.0227 0.8726 0 0.3259 -0.0084 0.6156 -0.0227 0.8726Z" stroke-width="3"></path>
    <path id="Vector_3" stroke="#c71dff" stroke-linecap="round" stroke-linejoin="round" d="M44.9535 31.084c-0.0998 1.0691 -1.0014 1.6724 -2.0743 1.7174C40.8052 32.8885 36.3279 33 27 33s-13.8052 -0.1115 -15.8792 -0.1986c-1.0729 -0.045 -1.97445 -0.6483 -2.0743 -1.7174C9.01788 30.7775 9 30.4185 9 30c0 -0.4185 0.01788 -0.7775 0.0465 -1.084 0.09985 -1.0691 1.0014 -1.6724 2.0743 -1.7174C13.1948 27.1115 17.6722 27 27 27s13.8052 0.1115 15.8792 0.1986c1.0729 0.045 1.9745 0.6483 2.0743 1.7175 0.0286 0.3064 0.0465 0.6654 0.0465 1.0839 0 0.4185 -0.0179 0.7775 -0.0465 1.084Z" stroke-width="3"></path>
    <path id="Vector_4" stroke="#c71dff" stroke-linecap="round" stroke-linejoin="round" d="M44.9902 41.3125c-0.0381 -1.2771 -0.9869 -2.118 -2.263 -2.1797C41.3032 39.0639 38.9242 39 35 39s-6.3032 0.0639 -7.7272 0.1328c-1.2761 0.0617 -2.2249 0.9026 -2.263 2.1797 -0.0063 0.2089 -0.0098 0.4376 -0.0098 0.6875s0.0035 0.4786 0.0098 0.6875c0.0381 1.2771 0.9869 2.118 2.263 2.1797C28.6968 44.9361 31.0758 45 35 45s6.3032 -0.0639 7.7272 -0.1328c1.2761 -0.0617 2.2249 -0.9026 2.263 -2.1797 0.0063 -0.2089 0.0098 -0.4376 0.0098 -0.6875s-0.0035 -0.4786 -0.0098 -0.6875Z" stroke-width="3"></path>
  </g>
</svg>