<svg xmlns="http://www.w3.org/2000/svg" fill="none" viewBox="0 0 48 48" id="Archive-Box--Streamline-Plump-Neon">
  <desc>
    Archive Box Streamline Icon: https://streamlinehq.com
  </desc>
  <g id="archive-box--box-content-banker-archive-file">
    <path id="Vector" stroke="#c71dff" stroke-linecap="round" stroke-linejoin="round" d="M6 15v11c0 5.8678 0.20494 10.096 0.4144 12.885 0.192 2.5566 2.14404 4.5086 4.7006 4.7006C13.904 43.7951 18.1322 44 24 44s10.096 -0.2049 12.885 -0.4144c2.5566 -0.192 4.5086 -2.144 4.7006 -4.7006C41.795 36.096 42 31.8678 42 26V15H6Z" stroke-width="1"></path>
    <path id="Vector_2" stroke="#000cfe" stroke-linecap="round" stroke-linejoin="round" d="M15.0129 24.5855c0.0646 1.434 1.3001 2.3159 2.7352 2.3501C19.1419 26.9688 21.1968 27 24 27s4.8581 -0.0312 6.2519 -0.0644c1.4351 -0.0342 2.6706 -0.9161 2.7352 -2.3501 0.0083 -0.1831 0.0129 -0.3781 0.0129 -0.5855 0 -0.2073 -0.0046 -0.4024 -0.0129 -0.5855 -0.0646 -1.434 -1.3001 -2.3159 -2.7352 -2.3501C28.8581 21.0312 26.8032 21 24 21s-4.8581 0.0312 -6.2519 0.0644c-1.4351 0.0342 -2.6706 0.9161 -2.7352 2.3501 -0.0083 0.1831 -0.0129 0.3782 -0.0129 0.5855 0 0.2073 0.0046 0.4024 0.0129 0.5855Z" stroke-width="1"></path>
    <path id="Vector_3" stroke="#000cfe" stroke-linecap="round" stroke-linejoin="round" d="M2.30572 8.73917c0.33377 -2.03554 1.90509 -3.55553 3.94904 -3.83319C9.33921 4.48697 14.8849 4 24.0008 4c9.1157 0 14.6608 0.48694 17.7448 0.90594 2.0438 0.27767 3.6149 1.79753 3.9486 3.83288C45.865 9.78033 46 10.9391 46 12c0 1.6569 -1.3384 3 -2.9953 3l-19.0039 0 -19.0055 0C3.33844 15 2 13.6569 2 12c0 -1.0608 0.13496 -2.21941 0.30572 -3.26083Z" stroke-width="1"></path>
  </g>
</svg>