<svg xmlns="http://www.w3.org/2000/svg" fill="none" viewBox="0 0 48 48" id="Arrow-Right-Circle-2--Streamline-Plump-Neon">
  <desc>
    Arrow Right Circle 2 Streamline Icon: https://streamlinehq.com
  </desc>
  <g id="line-arrow-right-circle-2">
    <path id="Vector" stroke="#c71dff" stroke-linecap="round" stroke-linejoin="round" d="M2 24c0 12.1503 9.8497 22 22 22s22 -9.8497 22 -22S36.1503 2 24 2 2 11.8497 2 24Z" stroke-width="1"></path>
    <path id="Vector_2" stroke="#000cfe" stroke-linecap="round" stroke-linejoin="round" d="m19.4016 20.3946 -10.3114 0.2914c-1.34857 0.0381 -2.50083 0.9796 -2.56881 2.327 -0.0134 0.2656 -0.02139 0.5497 -0.02139 0.8497 0 0.3551 0.01119 0.698 0.0293 1.0205 0.07834 1.3942 1.26695 2.3952 2.66283 2.4347l10.20957 0.2885 -1.7197 1.852c-0.8595 0.9255 -1.0879 2.3262 -0.2908 3.306 0.4169 0.5125 0.8804 0.9641 1.3868 1.3335 1.0535 0.7684 2.4582 0.4082 3.4256 -0.4661 2.3531 -2.1267 5.0467 -4.8425 6.8002 -7.0018 1.2824 -1.5793 1.2824 -3.6795 -0.0001 -5.2587 -1.7536 -2.1594 -4.4474 -4.8753 -6.8006 -7.002 -0.9671 -0.8741 -2.3713 -1.2344 -3.4247 -0.4664 -0.5067 0.3694 -0.9704 0.8211 -1.3875 1.3338 -0.7969 0.9798 -0.5685 2.3803 0.2909 3.3058l1.7198 1.8521Z" stroke-width="1"></path>
    <path id="Vector_3" stroke="#000cfe" stroke-linecap="round" stroke-linejoin="round" d="M37.7101 15.0179c1.3102 0.0697 2.0892 1.1382 2.1578 2.4485C39.9365 18.7778 40 20.8443 40 24s-0.0635 5.2222 -0.1321 6.5336c-0.0686 1.3103 -0.8476 2.3788 -2.1578 2.4485C37.495 32.9935 37.2589 33 37 33c-0.2589 0 -0.4951 -0.0065 -0.7101 -0.0179 -1.3102 -0.0697 -2.0892 -1.1382 -2.1578 -2.4485C34.0635 29.2222 34 27.1557 34 24s0.0635 -5.2222 0.1321 -6.5336c0.0686 -1.3103 0.8476 -2.3788 2.1578 -2.4485C36.505 15.0065 36.7411 15 37 15c0.2589 0 0.495 0.0065 0.7101 0.0179Z" stroke-width="1"></path>
  </g>
</svg>