<svg xmlns="http://www.w3.org/2000/svg" fill="none" viewBox="0 0 48 48" id="Calendar-Heart--Streamline-Plump-Neon">
  <desc>
    Calendar Heart Streamline Icon: https://streamlinehq.com
  </desc>
  <g id="calendar-heart--calendar-date-day-favorite-heart-like-month">
    <path id="Subtract" stroke="#c71dff" stroke-linecap="round" stroke-linejoin="round" d="M13.5513 12.2293c-1.6974 -0.0517 -2.7685 -1.4005 -2.817 -3.098 -0.0144 -0.5039 -0.0247 -1.068 -0.0275 -1.6836 -1.0587 0.0575 -1.9932 0.1182 -2.8079 0.1781 -2.6111 0.192 -4.6348 2.161 -4.858 4.7697 -0.2571 3.0056 -0.5157 7.6474 -0.5157 14.161 0 6.5135 0.2586 11.1555 0.5157 14.161 0.2232 2.6087 2.2469 4.5777 4.858 4.7698 3.3011 0.2426 8.5689 0.4988 16.1011 0.4988s12.8 -0.2561 16.1011 -0.4988c2.6111 -0.1921 4.6349 -2.1611 4.858 -4.7698 0.2571 -3.0055 0.5157 -7.6474 0.5157 -14.161 0 -6.5135 -0.2586 -11.1554 -0.5157 -14.161 -0.2231 -2.6087 -2.2469 -4.5777 -4.858 -4.7697 -0.8147 -0.0599 -1.7492 -0.1206 -2.8079 -0.1781 -0.0028 0.6156 -0.0131 1.1797 -0.0275 1.6836 -0.0485 1.6975 -1.1196 3.0463 -2.817 3.098 -0.2266 0.0069 -0.4708 0.0107 -0.7339 0.0107s-0.5073 -0.0038 -0.7339 -0.0107c-1.6975 -0.0517 -2.7686 -1.4005 -2.817 -3.098 -0.0164 -0.574 -0.0276 -1.226 -0.0282 -1.9433 -1.8496 -0.0383 -3.8922 -0.061 -6.1357 -0.061s-4.2861 0.0227 -6.1356 0.061c-0.0007 0.7173 -0.0119 1.3693 -0.0283 1.9433 -0.0484 1.6975 -1.1195 3.0463 -2.8169 3.098 -0.2267 0.0069 -0.4709 0.0107 -0.734 0.0107s-0.5073 -0.0038 -0.7339 -0.0107Z" stroke-width="1"></path>
    <path id="Vector 10" stroke="#000cfe" stroke-linecap="round" stroke-linejoin="round" d="M34.0586 29.9997c1.1029 -1.7123 1.4617 -3.8339 0.982 -5.8065 -1.025 -4.4934 -6.7006 -6.3295 -10.2361 -3.3183 -0.28 0.2368 -0.529 0.51 -0.8045 0.7823 -0.2755 -0.2723 -0.5245 -0.5455 -0.8045 -0.7823 -3.5354 -3.0112 -9.2111 -1.1751 -10.2361 3.3183 -0.4797 1.9726 -0.1209 4.0942 0.9821 5.8065 1.855 2.8848 4.8022 5.1559 7.7241 7.2086 1.3978 0.9821 3.271 0.9821 4.6688 0 2.9219 -2.0527 5.8691 -4.3238 7.7242 -7.2086Z" stroke-width="1"></path>
    <path id="Rectangle 1099" stroke="#000cfe" stroke-linecap="round" stroke-linejoin="round" d="M30.1639 9.1313c0.0484 1.6975 1.1195 3.0463 2.817 3.098 0.2266 0.0069 0.4708 0.0107 0.7339 0.0107s0.5073 -0.0038 0.7339 -0.0107c1.6974 -0.0517 2.7685 -1.4005 2.817 -3.098 0.0169 -0.5902 0.0282 -1.263 0.0282 -2.0043s-0.0113 -1.4142 -0.0282 -2.0044c-0.0485 -1.6975 -1.1196 -3.0464 -2.817 -3.098 -0.2266 -0.0069 -0.4708 -0.0107 -0.7339 -0.0107s-0.5073 0.0038 -0.7339 0.0107c-1.6975 0.0516 -2.7686 1.4005 -2.817 3.098 -0.0169 0.5902 -0.0282 1.263 -0.0282 2.0044s0.0113 1.4141 0.0282 2.0043Z" stroke-width="1"></path>
    <path id="Rectangle 1100" stroke="#000cfe" stroke-linecap="round" stroke-linejoin="round" d="M10.7343 9.1313c0.0485 1.6975 1.1196 3.0463 2.817 3.098 0.2266 0.0069 0.4708 0.0107 0.7339 0.0107s0.5073 -0.0038 0.734 -0.0107c1.6974 -0.0517 2.7685 -1.4005 2.8169 -3.098 0.0169 -0.5902 0.0283 -1.263 0.0283 -2.0043s-0.0114 -1.4142 -0.0283 -2.0044c-0.0484 -1.6975 -1.1195 -3.0464 -2.8169 -3.098 -0.2267 -0.0069 -0.4709 -0.0107 -0.734 -0.0107s-0.5073 0.0038 -0.7339 0.0107c-1.6974 0.0516 -2.7685 1.4005 -2.817 3.098 -0.0169 0.5902 -0.0282 1.263 -0.0282 2.0044s0.0113 1.4141 0.0282 2.0043Z" stroke-width="1"></path>
  </g>
</svg>