<svg xmlns="http://www.w3.org/2000/svg" fill="none" viewBox="0 0 48 48" id="Check-Thick--Streamline-Plump-Neon">
  <desc>
    Check Thick Streamline Icon: https://streamlinehq.com
  </desc>
  <g id="check-thick--check-form-validation-checkmark-success-add-addition-1-tick">
    <path id="Vector" fill-rule="evenodd" stroke="#c71dff" stroke-linecap="round" stroke-linejoin="round" d="M45.3212 9.5408c0.9903 1.3916 0.7696 3.2402 -0.1677 4.668 -9.4174 14.3455 -16.164 22.981 -19.8326 27.3719 -1.7506 2.0955 -4.7959 2.251 -6.7755 0.3703 -3.5741 -3.3959 -9.3931 -9.2524 -15.4352 -16.704 -1.2429 -1.5329 -1.4984 -3.6861 -0.3023 -5.2559 1.1807 -1.5493 2.5542 -2.8673 3.7738 -3.889 1.8265 -1.5302 4.455 -1.1812 6.088 0.5543 5.3488 5.6844 8.5778 9.6663 8.5778 9.6663s5.2646 -7.7289 13.7029 -19.6056c1.239 -1.7438 3.4503 -2.5541 5.3282 -1.5295 1.6321 0.8906 3.5679 2.2813 5.0426 4.3532Z" clip-rule="evenodd" stroke-width="1"></path>
  </g>
</svg>