<svg xmlns="http://www.w3.org/2000/svg" fill="none" viewBox="0 0 48 48" id="Color-Picker--Streamline-Plump-Neon">
  <desc>
    Color Picker Streamline Icon: https://streamlinehq.com
  </desc>
  <g id="color-picker--color-colors-design-dropper-eye-eyedrop-eyedropper-painting-picker">
    <path id="Vector" stroke="#c71dff" stroke-linecap="round" stroke-linejoin="round" d="M19.2723 13.6758c1.5714 1.6758 3.9146 4.1103 7.3285 7.5299 3.5531 3.5588 6.0409 5.956 7.7184 7.5291L22.7373 40.3162c-1.7156 1.7156 -3.9187 2.9642 -6.3439 2.8939 -2.3831 -0.069 -4.1841 -0.5215 -4.1841 -0.5215l-5.27729 2.2161c-0.01847 0.0078 -0.03634 0.0151 -0.0554 0.0213 -0.19542 0.0634 -1.39947 0.3753 -2.78838 -1.0136 -1.5169 -1.5168 -1.00554 -2.8136 -1.00443 -2.8164L5.22045 35.7s-0.46795 -1.8626 -0.49517 -4.2763c-0.02611 -2.3158 1.19623 -4.3976 2.83383 -6.0351L19.2723 13.6758Z" stroke-width="1"></path>
    <path id="Vector_2" stroke="#000cfe" stroke-linecap="round" stroke-linejoin="round" d="M41.6225 6.38304c-4.5044 -4.51082 -11.8064 -4.51071 -16.3107 0.00025l-1.8641 1.86692c-0.2084 -0.19395 -0.4022 -0.3732 -0.5821 -0.5386 -1.2137 -1.11608 -2.8697 -1.30922 -4.0658 -0.17414 -0.1346 0.12783 -0.2763 0.26583 -0.425 0.4148 -0.1487 0.14896 -0.2865 0.29084 -0.4141 0.42575 -1.1333 1.19799 -0.9404 2.85668 0.1738 4.07238 1.4895 1.6251 4.1035 4.3862 8.4655 8.7554 4.3619 4.3691 7.1185 6.9874 8.741 8.4793 1.2137 1.116 2.8697 1.3092 4.0657 0.1741 0.1347 -0.1278 0.2763 -0.2658 0.4251 -0.4148 0.1487 -0.149 0.2865 -0.2908 0.4141 -0.4257 1.1332 -1.198 0.9404 -2.8567 -0.1739 -4.0725 -0.1016 -0.1108 -0.2084 -0.227 -0.3207 -0.3486l1.8715 -1.8743c4.5053 -4.512 4.5052 -11.8283 -0.0003 -16.34026Z" stroke-width="1"></path>
  </g>
</svg>