<svg xmlns="http://www.w3.org/2000/svg" fill="none" viewBox="0 0 48 48" id="Content-Statistic--Streamline-Plump-Neon">
  <desc>
    Content Statistic Streamline Icon: https://streamlinehq.com
  </desc>
  <g id="content-statistic--product-data-analysis-analytics-graph-line-business-board-chart">
    <path id="Vector" stroke="#c71dff" stroke-linecap="round" stroke-linejoin="round" d="M39.7428 44.461c2.5553 -0.2076 4.5106 -2.1629 4.7182 -4.7182C44.7233 36.5146 45 31.364 45 24c0 -7.364 -0.2767 -12.5146 -0.5389 -15.74282 -0.2077 -2.55529 -2.163 -4.51059 -4.7182 -4.71821C36.5146 3.27668 31.364 3 24 3c-7.364 0 -12.5146 0.27667 -15.74282 0.53896 -2.5553 0.20761 -4.51059 2.16291 -4.71821 4.7182C3.27668 11.4854 3 16.636 3 24c0 7.364 0.27667 12.5146 0.53896 15.7428 0.20761 2.5553 2.16291 4.5106 4.7182 4.7182C11.4854 44.7233 16.636 45 24 45c7.364 0 12.5146 -0.2767 15.7428 -0.539Z" stroke-width="1"></path>
    <path id="Vector_2" stroke="#000cfe" stroke-linecap="round" stroke-linejoin="round" d="M11 11h14" stroke-width="1"></path>
    <path id="Vector_3" stroke="#000cfe" stroke-linecap="round" stroke-linejoin="round" d="M11 17h8" stroke-width="1"></path>
    <path id="Vector_4" fill-rule="evenodd" stroke="#000cfe" stroke-linecap="round" stroke-linejoin="round" d="M32.2068 34.0221c-1.5741 1.8148 -4.2564 2.0815 -6.1917 0.6582 -2.6747 -1.967 -5.0654 -3.8711 -5.0654 -3.8711 -1.5506 2.006 -3.9145 5.144 -5.446 7.1841 -0.872 1.1615 -2.4515 1.5299 -3.6328 0.685 -0.8146 -0.5825 -1.7489 -1.3444 -2.58674 -2.2588 -0.85867 -0.9371 -0.75247 -2.345 0.0632 -3.3198 2.13424 -2.5508 4.82924 -5.5899 7.48354 -8.2312 1.8031 -1.7944 4.6717 -1.7302 6.5844 -0.0531 1.6385 1.4367 3.5615 3.0583 4.9735 4.0524 1.8199 -1.8771 4.8444 -5.4961 6.4812 -7.4812 0.7034 -0.853 1.8347 -1.2693 2.8016 -0.733 0.3958 0.2196 0.8241 0.5071 1.2396 0.8806 0.7778 0.699 0.8079 1.851 0.2884 2.7585 -1.1094 1.9383 -3.3944 5.5808 -6.9928 9.7294Z" clip-rule="evenodd" stroke-width="1"></path>
  </g>
</svg>