<svg xmlns="http://www.w3.org/2000/svg" fill="none" viewBox="0 0 48 48" id="Cut--Streamline-Plump-Neon">
  <desc>
    Cut Streamline Icon: https://streamlinehq.com
  </desc>
  <g id="cut--coupon-cut-discount-price-prices-scissors">
    <path id="Vector" stroke="#c71dff" stroke-linecap="round" stroke-linejoin="round" d="M22 31.0996c-3.0727 -1.6854 -5.3122 -3.0748 -5.3122 -3.0748C18.7093 29.6752 20 32.1869 20 35c0 4.9706 -4.0294 9 -9 9 -4.97056 0 -9 -4.0294 -9 -9 0 -3.0088 1.47649 -5.6728 3.74444 -7.3069C6.93167 26.724 8.8836 25.4313 11.2505 24c-2.3669 -1.4313 -4.31883 -2.724 -5.50606 -3.6931C3.47649 18.6728 2 16.0088 2 13c0 -4.97056 4.02944 -9 9 -9 4.9706 0 9 4.02944 9 9 0 2.8131 -1.2907 5.3248 -3.3122 6.9752C16.6878 19.9752 31.1545 11 37 11c4.3122 0 6.4855 2.5127 7.3671 3.9264 0.3044 0.4882 0.0356 1.0836 -0.5114 1.2623C40.8625 17.1666 31.6664 20.2523 23 24c3.4066 1.4732 6.8951 2.844 10.0565 4.0248M14 13c0 1.6569 -1.3431 3 -3 3 -1.65685 0 -3 -1.3431 -3 -3s1.34315 -3 3 -3c1.6569 0 3 1.3431 3 3Zm0 22c0 -1.6569 -1.3431 -3 -3 -3 -1.65685 0 -3 1.3431 -3 3s1.34315 3 3 3c1.6569 0 3 -1.3431 3 -3Z" stroke-width="3"></path>
    <path id="Vector_2" stroke="#000cfe" stroke-linecap="round" stroke-linejoin="round" d="M30 33h-3m11 0 -3 0m11 0 -3 0" stroke-width="3"></path>
  </g>
</svg>