<svg xmlns="http://www.w3.org/2000/svg" fill="none" viewBox="0 0 48 48" id="Dashboard-Gauge-High-2--Streamline-Plump-Neon">
  <desc>
    Dashboard Gauge High 2 Streamline Icon: https://streamlinehq.com
  </desc>
  <g id="dashboard-gauge-high-2--bar-speed-test-loading-dashboard-internet-gauge-progress">
    <path id="Subtract" stroke="#c71dff" stroke-linecap="round" stroke-linejoin="round" d="M19.5049 36.7108c-4.8773 0.4628 -8.8249 1.6196 -11.72802 2.7786 -1.43175 0.5715 -3.12182 0.1097 -3.76716 -1.2903C2.7196 35.4002 2 32.2841 2 29 2 16.8497 11.8497 7 24 7s22 9.8497 22 22c0 3.284 -0.7195 6.3999 -2.0096 9.1987 -0.6452 1.4 -2.3352 1.8619 -3.7669 1.2904 -2.9035 -1.1588 -6.8512 -2.3155 -11.7284 -2.7783" stroke-width="3"></path>
    <path id="Vector 2526" stroke="#000cfe" stroke-linecap="round" stroke-linejoin="round" d="m7 29 1 0" stroke-width="3"></path>
    <path id="Vector 2527" stroke="#000cfe" stroke-linecap="round" stroke-linejoin="round" d="m41 29 -1 0" stroke-width="3"></path>
    <path id="Vector 2526_2" stroke="#000cfe" stroke-linecap="round" stroke-linejoin="round" d="m24 12 0 1" stroke-width="3"></path>
    <path id="Vector 2529" stroke="#000cfe" stroke-linecap="round" stroke-linejoin="round" d="m36.0215 16.9785 -0.7071 0.7071" stroke-width="3"></path>
    <path id="Vector 2530" stroke="#000cfe" stroke-linecap="round" stroke-linejoin="round" d="m11.9785 16.9785 0.7071 0.7071" stroke-width="3"></path>
    <path id="Ellipse 21" stroke="#000cfe" stroke-linecap="round" stroke-linejoin="round" d="M28.5 36.5c0 2.4853 -2.0147 4.5 -4.5 4.5s-4.5 -2.0147 -4.5 -4.5S21.5147 32 24 32s4.5 2.0147 4.5 4.5Z" stroke-width="3"></path>
    <path id="Ellipse 22" stroke="#000cfe" stroke-linecap="round" stroke-linejoin="round" d="m27.1819 33.318 8.818 -8.818" stroke-width="3"></path>
  </g>
</svg>