<svg xmlns="http://www.w3.org/2000/svg" fill="none" viewBox="0 0 48 48" id="End-Point-Branches--Streamline-Plump-Neon">
  <desc>
    End Point Branches Streamline Icon: https://streamlinehq.com
  </desc>
  <g id="end-point-branches">
    <path id="Vector" stroke="#c71dff" stroke-linecap="round" stroke-linejoin="round" d="M36.9038 30.4451c0.5557 0.7046 1.0499 1.3074 1.4857 1.8212 1.16 1.3677 0.7786 3.639 -1.0127 3.7247 -0.1238 0.0059 -0.2494 0.009 -0.3768 0.009 -1.7438 -0.0005 -3 -0.9997 -3 -0.9997s-1.3334 -1.0004 -4.4444 -5c-0.9172 -1.1792 -1.6026 -2.1845 -2.1132 -3.0161 -1.5383 0.01 -3.2582 0.0158 -5.178 0.0158H2m34.9038 3.4451C39.7664 34.0748 41 35.0003 41 35.0003s1.2562 0.9992 3 0.9997c0.1274 0 0.253 -0.0031 0.3768 -0.009 1.7913 -0.0857 2.1727 -2.357 1.0127 -3.7247 -0.5248 -0.6188 -1.1344 -1.3666 -1.8339 -2.266 -3.1111 -4.0004 -3.5556 -6 -3.5556 -6s0.4445 -1.9999 3.5556 -6.0003c0.6995 -0.8995 1.3091 -1.6472 1.8339 -2.266 1.16 -1.3677 0.7786 -3.6391 -1.0127 -3.7247 -0.1238 -0.0059 -0.2494 -0.0091 -0.3768 -0.009 -1.7438 0.0005 -3 0.9997 -3 0.9997s-1.2142 0.9109 -4.0287 4.4698m-0.0675 12.9753c-0.7481 -0.9556 -1.4769 -1.9253 -2.1362 -2.9451M2 21h20.2644c1.9199 0 3.6398 0.0058 5.1782 0.0158 0.5106 -0.8315 1.1959 -1.8368 2.113 -3.0158C32.6666 14.0004 34 13 34 13s1.2562 -0.9992 3 -0.9997c0.1274 -0.0001 0.253 0.0031 0.3768 0.009 1.7913 0.0856 2.1727 2.357 1.0127 3.7247 -0.418 0.4929 -0.8899 1.0677 -1.4182 1.7358m0 0c-0.7715 0.9834 -1.5246 1.9799 -2.2037 3.0302" stroke-width="3"></path>
  </g>
</svg>