<svg xmlns="http://www.w3.org/2000/svg" fill="none" viewBox="0 0 48 48" id="Feather-Pen--Streamline-Plump-Neon">
  <desc>
    Feather Pen Streamline Icon: https://streamlinehq.com
  </desc>
  <g id="feather-pen--change-edit-feather-modify-quill-write-writing">
    <path id="Subtract" stroke="#c71dff" stroke-linecap="round" stroke-linejoin="round" d="M11.428 41.8104c6.3752 0 12.3473 -1.7255 17.4749 -4.735 0.6965 -0.4088 0.6381 -1.4125 -0.085 -1.772l-3.7692 -1.8739c3.4605 0 10.476 -1.4001 10.476 -1.4001 7.4878 -7.2791 11.2934 -17.7778 10.3172 -28.12039 -0.0877 -0.92889 -0.82 -1.66121 -1.7488 -1.74983 -5.3773 -0.51307 -10.8655 0.23202 -15.9017 2.19895 0 0 -1.7306 4.07723 -2.0951 6.02367L23.976 7.43119c-0.3148 -0.43801 -0.9118 -0.56664 -1.3714 -0.28435C12.7542 13.1971 6.19141 23.3302 6.19141 37.0961" stroke-width="3"></path>
    <path id="Vector 213" stroke="#000cfe" stroke-linecap="round" stroke-linejoin="round" d="M2 45.9999c5.2381 -15.1905 22 -28.2857 35.619 -35.619" stroke-width="3"></path>
  </g>
</svg>