<svg xmlns="http://www.w3.org/2000/svg" fill="none" viewBox="0 0 48 48" id="Flashlight--Streamline-Plump-Neon">
  <desc>
    Flashlight Streamline Icon: https://streamlinehq.com
  </desc>
  <g id="flashlight">
    <path id="Vector" stroke="#c71dff" stroke-linecap="round" stroke-linejoin="round" d="M37.6245 30.3273c0.9146 -0.1769 1.7184 -0.6704 2.377 -1.3291l3.4502 -3.4502c1.5218 -1.5218 1.8486 -3.8237 0.5632 -5.5498 -1.4421 -1.9366 -3.806 -4.7895 -7.5149 -8.4984 -3.7089 -3.70894 -6.5619 -6.07282 -8.4985 -7.51494 -1.7261 -1.2854 -4.028 -0.95863 -5.5498 0.56317l-3.2766 3.27659c-0.7689 0.76895 -1.316 1.73151 -1.4995 2.80338 -0.292 1.7065 -0.6756 4.6555 -0.6756 8.3718 -5.2081 5.6948 -10.90521 12.2506 -13.52819 15.2893 -0.91729 1.0627 -1.19883 2.5318 -0.50355 3.7514 0.62956 1.1043 1.60423 2.5318 3.03172 3.9593 1.4275 1.4275 2.855 2.4021 3.95929 3.0317 1.21953 0.6953 2.68873 0.4137 3.75133 -0.5036 3.0388 -2.6229 9.5946 -8.32 15.2894 -13.5281 4.3199 0 7.1164 -0.3809 8.6245 -0.6725Z" stroke-width="3"></path>
    <path id="Vector_2" stroke="#000cfe" stroke-linecap="round" stroke-linejoin="round" d="M19.0049 8.00216c0.1557 0.07929 4.1443 2.14674 11.4952 9.49764 7.5 7.5 9.5 11.5 9.5 11.5l3.4518 -3.4518c1.5218 -1.5218 1.8485 -3.8237 0.5631 -5.5498 -1.4421 -1.9366 -3.806 -4.7895 -7.5149 -8.4984 -3.7089 -3.70894 -6.5618 -6.07282 -8.4984 -7.51494 -1.7261 -1.2854 -4.028 -0.95863 -5.5498 0.56317l-3.2766 3.27659c-0.0581 0.05809 -0.1149 0.11728 -0.1704 0.17754Z" stroke-width="3"></path>
    <path id="Vector_3" stroke="#000cfe" stroke-linecap="round" stroke-linejoin="round" d="m22 26 -4 4" stroke-width="3"></path>
  </g>
</svg>