<svg xmlns="http://www.w3.org/2000/svg" fill="none" viewBox="0 0 48 48" id="Half-Star-2--Streamline-Plump-Neon">
  <desc>
    Half Star 2 Streamline Icon: https://streamlinehq.com
  </desc>
  <g id="half-star-2--reward-rating-rate-social-star-media-favorite-like-stars-half">
    <path id="Vector" stroke="#c71dff" stroke-dasharray="4 6" stroke-linecap="round" stroke-linejoin="round" d="M24 39.8789c1.3609 0.675 3.643 2.2902 6 3.5237 2.5071 1.3121 5.0989 2.1923 6.757 1.05 2.1553 -1.4849 1.4899 -5.5121 0.5954 -9.1134 -0.8413 -3.387 0.1942 -6.6818 2.834 -8.9646 2.6291 -2.2735 5.2704 -4.9418 4.728 -7.3244 -0.5605 -2.4618 -3.9689 -3.3746 -7.3009 -3.8439 -3.6117 -0.5087 -6.5056 -2.6583 -7.9969 -5.98684C28.2249 6.11345 26.4025 3 24 3" stroke-width="1"></path>
    <path id="Vector_2" stroke="#000cfe" stroke-linecap="round" stroke-linejoin="round" d="M24 3v36.8789l-9.6717 4.7971c-2.2446 1.1133 -4.78459 -0.798 -4.46632 -3.3608L11.243 30.1945l-7.38811 -8.1653c-1.69836 -1.877 -0.73037 -4.9625 1.70644 -5.4393l10.55447 -2.0652 5.1243 -9.8178C21.834 3.56897 22.917 3 24 3Z" stroke-width="1"></path>
  </g>
</svg>