<svg xmlns="http://www.w3.org/2000/svg" fill="none" viewBox="0 0 48 48" id="Heater--Streamline-Plump-Neon">
  <desc>
    Heater Streamline Icon: https://streamlinehq.com
  </desc>
  <g id="heater--travel-hotel-heater">
    <path id="Vector" stroke="#000cfe" stroke-linecap="round" stroke-linejoin="round" d="M24 3c-1.2533 1.65685 -1.4112 3.69231 0 6 1.4112 2.3077 1.2533 4.3431 0 6" stroke-width="3"></path>
    <path id="Vector_2" stroke="#000cfe" stroke-linecap="round" stroke-linejoin="round" d="M14 3c-1.2533 1.65685 -1.4112 3.69231 0 6 1.4112 2.3077 1.2533 4.3431 0 6" stroke-width="3"></path>
    <path id="Vector_3" stroke="#000cfe" stroke-linecap="round" stroke-linejoin="round" d="M34 3c-1.2533 1.65685 -1.4112 3.69231 0 6 1.4112 2.3077 1.2533 4.3431 0 6" stroke-width="3"></path>
    <path id="Vector_4" stroke="#c71dff" stroke-linecap="round" stroke-linejoin="round" d="M45.6196 24.6016c-0.2656 -2.4406 -2.267 -4.1433 -4.7192 -4.2615C37.5513 20.1785 32.0326 20 24 20s-13.5513 0.1785 -16.90039 0.3401c-2.45224 0.1182 -4.45357 1.8209 -4.71922 4.2615C2.17412 26.4967 2 29.1026 2 32.5c0 3.3974 0.17412 6.0033 0.38039 7.8984 0.26565 2.4406 2.26697 4.1433 4.71921 4.2615C10.4487 44.8215 15.9674 45 24 45s13.5513 -0.1785 16.9004 -0.3401c2.4522 -0.1182 4.4536 -1.8208 4.7192 -4.2615 0.2063 -1.8951 0.3804 -4.501 0.3804 -7.8984 0 -3.3974 -0.1741 -6.0033 -0.3804 -7.8984Z" stroke-width="3"></path>
    <path id="Vector_5" stroke="#000cfe" stroke-linecap="round" stroke-linejoin="round" d="M14 29c0 1.6569 -1.3431 3 -3 3 -1.65685 0 -3 -1.3431 -3 -3s1.34315 -3 3 -3c1.6569 0 3 1.3431 3 3Z" stroke-width="3"></path>
    <path id="Vector_6" stroke="#000cfe" stroke-linecap="round" stroke-linejoin="round" d="M27.9438 28.2449c-0.0355 -1.1795 -0.821 -2.1546 -1.9992 -2.2199C25.6635 26.0094 25.3492 26 25 26c-0.3492 0 -0.6635 0.0094 -0.9446 0.025 -1.1782 0.0653 -1.9637 1.0404 -1.9992 2.2199 -0.03 0.9962 -0.0562 2.3984 -0.0562 4.2551 0 1.8567 0.0262 3.2589 0.0562 4.2551 0.0355 1.1795 0.821 2.1546 1.9992 2.2199 0.2811 0.0156 0.5954 0.025 0.9446 0.025 0.3492 0 0.6635 -0.0094 0.9446 -0.025 1.1782 -0.0653 1.9637 -1.0404 1.9992 -2.2199 0.03 -0.9962 0.0562 -2.3984 0.0562 -4.2551 0 -1.8567 -0.0262 -3.2589 -0.0562 -4.2551Z" stroke-width="3"></path>
    <path id="Vector_7" stroke="#000cfe" stroke-linecap="round" stroke-linejoin="round" d="M39.9438 28.2449c-0.0355 -1.1795 -0.821 -2.1546 -1.9992 -2.2199C37.6635 26.0094 37.3492 26 37 26c-0.3492 0 -0.6635 0.0094 -0.9446 0.025 -1.1782 0.0653 -1.9637 1.0404 -1.9992 2.2199 -0.03 0.9962 -0.0562 2.3984 -0.0562 4.2551 0 1.8567 0.0262 3.2589 0.0562 4.2551 0.0355 1.1795 0.821 2.1546 1.9992 2.2199 0.2811 0.0156 0.5954 0.025 0.9446 0.025 0.3492 0 0.6635 -0.0094 0.9446 -0.025 1.1782 -0.0653 1.9637 -1.0404 1.9992 -2.2199 0.03 -0.9962 0.0562 -2.3984 0.0562 -4.2551 0 -1.8567 -0.0262 -3.2589 -0.0562 -4.2551Z" stroke-width="3"></path>
  </g>
</svg>