<svg xmlns="http://www.w3.org/2000/svg" fill="none" viewBox="0 0 48 48" id="Iris-Scan--Streamline-Plump-Neon">
  <desc>
    Iris Scan Streamline Icon: https://streamlinehq.com
  </desc>
  <g id="iris-scan--identification-retina-secure-security-iris-scan-eye-brackets">
    <path id="Vector" stroke="#000cfe" stroke-linecap="round" stroke-linejoin="round" d="M7.58888 25.1762c-0.30076 -0.7545 -0.3008 -1.5965 -0.0001 -2.3511C10.1109 16.4957 16.5078 12 24.0007 12c7.4924 0 13.8889 4.4951 16.4114 10.8238 0.3008 0.7546 0.3008 1.5966 0.0001 2.3512 -2.5221 6.3294 -8.919 10.8251 -16.4119 10.8251 -7.4925 0 -13.889 -4.4951 -16.41142 -10.8239Z" stroke-width="1"></path>
    <path id="Vector_2" stroke="#000cfe" stroke-linecap="round" stroke-linejoin="round" d="M17 24a7 7 0 1 0 14 0 7 7 0 1 0 -14 0" stroke-width="1"></path>
    <path id="Vector_3" stroke="#c71dff" stroke-linecap="round" stroke-linejoin="round" d="M15 3s-4.1149 0.00005 -8.26609 0.27177c-1.86677 0.12219 -3.33937 1.59456 -3.46175 3.46132C3 10.8848 3 15 3 15" stroke-width="1"></path>
    <path id="Vector_4" stroke="#c71dff" stroke-linecap="round" stroke-linejoin="round" d="M33 3s4.1149 0.00005 8.2661 0.27177c1.8668 0.12219 3.3394 1.59456 3.4617 3.46132C45 10.8848 45 15 45 15" stroke-width="1"></path>
    <path id="Vector_5" stroke="#c71dff" stroke-linecap="round" stroke-linejoin="round" d="M33 45s4.1149 0 8.2661 -0.2718c1.8668 -0.1222 3.3394 -1.5945 3.4617 -3.4613C45 37.1152 45 33 45 33" stroke-width="1"></path>
    <path id="Vector_6" stroke="#c71dff" stroke-linecap="round" stroke-linejoin="round" d="M15 45s-4.1149 0 -8.26609 -0.2718c-1.86677 -0.1222 -3.33937 -1.5945 -3.46175 -3.4613C3 37.1152 3 33 3 33" stroke-width="1"></path>
  </g>
</svg>