<svg xmlns="http://www.w3.org/2000/svg" fill="none" viewBox="0 0 48 48" id="Ladder--Streamline-Plump-Neon">
  <desc>
    Ladder Streamline Icon: https://streamlinehq.com
  </desc>
  <g id="ladder--business-product-metaphor-ladder">
    <path id="Vector" fill-rule="evenodd" stroke="#c71dff" stroke-linecap="round" stroke-linejoin="round" d="M9.61225 2.19144C8.5433 2.50942 8.12956 3.6482 8.11258 4.76331 8.07065 7.51678 8 13.6861 8 24c0 10.3139 0.07065 16.4832 0.11258 19.2367 0.01698 1.1151 0.43072 2.2539 1.49967 2.5719C9.99361 45.922 10.4543 46 11 46c0.5457 0 1.0064 -0.078 1.3877 -0.1914 1.069 -0.318 1.4827 -1.4568 1.4997 -2.5719 0.0106 -0.6924 0.0229 -1.6008 0.0355 -2.7367h20.1542c0.0126 1.1359 0.0249 2.0443 0.0355 2.7367 0.017 1.1151 0.4307 2.2539 1.4996 2.5719 0.3814 0.1134 0.8421 0.1914 1.3878 0.1914s1.0064 -0.078 1.3878 -0.1914c1.0689 -0.318 1.4826 -1.4568 1.4996 -2.5719C39.9294 40.4832 40 34.3139 40 24c0 -10.3139 -0.0706 -16.48322 -0.1126 -19.23668 -0.017 -1.11512 -0.4307 -2.2539 -1.4997 -2.57188C38.0064 2.078 37.5457 2 37 2s-1.0064 0.078 -1.3877 0.19144c-1.069 0.31798 -1.4827 1.45676 -1.4997 2.57187 -0.0106 0.69238 -0.0229 1.60075 -0.0355 2.73669l-20.1542 0c-0.0126 -1.13594 -0.0249 -2.04431 -0.0355 -2.73669 -0.017 -1.11511 -0.4307 -2.25389 -1.4997 -2.57187C12.0064 2.078 11.5457 2 11 2s-1.00639 0.078 -1.38775 0.19144ZM13.966 12.5c0.016 2.4718 0.0285 5.4597 0.0326 9h20.0028c0.0041 -3.5403 0.0166 -6.5282 0.0326 -9l-20.068 0Zm0.0326 14c-0.0041 3.5403 -0.0166 6.5282 -0.0326 9h20.068c-0.016 -2.4718 -0.0285 -5.4597 -0.0326 -9H13.9986Z" clip-rule="evenodd" stroke-width="3"></path>
  </g>
</svg>