<svg xmlns="http://www.w3.org/2000/svg" fill="none" viewBox="0 0 48 48" id="Layers-1--Streamline-Plump-Neon">
  <desc>
    Layers 1 Streamline Icon: https://streamlinehq.com
  </desc>
  <g id="layers-1--design-layer-layers-pile-stack-align">
    <path id="Rectangle 298" stroke="#c71dff" stroke-linecap="round" stroke-linejoin="round" d="M42.0005 31.3359c0.8118 0.4798 1.4925 0.9083 2.0488 1.274 1.0436 0.6861 1.0436 2.0968 0 2.7829 -1.6001 1.0518 -4.2289 2.6228 -8.0491 4.4419 -4.8725 2.3202 -8.776 3.4292 -10.6986 3.8889 -0.8586 0.2053 -1.7441 0.2053 -2.6027 0 -1.9227 -0.4597 -5.8261 -1.5687 -10.6987 -3.8889 -3.82008 -1.8191 -6.44891 -3.3901 -8.04898 -4.4419 -1.04368 -0.6861 -1.04368 -2.0968 0 -2.7829 0.5563 -0.3657 1.23694 -0.7942 2.04877 -1.274" stroke-width="1"></path>
    <path id="Rectangle 299" stroke="#c71dff" stroke-linecap="round" stroke-linejoin="round" d="M42 21.2109c0.8118 0.4798 1.4925 0.9083 2.0488 1.274 1.0437 0.6861 1.0437 2.0968 0 2.7829 -1.6001 1.0518 -4.2289 2.6228 -8.049 4.4419 -4.8726 2.3202 -8.7761 3.4292 -10.6987 3.8889 -0.8586 0.2053 -1.7441 0.2053 -2.6027 0 -1.9226 -0.4597 -5.8261 -1.5687 -10.6986 -3.8889 -3.82017 -1.8191 -6.449 -3.3901 -8.04907 -4.4419 -1.04368 -0.6861 -1.04368 -2.0968 0 -2.7829 0.5563 -0.3657 1.23695 -0.7942 2.04878 -1.274" stroke-width="1"></path>
    <path id="Rectangle 297" stroke="#000cfe" stroke-linecap="round" stroke-linejoin="round" d="M22.6989 4.27898c0.8586 -0.20531 1.7441 -0.20531 2.6027 0 1.9226 0.45975 5.8261 1.5687 10.6986 3.88895 3.8202 1.81911 6.449 3.39007 8.0491 4.44187 1.0436 0.6861 1.0436 2.0968 0 2.7829 -1.6001 1.0519 -4.2289 2.6228 -8.0491 4.4419 -4.8725 2.3202 -8.776 3.4292 -10.6986 3.889 -0.8586 0.2053 -1.7441 0.2053 -2.6027 0 -1.9227 -0.4598 -5.8261 -1.5688 -10.6987 -3.889 -3.82008 -1.8191 -6.44891 -3.39 -8.04898 -4.4419 -1.04368 -0.6861 -1.04368 -2.0968 0 -2.7829 1.60007 -1.0518 4.2289 -2.62276 8.04898 -4.44187 4.8726 -2.32025 8.776 -3.4292 10.6987 -3.88895Z" stroke-width="1"></path>
  </g>
</svg>