<svg xmlns="http://www.w3.org/2000/svg" fill="none" viewBox="0 0 48 48" id="Magnet--Streamline-Plump-Neon">
  <desc>
    Magnet Streamline Icon: https://streamlinehq.com
  </desc>
  <g id="magnet--design-magnet-snap-supplies-to-tool">
    <path id="Rectangle 650 (Stroke)" fill-rule="evenodd" stroke="#c71dff" stroke-linecap="round" stroke-linejoin="round" d="M26.123 3.14864c-0.7385 -0.74987 -1.8491 -0.93043 -2.8211 -0.52663 -3.3045 1.37288 -6.4548 3.1236 -9.4096 5.12819C2.04202 15.7896 -2.88868 28.86 8.21727 40.068 18.9628 50.9122 32.6681 45.6196 40.2534 34.3937c2.0116 -2.9771 3.7948 -6.2109 5.1619 -9.5756 0.3819 -0.9398 0.2176 -2.0083 -0.5054 -2.72 -1.4173 -1.3953 -4.1777 -3.6067 -8.0498 -4.4048 -1.11 -0.2288 -2.1976 0.3531 -2.7883 1.3203 -1.1644 1.9063 -3.1312 5.0927 -4.4101 6.9854 -3.7055 5.4841 -8.8135 7.8188 -12.0324 4.5704 -3.2188 -3.2484 -1.1747 -8.413 4.4462 -12.2263 1.9493 -1.3224 5.3026 -3.3272 7.1945 -4.4432 0.8753 -0.5163 1.4687 -1.4419 1.3443 -2.4505 -0.4545 -3.68662 -2.9457 -6.73134 -4.4913 -8.30076Z" clip-rule="evenodd" stroke-width="1"></path>
    <g id="Intersect">
      <path stroke="#000cfe" stroke-linecap="round" stroke-linejoin="round" d="M42.2518 31.2164c1.1975 -2.0533 2.2696 -4.1978 3.1637 -6.3983 0.3819 -0.9398 0.2175 -2.0083 -0.5054 -2.72 -1.4174 -1.3953 -4.1777 -3.6067 -8.0498 -4.4048 -1.11 -0.2288 -2.1976 0.3531 -2.7884 1.3203 -0.8311 1.3606 -2.0709 3.3734 -3.1777 5.1025 3.8813 3.4449 8.5281 5.8324 11.3576 7.1003Z" stroke-width="1"></path>
      <path stroke="#000cfe" stroke-linecap="round" stroke-linejoin="round" d="M24.0652 17.0529c1.7889 -1.1245 3.864 -2.362 5.205 -3.153 0.8753 -0.5163 1.4686 -1.4419 1.3443 -2.4505 -0.4546 -3.68662 -2.9457 -6.73134 -4.4914 -8.30076 -0.7385 -0.74987 -1.8491 -0.93043 -2.821 -0.52663 -2.0362 0.84593 -4.0138 1.83533 -5.9232 2.93917 1.1563 2.75558 3.4052 7.46502 6.6863 11.49172Z" stroke-width="1"></path>
    </g>
  </g>
</svg>