<svg xmlns="http://www.w3.org/2000/svg" fill="none" viewBox="0 0 48 48" id="Moon-Stars--Streamline-Plump-Neon">
  <desc>
    Moon Stars Streamline Icon: https://streamlinehq.com
  </desc>
  <g id="moon-stars--night-time">
    <path id="Vector" stroke="#c71dff" stroke-linecap="round" stroke-linejoin="round" d="M17.5865 18.8568c0 7.8416 6.3568 14.1984 14.1983 14.1984 1.1458 0 2.26 -0.1357 3.3272 -0.392 0.8291 -0.1991 1.6306 0.5535 1.2999 1.3394 -2.7093 6.4395 -9.0778 10.9609 -16.5023 10.9609 -9.8835 0 -17.8957 -8.0122 -17.8957 -17.8957S10.0261 9.1722 19.9096 9.1722c0.5844 0 0.8683 0.6963 0.5172 1.1635 -1.7834 2.3734 -2.8403 5.3238 -2.8403 8.5211Z" stroke-width="3"></path>
    <path id="Vector_2" stroke="#000cfe" stroke-linecap="round" stroke-linejoin="round" d="M38.1365 26.9692c-0.2674 0.8132 -1.4178 0.8132 -1.6852 0l-1.6517 -5.0224c-0.0881 -0.2675 -0.298 -0.4775 -0.5655 -0.5655l-5.0225 -1.6517c-0.8132 -0.2674 -0.8132 -1.4179 0 -1.6853l5.0225 -1.6517c0.2675 -0.088 0.4774 -0.298 0.5655 -0.5655l1.6517 -5.0224c0.2674 -0.8132 1.4178 -0.8132 1.6852 0l1.6518 5.0224c0.088 0.2675 0.298 0.4775 0.5655 0.5655l5.0224 1.6517c0.8132 0.2674 0.8132 1.4179 0 1.6853l-5.0224 1.6517c-0.2675 0.0881 -0.4775 0.298 -0.5655 0.5655l-1.6518 5.0224Z" stroke-width="3"></path>
    <path id="Vector_3" stroke="#000cfe" stroke-linecap="round" stroke-linejoin="round" d="M28.6017 3.0365v6.1357m3.0679 -3.0679h-6.1357" stroke-width="3"></path>
  </g>
</svg>