<svg xmlns="http://www.w3.org/2000/svg" fill="none" viewBox="0 0 48 48" id="Ok-Hand--Streamline-Plump-Neon">
  <desc>
    Ok Hand Streamline Icon: https://streamlinehq.com
  </desc>
  <g id="ok-hand">
    <path id="Vector" stroke="#c71dff" stroke-linecap="round" stroke-linejoin="round" d="M30.3329 7.641c-0.4553 -1.1886 -0.7007 -2.5775 0.0981 -3.5685 0.9361 -1.1615 2.1251 -1.7229 3.0559 -1.9943 0.9529 -0.2779 1.9422 0.0981 2.5728 0.8645 3.5442 4.3073 6.9434 14.0497 6.9434 25.0024 0 10.5723 -5.6533 15.3469 -7.0319 16.354 -0.1974 0.1443 -0.4058 0.2658 -0.6316 0.3598 -0.9191 0.383 -3.8316 1.3542 -9.7313 1.3542 -3.0176 0 -5.2538 -0.0847 -6.8414 -0.1844 -2.1498 -0.1353 -4.2782 -0.6413 -6.1125 -1.7707 -4.0122 -2.4704 -6.8421 -6.4027 -7.6144 -11.9695 -0.2742 -1.976 0.7783 -3.91 2.6952 -4.4621 0.372 -0.1072 0.7722 -0.2029 1.196 -0.2778 1.5373 -0.2713 2.6883 1.105 3.1816 2.5861 1.1183 3.3574 4.2248 5.4896 7.2792 4.5764 0.6231 -0.2411 1.2285 -0.6049 1.7687 -0.9933 1.4544 -1.0459 2.0782 -2.9719 1.2688 -4.57 -1.4705 -2.9037 -4.4752 -4.1721 -8.1198 -3.2289 -1.642 0.4249 -3.4717 0.2482 -4.4414 -1.1436 -0.2073 -0.2974 -0.4185 -0.6214 -0.6252 -0.969 -1.1766 -1.9776 -0.398 -4.5056 1.6717 -5.511 3.8552 -1.8727 8.0509 -1.6904 12.0636 -0.1422 0 0 -2.8771 -5.417 -6.3391 -9.0766 -0.6785 -0.7172 -1.2158 -1.627 -1.0697 -2.6035 0.2859 -1.9114 1.5171 -3.0946 2.5214 -3.7582 0.8351 -0.5517 1.8982 -0.4938 2.766 0.0046 4.6114 2.6488 8.4902 7.6884 10.7088 10.5529 0 0 -0.2682 -2.9128 -1.2329 -5.4313Z" stroke-width="1"></path>
  </g>
</svg>