<svg xmlns="http://www.w3.org/2000/svg" fill="none" viewBox="0 0 48 48" id="One-Finger-Tap--Streamline-Plump-Neon">
  <desc>
    One Finger Tap Streamline Icon: https://streamlinehq.com
  </desc>
  <g id="one-finger-tap">
    <path id="Vector" stroke="#c71dff" stroke-linecap="round" stroke-linejoin="round" d="M23.5685 11.9691c0.2465 3.277 0.589 8.2058 0.589 10.3021 0 0 6.3492 1.2341 11.8985 3.3729 2.6077 1.0051 4.1446 3.5873 3.7668 6.3563 -0.2913 2.1363 -0.8405 4.9242 -1.871 8.1154 -0.9857 3.0531 -3.6664 5.2043 -6.8552 5.5572 -1.7432 0.193 -3.8045 0.3457 -5.9618 0.3457 -2.3512 0 -4.507 -0.1813 -6.2455 -0.3985 -2.8088 -0.3509 -5.3747 -1.7809 -6.6515 -4.3072 -1.0166 -2.0115 -2.1132 -4.9365 -2.7547 -8.9375 -0.293 -1.8278 0.4288 -3.6507 1.781 -4.915l2.86 -2.6742c0 -5.8995 0.1594 -10.2054 0.2996 -12.8511 0.1015 -1.9163 1.3501 -3.6181 3.2536 -3.8611 0.4221 -0.0539 0.8614 -0.0877 1.2993 -0.0877 0.4247 0 0.8508 0.0318 1.2611 0.0829 1.924 0.2394 3.1854 1.9664 3.3308 3.8998Z" stroke-width="1"></path>
    <path id="Vector_2" stroke="#000cfe" stroke-linecap="round" stroke-linejoin="round" d="M30.1392 12.9906c0 -6.0803 -4.9291 -11.0093 -11.0094 -11.0093S8.1204 6.9103 8.1204 12.9906" stroke-width="1"></path>
  </g>
</svg>