<svg xmlns="http://www.w3.org/2000/svg" fill="none" viewBox="0 0 48 48" id="Open-Umbrella--Streamline-Plump-Neon">
  <desc>
    Open Umbrella Streamline Icon: https://streamlinehq.com
  </desc>
  <g id="open-umbrella--storm-rain-umbrella-open-weather">
    <path id="Vector" stroke="#000cfe" stroke-linecap="round" stroke-linejoin="round" d="M27 38.2295v-14.251c-0.954 0.0138 -1.9533 0.0211 -3 0.0211s-2.046 -0.0073 -3 -0.0211v16.0211c0 3.3137 2.6863 6 6 6s6 -2.6863 6 -6v-1.7701c0 -1.0331 -0.6622 -1.963 -1.6831 -2.1207 -0.4115 -0.0636 -0.8642 -0.1092 -1.3169 -0.1092s-0.9054 0.0456 -1.3169 0.1092C27.6622 36.2665 27 37.1964 27 38.2295Zm0 0v1.7701" stroke-width="3"></path>
    <path id="Vector_2" stroke="#c71dff" stroke-linecap="round" stroke-linejoin="round" d="M24 2C12.648 2 3.30415 11.5228 2.1254 20.0535c-0.15074 1.0909 0.49777 2.0665 1.56477 2.3391C6.2015 23.0342 11.9785 24 24 24c12.0215 0 17.7985 -0.9658 20.3098 -1.6074 1.067 -0.2726 1.7155 -1.2482 1.5648 -2.3391C44.6958 11.5228 35.352 2 24 2Z" stroke-width="3"></path>
    <path id="Vector_3" stroke="#c71dff" stroke-linecap="round" stroke-linejoin="round" d="M23.9998 2C12.6478 2 3.30392 11.5228 2.12517 20.0535c-0.15074 1.0909 0.49777 2.0665 1.56477 2.3391C6.20126 23.0342 11.9782 24 23.9998 24c12.0215 0 17.7985 -0.9658 20.3098 -1.6074 1.067 -0.2726 1.7155 -1.2482 1.5648 -2.3391C44.6956 11.5228 35.3518 2 23.9998 2Z" stroke-width="3"></path>
  </g>
</svg>