<svg xmlns="http://www.w3.org/2000/svg" fill="none" viewBox="0 0 48 48" id="Page-Setting--Streamline-Plump-Neon">
  <desc>
    Page Setting Streamline Icon: https://streamlinehq.com
  </desc>
  <g id="page-setting--page-setting-square-triangle-circle-line-combination-variation">
    <path id="Ellipse 20" stroke="#c71dff" stroke-linecap="round" stroke-linejoin="round" d="M1.9911 35.7359c-0.0077 7.7551 8.3827 12.6105 15.1027 8.7396 3.125 -1.8001 5.0494 -5.1333 5.0458 -8.7396 0.0077 -7.7552 -8.3826 -12.6105 -15.1027 -8.7396 -3.1249 1.8001 -5.0494 5.1332 -5.0458 8.7396" stroke-width="1"></path>
    <path id="Rectangle 126" stroke="#000cfe" stroke-linecap="round" stroke-linejoin="round" d="M20.9966 6.1149c-0.1055 -1.736 -1.235 -3.0805 -2.9596 -3.3056 -1.3313 -0.1737 -3.2554 -0.3184 -5.9716 -0.3184 -2.7163 0 -4.6403 0.1447 -5.9717 0.3184 -1.7245 0.2251 -2.8541 1.5696 -2.9596 3.3056 -0.0754 1.2417 -0.1355 2.9983 -0.1355 5.4428 0 2.4446 0.0601 4.2012 0.1355 5.4428 0.1055 1.736 1.2351 3.0805 2.9597 3.3056 1.3313 0.1738 3.2553 0.3184 5.9716 0.3184 2.7162 0 4.6403 -0.1446 5.9716 -0.3184 1.7246 -0.2251 2.8541 -1.5696 2.9596 -3.3056 0.0754 -1.2416 0.1356 -2.9982 0.1356 -5.4428 0 -2.4445 -0.0602 -4.2012 -0.1356 -5.4428Z" stroke-width="1"></path>
    <path id="Vector" stroke="#000cfe" stroke-linecap="round" stroke-linejoin="round" d="M27.6804 35.7359h17.1262" stroke-width="1"></path>
    <path id="Vector_2" stroke="#000cfe" stroke-linecap="round" stroke-linejoin="round" d="M27.6804 28.6839h17.1262" stroke-width="1"></path>
    <path id="Vector_3" stroke="#000cfe" stroke-linecap="round" stroke-linejoin="round" d="M27.6804 42.7879h17.1262" stroke-width="1"></path>
    <path id="Vector_4" stroke="#c71dff" stroke-linecap="round" stroke-linejoin="round" d="M36.2427 20.8767c3.0403 0 5.6757 -0.2855 7.5555 -0.5721 1.672 -0.2549 2.6316 -1.9111 2.0304 -3.492 -0.6993 -1.8387 -1.7889 -4.3858 -3.3344 -7.1615 -1.4925 -2.6805 -3.0199 -4.8726 -4.1916 -6.4133 -1.0626 -1.3975 -3.0586 -1.3972 -4.1211 0.0005 -1.1709 1.5407 -2.6977 3.7326 -4.19 6.4128 -1.5456 2.776 -2.6352 5.3234 -3.3341 7.1622 -0.6009 1.5806 0.3585 3.2363 2.0303 3.4913 1.8795 0.2866 4.5147 0.5721 7.555 0.5721Z" stroke-width="1"></path>
  </g>
</svg>