<svg xmlns="http://www.w3.org/2000/svg" fill="none" viewBox="0 0 48 48" id="Projector-Screen--Streamline-Plump-Neon">
  <desc>
    Projector Screen Streamline Icon: https://streamlinehq.com
  </desc>
  <g id="projector-screen--projector-screen-work-meeting-presentation">
    <path id="Vector" stroke="#000cfe" stroke-linecap="round" stroke-linejoin="round" d="M7 9.77344c3.0202 0.10781 8.3104 0.22579 17 0.22579s13.9798 -0.11798 17 -0.22579V21.4992c0 5.952 -0.1567 10.1899 -0.2895 12.7135 -2.372 -0.0886 -7.3713 -0.2135 -16.7105 -0.2135s-14.33847 0.1249 -16.71047 0.2135C7.15667 31.6891 7 27.4512 7 21.4992V9.77344Z" stroke-width="1"></path>
    <path id="Vector_2" stroke="#000cfe" stroke-linecap="round" stroke-linejoin="round" d="M24 40v6" stroke-width="1"></path>
    <path id="Vector_3" stroke="#c71dff" stroke-linecap="round" stroke-linejoin="round" d="M5.45347 2.28814c-1.22064 0.05578 -2.24697 0.76801 -2.37304 1.98341C3.0321 4.73749 3 5.3076 3 6c0 0.6924 0.0321 1.26251 0.08043 1.72845 0.12607 1.2154 1.1524 1.92764 2.37304 1.98341C8.04321 9.8302 13.5754 10 24 10s15.9568 -0.1698 18.5465 -0.28814c1.2207 -0.05578 2.247 -0.76801 2.3731 -1.9834C44.9679 7.26251 45 6.69241 45 6c0 -0.69241 -0.0321 -1.26251 -0.0804 -1.72846 -0.1261 -1.21539 -1.1524 -1.92762 -2.3731 -1.9834C39.9568 2.1698 34.4246 2 24 2c-10.4246 0 -15.95679 0.1698 -18.54653 0.28814Z" stroke-width="1"></path>
    <path id="Vector_4" stroke="#c71dff" stroke-linecap="round" stroke-linejoin="round" d="M7.22599 34.2159c-1.11813 0.0423 -2.08271 0.6561 -2.18356 1.7705C5.01613 36.2771 5 36.6131 5 37s0.01613 0.7229 0.04243 1.0136c0.10085 1.1144 1.06543 1.7282 2.18356 1.7705C9.5717 39.8729 14.5765 40 24 40s14.4283 -0.1271 16.774 -0.2159c1.1181 -0.0423 2.0827 -0.6561 2.1836 -1.7704C42.9839 37.7229 43 37.3869 43 37s-0.0161 -0.7229 -0.0424 -1.0137c-0.1009 -1.1143 -1.0655 -1.7281 -2.1836 -1.7704C38.4283 34.1271 33.4235 34 24 34s-14.4283 0.1271 -16.77401 0.2159Z" stroke-width="1"></path>
  </g>
</svg>