<svg xmlns="http://www.w3.org/2000/svg" fill="none" viewBox="0 0 48 48" id="Radioactive-1--Streamline-Plump-Neon">
  <desc>
    Radioactive 1 Streamline Icon: https://streamlinehq.com
  </desc>
  <g id="radioactive-1--danger-nuke-radiation-nuclear-warning-alert-radioactive-caution">
    <path id="Vector" stroke="#c71dff" stroke-linejoin="round" d="M11.5753 3.8948c1.3208 -0.9149 3.0903 -0.3785 3.8731 1.0247 1.8567 3.328 4.0713 7.4718 6.017 11.5881 0.2398 0.5075 0.0036 1.1047 -0.4549 1.4286 -1.2786 0.9032 -2.1094 2.3604 -2.245 3.9264 -0.0485 0.5609 -0.4495 1.0654 -1.0106 1.11 -4.5024 0.3579 -9.1615 0.495 -12.9437 0.5372 -1.5989 0.0178 -2.9398 -1.2393 -2.8188 -2.8337 0.5099 -6.7185 4.0731 -12.9646 9.5829 -16.7813Z" stroke-width="3"></path>
    <path id="Vector_2" stroke="#c71dff" stroke-linejoin="round" d="M36.4247 3.8948c-1.3208 -0.9149 -3.0903 -0.3785 -3.8731 1.0247 -1.8567 3.328 -4.0713 7.4718 -6.017 11.5881 -0.2398 0.5075 -0.0036 1.1047 0.4549 1.4286 1.2786 0.9032 2.1095 2.3604 2.245 3.9264 0.0486 0.5609 0.4495 1.0654 1.0106 1.11 4.5024 0.3579 9.1615 0.495 12.9437 0.5372 1.599 0.0177 2.9398 -1.2393 2.8188 -2.8337 -0.5098 -6.7185 -4.0731 -12.9646 -9.5828 -16.7813Z" stroke-width="3"></path>
    <path id="Vector_3" stroke="#c71dff" stroke-linejoin="round" d="M33.6307 42.3326c1.4256 -0.6983 1.8368 -2.4735 1.0334 -3.8425 -1.9301 -3.2891 -4.3861 -7.3065 -6.9541 -11.075 -0.3197 -0.4691 -0.9636 -0.5641 -1.4765 -0.3208 -0.6778 0.3214 -1.4348 0.5011 -2.2335 0.5011 -0.7987 0 -1.5556 -0.1797 -2.2335 -0.5011 -0.5129 -0.2433 -1.1568 -0.1483 -1.4764 0.3208 -2.5681 3.7685 -5.0241 7.7859 -6.9542 11.075 -0.8034 1.369 -0.3921 3.1442 1.0334 3.8425 2.9104 1.4258 6.1779 2.2255 9.6307 2.2255s6.7204 -0.7997 9.6307 -2.2255Z" stroke-width="3"></path>
  </g>
</svg>