<svg xmlns="http://www.w3.org/2000/svg" fill="none" viewBox="0 0 48 48" id="Skull-2--Streamline-Plump-Neon">
  <desc>
    Skull 2 Streamline Icon: https://streamlinehq.com
  </desc>
  <g id="skull-2--crash-death-delete-die-error-garbage-remove-skull-trash">
    <path id="Ellipse 96" stroke="#000cfe" stroke-linecap="round" stroke-linejoin="round" d="M40 18a4 5 0 1 0 0 10 4 5 0 1 0 0 -10" stroke-width="3"></path>
    <path id="Ellipse 97" stroke="#000cfe" stroke-linecap="round" stroke-linejoin="round" d="M22 23a4 5 0 1 0 8 0 4 5 0 1 0 -8 0" stroke-width="3"></path>
    <path id="Vector 989" stroke="#000cfe" stroke-linecap="round" stroke-linejoin="round" d="M29 40v5.75" stroke-width="3"></path>
    <path id="Vector 990" stroke="#000cfe" stroke-linecap="round" stroke-linejoin="round" d="M36 40v5.75" stroke-width="3"></path>
    <path id="Union" stroke="#c71dff" stroke-linecap="round" stroke-linejoin="round" d="M20.1117 39.6412C10.9272 37.922 4 30.2295 4 21 4 10.5066 12.9543 2 24 2c10.8697 0 19.7142 8.2377 19.9932 18.5H44v13c0 4.1499 -0.1207 6.8618 -0.2512 8.5807 -0.1297 1.7081 -1.2309 3.054 -2.9199 3.3398C39.0758 45.7171 36.2815 46 32 46c-4.2815 0 -7.0758 -0.2829 -8.8289 -0.5795 -1.689 -0.2858 -2.7902 -1.6317 -2.9199 -3.3398 -0.05 -0.6589 -0.0986 -1.4637 -0.1395 -2.4395Z" stroke-width="3"></path>
  </g>
</svg>