<svg xmlns="http://www.w3.org/2000/svg" fill="none" viewBox="0 0 48 48" id="Table--Streamline-Plump-Neon">
  <desc>
    Table Streamline Icon: https://streamlinehq.com
  </desc>
  <g id="table">
    <path id="Vector" stroke="#000cfe" stroke-linecap="round" stroke-linejoin="round" d="m15 44.8441 0 -41.6898" stroke-width="3"></path>
    <path id="Vector 883" stroke="#000cfe" stroke-linecap="round" stroke-linejoin="round" d="m3.25 17 41.5 0" stroke-width="3"></path>
    <path id="Vector 884" stroke="#000cfe" stroke-linecap="round" stroke-linejoin="round" d="m3.25 31 41.5 0" stroke-width="3"></path>
    <path id="Vector_2" stroke="#c71dff" stroke-linecap="round" stroke-linejoin="round" d="M8.25718 44.461c-2.5553 -0.2076 -4.5106 -2.1629 -4.71821 -4.7182C3.27668 36.5146 3 31.364 3 24c0 -7.364 0.27667 -12.5146 0.53896 -15.74282 0.20761 -2.5553 2.16291 -4.5106 4.71821 -4.71821C11.4854 3.27668 16.636 3 24 3c7.364 0 12.5146 0.27667 15.7428 0.53896 2.5553 0.20762 4.5106 2.16291 4.7182 4.71821C44.7233 11.4854 45 16.636 45 24c0 7.364 -0.2767 12.5146 -0.539 15.7428 -0.2076 2.5553 -2.1629 4.5106 -4.7182 4.7182C36.5146 44.7233 31.364 45 24 45c-7.364 0 -12.5146 -0.2767 -15.74282 -0.539Z" stroke-width="3"></path>
  </g>
</svg>