<svg xmlns="http://www.w3.org/2000/svg" fill="none" viewBox="0 0 48 48" id="Text-Shadow--Streamline-Plump-Neon">
  <desc>
    Text Shadow Streamline Icon: https://streamlinehq.com
  </desc>
  <g id="text-shadow">
    <path id="Subtract" fill-rule="evenodd" stroke="#c71dff" stroke-linecap="round" stroke-linejoin="round" d="M19.1501 2.431c1.5167 -0.1222 3.2956 -0.23 4.85 -0.23 1.5542 0 3.3332 0.1078 4.8498 0.23 2.1589 0.1739 3.9808 1.6181 4.6809 3.6677 3.7527 10.9857 8.8589 28.3595 10.9854 35.6868 0.546 1.8812 -0.6101 3.7834 -2.5637 3.9259 -0.7213 0.0526 -1.5334 0.0876 -2.4182 0.0876 -1.1695 0 -2.1799 -0.061 -3.0107 -0.1433 -1.6602 -0.1644 -2.9097 -1.4361 -3.3037 -3.0572l-1.4527 -5.978H16.2328l-1.4527 5.978c-0.394 1.6211 -1.6435 2.8928 -3.3037 3.0572 -0.8307 0.0823 -1.8412 0.1433 -3.0106 0.1433 -0.8849 0 -1.697 -0.035 -2.4183 -0.0876 -1.9536 -0.1425 -3.1096 -2.0447 -2.5637 -3.9259 2.1265 -7.3272 7.2327 -24.7011 10.9854 -35.6868 0.7001 -2.0496 2.522 -3.4938 4.6809 -3.6677Zm4.4959 10.0958c-0.4987 0 -0.9403 0.3222 -1.0926 0.7972l-4.5243 14.118h11.9494l-4.5242 -14.118c-0.1523 -0.475 -0.5939 -0.7972 -1.0926 -0.7972h-0.7157Z" clip-rule="evenodd" stroke-width="1"></path>
  </g>
</svg>