<svg xmlns="http://www.w3.org/2000/svg" fill="none" viewBox="0 0 48 48" id="Warning-Diamond--Streamline-Plump-Neon">
  <desc>
    Warning Diamond Streamline Icon: https://streamlinehq.com
  </desc>
  <g id="warning-diamond--diamond-alert-warning-frame-exclamation-caution">
    <path id="Vector" stroke="#c71dff" stroke-linecap="round" stroke-linejoin="round" d="M3.20067 20.6793c-1.67446 1.9413 -1.67446 4.7012 0 6.6426 1.77106 2.0533 4.50444 5.0587 8.46193 9.0162 3.9575 3.9574 6.9629 6.6908 9.0162 8.4619 1.9413 1.6744 4.7012 1.6744 6.6426 0 2.0533 -1.7711 5.0587 -4.5045 9.0162 -8.4619 3.9575 -3.9575 6.6908 -6.9629 8.4619 -9.0162 1.6745 -1.9414 1.6745 -4.7013 0 -6.6426 -1.7711 -2.0533 -4.5044 -5.0588 -8.4619 -9.0162 -3.9575 -3.95751 -6.9629 -6.69089 -9.0162 -8.46194 -1.9414 -1.67446 -4.7013 -1.67446 -6.6426 0 -2.0533 1.77105 -5.0587 4.50443 -9.0162 8.46194 -3.95749 3.9574 -6.69087 6.9628 -8.46193 9.0162Z" stroke-width="1"></path>
    <g id="Vector_2">
      <path stroke="#000cfe" stroke-linecap="round" stroke-linejoin="round" d="M21.8892 11.2489c-1.2604 0.3168 -1.8417 1.5919 -1.7499 2.8882 0.1907 2.6959 0.5548 7.3786 0.9485 10.0033 0.1297 0.8647 0.6504 1.6086 1.5125 1.754 0.3687 0.0621 0.8302 0.1056 1.3998 0.1056 0.5696 0 1.0311 -0.0435 1.3998 -0.1056 0.8622 -0.1454 1.3828 -0.8893 1.5125 -1.754 0.3937 -2.6247 0.7578 -7.3074 0.9486 -10.0033 0.0917 -1.2963 -0.4896 -2.5714 -1.7499 -2.8882 -0.5732 -0.1441 -1.2769 -0.2489 -2.111 -0.2489 -0.8341 0 -1.5377 0.1048 -2.1109 0.2489Z" stroke-width="1"></path>
      <path stroke="#000cfe" stroke-linecap="round" stroke-linejoin="round" d="M24.0001 37c1.933 0 3.5 -1.567 3.5 -3.5s-1.567 -3.5 -3.5 -3.5 -3.5 1.567 -3.5 3.5 1.567 3.5 3.5 3.5Z" stroke-width="1"></path>
    </g>
  </g>
</svg>