<svg xmlns="http://www.w3.org/2000/svg" fill="none" viewBox="0 0 14 14" id="Islam--Streamline-Core">
  <desc>
    Islam Streamline Icon: https://streamlinehq.com
  </desc>
  <g id="islam--religion-islam-moon-crescent-muslim-culture-star">
    <path id="Union" fill="#fddc5c" fill-rule="evenodd" d="M7 0.5C3.41015 0.5 0.5 3.41015 0.5 7c0 3.5899 2.91015 6.5 6.5 6.5 3.5899 0 6.5 -2.9101 6.5 -6.5C13.5 3.41015 10.5899 0.5 7 0.5Z" clip-rule="evenodd" stroke-width="1"></path>
    <path id="Union_2" fill="#0c098c" fill-rule="evenodd" d="M0.5 7C0.5 3.41015 3.41015 0.5 7 0.5c1.16438 0 2.25866 0.306607 3.2049 0.84384 0.2059 0.11687 0.3015 0.36205 0.2293 0.58745 -0.0723 0.2254 -0.2927 0.36925 -0.52809 0.34466 -0.16412 -0.01714 -0.33088 -0.02595 -0.49986 -0.02595 -2.62335 0 -4.75 2.12665 -4.75 4.75s2.12665 4.75 4.75 4.75c0.16898 0 0.33574 -0.0088 0.49986 -0.0259 0.23539 -0.0246 0.45579 0.1192 0.52809 0.3446 0.0722 0.2254 -0.0234 0.4706 -0.2293 0.5875C9.25866 13.1934 8.16438 13.5 7 13.5 3.41015 13.5 0.5 10.5899 0.5 7Zm9.7788 -3.10498c0.2367 -0.00052 0.4534 0.13275 0.5598 0.34426l0.695 1.38241h1.3413c0.2512 0 0.4779 0.15032 0.5757 0.38164 0.0978 0.23132 0.0476 0.49871 -0.1274 0.67885l-1.0643 1.09565 0.3399 1.58095c0.0516 0.24002 -0.0421 0.48803 -0.2395 0.63396 -0.1974 0.14596 -0.462 0.16276 -0.6764 0.04306l-1.3956 -0.77973 -1.32289 0.77363c-0.21056 0.1231 -0.47352 0.1125 -0.67348 -0.0272 -0.19995 -0.13973 -0.30035 -0.383 -0.25714 -0.62307l0.28656 -1.59197 -1.0737 -1.10528c-0.175 -0.18014 -0.22517 -0.44753 -0.12738 -0.67885 0.09779 -0.23132 0.32453 -0.38164 0.57568 -0.38164h1.33944l0.68615 -1.37994c0.1054 -0.21198 0.32156 -0.34621 0.55826 -0.34673Z" clip-rule="evenodd" stroke-width="1"></path>
  </g>
</svg>