<svg xmlns="http://www.w3.org/2000/svg" fill="none" viewBox="0 0 14 14" id="Yin-Yang-Symbol--Streamline-Core">
  <desc>
    Yin Yang Symbol Streamline Icon: https://streamlinehq.com
  </desc>
  <g id="yin-yang-symbol--religion-tao-yin-yang-taoism-culture-symbol">
    <path id="Vector" fill="#79ee8d" d="M7 13.375c3.5208 0 6.375 -2.8542 6.375 -6.375C13.375 3.47918 10.5208 0.625 7 0.625 3.47918 0.625 0.625 3.47918 0.625 7c0 3.5208 2.85418 6.375 6.375 6.375Z" stroke-width="1"></path>
    <path id="Union" fill="#0c098c" fill-rule="evenodd" d="M7 1.25C3.82436 1.25 1.25 3.82436 1.25 7c0 2.20763 1.24412 4.1247 3.06948 5.0883 -0.35924 -0.5228 -0.56948 -1.156 -0.56948 -1.8383C3.75 8.45507 5.20507 7 7 7s3.25 -1.45507 3.25 -3.25c0 -0.68228 -0.2102 -1.31546 -0.56948 -1.83828C8.88014 1.4892 7.968 1.25 7 1.25ZM0 7c0 -3.86599 3.13401 -7 7 -7 3.866 0 7 3.13401 7 7 0 3.866 -3.134 7 -7 7 -3.86599 0 -7 -3.134 -7 -7Zm7 -4.75c-0.82843 0 -1.5 0.67157 -1.5 1.5s0.67157 1.5 1.5 1.5 1.5 -0.67157 1.5 -1.5 -0.67157 -1.5 -1.5 -1.5Zm0 6.5c-0.82843 0 -1.5 0.67157 -1.5 1.5 0 0.8284 0.67157 1.5 1.5 1.5s1.5 -0.6716 1.5 -1.5c0 -0.82843 -0.67157 -1.5 -1.5 -1.5Z" clip-rule="evenodd" stroke-width="1"></path>
  </g>
</svg>