<svg xmlns="http://www.w3.org/2000/svg" fill="none" viewBox="0 0 14 14" id="Zodiac-7--Streamline-Core">
  <desc>
    Zodiac 7 Streamline Icon: https://streamlinehq.com
  </desc>
  <g id="zodiac-7--sign-astrology-stars-space-ares">
    <path id="Ellipse 1802" fill="#7af1ff" d="M0 7a7 7 0 1 0 14 0A7 7 0 1 0 0 7" stroke-width="1"></path>
    <path id="Vector (Stroke)" fill="#0c098c" fill-rule="evenodd" d="M0.432432 0.738117C0.577082 0.42471 0.94841 0.287904 1.26182 0.432554l-0.261913 0.567476C1.26182 0.432554 1.26219 0.432727 1.26259 0.432911l0.00091 0.000422 0.00223 0.001042 0.00611 0.002874 0.01863 0.008954c0.01524 0.007408 0.03603 0.017717 0.06202 0.031043 0.05196 0.026649 0.12473 0.065387 0.21532 0.11715 0.18111 0.103494 0.43382 0.25927 0.7341 0.474854 0.60035 0.43102 1.39292 1.10263 2.18307 2.07512 0.9648 1.18744 1.91665 2.81233 2.51493 4.97369 0.59828 -2.16136 1.55013 -3.78625 2.51493 -4.97369 0.79016 -0.97249 1.58276 -1.6441 2.18306 -2.07512 0.3003 -0.215584 0.553 -0.37136 0.7341 -0.474854 0.0906 -0.051763 0.1634 -0.090501 0.2153 -0.11715 0.026 -0.013326 0.0468 -0.023635 0.062 -0.031043l0.0187 -0.008954 0.0061 -0.002874 0.0022 -0.001042 0.0009 -0.000422c0.0004 -0.000184 0.0008 -0.000357 0.2627 0.567119L12.738 0.432554c0.3134 -0.14465 0.6847 -0.007844 0.8294 0.305563 0.1444 0.312873 0.0083 0.683463 -0.304 0.828633l-0.0009 0.00045 0 0.00001 -0.0064 0.0031c-0.0075 0.00363 -0.0204 0.01 -0.0384 0.01921 -0.0359 0.01842 -0.092 0.04819 -0.1655 0.09018 -0.147 0.08401 -0.3631 0.21669 -0.6253 0.40495 -0.5246 0.37668 -1.2321 0.9743 -1.9419 1.84796C9.07247 5.67108 7.62491 8.53291 7.62491 13c0 0.3452 -0.27983 0.625 -0.625 0.625 -0.34518 0 -0.625 -0.2798 -0.625 -0.625 0 -4.46709 -1.44757 -7.32892 -2.86007 -9.06739 -0.70985 -0.87366 -1.41729 -1.47128 -1.94194 -1.84796 -0.26222 -0.18826 -0.47826 -0.32094 -0.625268 -0.40495 -0.073477 -0.04199 -0.129615 -0.07176 -0.165541 -0.09018 -0.017959 -0.00921 -0.030855 -0.01558 -0.038328 -0.01921l-0.006403 -0.0031C0.424403 1.42235 0.28788 1.05131 0.432432 0.738117Zm0.30424 0.828773 0.000188 0.00009 0.0005 0.00023 -0.000688 -0.00032Zm0 0L0.736264 1.5667l-0.0001 -0.00005s0.00017 0.00008 0.000508 0.00024Z" clip-rule="evenodd" stroke-width="1"></path>
  </g>
</svg>