<svg xmlns="http://www.w3.org/2000/svg" fill="none" viewBox="0 0 14 14" id="Campfire--Streamline-Flex">
  <desc>
    Campfire Streamline Icon: https://streamlinehq.com
  </desc>
  <g id="campfire--campfire-burn-leisure-outdoor-activity">
    <path id="Union" fill="#2859c5" fill-rule="evenodd" d="M11.7577 9.16158c0.4113 -0.04895 0.7844 0.2448 0.8334 0.65611 0.0489 0.41131 -0.2448 0.78441 -0.6561 0.83341 -0.9116 0.1085 -1.7927 0.2637 -2.65099 0.4639 0.98929 0.4257 1.96109 0.91 2.92759 1.4487 0.3618 0.2017 0.4915 0.6585 0.2898 1.0203s-0.6584 0.4916 -1.0202 0.2899c-1.5043 -0.8386 -3.01161 -1.5338 -4.57504 -2.0728 -1.56343 0.539 -3.07074 1.2342 -4.575 2.0728 -0.36179 0.2017 -0.81859 0.0719 -1.02028 -0.2899 -0.2017 -0.3618 -0.07192 -0.8186 0.28987 -1.0203 0.96646 -0.5387 1.93828 -1.023 2.92756 -1.4487 -0.85828 -0.2002 -1.73936 -0.3554 -2.65097 -0.4639 -0.41131 -0.049 -0.70506 -0.4221 -0.65611 -0.83341 0.04895 -0.41131 0.42207 -0.70506 0.83338 -0.65611 1.70598 0.20303 3.30938 0.56049 4.85155 1.05822 1.54217 -0.49773 3.14554 -0.85519 4.85154 -1.05822Z" clip-rule="evenodd" stroke-width="1"></path>
    <path id="Subtract" fill="#8fbffa" d="M2.49251 5.15052c-0.0116 -0.53501 0.10148 -1.06353 0.32698 -1.5282 0.12784 -0.26344 0.28905 -0.50065 0.4771 -0.70404 0.21749 -0.23523 0.58077 -0.11678 0.73402 0.16455 0.19142 0.35141 0.42729 0.66791 0.70032 0.93807 0 0 0.73623 -3.7709 2.26894 -3.7709 1.5327 0 2.26894 3.77094 2.26894 3.77094 0.27302 -0.27017 0.50889 -0.58667 0.70031 -0.93808 0.15328 -0.28133 0.51658 -0.39978 0.73398 -0.16455 0.1881 0.20339 0.3493 0.4406 0.4771 0.70404 0.2255 0.46467 0.3386 0.9932 0.327 1.5282 -0.1613 4.69048 -8.85339 4.6904 -9.01469 -0.00003Z" stroke-width="1"></path>
  </g>
</svg>