<svg xmlns="http://www.w3.org/2000/svg" fill="none" viewBox="0 0 14 14" id="Location-Pin-Medical-Hospital-2--Streamline-Flex">
  <desc>
    Location Pin Medical Hospital 2 Streamline Icon: https://streamlinehq.com
  </desc>
  <g id="location-pin-medical-hospital-2">
    <path id="Union" fill="#8fbffa" fill-rule="evenodd" d="M6.93722 0C3.80576 0 1.23714 2.5168 1.0172 5.72468c-0.102785 1.49922 0.21676 3.08733 1.15424 4.36982 1.05391 1.4418 2.1306 2.4316 3.78024 3.576 0.63337 0.4393 1.46296 0.4393 2.09633 0 1.64964 -1.1444 2.72629 -2.1342 3.78029 -3.576 0.9374 -1.28249 1.257 -2.8706 1.1542 -4.36982C12.7626 2.5168 10.1939 0 7.06247 0h-0.12525Z" clip-rule="evenodd" stroke-width="1"></path>
    <path id="Union_2" fill="#2859c5" fill-rule="evenodd" d="M6.25 4.07166c0 -0.41422 -0.33579 -0.75 -0.75 -0.75s-0.75 0.33578 -0.75 0.75v4.5c0 0.41421 0.33579 0.75 0.75 0.75s0.75 -0.33579 0.75 -0.75V6.8191c0.50123 -0.03164 0.99877 -0.03164 1.5 0v1.75256c0 0.41421 0.33579 0.75 0.75 0.75s0.75 -0.33579 0.75 -0.75v-4.5c0 -0.41422 -0.33579 -0.75 -0.75 -0.75s-0.75 0.33578 -0.75 0.75v1.24479c-0.50082 -0.02811 -0.99918 -0.02811 -1.5 0V4.07166Z" clip-rule="evenodd" stroke-width="1"></path>
  </g>
</svg>