<svg xmlns="http://www.w3.org/2000/svg" fill="none" viewBox="0 0 14 14" id="Smoking-Area--Streamline-Flex">
  <desc>
    Smoking Area Streamline Icon: https://streamlinehq.com
  </desc>
  <g id="smoking-area">
    <path id="Union" fill="#2859c5" fill-rule="evenodd" d="M6.277 1.204a0.75 0.75 0 0 0 -1.46 -0.346l-0.182 0.77a0.987 0.987 0 0 1 -0.961 0.76 2.487 2.487 0 0 0 -2.417 1.898l-0.177 0.728a0.75 0.75 0 1 0 1.457 0.355l0.178 -0.728a0.987 0.987 0 0 1 0.959 -0.754 2.487 2.487 0 0 0 2.42 -1.912l0.183 -0.77Zm3.012 0.54A0.75 0.75 0 1 0 7.91 1.15L6.817 3.687a1.25 1.25 0 0 1 -1.148 0.754h-0.558a0.75 0.75 0 0 0 0 1.5h0.558a2.75 2.75 0 0 0 2.525 -1.66L9.29 1.745Z" clip-rule="evenodd" stroke-width="1"></path>
    <path id="Union_2" fill="#8fbffa" fill-rule="evenodd" d="M1.695 8.377a0.75 0.75 0 0 0 -1.491 -0.161c-0.016 0.145 -0.037 0.308 -0.06 0.482 -0.063 0.467 -0.136 1.017 -0.136 1.55 0 0.532 0.073 1.082 0.135 1.55 0.024 0.173 0.045 0.336 0.061 0.481a0.75 0.75 0 0 0 1.491 -0.16 24.181 24.181 0 0 0 -0.078 -0.627c-0.057 -0.427 -0.11 -0.817 -0.11 -1.244 0 -0.428 0.053 -0.817 0.11 -1.244 0.027 -0.199 0.054 -0.405 0.078 -0.627Zm1.525 0.696c0.237 -0.738 0.93 -1.321 1.77 -1.321h6.952c0.84 0 1.533 0.583 1.77 1.321l-0.714 0.23 0.714 -0.23c0.1 0.31 0.19 0.657 0.19 1.174 0 0.518 -0.09 0.865 -0.19 1.175 -0.237 0.737 -0.93 1.32 -1.77 1.32H4.99c-0.84 0 -1.533 -0.583 -1.77 -1.32 -0.1 -0.31 -0.19 -0.657 -0.19 -1.175 0 -0.517 0.09 -0.864 0.19 -1.174Z" clip-rule="evenodd" stroke-width="1"></path>
  </g>
</svg>