<svg xmlns="http://www.w3.org/2000/svg" fill="none" viewBox="0 0 14 14" id="Toilet-Man-Woman-1--Streamline-Flex">
  <desc>
    Toilet Man Woman 1 Streamline Icon: https://streamlinehq.com
  </desc>
  <g id="toilet-man-woman-1--travel-wayfinder-toilet-man-women">
    <path id="Union" fill="#8fbffa" fill-rule="evenodd" d="M3.176 4.245c1.36 0 2.125 -0.764 2.125 -2.122C5.301 0.764 4.536 0 3.176 0c-1.36 0 -2.125 0.764 -2.125 2.123 0 1.358 0.765 2.122 2.125 2.122ZM3.171 5a2.694 2.694 0 0 0 -2.64 3.236l0.894 4.341a1.783 1.783 0 0 0 3.493 0l0.894 -4.341A2.694 2.694 0 0 0 3.172 5Zm7.046 0.01c-0.655 0 -1.182 0.207 -1.61 0.56 -0.423 0.347 -0.738 0.827 -0.992 1.358 -0.368 0.768 -0.598 1.743 -0.7 2.636 -0.08 0.715 0.507 1.275 1.19 1.275h0.138l0.277 1.718a1.717 1.717 0 0 0 3.39 0l0.278 -1.718h0.141c0.683 0 1.27 -0.56 1.19 -1.275 -0.102 -0.893 -0.332 -1.868 -0.7 -2.636 -0.254 -0.531 -0.569 -1.01 -0.992 -1.359 -0.428 -0.352 -0.955 -0.56 -1.61 -0.56Zm2.132 -2.887c0 1.358 -0.765 2.122 -2.124 2.122 -1.36 0 -2.125 -0.764 -2.125 -2.122C8.1 0.764 8.865 0 10.225 0c1.36 0 2.124 0.764 2.124 2.123Z" clip-rule="evenodd" stroke-width="1"></path>
  </g>
</svg>