<svg xmlns="http://www.w3.org/2000/svg" fill="none" viewBox="0 0 24 24" id="Google-Podcast-Logo--Streamline-Logos-Block">
  <desc>
    Google Podcast Logo Streamline Icon: https://streamlinehq.com
  </desc>
  <path fill="#000000" fill-rule="evenodd" d="M5 1a4 4 0 0 0 -4 4v14a4 4 0 0 0 4 4h14a4 4 0 0 0 4 -4V5a4 4 0 0 0 -4 -4H5Zm7 3a1.09 1.09 0 0 0 -1.09 1.09v1.092a1.09 1.09 0 1 0 2.18 0V5.09A1.09 1.09 0 0 0 12 4Zm2.546 4a1.09 1.09 0 1 1 2.181 0v1.09a1.09 1.09 0 1 1 -2.181 0V8Zm-6.182 -0.727a1.09 1.09 0 0 0 -1.091 1.09v3.273a1.09 1.09 0 1 0 2.182 0V8.364a1.09 1.09 0 0 0 -1.091 -1.091ZM12 8.363a1.09 1.09 0 0 0 -1.09 1.092v5.09a1.09 1.09 0 0 0 2.18 0v-5.09A1.09 1.09 0 0 0 12 8.364Zm-8 3.091a1.091 1.091 0 0 1 2.182 0v1.091a1.091 1.091 0 0 1 -2.182 0v-1.09Zm3.273 3.455a1.09 1.09 0 1 1 2.182 0V16a1.09 1.09 0 1 1 -2.182 0v-1.09Zm3.636 2.91a1.09 1.09 0 1 1 2.182 0v1.09a1.09 1.09 0 1 1 -2.182 0v-1.09Zm8 -7.455a1.09 1.09 0 0 0 -1.09 1.09v1.091a1.09 1.09 0 0 0 2.181 0v-1.09a1.09 1.09 0 0 0 -1.09 -1.091Zm-3.273 0.909a1.09 1.09 0 0 0 -1.09 1.09v3.273a1.09 1.09 0 1 0 2.181 0v-3.272a1.09 1.09 0 0 0 -1.09 -1.091Z" clip-rule="evenodd" stroke-width="1"></path>
</svg>