<svg xmlns="http://www.w3.org/2000/svg" fill="none" viewBox="0 0 24 24" id="Grooveshark-Logo--Streamline-Logos-Block">
  <desc>
    Grooveshark Logo Streamline Icon: https://streamlinehq.com
  </desc>
  <path fill="#000000" fill-rule="evenodd" d="M5 1a4 4 0 0 0 -4 4v14a4 4 0 0 0 4 4h14a4 4 0 0 0 4 -4V5a4 4 0 0 0 -4 -4H5Zm14.5 11a7.5 7.5 0 1 1 -15 0 7.5 7.5 0 0 1 15 0ZM12 6.545A5.455 5.455 0 0 0 6.545 12c0 0.466 0.335 1.53 1.657 1.196 1.322 -0.333 1.874 -2.891 1.767 -4.618 2.041 0.408 3.075 1.856 3.96 3.095 0.768 1.076 1.425 1.995 2.532 1.938 0.61 -0.032 0.97 -1.06 0.994 -1.611A5.454 5.454 0 0 0 12 6.545Z" clip-rule="evenodd" stroke-width="1"></path>
</svg>