<svg xmlns="http://www.w3.org/2000/svg" fill="none" viewBox="0 0 24 24" id="Playerfm-Logo--Streamline-Logos-Block">
  <desc>
    Playerfm Logo Streamline Icon: https://streamlinehq.com
  </desc>
  <path fill="#000000" fill-rule="evenodd" d="M5 1a4 4 0 0 0 -4 4v14a4 4 0 0 0 4 4h14a4 4 0 0 0 4 -4V5a4 4 0 0 0 -4 -4H5Zm8.553 3.595a8.413 8.413 0 0 1 3.712 2.144 8.413 8.413 0 0 1 2.214 4.002c0.086 0.402 -0.089 0.832 -0.537 0.907 -0.452 0.075 -0.734 -0.323 -0.798 -0.622a6.69 6.69 0 0 0 -0.33 -1.028A7.05 7.05 0 0 0 16.3 7.704a7.05 7.05 0 0 0 -3.322 -1.844c-0.378 -0.08 -0.693 -0.371 -0.622 -0.798 0.066 -0.392 0.448 -0.623 0.824 -0.554 0.061 0.012 0.19 0.038 0.373 0.087Zm-0.445 2.158a6.699 6.699 0 0 1 0.843 0.316c0.515 0.234 1.19 0.617 1.779 1.205 0.588 0.589 0.97 1.264 1.204 1.778a6.727 6.727 0 0 1 0.317 0.844c0.11 0.385 -0.057 0.807 -0.474 0.911 -0.398 0.1 -0.731 -0.165 -0.838 -0.534a5.32 5.32 0 0 0 -0.247 -0.656c-0.193 -0.424 -0.492 -0.943 -0.927 -1.378 -0.435 -0.435 -0.955 -0.735 -1.378 -0.927a5.326 5.326 0 0 0 -0.515 -0.203c-0.399 -0.133 -0.802 -0.374 -0.675 -0.882 0.103 -0.412 0.532 -0.583 0.911 -0.474Zm0.016 2.315c0.076 0.04 0.181 0.1 0.3 0.17 0.22 0.133 0.537 0.339 0.77 0.572 0.233 0.233 0.439 0.55 0.572 0.77 0.07 0.118 0.13 0.224 0.17 0.3 0.196 0.363 0.19 0.832 -0.237 1.046 -0.408 0.204 -0.774 -0.046 -0.964 -0.399a6.079 6.079 0 0 0 -0.14 -0.244 2.907 2.907 0 0 0 -0.366 -0.508 2.91 2.91 0 0 0 -0.508 -0.367 5.958 5.958 0 0 0 -0.244 -0.139c-0.353 -0.19 -0.604 -0.556 -0.4 -0.964 0.21 -0.42 0.685 -0.432 1.047 -0.237ZM11.28 7.053a1.365 1.365 0 0 1 -0.981 1.662 4.094 4.094 0 1 0 4.99 4.99 1.365 1.365 0 1 1 2.643 0.68A6.824 6.824 0 1 1 9.62 6.072a1.365 1.365 0 0 1 1.662 0.981Z" clip-rule="evenodd" stroke-width="1"></path>
</svg>