<svg xmlns="http://www.w3.org/2000/svg" fill="none" viewBox="0 0 24 24" id="Rdio-Logo--Streamline-Logos-Block">
  <desc>
    Rdio Logo Streamline Icon: https://streamlinehq.com
  </desc>
  <path fill="#000000" fill-rule="evenodd" d="M5 1a4 4 0 0 0 -4 4v14a4 4 0 0 0 4 4h14a4 4 0 0 0 4 -4V5a4 4 0 0 0 -4 -4H5Zm14.968 8.152c-0.372 0.798 -1.106 1.837 -2.118 1.837 0.128 2.564 -1.077 7.694 -6.925 7.694C6.693 18.683 4 15.22 4 12.143c0 -3.078 2.308 -6.826 6.925 -6.826 0.758 0 1.54 0.285 1.54 0.285v3.592c-1.03 -0.346 -2.617 -0.318 -3.848 0.913 -0.937 0.937 -1.502 2.766 0 3.976 2.308 1.86 5.77 -0.642 5.77 -1.94V5.987c0.947 0.828 3.225 2.42 5.264 2.662 0.249 0.03 0.423 0.276 0.317 0.503Z" clip-rule="evenodd" stroke-width="1"></path>
</svg>