<svg xmlns="http://www.w3.org/2000/svg" fill="none" viewBox="0 0 24 24" id="Spotify-Logo--Streamline-Logos-Block">
  <desc>
    Spotify Logo Streamline Icon: https://streamlinehq.com
  </desc>
  <path fill="#000000" fill-rule="evenodd" d="M5 1a4 4 0 0 0 -4 4v14a4 4 0 0 0 4 4h14a4 4 0 0 0 4 -4V5a4 4 0 0 0 -4 -4H5Zm14.5 11a7.5 7.5 0 1 1 -15 0 7.5 7.5 0 0 1 15 0Zm-7.798 -2.331c-1.564 -0.048 -2.987 0.178 -3.797 0.394a0.682 0.682 0 1 1 -0.351 -1.318c0.932 -0.248 2.487 -0.492 4.19 -0.439 1.698 0.053 3.61 0.401 5.201 1.4a0.682 0.682 0 1 1 -0.724 1.155c-1.308 -0.82 -2.95 -1.143 -4.52 -1.192ZM8.29 12.734c0.626 -0.19 1.76 -0.391 3.047 -0.346 1.286 0.046 2.673 0.337 3.851 1.084a0.682 0.682 0 1 0 0.73 -1.152c-1.446 -0.916 -3.093 -1.243 -4.532 -1.294 -1.44 -0.051 -2.723 0.17 -3.49 0.403a0.682 0.682 0 0 0 0.394 1.305Zm3.058 2.192a10.48 10.48 0 0 0 -2.854 0.259 0.682 0.682 0 1 1 -0.331 -1.323c0.744 -0.186 1.96 -0.36 3.251 -0.298 1.28 0.062 2.726 0.361 3.844 1.21a0.682 0.682 0 0 1 -0.825 1.086c-0.803 -0.61 -1.93 -0.878 -3.085 -0.934Z" clip-rule="evenodd" stroke-width="1"></path>
</svg>