<svg xmlns="http://www.w3.org/2000/svg" fill="none" viewBox="0 0 24 24" id="Tidal-Logo--Streamline-Logos-Block">
  <desc>
    Tidal Logo Streamline Icon: https://streamlinehq.com
  </desc>
  <path fill="#000000" fill-rule="evenodd" d="M5 1a4 4 0 0 0 -4 4v14a4 4 0 0 0 4 4h14a4 4 0 0 0 4 -4V5a4 4 0 0 0 -4 -4H5ZM4 9.833l2.667 -2.667 2.666 2.667L6.667 12.5 4 9.833Zm10.667 0L12 7.166 9.333 9.834 12 12.5l-2.667 2.666L12 17.834l2.667 -2.666L12 12.5l2.667 -2.667Zm0 0 2.666 -2.667L20 9.834 17.333 12.5l-2.666 -2.667Z" clip-rule="evenodd" stroke-width="1"></path>
</svg>