<svg xmlns="http://www.w3.org/2000/svg" fill="none" viewBox="0 0 24 24" id="Desktop-Screensaver-Sleep--Streamline-Sharp">
  <desc>
    Desktop Screensaver Sleep Streamline Icon: https://streamlinehq.com
  </desc>
  <g id="desktop-screensaver-sleep--desktop-screensaver-sleep-device-display-computer">
    <path id="Subtract" fill="#ff7972" fill-rule="evenodd" d="M11.2104 4.25H1.5v14h20v-5.8284c-0.89 0.3725 -1.8673 0.5784 -2.8933 0.5784 -4.1421 0 -7.5 -3.35786 -7.5 -7.5 0 -0.42589 0.0355 -0.84349 0.1037 -1.25Z" clip-rule="evenodd" stroke-width="1"></path>
    <path id="Union" fill="#0c098c" fill-rule="evenodd" d="M13.1067 5.5c0 3.03757 2.4624 5.5 5.5 5.5 2.3499 0 4.3556 -1.47367 5.1433 -3.54724 -0.0841 0.00567 -0.1689 0.00855 -0.2544 0.00855 -2.0604 0 -3.7307 -1.67027 -3.7307 -3.73066 0 -1.24334 0.6082 -2.34462 1.5434 -3.02253C20.5104 0.257287 19.5886 0 18.6067 0c-3.0376 0 -5.5 2.46243 -5.5 5.5Zm9.6433 6.2525V19.5h-10v2h3.75V24h-10v-2.5h3.75v-2h-10V3h11.2835c-0.2764 0.78195 -0.4268 1.62341 -0.4268 2.5H2.75V17h17.5v-4.1806c0.9064 -0.2026 1.7506 -0.5692 2.5 -1.0669Z" clip-rule="evenodd" stroke-width="1"></path>
  </g>
</svg>