<svg xmlns="http://www.w3.org/2000/svg" fill="none" viewBox="0 0 14 14" id="Inbox--Streamline-Flex-Remix">
  <desc>
    Inbox Streamline Icon: https://streamlinehq.com
  </desc>
  <g id="inbox--mail-email-outbox-drawer-empty-open-inbox">
    <path id="Union" fill="#000000" fill-rule="evenodd" d="M3.89696 1.70785C4.92355 1.59405 5.95548 1.5 7 1.5s2.07645 0.09405 3.103 0.20785c1.1498 0.12745 2.0781 1.05728 2.2001 2.20481C12.4116 4.93277 12.5 5.95999 12.5 7c0 0.31949 -0.0083 0.63778 -0.023 0.95502 -0.1067 -0.0072 -0.2158 -0.01536 -0.3266 -0.02365 -1.2987 -0.09715 -2.83267 -0.21189 -3.4228 0.99421 -0.25826 0.52782 -0.77543 1.01448 -1.72912 1.01448 -0.95368 0 -1.47086 -0.48666 -1.72911 -1.01448 -0.59014 -1.2061 -2.12408 -1.09136 -3.42277 -0.99421 -0.10977 0.00821 -0.21787 0.01629 -0.32357 0.02344C1.50834 7.63764 1.5 7.31942 1.5 7c0 -1.04001 0.08837 -2.06723 0.19686 -3.08734 0.12204 -1.14753 1.05036 -2.07736 2.2001 -2.20481ZM7 0.25c-1.1153 0 -2.20242 0.100353 -3.24076 0.215458C2.02888 0.657275 0.638277 2.04651 0.45387 3.78047 0.344012 4.81345 0.25 5.8929 0.25 7c0 1.10709 0.094012 2.18655 0.20387 3.2195 0.184407 1.734 1.57501 3.1232 3.30537 3.315C4.79758 13.6496 5.8847 13.75 7 13.75s2.20242 -0.1004 3.2408 -0.2155c1.7303 -0.1918 3.1209 -1.581 3.3053 -3.315C13.656 9.18655 13.75 8.10709 13.75 7c0 -1.1071 -0.094 -2.18655 -0.2039 -3.21953 -0.1844 -1.73396 -1.575 -3.123195 -3.3053 -3.315012C9.20242 0.350353 8.1153 0.25 7 0.25Z" clip-rule="evenodd" stroke-width="1"></path>
  </g>
</svg>