<svg xmlns="http://www.w3.org/2000/svg" fill="none" viewBox="0 0 14 14" id="Inbox-Favorite--Streamline-Flex-Remix">
  <desc>
    Inbox Favorite Streamline Icon: https://streamlinehq.com
  </desc>
  <g id="inbox-favorite--mail-envelope-email-message-star-favorite-important-bookmark">
    <path id="Union" fill="#000000" fill-rule="evenodd" d="M6.25 0C5.21874 0 4.21449 0.0748692 3.25255 0.1618l-0.00294 0.000273c-0.74886 0.071236 -1.46145 0.355029 -2.01742 0.822339C0.674597 1.45309 0.30177 2.0853 0.205586 2.7873l-0.000323 0.00239C0.0963526 3.60801 0 4.47307 0 5.365c0 0.89193 0.0963526 1.75698 0.205263 2.57531l0.000323 0.00239c0.096184 0.70199 0.469011 1.33421 1.026604 1.80289 0.55597 0.46731 1.26856 0.75111 2.01742 0.82231l0.00294 0.0003c0.61222 0.0553 1.2413 0.1057 1.88238 0.1351 0.34481 0.0157 0.63714 -0.251 0.65292 -0.5958 0.01578 -0.34484 -0.25096 -0.63716 -0.59578 -0.65294 -0.61368 -0.02808 -1.22131 -0.07656 -1.82542 -0.13114 -0.51685 -0.04943 -0.98423 -0.24394 -1.33017 -0.53471 -0.34426 -0.28937 -0.54209 -0.65024 -0.59231 -1.01459C1.33715 6.96991 1.25 6.17146 1.25 5.365c0 -0.80646 0.08715 -1.6049 0.19416 -2.40911 0.01404 -0.10183 0.03961 -0.2034 0.07668 -0.30321 1.02445 0.92393 2.09133 1.78885 3.23362 2.57622 0.93989 0.64786 2.17603 0.64785 3.11591 -0.00002 1.10672 -0.76286 2.14263 -1.59851 3.13783 -2.49009 0.0217 0.0719 0.0376 0.14447 0.0476 0.21718 0.1071 0.80418 0.1942 1.6026 0.1942 2.40903 0 0.12658 -0.0022 0.25312 -0.0062 0.37967 -0.0111 0.345 0.2597 0.63363 0.6047 0.64468 0.345 0.01104 0.6336 -0.25968 0.6447 -0.60468 0.0044 -0.13902 0.0068 -0.27893 0.0068 -0.41967 0 -0.89193 -0.0964 -1.75699 -0.2053 -2.57532l-0.0003 -0.00238c-0.0962 -0.702 -0.469 -1.33421 -1.0266 -1.802888 -0.556 -0.46731 -1.26855 -0.751103 -2.01741 -0.822346L9.24745 0.1618C8.28551 0.0748692 7.28126 0 6.25 0Zm5.7554 8.70138c-0.0225 -0.00077 -0.045 -0.00142 -0.0675 -0.00194 -0.1162 -0.36305 -0.2661 -0.70236 -0.4571 -1.02444 -0.2132 -0.35952 -0.5571 -0.5609 -0.9168 -0.60429 -0.1005 -0.01213 -0.2022 -0.01192 -0.3027 0.00062 -0.35781 0.04465 -0.69947 0.2457 -0.91177 0.60301 -0.19143 0.32217 -0.34178 0.66168 -0.45826 1.02509 -0.1804 0.00424 -0.35845 0.01613 -0.53492 0.03621 -0.17647 0.02008 -0.35135 0.04833 -0.52541 0.0853 -0.92719 0.19689 -1.33364 1.30386 -0.6855 2.03776 0.24247 0.2745 0.51397 0.516 0.81934 0.7321 -0.09764 0.3316 -0.16394 0.6632 -0.20065 1.0002 -0.07855 0.7208 0.43847 1.3213 1.08816 1.4 0.09171 0.0112 0.18607 0.0119 0.28176 0.0011 0.12661 -0.0143 0.25558 -0.0487 0.38387 -0.106 0.31471 -0.1404 0.61108 -0.3127 0.89598 -0.5198 0.2852 0.2073 0.5822 0.3797 0.8974 0.5202 0.179 0.0797 0.3594 0.1151 0.5328 0.1133 0.7102 -0.0074 1.3047 -0.6394 1.2209 -1.4088 -0.0368 -0.337 -0.1031 -0.6686 -0.2007 -1.0002 0.3054 -0.2161 0.5769 -0.4576 0.8194 -0.7321 0.6481 -0.7339 0.2416 -1.84087 -0.6856 -2.03776 -0.1523 -0.03235 -0.3052 -0.05802 -0.4593 -0.07738 -0.1761 -0.02213 -0.3536 -0.03601 -0.5334 -0.04218Z" clip-rule="evenodd" stroke-width="1"></path>
  </g>
</svg>