<svg xmlns="http://www.w3.org/2000/svg" viewBox="0 0 14 14">
  <g>
    <path d="M0,13a1,1,0,0,0,1,1H11a1,1,0,0,0,1-1V11.5a.25.25,0,0,0-.25-.25H.25A.25.25,0,0,0,0,11.5Z" style="fill: #000001"/>
    <path d="M13.25,6.75h-1A.25.25,0,0,1,12,6.5V6a1,1,0,0,0-1-1h-.75A.25.25,0,0,1,10,4.75V4.12A2.25,2.25,0,0,0,8.75,0H3.25A2.25,2.25,0,0,0,2,4.12v.63A.25.25,0,0,1,1.75,5H1A1,1,0,0,0,0,6V9.5a.25.25,0,0,0,.25.25h11.5A.25.25,0,0,0,12,9.5v-1a.25.25,0,0,1,.25-.25h1a.75.75,0,0,0,0-1.5ZM3,3A.75.75,0,0,1,3.25,1.5h5.5A.75.75,0,0,1,9,3a.74.74,0,0,0-.5.7V4.75A.25.25,0,0,1,8.25,5H3.75a.25.25,0,0,1-.25-.25V3.66A.74.74,0,0,0,3,3Z" style="fill: #000001"/>
  </g>
</svg>
