<svg xmlns="http://www.w3.org/2000/svg" fill="none" viewBox="0 0 14 14"><g id="definition-search-book"><path id="Union" fill="#3e3e3e" fill-rule="evenodd" d="M.5.125a.5.5 0 0 0-.5.5v10a.5.5 0 0 0 .5.5h4.756A4.492 4.492 0 0 1 5 9.625c0-1.271.527-2.42 1.375-3.238v-4.96A2 2 0 0 0 4.5.126h-4Zm7.125 1.303v4.105a4.5 4.5 0 0 1 6.347 3.584H14V.625a.5.5 0 0 0-.5-.5h-4a2 2 0 0 0-1.875 1.303ZM9.5 7.875a1.75 1.75 0 1 0 0 3.5 1.75 1.75 0 0 0 0-3.5Zm-3.25 1.75a3.25 3.25 0 1 1 6.017 1.706l1.263 1.263a.75.75 0 0 1-1.06 1.061l-1.264-1.263A3.25 3.25 0 0 1 6.25 9.625Z" clip-rule="evenodd"></path></g></svg>