<svg xmlns="http://www.w3.org/2000/svg" fill="none" viewBox="0 0 14 14"><g id="strategy-tasks--strategy-tasks-work"><path id="Union" fill="#3e3e3e" fill-rule="evenodd" d="M5.5 0a1 1 0 0 0-1 1v.506a1 1 0 0 0 1 .994h3a1 1 0 0 0 1-1V1a1 1 0 0 0-1-1h-3Zm-2 1H3a1.5 1.5 0 0 0-1.5 1.5v10A1.5 1.5 0 0 0 3 14h8a1.5 1.5 0 0 0 1.5-1.5v-10A1.5 1.5 0 0 0 11 1h-.5v.5a2 2 0 0 1-2 2h-3a2 2 0 0 1-2-2V1Zm1.037 5.569a.76.76 0 1 1 1.518 0 .76.76 0 0 1-1.518 0Zm.759-2.01a2.01 2.01 0 1 0 0 4.02 2.01 2.01 0 0 0 0-4.02Zm5.1 4.332a.625.625 0 0 1 0 .884l-.81.809.808.807a.625.625 0 1 1-.884.884l-.807-.808-.807.808a.625.625 0 1 1-.884-.884l.807-.807-.809-.81a.625.625 0 1 1 .884-.883l.809.809.809-.81a.625.625 0 0 1 .884 0Z" clip-rule="evenodd"></path></g></svg>