<svg xmlns="http://www.w3.org/2000/svg" fill="none" viewBox="0 0 14 14" id="Tickets--Streamline-Flex">
  <desc>
    Tickets Streamline Icon: https://streamlinehq.com
  </desc>
  <g id="tickets--hobby-ticket-event-entertainment-stub-theater-entertainment">
    <path id="Subtract (Stroke)" fill="#7af1ff" d="M8.63365 0c0.67508 0 1.22143 0.305658 1.69835 0.782538l0.0768 0.076854c0.4937 0.493658 0.2763 1.184338 -0.0458 1.506448 -0.3511 0.35103 -0.3511 0.92017 0 1.2712 0.351 0.35103 0.9201 0.35103 1.2711 0 0.3222 -0.32211 1.0128 -0.53952 1.5065 -0.04587l0.0769 0.07687c0.4768 0.47688 0.7825 1.02323 0.7825 1.69832 0 0.63457 -0.2728 1.27878 -0.69 1.96252 -0.0068 0.01114 -0.014 0.02207 -0.0214 0.03277l-0.3216 0.46015c-1.4 2.00357 -3.14157 3.7452 -5.14513 5.1452l-0.46022 0.3216c-0.0107 0.0074 -0.02162 0.0146 -0.03276 0.0214 -0.68372 0.4172 -1.32793 0.69 -1.96251 0.69 -0.67508 0 -1.22146 -0.3057 -1.69834 -0.7825l-0.07682 -0.0769c-0.4937 -0.4937 -0.27623 -1.1844 0.04589 -1.5065 0.35103 -0.3511 0.35103 -0.9202 0 -1.2712 -0.35103 -0.3511 -0.92017 -0.3511 -1.2712 0 -0.32212 0.3221 -1.01287 0.5396 -1.50657 0.0459l-0.076802 -0.0768C0.305651 9.85508 0 9.30871 0 8.63362c0 -0.63457 0.272819 -1.27879 0.690027 -1.96251 0.006797 -0.01114 0.013939 -0.02206 0.021414 -0.03276l0.321619 -0.46028c1.39998 -2.00352 3.14156 -3.74509 5.14508 -5.14506l0.46021 -0.32157c0.0107 -0.007477 0.02163 -0.014621 0.03278 -0.02142C7.35486 0.27282 7.99908 0 8.63365 0Z" stroke-width="1"></path>
    <path id="Subtract (Stroke)_2" fill="#0c098c" fill-rule="evenodd" d="m7.34528 1.758 -0.44384 0.31013c-1.8821 1.31513 -3.51812 2.95115 -4.83326 4.83324l-0.31019 0.44392c-0.37182 0.61273 -0.4952 1.0083 -0.4952 1.28833 0 0.22065 0.0771 0.44251 0.33316 0.72242 0.84928 -0.72838 2.12976 -0.69041 2.93408 0.11391 0.80433 0.80435 0.8423 2.08485 0.11393 2.93405 0.2799 0.2561 0.50177 0.3332 0.72242 0.3332 0.28003 0 0.67561 -0.1234 1.28833 -0.4952l0.44387 -0.3101c1.88213 -1.3152 3.51822 -2.95125 4.83332 -4.83339l0.3101 -0.44379c0.3718 -0.61276 0.4952 -1.00834 0.4952 -1.28836 0 -0.22064 -0.0771 -0.44249 -0.3332 -0.72241 -0.8493 0.72831 -2.1297 0.69032 -2.93398 -0.11399 -0.8043 -0.8043 -0.84229 -2.08472 -0.11398 -2.93401 -0.27991 -0.25607 -0.50176 -0.33316 -0.72239 -0.33316 -0.28003 0 -0.6756 0.12338 -1.28837 0.49521ZM8.63365 0c0.67508 -6.02e-8 1.22143 0.305658 1.69835 0.782538l0.0768 0.076854c0.4937 0.493658 0.2763 1.184338 -0.0458 1.506448 -0.3511 0.35103 -0.3511 0.92017 0 1.2712 0.351 0.35103 0.9201 0.35103 1.2711 0 0.3222 -0.32211 1.0128 -0.53952 1.5065 -0.04587l0.0769 0.07687c0.4768 0.47688 0.7825 1.02323 0.7825 1.69832 0 0.63457 -0.2728 1.27878 -0.69 1.96252 -0.0068 0.01114 -0.014 0.02207 -0.0214 0.03277l-0.3216 0.46015c-1.4 2.00357 -3.14157 3.7452 -5.14513 5.1452l-0.46022 0.3216c-0.0107 0.0074 -0.02162 0.0146 -0.03276 0.0214 -0.68372 0.4172 -1.32793 0.69 -1.96251 0.69 -0.67508 0 -1.22146 -0.3057 -1.69834 -0.7825l-0.07682 -0.0769c-0.4937 -0.4937 -0.27623 -1.1844 0.04589 -1.5065 0.35103 -0.3511 0.35103 -0.9202 0 -1.2712 -0.35103 -0.3511 -0.92017 -0.3511 -1.2712 0 -0.32212 0.3221 -1.01287 0.5396 -1.50657 0.0459l-0.076802 -0.0768C0.305651 9.85508 -6.02e-8 9.30871 0 8.63362c0 -0.63457 0.272819 -1.27879 0.690027 -1.96251 0.006797 -0.01114 0.013939 -0.02206 0.021414 -0.03276l0.321619 -0.46028c1.39998 -2.00352 3.14156 -3.74509 5.14508 -5.14506l0.46021 -0.32157c0.0107 -0.007477 0.02163 -0.014621 0.03278 -0.02142C7.35486 0.27282 7.99908 6.02e-8 8.63365 0Z" clip-rule="evenodd" stroke-width="1"></path>
  </g>
</svg>