<svg xmlns="http://www.w3.org/2000/svg" fill="none" viewBox="0 0 14 14" id="Airport-Security--Streamline-Core">
  <desc>
    Airport Security Streamline Icon: https://streamlinehq.com
  </desc>
  <g id="airport-security">
    <path id="Vector" stroke="#000000" stroke-linecap="round" stroke-linejoin="round" d="M7.36019 13.433c-0.23155 0.0893 -0.48806 0.0893 -0.71961 0 -1.80675 -0.6937 -3.36058 -1.9191 -4.45624 -3.51438C1.08868 8.32331 0.502736 6.43316 0.503908 4.49783V1.49946c0 -0.26507 0.1053 -0.519291 0.292735 -0.706725C0.984077 0.6053 1.23829 0.5 1.50337 0.5H12.4974c0.2651 0 0.5193 0.1053 0.7067 0.292735 0.1875 0.187434 0.2928 0.441655 0.2928 0.706725v2.99837c0.0011 1.93533 -0.5848 3.82548 -1.6805 5.42079 -1.0956 1.59528 -2.64946 2.82068 -4.45621 3.51438Z" stroke-width="1"></path>
    <path id="Vector_2" stroke="#000000" stroke-linecap="round" stroke-linejoin="round" d="m3.05879 4.54911 0.82646 -0.28099c0.06803 -0.02764 0.14418 -0.02754 0.21214 0.00026 0.06796 0.0278 0.12234 0.08111 0.1515 0.1485l0.60331 0.93389 3.30582 -1.65291c0.2571 -0.14739 0.543 -0.23751 0.83815 -0.2642 0.29515 -0.02669 0.59258 0.01068 0.87195 0.10956 0.27938 0.09887 0.53408 0.25693 0.74678 0.46334 0.2126 0.20642 0.3782 0.45633 0.4853 0.73264 0.0217 0.07054 0.0293 0.14467 0.0224 0.21816 -0.007 0.07348 -0.0283 0.14488 -0.0628 0.21012 -0.0346 0.06523 -0.0816 0.12302 -0.1385 0.17007 -0.0569 0.04705 -0.1225 0.08243 -0.193 0.10413l-1.93831 0.56922 -0.21488 0.06612 -0.7438 2.17796c-0.01301 0.04834 -0.03801 0.09262 -0.07268 0.12874 -0.03467 0.03612 -0.0779 0.0629 -0.12567 0.07787l-1.19397 0.43905c-0.05055 0.01676 -0.10459 0.02003 -0.15679 0.00949 -0.0522 -0.01055 -0.10074 -0.03454 -0.14082 -0.06961 -0.04007 -0.03506 -0.0703 -0.07999 -0.08768 -0.13032 -0.01738 -0.05034 -0.02131 -0.10434 -0.01141 -0.15667l0.5372 -1.76473 -0.1405 0.04133 -2.10746 0.68595c-0.13811 0.04761 -0.28944 0.03871 -0.42102 -0.02476 -0.13158 -0.06346 -0.23275 -0.17636 -0.28146 -0.31408l-0.74381 -2.28928c-0.01887 -0.06796 -0.0115 -0.14052 0.02065 -0.2033 0.03215 -0.06277 0.08673 -0.11115 0.1529 -0.13555Z" stroke-width="1"></path>
  </g>
</svg>