<svg xmlns="http://www.w3.org/2000/svg" fill="none" viewBox="0 0 14 14" id="Airport-Plane--Streamline-Core">
  <desc>
    Airport Plane Streamline Icon: https://streamlinehq.com
  </desc>
  <g id="airport-plane">
    <path id="Vector" stroke="#000000" stroke-linecap="round" stroke-linejoin="round" d="M3.32949 10.6706h-1.45c-0.36248 -0.0302 -0.70038 -0.1955 -0.946679 -0.4632 -0.2463 -0.26762 -0.383006 -0.61808 -0.383006 -0.98181 0 -0.36374 0.136706 -0.71419 0.383006 -0.98185 0.246299 -0.26766 0.584199 -0.43297 0.946679 -0.46315h2.3l1.48 -1.48 -4.06 -2.5c-0.31256 -0.19322 -0.5401 -0.49791 -0.636631 -0.85246 -0.096528 -0.35456 -0.054842 -0.73254 0.116631 -1.05754 0.0757 -0.186 0.1887 -0.35452 0.33204 -0.49515 0.14333 -0.14064 0.31396 -0.25042 0.50137 -0.32257 0.1874 -0.07215 0.38759 -0.105141 0.58823 -0.096934 0.20065 0.008207 0.39748 0.057434 0.57836 0.144654l5.3 2.45L10.9395 0.980587c0.2758 -0.275825 0.6499 -0.430782 1.04 -0.430782s0.7642 0.154957 1.04 0.430782c0.2758 0.275823 0.4308 0.649923 0.4308 1.040003 0 0.39007 -0.155 0.76417 -0.4308 1.04l-2.59 2.56 2.45 5.35001c0.0806 0.1781 0.1246 0.3707 0.1293 0.5662 0.0048 0.1954 -0.0297 0.3899 -0.1016 0.5718 -0.0718 0.1818 -0.1794 0.3474 -0.3164 0.4869 -0.1371 0.1395 -0.3007 0.2501 -0.4813 0.3251 -0.325 0.1715 -0.703 0.2131 -1.0575 0.1166 -0.3546 -0.0965 -0.6593 -0.3241 -0.8525 -0.6366L7.69949 8.34059l-1.48 1.48v2.30001c-0.03018 0.3625 -0.19549 0.7004 -0.46315 0.9467 -0.26766 0.2463 -0.61811 0.383 -0.98185 0.383 -0.36373 0 -0.71419 -0.1367 -0.98184 -0.383 -0.26766 -0.2463 -0.43298 -0.5842 -0.46316 -0.9467v-1.45Z" stroke-width="1"></path>
  </g>
</svg>