<svg xmlns="http://www.w3.org/2000/svg" fill="none" viewBox="0 0 14 14" id="Earth-Airplane--Streamline-Core">
  <desc>
    Earth Airplane Streamline Icon: https://streamlinehq.com
  </desc>
  <g id="earth-airplane--travel-plane-trip-airplane-international-adventure-globe-world-airport">
    <path id="Vector" stroke="#000000" stroke-linecap="round" stroke-linejoin="round" d="M10.5 8.49995c-0.0001 0.83871 -0.2111 1.66395 -0.61366 2.39965 -0.40258 0.7358 -0.98378 1.3585 -1.69009 1.8108 -0.70631 0.4522 -1.51504 0.7196 -2.35175 0.7773 -0.83671 0.0578 -1.67452 -0.0958 -2.4363 -0.4467 -0.76178 -0.3509 -1.42305 -0.8877 -1.92296 -1.5612 -0.499902 -0.6734 -0.822371 -1.4618 -0.937723 -2.2925 -0.115351 -0.83073 -0.019879 -1.67714 0.27763 -2.4613C1.12266 5.94184 1.61264 5.24511 2.25 4.69995" stroke-width="1"></path>
    <path id="Vector_2" stroke="#000000" stroke-linecap="round" stroke-linejoin="round" d="M5.28003 6.65002c-0.10568 0.2182 -0.16039 0.45756 -0.16 0.7 -0.00133 0.2013 0.03734 0.40085 0.11376 0.58708 0.07642 0.18623 0.18906 0.35542 0.3314 0.49776 0.14234 0.14234 0.31154 0.25499 0.49776 0.33141 0.18623 0.07642 0.38579 0.11508 0.58708 0.11375 0.20422 0 0.40007 0.08113 0.54447 0.22553 0.1444 0.14441 0.22553 0.34026 0.22553 0.54447V13.12" stroke-width="1"></path>
    <path id="Vector_3" stroke="#000000" stroke-linecap="round" stroke-linejoin="round" d="M0.569946 9.27005H2.41995c0.20557 -0.00534 0.41014 0.03055 0.60162 0.10554 0.19148 0.075 0.36601 0.18759 0.51327 0.33113 0.14727 0.14353 0.26429 0.31508 0.34417 0.50458 0.07989 0.1895 0.12101 0.3931 0.12094 0.5988v2.45" stroke-width="1"></path>
    <path id="Vector_4" stroke="#000000" stroke-linecap="round" stroke-linejoin="round" d="m13.2599 1.96987 -1 -0.34c-0.0702 -0.02388 -0.1464 -0.0241 -0.2168 -0.00062 -0.0705 0.02347 -0.1313 0.06935 -0.1732 0.13062l-0.73 1.13L7.13994 0.889866C6.8238 0.703554 6.4704 0.589418 6.105 0.555625c-0.36539 -0.033793 -0.73374 0.013593 -1.07868 0.138766 -0.34494 0.125174 -0.65796 0.325039 -0.91664 0.585299 -0.25869 0.26026 -0.45666 0.57448 -0.57974 0.92018 -0.03392 0.08968 -0.04849 0.18552 -0.04276 0.28123 0.00573 0.09571 0.03164 0.18913 0.07602 0.27412 0.04439 0.08499 0.10624 0.15963 0.18151 0.21903 0.07527 0.0594 0.16225 0.10221 0.25523 0.12562l2.61 0.84 0.26 0.09 0.49 1.68c0.01574 0.05849 0.04599 0.11207 0.08794 0.15578 0.04195 0.0437 0.09425 0.0761 0.15206 0.09422l1.18 0.38c0.06024 0.01962 0.12452 0.02345 0.18666 0.01111 0.06215 -0.01234 0.12008 -0.04043 0.16826 -0.08158 0.04817 -0.04115 0.08497 -0.09398 0.10688 -0.15343 0.0219 -0.05945 0.02817 -0.12353 0.0182 -0.1861l-0.26 -1.25h0.17l2.54996 0.83c0.1672 0.0576 0.3503 0.04684 0.5095 -0.02996 0.1592 -0.0768 0.2816 -0.2134 0.3405 -0.38004l0.9 -2.77c0.0099 -0.07481 -0.0053 -0.15078 -0.0433 -0.21595 -0.0381 -0.06518 -0.0967 -0.11586 -0.1667 -0.14405Z" stroke-width="1"></path>
  </g>
</svg>