<svg xmlns="http://www.w3.org/2000/svg" fill="none" viewBox="0 0 14 14" id="Hearing-Deaf-2--Streamline-Core">
  <desc>
    Hearing Deaf 2 Streamline Icon: https://streamlinehq.com
  </desc>
  <g id="hearing-deaf-2--disability-hearing-deaf">
    <path id="Vector 635" stroke="#000000" stroke-linecap="round" d="M11.8047 1.0769c0.449 0.38726 0.7571 0.90661 0.9303 1.51184" stroke-width="1"></path>
    <path id="Vector 636" stroke="#000000" stroke-linecap="round" stroke-linejoin="round" d="m3.26154 8.61841 0.4605 0.4605" stroke-width="1"></path>
    <path id="Vector 637" stroke="#000000" stroke-linecap="round" stroke-linejoin="round" d="m1.10736 9.68372 1.49339 1.49338" stroke-width="1"></path>
    <path id="Vector 638" stroke="#000000" stroke-linecap="round" stroke-linejoin="round" d="m4.31018 6.46753 1.49339 1.49339" stroke-width="1"></path>
    <path id="Vector 1240" stroke="#000000" stroke-linecap="round" stroke-linejoin="round" d="M4.10842 12.3298c0.28125 0.2813 0.65738 0.5743 1.4375 0.5 1.26167 -0.1201 1.75 -0.9312 2 -1.7812 0.25 -0.85 1.125 -2.03127 1.5 -2.34377 0.75 -0.9375 1.93748 -1.71875 1.78128 -3.875 -0.1563 -2.15625 -2.06253 -3.53125 -4.75003 -3.15625 -1.81869 0.25377 -2.63263 1.95654 -2.90334 3.15625" stroke-width="1"></path>
    <path id="Vector 1241" stroke="#000000" stroke-linecap="round" stroke-linejoin="round" d="M5.80359 4.56126c0.34375 -0.54686 0.6897 -0.73719 1.03125 -0.82811 1.42338 -0.37886 2.51265 1.40816 1.28125 2.73434" stroke-width="1"></path>
  </g>
</svg>