<svg xmlns="http://www.w3.org/2000/svg" fill="none" viewBox="0 0 14 14"><g id="toilet-women--travel-wayfinder-toilet-women"><path id="Vector" stroke="#3e3e3e" stroke-linecap="round" stroke-linejoin="round" d="M7.02 4.652a1.886 1.886 0 1 0 0-3.773 1.886 1.886 0 0 0 0 3.773Z"></path><path id="Ellipse 7" stroke="#3e3e3e" stroke-linecap="round" stroke-linejoin="round" d="m8.743 10.75-.43 2.14H5.726l-.431-2.14H3.906a.442.442 0 0 1-.428-.412.298.298 0 0 1 .007-.09c.485-2.278.626-5.596 3.534-5.596s3.05 3.318 3.534 5.596a.3.3 0 0 1 .008.09.442.442 0 0 1-.429.412H8.743Z"></path></g></svg>