<svg xmlns="http://www.w3.org/2000/svg" fill="none" viewBox="0 0 14 14" id="Announcement-Megaphone--Streamline-Core">
  <desc>
    Announcement Megaphone Streamline Icon: https://streamlinehq.com
  </desc>
  <g id="annoncement-megaphone">
    <path id="Union" fill="#8fbffa" fill-rule="evenodd" d="M7.615 3.497a0.5 0.5 0 1 0 -0.866 0.5l0.018 0.032 -6.413 6.86a0.5 0.5 0 0 0 -0.068 0.592l0.609 1.055a0.5 0.5 0 0 0 0.546 0.237l1.708 -0.397 0.338 0.586 0.001 0.002A1.921 1.921 0 0 0 7 11.482l3.59 -0.834 0.017 0.03a0.5 0.5 0 1 0 0.866 -0.5l-0.188 -0.326a0.497 0.497 0 0 0 -0.028 -0.049l-3.424 -5.93a0.497 0.497 0 0 0 -0.028 -0.047l-0.19 -0.33Zm-1.592 8.212 -1.856 0.43 0.185 0.322a0.921 0.921 0 0 0 1.671 -0.752Z" clip-rule="evenodd" stroke-width="1"></path>
    <path id="Union_2" fill="#2859c5" fill-rule="evenodd" d="M7.181 0a0.75 0.75 0 0 1 0.75 0.75v1.253a0.75 0.75 0 0 1 -1.5 0V0.75a0.75 0.75 0 0 1 0.75 -0.75Zm6.806 6.806a0.75 0.75 0 0 1 -0.75 0.75h-1.253a0.75 0.75 0 0 1 0 -1.5h1.253a0.75 0.75 0 0 1 0.75 0.75Zm-11.608 0.75a0.75 0.75 0 1 0 0 -1.5H1.126a0.75 0.75 0 1 0 0 1.5h1.253ZM4.315 3.94a0.75 0.75 0 0 1 -1.06 0l-0.887 -0.886a0.75 0.75 0 1 1 1.06 -1.06l0.887 0.886a0.75 0.75 0 0 1 0 1.06Zm7.679 -0.886a0.75 0.75 0 0 0 -1.06 -1.06l-0.887 0.886a0.75 0.75 0 0 0 1.06 1.06l0.887 -0.886Z" clip-rule="evenodd" stroke-width="1"></path>
  </g>
</svg>