<svg xmlns="http://www.w3.org/2000/svg" fill="none" viewBox="0 0 14 14" id="Ball--Streamline-Core">
  <desc>
    Ball Streamline Icon: https://streamlinehq.com
  </desc>
  <g id="ball--sports-ball-sport-basketball-shopping-catergories">
    <path id="Vector" fill="#8fbffa" d="M7 14c3.866 0 7 -3.134 7 -7 0 -3.86599 -3.134 -7 -7 -7 -3.86599 0 -7 3.13401 -7 7 0 3.866 3.13401 7 7 7Z" stroke-width="1"></path>
    <g id="Intersect">
      <path fill="#2859c5" d="M1.33308 2.88989c0.24692 -0.33987 0.52367 -0.65666 0.82641 -0.94654 0.76369 0.53861 1.38923 1.27454 1.82555 2.13737 0.45252 0.89488 0.68839 1.89993 0.68839 2.91921 0 1.01928 -0.23587 2.02433 -0.68839 2.9192 -0.43634 0.86287 -1.0619 1.59887 -1.82564 2.13747 -0.30273 -0.2899 -0.57947 -0.6067 -0.82639 -0.9466 0.01276 -0.0102 0.02603 -0.0199 0.03977 -0.0292 0.61738 -0.4178 1.13491 -1.0102 1.49677 -1.72575 0.36195 -0.71577 0.55388 -1.52703 0.55388 -2.35512 0 -0.82809 -0.19193 -1.63935 -0.55388 -2.35513 -0.36186 -0.71559 -0.87939 -1.30792 -1.49676 -1.72573 -0.01373 -0.00929 -0.02697 -0.01902 -0.03971 -0.02918Z" stroke-width="1"></path>
      <path fill="#2859c5" d="M6.375 13.9725V0.0275215C6.5809 0.00930333 6.78936 0 7 0c0.21063 0 0.4191 0.00930348 0.625 0.0275219V13.9725C7.4191 13.9907 7.21063 14 7 14c-0.21064 0 -0.4191 -0.0093 -0.625 -0.0275Z" stroke-width="1"></path>
      <path fill="#2859c5" d="M12.667 11.11c-0.2469 0.3399 -0.5237 0.6567 -0.8264 0.9466 -0.7638 -0.5386 -1.3893 -1.2746 -1.8256 -2.13745 -0.45256 -0.89487 -0.68843 -1.89992 -0.68843 -2.9192s0.23587 -2.02433 0.68843 -2.9192c0.4363 -0.86284 1.0618 -1.59877 1.8255 -2.13738 0.3028 0.28988 0.5795 0.60667 0.8264 0.94654 -0.0127 0.01016 -0.026 0.0199 -0.0397 0.02919 -0.6174 0.41781 -1.1349 1.01014 -1.4968 1.72573 -0.3619 0.71577 -0.5538 1.52703 -0.5538 2.35512 0 0.82809 0.1919 1.63935 0.5538 2.35512 0.3619 0.71563 0.8794 1.30793 1.4968 1.72573 0.0138 0.0093 0.027 0.0191 0.0398 0.0292Z" stroke-width="1"></path>
    </g>
  </g>
</svg>