<svg xmlns="http://www.w3.org/2000/svg" fill="none" viewBox="0 0 14 14" id="Bill-4--Streamline-Core">
  <desc>
    Bill 4 Streamline Icon: https://streamlinehq.com
  </desc>
  <g id="bill-4--accounting-billing-payment-finance-cash-currency-money-bill-dollar-stack">
    <path id="Union" fill="#2859c5" d="M4.139 3.5c-0.777 0 -1.486 0.585 -1.486 1.4v5.396c0 0.815 0.71 1.4 1.486 1.4h8.376c0.776 0 1.485 -0.585 1.485 -1.4V4.899c0 -0.814 -0.709 -1.399 -1.485 -1.399H4.139Z" stroke-width="1"></path>
    <path id="Union_2" fill="#8fbffa" d="M1.485 1.25C0.71 1.25 0 1.835 0 2.65v5.396c0 0.815 0.709 1.4 1.485 1.4h8.376c0.777 0 1.486 -0.585 1.486 -1.4V2.649c0 -0.814 -0.71 -1.399 -1.486 -1.399H1.485Z" stroke-width="1"></path>
    <path id="Union_3" fill="#2859c5" fill-rule="evenodd" d="M5.673 3.846a1.501 1.501 0 1 0 0 3.003 1.501 1.501 0 0 0 0 -3.003Zm-3.398 0.752a0.75 0.75 0 1 0 0 1.5 0.75 0.75 0 0 0 0 -1.5Zm6.2 0.75a0.75 0.75 0 1 1 1.5 0 0.75 0.75 0 0 1 -1.5 0Z" clip-rule="evenodd" stroke-width="1"></path>
  </g>
</svg>