<svg xmlns="http://www.w3.org/2000/svg" fill="none" viewBox="0 0 14 14" id="Bill-2--Streamline-Core">
  <desc>
    Bill 2 Streamline Icon: https://streamlinehq.com
  </desc>
  <g id="bill-2--currency-billing-payment-finance-cash-bill-money-accounting">
    <path id="Union" fill="#8fbffa" d="M1.5 2.225c-0.804 0 -1.5 0.626 -1.5 1.45v6.65c0 0.824 0.696 1.45 1.5 1.45h11c0.804 0 1.5 -0.626 1.5 -1.45v-6.65c0 -0.824 -0.696 -1.45 -1.5 -1.45h-11Z" stroke-width="1"></path>
    <path id="Union_2" fill="#2859c5" fill-rule="evenodd" d="M7 4.899A2.101 2.101 0 1 0 7 9.1a2.101 2.101 0 0 0 0 -4.2Z" clip-rule="evenodd" stroke-width="1"></path>
    <path id="Ellipse 1135" fill="#2859c5" d="M1.5 7a0.752 0.752 0 1 0 1.504 0A0.752 0.752 0 1 0 1.5 7" stroke-width="1"></path>
    <path id="Ellipse 1134" fill="#2859c5" d="M10.996 7A0.752 0.752 0 1 0 12.5 7a0.752 0.752 0 1 0 -1.504 0" stroke-width="1"></path>
  </g>
</svg>