<svg xmlns="http://www.w3.org/2000/svg" fill="none" viewBox="0 0 14 14"><g id="business-user-curriculum"><path id="Union" fill="#37d7ff" d="M2.5 0A1.5 1.5 0 0 0 1 1.5v11A1.5 1.5 0 0 0 2.5 14h9a1.5 1.5 0 0 0 1.5-1.5v-8a.5.5 0 0 0-.146-.354l-4-4A.5.5 0 0 0 8.5 0h-6Z"></path><path id="Union_2" fill="#3e3e3e" fill-rule="evenodd" d="M5.98 2.927a1.024 1.024 0 1 1-2.049 0 1.024 1.024 0 0 1 2.05 0ZM3.5 7.875a.624.624 0 1 0 .002 1.25h7a.624.624 0 1 0-.002-1.25h-7Zm0 3a.624.624 0 1 0 .002 1.25h4a.624.624 0 1 0-.002-1.25h-4ZM3.134 5.33a2.721 2.721 0 0 1 1.821-.696c.7 0 1.338.263 1.822.696.287.257.063.67-.323.67H3.456c-.385 0-.61-.413-.322-.67Z" clip-rule="evenodd"></path></g></svg>