<svg xmlns="http://www.w3.org/2000/svg" fill="none" viewBox="0 0 14 14" id="Coin-Share--Streamline-Core">
  <desc>
    Coin Share Streamline Icon: https://streamlinehq.com
  </desc>
  <g id="coin-share--payment-cash-money-finance-receive-give-coin-hand">
    <path id="Vector" fill="#2859c5" d="M9.75 8.25a4 4 0 1 0 0 -8 4 4 0 0 0 0 8Z" stroke-width="1"></path>
    <path id="Vector (Stroke)" fill="#8fbffa" fill-rule="evenodd" d="M9.75 2.625c0.345 0 0.625 0.28 0.625 0.625v2a0.625 0.625 0 1 1 -1.25 0v-2c0 -0.345 0.28 -0.625 0.625 -0.625Z" clip-rule="evenodd" stroke-width="1"></path>
    <path id="Vector 1278" fill="#8fbffa" d="M1.96 6.85H0.117v4l1.828 1.828a4 4 0 0 0 2.829 1.172h5.843a1.5 1.5 0 0 0 0 -3h-3L4.788 8.022A4 4 0 0 0 1.96 6.85Z" stroke-width="1"></path>
    <path id="Intersect" fill="#2859c5" fill-rule="evenodd" d="M6.372 9.605a0.86 0.86 0 0 1 -1.326 1.082l-1.45 -1.45a0.625 0.625 0 0 0 -0.884 0.883l1.45 1.45a2.11 2.11 0 0 0 3.456 -0.72h-0.001L6.372 9.605Z" clip-rule="evenodd" stroke-width="1"></path>
  </g>
</svg>