<svg xmlns="http://www.w3.org/2000/svg" fill="none" viewBox="0 0 14 14" id="Discount-Percent-Circle--Streamline-Core">
  <desc>
    Discount Percent Circle Streamline Icon: https://streamlinehq.com
  </desc>
  <g id="discount-percent-circle--store-shop-shops-stores-discount-coupon">
    <path id="Vector" fill="#8fbffa" d="M7 14A7 7 0 1 0 7 0a7 7 0 0 0 0 14Z" stroke-width="1"></path>
    <path id="Union" fill="#2859c5" fill-rule="evenodd" d="M10.188 3.812a0.625 0.625 0 0 1 0 0.884l-5.492 5.492a0.625 0.625 0 0 1 -0.884 -0.884l5.492 -5.492a0.625 0.625 0 0 1 0.884 0ZM4.803 3.63a1.174 1.174 0 1 0 0 2.349 1.174 1.174 0 0 0 0 -2.349Zm3.22 5.568a1.174 1.174 0 1 1 2.348 0 1.174 1.174 0 0 1 -2.349 0Z" clip-rule="evenodd" stroke-width="1"></path>
  </g>
</svg>