<svg xmlns="http://www.w3.org/2000/svg" fill="none" viewBox="0 0 14 14" id="Dollar-Coin--Streamline-Core">
  <desc>
    Dollar Coin Streamline Icon: https://streamlinehq.com
  </desc>
  <g id="dollar-coin--accounting-billing-payment-cash-coin-currency-money-finance">
    <path id="Vector" fill="#8fbffa" d="M7 14A7 7 0 1 0 7 0a7 7 0 0 0 0 14Z" stroke-width="1"></path>
    <path id="Union" fill="#2859c5" fill-rule="evenodd" d="M7 2.5a0.75 0.75 0 0 1 0.75 0.75v0.528a1.999 1.999 0 0 1 1.553 1.305 0.75 0.75 0 0 1 -1.415 0.5 0.5 0.5 0 0 0 -0.471 -0.333h-0.968a0.366 0.366 0 0 0 -0.078 0.723l1.473 0.322a2 2 0 0 1 -0.094 3.927v0.528a0.75 0.75 0 0 1 -1.5 0v-0.528a2.003 2.003 0 0 1 -1.553 -1.305 0.75 0.75 0 0 1 1.415 -0.5 0.5 0.5 0 0 0 0.471 0.333h0.834a0.5 0.5 0 0 0 0.107 -0.99L6.05 7.439a1.866 1.866 0 0 1 0.2 -3.677V3.25A0.75 0.75 0 0 1 7 2.5Z" clip-rule="evenodd" stroke-width="1"></path>
  </g>
</svg>