<svg xmlns="http://www.w3.org/2000/svg" fill="none" viewBox="0 0 14 14"><g id="dollar-coin--accounting-billing-payment-cash-coin-currency-money-finance"><path id="Vector" fill="#37d7ff" d="M7 14A7 7 0 1 0 7 0a7 7 0 0 0 0 14Z"></path><path id="Union" fill="#3e3e3e" fill-rule="evenodd" d="M7 2.5a.75.75 0 0 1 .75.75v.528a1.999 1.999 0 0 1 1.553 1.305.75.75 0 0 1-1.415.5.5.5 0 0 0-.471-.333h-.968a.366.366 0 0 0-.078.723l1.473.322a2 2 0 0 1-.094 3.927v.528a.75.75 0 0 1-1.5 0v-.528a2.003 2.003 0 0 1-1.553-1.305.75.75 0 0 1 1.415-.5.5.5 0 0 0 .471.333h.834a.5.5 0 0 0 .107-.99L6.05 7.439a1.866 1.866 0 0 1 .2-3.677V3.25A.75.75 0 0 1 7 2.5Z" clip-rule="evenodd"></path></g></svg>