<svg xmlns="http://www.w3.org/2000/svg" fill="none" viewBox="0 0 14 14" id="Gold--Streamline-Core">
  <desc>
    Gold Streamline Icon: https://streamlinehq.com
  </desc>
  <g id="gold--gold-money-payment-bars-finance-wealth-bullion-jewelry">
    <path id="Union" fill="#8fbffa" fill-rule="evenodd" d="M9.772 8.099h2.08a1.393 1.393 0 0 1 1.388 1.114l0 0.002 0.75 3.75a0.5 0.5 0 0 1 -0.49 0.598H8.143a0.5 0.5 0 0 1 -0.49 -0.596l0.731 -3.75 0.001 -0.004a1.393 1.393 0 0 1 1.387 -1.114Zm-7.59 0h2.081A1.393 1.393 0 0 1 5.65 9.213l0 0.002 0.75 3.75a0.5 0.5 0 0 1 -0.49 0.598H0.554a0.5 0.5 0 0 1 -0.49 -0.596l0.732 -3.75 0 -0.004a1.393 1.393 0 0 1 1.388 -1.114Z" clip-rule="evenodd" stroke-width="1"></path>
    <path id="Union_2" fill="#8fbffa" d="M8.058 1.248h-2.08A1.393 1.393 0 0 0 4.59 2.362l0 0.004 -0.733 3.75a0.5 0.5 0 0 0 0.491 0.596h5.357a0.5 0.5 0 0 0 0.49 -0.598l-0.75 -3.75 0 -0.002a1.393 1.393 0 0 0 -1.387 -1.115Z" stroke-width="1"></path>
  </g>
</svg>