<svg xmlns="http://www.w3.org/2000/svg" fill="none" viewBox="0 0 14 14" id="Justice-Hammer--Streamline-Core">
  <desc>
    Justice Hammer Streamline Icon: https://streamlinehq.com
  </desc>
  <g id="justice-hammer--hammer-work-mallet-office-company-gavel-justice-judge-arbitration-court">
    <path id="Subtract" fill="#8fbffa" fill-rule="evenodd" d="M1.331 10.63a0.5 0.5 0 0 1 0.5 -0.5h5.5a0.5 0.5 0 0 1 0.5 0.5v1.75h-6.5v-1.75Z" clip-rule="evenodd" stroke-width="1"></path>
    <path id="Subtract_2" fill="#2859c5" fill-rule="evenodd" d="m8.85 6.582 1.06 -1.06L13.7 9.31a0.75 0.75 0 1 1 -1.06 1.06L8.85 6.582Z" clip-rule="evenodd" stroke-width="1"></path>
    <path id="Vector (Stroke)" fill="#2859c5" fill-rule="evenodd" d="M0.081 13.13a0.75 0.75 0 0 1 0.75 -0.75h7.5a0.75 0.75 0 0 1 0 1.5h-7.5a0.75 0.75 0 0 1 -0.75 -0.75Z" clip-rule="evenodd" stroke-width="1"></path>
    <path id="Union" fill="#8fbffa" d="M3.877 4.144a1.5 1.5 0 0 0 0 2.122l1.584 1.583a1.5 1.5 0 0 0 2.121 0l3.585 -3.585a1.5 1.5 0 0 0 0 -2.12L9.584 0.558a1.5 1.5 0 0 0 -2.122 0L3.877 4.144Z" stroke-width="1"></path>
  </g>
</svg>