<svg xmlns="http://www.w3.org/2000/svg" fill="none" viewBox="0 0 14 14" id="Mouth-Lip--Streamline-Core">
  <desc>
    Mouth Lip Streamline Icon: https://streamlinehq.com
  </desc>
  <g id="mouth-lip--fashion-beauty-mouth-lip">
    <path id="Union" fill="#8fbffa" d="M0.278965 8.02054c0.065305 0.11414 0.161271 0.27181 0.290037 0.45843 0.256941 0.37238 0.648138 0.86535 1.191668 1.35836 1.09374 0.99207 2.80472 1.98177 5.23908 1.98177 2.43436 0 4.14535 -0.9897 5.23905 -1.98177 0.5436 -0.49301 0.9348 -0.98599 1.1917 -1.35837 0.1288 -0.18662 0.2247 -0.34429 0.29 -0.45843 0.0369 -0.06441 0.0728 -0.12951 0.1055 -0.19614 0.081 -0.16736 0.0983 -0.3629 0.0461 -0.54134 -0.0878 -0.29694 -0.212 -0.58238 -0.3486 -0.85979 -0.2332 -0.474 -0.6084 -1.09802 -1.1672 -1.63881 -0.5646 -0.54642 -1.3308 -1.02004 -2.3241 -1.14365 -0.89598 -0.1115 -1.90538 0.07066 -3.03245 0.63368 -1.12707 -0.56302 -2.13647 -0.74518 -3.03244 -0.63368 -0.99328 0.12361 -1.75953 0.59724 -2.32413 1.14365 -0.55879 0.54079 -0.933946 1.16482 -1.167216 1.63882 -0.136523 0.27741 -0.260811 0.56284 -0.348539 0.85979 -0.0522211 0.17843 -0.034923 0.37397 0.046038 0.54134 0.032729 0.06662 0.068647 0.13172 0.105502 0.19614Z" stroke-width="1"></path>
    <path id="Intersect" fill="#2859c5" fill-rule="evenodd" d="M0.334389 8.11523C0.31392 8.08104 0.295447 8.0494 0.278934 8.02054 0.24208 7.95612 0.206162 7.89102 0.173433 7.8244c-0.0809615 -0.16737 -0.0982597 -0.36291 -0.046038 -0.54134 0.041884 -0.14177 0.092102 -0.28092 0.148006 -0.41783H13.724c0.0559 0.13691 0.1062 0.27605 0.148 0.41782 0.0523 0.17844 0.035 0.37398 -0.046 0.54134 -0.0327 0.06663 -0.0686 0.13173 -0.1055 0.19614 -0.0165 0.02886 -0.035 0.06051 -0.0555 0.0947l-13.330611 0Z" clip-rule="evenodd" stroke-width="1"></path>
  </g>
</svg>