<svg xmlns="http://www.w3.org/2000/svg" fill="none" viewBox="0 0 14 14" id="Payment-10--Streamline-Core">
  <desc>
    Payment 10 Streamline Icon: https://streamlinehq.com
  </desc>
  <g id="payment-10--deposit-payment-finance-atm-transfer-dollar">
    <path id="Union" fill="#8fbffa" d="M1.5 0A1.5 1.5 0 0 0 0 1.5v6A1.5 1.5 0 0 0 1.5 9h11A1.5 1.5 0 0 0 14 7.5v-6A1.5 1.5 0 0 0 12.5 0h-11Z" stroke-width="1"></path>
    <path id="Union_2" fill="#2859c5" fill-rule="evenodd" d="M7 0.83c0.345 0 0.625 0.279 0.625 0.624v0.415a1.64 1.64 0 0 1 1.26 1.069 0.625 0.625 0 0 1 -1.178 0.417 0.39 0.39 0 0 0 -0.369 -0.26h-0.785a0.281 0.281 0 0 0 -0.06 0.555l1.196 0.262a1.64 1.64 0 0 1 -0.064 3.219v0.415a0.625 0.625 0 1 1 -1.25 0V7.13a1.643 1.643 0 0 1 -1.26 -1.069 0.625 0.625 0 0 1 1.178 -0.417c0.054 0.153 0.2 0.26 0.369 0.26h0.676a0.39 0.39 0 0 0 0.084 -0.772l-1.197 -0.261a1.531 1.531 0 0 1 0.15 -3.017v-0.4c0 -0.346 0.28 -0.626 0.625 -0.626ZM3.5 4.5a0.75 0.75 0 1 0 -1.5 0 0.75 0.75 0 0 0 1.5 0Zm8.5 0a0.75 0.75 0 1 0 -1.5 0 0.75 0.75 0 0 0 1.5 0ZM4.5 9.875c0.345 0 0.625 0.28 0.625 0.625v2a0.625 0.625 0 1 1 -1.25 0v-2c0 -0.345 0.28 -0.625 0.625 -0.625Zm5.625 0.625a0.625 0.625 0 1 0 -1.25 0v2a0.625 0.625 0 1 0 1.25 0v-2Zm-2.5 0.75a0.625 0.625 0 1 0 -1.25 0v2a0.625 0.625 0 1 0 1.25 0v-2Z" clip-rule="evenodd" stroke-width="1"></path>
  </g>
</svg>