<svg xmlns="http://www.w3.org/2000/svg" fill="none" viewBox="0 0 14 14" id="Payment-Cash-Out-3--Streamline-Core">
  <desc>
    Payment Cash Out 3 Streamline Icon: https://streamlinehq.com
  </desc>
  <g id="payment-cash-out-3">
    <path id="Union" fill="#8fbffa" d="M1.5 0C0.696 0 0 0.625 0 1.45v5.6C0 7.875 0.696 8.5 1.5 8.5h11c0.804 0 1.5 -0.625 1.5 -1.45v-5.6C14 0.625 13.304 0 12.5 0h-11Z" stroke-width="1"></path>
    <path id="Union_2" fill="#2859c5" fill-rule="evenodd" d="M5.125 10.5a0.625 0.625 0 1 0 -1.25 0v2a0.625 0.625 0 1 0 1.25 0v-2ZM9.5 9.875c0.345 0 0.625 0.28 0.625 0.625v2a0.625 0.625 0 1 1 -1.25 0v-2c0 -0.345 0.28 -0.625 0.625 -0.625Zm-2.5 0.75c0.345 0 0.625 0.28 0.625 0.625v2a0.625 0.625 0 1 1 -1.25 0v-2c0 -0.345 0.28 -0.625 0.625 -0.625Z" clip-rule="evenodd" stroke-width="1"></path>
    <path id="Union_3" fill="#2859c5" fill-rule="evenodd" d="M7 6.25a2 2 0 1 0 0 -4 2 2 0 0 0 0 4Zm-4.25 -2.5a0.75 0.75 0 1 1 0 1.5 0.75 0.75 0 0 1 0 -1.5ZM12 4.5a0.75 0.75 0 1 0 -1.5 0 0.75 0.75 0 0 0 1.5 0Z" clip-rule="evenodd" stroke-width="1"></path>
  </g>
</svg>