<svg xmlns="http://www.w3.org/2000/svg" fill="none" viewBox="0 0 14 14" id="Shopping-Cart-3--Streamline-Core">
  <desc>
    Shopping Cart 3 Streamline Icon: https://streamlinehq.com
  </desc>
  <g id="shopping-cart-3--shopping-cart-checkout">
    <path id="Union" fill="#8fbffa" fill-rule="evenodd" d="M3.844 0.753a0.75 0.75 0 0 0 -0.747 -0.675H0.77a0.75 0.75 0 0 0 0 1.5h1.649l0.252 2.506c0 0.017 0 0.035 0.002 0.052l0.482 4.795a1.431 1.431 0 0 0 1.431 1.241h5.852a1.431 1.431 0 0 0 1.416 -0.973l0 -0.002 1.24 -3.724 0 -0.001a1.431 1.431 0 0 0 -0.2 -1.286 1.431 1.431 0 0 0 -1.216 -0.6h-7.55L3.844 0.753Z" clip-rule="evenodd" stroke-width="1"></path>
    <path id="Union_2" fill="#2859c5" fill-rule="evenodd" d="M6.187 5.375c0.346 0 0.625 0.28 0.625 0.625v2a0.625 0.625 0 1 1 -1.25 0V6c0 -0.345 0.28 -0.625 0.625 -0.625Zm0.092 7.447a1.178 1.178 0 1 0 -2.356 0 1.178 1.178 0 0 0 2.356 0Zm5.146 0a1.178 1.178 0 1 0 -2.356 0 1.178 1.178 0 0 0 2.356 0ZM10.312 6a0.625 0.625 0 1 0 -1.25 0v2a0.625 0.625 0 1 0 1.25 0V6Z" clip-rule="evenodd" stroke-width="1"></path>
  </g>
</svg>