<svg xmlns="http://www.w3.org/2000/svg" fill="none" viewBox="0 0 14 14"><g id="shopping-bag-hand-bag-2--shopping-bag-purse-goods-item-products"><path id="Vector (Stroke)" fill="#3e3e3e" fill-rule="evenodd" d="M7.384 1.5a1.75 1.75 0 0 0-1.75 1.75v1.5a.75.75 0 0 1-1.5 0v-1.5a3.25 3.25 0 0 1 6.5 0v1.5a.75.75 0 0 1-1.5 0v-1.5a1.75 1.75 0 0 0-1.75-1.75Z" clip-rule="evenodd"></path><path id="Union" fill="#37d7ff" d="M2.384 3.913a.5.5 0 0 0-.497.444l-.847 7.596-.01.07c-.02.163-.055.431-.001.69.114.547.53.996 1.073 1.146.244.068.522.06.691.056l.09-.002h9c.025 0 .056 0 .091.002.17.004.447.012.692-.056.541-.15.958-.6 1.073-1.146.054-.259.019-.527-.003-.69l-.008-.07-.847-7.596a.5.5 0 0 0-.497-.444h-10Z"></path></g></svg>