<svg xmlns="http://www.w3.org/2000/svg" fill="none" viewBox="0 0 14 14"><g id="shopping-cart-subtract--shopping-cart-checkout-subtract-minus-remove"><path id="Union" fill="#37d7ff" fill-rule="evenodd" d="M4.251.753a.75.75 0 0 0-.746-.675H1.177a.75.75 0 1 0 0 1.5h1.65l.251 2.506c0 .017 0 .035.002.052l.483 4.795a1.431 1.431 0 0 0 1.431 1.241h5.851a1.432 1.432 0 0 0 1.417-.973v-.002l1.239-3.724v-.001a1.431 1.431 0 0 0-.199-1.286 1.431 1.431 0 0 0-1.217-.6h-7.55L4.252.753Z" clip-rule="evenodd"></path><path id="Union_2" fill="#3e3e3e" fill-rule="evenodd" d="M10.654 11.644a1.178 1.178 0 1 1 0 2.356 1.178 1.178 0 0 1 0-2.356Z" clip-rule="evenodd"></path><path id="Union_3" fill="#3e3e3e" fill-rule="evenodd" d="M5.508 11.644a1.178 1.178 0 1 1 0 2.356 1.178 1.178 0 0 1 0-2.356Z" clip-rule="evenodd"></path><path id="Vector 1455 (Stroke)" fill="#3e3e3e" fill-rule="evenodd" d="M10.248 7a.625.625 0 0 0-.624-.625H7a.625.625 0 0 0 0 1.25h2.624c.345 0 .624-.28.624-.625Z" clip-rule="evenodd"></path></g></svg>