<svg xmlns="http://www.w3.org/2000/svg" fill="none" viewBox="0 0 14 14" id="Xrp-Circle--Streamline-Core">
  <desc>
    Xrp Circle Streamline Icon: https://streamlinehq.com
  </desc>
  <g id="xrp-circle--crypto-circle-payment-blockchain-finance-xrp-currency">
    <path id="Vector" fill="#8fbffa" d="M7 14c3.866 0 7 -3.134 7 -7 0 -3.86599 -3.134 -7 -7 -7 -3.86599 0 -7 3.13401 -7 7 0 3.866 3.13401 7 7 7Z" stroke-width="1"></path>
    <path id="Union" fill="#2859c5" fill-rule="evenodd" d="M4.58635 3.1313c-0.24408 -0.24408 -0.6398 -0.24408 -0.88388 0 -0.24408 0.24408 -0.24408 0.63981 0 0.88388l2.04382 2.04383c0.16408 0.16516 0.35918 0.29628 0.57409 0.38581 0.21536 0.08972 0.44635 0.13592 0.67964 0.13592 0.2333 0 0.46429 -0.0462 0.67964 -0.13592 0.21491 -0.08953 0.41 -0.22064 0.57408 -0.38579l0.00103 -0.00104 2.04283 -2.04281c0.2441 -0.24407 0.2441 -0.6398 0 -0.88388 -0.2441 -0.24408 -0.63983 -0.24408 -0.88391 0L7.36907 5.17592l-0.0018 0.00181c-0.04809 0.04849 -0.1053 0.08697 -0.16833 0.11323 -0.06303 0.02626 -0.13063 0.03978 -0.19892 0.03978 -0.06828 0 -0.13589 -0.01352 -0.19892 -0.03978 -0.06303 -0.02626 -0.12024 -0.06474 -0.16832 -0.11323l-0.00181 -0.00181L4.58635 3.1313ZM6.8011 8.70903c0.06303 -0.02626 0.13064 -0.03978 0.19892 -0.03978 0.06829 0 0.13589 0.01352 0.19892 0.03978 0.06303 0.02626 0.12024 0.06474 0.16833 0.11322l-0.00001 0 0.00181 0.00182 2.04462 2.04463c0.24408 0.2441 0.63981 0.2441 0.88391 0 0.2441 -0.2441 0.2441 -0.6398 0 -0.8839L8.25477 7.942l-0.00102 -0.00102c-0.16407 -0.16516 -0.35917 -0.29628 -0.57409 -0.38582 -0.21535 -0.08972 -0.44634 -0.13591 -0.67964 -0.13591 -0.23329 0 -0.46428 0.04619 -0.67964 0.13591 -0.21492 0.08954 -0.41003 0.22067 -0.57411 0.38584l-2.0438 2.0438c-0.24408 0.2441 -0.24408 0.6398 0 0.8839 0.24408 0.2441 0.6398 0.2441 0.88388 0l2.04462 -2.04463 0.00181 -0.00182c0.04808 -0.04848 0.10529 -0.08696 0.16832 -0.11322Z" clip-rule="evenodd" stroke-width="1"></path>
  </g>
</svg>