<svg xmlns="http://www.w3.org/2000/svg" fill="none" viewBox="0 0 48 48" id="Plug--Streamline-Kameleon">
  <desc>
    Plug Streamline Icon: https://streamlinehq.com
  </desc>
  <path fill="#ff78b9" d="M24.0006 48.0012c13.2553 0 24.0006 -10.7453 24.0006 -24.0006C48.0012 10.7453 37.2559 0 24.0006 0 10.7453 0 0 10.7453 0 24.0006c0 13.2553 10.7453 24.0006 24.0006 24.0006Z" stroke-width="1"></path>
  <path fill="#000000" d="M37.9641 13.5281c0 -0.9259 -0.3678 -1.8138 -1.0225 -2.4685 -0.6547 -0.6547 -1.5426 -1.0225 -2.4685 -1.0225h-20.946c-0.9258 0 -1.8138 0.3678 -2.4685 1.0225 -0.6547 0.6547 -1.0225 1.5426 -1.0225 2.4685v20.946c0 0.9259 0.3678 1.8138 1.0225 2.4685 0.6547 0.6547 1.5427 1.0225 2.4685 1.0225h20.946c0.9259 0 1.8138 -0.3678 2.4685 -1.0225 0.6547 -0.6547 1.0225 -1.5426 1.0225 -2.4685v-20.946Z" stroke-width="1"></path>
  <path fill="#ffffff" d="M24.0003 34.4738c5.7842 0 10.473 -4.6888 10.473 -10.473 0 -5.7841 -4.6888 -10.473 -10.473 -10.473 -5.7841 0 -10.473 4.6889 -10.473 10.473 0 5.7842 4.6889 10.473 10.473 10.473Z" stroke-width="1"></path>
  <path fill="#000000" d="M29.2367 28.3646c0 0.1157 -0.046 0.2267 -0.1278 0.3085 -0.0818 0.0819 -0.1928 0.1279 -0.3086 0.1279h-0.8727c-0.1157 0 -0.2267 -0.046 -0.3086 -0.1279 -0.0818 -0.0818 -0.1278 -0.1928 -0.1278 -0.3085v-4.3638c0 -0.1157 0.046 -0.2267 0.1278 -0.3085 0.0819 -0.0819 0.1929 -0.1278 0.3086 -0.1278h0.8727c0.1158 0 0.2268 0.0459 0.3086 0.1278 0.0818 0.0818 0.1278 0.1928 0.1278 0.3085v4.3638Z" stroke-width="1"></path>
  <path fill="#000000" d="M24.8734 22.2557c0 0.1157 -0.0459 0.2267 -0.1278 0.3086 -0.0818 0.0818 -0.1928 0.1278 -0.3085 0.1278h-0.8728c-0.1157 0 -0.2267 -0.046 -0.3086 -0.1278 -0.0818 -0.0819 -0.1278 -0.1929 -0.1278 -0.3086v-4.3638c0 -0.1157 0.046 -0.2267 0.1278 -0.3085 0.0819 -0.0819 0.1929 -0.1278 0.3086 -0.1278h0.8728c0.1157 0 0.2267 0.0459 0.3085 0.1278 0.0819 0.0818 0.1278 0.1928 0.1278 0.3085v4.3638Z" stroke-width="1"></path>
  <path fill="#000000" d="M20.5092 28.3646c0 0.1157 -0.046 0.2267 -0.1278 0.3085 -0.0819 0.0819 -0.1929 0.1279 -0.3086 0.1279H19.2c-0.1157 0 -0.2267 -0.046 -0.3085 -0.1279 -0.0819 -0.0818 -0.1278 -0.1928 -0.1278 -0.3085v-4.3638c0 -0.1157 0.0459 -0.2267 0.1278 -0.3085 0.0818 -0.0819 0.1928 -0.1278 0.3085 -0.1278h0.8728c0.1157 0 0.2267 0.0459 0.3086 0.1278 0.0818 0.0818 0.1278 0.1928 0.1278 0.3085v4.3638Z" stroke-width="1"></path>
</svg>