<svg xmlns="http://www.w3.org/2000/svg" fill="none" viewBox="0 0 14 14" id="Mail-Send-Email-Message-Circle--Streamline-Flex">
  <desc>
    Mail Send Email Message Circle Streamline Icon: https://streamlinehq.com
  </desc>
  <g id="mail-send-email-message-circle--send-email-paper-airplane-deliver">
    <path id="Vector 2383" stroke="#000000" stroke-linecap="round" stroke-linejoin="round" d="M3.11874 6.07398c2.43129 -2.06193 4.8948 -2.34357 6.29159 -2.24133 0.40066 0.02933 0.71277 0.34145 0.74207 0.74211 0.1023 1.39679 -0.17935 3.8603 -2.24129 6.29154 -0.34301 0.4045 -0.95006 0.4153 -1.27122 -0.0067 -0.49064 -0.6448 -1.01439 -1.57855 -1.01439 -2.50001 -0.92146 0 -1.85526 -0.52375 -2.49997 -1.01439 -0.42201 -0.32116 -0.41124 -0.92821 -0.00679 -1.27122Z" stroke-width="1"></path>
    <path id="Vector 2384" stroke="#000000" stroke-linecap="round" stroke-linejoin="round" d="m5.65723 8.32764 1.81931 -1.81932" stroke-width="1"></path>
    <path id="Vector" stroke="#000000" stroke-linecap="round" stroke-linejoin="round" d="M7 13.25c4 0 6.25 -2.25 6.25 -6.25S11 0.75 7 0.75 0.75 3 0.75 7 3 13.25 7 13.25Z" stroke-width="1"></path>
  </g>
</svg>