<svg xmlns="http://www.w3.org/2000/svg" fill="none" viewBox="0 0 48 48" id="Warehouse-1--Streamline-Plump">
  <desc>
    Warehouse 1 Streamline Icon: https://streamlinehq.com
  </desc>
  <g id="warehouse-1--delivery-warehouse-shipping-fulfillment">
    <path id="Union" fill="#000000" fill-rule="evenodd" d="M27.4234 2.78781c-2.1787 -0.96708 -4.6679 -0.96708 -6.8466 0C13.1643 6.07802 7.55607 10.3926 4.65327 12.8885c-1.77177 1.5234 -2.73224 3.6935 -2.85063 5.9508C1.66588 21.447 1.5 25.5297 1.5 29.999c0 4.2692 0.15136 8.3514 0.28395 11.1097 0.13338 2.7747 2.34595 4.9764 5.12502 5.0881 3.38093 0.1358 9.14433 0.3022 17.09113 0.3022 7.9466 0 13.7101 -0.1664 17.091 -0.3022 2.7791 -0.1117 4.9917 -2.3135 5.125 -5.0882 0.1326 -2.7583 0.2839 -6.8404 0.2839 -11.1096 0 -4.4692 -0.1658 -8.5519 -0.3025 -11.1596 -0.1184 -2.2573 -1.0789 -4.4275 -2.8507 -5.951 -2.9028 -2.4958 -8.511 -6.81041 -15.9234 -10.10059ZM24 20.5c-6.875 0 -10.9418 0.3978 -13.2036 0.7548 -1.06416 0.168 -1.80115 0.9502 -1.91652 2.0884C8.68959 25.2205 8.5 28.2775 8.5 33c0 3.8695 0.12728 6.8491 0.27922 9.0273 0.04854 0.6958 0.62409 1.2591 1.36828 1.2814 3.377 0.1012 8.0212 0.1913 13.8526 0.1913 5.8313 0 10.4754 -0.0901 13.8524 -0.1913 0.7442 -0.0223 1.3197 -0.5855 1.3683 -1.2814 0.1519 -2.1782 0.2792 -5.1578 0.2792 -9.0273 0 -4.7225 -0.1896 -7.7795 -0.3799 -9.6568 -0.1154 -1.1382 -0.8523 -1.9204 -1.9165 -2.0884C34.9418 20.8978 30.875 20.5 24 20.5Zm-4.9372 4.3063c0.06 -0.8966 0.6754 -1.5642 1.5688 -1.6606C21.3641 23.0668 22.4436 23 24 23c1.5564 0 2.6359 0.0668 3.3684 0.1457 0.8934 0.0964 1.5088 0.764 1.5688 1.6606 0.0358 0.535 0.0628 1.251 0.0628 2.1937 0 0.9427 -0.027 1.6587 -0.0628 2.1937 -0.06 0.8966 -0.6754 1.5642 -1.5688 1.6606C26.6359 30.9332 25.5564 31 24 31c-1.5564 0 -2.6359 -0.0668 -3.3684 -0.1457 -0.8934 -0.0964 -1.5088 -0.764 -1.5688 -1.6606C19.027 28.6587 19 27.9427 19 27c0 -0.9427 0.027 -1.6587 0.0628 -2.1937Zm-4.4312 8.3394c-0.8934 0.0964 -1.5088 0.764 -1.5688 1.6606C13.027 35.3413 13 36.0573 13 37c0 0.9427 0.027 1.6587 0.0628 2.1937 0.06 0.8966 0.6754 1.5642 1.5688 1.6606 0.7325 0.0789 1.812 0.1457 3.3684 0.1457 1.5564 0 2.6359 -0.0668 3.3684 -0.1457 0.8934 -0.0964 1.5088 -0.764 1.5688 -1.6606C22.973 38.6587 23 37.9427 23 37c0 -0.9427 -0.027 -1.6587 -0.0628 -2.1937 -0.06 -0.8966 -0.6754 -1.5642 -1.5688 -1.6606C20.6359 33.0668 19.5564 33 18 33c-1.5564 0 -2.6359 0.0668 -3.3684 0.1457Zm12 0c-0.8934 0.0964 -1.5088 0.764 -1.5688 1.6606C25.027 35.3413 25 36.0573 25 37c0 0.9427 0.027 1.6587 0.0628 2.1937 0.06 0.8966 0.6754 1.5642 1.5688 1.6606 0.7325 0.0789 1.812 0.1457 3.3684 0.1457 1.5564 0 2.6359 -0.0668 3.3684 -0.1457 0.8934 -0.0964 1.5088 -0.764 1.5688 -1.6606C34.973 38.6587 35 37.9427 35 37c0 -0.9427 -0.027 -1.6587 -0.0628 -2.1937 -0.06 -0.8966 -0.6754 -1.5642 -1.5688 -1.6606C32.6359 33.0668 31.5564 33 30 33c-1.5564 0 -2.6359 0.0668 -3.3684 0.1457Z" clip-rule="evenodd" stroke-width="1"></path>
  </g>
</svg>