<svg xmlns="http://www.w3.org/2000/svg" viewBox="0 0 14 14">
  <g>
    <path d="M14,10.57A3.44,3.44,0,0,1,10.57,14H3.43A3.44,3.44,0,0,1,0,10.57V3.43A3.44,3.44,0,0,1,3.43,0h7.14A3.44,3.44,0,0,1,14,3.43ZM3.43,1.5A1.94,1.94,0,0,0,1.5,3.43v7.14A1.94,1.94,0,0,0,3.43,12.5h7.14a1.94,1.94,0,0,0,1.93-1.93V3.43A1.94,1.94,0,0,0,10.57,1.5Z" style="fill: #000001"/>
    <path d="M9.78,6.78a.75.75,0,0,1-1.06,0l-.54-.54a.26.26,0,0,0-.28-.06.25.25,0,0,0-.15.23V10a.75.75,0,0,1-1.5,0V6.41a.25.25,0,0,0-.15-.23.26.26,0,0,0-.28.06l-.54.54A.75.75,0,0,1,4.22,5.72L6.47,3.47a.75.75,0,0,1,1.06,0L9.78,5.72A.75.75,0,0,1,9.78,6.78Z" style="fill: #000001"/>
  </g>
</svg>
