<svg xmlns="http://www.w3.org/2000/svg" fill="none" viewBox="0 0 24 24" id="Presentation-Projector-Screen-Budget-Analytics--Streamline-Ultimate">
  <desc>
    Presentation Projector Screen Budget Analytics Streamline Icon: https://streamlinehq.com
  </desc>
  <path stroke="#000000" stroke-linecap="round" stroke-linejoin="round" d="M6.69003 13.5198c0.1651 0.2502 0.39139 0.4542 0.6574 0.5924 0.26601 0.1383 0.56293 0.2063 0.8626 0.1976 0.4093 0.0363 0.81637 -0.0904 1.1328 -0.3526 0.31643 -0.2621 0.51666 -0.6385 0.5572 -1.0474 -0.03808 -0.4107 -0.23725 -0.7896 -0.55396 -1.0538 -0.3167 -0.2643 -0.72517 -0.3923 -1.13604 -0.3562 -0.40923 0.0334 -0.81512 -0.096 -1.12962 -0.3599 -0.3145 -0.264 -0.51226 -0.6413 -0.55038 -1.0501 0.04058 -0.407 0.23939 -0.7818 0.55362 -1.04365 0.31422 -0.26186 0.71872 -0.38982 1.12638 -0.35634 0.30014 -0.0116 0.59813 0.05514 0.86464 0.19366 0.26652 0.13852 0.49238 0.34404 0.65536 0.59634" stroke-width="1.5"></path>
  <path stroke="#000000" stroke-linecap="round" stroke-linejoin="round" d="M8.21002 14.3101v0.94" stroke-width="1.5"></path>
  <path stroke="#000000" stroke-linecap="round" stroke-linejoin="round" d="M8.21002 7.75v0.94" stroke-width="1.5"></path>
  <path stroke="#000000" stroke-linecap="round" stroke-linejoin="round" d="M14 15.25v-3" stroke-width="1.5"></path>
  <path stroke="#000000" stroke-linecap="round" stroke-linejoin="round" d="M17.5 15.25v-6" stroke-width="1.5"></path>
  <path stroke="#000000" stroke-linecap="round" stroke-linejoin="round" d="M1.5 0.75h21s0.75 0 0.75 0.75V4s0 0.75 -0.75 0.75h-21S0.75 4.75 0.75 4V1.5s0 -0.75 0.75 -0.75Z" stroke-width="1.5"></path>
  <path stroke="#000000" stroke-linecap="round" stroke-linejoin="round" d="M2.25 4.75h19.5V18H2.25V4.75Z" stroke-width="1.5"></path>
  <path stroke="#000000" stroke-linecap="round" stroke-linejoin="round" d="M12 22.25V18" stroke-width="1.5"></path>
  <path stroke="#000000" stroke-linecap="round" stroke-linejoin="round" d="M0.75 18h22.5" stroke-width="1.5"></path>
  <path stroke="#000000" stroke-linecap="round" stroke-linejoin="round" d="M13.5 23.25c0 -0.55 -0.67 -1 -1.5 -1s-1.5 0.45 -1.5 1" stroke-width="1.5"></path>
</svg>