<svg xmlns="http://www.w3.org/2000/svg" fill="none" viewBox="0 0 24 24" id="Task-Finger-Show--Streamline-Ultimate">
  <desc>
    Task Finger Show Streamline Icon: https://streamlinehq.com
  </desc>
  <path stroke="#000000" stroke-linecap="round" stroke-linejoin="round" d="m20.674 23.25 -2.96 -1.753c-0.2605 -0.1856 -0.4635 -0.4407 -0.5858 -0.7361 -0.1224 -0.2955 -0.1592 -0.6195 -0.1062 -0.9349v-1.824l-1.106 -1.107c-0.1388 -0.1385 -0.2452 -0.3062 -0.3114 -0.4909 -0.0663 -0.1846 -0.0907 -0.3817 -0.0715 -0.5769 0.0191 -0.1952 0.0813 -0.3838 0.1821 -0.5521 0.1008 -0.1682 0.2377 -0.3121 0.4008 -0.4211 0.2551 -0.1697 0.5612 -0.246 0.8661 -0.2157 0.305 0.0303 0.5901 0.1651 0.8069 0.3817l1.56 1.561" stroke-width="1.5"></path>
  <path stroke="#000000" stroke-linecap="round" stroke-linejoin="round" d="m17.272 9.3999 4.162 3.683c0.5451 0.7634 0.8381 1.678 0.838 2.616v2.181c0.0001 0.6264 0.249 1.2271 0.692 1.67l0.286 0.286" stroke-width="1.5"></path>
  <path stroke="#000000" stroke-linecap="round" stroke-linejoin="round" d="M8.56401 23.25 10.99 20.268c0.2072 -0.2566 0.3065 -0.5837 0.2768 -0.9122 -0.0297 -0.3285 -0.1859 -0.6325 -0.4358 -0.8478 -0.1224 -0.1054 -0.2647 -0.185 -0.4186 -0.234 -0.1539 -0.0491 -0.3161 -0.0666 -0.47687 -0.0514 -0.16078 0.0151 -0.31686 0.0625 -0.45889 0.1394 -0.14202 0.0769 -0.26706 0.1816 -0.36763 0.308l-0.837 0.716V13.5c0 -0.3978 -0.15804 -0.7794 -0.43934 -1.0607C7.55136 12.158 7.16983 12 6.77201 12c-0.39783 0 -0.77936 0.158 -1.06066 0.4393 -0.28131 0.2813 -0.43934 0.6629 -0.43934 1.0607v3.75h-1.239c-0.87401 0.0103 -1.70824 0.3669 -2.3196 0.9916 -0.61137 0.6247 -0.949938 1.4664 -0.941402 2.3404v2.667" stroke-width="1.5"></path>
  <path stroke="#000000" stroke-linecap="round" stroke-linejoin="round" d="M17.272 14.7128V4.51075c0 -0.19892 -0.079 -0.38968 -0.2197 -0.53033 -0.1406 -0.14066 -0.3314 -0.21967 -0.5303 -0.21967h-4.5c0 -0.79565 -0.3161 -1.55871 -0.8787 -2.12132 -0.5626 -0.56261 -1.32568 -0.878688 -2.12133 -0.878688s-1.55871 0.316078 -2.12132 0.878688c-0.56261 0.56261 -0.87868 1.32567 -0.87868 2.12132h-4.5c-0.19891 0 -0.38968 0.07901 -0.530327 0.21967 -0.140653 0.14065 -0.21967 0.33141 -0.21967 0.53033v9.74905" stroke-width="1.5"></path>
  <path stroke="#000000" d="M9.02197 4.13623c-0.2071 0 -0.375 -0.1679 -0.375 -0.375 0 -0.20711 0.1679 -0.375 0.375 -0.375" stroke-width="1.5"></path>
  <path stroke="#000000" d="M9.02197 4.13623c0.20711 0 0.375 -0.1679 0.375 -0.375 0 -0.20711 -0.16789 -0.375 -0.375 -0.375" stroke-width="1.5"></path>
</svg>