<svg xmlns="http://www.w3.org/2000/svg" fill="none" viewBox="0 0 14 14"><g id="smiley-angry"><path id="Subtract" fill="#37d7ff" fill-rule="evenodd" d="M13.5 7a6.5 6.5 0 1 1-13 0 6.5 6.5 0 0 1 13 0Zm-5 2.25C8.5 10.216 7.828 11 7 11s-1.5-.784-1.5-1.75S6.172 7.5 7 7.5s1.5.784 1.5 1.75Z" clip-rule="evenodd"></path><path id="Vector" fill="#ffffff" d="M7 11c.828 0 1.5-.784 1.5-1.75S7.828 7.5 7 7.5s-1.5.784-1.5 1.75S6.172 11 7 11Z"></path><path id="Vector_2" stroke="#3e3e3e" stroke-linecap="round" stroke-linejoin="round" d="M7 11c.828 0 1.5-.784 1.5-1.75S7.828 7.5 7 7.5s-1.5.784-1.5 1.75S6.172 11 7 11Z"></path><path id="Vector_3" stroke="#3e3e3e" stroke-linecap="round" stroke-linejoin="round" d="M7 13.5a6.5 6.5 0 1 0 0-13 6.5 6.5 0 0 0 0 13Z"></path><g id="Group 623"><path id="Vector_4" stroke="#3e3e3e" stroke-linecap="round" stroke-linejoin="round" d="M4.25 6a.25.25 0 0 1 0-.5"></path><path id="Vector_5" stroke="#3e3e3e" stroke-linecap="round" stroke-linejoin="round" d="M4.25 6a.25.25 0 0 0 0-.5"></path></g><g id="Group 624"><path id="Vector_6" stroke="#3e3e3e" stroke-linecap="round" stroke-linejoin="round" d="M9.75 6a.25.25 0 0 1 0-.5"></path><path id="Vector_7" stroke="#3e3e3e" stroke-linecap="round" stroke-linejoin="round" d="M9.75 6a.25.25 0 0 0 0-.5"></path></g><path id="Vector 559" stroke="#3e3e3e" stroke-linecap="round" stroke-linejoin="round" d="M5.345 3.483c.31.255.993.418 1.655.418s1.344-.163 1.655-.418"></path></g></svg>