<svg xmlns="http://www.w3.org/2000/svg" viewBox="0 0 14 14">
  <g>
    <path d="M9.09.77,9,.75.75,5.61A.47.47,0,0,0,.5,6v6.71a.5.5,0,0,0,.5.5H13a.5.5,0,0,0,.5-.5v-7A5.88,5.88,0,0,0,9.09.77Z" style="fill: none;stroke: #000001;stroke-linecap: round;stroke-linejoin: round"/>
    <line x1="0.59" y1="5.75" x2="13" y2="5.75" style="fill: none;stroke: #000001;stroke-linecap: round;stroke-linejoin: round"/>
    <path d="M.5,10.42h0l.08-.07A2,2,0,0,1,2,9.75a2,2,0,0,1,2,2,2,2,0,0,1-.59,1.41l-.08.09" style="fill: none;stroke: #000001;stroke-linecap: round;stroke-linejoin: round"/>
    <circle cx="9" cy="9.25" r="1.5" style="fill: none;stroke: #000001;stroke-linecap: round;stroke-linejoin: round"/>
  </g>
</svg>
