<svg xmlns="http://www.w3.org/2000/svg" viewBox="0 0 14 14">
  <g>
    <path d="M9.5,5.25A.74.74,0,0,1,9,5,.75.75,0,0,1,9,4l.75-.75a.75.75,0,1,1,1.06,1.06L10,5A.74.74,0,0,1,9.5,5.25Z" style="fill: #000001"/>
    <path d="M9.5,0A4.51,4.51,0,0,0,5,4.5,4.45,4.45,0,0,0,5.76,7a.91.91,0,0,0,.39.34l1.5.74A.24.24,0,0,0,8,8l.18-.27.1-.15a.22.22,0,0,0,.05-.21.23.23,0,0,0-.13-.17,3,3,0,1,1,2.66,0,.17.17,0,0,0-.1.18.17.17,0,0,0,.12.16,1.34,1.34,0,0,1,.78.63.22.22,0,0,0,.16.12.24.24,0,0,0,.2,0A4.5,4.5,0,0,0,9.5,0Z" style="fill: #000001"/>
    <path d="M8.9,12.36a1,1,0,0,0,.24,0,.69.69,0,0,0,.68-.47l1-3a.36.36,0,0,0-.25-.45L9.41,8.11H9.29a.33.33,0,0,0-.3.16l-.54.84a.52.52,0,0,1-.65.18L3.91,7.35A2.85,2.85,0,0,0,2.54,7,2.59,2.59,0,0,0,0,8.73a.72.72,0,0,0,.48.92l2.84.91a.53.53,0,0,1,.33.34l.68,2.4a.41.41,0,0,0,.26.27L5.91,14,6,14a.41.41,0,0,0,.4-.47l-.37-1.7a.24.24,0,0,1,.08-.24.23.23,0,0,1,.24-.05Z" style="fill: #000001"/>
  </g>
</svg>
