<svg xmlns="http://www.w3.org/2000/svg" fill="none" viewBox="0 0 24 24" id="Consellation--Streamline-Sharp">
  <desc>
    Consellation Streamline Icon: https://streamlinehq.com
  </desc>
  <g id="consellation--science-space-universe-star">
    <path id="Vector 3003" stroke="#4147d5" d="M19.5 7V1" stroke-width="1.5"></path>
    <path id="Ellipse 1218" fill="#d7e0ff" d="M17 9.5a2.5 2.5 0 1 0 5 0 2.5 2.5 0 1 0 -5 0" stroke-width="1.5"></path>
    <path id="Ellipse 1219" fill="#d7e0ff" d="M11.5 19.5a2.5 2.5 0 1 0 5 0 2.5 2.5 0 1 0 -5 0" stroke-width="1.5"></path>
    <path id="Ellipse 1220" fill="#d7e0ff" d="M2 16a2.5 2.5 0 1 0 5 0 2.5 2.5 0 1 0 -5 0" stroke-width="1.5"></path>
    <path id="Ellipse 1221" fill="#d7e0ff" d="M5.5 6.5a2.5 2.5 0 1 0 5 0 2.5 2.5 0 1 0 -5 0" stroke-width="1.5"></path>
    <path id="Ellipse 1222" stroke="#4147d5" d="M17 9.5a2.5 2.5 0 1 0 5 0 2.5 2.5 0 1 0 -5 0" stroke-width="1.5"></path>
    <path id="Ellipse 1223" stroke="#4147d5" d="M11.5 19.5a2.5 2.5 0 1 0 5 0 2.5 2.5 0 1 0 -5 0" stroke-width="1.5"></path>
    <path id="Ellipse 1224" stroke="#4147d5" d="M2 16a2.5 2.5 0 1 0 5 0 2.5 2.5 0 1 0 -5 0" stroke-width="1.5"></path>
    <path id="Ellipse 1225" stroke="#4147d5" d="M5.5 6.5a2.5 2.5 0 1 0 5 0 2.5 2.5 0 1 0 -5 0" stroke-width="1.5"></path>
    <path id="Vector 3002" stroke="#4147d5" d="m6.846 16.864 4.807 1.771" stroke-width="1.5"></path>
    <path id="Vector 3004" stroke="#4147d5" d="m15.205 17.309 3.09 -5.618" stroke-width="1.5"></path>
    <path id="Vector 3005" stroke="#4147d5" d="m7.136 8.847 -1.772 4.807" stroke-width="1.5"></path>
    <path id="Vector 3006" stroke="#4147d5" d="m17.08 8.868 -6.66 -1.737" stroke-width="1.5"></path>
  </g>
</svg>