<svg xmlns="http://www.w3.org/2000/svg" fill="none" viewBox="0 0 24 24" id="Rabbit--Streamline-Sharp">
  <desc>
    Rabbit Streamline Icon: https://streamlinehq.com
  </desc>
  <g id="rabbit--nature-head-pet-animals">
    <path id="Vector 2944" fill="#d7e0ff" d="M16.9394 3.74239 15.5 9.5h-6L8.0606 3.74239C7.74677 2.48706 6.50232 1.69954 5.23348 1.9533c-1.44402 0.28881 -2.29907 1.78787 -1.81259 3.17782L6 12.5l-0.94607 5.0457c-0.32569 1.737 0.57055 3.4733 2.17521 4.2139 2.03613 0.9398 4.44166 -0.0485 5.22916 -2.1483L12.5 19.5l0.0417 0.1113c0.7875 2.0998 3.193 3.0881 5.2292 2.1483 1.6046 -0.7406 2.5009 -2.4769 2.1752 -4.2139L19 12.5l2.5791 -7.36888c0.4865 -1.38995 -0.3686 -2.88901 -1.8126 -3.17782 -1.2688 -0.25376 -2.5133 0.53376 -2.8271 1.78909Z" stroke-width="1"></path>
    <path id="Vector 2941" stroke="#4147d5" d="M16.9394 3.74239 15.5 9.5h-6L8.0606 3.74239C7.74677 2.48706 6.50232 1.69954 5.23348 1.9533c-1.44402 0.28881 -2.29907 1.78787 -1.81259 3.17782L6 12.5l-0.94607 5.0457c-0.32569 1.737 0.57055 3.4733 2.17521 4.2139 2.03613 0.9398 4.44166 -0.0485 5.22916 -2.1483L12.5 19.5l0.0417 0.1113c0.7875 2.0998 3.193 3.0881 5.2292 2.1483 1.6046 -0.7406 2.5009 -2.4769 2.1752 -4.2139L19 12.5l2.5791 -7.36888c0.4865 -1.38995 -0.3686 -2.88901 -1.8126 -3.17782 -1.2688 -0.25376 -2.5133 0.53376 -2.8271 1.78909Z" stroke-width="1"></path>
    <path id="Vector 2942" stroke="#4147d5" d="M12.5 19.625V17" stroke-width="1"></path>
    <path id="Vector 2943" stroke="#4147d5" d="M10.5 17h4" stroke-width="1"></path>
    <path id="Vector 2475" stroke="#4147d5" d="M9.5 13v2.5" stroke-width="1"></path>
    <path id="Vector 2476" stroke="#4147d5" d="M15.5 13v2.5" stroke-width="1"></path>
  </g>
</svg>