<svg xmlns="http://www.w3.org/2000/svg" fill="none" viewBox="0 0 48 48" id="Bill-1--Streamline-Plump-Gradient">
  <desc>
    Bill 1 Streamline Icon: https://streamlinehq.com
  </desc>
  <g id="bill-1--billing-bills-payment-finance-cash-currency-money-accounting">
    <path id="Union" fill="url(#paint0_linear_7979_4908)" fill-rule="evenodd" d="M24 34.5c-7.996 0-13.5185-.1975-16.90365-.3789-3.16754-.1697-5.82868-2.4521-6.168319-5.7255C.699292 26.191.5 23.0952.5 19s.199293-7.191.428033-9.3956C1.26767 6.33099 3.92882 4.04855 7.09636 3.87887 10.4815 3.69753 16.004 3.5 24 3.5c7.996 0 13.5185.19754 16.9036.37888 3.1676.16968 5.8287 2.45211 6.1684 5.72552.2287 2.2046.428 5.3004.428 9.3956s-.1993 7.191-.428 9.3956c-.3397 3.2734-3.0008 5.5559-6.1684 5.7255-3.3851.1814-8.9077.3789-16.9036.3789Zm20.0881-6.4134c.1026-.9886.2001-2.1766.2744-3.5756-.1199-.0066-.2407-.0099-.3622-.0099-3.5899 0-6.5 2.9101-6.5 6.5 0 .091.0018.1815.0055.2716 1.2457-.0473 2.3226-.0976 3.2375-.1467 1.8141-.0971 3.1696-1.3507 3.3448-3.0394ZM40.7433 6.8752c-.9149-.04901-1.9917-.09939-3.2374-.14668-.0038.0904-.0056.18126-.0056.27257 0 3.58981 2.9101 6.50001 6.5 6.50001.1215 0 .2423-.0034.3623-.0099-.0744-1.3994-.1719-2.5878-.2745-3.57657-.1752-1.68871-1.5307-2.94225-3.3448-3.03943ZM10.4947 31.2727c-1.24583-.0473-2.32274-.0976-3.23774-.1467-1.81408-.0971-3.1696-1.3507-3.34481-3.0394-.10258-.9886-.20005-2.1766-.27442-3.5756.12-.0066.24087-.0099.36252-.0099 3.58985 0 6.49995 2.9101 6.49995 6.5 0 .091-.0018.1815-.0055.2716ZM7.25697 6.8752c.91499-.04902 1.99188-.0994 3.23763-.14669.0038.0904.0056.18127.0056.27258 0 3.58981-2.9101 6.50001-6.49995 6.50001-.12167 0-.24255-.0034-.36257-.01.07437-1.3993.17187-2.5877.27447-3.57647.17521-1.68871 1.53074-2.94225 3.34482-3.03943ZM17.5 19c0-3.5899 2.9101-6.5 6.5-6.5s6.5 2.9101 6.5 6.5-2.9101 6.5-6.5 6.5-6.5-2.9101-6.5-6.5ZM7.24147 36.0628c.45074-.6951 1.3796-.8932 2.07467-.4424.5099.3306 1.12956.5408 1.81966.5785 2.7591.1509 6.9788.3004 12.8642.3004 5.8854 0 10.1051-.1495 12.8642-.3004.6901-.0377 1.3098-.2479 1.8197-.5785.695-.4508 1.6239-.2527 2.0746.4424.4508.695.2527 1.6239-.4424 2.0746-.957.6207-2.0845.9913-3.2881 1.0571-2.8175.154-7.0919.3048-13.028.3048-5.9361 0-10.2105-.1508-13.028-.3048-1.20358-.0658-2.33111-.4364-3.28814-1.0571-.69507-.4507-.89314-1.3796-.44239-2.0746Zm4.39353 5.6591c.3434-.7539 1.233-1.0866 1.9869-.7432.4021.1832.8566.2978 1.3499.3228 2.1149.1073 5.0903.2011 9.0282.2011s6.9133-.0938 9.0283-.2011c.4932-.025.9477-.1396 1.3498-.3228.7539-.3434 1.6435-.0107 1.9869.7432.3435.7538.0108 1.6434-.7431 1.9869-.7508.342-1.5763.545-2.4417.5889-2.1686.1099-5.1948.2049-9.1802.2049-3.9854 0-7.0116-.095-9.1802-.2049-.8654-.0439-1.6908-.2469-2.4417-.5889-.7539-.3435-1.0866-1.233-.7431-1.9869Z" clip-rule="evenodd"></path>
  </g>
  <defs>
    <linearGradient id="paint0_linear_7979_4908" x1="52.562" x2="-6.443" y1="52.218" y2="7.692" gradientUnits="userSpaceOnUse">
      <stop stop-color="#ffd600"></stop>
      <stop offset="1" stop-color="#ff007a"></stop>
    </linearGradient>
  </defs>
</svg>