<svg xmlns="http://www.w3.org/2000/svg" fill="none" viewBox="0 0 48 48" id="Discount-Percent-Cutout--Streamline-Plump-Gradient">
  <desc>
    Discount Percent Cutout Streamline Icon: https://streamlinehq.com
  </desc>
  <g id="discount-percent-cutout--store-shop-shops-stores-discount-coupon">
    <path id="Union" fill="url(#paint0_linear_7979_4833)" fill-rule="evenodd" d="M23.0691 3.47846c.0119 1.10451-.8738 2.00953-1.9783 2.02143-2.3735.02556-4.4666.08119-6.2929.15322-1.1037.04354-2.0338-.81591-2.0773-1.91962-.0435-1.10371.8159-2.03374 1.9196-2.07727 1.8656-.07358 3.9968-.13014 6.4075-.1561 1.1045-.0119 2.0095.87384 2.0214 1.97834Zm1.8616.00001c.0119-1.10451.917-1.99025 2.0215-1.97835 2.4106.02596 4.5419.08252 6.4074.1561 1.1038.04353 1.9632.97356 1.9197 2.07727-.0436 1.10371-.9736 1.96316-2.0773 1.91962-1.8263-.07203-3.9194-.12766-6.2929-.15322-1.1045-.0119-1.9902-.91692-1.9784-2.02142Zm-14.0795.35376c.0883 1.10104-.7328 2.06515-1.8338 2.1534l-.23293.01866c-1.51884.12378-2.65632 1.26044-2.7801 2.77928l-.01874.23383c-.08825 1.101-1.05235 1.9221-2.15339 1.8338-1.10104-.0882-1.92207-1.05234-1.83382-2.15337l.01884-.23508.00017-.00213c.28212-3.47312 2.97008-6.16108 6.4432-6.44319l.00213-.00018.23507-.01884c1.10104-.08824 2.06517.73279 2.15337 1.83382Zm26.2975.00001c.0882-1.10104 1.0523-1.92207 2.1534-1.83383l.2352.01885.0021.00017c3.4731.28212 6.1611 2.97008 6.4432 6.4432l.0002.00219.0188.23506c.0882 1.10104-.7328 2.06512-1.8339 2.15332-1.101.0882-2.0651-.7328-2.1533-1.83386l-.0187-.23286c-.1234-1.51929-1.2601-2.65629-2.7793-2.7801l-.2339-.01875c-1.101-.08825-1.9221-1.05236-1.8338-2.15339ZM3.73349 12.7207c1.10371.0436 1.96315.9736 1.91962 2.0773-.07203 1.8263-.12766 3.9193-.15322 6.2928-.0119 1.1045-.91692 1.9902-2.02143 1.9783-1.1045-.0119-1.99024-.9169-1.97834-2.0214.02596-2.4106.08252-4.5418.1561-6.4073.04353-1.1038.97355-1.9632 2.07727-1.9197Zm40.53301 0c1.1037-.0435 2.0338.816 2.0773 1.9197.0736 1.8655.1301 3.9967.1561 6.4073.0119 1.1045-.8739 2.0095-1.9784 2.0214-1.1045.0119-2.0095-.8738-2.0214-1.9783-.0255-2.3735-.0812-4.4665-.1532-6.2928-.0435-1.1037.8159-2.0337 1.9196-2.0773Zm.255 12.2111c1.1045.0119 1.9903.9169 1.9784 2.0214-.026 2.4105-.0825 4.5417-.1561 6.4071-.0435 1.1038-.9736 1.9632-2.0773 1.9197-1.1037-.0436-1.9631-.9736-1.9196-2.0773.072-1.8263.1277-3.9192.1532-6.2926.0119-1.1045.9169-1.9902 2.0214-1.9783Zm-41.04304.0001c1.10451-.0118 2.00953.8739 2.02143 1.9784.02556 2.3734.08119 4.4664.15322 6.2927.04353 1.1037-.81591 2.0338-1.91962 2.0773-1.10371.0435-2.03374-.8159-2.07727-1.9196-.07358-1.8655-.13014-3.9967-.1561-6.4073-.0119-1.1045.87384-2.0096 1.97834-2.0215ZM44.1677 37.1496c1.1011.0882 1.9221 1.0523 1.8339 2.1534l-.0188.2351-.0002.0022c-.2821 3.4731-2.9701 6.1611-6.4432 6.4432l-.0022.0001-.235.0189c-1.1011.0882-2.0652-.7328-2.1534-1.8339-.0882-1.101.7328-2.0651 1.8338-2.1533l.2329-.0187.001-.0001c1.5186-.1238 2.655-1.2601 2.7791-2.7786l.0001-.0015.0187-.233c.0882-1.101 1.0523-1.922 2.1533-1.8338Zm-40.33546.0002c1.10104-.0883 2.06515.7328 2.15339 1.8338l.01866.2328.00008.001c.12385 1.519 1.26071 2.6557 2.77982 2.7792l.23331.0187c1.101.0882 1.9221 1.0523 1.8338 2.1533-.0882 1.1011-1.05231 1.9221-2.15335 1.8339l-.23518-.0189-.00215-.0001c-3.47312-.2822-6.16108-2.9701-6.4432-6.4432l-.00017-.0022-.01883-.2349c-.08825-1.1011.73278-2.0652 1.83382-2.1534Zm8.88866 7.1176c.0436-1.1037.9736-1.9631 2.0773-1.9196 1.8263.072 3.9192.1276 6.2926.1532 1.1045.0119 1.9902.9169 1.9783 2.0214-.0119 1.1045-.9169 1.9903-2.0214 1.9784-2.4105-.026-4.5417-.0825-6.4071-.1561-1.1037-.0435-1.9632-.9736-1.9197-2.0773Zm22.5584 0c.0435 1.1037-.8159 2.0337-1.9197 2.0773-1.8654.0736-3.9967.1301-6.4073.1561-1.1045.0119-2.0095-.8739-2.0214-1.9784-.0119-1.1045.8738-2.0095 1.9784-2.0214 2.3734-.0256 4.4664-.0812 6.2927-.1532 1.1037-.0435 2.0337.8159 2.0773 1.9196ZM14 16.4858c0-1.0455.2637-1.6062.5601-1.9339C14.8883 14.2058 15.3078 14 16 14c.672 0 1.0879.203 1.423.5604.3071.3275.577.8827.577 1.9254 0 1.0701-.2744 1.631-.577 1.9538C17.0879 18.797 16.672 19 16 19c-.6921 0-1.1117-.2058-1.4398-.5519-.2923-.3232-.5602-.8899-.5602-1.9623ZM16 10c-1.6873 0-3.2045.5858-4.3658 1.8245l-.0153.0164C10.4607 13.1043 10 14.7386 10 16.4858c0 1.7578.4564 3.4052 1.6189 4.6733l.0153.0164C12.7955 22.4142 14.3127 23 16 23c1.6799 0 3.1854-.592 4.341-1.8245C21.529 19.9084 22 18.2549 22 16.4858c0-1.7585-.4754-3.3989-1.659-4.6613C19.1854 10.592 17.6799 10 16 10Zm14 21.4858c0-1.0455.2637-1.6062.5601-1.9339C30.8883 29.2058 31.3078 29 32 29c.672 0 1.0879.203 1.423.5604.3071.3275.577.8827.577 1.9254 0 1.0701-.2744 1.631-.577 1.9538C33.0879 33.797 32.672 34 32 34c-.6921 0-1.1117-.2058-1.4398-.5519-.2923-.3232-.5602-.8899-.5602-1.9623ZM32 25c-1.6873 0-3.2045.5858-4.3658 1.8245l-.0153.0164C26.4607 28.1043 26 29.7386 26 31.4858c0 1.7578.4564 3.4052 1.6189 4.6733l.0153.0164C28.7955 37.4142 30.3127 38 32 38c1.6799 0 3.1854-.592 4.341-1.8245C37.529 34.9084 38 33.2549 38 31.4858c0-1.7585-.4754-3.3989-1.659-4.6613C35.1854 25.592 33.6799 25 32 25Zm3.4142-12.4142c.7811.781.7811 2.0474 0 2.8284l-20 20c-.781.7811-2.0474.7811-2.8284 0-.7811-.781-.7811-2.0474 0-2.8284l20-20c.781-.7811 2.0474-.7811 2.8284 0Z" clip-rule="evenodd"></path>
  </g>
  <defs>
    <linearGradient id="paint0_linear_7979_4833" x1="46.348" x2="-6.943" y1="46.51" y2="16.534" gradientUnits="userSpaceOnUse">
      <stop stop-color="#ff51e3"></stop>
      <stop offset="1" stop-color="#1b4dff"></stop>
    </linearGradient>
  </defs>
</svg>