<svg xmlns="http://www.w3.org/2000/svg" fill="none" viewBox="0 0 48 48" id="Gold--Streamline-Plump-Gradient">
  <desc>
    Gold Streamline Icon: https://streamlinehq.com
  </desc>
  <g id="gold--gold-money-payment-bars-finance-wealth-bullion-jewelry">
    <path id="Union" fill="url(#paint0_linear_7979_4866)" fill-rule="evenodd" d="M24.0009 3.5c-1.8108 0-3.6032.17227-4.8994.33546-1.7613.22173-3.3019 1.36266-3.9257 3.10056-.7215 2.00994-1.75 5.52938-2.3802 10.55678-.2945 2.3493 1.3611 4.4977 3.7693 4.7114 1.7081.1516 4.1868.2958 7.436.2958 3.2491 0 5.7278-.1442 7.4359-.2958 2.4082-.2137 4.0638-2.3621 3.7693-4.7114-.6302-5.0274-1.6587-8.54684-2.3801-10.55678-.6239-1.7379-2.1645-2.87883-3.9257-3.10056C27.604 3.67227 25.8116 3.5 24.0009 3.5Zm-12 20c-1.8108 0-3.60317.1723-4.89945.3355-1.76125.2217-3.30186 1.3626-3.9257 3.1005-.72148 2.01-1.74996 5.5294-2.380146 10.5568-.294478 2.3493 1.361136 4.4977 3.769286 4.7114 1.70811.1516 4.1868.2958 7.43601.2958 3.2491 0 5.7278-.1442 7.4359-.2958 2.4082-.2137 4.0638-2.3621 3.7693-4.7114-.6302-5.0274-1.6587-8.5468-2.3801-10.5568-.6239-1.7379-2.1645-2.8788-3.9257-3.1005-1.2963-.1632-3.0887-.3355-4.8994-.3355Zm19.1006.3355c1.2962-.1632 3.0886-.3355 4.8994-.3355 1.8107 0 3.6031.1723 4.8994.3355 1.7612.2217 3.3018 1.3626 3.9257 3.1005.7214 2.01 1.7499 5.5294 2.3801 10.5568.2945 2.3493-1.3611 4.4977-3.7693 4.7114-1.7081.1516-4.1868.2958-7.4359.2958-3.2492 0-5.7279-.1442-7.436-.2958-2.4082-.2137-4.0638-2.3621-3.7693-4.7114.6302-5.0274 1.6587-8.5468 2.3802-10.5568.6238-1.7379 2.1644-2.8788 3.9257-3.1005Z" clip-rule="evenodd"></path>
  </g>
  <defs>
    <linearGradient id="paint0_linear_7979_4866" x1="47.083" x2="-2.908" y1="42.508" y2="8.995" gradientUnits="userSpaceOnUse">
      <stop stop-color="#ff51e3"></stop>
      <stop offset="1" stop-color="#1b4dff"></stop>
    </linearGradient>
  </defs>
</svg>