<svg xmlns="http://www.w3.org/2000/svg" fill="none" viewBox="0 0 48 48" id="Shopping-Cart-Add--Streamline-Plump-Gradient">
  <desc>
    Shopping Cart Add Streamline Icon: https://streamlinehq.com
  </desc>
  <g id="shopping-cart-add--shopping-cart-checkout-add-plus-new">
    <path id="Union" fill="url(#paint0_linear_7979_4962)" fill-rule="evenodd" d="m3.79139.5 4.49034.000014C10.7819.500022 12.9675 2.18628 13.6018 4.60462l1.284 4.89537h27.5953c2.6989 0 4.8021 2.36341 4.3965 5.05011-.7996 5.2971-2.0231 11.9137-3.41 16.5851-.6315 2.1272-2.4694 3.5971-4.6591 3.8344-2.3749.2575-6.0214.5304-10.8085.5304-4.7022 0-8.4141-.2633-10.8962-.5164-2.3776-.2425-4.3275-1.8996-4.9752-4.1953-1.0665-3.7805-1.9576-7.9187-2.82932-11.9672l-.02541-.118c-.8512-3.953-1.68497-7.8141-2.65031-11.20311H3.79138c-1.69403 0-3.22703-1.23618-3.283403-3.01231C.502869 4.32683.5 4.16366.5 3.99999c0-.16366.002869-.32683.007977-.48768C.564346 1.73618 2.09735.499995 3.79139.5ZM30 17.5c0-1.1046-.8954-2-2-2s-2 .8954-2 2v3h-3c-1.1046 0-2 .8954-2 2s.8954 2 2 2h3v3c0 1.1046.8954 2 2 2s2-.8954 2-2v-3h3c1.1046 0 2-.8954 2-2s-.8954-2-2-2h-3v-3ZM13.5 43c0-2.4853 2.0147-4.5 4.5-4.5s4.5 2.0147 4.5 4.5-2.0147 4.5-4.5 4.5-4.5-2.0147-4.5-4.5ZM38 38.5c-2.4853 0-4.5 2.0147-4.5 4.5s2.0147 4.5 4.5 4.5 4.5-2.0147 4.5-4.5-2.0147-4.5-4.5-4.5Z" clip-rule="evenodd"></path>
  </g>
  <defs>
    <linearGradient id="paint0_linear_7979_4962" x1="46.771" x2="-8.532" y1="47.51" y2="16.779" gradientUnits="userSpaceOnUse">
      <stop stop-color="#ff51e3"></stop>
      <stop offset="1" stop-color="#1b4dff"></stop>
    </linearGradient>
  </defs>
</svg>