<svg xmlns="http://www.w3.org/2000/svg" fill="none" viewBox="0 0 48 48" id="Target-3--Streamline-Plump-Gradient">
  <desc>
    Target 3 Streamline Icon: https://streamlinehq.com
  </desc>
  <g id="target-3--shop-bullseye-shooting-target">
    <path id="Subtract" fill="url(#paint0_linear_7979_4998)" fill-rule="evenodd" d="M24 47.5C11.0213 47.5.5 36.9787.5 24S11.0213.499997 24 .5C36.9787.5 47.5 11.0213 47.5 24S36.9787 47.5 24 47.5Zm11-25h3.4234c-.7-6.8102-6.1132-12.2234-12.9234-12.92335V13c0 .8284-.6716 1.5-1.5 1.5s-1.5-.6716-1.5-1.5V9.57665C15.6898 10.2766 10.2766 15.6898 9.57665 22.5H13c.8284 0 1.5.6716 1.5 1.5s-.6716 1.5-1.5 1.5H9.57665C10.2766 32.3102 15.6898 37.7234 22.5 38.4234V35c0-.8284.6716-1.5 1.5-1.5s1.5.6716 1.5 1.5v3.4234c6.8102-.7 12.2234-6.1132 12.9234-12.9234H35c-.8284 0-1.5-.6716-1.5-1.5s.6716-1.5 1.5-1.5Zm-11-16C14.335 6.5 6.5 14.335 6.5 24S14.335 41.5 24 41.5 41.5 33.665 41.5 24 33.665 6.5 24 6.5Zm-4 19c-.8284 0-1.5-.6716-1.5-1.5s.6716-1.5 1.5-1.5h2.5V20c0-.8284.6716-1.5 1.5-1.5s1.5.6716 1.5 1.5v2.5H28c.8284 0 1.5.6716 1.5 1.5s-.6716 1.5-1.5 1.5h-2.5V28c0 .8284-.6716 1.5-1.5 1.5s-1.5-.6716-1.5-1.5v-2.5H20Z" clip-rule="evenodd"></path>
  </g>
  <defs>
    <linearGradient id="paint0_linear_7979_4998" x1="2.306" x2="55.874" y1="4.298" y2="34.49" gradientUnits="userSpaceOnUse">
      <stop stop-color="#00d078"></stop>
      <stop offset="1" stop-color="#007df0"></stop>
    </linearGradient>
  </defs>
</svg>