<svg xmlns="http://www.w3.org/2000/svg" fill="none" viewBox="0 0 14 14" id="Alien--Streamline-Core">
  <desc>
    Alien Streamline Icon: https://streamlinehq.com
  </desc>
  <g id="alien--science-extraterristerial-life-form-space-universe-head-astronomy">
    <path id="Subtract" fill="#d7e0ff" fill-rule="evenodd" d="M7 13.5c3.55 0 6.5 -4.41 6.5 -8S10.59 0.5 7 0.5 0.5 1.91 0.5 5.5s2.95 8 6.5 8ZM2.75 4.75a3.12 3.12 0 0 0 0.49 2.44 3.12 3.12 0 0 0 2.44 0.49 3.12 3.12 0 0 0 -0.49 -2.44 3.12 3.12 0 0 0 -2.44 -0.49Zm8.5 0a3.12 3.12 0 0 1 -0.49 2.44 3.12 3.12 0 0 1 -2.44 0.49 3.12 3.12 0 0 1 0.49 -2.44 3.12 3.12 0 0 1 2.44 -0.49Z" clip-rule="evenodd" stroke-width="1"></path>
    <path id="Vector" fill="#ffffff" d="M2.75 4.75a3.12 3.12 0 0 0 0.49 2.44 3.12 3.12 0 0 0 2.44 0.49 3.12 3.12 0 0 0 -0.49 -2.44 3.12 3.12 0 0 0 -2.44 -0.49Z" stroke-width="1"></path>
    <path id="Vector_2" fill="#ffffff" d="M11.25 4.75a3.12 3.12 0 0 1 -0.49 2.44 3.12 3.12 0 0 1 -2.44 0.49 3.12 3.12 0 0 1 0.49 -2.44 3.12 3.12 0 0 1 2.44 -0.49Z" stroke-width="1"></path>
    <path id="Vector_3" stroke="#4147d5" stroke-linecap="round" stroke-linejoin="round" d="M2.75 4.75a3.12 3.12 0 0 0 0.49 2.44 3.12 3.12 0 0 0 2.44 0.49 3.12 3.12 0 0 0 -0.49 -2.44 3.12 3.12 0 0 0 -2.44 -0.49Z" stroke-width="1"></path>
    <path id="Vector_4" stroke="#4147d5" stroke-linecap="round" stroke-linejoin="round" d="M11.25 4.75a3.12 3.12 0 0 1 -0.49 2.44 3.12 3.12 0 0 1 -2.44 0.49 3.12 3.12 0 0 1 0.49 -2.44 3.12 3.12 0 0 1 2.44 -0.49Z" stroke-width="1"></path>
    <path id="Vector_5" stroke="#4147d5" stroke-linecap="round" stroke-linejoin="round" d="M13.5 5.5c0 3.59 -2.95 8 -6.5 8S0.5 9.09 0.5 5.5 3.41 0.5 7 0.5s6.5 1.41 6.5 5Z" stroke-width="1"></path>
  </g>
</svg>