<svg xmlns="http://www.w3.org/2000/svg" fill="none" viewBox="0 0 14 14"><g id="leaf--nature-environment-leaf-ecology-plant-plants-eco"><path id="Vector" fill="#37d7ff" d="M11.51 5.391c2 2.817.47 6.043-.27 7.301a1.42 1.42 0 0 1-1 .66c-1.45.25-5.06.529-7-2.288-1.91-2.656-1.83-7.33-1.66-9.558A1.048 1.048 0 0 1 3 .568c2.15.619 6.63 2.167 8.51 4.823Z"></path><path id="Vector_2" stroke="#3e3e3e" stroke-linecap="round" stroke-linejoin="round" d="M11.51 5.391c2 2.817.47 6.043-.27 7.301a1.42 1.42 0 0 1-1 .66c-1.45.25-5.06.529-7-2.288-1.91-2.656-1.83-7.33-1.66-9.558A1.048 1.048 0 0 1 3 .568c2.15.619 6.63 2.167 8.51 4.823Z"></path><path id="Vector_3" stroke="#3e3e3e" stroke-linecap="round" stroke-linejoin="round" d="M4.77 4.463a52.192 52.192 0 0 1 6 8.719"></path></g></svg>