<svg xmlns="http://www.w3.org/2000/svg" fill="none" viewBox="0 0 14 14" id="Octopus--Streamline-Core">
  <desc>
    Octopus Streamline Icon: https://streamlinehq.com
  </desc>
  <g id="octopus--nature-sealife-animals">
    <path id="Ellipse 955" fill="#d7e0ff" d="M11 4.5c0 -2.20914 -1.79085 -4 -3.99999 -4C4.79088 0.5 3 2.29086 3 4.5c0 1.19469 0.52375 2.26706 1.35418 3 0.44975 0.39696 0.73011 0.92615 0.72052 1.5C5.0747 9 5 10 7 10s1.92531 -1 1.92531 -1c-0.00958 -0.57385 0.27077 -1.10304 0.72053 -1.5C10.4763 6.76706 11 5.69469 11 4.5Z" stroke-width="1"></path>
    <path id="Ellipse 954" stroke="#4147d5" stroke-linecap="round" stroke-linejoin="round" d="M13.5 9.5c0 2 -2.5 2.3542 -3.85418 1 -1.08334 -1.08334 -0.83042 -2.26706 0 -3C10.4762 6.76706 11 5.69469 11 4.5c0 -2.20914 -1.79086 -4 -4 -4s-4.00002 1.79086 -4.00002 4c0 1.19469 0.52376 2.26706 1.35418 3 0.83042 0.73294 1.08334 1.91666 0 3 -1.35418 1.3542 -3.854175 1 -3.854175 -1" stroke-width="1"></path>
    <path id="Vector 2282" stroke="#4147d5" stroke-linecap="round" stroke-linejoin="round" d="M6.25 10.5c-0.16667 1 -1.25 3 -3.25 3 -1 0 -1.5 -0.5 -1.5 -0.5" stroke-width="1"></path>
    <path id="Vector 2283" stroke="#4147d5" stroke-linecap="round" stroke-linejoin="round" d="M7.75 10.5c0.16667 1 1.25 3 3.25 3 1 0 1.5 -0.5 1.5 -0.5" stroke-width="1"></path>
    <g id="Group 4481">
      <path id="Vector" stroke="#4147d5" stroke-linecap="round" stroke-linejoin="round" d="M5.25 5.5c-0.13807 0 -0.25 -0.11193 -0.25 -0.25S5.11193 5 5.25 5" stroke-width="1"></path>
      <path id="Vector_2" stroke="#4147d5" stroke-linecap="round" stroke-linejoin="round" d="M5.25 5.5c0.13807 0 0.25 -0.11193 0.25 -0.25S5.38807 5 5.25 5" stroke-width="1"></path>
    </g>
    <g id="Group 4482">
      <path id="Vector_3" stroke="#4147d5" stroke-linecap="round" stroke-linejoin="round" d="M8.75 5.5c-0.13807 0 -0.25 -0.11193 -0.25 -0.25S8.61193 5 8.75 5" stroke-width="1"></path>
      <path id="Vector_4" stroke="#4147d5" stroke-linecap="round" stroke-linejoin="round" d="M8.75 5.5c0.13807 0 0.25 -0.11193 0.25 -0.25S8.88807 5 8.75 5" stroke-width="1"></path>
    </g>
  </g>
</svg>