<svg xmlns="http://www.w3.org/2000/svg" fill="none" viewBox="0 0 14 14"><g id="volcano--nature-eruption-erupt-mountain-volcano-lava-magma-explosion"><path id="Vector" fill="#ffffff" d="M11.876 4.931a1.985 1.985 0 0 1-1.403.581H8.488V8.49H5.512V5.512H3.527a1.984 1.984 0 1 1 1.23-3.542 2.48 2.48 0 0 1 4.485 0 1.984 1.984 0 0 1 2.634 2.961Z"></path><path id="Vector_2" fill="#37d7ff" d="M13.45 13.45s-3.97-1.984-3.97-4.961H4.52c0 2.976-3.97 4.961-3.97 4.961"></path><path id="Vector_3" stroke="#3e3e3e" stroke-linecap="round" stroke-linejoin="round" d="M13.45 13.45s-3.97-1.984-3.97-4.961H4.52c0 2.976-3.97 4.961-3.97 4.961"></path><path id="Vector_4" stroke="#3e3e3e" stroke-linecap="round" stroke-linejoin="round" d="M10.473 5.512a1.985 1.985 0 1 0-1.23-3.542 2.48 2.48 0 0 0-4.485 0 1.984 1.984 0 1 0-1.23 3.542"></path><path id="Vector_5" stroke="#3e3e3e" stroke-linecap="round" stroke-linejoin="round" d="M5.512 4.52v3.969"></path><path id="Vector_6" stroke="#3e3e3e" stroke-linecap="round" stroke-linejoin="round" d="M8.488 4.52v3.969"></path></g></svg>