<svg xmlns="http://www.w3.org/2000/svg" viewBox="0 0 32 32" id="Pet-Animals-Frog-Face--Streamline-Pixel">
  <desc>
    Pet Animals Frog Face Streamline Icon: https://streamlinehq.com
  </desc>
  <title>pet-animals-frog-face</title>
  <g>
    <path d="M30.48 15.24H32v7.62h-1.52Z" fill="#000000" stroke-width="1"></path>
    <path d="M28.95 22.86h1.53v3.04h-1.53Z" fill="#000000" stroke-width="1"></path>
    <path d="M28.95 13.71h1.53v1.53h-1.53Z" fill="#000000" stroke-width="1"></path>
    <path d="M28.95 4.57h1.53v7.62h-1.53Z" fill="#000000" stroke-width="1"></path>
    <path d="M27.43 25.9h1.52v1.53h-1.52Z" fill="#000000" stroke-width="1"></path>
    <path d="M27.43 12.19h1.52v1.52h-1.52Z" fill="#000000" stroke-width="1"></path>
    <path d="M27.43 3.05h1.52v1.52h-1.52Z" fill="#000000" stroke-width="1"></path>
    <path d="M27.43 6.09h-1.52V4.57h-4.57v1.52h-1.53v4.58h1.53v1.52h4.57v-1.52h1.52Zm-3.05 1.53h-1.52V6.09h1.52Z" fill="#000000" stroke-width="1"></path>
    <path d="M24.38 27.43h3.05v1.52h-3.05Z" fill="#000000" stroke-width="1"></path>
    <path d="M7.62 28.95h16.76v1.53H7.62Z" fill="#000000" stroke-width="1"></path>
    <path d="M19.81 1.52h7.62v1.53h-7.62Z" fill="#000000" stroke-width="1"></path>
    <path d="M18.29 15.24h1.52v1.52h-1.52Z" fill="#000000" stroke-width="1"></path>
    <path d="M18.29 3.05h1.52v1.52h-1.52Z" fill="#000000" stroke-width="1"></path>
    <path d="M16.76 12.19h1.53v1.52h-1.53Z" fill="#000000" stroke-width="1"></path>
    <path d="M16.76 4.57h1.53v3.05h-1.53Z" fill="#000000" stroke-width="1"></path>
    <path d="M15.24 16.76h3.05v1.52h-3.05Z" fill="#000000" stroke-width="1"></path>
    <path d="M15.24 7.62h1.52v1.52h-1.52Z" fill="#000000" stroke-width="1"></path>
    <path d="M13.72 12.19h1.52v1.52h-1.52Z" fill="#000000" stroke-width="1"></path>
    <path d="M13.72 4.57h1.52v3.05h-1.52Z" fill="#000000" stroke-width="1"></path>
    <path d="M12.19 3.05h1.53v1.52h-1.53Z" fill="#000000" stroke-width="1"></path>
    <path d="M10.67 4.57H6.1v1.52H4.57v4.58H6.1v1.52h4.57v-1.52h1.52V6.09h-1.52ZM9.15 7.62H7.62V6.09h1.53Z" fill="#000000" stroke-width="1"></path>
    <path d="M4.57 27.43h3.05v1.52H4.57Z" fill="#000000" stroke-width="1"></path>
    <path d="M4.57 1.52h7.62v1.53H4.57Z" fill="#000000" stroke-width="1"></path>
    <path d="M3.05 25.9h1.52v1.53H3.05Z" fill="#000000" stroke-width="1"></path>
    <path d="M3.05 12.19h1.52v1.52H3.05Z" fill="#000000" stroke-width="1"></path>
    <path d="M3.05 3.05h1.52v1.52H3.05Z" fill="#000000" stroke-width="1"></path>
    <path d="M1.53 22.86h1.52v3.04H1.53Z" fill="#000000" stroke-width="1"></path>
    <path d="M1.53 13.71h1.52v1.53H1.53Z" fill="#000000" stroke-width="1"></path>
    <path d="M1.53 4.57h1.52v7.62H1.53Z" fill="#000000" stroke-width="1"></path>
    <path d="M0 15.24h1.53v7.62H0Z" fill="#000000" stroke-width="1"></path>
  </g>
</svg>