<svg xmlns="http://www.w3.org/2000/svg" viewBox="0 0 32 32" id="Pet-Animals-Rabbit-2--Streamline-Pixel">
  <desc>
    Pet Animals Rabbit 2 Streamline Icon: https://streamlinehq.com
  </desc>
  <title>pet-animals-rabbit-2</title>
  <g>
    <path d="M27.43 19.81h1.52v7.62h-1.52Z" fill="#000000" stroke-width="1"></path>
    <path d="M25.91 27.43h1.52v1.53h-1.52Z" fill="#000000" stroke-width="1"></path>
    <path d="M25.91 16.76h1.52v3.05h-1.52Z" fill="#000000" stroke-width="1"></path>
    <path d="M24.38 3.05h1.53v13.71h-1.53Z" fill="#000000" stroke-width="1"></path>
    <path d="M22.86 28.96h3.05v1.52h-3.05Z" fill="#000000" stroke-width="1"></path>
    <path d="M22.86 1.53h1.52v1.52h-1.52Z" fill="#000000" stroke-width="1"></path>
    <path d="M19.81 0h3.05v1.53h-3.05Z" fill="#000000" stroke-width="1"></path>
    <path d="M9.15 30.48h13.71V32H9.15Z" fill="#000000" stroke-width="1"></path>
    <path d="M19.81 18.29h1.53v1.52h-1.53Z" fill="#000000" stroke-width="1"></path>
    <path d="M19.81 4.57h3.05v9.15h-3.05Z" fill="#000000" stroke-width="1"></path>
    <path d="M18.29 22.86h1.52v1.52h-1.52Z" fill="#000000" stroke-width="1"></path>
    <path d="M18.29 1.53h1.52v1.52h-1.52Z" fill="#000000" stroke-width="1"></path>
    <path d="M16.76 3.05h1.53v12.19h-1.53Z" fill="#000000" stroke-width="1"></path>
    <path d="M15.24 24.38h3.05v1.53h-3.05Z" fill="#000000" stroke-width="1"></path>
    <path d="m15.24 22.86 1.52 0 0 -1.52 1.53 0 0 -1.53 -4.57 0 0 1.53 1.52 0 0 1.52z" fill="#000000" stroke-width="1"></path>
    <path d="M15.24 15.24h1.52v1.52h-1.52Z" fill="#000000" stroke-width="1"></path>
    <path d="M13.72 3.05h1.52v12.19h-1.52Z" fill="#000000" stroke-width="1"></path>
    <path d="M12.19 1.53h1.53v1.52h-1.53Z" fill="#000000" stroke-width="1"></path>
    <path d="M10.67 18.29h1.52v1.52h-1.52Z" fill="#000000" stroke-width="1"></path>
    <path d="M9.15 0h3.04v1.53H9.15Z" fill="#000000" stroke-width="1"></path>
    <path d="M9.15 4.57h3.04v9.15H9.15Z" fill="#000000" stroke-width="1"></path>
    <path d="M6.1 28.96h3.05v1.52H6.1Z" fill="#000000" stroke-width="1"></path>
    <path d="M7.62 1.53h1.53v1.52H7.62Z" fill="#000000" stroke-width="1"></path>
    <path d="M6.1 3.05h1.52v13.71H6.1Z" fill="#000000" stroke-width="1"></path>
    <path d="M4.57 27.43H6.1v1.53H4.57Z" fill="#000000" stroke-width="1"></path>
    <path d="M4.57 16.76H6.1v3.05H4.57Z" fill="#000000" stroke-width="1"></path>
    <path d="M3.05 19.81h1.52v7.62H3.05Z" fill="#000000" stroke-width="1"></path>
  </g>
</svg>