<svg xmlns="http://www.w3.org/2000/svg" viewBox="0 0 32 32" id="Pet-Animals-Rabbit-1--Streamline-Pixel">
  <desc>
    Pet Animals Rabbit 1 Streamline Icon: https://streamlinehq.com
  </desc>
  <title>pet-animals-rabbit-1</title>
  <g>
    <path d="m30.48 1.53 0 1.52 -4.57 0 0 1.52 -1.53 0 0 1.53 -1.52 0 0 3.05 1.52 0 0 4.57 1.53 0 0 -4.57 1.52 0 0 -1.53 3.05 0 0 -1.52 1.52 0 0 -4.57 -1.52 0z" fill="#000000" stroke-width="1"></path>
    <path d="M28.95 19.81h1.53v6.1h-1.53Z" fill="#000000" stroke-width="1"></path>
    <path d="M27.43 25.91h1.52v1.52h-1.52Z" fill="#000000" stroke-width="1"></path>
    <path d="M27.43 16.76h1.52v3.05h-1.52Z" fill="#000000" stroke-width="1"></path>
    <path d="M25.91 27.43h1.52v1.53h-1.52Z" fill="#000000" stroke-width="1"></path>
    <path d="M25.91 13.72h1.52v3.04h-1.52Z" fill="#000000" stroke-width="1"></path>
    <path d="M24.38 0h6.1v1.53h-6.1Z" fill="#000000" stroke-width="1"></path>
    <path d="M22.86 28.96h3.05v1.52h-3.05Z" fill="#000000" stroke-width="1"></path>
    <path d="M21.34 19.81h4.57v1.53h-4.57Z" fill="#000000" stroke-width="1"></path>
    <path d="M22.86 1.53h1.52v1.52h-1.52Z" fill="#000000" stroke-width="1"></path>
    <path d="M21.34 22.86h3.04v1.52h-3.04Z" fill="#000000" stroke-width="1"></path>
    <path d="M21.34 15.24h1.52v1.52h-1.52Z" fill="#000000" stroke-width="1"></path>
    <path d="M21.34 3.05h1.52v1.52h-1.52Z" fill="#000000" stroke-width="1"></path>
    <path d="M9.15 30.48h13.71V32H9.15Z" fill="#000000" stroke-width="1"></path>
    <path d="M19.81 4.57h1.53v4.58h-1.53Z" fill="#000000" stroke-width="1"></path>
    <path d="m13.72 18.29 0 1.52 1.52 0 0 1.53 1.52 0 0 -1.53 1.53 0 0 -1.52 -4.57 0z" fill="#000000" stroke-width="1"></path>
    <path d="M12.19 9.15h7.62v1.52h-7.62Z" fill="#000000" stroke-width="1"></path>
    <path d="M10.67 4.57h1.52v4.58h-1.52Z" fill="#000000" stroke-width="1"></path>
    <path d="M9.15 15.24h1.52v1.52H9.15Z" fill="#000000" stroke-width="1"></path>
    <path d="M9.15 3.05h1.52v1.52H9.15Z" fill="#000000" stroke-width="1"></path>
    <path d="M6.1 28.96h3.05v1.52H6.1Z" fill="#000000" stroke-width="1"></path>
    <path d="M7.62 22.86h3.05v1.52H7.62Z" fill="#000000" stroke-width="1"></path>
    <path d="M6.1 19.81h4.57v1.53H6.1Z" fill="#000000" stroke-width="1"></path>
    <path d="M7.62 1.53h1.53v1.52H7.62Z" fill="#000000" stroke-width="1"></path>
    <path d="m7.62 9.15 1.53 0 0 -3.05 -1.53 0 0 -1.53 -1.52 0 0 -1.52 -4.57 0 0 -1.52 -1.53 0L0 6.1l1.53 0 0 1.52 3.04 0 0 1.53 1.53 0 0 4.57 1.52 0 0 -4.57z" fill="#000000" stroke-width="1"></path>
    <path d="M4.57 27.43H6.1v1.53H4.57Z" fill="#000000" stroke-width="1"></path>
    <path d="M4.57 13.72H6.1v3.04H4.57Z" fill="#000000" stroke-width="1"></path>
    <path d="M3.05 25.91h1.52v1.52H3.05Z" fill="#000000" stroke-width="1"></path>
    <path d="M3.05 16.76h1.52v3.05H3.05Z" fill="#000000" stroke-width="1"></path>
    <path d="M1.53 0h6.09v1.53H1.53Z" fill="#000000" stroke-width="1"></path>
    <path d="M1.53 19.81h1.52v6.1H1.53Z" fill="#000000" stroke-width="1"></path>
  </g>
</svg>