<svg xmlns="http://www.w3.org/2000/svg" viewBox="0 0 32 32" id="Pet-Animals-Cat--Streamline-Pixel">
  <desc>
    Pet Animals Cat Streamline Icon: https://streamlinehq.com
  </desc>
  <title>pet-animals-cat</title>
  <g>
    <path d="m30.48 12.955 -1.53 0 0 4.57 -3.04 0 0 1.53 3.04 0 0 1.52 -3.04 0 0 1.52 3.04 0 0 1.53 1.53 0 0 -1.53 1.52 0 0 -1.52 -1.52 0 0 -1.52 1.52 0 0 -1.53 -1.52 0 0 -4.57z" fill="#000000" stroke-width="1"></path>
    <path d="M27.43 23.625h1.52v1.52h-1.52Z" fill="#000000" stroke-width="1"></path>
    <path d="M27.43 9.905h1.52v3.05h-1.52Z" fill="#000000" stroke-width="1"></path>
    <path d="M25.91 25.145h1.52v1.53h-1.52Z" fill="#000000" stroke-width="1"></path>
    <path d="M25.91 6.865h1.52v3.04h-1.52Z" fill="#000000" stroke-width="1"></path>
    <path d="M24.38 3.815h1.53v3.05h-1.53Z" fill="#000000" stroke-width="1"></path>
    <path d="M22.86 26.675h3.05v1.52h-3.05Z" fill="#000000" stroke-width="1"></path>
    <path d="M22.86 22.095h1.52v1.53h-1.52Z" fill="#000000" stroke-width="1"></path>
    <path d="M22.86 19.055h1.52v1.52h-1.52Z" fill="#000000" stroke-width="1"></path>
    <path d="M22.86 2.285h1.52v1.53h-1.52Z" fill="#000000" stroke-width="1"></path>
    <path d="M21.34 3.815h1.52v1.52h-1.52Z" fill="#000000" stroke-width="1"></path>
    <path d="M9.15 28.195h13.71v1.52H9.15Z" fill="#000000" stroke-width="1"></path>
    <path d="M19.81 8.385h1.53v3.05h-1.53Z" fill="#000000" stroke-width="1"></path>
    <path d="M19.81 5.335h1.53v1.53h-1.53Z" fill="#000000" stroke-width="1"></path>
    <path d="M18.29 14.475h1.52v1.53h-1.52Z" fill="#000000" stroke-width="1"></path>
    <path d="M16.76 22.095h1.53v1.53h-1.53Z" fill="#000000" stroke-width="1"></path>
    <path d="m12.19 17.525 0 1.53 1.53 0 0 1.52 3.04 0 0 -1.52 1.53 0 0 -1.53 -6.1 0z" fill="#000000" stroke-width="1"></path>
    <path d="M13.72 23.625h3.04v1.52h-3.04Z" fill="#000000" stroke-width="1"></path>
    <path d="m15.24 8.385 0 3.05 1.52 0 0 -3.05 3.05 0 0 -1.52 -7.62 0 0 1.52 3.05 0z" fill="#000000" stroke-width="1"></path>
    <path d="M10.67 14.475h1.52v1.53h-1.52Z" fill="#000000" stroke-width="1"></path>
    <path d="M10.67 8.385h1.52v3.05h-1.52Z" fill="#000000" stroke-width="1"></path>
    <path d="M10.67 5.335h1.52v1.53h-1.52Z" fill="#000000" stroke-width="1"></path>
    <path d="M9.15 3.815h1.52v1.52H9.15Z" fill="#000000" stroke-width="1"></path>
    <path d="M6.1 26.675h3.05v1.52H6.1Z" fill="#000000" stroke-width="1"></path>
    <path d="M7.62 22.095h1.53v1.53H7.62Z" fill="#000000" stroke-width="1"></path>
    <path d="M7.62 19.055h1.53v1.52H7.62Z" fill="#000000" stroke-width="1"></path>
    <path d="M7.62 2.285h1.53v1.53H7.62Z" fill="#000000" stroke-width="1"></path>
    <path d="M6.1 3.815h1.52v3.05H6.1Z" fill="#000000" stroke-width="1"></path>
    <path d="M4.57 25.145H6.1v1.53H4.57Z" fill="#000000" stroke-width="1"></path>
    <path d="M4.57 6.865H6.1v3.04H4.57Z" fill="#000000" stroke-width="1"></path>
    <path d="M3.05 23.625h1.52v1.52H3.05Z" fill="#000000" stroke-width="1"></path>
    <path d="m6.1 22.095 0 -1.52 -3.05 0 0 -1.52 3.05 0 0 -1.53 -3.05 0 0 -4.57 -1.52 0 0 4.57 -1.53 0 0 1.53 1.53 0 0 1.52 -1.53 0 0 1.52 1.53 0 0 1.53 1.52 0 0 -1.53 3.05 0z" fill="#000000" stroke-width="1"></path>
    <path d="M3.05 9.905h1.52v3.05H3.05Z" fill="#000000" stroke-width="1"></path>
  </g>
</svg>