<svg xmlns="http://www.w3.org/2000/svg" fill="none" viewBox="0 0 14 14" id="Airship--Streamline-Flex">
  <desc>
    Airship Streamline Icon: https://streamlinehq.com
  </desc>
  <g id="airship">
    <path id="Union" fill="#000000" fill-rule="evenodd" d="M4.64828 1.99265C3.28431 0.463523 1.59416 0.339116 0.79597 0.60518 0.674433 0.645693 0.603189 0.771523 0.63098 0.896584l0.82127 3.695706H0.875c-0.414213 0 -0.75 0.33578 -0.75 0.75 0 0.41421 0.335787 0.75 0.75 0.75h0.46624L0.631083 9.28798c-0.027792 0.12506 0.043452 0.25089 0.164989 0.2914 0.741708 0.24724 2.251688 0.15696 3.555068 -1.08052 0.02308 -0.02192 0.04109 -0.04723 0.05394 -0.07445C5.41538 9.23068 6.7205 9.91 8.34744 10.0908c1.86306 0.207 3.25496 -0.30982 4.17936 -1.23433 0.9187 -0.91877 1.3482 -2.21254 1.3482 -3.51428 0.0001 -1.30174 -0.4294 -2.59549 -1.3482 -3.51424C11.6024 0.90347 10.2105 0.38671 8.34744 0.593715 6.86676 0.758234 5.65265 1.3357 4.68474 2.046c-0.00959 -0.0189 -0.02174 -0.03686 -0.03646 -0.05335Zm1.19994 8.73415c-0.33557 -0.1393 -0.72388 0.0838 -0.69648 0.4461 0.02337 0.3091 0.07277 0.612 0.1477 0.9346 0.08173 0.3518 0.29621 0.6574 0.59491 0.8554 0.31654 0.2099 0.67498 0.4119 1.11876 0.4984 0.44969 0.0876 0.9411 0.0483 1.51998 -0.1446 0.72667 -0.2422 1.09891 -0.8389 1.27309 -1.4252 0.08104 -0.2727 -0.15827 -0.517 -0.44266 -0.5088 -0.37103 0.0108 -0.75607 -0.0053 -1.15412 -0.0495 -0.86684 -0.0963 -1.65272 -0.3123 -2.36118 -0.6064Z" clip-rule="evenodd" stroke-width="1"></path>
  </g>
</svg>