<svg xmlns="http://www.w3.org/2000/svg" fill="none" viewBox="0 0 14 14" id="Iron--Streamline-Flex">
  <desc>
    Iron Streamline Icon: https://streamlinehq.com
  </desc>
  <g id="iron--laundry-iron-heat-hotel">
    <path id="Union" fill="#000000" fill-rule="evenodd" d="M10.7768 1.92902c-2.10095 -0.27449 -3.37694 -0.17894 -5.34541 -0.03153l-0.36524 0.02726c-0.41308 0.03061 -0.72313 0.3903 -0.69252 0.80338 0.03062 0.41308 0.39031 0.72313 0.80339 0.69252l0.34517 -0.02573c1.97354 -0.1475 3.11439 -0.23277 5.06031 0.02146 0.6656 0.08695 1.1379 0.43696 1.2828 1.00335l0.1252 0.89016 -3.1548 0 -0.0007 0.00001c-1.74573 0.00164 -3.71122 0.0391 -5.36844 1.23421 -1.17558 0.84777 -2.12841 1.95727 -2.788206 3.23288C0.0815558 10.9308 0.999673 12.0865 2.10089 12.1504l0.2912 0.0169c3.31746 0.1927 5.43767 0.3158 9.23381 0.093 0.4366 -0.0256 0.8517 -0.2165 1.1632 -0.4408 0.2991 -0.2155 0.631 -0.5551 0.7542 -0.9891 0.4222 -1.48676 0.4609 -3.21405 0.0762 -4.70266 -0.0011 -0.01073 -0.0023 -0.02148 -0.0038 -0.03226l-0.2702 -1.92132c-0.0031 -0.02212 -0.0072 -0.04408 -0.0122 -0.06583 -0.3167 -1.35861 -1.4481 -2.0345 -2.5565 -2.17931Z" clip-rule="evenodd" stroke-width="1"></path>
  </g>
</svg>