<svg xmlns="http://www.w3.org/2000/svg" fill="none" viewBox="0 0 14 14" id="Surveillance-Camera--Streamline-Flex">
  <desc>
    Surveillance Camera Streamline Icon: https://streamlinehq.com
  </desc>
  <g id="surveillance-camera">
    <path id="Subtract" fill="#000000" fill-rule="evenodd" d="M13.6924 1.92964c-0.0311 -0.21861 -0.2019 -0.39095 -0.4202 -0.42401l-0.0114 -0.00171 -0.0321 -0.00478 -0.1227 -0.01794c-0.1066 -0.0154 -0.2612 -0.03736 -0.4543 -0.06367 -0.386 -0.05261 -0.9262 -0.12275 -1.5435 -0.1929C9.87862 1.0849 8.32421 0.942871 7.07191 0.942871c-0.90658 0 -1.99273 0.058059 -3.00205 0.131019C1.90537 1.23037 0.291016 3.05807 0.291016 5.20417c0 2.24086 1.745734 4.07894 3.958984 4.21703V9.5c0 0.6904 -0.55964 1.25 -1.25 1.25H1.75v-0.25c0 -0.4142 -0.33579 -0.75 -0.75 -0.75 -0.414214 0 -0.75 0.3358 -0.75 0.75v2c0 0.4142 0.335786 0.75 0.75 0.75 0.41421 0 0.75 -0.3358 0.75 -0.75v-0.25H3c1.51878 0 2.75 -1.2312 2.75 -2.75v-0.05184l2.49773 0.03683c0.83698 0.01233 1.52211 -0.66277 1.52211 -1.49984V5.9792c2.92746 -0.24831 4.11986 -2.661 3.92256 -4.04956Zm-2.4243 6.63341c-0.1591 0 -0.2772 -0.14692 -0.2617 -0.30527 0.0089 -0.08967 0.0134 -0.18061 0.0134 -0.27263v-0.76943c0 -0.11275 0.0756 -0.21102 0.1834 -0.24415 0.7094 -0.21805 1.3194 -0.55223 1.8292 -0.95947 0.1742 -0.13919 0.4507 -0.02143 0.4507 0.20159v0.84936c0 0.82843 -0.6716 1.5 -1.5 1.5h-0.715ZM4.11523 5.625c-0.34517 0 -0.625 0.27982 -0.625 0.625s0.27983 0.625 0.625 0.625h0.88465c0.34518 0 0.625 -0.27982 0.625 -0.625s-0.27982 -0.625 -0.625 -0.625h-0.88465Z" clip-rule="evenodd" stroke-width="1"></path>
  </g>
</svg>