<svg xmlns="http://www.w3.org/2000/svg" fill="none" viewBox="0 0 14 14" id="Ai-Generate-Portrait-Image-Spark--Streamline-Flex-Remix">
  <desc>
    Ai Generate Portrait Image Spark Streamline Icon: https://streamlinehq.com
  </desc>
  <g id="ai-generate-portrait-image-spark--picture-photography-photo-image-artificial-intelligence-ai">
    <path id="Union" fill="#000000" fill-rule="evenodd" d="M9.43876 0.457189c0.47904 -0.609585 1.39284 -0.609585 1.87194 0 0.178 0.226481 0.3013 0.45939 0.4021 0.649781 0.0192 0.03629 0.0376 0.07104 0.0554 0.1039 0.115 0.21232 0.2295 0.39937 0.4254 0.59524 0.1959 0.19586 0.3829 0.31046 0.5952 0.42545 0.0329 0.0178 0.0676 0.03618 0.1039 0.05538 0.1904 0.10079 0.4233 0.22412 0.6498 0.4021 0.6096 0.47905 0.6096 1.39287 0 1.87192 -0.2264 0.17797 -0.4593 0.30127 -0.6497 0.40206 -0.0363 0.01921 -0.0711 0.03762 -0.1039 0.05542 -0.2123 0.11499 -0.3994 0.22959 -0.5953 0.42545 -0.1958 0.19587 -0.3104 0.38292 -0.4254 0.59524 -0.0178 0.03285 -0.0362 0.06758 -0.0554 0.10386 -0.1008 0.19039 -0.2241 0.42334 -0.4021 0.64982 -0.479 0.60959 -1.39286 0.60959 -1.8719 0 -0.17799 -0.22648 -0.30128 -0.45939 -0.40208 -0.64978 -0.01914 -0.03617 -0.03766 -0.07114 -0.0554 -0.1039 -0.115 -0.21232 -0.22959 -0.39937 -0.42546 -0.59524 -0.19586 -0.19586 -0.38291 -0.31046 -0.59523 -0.42545 -0.03287 -0.0178 -0.06761 -0.0362 -0.1039 -0.05541 -0.1904 -0.10079 -0.42331 -0.22409 -0.64979 -0.40207 -0.60958 -0.47905 -0.60958 -1.39287 0 -1.87192 0.22648 -0.17798 0.45938 -0.30128 0.64976 -0.40207 0.03624 -0.01919 0.07108 -0.03763 0.1039 -0.05541 0.21231 -0.11499 0.39936 -0.22959 0.59523 -0.42545 0.19586 -0.19587 0.31046 -0.38292 0.42545 -0.59524 0.01779 -0.03285 0.03618 -0.06758 0.05538 -0.10385 0.1008 -0.190392 0.22411 -0.423351 0.4021 -0.649831ZM5.02075 4.21669c0.34498 -0.01159 0.61524 -0.30066 0.60365 -0.64564 -0.0116 -0.34498 -0.30067 -0.61525 -0.64565 -0.60365 -0.72157 0.02426 -1.42619 0.09276 -2.10216 0.1681 -1.418 0.15806 -2.556563 1.29517 -2.708642 2.71663C0.0781733 6.69124 0 7.57305 0 8.47905c0 0.906 0.0781735 1.78785 0.167948 2.62695 0.15208 1.4214 1.290642 2.5585 2.708642 2.7166 0.84321 0.094 1.73147 0.1775 2.64441 0.1775 0.91293 0 1.80119 -0.0835 2.6444 -0.1775 1.418 -0.1581 2.5566 -1.2952 2.7086 -2.7166 0.0772 -0.7212 0.1457 -1.4737 0.1635 -2.24493 0.008 -0.34508 -0.2653 -0.63128 -0.6104 -0.63924 -0.3451 -0.00795 -0.6313 0.26534 -0.63925 0.61043 -0.01657 0.71876 -0.08072 1.43044 -0.15671 2.14074 -0.06444 0.6023 -0.43409 1.1229 -0.94931 1.4016 -0.21291 -0.4994 -0.54444 -0.9434 -0.97 -1.2913 -0.60353 -0.4933 -1.35905 -0.7627 -2.13853 -0.7627 -0.77948 0 -1.53499 0.2694 -2.13853 0.7627 -0.42696 0.349 -0.76756 0.8223 -0.98576 1.3363 -0.56125 -0.265 -0.97006 -0.8102 -1.03816 -1.4466C1.32236 10.1459 1.25 9.31706 1.25 8.47905c0 -0.838 0.07236 -1.66682 0.16085 -2.49394 0.08941 -0.83563 0.76621 -1.51389 1.60421 -1.6073 0.66646 -0.07429 1.33303 -0.1385 2.00569 -0.16112Zm-0.88441 1.9404c0.35688 -0.35688 0.85733 -0.51914 1.43013 -0.51914 0.5728 0 1.07324 0.16226 1.43013 0.51914 0.35689 0.35689 0.51915 0.85734 0.51915 1.43014 0 0.57279 -0.16226 1.07324 -0.51915 1.43013 -0.35689 0.35689 -0.85733 0.51915 -1.43013 0.51915 -0.5728 0 -1.07325 -0.16226 -1.43013 -0.51915 -0.35689 -0.35689 -0.51915 -0.85734 -0.51915 -1.43013 0 -0.5728 0.16226 -1.07325 0.51915 -1.43014Z" clip-rule="evenodd" stroke-width="1"></path>
  </g>
</svg>