<svg xmlns="http://www.w3.org/2000/svg" fill="none" viewBox="0 0 14 14" id="Notification-Application-2--Streamline-Core">
  <desc>
    Notification Application 2 Streamline Icon: https://streamlinehq.com
  </desc>
  <g id="notification-application-2--android-phone-mobile-device-smartphone-iphone-alert-box">
    <path id="Subtract" fill="#fddc5c" fill-rule="evenodd" d="M10.7734 2.58655V3.625c0 0.38911 0.1186 0.75053 0.3215 1.05014 -0.3545 0.37968 -0.5715 0.88943 -0.5715 1.44986 0 0.90817 0.5697 1.68327 1.3713 1.98743v3.30107c0 0.5202 -0.2067 1.0191 -0.5746 1.387 -0.3678 0.3678 -0.8667 0.5745 -1.38698 0.5745H3.06774c-0.52023 0 -1.01916 -0.2067 -1.38702 -0.5745 -0.36786 -0.3679 -0.57452 -0.8668 -0.57452 -1.387V4.54809c0 -0.52024 0.20666 -1.01916 0.57452 -1.38702 0.36786 -0.36786 0.86679 -0.57452 1.38702 -0.57452h7.70566Z" clip-rule="evenodd" stroke-width="1"></path>
    <path id="Union" fill="#0c098c" fill-rule="evenodd" d="M13.2734 0.625c0 -0.345178 -0.2798 -0.625 -0.625 -0.625 -0.3451 0 -0.625 0.279822 -0.625 0.625v3c0 0.34518 0.2799 0.625 0.625 0.625 0.3452 0 0.625 -0.27982 0.625 -0.625v-3ZM12.6484 7c-0.4832 0 -0.875 -0.39175 -0.875 -0.875s0.3918 -0.875 0.875 -0.875c0.4833 0 0.875 0.39175 0.875 0.875s-0.3917 0.875 -0.875 0.875ZM3.06774 1.96155c-1.42851 0 -2.586539 1.15803 -2.586539 2.58654v6.86541C0.481201 12.842 1.63923 14 3.06774 14h6.86538c1.42848 0 2.58658 -1.158 2.58658 -2.5865V8.73078c0 -0.34518 -0.2799 -0.625 -0.625 -0.625 -0.3452 0 -0.625 0.27982 -0.625 0.625v2.68272c0 0.7381 -0.5984 1.3365 -1.33658 1.3365H3.06774c-0.73815 0 -1.33654 -0.5984 -1.33654 -1.3365V4.54809c0 -0.73815 0.59839 -1.33654 1.33654 -1.33654h7.11536c0.3452 0 0.625 -0.27982 0.625 -0.625s-0.2798 -0.625 -0.625 -0.625H3.06774Z" clip-rule="evenodd" stroke-width="1"></path>
  </g>
</svg>