<svg xmlns="http://www.w3.org/2000/svg" fill="none" viewBox="0 0 14 14" id="Signal-Medium--Streamline-Core">
  <desc>
    Signal Medium Streamline Icon: https://streamlinehq.com
  </desc>
  <g id="signal-medium--smartphone-phone-mobile-device-iphone-signal-medium-wireless-bar-bars-android">
    <path id="Union" fill="#79ee8d" fill-rule="evenodd" d="M4.75 4.5h4V13h-8V7.5h4v-3Z" clip-rule="evenodd" stroke-width="1"></path>
    <path id="Union_2" fill="#0c098c" fill-rule="evenodd" d="M4.75 3.875c-0.34518 0 -0.625 0.27982 -0.625 0.625v2.375H0.75c-0.345178 0 -0.625 0.27982 -0.625 0.625V13c0 0.3452 0.279822 0.625 0.625 0.625h8c0.34518 0 0.625 -0.2798 0.625 -0.625V4.5c0 -0.34518 -0.27982 -0.625 -0.625 -0.625h-4Zm-0.625 8.5v-4.25h-2.75v4.25h2.75Zm1.25 0h2.75v-7.25h-2.75v7.25Zm4.75 0.625c0 -0.3452 0.2798 -0.625 0.625 -0.625h2.5c0.3452 0 0.625 0.2798 0.625 0.625s-0.2798 0.625 -0.625 0.625h-2.5c-0.3452 0 -0.625 -0.2798 -0.625 -0.625Z" clip-rule="evenodd" stroke-width="1"></path>
  </g>
</svg>