<svg xmlns="http://www.w3.org/2000/svg" fill="none" viewBox="0 0 24 24" id="Accessories-Retro-Film-1--Streamline-Freehand">
  <desc>
    Accessories Retro Film 1 Streamline Icon: https://streamlinehq.com
  </desc>
  <path fill="#000000" fill-rule="evenodd" d="M15.1048 10.202c2.9989 0.4399 1.6194 0.3399 6.0879 0.3399 0.8397 0 1.3695 0 1.2295 -0.3999 0.14 -0.38982 -0.3698 -0.33984 -1.2295 -0.39982 -1.9827 -0.31668 -3.9914 -0.44055 -5.998 -0.36987 -0.3119 -0.03685 -0.6256 -0.05687 -0.9396 -0.05998 -0.1005 -0.01514 -0.2029 0.0085 -0.2865 0.06612 -0.0836 0.05762 -0.1422 0.1449 -0.1638 0.24412 -0.0217 0.09923 -0.0047 0.20296 0.0473 0.29016 0.0521 0.08719 0.1354 0.15127 0.233 0.17937 0.4698 0.0699 0.9097 0.0899 1.0197 0.1099Z" clip-rule="evenodd" stroke-width="1"></path>
  <path fill="#000000" fill-rule="evenodd" d="M23.9917 7.28304c0.0369 -0.38121 -0.0501 -0.76416 -0.2482 -1.09194 -0.1981 -0.32778 -0.4967 -0.5829 -0.8514 -0.72743 -1.3039 -0.3573 -2.647 -0.55204 -3.9986 -0.5798 -1.8404 -0.05894 -3.6826 -0.01556 -5.5181 0.12996 -0.2099 -1.08962 -1.5395 -1.19959 -2.5691 -1.31955 -1.2496 -0.13995 -0.99969 0 -0.99969 -0.17993 0.16504 -0.61558 0.16504 -1.26377 0 -1.87935C9.20682 0.315452 6.9376 0.475397 5.59807 0.615348 4.25853 0.7553 4.3385 1.69498 4.17856 2.72462c0 0 -0.05998 0.45984 -0.06998 0.76973 -1.99931 0.08997 -3.258874 0 -2.99896 0.38987 -0.389869 0.65977 3.18889 0.11996 6.99758 0.38986 5.6281 0.39987 4.1386 0.72975 4.4285 1.99931 0.1056 0.96345 0.1056 1.93555 0 2.899 0 2.99901 0.1599 6.13791 -0.11 8.93691 -0.1 1.0696 0.2899 4.1786 -2.3192 4.2785 -0.8497 0 -1.77938 -0.0799 -2.41916 -0.0999 -5.43812 -0.15 -6.0779 -0.3099 -6.41778 -1.3696 -0.357635 -1.3007 -0.476183 -2.6555 -0.349878 -3.9986 0 -2.729 0.459838 -9.32676 0.339878 -9.33676 0.10997 -1.70941 0.25991 -2.49914 0.22993 -2.62909 -0.00441 -0.04786 -0.02107 -0.09378 -0.04837 -0.13334 -0.02731 -0.03955 -0.06434 -0.07141 -0.10753 -0.0925 -0.04319 -0.02109 -0.09108 -0.03071 -0.13906 -0.02792 -0.04798 0.00278 -0.09444 0.01788 -0.1349 0.04383 -0.199927 0.08997 -0.209924 0.39986 -0.239913 0.70976C0.599793 8.13275 0 13.7608 0 18.7291c0 1.3695 0.31989 3.5588 1.62944 4.1286 1.30954 0.5698 4.79834 0.5298 6.09789 0.5298 0.96715 0.0859 1.93884 0.1093 2.90897 0.07 1.9993 -0.23 2.7791 -2.6791 2.849 -3.2389 0.07 -0.5598 0 -1.3796 0.1 -1.9993 0.2299 -2.6991 -0.1899 -12.47572 -0.1799 -12.64566 1.4795 0.18993 2.3192 -0.11996 5.4481 0.19993 1.1631 0.10711 2.3162 0.3043 3.4488 0.58979 0.6198 0.23992 0.6198 0.54981 0.5798 1.20958 -0.04 0.65978 -0.14 1.24957 -0.15 1.64943l-0.1199 3.12893c0 0.9996 0.2899 0.8997 -1.6295 1.5695 -0.8451 0.3585 -1.5726 0.9474 -2.0992 1.6994 -1.0597 1.4195 -0.5298 3.6587 -1.1796 5.0482 -0.1675 0.3393 -0.4366 0.6179 -0.7699 0.7971 -0.3332 0.1792 -0.7141 0.25 -1.0895 0.2026 -0.7397 -0.06 -1.5594 -0.3799 -1.5594 0.1899 -0.0001 0.0884 0.0344 0.1734 0.096 0.2369 0.0615 0.0634 0.1455 0.1004 0.2339 0.103 0.3498 0 0.7497 0.1399 1.1695 0.1799 0.5298 0.0819 1.0718 -0.0066 1.5479 -0.2528 0.4761 -0.2461 0.8618 -0.6372 1.1012 -1.1167 0.7498 -1.4395 0.3899 -3.7387 1.2396 -4.7983 1.5195 -1.8994 2.5291 -1.0697 3.7087 -2.2393 0.1707 -0.2333 0.2917 -0.4992 0.3553 -0.7813 0.0636 -0.282 0.0686 -0.5741 0.0146 -0.8581 0.2399 -5.31816 0.2399 -4.37849 0.2399 -5.04826ZM9.10685 3.55433c-1.42284 -0.12031 -2.85188 -0.15036 -4.27852 -0.08997 0.03843 -0.19146 0.06514 -0.38508 0.07997 -0.5798 0.2899 -0.93967 0.17994 -1.16959 0.79973 -1.17959 0.61978 -0.00999 2.92899 -0.21992 3.28886 0.30989 0.35988 0.52982 0 1.14961 0.10996 1.53947Z" clip-rule="evenodd" stroke-width="1"></path>
  <path fill="#000000" fill-rule="evenodd" d="M4.22852 8.80251c-0.05998 0.52982 -0.05998 1.24959 -0.10996 2.06929 -0.04999 0.8197 -1.11962 7.1375 -0.5798 10.6463 0 0.3599 0.91968 0.2699 0.78972 -0.1099 -0.09481 -0.6117 -0.13163 -1.2309 -0.10996 -1.8494 0 -1.9993 0.88969 -6.1779 0.77973 -8.677 -0.09996 -2.19925 -0.15994 -1.44951 0 -1.99932 1.90934 0.08997 3.20889 0 6.09785 -0.08997 0.4699 0 1.1397 0.14995 1.2696 -0.21992 0.2399 -0.65977 -0.9996 -0.51982 -1.2196 -0.54981 -2.47938 -0.27559 -4.97846 -0.32912 -7.46739 -0.15995H1.87933c-0.35988 0 -0.34988 0.37987 0 0.62979 0.76106 0.23006 1.5545 0.33473 2.34919 0.30989Z" clip-rule="evenodd" stroke-width="1"></path>
  <path fill="#000000" fill-rule="evenodd" d="M15.6147 8.38333c0.15 0.31 0.32 0.4 0.4 0.37 0.28 0 0.36 -0.23 0.5 -1 0.0263 -0.21635 0.0069 -0.43579 -0.0568 -0.6442 -0.0638 -0.20841 -0.1704 -0.40115 -0.3132 -0.5658 -0.23 -0.13 -1.15 0.66 -0.53 1.84Z" clip-rule="evenodd" stroke-width="1"></path>
  <path fill="#000000" fill-rule="evenodd" d="M18.8236 8.38333c0.15 0.31 0.32 0.4 0.4 0.37 0.28 0 0.36 -0.23 0.49 -1 0.0309 -0.21572 0.0147 -0.43556 -0.0475 -0.64443 -0.0621 -0.20887 -0.1687 -0.40181 -0.3125 -0.56557 -0.23 -0.13 -1.13 0.66 -0.53 1.84Z" clip-rule="evenodd" stroke-width="1"></path>
</svg>