<svg xmlns="http://www.w3.org/2000/svg" fill="none" viewBox="0 0 24 24" id="Camera-Tripod--Streamline-Freehand">
  <desc>
    Camera Tripod Streamline Icon: https://streamlinehq.com
  </desc>
  <path fill="#000000" fill-rule="evenodd" d="M8.21775 19.7548c-0.87886 1.015 -1.66921 2.1034 -2.36239 3.2533 -0.27027 0.5105 0.36037 0.8008 0.61062 0.3703 0.08008 0 3.24328 -3.7838 3.64372 -4.2643 0.3403 -0.7007 0 -0.9209 -0.61065 -0.5605 -0.61062 0.3603 -1.23125 1.1511 -1.2813 1.2012Z" clip-rule="evenodd" stroke-width="1"></path>
  <path fill="#000000" fill-rule="evenodd" d="M13.443 18.003c0.6407 -0.5305 0.6907 -1.8318 0.3904 -3.1131 1.4215 -0.1201 3.4235 -0.1702 3.3834 -1.6917 0 -1.7818 -2.1621 -1.922 -3.8138 -1.8819 -0.0912 0.0026 -0.1777 0.0406 -0.2413 0.1061 -0.0636 0.0654 -0.0991 0.153 -0.0991 0.2442 0 0.5506 0.6507 0.2202 1.912 0.4705 0.6006 0.1201 1.2112 0.3303 1.3213 0.9309 0.1101 0.6006 -0.5305 0.5906 -1.001 0.6507 -2.3708 0.1486 -4.7492 0.1285 -7.11719 -0.0601 -0.40041 0 -0.37038 -0.6606 -0.12013 -0.8408 0.93095 -0.6607 3.00302 -0.5506 4.09412 -0.5606 0.0388 0.0092 0.079 0.0107 0.1184 0.0044 0.0393 -0.0064 0.077 -0.0204 0.111 -0.0413 0.0339 -0.0209 0.0634 -0.0483 0.0867 -0.0806s0.0401 -0.0689 0.0493 -0.1077 0.0107 -0.079 0.0043 -0.1184c-0.0063 -0.0393 -0.0203 -0.077 -0.0413 -0.1109 -0.0209 -0.034 -0.0483 -0.0634 -0.0806 -0.0868 -0.0323 -0.0233 -0.0689 -0.0401 -0.1076 -0.0493 -2.2123 -0.1401 -5.57567 -0.5305 -5.4055 1.8219 0.01113 0.3003 0.12752 0.5873 0.32881 0.8105 0.20129 0.2233 0.47467 0.3686 0.7723 0.4107 0.63064 0.0801 1.27129 0.1301 1.92195 0.1702l-0.08008 0.6306c-0.06006 0.6607 -0.71072 1.8519 0.33032 2.5226 0 0 0.3804 0.2702 0.4505 0.1801 -0.2885 0.7706 -0.4965 1.569 -0.62066 2.3824 -0.02807 1.0298 0.01876 2.0602 0.14016 3.0832 0.0155 0.0768 0.0532 0.1474 0.1085 0.203 0.0552 0.0556 0.1256 0.0938 0.2023 0.1098 0.0768 0.016 0.1565 0.0091 0.2294 -0.0198 0.0728 -0.029 0.1356 -0.0786 0.1805 -0.1429 0.1902 -0.3403 0.4705 -5.3954 0.4605 -5.4855 0.2928 0.0303 0.588 0.0303 0.8809 0 0 0.08 0.3503 5.2653 0.4704 5.4855 0.0449 0.0643 0.1077 0.1139 0.1806 0.1429 0.0728 0.0289 0.1526 0.0358 0.2293 0.0198 0.0768 -0.016 0.1471 -0.0542 0.2024 -0.1098 0.0553 -0.0556 0.093 -0.1262 0.1085 -0.203 0.3273 -1.8172 0.1543 -3.6891 -0.5005 -5.4155 0.2096 -0.0255 0.4058 -0.1166 0.5605 -0.2603Zm-0.2402 -1.2713c-0.1502 0.7508 -2.4825 0.5106 -2.5626 0.3104 -0.1702 -0.3804 0 -1.0011 0 -1.5116v-0.5906c0.8069 0.0415 1.6155 0.0415 2.4224 0 0.1561 0.5768 0.2036 1.1776 0.1402 1.7718v0.02Z" clip-rule="evenodd" stroke-width="1"></path>
  <path fill="#000000" fill-rule="evenodd" d="M16.4561 21.7769c-0.2202 -0.3003 -0.3904 -0.6206 -0.5806 -0.941 -0.4422 -0.8521 -1.0888 -1.5812 -1.8819 -2.1221 -0.5706 -0.5406 -0.7107 0.0801 -0.4605 0.6907 0.6243 1.0695 1.3518 2.0754 2.1722 3.003 0.5205 0.4905 1.2313 1.5015 1.6016 1.2012 0.3704 -0.3003 -0.5705 -1.4314 -0.8508 -1.8318Z" clip-rule="evenodd" stroke-width="1"></path>
  <path fill="#000000" fill-rule="evenodd" d="M18.6583 2.98785c-0.3403 -1.1912 -2.002 -0.56057 -2.7327 -0.80081 0 -0.09009 -0.1202 -0.29029 -0.1402 -0.37037 -0.0276 -0.44221 -0.1433 -0.87445 -0.3403 -1.271288 -0.1035 -0.166261 -0.2536 -0.298506 -0.4315 -0.380353 -0.1779 -0.0818473 -0.3759 -0.1097013 -0.5695 -0.0801122 -0.0903 0 -0.1769 0.0358572 -0.2407 0.0996842s-0.0997 0.150395 -0.0997 0.24066c0 0.090265 0.0359 0.176833 0.0997 0.240659 0.0638 0.063827 0.1504 0.099685 0.2407 0.099685 0.7707 -0.050051 0.2702 1.661675 1.001 2.002025 0.6203 0.18076 1.2667 0.25521 1.9119 0.22022 0.9209 0.09009 0.5405 0.53054 0.5305 1.26128 -0.2102 4.11416 -0.1001 4.53458 -1.001 4.7548 -0.3704 0.09009 0.5306 0 -8.00807 0.22022 -0.72368 0.08931 -1.45779 0.03833 -2.16219 -0.15015 -0.43043 -0.35035 -0.36036 -1.48149 -0.41041 -2.0821 -0.06006 -1.76178 -0.16016 -2.56259 0.2002 -3.32336 0.23023 -0.50051 0.38039 -0.55056 0.5906 -0.60061 0.66067 -0.14014 3.41347 -0.22022 3.80387 -0.42042 0.3904 -0.20021 0.2402 -0.41042 0.2702 -0.5906 0.2203 -1.421437 0.8809 -1.461477 2.3724 -1.451467 0.0797 0 0.1561 -0.031639 0.2124 -0.087957 0.0563 -0.056318 0.0879 -0.132701 0.0879 -0.212347 0 -0.079645 -0.0316 -0.156028 -0.0879 -0.2123462 -0.0563 -0.0563179 -0.1327 -0.08795692 -0.2124 -0.08795692C12.412 -0.0151844 11.411 -0.0151844 10.8004 0.895736c-0.1839 0.340314 -0.3091 0.709184 -0.3704 1.091104 -3.35339 0.1001 -3.83388 0.14014 -4.27432 0.55056 -0.37787 0.4122 -0.64933 0.91046 -0.7908 1.45146 -0.21888 1.67999 -0.1919 3.3829 0.08008 5.05511 0.1096 0.35042 0.32364 0.65898 0.61345 0.8844 0.28982 0.22543 0.64158 0.35693 1.00819 0.37683 0.68069 0.1102 0.87088 0.0801 8.2383 -0.1601 1.1512 0 2.5926 0 3.1032 -1.11114 0.231 -0.6549 0.333 -1.34837 0.3003 -2.04206 0.1118 -1.3332 0.095 -2.67406 -0.0501 -4.00405Z" clip-rule="evenodd" stroke-width="1"></path>
  <path fill="#000000" fill-rule="evenodd" d="M12.2919 3.68854c-0.6505 0.20511 -1.216 0.61754 -1.6101 1.17427 -0.394 0.55673 -0.595 1.22715 -0.5721 1.90885 0.1101 1.72174 4.004 3.13316 5.4054 0.11011 0.8609 -1.89192 -1.3413 -3.82387 -3.2232 -3.19323Zm2.5025 1.93195c0.0258 0.40017 -0.0849 0.79726 -0.314 1.12636 -0.2291 0.32911 -0.563 0.57076 -0.9473 0.68547 -1.001 0.34035 -2.2723 -0.36036 -2.3123 -0.75075 -0.0531 -0.4573 0.0492 -0.91916 0.2903 -1.31133 0.1557 -0.31872 0.4035 -0.58335 0.7114 -0.75964 0.3078 -0.17629 0.6614 -0.25612 1.0151 -0.22916 0.3537 0.02696 0.6912 0.15947 0.9688 0.38037 0.2775 0.22091 0.4824 0.52004 0.588 0.85868Z" clip-rule="evenodd" stroke-width="1"></path>
  <path fill="#000000" fill-rule="evenodd" d="M8.16771 1.20609c0.16593 -0.02939 0.32977 -0.06951 0.4905 -0.12012C12.2619 -0.195328 6.70624 0.195067 6.73627 0.755634c0.02002 0.390396 1.07108 0.490496 1.43144 0.450456Z" clip-rule="evenodd" stroke-width="1"></path>
</svg>