<svg xmlns="http://www.w3.org/2000/svg" fill="none" viewBox="0 0 24 24" id="Light-Mode-Hdr--Streamline-Freehand">
  <desc>
    Light Mode Hdr Streamline Icon: https://streamlinehq.com
  </desc>
  <path fill="#000000" d="M23.5903 8.32355c-0.1301 -1.57109 0.1801 -3.51244 -1.7812 -4.00278 -2.802 -0.77054 -15.41075 -0.55039 -18.09261 0.1501 -0.08262 0.02334 -0.1529 0.07793 -0.19595 0.15221 -0.04305 0.07427 -0.05548 0.16239 -0.03466 0.24568 0.02083 0.08329 0.07326 0.15519 0.1462 0.20047 0.07294 0.04528 0.16064 0.06037 0.24452 0.04209 2.5818 -0.63044 15.0104 -0.66046 17.6723 0.12008 1.2408 0.37026 0.9306 1.79124 1.0007 3.22224 0.1901 2.89196 0.8806 6.91476 -0.4503 9.47656 -0.5704 1.1008 -2.4918 0.7305 -3.6826 0.8306 -4.3806 0.4065 -8.78318 0.5235 -13.17915 0.3502 -1.5811 -0.07 -3.41237 -0.1601 -4.20292 -1.551 -0.430303 -0.8907 -0.190136 -2.3116 -0.180129 -3.3223 0.050035 -3.0021 0.220149 -5.74403 0.380269 -8.55599 0 -0.07696 -0.03058 -0.15078 -0.085 -0.2052 -0.05443 -0.05442 -0.12824 -0.085 -0.205206 -0.085 -0.076967 0 -0.150781 0.03058 -0.205204 0.085 -0.054423 0.05442 -0.084998 0.12824 -0.084998 0.2052C0.59432 6.45225 -0.056132 15.9188 0.00390978 16.7394 0.0555415 17.3282 0.270131 17.891 0.623627 18.3646c0.353495 0.4737 0.831923 0.8396 1.381673 1.0567 2.66185 1.1408 12.6988 0.7105 16.4915 0.3902 1.441 -0.1301 3.6525 0.3303 4.5631 -1.431 1.5511 -2.912 0.7706 -6.9748 0.5304 -10.05695Z" stroke-width="1"></path>
  <path fill="#000000" d="M3.65643 15.2184c0.20014 -1.2509 0.26018 -1.421 0.45032 -2.812 0.32022 0 0.62043 0.0801 0.94065 0.1001 0.6082 -0.0096 1.21434 -0.0732 1.81126 -0.1902h0.13009c-0.10524 1.0983 -0.06148 2.2058 0.13009 3.2923 0.02686 0.0747 0.07967 0.1371 0.1488 0.176 0.06912 0.0389 0.14993 0.0516 0.22766 0.0358 0.07772 -0.0158 0.14717 -0.059 0.19564 -0.1218 0.04847 -0.0627 0.07273 -0.1409 0.06835 -0.2201 -0.13009 -1.1408 0.34023 -2.0614 0.38026 -4.423V8.59376c0.00113 -0.07077 -0.02364 -0.13952 -0.06965 -0.1933 -0.04601 -0.05378 -0.11009 -0.08889 -0.18018 -0.09873 -0.07009 -0.00984 -0.14136 0.00628 -0.2004 0.04532 -0.05904 0.03903 -0.10177 0.0983 -0.12017 0.16665 -0.81056 3.4124 -0.35024 3.1922 -0.66046 3.1722 -0.43019 -0.1838 -0.89472 -0.2736 -1.36243 -0.2632 -0.46772 0.0103 -0.92781 0.1206 -1.34945 0.3232 0.13009 -1.3409 0.08005 -2.00134 0.11008 -3.35228 0.00928 -0.07697 -0.01238 -0.15447 -0.06024 -0.21546 -0.04785 -0.061 -0.11798 -0.10048 -0.19494 -0.10977 -0.07697 -0.00929 -0.15447 0.01238 -0.21546 0.06023 -0.061 0.04786 -0.10048 0.11798 -0.10977 0.19495 -0.60815 2.22773 -0.85147 4.53923 -0.7205 6.84473 0.00628 0.0784 0.04033 0.152 0.09603 0.2075 0.0557 0.0556 0.1294 0.0894 0.20782 0.0954 0.07842 0.0061 0.15642 -0.0161 0.21996 -0.0624 0.06354 -0.0464 0.10845 -0.1139 0.12664 -0.1904Z" stroke-width="1"></path>
  <path fill="#000000" d="M11.4418 15.0482c-0.0503 0.0604 -0.0773 0.1369 -0.0763 0.2155 0.0011 0.0787 0.0301 0.1544 0.082 0.2135 0.0519 0.0591 0.1232 0.0978 0.201 0.109 0.0779 0.0112 0.1572 -0.0057 0.2236 -0.0477 1.2109 -1.0007 2.752 -2.2916 2.9021 -3.8527 0.0357 -0.7531 -0.1612 -1.499 -0.564 -2.1363 -0.4028 -0.63735 -0.992 -1.13527 -1.6876 -1.42614 -0.404 -0.19035 -0.8567 -0.25212 -1.2969 -0.17696 -0.4403 0.07516 -0.8468 0.28363 -1.1648 0.59725 -0.37027 0.48033 0 0.33023 0.2101 7.00485 -0.0079 0.0419 -0.0064 0.0851 0.0043 0.1264 0.0107 0.0413 0.0303 0.0797 0.0576 0.1125 0.0272 0.0329 0.0613 0.0593 0.0999 0.0774 0.0386 0.0182 0.0808 0.0276 0.1234 0.0276 0.0427 0 0.0848 -0.0094 0.1234 -0.0276 0.0386 -0.0181 0.0728 -0.0445 0.1 -0.0774 0.0272 -0.0328 0.0469 -0.0712 0.0576 -0.1125 0.0107 -0.0413 0.0121 -0.0845 0.0042 -0.1264 0.1701 -4.0028 0.1501 -2.7019 0.1401 -5.9241 0 -0.12008 -0.1901 -0.59041 0 -0.56039 0.1902 0.03002 0 0 0 0.08006 0.2302 -0.23016 0.8706 -0.16011 1.1909 0 0.4859 0.21227 0.9027 0.55625 1.2033 0.99303 0.3007 0.4368 0.4731 0.949 0.4978 1.4787 -0.08 1.2308 -1.521 2.5818 -2.4317 3.4324Z" stroke-width="1"></path>
  <path fill="#000000" d="M20.0178 8.78388c-1.0007 -1.70118 -3.0021 -0.90062 -3.7126 0.69048 -0.7805 1.83124 -0.2101 3.91274 0.2101 5.83404 0.0146 0.0757 0.0587 0.1424 0.1225 0.1856 0.0638 0.0431 0.1421 0.0592 0.2178 0.0446 0.0756 -0.0146 0.1424 -0.0587 0.1855 -0.1225 0.0432 -0.0638 0.0592 -0.1421 0.0446 -0.2178 -0.3102 -1.6511 -0.6304 -3.8426 0.1301 -5.29364 0.3803 -0.75052 1.371 -1.40097 1.8513 -0.57039 1.0808 1.82123 -1.8413 2.39163 -1.9413 2.49173 -0.0473 0.0448 -0.0843 0.0993 -0.1085 0.1597 -0.0242 0.0605 -0.035 0.1255 -0.0316 0.1905 0 0.3303 0.11 0.3103 1.2809 1.0007 0.6932 0.6324 1.3356 1.3183 1.9213 2.0515 0.0593 0.0526 0.1355 0.0822 0.2147 0.0833 0.0793 0.0011 0.1563 -0.0264 0.217 -0.0774 0.0607 -0.051 0.101 -0.1221 0.1136 -0.2003 0.0126 -0.0783 -0.0033 -0.1585 -0.045 -0.2259 -0.5964 -0.9248 -1.3323 -1.7518 -2.1815 -2.4517 1.9214 -0.7305 2.2816 -2.2916 1.5111 -3.57252Z" stroke-width="1"></path>
</svg>