<svg xmlns="http://www.w3.org/2000/svg" fill="none" viewBox="0 0 48 48" id="Mail-Notification--Streamline-Plump-Remix">
  <desc>
    Mail Notification Streamline Icon: https://streamlinehq.com
  </desc>
  <g id="mail-notification--inbox-envelope-email-message-notify-notification-alert-ping">
    <path id="Union" fill="#000000" fill-rule="evenodd" d="M27.25 10.75c0 -5.52285 4.4772 -10 10 -10 5.5229 0 10 4.47715 10 10 0 5.5228 -4.4771 10 -10 10 -5.5228 0 -10 -4.4772 -10 -10Zm10 13c-7.1796 0 -12.9998 -5.8201 -13 -12.9997 -0.1652 -0.0002 -0.3316 -0.0003 -0.499 -0.0003 -8.0006 0 -13.4193 0.2475 -16.62318 0.4633 -3.0395 0.2047 -5.53366 2.4685 -5.8542 5.5845C1.01184 19.3426 0.75 23.2601 0.75 28.75s0.26184 9.4074 0.52362 11.9522c0.32054 3.116 2.8147 5.3798 5.85421 5.5845 3.20387 0.2158 8.62257 0.4633 16.62317 0.4633 8.0005 0 13.4193 -0.2475 16.6231 -0.4633 3.0395 -0.2047 5.5337 -2.4685 5.8542 -5.5845 0.2618 -2.5448 0.5236 -6.4623 0.5236 -11.9522 0 -3.6125 -0.1133 -6.5442 -0.2655 -8.8519 -2.3559 2.3786 -5.6241 3.8519 -9.2364 3.8519Zm5.4697 1.7856c-0.1586 0.0709 -0.3254 0.1452 -0.4998 0.2225 -1.4895 0.6598 -3.5359 1.5403 -5.7607 2.4216 -2.2224 0.8804 -4.6356 1.7666 -6.856 2.4342 -2.1933 0.6595 -4.2944 1.1361 -5.8539 1.1361 -1.5594 0 -3.6606 -0.4766 -5.8539 -1.1361 -2.2203 -0.6676 -4.6336 -1.5538 -6.8559 -2.4342 -2.22478 -0.8812 -4.27113 -1.7618 -5.7606 -2.4216 -0.17324 -0.0767 -0.33899 -0.1505 -0.49666 -0.221C4.7616 26.5376 4.75 27.6079 4.75 28.75c0 5.363 0.2558 9.1435 0.50262 11.5429 0.11243 1.0929 0.96195 1.9233 2.14398 2.0029 3.1072 0.2092 8.4359 0.4542 16.3544 0.4542 7.9184 0 13.2472 -0.245 16.3544 -0.4542 1.182 -0.0796 2.0315 -0.91 2.1439 -2.0029 0.2469 -2.3994 0.5026 -6.1799 0.5026 -11.5429 0 -1.1426 -0.0116 -2.2134 -0.0322 -3.2144Z" clip-rule="evenodd" stroke-width="1"></path>
  </g>
</svg>