<svg xmlns="http://www.w3.org/2000/svg" fill="none" viewBox="0 0 48 48" id="Sad-Face--Streamline-Plump-Remix">
  <desc>
    Sad Face Streamline Icon: https://streamlinehq.com
  </desc>
  <g id="sad-face--smiley-chat-message-emoji-sad-face-unsatisfied">
    <path id="Union" fill="#000000" fill-rule="evenodd" d="M4.75 24C4.75 13.3685 13.3685 4.75 24 4.75S43.25 13.3685 43.25 24 34.6315 43.25 24 43.25 4.75 34.6315 4.75 24ZM24 0.75C11.1594 0.75 0.75 11.1594 0.75 24S11.1594 47.25 24 47.25 47.25 36.8406 47.25 24 36.8406 0.75 24 0.75ZM17.5 17c0 -1.3807 -1.1193 -2.5 -2.5 -2.5s-2.5 1.1193 -2.5 2.5v2c0 1.3807 1.1193 2.5 2.5 2.5s2.5 -1.1193 2.5 -2.5v-2Zm13 0c0 -1.3807 1.1193 -2.5 2.5 -2.5s2.5 1.1193 2.5 2.5v2c0 1.3807 -1.1193 2.5 -2.5 2.5s-2.5 -1.1193 -2.5 -2.5v-2ZM24 29.5c-3.0376 0 -5.5 2.4624 -5.5 5.5 0 1.3807 -1.1193 2.5 -2.5 2.5s-2.5 -1.1193 -2.5 -2.5c0 -5.799 4.701 -10.5 10.5 -10.5S34.5 29.201 34.5 35c0 1.3807 -1.1193 2.5 -2.5 2.5s-2.5 -1.1193 -2.5 -2.5c0 -3.0376 -2.4624 -5.5 -5.5 -5.5Z" clip-rule="evenodd" stroke-width="1"></path>
  </g>
</svg>