<svg xmlns="http://www.w3.org/2000/svg" fill="none" viewBox="0 0 24 24" id="Content-Typewriter--Streamline-Freehand">
  <desc>
    Content Typewriter Streamline Icon: https://streamlinehq.com
  </desc>
  <path fill="#0c6fff" fill-rule="evenodd" d="M6.70191 17.4091c-0.06999 0.2799 3.44919 0.4699 3.70909 0.4799 1.7896 0.08 2.7294 0 5.4688 -0.13 0.3799 -0.06 1.0697 0.14 1.0797 -0.3599 0.01 -0.4999 -0.6898 -0.3299 -1.0797 -0.4099 -2.1652 -0.2308 -4.3467 -0.2676 -6.51851 -0.11 -1.56964 0.12 -2.85934 0.06 -2.65938 0.5299Z" clip-rule="evenodd" stroke-width="1"></path>
  <path fill="#0c6fff" fill-rule="evenodd" d="M6.6621 14.8799c0.19 -0.66 -0.36 -1.33 -1.34 -1.06 -0.57 0.16 -0.51 1.16 -0.09 1.47 0.11509 0.0871 0.24887 0.1462 0.39075 0.1727 0.14188 0.0264 0.28797 0.0195 0.4267 -0.0203 0.13874 -0.0398 0.26631 -0.1113 0.37263 -0.2089 0.10631 -0.0976 0.18845 -0.2186 0.23992 -0.3535Z" clip-rule="evenodd" stroke-width="1"></path>
  <path fill="#0c6fff" fill-rule="evenodd" d="M5.15257 17.9993c0.19 -0.66 -0.36 -1.32 -1.35 -1.05 -0.57 0.15 -0.51 1.16 -0.09 1.46 0.11524 0.0891 0.24982 0.1499 0.39287 0.1775 0.14305 0.0275 0.29058 0.0211 0.43069 -0.0188 0.14012 -0.0399 0.2689 -0.1121 0.37598 -0.2109 0.10707 -0.0988 0.18943 -0.2214 0.24046 -0.3578Z" clip-rule="evenodd" stroke-width="1"></path>
  <path fill="#0c6fff" fill-rule="evenodd" d="M14.4304 14.8799c0.19 -0.66 -0.36 -1.33 -1.35 -1.06 -0.57 0.16 -0.51 1.16 -0.09 1.47 0.1159 0.0871 0.2505 0.1461 0.393 0.1725 0.1426 0.0265 0.2893 0.0196 0.4287 -0.0201 0.1395 -0.0397 0.2678 -0.1112 0.3751 -0.2087 0.1072 -0.0976 0.1905 -0.2186 0.2432 -0.3537Z" clip-rule="evenodd" stroke-width="1"></path>
  <path fill="#0c6fff" fill-rule="evenodd" d="M10.8911 14.83c0.19 -0.66 -0.36 -1.32 -1.35001 -1.06 -0.57 0.16 -0.51 1.17 -0.09 1.47 0.11595 0.087 0.25046 0.1461 0.39301 0.1725 0.14255 0.0264 0.2893 0.0195 0.4287 -0.0202 0.1395 -0.0397 0.2678 -0.1111 0.3751 -0.2087 0.1072 -0.0975 0.1905 -0.2185 0.2432 -0.3536Z" clip-rule="evenodd" stroke-width="1"></path>
  <path fill="#0c6fff" fill-rule="evenodd" d="M18.6495 14.83c0.19 -0.66 -0.36 -1.32 -1.35 -1.06 -0.56 0.16 -0.5 1.17 -0.09 1.47 0.1152 0.0891 0.2498 0.1499 0.3928 0.1775 0.1431 0.0276 0.2906 0.0211 0.4307 -0.0187 0.1401 -0.0399 0.2689 -0.1122 0.376 -0.211 0.1071 -0.0988 0.1894 -0.2213 0.2405 -0.3578Z" clip-rule="evenodd" stroke-width="1"></path>
  <path fill="#0c6fff" fill-rule="evenodd" d="M18.8988 18.2993c0.1153 0.0891 0.2498 0.1499 0.3929 0.1775 0.143 0.0275 0.2906 0.0211 0.4307 -0.0188 0.1401 -0.0399 0.2689 -0.1121 0.376 -0.2109 0.107 -0.0988 0.1894 -0.2214 0.2404 -0.3578 0.19 -0.66 -0.36 -1.32 -1.35 -1.06 -0.56 0.17 -0.51 1.17 -0.09 1.47Z" clip-rule="evenodd" stroke-width="1"></path>
  <path fill="#0c6fff" fill-rule="evenodd" d="M5.25202 7.65137c-0.12997 -0.99977 -0.32992 -2.26947 -0.37991 -3.39921 1.10974 0.4499 2.91932 0.99977 3.8491 0.36992 0.57987 -0.39991 0.4399 -1.15973 0.09998 -3.32923 2.61941 -0.09998 5.21881 -0.22995 7.25831 -0.12997 0.4316 -0.02825 0.865 -0.00137 1.2897 0.07998 0.6599 0.49988 0.6599 4.33899 0.6699 6.43851 0 0.8598 0.6998 0.8498 0.7198 0 0.06 -1.99954 0.09 -3.27924 0 -4.26901 0.0613 -0.81743 -0.0512 -1.63857 -0.3299 -2.40944 -0.0913 -0.227584 -0.2428 -0.426009 -0.4383 -0.573968 -0.1955 -0.147959 -0.4277 -0.239863 -0.6715 -0.265841 -2.3194 -0.419902 -9.10787 0.099977 -9.58776 0.12997C6.58171 0.413053 4.40222 1.88271 4.11228 3.20241c-0.18995 0.81981 0.36992 3.51918 0.54988 4.53894 0.01867 0.07183 0.0633 0.13418 0.12527 0.17501 0.06197 0.04083 0.13688 0.05723 0.21024 0.04604 0.07336 -0.01119 0.13997 -0.04918 0.18695 -0.10663 0.04698 -0.05745 0.07099 -0.13027 0.0674 -0.2044Zm2.55941 -6.31853h0.24994c0.057 0.79212 0.057 1.58732 0 2.37945 -1.05762 0.2262 -2.15553 0.17801 -3.18926 -0.13997 0.12997 -0.98977 2.1295 -2.19949 2.93932 -2.23948Z" clip-rule="evenodd" stroke-width="1"></path>
  <path fill="#020202" fill-rule="evenodd" d="M23.7978 21.3682c-0.2723 -1.1278 -0.6714 -2.2212 -1.1897 -3.2592 -1.0597 -1.8296 -1.2697 -3.6892 -2.8293 -4.9989l0.2199 -0.11c0.6899 0.9998 3.0893 1.1598 3.4792 -0.0899 0.0651 -0.2762 0.0651 -0.5637 0 -0.8398 -0.0149 -0.391 0.0052 -0.7824 0.06 -1.1698 -0.0272 -0.577 -0.128 -1.14813 -0.2999 -1.69957 -0.31 -0.75982 -0.9198 -1.16973 -2.1395 -1.05975 -0.7899 0.06998 -1.5997 0.27993 -1.6197 1.06975 -3.1571 -0.16555 -6.3207 -0.16555 -9.4778 0 -0.66981 0 -1.38964 -0.05999 -2.08948 -0.06999 -0.69984 -0.00999 -1.60963 0.14997 -3.68914 0.21995 0.09997 -0.91978 -0.61986 -1.18972 -1.54964 -1.2797 -0.42194 -0.12011 -0.87344 -0.07921 -1.26693 0.11476 -0.39348 0.19397 -0.700889 0.52718 -0.862579 0.935C0.28699 10.404 0.22296 11.7082 0.353275 13.0001c0.051449 0.1129 0.127553 0.2128 0.222714 0.2924 0.09516 0.0796 0.206955 0.1369 0.327158 0.1675 0.408283 0.1222 0.837923 0.156 1.260283 0.0991 0.42236 -0.0569 0.82774 -0.2031 1.18915 -0.429 0.14336 0.0943 0.30253 0.1621 0.46989 0.2 -1.93955 2.4294 -2.62939 4.8988 -3.4492 7.7682 -0.2999304 0.9997 -0.509882 2.3394 0.509882 2.6294 1.439668 0.4099 5.168798 0.1499 7.808188 0.1299 2.19946 0 5.30876 0.21 7.80816 0.12 5.6887 -0.2399 7.8182 0.8398 7.2983 -2.6094ZM20.0687 9.15104c0.09 -0.28993 1.4897 -0.25994 1.8696 0 0.3799 0.25994 0.3399 1.09976 0.4099 1.50966 0.4199 2.1695 0 2.3095 -0.9998 2.2095 -0.2455 -0.0169 -0.4859 -0.0779 -0.7098 -0.18 -0.18 -0.09 -0.17 0 -0.2 -0.1899 0.6899 -0.9098 0.5899 -2.77939 -0.4199 -3.1493 0.0082 -0.06849 0.025 -0.13568 0.05 -0.19996ZM3.12263 10.9106c-0.15464 0.5287 -0.19553 1.0841 -0.11997 1.6297 -0.27124 0.131 -0.56857 0.199 -0.8698 0.199s-0.59856 -0.068 -0.8698 -0.199c0.25994 -3.31927 0.13997 -3.53922 1.34969 -3.6492 1.20972 -0.10997 0.92978 0.24994 0.99977 0.51988 -0.48989 0.17996 -0.38991 1.12972 -0.48989 1.49962Zm0.63985 1.6596c-0.18995 -0.0699 -0.16996 -0.3499 -0.16996 -0.5498 0 -0.2 0.15997 -1.9296 0.17996 -1.9996 11.63732 0.15 12.99702 -0.13993 15.23642 0.22 0.15 0 0.5399 0.3099 0.6799 0.2299 0.073 0.3293 0.073 0.6705 0 0.9998 -0.26 1.1697 -2.2295 0.8698 -3.8391 0.9998 -0.3799 0 -0.7698 0.06 -1.1598 0.09 -0.0899 -0.9998 -1.7795 -2.3995 -3.5191 -2.0896 -0.6139 0.0931 -1.18542 0.3689 -1.64018 0.7916 -0.45475 0.4226 -0.77161 0.9725 -0.90926 1.5779 -1.62157 0.2316 -3.27295 0.1399 -4.85888 -0.27Zm10.23762 0.03c-1.5496 0.06 -3.1093 0.05 -4.65891 0.18 0 -0.13 0.30993 -0.4799 0.83981 -0.7998 1.4697 -0.9098 3.5592 -0.13 3.8191 0.6198Zm8.9079 9.7978c-0.0699 0.6898 0.9298 0.5998 -14.26665 0.3399 -2.5594 0.06 -6.36852 0.3699 -7.54825 0.08 -0.229944 -0.06 0 -1.2697 0.07998 -1.4997 0.71984 -2.8593 1.3197 -5.3587 3.23925 -7.7982 1.64931 0.2958 3.33184 0.3597 4.99884 0.19 1.51963 -0.08 2.99933 0 4.55893 0 0.5299 0 4.339 -0.18 5.0588 -0.3499 0.4578 0.3661 0.8442 0.8135 1.1398 1.3197 0.6698 1.1497 0.9997 2.5194 1.6896 3.8491 0.2615 0.5656 0.4885 1.1465 0.6798 1.7396 -2.9993 0.3299 -7.6082 -0.18 -11.1874 -0.18 -2.89768 0.2082 -5.80413 0.2683 -8.70796 0.18 -0.07156 0.0036 -0.13944 0.0328 -0.19137 0.0822 -0.05192 0.0493 -0.08445 0.1157 -0.0917 0.187 -0.00725 0.0712 0.01126 0.1428 0.05218 0.2016 0.04092 0.0588 0.10155 0.101 0.17091 0.119 2.91233 0.3026 5.84049 0.4261 8.76794 0.3699 1.6096 0 8.4681 0.3 11.3874 -0.3199 0.1501 0.4818 0.2177 0.9854 0.1999 1.4897h-0.03Z" clip-rule="evenodd" stroke-width="1"></path>
</svg>