<svg xmlns="http://www.w3.org/2000/svg" fill="none" viewBox="0 0 48 48" id="Leaf-Protect--Streamline-Plump-Remix">
  <desc>
    Leaf Protect Streamline Icon: https://streamlinehq.com
  </desc>
  <g id="leaf-protect--nature-environment-leaf-ecology-plant-plants-eco">
    <path id="Union" fill="#000000" fill-rule="evenodd" d="M24.3784 5.3845c-4.8305 0.70005 -9.8435 2.47437 -13.6763 6.3072 -5.98967 5.9897 -6.74221 14.6749 -2.5787 20.3022 2.3362 -4.2215 5.4988 -8.1236 8.7137 -11.4873C23.2577 13.789 30.3119 8.78265 32.9502 7.05411c0.9239 -0.60533 2.1636 -0.34706 2.7689 0.57687 0.6054 0.92393 0.3471 2.16364 -0.5768 2.76902 -2.488 1.63 -9.2747 6.4475 -15.4135 12.8704 -3.4256 3.5841 -6.5243 7.5393 -8.6176 11.6203 2.6827 1.8621 5.9887 2.6382 9.3777 2.3083 1.0994 -0.107 2.0774 0.6975 2.1844 1.7969 0.107 1.0994 -0.6975 2.0773 -1.7969 2.1843 -3.9776 0.3872 -7.984 -0.4397 -11.37035 -2.5571 -0.73047 2.1231 -1.14165 4.2597 -1.14165 6.3767 0 1.1045 -0.89543 2 -2 2s-2 -0.8955 -2 -2c0 -3.0849 0.69914 -6.1225 1.86922 -9.0485C-0.782405 28.5886 0.193471 16.5435 7.8737 8.86327c4.6486 -4.64861 10.5884 -6.66315 15.931 -7.43741 5.3457 -0.774706 10.2508 -0.33245 13.0388 0.0713 2.3135 0.33503 4.0985 2.12332 4.4332 4.43463 0.4665 3.22212 0.99 9.30831 -0.4002 15.63381 -0.2371 1.0789 -1.3038 1.7612 -2.3827 1.5241 -1.0788 -0.2371 -1.7611 -1.3038 -1.5241 -2.3826 1.2437 -5.6588 0.7821 -11.20539 0.3482 -14.20217 -0.081 -0.55964 -0.4903 -0.96834 -1.0477 -1.04907 -2.5757 -0.373 -7.0642 -0.77097 -11.8918 -0.07136Zm3.9929 20.0034C29.868 25.1762 32.1251 25 35.501 25c3.3758 0 5.6329 0.1762 7.1297 0.3879 2.1911 0.3099 3.4932 2.0843 3.6709 4.1043 0.1065 1.2106 0.1994 2.7656 0.1994 4.5078 0 4.8585 -2.5658 9.4426 -6.9387 11.6931C38.2199 46.384 36.7198 47 35.501 47c-1.2189 0 -2.7189 -0.616 -4.0614 -1.3069C27.0667 43.4426 24.501 38.8585 24.501 34c0 -1.7422 0.0929 -3.2972 0.1994 -4.5078 0.1776 -2.02 1.4797 -3.7944 3.6709 -4.1043Zm13.5891 6.5779c0.5333 -0.806 0.3123 -1.8918 -0.4937 -2.4252 -0.8059 -0.5334 -1.8917 -0.3124 -2.4251 0.4936l-4.0234 6.0799 -2.196 -2.5283c-0.6338 -0.7297 -1.7391 -0.8075 -2.4688 -0.1737 -0.7297 0.6338 -0.8074 1.7391 -0.1736 2.4688l3.7058 4.2667c0.3587 0.4129 0.8897 0.6344 1.4354 0.5987 0.5458 -0.0357 1.0434 -0.3245 1.3452 -0.7805l5.2942 -8Z" clip-rule="evenodd" stroke-width="1"></path>
  </g>
</svg>