<svg xmlns="http://www.w3.org/2000/svg" fill="none" viewBox="0 0 48 48" id="Log--Streamline-Plump-Remix">
  <desc>
    Log Streamline Icon: https://streamlinehq.com
  </desc>
  <g id="log--nature-tree-plant-circle-round-log">
    <path id="Union" fill="#000000" fill-rule="evenodd" d="M16.9035 5.71608C17.948 4.85963 19.3114 4.5 20.5 4.5c1.1323 0 2.2908 0.16762 3.393 0.69682 1.1197 0.53767 2.0423 1.38166 2.7987 2.51783 1.0849 1.62955 1.8072 2.90835 2.5731 4.26395 0.24 0.4249 0.4843 0.8574 0.7453 1.3105l8.5332 0.4231c2.9195 0.0266 5.1232 2.1861 6.484 4.6921 1.4115 2.5991 2.2228 6.0529 2.2228 9.7584s-0.8113 7.1593 -2.2228 9.7585c-1.3579 2.5006 -3.5551 4.6562 -6.4654 4.6918 -4.849 0.3214 -9.7244 0.3871 -14.5619 0.3871 -4.8316 0 -9.7009 -0.0656 -14.54395 -0.3859 -2.91915 -0.027 -5.12252 -2.1863 -6.48326 -4.6921C1.56133 35.323 0.75 31.8692 0.75 28.1637s0.81133 -7.1593 2.22279 -9.7585c1.35685 -2.4985 3.55151 -4.6527 6.45823 -4.6917l7.08858 -0.3514c-0.4276 -1.414 -0.8192 -2.7117 -0.9907 -3.37778 -0.463 -1.79816 0.2178 -3.31979 1.3746 -4.26824ZM15.457 17.4196c0.2126 0.3195 0.4104 0.6494 0.5929 0.9856 1.4115 2.5992 2.2228 6.053 2.2228 9.7585 0 1.634 -0.1577 3.2191 -0.4552 4.7036h6.1826c1.1045 0 2 0.8954 2 2 0 1.1045 -0.8955 1.9999 -2 1.9999h-7.4309c-0.1627 0.3652 -0.3359 0.7173 -0.5193 1.0549 -0.1796 0.3308 -0.3739 0.6556 -0.5827 0.9702 2.8285 0.0845 5.674 0.1078 8.5328 0.1078 4.8292 0 9.6203 -0.0663 14.3556 -0.3822 0.0443 -0.003 0.0887 -0.0045 0.1331 -0.0045 0.7876 0 1.9457 -0.6164 3.0235 -2.6011 0.4552 -0.8382 0.846 -1.8434 1.141 -2.9761h-3.1986c-1.1046 0 -2 -0.8954 -2 -2s0.8954 -2 2 -2h3.7776c0.0118 -0.2875 0.0179 -0.5788 0.0179 -0.8735 0 -1.3306 -0.1237 -2.591 -0.3437 -3.7466H30.7615c-1.1046 0 -2 -0.8955 -2 -2 0 -1.1046 0.8954 -2 2 -2h10.8058c-0.0183 -0.0346 -0.0366 -0.0689 -0.0551 -0.103 -1.0778 -1.9847 -2.2359 -2.6011 -3.0235 -2.6011 -0.033 0 -0.066 -0.0009 -0.099 -0.0025l-9.525 -0.4722c-0.761 -0.0378 -1.4442 -0.4575 -1.8256 -1.1029 -0.5337 -0.9028 -0.9544 -1.6487 -1.3429 -2.3377 -0.7176 -1.2724 -1.326 -2.3511 -2.3341 -3.86539 -0.4184 -0.62845 -0.8201 -0.94596 -1.2006 -1.12863C21.7635 8.61156 21.2459 8.5 20.5 8.5c-0.2136 0 -0.4375 0.03429 -0.6393 0.09851 -0.2042 0.065 -0.3429 0.14663 -0.421 0.21071 -0.0309 0.02534 -0.048 0.04401 -0.0567 0.05496 0 0.02017 0.0032 0.05929 0.0196 0.12277 0.1555 0.60394 0.5202 1.80945 0.9433 3.20825l0.0005 0.0016c0.2086 0.6895 0.4313 1.4258 0.6502 2.1601 0.4178 1.4018 -0.5909 2.8174 -2.0448 2.8895l-3.4948 0.1732Zm3.9275 -8.57247v0.00134c-0.0002 0.00119 -0.0005 0.00314 -0.0012 0.0058 0.0004 -0.00498 0.001 -0.00725 0.0012 -0.00714Z" clip-rule="evenodd" stroke-width="1"></path>
  </g>
</svg>