<svg xmlns="http://www.w3.org/2000/svg" fill="none" viewBox="0 0 48 48" id="Potted-Flower--Streamline-Plump-Remix">
  <desc>
    Potted Flower Streamline Icon: https://streamlinehq.com
  </desc>
  <g id="potted-flower--nature-flower-plant-tree-pot">
    <path id="Union" fill="#000000" fill-rule="evenodd" d="M24 1c-3.3753 0 -6.3129 1.85737 -7.853 4.60105C11.8182 6.25373 8.5 9.9893 8.5 14.5c0 2.2291 0.81215 4.2703 2.1529 5.8411 -0.1005 0.5387 -0.1529 1.0933 -0.1529 1.6589 0 4.9706 4.0294 9 9 9 0.4674 0 0.9268 -0.0358 1.3753 -0.1047 -0.0396 0.6963 -0.0781 1.4034 -0.1143 2.1106 -3.1873 0.012 -5.4786 0.0404 -6.9741 0.0657 -0.8433 0.0143 -1.7281 0.2318 -2.4419 0.7183 -0.74 0.5045 -1.2853 1.2992 -1.3363 2.3492 -0.0057 0.1164 -0.0087 0.2367 -0.0087 0.3609s0.003 0.2445 0.0087 0.3609c0.066 1.3589 0.9271 2.2246 1.9201 2.6717 0.2188 1.1628 0.5102 2.593 0.8362 3.8809 0.5478 2.1645 2.4574 3.4649 4.5762 3.5189C18.7903 46.9693 20.9204 47 24 47s5.2097 -0.0307 6.6588 -0.0676c2.1188 -0.054 4.0284 -1.3544 4.5762 -3.5189 0.326 -1.2879 0.6174 -2.7181 0.8362 -3.8809 0.993 -0.4471 1.8541 -1.3128 1.9201 -2.6717 0.0057 -0.1164 0.0087 -0.2367 0.0087 -0.3609s-0.003 -0.2445 -0.0087 -0.3609c-0.051 -1.05 -0.5963 -1.8447 -1.3364 -2.3492 -0.7137 -0.4865 -1.5985 -0.704 -2.4418 -0.7183 -1.4955 -0.0253 -3.7868 -0.0537 -6.9741 -0.0657 -0.0363 -0.7072 -0.0748 -1.4143 -0.1144 -2.1106 0.4486 0.0689 0.9079 0.1047 1.3754 0.1047 4.9706 0 9 -4.0294 9 -9 0 -0.5656 -0.0524 -1.1202 -0.1529 -1.6589C38.6879 18.7703 39.5 16.7291 39.5 14.5c0 -4.5107 -3.3182 -8.24626 -7.647 -8.89895C30.3129 2.85737 27.3753 1 24 1Zm-4.6724 7.21455C20.0477 6.33167 21.8708 5 24 5c2.1292 0 3.9523 1.33167 4.6724 3.21455 0.2946 0.77037 1.0319 1.28087 1.8567 1.28553C33.277 9.51562 35.5 11.7483 35.5 14.5c0 1.493 -0.6519 2.8312 -1.6931 3.7504 -0.6046 0.5336 -0.8295 1.3782 -0.5704 2.1419 0.1703 0.502 0.2635 1.0419 0.2635 1.6077 0 2.7614 -2.2386 5 -5 5 -1.2256 0 -2.3436 -0.4384 -3.2135 -1.1692 -0.7438 -0.6249 -1.8291 -0.6249 -2.573 0C21.8436 26.5616 20.7256 27 19.5 27c-2.7614 0 -5 -2.2386 -5 -5 0 -0.5658 0.0932 -1.1057 0.2635 -1.6077 0.2591 -0.7637 0.0342 -1.6083 -0.5704 -2.1419C13.1519 17.3312 12.5 15.993 12.5 14.5c0 -2.7517 2.223 -4.98438 4.9709 -4.99992 0.8248 -0.00466 1.5621 -0.51516 1.8567 -1.28553ZM18 17c0 3.3137 2.6863 6 6 6s6 -2.6863 6 -6 -2.6863 -6 -6 -6 -6 2.6863 -6 6Z" clip-rule="evenodd" stroke-width="1"></path>
  </g>
</svg>