<svg xmlns="http://www.w3.org/2000/svg" viewBox="0 0 24 24" id="Common-File-Text-Clock--Streamline-Ultimate">
  <desc>
    Common File Text Clock Streamline Icon: https://streamlinehq.com
  </desc>
  <g id="Common-File-Text-Clock--Streamline-Ultimate.svg">
    <path d="M19.8788 7.5172c0 -0.5358 -0.4344 -0.9702 -0.9703 -0.9703h-6.7921c-0.7469 -0.0024 -1.2163 0.8047 -0.8449 1.4528 0.1734 0.3027 0.496 0.4889 0.8449 0.4878h6.7921c0.5359 0 0.9703 -0.4344 0.9703 -0.9703Z" fill="#000000" stroke-width="1"></path>
    <path d="M23.1972 3.1509 20.8491 0.8028C20.4853 0.4419 19.9934 0.2396 19.481 0.24H8.2352c-1.0717 0 -1.9406 0.8688 -1.9406 1.9406v7.0541c0 0.1339 0.1087 0.2425 0.2426 0.2425 0.3493 0 0.9703 0 1.4361 0.0776 0.1437 0.0183 0.2691 -0.0978 0.2619 -0.2425V2.6657c0 -0.2679 0.2172 -0.4851 0.4852 -0.4851h10.5568c0.1296 -0.0013 0.2547 0.0474 0.3493 0.1358l2.0765 2.0571c0.0884 0.0946 0.1371 0.2197 0.1358 0.3493v12.9826c0 0.2679 -0.2172 0.4851 -0.4851 0.4851h-6.666c-0.1197 -0.0056 -0.2226 0.0843 -0.2329 0.2038 -0.0761 0.4663 -0.1964 0.9244 -0.359 1.3681 -0.0608 0.1577 0.0542 0.3277 0.2232 0.3299h7.5004c1.0718 0 1.9406 -0.8688 1.9406 -1.9406V4.519c0.0004 -0.5124 -0.2019 -1.0043 -0.5628 -1.3681Z" fill="#000000" stroke-width="1"></path>
    <path d="M12.6016 10.9133c-0.2246 0.0045 -0.4406 0.0868 -0.6113 0.2328 -0.0925 0.0944 -0.0925 0.2453 0 0.3396 0.4173 0.3781 0.7915 0.8011 1.1158 1.2614 0.0426 0.0661 0.1155 0.1062 0.1941 0.1068h3.1632c0.7469 -0.0024 1.2111 -0.8125 0.8356 -1.4582 -0.1732 -0.2977 -0.4912 -0.4813 -0.8356 -0.4824Z" fill="#000000" stroke-width="1"></path>
    <path d="M6.7798 10.661c-5.0418 0.0075 -8.1849 5.4701 -5.6575 9.8327 2.5274 4.3626 8.8297 4.3532 11.3441 -0.0169 0.5701 -0.9908 0.8709 -2.1135 0.8726 -3.2566 0.0054 -3.6248 -2.9344 -6.5646 -6.5592 -6.5592Zm0 11.1584c-3.5479 -0.0075 -5.7573 -3.8529 -3.9768 -6.9218 1.7804 -3.0688 6.2153 -3.0595 7.9828 0.0169 0.403 0.7015 0.6143 1.4967 0.6126 2.3057 -0.0053 2.5454 -2.0732 4.6046 -4.6186 4.5992Z" fill="#000000" stroke-width="1"></path>
    <path d="M8.7204 16.2499h-0.786c-0.1084 0.0067 -0.1966 -0.0861 -0.1843 -0.1941v-1.2613c-0.0024 -0.747 -0.8125 -1.2112 -1.4582 -0.8357 -0.2977 0.1732 -0.4813 0.4912 -0.4824 0.8357v2.4257c0 0.5359 0.4344 0.9703 0.9703 0.9703h1.9406c0.7469 0.0024 1.2164 -0.8047 0.845 -1.4527 -0.1735 -0.3027 -0.4961 -0.489 -0.845 -0.4879Z" fill="#000000" stroke-width="1"></path>
  </g>
</svg>