<svg xmlns="http://www.w3.org/2000/svg" fill="none" viewBox="0 0 48 48" id="Grinder--Streamline-Kameleon">
  <desc>
    Grinder Streamline Icon: https://streamlinehq.com
  </desc>
  <path fill="#deeeff" d="M23.9979 47.9983c13.2548 0 23.9999 -10.7451 23.9999 -23.9999S37.2527 -0.00146484 23.9979 -0.00146484 -0.00195312 10.7436 -0.00195312 23.9984c0 13.2548 10.74505312 23.9999 23.99985312 23.9999Z" stroke-width="1"></path>
  <path fill="#6bafff" d="m28.8622 22.2532 6.4922 -8.8407c0.4739 -0.6367 0.4071 -1.5251 -0.1562 -2.0841l-0.0197 -0.0196c-0.5633 -0.559 -1.4522 -0.6183 -2.0853 -0.1401L18.7539 22.2532h10.1083Z" stroke-width="1"></path>
  <path fill="#2e3ecd" fill-rule="evenodd" d="M36.2159 27.4898c0.9639 0 1.7454 -0.7816 1.7454 -1.7455v-1.7454c0 -0.964 -0.7815 -1.7455 -1.7454 -1.7455H11.7796c-0.9639 0 -1.7454 0.7815 -1.7454 1.7455v1.7454c0 0.9639 0.7815 1.7455 1.7454 1.7455 0 2.9092 1.7455 5.2363 5.2364 6.9817l-1.4898 1.4898c-0.1636 0.1636 -0.2557 0.3857 -0.2557 0.617v0.5114c0 0.4822 0.3906 0.8727 0.8727 0.8727h15.709c0.4822 0 0.8728 -0.3905 0.8728 -0.8727v-0.5114c0 -0.2313 -0.0921 -0.4534 -0.2557 -0.617l-1.4898 -1.4898c3.4909 -1.7454 5.2364 -4.0725 5.2364 -6.9817Z" clip-rule="evenodd" stroke-width="1"></path>
</svg>