<svg xmlns="http://www.w3.org/2000/svg" fill="none" viewBox="0 0 48 48" id="Heart-Watch--Streamline-Kameleon">
  <desc>
    Heart Watch Streamline Icon: https://streamlinehq.com
  </desc>
  <path fill="#deeeff" d="M23.9999 47.9978c13.2548 0 23.9998 -10.7451 23.9998 -23.9999S37.2547 -0.00195312 23.9999 -0.00195312C10.7451 -0.00195312 0 10.7431 0 23.9979c0 13.2548 10.7451 23.9999 23.9999 23.9999Z" stroke-width="1"></path>
  <path fill="#2e3ecd" d="M35.048 15.1289c-0.8754 -0.8754 -2.1853 -0.837 -3.007 -0.0149l2.9921 2.9921c0.8592 -0.8591 0.8121 -2.1796 0.0149 -2.9772Z" stroke-width="1"></path>
  <path fill="#2e3ecd" d="m33.5356 18.1083 0.7501 -0.7501 -1.4963 -1.4959 -0.7152 0.7152c0.5302 0.4669 1.0189 0.9792 1.4614 1.5308Z" stroke-width="1"></path>
  <path fill="#2e3ecd" d="M23.9994 13.5249c0.5925 0 1.1751 0.0445 1.7454 0.1261v-1.4352h-3.4909v1.4352c0.5703 -0.0816 1.1529 -0.1261 1.7455 -0.1261Z" stroke-width="1"></path>
  <path fill="#2e3ecd" d="M24.0003 37.9616c6.7479 0 12.2182 -5.4702 12.2182 -12.2181s-5.4703 -12.2181 -12.2182 -12.2181c-6.7478 0 -12.2181 5.4702 -12.2181 12.2181s5.4703 12.2181 12.2181 12.2181Z" stroke-width="1"></path>
  <path fill="#6bafff" d="M24.0002 35.8666c5.5429 0 10.0363 -4.4935 10.0363 -10.0363 0 -5.5429 -4.4934 -10.0364 -10.0363 -10.0364s-10.0363 4.4935 -10.0363 10.0364c0 5.5428 4.4934 10.0363 10.0363 10.0363Z" stroke-width="1"></path>
  <path fill="#2e3ecd" d="M23.9998 23.1252c-1.5285 -3.4909 -5.6727 -2.3895 -5.6727 1.5504 0.0782 3.5869 5.6727 6.3041 5.6727 6.3041s5.5951 -2.7172 5.6727 -6.3041c0 -3.9399 -4.1467 -4.6049 -5.6727 -1.5504Z" stroke-width="1"></path>
  <path fill="#2e3ecd" d="M27.4906 12.6525h-6.9818v-0.9181c0 -0.6676 0.5415 -1.2637 1.2091 -1.2637h4.5635c0.6676 0 1.2092 0.5961 1.2092 1.2637v0.9181Z" stroke-width="1"></path>
</svg>