<svg xmlns="http://www.w3.org/2000/svg" fill="none" viewBox="0 0 48 48" id="Ai-Generate-Variation-Spark--Streamline-Plump">
  <desc>
    Ai Generate Variation Spark Streamline Icon: https://streamlinehq.com
  </desc>
  <g id="ai-generate-variation-spark--module-application-artificial-intelligence-ai">
    <path id="Rectangle 124" fill="#8fbffa" d="M2.152 42.356c0.11 1.722 1.23 3.057 2.941 3.29 1.4 0.191 3.457 0.354 6.407 0.354s5.008 -0.163 6.407 -0.354c1.71 -0.233 2.832 -1.568 2.941 -3.29 0.084 -1.309 0.152 -3.193 0.152 -5.856s-0.068 -4.547 -0.152 -5.856c-0.11 -1.722 -1.23 -3.057 -2.941 -3.29 -1.4 -0.191 -3.457 -0.354 -6.407 -0.354s-5.007 0.163 -6.407 0.354c-1.71 0.233 -2.832 1.568 -2.941 3.29C2.068 31.953 2 33.837 2 36.5s0.068 4.547 0.152 5.856Z" stroke-width="3"></path>
    <path id="Rectangle 126" stroke="#2859c5" stroke-linecap="round" stroke-linejoin="round" d="M2.152 42.356c0.11 1.722 1.23 3.057 2.941 3.29 1.4 0.191 3.457 0.354 6.407 0.354s5.008 -0.163 6.407 -0.354c1.71 -0.233 2.832 -1.568 2.941 -3.29 0.084 -1.309 0.152 -3.193 0.152 -5.856s-0.068 -4.547 -0.152 -5.856c-0.11 -1.722 -1.23 -3.057 -2.941 -3.29 -1.4 -0.191 -3.457 -0.354 -6.407 -0.354s-5.007 0.163 -6.407 0.354c-1.71 0.233 -2.832 1.568 -2.941 3.29C2.068 31.953 2 33.837 2 36.5s0.068 4.547 0.152 5.856Z" stroke-width="3"></path>
    <path id="Rectangle 125" fill="#8fbffa" d="M2.152 5.644c0.11 -1.722 1.23 -3.057 2.941 -3.29C6.493 2.163 8.55 2 11.5 2s5.008 0.163 6.407 0.354c1.71 0.233 2.832 1.568 2.941 3.29 0.084 1.309 0.152 3.193 0.152 5.856s-0.068 4.547 -0.152 5.856c-0.11 1.722 -1.23 3.057 -2.941 3.29 -1.4 0.191 -3.457 0.354 -6.407 0.354s-5.007 -0.163 -6.407 -0.354c-1.71 -0.233 -2.832 -1.568 -2.941 -3.29C2.068 16.047 2 14.163 2 11.5s0.068 -4.547 0.152 -5.856Z" stroke-width="3"></path>
    <path id="Rectangle 127" stroke="#2859c5" stroke-linecap="round" stroke-linejoin="round" d="M2.152 5.644c0.11 -1.722 1.23 -3.057 2.941 -3.29C6.493 2.163 8.55 2 11.5 2s5.008 0.163 6.407 0.354c1.71 0.233 2.832 1.568 2.941 3.29 0.084 1.309 0.152 3.193 0.152 5.856s-0.068 4.547 -0.152 5.856c-0.11 1.722 -1.23 3.057 -2.941 3.29 -1.4 0.191 -3.457 0.354 -6.407 0.354s-5.007 -0.163 -6.407 -0.354c-1.71 -0.233 -2.832 -1.568 -2.941 -3.29C2.068 16.047 2 14.163 2 11.5s0.068 -4.547 0.152 -5.856Z" stroke-width="3"></path>
    <path id="Rectangle 123" fill="#8fbffa" d="M42.356 45.848c1.722 -0.11 3.057 -1.23 3.29 -2.941 0.191 -1.4 0.354 -3.457 0.354 -6.407s-0.163 -5.008 -0.354 -6.407c-0.233 -1.71 -1.568 -2.832 -3.29 -2.941C41.047 27.068 39.163 27 36.5 27s-4.547 0.068 -5.856 0.152c-1.722 0.11 -3.057 1.23 -3.29 2.941 -0.191 1.4 -0.354 3.457 -0.354 6.407s0.163 5.008 0.354 6.407c0.233 1.71 1.568 2.832 3.29 2.941 1.309 0.084 3.193 0.152 5.856 0.152s4.547 -0.068 5.856 -0.152Z" stroke-width="3"></path>
    <path id="Rectangle 128" stroke="#2859c5" stroke-linecap="round" stroke-linejoin="round" d="M42.356 45.848c1.722 -0.11 3.057 -1.23 3.29 -2.941 0.191 -1.4 0.354 -3.457 0.354 -6.407s-0.163 -5.008 -0.354 -6.407c-0.233 -1.71 -1.568 -2.832 -3.29 -2.941C41.047 27.068 39.163 27 36.5 27s-4.547 0.068 -5.856 0.152c-1.722 0.11 -3.057 1.23 -3.29 2.941 -0.191 1.4 -0.354 3.457 -0.354 6.407s0.163 5.008 0.354 6.407c0.233 1.71 1.568 2.832 3.29 2.941 1.309 0.084 3.193 0.152 5.856 0.152s4.547 -0.068 5.856 -0.152Z" stroke-width="3"></path>
    <path id="Star 10" fill="#ffffff" d="M35.623 2.604a1 1 0 0 1 1.754 0l1.992 3.642a6 6 0 0 0 2.385 2.385l3.642 1.992a1 1 0 0 1 0 1.754l-3.642 1.992a6 6 0 0 0 -2.385 2.385l-1.992 3.642a1 1 0 0 1 -1.754 0l-1.992 -3.642a6 6 0 0 0 -2.385 -2.385l-3.642 -1.992a1 1 0 0 1 0 -1.754l3.642 -1.992a6 6 0 0 0 2.385 -2.385l1.992 -3.642Z" stroke-width="3"></path>
    <path id="Star 11" stroke="#2859c5" stroke-linecap="round" stroke-linejoin="round" d="M35.623 2.604a1 1 0 0 1 1.754 0l1.992 3.642a6 6 0 0 0 2.385 2.385l3.642 1.992a1 1 0 0 1 0 1.754l-3.642 1.992a6 6 0 0 0 -2.385 2.385l-1.992 3.642a1 1 0 0 1 -1.754 0l-1.992 -3.642a6 6 0 0 0 -2.385 -2.385l-3.642 -1.992a1 1 0 0 1 0 -1.754l3.642 -1.992a6 6 0 0 0 2.385 -2.385l1.992 -3.642Z" stroke-width="3"></path>
  </g>
</svg>