<svg xmlns="http://www.w3.org/2000/svg" fill="none" viewBox="0 0 14 14" id="Cake-Slice--Streamline-Core">
  <desc>
    Cake Slice Streamline Icon: https://streamlinehq.com
  </desc>
  <g id="cake-slice--cherry-cake-birthday-event-special-sweet-bake">
    <path id="Vector" fill="#ffffff" d="M12.5 6.5h-11c-0.552285 0 -1 0.44772 -1 1v2h13v-2c0 -0.55228 -0.4477 -1 -1 -1Z" stroke-width="1"></path>
    <path id="Vector_2" fill="#d7e0ff" d="M13.5 9.5H0.5v3c0 0.5523 0.447715 1 1 1h11c0.5523 0 1 -0.4477 1 -1v-3Z" stroke-width="1"></path>
    <path id="Vector_3" stroke="#4147d5" stroke-linecap="round" stroke-linejoin="round" d="M12.5 6.5h-11c-0.552285 0 -1 0.44772 -1 1v5c0 0.5523 0.447715 1 1 1h11c0.5523 0 1 -0.4477 1 -1v-5c0 -0.55228 -0.4477 -1 -1 -1Z" stroke-width="1"></path>
    <path id="Vector_4" fill="#d7e0ff" stroke="#4147d5" stroke-linecap="round" stroke-linejoin="round" d="M3.5 6.5c1.10457 0 2 -0.89543 2 -2s-0.89543 -2 -2 -2 -2 0.89543 -2 2 0.89543 2 2 2Z" stroke-width="1"></path>
    <path id="Vector_5" stroke="#4147d5" stroke-linecap="round" stroke-linejoin="round" d="M0.5 9.5h13" stroke-width="1"></path>
    <path id="Vector_6" stroke="#4147d5" stroke-linecap="round" stroke-linejoin="round" d="M3.5 2.5s0 -2 1.5 -2" stroke-width="1"></path>
  </g>
</svg>