<svg xmlns="http://www.w3.org/2000/svg" fill="none" viewBox="0 0 14 14" id="Fork-Spoon--Streamline-Core">
  <desc>
    Fork Spoon Streamline Icon: https://streamlinehq.com
  </desc>
  <g id="fork-spoon--fork-spoon-food-dine-cook-utensils-eat-restaurant-dining-kitchenware">
    <path id="Vector" fill="#d7e0ff" d="M10.6 6.5c1.325 0 2.4 -1.343 2.4 -3s-1.075 -3 -2.4 -3 -2.4 1.343 -2.4 3 1.075 3 2.4 3Z" stroke-width="1"></path>
    <path id="Vector_2" stroke="#4147d5" stroke-linecap="round" stroke-linejoin="round" d="M10.6 6.5c1.325 0 2.4 -1.343 2.4 -3s-1.075 -3 -2.4 -3 -2.4 1.343 -2.4 3 1.075 3 2.4 3Z" stroke-width="1"></path>
    <path id="Vector_3" stroke="#4147d5" stroke-linecap="round" stroke-linejoin="round" d="M10.6 6.5v7" stroke-width="1"></path>
    <path id="Vector_4" stroke="#4147d5" stroke-linecap="round" stroke-linejoin="round" d="M3.5 0.5v13" stroke-width="1"></path>
    <path id="Vector_5" stroke="#4147d5" stroke-linecap="round" stroke-linejoin="round" d="M6 0.5V3a2.5 2.5 0 0 1 -2.5 2.5v0A2.5 2.5 0 0 1 1 3V0.5" stroke-width="1"></path>
  </g>
</svg>