<svg xmlns="http://www.w3.org/2000/svg" fill="none" viewBox="0 0 14 14"><g id="lemon-fruit-seasoning"><path id="union" fill="#37d7ff" d="M10.976 10.975c1.843-1.843 2.064-4.198 1.51-6.036-.1-.334-.049-.694.115-1.002.441-.826.453-1.683-.2-2.336-.654-.654-1.511-.642-2.338-.2a1.325 1.325 0 0 1-1.002.115c-1.837-.552-4.19-.33-6.033 1.512C1.187 4.87.964 7.222 1.516 9.058c.1.334.048.695-.116 1.002-.442.827-.455 1.685.2 2.339.653.653 1.509.642 2.335.2a1.325 1.325 0 0 1 1.002-.114c1.838.555 4.194.335 6.038-1.51Z"></path><path id="union_2" stroke="#3e3e3e" d="M10.975 10.976c1.844-1.844 2.065-4.199 1.511-6.037-.1-.333-.049-.694.115-1.002.441-.826.453-1.682-.2-2.336-.654-.654-1.511-.641-2.338-.2a1.325 1.325 0 0 1-1.002.116c-1.837-.553-4.19-.331-6.033 1.511C1.187 4.87.964 7.222 1.516 9.06c.1.334.048.694-.116 1.002-.442.827-.455 1.684.2 2.338.653.653 1.508.642 2.335.201a1.325 1.325 0 0 1 1.002-.114c1.838.554 4.194.334 6.038-1.51Z"></path><path id="union_3" stroke="#3e3e3e" stroke-linecap="round" d="M8.35 3.408c-1.203-.362-2.745-.217-3.952.99a3.872 3.872 0 0 0-1.12 2.177"></path></g></svg>