<svg xmlns="http://www.w3.org/2000/svg" fill="none" viewBox="0 0 14 14" id="Flash-1--Streamline-Core-Neon">
  <desc>
    Flash 1 Streamline Icon: https://streamlinehq.com
  </desc>
  <g id="flash-1--flash-power-connect-charge-electricity-lightning">
    <path id="Vector" stroke="#c71dff" stroke-linecap="round" stroke-linejoin="round" d="M4.00859 0.5 1.54113 5.81c-0.03412 0.07575 -0.04732 0.15798 -0.03844 0.23947 0.00889 0.08149 0.03958 0.15975 0.0894 0.22789 0.04982 0.06813 0.11722 0.12407 0.1963 0.16289 0.07907 0.03883 0.1674 0.05934 0.2572 0.05975h2.80965l-2.1933 7 9.67016 -8.14c0.0783 -0.06876 0.1324 -0.15716 0.1554 -0.254 0.0231 -0.09683 0.014 -0.19773 -0.0259 -0.28988 -0.04 -0.09215 -0.109 -0.17139 -0.1985 -0.22768 -0.0894 -0.05628 -0.1952 -0.08707 -0.3038 -0.08844H9.09686l2.19334 -4H4.00859Z" stroke-width="1"></path>
  </g>
</svg>