<svg xmlns="http://www.w3.org/2000/svg" fill="none" viewBox="0 0 14 14" id="Flower--Streamline-Core-Neon">
  <desc>
    Flower Streamline Icon: https://streamlinehq.com
  </desc>
  <g id="flower--photos-photo-picture-camera-photography-pictures-flower-image">
    <path id="Vector" stroke="#000cfe" stroke-linecap="round" stroke-linejoin="round" d="M10 6.00002c0 0.79565 -0.31607 1.55871 -0.87868 2.12132 -0.56261 0.56261 -1.32567 0.87868 -2.12132 0.87868s-1.55871 -0.31607 -2.12132 -0.87868C4.31607 7.55873 4 6.79567 4 6.00002v-2.19c-0.00017 -0.08497 0.02132 -0.16858 0.06244 -0.24295 0.04111 -0.07436 0.1005 -0.13701 0.17256 -0.18205 0.07206 -0.04503 0.1544 -0.07096 0.23926 -0.07534 0.08486 -0.00437 0.16944 0.01295 0.24574 0.05034l2.28 1.14 2.28 -1.14c0.07631 -0.03739 0.16088 -0.05471 0.24574 -0.05034 0.08486 0.00438 0.1672 0.03031 0.23926 0.07534 0.07206 0.04504 0.13145 0.10769 0.17257 0.18205 0.04111 0.07437 0.06263 0.15798 0.06243 0.24295v2.19Z" stroke-width="1"></path>
    <path id="Vector_2" stroke="#000cfe" stroke-linecap="round" stroke-linejoin="round" d="M7 9v4" stroke-width="1"></path>
    <path id="Vector_3" stroke="#000cfe" stroke-linecap="round" stroke-linejoin="round" d="m7 13 2.5 -2.5" stroke-width="1"></path>
    <path id="Vector_4" stroke="#000cfe" stroke-linecap="round" stroke-linejoin="round" d="m7 13 -2.5 -2.5" stroke-width="1"></path>
    <path id="Vector_5" stroke="#c71dff" stroke-linecap="round" stroke-linejoin="round" d="m1.92308 13 10.15382 0c0.5098 0 0.9231 -0.4133 0.9231 -0.9231l0 -10.15382C13 1.41328 12.5867 1 12.0769 1L1.92308 1C1.41328 1 1 1.41328 1 1.92308L1 12.0769c0 0.5098 0.41328 0.9231 0.92308 0.9231Z" stroke-width="1"></path>
  </g>
</svg>