<svg xmlns="http://www.w3.org/2000/svg" fill="none" viewBox="0 0 14 14" id="Landscape-2--Streamline-Core-Neon">
  <desc>
    Landscape 2 Streamline Icon: https://streamlinehq.com
  </desc>
  <g id="landscape-2--photos-photo-landscape-picture-photography-camera-pictures-image">
    <path id="Vector" stroke="#000cfe" stroke-linecap="round" stroke-linejoin="round" d="M9.25 6.25c-0.82843 0 -1.5 -0.67157 -1.5 -1.5s0.67157 -1.5 1.5 -1.5c0.8284 0 1.5 0.67157 1.5 1.5s-0.6716 1.5 -1.5 1.5Z" stroke-width="1"></path>
    <path id="Vector 3951" stroke="#000cfe" stroke-linecap="round" stroke-linejoin="round" d="M12.0865 13 4.85382 5.76733 1 9.62115" stroke-width="1"></path>
    <path id="Vector_2" stroke="#c71dff" stroke-linecap="round" stroke-linejoin="round" d="M12.0769 13 1.92308 13C1.41328 13 1 12.5867 1 12.0769L1 1.92308C1 1.41328 1.41328 1 1.92308 1L12.0769 1c0.5098 0 0.9231 0.41328 0.9231 0.92308l0 10.15382c0 0.5098 -0.4133 0.9231 -0.9231 0.9231Z" stroke-width="1"></path>
  </g>
</svg>