<svg xmlns="http://www.w3.org/2000/svg" fill="none" viewBox="0 0 14 14" id="Orientation-Portrait--Streamline-Core-Neon">
  <desc>
    Orientation Portrait Streamline Icon: https://streamlinehq.com
  </desc>
  <g id="orientation-portrait--photos-photo-orientation-portrait-picture-photography-camera-pictures-image">
    <path id="Vector" stroke="#000cfe" stroke-linecap="round" stroke-linejoin="round" d="M8.75 5.75c-0.82843 0 -1.5 -0.67157 -1.5 -1.5s0.67157 -1.5 1.5 -1.5 1.5 0.67157 1.5 1.5 -0.67157 1.5 -1.5 1.5Z" stroke-width="1"></path>
    <path id="Vector 3951" stroke="#000cfe" stroke-linecap="round" stroke-linejoin="round" d="M11.9922 13.3672 4.35779 5.73279 1.51404 8.57654" stroke-width="1"></path>
    <path id="Vector_2" stroke="#c71dff" stroke-linecap="round" stroke-linejoin="round" d="m12.5 12.5 0 -11c0 -0.552285 -0.4477 -1 -1 -1l-9 0c-0.55229 0 -1 0.447715 -1 1l0 11c0 0.5523 0.44771 1 1 1l9 0c0.5523 0 1 -0.4477 1 -1Z" stroke-width="1"></path>
  </g>
</svg>