<svg xmlns="http://www.w3.org/2000/svg" fill="none" viewBox="0 0 14 14" id="Peace-Symbol--Streamline-Core">
  <desc>
    Peace Symbol Streamline Icon: https://streamlinehq.com
  </desc>
  <g id="peace-symbol--religion-peace-war-culture-symbol">
    <path id="Union" fill="#000000" fill-rule="evenodd" d="M2 7.00001c0 -2.40847 1.70936 -4.4177 3.98109 -4.88068v2.7517L2.29796 8.70091C2.10515 8.17017 2 7.59737 2 7.00001Zm1.38943 3.45129c0.68636 0.7141 1.58365 1.224 2.59166 1.4294V7.75636L3.38943 10.4513Zm4.59166 -2.69493v4.12433c1.00801 -0.2054 1.9053 -0.7153 2.59161 -1.4294L7.98109 7.75637Zm3.68311 0.94456c0.1928 -0.53075 0.298 -1.10355 0.298 -1.70092 0 -2.40847 -1.7094 -4.4177 -3.98111 -4.88068v2.75171l3.68311 3.82989ZM0 7.00001C0 3.14446 3.12554 0.0189209 6.98109 0.0189209c3.85551 0 6.98111 3.1255391 6.98111 6.9810891 0 3.85559 -3.1256 6.98109 -6.98111 6.98109C3.12554 13.9811 0 10.8556 0 7.00001Z" clip-rule="evenodd" stroke-width="1"></path>
  </g>
</svg>