<svg xmlns="http://www.w3.org/2000/svg" fill="none" viewBox="0 0 14 14" id="Zodiac-8--Streamline-Core">
  <desc>
    Zodiac 8 Streamline Icon: https://streamlinehq.com
  </desc>
  <g id="zodiac-8--sign-astrology-stars-space-libra">
    <path id="Union" fill="#000000" fill-rule="evenodd" d="M6.99999 0.885986c-1.24448 0 -2.43798 0.494364 -3.31796 1.374344 -0.87929 0.87929 -1.37357 2.07162 -1.37434 3.31505 -0.00148 0.2859 0.02374 0.5701 0.07472 0.84906H1c-0.552285 0 -1 0.44771 -1 1 0 0.55228 0.447715 1 1 1h2.80615c0.35899 0 0.69043 -0.19243 0.86842 -0.50418 0.178 -0.31176 0.17523 -0.695 -0.00726 -1.00415 -0.23807 -0.40333 -0.36236 -0.86366 -0.35964 -1.33201h0.00002v-0.00581c0 -0.71405 0.28365 -1.39884 0.78855 -1.90375 0.50491 -0.5049 1.18971 -0.78855 1.90375 -0.78855s1.39884 0.28365 1.90374 0.78855c0.50491 0.50491 0.78856 1.1897 0.78856 1.90375l0.00027 0.0232c0.01081 0.46587 -0.10423 0.92604 -0.33301 1.33201 -0.17448 0.30963 -0.17151 0.68859 0.0078 0.99545 0.1793 0.30685 0.508 0.49549 0.86345 0.49549H13c0.5523 0 1 -0.44772 1 -1 0 -0.55229 -0.4477 -1 -1 -1h-1.3706c0.0476 -0.28219 0.0688 -0.56933 0.0629 -0.85776 -0.0031 -1.24028 -0.4971 -2.42911 -1.3744 -3.30635C9.43797 1.38035 8.24446 0.885986 6.99999 0.885986ZM1 10.6068c-0.552285 0 -1 0.4477 -1 1 0 0.5522 0.447715 1 1 1h12c0.5523 0 1 -0.4478 1 -1 0 -0.5523 -0.4477 -1 -1 -1H1Z" clip-rule="evenodd" stroke-width="1"></path>
  </g>
</svg>