<svg xmlns="http://www.w3.org/2000/svg" fill="none" viewBox="0 0 14 14" id="Zodiac-9--Streamline-Core">
  <desc>
    Zodiac 9 Streamline Icon: https://streamlinehq.com
  </desc>
  <g id="zodiac-9--sign-astrology-stars-space-gemini">
    <path id="Union" fill="#000000" fill-rule="evenodd" d="M1.74632 0.334417C1.37873 -0.0777663 0.7466 -0.113915 0.334417 0.253676 -0.0777663 0.621268 -0.113915 1.2534 0.253676 1.66558c0.818194 0.91745 1.860704 1.64128 3.036504 2.12154 0.13274 0.05422 0.26684 0.1052 0.40214 0.15292V10.06c-0.1353 0.0477 -0.2694 0.0986 -0.40214 0.1529 -1.1758 0.4802 -2.21831 1.2041 -3.036504 2.1215 -0.367591 0.4122 -0.3314421 1.0443 0.080741 1.4119 0.412184 0.3676 1.044313 0.3315 1.411903 -0.0807 0.60467 -0.678 1.39067 -1.2298 2.30013 -1.6012 0.90957 -0.3716 1.91061 -0.5495 2.92007 -0.5157 0.02231 0.0007 0.04463 0.0007 0.06694 0 1.00946 -0.0338 2.0105 0.1441 2.92007 0.5157 0.90947 0.3714 1.69547 0.9232 2.30017 1.6012 0.3675 0.4122 0.9997 0.4483 1.4119 0.0807 0.4121 -0.3676 0.4483 -0.9997 0.0807 -1.4119 -0.8182 -0.9174 -1.8607 -1.6413 -3.0365 -2.1215 -0.1327 -0.0543 -0.2668 -0.1052 -0.4021 -0.1529V3.94003c0.1353 -0.04771 0.2694 -0.09869 0.4021 -0.15291 1.1758 -0.48026 2.2183 -1.20409 3.0365 -2.12154 0.3676 -0.41218 0.3314 -1.044312 -0.0807 -1.411904 -0.4122 -0.367591 -1.0444 -0.3314423 -1.4119 0.080741 -0.6047 0.678023 -1.3907 1.229723 -2.30017 1.601203 -0.90957 0.37152 -1.91061 0.5495 -2.92007 0.5157 -0.02231 -0.00075 -0.04463 -0.00075 -0.06694 0 -1.00946 0.0338 -2.0105 -0.14418 -2.92007 -0.5157 -0.90946 -0.37148 -1.69546 -0.92318 -2.30013 -1.601203ZM8.30768 4.39752c-0.43268 0.0487 -0.86993 0.06681 -1.30769 0.05373 -0.43775 0.01308 -0.875 -0.00502 -1.30767 -0.05372v5.20493c0.43267 -0.0487 0.86992 -0.0668 1.30767 -0.05373 0.43776 -0.01307 0.87501 0.00503 1.30769 0.05374V4.39752Z" clip-rule="evenodd" stroke-width="1"></path>
  </g>
</svg>