<svg xmlns="http://www.w3.org/2000/svg" fill="none" viewBox="0 0 14 14"><g id="zodiac-2--sign-astrology-stars-space-virgo"><path id="Union" fill="#3e3e3e" fill-rule="evenodd" d="M3.077 2A1.077 1.077 0 0 0 2 3.077v6.23a1 1 0 1 1-2 0v-6.23A3.077 3.077 0 0 1 5.154.807a3.077 3.077 0 0 1 5.106 1.731h.308c2.896 0 4.346 3.501 2.298 5.549l-2.486 2.486A.846.846 0 0 0 12 10.23v-.423a1 1 0 1 1 2 0v.423a2.847 2.847 0 0 1-5.063 1.785l-.73.73a1 1 0 0 1-1.414-1.415l1.515-1.514v-6.74a1.077 1.077 0 0 0-2.154-.006v6.237a1 1 0 1 1-2 0v-6.23A1.077 1.077 0 0 0 3.077 2Zm7.23 5.817 1.145-1.145c.787-.787.23-2.134-.884-2.134h-.26v3.279Z" clip-rule="evenodd"></path></g></svg>