<svg xmlns="http://www.w3.org/2000/svg" fill="none" viewBox="0 0 24 24" id="Arduino-Plus-Minus-1--Streamline-Freehand">
  <desc>
    Arduino Plus Minus 1 Streamline Icon: https://streamlinehq.com
  </desc>
  <path fill="#000000" fill-rule="evenodd" d="M23.519 9.08753c-0.21 -0.58989 -1.9996 -0.68987 -2.6095 -0.59989 -0.4699 0.05999 -0.5199 0.51991 -0.2 0.61989 0.15 0.04999 0.17 0 0.3599 0 0.4995 -0.01447 0.9991 0.02576 1.4898 0.11997 0.1599 0 0.2999 0.19997 0.3699 0.14998 0.4899 1.55972 0.6199 4.51912 -0.3399 5.86892 -0.22 0.3199 -1.2398 -0.06 -1.8197 0.07 -0.5799 0.1299 -0.6099 0.4099 -0.6899 0.8498 -0.1799 0.9498 0 3.6593 -0.3099 3.9993 -0.31 0.3399 -1.9996 0.4699 -2.6595 0.5499 -4.1192 0.5099 -9.66821 -0.22 -14.11737 0.2299 -0.26905 0.033 -0.54207 -0.0009 -0.79493 -0.0985 -0.25285 -0.0977 -0.47775 -0.2561 -0.6548 -0.4614 -0.639884 -1.0198 -0.38993 -13.87739 -0.11998 -16.28694 0.26995 -0.37993 2.19959 -0.57989 2.61951 -0.62988 2.77388 -0.37773 5.56904 -0.5781 8.36847 -0.59989 6.4588 0 7.3486 -0.18996 7.5785 0.79985 0.238 1.25555 0.3519 2.53145 0.34 3.80929 0 0.09016 0.0358 0.17662 0.0996 0.24037 0.0637 0.06375 0.1502 0.09957 0.2403 0.09957 0.0902 0 0.1766 -0.03582 0.2404 -0.09957 0.0637 -0.06375 0.0996 -0.15021 0.0996 -0.24037 0.0318 -1.3397 -0.0687 -2.67928 -0.3 -3.99925 -0.3799 -1.72968 -1.9996 -1.40974 -8.2984 -1.49972 -2.83326 -0.02266 -5.66508 0.13429 -8.47845 0.46991 -1.0498 0.13998 -2.92945 0.27995 -3.449355 1.20978 -0.3999253 0.74986 -0.899832 15.80705 0.109979 17.28675 0.291518 0.3779 0.675756 0.6741 1.115456 0.8598 0.43969 0.1857 0.91991 0.2546 1.39408 0.2 4.21921 -0.4399 9.85819 0.19 14.13739 -0.4199 0.8898 -0.13 2.4695 -0.19 3.1494 -0.8598 0.6798 -0.6699 0.3999 -2.4496 0.4399 -3.8493 0 -0.9998 0 -0.8699 0.5099 -0.8299 0.6899 0.06 1.4697 0.19 1.8796 -0.4099 1.0698 -1.5797 0.9099 -4.7791 0.3 -6.54877Z" clip-rule="evenodd" stroke-width="1"></path>
  <path fill="#000000" fill-rule="evenodd" d="M13.6908 11.0074c-0.1 0.12 0 0.23 0.07 0.37 0.07 0.14 0.07 0 0.15 0.07 0.27 0 0.57 0.14 1 0.19 0 0 0.23 1 0.23 1.06 0 0.25 0.14 0.29 0.3 0.24 0.21 0.1 0.46 0.1 0.4 -0.31 0 -0.08 0.12 -0.72 0.15 -1 1.66 -0.29 1.58 -0.86 -0.1 -1 -0.0171 -0.3669 -0.0948 -0.72841 -0.23 -1.06995 -0.0279 -0.03341 -0.0632 -0.05984 -0.1031 -0.0772 -0.04 -0.01735 -0.0834 -0.02516 -0.1269 -0.0228 -0.35 -0.08 -0.52 0.87995 -0.55 1.17995 -0.415 0.0541 -0.8175 0.1792 -1.19 0.37Z" clip-rule="evenodd" stroke-width="1"></path>
  <path fill="#000000" fill-rule="evenodd" d="M6.55241 10.6872c-1.17 0.27 -1.21 0.13 -1.33 0.47 0 0.1 0 0.22 0.19 0.35 0.37217 0.1228 0.75332 0.2164 1.14 0.28 0.69732 0.01 1.39104 -0.1017 2.05 -0.33 0.04884 0.0085 0.09894 0.0062 0.14679 -0.0067 0.04785 -0.013 0.0923 -0.0362 0.13022 -0.0681 0.03793 -0.0319 0.06842 -0.0718 0.08933 -0.1167 0.02092 -0.0449 0.03176 -0.0939 0.03176 -0.1435 0 -0.0495 -0.01084 -0.0985 -0.03176 -0.1434 -0.02091 -0.045 -0.0514 -0.0848 -0.08933 -0.1167 -0.03792 -0.0319 -0.08237 -0.0552 -0.13022 -0.0681 -0.04785 -0.0129 -0.09795 -0.0152 -0.14679 -0.0068 -0.67357 -0.1428 -1.36572 -0.1766 -2.05 -0.1Z" clip-rule="evenodd" stroke-width="1"></path>
  <path fill="#000000" fill-rule="evenodd" d="M12.741 13.5067c1.2598 1.3397 4.2192 2.0796 5.589 0.4399 0.44 -0.6161 0.7343 -1.3241 0.8608 -2.0706 0.1264 -0.7465 0.0816 -1.5119 -0.131 -2.2386 -0.269 -0.75495 -0.8084 -1.38336 -1.5138 -1.76378 -0.7054 -0.38041 -1.5268 -0.48581 -2.3055 -0.29583 -4.1192 0.57989 -4.3891 4.70911 -7.10863 5.99891 -1.99963 0.9398 -3.64932 0.7098 -4.34919 -1.3698 -0.62988 -1.8196 0.21996 -3.92924 2.31957 -3.94924 0.70693 -0.03034 1.412 0.09345 2.06632 0.36277 0.65432 0.26932 1.24223 0.67775 1.72297 1.19694 0.04849 0.05573 0.11586 0.0916 0.18916 0.10074 0.0733 0.00914 0.1474 -0.0091 0.2081 -0.05121 0.0607 -0.04211 0.1037 -0.10515 0.1208 -0.17701 0.0171 -0.07187 0.0071 -0.14752 -0.0282 -0.21246 -0.52202 -0.62524 -1.17489 -1.12834 -1.91253 -1.47384 -0.73764 -0.3455 -1.54208 -0.52498 -2.35663 -0.52578C0.693257 7.31784 1.74306 17.7359 8.61178 14.5765c3.10942 -1.4497 3.30942 -5.38901 6.79872 -5.9989 0.3057 -0.09416 0.6279 -0.12205 0.9452 -0.08181 0.3174 0.04023 0.6224 0.14767 0.8949 0.31515 0.2725 0.16747 0.5062 0.39113 0.6854 0.65606 0.1792 0.26492 0.2999 0.565 0.354 0.8803 0.1884 1.041 -0.0299 2.1146 -0.6099 2.9994 -0.9998 1.2598 -3.4394 0.6299 -4.4492 -0.3799 -0.0716 -0.065 -0.1661 -0.0988 -0.2626 -0.0942 -0.0966 0.0047 -0.1873 0.0476 -0.2523 0.1192 -0.065 0.0716 -0.0988 0.166 -0.0941 0.2626 0.0047 0.0966 0.0475 0.1873 0.1191 0.2523Z" clip-rule="evenodd" stroke-width="1"></path>
</svg>