<svg xmlns="http://www.w3.org/2000/svg" fill="none" viewBox="0 0 24 24" id="Cables-Usb-Type-C--Streamline-Freehand">
  <desc>
    Cables Usb Type C Streamline Icon: https://streamlinehq.com
  </desc>
  <path fill="#000000" fill-rule="evenodd" d="M12.1837 7.7527c0.0357 0.94391 0.1597 1.8824 0.3705 2.8032 0.2602 0.7408 1.4716 0.5306 2.5528 0.4805 0.5907 0 2.4828 -0.1402 3.0535 -0.2603 0.0759 -0.0272 0.1396 -0.0805 0.1799 -0.1503 0.0403 -0.0698 0.0545 -0.1517 0.0401 -0.231 -0.0145 -0.0793 -0.0566 -0.1509 -0.1188 -0.2021 -0.0623 -0.0512 -0.1408 -0.0786 -0.2214 -0.0773 -0.5606 0.0901 -2.3626 0.1101 -2.9433 0.1101 -0.5806 0 -1.4516 -0.3404 -1.7019 -0.1502 -0.2306 -1.77692 -0.2474 -3.57509 -0.0501 -5.35602 1.2069 -0.18377 2.4239 -0.29409 3.6442 -0.33037 1.6418 0 1.0912 0.41046 1.2614 0.63071 0.1602 0.55062 0.4104 4.07459 0.5306 4.66526 0.0181 0.07369 0.0634 0.13781 0.1268 0.17946 0.0634 0.04166 0.1402 0.05776 0.215 0.04508 0.0749 -0.01268 0.1421 -0.0532 0.1883 -0.11343 0.0461 -0.06023 0.0677 -0.13569 0.0605 -0.21123 -0.0901 -0.65073 -0.1101 -4.09461 -0.2703 -4.7954V4.6492h0.7809c1.6218 0.17019 1.6319 0.08009 1.8121 0.29033 0.1256 0.18529 0.1855 0.40736 0.1701 0.63071 -0.1192 -0.06505 -0.2552 -0.09294 -0.3904 -0.08009 -0.1902 0 -1.1513 0.2703 -1.1213 0.63071 0.0301 0.36041 1.0012 0.58065 1.3916 0.47053 0.0842 -0.00195 0.168 -0.01201 0.2503 -0.03003 0.1201 1.34151 0.1502 1.00112 -0.0901 1.00112 -0.2324 -0.06595 -0.4785 -0.06595 -0.7108 0 -0.0801 0 -0.881 0.1702 -0.7108 0.50057 0 0.06007 0 0.17019 0.1301 0.21024 0.7209 0.26029 0.9411 0.40045 1.2815 0.32036 0.0931 -0.02451 0.1837 -0.05804 0.2703 -0.10012 0.0348 0.28612 0.0075 0.57638 -0.0801 0.85096 -0.1302 -0.15017 -0.5506 0.15017 -0.7108 0.19022 -0.5665 0.14344 -1.1477 0.22071 -1.732 0.23026 -0.079 0.0137 -0.1506 0.05486 -0.2022 0.11621 -0.0517 0.06136 -0.08 0.13902 -0.08 0.21912 0 0.0802 0.0283 0.1579 0.08 0.2192 0.0516 0.0614 0.1232 0.1025 0.2022 0.1162h1.1614c0.4104 0 1.3515 -0.1301 1.4916 -0.1702 0.2244 -0.065 0.4247 -0.1946 0.576 -0.37261 0.1513 -0.17801 0.2469 -0.39656 0.275 -0.62849 0.1121 -0.99913 0.0952 -2.00853 -0.0501 -3.00338 0.03 -0.72885 -0.2127 -1.44271 -0.6807 -2.00226 -0.276 -0.24158 -0.6347 -0.36712 -1.0012 -0.35039 -0.8102 0.00952 -1.6191 0.06635 -2.4227 0.17019 -0.0254 -0.09593 -0.0659 -0.18718 -0.1201 -0.27031 -0.5607 -0.78088 -5.1659 -0.39044 -6.1069 -0.13014 -0.6007 0.1802 -0.6307 1.06119 -0.6507 1.72194v1.63184l0.07 0.72081Z" clip-rule="evenodd" stroke-width="1"></path>
  <path fill="#000000" fill-rule="evenodd" d="M10.7421 7.43234c-0.1389 -0.00168 -0.2769 -0.02188 -0.4104 -0.06007 -1.00118 -0.29032 -1.83211 -1.14128 -3.00343 -0.42047 -0.61618 0.50685 -1.03148 1.21676 -1.17132 2.00226 -0.57065 1.53174 -1.8621 3.28374 -3.28371 2.30264 -0.33772 -0.3856 -0.56285 -0.8566 -0.65073 -1.36158 -0.42471 -1.80745 -0.42471 -3.68875 0 -5.4962 0.24849 -1.01893 0.36955 -2.06476 0.36041 -3.11351 0.02209 -0.05022 0.03243 -0.10483 0.03021 -0.15966 -0.00221 -0.05483 -0.01692 -0.10842 -0.04299 -0.156704 -0.02607 -0.048281 -0.06282 -0.089972 -0.10745 -0.121894C2.41806 0.81523 2.36673 0.79392 2.31261 0.784847 1.772 0.704757 1.97223 1.6258 1.89214 1.99621 1.39893 3.8703 1.06404 5.7825 0.89101 7.71266c-0.047633 1.24604 0.18144 2.48714 0.67076 3.63414 0.15278 0.2941 0.36475 0.5534 0.6226 0.7616 0.25785 0.2083 0.55599 0.3609 0.87568 0.4484 0.31969 0.0874 0.65401 0.1078 0.98195 0.0598 0.32793 -0.0481 0.64239 -0.1634 0.9236 -0.3388 1.01481 -0.7462 1.76247 -1.7993 2.13241 -3.00338 0.22025 -0.68077 0.35039 -1.93218 1.47166 -1.71193 0.77087 0.14016 1.30146 0.64072 2.20243 0.61069 1.0412 0.04004 1.2114 -0.69078 -0.03 -0.74084Z" clip-rule="evenodd" stroke-width="1"></path>
  <path fill="#000000" fill-rule="evenodd" d="M3.21362 16.3324c-0.66678 -0.0858 -1.3431 -0.0621 -2.00225 0.0701 -0.43049 0.05 -1.1813361 0.06 -1.21137 0.4805 0 0.0701 0.0500564 0.1902 0.23026 0.2703l1.49168 0.2503c0.33037 0 0.07008 -0.3504 -0.12013 3.1135 -0.0599 0.7463 -0.0599 1.4962 0 2.2425 0.0137 0.079 0.05485 0.1507 0.11621 0.2023 0.06136 0.0516 0.13897 0.08 0.21916 0.08 0.08019 0 0.15781 -0.0284 0.21917 -0.08 0.06135 -0.0516 0.10251 -0.1233 0.11621 -0.2023 0.07008 -0.8409 0.32036 -1.6618 0.42048 -2.5028 0.07685 -0.9557 0.00935 -1.9176 -0.20023 -2.8532 0.87098 -0.0701 2.53286 -0.2703 2.00226 -1.0011 -0.13015 -0.2003 -0.94106 -0.0401 -1.28145 -0.0701Z" clip-rule="evenodd" stroke-width="1"></path>
  <path fill="#000000" fill-rule="evenodd" d="M7.51848 16.7429c-0.23026 0.6006 -0.48054 1.1913 -0.70079 1.802 -0.09686 -0.4656 -0.28392 -0.9077 -0.55062 -1.3015 -0.19769 -0.2883 -0.41513 -0.5626 -0.65074 -0.8209 -1.00113 -0.3504 -0.20022 2.1124 0.86097 3.1736 -0.36715 0.9646 -0.5996 1.9753 -0.69078 3.0034 0.01371 0.079 0.05486 0.1506 0.11622 0.2022 0.06136 0.0517 0.13897 0.08 0.21916 0.08 0.08019 0 0.15781 -0.0283 0.21916 -0.08 0.06136 -0.0516 0.10252 -0.1232 0.11622 -0.2022 0.16686 -0.6338 0.42305 -1.2405 0.76086 -1.8021 0.4896 -1.2593 0.78334 -2.5861 0.87098 -3.9344 -0.00233 -0.0671 -0.02706 -0.1315 -0.07025 -0.1828 -0.04319 -0.0514 -0.10235 -0.0869 -0.16804 -0.1007 -0.06568 -0.0138 -0.13411 -0.0052 -0.19435 0.0244 -0.06024 0.0296 -0.10883 0.0785 -0.138 0.139Z" clip-rule="evenodd" stroke-width="1"></path>
  <path fill="#000000" fill-rule="evenodd" d="M11.7833 16.4325c-0.489 -0.2657 -1.0527 -0.3608 -1.6018 -0.2703 -1.8421 0.1602 -1.20138 2.713 -1.20138 3.8543 0 1.1413 0.05006 0.7309 0.21024 2.2426 0 0.3704 0 0.8309 0.27031 0.891 0.05543 0.0135 0.11346 0.0119 0.1681 -0.0045 0.05463 -0.0164 0.10389 -0.0472 0.14267 -0.089 0.03879 -0.0419 0.06569 -0.0933 0.07794 -0.149 0.01224 -0.0558 0.00938 -0.1137 -0.00829 -0.168v-1.782c0 -0.6507 -0.14015 -0.2703 0.72081 -0.4805 1.7019 -0.4005 2.9433 -2.8733 1.2214 -4.0446Zm-1.87213 3.3938c0 -0.7708 -0.10011 -2.4928 0.36043 -2.5228 0.1832 -0.0152 0.3674 -0.0152 0.5506 0 1.4316 0.0901 0.7008 2.4027 -0.91103 2.5228Z" clip-rule="evenodd" stroke-width="1"></path>
  <path fill="#000000" fill-rule="evenodd" d="M13.9858 22.1189c-0.0801 0 -0.0601 0 0 -0.1902 0.07 -0.4605 0.1702 -0.6908 0.2202 -1.1914 0.4105 0.1502 1.5718 0 1.5718 -0.4304 0.0701 -0.2303 -0.7809 -0.821 -1.5317 -0.5807 0 -1.8921 -0.1102 -2.0022 0 -2.0523 0.2903 -0.2203 1.0011 0.2202 1.5017 -0.1101 0.0543 -0.0457 0.0908 -0.1091 0.1028 -0.1791 0.0121 -0.07 -0.0011 -0.142 -0.0371 -0.2032 -0.036 -0.0613 -0.0925 -0.1077 -0.1595 -0.1312 -0.0671 -0.0235 -0.1402 -0.0225 -0.2066 0.0029 -0.2102 0.1001 -0.6007 -0.2203 -1.1613 -0.2203 -0.2052 0.0029 -0.4046 0.0688 -0.5712 0.1888 -0.1665 0.12 -0.2921 0.2882 -0.3598 0.482 -0.1988 1.0558 -0.286 2.1296 -0.2603 3.2036 0 0.6207 -0.3404 1.9022 0.2402 2.2125 0.1932 0.0652 0.3972 0.0924 0.6007 0.0801 1.5217 0.0701 1.5518 0.0601 1.6619 0 0.0734 -0.0178 0.1406 -0.0555 0.194 -0.1091 0.0533 -0.0535 0.0909 -0.1207 0.1085 -0.1942 0.0176 -0.0736 0.0146 -0.1505 -0.0088 -0.2224 -0.0233 -0.0719 -0.0661 -0.136 -0.1235 -0.1851 -0.5892 -0.0991 -1.1847 -0.1559 -1.782 -0.1702Z" clip-rule="evenodd" stroke-width="1"></path>
  <path fill="#000000" fill-rule="evenodd" d="M17.5298 19.1555c-0.2003 0.0901 -0.821 0.4506 -0.7409 0.7209 0.1854 0.1425 0.4 0.2423 0.6284 0.2925 0.2284 0.0502 0.465 0.0494 0.6931 -0.0022 0.1902 -0.0601 0.3304 -0.1502 0.5006 -0.2103 0.0886 0.0001 0.1736 -0.0344 0.2372 -0.0961 0.0636 -0.0617 0.1006 -0.1457 0.1032 -0.2342 0.04 -0.4305 -1.1013 -0.6107 -1.4216 -0.4706Z" clip-rule="evenodd" stroke-width="1"></path>
  <path fill="#000000" fill-rule="evenodd" d="M23.6366 21.6984c-0.0885 0 -0.1736 0.0345 -0.2372 0.0961 -0.0635 0.0617 -0.1005 0.1458 -0.1031 0.2343 -0.1447 0.1865 -0.3506 0.3159 -0.5814 0.3654 -0.2308 0.0495 -0.4717 0.0158 -0.6801 -0.0951 -0.8209 -0.3905 -0.911 -1.0812 -1.0011 -2.0023 -0.1802 -1.3114 0.4005 -3.0034 1.8221 -2.8832 0.2102 0 0.4204 0.0901 0.3704 0.3404 -0.0099 0.0374 -0.0123 0.0765 -0.007 0.1149 0.0052 0.0384 0.0179 0.0753 0.0375 0.1088 0.0195 0.0335 0.0454 0.0628 0.0763 0.0862 0.0308 0.0235 0.066 0.0406 0.1034 0.0505 0.0375 0.0098 0.0765 0.0122 0.1149 0.007 0.0384 -0.0052 0.0754 -0.018 0.1089 -0.0375 0.0334 -0.0195 0.0627 -0.0455 0.0862 -0.0763 0.0234 -0.0308 0.0406 -0.066 0.0504 -0.1035 0.0473 -0.1083 0.0706 -0.2256 0.0683 -0.3437 -0.0022 -0.1182 -0.03 -0.2345 -0.0813 -0.3409 -0.0513 -0.1065 -0.125 -0.2006 -0.2161 -0.276 -0.091 -0.0753 -0.1973 -0.1301 -0.3115 -0.1606 -0.5354 -0.1831 -1.1164 -0.1831 -1.6518 0 -0.6425 0.3481 -1.1541 0.8959 -1.4576 1.5606 -0.3034 0.6647 -0.3822 1.4101 -0.2243 2.1235 0.2002 1.2514 0.5906 2.2025 1.812 2.623 1.782 0.6607 2.8732 -1.4116 1.9021 -1.3916Z" clip-rule="evenodd" stroke-width="1"></path>
</svg>