<svg xmlns="http://www.w3.org/2000/svg" fill="none" viewBox="0 0 24 24" id="Desktop-Computer-Pc--Streamline-Freehand">
  <desc>
    Desktop Computer Pc Streamline Icon: https://streamlinehq.com
  </desc>
  <path fill="#000000" fill-rule="evenodd" d="M18.1074 13.699c0.1474 -0.0796 0.3125 -0.1209 0.48 -0.12 0.11 0 0.24 0 0.29 0.09 0.0133 0.0365 0.0338 0.0699 0.0602 0.0983 0.0265 0.0284 0.0584 0.0512 0.0938 0.0671 0.0355 0.0158 0.0737 0.0244 0.1125 0.0252 0.0389 0.0008 0.0774 -0.0062 0.1135 -0.0206 0.0361 -0.0122 0.0694 -0.0317 0.0977 -0.0572 0.0283 -0.0255 0.0511 -0.0565 0.0671 -0.0912 0.0159 -0.0346 0.0245 -0.0721 0.0255 -0.1103 0.0009 -0.0381 -0.006 -0.076 -0.0203 -0.1113 -0.0441 -0.1346 -0.1227 -0.2553 -0.2279 -0.3501 -0.1053 -0.0947 -0.2336 -0.1602 -0.3721 -0.1899 -0.3267 -0.0939 -0.6733 -0.0939 -1 0 -0.3192 0.0823 -0.6132 0.2422 -0.8557 0.4655 -0.2425 0.2233 -0.4261 0.5031 -0.5343 0.8145 -0.0667 0.2337 -0.0816 0.4792 -0.0436 0.7193 0.038 0.2401 0.128 0.469 0.2636 0.6707 0.2449 0.3807 0.5912 0.6855 1 0.88 0.4289 0.2221 0.9274 0.2688 1.39 0.13 0.2616 -0.0876 0.4995 -0.2342 0.6955 -0.4284 0.1959 -0.1942 0.3446 -0.4308 0.4345 -0.6916 0.0843 -0.2622 0.0894 -0.5433 0.0147 -0.8084 -0.0747 -0.265 -0.2259 -0.5021 -0.4347 -0.6816 -0.0309 -0.0309 -0.0675 -0.0554 -0.1078 -0.0721s-0.0836 -0.0253 -0.1272 -0.0253c-0.0436 0 -0.0869 0.0086 -0.1272 0.0253s-0.0769 0.0412 -0.1078 0.0721c-0.0309 0.0308 -0.0553 0.0675 -0.072 0.1078 -0.0167 0.0403 -0.0253 0.0835 -0.0253 0.1272 0 0.0436 0.0086 0.0868 0.0253 0.1272 0.0167 0.0403 0.0411 0.0769 0.072 0.1078 0.0834 0.1026 0.1346 0.2277 0.147 0.3594 0.0125 0.1317 -0.0143 0.2641 -0.077 0.3806 -0.0606 0.1176 -0.1469 0.22 -0.2525 0.2996 -0.1056 0.0797 -0.2278 0.1345 -0.3575 0.1604 -0.2179 0.0255 -0.4378 -0.0277 -0.62 -0.15 -0.2191 -0.124 -0.4018 -0.3033 -0.53 -0.52 -0.0737 -0.0912 -0.1225 -0.1999 -0.1418 -0.3156 -0.0193 -0.1156 -0.0083 -0.2343 0.0318 -0.3444 0.1233 -0.2807 0.3433 -0.5078 0.62 -0.64Z" clip-rule="evenodd" stroke-width="1"></path>
  <path fill="#000000" fill-rule="evenodd" d="M21.1666 5.25035c-1.9871 -0.35274 -4.0234 -0.3222 -5.999 0.08999 -0.0769 0 -0.1506 0.03055 -0.205 0.08492 -0.0544 0.05438 -0.0849 0.12813 -0.0849 0.20503s0.0305 0.15065 0.0849 0.20502c0.0544 0.05438 0.1281 0.08493 0.205 0.08493 1.9894 0.28713 4.0096 0.28713 5.999 0 0.0789 -0.01369 0.1504 -0.05479 0.202 -0.11607 0.0515 -0.06127 0.0798 -0.13879 0.0798 -0.21888 0 -0.08008 -0.0283 -0.1576 -0.0798 -0.21887 -0.0516 -0.06128 -0.1231 -0.10238 -0.202 -0.11607Z" clip-rule="evenodd" stroke-width="1"></path>
  <path fill="#000000" fill-rule="evenodd" d="M21.2273 8.99972c-1.3002 -0.33567 -2.6684 -0.30103 -3.95 0.1 -0.0689 0.01275 -0.1312 0.04923 -0.1761 0.10312 -0.0448 0.05389 -0.0694 0.12178 -0.0694 0.19188s0.0246 0.13799 0.0694 0.19188c0.0449 0.05389 0.1072 0.09037 0.1761 0.10312 1.2877 0.31498 2.6323 0.31498 3.92 0 0.0915 0.00398 0.1808 -0.02855 0.2483 -0.09044 0.0675 -0.06189 0.1077 -0.14806 0.1117 -0.23956 0.004 -0.0915 -0.0286 -0.18083 -0.0905 -0.24834 -0.0618 -0.06752 -0.148 -0.10768 -0.2395 -0.11166Z" clip-rule="evenodd" stroke-width="1"></path>
  <path fill="#000000" fill-rule="evenodd" d="M9.71857 18.8379c1.69973 0 3.22943 -0.0899 4.11923 -0.1499 1.0899 -0.09 1.5698 0.1499 1.8697 -2.9995 0.2414 -2.5361 0.2682 -5.088 0.08 -7.62865 -0.0487 -0.37608 -0.2169 -0.72657 -0.4799 -0.99982 -1.5797 -1.21978 -12.30784 -0.48991 -13.75758 -0.17997 -0.04879 0.00233 -0.09651 0.01514 -0.1399 0.03757s-0.08144 0.05394 -0.11156 0.0924c-0.03011 0.03846 -0.05159 0.08295 -0.06296 0.13046 -0.01137 0.0475 -0.01237 0.0969 -0.00293 0.14482 0.00944 0.04793 0.0291 0.09326 0.05763 0.1329 0.02854 0.03964 0.06528 0.07267 0.10773 0.09684 0.04245 0.02416 0.08961 0.03889 0.13827 0.04319 0.04866 0.0043 0.09767 -0.00194 0.14369 -0.01829C3.14973 7.26 13.5079 6.87006 14.6777 7.83989c0 0 0 0.11998 0.06 0.21996 0.2899 1.1798 0 5.99895 -0.14 7.25875 -0.0574 -0.0709 -0.1396 -0.1174 -0.2299 -0.13 -4.186 -0.3798 -8.40118 -0.2926 -12.56783 0.2599 -0.06892 0.0128 -0.1312 0.0493 -0.17603 0.1031 -0.04483 0.0539 -0.06938 0.1218 -0.06938 0.1919 0 0.0701 0.02455 0.138 0.06938 0.1918 0.04483 0.0539 0.10711 0.0904 0.17603 0.1031 1.23978 0 3.07946 0.07 4.99912 0.06 2.74951 0 6.55881 -0.3099 7.45871 -0.2499 0.0449 0.0057 0.0906 0.0016 0.1338 -0.0123 0.0432 -0.0138 0.0829 -0.0369 0.1161 -0.0677 -0.0414 0.6039 -0.1521 1.2011 -0.3299 1.7797 -0.4599 0 -8.99842 0.4599 -12.40782 0.15 -0.36994 0 -0.70988 -0.24 -0.809858 -0.16 -0.349938 -0.8899 -0.089984 -8.79847 -0.029995 -9.65831 0.02997 -0.07298 0.029985 -0.15482 0.000043 -0.2278 -0.029942 -0.07299 -0.087431 -0.13124 -0.160015 -0.16214 -0.049391 -0.00849 -0.099993 -0.00686 -0.148735 0.0048 -0.048742 0.01166 -0.094607 0.03309 -0.134812 0.06301 -0.040205 0.02992 -0.073912 0.0677 -0.099074 0.11104 -0.025162 0.04335 -0.041255 0.09135 -0.047303 0.1411 -0.099982 0.69987 -0.34993784 5.9989 -0.339939606 8.0786C0.0102896 17.9681 0.0902755 18.318 1.15009 18.518c1.57396 0.2143 3.16068 0.3212 4.74916 0.3199 -0.27203 0.7787 -0.44666 1.5881 -0.51991 2.4096 0.05521 0.1423 0.14903 0.2664 0.27091 0.3582 0.12188 0.0919 0.26698 0.1479 0.41897 0.1617 5.74898 0.7399 4.19928 -0.3599 3.66935 -2.8895 -0.01033 -0.0111 -0.01727 -0.025 -0.02 -0.04Zm-3.3894 1.9297c-0.02264 -0.5933 0.02434 -1.1873 0.13998 -1.7697 0.06999 -0.2299 -0.51991 -0.11 2.60954 -0.14 -0.05999 0.21 0.22996 1.4798 0.26995 1.9997 -0.34994 0.03 -1.93966 -0.09 -3.01947 -0.09Z" clip-rule="evenodd" stroke-width="1"></path>
  <path fill="#000000" fill-rule="evenodd" d="M23.5361 3.35067c-0.5999 -1.75969 -6.1189 -1.38975 -7.8186 -1.0998 -2.3096 0.39993 -3.0594 0.47991 -2.9995 2.76951 0 0.09998 0 0.5399 0.13 0.63989 0.0401 0.04571 0.0928 0.07861 0.1515 0.09461 0.0586 0.016 0.1207 0.01439 0.1785 -0.00463 0.3999 -0.09998 0.06 -0.30995 0.1899 -1.38975 0.13 -1.07981 0.39 -1.06982 2.4996 -1.35976 1.4897 -0.19997 4.9991 -0.21997 6.3489 0.38993 0.1799 0.07998 0.3299 0.14997 0.3699 0.26995 0.6299 1.99965 0.14 8.84848 0.15 12.27778 0 0.6999 0 1.8297 -0.07 2.8196 -0.19 1.6797 -0.4599 1.6197 -0.9998 1.7496 -1.6097 0.38 -6.6889 0.5299 -7.6687 -0.3899 -0.066 -0.047 -0.1466 -0.0689 -0.2273 -0.0618 -0.0807 0.0071 -0.1562 0.0429 -0.2129 0.1008s-0.0908 0.1341 -0.0963 0.215c-0.0054 0.0808 0.0182 0.161 0.0666 0.2259 1.1698 1.1598 6.4589 1.1698 8.3385 0.7899 0.9999 -0.2 1.4398 -0.5299 1.7297 -1.9997 0.1724 -1.138 0.2493 -2.2885 0.23 -3.4394 -0.05 -3.4793 0.5799 -10.02818 -0.29 -12.59773Z" clip-rule="evenodd" stroke-width="1"></path>
</svg>