<svg xmlns="http://www.w3.org/2000/svg" fill="none" viewBox="0 0 24 24" id="Hard-Drive-Exertnal-1--Streamline-Freehand">
  <desc>
    Hard Drive Exertnal 1 Streamline Icon: https://streamlinehq.com
  </desc>
  <path fill="#000000" d="M23.886 13.9104c-0.0645 -0.2679 -0.2156 -0.5069 -0.43 -0.68 -1.2 -3.13 -1.67 -6.12002 -3.44 -8.91002 -0.2939 -0.2797 -0.6754 -0.44927 -1.08 -0.48 -2.86 -0.52 -12.99999 -0.6 -15.13999 0.9 -0.78 0.53 -3.369999 7.48002 -3.7799993 8.75002 -0.0265217 0.0809 -0.01982322 0.169 0.0186217 0.2449 0.038445 0.076 0.1054876 0.1336 0.1863786 0.1601 0.080891 0.0265 0.169004 0.0198 0.244957 -0.0186 0.075952 -0.0385 0.133521 -0.1055 0.160043 -0.1864C1.69041 10.9196 2.93989 8.22352 4.36601 5.62038c1.79 -1 11.86999 -1.06 14.23999 -0.75 0.64 0.09 0.59 -0.29 1.78 2.22 0.68 1.44 1.37 3.80002 2.13 5.74002l-0.43 -0.07c-3.2595 -0.5175 -6.5635 -0.6984 -9.86 -0.54 -3.09481 0.148 -6.17378 0.5325 -9.20999 1.15 -0.77688 0.1898 -1.52154 0.493 -2.209999 0.9 -1.2 0.75 -0.69 3.09 -0.56 4.39 0.019451 0.3933 0.069604 0.7845 0.15 1.17 0.18 0.6 0.729999 0.66 0.749999 -0.14 0 -0.4 -0.229999 -0.73 -0.239999 -1.08 -0.05 -0.82 -0.47 -3.22 0.299999 -3.67 0.62787 -0.3433 1.30124 -0.5958 2 -0.75 2.99387 -0.5156 6.02258 -0.8031 9.05999 -0.86 3.2361 -0.0831 6.4731 0.1311 9.67 0.64 0.16 0 0.73 0.08 0.77 0.23 0.1756 1.5772 0.1116 3.1719 -0.19 4.73 -0.06 0.29 0.39 0 -4.05 0.36 -5.33 0.42 -10.75999 0.25 -15.99999 0.31 -0.09548 0 -0.18704 0.0379 -0.25456 0.1054 -0.06751 0.0675 -0.10544 0.1591 -0.10544 0.2546s0.03793 0.187 0.10544 0.2545c0.06752 0.0676 0.15908 0.1055 0.25456 0.1055 5.31 0.06 10.74999 0.34 16.08999 0.05 4 -0.23 4.69 0.13 5 -0.74 0.4448 -1.8726 0.5565 -3.8088 0.33 -5.72Z" stroke-width="1"></path>
  <path fill="#000000" d="M4.80601 15.5804c-0.49 -0.25 -0.8 0.84 -0.73 1.43 0.06194 0.3163 0.20909 0.6097 0.42557 0.8486 0.21649 0.2388 0.49409 0.414 0.80285 0.5066 0.30876 0.0927 0.63695 0.0992 0.94916 0.019s0.59658 -0.2442 0.82242 -0.4742c0.3339 -0.3232 0.53999 -0.756 0.5804 -1.219 0.04042 -0.4629 -0.08755 -0.9249 -0.3604 -1.301 -0.48 -0.49 -1.5 -0.62 -1.5 -0.05 0.00261 0.0964 0.04274 0.1879 0.11184 0.2552 0.06911 0.0672 0.16174 0.1048 0.25816 0.1048 1 0.09 0.23 1.88 -0.71 1.48 -0.10497 -0.019 -0.20402 -0.0623 -0.28914 -0.1266s-0.15393 -0.1477 -0.20086 -0.2434c-0.27 -0.67 0.26 -1.01 -0.16 -1.23Z" stroke-width="1"></path>
  <path fill="#000000" d="M16.636 17.3104c0.05 -0.18 0.16 -0.41 0.23 -0.71 0.1066 -0.4711 0.0391 -0.9648 -0.19 -1.39 0 -0.0849 -0.0337 -0.1663 -0.0937 -0.2263 -0.06 -0.06 -0.1414 -0.0937 -0.2263 -0.0937s-0.1663 0.0337 -0.2263 0.0937c-0.06 0.06 -0.0937 0.1414 -0.0937 0.2263 -0.2 0.3097 -0.3163 0.666 -0.3373 1.0341 -0.021 0.3681 0.0538 0.7354 0.2173 1.0659 0 0.0955 0.0379 0.187 0.1055 0.2545 0.0675 0.0676 0.159 0.1055 0.2545 0.1055s0.1871 -0.0379 0.2546 -0.1055c0.0675 -0.0675 0.1054 -0.159 0.1054 -0.2545Z" stroke-width="1"></path>
  <path fill="#000000" d="M19.206 17.4304c0.0819 -0.2287 0.1487 -0.4626 0.2 -0.7 0.0667 -0.4492 -0.0215 -0.9076 -0.25 -1.3 0.0082 -0.0461 0.0063 -0.0934 -0.0057 -0.1386 -0.0121 -0.0452 -0.0339 -0.0873 -0.0639 -0.1231 -0.03 -0.0359 -0.0676 -0.0648 -0.11 -0.0846 -0.0424 -0.0198 -0.0886 -0.0301 -0.1354 -0.0301 -0.0468 0 -0.093 0.0103 -0.1354 0.0301 -0.0424 0.0198 -0.0799 0.0487 -0.11 0.0846 -0.03 0.0358 -0.0518 0.0779 -0.0638 0.1231 -0.0121 0.0452 -0.014 0.0925 -0.0058 0.1386 -0.1143 0.2267 -0.2048 0.4646 -0.27 0.71 -0.0412 0.4461 0.0382 0.8951 0.23 1.3 0.0007 0.0473 0.0106 0.094 0.0293 0.1374 0.0187 0.0434 0.0458 0.0827 0.0797 0.1157 0.0339 0.033 0.0739 0.0589 0.1179 0.0764 0.0439 0.0175 0.0908 0.0262 0.1381 0.0255 0.0473 -0.0007 0.094 -0.0106 0.1374 -0.0293 0.0434 -0.0187 0.0827 -0.0458 0.1157 -0.0797 0.033 -0.0339 0.0589 -0.0739 0.0764 -0.1179 0.0175 -0.0439 0.0262 -0.0908 0.0255 -0.1381Z" stroke-width="1"></path>
</svg>