<svg xmlns="http://www.w3.org/2000/svg" fill="none" viewBox="0 0 24 24" id="Laptop-Action-Lock--Streamline-Freehand">
  <desc>
    Laptop Action Lock Streamline Icon: https://streamlinehq.com
  </desc>
  <path fill="#000000" fill-rule="evenodd" d="M0.569075 11.4644c0.482155 2.2543 1.216475 4.4472 2.189085 6.5372 0.04237 0.0607 0.10503 0.1041 0.17666 0.1226 0.07162 0.0185 0.14749 0.0107 0.21388 -0.0219 0.0664 -0.0326 0.11895 -0.0879 0.14815 -0.1558 0.0292 -0.068 0.03313 -0.1441 0.01108 -0.2147C2.33834 15.6526 0.998895 7.63597 1.18882 7.00623c0.07996 -0.19991 0.06997 -0.35985 0.19991 -0.49979 0.39984 -0.44981 2.48896 -0.89962 3.08871 -0.99958 0.09014 -0.01458 0.17079 -0.06437 0.22422 -0.13842 0.05342 -0.07404 0.07525 -0.16628 0.06067 -0.25642 -0.01459 -0.09013 -0.06438 -0.17078 -0.13842 -0.22421 -0.07405 -0.05343 -0.16628 -0.07525 -0.25642 -0.06067C0.659037 5.30694 0.619054 5.8767 0.259204 6.65638c-0.35985 0.77967 0.099958 3.82842 0.309871 4.80802Z" clip-rule="evenodd" stroke-width="1"></path>
  <path fill="#000000" fill-rule="evenodd" d="M19.5911 5.50685c3.5985 0.63973 3.0588 1.88921 2.8988 3.99833 -0.1864 2.79042 -0.5368 5.56732 -1.0495 8.31652 -0.0118 0.0433 -0.015 0.0886 -0.0094 0.1331 0.0057 0.0445 0.0201 0.0875 0.0424 0.1265 0.0222 0.039 0.052 0.0732 0.0875 0.1007 0.0355 0.0275 0.076 0.0477 0.1194 0.0595 0.0433 0.0119 0.0885 0.015 0.133 0.0094 0.0446 -0.0057 0.0876 -0.0201 0.1266 -0.0424 0.0389 -0.0222 0.0732 -0.052 0.1007 -0.0875 0.0274 -0.0355 0.0477 -0.076 0.0595 -0.1194 0.6219 -2.1694 1.0863 -4.3809 1.3894 -6.6172 0.13 -0.9996 0.3699 -3.66847 0 -4.65806 -0.3705 -0.54849 -0.891 -0.97877 -1.4994 -1.23948 -0.7225 -0.30925 -1.4874 -0.50806 -2.269 -0.58975 -0.0401 -0.00854 -0.0814 -0.0091 -0.1216 -0.00166 -0.0403 0.00744 -0.0787 0.02273 -0.113 0.04501 -0.0694 0.04499 -0.118 0.11569 -0.1353 0.19655 -0.0085 0.04003 -0.0091 0.08136 -0.0016 0.12161 0.0074 0.04025 0.0227 0.07865 0.045 0.11299 0.045 0.06936 0.1157 0.11801 0.1965 0.13524Z" clip-rule="evenodd" stroke-width="1"></path>
  <path fill="#000000" fill-rule="evenodd" d="M23.9893 19.3411c-0.1499 -0.6297 -1.1995 -0.8196 -1.8492 -0.5598 -0.042 0.0158 -0.0805 0.0397 -0.1133 0.0703 -0.0328 0.0306 -0.0592 0.0674 -0.0778 0.1082 -0.0185 0.0409 -0.0289 0.085 -0.0304 0.1298 -0.0015 0.0449 0.0058 0.0896 0.0216 0.1316 0.0157 0.042 0.0396 0.0805 0.0702 0.1132 0.0306 0.0328 0.0674 0.0592 0.1083 0.0778 0.0408 0.0186 0.0849 0.0289 0.1297 0.0304 0.0449 0.0016 0.0896 -0.0058 0.1316 -0.0215 0.1477 -0.0476 0.3034 -0.065 0.4579 -0.0512 0.1545 0.0137 0.3047 0.0583 0.4417 0.1311 -0.0014 0.4541 -0.111 0.9012 -0.3195 1.3045 -0.2086 0.4033 -0.5103 0.7511 -0.88 1.0146 -0.3199 0.1599 -16.17325 0.5098 -19.99166 -0.06 -0.57976 -0.5898 -1.169514 -2.0991 -0.99958 -2.0591 1.13952 -0.08 5.20782 -0.6298 17.69264 -0.3899 1.2195 0 2.279 0.16 2.329 -0.1999 -0.0199 -0.0982 -0.072 -0.1869 -0.1481 -0.252 -0.076 -0.0652 -0.1717 -0.1032 -0.2717 -0.1078 -2.2891 -0.18 -16.45316 -0.7897 -19.59185 -0.13 -0.365927 0.045 -0.699652 0.2316 -0.929611 0.5198 -0.539775 0.9996 0.319866 2.6589 1.059561 3.4286 1.24948 1.2794 20.7613 0.1799 21.1812 0 0.5276 -0.3481 0.9523 -0.8311 1.2301 -1.3989 0.2777 -0.5678 0.3983 -1.1996 0.3492 -1.8298Z" clip-rule="evenodd" stroke-width="1"></path>
  <path fill="#000000" fill-rule="evenodd" d="M9.1455 6.60641c-0.14994 -0.07996 -0.42982 -0.06997 -0.53978 0.28988 -0.0738 0.3666 -0.12719 0.73702 -0.15993 1.10954 -0.22085 1.08684 -0.08409 2.21597 0.38984 3.21867 0.81965 1.3394 3.39857 1.0695 4.82797 0.8896 0.7797 -0.1099 1.9992 0 2.5789 -0.8996 0.3454 -0.6818 0.4843 -1.44951 0.3999 -2.20909 0 -0.81966 -0.06 -2.83881 -0.8097 -3.15868 -0.0047 -1.27311 -0.2701 -2.53178 -0.7797 -3.69846 -2.1691 -2.918779 -7.15698 -0.69971 -6.69717 3.45856 0.01274 0.06891 0.04921 0.13118 0.10307 0.17599 0.05387 0.04482 0.12173 0.06936 0.1918 0.06936 0.07008 0 0.13794 -0.02454 0.1918 -0.06936 0.05387 -0.04481 0.09034 -0.10708 0.10308 -0.17599 0.00742 -0.28294 0.04427 -0.56434 0.10995 -0.83965 0.09303 -0.48351 0.29542 -0.93934 0.59168 -1.33262 0.29626 -0.39328 0.67859 -0.71359 1.11759 -0.93643 0.5322 -0.38669 1.1835 -0.57359 1.8397 -0.52789 0.6563 0.0457 1.2754 0.32107 1.7488 0.77778 0.4584 0.93665 0.7203 1.95715 0.7697 2.99875 -1.1095 0 -3.5985 0.27989 -4.728 0.42982 -0.39986 0 -0.84967 0.05998 -0.82968 0.39984 0 0.58975 0.67968 0 5.05788 0.08996 0.7397 0 0.7397 -0.26989 0.8597 0.74969 0.0771 0.88461 0.0771 1.77427 0 2.65892 -0.12 0.5997 -0.3199 0.6797 -0.6198 0.7497 -0.4527 0.0859 -0.9099 0.146 -1.3694 0.1799 -0.9996 0.1699 -3.3386 0.5497 -3.91838 -0.2799 -0.22276 -0.3708 -0.35622 -0.78827 -0.38984 -1.2195 -0.18992 -1.74927 0.4798 -2.6389 -0.03998 -2.89879Z" clip-rule="evenodd" stroke-width="1"></path>
  <path fill="#000000" fill-rule="evenodd" d="M13.1145 9.23584c0.1048 -0.18602 0.1392 -0.40349 0.097 -0.61277 -0.0423 -0.20927 -0.1583 -0.39639 -0.327 -0.52723 -0.85 -0.44 -1.89 0.43 -1.13 1.2 0.0903 0.09093 0.1987 0.16198 0.318 0.20861 0.1194 0.04662 0.2472 0.06779 0.3753 0.06214 0.128 -0.00565 0.2535 -0.03799 0.3683 -0.09494 0.1148 -0.05696 0.2165 -0.13728 0.2984 -0.23581Z" clip-rule="evenodd" stroke-width="1"></path>
</svg>