<svg xmlns="http://www.w3.org/2000/svg" fill="none" viewBox="0 0 24 24" id="Memory-Sd-Card-Check--Streamline-Freehand">
  <desc>
    Memory Sd Card Check Streamline Icon: https://streamlinehq.com
  </desc>
  <path fill="#000000" fill-rule="evenodd" d="M1.1159 1.36845c1.41636 -0.21712 2.84962 -0.30418 4.28185 -0.26011 2.28044 -0.03459 4.56046 0.09245 6.82295 0.38016 0.5002 0.62027 2.1009 3.05132 2.5311 3.82165 0.08 0.16007 0.1 0.36016 0.1701 0.35015l0.1 4.9321c0 0.0956 0.0379 0.1872 0.1055 0.2547 0.0675 0.0675 0.1591 0.1055 0.2547 0.1055 0.0955 0 0.1871 -0.038 0.2546 -0.1055 0.0676 -0.0675 0.1055 -0.1591 0.1055 -0.2547l0.1301 -5.00213c0 -0.59025 -2.3911 -4.51194 -3.0013 -5.102198 -0.1921 -0.121966 -0.413 -0.190994 -0.6403 -0.200086C7.19853 -0.132195 8.01888 -0.112186 2.20637 0.478068 0.815774 0.768193 0.585674 0.718172 0.525649 0.758189 0.478095 0.787849 0.438875 0.829127 0.411683 0.878135 0.384492 0.927142 0.370224 0.982264 0.370224 1.03831c0 0.05605 0.014268 0.11117 0.041459 0.16018 0.027192 0.049 0.066412 0.09028 0.113966 0.11994 0.193179 0.04587 0.392111 0.06273 0.590251 0.05002Z" clip-rule="evenodd" stroke-width="1"></path>
  <path fill="#000000" fill-rule="evenodd" d="M9.22951 18.806c-1.00043 0 -6.7129 -0.0901 -7.56327 -0.6803 -0.40017 -0.2801 -0.27011 -0.7803 -0.26011 -1.3806 0 -1.2906 -0.10004 -3.6616 0 -4.0017 0.11959 -0.015 0.24057 -0.015 0.36016 0 0.78033 0 1.36059 0 1.43062 -0.9104 0.08535 -1.1003 0.0248 -2.20704 -0.18008 -3.29144 -0.37016 -0.77034 -1.67072 -0.09004 -1.87081 -0.4502C0.815878 7.57114 0.955938 3.48938 0.945934 3.39934 0.93593 3.3093 0.375688 2.91913 0.305658 3.46937c-0.153069 1.66387 -0.153069 3.33828 0 5.00216 0.410177 0.88038 1.250542 0.56024 1.760762 0.63027 0.06895 0.83227 0.06895 1.6688 0 2.5011 -2.501082 -0.3202 -1.850801 1.1705 -1.830793 5.1422 0 1.0004 0 1.7207 0.830363 2.281 1.19051 0.7503 6.78292 0.5702 8.18353 0.5002 0.09552 -0.0027 0.18607 -0.0431 0.25174 -0.1126 0.06566 -0.0694 0.10106 -0.162 0.09841 -0.2576 -0.00266 -0.0955 -0.04314 -0.186 -0.11256 -0.2517 -0.06942 -0.0657 -0.16208 -0.1011 -0.2576 -0.0984Z" clip-rule="evenodd" stroke-width="1"></path>
  <path fill="#000000" fill-rule="evenodd" d="M5.63795 3.61941c-0.10004 -0.05002 -0.32014 0 -0.4802 0.27012 -0.24993 0.6356 -0.34924 1.32045 -0.29013 2.00086 0.06003 0.63027 0.19008 1.19052 0.2201 1.3906 0 0.09552 0.03794 0.18713 0.10548 0.25467 0.06755 0.06754 0.15915 0.10549 0.25467 0.10549s0.18713 -0.03795 0.25467 -0.10549c0.06754 -0.06754 0.10549 -0.15915 0.10549 -0.25467 0.17364 -0.76755 0.24429 -1.5548 0.21009 -2.34101 -0.12005 -1.33057 -0.12005 -1.18051 -0.38017 -1.32057Z" clip-rule="evenodd" stroke-width="1"></path>
  <path fill="#000000" fill-rule="evenodd" d="M7.94896 3.8095c-0.22551 0.59704 -0.32844 1.23338 -0.30265 1.87107 0.02578 0.63769 0.17975 1.26365 0.45271 1.84053 0.17008 0.14006 0.31014 0.17007 0.43019 0.09004 0.68029 -0.45019 0 -3.57154 0 -3.66158 -0.00858 -0.06398 -0.0363 -0.12386 -0.07951 -0.17181 -0.04322 -0.04794 -0.09993 -0.0817 -0.16267 -0.09685 -0.06275 -0.01514 -0.12861 -0.01097 -0.18894 0.01198 -0.06033 0.02295 -0.11231 0.0636 -0.14913 0.11662Z" clip-rule="evenodd" stroke-width="1"></path>
  <path fill="#000000" fill-rule="evenodd" d="M11.2004 3.80949c0.0025 -0.04601 -0.005 -0.09201 -0.0219 -0.13488 -0.0169 -0.04286 -0.0428 -0.08158 -0.076 -0.1135 -0.0333 -0.03191 -0.073 -0.05628 -0.1165 -0.07144 -0.0435 -0.01515 -0.0898 -0.02073 -0.1357 -0.01637 -0.0458 0.00437 -0.0902 0.01859 -0.1301 0.04169 -0.0398 0.02309 -0.0743 0.05452 -0.1009 0.09214 -0.0266 0.03761 -0.0448 0.08053 -0.0533 0.12581 -0.0085 0.04529 -0.0071 0.09187 0.0041 0.13658 0 0.57024 -0.1001 1.24053 -0.1201 2.00086 0.0349 1.20376 0.1519 2.40373 0.3502 3.59155 0 0.09552 0.0379 0.18713 0.1055 0.25467 0.0675 0.06754 0.1591 0.10548 0.2546 0.10548 0.0956 0 0.1872 -0.03794 0.2547 -0.10548 0.0675 -0.06754 0.1055 -0.15915 0.1055 -0.25467 0.34 -1.88306 0.2304 -3.81982 -0.3201 -5.65244Z" clip-rule="evenodd" stroke-width="1"></path>
  <path fill="#000000" fill-rule="evenodd" d="M17.243 11.813c-1.4176 0.0908 -2.7608 0.6663 -3.8045 1.6298 -1.0437 0.9636 -1.7244 2.2566 -1.928 3.6624 -0.2001 1.7108 0.2801 4.1518 1.8108 5.1423 0.0703 0.0477 0.1567 0.0656 0.2402 0.0496 0.0835 -0.0159 0.1572 -0.0644 0.205 -0.1347 0.0477 -0.0703 0.0656 -0.1567 0.0497 -0.2402 -0.016 -0.0835 -0.0645 -0.1572 -0.1348 -0.205 -1.2505 -0.8703 -1.5506 -3.0013 -1.3105 -4.4819 0.1343 -0.7107 0.4145 -1.3858 0.823 -1.9828 0.4084 -0.5969 0.9361 -1.1027 1.5499 -1.4853 0.6138 -0.3827 1.3002 -0.634 2.016 -0.738 0.7157 -0.104 1.4453 -0.0584 2.1426 0.1338 0.6972 0.1921 1.3471 0.5268 1.9085 0.9828 0.5614 0.456 1.0222 1.0235 1.3532 1.6666 0.3311 0.6431 0.5252 1.3478 0.5701 2.0697 0.045 0.7219 -0.0603 1.4452 -0.309 2.1244 -1.1405 2.7612 -4.562 3.7016 -7.003 2.9413 -0.0864 -0.0168 -0.1759 -0.0013 -0.2516 0.0434 -0.0758 0.0447 -0.1326 0.1156 -0.1596 0.1993 -0.0271 0.0837 -0.0226 0.1744 0.0126 0.255 0.0352 0.0806 0.0987 0.1455 0.1785 0.1826 2.8212 1.0004 6.7229 0 8.1635 -3.2114 0.412 -0.975 0.5677 -2.0392 0.4522 -3.0913 -0.1154 -1.0522 -0.4982 -2.0572 -1.1119 -2.9196 -0.6137 -0.8624 -1.4379 -1.5534 -2.3941 -2.0072 -0.9562 -0.4539 -2.0127 -0.6555 -3.0688 -0.5856Z" clip-rule="evenodd" stroke-width="1"></path>
  <path fill="#000000" fill-rule="evenodd" d="M16.1725 20.4267c0.1752 -0.0085 0.3464 -0.0549 0.5019 -0.1361 0.1555 -0.0812 0.2914 -0.1952 0.3985 -0.3341 0.3639 -0.4234 0.6981 -0.8713 1.0004 -1.3406 0.2901 -0.4602 1.6407 -3.2114 1.6407 -3.3014 -0.0044 -0.078 -0.0334 -0.1525 -0.0828 -0.213 -0.0493 -0.0605 -0.1165 -0.1038 -0.192 -0.1238 -0.0755 -0.02 -0.1553 -0.0156 -0.2282 0.0126 -0.0728 0.0281 -0.1348 0.0786 -0.1773 0.1441 -0.5402 0.6503 -2.401 3.5015 -2.8112 4.1518 -0.06 0.09 -0.05 0.2001 -0.12 0.1701 -0.4102 -0.1701 -0.6303 -0.6603 -1.0005 -0.8904 -0.19 -0.1301 -0.6102 0.1801 -0.3701 0.5302 0.4001 0.6203 0.7303 1.2906 1.4406 1.3306Z" clip-rule="evenodd" stroke-width="1"></path>
</svg>