<svg xmlns="http://www.w3.org/2000/svg" fill="none" viewBox="0 0 24 24" id="Smart-Watch-Circle-Graph-Line--Streamline-Freehand">
  <desc>
    Smart Watch Circle Graph Line Streamline Icon: https://streamlinehq.com
  </desc>
  <path fill="#000000" fill-rule="evenodd" d="M15.4241 12.2674c-0.1633 -0.0134 -0.3274 -0.0134 -0.4907 0 -0.1802 -0.8411 0 -1.8024 -0.5907 -2.32305 -0.098 -0.0946 -0.2231 -0.15612 -0.3578 -0.17587 -0.1347 -0.01976 -0.2723 0.00323 -0.3932 0.06573 -0.2112 0.14874 -0.3864 0.34279 -0.5129 0.56809 -0.1265 0.2252 -0.201 0.4759 -0.2181 0.7336 -0.1695 0.7245 -0.3869 1.437 -0.6508 2.1328 -0.1502 -1.6422 -0.3405 -4.42578 -1.0013 -5.00653 -0.6609 -0.58076 -1.21158 -0.07009 -1.54201 0.76099 -0.37048 1.00134 -0.58075 2.94384 -1.10143 3.00394 -0.80952 0.0705 -1.62364 0.0705 -2.43315 0 -0.06903 0.0127 -0.1314 0.0492 -0.1763 0.1032 -0.0449 0.054 -0.06948 0.1219 -0.06948 0.1921s0.02458 0.1382 0.06948 0.1922c0.0449 0.0539 0.10727 0.0905 0.1763 0.1032 0.72093 0 2.74355 0.4606 3.22418 -0.2103 0.49885 -0.9811 0.89481 -2.0113 1.18151 -3.07394 0.1102 -0.24031 0 -1.18153 0.5708 4.43574 0.06 0.7009 0 1.8324 0.6708 2.1828 0.0747 0.037 0.1561 0.0586 0.2393 0.0635 0.0832 0.0048 0.1665 -0.0071 0.245 -0.0351 0.0785 -0.0281 0.1506 -0.0716 0.2119 -0.1281 0.0613 -0.0565 0.1106 -0.1247 0.1449 -0.2006 0.157 -0.4041 0.2842 -0.8191 0.3805 -1.2417 0.2303 -1.0013 0.6509 -2.0026 0.8011 -3.094l0.07 -0.2203c0.1202 0.771 0.1603 2.0026 0.8512 2.0827 1.0087 -0.1944 2.0287 -0.3248 3.0539 -0.3905 0.0903 0 0.1769 -0.0358 0.2407 -0.0997 0.0639 -0.0638 0.0998 -0.1504 0.0998 -0.2407 0 -0.0903 -0.0359 -0.1769 -0.0998 -0.2407 -0.0638 -0.0639 -0.1504 -0.0997 -0.2407 -0.0997 -0.7869 0.0041 -1.5728 0.0576 -2.353 0.1602Z" clip-rule="evenodd" stroke-width="1"></path>
  <path fill="#000000" fill-rule="evenodd" d="M16.0048 5.34838c-1.1971 -0.6888 -2.554 -1.05132 -3.9351 -1.05132s-2.73802 0.36252 -3.9351 1.05132l-0.78102 0.48062c-0.94949 0.64412 -1.74954 1.4847 -2.34599 2.46485 -0.59645 0.98014 -0.97538 2.07695 -1.11115 3.21625 -0.13576 1.1393 -0.0252 2.2945 0.32422 3.3874 0.34941 1.0928 0.92952 2.0979 1.70107 2.9471 3.10402 3.3443 8.43097 3.0039 11.52497 0.5607 0.0388 -0.0216 0.0725 -0.0512 0.0989 -0.0869 0.0263 -0.0358 0.0447 -0.0767 0.0539 -0.1202 0.0092 -0.0434 0.0089 -0.0883 -0.0007 -0.1317 -0.0097 -0.0433 -0.0285 -0.0841 -0.0553 -0.1195 -0.0267 -0.0354 -0.0608 -0.0647 -0.0998 -0.0859 -0.0391 -0.0211 -0.0822 -0.0337 -0.1265 -0.0367 -0.0443 -0.0031 -0.0887 0.0034 -0.1303 0.019 -0.0416 0.0155 -0.0793 0.0399 -0.1107 0.0713 -2.8837 2.1227 -7.76007 2.4031 -10.50363 -0.6809 -0.7875 -0.9266 -1.3289 -2.0366 -1.57423 -3.2277 -0.24534 -1.191 -0.1867 -2.4246 0.1705 -3.587 0.3572 -1.16239 1.00144 -2.21607 1.87328 -3.0638 0.87183 -0.84772 1.94316 -1.46217 3.11508 -1.78664 1.586 -0.46248 3.282 -0.37253 4.8101 0.2551 1.5281 0.62762 2.7978 1.75571 3.6008 3.19938 0.7759 1.48996 1.093 3.17636 0.9112 4.84626 -0.2403 1.512 -1.0013 1.7223 -0.6308 2.0026 0.0506 0.0502 0.119 0.0783 0.1902 0.0783 0.0713 0 0.1397 -0.0281 0.1903 -0.0783 1.7022 -2.2128 1.1315 -7.40958 -2.2229 -9.85275l-1.0013 -0.67087Z" clip-rule="evenodd" stroke-width="1"></path>
  <path fill="#000000" fill-rule="evenodd" d="M7.75411 4.38713c1.15149 -3.00389 1.44187 -3.07398 1.48192 -3.1641 2.00387 -0.10704 4.01317 -0.05011 6.00777 0.17022 0.5379 1.05062 0.9641 2.15475 1.2717 3.29427 0 0 0.811 0.44057 0.6809 -0.09011 -0.255 -1.19255 -0.5895 -2.3667 -1.0013 -3.51456 -0.0806 -0.211316 -0.2153 -0.397765 -0.3905 -0.540705 -0.5708 -0.380493 -6.5886 -1.001298 -7.29952 0C7.82118 1.94138 7.28428 3.40779 6.903 4.91782c-0.14018 0.68089 0.53069 0.3805 0.85111 -0.53069Z" clip-rule="evenodd" stroke-width="1"></path>
  <path fill="#000000" fill-rule="evenodd" d="M16.4053 20.468c-0.6008 -0.1702 -0.3504 0.8011 -1.3117 2.2029 -0.3304 0.0901 -5.86759 0.4305 -6.05784 0.1502 -0.43521 -0.7532 -0.81665 -1.5361 -1.14148 -2.3431 -0.03338 -0.0646 -0.08906 -0.1149 -0.15673 -0.1416 -0.06766 -0.0267 -0.1427 -0.0279 -0.2112 -0.0034 -0.06849 0.0245 -0.12578 0.0729 -0.16124 0.1364 -0.03546 0.0635 -0.04667 0.1377 -0.03156 0.2089 0.25033 0.8411 0.81105 2.8237 1.33173 3.0039 1.82232 0.7009 6.50842 0.0701 7.00912 -0.2503 0.5006 -0.3205 0.761 -1.6922 1.0013 -2.5834 0.0074 -0.0852 -0.0158 -0.1702 -0.0653 -0.2399 -0.0495 -0.0697 -0.1222 -0.1195 -0.2051 -0.1406Z" clip-rule="evenodd" stroke-width="1"></path>
</svg>