<svg xmlns="http://www.w3.org/2000/svg" fill="none" viewBox="0 0 24 24" id="Smart-Watch-Square-Graph-Alternate--Streamline-Freehand">
  <desc>
    Smart Watch Square Graph Alternate Streamline Icon: https://streamlinehq.com
  </desc>
  <path fill="#000000" fill-rule="evenodd" d="M4.37917 13.9884c-0.05995 0.1199 0 0.4097 0.3697 0.5196 0.36969 0.1099 1.64863 0.2498 1.81849 0.2798 2.16601 0.3168 4.37074 0.2525 6.51464 -0.1899 0.5295 0 1.2889 0.1899 1.2489 -0.3297 -0.0699 -0.7094 -1.7385 -0.4196 -1.7385 -0.5096 0.3797 -1.8185 0.1299 -1.6786 -0.0999 -3.2972 0 -0.046 -0.0091 -0.0914 -0.0267 -0.1339 -0.0175 -0.0424 -0.0433 -0.081 -0.0758 -0.1134 -0.0324 -0.0325 -0.071 -0.0583 -0.1134 -0.0758 -0.0424 -0.0176 -0.0879 -0.0267 -0.1338 -0.0267 -0.046 0 -0.0914 0.0091 -0.1339 0.0267 -0.0424 0.0175 -0.081 0.0433 -0.1134 0.0758 -0.0325 0.0324 -0.0583 0.071 -0.0758 0.1134 -0.0176 0.0425 -0.0267 0.0879 -0.0267 0.1339 -0.2508 1.105 -0.2508 2.2522 0 3.3572H9.86464c-0.8493 0 0 -0.7094 -0.22981 -2.7078 -0.06995 -0.7194 -0.20983 -1.45878 -0.20983 -1.99833 0.00787 -0.04527 0.00675 -0.09165 -0.0033 -0.13648 -0.01005 -0.04484 -0.02883 -0.08725 -0.05527 -0.12483 -0.02645 -0.03758 -0.06003 -0.06958 -0.09884 -0.09418 -0.03881 -0.02459 -0.08209 -0.0413 -0.12736 -0.04918 -0.04526 -0.00787 -0.09164 -0.00675 -0.13648 0.0033 -0.04483 0.01005 -0.08725 0.02883 -0.12482 0.05528 -0.03758 0.02644 -0.06958 0.06002 -0.09418 0.09883 -0.0246 0.03881 -0.04131 0.08209 -0.04918 0.12736 -0.12167 0.61308 -0.19847 1.23423 -0.22981 1.85843 -0.17985 3.3373 0.80933 2.8976 -0.57952 2.9176l-1.55871 0.05c0.16986 -3.1075 0.24979 -1.8285 -0.2498 -5.52545 0 -0.2498 0 -0.62948 -0.17985 -0.78935 -0.05873 -0.03645 -0.1263 -0.05618 -0.19543 -0.05705 -0.06912 -0.00088 -0.13717 0.01714 -0.1968 0.0521 -0.05964 0.03496 -0.1086 0.08553 -0.1416 0.14627 -0.03301 0.06074 -0.0488 0.12934 -0.04569 0.1984 0 0.07993 -0.09992 1.99835 -0.07993 2.81768 0.04151 1.0681 0.17186 2.1309 0.38968 3.1774 -0.15987 0.0199 -1.22899 -0.05 -1.28894 0.1498Z" clip-rule="evenodd" stroke-width="1"></path>
  <path fill="#000000" fill-rule="evenodd" d="m23.2436 16.0867 -0.07 -1.6187v-0.5395c-0.0049 -0.0862 -0.0301 -0.17 -0.0735 -0.2447 -0.0434 -0.0746 -0.1038 -0.138 -0.1763 -0.185 -0.3372 -0.1506 -0.7 -0.2354 -1.0691 -0.2498 -0.4807 -0.0135 -0.9617 0.0098 -1.4388 0.07 -0.4534 0.0321 -0.909 0.0153 -1.3589 -0.05h-0.0799V9.88183h2.6978c0.1498 0 0.6794 0 0.9991 -0.04996 0.1006 -0.01389 0.1973 -0.04753 0.2848 -0.09897 0.0874 -0.05145 0.1638 -0.11968 0.2248 -0.20078 0.0605 -0.11733 0.0914 -0.24768 0.0899 -0.37969 0 -0.17985 -0.0599 -0.45962 -0.0599 -0.54954V7.11412c0 -0.62948 0.1099 -1.29893 0.1399 -1.94839 0.0201 -0.30608 0.0201 -0.61316 0 -0.91924 -0.0175 -0.15152 -0.0801 -0.29427 -0.1799 -0.40966 -0.1199 -0.14988 -0.3697 -0.32973 -0.4196 -0.38968l-1.7286 -1.61866L19.6366 0.549546c-0.0916 -0.092061 -0.1883 -0.178798 -0.2898 -0.259786 -0.0252 -0.042223 -0.0601 -0.077839 -0.1018 -0.103901 -0.0417 -0.026062 -0.089 -0.041821 -0.138 -0.045975C18.7068 0.0715538 18.3032 0.0248579 17.898 0l-2.6578 0h-3.637c-0.8093 0 -1.61866 0.0899257 -2.42799 0.159868L6.56736 0.329727h-0.78935c-0.11522 0.012227 -0.22709 0.046128 -0.32972 0.099918 -0.24403 0.131899 -0.46642 0.30038 -0.65946 0.499587 -0.39967 0.369698 -0.77935 0.849298 -1.07911 1.179028 -0.29975 0.32972 -0.80933 0.81932 -1.22898 1.209 -0.41965 0.38968 -0.85929 0.75937 -1.30892 1.12906 -0.449625 0.3697 -0.329724 0.28976 -0.349708 0.79934C0.782145 6.13493 0.75217 6.99422 0.732187 7.93344 0.682228 9.99174 0.682228 12.11 0.632269 14.1983v3.7768c-0.005832 0.1923 0.017754 0.3844 0.069942 0.5696 0.089926 0.2897 0.769369 0.8393 0.779359 0.8493 1.35887 0.9991 2.6578 2.1382 3.99669 3.1574 0.59951 0.4396 1.209 0.8592 1.83848 1.2489 0.17145 0.1075 0.36748 0.1694 0.56953 0.1799 0.29583 0.0264 0.59343 0.0264 0.88927 0l2.11826 -0.0999c1.4188 -0.05 2.8476 -0.1299 4.2764 -0.2398 1.4289 -0.11 2.8477 -0.2698 4.2565 -0.4796 0.6502 -0.3241 1.2124 -0.8006 1.6387 -1.3889 0.4796 -0.5396 0.9092 -1.159 1.3589 -1.6986 0.2365 -0.2305 0.46 -0.474 0.6694 -0.7294 0.0956 -0.1341 0.1604 -0.2876 0.1898 -0.4496 0.0472 -0.3811 0.064 -0.7653 0.05 -1.1491 -0.02 -0.5995 -0.0699 -1.159 -0.0899 -1.6586ZM1.76134 18.185v-1.1591l-0.13989 -2.8276c0 -2.0883 -0.15987 -4.1766 -0.20983 -6.26486V5.26565c0.00844 -0.04625 0.00844 -0.09364 0 -0.13989l0.57953 -0.56953 0.99917 -0.70941c0.45962 -0.36969 0.90925 -0.74938 1.34888 -1.14905 0.26978 -0.25979 0.6095 -0.61949 0.99918 -0.91924 0.18369 -0.1635 0.38873 -0.30131 0.60949 -0.40966h0.78935l2.54789 -0.09992c0.99919 -0.09992 1.99839 -0.15987 2.99749 -0.21982l2.9976 -0.149873c0.8792 0 1.7685 -0.119901 2.6578 -0.139885h0.4096l-0.3996 0.569528c-0.3897 0.50958 -0.7594 0.99918 -1.1091 1.53873 -0.367 0.46535 -0.6788 0.97164 -0.9293 1.50875 -0.1552 0.68896 -0.2389 1.39211 -0.2498 2.09827 0.1499 1.43881 0.3098 6.45465 0.3398 7.90345 0.0599 3.8268 -0.2498 2.9476 0.4096 4.0766l0.2798 0.3897c0.6594 0.9992 1.3389 2.3281 1.9384 2.9975l0.4796 0.5995c-0.9992 0.09 -2.0583 0.1399 -3.0974 0.1799 -1.6986 0.0599 -3.3972 0.0799 -5.0958 0.0699l-2.16824 0.1h-0.82931c-0.83931 -0.4597 -1.64864 -0.9992 -2.44798 -1.4988 -0.03997 0.0799 -3.2673 -2.6878 -3.70693 -3.1074Zm20.47306 -0.1999c-0.0677 0.5172 -0.3028 0.998 -0.6694 1.3689 -0.5096 0.6395 -0.9992 1.3589 -1.5288 1.9983 -0.1299 0.1399 -0.2498 0.2798 -0.3797 0.4097l-0.4096 -0.4396c-0.6295 -0.6395 -1.3889 -1.9084 -2.0883 -2.8077 -0.1572 -0.2039 -0.3274 -0.3975 -0.5096 -0.5795 0.05 -1.1491 0.0999 -2.3081 0.1199 -3.4672V7.03418c0 -0.39967 -0.0599 -0.79933 -0.1099 -1.199 -0.0236 -0.28247 -0.067 -0.56293 -0.1299 -0.83931 -0.0356 -0.11346 -0.0933 -0.21874 -0.1698 -0.30974 0.3197 -0.47961 0.6594 -0.94922 0.9991 -1.38886 0.3398 -0.43963 0.7794 -0.94921 1.199 -1.40883 0 -0.04996 0.4996 -0.61949 0.5596 -0.4796l1.149 1.199 1.5787 1.62866c0.1232 0.11449 0.2174 0.25667 0.2747 0.41479 0.0574 0.15811 0.0762 0.32761 0.0551 0.49446 0 0.65945 -0.08 1.34888 -0.07 1.99834l0.0999 1.56871v0.17985c0 0.16986 -0.5795 0.16986 -0.6694 0.17985l-2.0983 0.09992h-0.5195v-0.35971l-0.05 -2.60784 -0.07 -0.82931c0.0832 -0.16661 0.1837 -0.32401 0.2998 -0.46962 0.196 -0.2391 0.4134 -0.45983 0.6495 -0.65945 0.0295 -0.02428 0.0539 -0.05413 0.0719 -0.08785 0.018 -0.03373 0.0292 -0.07066 0.0329 -0.1087 0.0037 -0.03804 -0.0001 -0.07644 -0.0112 -0.11301 -0.0112 -0.03656 -0.0294 -0.07058 -0.0537 -0.1001 -0.0242 -0.02953 -0.0541 -0.05398 -0.0878 -0.07196 -0.0337 -0.01799 -0.0707 -0.02916 -0.1087 -0.03287 -0.0381 -0.00371 -0.0765 0.00011 -0.113 0.01124 -0.0366 0.01112 -0.0706 0.02935 -0.1001 0.05362 -0.2689 0.20842 -0.5258 0.43192 -0.7694 0.66945 -0.1723 0.17591 -0.3202 0.37419 -0.4396 0.58951 -0.0699 0.13619 -0.1075 0.28661 -0.1099 0.43964v0.68943l-0.1799 2.61783v2.88758c0 0.9592 0.0899 1.9184 0.1499 2.8876l0.1599 1.8985c0 0.1598 0 0.3996 0.0499 0.5895 0.0186 0.1203 0.0522 0.2378 0.0999 0.3497l1.3489 1.6886c0.0256 0.0354 0.0579 0.0655 0.0951 0.0884 0.0372 0.023 0.0786 0.0383 0.1217 0.0453 0.0431 0.007 0.0872 0.0054 0.1298 -0.0047 0.0425 -0.0101 0.0826 -0.0285 0.118 -0.0541 0.0355 -0.0255 0.0655 -0.0579 0.0884 -0.0951 0.023 -0.0371 0.0384 -0.0785 0.0453 -0.1216 0.007 -0.0432 0.0054 -0.0873 -0.0047 -0.1298 -0.0101 -0.0425 -0.0284 -0.0826 -0.054 -0.1181l-1.1591 -1.6386v-3.0875c0.4704 0.0925 0.9496 0.1327 1.4288 0.1199 0.4425 -0.0297 0.8865 -0.0297 1.3289 0 0.1395 0.0145 0.277 0.0447 0.4097 0.09v1.9184c-0.02 0.5695 0.02 1.219 0 1.8684Z" clip-rule="evenodd" stroke-width="1"></path>
  <path fill="#000000" fill-rule="evenodd" d="M2.8904 5.22568c2.44798 0.08993 4.89595 -0.13988 7.3439 -0.07993 0.7652 0.01675 1.5289 0.07345 2.2881 0.16986 0.4896 0.05995 0.9992 0.1199 1.4888 0.15987h0.6395c0.9392 -0.3697 1.0791 -0.74938 0 -1.10909h-0.7994c-0.3996 0 -0.7993 -0.06994 -1.189 -0.1199 -0.8033 -0.08126 -1.6106 -0.11795 -2.418 -0.10991 -2.34804 0 -4.6861 0.3697 -6.9942 0.42965 -1.25896 0.16986 -1.02915 0.75937 -0.3597 0.65945Z" clip-rule="evenodd" stroke-width="1"></path>
  <path fill="#000000" fill-rule="evenodd" d="M4.11939 19.5338h0.84929c1.92879 0.0491 3.85863 -0.0377 5.77522 -0.2597 1.3089 -0.1499 2.6079 -0.3897 3.9068 -0.6695 0.9992 -0.2798 0.9992 -0.5196 0 -0.7294 -1.3289 0.2298 -2.6578 0.4197 -3.9967 0.5196 -1.87567 0.1449 -3.75971 0.1449 -5.63536 0H3.87958c-1.03914 0.5196 -0.51957 0.9992 0.23981 1.139Z" clip-rule="evenodd" stroke-width="1"></path>
</svg>