<svg xmlns="http://www.w3.org/2000/svg" fill="none" viewBox="0 0 24 24" id="Webcam--Streamline-Freehand">
  <desc>
    Webcam Streamline Icon: https://streamlinehq.com
  </desc>
  <path fill="#000000" fill-rule="evenodd" d="M12.1606 17.5101c0.4525 0.1196 0.9229 0.1568 1.3886 0.1099 0.7903 -0.072 1.565 -0.264 2.2975 -0.5694 7.3024 -2.9069 8.3013 -13.89538 0.2698 -16.552592 -1.3312 -0.4092631 -2.7266 -0.5684499 -4.1157 -0.4695069C9.90111 -0.0392969 7.82453 0.483309 6.00708 1.53692 2.86039 3.65469 0.812539 9.24881 3.5097 13.4744c0.70905 1.1168 1.69727 2.0293 2.86699 2.6472 -0.03146 0.0213 -0.05859 0.0484 -0.07991 0.0799 -0.99895 1.2287 -1.83807 1.4785 -2.51736 5.3444 -0.19979 1.1088 0 1.9979 1.0489 2.1977 1.79811 0.3296 12.08728 0.4995 14.64458 -0.4995 0.1318 -0.0567 0.2478 -0.1445 0.3383 -0.2559 0.0904 -0.1113 0.1526 -0.2429 0.1812 -0.3834 0.1179 -1.0454 -0.0016 -2.104 -0.3496 -3.0968 -0.2957 -0.8927 -0.7603 -1.7202 -1.3686 -2.4374 -0.3496 -0.3496 -0.7392 -0.1898 -0.7392 0.1399 0.972 1.2292 1.5376 2.7304 1.6183 4.2954 0 0.2198 -0.0899 0.8891 -0.0899 0.8891 -3.3352 0.425 -6.6999 0.572 -10.05947 0.4395 -4.14564 0 -4.20558 0 -4.2855 -0.3196 -0.02506 -1.2231 0.16775 -2.4408 0.56941 -3.5962 0.55941 -1.5284 1.62829 -2.1578 1.58833 -2.5673 0.78392 0.3642 1.62594 0.5874 2.48738 0.6593 0.08322 -0.0068 0.16127 -0.0431 0.22006 -0.1024 0.05878 -0.0592 0.09441 -0.1376 0.10045 -0.2209 0.00603 -0.0832 -0.01793 -0.1659 -0.06755 -0.233 -0.04963 -0.0672 -0.12164 -0.1144 -0.20301 -0.133 -1.06771 -0.0984 -2.09666 -0.4496 -3.00169 -1.0246s-1.66014 -1.3572 -2.20284 -2.2819C1.88142 9.19887 3.87932 4.25406 6.67638 2.48592c1.64613 -0.91463 3.51282 -1.3571 5.39432 -1.27866 1.2422 -0.09637 2.4915 0.03567 3.6861 0.38959 7.1226 2.32756 6.2335 12.06735 -0.1798 14.81445 -2.7371 1.1688 -3.3964 0.2897 -3.4863 0.2897 -0.3696 -0.01 -0.4795 0.5694 0.0699 0.8091Z" clip-rule="evenodd" stroke-width="1"></path>
  <path fill="#000000" fill-rule="evenodd" d="M7.67532 9.13891C6.38668 12.845 10.4224 15.2125 13.8488 13.7641c4.1457 -1.7482 3.2866 -7.3723 -0.7492 -7.52215 -0.0446 -0.0027 -0.0893 0.00343 -0.1316 0.01805 -0.0422 0.01461 -0.0811 0.03743 -0.1146 0.06712 -0.0334 0.0297 -0.0606 0.0657 -0.0801 0.10594 -0.0194 0.04024 -0.0308 0.08393 -0.0333 0.12856 -0.0499 0.64932 1.0589 0.06992 2.1278 1.17876 0.3412 0.39033 0.5787 0.86034 0.6904 1.36665 0.1117 0.50632 0.0941 1.03257 -0.0512 1.53027 -0.1453 0.4978 -0.4137 0.9508 -0.7803 1.3175 -0.3666 0.3666 -0.8197 0.635 -1.3174 0.7803 -2.5873 0.999 -5.70401 -0.4295 -4.91484 -3.30649 0.13958 -0.57007 0.42751 -1.09305 0.83454 -1.51587 0.40703 -0.42283 0.9187 -0.73044 1.483 -0.8916 0.0387 -0.00788 0.0755 -0.02329 0.1082 -0.04537 0.0328 -0.02208 0.0608 -0.0504 0.0826 -0.08333 0.0218 -0.03293 0.0369 -0.06983 0.0445 -0.1086 0.0075 -0.03876 0.0074 -0.07863 -0.0005 -0.11733s-0.0233 -0.07547 -0.0454 -0.10821c-0.0221 -0.03274 -0.0504 -0.06082 -0.0833 -0.08261 -0.0329 -0.0218 -0.0698 -0.0369 -0.1086 -0.04444 -0.0388 -0.00754 -0.0786 -0.00737 -0.1173 0.0005 -0.69658 0.14603 -1.34226 0.47321 -1.87194 0.94852 -0.52968 0.47531 -0.92461 1.08193 -1.14494 1.75864Z" clip-rule="evenodd" stroke-width="1"></path>
  <path fill="#000000" fill-rule="evenodd" d="M11.9009 2.68571c0.0688 -0.02585 0.1261 -0.0753 0.1618 -0.13953 0.0357 -0.06423 0.0473 -0.13905 0.0329 -0.2111 -0.0144 -0.07204 -0.0539 -0.13662 -0.1116 -0.18219 -0.0576 -0.04556 -0.1296 -0.06916 -0.203 -0.06656 -0.2848 0.05385 -0.549 0.18554 -0.7635 0.38047 -0.2144 0.19493 -0.3707 0.44546 -0.4514 0.72381 -0.0807 0.27834 -0.0827 0.57361 -0.0058 0.85302 0.0769 0.27942 0.2297 0.53206 0.4415 0.72988 1.2587 0.99895 3.2566 0.06993 2.9969 -1.5184 -0.0415 -0.33904 -0.2056 -0.65118 -0.4614 -0.87753 -0.2558 -0.22635 -0.5856 -0.35127 -0.9272 -0.35118 -0.0813 0.0139 -0.1551 0.05612 -0.2083 0.11919 -0.0532 0.06307 -0.0824 0.14293 -0.0824 0.22545 0 0.08251 0.0292 0.16237 0.0824 0.22544 0.0532 0.06308 0.127 0.1053 0.2083 0.11919 0.0754 0.00495 0.149 0.0251 0.2164 0.05926 0.0674 0.03415 0.1271 0.0816 0.1756 0.13947 0.0486 0.05788 0.0849 0.12498 0.1068 0.19727 0.0219 0.07229 0.0289 0.14827 0.0207 0.22335 0 0.59937 -0.999 0.90905 -1.4485 0.5694 -0.4495 -0.33964 -0.2397 -1.07886 0.2198 -1.21871Z" clip-rule="evenodd" stroke-width="1"></path>
  <path fill="#000000" fill-rule="evenodd" d="M14.1186 10.4376c0.2315 -0.3435 0.3373 -0.75633 0.2996 -1.16881 -0.0248 -0.179 -0.0908 -0.3498 -0.1929 -0.49897 -0.102 -0.14917 -0.2372 -0.27266 -0.395 -0.36075 -0.1578 -0.0881 -0.3338 -0.1384 -0.5144 -0.14696 -0.1805 -0.00855 -0.3605 0.02487 -0.5259 0.09764 -0.8991 0.16982 0.8391 0.71924 0.6792 1.83805 -0.0176 0.0823 -0.005 0.1681 0.0356 0.2418 0.0405 0.0737 0.1063 0.1303 0.1852 0.1595 0.0789 0.0291 0.1657 0.0288 0.2444 -0.0009 0.0787 -0.0296 0.1441 -0.0867 0.1842 -0.1606Z" clip-rule="evenodd" stroke-width="1"></path>
</svg>