<svg xmlns="http://www.w3.org/2000/svg" fill="none" viewBox="0 0 14 14"><g id="airplane--travel-plane-adventure-airplane-transportation"><path id="Vector" fill="#37d7ff" d="M1.25 2.75h1.61a.49.49 0 0 1 .48.38l.51 2 5-1a3.69 3.69 0 0 1 4.4 3.59 1 1 0 0 1-1 1h-4.4l-1 1.58a2 2 0 0 1-1.68.92h-1.1a.5.5 0 0 1-.44-.73l.88-1.74H1.75a1 1 0 0 1-1-1v-4.5a.5.5 0 0 1 .5-.5Z"></path><path id="Vector_2" stroke="#3e3e3e" stroke-linecap="round" stroke-linejoin="round" d="M1.25 2.75h1.61a.49.49 0 0 1 .48.38l.51 2 5-1a3.69 3.69 0 0 1 4.4 3.59 1 1 0 0 1-1 1h-4.4l-1 1.58a2 2 0 0 1-1.68.92h-1.1a.5.5 0 0 1-.44-.73l.88-1.74H1.75a1 1 0 0 1-1-1v-4.5a.5.5 0 0 1 .5-.5Z"></path></g></svg>