<svg xmlns="http://www.w3.org/2000/svg" fill="none" viewBox="0 0 14 14"><g id="navigation-arrow-off--compass-arrow-map-bearing-navigation-maps-heading-gps-off-disable"><path id="Vector" fill="#37d7ff" d="M7.015 13.03a.5.5 0 0 0 .908-.03l4.596-10.865a.5.5 0 0 0-.655-.655L1 6.077a.5.5 0 0 0-.029.908l3.88 1.94a.5.5 0 0 1 .225.224l1.94 3.88Z"></path><path id="Vector_2" stroke="#3e3e3e" stroke-linecap="round" stroke-linejoin="round" d="m.502.502 12.995 12.996"></path><path id="Vector_3" stroke="#3e3e3e" stroke-linecap="round" stroke-linejoin="round" d="m4.568 4.568 7.296-3.087a.5.5 0 0 1 .655.655L9.432 9.432"></path><path id="Vector_4" stroke="#3e3e3e" stroke-linecap="round" stroke-linejoin="round" d="m8.5 11.636-.577 1.365a.5.5 0 0 1-.908.029l-1.94-3.88a.5.5 0 0 0-.224-.225L.97 6.985a.5.5 0 0 1 .028-.908L2.364 5.5"></path></g></svg>