<svg xmlns="http://www.w3.org/2000/svg" fill="none" viewBox="0 0 24 24" id="Smiley-Lol-Sideways--Streamline-Ultimate">
  <desc>
    Smiley Lol Sideways Streamline Icon: https://streamlinehq.com
  </desc>
  <path stroke="#000000" stroke-linecap="round" stroke-linejoin="round" d="M9.69 17.4859c2.487 1.75 5.686 1.739 7.611 -0.185 1.925 -1.924 1.935 -5.124 0.185 -7.61096 -1.9428 3.18076 -4.6152 5.85316 -7.796 7.79596Z" stroke-width="1"></path>
  <path stroke="#000000" stroke-linecap="round" stroke-linejoin="round" d="M4.58501 11.9851h4.243l-2.652 2.651" stroke-width="1"></path>
  <path stroke="#000000" stroke-linecap="round" stroke-linejoin="round" d="M12.01 4.56006v4.243l2.651 -2.652" stroke-width="1"></path>
  <path stroke="#000000" stroke-linecap="round" stroke-linejoin="round" d="M17.536 2.216C15.397 1.00148 12.9185 0.522388 10.4809 0.852237 8.04333 1.18209 5.78132 2.30265 4.04199 4.04199 2.30265 5.78132 1.18209 8.04333 0.852237 10.4809 0.522388 12.9185 1.00148 15.397 2.216 17.536" stroke-width="1"></path>
  <path stroke="#000000" stroke-linecap="round" stroke-linejoin="round" d="M7.888 22.4699c2.03782 0.7997 4.2647 0.9874 6.4076 0.5402 2.1429 -0.4472 4.1088 -1.5099 5.6568 -3.0578 1.5479 -1.5479 2.6106 -3.5138 3.0578 -5.6568 0.4472 -2.1429 0.2594 -4.36974 -0.5402 -6.40756" stroke-width="1"></path>
  <path stroke="#000000" stroke-linecap="round" stroke-linejoin="round" d="M19.8 4.38306c0.3315 0 0.6495 0.13169 0.8839 0.36611 0.2344 0.23442 0.3661 0.55237 0.3661 0.88389 0 0.33152 -0.1317 0.64946 -0.3661 0.88388 -0.2344 0.23442 -0.5524 0.36612 -0.8839 0.36612 -0.8983 -0.27155 -1.7438 -0.69428 -2.5 -1.25 0.7562 -0.55573 1.6017 -0.97845 2.5 -1.25Z" stroke-width="1"></path>
  <path stroke="#000000" stroke-linecap="round" stroke-linejoin="round" d="M4.383 19.8c0 0.3316 0.13169 0.6495 0.36611 0.8839 0.23442 0.2345 0.55236 0.3661 0.88389 0.3661 0.33152 0 0.64946 -0.1316 0.88388 -0.3661 0.23442 -0.2344 0.36612 -0.5523 0.36612 -0.8839 -0.27155 -0.8983 -0.69428 -1.7437 -1.25 -2.5 -0.55573 0.7563 -0.97845 1.6017 -1.25 2.5Z" stroke-width="1"></path>
</svg>