<svg xmlns="http://www.w3.org/2000/svg" fill="none" viewBox="0 0 24 24" id="Guitar--Streamline-Cyber">
  <desc>
    Guitar Streamline Icon: https://streamlinehq.com
  </desc>
  <path stroke="#092f63" stroke-linecap="round" stroke-linejoin="round" stroke-miterlimit="10" d="m4 15 5 5" stroke-width="1"></path>
  <path stroke="#092f63" stroke-linecap="round" stroke-linejoin="round" stroke-miterlimit="10" d="m18 8 -2 -2 2.964 -4.5L22.5 5.036 18 8Z" stroke-width="1"></path>
  <path stroke="#092f63" stroke-linejoin="round" stroke-miterlimit="10" d="m15.423 10.834 1.203 3.63 -1.975 1.975L12.5 17v4l-2.789 2.5L3 21 0.5 14.289 3 11.5h4l0.561 -2.15098 1.975 -1.975 3.63 1.203" stroke-width="1"></path>
  <path stroke="#092f63" stroke-linecap="round" stroke-linejoin="round" stroke-miterlimit="10" d="M17.97 2.994 17 2" stroke-width="1"></path>
  <path stroke="#092f63" stroke-linecap="round" stroke-linejoin="round" stroke-miterlimit="10" d="m16.861 4.71305 -0.909 -0.908" stroke-width="1"></path>
  <path stroke="#092f63" stroke-linecap="round" stroke-linejoin="round" stroke-miterlimit="10" d="m21.006 6.03003 0.994 0.97" stroke-width="1"></path>
  <path stroke="#092f63" stroke-linecap="round" stroke-linejoin="round" stroke-miterlimit="10" d="m19.287 7.13904 0.908 0.908" stroke-width="1"></path>
  <path stroke="#092f63" stroke-linecap="round" stroke-linejoin="round" stroke-miterlimit="10" d="M6.5 17.5 17 7" stroke-width="1"></path>
  <path stroke="#092f63" stroke-linecap="round" stroke-linejoin="round" stroke-miterlimit="10" d="M8 19 18 8" stroke-width="1"></path>
  <path stroke="#092f63" stroke-linecap="round" stroke-linejoin="round" stroke-miterlimit="10" d="M5 16 16 6" stroke-width="1"></path>
</svg>