<svg xmlns="http://www.w3.org/2000/svg" fill="none" viewBox="0 0 24 24" id="Headset-User--Streamline-Cyber">
  <desc>
    Headset User Streamline Icon: https://streamlinehq.com
  </desc>
  <path stroke="#092f63" stroke-linejoin="round" stroke-miterlimit="10" d="m1.5 23.5 2 -3 9 -1 9 1 2 3h-22Z" stroke-width="1"></path>
  <path stroke="#092f63" stroke-linejoin="round" stroke-miterlimit="10" d="M6.5 8v8l6 2.5 6 -2.5V9.5" stroke-width="1"></path>
  <path stroke="#092f63" stroke-linecap="round" stroke-linejoin="round" stroke-miterlimit="10" d="M18.5 9.5h-6L6.5 8V6.5l6 -3 6 3v3Z" stroke-width="1"></path>
  <path stroke="#092f63" stroke-linecap="round" stroke-linejoin="round" stroke-miterlimit="10" d="M10.5 11.5v1" stroke-width="1"></path>
  <path stroke="#092f63" stroke-linecap="round" stroke-linejoin="round" stroke-miterlimit="10" d="M14.5 11.5v1" stroke-width="1"></path>
  <path stroke="#092f63" stroke-linejoin="round" stroke-miterlimit="10" d="m20.5 15.5 3 -1V10l-3 -1v6.5Z" stroke-width="1"></path>
  <path stroke="#092f63" stroke-linejoin="round" stroke-miterlimit="10" d="m4.5 15.5 -3 -1V10l3 -1v6.5Z" stroke-width="1"></path>
  <path stroke="#092f63" stroke-linecap="round" stroke-linejoin="round" stroke-miterlimit="10" d="M4.5 9V5.5l8 -4 8 4V9" stroke-width="1"></path>
  <path stroke="#092f63" stroke-linecap="round" stroke-linejoin="round" stroke-miterlimit="10" d="m11 15 1.5 0.5L14 15" stroke-width="1"></path>
</svg>