<svg xmlns="http://www.w3.org/2000/svg" fill="none" viewBox="0 0 24 24" id="Mario--Streamline-Cyber">
  <desc>
    Mario Streamline Icon: https://streamlinehq.com
  </desc>
  <path stroke="#092f63" stroke-linecap="round" stroke-linejoin="round" stroke-miterlimit="10" d="M7 0.5h10l5.5 7 -2 3v9l-8.5 4 -8.5 -4v-9l-2 -3L7 0.5Z" stroke-width="1"></path>
  <path stroke="#092f63" stroke-linecap="round" stroke-linejoin="round" stroke-miterlimit="10" d="M3.5 11.5h-3v4l3 2" stroke-width="1"></path>
  <path stroke="#092f63" stroke-linecap="round" stroke-linejoin="round" stroke-miterlimit="10" d="M20.5 11.5h3v4l-3 2" stroke-width="1"></path>
  <path stroke="#092f63" stroke-linecap="round" stroke-linejoin="round" stroke-miterlimit="10" d="m9 5.5 1.5 -3 1.5 2 1.5 -2 1.5 3" stroke-width="1"></path>
  <path stroke="#092f63" stroke-linecap="round" stroke-linejoin="round" stroke-miterlimit="10" d="M8.5 12.5v1" stroke-width="1"></path>
  <path stroke="#092f63" stroke-linecap="round" stroke-linejoin="round" stroke-miterlimit="10" d="M15.5 12.5v1" stroke-width="1"></path>
  <path stroke="#092f63" stroke-linecap="round" stroke-linejoin="round" stroke-miterlimit="10" d="m12 19 2 1 1.5 -1 2 -0.5 1 -2.5 -6.5 1.5L5.5 16l1 2.5 2 0.5 1.5 1 2 -1Z" stroke-width="1"></path>
  <path stroke="#092f63" stroke-linecap="round" stroke-linejoin="round" stroke-miterlimit="10" d="M20.5 10.5h-17l2.5 -3h12l2.5 3Z" stroke-width="1"></path>
</svg>