<svg xmlns="http://www.w3.org/2000/svg" fill="none" viewBox="0 0 24 24" id="Megaman--Streamline-Cyber">
  <desc>
    Megaman Streamline Icon: https://streamlinehq.com
  </desc>
  <path stroke="#092f63" stroke-linecap="round" stroke-linejoin="round" stroke-miterlimit="10" d="m13.485 2.08496 6.93 3.465V19.935l-3.96 2.941 1.485 -9.9 -1.98 -2.476L12 12.976 8.03996 10.5l-1.98 2.476 1.485 9.9 -3.96 -2.941V5.54996l6.93004 -3.465" stroke-width="1"></path>
  <path stroke="#092f63" stroke-linecap="round" stroke-linejoin="round" stroke-miterlimit="10" d="M13.485 6.54004h-2.97v1.98h2.97v-1.98Z" stroke-width="1"></path>
  <path stroke="#092f63" stroke-linecap="round" stroke-linejoin="round" stroke-miterlimit="10" d="M13.485 1.09498v2.475h-2.97v-2.475L12 0.599976l1.485 0.495004Z" stroke-width="1"></path>
  <path stroke="#092f63" stroke-linecap="round" stroke-linejoin="round" stroke-miterlimit="10" d="m0.614014 14.984 2.969996 1.485V8.05396L0.615014 9.53895l-0.001 5.44505Z" stroke-width="1"></path>
  <path stroke="#092f63" stroke-linecap="round" stroke-linejoin="round" stroke-miterlimit="10" d="M10.515 20.4h2.97" stroke-width="1"></path>
  <path stroke="#092f63" stroke-linecap="round" stroke-linejoin="round" stroke-miterlimit="10" d="M9.52502 15.45v0.99" stroke-width="1"></path>
  <path stroke="#092f63" stroke-linecap="round" stroke-linejoin="round" stroke-miterlimit="10" d="m23.386 14.984 -2.97 1.485V8.05396l2.97 1.48499V14.984Z" stroke-width="1"></path>
  <path stroke="#092f63" stroke-linecap="round" stroke-linejoin="round" stroke-miterlimit="10" d="M16.694 21.283 12 23.4l-4.69397 -2.117" stroke-width="1"></path>
  <path stroke="#092f63" stroke-linecap="round" stroke-linejoin="round" stroke-miterlimit="10" d="M14.475 15.45v0.99" stroke-width="1"></path>
</svg>