<svg xmlns="http://www.w3.org/2000/svg" fill="none" viewBox="0 0 24 24" id="Natural-Disaster-Flood--Streamline-Ultimate">
  <desc>
    Natural Disaster Flood Streamline Icon: https://streamlinehq.com
  </desc>
  <path stroke="#000000" stroke-linecap="round" stroke-linejoin="round" d="M0.75 16.5002c1.65539 -1.4621 3.79141 -2.2631 6 -2.25 3.75 0 10.5 6.333 16.5 0.333" stroke-width="1"></path>
  <path stroke="#000000" stroke-linecap="round" stroke-linejoin="round" d="M12.955 12.954c0.8962 -1.2544 1.3512 -2.7704 1.294 -4.311 0.0058 -0.24981 -0.0384 -0.49825 -0.13 -0.73072 -0.0917 -0.23247 -0.2288 -0.44429 -0.4034 -0.62301 -0.1747 -0.17871 -0.3833 -0.32072 -0.6136 -0.41767 -0.2303 -0.09695 -0.4776 -0.1469 -0.7275 -0.1469s-0.4972 0.04995 -0.7275 0.1469c-0.2303 0.09695 -0.4389 0.23896 -0.6135 0.41767 -0.1747 0.17872 -0.3118 0.39054 -0.4034 0.62301 -0.0916 0.23247 -0.1359 0.48091 -0.1301 0.73072 0 0.556 -0.86098 0.4 -1.28198 -0.035 -0.11964 -0.12395 -0.21316 -0.27067 -0.275 -0.43146 -0.06184 -0.16079 -0.09075 -0.33237 -0.085 -0.50454 0.041 -1.2529 0.56751 -2.44077 1.46828 -3.31259C11.227 3.48758 12.4314 3.00011 13.685 3c5.139 0 5.831 5.465 7.623 9.091" stroke-width="1"></path>
  <path stroke="#000000" stroke-linecap="round" stroke-linejoin="round" d="M0.75 20.2502c1.65539 -1.4621 3.79141 -2.2631 6 -2.25 3.75 0 10.5 6.333 16.5 0.333" stroke-width="1"></path>
</svg>