<svg xmlns="http://www.w3.org/2000/svg" fill="none" viewBox="0 0 24 24" id="Fortune-Telling-Sphere--Streamline-Sharp-Gradient-Free">
  <desc>
    Fortune Telling Sphere Streamline Icon: https://streamlinehq.com
  </desc>
  <g id="Gradient/Culture/fortune-telling-sphere--religion-fortune-telling-sphere-culture">
    <path id="Union" fill="url(#paint0_linear_628_20049)" fill-rule="evenodd" d="M12 1c-5.08872 0-9.19226 4.17456-9.19226 9.2972 0 2.3803.88527 4.5538 2.34176 6.1994l13.701 0c1.4565-1.6456 2.3417-3.8191 2.3417-6.1994C21.1922 5.17456 17.0887 1 12 1ZM8.88622 7.22941C9.7347 6.43619 10.7013 5.87207 12 5.87207c1.2986 0 2.2652.56412 3.1137 1.35734.4206.39325.8175.84751 1.2133 1.32072.1271.15205.2536.3054.3811.45984l0 .00001 0 .00003c.274.33203.5521.66911.8498 1.00929l.217.2481-.217.2481c-.2977.3401-.5758.6772-.8497 1.0092l-.0001 0 0 .0001-.0002.0002-.0005.0006-.0001.0002c-.1272.1541-.2534.3071-.3803.4589-.3958.4732-.7927.9274-1.2133 1.3207-.8485.7932-1.8151 1.3573-3.1137 1.3573-1.2987 0-2.2653-.5641-3.11377-1.3573-.42065-.3933-.81751-.8475-1.21327-1.3207-.12716-.1521-.25367-.3054-.38109-.4598l-.00004-.0001-.00001 0c-.27396-.332-.5521-.6691-.84977-1.0093l-.21707-.2481.21707-.2481c.29768-.34019.57581-.67729.84979-1.00933l0-.00001.00009-.00011c.1274-.1544.25389-.30771.38103-.45972.39576-.47321.79262-.92747 1.21326-1.32072ZM22 22.9966l-1.9056-5-16.18877 0-1.90563 5 20 0ZM13.25 9.01746h-2.5v2.50004h2.5V9.01746Z" clip-rule="evenodd"></path>
  </g>
  <defs>
    <linearGradient id="paint0_linear_628_20049" x1="5.269" x2="22.108" y1="5.23" y2="13.713" gradientUnits="userSpaceOnUse">
      <stop stop-color="#ffd600"></stop>
      <stop offset="1" stop-color="#00d078"></stop>
    </linearGradient>
  </defs>
</svg>