<svg xmlns="http://www.w3.org/2000/svg" fill="none" viewBox="0 0 14 14" id="Burrito-Fastfood--Streamline-Core">
  <desc>
    Burrito Fastfood Streamline Icon: https://streamlinehq.com
  </desc>
  <g id="burrito-fastfood">
    <path id="rectangle 69" stroke="#000000" stroke-linecap="round" stroke-linejoin="round" d="M0.864596 10.3973 3.4657 12.9984c0.39053 0.3905 1.02369 0.3905 1.41422 0l5.29358 -5.29363 -4.0153 -4.01532L0.864597 8.98306C0.474072 9.37358 0.474072 10.0067 0.864596 10.3973Z" stroke-width="1"></path>
    <path id="rectangle 67" stroke="#000000" stroke-linecap="round" stroke-linejoin="round" d="M0.600072 9.56237 5.97811 10.9709c0.74012 0.1938 1.41489 -0.4814 1.22057 -1.22137L5.72266 4.12891" stroke-width="1"></path>
    <path id="ellipse 1463" stroke="#000000" stroke-linecap="round" d="M6.64844 4.17969c0.12162 -0.19107 0.36034 -0.50131 0.54705 -0.65072 0.34209 -0.27373 0.74317 -0.42391 1.14932 -0.45652 0.67581 -0.05426 1.36566 0.21702 1.82119 0.78624 0.7292 0.91133 0.5816 2.24125 -0.32977 2.97047l-0.29717 0.23725" stroke-width="1"></path>
    <path id="union" stroke="#000000" stroke-linejoin="round" d="M6.4593 4.00327c-0.69706 -0.69706 -0.69648 -1.82663 0 -2.52312 0.56336 -0.563358 1.41183 -0.673631 2.08375 -0.32624l0.05542 -0.05771c0.36281 -0.362814 0.84275 -0.536508 1.31755 -0.522224 0.43828 0.014284 0.87188 0.188549 1.20558 0.522224 0.3154 0.31539 0.4885 0.72048 0.5188 1.13357 0.4091 0.032 0.8136 0.19884 1.1267 0.51194 0.6971 0.69706 0.6965 1.82664 0 2.52312 -0.0206 0.02057 -0.04 0.03771 -0.06 0.05771 0.3474 0.67192 0.2394 1.5181 -0.324 2.08146 -0.6964 0.69648 -1.826 0.69706 -2.52307 0" stroke-width="1"></path>
  </g>
</svg>