<svg xmlns="http://www.w3.org/2000/svg" fill="none" viewBox="0 0 14 14"><g id="microwave--cook-food-appliances-cooking-nutrition-appliance-microwave-kitchenware"><path id="Vector" stroke="#3e3e3e" stroke-linecap="round" stroke-linejoin="round" d="M13 2.5H1a.5.5 0 0 0-.5.5v8a.5.5 0 0 0 .5.5h12a.5.5 0 0 0 .5-.5V3a.5.5 0 0 0-.5-.5Z"></path><path id="Vector_2" stroke="#3e3e3e" stroke-linecap="round" stroke-linejoin="round" d="M8.5 4.5H3a.5.5 0 0 0-.5.5v4a.5.5 0 0 0 .5.5h5.5A.5.5 0 0 0 9 9V5a.5.5 0 0 0-.5-.5Z"></path><path id="Vector_3" stroke="#3e3e3e" stroke-linecap="round" stroke-linejoin="round" d="M11 5h.5"></path><path id="Vector_4" stroke="#3e3e3e" stroke-linecap="round" stroke-linejoin="round" d="M11 7h.5"></path></g></svg>