<svg xmlns="http://www.w3.org/2000/svg" fill="none" viewBox="0 0 24 24" id="Adobe-After-Effects-Logo--Streamline-Logos">
  <desc>
    Adobe After Effects Logo Streamline Icon: https://streamlinehq.com
  </desc>
  <path stroke="#000000" stroke-linejoin="round" d="m4.5 16.5 3 -9h1l3 9" stroke-width="1"></path>
  <path stroke="#000000" stroke-linejoin="round" d="M5.5 13h5" stroke-width="1"></path>
  <path stroke="#000000" stroke-linejoin="round" d="M19 15.5s-1.146 0.5 -2.209 0.5C15.176 16 14 14.22 14 13c0 -1.5 0.704 -3 3 -3 1.6 0 2 1.714 2 2.5h-5" stroke-width="1"></path>
  <path stroke="#000000" stroke-linejoin="round" d="M1.5 4.5a3 3 0 0 1 3 -3h15a3 3 0 0 1 3 3v15a3 3 0 0 1 -3 3h-15a3 3 0 0 1 -3 -3v-15Z" stroke-width="1"></path>
</svg>