<svg xmlns="http://www.w3.org/2000/svg" fill="none" viewBox="0 0 24 24" id="Creative-Commons-Logo--Streamline-Logos">
  <desc>
    Creative Commons Logo Streamline Icon: https://streamlinehq.com
  </desc>
  <path stroke="#000000" stroke-linejoin="round" d="M11.165 10.5C10.733 9.603 9.925 9 9 9c-1.38 0 -2.5 1.343 -2.5 3s1.12 3 2.5 3c0.925 0 1.733 -0.603 2.165 -1.5" stroke-width="1"></path>
  <path stroke="#000000" stroke-linejoin="round" d="M17.666 10.5C17.233 9.603 16.426 9 15.5 9c-1.38 0 -2.5 1.343 -2.5 3s1.12 3 2.5 3c0.925 0 1.733 -0.603 2.166 -1.5" stroke-width="1"></path>
  <path stroke="#000000" stroke-linejoin="round" d="M1.5 12a10.5 10.5 0 1 0 21 0 10.5 10.5 0 1 0 -21 0" stroke-width="1"></path>
</svg>