<svg xmlns="http://www.w3.org/2000/svg" fill="none" viewBox="0 0 24 24" id="Invision-Logo--Streamline-Logos">
  <desc>
    Invision Logo Streamline Icon: https://streamlinehq.com
  </desc>
  <path stroke="#000000" stroke-linejoin="round" d="M7.5 6.5a1 1 0 1 0 2 0 1 1 0 1 0 -2 0" stroke-width="1"></path>
  <path stroke="#000000" stroke-linejoin="round" d="M5.5 10H8c-1.167 2.333 -2.526 6.87 -0.984 7.171 1.672 0.326 3.5 -1.416 4.165 -2.21" stroke-width="1"></path>
  <path stroke="#000000" stroke-linejoin="round" d="M10.5 10h2l-2 7.5" stroke-width="1"></path>
  <path stroke="#000000" stroke-linejoin="round" d="M11.691 12.964c0.5 -1 2.209 -2.964 3.809 -2.964 4.436 0 -0.735 5.981 1.5 7 1.295 0.59 2.284 -1.005 2.5 -1.5" stroke-width="1"></path>
  <path stroke="#000000" stroke-linecap="round" d="M21 1.5H3A1.5 1.5 0 0 0 1.5 3v18A1.5 1.5 0 0 0 3 22.5h18a1.5 1.5 0 0 0 1.5 -1.5V3A1.5 1.5 0 0 0 21 1.5Z" stroke-width="1"></path>
</svg>