<svg xmlns="http://www.w3.org/2000/svg" fill="none" viewBox="0 0 24 24" id="Proto-Io-Logo-2--Streamline-Logos">
  <desc>
    Proto Io Logo 2 Streamline Icon: https://streamlinehq.com
  </desc>
  <path stroke="#000000" stroke-linejoin="round" d="M1.5 12a10.5 10.5 0 1 0 21 0 10.5 10.5 0 1 0 -21 0" stroke-width="1"></path>
  <path stroke="#000000" stroke-linejoin="round" d="M16.593 2.555c-0.618 0.86 -1.182 1.727 -1.979 2.945C12.576 6.167 8.4 7.9 8 9.5h4.685c-0.112 0.63 -0.034 1.151 0.315 1.5s0.87 0.427 1.5 0.315V16c1.6 -0.4 3.333 -4.576 4 -6.614 1.218 -0.797 2.086 -1.361 2.945 -1.978" stroke-width="1"></path>
  <path stroke="#000000" stroke-linecap="round" stroke-linejoin="round" d="M14.579 5.522C14.079 6.522 14 7.5 14 7.5" stroke-width="1"></path>
  <path stroke="#000000" stroke-linecap="round" stroke-linejoin="round" d="M18.514 9.4c-1 0.5 -2.014 0.6 -2.014 0.6" stroke-width="1"></path>
  <path stroke="#000000" stroke-linejoin="round" d="M6.5 17.5c2.5 0 5.5 -2.5 6 -4 0 0 -1.5 1.5 -2.5 0.5s0.5 -2.5 0.5 -2.5c-1.5 0.5 -4 3.5 -4 6Z" stroke-width="1"></path>
  <path stroke="#000000" stroke-linejoin="round" d="M17 5.75a1.25 1.25 0 1 0 2.5 0 1.25 1.25 0 1 0 -2.5 0" stroke-width="1"></path>
</svg>