<svg xmlns="http://www.w3.org/2000/svg" viewBox="0 0 32 32" id="Entertainment-Events-Hobbies-Chess-Knight--Streamline-Pixel">
  <desc>
    Entertainment Events Hobbies Chess Knight Streamline Icon: https://streamlinehq.com
  </desc>
  <title>entertainment-events-hobbies-chess-knight</title>
  <g>
    <path d="M26.67 26.66h1.52v3.05h-1.52Z" fill="#000000" stroke-width="1"></path>
    <path d="M25.15 9.9h1.52v3.05h-1.52Z" fill="#000000" stroke-width="1"></path>
    <path d="M6.86 29.71h19.81v1.53H6.86Z" fill="#000000" stroke-width="1"></path>
    <path d="M23.62 12.95h1.53v1.52h-1.53Z" fill="#000000" stroke-width="1"></path>
    <path d="M23.62 8.38h1.53V9.9h-1.53Z" fill="#000000" stroke-width="1"></path>
    <path d="M22.1 17.52h1.52v3.05H22.1Z" fill="#000000" stroke-width="1"></path>
    <path d="M22.1 6.86h1.52v1.52H22.1Z" fill="#000000" stroke-width="1"></path>
    <path d="m19.05 14.47 0 1.53 1.52 0 0 1.52 1.53 0 0 -1.52 1.52 0 0 -1.53 -4.57 0z" fill="#000000" stroke-width="1"></path>
    <path d="M20.57 9.9h1.53v1.53h-1.53Z" fill="#000000" stroke-width="1"></path>
    <path d="M20.57 3.81h1.53v3.05h-1.53Z" fill="#000000" stroke-width="1"></path>
    <path d="M19.05 2.28h1.52v1.53h-1.52Z" fill="#000000" stroke-width="1"></path>
    <path d="M17.53 12.95h1.52v1.52h-1.52Z" fill="#000000" stroke-width="1"></path>
    <path d="M17.53 6.86h1.52v1.52h-1.52Z" fill="#000000" stroke-width="1"></path>
    <path d="M17.53 0.76h1.52v1.52h-1.52Z" fill="#000000" stroke-width="1"></path>
    <path d="M16 11.43h1.53v1.52H16Z" fill="#000000" stroke-width="1"></path>
    <path d="M16 5.33h1.53v1.53H16Z" fill="#000000" stroke-width="1"></path>
    <path d="M14.48 6.86H16v1.52h-1.52Z" fill="#000000" stroke-width="1"></path>
    <path d="M14.48 2.28h3.05v1.53h-3.05Z" fill="#000000" stroke-width="1"></path>
    <path d="M12.96 0.76h1.52v1.52h-1.52Z" fill="#000000" stroke-width="1"></path>
    <path d="M11.43 20.57h1.53v-3.05h-1.53V16H9.91V8.38h1.52V6.86h1.53V2.28H9.91v1.53H6.86v1.52H5.34v1.53H3.81V16h1.53v1.52h1.52v1.53h3.05v3.04h1.52ZM8.38 16H6.86v-1.53h1.52Zm0 -4.57H5.34V9.9h3.04Zm0 -4.57V5.33h1.53v1.53Z" fill="#000000" stroke-width="1"></path>
    <path d="m26.67 26.66 0 -1.52 -1.52 0 0 -4.57 -1.53 0 0 4.57 -13.71 0 0 -3.05 -1.53 0 0 3.05 -1.52 0 0 1.52 19.81 0z" fill="#000000" stroke-width="1"></path>
    <path d="M5.34 26.66h1.52v3.05H5.34Z" fill="#000000" stroke-width="1"></path>
  </g>
</svg>