<svg xmlns="http://www.w3.org/2000/svg" viewBox="0 0 32 32" id="Entertainment-Events-Hobbies-Chess-Rook--Streamline-Pixel">
  <desc>
    Entertainment Events Hobbies Chess Rook Streamline Icon: https://streamlinehq.com
  </desc>
  <title>entertainment-events-hobbies-chess-rook</title>
  <g>
    <path d="M25.905 25.9h1.52v3.05h-1.52Z" fill="#000000" stroke-width="1"></path>
    <path d="M6.095 28.95h19.81v1.53H6.095Z" fill="#000000" stroke-width="1"></path>
    <path d="M21.335 19.81h1.52v1.52h-1.52Z" fill="#000000" stroke-width="1"></path>
    <path d="M19.805 18.29h1.53v1.52h-1.53Z" fill="#000000" stroke-width="1"></path>
    <path d="M13.715 18.29v-7.62h4.57v7.62h1.52v-7.62h3.05V9.14h1.53V1.52h-3.05v1.53h-3.05V1.52h-4.57v1.53h-3.05V1.52h-3.05v7.62h1.53v1.53H12.2v7.62ZM12.2 6.1h7.61v1.52H12.2Z" fill="#000000" stroke-width="1"></path>
    <path d="M10.665 18.29h1.53v1.52h-1.53Z" fill="#000000" stroke-width="1"></path>
    <path d="M9.145 19.81h1.52v1.52h-1.52Z" fill="#000000" stroke-width="1"></path>
    <path d="m9.145 24.38 0 -3.05 -1.53 0 0 3.05 -1.52 0 0 1.52 19.81 0 0 -1.52 -1.52 0 0 -3.05 -1.53 0 0 3.05 -13.71 0z" fill="#000000" stroke-width="1"></path>
    <path d="M4.575 25.9h1.52v3.05h-1.52Z" fill="#000000" stroke-width="1"></path>
  </g>
</svg>