<svg xmlns="http://www.w3.org/2000/svg" fill="none" viewBox="0 0 14 14" id="App-Store--Streamline-Core">
  <desc>
    App Store Streamline Icon: https://streamlinehq.com
  </desc>
  <g id="app-store">
    <path id="Vector" fill="#d7e0ff" d="M5.0726 3.60386c-0.27067 -0.46672 -0.11173 -1.06449 0.35498 -1.33515 0.46672 -0.27067 1.06448 -0.11174 1.33515 0.35498l5.35237 9.22891c0.2707 0.4667 0.1117 1.0644 -0.355 1.3351 -0.4667 0.2707 -1.0645 0.1117 -1.3351 -0.355L5.0726 3.60386Z" stroke-width="1"></path>
    <path id="Vector_2" fill="#d7e0ff" d="M8.94821 3.60386c0.27067 -0.46672 0.11174 -1.06449 -0.35498 -1.33515 -0.46672 -0.27067 -1.06448 -0.11174 -1.33515 0.35498L1.9057 11.8526c-0.27066 0.4667 -0.11173 1.0644 0.35498 1.3351 0.46672 0.2707 1.06449 0.1117 1.33515 -0.355l5.35238 -9.22884Z" stroke-width="1"></path>
    <path id="Vector_3" fill="#d7e0ff" d="M1.60189 11.3898c-0.53952 0 -0.97689 -0.4374 -0.97689 -0.9769s0.43737 -0.97686 0.97689 -0.97686L12.2701 9.437c0.5395 0 0.9769 0.43737 0.9769 0.9769 0 0.5395 -0.4374 0.9769 -0.9769 0.9769l-10.66821 -0.001Z" stroke-width="1"></path>
    <path id="Union" stroke="#4147d5" stroke-linecap="round" stroke-linejoin="round" d="M1.80542 12.5835c0.06284 0.2449 0.22015 0.4655 0.45618 0.6024 0.46672 0.2706 1.06448 0.1117 1.33515 -0.355l0.20906 -0.3605" stroke-width="1"></path>
    <path id="Union_2" stroke="#4147d5" stroke-linecap="round" stroke-linejoin="round" d="m6.91827 9.43603 -1.35234 0 1.44448 -2.49077 1.93781 -3.3414c0.27066 -0.46672 0.11173 -1.06449 -0.35498 -1.33515 -0.46672 -0.27067 -1.06449 -0.11174 -1.33515 0.35498l-0.24768 0.42707 -0.24767 -0.42707c-0.27067 -0.46672 -0.86843 -0.62565 -1.33515 -0.35498 -0.46672 0.27066 -0.62565 0.86843 -0.35498 1.33515l0.80852 1.39415 -2.57377 4.43802H1.60189c-0.53952 0 -0.97689 0.43737 -0.97689 0.97687 0 0.5395 0.43737 0.9769 0.97689 0.9769H7.75" stroke-width="1"></path>
    <path id="Union_3" stroke="#4147d5" stroke-linecap="round" stroke-linejoin="round" d="m8.93903 6.32397 1.77527 3.113h1.5558c0.5395 0 0.9769 0.43737 0.9769 0.97693 0 0.5395 -0.4374 0.9769 -0.9769 0.9769h-0.4228l0.2678 0.4617c0.2707 0.4668 0.1118 1.0645 -0.355 1.3352 -0.4667 0.2707 -1.0644 0.1117 -1.3351 -0.355L7.93903 8.57397" stroke-width="1"></path>
  </g>
</svg>