<svg xmlns="http://www.w3.org/2000/svg" fill="none" viewBox="0 0 14 14" id="Chrome--Streamline-Core">
  <desc>
    Chrome Streamline Icon: https://streamlinehq.com
  </desc>
  <g id="chrome">
    <path id="Subtract" fill="#d7e0ff" fill-rule="evenodd" d="M7.04666 13.2339c3.41714 0 6.18724 -2.7701 6.18724 -6.18724 0 -3.41714 -2.7701 -6.187285 -6.18724 -6.187285C3.62952 0.859375 0.859375 3.62952 0.859375 7.04666c0 3.41714 2.770145 6.18724 6.187285 6.18724Zm-0.00059 -3.75711c1.34245 0 2.43072 -1.08827 2.43072 -2.43072 0 -1.34244 -1.08827 -2.43071 -2.43072 -2.43071 -1.34244 0 -2.43071 1.08827 -2.43071 2.43071 0 1.34245 1.08827 2.43072 2.43071 2.43072Z" clip-rule="evenodd" stroke-width="1"></path>
    <path id="Ellipse 32" stroke="#4147d5" stroke-linecap="round" stroke-linejoin="round" d="M0.86 7.047a6.187 6.187 0 1 0 12.374 0 6.187 6.187 0 1 0 -12.374 0" stroke-width="1"></path>
    <path id="Ellipse 28" stroke="#4147d5" stroke-linecap="round" stroke-linejoin="round" d="M7.04688 4.61536h5.69152" stroke-width="1"></path>
    <path id="Ellipse 31" fill="#ffffff" d="M4.615 7.046a2.431 2.431 0 1 0 4.862 0 2.431 2.431 0 1 0 -4.862 0" stroke-width="1"></path>
    <path id="Ellipse 33" stroke="#4147d5" stroke-linecap="round" stroke-linejoin="round" d="M4.615 7.046a2.431 2.431 0 1 0 4.862 0 2.431 2.431 0 1 0 -4.862 0" stroke-width="1"></path>
    <path id="Ellipse 30" stroke="#4147d5" stroke-linecap="round" stroke-linejoin="round" d="M4.933 8.26423 2.08722 3.33521" stroke-width="1"></path>
    <path id="Ellipse 29" stroke="#4147d5" stroke-linecap="round" stroke-linejoin="round" d="M9.1479 8.25861 6.30212 13.1876" stroke-width="1"></path>
  </g>
</svg>