<svg xmlns="http://www.w3.org/2000/svg" fill="none" viewBox="0 0 14 14" id="Cyborg-2--Streamline-Core">
  <desc>
    Cyborg 2 Streamline Icon: https://streamlinehq.com
  </desc>
  <g id="cyborg-2--artificial-robotics-intelligence-machine-technology-android">
    <path id="Vector 2396" fill="#d7e0ff" d="M1.5 11.313v-4a2 2 0 0 1 2 -2h7a2 2 0 0 1 2 2v4a2 2 0 0 1 -2 2h-7a2 2 0 0 1 -2 -2Z" stroke-width="1"></path>
    <path id="Ellipse 24" fill="#ffffff" d="M8.167 1.854a1.167 1.167 0 1 1 -2.334 0 1.167 1.167 0 0 1 2.334 0Z" stroke-width="1"></path>
    <path id="Ellipse 23" stroke="#4147d5" stroke-linecap="round" stroke-linejoin="round" d="M8.167 1.854a1.167 1.167 0 1 1 -2.334 0 1.167 1.167 0 0 1 2.334 0Z" stroke-width="1"></path>
    <path id="Vector 857" stroke="#4147d5" stroke-linecap="round" stroke-linejoin="round" d="M7 3.02v2.25" stroke-width="1"></path>
    <path id="Rectangle 175" stroke="#4147d5" stroke-linecap="round" stroke-linejoin="round" d="M8.75 10.75s-0.55 0.583 -1.75 0.583 -1.75 -0.583 -1.75 -0.583" stroke-width="1"></path>
    <g id="Group 625">
      <path id="Vector" stroke="#4147d5" stroke-linecap="round" stroke-linejoin="round" d="M5.042 8.542a0.25 0.25 0 0 1 0 -0.5" stroke-width="1"></path>
      <path id="Vector_2" stroke="#4147d5" stroke-linecap="round" stroke-linejoin="round" d="M5.042 8.542a0.25 0.25 0 0 0 0 -0.5" stroke-width="1"></path>
    </g>
    <g id="Group 626">
      <path id="Vector_3" stroke="#4147d5" stroke-linecap="round" stroke-linejoin="round" d="M8.958 8.542a0.25 0.25 0 0 1 0 -0.5" stroke-width="1"></path>
      <path id="Vector_4" stroke="#4147d5" stroke-linecap="round" stroke-linejoin="round" d="M8.958 8.542a0.25 0.25 0 0 0 0 -0.5" stroke-width="1"></path>
    </g>
    <path id="Vector 2395" stroke="#4147d5" stroke-linecap="round" stroke-linejoin="round" d="M1.5 11.313v-4a2 2 0 0 1 2 -2h7a2 2 0 0 1 2 2v4a2 2 0 0 1 -2 2h-7a2 2 0 0 1 -2 -2Z" stroke-width="1"></path>
  </g>
</svg>