<svg xmlns="http://www.w3.org/2000/svg" fill="none" viewBox="0 0 14 14" id="Desktop-Chat--Streamline-Core">
  <desc>
    Desktop Chat Streamline Icon: https://streamlinehq.com
  </desc>
  <g id="desktop-chat--bubble-chat-customer-service-conversation-display-device">
    <path id="Subtract" fill="#d7e0ff" fill-rule="evenodd" d="M8.5 5.5h-3V2H1a0.5 0.5 0 0 0 -0.5 0.5v8a0.5 0.5 0 0 0 0.5 0.5h12a0.5 0.5 0 0 0 0.5 -0.5v-5h-2l-3 2v-2Z" clip-rule="evenodd" stroke-width="1"></path>
    <path id="Vector" fill="#ffffff" d="M5.5 5.5h3v2l3 -2h2v-5h-8v5Z" stroke-width="1"></path>
    <path id="Vector_2" fill="#ffffff" d="M9 13.5 8 11H6l-1 2.5h4Z" stroke-width="1"></path>
    <path id="Vector_3" stroke="#4147d5" stroke-linecap="round" stroke-linejoin="round" d="M13.5 8v2.5a0.5 0.5 0 0 1 -0.5 0.5H1a0.5 0.5 0 0 1 -0.5 -0.5v-8A0.5 0.5 0 0 1 1 2h2" stroke-width="1"></path>
    <path id="Vector_4" stroke="#4147d5" stroke-linecap="round" stroke-linejoin="round" d="m6 11 -1 2.5" stroke-width="1"></path>
    <path id="Vector_5" stroke="#4147d5" stroke-linecap="round" stroke-linejoin="round" d="m8 11 1 2.5" stroke-width="1"></path>
    <path id="Vector_6" stroke="#4147d5" stroke-linecap="round" stroke-linejoin="round" d="M4 13.5h6" stroke-width="1"></path>
    <path id="Vector_7" stroke="#4147d5" stroke-linecap="round" stroke-linejoin="round" d="M5.5 5.5h3v2l3 -2h2v-5h-8v5Z" stroke-width="1"></path>
  </g>
</svg>