<svg xmlns="http://www.w3.org/2000/svg" fill="none" viewBox="0 0 14 14"><g id="desktop-game--controller-display-device-computer-games-leisure"><path id="Vector" fill="#37d7ff" d="M13 2H1a.5.5 0 0 0-.5.5v8a.5.5 0 0 0 .5.5h12a.5.5 0 0 0 .5-.5v-8A.5.5 0 0 0 13 2Z"></path><path id="Vector_2" fill="#ffffff" d="M9 13.5 8 11H6l-1 2.5h4Z"></path><path id="Vector_3" stroke="#3e3e3e" stroke-linecap="round" stroke-linejoin="round" d="M1 2h12c.3 0 .5.2.5.5v8c0 .3-.2.5-.5.5H1c-.3 0-.5-.2-.5-.5v-8c0-.3.2-.5.5-.5Z"></path><path id="Vector_4" stroke="#3e3e3e" stroke-linecap="round" stroke-linejoin="round" d="m6 11-1 2.5"></path><path id="Vector_5" stroke="#3e3e3e" stroke-linecap="round" stroke-linejoin="round" d="m8 11 1 2.5"></path><path id="Vector_6" stroke="#3e3e3e" stroke-linecap="round" stroke-linejoin="round" d="M4 13.5h6"></path><path id="Vector_7" stroke="#3e3e3e" stroke-linecap="round" stroke-linejoin="round" d="M3 6.5h3"></path><path id="Vector_8" stroke="#3e3e3e" stroke-linecap="round" stroke-linejoin="round" d="M4.5 5v3"></path><g id="Group 623"><path id="Vector_9" stroke="#3e3e3e" stroke-linecap="round" stroke-linejoin="round" d="M10.8 6.05a.25.25 0 1 1 0-.5"></path><path id="Vector_10" stroke="#3e3e3e" stroke-linecap="round" stroke-linejoin="round" d="M10.8 6.05a.25.25 0 1 0 0-.5"></path></g><g id="Group 625"><path id="Vector_11" stroke="#3e3e3e" stroke-linecap="round" stroke-linejoin="round" d="M9 7.45a.25.25 0 0 1 0-.5"></path><path id="Vector_12" stroke="#3e3e3e" stroke-linecap="round" stroke-linejoin="round" d="M9 7.45a.25.25 0 0 0 0-.5"></path></g></g></svg>