<svg xmlns="http://www.w3.org/2000/svg" fill="none" viewBox="0 0 14 14" id="Desktop-Code--Streamline-Core">
  <desc>
    Desktop Code Streamline Icon: https://streamlinehq.com
  </desc>
  <g id="desktop-code--desktop-device-display-computer-code-terminal-html-css-programming-system">
    <path id="Vector" fill="#d7e0ff" d="M13.5 10.5v-8A0.5 0.5 0 0 0 13 2H1c-0.265 0 -0.5 0.235 -0.5 0.5v8c0 0.265 0.235 0.5 0.5 0.5h12c0.265 0 0.5 -0.235 0.5 -0.5Z" stroke-width="1"></path>
    <path id="Vector_2" fill="#ffffff" d="M5 13.5 6 11h2l1 2.5H5Z" stroke-width="1"></path>
    <path id="Vector_3" stroke="#4147d5" stroke-linecap="round" stroke-linejoin="round" d="M13.5 10.5v-8A0.5 0.5 0 0 0 13 2H1c-0.265 0 -0.5 0.235 -0.5 0.5v8c0 0.265 0.235 0.5 0.5 0.5h12c0.265 0 0.5 -0.235 0.5 -0.5Z" stroke-width="1"></path>
    <path id="Vector_4" stroke="#4147d5" stroke-linecap="round" stroke-linejoin="round" d="m6 11 -1 2.5" stroke-width="1"></path>
    <path id="Vector_5" stroke="#4147d5" stroke-linecap="round" stroke-linejoin="round" d="m8 11 1 2.5" stroke-width="1"></path>
    <path id="Vector_6" stroke="#4147d5" stroke-linecap="round" stroke-linejoin="round" d="M4 13.5h6" stroke-width="1"></path>
    <path id="Vector_7" stroke="#4147d5" stroke-linecap="round" stroke-linejoin="round" d="M5 5 3.5 6.5 5 8" stroke-width="1"></path>
    <path id="Vector_8" stroke="#4147d5" stroke-linecap="round" stroke-linejoin="round" d="m9 5 1.5 1.5L9 8" stroke-width="1"></path>
  </g>
</svg>