<svg xmlns="http://www.w3.org/2000/svg" fill="none" viewBox="0 0 14 14" id="Hard-Drive-1--Streamline-Core">
  <desc>
    Hard Drive 1 Streamline Icon: https://streamlinehq.com
  </desc>
  <g id="hard-drive-1--disk-device-electronics-disc-drive-raid-storage">
    <path id="Vector" fill="#d7e0ff" d="M0.700471 7.58967 2.315 1.27999c0.04973 -0.2205 0.1727 -0.417659 0.34885 -0.55931 0.17616 -0.141652 0.39511 -0.219442 0.62115 -0.220686h7.4c0.2312 -0.00565 0.4571 0.068984 0.6395 0.211199 0.1823 0.142214 0.3097 0.343217 0.3605 0.568797l1.6145 6.30968" stroke-width="1"></path>
    <path id="Vector_2" fill="#ffffff" d="M12.5 7.5h-11c-0.552285 0 -1 0.44772 -1 1v4c0 0.5523 0.447715 1 1 1h11c0.5523 0 1 -0.4477 1 -1v-4c0 -0.55228 -0.4477 -1 -1 -1Z" stroke-width="1"></path>
    <path id="Vector_3" stroke="#4147d5" stroke-linecap="round" stroke-linejoin="round" d="M12.5 7.5h-11c-0.552285 0 -1 0.44772 -1 1v4c0 0.5523 0.447715 1 1 1h11c0.5523 0 1 -0.4477 1 -1v-4c0 -0.55228 -0.4477 -1 -1 -1Z" stroke-width="1"></path>
    <path id="Vector_4" stroke="#4147d5" stroke-linecap="round" stroke-linejoin="round" d="m0.575012 8.07999 1.739998 -6.8c0.04973 -0.2205 0.1727 -0.417659 0.34885 -0.55931 0.17616 -0.141652 0.39511 -0.219442 0.62115 -0.220686H10.685c0.2312 -0.00565 0.4572 0.068984 0.6395 0.211199 0.1823 0.142214 0.3097 0.343217 0.3605 0.568797l1.74 6.8" stroke-width="1"></path>
    <path id="Vector_5" stroke="#4147d5" stroke-linecap="round" stroke-linejoin="round" d="M3.5 10.5h3" stroke-width="1"></path>
    <path id="Vector_6" stroke="#4147d5" stroke-linecap="round" stroke-linejoin="round" d="M10.5 11c0.2761 0 0.5 -0.2239 0.5 -0.5s-0.2239 -0.5 -0.5 -0.5 -0.5 0.2239 -0.5 0.5 0.2239 0.5 0.5 0.5Z" stroke-width="1"></path>
  </g>
</svg>