<svg xmlns="http://www.w3.org/2000/svg" fill="none" viewBox="0 0 14 14"><g id="shift--key-shift-up-arrow-keyboard"><path id="Vector 2461" fill="#37d7ff" d="M6.646.854 1.354 6.146A.5.5 0 0 0 1.707 7H3.5v6a.5.5 0 0 0 .5.5h6a.5.5 0 0 0 .5-.5V7h1.793a.5.5 0 0 0 .353-.854L7.354.854a.5.5 0 0 0-.708 0Z"></path><path id="Vector 2460" stroke="#3e3e3e" stroke-linecap="round" stroke-linejoin="round" d="M6.646.854 1.354 6.146A.5.5 0 0 0 1.707 7H3.5v6a.5.5 0 0 0 .5.5h6a.5.5 0 0 0 .5-.5V7h1.793a.5.5 0 0 0 .353-.854L7.354.854a.5.5 0 0 0-.708 0Z"></path></g></svg>