<svg xmlns="http://www.w3.org/2000/svg" fill="none" viewBox="0 0 14 14"><g id="ai-gaming-spark--remote-control-controller-technology-artificial-intelligence-ai"><path id="Vector 693" stroke="#3e3e3e" stroke-linecap="round" stroke-linejoin="round" d="M4.312 7.003v2.311"></path><path id="Vector 694" stroke="#3e3e3e" stroke-linecap="round" stroke-linejoin="round" d="M5.467 8.159h-2.31"></path><path id="Vector 2430" stroke="#3e3e3e" stroke-linecap="round" stroke-linejoin="round" d="M5.066 4.527H4.15a3 3 0 0 0-2.981 2.669l-.412 3.71a2.283 2.283 0 0 0 4.31 1.273l.36-.72h2.971l.36.72a2.283 2.283 0 0 0 4.31-1.274l-.412-3.71"></path><g id="Group 630"><path id="Vector" stroke="#3e3e3e" stroke-linecap="round" stroke-linejoin="round" d="M8.644 8.736a.248.248 0 1 1 .496 0"></path><path id="Vector_2" stroke="#3e3e3e" stroke-linecap="round" stroke-linejoin="round" d="M8.645 8.736a.248.248 0 1 0 .495 0"></path></g><path id="Vector 2136" stroke="#3e3e3e" stroke-linecap="round" stroke-linejoin="round" d="M7.175 3.994c-.351-.062-.351-.565 0-.626A3.176 3.176 0 0 0 9.733.918L9.754.82c.076-.347.57-.35.649-.003l.026.113a3.192 3.192 0 0 0 2.565 2.435c.353.061.353.568 0 .63A3.192 3.192 0 0 0 10.43 6.43l-.026.112c-.079.346-.573.344-.649-.003l-.02-.096a3.176 3.176 0 0 0-2.56-2.45Z"></path></g></svg>