<svg xmlns="http://www.w3.org/2000/svg" fill="none" viewBox="0 0 14 14"><g id="ai-generate-variation-spark--module-application-artificial-intelligence-ai"><g id="Group 631"><path id="Vector" stroke="#3e3e3e" stroke-linecap="round" stroke-linejoin="round" d="M5.28 8.231H1.132a.488.488 0 0 0-.488.488v4.15c0 .27.219.488.488.488h4.15c.27 0 .488-.219.488-.488v-4.15a.488.488 0 0 0-.488-.488Z"></path><path id="Vector_2" stroke="#3e3e3e" stroke-linecap="round" stroke-linejoin="round" d="M12.869 8.231h-4.15a.488.488 0 0 0-.488.488v4.15c0 .27.218.488.488.488h4.15c.27 0 .488-.219.488-.488v-4.15a.488.488 0 0 0-.488-.488Z"></path><path id="Vector_3" stroke="#3e3e3e" stroke-linecap="round" stroke-linejoin="round" d="M5.28.643H1.132a.488.488 0 0 0-.488.488v4.15c0 .27.219.488.488.488h4.15c.27 0 .488-.219.488-.488V1.13a.488.488 0 0 0-.488-.488Z"></path><path id="Vector 2136" stroke="#3e3e3e" stroke-linecap="round" stroke-linejoin="round" d="M8.146 3.584c-.301-.052-.301-.483 0-.536A2.72 2.72 0 0 0 10.337.95l.018-.083c.065-.297.488-.3.556-.003l.022.097a2.735 2.735 0 0 0 2.197 2.086c.302.052.302.486 0 .539a2.735 2.735 0 0 0-2.197 2.086l-.022.096c-.068.297-.49.295-.556-.002l-.018-.083a2.72 2.72 0 0 0-2.191-2.099Z"></path></g></g></svg>