<svg xmlns="http://www.w3.org/2000/svg" fill="none" viewBox="0 0 24 24" id="Button-Power-Circle-1--Streamline-Sharp">
  <desc>
    Button Power Circle 1 Streamline Icon: https://streamlinehq.com
  </desc>
  <g id="button-power-circle-1--power-button-on-off">
    <path id="Union" fill="#8fbffa" fill-rule="evenodd" d="M12 1.25C6.06294 1.25 1.25 6.06294 1.25 12c0 5.9371 4.81294 10.75 10.75 10.75 5.9371 0 10.75 -4.8129 10.75 -10.75 0 -5.93706 -4.8129 -10.75 -10.75 -10.75Z" clip-rule="evenodd" stroke-width="1"></path>
    <path id="Union_2" fill="#2859c5" fill-rule="evenodd" d="M11 5.05371v3.99317h2V5.05371h-2ZM7 11.9005c0 -1.6283 0.77735 -3.07481 1.98539 -3.98938l-1.2072 -1.59458C6.09228 7.59289 5 9.61932 5 11.9005c0 3.866 3.13401 7 7 7 3.866 0 7 -3.134 7 -7 0 -2.28118 -1.0923 -4.30761 -2.7782 -5.58396l-1.2072 1.59458C16.2227 8.82569 17 10.2722 17 11.9005c0 2.7615 -2.2386 5 -5 5 -2.76142 0 -5 -2.2385 -5 -5Z" clip-rule="evenodd" stroke-width="1"></path>
  </g>
</svg>