<svg xmlns="http://www.w3.org/2000/svg" fill="none" viewBox="0 0 24 24" id="Mailbox-Post--Streamline-Ultimate">
  <desc>
    Mailbox Post Streamline Icon: https://streamlinehq.com
  </desc>
  <path fill="#66e1ff" d="M17.7389 6.73691H6.26172V20.127H17.7389V6.73691Z" stroke-width="1"></path>
  <path fill="#ffffff" d="m9.13086 17.7359 1.43464 -2.8694 -1.43464 -2.8692 6.69504 2.8692 -6.69504 2.8694Z" stroke-width="1"></path>
  <path fill="#66e1ff" d="M6.26094 1.12268V20.1288H3.3916V4.82593c-0.00224 -1.74504 1.17895 -3.2696 2.86934 -3.70325Z" stroke-width="1"></path>
  <path fill="#66e1ff" d="M20.6076 4.82593V20.1288h-2.8693V1.12268c1.6904 0.43365 2.8716 1.95821 2.8693 3.70325Z" stroke-width="1"></path>
  <path fill="#66e1ff" d="M17.7389 1.12264v5.61617H6.26172V1.12264c0.31165 -0.08481 0.63344 -0.126003 0.95641 -0.12239h9.56427c0.3233 -0.003906 0.6446 0.03826 0.9565 0.12239Z" stroke-width="1"></path>
  <path fill="#c2f3ff" d="M6.26094 1.12366v3.43357c-1.68971 0.43346 -2.8707 1.95694 -2.86934 3.7014v-3.4327c-0.00185 -1.74475 1.17934 -3.26872 2.86934 -3.70227Z" stroke-width="1"></path>
  <path fill="#c2f3ff" d="M20.6076 4.82593v3.43358c0.0014 -1.74436 -1.1796 -3.26785 -2.8693 -3.7013V1.12366c1.69 0.43355 2.8712 1.95752 2.8693 3.70227Z" stroke-width="1"></path>
  <path fill="#c2f3ff" d="M17.7389 1.12368v3.43357c-0.3116 -0.0854 -0.6335 -0.12727 -0.9565 -0.12435H7.21813c-0.32297 -0.00292 -0.64486 0.03895 -0.95641 0.12435V1.12368c0.31155 -0.08511 0.63344 -0.126692 0.95641 -0.12337h9.56427c0.323 -0.003127 0.6448 0.03845 0.9565 0.12337Z" stroke-width="1"></path>
  <path stroke="#191919" stroke-linecap="round" stroke-linejoin="round" d="m9.13086 17.7397 1.43464 -2.8693 -1.43464 -2.8693 6.69504 2.8693 -6.69504 2.8693Z" stroke-width="1"></path>
  <path stroke="#191919" stroke-linecap="round" stroke-linejoin="round" d="M7.21734 1.00015h9.56436c2.1129 0 3.8257 1.71284 3.8257 3.82565v15.3029H3.3916V4.8258c0 -2.11281 1.71284 -3.82565 3.82574 -3.82565Z" stroke-width="1"></path>
  <path stroke="#191919" stroke-linecap="round" stroke-linejoin="round" d="M3.3916 19.1743V23" stroke-width="1"></path>
  <path stroke="#191919" stroke-linecap="round" stroke-linejoin="round" d="M20.6084 19.1743V23" stroke-width="1"></path>
  <path stroke="#191919" stroke-linecap="round" stroke-linejoin="round" d="M6.26172 1.12268v5.61803H17.7389V1.12268" stroke-width="1"></path>
  <path stroke="#191919" stroke-linecap="round" stroke-linejoin="round" d="M8.17432 9.61002h7.65148" stroke-width="1"></path>
  <path stroke="#191919" stroke-linecap="round" stroke-linejoin="round" d="M6.26172 6.74069V20.1307" stroke-width="1"></path>
  <path stroke="#191919" stroke-linecap="round" stroke-linejoin="round" d="M17.7383 6.74069V20.1307" stroke-width="1"></path>
</svg>