<svg xmlns="http://www.w3.org/2000/svg" fill="none" viewBox="0 0 24 24" id="Read-Email-At-1--Streamline-Ultimate">
  <desc>
    Read Email At 1 Streamline Icon: https://streamlinehq.com
  </desc>
  <path fill="#66e1ff" d="M11.9996 21.0869c2.41 0 4.7213 -0.9574 6.4254 -2.6615C20.1291 16.7213 21.0865 14.41 21.0865 12c0 -2.41006 -0.9574 -4.72136 -2.6615 -6.4255 -1.7041 -1.70413 -4.0154 -2.66151 -6.4254 -2.66151 -2.41006 0 -4.72136 0.95738 -6.42549 2.66151C3.86997 7.27864 2.9126 9.58994 2.9126 12c0 2.41 0.95737 4.7213 2.66151 6.4254 1.70413 1.7041 4.01543 2.6615 6.42549 2.6615Z" stroke-width="1"></path>
  <path stroke="#191919" stroke-linecap="round" stroke-linejoin="round" d="M12 23c6.0749 0 11 -4.9251 11 -11 0 -6.07487 -4.9251 -11 -11 -11C5.92513 1 1 5.92513 1 12c0 6.0749 4.92513 11 11 11Z" stroke-width="1"></path>
  <path stroke="#191919" stroke-linecap="round" stroke-linejoin="round" d="M11.9992 15.3478c0.8879 0 1.7394 -0.3527 2.3673 -0.9806 0.6278 -0.6278 0.9805 -1.4793 0.9805 -2.3672 0 -0.8879 -0.3527 -1.7395 -0.9805 -2.36731 -0.6279 -0.62784 -1.4794 -0.98056 -2.3673 -0.98056 -0.8879 0 -1.7394 0.35272 -2.36728 0.98056 -0.62784 0.62781 -0.98055 1.47941 -0.98055 2.36731 0 0.8879 0.35271 1.7394 0.98055 2.3672 0.62788 0.6279 1.47938 0.9806 2.36728 0.9806Z" stroke-width="1"></path>
  <path stroke="#191919" stroke-linecap="round" stroke-linejoin="round" d="M15.3473 17.7994c-0.8895 0.5132 -1.885 0.815 -2.9098 0.882 -1.0247 0.067 -2.0511 -0.1026 -2.99976 -0.4957 -0.94869 -0.3931 -1.79425 -0.9992 -2.47128 -1.7713 -0.67703 -0.7721 -1.1674 -1.6896 -1.43316 -2.6815 -0.26577 -0.992 -0.29982 -2.0317 -0.09952 -3.0389 0.2003 -1.00718 0.62958 -1.95479 1.25465 -2.76955 0.62506 -0.81476 1.42916 -1.47483 2.35009 -1.92915 0.92094 -0.45433 1.93408 -0.69074 2.96098 -0.69095 9.0869 0 8.6087 10.04345 4.7826 10.04345 -1.4348 0 -1.4348 -0.9565 -1.4348 -1.4348V9.13044" stroke-width="1"></path>
</svg>