<svg xmlns="http://www.w3.org/2000/svg" fill="none" viewBox="0 0 24 24" id="Medical-Cross--Streamline-Cyber">
  <desc>
    Medical Cross Streamline Icon: https://streamlinehq.com
  </desc>
  <path fill="#ffffff" d="m22.78 8.17798 -1.96 -3.43 -6.86 3.92v-7.938h-3.92v7.938l-6.86003 -3.92 -1.96 3.43L7.98197 12l-6.762 3.822 1.96 3.43 6.86003 -3.92v7.938h3.92v-7.938l6.86 3.92 1.96 -3.43L16.018 12l6.762 -3.82202Z" stroke-width="1"></path>
  <path fill="#bbd8ff" d="m2.19995 17.586 0.98 1.666 6.86005 -3.92v7.938h3.92v-7.938l6.86 3.92 1.96 -3.43L16.018 12l6.762 -3.82204 -0.9801 -1.666L2.19995 17.586Z" stroke-width="1"></path>
  <path stroke="#092f63" stroke-linecap="round" stroke-linejoin="round" stroke-miterlimit="10" d="m22.78 8.17798 -1.96 -3.43 -6.86 3.92v-7.938h-3.92v7.938l-6.86003 -3.92 -1.96 3.43L7.98197 12l-6.762 3.822 1.96 3.43 6.86003 -3.92v7.938h3.92v-7.938l6.86 3.92 1.96 -3.43L16.018 12l6.762 -3.82202Z" stroke-width="1"></path>
</svg>