<svg xmlns="http://www.w3.org/2000/svg" fill="none" viewBox="0 0 24 24" id="One-Handed-Holding-Tablet-Handheld--Streamline-Sharp-Remix">
  <desc>
    One Handed Holding Tablet Handheld Streamline Icon: https://streamlinehq.com
  </desc>
  <g id="Remix/Computer Devices/one-handed-holding-tablet-handheld">
    <path id="Union" fill="#000000" fill-rule="evenodd" d="M0.75 0.75h16v4.5h-3.2926l-0.0003 7.1925c-1.8325 -0.3333 -3.74508 0.3299 -4.97503 1.8088l-1.97725 2.3776L9.00101 19.75H0.75v-19Zm17.2069 16.2248 0.0003 -7.2248h0.9984l1.755 7.6926 -1.3339 4.7433 2.4066 0.6768 1.42 -5.0496 0.0862 -0.3062 -0.0708 -0.3102 -2.0474 -8.97472 -0.2218 -0.97198h-5.4922l-0.0001 1.24995 -0.0003 6.70635 -1.6829 -0.5958c-1.3155 -0.5511 -2.8397 -0.1799 -3.7542 0.9197l-0.28239 0.3395 -0.65187 0.7839 0.63675 0.7961 4.43151 5.541 1.9524 -1.5615 -3.6534 -4.568c0.1222 -0.0108 0.248 0.0082 0.3662 0.0599l0.0411 0.018 0.0424 0.0149 3.3872 1.1991 1.6671 0.5901 0.0001 -1.7684Z" clip-rule="evenodd" stroke-width="1"></path>
  </g>
</svg>