<svg xmlns="http://www.w3.org/2000/svg" viewBox="0 0 24 24" id="Archive-Books--Streamline-Ultimate">
  <desc>
    Archive Books Streamline Icon: https://streamlinehq.com
  </desc>
  <g id="Archive-Books--Streamline-Ultimate.svg">
    <path d="M5.5 0h-4A1.5 1.5 0 0 0 0 1.5v21A1.5 1.5 0 0 0 1.5 24h4A1.5 1.5 0 0 0 7 22.5v-21A1.5 1.5 0 0 0 5.5 0Zm-1 7.75a0.25 0.25 0 0 1 0.25 0.25v7a1.25 1.25 0 0 1 -2.5 0V8a0.25 0.25 0 0 1 0.25 -0.25Zm-2 -2a0.25 0.25 0 0 1 -0.25 -0.25V4a1.25 1.25 0 0 1 2.5 0v1.5a0.25 0.25 0 0 1 -0.25 0.25Zm1 12.75A1.5 1.5 0 1 1 2 20a1.5 1.5 0 0 1 1.5 -1.5Z" fill="#000000" stroke-width="1"></path>
    <path d="M14 0h-4a1.5 1.5 0 0 0 -1.5 1.5v21A1.5 1.5 0 0 0 10 24h4a1.5 1.5 0 0 0 1.5 -1.5v-21A1.5 1.5 0 0 0 14 0Zm-1 7.75a0.25 0.25 0 0 1 0.25 0.25v7a1.25 1.25 0 0 1 -2.5 0V8a0.25 0.25 0 0 1 0.25 -0.25Zm-2 -2a0.25 0.25 0 0 1 -0.25 -0.25V4a1.25 1.25 0 0 1 2.5 0v1.5a0.25 0.25 0 0 1 -0.25 0.25Zm1 12.75a1.5 1.5 0 1 1 -1.5 1.5 1.5 1.5 0 0 1 1.5 -1.5Z" fill="#000000" stroke-width="1"></path>
    <path d="M22.5 0h-4A1.5 1.5 0 0 0 17 1.5v21a1.5 1.5 0 0 0 1.5 1.5h4a1.5 1.5 0 0 0 1.5 -1.5v-21A1.5 1.5 0 0 0 22.5 0Zm-1 7.75a0.25 0.25 0 0 1 0.25 0.25v7a1.25 1.25 0 0 1 -2.5 0V8a0.25 0.25 0 0 1 0.25 -0.25Zm-2 -2a0.25 0.25 0 0 1 -0.25 -0.25V4a1.25 1.25 0 0 1 2.5 0v1.5a0.25 0.25 0 0 1 -0.25 0.25Zm1 12.75A1.5 1.5 0 1 1 19 20a1.5 1.5 0 0 1 1.5 -1.5Z" fill="#000000" stroke-width="1"></path>
  </g>
</svg>