<svg xmlns="http://www.w3.org/2000/svg" viewBox="0 0 24 24" id="Archive-Locker--Streamline-Ultimate">
  <desc>
    Archive Locker Streamline Icon: https://streamlinehq.com
  </desc>
  <g id="Archive-Locker--Streamline-Ultimate.svg">
    <path d="M21.5 8a0.5 0.5 0 0 0 0.5 -0.5V2a2 2 0 0 0 -2 -2H4a2 2 0 0 0 -2 2v5.5a0.5 0.5 0 0 0 0.5 0.5Zm-7.24 -3.18 -0.17 0.5a1 1 0 0 1 -0.95 0.68h-2.28a1 1 0 0 1 -0.95 -0.68l-0.16 -0.5a1 1 0 0 1 0.13 -0.9 1 1 0 0 1 0.81 -0.42h2.62a1 1 0 0 1 0.81 0.42 1 1 0 0 1 0.14 0.9Z" fill="#000000" stroke-width="1"></path>
    <path d="M21.5 15.5a0.5 0.5 0 0 0 0.5 -0.5V9.5a0.5 0.5 0 0 0 -0.5 -0.5h-19a0.5 0.5 0 0 0 -0.5 0.5V15a0.5 0.5 0 0 0 0.5 0.5ZM9.88 11.42a1 1 0 0 1 0.81 -0.42h2.62a1 1 0 0 1 0.81 0.42 1 1 0 0 1 0.14 0.9l-0.17 0.5a1 1 0 0 1 -0.95 0.68h-2.28a1 1 0 0 1 -0.95 -0.68l-0.16 -0.5a1 1 0 0 1 0.13 -0.9Z" fill="#000000" stroke-width="1"></path>
    <path d="M2.5 16.5a0.5 0.5 0 0 0 -0.5 0.5v5a2 2 0 0 0 2 2h16a2 2 0 0 0 2 -2v-5a0.5 0.5 0 0 0 -0.5 -0.5Zm7.38 2.42a1 1 0 0 1 0.81 -0.42h2.62a1 1 0 0 1 0.81 0.42 1 1 0 0 1 0.14 0.9l-0.17 0.5a1 1 0 0 1 -0.95 0.68h-2.28a1 1 0 0 1 -0.95 -0.68l-0.16 -0.5a1 1 0 0 1 0.13 -0.9Z" fill="#000000" stroke-width="1"></path>
  </g>
</svg>