<svg xmlns="http://www.w3.org/2000/svg" viewBox="0 0 24 24" id="Book-Close-Bookmark-1--Streamline-Ultimate">
  <desc>
    Book Close Bookmark 1 Streamline Icon: https://streamlinehq.com
  </desc>
  <path d="M20.15 4a0.5 0.5 0 0 1 -0.4 -0.49V2a2 2 0 0 0 -2 -2H5.25a3 3 0 0 0 -3 3v18a3 3 0 0 0 3 3h14.5a2 2 0 0 0 2 -2V6a2 2 0 0 0 -1.6 -2Zm-2.9 9.25a0.26 0.26 0 0 1 -0.43 0.18l-1.89 -1.9a0.27 0.27 0 0 0 -0.36 0l-1.89 1.9a0.26 0.26 0 0 1 -0.28 0 0.25 0.25 0 0 1 -0.15 -0.23V5.75a0.25 0.25 0 0 1 0.25 -0.25H17a0.25 0.25 0 0 1 0.25 0.25Zm0.5 -9.54a0.25 0.25 0 0 1 -0.25 0.29H5.25a1 1 0 0 1 0 -2H17.5a0.25 0.25 0 0 1 0.25 0.25Z" fill="#000000" stroke-width="1"></path>
</svg>