<svg xmlns="http://www.w3.org/2000/svg" viewBox="0 0 24 24" id="Content-Ink-Pen-Write--Streamline-Ultimate">
  <desc>
    Content Ink Pen Write Streamline Icon: https://streamlinehq.com
  </desc>
  <g id="Content-Ink-Pen-Write--Streamline-Ultimate.svg">
    <path d="M18.68 5.32a4.49 4.49 0 0 0 -6.36 0c-1.23 1.22 -2.87 8 -3.06 8.81a0.49 0.49 0 0 0 0.14 0.47 0.5 0.5 0 0 0 0.47 0.14c0.77 -0.19 7.58 -1.83 8.81 -3.06a4.49 4.49 0 0 0 0 -6.36ZM15.5 10A1.5 1.5 0 1 1 17 8.5a1.5 1.5 0 0 1 -1.5 1.5Z" fill="#000000" stroke-width="1"></path>
    <path d="m23.85 4.15 -4 -4a0.49 0.49 0 0 0 -0.41 -0.15 0.52 0.52 0 0 0 -0.37 0.24l-1.5 2.5a0.49 0.49 0 0 0 0.08 0.61l3 3a0.47 0.47 0 0 0 0.35 0.15 0.48 0.48 0 0 0 0.26 -0.07l2.5 -1.5a0.52 0.52 0 0 0 0.24 -0.37 0.49 0.49 0 0 0 -0.15 -0.41Z" fill="#000000" stroke-width="1"></path>
    <path d="M17 18H5a0.91 0.91 0 0 1 -1 -1 0.91 0.91 0 0 1 1 -1h2a1 1 0 0 0 0 -2H5a2.91 2.91 0 0 0 -3 3 2.91 2.91 0 0 0 3 3h12a1 1 0 1 1 0 2H1a1 1 0 0 0 0 2h16a3 3 0 0 0 0 -6Z" fill="#000000" stroke-width="1"></path>
  </g>
</svg>