<svg xmlns="http://www.w3.org/2000/svg" viewBox="0 0 24 24" id="Notes-Checklist-Flip--Streamline-Ultimate">
  <desc>
    Notes Checklist Flip Streamline Icon: https://streamlinehq.com
  </desc>
  <g id="Notes-Checklist-Flip--Streamline-Ultimate.svg">
    <path d="M21 2.75h-2a0.25 0.25 0 0 1 -0.25 -0.25V1.25a1 1 0 0 0 -2 0v4.16a1 1 0 0 0 2 0V5a0.25 0.25 0 0 1 0.25 -0.25h1.5a0.5 0.5 0 0 1 0.5 0.5v10.5a0.5 0.5 0 0 1 -0.5 0.5h-3a2 2 0 0 0 -2 2v3a0.5 0.5 0 0 1 -0.5 0.5H3.5a0.5 0.5 0 0 1 -0.5 -0.5v-16a0.5 0.5 0 0 1 0.5 -0.5h1a0.25 0.25 0 0 0 0.25 -0.25V3a0.25 0.25 0 0 0 -0.25 -0.25H3a2 2 0 0 0 -2 2v17a2 2 0 0 0 2 2h13.5a1 1 0 0 0 0.74 -0.32l5.5 -6a1 1 0 0 0 0.26 -0.68v-12a2 2 0 0 0 -2 -2Z" fill="#000000" stroke-width="1"></path>
    <path d="M12.25 6.41a1 1 0 0 0 1 -1V5a0.25 0.25 0 0 1 0.25 -0.25h2a0.25 0.25 0 0 0 0.25 -0.25V3a0.25 0.25 0 0 0 -0.25 -0.25h-2a0.25 0.25 0 0 1 -0.25 -0.25V1.25a1 1 0 0 0 -2 0v4.16a1 1 0 0 0 1 1Z" fill="#000000" stroke-width="1"></path>
    <path d="M6.75 6.41a1 1 0 0 0 1 -1V5A0.25 0.25 0 0 1 8 4.75h2a0.25 0.25 0 0 0 0.25 -0.25V3a0.25 0.25 0 0 0 -0.25 -0.25H8a0.25 0.25 0 0 1 -0.25 -0.25V1.25a1 1 0 0 0 -2 0v4.16a1 1 0 0 0 1 1Z" fill="#000000" stroke-width="1"></path>
    <path d="M6.79 12.46a1 1 0 0 0 1.42 0l3 -3A1 1 0 0 0 9.79 8L7.5 10.34l-0.79 -0.8A1 1 0 0 0 5.29 11Z" fill="#000000" stroke-width="1"></path>
    <path d="M6.79 18a1 1 0 0 0 1.42 0l3 -3a1 1 0 0 0 -1.42 -1.42L7.5 15.84 6.71 15a1 1 0 0 0 -1.42 1.42Z" fill="#000000" stroke-width="1"></path>
    <path d="M13 10.75a1 1 0 0 0 1 1h4a1 1 0 0 0 0 -2h-4a1 1 0 0 0 -1 1Z" fill="#000000" stroke-width="1"></path>
  </g>
</svg>