<svg xmlns="http://www.w3.org/2000/svg" viewBox="0 0 32 32" id="Shopping-Shipping-Discount-Coupon--Streamline-Pixel">
  <desc>
    Shopping Shipping Discount Coupon Streamline Icon: https://streamlinehq.com
  </desc>
  <title>shopping-shipping-discount-coupon</title>
  <g>
    <path d="m28.185 12.19 0 1.53 3.05 0 0 -7.62 -1.52 0 0 6.09 -1.53 0z" fill="#000000" stroke-width="1"></path>
    <path d="m29.715 19.81 0 6.1 1.52 0 0 -7.62 -3.05 0 0 1.52 1.53 0z" fill="#000000" stroke-width="1"></path>
    <path d="M2.285 25.91h27.43v1.52H2.285Z" fill="#000000" stroke-width="1"></path>
    <path d="M26.665 13.72h1.52v4.57h-1.52Z" fill="#000000" stroke-width="1"></path>
    <path d="m22.095 16.76 -3.05 0 0 1.53 -1.52 0 0 3.05 1.52 0 0 1.52 3.05 0 0 -1.52 1.52 0 0 -3.05 -1.52 0 0 -1.53z" fill="#000000" stroke-width="1"></path>
    <path d="m20.575 10.67 -1.53 0 0 1.52 -1.52 0 0 1.53 -1.53 0 0 1.52 -1.52 0 0 1.52 -1.52 0 0 1.53 -1.53 0 0 1.52 -1.52 0 0 1.53 -1.52 0 0 1.52 3.04 0 0 -1.52 1.53 0 0 -1.53 1.52 0 0 -1.52 1.52 0 0 -1.53 1.53 0 0 -1.52 1.52 0 0 -1.52 1.53 0 0 -1.53 1.52 0 0 -1.52 1.52 0 0 -1.52 -3.04 0 0 1.52z" fill="#000000" stroke-width="1"></path>
    <path d="m9.905 15.24 3.05 0 0 -1.52 1.52 0 0 -3.05 -1.52 0 0 -1.52 -3.05 0 0 1.52 -1.52 0 0 3.05 1.52 0 0 1.52z" fill="#000000" stroke-width="1"></path>
    <path d="M3.805 13.72h1.53v4.57h-1.53Z" fill="#000000" stroke-width="1"></path>
    <path d="M2.285 4.57h27.43V6.1H2.285Z" fill="#000000" stroke-width="1"></path>
    <path d="m2.285 12.19 0 -6.09 -1.52 0 0 7.62 3.04 0 0 -1.53 -1.52 0z" fill="#000000" stroke-width="1"></path>
    <path d="m2.285 19.81 1.52 0 0 -1.52 -3.04 0 0 7.62 1.52 0 0 -6.1z" fill="#000000" stroke-width="1"></path>
  </g>
</svg>