<svg xmlns="http://www.w3.org/2000/svg" fill="none" viewBox="0 0 48 48" id="Bowl-Chop-Stick--Streamline-Plump">
  <desc>
    Bowl Chop Stick Streamline Icon: https://streamlinehq.com
  </desc>
  <g id="bowl-chop-stick--cook-soup-bowl-chopsticks-cooking-nutrition-asian-food-kitchenware">
    <path id="Union" fill="#2859c5" d="M32.738 2.475c-0.22 -0.22 -0.443 -0.41 -0.662 -0.573 -0.774 -0.575 -1.656 -0.644 -2.47 -0.417 -0.8 0.224 -1.547 0.735 -2.132 1.35 -4.538 4.77 -8.972 10.274 -10.866 12.677 -0.35 0.443 -0.61 0.995 -0.677 1.562 -0.068 0.577 0.068 1.189 0.544 1.664 0.476 0.477 1.088 0.612 1.665 0.545 0.566 -0.067 1.119 -0.328 1.561 -0.677 2.404 -1.895 7.907 -6.328 12.677 -10.866 0.615 -0.585 1.126 -1.331 1.35 -2.132 0.228 -0.815 0.158 -1.697 -0.416 -2.471a5.982 5.982 0 0 0 -0.574 -0.662Z" stroke-width="1"></path>
    <path id="Union_2" fill="#2859c5" d="M46.065 8.689a5.972 5.972 0 0 0 -0.491 -0.725c-0.599 -0.756 -1.433 -1.051 -2.279 -1.042 -0.831 0.01 -1.684 0.31 -2.408 0.752 -5.618 3.433 -11.325 7.602 -13.778 9.433 -0.451 0.337 -0.847 0.803 -1.057 1.333 -0.215 0.54 -0.242 1.166 0.095 1.749 0.336 0.583 0.892 0.872 1.466 0.956 0.565 0.083 1.166 -0.026 1.684 -0.249 2.812 -1.208 9.275 -4.066 15.058 -7.215 0.745 -0.406 1.431 -0.994 1.855 -1.71 0.43 -0.728 0.592 -1.598 0.237 -2.495a5.971 5.971 0 0 0 -0.382 -0.787Z" stroke-width="1"></path>
    <path id="Subtract" fill="#8fbffa" fill-rule="evenodd" d="M2.702 28.307c-0.353 -2.473 1.573 -4.418 3.863 -4.526C9.31 23.651 14.54 23.5 24 23.5c9.46 0 14.69 0.152 17.434 0.281 2.291 0.108 4.217 2.053 3.864 4.526C43.85 38.425 34.858 46.5 23.999 46.5c-10.858 0 -19.85 -8.075 -21.297 -18.193Z" clip-rule="evenodd" stroke-width="1"></path>
    <path id="Subtract_2" fill="#2859c5" fill-rule="evenodd" d="M30.67 36.702a1.5 1.5 0 1 0 1.503 2.596 16.803 16.803 0 0 0 7.358 -8.788 1.5 1.5 0 0 0 -2.821 -1.02 13.802 13.802 0 0 1 -6.04 7.212Z" clip-rule="evenodd" stroke-width="1"></path>
  </g>
</svg>