<svg xmlns="http://www.w3.org/2000/svg" fill="none" viewBox="0 0 14 14" id="Carrot--Streamline-Flex">
  <desc>
    Carrot Streamline Icon: https://streamlinehq.com
  </desc>
  <g id="carrot--vegetable-carrot">
    <path id="Subtract" fill="#2859c5" fill-rule="evenodd" d="M9.14291 0.0794972C10.1745 0.423569 9.74989 1.94382 9.48679 2.4869 10.06 1.68441 11.4816 0.354567 12.5821 1.45511c1.1006 1.10054 -0.2292 2.52195 -1.0317 3.09518 0.5431 -0.2631 2.0634 -0.68772 2.4074 0.34388 0.3498 1.04877 -2.0869 2.32715 -3.7035 2.95724 -0.2061 -1.0226 -0.86391 -1.93328 -1.53569 -2.60506 -0.69571 -0.6957 -1.64761 -1.37638 -2.7147 -1.55597 0.62772 -1.61571 2.06542 -3.968956 3.139 -3.6108828Z" clip-rule="evenodd" stroke-width="1"></path>
    <path id="Vector 591" fill="#8fbffa" d="M2.86544 4.85607C0.227921 7.49359 -0.145242 10.8759 0.0527679 12.7412c0.0664511 0.626 0.5448761 1.1044 1.1708721 1.1709 1.86533 0.198 5.24761 -0.1752 7.88512 -2.8127 2.22994 -2.22996 0.94764 -4.51527 -0.3902 -5.85312 -1.33786 -1.33786 -3.62317 -2.62016 -5.85312 -0.39021Z" stroke-width="1"></path>
    <path id="Union" fill="#2859c5" fill-rule="evenodd" d="M4.731 5.5771c-0.24407 -0.24408 -0.6398 -0.24408 -0.88388 0 -0.24408 0.24408 -0.24408 0.63981 0 0.88388l1.12132 1.12133c0.24408 0.24407 0.63981 0.24407 0.88388 0 0.24408 -0.24408 0.24408 -0.63981 0 -0.88389L4.731 5.5771Zm0.0608 4.30322c-0.24408 -0.24407 -0.63981 -0.24407 -0.88389 0 -0.24408 0.24408 -0.24408 0.63978 0 0.88388l1.01837 1.0184c0.24408 0.2441 0.63981 0.2441 0.88389 0 0.24407 -0.2441 0.24407 -0.6398 0 -0.8839L4.7918 9.88032Z" clip-rule="evenodd" stroke-width="1"></path>
  </g>
</svg>