<svg xmlns="http://www.w3.org/2000/svg" fill="none" viewBox="0 0 14 14" id="Fried-Egg-Breakfast--Streamline-Flex">
  <desc>
    Fried Egg Breakfast Streamline Icon: https://streamlinehq.com
  </desc>
  <g id="fried-egg-breakfast">
    <path id="Union" fill="#8fbffa" fill-rule="evenodd" d="M8.43262 0.519531c-3.26119 0 -5.39127 1.200209 -6.69164 2.780529C0.465859 4.84969 0.0419922 6.69861 0.0419922 7.95508c0 1.26343 0.4040528 2.63742 1.3120878 3.70842 0.92465 1.0906 2.33124 1.817 4.2133 1.817 2.04164 0 3.77251 -0.5201 4.92192 -2.2442 0.5427 -0.814 0.6972 -1.39365 0.7723 -1.84469 0.0127 -0.07622 0.023 -0.1384 0.0314 -0.18918 0.0344 -0.20859 0.0371 -0.22486 0.0466 -0.23149 0.0008 -0.00056 0.0016 -0.00105 0.0025 -0.00158 0.0023 -0.00132 0.005 -0.0029 0.0085 -0.00641l-0.0001 0.00019c0.0011 -0.00107 0.0089 -0.00816 0.0267 -0.02157 0.0213 -0.01605 0.0505 -0.03633 0.0905 -0.06224 0.0633 -0.041 0.1323 -0.08258 0.2186 -0.13457l0.0973 -0.05874c0.2528 -0.15323 0.5855 -0.36134 0.9079 -0.64792 0.6754 -0.60033 1.2665 -1.51244 1.2665 -2.94826 0 -1.14446 -0.4316 -2.30629 -1.3754 -3.17756 -0.9444 -0.87176 -2.3351 -1.392749 -4.14998 -1.392749Z" clip-rule="evenodd" stroke-width="1"></path>
    <path id="Vector" fill="#2859c5" d="M7.19531 8.0625c1.515 0 2.36719 -0.85219 2.36719 -2.36719s-0.85219 -2.36719 -2.36719 -2.36719 -2.36719 0.85219 -2.36719 2.36719 0.85219 2.36719 2.36719 2.36719Z" stroke-width="1"></path>
  </g>
</svg>