<svg xmlns="http://www.w3.org/2000/svg" fill="none" viewBox="0 0 14 14" id="Toaster--Streamline-Flex">
  <desc>
    Toaster Streamline Icon: https://streamlinehq.com
  </desc>
  <g id="toaster--bread-toast-cook-cooking-appliances-kitchenware">
    <path id="Subtract" fill="#2859c5" fill-rule="evenodd" d="M8.73486 0.35562c-1.6441 -0.3934311 -3.20843 -0.3934309 -4.85254 0.000001 -0.82317 0.196985 -1.79248 0.865949 -1.79248 1.947629 0 0.75296 0.54074 1.24439 1.10756 1.48715 -0.01215 0.22427 -0.01957 0.45239 -0.01957 0.68355 0 0.27507 0.0105 0.54565 0.02696 0.81048 0.00066 0.01057 0.00164 0.02104 0.00294 0.03142 0.99559 -0.08128 2.03582 -0.15618 3.10086 -0.15618 1.06499 0 2.10515 0.07489 3.10068 0.15616 0.0013 -0.01037 0.00228 -0.02084 0.00294 -0.0314 0.01646 -0.26483 0.02696 -0.53541 0.02696 -0.81048 0 -0.23114 -0.00742 -0.45923 -0.01957 -0.68347 0.5669 -0.24274 1.1077 -0.73419 1.1077 -1.48723 0 -1.08168 -0.96926 -1.750645 -1.79244 -1.94763ZM12.2382 9.1731c-0.017 -0.42679 -0.0599 -0.84471 -0.1131 -1.25h1.0038c0.3452 0 0.625 0.27982 0.625 0.625 0 0.34517 -0.2798 0.625 -0.625 0.625h-0.8907Z" clip-rule="evenodd" stroke-width="1"></path>
    <path id="Union" fill="#8fbffa" fill-rule="evenodd" d="M6.30859 5.15967c-1.17899 0 -2.32757 0.09178 -3.41886 0.1824 -1.1822 0.09817 -2.169002 1.00342 -2.342594 2.1862 -0.094848 0.64625 -0.176042 1.32936 -0.176042 2.03295 0 0.70358 0.081194 1.38668 0.176042 2.03298 0.173593 1.1827 1.160394 2.088 2.342594 2.1862 1.09129 0.0906 2.23987 0.1824 3.41886 0.1824 1.179 0 2.32758 -0.0918 3.41886 -0.1824 1.18225 -0.0982 2.16905 -1.0035 2.34265 -2.1862 0.0948 -0.6463 0.176 -1.3294 0.176 -2.03298 0 -0.70359 -0.0812 -1.3867 -0.176 -2.03295 -0.1736 -1.18277 -1.1604 -2.08803 -2.34265 -2.1862 -1.09128 -0.09062 -2.23986 -0.1824 -3.41886 -0.1824Z" clip-rule="evenodd" stroke-width="1"></path>
    <path id="Intersect" fill="#2859c5" fill-rule="evenodd" d="M12.1752 10.7798c-0.1619 0.0408 -0.3301 0.067 -0.5023 0.0769l-0.366 0.0212c-1.69737 0.0982 -3.45508 0.2 -5.25554 0.2 -1.80046 0 -3.55817 -0.1018 -5.255566 -0.2l-0.345599 -0.02c0.02804 0.25 0.061456 0.4956 0.096764 0.7362 0.173592 1.1828 1.160401 2.088 2.342601 2.1862 1.09128 0.0906 2.23986 0.1824 3.41886 0.1824 1.17899 0 2.32757 -0.0918 3.41886 -0.1824 1.18222 -0.0982 2.16902 -1.0034 2.34262 -2.1862 0.039 -0.2656 0.0756 -0.5374 0.1053 -0.8143Z" clip-rule="evenodd" stroke-width="1"></path>
  </g>
</svg>