<svg xmlns="http://www.w3.org/2000/svg" fill="none" viewBox="0 0 14 14" id="Departure-Time--Streamline-Flex-Remix">
  <desc>
    Departure Time Streamline Icon: https://streamlinehq.com
  </desc>
  <g id="departure-time--travel-plane-trip-airplane-time-off-adventure-timer-take-clock-airport">
    <path id="Union" fill="#000000" fill-rule="evenodd" d="M8.36153 0.861447C8.94804 0.274932 9.77804 0 10.7501 0c0.972 0 1.802 0.274932 2.3885 0.861447 0.5865 0.586513 0.8615 1.416523 0.8615 2.388553s-0.275 1.80204 -0.8615 2.38855c-0.0333 0.03335 -0.0675 0.0657 -0.1024 0.09704 -0.181 -0.11684 -0.3757 -0.21599 -0.5822 -0.29449 -1.4133 -0.53745 -2.59151 0.00967 -3.31399 0.61679 -0.03034 0.0255 -0.06022 0.05134 -0.08962 0.07747 -0.25577 -0.12961 -0.48677 -0.29471 -0.68886 -0.49681 -0.58652 -0.58651 -0.86145 -1.41652 -0.86145 -2.38855s0.27493 -1.80204 0.86145 -2.388553ZM11.91 2.09004c0.2441 0.24408 0.2441 0.63981 0 0.88388l-0.6936 0.6936c-0.244 0.24408 -0.6398 0.24408 -0.8838 0 -0.2441 -0.24408 -0.2441 -0.63981 0 -0.88388l0.6935 -0.6936c0.2441 -0.24408 0.6399 -0.24408 0.8839 0ZM1.25616 8.22483c0.07767 -0.60965 0.29722 -0.95125 0.55159 -1.15159 0.26566 -0.20923 0.65146 -0.32888 1.17042 -0.3322 1.05634 -0.00677 2.4298 0.47167 3.67028 1.1528 0.5082 0.27904 0.853 0.46202 1.1345 0.61141 0.44823 0.23787 0.73602 0.39059 1.26738 0.71034 0.28194 0.16966 0.64715 0.09165 0.83517 -0.17841l0.05773 -0.08306c0.25877 -0.37264 0.50967 -0.73396 0.80517 -0.98228 0.2854 -0.23978 0.5242 -0.30535 0.8171 -0.19399 0.2854 0.10853 0.4571 0.4155 0.4019 0.70745 -0.0747 0.39514 -0.1687 0.86463 -0.2754 1.33742 -0.0997 0.44218 -0.2345 0.90328 -0.447 1.21618 -0.1006 0.1482 -0.1982 0.2315 -0.287 0.2739 -0.0792 0.0378 -0.1949 0.0645 -0.3841 0.0227 -0.67983 -0.1504 -1.60667 -0.3586 -2.64001 -0.5995 -0.21159 -0.0494 -0.43362 0.0147 -0.58637 0.1692 -0.15275 0.1545 -0.21429 0.3773 -0.16254 0.5883 0.06962 0.2839 0.13335 0.5506 0.18928 0.7889 0.05405 0.2302 -0.06023 0.4263 -0.35135 0.462 -0.36842 0.0452 -0.80292 -0.1992 -1.29183 -0.8016 -0.46375 -0.5714 -0.83261 -1.2897 -1.08538 -1.79 -0.08151 -0.16136 -0.22887 -0.2795 -0.40406 -0.32398 -0.1209 -0.03069 -0.21742 -0.05505 -0.30011 -0.07592 -0.28346 -0.07154 -0.40511 -0.10225 -0.78962 -0.20644 -0.41441 -0.11229 -0.81208 -0.22366 -1.18436 -0.33254 -0.46524 -0.13607 -0.76288 -0.58487 -0.71139 -0.98909Zm5.99392 -1.42668c-1.31713 -0.72322 -2.91282 -1.31584 -4.27992 -1.30709 -0.69277 0.00444 -1.38226 0.16419 -1.93583 0.60018C0.46949 6.53611 0.125912 7.20552 0.0161823 8.06686 -0.123206 9.16101 0.64287 10.1289 1.61666 10.4137c0.38178 0.1116 0.78761 0.2253 1.20832 0.3393 0.39538 0.1071 0.52561 0.14 0.81242 0.2123l0.02211 0.0056c0.25428 0.4939 0.62902 1.178 1.101 1.7596 0.5348 0.6589 1.35579 1.3845 2.41465 1.2546 0.92562 -0.1136 1.56746 -0.8881 1.44902 -1.8069 0.64415 0.1472 1.21851 0.2757 1.67972 0.3778 0.4335 0.0959 0.8369 0.0545 1.1924 -0.1151 0.3458 -0.165 0.5985 -0.4284 0.7828 -0.6997 0.3574 -0.5263 0.5313 -1.1957 0.6323 -1.6434 0.1108 -0.49113 0.2077 -0.97564 0.2842 -1.38033 0.1699 -0.8988 -0.3455 -1.78846 -1.1858 -2.10799 -0.8511 -0.32366 -1.5595 -0.01987 -2.06557 0.40538 -0.29204 0.24542 -0.54444 0.55358 -0.75157 0.83499 -0.29382 -0.16742 -0.54332 -0.29998 -0.85698 -0.46662 -0.28305 -0.15038 -0.61835 -0.32852 -1.0856 -0.58508Z" clip-rule="evenodd" stroke-width="1"></path>
  </g>
</svg>