<svg xmlns="http://www.w3.org/2000/svg" fill="none" viewBox="0 0 14 14" id="Location-Pin-Medical-Hospital-2--Streamline-Flex-Remix">
  <desc>
    Location Pin Medical Hospital 2 Streamline Icon: https://streamlinehq.com
  </desc>
  <g id="location-pin-medical-hospital-2">
    <path id="Union" fill="#000000" fill-rule="evenodd" d="M2.2654 5.82533C2.44313 3.22318 4.50481 1.25 6.93877 1.25h0.12238c2.43396 0 4.49565 1.97318 4.67335 4.57533 0.087 1.27319 -0.189 2.55348 -0.9164 3.55234 -0.94129 1.29253 -1.89547 2.18043 -3.42961 3.24873 -0.23674 0.1648 -0.54033 0.1648 -0.77707 0 -1.53413 -1.0683 -2.48831 -1.9562 -3.42956 -3.24873 -0.7274 -0.99886 -1.00343 -2.27915 -0.91646 -3.55234ZM6.93877 0C3.80064 0 1.23756 2.53005 1.0183 5.74015c-0.102023 1.49373 0.21443 3.08439 1.15311 4.37335 1.04045 1.4288 2.10435 2.4097 3.72573 3.5387 0.66602 0.4637 1.53962 0.4637 2.20564 0 1.62138 -1.129 2.68532 -2.1099 3.72572 -3.5387 0.9387 -1.28896 1.2551 -2.87962 1.1531 -4.37335C12.7624 2.53005 10.1993 0 7.06115 0h-0.12238Zm-0.68881 4.07178c0 -0.41422 -0.33579 -0.75 -0.75 -0.75s-0.75 0.33578 -0.75 0.75v4.5c0 0.41421 0.33579 0.75 0.75 0.75s0.75 -0.33579 0.75 -0.75V6.81923c0.50123 -0.03165 0.99877 -0.03165 1.5 0v1.75255c0 0.41421 0.33579 0.75 0.75 0.75s0.75 -0.33579 0.75 -0.75v-4.5c0 -0.41422 -0.33579 -0.75 -0.75 -0.75s-0.75 0.33578 -0.75 0.75v1.24479c-0.50082 -0.0281 -0.99918 -0.0281 -1.5 0V4.07178Z" clip-rule="evenodd" stroke-width="1"></path>
  </g>
</svg>