<svg xmlns="http://www.w3.org/2000/svg" fill="none" viewBox="0 0 14 14" id="Map-Location--Streamline-Flex-Remix">
  <desc>
    Map Location Streamline Icon: https://streamlinehq.com
  </desc>
  <g id="map-location--map-location-pin-navigation-gps-travel">
    <path id="Union" fill="#000000" fill-rule="evenodd" d="M4.78955 0.0223004c-0.36613 -0.0478887 -0.75699 -0.0115088 -1.0908 0.0418212C3.28658 0.129968 2.88681 0.234917 2.59886 0.314315c-0.41551 0.114571 -0.86094 0.321855 -1.25238 0.508736 -0.19026 0.090831 -0.32647 0.231209 -0.416552 0.343939 -0.094118 0.11779 -0.169057 0.24506 -0.226567 0.35653 -0.20839 0.40391 -0.286152 0.83996 -0.345227 1.17123l-0.048936 0.27441c-0.412264 2.31178 -0.412264 4.67827 0 6.99004 0.007659 0.0429 0.015566 0.0897 0.023962 0.1394 0.036093 0.2136 0.081207 0.4805 0.154287 0.7248 0.094092 0.3146 0.254632 0.6723 0.574213 0.9555 0.16889 0.1497 0.4683 0.3331 0.8543 0.2595 0.3321 -0.0633 0.67953 -0.1867 0.98341 -0.2946 0.07907 -0.0281 0.15521 -0.0551 0.22734 -0.0797 0.18892 -0.0646 0.37011 -0.1289 0.54536 -0.1912 0.39424 -0.14 0.75918 -0.2696 1.11368 -0.3667 0.03682 -0.0101 0.08647 -0.0122 0.14592 0.0031l0.21671 0.0561 0.00988 0.0025 1.08688 0.2813c-0.21507 -0.6483 -0.27515 -1.3128 -0.23162 -1.9222 0.12391 -1.73472 1.2004 -3.1874 2.69589 -3.86122V2.2093c0.1789 -0.01808 0.35542 -0.06668 0.52162 -0.14625l0.06523 -0.03124c0.46872 -0.22455 0.87324 -0.41833 1.21464 -0.51247 0.3283 -0.09053 0.7401 -0.19595 1.1253 -0.2438 0.0679 0.08112 0.1258 0.19477 0.1761 0.36014 0.0512 0.16829 0.0827 0.34554 0.1211 0.56069l0.0227 0.12692c0.1803 0.99305 0.2761 2.00183 0.288 3.01207 0.0041 0.34515 0.2872 0.62165 0.6324 0.61757 0.3451 -0.00408 0.6216 -0.28718 0.6175 -0.63234 -0.0127 -1.0793 -0.1151 -2.15783 -0.308 -3.22052 -0.0061 -0.03362 -0.0123 -0.06907 -0.0188 -0.10601 -0.0377 -0.21304 -0.084 -0.47556 -0.1589 -0.72193 -0.0909 -0.298876 -0.2386 -0.631478 -0.5159 -0.911258 -0.1558 -0.157233 -0.4485 -0.3803634 -0.8517 -0.3430335 -0.5382 0.0498221 -1.0961 0.1955475 -1.4621 0.2964765 -0.45415 0.125229 -0.95518 0.365808 -1.38568 0.572517l-0.08351 0.040059 -0.01816 0.008628c-0.06841 0.032752 -0.14939 0.041235 -0.22949 0.020507L5.01105 0.063031 4.99671 0.0595C4.92895 0.0436627 4.8597 0.0314764 4.78955 0.0223004Zm0 1.2746696 -0.08341 -0.02158c-0.17888 -0.04019 -0.45898 -0.03303 -0.8102 0.02308 -0.34084 0.05445 -0.6858 0.14394 -0.96481 0.22087 -0.28542 0.07871 -0.62451 0.23094 -1.01577 0.41728 -0.00249 0.00285 -0.00546 0.00638 -0.00889 0.01067 -0.02551 0.03193 -0.05749 0.08201 -0.09225 0.14936 -0.10969 0.21262 -0.16301 0.46714 -0.22584 0.81947l-0.0486 0.27249c-0.38637 2.16662 -0.38637 4.38452 0 6.55114 0.01188 0.06661 0.02258 0.12934 0.03275 0.18898 0.03494 0.20487 0.06365 0.37317 0.1125 0.53647 0.04315 0.1443 0.09144 0.2428 0.14472 0.3123 0.18107 -0.0459 0.36842 -0.1122 0.59315 -0.1916 0.09276 -0.0328 0.1919 -0.0679 0.29959 -0.1047 0.15538 -0.0531 0.31738 -0.1106 0.48259 -0.1692 0.41446 -0.1471 0.84912 -0.3014 1.25018 -0.41137 0.11148 -0.03056 0.22359 -0.04704 0.33429 -0.05132V1.29697Zm5.80415 6.46524c-1.09753 0 -2.00845 0.84818 -2.08665 1.94291 -0.04 0.55998 0.08839 1.10218 0.40324 1.51558 0.45544 0.598 0.91559 1.0101 1.67961 1.5188 0.0211 0.0141 0.0491 0.0141 0.0702 0 0.764 -0.5087 1.2242 -0.9208 1.6796 -1.5188 0.3149 -0.4134 0.4432 -0.9556 0.4032 -1.51558 -0.0781 -1.09473 -0.9891 -1.94291 -2.0866 -1.94291h-0.0626ZM7.26023 9.61606c0.12492 -1.74887 1.58014 -3.10385 3.33347 -3.10385h0.0626c1.7533 0 3.2086 1.35498 3.3335 3.10385 0.0567 0.79364 -0.1181 1.65614 -0.6556 2.36194 -0.5585 0.7333 -1.1309 1.2357 -1.9813 1.8019 -0.4407 0.2935 -1.0151 0.2935 -1.4558 0 -0.85044 -0.5662 -1.42281 -1.0686 -1.98126 -1.8019 -0.53756 -0.7058 -0.7123 -1.5683 -0.65561 -2.36194Zm4.36647 0.11148c0 0.63996 -0.36 0.99996 -1 0.99996 -0.63999 0 -0.99999 -0.36 -0.99999 -0.99996 0 -0.64 0.36 -1 0.99999 -1 0.64 0 1 0.36 1 1Z" clip-rule="evenodd" stroke-width="1"></path>
  </g>
</svg>