<svg xmlns="http://www.w3.org/2000/svg" fill="none" viewBox="0 0 14 14" id="Street-Sign--Streamline-Flex-Remix">
  <desc>
    Street Sign Streamline Icon: https://streamlinehq.com
  </desc>
  <g id="street-sign--crossroad-street-sign-metaphor-directions-travel-places">
    <path id="Union" fill="#000000" fill-rule="evenodd" d="M7.07945 0.125209c-1.54293 -0.1975106 -3.02531 -0.1621297 -4.5488 0.111688 -0.26712 0.048011 -0.52234 0.164486 -0.7346 0.345642C1.21179 1.08118 0.709779 1.63197 0.269953 2.25785c-0.3424085 0.48726 -0.3678431 1.14104 -0.025976 1.65265 0.454194 0.67972 1.002443 1.23407 1.642613 1.72527 0.1981 0.152 0.42801 0.25065 0.66689 0.29438 1.28321 0.23492 2.53606 0.29704 3.82154 0.18978V13.375c0 0.3452 0.27982 0.625 0.625 0.625s0.625 -0.2798 0.625 -0.625v-3.0053c1.2855 0.1072 2.53838 0.0451 3.82158 -0.1898 0.2389 -0.0437 0.4688 -0.1424 0.6669 -0.29438 0.6402 -0.4912 1.1884 -1.04555 1.6426 -1.72526 0.3419 -0.51162 0.3164 -1.1654 -0.026 -1.65265 -0.4398 -0.62589 -0.9418 -1.17667 -1.5261 -1.67531 -0.2122 -0.18116 -0.4674 -0.29764 -0.7346 -0.34565 -1.2903 -0.23192 -2.55119 -0.29279 -3.84434 -0.18597L7.62509 0.745155c0 -0.314499 -0.23369 -0.580013 -0.54564 -0.619946Z" clip-rule="evenodd" stroke-width="1"></path>
  </g>
</svg>